<svg id="圖層_1" data-name="圖層 1" xmlns="http://www.w3.org/2000/svg" viewBox="0 0 183.2 203.46"><defs><style>.cls-1{fill:#fff;}</style></defs><title>0</title><path class="cls-1" d="M170.91,98.05c-1.71-6.08-1.76-11.51-1.8-16.31,0-4.15-.07-8.07-1.11-11.89-.8-2.93-2.24-4.77-4.29-5.48a4.69,4.69,0,0,0-.93-.23c-2.33-2.46-4.84-3.75-7.45-3.84H155a8.93,8.93,0,0,0-5.38,1.87h-.39a22,22,0,0,0-3.18.25,14,14,0,0,0-10.87,7.51,36.58,36.58,0,0,0-1.07-8.78c-.8-2.94-2.24-4.78-4.28-5.49a5.75,5.75,0,0,0-.93-.23c-2.34-2.45-4.84-3.74-7.45-3.84h-.31a9,9,0,0,0-5.37,1.87h-.38a22,22,0,0,0-3.18.25c-11.09,1.68-13.47,11.66-14.06,21.63a9,9,0,0,0-5.34,1.87h-.38a22,22,0,0,0-3.18.25c-8,1.2-11.39,6.79-12.92,13.17a76.5,76.5,0,0,1-.67-11c0-4.15-.07-8.07-1.11-11.89-.8-2.93-2.24-4.77-4.29-5.48a4.59,4.59,0,0,0-.92-.23c-2.34-2.46-4.84-3.75-7.46-3.84h-.29A9,9,0,0,0,56.26,60h-.39a22,22,0,0,0-3.18.25C39.08,62.3,38.45,77,38.42,90.56a8.7,8.7,0,0,0-3.22-.76h-.3a9,9,0,0,0-5.38,1.87h-.38a22,22,0,0,0-3.18.25c-14.27,2.15-14.27,18.16-14.27,32.28v1.26c0,6.85,0,13.32,1.7,18.09,1.9,5.31,5.74,8,11.72,8.31h.18l.9,0a16.93,16.93,0,0,0,6.6-1.37,9.33,9.33,0,0,0,1.92.2c3.52,0,7.41-1.87,10.65-5.12,4-4,7.46-10.79,5.41-18a44.8,44.8,0,0,1-1.42-7.64,19,19,0,0,0,2.48.28H52l.89,0a16.93,16.93,0,0,0,6.6-1.37,9.33,9.33,0,0,0,1.92.2c3.52,0,7.41-1.87,10.65-5.12A21.56,21.56,0,0,0,75,110.26V111c0,6.85,0,13.32,1.69,18.09,1.91,5.31,5.74,8,11.73,8.31h.18l.9,0a17,17,0,0,0,6.6-1.37,9.33,9.33,0,0,0,1.92.2c3.52,0,7.41-1.87,10.65-5.12,3.86-3.88,7.29-10.48,5.54-17.54a17.31,17.31,0,0,0,4.85-1.28,9.33,9.33,0,0,0,1.92.2c3.53,0,7.41-1.87,10.65-5.12.16-.16.32-.32.47-.49a28.85,28.85,0,0,0,1.4,7.16c1.91,5.31,5.74,8,11.72,8.31h.19l.9,0a17,17,0,0,0,6.6-1.37,9.31,9.31,0,0,0,1.91.2c3.53,0,7.41-1.87,10.66-5.12C169.45,112.12,173,105.29,170.91,98.05Zm-6.42,17c-3,3-6.53,4.7-9.65,4.7a7.74,7.74,0,0,1-2.05-.27,15.49,15.49,0,0,1-6.46,1.44l-.93,0h0c-5.46-.24-8.83-2.6-10.54-7.38A35.6,35.6,0,0,1,133.32,103a20.11,20.11,0,0,1-2.68,3.33c-3,3-6.53,4.7-9.64,4.7a7.68,7.68,0,0,1-2-.27,15.55,15.55,0,0,1-6.47,1.45h0c.1.41.19.81.31,1.21,1.87,6.66-1.38,13-5.06,16.66-3,3-6.53,4.7-9.64,4.7a7.81,7.81,0,0,1-2.06-.27A15.5,15.5,0,0,1,89.52,136c-.32,0-.62,0-.93,0h0c-5.46-.23-8.83-2.59-10.54-7.38-1.63-4.53-1.62-10.88-1.62-17.61v-1.25c0-2.4,0-4.8.06-7.16a19.35,19.35,0,0,1-5.41,10.37c-3,3-6.54,4.7-9.65,4.7a7.68,7.68,0,0,1-2-.27,15.54,15.54,0,0,1-6.47,1.44l-.92,0h0a14.84,14.84,0,0,1-4.22-.75,48.16,48.16,0,0,0,1.64,9.9c1.88,6.66-1.38,13-5.06,16.66-3,3-6.53,4.7-9.64,4.7a7.68,7.68,0,0,1-2.05-.27,15.54,15.54,0,0,1-6.47,1.44l-.92,0h0c-5.46-.24-8.82-2.6-10.54-7.38-1.62-4.53-1.62-10.88-1.61-17.61V124.2c0-14.22,0-28.92,13.06-30.89A19.33,19.33,0,0,1,30,93.1a7.61,7.61,0,0,1,4.89-1.89h.24A8.29,8.29,0,0,1,39.84,93v-.49c0-14.22,0-28.92,13.06-30.89a19.33,19.33,0,0,1,3.84-.21,7.67,7.67,0,0,1,4.89-1.89h.24c2.36.08,4.65,1.35,6.83,3.77a3.83,3.83,0,0,1,1.14.22c1.58.54,2.71,2.06,3.38,4.52,1,3.64,1,7.47,1.07,11.52,0,4.89.09,10.43,1.85,16.68a14.62,14.62,0,0,1,.5,2.93c.61-10.24,3-18.89,12.86-20.37a20.12,20.12,0,0,1,3.84-.21,7.55,7.55,0,0,1,5.13-1.88,6.27,6.27,0,0,1,1.06.13C100,66,102.21,56.64,112.46,55.09a19.37,19.37,0,0,1,3.84-.21A7.58,7.58,0,0,1,121.43,53c2.36.08,4.65,1.35,6.83,3.77a4.18,4.18,0,0,1,1.14.22c1.58.54,2.71,2.06,3.38,4.52,1,3.64,1,7.47,1.07,11.53,0,1.84,0,3.77.14,5.8,1.19-7.78,4.28-13.81,12.32-15a19.33,19.33,0,0,1,3.84-.21A7.61,7.61,0,0,1,155,61.71h.24c2.35.08,4.65,1.35,6.82,3.77a3.9,3.9,0,0,1,1.15.22c1.57.54,2.71,2.06,3.38,4.52,1,3.64,1,7.47,1.06,11.52.05,4.89.1,10.43,1.86,16.68C171.42,105.09,168.17,111.4,164.49,115.09Z"/></svg>