<svg id="圖層_1" data-name="圖層 1" xmlns="http://www.w3.org/2000/svg" viewBox="0 0 183.2 203.46"><defs><style>.cls-1{fill:#fff;}</style></defs><title>0</title><path class="cls-1" d="M154.22,64.12a8.38,8.38,0,0,0-5.29-5,9.19,9.19,0,0,0-2.8-.43c-2.24,0-7.75.92-10.47,9.49-.27.83-.51,1.69-.73,2.57a21.33,21.33,0,0,1-2.33-5.33c-1.74-5.74-5.3-8-8-9a11.86,11.86,0,0,0-3.85-.63,11,11,0,0,0-6.33,1.9,12.72,12.72,0,0,0-3.88,16.69,18.23,18.23,0,0,0,4.15,5.26c1.71,1.61,2.84,2.67,3.15,6.44s2.43,8.5,10.69,8.5h.14A8.77,8.77,0,0,1,135.8,98a62.92,62.92,0,0,1,.51,10.87,1.41,1.41,0,0,0,1.36,1.47H138a1.39,1.39,0,0,0,1-.38,1.37,1.37,0,0,0,.45-1,65.79,65.79,0,0,0-.53-11.38l.13-.35a4.18,4.18,0,0,0,.42-1.06c.56-2.15,2.18-2.88,4.78-3.89,2-.76,4.21-1.63,5.66-3.66A6,6,0,0,0,151,83.55c-.21-1.41-.45-3,1.58-6.77C155,72.26,155.64,67.64,154.22,64.12ZM149.6,83.76a4.57,4.57,0,0,1-.9,4c-1.21,1.69-3.15,2.45-5,3.17-2.5,1-4.87,1.89-5.64,4.85a2.83,2.83,0,0,1-.33.8c-.17.47-.28.74-.3.8a65.08,65.08,0,0,1,.57,11.5h-.25a64.57,64.57,0,0,0-.57-11.46,10.11,10.11,0,0,0-8.48-4.22h0c-5.93,0-9-2.35-9.38-7.19-.35-4.32-1.78-5.66-3.59-7.36a16.56,16.56,0,0,1-3.86-4.88,11.32,11.32,0,0,1,3.44-14.88,10.14,10.14,0,0,1,8.9-1.09c2.37.81,5.53,2.87,7.09,8a20.64,20.64,0,0,0,4.43,8.25A44.64,44.64,0,0,1,137,68.63c2.51-7.89,7.76-9.32,11.49-8.13a7,7,0,0,1,4.4,4.15c1.26,3.13.69,7.3-1.56,11.46S149.37,82.21,149.6,83.76Z"/><path class="cls-1" d="M130,96.42a9.19,9.19,0,0,0-2.8-.43c-2.24,0-7.76.92-10.47,9.48-.27.83-.51,1.7-.73,2.58a21.33,21.33,0,0,1-2.33-5.33c-1.74-5.74-5.3-8-8-9a11.88,11.88,0,0,0-3.86-.63c-.36,0-.73,0-1.09.05a7.36,7.36,0,0,0,1.7-1.69,6,6,0,0,0,1.15-5.08c-.21-1.41-.45-3,1.58-6.76,2.46-4.53,3.06-9.15,1.64-12.67a8.41,8.41,0,0,0-5.29-5,9.19,9.19,0,0,0-2.8-.43c-2.24,0-7.75.92-10.47,9.49-.27.83-.51,1.69-.73,2.57a21.33,21.33,0,0,1-2.33-5.33c-1.74-5.74-5.3-8-8-9a11.88,11.88,0,0,0-3.86-.63,11,11,0,0,0-6.32,1.9,12.71,12.71,0,0,0-3.88,16.69,17.71,17.71,0,0,0,1.23,2c-2.6.32-7.06,2-9.42,9.43-.26.83-.5,1.69-.73,2.57A21.7,21.7,0,0,1,51.92,86c-1.74-5.74-5.3-8-8-9a11.92,11.92,0,0,0-3.86-.63,11,11,0,0,0-6.33,1.9A12.7,12.7,0,0,0,29.88,95,18.06,18.06,0,0,0,34,100.28c1.72,1.61,2.85,2.67,3.15,6.44s2.43,8.5,10.83,8.5a8.75,8.75,0,0,1,7.12,3.33,62,62,0,0,1,.51,10.88A1.41,1.41,0,0,0,57,130.89h.31a1.37,1.37,0,0,0,1-.38,1.42,1.42,0,0,0,.46-1,65.76,65.76,0,0,0-.54-11.38l.13-.35a4.18,4.18,0,0,0,.42-1.06c.57-2.15,2.19-2.88,4.78-3.89,2-.76,4.21-1.63,5.66-3.66a5.91,5.91,0,0,0,1.15-5.08c-.21-1.41-.45-3,1.59-6.76A24,24,0,0,0,73,94.93c1.82,1.72,4.58,2.58,8.26,2.58a8.75,8.75,0,0,1,7.12,3.33,63,63,0,0,1,.51,10.88,1.41,1.41,0,0,0,1.36,1.46h.3a1.43,1.43,0,0,0,1-.37,1.39,1.39,0,0,0,.36-.62A18.29,18.29,0,0,0,95.81,117c1.71,1.61,2.84,2.67,3.15,6.44s2.43,8.5,10.69,8.5h.14a8.75,8.75,0,0,1,7.12,3.33,63.89,63.89,0,0,1,.51,10.87,1.42,1.42,0,0,0,1.36,1.47h.3a1.42,1.42,0,0,0,1.42-1.36,66.8,66.8,0,0,0-.53-11.38l.13-.35a4.18,4.18,0,0,0,.42-1.06c.56-2.16,2.1-2.85,4.78-3.89,2-.76,4.2-1.63,5.66-3.66a6,6,0,0,0,1.15-5.08c-.21-1.41-.46-3,1.58-6.77,2.46-4.52,3.05-9.14,1.64-12.66A8.38,8.38,0,0,0,130,96.42ZM90.66,98.68a2.83,2.83,0,0,1-.33.8c-.17.47-.28.74-.3.8.11.82.21,1.65.29,2.49-.06.28-.13.57-.17.86-.1-1.12-.22-2.23-.37-3.32A10.12,10.12,0,0,0,81.3,96.1h0c-4.61,0-7.48-1.44-8.71-4.36a19.33,19.33,0,0,1-1.88,4.94c-2.26,4.17-2,6.1-1.74,7.65a4.59,4.59,0,0,1-.9,4c-1.21,1.68-3.15,2.44-5,3.16-2.5,1-4.86,1.89-5.64,4.85a2.34,2.34,0,0,1-.33.8c-.17.47-.28.74-.3.81a64,64,0,0,1,.57,11.49h-.25A63.64,63.64,0,0,0,56.48,118,10.08,10.08,0,0,0,48,113.8h0c-5.92,0-9-2.35-9.38-7.19-.34-4.32-1.78-5.66-3.59-7.36a16.73,16.73,0,0,1-3.86-4.88,11.32,11.32,0,0,1,3.44-14.88,10.16,10.16,0,0,1,8.91-1.09c2.37.82,5.52,2.87,7.09,8A20.52,20.52,0,0,0,55,94.68a44.64,44.64,0,0,1,1.34-5.48c2.5-7.86,7.72-9.3,11.45-8.14a15.83,15.83,0,0,1-3.35-4.4,11.32,11.32,0,0,1,3.44-14.88,10.17,10.17,0,0,1,8.9-1.09c2.37.82,5.53,2.87,7.09,8A20.64,20.64,0,0,0,88.29,77a44.64,44.64,0,0,1,1.34-5.48c2.5-7.89,7.76-9.31,11.49-8.13a7,7,0,0,1,4.4,4.15c1.26,3.13.69,7.3-1.56,11.46s-2,6.1-1.74,7.65a4.62,4.62,0,0,1-.9,4c-1.21,1.69-3.15,2.44-5,3.16C93.8,94.8,91.43,95.72,90.66,98.68Zm41.79,14.7c-2.27,4.17-2,6.1-1.74,7.65a4.6,4.6,0,0,1-.9,4c-1.21,1.69-3.15,2.45-5,3.17-2.5,1-4.86,1.89-5.63,4.85a2.83,2.83,0,0,1-.33.8c-.17.47-.28.74-.31.8a63.16,63.16,0,0,1,.57,11.49h-.25a63.67,63.67,0,0,0-.56-11.46,10.11,10.11,0,0,0-8.48-4.22h0c-5.93,0-9-2.35-9.38-7.19-.35-4.32-1.78-5.66-3.59-7.36a16.4,16.4,0,0,1-3.86-4.88,13.29,13.29,0,0,1-.86-2.08c0-2.09-.11-4.13-.3-6.1a12,12,0,0,1,4.6-6.7,10.14,10.14,0,0,1,8.9-1.09c2.37.81,5.53,2.87,7.09,8a20.71,20.71,0,0,0,4.43,8.25,44.64,44.64,0,0,1,1.34-5.48c2.5-7.89,7.76-9.31,11.49-8.13a7,7,0,0,1,4.4,4.15C135.27,105.05,134.7,109.22,132.45,113.38Z"/></svg>