<svg id="圖層_1" data-name="圖層 1" xmlns="http://www.w3.org/2000/svg" viewBox="0 0 135.85 60.22"><defs><style>.cls-1{fill:#fff;}</style></defs><title>0</title><path class="cls-1" d="M86.22,31.89a9.3,9.3,0,0,0-1.15-.31,9,9,0,0,0,1.06-15.43,9.85,9.85,0,0,0,.1-1.08,9,9,0,0,0-8.69-9.23A9,9,0,0,0,69.39,0h-.24a8.91,8.91,0,0,0-8.23,5.37,9,9,0,0,0-9,8.72c0,.31,0,.62,0,.93a9,9,0,0,0,.43,15.88,7.57,7.57,0,0,0-1.4.29,7.08,7.08,0,0,0-4.81,5.39,8.42,8.42,0,0,0,1.87,6.9c1.54,2,5.31,5.27,13.17,5.38h.26a12.6,12.6,0,0,0,6.81-1.72,12.79,12.79,0,0,0,7,2H76c7.39,0,11.1-3,12.65-4.86a8.43,8.43,0,0,0,2.14-6.81A7.11,7.11,0,0,0,86.22,31.89Zm1.37,11.48C86.18,45,82.82,47.74,76,47.74h-.68c-3.44-.09-5.82-1.14-7-2.43-1.21,1.21-3.55,2.15-6.85,2.15h-.25C54,47.34,50.55,44.37,49.16,42.6a7,7,0,0,1-1.6-5.7,5.7,5.7,0,0,1,9.16-3.38,13.06,13.06,0,0,1,2.05,2.58C60,38,61.34,39.93,64.94,40.78c-.65-6.69-3.67-10.37-4.72-11.46a7.54,7.54,0,0,1-11.3-7.8,7.5,7.5,0,0,1,4.59-5.67,7.82,7.82,0,0,1-.16-1.72,7.5,7.5,0,0,1,2.37-5.28,7.58,7.58,0,0,1,5.41-2.06,6.75,6.75,0,0,1,.75.07A7.55,7.55,0,0,1,76.5,7.3a6.69,6.69,0,0,1,1,0A7.57,7.57,0,0,1,84.81,15a7.73,7.73,0,0,1-.28,1.82,7.55,7.55,0,0,1-3.45,14.27h-.23A7.62,7.62,0,0,1,77.14,30,19.36,19.36,0,0,0,72,40.91c3.58-.72,5-2.6,6.27-4.42A13.64,13.64,0,0,1,80.39,34a5.7,5.7,0,0,1,9,3.74A7,7,0,0,1,87.59,43.37ZM56.78,31.8a8.94,8.94,0,0,0,3.09-.72,17.85,17.85,0,0,1,3.33,7.57A8.81,8.81,0,0,1,60,35.31a14.72,14.72,0,0,0-2.27-2.84A6,6,0,0,0,56.78,31.8Zm23.28.68a4.83,4.83,0,0,0-.58.43,14.81,14.81,0,0,0-2.38,2.74,9,9,0,0,1-3.24,3.14,18.06,18.06,0,0,1,3.58-7A9,9,0,0,0,80.06,32.48Z"/><path class="cls-1" d="M40.19,39.71a7,7,0,0,0-1.11-.3A9,9,0,0,0,40.1,24a7.89,7.89,0,0,0,.1-1.08,9,9,0,0,0-8.69-9.23,9,9,0,0,0-8.14-5.84H23.1a9,9,0,0,0-8.21,5.37h0a9,9,0,0,0-9,8.71,7.38,7.38,0,0,0,0,.94,9,9,0,0,0,.43,15.87A7.26,7.26,0,0,0,5,39,7,7,0,0,0,.16,44.4,8.46,8.46,0,0,0,2,51.3c1.55,2,5.31,5.27,13.17,5.38h.26A12.52,12.52,0,0,0,22.27,55a12.68,12.68,0,0,0,7,2H30c7.4,0,11.1-3,12.65-4.86a8.44,8.44,0,0,0,2.14-6.82A7.06,7.06,0,0,0,40.19,39.71Zm1.37,11.48C40.15,52.84,36.8,55.55,30,55.55h-.68c-3.43-.08-5.81-1.13-7-2.42-1.21,1.21-3.54,2.15-6.85,2.15H15.2c-7.26-.1-10.67-3.07-12.06-4.84a7,7,0,0,1-1.6-5.71,5.6,5.6,0,0,1,3.85-4.35,5.62,5.62,0,0,1,5.31,1,13.49,13.49,0,0,1,2.05,2.59c1.26,1.88,2.56,3.83,6.17,4.68-.65-6.69-3.68-10.37-4.73-11.47A7.54,7.54,0,1,1,7.48,23.67a7.37,7.37,0,0,1-.15-1.73,7.56,7.56,0,0,1,7.55-7.33h.22l.76.06a7.55,7.55,0,0,1,14.61.45,8.8,8.8,0,0,1,1,0,7.57,7.57,0,0,1,7.34,7.78,7.59,7.59,0,0,1-.29,1.81,7.56,7.56,0,0,1-3.45,14.28h-.22a7.47,7.47,0,0,1-3.71-1.12,19.43,19.43,0,0,0-5.18,10.9c3.58-.71,4.95-2.59,6.28-4.42a13.58,13.58,0,0,1,2.15-2.49,5.7,5.7,0,0,1,9,3.74A7,7,0,0,1,41.56,51.19ZM10.75,39.62a9.28,9.28,0,0,0,3.1-.72,17.81,17.81,0,0,1,3.32,7.57,8.81,8.81,0,0,1-3.24-3.35,15.07,15.07,0,0,0-2.27-2.83A5.47,5.47,0,0,0,10.75,39.62ZM34,40.3a6,6,0,0,0-.57.42,14.88,14.88,0,0,0-2.39,2.75,8.85,8.85,0,0,1-3.23,3.14,17.72,17.72,0,0,1,3.58-7A9.13,9.13,0,0,0,34,40.3Z"/><path class="cls-1" d="M135.75,48.54A7.09,7.09,0,0,0,131.16,43a7.82,7.82,0,0,0-1.15-.31,9,9,0,0,0,1.06-15.43,9.85,9.85,0,0,0,.1-1.08,9,9,0,0,0-8.69-9.23,9,9,0,0,0-8.15-5.84h-.26a8.9,8.9,0,0,0-8.22,5.37h0a9,9,0,0,0-9,8.72,7.26,7.26,0,0,0,0,.93,9,9,0,0,0-3,13A9,9,0,0,0,97.33,42a7.6,7.6,0,0,0-1.4.3,7.08,7.08,0,0,0-4.81,5.39A8.43,8.43,0,0,0,93,54.55c1.54,2,5.31,5.27,13.16,5.38h.27a12.51,12.51,0,0,0,6.81-1.72,12.71,12.71,0,0,0,7,2H121c7.39,0,11.1-3,12.65-4.86A8.44,8.44,0,0,0,135.75,48.54Zm-3.22,5.9c-1.41,1.65-4.77,4.37-11.57,4.37h-.68c-3.44-.09-5.82-1.14-7-2.43-1.21,1.21-3.55,2.15-6.85,2.15h-.25c-7.27-.11-10.68-3.08-12.07-4.85A7,7,0,0,1,92.5,48a5.7,5.7,0,0,1,9.16-3.38,13.06,13.06,0,0,1,2,2.58c1.26,1.89,2.56,3.83,6.17,4.68-.65-6.69-3.67-10.37-4.73-11.46a7.54,7.54,0,1,1-6.7-13.47,7.82,7.82,0,0,1-.16-1.72,7.57,7.57,0,0,1,7.56-7.34h.22l.75.06a7.54,7.54,0,0,1,7.25-5.43h.22a7.54,7.54,0,0,1,7.15,5.88,6.69,6.69,0,0,1,1,0,7.57,7.57,0,0,1,7.33,7.77,7.73,7.73,0,0,1-.28,1.82A7.55,7.55,0,0,1,126,42.19h-.23a7.62,7.62,0,0,1-3.71-1.11A19.36,19.36,0,0,0,116.91,52c3.58-.71,5-2.59,6.27-4.41a13.31,13.31,0,0,1,2.15-2.5,5.69,5.69,0,0,1,9,3.74A7,7,0,0,1,132.53,54.44ZM101.72,42.87a8.94,8.94,0,0,0,3.09-.72,18,18,0,0,1,3.33,7.57,8.81,8.81,0,0,1-3.25-3.34,14.72,14.72,0,0,0-2.27-2.84A6,6,0,0,0,101.72,42.87Zm23.28.68a4.15,4.15,0,0,0-.58.43A14.45,14.45,0,0,0,122,46.72a9,9,0,0,1-3.24,3.14,18,18,0,0,1,3.58-7A9.19,9.19,0,0,0,125,43.55Z"/></svg>