<svg id="圖層_1" data-name="圖層 1" xmlns="http://www.w3.org/2000/svg" viewBox="0 0 183.2 203.46"><defs><style>.cls-1{fill:#fff;}</style></defs><title>0</title><path class="cls-1" d="M109.89,103.51a7.38,7.38,0,0,0-1.14-.31,9,9,0,0,0,1-15.43,7.89,7.89,0,0,0,.1-1.08,9,9,0,0,0-8.69-9.23,9,9,0,0,0-8.14-5.84h-.25A8.89,8.89,0,0,0,84.59,77a9,9,0,0,0-6.17,2.45,8.92,8.92,0,0,0-2.81,6.26,7.38,7.38,0,0,0,0,.94,9,9,0,0,0,.43,15.87,7.26,7.26,0,0,0-1.4.3,7,7,0,0,0-4.81,5.39,8.46,8.46,0,0,0,1.86,6.9c1.55,2,5.31,5.27,13.17,5.38h.26A12.52,12.52,0,0,0,92,118.76a12.68,12.68,0,0,0,7,2h.71c7.39,0,11.1-3,12.65-4.86a8.44,8.44,0,0,0,2.14-6.82A7.06,7.06,0,0,0,109.89,103.51ZM111.26,115c-1.41,1.65-4.76,4.36-11.57,4.36H99c-3.43-.09-5.82-1.14-7-2.43-1.21,1.21-3.54,2.15-6.85,2.15H84.9c-7.26-.1-10.67-3.07-12.06-4.84a7,7,0,0,1-1.6-5.7,5.69,5.69,0,0,1,9.16-3.38,13.43,13.43,0,0,1,2,2.58c1.26,1.89,2.56,3.83,6.17,4.68-.65-6.69-3.68-10.37-4.73-11.46a7.55,7.55,0,1,1-6.71-13.47A7.28,7.28,0,0,1,77,85.75a7.57,7.57,0,0,1,7.77-7.34l.76.06a7.55,7.55,0,0,1,14.61.45,8.8,8.8,0,0,1,1,0,7.58,7.58,0,0,1,7.34,7.78,7.75,7.75,0,0,1-.29,1.82,7.55,7.55,0,0,1-3.45,14.27h-.22a7.56,7.56,0,0,1-3.71-1.11,19.35,19.35,0,0,0-5.18,10.89c3.58-.71,5-2.59,6.28-4.42a13.58,13.58,0,0,1,2.15-2.49,5.7,5.7,0,0,1,9,3.74A7,7,0,0,1,111.26,115ZM80.45,103.42a9,9,0,0,0,3.1-.72,17.81,17.81,0,0,1,3.32,7.57,8.79,8.79,0,0,1-3.24-3.34,14.8,14.8,0,0,0-2.27-2.84A6.1,6.1,0,0,0,80.45,103.42Zm23.28.68a4.73,4.73,0,0,0-.57.43,14.52,14.52,0,0,0-2.39,2.74,8.85,8.85,0,0,1-3.23,3.14,17.72,17.72,0,0,1,3.58-7A9.13,9.13,0,0,0,103.73,104.1Z"/><path class="cls-1" d="M63.87,111.33a7.45,7.45,0,0,0-1.12-.31,9,9,0,0,0,5-7.76,9,9,0,0,0-3.92-7.67,9.85,9.85,0,0,0,.1-1.08,9,9,0,0,0-8.69-9.23,9,9,0,0,0-8.14-5.84h-.28a9,9,0,0,0-8.2,5.38h0a9,9,0,0,0-9,8.71c0,.31,0,.62,0,.94A9,9,0,0,0,30,110.33a7.57,7.57,0,0,0-1.4.29,7.1,7.1,0,0,0-4.81,5.4,8.43,8.43,0,0,0,1.87,6.9c1.54,2,5.31,5.27,13.17,5.38h.26a12.6,12.6,0,0,0,6.81-1.72,12.71,12.71,0,0,0,7,2h.72c7.39,0,11.1-3,12.65-4.86a8.44,8.44,0,0,0,2.14-6.82A7.09,7.09,0,0,0,63.87,111.33Zm1.37,11.48c-1.41,1.65-4.77,4.36-11.57,4.36H53c-3.44-.09-5.82-1.13-7-2.42-1.21,1.21-3.55,2.14-6.85,2.14h-.25c-7.26-.1-10.68-3.08-12.07-4.84a7.06,7.06,0,0,1-1.6-5.71A5.71,5.71,0,0,1,34.37,113a13.06,13.06,0,0,1,2.05,2.58c1.27,1.89,2.57,3.84,6.17,4.69-.65-6.7-3.67-10.38-4.72-11.47a7.59,7.59,0,0,1-5.18,1,7.56,7.56,0,0,1-1.53-14.44A7.82,7.82,0,0,1,31,93.56a7.58,7.58,0,0,1,7.56-7.34h.22a5,5,0,0,1,.75.06,7.55,7.55,0,0,1,14.62.44,8.53,8.53,0,0,1,1,0,7.55,7.55,0,0,1,7.33,7.78,7.73,7.73,0,0,1-.28,1.81,7.56,7.56,0,0,1-3.45,14.28H58.5a7.52,7.52,0,0,1-3.71-1.11,19.4,19.4,0,0,0-5.17,10.9c3.58-.72,5-2.59,6.27-4.42a14,14,0,0,1,2.15-2.5,5.7,5.7,0,0,1,9,3.75A7,7,0,0,1,65.24,122.81ZM34.43,111.24a9.17,9.17,0,0,0,3.09-.72,17.79,17.79,0,0,1,3.33,7.57,8.84,8.84,0,0,1-3.25-3.35,14.67,14.67,0,0,0-2.27-2.83A5.4,5.4,0,0,0,34.43,111.24Zm23.28.68a6.13,6.13,0,0,0-.58.42,15.19,15.19,0,0,0-2.38,2.75,9,9,0,0,1-3.24,3.14,18,18,0,0,1,3.58-7A9.28,9.28,0,0,0,57.71,111.92Z"/><path class="cls-1" d="M159.42,120.16a7.07,7.07,0,0,0-4.59-5.58,7.38,7.38,0,0,0-1.14-.31,9,9,0,0,0,1.05-15.43,7.89,7.89,0,0,0,.1-1.08,9,9,0,0,0-8.69-9.23A9,9,0,0,0,138,82.69h-.26a8.87,8.87,0,0,0-8.21,5.37h0a9,9,0,0,0-9,8.71,7.38,7.38,0,0,0,0,.94,9,9,0,0,0,.43,15.87,6.59,6.59,0,0,0-1.4.3,7,7,0,0,0-4.81,5.39,8.46,8.46,0,0,0,1.86,6.9c1.55,2,5.31,5.27,13.17,5.38h.26a12.52,12.52,0,0,0,6.82-1.72,12.68,12.68,0,0,0,7,2h.71c7.39,0,11.1-3.05,12.65-4.86A8.44,8.44,0,0,0,159.42,120.16Zm-3.22,5.9c-1.41,1.65-4.77,4.36-11.57,4.36H144c-3.43-.08-5.82-1.13-7-2.42-1.21,1.21-3.54,2.15-6.85,2.15h-.25c-7.26-.1-10.67-3.07-12.06-4.84a7,7,0,0,1-1.6-5.71,5.7,5.7,0,0,1,9.16-3.38,13.89,13.89,0,0,1,2,2.59c1.26,1.89,2.56,3.83,6.17,4.68-.65-6.69-3.68-10.37-4.73-11.46a7.55,7.55,0,1,1-6.71-13.47,7.37,7.37,0,0,1-.15-1.73,7.56,7.56,0,0,1,7.55-7.33h.22l.76.06a7.54,7.54,0,0,1,7.24-5.44H138A7.52,7.52,0,0,1,145.11,90a8.8,8.8,0,0,1,1,0,7.58,7.58,0,0,1,7.34,7.78,7.75,7.75,0,0,1-.29,1.81,7.56,7.56,0,0,1-3.45,14.28h-.22a7.47,7.47,0,0,1-3.71-1.12,19.43,19.43,0,0,0-5.18,10.9c3.58-.71,4.95-2.59,6.28-4.42a13.58,13.58,0,0,1,2.15-2.49,5.57,5.57,0,0,1,5.34-.77,5.63,5.63,0,0,1,3.68,4.51A7,7,0,0,1,156.2,126.06Zm-30.81-11.57a9.17,9.17,0,0,0,3.09-.72,17.67,17.67,0,0,1,3.33,7.57,8.86,8.86,0,0,1-3.24-3.34,14.49,14.49,0,0,0-2.28-2.84A5,5,0,0,0,125.39,114.49Zm23.28.68a6,6,0,0,0-.57.42,14.88,14.88,0,0,0-2.39,2.75,8.93,8.93,0,0,1-3.23,3.14,17.72,17.72,0,0,1,3.58-7A9.13,9.13,0,0,0,148.67,115.17Z"/></svg>