<svg id="圖層_1" data-name="圖層 1" xmlns="http://www.w3.org/2000/svg" viewBox="0 0 142.89 81.96"><defs><style>.cls-1{fill:#fff;}</style></defs><title>0</title><path class="cls-1" d="M136.8,14.6c-1-.78-2.1-1.65-3.26-2.72a34.59,34.59,0,0,1-5-5.72C125.08,1.27,121,.25,118.22.25a14.23,14.23,0,0,0-7,2c-5.53,1.11-12.62,4-15.53,11.62a18.82,18.82,0,0,0-1.19,5.87,34.71,34.71,0,0,0-1.4,4.25,11.27,11.27,0,0,0-4.08-.75A14.25,14.25,0,0,0,82.43,25c-1.07-2.61-3-4.14-5.22-5.88-1-.77-2.1-1.64-3.26-2.71a34.64,34.64,0,0,1-5-5.72c-3.45-4.89-7.51-5.92-10.31-5.92a14.21,14.21,0,0,0-7,2c-5.53,1.11-12.62,4-15.53,11.62A18.82,18.82,0,0,0,35,24.18a45.7,45.7,0,0,0-2.36,8.53l-.05.24c-.07.35-.14.79-.19,1.29a11.19,11.19,0,0,0-6-1.68,14.23,14.23,0,0,0-6.95,1.95c-5.54,1.11-12.62,4-15.53,11.62A18.48,18.48,0,0,0,2.72,52,46.77,46.77,0,0,0,.36,60.53l0,.24A15.91,15.91,0,0,0,1.69,71.14C3.88,75.3,8,78.27,13.9,80a46.57,46.57,0,0,0,12.4,2h0a19.19,19.19,0,0,0,8.83-1.89C45.71,76,51.07,68.53,51.07,58a14.25,14.25,0,0,0-.73-4.82,39.42,39.42,0,0,0,8.21,1,22.36,22.36,0,0,0,4.16-.37,15.42,15.42,0,0,0,1.67,8c2.18,4.16,6.29,7.13,12.2,8.81a46.64,46.64,0,0,0,12.41,2,19.2,19.2,0,0,0,8.84-1.89c10.32-4,15.67-11.2,15.91-21.35a34.74,34.74,0,0,0,4.4.3A19.19,19.19,0,0,0,127,47.76c10.57-4.11,15.92-11.54,15.92-22.08C142.9,19.39,140.21,17.28,136.8,14.6ZM126.39,46.46a17.59,17.59,0,0,1-8.25,1.77,35.63,35.63,0,0,1-5.83-.53c0,.29,0,.6,0,.92,0,9.92-5.08,16.91-15.09,20.78A17.56,17.56,0,0,1,89,71.17a44.59,44.59,0,0,1-12-2c-5.53-1.56-9.34-4.29-11.34-8.1a14.43,14.43,0,0,1-1.28-9.19,19.93,19.93,0,0,1-5.8.8A43.38,43.38,0,0,1,47.46,51c1.38,1.61,2.19,3.58,2.19,7,0,9.92-5.08,16.91-15.09,20.78a17.59,17.59,0,0,1-8.25,1.77,45,45,0,0,1-12-2C8.76,77,5,74.29,3,70.48A14.51,14.51,0,0,1,1.71,61l0-.23A44,44,0,0,1,4.13,52.3a17.12,17.12,0,0,1,1.11-5.66C8,39.55,14.75,36.86,20,35.85c.46-.3,7.58-4.76,13.71,1.23A15.73,15.73,0,0,1,34,33.22L34,33a44.54,44.54,0,0,1,2.37-8.51,17.48,17.48,0,0,1,1.12-5.66C40.2,11.73,47,9,52.21,8c.5-.33,9.11-5.73,15.57,3.43a35.75,35.75,0,0,0,5.21,6c1.21,1.1,2.35,2,3.35,2.79,2.53,2,4.41,3.47,5.17,6.51l1.14-.24c.4-.26,5.95-3.73,11.46-.51A37.32,37.32,0,0,1,96,20a17.48,17.48,0,0,1,1.12-5.66c2.72-7.09,9.5-9.78,14.73-10.79.5-.33,9.11-5.72,15.57,3.43a35.75,35.75,0,0,0,5.21,6c1.21,1.1,2.35,2,3.35,2.79,3.34,2.62,5.55,4.36,5.55,10C141.48,35.6,136.4,42.59,126.39,46.46Z"/></svg>