<svg id="圖層_1" data-name="圖層 1" xmlns="http://www.w3.org/2000/svg" viewBox="0 0 183.2 203.46"><defs><style>.cls-1{fill:#fff;}</style></defs><title>0</title><path class="cls-1" d="M157,75.22c-1-.77-2.09-1.65-3.26-2.71a34.26,34.26,0,0,1-5-5.73c-3.44-4.88-7.5-5.91-10.3-5.91a14.34,14.34,0,0,0-6.95,2c-5.54,1.12-12.62,4.05-15.53,11.63a18.88,18.88,0,0,0-1.2,5.86,36.69,36.69,0,0,0-1.4,4.26,11.21,11.21,0,0,0-4.07-.75,14.26,14.26,0,0,0-6.65,1.77c-1.06-2.61-3-4.14-5.22-5.88-1-.77-2.09-1.65-3.26-2.71a35.19,35.19,0,0,1-5-5.73c-3.44-4.88-7.5-5.91-10.3-5.91a14.34,14.34,0,0,0-7,2c-5.54,1.12-12.62,4-15.53,11.63a18.88,18.88,0,0,0-1.2,5.86,46.77,46.77,0,0,0-2.36,8.54l0,.23c-.07.36-.14.8-.2,1.3a11.18,11.18,0,0,0-6-1.69,14.34,14.34,0,0,0-6.95,1.95C34.06,96.25,27,99.18,24.07,106.76a18.64,18.64,0,0,0-1.2,5.86,46.39,46.39,0,0,0-2.35,8.54l-.05.24a16,16,0,0,0,1.38,10.36c2.18,4.17,6.29,7.13,12.2,8.81a46.28,46.28,0,0,0,12.4,2h0a19,19,0,0,0,8.83-1.9c10.57-4.11,15.93-11.53,15.93-22.07a14,14,0,0,0-.73-4.82,40.11,40.11,0,0,0,8.21,1,23.35,23.35,0,0,0,4.17-.37,15.37,15.37,0,0,0,1.66,8c2.18,4.17,6.29,7.13,12.2,8.81a46.35,46.35,0,0,0,12.42,2,19.06,19.06,0,0,0,8.83-1.9c10.32-4,15.67-11.19,15.92-21.35a34.68,34.68,0,0,0,4.39.31,19.1,19.1,0,0,0,8.84-1.9c10.56-4.11,15.92-11.53,15.92-22.07C163.05,80,160.36,77.9,157,75.22Zm-10.41,31.87a17.56,17.56,0,0,1-8.25,1.77,35.63,35.63,0,0,1-5.83-.53c0,.29,0,.6,0,.92,0,9.92-5.08,16.91-15.1,20.78a17.55,17.55,0,0,1-8.24,1.77,44.6,44.6,0,0,1-12-2c-5.52-1.57-9.34-4.3-11.34-8.11a14.48,14.48,0,0,1-1.28-9.19,19.87,19.87,0,0,1-5.8.81,43.25,43.25,0,0,1-11.08-1.7c1.37,1.61,2.18,3.58,2.18,7,0,9.92-5.08,16.91-15.09,20.78a17.56,17.56,0,0,1-8.25,1.77,44.59,44.59,0,0,1-12-2c-5.53-1.57-9.34-4.3-11.34-8.11a14.48,14.48,0,0,1-1.24-9.43l.05-.23a43.88,43.88,0,0,1,2.37-8.52,17.6,17.6,0,0,1,1.11-5.65c2.72-7.09,9.51-9.79,14.73-10.79.46-.3,7.58-4.76,13.72,1.23a15.72,15.72,0,0,1,.26-3.86l0-.23a43.76,43.76,0,0,1,2.38-8.51,17.07,17.07,0,0,1,1.11-5.66c2.72-7.09,9.51-9.79,14.73-10.79.5-.33,9.11-5.73,15.57,3.43a35.73,35.73,0,0,0,5.22,6c1.2,1.11,2.34,2,3.34,2.79,2.54,2,4.42,3.48,5.18,6.52l1.14-.25c.4-.26,5.94-3.73,11.45-.5a36.14,36.14,0,0,1,1.85-6A17.07,17.07,0,0,1,117.22,75c2.72-7.09,9.51-9.79,14.73-10.79.5-.33,9.11-5.73,15.57,3.43a36.13,36.13,0,0,0,5.22,6c1.2,1.11,2.34,2,3.34,2.79,3.34,2.63,5.55,4.36,5.55,10C161.63,96.23,156.55,103.22,146.54,107.09Z"/></svg>