<svg id="圖層_1" data-name="圖層 1" xmlns="http://www.w3.org/2000/svg" viewBox="0 0 159.82 100.3"><defs><style>.cls-1{fill:#fff;}</style></defs><title>0</title><path class="cls-1" d="M159.22,46.47c-1.71-6.07-1.76-11.51-1.8-16.31,0-4.15-.07-8.07-1.11-11.89-.8-2.93-2.24-4.77-4.29-5.48a4.52,4.52,0,0,0-.93-.23c-2.33-2.46-4.84-3.75-7.45-3.84h-.29A8.93,8.93,0,0,0,138,10.59h-.38a21.93,21.93,0,0,0-3.18.25,14,14,0,0,0-10.88,7.51,36.58,36.58,0,0,0-1.07-8.78c-.8-2.94-2.24-4.78-4.28-5.49a5.75,5.75,0,0,0-.93-.23C114.91,1.39,112.41.1,109.8,0h-.31a9,9,0,0,0-5.37,1.87h-.38a22,22,0,0,0-3.18.25C89.47,3.79,87.1,13.77,86.5,23.74a9,9,0,0,0-5.34,1.87h-.38a22,22,0,0,0-3.18.25C69.65,27.05,66.22,32.64,64.68,39A76.5,76.5,0,0,1,64,28c0-4.15-.07-8.07-1.11-11.89-.8-2.93-2.24-4.77-4.29-5.48a4.59,4.59,0,0,0-.92-.23c-2.34-2.46-4.84-3.75-7.45-3.84H50a9,9,0,0,0-5.38,1.87h-.39A22,22,0,0,0,41,8.67C27.39,10.73,26.76,25.38,26.73,39a8.7,8.7,0,0,0-3.22-.76h-.29a9,9,0,0,0-5.39,1.87h-.38a22,22,0,0,0-3.18.25C0,42.48,0,58.49,0,72.62v1.25C0,80.72,0,87.19,1.7,92c1.9,5.31,5.74,8,11.72,8.31h.18l.9,0a16.93,16.93,0,0,0,6.6-1.37,9.33,9.33,0,0,0,1.92.2c3.53,0,7.41-1.87,10.65-5.12,4-4,7.46-10.79,5.42-18a43.84,43.84,0,0,1-1.43-7.64,17.4,17.4,0,0,0,2.48.28h.2l.89,0a16.93,16.93,0,0,0,6.6-1.37,9.33,9.33,0,0,0,1.92.2c3.53,0,7.41-1.87,10.65-5.12a21.56,21.56,0,0,0,2.93-3.67v.71c0,6.85,0,13.32,1.7,18.09,1.9,5.31,5.74,8,11.72,8.31h.18l.9,0a16.93,16.93,0,0,0,6.6-1.37,9.33,9.33,0,0,0,1.92.2c3.52,0,7.41-1.87,10.65-5.12,3.86-3.88,7.29-10.48,5.54-17.54a17,17,0,0,0,4.85-1.28,9.33,9.33,0,0,0,1.92.2c3.53,0,7.41-1.86,10.65-5.12.16-.16.32-.32.47-.49a28.85,28.85,0,0,0,1.4,7.16c1.91,5.31,5.74,8,11.72,8.31h.19l.9,0a17,17,0,0,0,6.6-1.37,9.31,9.31,0,0,0,1.91.2c3.53,0,7.42-1.87,10.66-5.12C157.76,60.54,161.26,53.72,159.22,46.47Zm-6.42,17c-3,3-6.53,4.7-9.65,4.7a7.79,7.79,0,0,1-2.05-.27,15.49,15.49,0,0,1-6.46,1.44l-.93,0h0c-5.46-.24-8.83-2.59-10.54-7.38a35.54,35.54,0,0,1-1.54-10.52A20.6,20.6,0,0,1,119,54.79c-3,3-6.54,4.7-9.65,4.7a7.68,7.68,0,0,1-2-.27,15.55,15.55,0,0,1-6.47,1.45h-.05c.11.4.19.8.31,1.21,1.87,6.66-1.38,13-5.06,16.65-3,3-6.53,4.7-9.64,4.7a7.68,7.68,0,0,1-2-.27,15.58,15.58,0,0,1-6.47,1.45c-.32,0-.62,0-.92,0h0c-5.46-.23-8.83-2.59-10.54-7.38-1.62-4.53-1.62-10.88-1.61-17.61V58.14c0-2.39,0-4.8.06-7.16A19.35,19.35,0,0,1,59.4,61.35c-3,3-6.54,4.7-9.65,4.7a7.68,7.68,0,0,1-2-.27,15.54,15.54,0,0,1-6.47,1.44l-.92,0h0a14.5,14.5,0,0,1-4.22-.75,48.05,48.05,0,0,0,1.64,9.9C39.6,83,36.34,89.32,32.66,93c-3,3-6.53,4.7-9.64,4.7A7.68,7.68,0,0,1,21,97.44a15.54,15.54,0,0,1-6.47,1.44l-.92,0h0C8.11,98.62,4.75,96.27,3,91.48,1.41,87,1.41,80.6,1.42,73.87V72.62c0-14.22,0-28.92,13.06-30.89a19.33,19.33,0,0,1,3.84-.21,7.62,7.62,0,0,1,4.9-1.89h.23a8.29,8.29,0,0,1,4.7,1.81V41c0-14.22,0-28.91,13.06-30.89a20.12,20.12,0,0,1,3.84-.21A7.7,7.7,0,0,1,50,8h.24c2.35.08,4.65,1.35,6.82,3.77a4.18,4.18,0,0,1,1.14.22c1.58.54,2.71,2.06,3.38,4.52,1,3.64,1,7.47,1.07,11.53,0,4.88.09,10.42,1.85,16.67a14.62,14.62,0,0,1,.5,2.93c.61-10.23,3-18.88,12.86-20.36A19.39,19.39,0,0,1,81.65,27a7.55,7.55,0,0,1,5.13-1.88,6.27,6.27,0,0,1,1.06.13c.47-10.84,2.68-20.23,12.93-21.77a19.43,19.43,0,0,1,3.84-.22,7.59,7.59,0,0,1,5.14-1.88c2.35.08,4.65,1.35,6.82,3.77a4.18,4.18,0,0,1,1.14.22c1.58.55,2.72,2.07,3.38,4.52,1,3.64,1,7.47,1.07,11.53,0,1.84,0,3.77.14,5.8,1.19-7.78,4.28-13.81,12.32-15a19.33,19.33,0,0,1,3.84-.21,7.69,7.69,0,0,1,4.89-1.88h.24c2.36.08,4.65,1.35,6.82,3.77a3.9,3.9,0,0,1,1.15.22c1.57.54,2.71,2.06,3.38,4.52,1,3.64,1,7.47,1.06,11.53.05,4.88.1,10.42,1.86,16.67C159.73,53.51,156.48,59.82,152.8,63.51Z"/></svg>