<svg id="圖層_1" data-name="圖層 1" xmlns="http://www.w3.org/2000/svg" viewBox="0 0 183.2 203.46"><defs><style>.cls-1{fill:#fff;}</style></defs><title>0</title><path class="cls-1" d="M95.38,84.65a8.06,8.06,0,0,1-1.7.64,8.72,8.72,0,0,1-.89.16,13.37,13.37,0,0,1,.64,2.62C94.09,87,94.74,85.83,95.38,84.65Z"/><path class="cls-1" d="M106.77,84.88a1.4,1.4,0,0,1-.1.16h.19Z"/><path class="cls-1" d="M85.2,95a13.54,13.54,0,0,1-3.56-6.1c-.09-.34-.15-.69-.21-1-.21,0-.42,0-.64,0h-.18C81.86,91.9,83.38,94.24,85.2,95Z"/><path class="cls-1" d="M109,86.74a9.16,9.16,0,0,1,1,.33,12.12,12.12,0,0,1-2.83-5c0-.18-.07-.35-.1-.53C106.16,83.23,105,85,103.69,87A9,9,0,0,1,109,86.74Zm-2.25-1.86.09.16h-.19A1.4,1.4,0,0,0,106.77,84.88Z"/><path class="cls-1" d="M85.9,96.63l.43,0A4.37,4.37,0,0,0,88.51,96c-1.92-1.42-4.63-4-5.5-7.45a9.85,9.85,0,0,1-.27-2.41c-.17,0-.33.11-.51.15A6,6,0,0,1,78.62,86C80,91.47,82.07,96.14,85.9,96.63Zm-5.11-8.75c.22,0,.43,0,.64,0,.06.35.12.7.21,1A13.54,13.54,0,0,0,85.2,95c-1.82-.75-3.34-3.09-4.59-7.11Z"/><path class="cls-1" d="M134.71,73.65a24.18,24.18,0,0,0-6.1-4.33,16.82,16.82,0,0,0,3.18-5,1.53,1.53,0,0,0-.1-1.29,1.56,1.56,0,0,0-1-.76,28.08,28.08,0,0,0-5.48-.6,12.77,12.77,0,0,0-7.64,2.12,7.41,7.41,0,0,0-4.29-2.08c-1.19-5.82-6.12-10.06-6.36-10.26a1.54,1.54,0,0,0-1-.36,1.65,1.65,0,0,0-.38,0,1.54,1.54,0,0,0-1,.92c-1.92,4.78-2.34,9.07-1.26,12.78a17.84,17.84,0,0,0-5.36,1.49c-.51-2.91-2.24-5.82-5.17-8.68a1.53,1.53,0,0,0-1.09-.44H91.4a1.53,1.53,0,0,0-1.12.73c0,.08-4.54,7.62-2.27,13.77a7.48,7.48,0,0,0-2.66,2.84,6,6,0,0,0-.71-.5A7.44,7.44,0,0,0,80.8,73a7.25,7.25,0,0,0-1.79.22,6.42,6.42,0,0,0-1.39.5l-.09-.41A17.57,17.57,0,0,0,86,65.7a1.54,1.54,0,0,0-.88-2.14,24.64,24.64,0,0,0-8-1.51,13.8,13.8,0,0,0-6.72,1.62l-.39.22A18.48,18.48,0,0,0,61,58a1.63,1.63,0,0,0-.31,0,1.61,1.61,0,0,0-.88.28,1.53,1.53,0,0,0-.66,1.11,31.92,31.92,0,0,0,0,7.06,12.89,12.89,0,0,0-4.06-.62,21.33,21.33,0,0,0-5.95,1,1.58,1.58,0,0,0-1,.89A1.53,1.53,0,0,0,48.21,69a23.47,23.47,0,0,0,5.67,6.36,19,19,0,0,0-5.09,5.79,1.58,1.58,0,0,0-.12,1.36,1.55,1.55,0,0,0,1,.92A23.23,23.23,0,0,0,53,84.1a13.64,13.64,0,0,0-1.89,3.51,1.55,1.55,0,0,0,.88,1.9,24.34,24.34,0,0,0,3.7,1.19c-1.74,2.47-2.57,5.91-2.45,10.27a1.55,1.55,0,0,0,1.56,1.49,13.85,13.85,0,0,0,9-3.6c.24-.24.47-.48.69-.73a22.07,22.07,0,0,0,3.34,7,1.59,1.59,0,0,0,1.22.6,1.54,1.54,0,0,0,1.17-.54,18.54,18.54,0,0,0,4.49-8.39l.35.75c2.3,5,4.11,8.89,2.9,14.14a147.26,147.26,0,0,1-5.83,19,7.49,7.49,0,0,1-1.53,3.93c-.21.55-.42,1.08-.63,1.6l-1.3,3.3.6.18A6.05,6.05,0,0,1,70,140c.39-1,.82-2.1,1.29-3.28a164.6,164.6,0,0,0,8-24.72c1.32-5.73-.68-10-3-15.06-.9-2-1.88-4.07-2.74-6.44a6.27,6.27,0,0,1-.7.66,9.35,9.35,0,0,1,.57,2.46c.31,3.38-1.14,7-4.32,10.64a.13.13,0,0,1-.1,0h0a.14.14,0,0,1-.1,0s-4.11-5.51-3.4-10.69a11.24,11.24,0,0,1-2.73,4.31,12.47,12.47,0,0,1-8,3.21h0a.13.13,0,0,1-.12-.13c-.14-5.16,1.1-8.88,3.69-11l.21-.16a20.06,20.06,0,0,1-6-1.52.14.14,0,0,1-.07-.16A12.37,12.37,0,0,1,56,82.93,23,23,0,0,1,50.07,82,.15.15,0,0,1,50,82a.14.14,0,0,1,0-.11c2-3.27,4.21-5.43,6.65-6.47-4.29-2.14-7.16-7-7.21-7.12a.11.11,0,0,1,0-.11.1.1,0,0,1,.08-.07c4.78-1.41,8.62-1.15,11.41.79l.15.12a25.51,25.51,0,0,1-.57-9.52.16.16,0,0,1,.05-.09.22.22,0,0,1,.11,0c.06,0,6,1.62,9,6.51a11.63,11.63,0,0,1,1.44-1c3.49-1.92,8.05-1.92,13.56,0a.1.1,0,0,1,.07.07.12.12,0,0,1,0,.1,15.83,15.83,0,0,1-8.83,7.34c.27,1.08.51,2.34.77,3.71a6,6,0,0,1,2.71-1.52,6,6,0,0,1,4.55.7,5.75,5.75,0,0,1,2,2.07,6,6,0,0,1,3.95-5c-3.18-5.57,1.55-13.6,1.61-13.7a.15.15,0,0,1,.09-.06.12.12,0,0,1,.1,0c3.48,3.39,5.11,6.78,4.9,10.08,2.53-1.93,6-2.52,8.59-2.66-1.32-2.93-1.87-7.3.61-13.49a.12.12,0,0,1,.2,0c.08.07,5.42,4.67,6,10.54a6,6,0,0,1,5.35,2.74,7.15,7.15,0,0,1,.69-.64c2.63-2.12,6.78-2.64,12.32-1.52,0,0,.06,0,.08.06a.12.12,0,0,1,0,.1A14.68,14.68,0,0,1,126,69.78a20.77,20.77,0,0,1,7.76,4.9.11.11,0,0,1,0,.11.11.11,0,0,1-.06.09A20.91,20.91,0,0,1,125,77.05l-.76,0a6,6,0,0,1-2.46,5.64,22.37,22.37,0,0,1,6.31,7.67.2.2,0,0,1,0,.11.13.13,0,0,1-.09.07,22.88,22.88,0,0,1-4.66.53A11.34,11.34,0,0,1,116,88.73a9.49,9.49,0,0,1-1.46-1.53c-.21.74-.45,1.5-.74,2.29a25.5,25.5,0,0,1,5.39,7.92.09.09,0,0,1,0,.1.1.1,0,0,1-.07.07,17.87,17.87,0,0,1-4.47.55,14,14,0,0,1-6.37-1.42,5.76,5.76,0,0,1-.55,1.18,6.06,6.06,0,0,1-5.15,2.91A6,6,0,0,1,97,96.89c-1.11,1.64-2.29,3.41-3.55,5.34-10.79,16.54-11.58,29.3-12.1,37.74-.43,7.05-.67,10.93-6.65,11h-.12a13.33,13.33,0,0,1-4.07-.49,11.48,11.48,0,0,1-1.23,1,12.84,12.84,0,0,0,5.3.88h.12c7.31,0,7.63-5.16,8.07-12.28C83.24,131.77,84,119.24,94.6,103c.79-1.22,1.55-2.37,2.29-3.46a7.44,7.44,0,0,0,5.69,2.68,7.68,7.68,0,0,0,1.78-.22,7.39,7.39,0,0,0,4.58-3.37.21.21,0,0,1,0-.06,15.92,15.92,0,0,0,5.67,1,19.09,19.09,0,0,0,4.88-.61,1.57,1.57,0,0,0,1-.86,1.59,1.59,0,0,0,0-1.28,32.89,32.89,0,0,0-3.33-5.66,13.89,13.89,0,0,0,6.22,1.33,23.59,23.59,0,0,0,4.95-.57,1.49,1.49,0,0,0,1.06-.81,1.53,1.53,0,0,0,0-1.35A24.88,24.88,0,0,0,124,82.57a7.37,7.37,0,0,0,1.72-4.11,22.55,22.55,0,0,0,8.68-2.33,1.54,1.54,0,0,0,.33-2.48Z"/><path class="cls-1" d="M92,92.75c2.85-3.62,5.6-9.14,8-14,.62-1.24,1.22-2.43,1.79-3.55-.24.1-.48.22-.73.3A9.2,9.2,0,0,1,98.1,76l-.59,0c.08.22.18.44.24.67a5.94,5.94,0,0,1-7.24,7.27A13.09,13.09,0,0,1,92,92.75Zm1.72-7.46a8.06,8.06,0,0,0,1.7-.64c-.64,1.18-1.29,2.33-1.95,3.42a13.37,13.37,0,0,0-.64-2.62A8.72,8.72,0,0,0,93.68,85.29Z"/><path class="cls-1" d="M72.09,130.64c-.53,1.4-1,2.7-1.53,3.93A7.49,7.49,0,0,0,72.09,130.64Z"/></svg>