<svg id="圖層_1" data-name="圖層 1" xmlns="http://www.w3.org/2000/svg" viewBox="0 0 96.18 95.71"><defs><style>.cls-1{fill:#fff;}</style></defs><title>0</title><path class="cls-1" d="M19.85,44.51a8.35,8.35,0,0,1,.38-1.79c-.1-2.74-.26-5.44-.47-8C18.31,16.9,22.41,7.33,24.24,4a2.72,2.72,0,0,0-2.38-4,3.29,3.29,0,0,0-.54.05,2.74,2.74,0,0,0-1.83,1.33,36.31,36.31,0,0,0-3.25,8.13,62.41,62.41,0,0,0-2.13,14,7.77,7.77,0,0,0-6.24,3.93A3.37,3.37,0,0,0,6.76,28a14.89,14.89,0,0,0-4.27,5.82,1.55,1.55,0,0,0,.06,1.36,1.6,1.6,0,0,0,1,.77A79.6,79.6,0,0,1,.15,54.22a2.91,2.91,0,0,0,1.28,3.43,2.93,2.93,0,0,0,1.5.42A2.82,2.82,0,0,0,5,57.14a29.63,29.63,0,0,0,8.06-19.77.91.91,0,0,0,.16-.11,1.55,1.55,0,0,0,.56-1.14,14,14,0,0,0-2-7.17l-.12-.18A3.59,3.59,0,0,1,14,27.47c0,2.53.1,5,.32,7.64.5,6.18.7,12.9.57,19.51h-.6c-8.06,0-10.46,9.2-10.55,9.59a1.56,1.56,0,0,0,.33,1.39,1.53,1.53,0,0,0,1.16.53h.11c4.45-.32,7.34-1.65,9.22-3.21q-.25,4-.66,7.56C12.78,80.68,10.72,88.4,8,92.79a1.47,1.47,0,0,0-.47,1,1.56,1.56,0,0,0,1.31,1.69h3a1.53,1.53,0,0,0,1.34-.79c2.25-4.05,4-9.7,5.21-16.83a16.91,16.91,0,0,0,5.77,7.11,2.67,2.67,0,0,0,1.56.51,2.73,2.73,0,0,0,1.78-.67,2.69,2.69,0,0,0,.62-3.29,31.68,31.68,0,0,1-3.2-10,1.51,1.51,0,0,0,.77-.49A1.58,1.58,0,0,0,26,69.6a22.67,22.67,0,0,0-2.17-5.76,3.11,3.11,0,0,0-.83-1,7.67,7.67,0,0,0-2.72-5.74c.12-3.79.13-7.6,0-11.34A1.53,1.53,0,0,1,19.85,44.51ZM21.56,63.7a1.74,1.74,0,0,1,1,.83,20.73,20.73,0,0,1,2,5.38.14.14,0,0,1,0,.11.13.13,0,0,1-.1,0h0a3.55,3.55,0,0,1-1.22-.3,33.8,33.8,0,0,0,3.57,12.39,1.26,1.26,0,0,1-.29,1.55,1.33,1.33,0,0,1-.85.32,1.22,1.22,0,0,1-.74-.25,15.44,15.44,0,0,1-6.5-13.88A2.11,2.11,0,0,1,18,70v.12c0,.12,0,.25,0,.37-1.15,10.43-3.18,18.34-6,23.5a.12.12,0,0,1-.1.07H9a.11.11,0,0,1-.1-.13A.12.12,0,0,1,9,93.79c2.92-4.53,5.11-12.54,6.31-23.17.43-3.82.73-8,.9-12.3-.87,2.24-3.42,5.84-11,6.38h0a.15.15,0,0,1-.09,0,.12.12,0,0,1,0-.11c0-.11,2.54-10.08,11.16-8.32A198,198,0,0,0,15.76,35c-.25-3.05-.35-6-.3-8.93L15,26a5.19,5.19,0,0,0-5.13,3,1.89,1.89,0,0,1,.72.68,12.4,12.4,0,0,1,1.77,6.39.1.1,0,0,1,0,.09.11.11,0,0,1-.08,0h0a3.56,3.56,0,0,1-.56-.15A28.4,28.4,0,0,1,4,56.17a1.44,1.44,0,0,1-1.06.48,1.54,1.54,0,0,1-.78-.21,1.48,1.48,0,0,1-.65-1.77A82.09,82.09,0,0,0,5.08,34.59a5.7,5.7,0,0,1-1.19,0,.11.11,0,0,1-.09-.07.14.14,0,0,1,0-.11,13.51,13.51,0,0,1,3.84-5.28,2,2,0,0,1,1.17-.41,6.43,6.43,0,0,1,5.88-3.81h.39l.4,0A63.18,63.18,0,0,1,17.6,9.89a35.54,35.54,0,0,1,3.12-7.81,1.31,1.31,0,0,1,1.94-.39A1.29,1.29,0,0,1,23,3.35c-1.89,3.4-6.14,13.28-4.66,31.43a200.71,200.71,0,0,1,.5,23A6.36,6.36,0,0,1,21.56,63.7Z"/><path class="cls-1" d="M67.19,56.12c-2.12-3.08-4.36-4.19-6.13-4.49.27-3.42.61-6.69,1-9.75,2.56-19.37-1.56-30.19-3.45-33.94a2.75,2.75,0,0,0-1.77-1.42,3,3,0,0,0-.66-.08,2.79,2.79,0,0,0-1.56.48,2.74,2.74,0,0,0-.89,3.44C55.41,13.74,59,23.5,56.69,41.17c-.08.61-.16,1.25-.24,1.94a10,10,0,0,0-3,.7l-.29-.3a37.23,37.23,0,0,1-7.63-10,1.47,1.47,0,0,0,.74-.83,1.55,1.55,0,0,0-.14-1.37A25.94,25.94,0,0,0,41.53,26a3.36,3.36,0,0,0-1.76-.81,7.72,7.72,0,0,0-5.6-4.09c.4-9.37,2.65-14.87,3.63-16.86A2.72,2.72,0,0,0,35.36.3a2.59,2.59,0,0,0-.68.09A2.74,2.74,0,0,0,32.92,1.8c-1.89,3.75-6,14.52-3.47,33.8-2.81.71-7.74,2.59-9.22,7.12,0,1,.07,2,.1,3.07a2.54,2.54,0,0,0,1.19.6,6.56,6.56,0,0,0,1.65.19,8.45,8.45,0,0,0,3.58-.81A10.18,10.18,0,0,0,30.26,43a185.67,185.67,0,0,1,.57,28.09c-.5,7.92-1.58,14.29-3.23,19a1.56,1.56,0,0,0,.1,1.2,1.63,1.63,0,0,0,.92.77,11.21,11.21,0,0,1,1.88.76,1.49,1.49,0,0,0,1.27.07,1.54,1.54,0,0,0,.9-.92,60,60,0,0,0,2.55-10.77,7.82,7.82,0,0,0,1.62.17A7.7,7.7,0,0,0,39,81a8.28,8.28,0,0,0,2.86-1.5,3,3,0,0,0,1.27,1.28,3.07,3.07,0,0,0,1.42.35,2.94,2.94,0,0,0,2.27-1.06,31.66,31.66,0,0,0,7.52-21.56.75.75,0,0,0,.2-.15A1.54,1.54,0,0,0,55,57.23a14.65,14.65,0,0,0-2.48-7.52v0A5.29,5.29,0,0,1,56,47.38,203.71,203.71,0,0,0,55.1,73.2a9,9,0,0,0-2.93,2c-1.9,2-3.86,5.73-2.46,12.41a1.54,1.54,0,0,0,1.51,1.22,1.7,1.7,0,0,0,.93-.31A22.53,22.53,0,0,0,56,84.73c.3,2.39.66,4.62,1.09,6.65a1.54,1.54,0,0,0,.88,1.11,12.49,12.49,0,0,1,1.58.85,10.51,10.51,0,0,0,1,.61,1.63,1.63,0,0,0,.72.18,1.66,1.66,0,0,0,.93-.32,1.52,1.52,0,0,0,.56-1.59,89,89,0,0,1-2.07-15,173.61,173.61,0,0,1-.13-17.48A12.88,12.88,0,0,0,68,62.85h.16a1.52,1.52,0,0,0,1.19-.56,1.54,1.54,0,0,0,.28-1.45A21.9,21.9,0,0,0,67.19,56.12Zm1,5.27a.12.12,0,0,1-.09,0h0a11.25,11.25,0,0,1-6.91-3.09,7.76,7.76,0,0,1-1.81-3.15,183.65,183.65,0,0,0-.08,22.1,88.85,88.85,0,0,0,2.11,15.26.13.13,0,0,1,0,.13.1.1,0,0,1-.07,0h-.06a10.71,10.71,0,0,1-.94-.55,11.5,11.5,0,0,0-1.77-1,.11.11,0,0,1-.07-.09,90,90,0,0,1-1.51-10.84c-1.52,4-5.6,7.13-5.64,7.17l-.08,0h0a.12.12,0,0,1-.08-.09c-1.28-6.07.43-9.4,2.09-11.12a6.3,6.3,0,0,1,3.37-2,201.31,201.31,0,0,1,1-28.41H57.3a6.91,6.91,0,0,0-6.51,4.08,2.17,2.17,0,0,1,.59.58,13.38,13.38,0,0,1,2.24,6.73.1.1,0,0,1,0,.09.09.09,0,0,1-.08,0h0a3.46,3.46,0,0,1-.62-.14,30.38,30.38,0,0,1-7.13,21.94,1.53,1.53,0,0,1-1.19.57,1.6,1.6,0,0,1-1.54-2c.22-.81.43-1.66.64-2.55a8.81,8.81,0,0,1-5,4.49,6.18,6.18,0,0,1-1.76.25,6.07,6.07,0,0,1-2.79-.65,61.16,61.16,0,0,1-2.71,12.2.14.14,0,0,1-.08.07h-.1A12.89,12.89,0,0,0,29,90.64a.16.16,0,0,1-.08-.06.17.17,0,0,1,0-.1c1.68-4.77,2.78-11.27,3.29-19.32a189.5,189.5,0,0,0-1-32.53c-1.27,2.89-3,4.86-5.09,5.85a7,7,0,0,1-3,.68A5.9,5.9,0,0,1,21.86,45c-.62-.16-.61-.31-.6-.37.6-5.79,7.47-7.52,9.75-7.94,0-.15,0-.3-.05-.45s-.05-.47-.09-.7c-2.51-19,1.48-29.48,3.32-33.12a1.3,1.3,0,0,1,2.34,1.15C35.46,5.76,33,11.93,32.71,22.38h0a6.39,6.39,0,0,1,6.11,4.21,2,2,0,0,1,1.72.45,24.1,24.1,0,0,1,4.33,5.07.11.11,0,0,1,0,.11.12.12,0,0,1-.07.07,4.42,4.42,0,0,1-1.47.15,39.28,39.28,0,0,0,8.8,12.12,1.37,1.37,0,0,1,.44,1.27,8.41,8.41,0,0,1,4.65-1.33h.43c.13-1.17.26-2.21.38-3.15C60.48,23.3,56.73,13.22,55,9.73a1.3,1.3,0,0,1,.43-1.64,1.27,1.27,0,0,1,1.07-.19,1.3,1.3,0,0,1,.84.68c1.84,3.63,5.83,14.14,3.32,33.12C60.2,45.21,59.82,49,59.54,53c2.35-.17,4.58,1.18,6.48,4a20.37,20.37,0,0,1,2.22,4.36A.11.11,0,0,1,68.21,61.39Z"/><path class="cls-1" d="M38.24,34.49a3,3,0,0,1-.85.44h0l-.06,0a.16.16,0,0,1-.06-.08,17.3,17.3,0,0,1,.05-6.76,1.91,1.91,0,0,1,.61-1,5.28,5.28,0,0,0-5.14-3.63h-.06a82.86,82.86,0,0,0,.76,11.75c.4,3,.73,6.26,1,9.61,5.51.38,7.11,8.78,7.13,8.86a.15.15,0,0,1,0,.11.11.11,0,0,1-.09,0h0c-4.1-.85-5.91-3.09-6.71-5.1a186.81,186.81,0,0,1,.13,22.13c-.12,1.9-.28,3.79-.48,5.65a7.73,7.73,0,0,1,5-3.28,18.71,18.71,0,0,1,4.83-.54A96.51,96.51,0,0,0,45.76,56a5.75,5.75,0,0,1-1.29.09.21.21,0,0,1-.1-.06.11.11,0,0,1,0-.11,14.48,14.48,0,0,1,3.81-5.85,2.2,2.2,0,0,1,1.27-.51,9,9,0,0,1,1.68-2.49,1.64,1.64,0,0,1-.32-.05C46.48,45.82,40.8,42.64,38.24,34.49ZM48.49,48.33a3.62,3.62,0,0,0-1.24.69,15.87,15.87,0,0,0-4.2,6.39,1.55,1.55,0,0,0,1.25,2.11h0A95.22,95.22,0,0,1,43,71.3a18.9,18.9,0,0,0-4,.57A12.27,12.27,0,0,0,36.12,73c.05-.69.1-1.37.14-2,.32-5.42.36-11.5.11-17.79a11.78,11.78,0,0,0,4.82,2.07,1.15,1.15,0,0,0,.26,0,1.7,1.7,0,0,0,1.07-.43A1.52,1.52,0,0,0,43,53.44c-.07-.37-1.61-8.41-7.2-9.83-.25-3-.56-5.89-.92-8.58a84.42,84.42,0,0,1-.74-10,3.68,3.68,0,0,1,2.14,1.8,3.05,3.05,0,0,0-.35.86,18.54,18.54,0,0,0,0,7.41,1.56,1.56,0,0,0,.73,1,1.61,1.61,0,0,0,.77.2h0A19,19,0,0,0,48.76,47.86C48.66,48,48.57,48.18,48.49,48.33Z"/><path class="cls-1" d="M19.85,44.51a1.53,1.53,0,0,0,.48,1.28c0-1-.06-2-.1-3.07A8.35,8.35,0,0,0,19.85,44.51Z"/><path class="cls-1" d="M95.5,92.71c-3-4.29-5.52-11.37-7.54-21a190.76,190.76,0,0,1-3.71-35.16C84,17,78.38,6.87,76,3.42A2.7,2.7,0,0,0,74,2.27h-.29a2.72,2.72,0,0,0-2.25,4.26A32.57,32.57,0,0,1,75,13.65,8.7,8.7,0,0,0,69.51,18a3.26,3.26,0,0,0-1.07.61,14.16,14.16,0,0,0-3.75,5.68,1.55,1.55,0,0,0,1.1,2.09,75,75,0,0,1-2.36,17.18,2.83,2.83,0,0,0,2.74,3.6,2.74,2.74,0,0,0,2.13-1,28,28,0,0,0,6.67-19l.11-.09a1.54,1.54,0,0,0,.5-1.14,13.05,13.05,0,0,0-2.14-6.62,4.46,4.46,0,0,1,2.85-1.85,73.13,73.13,0,0,1,2.53,19.08c0,.69,0,1.42,0,2.22A9.73,9.73,0,0,0,73.5,45a3.2,3.2,0,0,0-.61.49,13.18,13.18,0,0,0-3,5.62A1.55,1.55,0,0,0,71.13,53a68.42,68.42,0,0,1-.63,15.88,2.73,2.73,0,0,0,1.66,3,2.72,2.72,0,0,0,2.07,0,16,16,0,0,0,.19,3A1.55,1.55,0,0,0,75.18,76a1.49,1.49,0,0,0,.77.21,1.59,1.59,0,0,0,.56-.11,14.79,14.79,0,0,0,5.87-4.65q.09.47.18.9c2,9.51,4.49,16.89,7.49,21.89l.12.2a1.55,1.55,0,0,0,1.3.71h2.76a1.54,1.54,0,0,0,1.27-2.42Zm-1.27,1H91.47a.11.11,0,0,1-.1-.06l-.06-.09h0a0,0,0,0,1,0,0c-3-4.91-5.42-12.14-7.35-21.5-.37-1.79-.72-3.72-1.06-5.75-.61,6-6.83,8.45-6.9,8.47h-.11a.18.18,0,0,1-.06-.09c-.56-3.54.19-6.57,2.15-8.77a8.72,8.72,0,0,1,4.43-2.72,205.56,205.56,0,0,1-2-22,6.74,6.74,0,0,0-4.29,4.93,1.8,1.8,0,0,1,.5.41,10.8,10.8,0,0,1,2.34,5.28.08.08,0,0,1,0,.09.1.1,0,0,1-.09,0,2.81,2.81,0,0,1-.49,0,24.68,24.68,0,0,1-4,18.27,1.26,1.26,0,0,1-1.05.56,1.4,1.4,0,0,1-.51-.1,1.3,1.3,0,0,1-.8-1.45,71.62,71.62,0,0,0,.52-17.69,4.15,4.15,0,0,1-1,.17.12.12,0,0,1-.12-.16,11.68,11.68,0,0,1,2.63-5A1.88,1.88,0,0,1,74.7,46a8.36,8.36,0,0,1,5.61-6.21c0-1.2-.06-2.25-.07-3.21A74,74,0,0,0,77.32,16a6,6,0,0,0-5.63,3.57,1.7,1.7,0,0,1,.51.49,11.86,11.86,0,0,1,2,5.93.15.15,0,0,1,0,.09l-.09,0h0A2.5,2.5,0,0,1,73.5,26a26.66,26.66,0,0,1-6.28,19.26,1.35,1.35,0,0,1-1,.5,1.47,1.47,0,0,1-.67-.16A1.4,1.4,0,0,1,64.8,44a77.59,77.59,0,0,0,2.43-19,5.29,5.29,0,0,1-1.12.08A.15.15,0,0,1,66,25a.11.11,0,0,1,0-.11,12.73,12.73,0,0,1,3.36-5.15,1.92,1.92,0,0,1,1.11-.44,7.33,7.33,0,0,1,6.46-4.45,36.44,36.44,0,0,0-4.28-9.09A1.31,1.31,0,0,1,72.85,4a1.34,1.34,0,0,1,1-.34,1.3,1.3,0,0,1,.93.55c2.34,3.34,7.79,13.17,8,32.31A192.82,192.82,0,0,0,86.57,72c2.07,9.85,4.68,17.1,7.76,21.54a.12.12,0,0,1,0,.13A.11.11,0,0,1,94.23,93.71ZM80.06,56.17c.23,2,.48,4,.77,6a9.93,9.93,0,0,0-1.7.88A25.84,25.84,0,0,0,80.06,56.17ZM77.69,45.66a5.12,5.12,0,0,1,1.36-2c.07,1.55.17,3.12.29,4.69A12.4,12.4,0,0,0,77.69,45.66Z"/></svg>