<svg id="圖層_1" data-name="圖層 1" xmlns="http://www.w3.org/2000/svg" viewBox="0 0 183.2 203.46"><defs><style>.cls-1{fill:#fff;}</style></defs><title>0</title><path class="cls-1" d="M52.67,148l.17,0H53c.08-.34.15-.68.24-1C53.07,147.31,52.87,147.64,52.67,148Z"/><path class="cls-1" d="M64,99.72c.68.75,2.33.81,2.82.81A9.15,9.15,0,0,0,74,96.88c.4,4.23.66,8.5.78,12.68l.3-.29a.11.11,0,0,1,.09,0,.13.13,0,0,1,.09,0s.39.52,1,1.38c-.14-6-.56-12.23-1.25-18.19-3.58,8.41-9.87,6.56-9.84,6.27.59-5.68,7.28-7.4,9.65-7.83l-.15-1.28c-2.52-19,1.48-29.48,3.31-33.12a1.29,1.29,0,0,1,.85-.68,1.3,1.3,0,0,1,1.49,1.84C79,60.22,76.64,66.31,76.4,76.46h.06a6.4,6.4,0,0,1,6.11,4.21,2,2,0,0,1,1.72.45,24.1,24.1,0,0,1,4.33,5.07.14.14,0,0,1,0,.11.2.2,0,0,1-.08.08,4.72,4.72,0,0,1-1.46.16,39.87,39.87,0,0,0,8.79,12.1,1.36,1.36,0,0,1,.45,1.25A8.49,8.49,0,0,1,101,98.57l.56,0c.12-1.06.24-2.11.38-3.14,2.41-18.23-1.46-28.38-3.1-31.7a1.2,1.2,0,0,1,.39-1.49,1.18,1.18,0,0,1,1.73.45c1.86,3.67,5.81,14.13,3.3,33-.48,3.68-.85,7.47-1.13,11.29,2.4-.23,4.68,1.14,6.61,3.95a20.62,20.62,0,0,1,2.22,4.36.14.14,0,0,1,0,.12.1.1,0,0,1-.09,0h0a11.14,11.14,0,0,1-6.91-3.09,7.69,7.69,0,0,1-1.91-3.53,182.05,182.05,0,0,0-.1,22.49A88.67,88.67,0,0,0,105,146.66c.41.22.84.41,1.27.59a1.39,1.39,0,0,0,.1-.92,89.37,89.37,0,0,1-2.07-15,173.17,173.17,0,0,1-.13-17.6,12.77,12.77,0,0,0,7.51,3.23h.15a1.55,1.55,0,0,0,1.46-2.05,22.17,22.17,0,0,0-2.39-4.69c-2.17-3.16-4.46-4.24-6.25-4.51.27-3.45.61-6.72,1-9.74,2.56-19.34-1.56-30.13-3.44-33.87a2.59,2.59,0,0,0-2.33-1.43,2.56,2.56,0,0,0-1.47.46,2.61,2.61,0,0,0-.86,3.28c1.67,3.38,5.31,13.17,3,30.88l-.24,1.91a9.92,9.92,0,0,0-3.14.71,3.84,3.84,0,0,0-.28-.3,37.27,37.27,0,0,1-7.62-10,1.49,1.49,0,0,0,.74-.84,1.59,1.59,0,0,0-.15-1.36,25.94,25.94,0,0,0-4.59-5.36,3.37,3.37,0,0,0-1.75-.81,7.78,7.78,0,0,0-5.62-4.08c.41-9.35,2.66-14.87,3.64-16.86a2.73,2.73,0,0,0-2.44-3.93,2.46,2.46,0,0,0-.67.09,2.72,2.72,0,0,0-1.77,1.42c-1.89,3.75-6,14.56-3.45,33.92-2.86.72-7.92,2.67-9.22,7.39,0,.83,0,1.66.07,2.5C64,99.7,64,99.71,64,99.72Z"/><path class="cls-1" d="M75,145.52v0a12.26,12.26,0,0,0-2.38-1h0c.26-.76.51-1.58.75-2.43a14,14,0,0,0-1.84,1.18c-.08.26-.16.53-.25.78a1.41,1.41,0,0,0,.08,1.12,1.45,1.45,0,0,0,.86.71,11,11,0,0,1,2.12.86,1.53,1.53,0,0,0,.66.16,1.37,1.37,0,0,0,.52-.1,1.44,1.44,0,0,0,.82-.84,52.32,52.32,0,0,0,1.7-6.15c-.54.28-1.09.55-1.64.8A45.35,45.35,0,0,1,75,145.52Z"/><path class="cls-1" d="M104.06,146.14h0a13.9,13.9,0,0,0-1.78-1v0a91.65,91.65,0,0,1-1.56-11.38c-1.34,4.32-5.79,7.64-5.79,7.64-2.25-10.73,4.82-13.07,5.47-13a201.36,201.36,0,0,1,1-28.52H101A6.83,6.83,0,0,0,94.49,104a2.21,2.21,0,0,1,.6.58,13.46,13.46,0,0,1,2.23,6.73.13.13,0,0,1,0,.1.14.14,0,0,1-.09,0,3.59,3.59,0,0,1-.62-.12,30.38,30.38,0,0,1-7.14,21.93,1.54,1.54,0,0,1-1.19.56,1.6,1.6,0,0,1-1.54-2c.27-1,.51-2,.74-3a9.75,9.75,0,0,1-4,4.34,8.67,8.67,0,0,1-.45,1.74,8.24,8.24,0,0,0,2.54-1.39,2.94,2.94,0,0,0,1.32,1.38,3.08,3.08,0,0,0,1.42.36,2.93,2.93,0,0,0,2.27-1.07A31.63,31.63,0,0,0,98,112.59a.94.94,0,0,0,.19-.14,1.52,1.52,0,0,0,.51-1.15,14.7,14.7,0,0,0-2.48-7.52l0,0a5.2,5.2,0,0,1,3.57-2.32,201.81,201.81,0,0,0-.88,25.93A9.1,9.1,0,0,0,95.44,130c-1.58,1.95-3.19,5.56-1.9,11.7a1.41,1.41,0,0,0,.88,1,1.24,1.24,0,0,0,.5.1,1.47,1.47,0,0,0,.85-.28,22.14,22.14,0,0,0,4-4c.3,2.48.68,4.8,1.12,6.93a1.41,1.41,0,0,0,.81,1,11.62,11.62,0,0,1,1.6.86c.33.22.68.41,1,.6a1.45,1.45,0,0,0,.67.17,1.39,1.39,0,0,0,.86-.3,1.48,1.48,0,0,0,.41-.52,12.09,12.09,0,0,1-1.27-.58C104.68,146.51,104.36,146.33,104.06,146.14Z"/><path class="cls-1" d="M87.84,126.9a96.4,96.4,0,0,0,1.61-16.79,4.5,4.5,0,0,1-1.28.07.13.13,0,0,1-.1-.06.14.14,0,0,1,0-.11,14.53,14.53,0,0,1,3.82-5.84,2.25,2.25,0,0,1,1.27-.53,9.06,9.06,0,0,1,1.66-2.48,1.54,1.54,0,0,1-.3,0c-4.42-1.25-10-4.46-12.56-12.54a2.87,2.87,0,0,1-.86.42.12.12,0,0,1-.1,0,.16.16,0,0,1-.06-.08,17.51,17.51,0,0,1,0-6.76,2,2,0,0,1,.61-1,5.25,5.25,0,0,0-5.14-3.61h-.07a84,84,0,0,0,.77,11.75c.41,3.14.75,6.42,1,9.74,5.45.4,7,8.76,7,8.76-4.26-.89-6-3.32-6.75-5.4.27,4.25.41,8.53.41,12.67.47.86.94,1.8,1.41,2.79,0-3.47,0-7.08-.15-10.77a11.3,11.3,0,0,0,4.8,2.09,1.33,1.33,0,0,0,.28,0,1.4,1.4,0,0,0,1-.4,1.43,1.43,0,0,0,.41-1.27c-.07-.36-1.59-8.28-7.06-9.71-.26-3-.57-6-.94-8.71a87.35,87.35,0,0,1-.75-10A3.64,3.64,0,0,1,80,81a3.3,3.3,0,0,0-.35.87,18.43,18.43,0,0,0,0,7.39,1.54,1.54,0,0,0,.72,1,1.57,1.57,0,0,0,.79.22h0a19,19,0,0,0,11.36,11.51l-.27.47a3.51,3.51,0,0,0-1.22.69,15.87,15.87,0,0,0-4.22,6.42A1.55,1.55,0,0,0,88,111.59h0a95.83,95.83,0,0,1-1.35,13.91A19,19,0,0,0,83,126c.09.47.18.93.25,1.4A18.21,18.21,0,0,1,87.84,126.9Z"/><path class="cls-1" d="M108.53,100.91a2.83,2.83,0,0,0,1.34.33,2.74,2.74,0,0,0,2.13-1,28,28,0,0,0,6.68-19l.1-.09a1.54,1.54,0,0,0,.51-1.14,13.17,13.17,0,0,0-2.15-6.63A4.33,4.33,0,0,1,120,71.58a73.34,73.34,0,0,1,2.52,19.08c0,.73,0,1.47,0,2.22a9.62,9.62,0,0,0-5.36,6.18,3.28,3.28,0,0,0-.61.49,13.16,13.16,0,0,0-3,5.64,1.54,1.54,0,0,0,.24,1.32,1.58,1.58,0,0,0,1,.6A69,69,0,0,1,114.2,123a2.75,2.75,0,0,0,2.71,3.21,2.69,2.69,0,0,0,1-.2,16,16,0,0,0,.19,3,1.55,1.55,0,0,0,.75,1.09,1.5,1.5,0,0,0,.78.21,1.6,1.6,0,0,0,.57-.11,14.44,14.44,0,0,0,5.86-4.64l.18.89c1.94,9.42,4.45,16.76,7.44,21.81a1.47,1.47,0,0,0,.77.62l.13,0,.43.14a1.39,1.39,0,0,0,.4.06h2.66a1.42,1.42,0,0,0,1.15-2.24c-3-4.22-5.57-11.51-7.58-21.09A190.65,190.65,0,0,1,128,90.6c-.24-19.54-5.87-29.66-8.27-33.11a2.76,2.76,0,0,0-2-1.14,1.37,1.37,0,0,0-.29,0,2.7,2.7,0,0,0-1.85.73,2.74,2.74,0,0,0-.4,3.53,32.9,32.9,0,0,1,3.56,7.14,8.73,8.73,0,0,0-5.54,4.34,3.32,3.32,0,0,0-1.07.63,14,14,0,0,0-3.76,5.71,1.54,1.54,0,0,0,.12,1.34,1.52,1.52,0,0,0,1,.71,75.07,75.07,0,0,1-2.35,17.18A2.83,2.83,0,0,0,108.53,100.91Zm0-2.89a79.06,79.06,0,0,0,2.43-19,4.53,4.53,0,0,1-1.12.06.15.15,0,0,1-.09-.06.11.11,0,0,1,0-.11,12.7,12.7,0,0,1,3.36-5.14,2,2,0,0,1,1.11-.47,7.35,7.35,0,0,1,6.47-4.43,36.22,36.22,0,0,0-4.29-9.08,1.31,1.31,0,0,1,1.22-2,1.29,1.29,0,0,1,.93.56c2.34,3.33,7.79,13.16,8,32.3A192.73,192.73,0,0,0,130.27,126c2.07,9.88,4.74,17.23,7.81,21.62H135l-.09-.15,0,0c-2.89-4.87-5.36-12.1-7.27-21.37-.38-1.87-.73-3.83-1.06-5.84-.57,6-6.83,8.53-6.9,8.56h0l-.06,0a.13.13,0,0,1-.07-.09,10.48,10.48,0,0,1,1.62-8.11,8.88,8.88,0,0,1,5-3.39h0a205.81,205.81,0,0,1-2-22,6.77,6.77,0,0,0-4.3,4.93,1.6,1.6,0,0,1,.51.42,11,11,0,0,1,2.35,5.27.13.13,0,0,1,0,.1.13.13,0,0,1-.09,0,3.43,3.43,0,0,1-.47,0A24.59,24.59,0,0,1,118,124.23a1.25,1.25,0,0,1-1,.56,1.22,1.22,0,0,1-.51-.1,1.29,1.29,0,0,1-.8-1.45,72.57,72.57,0,0,0,.52-17.67,4,4,0,0,1-1,.15.12.12,0,0,1-.12-.16,11.75,11.75,0,0,1,2.63-5h0a1.88,1.88,0,0,1,.78-.46A8.34,8.34,0,0,1,124,93.84c0-1.07-.06-2.14-.07-3.2A73.7,73.7,0,0,0,121,70.06a6,6,0,0,0-5.65,3.56,1.65,1.65,0,0,1,.51.51,11.81,11.81,0,0,1,2,5.92.18.18,0,0,1,0,.1.19.19,0,0,1-.1,0,3.69,3.69,0,0,1-.52-.1,26.68,26.68,0,0,1-6.29,19.25,1.38,1.38,0,0,1-1,.5,1.48,1.48,0,0,1-.67-.17A1.4,1.4,0,0,1,108.5,98Zm15.27,12.24q.35,3,.76,6a10.3,10.3,0,0,0-1.7.88A25.22,25.22,0,0,0,123.77,110.26Zm-2.38-10.53a5.14,5.14,0,0,1,1.35-2c.08,1.56.18,3.13.3,4.72A12,12,0,0,0,121.39,99.73Z"/><path class="cls-1" d="M52.84,148h0l-.25,1.4h.1c.1-.47.22-.94.34-1.41Z"/><path class="cls-1" d="M60.89,125a1.09,1.09,0,0,1-.26,0l0,.35c-.05.56-.09,1.1-.15,1.63.15-.33.28-.67.43-1C60.87,125.65,60.87,125.3,60.89,125Z"/><path class="cls-1" d="M52.67,148l.17,0h0Z"/><path class="cls-1" d="M52.65,148h0v0c.2-.31.4-.64.6-1a85.63,85.63,0,0,1,3.3-10.28c.29-.74.62-1.45.93-2.17q.93-4.43,1.54-9.83c.44-3.89.74-8,.9-12.34-.87,2.27-3.43,5.88-11,6.42h0a.11.11,0,0,1-.09,0,.11.11,0,0,1,0-.11c0-.1,2.54-10.09,11.16-8.31a199.75,199.75,0,0,0-.54-21.24c-.26-3.24-.34-6.2-.3-8.94l-.44,0a5.19,5.19,0,0,0-5.13,3,2,2,0,0,1,.72.69,12.6,12.6,0,0,1,1.78,6.4.2.2,0,0,1-.05.09.12.12,0,0,1-.1,0,3.27,3.27,0,0,1-.56-.13,28.33,28.33,0,0,1-7.69,20.12,1.43,1.43,0,0,1-1.06.47,1.57,1.57,0,0,1-.78-.21,1.48,1.48,0,0,1-.65-1.77,83.51,83.51,0,0,0,3.58-20.07,4.24,4.24,0,0,1-1.19,0,.13.13,0,0,1-.09-.07.14.14,0,0,1,0-.11,13.45,13.45,0,0,1,3.84-5.27,2,2,0,0,1,1.18-.43A6.36,6.36,0,0,1,58.77,79l.41,0c.36-12.76,3.62-20,5.24-22.9a1.33,1.33,0,0,1,1.94-.39,1.31,1.31,0,0,1,.35,1.66c-1.9,3.41-6.15,13.28-4.66,31.44a206.39,206.39,0,0,1,.49,23,6.38,6.38,0,0,1,2.73,5.88,1.73,1.73,0,0,1,1,.84h0l.18.33c.3-.41.62-.81.93-1.21a2.9,2.9,0,0,0-.7-.78A7.78,7.78,0,0,0,64,111.2c.12-3.84.13-7.71,0-11.51a1.52,1.52,0,0,1-.35-1.1,7.89,7.89,0,0,1,.28-1.4c-.11-2.88-.27-5.72-.49-8.45C62,71,66.11,61.4,67.94,58.11a2.73,2.73,0,0,0-.72-3.47,2.68,2.68,0,0,0-1.65-.57,2.35,2.35,0,0,0-.54.06,2.69,2.69,0,0,0-1.84,1.32c-1.8,3.17-4.83,10.19-5.38,22.15a7.68,7.68,0,0,0-6.24,3.93,3.37,3.37,0,0,0-1.11.58,14.79,14.79,0,0,0-4.26,5.82,1.52,1.52,0,0,0,0,1.35,1.57,1.57,0,0,0,1,.78,79.94,79.94,0,0,1-3.42,18.24,2.92,2.92,0,0,0,2.78,3.84,2.86,2.86,0,0,0,2.1-.93,29.67,29.67,0,0,0,8.06-19.77l.15-.11a1.53,1.53,0,0,0,.56-1.12,13.9,13.9,0,0,0-2-7.19,1.74,1.74,0,0,0-.11-.18,3.59,3.59,0,0,1,2.32-1.3c0,2.53.1,5,.32,7.64.5,6.19.7,12.9.57,19.52-.2,0-.4,0-.6,0-8.17,0-10.53,9.51-10.56,9.61a1.54,1.54,0,0,0,1.5,1.9h.11c4.45-.32,7.35-1.67,9.22-3.23-.17,2.64-.39,5.18-.66,7.57-1.18,10.48-3.31,18.31-6.15,22.65a1.4,1.4,0,0,0-.11,1.33,1.41,1.41,0,0,0,1,.84l.18,0,.25-1.4h-.19Z"/><polygon class="cls-1" points="52.84 147.98 52.84 147.98 52.84 147.98 52.84 147.98"/><path class="cls-1" d="M64,99.69c0-.84,0-1.67-.07-2.5a7.89,7.89,0,0,0-.28,1.4A1.52,1.52,0,0,0,64,99.69Z"/><path class="cls-1" d="M62,121.05a12.14,12.14,0,0,1,1.27-2.59,1.78,1.78,0,0,1,.9-.68,5.22,5.22,0,0,0-1.68-4.57C62.38,115.9,62.21,118.53,62,121.05Z"/><path class="cls-1" d="M107.78,147.77h.07a11.36,11.36,0,0,1-1.59-.52h0A11.8,11.8,0,0,0,107.78,147.77Z"/><path class="cls-1" d="M105,146.68a12.09,12.09,0,0,0,1.27.58h0c-.43-.18-.86-.37-1.27-.59Z"/><path class="cls-1" d="M104.05,146.12a12.83,12.83,0,0,0-1.78-1v0a13.9,13.9,0,0,1,1.78,1h0c.3.19.62.37.93.54v0a10.72,10.72,0,0,1-.93-.54Z"/><path class="cls-1" d="M52.67,148v0h.18Z"/><polygon class="cls-1" points="52.84 147.98 52.84 147.98 52.84 147.98 52.84 147.98"/><path class="cls-1" d="M72.64,144.57a12.26,12.26,0,0,1,2.38,1v0a12.75,12.75,0,0,0-2.38-1Z"/><path class="cls-1" d="M134.94,147.52l.44.15h.05l-.51-.17Z"/><path class="cls-1" d="M52.74,148h0Z"/><path class="cls-1" d="M135,147.67h.35l-.44-.15Z"/><path class="cls-1" d="M56.57,136.69A85.63,85.63,0,0,0,53.27,147a44,44,0,0,0,4.23-12.45C57.19,135.24,56.86,136,56.57,136.69Z"/></svg>