<svg id="圖層_1" data-name="圖層 1" xmlns="http://www.w3.org/2000/svg" viewBox="0 0 87.19 101.23"><defs><style>.cls-1{fill:#fff;}</style></defs><title>0</title><path class="cls-1" d="M58.66,33.93h.19a1.3,1.3,0,0,1-.08-.17Z"/><path class="cls-1" d="M86.7,22.54a24.49,24.49,0,0,0-6.1-4.34,16.45,16.45,0,0,0,3.18-5,1.55,1.55,0,0,0-.11-1.31,1.59,1.59,0,0,0-1-.74,28,28,0,0,0-5.48-.6,12.75,12.75,0,0,0-7.64,2.13,7.43,7.43,0,0,0-4.29-2.09C64,4.79,59.11.55,58.86.35a1.49,1.49,0,0,0-1.34-.3A1.51,1.51,0,0,0,56.46,1C54.54,5.75,54.12,10,55.2,13.74a18.14,18.14,0,0,0-5.36,1.49c-.51-2.91-2.25-5.82-5.19-8.69a1.55,1.55,0,0,0-1.06-.43H43.4a1.51,1.51,0,0,0-1.13.74c-.2.34-4.53,7.71-2.26,13.78a7.24,7.24,0,0,0-2.48,2.47c-.07.11-.13.23-.2.35a7.41,7.41,0,0,0-4.55-1.56,7.19,7.19,0,0,0-3.17.71c0-.14-.06-.27-.08-.4A17.41,17.41,0,0,0,38,14.58a1.55,1.55,0,0,0-.88-2.14,24.82,24.82,0,0,0-8-1.5,13.76,13.76,0,0,0-6.73,1.62l-.39.22a18.35,18.35,0,0,0-9-5.92,1.66,1.66,0,0,0-.32,0,1.72,1.72,0,0,0-.88.27,1.56,1.56,0,0,0-.66,1.12,31.29,31.29,0,0,0,0,7.06A12.91,12.91,0,0,0,7,14.66a20.91,20.91,0,0,0-5.94.95,1.55,1.55,0,0,0-1,.92,1.49,1.49,0,0,0,.11,1.32,23.14,23.14,0,0,0,5.66,6.36A19.1,19.1,0,0,0,.78,30a1.53,1.53,0,0,0,.86,2.26A22.08,22.08,0,0,0,5,33,13.48,13.48,0,0,0,3.06,36.5,1.53,1.53,0,0,0,4,38.39a24.31,24.31,0,0,0,3.69,1.2C5.9,42.06,5.08,45.5,5.19,49.85a1.57,1.57,0,0,0,1.57,1.5,13.82,13.82,0,0,0,9-3.61,9.61,9.61,0,0,0,.7-.73,22,22,0,0,0,3.33,7,1.53,1.53,0,0,0,1.23.61A1.54,1.54,0,0,0,22.17,54a18.47,18.47,0,0,0,4.49-8.4c.12.26.23.51.35.75,2.3,5,4.12,8.89,2.9,14.15a162.21,162.21,0,0,1-8,24.51c-2.84,7.14-4.4,11.07-2.56,13.78,1.46,2.13,4.59,2.4,7.16,2.4h.12c7.32,0,7.63-5.17,8.07-12.28.51-8.3,1.28-20.83,11.87-37.06l2.29-3.47a7.45,7.45,0,0,0,5.69,2.68,7.6,7.6,0,0,0,1.78-.21,7.38,7.38,0,0,0,4.58-3.38l0-.06a15.72,15.72,0,0,0,5.68,1,18.59,18.59,0,0,0,4.87-.62,1.52,1.52,0,0,0,1-.85,1.55,1.55,0,0,0,0-1.28A32.51,32.51,0,0,0,69.14,40a13.89,13.89,0,0,0,6.22,1.32,24.15,24.15,0,0,0,5-.56,1.54,1.54,0,0,0,1.08-2.16A24.6,24.6,0,0,0,76,31.46a7.44,7.44,0,0,0,1.72-4.12A22.69,22.69,0,0,0,86.38,25a1.55,1.55,0,0,0,.79-1.16A1.52,1.52,0,0,0,86.7,22.54Zm-1,1.23A20.85,20.85,0,0,1,77,25.94l-.76,0a6,6,0,0,1-2.45,5.63,22.5,22.5,0,0,1,6.3,7.68.11.11,0,0,1,0,.11.11.11,0,0,1-.09.06,22.2,22.2,0,0,1-4.66.53A11.29,11.29,0,0,1,68,37.61a8.73,8.73,0,0,1-1.46-1.53c-.21.74-.45,1.51-.74,2.3a25.63,25.63,0,0,1,5.4,7.91.2.2,0,0,1,0,.11.18.18,0,0,1-.08.07,17.84,17.84,0,0,1-4.46.55,13.92,13.92,0,0,1-6.38-1.43,6.09,6.09,0,0,1-.55,1.19A6,6,0,0,1,56,49.51a5.92,5.92,0,0,1-1.44.18A6,6,0,0,1,49,45.77c-1.11,1.65-2.29,3.41-3.54,5.34-10.8,16.55-11.59,29.31-12.1,37.75-.44,7-.68,10.93-6.66,11h-.12c-3.3,0-5.14-.55-6-1.78-1.42-2.08.13-6,2.7-12.46a162.89,162.89,0,0,0,8.05-24.71c1.33-5.73-.68-10-3-15.06-.9-1.95-1.88-4.07-2.73-6.45a5.5,5.5,0,0,1-.71.66,9.06,9.06,0,0,1,.57,2.46c.32,3.39-1.14,7-4.32,10.64a.12.12,0,0,1-.09,0h0a.11.11,0,0,1-.09,0c-.05-.06-4.12-5.52-3.41-10.7a11,11,0,0,1-2.73,4.31,12.39,12.39,0,0,1-8,3.21h0a.12.12,0,0,1-.12-.12c-.14-5.16,1.11-8.88,3.69-11.05l.22-.16a19.53,19.53,0,0,1-6-1.52.12.12,0,0,1-.07-.15A12.31,12.31,0,0,1,8,31.82a23.25,23.25,0,0,1-5.92-.9A.12.12,0,0,1,2,30.85a.14.14,0,0,1,0-.11c2-3.27,4.21-5.43,6.66-6.48-4.3-2.13-7.17-7-7.21-7.12a.09.09,0,0,1,0-.1A.11.11,0,0,1,1.51,17c4.78-1.41,8.62-1.14,11.42.8a1.49,1.49,0,0,1,.14.12,25.74,25.74,0,0,1-.57-9.52.15.15,0,0,1,.06-.09.12.12,0,0,1,.1,0c.06,0,6.05,1.62,9,6.5a11,11,0,0,1,1.45-.95c3.49-1.92,8.05-1.92,13.55,0a.12.12,0,0,1,.07.07.11.11,0,0,1,0,.11,15.84,15.84,0,0,1-8.83,7.33c.27,1.08.51,2.33.77,3.7a5.88,5.88,0,0,1,2.71-1.5,6,6,0,0,1,6.59,2.72,5.89,5.89,0,0,1,.82-2.37,6,6,0,0,1,3.14-2.53c-3.21-5.57,1.54-13.62,1.59-13.72a.13.13,0,0,1,.09-.06.14.14,0,0,1,.11,0c3.47,3.4,5.11,6.79,4.89,10.09,2.53-1.94,6-2.53,8.59-2.66-1.32-2.93-1.86-7.31.61-13.49a.14.14,0,0,1,.09-.08.11.11,0,0,1,.11,0c.08.06,5.42,4.66,6,10.53a5.91,5.91,0,0,1,5.33,2.76,6.26,6.26,0,0,1,.7-.65c2.64-2.13,6.78-2.64,12.32-1.53a.16.16,0,0,1,.08.06.14.14,0,0,1,0,.11A14.74,14.74,0,0,1,78,18.67a20.52,20.52,0,0,1,7.76,4.9.12.12,0,0,1,0,.1A.14.14,0,0,1,85.7,23.77Z"/><polygon class="cls-1" points="64.92 23.97 64.92 23.97 64.92 23.97 64.92 23.97"/></svg>