<svg id="圖層_1" data-name="圖層 1" xmlns="http://www.w3.org/2000/svg" viewBox="0 0 183.2 203.46"><defs><style>.cls-1{fill:#fff;}</style></defs><title>0</title><path class="cls-1" d="M83.63,69.86A12.94,12.94,0,0,1,80,69a21.66,21.66,0,0,0-.59,5.73A18.85,18.85,0,0,1,83.63,69.86Z"/><path class="cls-1" d="M64.05,74.45a8,8,0,0,1-1.11-.09A8.26,8.26,0,0,1,63.38,77a8.47,8.47,0,0,1-.19,1.76A16,16,0,0,1,65,88.32a8.16,8.16,0,0,1,8.77-2.51A77,77,0,0,0,64.05,74.45Zm2.49,10.79a19,19,0,0,0-1.87-6.67,10.75,10.75,0,0,0,.13-1.37A75.93,75.93,0,0,1,70.73,84,9.53,9.53,0,0,0,66.54,85.24Z"/><path class="cls-1" d="M108.49,122.81a8.14,8.14,0,0,1-6-2.8c-1.46,2.91-4.27,5-8.37,6.13h0l-.06,0a.16.16,0,0,1-.06-.08,20,20,0,0,1,0-7,14.54,14.54,0,0,1,1.14-3.5A28.4,28.4,0,0,0,87.83,121c-3.84,4.35-4.91,13.17-5,22.43l1.42-1.12c.16-8.56,1.22-16.5,4.64-20.37a20.32,20.32,0,0,1,3.67-3.14h0a20.84,20.84,0,0,0,0,7.55,1.63,1.63,0,0,0,.72,1,1.56,1.56,0,0,0,.78.22,1.93,1.93,0,0,0,.42-.06,14.79,14.79,0,0,0,8.29-5.28,9.64,9.64,0,0,0,4.44,1.9c0,.33.11.66.19,1l1.27-.9A10,10,0,0,1,108.49,122.81Z"/><path class="cls-1" d="M71.14,148.66a102.94,102.94,0,0,1,2.72-10.12c2.72-9,5.93-19.58,5.18-31.69a14.32,14.32,0,0,1-7.54,4.38h0l-.08,0a.14.14,0,0,1-.05-.09,17,17,0,0,1,1.41-9.5,8.29,8.29,0,0,1-1.5.15,8.19,8.19,0,0,1-8.18-8.18c0-.15,0-.29,0-.43a15.38,15.38,0,0,1-5.36,4.76h-.1a.11.11,0,0,1-.07-.06,21.26,21.26,0,0,1-1.87-7c-.18.12-.35.26-.53.37a13.54,13.54,0,0,1-7,1.84,13.36,13.36,0,0,1-3.11-.33.11.11,0,0,1-.07-.06.09.09,0,0,1,0-.09,20.88,20.88,0,0,1,4.89-9.36,8.1,8.1,0,0,1-2.26-9.27c-3.61-.94-6.48-3.4-6.74-4.2a.26.26,0,0,1,0-.29,17.58,17.58,0,0,1,5.88-4,17.42,17.42,0,0,1-7.37-5.76.14.14,0,0,1,0-.11.16.16,0,0,1,.06-.08C43.8,57.6,50,55.76,55.17,58l0,0a23.66,23.66,0,0,1,1.41-8.88.11.11,0,0,1,.08-.07.11.11,0,0,1,.11,0c5.46,3.92,8.43,8.06,8.83,12.27a9.82,9.82,0,0,1-.09,2.57A18.87,18.87,0,0,1,72,60a20.2,20.2,0,0,1-1-3.85.1.1,0,0,1,0-.1A.13.13,0,0,1,71,56c5.1,0,12.06,1.13,16.29,6.52a14.91,14.91,0,0,1,1.88,3.17,8.19,8.19,0,0,1,7.44-4.79l.51,0a20.56,20.56,0,0,1-.69-9.22.1.1,0,0,1,0-.08.14.14,0,0,1,.11,0C101,52.94,106.68,56,108.48,62.63a16.58,16.58,0,0,1,.54,5c5,.49,9.06,4,10.93,5.94a22.54,22.54,0,0,1,2.49-6.22.12.12,0,0,1,.09,0,.15.15,0,0,1,.11,0,22.41,22.41,0,0,1,4.68,7.12,16,16,0,0,1,3-3.45,23.56,23.56,0,0,1,6.47-4,.12.12,0,0,1,.1,0s.06,0,.06.08c1,4.94.43,8.92-1.8,11.84a11,11,0,0,1-3.45,3,11.68,11.68,0,0,1,3.91.6c3.48,1.18,6.23,4.07,8.18,8.57a.21.21,0,0,1,0,.11.12.12,0,0,1-.08.06,20.77,20.77,0,0,1-5.55.74,15.43,15.43,0,0,1-7.21-1.63,30.68,30.68,0,0,0-7.13,3.35,10.72,10.72,0,0,1,6.28-.25c6.17,1.65,9.78,8.56,9.82,8.63a.17.17,0,0,1,0,.1.12.12,0,0,1-.07.07,19.7,19.7,0,0,1-8,1.93c-.24,0-.48,0-.71,0a8.18,8.18,0,0,1-16.33-.65,7.67,7.67,0,0,1,.14-1.45,39.11,39.11,0,0,1-4.92,4.53,8.23,8.23,0,0,1,6,4.75c3.38.84,7.57,3.24,8.54,9.88a22.86,22.86,0,0,1-.31,7.71.16.16,0,0,1-.06.08l-.06,0h0a13.89,13.89,0,0,1-7.59-5.84c-.52,4.35-3.9,8-3.94,8a.18.18,0,0,1-.09,0,.19.19,0,0,1-.09,0,17.11,17.11,0,0,1-3.06-4.6c.12,1,.27,2.16.43,3.59a21.05,21.05,0,0,0,1.57,2l1.13-.92-.36,1.37a1.2,1.2,0,0,0,.38,0,1.68,1.68,0,0,0,1.12-.48,19.23,19.23,0,0,0,3.56-5.8,16.92,16.92,0,0,0,6.43,4,1.49,1.49,0,0,0,.55.1,1.6,1.6,0,0,0,.74-.19,1.52,1.52,0,0,0,.76-1A24.34,24.34,0,0,0,126,121a13.43,13.43,0,0,0-3.82-8c.26,0,.52,0,.79,0a9.65,9.65,0,0,0,9.36-7.5,21.64,21.64,0,0,0,8.06-2,1.51,1.51,0,0,0,.82-.88,1.64,1.64,0,0,0-.07-1.23c-.16-.31-3.95-7.54-10.71-9.35l-.11,0,.48-.17a17.1,17.1,0,0,0,7.32,1.51,22.18,22.18,0,0,0,6-.8,1.54,1.54,0,0,0,.95-2.08c-2.11-4.89-5.15-8-9-9.35-.25-.09-.5-.17-.76-.24a11.45,11.45,0,0,0,1-1.12c2.48-3.26,3.18-7.63,2.06-13a1.59,1.59,0,0,0-.79-1,1.62,1.62,0,0,0-.72-.17,1.74,1.74,0,0,0-.56.1A25.53,25.53,0,0,0,129.36,70a18.15,18.15,0,0,0-1.75,1.76,26.68,26.68,0,0,0-3.93-5.33,1.53,1.53,0,0,0-1.14-.5h-.13a1.52,1.52,0,0,0-1.17.71,22.42,22.42,0,0,0-2,4.34,19.34,19.34,0,0,0-8.79-4.53,17.09,17.09,0,0,0-.6-4.19c-2-7.27-8-10.56-12.77-12a1.62,1.62,0,0,0-.49-.08,1.71,1.71,0,0,0-.8.22,1.55,1.55,0,0,0-.72,1,22.49,22.49,0,0,0,.25,8.15,9.63,9.63,0,0,0-6,3.32c-.27-.43-.57-.85-.88-1.25-4.58-5.84-12-7.07-17.4-7.07a1.54,1.54,0,0,0-1.52,1.77,19.08,19.08,0,0,0,.68,2.84A20.59,20.59,0,0,0,67,60.92c-.56-4.53-3.71-8.89-9.39-13a1.51,1.51,0,0,0-.9-.29,1.59,1.59,0,0,0-.43.06,1.54,1.54,0,0,0-1,.91A25.84,25.84,0,0,0,53.79,56a15.54,15.54,0,0,0-3.92-.48,26.94,26.94,0,0,0-11,2.69,1.55,1.55,0,0,0-.85,1,1.53,1.53,0,0,0,.22,1.28,19.34,19.34,0,0,0,5.34,5A21.37,21.37,0,0,0,40,68.42a1.68,1.68,0,0,0-.41,1.75c.44,1.34,3.19,3.51,6.31,4.68A9.71,9.71,0,0,0,45.61,77a9.55,9.55,0,0,0,2.33,6.26,23.73,23.73,0,0,0-4.31,8.92,1.52,1.52,0,0,0,.15,1.18,1.65,1.65,0,0,0,.94.72,14.33,14.33,0,0,0,3.47.38,15.49,15.49,0,0,0,6.39-1.35,25.13,25.13,0,0,0,1.69,5.3,1.58,1.58,0,0,0,.88.84,1.52,1.52,0,0,0,1.2,0,16.37,16.37,0,0,0,3.77-2.71,9.61,9.61,0,0,0,8.49,6.67,20.43,20.43,0,0,0-.67,8.1,1.55,1.55,0,0,0,1.54,1.39,1.41,1.41,0,0,0,.28,0,16.3,16.3,0,0,0,6-2.65c.09,10.6-2.73,19.88-5.24,28.16a102.79,102.79,0,0,0-2.75,10.27,49,49,0,0,1-2,7.4l2.07-1.74A48.92,48.92,0,0,0,71.14,148.66Zm41.75-42.6c.24-.2.47-.41.7-.63a9.82,9.82,0,0,0,.34,1.24A9.76,9.76,0,0,0,112.89,106.06Z"/><path class="cls-1" d="M69.93,72.75a8.77,8.77,0,0,1-1.3.76A68.33,68.33,0,0,1,74,79.85a67.84,67.84,0,0,1,.28-13.24A12.34,12.34,0,0,1,69.93,72.75Zm2.44,2.8c-.49-.58-1-1.15-1.51-1.72a10.87,10.87,0,0,0,1.54-1.35C72.37,73.44,72.36,74.47,72.37,75.55Z"/><path class="cls-1" d="M93.05,100.49c-1.55,2.73-2.89,5.08-2.45,6.59a2.11,2.11,0,0,0,1.15,1.29c2.1,1.1,6.37-.67,11.13-4.18a19.89,19.89,0,0,1-.67-3.64,15.35,15.35,0,0,1,0-2.62A13.89,13.89,0,0,1,96.7,99,17.5,17.5,0,0,1,94,98.8C93.69,99.38,93.36,100,93.05,100.49Zm1.73-.17a18,18,0,0,0,1.92.11,16.24,16.24,0,0,0,4.06-.5c0,.24,0,.49,0,.73a21,21,0,0,0,.47,3c-3.28,2.31-6.24,3.67-8,3.67a1.8,1.8,0,0,1-.85-.17c-.39-.2-.43-.36-.45-.43-.27-.93,1.17-3.45,2.32-5.48Z"/><path class="cls-1" d="M93.23,88.47q.47-1.06.93-2C92.05,82.56,91.31,79,92,75.72a8.1,8.1,0,0,1-.85-.7,15.4,15.4,0,0,1-7,5.25,16.07,16.07,0,0,1-4,.9c.22,1.36.47,2.72.75,4.06C86.23,83.69,90.55,86.12,93.23,88.47ZM81.87,83.53c-.07-.39-.14-.78-.21-1.15a18.45,18.45,0,0,0,2.9-.77A16.54,16.54,0,0,0,90.31,78a18.13,18.13,0,0,0,2,8,14.5,14.5,0,0,0-8.16-2.65A12.87,12.87,0,0,0,81.87,83.53Z"/><path class="cls-1" d="M100.42,88.26a8.22,8.22,0,0,1,4.54-6.7,13.61,13.61,0,0,1-.45-2.44,44.17,44.17,0,0,0-6.25,10.16c.36-.21.72-.41,1.1-.59S100.07,88.39,100.42,88.26Z"/><path class="cls-1" d="M116.23,82.17a14.93,14.93,0,0,1,3.24-4.79c0-.59,0-1.16.11-1.73a25.88,25.88,0,0,1-7,1.63,10.33,10.33,0,0,1,1.36,1.21A11.9,11.9,0,0,1,116.23,82.17Zm.88-4.25a13.7,13.7,0,0,0-.87,1.22c-.2-.3-.41-.59-.62-.86C116.11,78.18,116.6,78.06,117.11,77.92Z"/><path class="cls-1" d="M91,94a15.1,15.1,0,0,1-3.08.33,12.54,12.54,0,0,1-4-.65c-.37-.13-.73-.28-1.07-.43,1.11,3,2.53,5.38,4.1,5.48C88.33,98.78,89.69,97.19,91,94Zm-4,3.31c-.22,0-.82-.41-1.61-1.79a14.06,14.06,0,0,0,2.52.23l.64,0C87.86,96.92,87.31,97.29,87.05,97.29Z"/><path class="cls-1" d="M109,124.08a.17.17,0,0,0-.12,0l-.19.14a11.42,11.42,0,0,0,.73,2.36c-.2-1.5-.34-2.36-.35-2.41A.11.11,0,0,0,109,124.08Z"/><path class="cls-1" d="M108.65,124.23l-1.27.9a14.72,14.72,0,0,0,2.43,5.05c-.16-1.43-.31-2.64-.43-3.59A11.42,11.42,0,0,1,108.65,124.23Z"/></svg>