<svg id="圖層_1" data-name="圖層 1" xmlns="http://www.w3.org/2000/svg" viewBox="0 0 107.19 123.07"><defs><style>.cls-1{fill:#fff;}</style></defs><title>03</title><path class="cls-1" d="M26,26.8a10.38,10.38,0,0,1-1.11-.09,8,8,0,0,1,.45,2.64,7.76,7.76,0,0,1-.2,1.75A15.81,15.81,0,0,1,27,40.66a8.13,8.13,0,0,1,8.78-2.5A75.42,75.42,0,0,0,26,26.8Zm2.5,10.78a19.13,19.13,0,0,0-1.88-6.67,9.07,9.07,0,0,0,.13-1.37,75.73,75.73,0,0,1,5.93,6.81A9.53,9.53,0,0,0,28.54,37.58Z"/><path class="cls-1" d="M45.63,22.2A12.51,12.51,0,0,1,42,21.38a21.16,21.16,0,0,0-.59,5.73A18.87,18.87,0,0,1,45.63,22.2Z"/><path class="cls-1" d="M55.23,40.81q.47-1.05.93-2C54,34.91,53.3,31.31,54,28.07a9.72,9.72,0,0,1-.86-.7,15.42,15.42,0,0,1-7,5.25,16.16,16.16,0,0,1-4,.9c.21,1.36.47,2.72.74,4.06C48.23,36,52.54,38.46,55.23,40.81ZM43.66,34.73A17.59,17.59,0,0,0,46.55,34a16.41,16.41,0,0,0,5.76-3.58,18.11,18.11,0,0,0,2,8,14.44,14.44,0,0,0-8.16-2.66,13.83,13.83,0,0,0-2.3.2Q43.75,35.28,43.66,34.73Z"/><path class="cls-1" d="M31.92,25.1a8.21,8.21,0,0,1-1.3.75A71.34,71.34,0,0,1,36,32.19,67.73,67.73,0,0,1,36.26,19,12.4,12.4,0,0,1,31.92,25.1Zm2.45,2.8c-.5-.58-1-1.16-1.51-1.72a12.2,12.2,0,0,0,1.54-1.35C34.37,25.79,34.36,26.81,34.37,27.9Z"/><path class="cls-1" d="M64.22,50.28a14,14,0,0,1-5.52,1.07A17.5,17.5,0,0,1,56,51.14l-1,1.7c-1.56,2.72-2.9,5.07-2.46,6.59a2.13,2.13,0,0,0,1.15,1.28c2.1,1.1,6.38-.66,11.14-4.18a18.93,18.93,0,0,1-.67-3.64A15.19,15.19,0,0,1,64.22,50.28Zm-9,9.34a1.84,1.84,0,0,1-.85-.16C54,59.26,54,59.1,54,59c-.27-.94,1.17-3.46,2.33-5.49l.5-.87a17.9,17.9,0,0,0,1.92.1,16.11,16.11,0,0,0,4-.5c0,.25,0,.49,0,.74A18.49,18.49,0,0,0,63.27,56C60,58.26,57,59.62,55.25,59.62Z"/><path class="cls-1" d="M75.93,30.83a12.33,12.33,0,0,1,2.3,3.68,15.15,15.15,0,0,1,3.24-4.79A13.93,13.93,0,0,1,81.58,28a26,26,0,0,1-7,1.63A9.73,9.73,0,0,1,75.93,30.83Zm3.18-.56c-.32.4-.61.8-.88,1.21a10.41,10.41,0,0,0-.62-.86C78.1,30.52,78.6,30.4,79.11,30.27Z"/><path class="cls-1" d="M107.07,42.87c-2.12-4.89-5.15-8-9-9.36l-.77-.23a11.39,11.39,0,0,0,1-1.12c2.48-3.27,3.17-7.64,2.06-13a1.53,1.53,0,0,0-.79-1.07,1.51,1.51,0,0,0-.72-.18,1.74,1.74,0,0,0-.56.1,25.55,25.55,0,0,0-6.9,4.29A20.83,20.83,0,0,0,89.6,24.1a26.36,26.36,0,0,0-3.94-5.35,1.54,1.54,0,0,0-1.11-.49H84.4a1.56,1.56,0,0,0-1.16.71,22.94,22.94,0,0,0-2,4.35,19.4,19.4,0,0,0-8.79-4.54,18,18,0,0,0-.6-4.18c-2-7.27-8-10.57-12.8-12a1.49,1.49,0,0,0-.47-.07,1.71,1.71,0,0,0-.8.22,1.54,1.54,0,0,0-.71,1,22,22,0,0,0,.24,8.13,9.65,9.65,0,0,0-6,3.32c-.27-.43-.57-.85-.88-1.25-4.58-5.84-12-7.06-17.4-7.06a1.55,1.55,0,0,0-1.53,1.78,22,22,0,0,0,.69,2.83A22.14,22.14,0,0,0,29,13.27c-.55-4.53-3.7-8.9-9.38-13a1.56,1.56,0,0,0-.9-.29,1.59,1.59,0,0,0-.43.06,1.51,1.51,0,0,0-1,.91,25.66,25.66,0,0,0-1.51,7.41,15.62,15.62,0,0,0-3.93-.48,27,27,0,0,0-11,2.7,1.58,1.58,0,0,0-.85,1,1.6,1.6,0,0,0,.23,1.3,20.15,20.15,0,0,0,5.34,5A21.37,21.37,0,0,0,2,20.76a1.67,1.67,0,0,0-.41,1.75C2,23.85,4.73,26,7.85,27.2a9.51,9.51,0,0,0,2.08,8.4,23.77,23.77,0,0,0-4.3,8.93,1.53,1.53,0,0,0,.15,1.18,1.68,1.68,0,0,0,.93.72,15.41,15.41,0,0,0,3.48.37,15.46,15.46,0,0,0,6.39-1.34,25.12,25.12,0,0,0,1.7,5.32,1.58,1.58,0,0,0,.88.82,1.55,1.55,0,0,0,.53.09,1.66,1.66,0,0,0,.66-.14,16,16,0,0,0,3.76-2.71,9.61,9.61,0,0,0,8.49,6.67,20.31,20.31,0,0,0-.66,8.07,1.49,1.49,0,0,0,.59,1.09,1.69,1.69,0,0,0,.94.32l.27,0a16.58,16.58,0,0,0,6-2.65C39.82,72.91,37,82.2,34.5,90.48a105.08,105.08,0,0,0-2.76,10.27,60.61,60.61,0,0,1-3.5,11.33c-1.52,3.87-2.52,6.43-1.29,8.41,1,1.55,2.87,1.88,4.21,2l2.62.25c1.73.17,3.37.34,4.84.34a8.1,8.1,0,0,0,5.79-1.83c1.81-1.72,2.54-4.67,2.31-9.28v-.17c-.66-13.1-1.56-31,4.17-37.51a19.62,19.62,0,0,1,3.68-3.14h0a21.05,21.05,0,0,0,0,7.53,1.52,1.52,0,0,0,.72,1,1.67,1.67,0,0,0,.79.22,1.52,1.52,0,0,0,.42-.06,14.79,14.79,0,0,0,8.29-5.27,9.53,9.53,0,0,0,4.43,1.89,15.58,15.58,0,0,0,4.21,8,1.58,1.58,0,0,0,1.13.5,1.68,1.68,0,0,0,1.12-.48,19.26,19.26,0,0,0,3.57-5.81,16.72,16.72,0,0,0,6.41,4,1.56,1.56,0,0,0,.57.11,1.68,1.68,0,0,0,.73-.19,1.53,1.53,0,0,0,.76-1A24,24,0,0,0,88,73.37a13.53,13.53,0,0,0-3.83-8,7.14,7.14,0,0,0,.8,0A9.63,9.63,0,0,0,94.34,58a21.73,21.73,0,0,0,8.08-2.05,1.59,1.59,0,0,0,.82-.92,1.66,1.66,0,0,0-.09-1.2c-.16-.31-4-7.55-10.71-9.34l-.11,0,.49-.17a17.05,17.05,0,0,0,7.31,1.51,22,22,0,0,0,6-.8,1.55,1.55,0,0,0,1-2.08Zm-1.31.66a.12.12,0,0,1-.07.07,21.15,21.15,0,0,1-5.56.73,15.47,15.47,0,0,1-7.2-1.62,30.33,30.33,0,0,0-7.14,3.35,10.75,10.75,0,0,1,6.29-.25c6.17,1.65,9.78,8.55,9.81,8.62a.12.12,0,0,1,0,.1.12.12,0,0,1-.07.07,19.72,19.72,0,0,1-8,1.94c-.25,0-.48,0-.72,0a8.17,8.17,0,0,1-16.32-.65,8.57,8.57,0,0,1,.13-1.44A39.18,39.18,0,0,1,72,58.94a8.18,8.18,0,0,1,6,4.75c3.38.84,7.58,3.23,8.54,9.88a23,23,0,0,1-.3,7.71.13.13,0,0,1-.07.08h-.1a13.92,13.92,0,0,1-7.59-5.84c-.52,4.36-3.9,8-3.94,8a.1.1,0,0,1-.09,0h0a.11.11,0,0,1-.09,0c-2.54-2.81-3.86-5.62-3.94-8.37a8.16,8.16,0,0,1-6-2.8c-1.45,2.9-4.26,5-8.37,6.13H56s-.06,0-.06-.08a19.79,19.79,0,0,1,0-7,14.4,14.4,0,0,1,1.14-3.5,28.46,28.46,0,0,0-7.27,5.43c-6.11,6.92-5.19,25.18-4.52,38.52V112c.2,4.17-.39,6.77-1.88,8.19-1.16,1.1-2.8,1.43-4.81,1.43-1.4,0-3-.16-4.69-.33-.86-.09-1.73-.18-2.65-.25-1.66-.14-2.65-.56-3.13-1.33-.85-1.37,0-3.67,1.41-7.14A62,62,0,0,0,33.14,101a102.94,102.94,0,0,1,2.72-10.12c2.72-9,5.92-19.59,5.18-31.69a14.2,14.2,0,0,1-7.55,4.37h0a.09.09,0,0,1-.07,0,.11.11,0,0,1,0-.09A16.92,16.92,0,0,1,34.76,54a8.29,8.29,0,0,1-1.5.14,8.19,8.19,0,0,1-8.18-8.18c0-.14,0-.28,0-.43a15.16,15.16,0,0,1-5.36,4.77h-.1a.16.16,0,0,1-.07-.07,21.42,21.42,0,0,1-1.86-7c-.18.12-.35.25-.53.36a13.56,13.56,0,0,1-7,1.85,13.36,13.36,0,0,1-3.11-.33A.16.16,0,0,1,7,45a.14.14,0,0,1,0-.09,21.08,21.08,0,0,1,4.89-9.36A8.14,8.14,0,0,1,9,29.35a8.23,8.23,0,0,1,.6-3.07c-3.6-1-6.47-3.4-6.73-4.21-.05-.15,0-.24,0-.28a17.65,17.65,0,0,1,5.86-4,17.37,17.37,0,0,1-7.35-5.76.12.12,0,0,1,0-.1.11.11,0,0,1,.07-.08c4.3-2,10.51-3.79,15.68-1.54l0,0A24,24,0,0,1,18.61,1.5a.15.15,0,0,1,.08-.08.14.14,0,0,1,.11,0c5.46,3.93,8.44,8.06,8.84,12.28a10.27,10.27,0,0,1-.1,2.57,18.84,18.84,0,0,1,6.43-4,22,22,0,0,1-1.06-3.85.17.17,0,0,1,0-.1.13.13,0,0,1,.1,0c5.09,0,12.06,1.13,16.28,6.52A14.51,14.51,0,0,1,51.21,18a8.19,8.19,0,0,1,7.44-4.8l.51,0A20.64,20.64,0,0,1,58.46,4a.15.15,0,0,1,.06-.09.12.12,0,0,1,.1,0C63,5.29,68.68,8.33,70.48,15A16.51,16.51,0,0,1,71,20c5,.48,9.07,4,10.93,5.93a22.75,22.75,0,0,1,2.5-6.21.15.15,0,0,1,.09-.06.12.12,0,0,1,.1,0,22.21,22.21,0,0,1,4.69,7.13,16.26,16.26,0,0,1,3-3.46,24,24,0,0,1,6.47-4,.14.14,0,0,1,.11,0,.15.15,0,0,1,.06.09c1,4.93.42,8.92-1.8,11.84a11.37,11.37,0,0,1-3.46,3,11.68,11.68,0,0,1,3.92.59c3.48,1.19,6.23,4.08,8.18,8.58A.12.12,0,0,1,105.76,43.53ZM75.93,59a10.77,10.77,0,0,0-1-.6l.7-.63A8.61,8.61,0,0,0,75.93,59Z"/><path class="cls-1" d="M50,46.65a12.33,12.33,0,0,1-4-.65,11.17,11.17,0,0,1-1.06-.43c1.1,3,2.53,5.39,4.1,5.48,1.35.08,2.72-1.51,4.06-4.73A15,15,0,0,1,50,46.65Zm-.91,3c-.22,0-.83-.41-1.61-1.79a14,14,0,0,0,2.52.22h.63C49.64,49.61,49.06,49.64,49.05,49.64Z"/><path class="cls-1" d="M60.26,41.63a8.93,8.93,0,0,1,1.1-.59,9.42,9.42,0,0,1,1.06-.43A8.21,8.21,0,0,1,67,33.91a12.93,12.93,0,0,1-.46-2.45A44.22,44.22,0,0,0,60.26,41.63Z"/></svg>