<svg id="圖層_1" data-name="圖層 1" xmlns="http://www.w3.org/2000/svg" viewBox="0 0 126.2 78.99"><defs><style>.cls-1{fill:#fff;}</style></defs><title>0</title><path class="cls-1" d="M95.48,63.1A12.94,12.94,0,0,1,95.15,65a11.17,11.17,0,0,1,.65-1.53Z"/><path class="cls-1" d="M125.75,39.37c-1.47-4.12-5.67-6.48-8.68-7.68a2.76,2.76,0,0,0,.54-1.39c.13-1.41-.8-2.67-2.78-3.76a10.85,10.85,0,0,0-5.29-1.23,20.34,20.34,0,0,0-6.09,1.05A3.58,3.58,0,0,0,102,25.18a6.2,6.2,0,0,0-2.69-.53,10.9,10.9,0,0,0-1.84.16,3,3,0,0,0-.88-1.07,3.29,3.29,0,0,0-1.31-.57c.29-1.71.42-4-.47-5.46a3,3,0,0,0-2.34-1.63h-.25l-.29,0a9.64,9.64,0,0,0-1.49-3.77,3.7,3.7,0,0,0-3.07-1.79,3,3,0,0,0-.84.11,3,3,0,0,0-.59.21A7.29,7.29,0,0,0,83.25,8a4.19,4.19,0,0,0-2-.54,4.77,4.77,0,0,0-2.71.9c-1.26-1.3-3.24-2.9-5.35-2.9h-.22a3.84,3.84,0,0,0-3.3,1.74,3.41,3.41,0,0,0-.46,1.21,8.14,8.14,0,0,0-1-.06,4.58,4.58,0,0,0-3.09,1c-1.46,1.3-.94,3.43-.1,5.17a5.44,5.44,0,0,0-3.71,3.8,4.74,4.74,0,0,0,1.4,4.24,6.82,6.82,0,0,0-1.09.87,4.11,4.11,0,0,0-.6.08,10.13,10.13,0,0,0-2.72,1,4.74,4.74,0,0,0-3.57-2.6c.35-4-.06-7.74-1.14-9.79a3.09,3.09,0,0,0-2.08-1.78,4.56,4.56,0,0,0-.82-.08,3.61,3.61,0,0,0-1.18.2,14.11,14.11,0,0,0-3.29-6A4.71,4.71,0,0,0,43,2.79a4.17,4.17,0,0,0-2.23.61C39.73,1.81,38.11,0,35.9,0a4.22,4.22,0,0,0-3.76,2.44,4.21,4.21,0,0,0-2.3-.72,4,4,0,0,0-1.58.33,4.06,4.06,0,0,0-2.41,3.38,4.53,4.53,0,0,0-1-.12,3.45,3.45,0,0,0-3.08,2c-1.06,2.05-.21,4.57.74,6.39a3.36,3.36,0,0,0-.83.6,3.11,3.11,0,0,0-.88,2.61,7.75,7.75,0,0,0,1.39,3.46,3.51,3.51,0,0,0-.5.45,4,4,0,0,0-.81,3.45A2.73,2.73,0,0,0,20,25.66a13.54,13.54,0,0,0-4.49-.95,4.93,4.93,0,0,0-2,.37,3.37,3.37,0,0,0-2,3.29h-.35c-2.39,0-4.12.66-5.14,2a4.5,4.5,0,0,0-.92,2.82A5.75,5.75,0,0,0,.66,35a3.49,3.49,0,0,0-.32,3.58A7.63,7.63,0,0,0,3,41.74a3.69,3.69,0,0,0-.29.4,3.13,3.13,0,0,0-.31,2.63A5.87,5.87,0,0,0,5.56,48a3.9,3.9,0,0,0-.64,1.19,3.8,3.8,0,0,0,1.18,4,7.17,7.17,0,0,0,4.39,2,3.1,3.1,0,0,0,.27,1.59C11.41,58.18,13,59,15,59a9.52,9.52,0,0,0,1.64-.15q.82-.15,1.59-.33a2.38,2.38,0,0,0,.18,1,2.31,2.31,0,0,0,2.27,1.37,5,5,0,0,0,1.35-.21,12,12,0,0,0,1.14-.4,27,27,0,0,0-.08,9.48c.51,2.42,1.52,3.9,3,4.39a7.61,7.61,0,0,0,2.44.38c5.37,0,12-4.55,15.4-8.83.29-.36.56-.72.81-1.07a15.1,15.1,0,0,0,2.44,6,5.1,5.1,0,0,0,3.5,2.16l.43,0c2.08,0,4.68-1.68,7-4.49L58.3,68a24.81,24.81,0,0,0,6.32,6.37,12.82,12.82,0,0,0,7,2.72,5.47,5.47,0,0,0,2.18-.42c3.09-1.34,4.5-6.74,4.54-11.41a20.73,20.73,0,0,0,7.91,4.75,10.19,10.19,0,0,0,2.85.45,5.47,5.47,0,0,0,3.69-1.27A7.66,7.66,0,0,0,95,65.68a6.73,6.73,0,0,0-.18,1.63,7,7,0,0,0,1.31,7.59c1.74,2,5.61,4.2,11.27,4.2h0c.62,0,1.25,0,1.87-.08,3.35-.29,5.83-1.41,6.81-3.06,1.42-2.4.62-6.57-.6-9.68-1.7-4.35-4.36-7.33-7.27-8.19a9.48,9.48,0,0,0-2.62-.4,7.31,7.31,0,0,0-1.33.12,11.71,11.71,0,0,0-4.75,1.48A16.2,16.2,0,0,1,97.28,57l.2-.2a3.81,3.81,0,0,0,.67-1.05,10.14,10.14,0,0,0,5.45,1.87,6.81,6.81,0,0,0,1.43-.15,7.12,7.12,0,0,0,4.14-2.76,27.13,27.13,0,0,0,5.63.73c2.52,0,4.31-.66,5.32-1.94a4.49,4.49,0,0,0,.71-3.87,14.35,14.35,0,0,0,2.63-2C126,45.26,126.8,42.31,125.75,39.37Zm-6.63,9.55c.22.49.95,2.33-.11,3.68-1.33,1.68-4.86,1.85-10.49.48a6,6,0,0,1-3.79,3c-2.2.48-4.75-.48-7.57-2.83a3.76,3.76,0,0,1-.73,2.6,2.2,2.2,0,0,1-1.23.67c.06.08.13.16.19.25a17.64,17.64,0,0,0,4,4.33,9.6,9.6,0,0,1,5-1.87,7.12,7.12,0,0,1,3.36.24c2.45.72,4.83,3.47,6.35,7.35,1.36,3.46,1.64,6.85.7,8.43-.74,1.24-2.87,2.13-5.71,2.38-.6,0-1.18.07-1.75.07-4.84,0-8.54-1.77-10.19-3.7a5.57,5.57,0,0,1-1-6.41,7.72,7.72,0,0,1,1.42-4.44,19,19,0,0,1-3.53-4.06l0,.28c.3,4.06-.53,7.28-2.27,8.81a4,4,0,0,1-2.76.92,8.87,8.87,0,0,1-2.45-.39c-4-1.21-8.47-4.77-10.15-8a21.25,21.25,0,0,1,.42,4c.08,5.14-1.5,9.72-3.68,10.67a4.18,4.18,0,0,1-1.62.31,11.49,11.49,0,0,1-6.17-2.47,22,22,0,0,1-7-7.85,17.22,17.22,0,0,1-1.42,2c-2,2.44-4.24,4-5.86,4l-.27,0a3.77,3.77,0,0,1-2.54-1.62c-1.61-2.08-2.49-5.87-2.72-9.76a15.46,15.46,0,0,1-2.75,4.78c-3.5,4.34-9.73,8.31-14.3,8.31a6.38,6.38,0,0,1-2-.3c-.95-.32-1.66-1.47-2.05-3.34a28.14,28.14,0,0,1,.73-11.92,12.85,12.85,0,0,1-3.56,1.76,3.72,3.72,0,0,1-1,.16.92.92,0,0,1-1-.5c-.29-.69.31-1.89,1.19-2.86a16.93,16.93,0,0,1-4.51,1.37c-2.2.38-3.83-.1-4.37-1.28a2.18,2.18,0,0,1,.6-2.42A6.81,6.81,0,0,1,7.1,52.14a2.45,2.45,0,0,1-.84-2.56,3.47,3.47,0,0,1,2.2-2c-1.16-.36-4.18-1.48-4.71-3.24a1.7,1.7,0,0,1,.15-1.47,3.21,3.21,0,0,1,1.87-1.18c-.92-.4-3.26-1.6-4.12-3.69a2.12,2.12,0,0,1,.14-2.18c.76-1,2.65-1.47,5-1.23a3.83,3.83,0,0,1,.38-3.42c1-1.24,3-1.67,6.07-1.27-.22-.66-.8-2.81.86-3.55s5.83.52,7.33,1.6c-.18-.74-.43-2.27.61-2.79a2.55,2.55,0,0,1,.55-.19c-.5-1.38-.45-2.55.2-3.27a1.89,1.89,0,0,1,1.95-.53c-.75-.81-2.33-2.7-2.49-4.46a1.74,1.74,0,0,1,.46-1.47,3,3,0,0,1,2.08-.65c-.63-.91-2.89-4.43-1.72-6.69a2,2,0,0,1,1.4-1.15,4.24,4.24,0,0,1,2.89.9c-.18-.92-.48-3.48,1.48-4.31s3.43.92,3.92,1.62c.19-.92.92-3.56,3.16-3.56h0c2.37,0,4,3.38,4.47,4.36A2.87,2.87,0,0,1,43,4.2h0a3.46,3.46,0,0,1,2.18,1.24,12.54,12.54,0,0,1,3.29,7.73,2.46,2.46,0,0,1,2.74-1.42c.41.08.77.44,1.1,1.05,1,1.88,1.48,6.14.75,10.92a2,2,0,0,1,1.46-.38c2.16.27,2.9,2.62,3.09,3.36a8.11,8.11,0,0,1,3.68-1.8,3.33,3.33,0,0,1,.94-.06,7.11,7.11,0,0,1,3.1-2c-.79-.46-3.11-2-2.66-4.24s3.62-3.06,4.45-3.2c-.49-.76-2.37-3.85-1.09-5s3.85-.47,4.68-.25A2.57,2.57,0,0,1,70.83,8,2.48,2.48,0,0,1,73,6.9h.14c2.29,0,4.7,2.83,5.22,3.46.43-.48,2.18-2.21,4.21-1.1a7,7,0,0,1,2.9,4A2.26,2.26,0,0,1,86.93,12a2.15,2.15,0,0,1,2.39,1.11,9.53,9.53,0,0,1,1.43,5.07,2.38,2.38,0,0,1,1.63-.7,1.69,1.69,0,0,1,1.25.94c1,1.77.16,5.29-.1,6.21a2.81,2.81,0,0,1,2.25.24,2,2,0,0,1,.71,1.61,7.58,7.58,0,0,1,4.93,0,2,2,0,0,1,1.21,1.71c1.09-.45,7.19-2.77,11.51-.39,1.44.79,2.13,1.6,2.06,2.39-.1,1-1.46,1.72-2.14,2,1.71.46,8.55,2.6,10.36,7.68.86,2.41.19,4.76-1.93,6.79A13.79,13.79,0,0,1,119.12,48.92Zm-24,16a12.94,12.94,0,0,0,.33-1.85l.32.32A11.17,11.17,0,0,0,95.15,65Z"/></svg>