<svg id="圖層_1" data-name="圖層 1" xmlns="http://www.w3.org/2000/svg" viewBox="0 0 183.2 203.46"><defs><style>.cls-1{fill:#fff;}</style></defs><title>0</title><path class="cls-1" d="M121.45,125.28a15,15,0,0,1-.34,1.88,10,10,0,0,1,.66-1.56C121.66,125.5,121.55,125.39,121.45,125.28Z"/><path class="cls-1" d="M90.26,114.64a9.46,9.46,0,0,1,9.37,2.41v0a9.53,9.53,0,0,1,2,3.08,7.93,7.93,0,0,1,0-2.23.08.08,0,0,1,0,0c0-.06,0-.1,0-.15s.08-.38.13-.57a8.11,8.11,0,0,1,2.31-4.14c-.65-.89-2.39-3.32-3-4.55a3.64,3.64,0,0,1-.52-1.9,7.85,7.85,0,0,1-3.58,1.61,2.85,2.85,0,0,1,.91,2.67c-.51,1.61-4,3.33-7.65,2.42A5.79,5.79,0,0,1,90.26,114.64Zm8.93-3.37a3.57,3.57,0,0,0-.06-2.26,5,5,0,0,0,.48-.21,3.59,3.59,0,0,0,.17.34,42.82,42.82,0,0,0,2.48,3.77,9.62,9.62,0,0,0-1.65,3.12,10.22,10.22,0,0,0-3.54-2.36A4.57,4.57,0,0,0,99.19,111.27Z"/><path class="cls-1" d="M64.36,110.27a1.86,1.86,0,0,0-.11-.19,7.63,7.63,0,0,1-.79-2.64,8.85,8.85,0,0,1-.71.82,12.08,12.08,0,0,1-.07,1.69A11.7,11.7,0,0,1,64.36,110.27Z"/><path class="cls-1" d="M71.81,115.42a6.09,6.09,0,0,1,.35-1.32,15.53,15.53,0,0,1-1.49-2,3.8,3.8,0,0,1-1,1.09,9.24,9.24,0,0,1,2,3.5C71.7,116.27,71.75,115.84,71.81,115.42Z"/><path class="cls-1" d="M151.72,101.55c-1.47-4.12-5.68-6.48-8.68-7.68a2.75,2.75,0,0,0,.53-1.39c.14-1.41-.8-2.67-2.78-3.76a10.79,10.79,0,0,0-5.28-1.23,20.41,20.41,0,0,0-6.1,1.05A3.58,3.58,0,0,0,128,87.36a6.15,6.15,0,0,0-2.68-.53,10.9,10.9,0,0,0-1.84.16,2.9,2.9,0,0,0-.89-1.07,3.29,3.29,0,0,0-1.31-.57c.3-1.71.42-3.94-.46-5.46a3,3,0,0,0-2.35-1.63h-.25l-.29,0a9.64,9.64,0,0,0-1.49-3.77,3.7,3.7,0,0,0-3.07-1.79,3,3,0,0,0-.84.11A3.1,3.1,0,0,0,112,73a7.19,7.19,0,0,0-2.74-2.83,4.19,4.19,0,0,0-2-.54,4.79,4.79,0,0,0-2.71.9c-1.25-1.3-3.23-2.9-5.35-2.9h-.21a3.88,3.88,0,0,0-3.31,1.74,3.62,3.62,0,0,0-.46,1.21,8.14,8.14,0,0,0-1-.06,4.55,4.55,0,0,0-3.08,1c-1.47,1.3-.94,3.42-.1,5.17a5.44,5.44,0,0,0-3.71,3.8,4.76,4.76,0,0,0,1.39,4.24,6.75,6.75,0,0,0-1.08.87,4.07,4.07,0,0,0-.61.08,10.13,10.13,0,0,0-2.72,1,4.7,4.7,0,0,0-3.57-2.6c.36-4-.06-7.74-1.13-9.79a3.11,3.11,0,0,0-2.08-1.78,4.65,4.65,0,0,0-.82-.08,3.57,3.57,0,0,0-1.18.2,14.07,14.07,0,0,0-3.3-6A4.71,4.71,0,0,0,68.93,65a4.23,4.23,0,0,0-2.23.61c-1-1.59-2.62-3.37-4.84-3.4a4.2,4.2,0,0,0-3.75,2.44,4.24,4.24,0,0,0-2.31-.72,4,4,0,0,0-1.58.33,4.08,4.08,0,0,0-2.41,3.38,4.44,4.44,0,0,0-1-.12,3.45,3.45,0,0,0-.72.08,3.36,3.36,0,0,0-2.36,1.87c-1.07,2-.21,4.58.74,6.39a3.2,3.2,0,0,0-.84.6A3.11,3.11,0,0,0,46.78,79a7.88,7.88,0,0,0,1.4,3.46,3,3,0,0,0-.5.45,4,4,0,0,0-.82,3.45,2.79,2.79,0,0,0-.93,1.44,13.48,13.48,0,0,0-4.48-1,4.89,4.89,0,0,0-2,.37,3.4,3.4,0,0,0-.74.45c-.18,1.43-.4,2.86-.64,4.28.35,0,.71.06,1.1.11-.23-.66-.8-2.81.85-3.55s5.83.52,7.34,1.6c-.19-.74-.44-2.27.6-2.79a2.64,2.64,0,0,1,.56-.19c-.51-1.38-.46-2.55.19-3.27a1.92,1.92,0,0,1,2-.53c-.75-.81-2.32-2.7-2.49-4.46a1.74,1.74,0,0,1,.47-1.47,3,3,0,0,1,2.07-.65c-.63-.91-2.89-4.43-1.72-6.69A2,2,0,0,1,50.41,69a4.17,4.17,0,0,1,2.89.9c-.18-.92-.48-3.48,1.48-4.31s3.43.93,3.93,1.62c.18-.92.91-3.56,3.15-3.56h0c2.36,0,4,3.38,4.46,4.36a2.87,2.87,0,0,1,2.57-1.58h0a3.44,3.44,0,0,1,2.18,1.24,12.6,12.6,0,0,1,3.3,7.73,2.45,2.45,0,0,1,2.74-1.42,1.79,1.79,0,0,1,1.09,1c1,1.88,1.49,6.13.75,10.91a2,2,0,0,1,1.46-.37c2.16.27,2.91,2.62,3.09,3.36a8.17,8.17,0,0,1,3.69-1.8,3.29,3.29,0,0,1,.93-.06,7.17,7.17,0,0,1,3.1-2c-.79-.46-3.1-2-2.65-4.24s3.61-3.06,4.44-3.2c-.49-.76-2.36-3.85-1.08-5s3.85-.47,4.67-.25a2.61,2.61,0,0,1,.14-2.19A2.51,2.51,0,0,1,99,69.08h.14c2.29,0,4.71,2.83,5.22,3.46.44-.48,2.19-2.21,4.21-1.1a7,7,0,0,1,2.9,4,2.31,2.31,0,0,1,1.46-1.21,2.15,2.15,0,0,1,2.39,1.11,9.56,9.56,0,0,1,1.44,5.07,2.35,2.35,0,0,1,1.62-.7,1.68,1.68,0,0,1,1.25.94c1,1.77.16,5.29-.1,6.21a2.83,2.83,0,0,1,2.26.24,2,2,0,0,1,.7,1.61,7.58,7.58,0,0,1,4.93,0,2,2,0,0,1,1.21,1.71c1.09-.45,7.2-2.77,11.52-.39,1.44.79,2.13,1.59,2,2.39-.09,1-1.46,1.72-2.14,2,1.71.46,8.55,2.6,10.36,7.68.86,2.41.2,4.76-1.93,6.78a13.27,13.27,0,0,1-3.37,2.29c.22.49.95,2.33-.11,3.68-1.32,1.68-4.85,1.85-10.49.48a6,6,0,0,1-3.79,3c-2.2.47-4.75-.48-7.57-2.83a3.75,3.75,0,0,1-.72,2.6,2.23,2.23,0,0,1-1.23.67c.06.08.13.16.19.25a17.25,17.25,0,0,0,4,4.33,9.48,9.48,0,0,1,5-1.87,7.17,7.17,0,0,1,3.37.24c2.46.72,4.83,3.47,6.36,7.35,1.36,3.46,1.64,6.85.69,8.43-.73,1.24-2.86,2.13-5.7,2.38-.6.05-1.19.07-1.76.07-4.83,0-8.54-1.77-10.19-3.7a5.55,5.55,0,0,1-1-6.41,7.73,7.73,0,0,1,1.41-4.44,19.23,19.23,0,0,1-3.53-4.06l0,.28c.3,4.06-.53,7.28-2.27,8.81a4,4,0,0,1-2.75.92,8.94,8.94,0,0,1-2.46-.39c-4-1.21-8.46-4.77-10.15-8a21.22,21.22,0,0,1,.43,4c.08,5.14-1.51,9.72-3.69,10.67a4.16,4.16,0,0,1-1.61.31,11.51,11.51,0,0,1-6.18-2.47,21.88,21.88,0,0,1-7-7.85,20,20,0,0,1-1.42,2c-2,2.44-4.25,4-5.86,4h-.27a3.79,3.79,0,0,1-2.55-1.62c-1.6-2.09-2.48-5.87-2.72-9.76A15.57,15.57,0,0,1,68.81,127c-3.51,4.33-9.74,8.3-14.31,8.3a6.37,6.37,0,0,1-2-.3c-1-.32-1.66-1.47-2.05-3.34a28.29,28.29,0,0,1,.72-11.92,12.85,12.85,0,0,1-3.56,1.76,3.66,3.66,0,0,1-1,.16.93.93,0,0,1-1-.5c-.29-.69.32-1.89,1.19-2.86a16.69,16.69,0,0,1-4.51,1.37c-3.26.57-4.16-.84-4.36-1.28a2.18,2.18,0,0,1,.59-2.42,6.79,6.79,0,0,1-5.54-1.61,2.43,2.43,0,0,1-.84-2.56,3.44,3.44,0,0,1,2.19-2c-.3-.1-.74-.25-1.22-.45a45.89,45.89,0,0,1-2.16,4.5,4.81,4.81,0,0,0,1,1.48,7.22,7.22,0,0,0,4.39,2,3.24,3.24,0,0,0,.28,1.59c.24.53,1.25,2.25,4.24,2.25a10,10,0,0,0,1.66-.15c.55-.1,1.07-.21,1.58-.33a2.4,2.4,0,0,0,.19,1A2.28,2.28,0,0,0,46.66,123a5.13,5.13,0,0,0,1.36-.21,12,12,0,0,0,1.14-.4,27,27,0,0,0-.08,9.48c.51,2.42,1.51,3.9,3,4.39a7.6,7.6,0,0,0,2.43.37c5.38,0,12-4.54,15.41-8.82.29-.36.56-.72.81-1.07a15.08,15.08,0,0,0,2.43,6A5.14,5.14,0,0,0,76.66,135l.43,0c2.07,0,4.68-1.68,7-4.49l.22-.27a24.65,24.65,0,0,0,6.32,6.37,12.79,12.79,0,0,0,7,2.72,5.45,5.45,0,0,0,2.17-.42c3.1-1.34,4.5-6.74,4.55-11.41a20.55,20.55,0,0,0,7.9,4.74,9.88,9.88,0,0,0,2.86.46,5.42,5.42,0,0,0,3.69-1.27,7.78,7.78,0,0,0,2.17-3.57,6.48,6.48,0,0,0-.19,1.65,7,7,0,0,0,1.31,7.59c1.74,2,5.61,4.2,11.27,4.2.62,0,1.25,0,1.88-.08,3.34-.29,5.82-1.41,6.8-3.06,1.43-2.4.63-6.57-.59-9.68-1.71-4.35-4.36-7.33-7.28-8.19a9.12,9.12,0,0,0-2.62-.4,7.34,7.34,0,0,0-1.34.12,11.51,11.51,0,0,0-4.74,1.48,16.22,16.22,0,0,1-2.17-2.31l.2-.2a4,4,0,0,0,.67-1,10.11,10.11,0,0,0,5.44,1.87,6.74,6.74,0,0,0,1.43-.15,7.09,7.09,0,0,0,4.14-2.76,27.13,27.13,0,0,0,5.63.73h0c2.52,0,4.31-.66,5.33-1.95a4.47,4.47,0,0,0,.71-3.86,14.35,14.35,0,0,0,2.63-2C152,107.44,152.77,104.49,151.72,101.55Zm-30.27,23.73c.1.11.21.22.32.32a10,10,0,0,0-.66,1.56A15,15,0,0,0,121.45,125.28Z"/><path class="cls-1" d="M106.12,111.55a12.4,12.4,0,0,1,4.88-1.36h0a7.38,7.38,0,0,1,.81-.07,14.28,14.28,0,0,1,0-4.14,7.55,7.55,0,0,1-1-.08,8.09,8.09,0,0,1-5.22,1.61c-.33,0-.66,0-1,0a11.75,11.75,0,0,1-1.79-.31l.22.37A15.15,15.15,0,0,0,106.12,111.55Zm-.47-2.61a10.71,10.71,0,0,0,4.62-1c0,.3,0,.58,0,.86a14.09,14.09,0,0,0-3.88,1,10.32,10.32,0,0,1-.75-.91Z"/></svg>