<svg id="圖層_1" data-name="圖層 1" xmlns="http://www.w3.org/2000/svg" viewBox="0 0 150.86 61.03"><defs><style>.cls-1{fill:#fff;}</style></defs><title>0</title><path class="cls-1" d="M148.86,23.76a3.23,3.23,0,0,0-.92-.26c.18-2.55-.13-5.92-2.79-6.88a4.28,4.28,0,0,0-1.46-.26A6,6,0,0,0,139.84,18a3,3,0,0,0-.87-1,2.56,2.56,0,0,0-1.47-.46,2.91,2.91,0,0,0-1,.19,4.74,4.74,0,0,0-1.15.63c0-.5,0-1.05,0-1.65,0-4.76-2.45-5.87-3.2-6.1a3.33,3.33,0,0,0-2.22.11,16.67,16.67,0,0,0-.88-2c-1.9-3.63-4.16-4.39-5.72-4.39a4.36,4.36,0,0,0-.51,0c-3.23.34-5.07,2.76-5.85,5.32a5.49,5.49,0,0,0-.83-.06A4.48,4.48,0,0,0,113,9.84c-1.44,1.35-1.82,3.63-1.16,6.92a4,4,0,0,0-.59-.05,2.79,2.79,0,0,0-2.17.95,3.73,3.73,0,0,0-.75,1.69c-.21-.36-.42-.71-.65-1.05-1.89-2.86-3.93-4.31-6-4.31a4.23,4.23,0,0,0-.79.08,4.57,4.57,0,0,0-2.73,1.66,7.29,7.29,0,0,0-4-2h-.4a4.62,4.62,0,0,0-3.27,1.38,4.11,4.11,0,0,0-.44.48,7.52,7.52,0,0,0-2.7,1.62,3.21,3.21,0,0,0-1-1.13,2.64,2.64,0,0,0-1.51-.47,3.09,3.09,0,0,0-1.06.19,5.57,5.57,0,0,0-1.4.81c0-.6.06-1.27.06-2,0-5-2.56-6.21-3.35-6.44a3.4,3.4,0,0,0-1-.15,3.48,3.48,0,0,0-1.42.3,20.59,20.59,0,0,0-1-2.23c-2-3.85-4.4-4.65-6-4.65l-.54,0c-3.45.37-5.39,3-6.2,5.73a6.07,6.07,0,0,0-1-.07,4.68,4.68,0,0,0-3.3,1.2c-1.54,1.44-1.93,3.91-1.18,7.49a4.13,4.13,0,0,0-.78-.08,2.86,2.86,0,0,0-2.24,1,4,4,0,0,0-.84,2.06c-.27-.48-.55-.94-.84-1.39-1.51-2.28-3.1-3.71-4.75-4.28.26-4.16-.47-6.39-1-7.38a4,4,0,0,0-2.28-2.19,3.25,3.25,0,0,0-1-.15,6.17,6.17,0,0,0-4.09,2.25C38.79,3,37.14,0,34.26,0H34C31,.2,29.76,3.5,29.24,6.39a5.65,5.65,0,0,0-3.35-1.22,4.75,4.75,0,0,0-2,.45A4.41,4.41,0,0,0,22,7.32a5.8,5.8,0,0,0-3.78-2H18a3.78,3.78,0,0,0-1.87.49,7.9,7.9,0,0,0-5.8-2.92A6.85,6.85,0,0,0,9,3a4.49,4.49,0,0,0-3,2c-1.13,1.78-1.13,4.21-.92,6A5.13,5.13,0,0,0,.94,13.22c-1.32,2-.91,5,1.26,9a3,3,0,0,0-1,.44A3.33,3.33,0,0,0,0,26c.24,2.21,1.76,4.74,4.28,7.14a27.65,27.65,0,0,0,7.84,5.13,2.73,2.73,0,0,0-.05,1.24c.48,2.52,4.09,4.22,12.07,5.68a1.57,1.57,0,0,0,.6.12h.12a20.31,20.31,0,0,0,7.84-2.65,25.61,25.61,0,0,0,2.2-1.41c-.08,1.48.72,3.11,2.41,4.85,3.83,4,10.44,6.26,14.16,7.31a2.74,2.74,0,0,0-.25,1.54c.26,1.93,2.15,4.16,14.26,6.08h.24a1.66,1.66,0,0,0,.86-.26l.06,0A13.18,13.18,0,0,1,68,60.51a35.94,35.94,0,0,0,13.86-4.65c6.12-3.7,5.66-6.68,5.17-7.78v0a30.37,30.37,0,0,0,4.8-3c.25-.19.49-.39.71-.59q.28.34.63.69c3.55,3.68,9.51,5.8,13.11,6.81a2.71,2.71,0,0,0-.18,1.38c.24,1.83,2,4,13.37,5.75h.23a1.66,1.66,0,0,0,.86-.26l0,0c.21-.06.82-.15,1.23-.21a33.43,33.43,0,0,0,12.95-4.34c5.65-3.42,5.34-6.2,4.9-7.31a28.33,28.33,0,0,0,4.39-2.78c3.35-2.55,3.79-5.38,2.79-6.94a2.48,2.48,0,0,0-.19-.26,20.22,20.22,0,0,0,3.74-6.92C151.74,25.63,149.77,24.18,148.86,23.76Zm.2,5.88a18.86,18.86,0,0,1-4.73,7.81,1.26,1.26,0,0,1,1.35.55c.68,1.06.06,3.13-2.46,5a23.1,23.1,0,0,1-6.08,3.47,1.69,1.69,0,0,1,1.22.94c.24.55.65,2.6-4.3,5.6a32.13,32.13,0,0,1-12.43,4.15,9.57,9.57,0,0,0-1.58.3l-.25.14h0a.11.11,0,0,1-.08,0h0c-7.84-1.24-11.94-2.76-12.18-4.53-.12-1,.91-1.67,1.45-2-1.82-.4-10.41-2.5-14.77-7a8.58,8.58,0,0,1-1.45-1.93A9.88,9.88,0,0,1,91,43.91a24.76,24.76,0,0,1-6.55,3.73,1.78,1.78,0,0,1,1.33,1c.26.59.69,2.79-4.61,6A34.59,34.59,0,0,1,67.81,59.1a11.38,11.38,0,0,0-1.7.33l-.28.14s0,0,0,0a.11.11,0,0,1-.07,0h0c-8.42-1.33-12.82-3-13.07-4.85-.14-1,1-1.81,1.57-2.13C52.32,52.21,43.05,50,38.35,45.1c-1.65-1.71-2.29-3.19-1.89-4.39.48-1.43,2.29-2,3.15-2.25a13.65,13.65,0,0,1-2.32-1.17A22.92,22.92,0,0,1,32,41.42a19.2,19.2,0,0,1-7.25,2.47h0a.11.11,0,0,1-.08,0l0,0c-7.08-1.27-10.84-2.82-11.18-4.6a1.76,1.76,0,0,1,.77-1.64,26.78,26.78,0,0,1-9-5.49C3,30,1.64,27.69,1.44,25.85a2,2,0,0,1,.62-2c.8-.57,2.13-.18,2.77.07-3-4.73-3.92-8.06-2.71-9.9S6,12.44,6.77,12.54c-.2-.87-.92-4.58.43-6.71a3.07,3.07,0,0,1,2.07-1.4C13,3.72,15.38,7.11,16,8a2.16,2.16,0,0,1,2.16-1.25c1.3.09,2.81,1.09,4.25,3.33a4.45,4.45,0,0,1,2.1-3.19c2.83-1.28,5.15,1.64,5.85,2.67.08-1.68.59-7.95,3.78-8.16h.17c3.12,0,4.5,5.88,4.79,7.33.68-1,3.22-4.52,5.28-3.84a2.63,2.63,0,0,1,1.45,1.47c.4.81,1.21,3.13.73,7.88,1.28.05,3.05.89,5.08,3.93A25,25,0,0,1,55,26.43a4.51,4.51,0,0,1,.64.2c-.26-1.31-1.41-7.46-.11-9,1.06-1.21,3.27.1,4.09.66-1.45-4.56-1.44-7.57,0-8.95s3.75-.67,4.37-.46c.14-.92,1.05-5.57,5.28-6,2-.2,3.75,1.14,5.18,3.88A20.51,20.51,0,0,1,76,10.72a2.53,2.53,0,0,1,2.72-1.17C79.83,9.9,81,11.41,81,14.63a16.39,16.39,0,0,1-.92,6.22,2.66,2.66,0,0,1,.65-.33,9.14,9.14,0,0,1,3.5-3.36,1.33,1.33,0,0,1,1.27.11c.83.58,1,2.14,1.08,2.87.58-.81,2.25-2.89,4.24-3.27a4.94,4.94,0,0,1,.59-.71,3.2,3.2,0,0,1,2.57-1c2.06.17,3.89,2.24,4.43,2.9a3.7,3.7,0,0,1,2.69-2.63c1.21-.22,3.13.22,5.39,3.62a23.18,23.18,0,0,1,3.16,7.67,4.39,4.39,0,0,1,.58.19c-.25-1.26-1.31-7-.09-8.35,1-1.12,3,.08,3.79.6-1.34-4.23-1.33-7,0-8.32s3.48-.63,4.07-.43c.13-.88,1-5.18,4.93-5.6,1.81-.19,3.49,1,4.83,3.61a19.79,19.79,0,0,1,1.41,3.66A2.34,2.34,0,0,1,131.77,11c1.06.32,2.2,1.74,2.19,4.74a15.19,15.19,0,0,1-.84,5.77,2.47,2.47,0,0,1,.58-.3A8.49,8.49,0,0,1,137,18.12a1.28,1.28,0,0,1,1.2.1c.76.53,1,2,1,2.65.7-1,3-3.81,5.51-2.92s1.89,5.83,1.63,7.33a2,2,0,0,1,2-.23C148.84,25.31,150.06,26.29,149.06,29.64Z"/></svg>