<svg id="圖層_1" data-name="圖層 1" xmlns="http://www.w3.org/2000/svg" viewBox="0 0 183.2 203.46"><defs><style>.cls-1{fill:#fff;}</style></defs><title>0</title><path class="cls-1" d="M165,95a3,3,0,0,0-.92-.27c.18-2.55-.13-5.92-2.79-6.88a4.27,4.27,0,0,0-1.46-.25A6.06,6.06,0,0,0,156,89.24a3.1,3.1,0,0,0-.87-1,2.56,2.56,0,0,0-1.47-.46,3.16,3.16,0,0,0-1,.19,4.8,4.8,0,0,0-1.15.64c0-.51.05-1.06.05-1.65,0-4.76-2.45-5.88-3.2-6.1a3.15,3.15,0,0,0-1-.15,3.45,3.45,0,0,0-1.26.25,16.57,16.57,0,0,0-.88-2c-1.9-3.63-4.16-4.4-5.72-4.4a4.36,4.36,0,0,0-.51,0c-3.23.34-5.07,2.77-5.85,5.32a7.2,7.2,0,0,0-.83-.06,4.48,4.48,0,0,0-3.14,1.15c-1.44,1.36-1.82,3.63-1.16,6.92a4,4,0,0,0-.59,0,2.79,2.79,0,0,0-2.17.95,3.64,3.64,0,0,0-.75,1.68c-.21-.36-.42-.71-.65-1-1.89-2.85-3.93-4.3-6-4.3a4.22,4.22,0,0,0-.79.07,4.62,4.62,0,0,0-2.73,1.66,7.27,7.27,0,0,0-4-2l-.4,0a4.62,4.62,0,0,0-3.27,1.38c-.15.15-.3.31-.44.48a7.67,7.67,0,0,0-2.7,1.62,3.14,3.14,0,0,0-1-1.13,2.59,2.59,0,0,0-1.5-.47A3.09,3.09,0,0,0,100,87a5.34,5.34,0,0,0-1.4.82q.06-.92.06-2c0-5-2.56-6.2-3.35-6.44a3.41,3.41,0,0,0-1-.15,3.47,3.47,0,0,0-1.41.3,20.59,20.59,0,0,0-1-2.23c-2-3.84-4.4-4.65-6-4.65l-.54,0c-3.45.36-5.39,3-6.2,5.72a7.5,7.5,0,0,0-1-.07,4.71,4.71,0,0,0-3.3,1.2c-1.54,1.45-1.93,3.91-1.18,7.49a4.13,4.13,0,0,0-.78-.08,2.86,2.86,0,0,0-2.24,1A4.09,4.09,0,0,0,69.78,90c-.27-.48-.55-.94-.84-1.39-1.51-2.27-3.1-3.71-4.75-4.28.26-4.16-.47-6.38-1-7.38a4,4,0,0,0-2.28-2.18,3,3,0,0,0-1-.16,6.17,6.17,0,0,0-4.09,2.25c-.9-2.65-2.55-5.66-5.43-5.66h-.26c-3,.19-4.24,3.49-4.76,6.39a5.59,5.59,0,0,0-3.35-1.23,4.75,4.75,0,0,0-2,.45,4.37,4.37,0,0,0-1.9,1.71,5.87,5.87,0,0,0-3.78-2h-.25a3.67,3.67,0,0,0-1.87.49,7.9,7.9,0,0,0-5.8-2.93,6.11,6.11,0,0,0-1.28.13,4.42,4.42,0,0,0-3,2c-1.13,1.77-1.13,4.21-.92,6a5.15,5.15,0,0,0-4.14,2.13c-1.32,2-.91,5,1.26,9a3,3,0,0,0-1,.44,3.33,3.33,0,0,0-1.21,3.33c.24,2.21,1.76,4.74,4.28,7.14a27.44,27.44,0,0,0,7.84,5.13,2.73,2.73,0,0,0-.05,1.24c.48,2.52,4.09,4.23,12.07,5.68a1.57,1.57,0,0,0,.6.12h.12a20.63,20.63,0,0,0,7.84-2.66,23.4,23.4,0,0,0,2.2-1.41c-.08,1.48.72,3.11,2.41,4.85,3.83,4,10.44,6.27,14.16,7.31a2.79,2.79,0,0,0-.25,1.55c.26,1.92,2.15,4.15,14.26,6.07l.24,0a1.68,1.68,0,0,0,.86-.27l.06,0c.23-.06.9-.16,1.35-.23a36.06,36.06,0,0,0,13.86-4.64c6.12-3.71,5.66-6.68,5.17-7.79v0a30.37,30.37,0,0,0,4.8-3c.25-.19.49-.39.71-.59q.28.34.63.69c3.55,3.68,9.51,5.8,13.11,6.81a2.73,2.73,0,0,0-.18,1.38c.24,1.84,2,4,13.37,5.75l.23,0a1.68,1.68,0,0,0,.86-.27h0c.21-.06.82-.15,1.23-.22a33.26,33.26,0,0,0,13-4.34c5.65-3.41,5.34-6.2,4.9-7.31a28.33,28.33,0,0,0,4.39-2.78c3.35-2.54,3.79-5.38,2.79-6.94a2.48,2.48,0,0,0-.19-.26,20.22,20.22,0,0,0,3.74-6.92C167.91,96.84,165.94,95.39,165,95Zm.2,5.87a18.89,18.89,0,0,1-4.73,7.81,1.27,1.27,0,0,1,1.35.55c.68,1.06.06,3.13-2.46,5.05a23,23,0,0,1-6.08,3.46,1.69,1.69,0,0,1,1.22.94c.24.56.65,2.6-4.3,5.6a32.13,32.13,0,0,1-12.43,4.15,9.26,9.26,0,0,0-1.58.31l-.25.13a0,0,0,0,0,0,0,.11.11,0,0,1-.08,0h0c-7.84-1.24-11.94-2.77-12.18-4.54-.12-.95.91-1.67,1.45-2-1.82-.41-10.41-2.51-14.77-7a8.61,8.61,0,0,1-1.45-1.94,9.88,9.88,0,0,1-1.76,1.69,24.76,24.76,0,0,1-6.55,3.73,1.83,1.83,0,0,1,1.33,1c.26.59.69,2.79-4.61,6A34.64,34.64,0,0,1,84,130.32a10.27,10.27,0,0,0-1.7.32l-.28.15a0,0,0,0,1,0,0,.11.11,0,0,1-.07,0h0c-8.42-1.33-12.82-3-13.07-4.86-.14-1,1-1.81,1.57-2.13-1.91-.42-11.18-2.67-15.88-7.53-1.65-1.71-2.29-3.19-1.89-4.39.48-1.43,2.29-2,3.15-2.25a13,13,0,0,1-2.32-1.17,22.38,22.38,0,0,1-5.26,4.13A19,19,0,0,1,41,115.1h0a.11.11,0,0,1-.08,0l0,0c-7.08-1.27-10.84-2.82-11.18-4.59a1.77,1.77,0,0,1,.77-1.65,26.76,26.76,0,0,1-9-5.48c-2.24-2.14-3.64-4.42-3.84-6.27a2,2,0,0,1,.62-2c.8-.57,2.13-.18,2.77.07-3-4.72-3.92-8-2.71-9.9s3.91-1.55,4.65-1.46c-.2-.87-.92-4.58.43-6.7a3,3,0,0,1,2.07-1.4c3.69-.72,6.11,2.67,6.68,3.58A2.15,2.15,0,0,1,34.28,78c1.3.08,2.81,1.08,4.25,3.32a4.45,4.45,0,0,1,2.1-3.19c2.83-1.28,5.15,1.65,5.85,2.67.08-1.68.59-8,3.78-8.15h.17c3.12,0,4.5,5.88,4.79,7.33.68-1,3.22-4.52,5.28-3.84A2.66,2.66,0,0,1,62,77.59c.4.81,1.21,3.14.73,7.88,1.28.06,3.05.89,5.07,3.94a24.67,24.67,0,0,1,3.4,8.23,3.42,3.42,0,0,1,.64.21c-.26-1.32-1.41-7.47-.11-9,1.06-1.2,3.27.11,4.09.66-1.45-4.56-1.44-7.57,0-9s3.75-.67,4.37-.46c.14-.92,1-5.56,5.28-6,2-.21,3.75,1.13,5.18,3.87a20.53,20.53,0,0,1,1.52,4,2.52,2.52,0,0,1,2.72-1.18c1.14.35,2.35,1.87,2.35,5.09a16.32,16.32,0,0,1-.92,6.21,3.25,3.25,0,0,1,.64-.33,9.09,9.09,0,0,1,3.51-3.35,1.31,1.31,0,0,1,1.27.11c.83.57,1,2.13,1.08,2.86.58-.81,2.25-2.88,4.24-3.27a4.94,4.94,0,0,1,.59-.71,3.23,3.23,0,0,1,2.57-1c2.06.17,3.89,2.24,4.43,2.91a3.71,3.71,0,0,1,2.69-2.64c1.21-.22,3.13.23,5.39,3.63A23,23,0,0,1,125.86,98a4.39,4.39,0,0,1,.58.19c-.25-1.26-1.31-7-.09-8.34,1-1.12,3,.07,3.79.6-1.34-4.24-1.33-7,0-8.32s3.48-.64,4.07-.44c.13-.88,1-5.18,4.93-5.6,1.81-.19,3.49,1.06,4.83,3.61a20.35,20.35,0,0,1,1.41,3.66,2.36,2.36,0,0,1,2.53-1.08c1.06.33,2.2,1.74,2.19,4.74a15.15,15.15,0,0,1-.84,5.77,2.91,2.91,0,0,1,.58-.3,8.57,8.57,0,0,1,3.26-3.12,1.28,1.28,0,0,1,1.2.1c.76.54.95,2,1,2.66.7-1,3-3.82,5.51-2.92s1.89,5.83,1.63,7.32a2,2,0,0,1,2-.22C165,96.53,166.23,97.5,165.23,100.85Z"/></svg>