<svg id="圖層_1" data-name="圖層 1" xmlns="http://www.w3.org/2000/svg" viewBox="0 0 183.2 203.46"><defs><style>.cls-1{fill:#fff;}</style></defs><title>0</title><path class="cls-1" d="M180.42,33.11c-4.86-8-10.74-10.23-14.81-10.72a16.69,16.69,0,0,0-2-.12,17.84,17.84,0,0,0-12.29,5c-2.25,2.22-4.95,2.53-7.53,2.53-1,0-2.05-.05-3.14-.11s-2.4-.13-3.64-.13a21.75,21.75,0,0,0-7,1c-10,3.36-13.79,12.07-15.14,17-.87,3.15-1.63,4.84-2.89,6.18a18.46,18.46,0,0,0-5.29-5.7c-6.3-4.5-8.65-6.18-8-13.2a35.27,35.27,0,0,0-.52-10,21.71,21.71,0,0,0-4.53-10,13.27,13.27,0,0,0-9.87-4.63c-10.33-.4-17.43-2.48-22.37-6.57A16.29,16.29,0,0,0,51.18,0a13.89,13.89,0,0,0-9.59,3.72c-5.34,4.9-4.4,10.87-1.16,18.91A15.43,15.43,0,0,1,41.83,28c-3.87-.39-6.39-1.69-10.3-5.17-5-4.41-10.93-8.93-17.53-8.93a15.81,15.81,0,0,0-8.56,2.66c-4.09,2.61-9.59,9.73-.56,28.12C8,51,8.16,57.39,8.35,63.59c.23,7.45.45,14.49,5.89,19.87,3.87,3.82,4,8.1,4.11,12.63.16,5.59.31,11.37,7.62,15.7a21.37,21.37,0,0,0,11,3.11c5.79,0,10.84-2.33,14.9-4.21.67-.3,1.32-.61,2-.88a6.91,6.91,0,0,1,.29,2.49c-.18,4.31,0,6.72,1.17,8a2.63,2.63,0,0,0,1.94.81h0a2.88,2.88,0,0,0,2.31-1.29c1.54-2.1,1.67-6.31.4-11.69,1.25-.13,2.5-.17,3.64-.21,3.68-.12,7.85-.26,12.07-3a19.12,19.12,0,0,0,4.25-3.73,12.53,12.53,0,0,0,2,.16c4,0,7.5-1.84,10-3.26a2.63,2.63,0,0,1,.25.73c.11.49.18,1,.26,1.64.34,2.53.8,6,3.87,7.41a4.87,4.87,0,0,0,2.06.48,3.65,3.65,0,0,0,3-1.43c.83-1.14,1.12-3.2-.79-5.28a7.05,7.05,0,0,1-1.19-3.11c-.13-.58-.28-1.22-.49-1.87a14.33,14.33,0,0,0,9.69-3.1l.3-.26a52.73,52.73,0,0,0,7,1.26,10.6,10.6,0,0,1-1.43,3.33l-.45.66c-1.46,2.13-3.91,5.69-1.33,7.75a2.47,2.47,0,0,0,1.56.55,3,3,0,0,0,.93-.16c2.44-.83,5.12-5.14,6.88-10.91a31.43,31.43,0,0,1,5.5,3c3.22,2.09,6.87,4.45,12,4.45A14.49,14.49,0,0,0,150,98.15a22.47,22.47,0,0,0,5.63-16.44c-.72-7.69,2.16-9.45,9.13-13.72l1.41-.87C175,61.69,189.26,47.59,180.42,33.11Zm-15,32.8-1.4.87c-7.06,4.33-10.6,6.5-9.8,15.07A20.92,20.92,0,0,1,149,97.19a13,13,0,0,1-9.53,4.68c-4.68,0-8-2.14-11.2-4.22A26.89,26.89,0,0,0,121,94c-1.75,6.57-4.54,10.75-6.37,11.38a1.72,1.72,0,0,1-.48.08,1.12,1.12,0,0,1-.68-.23c-1.55-1.24.28-3.91,1.62-5.85l.46-.67a12.54,12.54,0,0,0,1.91-5.34,55.52,55.52,0,0,1-9.09-1.63c-.25.26-.51.51-.8.76-3.23,2.68-6.57,2.77-9.54,2.77H96.56a9.88,9.88,0,0,1,1.35,3.6,8.07,8.07,0,0,0,1.52,3.75c1.33,1.44,1.23,2.75.69,3.49a2.22,2.22,0,0,1-1.81.84,3.34,3.34,0,0,1-1.46-.35c-2.37-1.09-2.76-4-3.07-6.3-.08-.63-.16-1.22-.27-1.75a4.5,4.5,0,0,0-1.26-2.29l-.65.37C89.32,98,85.87,100,81.91,100a11.47,11.47,0,0,1-2.56-.31,17.83,17.83,0,0,1-4.45,4.1c-3.9,2.5-7.69,2.63-11.36,2.75a38.09,38.09,0,0,0-5.36.44c1.82,6.58,1.34,10.51.23,12a1.54,1.54,0,0,1-1.18.71h0a1.27,1.27,0,0,1-.93-.38c-.84-.87-.92-3.2-.76-6.93a7.21,7.21,0,0,0-1-4.38c-1,.41-2.1.9-3.23,1.43-4,1.82-8.84,4.07-14.31,4.07a19.75,19.75,0,0,1-10.27-2.91c-6.63-3.93-6.77-9.07-6.92-14.52-.13-4.61-.26-9.38-4.53-13.6-5.05-5-5.25-11.74-5.47-18.91-.19-6.34-.4-12.9-3.62-19.46-8.54-17.4-3.63-23.95,0-26.31,9-5.71,17-.42,24.39,6.14,4.5,4,7.37,5.39,12.6,5.62.22-2.16-.08-4-1.45-7.43-3.09-7.67-4-13,.8-17.34,5.53-5.07,13.37-3.79,18,0,5.19,4.29,12.56,6.48,23.21,6.88a11.93,11.93,0,0,1,8.86,4.15,20.25,20.25,0,0,1,4.21,9.34,33.5,33.5,0,0,1,.5,9.56c-.76,7.83,2.16,9.91,8.56,14.49A16.8,16.8,0,0,1,111.52,56c2.44-1.83,3.5-3.8,4.67-8,1.29-4.62,4.84-12.85,14.23-16,3.49-1.17,6.87-1,10.15-.83,4.34.23,8.44.44,11.74-2.83a16.28,16.28,0,0,1,13.12-4.48c3.77.46,9.21,2.58,13.78,10.06C187.47,47.38,173.82,60.74,165.45,65.91Z"/><path class="cls-1" d="M120,145.78a26.4,26.4,0,0,0-3.39-5.88c.72,3.09,1.62,6.18,2.49,9.16.69,2.37,1.38,4.76,2,7.2a7.57,7.57,0,0,1,1.27-1.32A36.51,36.51,0,0,0,120,145.78Z"/><path class="cls-1" d="M84.81,165a4.48,4.48,0,0,0-1-.58,63.42,63.42,0,0,1,3.32,5.92c.19-1.45.46-2.89.79-4.33l-.3,0A4.52,4.52,0,0,1,84.81,165Z"/><path class="cls-1" d="M174.52,180.27c-.4-1.61-.92-3.64-1.6-5.91H173l.23,0a1.43,1.43,0,0,0,.92-.57l.15-.21a1.42,1.42,0,0,0-.33-2,8.08,8.08,0,0,0-2.31-1.16c-4.31-12-11.22-20.8-20.54-26.06A65.4,65.4,0,0,0,135.79,138c0-.07,0-.13.06-.21l.05-.24a1.4,1.4,0,0,0-1.07-1.69,4.81,4.81,0,0,0-1.07-.12,4.64,4.64,0,0,0-2.88,1,28,28,0,0,1-6.81-2.48,18.66,18.66,0,0,1-3.92-2.92c-2-1.88-3.62-3.56-5.09-5l-.65-.66-.1-1.17c-.35-4.26-.54-6.61-2.67-7.38a4.38,4.38,0,0,0-1.43-.26,3.32,3.32,0,0,0-1.49.34,5.43,5.43,0,0,0-2.37,2.64,3,3,0,0,0-1.7.53,3.25,3.25,0,0,0-1.46,2.58A6.18,6.18,0,0,0,104,126l0,.07a122.92,122.92,0,0,1-5.09,13.17,93,93,0,0,1-5.32,9.88c-.45.73-.9,1.5-1.4,2.4-.24.1-.48.22-.71.34a2.85,2.85,0,0,1-1.37.37,2.46,2.46,0,0,1-1.17-.29,1.4,1.4,0,0,0-.78-.24,1.42,1.42,0,0,0-1.17.61l-.14.2a1.41,1.41,0,0,0,.31,1.94,5.3,5.3,0,0,0,2.95.86h.11a53.85,53.85,0,0,0-3.32,8.95,3.23,3.23,0,0,1-1-.56,6.28,6.28,0,0,0-1.34-.76,86.91,86.91,0,0,0-6.35-8.52,93.63,93.63,0,0,1-6.22-8,62.22,62.22,0,0,1-3.43-6.52c-3.79-7.79-6.08-12.2-8.86-12.2a2.51,2.51,0,0,0-.55.06c-2.85.65-2.48,3.78-2.09,7.09a38.1,38.1,0,0,1,.27,8.61,27.69,27.69,0,0,1-.92,4.65c-.4,1.4-1,3.09-1.78,5.06-.27.7-.54,1.42-.82,2.17-.28.17-.58.35-.9.56a7.47,7.47,0,0,1-3.73,1.5,1.12,1.12,0,0,1-.3,0,1.46,1.46,0,0,0-.64-.15,1.39,1.39,0,0,0-1.18.64l-.14.2a1.42,1.42,0,0,0,.4,2,3.34,3.34,0,0,0,1.86.47,7.87,7.87,0,0,0,3.09-.74c-1.9,5.89-3.35,12.56-2.49,19.62a13.58,13.58,0,0,1-3.32,1,1.42,1.42,0,0,0-1.24,1.58l0,.24a1.42,1.42,0,0,0,.54.95,1.39,1.39,0,0,0,.87.3h.18a16,16,0,0,0,3.48-1,32.55,32.55,0,0,0,3.14,8.44c.39.72.81,1.43,1.26,2.12a12.81,12.81,0,0,1-3.93,2,1.47,1.47,0,0,0-.87.65,1.41,1.41,0,0,0-.15,1.08l.06.24a1.42,1.42,0,0,0,.66.87,1.38,1.38,0,0,0,.71.19,1.47,1.47,0,0,0,.36,0,15.72,15.72,0,0,0,5-2.51A18.5,18.5,0,0,0,70,202.67c.39,0,.76,0,1.13,0A21.22,21.22,0,0,0,79.35,201c4.66-2.08,8.07-4.83,10.19-8.22,3.15,3.43,8.28,5.49,14,5.52S116,196.07,119.77,190a2.06,2.06,0,0,0,.35.12l.25,0,.27,0a1.46,1.46,0,0,0,.81-.25A1.44,1.44,0,0,0,122,189a5,5,0,0,0-.46-2.9c.2-.6.36-1.16.5-1.72.37-1.62.67-3.22.89-4.84a1.53,1.53,0,0,0,.3,0h.25a1.42,1.42,0,0,0,1.42-1.42,6.48,6.48,0,0,0-1.54-3.86,57.51,57.51,0,0,0-1.28-13.62,1.45,1.45,0,0,0,.78-.66.16.16,0,0,1,0-.07,68.26,68.26,0,0,0,8.47,23.71,3.55,3.55,0,0,1-.72,1.76,2.53,2.53,0,0,1-.66.55h0a1.45,1.45,0,0,0-.88.67,1.41,1.41,0,0,0-.13,1.1l.07.24a1.42,1.42,0,0,0,1.36,1,1.32,1.32,0,0,0,.39-.06,4.82,4.82,0,0,0,2.18-1.5,4.7,4.7,0,0,0,.43-.57c5.91,8.56,13.43,14,21.91,15.84a32.21,32.21,0,0,0,6.68.79c4.34,0,7.73-1.23,10.06-3.64s3.42-5.59,3.59-9.79A35,35,0,0,0,174.52,180.27Zm-.25,9.71c-.15,3.84-1.23,6.82-3.19,8.85S166,202,162,202a30.8,30.8,0,0,1-6.38-.75c-10.13-2.19-17.5-9.36-22.57-17.62a5.29,5.29,0,0,1-1.14,2.8,3.49,3.49,0,0,1-1.5,1.07l-.07-.24a3.21,3.21,0,0,0,1.39-1,5.16,5.16,0,0,0,1.1-3,65.18,65.18,0,0,1-8.81-25.94q-.06-.76-.15-1.5c-1.59,1.06-2.45,2.75-2.25,3.43l-.24.07c-.25-.86.79-2.72,2.46-3.79a38,38,0,0,0-2.58-10.34,28.6,28.6,0,0,0-7.11-10.08c.07.39.14.78.21,1.19.23,1.19.47,2.32.73,3.48.74,3.24,1.69,6.49,2.6,9.63,2.29,7.88,4.64,16,4.24,25.33a5.12,5.12,0,0,1,1.55,3.33h-.25a4.87,4.87,0,0,0-1.32-3A50.24,50.24,0,0,1,120.7,184a20.2,20.2,0,0,1-.68,2.2,3.52,3.52,0,0,1,.62,2.5l-.25,0a3.1,3.1,0,0,0-.48-2.19c-3,7.61-10.16,10.41-16.38,10.41h-.07c-6.25,0-11.57-2.66-14.14-6.7-1.78,4-5.31,7.19-10.54,9.52a19.43,19.43,0,0,1-7.64,1.56l-1,0c-6.32-.37-10.61-4-13.42-7.79a14.22,14.22,0,0,1-5.56,3.18l-.06-.24a14.29,14.29,0,0,0,5.47-3.14,28,28,0,0,1-1.9-3.05,30.75,30.75,0,0,1-3.34-9.79A15.79,15.79,0,0,1,46.58,182l0-.25a15.69,15.69,0,0,0,4.7-1.59c-1.35-8.73,1.13-17,3.5-23.52-.31.18-.65.38-1,.62a9,9,0,0,1-4.63,1.77,2.06,2.06,0,0,1-1.08-.23l.07-.1.07-.11s1.57.95,5.44-1.54c.47-.3.9-.56,1.29-.77.33-.92.67-1.81,1-2.65.76-2,1.41-3.72,1.82-5.17a28.38,28.38,0,0,0,1-4.89,39,39,0,0,0-.28-8.93c-.36-3.11-.6-5.17,1-5.54l.23,0c2,0,4.85,5.8,7.59,11.41a65.13,65.13,0,0,0,3.53,6.7h0a99.88,99.88,0,0,0,6.3,8.12,84.31,84.31,0,0,1,6.51,8.77,4.6,4.6,0,0,1,1.41.72,4.08,4.08,0,0,0,3,.94A52.46,52.46,0,0,1,93,153a6.75,6.75,0,0,0-.73.34,4.47,4.47,0,0,1-2.16.57,4,4,0,0,1-2.1-.58l.15-.2a4,4,0,0,0,4,0,7,7,0,0,1,1-.46c.51-.93,1-1.86,1.62-2.79a92.83,92.83,0,0,0,5.39-10,124,124,0,0,0,5.15-13.32c.08-.23.15-.44.22-.66a5.39,5.39,0,0,1-.91-2.84,1.86,1.86,0,0,1,.83-1.48,1.81,1.81,0,0,1,1.73-.15c.66-1.51,1.33-2.53,2.16-2.93a2.27,2.27,0,0,1,1.83,0c1.27.46,1.43,2.36,1.74,6.16,0,.52.09,1.09.14,1.68.33.33.66.67,1,1,1.47,1.49,3.14,3.18,5.11,5.06a20,20,0,0,0,4.21,3.14,32.07,32.07,0,0,0,7.89,2.8,3.34,3.34,0,0,1,3.25-1.05l-.05.24a3.12,3.12,0,0,0-2.92.88l.5.13a66.81,66.81,0,0,1,18.35,7.1c11.59,6.55,17.15,17.34,20.15,26a6.14,6.14,0,0,1,2.57,1.11l-.14.2a6.13,6.13,0,0,0-2.33-1c1.14,3.36,1.91,6.39,2.5,8.72l0,.09A33.71,33.71,0,0,1,174.27,190ZM121.1,156.26c-.63-2.44-1.32-4.83-2-7.2-.87-3-1.77-6.07-2.49-9.16a26.4,26.4,0,0,1,3.39,5.88,36.51,36.51,0,0,1,2.38,9.16A7.57,7.57,0,0,0,121.1,156.26Z"/></svg>