<svg id="圖層_1" data-name="圖層 1" xmlns="http://www.w3.org/2000/svg" viewBox="0 0 183.2 203.46"><defs><style>.cls-1{fill:#fff;}</style></defs><title>0</title><path class="cls-1" d="M6.2,17.77c8.94-5.71,17-.42,24.39,6.14,4.5,4,7.37,5.39,12.59,5.62.23-2.16-.07-4-1.44-7.43-3.09-7.67-4-13,.8-17.34,5.53-5.08,13.37-3.79,18,0,5.18,4.3,12.56,6.49,23.21,6.89a11.93,11.93,0,0,1,8.86,4.15,20.25,20.25,0,0,1,4.21,9.34,33.84,33.84,0,0,1,.5,9.56c-.77,7.83,2.16,9.91,8.56,14.49A16.8,16.8,0,0,1,111.52,56c2.44-1.83,3.5-3.8,4.67-8,1.29-4.62,4.84-12.85,14.23-16,3.49-1.17,6.87-1,10.15-.83,4.34.23,8.44.44,11.74-2.83a16.3,16.3,0,0,1,13.12-4.48c3.77.46,9.21,2.58,13.78,10.05,8.26,13.54-5.39,26.9-13.76,32.07l-1.4.87c-7.06,4.32-10.6,6.5-9.8,15.07A20.92,20.92,0,0,1,149,97.19a13,13,0,0,1-9.53,4.68c-4.68,0-8-2.14-11.2-4.22A27.2,27.2,0,0,0,121,94c-1.75,6.58-4.54,10.76-6.37,11.39a1.72,1.72,0,0,1-.48.08,1.12,1.12,0,0,1-.68-.23c-1.55-1.25.28-3.91,1.62-5.85l.46-.68a12.46,12.46,0,0,0,1.91-5.33,55.52,55.52,0,0,1-9.09-1.63c-.25.26-.51.51-.8.76-3.23,2.68-6.57,2.77-9.54,2.77H96.56a10,10,0,0,1,1.35,3.61,8.11,8.11,0,0,0,1.52,3.75c1.33,1.44,1.23,2.75.69,3.48a2.2,2.2,0,0,1-1.82.85,3.33,3.33,0,0,1-1.45-.35c-2.37-1.09-2.76-4-3.07-6.3-.08-.63-.16-1.22-.27-1.75a4.39,4.39,0,0,0-1.27-2.29l-.64.37C89.32,98,85.87,100,81.91,100a11.47,11.47,0,0,1-2.56-.31,17.83,17.83,0,0,1-4.45,4.1c-3.9,2.5-7.69,2.63-11.36,2.75a38,38,0,0,0-5.36.44c1.81,6.58,1.34,10.51.22,12a1.51,1.51,0,0,1-1.17.71h0a1.27,1.27,0,0,1-.93-.38c-.84-.87-.92-3.2-.76-6.93a7.21,7.21,0,0,0-1-4.38c-1,.41-2.1.9-3.23,1.43l-1,.44c-.11.57-.22,1.14-.34,1.71l1.9-.87c.67-.3,1.32-.61,2-.88a6.91,6.91,0,0,1,.29,2.49c-.18,4.31,0,6.72,1.16,8a2.66,2.66,0,0,0,1.95.81h0a2.92,2.92,0,0,0,2.31-1.3c1.54-2.09,1.67-6.3.4-11.68,1.25-.13,2.5-.17,3.64-.21,3.68-.12,7.85-.26,12.07-3a19.12,19.12,0,0,0,4.25-3.73,12.53,12.53,0,0,0,2,.16c4.06,0,7.51-1.85,10-3.26a2.63,2.63,0,0,1,.25.73c.11.49.18,1,.26,1.64.34,2.53.8,6,3.87,7.41a4.87,4.87,0,0,0,2,.48,3.65,3.65,0,0,0,3-1.43c.83-1.14,1.12-3.2-.79-5.28a7.05,7.05,0,0,1-1.19-3.11c-.14-.58-.28-1.22-.49-1.88a14.26,14.26,0,0,0,9.69-3.09l.3-.26a54.39,54.39,0,0,0,7,1.26,10.6,10.6,0,0,1-1.43,3.33c-.14.2-.29.43-.46.66-1.46,2.13-3.9,5.69-1.32,7.75a2.47,2.47,0,0,0,1.56.55,3,3,0,0,0,.93-.16c2.43-.83,5.12-5.13,6.88-10.91a30.79,30.79,0,0,1,5.5,3c3.22,2.09,6.87,4.45,12,4.45A14.46,14.46,0,0,0,150,98.15a22.42,22.42,0,0,0,5.63-16.44c-.72-7.69,2.16-9.45,9.13-13.72l1.41-.87c8.78-5.43,23.06-19.53,14.22-34-4.86-8-10.74-10.23-14.82-10.72a16.32,16.32,0,0,0-2-.12,17.87,17.87,0,0,0-12.31,5c-2.25,2.22-4.95,2.53-7.53,2.53-1,0-2-.05-3.14-.11s-2.4-.13-3.65-.13a21.72,21.72,0,0,0-7,1c-10,3.35-13.79,12.07-15.14,17-.87,3.15-1.63,4.84-2.89,6.18a18.46,18.46,0,0,0-5.29-5.7c-6.3-4.5-8.66-6.18-8-13.2a35.25,35.25,0,0,0-.52-10,21.71,21.71,0,0,0-4.53-10,13.27,13.27,0,0,0-9.87-4.63c-10.33-.4-17.44-2.48-22.37-6.57A16.23,16.23,0,0,0,51.18,0a13.93,13.93,0,0,0-9.59,3.72c-5.34,4.9-4.4,10.87-1.16,18.91A15.5,15.5,0,0,1,41.84,28c-3.88-.39-6.4-1.69-10.31-5.17-5-4.42-10.93-8.93-17.53-8.93a15.81,15.81,0,0,0-8.56,2.66c-4.09,2.61-9.59,9.73-.56,28.12a29.42,29.42,0,0,1,2.35,6.87c.39-.44.76-.9,1.15-1.33a29.91,29.91,0,0,0-2.23-6.16C-2.39,26.67,2.52,20.13,6.2,17.77Z"/><path class="cls-1" d="M16.65,86.71c1.52,2.94,1.61,6.09,1.7,9.38,0,.17,0,.35,0,.52l1.37-1.47c-.1-3.22-.34-6.5-2.11-9.6C17.31,86,17,86.34,16.65,86.71Z"/><path class="cls-1" d="M171.08,198.83Q168,202,162,202a30.89,30.89,0,0,1-6.39-.75c-10.12-2.19-17.49-9.36-22.56-17.62a5.29,5.29,0,0,1-1.14,2.8,3.49,3.49,0,0,1-1.5,1.07l-.07-.24a3.32,3.32,0,0,0,1.39-1,5.23,5.23,0,0,0,1.1-3,65.18,65.18,0,0,1-8.81-25.94c0-.51-.09-1-.15-1.51-1.59,1.07-2.45,2.76-2.25,3.44l-.24.07c-.26-.86.79-2.72,2.46-3.79a38,38,0,0,0-2.58-10.34,28.73,28.73,0,0,0-7.11-10.08c.07.39.14.78.21,1.19.23,1.18.47,2.32.73,3.47h0c.74,3.24,1.69,6.49,2.6,9.63,2.29,7.88,4.64,16,4.24,25.33a5.18,5.18,0,0,1,1.55,3.33h-.25a4.87,4.87,0,0,0-1.32-3,49.38,49.38,0,0,1-1.26,8.89,18.2,18.2,0,0,1-.67,2.2,3.54,3.54,0,0,1,.62,2.51l-.25-.05a3.1,3.1,0,0,0-.48-2.19c-3,7.61-10.16,10.41-16.38,10.41h-.07c-6.25,0-11.57-2.66-14.14-6.7-1.78,4-5.31,7.19-10.54,9.52a19.49,19.49,0,0,1-7.64,1.56l-1,0c-6.32-.37-10.61-4-13.42-7.79a14.38,14.38,0,0,1-5.56,3.18l-.06-.25a14,14,0,0,0,5.47-3.13,28,28,0,0,1-1.9-3.05,30.75,30.75,0,0,1-3.34-9.79A15.79,15.79,0,0,1,46.58,182l0-.25a15.69,15.69,0,0,0,4.7-1.59c-1.35-8.73,1.13-17,3.5-23.52-.31.18-.65.38-1,.62a9,9,0,0,1-4.63,1.77,2.06,2.06,0,0,1-1.08-.23l.14-.21s1.56.95,5.44-1.54q.7-.45,1.29-.78c.33-.91.67-1.8,1-2.64.76-2,1.41-3.72,1.82-5.17a28.76,28.76,0,0,0,1-4.89,39,39,0,0,0-.28-8.93c-.36-3.11-.6-5.17,1-5.54l.23,0c2,0,4.85,5.79,7.58,11.41a64.86,64.86,0,0,0,3.54,6.7,98.84,98.84,0,0,0,6.3,8.12,84.31,84.31,0,0,1,6.51,8.77,4.6,4.6,0,0,1,1.41.72,4.13,4.13,0,0,0,3,.94A52.83,52.83,0,0,1,93,153a7.65,7.65,0,0,0-.72.34,4.59,4.59,0,0,1-2.16.57,4,4,0,0,1-2.1-.58l.14-.2a4,4,0,0,0,4,0,8.34,8.34,0,0,1,1-.47c.51-.92,1-1.85,1.62-2.78a94.61,94.61,0,0,0,5.39-10,124,124,0,0,0,5.15-13.32c.08-.23.15-.44.22-.66a5.39,5.39,0,0,1-.91-2.84,1.86,1.86,0,0,1,.83-1.48,1.81,1.81,0,0,1,1.73-.15c.66-1.51,1.33-2.53,2.16-2.93a2.27,2.27,0,0,1,1.83,0c1.27.46,1.43,2.36,1.74,6.16,0,.52.09,1.09.14,1.68.33.33.66.67,1,1,1.47,1.49,3.14,3.18,5.11,5.06a20,20,0,0,0,4.21,3.14,32.07,32.07,0,0,0,7.89,2.8,3.34,3.34,0,0,1,3.25-1.05l-.05.24a3.12,3.12,0,0,0-2.92.88l.5.13a66.81,66.81,0,0,1,18.35,7.1c9.58,5.42,15,13.73,18.34,21.36,0-1.15-.05-2.29-.05-3.43-4.27-8.53-10.16-15-17.59-19.16A65.23,65.23,0,0,0,135.79,138c0-.07,0-.13.06-.21l.05-.24a1.39,1.39,0,0,0-.18-1.07,1.43,1.43,0,0,0-.9-.62,4.7,4.7,0,0,0-3.94.87,28,28,0,0,1-6.81-2.48,18.49,18.49,0,0,1-3.92-2.92c-2-1.87-3.61-3.54-5.09-5l-.65-.66-.1-1.17c-.35-4.26-.54-6.61-2.67-7.38a4.15,4.15,0,0,0-1.43-.27,3.33,3.33,0,0,0-1.49.35,5.4,5.4,0,0,0-2.37,2.63,3.08,3.08,0,0,0-1.7.54,3.24,3.24,0,0,0-1.46,2.57A6.13,6.13,0,0,0,104,126l0,.08a122.92,122.92,0,0,1-5.09,13.17,93,93,0,0,1-5.32,9.88c-.45.73-.91,1.51-1.4,2.4a6.59,6.59,0,0,0-.71.34,2.85,2.85,0,0,1-1.37.37,2.46,2.46,0,0,1-1.17-.29h0a1.4,1.4,0,0,0-.78-.24,1.42,1.42,0,0,0-1.17.61l-.14.2a1.41,1.41,0,0,0,.31,1.94,5.26,5.26,0,0,0,2.95.86h.11a53.85,53.85,0,0,0-3.32,8.95,3.43,3.43,0,0,1-1-.56,6.28,6.28,0,0,0-1.34-.76,87.31,87.31,0,0,0-6.35-8.52,94.74,94.74,0,0,1-6.22-8,63.12,63.12,0,0,1-3.43-6.52c-3.79-7.79-6.08-12.2-8.86-12.2a2.64,2.64,0,0,0-.55.06c-2.85.65-2.48,3.77-2.09,7.09a38.1,38.1,0,0,1,.27,8.61,27.69,27.69,0,0,1-.92,4.65c-.4,1.4-1,3.1-1.78,5.06-.27.7-.54,1.42-.82,2.17-.28.17-.58.35-.9.56a7.5,7.5,0,0,1-3.73,1.5,1.12,1.12,0,0,1-.3,0,1.46,1.46,0,0,0-.64-.15,1.41,1.41,0,0,0-1.18.63l-.14.21a1.42,1.42,0,0,0,.4,2,3.34,3.34,0,0,0,1.86.47,7.87,7.87,0,0,0,3.09-.74c-1.9,5.89-3.35,12.56-2.49,19.62a13.72,13.72,0,0,1-3.3,1,1.41,1.41,0,0,0-1,.53,1.44,1.44,0,0,0-.3,1l0,.25a1.42,1.42,0,0,0,1.41,1.25h.16a15.32,15.32,0,0,0,3.5-1,32.19,32.19,0,0,0,3.14,8.44c.39.72.82,1.43,1.26,2.12a13,13,0,0,1-4,2,1.42,1.42,0,0,0-1,1.72l.06.24a1.42,1.42,0,0,0,1.37,1.06,1.39,1.39,0,0,0,.35,0,16.14,16.14,0,0,0,5-2.52A18.48,18.48,0,0,0,70,202.67c.38,0,.76,0,1.13,0A21,21,0,0,0,79.35,201c4.66-2.08,8.07-4.83,10.19-8.22,3.15,3.43,8.28,5.49,14,5.51S116,196.07,119.77,190a2.06,2.06,0,0,0,.35.12l.25,0,.27,0a1.46,1.46,0,0,0,.81-.25A1.44,1.44,0,0,0,122,189a5,5,0,0,0-.46-2.9c.2-.61.36-1.16.49-1.72.38-1.62.68-3.22.9-4.84a1.53,1.53,0,0,0,.3,0h.25a1.42,1.42,0,0,0,1.42-1.42,6.48,6.48,0,0,0-1.54-3.86,57.51,57.51,0,0,0-1.28-13.62,1.42,1.42,0,0,0,.78-.67l0-.06a68.26,68.26,0,0,0,8.47,23.71,3.55,3.55,0,0,1-.72,1.76,2.34,2.34,0,0,1-.66.54h0a1.45,1.45,0,0,0-.88.67,1.41,1.41,0,0,0-.13,1.1l.07.24a1.42,1.42,0,0,0,1.36,1,1.19,1.19,0,0,0,.37-.06,4.76,4.76,0,0,0,2.21-1.5,6.05,6.05,0,0,0,.42-.57c5.91,8.56,13.43,14,21.91,15.84a32.21,32.21,0,0,0,6.68.79c4.34,0,7.72-1.23,10.06-3.64a11.05,11.05,0,0,0,1.23-1.57c-.17-.65-.34-1.3-.5-1.95A9.74,9.74,0,0,1,171.08,198.83Zm-52-49.77c-.87-3-1.76-6.06-2.48-9.15a26.47,26.47,0,0,1,3.38,5.87,36.31,36.31,0,0,1,2.38,9.15,8,8,0,0,0-1.27,1.33C120.47,153.82,119.78,151.43,119.09,149.06Z"/><path class="cls-1" d="M84.81,165a4.54,4.54,0,0,0-1-.58,59.17,59.17,0,0,1,3.32,5.92c.2-1.45.46-2.89.8-4.33l-.3,0A4.58,4.58,0,0,1,84.81,165Z"/></svg>