<svg xmlns="http://www.w3.org/2000/svg" viewBox="0 0 137.99 103.93"><defs><style>.cls-1{fill:#ffeed6;}.cls-2{fill:#cbd13a;}.cls-3{fill:#4b8e32;}</style></defs><title>broccoli</title><g id="圖層_2" data-name="圖層 2"><g id="_12" data-name="12"><path class="cls-1" d="M27,45.76,20.77,49.1l-6-3.7-2.6,3.44s5.43,4.58,5.13,14.95l3.08.09,3.09.09c.3-10.37,6-14.62,6-14.62Z"/><path d="M23.49,64.05h-.07l-6.25-.19v-.07c.3-10.21-5-14.84-5.09-14.89l-.06,0,2.69-3.54,0,0,6,3.67L27,45.67l0,0,2.43,3.65-.06,0c-.05,0-5.66,4.35-5.95,14.57Zm-6.16-.33,6,.18c.31-9.69,5.37-14.09,6-14.57L27,45.86l-6.23,3.32,0,0-6-3.66-2.51,3.33C12.79,49.35,17.58,54,17.33,63.72Z"/><rect x="18.28" y="52.03" width="4.58" height="0.15" transform="translate(-31.93 71.66) rotate(-88.88)"/><path class="cls-2" d="M36,37.2a7.45,7.45,0,0,0,.3-1.84A7.15,7.15,0,0,0,28.18,28a7.24,7.24,0,0,0-14.06-.43,7.53,7.53,0,0,0-.83-.08,7.25,7.25,0,0,0-7.45,7A7.17,7.17,0,0,0,6,36.23a7.24,7.24,0,1,0,8.54,10.94,7.25,7.25,0,0,0,12.05.36A7.24,7.24,0,1,0,36,37.2Z"/><path d="M32.74,51h-.22a7.34,7.34,0,0,1-5.93-3.34,7.3,7.3,0,0,1-12-.36,7.35,7.35,0,0,1-7.18,2.88,7.31,7.31,0,0,1-1.45-14,7.73,7.73,0,0,1-.16-1.71,7.34,7.34,0,0,1,7.32-7.11h.22a7.41,7.41,0,0,1,.77.06,7.29,7.29,0,0,1,7-5.3h.22a7.29,7.29,0,0,1,6.93,5.74,7,7,0,0,1,1-.05,7.31,7.31,0,0,1,7.1,7.53,7.16,7.16,0,0,1-.28,1.8A7.31,7.31,0,0,1,32.74,51ZM26.6,47.39l.06.1a7.18,7.18,0,0,0,5.87,3.36h.21a7.17,7.17,0,0,0,3.19-13.59l-.06,0,0-.06a6.83,6.83,0,0,0,.29-1.81A7.17,7.17,0,0,0,29.23,28a7.75,7.75,0,0,0-1,.05h-.07V28a7.15,7.15,0,0,0-6.8-5.68h-.22a7.15,7.15,0,0,0-6.9,5.26v.06h-.07a6.19,6.19,0,0,0-.82-.07h-.21a7.19,7.19,0,0,0-7.17,7,7.41,7.41,0,0,0,.17,1.73v.06l0,0a7.17,7.17,0,1,0,8.45,10.82l.06-.09.06.1a7.15,7.15,0,0,0,5.87,3.36h.21a7.19,7.19,0,0,0,5.85-3Z"/><path class="cls-3" d="M.19,56.7a5.44,5.44,0,0,1,8.73-3.23c2.78,2.54,2.86,6.61,9.8,7.41,4.4.51,2.85,6.07-5.33,6C3.14,66.69-.67,60.53.19,56.7Z"/><path d="M13.64,66.91h-.25c-7.06-.1-10.37-3-11.72-4.7A6.8,6.8,0,0,1,.12,56.69a5.44,5.44,0,0,1,3.72-4.22,5.4,5.4,0,0,1,5.13,1,13,13,0,0,1,2,2.5c1.42,2.13,2.88,4.33,7.77,4.89,1.57.18,2.54,1,2.47,2.23C21.08,64.94,18.39,66.91,13.64,66.91ZM.27,56.72a6.6,6.6,0,0,0,1.52,5.4c1.33,1.69,4.61,4.54,11.61,4.64h.25c5.21,0,7.3-2.27,7.4-3.73.07-1.11-.83-1.9-2.34-2.07-5-.57-6.44-2.8-7.87-5a12.79,12.79,0,0,0-2-2.48,5.24,5.24,0,0,0-5-.91,5.28,5.28,0,0,0-3.62,4.1Z"/><path class="cls-3" d="M40.75,57.51a5.44,5.44,0,0,0-8.6-3.57c-2.87,2.42-3.11,6.49-10.08,7-4.42.33-3.09,6,5.08,6.16C37.41,67.38,41.46,61.37,40.75,57.51Z"/><path d="M27.81,67.2h-.66c-4.9-.13-7.6-2.25-7.64-4.18,0-1.18,1-2,2.55-2.14,4.9-.36,6.46-2.5,8-4.57a12.83,12.83,0,0,1,2.09-2.42,5.5,5.5,0,0,1,8.71,3.62h0A6.82,6.82,0,0,1,39.05,63C37.68,64.56,34.42,67.2,27.81,67.2ZM35.31,53a4.86,4.86,0,0,0-3.11,1,12.75,12.75,0,0,0-2.06,2.4c-1.52,2.1-3.1,4.26-8.07,4.63-1.51.12-2.44.88-2.41,2,0,1.49,2.1,3.9,7.49,4h.66c6.55,0,9.77-2.61,11.13-4.19a6.61,6.61,0,0,0,1.73-5.33,5.27,5.27,0,0,0-3.45-4.25A5.73,5.73,0,0,0,35.31,53Z"/><path class="cls-1" d="M75.56,34.7,69.31,38l-6-3.69-2.6,3.43s5.43,4.58,5.12,14.95l3.09.09L72,52.9c.3-10.37,6-14.62,6-14.62Z"/><path d="M72,53H72l-6.24-.18v-.08c.3-10.21-5-14.84-5.1-14.89l0,0,2.68-3.55.06,0,6,3.67,6.26-3.34,0,0,2.44,3.65-.06,0c-.06,0-5.66,4.35-6,14.57Zm-6.17-.33,6,.18c.31-9.69,5.37-14.09,6-14.57l-2.31-3.47-6.23,3.32,0,0-6-3.65-2.52,3.32C61.33,38.28,66.13,43,65.87,52.65Z"/><rect x="66.82" y="40.96" width="4.58" height="0.15" transform="translate(26.74 109.34) rotate(-88.88)"/><path class="cls-2" d="M84.51,26.13a7.45,7.45,0,0,0,.3-1.84,7.25,7.25,0,0,0-7-7.45,7.18,7.18,0,0,0-1,.05,7.24,7.24,0,0,0-14.06-.43,7.53,7.53,0,0,0-.83-.08,7.26,7.26,0,0,0-7.46,7,7.85,7.85,0,0,0,.17,1.76A7.24,7.24,0,1,0,63.1,36.1a7.24,7.24,0,0,0,12,.36,7.25,7.25,0,1,0,9.37-10.33Z"/><path d="M81.29,39.93h-.22a7.32,7.32,0,0,1-5.93-3.34,7.33,7.33,0,0,1-5.9,3H69a7.3,7.3,0,0,1-5.93-3.35,7.32,7.32,0,0,1-11.9-.13,7.32,7.32,0,0,1,3.28-11,7.17,7.17,0,0,1-.16-1.71,7.32,7.32,0,0,1,7.31-7.1h.22a7.33,7.33,0,0,1,.77.07,7.32,7.32,0,0,1,14.18.43,7,7,0,0,1,1,0,7.33,7.33,0,0,1,7.1,7.53,7.57,7.57,0,0,1-.28,1.8,7.32,7.32,0,0,1-3.31,13.84Zm-6.14-3.61.06.1a7.16,7.16,0,0,0,5.86,3.36h.22a7.17,7.17,0,0,0,3.18-13.59l0,0V26.1a7.16,7.16,0,0,0-6.66-9.19,7.68,7.68,0,0,0-1,.05h-.07l0-.07a7.15,7.15,0,0,0-6.8-5.68h-.21a7.15,7.15,0,0,0-6.9,5.26l0,.06h-.06c-.3,0-.57-.06-.82-.07h-.22a7.18,7.18,0,0,0-7.16,7,6.91,6.91,0,0,0,.17,1.73v.06l-.06,0A7.17,7.17,0,0,0,55.94,39,7.21,7.21,0,0,0,63,36.06l.07-.1.06.1A7.16,7.16,0,0,0,69,39.43h.21a7.15,7.15,0,0,0,5.84-3Z"/><path class="cls-3" d="M48.74,45.64a5.44,5.44,0,0,1,8.73-3.24c2.78,2.54,2.85,6.61,9.79,7.41,4.41.51,2.86,6.07-5.32,6C51.68,55.62,47.87,49.46,48.74,45.64Z"/><path d="M62.18,55.85h-.24c-7.06-.1-10.38-3-11.73-4.7a6.75,6.75,0,0,1-1.54-5.52,5.51,5.51,0,0,1,8.85-3.27,13.41,13.41,0,0,1,2,2.5c1.41,2.13,2.88,4.33,7.76,4.89,1.58.18,2.55,1.06,2.47,2.23C69.62,53.87,66.93,55.85,62.18,55.85ZM48.81,45.65a6.67,6.67,0,0,0,1.52,5.4c1.33,1.69,4.61,4.54,11.61,4.64h.26c5.21,0,7.3-2.28,7.39-3.74.08-1.1-.82-1.9-2.33-2.07-5-.57-6.44-2.8-7.88-5a12.75,12.75,0,0,0-2-2.48,5.36,5.36,0,0,0-8.61,3.19Z"/><path class="cls-3" d="M89.29,46.44a5.43,5.43,0,0,0-8.59-3.57c-2.88,2.43-3.12,6.49-10.09,7-4.41.33-3.09,5.95,5.09,6.16C86,56.31,90,50.3,89.29,46.44Z"/><path d="M76.35,56.13H75.7c-4.91-.13-7.6-2.25-7.65-4.18,0-1.18,1-2,2.56-2.14,4.9-.36,6.45-2.5,8-4.57a13.2,13.2,0,0,1,2.09-2.42,5.51,5.51,0,0,1,8.72,3.62h0a6.82,6.82,0,0,1-1.77,5.46C86.23,53.49,83,56.13,76.35,56.13Zm7.5-14.25a4.81,4.81,0,0,0-3.1,1,13.53,13.53,0,0,0-2.07,2.4c-1.52,2.1-3.09,4.26-8.06,4.63-1.52.12-2.45.88-2.42,2,0,1.49,2.11,3.9,7.5,4h.65c6.56,0,9.78-2.6,11.14-4.19a6.68,6.68,0,0,0,1.73-5.33h0a5.31,5.31,0,0,0-3.46-4.25A5.73,5.73,0,0,0,83.85,41.88Z"/><path class="cls-1" d="M62.08,82.5l-6.24,3.33-6.05-3.69-2.6,3.44s5.43,4.57,5.13,15l3.08.09,3.09.09c.3-10.38,6-14.63,6-14.63Z"/><path d="M58.56,100.78h-.07l-6.25-.18v-.08c.3-10.21-5-14.84-5.09-14.89l-.06,0L49.78,82l0,0,6,3.66,6.27-3.34,0,.06,2.43,3.64-.06,0s-5.65,4.36-5.95,14.57Zm-6.16-.33,6,.18c.31-9.69,5.37-14.08,6-14.56L62.06,82.6l-6.23,3.32,0,0-6-3.65L47.3,85.57C47.86,86.08,52.65,90.77,52.4,100.45Z"/><rect x="53.35" y="88.77" width="4.58" height="0.15" transform="translate(-34.27 142.74) rotate(-88.88)"/><path class="cls-2" d="M71,73.93a7.37,7.37,0,0,0,.3-1.84,7.22,7.22,0,0,0-8.08-7.4,7.24,7.24,0,0,0-14.06-.43,7.53,7.53,0,0,0-.83-.07A7.22,7.22,0,0,0,41.08,73,7.24,7.24,0,1,0,49.62,83.9a7.25,7.25,0,0,0,12.05.36A7.24,7.24,0,1,0,71,73.93Z"/><path d="M67.81,87.73h-.22a7.31,7.31,0,0,1-5.93-3.34,7.29,7.29,0,0,1-5.89,3h-.22A7.32,7.32,0,0,1,49.62,84a7.39,7.39,0,0,1-7.18,2.88,7.32,7.32,0,0,1-1.45-14,7.7,7.7,0,0,1-.16-1.7,7.33,7.33,0,0,1,7.32-7.11h.22a7.58,7.58,0,0,1,.77.07,7.3,7.3,0,0,1,7-5.31h.22a7.29,7.29,0,0,1,6.93,5.73,9,9,0,0,1,1,0,7.34,7.34,0,0,1,7.11,7.54,7.51,7.51,0,0,1-.29,1.79,7.31,7.31,0,0,1,1.71,11.85A7.27,7.27,0,0,1,67.81,87.73Zm-6.14-3.6.06.09a7.15,7.15,0,0,0,5.87,3.36h.21a7.17,7.17,0,0,0,7.17-7A7.18,7.18,0,0,0,71,74l-.06,0,0-.06a6.84,6.84,0,0,0,.29-1.82,7.17,7.17,0,0,0-7-7.38,7.87,7.87,0,0,0-1,.06h-.07v-.07A7.14,7.14,0,0,0,56.38,59h-.22a7.17,7.17,0,0,0-6.9,5.26v.07h-.07a6.29,6.29,0,0,0-.82-.08h-.21a7.19,7.19,0,0,0-7.17,7A7.36,7.36,0,0,0,41.15,73l0,.07-.06,0a7.16,7.16,0,0,0,1.36,13.73,7.2,7.2,0,0,0,7.09-2.91l.06-.09.06.09a7.18,7.18,0,0,0,5.87,3.37h.22a7.17,7.17,0,0,0,5.84-3Z"/><path class="cls-3" d="M35.26,93.44A5.43,5.43,0,0,1,44,90.21c2.78,2.54,2.86,6.61,9.8,7.41,4.4.5,2.85,6.07-5.33,5.95C38.21,103.43,34.4,97.26,35.26,93.44Z"/><path d="M48.71,103.65h-.25c-7.06-.1-10.37-3-11.72-4.71a6.79,6.79,0,0,1-1.55-5.52h0A5.51,5.51,0,0,1,44,90.15a12.69,12.69,0,0,1,2,2.51c1.42,2.12,2.89,4.32,7.77,4.88,1.57.18,2.54,1.06,2.47,2.23C56.15,101.67,53.46,103.65,48.71,103.65ZM40.65,89.1a5.77,5.77,0,0,0-1.69.25,5.28,5.28,0,0,0-3.62,4.11h0a6.61,6.61,0,0,0,1.52,5.39c1.33,1.69,4.61,4.55,11.6,4.65h.26c5.21,0,7.3-2.28,7.4-3.74.07-1.1-.83-1.89-2.34-2.07-5-.57-6.44-2.8-7.87-5a13.1,13.1,0,0,0-2-2.48A4.89,4.89,0,0,0,40.65,89.1Z"/><path class="cls-3" d="M75.82,94.25a5.43,5.43,0,0,0-8.59-3.58c-2.88,2.43-3.12,6.49-10.09,7-4.42.33-3.09,6,5.08,6.17C72.48,104.11,76.53,98.1,75.82,94.25Z"/><path d="M62.88,103.93h-.66c-4.9-.12-7.6-2.25-7.64-4.18,0-1.18,1-2,2.55-2.13,4.91-.37,6.46-2.51,8-4.57a13.21,13.21,0,0,1,2.09-2.43,5.51,5.51,0,0,1,8.71,3.62h0a6.8,6.8,0,0,1-1.77,5.46C72.75,101.3,69.49,103.93,62.88,103.93Zm7.5-14.24a4.86,4.86,0,0,0-3.11,1,12.45,12.45,0,0,0-2.06,2.4c-1.52,2.09-3.09,4.26-8.07,4.63-1.51.11-2.44.87-2.41,2,0,1.48,2.1,3.89,7.49,4h.66c6.55,0,9.78-2.6,11.13-4.19a6.61,6.61,0,0,0,1.73-5.33h0A5.27,5.27,0,0,0,72.29,90,5.73,5.73,0,0,0,70.38,89.69Z"/><path class="cls-1" d="M110.63,71.43l-6.25,3.33-6-3.69-2.6,3.44s5.43,4.57,5.12,14.95l3.09.09,3.09.09c.3-10.38,6-14.63,6-14.63Z"/><path d="M107.11,89.72H107l-6.25-.18v-.07c.3-10.22-5-14.85-5.1-14.89l0,0,0-.06L98.32,71l.06,0,6,3.66,6.27-3.34,0,.06L113.13,75l-.06,0c-.06.05-5.66,4.36-6,14.57Zm-6.17-.33,6,.17c.31-9.68,5.37-14.08,6-14.56l-2.31-3.47-6.23,3.32,0,0-6-3.66L95.84,74.5C96.4,75,101.2,79.7,100.94,89.39Z"/><rect x="101.89" y="77.7" width="4.58" height="0.15" transform="translate(24.4 180.42) rotate(-88.88)"/><path class="cls-2" d="M119.58,62.86a7.37,7.37,0,0,0,.3-1.83,7.26,7.26,0,0,0-7-7.46,7.18,7.18,0,0,0-1,0,7.24,7.24,0,0,0-14.06-.43,7.53,7.53,0,0,0-.83-.07,7.25,7.25,0,0,0-7.46,7,7.76,7.76,0,0,0,.17,1.75,7.24,7.24,0,1,0,8.55,10.93,7.23,7.23,0,0,0,12,.36,7.25,7.25,0,1,0,9.37-10.33Z"/><path d="M116.36,76.67h-.22a7.31,7.31,0,0,1-5.93-3.33,7.32,7.32,0,0,1-5.9,3h-.22A7.32,7.32,0,0,1,98.16,73,7.37,7.37,0,0,1,91,75.85a7.32,7.32,0,0,1-1.45-14,7.09,7.09,0,0,1-.16-1.7A7.34,7.34,0,0,1,96.7,53h.21a7.33,7.33,0,0,1,.77.07,7.31,7.31,0,0,1,7-5.31h.22a7.29,7.29,0,0,1,6.92,5.73,7,7,0,0,1,1,0A7.32,7.32,0,0,1,120,61a7.49,7.49,0,0,1-.28,1.79,7.32,7.32,0,0,1-3.31,13.85Zm-6.14-3.61.06.09a7.14,7.14,0,0,0,5.86,3.36h.22a7.17,7.17,0,0,0,3.18-13.59l-.05,0v-.06a7.29,7.29,0,0,0,.3-1.82,7.17,7.17,0,0,0-7-7.37,6.43,6.43,0,0,0-1,.05h-.06l0-.07a7.13,7.13,0,0,0-6.8-5.68h-.21a7.15,7.15,0,0,0-6.9,5.26l0,.07h-.06c-.3,0-.57-.07-.82-.08H96.7a7.18,7.18,0,0,0-7.17,7,6.82,6.82,0,0,0,.17,1.73V62l-.06,0A7.17,7.17,0,1,0,98.1,72.79l.07-.09.06.09a7.16,7.16,0,0,0,5.87,3.37h.21a7.14,7.14,0,0,0,5.84-3Z"/><path class="cls-3" d="M83.81,82.37a5.43,5.43,0,0,1,8.73-3.23c2.78,2.54,2.85,6.61,9.79,7.41,4.41.5,2.86,6.07-5.32,6C86.75,92.36,82.94,86.19,83.81,82.37Z"/><path d="M97.25,92.58H97c-7.06-.1-10.38-3-11.73-4.7a6.77,6.77,0,0,1-1.54-5.53,5.51,5.51,0,0,1,8.85-3.27,13.47,13.47,0,0,1,2,2.51c1.41,2.12,2.88,4.32,7.76,4.88,1.58.18,2.55,1.06,2.47,2.24C104.69,90.6,102,92.58,97.25,92.58ZM83.88,82.39a6.65,6.65,0,0,0,1.52,5.39C86.73,89.48,90,92.33,97,92.43h.26c5.2,0,7.3-2.27,7.39-3.73.08-1.11-.82-1.9-2.33-2.08-5-.57-6.44-2.79-7.88-5a13.37,13.37,0,0,0-2-2.48,5.36,5.36,0,0,0-8.61,3.2Z"/><path class="cls-3" d="M124.36,83.18a5.43,5.43,0,0,0-8.59-3.58c-2.88,2.43-3.12,6.49-10.09,7-4.41.33-3.09,6,5.09,6.17C121,93,125.07,87,124.36,83.18Z"/><path d="M111.42,92.86h-.65c-4.91-.12-7.6-2.25-7.65-4.18,0-1.18,1-2,2.56-2.13,4.9-.37,6.45-2.5,7.95-4.57a14,14,0,0,1,2.09-2.43,5.52,5.52,0,0,1,8.72,3.63h0a6.79,6.79,0,0,1-1.77,5.45C121.3,90.23,118,92.86,111.42,92.86Zm7.5-14.24a4.81,4.81,0,0,0-3.1,1,13.18,13.18,0,0,0-2.07,2.4c-1.52,2.09-3.09,4.26-8.06,4.63-1.52.11-2.45.87-2.42,2,0,1.48,2.11,3.89,7.5,4h.65c6.56,0,9.78-2.6,11.13-4.19a6.65,6.65,0,0,0,1.74-5.33A5.28,5.28,0,0,0,120.83,79,5.73,5.73,0,0,0,118.92,78.62Z"/><path class="cls-1" d="M124.11,23.63,117.86,27l-6-3.69-2.6,3.44s5.42,4.57,5.12,14.94l3.09.09,3.08.09c.31-10.37,6-14.62,6-14.62Z"/><path d="M120.58,41.91h-.07l-6.25-.18v-.08c.3-10.21-5-14.84-5.09-14.89l-.06,0,2.69-3.55,0,0,6,3.67,6.27-3.34,0,0,2.43,3.65-.06,0c-.05,0-5.65,4.35-6,14.57Zm-6.16-.33,6,.18c.31-9.69,5.37-14.08,6-14.57l-2.32-3.47L117.86,27l0,0-6-3.65-2.51,3.33C109.88,27.21,114.67,31.89,114.42,41.58Z"/><rect x="115.37" y="29.89" width="4.58" height="0.15" transform="translate(85.4 147.02) rotate(-88.88)"/><path class="cls-2" d="M133.05,15.06a7.45,7.45,0,0,0,.3-1.84,7.23,7.23,0,0,0-7-7.45,7.31,7.31,0,0,0-1,.05,7.24,7.24,0,0,0-14.06-.43,7.22,7.22,0,0,0-8.11,8.71A7.24,7.24,0,1,0,111.64,25a7.25,7.25,0,0,0,12,.36,7.24,7.24,0,1,0,9.36-10.33Z"/><path d="M129.83,28.86h-.21a7.35,7.35,0,0,1-5.94-3.34,7.27,7.27,0,0,1-5.89,3h-.22a7.3,7.3,0,0,1-5.93-3.35A7.31,7.31,0,0,1,99.74,25a7.31,7.31,0,0,1,3.27-11,7.73,7.73,0,0,1-.16-1.71,7.33,7.33,0,0,1,7.32-7.1h.22a7.58,7.58,0,0,1,.77.07,7.29,7.29,0,0,1,7-5.31h.22a7.3,7.3,0,0,1,6.93,5.74,7,7,0,0,1,1,0,7.34,7.34,0,0,1,7.11,7.53,7.59,7.59,0,0,1-.29,1.8,7.35,7.35,0,0,1,4,6.73,7.32,7.32,0,0,1-7.32,7.11Zm-6.14-3.61.06.1A7.17,7.17,0,1,0,133,15.12l-.06,0,0-.06a7.29,7.29,0,0,0,.3-1.82,7.17,7.17,0,0,0-7-7.38,6.47,6.47,0,0,0-1,.06h-.07V5.84A7.16,7.16,0,0,0,118.4.15h-.22a7.17,7.17,0,0,0-6.9,5.26v.06h-.07c-.29,0-.56-.06-.82-.07h-.21a7.19,7.19,0,0,0-7.17,7,7.41,7.41,0,0,0,.17,1.73l0,.06-.06,0a7.17,7.17,0,0,0,1.36,13.73A7.2,7.2,0,0,0,111.58,25l.06-.09.06.09a7.18,7.18,0,0,0,5.87,3.37h.22a7.17,7.17,0,0,0,5.84-3Z"/><path class="cls-3" d="M97.28,34.57A5.44,5.44,0,0,1,106,31.33c2.78,2.55,2.86,6.62,9.8,7.41,4.4.51,2.85,6.08-5.32,6C100.23,44.55,96.42,38.39,97.28,34.57Z"/><path d="M110.73,44.78h-.25c-7.06-.1-10.37-3-11.72-4.7a6.8,6.8,0,0,1-1.55-5.52,5.44,5.44,0,0,1,3.72-4.21,5.37,5.37,0,0,1,5.13.94,12.69,12.69,0,0,1,2,2.51c1.42,2.12,2.89,4.32,7.77,4.88,1.58.18,2.54,1.06,2.47,2.23C118.17,42.8,115.48,44.78,110.73,44.78ZM97.36,34.58A6.62,6.62,0,0,0,98.88,40c1.33,1.69,4.61,4.55,11.61,4.64h.25c5.21,0,7.3-2.28,7.4-3.74.07-1.1-.83-1.9-2.34-2.07-5-.57-6.44-2.8-7.87-5a12.79,12.79,0,0,0-2-2.48,5.36,5.36,0,0,0-8.6,3.19Z"/><path class="cls-3" d="M137.84,35.38a5.43,5.43,0,0,0-8.59-3.58c-2.88,2.43-3.12,6.49-10.09,7-4.42.33-3.09,5.95,5.08,6.16C134.5,45.24,138.55,39.23,137.84,35.38Z"/><path d="M124.9,45.06h-.66c-4.9-.13-7.6-2.25-7.64-4.18,0-1.18,1-2,2.55-2.13,4.91-.37,6.46-2.51,8-4.57a12.58,12.58,0,0,1,2.09-2.43,5.5,5.5,0,0,1,8.71,3.62h0a6.8,6.8,0,0,1-1.77,5.46C134.77,42.42,131.51,45.06,124.9,45.06Zm7.5-14.24a4.86,4.86,0,0,0-3.11,1,12.69,12.69,0,0,0-2.06,2.39c-1.52,2.1-3.09,4.26-8.06,4.64-1.52.11-2.45.87-2.42,2,0,1.49,2.1,3.9,7.5,4,7,.18,10.38-2.54,11.78-4.18a6.61,6.61,0,0,0,1.73-5.33,5.25,5.25,0,0,0-3.45-4.24A5.49,5.49,0,0,0,132.4,30.82Z"/></g></g></svg>