<svg id="圖層_1" data-name="圖層 1" xmlns="http://www.w3.org/2000/svg" viewBox="0 0 99.15 131.3"><defs><style>.cls-1{fill:#fff;}</style></defs><title>0</title><path class="cls-1" d="M46,57.58s0-.07,0-.11l-.09,0A1.47,1.47,0,0,0,46,57.58Z"/><path class="cls-1" d="M50.67,32.73a5.22,5.22,0,0,1-2.25-4.36,7.76,7.76,0,0,1-4.23,1.34c-.2,0-.41,0-.61,0A3.47,3.47,0,0,1,41,28.26a3.64,3.64,0,0,0-2.29-1.74c0,.67.12,3.87-1.26,5.29l-.18-.17c1.31-1.35,1.21-4.56,1.18-5.15a10.32,10.32,0,0,1-3.68-.95,6.83,6.83,0,0,1-3.59,1.81c6,5.51,13.21,8.43,17,9A5.48,5.48,0,0,0,52.66,35,3,3,0,0,1,50.67,32.73Zm-14-2.88c-.92-.6-1.83-1.27-2.73-2a11.46,11.46,0,0,0,1-.69,11.64,11.64,0,0,0,2.06.56A8.61,8.61,0,0,1,36.66,29.85ZM49,35a4.6,4.6,0,0,1-.64-.05,30.32,30.32,0,0,1-9-3.5A8.31,8.31,0,0,0,40,29.27a5,5,0,0,0,3.47,1.82,6.62,6.62,0,0,0,.77,0,9,9,0,0,0,3.16-.61,6,6,0,0,0,2.1,3.09,4.71,4.71,0,0,0,.66,1.25A3.78,3.78,0,0,1,49,35Z"/><path class="cls-1" d="M20.05,28.15l-.25.12c-.93.44-2.08,1-1.65,4.55a3.24,3.24,0,0,1,0,1.11,3.12,3.12,0,0,1,1.46.68A3.32,3.32,0,0,1,20,35c.81-.75,2.92-3.06,4.05-7.75l0-.12.12,0-1.72-1.81A6.91,6.91,0,0,1,20.05,28.15Zm-.21,4.93-.26-.14,0-.29c-.3-2.55.23-2.81.85-3.1l.3-.14A6.09,6.09,0,0,0,22.35,28,15,15,0,0,1,19.84,33.08Z"/><path class="cls-1" d="M13.3,19.15,12.53,19a3.18,3.18,0,0,1,.25,1,2.24,2.24,0,0,0,.8,1.69,4.83,4.83,0,0,0,1.2-2A12.18,12.18,0,0,0,13.3,19.15Z"/><path class="cls-1" d="M14.15,21.4l.37-.29a9.89,9.89,0,0,1,1.36-1c-.28-.14-.57-.29-.86-.41A5.19,5.19,0,0,1,14.15,21.4Z"/><path class="cls-1" d="M39.49,39.15c-.75.89-1.83,2.86-1.94,6.71a25,25,0,0,1,5.69,2.68,10.81,10.81,0,0,1,3,2.87C44.92,46,42.79,42.14,39.49,39.15ZM39,44.86a11.07,11.07,0,0,1,.75-3.42,19.87,19.87,0,0,1,3.5,5.48A28.7,28.7,0,0,0,39,44.86Z"/><path class="cls-1" d="M70.9,43a10.6,10.6,0,0,1-2.75,2.12,6.77,6.77,0,0,1,2.27,4.12l.45,0a2.83,2.83,0,0,1,3.25-2.06C74,44,73,42.28,72.36,41.49ZM71,46.57a7.78,7.78,0,0,0-.69-1.15A13.15,13.15,0,0,0,71.93,44l.14-.15a9.65,9.65,0,0,1,.5,2A4.25,4.25,0,0,0,71,46.57Z"/><path class="cls-1" d="M99,48.22c-.34-1.19-1.62-2-3-2.64a2.18,2.18,0,0,0,.58-1,2.62,2.62,0,0,0,.08-.71,4.23,4.23,0,0,0,.06-.7,4.29,4.29,0,0,0-.51-2,4.27,4.27,0,0,0,1-2.73,4.34,4.34,0,0,0-.85-2.58A4.34,4.34,0,0,0,92.89,29a4.28,4.28,0,0,0-2.76,1,9.19,9.19,0,0,0-.66-2,12.39,12.39,0,0,1,4-2.07c2.87-.59,3.81-1.91,4.1-2.92a3.07,3.07,0,0,0-.94-3.06,3.91,3.91,0,0,0-2.67-1,3.67,3.67,0,0,0-1.32.23,40.39,40.39,0,0,0-6,2.69,6.07,6.07,0,0,0-.76-5.1A3.89,3.89,0,0,0,83.25,15c-2.53-.48-2.61-1.06-2.7-1.74a3.26,3.26,0,0,0,0-.33c-.28-1.7-2.35-4.68-4.37-5.13a3,3,0,0,0-.59-.06A2.56,2.56,0,0,0,73.38,9l-.08.12a2.91,2.91,0,0,0-1-.16,2.77,2.77,0,0,0-.49,0c-2.1.26-5.26,2.39-8.45,5.67a35.21,35.21,0,0,0-5.21,6.84,1.48,1.48,0,0,0-1,0,1.42,1.42,0,0,0-.84,1.07l0,.18a9.8,9.8,0,0,0-.07,2.06,6.16,6.16,0,0,0-2.4-.51,4.65,4.65,0,0,0-1.84.36l-.34.16A10.56,10.56,0,0,0,53,21.06a6.7,6.7,0,0,1,.79-2.37l.13-.14a1.41,1.41,0,0,0-.51-2.32l-.19-.07a9.44,9.44,0,0,0-2-.45,5.48,5.48,0,0,0,.94-4.14,6.36,6.36,0,0,0-1-2.12c-.42-.66-.52-.82-.33-1.43l0-.13a1.43,1.43,0,0,0-.12-1.11,1.39,1.39,0,0,0-.89-.68l-.16,0a7.81,7.81,0,0,0-1.62-.16A6.29,6.29,0,0,0,43.8,7.42a4.21,4.21,0,0,0-3.58,3.2A8.27,8.27,0,0,0,40,11.84a2.8,2.8,0,0,0-2.22-1.76h-.34a3.9,3.9,0,0,0-2,.61,17.2,17.2,0,0,0-.08-4l0-.17a1.41,1.41,0,0,0-.76-1,1.42,1.42,0,0,0-.63-.15,1.45,1.45,0,0,0-.65.16l-.16.08a5.75,5.75,0,0,1-2.49.8l-.36,0H30.2l0-.1A5.63,5.63,0,0,0,26.83,3.1c-.72-.3-1.16-.47-1.76-2L25,.9A1.43,1.43,0,0,0,23.92,0l-.24,0a1.39,1.39,0,0,0-1.07.49l-.14.15a6.91,6.91,0,0,0-1.59,4.88,6.62,6.62,0,0,0-2.23-.4,5,5,0,0,0-2.31.51,1.56,1.56,0,0,0-.74,1,4.86,4.86,0,0,0,.63,4,1.82,1.82,0,0,1,.37,1.17,3.87,3.87,0,0,0,1.17,2.94,12.63,12.63,0,0,0-2.65-.63c-1-.12-2.28-.36-3.6-.61a36.13,36.13,0,0,0-5.87-.8A4.15,4.15,0,0,0,3,13.39a2.34,2.34,0,0,0-.91,1.69C2,17,3.39,17.94,4.92,18.54,3.4,21,4,24.38,4.63,26.17h0l-.17.18a5.13,5.13,0,0,0-1.54,4v.14a1.47,1.47,0,0,0,.49,1.05,1.44,1.44,0,0,0,.93.34h.18l.22,0a2.08,2.08,0,0,1,.72.25,4.53,4.53,0,0,0,2,.53h.21a5.81,5.81,0,0,1-.4,1.29c-1.4,3,.25,4.87,1.36,5.44l.09,0a1.38,1.38,0,0,0,.62.15h.14a5.06,5.06,0,0,0,.44.83,4.63,4.63,0,0,0-.14,1.53,4.57,4.57,0,0,0,.88,2.37,2.55,2.55,0,0,0-.24.39,10.82,10.82,0,0,0-1.46-.11A6.38,6.38,0,0,0,4.56,46a4.51,4.51,0,0,0-1.62,4,2.12,2.12,0,0,0,.67,1.14C2,51.86.57,52.63.15,53.9A2.59,2.59,0,0,0,.32,56a3.25,3.25,0,0,0,1.26,1.24c.09,1.84,1,4.4,3.13,5.15a2.38,2.38,0,0,0,.79.13A3.68,3.68,0,0,0,8,61.39a10.26,10.26,0,0,0-.52,1.74,4.39,4.39,0,0,0,2.05,4.66c1.36,3.27,5.11,4,5.14,4l.13,0,.25,0a1.41,1.41,0,0,0,1.41-1.23l0-.13c.09-.75.31-.89,1-1.36a6.47,6.47,0,0,0,1.88-1.62,5.9,5.9,0,0,0,.89-4.6,9.86,9.86,0,0,0,2.35.53h.29A1.41,1.41,0,0,0,24,62.85a1.43,1.43,0,0,0,.2-1.34l-.07-.18a7,7,0,0,1,.3-2.76c.43-2,.93-4.26-.36-6.09a7.1,7.1,0,0,0-.67-.8,6.4,6.4,0,0,0,.63-.14l.13,0a1.42,1.42,0,0,0,.89-.75,1.44,1.44,0,0,0,0-1.17L25,49.46a7,7,0,0,0-.74-1.32,4.65,4.65,0,0,0,1.94-1.34,4.59,4.59,0,0,0,1.08-2.43,4.52,4.52,0,0,0,1.17-1,4.6,4.6,0,0,0-3.09-7.57,4.42,4.42,0,0,0-.91-1.07l-.13-.1a19.27,19.27,0,0,0,1.73-3.39A26.3,26.3,0,0,0,33,36.5a25.74,25.74,0,0,1,3.24,1.88,14.91,14.91,0,0,0-1.77,6.75c-.2,0-.4,0-.6,0a4.49,4.49,0,0,0-4.48,5,4.51,4.51,0,0,0-2,5.05,4.74,4.74,0,0,0,.51,1.15,10.19,10.19,0,0,0-2.26,5.65v.2a1.42,1.42,0,0,0,.66,1.2,1.37,1.37,0,0,0,.76.22,1.43,1.43,0,0,0,.61-.14l.17-.09a12.21,12.21,0,0,1,1.93-.69,3.87,3.87,0,0,0-.23,3.52A3.78,3.78,0,0,1,29.62,68a6.56,6.56,0,0,0,.87,4.65l.06.09a1.39,1.39,0,0,0,1.2.66,1.53,1.53,0,0,0,.47-.07l.11,0a9.7,9.7,0,0,0,3.53-2.57A6.78,6.78,0,0,0,39,74.47l.18.1a1.45,1.45,0,0,0,.67.17,1.43,1.43,0,0,0,1.42-1.41v-.21c0-1.64.36-2,.93-2.49a5.62,5.62,0,0,0,2-4.18v-.1c0,.05,0,.07,0,.07s0,0,0,0A2.81,2.81,0,0,1,46,66h.25a135.77,135.77,0,0,1-1.93,16.57l-.21,1.37c-1.52,9.57-.85,18.94-.27,27.22.51,7.13.95,13.28,0,18.33l0,.15a1.39,1.39,0,0,0,.3,1.16,1.43,1.43,0,0,0,1.09.51h9.18a1.42,1.42,0,0,0,1.41-1.56l0-.13c-.11-1.17-2.68-28.94.4-42,1.72-7.27,1.69-14.63,1.61-21.2.15.18.29.35.43.5.53.57.84.92.72,2.57l0,.21a1.46,1.46,0,0,0,.6,1.26,1.42,1.42,0,0,0,.82.25,1.44,1.44,0,0,0,.57-.11l.18-.08a6.86,6.86,0,0,0,3.54-3.71,5.92,5.92,0,0,0,4,1.87h.15a1.61,1.61,0,0,0,1.11-.62,4.87,4.87,0,0,0,1.15-3.86,1.89,1.89,0,0,1,.18-1.21,4.4,4.4,0,0,0,.45-1.79A4.23,4.23,0,0,0,73.44,63a4.27,4.27,0,0,0,3.16,3.64,4.19,4.19,0,0,0,1.05.13,4.26,4.26,0,0,0,4.13-3.2,4.31,4.31,0,0,0,0-2l.09-.07.42.3c.65.45.8.56.86,1.2v.13a1.42,1.42,0,0,0,1.41,1.29h.19l.16,0a6.84,6.84,0,0,0,5-3.51A4.18,4.18,0,0,0,92,56.48a8.71,8.71,0,0,0-.29-1.22,3.2,3.2,0,0,0,2.07.9,2.18,2.18,0,0,0,.67-.1c2-.61,3-2.94,3.16-4.67a3.16,3.16,0,0,0,1.2-1.11A2.55,2.55,0,0,0,99,48.22Zm-1.47,1.33a2.43,2.43,0,0,1-1.39.89c.16,1-.43,3.74-2.16,4.27-1.11.33-2.49-1.63-3.69-3.37-.63-.91-1.28-1.84-1.56-1.88h0c-.27.22.37,1.09.87,1.79s1,1.38.93,1.77a.36.36,0,0,1-.18.25c-.26.16-.54,0-.77-.19a1,1,0,0,0-.32-.17l0,0c-.06.12.12.48.33.89a9.46,9.46,0,0,1,1,2.86,2.89,2.89,0,0,1-1.81,3.08c-.93,2.66-4,3.12-4,3.13l-.13,0v-.13a2.69,2.69,0,0,0-1.46-2.24,4.86,4.86,0,0,1-1.33-1.23A2.83,2.83,0,0,1,80,60.84a.75.75,0,0,1,.13.18,2.79,2.79,0,0,1,.31,2.15,2.84,2.84,0,0,1-2.75,2.14,2.72,2.72,0,0,1-.69-.09,2.84,2.84,0,0,1-2.06-3.4,2.87,2.87,0,0,1-.58-.07,2.83,2.83,0,0,1-2.11-3,4.21,4.21,0,0,0-2.34-.4.86.86,0,0,0-.55.43c-.17.32,0,.61.32,1.09a2.65,2.65,0,0,1,.33,3,3.29,3.29,0,0,0-.31,2,3.45,3.45,0,0,1-.88,2.87l0,0h-.06s-2.76.07-4.4-3.54c0,.08,0,.16-.08.25-.68,2.1-1.38,4.27-3.64,5.24l-.19.09v-.21c.17-2.25-.44-2.92-1.08-3.62a4.24,4.24,0,0,1-1.25-3.38,1.43,1.43,0,0,0-.44-1,2.81,2.81,0,0,0-1.26-.73c0,1.51,0,3.08,0,4.73.09,6.71.2,14.32-1.56,21.74-3.17,13.47-.45,42.2-.43,42.49l0,.13H45.24l0-.14c1-5.23.54-11.47,0-18.7-.58-8.19-1.24-17.48.25-26.89l.21-1.37c1.31-8.23,2.79-17.53,1.48-26.48-1.68-.41-3.5-.67-3.82-.17-.15.23,0,.68.58,1.29,4.09,4.67,3.52,7,3.49,7.14l0,.11-.1,0c-2.44-.27-3.55.22-4.06.68a1.41,1.41,0,0,0-.52,1,4.25,4.25,0,0,1-1.54,3.27c-.7.65-1.36,1.27-1.38,3.52v.21l-.18-.1c-2.18-1.17-2.69-3.39-3.19-5.54l-.06-.24a9.52,9.52,0,0,1-4.58,4.47l-.1,0-.05-.09A5.16,5.16,0,0,1,31,68.11a5,5,0,0,0-.16-2.5,2.67,2.67,0,0,1,.58-2.93c.36-.45.55-.72.41-1.06a.88.88,0,0,0-.52-.48c-1.27-.47-4.07.86-4.09.87l-.18.09v-.2c0-.12,0-2.62,2.67-5.68a3,3,0,0,1-1-1.51A3,3,0,0,1,29,52.37a3.09,3.09,0,0,1,1.85-1.47l.13,0a3.09,3.09,0,0,1,4.31-4,3.36,3.36,0,0,1,.49.35c-.15-5.19,1.25-7.91,2.34-9.21a26.77,26.77,0,0,0-4.57-2.81c-3.11-1.52-5.67-4-8.1-6.62a18.16,18.16,0,0,1-3.25,6.57,3,3,0,0,1,1.33.66,3.12,3.12,0,0,1,.95,1.44.93.93,0,0,1,.23,0,3.18,3.18,0,0,1,2.66,5.23,3.08,3.08,0,0,1-1.51,1,.43.43,0,0,1,0,.11A3.17,3.17,0,0,1,22.75,47a3,3,0,0,1-.73-.1,3.4,3.4,0,0,1,.24,1v0A7.27,7.27,0,0,1,23.73,50l.06.13-.14,0a16.19,16.19,0,0,1-2.57.39,3.16,3.16,0,0,1-1.09.57,6.93,6.93,0,0,1,2.94,2.15c.93,1.33.52,3.18.13,5a7.17,7.17,0,0,0-.24,3.54l.06.19-.19,0s-4.43-.37-5.58-3.69c-.84-2.44-1.34-2.6-1.45-2.6h0c-.12,0-.22.21-.25.5-.11.79.7,2.67,2.19,4.32s1.82,4.54.63,6.11a5.48,5.48,0,0,1-1.51,1.28A2.94,2.94,0,0,0,15,70.26l0,.13-.13,0s-3.35-.64-4.24-3.55a3.14,3.14,0,0,1-1.82-3.41,10.38,10.38,0,0,1,1.23-3c.25-.44.46-.82.39-1a.09.09,0,0,0,0,0h0a1.07,1.07,0,0,0-.34.17c-.25.15-.57.35-.83.17A.39.39,0,0,1,9,59.43c-.07-.43.46-1.1,1.08-1.87s1.3-1.65,1-1.91a.06.06,0,0,0-.05,0c-.31,0-1.06,1-1.78,2-1.38,1.83-2.94,3.9-4.13,3.48C3.33,60.43,2.82,57.39,3,56.37a2.6,2.6,0,0,1-1.48-1,1.24,1.24,0,0,1-.07-1c.29-.86,2-1.57,3.43-2.19.86-.37,1.83-.78,1.92-1,0,0,0,0,0,0-.15-.28-.6-.38-1.08-.49s-1.29-.29-1.43-.89A3.17,3.17,0,0,1,5.5,47.1c.94-.84,2.69-1.58,5.78-.84A3.21,3.21,0,0,1,12,44.82a3.48,3.48,0,0,1,.69-.59,2.21,2.21,0,0,1-.4-.28,3.14,3.14,0,0,1-.76-3.86,3.15,3.15,0,0,1-1-2,3.26,3.26,0,0,1,.1-1,3.58,3.58,0,0,0-1.27,1l-.06.09-.09,0s-1.9-1-.7-3.57a8.37,8.37,0,0,0,.63-4,2.58,2.58,0,0,1-3.09.26,2.77,2.77,0,0,0-1.57-.36l-.14,0v-.14a3.76,3.76,0,0,1,1.16-3c.46-.49.76-.82.45-1.65-.74-1.93-1.33-6,1.65-7.82C5,17.23,3.44,16.6,3.54,15.18a.88.88,0,0,1,.36-.66c1-.8,4.25-.19,7.35.4,1.36.25,2.63.49,3.7.62a12.31,12.31,0,0,1,3.24.9,3.63,3.63,0,0,0,1.86-.62.83.83,0,0,0,.31-.62c0-.37-.26-.55-.76-.85A2.65,2.65,0,0,1,18,11.82a3.22,3.22,0,0,0-.58-1.91,3.48,3.48,0,0,1-.44-3V6.88l0,0s2.46-1.26,5.5,1.29l0-.26c-.3-2.18-.6-4.44,1-6.31l.14-.15.07.19c.82,2.1,1.66,2.44,2.54,2.8a4.22,4.22,0,0,1,2.6,2.5,1.4,1.4,0,0,0,.84.75c.64.25,1.87.31,4-.81l.16-.08,0,.17a18.67,18.67,0,0,1-.68,7.67,3.82,3.82,0,0,1,.78,0c.21-.92,1.71-3.14,3.43-3.14h.19c1.16.11,1.68,2.45,2.13,4.52a6.39,6.39,0,0,0,.73,2.33h0c.33-.11.08-1.15-.13-2s-.4-1.66-.18-2a.35.35,0,0,1,.26-.16c.3,0,.49.24.64.47s.17.26.23.27a0,0,0,0,0,0,0c.11-.09.08-.49,0-.94a9.38,9.38,0,0,1,.14-3,2.92,2.92,0,0,1,2.85-2.17c1.87-2.1,4.91-1.35,4.94-1.34l.12,0,0,.13a2.71,2.71,0,0,0,.5,2.62,4.83,4.83,0,0,1,.77,1.66c.4,1.78-1,4.07-2.89,4.89s-3.28,2.07-3.5,2.78c-.08.25-.07.45,0,.5s.48.2,2.21-1.61c2.26-2.35,6.08-1,6.12-1l.18.07-.13.13a6.54,6.54,0,0,0-1.16,3.07c-.36,1.66-.74,3.37-2,4.13a7.63,7.63,0,0,1-4.63.57,16.53,16.53,0,0,1,4,2.31l.11.09L49,28s-.06.05-.08.08a2.73,2.73,0,0,0,2.17-1A5.25,5.25,0,0,1,52.54,26a4.65,4.65,0,0,1,4.7,1.19c.1-.26.19-.52.28-.8s.16-.45.25-.68A7.86,7.86,0,0,1,57.69,23l0-.2.16.11a2.69,2.69,0,0,0,.95.36,32.94,32.94,0,0,1,5.6-7.65c2.88-3,5.87-5,7.61-5.26a1.24,1.24,0,0,1,1.32.47,1.71,1.71,0,0,1,.16.29,12.89,12.89,0,0,0,1-1.36,1.17,1.17,0,0,1,1.28-.54c1.37.3,3.07,2.73,3.27,4,0,.1,0,.19.05.29.13,1,.3,2.27,3.83,2.95a2.43,2.43,0,0,1,1.75,1.07A4.69,4.69,0,0,1,85.09,22a5.31,5.31,0,0,0-.4,2.61,39.72,39.72,0,0,1,8.46-4.2,2.51,2.51,0,0,1,2.54.52,1.62,1.62,0,0,1,.54,1.64c-.25.88-1.32,1.56-3,1.91a16.91,16.91,0,0,0-5.62,3.06A8.05,8.05,0,0,1,89,32.24l.36,0a2.63,2.63,0,0,1,.8.13,2.91,2.91,0,1,1,4.09,3.54A2.89,2.89,0,0,1,94.3,41a2.91,2.91,0,0,1,1,2.21,3.05,3.05,0,0,1-.06.6,1.4,1.4,0,0,1,0,.43.76.76,0,0,1-.31.41,2.9,2.9,0,0,1-1.43,1.27c.32.17.72.36,1.1.54,1.33.63,2.85,1.35,3.08,2.16A1.12,1.12,0,0,1,97.57,49.55ZM46,57.58a1.47,1.47,0,0,1-.1-.13l.09,0S46,57.54,46,57.58Z"/><path class="cls-1" d="M73.49,40.33c.88,1,2,3,2.24,6.64l.11-.07A2.84,2.84,0,0,1,78,46.58l.12.05A8.11,8.11,0,0,1,82,44.55,16.84,16.84,0,0,1,77.37,44l-.13-.05.06-.12a7.54,7.54,0,0,1,4.32-3.65,3.51,3.51,0,0,1,2.95.32,5.08,5.08,0,0,0,1.51.67,2.83,2.83,0,0,1-.1-.71A2.31,2.31,0,0,1,86,40l-.27,0a2.92,2.92,0,0,1,0-5.84,2.68,2.68,0,0,1,.8.13,2.87,2.87,0,0,1,1-1.44,7.29,7.29,0,0,0-1.11-4.4A142.91,142.91,0,0,0,73.49,40.33Zm12.25-7.6a4.34,4.34,0,0,0-4,5.92l-.49.13a9.11,9.11,0,0,0-4.89,3.8,10.43,10.43,0,0,0-1-2.11c3-3,6.89-6.79,10.55-9.79a9.41,9.41,0,0,1,.22,1.56A4.3,4.3,0,0,0,85.74,32.73Z"/></svg>