<svg id="圖層_1" data-name="圖層 1" xmlns="http://www.w3.org/2000/svg" viewBox="0 0 101.53 47.56"><defs><style>.cls-1{fill:#fff;}</style></defs><title>0</title><path class="cls-1" d="M101.5,17.68a11.17,11.17,0,0,0-.14-1.31,13.73,13.73,0,0,0-.64-2.61,11.9,11.9,0,0,0-1.27-2.55,9.68,9.68,0,0,0-1-1.22,9.14,9.14,0,0,0-1.17-1,8,8,0,0,0-3-1.37,8.55,8.55,0,0,0-1.61-.21h-.35A6.6,6.6,0,0,0,91,7.49,7.41,7.41,0,0,0,87.72,9l0,0c-.06-.9-.13-1.79-.22-2.68-.17-1.6-.37-3.32-.72-5.09a1.55,1.55,0,0,0-3,0C83.37,3,83.16,4.73,83,6.34c0,.39-.08.78-.11,1.18-.16-.21-.33-.42-.51-.62a13.78,13.78,0,0,0-2.75-2.45c-.18-.13-.38-.24-.57-.35L78.84,4l-.28-.14c-.21-.11-.43-.23-.64-.32a12.25,12.25,0,0,0-1.83-.63,10.27,10.27,0,0,0-2.3-.29,7.52,7.52,0,0,0-1.59.17,1.55,1.55,0,0,0,.17,3,7.92,7.92,0,0,1,4.45,2.15A11.75,11.75,0,0,1,78,9.23,7.76,7.76,0,0,0,76.29,9a10.81,10.81,0,0,0-3.72.66,10.42,10.42,0,0,0-3.19,2,11.8,11.8,0,0,0-1,1,11.71,11.71,0,0,0-.8-1.42,10.48,10.48,0,0,0-1-1.22,9.23,9.23,0,0,0-1.18-1,8,8,0,0,0-3-1.37,8.55,8.55,0,0,0-1.61-.21h-.34a6.64,6.64,0,0,0-1.39.13A7.33,7.33,0,0,0,55.86,9l0,0c-.06-.91-.13-1.8-.22-2.68-.16-1.61-.37-3.34-.72-5.11A1.56,1.56,0,0,0,53.37,0a1.54,1.54,0,0,0-1.51,1.24c-.36,1.77-.56,3.49-.73,5.1,0,.39-.07.78-.1,1.18l-.51-.62a13.77,13.77,0,0,0-2.76-2.45c-.18-.13-.38-.24-.57-.36l-.31-.18-.17-.09c-.22-.11-.44-.23-.66-.32a11.51,11.51,0,0,0-1.83-.63,10.27,10.27,0,0,0-2.3-.29,7.36,7.36,0,0,0-1.58.17,1.54,1.54,0,0,0,.16,3A7.94,7.94,0,0,1,45,7.94a11.75,11.75,0,0,1,1.17,1.29A7.83,7.83,0,0,0,44.43,9a10.91,10.91,0,0,0-3.73.66,10.74,10.74,0,0,0-3.19,2,13.37,13.37,0,0,0-1,1,13.23,13.23,0,0,0-.8-1.42,10.92,10.92,0,0,0-1-1.22,9.14,9.14,0,0,0-1.17-1,8,8,0,0,0-3-1.37A8.44,8.44,0,0,0,29,7.37h-.33a6.57,6.57,0,0,0-1.39.13A7.31,7.31,0,0,0,24,9l0,0c-.06-.91-.14-1.8-.22-2.68C23.57,4.73,23.37,3,23,1.24a1.54,1.54,0,0,0-3,0,49.94,49.94,0,0,0-.72,5.1c0,.39-.08.78-.11,1.18l-.51-.62A14.35,14.35,0,0,0,15.9,4.45c-.19-.13-.38-.24-.57-.35L15.11,4l-.27-.15c-.21-.11-.44-.23-.65-.32a12.25,12.25,0,0,0-1.83-.63,10.34,10.34,0,0,0-2.3-.29,7.52,7.52,0,0,0-1.59.17,1.54,1.54,0,0,0,.17,3,7.92,7.92,0,0,1,4.45,2.15,11.75,11.75,0,0,1,1.17,1.29A7.76,7.76,0,0,0,12.56,9a10.81,10.81,0,0,0-3.72.66,10.42,10.42,0,0,0-3.19,2A12.61,12.61,0,0,0,3.39,14.3a17.65,17.65,0,0,0-1.51,2.89,21.74,21.74,0,0,0-1,3,26.85,26.85,0,0,0-.62,3A22.55,22.55,0,0,0,0,26.26,1.52,1.52,0,0,0,1.26,27.8l.29,0A1.52,1.52,0,0,0,3,26.66a37.79,37.79,0,0,1,1.7-5.18A19.44,19.44,0,0,1,7.23,17a7.18,7.18,0,0,1,3.33-2.55,5.2,5.2,0,0,1,1.66-.26h.2a2.63,2.63,0,0,1,1.32.46A5.16,5.16,0,0,1,15,16l.18.28-.35,0a11,11,0,0,0-3.57.59,10.11,10.11,0,0,0-3.17,1.89A10.84,10.84,0,0,0,6,21.49a12.77,12.77,0,0,0-1.21,3.05,12.16,12.16,0,0,0-.4,3.17,1.56,1.56,0,0,0,1.29,1.5l.26,0a1.52,1.52,0,0,0,1.43-1A16.86,16.86,0,0,1,8.4,26,12.68,12.68,0,0,1,9.69,24a7.64,7.64,0,0,1,1.49-1.42,5.66,5.66,0,0,1,1.68-.81,5.51,5.51,0,0,1,1.48-.2l.37,0a2.06,2.06,0,0,1,1.14.39,6.16,6.16,0,0,1,1.91,3.12,22.31,22.31,0,0,1,1,4.77c.08.79.13,1.64.15,2.52,0,.16,0,1.94,0,4.21,0,3,0,6.7.06,8.44a2.54,2.54,0,0,0,5.07,0c0-.94.06-2,.07-2.53a1.41,1.41,0,0,0,0-.2,11.1,11.1,0,0,1,.37-1.78,20,20,0,0,1,.65-2A17.8,17.8,0,0,1,27,35a9.62,9.62,0,0,1,1.2-1.44,5.36,5.36,0,0,1,1.37-1,4.21,4.21,0,0,1,1.55-.42l.35,0a7.24,7.24,0,0,1,1.57.21,1.27,1.27,0,0,0,.28,0,1.54,1.54,0,0,0,.79-2.86,7.66,7.66,0,0,0-4-1.16,7.48,7.48,0,0,0-2,.27,8.86,8.86,0,0,0-2.81,1.34,12.58,12.58,0,0,0-1.1.86c0-.08,0-5.08,0-5.08.08-1.39.19-2.62.33-3.76a33.77,33.77,0,0,1,.74-4.17,13.34,13.34,0,0,1,1.34-3.5,7.36,7.36,0,0,1,.44-.64,5.34,5.34,0,0,1,.44-.48,2.27,2.27,0,0,1,.92-.48,2,2,0,0,1,.55-.05,3.47,3.47,0,0,1,.66.05,3.64,3.64,0,0,1,1.27.45,6.79,6.79,0,0,1,2.25,2.47A15.23,15.23,0,0,1,33.83,17l-.09.2a21.11,21.11,0,0,0-1,3,24.79,24.79,0,0,0-.62,3,22.55,22.55,0,0,0-.26,3.07,1.53,1.53,0,0,0,1.35,1.55h.19a1.51,1.51,0,0,0,1.49-1.16,39.26,39.26,0,0,1,1.71-5.18c.19-.45.39-.89.63-1.37a1.6,1.6,0,0,0,.54-1,15.73,15.73,0,0,1,1.31-2,7.23,7.23,0,0,1,3.33-2.55,5.25,5.25,0,0,1,1.66-.26h.21a2.56,2.56,0,0,1,1.31.46A5.35,5.35,0,0,1,46.89,16l.18.28-.36,0a10.94,10.94,0,0,0-3.56.59A9.89,9.89,0,0,0,40,18.77a10.62,10.62,0,0,0-2.14,2.72,12.61,12.61,0,0,0-1.21,3.05,11.84,11.84,0,0,0-.4,3.17,1.54,1.54,0,0,0,1.27,1.5l.27,0a1.56,1.56,0,0,0,1.44-1,18.22,18.22,0,0,1,1-2.28,12.82,12.82,0,0,1,1.3-2A8.16,8.16,0,0,1,43,22.59a5.71,5.71,0,0,1,1.69-.81,5.44,5.44,0,0,1,1.47-.2l.38,0a2.06,2.06,0,0,1,1.14.39,6.16,6.16,0,0,1,1.91,3.12,21.74,21.74,0,0,1,.95,4.77c.08.79.14,1.64.16,2.53,0,.17,0,2.17,0,4.49,0,2.92,0,6.46.06,8.15a2.53,2.53,0,0,0,5.06,0c0-1,.07-2.08.08-2.56a1.09,1.09,0,0,1,0-.18,11.23,11.23,0,0,1,.37-1.77,20,20,0,0,1,.65-2A18.06,18.06,0,0,1,58.82,35,9.05,9.05,0,0,1,60,33.53a5.36,5.36,0,0,1,1.37-1,4.11,4.11,0,0,1,1.55-.42l.35,0a7.08,7.08,0,0,1,1.56.21l.28,0a1.54,1.54,0,0,0,.8-2.86,7.66,7.66,0,0,0-4-1.16,7.46,7.46,0,0,0-2,.27,8.86,8.86,0,0,0-2.81,1.34,11.24,11.24,0,0,0-1.1.86c0-.08,0-5.09,0-5.09.08-1.38.19-2.61.32-3.75a33,33,0,0,1,.75-4.16,12.9,12.9,0,0,1,1.34-3.52,5.58,5.58,0,0,1,.44-.63,4.18,4.18,0,0,1,.44-.48,2.21,2.21,0,0,1,.92-.48,1.87,1.87,0,0,1,.51-.05,5,5,0,0,1,.7.05,3.64,3.64,0,0,1,1.27.45A7,7,0,0,1,65,15.59,14.19,14.19,0,0,1,65.69,17a1.67,1.67,0,0,0-.08.2,22.08,22.08,0,0,0-1,3,29.27,29.27,0,0,0-.62,3,24.12,24.12,0,0,0-.26,3.07,1.54,1.54,0,0,0,1.36,1.55h.19a1.52,1.52,0,0,0,1.49-1.16,37.39,37.39,0,0,1,1.71-5.18c.18-.44.39-.89.62-1.37a1.48,1.48,0,0,0,.54-1A15.21,15.21,0,0,1,71,17a7.23,7.23,0,0,1,3.33-2.55A5.25,5.25,0,0,1,76,14.23h.2a2.63,2.63,0,0,1,1.32.46A5.15,5.15,0,0,1,78.75,16l.18.28-.35,0a10.94,10.94,0,0,0-3.56.59,9.89,9.89,0,0,0-3.17,1.89,10.54,10.54,0,0,0-2.15,2.72,12.59,12.59,0,0,0-1.2,3.05,11.45,11.45,0,0,0-.4,3.17,1.54,1.54,0,0,0,1.29,1.5l.25,0a1.54,1.54,0,0,0,1.44-1,16.89,16.89,0,0,1,1-2.28A12.21,12.21,0,0,1,73.42,24a7.93,7.93,0,0,1,1.49-1.42,5.78,5.78,0,0,1,1.68-.81,5.51,5.51,0,0,1,1.48-.2l.37,0a2,2,0,0,1,1.14.39,6.16,6.16,0,0,1,1.91,3.12,21.84,21.84,0,0,1,1,4.77c.08.79.13,1.64.16,2.53,0,.17,0,2.17,0,4.49,0,2.92,0,6.46,0,8.15a2.54,2.54,0,0,0,5.07,0c0-1,.06-2.08.08-2.56v-.18a14.06,14.06,0,0,1,.37-1.77c.2-.7.42-1.37.65-2A17.55,17.55,0,0,1,90.69,35a9.6,9.6,0,0,1,1.19-1.44,5.36,5.36,0,0,1,1.37-1,4.21,4.21,0,0,1,1.55-.42l.36,0a6.93,6.93,0,0,1,1.55.21l.29,0a1.54,1.54,0,0,0,.79-2.86,7.81,7.81,0,0,0-2.82-1,6.89,6.89,0,0,0-1.21-.11,7.59,7.59,0,0,0-2,.27A9.07,9.07,0,0,0,89,29.92c-.37.26-.74.55-1.1.86,0-.07,0-5.09,0-5.09.08-1.39.19-2.62.32-3.75A31.64,31.64,0,0,1,89,17.78a12.9,12.9,0,0,1,1.34-3.52,6.45,6.45,0,0,1,.43-.63,3.42,3.42,0,0,1,.45-.47,2.08,2.08,0,0,1,.91-.49,2.05,2.05,0,0,1,.55-.05,3.81,3.81,0,0,1,1.94.5,7,7,0,0,1,2.25,2.47,19,19,0,0,1,1.69,3.83A1.55,1.55,0,0,0,100,20.48l.2,0A1.54,1.54,0,0,0,101.51,19,8.72,8.72,0,0,0,101.5,17.68ZM100,19.06a.13.13,0,0,1-.14-.09A20.13,20.13,0,0,0,98,14.86a8.26,8.26,0,0,0-2.76-3,5.1,5.1,0,0,0-1.74-.62,5.46,5.46,0,0,0-.9-.07h0a3.22,3.22,0,0,0-.86.1,3.52,3.52,0,0,0-1.49.78,5.65,5.65,0,0,0-.62.66c-.23.3-.4.55-.55.79a14.57,14.57,0,0,0-1.5,3.9,36,36,0,0,0-.78,4.34q-.21,1.83-.33,3.84c0,1.66,0,3.45,0,4.95,0,1.75,0,3,0,3.2v.94a14.18,14.18,0,0,1,1.41-1.88,11.18,11.18,0,0,1,1.94-1.74A7.63,7.63,0,0,1,92.14,30a6.19,6.19,0,0,1,2.6-.14,6.65,6.65,0,0,1,2.33.88.12.12,0,0,1,.05.15.13.13,0,0,1-.15.08,7.15,7.15,0,0,0-2.28-.21,5.6,5.6,0,0,0-2.07.56A7.15,7.15,0,0,0,90.9,32.5a11.91,11.91,0,0,0-1.38,1.66,19.84,19.84,0,0,0-2,3.94q-.37,1-.69,2.1a13.63,13.63,0,0,0-.42,2s-.05,1.55-.09,2.83a1.09,1.09,0,0,1-1.11,1.08A1.11,1.11,0,0,1,84.11,45c0-1.69,0-5.23-.06-8.14,0-2.34,0-4.36,0-4.53,0-.92-.08-1.8-.16-2.63a23.38,23.38,0,0,0-1-5.08,7.47,7.47,0,0,0-2.45-3.84,3.51,3.51,0,0,0-1.88-.64,7.07,7.07,0,0,0-2.31.24,7.35,7.35,0,0,0-2.1,1,9.75,9.75,0,0,0-1.78,1.69,15,15,0,0,0-1.43,2.16,20.44,20.44,0,0,0-1.14,2.46.11.11,0,0,1-.13.08.13.13,0,0,1-.11-.12,10.71,10.71,0,0,1,.36-2.81,11.44,11.44,0,0,1,1.07-2.7,9.19,9.19,0,0,1,1.87-2.37,8.5,8.5,0,0,1,2.68-1.59,9.4,9.4,0,0,1,3.09-.51,6.1,6.1,0,0,1,3,.84c-.13-.36-.27-.71-.41-1.05a12.92,12.92,0,0,0-1.22-2.27,6.59,6.59,0,0,0-1.65-1.71,3.88,3.88,0,0,0-2-.7,6.76,6.76,0,0,0-2.38.32,8.63,8.63,0,0,0-4,3,17.73,17.73,0,0,0-1.62,2.55,1.77,1.77,0,0,1,0,.23.13.13,0,0,1-.11.12h-.07c-.3.59-.6,1.21-.88,1.88a38.47,38.47,0,0,0-1.77,5.38.13.13,0,0,1-.25,0,23,23,0,0,1,.24-2.89A27.26,27.26,0,0,1,66,20.53a20.81,20.81,0,0,1,.94-2.79c.1-.25.22-.48.33-.72a18.12,18.12,0,0,0-1.08-2.16,8.2,8.2,0,0,0-2.77-3,5,5,0,0,0-1.74-.62,6,6,0,0,0-.93-.07,3.3,3.3,0,0,0-.87.1,3.43,3.43,0,0,0-1.48.78,5,5,0,0,0-.63.66,8,8,0,0,0-.54.79,13.93,13.93,0,0,0-1.5,3.9,32.18,32.18,0,0,0-.78,4.34c-.15,1.22-.26,2.5-.34,3.84,0,1.65,0,3.42,0,4.92,0,1.77,0,3,0,3.23v.94A13.36,13.36,0,0,1,56,32.82a10.78,10.78,0,0,1,1.93-1.74A7.63,7.63,0,0,1,60.27,30a6.19,6.19,0,0,1,2.6-.14,6.58,6.58,0,0,1,2.33.88.12.12,0,0,1,0,.15.12.12,0,0,1-.14.08,7.18,7.18,0,0,0-2.28-.21,5.55,5.55,0,0,0-2.07.56A7,7,0,0,0,59,32.5a10.75,10.75,0,0,0-1.38,1.66,19.32,19.32,0,0,0-2,3.94c-.25.65-.48,1.34-.69,2.1a13.63,13.63,0,0,0-.42,2s-.05,1.55-.08,2.83a1.12,1.12,0,0,1-2.24,0c0-1.69,0-5.23-.05-8.14,0-2.34,0-4.36,0-4.53,0-.92-.08-1.8-.17-2.63a23.26,23.26,0,0,0-1-5.08,7.41,7.41,0,0,0-2.45-3.84,3.48,3.48,0,0,0-1.88-.64,7,7,0,0,0-2.3.24,7.11,7.11,0,0,0-2.1,1,9.46,9.46,0,0,0-1.78,1.69A14.21,14.21,0,0,0,39,25.27a19,19,0,0,0-1.13,2.46.12.12,0,0,1-.14.08.12.12,0,0,1-.1-.12A10.66,10.66,0,0,1,38,24.88a11.44,11.44,0,0,1,1.07-2.7,9.4,9.4,0,0,1,1.87-2.37,8.54,8.54,0,0,1,2.69-1.59,9.3,9.3,0,0,1,3.08-.51,6.07,6.07,0,0,1,3,.84c-.13-.36-.26-.71-.41-1.05a12.92,12.92,0,0,0-1.22-2.27,6.43,6.43,0,0,0-1.65-1.71,3.83,3.83,0,0,0-2-.7,6.83,6.83,0,0,0-2.38.32,8.73,8.73,0,0,0-4,3,17.73,17.73,0,0,0-1.62,2.55c0,.07,0,.16,0,.23a.14.14,0,0,1-.11.12h-.07c-.31.59-.6,1.21-.89,1.88a39.82,39.82,0,0,0-1.77,5.38.13.13,0,0,1-.25,0,21.58,21.58,0,0,1,.25-2.89,24.94,24.94,0,0,1,.58-2.86,23.49,23.49,0,0,1,.94-2.79c.1-.25.22-.48.33-.72a18.12,18.12,0,0,0-1.08-2.16,8.35,8.35,0,0,0-2.76-3,5.08,5.08,0,0,0-1.75-.62,5.26,5.26,0,0,0-.89-.07h0a3.17,3.17,0,0,0-.86.1,3.41,3.41,0,0,0-1.49.78,4.35,4.35,0,0,0-.62.66,8.3,8.3,0,0,0-.55.79,14.38,14.38,0,0,0-1.5,3.9,33.84,33.84,0,0,0-.78,4.34q-.21,1.83-.33,3.84c0,1.66,0,3.42,0,4.91,0,1.77,0,3.05,0,3.24v.94a14.18,14.18,0,0,1,1.41-1.88A10.78,10.78,0,0,1,26,31.08,7.74,7.74,0,0,1,28.4,30a6.19,6.19,0,0,1,2.6-.14,6.58,6.58,0,0,1,2.33.88.11.11,0,0,1,.05.15.12.12,0,0,1-.14.08A7.15,7.15,0,0,0,31,30.71a5.55,5.55,0,0,0-2.07.56,7.15,7.15,0,0,0-1.72,1.23,11.25,11.25,0,0,0-1.38,1.66,18.81,18.81,0,0,0-2,3.94,21.52,21.52,0,0,0-.7,2.1,13.52,13.52,0,0,0-.41,2s-.06,1.55-.09,2.83a1.12,1.12,0,0,1-2.23,0c0-1.75,0-5.48-.06-8.44,0-2.27,0-4.07,0-4.23,0-.92-.08-1.8-.16-2.63a23.23,23.23,0,0,0-1-5.08,7.46,7.46,0,0,0-2.44-3.84,3.51,3.51,0,0,0-1.89-.64,7,7,0,0,0-2.3.24,7.23,7.23,0,0,0-2.1,1,9.44,9.44,0,0,0-1.78,1.69,15,15,0,0,0-1.44,2.16A20.48,20.48,0,0,0,6,27.73a.12.12,0,0,1-.14.08.13.13,0,0,1-.1-.12,10.71,10.71,0,0,1,.36-2.81,11.27,11.27,0,0,1,1.07-2.7,9.31,9.31,0,0,1,1.86-2.37,8.54,8.54,0,0,1,2.69-1.59,9.36,9.36,0,0,1,3.09-.51,6,6,0,0,1,3,.84c-.13-.36-.26-.71-.4-1.05a12.3,12.3,0,0,0-1.23-2.27,6.41,6.41,0,0,0-1.64-1.71,3.88,3.88,0,0,0-2-.7,6.85,6.85,0,0,0-2.39.32,8.73,8.73,0,0,0-4,3,21,21,0,0,0-2.67,4.77,39.87,39.87,0,0,0-1.78,5.38.11.11,0,0,1-.13.09.11.11,0,0,1-.11-.12,21.43,21.43,0,0,1,.24-2.89,24.93,24.93,0,0,1,.59-2.86,20.81,20.81,0,0,1,.94-2.79,15.71,15.71,0,0,1,1.39-2.67,11,11,0,0,1,2-2.38,8.75,8.75,0,0,1,6-2.25,6.53,6.53,0,0,1,1.74.26,6.92,6.92,0,0,1,1.59.73,8.25,8.25,0,0,1,2.13,2c-.21-.61-.44-1.2-.69-1.75a15.67,15.67,0,0,0-1.4-2.55,12.63,12.63,0,0,0-1.86-2.2A9.41,9.41,0,0,0,8.8,4.38a.13.13,0,0,1-.11-.12.14.14,0,0,1,.1-.13A7.42,7.42,0,0,1,12,4.25a10.48,10.48,0,0,1,1.58.55,5.85,5.85,0,0,1,.56.28l.18.09.26.15.47.29a12.54,12.54,0,0,1,2.5,2.23,16.36,16.36,0,0,1,1.89,2.75c.28.51.55,1.06.82,1.68l0-.84c.07-1.68.19-3.35.35-4.95s.36-3.26.7-5a.13.13,0,0,1,.24,0c.35,1.7.54,3.39.71,5s.27,3.27.34,5c0,.43,0,.88,0,1.32.12-.21.23-.43.36-.63a8.27,8.27,0,0,1,1.8-2,6.16,6.16,0,0,1,2.61-1.21,5.87,5.87,0,0,1,1.42-.1A7.44,7.44,0,0,1,30.26,9a6.72,6.72,0,0,1,2.48,1.13,7.55,7.55,0,0,1,1,.89,8.37,8.37,0,0,1,.81,1,9.64,9.64,0,0,1,1.1,2.23c.18.53.31,1,.42,1.49.13-.21.25-.44.38-.65a11.6,11.6,0,0,1,2-2.38A9.06,9.06,0,0,1,41.21,11a8.94,8.94,0,0,1,3.22-.57,6.59,6.59,0,0,1,1.74.26,7.12,7.12,0,0,1,1.59.73,8.25,8.25,0,0,1,2.13,2c-.22-.61-.45-1.2-.7-1.75a14.65,14.65,0,0,0-1.4-2.55,12.21,12.21,0,0,0-1.86-2.2,9.35,9.35,0,0,0-5.26-2.54.13.13,0,0,1-.11-.12.12.12,0,0,1,.09-.13,7.47,7.47,0,0,1,3.26.12,10.75,10.75,0,0,1,1.57.55,5,5,0,0,1,.57.28l.18.09.25.15.47.29a12.31,12.31,0,0,1,2.51,2.23,17,17,0,0,1,1.89,2.75c.28.51.55,1.07.82,1.68l0-.84c.07-1.67.19-3.34.34-4.95s.36-3.26.71-5a.12.12,0,0,1,.24,0c.34,1.69.54,3.38.7,5s.27,3.26.35,5c0,.43,0,.88.05,1.32.12-.21.23-.43.36-.63a8.23,8.23,0,0,1,1.79-2,6.22,6.22,0,0,1,2.61-1.21,5.87,5.87,0,0,1,1.42-.1A7.32,7.32,0,0,1,62.12,9a6.65,6.65,0,0,1,2.48,1.13,7.7,7.7,0,0,1,1,.89,7.37,7.37,0,0,1,.8,1,9.68,9.68,0,0,1,1.11,2.23c.18.53.31,1,.42,1.49.12-.22.24-.44.38-.65a11.55,11.55,0,0,1,2-2.38A9.13,9.13,0,0,1,73.07,11a9,9,0,0,1,3.23-.57A6.45,6.45,0,0,1,78,10.7a7.19,7.19,0,0,1,1.6.73,8.25,8.25,0,0,1,2.13,2c-.22-.61-.45-1.2-.7-1.75a15.35,15.35,0,0,0-1.4-2.55,12.21,12.21,0,0,0-1.86-2.2,9.41,9.41,0,0,0-5.27-2.54.13.13,0,0,1-.11-.12.14.14,0,0,1,.1-.13,7.42,7.42,0,0,1,3.25.12,10.48,10.48,0,0,1,1.58.55,5.85,5.85,0,0,1,.56.28l.19.09c.08.06.17.1.25.15l.47.29a12.31,12.31,0,0,1,2.5,2.23,16.36,16.36,0,0,1,1.89,2.75c.29.51.56,1.07.83,1.68,0-.28,0-.56,0-.84.07-1.67.18-3.34.34-4.95s.36-3.26.7-5a.12.12,0,0,1,.12-.1.14.14,0,0,1,.13.1c.34,1.71.54,3.39.7,5s.27,3.28.34,5c0,.43,0,.88,0,1.32.12-.21.24-.43.36-.63a8.27,8.27,0,0,1,1.8-2,6.22,6.22,0,0,1,2.61-1.21,5.87,5.87,0,0,1,1.42-.1A7.32,7.32,0,0,1,94,9a6.65,6.65,0,0,1,2.48,1.13,8.43,8.43,0,0,1,1,.89,9,9,0,0,1,.8,1,10.09,10.09,0,0,1,1.11,2.23,12.27,12.27,0,0,1,.58,2.34c.06.4.11.79.13,1.19a9.35,9.35,0,0,1,0,1.18A.14.14,0,0,1,100,19.06Z"/></svg>