<svg id="圖層_1" data-name="圖層 1" xmlns="http://www.w3.org/2000/svg" viewBox="0 0 72.65 100.95"><defs><style>.cls-1{fill:#fff;}</style></defs><title>0</title><path class="cls-1" d="M51.07,27.86l.06,1.21a4.11,4.11,0,0,1,1.11-2.59,6.23,6.23,0,0,0-.36-.68A4.55,4.55,0,0,1,51.07,27.86Z"/><path class="cls-1" d="M22.58,31.09l0,0a7.22,7.22,0,0,0-1.72,1.6,4.75,4.75,0,0,1,.4,4.46,3.72,3.72,0,0,1,.53,4.94c.06.08.1.17.15.25.33-.19.66-.38,1-.55l.74-11.13A2.75,2.75,0,0,0,22.58,31.09Z"/><path class="cls-1" d="M25.65,24a20.19,20.19,0,0,1-.53,2.51,4.93,4.93,0,0,1,1-1.57A3.19,3.19,0,0,1,25.65,24Z"/><path class="cls-1" d="M23.71,29.83a.41.41,0,0,1-.05.09,6,6,0,0,1-.47.6,2.73,2.73,0,0,1,.48-.1Z"/><path class="cls-1" d="M26.54,18.62l-1-2.14a17.76,17.76,0,0,1,.4,3.62A11.4,11.4,0,0,1,26.54,18.62Z"/><path class="cls-1" d="M31.62,48.49c-.23,0-.47.08-.71.12-.92.14-1.8.27-2,.75l1-.29A12.74,12.74,0,0,0,31.62,48.49Z"/><path class="cls-1" d="M72.65,37c-.11-1.84-2-3.23-5.05-3.8a4.87,4.87,0,0,1-2.12-.73,4.27,4.27,0,0,1,.59-1c.71-1,2-2.92,1.19-4.77s-3.49-2.17-4.35-2.25a11.22,11.22,0,0,0-1.15-.06,12.82,12.82,0,0,0-6.25,1.69.91.91,0,0,0-.16-.11,8.92,8.92,0,0,0-3.54-4.61,46.33,46.33,0,0,0-1.4-6.27L49.7,1.34A1.41,1.41,0,0,0,48.28,0L48,0A1.41,1.41,0,0,0,46.62,1.5l.52,10.12C45,9.86,42.09,8,39.81,8h-.26A3.39,3.39,0,0,0,37,9.26c-1.52,1.9.26,3.86,1.33,5,.13.13.29.31.44.49-.52-.08-1.17-.23-1.8-.39a15.88,15.88,0,0,0-3.49-.56,3.65,3.65,0,0,0-3.84,2.63,3,3,0,0,0,0,1.92,9.65,9.65,0,0,0-1.85-.94l-1.38-2.9a.61.61,0,0,0-.05-.12l.53-7.93a1.38,1.38,0,0,0-.35-1,1.42,1.42,0,0,0-1-.48l-.34,0a1.43,1.43,0,0,0-1.42,1.32L23.61,10c-2.33-2.66-5-4.23-7.24-4.23a4.94,4.94,0,0,0-.68,0,3.39,3.39,0,0,0-2.86,2.46,4.58,4.58,0,0,0,1,4.17h0a5.38,5.38,0,0,1-.84.05c-.57,0-1.23-.05-1.88-.1S9.69,12.28,9,12.28c-3.4,0-4.28,1.68-4.42,3.08-.3,3.08,2.8,3.76,4.66,4.17a9.32,9.32,0,0,1,2.08.6c.06.37-1,1.41-1.47,1.91-1.29,1.31-3.44,3.49-1.75,6a3.3,3.3,0,0,0,2.84,1.55A9.15,9.15,0,0,0,15,28.13a8.39,8.39,0,0,1,2.3-1A7.65,7.65,0,0,1,17.93,29,8.38,8.38,0,0,0,19,31.71a8.33,8.33,0,0,0-.89.55,39.27,39.27,0,0,0-3.83-1.64,16.76,16.76,0,0,0-5.54-1.21A4.42,4.42,0,0,0,4.7,31.36a3.53,3.53,0,0,0-.52,2.94c.48,1.61,2.07,2.36,3.48,3,.28.14.69.32,1,.49a10.35,10.35,0,0,1-2.79.86c-2.41.52-6.46,1.39-5.79,5.7C.45,46.78,2.23,48,5.35,48c.83,0,1.67-.08,2.5-.16a14.73,14.73,0,0,0-1.24,9.75C5.94,59,4.5,62.74,7.05,66a4.92,4.92,0,0,0,3.3,4.92,4.05,4.05,0,0,0,1.29.21,4.89,4.89,0,0,0,4.18-2.7,4,4,0,0,0,1.25-.72,6.26,6.26,0,0,0,2-4,5.28,5.28,0,0,0,1-.8L17.67,99.43A1.42,1.42,0,0,0,19,100.94h.34a1.41,1.41,0,0,0,1.41-1.32l2.56-38.52a12.54,12.54,0,0,0,1.09-1.94c.09-.18.19-.4.3-.6.2.5.4,1.14.54,1.6.64,2,1.29,4.12,3.05,4.83a3.1,3.1,0,0,0,1.09.2,3.78,3.78,0,0,0,1.82-.51l.12-.07.11,0a4.35,4.35,0,0,0,1.72.38,3.55,3.55,0,0,0,1.48-.32,4.13,4.13,0,0,0,1-.69,5.29,5.29,0,0,0,2.46,2A4.44,4.44,0,0,0,41,68a3.66,3.66,0,0,0,.57,0,4.27,4.27,0,0,0,2.92-1.31,7.33,7.33,0,0,0,3.68-7,8.19,8.19,0,0,0,1.41-1.79L51.65,98.8a1.45,1.45,0,0,0,.47,1,1.41,1.41,0,0,0,.94.36l.33,0a1.42,1.42,0,0,0,1.34-1.49l-2-39.08c.63,1.75,1.87,3.87,4.28,4.48a4.41,4.41,0,0,0,1.06.14,3.43,3.43,0,0,0,2.13-.73,5.54,5.54,0,0,0,1.75-3.69,4.37,4.37,0,0,0,1.45-1.24,5.43,5.43,0,0,0,.89-3.89,3.36,3.36,0,0,0,.3-2.59,7.78,7.78,0,0,0,.85-1.93l.46,0A5.73,5.73,0,0,0,69.39,49a3.32,3.32,0,0,0,1.35-2.26c.23-1.91-1.2-3.71-2.27-5-.17-.23-.33-.42-.46-.6a14.49,14.49,0,0,1,1.61-.59C71.61,39.86,72.74,38.57,72.65,37Zm-6.24,3.57c-.1.29,0,.66.37,1.17q.24.33.6.78c.89,1.11,2.11,2.64,2,3.95a1.91,1.91,0,0,1-.8,1.32,4.6,4.6,0,0,1-4.27.62A6.25,6.25,0,0,1,62.91,52c.84.93.07,2.13-.11,2.38a4.37,4.37,0,0,1-.56,3.35,2.84,2.84,0,0,1-1.66,1.09c0,.51-.11,2.64-1.28,3.57a2,2,0,0,1-1.25.42,2.59,2.59,0,0,1-.71-.1c-3-.76-3.73-5-3.81-5.62a6.1,6.1,0,0,1-2.46-1.76l2.24,43.44h-.25L50.8,54.9a4,4,0,0,1-.41-.86,4.52,4.52,0,0,1-.18-2,8.72,8.72,0,0,1-1,1.43,6.56,6.56,0,0,1-2.58,5.7,5.9,5.9,0,0,1-3,6.45,3,3,0,0,1-2.07,1,1.87,1.87,0,0,1-.34,0,3.41,3.41,0,0,1-2.12-1.78,3.8,3.8,0,0,1-2.53-2.16,5.09,5.09,0,0,1-.3-2.32A5.25,5.25,0,0,1,34,63.44a2.09,2.09,0,0,1-.89.19A3,3,0,0,1,32,63.37a3.55,3.55,0,0,1-.77-.45,2.92,2.92,0,0,1-.71.53,2.39,2.39,0,0,1-1.13.34,1.56,1.56,0,0,1-.57-.11c-1.13-.45-1.68-2.22-2.21-3.93-.46-1.45-.89-2.83-1.6-3.13s-1.28.72-1.87,1.93a9.16,9.16,0,0,1-1.21,2l-2.59,39-.25,0,2.57-38.68a1.64,1.64,0,0,1-1.9.23l0,0a3.9,3.9,0,0,1-2,1.68c-.18,2.27-.95,3.36-1.58,3.88a2.47,2.47,0,0,1-1.3.59c-.87,1.85-2.12,2.5-3.22,2.5a2.61,2.61,0,0,1-.85-.14,3.51,3.51,0,0,1-2.27-4c-2.95-3.15-.7-7.24-.42-7.71-1-4.88.18-8,1.32-9.86a9.91,9.91,0,0,1,1.43-1.76,20.12,20.12,0,0,0-2.66.18c-2.93.31-6.26.66-6.72-2.23S3.63,40.59,6.16,40c1.69-.36,3.29-.71,4-1.73a1,1,0,0,0,.19-.81c-.16-.59-1.08-1-2.06-1.47-1.19-.56-2.43-1.13-2.73-2.14a2.19,2.19,0,0,1,.38-1.79c1-1.64,3.68-1.69,7.93-.15a43.31,43.31,0,0,1,4.53,2,5.88,5.88,0,0,1,2.25-1.37,7.56,7.56,0,0,1,1-1.12,2.51,2.51,0,0,1-.27,0,2,2,0,0,1-.34,0c-1-.2-1.4-1.57-1.75-2.89s-.77-2.86-1.92-2.87h0a7.59,7.59,0,0,0-3,1.17c-1.91,1-3.89,2.1-5.07.36-1-1.54.3-2.89,1.59-4.2,1-1,2-2.06,1.86-3.14s-1.63-1.41-3.18-1.76c-1.83-.4-3.73-.82-3.55-2.64.21-2.08,2.68-1.88,5.07-1.69,1.53.12,3.11.25,3.93-.27a1.21,1.21,0,0,0,.61-.7c.07-.37-.22-.77-.56-1.23a3.22,3.22,0,0,1-.82-2.95,2,2,0,0,1,1.7-1.45c2-.3,5.28,1.37,8.24,5.8a8.12,8.12,0,0,1,.61,1.13l.52-7.75h.25L25,14.65l.17.45,1.66,3.48c4.37,1.45,4.29,4.32,4.21,5,2.86.53,3.13,3.52,3.15,4.05a5,5,0,0,1,2.51,6.56,6,6,0,0,1,2.08,4.61,8.53,8.53,0,0,1-.33,2.57,5.71,5.71,0,0,1,1.78,2.4,9.57,9.57,0,0,1,2.71-2.08c1.11-4.78,4.49-5.89,5.85-6.15.23-.45.48-.89.75-1.34l.17-.79-.3-5.9c-1.38.75-2.18-.39-3-1.62S44.8,23.6,43.5,23.49s-1.69,1.44-2.12,3.09c-.35,1.33-.71,2.69-1.58,3.17a1.43,1.43,0,0,1-.72.18,2.27,2.27,0,0,1-.65-.11c-2.64-.83-2-2.95-1.43-5a7.7,7.7,0,0,0,.48-3.63c-.17-.8-1.53-1.12-3-1.47s-2.89-.69-3.4-1.58A1.59,1.59,0,0,1,31,16.88c.7-2.29,3.33-1.65,5.66-1.1,1.82.44,3.53.85,4-.17.26-.58-.52-1.44-1.27-2.27-1-1.1-2-2.24-1.27-3.19a2,2,0,0,1,1.49-.74h.17c3,0,8,4.58,8.92,5.5L48,1.43h.25L49,15.36a43.11,43.11,0,0,1,1.49,6.87,7.58,7.58,0,0,1,3.65,4.69,6,6,0,0,1,1.26.92,11.47,11.47,0,0,1,7.38-1.95c1.78.17,2.82.64,3.19,1.44.51,1.1-.47,2.51-1.06,3.35s-1.07,1.63-.77,2.36,1.37,1.25,3.2,1.59c2.37.44,3.83,1.37,3.89,2.49,0,.84-.71,1.59-2,2C67.39,39.68,66.58,40.12,66.41,40.61ZM31.59,20.29a13.53,13.53,0,0,0,2.6.81,11,11,0,0,1,1.94.59,8.11,8.11,0,0,1-.5,2.74c-.11.4-.25.87-.36,1.38a5.16,5.16,0,0,0-2.87-3.32A5.42,5.42,0,0,0,31.59,20.29Zm6.86,11a3.52,3.52,0,0,0,.63.06A2.84,2.84,0,0,0,40.49,31c1.4-.77,1.85-2.51,2.26-4.06a8.25,8.25,0,0,1,.7-2c.56.1,1,.76,1.73,1.74s1.51,2.19,2.86,2.43l.22,4.18-.08.37c-.13.21-.25.42-.37.64a8.75,8.75,0,0,0-6.12,6.43,10.49,10.49,0,0,0-1.15.79,8.11,8.11,0,0,0-.55-.64,11.24,11.24,0,0,0,.18-2.12,7.51,7.51,0,0,0-1.89-5A7.1,7.1,0,0,0,38.45,31.29Z"/><path class="cls-1" d="M26.85,33.84a2.49,2.49,0,0,1-1.68-1.27,4.61,4.61,0,0,1,.19-3.39A2.77,2.77,0,0,1,25,27a12.93,12.93,0,0,1-1,2.38l-.82,12.44a33.34,33.34,0,0,1,3.68.71,1.34,1.34,0,0,1,.15-.29,2,2,0,0,1,.76-.7,7.3,7.3,0,0,1-1.27-3.86A13,13,0,0,1,26.85,33.84Zm-2.18,6.75.4-6,.17.11a13.71,13.71,0,0,0-.17,3.07,9.21,9.21,0,0,0,.69,3Z"/><path class="cls-1" d="M50.52,22.54c.21,2.12.07,4.05-.9,4.78l.31,5.94h0l0,.12v.11c.25-.37.51-.73.78-1.09a5.65,5.65,0,0,1,.42-.91,8.6,8.6,0,0,1,1.43-1.87,2.85,2.85,0,0,1,1.31-2.71A7.29,7.29,0,0,0,50.52,22.54Zm.61,6.53-.06-1.21a4.55,4.55,0,0,0,.81-2.06,6.23,6.23,0,0,1,.36.68A4.11,4.11,0,0,0,51.13,29.07Z"/><path class="cls-1" d="M30.19,55l-.4.1a7.23,7.23,0,0,0,.91,2.63c.11.25.23.5.35.75.18-.38.37-.76.56-1.12.55-1,1.07-2,.78-2.44S31.21,54.77,30.19,55Z"/></svg>