<svg id="圖層_1" data-name="圖層 1" xmlns="http://www.w3.org/2000/svg" viewBox="0 0 99.24 85.01"><defs><style>.cls-1{fill:#fff;}</style></defs><title>0</title><path class="cls-1" d="M62.38,19.08a9.28,9.28,0,0,1-.32,1.06,3.13,3.13,0,0,0,.72-.27C62.63,19.61,62.5,19.34,62.38,19.08Z"/><path class="cls-1" d="M26.56,46.53l.08,0a8,8,0,0,1,3.14-.06,20,20,0,0,0,2.06.14h.1a6,6,0,0,0,2.88-.74,52.1,52.1,0,0,0-2-6.3A11.52,11.52,0,0,1,26.56,46.53Zm5.28-1.31-.88,0a12.77,12.77,0,0,0,1.62-2c.2.61.38,1.23.55,1.84A4.72,4.72,0,0,1,31.84,45.22Z"/><path class="cls-1" d="M28.38,34.92c.12,0,.11.1.07.38v.09h-.07c-.15.54-.32,1.05-.49,1.54a11.23,11.23,0,0,1,2.73-2.16,39.88,39.88,0,0,0-6.89-9.91l-.08,0a3.7,3.7,0,0,1,.55,2.31c-.09.92-.23,1.76-.36,2.5-.32,1.81-.57,3.24.11,4.74a3.46,3.46,0,0,1,.15,2.43,10.05,10.05,0,0,1,4.08-1.69C28.25,34.93,28.27,34.9,28.38,34.92Zm-2.91-.42c-.07-.22-.15-.43-.24-.64-.5-1.1-.3-2.22,0-3.92.05-.29.11-.61.16-1a45.1,45.1,0,0,1,2.93,4.51,1.43,1.43,0,0,0-1,.42A12.07,12.07,0,0,0,25.47,34.5Z"/><path class="cls-1" d="M74.46,35.59a3.46,3.46,0,0,1-1.29-.9l0,.21c-.06.43-.11.88-.14,1.33a4.5,4.5,0,0,1,0,2,2.87,2.87,0,0,0,.73,1.6c.64.64,1.69.84,3.19.63a14.66,14.66,0,0,1,.71-3.62c.09-.26.18-.51.28-.76-.26,0-.53,0-.79,0A7,7,0,0,1,74.46,35.59Zm1.23,3.49a1.46,1.46,0,0,1-.91-.29,1.33,1.33,0,0,1-.29-.62,6,6,0,0,0,.06-1,8.31,8.31,0,0,0,1.47.3A15.54,15.54,0,0,0,75.69,39.08Z"/><path class="cls-1" d="M98.59,28.81l-.14-.09a22.72,22.72,0,0,0-9.59-3.94,20.76,20.76,0,0,0,2.9-7.2l0-.17a1.42,1.42,0,0,0-.39-1.22,1.38,1.38,0,0,0-1-.43l-.2,0-.16,0c-.09,0-7.64,1.14-11,6.42a7,7,0,0,0-1.34-1.49c1.55-2.27,3-6,2.76-11.83V8.69a1.43,1.43,0,0,0-.73-1.19,1.49,1.49,0,0,0-.68-.17,1.41,1.41,0,0,0-.72.19l-.19.12a21.12,21.12,0,0,0-5,4.28,17,17,0,0,0-1.58,2.21,15.33,15.33,0,0,0-7.83-5.81l-.12,0a1.48,1.48,0,0,0-.46-.08,1.33,1.33,0,0,0-.65.16,1.4,1.4,0,0,0-.71.85l0,.12a17.06,17.06,0,0,0-.51,3.23A7,7,0,0,0,56.4,9.38a7.2,7.2,0,0,0-1.14-.09,8.72,8.72,0,0,0-1.62.16A18.72,18.72,0,0,0,51.73,1L51.66.84a1.4,1.4,0,0,0-1-.81,1.43,1.43,0,0,0-1.24.33l-.14.13a21.52,21.52,0,0,0-2.67,3,12.56,12.56,0,0,0-2.68,7.25,2.09,2.09,0,0,1,0,.25,8.8,8.8,0,0,0-3.14.6,11.4,11.4,0,0,0-5.39,4.95,6.5,6.5,0,0,0-1.31-.14,4.4,4.4,0,0,0-4.23,3,8.2,8.2,0,0,0-.57,2.69c-.39-.34-.78-.66-1.19-1a9.36,9.36,0,0,0,.73-.81c2.31-2.92,3-7.21,2.07-12.76l0-.16a1.42,1.42,0,0,0-.73-1,1.38,1.38,0,0,0-1.25,0l-.16.07a20.92,20.92,0,0,0-3.53,2.15,19.06,19.06,0,0,0-2,1.78,17,17,0,0,0-7.72-6.81l-.12-.06a1.42,1.42,0,0,0-.63-.15,1.4,1.4,0,0,0-1.33.93l-.05.14a18.86,18.86,0,0,0-.65,8.93,5.67,5.67,0,0,0-1.62,1A5.83,5.83,0,0,0,9,20.1H8.92a17.6,17.6,0,0,0-7.28,1.72l-.15.07A1.43,1.43,0,0,0,1,24.08l.1.13a19.18,19.18,0,0,0,3.51,3.11A12.32,12.32,0,0,0,.19,32l0,.11A1.41,1.41,0,0,0,.74,34L.85,34A17.52,17.52,0,0,0,7.61,36.2c-.22,2.5.69,5.09,2.71,7.72l.08.1a1.43,1.43,0,0,0,1.95.29l.1-.07A14.07,14.07,0,0,0,16.14,40a19.24,19.24,0,0,0,3.16.65,14.55,14.55,0,0,0-1.23,4.08l0,.13a1.41,1.41,0,0,0,.1.68,14.67,14.67,0,0,0-2.62,1.21l-.12.08a1.43,1.43,0,0,0-.65,1,1.4,1.4,0,0,0,.35,1.14l.1.11c3.06,3.41,6.3,5.14,9.71,5.14a7.93,7.93,0,0,0,1.37-.12,14.59,14.59,0,0,1,1.15,1.2,17.24,17.24,0,0,1,1.31,1.82c.94,1.46,1.92,3,4.81,3a10.18,10.18,0,0,0,2.34,4.13l.09.1a1.41,1.41,0,0,0,1,.48h0a1.42,1.42,0,0,0,1-.42l.08-.09a7.91,7.91,0,0,0,.82-1c.8,1.88,1.64,3.67,2.5,5.35,3.91,7.6,8.39,12.93,13.29,15.85a3.94,3.94,0,0,0,2,.55,4.06,4.06,0,0,0,1-.14A3.83,3.83,0,0,0,60.18,83a3.9,3.9,0,0,0-.35-4.28c-.42-.53-1-1.32-1.72-2.32a68.76,68.76,0,0,0,10.41-17l.54-1.32c1.87-4.55,3.49-8.48,7.13-10.24l.52-.25A23.4,23.4,0,0,0,80,53.38l.1.12a1.35,1.35,0,0,0,1.06.55h.06a1.4,1.4,0,0,0,1-.46l.1-.12a22.86,22.86,0,0,0,3.9-6.64,17.32,17.32,0,0,0,4.54,2.05l.15,0a1.39,1.39,0,0,0,.4.06,1.45,1.45,0,0,0,.8-.25,1.41,1.41,0,0,0,.61-1.05l0-.18A24.49,24.49,0,0,0,92,40.3,19,19,0,0,0,89.76,35a19.07,19.07,0,0,0,8.82-3.79l.14-.11a1.42,1.42,0,0,0-.13-2.28ZM62.38,19.08c.12.26.25.53.4.79a3.13,3.13,0,0,1-.72.27A9.28,9.28,0,0,0,62.38,19.08Zm35.31,11s-4.4,3.55-9.34,3.55a8.37,8.37,0,0,1-1,0c-.17,0-.33-.05-.5-.07a16.38,16.38,0,0,1,3.81,7.13,22.93,22.93,0,0,1,.72,6.76v.15l-.15,0a14.62,14.62,0,0,1-5.68-3.05c-.09.34-.18.67-.28,1a21.47,21.47,0,0,1-3.93,7.07l-.1.11-.09-.12a21.13,21.13,0,0,1-3.61-7c-.62.34-1.27.67-2,1-4.13,2-5.92,6.35-7.82,11l-.54,1.3A68.38,68.38,0,0,1,56.34,76.31c1,1.45,1.82,2.58,2.37,3.28a2.46,2.46,0,0,1,.23,2.72,2.43,2.43,0,0,1-1.52,1.19,2.37,2.37,0,0,1-.65.09,2.51,2.51,0,0,1-1.28-.35c-4.68-2.78-9-7.92-12.76-15.28a85.7,85.7,0,0,1-3.65-8.22,8.73,8.73,0,0,1-1.93,3.54l-.09.1L37,63.27a7.54,7.54,0,0,1-2.21-4.8,3.33,3.33,0,0,1-1.07.19h-.07c-2.14,0-2.76-.94-3.68-2.36a18.43,18.43,0,0,0-1.41-2,19.47,19.47,0,0,0-1.81-1.82,7.47,7.47,0,0,1-1.81.23h-.07c-2.91,0-5.79-1.57-8.58-4.67L16.17,48l.12-.07A14.15,14.15,0,0,1,24,46a18.77,18.77,0,0,1,.51-2.73c.05-.18.1-.37.16-.57A6.32,6.32,0,0,1,20,45h-.51l0-.13a13.13,13.13,0,0,1,2.35-5.74,4.11,4.11,0,0,1-1.18.19h-.32a17.45,17.45,0,0,1-4.94-1.07,12.09,12.09,0,0,1-3.77,4.88l-.1.08-.07-.1c-2-2.63-2.8-5.16-2.3-7.54a5.59,5.59,0,0,1,.2-.73c-.26,0-.51,0-.78,0a15.18,15.18,0,0,1-7-2.06l-.1-.06.05-.1a11.06,11.06,0,0,1,6.17-5.15,17.56,17.56,0,0,1-5.46-4.14l-.1-.13.14-.07a15,15,0,0,1,8.49-1.46c0-.12-.05-.24-.07-.36-.44-2-.88-4.06,1.34-5.91a3.73,3.73,0,0,1,2.46-1,16.92,16.92,0,0,1,.23-9.55l.05-.14.12.07c4.13,2,6.78,4.72,7.89,8l.06.21a15,15,0,0,1,3.28-3.32,20.33,20.33,0,0,1,3.27-2l.15-.07,0,.16c.86,5.14.26,9.06-1.79,11.65a7.45,7.45,0,0,1-1.33,1.31,6.12,6.12,0,0,1,0,.88,26.72,26.72,0,0,1,5.21,4.82l-.13-.2a8.36,8.36,0,0,1-.26-6.3,3.17,3.17,0,0,1,1.93-2,4.21,4.21,0,0,1,2.26,0l.8.14A10.58,10.58,0,0,1,41.32,13a7.67,7.67,0,0,1,4.37-.34,6.38,6.38,0,0,1-.34-1.86,11.16,11.16,0,0,1,2.41-6.39,20,20,0,0,1,2.48-2.83l.13-.11.07.15c1.79,4,2.24,7.41,1.38,10.09l.22-.1a6.42,6.42,0,0,1,4.15-.78,5.72,5.72,0,0,1,4.13,2.9,7.36,7.36,0,0,1-.6,7.9l.2,0a5.86,5.86,0,0,0,3.58-.51l.47-.25.86-.47a9,9,0,0,1-.62-.86c-2.67-4.32-1.08-9.71-1.06-9.77l0-.12.12,0a13.89,13.89,0,0,1,8.41,7.56,13.91,13.91,0,0,1,2.55-4.39,20.08,20.08,0,0,1,4.6-4l.18-.1V9c.24,6.66-1.71,10.26-3.42,12.12a5.71,5.71,0,0,1,2.6,2.52,2.76,2.76,0,0,0,1.21,1.06c2.18-6.14,10.68-7.44,10.78-7.46l.17,0,0,.17c0,.08-1,5.74-4.64,8.89,3.35-.57,7.37.64,12,3.66l.14.09Z"/><path class="cls-1" d="M49.66,36.9a12.06,12.06,0,0,1,5.23-5.18,9.5,9.5,0,0,1,4.78-.81C59.21,29.86,58.8,29,58,28.78a2.73,2.73,0,0,1-.66-.28c-.66.06-1.29.09-1.9.09a11.92,11.92,0,0,1-6.19-1.46A50,50,0,0,1,49.66,36.9ZM55.37,30a8.37,8.37,0,0,0-1.08.43,11.5,11.5,0,0,0-3.15,2.17c0-1.13-.07-2.19-.15-3.21A15.2,15.2,0,0,0,55.37,30Z"/><path class="cls-1" d="M57.09,53.64a8.87,8.87,0,0,1-2.37-.3l-.11,0,0-.11a15.81,15.81,0,0,1,1.71-4.73,13.81,13.81,0,0,1-3.5-1.93l-.11-.09.1-.1A11.24,11.24,0,0,1,56.24,44a13.55,13.55,0,0,1-5.31-5c-.45-.1-.9-.22-1.37-.35-.14,2.23-.35,4.5-.56,6.81-.18,2-.36,4-.51,6-.43,6.09,1.14,12.63,4.65,19.42,2.8-5.57,5.7-11.89,8.64-18.83-.18.14-.36.29-.56.42A7.52,7.52,0,0,1,57.09,53.64Zm-3.93,14a33.56,33.56,0,0,1-3.25-16.09c.14-2,.32-3.94.49-5.86v-.12c.13-1.36.26-2.84.38-4.34A16.1,16.1,0,0,0,53.46,44a14.84,14.84,0,0,0-1.63,1.39l-.09.1a1.39,1.39,0,0,0-.42,1.08,1.44,1.44,0,0,0,.52,1l.12.09a14.78,14.78,0,0,0,2.44,1.52,18.58,18.58,0,0,0-1.15,3.73l0,.12a1.41,1.41,0,0,0,1,1.64l.09,0a9.86,9.86,0,0,0,2.8.37A10.32,10.32,0,0,0,59,54.87C57.05,59.46,55.08,63.75,53.16,67.68Z"/><path class="cls-1" d="M42,38.33a9,9,0,0,1-3.44-.75l.52,1.15c1.47,3.33,2.37,5.35,4.38,5.16a1.66,1.66,0,0,0,1.23-.62c.88-1.11.58-3.54.27-5.75A5.42,5.42,0,0,1,42,38.33Zm1.58,4.05s-.06.08-.25.1h-.12c-.7,0-1.31-1-2.15-2.8a7.5,7.5,0,0,0,.94.05,7.89,7.89,0,0,0,1.78-.2C43.87,40.72,43.9,42,43.56,42.38Z"/></svg>