<svg id="圖層_1" data-name="圖層 1" xmlns="http://www.w3.org/2000/svg" viewBox="0 0 83.35 96.58"><defs><style>.cls-1{fill:#fff;}</style></defs><title>0</title><path class="cls-1" d="M34.28,26a8.62,8.62,0,0,1,0-.88l-.41-.05Z"/><path class="cls-1" d="M50.77,33.43c-.16,0-.32-.11-.48-.16a9.1,9.1,0,0,1-.23,2.32c-.86,3.6-3.77,6.18-5.59,7.49a6.25,6.25,0,0,0,2.9.26c3.65-.54,5.57-5,6.83-10.18a5.55,5.55,0,0,1-2.11.42A6.07,6.07,0,0,1,50.77,33.43Zm-2.44,8.1a13,13,0,0,0,3.11-5.61c.07-.31.13-.62.17-.94a3.85,3.85,0,0,0,.48,0h.14C51.17,38.51,49.88,40.66,48.33,41.53Z"/><path class="cls-1" d="M83.16,16.55a1.55,1.55,0,0,0,.07-1.33,1.52,1.52,0,0,0-1-.9,20.62,20.62,0,0,0-5.54-.84,12.55,12.55,0,0,0-4,.6,29.69,29.69,0,0,0-.07-6.64A1.55,1.55,0,0,0,72,6.32a1.53,1.53,0,0,0-.86-.26,1.83,1.83,0,0,0-.4.05,17.76,17.76,0,0,0-8.52,5.71l-.32-.18a13.14,13.14,0,0,0-6.3-1.49,23.42,23.42,0,0,0-7.8,1.53,1.54,1.54,0,0,0-.86,2.14A16.76,16.76,0,0,0,55.05,21c0,.08,0,.16,0,.25a6.33,6.33,0,0,0-1.27-.43,7,7,0,0,0-1.64-.19,7.17,7.17,0,0,0-4.39,1.5,7,7,0,0,0-2.51-2.61c2.06-5.9-2.28-13-2.34-13.13a1.52,1.52,0,0,0-1.06-.71l-.25,0a1.67,1.67,0,0,0-1.08.45c-2.75,2.75-4.38,5.53-4.86,8.3a17.08,17.08,0,0,0-5-1.33c1-3.55.51-7.63-1.35-12.14A1.55,1.55,0,0,0,28.21.05a1.73,1.73,0,0,0-.38,0,1.71,1.71,0,0,0-1,.38,22.13,22.13,0,0,0-4.62,6,14.92,14.92,0,0,0-1.36,3.87,7.09,7.09,0,0,0-4,2,12.15,12.15,0,0,0-7.1-1.94,26.42,26.42,0,0,0-5.44.64A1.55,1.55,0,0,0,3.15,13a15.91,15.91,0,0,0,3,4.68A23.52,23.52,0,0,0,.48,21.83a1.55,1.55,0,0,0,.35,2.49,22.18,22.18,0,0,0,7.26,2.09c.34,0,.68.06,1,.07a7.2,7.2,0,0,0,1.65,3.82A23.68,23.68,0,0,0,5.7,37.16a1.58,1.58,0,0,0,0,1.36,1.55,1.55,0,0,0,1.07.81,23.73,23.73,0,0,0,4.56.49,13.52,13.52,0,0,0,5.9-1.22,32.45,32.45,0,0,0-2.95,5.21,1.53,1.53,0,0,0,0,1.29,1.51,1.51,0,0,0,1,.85,17.33,17.33,0,0,0,4.48.55,15.19,15.19,0,0,0,5.59-1,7.18,7.18,0,0,0,4.46,3.22,7.66,7.66,0,0,0,1.65.19,7.05,7.05,0,0,0,3.76-1.08,6.61,6.61,0,0,0,1.71-1.49c.7,1,1.42,2.08,2.17,3.2C49.35,64.94,50.23,77.19,50.81,85.3c.36,4.94.59,8.21,2.79,10a5.82,5.82,0,0,0,3.91,1.24,12.77,12.77,0,0,0,1.33-.08A4.16,4.16,0,0,0,62,94.65c2.31-3.51,0-11.2-2.77-20.12-1.84-6-3.74-12.24-3.94-16.65-.25-5.22,1.25-9.14,3-13.66a18.59,18.59,0,0,0,4.17,7.14,1.56,1.56,0,0,0,1.22.53h0a1.56,1.56,0,0,0,1.19-.64,21,21,0,0,0,2.09-3.69,17.23,17.23,0,0,0,1-2.86c.19.2.38.4.58.59a13.18,13.18,0,0,0,8.62,3.37h.11a1.54,1.54,0,0,0,1.5-1.52c.06-4.12-.74-7.38-2.4-9.73a23.12,23.12,0,0,0,3.43-1.16,1.55,1.55,0,0,0,.86-1.91,12.64,12.64,0,0,0-1.78-3.25,22.06,22.06,0,0,0,3-.7,1.49,1.49,0,0,0,1-.92,1.53,1.53,0,0,0-.13-1.36,18.33,18.33,0,0,0-4.86-5.45A23,23,0,0,0,83.16,16.55Zm-8,6.19c2.34,1,4.49,3,6.41,6.12a.12.12,0,0,1,0,.1.11.11,0,0,1-.08.08,22.09,22.09,0,0,1-5.63.92,11.92,11.92,0,0,1,3.46,4.83.14.14,0,0,1-.07.16,19.14,19.14,0,0,1-5.74,1.51l.19.14c2.5,2,3.73,5.59,3.65,10.52a.12.12,0,0,1-.12.12h-.07a11.85,11.85,0,0,1-7.65-3,10.65,10.65,0,0,1-2.63-4A12.92,12.92,0,0,1,65.63,47a20.08,20.08,0,0,1-1.95,3.43.11.11,0,0,1-.09,0h0a.11.11,0,0,1-.09,0C60.41,47,59,43.54,59.25,40.31A9.1,9.1,0,0,1,59.77,38a7.72,7.72,0,0,1-.61-.53c-.72,2.31-1.5,4.37-2.23,6.26-1.79,4.69-3.34,8.74-3.08,14.27.21,4.59,2.14,10.9,4,17,2.51,8.21,4.88,16,2.94,18.91a2.75,2.75,0,0,1-2.11,1.22,9.92,9.92,0,0,1-1.18.07,4.48,4.48,0,0,1-3-.9c-1.74-1.45-1.95-4.48-2.28-9.06-.6-8.26-1.5-20.74-12-36.44-1.22-1.83-2.36-3.5-3.44-5.06a5.67,5.67,0,0,1-5.37,3.8,6,6,0,0,1-1.33-.15,5.75,5.75,0,0,1-4.1-3.7,13.52,13.52,0,0,1-6.27,1.43,16.45,16.45,0,0,1-4.08-.49.12.12,0,0,1-.08-.06.11.11,0,0,1,0-.11,24.54,24.54,0,0,1,5.07-7.62c-.28-.74-.52-1.46-.73-2.16a8.12,8.12,0,0,1-1.37,1.46,10.87,10.87,0,0,1-7.2,2.3,21.71,21.71,0,0,1-4.28-.46A.13.13,0,0,1,7,37.87a.2.2,0,0,1,0-.11,21.63,21.63,0,0,1,5.94-7.39A5.74,5.74,0,0,1,10.52,25q-.45,0-.9,0A12.74,12.74,0,0,1,8.22,25a20.64,20.64,0,0,1-6.74-1.94A.11.11,0,0,1,1.42,23a.12.12,0,0,1,0-.11,19.57,19.57,0,0,1,7.35-4.75,14,14,0,0,1-4.33-5.63.12.12,0,0,1,0-.1.13.13,0,0,1,.09-.07c5.27-1.12,9.24-.67,11.78,1.34a6.61,6.61,0,0,1,.67.6,5.65,5.65,0,0,1,1.82-1.82,5.71,5.71,0,0,1,3.23-.86A12.69,12.69,0,0,1,23.46,7a20.57,20.57,0,0,1,4.28-5.55.13.13,0,0,1,.12,0,.14.14,0,0,1,.08.07c2.43,5.89,1.95,10.07.72,12.88,2.5.11,5.79.64,8.23,2.45-.24-3.15,1.29-6.4,4.57-9.67a.1.1,0,0,1,.1,0,.11.11,0,0,1,.09.06c.06.09,4.66,7.71,1.69,13.07a5.78,5.78,0,0,1,3.81,4.65A5.75,5.75,0,0,1,56,23.62c.23-1.3.45-2.49.69-3.52a15.08,15.08,0,0,1-8.5-6.91.14.14,0,0,1,0-.11.14.14,0,0,1,.08-.07c5.24-1.88,9.59-1.92,12.95-.12a10.54,10.54,0,0,1,1.38.89c2.74-4.69,8.44-6.29,8.5-6.3a.12.12,0,0,1,.1,0,.11.11,0,0,1,0,.09,24.34,24.34,0,0,1-.44,9.08l.13-.11c2.65-1.87,6.32-2.17,10.9-.87a.11.11,0,0,1,.08.07.11.11,0,0,1,0,.11C81.87,15.94,79.19,20.65,75.11,22.74Z"/><path class="cls-1" d="M26.88,29.65a11.44,11.44,0,0,1-2.63,4.79c.31-.12.63-.23.94-.32a8.58,8.58,0,0,1,5.08.21C29,32.45,27.88,30.76,27,29.16,27,29.32,26.92,29.49,26.88,29.65Z"/><path class="cls-1" d="M41.45,31.43a5.4,5.4,0,0,1-1.31-.16,5.75,5.75,0,0,1-4.29-6.92c0-.21.12-.42.19-.63-.21,0-.41,0-.63,0a8.82,8.82,0,0,1-2.7-.41,9,9,0,0,1-1.32-.55c.39.9.79,1.85,1.2,2.83,2.5,5.94,5.43,12.9,9.4,16.07a13.4,13.4,0,0,1,.84-10.45A5.67,5.67,0,0,1,41.45,31.43ZM34.28,26l-.39-.93.41.05A8.62,8.62,0,0,0,34.28,26Zm5.63,11.23a47.37,47.37,0,0,1-3.56-6.5,7.13,7.13,0,0,0,3.46,1.93,6.86,6.86,0,0,0,.79.14A13.52,13.52,0,0,0,39.91,37.22Z"/></svg>