<svg id="圖層_1" data-name="圖層 1" xmlns="http://www.w3.org/2000/svg" viewBox="0 0 162.55 83.93"><defs><style>.cls-1{fill:#fff;}</style></defs><title>0</title><path class="cls-1" d="M16.06,54.49c-.26,0-.27,0-.55.37a5.34,5.34,0,0,1-.43.5,9.3,9.3,0,0,0,2.52.36h.12C17.19,55,16.65,54.49,16.06,54.49Z"/><path class="cls-1" d="M90.26,38.18A7.93,7.93,0,0,0,91,39.4,10.65,10.65,0,0,1,92.09,38l-.36-.1a2.18,2.18,0,0,1-1.07.27A2.69,2.69,0,0,1,90.26,38.18Z"/><path class="cls-1" d="M113.92,55.59c.52,0,1.07.09,1.63.11-.28-.41-.59-.85-.86-1.34A7,7,0,0,0,113.92,55.59Z"/><path class="cls-1" d="M94.3,30.63a13.89,13.89,0,0,1-1.43,3.66,15.19,15.19,0,0,0,3,.67A9.42,9.42,0,0,1,96,30.19,7.49,7.49,0,0,1,94.3,30.63Z"/><path class="cls-1" d="M91.22,36.57a.79.79,0,0,1-1,.12,10.83,10.83,0,0,0-2.18-.93,9.12,9.12,0,0,0,3.26,6,9.42,9.42,0,0,1,3.91-4.52,18.65,18.65,0,0,1-3.83-.93ZM92.09,38A10.65,10.65,0,0,0,91,39.4a7.93,7.93,0,0,1-.74-1.22,2.69,2.69,0,0,0,.4,0,2.18,2.18,0,0,0,1.07-.27Z"/><path class="cls-1" d="M115.25,51.85a8.39,8.39,0,0,0-2.82,3.62.74.74,0,0,1-.53.47.64.64,0,0,1-.2,0,.81.81,0,0,1-.51-.18,9.91,9.91,0,0,0-7.6-2.26c2.72,1.84,7.42,3.91,14.41,3.56A8.36,8.36,0,0,0,116.81,55,7.84,7.84,0,0,1,115.25,51.85Zm-1.33,3.74a7,7,0,0,1,.77-1.23c.27.49.58.93.86,1.34C115,55.68,114.44,55.64,113.92,55.59Z"/><path class="cls-1" d="M161.17,62.94h-.29a1.4,1.4,0,0,0-1,.39,1.37,1.37,0,0,0-.45,1,7.51,7.51,0,0,1-1.14,4c-.21-.92-.72-2.72-2.63-2.72a3,3,0,0,0-.5.05,3.63,3.63,0,0,0-2.65,2.63c-.39,1-.45,1-.87,1a4.08,4.08,0,0,1-.57-1.17c-.41-1.06-1.09-2.82-3.1-2.82l-.46,0a4.18,4.18,0,0,0-3.22,3,19.64,19.64,0,0,0-.79-2.07,4,4,0,0,0-.57-.93A24.52,24.52,0,0,1,148.83,64a2.22,2.22,0,0,0,1.55-.84,2.17,2.17,0,0,0,.44-1.7A11.1,11.1,0,0,0,147.38,55l.31-.15a9.44,9.44,0,0,0,4.73-4.59c.42-.79.45-.79.62-.82l.22,0a.5.5,0,0,1,.28.07,1,1,0,0,1,.22.42,1.4,1.4,0,0,0,.52.95,1.46,1.46,0,0,0,.89.31h.16l.25,0a1.39,1.39,0,0,0,.95-.53,1.41,1.41,0,0,0,.29-1,3.89,3.89,0,0,0-1.41-2.51,3.47,3.47,0,0,0-2.16-.7,5.43,5.43,0,0,0-.67,0,3.81,3.81,0,0,0-2.89,2.44,6.47,6.47,0,0,1-3.36,3.25,9.67,9.67,0,0,1-2.43.82l-.33-.13c-2-.7-3.39-1.73-3.92-2.94a9.65,9.65,0,0,0,4.5-3.58,7.87,7.87,0,0,1,6.15-4.21,2.21,2.21,0,0,0,2-2.43,16.22,16.22,0,0,1,4-12.33,2.22,2.22,0,0,0-1.66-3.67,2.45,2.45,0,0,0-.39,0,25.3,25.3,0,0,1-4.32.39,20.33,20.33,0,0,1-3.45-.29,10.47,10.47,0,0,0-1-3.29,1.41,1.41,0,0,0-.83-.7,1.29,1.29,0,0,0-.43-.07,1.33,1.33,0,0,0-.65.16l-.23.11a1.42,1.42,0,0,0-.6,1.91,7.84,7.84,0,0,1,.35.89,13,13,0,0,1-5.49-4.14,2.15,2.15,0,0,0-1.48-.89,1.66,1.66,0,0,0-.32,0,2.23,2.23,0,0,0-1.41.52c-2.76,2.32-5.17,3.55-7,3.55a3.68,3.68,0,0,1-.58,0,3,3,0,0,1-2.06-1.4,2.21,2.21,0,0,0-1.49-1l-.38,0a2.27,2.27,0,0,0-1.36.46c-3.24,2.51-5.26,6.45-6.45,9.66a4.62,4.62,0,0,1-2.31-1.14,3.91,3.91,0,0,1-1-2.85,2.21,2.21,0,0,0-2.13-2.26l-1.52,0a24.06,24.06,0,0,0-7.63,1.05c0-.46,0-.89-.08-1.29a7.49,7.49,0,0,1,.16-3.14c.14-.33.26-.41.27-.41h0a.55.55,0,0,1,.19.09,1.36,1.36,0,0,0,.36.61,1.38,1.38,0,0,0,1,.42h.25a1.43,1.43,0,0,0,1.42-1.42,3.16,3.16,0,0,0-2.61-2.72,3.29,3.29,0,0,0-.63-.07,3.35,3.35,0,0,0-3.1,2.3,9.61,9.61,0,0,0-.39,4.58,13.74,13.74,0,0,1,0,2.64A7.91,7.91,0,0,0,96,27.22a8.76,8.76,0,0,0-1.29-3.85c-2.23-3.55-6.15-4.71-9-5.06a6.05,6.05,0,0,0,.1-6.29c-1.6-2.51-4.53-3.83-8.49-3.83A18.21,18.21,0,0,0,74,8.48,2.2,2.2,0,0,0,72.28,10c-.42,1.37-2.53,5.88-11.76,6.72a2.23,2.23,0,0,0-1.37.64,3.31,3.31,0,0,1-2-.91c-.29-.44-.16-.91.24-2s.9-2.38,0-3.66A2.1,2.1,0,0,0,56,9.92a2,2,0,0,0-.34,0,4.1,4.1,0,0,0-2.43,1.18,9.43,9.43,0,0,1-.9.66,2.67,2.67,0,0,1,.31-1.08c.28-.7.88-2.16-.33-3.15A2.07,2.07,0,0,0,51,7.05a6.27,6.27,0,0,0-2.29.64l-.6.23A2.43,2.43,0,0,0,48,4.81a2,2,0,0,0-1.47-.61,3.5,3.5,0,0,0-1.57.47,2.36,2.36,0,0,1-.69.28s-.12,0-.24-.16c-.45-.44.38-1.79.79-2.27a1.42,1.42,0,0,0,.36-1,1.46,1.46,0,0,0-.48-1L44.46.36A1.41,1.41,0,0,0,43.52,0h-.09a1.43,1.43,0,0,0-1,.49C41.2,1.93,39.67,4.93,41.85,7a3.33,3.33,0,0,0,2.36,1,3.19,3.19,0,0,0,.45,0A2.83,2.83,0,0,0,45,10.12a2.37,2.37,0,0,0,2.13,1.16,6.55,6.55,0,0,0,2.25-.54,3.37,3.37,0,0,0,.89,3.35,2.63,2.63,0,0,0,1.89.81,3.75,3.75,0,0,0,2.09-.74,4.46,4.46,0,0,0,.19,3.74.8.8,0,0,0-.13.13c-1.2,1.24-3.07,1.87-5.56,1.87a23.82,23.82,0,0,1-7.32-1.38,2.18,2.18,0,0,0-.72-.12,2.24,2.24,0,0,0-1,.23,2.17,2.17,0,0,0-1.12,1.31c-2,6.23-9.48,7.39-11.72,7.6a2.2,2.2,0,0,0-.93,4.09,20.39,20.39,0,0,1,6.78,6.22,20.19,20.19,0,0,0-3.77,3.86,23.78,23.78,0,0,1-3.56,3.75,8.14,8.14,0,0,1-1,.06,6.26,6.26,0,0,1-5.15-2.76A9.78,9.78,0,0,0,13.66,39a7.88,7.88,0,0,0-1.79-.21,5.26,5.26,0,0,0-1.2.12A1.42,1.42,0,0,0,9.6,40.57l.06.24a1.42,1.42,0,0,0,1.39,1.11l.28,0a3.24,3.24,0,0,1,.55,0A4.65,4.65,0,0,1,13,42a6.66,6.66,0,0,1,3.81,2.66A10,10,0,0,0,21,48a26,26,0,0,1-3.39,1.09l-.23.06a1.45,1.45,0,0,0-1,1,1.4,1.4,0,0,0,.32,1.27,5.66,5.66,0,0,0-.6,0h-.22a3.32,3.32,0,0,0-2.43,1.13c-.13-.91-.47-2.72-2.41-2.88h-.19a2,2,0,0,0-1.59.73A2.51,2.51,0,0,0,7.9,48.14a2.64,2.64,0,0,0-1.19-.29,4.56,4.56,0,0,0-3,1.75c-.15.16-.36.37-.55.54A5.15,5.15,0,0,1,3.46,49a1.47,1.47,0,0,0,0-1.09,1.45,1.45,0,0,0-.75-.79L2.51,47a1.43,1.43,0,0,0-.58-.12,1.52,1.52,0,0,0-.51.09,1.42,1.42,0,0,0-.78.76C.37,48.36-.42,50.42.29,52a2.69,2.69,0,0,0,1.65,1.46,2.72,2.72,0,0,0,.8.12,4.68,4.68,0,0,0,3.13-1.79l.2-.21c0,.09,0,.17,0,.24-.21,1.26-.61,3.59,1.52,4.33a2.64,2.64,0,0,0,.86.15A2.39,2.39,0,0,0,9.46,56a2.88,2.88,0,0,0,1.29-1.43,2.6,2.6,0,0,0,1,1.21,5.72,5.72,0,0,0-.27,1.74c-.12,2.11-.38,6.5-3.48,8.57a2.16,2.16,0,0,0-1,1.62,2.21,2.21,0,0,0,.67,1.8c1.05,1,3.23,4.13.89,10.94a2.21,2.21,0,0,0,2.08,2.94,2.15,2.15,0,0,0,1-.23,16,16,0,0,1,6.75-1.66,11.43,11.43,0,0,1,6.54,2,2.18,2.18,0,0,0,1.23.38,2,2,0,0,0,.42,0A2.22,2.22,0,0,0,28,83c.94-1.41,4.45-6,9.85-6.33a2.22,2.22,0,0,0,2-1.42c0-.13.1-.27.16-.44a9.2,9.2,0,0,1,6.13,3.92,2.19,2.19,0,0,0,1.46.94l.37,0a2.2,2.2,0,0,0,1.27-.4A12.6,12.6,0,0,1,56.35,77a12.85,12.85,0,0,1,3.55.51,2.16,2.16,0,0,0,.62.09,2.22,2.22,0,0,0,2.2-2.43,20.38,20.38,0,0,1,0-4.83,6.15,6.15,0,0,0,.37.52,3.37,3.37,0,0,0,2.68,1.25,8.26,8.26,0,0,0,2.42-.49,6.33,6.33,0,0,1,1.61-.36c.27,0,.36.06.43.13.4.34.38.88.24,2s-.35,3.08,1.39,4a2.89,2.89,0,0,0,1.38.35,5.8,5.8,0,0,0,3.15-1.34c.22-.15.49-.34.72-.48,0,.26,0,.57,0,.8-.09,1.16-.22,2.75,1,3.85a2.54,2.54,0,0,0,1.66.65A4,4,0,0,0,82.34,80l.51-.43v0c.08.94.24,2.89,2.37,3.42a2.86,2.86,0,0,0,.7.09,3.16,3.16,0,0,0,2.74-2,2.8,2.8,0,0,0,2,2.21,2.08,2.08,0,0,0,.55.07,2.14,2.14,0,0,0,1.34-.48c1.17-1,1.22-3.29,1.14-4.58a1.48,1.48,0,0,0-.48-1,1.46,1.46,0,0,0-.94-.35l-.34,0a1.41,1.41,0,0,0-1.2.83A2.5,2.5,0,0,0,89.46,77a2.08,2.08,0,0,0-.73-.13c-1.48,0-2.13,1.41-2.53,2.27-.06.14-.15.35-.25.53,0-.11,0-.23,0-.33-.06-.81-.22-2.72-2.2-3a4.22,4.22,0,0,0-.49,0,4.61,4.61,0,0,0-2.92,1.44l-.2.18c0-.28,0-.6,0-.82.09-1.13.22-2.84-1.19-3.86a2.47,2.47,0,0,0-1.46-.47,5.28,5.28,0,0,0-2.85,1.23,10.23,10.23,0,0,1-1.18.73c0-.25,0-.61.08-.88.15-1.31.38-3.29-1.29-4.74a3.64,3.64,0,0,0-2.44-.88,8.62,8.62,0,0,0-2.54.51,6.11,6.11,0,0,1-1.5.34c-.19,0-.22,0-.28-.11a3.26,3.26,0,0,1-.59-1.21,8.91,8.91,0,0,1,2.23-.27c4.73,0,9.81,3.22,11.25,4.21a2.22,2.22,0,0,0,1.24.39,2.12,2.12,0,0,0,.66-.11,2.17,2.17,0,0,0,1.4-1.31c.06-.14.12-.32.19-.51a6.3,6.3,0,0,1,.18,1.22A2.23,2.23,0,0,0,83,73a2.18,2.18,0,0,0,1.28.42,2.23,2.23,0,0,0,.56-.08,16.3,16.3,0,0,1,3.93-.54A6.75,6.75,0,0,1,93,73.92a2.24,2.24,0,0,0,1.38.47h.3a2.24,2.24,0,0,0,1.46-.86c.51-.68,2.1-2.27,5.81-2.27a18.64,18.64,0,0,1,4.27.56,2.32,2.32,0,0,0,.52.07,2.22,2.22,0,0,0,2-3.23c-.76-1.49-1.42-4.17-.19-8.52a2.09,2.09,0,0,0,.08-.55,33.91,33.91,0,0,0,7.27,1c-.22.33-.49.7-.82,1.12a5.72,5.72,0,0,0-.87,4.53,6,6,0,0,0,2.58,4.13,21.5,21.5,0,0,1,3.76,3.37,2.16,2.16,0,0,0,1.61.71,2.29,2.29,0,0,0,1.57-.64c.51-.5,2-1.67,5.28-1.67a20.54,20.54,0,0,1,5.8,1,2.21,2.21,0,0,0,1.92-.33,2.21,2.21,0,0,0,.91-1.73A5.18,5.18,0,0,1,140,66.79a1.28,1.28,0,0,1,.74.68,18.74,18.74,0,0,1,.75,2c.4,1.22.95,2.89,2.88,2.89h.19c1.57-.1,2.12-1.56,2.49-2.52s.54-1.3.84-1.43a6.05,6.05,0,0,1,.36.84c.42,1.09,1.21,3.12,3.51,3.12h.12a3.87,3.87,0,0,0,3.55-2.94h0c.22.9.75,2.46,2.46,2.46l.38,0c2.66-.4,4.19-4.13,4.3-7.44A1.43,1.43,0,0,0,161.17,62.94ZM158,70.44c-.9.13-1.12-.79-1.31-1.61-.23-1-.45-1.68-1.25-1.54s-1.09.85-1.39,1.61c-.37.93-.79,2-2.27,2h-.08c-1.33,0-1.78-1.17-2.18-2.21s-.75-1.93-1.79-1.77c-1.24.18-1.68,1.34-2.07,2.37-.32.84-.59,1.56-1.25,1.6-1,.06-1.23-.68-1.63-1.9a20.76,20.76,0,0,0-.81-2.14,3,3,0,0,0-2.28-1.64,6.79,6.79,0,0,0-3.6,5.72.77.77,0,0,1-.32.62.78.78,0,0,1-.69.12c-7.89-2.35-11.35,0-12.47,1.06a.83.83,0,0,1-.58.23h0a.75.75,0,0,1-.56-.25,23.51,23.51,0,0,0-4-3.62A4.62,4.62,0,0,1,115.51,66a4.43,4.43,0,0,1,.6-3.41A9.47,9.47,0,0,0,118,59.12c-.37,0-.81,0-1.33,0a28.3,28.3,0,0,1-12.57-2.72,5.74,5.74,0,0,0,2.51,2.37.8.8,0,0,1,.44,1c-1.34,4.79-.58,7.83.3,9.54a.81.81,0,0,1-.09.87.77.77,0,0,1-.8.27C99,68.6,95.91,71.39,95,72.67a.79.79,0,0,1-.51.3h-.11a.81.81,0,0,1-.51-.18c-2.91-2.24-7.51-1.35-9.35-.87a.77.77,0,0,1-.66-.12.8.8,0,0,1-.33-.61A9.13,9.13,0,0,0,81.4,66a18,18,0,0,1-1,4.06.76.76,0,0,1-.5.47.67.67,0,0,1-.24,0,.79.79,0,0,1-.44-.14c-2.4-1.64-9.91-6.21-15.87-3.73a5.64,5.64,0,0,0,1.07,3.06c.81,1,2,.63,3.32.23s2.59-.8,3.63.09.94,2.31.8,3.51-.23,2,.53,2.38,1.82-.24,2.78-.9,1.93-1.32,2.69-.78.68,1.59.6,2.6-.15,1.92.47,2.47,1.29,0,2-.65,1.39-1.22,2.24-1.07,1,1,1,1.77.14,1.7,1.11,1.94,1.44-.73,1.87-1.67S88.24,78,89,78.3s1,1.07,1.14,1.86.33,1.39.92,1.54a.41.41,0,0,0,.4-.09c.58-.48.59-2.46.54-3.19h.25c0,.11.16,2.74-.63,3.4a.68.68,0,0,1-.43.15.62.62,0,0,1-.19,0c-.74-.19-.92-1-1.1-1.73s-.34-1.46-1-1.68-.79.37-1.2,1.26-1,2.11-2.16,1.81-1.23-1.28-1.3-2.15-.12-1.43-.83-1.55-1.38.45-2,1-1.55,1.35-2.35.64-.64-1.66-.56-2.67S78.64,75,78,74.5s-1.48.16-2.39.79-2.09,1.43-3,.91-.78-1.53-.66-2.63.28-2.42-.72-3.29-2.18-.41-3.39,0-2.66.82-3.58-.31a5.77,5.77,0,0,1-1.11-3.12,8.2,8.2,0,0,0-1.05.56,16.4,16.4,0,0,0-.73,7.91.8.8,0,0,1-1,.84,13.93,13.93,0,0,0-11.93,2,.79.79,0,0,1-.46.15l-.14,0a.74.74,0,0,1-.51-.33A11.14,11.14,0,0,0,39,73.17c-.2.63-.39,1.16-.53,1.53a.81.81,0,0,1-.71.51c-6.06.33-9.91,5.4-11,7a.82.82,0,0,1-.51.34h-.15a.75.75,0,0,1-.43-.13C20,78.53,14.05,80.44,11,81.92a.79.79,0,0,1-.87-.12.78.78,0,0,1-.22-.86c2.61-7.58,0-11.21-1.25-12.41a.84.84,0,0,1-.24-.65.78.78,0,0,1,.34-.58c3.69-2.46,4-7.33,4.12-9.67.06-.94.08-1.27.24-1.38a.22.22,0,0,1,.18,0,10.81,10.81,0,0,0,6.7.63c-1-2-2.14-3.87-4.06-3.8a1.9,1.9,0,0,0-1.55.92,1.47,1.47,0,0,1-1.39.77c-1-.08-1.09-1-1.21-1.86s-.2-1.52-.91-1.58h0c-.47,0-.71.75-1,1.55s-.5,1.61-1.05,1.89a1.07,1.07,0,0,1-.83,0c-1-.34-.77-1.57-.57-2.75s.35-2.08-.29-2.41-1.5.35-2.28,1.14-1.59,1.6-2.49,1.31a1.19,1.19,0,0,1-.79-.69c-.5-1.1.32-3,.35-3.06l.23.11s-.81,1.85-.36,2.85a1,1,0,0,0,.64.56c.76.23,1.51-.52,2.24-1.26s1.66-1.66,2.57-1.19.61,1.57.42,2.68-.37,2.2.42,2.47a.78.78,0,0,0,.62,0c.46-.23.7-1,.93-1.75s.54-1.72,1.19-1.72h.07c.91.08,1,1,1.14,1.8s.21,1.58,1,1.64c.61.06.86-.27,1.18-.68a2.11,2.11,0,0,1,1.73-1h.15c1.93,0,3.07,1.81,4.08,3.8a8.52,8.52,0,0,0-2.24-6l-.18-.16.23,0a21.49,21.49,0,0,0,7.54-3.32,10.88,10.88,0,0,1-1.13.07,7.85,7.85,0,0,1-6.46-3.42A8.1,8.1,0,0,0,13.3,40.6,5.78,5.78,0,0,0,11,40.5l0-.24a5.67,5.67,0,0,1,2.35.09,8.38,8.38,0,0,1,4.78,3.27,7.63,7.63,0,0,0,7.82,3.19A23.87,23.87,0,0,0,30,42.6a15.89,15.89,0,0,1,4.55-4.27c-1.78-3.75-5.45-6.44-7.93-7.91a.79.79,0,0,1-.37-.86A.77.77,0,0,1,27,29c2.46-.23,10.67-1.52,12.94-8.58a.79.79,0,0,1,1-.51c2.37.83,10.42,3.22,14.36-.85a.8.8,0,0,1,1-.13,9.51,9.51,0,0,1,4.22,4.51A10.5,10.5,0,0,0,60,19.2h0c-1.57-.18-3.47-.64-4.25-1.82s-.32-2.4.08-3.46c.32-.84.59-1.57.21-2.13a.42.42,0,0,0-.3-.21h-.07a3.11,3.11,0,0,0-1.41.82c-.93.73-2.08,1.64-3,.71s-.51-2.19-.15-3.06c.25-.64.4-1,.16-1.24s-1.13.11-1.95.44c-1.22.49-2.6,1-3.1.18a2.1,2.1,0,0,1,.35-2.17c.34-.59.53-1,.24-1.25s-.56-.1-1.11.17A2.17,2.17,0,0,1,42.83,6c-1.79-1.71.67-4.54.69-4.57l.19.16S41.39,4.26,43,5.81c1,.92,1.8.5,2.55.13.52-.27,1-.51,1.4-.13s.13,1-.21,1.56S46,8.62,46.4,9.28s1.67.17,2.79-.28,1.8-.72,2.2-.4.17.88-.09,1.52c-.35.85-.78,1.92.1,2.79s1.74,0,2.67-.72c.65-.51,1.19-.95,1.68-.87a.73.73,0,0,1,.47.32c.46.67.14,1.49-.19,2.36-.4,1.06-.81,2.15-.1,3.24s2.5,1.51,4,1.69a.81.81,0,0,1,.11-.43.77.77,0,0,1,.59-.36c10.12-.91,12.51-6.13,13-7.71a.8.8,0,0,1,.62-.56c1.78-.32,7.8-1,10.33,2.92,1.41,2.22.07,4.68-.86,5.95a.54.54,0,0,0,0,.56.53.53,0,0,0,.46.31c2.5.11,7,.84,9.33,4.52a8.35,8.35,0,0,1,.89,6.24,7.1,7.1,0,0,0,1.7-.5A6,6,0,0,1,97,28.19a7.06,7.06,0,0,1,1.77-1.56,12.26,12.26,0,0,0,.08-3.58,8.44,8.44,0,0,1,.29-3.92c.64-1.52,1.71-1.48,2.14-1.39.75.15,1.47.8,1.47,1.33h-.25c0-.37-.59-.95-1.27-1.09-.46-.1-1.31-.05-1.86,1.25A8.3,8.3,0,0,0,99.1,23a13,13,0,0,1,0,3.41q3.54-2.09,10.63-1.84a.8.8,0,0,1,.76.82,5.3,5.3,0,0,0,1.42,3.88,6.59,6.59,0,0,0,4.26,1.7c.94-2.81,2.9-7.41,6.37-10.1a.81.81,0,0,1,.62-.15.79.79,0,0,1,.54.36,4.42,4.42,0,0,0,3,2.05c2.3.37,5.22-.92,8.67-3.81a.79.79,0,0,1,.61-.18.78.78,0,0,1,.54.32,14.9,14.9,0,0,0,8.39,5.39,8.33,8.33,0,0,0-.85-3.62l.23-.11a8.5,8.5,0,0,1,.87,3.8,23.17,23.17,0,0,0,9.39.14.77.77,0,0,1,.83.39.79.79,0,0,1-.09.91,17.6,17.6,0,0,0-4.37,13.41.76.76,0,0,1-.18.58.79.79,0,0,1-.55.29,9.25,9.25,0,0,0-7.26,4.9c-.8,1.37-2.58,2.57-4.94,3.45.11,1.34.95,3.68,5.11,5.13l.63.25a10.78,10.78,0,0,0,3.23-1,7.86,7.86,0,0,0,4-3.86c.46-.86.81-1.54,1.85-1.7a2.25,2.25,0,0,1,1.76.38,2.45,2.45,0,0,1,.86,1.55l-.24,0a2.36,2.36,0,0,0-.77-1.39,2,2,0,0,0-1.58-.32c-.9.14-1.2.7-1.65,1.56a8.12,8.12,0,0,1-4.11,4,11.83,11.83,0,0,1-2.91,1,9.37,9.37,0,0,1,5.27,7.12.79.79,0,0,1-.16.61.8.8,0,0,1-.55.3,24.84,24.84,0,0,0-7.25,1.72,11.94,11.94,0,0,0-1.43.73,3.07,3.07,0,0,1,2.21,1.71,20.35,20.35,0,0,1,.81,2.17c.4,1.22.6,1.74,1.29,1.74h.1c.49,0,.74-.68,1-1.44.39-1,.88-2.33,2.27-2.53s1.65.9,2,1.93.79,2,2,2h.07c1.31,0,1.67-.94,2.05-1.88s.64-1.6,1.57-1.77c1.11-.19,1.34.83,1.55,1.73s.39,1.53,1,1.42c1.31-.2,2.78-2.59,2.88-5.84h.25C161.05,67.08,159.79,70.17,158,70.44Zm-143-15.08a5.34,5.34,0,0,0,.43-.5c.28-.36.29-.36.55-.37.59,0,1.13.46,1.66,1.23H17.6A9.3,9.3,0,0,1,15.08,55.36Z"/></svg>