<svg id="圖層_1" data-name="圖層 1" xmlns="http://www.w3.org/2000/svg" viewBox="0 0 138.56 80.22"><defs><style>.cls-1{fill:#fff;}</style></defs><title>0</title><path class="cls-1" d="M38.56,24.22a11.16,11.16,0,0,0-6.89,3.69,20.44,20.44,0,0,1-8.4,5.69,13.59,13.59,0,0,1,4.29,5.73,12.21,12.21,0,0,1,1.23-1.15,11.81,11.81,0,0,1,8.71-2.51l.33.06a20.5,20.5,0,0,1,2.85-10.48A12.58,12.58,0,0,1,38.56,24.22Zm-2.14,10h-.28A13.07,13.07,0,0,0,28,37a14.83,14.83,0,0,0-1.37-2c-.24-.31-.51-.61-.78-.9a21.88,21.88,0,0,0,6.87-5.2,9.58,9.58,0,0,1,5.56-3.14l.43.22A22,22,0,0,0,36.42,34.18Z"/><path class="cls-1" d="M58.26,30.06c0-.19,0-.37,0-.56a8.11,8.11,0,0,1,.14-.86c-.39-.22-.8-.43-1.26-.64A7.68,7.68,0,0,1,53,23.66a5,5,0,0,1-.16-.51,12.49,12.49,0,0,1-2.73,1.73,18.83,18.83,0,0,1,2.1,1.8A10.17,10.17,0,0,0,58.26,30.06Z"/><path class="cls-1" d="M136.41,18.47A15.37,15.37,0,1,0,110,34.14a14.52,14.52,0,0,0,1.11,1.62,25.43,25.43,0,0,0-3.93,5.93,14.57,14.57,0,0,0-5.41-1.93,22.09,22.09,0,0,0,2.11-8.38A7.88,7.88,0,0,1,105,28.52c1-1.83,2.23-4.09.74-6.53a6.73,6.73,0,0,0-5-3.16c-.23,0-.47,0-.73,0-1.64,0-4.17.6-6.88,3.45a10.86,10.86,0,0,1-5.77,3A12.59,12.59,0,0,0,82.8,27.2a13.25,13.25,0,0,0-11.26-9.54c-.36,0-.72-.06-1.1-.07A13.31,13.31,0,0,0,69,15.14a9,9,0,0,1-1.91-4.73c-.38-3.54-1.91-6.36-4.2-7.72a5.86,5.86,0,0,0-3-.83,5.67,5.67,0,0,0-2.21.45A6.26,6.26,0,0,0,55,4.39,13.61,13.61,0,0,0,46.47.09,13.65,13.65,0,0,0,36.38,3a13.58,13.58,0,0,0-4.75,7.38,11.88,11.88,0,0,0-6.17-1.93,17,17,0,0,0-2.69.27A14.22,14.22,0,0,1,20.39,9a9.28,9.28,0,0,1-3.17-.58,13.92,13.92,0,0,0-4.57-.83,8.63,8.63,0,0,0-4.8,1.33,6,6,0,0,0-2.71,4.77C4.92,18,8,19.75,10.65,21.3a14.89,14.89,0,0,1,4.28,3.21,13.25,13.25,0,0,0,7.74,5,16.62,16.62,0,0,1-2.41.81,14.69,14.69,0,0,0-3.63-.88,13.69,13.69,0,0,0-1.69-.1,15,15,0,0,0-1.67,29.81l1,.08a53.31,53.31,0,0,0-1.1,6.67,37.39,37.39,0,0,1-1,6.06c-1,3.42-.53,6.15,1.33,7.5a4.22,4.22,0,0,0,2.54.79,10.33,10.33,0,0,0,5.57-2.16l1.63-1.12c4.42-3,4.5-3.11,10.79-6.17,3.49-1.7,5.55-5.38,6-10.65a13,13,0,0,0,4.29-2.22,6.26,6.26,0,0,0,1.37,1.71,4.91,4.91,0,0,0,3.2,1.2A4.67,4.67,0,0,0,50,60.68h0A13.23,13.23,0,0,0,62.17,68.8a12.71,12.71,0,0,0,2-.15A13.25,13.25,0,0,0,73.77,49.1a17.28,17.28,0,0,0,2.82-1.77c1.81,3.07,4.32,6.58,8.83,8.06a10.47,10.47,0,0,0,.14,1A14.38,14.38,0,0,0,99.7,68.37a14.71,14.71,0,0,0,2.47-.21,14.36,14.36,0,0,0,9.2-22.6,18.53,18.53,0,0,1,3.7-6.21,15.57,15.57,0,0,0,8.14,2.32,15.37,15.37,0,0,0,13.2-23.2ZM130.3,38.3a13.87,13.87,0,0,1-7.09,2,14,14,0,0,1-8.36-2.76,20.27,20.27,0,0,0-5,8.36A13,13,0,1,1,87,56.19a13.4,13.4,0,0,1-.17-1.88c-5.15-1.26-7.58-5.22-9.82-9.2a15.7,15.7,0,0,1-5.27,3.38,11.83,11.83,0,0,1-7.77,18.76,11.55,11.55,0,0,1-1.75.13,11.82,11.82,0,0,1-11.33-8.55,4,4,0,0,1-1.19.47,3.7,3.7,0,0,1-.8.09,3.49,3.49,0,0,1-2.28-.86,5.51,5.51,0,0,1-1.7-3.1,12.22,12.22,0,0,1-1.33,1.26A11.81,11.81,0,0,1,38.63,59c-.16,4-1.32,8.58-5.24,10.49-6.38,3.11-6.56,3.23-11,6.28-.48.34-1,.71-1.63,1.12A9.06,9.06,0,0,1,16,78.8a2.86,2.86,0,0,1-1.71-.51c-1.32-1-1.62-3.19-.8-6A37,37,0,0,0,14.6,66a42.71,42.71,0,0,1,1.59-8.28c-.4,0-.81,0-1.21,0a13.53,13.53,0,1,1,1.49-27,13.11,13.11,0,0,1,3.69,1,18.28,18.28,0,0,0,9.54-5.6l.15-.14-.05,0a8.35,8.35,0,0,1-5.5,2.13l-.68,0c-2.68-.22-5.3-1.8-7.6-4.56a16.14,16.14,0,0,0-4.66-3.53c-2.67-1.55-5-2.89-4.8-6.36a4.59,4.59,0,0,1,2.08-3.66c2-1.33,4.94-1.45,8.11-.34a11.17,11.17,0,0,0,6.25.39c2.27-.36,4.41-.71,8.36,1.75a8.47,8.47,0,0,1,1.32,1c0-.19,0-.37,0-.55A12.3,12.3,0,0,1,54.55,6.05c.27.34.51.68.74,1a4.77,4.77,0,0,1,3-3.46,4.26,4.26,0,0,1,3.89.29c1.91,1.13,3.19,3.56,3.52,6.65A10.45,10.45,0,0,0,67.84,16,10.63,10.63,0,0,1,69.46,19a12.35,12.35,0,0,1,1.92.05A11.78,11.78,0,0,1,81.86,30.33c1.56-2.53,3.66-3.1,5.86-3.69a12.15,12.15,0,0,0,6.42-3.41c2.62-2.76,4.94-3.15,6.44-3a5.31,5.31,0,0,1,3.94,2.49c1.06,1.73.17,3.37-.77,5.11a8.72,8.72,0,0,0-1.31,3.44c-.29,4.12-1.39,7.46-3.17,9.77a12.88,12.88,0,0,1,8.52,2.81A23.92,23.92,0,0,1,113,35.79a14.11,14.11,0,0,1-1.78-2.37A14,14,0,1,1,130.3,38.3Z"/><path class="cls-1" d="M86,51.3a9.22,9.22,0,0,0,1,.34,12.87,12.87,0,0,1,2.15-5.13,13,13,0,0,1,1.75-2,14.75,14.75,0,0,1-4.66-1.42A17.76,17.76,0,0,0,86,51.3ZM87.23,45c.33.13.66.24,1,.34l-.23.31a15.56,15.56,0,0,0-.93,1.5A14.62,14.62,0,0,1,87.23,45Z"/><path class="cls-1" d="M50.3,28.51a15.44,15.44,0,0,0-3.47-2.65,11.85,11.85,0,0,1-1.89.16,13.1,13.1,0,0,1-1.39-.08,5.4,5.4,0,0,1-.58-.1c-1,1.75-3.28,6.11-2.82,10.46a11.83,11.83,0,0,1,4.55,3,10.53,10.53,0,0,1,2.65-2.19A13.84,13.84,0,0,1,50,35.88a17.64,17.64,0,0,1,3.21-5A16.16,16.16,0,0,1,50.3,28.51Zm-1.36,6.24a14.38,14.38,0,0,0-2.3,1.09,12.34,12.34,0,0,0-2,1.43,13.47,13.47,0,0,0-3.15-2,17,17,0,0,1,2.22-7.94c.4,0,.81.06,1.21.06a12.79,12.79,0,0,0,1.6-.11,13.67,13.67,0,0,1,2.75,2.18,19.93,19.93,0,0,0,1.85,1.67A18.19,18.19,0,0,0,48.94,34.75Z"/><path class="cls-1" d="M81,38a7.72,7.72,0,0,1-.47-1.69,11.85,11.85,0,0,1-3.35,3.92c.62,1,1.19,2,1.75,3,1.44,2.58,2.79,5,4.77,6.61A17.94,17.94,0,0,1,84.38,42,9,9,0,0,1,81,38ZM82.17,46c-.7-1-1.35-2.21-2-3.4-.35-.62-.73-1.3-1.15-2a12.79,12.79,0,0,0,1.09-1.12,10.6,10.6,0,0,0,2.63,3.14A18.19,18.19,0,0,0,82.17,46Z"/><path class="cls-1" d="M70.06,42.66a12.19,12.19,0,0,1-1.34-.08,11.81,11.81,0,0,1-10.34-9.85A13.93,13.93,0,0,1,55,31.84a15.44,15.44,0,0,0-3.59,5.88,9.58,9.58,0,0,0,2.5,2.34,5.93,5.93,0,0,1,2.86,5,11.78,11.78,0,0,1,13.41,1.73,13.84,13.84,0,0,0,5.73-3.61c-.31-.54-.62-1.06-1-1.58A11.73,11.73,0,0,1,70.06,42.66Zm-7.87-.37a12.65,12.65,0,0,0-1.93.15,12.78,12.78,0,0,0-2.42.6,7.72,7.72,0,0,0-3.18-4.16A9.24,9.24,0,0,1,53,37.44a14.51,14.51,0,0,1,2.41-3.94,15.32,15.32,0,0,0,1.82.47,13.26,13.26,0,0,0,6.33,8.39C63.08,42.32,62.64,42.29,62.19,42.29Zm8.23,2.88A13,13,0,0,0,68.7,44c.45,0,.91.07,1.36.07a13.31,13.31,0,0,0,3.08-.37A14.25,14.25,0,0,1,70.42,45.17Z"/></svg>