<svg id="圖層_1" data-name="圖層 1" xmlns="http://www.w3.org/2000/svg" viewBox="0 0 90.19 89.35"><defs><style>.cls-1{fill:#fff;}</style></defs><title>0</title><path class="cls-1" d="M70.85,38.91a6.83,6.83,0,0,1,.31-1,7.3,7.3,0,0,0-.84-.37l-.15.22.58,1.56C70.78,39.21,70.81,39.06,70.85,38.91Z"/><path class="cls-1" d="M35.44,53.51l-.55-.07.06.18Z"/><path class="cls-1" d="M44.47,30.81A3.61,3.61,0,0,0,46,28.53v-.4a8.89,8.89,0,0,1-3.3,1.39A7.42,7.42,0,0,1,44.47,30.81Z"/><path class="cls-1" d="M44.65,31A7.32,7.32,0,0,1,46,33V29.35A3.67,3.67,0,0,1,44.65,31Z"/><path class="cls-1" d="M57.59,15.68a14.13,14.13,0,0,1,3.19,1.77L57.66,9.11C54.87,11,55,14.87,55.05,15.39A5,5,0,0,1,57.59,15.68Zm-.43-3.87,1,2.56a6.18,6.18,0,0,0-1.59-.4A6.73,6.73,0,0,1,57.16,11.81Z"/><path class="cls-1" d="M84.59,39.65a16.08,16.08,0,0,0,3.17-3.85,2.13,2.13,0,0,0,.1-2,2.1,2.1,0,0,0-1.63-1.2A15,15,0,0,0,84,32.42a24.89,24.89,0,0,0-9.64,2.24,6.64,6.64,0,0,0-1.3.79,12.5,12.5,0,0,0-1.41-.68,10,10,0,0,0,.44-2.92,10.28,10.28,0,0,0-5.72-9.17,1.66,1.66,0,0,0-.06-.21,13.67,13.67,0,0,0-3.95-5.57l-6-16a1.43,1.43,0,0,0-.74-.79A1.37,1.37,0,0,0,55.05,0a1.43,1.43,0,0,0-.5.09l-.23.09A1.4,1.4,0,0,0,53.49,2l2.39,6.41a9,9,0,0,0-2.49,5.95,6.6,6.6,0,0,0-1.1.54,17.12,17.12,0,0,0-2,1.51,10.18,10.18,0,0,0-2.55-3.29V4.52A1.42,1.42,0,0,0,46.28,3.1H46a1.42,1.42,0,0,0-1.42,1.42v6.76A10.09,10.09,0,0,0,41,10.63,10.22,10.22,0,0,0,33.49,14L35.89,2.5a1.44,1.44,0,0,0-.21-1.07,1.41,1.41,0,0,0-.89-.61l-.25,0a1.36,1.36,0,0,0-.29,0,1.42,1.42,0,0,0-1.38,1.13l-2.55,12.2h0c-.12-.17-.24-.33-.37-.49a18.09,18.09,0,0,0-8-5.5A2.53,2.53,0,0,0,18.64,11a25,25,0,0,0,.92,3.06,13.62,13.62,0,0,0-2.2.64,14.29,14.29,0,0,0-7.61,6.85,2.5,2.5,0,0,0,0,2.39,2.54,2.54,0,0,0,2,1.31c.68,0,1.36.08,2,.08a20.26,20.26,0,0,0,5.67-.76,8,8,0,0,0,0,2.92,2.5,2.5,0,0,0,.68,1.27,10.26,10.26,0,0,0-8.34,10.06,10.11,10.11,0,0,0,.77,3.89,16.76,16.76,0,0,0-4.51-.59c-.61,0-1.24,0-1.87.09a2.5,2.5,0,0,0-2,1.29,2.47,2.47,0,0,0,0,2.33,19.51,19.51,0,0,0,3.2,4.6c-.51.29-1.08.64-1.67,1A14.93,14.93,0,0,0,.17,58a2.5,2.5,0,0,0,1.69,3.33,18.41,18.41,0,0,0,4.51.58,15.12,15.12,0,0,0,3.21-.33,15.91,15.91,0,0,0-.47,3.37,2.47,2.47,0,0,0,1,2,2.54,2.54,0,0,0,1.54.53,2.59,2.59,0,0,0,.68-.09,13.48,13.48,0,0,0,7.24-4.92l.14.06a2.93,2.93,0,0,0,.51.13L15,87.61a1.39,1.39,0,0,0,.2,1.07,1.46,1.46,0,0,0,.9.61l.24,0A1.42,1.42,0,0,0,18,88.24l5.87-28.12c.39-.51.73-1,1-1.54a19.56,19.56,0,0,0,2.45,3.47,9.43,9.43,0,0,0-.11,1.49,10.23,10.23,0,0,0,17.38,7.33V87.93A1.42,1.42,0,0,0,46,89.35h.25a1.42,1.42,0,0,0,1.41-1.42V59.47a10.23,10.23,0,0,0,5.46,1.58,10,10,0,0,0,3.63-.67,9.67,9.67,0,0,0,1.5.12h.12a38.59,38.59,0,0,0-.89,10.21A2.33,2.33,0,0,0,59.84,73a2.49,2.49,0,0,0,.93-.19,19.15,19.15,0,0,0,7.79-6.21,12.1,12.1,0,0,0,1,2.4,2.36,2.36,0,0,0,2,1.17h.12a2.32,2.32,0,0,0,2-1.37,23.63,23.63,0,0,0,2-7.35L81.55,77a1.42,1.42,0,0,0,.74.8,1.45,1.45,0,0,0,1.08,0l.24-.09a1.4,1.4,0,0,0,.82-1.82l-8.23-22A11.8,11.8,0,0,0,78.76,50a20.31,20.31,0,0,0,8.39,5.53,2.1,2.1,0,0,0,.7.12,2.16,2.16,0,0,0,1.23-.39A2.19,2.19,0,0,0,90,53.54C90,45.54,86.92,41.53,84.59,39.65Zm3.67,14.48a.67.67,0,0,1-.41.13.59.59,0,0,1-.23,0c-2.1-.74-7.1-2.94-9.54-7.71a8,8,0,0,1-.27,1.89,10.44,10.44,0,0,1-3.26,5.15l8.56,22.88-.24.09L74.34,53.69a.7.7,0,0,1-.49.08.69.69,0,0,1-.5-.42,22.19,22.19,0,0,1-1.5-5.65c-1.14.16-1.87,1.86-2,2.29a5.18,5.18,0,0,1,2,1.6c4.58,6.11,2,13.66.62,16.62a.86.86,0,0,1-.78.53h0a.92.92,0,0,1-.8-.46,18.16,18.16,0,0,1-1.68-5.7c-2.07,5.44-6.9,8-8.92,8.92a.92.92,0,0,1-.36.07,1,1,0,0,1-.5-.14,1,1,0,0,1-.42-.75c-.15-7.83,1.13-11,1.6-11.92a8,8,0,0,1-3.89.15,8.6,8.6,0,0,1-3.48.72,8.78,8.78,0,0,1-6.87-3.3v31.6H46V65.59a8.82,8.82,0,0,1-17.39-2.05,8.69,8.69,0,0,1,.22-1.92,15.65,15.65,0,0,1-3.8-6.4,21,21,0,0,1-2.53,4.29L16.59,88l-.24,0,5.84-28A9.39,9.39,0,0,1,21,61.08a.89.89,0,0,1-.86.13.88.88,0,0,1-.56-.66q-.06-.33-.12-.75A11.86,11.86,0,0,1,11.9,66a1.54,1.54,0,0,1-.3,0,1.08,1.08,0,0,1-.66-.23,1.09,1.09,0,0,1-.41-.89A13.52,13.52,0,0,1,12,59.19c-3.8,2-8.06,1.17-9.75.73a1.1,1.1,0,0,1-.68-.55,1.07,1.07,0,0,1-.05-.89,13.52,13.52,0,0,1,5.08-5.8A20.87,20.87,0,0,1,10,50.77,15.85,15.85,0,0,1,5.5,45.22a1.09,1.09,0,0,1,0-1,1.06,1.06,0,0,1,.85-.56,14.22,14.22,0,0,1,11.92,4A8.47,8.47,0,0,1,20,50.18a19,19,0,0,1,1-2.59A8.81,8.81,0,1,1,28,32.3l3.55-17a4.21,4.21,0,0,0-1.6,2.12,4.58,4.58,0,0,1-.32,1.7c-2.23,5.65-5.4,8-7.09,8.87a1,1,0,0,1-.51.13,1,1,0,0,1-.48-.11,1.08,1.08,0,0,1-.61-.77A7.85,7.85,0,0,1,22,22c-3.23,2.09-7.64,2.1-10,1.91a1.13,1.13,0,0,1-.89-.57,1.1,1.1,0,0,1,0-1,12.89,12.89,0,0,1,6.85-6.2,12.29,12.29,0,0,1,3.78-.79A19,19,0,0,1,20,10.71a1.12,1.12,0,0,1,.34-1.08,1.1,1.1,0,0,1,1.12-.22,16.83,16.83,0,0,1,7.38,5.07,4.53,4.53,0,0,1,1,2.37A3.67,3.67,0,0,1,31.58,15L34.26,2.16l.24,0L28.17,32.49A8.78,8.78,0,0,1,29,44.37c3.65.69,8.13,2.39,10,6.6a.89.89,0,0,1-.8,1.25,21,21,0,0,1-5.62-.68,29.34,29.34,0,0,1,1.48,3.87,8.83,8.83,0,0,1,12,6.08V56a8.73,8.73,0,0,1,0-10.35v-3.9a25.5,25.5,0,0,1-1.11,3.18.77.77,0,0,1-.57.46.39.39,0,0,1-.15,0,.73.73,0,0,1-.52-.21c-1.8-1.74-2.54-5.07-2.72-6-2.75,3.24-7.4,4.27-9.31,4.57a.76.76,0,0,1-.67-.22.8.8,0,0,1-.21-.68,15.27,15.27,0,0,1,5.33-9.25,9.58,9.58,0,0,1-5.37-2.35.75.75,0,0,1-.26-.61.76.76,0,0,1,.31-.59A9.81,9.81,0,0,1,36,28.07,8.81,8.81,0,0,1,46,13.61V4.52h.25V13.8A8.79,8.79,0,0,1,49.64,19,15.41,15.41,0,0,1,53,16.11a5,5,0,0,1,1.76-.68c0-.51-.2-4.56,2.77-6.57L54.81,1.5l.24-.08,6.11,16.33A12.34,12.34,0,0,1,65,23a.68.68,0,0,1-.08.62,8.79,8.79,0,0,1,4.88,12.11,9.14,9.14,0,0,1,3.45,1.56A4.64,4.64,0,0,1,74.93,36c2.25-1,6.69-2.6,11.11-2a.7.7,0,0,1,.54.4.73.73,0,0,1,0,.69C85.71,36.44,84,38.8,82,39.65c1.33.62,6.63,3.71,6.61,13.89A.72.72,0,0,1,88.26,54.13ZM24,28.79a15.55,15.55,0,0,0,4.11-3.92l-1,5A10.12,10.12,0,0,0,24,28.79Zm7.41-4.6a10.32,10.32,0,0,0,1.67,3,11,11,0,0,0-2.58,1.27Zm1.91,10.16a15.75,15.75,0,0,0-1.33,1.74,10.15,10.15,0,0,0-1.77-3.5A11.23,11.23,0,0,0,33.27,34.35Zm11,21.56a10.17,10.17,0,0,0-5.16-2.47,2.35,2.35,0,0,0,1-.87,2.3,2.3,0,0,0,.15-2.19,12,12,0,0,0-6-5.8,17.32,17.32,0,0,0,5.88-2.77,11,11,0,0,0,2.52,4.41,2.18,2.18,0,0,0,1,.55,10.24,10.24,0,0,0,.53,9.14Zm-8.84-2.4-.49.11-.06-.18Z"/><path class="cls-1" d="M68.37,37.75A8.8,8.8,0,0,1,53.91,28a22.2,22.2,0,0,1-.86-4.42c-1.41,2.39-4.32,3.23-5.81,3.52a7.81,7.81,0,0,1-.87.75,4.66,4.66,0,0,1-.09.68v5.12a7.71,7.71,0,0,1,.27,1,15.43,15.43,0,0,1-.27,6.08v4.56A8.8,8.8,0,0,1,62,50.54a19.15,19.15,0,0,1,5.46-1,5.16,5.16,0,0,1,2.17.39c.19-.48,1-2.29,2.24-2.46,0-.22-.06-.44-.08-.67Zm.46,10.45a6.43,6.43,0,0,0-1.24-.12h-.24a21.37,21.37,0,0,0-4.19.62,10.23,10.23,0,0,0-15.47-6.54V40.91a16.3,16.3,0,0,0,.25-6.5,7.29,7.29,0,0,0-.25-1V28.7s0-.06,0-.09l.21-.18a11.71,11.71,0,0,0,4.17-1.78c.08.41.19.83.31,1.27a10,10,0,0,0-.79,3.93,10.22,10.22,0,0,0,16.16,8.33l2.41,6.44A5.15,5.15,0,0,0,68.83,48.2Z"/><path class="cls-1" d="M68.56,37.54l3.11,8.32a23.79,23.79,0,0,1,.56-6.63,4.64,4.64,0,0,1,.84-1.78,9,9,0,0,0-3.42-1.52A8.44,8.44,0,0,1,68.56,37.54Zm1.76,0a7.3,7.3,0,0,1,.84.37,6.83,6.83,0,0,0-.31,1c0,.15-.07.3-.1.44l-.58-1.56Z"/></svg>