<svg id="圖層_1" data-name="圖層 1" xmlns="http://www.w3.org/2000/svg" viewBox="0 0 101.94 116.96"><defs><style>.cls-1{fill:#fff;}</style></defs><title>0</title><path class="cls-1" d="M75,29l-1.07.25c.16.2.3.4.45.62A10.56,10.56,0,0,1,75,29Z"/><path class="cls-1" d="M71.32,55.53c.24.13.47.26.69.4-.08-.27-.16-.54-.22-.82Z"/><path class="cls-1" d="M31.43,25c.42.46.83.93,1.23,1.4,0-.87,0-1.71,0-2.49A10.72,10.72,0,0,1,31.43,25Z"/><path class="cls-1" d="M30.43,24a7.77,7.77,0,0,1-1.23.71,65.87,65.87,0,0,1,5.06,6,64.73,64.73,0,0,1,.26-12.48A11.75,11.75,0,0,1,30.43,24Zm2.23,2.43c-.4-.47-.81-.94-1.23-1.4a10.72,10.72,0,0,0,1.25-1.09C32.66,24.68,32.65,25.52,32.66,26.39Z"/><path class="cls-1" d="M52.53,38.85c.29-.67.58-1.3.87-1.92-2-3.67-2.7-7.08-2.09-10.16a8.4,8.4,0,0,1-.8-.65A14.86,14.86,0,0,1,40,31.93c.2,1.29.44,2.58.7,3.85C45.89,34.32,50,36.62,52.53,38.85ZM41.64,33.13a16.06,16.06,0,0,0,8-4,17.27,17.27,0,0,0,1.8,7.16,13.71,13.71,0,0,0-7.54-2.37,13.87,13.87,0,0,0-2.12.17C41.75,33.76,41.7,33.44,41.64,33.13Z"/><path class="cls-1" d="M43.41,21.21A11.87,11.87,0,0,1,40,20.43a20.55,20.55,0,0,0-.55,5.41A17.63,17.63,0,0,1,43.41,21.21Z"/><path class="cls-1" d="M24.84,25.57a9.41,9.41,0,0,1-1-.08,7.67,7.67,0,0,1,.42,2.5A8.27,8.27,0,0,1,24,29.65a15.14,15.14,0,0,1,1.74,9.05A7.72,7.72,0,0,1,31.69,36a7.8,7.8,0,0,1,2.38.38A71.48,71.48,0,0,0,24.84,25.57Zm2.44,10.1a18.11,18.11,0,0,0-1.77-6.21,8.4,8.4,0,0,0,.12-1.1,71.84,71.84,0,0,1,5.4,6.2A9.07,9.07,0,0,0,27.28,35.67Z"/><path class="cls-1" d="M47.53,44.41a11.9,11.9,0,0,1-3.82-.62c-.35-.12-.68-.26-1-.4,1,2.83,2.4,5.09,3.88,5.18h.09c1.25,0,2.51-1.51,3.76-4.48A14.16,14.16,0,0,1,47.53,44.41Zm-.86,2.74c-.18,0-.69-.35-1.37-1.51a13.61,13.61,0,0,0,2.23.18H48C47.18,47.1,46.69,47.15,46.67,47.15Z"/><path class="cls-1" d="M101.83,40.9l-.06-.12c-2-4.66-4.91-7.66-8.6-8.92l-.6-.19a11,11,0,0,0,.84-1c2.37-3.12,3-7.28,2-12.38l0-.14a1.42,1.42,0,0,0-.71-1A1.38,1.38,0,0,0,94,17a1.43,1.43,0,0,0-.5.09l-.15.06a23.7,23.7,0,0,0-8.15,5.7,25.67,25.67,0,0,0-3.7-5l-.11-.11a1.41,1.41,0,0,0-1-.45h-.12a1.43,1.43,0,0,0-1.07.65l-.1.15a23.13,23.13,0,0,0-1.87,4,18.4,18.4,0,0,0-8.23-4.23c-.16-4.27-2-12-12.75-15.4l-.13,0a1.23,1.23,0,0,0-.42-.07,1.43,1.43,0,0,0-.73.2,1.45,1.45,0,0,0-.67,1l0,.16a21.24,21.24,0,0,0,.22,7.65,9.25,9.25,0,0,0-5.58,3.09c-.24-.38-.51-.75-.78-1.11C43.69,7.77,36.63,6.6,31.48,6.6h-.14a1.42,1.42,0,0,0-1.07.49,1.44,1.44,0,0,0-.34,1.12l0,.15A18.63,18.63,0,0,0,30.59,11a21.23,21.23,0,0,0-2.87,1.58C27.15,8.32,24.16,4.21,18.81.36L18.68.27A1.4,1.4,0,0,0,17.85,0a1.32,1.32,0,0,0-.39.06,1.45,1.45,0,0,0-.93.83L16.47,1A24.81,24.81,0,0,0,15,8a15,15,0,0,0-3.73-.45A25.36,25.36,0,0,0,1,10.13l-.14.06a1.41,1.41,0,0,0-.58,2.09l.09.14a19.2,19.2,0,0,0,5,4.66,20.3,20.3,0,0,0-3.4,2.71,1.66,1.66,0,0,0-.4,1.74c.41,1.27,3,3.33,6,4.47a8.8,8.8,0,0,0-.22,2,9.17,9.17,0,0,0,2.18,5.93A22.8,22.8,0,0,0,5.4,42.37l0,.12a1.42,1.42,0,0,0,1,1.74l.15,0a14.27,14.27,0,0,0,3.28.35,14.7,14.7,0,0,0,6-1.24,23.75,23.75,0,0,0,1.6,5l.05.12a1.38,1.38,0,0,0,.8.75,1.43,1.43,0,0,0,.5.09,1.41,1.41,0,0,0,.6-.13l.12-.06A15,15,0,0,0,23,46.62a9.19,9.19,0,0,0,8,6.25,19.38,19.38,0,0,0-.6,7.61v.13a1.44,1.44,0,0,0,.55,1,1.42,1.42,0,0,0,.86.29l.25,0,.11,0a15.89,15.89,0,0,0,5.61-2.45c.06,10-2.59,18.73-5,26.54a99.14,99.14,0,0,0-2.62,9.75,57.25,57.25,0,0,1-3.32,10.73c-1.45,3.7-2.4,6.14-1.21,8,.93,1.5,2.76,1.82,4.06,1.92l2.33.22.17,0c1.64.17,3.18.32,4.57.32a7.78,7.78,0,0,0,5.55-1.75c1.73-1.65,2.44-4.47,2.22-8.86v-.17c-.62-12.41-1.48-29.4,3.94-35.52a17.9,17.9,0,0,1,3.34-2.88,19.93,19.93,0,0,0,0,7l0,.13a1.42,1.42,0,0,0,.65.93,1.46,1.46,0,0,0,.73.2,1.34,1.34,0,0,0,.4-.06l.12,0a14.18,14.18,0,0,0,7.85-5,9.22,9.22,0,0,0,4.12,1.75,15,15,0,0,0,4,7.59l.09.1a1.41,1.41,0,0,0,1,.46h0a1.43,1.43,0,0,0,1-.44l.09-.1a18.43,18.43,0,0,0,3.35-5.42,16.19,16.19,0,0,0,6.07,3.72l.13,0a1.31,1.31,0,0,0,.48.08,1.34,1.34,0,0,0,.67-.17,1.38,1.38,0,0,0,.71-.91l0-.11a23.22,23.22,0,0,0,.32-7.87,12.93,12.93,0,0,0-3.5-7.44l.55,0a9.25,9.25,0,0,0,8.94-7.12,20.73,20.73,0,0,0,7.61-1.95l.12-.05a1.41,1.41,0,0,0,.68-1.95l0-.11c-.15-.29-3.71-7.08-10.07-8.87l.19-.07a16.18,16.18,0,0,0,6.94,1.43,21,21,0,0,0,5.69-.76l.13,0a1.37,1.37,0,0,0,.87-.76A1.42,1.42,0,0,0,101.83,40.9Zm-1.44.61a20,20,0,0,1-5.27.69,14.71,14.71,0,0,1-6.84-1.54,29.52,29.52,0,0,0-6.71,3.15,10.22,10.22,0,0,1,5.91-.22c5.86,1.57,9.28,8.12,9.32,8.19l.06.11-.13.06a18.72,18.72,0,0,1-7.57,1.83c-.23,0-.45,0-.67,0A7.76,7.76,0,0,1,73,53.12a7.42,7.42,0,0,1,.13-1.34,38.34,38.34,0,0,1-4.64,4.27,7.76,7.76,0,0,1,5.72,4.51C80,62,81.8,66.44,82.3,69.93A21.69,21.69,0,0,1,82,77.24l0,.14-.13,0a13.24,13.24,0,0,1-7.19-5.52,15.42,15.42,0,0,1-3.74,7.58l-.09.09-.09-.1c-2.41-2.66-3.67-5.33-3.75-7.94a7.72,7.72,0,0,1-5.72-2.65c-1.38,2.75-4,4.71-7.94,5.81l-.13,0,0-.13a17.78,17.78,0,0,1,1.12-10,27.1,27.1,0,0,0-6.9,5.16c-5.79,6.56-4.92,23.88-4.29,36.53v.17c.2,4-.37,6.42-1.78,7.76-1.1,1-2.66,1.37-4.57,1.37-1.32,0-2.81-.16-4.45-.32-.81-.08-1.64-.17-2.51-.24-1.57-.13-2.51-.53-3-1.26-.81-1.31,0-3.48,1.33-6.78a58.42,58.42,0,0,0,3.4-11,97,97,0,0,1,2.58-9.6c2.58-8.52,5.62-18.57,4.92-30a13.62,13.62,0,0,1-7.16,4.14l-.13,0v-.13a16.06,16.06,0,0,1,1.33-9,8.22,8.22,0,0,1-1.41.13,7.77,7.77,0,0,1-7.76-7.76c0-.13,0-.26,0-.39a14.44,14.44,0,0,1-5.08,4.5l-.11.06-.06-.12a20.31,20.31,0,0,1-1.77-6.65l-.49.34A12.9,12.9,0,0,1,9.8,43.2a12.58,12.58,0,0,1-2.94-.31l-.12,0,0-.12a19.85,19.85,0,0,1,4.64-8.87,7.71,7.71,0,0,1-2.15-8.79c-3.41-.9-6.14-3.23-6.39-4a.23.23,0,0,1,0-.27,16.54,16.54,0,0,1,5.56-3.75,16.4,16.4,0,0,1-7-5.46l-.08-.12.13-.06C8.71,8.19,13.48,8.7,16.46,10a22.7,22.7,0,0,1,1.33-8.44l.06-.15.13.09c5.18,3.73,8,7.65,8.38,11.65a9.15,9.15,0,0,1-.08,2.42,17.84,17.84,0,0,1,6.07-3.77,19.62,19.62,0,0,1-1-3.65l0-.14h.14c4.84,0,11.44,1.07,15.45,6.19a13.92,13.92,0,0,1,1.79,3,7.75,7.75,0,0,1,7.05-4.54l.47,0A19.61,19.61,0,0,1,55.59,4l0-.14.13,0C66.54,7.22,67.65,15.19,67.5,19.13c4.77.46,8.56,3.75,10.35,5.6a21.41,21.41,0,0,1,2.38-5.86l.08-.14.12.12a21.09,21.09,0,0,1,4.44,6.77c3-4.78,8.86-7.07,8.95-7.11l.14-.05,0,.14c1,4.69.4,8.47-1.71,11.24A10.61,10.61,0,0,1,89,32.63a11.1,11.1,0,0,1,3.69.57c3.3,1.13,5.91,3.87,7.76,8.14l.06.13ZM72,55.93c-.22-.14-.45-.27-.69-.4l.47-.42C71.85,55.39,71.93,55.66,72,55.93Z"/><path class="cls-1" d="M72.17,29.39a11.39,11.39,0,0,1,2.17,3.48,14.4,14.4,0,0,1,3-4.51,14.59,14.59,0,0,1,.1-1.64,24.57,24.57,0,0,1-6.61,1.54A9.16,9.16,0,0,1,72.17,29.39ZM75,29a10.56,10.56,0,0,0-.62.87c-.15-.22-.29-.42-.45-.62Z"/><path class="cls-1" d="M61.07,47.84a13.17,13.17,0,0,1-5.25,1,17.15,17.15,0,0,1-2.55-.2c-.31.55-.61,1.09-.91,1.6-1.47,2.58-2.74,4.81-2.32,6.24a2,2,0,0,0,1.08,1.22c2,1.05,6.05-.63,10.57-4A17,17,0,0,1,61.07,47.84Zm-8.52,8.78a1.83,1.83,0,0,1-.77-.14c-.33-.18-.37-.31-.38-.36-.25-.86,1.1-3.23,2.2-5.15l.44-.78c.6.06,1.2.09,1.78.09a15.64,15.64,0,0,0,3.8-.45,18.08,18.08,0,0,0,.46,3.35C57,55.35,54.21,56.62,52.55,56.62Z"/><path class="cls-1" d="M57.31,39.62a10.17,10.17,0,0,1,1-.55,10.53,10.53,0,0,1,1-.41,7.8,7.8,0,0,1,4.3-6.35,12.91,12.91,0,0,1-.42-2.3A42.07,42.07,0,0,0,57.31,39.62Z"/><path class="cls-1" d="M69.3,46.92l.22-.23-.23.07A.81.81,0,0,1,69.3,46.92Z"/></svg>