<svg id="圖層_1" data-name="圖層 1" xmlns="http://www.w3.org/2000/svg" viewBox="0 0 145.49 73.36"><defs><style>.cls-1{fill:#fff;}</style></defs><title>0</title><path class="cls-1" d="M145.15,22.7a7.81,7.81,0,0,0-6.43-4.84l-1.15-.08c-2.88-.19-3.56-.24-4.48-2.86-.63-1.79-.2-2.71.44-4.11a10,10,0,0,0,1.13-4.17,5.1,5.1,0,0,0-1.42-4c-1.09-1-2.68-1.52-5.13-1.52-.49,0-1,0-1.58.05A9.19,9.19,0,0,0,120,3.81c-.33.27-.69.58-1.12.91a21,21,0,0,0-2.23,2.09l-.57.58a6.61,6.61,0,0,0-5.54-2.61,9.52,9.52,0,0,0-1.75.17,14.87,14.87,0,0,1-2.85.3,13.63,13.63,0,0,1-3.53-.51,10.1,10.1,0,0,0-2.3-.36,4.9,4.9,0,0,0-.5,0,1.55,1.55,0,0,0-1.24,1,8.45,8.45,0,0,0-.4,3.44,12.76,12.76,0,0,1-2.75-1.09,11.68,11.68,0,0,0-4.66-1.34,8.26,8.26,0,0,0-.84-2.56A7,7,0,0,0,83.56,0,6.17,6.17,0,0,0,81,.57a2.72,2.72,0,0,0-1.63,3.28,2.75,2.75,0,0,0,2.72,1.78,3.88,3.88,0,0,0,.82-.09,2.42,2.42,0,0,1,.45,0c.79,0,1.4.56,1.82,1.67A17.25,17.25,0,0,0,82,8.64a10.58,10.58,0,0,1-3.91,1c-3.19.42-7.15,1-11.1,5.18a14.11,14.11,0,0,0-1,1.13l-.92-.11a14.51,14.51,0,0,1-6.8-2.14,12.72,12.72,0,0,0-3.5-1.5c.57-2.1,1.73-2.1,2.13-2.1l.3,0,.47,0a2.94,2.94,0,0,0,3-2.12,2.82,2.82,0,0,0-2-3.24,6.51,6.51,0,0,0-2.17-.37,7.42,7.42,0,0,0-6.78,4.79A9.14,9.14,0,0,0,49.13,12,18.42,18.42,0,0,0,44,13.69a11.68,11.68,0,0,1-4.39.79c-3.48.24-7.82.53-12.39,4.81a19,19,0,0,0-5.8,11.51,29.81,29.81,0,0,0-4.71-.46,11.55,11.55,0,0,0-2.16.18,8.94,8.94,0,0,0-3.15,1.21,3.44,3.44,0,0,1-2.11.62H9c-.51,0-1,0-1.58,0-1.4,0-5.69,0-6.66,4.37-.1.48-.22.89-.33,1.26a5.13,5.13,0,0,0,.54,5c.89,1.37,2.53,2,3.85,2.45A8.84,8.84,0,0,1,6.3,46a2.76,2.76,0,0,1-.55.9A5.19,5.19,0,0,0,4.58,49.3,3.86,3.86,0,0,0,5.25,52a1.42,1.42,0,0,1,.35,1,4.13,4.13,0,0,1-.51,1.16,5.68,5.68,0,0,0-.49,5.71A7.17,7.17,0,0,0,9,63.94a4.45,4.45,0,0,0,1.08.14,3.92,3.92,0,0,0,2.31-.76c.33-.24.65-.51,1-.8,1.08-.9,2.11-1.75,3.56-1.75l.46,0a6.53,6.53,0,0,0,.87.05A5.63,5.63,0,0,0,22,59.57a5.39,5.39,0,0,0,1.83-4c0-.38.27-.49.57-.51a.55.55,0,0,1,.56.47,8.83,8.83,0,0,1,.23,1.71c.11,1.55.32,4.43,3.94,4.61h.42a7,7,0,0,0,3.36-.84l.1,0a11,11,0,0,0,6.34,2.23c2,.2,2.47.33,2.74,1.34,1.24,4.81,3.9,5.52,6.72,6.26l.28.08a7.23,7.23,0,0,1,2.25,1.19,5.26,5.26,0,0,0,3,1.26,3.7,3.7,0,0,0,2.17-.75,6.65,6.65,0,0,0,2.36-3.09c.37-.83.53-1.13,1.06-1.39,2.08-1,1.55-3.34,1.26-4.59A6.67,6.67,0,0,1,61,62.12h0l.2.37a4.84,4.84,0,0,0,4.14,3.07c.45,0,.86.06,1.22.06a13.91,13.91,0,0,0,2-.16,5.28,5.28,0,0,1,.77-.08c.24,0,.63,0,1.8,1A9.6,9.6,0,0,0,77,68.63a6.66,6.66,0,0,0,.78,0A4.62,4.62,0,0,0,81,66.86c1.45-1.92,3.58-6.9.91-10.08A22.69,22.69,0,0,0,80.18,55a12.28,12.28,0,0,1-1.64-1.74A3.62,3.62,0,0,1,79,53a3.8,3.8,0,0,1,1.6-.34,8.2,8.2,0,0,1,1.87.28c.6,3.57,2.63,4.79,4.28,5.79a6.08,6.08,0,0,1,3,3c.78,1.82,2.12,4.09,4.09,4.53a3.34,3.34,0,0,0,.7.08,3.58,3.58,0,0,0,2.4-1,8.77,8.77,0,0,1,1.2-.86c1.92-1.21,2.27-2.25,2.08-6.29a2.64,2.64,0,0,1,1.88-2.75,6.6,6.6,0,0,1,2.17-.39c2-.09,3.13-.67,4-3.69.38-1.26,1.11-1.42,2.6-1.63,1.15-.16,2.72-.39,3.36-1.94,1.82-4.5,0-7.43-1.15-9.36l-.3-.51a15.13,15.13,0,0,0,1.73-3.27c1,.54,2,1.12,2.92,1.73a15.13,15.13,0,0,0,8.16,2.3,13.85,13.85,0,0,0,4.91-.84,6.3,6.3,0,0,0,4.11-3.93c.41-1.53,2.82-2.66,5.16-3.74a15.83,15.83,0,0,0,4.49-2.67A4.39,4.39,0,0,0,145.15,22.7Zm-1.9,3.8a14.88,14.88,0,0,1-4.08,2.38c-2.63,1.23-5.35,2.49-5.93,4.66-.33,1.24-1.49,2.29-3.25,3a12.57,12.57,0,0,1-4.4.74,13.8,13.8,0,0,1-7.4-2.07,49.31,49.31,0,0,0-4.49-2.57,13.87,13.87,0,0,1-2.6,5.15,14.39,14.39,0,0,0,.77,1.39c1.16,1.9,2.6,4.26,1,8.09-.32.81-1.21.93-2.24,1.08-1.45.2-3.1.43-3.76,2.62-.79,2.59-1.48,2.63-2.75,2.68a8.62,8.62,0,0,0-2.59.47,4.13,4.13,0,0,0-2.81,4.24c.19,3.93-.22,4.18-1.42,4.94a9.3,9.3,0,0,0-1.39,1,2.23,2.23,0,0,1-1.46.63,1.72,1.72,0,0,1-.39,0c-1.46-.33-2.57-2.47-3.1-3.71a7.47,7.47,0,0,0-3.54-3.63c-1.76-1.06-3.43-2.08-3.72-5.74a8.4,8.4,0,0,1-.89-.19,6.41,6.41,0,0,0-4.45.13c-.82.37-1.26.79-1.34,1.26-.15.89,1,1.93,2.15,3a19.69,19.69,0,0,1,1.64,1.66c2.1,2.51.23,6.76-.95,8.31a3.26,3.26,0,0,1-2.29,1.18A7.83,7.83,0,0,1,72,65.24c-1.78-1.46-2.45-1.36-3.67-1.19a10.81,10.81,0,0,1-2.88.1,3.47,3.47,0,0,1-3-2.31c-.46-.89-.77-1.48-1.94-1.06s-1,1.73-.68,3.07.56,2.48-.51,3A3.55,3.55,0,0,0,57.58,69a5.37,5.37,0,0,1-1.88,2.51,2.39,2.39,0,0,1-1.36.48,4,4,0,0,1-2.2-1,8.37,8.37,0,0,0-2.7-1.4l-.28-.07c-2.71-.72-4.67-1.25-5.71-5.25-.54-2.06-2.05-2.21-4-2.4a9.47,9.47,0,0,1-5.82-2.11c-.12-.11-.21-.22-.32-.34a4.07,4.07,0,0,0-1.06.41,5.72,5.72,0,0,1-3.09.69c-2.36-.12-2.48-1.67-2.59-3.3a10.59,10.59,0,0,0-.28-2,2,2,0,0,0-2.18-1.5,1.9,1.9,0,0,0-1.74,1.86,4,4,0,0,1-1.33,3,4.54,4.54,0,0,1-3.51.89c-2.3-.26-3.79,1-5.09,2-.32.27-.62.53-.94.75a2.39,2.39,0,0,1-1.47.49,2.67,2.67,0,0,1-.73-.1,5.78,5.78,0,0,1-3.45-3.3C5,57.32,5.69,56,6.33,54.84A4.88,4.88,0,0,0,7,53.14a2.85,2.85,0,0,0-.54-1.88A2.45,2.45,0,0,1,6,49.51a4,4,0,0,1,.9-1.77,3,3,0,0,0,.85-2c-.05-.87-1.17-1.27-2.46-1.74a6.17,6.17,0,0,1-3.14-1.89c-1-1.57-.77-2.41-.37-3.8.11-.39.24-.83.36-1.34.77-3.48,4.11-3.33,6.8-3.22a5,5,0,0,0,3.15-.8,7.59,7.59,0,0,1,2.7-1.05,24,24,0,0,1,7.86.55,18,18,0,0,1,5.52-12.14c4.2-3.94,8.09-4.19,11.52-4.42a12.67,12.67,0,0,0,4.93-1,16.13,16.13,0,0,1,5.85-1.71l0-.35a9.52,9.52,0,0,1,.58-3.16c1.48-3.5,4.8-4.48,7.16-3.63,1,.34,1.25,1,1.13,1.58s-.8,1.13-2,1c-2.14-.22-3.6,1.13-4.11,3.81,0,.28-.09.55-.12.8a11.19,11.19,0,0,1,4.41,1.59,16,16,0,0,0,7.38,2.34c.57.07,1.14.13,1.71.23A15.25,15.25,0,0,1,68,15.77c3.6-3.86,7.13-4.33,10.25-4.75a11.78,11.78,0,0,0,4.44-1.16,15.62,15.62,0,0,1,4.18-1.72,8.39,8.39,0,0,0-.2-.88c-.7-2.39-2.14-3.49-4.07-3.1-1.08.22-1.73-.22-1.91-.75a1.32,1.32,0,0,1,.89-1.56,5.31,5.31,0,0,1,6.86,2.69,8.79,8.79,0,0,1,.81,2.83c0,.14.05.29.07.43A10.42,10.42,0,0,1,94.51,9a13.33,13.33,0,0,0,5.12,1.57,8.29,8.29,0,0,1,0-4.69l0-.08h.08a7.34,7.34,0,0,1,2.28.31,14.49,14.49,0,0,0,7,.22c2.77-.52,5.25.44,6.18,2.4.15.31.31.48.5.51h.06c.46,0,1.12-.69,1.88-1.47a20.73,20.73,0,0,1,2.07-2c.45-.34.83-.66,1.17-1,1.52-1.28,2.44-2.06,5.75-2.27,3-.19,4.66.13,5.64,1.07a3.72,3.72,0,0,1,1,2.93,8.56,8.56,0,0,1-1,3.61,6,6,0,0,0-.49,5.17c1.23,3.51,2.73,3.61,5.72,3.81.36,0,.74,0,1.14.08a6.39,6.39,0,0,1,5.21,3.91A3,3,0,0,1,143.25,26.5Z"/></svg>