<svg id="圖層_1" data-name="圖層 1" xmlns="http://www.w3.org/2000/svg" viewBox="0 0 93.96 102.14"><defs><style>.cls-1{fill:#fff;}</style></defs><title>0</title><path class="cls-1" d="M58.48,22.46c.13-.19.27-.37.42-.55a8.71,8.71,0,0,1-.34-.93,5.44,5.44,0,0,1,0,.57C58.51,21.84,58.49,22.15,58.48,22.46Z"/><path class="cls-1" d="M63.29,11.79a7.42,7.42,0,0,1-.73.76c.17-.05.33-.1.48-.13C63.12,12.2,63.2,12,63.29,11.79Z"/><path class="cls-1" d="M58.42,17.21l-.67.33a10.32,10.32,0,0,1,.47,1.23A6.24,6.24,0,0,1,58.42,17.21Z"/><path class="cls-1" d="M24.7,28c1.35,1.9,3.4,4,4.85,4.27a1.08,1.08,0,0,0,1.06-.32,1.6,1.6,0,0,0,.4-1.23c-.07-1.18-1-2.76-2.28-4.41A9.25,9.25,0,0,1,24.7,28Zm4.89,2.82a8,8,0,0,1-2.45-2,11.48,11.48,0,0,0,1.23-.58,5.82,5.82,0,0,1,1.22,2.58Z"/><path class="cls-1" d="M55.68,32.46l.3-.25A4.62,4.62,0,0,0,57.43,30c-.09-.35-.75-2.2-5-4.93a8.37,8.37,0,0,1-1.71-1.44,8.42,8.42,0,0,0-1.16,5.57,3.37,3.37,0,0,1,3.44.68c1.27,1.13,1.57,2.85,1.89,4.68a11,11,0,0,0,1.55,4.69l.14.21h-.26a6.38,6.38,0,0,1-5-3.44,4.81,4.81,0,0,0-1.56-2,33.5,33.5,0,0,1-1.89,6.87C46.82,44,46,46.39,47.28,47.25c2.68,1.74,5.59-2.06,10-7.81l.37-.48a29.42,29.42,0,0,0,3.9-8.19,16.74,16.74,0,0,1-5.45,1.66Zm-1.74-3.65a4.75,4.75,0,0,0-3-1.24A6.54,6.54,0,0,1,51.2,26l.45.31c2.89,1.84,3.91,3.19,4.25,3.76a2.76,2.76,0,0,1-.52.8A5.79,5.79,0,0,0,53.94,28.81Zm-5.3,17.45a1,1,0,0,1-.57-.18c-.29-.55.59-3,1.18-4.69.42-1.18.9-2.53,1.3-4a7.61,7.61,0,0,0,4.09,3.08C52.21,43.66,50,46.26,48.64,46.26Zm10.46-13A24.55,24.55,0,0,1,57,37.36a14.8,14.8,0,0,1-.75-3c0-.16-.05-.32-.08-.47A16.87,16.87,0,0,0,59.1,33.24Z"/><path class="cls-1" d="M22.86,20l-.25-.23-.33.45c.26.14.53.3.8.48.53.36,1.06.71,1.58,1l-.95-.93A3.85,3.85,0,0,1,22.86,20Z"/><path class="cls-1" d="M34.1,26.75a39.88,39.88,0,0,1,2.11,3.81A11.31,11.31,0,0,1,37.72,27l-.7,0A13.66,13.66,0,0,1,34.1,26.75Z"/><path class="cls-1" d="M15.66,21.76a6.14,6.14,0,0,0,.3-1.23,6.26,6.26,0,0,1-1.21,1A4.33,4.33,0,0,1,15.66,21.76Z"/><path class="cls-1" d="M39.67,25.3a6.3,6.3,0,0,1,2.55-.61,3.5,3.5,0,0,1,2.26.6,19.35,19.35,0,0,1,.84-2.63,23.68,23.68,0,0,1-6.64,1.58A10.67,10.67,0,0,0,39.67,25.3Z"/><path class="cls-1" d="M38.14,35c.29.75.55,1.46.79,2.12,1,2.64,1.62,4.41,2.59,4.41h.07c1.43-.13,1.94-3.08,2.17-6.64a15.37,15.37,0,0,1-3.13.34A13.63,13.63,0,0,1,38.14,35Zm3.4,4.78a28.45,28.45,0,0,1-1.27-3.14h.36c.51,0,1,0,1.56-.08A12.08,12.08,0,0,1,41.54,39.79Z"/><path class="cls-1" d="M93.84,21.89a1.42,1.42,0,0,0-1.3-.85,1,1,0,0,0-.3,0l-.6.13A8.17,8.17,0,0,1,90,21.4a6.31,6.31,0,0,1-3.48-1.14h.68a1.42,1.42,0,0,0,1.06-2.36l-.19-.21c-2.67-3-5.29-4.39-8.26-4.39a13.62,13.62,0,0,0-5.54,1.36,5.64,5.64,0,0,1-.85.28c.13-.22.24-.44.35-.67a10.49,10.49,0,0,0,.55-6.9,6.21,6.21,0,0,1-.09-3.13,1.41,1.41,0,0,0-.88-1.77l-.24-.08a1.19,1.19,0,0,0-.45-.08,1.47,1.47,0,0,0-1.33.88s-.67,1.48-3.48,3.58A17.94,17.94,0,0,0,64.36,10,10.1,10.1,0,0,0,65,5l0-.25a1.39,1.39,0,0,0-1-1.13,1.47,1.47,0,0,0-.41-.07,1.4,1.4,0,0,0-1,.45l-.17.18c-.66.68-2.73,2.45-4.44,2.45h-.14c-.24,0-.47,0-.7,0a8.94,8.94,0,0,0-3,.47,6.88,6.88,0,0,0-1.71-.23,4.91,4.91,0,0,0-1.79.32c-.38-.69-.79-1.36-1.14-1.95a20.33,20.33,0,0,1-2.07-4A1.43,1.43,0,0,0,46,0l-.22,0-.25,0A1.42,1.42,0,0,0,44.35,1.6a12.37,12.37,0,0,1-.64,4.92c-1,2.55-1.56,5.31,0,8.36A9.13,9.13,0,0,0,41,19a7.31,7.31,0,0,1-2.22,3c-.32-.49-.64-1-1-1.6s-.53-.93-.81-1.36A1.54,1.54,0,0,0,37.39,18a9.7,9.7,0,0,0-8.13-8.9A10.37,10.37,0,0,0,27.53,9a8.07,8.07,0,0,0-2.64.42c-2.05-2.91-5.37-4.86-8.43-4.86a7.15,7.15,0,0,0-1.4.14,5.2,5.2,0,0,0-4.25,3.62c-2.29.27-3.67,1.64-4.9,2.87a12,12,0,0,1-4.73,3.26l-.24.08A1.42,1.42,0,0,0,.65,17l.23.15a7.92,7.92,0,0,0,3.94,1A7.8,7.8,0,0,0,8,17.55,8.51,8.51,0,0,1,4.54,19.3l-.31.06a1.42,1.42,0,0,0-.5,2.58l.27.17a12.26,12.26,0,0,0,4.1,1.52A6.36,6.36,0,0,0,7.57,25c-1.13,4.44,2.34,9.92,2.8,10.61a1.49,1.49,0,0,0,1.24.62,1.24,1.24,0,0,0,.33,0,29.37,29.37,0,0,0,4.32-1.3v0c0,4.48-.85,6.06-1.13,6.26A1.42,1.42,0,0,0,14.44,43l.1.23a1.44,1.44,0,0,0,1.3.85,1.49,1.49,0,0,0,.54-.11c.3-.12,6.57-2.77,9.17-7.57a34.93,34.93,0,0,0,4.06,2c5.83,2.47,10,12.69,11.58,21.72.47,2.74.72,5.55,1,8.53.65,7.38,1.39,15.74,5.78,26.84,1.29,3.24,2.49,5.42,4.51,6.24a5.09,5.09,0,0,0,1.95.35,19.54,19.54,0,0,0,4.73-.91c1.35-.36,2.89-.77,4.77-1.16a2.6,2.6,0,0,0,2-1.53c.78-1.85-.69-4.12-3.36-8.27-1.29-2-2.76-4.28-4.17-6.85-8.85-16.1-7.89-26.25-4.38-30,1.22-1.31,2.34-2.41,3.42-3.47,3.68-3.63,6.86-6.76,9.43-14.2.16-.44.3-.87.44-1.27.12.21.25.43.39.64.48.74.92,1.38,1.35,2,1.53,2.25,2.1,3.09,2.24,4.55l0,.26a1.4,1.4,0,0,0,.91,1.21,1.47,1.47,0,0,0,.5.09,1.43,1.43,0,0,0,1-.4l.2-.19a13.18,13.18,0,0,0,3.53-7.51,30.25,30.25,0,0,0,4.14-.9,1.56,1.56,0,0,0,1-1.14,12.78,12.78,0,0,0-.63-6.28l.08,0a8.7,8.7,0,0,0,2.07.24c4.35,0,8.59-2.94,8.77-3.07l.5-.35A1.42,1.42,0,0,0,93.84,21.89Zm-1.8.93s-4,2.8-8,2.8a7.24,7.24,0,0,1-1.73-.2,11.58,11.58,0,0,0-2.82-.3,11.23,11.23,0,0,1,1.64,7.64v.07l-.07,0a24.75,24.75,0,0,1-5.06,1c.19,4.43-3.11,7.74-3.15,7.78l-.19.18,0-.26c-.17-1.84-.89-2.9-2.48-5.23-.4-.58-.84-1.23-1.34-2a6,6,0,0,1-1-4.62c-.1-.24-.2-.48-.27-.71-.21.59-.43,1.27-.69,2.09-.36,1.11-.81,2.49-1.39,4.19-2.47,7.12-5.39,10-9.1,13.65C55.32,50,54.19,51.09,53,52.42c-4,4.33-5,14.93,4.18,31.69C58.57,86.72,60.06,89,61.36,91c2.25,3.49,3.73,5.79,3.25,6.95a1.23,1.23,0,0,1-1,.69c-1.93.4-3.49.82-4.86,1.18a18.72,18.72,0,0,1-4.36.87,3.58,3.58,0,0,1-1.41-.26c-1.37-.55-2.37-2-3.73-5.44C45,84.12,44.22,75.86,43.58,68.58c-.26-3-.51-5.85-1-8.64C41.08,51.21,36.92,40,30.16,37.16a31.94,31.94,0,0,1-5.26-2.81c-1.68,5.24-9,8.3-9.06,8.34l-.1-.23c1.21-.57,1.93-3.39,1.94-7.54a14,14,0,0,1,.19-2.34,23.55,23.55,0,0,1-6.24,2.24l-.08,0-.05-.07c-.15-.22-3.56-5.48-2.56-9.41A4.84,4.84,0,0,1,11,22.47h-.2a12.08,12.08,0,0,1-6.05-1.55l-.26-.17.31-.06a9.55,9.55,0,0,0,4.9-2.9,6.52,6.52,0,0,1,2.84-2.07,3.54,3.54,0,0,1-.42-.35A6.62,6.62,0,0,0,8,16a6.58,6.58,0,0,1-6.35,0l-.21-.14.24-.09a13.24,13.24,0,0,0,5.25-3.59C8.34,10.73,9.59,9.51,12,9.67c0-.54.1-2.94,3.31-3.62s7.12,1.71,9,5.14A6.69,6.69,0,0,1,29,10.51c6.54,1.09,7,7.52,7,7.58v.05l0,0a5.88,5.88,0,0,1-.76.7,19.43,19.43,0,0,1,1.43,2.25,20.63,20.63,0,0,0,1.93,2.93.69.69,0,0,1,.21-.18,9.37,9.37,0,0,0,3.62-4.4,7.09,7.09,0,0,1,3.31-4.19C43.46,12.2,44.11,9.52,45,7a13.52,13.52,0,0,0,.72-5.56l.25,0A19.32,19.32,0,0,0,48.25,5.9c.65,1.08,1.31,2.2,1.8,3.21a4.79,4.79,0,0,1,.74-.51,4.25,4.25,0,0,1,3.39,0A7.34,7.34,0,0,1,57.69,8h.23c2.69,0,5.43-2.86,5.46-2.89l.18-.19,0,.25s.66,4.34-2.35,6.61A8.81,8.81,0,0,1,59,13a6.85,6.85,0,0,1,.51,1.84v.08l-.06,0a16.4,16.4,0,0,1-3.74,1.86,7.33,7.33,0,0,1,1.4,4.6,39.2,39.2,0,0,0,.47,8c.09-.34.16-.7.25-1.1a19.9,19.9,0,0,1,1-3.46,7.65,7.65,0,0,1,1.78-2.68A6,6,0,0,1,60,16.91c1.13-2.56,2.83-3.08,3.74-3.17.14,0,.27,0,.4,0,.5-2.57,2.26-4.13,4.55-5.84C72,5.47,72.65,3.74,72.65,3.72l.24.09a7.49,7.49,0,0,0,0,3.82,9.11,9.11,0,0,1-.44,6.05A5.85,5.85,0,0,1,70,16.34,8.41,8.41,0,0,0,74.85,16c5.05-2.24,8.46-1.49,12.17,2.68l.19.21h-.28a25.27,25.27,0,0,0-5.12.55A12.66,12.66,0,0,1,85.08,21c1.85,1.17,3.6,2.28,6.86,1.57l.6-.13Zm-28.75-11c-.09.2-.17.41-.25.63-.15,0-.31.08-.48.13A7.42,7.42,0,0,0,63.29,11.79ZM58.9,21.91c-.15.18-.29.36-.42.55,0-.31,0-.62.05-.91a5.44,5.44,0,0,0,0-.57A8.71,8.71,0,0,0,58.9,21.91Zm-.48-4.7a6.24,6.24,0,0,0-.2,1.56,10.32,10.32,0,0,0-.47-1.23Z"/></svg>