<svg id="圖層_1" data-name="圖層 1" xmlns="http://www.w3.org/2000/svg" viewBox="0 0 95.68 113.96"><defs><style>.cls-1{fill:#fff;}</style></defs><title>0</title><path class="cls-1" d="M45.24,93.75l-.14-.21-.39.16Z"/><path class="cls-1" d="M51.86,80a10.19,10.19,0,0,1-1.92-.9c.18.31.34.64.49,1A8.77,8.77,0,0,1,51.58,80Z"/><path class="cls-1" d="M95.56,87.54a8,8,0,0,0-5.23-6.37,8.2,8.2,0,0,0-2.25-.47A10.27,10.27,0,0,0,90,62.52a9.94,9.94,0,0,0,.15-1.41,10.31,10.31,0,0,0-10-10.59H80a10.28,10.28,0,0,0-9.4-6.86h-.31A10.19,10.19,0,0,0,60.82,50h-.19a10.07,10.07,0,0,0-4.9,1.27c-.12.15-.23.31-.36.45A13.88,13.88,0,0,1,52.2,54.4,10.14,10.14,0,0,0,50.34,60a10.53,10.53,0,0,0,0,1.25,10.21,10.21,0,0,0-5.21,7.06A10.91,10.91,0,0,0,44,66.74a10.21,10.21,0,0,0-7.18-3.22h-.17a10.28,10.28,0,0,0-9.39-6.87h-.07a17.36,17.36,0,0,1-2.79.32,10.15,10.15,0,0,0-6.94,6h-.21A10.31,10.31,0,0,0,7,73a10.51,10.51,0,0,0,0,1.25A10.3,10.3,0,0,0,8.46,93H8.19a8.26,8.26,0,0,0-2.53.39A7.94,7.94,0,0,0,.18,99.5a9.66,9.66,0,0,0,2.14,7.89c1.79,2.27,6.16,6.1,15.3,6.23h.3a14.32,14.32,0,0,0,8-2.08A14.52,14.52,0,0,0,34.2,114H35c8.59,0,12.88-3.52,14.68-5.63a9.63,9.63,0,0,0,2.46-7.79,10.56,10.56,0,0,0-.47-1.71A24.13,24.13,0,0,0,61,100.62h.3a14.27,14.27,0,0,0,8-2.08A14.53,14.53,0,0,0,77.59,101h.83c8.59,0,12.89-3.52,14.68-5.63A9.63,9.63,0,0,0,95.56,87.54ZM92,94.41c-1.66,2-5.6,5.13-13.6,5.14h-.8c-4.05-.11-6.86-1.34-8.25-2.87C68,98.1,65.2,99.21,61.3,99.21H61c-8.54-.12-12.56-3.61-14.19-5.69a9.9,9.9,0,0,1-1.16-1.86A9,9,0,0,1,41,93h-.26a8.87,8.87,0,0,1-4.37-1.31,17.75,17.75,0,0,0-2.77,3.5,25.45,25.45,0,0,0-3.34,9.38c4.24-.84,5.86-3.06,7.43-5.21A16.17,16.17,0,0,1,40.2,96.4a6.68,6.68,0,0,1,10.58,4.39,8.18,8.18,0,0,1-2.14,6.62c-1.66,2-5.6,5.14-13.6,5.14h-.8c-4.06-.11-6.86-1.35-8.26-2.87-1.41,1.43-4.16,2.54-8.06,2.54h-.29c-8.55-.12-12.56-3.62-14.19-5.69a8.25,8.25,0,0,1-1.88-6.7A6.59,6.59,0,0,1,6.08,94.7a6.55,6.55,0,0,1,6.23,1.14,16,16,0,0,1,2.41,3c1.49,2.23,3,4.53,7.3,5.53a25.66,25.66,0,0,0-2.8-9.68,17.4,17.4,0,0,0-2.78-3.87A8.83,8.83,0,0,1,4.62,88.34,8.87,8.87,0,0,1,8.56,75a9,9,0,0,1-.18-2,8.86,8.86,0,0,1,9.13-8.61,7.38,7.38,0,0,1,.9.07,8.86,8.86,0,0,1,8.52-6.4h.26A8.84,8.84,0,0,1,35.58,65a8.25,8.25,0,0,1,1.17-.06,8.88,8.88,0,0,1,8.62,9.14A9,9,0,0,1,45,76.21a8.92,8.92,0,0,1,4.48,5.48,6.56,6.56,0,0,1,6.18,1.16,15.65,15.65,0,0,1,2.41,3c1.49,2.23,3,4.53,7.3,5.53a25.3,25.3,0,0,0-2.8-9.66,17.4,17.4,0,0,0-2.78-3.9A8.86,8.86,0,1,1,51.94,62a8.87,8.87,0,0,1,8.69-10.66h.26a7.7,7.7,0,0,1,.91.07,8.85,8.85,0,0,1,8.51-6.4h.26A8.85,8.85,0,0,1,79,52a8,8,0,0,1,1.17-.06,8.89,8.89,0,0,1,8.61,9.14,8.51,8.51,0,0,1-.34,2.14,8.88,8.88,0,0,1-4,16.78h-.26a8.87,8.87,0,0,1-4.37-1.31A17.75,17.75,0,0,0,77,82.17a25.45,25.45,0,0,0-3.34,9.38c4.24-.84,5.86-3.06,7.43-5.21a15.84,15.84,0,0,1,2.53-2.94,6.69,6.69,0,0,1,10.58,4.39A8.22,8.22,0,0,1,92,94.41Zm-46.78-.66-.53,0,.39-.16Zm-4.51.65a6.54,6.54,0,0,0-1.44.92,17.3,17.3,0,0,0-2.76,3.18c-1.19,1.65-2.26,3.12-4.43,4a22.6,22.6,0,0,1,2.7-6.62,18.35,18.35,0,0,1,1.83-2.49,10.26,10.26,0,0,0,4,1ZM11.2,93.53l.66,0a10.35,10.35,0,0,0,4.26-.93A17.59,17.59,0,0,1,18,95.41a22.89,22.89,0,0,1,2.34,7c-2.23-1-3.26-2.54-4.41-4.27a17.56,17.56,0,0,0-2.63-3.29A6.91,6.91,0,0,0,11.2,93.53ZM49.94,79.07a10.19,10.19,0,0,0,1.92.9h-.28a8.77,8.77,0,0,0-1.15.07C50.28,79.71,50.12,79.38,49.94,79.07Zm4.64,1.46.66,0a10.31,10.31,0,0,0,4.26-.93,17.48,17.48,0,0,1,1.86,2.8,22.94,22.94,0,0,1,2.33,6.94c-2.23-1-3.26-2.54-4.42-4.28a17,17,0,0,0-2.62-3.28A6.91,6.91,0,0,0,54.58,80.53Zm29.53.87a6.54,6.54,0,0,0-1.44.92,17.35,17.35,0,0,0-2.76,3.18,10.18,10.18,0,0,1-4.43,4,23.12,23.12,0,0,1,2.7-6.62A16.94,16.94,0,0,1,80,80.42a10.17,10.17,0,0,0,4,1Z"/><path class="cls-1" d="M27.17,56.64A11.78,11.78,0,0,0,31.6,54.9a14.53,14.53,0,0,0,8.26,2.41h.83A21.1,21.1,0,0,0,52.2,54.4a10.4,10.4,0,0,1,3.53-3.16,9.49,9.49,0,0,0,2.1-7.34,8,8,0,0,0-5.23-6.37,8.2,8.2,0,0,0-2.25-.47,10.28,10.28,0,0,0,1.94-18.19,8.44,8.44,0,0,0,.15-1.41,10.28,10.28,0,0,0-10-10.58h-.16A10.31,10.31,0,0,0,32.88,0H32.6a10.34,10.34,0,0,0-9.5,6.33h-.24a10.31,10.31,0,0,0-10.25,10,10.53,10.53,0,0,0,.05,1.25,10.28,10.28,0,0,0,1.47,18.76h-.29a8.35,8.35,0,0,0-2.53.39,7.94,7.94,0,0,0-5.48,6.15A9.66,9.66,0,0,0,8,50.75C9.77,53,14.13,56.85,23.27,57h.31l.8,0a10.24,10.24,0,0,1,2.55-.32Zm-3.89-1.08c-8.54-.12-12.56-3.62-14.19-5.69a8.22,8.22,0,0,1-1.87-6.7A6.68,6.68,0,0,1,18,39.2a16,16,0,0,1,2.41,3c1.49,2.23,3,4.53,7.3,5.53a25.5,25.5,0,0,0-2.79-9.66,17.42,17.42,0,0,0-2.79-3.9A8.86,8.86,0,1,1,14.22,18.4a8.43,8.43,0,0,1-.19-2,8.85,8.85,0,0,1,2.78-6.2,8.74,8.74,0,0,1,6.35-2.41,7.7,7.7,0,0,1,.91.07,8.87,8.87,0,0,1,17.17.52,9.72,9.72,0,0,1,1.17-.05A8.86,8.86,0,0,1,51,17.42a8.52,8.52,0,0,1-.34,2.15,8.87,8.87,0,0,1-4,16.77h-.27A8.88,8.88,0,0,1,42,35a18.21,18.21,0,0,0-2.77,3.51,25.45,25.45,0,0,0-3.34,9.38c4.25-.84,5.86-3.06,7.43-5.22a15.79,15.79,0,0,1,2.53-2.93,6.68,6.68,0,0,1,10.58,4.39,8.25,8.25,0,0,1-2.14,6.62c-1.66,1.95-5.61,5.13-13.61,5.13h-.8c-4-.1-6.86-1.34-8.25-2.86-1.42,1.43-4.17,2.53-8.06,2.53ZM16.85,36.89l.66,0A10.31,10.31,0,0,0,21.77,36a17,17,0,0,1,1.86,2.8A22.94,22.94,0,0,1,26,45.72c-2.23-1-3.26-2.54-4.41-4.27a17.17,17.17,0,0,0-2.63-3.29A6.42,6.42,0,0,0,16.85,36.89Zm29.53.87a6.78,6.78,0,0,0-1.44.92,17.4,17.4,0,0,0-2.76,3.18,10.24,10.24,0,0,1-4.43,4,23,23,0,0,1,2.7-6.62,17.7,17.7,0,0,1,1.84-2.49,10.22,10.22,0,0,0,4.05,1Z"/><path class="cls-1" d="M26.93,56.64a10.24,10.24,0,0,0-2.55.32,17.36,17.36,0,0,0,2.79-.32Z"/><path class="cls-1" d="M52.2,54.4a13.88,13.88,0,0,0,3.17-2.71c.13-.14.24-.3.36-.45A10.4,10.4,0,0,0,52.2,54.4Z"/></svg>