<svg id="圖層_1" data-name="圖層 1" xmlns="http://www.w3.org/2000/svg" viewBox="0 0 90.06 120.35"><defs><style>.cls-1{fill:#fff;}</style></defs><title>0</title><path class="cls-1" d="M32.85,34.18a3.72,3.72,0,0,1,.57,2l.29,0c.09,0,.16.06.24.08.11-1.16.22-2.3.33-3.41.08-.84.15-1.65.23-2.43a18.33,18.33,0,0,1-3,2.43A3.72,3.72,0,0,1,32.85,34.18Z"/><path class="cls-1" d="M45.52,61.91a46.47,46.47,0,0,0,5.2-.81,4,4,0,0,1-2.7-4,4.08,4.08,0,0,1-.93.12h-.31a4,4,0,0,1-3.7-4.31,4.1,4.1,0,0,1,.11-.61,3.39,3.39,0,0,1-.64.06h-.31a4,4,0,0,1-2.13-7.18,4,4,0,0,1,2.2-7,8.75,8.75,0,0,0-3.6-2.28c-.56,7-1.19,13.93-1.59,17.06l0,.34c-.47,3.66-.78,6.07.51,7.43C38.72,61.89,41.1,62.26,45.52,61.91Zm-7-8.46s.12-1,.16-1.3a5.44,5.44,0,0,0,3,1.58,5.45,5.45,0,0,0,5,4.92h.1a5.79,5.79,0,0,0,.7,1.59c-.78.12-1.47.2-2.06.25-1,.08-1.93.12-2.72.12-2.14,0-3.51-.31-4.08-.9C37.78,58.85,38.07,56.58,38.48,53.45Z"/><path class="cls-1" d="M32.84,43.81h-.1c0,.05,0,.1,0,.16a3.84,3.84,0,0,1-3.72,3,4.5,4.5,0,0,1-.89-.1A3.8,3.8,0,0,1,27,46.33a3.92,3.92,0,0,1-.07,1.23,3.81,3.81,0,0,1-3.73,3A3.62,3.62,0,0,1,21.26,50,3.82,3.82,0,0,1,20,52.39a18.1,18.1,0,0,1,2.91,2.74c.49.58.89.83,1.14.71.7-.31.6-3.19.37-4.94a.11.11,0,0,1,.05-.12.15.15,0,0,1,.13,0c.24.11,5.42,2.47,6.89,5.68.14-.79.28-1.57.41-2.39.52-3.44,1-6.89,1.33-10.27ZM22,52.19a3.9,3.9,0,0,0,.19-.35,5.51,5.51,0,0,0,.91.1c0,.49.06,1,.06,1.36C22.75,52.92,22.36,52.55,22,52.19Zm8.61.83a20.17,20.17,0,0,0-3.67-2.63,5.13,5.13,0,0,0,1.28-2.12,5.67,5.67,0,0,0,.82.07,5.15,5.15,0,0,0,2.28-.53C31.05,49.66,30.81,51.38,30.57,53Z"/><path class="cls-1" d="M55.47,66.24l-3.57.58a20.42,20.42,0,0,1,1.39,6.9A4.07,4.07,0,0,1,55.74,73c1.22-1.15,3.41-2.15,7.33-2.06a13.76,13.76,0,0,0-.21-6C60.38,65.46,57.89,65.86,55.47,66.24Zm6.35,3.28a11.15,11.15,0,0,0-6.63,2.06,4.87,4.87,0,0,0-.65.1,21.72,21.72,0,0,0-.74-3.74l1.89-.3c2.15-.34,4.12-.65,6.1-1A12.77,12.77,0,0,1,61.82,69.52Z"/><path class="cls-1" d="M36.13,18.3l-.12.25a4.28,4.28,0,0,1-2.82,2.25,4.37,4.37,0,0,0-3.08,1.78c.62.22,3.53,1.35,4.88,3.13A55.63,55.63,0,0,1,36.13,18.3Zm-2.24,4.58a9.18,9.18,0,0,0-.93-.56,5,5,0,0,1,.53-.14A4.84,4.84,0,0,0,34,22C34,22.31,33.93,22.59,33.89,22.88Z"/><path class="cls-1" d="M89.25,73.07A5.2,5.2,0,0,0,86,70.75l-.08,0a5.05,5.05,0,0,0-.77-2.2,5.17,5.17,0,0,0-3.28-2.32,5,5,0,0,0-1.16-.13,5.11,5.11,0,0,0-2,.4,24.86,24.86,0,0,0-1.54-3.32C82,61.81,84.4,60.6,85.41,59a3.29,3.29,0,0,0,.46-2.51,3.06,3.06,0,0,0-1.42-1.95,7.61,7.61,0,0,0-4-.84A49,49,0,0,0,71.12,55a12.63,12.63,0,0,0-1.44-3.32,6.55,6.55,0,0,1,.88.25,5.48,5.48,0,0,0,1.84.32,6.58,6.58,0,0,0,3.21-.89,11.43,11.43,0,0,0,5.15-6.91,1.52,1.52,0,0,0-.27-1.26,1.53,1.53,0,0,0-1.07-.62s-.35,0-1,0h-.53a7.4,7.4,0,0,0,1-1.6c1.07-2.37,0-4.91-1-7.14-.56-1.31-1.14-2.66-1-3.44a1.52,1.52,0,0,0-.48-1.39,1.59,1.59,0,0,0-1-.4,1.39,1.39,0,0,0-.4.06A11.83,11.83,0,0,0,72,30l-.07,0a7.06,7.06,0,0,0-2-5.7,7.9,7.9,0,0,0-2.52-1.46c-1-.4-1.42-.57-1.76-1.6a1.6,1.6,0,0,0-.82-.92,1.8,1.8,0,0,0-.65-.14,1.66,1.66,0,0,0-.54.1S59.29,22,58.49,26.17a5,5,0,0,0-1.39,5.77,12.43,12.43,0,0,0,1.65,2.83h0l-.18.2a5.94,5.94,0,0,0-3.4-1.48,2.61,2.61,0,0,0-1.32.35,4.73,4.73,0,0,0-1.94,2.34,5.38,5.38,0,0,0-3.63-1.8h-.42a5.42,5.42,0,0,0-3.72,1.47,12.29,12.29,0,0,0-3.8-2.51c.51-6.45,1-13.76,1.05-15.56,0-2.49-.92-4.19-2.48-4.45a2.31,2.31,0,0,0-.37,0h-.14A8.48,8.48,0,0,0,38,11.2a1.58,1.58,0,0,0-.86-.88,1.51,1.51,0,0,0-.59-.11,1.66,1.66,0,0,0-.69.16s-.38.19-.93.54a6.36,6.36,0,0,0,0-1.51c-.3-2.42-2.39-3.9-4.25-5.22a7.73,7.73,0,0,1-2.39-2.13,1.52,1.52,0,0,0-1.12-.94,1.63,1.63,0,0,0-.31,0,1.68,1.68,0,0,0-1.12.48A10.89,10.89,0,0,0,24,4,6.51,6.51,0,0,0,19.71.68a5.67,5.67,0,0,0-1.09-.1A9.85,9.85,0,0,0,17,.75a5.72,5.72,0,0,1-.91.11A1.67,1.67,0,0,1,14.9.33,1.7,1.7,0,0,0,14,0a1.32,1.32,0,0,0-.34,0h0a1.67,1.67,0,0,0-.9.58c-.11.14-2.54,3.45-1.21,7.07A4.75,4.75,0,0,0,13.24,13a11.61,11.61,0,0,0,2.59,1.41v0c-.33,0-.65,0-1,0-1.65,0-2.75.51-3.29,1.51-1.21,2.23.08,5,1.34,6.51a3.62,3.62,0,0,0-.14,2,2.74,2.74,0,0,0,1.38,1.78,3,3,0,0,0,1.5.36,11.93,11.93,0,0,0,3.59-.83,2.3,2.3,0,0,0,.24,1.65c.06.1.13.2.2.3a5.45,5.45,0,0,0-1.72.69,5.21,5.21,0,0,0-2.23,6,5.23,5.23,0,0,0-.55,4.85A5.27,5.27,0,0,0,13.53,46,5.27,5.27,0,0,0,13,52.24a4.81,4.81,0,0,0,.68.88,5,5,0,0,0-3.25,1.1,1.79,1.79,0,0,1-1.28.48,5.71,5.71,0,0,1-1.06-.12l-.14,0H7.81a1.54,1.54,0,0,0-1.48,2,6.45,6.45,0,0,0,2.93,3.65,5.46,5.46,0,0,0-2.08,3.53A1.58,1.58,0,0,0,7.66,65a4.61,4.61,0,0,0,3.5,1.52,1.54,1.54,0,0,1,1,.28,4,4,0,0,0,2.13.66,3.59,3.59,0,0,0,1-.13,10,10,0,0,1-.87,1.36,1.56,1.56,0,0,0-.19,1.53,1.52,1.52,0,0,0,1.22.93,29.12,29.12,0,0,0,3.08.16,17.94,17.94,0,0,0,4-.39l.68-.15a15.93,15.93,0,0,0,3.51-1.08c-3.1,9.58-7.26,17-12,25.34-3.4,6-6.91,12.27-10.54,20.14a1.51,1.51,0,0,0-.13.41,4.31,4.31,0,0,0,2.76,4.6,3.62,3.62,0,0,0,1.25.22A3.34,3.34,0,0,0,11,118.68c4.18-6.91,8.89-15.3,13.05-22.7l3.09-5.5a18.71,18.71,0,0,0,1.22,3.73,8.49,8.49,0,0,1,1,3.45,1.51,1.51,0,0,0,.46,1.4,1.54,1.54,0,0,0,1.05.42,1.58,1.58,0,0,0,.38,0,11.75,11.75,0,0,0,3.1-1.35l.07,0a7,7,0,0,0,1.91,5.73,7.78,7.78,0,0,0,2.5,1.5c1,.42,1.41.59,1.72,1.61a1.56,1.56,0,0,0,.79.94A1.67,1.67,0,0,0,42,108a1.76,1.76,0,0,0,.51-.09c.05,0,4.33-1.56,5.2-5.74a5,5,0,0,0,1.5-5.74,2.44,2.44,0,0,0-.1-.24,5.62,5.62,0,0,0,1.31.62,5.6,5.6,0,0,0,.76,2.69,5.5,5.5,0,0,0,3.4,2.58,5.35,5.35,0,0,0,1.43.19A5.56,5.56,0,0,0,61.3,95a5.56,5.56,0,0,0,2.24-2.58,5.07,5.07,0,0,0,3.95,4,8.28,8.28,0,0,0,6.33,2.69,7.88,7.88,0,0,0,.93,0,1.64,1.64,0,0,0,1.06-.65,1.69,1.69,0,0,0,.24-1.16c-.2-1.07.09-1.42.77-2.26a7.76,7.76,0,0,0,1.51-2.49l.12-.39A5.21,5.21,0,0,0,81,93.51a5.65,5.65,0,0,0,1.16.13,5.25,5.25,0,0,0,4.93-7,5.28,5.28,0,0,0,1.2-6.81,5.24,5.24,0,0,0,.94-6.71Zm-.71,3.64a3.74,3.74,0,0,1-1.69,2.39,3.27,3.27,0,0,1-.73.35,3.82,3.82,0,0,1-.26,6.29,4.45,4.45,0,0,1-.66.32l.22.29a3.83,3.83,0,0,1-3.24,5.87,4.17,4.17,0,0,1-.85-.09,3.82,3.82,0,0,1-2.9-4.46l-.33,0a3.53,3.53,0,0,1-.85-.1A3.89,3.89,0,0,1,75.93,87,5.73,5.73,0,0,1,77,92a6.57,6.57,0,0,1-1.27,2.06,3.6,3.6,0,0,0-1.06,3.41.1.1,0,0,1,0,.09.11.11,0,0,1-.09.05,4.3,4.3,0,0,1-.73,0,6.65,6.65,0,0,1-5.54-2.56,3.8,3.8,0,0,1-3.39-3.25,12.14,12.14,0,0,1,.27-4c.12-.64.22-1.14.08-1.29s-.06,0-.08,0-.24.19-.37.34-.51.61-.88.52a.49.49,0,0,1-.29-.24c-.23-.46.15-1.48.55-2.56s.9-2.45.45-2.65a.1.1,0,0,0-.09,0,.67.67,0,0,0-.19.19,4.09,4.09,0,0,1-1.69,4.34c-.21.57-.44,1.13-.67,1.65a4.16,4.16,0,0,1-1.48,5.72,4.3,4.3,0,0,1-1.14.45A4.11,4.11,0,0,1,60,97.73a4.16,4.16,0,0,1-4,3.1,3.88,3.88,0,0,1-1.07-.14,4.14,4.14,0,0,1-3-5.06,4.08,4.08,0,0,1-.91-.13A4.15,4.15,0,0,1,48,91.67c-.63-.54-1.27-1.13-1.86-1.69-1.06-1-2.15-2-2.56-2h0s-.06,0-.07,0c-.31.4.77,1.36,1.63,2.13s1.68,1.5,1.68,2a.47.47,0,0,1-.15.35c-.27.25-.68.09-1,0s-.41-.16-.49-.12a.16.16,0,0,0,0,.08c-.05.19.27.59.68,1.09a12.45,12.45,0,0,1,2.12,3.42,3.84,3.84,0,0,1-1.48,4.47c-.46,3.69-4.33,5.15-4.36,5.16H42a.18.18,0,0,1-.07-.08A3.6,3.6,0,0,0,39.35,104a6.15,6.15,0,0,1-2.08-1.23c-1.76-1.63-2-5.12-.52-7.46s2-4.75,1.75-5.7c-.11-.35-.27-.56-.43-.56s-.73.21-1.25,3.46a6.49,6.49,0,0,1-3.24,4.41,10.85,10.85,0,0,1-2.71,1.19.11.11,0,0,1-.11,0,.12.12,0,0,1,0-.11c.21-1.18-.4-2.67-1-4.25-.84-2.07-1.72-4.22-.88-6,1-2,3.34-3.47,4.9-4.23a26.13,26.13,0,0,1-4.52.61c-1.92,3.35-4.07,7.18-6.36,11.25-4.15,7.39-8.86,15.77-13,22.65a1.9,1.9,0,0,1-1.67,1,2.29,2.29,0,0,1-.76-.13,2.87,2.87,0,0,1-1.84-3.06.06.06,0,0,1,0,0c3.61-7.81,7.11-14,10.49-20C21.34,86.22,26.11,77.74,29.33,66a10.6,10.6,0,0,1-6.4,3.34l-.69.16a17.09,17.09,0,0,1-3.71.35c-1.59,0-2.87-.14-2.89-.14a.13.13,0,0,1-.1-.08.13.13,0,0,1,0-.12s1.75-2.31,1.56-3.56a.77.77,0,0,0-.33-.54c-.28-.19-.56-.07-1,.17a2.48,2.48,0,0,1-2.78,0,2.91,2.91,0,0,0-1.77-.5,3.25,3.25,0,0,1-2.56-1.13.12.12,0,0,1,0-.1s.24-2.55,3.72-3.67l-.19-.09c-1.86-.85-3.79-1.74-4.44-3.94a.17.17,0,0,1,0-.12.12.12,0,0,1,.12,0c2.05.4,2.73-.09,3.45-.6a3.92,3.92,0,0,1,3.25-.79,1.3,1.3,0,0,0,1-.28,2.76,2.76,0,0,0,.83-1.17,3.82,3.82,0,0,1-.93-6.9,3.3,3.3,0,0,1-.52-.65,3.85,3.85,0,0,1,1.24-5.28,4,4,0,0,1,1.05-.43,3.27,3.27,0,0,1-.39-.51,3.82,3.82,0,0,1,.55-4.72,3.81,3.81,0,0,1,1.34-5.09,3.77,3.77,0,0,1,2.89-.47,3.81,3.81,0,0,1,1.77,1h0a3.88,3.88,0,0,1,2.9-.47,3.78,3.78,0,0,1,2.38,1.71,4.07,4.07,0,0,1,.33.66,16.75,16.75,0,0,0,5.87-5l.09-.84c-1.22-1.85-4.4-3.07-5-3.28C27.7,27,25.3,27.92,23.67,27.94h-.05a3.56,3.56,0,0,1-2.9-1.27c-.33-.59.1-1.21.51-1.81s.62-.89.54-1.24a.09.09,0,0,0,0-.05,6.08,6.08,0,0,0-2.39.6c-1.69.6-3.61,1.27-4.5.78a1.37,1.37,0,0,1-.69-.88,3,3,0,0,1,.46-2c-.95-.66-2.85-3.58-1.8-5.53.67-1.24,3.54-.7,6.06-.23,1.33.25,2.7.51,3,.29a.07.07,0,0,0,0-.06c0-.45-1.26-.66-2.31-.83s-2-.34-2.3-.74a.41.41,0,0,1-.06-.34c.09-.34.49-.42.81-.48s.39-.07.44-.14a.15.15,0,0,0,0-.08c-.06-.17-.52-.33-1.07-.51a11.51,11.51,0,0,1-3.33-1.6A3.5,3.5,0,0,1,13,7.64c-1.47-3.1.81-6.14.83-6.17a.12.12,0,0,1,.09-.05.1.1,0,0,1,.09,0,3.31,3.31,0,0,0,3.2.7,5.84,5.84,0,0,1,2.23-.08c2.18.4,4.09,3,4.1,5.55s.76,4.69,1.45,5.27c.26.22.5.31.61.23s.45-.52-.75-3.29a6,6,0,0,1,.34-5,9.75,9.75,0,0,1,1.51-2.26.11.11,0,0,1,.11,0,.1.1,0,0,1,.09.07c.42,1,1.63,1.87,2.9,2.77,1.69,1.2,3.43,2.43,3.66,4.24.25,2-.84,4.27-1.67,5.64a19.93,19.93,0,0,1,4.66-3.58.12.12,0,0,1,.1,0,.14.14,0,0,1,.07.08,9.13,9.13,0,0,1,.12,4.86c.59-1.28,1.27-2,1.91-1.84.8.13,1.33,1.35,1.31,3s-.53,8.94-1.14,16.58A11,11,0,0,1,44.27,38a4,4,0,0,1,3.58-2.22h.31A4,4,0,0,1,51.86,40a4.18,4.18,0,0,1,.94-.13c-.13-1.6.21-3.93,1.75-4.82,1.32-.77,3.77,1.45,5.74,3.23,1.09,1,2.22,2,2.61,2a.07.07,0,0,0,.07,0c.3-.4-.79-1.34-1.67-2.1s-1.7-1.47-1.71-2a.43.43,0,0,1,.14-.35c.26-.26.68-.1,1,0s.41.16.49.11,0,0,.05-.08-.28-.59-.7-1.08a12.56,12.56,0,0,1-2.17-3.38,3.82,3.82,0,0,1,1.4-4.49c.39-3.7,4.23-5.23,4.27-5.24a.17.17,0,0,1,.1,0,.12.12,0,0,1,.06.08,3.62,3.62,0,0,0,2.58,2.47,6.66,6.66,0,0,1,2.11,1.19c1.78,1.61,2.08,5.09.64,7.46s-2,4.79-1.65,5.73c.11.34.28.55.43.55h0c.11,0,.71-.23,1.19-3.48a6.42,6.42,0,0,1,3.16-4.47A11.16,11.16,0,0,1,75.4,30a.14.14,0,0,1,.12,0,.12.12,0,0,1,0,.12c-.19,1.18.45,2.66,1.12,4.22.88,2.06,1.79,4.19,1,6-.93,2.06-3.28,3.54-4.82,4.32a22.21,22.21,0,0,1,6.43-.7.13.13,0,0,1,.09.05.12.12,0,0,1,0,.1,10,10,0,0,1-4.46,6,4.62,4.62,0,0,1-3.87.48c-2.28-.81-3.55-.28-3.9-.09.47.57,2.82,3.64,2.79,6.18,6.38-1.37,11.78-2.13,13.77-.89a1.69,1.69,0,0,1,.79,1.06,1.83,1.83,0,0,1-.28,1.44c-1,1.55-4.36,2.77-9.33,4a21.23,21.23,0,0,1,3,6.4,4.73,4.73,0,0,1,.72-.61,3.82,3.82,0,0,1,5.79,4,3.92,3.92,0,0,1,1.23.06,3.84,3.84,0,0,1,2.39,1.7A3.78,3.78,0,0,1,88.54,76.71ZM27.06,28.32a11.34,11.34,0,0,0,3.52-3.74,9.89,9.89,0,0,1,2.85,1.86A17,17,0,0,1,29.51,30,5.17,5.17,0,0,0,27.06,28.32Z"/><path class="cls-1" d="M56.17,48.76c.13-.61.81-.91,1.47-1.21s1.08-.47,1.21-.85a.06.06,0,0,0,0-.07,6.29,6.29,0,0,0-2.5-.8,3.91,3.91,0,0,1-1.61,1.59,3.85,3.85,0,0,1,1.14.91A3.73,3.73,0,0,1,56.17,48.76Z"/><path class="cls-1" d="M64.78,64.59l-.13,0-1.54.31a13.68,13.68,0,0,1,.21,6c.42,0,1.77-.16,3.37-2a4.6,4.6,0,0,1,3.57-1.45h0A9.81,9.81,0,0,1,75.13,69a3.59,3.59,0,0,1,.47,0,17.16,17.16,0,0,0-3.17-6.08C70.12,63.43,67.56,64,64.78,64.59Zm5.48,1.51A6,6,0,0,0,65.62,68a6.62,6.62,0,0,1-.65.65A14.25,14.25,0,0,0,64.83,66l.25-.06c2.44-.53,4.72-1,6.8-1.5a13.29,13.29,0,0,1,1.24,2.08A10.21,10.21,0,0,0,70.26,66.1Z"/><path class="cls-1" d="M71.11,73.29h.6c0-.06,0-.11,0-.17Z"/><path class="cls-1" d="M72.58,82.72c-2-2.62-2.61-2.52-2.72-2.47s-.19.34-.12.7c.18,1,1.84,2.86,4.21,4.22a5.89,5.89,0,0,1,.83.58,3.85,3.85,0,0,1-.48-1.54A5.72,5.72,0,0,1,72.58,82.72Z"/><path class="cls-1" d="M56.81,50.56a3.19,3.19,0,0,1,0,.69A4,4,0,0,1,55.44,54a4,4,0,0,1-.65.45,3.57,3.57,0,0,1,.28.27,4,4,0,0,1,1,2.92,4,4,0,0,1-1.23,2.58c1.86-.43,3.82-.9,5.82-1.38,3.06-.75,6.15-1.49,9.05-2.12.07-2.47-2.34-5.6-2.75-6.12A12,12,0,0,1,61,52.51a5.44,5.44,0,0,1-2.85-.74A4.72,4.72,0,0,1,56.81,50.56Zm9.7,1.87A12.24,12.24,0,0,1,68.1,55.6c-2.61.59-5.36,1.25-7.81,1.85l-2.9.7c0-.14,0-.28,0-.41a5.39,5.39,0,0,0-.67-3.06,5.57,5.57,0,0,0,1-1.5,6.9,6.9,0,0,0,3.23.75A12.57,12.57,0,0,0,66.51,52.43Z"/><path class="cls-1" d="M37.08,72c.22,2.36,2.26,5.1,2.63,5.58,3.06-1.7,5.3-2,6.9-1.72A4.13,4.13,0,0,1,51,73.93a17.54,17.54,0,0,0-1.43-6.71C44.49,68.18,40,69.45,37.08,72ZM46,74.36h-.42a12.54,12.54,0,0,0-5.38,1.41,12.18,12.18,0,0,1-1.53-3.19c2.61-1.95,6.44-3,10.09-3.73a15.88,15.88,0,0,1,.77,3.63A5.59,5.59,0,0,0,46,74.36Z"/><path class="cls-1" d="M35.59,73.62c-.7,1-1.55,2.26-2.51,3.82a4.23,4.23,0,0,1,2.52.11c2.26.85,3.53.34,3.89.15a13.39,13.39,0,0,1-2.63-5.48A9.34,9.34,0,0,0,35.59,73.62Zm.5,2.6a3.53,3.53,0,0,0-.46-.15l.64-1c.22.49.46,1,.7,1.38C36.69,76.42,36.4,76.33,36.09,76.22Z"/></svg>