<svg id="圖層_1" data-name="圖層 1" xmlns="http://www.w3.org/2000/svg" viewBox="0 0 283.49 104.7"><defs><style>.cls-1{fill:#fff;}</style></defs><title>0</title><path class="cls-1" d="M36.75,62.43a32,32,0,0,0-3.86-.24c-8.9,0-14.4,4-18.44,6.9a19.6,19.6,0,0,1-4.28,2.64C7.22,72.76-.63,75.49,0,82.55c.54,5.7,7.4,9.24,7.61,9.34C12.33,94.68,29.23,99,42.1,99a32.6,32.6,0,0,0,12-1.83c3.31-1.35,5.35-3.44,6.08-6.2a20.33,20.33,0,0,0-3-16.83C52.92,67.82,45.28,63.46,36.75,62.43Zm22,28.16c-.61,2.31-2.37,4.07-5.24,5.24A31.26,31.26,0,0,1,42.1,97.56c-13,0-29.42-4.32-33.73-6.89-.2-.1-6.45-3.33-6.92-8.25-.5-5.28,4.65-7.77,9.19-9.35a20.42,20.42,0,0,0,4.64-2.84c4.49-3.23,10.62-7.68,21.3-6.39C44.71,64.82,52,69,56,74.91A19,19,0,0,1,58.79,90.59Z"/><path class="cls-1" d="M226.74,63.4l-1.7-.89a11.69,11.69,0,0,1-9.52,5.24c1.78,1,3.67,1.88,5.52,2.73a45.71,45.71,0,0,1,6.62,3.46,11.6,11.6,0,0,1-.92-10.54Zm-5.11,5.79-1.8-.83a13.08,13.08,0,0,0,4.9-3.19,13,13,0,0,0,.07,5.51C223.75,70.16,222.68,69.67,221.63,69.19Z"/><path class="cls-1" d="M236.33,51.1c4,2.9,8.54,6.18,17.63,6.18a51.93,51.93,0,0,0,8.19-.72c14.44-2.32,21.66-13.58,21.33-23.51a17.22,17.22,0,0,0-4.4-11.21,18.6,18.6,0,0,0-12.34-5.69c-11.81-1.1-16.22-4.85-20.49-8.48-3.59-3-7.3-6.21-14.92-7.28A38.56,38.56,0,0,0,225.87,0,34,34,0,0,0,209,4.29c-6.48,3.7-10.62,9.31-11.66,15.77a20.35,20.35,0,0,0,2.16,13l-.3-.16a13.09,13.09,0,0,0-6-1.5,13.25,13.25,0,0,0-3.89.59,13,13,0,1,0,13.33,21.44c0,.13-.06.26-.08.39-.07.39-.12.78-.15,1.15l0,.26c0,.33,0,.63,0,.92s0,.29,0,.44,0,.48,0,.71,0,.4.07.62l.09.5c0,.26.09.5.15.76l.09.35c.05.18.1.35.16.52a24.77,24.77,0,0,0-3.47-.23,28.83,28.83,0,0,0-6.84.84,28,28,0,0,0-6.5,2.47,15.28,15.28,0,0,0-1.72-.11h-.12a14.88,14.88,0,0,0-14.45,11.9,14.92,14.92,0,0,0-14.51-11.68h-.12a15.38,15.38,0,0,0-1.78.13,18.1,18.1,0,0,0-4.84-8.18,14.54,14.54,0,0,1-3.93-6.2c2.33-.5,4.71-1,7.17-1.58l1.2-.27a18.76,18.76,0,0,0,13.8-11.38c2.36-5.83,1.88-12.88-1.19-17.54-5.22-7.92-12.09-9.85-35-9.85H129c-16.32.07-24.18,5.52-27.9,10.08a17.93,17.93,0,0,0-4.14,11.79c-7.29,1-11.73,4-15.68,6.75-3.07,2.11-6,4.1-10,5.08-6.43,1.55-10.95,4.55-13.08,8.66-1.84,3.56-1.84,7.89,0,12.5A21.49,21.49,0,0,0,73.27,76.52a34.17,34.17,0,0,0,8.9,1.1A52.18,52.18,0,0,0,94.47,76a21.16,21.16,0,0,0,7.08-3.4c.54,1.72,1.44,4.35,2.68,7.29,3.63,8.63,4.14,15.46,1.72,22.84a1.4,1.4,0,0,0,.08,1.08,1.43,1.43,0,0,0,.82.71l.24.07a1.39,1.39,0,0,0,1.79-.9c2.68-8.15,2.14-15.62-1.81-25a79.21,79.21,0,0,1-2.89-8c1.08-.85,2.16-1.74,3.18-2.59A82.21,82.21,0,0,1,118,60.31a13.34,13.34,0,0,0,6-8.4h.27c5.29,0,11.64-1.11,17.34-2.28a17.43,17.43,0,0,0,4.82,7.81,14.76,14.76,0,0,1,4,6.65,15,15,0,0,0-9.67,11.07,14.92,14.92,0,0,0-14.52-11.68h-.12a14.9,14.9,0,0,0-14.77,15,14.93,14.93,0,0,0,14.89,14.77h.11a15,15,0,0,0,14.46-11.87A15,15,0,0,0,155.27,93h.12a15,15,0,0,0,14.45-11.85,15.16,15.16,0,0,0,14.52,12h.11a14.69,14.69,0,0,0,3.67-.5A47.91,47.91,0,0,0,204.6,97.8a50,50,0,0,0,6.61.45c8.16,0,14.9-2.13,19-6a12.41,12.41,0,0,0,4-10.23,11.6,11.6,0,0,0-.24-1.7,13.1,13.1,0,0,0,13-3.55A13.16,13.16,0,0,0,253.66,91a13,13,0,1,0-3.41-20.5c0-.06.09-.43.11-.55a6.76,6.76,0,0,0,.1-.77c0-.17,0-.35.06-.55s0-.4,0-.59,0-.46,0-.69,0-.2,0-.3l-1.41.09,1.4-.23c0-.34,0-.6-.08-.84l0-.14-1.4.22,1.38-.33a10.31,10.31,0,0,0-.2-1,13,13,0,0,0-18.06-8.88,47.05,47.05,0,0,1,.84-7.08C234.15,49.52,235.25,50.32,236.33,51.1Zm6.58,6.36a11.66,11.66,0,0,1,5.91,7.64v0A7.87,7.87,0,0,1,249,66v.07l0,.15c0,.22.05.45.07.75v.09c0,.1,0,.2,0,.3s0,.41,0,.62,0,.36,0,.54,0,.32,0,.47-.06.47-.09.69l-.06.3v.06c-.06.29-.12.55-.19.81a1.87,1.87,0,0,0-.07.22c-.1.32-.2.64-.32.93l0,.1a1.34,1.34,0,0,0-.07.18c0,.09-.07.18-.11.26l1.68.88a11.56,11.56,0,1,1-.82,1.61l-1.72-.9a11.69,11.69,0,0,1-15.13,3.94c-.26-.14-.5-.3-.75-.45a9.92,9.92,0,0,1,1.42,4.5,11,11,0,0,1-3.59,9.09c-3.82,3.62-10.3,5.59-18,5.59a49.47,49.47,0,0,1-6.43-.43,46.24,46.24,0,0,1-16.48-5.25,13,13,0,0,1-3.84.62h-.1A13.74,13.74,0,0,1,171,79.29h-2.29a13.55,13.55,0,0,1-13.3,12.31h-.11a13.56,13.56,0,0,1-13.39-12.1l-2.28,0a13.54,13.54,0,0,1-13.31,12.3h-.1a13.47,13.47,0,0,1-.11-26.93h.11a13.44,13.44,0,0,1,13.42,12.57h2.23a13.45,13.45,0,0,1,10.26-12.4,16.87,16.87,0,0,0-4.71-8.65A15.15,15.15,0,0,1,142.67,48c-7,1.46-13.23,2.53-18.42,2.53-.49,0-1,0-1.42,0a12.06,12.06,0,0,1-5.6,8.63A82.71,82.71,0,0,0,106.46,67c-1.35,1.12-2.63,2.17-3.9,3.14a76.65,76.65,0,0,0,3.2,9.13c3.81,9,4.34,16.21,1.77,24l-.23-.08c2.54-7.73,2-14.86-1.77-23.83a80.75,80.75,0,0,1-3.19-9.06,22.69,22.69,0,0,1-8.21,4.34,50,50,0,0,1-12,1.55,32.78,32.78,0,0,1-8.53-1A20.11,20.11,0,0,1,59.51,62.71c-1.68-4.22-1.7-8.13-.06-11.32,1.94-3.74,6.14-6.48,12.16-7.94,4.27-1,7.28-3.1,10.47-5.29,4.25-2.92,8.63-5.91,16.34-6.65a16.7,16.7,0,0,1,3.75-12.15C105.7,15,113.22,9.87,129,9.8c23.79-.09,30.41,1.62,35.41,9.21,2.83,4.29,3.26,10.81,1.07,16.23a17.41,17.41,0,0,1-12.8,10.53l-1.2.27c-2.95.65-5.8,1.29-8.56,1.87a14.9,14.9,0,0,0,4.65,8.32A17,17,0,0,1,152.34,65a13.86,13.86,0,0,1,2.83-.33h.11a13.44,13.44,0,0,1,13.41,12.58l2.24,0a13.43,13.43,0,0,1,13.33-12.78h.1a13,13,0,0,1,2,.16,25.69,25.69,0,0,1,6.57-2.56A25.07,25.07,0,0,1,205.27,62a12.51,12.51,0,0,1-.88-1.89l0-.14c-.08-.24-.16-.5-.24-.79,0-.1,0-.2-.08-.3s-.1-.45-.14-.67,0-.31-.07-.47-.05-.36-.07-.54,0-.42,0-.64,0-.26,0-.39,0-.52,0-.82v0a1.09,1.09,0,0,1,0-.18,9.58,9.58,0,0,1,.14-1v0a12,12,0,0,1,.67-2.32l-1.72-.91a11.69,11.69,0,0,1-15.13,3.94,11.63,11.63,0,1,1,16-5.52l1.68.88a11.63,11.63,0,0,1,20.55,10.78l1.65.87a11.61,11.61,0,0,1,2.83-3.19,46.18,46.18,0,0,1,1.39-12,19.62,19.62,0,0,0-8.37-1.91c-8.45-.2-15.9-3.46-20.47-8.95a19.07,19.07,0,0,1-4.24-15.41c1-6,4.87-11.28,11-14.77a33.8,33.8,0,0,1,21.45-3.73c7.22,1,10.61,3.9,14.2,7,4.44,3.77,9,7.67,21.28,8.81A17.27,17.27,0,0,1,278,22.79a15.74,15.74,0,0,1,4,10.3c.31,9.31-6.5,19.88-20.14,22.07a50,50,0,0,1-8,.7c-8.63,0-12.77-3-16.8-5.91A36.2,36.2,0,0,0,232,46.67a45.75,45.75,0,0,0-1.37,11.72A11.6,11.6,0,0,1,242.91,57.46ZM205.35,40a26.81,26.81,0,0,0,6.2,3.62,13.11,13.11,0,0,0-5.69,3.52A13,13,0,0,0,205.35,40ZM228,53.14a13,13,0,0,0-4.36-7.07,18.83,18.83,0,0,1,6.49,1.3A49.76,49.76,0,0,0,229,57.9a12.17,12.17,0,0,0-.9.85A13,13,0,0,0,228,53.14Z"/><polygon class="cls-1" points="248.69 65.12 248.69 65.12 248.69 65.12 248.69 65.12"/></svg>