<svg id="圖層_1" data-name="圖層 1" xmlns="http://www.w3.org/2000/svg" viewBox="0 0 129.88 83.34"><defs><style>.cls-1{fill:#fff;}</style></defs><title>0</title><path class="cls-1" d="M62.8,52.4a13.53,13.53,0,0,0,2.29-.28,12.55,12.55,0,0,1-3.15-.94A13.33,13.33,0,0,1,62.8,52.4Z"/><path class="cls-1" d="M43,25.32a11.49,11.49,0,0,1-1.54-1.58,10.51,10.51,0,0,0-7.26,1,19,19,0,0,1-9.24,2.31,12.91,12.91,0,0,1,1.92,6.42,11.85,11.85,0,0,1,1.46-.62,11,11,0,0,1,8.49.61l.27.15A19.16,19.16,0,0,1,43,25.32ZM36.27,31.7a12.44,12.44,0,0,0-4.44-.82,12.73,12.73,0,0,0-3.77.58,13.88,13.88,0,0,0-.88-3.08A20.3,20.3,0,0,0,34.84,26a9,9,0,0,1,4.3-1.09,9.64,9.64,0,0,1,1.52.12c.07.09.15.17.22.25A20.81,20.81,0,0,0,36.27,31.7Z"/><path class="cls-1" d="M50.38,31.32a14.34,14.34,0,0,0-2.2-3.46,11.37,11.37,0,0,1-2.91-1c-.17-.08-.32-.18-.48-.27-1.49,1.2-4.86,4.29-5.86,8.29A11.14,11.14,0,0,1,42,39a9.5,9.5,0,0,1,3-1.07,12.77,12.77,0,0,1,2.7-.19,16.33,16.33,0,0,1,4.43-3.33A15.65,15.65,0,0,1,50.38,31.32Zm-3.25,5a14,14,0,0,0-2.35.22,11.75,11.75,0,0,0-2.15.6,12.72,12.72,0,0,0-2.09-2.65A15.85,15.85,0,0,1,45,28.3a13.65,13.65,0,0,0,2.43.84,13.18,13.18,0,0,1,1.69,2.76,18.65,18.65,0,0,0,1,2A17.82,17.82,0,0,0,47.13,36.27Z"/><path class="cls-1" d="M56.9,35.24c.07-.16.13-.32.21-.48s.27-.48.4-.71a12.91,12.91,0,0,0-.9-1,7.27,7.27,0,0,1-2.32-5.2c0-.16,0-.32,0-.48l-.23.09a11.59,11.59,0,0,1-2.7.56,16.21,16.21,0,0,1,1.24,2.24A9.66,9.66,0,0,0,56.9,35.24Z"/><path class="cls-1" d="M74.53,62.94a8.87,8.87,0,0,0,.72.61,12,12,0,0,1,5.75-5,13.86,13.86,0,0,1-3.64-2.74A16.71,16.71,0,0,0,74.53,62.94Zm3.67-4.52-.2.14c-.35.24-.69.49-1,.76.19-.45.4-.9.64-1.35Z"/><path class="cls-1" d="M129.63,50.27a14.53,14.53,0,0,0-14.25-11.88,15.19,15.19,0,0,0-2.68.25,14.55,14.55,0,0,0-11.63,16.93,15.67,15.67,0,0,0,.44,1.73,24,24,0,0,0-5.26,3.86,13.85,13.85,0,0,0-4-3.32,21.07,21.07,0,0,0,4.49-6.65,7.59,7.59,0,0,1,1.91-2.13c1.4-1.23,3.33-2.92,2.8-5.6A6.41,6.41,0,0,0,98,39a6.86,6.86,0,0,0-3.11-.7,10.89,10.89,0,0,0-4.79,1.25,8.46,8.46,0,0,1-3.92.9c-.7,0-1.37-.05-2.09-.12s-1.36-.12-2.06-.12a9,9,0,0,0-2.48.32,12.51,12.51,0,0,0-6.89-12c-.29-.15-.59-.28-.91-.41a13,13,0,0,0-.47-2.58,8.31,8.31,0,0,1-.16-4.74c.82-3.27.37-6.28-1.23-8.24a5.41,5.41,0,0,0-4.26-2.05H65.4a6,6,0,0,0-3,.91,13,13,0,0,0-22.58-2.3,10.73,10.73,0,0,0-7.25-4.26A9.08,9.08,0,0,1,27.79,2.8,11,11,0,0,0,21,0a7.15,7.15,0,0,0-1.68.2,5.71,5.71,0,0,0-4,3.37c-1.62,3.81.61,6.48,2.4,8.63a14.17,14.17,0,0,1,2.72,4.19,12.74,12.74,0,0,0,5,6.77H25c-.54,0-1.07,0-1.6-.08a14,14,0,0,0-9.22-3.46,14.3,14.3,0,0,0-4.48.73,14.13,14.13,0,0,0-1.86,26q.39.2.78.36a52.56,52.56,0,0,0-3.06,5.43,36.1,36.1,0,0,1-2.88,5c-2,2.71-2.48,5.32-1.26,7.15.59.88,1.82,1.92,4.37,1.92a13.85,13.85,0,0,0,3.33-.47l1.8-.47c4.78-1.23,5-1.27,11.49-1.94,3.65-.38,6.66-3,8.76-7.46.23,0,.44,0,.66,0a12.06,12.06,0,0,0,3.7-.58,5.81,5.81,0,0,0,.66,1.89,4.66,4.66,0,0,0,3.47,2.39,12.33,12.33,0,0,0,2,6.2,12.47,12.47,0,0,0,7.93,5.41,13.2,13.2,0,0,0,2.58.26A12.52,12.52,0,0,0,64.53,57.13a16.33,16.33,0,0,0,2.88-.61c.6,3.27,1.69,7.12,5.14,9.87-.08.32-.14.61-.2.91A13.6,13.6,0,0,0,83.28,83.12a13.75,13.75,0,0,0,2.47.22A13.6,13.6,0,0,0,99.1,72.19a13.63,13.63,0,0,0-.28-6.09A17.26,17.26,0,0,1,104,61.92a14.47,14.47,0,0,0,11.38,5.53A13.91,13.91,0,0,0,118,67.2,14.54,14.54,0,0,0,129.63,50.27ZM117.75,65.81a13.08,13.08,0,0,1-13.35-5.72,19.23,19.23,0,0,0-7.15,5.74,12.17,12.17,0,0,1-11.5,16.09,11.8,11.8,0,0,1-2.21-.2,12.18,12.18,0,0,1-9.79-14.17,10.91,10.91,0,0,1,.45-1.7c-4.12-2.78-5-7-5.68-11.27a15.11,15.11,0,0,1-5.72,1.27,11.11,11.11,0,1,1-21.74,2.38,3.93,3.93,0,0,1-.6.06,4.22,4.22,0,0,1-.6,0,3.27,3.27,0,0,1-2.47-1.68,5.24,5.24,0,0,1-.5-3.29,10.68,10.68,0,0,1-6.63,1.14c-1.45,3.51-4,7.14-8,7.56-6.63.68-6.92.75-11.7,2l-1.8.46a12.07,12.07,0,0,1-3,.43,3.59,3.59,0,0,1-3.19-1.29c-.86-1.28-.4-3.34,1.22-5.52a35.79,35.79,0,0,0,3-5.21A40.46,40.46,0,0,1,10.87,46a13.12,13.12,0,0,1-2.42-.9A12.71,12.71,0,0,1,19.83,22.4a12.78,12.78,0,0,1,2.93,2A17,17,0,0,0,33,22.59s0,0,.06,0a8.34,8.34,0,0,1-2.9.54A7.41,7.41,0,0,1,27,22.39c-2.28-1.06-4.09-3.3-5.22-6.48a15.33,15.33,0,0,0-3-4.62C17,9.16,15.33,7.14,16.6,4.13a4.32,4.32,0,0,1,3-2.55c2.19-.54,4.83.31,7.26,2.31a10.41,10.41,0,0,0,5.38,2.37c2.12.41,4.12.8,6.81,4.24a8.09,8.09,0,0,1,.82,1.33c.07-.16.13-.31.21-.47A11.55,11.55,0,0,1,61.4,12.89c.13.37.23.75.32,1.12a4.51,4.51,0,0,1,3.74-2.08h0a4,4,0,0,1,3.34,1.52c1.32,1.62,1.67,4.17,1,7a9.64,9.64,0,0,0,.16,5.44,10,10,0,0,1,.43,3.23,11.94,11.94,0,0,1,1.68.66A11.1,11.1,0,0,1,77.64,43.1c2.18-1.71,4.21-1.54,6.34-1.36a11.42,11.42,0,0,0,6.76-.92c3.2-1.59,5.38-1.18,6.65-.55a5,5,0,0,1,2.68,3.47c.37,1.87-1,3.09-2.34,4.26a8.36,8.36,0,0,0-2.27,2.61,17,17,0,0,1-5.94,7.58,12.1,12.1,0,0,1,6.58,5.22A22.06,22.06,0,0,1,103.27,58a13.1,13.1,0,1,1,14.48,7.83Z"/><path class="cls-1" d="M67,50.85a11.1,11.1,0,0,1-10.9-13.2,13,13,0,0,1-2.72-1.89,14.37,14.37,0,0,0-5.06,4,9.12,9.12,0,0,0,1.45,2.87A5.88,5.88,0,0,1,51,47.11a5.48,5.48,0,0,1-.23.86,10.88,10.88,0,0,1,3.68.13A11.11,11.11,0,0,1,62,53.83a13,13,0,0,0,6.2-1.33c-.1-.57-.21-1.14-.33-1.7C67.58,50.82,67.31,50.85,67,50.85ZM54.69,46.71a12,12,0,0,0-2.26-.25A7.29,7.29,0,0,0,51,41.81a8.4,8.4,0,0,1-1-1.76,13.17,13.17,0,0,1,3.28-2.59,13.44,13.44,0,0,0,1.36.94,12.66,12.66,0,0,0,2.66,9.15A12.28,12.28,0,0,0,54.69,46.71ZM62.8,52.4a13.33,13.33,0,0,0-.86-1.22,12.55,12.55,0,0,0,3.15.94A13.53,13.53,0,0,1,62.8,52.4Z"/><path class="cls-1" d="M74.52,47.94a11.12,11.12,0,0,1-4.23,2.41c.22,1.07.4,2.15.57,3.21.44,2.73.85,5.26,2,7.35A16.93,16.93,0,0,1,76,54.25,8.11,8.11,0,0,1,74.52,47.94ZM72.87,56.7c-.24-1.06-.42-2.2-.61-3.36-.1-.64-.22-1.34-.35-2.07.39-.17.78-.36,1.16-.57a9.88,9.88,0,0,0,1.24,3.49A17.35,17.35,0,0,0,72.87,56.7Z"/><polygon class="cls-1" points="65.46 11.94 65.46 11.94 65.46 11.94 65.46 11.94"/></svg>