<svg id="圖層_1" data-name="圖層 1" xmlns="http://www.w3.org/2000/svg" viewBox="0 0 146.63 203.76"><defs><style>.cls-1{fill:#fff;}</style></defs><title>0</title><path class="cls-1" d="M59,46.77l.22,0a.46.46,0,0,1-.07-.07Z"/><path class="cls-1" d="M63.71,47.69c-.21-1.12-1-1.23-1.91-1.35s-1.82-.24-2-1.51a4.51,4.51,0,0,1-1.79.73c-.74.2-1.44.38-1.68.81a.9.9,0,0,0,0,.73c.31,1,2.52,1.11,4.66,1.25.88,0,1.73.11,2.47.21A1.21,1.21,0,0,0,63.71,47.69ZM59,46.77l.15-.05a.46.46,0,0,0,.07.07Z"/><path class="cls-1" d="M57.39,37.37a4.29,4.29,0,0,0,1-1.22c-1.29.16-2.39.4-2.56,1a.42.42,0,0,0,0,.37,1.64,1.64,0,0,0,1.07.37C57.06,37.72,57.22,37.54,57.39,37.37Z"/><path class="cls-1" d="M62.31,55.75a1.13,1.13,0,0,0-.71,0,12.68,12.68,0,0,0,1.18,1.06,1,1,0,0,0,0-.51A.86.86,0,0,0,62.31,55.75Z"/><path class="cls-1" d="M56.91,41l.83.34c1.49.68,2.45,1.54,2.55,2.27a.36.36,0,0,0,.07-.1,11.89,11.89,0,0,1,2.09-1.83c-.39,0-.77,0-1.14,0a13.51,13.51,0,0,1-2.38-.19,6.5,6.5,0,0,1-1.8-.55Z"/><path class="cls-1" d="M46.59,28.05a1.6,1.6,0,0,0,.86,1.8c.4.1.78-.18,1.09-.76a10.51,10.51,0,0,0-1.94-1.28A1.93,1.93,0,0,1,46.59,28.05Z"/><path class="cls-1" d="M64.56,28.91a.43.43,0,0,0,.37-.18c.43-.59.17-1.3-.1-2,0-.14-.1-.27-.14-.4A15.55,15.55,0,0,1,63,28.09a3.06,3.06,0,0,0,1.55.82Z"/><path class="cls-1" d="M92.42,42.39a1.74,1.74,0,0,1-1.39.38s0,0,0,0a1,1,0,0,0,0,.24,8,8,0,0,1,2.84,1.3A7.73,7.73,0,0,0,92.42,42.39Z"/><path class="cls-1" d="M102.78,27.89c.5,1.59-1.4,2.58-3.09,3.46-1.37.72-2.67,1.4-2.67,2.26,0,.56,1.32.75,3,.86a2.33,2.33,0,0,1-.14-1c.17-2.06,1.67-2.47,3-2.83,1-.27,1.91-.51,2.09-1.43S104.22,28.2,102.78,27.89Z"/><path class="cls-1" d="M77.57,56.29a3.64,3.64,0,0,1-.94-1c-.53-.73-1-1.42-2-1.15s-1,1.84-1,3.52c0,2,0,4.32-1.79,4.75s-2.28-.81-2.71-1.91c-.31-.79-.6-1.55-1.35-1.62h-.07a3.41,3.41,0,0,0-1.69.9,2,2,0,0,1,.33.92A1.81,1.81,0,0,1,65.75,62a1.85,1.85,0,0,1-1.35.64,2.16,2.16,0,0,1-1-.26,74.27,74.27,0,0,1,9.71,16.07,10.87,10.87,0,0,1,2.92.78A111.86,111.86,0,0,0,77.7,58.71C77.66,57.89,77.61,57.09,77.57,56.29ZM74.93,77.38l-.79-.18a74,74,0,0,0-8-13.63,3.56,3.56,0,0,0,.66-.55,3.27,3.27,0,0,0,1-2.16l0,.12c.4,1,1.13,2.9,3.34,2.9a4.6,4.6,0,0,0,1-.13c2.85-.7,2.87-4,2.88-6.13a14.51,14.51,0,0,1,.09-2,5.2,5.2,0,0,1,.35.47,7.66,7.66,0,0,0,.72.9c0,.59.07,1.18.09,1.79A105.39,105.39,0,0,1,74.93,77.38Z"/><path class="cls-1" d="M146.44,62.14c-.81-2.32-3.9-3.73-6.64-5-.59-.27-1.34-.61-2-.93l.8-.21c2.13-.54,4.53-1.14,5.4-3a3.46,3.46,0,0,0-.13-3.09c-.49-1-1.63-2.26-4.24-2.26a17.43,17.43,0,0,0-4.38.73,3.55,3.55,0,0,0-.08-3A3.09,3.09,0,0,0,134,43.92a1.78,1.78,0,0,0-.32-.35,3.18,3.18,0,0,0-2.21-.72,12.26,12.26,0,0,0-1.35.1c-.37,0-.75.09-1,.09h-.2a23.7,23.7,0,0,1,4.66-1.65c4.1-1.18,8.34-2.39,7.79-5.65A3.24,3.24,0,0,0,140,33.52a3.72,3.72,0,0,0-2.23-.62,13.8,13.8,0,0,0-2.51.32,12.9,12.9,0,0,1-2,.27,2,2,0,0,1-.64-.07c-.08-.55,1.1-2.33,1.81-3.38,1.73-2.6,4.35-6.52.95-8.86a3.32,3.32,0,0,0-1.89-.61,3.36,3.36,0,0,0-.71.08c-2.37.53-4.11,3.51-6,6.66a28.92,28.92,0,0,1-2.25,3.5,12.91,12.91,0,0,1-.33-2.36c-.15-1.83-.29-3.55-1.52-4.51a2.69,2.69,0,0,0-1.65-.55,3.75,3.75,0,0,0-.56.05,2.65,2.65,0,0,0-1.4.69c.34-1.45.43-2.89-.75-3.81a3,3,0,0,0-1.86-.74,1.51,1.51,0,0,0-.31,0,3.71,3.71,0,0,0-2.41,1.85c-.29.38-.58.76-.94,1.17a6.21,6.21,0,0,1-1.13,1q0-.12,0-.27c0-.51-.08-1.1-.1-1.73-.14-3.18-.34-8-4.2-8h-.17a3.2,3.2,0,0,0-2.33,1.07c-1.29,1.49-1.06,4-.85,6.16,0,.45.1,1.05.12,1.52l-.37-.1a8.33,8.33,0,0,0-2.45-.48,3.45,3.45,0,0,0-1.68.4,3.54,3.54,0,0,0-1.65,2.26,3.61,3.61,0,0,0-.09,1.73c-.58.21-1.17.45-1.74.69-.8.33-1.65.68-2.4.93C94.82,26.71,96,25.45,96,23.91a2.91,2.91,0,0,0-.91-2.11,4.07,4.07,0,0,0-3-1.11,6.73,6.73,0,0,0-.88.06,9.48,9.48,0,0,0-2.46.74,6.16,6.16,0,0,0,.47-2.87,2.35,2.35,0,0,0-1.22-1.87,3.21,3.21,0,0,0-1.56-.4,4.2,4.2,0,0,0-2.4.86l.41-1c1.56-3.67,3.17-7.46.58-8.92a3,3,0,0,0-1.45-.38A5.66,5.66,0,0,0,80,8.81C80,4.88,79.66,0,76.2,0a3.62,3.62,0,0,0-2.67,1.13c-1.67,1.79-1.48,5.19-1.32,8.19,0,.64.08,1.47.09,2.17l-.57-.62c-1.42-1.59-3-3.39-5-3.39h-.14A3.46,3.46,0,0,0,63.9,9c-2,2.63.15,5.65,2.65,8.35a3.55,3.55,0,0,0-2.64,1.47,3.2,3.2,0,0,0-.7,2.2H63a5.38,5.38,0,0,0-3.25,1.31c-.13-.17-.24-.33-.34-.49-2.5-3.74-4.57-5.48-6.54-5.48a3.16,3.16,0,0,0-1.56.41c-2.18,1.24-1,3.56-.52,4.55a.83.83,0,0,1,.07.13,7.66,7.66,0,0,0-.65.78c-.6-.32-1.31-.8-2-1.27-.42-.29-.87-.59-1.34-.89a8.15,8.15,0,0,0-4.28-1.47,4.52,4.52,0,0,0-1.34.2A3.44,3.44,0,0,0,39,20.76a3.67,3.67,0,0,0,.39,3.78,3.92,3.92,0,0,0-1.85,1.7l-.37.55a13.08,13.08,0,0,1-.62-3.06c-.35-2.65-.83-6.28-3.95-6.27-2.82,0-3.31,2.32-3.46,3.68-.14-.37-.27-.75-.37-1C28.2,18.47,27.56,16.63,26,16a2.85,2.85,0,0,0-1-.18,3.61,3.61,0,0,0-1.78.51c-2.11,1.19-1.22,4-.35,6.78a19.39,19.39,0,0,1,.76,2.91h0c-.21,0-.43,0-.65,0S22.31,26,22,26a3.24,3.24,0,0,0-3.46,2.77c-.62,2.86,2.31,4.3,4.25,5.26a14.78,14.78,0,0,1,1.77,1l-.57.11c-.93.15-3.1.51-3.2,3.07,0,.14,0,.28,0,.42a15.44,15.44,0,0,0-4.63,1,3.49,3.49,0,0,0-2.25,2.23c-.58,2.36,1.13,3.55,2,4.19a5.86,5.86,0,0,1,.6.45,2.82,2.82,0,0,1-.7.07,20.81,20.81,0,0,1-3-.35,24.58,24.58,0,0,0-3.73-.41C7,45.78,5.6,46.52,5,48,3.88,50.41,6,51.77,7.07,52.42a7.75,7.75,0,0,1,.85.6c-.45.21-1.2.47-1.83.68l-.37.13C2.9,54.8.78,56.52.19,58.31a3.55,3.55,0,0,0,.47,3.21,3.5,3.5,0,0,0,2.95,1.61c1.72,0,3.44-1.16,5-2.18l.1-.07a20.76,20.76,0,0,1,1.81-1.13c0,.11,0,.2,0,.26A4.35,4.35,0,0,0,11,63.57a3.74,3.74,0,0,0,2.82,1.21H14c1.77,0,3.2-1.28,4.45-3a5.92,5.92,0,0,0,3.32.76c-.79.33-1.74.68-2.49.95-3.57,1.29-7.26,2.63-8.1,5.26a4.54,4.54,0,0,0,.24,3.89c1,1.74,3.16,2.11,4.26,2.31l.15,0h0c-.1.1-.48.4-.8.65-1.93,1.53-5.53,4.37-4.58,8a3.54,3.54,0,0,0,2.65,2.9,3.08,3.08,0,0,0,.75.09c2.58,0,5.08-2.77,5.79-3.61,1.08-1.3,1.85-1.66,2.18-1.66h0c.06,0,.17.12.27.34a6,6,0,0,1,.32,1.44c.18,1.19.39,2.66,1.6,3.49a3.07,3.07,0,0,0,1.79.53,4.87,4.87,0,0,0,1-.12c4.3-.93,5.31-6.31,6.1-12.73a13.14,13.14,0,0,1,.87-3.81,1.81,1.81,0,0,1,.25.28A5.4,5.4,0,0,0,38,72.9l.35,0a3.66,3.66,0,0,0,1.86,3.66,2.5,2.5,0,0,0,1.15.28c1.55,0,2.33-1.38,2.91-2.39A5.48,5.48,0,0,1,45,73.28h0c.33.3.32,2.16.31,3.39,0,.55,0,1.12,0,1.71.05,2.41.78,4.32,2.08,5.38a3.56,3.56,0,0,0,2.27.84,3,3,0,0,0,.59-.06c4-.72,3.51-5.49,3.15-9a16.23,16.23,0,0,1-.13-3.53L54,72c1.33,0,3.79,0,4.43-3.1.43-2.1-1.21-3.67-2.66-5.05a11.12,11.12,0,0,1-2.14-2.46h0a11.86,11.86,0,0,0,1.35.19,44.74,44.74,0,0,1,8.58,17.65,25.74,25.74,0,0,0-9,8c-3.4,5.18-4,10.64-4.51,15.06a33.33,33.33,0,0,1-.68,4.42c-.76,2.76.31,4.07,1,4.61a3.51,3.51,0,0,0,2.11.66,7.24,7.24,0,0,0,3.64-1.19,1.79,1.79,0,0,1,.31-.16,21.88,21.88,0,0,0,.58,3.59c.74,3.07.49,4,.31,4.65a3.76,3.76,0,0,0,0,2.44,4,4,0,0,0,2.91,2.73,4.24,4.24,0,0,0,.88.1c1.58,0,3.24-.87,4.93-2.58a92.87,92.87,0,0,1-2.55,19.94c-3,11.53-9.73,44.74-5.62,59.81a1.56,1.56,0,0,0,1.44,1.15L94,203.76a1.53,1.53,0,0,0,1.46-1c.07-.21,7.06-21.44,2-55.54-2.16-14.66-3.38-23-4.06-27.76a4.86,4.86,0,0,1,1.1.66,5.4,5.4,0,0,0,3.42,1.34,3.94,3.94,0,0,0,3.91-4.73c-.06-.39-.1-.89-.14-1.51a27.46,27.46,0,0,0-.8-5.2,21.14,21.14,0,0,1,2.48.68,6.86,6.86,0,0,0,2.42.47,4,4,0,0,0,3.12-1.29c1.22-1.36,1.3-3.46.22-5.63a9,9,0,0,1-.58-3.06c-.29-3.21-.72-8.06-6.61-13.93A20.56,20.56,0,0,0,93.2,82a46,46,0,0,1,7.33-12.77,2.62,2.62,0,0,0,.07,2.25,2.92,2.92,0,0,0,2.86,1.62,10.3,10.3,0,0,0,1.8-.22l.27,0c-.06.28-.11.58-.17.89-.46,2.38-.93,4.85.16,6.43a2.93,2.93,0,0,0,1.94,1.24,6.07,6.07,0,0,0,.94.08,3.87,3.87,0,0,0,2.3-.7c1.72-1.23,2.09-3.64,2.41-5.78a14.8,14.8,0,0,1,.53-2.49c.19.25.43.62.6.88.67,1.06,1.59,2.52,3.22,2.52a2.72,2.72,0,0,0,.69-.09,2.61,2.61,0,0,0,1.63-1.3c.94-1.67.39-4.54-.43-7.51a3.25,3.25,0,0,0,2,.73,3.05,3.05,0,0,0,1.23-.26l.1,0a4,4,0,0,0,.89.49,2.83,2.83,0,0,0,1,.19,2.27,2.27,0,0,0,1.27-.39A3.63,3.63,0,0,0,127.28,64l.68.82c2.12,2.61,4.13,5.07,6.23,5.07a2.51,2.51,0,0,0,1.39-.41c1.84-1.18,1.5-3.44,1-5.17,2.19,1.09,4.74,2.29,6.71,2.29h0A3,3,0,0,0,146.2,65,3.64,3.64,0,0,0,146.44,62.14Zm-1.5,2.23c-1,2-5.46-.19-8.38-1.66l-1.29-.64c-.43-.21-.57-.17-.62-.12-.2.17.06,1,.31,1.82.49,1.56,1.15,3.69-.15,4.53a1.08,1.08,0,0,1-.62.19c-1.42,0-3.38-2.4-5.14-4.56-1.32-1.62-2.69-3.29-3.37-3.29h0a.41.41,0,0,0-.33.15c-.2.28,0,1,.2,1.75.37,1.39.84,3.13-.47,4a1,1,0,0,1-.93,0,4.62,4.62,0,0,1-1.41-1,1.69,1.69,0,0,1-.68.61,1.87,1.87,0,0,1-2.33-.91,1.58,1.58,0,0,0-1.77-.92c-.47.19-.59.82-.32,1.73.63,2.16,1.82,6.17.94,7.74a1.24,1.24,0,0,1-.77.62c-1,.27-1.7-.79-2.35-1.82S114,70.46,113,71.12c-.79.5-1,2-1.28,3.68-.3,2-.6,4-1.84,4.84a2.48,2.48,0,0,1-1.47.44,4.48,4.48,0,0,1-.7-.07,1.48,1.48,0,0,1-1-.64c-.76-1.1-.32-3.36.06-5.36.11-.6.22-1.17.3-1.68a1,1,0,0,0-.15-.81c-.32-.31-1.08-.17-1.89,0-1.22.22-2.6.47-3.14-.63s1.06-2.72,2.66-4.17c1.3-1.19,2.64-2.41,2.35-3.17a.39.39,0,0,0-.26-.27c-.43-.13-1.25.43-2.05,1-1,.67-2,1.35-2.67,1.09h0C97.44,70.62,93.11,76.79,91.4,83A18.69,18.69,0,0,1,101,88.21c5.52,5.51,5.91,9.87,6.19,13.06a10,10,0,0,0,.73,3.57c.81,1.62.81,3.13,0,4a2.68,2.68,0,0,1-2.06.82,5.52,5.52,0,0,1-1.92-.39,37.84,37.84,0,0,0-4.59-1.15l-.59-.12a20.51,20.51,0,0,1,1.58,7.23c0,.64.09,1.18.16,1.62a2.54,2.54,0,0,1-2.51,3.1,4,4,0,0,1-2.52-1,8.15,8.15,0,0,0-3.71-1.54c.63,4.46,1.88,13.11,4.37,29.94,5,33.7-1.88,54.67-2,54.88a.13.13,0,0,1-.12.08h0l-34.66-1.23a.13.13,0,0,1-.12-.09c-4-14.79,2.69-47.67,5.62-59.1a99.47,99.47,0,0,0,2.64-23.81l-.75.76c-.51.51-1,1-1.47,1.5-1.8,1.92-3.2,2.42-4.17,2.42a2.49,2.49,0,0,1-.57-.06,2.57,2.57,0,0,1-1.87-1.8,2.34,2.34,0,0,1,0-1.62c.22-.82.53-1.93-.3-5.35a17.61,17.61,0,0,1-.56-5.15,8.7,8.7,0,0,0-2.45.83,5.88,5.88,0,0,1-2.9,1,2,2,0,0,1-1.25-.38c-.73-.56-.92-1.66-.52-3.1a31.93,31.93,0,0,0,.73-4.68c.48-4.24,1.07-9.51,4.28-14.4a24.6,24.6,0,0,1,9.47-8,46.14,46.14,0,0,0-9.52-19.83A6.94,6.94,0,0,1,53.86,60c-.79-.14-1.54-.28-1.83,0s-.19.53-.07,1c.36,1.48,1.6,2.66,2.81,3.81s2.51,2.4,2.24,3.73c-.41,2-1.75,2-3,2a8.32,8.32,0,0,0-1.12,0c-1.28.19-1,2.55-.79,5,.34,3.26.71,7-2,7.44a1.84,1.84,0,0,1-.33,0,2.15,2.15,0,0,1-1.37-.52c-1-.79-1.52-2.32-1.56-4.31,0-.58,0-1.14,0-1.67,0-2.69,0-4.62-1.67-4.83-1-.11-1.57.89-2.12,1.88s-1.16,2-2.2,1.53c-1.55-.77-1.42-3.38.38-7.74,1.16-2.81,2.4-7.62,1.68-8.73a.42.42,0,0,0-.36-.22h-.05c-.71,0-1.14.59-1.6,1.22h0c-.46,4.37-.92,8.27-1.1,9.54-.22,1.47-.87,2-1.37,2.09-1,.27-2.35-.57-3.15-1.55-.65-.8-1.22-1.14-1.7-1S32.1,70.1,31.6,74.14c-.87,7-1.92,10.85-5,11.52a4,4,0,0,1-.73.08,1.67,1.67,0,0,1-1-.28c-.69-.48-.85-1.52-1-2.53a6.87,6.87,0,0,0-.44-1.85A1.8,1.8,0,0,0,22.06,80c-1-.14-2.2.64-3.45,2.15s-3.53,3.42-5.14,3a2.24,2.24,0,0,1-1.59-1.87c-.71-2.71,2.41-5.18,4.09-6.5a7.47,7.47,0,0,0,1-.88,1.38,1.38,0,0,0,.17-1.35,1.55,1.55,0,0,0-1.19-1h-.09c-.87-.16-2.49-.44-3.21-1.63a3.25,3.25,0,0,1-.1-2.73c.63-2,4.14-3.23,7.23-4.36,2.45-.88,4.75-1.72,4.75-2.63s-.93-1.05-2.46-1.06c-1.18,0-2.53,0-3.18-.89a4.82,4.82,0,0,1-.5-.83c-1.31,2-2.76,3.91-4.37,3.91h-.11a2.37,2.37,0,0,1-1.8-.69,3.22,3.22,0,0,1-.28-2.46c.16-1.15.21-1.86-.62-2s-2.11.68-3.45,1.58c-2.11,1.43-4.51,3-5.95.94a2.11,2.11,0,0,1-.29-2C2,57.39,3.81,56,6.18,55.17L6.55,55c1.55-.52,2.67-.91,2.93-1.52a1.13,1.13,0,0,0-.09-.93,4.09,4.09,0,0,0-1.56-1.37c-1.06-.66-2.16-1.35-1.58-2.66.83-1.87,3.67-1.41,6.42-1,2.47.4,4.79.77,5.28-.61.36-1-.35-1.54-1.18-2.12S15,43.58,15.3,42.17c.11-.48.6-.91,1.44-1.28a17.34,17.34,0,0,1,5.9-1,3.07,3.07,0,0,1-.43-1.67c.05-1.4,1.05-1.57,2-1.73s1.72-.29,1.93-1.33-1.23-1.67-2.74-2.41c-1.81-.9-3.87-1.91-3.49-3.69s1.73-1.7,2.9-1.6c.85.07,1.66.13,2.05-.51s-.14-2.48-.68-4.2c-.7-2.21-1.41-4.5-.31-5.12a1.86,1.86,0,0,1,1.59-.25c1,.37,1.48,1.82,2,3.23s1,2.87,1.94,3a.94.94,0,0,0,.67-.15c.35-.3.41-1,.48-1.71.1-1.24.24-2.78,2.09-2.8s2.21,2.58,2.54,5.08c.27,2,.52,3.93,1.52,4.2s1.56-.39,2-1.12,1-1.53,2.23-1.11a1.85,1.85,0,0,1,.91,1,8.6,8.6,0,0,1,.52,1.62,4.83,4.83,0,0,1,1.46-2.28c-2.38-1.34-4.45-2.89-3.54-5a2.14,2.14,0,0,1,1.36-1.15c1.2-.36,2.77,0,4.44,1.11.49.31,1,.63,1.4.93A11.77,11.77,0,0,0,50.77,24a5.05,5.05,0,0,1,1.83-2.1,10.5,10.5,0,0,0-.54-1.21c-.52-1-1.06-2.1-.05-2.68,1.51-.86,3.6.7,6.22,4.63.36.55.81,1.16,1.29,1.77,1.13-1.06,2.29-2,3.48-2h.06a2.76,2.76,0,0,1,2,1,1.59,1.59,0,0,1,.33.51,1.53,1.53,0,0,1,.31-.16c-1-1.69-1.39-3.15-.65-4.06a2.17,2.17,0,0,1,1.62-1h0c1.1,0,2.07,1.13,3,2.22.74.86,1.44,1.66,2,1.7a.69.69,0,0,0,.54-.2.48.48,0,0,0,.17-.36c0-.81-1.46-2.31-3-3.9-2.69-2.71-6-6.09-4.34-8.37a2.15,2.15,0,0,1,1.6-1h.08c1.35,0,2.74,1.55,4,2.92.89,1,1.72,1.92,2.29,1.94h0a.45.45,0,0,0,.32-.14c.54-.53.44-2.4.33-4.38-.15-2.72-.32-5.8.94-7.14a2.15,2.15,0,0,1,1.64-.68h0c2.27,0,2.35,4.92,2.41,8.18,0,.53,0,1,0,1.44s.12.59.19.61c.23.1.86-.53,1.46-1.13,1.15-1.15,2.74-2.73,4.08-2s.07,4.19-1.18,7.14c-.83,1.94-1.68,4-1.33,4.54a.41.41,0,0,0,.28.23h0c.34,0,.86-.49,1.41-1,1.06-1,2.38-2.21,3.77-1.46a1,1,0,0,1,.48.8c.18,1.46-1.23,4.34-2.47,6.54a13.15,13.15,0,0,1,6.07-3.18,3,3,0,0,1,2.63.64,1.52,1.52,0,0,1,.49,1.1c0,1.06-1.15,2.18-2.16,3.17-.81.79-1.58,1.54-1.49,2,0,.16.18.29.46.4,1.09.44,3.18-.43,5.21-1.26A24.47,24.47,0,0,1,100,27a1.73,1.73,0,0,1-.73-2.14,2.18,2.18,0,0,1,1-1.39c.86-.48,2-.13,3,.18,1.18.36,1.91.54,2.1-.09a9.18,9.18,0,0,0,0-2.82c-.18-1.9-.38-4.06.51-5.08a1.76,1.76,0,0,1,1.32-.59h.11c2.5,0,2.66,3.66,2.78,6.62,0,.65.06,1.27.11,1.8.09,1,.37,1.56.83,1.71.64.2,1.68-.4,2.79-1.64.41-.46.73-.89,1-1.26.54-.72.93-1.24,1.46-1.31a1.54,1.54,0,0,1,1.12.43c.77.61.35,2.05-.09,3.58s-1,3.33-.17,4.23a1.84,1.84,0,0,0,2,.52h.07c-.05-2.53.09-4.67,1.48-4.91a1.35,1.35,0,0,1,1.1.22c.73.57.85,2,1,3.51.14,1.75.29,3.55,1.43,3.9s2.36-2,3.78-4.44c1.61-2.75,3.28-5.6,5-6a1.84,1.84,0,0,1,1.49.31c2.24,1.54.34,4.39-1.33,6.9-1.31,2-2.55,3.81-1.85,4.87s2.48.81,4.16.49c1.45-.27,2.82-.53,3.67.07a1.83,1.83,0,0,1,.73,1.28c.34,2-3.28,3-6.78,4-3.05.87-6.2,1.78-5.86,3.2s1.64,1.31,3,1.15a3.28,3.28,0,0,1,2.46.27A1.19,1.19,0,0,1,133,45a1.82,1.82,0,0,1,1,.93A2.16,2.16,0,0,1,134,47.8c-.5,1-2,1.32-3.38,1.65-1.1.25-2.13.49-2.45,1a.71.71,0,0,0-.07.58.44.44,0,0,0,.24.31c.7.4,2.72-.22,4.86-.87,3.66-1.12,8.2-2.51,9.43.05a2.15,2.15,0,0,1,.13,1.88c-.58,1.25-2.64,1.77-4.46,2.22-1.29.33-2.51.63-2.78,1.12a.43.43,0,0,0,0,.37c.22.72,1.93,1.5,3.73,2.32,2.47,1.14,5.27,2.42,5.88,4.16A2.21,2.21,0,0,1,144.94,64.37Z"/><path class="cls-1" d="M98.46,57.33c-1.94,1.17-5.51,3.34-7.25,2.89a1.2,1.2,0,0,1-.79-.59,1,1,0,0,1-.14-.39,13.42,13.42,0,0,1-2.35-3c-.3-.46-.58-.88-.86-1.25s-.39-.42-.58-.42h0c-.38,0-.78.56-1.2,1.15-.64.9-1.36,1.93-2.41,1.56s-1-2.39-.9-4.32c.09-1.55.18-3.16-.47-3.45a.33.33,0,0,0-.23,0c0,.48,0,.93,0,1.37.25,2.15.49,4.49.75,7,.81,7.81,1.64,15.79,2.79,21.37A81.7,81.7,0,0,1,97.08,61.74q1.61-1.8,3.2-3.42a1.26,1.26,0,0,0-.07-1.11C99.9,56.8,99.26,56.85,98.46,57.33ZM96,60.79A89,89,0,0,0,85.52,75c-.75-4.77-1.36-10.53-2-16.22,1.39-.13,2.24-1.31,2.87-2.21.09.15.2.3.31.47a17.33,17.33,0,0,0,2.29,3,2.74,2.74,0,0,0,1.82,1.54,3.45,3.45,0,0,0,.87.11,11.76,11.76,0,0,0,5.06-1.76Z"/><path class="cls-1" d="M99.71,42.54a3.9,3.9,0,0,1-.13-.57,2.39,2.39,0,0,1,.55-2.12l.06,0c-1.51-.34-2.83-.51-3.42.12a1,1,0,0,0-.17,1.14A8.46,8.46,0,0,1,99.71,42.54Z"/><path class="cls-1" d="M92.72,55.36a1,1,0,0,0-.3-1.21,1.6,1.6,0,0,0-.75-.36C92,54.31,92.41,54.84,92.72,55.36Z"/></svg>