<svg id="圖層_1" data-name="圖層 1" xmlns="http://www.w3.org/2000/svg" viewBox="0 0 87.38 104.35"><defs><style>.cls-1{fill:#fff;}</style></defs><title>0</title><path class="cls-1" d="M27,33.59l.18,0-.08-.17Z"/><path class="cls-1" d="M22.09,23h0Z"/><path class="cls-1" d="M27,30.61a12.14,12.14,0,0,1-3.39,4.64,9.15,9.15,0,0,1,1-.22,8.93,8.93,0,0,1,5.26.9c-1.1-2.14-2-4.05-2.75-5.84C27.08,30.27,27,30.44,27,30.61Zm0,3,.1-.14.08.17Z"/><path class="cls-1" d="M42.62,34.42A6,6,0,0,1,37,26.3a4.73,4.73,0,0,1,.31-.64,9.35,9.35,0,0,1-3.44-.84,6.89,6.89,0,0,1-.7-.39c.44,1.18.9,2.43,1.37,3.74,1.83,5.08,3.93,10.89,6.34,14.81a13.08,13.08,0,0,1,2.46-8.61A5.65,5.65,0,0,1,42.62,34.42ZM40,38.16c-.53-1.16-1-2.38-1.54-3.62a8.45,8.45,0,0,0,1.61.83,7.18,7.18,0,0,0,.87.26A13.69,13.69,0,0,0,40,38.16Z"/><path class="cls-1" d="M51.28,37.69a4.25,4.25,0,0,1-.49-.21,9.11,9.11,0,0,1-.55,2.36C49,43.2,46,45.42,43.92,46.61a4.15,4.15,0,0,0,2.47.93h0c3.87,0,6.46-4.44,8.46-9.68a5.85,5.85,0,0,1-1.51.21A5.94,5.94,0,0,1,51.28,37.69Zm-4,8.29a13.6,13.6,0,0,0,4.24-5.64c.12-.33.23-.66.32-1,.27,0,.54.09.82.12C51,43.29,49.23,45.44,47.33,46Z"/><path class="cls-1" d="M87.32,23.1a1.53,1.53,0,0,0-.88-1A19.16,19.16,0,0,0,79,20.36a11.53,11.53,0,0,0-2.46.25,31.32,31.32,0,0,0,.83-7,1.57,1.57,0,0,0-.54-1.21,1.53,1.53,0,0,0-1-.37h-.21A18.24,18.24,0,0,0,66,16.86l-.36-.26a14.68,14.68,0,0,0-8.72-2.51,27.72,27.72,0,0,0-5.88.69,1.55,1.55,0,0,0-1,.75A1.6,1.6,0,0,0,50,16.8a17.48,17.48,0,0,0,7.5,8.55c0,.13-.09.26-.13.4A6.86,6.86,0,0,0,56,25.09a7.42,7.42,0,0,0-5.68.2,5.14,5.14,0,0,0-.77.41,7.57,7.57,0,0,0-2.31-3.13c2.91-5.74-.5-13.57-.68-14a1.51,1.51,0,0,0-.94-.81,1.63,1.63,0,0,0-.45-.06,1.69,1.69,0,0,0-.94.32c-3.24,2.5-5.3,5.19-6.14,8A18.22,18.22,0,0,0,32.93,14c1.5-3.56,1.58-7.87.23-12.85a1.62,1.62,0,0,0-.95-1A1.7,1.7,0,0,0,31.67,0a1.6,1.6,0,0,0-.85.26C30.76.3,25.21,4,23.33,9.7a7.38,7.38,0,0,0-3,.67,7.27,7.27,0,0,0-1.48.91C16.56,9.19,13.14,8.12,8.67,8.12q-1.27,0-2.73.12a1.56,1.56,0,0,0-1.08.63,1.49,1.49,0,0,0-.26,1.25,16.16,16.16,0,0,0,2.58,5.34A24.37,24.37,0,0,0,.63,19.05a1.54,1.54,0,0,0,0,2.51A23,23,0,0,0,9,24.87a7.43,7.43,0,0,0,1.23,4.29A25.17,25.17,0,0,0,4,35.68a1.55,1.55,0,0,0,.84,2.25,21.7,21.7,0,0,0,6.83,1.25A12.78,12.78,0,0,0,16,38.46a32.2,32.2,0,0,0-4,5.27,1.53,1.53,0,0,0,.73,2.21,19.08,19.08,0,0,0,6.84,1.29,14.68,14.68,0,0,0,3.66-.45l0,.07a7.41,7.41,0,0,0,9.85,3.68,7,7,0,0,0,2-1.37c.6,1.17,1.22,2.4,1.87,3.7C45.7,70.21,45,82.74,44.56,91c-.39,7.12-.68,12.26,6.59,13.14a21.12,21.12,0,0,0,2.59.17c2.34,0,3.9-.54,4.91-1.72,2.15-2.47,1.06-6.56-.93-14a162,162,0,0,1-5.09-25.27c-.6-5.36,1.66-9,4.52-13.71.14-.23.28-.47.43-.7a18.48,18.48,0,0,0,3.49,8.86,1.48,1.48,0,0,0,1.11.66h.16A1.55,1.55,0,0,0,63.46,58a22.36,22.36,0,0,0,2.65-3.55,17.62,17.62,0,0,0,1.46-2.95c.19.27.39.54.6.79A13.82,13.82,0,0,0,76.76,57h.13a1.56,1.56,0,0,0,1.53-1.32c.61-4.3.2-7.81-1.24-10.47A24.56,24.56,0,0,0,81,44.4a1.56,1.56,0,0,0,1.1-1.8,13.94,13.94,0,0,0-1.47-3.69,22.31,22.31,0,0,0,3.4-.33,1.52,1.52,0,0,0,1-.8,1.56,1.56,0,0,0,0-1.35,19.2,19.2,0,0,0-4.39-6.34,23.85,23.85,0,0,0,6.38-5.68A1.51,1.51,0,0,0,87.32,23.1Zm-1.38.48c-.06.07-3.47,4.61-8,6.24,2.31,1.32,4.27,3.73,5.85,7.2a.14.14,0,0,1,0,.11.1.1,0,0,1-.08.06,22,22,0,0,1-3.83.32c-.67,0-1.41,0-2.16-.11a12.36,12.36,0,0,1,3,5.49.13.13,0,0,1-.09.14,21,21,0,0,1-5.56.85c-.21,0-.4,0-.61,0l.19.18c2.32,2.46,3.13,6.3,2.39,11.41a.11.11,0,0,1-.12.1h0a12.36,12.36,0,0,1-7.61-4.12,11.09,11.09,0,0,1-2.22-4.6,13.41,13.41,0,0,1-2.15,6.93,21.47,21.47,0,0,1-2.47,3.31.14.14,0,0,1-.09,0h0a.11.11,0,0,1-.09,0C59.5,53,58.47,49.28,59.17,46A9.26,9.26,0,0,1,60,43.58a6.14,6.14,0,0,1-.62-.73c-1.13,2.25-2.35,4.24-3.47,6.08-2.88,4.7-5.38,8.77-4.72,14.61A163.07,163.07,0,0,0,56.35,89c1.8,6.72,2.89,10.78,1.23,12.69-.72.83-1.94,1.23-3.84,1.23a20.43,20.43,0,0,1-2.42-.17c-6-.72-5.73-4.6-5.35-11.65.46-8.45,1.17-21.21-7.64-38.9-1-2.06-2-3.95-2.91-5.72a6,6,0,0,1-2.84,2.74,5.86,5.86,0,0,1-2.49.55,6.07,6.07,0,0,1-5.48-3.53A6.1,6.1,0,0,1,24.2,45a13,13,0,0,1-4.57.8,17.84,17.84,0,0,1-6.29-1.18.1.1,0,0,1-.07-.07.14.14,0,0,1,0-.11,25.64,25.64,0,0,1,6.28-7.24c-.2-.82-.35-1.6-.48-2.36a9.07,9.07,0,0,1-1.62,1.35,10.52,10.52,0,0,1-5.78,1.56A20.08,20.08,0,0,1,5.3,36.58a.12.12,0,0,1-.07-.18,22.44,22.44,0,0,1,7.16-6.89,6,6,0,0,1-1.79-5.89,20.49,20.49,0,0,1-9.13-3.23.12.12,0,0,1-.05-.1.11.11,0,0,1,.05-.1,20.49,20.49,0,0,1,8.27-4A14.73,14.73,0,0,1,6,9.81a.11.11,0,0,1,0-.1.15.15,0,0,1,.09-.06c5.63-.46,9.69.53,12.06,2.95a8.17,8.17,0,0,1,.62.72,5.91,5.91,0,0,1,2.13-1.66,6,6,0,0,1,3.49-.46c1.29-5.76,7.13-9.71,7.21-9.76a.17.17,0,0,1,.12,0,.16.16,0,0,1,.07.09c1.75,6.43.69,10.71-1,13.47,2.58.44,5.94,1.43,8.23,3.64.17-3.3,2.19-6.48,6-9.45a.14.14,0,0,1,.11,0,.13.13,0,0,1,.08.07c0,.1,3.82,8.63,0,13.79a6.05,6.05,0,0,1,3.35,5.39A5.94,5.94,0,0,1,58,28.24c.42-1.34.81-2.56,1.2-3.61a15.81,15.81,0,0,1-7.92-8.3.11.11,0,0,1,0-.1.1.1,0,0,1,.08-.06c5.69-1.26,10.22-.73,13.46,1.58a10.51,10.51,0,0,1,1.32,1.12c3.46-4.52,9.6-5.42,9.66-5.43a.19.19,0,0,1,.1,0,.13.13,0,0,1,0,.1A25.34,25.34,0,0,1,74.29,23l.17-.1c3-1.6,6.84-1.42,11.43.53a.18.18,0,0,1,.07.08A.14.14,0,0,1,85.94,23.58Z"/></svg>