<svg id="圖層_1" data-name="圖層 1" xmlns="http://www.w3.org/2000/svg" viewBox="0 0 156.29 81.05"><defs><style>.cls-1{fill:#fff;}</style></defs><title>0</title><path class="cls-1" d="M155.92,34.66a8.46,8.46,0,0,0-7-5.25l-1.07-.08h-.22c-3.19-.22-4.05-.27-5.11-3.29-.72-2.05-.21-3.16.49-4.69a10.86,10.86,0,0,0,1.24-4.55,5.52,5.52,0,0,0-1.52-4.3c-1.19-1.13-2.91-1.64-5.58-1.64q-.79,0-1.74.06c-4.13.27-5.42,1.35-7.2,2.86-.37.3-.77.65-1.25,1a21.82,21.82,0,0,0-2.29,2.13,14.16,14.16,0,0,0-3-3.33,14,14,0,0,0-9.34-3.29,14.72,14.72,0,0,1-7-1.71,12.77,12.77,0,0,0-5.23-1.48,9.4,9.4,0,0,0-.94-2.91A7.57,7.57,0,0,0,92.54,0a6.52,6.52,0,0,0-2.81.62A2.83,2.83,0,0,0,88,4.05a2.88,2.88,0,0,0,2.85,1.86,4.38,4.38,0,0,0,.88-.09,2.62,2.62,0,0,1,.54-.06c1,0,1.73.72,2.22,2.13a20,20,0,0,0-3.65,1.67,11.78,11.78,0,0,1-4.4,1.11c-3.51.47-7.88,1.05-12.21,5.7a15.12,15.12,0,0,0-1.11,1.32L72,17.55a16.29,16.29,0,0,1-7.61-2.39,14,14,0,0,0-4-1.69c.44-1.74,1.3-2.62,2.58-2.62l.34,0,.52,0A3.08,3.08,0,0,0,67,8.67,3,3,0,0,0,64.9,5.28a6.83,6.83,0,0,0-2.35-.41,8,8,0,0,0-7.36,5.21,10.26,10.26,0,0,0-.7,3.18,20.12,20.12,0,0,0-5.81,1.91,12.92,12.92,0,0,1-4.93.9c-3.84.26-8.61.57-13.64,5.28A21,21,0,0,0,23.7,34.19a33.29,33.29,0,0,0-5.37-.52,12.74,12.74,0,0,0-2.36.19,9.72,9.72,0,0,0-3.47,1.33,3.85,3.85,0,0,1-2.36.7H9.8c-.58,0-1.17-.05-1.77-.05-1.53,0-6.17,0-7.22,4.72-.12.54-.25,1-.37,1.4C0,43.61-.45,45,1,47.32,2,48.8,3.77,49.45,5.21,50a8.69,8.69,0,0,1,1.8.8c0,.3-.23.61-.67,1.19a5.82,5.82,0,0,0-1.26,2.59,4.08,4.08,0,0,0,.73,2.88,1.74,1.74,0,0,1,.4,1.22A4.2,4.2,0,0,1,5.63,60a6.19,6.19,0,0,0-.54,6.19A7.79,7.79,0,0,0,9.84,70.6a4.6,4.6,0,0,0,1.15.15,4.13,4.13,0,0,0,2.47-.81c.36-.26.72-.56,1.12-.89,1.22-1,2.38-2,4-2l.53,0a7.6,7.6,0,0,0,.94,0,6,6,0,0,0,4-1.37,5.78,5.78,0,0,0,2-4.28.73.73,0,0,1,.69-.73h.1a.77.77,0,0,1,.8.64,10.45,10.45,0,0,1,.26,1.94c.13,1.78.35,4.76,4.21,5h.46a7.57,7.57,0,0,0,3.65-.92l.21-.1a12,12,0,0,0,7,2.5c2.33.23,2.86.39,3.18,1.62,1.36,5.24,4.13,6,7.34,6.82l.31.09a7.83,7.83,0,0,1,2.54,1.35,5.72,5.72,0,0,0,3.25,1.36,4,4,0,0,0,2.32-.8A7.31,7.31,0,0,0,65,76.89c.41-.92.6-1.31,1.24-1.62,2.19-1.08,1.64-3.47,1.32-4.91a5.85,5.85,0,0,1-.25-1.72l.11-.06.13,0c.09.15.21.38.3.54a5.2,5.2,0,0,0,4.46,3.32c.5,0,.94.06,1.35.06a14.39,14.39,0,0,0,2.18-.18,6.88,6.88,0,0,1,.88-.09c.38,0,.86.09,2.1,1.11a10.45,10.45,0,0,0,6.42,2.5,6.11,6.11,0,0,0,.86,0,4.94,4.94,0,0,0,3.5-1.85c1.58-2.09,3.91-7.51,1-11a25.57,25.57,0,0,0-1.94-2,12.3,12.3,0,0,1-1.94-2.07,2.24,2.24,0,0,1,.66-.4,4.48,4.48,0,0,1,1.85-.39,9.72,9.72,0,0,1,2.18.33h0c.62,4,2.77,5.26,4.68,6.41a6.9,6.9,0,0,1,3.36,3.38c.85,2,2.31,4.45,4.42,4.93a3.61,3.61,0,0,0,3.3-1,9,9,0,0,1,1.35-1c2-1.24,2.45-2.16,2.23-6.83a3.06,3.06,0,0,1,2.2-3.21,7.34,7.34,0,0,1,2.46-.44c2.19-.11,3.33-.7,4.33-4,.45-1.5,1.35-1.7,3-1.93,1.3-.19,2.93-.42,3.59-2.05a11.8,11.8,0,0,0,.68-2.23,17,17,0,0,0,7.29,1.61,15.23,15.23,0,0,0,5.39-.93c2.39-.92,4-2.43,4.46-4.24s3.19-3,5.82-4.26A17.47,17.47,0,0,0,155,39.81,4.71,4.71,0,0,0,155.92,34.66Zm-2,4.15a16.37,16.37,0,0,1-4.52,2.64c-2.92,1.36-5.94,2.76-6.59,5.18-.37,1.37-1.65,2.54-3.6,3.29a13.9,13.9,0,0,1-4.88.83,15.24,15.24,0,0,1-8.19-2.3l-.35-.23a9.19,9.19,0,0,1-.74,4c-.36.88-1.34,1-2.48,1.18-1.61.23-3.44.49-4.18,2.93-.87,2.86-1.6,2.89-3,3a9.18,9.18,0,0,0-2.87.52,4.5,4.5,0,0,0-3.13,4.71c.2,4.36-.24,4.64-1.57,5.47a11,11,0,0,0-1.54,1.11,2.43,2.43,0,0,1-1.61.7,2,2,0,0,1-.43,0c-1.61-.37-2.84-2.73-3.43-4.11a8.27,8.27,0,0,0-3.93-4c-2-1.18-3.81-2.31-4.13-6.37-.31-.05-.65-.13-1-.21a7.13,7.13,0,0,0-5,.14c-.91.42-1.4.88-1.48,1.41-.17,1,1.07,2.15,2.38,3.38a21,21,0,0,1,1.82,1.84c2.33,2.78.25,7.48-1,9.2a3.61,3.61,0,0,1-2.54,1.3,8.55,8.55,0,0,1-6.21-2.14c-2-1.62-2.72-1.51-4.08-1.32a11.86,11.86,0,0,1-3.2.1,3.81,3.81,0,0,1-3.33-2.55c-.5-1-.86-1.65-2.17-1.18s-1.11,1.93-.76,3.42.62,2.75-.56,3.32a4,4,0,0,0-1.92,2.33,5.94,5.94,0,0,1-2.08,2.77,2.56,2.56,0,0,1-1.5.54,4.47,4.47,0,0,1-2.43-1.1,9.32,9.32,0,0,0-3-1.56l-.31-.09c-3.12-.82-5.18-1.37-6.33-5.81-.59-2.29-2.28-2.46-4.41-2.67a10.52,10.52,0,0,1-6.45-2.33l-.36-.38a4.46,4.46,0,0,0-1.19.45,6.21,6.21,0,0,1-3.42.76c-2.61-.13-2.73-1.84-2.86-3.65a12,12,0,0,0-.31-2.2,2.21,2.21,0,0,0-2.43-1.67,2.12,2.12,0,0,0-1.95,2.06,4.42,4.42,0,0,1-1.47,3.28,5,5,0,0,1-3.88,1c-2.58-.28-4.21,1.07-5.66,2.27-.35.29-.69.57-1,.83a2.72,2.72,0,0,1-1.63.53,3.19,3.19,0,0,1-.8-.1,6.43,6.43,0,0,1-3.82-3.66c-1-2.15-.21-3.61.5-4.89a5.12,5.12,0,0,0,.75-1.89A3.1,3.1,0,0,0,7,56.7a2.78,2.78,0,0,1-.54-1.94,4.58,4.58,0,0,1,1-2,3.31,3.31,0,0,0,.95-2.21c-.06-1-1.3-1.42-2.74-2s-2.78-1-3.48-2.09c-1.12-1.73-.85-2.66-.4-4.2.12-.43.26-.92.39-1.49C3.05,37,6.75,37.17,9.73,37.3a5.37,5.37,0,0,0,3.5-.89,8.31,8.31,0,0,1,3-1.16c2.19-.41,5.49,0,8.74.61a19.9,19.9,0,0,1,6.12-13.47c4.66-4.37,9-4.65,12.77-4.91a14.14,14.14,0,0,0,5.47-1.05,18.25,18.25,0,0,1,6.5-1.9l0-.39a10.46,10.46,0,0,1,.65-3.5c1.64-3.88,5.31-5,7.92-4,1,.38,1.38,1.14,1.24,1.74s-.89,1.25-2.19,1.11l-.49,0c-2.12,0-3.56,1.5-4.08,4.27-.06.32-.1.61-.13.9a12.4,12.4,0,0,1,4.89,1.76,17.78,17.78,0,0,0,8.2,2.6c.64.07,1.27.15,1.91.26a16.57,16.57,0,0,1,1.5-1.89c4-4.27,7.91-4.79,11.37-5.26a12.77,12.77,0,0,0,4.93-1.29,17.38,17.38,0,0,1,4.65-1.91c-.06-.31-.13-.64-.23-1C95.21,5.22,93.6,4,91.46,4.43c-1.19.24-1.91-.24-2.1-.82s0-1.27,1-1.71c2.3-1.09,5.75-.42,7.59,3A10,10,0,0,1,98.83,8c0,.17,0,.33.08.49a11.57,11.57,0,0,1,5.77,1.34,16.2,16.2,0,0,0,7.63,1.88,12.63,12.63,0,0,1,8.53,3,13.8,13.8,0,0,1,3.55,4.51c.35-.29.73-.7,1.16-1.14a22.23,22.23,0,0,1,2.31-2.17c.49-.38.91-.73,1.28-1.05,1.7-1.43,2.72-2.29,6.38-2.52,3.29-.21,5.16.14,6.25,1.19a4.13,4.13,0,0,1,1.08,3.24,9.41,9.41,0,0,1-1.11,4c-.74,1.63-1.45,3.16-.54,5.74,1.37,3.91,3,4,6.36,4.24l1.26.09a7.11,7.11,0,0,1,5.77,4.33A3.3,3.3,0,0,1,154,38.81Z"/></svg>