<svg id="圖層_1" data-name="圖層 1" xmlns="http://www.w3.org/2000/svg" viewBox="0 0 79.81 90.73"><defs><style>.cls-1{fill:#fff;}</style></defs><title>0</title><path class="cls-1" d="M44.61,34.85,43.16,36.3a12.71,12.71,0,0,1,1.54.18A9.11,9.11,0,0,1,44.61,34.85Z"/><path class="cls-1" d="M21.35,33q-.12-.59-.27-1.2a7.81,7.81,0,0,1-.55.82A8.85,8.85,0,0,1,21.35,33Z"/><path class="cls-1" d="M20,23.81C19,21.38,18,19,17.1,16.76c-.08-.17-.15-.34-.22-.51A4.33,4.33,0,0,0,14.64,19,8.61,8.61,0,0,1,20,23.81Z"/><path class="cls-1" d="M52.42,27.88a6.81,6.81,0,0,0-1-2.3c-.81.9-1.63,1.79-2.46,2.68A14.61,14.61,0,0,1,52.42,27.88Z"/><path class="cls-1" d="M20.66,28.49a6.36,6.36,0,0,1-2.89,4.78,11.34,11.34,0,0,1,1.5.39,6.36,6.36,0,0,1,4,3c-.2-3.67-1.49-7.95-3.06-12.16A9.62,9.62,0,0,1,20.66,28.49Zm.69,4.5a8.85,8.85,0,0,0-.82-.38,7.81,7.81,0,0,0,.55-.82Q21.23,32.41,21.35,33Z"/><path class="cls-1" d="M41.16,58.05a7.17,7.17,0,0,1,.7,2.46A16,16,0,0,1,45,59.45c3.23-.7,6-.14,8.09,1.63a6.14,6.14,0,0,1,1.74,2.47A8.53,8.53,0,0,1,55.2,62c1-2.92,3.61-4.69,7.18-5a13.46,13.46,0,0,1-.45-1.82C56.88,56.61,48.51,57.47,41.16,58.05Zm13.23,2.27c-.11-.11-.22-.22-.34-.32a9,9,0,0,0-2.52-1.53c1.68-.21,3.36-.44,4.95-.7A8.34,8.34,0,0,0,54.39,60.32Z"/><path class="cls-1" d="M50.76,50.7a9.61,9.61,0,0,1-6.3-3.12c-3.33-3.81-2.77-9.72-2.76-9.78a.12.12,0,0,1,.12-.12h.3a11.53,11.53,0,0,1,4.73.92,6.79,6.79,0,0,1-.74-2.24,6.28,6.28,0,0,1,1.19-5,6.69,6.69,0,0,1,1.21-1.17,5.83,5.83,0,0,1-.75-.66c-5.42,5.72-10.9,11-13.56,13.24-3.42,2.91-4.85,5-4.36,6.47s2.83,2.25,7.2,2.5c3.37.2,8.23-.39,12.91-1ZM44.61,34.85a9.11,9.11,0,0,0,.09,1.63,12.71,12.71,0,0,0-1.54-.18ZM38.48,50.4c-.48,0-.93,0-1.36,0-5.47-.32-5.92-1.49-5.94-1.54s-.36-1.27,3.94-4.94c1.2-1,3-2.68,5.12-4.72,0,2.19.49,6.3,3.15,9.35A10.23,10.23,0,0,0,45,50,64.27,64.27,0,0,1,38.48,50.4Z"/><path class="cls-1" d="M73.19,52.85c-.46-.11-.91-.19-1.35-.25a1.64,1.64,0,0,0-.68-.65,1.62,1.62,0,0,0-.68-.16,1.67,1.67,0,0,0-.61.13l-.07,0c-.18.09-.65.33-1.26.69l-.66.13a2.78,2.78,0,0,0,0-1.15,3.09,3.09,0,0,0-1-1.76c7-3.33,9.41-10.65,9.71-13.62a1.54,1.54,0,0,0-.48-1.31,1.52,1.52,0,0,0-1-.42l-.26,0a23.18,23.18,0,0,0-8.12,2.85c.08-.17.14-.35.21-.53,1.43-4,0-8.83-3.08-10.58a9.47,9.47,0,0,0-2.83-1,7.89,7.89,0,0,0,.05-.84,1.5,1.5,0,0,0-.58-1.2,1.53,1.53,0,0,0-1-.35,1.74,1.74,0,0,0-.39.05,12.22,12.22,0,0,0-3.46,1.64,7.56,7.56,0,0,0-.66-.89C63.41,14,64,10.83,63.62,9.19A2.75,2.75,0,0,0,61.7,7.05,2.66,2.66,0,0,0,61,7c-1.07,0-2.28.53-3.94,1.78a11.71,11.71,0,0,0-3-5.61A11.76,11.76,0,0,0,45.38,0h-.64a1.53,1.53,0,0,0-1.18.6,1.54,1.54,0,0,0-.29,1.26,12.69,12.69,0,0,0,.47,1.53c-.27-.24-.55-.48-.84-.71a1.58,1.58,0,0,0-1-.34,1.61,1.61,0,0,0-.44.06,1.56,1.56,0,0,0-1,1c0,.13-4,11.88,3.53,17.33-.4.35-.76.66-1.11.94l-1.44,1.19c-4.42,3.64-9,7.4-11.51,7.4a1.45,1.45,0,0,1-.43,0c-.19-.05-.69-.18-1.13-1.31-.31-.8-.7-1.91-1.18-3.27,5.66-2.89,7.84-7,8.66-10.1a15,15,0,0,0,.29-6.66,1.53,1.53,0,0,0-.71-.95,1.57,1.57,0,0,0-.79-.22,1.89,1.89,0,0,0-.52.09,16,16,0,0,0-10,9.29c-3.56-9.55-6-13.76-8.37-14.67a3,3,0,0,0-1.06-.2,2.73,2.73,0,0,0-1.33.35C10.71,4,12,8.11,14.48,14.19a9,9,0,0,0-1,.74,8.1,8.1,0,0,0-1.7,2.2h-.48a11.46,11.46,0,0,0-9,3.8A10.16,10.16,0,0,0,.54,30.74,6.78,6.78,0,0,0,4,34.88l.24.12a14.87,14.87,0,0,0-1.77,1.6A1.61,1.61,0,0,0,2.68,39a17.51,17.51,0,0,0,7.7,4,14.88,14.88,0,0,0,3.36.39,14.65,14.65,0,0,0,7.81-2.32c-1.35,6.7-6.06,14.47-10.64,22a116.08,116.08,0,0,0-7.69,14c-2.11,5-2.45,8.61-1,10.93s4,2.51,5.21,2.61h.12c.73.07,1.42.1,2.06.1,7.15,0,8-4.46,8.82-9.18.14-.75.28-1.54.45-2.35.13-.59.26-1.24.39-1.92,1.35-6.92,3.21-16.4,11.72-17.05L34.72,60l1.64-.12a9.65,9.65,0,0,0-4.13,2.41,8.73,8.73,0,0,0-2.07,8.59,7.13,7.13,0,0,0,3.6,4.7,9.87,9.87,0,0,0,4.56,1A20.17,20.17,0,0,0,44,75.6a9.77,9.77,0,0,0,3.53.7,9,9,0,0,0,7.57-4.41,10.91,10.91,0,0,0,.56-1A8.74,8.74,0,0,0,57,72.22a9.45,9.45,0,0,0,5.92,2,11.79,11.79,0,0,0,3.18-.45A15.34,15.34,0,0,0,70,72.06c8.35-.41,9.62-6.33,9.81-8.16C80.27,59,77.2,53.79,73.19,52.85Zm5.16,10.91c-.21,2-1.49,6.7-8.85,6.9a13.76,13.76,0,0,1-3.78,1.76,10.24,10.24,0,0,1-2.79.41,8,8,0,0,1-7.68-5.5,9.45,9.45,0,0,1-1.38,3.8,7.47,7.47,0,0,1-9.84,3,18.62,18.62,0,0,1-5.71,1,8.4,8.4,0,0,1-3.9-.83,5.64,5.64,0,0,1-2.88-3.8,7.3,7.3,0,0,1,1.7-7.23,8.31,8.31,0,0,1,6.9-2.3,11.39,11.39,0,0,0-.65-2.76l-4.88.36-3.77.27c-9.59.74-11.64,11.25-13,18.2-.13.67-.26,1.31-.38,1.89-.18.84-.32,1.63-.46,2.4-.86,4.74-1.46,8-7.43,8-.59,0-1.23,0-1.93-.09l-.23,0c-1-.08-3-.24-4-1.92-1.14-1.88-.76-5.13,1.14-9.65a115.47,115.47,0,0,1,7.59-13.81c5.19-8.54,10.55-17.38,11.17-24.9,0-.32,0-.65,0-1a14.12,14.12,0,0,1-9.59,4,13.28,13.28,0,0,1-3-.36,16.24,16.24,0,0,1-7-3.65c-.15-.15-.29-.29-.18-.4a14.18,14.18,0,0,1,4.6-3.25,7.45,7.45,0,0,1-3.47-.7A5.4,5.4,0,0,1,1.89,30.3a8.79,8.79,0,0,1,1.55-8.47c2.06-2.44,5.4-3.58,9.25-3.22A6.78,6.78,0,0,1,14.46,16a5.87,5.87,0,0,1,1.83-1.14c-2.39-5.71-4-10.08-2.21-11.07a1.36,1.36,0,0,1,1.2-.07c2.87,1.11,6.44,10.55,9.11,18.16A14.82,14.82,0,0,1,34.6,9.11a.12.12,0,0,1,.1,0,.09.09,0,0,1,.06.08c0,.11,2.34,10.53-9.32,15.68.64,1.84,1.19,3.44,1.61,4.51a3.14,3.14,0,0,0,2.09,2.17c3,.79,8-3.3,13.2-7.63l1.44-1.18c.83-.69,1.7-1.46,2.58-2.27C37.62,16.23,41.76,4,41.8,3.85a.14.14,0,0,1,.09-.08.11.11,0,0,1,.11,0C49.35,9.6,47.46,18,46.86,20c1.29-1.2,2.61-2.47,3.91-3.73,1.71-1.66,3.33-3.24,4.8-4.54C46.69,10.83,44.68,1.67,44.66,1.58a.11.11,0,0,1,0-.1.12.12,0,0,1,.1-.05h.6A10.43,10.43,0,0,1,53,4.13a11.27,11.27,0,0,1,3,7.27c2.09-1.82,3.83-3,5-3a1.11,1.11,0,0,1,.37.05,1.38,1.38,0,0,1,.93,1.12c.56,2.2-3.74,8-9.23,14.26a5.86,5.86,0,0,1,2.21,3,10.25,10.25,0,0,1,4.29-2.49.1.1,0,0,1,.1,0,.12.12,0,0,1,.05.1,5.86,5.86,0,0,1-.39,2.1,7.71,7.71,0,0,1,3.9,1c2.49,1.4,3.63,5.54,2.44,8.86-1.11,3.07-3.83,4.47-7.48,3.82a17.2,17.2,0,0,1-5.82,1.19A8.82,8.82,0,0,1,50,41.06c2.68,3.47,2.28,8.55,2.18,9.47a83.8,83.8,0,0,1,8.52-.72c0-1.23.42-11.48,14.43-13.88a.2.2,0,0,1,.11,0,.15.15,0,0,1,0,.11c0,.12-1.46,11.74-13,13.78,2.39.14,4,.71,4.22,2a1.47,1.47,0,0,1-.33,1.18A5.35,5.35,0,0,1,64,54.45,4.84,4.84,0,0,0,64.56,56,8.63,8.63,0,0,1,69,54a15.1,15.1,0,0,1,1.39-.78.14.14,0,0,1,.11,0,.11.11,0,0,1,.06.09,4.53,4.53,0,0,1,.07.62,10.62,10.62,0,0,1,2.2.3C76.17,55,78.78,59.55,78.35,63.76ZM48.11,10a12.61,12.61,0,0,0,4.48,2.57c-.93.87-1.88,1.8-2.81,2.7l-.88.85A17.23,17.23,0,0,0,48.11,10ZM62.18,41.45a15,15,0,0,0-2.83,7c-1.78.08-3.74.27-5.7.5a16.77,16.77,0,0,0-1.09-6.14,18.72,18.72,0,0,0,5.73-1.14,10.25,10.25,0,0,0,1.53.12A8.52,8.52,0,0,0,62.18,41.45Z"/></svg>