<svg id="圖層_1" data-name="圖層 1" xmlns="http://www.w3.org/2000/svg" viewBox="0 0 132.42 137.11"><defs><style>.cls-1{fill:#fff;}</style></defs><title>10</title><path class="cls-1" d="M130.71,99.59a3.7,3.7,0,0,0-1.32-.53c.71-3,1.06-7.28-1.94-8.88a5.05,5.05,0,0,0-2.38-.59,8,8,0,0,0-4.41,1.62,3.63,3.63,0,0,0-1-1.64,2.8,2.8,0,0,0-2-.76,3.65,3.65,0,0,0-.72.07,6.67,6.67,0,0,0-2.13,1c.19-.82.37-1.75.52-2.8.82-5.59-1.81-7.28-2.64-7.66A3.53,3.53,0,0,0,111.2,79a4,4,0,0,0-1.28.21,23.35,23.35,0,0,0-.8-2.93c-1.77-5-4.53-6.14-6.55-6.21h-.3c-4.4,0-6.62,3.44-7.58,5.58a7.2,7.2,0,0,0-2.21-.37,4.86,4.86,0,0,0-2.86.86c-2,1.39-2.79,4.19-2.46,8.53a4.42,4.42,0,0,0-1.7-.38,3,3,0,0,0-2,.73A5.36,5.36,0,0,0,82,87.84a25.2,25.2,0,0,0-1-2.4,18.72,18.72,0,0,0-1.21-2.19c1-2.23.85-4.32-.37-5.58a3.23,3.23,0,0,0-.58-.47,26.66,26.66,0,0,0,2.45-6.06l2.5.51.25,0a1.55,1.55,0,0,0,.84-.24l.12-.06c.28-.07,1.18-.18,1.73-.24a43.36,43.36,0,0,0,17-5c7.38-4.11,7-7.54,6.49-8.83l-.15-.32a35.21,35.21,0,0,0,6.22-3.57c4.25-3,5-6.41,3.85-8.31a3.46,3.46,0,0,0-.47-.6,25.84,25.84,0,0,0,5.4-9c1.81-5.36-.45-7.17-1.5-7.7a3.72,3.72,0,0,0-1.5-.4c.41-3.24.33-7.77-3-9.1a5.15,5.15,0,0,0-1.94-.37,7.94,7.94,0,0,0-5.07,2.28,3.77,3.77,0,0,0-1.21-1.69,2.89,2.89,0,0,0-1.73-.57,3.67,3.67,0,0,0-1.07.17,7.27,7.27,0,0,0-2.27,1.36c.12-.93.21-2,.26-3.2.22-5.89-2.69-7.35-3.58-7.66a3.76,3.76,0,0,0-1.24-.21,4.15,4.15,0,0,0-1.78.42C98.38,5.34,95.94,0,91.2,0a3.1,3.1,0,0,0-.43,0c-4.85.33-6.84,4.36-7.6,6.74a8.67,8.67,0,0,0-1.69-.18,5.26,5.26,0,0,0-3.57,1.24C76,9.5,75.48,12.54,76.35,17.1a5,5,0,0,0-1.52-.27,3.18,3.18,0,0,0-2.38,1,5.82,5.82,0,0,0-1.17,3.34c-.44-.92-.92-1.81-1.43-2.65-2.32-3.78-4.84-5.69-7.49-5.69a6.23,6.23,0,0,0-.77.05,5.69,5.69,0,0,0-3.68,2.28,9.33,9.33,0,0,0-5.25-3,4.92,4.92,0,0,0-.67,0,5.59,5.59,0,0,0-3.8,1.53c-3.72,3.31-3,9.46-2.42,12.49a6.61,6.61,0,0,0-3.52,2.13,5,5,0,0,0-.92,4.08C42,36.17,46,40.63,49.91,43.19a5.35,5.35,0,0,0-1,.86c-2-2.3-4.13-3.47-6.29-3.47a5.86,5.86,0,0,0-1.75.27c-4.6,1.43-5.61,5.76-5.8,8.24a5.84,5.84,0,0,0-4.83,2.23c-1.47,2-1.27,5.11.6,9.3l-.45,0a3.39,3.39,0,0,0-3.14,1.62,5.78,5.78,0,0,0-.38,3.47,26.17,26.17,0,0,0-2-2.21c-2.59-2.61-5-3.93-7.29-3.93a5.39,5.39,0,0,0-2,.37,5.69,5.69,0,0,0-3,3,9.85,9.85,0,0,0-5.05-1.7c-.23,0-.46,0-.68,0a5.57,5.57,0,0,0-4,2.47c-2.83,4-.78,9.82.51,12.61A6.51,6.51,0,0,0,.44,79.22a4.92,4.92,0,0,0,0,4.16C2,86.87,6.85,90.27,11.22,91.86a4.66,4.66,0,0,0-1.35,2.67c-.26,2.07,1,4.11,3.87,6.07,5.58,3.87,14.19,5,18.74,5.31a3.07,3.07,0,0,0,0,2.07c.87,2.57,5,3.72,13.49,3.72,1.39,0,2.9,0,4.52-.1a1.49,1.49,0,0,0,1-.47l.1-.07c.25-.14,1.06-.43,1.61-.63,1.13-.41,2.6-.94,4.29-1.68-.84,1.79-.3,4,1.61,6.68,3.78,5.23,11.12,9,15.14,10.73a3,3,0,0,0-.65,1.82c0,2.16,1.75,4.93,15.17,9.08a1.83,1.83,0,0,0,.4.05,1.58,1.58,0,0,0,.69-.16l.1,0c.27,0,1.09,0,1.64,0a41.11,41.11,0,0,0,16.51-3c7.44-3.15,7.42-6.47,7.06-7.76,0-.08,0-.16-.07-.24a33.6,33.6,0,0,0,6.15-2.72c3.06-1.69,5.77-4.78,4.51-7.54a3.18,3.18,0,0,0-.34-.57,24.65,24.65,0,0,0,6-7.93C133.65,102.18,131.67,100.2,130.71,99.59Zm-.63,6.92a23.38,23.38,0,0,1-7.26,8.79,1.55,1.55,0,0,1,1.64.89c.85,1.86-1.32,4.28-3.9,5.71a28.47,28.47,0,0,1-8.17,3.2,2.06,2.06,0,0,1,1.41,1.38c.2.72.33,3.29-6.25,6.08a39.85,39.85,0,0,1-16,2.89,11.76,11.76,0,0,0-2,.09l-.34.12,0,0h-.1C79.73,132.78,75,130.19,75,128c0-1.22,1.49-1.91,2.18-2.17-2-.75-12.33-4.86-16.93-11.23-1.61-2.23-2.1-4-1.45-5.31.8-1.58,3-2,4-2.06a14.06,14.06,0,0,1-2.3-1.57,50.15,50.15,0,0,1-7.8,3.44,12.42,12.42,0,0,0-1.94.79l-.3.23a0,0,0,0,1,0,0,.13.13,0,0,1-.09,0c-1.59.06-3.08.09-4.45.09-7.44,0-11.53-.92-12.15-2.76-.41-1.21.82-2.41,1.4-2.9-2.18,0-13.86-.49-20.63-5.18-2.36-1.64-3.46-3.23-3.27-4.74.23-1.84,2.33-3,3.26-3.42-4.4-.65-11.08-4.6-12.76-8.47a3.52,3.52,0,0,1-.06-3c.81-1.73,3-2.56,3.57-2.76C4.7,76,1,68.88,4,64.56a4.17,4.17,0,0,1,3-1.87c2.72-.31,5.63,2,6.41,2.62a4.75,4.75,0,0,1,2.73-4.07c1.48-.59,4-.51,7.73,3.24a29.75,29.75,0,0,1,6,9,6.72,6.72,0,0,1,.88.11c-.59-1.4-3.46-8.53-2.26-10.62,1-1.7,4-.59,5-.14-2.82-5.09-3.53-8.67-2.12-10.65s4.35-1.66,5.07-1.56c-.05-1-.11-6.84,4.83-8.38,3.26-1,6.1,1.93,7.89,4.52a2.5,2.5,0,0,1,.15-.72c.66-1.76,3-2.41,4-2.61-4.18-1.65-9.82-7.08-10.56-11.26a3.53,3.53,0,0,1,.63-3c1.19-1.51,3.51-1.82,4.14-1.88-.33-1.18-2.34-9,1.63-12.56a4.18,4.18,0,0,1,3.36-1.15c2.75.34,5.08,3.24,5.69,4.06a4.79,4.79,0,0,1,3.62-3.36c1.59-.24,4.06.43,6.84,5a30.33,30.33,0,0,1,3.77,10.17,6,6,0,0,1,.83.31c-.24-1.5-1.41-9.17.25-10.94,1.34-1.44,4.06.35,5,1-1.58-5.65-1.46-9.33.39-10.94s4.65-.62,5.33-.36c.19-1,1.47-6.74,6.68-7.1s7.42,8.16,7.8,9.84A3.06,3.06,0,0,1,102,9.93c1.36.47,2.77,2.36,2.62,6.27-.16,4.39-1,6.63-1.43,7.6a3.72,3.72,0,0,1,.88-.42,11.16,11.16,0,0,1,4.41-3.94,1.58,1.58,0,0,1,1.52.19c1,.75,1.16,2.74,1.18,3.59.87-1.15,4.08-4.94,7.36-3.63s2.13,7.9,1.73,9.7a2.57,2.57,0,0,1,2.64-.26c.72.37,2.25,1.68.79,6a24.7,24.7,0,0,1-6.64,10.06,1.62,1.62,0,0,1,1.84.74c.83,1.4-.09,4-3.44,6.42a29.84,29.84,0,0,1-8.24,4.28,2.18,2.18,0,0,1,1.66,1.29c.29.73.72,3.41-5.86,7.08a42.11,42.11,0,0,1-16.42,4.83,13.3,13.3,0,0,0-2.09.33l-.35.16s0,0,0,0a.09.09,0,0,1-.07,0h0c-1.35-.26-2.61-.53-3.79-.8a25,25,0,0,1-3.76,8.91,1.6,1.6,0,0,1,1.93.3c.84.86.89,2.61-.24,4.71a16.7,16.7,0,0,1,1.56,2.68,28.69,28.69,0,0,1,2.52,10,6.28,6.28,0,0,1,.74.37c-.08-1.47-.4-8.78,1.35-10.28,1.4-1.22,3.77.72,4.57,1.46-.91-5.47-.42-8.92,1.48-10.26s4.44-.12,5.07.21c.28-1,2-6,6.77-6h.25c2.26.09,4.08,1.91,5.26,5.27a23.91,23.91,0,0,1,1.09,4.79,2.91,2.91,0,0,1,3.3-.91c1.24.58,2.38,2.51,1.84,6.18-.6,4.09-1.56,6.12-2.11,7a3.33,3.33,0,0,1,.85-.3,10.51,10.51,0,0,1,4.56-3.26,1.51,1.51,0,0,1,1.42.33c.86.8.82,2.68.75,3.49,1-1,4.36-4.23,7.3-2.66s1.22,7.63.66,9.32a2.39,2.39,0,0,1,2.5,0C130.59,101.19,131.9,102.59,130.08,106.51Z"/><path class="cls-1" d="M58.27,61a3.34,3.34,0,0,1,.76-.62,17,17,0,0,1,1.43-2.71c-.68-.32-1.37-.67-2.06-1A14.1,14.1,0,0,1,58.27,61Z"/></svg>