<svg id="圖層_1" data-name="圖層 1" xmlns="http://www.w3.org/2000/svg" viewBox="0 0 192.81 166.55"><defs><style>.cls-1{fill:#fff;}</style></defs><title>0</title><path class="cls-1" d="M93,119.58a1.54,1.54,0,0,1,.68-.33l.26,0H94l-.06-1a12.44,12.44,0,0,1-1.45.55C92.63,119.07,92.8,119.33,93,119.58Z"/><path class="cls-1" d="M161.17,85.59a10.36,10.36,0,0,0,4-.8,10.8,10.8,0,0,0,6.55-9c.08-.89.13-1.81.18-2.71.36-6.12.66-11.4,7.64-12.83a11.64,11.64,0,0,0,9-7.61c1.32-3.52,1.16-7.69-.37-9.7a7.24,7.24,0,0,1-.63-8,28.26,28.26,0,0,0,2.68-8.6c.52-4.29-.5-7.64-3-9.94-2.91-2.65-7.39-4.17-12.29-4.17a22.72,22.72,0,0,0-12.86,3.95c-3.4,2.36-7.9,2.84-12.25,3.3l-1.07.11A32.37,32.37,0,0,1,138.24,9a12,12,0,0,0-8.84-5.49,10.48,10.48,0,0,0-1.25-.07,11.94,11.94,0,0,0-8.3,3.27c-3.15,3.12-5.51,6.64-2.46,18,1.47,5.5.12,7.69-1.58,10.45a14.64,14.64,0,0,0-2.76,9.11,18.71,18.71,0,0,0,3.17,9.37,13.33,13.33,0,0,0-2.14,7.94,13.67,13.67,0,0,0,4,9.15c2.84,2.74,6.92,4.13,12.12,4.13.47,0,1,0,1.45,0,1,0,2-.07,2.84-.07a34.67,34.67,0,0,1,3.69.18A19.91,19.91,0,0,0,137,81.16c0,4.14,2.15,4.67,2.78,4.74H140c1.22,0,2.71-.92,3.24-3.52l.24-1.24a14.5,14.5,0,0,1,1.26-4.36,38.56,38.56,0,0,1,7.82,5.37A13.53,13.53,0,0,0,161.17,85.59ZM144.24,75c-1.34,1.65-1.75,3.71-2.15,5.88-.07.4-.15.81-.23,1.22-.34,1.66-1.16,2.38-1.85,2.38h-.1c-.74-.07-1.53-1-1.53-3.33a21.17,21.17,0,0,1,1.75-7.34,37.41,37.41,0,0,0-8.54-.37c-5.5.25-9.71-1-12.53-3.7a12.22,12.22,0,0,1-3.57-8.13A11.83,11.83,0,0,1,118,53.7a17.74,17.74,0,0,1-3.48-9.45c-.16-3.91,1.22-6.15,2.55-8.31,1.73-2.81,3.36-5.46,1.74-11.56-2.86-10.68-.84-13.76,2.09-16.67a10.61,10.61,0,0,1,16.2,2.07c3.88,5.91,7.88,9.3,11.4,11.25l1.51-.16c4.54-.48,9.22-1,12.92-3.54,7.9-5.49,18.47-4.39,23.39.09,2.17,2,3,4.92,2.57,8.73a26.86,26.86,0,0,1-2.54,8.15,8.67,8.67,0,0,0,.77,9.53c1.07,1.39,1.44,5,.18,8.35a10.31,10.31,0,0,1-8,6.71c-8.05,1.65-8.42,8-8.77,14.14-.05.88-.1,1.79-.18,2.66a9.4,9.4,0,0,1-5.68,7.79,8.84,8.84,0,0,1-3.47.69,12.1,12.1,0,0,1-7.69-3.1A36.25,36.25,0,0,0,144.24,75Z"/><path class="cls-1" d="M95.58,125.79a4.9,4.9,0,0,1-.57,1.47c.14.43.28.87.41,1.32.25-.75.51-1.48.81-2.19-.09-.55-.18-1.11-.26-1.66A3.93,3.93,0,0,0,95.58,125.79Z"/><path class="cls-1" d="M97.25,147.91c.13.06.26.11.38.18l.13.1c-.16-.19-.31-.39-.46-.58C97.28,147.71,97.26,147.81,97.25,147.91Z"/><path class="cls-1" d="M140.85,127.05a1.42,1.42,0,0,0-1.87-.66,12.3,12.3,0,0,1-4,1c-.1-.76-.23-1.52-.39-2.27s-.42-1.75-.7-2.66c0-.77,0-1.48,0-2.11,0-1.55,0-3,.08-4.28.48-.25.74-.43.75-.43a1.41,1.41,0,0,0,.39-2l-.14-.21a1.45,1.45,0,0,0-.83-.59c.06-.76.12-1.49.2-2.19a45.31,45.31,0,0,1,1.32-7c.25-1,.62-2,1-3.09,1.21-3.59,2.35-7,1.06-9.16a3.48,3.48,0,0,0-2.49-1.64,4,4,0,0,0-.75-.07c-2.28,0-3.38,1.83-4.54,3.77a25.45,25.45,0,0,1-4.51,5.87,26,26,0,0,1-3.55,2.81c-.71.47-1.58,1-2.61,1.56-1-.66-2-1.32-3.06-2,2.89-.92,3.54-2.38,3.69-2.88a1.43,1.43,0,0,0-1-1.75l-.24-.07a1.74,1.74,0,0,0-.39,0,1.4,1.4,0,0,0-1.3.86c-.09.12-.83,1-3.8,1.4-.35,0-.68.09-1,.15l-1.92-1.07c-1.75-1-3.27-1.8-4.42-2.57a25.94,25.94,0,0,1-3.55-2.8,26.26,26.26,0,0,1-4.51-5.87c-1.16-1.94-2.26-3.77-4.53-3.77a4.93,4.93,0,0,0-.75.06A3.49,3.49,0,0,0,90,85c-1.3,2.18-.16,5.57,1.06,9.18.37,1.1.72,2.14,1,3.08a45.28,45.28,0,0,1,1.31,7,92.51,92.51,0,0,1,.45,9.66c0,.44,0,1,0,1.51l-.06,0a1.56,1.56,0,0,0-.48-.08,1.38,1.38,0,0,0-.6.13,9.61,9.61,0,0,1-2.14.68,67.26,67.26,0,0,0-10.7-10.29c-1.81-1.47-3.52-2.87-4.93-4.25a15.37,15.37,0,0,1-1.72-2,20.19,20.19,0,0,1-3.36-8.28c-.51-2.37-1-4.61-3.26-4.9l-.35,0c-2.75,0-3.42,3.37-4.54,9-.18.89-.37,1.84-.58,2.86-.28,1.35-.56,2.61-.86,3.82a7,7,0,0,0-2.52,2.44,7.59,7.59,0,0,1-3.09,2.55,1.41,1.41,0,0,0-.78,1.83l.09.23a1.41,1.41,0,0,0,1.32.9,1.37,1.37,0,0,0,.52-.1,10.6,10.6,0,0,0,2.77-1.73c-.11.33-.21.66-.32,1-3.87,11.65-3.51,21.87,1.12,32.11-.55,1.37-.73,1.68-1.94,2a1.41,1.41,0,0,0-1,1.73l.06.24a1.43,1.43,0,0,0,1.38,1.06,1.1,1.1,0,0,0,.35-.05A5.19,5.19,0,0,0,61,144.63a31.2,31.2,0,0,0,11.2,11.28,1.57,1.57,0,0,0-.18.42,1.46,1.46,0,0,0,.18,1.08l.13.21a1.42,1.42,0,0,0,1.2.67,1.44,1.44,0,0,0,.75-.21,7.1,7.1,0,0,0,.8-.57c4.45,2.24,9.15,3.55,12.77,3.55a10.62,10.62,0,0,0,2.65-.3c2.52-.67,5.87-2.77,7.49-9,.08-.3.15-.62.22-.94A4.81,4.81,0,0,0,99.72,152a20.28,20.28,0,0,0,6.06,3.12A25.77,25.77,0,0,0,113,156.2,16.36,16.36,0,0,0,123,153a22.1,22.1,0,0,0,6.69-8.93l0-.05a17,17,0,0,0,4.56-7.37,1.24,1.24,0,0,0,.27,0,1.42,1.42,0,0,0,1.37-1.07l.07-.24a1.45,1.45,0,0,0-.95-1.7l-.09,0a22.26,22.26,0,0,0,.2-3.2,14.9,14.9,0,0,0,5.15-1.28,1.37,1.37,0,0,0,.72-.81,1.4,1.4,0,0,0-.07-1.08Zm-46.93-8.78.06,1h-.09l-.26,0a1.54,1.54,0,0,0-.68.33c-.15-.25-.32-.51-.48-.76A12.44,12.44,0,0,0,93.92,118.27Zm40.38,10.79-.62,0a20.67,20.67,0,0,1-.25,5.23,3.12,3.12,0,0,0,1.19.78l-.06.24a3.25,3.25,0,0,1-1.19-.72,15.76,15.76,0,0,1-4.62,8.46l-.25.23a20.86,20.86,0,0,1-6.36,8.63,14.9,14.9,0,0,1-9.14,2.9,24.27,24.27,0,0,1-6.81-1.07,18.67,18.67,0,0,1-5.77-3,4.1,4.1,0,0,1-1.51-1.17,7.26,7.26,0,0,0-1.42-1.24c-.08-.05-.18-.08-.27-.13a27.24,27.24,0,0,1-.6,3.27c-1.15,4.38-3.39,7.13-6.48,7.95a9.19,9.19,0,0,1-2.29.26c-3.41,0-8.29-1.33-13-3.88a5,5,0,0,1-1.28,1.1l-.13-.21a4.93,4.93,0,0,0,1.19-1,30.66,30.66,0,0,1-12.42-11.84c-.41-.75-.79-1.51-1.15-2.27l0,.12c-.67,1.67-1.08,2.67-3.16,3.21l-.06-.24c2-.51,2.32-1.41,3-3.06l.13-.34c-4.7-10.05-5.11-20.18-1.32-31.62.74-2.23,1.33-4.35,1.82-6.27a5.1,5.1,0,0,0-2.27,2.05,9,9,0,0,1-3.86,3.19l-.1-.23a8.93,8.93,0,0,0,3.75-3.09,5.13,5.13,0,0,1,2.55-2.2c.41-1.68.75-3.22,1-4.54.21-1,.4-2,.58-2.88,1-5,1.62-8,3.32-7.8,1.27.17,1.6,1.7,2.06,3.81a21.36,21.36,0,0,0,3.6,8.82,16.48,16.48,0,0,0,1.87,2.13c1.46,1.42,3.19,2.84,5,4.34a62.66,62.66,0,0,1,11,10.72,12.14,12.14,0,0,0,3.34-.93l.1.22a12.1,12.1,0,0,1-3.27.94,33.84,33.84,0,0,1,4.79,9,4.71,4.71,0,0,0,.45-1.21,4.23,4.23,0,0,1,.58-1.41q-.18-1.29-.3-2.52a12.81,12.81,0,0,1-1.87-.94l.14-.21a12.68,12.68,0,0,0,1.7.87c-.29-3-.38-5.68-.38-7.6a92.77,92.77,0,0,0-.46-9.82,46.59,46.59,0,0,0-1.35-7.2c-.27-1-.62-2-1-3.17-1.06-3.14-2.15-6.38-1.19-8a2.08,2.08,0,0,1,1.52-1c1.82-.31,2.62,1,3.83,3a25.51,25.51,0,0,0,8.49,9.12c1.2.8,2.74,1.65,4.52,2.64l2.35,1.3c.42-.08.89-.16,1.42-.23,4.36-.59,4.91-2.23,4.91-2.25l.24.07c0,.08-.57,1.81-5.11,2.43-.42,0-.78.11-1.12.18a72.83,72.83,0,0,1,6.88,4.34c1.34-.75,2.53-1.42,3.49-2.06a28,28,0,0,0,3.74-3,27.15,27.15,0,0,0,4.75-6.17c1.21-2,2-3.35,3.82-3a2.08,2.08,0,0,1,1.52,1c1,1.62-.13,4.86-1.18,8-.38,1.13-.74,2.19-1,3.17a46.74,46.74,0,0,0-1.36,7.21c-.15,1.32-.25,2.75-.33,4.36a11.47,11.47,0,0,0,1.19-.65l.14.21a10.61,10.61,0,0,1-1.34.72c-.07,1.55-.11,3.25-.11,5.17,0,.68,0,1.46,0,2.3.28.89.53,1.81.73,2.76a28.31,28.31,0,0,1,.5,3.4,13.52,13.52,0,0,0,5.92-1.12l.11.23A13.8,13.8,0,0,1,134.3,129.06Z"/><path class="cls-1" d="M188.36,133.45h.32a4.31,4.31,0,0,0,1.78-.35,1.45,1.45,0,0,0,.74-.8,1.42,1.42,0,0,0,0-1.09L191,131a1.42,1.42,0,0,0-.79-.75,1.61,1.61,0,0,0-.48-.08,1.38,1.38,0,0,0-.59.14,1.37,1.37,0,0,1-.49.08,2.76,2.76,0,0,1-1.67-.66,5.74,5.74,0,0,0-1.27-.75,81.61,81.61,0,0,0-6-8.2,89.31,89.31,0,0,1-5.84-7.71,44.25,44.25,0,0,1-3.47-6.21c-.4-.88-.8-1.9-1.22-3-1.38-3.54-2.67-6.88-5.07-7.73a3.39,3.39,0,0,0-1.1-.19,3.67,3.67,0,0,0-1.85.53c-2.44,1.4-2.06,3.86-1.69,6.24a25.57,25.57,0,0,1,.29,7.38,26.14,26.14,0,0,1-.93,4.43c-.4,1.33-1,2.94-1.76,4.81-.25.66-.52,1.34-.79,2l-.85.51a7.13,7.13,0,0,1-3.52,1.38,1.07,1.07,0,0,1-.3,0,1.31,1.31,0,0,0-.63-.16,1.43,1.43,0,0,0-1.18.63l-.13.2a1.42,1.42,0,0,0,.36,2,3.37,3.37,0,0,0,1.88.48,7.53,7.53,0,0,0,2.79-.62c-1.86,5.56-3.28,11.86-2.55,18.56a13.31,13.31,0,0,1-3.13.91,1.43,1.43,0,0,0-1.25,1.56l0,.25a1.39,1.39,0,0,0,.53.95,1.41,1.41,0,0,0,.88.31h.17a14.79,14.79,0,0,0,3.27-.85,31,31,0,0,0,2.9,8c.36.68.75,1.35,1.16,2a12.24,12.24,0,0,1-3.73,1.84,1.42,1.42,0,0,0-1,1.72l.06.24a1.42,1.42,0,0,0,1.37,1.07,1.24,1.24,0,0,0,.33,0,14.87,14.87,0,0,0,4.78-2.32,18,18,0,0,0,12.88,7c.44,0,.87.05,1.29.05a19.79,19.79,0,0,0,7.68-1.53c6.58-2.83,10.58-7.07,11.91-12.58S192.3,140.91,188.36,133.45ZM191,152.53c-1.22,5.05-4.95,9-11.09,11.61a18.51,18.51,0,0,1-7.12,1.41c-.39,0-.79,0-1.19,0-6-.42-10.1-3.9-12.74-7.59a13.68,13.68,0,0,1-5.35,3l-.06-.24a13.37,13.37,0,0,0,5.26-2.93,27.67,27.67,0,0,1-1.78-2.93,29.48,29.48,0,0,1-3.09-9.39,14.82,14.82,0,0,1-4.51,1.46l0-.24a14.84,14.84,0,0,0,4.5-1.47c-1.18-8.36,1.27-16.23,3.6-22.43l-1,.58a8.71,8.71,0,0,1-4.41,1.64,2,2,0,0,1-1.07-.23l.07-.1.07-.11s1.48.92,5.21-1.41c.45-.29.86-.53,1.23-.73.33-.87.66-1.71,1-2.51.75-1.9,1.39-3.54,1.8-4.92a28,28,0,0,0,1-4.67,27.1,27.1,0,0,0-.3-7.78c-.37-2.33-.6-3.86,1-4.78a2.11,2.11,0,0,1,1.79-.23c1.77.63,3,3.82,4.2,6.9.43,1.11.84,2.16,1.27,3.08a46.49,46.49,0,0,0,3.57,6.4,91.57,91.57,0,0,0,5.93,7.83,79.51,79.51,0,0,1,6.12,8.45,4.35,4.35,0,0,1,1.34.71,3.57,3.57,0,0,0,3.61.76l.11.22a2.88,2.88,0,0,1-1.19.23,4.31,4.31,0,0,1-2.68-1,3.83,3.83,0,0,0-1-.55C189.05,137,192.67,145.36,191,152.53Z"/><path class="cls-1" d="M58.13,69.9c-.16,3.12-.17,6,1.32,7.41a2.74,2.74,0,0,0,1.89.74l.39,0A3.45,3.45,0,0,0,64,76.87a8.79,8.79,0,0,0,6.06,2.18c6.23,0,9.91-3,12.6-5.6.09.54.15,1.12.21,1.75.38,4.59,2.35,5.55,3.5,5.71a2.69,2.69,0,0,0,.4,0,3.31,3.31,0,0,0,3-2.27c.7-1.82.13-5.66-.72-8.54l1.09,0c3.56-.06,8.43-.13,12.16-4.45a15.87,15.87,0,0,0,3.89-11.18,23.59,23.59,0,0,0-2.56-9.72c-.86-1.71-.84-4-.81-6.48,0-3.83.07-8.16-3-12-2.2-2.7-5-3.58-7.66-4.43C88.43,20.7,84.9,19.58,82,13.64,78.75,6.92,74.3,3.58,71.14,2a16.89,16.89,0,0,0-7.61-2,11,11,0,0,0-3.89.66c-5.72,2.12-8.15,6.84-7.41,14.41.07.74.2,2.31.25,4.25a11.63,11.63,0,0,1-2.32-3.48A12,12,0,0,0,46,10.63,12.72,12.72,0,0,0,38.69,8.3c-4.07,0-8.48,1.88-12.64,3.91a10.58,10.58,0,0,1-4.75.87c-1.19,0-2.42-.09-3.75-.18s-2.64-.19-4-.19C9,12.71,3.37,13.82.72,22.52-1.06,28.35.56,35.26,4.58,38.94a17.5,17.5,0,0,0,7.23,3.56c3.41,1,5.67,1.71,6.35,5.48C19.29,54.24,22,55.16,26,56.56a44.36,44.36,0,0,1,6.25,2.56C36,61,36.32,63.78,36.66,67c.33,3,.69,6.44,4.5,8.48a8.5,8.5,0,0,0,4,1.1c3.42,0,6-2.41,8.52-4.74a28.4,28.4,0,0,1,4.35-3.55A8.73,8.73,0,0,1,58.13,69.9Zm-5.39.86c-2.39,2.23-4.68,4.36-7.55,4.36a7,7,0,0,1-3.36-.93c-3.15-1.69-3.45-4.45-3.76-7.38-.35-3.29-.72-6.68-5.15-9a44.92,44.92,0,0,0-6.43-2.64c-4-1.37-5.95-2-6.94-7.5-.83-4.62-3.84-5.52-7.33-6.58-2.29-.69-4.66-1.4-6.68-3.25-3.64-3.33-5.1-9.62-3.47-15,2.9-9.51,9.25-9,15.39-8.62,3.37.24,6.55.47,9.21-.83,7.95-3.87,13.26-5.28,18.56-1.67a10.61,10.61,0,0,1,3.67,4.67,11.22,11.22,0,0,0,5,5.62,60.46,60.46,0,0,0-.26-7.16C53,8,55,3.88,60.13,2,63,.91,66.89,1.38,70.49,3.22c3,1.52,7.15,4.67,10.25,11s7.14,7.75,11,9c2.6.83,5.06,1.6,7,4,2.77,3.41,2.74,7.29,2.71,11,0,2.63,0,5.12,1,7.14a22.32,22.32,0,0,1,2.42,9.12,14.54,14.54,0,0,1-3.55,10.21c-3.32,3.84-7.64,3.9-11.11,4-1.09,0-2.1,0-3,.15,1.17,2.87,2,7.7,1.34,9.32a1.9,1.9,0,0,1-1.69,1.36h-.2c-.59-.09-2-.68-2.29-4.43a19,19,0,0,0-.8-4.37c-.35.32-.71.66-1.07,1-2.73,2.63-6.11,5.9-12.35,5.9a7.35,7.35,0,0,1-5.68-2.38,7.66,7.66,0,0,1-1-1.33,3.11,3.11,0,0,1-.4,1.93,2,2,0,0,1-1.48.77h-.21a1.36,1.36,0,0,1-.93-.35c-1-1-1-3.77-.87-6.31a10.27,10.27,0,0,0-.5-3.79,12.25,12.25,0,0,0-1.42.69A27.25,27.25,0,0,0,52.74,70.76Z"/></svg>