<svg id="圖層_1" data-name="圖層 1" xmlns="http://www.w3.org/2000/svg" viewBox="0 0 138.33 96.41"><defs><style>.cls-1{fill:#fff;}</style></defs><title>0</title><path class="cls-1" d="M44.47,34.2l.58-.5q-.34-.15-.75-.36a3.58,3.58,0,0,1-.39-.21l0,0C44.1,33.47,44.29,33.82,44.47,34.2Z"/><path class="cls-1" d="M47.52,39.5l.6.18a4.6,4.6,0,0,1-.19-.56Z"/><path class="cls-1" d="M39,39.91l-.72-.24a4,4,0,0,1,.47.56Z"/><path class="cls-1" d="M105.11,42.5a5.32,5.32,0,0,1,1.67.89l.47-.29c-.11-.19-.21-.39-.31-.61a8.31,8.31,0,0,1-.35-.87,6.27,6.27,0,0,1-1.14.1,6.63,6.63,0,0,1-1.77-.24A2.92,2.92,0,0,0,105.11,42.5Z"/><path class="cls-1" d="M82,38.38l-.41,0-.34,0c.34.2.7.43,1.08.68A4.91,4.91,0,0,1,82,38.38Z"/><path class="cls-1" d="M56.79,12l0,.06.15-.16a5.25,5.25,0,0,1,.65-.6,5.86,5.86,0,0,1,.12-.63c-.05.13-.08.27-.14.39A2.77,2.77,0,0,1,56.79,12Z"/><path class="cls-1" d="M99.5,38.83l-.15.34.45,0C99.7,39.07,99.59,39,99.5,38.83Z"/><path class="cls-1" d="M90.39,44.35c.07-.21.14-.42.22-.62-.21,0-.44,0-.68,0h0c0,.12,0,.23,0,.35A2.51,2.51,0,0,1,90.39,44.35Z"/><path class="cls-1" d="M93.91,35.53l-.06,0c-.13.27-.28.54-.42.8l.07.08Z"/><path class="cls-1" d="M31.16,32.36c0-.16,0-.32.05-.47a5.7,5.7,0,0,1-.73.31,4.37,4.37,0,0,0,.49.12Z"/><path class="cls-1" d="M43.91,58.35l-.38-.4q0,1.08-.12,2.22c.24-.53.48-1.06.73-1.57Z"/><path class="cls-1" d="M116.67,37.78l1.73-.9A4.74,4.74,0,0,0,117,35.47a5.57,5.57,0,0,1-1-.9A11.3,11.3,0,0,1,116.67,37.78Z"/><path class="cls-1" d="M84.48,14.33c.11-.19.22-.4.32-.62l-.41.36Z"/><path class="cls-1" d="M29.71,21.34c.32,0,.63-.06.93-.06a3,3,0,0,1,1.81.52l.1.07c0-.38.05-.75.08-1.11l-.06,0a3,3,0,0,0-.45-.24l-.34.05a11.11,11.11,0,0,1-1.55.13,5.66,5.66,0,0,1-1.36-.15,3.39,3.39,0,0,1,.47.86Z"/><path class="cls-1" d="M52.13,12.68A4.62,4.62,0,0,1,52.2,12H52a2.25,2.25,0,0,1-.62-.08,2.56,2.56,0,0,1-1.55-1.46,4.65,4.65,0,0,1-.17-4,2.48,2.48,0,0,1,1.71-1.39c1.29-.26,3.15.1,4.71,3.32a2.22,2.22,0,0,1,.22,2,1.43,1.43,0,0,1-.35.42,6.07,6.07,0,0,1,.8,1.17,2.77,2.77,0,0,0,.81-.94c.06-.12.09-.26.14-.39a3.17,3.17,0,0,1,.12-.44,4.13,4.13,0,0,0-.47-2.44c-1.67-3.46-3.81-4.19-5.31-4.19a5,5,0,0,0-.95.1,3.86,3.86,0,0,0-2.69,2.15,6,6,0,0,0,.16,5.23A4.16,4.16,0,0,0,50,12.81a4.64,4.64,0,0,1,1.3-.18A8.08,8.08,0,0,1,52.13,12.68Z"/><path class="cls-1" d="M70.18,41.6c.87-1.59,1.74-3,2.95-3.34a2.4,2.4,0,0,1,1.94.46,5.9,5.9,0,0,1,1.27,1.12,3.59,3.59,0,0,1,.64-.59,2.26,2.26,0,0,1,2-.36A28.9,28.9,0,0,1,84.05,42c-.14-1.12-.24-2.22-.3-3.28a3.88,3.88,0,0,1-.65-2,7.17,7.17,0,0,1-1.62.31h-.39c-2.25,0-3-1.49-3.67-2.81-.47-.93-.87-1.73-1.71-1.94a2.78,2.78,0,0,1-.51-.17,3.33,3.33,0,0,1-1.14,1.28,11.28,11.28,0,0,1-3,1.08c.26,1.9-.8,4.52-1.19,5.48a4.55,4.55,0,0,0-.2,1.2,4.58,4.58,0,0,1-.33,1.61l.26.06C69.74,42.44,69.94,42.05,70.18,41.6Zm11.4-3.18.41,0a4.91,4.91,0,0,0,.33.74c-.38-.25-.74-.48-1.08-.68Zm-9.11-2.87a10.81,10.81,0,0,0,2.31-.95,4,4,0,0,0,.86-.69,9,9,0,0,1,.51.93A7.48,7.48,0,0,0,78,37.39a4,4,0,0,0-1.57.55l-.55-.4a4.12,4.12,0,0,0-2.27-.75,3.57,3.57,0,0,0-.8.09,4.72,4.72,0,0,0-.53.18A9.79,9.79,0,0,0,72.47,35.55Z"/><path class="cls-1" d="M95.49,45.63l-.25-.16c-.45,1.16-.85,2.29-1.19,3.38l.29-.14a3.83,3.83,0,0,1,3.78.16,7,7,0,0,1,1.41,1.53c.5-.42,1-.82,1.47-1.19l.63-.48a6.23,6.23,0,0,1-4.19-1.6A11.83,11.83,0,0,0,95.49,45.63Z"/><path class="cls-1" d="M100.21,40.67a3.47,3.47,0,0,1,2.17,1.48,4.7,4.7,0,0,0,2.29,1.7,3.15,3.15,0,0,1,1.86,1.4c1-.63,1.91-1.24,2.85-1.81a3.84,3.84,0,0,1-1.15-1.54,7.85,7.85,0,0,1-.62-2,6.31,6.31,0,0,1-2.16.4A5.36,5.36,0,0,1,103.6,40c-2.41-.88-3.76-2.42-4-4.58-.4.78-.78,1.55-1.1,2.3l-.1.24c-.45,1-.87,2-1.28,3A7,7,0,0,1,100.21,40.67Zm5.24,1a6.27,6.27,0,0,0,1.14-.1,8.31,8.31,0,0,0,.35.87c.1.22.2.42.31.61l-.47.29a5.32,5.32,0,0,0-1.67-.89,2.92,2.92,0,0,1-1.43-1A6.63,6.63,0,0,0,105.45,41.72Zm-6-2.89c.09.13.2.24.3.36l-.45,0Z"/><path class="cls-1" d="M105.79,31.25l.64.66A7,7,0,0,0,108,33.28a5.79,5.79,0,0,1,.92-3.2c-.19,0-.37,0-.56,0a4.06,4.06,0,0,1-4.11-2.85c-.5.87-1,1.79-1.64,2.77l-.83,1.39.44-.19C103.71,30.64,105.17,30.65,105.79,31.25Z"/><path class="cls-1" d="M131.66,26a5.18,5.18,0,0,0-.66,0c-2.63,0-3.44,2.15-4.16,4.05l-.09.24a4.67,4.67,0,0,0-.21-.71,4.14,4.14,0,0,1,0-1.29,4.82,4.82,0,0,0-1.08-4.18,2.7,2.7,0,0,0-2-.84c-1.5,0-2.9,1.15-4.4,2.39A21.89,21.89,0,0,1,117.31,27a5.3,5.3,0,0,0-2.46,4.23,5.6,5.6,0,0,0-.79-1.36,3.52,3.52,0,0,0,.81-1A5.33,5.33,0,0,0,115,24.7c-.32-1.1-1.31-2.92-4.38-3.08,2.22-1.33,3.14-3.82,2.79-7.57a4.11,4.11,0,0,0-1.74-3.38,3.59,3.59,0,0,0-1.9-.5,9.74,9.74,0,0,0-3.39.82l-.5.19c-2.6,1-3.13,1.75-3.34,4.64a3.27,3.27,0,0,0-3-1.84,9.15,9.15,0,0,0-2.43.45l-.22.06c-1.93.54-2.1,2.12-2.23,3.3a14.05,14.05,0,0,1-.29,1.8,6.18,6.18,0,0,0,.75,4.77A5.84,5.84,0,0,0,96.68,26l-.74-.11c-.19,0-.45-.05-.59-.08a6.74,6.74,0,0,1-.32-1c-.31-1.06-.7-2.39-1.86-2.94a2.24,2.24,0,0,0-1-.22h-.12a6,6,0,0,0,.27-4.54A5.84,5.84,0,0,1,92.07,15a4.88,4.88,0,0,0-.87-3.4,3.41,3.41,0,0,0-2.58-1.25,4,4,0,0,0-.49,0,3.51,3.51,0,0,0-1.81.91,5.61,5.61,0,0,0,.3-1.53c.11-2-1.3-3.21-2.33-4.06a4.7,4.7,0,0,1-1.45-1.57,3.5,3.5,0,0,0-3.28-2.25,5.51,5.51,0,0,0-3.26,1.2A3.15,3.15,0,0,0,75.13.66,3.4,3.4,0,0,0,73,0a9.88,9.88,0,0,0-2.83.53,6.07,6.07,0,0,0-4.4,7.2,8.8,8.8,0,0,0,1.31,3.16l-.57-.46c-1.68-1.37-3-2.44-4.56-2.71a3.67,3.67,0,0,0-.66,0,3.42,3.42,0,0,0-2.09.68,3.72,3.72,0,0,0-1.32,1.91c0,.16-.08.3-.12.44a5.86,5.86,0,0,0-.12.63,5.25,5.25,0,0,0-.65.6l-.15.16,0-.06a4.24,4.24,0,0,1-1.28.63,15.48,15.48,0,0,1,.94,2.18A21.24,21.24,0,0,1,58,12.89a3.44,3.44,0,0,1,1-.76,3.11,3.11,0,0,1,0-.61,2.83,2.83,0,0,1,1-2,2.12,2.12,0,0,1,1.66-.36c1.19.2,2.33,1.13,3.91,2.41l.62.5a7,7,0,0,1,1.3,1.33,6.16,6.16,0,0,1,1.36-2.45,7.18,7.18,0,0,1-1.74-3.46,4.66,4.66,0,0,1,3.43-5.57c1.28-.39,2.85-.76,3.69-.1a2,2,0,0,1,.63,1.84,5.8,5.8,0,0,0,.79,2.94,3.38,3.38,0,0,1,.51,2.53,5.58,5.58,0,0,1-3.31,3.28,3.24,3.24,0,0,1-2.14-.09,30.51,30.51,0,0,1-1,6.66c-.46,2.1-1,4.5-1.43,7.18A4.52,4.52,0,0,1,70,24.69c2.51-1.12,4.28-.67,5.44,1.38a1.47,1.47,0,0,1,.1.22,2.87,2.87,0,0,1,2.18.85,3.67,3.67,0,0,0,2.31,1c.52.1,1.1.22,1.8.42a4.74,4.74,0,0,1,.94.39c-.3-1.79-.64-3.56-1-5.27a2,2,0,0,1-.67.11H81a6.77,6.77,0,0,0-1.83.37,7.17,7.17,0,0,1-1.91.37,2.55,2.55,0,0,1-1.88-.8,20.29,20.29,0,0,1-2.62-3.45,19,19,0,0,0-1.12-1.6,3.34,3.34,0,0,1,.14-3.93,3.78,3.78,0,0,1,2.49-1.15h.13a2.16,2.16,0,0,1,1.58.83,7.75,7.75,0,0,1,.85,1.28A2,2,0,0,0,78.49,17a6.2,6.2,0,0,1,2.24.84,13.37,13.37,0,0,1-.21-3.92c-.92-.18-2.14-.88-3.16-3.06C76,8,75.83,5.47,76.9,4.47a3.93,3.93,0,0,1,3.16-1.08,2,2,0,0,1,1.47,1.32,5.78,5.78,0,0,0,1.86,2.13c1,.8,1.89,1.56,1.81,2.88a4.57,4.57,0,0,1-2.57,3.81,13.47,13.47,0,0,1,1.08,3.74A7.83,7.83,0,0,0,86.2,14c.69-1.66,1.56-2.12,2.16-2.22a2,2,0,0,1,1.77.74A3.66,3.66,0,0,1,90.65,15,6.94,6.94,0,0,0,91,17.73a5.07,5.07,0,0,1-.85,4.45,2.53,2.53,0,0,1-2,1.15l-.22,0a7.54,7.54,0,0,1-3.44-1.08c.37,2.29.81,4.95,1.41,7.83a8.41,8.41,0,0,1,3.33-2.86c.22-2.33.85-3.31,2.41-3.95a1,1,0,0,1,.86,0c.59.28.85,1.18,1.11,2.06a4.1,4.1,0,0,0,.67,1.58,2.29,2.29,0,0,0,1.45.47,2.49,2.49,0,0,1,2.14,1.05,6.58,6.58,0,0,1,.56,1.34q1.31-2.41,2.38-4.15a5.21,5.21,0,0,1-.69.05A6,6,0,0,1,99,25.51a4.19,4.19,0,0,1-2.71-1.91,4.74,4.74,0,0,1-.58-3.66,14.74,14.74,0,0,0,.33-2c.12-1.12.2-1.79,1.2-2.07l.22-.06c1.71-.49,3.33-.94,4.08,1.25a14.78,14.78,0,0,1,.59,2.9,9.86,9.86,0,0,0,.67,2.84,7.38,7.38,0,0,1,1.61-1.62,9,9,0,0,1-.52-4c.18-3.81.35-3.88,2.51-4.7l.51-.2c1.5-.59,3-1.05,4-.43a2.77,2.77,0,0,1,1.07,2.3c.32,3.48-.52,5.55-2.65,6.51-.59.26-1.07.5-1.49.7a8.89,8.89,0,0,1-1.59.67,4.87,4.87,0,0,1-.47,2.15,8.66,8.66,0,0,1,2.88-1.06c1.92-.3,4.34-.2,5,1.94a4.08,4.08,0,0,1,0,3.13,2.76,2.76,0,0,1-1.81,1.26l-.07,0-1,.28c1.2.08,2.35.45,3,2.52.2.6.38,1.12.57,1.63a11.06,11.06,0,0,1,1,4.77c0,.47,0,.9,0,1.28v.2c1.74-1,3.53-1.9,5.22-2.74-.16-.23-.32-.47-.48-.74a6.83,6.83,0,0,0-2.12-2.41,3.43,3.43,0,0,1-1.56-2.9,3.86,3.86,0,0,1,1.83-3.18A22.22,22.22,0,0,0,120,26.74c1.71-1.42,3.34-2.76,4.42-1.64a3.54,3.54,0,0,1,.69,3.07,4.44,4.44,0,0,0,.1,1.91,8.25,8.25,0,0,1-.3,5.37,10.73,10.73,0,0,1,1.93-.55,7.49,7.49,0,0,1,.69-2.79c.24-.55.45-1.09.63-1.56.76-2,1.26-3.36,3.31-3.1h0c2.38.31,5.65.73,5.37,5.63-.07,1.3-.06,2.37,0,3.24,0,2.34,0,3.41-1.89,3.56-.76.06-1.52.1-2.24.1-2,0-3.74-.32-4.45-1.53-.26-.44-.46-.81-.62-1.12a17.68,17.68,0,0,1-2.71,1.89,21.28,21.28,0,0,1,8,6,2.57,2.57,0,0,1,.48,2.37,4.36,4.36,0,0,1-2.86,2.36,2.63,2.63,0,0,1-.76.13,2.12,2.12,0,0,1-1.26-.49,2.78,2.78,0,0,0-2.06-.61,3.87,3.87,0,0,1-4.32-3.82L121.78,41l-1.69.91c-1.94,1-4.1,2.2-6.28,3.47l.28.1a14,14,0,0,0,2.86.81,4,4,0,0,1,3.36,2.65,4.54,4.54,0,0,0,1.34,1.81,6.72,6.72,0,0,1,2.73,4,2.16,2.16,0,0,1-.51,1.73,1.51,1.51,0,0,1-1.21.51,8.28,8.28,0,0,1-2.53-.65,9.69,9.69,0,0,0-4-.85,4.55,4.55,0,0,1-3.39-1,5.19,5.19,0,0,1-1.64-3.66,8.47,8.47,0,0,0-.48-2.22,5.32,5.32,0,0,1-.28-1.13c-1.31.85-2.59,1.74-3.79,2.68-.76.59-1.45,1.15-2.11,1.7a6.05,6.05,0,0,1,4,1.61,6.8,6.8,0,0,1,1.35,2.68,5.48,5.48,0,0,0,1.74,3A3.28,3.28,0,0,1,113,61.91a3.24,3.24,0,0,1-1.65,2.5,2.09,2.09,0,0,1-1.1.34,4,4,0,0,1-2.22-1,5.15,5.15,0,0,0-1.94-1l-.48-.08c-2-.35-5.82-1-6.73-5.39l-.11,0A22.56,22.56,0,0,0,96,60.74c.8,6.63-.08,16.66-2.64,30.24a.12.12,0,0,1-.08.09A18.19,18.19,0,0,0,89,93.35C87.7,94.23,86.56,95,85.14,95h0a8,8,0,0,1-4.44-1.54,10.31,10.31,0,0,0-4.49-1.73,20.69,20.69,0,0,0-5.33.3,23.08,23.08,0,0,1-7.08.23.12.12,0,0,1-.1-.14,95.8,95.8,0,0,1,2.59-10.53c.24-.78.55-1.72.91-2.79a10.25,10.25,0,0,1-3.84-1.06c-3.71-1.84-5.57-1.2-7.93-.39a22.77,22.77,0,0,1-3.44,1,7.8,7.8,0,0,1-5.75-1.1,14,14,0,0,0-4.57-1.63c-.32,0-.65-.09-1-.13a.11.11,0,0,1-.09,0,.1.1,0,0,1,0-.09A53.31,53.31,0,0,1,42.07,68a55.86,55.86,0,0,1,3.74-9.55,8.21,8.21,0,0,0-.88-1,4.44,4.44,0,0,1-1.46-3.23c-.52.18-1,.35-1.51.54a29.19,29.19,0,0,1-.42,8.7,59,59,0,0,1-5.68,16.28A122.09,122.09,0,0,1,27.3,93.73a.1.1,0,0,1-.08,0,11.82,11.82,0,0,1-1.52.11,6.84,6.84,0,0,1-3.21-.72c-4.76-2.39-5.75-2.36-10.9-1.75-3.33.4-4.45-.59-5.74-1.73a10.05,10.05,0,0,0-2.9-2,5.57,5.57,0,0,0-2.62-.42.13.13,0,0,1-.11,0,.13.13,0,0,1,0-.12,94.54,94.54,0,0,1,8.11-16c1.49-2.35,13.92-21.57,24-24.1,0-.12,0-.44-.06-.93a9.09,9.09,0,0,1-1.47-2,1.87,1.87,0,0,1-.59.1,2.39,2.39,0,0,1-.57-.07,7.23,7.23,0,0,1-2.29-1,4.41,4.41,0,0,0-2-.75,4.49,4.49,0,0,1-3.21-1.56,2.9,2.9,0,0,1-.21-2.6c.14-.43.3-.82.44-1.16a3.73,3.73,0,0,0,.44-1.94,3.46,3.46,0,0,1,.41-2.7,1.83,1.83,0,0,1,1.37-.68,7.25,7.25,0,0,1,2.93.83,15.72,15.72,0,0,0,3.19,1.1,3.27,3.27,0,0,1,1.67.92,54.42,54.42,0,0,1,.76-6A8.23,8.23,0,0,1,29.7,31a2.46,2.46,0,0,1-.6.07,2.86,2.86,0,0,1-1.61-.5,4.06,4.06,0,0,1-1.61-2.72A4.27,4.27,0,0,0,24.66,25a1.54,1.54,0,0,1-.17-.19,3.14,3.14,0,0,1-.64-2.18,2.05,2.05,0,0,1,.81-1.5,2.39,2.39,0,0,1,2.15-.45,2,2,0,0,1,1.28,1.45c.23.8.94.72,1.77.63a2.57,2.57,0,0,1,1.77.2c.17.13.38.26.6.4a13.78,13.78,0,0,1,1.51,1.1c.17-1.6.28-3.14.36-4.54a3.74,3.74,0,0,1-.8-.4,2.35,2.35,0,0,0-1.09-.43h0a5.73,5.73,0,0,0-.6.06c-1.21.16-3.23.43-4.26-1.42a3.79,3.79,0,0,1-.4-2.73,4.1,4.1,0,0,0-.27-2.62c-.71-1.59.1-2.34.48-2.58a2.5,2.5,0,0,1,3.1.39c.2.21.4.47.65.78a10.24,10.24,0,0,0,3.49,3.17,1.19,1.19,0,0,1,.15.09,6.31,6.31,0,0,1,.52-1.93c-1.28-.58-3.12-2-3.16-3.23A24.08,24.08,0,0,1,32,6c0-.45.07-.87.09-1.27a2.33,2.33,0,0,1,1.64-1.81A3.24,3.24,0,0,1,37,3.09c1.36,1.17,3.19,4.42,3,5.66C39.77,9.81,38,11.24,37,12.1l-.35.3a14.63,14.63,0,0,1,.18,3.06c.26-.25.79-.76,1.59-1.65C39.81,12.3,42,11,43.55,12.38A3.89,3.89,0,0,1,45,15.18a2.89,2.89,0,0,1-1,2.19A6.08,6.08,0,0,0,42.66,19a3.44,3.44,0,0,1-2.06,1.83,4.58,4.58,0,0,1-1.4.21,6.91,6.91,0,0,1-2.64-.57c-.13,1.55-.28,3.24-.45,5a4.73,4.73,0,0,1,2.43-1.93,7.83,7.83,0,0,0,1.89-.91c.85-.52,1.66-1,2.36-.73.88.33,1.77.69,2.06,1.95a1.54,1.54,0,0,1,.85-.1l.37.06c1.56.24,3.32.52,3.32,2.41a5.33,5.33,0,0,0,.74,2.29,4.14,4.14,0,0,1,.66,2.53c.94-.64,1.85-1.22,2.72-1.72a4.39,4.39,0,0,1-1.79-2.18,4.14,4.14,0,0,1,.39-3,5.1,5.1,0,0,0,.46-1.53,2.74,2.74,0,0,1,.62-1.56,4,4,0,0,1-1,.21,2.55,2.55,0,0,1-.39,0,2.63,2.63,0,0,1-2.34-1.43,6.07,6.07,0,0,0-1.12-1.24,1.39,1.39,0,0,1-.57-1c-.07-.86.75-1.77,1.4-2.51.2-.22.39-.43.53-.61.57-.74,2.34-.51,3.35-.31a7.69,7.69,0,0,1,.77.19,10.37,10.37,0,0,1-.23-1.28,4.26,4.26,0,0,1-1.54.3,3.73,3.73,0,0,1-1-.14A3.47,3.47,0,0,1,50,12.81a2.61,2.61,0,0,0-1.41.89c-.12.15-.28.33-.46.53-.8.88-1.88,2.1-1.76,3.56a2.76,2.76,0,0,0,1.09,2,4.9,4.9,0,0,1,.87,1,4.16,4.16,0,0,0,2.82,2,6,6,0,0,1-.33.95c-.12.28-.25.6-.36.94-.84-1.63-2.91-2-4.15-2.15l-.54-.08a4.54,4.54,0,0,0-2.44-1.75,7.83,7.83,0,0,0,.56-.86,5.14,5.14,0,0,1,1-1.33,4.33,4.33,0,0,0,1.53-3.25,5.33,5.33,0,0,0-2-3.87A3.77,3.77,0,0,0,42,10.38a4.43,4.43,0,0,0-1.45.26A3.92,3.92,0,0,0,41.35,9c.35-2-2-5.74-3.45-7a3.8,3.8,0,0,0-2.5-.85,5.7,5.7,0,0,0-2.23.48,3.65,3.65,0,0,0-2.49,3c0,.39-.06.79-.09,1.22a26.25,26.25,0,0,0-.13,2.65,4,4,0,0,0-2-.55,3.71,3.71,0,0,0-2.06.6,3.26,3.26,0,0,0-1,4.35,2.73,2.73,0,0,1,.16,1.83,5.14,5.14,0,0,0,.56,3.64,5.08,5.08,0,0,0,.54.76l-.45,0a4,4,0,0,0-2.37.82,3.46,3.46,0,0,0-1.37,2.5,4.55,4.55,0,0,0,1,3.27l.21.22c.37.39.62.65.84,2.06a6,6,0,0,0,.95,2.39,4.34,4.34,0,0,0-.71-.06h-.23a3.18,3.18,0,0,0-2.39,1.21,4.72,4.72,0,0,0-.7,3.81A3.51,3.51,0,0,1,21,36.6c-.15.36-.31.77-.46,1.22A4.26,4.26,0,0,0,21,41.65a5.7,5.7,0,0,0,4.27,2.18,3.18,3.18,0,0,1,1.39.57,8.65,8.65,0,0,0,2.71,1.12,4.45,4.45,0,0,0,.71.09c.12.18.25.36.38.53C20.39,50,9.33,66.87,7.13,70.36A95.25,95.25,0,0,0-1.12,86.65,1.53,1.53,0,0,0-.9,88.13a1.55,1.55,0,0,0,1.1.59H.44l.36,0A4.12,4.12,0,0,1,2.4,89a8.75,8.75,0,0,1,2.51,1.72,7,7,0,0,0,5.3,2.18,12.42,12.42,0,0,0,1.55-.1,37.27,37.27,0,0,1,4-.34c1.79,0,3.05.4,6.12,2a8.42,8.42,0,0,0,3.85.87,11.64,11.64,0,0,0,1.72-.13,1.63,1.63,0,0,0,1-.63,124.89,124.89,0,0,0,8.66-14.23c.75-1.44,1.45-2.92,2.08-4.42a1.72,1.72,0,0,0,.22.37,1.61,1.61,0,0,0,1.06.58c.36,0,.66.07,1,.12a12.5,12.5,0,0,1,4.15,1.5,9.68,9.68,0,0,0,4.78,1.4,10.34,10.34,0,0,0,1.86-.18,23.63,23.63,0,0,0,3.65-1A9.51,9.51,0,0,1,59.05,78a8.34,8.34,0,0,1,3.66,1,11.46,11.46,0,0,0,2.61.94l-.39,1.22a95,95,0,0,0-2.64,10.7A1.56,1.56,0,0,0,62.54,93a1.64,1.64,0,0,0,1,.65,18.16,18.16,0,0,0,2.77.21,31.43,31.43,0,0,0,4.73-.44,27.45,27.45,0,0,1,3.75-.36,12.16,12.16,0,0,1,1.22.06A9,9,0,0,1,80,94.67a9.51,9.51,0,0,0,5.17,1.74h0a8.43,8.43,0,0,0,4.67-1.88,16.62,16.62,0,0,1,4-2.13,1.53,1.53,0,0,0,1-1.16c2.55-13.49,3.43-23.37,2.71-30.17.21-.31.49-.71.88-1.2,1.8,3.24,5.34,3.85,7,4.13l.46.08a4.64,4.64,0,0,1,1.37.79,5.22,5.22,0,0,0,3,1.29,3.5,3.5,0,0,0,1.84-.54,4.4,4.4,0,0,0,.37-7.54,4.23,4.23,0,0,1-1.27-2.32,8.21,8.21,0,0,0-1.66-3.22,6.21,6.21,0,0,0-2-1.35c.59-.45,1.22-.91,1.91-1.39a5.51,5.51,0,0,1,.19,1.16,6.59,6.59,0,0,0,2.13,4.64A5.81,5.81,0,0,0,115.66,57a5.72,5.72,0,0,0,.58,0h.29a9.89,9.89,0,0,1,3.13.78,9.09,9.09,0,0,0,3,.74,2.92,2.92,0,0,0,2.27-1,3.53,3.53,0,0,0,.85-2.82,8,8,0,0,0-3.3-5,3.23,3.23,0,0,1-.9-1.3,5.34,5.34,0,0,0-4.11-3.36c1.13-.63,2.21-1.2,3.11-1.69l.21,2a5.27,5.27,0,0,0,5.37,5.11l.46,0h.18a1.42,1.42,0,0,1,1,.37,3.5,3.5,0,0,0,2.06.74,4,4,0,0,0,1.19-.2c.71-.23,3.07-1.13,3.78-3.27a3.89,3.89,0,0,0-.68-3.63,16.31,16.31,0,0,0-3-3.06,15.15,15.15,0,0,0,1.6.08c.66,0,1.41,0,2.35-.1,3.27-.25,3.23-2.77,3.2-5,0-.84,0-1.89.05-3.14C138.66,27,134,26.34,131.66,26Zm-52.08-.53a8.9,8.9,0,0,1,1.11-.27c.1.54.21,1.09.31,1.64l-.65-.13c-1-.2-1.29-.28-1.53-.55a3.64,3.64,0,0,0-.4-.38C78.83,25.73,79.22,25.62,79.58,25.51Zm-8-4.45c.34.52.7,1.07,1.09,1.62h-.23a6.68,6.68,0,0,0-2.16.39c.21-1.08.43-2.1.63-3C71.11,20.34,71.33,20.68,71.58,21.06ZM79,14.87c0,.25,0,.51,0,.79l-.3-.06c-.39-.07-.39-.07-.69-.61a9,9,0,0,0-1-1.46,3.66,3.66,0,0,0-1.51-1.11,8.15,8.15,0,0,0,.65-.67A6.83,6.83,0,0,0,79,14.87Zm5.45-.54-.09-.26.41-.36C84.7,13.93,84.59,14.14,84.48,14.33Zm3.49,12a8.78,8.78,0,0,0-1.15.8c-.17-.89-.32-1.76-.46-2.6a14.35,14.35,0,0,0,1.46.24,2.55,2.55,0,0,0,.39,0h.14A8.89,8.89,0,0,0,88,26.28ZM117,35.47a4.74,4.74,0,0,1,1.36,1.41l-1.73.9a11.3,11.3,0,0,0-.65-3.21A5.57,5.57,0,0,0,117,35.47ZM43.53,58l.38.4.23.25c-.25.51-.49,1-.73,1.57Q43.52,59,43.53,58ZM31.21,31.89c0,.15,0,.31-.05.47l-.19,0a4.37,4.37,0,0,1-.49-.12A5.7,5.7,0,0,0,31.21,31.89Zm-1-11.22a11.11,11.11,0,0,0,1.55-.13l.34-.05a3,3,0,0,1,.45.24l.06,0c0,.36-.05.73-.08,1.11l-.1-.07a3,3,0,0,0-1.81-.52c-.3,0-.61,0-.93.06l-.37,0a3.39,3.39,0,0,0-.47-.86A5.66,5.66,0,0,0,30.23,20.67Z"/><path class="cls-1" d="M93.58,39.8c.57-1.4,1.17-2.78,1.81-4.07l.79-1.59a3.73,3.73,0,0,1-1,.13,4.81,4.81,0,0,1-2.1-.54,17.61,17.61,0,0,1-1.51,2.86,7.61,7.61,0,0,1,.83.73A3.64,3.64,0,0,1,93.58,39.8Zm.27-4.29.06,0-.41.86-.07-.08C93.57,36.05,93.72,35.78,93.85,35.51Z"/><path class="cls-1" d="M89.74,45.73l.33.49c.26.37.54.79.8,1.25C91.39,45.8,92,43.91,92.73,42a4.33,4.33,0,0,1-1.8.31c-.26,0-.55,0-.87,0-.76-.07-1.34-.12-1.83-.21.16,1,.28,2,.39,3A1.74,1.74,0,0,1,89.74,45.73Zm.19-2c.24,0,.47,0,.68,0-.08.2-.15.41-.22.62a2.51,2.51,0,0,0-.46-.32c0-.12,0-.23,0-.35Z"/><path class="cls-1" d="M61.36,28.41a5.19,5.19,0,0,1-1.51,1.3c0,.22.07.45.1.68l.42.23A15.16,15.16,0,0,0,63,31.88a2.23,2.23,0,0,1,.91.57c.12-1,.24-2.08.39-3.13a4,4,0,0,1-.92.13A2.58,2.58,0,0,1,61.36,28.41Z"/><path class="cls-1" d="M58.69,23.23q.38,1.8.72,3.78a4.72,4.72,0,0,1,.74,0l.21.05a.78.78,0,0,1-.1-.15,7.5,7.5,0,0,1-.76-5.58,3.05,3.05,0,0,1,1.26-2c.74-.39,1.66.34,2.65,1.12a5.44,5.44,0,0,0,2.12,1.27c.26-1.46.54-2.84.82-4.1a4.51,4.51,0,0,1-2.57,1.15h0A1.84,1.84,0,0,1,62.3,18a13.88,13.88,0,0,1-4.6.92c.22.84.44,1.75.65,2.7A1.51,1.51,0,0,1,58.69,23.23Z"/><path class="cls-1" d="M61.36,37.88a3.11,3.11,0,0,1,.2.41,3.21,3.21,0,0,1-.18,3,1.82,1.82,0,0,0-.25.48c0,.76.08,1.53.11,2.3.63-.19,1.24-.36,1.83-.52.07-1.69.19-4,.4-6.59a4.1,4.1,0,0,1-.7.43A5.13,5.13,0,0,1,61.36,37.88Z"/><path class="cls-1" d="M51.65,34.54c.8,0,2.77.24,3.59,1.74.12.21.21.41.31.6a3.81,3.81,0,0,1,1.72-.75,2.84,2.84,0,0,1-.3-.7,11.59,11.59,0,0,0-1.5-3.17C54.26,32.94,53,33.71,51.65,34.54Z"/><path class="cls-1" d="M55.48,20.44c-.12-.42-.23-.83-.34-1.21a3.25,3.25,0,0,1-.72,1.14A2.47,2.47,0,0,1,55.48,20.44Z"/><path class="cls-1" d="M45.66,47.33c-1.45-.42-2.34-1.88-3-2.95-.14-.23-.26-.44-.39-.63-.68,1-1.28,1.85-1.79,2.66.75,0,3.19.32,4.41,1.92A8.18,8.18,0,0,0,46,49.48c.77-.36,1.6-.74,2.51-1.11a8.18,8.18,0,0,1-1.4-.49A10.57,10.57,0,0,0,45.66,47.33Z"/><path class="cls-1" d="M41.47,39.18c-.44-.12-1.62-.46-3-.93-1.85-.63-1.29-2.35-.92-3.48a1.18,1.18,0,0,0-.24-1.13,3.42,3.42,0,0,1-.54-1.24l-.19,0a1.66,1.66,0,0,1-1.08-.36c-.19,2.1-.37,4.22-.51,6.22a3.34,3.34,0,0,0,1.5,1.9c1.6.73,1.6,2,1.42,3.6A40.73,40.73,0,0,1,41.47,39.18ZM39,39.91l-.25.32a4,4,0,0,0-.47-.56Z"/><path class="cls-1" d="M53,43.08a11.63,11.63,0,0,0-1.79-1.77,5.27,5.27,0,0,1-1.56-1.78,4.24,4.24,0,0,1-.28-3.4,23.15,23.15,0,0,0-4.12,3.8l-.5.62c.78,0,3.11.16,4.38,1.24A8,8,0,0,1,51,44.41a8.39,8.39,0,0,0,.75,1.26A1.91,1.91,0,0,1,52.1,47l1.29-.42c.16-.72.36-1.69.49-2.75A3.61,3.61,0,0,1,53,43.08ZM47.52,39.5l.41-.38a4.6,4.6,0,0,0,.19.56Z"/><path class="cls-1" d="M42.69,33.84a7,7,0,0,1,1.05,3c.63-.61,1.28-1.22,2-1.83s1.56-1.3,2.33-1.91H48A2.53,2.53,0,0,0,47.6,33a7.74,7.74,0,0,1-2.66-.91c-1.36-.69-1.37-1.76-1.37-2.8v-.12A5.52,5.52,0,0,1,42,30.31l-.4.21c0,.13,0,.24,0,.39A7.19,7.19,0,0,0,42.69,33.84Zm1.61-.5q.41.21.75.36l-.58.5c-.18-.38-.37-.73-.54-1l0,0A3.58,3.58,0,0,0,44.3,33.34Z"/><path class="cls-1" d="M70.83,49.38a4.72,4.72,0,0,0,.85,1.95c.49.83,1,1.61.74,2.21a1.09,1.09,0,0,1-.65.63,49,49,0,0,1,0,13.25c.39-.84.8-1.68,1.23-2.51C76.55,58,80.28,53.51,84,51.69l.57-.25-.22,0a7.66,7.66,0,0,1-2.76-.69c-.59-.24-1.17-.41-1.72-.59-2.25-.69-4-1.23-4.36-5.23-.9,1.09-1.91,2.12-3.11,2.23H72.2a3.37,3.37,0,0,1-2.19-1,2.34,2.34,0,0,1-.86-1.33,13.07,13.07,0,0,1-1.3.55A4.06,4.06,0,0,1,70.83,49.38Zm1.37-.77a2.23,2.23,0,0,0,.36,0,4.31,4.31,0,0,0,2.14-.84c1,2.63,3,3.24,4.81,3.8.44.13.91.28,1.37.45a31.5,31.5,0,0,0-7.27,8.83,40.22,40.22,0,0,0-.31-6,2.24,2.24,0,0,0,.46-.78c.43-1.23-.26-2.39-.87-3.41a5.56,5.56,0,0,1-.64-1.27,5.85,5.85,0,0,0-.07-.72Z"/><path class="cls-1" d="M57.86,10.26a3.17,3.17,0,0,0-.12.44C57.78,10.56,57.83,10.42,57.86,10.26Z"/><path class="cls-1" d="M52,13.46a4.26,4.26,0,0,0,1.54-.3c-.1-.84.05-1.33.55-1.6a.5.5,0,0,1,.53,0,2.78,2.78,0,0,1,.85,1.08A4.24,4.24,0,0,0,56.79,12a6.07,6.07,0,0,0-.8-1.17,4.5,4.5,0,0,1-2.05.69l-.36.06A3.49,3.49,0,0,1,52.2,12a4.62,4.62,0,0,0-.07.65,8.08,8.08,0,0,0-.85,0,4.64,4.64,0,0,0-1.3.18,3.47,3.47,0,0,0,1.05.51A3.73,3.73,0,0,0,52,13.46Z"/></svg>