<svg id="圖層_1" data-name="圖層 1" xmlns="http://www.w3.org/2000/svg" viewBox="0 0 95.64 82.35"><defs><style>.cls-1{fill:#fff;}</style></defs><title>0</title><path class="cls-1" d="M95.54,70.72a7.09,7.09,0,0,0-4.64-5.58,5.53,5.53,0,0,0-.66-.2,9.07,9.07,0,0,0,4.61-7.54,9.48,9.48,0,0,0-4-7.88A7.45,7.45,0,0,0,91,48.46a9.05,9.05,0,0,0-8.63-9.22,8.85,8.85,0,0,0-8-5.76h-.36a8.52,8.52,0,0,0-2.75.45A7.09,7.09,0,0,0,68,31.67l-.6-.19a8.53,8.53,0,0,0,1.77-1.29A8.94,8.94,0,0,0,72,23.93a9.27,9.27,0,0,0-4-7.88A6.23,6.23,0,0,0,68.14,15a9,9,0,0,0-8.62-9.22A8.86,8.86,0,0,0,51.47,0h-.36A8.75,8.75,0,0,0,43,5.4h0A9,9,0,0,0,34,14.07c0,.31,0,.61,0,.89a9.08,9.08,0,0,0-4.47,6.26,8.85,8.85,0,0,0,4.81,9.54,6.53,6.53,0,0,0-1.24.27,6.72,6.72,0,0,0-1.81.87H31.3a8.84,8.84,0,0,0-8-5.75H22.9a8.76,8.76,0,0,0-8.12,5.4h0A9,9,0,0,0,5.82,40.2c0,.31,0,.61,0,.89a9.09,9.09,0,0,0-4.47,6.25A8.89,8.89,0,0,0,6.21,56.9,6.82,6.82,0,0,0,5,57.16,7.12,7.12,0,0,0,.17,62.52a8.23,8.23,0,0,0,1.77,6.8c1.53,2,5.27,5.28,13.17,5.39h.33A12.43,12.43,0,0,0,22.17,73a12.86,12.86,0,0,0,6.89,2h.75c7.34,0,11-3,12.55-4.8a8.48,8.48,0,0,0,2.15-6.83,7.14,7.14,0,0,0-4.64-5.59l-.66-.2a9,9,0,0,0,4.6-7.53,9.22,9.22,0,0,0-.11-1.48,12.19,12.19,0,0,0,6.61-1.67,12.18,12.18,0,0,0,6,1.9,9.12,9.12,0,0,0-3.86,5.88,8.84,8.84,0,0,0,1.46,6.66,8.93,8.93,0,0,0,3.35,2.88A8.85,8.85,0,0,0,56,64.5a7.14,7.14,0,0,0-4.85,5.38A8.44,8.44,0,0,0,53,76.72c1.54,2,5.28,5.22,13.07,5.33h.33a12.25,12.25,0,0,0,6.77-1.7,13,13,0,0,0,6.92,2h.75c7.32,0,11-3,12.55-4.82A8.44,8.44,0,0,0,95.54,70.72Zm-3.22,5.89c-1.41,1.64-4.75,4.32-11.48,4.32h-.71c-3.38-.11-5.73-1.14-6.93-2.4-1.21,1.2-3.52,2.12-6.8,2.12h-.31c-7.2-.09-10.59-3-12-4.79a7,7,0,0,1-1.6-5.65h0a5.67,5.67,0,0,1,3.89-4.34,5.61,5.61,0,0,1,5.25,1,13.65,13.65,0,0,1,2.08,2.6c1.25,1.86,2.53,3.77,6,4.61a19.22,19.22,0,0,0-4.54-11.34,7.67,7.67,0,0,1-5.26,1A7.57,7.57,0,0,1,55,60.54a7.43,7.43,0,0,1-1.22-5.61,7.67,7.67,0,0,1,4.59-5.67,13.21,13.21,0,0,1-.13-1.72s0-.06,0-.09h-1c-3.35-.11-5.69-1.12-6.9-2.37-1.21,1.18-3.51,2.09-6.76,2.09h-.3c-.49,0-1,0-1.4,0a8.61,8.61,0,0,1,.52,2.94,7.63,7.63,0,0,1-7.51,7.26h-.25a7.73,7.73,0,0,1-3.8-1.25,19.36,19.36,0,0,0-5.09,10.69c3.51-.7,4.88-2.56,6.21-4.36a13,13,0,0,1,2.17-2.49,5.51,5.51,0,0,1,5.26-.77,5.64,5.64,0,0,1,3.72,4.51h0a7,7,0,0,1-1.82,5.65c-1.4,1.63-4.73,4.3-11.48,4.3H29.1c-3.35-.11-5.69-1.12-6.9-2.37C21,72.39,18.68,73.3,15.44,73.3h-.31c-7.31-.1-10.7-3.08-12.07-4.84a6.8,6.8,0,0,1-1.51-5.6,5.67,5.67,0,0,1,3.89-4.34,5.56,5.56,0,0,1,5.24,1,13.4,13.4,0,0,1,2.09,2.6c1.24,1.85,2.52,3.74,5.95,4.59-.6-6.46-3.46-10.1-4.58-11.3a7.66,7.66,0,0,1-5.22.94A7.51,7.51,0,0,1,4,53.19a7.4,7.4,0,0,1-1.22-5.6,7.67,7.67,0,0,1,4.59-5.67,13,13,0,0,1-.13-1.72A7.55,7.55,0,0,1,15,33a4.14,4.14,0,0,1,.77,0,7.49,7.49,0,0,1,14.5.36,6.7,6.7,0,0,1,1,0l.5,0a5.85,5.85,0,0,1,1.83-1,5.56,5.56,0,0,1,5.24,1,13.34,13.34,0,0,1,2.08,2.6c1.24,1.85,2.52,3.74,6,4.59a19.11,19.11,0,0,0-4.56-11.27,7.63,7.63,0,0,1-5.17.91A7.47,7.47,0,0,1,31,21.46a7.69,7.69,0,0,1,4.59-5.67,14.71,14.71,0,0,1-.13-1.72A7.61,7.61,0,0,1,43,6.82h.25a4,4,0,0,1,.77,0,7.4,7.4,0,0,1,7.13-5.45h.31a7.47,7.47,0,0,1,7.07,5.81,6.5,6.5,0,0,1,1-.05,7.62,7.62,0,0,1,7.26,7.76,7.8,7.8,0,0,1-.27,1.8,7.84,7.84,0,0,1,4.15,7.19,7.58,7.58,0,0,1-7.49,7.26h-.27A7.73,7.73,0,0,1,59,29.91a19.3,19.3,0,0,0-5.13,10.71c3.52-.7,4.89-2.56,6.21-4.36a13.75,13.75,0,0,1,2.17-2.49,5.66,5.66,0,0,1,8.36,1.91,7.36,7.36,0,0,1,3.3-.79h.3a7.48,7.48,0,0,1,7.08,5.82,5.43,5.43,0,0,1,1-.06,7.61,7.61,0,0,1,7.25,7.76,7.81,7.81,0,0,1-.26,1.8,8,8,0,0,1,4.15,7.19,7.61,7.61,0,0,1-7.5,7.26h-.26a7.88,7.88,0,0,1-3.84-1.28A19.39,19.39,0,0,0,76.77,74.1c3.52-.7,4.9-2.56,6.22-4.37a13.37,13.37,0,0,1,2.17-2.49,5.53,5.53,0,0,1,5.27-.77A5.66,5.66,0,0,1,94.15,71h0A7,7,0,0,1,92.32,76.61ZM61.8,65.16a8.93,8.93,0,0,0,3.06-.71A17.67,17.67,0,0,1,68,71.88a8.82,8.82,0,0,1-3.12-3.25,14.48,14.48,0,0,0-2.31-2.87A5.39,5.39,0,0,0,61.8,65.16ZM33.48,58.6l-.26.21a14.29,14.29,0,0,0-2.4,2.74,9.17,9.17,0,0,1-3.15,3.07,17.91,17.91,0,0,1,3.46-6.78A9.36,9.36,0,0,0,33.48,58.6Zm-22.65-.78a9.28,9.28,0,0,0,2.95-.69A17.38,17.38,0,0,1,17,64.48a8.91,8.91,0,0,1-3-3.2,15.1,15.1,0,0,0-2.31-2.86A6.06,6.06,0,0,0,10.83,57.82ZM39,31.69A8.74,8.74,0,0,0,41.94,31a17.42,17.42,0,0,1,3.18,7.33,9,9,0,0,1-3-3.19,14.48,14.48,0,0,0-2.31-2.87A5.86,5.86,0,0,0,39,31.69Zm22.65.77-.27.22A14.71,14.71,0,0,0,59,35.42a9,9,0,0,1-3.15,3.07,17.92,17.92,0,0,1,3.48-6.8A9.38,9.38,0,0,0,61.64,32.46ZM84.52,65.94l-.26.21a14.71,14.71,0,0,0-2.41,2.74A9.09,9.09,0,0,1,78.68,72a17.91,17.91,0,0,1,3.44-6.8A9.61,9.61,0,0,0,84.52,65.94Z"/></svg>