<svg id="圖層_1" data-name="圖層 1" xmlns="http://www.w3.org/2000/svg" viewBox="0 0 93.47 90.15"><defs><style>.cls-1{fill:#fff;}</style></defs><title>0</title><path class="cls-1" d="M43.67,55.3l-.33-.07.31.4C43.66,55.52,43.67,55.41,43.67,55.3Z"/><path class="cls-1" d="M39.71,30.36c-3.06-.73-4.46-2-5.09-3.1a10,10,0,0,1-1.25.69c2,1.7,4,3.4,5.92,4.92A14.63,14.63,0,0,0,39.71,30.36Z"/><path class="cls-1" d="M69.49,28.27a3.41,3.41,0,0,1-.9-.17,3.69,3.69,0,0,0-2.81-.17A12.92,12.92,0,0,1,67,29.83C67.83,29.32,68.66,28.79,69.49,28.27Z"/><path class="cls-1" d="M40.86,53.89c-.15.23,0,.68.59,1.29a15.36,15.36,0,0,1,3.26,5.22c.2-2.21.35-4.31.44-6.2C43.37,53.72,41.22,53.35,40.86,53.89Zm2.81,1.41c0,.11,0,.22,0,.33l-.31-.4Z"/><path class="cls-1" d="M93.35,43.5C93,42.38,91.81,41.63,90.49,41a4.53,4.53,0,0,0,.27-.54,1.58,1.58,0,0,0,.18-.43q0-.09,0-.21a4.12,4.12,0,0,0,.15-1.07,4.25,4.25,0,0,0-.52-2.05,4.34,4.34,0,0,0,.09-5.3,4.29,4.29,0,0,0,.86-2.59,4.35,4.35,0,0,0-4.35-4.35H87a6.24,6.24,0,0,0,1.53-4.27,3,3,0,0,0-1.85-2.53,2.21,2.21,0,0,0-.87-.16c-1.61,0-4.44,1.56-9.67,4.86a1.4,1.4,0,0,0-1-.54l-.16,0-.36,0a5.38,5.38,0,0,0,.38-.66c.89-1.91.08-3.92-.63-5.69a6.93,6.93,0,0,1-.69-2.4l0-.19a1.41,1.41,0,0,0-.43-1.29,1.45,1.45,0,0,0-1-.38,1.49,1.49,0,0,0-.36,0l-.19.05a9.39,9.39,0,0,0-2,.81A5.16,5.16,0,0,0,68.36,8.1a6.18,6.18,0,0,0-2.08-1.29c-.72-.3-.89-.37-1.07-.95l0-.12a1.43,1.43,0,0,0-1.81-.93l-.12.05c-.15,0-3.45,1.22-4.17,4.45a4.25,4.25,0,0,0-1.16,4.61,8.6,8.6,0,0,0,.61,1.29,3.82,3.82,0,0,0-1.87-.59,2.46,2.46,0,0,0-1.18.3,3.61,3.61,0,0,0-.69.53c-.06-.15-.13-.29-.19-.42-.33-.69-.42-.88-.16-1.48l0-.12a1.45,1.45,0,0,0,0-1.1,1.49,1.49,0,0,0-.78-.78l-.14-.05A7.44,7.44,0,0,0,51,11.05a5.9,5.9,0,0,0-3.46,1,4.19,4.19,0,0,0-4,2.74A8.11,8.11,0,0,0,43.23,16a2.69,2.69,0,0,0-1.95-1.91,3.59,3.59,0,0,0-.81-.09,4.51,4.51,0,0,0-2.59.91,6.29,6.29,0,0,0-.65.53c-.39.21-.72.39-1,.53a21.13,21.13,0,0,0,1.43-7.5V8.31A1.41,1.41,0,0,0,37,7.19,1.38,1.38,0,0,0,36.22,7a1.33,1.33,0,0,0-.49.09l-.16.06a7,7,0,0,1-2.29.5,1.43,1.43,0,0,1-.68-.12l-.06,0h0l0,0a5.54,5.54,0,0,0-2.91-3.55c-.72-.4-1.11-.62-1.52-2.23L28,1.42a1.42,1.42,0,0,0-.95-1,1.52,1.52,0,0,0-.42-.06,1.38,1.38,0,0,0-.94.36l-.16.13a6.61,6.61,0,0,0-2.15,4.65,6.42,6.42,0,0,0-2.76-.65A4.7,4.7,0,0,0,19,5.11a1.53,1.53,0,0,0-.87,1A4.87,4.87,0,0,0,18.3,10a1.8,1.8,0,0,1,.22,1.2,4,4,0,0,0,1.73,4l.1.07a4.08,4.08,0,0,0,.15,1.22,3.9,3.9,0,0,0-.58-.05h-.23a2.57,2.57,0,0,0-1.83.92c-2.11,2.5.61,6.06,3.81,9.32a13.23,13.23,0,0,1-1.76,3,4.5,4.5,0,0,0-5.05.29,4.32,4.32,0,0,0-1.08-.14,4.57,4.57,0,0,0-4.56,4.57A4.45,4.45,0,0,0,10,37a4.17,4.17,0,0,0-.14,1.11,4.48,4.48,0,0,0,.9,2.71,4,4,0,0,0-.24.38A10.1,10.1,0,0,0,9,41.1a6.42,6.42,0,0,0-4.38,1.5,4.56,4.56,0,0,0-1.65,4l0,.1a2.21,2.21,0,0,0,.65,1.07c-1.59.7-3.08,1.47-3.5,2.72A2.57,2.57,0,0,0,.3,52.62a3.18,3.18,0,0,0,1.29,1.26c.1,1.81,1,4.33,3.13,5.14a2.27,2.27,0,0,0,.77.13,3.93,3.93,0,0,0,2.62-1.28,10.58,10.58,0,0,0-.58,1.8,4.31,4.31,0,0,0,2,4.64,7.24,7.24,0,0,0,5.18,4l.13,0,.24,0a1.41,1.41,0,0,0,.84-.28,1.39,1.39,0,0,0,.56-1l0-.13c.09-.76.31-.9,1.05-1.37a6.94,6.94,0,0,0,1.92-1.67,6.12,6.12,0,0,0,.84-4.56,9.58,9.58,0,0,0,2.31.53l.19,0H23a1.42,1.42,0,0,0,.66,1.14,1.36,1.36,0,0,0,.75.22,1.48,1.48,0,0,0,.62-.14l.17-.08A11,11,0,0,1,27,60.37a4.07,4.07,0,0,0-.22,3.5,3.8,3.8,0,0,1,.08,1.82,6.81,6.81,0,0,0,.82,4.67l.05.09a1.41,1.41,0,0,0,1.72.62l.1,0a9.9,9.9,0,0,0,3.63-2.68,7,7,0,0,0,3.23,4l.18.1a1.46,1.46,0,0,0,.68.17,1.4,1.4,0,0,0,.71-.19,1.43,1.43,0,0,0,.71-1.2V71c0-1.64.37-2,.94-2.52a5.81,5.81,0,0,0,2-4.2.81.81,0,0,0,0-.16c0,.05,0,.08,0,.08s0,0,0,0A2.18,2.18,0,0,1,43,63.79c-.41,3.94-.91,8-1.36,11.6-.63,5.12-1.09,8.83-1.06,10.25,0,.9.35,2.58,2.71,3.64a11.6,11.6,0,0,0,4.64.87c3.83,0,7.68-1.4,7.68-4.51,0-.67,0-2.13-.08-4.15-.09-3.67-.22-9.24-.25-14.91l.29-.12A6.91,6.91,0,0,0,59,62.79a5.84,5.84,0,0,0,4,1.86h.13A1.58,1.58,0,0,0,64.19,64a4.93,4.93,0,0,0,1.18-3.85A1.86,1.86,0,0,1,65.54,59a4.08,4.08,0,0,0,.5-1.94,4.26,4.26,0,0,0,1.79,1.34,4.21,4.21,0,0,0,8.39-.46,4.31,4.31,0,0,0-.12-1l.12-.09.42.3c.65.44.78.54.82,1.12v.14a1.42,1.42,0,0,0,1.41,1.32h.2l.15,0a6.76,6.76,0,0,0,5-3.52,4.27,4.27,0,0,0,2.1-4.31,9.63,9.63,0,0,0-.28-1.2,3.13,3.13,0,0,0,2,.87,2.15,2.15,0,0,0,.71-.11c2.06-.65,2.94-3,3.14-4.67a3.15,3.15,0,0,0,1.22-1.14A2.56,2.56,0,0,0,93.35,43.5ZM24.16,48.94a5.88,5.88,0,0,0-.67-.76l.64-.14.14,0a1.41,1.41,0,0,0,.92-1.92L25.14,46a7.15,7.15,0,0,0-.7-1.24A4.57,4.57,0,0,0,27.39,41,4.55,4.55,0,0,0,25.5,32.5a4.73,4.73,0,0,0-1.05-1.18c.26-.4.5-.81.73-1.24,2,1.78,4.14,3.64,6.27,5.46L33.2,37A16,16,0,0,0,31.84,43a3.48,3.48,0,0,0-.57,0,4.5,4.5,0,0,0-4.49,4.5c0,.14,0,.29,0,.44a4.4,4.4,0,0,0-1.93,2.56A4.38,4.38,0,0,0,24.16,48.94Zm1.14,5c-.27.36-.51.72-.72,1.06.13-.6.27-1.22.36-1.84A3.93,3.93,0,0,0,25.3,53.89Zm66.59-9a2.43,2.43,0,0,1-1.38.91c.1,1-.45,3.72-2.19,4.27-1.14.36-2.5-1.61-3.71-3.35-.61-.89-1.25-1.82-1.54-1.86h0c-.26.22.41,1.14.9,1.81s1,1.39.92,1.78a.34.34,0,0,1-.18.24c-.24.14-.5,0-.74-.2s-.26-.18-.34-.16l0,0c-.06.1.13.49.31.86a10.3,10.3,0,0,1,1,2.87,3,3,0,0,1-1.82,3.07c-.91,2.66-4,3.12-4,3.12l-.13,0v-.13A2.56,2.56,0,0,0,77.45,56a4.78,4.78,0,0,1-1.34-1.23,2.82,2.82,0,0,1-1.88,1.53,2.78,2.78,0,1,1-5,1.68,2.54,2.54,0,0,1,.09-.68,2.78,2.78,0,0,1-2.76-2.78c0-.06,0-.12,0-.18a4.31,4.31,0,0,0-2.37-.41.87.87,0,0,0-.58.43c-.16.32,0,.62.34,1.09a2.53,2.53,0,0,1,.31,2.94,3.23,3.23,0,0,0-.32,2,3.58,3.58,0,0,1-.91,2.88l0,0H63s-2.76.1-4.38-3.58l-.08.26c-.66,2.09-1.33,4.25-3.55,5.26l-.2.08,0-.21c.17-2.08-.35-2.81-.94-3.47-.06,7.22.13,15.21.24,19.95,0,2,.09,3.46.09,4.12,0,2-3.15,3.09-6.27,3.09A10.07,10.07,0,0,1,43.83,88,2.66,2.66,0,0,1,42,85.64c0-1.34.45-5.2,1-10.08.5-4.07,1.08-8.74,1.52-13.14-2.21-.22-3.26.23-3.75.67a1.46,1.46,0,0,0-.52,1,4.48,4.48,0,0,1-1.57,3.33C38,68.1,37.34,68.72,37.3,71v.2l-.18-.1c-2-1.08-2.54-2.91-3.12-4.84-.09-.33-.2-.67-.31-1a9.8,9.8,0,0,1-4.6,4.48l-.1,0,0-.09a5.52,5.52,0,0,1-.65-3.81,5.1,5.1,0,0,0-.15-2.47,2.78,2.78,0,0,1,.61-3c.34-.44.53-.7.4-1a.87.87,0,0,0-.52-.45c-1.27-.46-4,.86-4.07.87l-.18.09v-.2c0-.12.05-2.66,2.72-5.74a3.06,3.06,0,0,1,1.38-5.23,3,3,0,0,1-.28-1.26,3.06,3.06,0,0,1,5-2.39l0-.1c-.09-4.13.81-6.69,1.76-8.22l-2.62-2.25c-2.66-2.27-5.34-4.57-7.63-6.72a16.65,16.65,0,0,1-2.42,4.09A3.13,3.13,0,0,1,24.62,34a3.59,3.59,0,0,1,.46-.05A3.14,3.14,0,0,1,26,40.06a2.33,2.33,0,0,1,0,.37,3.15,3.15,0,0,1-3.15,3.15,3.23,3.23,0,0,1-.76-.1,3.15,3.15,0,0,1,.21.88,7.13,7.13,0,0,1,1.53,2.14l.06.13-.14,0a15,15,0,0,1-2.52.38,3.11,3.11,0,0,1-1.14.63A7.29,7.29,0,0,1,23,49.79c1,1.3.54,3.18.13,5a7.05,7.05,0,0,0-.26,3.53l.07.19-.2,0s-4.41-.4-5.58-3.68c-.89-2.5-1.37-2.59-1.45-2.58s-.2.2-.25.47c-.13.76.73,2.67,2.2,4.29a5.28,5.28,0,0,1,.66,6.13,5.87,5.87,0,0,1-1.53,1.29,2.92,2.92,0,0,0-1.69,2.39v.13l-.13,0s-3.36-.62-4.26-3.56A3.11,3.11,0,0,1,8.91,60a10.91,10.91,0,0,1,1.21-3c.24-.44.45-.82.38-1a.07.07,0,0,0,0,0c-.06,0-.22.08-.35.16s-.58.34-.86.15a.37.37,0,0,1-.17-.25c-.07-.41.46-1.09,1.07-1.87s1.31-1.67,1-1.92c0,0,0,0,0,0-.31,0-1.05,1-1.77,1.94-1.32,1.74-3,3.92-4.18,3.5C3.33,57,2.83,54,3.05,53a2.58,2.58,0,0,1-1.5-1,1.15,1.15,0,0,1-.05-1c.29-.87,2-1.58,3.44-2.21.85-.36,1.82-.78,1.9-1,0,0,0,0,0,0-.12-.29-.55-.39-1-.49s-1.28-.29-1.46-.91h0a3.22,3.22,0,0,1,1.2-2.63c1-.84,2.71-1.58,5.84-.83a3.16,3.16,0,0,1,1.39-2,3.13,3.13,0,0,1-1.53-2.68,3.1,3.1,0,0,1,.34-1.39,3.15,3.15,0,0,1,2.16-5.43,3,3,0,0,1,1.41.35,3.11,3.11,0,0,1,4.84,0,13.28,13.28,0,0,0,3.31-5.3c-3.56-3.52-5.72-6.49-4.4-8.06a1.2,1.2,0,0,1,.86-.43h.12a3.22,3.22,0,0,1,1.14.27,11.68,11.68,0,0,1,2.3.24c-.61-.59-1.79-1.92-1.57-3.33.05-.39-.26-.64-.66-.95a2.64,2.64,0,0,1-1.21-2.72,3.28,3.28,0,0,0-.33-2,3.49,3.49,0,0,1-.1-2.93l0,0,.06,0s2.62-.94,5.3,1.93C24.73,6,24.62,3.59,26.51,1.9l.16-.13,0,.2c.55,2.2,1.35,2.65,2.2,3.12a4.17,4.17,0,0,1,2.26,2.77,1.48,1.48,0,0,0,.74.87c.61.33,1.82.54,4.13-.3l.17-.06v.17a19.77,19.77,0,0,1-1.66,7.76c-.33.77-.38,1.28-.15,1.48.52.43,2.29-.4,3.67-1.18a4.38,4.38,0,0,1,.62-.52,2.84,2.84,0,0,1,2.25-.6c1.14.23,1.37,2.63,1.58,4.76A6.3,6.3,0,0,0,43,22.59c.34,0,.21-1.12.12-1.91s-.2-1.74.07-2.05a.35.35,0,0,1,.29-.13c.28,0,.42.28.53.51s.13.28.2.31a.1.1,0,0,0,.08,0,2.28,2.28,0,0,0,.11-.88,9.16,9.16,0,0,1,.55-3.08A2.9,2.9,0,0,1,48,13.53c2.11-1.85,5-.72,5.05-.71l.12,0,0,.12a2.75,2.75,0,0,0,.18,2.65,4.87,4.87,0,0,1,.55,1.75c.14,1.76-1.48,3.83-3.47,4.45s-3.49,1.66-3.82,2.31c-.1.22-.13.42,0,.48s.47.27,2.37-1.35a5.52,5.52,0,0,1,4.85-.65,1.06,1.06,0,0,1,0-.66,2.44,2.44,0,0,1,1.19-1.18c-.34-.92-.33-3.72,1.25-4.65,1-.55,2.79,1.1,4.34,2.56.79.75,1.61,1.52,1.91,1.52a.06.06,0,0,0,.05,0c.21-.26-.57-1-1.2-1.52S60,17.52,60,17.1a.41.41,0,0,1,.14-.3c.23-.23.56-.1.83,0,.11.05.28.12.33.09l0,0c0-.16-.21-.47-.53-.87a9,9,0,0,1-1.56-2.58,3,3,0,0,1,1.15-3.35c.33-2.81,3.29-3.85,3.32-3.86l.12,0,0,.12a2.65,2.65,0,0,0,1.87,1.84,4.55,4.55,0,0,1,1.62,1c1.45,1.29,1.37,4,.38,5.62A7.13,7.13,0,0,0,66.45,19c.09.24.21.39.32.39h0c.09,0,.55-.17.94-2.54.51-3.14,4.44-4.19,4.48-4.2l.19,0,0,.19a6.65,6.65,0,0,0,.78,3.18c.63,1.58,1.29,3.21.65,4.56a7.63,7.63,0,0,1-3.47,3.07,15.86,15.86,0,0,1,4.6-.37h.14l0,.14a6.21,6.21,0,0,1-.86,2c6.07-3.89,10.79-6.85,12-6.35a1.52,1.52,0,0,1,1,1.35c.18,1.92-1.76,4.18-4,6.12a12.72,12.72,0,0,1,.12,1.27,2.33,2.33,0,0,1,.38,0,2.89,2.89,0,0,1,.78.12,2.93,2.93,0,1,1,4.09,3.6A2.94,2.94,0,0,1,90.14,34a2.9,2.9,0,0,1-1.48,2.52,2.93,2.93,0,0,1,1,2.23,2.75,2.75,0,0,1-.13.81.71.71,0,0,1,0,.15h0a1.05,1.05,0,0,1-.07.11A2.93,2.93,0,0,1,88,41.34l.89.43c1.33.64,2.83,1.36,3.08,2.15A1.16,1.16,0,0,1,91.89,44.87Z"/><path class="cls-1" d="M36.3,37.85l-.13.24A12.92,12.92,0,0,0,35,43.6a27,27,0,0,1,5.64,2.7,13.32,13.32,0,0,1,4.58,5.38,18.25,18.25,0,0,0-.38-4.52C44.21,45.05,40.66,41.66,36.3,37.85Zm5.05,7.23a32.32,32.32,0,0,0-4.89-2.46,12.49,12.49,0,0,1,.41-2.38,51.15,51.15,0,0,1,5.6,5.62A10.12,10.12,0,0,0,41.35,45.08Z"/><path class="cls-1" d="M75.6,51.59c0-.07,0-.15.05-.23a1.09,1.09,0,0,1-.24.07Z"/><path class="cls-1" d="M77.77,30.39c-2.45,1.53-5,3-7.47,4.43l-2.17,1.26a11.36,11.36,0,0,1,2,6.43A2.73,2.73,0,0,1,71.66,42a2.88,2.88,0,0,1,.59.06,8,8,0,0,1,4-2.2h-.09a15.64,15.64,0,0,1-4.5-.57l-.14,0,.06-.13A7.78,7.78,0,0,1,76,35.53a3.44,3.44,0,0,1,2.87.34,4.83,4.83,0,0,0,1.54.69,2.84,2.84,0,0,1-.08-.66,2.58,2.58,0,0,1,0-.4l-.2,0a2.93,2.93,0,0,1,0-5.86,2.84,2.84,0,0,1,.72.1,3,3,0,0,1,1-1.47c0-.27,0-.53,0-.77A47.65,47.65,0,0,1,77.77,30.39Zm-2.16,3.77a9.31,9.31,0,0,0-5,3.7,11.32,11.32,0,0,0-.56-1.29l.91-.52c1.59-.92,3.22-1.87,4.84-2.83a4.38,4.38,0,0,0,.2.83Z"/><path class="cls-1" d="M66.71,36.91c-1.79,1.06-3.5,2.1-5,3.12l.41.3h0l.21.15a6.66,6.66,0,0,1,2.46,4.27,2.63,2.63,0,0,1,.49,0h0A2.78,2.78,0,0,1,68,42.61a3.07,3.07,0,0,1,.53,0A11.32,11.32,0,0,0,67.44,38,5.75,5.75,0,0,0,66.71,36.91ZM65.39,42.1a7.38,7.38,0,0,0-1.32-1.93c.67-.42,1.39-.86,2.19-1.34a8.9,8.9,0,0,1,.7,2.49A4.29,4.29,0,0,0,65.39,42.1Z"/><path class="cls-1" d="M65.55,28a9.37,9.37,0,0,1-4.42,1.37,4.15,4.15,0,0,1-2.28-.62,2.87,2.87,0,0,1-1.43-2.19h0c0-.59.66-.85,1.15-1.05.34-.14.65-.28.65-.45v0c-.13-.25-1.07-.47-1.9-.66a14.83,14.83,0,0,1-2.53-.75,8.72,8.72,0,0,0-1.21,2.56c-.57,1.62-1.15,3.3-2.54,3.89a7.91,7.91,0,0,1-4.77,0,17.6,17.6,0,0,1,3.8,2.83l.1.11-.12.08A7.24,7.24,0,0,1,46,34.33a6.7,6.7,0,0,1-1.37-.14,3.55,3.55,0,0,1-2.48-1.76,3.46,3.46,0,0,0-2.16-2A12,12,0,0,1,39.5,33a30.84,30.84,0,0,0,8.44,5c3.24,1.1,11.08-3.23,18.83-8A12.71,12.71,0,0,0,65.55,28ZM49.12,36.77a2.31,2.31,0,0,1-.74-.11,14.69,14.69,0,0,1-2.18-.92,8.58,8.58,0,0,0,4.71-1.48l.11-.08a1.42,1.42,0,0,0,.2-2.1l-.09-.1-.3-.3a5.8,5.8,0,0,0,.77-.26c2-.84,2.69-2.91,3.33-4.73.14-.4.31-.88.49-1.3l.85.22a2.21,2.21,0,0,0-.26.89A4.13,4.13,0,0,0,58.09,30a5.56,5.56,0,0,0,3,.85,8.31,8.31,0,0,0,1.93-.25C58,33.61,52.11,36.77,49.12,36.77Z"/></svg>