<svg id="圖層_1" data-name="圖層 1" xmlns="http://www.w3.org/2000/svg" viewBox="0 0 102.78 64.49"><defs><style>.cls-1{fill:#fff;}</style></defs><title>0</title><path class="cls-1" d="M102.62,30.69a9.47,9.47,0,0,0-.44-1.85l-.13-.42a1,1,0,0,0-.09-.21l-.17-.34a13,13,0,0,0-1-1.72l-.17-.21a7,7,0,0,1-.58-.7l-.13-.15-.18-.16a4.19,4.19,0,0,1-.34-.28c-.15-.14-.32-.28-.47-.4a6.26,6.26,0,0,0-2.82-1.33l-.27-.05a6.2,6.2,0,0,0-1-.11,2.85,2.85,0,0,0-.5,0,6.07,6.07,0,0,0-1,.1l-.11,0a6.75,6.75,0,0,0-2.5,1c0-.63-.09-1.26-.16-1.89a42.88,42.88,0,0,0-.67-4.46l-.12-.62a1.42,1.42,0,0,0-2.78,0l-.12.62c-.2,1-.34,2.06-.46,3l0,.15c0,.42-.11.85-.18,1.34,0,.17,0,.34,0,.51l-.14-.16a15,15,0,0,0-2.28-2,3.53,3.53,0,0,0-.65-.44L83,19.85a4.93,4.93,0,0,0-.48-.28l-.16-.08a1,1,0,0,0-.2-.11L82,19.31l-.72-.23-.68-.22a7.34,7.34,0,0,0-2.11-.33,6.33,6.33,0,0,0-1.43.16l-.69.16a1.42,1.42,0,0,0,.15,2.79l.7.09A7,7,0,0,1,81,23.52c.2.2.4.42.61.67a8.07,8.07,0,0,0-1-.07h-.11a9.79,9.79,0,0,0-3.2.62,9.46,9.46,0,0,0-2.82,1.71,10.78,10.78,0,0,0-2,2.41,18.91,18.91,0,0,0-1.33,2.49A16.28,16.28,0,0,0,70.31,34c-.2.73-.34,1.47-.48,2.24l-.06.35s0,.09,0,.14c0,.28,0,.55-.08.83a14.46,14.46,0,0,0-.14,1.81V40.5a1.42,1.42,0,0,0,1.27,1.41H71a1.41,1.41,0,0,0,1.38-1.12l.25-1.13a30.17,30.17,0,0,1,1.5-4.55,16.58,16.58,0,0,1,2.18-3.84,6,6,0,0,1,2.79-2.14,5.2,5.2,0,0,1,1.5-.21,1.92,1.92,0,0,1,1,.36,4.35,4.35,0,0,1,1,1.12l0,.05a9.82,9.82,0,0,0-3.13.51,8.15,8.15,0,0,0-2.84,1.68,8.54,8.54,0,0,0-1.91,2.42,10.46,10.46,0,0,0-1.07,2.65.5.5,0,0,0,0,.13l-.09.44a8.28,8.28,0,0,0-.22,2.34l.05.52a1.43,1.43,0,0,0,1.21,1.28h.2a1.42,1.42,0,0,0,1.32-.89l.19-.49a12.05,12.05,0,0,1,.9-1.86,11.17,11.17,0,0,1,1.14-1.66l.07-.08a8,8,0,0,1,1.2-1.2,3.6,3.6,0,0,1,1.21-.6,8.53,8.53,0,0,1,1.66-.18,1.83,1.83,0,0,1,.92.29A5.16,5.16,0,0,1,85,38.37a24.31,24.31,0,0,1,.73,3.22c0,.6.07,1.17.12,1.69l0,.29A1.32,1.32,0,0,0,86,44c0,.21,0,.42,0,.63s0,2.11,0,2.11c0,2.64.06,7,.06,8.9a2.46,2.46,0,0,0,2.4,2.4,2.38,2.38,0,0,0,2.41-2.3,23.36,23.36,0,0,0,.08-2.5,6.76,6.76,0,0,1,.28-1.38l0-.14a6.91,6.91,0,0,1,.53-1.45l.07-.16A13.83,13.83,0,0,1,93.42,47a6.74,6.74,0,0,1,1-1.17l.08-.07A5.44,5.44,0,0,1,95.59,45a3.89,3.89,0,0,1,1.28-.35h.2a6.09,6.09,0,0,1,.87.08l.62.07.78.08h.14a1.42,1.42,0,0,0,.57-2.72l-.71-.31A12.88,12.88,0,0,0,97,41a5.42,5.42,0,0,0-1.08-.11,6.94,6.94,0,0,0-1.9.28,7.08,7.08,0,0,0-2.5,1.26,7.67,7.67,0,0,0-.62.46,70,70,0,0,1,.41-7.18c0-.3.1-.6.15-1A22,22,0,0,1,92,32,9.35,9.35,0,0,1,93.1,29a2.29,2.29,0,0,0,.14-.27l0-.09.06-.08.16-.22a1.37,1.37,0,0,1,.18-.16l.24-.22a1.39,1.39,0,0,1,.65-.34.56.56,0,0,0,.16-.07h.55l.16,0a3.7,3.7,0,0,1,1,.37,6.41,6.41,0,0,1,1.94,2.14,17,17,0,0,1,1.44,3.29l.24.73a1.43,1.43,0,0,0,1.35,1,.82.82,0,0,0,.22,0,1.42,1.42,0,0,0,1.2-1.39V31.93A6.77,6.77,0,0,0,102.62,30.69Zm-1.26,3-.24-.74a18.31,18.31,0,0,0-1.58-3.57,7.71,7.71,0,0,0-2.4-2.62,4.73,4.73,0,0,0-1.33-.52l-.15,0a3,3,0,0,0-.76-.07,1.44,1.44,0,0,0-.74.13,2.79,2.79,0,0,0-1.26.7l-.16.15a2.52,2.52,0,0,0-.4.4l-.13.18a1.39,1.39,0,0,0-.28.5l0,0a10.47,10.47,0,0,0-1.28,3.42,21.75,21.75,0,0,0-.57,2.87l-.15.93a69.54,69.54,0,0,0-.42,7.63c0,1.37,0,2.44,0,2.72v.93a10.45,10.45,0,0,1,1.22-1.66,8.47,8.47,0,0,1,1.68-1.53,5.57,5.57,0,0,1,2.05-1,4.88,4.88,0,0,1,2.29-.14h0a12.72,12.72,0,0,1,2,.72l.71.32-.78-.08-.58-.07a6.15,6.15,0,0,0-1.41-.07A5.31,5.31,0,0,0,95,43.7a6.77,6.77,0,0,0-1.48,1.06,7.55,7.55,0,0,0-1.21,1.41,15.74,15.74,0,0,0-1.72,3.43,8.2,8.2,0,0,0-.64,1.79,9.3,9.3,0,0,0-.36,1.79s0,1.37-.07,2.44a1,1,0,0,1-1,1,1.06,1.06,0,0,1-1-1c0-2,0-6.74,0-9.32,0-.95,0-1.6,0-1.69,0-.4,0-.79,0-1.17H87.3l0-.3c-.06-.56-.1-1.1-.12-1.68a26.07,26.07,0,0,0-.79-3.51,6.46,6.46,0,0,0-2.11-3.32,3.3,3.3,0,0,0-1.67-.55,9.62,9.62,0,0,0-2,.21,5,5,0,0,0-1.75.84,9.54,9.54,0,0,0-1.49,1.49A13.58,13.58,0,0,0,76,38.47a14,14,0,0,0-1,2.07l-.2.48,0-.52A7,7,0,0,1,75,38.57c0-.16.07-.32.09-.48a9.26,9.26,0,0,1,1-2.34A7.27,7.27,0,0,1,80,32.31a8.58,8.58,0,0,1,2.7-.44,4.91,4.91,0,0,1,2.6.76c-.13-.34-.26-.68-.41-1a10.29,10.29,0,0,0-1.07-2,5.84,5.84,0,0,0-1.4-1.48,3.38,3.38,0,0,0-1.75-.62,6.42,6.42,0,0,0-2,.28,7.33,7.33,0,0,0-3.47,2.62,18.43,18.43,0,0,0-2.36,4.15,31.52,31.52,0,0,0-1.57,4.8L71,40.5V39.34a15.07,15.07,0,0,1,.12-1.65c0-.29.07-.58.1-.88l.06-.35c.13-.7.26-1.43.44-2.12a16.77,16.77,0,0,1,.8-2.39,17.85,17.85,0,0,1,1.23-2.32,9.28,9.28,0,0,1,1.75-2.11,8.36,8.36,0,0,1,2.41-1.47,9.15,9.15,0,0,1,2.77-.51h0a5.43,5.43,0,0,1,1.55.22,6,6,0,0,1,1.41.66,7.6,7.6,0,0,1,1.71,1.52c-.16-.44-.33-.87-.53-1.29a13,13,0,0,0-1.21-2.21A14.52,14.52,0,0,0,82,22.51a8.51,8.51,0,0,0-4.61-2.19l-.71-.09.7-.16a5.19,5.19,0,0,1,2.8.15l.69.22.68.21,0,0,.31.17a2.37,2.37,0,0,1,.34.19l.21.12a2.27,2.27,0,0,1,.46.32,14.14,14.14,0,0,1,2.15,1.87,10.66,10.66,0,0,1,1.61,2.41c.23.47.46.93.67,1.4l0-.7c.07-1.42.14-2.88.29-4.32.07-.49.14-1,.2-1.45.13-.94.26-1.92.45-2.89l.12-.61.12.61a43.54,43.54,0,0,1,.65,4.33c.15,1.45.22,2.91.29,4.33,0,.29,0,.59,0,.88l.16-.29a6.65,6.65,0,0,1,1.55-1.76,5.19,5.19,0,0,1,2.28-1l.09,0a3.33,3.33,0,0,1,1.18-.06,4.94,4.94,0,0,1,.89.1l.26.05a4.84,4.84,0,0,1,2.15,1l.43.36q.21.2.42.36l0,0a6.66,6.66,0,0,0,.71.85,15.88,15.88,0,0,1,.86,1.56c0,.12.11.23.17.35l.13.42a7.85,7.85,0,0,1,.38,1.64,5.47,5.47,0,0,1,.15,1Z"/><path class="cls-1" d="M70.56,29l.6.06h.15A1.42,1.42,0,0,0,72,26.41l-.53-.29a7.06,7.06,0,0,0-2.52-.9,5.72,5.72,0,0,0-1-.09,6.65,6.65,0,0,0-1.81.26,6.07,6.07,0,0,0-2.58,1.27c-.22.16-.43.31-.62.47A70,70,0,0,1,63.31,20c0-.31.1-.62.15-1A22,22,0,0,1,64,16.21a9.26,9.26,0,0,1,1.09-3,1.66,1.66,0,0,0,.13-.27.36.36,0,0,0,0-.09l.06-.09c.07-.08.13-.17.16-.21a1.25,1.25,0,0,1,.17-.16l.25-.23a1.31,1.31,0,0,1,.65-.33l.16-.07h.18a1.89,1.89,0,0,1,.37,0l.15,0a4,4,0,0,1,1,.36,6.36,6.36,0,0,1,1.94,2.15,16.68,16.68,0,0,1,1.44,3.29l.24.73a1.43,1.43,0,0,0,1.35,1l.22,0a1.42,1.42,0,0,0,1.2-1.4V16.16a6.66,6.66,0,0,0-.16-1.23,9.2,9.2,0,0,0-.44-1.84l-.13-.43a1.19,1.19,0,0,0-.08-.2l-.17-.34a12.7,12.7,0,0,0-1-1.73,1.2,1.2,0,0,0-.17-.21,6.74,6.74,0,0,1-.58-.7L72,9.31l-.17-.14-.34-.28c-.15-.14-.32-.28-.47-.4a6.29,6.29,0,0,0-2.8-1.33l-.25,0a7.11,7.11,0,0,0-1-.12l-.49,0a5.89,5.89,0,0,0-1,.11l-.12,0a6.9,6.9,0,0,0-2.5,1c0-.62-.09-1.25-.16-1.88a43.07,43.07,0,0,0-.67-4.47l-.12-.61a1.42,1.42,0,0,0-2.78,0l-.12.61c-.2,1-.34,2.06-.46,3l0,.16c-.05.42-.11.84-.18,1.33l-.06.59L58,6.56a14.61,14.61,0,0,0-2.27-2A3.88,3.88,0,0,0,55,4.14l-.09,0a3.57,3.57,0,0,0-.51-.29l-.14-.07a1.18,1.18,0,0,0-.19-.11l-.18-.08-.73-.23-.68-.21a6.92,6.92,0,0,0-2.1-.34A6.35,6.35,0,0,0,49,2.93l-.71.16a1.42,1.42,0,0,0,.16,2.79l.72.08a6.59,6.59,0,0,1,3.76,1.79c.24.24.44.45.63.67a7,7,0,0,0-.91-.06h-.11A10.4,10.4,0,0,0,49.32,9,9.56,9.56,0,0,0,46.5,10.7a11,11,0,0,0-2,2.4,19,19,0,0,0-1.33,2.5,16.52,16.52,0,0,0-.87,2.6c-.21.76-.35,1.55-.48,2.25l-.06.35s0,.09,0,.13c0,.29,0,.56-.08.83s-.07.6-.1.92a1.39,1.39,0,0,0-.39.7l-.12.62c-.2,1-.34,2-.47,3l0,.17c0,.41-.11.83-.18,1.32,0,.17,0,.34,0,.5l-.06-.07a14.88,14.88,0,0,0-2.29-2,3.52,3.52,0,0,0-.66-.45l-.09-.05a5,5,0,0,0-.49-.28L36.59,26l-.18-.11-.19-.07-.72-.23-.68-.22a7.34,7.34,0,0,0-2.11-.33,6.33,6.33,0,0,0-1.43.16l-.69.16a1.42,1.42,0,0,0-1.1,1.46,1.32,1.32,0,0,0,.24.67,12.83,12.83,0,0,0-2.26-.79,5.52,5.52,0,0,0-1.09-.1,6.65,6.65,0,0,0-1.81.26A6,6,0,0,0,22,28.18c-.2.13-.38.27-.55.4,0-2.39.16-4.81.41-7.12l.15-1a22.24,22.24,0,0,1,.55-2.77,9.35,9.35,0,0,1,1.09-2.95c.05-.08.1-.19.14-.27l0-.09.07-.09.15-.21a1.45,1.45,0,0,1,.18-.17l.23-.21a1.27,1.27,0,0,1,.66-.34.56.56,0,0,0,.16-.07h.55l.15,0a4,4,0,0,1,1,.36,6.56,6.56,0,0,1,1.94,2.15,16.68,16.68,0,0,1,1.44,3.29l.24.73a1.43,1.43,0,0,0,1.35,1l.22,0a1.42,1.42,0,0,0,1.2-1.4V17.67a7.14,7.14,0,0,0-.16-1.23,9.47,9.47,0,0,0-.44-1.85l-.13-.42A1,1,0,0,0,32.5,14l-.17-.34a12.38,12.38,0,0,0-.95-1.72,1.73,1.73,0,0,0-.17-.21,7,7,0,0,1-.58-.7,1.83,1.83,0,0,0-.13-.16l-.18-.15A4.19,4.19,0,0,1,30,10.4c-.15-.14-.32-.28-.47-.4a6.26,6.26,0,0,0-2.82-1.33l-.23,0a5.13,5.13,0,0,0-1-.12,2.77,2.77,0,0,0-.49,0,6.25,6.25,0,0,0-1,.11l-.12,0a6.76,6.76,0,0,0-2.56,1.06c0-.64-.09-1.28-.16-1.93-.15-1.47-.37-3-.67-4.47l-.12-.61a1.42,1.42,0,0,0-2.78,0l-.12.62c-.2,1-.34,2-.47,3-.06.47-.12.94-.2,1.48l-.06.58a1.07,1.07,0,0,0-.14-.16,14.66,14.66,0,0,0-2.27-2,3.88,3.88,0,0,0-.66-.45l-.09,0A3.53,3.53,0,0,0,13,5.39l-.14-.08a1,1,0,0,0-.2-.11l-.17-.07-.72-.23-.69-.22A7.22,7.22,0,0,0,9,4.35a6.27,6.27,0,0,0-1.43.16l-.7.16A1.42,1.42,0,0,0,7,7.46l.71.09a7,7,0,0,1,3.77,1.79c.21.2.4.4.57.59a7.26,7.26,0,0,0-.93-.06H11a10,10,0,0,0-3.2.61A9.56,9.56,0,0,0,5,12.21a10.26,10.26,0,0,0-2,2.41,18.91,18.91,0,0,0-1.33,2.49,17.07,17.07,0,0,0-.88,2.61C.57,20.45.44,21.19.3,22l-.06.35a.59.59,0,0,0,0,.13c0,.29,0,.56-.09.83A16.74,16.74,0,0,0,0,25.09V26a1.43,1.43,0,0,0,1.23,1.41h.19a1.4,1.4,0,0,0,1.36-1L3,25.49c.25-.92.55-1.83.87-2.79.2-.62.41-1.26.6-1.9A17.17,17.17,0,0,1,6.65,17a5.94,5.94,0,0,1,2.79-2.14A5.28,5.28,0,0,1,11,14.68,2,2,0,0,1,12,15,4.53,4.53,0,0,1,13,16.16l0,.05a9.34,9.34,0,0,0-3,.51,8.27,8.27,0,0,0-2.84,1.67,8.64,8.64,0,0,0-1.91,2.42,10.92,10.92,0,0,0-1.08,2.66.5.5,0,0,0,0,.12L4,24a7.9,7.9,0,0,0-.22,2.34l.05.52a1.41,1.41,0,0,0,1.21,1.27l.2,0A1.43,1.43,0,0,0,6.6,27.3l.19-.49A12.05,12.05,0,0,1,7.69,25a10.47,10.47,0,0,1,1.14-1.66l.06-.08A8.14,8.14,0,0,1,10.1,22a3.77,3.77,0,0,1,1.21-.59A8.53,8.53,0,0,1,13,21.23a1.83,1.83,0,0,1,.92.29,5.09,5.09,0,0,1,1.58,2.59A26,26,0,0,1,16.31,28c0,.35.05.69.09,1l0,.32a.45.45,0,0,0,0,.16c0,.29,0,.57,0,.86,0,.1,0,2.11,0,2.11,0,2.64.06,7.06.06,8.91a2.46,2.46,0,0,0,2.4,2.4,2.37,2.37,0,0,0,2.4-2.3A24.4,24.4,0,0,0,21.45,39a6.77,6.77,0,0,1,.27-1.37.57.57,0,0,0,0-.14A6.29,6.29,0,0,1,22.29,36a.77.77,0,0,0,.07-.16,14.05,14.05,0,0,1,1.53-3.08,6.6,6.6,0,0,1,1-1.16l.08-.07a5.18,5.18,0,0,1,1.11-.79,4.06,4.06,0,0,1,1.28-.36h.2a6,6,0,0,1,.86.09l.63.07.77.08H30a1.42,1.42,0,0,0,1.37-1.05A1.44,1.44,0,0,0,31,28.22l.47.06a7,7,0,0,1,3.77,1.79c.2.2.39.4.56.59a7.11,7.11,0,0,0-.92-.06h-.11a10.09,10.09,0,0,0-3.21.61,9.37,9.37,0,0,0-2.81,1.72,10.56,10.56,0,0,0-2,2.41,19.49,19.49,0,0,0-1.33,2.49,16.52,16.52,0,0,0-.87,2.6c-.21.77-.35,1.57-.48,2.28L24,43s0,.09,0,.13c0,.28,0,.56-.08.84a14.46,14.46,0,0,0-.14,1.81v.93A1.43,1.43,0,0,0,25,48.16h.19a1.42,1.42,0,0,0,1.37-1.05l.24-.89A45.74,45.74,0,0,1,28.3,41.6a16.37,16.37,0,0,1,2.18-3.84,5.94,5.94,0,0,1,2.79-2.14,5.22,5.22,0,0,1,1.51-.21,1.92,1.92,0,0,1,1,.36,4.56,4.56,0,0,1,1.06,1.12l0,0h0a9.63,9.63,0,0,0-3.15.52,8.27,8.27,0,0,0-2.84,1.67,8.83,8.83,0,0,0-1.91,2.42,10.69,10.69,0,0,0-1.07,2.66l0,.12-.09.45a7.93,7.93,0,0,0-.22,2.34l.05.52a1.41,1.41,0,0,0,1.21,1.27l.2,0A1.43,1.43,0,0,0,30.28,48l.19-.49a12.54,12.54,0,0,1,.9-1.86A11,11,0,0,1,32.51,44l.07-.08a8.08,8.08,0,0,1,1.2-1.21A3.77,3.77,0,0,1,35,42.14,8.53,8.53,0,0,1,36.65,42a1.83,1.83,0,0,1,.92.29,5.17,5.17,0,0,1,1.59,2.59A28.73,28.73,0,0,1,40,48.92c.06.66.14,1.43.14,2.15,0,.1,0,.75,0,1.71,0,2.57.06,7.36.06,9.31a2.46,2.46,0,0,0,2.4,2.4,2.37,2.37,0,0,0,2.4-2.3c.07-1,.08-2.12.08-2.46a6.81,6.81,0,0,1,.28-1.4l.17-.51a7.17,7.17,0,0,1,.4-1.11.77.77,0,0,0,.07-.16,14.2,14.2,0,0,1,1.53-3.07,6.33,6.33,0,0,1,1-1.17l.08-.07a5.86,5.86,0,0,1,1.11-.8A4.46,4.46,0,0,1,51,51.09h.2a7.1,7.1,0,0,1,.91.09l.58.07.67.07h.15a1.42,1.42,0,0,0,.63-2.69l-.61-.3a9.8,9.8,0,0,0-2.4-.86,5.52,5.52,0,0,0-1.09-.1,6.6,6.6,0,0,0-1.81.26,6,6,0,0,0-2.58,1.28,5.92,5.92,0,0,0-.48.35c0-2.38.16-4.78.41-7.07,0-.31.1-.62.15-1a22.43,22.43,0,0,1,.56-2.78,9.09,9.09,0,0,1,1.08-3,1.65,1.65,0,0,0,.14-.26l0-.1.08-.1a2,2,0,0,0,.14-.2,1.54,1.54,0,0,1,.19-.17l.23-.21a1.27,1.27,0,0,1,.65-.34.56.56,0,0,0,.16-.07h.55l.16,0a4,4,0,0,1,1,.36,6.65,6.65,0,0,1,1.93,2.15,16.68,16.68,0,0,1,1.44,3.29l.25.73a1.4,1.4,0,0,0,1.34,1l.23,0a1.42,1.42,0,0,0,1.19-1.4V38.41a6.77,6.77,0,0,0-.16-1.24,8.87,8.87,0,0,0-.44-1.84l-.13-.43a1.19,1.19,0,0,0-.08-.2l-.17-.34a13.68,13.68,0,0,0-1-1.73,1.81,1.81,0,0,0-.18-.21,6.74,6.74,0,0,1-.58-.7,2.09,2.09,0,0,0-.14-.17l-.16-.14c-.12-.08-.23-.19-.38-.31s-.29-.26-.44-.37a6.3,6.3,0,0,0-2.79-1.33l-.25,0a5.13,5.13,0,0,0-1-.12,2.77,2.77,0,0,0-.49,0,6.13,6.13,0,0,0-1,.11l-.12,0a6.77,6.77,0,0,0-2.64,1.11c0-.65-.09-1.31-.16-2-.11-1.11-.28-2.22-.47-3.33,0-.05,0-.08,0-.13l.25-1.08a29,29,0,0,1,1.5-4.56,16.37,16.37,0,0,1,2.18-3.84,5.89,5.89,0,0,1,2.79-2.14,5.15,5.15,0,0,1,1.5-.21,1.92,1.92,0,0,1,1,.36,4.3,4.3,0,0,1,1.05,1.11.1.1,0,0,0,0,0,10.11,10.11,0,0,0-3.13.51,8.46,8.46,0,0,0-2.84,1.68,8.83,8.83,0,0,0-1.91,2.42A10.69,10.69,0,0,0,45.69,22a.53.53,0,0,0,0,.12l-.09.45a8.17,8.17,0,0,0-.22,2.33l0,.52a1.41,1.41,0,0,0,1.2,1.28l.21,0a1.43,1.43,0,0,0,1.32-.89l.19-.49a12.54,12.54,0,0,1,.9-1.86,11.17,11.17,0,0,1,1.14-1.66.27.27,0,0,1,.07-.08,8.08,8.08,0,0,1,1.2-1.21,3.77,3.77,0,0,1,1.21-.59,8.53,8.53,0,0,1,1.66-.18,1.83,1.83,0,0,1,.92.29A5.12,5.12,0,0,1,57,22.6a24.5,24.5,0,0,1,.73,3.23c0,.6.07,1.16.12,1.68l0,.3a1.4,1.4,0,0,0,.11.4c0,.21,0,.41,0,.62S58,31,58,31c0,2.64.06,7.05.06,8.89a2.46,2.46,0,0,0,2.4,2.41A2.38,2.38,0,0,0,62.9,40,23.58,23.58,0,0,0,63,37.44a6.81,6.81,0,0,1,.28-1.37l0-.14a6.79,6.79,0,0,1,.53-1.46.77.77,0,0,0,.07-.16,14.27,14.27,0,0,1,1.53-3.08,6.66,6.66,0,0,1,1-1.16l.08-.08a6.24,6.24,0,0,1,1.11-.79,4.46,4.46,0,0,1,1.28-.35h.2a7.41,7.41,0,0,1,.92.09Zm-41.39.1L28.59,29A6.15,6.15,0,0,0,27.18,29a5.45,5.45,0,0,0-1.76.49,7.62,7.62,0,0,0-1.48,1.05,7.93,7.93,0,0,0-1.2,1.42A15.74,15.74,0,0,0,21,35.35a7.71,7.71,0,0,0-.64,1.79A8.51,8.51,0,0,0,20,38.92s0,1.37-.07,2.44a1,1,0,0,1-1,1,1.06,1.06,0,0,1-1-1c0-2,0-6.75-.06-9.32,0-.95,0-1.6,0-1.7,0-.39,0-.78,0-1.16h0l0-.32c0-.36-.07-.7-.09-1.06a30.09,30.09,0,0,0-.89-4.11,6.41,6.41,0,0,0-2.12-3.32A3.32,3.32,0,0,0,13,19.81,10.2,10.2,0,0,0,11,20a5,5,0,0,0-1.75.84,9.54,9.54,0,0,0-1.49,1.49,12,12,0,0,0-1.29,1.86,13.93,13.93,0,0,0-1,2.07l-.19.48,0-.52a6.6,6.6,0,0,1,.2-1.93l.09-.48a9.11,9.11,0,0,1,1-2.34,7.28,7.28,0,0,1,1.61-2.05,6.79,6.79,0,0,1,2.35-1.39,8.53,8.53,0,0,1,2.7-.44,4.93,4.93,0,0,1,2.5.7c-.12-.32-.24-.64-.38-.95a10.86,10.86,0,0,0-1.07-2,5.87,5.87,0,0,0-1.41-1.48A3.4,3.4,0,0,0,11,13.26a6.61,6.61,0,0,0-2,.29,7.28,7.28,0,0,0-3.47,2.62,17.69,17.69,0,0,0-2.36,4.15c-.2.64-.41,1.3-.62,1.94-.32,1-.63,1.91-.89,2.86l-.24.9v-.93a14.9,14.9,0,0,1,.12-1.65c0-.29.07-.58.09-.88l.07-.35a21.54,21.54,0,0,1,.44-2.12,16.36,16.36,0,0,1,.8-2.39,16.7,16.7,0,0,1,1.23-2.32,9.55,9.55,0,0,1,1.75-2.12A8.14,8.14,0,0,1,8.33,11.8a8.75,8.75,0,0,1,2.77-.51h0a5.48,5.48,0,0,1,1.55.22,6.13,6.13,0,0,1,1.4.66,7.08,7.08,0,0,1,1.68,1.48c-.15-.4-.31-.79-.49-1.18A14.58,14.58,0,0,0,14,10.26a10.65,10.65,0,0,0-1.57-1.93A8.51,8.51,0,0,0,7.86,6.14l-.71-.09.7-.16a5.19,5.19,0,0,1,2.8.15l.69.22.68.21,0,0,.31.17a2.37,2.37,0,0,1,.34.19l.2.12a1.83,1.83,0,0,1,.46.32,14.29,14.29,0,0,1,2.16,1.87,10.77,10.77,0,0,1,1.61,2.41c.23.46.46.93.67,1.39l0-.76c.07-1.42.14-2.88.29-4.33.07-.48.13-1,.2-1.43.12-1,.25-1.93.45-2.9l.12-.61.12.61a43.54,43.54,0,0,1,.65,4.33c.15,1.45.22,2.91.29,4.33,0,.32,0,.67,0,1,.08-.14.15-.28.23-.41A7.07,7.07,0,0,1,21.76,11a5.52,5.52,0,0,1,2.29-1h.1a3.27,3.27,0,0,1,1.17-.06h0a4.83,4.83,0,0,1,.88.1l.26.05a4.84,4.84,0,0,1,2.15,1l.43.36c.14.12.28.25.42.36l0,0a6.66,6.66,0,0,0,.71.85,14.81,14.81,0,0,1,.86,1.56c.05.12.11.23.17.35s.09.29.13.42a7.75,7.75,0,0,1,.38,1.63,5.13,5.13,0,0,1,.15,1v1.78l-.24-.73a18.31,18.31,0,0,0-1.58-3.57,7.71,7.71,0,0,0-2.4-2.62A4.73,4.73,0,0,0,26.35,12l-.15,0a3.51,3.51,0,0,0-.76-.06,1.44,1.44,0,0,0-.74.13,2.79,2.79,0,0,0-1.26.7l-.17.15a2.45,2.45,0,0,0-.39.4l-.13.18a1.24,1.24,0,0,0-.28.5l0,0a10.5,10.5,0,0,0-1.28,3.41,21.9,21.9,0,0,0-.57,2.88l-.15.93A71.93,71.93,0,0,0,20,29v.12H20v3.4a10.45,10.45,0,0,1,1.22-1.66,8.51,8.51,0,0,1,1.68-1.54,4.55,4.55,0,0,1,2.06-1,4.84,4.84,0,0,1,2.28-.15h0a12,12,0,0,1,2,.73l.72.32Zm16.35,2.65a5.48,5.48,0,0,1,2.28-1h.1a3.27,3.27,0,0,1,1.17-.06h0a5,5,0,0,1,.88.1l.25.05a4.79,4.79,0,0,1,2.15,1l.43.36c.14.12.28.25.43.36l0,0a7.61,7.61,0,0,0,.71.85A11.89,11.89,0,0,1,54.82,35l.17.35c0,.15.09.29.13.42a7.76,7.76,0,0,1,.39,1.63,5.63,5.63,0,0,1,.14,1v1.77l-.24-.73a18.34,18.34,0,0,0-1.57-3.57,7.73,7.73,0,0,0-2.41-2.62,4.73,4.73,0,0,0-1.33-.52L50,32.69a3.51,3.51,0,0,0-.76-.06,1.42,1.42,0,0,0-.73.13,2.83,2.83,0,0,0-1.27.7l-.16.15a2.16,2.16,0,0,0-.4.4l-.13.18a1.77,1.77,0,0,0-.28.5l0,0a10.5,10.5,0,0,0-1.28,3.41A23.67,23.67,0,0,0,44.35,41c-.05.31-.09.62-.14.93a69.46,69.46,0,0,0-.43,7.76v.12h-.15v.05c0,.39,0,.78,0,1.15s0,.83,0,1.27v.12h-.07v.81a10.93,10.93,0,0,1,1.22-1.66A8.81,8.81,0,0,1,46.53,50a4.55,4.55,0,0,1,2.06-1,5,5,0,0,1,2.28-.15,8.6,8.6,0,0,1,2.05.73l.61.31-.68-.07-.58-.07a5.63,5.63,0,0,0-1.41-.07,5.37,5.37,0,0,0-1.76.49,7.27,7.27,0,0,0-1.47,1,7,7,0,0,0-1.21,1.43,15.44,15.44,0,0,0-1.72,3.42,9.45,9.45,0,0,0-.49,1.31l-.15.49a8.89,8.89,0,0,0-.36,1.76s0,1.38-.07,2.45a1,1,0,0,1-1,1,1.06,1.06,0,0,1-1-1c0-2,0-6.75-.06-9.32,0-1,0-1.6,0-1.7,0-.79-.07-1.59-.14-2.29a28.93,28.93,0,0,0-.93-4.36A6.46,6.46,0,0,0,38.4,41.1a3.4,3.4,0,0,0-1.67-.56,10.3,10.3,0,0,0-2,.22,5,5,0,0,0-1.75.84,9.54,9.54,0,0,0-1.49,1.49A12,12,0,0,0,30.15,45a14.45,14.45,0,0,0-1,2.07L29,47.5,28.91,47a6.6,6.6,0,0,1,.2-1.93l.09-.48a9.49,9.49,0,0,1,.95-2.34,7.28,7.28,0,0,1,1.61-2,6.79,6.79,0,0,1,2.35-1.39,8.53,8.53,0,0,1,2.7-.44,4.92,4.92,0,0,1,2.69.81c-.13-.36-.27-.72-.43-1.06a10.55,10.55,0,0,0-1.07-2,5.84,5.84,0,0,0-1.4-1.48A3.4,3.4,0,0,0,34.85,34a6.7,6.7,0,0,0-2,.29,7.37,7.37,0,0,0-3.47,2.62A18.43,18.43,0,0,0,27,41.05a47.41,47.41,0,0,0-1.57,4.8l-.25.9v-.93a13.11,13.11,0,0,1,.13-1.66l.09-.87.05-.32c.13-.72.27-1.46.46-2.15a15.53,15.53,0,0,1,.79-2.39,18.46,18.46,0,0,1,1.23-2.32A9.55,9.55,0,0,1,29.67,34a8.07,8.07,0,0,1,2.42-1.46A8.75,8.75,0,0,1,34.86,32h0a5.48,5.48,0,0,1,1.55.22,6,6,0,0,1,1.41.66,7.5,7.5,0,0,1,1.68,1.48c-.15-.4-.32-.79-.5-1.18A13.55,13.55,0,0,0,37.79,31a10.24,10.24,0,0,0-1.57-1.93,8.52,8.52,0,0,0-4.6-2.19l-.71-.09.69-.16a5.19,5.19,0,0,1,2.8.15l.69.21.68.22,0,0,.31.17a2.37,2.37,0,0,1,.34.19l.21.12a2,2,0,0,1,.46.32,13.81,13.81,0,0,1,2.16,1.88,10.45,10.45,0,0,1,1.6,2.4c.21.41.41.82.61,1.24,0-.2,0-.41,0-.61v-.06c.07-1.4.15-2.84.29-4.27.07-.48.13-1,.2-1.44l.18-1.3a1.42,1.42,0,0,0,.61.24H43c.13.83.25,1.67.33,2.5.15,1.47.22,2.92.29,4.33,0,.36,0,.75,0,1.12a5.54,5.54,0,0,1,.3-.53A7.07,7.07,0,0,1,45.52,31.75Zm23.19-4.31a5.56,5.56,0,0,0-1.75.5,7.06,7.06,0,0,0-1.48,1,7.6,7.6,0,0,0-1.21,1.42,15.74,15.74,0,0,0-1.72,3.43,8.13,8.13,0,0,0-.64,1.78,9.3,9.3,0,0,0-.36,1.79s0,1.37-.07,2.44a1,1,0,0,1-1,1,1.06,1.06,0,0,1-1-1c0-1.94,0-6.74,0-9.31,0-1,0-1.6,0-1.7,0-.39,0-.78,0-1.17H59.3l0-.3c-.06-.57-.1-1.11-.12-1.68a25.73,25.73,0,0,0-.79-3.51,6.46,6.46,0,0,0-2.11-3.32,3.4,3.4,0,0,0-1.67-.56,9.61,9.61,0,0,0-2,.22,5,5,0,0,0-1.75.84,9.54,9.54,0,0,0-1.49,1.49A11.76,11.76,0,0,0,48,22.71a14.45,14.45,0,0,0-1,2.07l-.19.48-.05-.52a7.36,7.36,0,0,1,.2-1.93c0-.16.07-.32.09-.48A9.11,9.11,0,0,1,48,20a7.06,7.06,0,0,1,1.6-2A6.79,6.79,0,0,1,52,16.55a8.26,8.26,0,0,1,2.7-.44,4.91,4.91,0,0,1,2.6.76c-.13-.35-.26-.68-.41-1a10.52,10.52,0,0,0-1.07-2,5.67,5.67,0,0,0-1.4-1.48,3.31,3.31,0,0,0-1.75-.63,6.4,6.4,0,0,0-2,.29,7.33,7.33,0,0,0-3.47,2.62,18.57,18.57,0,0,0-2.36,4.14,34.85,34.85,0,0,0-1.31,3.76,1.49,1.49,0,0,0-.43-.24c0-.13,0-.26,0-.39,0-.29.07-.58.1-.88l.06-.35c.12-.71.26-1.44.44-2.12a16.88,16.88,0,0,1,.8-2.4,18.47,18.47,0,0,1,1.23-2.31,9.55,9.55,0,0,1,1.75-2.12,8.14,8.14,0,0,1,2.41-1.46,8.87,8.87,0,0,1,2.78-.51h0a5.48,5.48,0,0,1,1.55.22,6,6,0,0,1,1.41.66,7.18,7.18,0,0,1,1.6,1.39c-.15-.39-.31-.78-.49-1.16A13.15,13.15,0,0,0,55.5,8.68a10.65,10.65,0,0,0-1.57-1.93,8.1,8.1,0,0,0-4.61-2.2l-.72-.08.71-.16a5.19,5.19,0,0,1,2.8.15l.68.21.69.22h0a1.87,1.87,0,0,0,.31.17l.34.19a.82.82,0,0,0,.2.12,1.88,1.88,0,0,1,.46.33A13.24,13.24,0,0,1,57,7.58,10.77,10.77,0,0,1,58.59,10c.26.51.51,1,.74,1.56l0-.86c.07-1.42.14-2.89.29-4.33.07-.48.14-1,.2-1.44C60,4,60.11,3,60.3,2l.12-.61.12.61a42.68,42.68,0,0,1,.65,4.33c.15,1.44.22,2.91.29,4.33,0,.28,0,.59,0,.88a2.69,2.69,0,0,1,.16-.29,6.88,6.88,0,0,1,1.55-1.77,5.43,5.43,0,0,1,2.28-1h.1a3.27,3.27,0,0,1,1.17-.06h0a5,5,0,0,1,.89.1l.25,0a5,5,0,0,1,2.15,1l.43.36.42.36,0,0a7.61,7.61,0,0,0,.71.85,13.19,13.19,0,0,1,.86,1.56c0,.11.11.23.17.34l.13.43a7.75,7.75,0,0,1,.38,1.63,5.72,5.72,0,0,1,.15,1v1.78l-.24-.73a18.31,18.31,0,0,0-1.58-3.57A7.71,7.71,0,0,0,69.14,11a4.45,4.45,0,0,0-1.33-.52l-.15-.05a3.51,3.51,0,0,0-.76-.06,1.44,1.44,0,0,0-.74.13,2.87,2.87,0,0,0-1.26.69,1.36,1.36,0,0,1-.17.16,2.11,2.11,0,0,0-.39.4l-.13.18a1.24,1.24,0,0,0-.28.5l0,0a10.42,10.42,0,0,0-1.28,3.41,21.75,21.75,0,0,0-.57,2.87l-.15.94a69.4,69.4,0,0,0-.42,7.63c0,1.37,0,2.43,0,2.72V31a10.45,10.45,0,0,1,1.22-1.66,8.81,8.81,0,0,1,1.68-1.54,4.45,4.45,0,0,1,2.06-1,4.84,4.84,0,0,1,2.28-.15,6.17,6.17,0,0,1,2.06.73l.53.3-.61-.06-.58-.07A5.65,5.65,0,0,0,68.71,27.44Z"/></svg>