<svg id="圖層_1" data-name="圖層 1" xmlns="http://www.w3.org/2000/svg" viewBox="0 0 70.88 98.37"><defs><style>.cls-1{fill:#fff;}</style></defs><title>0</title><path class="cls-1" d="M24.48,33.79l0,.36c0-.11,0-.23.05-.34Z"/><path class="cls-1" d="M23.12,29.17a.75.75,0,0,0-.07.12,4.61,4.61,0,0,1-.36.46,1.76,1.76,0,0,1,.4-.07Z"/><path class="cls-1" d="M22.26,30.18a2.66,2.66,0,0,1-.77.5,8,8,0,0,0-1.18,1.2,4.71,4.71,0,0,1,.44,4.35,3.7,3.7,0,0,1,.51,4.85,2.53,2.53,0,0,1,.13.22q.46-.27,1-.51l.72-10.86A2.38,2.38,0,0,0,22.26,30.18Z"/><path class="cls-1" d="M25.81,18.21v0l-1-2.11a17.51,17.51,0,0,1,.41,3.45A11.9,11.9,0,0,1,25.81,18.21Z"/><path class="cls-1" d="M25,23.57c-.09.6-.21,1.18-.35,1.74a5,5,0,0,1,.76-1A2.63,2.63,0,0,1,25,23.57Z"/><path class="cls-1" d="M70.87,36.12c-.09-1.79-1.89-3.16-5-3.75a5.26,5.26,0,0,1-2-.65,4,4,0,0,1,.61-1c.68-1,2-2.88,1.11-4.68s-3.43-2.12-4.26-2.19a9.81,9.81,0,0,0-1.07-.05,12.74,12.74,0,0,0-6.14,1.63l-.22-.15a8.72,8.72,0,0,0-3.4-4.4A44.08,44.08,0,0,0,49.19,15L48.48,1.34A1.41,1.41,0,0,0,47.07,0h-.32a1.41,1.41,0,0,0-1,.47,1.39,1.39,0,0,0-.37,1l.51,9.83C43.76,9.6,41,7.78,38.73,7.78h-.24A3.22,3.22,0,0,0,36.06,9c-1.6,1.86.2,3.81,1.27,5l.34.36c-.48-.07-1-.21-1.58-.34a15,15,0,0,0-3.44-.57A3.51,3.51,0,0,0,28.92,16a2.94,2.94,0,0,0,0,2,9.32,9.32,0,0,0-1.79-.9l-1.35-2.91.52-7.8a1.38,1.38,0,0,0-.35-1,1.42,1.42,0,0,0-1-.48l-.34,0a1.43,1.43,0,0,0-1.42,1.32L23,9.75c-2.22-2.58-4.77-4.1-7-4.1a4.68,4.68,0,0,0-.66,0,3.38,3.38,0,0,0-2.84,2.44,4.47,4.47,0,0,0,1,4,5.42,5.42,0,0,1-.69,0c-.55,0-1.21-.06-1.85-.12S9.48,12,8.77,12c-3.29,0-4.16,1.65-4.32,3C4.1,18,7.18,18.72,9,19.12a8.37,8.37,0,0,1,2,.61c0,.39-1,1.34-1.43,1.81-1.26,1.27-3.36,3.39-1.72,5.86a3.42,3.42,0,0,0,1.37,1.23c-.22,0-.44,0-.66,0a4.3,4.3,0,0,0-4,1.87,3.49,3.49,0,0,0-.54,2.87c.47,1.6,2,2.34,3.41,3l.9.45a10.49,10.49,0,0,1-2.65.8C3.37,38.11-.58,39,.07,43.19c.25,1.63,1.35,3.58,5.21,3.58a23.74,23.74,0,0,0,2.38-.14,14.21,14.21,0,0,0-1.2,9.54c-.66,1.36-2,5,.43,8.16a4.79,4.79,0,0,0,3.2,4.79,4.11,4.11,0,0,0,1.3.21,4.84,4.84,0,0,0,4.13-2.64,4.43,4.43,0,0,0,1.21-.7,6.05,6.05,0,0,0,1.93-4,5.45,5.45,0,0,0,.89-.67L17.19,96.84a1.42,1.42,0,0,0,1.32,1.51l.34,0A1.43,1.43,0,0,0,20.27,97l2.48-37.33a11.8,11.8,0,0,0,1.13-2c.07-.16.17-.35.27-.55.18.48.37,1.08.5,1.51.62,2,1.25,4,3,4.68a3,3,0,0,0,1.08.2,3.67,3.67,0,0,0,1.82-.52l.17-.1a4.48,4.48,0,0,0,1.64.33,3.67,3.67,0,0,0,1.5-.32,4.17,4.17,0,0,0,1-.64,5.1,5.1,0,0,0,2.42,2,4.4,4.4,0,0,0,2.79,2,3.27,3.27,0,0,0,.54,0A4.18,4.18,0,0,0,43.41,65,7.29,7.29,0,0,0,47,58.11a8.67,8.67,0,0,0,1.24-1.54l2,39.66a1.41,1.41,0,0,0,1.41,1.34H52a1.41,1.41,0,0,0,1-.47,1.39,1.39,0,0,0,.37-1L51.44,58.52a6.21,6.21,0,0,0,4,3.93,4.17,4.17,0,0,0,1,.12,3.4,3.4,0,0,0,2.16-.75,5.48,5.48,0,0,0,1.71-3.6A4.41,4.41,0,0,0,61.73,57a5.29,5.29,0,0,0,.85-3.75,3.42,3.42,0,0,0,.28-2.51,7.91,7.91,0,0,0,.84-1.88q.3,0,.6,0a5.64,5.64,0,0,0,3.47-1.16,3.37,3.37,0,0,0,1.3-2.28c.22-1.91-1.21-3.67-2.28-5L66.46,40a13.26,13.26,0,0,1,1.45-.53C69.84,38.87,71,37.62,70.87,36.12Zm-6.06,3.45c-.09.28,0,.63.37,1.08.14.2.33.42.54.68.88,1.1,2.09,2.6,1.94,3.93a1.89,1.89,0,0,1-.77,1.32,4.58,4.58,0,0,1-4.35.55,6,6,0,0,1-1.33,3.45,2,2,0,0,1-.1,2.34,4.19,4.19,0,0,1-.53,3.21,2.9,2.9,0,0,1-1.64,1.11c0,.49-.1,2.56-1.24,3.48a2,2,0,0,1-1.27.43,2.59,2.59,0,0,1-.66-.08c-2.9-.76-3.6-4.88-3.69-5.5a6.08,6.08,0,0,1-2.3-1.63L52,96.14l-.25,0-2.2-42.58a3.86,3.86,0,0,1-.46-1,4.25,4.25,0,0,1-.18-1.78A8,8,0,0,1,48,52a6.55,6.55,0,0,1-2.51,5.55,5.91,5.91,0,0,1-2.94,6.31,3,3,0,0,1-2,1,1.62,1.62,0,0,1-.31,0,3.29,3.29,0,0,1-2.07-1.71,3.65,3.65,0,0,1-2.43-2.07,5.09,5.09,0,0,1-.26-2.62c-.52,1.43-1.17,2.75-2.23,3.24a2.12,2.12,0,0,1-.9.2,2.86,2.86,0,0,1-1.13-.25,3.65,3.65,0,0,1-.68-.38,2.56,2.56,0,0,1-.72.59,2.26,2.26,0,0,1-1.1.33,1.42,1.42,0,0,1-.55-.11c-1.1-.44-1.63-2.14-2.14-3.79-.45-1.42-.87-2.76-1.57-3s-1.26.7-1.84,1.89a8.57,8.57,0,0,1-1.23,2L18.85,97l-.25,0L21.1,59.4a1.55,1.55,0,0,1-1.78.15l-.08,0a3.9,3.9,0,0,1-1.91,1.6,5.26,5.26,0,0,1-1.51,3.79,2.37,2.37,0,0,1-1.26.56c-.85,1.81-2.08,2.45-3.17,2.45a2.72,2.72,0,0,1-.86-.14,3.37,3.37,0,0,1-2.16-3.9c-2.89-3-.7-7-.43-7.48-1-4.77.16-7.86,1.27-9.61A9.52,9.52,0,0,1,10.67,45,23.83,23.83,0,0,0,8,45.16c-2.87.3-6.12.64-6.55-2.19S3.57,39.51,6,39c1.58-.35,3.21-.7,3.88-1.71a.88.88,0,0,0,.18-.76c-.16-.57-1.05-1-2-1.45-1.17-.55-2.37-1.12-2.66-2.1a2.12,2.12,0,0,1,.38-1.73c1.86-3,9,.27,12.12,1.85a5.87,5.87,0,0,1,2.16-1.32,8.38,8.38,0,0,1,.88-1l-.11,0a2.2,2.2,0,0,1-.36,0c-1-.22-1.35-1.54-1.69-2.82-.39-1.44-.76-2.79-1.88-2.79a7.44,7.44,0,0,0-3,1.15c-1.84,1-3.74,2-4.88.3-1-1.5.29-2.81,1.54-4.07,1-1,2-2,1.82-3.1s-1.58-1.37-3.08-1.7c-1.81-.4-3.67-.81-3.47-2.58.23-2.06,2.64-1.85,5-1.65,1.48.12,3,.25,3.81-.24.36-.23.56-.45.6-.67s-.22-.75-.55-1.2a3.13,3.13,0,0,1-.82-2.88,1.94,1.94,0,0,1,1.68-1.43c1.95-.28,5.16,1.37,8,5.71A7,7,0,0,1,24.13,14l.52-7.71h.25l-.55,8.17L26.1,18.2c2.82.91,3.75,2.42,4,3.53a3.29,3.29,0,0,1,.06,1.33c2.76.48,3,3.39,3.06,3.91,3.88,1.89,2.64,5.74,2.4,6.37,2.93,2.43,1.91,6.36,1.72,7a5.68,5.68,0,0,1,1.75,2.48,9.35,9.35,0,0,1,2.75-2.16c1.05-4.68,4.34-5.76,5.66-6,.22-.44.47-.88.74-1.32l.16-.69-.31-6c-1.28.66-2-.42-2.84-1.58s-1.52-2.2-2.81-2.3h-.11c-1.14,0-1.53,1.47-1.94,3-.34,1.29-.7,2.62-1.55,3.09a1.41,1.41,0,0,1-.71.18,2.35,2.35,0,0,1-.61-.1c-2.61-.76-2-2.84-1.42-4.86a7.74,7.74,0,0,0,.47-3.51c-.2-.76-1.59-1.1-2.93-1.42s-2.84-.67-3.33-1.53a1.5,1.5,0,0,1-.07-1.22c.63-2.26,3.21-1.63,5.48-1.08,1.77.43,3.44.84,3.88-.16.26-.55-.51-1.38-1.25-2.19-1-1.08-2-2.19-1.25-3.09a1.9,1.9,0,0,1,1.44-.71h.16c3,0,8,4.64,8.77,5.42L46.82,1.43h.25l.71,13.83a41.55,41.55,0,0,1,1.41,6.48,7.3,7.3,0,0,1,3.52,4.5,5.89,5.89,0,0,1,1.3.94,11.4,11.4,0,0,1,7.2-1.9c1.72.16,2.74.61,3.11,1.38.5,1.07-.44,2.45-1,3.28s-1.06,1.59-.78,2.29,1.34,1.23,3.15,1.54c2.31.45,3.72,1.36,3.78,2.44,0,.8-.69,1.52-2,1.91C65.77,38.64,65,39.08,64.81,39.57ZM11.13,28.92a9.88,9.88,0,0,0,3.47-1.36,8.88,8.88,0,0,1,2.23-1,7.59,7.59,0,0,1,.61,1.74,8.76,8.76,0,0,0,1,2.62,7.84,7.84,0,0,0-.73.46A31.91,31.91,0,0,0,11.13,28.92Zm19.68-9.13a13.83,13.83,0,0,0,2.53.77,11.23,11.23,0,0,1,1.91.57,8.18,8.18,0,0,1-.49,2.59c-.12.44-.28,1-.39,1.55A5.07,5.07,0,0,0,31.62,22a5.59,5.59,0,0,0-.81-2.23ZM37.4,30.4a4.09,4.09,0,0,0,.76.08,2.88,2.88,0,0,0,1.4-.35c1.37-.77,1.83-2.47,2.23-4a8.31,8.31,0,0,1,.67-1.95c.58.12,1.12.91,1.65,1.67a4.92,4.92,0,0,0,2.67,2.33L47,32.5l-.06.27-.36.63a8.5,8.5,0,0,0-5.94,6.29,12.18,12.18,0,0,0-1.16.81c-.17-.22-.35-.43-.54-.64a8,8,0,0,0-1.68-6.94A7.32,7.32,0,0,0,37.4,30.4Z"/><path class="cls-1" d="M29.39,53.55l-.33.07a6.56,6.56,0,0,0,.88,2.7c.11.22.21.44.32.67.18-.38.37-.75.56-1.1.54-1,1.05-2,.76-2.42S30.35,53.31,29.39,53.55Z"/><path class="cls-1" d="M26.13,33a2.43,2.43,0,0,1-1.68-1.24,4.44,4.44,0,0,1,.18-3.3,2.7,2.7,0,0,1-.46-1.51,11.75,11.75,0,0,1-.77,1.77l-.8,12.07a30.8,30.8,0,0,1,3.54.68c.06-.11.11-.23.18-.35a2,2,0,0,1,.68-.66,7.13,7.13,0,0,1-1.24-3.76A12.9,12.9,0,0,1,26.13,33Zm-1.65.82,0,0c0,.11,0,.23-.05.34Zm-.38,5.77.23-3.45c0,.21,0,.43,0,.65a9.63,9.63,0,0,0,.65,3C24.68,39.66,24.37,39.6,24.1,39.56Z"/><path class="cls-1" d="M49.23,22c.21,2,.08,3.86-.86,4.48l.3,5.94h0l0,.18v0c.22-.32.44-.64.67-.95a6.35,6.35,0,0,1,.44-1,8.86,8.86,0,0,1,1.41-1.82,2.88,2.88,0,0,1,1.27-2.65A7,7,0,0,0,49.23,22Zm.62,5.77,0-.72a4.11,4.11,0,0,0,.77-1.74c.09.17.17.34.25.52A4.22,4.22,0,0,0,49.85,27.81Z"/><path class="cls-1" d="M30.34,47.39l-.2,0c-.79.12-1.54.23-1.81.58l.85-.25C29.59,47.63,30,47.51,30.34,47.39Z"/></svg>