<svg id="圖層_1" data-name="圖層 1" xmlns="http://www.w3.org/2000/svg" viewBox="0 0 244.37 146.21"><defs><style>.cls-1{fill:#fff;}</style></defs><title>0</title><path class="cls-1" d="M145.56,43.16a53.76,53.76,0,0,1-12,1.37c-.74,0-1.48,0-2.21-.05-.25,1.67-.57,3.44-.94,5.3a14.8,14.8,0,0,1,6.89,10l3-.4a14.78,14.78,0,0,1,5.75-12.5c-.14-.6-.25-1.19-.34-1.79S145.59,43.79,145.56,43.16Zm-6.67,15-.48.06A16.3,16.3,0,0,0,132,49.12c.21-1.09.4-2.16.57-3.19h1a54.75,54.75,0,0,0,10.7-1.06c0,.13,0,.26.05.38,0,.34.1.68.17,1.05A16.22,16.22,0,0,0,138.89,58.12Z"/><path class="cls-1" d="M217.82,49.26c-1.23.43-2.5.83-3.84,1.18a49.44,49.44,0,0,1-10.31,1.71,28.22,28.22,0,0,1,3.41,8.53s0,0,0,0a19.06,19.06,0,0,1,.29,2.07A9.22,9.22,0,0,1,204.93,70a14.72,14.72,0,0,1,5.24,9.84l3-.14a14.65,14.65,0,0,1,4.15-10A113.16,113.16,0,0,0,217.82,49.26ZM216,69.09a16.11,16.11,0,0,0-4.13,9.27l-.45,0a16,16,0,0,0-4.51-8.51,10.76,10.76,0,0,0,1.91-7.21,20,20,0,0,0-.3-2.19l0-.07a27.66,27.66,0,0,0-2.51-7,52.49,52.49,0,0,0,8.38-1.58c.73-.19,1.46-.4,2.18-.62A114.82,114.82,0,0,1,216,69.09Z"/><path class="cls-1" d="M228,96.29h.78a16.28,16.28,0,0,0-.83-32.54h-.6a16.25,16.25,0,0,0-6.41,1.64,111.51,111.51,0,0,0,.13-15.88c5.55-2.41,9.75-5.75,12.49-9.93.2-.31.38-.63.56-.95l.06-.11a2.12,2.12,0,0,0,.21-.36,23.3,23.3,0,0,0,2.32-15.61c-.58-3.15-2.57-5.72-5.91-7.61-3.8-2.16-9.41-3.34-15.8-3.34a51.85,51.85,0,0,0-17.78,3.09A31.69,31.69,0,0,0,180.67,28.9a47.37,47.37,0,0,0-6-2.61c-1-.35-2-.65-3.13-.95a1.61,1.61,0,0,0-.66-.17,33,33,0,0,0-3.9-.72,17.7,17.7,0,0,0-1.71-4.92C162.48,14.11,156.9,9,149.93,5.61a1.54,1.54,0,0,0-.53-.26,54.32,54.32,0,0,0-16-4.64,75,75,0,0,0-10-.71,56.81,56.81,0,0,0-7.28.45,1.24,1.24,0,0,0-.33,0,1.6,1.6,0,0,0-.72.18C104.64,2.17,97,6.87,93.94,13.53l0,.06a15.06,15.06,0,0,0-1,2.94A15.39,15.39,0,0,0,93,23c-3.37-4.25-11.19-6.85-20.9-6.85-1.2,0-2.42,0-3.64.13a1.22,1.22,0,0,0-.32,0,1.4,1.4,0,0,0-.58.11,52.19,52.19,0,0,0-20,5.68,72.6,72.6,0,0,0-8.06,5,1.64,1.64,0,0,0-.6.44A55.67,55.67,0,0,0,26.25,39.88a35.65,35.65,0,0,0-3.86,6.9,1.7,1.7,0,0,0-.18.44,22.27,22.27,0,0,0-.76,15.45,10.82,10.82,0,0,0,2.94,4.62A38.84,38.84,0,0,0,7.67,78.44l-.14.15a34.82,34.82,0,0,0-7.12,12C-.54,94-.65,100.14,9.32,103.7c6.23,2.23,14.3,2.69,20,2.69,1.27,0,2.61,0,4-.07a1.55,1.55,0,0,0,.56.11,1.65,1.65,0,0,0,.68-.16c3.49-.16,7.06-.47,10.37-.91a82.49,82.49,0,0,0,17.35-4l0,0a1.17,1.17,0,0,0,.24-.09c4.37-1.67,7-3.55,7.93-5.58a15.42,15.42,0,0,0,1.29-4.92c.66,16.74,7.5,30.16,13.45,38.79a77.82,77.82,0,0,0,14.67,16.12l.1.07a1.4,1.4,0,0,0,.85.28,1.43,1.43,0,0,0,1.1-.52l1.08-1.33a1.43,1.43,0,0,0-.09-1.89l-.19-.18-.09-.07A75.65,75.65,0,0,1,89,127c-6.17-8.92-13.38-23.35-12.61-41.46.15-3.52.2-7,.14-10.27A16.28,16.28,0,0,0,90.2,82.79a16.65,16.65,0,0,0,2-.13,16.23,16.23,0,0,0,14.31-15.44l.47-.07A16.37,16.37,0,0,0,118.7,78.27a72.06,72.06,0,0,0,1.42,37.92,70.39,70.39,0,0,0,8.8,19.41l.07.1a1.42,1.42,0,0,0,1.93.33l1.32-.88.14-.08a1.42,1.42,0,0,0,.28-2.23h0a71.73,71.73,0,0,1-8.14-18,67.3,67.3,0,0,1-1.18-36.08,11.07,11.07,0,0,0,1.19-.09,16.47,16.47,0,0,0,14.3-15.44l.55-.07a16.34,16.34,0,0,0,10,10.6,16,16,0,0,0-2.72,9.71A16.25,16.25,0,0,0,162.91,99l.72,0a16.45,16.45,0,0,0,15.46-14.17l.45,0a16,16,0,0,0,15.84,12.84l.79,0a16.45,16.45,0,0,0,15.46-14.17l.52,0A16.42,16.42,0,0,0,213.36,87c-1.93,17.16,3.15,31.6,7.77,40.71a75.08,75.08,0,0,0,12.25,18l.08.09a1.44,1.44,0,0,0,1,.41,1.41,1.41,0,0,0,1-.39l1.33-1.25a1.41,1.41,0,0,0,0-2l-.09-.08a75.06,75.06,0,0,1-11.39-16.83,68.91,68.91,0,0,1-7.72-33.08A16.08,16.08,0,0,0,228,96.29ZM71.76,85.39c0,.6,0,1.2-.05,1.8a18.77,18.77,0,0,0-1-4.32,1.65,1.65,0,0,0,0-.32,1.42,1.42,0,0,0-.35-.65A20.13,20.13,0,0,0,69,79.37a25.62,25.62,0,0,0-9.55-8.94,62.7,62.7,0,0,0,12-3.71A154.42,154.42,0,0,1,71.76,85.39Zm152.3,40.89a76.22,76.22,0,0,0,11.64,17.17l.09.09-1.33,1.25-.09-.08a74.25,74.25,0,0,1-12-17.6c-4.7-9.27-9.58-23.51-7.59-40.33a15.19,15.19,0,0,1-1.48-4.8l-3,.13A15,15,0,0,1,196.1,96.23h-.72a14.7,14.7,0,0,1-14.65-12.89l-2.94.13a15,15,0,0,1-14.22,14.11l-.66,0A14.89,14.89,0,0,1,148.1,83.37a14.68,14.68,0,0,1,3.7-10.43,14.91,14.91,0,0,1-11.37-11.39l-3,.4a15,15,0,0,1-13.07,15.27,13.6,13.6,0,0,1-2.11.09,68.39,68.39,0,0,0,.91,37.9,72.07,72.07,0,0,0,8.4,18.53l.11.11-.13.07-1.4.93-.07-.09a70.37,70.37,0,0,1-8.58-19,70.22,70.22,0,0,1-1-38.62A14.91,14.91,0,0,1,108,65.58l-2.94.4A14.8,14.8,0,0,1,92,81.25a14.29,14.29,0,0,1-1.83.12A14.91,14.91,0,0,1,75.48,68.26a14.48,14.48,0,0,1,.46-5.89c-.5.37-1,.72-1.47,1A155.28,155.28,0,0,1,75,85.53c-.79,18.49,6.56,33.22,12.86,42.32a76.92,76.92,0,0,0,13.87,15.32l.08.06.08.08-1.08,1.33-.1-.07a75.63,75.63,0,0,1-14.35-15.79c-6.46-9.35-14-24.47-13.2-43.34a153.42,153.42,0,0,0-.48-20.94l-.7.4c-3.54,1.82-10,3.76-17.07,4.94,7.31,3,11,7.3,12.84,10.27a18,18,0,0,1,1.34,2.67l.09,0a.12.12,0,0,1,0,.17s0,0,0,0a15.69,15.69,0,0,1,0,12.13c-.75,1.71-3.34,3.39-7.26,4.87,0,0,0,0,0,0h0A80.61,80.61,0,0,1,44.71,104c-3.29.43-7,.76-10.74.91a.12.12,0,0,1,0,.12l-.07,0a.11.11,0,0,1-.1-.06l0-.06c-1.46,0-2.94.09-4.41.09-7.1,0-14.19-.72-19.51-2.61C3.12,100,.35,96,1.78,91h0A33.29,33.29,0,0,1,8.64,79.48s0,0,0,0h0A36.91,36.91,0,0,1,27.51,67.86a10.24,10.24,0,0,1-4.72-5.62,21.1,21.1,0,0,1,.8-14.64.16.16,0,0,1,0-.12h0a33.61,33.61,0,0,1,3.77-6.78A54.33,54.33,0,0,1,39.92,28.43h0a.13.13,0,0,1,.15-.1h0a70.13,70.13,0,0,1,8.12-5A51.46,51.46,0,0,1,68,17.74l0,0a.11.11,0,0,1,.17,0v0c11.22-.82,21.28,2,24.27,7.06h0c2.32,4,2.72,8.66,1.19,13.94a40.59,40.59,0,0,1-7.32,13.43,14.77,14.77,0,0,1,18.58,11.56l2.86-.39a14.94,14.94,0,0,1,13.07-15.57,14.77,14.77,0,0,1,7.89,1.16c.31-1.58.57-3.09.79-4.54a51.25,51.25,0,0,1-11.36-2.13c-9-2.82-15.83-6.9-19.9-11.81-3.51-4.23-4.91-9.06-3.94-13.6a13.13,13.13,0,0,1,.87-2.66s0,0,0-.05c2.56-5.66,9.37-10.61,20.42-12.18,0,0,0,0,0,0a.11.11,0,0,1,.15-.09l.19.06a64.16,64.16,0,0,1,17.21.23A52.23,52.23,0,0,1,149,6.72H149a.11.11,0,0,1,.09.07c7.63,3.72,12.53,8.81,14.88,13.39a15.82,15.82,0,0,1,1.73,5.57,30.23,30.23,0,0,1,5,.86.12.12,0,0,1,.16,0h0c1.05.27,2.12.58,3.25,1a48,48,0,0,1,7.09,3.21A29.83,29.83,0,0,1,197.71,16c10.85-4.07,25.07-4,32.38.15,3,1.68,4.72,3.91,5.21,6.63a21.75,21.75,0,0,1-2.23,14.8.12.12,0,0,1,0,.09h0c-.21.37-.41.75-.65,1.11-2.74,4.19-7,7.47-12.79,9.8A111.08,111.08,0,0,1,219.28,68a14.83,14.83,0,0,1,8.12-2.86h.54a14.86,14.86,0,0,1,.77,29.7l-.72,0a14.69,14.69,0,0,1-11.63-5.64A69.55,69.55,0,0,0,224.06,126.28Zm-128.38-97a19.15,19.15,0,0,0,1.51,2c4.25,5.12,11.36,9.36,20.57,12.26a51.94,51.94,0,0,0,10.14,2.06c-.07.44-.15.89-.23,1.34a15.75,15.75,0,0,0-7-.64,16.42,16.42,0,0,0-14.33,15.73l-.33.05a16.23,16.23,0,0,0-15.64-12l-.82,0A39.06,39.06,0,0,0,95,39.12,20.94,20.94,0,0,0,95.68,29.29Z"/><path class="cls-1" d="M177.71,81.21l2.86-.13a14.63,14.63,0,0,1,1.73-6.67,54.78,54.78,0,0,1-8.8-2.07A14.67,14.67,0,0,1,177.71,81.21Zm1.52-1.48h-.3a16.47,16.47,0,0,0-1.78-4.9q1.53.38,3.09.66A15.74,15.74,0,0,0,179.23,79.73Z"/></svg>