<svg id="圖層_1" data-name="圖層 1" xmlns="http://www.w3.org/2000/svg" viewBox="0 0 86.74 100.55"><defs><style>.cls-1{fill:#fff;}</style></defs><title>0</title><path class="cls-1" d="M58.22,33.8h.13l-.06-.11Z"/><path class="cls-1" d="M34.55,37.06a9.58,9.58,0,0,1-.24-2.44,5.9,5.9,0,0,1-1.89.31,5.8,5.8,0,0,1-2.13-.4C31.6,40,33.6,44.64,37.41,45.19a6.2,6.2,0,0,0,1,.07,6.35,6.35,0,0,0,2.08-.35C38.56,43.57,35.45,40.86,34.55,37.06Zm-2.31-.71h.18l.56,0c.05.35.11.71.19,1.05a13.76,13.76,0,0,0,3.51,6.14C34.9,42.71,33.43,40.35,32.24,36.35Z"/><path class="cls-1" d="M86.3,22.87l-.12-.11a24.07,24.07,0,0,0-6-4.36,16.43,16.43,0,0,0,3.21-4.94l0-.13a1.43,1.43,0,0,0-.09-1.18,1.41,1.41,0,0,0-.95-.7l-.14,0a27.4,27.4,0,0,0-5.61-.65,12.65,12.65,0,0,0-7.48,2.07A7.38,7.38,0,0,0,65,10.73C63.85,4.88,58.82.5,58.77.46L58.64.35A1.4,1.4,0,0,0,57.71,0a1.24,1.24,0,0,0-.33,0,1.41,1.41,0,0,0-1,.83L56.33,1c-2,4.73-2.45,9-1.45,12.66-.64.07-1.27.17-1.86.29a15.17,15.17,0,0,0-3.43,1.12c-.51-2.87-2.21-5.76-5.09-8.62a1.55,1.55,0,0,0-.7-.38,1.34,1.34,0,0,0-.35,0c-.63,0-1.41,0-3.06,4.3-1.07,2.77-2,6.64-.68,10.12a7.49,7.49,0,0,0-2.63,2.79,7.34,7.34,0,0,0-4.66-1.67,7.43,7.43,0,0,0-3,.64l-.09-.42a17.28,17.28,0,0,0,8.42-7.48l.06-.13a1.42,1.42,0,0,0-.79-2l-.13-.05a24.55,24.55,0,0,0-8.11-1.57,13.52,13.52,0,0,0-6.55,1.56l-.34.18A18.28,18.28,0,0,0,13,6.4l-.14,0a1.57,1.57,0,0,0-.37-.05,1.44,1.44,0,0,0-.8.24,1.46,1.46,0,0,0-.61,1l0,.14a31.58,31.58,0,0,0-.08,7A13.12,13.12,0,0,0,6.81,14,21.86,21.86,0,0,0,1,14.92a1.54,1.54,0,0,0-1,1.46c0,.86,2.46,4.72,5.72,7.23A18.88,18.88,0,0,0,.59,29.32l-.09.13a1.44,1.44,0,0,0-.12,1.23,1.41,1.41,0,0,0,.89.86l.12,0a23.13,23.13,0,0,0,3.32.78,13.78,13.78,0,0,0-1.9,3.49l0,.11a1.43,1.43,0,0,0,.8,1.74l.11,0A24.41,24.41,0,0,0,7.3,39c-1.73,2.44-2.56,5.83-2.48,10.13v.12a1.43,1.43,0,0,0,1.37,1.4h.24a13.64,13.64,0,0,0,8.94-3.5c.23-.21.44-.43.65-.66a22.08,22.08,0,0,0,3.21,6.92l.09.12a1.42,1.42,0,0,0,1.08.58h.06a1.39,1.39,0,0,0,1.06-.48l.11-.11a18.43,18.43,0,0,0,4.58-8.35l.06.14c2,4.48,3.59,8,3,15a141.42,141.42,0,0,1-6.4,27.27c-1.84,5.66-2.85,8.77-1.45,11a5.24,5.24,0,0,0,4,2,10.71,10.71,0,0,0,1.35.08,6,6,0,0,0,4-1.28c2.27-1.89,2.52-5.29,2.89-10.43C34.38,80.38,35.3,67.6,46,51.57c.8-1.19,1.56-2.32,2.29-3.39a7.36,7.36,0,0,0,11.93-.89,15.94,15.94,0,0,0,5.94,1.07,18.74,18.74,0,0,0,4.6-.55l.14,0a1.45,1.45,0,0,0,.91-.77,1.41,1.41,0,0,0,0-1.19l-.06-.13A32.56,32.56,0,0,0,68.5,40a14.05,14.05,0,0,0,6.44,1.4,24.41,24.41,0,0,0,4.71-.49l.16,0a1.43,1.43,0,0,0,1-2l-.07-.14a25.13,25.13,0,0,0-5.38-7.23,7.43,7.43,0,0,0,1.75-4.08,22.24,22.24,0,0,0,8.7-2.23l.16-.08a1.4,1.4,0,0,0,.74-1A1.42,1.42,0,0,0,86.3,22.87ZM85.17,24A21.1,21.1,0,0,1,76.67,26q-.49,0-1,0a5.87,5.87,0,0,1,0,.74,5.93,5.93,0,0,1-2.53,4.86,22.28,22.28,0,0,1,6.26,7.75l.07.15-.15,0a23.32,23.32,0,0,1-4.44.47,11.41,11.41,0,0,1-7.65-2.49A9.29,9.29,0,0,1,66,36.09c-.21.74-.46,1.49-.76,2.28a25.76,25.76,0,0,1,5.27,7.9l.06.13-.14,0a17.33,17.33,0,0,1-4.22.5,14.15,14.15,0,0,1-6.61-1.52,6,6,0,0,1-11.18.14c-1.11,1.61-2.29,3.33-3.55,5.22C33.91,67.12,33,80.13,32.35,88.74c-.34,4.78-.57,7.94-2.37,9.45a4.69,4.69,0,0,1-3.14.94q-.56,0-1.2-.06c-1.54-.18-2.49-.61-3-1.39-1.05-1.61-.05-4.68,1.59-9.75a141.26,141.26,0,0,0,6.46-27.51c.59-7.39-1.14-11.26-3.14-15.73a62.49,62.49,0,0,1-2.39-5.91,6.38,6.38,0,0,1-.75.72A9.43,9.43,0,0,1,25,42c.26,3.37-1.23,6.9-4.43,10.51l-.11.12-.09-.12c0-.06-4-5.46-3.28-10.56a10.93,10.93,0,0,1-2.69,4.11,12.31,12.31,0,0,1-8,3.11H6.24v-.12c-.1-5.14,1.17-8.83,3.76-11l.14-.11a19.4,19.4,0,0,1-5.91-1.56l-.11,0,0-.11a12.23,12.23,0,0,1,3.57-5.06c-.64,0-1.25-.06-1.78-.12a23.72,23.72,0,0,1-4.09-.85l-.15-.05.08-.14q3-4.85,6.7-6.37l-.57-.3a19.28,19.28,0,0,1-6.5-7v-.09l.09,0c4.72-1.32,8.51-1,11.26.89l.14.12a25.61,25.61,0,0,1-.41-9.4l0-.14.14,0c.06,0,6,1.67,8.85,6.56a11.26,11.26,0,0,1,1.4-.91c3.48-1.88,8-1.84,13.51.11l.13,0-.06.13a15.8,15.8,0,0,1-8.8,7.2c.25,1.07.49,2.32.73,3.68a5.93,5.93,0,0,1,9.23,1.56,6,6,0,0,1,3.93-5c-1.93-3.4-.88-7.65.13-10.27.45-1.16,1.5-3.4,1.74-3.4h0l0,0c3.41,3.38,5,6.74,4.79,10a12.43,12.43,0,0,1,5-2.12A20.82,20.82,0,0,1,56.82,15c-1.24-2.88-1.74-7.23.82-13.38l.07-.16.13.11c.08.07,5.37,4.71,5.9,10.56H64a6,6,0,0,1,5,2.78,7.72,7.72,0,0,1,.79-.7c2.66-2.05,6.77-2.5,12.2-1.36l.14,0,0,.14a14.68,14.68,0,0,1-4.52,5.87,20.68,20.68,0,0,1,7.66,4.94l.12.12Z"/><path class="cls-1" d="M64.49,24l0-.06h-.09Z"/><path class="cls-1" d="M58.64,30.37c-.93,1.65-2.06,3.39-3.38,5.33a8.78,8.78,0,0,1,5.45-.09c.27.08.53.18.8.28a12.06,12.06,0,0,1-2.78-5C58.69,30.69,58.67,30.53,58.64,30.37Zm-.42,3.43.07-.11.06.11Z"/><path class="cls-1" d="M49.8,24.73c-.22,0-.43,0-.64,0a5.78,5.78,0,0,1,.37,2.05,6,6,0,0,1-6,6,5.58,5.58,0,0,1-1.49-.2,14,14,0,0,1,.81,11.07c4.2-3.25,7.28-10.57,9.9-16.81.46-1.09.91-2.14,1.34-3.13a9.53,9.53,0,0,1-1.58.68A9.22,9.22,0,0,1,49.8,24.73ZM45.07,39.11a14.6,14.6,0,0,0-.73-5,7.36,7.36,0,0,0,4.87-2.59A48.43,48.43,0,0,1,45.07,39.11ZM50.9,27.63a8.49,8.49,0,0,0,.05-.88c0-.23,0-.45,0-.67.22,0,.45,0,.67-.09Z"/></svg>