<svg id="圖層_1" data-name="圖層 1" xmlns="http://www.w3.org/2000/svg" viewBox="0 0 112.21 65.32"><defs><style>.cls-1{fill:#fff;}</style></defs><title>0</title><path class="cls-1" d="M57.06,36.36l.61-.28c-.31,0-.62,0-.93,0Z"/><path class="cls-1" d="M70.85,37v0h0Z"/><path class="cls-1" d="M31.31,19.83a8.73,8.73,0,0,0-5.49,3,16.31,16.31,0,0,1-6.75,4.58,10.93,10.93,0,0,1,3.39,4.49A9.53,9.53,0,0,1,30.65,29a16.78,16.78,0,0,1,2.29-8.36A9.44,9.44,0,0,1,31.31,19.83Zm-2,7.65a11,11,0,0,0-6.36,2.11,13.37,13.37,0,0,0-1.31-1.78,17.54,17.54,0,0,0,5.3-4.1A7.15,7.15,0,0,1,31,21.33,18.22,18.22,0,0,0,29.27,27.48Z"/><path class="cls-1" d="M99.51,8.78A12.68,12.68,0,0,0,89.34,29.06a20.72,20.72,0,0,0-2.9,4.34,11.69,11.69,0,0,0-3.79-1.35,18.4,18.4,0,0,0,1.55-6.4,6.69,6.69,0,0,1,.9-2.2c.8-1.47,1.9-3.47.62-5.56a5.67,5.67,0,0,0-4.19-2.73c-.21,0-.43,0-.67,0-1.4,0-3.54.51-5.87,2.93a8.42,8.42,0,0,1-4.51,2.35,11.59,11.59,0,0,0-3.38,1.33,11,11,0,0,0-9.84-7.53,11.65,11.65,0,0,0-1.16-2,6.75,6.75,0,0,1-1.49-3.64c-.28-2.93-1.55-5.27-3.46-6.42a5,5,0,0,0-2.56-.72,5,5,0,0,0-1.93.4,5.29,5.29,0,0,0-2.18,1.57A11.25,11.25,0,0,0,36.38,0,11.37,11.37,0,0,0,25.51,8.17a9.47,9.47,0,0,0-4.82-1.44A12.83,12.83,0,0,0,18.46,7a11.75,11.75,0,0,1-1.88.2,7.13,7.13,0,0,1-2.46-.46,11.79,11.79,0,0,0-3.68-.64A7.33,7.33,0,0,0,6.3,7.23a5.11,5.11,0,0,0-2.27,4c-.18,3.7,2.48,5.23,4.62,6.46a11.3,11.3,0,0,1,3.28,2.43,11.26,11.26,0,0,0,5.73,4l-.89.28a12.22,12.22,0,0,0-4.43-.83,12.34,12.34,0,0,0-1,24.64,42.5,42.5,0,0,0-.82,5.11,29.4,29.4,0,0,1-.84,4.89c-.86,2.88-.44,5.2,1.17,6.38a3.76,3.76,0,0,0,2.23.69,8.64,8.64,0,0,0,4.7-1.82l2-1.34a42,42,0,0,1,8.07-4.53c2.93-1.42,4.65-4.45,5-8.78a10.69,10.69,0,0,0,2.93-1.5,5.37,5.37,0,0,0,1,1.22,4.25,4.25,0,0,0,2.74,1,4,4,0,0,0,.78-.08,11,11,0,0,0,21-4.49A10.83,10.83,0,0,0,60.07,40a15,15,0,0,0,1.79-1.09c1.5,2.5,3.47,5.13,7,6.32a11.9,11.9,0,1,0,21.48-8.34A14.75,14.75,0,0,1,93,32.36a12.45,12.45,0,0,0,6.52,1.82,12.7,12.7,0,0,0,0-25.4Zm0,24a11.21,11.21,0,0,1-6.75-2.26,16.42,16.42,0,0,0-4,6.63,10.48,10.48,0,1,1-18.57,7c-4.17-1-6.11-4.2-7.93-7.4A13,13,0,0,1,58,39.35a9.55,9.55,0,1,1-16.84,8.37,3.37,3.37,0,0,1-1,.37,3,3,0,0,1-.66.08,2.79,2.79,0,0,1-1.82-.69A4.43,4.43,0,0,1,36.35,45,10.6,10.6,0,0,1,35,46.19a9.59,9.59,0,0,1-3.48,1.57c-.11,3.3-1,7-4.27,8.6A43.16,43.16,0,0,0,19,61L17,62.32a7.37,7.37,0,0,1-3.91,1.58,2.29,2.29,0,0,1-1.39-.42c-1.08-.78-1.32-2.59-.65-4.82A31.48,31.48,0,0,0,12,53.53a33.21,33.21,0,0,1,1.27-6.7c-.29,0-.59,0-.89,0a10.92,10.92,0,1,1,4.33-20.95,14.52,14.52,0,0,0,7.52-4.45,12.62,12.62,0,0,1,.89-.9q-.45.32-.93.72A7,7,0,0,1,19.67,23q-.32,0-.63,0a9.17,9.17,0,0,1-6-3.71,12.52,12.52,0,0,0-3.67-2.77c-2.08-1.2-4-2.33-3.91-5.16A3.7,3.7,0,0,1,7.1,8.4c1.59-1.09,4-1.22,6.57-.35a9.05,9.05,0,0,0,5,.31c1.83-.31,3.56-.59,6.73,1.43a6.31,6.31,0,0,1,1.07.82A9.9,9.9,0,0,1,44.76,6.05a3.9,3.9,0,0,1,2.44-2.9,3.53,3.53,0,0,1,3.22.24C51.94,4.3,53,6.25,53.2,8.73A8.15,8.15,0,0,0,54.94,13a8.38,8.38,0,0,1,1.33,2.58l.41,0a9.56,9.56,0,0,1,9.53,9c1.24-1.93,2.9-2.38,4.64-2.85A9.79,9.79,0,0,0,76,19c2.2-2.29,4.12-2.59,5.35-2.45a4.22,4.22,0,0,1,3.13,2c.86,1.41.1,2.81-.64,4.16a7.32,7.32,0,0,0-1.07,2.75,14.71,14.71,0,0,1-2.54,7.8l.4,0a10.42,10.42,0,0,1,6.43,2.23,18.94,18.94,0,0,1,4.13-6.43,11.27,11.27,0,1,1,8.3,3.66Z"/><path class="cls-1" d="M47.15,24.58a9.14,9.14,0,0,1,.16-1.28c-.3-.16-.62-.32-1-.48a6.2,6.2,0,0,1-3.39-3.47c0-.16-.1-.32-.14-.48a9.73,9.73,0,0,1-2.28,1.46,15.08,15.08,0,0,1,1.85,1.57A8.12,8.12,0,0,0,47.15,24.58Z"/><path class="cls-1" d="M69.67,41.72c.21.08.43.16.66.23a10.43,10.43,0,0,1,3.12-5.76,12.19,12.19,0,0,1-3.65-1.1A14.65,14.65,0,0,0,69.67,41.72ZM70.85,37h0Z"/><path class="cls-1" d="M56.68,34.71a9.58,9.58,0,0,1-9.42-8A11.13,11.13,0,0,1,44.53,26a12.82,12.82,0,0,0-2.86,4.59,8.22,8.22,0,0,0,2,1.86,5,5,0,0,1,2.26,3.44c0,.21,0,.43.05.64A9.48,9.48,0,0,1,56.79,38a11.26,11.26,0,0,0,4.55-2.85c-.25-.43-.5-.85-.77-1.26A9.53,9.53,0,0,1,56.68,34.71ZM47,34.56a6.43,6.43,0,0,0-2.57-3.26,7.38,7.38,0,0,1-1.17-1A11.53,11.53,0,0,1,45,27.67a11.44,11.44,0,0,0,1.12.28,11,11,0,0,0,4.16,6.1A10.88,10.88,0,0,0,47,34.56Zm10,1.8-.32-.24c.31,0,.62,0,.93,0Z"/><path class="cls-1" d="M40.75,23.3a11.87,11.87,0,0,0-2.85-2.18,10.87,10.87,0,0,1-1.52.13,9.33,9.33,0,0,1-1.6-.15c-.83,1.36-2.63,4.8-2.29,8.31a9.3,9.3,0,0,1,3.73,2.37,10,10,0,0,1,4.37-2.73,14.82,14.82,0,0,1,2.5-3.8A14.09,14.09,0,0,1,40.75,23.3Zm-1.19,4.61a12.06,12.06,0,0,0-3.37,1.92,11.19,11.19,0,0,0-2.32-1.4,13.05,13.05,0,0,1,1.67-5.8l.84,0a10.62,10.62,0,0,0,1.23-.07,10.54,10.54,0,0,1,2.13,1.7c.44.44.87.85,1.31,1.21A15.11,15.11,0,0,0,39.56,27.91Z"/><path class="cls-1" d="M65.09,29.69a9.85,9.85,0,0,1-2.62,3.05c.52.83,1,1.68,1.44,2.5a18.19,18.19,0,0,0,3.77,5.27,14.17,14.17,0,0,1,.55-6.26A7,7,0,0,1,65.09,29.69Zm1.18,6.82c-.38-.62-.74-1.28-1.11-1.95-.28-.5-.56-1-.86-1.53.14-.14.28-.27.41-.42a8.71,8.71,0,0,0,1.88,2.19A16.41,16.41,0,0,0,66.27,36.51Z"/></svg>