<svg id="圖層_1" data-name="圖層 1" xmlns="http://www.w3.org/2000/svg" viewBox="0 0 94.08 97.65"><defs><style>.cls-1{fill:#fff;}</style></defs><title>0</title><path class="cls-1" d="M74.3,45.53l.31,2c.06-.15.13-.31.2-.46l.06-.12a9.24,9.24,0,0,1,.69-1,8.46,8.46,0,0,0-1-.67Z"/><path class="cls-1" d="M45.74,49.88h-.1a.77.77,0,0,1-.54-.22c-2-1.89-2.75-5.54-2.94-6.57-2.73,3.22-7.2,4.48-9.83,5,3.19.65,6.47,2.12,8.43,5.27a.88.88,0,0,1,.11.82,1.08,1.08,0,0,1-.76.66l-.26,0a23.06,23.06,0,0,1-5.92,0,31.46,31.46,0,0,1,2.77,5.41,9.83,9.83,0,0,1,1.72-.16,9.56,9.56,0,0,1,9.31,7.41v-6a9.49,9.49,0,0,1,0-11.31V45.71a30.49,30.49,0,0,1-1.27,3.7A1,1,0,0,1,45.74,49.88ZM46.31,62V62a10.9,10.9,0,0,0-7.89-3.33,7.81,7.81,0,0,0-.83,0c-.36-.84-.74-1.6-1.09-2.27h0A33.5,33.5,0,0,0,40,56.25l.26,0,.19,0a2.51,2.51,0,0,0,1.75-1.55A2.27,2.27,0,0,0,42,52.58a12.06,12.06,0,0,0-4.87-4.39,16.79,16.79,0,0,0,4.28-2.39,11.81,11.81,0,0,0,2.72,4.87,2.19,2.19,0,0,0,1.33.63A10.91,10.91,0,0,0,46.31,62Z"/><path class="cls-1" d="M65.4,28a10.88,10.88,0,0,1,1.28-.13c-.61-.33-1.07-.61-1.32-.78C65.39,27.39,65.4,27.7,65.4,28Z"/><path class="cls-1" d="M63.32,18.51a5.09,5.09,0,0,1,2.53.95A14.87,14.87,0,0,1,69,22.3L67.5,12.39C64.06,13.76,63.39,18,63.32,18.51Zm3.37-.19A6.67,6.67,0,0,0,65,17.44a7,7,0,0,1,1.42-2.62L67,18.54Z"/><path class="cls-1" d="M93.4,47.32a2.09,2.09,0,0,0,.65-1.92,2.16,2.16,0,0,0-1.39-1.66,19.84,19.84,0,0,0-6.85-1.14,27.92,27.92,0,0,0-6.19.73,6.69,6.69,0,0,0-1.64.59,10.89,10.89,0,0,0-1.49-1.14,10.76,10.76,0,0,0,1.41-5.36,10.91,10.91,0,0,0-4.4-8.77s0-.07,0-.11a15.06,15.06,0,0,0-2.79-6.44L67.81,3.42a1.42,1.42,0,0,0-1.4-1.2l-.22,0-.25,0a1.43,1.43,0,0,0-.93.56,1.4,1.4,0,0,0-.25,1.05l1.14,7.43a8.45,8.45,0,0,0-3.39,4,12.68,12.68,0,0,0-.62,1.82,7.32,7.32,0,0,0-1.38.34,17.28,17.28,0,0,0-7.26,5A11.09,11.09,0,0,0,49.4,15V5.6A1.43,1.43,0,0,0,48,4.18h-.25A1.43,1.43,0,0,0,46.31,5.6v7.49A11,11,0,0,0,33.82,30.23a12.58,12.58,0,0,0-3.56,1.88,2.36,2.36,0,0,0-.88,1.81,2.11,2.11,0,0,0,.76,1.63A11.37,11.37,0,0,0,34,37.9a18.21,18.21,0,0,0-2.3,3.26,11,11,0,0,0-3.8-6.86L30.39,1.54a1.4,1.4,0,0,0-.34-1,1.43,1.43,0,0,0-1-.49l-.36,0a1.42,1.42,0,0,0-1.41,1.31l-1,13.61-.16.15a5.68,5.68,0,0,0-.63-.67,18.93,18.93,0,0,0-9.34-4.7,2.28,2.28,0,0,0-.45,0,2.7,2.7,0,0,0-2.58,3.44,1,1,0,0,0,.12.3c.21.38.42.81.65,1.27s.57,1.14.9,1.74a14.76,14.76,0,0,0-2.4,1,15.45,15.45,0,0,0-7.15,8.39,2.61,2.61,0,0,0,.34,2.54,2.5,2.5,0,0,0,2,1h.17a23.62,23.62,0,0,0,8.29-1.88,8.11,8.11,0,0,0,.44,3.24,2.54,2.54,0,0,0,1.11,1.45A11,11,0,0,0,9.89,42.67a10.87,10.87,0,0,0,1.69,5.84,17.51,17.51,0,0,0-2.89-.24,20.39,20.39,0,0,0-4.47.52A2.52,2.52,0,0,0,2.4,50.28a2.61,2.61,0,0,0,.18,2.44l.09.13A25.25,25.25,0,0,0,7,57.26c-.54.41-1.15.9-1.78,1.46A16.45,16.45,0,0,0,.06,66.45a2.61,2.61,0,0,0,.42,2.09,2.54,2.54,0,0,0,1.75,1.07,18.1,18.1,0,0,0,2.42.16,17.6,17.6,0,0,0,6.14-1.07,17.66,17.66,0,0,0-.1,4,2.57,2.57,0,0,0,1.27,2,2.54,2.54,0,0,0,1.28.35,2.58,2.58,0,0,0,1-.22,14.42,14.42,0,0,0,7.13-6.5l.22.06a2.21,2.21,0,0,0,.51.05h.13L20.19,96.11a1.4,1.4,0,0,0,.34,1,1.43,1.43,0,0,0,1,.49l.35,0a1.41,1.41,0,0,0,1.41-1.31l2.34-31a20.69,20.69,0,0,0,1-2.06,18.12,18.12,0,0,0,1.72,2.09,11,11,0,0,0,10.08,15.3,10.91,10.91,0,0,0,7.89-3.34V96.15a1.43,1.43,0,0,0,1.42,1.42H48a1.43,1.43,0,0,0,1.42-1.42V65a10.9,10.9,0,0,0,6,1.79l.71,0a8.24,8.24,0,0,0,1,.21,40.55,40.55,0,0,0-3.26,10.81.41.41,0,0,0,0,.11,2.48,2.48,0,0,0,2.49,2.79,1.83,1.83,0,0,0,.32,0h.1a20.4,20.4,0,0,0,9.78-5A12.54,12.54,0,0,0,67,78.6a2.36,2.36,0,0,0,1.85,1.66,1.87,1.87,0,0,0,.4,0,2.49,2.49,0,0,0,2-1,25.62,25.62,0,0,0,3.78-7.51l.12-.38L78,89.76A1.42,1.42,0,0,0,79.4,91l.22,0,.24,0a1.42,1.42,0,0,0,1.19-1.62L77.15,64a12.84,12.84,0,0,0,3.68-3.74,22.25,22.25,0,0,0,7.77,7.84.31.31,0,0,0,.1,0,2.18,2.18,0,0,0,1,.25,2.21,2.21,0,0,0,.84-.17,2.28,2.28,0,0,0,1.29-1.42.57.57,0,0,0,0-.14c1.86-8.61-.65-13.53-2.73-16A17.56,17.56,0,0,0,93.4,47.32Zm-6.85,2.84c1.25.92,6.31,5.38,4,16.22a.9.9,0,0,1-.49.55.8.8,0,0,1-.3.06,1,1,0,0,1-.4-.09c-2.07-1.26-6.92-4.72-8.48-10.3a8.61,8.61,0,0,1-.71,2,11.28,11.28,0,0,1-4.53,4.7l4,26.2-.25,0-4-26.1a.83.83,0,0,1-.67,0,.88.88,0,0,1-.49-.54,24.93,24.93,0,0,1-.36-6.4c-1.19,0-2.21,1.51-2.49,2a5.91,5.91,0,0,1,1.72,2.11,14.55,14.55,0,0,1,.61,10.75,24.4,24.4,0,0,1-3.58,7.09,1.05,1.05,0,0,1-1,.42.94.94,0,0,1-.73-.68,19.57,19.57,0,0,1-.48-6.43c-3.43,5.4-9.13,7.06-11.47,7.53H56.3a1.06,1.06,0,0,1-.78-.32,1.1,1.1,0,0,1-.3-.91c1.56-8.47,3.64-11.53,4.34-12.35a9,9,0,0,1-3.3-.37,7.92,7.92,0,0,1-.85.05A9.54,9.54,0,0,1,48,61.83V96.15h-.25V71.8a9.55,9.55,0,0,1-18.86-2.14,9.43,9.43,0,0,1,1.19-4.6,15.17,15.17,0,0,1-3.71-5.22,23.63,23.63,0,0,1-2.14,5L21.85,96.23l-.25,0,2.32-30.88a9.06,9.06,0,0,1-1.1,1.4,1,1,0,0,1-.88.26.92.92,0,0,1-.69-.59c-.08-.24-.16-.52-.25-.82a12.83,12.83,0,0,1-7.29,7.94,1.1,1.1,0,0,1-.47.1,1.12,1.12,0,0,1-.56-.15,1.19,1.19,0,0,1-.58-.92,15.1,15.1,0,0,1,.78-6.5A15.79,15.79,0,0,1,2.42,68.2a1.13,1.13,0,0,1-.78-.47,1.19,1.19,0,0,1-.19-1,15,15,0,0,1,4.68-7,24.72,24.72,0,0,1,3.39-2.55A19.25,19.25,0,0,1,3.78,52a1.2,1.2,0,0,1-.08-1.12,1.09,1.09,0,0,1,.8-.66c6.43-1.46,10.84.61,13.42,2.61a9.62,9.62,0,0,1,2.31,2.66,19.33,19.33,0,0,1,.71-3.23h-.08a9.56,9.56,0,1,1,5.36-17.46L27.63,16a4.61,4.61,0,0,0-1.46,2.51l0,.1h0A4.94,4.94,0,0,1,26,20.32c-1.68,6.51-4.72,9.42-6.38,10.58a1.22,1.22,0,0,1-.72.24,1.27,1.27,0,0,1-.34-.05,1.12,1.12,0,0,1-.72-.76,8.25,8.25,0,0,1,.38-5.85C15.1,27.17,10.33,27.82,7.7,28a1.08,1.08,0,0,1-1-.45,1.19,1.19,0,0,1-.17-1.16,14.09,14.09,0,0,1,6.51-7.67,12.58,12.58,0,0,1,4-1.38A23.49,23.49,0,0,1,15.17,14c-.24-.48-.46-.93-.68-1.32a1.28,1.28,0,0,1,.29-1.23,1.27,1.27,0,0,1,1.14-.4,17.54,17.54,0,0,1,8.62,4.35A5.12,5.12,0,0,1,26,18.05a4.1,4.1,0,0,1,1.62-2.37L28.73,1.42l.25,0-2.52,33.5A9.51,9.51,0,0,1,29,47.66a21.77,21.77,0,0,1,2.34.23.87.87,0,0,1-.24-.7,16.52,16.52,0,0,1,5.83-10.1,9.88,9.88,0,0,1-5.86-2.6.74.74,0,0,1-.28-.58.9.9,0,0,1,.36-.69,10.48,10.48,0,0,1,5.63-2.14A9.54,9.54,0,0,1,47.73,15.45V5.6H48v10a9.51,9.51,0,0,1,.13,15.25,5.36,5.36,0,0,1-.13.86v5.45a6.47,6.47,0,0,1,.28,1.07A16.48,16.48,0,0,1,48,44.69v5.16a9.55,9.55,0,0,1,17,6,10,10,0,0,1-.11,1.35,20.77,20.77,0,0,1,4,.26,5.45,5.45,0,0,1,2.27.92c.31-.5,1.39-2.06,2.72-2.08,0-.49.09-1,.16-1.5l-1.49-9.66A9.54,9.54,0,0,1,59.33,31.64a23.24,23.24,0,0,1,.07-4.82c-2.23,2.46-6.13,2.49-7.31,2.44a.85.85,0,0,1-.62-.39.7.7,0,0,1-.06-.63A15.88,15.88,0,0,1,61,18.8h0a5.65,5.65,0,0,1,2.09-.31,9.73,9.73,0,0,1,.74-2.61,6.74,6.74,0,0,1,3.65-3.74l-1.3-8.46.24,0,2.94,19a13.61,13.61,0,0,1,2.75,6.16.72.72,0,0,1-.07.52,9.52,9.52,0,0,1,2.43,13.94,10.28,10.28,0,0,1,3.33,2.42,5.65,5.65,0,0,1,2.15-1c2.59-.6,7.63-1.35,12.24.36a.74.74,0,0,1,.48.58.67.67,0,0,1-.23.65C91.22,47.57,88.89,49.72,86.55,50.16ZM20.94,31.7a16.68,16.68,0,0,0,4.52-5.78L25,32.5A10.88,10.88,0,0,0,20.94,31.7ZM49.66,38c-.07-.33-.15-.67-.26-1V31.9c0-.09,0-.18.05-.28a11.31,11.31,0,0,0,1.37-1.4,2.29,2.29,0,0,0,1,.44l.17,0h.55a13,13,0,0,0,5.23-1c0,.49,0,1,.06,1.58A10.81,10.81,0,0,0,56,37.42a11,11,0,0,0,3.93,8.41,10.93,10.93,0,0,0-10.49.84V44.84A17.87,17.87,0,0,0,49.66,38Zm12.79,9.44a10.92,10.92,0,0,0,9,0l1.14,7.4c0,.12,0,.24,0,.36a5.4,5.4,0,0,0-1.79,1.37,6.79,6.79,0,0,0-1.65-.48,20.84,20.84,0,0,0-2.74-.27A11,11,0,0,0,62.45,47.43Z"/><path class="cls-1" d="M74.29,43.5A9.86,9.86,0,0,1,72.78,45l1.39,9a25.62,25.62,0,0,1,1.93-6.31,6.27,6.27,0,0,1,1.49-1.79A10.27,10.27,0,0,0,74.29,43.5ZM74.87,47l-.06.12c-.07.15-.14.31-.2.46l-.31-2,.3-.28a8.46,8.46,0,0,1,1,.67A9.24,9.24,0,0,0,74.87,47Z"/><path class="cls-1" d="M46.22,34.29a8.23,8.23,0,0,1,1.51,2.28V32.49A4,4,0,0,1,46.22,34.29Z"/><path class="cls-1" d="M46.05,34.11a4,4,0,0,0,1.68-2.41v-.53a9.57,9.57,0,0,1-3.56,1.51A8,8,0,0,1,46.05,34.11Z"/></svg>