<svg id="圖層_1" data-name="圖層 1" xmlns="http://www.w3.org/2000/svg" viewBox="0 0 108.51 120.58"><defs><style>.cls-1{fill:#fff;}</style></defs><title>0</title><path class="cls-1" d="M29.55,54a8.79,8.79,0,0,1,.94-.43l-.56-.6A8,8,0,0,1,29.55,54Z"/><path class="cls-1" d="M33.33,44.77v-.09l-.11,0Z"/><path class="cls-1" d="M44.4,37.13v.07l.15.06a12.75,12.75,0,0,1,1.9,1.17A45,45,0,0,0,41.3,27.88a12.68,12.68,0,0,1-.68,2.4A8.11,8.11,0,0,1,44.4,37.13Z"/><path class="cls-1" d="M49.76,48.21c-.33,0-.68,0-1.06,0a14.57,14.57,0,0,1-6.9-1.63,15.5,15.5,0,0,1-.22,2.54,19.08,19.08,0,0,1-1,3.44c.5.44,1,.86,1.49,1.26,4,3.22,7.14,4.57,9,3.81a2.09,2.09,0,0,0,1.21-1.13c.56-1.43-.52-3.85-1.77-6.64C50.26,49.36,50,48.79,49.76,48.21ZM51,56c0,.06-.08.2-.44.35a1.4,1.4,0,0,1-.58.1c-.72,0-2.84-.36-6.95-3.7q-.36-.28-.72-.6a19.48,19.48,0,0,0,.7-2.75c0-.23.08-.45.11-.68a16.94,16.94,0,0,0,5.62.94h.15l.36.81C50.15,52.56,51.31,55.14,51,56Z"/><path class="cls-1" d="M26.69,24.78a14.76,14.76,0,0,1,2.75,5A12,12,0,0,1,32,26.42a9.59,9.59,0,0,1,1.48-1.07,25.67,25.67,0,0,1-6.77-2.25A15.87,15.87,0,0,1,26.69,24.78Zm3.69,1.27c-.23.24-.44.49-.65.75-.22-.4-.45-.8-.7-1.2Q29.71,25.85,30.38,26.05Z"/><path class="cls-1" d="M57.32,44.38a14.43,14.43,0,0,1-4.17-.66c1,3.14,2.2,4.76,3.51,4.8h.06c1.61,0,3.17-2.33,4.35-4.73-.29.09-.59.18-.9.25A11.82,11.82,0,0,1,57.32,44.38Zm-.61,2.73c-.18,0-.65-.32-1.24-1.44a13.09,13.09,0,0,0,1.85.13c.32,0,.63,0,1,0C57.51,46.78,57,47.11,56.71,47.11Z"/><path class="cls-1" d="M77,25.61a9.1,9.1,0,0,1-1.13-.81,12.32,12.32,0,0,1-3.73-6.52,67.24,67.24,0,0,1-.94,13.06A64.58,64.58,0,0,1,77,25.61Zm-3.56-1.3a11.73,11.73,0,0,0,1.32,1.4c-.53.49-1,1-1.56,1.49C73.3,26.18,73.38,25.21,73.43,24.31Z"/><path class="cls-1" d="M108.49,14.38a1.46,1.46,0,0,0-.69-1l-.13-.07c-4.33-2.47-8.37-3.72-12-3.72a15.37,15.37,0,0,0-2.37.18,25.44,25.44,0,0,0-.82-7.43l0-.15a1.43,1.43,0,0,0-.84-.92,1.34,1.34,0,0,0-.52-.1,1.35,1.35,0,0,0-.71.19l-.15.08C86.64,3.55,81.07,7.65,79.8,13.38a20,20,0,0,0-2.94-2,20.2,20.2,0,0,0,1-2.75l0-.14a1.38,1.38,0,0,0-.22-1.15,1.41,1.41,0,0,0-1-.59h-.15c-1.08-.1-2.15-.16-3.17-.16-7.81,0-12.28,3-14.65,5.52a13,13,0,0,0-1,1.13,9.61,9.61,0,0,0-5.58-3.78,21.71,21.71,0,0,0,1-8V1.29a1.4,1.4,0,0,0-.57-1A1.44,1.44,0,0,0,51.66,0l-.3,0-.14,0c-8.5,1.85-12.07,6.65-13.57,10.36a16.92,16.92,0,0,0-1.13,4.41,19,19,0,0,0-9,3.66A24.05,24.05,0,0,0,25.93,14l-.08-.14a1.41,1.41,0,0,0-1-.74,1.15,1.15,0,0,0-.26,0,1.43,1.43,0,0,0-.94.36l-.12.11a25.91,25.91,0,0,0-4.36,4.88,17.27,17.27,0,0,0-1.57-1.91,25.75,25.75,0,0,0-6.39-4.86l-.14-.06a1.39,1.39,0,0,0-.63-.15,1.38,1.38,0,0,0-.56.12,1.4,1.4,0,0,0-.79.89L9,12.64c-1.54,5.11-1.26,9.43.81,12.84a10.66,10.66,0,0,0,.92,1.31,11,11,0,0,0-1.17.26c-3.76,1-6.91,3.8-9.36,8.25l-.06.12a1.42,1.42,0,0,0,.69,2l.12,0A22.33,22.33,0,0,0,8.72,38.9,15.89,15.89,0,0,0,14.21,38l.46.21a14.45,14.45,0,0,0-5.94,2.48C7.22,41.72,2.47,46,3,47.73a1.59,1.59,0,0,0,.69.82,21.48,21.48,0,0,0,7.64,2.73,9.56,9.56,0,0,0,9.23,8.41,12.41,12.41,0,0,0-3.68,5.23A22.11,22.11,0,0,0,15.69,74c.08,1.13.18,2.53,1.68,2.53a1.58,1.58,0,0,0,.38,0,16.83,16.83,0,0,0,6.63-3.27,18.81,18.81,0,0,0,3,6.05l.08.11a1.46,1.46,0,0,0,1,.53h.1a1.41,1.41,0,0,0,1-.38l.09-.09a15.5,15.5,0,0,0,4.87-7.52A9.48,9.48,0,0,0,39,70.48a14.67,14.67,0,0,0,7.66,6l.13,0a1.48,1.48,0,0,0,.51.09,1.51,1.51,0,0,0,.62-.14,1.49,1.49,0,0,0,.74-.86l0-.13A21,21,0,0,0,49.35,68V68a19.91,19.91,0,0,1,3.34,3.41c5.11,6.92,2.53,24.56.65,37.44-.66,4.5-.21,7.46,1.4,9.31,2,2.28,5.18,2.46,9.18,2.46h3.87c1.29,0,3.12-.16,4.19-1.57,1.4-1.84.64-4.46-.5-8.42a60.7,60.7,0,0,1-2.41-11.41,102.61,102.61,0,0,0-1.77-10.4c-1.7-8.34-3.61-17.7-2.58-28.06a16.3,16.3,0,0,0,5.65,3.16l.13,0a1.57,1.57,0,0,0,.37,0,1.45,1.45,0,0,0,.75-.22,1.38,1.38,0,0,0,.64-.92l0-.14a20.29,20.29,0,0,0,.14-8h.22a9.53,9.53,0,0,0,8.75-5.76,15.55,15.55,0,0,0,3.43,3l.11.06a1.39,1.39,0,0,0,.71.2,1.21,1.21,0,0,0,.38-.06,1.37,1.37,0,0,0,.86-.68l.06-.11a24.46,24.46,0,0,0,2.14-5,15.83,15.83,0,0,0,7.76,2,13.21,13.21,0,0,0,1.89-.12h0l.12,0A1.42,1.42,0,0,0,100,46.41l0-.12a23.65,23.65,0,0,0-3.45-9.17,9.57,9.57,0,0,0,2.89-6.83,9.87,9.87,0,0,0-.07-1.22c3.37-.9,6.09-2.85,6.62-4a1.66,1.66,0,0,0-.19-1.77l0-.06A22.14,22.14,0,0,0,102.4,20a19.58,19.58,0,0,0,5.69-4.37l.09-.12A1.42,1.42,0,0,0,108.49,14.38Zm-1.49.37a17.28,17.28,0,0,1-7.77,5,17.48,17.48,0,0,1,5.46,4.43h0s.08.14,0,.29c-.33.73-3.29,2.92-7,3.52a8.06,8.06,0,0,1-3.08,8.91,20.66,20.66,0,0,1,4,9.64l0,.13-.12,0a12.43,12.43,0,0,1-1.66.1,13.82,13.82,0,0,1-8.13-2.51c-.19-.14-.36-.3-.54-.45a20.92,20.92,0,0,1-2.47,6.76l-.06.11-.11-.07a14.85,14.85,0,0,1-4.8-5.08,8.11,8.11,0,0,1-8.09,7.69,8,8,0,0,1-2.2-.31,16.82,16.82,0,0,1,.45,9.5l0,.13-.13,0a14.18,14.18,0,0,1-7-5c-1.83,11.8.35,22.5,2.2,31.57a99.35,99.35,0,0,1,1.75,10.25A62.3,62.3,0,0,0,70.11,111c1,3.55,1.7,5.9.73,7.17-.53.69-1.5,1-3.06,1h-.11c-1,0-1.88,0-2.78,0-4.11,0-7.36,0-9.09-2-1.32-1.52-1.66-4.12-1.06-8.17,1.91-13.13,4.53-31.1-.92-38.49a28.51,28.51,0,0,0-6.74-6,14,14,0,0,1,.86,3.67A19.59,19.59,0,0,1,47.35,75l0,.13-.13-.05c-3.89-1.51-6.46-3.77-7.64-6.73,0,0,0,0,0-.06A8.08,8.08,0,0,1,34,70.51c-.22,0-.43,0-.65,0-.33,2.71-1.89,5.36-4.66,7.92l-.1.09-.08-.1s-3-3.91-3.16-8.25a13.77,13.77,0,0,1-7.94,5h0c-.11,0-.17,0-.26-1.22a20.64,20.64,0,0,1,1.12-8.46,10.47,10.47,0,0,1,8.66-7,8.14,8.14,0,0,1,6.39-4.16,38.21,38.21,0,0,1-4.38-4.86c0,.23,0,.47,0,.71a8.12,8.12,0,0,1-16.23,0c0-.06,0-.12,0-.18a18.68,18.68,0,0,1-8.3-2.67l0,0,0,0a17.94,17.94,0,0,1,5.19-5.4A11.37,11.37,0,0,1,21,40.44a30.43,30.43,0,0,0-6.75-4,14.32,14.32,0,0,1-5.53,1,20.75,20.75,0,0,1-7.17-1.33l-.13,0L1.48,36c2.26-4.1,5.12-6.65,8.49-7.57a11.45,11.45,0,0,1,4.31-.31,11.17,11.17,0,0,1-3.22-3.36c-1.86-3.06-2.08-7-.66-11.7l0-.14.14.06a23.93,23.93,0,0,1,6,4.56,15.82,15.82,0,0,1,2.63,3.71,22,22,0,0,1,5.27-6.59l.12-.11.08.14A22.68,22.68,0,0,1,26.56,21c2-1.75,6.26-4.84,11.26-4.85A16.25,16.25,0,0,1,39,11c1.37-3.39,4.66-7.78,12.56-9.5l.14,0v.14a20.3,20.3,0,0,1-1.54,9A8.11,8.11,0,0,1,57.53,16a14.94,14.94,0,0,1,2.13-2.93c2.57-2.72,7.54-5.78,16.66-4.92h.14l0,.14A20.86,20.86,0,0,1,75,12a18.34,18.34,0,0,1,6,4.54c-.51-6.62,5.85-11.46,10-13.85l.14-.09,0,.16a23.57,23.57,0,0,1,.59,8.88c3.2-1.07,8.18-1.12,15.26,2.92l.13.08ZM29.55,54a8,8,0,0,0,.38-1l.56.6A8.79,8.79,0,0,0,29.55,54Z"/><path class="cls-1" d="M82.17,27l-.74,0A75.2,75.2,0,0,0,70.91,37.19a8.06,8.06,0,0,1,8.34,3.24,15.72,15.72,0,0,1,2.63-9,7.88,7.88,0,0,1-.08-1.09A8.07,8.07,0,0,1,82.49,27ZM78,37.27a9.63,9.63,0,0,0-3.93-1.57,74,74,0,0,1,6.29-6c0,.2,0,.39,0,.59a6.85,6.85,0,0,0,0,.77A18.92,18.92,0,0,0,78,37.27Z"/><path class="cls-1" d="M62.74,20.67h-.11a18.16,18.16,0,0,1,3.64,5.12,21.67,21.67,0,0,0,0-5.63A12.59,12.59,0,0,1,62.74,20.67Z"/><path class="cls-1" d="M54.84,25.12a9.86,9.86,0,0,1-.92.62c.28,2.79-.41,6.25-3.13,10.31.23.66.47,1.35.7,2.06C54.33,36,58.76,34,64,36c.39-1.28.77-2.6,1.11-3.92a15.25,15.25,0,0,1-10.23-7ZM63,34.22a13.08,13.08,0,0,0-3.34-.43,14.63,14.63,0,0,0-7,1.86,18,18,0,0,0,2.62-7.52,16.61,16.61,0,0,0,5.28,4,16.82,16.82,0,0,0,2.7,1C63.23,33.48,63.12,33.85,63,34.22Z"/></svg>