<svg id="圖層_1" data-name="圖層 1" xmlns="http://www.w3.org/2000/svg" viewBox="0 0 162.99 99.81"><defs><style>.cls-1{fill:#fff;}</style></defs><title>0</title><path class="cls-1" d="M161.6,82a5.5,5.5,0,0,1-1.07-2.27v-.49a11.59,11.59,0,0,0-1.89-7.38,9.57,9.57,0,0,0-3.27-3.21,3.89,3.89,0,0,1-1.3-1.11,1.07,1.07,0,0,1-.24-1,4.67,4.67,0,0,0-.4-2.83,3.38,3.38,0,0,0-3.33-1.82l-.46,0c0-.08,0-.18,0-.32,0-.51,0-.63,1.61-1,1.38-.35,3.27-.83,4.05-2.91a6.43,6.43,0,0,0-.41-5c-.37-.92-.51-1.35-.38-1.65.92-2,1.78-5.08.67-8a4.19,4.19,0,0,0-2.69-2.46,6.41,6.41,0,0,0-2.06-.31,8.81,8.81,0,0,0-4.62,1.32,7.42,7.42,0,0,0-2.7,3.22c-.09.18-.21.41-.29.55l-.38-.1a7.32,7.32,0,0,0-2.33-.39,9,9,0,0,0-2.32.33c-1.9-8.88-8-14.48-11.88-16.14a12.21,12.21,0,0,0-5-1,23.9,23.9,0,0,0-2.9.22,18.14,18.14,0,0,1-2.24.19,6,6,0,0,1-1.69-.22,7.19,7.19,0,0,1-2.47-1.29,10.9,10.9,0,0,0-6.8-2.25A10.56,10.56,0,0,0,102,18.69a8.13,8.13,0,0,0-5.53-2.15,6.27,6.27,0,0,0-3,.7,2.65,2.65,0,0,0-1.49,2.87c.4,2.07,2.43,2.28,3.79,2.42a7,7,0,0,1,2.36.53,2.7,2.7,0,0,1,1.72,2A10.75,10.75,0,0,0,97,26.36a12.75,12.75,0,0,1-1.71.9c-.16-.4-.35-.8-.56-1.23a9,9,0,0,0-2.5-3.12,3.84,3.84,0,0,1-1.57-2.46c-.92-3.64-2.18-4.7-4.46-6.65l-.71-.6a11.14,11.14,0,0,1-2.23-3.41C82.24,7.68,81,5.3,78.43,5h-.06l-.6,0a2.61,2.61,0,0,0-2.84,2.18c-.09.34-.09.34-.23.41-1.61.81-2.14,2.59-2.57,4a8.56,8.56,0,0,1-.59,1.62,4.38,4.38,0,0,1-.75,0h-1a7.2,7.2,0,0,0-4.62,1.29c-1.22-.26-2.47-.48-3.72-.65A8.55,8.55,0,0,1,56.62,12a11,11,0,0,0-4-2,4.31,4.31,0,0,1,2-3.31,3.6,3.6,0,0,1,1.79-.36c1.22-.06,3.49-.16,4-3A2.59,2.59,0,0,0,59,.5,5,5,0,0,0,56.64,0a11,11,0,0,0-7.29,3.08,9.46,9.46,0,0,0-2.48,6.3,13.83,13.83,0,0,0-6.16,2.09,11.37,11.37,0,0,1-3.21,1.39c-.7.16-1.58.27-2.61.41-4.52.61-11.33,1.52-17.23,7.63a25.44,25.44,0,0,0-6.35,14.36c-3.49,1.06-4.21,2.45-4.2,4.33,0,.48,0,.49-.13.6a9,9,0,0,1-2.31,1.28c-2,.9-4.47,2-4.66,4.55s1.93,3.6,3.05,4.11a3.55,3.55,0,0,1,1,.57,3.48,3.48,0,0,1,0,.89,5.08,5.08,0,0,0,2.19,5,7.77,7.77,0,0,0,4.82,1.29c1.17,0,1.59.07,1.9.43a8.67,8.67,0,0,1-1,1A7.35,7.35,0,0,0,9.29,63a4.84,4.84,0,0,0,1.32,4.56c.37.45.6.75.6,1a3.22,3.22,0,0,1-.61,1.27c-.68,1.08-1.83,2.9-.51,5.08A3,3,0,0,0,12,76.3a3.79,3.79,0,0,0,1,.12c2.31,0,5.29-1.81,7.73-3.29l.63-.38a2.2,2.2,0,0,1,1.19-.39,4.48,4.48,0,0,1,1.34.31,7.26,7.26,0,0,0,2.36.47,5.17,5.17,0,0,0,1.55-.24A10.28,10.28,0,0,0,31.05,71a3.78,3.78,0,0,1,1.71-1,.67.67,0,0,1,.24,0c.53.17,1.15,1,1.81,1.92a11.86,11.86,0,0,0,4.68,4.29,11.21,11.21,0,0,1,2.82,1.89,4.79,4.79,0,0,0,3.07,1.52,3.45,3.45,0,0,0,1.78-.51c2-1.17,2.18-3.46,2.3-5.15a6.61,6.61,0,0,1,.28-1.91,10,10,0,0,1,1.08-1.42,29.79,29.79,0,0,0,1.92-2.49,5,5,0,0,0,.59.39,13.85,13.85,0,0,0,4.23,1.55c1.4.32,2,.49,2.74,1.41a4.24,4.24,0,0,1,.69,2.2c.17,1.39.43,3.49,3.3,4.52a9.84,9.84,0,0,0,3.37.62,13.49,13.49,0,0,0,1.45-.09,4.54,4.54,0,0,1,.6-.05h.09a4.37,4.37,0,0,1,.55.7,5.78,5.78,0,0,0,4.72,2.9h.18c2.54,0,3.23-2.22,3.64-3.55.33-1,.56-1.69,1-1.86a5.57,5.57,0,0,0,3.51-3.33,7.48,7.48,0,0,1,1.11-1.76q.19-.21.36-.42A17.18,17.18,0,0,0,89,72l1,0c.3,0,.61,0,1,0a14.3,14.3,0,0,1,2.07.16,24.21,24.21,0,0,1,4.65,1.29A24.56,24.56,0,0,0,106,75.12a13.73,13.73,0,0,0,3.95-.57,7.38,7.38,0,0,0,.48,1.44c.22.51.41.9.57,1.24a11.12,11.12,0,0,1,1.15,4.22c.69,4,4.66,9,8.67,11.11a25.51,25.51,0,0,1,4,3c2.64,2.23,5.14,4.33,7.53,4.33h0a3.63,3.63,0,0,0,1.11-.17c3-.94,2.69-3,2.53-3.93a1.75,1.75,0,0,1,.15-1.46,2.06,2.06,0,0,1,1.21-1,3.41,3.41,0,0,0,2.43-3,7.54,7.54,0,0,0-1-4.32,10,10,0,0,1-.55-1.37h0a5.94,5.94,0,0,1,2.18,1.1,10.3,10.3,0,0,0,5.16,2.06h.45a12,12,0,0,0,3.72-.63,6,6,0,0,1,1.74-.36,3.29,3.29,0,0,1,1,.16,19.18,19.18,0,0,1,2,.76A11.37,11.37,0,0,0,158.83,89a4.32,4.32,0,0,0,3-1.19C164.05,85.79,162.52,83.42,161.6,82Zm-.69,4.78c-1.61,1.52-3.77.6-5.85-.29a21.45,21.45,0,0,0-2.12-.82,5.49,5.49,0,0,0-3.55.2,10.48,10.48,0,0,1-3.7.57,9.06,9.06,0,0,1-4.45-1.84c-1.39-.91-2.6-1.69-3.73-1.15s-.73,1.56,0,3.2a6.37,6.37,0,0,1,.87,3.48,2,2,0,0,1-1.54,1.9A3.37,3.37,0,0,0,135,93.54a3.15,3.15,0,0,0-.36,2.45c.15,1,.29,1.77-1.55,2.35a2.26,2.26,0,0,1-.69.1c-1.88,0-4.28-2-6.62-4a25.28,25.28,0,0,0-4.25-3.15c-3.6-1.87-7.3-6.59-7.92-10.1a12.19,12.19,0,0,0-1.26-4.59c-.16-.32-.34-.71-.56-1.2a7,7,0,0,1-.59-2.78A12.93,12.93,0,0,1,106,73.71a23.44,23.44,0,0,1-8-1.69,25.76,25.76,0,0,0-4.92-1.35,16.09,16.09,0,0,0-3.28-.15,16.17,16.17,0,0,1-5.64-.72,4,4,0,0,1-.72,1.08A9,9,0,0,0,82.18,73a4.25,4.25,0,0,1-2.69,2.63c-1.21.4-1.59,1.61-1.95,2.78s-.8,2.55-2.29,2.55h-.12a4.37,4.37,0,0,1-3.62-2.31,4.22,4.22,0,0,0-.94-1.07,2.33,2.33,0,0,0-1.63-.17,8.23,8.23,0,0,1-4.17-.45c-2-.74-2.21-2-2.38-3.37a5.39,5.39,0,0,0-1-2.88,5.11,5.11,0,0,0-3.55-1.93,12.29,12.29,0,0,1-3.82-1.39,4.69,4.69,0,0,1-1.61-1.5,18.69,18.69,0,0,1-2.71,3.91,11,11,0,0,0-1.27,1.71A7.85,7.85,0,0,0,48,73.92c-.1,1.58-.22,3.22-1.59,4a2.12,2.12,0,0,1-1.07.33,3.67,3.67,0,0,1-2.16-1.19A12.23,12.23,0,0,0,40.07,75,10.41,10.41,0,0,1,36,71.13C35.12,70,34.4,69,33.43,68.7c-1.23-.38-2.17.34-3.25,1.19a9.06,9.06,0,0,1-2.82,1.66,4.59,4.59,0,0,1-3.06-.23,3.84,3.84,0,0,0-3.69.22l-.64.38c-2.42,1.47-5.74,3.49-7.61,3a1.62,1.62,0,0,1-1-.78c-.88-1.44-.19-2.54.48-3.61a3.92,3.92,0,0,0,.83-2,3,3,0,0,0-.93-1.89,3.49,3.49,0,0,1-1-3.34,6.12,6.12,0,0,1,2.25-2.95c1.14-1,2-1.76,1.25-2.83s-1.81-1-3.06-1a6.35,6.35,0,0,1-4-1A3.66,3.66,0,0,1,5.5,51.67a2.7,2.7,0,0,0-.26-1.77,3.73,3.73,0,0,0-1.6-1.07c-1.08-.48-2.3-1-2.22-2.74s2-2.51,3.84-3.33A9.42,9.42,0,0,0,8,41.19a1.92,1.92,0,0,0,.54-1.61c0-1,0-2.09,3.7-3.1a4,4,0,0,1,.4-.09,24.43,24.43,0,0,1,6.06-14.51c5.55-5.76,12.08-6.63,16.39-7.2,1.06-.14,2-.27,2.74-.44a12.77,12.77,0,0,0,3.6-1.53,12,12,0,0,1,6.82-1.94c0-2.3.31-4.87,2.12-6.69,2.36-2.36,6.3-3.2,8-2.32a1.17,1.17,0,0,1,.71,1.29h0c-.32,1.72-1.47,1.78-2.69,1.83a4.69,4.69,0,0,0-2.5.6,6,6,0,0,0-2.67,5.61,10,10,0,0,1,4.59,2,10,10,0,0,0,5.44,2.14c1.52.2,3,.47,4.33.78,1.37-1.44,3.26-1.42,4.72-1.4a3.48,3.48,0,0,0,2.19-.36,5.75,5.75,0,0,0,1-2.32c.39-1.29.78-2.62,1.85-3.15a1.72,1.72,0,0,0,1-1.32c.17-.65.32-1.26,2-1.1h0c1.86.23,2.78,2.08,3.76,4a12,12,0,0,0,2.57,3.85l.73.62c2.19,1.86,3.19,2.71,4,5.9a5.17,5.17,0,0,0,2,3.2,7.55,7.55,0,0,1,2.15,2.67,11.32,11.32,0,0,1,.93,2.39,11.77,11.77,0,0,0,3.34-1.48,9,9,0,0,1,3.66-1.39c-.24-2.4-1-3.65-2.77-4.42a8.07,8.07,0,0,0-2.79-.64c-1.25-.13-2.34-.24-2.54-1.28a1.28,1.28,0,0,1,.8-1.37A6.4,6.4,0,0,1,101,19.72c1.78,1.63,2.24,4,2.62,5.94l.06.34c4.17-.07,5.69,1,7.16,2a8.87,8.87,0,0,0,2.9,1.49,11.27,11.27,0,0,0,4.48.07,12.44,12.44,0,0,1,7.13.69c3.55,1.53,9.93,7.29,11.32,16.65.31-.09.59-.17.81-.25a6.61,6.61,0,0,1,4.55-.15,2.15,2.15,0,0,0,1.22.15c.53-.13.79-.65,1.12-1.31a6,6,0,0,1,2.2-2.66,7,7,0,0,1,5.47-.87,2.75,2.75,0,0,1,1.81,1.63c.94,2.42.18,5.07-.63,6.87a3.41,3.41,0,0,0,.36,2.76,5.17,5.17,0,0,1,.4,4c-.53,1.39-1.82,1.72-3.08,2s-2.61.66-2.68,2.35a2,2,0,0,0,.34,1.41,2.07,2.07,0,0,0,1.48.4c.79,0,1.68.06,2.1,1a3.26,3.26,0,0,1,.28,2,2.4,2.4,0,0,0,.47,2,5.26,5.26,0,0,0,1.72,1.53,8.21,8.21,0,0,1,2.84,2.78,10.25,10.25,0,0,1,1.67,6.61v.49a6.11,6.11,0,0,0,1.29,3C161.34,84.2,162.21,85.56,160.91,86.78Z"/></svg>