<svg id="圖層_1" data-name="圖層 1" xmlns="http://www.w3.org/2000/svg" viewBox="0 0 88.31 117.8"><defs><style>.cls-1{fill:#fff;}</style></defs><title>0</title><path class="cls-1" d="M86.69,28.35l-.68,0h-.48a6.29,6.29,0,0,1-4-1.3l.9,0a23.8,23.8,0,0,1,3.95.33l.29.05.25,0a1.42,1.42,0,0,0,1.2-2.18l-.16-.24c-2.72-4.27-5.72-6.18-9.72-6.18a16.56,16.56,0,0,0-4.31.63,6.09,6.09,0,0,1-1.31.17,7.59,7.59,0,0,0,.73-.94A10.73,10.73,0,0,0,75,11.66a6.76,6.76,0,0,1,.46-3.48,1.42,1.42,0,0,0-.58-1.88l-.22-.12A1.35,1.35,0,0,0,74,6a1.45,1.45,0,0,0-1.21.66s-1,1.47-4.38,3.26L68.2,10a9.35,9.35,0,0,0,.17-1.67V8.08a1.43,1.43,0,0,0-.79-1.28A1.51,1.51,0,0,0,67,6.66a1.42,1.42,0,0,0-.88.3l-.2.16a9.5,9.5,0,0,1-4.73,2A3.14,3.14,0,0,1,60.47,9a11.35,11.35,0,0,0-2.33-.25,7.91,7.91,0,0,0-1.41.11,6.66,6.66,0,0,0-2.82-.68,4.54,4.54,0,0,0-1.18.14c-.28-.77-.6-1.58-.95-2.45a22.3,22.3,0,0,1-1.5-4.51A1.41,1.41,0,0,0,48.87,0h-.25A1.43,1.43,0,0,0,47.2,1.35a13.76,13.76,0,0,1-1.5,5.2c-1.4,2.39-2.6,5.29-1.35,8.86a10.14,10.14,0,0,0-3.56,3.9A7.93,7.93,0,0,1,38.26,22,10.4,10.4,0,0,0,29,16a8.07,8.07,0,0,0-1.58.15c-1.92-3.85-5.71-6.63-9.26-6.63h-.28a5.43,5.43,0,0,0-5.11,3.13l-.46,0a8.7,8.7,0,0,0-5.24,2.17,12.69,12.69,0,0,1-5.63,2.66l-.25.05a1.4,1.4,0,0,0-1.12,1A1.42,1.42,0,0,0,.48,20l.19.17A8.41,8.41,0,0,0,6,22a8.76,8.76,0,0,0,2.83-.48h0A9.74,9.74,0,0,1,4.1,23.25l-.3,0a1.42,1.42,0,0,0-.88,2.47l.23.2a13.94,13.94,0,0,0,4.34,2.39c-1.83,4.53.87,10.76,1.22,11.53a1.51,1.51,0,0,0,1.37.84h.09A28.42,28.42,0,0,0,15.11,40l0,.22c-.93,5.82-2.41,6.53-2.41,6.53a1.43,1.43,0,0,0-1,1.72l.06.24a1.42,1.42,0,0,0,1.37,1.06,1.12,1.12,0,0,0,.32,0c.12,0,11.71-2.79,12.91-10.77a67.86,67.86,0,0,1,9.17,19.77c2.33,8.5.25,21.17-1.59,32.36C32.3,101.09,31,109,32.82,113a7.65,7.65,0,0,0,4.66,4.31,10.27,10.27,0,0,0,3.28.49c4.74,0,9.74-2.64,10-2.78a1.53,1.53,0,0,0,.71-1c1.44-5.88,0-14.18-1.48-23-2.29-13.35-4.87-28.47,1.88-38.33a109.34,109.34,0,0,0,7.14-12c.08.19.17.38.26.57C60.51,44,61,45,60.87,46.52l0,.26a1.41,1.41,0,0,0,.73,1.32,1.39,1.39,0,0,0,.69.18,1.45,1.45,0,0,0,.82-.26l.21-.15a14.16,14.16,0,0,0,5-7.42l.82,0A32.75,32.75,0,0,0,73,40.21a1.52,1.52,0,0,0,1.17-.94,13.34,13.34,0,0,0,.38-7l.29.12a10.09,10.09,0,0,0,4,.77,16.84,16.84,0,0,0,3.91-.5,21.38,21.38,0,0,0,4-1.39l.55-.26a1.43,1.43,0,0,0,.75-1.63A1.41,1.41,0,0,0,86.69,28.35ZM86.14,30a20,20,0,0,1-3.68,1.28,15.32,15.32,0,0,1-3.58.46,8.68,8.68,0,0,1-3.48-.65,12.34,12.34,0,0,0-3-.8,11.77,11.77,0,0,1,.46,8.41l0,.08h-.07a29.83,29.83,0,0,1-3.63.24c-.7,0-1.37,0-2-.1-.52,4.75-4.59,7.73-4.64,7.76l-.21.15V46.6c.12-1.93-.45-3.16-1.72-5.85-.33-.71-.71-1.52-1.14-2.47-.13-.31-.24-.6-.33-.88A103.93,103.93,0,0,1,50.71,52c-7.08,10.33-4.44,25.76-2.11,39.37,1.48,8.64,2.87,16.79,1.51,22.39l0,0-.05,0s-4.84,2.59-9.28,2.59a8.86,8.86,0,0,1-2.83-.43,6.29,6.29,0,0,1-3.82-3.54c-1.63-3.63-.3-11.72,1.23-21.1,1.86-11.32,4-24.15,1.56-32.95C33.7,47,28.63,39.62,24.82,34.25l-.39,0-.25,0c.7.75,1,2,.85,3.88-.46,7.53-11.78,10.25-11.89,10.28l-.07-.24c.54-.16,2.38-1.18,3.41-7.66a13.2,13.2,0,0,1,.6-2.51,24.4,24.4,0,0,1-7,1.33H10l0-.08C9.85,39,7.09,32.74,8.88,28.7a5.18,5.18,0,0,1,.75-1.23A13.23,13.23,0,0,1,4.1,24.89l-.23-.21h.3a11,11,0,0,0,5.75-2.23,7.18,7.18,0,0,1,3.42-1.71,4.91,4.91,0,0,1-.43-.48,7.17,7.17,0,0,0-4.57-.08,7.12,7.12,0,0,1-6.73-1.11l-.19-.17.25,0a14.1,14.1,0,0,0,6.21-2.91c1.76-1.27,3.3-2.35,5.89-1.71.05-.47.53-3.16,4.15-3.3h.22c3.4,0,7,3.12,8.46,6.94a7.13,7.13,0,0,1,5,0,8.57,8.57,0,0,1,5.86,6.22A10.56,10.56,0,0,0,42,20a8,8,0,0,1,4.15-3.9c-1.85-3.69-.64-6.47.75-8.84a15.34,15.34,0,0,0,1.69-5.84h.25a20.24,20.24,0,0,0,1.6,5c.51,1.29,1,2.61,1.41,3.8a5.12,5.12,0,0,1,.94-.44,4.66,4.66,0,0,1,3.71.58,8.41,8.41,0,0,1,3.65,0c2.93.68,6.54-2.12,6.58-2.14l.2-.16v.25a9.86,9.86,0,0,1-.44,2.6,6.77,6.77,0,0,1-3.12,4,10,10,0,0,1-2.62.92A7.32,7.32,0,0,1,61,17a4.2,4.2,0,0,1,1.75-.32,3.25,3.25,0,0,1,.45.08c.93-2.73,3.1-4.1,5.88-5.54,3.87-2.05,4.9-3.74,4.91-3.75l.22.12a8,8,0,0,0-.6,4.17A9.46,9.46,0,0,1,72.14,18a6.46,6.46,0,0,1-3.23,2.47,9.55,9.55,0,0,0,5.34.45c5.76-1.52,9.26-.13,12.49,4.94l.15.24L86.61,26c-.06,0-5-.88-8.36.19.29.24.57.49.84.74,1.76,1.56,3.43,3,7,2.86l.61,0Z"/><path class="cls-1" d="M47.17,36.89a2.63,2.63,0,0,0-1.88-.18l-.23.08.12-.41a8.13,8.13,0,0,1-2.32.65,18.1,18.1,0,0,1-2.56.18,15.58,15.58,0,0,1-3.9-.48C37.74,39,39,41.48,40.24,44c.8,1.68,1.69,2.53,2.64,2.53h0c1.89,0,4-3.2,6.05-7.37A4,4,0,0,0,47.17,36.89ZM42.88,45.1c-.15,0-.69-.3-1.36-1.72-.78-1.61-1.59-3.22-2.45-4.79.41,0,.82,0,1.23,0a19.79,19.79,0,0,0,2.75-.2,9.83,9.83,0,0,0,1.51-.31,1.43,1.43,0,0,0,.5.09,1.5,1.5,0,0,0,.47-.08l.21-.07A1,1,0,0,1,46,38a1.18,1.18,0,0,1,.53.12,2.15,2.15,0,0,1,.85,1C44.53,44.64,43.23,45.1,42.88,45.1Z"/><path class="cls-1" d="M51.77,27.68a7.46,7.46,0,0,1-2.72-5.39,9,9,0,0,1-1,.52,24.6,24.6,0,0,1-9.18,1.7c-.58,0-1,0-1.27,0a11.13,11.13,0,0,1,.21,1.67c.06.12.12.24.19.36a6.15,6.15,0,0,1,3.41-.43A3.55,3.55,0,0,1,44,27.4a4.31,4.31,0,0,1,.66,3,2.82,2.82,0,0,1,2.61,2,4,4,0,0,1,4.43.82l.48-1.08c.42-.94.84-1.88,1.26-2.79C53,28.81,52.43,28.27,51.77,27.68Zm-.63,3.38a5,5,0,0,0-2.08-.43,7,7,0,0,0-1,.08,4.1,4.1,0,0,0-1.9-1.44,5.19,5.19,0,0,0-1-2.72A4.59,4.59,0,0,0,44,25.45a22.73,22.73,0,0,0,4-1.09,9.46,9.46,0,0,0,2.87,4.38c.33.3.65.59,1,.89C51.57,30.1,51.35,30.58,51.14,31.06Z"/><path class="cls-1" d="M57.42,21.72l.09-.15a5.25,5.25,0,0,1,.75-2.2c.13-.19.25-.35.38-.52a15.11,15.11,0,0,1-2,.49A11.1,11.1,0,0,1,57.42,21.72Z"/></svg>