<svg id="圖層_1" data-name="圖層 1" xmlns="http://www.w3.org/2000/svg" viewBox="0 0 251.85 221.16"><defs><style>.cls-1{fill:#fff;}</style></defs><title>0</title><path class="cls-1" d="M133.48,184.47a2.78,2.78,0,0,0-1.58-.55,2.11,2.11,0,0,0-1.21.37c-4.12,2.69-6.79,3-8.66,3l-.92,0h-.66a5.26,5.26,0,0,0-.86.06h-1.38l-2,0h-.51l0-.1a1.55,1.55,0,0,0-1.48-1.6H114a1.52,1.52,0,0,0-1.42,1.47,3.19,3.19,0,0,0,0,.32c-.62,0-1.25.09-1.87.15h-.14a1.73,1.73,0,0,0-.38.05c-.93.1-1.83.22-2.73.37.12-1.82.15-3.4.17-4.55,0-.55,0-1,0-1.4v0c0-.19,0-.46,0-.84a38.61,38.61,0,0,1,.68-7.59,9.52,9.52,0,0,1,2-4.71,4.54,4.54,0,0,0,1.1-2.2c.24-1.71-1.07-3.28-2.4-4a3.52,3.52,0,0,0-1.71-.49,2.32,2.32,0,0,0-1.5.52c-4.89,4.11-7.85,4.18-9.11,4.2a5.21,5.21,0,0,0-1,.09l-.12,0-.19.07-2,.07a9.68,9.68,0,0,0-.31-3.09c-.22-1.15-.5-2.57-.7-4.46a38.56,38.56,0,0,1,.61-11.47,2.45,2.45,0,0,0-1.44-3.05,3.38,3.38,0,0,0-1.3-.24,3.94,3.94,0,0,0-3.3,1.59l-.05.07a17.11,17.11,0,0,0-.86,2,21.25,21.25,0,0,1-2.46,4.72A22.29,22.29,0,0,1,79.11,158a20.17,20.17,0,0,0-1.89,1.75,3,3,0,0,0-.37.28c-.83.79-2.51,2.16-4.3,3.61s-3.7,3-5.69,4.72c0-1.75,0-3.59-.07-5.56a30.65,30.65,0,0,0-.58-4.47.88.88,0,0,0,0-.17,1.45,1.45,0,0,0-.07-.26c-.21-1-.47-2-.77-3v-.12a1.49,1.49,0,0,0-.3-.83c-.21-.67-.44-1.34-.69-2a8.49,8.49,0,0,0,3,.62,4.6,4.6,0,0,0,1.74-.29,1.54,1.54,0,0,0-.58-3,1.36,1.36,0,0,0-.52.09,2.28,2.28,0,0,1-.63.07,6.54,6.54,0,0,1-3.23-1,10.33,10.33,0,0,0-1.57-.77A102,102,0,0,0,57,137.13l-.87-1.47a5,5,0,0,0-.32-.48A53.64,53.64,0,0,1,54,127.26c-.54-3.16-.69-3.89-1.1-4.47a4.23,4.23,0,0,0-3.15-1.24,4,4,0,0,0-1.07.14,2.26,2.26,0,0,0-1.76,1.93A27.86,27.86,0,0,1,43.71,135a5.16,5.16,0,0,0-.74,1.94A45.09,45.09,0,0,1,38.6,142l-1.14,1.24a1.55,1.55,0,0,0-.47.52c-1.38,1.51-3.15,3.49-5,5.68a29.86,29.86,0,0,0-3.7,5.64,7.7,7.7,0,0,1-1.16.14,1.54,1.54,0,0,0-.24,3.06c-.2.55-.39,1.1-.56,1.67a1.67,1.67,0,0,0-.16.55A34.46,34.46,0,0,0,25.1,166a1.85,1.85,0,0,0,0,.23,1.55,1.55,0,0,0,0,.22,39.49,39.49,0,0,0-.25,4.59,50.55,50.55,0,0,0,2.71,15.67c.23.62.46,1.34.71,2.1.34,1.06.79,2.45,1.33,3.89a6.42,6.42,0,0,1-2.73,2,1.52,1.52,0,0,0-.89.78,1.69,1.69,0,0,0-.09,1.15,1.55,1.55,0,0,0,1.47,1.07,1.92,1.92,0,0,0,.48-.07,10.27,10.27,0,0,0,3.07-1.8c1.43,3,3.61,6.28,7.13,7.58a9.3,9.3,0,0,0,3.21.56,13.47,13.47,0,0,0,5.33-1.24c.32,2.14,2.34,4.45,2.75,4.92a1.59,1.59,0,0,0,1.14.49,1.68,1.68,0,0,0,1-.4,1.56,1.56,0,0,0,.1-2.18,8.69,8.69,0,0,1-2-3.31,3.63,3.63,0,0,0-.25-1A39.77,39.77,0,0,0,53.91,198c.13,1.74.16,3.49.19,5.08.07,4.45.13,7.66,2,9.18a4.94,4.94,0,0,0,3.14,1c2.48,0,5.74-1.28,8.74-2.66,2,2.11,5,3.48,9,4.16a21.82,21.82,0,0,0,3.75.31c.55,0,1.13,0,1.8-.07h0l.25,0c.47,0,.92-.09,1.38-.15a7.37,7.37,0,0,0,1.23,2.92c1.13,1.56,3.58,2.61,7.26,3.11a40,40,0,0,0,5.28.32c7.86,0,18.14-1.85,22.57-5.38,5.58-4.54,6.89-11.44,7.6-15.19a15.54,15.54,0,0,1,.37-1.72,14.81,14.81,0,0,0,.91-1.76c.28-.59.59-1.25,1-2a11.32,11.32,0,0,1,2.88-3.08,6,6,0,0,0,2.28-2.67C136.11,187.62,134.71,185.35,133.48,184.47Zm.77,4.46c-.17.61-.9,1.21-1.82,2a12.33,12.33,0,0,0-3.23,3.51c-.43.8-.76,1.5-1,2.12a13.52,13.52,0,0,1-.88,1.67s0,0,0,0a12.45,12.45,0,0,0-.51,2.14c-.66,3.53-1.91,10.1-7.08,14.32-4,3.21-13.83,5.05-21.68,5.05a37.81,37.81,0,0,1-5.09-.31c-3.24-.44-5.42-1.32-6.31-2.54a7.56,7.56,0,0,1-1.19-3.7,26.25,26.25,0,0,1-2.77.36h0c-.61,0-1.22.07-1.83.07a20.36,20.36,0,0,1-3.51-.29c-4.15-.71-7.06-2.18-8.84-4.5-3.59,1.7-6.83,3-9.12,3a3.52,3.52,0,0,1-2.25-.67c-1.4-1.11-1.45-4.2-1.52-8.1,0-2-.07-4.34-.32-6.6-.06-.46-.09-.93-.11-1.41a36.17,36.17,0,0,1-6.54,5c-.38.24-.76.45-1.13.65a3.93,3.93,0,0,1,.76,1.68c.2,1.74,2.32,4.08,2.34,4.11a.12.12,0,0,1,0,.17.11.11,0,0,1-.08,0,.13.13,0,0,1-.1,0c-.09-.1-2.19-2.42-2.4-4.24a3.73,3.73,0,0,0-.73-1.6,13.13,13.13,0,0,1-6,1.71,7.89,7.89,0,0,1-2.72-.47c-3.53-1.3-5.71-5.11-7.23-8.89a7.82,7.82,0,0,1-3.9,3.09h0a.13.13,0,0,1,0-.25,7.37,7.37,0,0,0,3.85-3.17c-.61-1.56-1.12-3.11-1.56-4.46-.25-.77-.49-1.51-.71-2.14a48.74,48.74,0,0,1-2.64-15.2,40.34,40.34,0,0,1,.27-4.6s0,0,0-.05,0,0,0,0a34,34,0,0,1,1.14-5.66s0,0,0,0a.11.11,0,0,1,.05-.09,28.94,28.94,0,0,1,1.49-3.93,9.28,9.28,0,0,1-2,.26.12.12,0,0,1-.13-.12.13.13,0,0,1,.13-.13,9.66,9.66,0,0,0,2.13-.31,28.18,28.18,0,0,1,3.82-6c1.78-2.15,3.53-4.11,5.09-5.82a.12.12,0,0,1,.07-.13h.06L39.65,143c2.52-2.75,4.35-4.75,4.76-5.84,0,0,0,0,0-.05,0-.3.17-.72.58-1.5a29.1,29.1,0,0,0,3.38-11.86h0a.89.89,0,0,1,.73-.68,3.18,3.18,0,0,1,2.73.62,19.63,19.63,0,0,1,.82,3.83,49.54,49.54,0,0,0,1.89,8.41,2.83,2.83,0,0,1,.32.45l.9,1.5a101.61,101.61,0,0,1,5.82,10.85,8.37,8.37,0,0,1,1.88.85c3.13,1.81,5,1.08,5.07,1.07a.12.12,0,1,1,.09.23,3.59,3.59,0,0,1-1.21.18,8.21,8.21,0,0,1-4.08-1.27,8.27,8.27,0,0,0-1.62-.76,56.57,56.57,0,0,1,2.13,5.64.13.13,0,0,1,.11.12.14.14,0,0,1,0,.1c.35,1.13.65,2.29.89,3.44l0,0s0,0,0,0a28.31,28.31,0,0,1,.59,4.44,68.44,68.44,0,0,1-.1,8.78c.5-.45,1-.91,1.53-1.36-.42-.16-.71-.3-.75-.32a.12.12,0,0,1,0-.17.12.12,0,0,1,.16,0s.36.17.85.35c2.18-1.9,4.48-3.77,6.44-5.36S77,161.83,77.83,161a1.65,1.65,0,0,1,.31-.2A16.14,16.14,0,0,1,80,159a23.12,23.12,0,0,0,4.83-5.13,22.62,22.62,0,0,0,2.6-5,13.93,13.93,0,0,1,.78-1.78h0a2.72,2.72,0,0,1,2.87-.78,1,1,0,0,1,.6,1.38,40.27,40.27,0,0,0-.65,12c.2,1.94.49,3.4.72,4.58.34,1.76.54,2.73,0,3.29a.34.34,0,0,1-.12.06c0,.3,0,.64,0,1,1.35-.12,2.79-.19,4.33-.21a.26.26,0,0,1,.13-.14,4.21,4.21,0,0,1,.7-.05c1.41,0,4.72-.1,10-4.53h0c.35-.3.94-.25,1.61.12a3,3,0,0,1,1.69,2.58,3.29,3.29,0,0,1-.82,1.53A10.84,10.84,0,0,0,107,173.3a38.64,38.64,0,0,0-.7,7.85,7.24,7.24,0,0,1,0,.77h0v0c0,.39,0,.87,0,1.43,0,1.6-.09,3.83-.32,6.3,1.65-.33,3.19-.55,4.61-.69a.12.12,0,0,1,.08,0h0l0,0c1.38-.14,2.65-.21,3.79-.24a3.36,3.36,0,0,1-.44-1.6.13.13,0,0,1,.13-.12.12.12,0,0,1,.12.13,3.45,3.45,0,0,0,.48,1.58c1.35,0,2.51,0,3.47,0,.6,0,1.12,0,1.54,0a5.45,5.45,0,0,1,1.33-.05c1.93.07,5.16.18,10.41-3.24a1,1,0,0,1,1.19.15C133.58,186.29,134.52,188,134.25,188.93Z"/><path class="cls-1" d="M52,87c.22-1,.42-2,.57-3.05a9.64,9.64,0,0,0-1.2,0C51.62,84.8,51.83,85.83,52,87Z"/><path class="cls-1" d="M242.62,163a40.83,40.83,0,0,1-6.72-4.32A31.42,31.42,0,0,1,230,151.3c-3-4.59-5.77-8.93-13.16-9.44q-.85-.06-1.68-.06c-4.94,0-8.87,1.67-12.36,3.15-2.75,1.17-5.34,2.27-8,2.27a9.46,9.46,0,0,1-1.68-.15c-3-.55-6.07-2.56-9.33-4.69-1.4-.92-2.71-1.77-4.08-2.58,1-1.28,1.88-2.56,2.7-3.73a43.8,43.8,0,0,1,5.14-6.43c2.72-2.5,4.83-3.06,7.49-3.78A34.12,34.12,0,0,0,207.5,120c8.92-6.31,10-13.36,10.72-18.51.2-1.34.39-2.6.68-3.74.41-1.57,2.46-3.91,4.64-6.39,4.92-5.6,11.67-13.27,5.88-20.57-2.77-3.53-6-5.24-10-5.24A28.7,28.7,0,0,0,211.79,67a24.54,24.54,0,0,1-6.39,1.24l-.61,0c-2.42-.19-5.08-1.42-7.9-2.73-4-1.86-8.58-4-14.06-4a22.17,22.17,0,0,0-6.54,1c-4.81,1.47-7.37,4.17-9.63,6.55s-4.6,4.86-9.36,6a18.8,18.8,0,0,1-4.45.61,15.67,15.67,0,0,1-5-.94,20.88,20.88,0,0,0-6.75-1.19,27.2,27.2,0,0,0-4.55.42,16.46,16.46,0,0,0-3,.83c-1.47-8.26-8-11.93-12-13.42-6.93-2.55-7.44-6.17-8.69-14.91l-.32-2.22a25.77,25.77,0,0,0-9.13-15.47A24.58,24.58,0,0,0,87.58,23a25.19,25.19,0,0,0-3.56.26c-8.84,1.3-12.13,5.81-14,11A22.17,22.17,0,0,0,65,23.05c-4.89-5.65-11.82-6.24-17.39-6.72-3.35-.29-6.25-.54-7.8-1.76-1-.75-2.25-2-3.63-3.24C31,6.55,23.91,0,18,0a7,7,0,0,0-3.19.74c-3.68,1.92-6.89,6-8.58,11a22.37,22.37,0,0,0,.24,15.75c1.68,4.18.38,5.41-1.78,7.45S0,39.29,0,44.65C0,50.81,5.38,55,10.13,58.75,13.66,61.51,17,64.12,17,66.67a23.75,23.75,0,0,1-1.36,6.61c-1.56,5.19-3.33,11.07,1.65,18a12.61,12.61,0,0,0,8.85,5.6,14,14,0,0,0,1.6.09c5.43,0,11.88-3.19,19.71-9.74q0,.35.09.72c.22,1.85.53,4.35.78,7.07a15.73,15.73,0,0,0,.44,8.4,59.82,59.82,0,0,1-.51,8.63,2.42,2.42,0,0,0,1.55,2.49,4.11,4.11,0,0,0,1.64.34,3.84,3.84,0,0,0,3-1.34c.3-.34.56-.82.68-2.56a26,26,0,0,0,3.58,1.2c3,.82,5.51,1.53,7.4,4.87,5.36,9.56,10.18,13.82,15.62,13.82a16.05,16.05,0,0,0,7.78-2.43,46.06,46.06,0,0,1,5.32-2.62c-1,3.47-2.54,7.77-3.57,10.63-.8,2.24-1.13,3.17-1.21,3.6a2.39,2.39,0,0,0,1.29,2.6,3.47,3.47,0,0,0,1.65.4,3.75,3.75,0,0,0,2.58-1c1.56-1.46,5.23-12.88,6.24-17.95l.85,0a13.38,13.38,0,0,1,8.08,2.68,20,20,0,0,0,11.6,3.78,16,16,0,0,0,6.36-1.26c3.15-1.39,7.08-4.55,7.87-11.72a21.65,21.65,0,0,0,.16-3.07,35.61,35.61,0,0,1,5.69,3.6c-3,3.85-5.19,8.53-7.34,13.12-4.07,8.77-8.29,17.84-18.9,22.24A3.66,3.66,0,0,0,114,158a1.42,1.42,0,0,0,.08.18l0,.05a3.48,3.48,0,0,0,2,2.09,3.39,3.39,0,0,0,1.22.23,3.27,3.27,0,0,0,1.51-.37c13.22-5.44,18.33-16.33,22.84-25.94a80.59,80.59,0,0,1,4.8-9.24c.58,2.3,1,5,1.38,7.77s.81,5.64,1.47,8.34a31.88,31.88,0,0,0-2.26,3.46,10,10,0,0,0-.82,7.77c1.05,3.48,4,6.54,8.45,8.83a12.38,12.38,0,0,1,4.65,3.78c-1.1,1-2.39,2.27-3.64,3.53s-2.62,2.64-3.8,3.7a46.14,46.14,0,0,1-6.58,4.12,31.52,31.52,0,0,0-3.15,1.88,2.58,2.58,0,0,0-.82,2.82,5.34,5.34,0,0,0,4.37,3.36l.4,0c3.2,0,7.51-3.71,10.22-6.89a51.71,51.71,0,0,1,3.88-4,18.2,18.2,0,0,1-2.16,4.26c-2.48,3.68-7.09,10.53-5.18,16.9,1.16,3.84,4.52,6.94,10,9.21a21.74,21.74,0,0,0,8.41,1.78c6.34,0,11.37-3.11,15.81-5.86,3.1-1.92,6-3.73,8.69-3.86.32,0,.63,0,.92,0a9.28,9.28,0,0,1,6,1.69,11.85,11.85,0,0,0,7.42,2.14c8,0,11.61-3.29,18.2-9.26l.47-.43c2.46-2.24,6.14-2.86,9.7-3.46,5.43-.91,11.59-1.94,13-9.26C253.21,168.82,248.07,166,242.62,163Zm7.52,14.15c-1.25,6.35-6.4,7.22-11.87,8.14-3.76.63-7.65,1.28-10.41,3.81l-.47.42c-6.54,5.92-9.82,8.89-17.25,8.89a10.5,10.5,0,0,1-6.66-1.92c-1.62-1-3.28-2.07-7.73-1.89-3,.15-6.11,2.06-9.38,4.08-4.35,2.69-9.12,5.64-15.06,5.64a20.33,20.33,0,0,1-7.86-1.67c-5-2.09-8.13-4.89-9.16-8.31-1.72-5.73,2.65-12.21,5-15.7a15.94,15.94,0,0,0,3-8.86l-1,.9a70.13,70.13,0,0,0-6,6c-3.22,3.77-7,6.39-9.14,6.39h-.25a3.91,3.91,0,0,1-3.16-2.36,1.18,1.18,0,0,1,.36-1.32c.46-.34,1.55-1,2.95-1.73a46.73,46.73,0,0,0,6.83-4.31c1.2-1.08,2.55-2.43,3.85-3.75a52.45,52.45,0,0,1,4.49-4.22,13,13,0,0,0-5.86-5.36c-4.12-2.11-6.8-4.86-7.73-8a8.6,8.6,0,0,1,.69-6.67h0a29.75,29.75,0,0,1,2.58-3.82,79.51,79.51,0,0,1-1.62-8.87c-.58-4-1.14-7.85-2.29-10.72-2.67,3.42-4.65,7.65-6.58,11.79-4.4,9.4-9.4,20-22.16,25.26a1.76,1.76,0,0,1-.9.24,1.94,1.94,0,0,1-.7-.14,2.1,2.1,0,0,1-1.23-1.32l-.07-.13a2.25,2.25,0,0,1,1.29-2.84c11.14-4.63,15.47-13.95,19.66-23l0,0c2.39-5.08,4.68-10,8-13.82a36.52,36.52,0,0,0-8.47-5.48L135,112a19,19,0,0,1,.09,5.38c-.72,6.51-4.23,9.35-7,10.58-4.91,2.16-11.72,1.19-16.56-2.36a14.91,14.91,0,0,0-11-2.83c-.65,4.67-4.82,17.12-6,18.22a2.32,2.32,0,0,1-1.61.63,2.07,2.07,0,0,1-1-.22,1,1,0,0,1-.58-1.1c.07-.34.54-1.66,1.19-3.47,1.33-3.72,3.41-9.55,4.25-13.26a41.59,41.59,0,0,0-8.06,3.62,14.88,14.88,0,0,1-7.09,2.25c-4.54,0-9-3.43-14.39-13.09-2.17-3.86-5.26-4.72-8.25-5.55a15,15,0,0,1-5.3-2.24c0,2.21-.14,3.73-.42,4.06a2.45,2.45,0,0,1-1.89.83,2.61,2.61,0,0,1-1.06-.22c-.51-.23-.78-.6-.73-1a60.88,60.88,0,0,0,.52-9.06v0a14.46,14.46,0,0,1-.41-8c-.25-2.78-.56-5.29-.81-7.33-.15-1.23-.28-2.27-.36-3.1a6.53,6.53,0,0,0-1.38.9c-7.85,6.7-14.23,10-19.46,10a10.83,10.83,0,0,1-9.3-5.1c-4.57-6.33-3-11.62-1.44-16.73a24.74,24.74,0,0,0,1.41-7c0-3.24-3.59-6.06-7.4-9-4.49-3.52-9.58-7.51-9.58-13,0-4.75,2.24-6.86,4.22-8.73,2.24-2.11,4.17-3.93,2.12-9-4-9.7.86-21.36,7.69-24.92C21-.79,29.52,7.13,35.19,12.37c1.46,1.36,2.73,2.53,3.71,3.31,1.88,1.49,5,1.76,8.56,2.06,5.59.48,11.93,1,16.44,6.24,4.9,5.65,5.23,12.47,5.34,18.6.22-.8.42-1.61.62-2.41C71.63,33,73.3,26.25,84.23,24.66h0a23.14,23.14,0,0,1,18.29,5.24,24.35,24.35,0,0,1,8.63,14.58c.11.77.22,1.51.32,2.22,1.25,8.79,1.88,13.2,9.6,16,4.48,1.68,10.67,5.56,11.3,14.16a15.8,15.8,0,0,1,4.4-1.5,19.46,19.46,0,0,1,10.64.72,16.22,16.22,0,0,0,10.23.36c5.16-1.26,7.65-3.89,10.05-6.42,2.24-2.37,4.56-4.81,9-6.17,8-2.47,14.17.38,19.6,2.9,2.93,1.36,5.71,2.65,8.38,2.85a22.91,22.91,0,0,0,7.53-1.28c5.42-1.52,11-3.1,16.09,3.34s-1,13.25-5.83,18.77c-2.39,2.72-4.45,5.07-4.94,7-.31,1.2-.5,2.5-.71,3.88-.76,5.17-1.71,11.6-10.14,17.57a33,33,0,0,1-12,5.6,16.55,16.55,0,0,0-8.09,4.1,44.63,44.63,0,0,0-5.34,6.67c-1.13,1.6-2.34,3.3-3.66,5,1.93,1.07,3.73,2.23,5.43,3.35,3.37,2.2,6.56,4.29,9.85,4.89,3.63.69,6.93-.71,10.43-2.2,3.74-1.59,8-3.4,13.38-3,6.7.46,9.19,4.32,12.08,8.78a32.42,32.42,0,0,0,6.2,7.66,42.26,42.26,0,0,0,7,4.49C247.35,167.2,251.62,169.56,250.14,177.11Z"/></svg>