<?xml version="1.0" encoding="utf-8"?>
<!-- Generator: Adobe Illustrator 22.1.0, SVG Export Plug-In . SVG Version: 6.00 Build 0)  -->
<svg version="1.1" id="圖層_1" xmlns="http://www.w3.org/2000/svg" xmlns:xlink="http://www.w3.org/1999/xlink" x="0px" y="0px"
	 viewBox="0 0 30 30" style="enable-background:new 0 0 30 30;" xml:space="preserve">
<style type="text/css">
	.st0{fill:#DDD658;stroke:#000000;stroke-width:0.3314;stroke-linejoin:round;stroke-miterlimit:10;}
	.st1{fill:none;stroke:#000000;stroke-width:0.3314;stroke-linejoin:round;stroke-miterlimit:10;}
	.st2{fill:#C19165;stroke:#000000;stroke-width:0.3314;stroke-linejoin:round;stroke-miterlimit:10;}
	.st3{fill:#ECB36F;stroke:#000000;stroke-width:0.3314;stroke-linejoin:round;stroke-miterlimit:10;}
	.st4{fill:none;stroke:#231815;stroke-width:0.3314;stroke-miterlimit:10;}
	.st5{fill:#FFF6EB;stroke:#000000;stroke-width:0.3314;stroke-miterlimit:10;}
	.st6{fill:#CAD226;stroke:#231815;stroke-width:0.3314;stroke-miterlimit:10;}
	.st7{fill:#DFFFFA;stroke:#231815;stroke-width:0.3314;stroke-miterlimit:10;}
	.st8{fill:#ECB36F;stroke:#000000;stroke-width:0.3474;stroke-linejoin:round;stroke-miterlimit:10;}
	.st9{fill:#A5B63D;stroke:#231815;stroke-width:0.3474;stroke-miterlimit:10;}
	.st10{fill:none;stroke:#000000;stroke-width:0.3474;stroke-linejoin:round;stroke-miterlimit:10;}
	.st11{fill:#DFFFFA;stroke:#231815;stroke-width:0.3474;stroke-miterlimit:10;}
	.st12{fill:#DDD658;stroke:#000000;stroke-width:0.3474;stroke-linejoin:round;stroke-miterlimit:10;}
	.st13{fill:#EA6157;stroke:#000000;stroke-width:0.3474;stroke-linejoin:round;stroke-miterlimit:10;}
	.st14{fill:#FBC6A6;stroke:#000000;stroke-width:0.3474;stroke-linejoin:round;stroke-miterlimit:10;}
	.st15{fill:#FFF6EB;stroke:#000000;stroke-width:0.3474;stroke-miterlimit:10;}
	.st16{fill:#FFB829;stroke:#000000;stroke-width:0.3474;stroke-linejoin:round;stroke-miterlimit:10;}
	.st17{fill:#FFC064;stroke:#000000;stroke-width:0.3474;stroke-linejoin:round;stroke-miterlimit:10;}
	.st18{fill:#C19165;stroke:#000000;stroke-width:0.3474;stroke-linejoin:round;stroke-miterlimit:10;}
	.st19{fill:#518937;stroke:#000000;stroke-width:0.3256;stroke-linejoin:round;stroke-miterlimit:10;}
	.st20{fill:#BFC632;stroke:#231815;stroke-width:0.3256;stroke-miterlimit:10;}
	.st21{fill:none;stroke:#000000;stroke-width:0.3256;stroke-linejoin:round;stroke-miterlimit:10;}
	.st22{fill:#DFFFFA;stroke:#231815;stroke-width:0.3256;stroke-miterlimit:10;}
	.st23{fill:#62A542;stroke:#000000;stroke-width:0.3256;stroke-linejoin:round;stroke-miterlimit:10;}
	.st24{fill:#C19165;stroke:#000000;stroke-width:0.3256;stroke-linejoin:round;stroke-miterlimit:10;}
	.st25{fill:#ECB36F;stroke:#000000;stroke-width:0.3256;stroke-linejoin:round;stroke-miterlimit:10;}
	.st26{fill:#FFF6EB;stroke:#000000;stroke-width:0.3256;stroke-miterlimit:10;}
	.st27{fill:#FFB829;stroke:#000000;stroke-width:0.3256;stroke-linejoin:round;stroke-miterlimit:10;}
	.st28{fill:#FFF6EB;}
	.st29{fill:none;stroke:#000000;stroke-width:0.3256;stroke-miterlimit:10;}
	.st30{fill:#DFFFFA;stroke:#231815;stroke-width:0.3519;stroke-miterlimit:10;}
	.st31{fill:none;stroke:#000000;stroke-width:0.3519;stroke-miterlimit:10;}
	.st32{fill:#A5B63D;stroke:#231815;stroke-width:0.3519;stroke-miterlimit:10;}
	.st33{fill:#DDD658;stroke:#000000;stroke-width:0.3519;stroke-linejoin:round;stroke-miterlimit:10;}
	.st34{fill:none;stroke:#231815;stroke-width:0.3519;stroke-miterlimit:10;}
	.st35{fill:#CAD226;stroke:#231815;stroke-width:0.3519;stroke-miterlimit:10;}
	.st36{fill:#FBC6A6;stroke:#000000;stroke-width:0.3519;stroke-linejoin:round;stroke-miterlimit:10;}
	.st37{fill:#EA6157;stroke:#000000;stroke-width:0.3519;stroke-linejoin:round;stroke-miterlimit:10;}
	.st38{fill:#ECB36F;stroke:#000000;stroke-width:0.3519;stroke-linejoin:round;stroke-miterlimit:10;}
	.st39{fill:#C19165;stroke:#000000;stroke-width:0.3519;stroke-linejoin:round;stroke-miterlimit:10;}
	.st40{fill:#A5B63D;stroke:#231815;stroke-width:0.3675;stroke-miterlimit:10;}
	.st41{fill:none;stroke:#000000;stroke-width:0.3675;stroke-miterlimit:10;}
	.st42{fill:#62A542;stroke:#000000;stroke-width:0.3675;stroke-linejoin:round;stroke-miterlimit:10;}
	.st43{fill:#DDD658;stroke:#000000;stroke-width:0.3675;stroke-linejoin:round;stroke-miterlimit:10;}
	.st44{clip-path:url(#SVGID_3_);}
	.st45{clip-path:url(#SVGID_4_);}
	.st46{fill:#C19165;stroke:#000000;stroke-width:0.3675;stroke-linejoin:round;stroke-miterlimit:10;}
	.st47{fill:#ECB36F;stroke:#000000;stroke-width:0.3675;stroke-linejoin:round;stroke-miterlimit:10;}
	.st48{fill:#518937;stroke:#000000;stroke-width:0.3406;stroke-linejoin:round;stroke-miterlimit:10;}
	.st49{fill:#A5B63D;stroke:#231815;stroke-width:0.3406;stroke-miterlimit:10;}
	.st50{fill:none;stroke:#231815;stroke-width:0.3406;stroke-miterlimit:10;}
	.st51{fill:#DFFFFA;stroke:#231815;stroke-width:0.3406;stroke-miterlimit:10;}
	.st52{fill:#ECB36F;stroke:#000000;stroke-width:0.3406;stroke-linejoin:round;stroke-miterlimit:10;}
	.st53{fill:#62A542;stroke:#000000;stroke-width:0.3406;stroke-linejoin:round;stroke-miterlimit:10;}
	.st54{fill:none;stroke:#000000;stroke-width:0.3406;stroke-linejoin:round;stroke-miterlimit:10;}
	.st55{fill:#DDD658;stroke:#000000;stroke-width:0.3406;stroke-linejoin:round;stroke-miterlimit:10;}
	.st56{fill:none;stroke:#020202;stroke-width:0.3406;stroke-miterlimit:10;}
	.st57{fill:#FFB829;stroke:#000000;stroke-width:0.3406;stroke-linejoin:round;stroke-miterlimit:10;}
	.st58{fill:#63A04B;stroke:#000000;stroke-width:0.3406;stroke-linejoin:round;stroke-miterlimit:10;}
	.st59{fill:#C19165;stroke:#000000;stroke-width:0.3406;stroke-linejoin:round;stroke-miterlimit:10;}
	.st60{fill:none;stroke:#231815;stroke-width:0.3444;stroke-miterlimit:10;}
	.st61{fill:#C19165;stroke:#000000;stroke-width:0.3444;stroke-linejoin:round;stroke-miterlimit:10;}
	.st62{fill:#ECB36F;stroke:#000000;stroke-width:0.3444;stroke-linejoin:round;stroke-miterlimit:10;}
	.st63{fill:#CAD226;stroke:#231815;stroke-width:0.3444;stroke-miterlimit:10;}
	.st64{fill:#DFFFFA;stroke:#231815;stroke-width:0.3444;stroke-miterlimit:10;}
	.st65{fill:#A5B63D;stroke:#231815;stroke-width:0.3444;stroke-miterlimit:10;}
	.st66{fill:#FFF6EB;stroke:#000000;stroke-width:0.3444;stroke-miterlimit:10;}
	.st67{fill:#C19165;stroke:#000000;stroke-width:0.3185;stroke-linejoin:round;stroke-miterlimit:10;}
	.st68{fill:#DDD658;stroke:#000000;stroke-width:0.3185;stroke-linejoin:round;stroke-miterlimit:10;}
	.st69{fill:#DFFFFA;stroke:#231815;stroke-width:0.3185;stroke-miterlimit:10;}
	.st70{fill:#FFF6EB;stroke:#000000;stroke-width:0.3185;stroke-miterlimit:10;}
	.st71{fill:#BFC632;stroke:#231815;stroke-width:0.3185;stroke-miterlimit:10;}
	.st72{fill:#CAD226;stroke:#231815;stroke-width:0.3185;stroke-miterlimit:10;}
	.st73{fill:none;stroke:#231815;stroke-width:0.3185;stroke-miterlimit:10;}
	.st74{fill:#ECB36F;stroke:#000000;stroke-width:0.3185;stroke-linejoin:round;stroke-miterlimit:10;}
	.st75{fill:#FF9536;stroke:#000000;stroke-width:0.3757;stroke-linejoin:round;stroke-miterlimit:10;}
	.st76{fill:#FFB829;stroke:#000000;stroke-width:0.3757;stroke-linejoin:round;stroke-miterlimit:10;}
	.st77{fill:#ECB36F;stroke:#000000;stroke-width:0.3757;stroke-linejoin:round;stroke-miterlimit:10;}
	.st78{fill:#DFFFFA;stroke:#231815;stroke-width:0.3757;stroke-miterlimit:10;}
	.st79{fill:none;stroke:#000000;stroke-width:0.3757;stroke-linejoin:round;stroke-miterlimit:10;}
	.st80{fill:#62A542;stroke:#000000;stroke-width:0.3757;stroke-linejoin:round;stroke-miterlimit:10;}
	.st81{fill:#518937;stroke:#000000;stroke-width:0.3757;stroke-linejoin:round;stroke-miterlimit:10;}
	.st82{fill:none;stroke:#231815;stroke-width:0.3757;stroke-miterlimit:10;}
	.st83{fill:#FFC064;stroke:#000000;stroke-width:0.3757;stroke-linejoin:round;stroke-miterlimit:10;}
	.st84{fill:#C19165;stroke:#000000;stroke-width:0.3757;stroke-linejoin:round;stroke-miterlimit:10;}
	.st85{fill:none;stroke:#231815;stroke-width:0.5433;stroke-linecap:round;stroke-miterlimit:10;}
	.st86{fill:#231815;stroke:#231815;stroke-width:0.1932;stroke-miterlimit:10;}
	.st87{fill:#FFFFFF;stroke:#231815;stroke-width:0.543;stroke-miterlimit:10;}
</style>
<g>
	<g>
		<path class="st86" d="M15,19.1c-2.2,0-4.1-1.8-4.1-4.1s1.8-4.1,4.1-4.1s4.1,1.8,4.1,4.1S17.2,19.1,15,19.1z M15,11.5
			c-2,0-3.5,1.6-3.5,3.5s1.6,3.5,3.5,3.5s3.5-1.6,3.5-3.5S17,11.5,15,11.5z"/>
	</g>
	<g>
		<g>
			<path class="st86" d="M8.3,15.3H4.7c-0.1,0-0.3-0.1-0.3-0.3s0.1-0.3,0.3-0.3h3.6c0.1,0,0.3,0.1,0.3,0.3S8.4,15.3,8.3,15.3z"/>
		</g>
		<g>
			<path class="st86" d="M25.3,15.3h-3.6c-0.1,0-0.3-0.1-0.3-0.3s0.1-0.3,0.3-0.3h3.6c0.1,0,0.3,0.1,0.3,0.3S25.4,15.3,25.3,15.3z"
				/>
		</g>
	</g>
	<g>
		<g>
			<path class="st86" d="M15,8.6c-0.1,0-0.3-0.1-0.3-0.3V4.7c0-0.1,0.1-0.3,0.3-0.3c0.1,0,0.3,0.1,0.3,0.3v3.6
				C15.3,8.4,15.1,8.6,15,8.6z"/>
		</g>
		<g>
			<path class="st86" d="M15,25.5c-0.1,0-0.3-0.1-0.3-0.3v-3.6c0-0.1,0.1-0.3,0.3-0.3c0.1,0,0.3,0.1,0.3,0.3v3.6
				C15.3,25.4,15.1,25.5,15,25.5z"/>
		</g>
	</g>
	<g>
		<g>
			<path class="st86" d="M19.7,10.5c-0.1,0-0.1,0-0.2-0.1c-0.1-0.1-0.1-0.3,0-0.4l2.5-2.5c0.1-0.1,0.3-0.1,0.4,0
				c0.1,0.1,0.1,0.3,0,0.4l-2.5,2.5C19.9,10.5,19.8,10.5,19.7,10.5z"/>
		</g>
		<g>
			<path class="st86" d="M7.7,22.5c-0.1,0-0.1,0-0.2-0.1c-0.1-0.1-0.1-0.3,0-0.4l2.5-2.5c0.1-0.1,0.3-0.1,0.4,0
				c0.1,0.1,0.1,0.3,0,0.4l-2.5,2.5C7.9,22.5,7.8,22.5,7.7,22.5z"/>
		</g>
	</g>
	<g>
		<g>
			<path class="st86" d="M22.3,22.5c-0.1,0-0.1,0-0.2-0.1l-2.5-2.5c-0.1-0.1-0.1-0.3,0-0.4c0.1-0.1,0.3-0.1,0.4,0l2.5,2.5
				c0.1,0.1,0.1,0.3,0,0.4C22.4,22.5,22.3,22.5,22.3,22.5z"/>
		</g>
		<g>
			<path class="st86" d="M10.3,10.5c-0.1,0-0.1,0-0.2-0.1L7.6,7.9c-0.1-0.1-0.1-0.3,0-0.4c0.1-0.1,0.3-0.1,0.4,0l2.5,2.5
				c0.1,0.1,0.1,0.3,0,0.4C10.4,10.5,10.3,10.5,10.3,10.5z"/>
		</g>
	</g>
</g>
</svg>
