<svg xmlns="http://www.w3.org/2000/svg" width="16.691" height="16.691" viewBox="0 0 16.691 16.691">
  <g id="FB_black" data-name="FB black" transform="translate(-1089 -73.24)">
    <path id="Path_16" data-name="Path 16" d="M1105.732,72.135h-14.848a.922.922,0,0,0-.922.922V87.906a.921.921,0,0,0,.922.92h7.994V82.363H1096.7V79.844h2.176V77.986a3.035,3.035,0,0,1,3.24-3.33,17.7,17.7,0,0,1,1.944.1v2.253h-1.334c-1.046,0-1.248.5-1.248,1.226v1.609h2.494l-.325,2.519h-2.169v6.462h4.253a.92.92,0,0,0,.92-.921V73.057A.921.921,0,0,0,1105.732,72.135Z" transform="translate(-0.962 1.105)" fill="rgba(21,21,21,0.9)"/>
  </g>
</svg>
