<svg xmlns="http://www.w3.org/2000/svg" width="17.17" height="17.17" viewBox="0 0 17.17 17.17">
  <g id="IG_black" data-name="IG black" transform="translate(-1122.927 -73)">
    <path id="Path_15" data-name="Path 15" d="M1132.474,73.443c2.292,0,2.564.008,3.469.05,2.327.106,3.414,1.21,3.52,3.519.041.9.049,1.177.049,3.469s-.009,2.564-.049,3.469c-.107,2.307-1.191,3.413-3.52,3.519-.905.042-1.176.05-3.469.05s-2.564-.008-3.469-.05c-2.333-.106-3.414-1.215-3.52-3.52-.041-.9-.05-1.176-.05-3.469s.01-2.563.05-3.469c.107-2.308,1.191-3.413,3.52-3.519C1129.91,73.451,1130.181,73.443,1132.474,73.443Zm0-1.548c-2.332,0-2.624.01-3.54.052-3.117.143-4.85,1.873-4.993,4.993-.042.917-.052,1.209-.052,3.54s.01,2.624.051,3.54c.143,3.118,1.873,4.851,4.994,4.994.916.041,1.208.051,3.54.051s2.624-.01,3.539-.051c3.115-.143,4.852-1.873,4.993-4.994.043-.916.053-1.208.053-3.54s-.01-2.623-.052-3.539c-.14-3.115-1.872-4.85-4.993-4.994C1135.1,71.9,1134.805,71.895,1132.474,71.895Zm0,4.177a4.409,4.409,0,1,0,4.408,4.408A4.409,4.409,0,0,0,1132.474,76.072Zm0,7.27a2.861,2.861,0,1,1,2.861-2.862A2.861,2.861,0,0,1,1132.474,83.342Zm4.583-8.474a1.03,1.03,0,1,0,1.029,1.03A1.03,1.03,0,0,0,1137.057,74.868Z" transform="translate(-0.962 1.105)" fill="rgba(21,21,21,0.9)"/>
  </g>
</svg>
