<?xml version="1.0" encoding="utf-8"?>
<!-- Generator: Adobe Illustrator 22.1.0, SVG Export Plug-In . SVG Version: 6.00 Build 0)  -->
<svg version="1.1" id="圖層_1" xmlns="http://www.w3.org/2000/svg" xmlns:xlink="http://www.w3.org/1999/xlink" x="0px" y="0px"
	 viewBox="0 0 186 37.7" style="enable-background:new 0 0 186 37.7;" xml:space="preserve">
<style type="text/css">
	.st0{fill:#4B8D32;}
</style>
<g>
	<g>
		<g>
			<path class="st0" d="M12.1,32.7c0,0.1,0,0.2-0.1,0.3c-0.1,0.1-0.2,0.2-0.3,0.3c-0.2,0.1-0.4,0.2-0.7,0.3
				c-0.3,0.1-0.7,0.2-1.1,0.2c-0.5,0.1-0.8,0.1-1.1,0.1s-0.6,0-0.7,0c-0.2,0-0.3-0.1-0.4-0.2c-0.1-0.1-0.2-0.2-0.2-0.3L3.8,11.6
				c0-0.1,0-0.2,0.1-0.3s0.2-0.2,0.4-0.3c0.2-0.1,0.4-0.2,0.7-0.3c0.3-0.1,0.7-0.2,1.1-0.2c0.5-0.1,0.8-0.1,1.2-0.1s0.6,0,0.7,0
				c0.2,0,0.3,0.1,0.4,0.2c0.1,0.1,0.2,0.2,0.2,0.3L12.1,32.7z"/>
			<path class="st0" d="M38.9,27.9c0,0.3,0,0.5,0,0.8c-0.1,0.2-0.2,0.4-0.3,0.6s-0.3,0.3-0.5,0.4s-0.4,0.2-0.7,0.2l-2,0.3
				c-0.4,0.1-0.8,0.1-1.1,0c-0.3,0-0.6-0.2-0.9-0.3c-0.3-0.2-0.6-0.5-0.9-0.8c-0.3-0.3-0.6-0.8-1-1.4l-7.2-10.1
				c-0.4-0.6-0.9-1.3-1.3-2c-0.4-0.7-0.9-1.4-1.2-2.1l0,0c0.2,0.9,0.3,1.7,0.4,2.6c0.1,0.9,0.3,1.7,0.4,2.6l1.6,12.2
				c0,0.1,0,0.2-0.1,0.3s-0.2,0.2-0.3,0.3c-0.2,0.1-0.4,0.2-0.6,0.2c-0.3,0.1-0.6,0.1-1.1,0.2c-0.4,0.1-0.8,0.1-1,0.1
				c-0.3,0-0.5,0-0.7-0.1c-0.2,0-0.3-0.1-0.4-0.2c-0.1-0.1-0.1-0.2-0.1-0.3l-2.7-20.9c-0.1-0.6,0-1,0.3-1.3s0.7-0.5,1.2-0.6l2.5-0.3
				c0.5-0.1,0.8-0.1,1.2,0s0.6,0.1,0.9,0.3c0.3,0.1,0.5,0.4,0.8,0.7s0.5,0.7,0.8,1.1l5.6,7.9c0.3,0.5,0.7,1,1,1.4
				c0.3,0.5,0.6,0.9,0.9,1.4s0.6,0.9,0.9,1.4s0.6,0.9,0.9,1.4l0,0c-0.1-0.8-0.3-1.7-0.4-2.6c-0.1-0.9-0.3-1.8-0.4-2.6L32,7.8
				c0-0.1,0-0.2,0.1-0.3c0.1-0.1,0.2-0.2,0.3-0.3C32.6,7.1,32.8,7,33,7c0.3-0.1,0.6-0.1,1.1-0.2c0.4-0.1,0.8-0.1,1-0.1
				s0.5,0,0.7,0.1s0.3,0.1,0.3,0.2c0.1,0.1,0.1,0.2,0.1,0.3L38.9,27.9z"/>
			<path class="st0" d="M60.2,20.7c0.1,1.2,0,2.3-0.4,3.3s-0.9,1.8-1.7,2.5c-0.7,0.7-1.6,1.2-2.6,1.6s-2.1,0.6-3.3,0.7
				c-0.8,0.1-1.6,0.1-2.3,0s-1.3-0.2-1.9-0.3c-0.5-0.1-1-0.3-1.4-0.5s-0.6-0.3-0.8-0.5s-0.3-0.4-0.4-0.7c-0.1-0.3-0.2-0.7-0.2-1.3
				c0-0.4,0-0.7,0-0.9c0-0.3,0-0.5,0.1-0.6c0-0.2,0.1-0.3,0.2-0.4c0.1-0.1,0.2-0.1,0.3-0.1c0.2,0,0.4,0.1,0.7,0.2
				c0.3,0.2,0.7,0.4,1.2,0.6s1.1,0.4,1.8,0.5s1.5,0.2,2.3,0.1c0.6,0,1.1-0.2,1.5-0.3c0.4-0.2,0.8-0.4,1.1-0.7c0.3-0.3,0.5-0.6,0.7-1
				c0.1-0.4,0.2-0.8,0.2-1.3s-0.2-1-0.5-1.3c-0.3-0.4-0.7-0.7-1.2-0.9c-0.5-0.3-1-0.5-1.6-0.7s-1.2-0.4-1.9-0.7
				c-0.6-0.2-1.3-0.5-1.9-0.8c-0.6-0.3-1.2-0.7-1.7-1.2c-0.5-0.5-0.9-1-1.3-1.7s-0.6-1.5-0.6-2.5c-0.1-1.1,0-2.1,0.4-3
				s0.8-1.6,1.5-2.2s1.5-1.1,2.4-1.5s1.9-0.6,3-0.7c0.6,0,1.1,0,1.7,0c0.6,0,1.1,0.1,1.6,0.2s0.9,0.2,1.3,0.4
				c0.4,0.2,0.6,0.3,0.8,0.4c0.1,0.1,0.2,0.2,0.3,0.3s0.1,0.2,0.1,0.3c0,0.1,0.1,0.3,0.1,0.5s0.1,0.5,0.1,0.8s0,0.6,0,0.9
				c0,0.2,0,0.4,0,0.6s-0.1,0.3-0.2,0.4c-0.1,0.1-0.2,0.1-0.3,0.1s-0.3-0.1-0.7-0.2C56.4,9,56,8.8,55.6,8.6
				c-0.4-0.2-0.9-0.3-1.5-0.4S52.9,8,52.3,8.1c-0.5,0-1,0.1-1.3,0.3S50.3,8.8,50.1,9s-0.4,0.5-0.5,0.9s-0.1,0.7-0.1,1
				c0,0.5,0.2,1,0.5,1.3c0.3,0.4,0.7,0.7,1.2,0.9c0.5,0.3,1.1,0.5,1.7,0.7c0.6,0.2,1.3,0.4,1.9,0.7c0.6,0.2,1.3,0.5,1.9,0.8
				c0.6,0.3,1.2,0.7,1.7,1.2c0.5,0.5,0.9,1,1.3,1.7C59.9,18.9,60.1,19.7,60.2,20.7z"/>
			<path class="st0" d="M80.9,24.9c0,0.4,0,0.6,0,0.9s-0.1,0.4-0.1,0.6c-0.1,0.1-0.1,0.3-0.2,0.3c-0.1,0.1-0.2,0.1-0.3,0.1
				l-11.8,0.5c-0.4,0-0.7-0.1-1-0.3c-0.3-0.2-0.4-0.6-0.5-1.1L66.2,5.5c0-0.5,0.1-0.9,0.4-1.2c0.3-0.2,0.6-0.4,1-0.4l11.7-0.5
				c0.1,0,0.2,0,0.3,0.1c0.1,0.1,0.2,0.2,0.2,0.3c0.1,0.1,0.1,0.3,0.2,0.6c0,0.2,0.1,0.5,0.1,0.9c0,0.3,0,0.6,0,0.9S80,6.6,80,6.8
				s-0.1,0.3-0.2,0.3c-0.1,0.1-0.2,0.1-0.3,0.1l-8.4,0.3l0.2,5.7l7.1-0.3c0.1,0,0.2,0,0.3,0.1c0.1,0.1,0.2,0.2,0.2,0.3
				c0.1,0.1,0.1,0.3,0.2,0.6c0,0.2,0.1,0.5,0.1,0.9s0,0.6,0,0.9c0,0.2-0.1,0.4-0.1,0.6c-0.1,0.1-0.1,0.2-0.2,0.3
				c-0.1,0.1-0.2,0.1-0.3,0.1L71.5,17l0.3,6.6l8.4-0.3c0.1,0,0.2,0,0.3,0.1c0.1,0.1,0.2,0.2,0.2,0.3s0.1,0.3,0.2,0.6
				C80.9,24.3,80.9,24.6,80.9,24.9z"/>
			<path class="st0" d="M106.6,25c0.1,0.4,0.2,0.8,0.3,1s0,0.4-0.1,0.6s-0.4,0.2-0.7,0.2c-0.3,0-0.8,0-1.4,0s-1.1,0-1.4,0
				s-0.6-0.1-0.8-0.1s-0.3-0.1-0.4-0.2s-0.1-0.2-0.2-0.4l-1.5-4.7l-8.8-0.1l-1.5,4.6c0,0.2-0.1,0.3-0.2,0.4s-0.2,0.2-0.4,0.3
				c-0.2,0.1-0.4,0.1-0.7,0.1c-0.3,0-0.7,0-1.3,0c-0.6,0-1,0-1.3-0.1c-0.3,0-0.5-0.1-0.6-0.3c-0.1-0.1-0.2-0.3-0.1-0.6
				c0-0.3,0.1-0.6,0.3-1L93.2,4c0.1-0.2,0.2-0.4,0.3-0.5c0.1-0.1,0.3-0.2,0.5-0.3c0.2-0.1,0.5-0.1,0.9-0.1s0.9,0,1.5,0
				c0.7,0,1.3,0,1.7,0c0.4,0,0.8,0.1,1,0.1c0.2,0.1,0.4,0.2,0.5,0.3s0.2,0.3,0.3,0.5L106.6,25z M96,7.8L96,7.8l-3.4,9.9h6.6L96,7.8z
				"/>
			<path class="st0" d="M126.8,20.8c-0.1,1.2-0.4,2.3-0.9,3.2c-0.5,0.9-1.2,1.6-2,2.2s-1.8,1-2.8,1.3c-1.1,0.3-2.2,0.4-3.4,0.3
				c-0.8,0-1.6-0.2-2.2-0.3c-0.7-0.2-1.3-0.4-1.8-0.6s-1-0.4-1.3-0.7c-0.3-0.2-0.6-0.4-0.7-0.6s-0.2-0.4-0.3-0.7
				c-0.1-0.3-0.1-0.7,0-1.3c0-0.4,0-0.7,0.1-0.9s0.1-0.5,0.2-0.6c0.1-0.2,0.1-0.3,0.2-0.3c0.1-0.1,0.2-0.1,0.3-0.1
				c0.2,0,0.4,0.1,0.7,0.3s0.7,0.5,1.1,0.7s1,0.5,1.7,0.8c0.7,0.2,1.4,0.4,2.3,0.4c0.6,0,1.1,0,1.6-0.1s0.9-0.3,1.2-0.5
				c0.3-0.2,0.6-0.5,0.8-0.9c0.2-0.4,0.3-0.8,0.3-1.2c0-0.5-0.1-1-0.4-1.4s-0.6-0.8-1.1-1.1c-0.4-0.3-1-0.6-1.5-0.9
				c-0.6-0.3-1.2-0.6-1.8-0.9s-1.2-0.7-1.8-1.1c-0.6-0.4-1.1-0.9-1.5-1.4s-0.8-1.2-1-1.9c-0.3-0.7-0.4-1.6-0.3-2.5
				c0.1-1.1,0.3-2.1,0.8-2.9s1.1-1.5,1.8-2s1.6-0.9,2.6-1.1s2-0.3,3.1-0.3c0.6,0,1.1,0.1,1.7,0.2c0.5,0.1,1.1,0.3,1.5,0.4
				s0.9,0.4,1.3,0.6s0.6,0.4,0.7,0.5s0.2,0.2,0.2,0.3c0,0.1,0.1,0.2,0.1,0.3c0,0.1,0,0.3,0,0.5s0,0.5,0,0.8c0,0.4,0,0.6-0.1,0.9
				c0,0.2-0.1,0.4-0.1,0.6C126,9,126,9.1,125.9,9.1c-0.1,0.1-0.2,0.1-0.3,0.1c-0.1,0-0.3-0.1-0.6-0.3c-0.3-0.2-0.6-0.4-1-0.6
				s-0.9-0.4-1.4-0.6s-1.2-0.3-1.8-0.3c-0.5,0-1,0-1.4,0.1s-0.7,0.3-1,0.5s-0.5,0.5-0.6,0.8s-0.2,0.6-0.2,1c0,0.5,0.1,1,0.4,1.4
				s0.6,0.8,1.1,1.1c0.5,0.3,1,0.6,1.6,0.9s1.2,0.6,1.8,0.9s1.2,0.7,1.8,1.1c0.6,0.4,1.1,0.9,1.5,1.4s0.8,1.2,1,1.9
				S126.9,19.9,126.8,20.8z"/>
			<path class="st0" d="M155,18.5c-0.2,1.9-0.6,3.6-1.3,5.1s-1.5,2.7-2.5,3.7s-2.3,1.7-3.8,2.1s-3.1,0.5-4.9,0.3s-3.4-0.6-4.7-1.2
				c-1.3-0.6-2.4-1.5-3.2-2.5s-1.3-2.4-1.6-3.9s-0.3-3.3-0.1-5.4c0.2-1.9,0.6-3.6,1.2-5c0.6-1.5,1.5-2.7,2.5-3.6
				c1.1-1,2.3-1.6,3.8-2.1c1.5-0.4,3.1-0.5,5-0.3c1.8,0.2,3.3,0.6,4.6,1.2s2.4,1.4,3.2,2.5c0.8,1.1,1.4,2.4,1.7,3.9
				S155.2,16.5,155,18.5z M150,18.3c0.1-1.2,0.1-2.3,0.1-3.4c-0.1-1-0.3-1.9-0.7-2.7c-0.4-0.8-0.9-1.4-1.7-1.8
				c-0.7-0.5-1.7-0.8-2.8-0.9c-1.2-0.1-2.2,0-3,0.4s-1.5,0.9-2.1,1.6s-1,1.5-1.3,2.5s-0.5,2-0.6,3.1c-0.1,1.3-0.2,2.4-0.1,3.5
				c0.1,1,0.3,1.9,0.7,2.7c0.4,0.8,0.9,1.4,1.7,1.8c0.7,0.5,1.7,0.7,2.8,0.9c1.2,0.1,2.2,0,3-0.3c0.8-0.4,1.5-0.9,2.1-1.6
				s1-1.5,1.3-2.5C149.6,20.4,149.8,19.4,150,18.3z"/>
			<path class="st0" d="M179.6,32.8c0,0.3-0.1,0.5-0.3,0.7c-0.1,0.2-0.3,0.4-0.5,0.5s-0.4,0.2-0.6,0.2s-0.5,0-0.7,0l-2-0.3
				c-0.4-0.1-0.8-0.2-1.1-0.3c-0.3-0.1-0.5-0.3-0.8-0.6c-0.2-0.3-0.4-0.6-0.6-1c-0.2-0.4-0.4-0.9-0.6-1.6l-4-11.7
				c-0.2-0.7-0.5-1.4-0.7-2.2c-0.2-0.8-0.4-1.6-0.6-2.3l0,0c-0.1,0.9-0.2,1.7-0.3,2.6c-0.1,0.9-0.2,1.7-0.4,2.6l-1.9,12.1
				c0,0.1-0.1,0.2-0.1,0.3c-0.1,0.1-0.2,0.1-0.4,0.2c-0.2,0-0.4,0.1-0.7,0c-0.3,0-0.6,0-1.1-0.1c-0.4-0.1-0.8-0.1-1-0.2
				c-0.3-0.1-0.5-0.2-0.6-0.3c-0.1-0.1-0.2-0.2-0.3-0.3c0-0.1-0.1-0.2,0-0.3l3.3-20.8c0.1-0.6,0.3-1,0.7-1.2s0.8-0.3,1.3-0.2
				l2.5,0.4c0.5,0.1,0.8,0.2,1.1,0.3c0.3,0.1,0.6,0.3,0.8,0.5s0.4,0.5,0.6,0.9s0.3,0.8,0.5,1.3l3.1,9.2c0.2,0.6,0.4,1.1,0.5,1.6
				c0.2,0.5,0.3,1.1,0.5,1.6s0.3,1.1,0.5,1.6c0.1,0.5,0.3,1,0.4,1.5l0,0c0.1-0.8,0.2-1.7,0.3-2.6c0.1-0.9,0.3-1.8,0.4-2.6l1.7-10.9
				c0-0.1,0.1-0.2,0.2-0.3s0.2-0.1,0.4-0.2c0.2,0,0.4-0.1,0.7,0c0.3,0,0.6,0.1,1.1,0.1c0.4,0.1,0.7,0.1,1,0.2s0.5,0.2,0.6,0.3
				c0.1,0.1,0.2,0.2,0.3,0.3c0,0.1,0.1,0.2,0,0.3L179.6,32.8z"/>
		</g>
	</g>
</g>
</svg>
