<svg xmlns="http://www.w3.org/2000/svg" width="49.689" height="78.077" viewBox="0 0 49.689 78.077">
  <g id="LOGO_black" data-name="LOGO black" transform="translate(-615 -55)">
    <g id="Group_3" data-name="Group 3" transform="translate(-0.364 0.468)">
      <g id="Group_2" data-name="Group 2">
        <g id="Group_1" data-name="Group 1">
          <path id="Path_1" data-name="Path 1" d="M617.708,132.188a.14.14,0,0,1-.017.094.226.226,0,0,1-.095.083,1.079,1.079,0,0,1-.191.074,3.118,3.118,0,0,1-.314.068,2.6,2.6,0,0,1-.317.039,1.119,1.119,0,0,1-.207,0,.235.235,0,0,1-.117-.047.132.132,0,0,1-.047-.083l-1.037-6.04a.138.138,0,0,1,.017-.1.229.229,0,0,1,.1-.083,1.163,1.163,0,0,1,.194-.073,2.576,2.576,0,0,1,.308-.069,2.731,2.731,0,0,1,.32-.039,1,1,0,0,1,.2,0,.234.234,0,0,1,.118.047.143.143,0,0,1,.047.083Z" fill="rgba(21,21,21,0.9)"/>
          <path id="Path_2" data-name="Path 2" d="M625.136,130.854a.5.5,0,0,1-.013.209.448.448,0,0,1-.087.163.424.424,0,0,1-.148.107.659.659,0,0,1-.183.052l-.557.072a1.13,1.13,0,0,1-.306,0,.6.6,0,0,1-.25-.1,1.1,1.1,0,0,1-.238-.222,4.377,4.377,0,0,1-.277-.376l-1.993-2.8c-.115-.167-.235-.348-.358-.543s-.235-.384-.337-.57h-.01q.066.356.122.71c.038.236.073.481.105.732l.438,3.367a.155.155,0,0,1-.016.093.2.2,0,0,1-.086.08.727.727,0,0,1-.175.065,2.479,2.479,0,0,1-.292.054,2.325,2.325,0,0,1-.29.022.7.7,0,0,1-.185-.019.188.188,0,0,1-.1-.056.168.168,0,0,1-.037-.086l-.751-5.784a.44.44,0,0,1,.091-.368.506.506,0,0,1,.321-.161l.7-.091a1.38,1.38,0,0,1,.322-.009.664.664,0,0,1,.245.077.833.833,0,0,1,.219.182,2.587,2.587,0,0,1,.226.3l1.559,2.19.271.392c.089.129.176.257.26.386s.167.256.247.381.158.249.236.374h0q-.06-.347-.116-.724t-.1-.72l-.392-3.018a.141.141,0,0,1,.018-.094.237.237,0,0,1,.09-.083.686.686,0,0,1,.179-.065,2.492,2.492,0,0,1,.291-.051,2.759,2.759,0,0,1,.285-.025.564.564,0,0,1,.182.02.214.214,0,0,1,.1.058.162.162,0,0,1,.036.086Z" fill="rgba(21,21,21,0.9)"/>
          <path id="Path_3" data-name="Path 3" d="M631.036,128.857a2.014,2.014,0,0,1-.118.911,1.865,1.865,0,0,1-.463.684,2.26,2.26,0,0,1-.728.448,3.27,3.27,0,0,1-.92.206,3.346,3.346,0,0,1-.627-.005,3.513,3.513,0,0,1-.518-.092,2.305,2.305,0,0,1-.38-.132,1.122,1.122,0,0,1-.225-.133.376.376,0,0,1-.107-.18,1.7,1.7,0,0,1-.056-.351c-.009-.1-.013-.19-.012-.26a.847.847,0,0,1,.019-.173.183.183,0,0,1,.053-.1.151.151,0,0,1,.085-.035.426.426,0,0,1,.2.067,3.7,3.7,0,0,0,.342.156,2.956,2.956,0,0,0,.493.144,2.256,2.256,0,0,0,.649.03,1.477,1.477,0,0,0,.425-.092.982.982,0,0,0,.309-.188.7.7,0,0,0,.182-.277.838.838,0,0,0,.042-.35.6.6,0,0,0-.151-.368,1.172,1.172,0,0,0-.335-.255,3.355,3.355,0,0,0-.456-.195q-.254-.087-.523-.186a4.56,4.56,0,0,1-.527-.232,2.04,2.04,0,0,1-.467-.329,1.751,1.751,0,0,1-.353-.477,2.051,2.051,0,0,1-.069-1.517,1.676,1.676,0,0,1,.417-.622,1.983,1.983,0,0,1,.662-.4,3.029,3.029,0,0,1,.833-.183,2.98,2.98,0,0,1,.463,0,3.03,3.03,0,0,1,.437.061,2.321,2.321,0,0,1,.366.106.835.835,0,0,1,.215.109.341.341,0,0,1,.074.079.393.393,0,0,1,.038.09,1.037,1.037,0,0,1,.029.144c.008.058.016.13.023.216s.012.179.012.246a.8.8,0,0,1-.012.167.194.194,0,0,1-.042.1.122.122,0,0,1-.085.037.418.418,0,0,1-.181-.055,3.326,3.326,0,0,0-.307-.129,2.8,2.8,0,0,0-.417-.118,1.808,1.808,0,0,0-.51-.026,1.18,1.18,0,0,0-.371.083.776.776,0,0,0-.256.166.587.587,0,0,0-.142.235.73.73,0,0,0-.03.28.616.616,0,0,0,.147.363,1.149,1.149,0,0,0,.338.254,3.439,3.439,0,0,0,.466.194q.259.087.529.186a5.135,5.135,0,0,1,.531.231,2.1,2.1,0,0,1,.475.329,1.708,1.708,0,0,1,.355.475A1.748,1.748,0,0,1,631.036,128.857Z" fill="rgba(21,21,21,0.9)"/>
          <path id="Path_4" data-name="Path 4" d="M636.776,130.035a1.9,1.9,0,0,1,0,.244.6.6,0,0,1-.031.159.2.2,0,0,1-.059.09.141.141,0,0,1-.082.031l-3.257.125a.4.4,0,0,1-.282-.087.4.4,0,0,1-.125-.314l-.218-5.653a.4.4,0,0,1,.1-.322.41.41,0,0,1,.275-.108l3.237-.125a.139.139,0,0,1,.082.022.191.191,0,0,1,.063.085.688.688,0,0,1,.044.159,2.223,2.223,0,0,1,.022.248,2.247,2.247,0,0,1,0,.238.625.625,0,0,1-.032.159.216.216,0,0,1-.057.091.127.127,0,0,1-.079.03l-2.315.089.061,1.584,1.959-.075a.129.129,0,0,1,.084.024.2.2,0,0,1,.066.083.6.6,0,0,1,.044.154,1.962,1.962,0,0,1,.021.237,1.852,1.852,0,0,1,0,.241.6.6,0,0,1-.032.155.186.186,0,0,1-.059.085.153.153,0,0,1-.082.028l-1.96.075.071,1.829,2.335-.09a.143.143,0,0,1,.084.025.2.2,0,0,1,.066.085.652.652,0,0,1,.044.157A1.818,1.818,0,0,1,636.776,130.035Z" fill="rgba(21,21,21,0.9)"/>
          <path id="Path_5" data-name="Path 5" d="M643.888,130.064a1.734,1.734,0,0,1,.073.286.172.172,0,0,1-.041.158.329.329,0,0,1-.2.064c-.094.007-.223.011-.386.009s-.3,0-.4-.01a1.027,1.027,0,0,1-.217-.032.2.2,0,0,1-.1-.063.388.388,0,0,1-.05-.106l-.425-1.307-2.438-.019-.421,1.266a.4.4,0,0,1-.053.117.216.216,0,0,1-.106.075.776.776,0,0,1-.206.036c-.089.006-.205.008-.349.007a3.221,3.221,0,0,1-.361-.018.272.272,0,0,1-.18-.074.2.2,0,0,1-.034-.163,1.709,1.709,0,0,1,.078-.28l2.044-5.742a.52.52,0,0,1,.072-.138.241.241,0,0,1,.128-.079,1,1,0,0,1,.244-.033c.1,0,.24-.006.411,0,.2,0,.354.006.471.011a1.265,1.265,0,0,1,.274.038.257.257,0,0,1,.139.084.5.5,0,0,1,.072.15Zm-2.943-4.782h-.005L640,128.033l1.841.014Z" fill="rgba(21,21,21,0.9)"/>
          <path id="Path_6" data-name="Path 6" d="M649.477,128.9a2.007,2.007,0,0,1-.24.886,1.845,1.845,0,0,1-.55.616,2.251,2.251,0,0,1-.782.347,3.278,3.278,0,0,1-.938.08,3.4,3.4,0,0,1-.621-.089,3.762,3.762,0,0,1-.5-.16,2.259,2.259,0,0,1-.36-.183,1.066,1.066,0,0,1-.2-.162.374.374,0,0,1-.082-.192,1.893,1.893,0,0,1-.009-.355c.006-.1.014-.19.025-.26a.753.753,0,0,1,.042-.169.192.192,0,0,1,.064-.089.155.155,0,0,1,.09-.023.425.425,0,0,1,.194.094,3.59,3.59,0,0,0,.317.2,2.941,2.941,0,0,0,.469.209,2.26,2.26,0,0,0,.638.117,1.5,1.5,0,0,0,.435-.034.955.955,0,0,0,.331-.146.681.681,0,0,0,.218-.249A.855.855,0,0,0,648.1,129a.6.6,0,0,0-.1-.385,1.184,1.184,0,0,0-.3-.3,3.076,3.076,0,0,0-.426-.254c-.159-.081-.324-.166-.493-.256a4.51,4.51,0,0,1-.491-.3,2.058,2.058,0,0,1-.418-.389,1.724,1.724,0,0,1-.286-.521,2.053,2.053,0,0,1,.135-1.511,1.685,1.685,0,0,1,.5-.561,1.989,1.989,0,0,1,.71-.311,3.041,3.041,0,0,1,.85-.069,3.1,3.1,0,0,1,.459.059,3.232,3.232,0,0,1,.425.119,2.443,2.443,0,0,1,.349.154.881.881,0,0,1,.2.136.382.382,0,0,1,.063.089.429.429,0,0,1,.025.1.846.846,0,0,1,.01.146c0,.059,0,.131-.007.218s-.012.178-.021.245a.882.882,0,0,1-.034.164.193.193,0,0,1-.055.092.123.123,0,0,1-.089.026.416.416,0,0,1-.171-.08c-.078-.051-.174-.107-.287-.169a2.951,2.951,0,0,0-.4-.172,1.813,1.813,0,0,0-.5-.1,1.21,1.21,0,0,0-.378.032.786.786,0,0,0-.276.131.576.576,0,0,0-.172.214.7.7,0,0,0-.067.273.6.6,0,0,0,.1.379,1.133,1.133,0,0,0,.3.3,3.458,3.458,0,0,0,.436.255c.163.081.33.166.5.255a4.893,4.893,0,0,1,.5.3,2.045,2.045,0,0,1,.425.389,1.708,1.708,0,0,1,.289.518A1.772,1.772,0,0,1,649.477,128.9Z" fill="rgba(21,21,21,0.9)"/>
          <path id="Path_7" data-name="Path 7" d="M657.266,128.263a4.79,4.79,0,0,1-.348,1.416,2.92,2.92,0,0,1-.705,1.013,2.578,2.578,0,0,1-1.045.573,3.63,3.63,0,0,1-1.368.092,4,4,0,0,1-1.295-.333,2.3,2.3,0,0,1-.873-.7,2.583,2.583,0,0,1-.454-1.086,5.146,5.146,0,0,1-.034-1.5,4.6,4.6,0,0,1,.345-1.388,2.891,2.891,0,0,1,.7-1,2.611,2.611,0,0,1,1.045-.572,3.618,3.618,0,0,1,1.374-.1,3.961,3.961,0,0,1,1.275.329,2.292,2.292,0,0,1,.876.7,2.642,2.642,0,0,1,.463,1.079A4.913,4.913,0,0,1,657.266,128.263Zm-1.384-.073a4.932,4.932,0,0,0,.016-.934,1.981,1.981,0,0,0-.2-.741,1.306,1.306,0,0,0-.464-.512,1.765,1.765,0,0,0-.781-.245,1.632,1.632,0,0,0-.827.1,1.492,1.492,0,0,0-.574.432,2,2,0,0,0-.356.681,4.48,4.48,0,0,0-.172.852,5.217,5.217,0,0,0-.018.959,2.066,2.066,0,0,0,.2.748,1.254,1.254,0,0,0,.461.51,1.819,1.819,0,0,0,.787.24,1.658,1.658,0,0,0,.827-.1,1.46,1.46,0,0,0,.575-.434,2.088,2.088,0,0,0,.356-.692A4.516,4.516,0,0,0,655.882,128.19Z" fill="rgba(21,21,21,0.9)"/>
          <path id="Path_8" data-name="Path 8" d="M664.124,132.214a.513.513,0,0,1-.072.2.428.428,0,0,1-.13.131.433.433,0,0,1-.173.062.672.672,0,0,1-.19,0l-.555-.09a1.172,1.172,0,0,1-.294-.082.626.626,0,0,1-.212-.164,1.154,1.154,0,0,1-.166-.281,4.524,4.524,0,0,1-.157-.439l-1.113-3.252q-.1-.289-.19-.623c-.062-.221-.116-.436-.16-.643h-.01c-.025.24-.054.478-.085.715s-.067.481-.107.732l-.539,3.352a.163.163,0,0,1-.042.085.208.208,0,0,1-.105.052.775.775,0,0,1-.187.013,2.326,2.326,0,0,1-.3-.032,2.415,2.415,0,0,1-.284-.061.732.732,0,0,1-.172-.071.18.18,0,0,1-.078-.081.163.163,0,0,1-.011-.093l.927-5.759a.434.434,0,0,1,.192-.327.5.5,0,0,1,.353-.063l.7.113a1.346,1.346,0,0,1,.311.083.66.66,0,0,1,.213.143.822.822,0,0,1,.158.237,2.655,2.655,0,0,1,.131.353l.871,2.543q.075.231.148.453t.139.444c.044.147.087.292.128.435s.082.284.121.425h0q.042-.35.094-.727c.035-.251.071-.491.109-.718l.483-3.006a.138.138,0,0,1,.044-.084.227.227,0,0,1,.11-.054.672.672,0,0,1,.19-.013c.077.005.175.016.294.035a2.793,2.793,0,0,1,.28.058.58.58,0,0,1,.17.07.227.227,0,0,1,.075.083.165.165,0,0,1,.01.094Z" fill="rgba(21,21,21,0.9)"/>
        </g>
      </g>
    </g>
    <g id="Group_4" data-name="Group 4" transform="translate(-0.364 0.468)">
      <path id="Path_9" data-name="Path 9" d="M650.971,64.469a.4.4,0,0,0,.478-.293l.213-.861a.4.4,0,0,0-.3-.492,23.93,23.93,0,0,0-4.642-.541v-3.43a22.38,22.38,0,0,1,4.249.488.4.4,0,0,0,.478-.293l.213-.861a.4.4,0,0,0-.3-.491,23.775,23.775,0,0,0-4.642-.541v-2.21a.412.412,0,0,0-.412-.412h-.867a.412.412,0,0,0-.412.412v2.2a43.16,43.16,0,0,0-4.312.341.407.407,0,0,0-.351.456l.12.879a.4.4,0,0,0,.45.342c1.413-.177,2.783-.287,4.093-.321v3.432a43.161,43.161,0,0,0-4.312.341.407.407,0,0,0-.351.456l.12.878a.4.4,0,0,0,.45.343,35.277,35.277,0,0,1,7.311-.229h-.189v2.758a37.054,37.054,0,0,0-7.341.27.407.407,0,0,0-.351.456l.12.878a.4.4,0,0,0,.45.343,35.534,35.534,0,0,1,7.121-.244c0,.312-.023,1.643-.032,2.63-.024,2.708-.417,5.336-3.018,6.344a.411.411,0,0,0-.233.506l.243.787a.4.4,0,0,0,.515.263c4.076-1.525,4.116-5.958,4.133-7.885.005-.6.015-1.334.022-1.881h.012v-.581c.434.066.861.141,1.27.234a.4.4,0,0,0,.478-.294l.213-.86a.4.4,0,0,0-.3-.492c-.537-.122-1.1-.216-1.663-.3V64.235C650.135,64.3,650.562,64.377,650.971,64.469Z" fill="rgba(21,21,21,0.9)"/>
      <path id="Path_10" data-name="Path 10" d="M644.156,74.363a.415.415,0,0,0,.508.27l.784-.228a.409.409,0,0,0,.278-.52,9,9,0,0,0-2.393-3.728.41.41,0,0,0-.607.064l-.483.663a.409.409,0,0,0,.047.54A7.33,7.33,0,0,1,644.156,74.363Z" fill="rgba(21,21,21,0.9)"/>
      <path id="Path_11" data-name="Path 11" d="M631.648,74.657l.485-.092a18.993,18.993,0,0,1,5.182-.248l.443.038a.412.412,0,0,0,.446-.411V65.728h0v-7.9a.412.412,0,0,0-.367-.41l-.365-.04a25.46,25.46,0,0,0-5.676.243l-.317.073a.412.412,0,0,0-.32.4v16.16A.412.412,0,0,0,631.648,74.657Zm4.915-8.6V72.3a.289.289,0,0,1-.291.294,18.58,18.58,0,0,0-3.131.133.3.3,0,0,1-.341-.292V66.193a19.028,19.028,0,0,1,3.763-.161v.024c.27.011.526.025.752.045C637.089,66.081,636.833,66.067,636.563,66.056ZM632.8,59.39a.3.3,0,0,1,.245-.294,16.57,16.57,0,0,1,3.232-.155.3.3,0,0,1,.286.3v5.153a16.228,16.228,0,0,0-3.763.149V59.39Z" fill="rgba(21,21,21,0.9)"/>
      <path id="Path_12" data-name="Path 12" d="M637.078,87.411a.38.38,0,0,0-.333.425l.1.845a.374.374,0,0,0,.372.327l.043,0a32.765,32.765,0,0,1,7.3,0l.043,0a.373.373,0,0,0,.371-.327l.105-.845a.381.381,0,0,0-.332-.425,34.514,34.514,0,0,0-7.675,0Z" fill="rgba(21,21,21,0.9)"/>
      <path id="Path_13" data-name="Path 13" d="M646.388,109.591a.375.375,0,0,0,.374-.375v-3.3a.376.376,0,0,0-.375-.376H645.5a.377.377,0,0,0-.376.376l-.037,1.908c-1.746-.174-3.517-.274-5.283-.307v-2.286a.376.376,0,0,0-.375-.376h-.884a.377.377,0,0,0-.376.376l-.022,2.276c-1.713.011-3.485.085-5.3.208v-1.78a.377.377,0,0,0-.376-.376h-.884a.377.377,0,0,0-.376.376v3.2a.376.376,0,0,0,.111.267.4.4,0,0,0,.294.107l.495-.05a64.343,64.343,0,0,1,13.756.088l.48.042Z" fill="rgba(21,21,21,0.9)"/>
      <path id="Path_14" data-name="Path 14" d="M650.861,102.047l-2.436-.292a62.885,62.885,0,0,0-13.85-.137V99.854a61.046,61.046,0,0,1,12.658-.014l1.438.146a.382.382,0,0,0,.38-.382V91.27a.379.379,0,0,0-.342-.379l-1.35-.139a63.225,63.225,0,0,0-13.749.1l-.385.045a.383.383,0,0,0-.337.38v11.839a.362.362,0,0,0,.407.358l.543-.07a60.222,60.222,0,0,1,14.387.027l1.251.15-.024,1.958c.032,2.41-.293,5.274-3.039,6.317a.364.364,0,0,0-.21.449l.286.924a.356.356,0,0,0,.457.234c1.378-.472,4.273-1.9,4.192-7.925l.039-3.13A.359.359,0,0,0,650.861,102.047Zm-9.921-4.163c-2.083,0-4.234.1-6.417.288l.01-1.961a61.075,61.075,0,0,1,12.66-.022l.2.02-.013,2A63.39,63.39,0,0,0,640.94,97.884Zm0-5.824a61.575,61.575,0,0,1,6.255.319l.222.052-.014,2.136-.043-.005a63.719,63.719,0,0,0-6.421-.326c-2.111,0-4.262.112-6.4.306l.011-2.15A61.746,61.746,0,0,1,640.939,92.06Z" fill="rgba(21,21,21,0.9)"/>
    </g>
  </g>
</svg>
