<svg id="圖層_1" data-name="圖層 1" xmlns="http://www.w3.org/2000/svg" viewBox="0 0 100.46 79.86"><defs><style>.cls-1{opacity:0.8;}.cls-2{fill:#fff;}</style></defs><title>0</title><g class="cls-1"><path class="cls-2" d="M20.21,12.14a17.1,17.1,0,0,0-2.53-.2H17.5a7.14,7.14,0,0,0-4.29-1.46H13a8.77,8.77,0,0,0-6,3,3.55,3.55,0,0,0-.66.17c-1.71.59-2.9,2.11-3.56,4.51a36.44,36.44,0,0,0-.88,9.35A45.78,45.78,0,0,1,.48,40.17C-1.15,46,1.64,51.41,4.79,54.57a12.61,12.61,0,0,0,8.55,4.09,7.72,7.72,0,0,0,1.44-.14,13.57,13.57,0,0,0,5.2,1l.55,0h.19l.3,0c4.72-.28,7.75-2.46,9.26-6.67,1.35-3.78,1.35-8.85,1.34-14.22v-1C31.62,26.5,31.62,13.86,20.21,12.14ZM29,52.37c-1.34,3.72-4,5.55-8.21,5.75l0,0v0c-.24,0-.47,0-.72,0A12.2,12.2,0,0,1,14.92,57a6.39,6.39,0,0,1-1.58.2,11.24,11.24,0,0,1-7.55-3.67c-2.87-2.88-5.41-7.81-3.94-13a46.91,46.91,0,0,0,1.44-13,35.62,35.62,0,0,1,.83-9c.52-1.92,1.42-3.12,2.65-3.54a3.11,3.11,0,0,1,.89-.17A7.7,7.7,0,0,1,13,11.9a5.77,5.77,0,0,1,4,1.47,15.15,15.15,0,0,1,3,.17c10.21,1.54,10.21,13,10.21,24.11v1C30.21,43.87,30.22,48.83,29,52.37Z"/><path class="cls-2" d="M56.6,1.65a17,17,0,0,0-2.53-.19h-.18A7.31,7.31,0,0,0,49.58,0h-.24a8.81,8.81,0,0,0-6,3,4.55,4.55,0,0,0-.66.17C41,3.78,39.8,5.3,39.14,7.7a36.56,36.56,0,0,0-.88,9.36,45.82,45.82,0,0,1-1.39,12.63,13.11,13.11,0,0,0,0,6.84,50.8,50.8,0,0,0-.38,7A46.18,46.18,0,0,1,35,56.12c-1.63,5.79,1.16,11.24,4.31,14.4a12.61,12.61,0,0,0,8.55,4.09,7.64,7.64,0,0,0,1.44-.14,13.61,13.61,0,0,0,5.2,1l.56,0h.18a1.54,1.54,0,0,0,.3,0c4.72-.28,7.75-2.46,9.26-6.67C66.2,65,66.19,60,66.19,54.58v-1c0-3.2,0-6.5-.26-9.6a11.23,11.23,0,0,0,.74-1.64C68,38.59,68,33.51,68,28.14v-1C68,16,68,3.38,56.6,1.65Zm8.74,40.23a10.72,10.72,0,0,1-.86,1.8c.29,3.15.29,6.55.29,9.92v1c0,5.24,0,10.2-1.26,13.74-1.34,3.72-4,5.55-8.21,5.75l0,0v0c-.25,0-.47,0-.73,0A12.24,12.24,0,0,1,49.48,73a6.27,6.27,0,0,1-1.58.2,11.2,11.2,0,0,1-7.54-3.67c-2.87-2.88-5.42-7.81-4-13a46.91,46.91,0,0,0,1.44-13,46.2,46.2,0,0,1,.42-7.06,11.7,11.7,0,0,1,0-6.38,46.94,46.94,0,0,0,1.44-13,35.71,35.71,0,0,1,.83-9C41,6.15,41.93,5,43.16,4.53a3.48,3.48,0,0,1,.89-.16,7.7,7.7,0,0,1,5.34-2.95h.19A5.82,5.82,0,0,1,53.4,2.89a15.88,15.88,0,0,1,3,.16C66.6,4.59,66.6,16.07,66.6,27.16v1C66.6,33.39,66.61,38.34,65.34,41.88Z"/><path class="cls-2" d="M100.46,57.94c0-11.15,0-23.79-11.41-25.52a17.16,17.16,0,0,0-2.53-.19h-.19A7.28,7.28,0,0,0,82,30.77h-.24a8.74,8.74,0,0,0-6,3,4.55,4.55,0,0,0-.66.17c-1.71.6-2.91,2.11-3.56,4.51a36.56,36.56,0,0,0-.88,9.36,45.78,45.78,0,0,1-1.39,12.63c-1.63,5.79,1.16,11.23,4.31,14.4,2.59,2.6,5.7,4.09,8.54,4.09a7.83,7.83,0,0,0,1.45-.14,13.57,13.57,0,0,0,5.2,1l.55,0h.18a1.45,1.45,0,0,0,.3,0c4.73-.28,7.76-2.46,9.27-6.68,1.35-3.77,1.35-8.84,1.34-14.22ZM97.78,72.66c-1.33,3.72-4,5.55-8.2,5.75l0,0v0c-.24,0-.47,0-.72,0a12.17,12.17,0,0,1-5.06-1.12,6.41,6.41,0,0,1-1.59.2,11.24,11.24,0,0,1-7.54-3.67c-2.87-2.88-5.41-7.81-3.95-13a47.36,47.36,0,0,0,1.45-13,35.13,35.13,0,0,1,.83-9c.52-1.93,1.41-3.12,2.65-3.55a3.48,3.48,0,0,1,.88-.16,7.72,7.72,0,0,1,5.34-3,5.88,5.88,0,0,1,4,1.47,15.15,15.15,0,0,1,3,.17C99,35.37,99,46.84,99,57.94v1C99.05,64.16,99.05,69.12,97.78,72.66Z"/></g></svg>