<svg id="圖層_1" data-name="圖層 1" xmlns="http://www.w3.org/2000/svg" viewBox="0 0 84.13 73.83"><defs><style>.cls-1{fill:#fff;}</style></defs><title>0</title><path class="cls-1" d="M83.46,33.4A7.44,7.44,0,0,0,78.74,29a8.15,8.15,0,0,0-2.49-.39c-2,0-6.9.82-9.3,8.39-.18.58-.35,1.17-.51,1.79a19.12,19.12,0,0,1-1.76-4.18,12.53,12.53,0,0,0-3.61-5.91A5.4,5.4,0,0,0,62,24.24c-.18-1.19-.38-2.55,1.36-5.75,2.16-4,2.68-8.06,1.43-11.18a7.49,7.49,0,0,0-4.73-4.44,8.35,8.35,0,0,0-2.49-.38c-2,0-6.89.81-9.29,8.38-.19.58-.36,1.18-.52,1.79A19.18,19.18,0,0,1,46,8.48c-1.53-5.07-4.69-7.1-7.07-7.92A10.61,10.61,0,0,0,35.51,0,9.76,9.76,0,0,0,29.9,1.69a11.25,11.25,0,0,0-3.44,14.77,14.91,14.91,0,0,0,2.87,3.88c-2.07.91-4.57,3-6.06,7.7-.18.57-.36,1.17-.52,1.78A18.74,18.74,0,0,1,21,25.64c-1.54-5.07-4.7-7.1-7.07-7.92a10.61,10.61,0,0,0-3.42-.56,9.79,9.79,0,0,0-5.62,1.69A11.25,11.25,0,0,0,1.46,33.62,16,16,0,0,0,5.1,38.25a6.71,6.71,0,0,1,2.68,5.46c.27,3.46,2.16,7.58,9.6,7.58h0a7.62,7.62,0,0,1,4.72,1.54,6.52,6.52,0,0,1,1.25,1.23,53.83,53.83,0,0,1,.43,9.37,1.45,1.45,0,0,0,.38,1,1.41,1.41,0,0,0,1,.45h.3a1.42,1.42,0,0,0,1.42-1.36,57.72,57.72,0,0,0-.46-9.88l.09-.23a4.27,4.27,0,0,0,.38-1c.46-1.78,1.77-2.37,4-3.25A10.16,10.16,0,0,0,36,46a5.42,5.42,0,0,0,1-4.57c-.18-1.19-.39-2.55,1.35-5.75.32-.59.61-1.2.87-1.82a15.48,15.48,0,0,0,3.18.3,8.27,8.27,0,0,1,1.66.16,11.29,11.29,0,0,0,1.08,8.26,15.71,15.71,0,0,0,3.65,4.63c1.5,1.41,2.41,2.26,2.67,5.47.28,3.45,2.16,7.57,9.6,7.57h0a7.74,7.74,0,0,1,4.73,1.54A6.51,6.51,0,0,1,67.08,63a54.71,54.71,0,0,1,.43,9.36,1.4,1.4,0,0,0,.38,1,1.45,1.45,0,0,0,1,.45h.3a1.43,1.43,0,0,0,1.42-1.37,57.6,57.6,0,0,0-.46-9.87q0-.1.09-.24a3.84,3.84,0,0,0,.38-1c.47-1.78,1.77-2.36,4-3.24,1.74-.68,3.71-1.44,5-3.26a5.4,5.4,0,0,0,1-4.56c-.18-1.2-.39-2.55,1.35-5.76C84.2,40.6,84.72,36.52,83.46,33.4ZM79.28,50.55a4,4,0,0,1-.79,3.53c-1,1.47-2.74,2.12-4.37,2.76-2.17.84-4.22,1.63-4.89,4.2a2.06,2.06,0,0,1-.29.69c-.14.41-.24.64-.26.7a55,55,0,0,1,.49,10h-.25a54.53,54.53,0,0,0-.49-9.95,7.63,7.63,0,0,0-1.74-1.82,9.06,9.06,0,0,0-5.61-1.84h0c-5.16,0-7.83-2-8.17-6.27a8.11,8.11,0,0,0-3.11-6.39A14.31,14.31,0,0,1,46.4,41.9a9.66,9.66,0,0,1-.52-8.55,9.52,9.52,0,0,0-3.48-.64h0a12.19,12.19,0,0,1-4-.58A17.47,17.47,0,0,1,37.1,35c-2,3.61-1.71,5.29-1.5,6.63a4,4,0,0,1-.79,3.53c-1.05,1.48-2.74,2.13-4.37,2.76-2.17.85-4.22,1.64-4.89,4.21a2.29,2.29,0,0,1-.29.69l-.26.7a55.83,55.83,0,0,1,.49,10h-.25a55.55,55.55,0,0,0-.49-10A7.83,7.83,0,0,0,23,51.7a9.12,9.12,0,0,0-5.61-1.83h0c-5.16,0-7.83-2-8.17-6.27a8.08,8.08,0,0,0-3.12-6.39A14.47,14.47,0,0,1,2.72,33a9.86,9.86,0,0,1,3-13,8.9,8.9,0,0,1,7.76-1c2.06.71,4.81,2.5,6.17,7a18,18,0,0,0,3.82,7.15,38.54,38.54,0,0,1,1.16-4.74c1.66-5.24,4.71-7.19,7.51-7.38-.32-.35-.68-.68-1.05-1a14.31,14.31,0,0,1-3.36-4.24,9.86,9.86,0,0,1,3-13,8.82,8.82,0,0,1,7.75-1c2.07.71,4.81,2.5,6.17,7A17.87,17.87,0,0,0,48.47,16a38.1,38.1,0,0,1,1.16-4.74c2.18-6.87,6.75-8.11,10-7.08a6.08,6.08,0,0,1,3.83,3.62c1.1,2.72.6,6.36-1.36,10s-1.71,5.3-1.51,6.64A4,4,0,0,1,59.82,28a5.51,5.51,0,0,1-.83.9A10.36,10.36,0,0,1,63.32,35a17.88,17.88,0,0,0,3.83,7.14A36.23,36.23,0,0,1,68.3,37.4c2.18-6.88,6.76-8.12,10-7.08a6.08,6.08,0,0,1,3.84,3.61c1.1,2.73.6,6.36-1.36,10S79.07,49.2,79.28,50.55Z"/></svg>