<svg id="圖層_1" data-name="圖層 1" xmlns="http://www.w3.org/2000/svg" viewBox="0 0 84.13 73.83"><defs><style>.cls-1{opacity:0.8;}.cls-2{fill:#fff;}</style></defs><title>0</title><g class="cls-1"><path class="cls-2" d="M83.46,33.4A7.48,7.48,0,0,0,78.74,29a8.23,8.23,0,0,0-2.49-.39c-2,0-6.9.82-9.3,8.39q-.28.87-.52,1.79a19.29,19.29,0,0,1-1.76-4.18,12.46,12.46,0,0,0-3.61-5.91A5.38,5.38,0,0,0,62,24.24c-.18-1.19-.38-2.55,1.35-5.75,2.17-4,2.69-8.06,1.43-11.18a7.48,7.48,0,0,0-4.72-4.44,8.23,8.23,0,0,0-2.49-.39c-2,0-6.9.82-9.3,8.39q-.28.87-.52,1.79A19.27,19.27,0,0,1,46,8.48c-1.54-5.07-4.69-7.1-7.07-7.92A10.52,10.52,0,0,0,35.51,0,9.77,9.77,0,0,0,29.9,1.69a11.24,11.24,0,0,0-3.43,14.77,14.84,14.84,0,0,0,2.87,3.88c-2.07.91-4.57,3-6.06,7.69q-.28.87-.52,1.79A19.27,19.27,0,0,1,21,25.64c-1.54-5.07-4.69-7.1-7.07-7.92a10.52,10.52,0,0,0-3.42-.56,9.77,9.77,0,0,0-5.62,1.69A11.24,11.24,0,0,0,1.46,33.62,15.84,15.84,0,0,0,5.1,38.25c1.51,1.41,2.42,2.26,2.67,5.47.28,3.46,2.16,7.57,9.62,7.57a7.67,7.67,0,0,1,4.75,1.54,6.84,6.84,0,0,1,1.25,1.23,54.39,54.39,0,0,1,.43,9.36,1.42,1.42,0,0,0,1.36,1.47h.31a1.42,1.42,0,0,0,1.42-1.37,57.6,57.6,0,0,0-.46-9.87l.09-.24a3.82,3.82,0,0,0,.38-1c.47-1.78,1.77-2.36,4-3.24,1.74-.67,3.71-1.44,5-3.26a5.41,5.41,0,0,0,1-4.57c-.18-1.2-.38-2.55,1.35-5.75a19.3,19.3,0,0,0,.87-1.82,15,15,0,0,0,3,.29h.17a8.42,8.42,0,0,1,1.66.16,11.3,11.3,0,0,0,1.08,8.27,15.83,15.83,0,0,0,3.65,4.63c1.51,1.41,2.42,2.26,2.67,5.47.28,3.46,2.16,7.57,9.62,7.57a7.67,7.67,0,0,1,4.75,1.54A6.75,6.75,0,0,1,67.08,63a54.46,54.46,0,0,1,.43,9.36,1.42,1.42,0,0,0,1.36,1.47h.31a1.42,1.42,0,0,0,1.42-1.37,57.59,57.59,0,0,0-.46-9.87l.09-.24a3.81,3.81,0,0,0,.38-1c.47-1.78,1.77-2.36,4-3.24,1.74-.67,3.71-1.44,5-3.25a5.42,5.42,0,0,0,1-4.57c-.18-1.2-.38-2.55,1.35-5.75C84.2,40.59,84.72,36.52,83.46,33.4ZM79.28,50.55a4,4,0,0,1-.79,3.53c-1.05,1.47-2.74,2.13-4.37,2.76-2.17.84-4.22,1.64-4.89,4.2a2.16,2.16,0,0,1-.29.7c-.14.4-.24.64-.26.7a55.5,55.5,0,0,1,.49,10h-.25a55.2,55.2,0,0,0-.49-10,7.6,7.6,0,0,0-1.74-1.82,9.08,9.08,0,0,0-5.61-1.83h0c-5.16,0-7.83-2.05-8.16-6.27a8.09,8.09,0,0,0-3.12-6.39A14.42,14.42,0,0,1,46.4,41.9a9.69,9.69,0,0,1-.52-8.56,9.47,9.47,0,0,0-3.47-.64h0a12.39,12.39,0,0,1-4-.58A17.54,17.54,0,0,1,37.1,35c-2,3.62-1.71,5.29-1.51,6.64a4,4,0,0,1-.79,3.53c-1.05,1.47-2.74,2.13-4.37,2.76-2.17.84-4.22,1.64-4.89,4.2a2.16,2.16,0,0,1-.29.7c-.14.4-.24.63-.26.7a55.5,55.5,0,0,1,.49,10h-.25a55.2,55.2,0,0,0-.49-10A7.6,7.6,0,0,0,23,51.7a9.08,9.08,0,0,0-5.61-1.83h0c-5.16,0-7.83-2.05-8.17-6.27a8.09,8.09,0,0,0-3.12-6.39A14.42,14.42,0,0,1,2.72,33a9.86,9.86,0,0,1,3-13,8.84,8.84,0,0,1,7.76-.95c2.06.71,4.81,2.49,6.17,7a17.92,17.92,0,0,0,3.83,7.14,38,38,0,0,1,1.16-4.73c1.66-5.24,4.71-7.2,7.51-7.38-.33-.35-.68-.69-1.05-1a14.42,14.42,0,0,1-3.36-4.24,9.86,9.86,0,0,1,3-13,8.85,8.85,0,0,1,7.76-.95c2.06.71,4.81,2.49,6.17,7A17.92,17.92,0,0,0,48.47,16a38,38,0,0,1,1.16-4.73c2.18-6.88,6.76-8.11,10-7.08a6.08,6.08,0,0,1,3.84,3.62c1.1,2.72.6,6.36-1.36,10s-1.71,5.29-1.51,6.64A4,4,0,0,1,59.82,28a5.18,5.18,0,0,1-.83.9A10.42,10.42,0,0,1,63.32,35a17.92,17.92,0,0,0,3.83,7.14A38,38,0,0,1,68.3,37.4c2.18-6.88,6.76-8.11,10-7.08a6.09,6.09,0,0,1,3.84,3.62c1.1,2.72.6,6.36-1.36,10S79.07,49.2,79.28,50.55Z"/></g></svg>