<svg id="圖層_1" data-name="圖層 1" xmlns="http://www.w3.org/2000/svg" viewBox="0 0 120.96 68.18"><defs><style>.cls-1{fill:#fff;}</style></defs><title>0</title><path class="cls-1" d="M121,33.92a6.54,6.54,0,0,0-4.24-5.15c-.21-.08-.43-.14-.65-.2a8.22,8.22,0,0,0,.69-13.92,6.82,6.82,0,0,0,.07-.9A8.24,8.24,0,0,0,109,5.27,8.24,8.24,0,0,0,101.51,0h-.25a8.16,8.16,0,0,0-7.5,4.84,8.3,8.3,0,0,0-8.15,8,6.6,6.6,0,0,0,0,.77,8.24,8.24,0,0,0,.07,14.31,7.72,7.72,0,0,0-.83.2,6.57,6.57,0,0,0-4.44,5,7.77,7.77,0,0,0,1.71,6.35c1.41,1.79,4.85,4.81,12,4.91h.24a11.3,11.3,0,0,0,6.13-1.53,11.68,11.68,0,0,0,6.34,1.78h.64c6.73,0,10.11-2.78,11.53-4.44A7.76,7.76,0,0,0,121,33.92Zm-3,5.35c-1.28,1.49-4.31,3.94-10.45,3.94h-.61c-3.1-.08-5.26-1-6.33-2.2C99.43,42.1,97.35,43,94.36,43h-.22c-6.56-.09-9.64-2.78-10.89-4.37a6.37,6.37,0,0,1-1.45-5.16,5.16,5.16,0,0,1,8.28-3.05,11.92,11.92,0,0,1,1.85,2.33c1.14,1.7,2.31,3.45,5.54,4.21a17.2,17.2,0,0,0-4.25-10.3,6.82,6.82,0,1,1-6.06-12.17,6.8,6.8,0,0,1,6.69-8.18h.2l.67.06a6.8,6.8,0,0,1,6.54-4.9h.21a6.8,6.8,0,0,1,6.45,5.3c.32,0,.6,0,.87,0a6.83,6.83,0,0,1,6.63,7,6.75,6.75,0,0,1-.26,1.63A6.82,6.82,0,0,1,112,28.23h-.21a6.93,6.93,0,0,1-3.34-1,17.42,17.42,0,0,0-4.65,9.8c3.21-.65,4.44-2.34,5.63-4a12.84,12.84,0,0,1,1.94-2.26,5.16,5.16,0,0,1,8.16,3.39A6.34,6.34,0,0,1,117.92,39.27ZM90.58,29a8.59,8.59,0,0,0,2.28-.58,15.85,15.85,0,0,1,2.84,6.34,8.18,8.18,0,0,1-2.59-2.81A13.94,13.94,0,0,0,91,29.32,5.32,5.32,0,0,0,90.58,29Zm20.14.59-.22.17a13.28,13.28,0,0,0-2.17,2.51,8.61,8.61,0,0,1-2.56,2.61,15.87,15.87,0,0,1,3-5.85A8.62,8.62,0,0,0,110.72,29.54Z"/><path class="cls-1" d="M36.45,37.69c-.22-.08-.43-.14-.65-.2a8.22,8.22,0,0,0,.68-13.92c0-.3.07-.6.08-.9a8.26,8.26,0,0,0-7.88-8.48,8.25,8.25,0,0,0-7.45-5.27H21a8.18,8.18,0,0,0-7.51,4.85,8.29,8.29,0,0,0-8.15,8,6.66,6.66,0,0,0,0,.77,8.24,8.24,0,0,0,.06,14.31,7.54,7.54,0,0,0-.82.2A6.53,6.53,0,0,0,.15,42a7.77,7.77,0,0,0,1.71,6.35c1.41,1.79,4.84,4.81,12,4.91h.25a11.24,11.24,0,0,0,6.13-1.53,11.62,11.62,0,0,0,6.33,1.78h.65c6.73,0,10.11-2.78,11.52-4.44a7.74,7.74,0,0,0,2-6.27A6.53,6.53,0,0,0,36.45,37.69Zm1.19,10.5c-1.27,1.5-4.3,3.94-10.44,3.94h-.61c-3.11-.08-5.26-1-6.34-2.2-1.09,1.1-3.18,1.94-6.16,1.94h-.23C7.31,51.78,4.23,49.09,3,47.5a6.32,6.32,0,0,1-1.44-5.16A5.05,5.05,0,0,1,5,38.41a5.05,5.05,0,0,1,4.8.88,12.62,12.62,0,0,1,1.85,2.33c1.13,1.7,2.3,3.45,5.54,4.22-.59-6-3.3-9.32-4.25-10.31a6.83,6.83,0,0,1-4.67.86,6.82,6.82,0,0,1-1.39-13,6.39,6.39,0,0,1-.14-1.55,6.82,6.82,0,0,1,7-6.62,5.45,5.45,0,0,1,.68.05A6.8,6.8,0,0,1,21,10.34h.2a6.81,6.81,0,0,1,6.45,5.3c.33,0,.6,0,.88,0a6.82,6.82,0,0,1,4.76,2.14,6.81,6.81,0,0,1,1.61,6.52,6.83,6.83,0,0,1-3.13,12.89h-.2a6.8,6.8,0,0,1-3.34-1A17.48,17.48,0,0,0,23.56,46c3.21-.65,4.45-2.34,5.64-4a11.69,11.69,0,0,1,1.94-2.25,5.14,5.14,0,0,1,8.15,3.38h0A6.31,6.31,0,0,1,37.64,48.19ZM10.3,37.87a8.66,8.66,0,0,0,2.29-.58,15.8,15.8,0,0,1,2.83,6.34,8.12,8.12,0,0,1-2.58-2.8,14,14,0,0,0-2.08-2.59A4.14,4.14,0,0,0,10.3,37.87Zm20.14.59-.22.17a13.71,13.71,0,0,0-2.17,2.51,8.57,8.57,0,0,1-2.55,2.61,15.87,15.87,0,0,1,3-5.85A8.39,8.39,0,0,0,30.44,38.46Z"/><path class="cls-1" d="M79.59,52.32c-.21-.08-.43-.14-.65-.2a8.22,8.22,0,0,0,.69-13.92,6.82,6.82,0,0,0,.07-.9,8.24,8.24,0,0,0-7.88-8.48,8.23,8.23,0,0,0-7.44-5.26h-.25a8.3,8.3,0,0,0-7.5,4.85,8.3,8.3,0,0,0-8.15,8,6.62,6.62,0,0,0,0,.77,8.25,8.25,0,0,0,.07,14.31,5.93,5.93,0,0,0-.83.21,6.55,6.55,0,0,0-4.44,5A7.77,7.77,0,0,0,45,63c1.41,1.79,4.85,4.81,12,4.91h.24a11.31,11.31,0,0,0,6.13-1.52,11.77,11.77,0,0,0,6.34,1.77h.64c6.73,0,10.11-2.78,11.53-4.44a7.76,7.76,0,0,0,2-6.27A6.55,6.55,0,0,0,79.59,52.32Zm1.2,10.5c-1.28,1.5-4.31,3.95-10.45,3.95h-.61c-3.1-.08-5.26-1-6.33-2.2-1.1,1.1-3.18,1.94-6.17,1.94H57c-6.56-.09-9.64-2.77-10.89-4.37A6.35,6.35,0,0,1,44.67,57,5.15,5.15,0,0,1,53,53.92a11.84,11.84,0,0,1,1.85,2.33c1.14,1.7,2.31,3.45,5.54,4.22-.58-6-3.29-9.32-4.25-10.31A6.82,6.82,0,1,1,50,38a7.57,7.57,0,0,1-.14-1.55,6.85,6.85,0,0,1,6.83-6.63h.2a5.43,5.43,0,0,1,.67.05,6.82,6.82,0,0,1,13.2.4,6.6,6.6,0,0,1,.87,0A6.78,6.78,0,0,1,78,38.89a6.82,6.82,0,0,1-3.12,12.89H74.7a6.83,6.83,0,0,1-3.34-1,17.42,17.42,0,0,0-4.65,9.8c3.21-.65,4.44-2.34,5.63-4a12.44,12.44,0,0,1,1.94-2.25,5.16,5.16,0,0,1,8.16,3.38h0A6.34,6.34,0,0,1,80.79,62.82ZM53.45,52.5a8.22,8.22,0,0,0,2.28-.58,15.85,15.85,0,0,1,2.84,6.34A8.31,8.31,0,0,1,56,55.47a12.92,12.92,0,0,0-2.07-2.59A4.22,4.22,0,0,0,53.45,52.5Zm20.14.59-.22.17a14.13,14.13,0,0,0-2.18,2.51,8.43,8.43,0,0,1-2.54,2.61,15.73,15.73,0,0,1,3-5.85A8.12,8.12,0,0,0,73.59,53.09Z"/></svg>