<svg id="圖層_1" data-name="圖層 1" xmlns="http://www.w3.org/2000/svg" viewBox="0 0 120.96 68.18"><defs><style>.cls-1{opacity:0.8;}.cls-2{fill:#fff;}</style></defs><title>0</title><g class="cls-1"><path class="cls-2" d="M121,33.92a6.55,6.55,0,0,0-4.24-5.15c-.21-.08-.43-.14-.65-.2a8.22,8.22,0,0,0,.68-13.92,7.81,7.81,0,0,0,.08-.9A8.24,8.24,0,0,0,109,5.27,8.24,8.24,0,0,0,101.51,0h-.24a8.17,8.17,0,0,0-7.51,4.85,8.31,8.31,0,0,0-8.15,8c0,.25,0,.51,0,.76a8.25,8.25,0,0,0,.06,14.31,7,7,0,0,0-.82.2,6.54,6.54,0,0,0-4.44,5,7.76,7.76,0,0,0,1.71,6.35c1.41,1.79,4.84,4.81,12,4.91h.25a11.32,11.32,0,0,0,6.13-1.53,11.72,11.72,0,0,0,6.33,1.78h.64c6.73,0,10.11-2.78,11.52-4.44A7.75,7.75,0,0,0,121,33.92Zm-3,5.35c-1.27,1.49-4.3,3.94-10.45,3.94h-.61c-3.11-.08-5.26-1-6.34-2.19C99.43,42.11,97.35,43,94.36,43h-.23c-6.55-.09-9.64-2.78-10.89-4.37a6.34,6.34,0,0,1-1.44-5.16,5.15,5.15,0,0,1,8.28-3.05,12.17,12.17,0,0,1,1.85,2.33c1.13,1.7,2.3,3.45,5.54,4.22-.59-6-3.3-9.32-4.25-10.31a6.82,6.82,0,1,1-6.06-12.17,6.8,6.8,0,0,1,6.69-8.18H94a6.72,6.72,0,0,1,.67.06,6.81,6.81,0,0,1,6.54-4.9h.2a6.81,6.81,0,0,1,6.45,5.3,6.8,6.8,0,0,1,7.25,8.62A6.83,6.83,0,0,1,112,28.23h-.2a6.81,6.81,0,0,1-3.34-1,17.46,17.46,0,0,0-4.66,9.8c3.21-.65,4.44-2.34,5.64-4a12.21,12.21,0,0,1,1.94-2.25,5.15,5.15,0,0,1,8.15,3.38A6.34,6.34,0,0,1,117.92,39.27ZM90.57,28.95a8.36,8.36,0,0,0,2.29-.58,15.84,15.84,0,0,1,2.83,6.35,8.25,8.25,0,0,1-2.59-2.8A13.47,13.47,0,0,0,91,29.32,5.06,5.06,0,0,0,90.57,28.95Zm20.14.59-.22.17a13.48,13.48,0,0,0-2.17,2.5,8.49,8.49,0,0,1-2.55,2.61,15.87,15.87,0,0,1,3-5.85A8.25,8.25,0,0,0,110.72,29.54Z"/><path class="cls-2" d="M36.45,37.69q-.3-.11-.6-.18A8.21,8.21,0,0,0,40,30.56a8.29,8.29,0,0,0-3.52-7,7.82,7.82,0,0,0,.08-.9,8.24,8.24,0,0,0-7.88-8.48,8.24,8.24,0,0,0-7.45-5.27H21a8.17,8.17,0,0,0-7.51,4.84,8.31,8.31,0,0,0-8.15,8q0,.38,0,.77a8.25,8.25,0,0,0,.06,14.31,6.61,6.61,0,0,0-.82.2A6.54,6.54,0,0,0,.15,42a7.76,7.76,0,0,0,1.71,6.35c1.41,1.79,4.84,4.81,12,4.91h.25a11.32,11.32,0,0,0,6.13-1.53,11.72,11.72,0,0,0,6.33,1.78h.64c6.73,0,10.11-2.78,11.52-4.44a7.75,7.75,0,0,0,2-6.27A6.55,6.55,0,0,0,36.45,37.69Zm1.2,10.5c-1.27,1.49-4.3,3.94-10.45,3.94h-.61c-3.11-.08-5.26-1-6.34-2.19-1.1,1.09-3.18,1.94-6.16,1.94h-.23C7.31,51.78,4.23,49.09,3,47.5a6.34,6.34,0,0,1-1.44-5.16A5.07,5.07,0,0,1,5,38.41a5.06,5.06,0,0,1,4.8.88,12.17,12.17,0,0,1,1.85,2.33c1.13,1.7,2.3,3.45,5.54,4.22-.59-6-3.3-9.32-4.25-10.31A6.82,6.82,0,1,1,6.89,23.36a6.8,6.8,0,0,1,6.69-8.18h.2a6.74,6.74,0,0,1,.67.06,6.82,6.82,0,0,1,13.2.4,6.71,6.71,0,0,1,.88,0,6.8,6.8,0,0,1,6.37,8.65,6.83,6.83,0,0,1-3.13,12.89h-.2a6.81,6.81,0,0,1-3.34-1,17.46,17.46,0,0,0-4.66,9.8c3.21-.65,4.44-2.34,5.64-4a12.19,12.19,0,0,1,1.94-2.25,5.15,5.15,0,0,1,8.15,3.38A6.34,6.34,0,0,1,37.64,48.19ZM10.3,37.87a8.36,8.36,0,0,0,2.29-.58,15.85,15.85,0,0,1,2.83,6.35,8.25,8.25,0,0,1-2.59-2.8,13.43,13.43,0,0,0-2.07-2.58A4.92,4.92,0,0,0,10.3,37.87Zm20.14.59-.22.17a13.48,13.48,0,0,0-2.17,2.5,8.5,8.5,0,0,1-2.55,2.61,15.87,15.87,0,0,1,3-5.85A8.25,8.25,0,0,0,30.44,38.46Z"/><path class="cls-2" d="M79.59,52.32c-.21-.07-.41-.14-.62-.19A8.29,8.29,0,0,0,80.56,51a8.19,8.19,0,0,0,2.58-5.76,8.29,8.29,0,0,0-3.52-7,7.82,7.82,0,0,0,.08-.9,8.25,8.25,0,0,0-7.88-8.48,8.24,8.24,0,0,0-7.45-5.27h-.24a8.16,8.16,0,0,0-7.5,4.85,8.21,8.21,0,0,0-8.15,8q0,.38,0,.77a8.24,8.24,0,0,0,.07,14.31,6.75,6.75,0,0,0-.83.2,6.54,6.54,0,0,0-4.44,5A7.76,7.76,0,0,0,45,63c1.41,1.79,4.84,4.81,12,4.91h.24a11.33,11.33,0,0,0,6.13-1.53,11.72,11.72,0,0,0,6.33,1.78h.64c6.73,0,10.11-2.78,11.52-4.44a7.76,7.76,0,0,0,2-6.27A6.55,6.55,0,0,0,79.59,52.32Zm1.2,10.5c-1.27,1.49-4.3,3.94-10.44,3.94h-.61c-3.11-.08-5.26-1-6.34-2.19-1.1,1.09-3.18,1.94-6.16,1.94H57c-6.55-.09-9.64-2.78-10.89-4.37A6.34,6.34,0,0,1,44.67,57,5.15,5.15,0,0,1,53,53.92a12.15,12.15,0,0,1,1.85,2.33c1.13,1.7,2.3,3.45,5.54,4.22-.59-6-3.3-9.32-4.25-10.31A6.82,6.82,0,1,1,50,38a6.8,6.8,0,0,1,6.69-8.17h.2a6.47,6.47,0,0,1,.67.06A6.81,6.81,0,0,1,64.13,25h.2a6.8,6.8,0,0,1,6.45,5.3,6.29,6.29,0,0,1,.88,0A6.8,6.8,0,0,1,78,38.89a6.85,6.85,0,0,1,3.7,6.26,6.83,6.83,0,0,1-6.82,6.63H74.7a6.8,6.8,0,0,1-3.34-1,17.46,17.46,0,0,0-4.66,9.8c3.21-.65,4.44-2.34,5.64-4a12.18,12.18,0,0,1,1.94-2.25,5.15,5.15,0,0,1,8.15,3.38A6.34,6.34,0,0,1,80.79,62.82ZM53.45,52.5a8.29,8.29,0,0,0,2.29-.58,15.88,15.88,0,0,1,2.83,6.35A8.25,8.25,0,0,1,56,55.47a13.4,13.4,0,0,0-2.07-2.59A5,5,0,0,0,53.45,52.5Zm20.14.59-.22.17a13.46,13.46,0,0,0-2.17,2.5,8.5,8.5,0,0,1-2.55,2.61,15.85,15.85,0,0,1,3-5.85A8.29,8.29,0,0,0,73.59,53.09Z"/></g></svg>