<svg id="圖層_1" data-name="圖層 1" xmlns="http://www.w3.org/2000/svg" viewBox="0 0 105.67 61.96"><defs><style>.cls-1{opacity:0.8;}.cls-2{fill:#fff;}</style></defs><title>0</title><g class="cls-1"><path class="cls-2" d="M100.49,26.06c-.82-.64-1.75-1.37-2.71-2.26a28.69,28.69,0,0,1-4.15-4.75C91.28,15.74,88.23,14,84.8,14a10.5,10.5,0,0,0-1.12.06,12.26,12.26,0,0,0-4.78,1.6,21.58,21.58,0,0,0-6.84,2.54c-.76-2.94-2.6-4.38-4.82-6.13-.82-.64-1.74-1.37-2.71-2.25a28.71,28.71,0,0,1-4.15-4.75C58,1.75,55,0,51.55,0a10.54,10.54,0,0,0-1.12.06,12.26,12.26,0,0,0-4.78,1.6c-12,2.44-13.91,10.93-14.12,14.77a38.08,38.08,0,0,0-1.93,6.93,10,10,0,0,0-7.29-3.22,10.48,10.48,0,0,0-1.12.06,12.26,12.26,0,0,0-4.78,1.6C4.37,24.25,2.5,32.74,2.29,36.57a39.06,39.06,0,0,0-2,7.18l0,.19a13.6,13.6,0,0,0,1.17,8.83c1.86,3.55,5.35,6.07,10.36,7.49A39.09,39.09,0,0,0,22.24,62a16.23,16.23,0,0,0,7.49-1.61c8.93-3.48,13.45-9.76,13.45-18.68q0-.51,0-1a35.82,35.82,0,0,0,8.32,1.13A16.24,16.24,0,0,0,59,40.21a28,28,0,0,0,3.66-1.73,13.44,13.44,0,0,0,1.29,8.14c1.86,3.55,5.35,6.07,10.36,7.49A39.06,39.06,0,0,0,84.73,55.8a16.23,16.23,0,0,0,7.49-1.61c8.93-3.48,13.46-9.76,13.46-18.68C105.67,30.13,103.39,28.33,100.49,26.06ZM91.63,52.9a14.69,14.69,0,0,1-6.9,1.48,37.48,37.48,0,0,1-10.06-1.64C70,51.44,66.86,49.15,65.18,46a12.18,12.18,0,0,1-1-7.9l0-.19c.14-.7.3-1.55.53-2.49a23.61,23.61,0,0,1-6.32,3.54,14.69,14.69,0,0,1-6.91,1.48,37.47,37.47,0,0,1-10-1.63,11.84,11.84,0,0,1,.32,2.9c0,8.3-4.25,14.15-12.62,17.39a14.69,14.69,0,0,1-6.91,1.48,37.51,37.51,0,0,1-10.06-1.64c-4.62-1.31-7.82-3.6-9.49-6.79a12.18,12.18,0,0,1-1-7.9l0-.19a36.87,36.87,0,0,1,2-7.14c.15-3.79,1.89-11.54,13.24-13.73a10.78,10.78,0,0,1,4.4-1.54c4.25-.46,7,2.15,8.64,4.41.23.33.46.63.7.94a13.39,13.39,0,0,1,.23-2.89l0-.19a36.88,36.88,0,0,1,2-7.14C33.08,12.95,34.82,5.2,46.18,3a10.78,10.78,0,0,1,4.4-1.54c4.25-.46,7,2.15,8.64,4.41a30.1,30.1,0,0,0,4.35,5c1,.92,2,1.67,2.8,2.33C69,15.24,70.77,16.65,71,20.67A18.44,18.44,0,0,1,79.42,17a10.78,10.78,0,0,1,4.4-1.54c4.25-.46,7,2.15,8.64,4.41a30.11,30.11,0,0,0,4.35,5c1,.92,2,1.67,2.8,2.33,2.8,2.2,4.65,3.65,4.65,8.34C104.26,43.82,100,49.66,91.63,52.9Z"/></g></svg>