<svg id="圖層_1" data-name="圖層 1" xmlns="http://www.w3.org/2000/svg" viewBox="0 0 105.67 61.96"><defs><style>.cls-1{opacity:0.8;}.cls-2{fill:#fff;}</style></defs><title>0</title><g class="cls-1"><path class="cls-2" d="M100.49,26.06c-.82-.65-1.75-1.38-2.72-2.26a28.51,28.51,0,0,1-4.15-4.75C91.28,15.74,88.23,14,84.8,14a11,11,0,0,0-1.13.06,12.4,12.4,0,0,0-4.78,1.61,21.66,21.66,0,0,0-6.84,2.54c-.76-2.94-2.59-4.38-4.81-6.12-.82-.65-1.75-1.37-2.71-2.26a28.38,28.38,0,0,1-4.15-4.74C58,1.75,55,0,51.55,0a10.65,10.65,0,0,0-1.12.06,12.16,12.16,0,0,0-4.78,1.61c-12,2.44-13.91,10.93-14.12,14.76a38.1,38.1,0,0,0-1.93,6.93,10,10,0,0,0-7.29-3.22,10.79,10.79,0,0,0-1.12.06,12.1,12.1,0,0,0-4.78,1.61C4.37,24.25,2.5,32.74,2.29,36.57a39.11,39.11,0,0,0-2,7.18l0,.2a13.6,13.6,0,0,0,1.17,8.83c1.86,3.54,5.35,6.06,10.36,7.49A39.15,39.15,0,0,0,22.24,62a16.22,16.22,0,0,0,7.5-1.61c8.92-3.48,13.45-9.76,13.45-18.68,0-.34,0-.67,0-1a35.94,35.94,0,0,0,8.32,1.13A16.22,16.22,0,0,0,59,40.21a28.12,28.12,0,0,0,3.66-1.73,13.4,13.4,0,0,0,1.29,8.14c1.86,3.55,5.34,6.07,10.35,7.49A38.81,38.81,0,0,0,84.73,55.8a16.33,16.33,0,0,0,7.49-1.6c8.93-3.48,13.45-9.77,13.45-18.68C105.67,30.13,103.39,28.33,100.49,26.06ZM91.63,52.9a14.66,14.66,0,0,1-6.9,1.49,37.57,37.57,0,0,1-10.06-1.64c-4.62-1.31-7.81-3.6-9.49-6.79a12.2,12.2,0,0,1-1-7.9l0-.19c.14-.7.31-1.55.53-2.49a23.87,23.87,0,0,1-6.32,3.54,14.68,14.68,0,0,1-6.91,1.48,37.19,37.19,0,0,1-10-1.63,12.15,12.15,0,0,1,.31,2.9c0,8.3-4.25,14.15-12.62,17.39a14.68,14.68,0,0,1-6.91,1.48,37.39,37.39,0,0,1-10-1.63c-4.63-1.32-7.82-3.6-9.49-6.79a12.14,12.14,0,0,1-1-7.9l0-.2a36.9,36.9,0,0,1,2-7.14c.15-3.8,1.89-11.54,13.25-13.73a10.7,10.7,0,0,1,4.4-1.54c4.25-.46,7,2.15,8.64,4.41.23.33.46.64.69.94a13.36,13.36,0,0,1,.23-2.88l0-.2a36.32,36.32,0,0,1,2-7.14C33.08,13,34.82,5.2,46.18,3a10.7,10.7,0,0,1,4.4-1.54c4.25-.46,7,2.15,8.64,4.41a30.35,30.35,0,0,0,4.35,5c1,.92,2,1.67,2.8,2.33,2.62,2.05,4.4,3.46,4.62,7.48A18.46,18.46,0,0,1,79.42,17a10.86,10.86,0,0,1,4.4-1.54c4.25-.46,7,2.15,8.64,4.42a30.33,30.33,0,0,0,4.35,5c1,.92,2,1.67,2.8,2.33,2.8,2.2,4.65,3.65,4.65,8.35C104.26,43.82,100,49.66,91.63,52.9Z"/></g></svg>