<svg id="圖層_1" data-name="圖層 1" xmlns="http://www.w3.org/2000/svg" viewBox="0 0 100.46 79.86"><defs><style>.cls-1{opacity:0.8;}.cls-2{fill:#fff;}</style></defs><title>0</title><g class="cls-1"><path class="cls-2" d="M20.21,12.14a17,17,0,0,0-2.53-.2H17.5a7.18,7.18,0,0,0-4.3-1.46h-.26a8.76,8.76,0,0,0-6,3,4.24,4.24,0,0,0-.66.17c-1.71.59-2.9,2.11-3.56,4.51a36.37,36.37,0,0,0-.88,9.36A45.86,45.86,0,0,1,.48,40.17C-1.15,46,1.64,51.41,4.79,54.57c2.59,2.6,5.71,4.09,8.55,4.09a7.61,7.61,0,0,0,1.44-.14A13.61,13.61,0,0,0,20,59.57l.56,0h.18a1.42,1.42,0,0,0,.3,0c4.72-.28,7.75-2.47,9.26-6.68,1.35-3.77,1.35-8.85,1.34-14.22v-1C31.62,26.5,31.62,13.86,20.21,12.14Zm8.74,40.23c-1.34,3.73-4,5.55-8.21,5.75l0,0v0c-.24,0-.47,0-.72,0A12.15,12.15,0,0,1,14.92,57a6.1,6.1,0,0,1-1.58.21,11.21,11.21,0,0,1-7.54-3.67c-2.87-2.88-5.41-7.81-3.95-13a47,47,0,0,0,1.44-13,35.33,35.33,0,0,1,.83-9c.52-1.92,1.42-3.11,2.65-3.54a3.24,3.24,0,0,1,.88-.16C9.36,13,11.15,12,13,11.9a5.77,5.77,0,0,1,4,1.47,15,15,0,0,1,3,.16c10.21,1.54,10.21,13,10.21,24.11v1C30.21,43.87,30.22,48.83,28.95,52.37Z"/><path class="cls-2" d="M56.6,1.65a17,17,0,0,0-2.53-.2h-.19A7.32,7.32,0,0,0,49.58,0h-.24a8.76,8.76,0,0,0-6,3,4.17,4.17,0,0,0-.66.17C41,3.78,39.8,5.3,39.14,7.7a36.38,36.38,0,0,0-.88,9.36,45.85,45.85,0,0,1-1.39,12.62,13,13,0,0,0,0,6.84,50.13,50.13,0,0,0-.39,7A45.85,45.85,0,0,1,35,56.12c-1.63,5.79,1.16,11.24,4.31,14.4,2.59,2.6,5.71,4.09,8.55,4.09a7.6,7.6,0,0,0,1.44-.14,13.61,13.61,0,0,0,5.2,1.05l.56,0h.18a1.42,1.42,0,0,0,.3,0c4.72-.28,7.75-2.46,9.26-6.68,1.35-3.77,1.35-8.85,1.34-14.22v-1c0-3.2,0-6.5-.25-9.6a11.32,11.32,0,0,0,.74-1.63C68,38.59,68,33.51,68,28.14v-1C68,16,68,3.38,56.6,1.65Zm8.74,40.23a10.47,10.47,0,0,1-.85,1.79c.29,3.15.29,6.55.29,9.92v1c0,5.25,0,10.2-1.26,13.74-1.34,3.73-4,5.55-8.21,5.75l0,0v0c-.24,0-.47,0-.72,0A12.15,12.15,0,0,1,49.48,73a6.1,6.1,0,0,1-1.58.21,11.21,11.21,0,0,1-7.54-3.67c-2.87-2.88-5.41-7.81-3.95-13a47,47,0,0,0,1.44-13,46.51,46.51,0,0,1,.42-7.06,11.73,11.73,0,0,1,0-6.38,47,47,0,0,0,1.44-13,35.33,35.33,0,0,1,.83-9C41,6.15,41.93,5,43.16,4.53A3.24,3.24,0,0,1,44,4.37c1.7-1.89,3.5-2.88,5.34-2.95h.19A5.85,5.85,0,0,1,53.4,2.89a15,15,0,0,1,3,.16C66.6,4.59,66.6,16.07,66.6,27.16v1C66.6,33.39,66.61,38.34,65.34,41.88Z"/><path class="cls-2" d="M100.46,57.94c0-11.15,0-23.79-11.41-25.51a17,17,0,0,0-2.53-.2h-.19A7.32,7.32,0,0,0,82,30.77h-.23a8.76,8.76,0,0,0-6,3,4.17,4.17,0,0,0-.66.17c-1.71.59-2.9,2.11-3.56,4.51a36.38,36.38,0,0,0-.88,9.36,45.85,45.85,0,0,1-1.39,12.62c-1.63,5.79,1.16,11.24,4.31,14.4,2.59,2.6,5.71,4.09,8.55,4.09a7.6,7.6,0,0,0,1.44-.14,13.61,13.61,0,0,0,5.2,1.05l.56,0h.18a1.43,1.43,0,0,0,.3,0c4.72-.28,7.75-2.46,9.26-6.68,1.35-3.77,1.35-8.85,1.34-14.22ZM97.78,72.66c-1.34,3.73-4,5.55-8.21,5.75l0,0v0c-.24,0-.47,0-.72,0a12.15,12.15,0,0,1-5.06-1.12,6.09,6.09,0,0,1-1.58.21,11.21,11.21,0,0,1-7.54-3.67c-2.87-2.88-5.41-7.81-3.95-13a47,47,0,0,0,1.44-13,35.33,35.33,0,0,1,.83-9c.52-1.92,1.42-3.11,2.65-3.54a3.24,3.24,0,0,1,.88-.16c1.7-1.89,3.5-2.88,5.34-2.95a5.84,5.84,0,0,1,4,1.47,15,15,0,0,1,3,.16C99,35.37,99,46.84,99,57.94v1C99,64.16,99.05,69.12,97.78,72.66Z"/></g></svg>