<svg id="圖層_1" data-name="圖層 1" xmlns="http://www.w3.org/2000/svg" viewBox="0 0 59.98 68.97"><defs><style>.cls-1{opacity:0.8;}.cls-2{fill:#fff;}</style></defs><title>0</title><g class="cls-1"><path class="cls-2" d="M3.17,22.11A16.57,16.57,0,0,0,2.07,19c-.65-1.48-1.11-2.54.1-3.21a1.27,1.27,0,0,1,.28-.11c-.12-.32-.24-.64-.35-.93-.59-1.52-1-2.62.2-3.29a1.29,1.29,0,0,1,1.13,0,2.77,2.77,0,0,1,.67.41c0-1.92.38-4.09,1.87-5.15l.08-.05.07.06c1.35,1,1.74,3.22,1.8,5.15a2.79,2.79,0,0,1,.68-.41,1.29,1.29,0,0,1,1.14,0c1.22.67.79,1.77.2,3.29-.11.29-.23.61-.35.93a1.27,1.27,0,0,1,.28.11c1.22.67.75,1.74.1,3.21a16.5,16.5,0,0,0-1.1,3.13c-.68,3.07-.56,32.42-.49,44a9.68,9.68,0,0,1,1.42.4c-.09-14.41-.14-41.38.46-44.11a15.2,15.2,0,0,1,1-2.87c.56-1.29,1.38-3.14.05-4.46.58-1.5,1.33-3.66-.89-4.89a2.6,2.6,0,0,0-1.25-.33A6.54,6.54,0,0,0,6.91,5.47a1.37,1.37,0,0,0-.83-.27,1.62,1.62,0,0,0-.93.29A6.17,6.17,0,0,0,2.82,9.86a2.6,2.6,0,0,0-1.2.33C-.61,11.42.14,13.58.72,15.08-.61,16.4.21,18.26.77,19.55a15.13,15.13,0,0,1,1,2.86c.61,2.75.55,30.17.45,44.49a9.7,9.7,0,0,1,1.42-.56C3.73,54.89,3.85,25.2,3.17,22.11Z"/><path class="cls-2" d="M19.61,68.68v-.13c0-.48.38-47.83-.46-51.65A16.5,16.5,0,0,0,18,13.77c-.65-1.48-1.11-2.54.1-3.21a1.25,1.25,0,0,1,.28-.11c-.12-.33-.24-.64-.35-.93-.59-1.52-1-2.62.2-3.29a1.29,1.29,0,0,1,1.13,0,2.77,2.77,0,0,1,.67.41c0-1.92.38-4.09,1.87-5.15L22,1.39l.07.06c1.35,1,1.74,3.22,1.8,5.15a2.83,2.83,0,0,1,.68-.41,1.29,1.29,0,0,1,1.14,0c1.22.67.79,1.77.2,3.29-.11.29-.23.61-.35.93a1.24,1.24,0,0,1,.28.11c1.21.67.75,1.74.1,3.21a16.43,16.43,0,0,0-1.1,3.13c-.74,3.36-.54,40.42-.47,49.6a9.68,9.68,0,0,1,1.41-.39c-.14-19.11-.13-46.31.44-48.91a15.25,15.25,0,0,1,1-2.87c.56-1.29,1.38-3.15,0-4.46.58-1.5,1.33-3.66-.89-4.89a2.59,2.59,0,0,0-1.25-.33A6.53,6.53,0,0,0,22.89.27,1.37,1.37,0,0,0,22.06,0a1.62,1.62,0,0,0-.93.29A6.17,6.17,0,0,0,18.8,4.66,2.59,2.59,0,0,0,17.6,5c-2.23,1.23-1.48,3.39-.9,4.89-1.33,1.32-.51,3.17,0,4.46a15.32,15.32,0,0,1,1,2.87c.6,2.71.58,32.18.42,51.33v.13a1.39,1.39,0,0,0,.06.29,9.71,9.71,0,0,0,1.41-.28Z"/><path class="cls-2" d="M35.13,22.11A16.5,16.5,0,0,0,34,19c-.65-1.48-1.11-2.54.1-3.21a1.27,1.27,0,0,1,.28-.11c-.12-.33-.24-.64-.35-.93-.59-1.52-1-2.62.2-3.29a1.29,1.29,0,0,1,1.14,0,2.81,2.81,0,0,1,.67.4c0-1.92.38-4.08,1.87-5.14L38,6.6l.07.06c1.35,1,1.74,3.22,1.8,5.15a2.83,2.83,0,0,1,.68-.41,1.29,1.29,0,0,1,1.14,0c1.22.67.79,1.77.2,3.29-.11.29-.23.61-.35.93a1.25,1.25,0,0,1,.28.11c1.21.67.75,1.74.1,3.21a16.43,16.43,0,0,0-1.1,3.13c-.74,3.35-.54,37.88-.47,46.67a9.68,9.68,0,0,0,1.41-.43c-.1-13.82-.18-43.08.44-45.93a15.25,15.25,0,0,1,1-2.87c.56-1.29,1.38-3.14,0-4.46.58-1.5,1.33-3.66-.89-4.89a2.59,2.59,0,0,0-1.25-.33,6.53,6.53,0,0,0-2.26-4.39A1.37,1.37,0,0,0,38,5.2a1.62,1.62,0,0,0-.93.29,6.17,6.17,0,0,0-2.33,4.37,2.6,2.6,0,0,0-1.21.33c-2.23,1.23-1.48,3.39-.9,4.89-1.33,1.32-.51,3.17.05,4.46a15.32,15.32,0,0,1,1,2.87c.57,2.58.58,27.84.45,45.76a9.68,9.68,0,0,0,1.41.51C35.67,59.73,35.87,25.44,35.13,22.11Z"/><path class="cls-2" d="M51.11,16.9A16.43,16.43,0,0,0,50,13.77c-.65-1.48-1.11-2.54.1-3.21a1.25,1.25,0,0,1,.28-.11c-.12-.33-.24-.64-.35-.93-.59-1.52-1-2.62.2-3.29a1.29,1.29,0,0,1,1.14,0,2.81,2.81,0,0,1,.67.4c0-1.92.38-4.08,1.87-5.14L54,1.39l.07.06c1.35,1,1.74,3.21,1.8,5.15a2.82,2.82,0,0,1,.68-.41,1.29,1.29,0,0,1,1.14,0c1.22.67.79,1.77.2,3.29-.11.29-.23.61-.35.93a1.25,1.25,0,0,1,.28.11c1.21.67.75,1.74.1,3.21a16.5,16.5,0,0,0-1.1,3.13c-.84,3.81-.46,51-.46,51.64a9.69,9.69,0,0,0,1.38.34,1.38,1.38,0,0,0,0-.22v-.13c-.16-19.15-.17-48.62.42-51.33a15.28,15.28,0,0,1,1-2.87c.56-1.29,1.38-3.15,0-4.46.58-1.5,1.33-3.66-.89-4.89a2.59,2.59,0,0,0-1.25-.33A6.53,6.53,0,0,0,54.86.27,1.37,1.37,0,0,0,54,0a1.62,1.62,0,0,0-.93.29,6.17,6.17,0,0,0-2.33,4.37A2.57,2.57,0,0,0,49.56,5c-2.23,1.23-1.48,3.39-.9,4.89-1.33,1.31-.51,3.17,0,4.46a15.22,15.22,0,0,1,1,2.87c.57,2.59.58,29.69.45,48.8a9.72,9.72,0,0,1,1.41.32C51.65,56.86,51.85,20.24,51.11,16.9Z"/><path class="cls-2" d="M3.66,66.35h0a9.7,9.7,0,0,0-1.42.56h0A9.7,9.7,0,0,1,3.66,66.35Z"/><path class="cls-2" d="M8.37,66.14a9.68,9.68,0,0,1,1.42.4h0a9.68,9.68,0,0,0-1.42-.4Z"/><path class="cls-2" d="M19.72,68.68h-.06a9.71,9.71,0,0,1-1.41.28h0A9.7,9.7,0,0,0,19.72,68.68Z"/><path class="cls-2" d="M24.37,66.51a9.68,9.68,0,0,1,1.41-.39h0a9.68,9.68,0,0,0-1.41.39Z"/><path class="cls-2" d="M35.61,68.69h0a9.68,9.68,0,0,1-1.41-.51h0A9.68,9.68,0,0,0,35.61,68.69Z"/><path class="cls-2" d="M40.35,68.79a9.68,9.68,0,0,0,1.41-.43h0a9.68,9.68,0,0,1-1.41.43Z"/><path class="cls-2" d="M51.59,66.34h0A9.72,9.72,0,0,0,50.17,66h0A9.72,9.72,0,0,1,51.59,66.34Z"/><path class="cls-2" d="M56.35,68.55h0a9.7,9.7,0,0,0,1.37.34h0a9.69,9.69,0,0,1-1.38-.34Z"/></g></svg>