<svg id="圖層_1" data-name="圖層 1" xmlns="http://www.w3.org/2000/svg" viewBox="0 0 59.98 68.97"><defs><style>.cls-1{opacity:0.8;}.cls-2{fill:#fff;}</style></defs><title>0</title><g class="cls-1"><path class="cls-2" d="M3.17,22.11A17.69,17.69,0,0,0,2.07,19c-.65-1.47-1.12-2.54.1-3.21a1,1,0,0,1,.28-.11c-.12-.33-.24-.64-.35-.93-.59-1.52-1-2.62.2-3.29a1.27,1.27,0,0,1,1.13,0,2.81,2.81,0,0,1,.67.41c0-1.92.38-4.09,1.88-5.15l.07-.05.07.05c1.36,1,1.75,3.22,1.8,5.15a2.86,2.86,0,0,1,.68-.41,1.27,1.27,0,0,1,1.13,0c1.22.67.8,1.77.21,3.29-.12.29-.24.6-.35.93a1,1,0,0,1,.27.11c1.22.67.75,1.74.11,3.21a16.23,16.23,0,0,0-1.1,3.14c-.68,3.07-.57,32.42-.5,44a8.78,8.78,0,0,1,1.42.39c-.09-14.41-.14-41.38.46-44.11a15.21,15.21,0,0,1,1-2.87c.57-1.28,1.38-3.14.05-4.46.58-1.5,1.34-3.66-.89-4.89a2.51,2.51,0,0,0-1.25-.33A6.52,6.52,0,0,0,6.91,5.47a1.35,1.35,0,0,0-.83-.27,1.7,1.7,0,0,0-.93.29A6.18,6.18,0,0,0,2.82,9.86a2.58,2.58,0,0,0-1.21.33C-.61,11.42.14,13.58.72,15.08-.61,16.4.21,18.26.77,19.55a14.85,14.85,0,0,1,1,2.86c.61,2.76.56,30.17.46,44.49a9.11,9.11,0,0,1,1.42-.56C3.73,54.89,3.85,25.2,3.17,22.11Z"/><path class="cls-2" d="M19.61,68.68v-.13c0-.48.38-47.83-.46-51.65a16.11,16.11,0,0,0-1.1-3.13c-.65-1.48-1.11-2.54.1-3.21a1.39,1.39,0,0,1,.28-.12l-.35-.93c-.59-1.52-1-2.61.2-3.29a1.33,1.33,0,0,1,1.14,0,3,3,0,0,1,.67.41c0-1.92.38-4.08,1.87-5.15L22,1.39l.08.06c1.35,1,1.74,3.21,1.79,5.14a3.24,3.24,0,0,1,.68-.41,1.33,1.33,0,0,1,1.14,0c1.21.68.79,1.77.2,3.29-.12.29-.24.61-.35.93a1.69,1.69,0,0,1,.28.12c1.21.67.74,1.73.1,3.21a16.11,16.11,0,0,0-1.1,3.13c-.74,3.36-.54,40.42-.48,49.6a12,12,0,0,1,1.42-.39c-.14-19.11-.13-46.3.44-48.9a14.76,14.76,0,0,1,1-2.88c.56-1.28,1.37-3.14.05-4.45.58-1.5,1.33-3.67-.9-4.9a2.61,2.61,0,0,0-1.25-.32A6.46,6.46,0,0,0,22.89.27,1.29,1.29,0,0,0,22.06,0a1.63,1.63,0,0,0-.93.29A6.19,6.19,0,0,0,18.8,4.66,2.65,2.65,0,0,0,17.6,5c-2.23,1.23-1.48,3.39-.9,4.9-1.33,1.31-.51,3.17.05,4.46a15.79,15.79,0,0,1,1,2.87c.59,2.71.58,32.18.42,51.33v.13a1.5,1.5,0,0,0,.06.29,10,10,0,0,0,1.41-.28Z"/><path class="cls-2" d="M35.13,22.11A16.23,16.23,0,0,0,34,19c-.65-1.47-1.11-2.54.1-3.21a1,1,0,0,1,.28-.11c-.12-.33-.24-.64-.35-.93-.59-1.52-1-2.62.2-3.29a1.29,1.29,0,0,1,1.14,0,2.76,2.76,0,0,1,.67.4c0-1.92.38-4.08,1.87-5.14L38,6.6l.08.05c1.35,1,1.74,3.22,1.79,5.15a2.86,2.86,0,0,1,.68-.41,1.29,1.29,0,0,1,1.14,0c1.22.67.79,1.77.2,3.29-.12.29-.23.6-.35.93a1.08,1.08,0,0,1,.28.11c1.21.67.75,1.74.1,3.21a16.23,16.23,0,0,0-1.1,3.14c-.74,3.34-.54,37.88-.48,46.67a9,9,0,0,0,1.42-.44c-.1-13.82-.19-43.08.44-45.93a15.33,15.33,0,0,1,1-2.87c.56-1.29,1.37-3.14.05-4.46.58-1.5,1.33-3.66-.9-4.89a2.46,2.46,0,0,0-1.25-.33,6.54,6.54,0,0,0-2.25-4.39A1.4,1.4,0,0,0,38,5.2a1.65,1.65,0,0,0-.92.29,6.22,6.22,0,0,0-2.34,4.37,2.54,2.54,0,0,0-1.2.33c-2.23,1.23-1.48,3.39-.9,4.89-1.33,1.32-.51,3.17,0,4.46a16.07,16.07,0,0,1,1,2.87c.57,2.58.58,27.84.44,45.76a9.26,9.26,0,0,0,1.42.51C35.67,59.73,35.87,25.44,35.13,22.11Z"/><path class="cls-2" d="M51.11,16.9A16.11,16.11,0,0,0,50,13.77c-.64-1.48-1.11-2.54.1-3.21a1.69,1.69,0,0,1,.28-.12c-.12-.32-.23-.64-.35-.93-.59-1.52-1-2.61.2-3.29a1.33,1.33,0,0,1,1.14,0,2.81,2.81,0,0,1,.67.41c0-1.92.38-4.08,1.87-5.15L54,1.39l.07.06c1.35,1,1.74,3.21,1.79,5.14a3.24,3.24,0,0,1,.68-.41,1.33,1.33,0,0,1,1.14,0c1.22.68.79,1.77.2,3.29l-.35.93a1.39,1.39,0,0,1,.28.12c1.21.67.75,1.73.1,3.21a16.11,16.11,0,0,0-1.1,3.13c-.84,3.81-.46,51-.46,51.64a9.3,9.3,0,0,0,1.38.35,2.07,2.07,0,0,0,0-.22v-.13c-.16-19.15-.17-48.62.42-51.33a15.79,15.79,0,0,1,1-2.87c.56-1.29,1.38-3.15,0-4.46.58-1.5,1.33-3.67-.89-4.89a2.51,2.51,0,0,0-1.25-.33A6.54,6.54,0,0,0,54.86.27,1.34,1.34,0,0,0,54,0a1.59,1.59,0,0,0-.92.29,6.2,6.2,0,0,0-2.34,4.37,2.65,2.65,0,0,0-1.2.32c-2.23,1.23-1.48,3.39-.9,4.9-1.32,1.31-.51,3.17.05,4.46a15.07,15.07,0,0,1,1,2.87c.57,2.59.58,29.69.44,48.8a10,10,0,0,1,1.42.32C51.65,56.86,51.85,20.24,51.11,16.9Z"/><path class="cls-2" d="M3.66,66.35h0a9.11,9.11,0,0,0-1.42.56h0A10.22,10.22,0,0,1,3.66,66.35Z"/><path class="cls-2" d="M8.37,66.14a8.82,8.82,0,0,1,1.42.4v0a8.78,8.78,0,0,0-1.42-.39Z"/><path class="cls-2" d="M19.72,68.68h-.06a10,10,0,0,1-1.41.28h0A9.32,9.32,0,0,0,19.72,68.68Z"/><path class="cls-2" d="M24.37,66.51a10.27,10.27,0,0,1,1.42-.38v0a12,12,0,0,0-1.42.39Z"/><path class="cls-2" d="M35.61,68.69h0a9.26,9.26,0,0,1-1.42-.51h0A9.26,9.26,0,0,0,35.61,68.69Z"/><path class="cls-2" d="M40.35,68.79a10.09,10.09,0,0,0,1.42-.43v0a9,9,0,0,1-1.42.44Z"/><path class="cls-2" d="M51.59,66.34h0A10,10,0,0,0,50.17,66v0A8.78,8.78,0,0,1,51.59,66.34Z"/><path class="cls-2" d="M56.35,68.55h0a10.69,10.69,0,0,0,1.38.34h0a9.3,9.3,0,0,1-1.38-.35Z"/></g></svg>