<svg id="圖層_1" data-name="圖層 1" xmlns="http://www.w3.org/2000/svg" viewBox="0 0 132.94 76.32"><defs><style>.cls-1{fill:#fff;}</style></defs><title>0</title><path class="cls-1" d="M77.21,35.44a11.43,11.43,0,0,1-3.27,3.71c.57,1,1.09,1.92,1.61,2.89,1.33,2.48,2.57,4.78,4.43,6.39a17.16,17.16,0,0,1,.8-7.45A8.28,8.28,0,0,1,77.21,35.44Zm1.35,9c-.61-1-1.18-2-1.76-3.11-.33-.61-.67-1.24-1-1.88.34-.31.67-.63,1-1a10,10,0,0,0,2.37,3A16.59,16.59,0,0,0,78.56,44.48Z"/><path class="cls-1" d="M131,19.32a14.78,14.78,0,0,0-20.13-5.55,14.78,14.78,0,0,0-5.55,20.13,14.86,14.86,0,0,0,1,1.53,24.43,24.43,0,0,0-3.8,5.52,13.88,13.88,0,0,0-5-1.9,21.06,21.06,0,0,0,2.15-7.92,7.51,7.51,0,0,1,1.13-2.69c.94-1.65,2.22-3.91.83-6.29A6.48,6.48,0,0,0,96.84,19,5.45,5.45,0,0,0,96,19c-1.55,0-4,.55-6.57,3.2a10.3,10.3,0,0,1-5.53,2.76,12.19,12.19,0,0,0-4.35,1.73A12.84,12.84,0,0,0,69,17.36c-.33,0-.67-.07-1-.08a12.75,12.75,0,0,0-1.32-2.34,8.46,8.46,0,0,1-1.73-4.53C64.59,7,63.16,4.26,61,2.91A5.58,5.58,0,0,0,58,2.05a5.38,5.38,0,0,0-2.05.4,6.05,6.05,0,0,0-2.63,1.9A13.08,13.08,0,0,0,45.3.12,12.87,12.87,0,0,0,43.55,0,13.19,13.19,0,0,0,30.87,9.64a11.26,11.26,0,0,0-6-1.92,16.33,16.33,0,0,0-2.4.22,14.92,14.92,0,0,1-2.12.2,9,9,0,0,1-3.15-.61,13.12,13.12,0,0,0-4.57-.89A8.22,8.22,0,0,0,8.17,7.85,5.8,5.8,0,0,0,5.46,12.4c-.28,4.19,2.61,5.94,5.17,7.49a14.23,14.23,0,0,1,4,3.12,12.77,12.77,0,0,0,7.14,4.87,16,16,0,0,1-2.09.65,14,14,0,0,0-3.46-.91,13.52,13.52,0,0,0-1.91-.13,14.36,14.36,0,0,0-1.84,28.6l.9.09a50.14,50.14,0,0,0-1.15,6.28,35.73,35.73,0,0,1-1.11,5.78c-1,3.28-.62,5.93,1.16,7.27a4.11,4.11,0,0,0,2.55.81,10,10,0,0,0,5.3-2l1.59-1c4.19-2.78,4.36-2.89,10.41-5.7,3.39-1.57,5.43-5,5.94-10.09a12.7,12.7,0,0,0,4.06-2,5.87,5.87,0,0,0,1.26,1.6,4.7,4.7,0,0,0,3.17,1.23,4.47,4.47,0,0,0,1-.1,12.76,12.76,0,0,0,11.8,8,12.47,12.47,0,0,0,1.62-.1,12.72,12.72,0,0,0,9.66-18.55A17.38,17.38,0,0,0,73.23,46c1.67,3,4,6.32,8.25,7.82a9.37,9.37,0,0,0,.11,1A13.84,13.84,0,0,0,95.22,66.49a13.89,13.89,0,0,0,13.69-15.92,13.73,13.73,0,0,0-2.31-5.76A17.54,17.54,0,0,1,110.18,39a14.75,14.75,0,0,0,4.07,1.81,15,15,0,0,0,3.94.53A14.77,14.77,0,0,0,131,19.32Zm0,10.84a13.31,13.31,0,0,1-16.42,9.32A13.43,13.43,0,0,1,110,37.17a19.37,19.37,0,0,0-4.95,7.9,12.39,12.39,0,0,1-7.92,19.85,12.16,12.16,0,0,1-1.9.15A12.41,12.41,0,0,1,83,54.54a12.07,12.07,0,0,1-.13-1.79c-4.9-1.3-7.15-5.12-9.22-9a15.4,15.4,0,0,1-5.09,3.14,11.19,11.19,0,0,1,2,5.13,11.31,11.31,0,0,1-9.79,12.66,10.06,10.06,0,0,1-1.44.1,11.33,11.33,0,0,1-10.91-8.38,4.11,4.11,0,0,1-1.15.43,3.34,3.34,0,0,1-2.93-.8,5.3,5.3,0,0,1-1.57-3,11.28,11.28,0,0,1-6,3.29c-.22,3.87-1.43,8.19-5.2,9.94-6.16,2.86-6.41,3-10.61,5.81l-1.58,1a8.79,8.79,0,0,1-4.52,1.74,2.77,2.77,0,0,1-1.7-.52c-1.25-.95-1.49-3.08-.66-5.71a35.5,35.5,0,0,0,1.16-6,40.63,40.63,0,0,1,1.66-7.89c-.31,0-.61,0-.93,0a14,14,0,0,1-1.7-.11A12.95,12.95,0,0,1,16.06,29a13.14,13.14,0,0,1,3.51,1,17.33,17.33,0,0,0,9.22-5.18l.07-.07a8,8,0,0,1-5.12,1.92,7.34,7.34,0,0,1-.81-.05c-2.55-.26-5-1.82-7.17-4.5a15.68,15.68,0,0,0-4.4-3.46c-2.42-1.46-4.71-2.84-4.48-6.17A4.39,4.39,0,0,1,8.94,9c1.92-1.24,4.75-1.31,7.76-.19a10.63,10.63,0,0,0,6,.49c2.18-.3,4.23-.6,8,1.83a8,8,0,0,1,1.24,1c0-.17,0-.34,0-.51A11.76,11.76,0,0,1,53.59,7,4.58,4.58,0,0,1,56.5,3.76a4.12,4.12,0,0,1,3.73.35c1.8,1.12,3,3.46,3.25,6.43a9.79,9.79,0,0,0,2,5.18,9.85,9.85,0,0,1,1.49,3,11.23,11.23,0,0,1,11.66,11c1.54-2.39,3.55-2.9,5.66-3.43a11.58,11.58,0,0,0,6.2-3.14c2.56-2.59,4.78-2.91,6.21-2.74a5.08,5.08,0,0,1,3.74,2.45c1,1.68,0,3.31-.84,4.88A8.58,8.58,0,0,0,98.25,31,17.09,17.09,0,0,1,95,40.28a12.4,12.4,0,0,1,8.11,2.84,22.4,22.4,0,0,1,5.09-7.62A13.33,13.33,0,0,1,111.58,15,13.34,13.34,0,0,1,131,30.16Z"/><path class="cls-1" d="M37.29,23.13a10.67,10.67,0,0,0-6.65,3.39,19.39,19.39,0,0,1-8.13,5.29,13.13,13.13,0,0,1,4,5.56A11.3,11.3,0,0,1,36.08,34c.1,0,.2,0,.3.06a19.58,19.58,0,0,1,2.92-10A11.46,11.46,0,0,1,37.29,23.13ZM35,32.53h-.42A12.77,12.77,0,0,0,27,35.06a14.18,14.18,0,0,0-1.93-2.75,20.79,20.79,0,0,0,6.62-4.83A9.19,9.19,0,0,1,37,24.6l.34.19A21.12,21.12,0,0,0,35,32.53Z"/><path class="cls-1" d="M48.44,27.43a14.67,14.67,0,0,0-3.27-2.6,10.44,10.44,0,0,1-1.59.13A11.51,11.51,0,0,1,42,24.85a5.48,5.48,0,0,1-.56-.1c-1,1.66-3.24,5.77-2.88,9.94a11.12,11.12,0,0,1,4.31,2.89,9.67,9.67,0,0,1,2.56-2A13.77,13.77,0,0,1,48,34.46a16.8,16.8,0,0,1,3.16-4.68A15.29,15.29,0,0,1,48.44,27.43ZM47,33.31a13.85,13.85,0,0,0-2.2,1,11.72,11.72,0,0,0-1.88,1.3A12.45,12.45,0,0,0,40,33.73a16.28,16.28,0,0,1,2.24-7.43,12.39,12.39,0,0,0,1.36.07,11.74,11.74,0,0,0,1.28-.07,13.13,13.13,0,0,1,2.55,2.11A19,19,0,0,0,49.1,30,17.32,17.32,0,0,0,47,33.31Z"/><path class="cls-1" d="M82.2,49.84a8.18,8.18,0,0,0,.91.35A12.49,12.49,0,0,1,87,43.44,14,14,0,0,1,82.54,42,16.76,16.76,0,0,0,82.2,49.84ZM83.51,44c.26.1.53.2.79.28a13.56,13.56,0,0,0-1,1.45A13.2,13.2,0,0,1,83.51,44Z"/><path class="cls-1" d="M67.3,41.31a10.66,10.66,0,0,1-1.49-.1,11.31,11.31,0,0,1-9.72-9.6,13.72,13.72,0,0,1-3.26-.91,14.51,14.51,0,0,0-3.53,5.54,9.21,9.21,0,0,0,2.36,2.29,6,6,0,0,1,2.57,3.91,7,7,0,0,1,.08.91,11.29,11.29,0,0,1,12.78,1.9,13.24,13.24,0,0,0,5.53-3.35c-.28-.51-.57-1-.87-1.52A11.15,11.15,0,0,1,67.3,41.31Zm-8-.56a12.47,12.47,0,0,0-1.62.1,12.84,12.84,0,0,0-2.29.51,7.46,7.46,0,0,0-3-4A8.66,8.66,0,0,1,50.9,36a13.22,13.22,0,0,1,2.32-3.62,16.58,16.58,0,0,0,1.65.45,12.87,12.87,0,0,0,2.31,4.92,12.69,12.69,0,0,0,3.36,3.06A11.91,11.91,0,0,0,59.34,40.75Zm8.06,2.88a12.7,12.7,0,0,0-1.35-1c.42,0,.83.06,1.25.06a12.71,12.71,0,0,0,2.38-.23A13.45,13.45,0,0,1,67.4,43.63Z"/></svg>