<svg id="圖層_1" data-name="圖層 1" xmlns="http://www.w3.org/2000/svg" viewBox="0 0 72.82 73.57"><defs><style>.cls-1{fill:#fff;}</style></defs><title>0</title><path class="cls-1" d="M72.42,69.58c-.47-.49-.92-1-1.36-1.48a2.49,2.49,0,0,0,.11-.29l.06-.24a1.41,1.41,0,0,0-.14-1.08,1.42,1.42,0,0,0-.86-.66l-1.35-.36c-.14-.17-.28-.35-.41-.53a40.6,40.6,0,0,1-3.23-5.13,1.42,1.42,0,0,0,.56-.72l.08-.24a1.42,1.42,0,0,0-.89-1.8l-1.26-.43c-.19-.43-.38-.86-.54-1.29-.33-.85-.63-1.74-.93-2.74L62.08,52a1.4,1.4,0,0,0,1-.65l.13-.21a1.48,1.48,0,0,0,.17-1.07,1.43,1.43,0,0,0-.64-.88l-1.5-.92c-.25-1.27-.43-2.43-.55-3.51a56.45,56.45,0,0,1-.1-11v-.13a1.45,1.45,0,0,0-.35-1.06,1.29,1.29,0,0,0-.21-.19l.87-6.71a1.58,1.58,0,0,0-.31-1.15,1.61,1.61,0,0,0-1-.58L58,23.73h-.42a1.66,1.66,0,0,0-1.08-.48l-1.56,0a1.51,1.51,0,0,0-1.12.48,1.43,1.43,0,0,0-.58-.12l-.19,0-1.49.16a1.51,1.51,0,0,0-1,.58,1.67,1.67,0,0,0-.33,1.12l.74,6.62-.14.12a1.42,1.42,0,0,0-.43,1v.13a67.32,67.32,0,0,0,1,11.17l-.7.83a2.11,2.11,0,0,0-.18.33c-.23-.26-.49-.51-.72-.76a1.48,1.48,0,0,0,.12-.29l.06-.24a1.4,1.4,0,0,0-.14-1.08,1.42,1.42,0,0,0-.86-.66l-1.35-.36-.42-.53A41.7,41.7,0,0,1,44,36.62a1.41,1.41,0,0,0,.55-.72l.08-.24a1.42,1.42,0,0,0-.88-1.8l-1.27-.43c-.18-.43-.37-.86-.54-1.29-.4-1.06-.77-2.18-1.1-3.35a1.36,1.36,0,0,0,.94-.65l.13-.21a1.44,1.44,0,0,0,.18-1.07,1.41,1.41,0,0,0-.64-.88l-1.5-.92c-.25-1.28-.43-2.43-.56-3.51a57.25,57.25,0,0,1-.1-11l0-.13a1.45,1.45,0,0,0-.35-1.06l-.21-.19.87-6.71a1.58,1.58,0,0,0-.31-1.15,1.61,1.61,0,0,0-1-.58l-1.5-.2h-.44A1.68,1.68,0,0,0,35.24.05L33.67,0a1.54,1.54,0,0,0-1.12.48A1.37,1.37,0,0,0,32,.36H31.8L30.29.54a1.51,1.51,0,0,0-1,.58,1.62,1.62,0,0,0-.33,1.12l.74,6.62L29.52,9a1.45,1.45,0,0,0-.44,1v.13a67.32,67.32,0,0,0,1,11.17l-.7.83a1.41,1.41,0,0,0-.09,1.67l-.66-.09h-.42a1.7,1.7,0,0,0-1.08-.48l-1.57,0a1.52,1.52,0,0,0-1.12.48,1.4,1.4,0,0,0-.58-.12l-.19,0-1.49.16a1.51,1.51,0,0,0-1.05.58,1.66,1.66,0,0,0-.32,1.12l.73,6.62-.14.12a1.46,1.46,0,0,0-.43,1v.13a67.32,67.32,0,0,0,1,11.17s-.71.86-.73.87l-.42-.47a1,1,0,0,0,.11-.29l.07-.24a1.44,1.44,0,0,0-.14-1.08,1.42,1.42,0,0,0-.87-.66l-1.35-.36c-.14-.17-.28-.35-.41-.53a39.43,39.43,0,0,1-3.22-5.13,1.46,1.46,0,0,0,.55-.72l.08-.24a1.42,1.42,0,0,0-.89-1.8l-1.26-.43q-.29-.65-.54-1.29c-.41-1.06-.78-2.18-1.11-3.35a1.4,1.4,0,0,0,.95-.65l.13-.21a1.39,1.39,0,0,0,.17-1.07A1.37,1.37,0,0,0,12.5,26L11,25.06c-.26-1.28-.44-2.43-.56-3.51a56.45,56.45,0,0,1-.1-11v-.13A1.41,1.41,0,0,0,10,9.37a1.8,1.8,0,0,0-.2-.19l.87-6.71a1.54,1.54,0,0,0-.32-1.15,1.61,1.61,0,0,0-1-.58L7.84.54H7.41A1.68,1.68,0,0,0,6.33.05L4.76,0A1.52,1.52,0,0,0,3.64.48,1.4,1.4,0,0,0,3.06.36H2.89L1.38.54a1.51,1.51,0,0,0-1,.58A1.66,1.66,0,0,0,0,2.24L.74,8.86.6,9a1.44,1.44,0,0,0-.43,1v.13a67.32,67.32,0,0,0,1,11.17l-.69.83a1.41,1.41,0,0,0,.17,2l.19.17a1.46,1.46,0,0,0,.92.33h.09a53.88,53.88,0,0,0,1.85,6L2.65,31.92a1.43,1.43,0,0,0,.17,2l.2.16a1.43,1.43,0,0,0,.91.33h.12a1.38,1.38,0,0,0,1-.5l0,0c.23.52.46,1,.69,1.47a46.67,46.67,0,0,0,2.69,4.72l-.75,1.8a1.47,1.47,0,0,0,0,1.09,1.4,1.4,0,0,0,.77.76l.23.1a1.49,1.49,0,0,0,.54.11,1.4,1.4,0,0,0,1.3-.86c.79,1,1.61,2,2.47,3S14.7,47.89,15.85,49l0,0a56,56,0,0,0,6.67,5.43l.1.06a1.43,1.43,0,0,0,.81.25,1.18,1.18,0,0,0,.37,0l-.34.41a1.43,1.43,0,0,0,.17,2l.2.16a1.43,1.43,0,0,0,.91.33h.12a1.4,1.4,0,0,0,1-.5l0,0c.23.52.46,1,.69,1.47a46.67,46.67,0,0,0,2.69,4.72l-.75,1.8a1.47,1.47,0,0,0,0,1.09,1.45,1.45,0,0,0,.77.77l.23.09a1.27,1.27,0,0,0,.54.11,1.41,1.41,0,0,0,1.3-.86c.79,1,1.61,2,2.47,3,.7.78,1.46,1.57,2.31,2.41a1.43,1.43,0,0,0,1,.4,1.39,1.39,0,0,0,.53-.1A6.46,6.46,0,0,1,40,71.5a6.39,6.39,0,0,1,1.45.17,1.87,1.87,0,0,0,.32,0,1.42,1.42,0,0,0,1-2.4c-.39-.41-.76-.81-1.12-1.21a1,1,0,0,0,.11-.29l.07-.24a1.45,1.45,0,0,0-.14-1.08,1.42,1.42,0,0,0-.87-.66l-1.35-.36c-.14-.17-.28-.35-.41-.53a41.77,41.77,0,0,1-3.23-5.13,1.42,1.42,0,0,0,.56-.72l.08-.24a1.42,1.42,0,0,0-.89-1.8l-1.26-.43q-.28-.65-.54-1.29c-.27-.69-.53-1.47-.81-2.37-.1-.32-.2-.65-.29-1a1.41,1.41,0,0,0,.94-.65l.13-.21A1.39,1.39,0,0,0,34,50.05a1.43,1.43,0,0,0-.64-.88l-1.49-.92c-.26-1.28-.44-2.43-.56-3.51a56.45,56.45,0,0,1-.1-11v-.13a1.41,1.41,0,0,0-.35-1.06,1.8,1.8,0,0,0-.2-.19l.72-5.63c.38,1.31.79,2.62,1.28,3.91l-1.07,1.27a1.41,1.41,0,0,0,.17,2l.19.16a1.45,1.45,0,0,0,.91.33H33a1.4,1.4,0,0,0,1-.5l0,0c.23.52.46,1,.69,1.47a46.78,46.78,0,0,0,2.7,4.72l-.75,1.8a1.39,1.39,0,0,0,.76,1.85l.23.1a1.49,1.49,0,0,0,.54.11,1.41,1.41,0,0,0,1.31-.86c.78,1,1.61,2,2.47,3a49.15,49.15,0,0,0,4.54,4.47l.08.08a56.4,56.4,0,0,0,4.78,3.71l.26.18a1.38,1.38,0,0,0,.8.25,1.41,1.41,0,0,0,1.13-.56l.37-.5,0,.14-1.07,1.28a1.42,1.42,0,0,0,.17,2l.19.16a1.45,1.45,0,0,0,.91.33h.13a1.4,1.4,0,0,0,1-.5l0,0c.24.52.46,1,.7,1.47a46.67,46.67,0,0,0,2.69,4.72l-.75,1.8a1.38,1.38,0,0,0,0,1.09,1.47,1.47,0,0,0,.76.77l.23.09a1.32,1.32,0,0,0,.55.11,1.41,1.41,0,0,0,1.3-.86c.78,1,1.61,2,2.47,3a51.17,51.17,0,0,0,4,4,1.44,1.44,0,0,0,1,.36,1.42,1.42,0,0,0,.45-.08,8.92,8.92,0,0,0,2.06-1,6.75,6.75,0,0,1,1.29-.62,1.42,1.42,0,0,0,.53-2.31ZM31,49.38h0l1.61,1-.13.21-1.8-1.1h0c.29,1.32.63,2.62,1,3.89q.38,1.24.84,2.46c.25.65.53,1.29.81,1.93l1.86.62-.08.24-1.65-.56A42.74,42.74,0,0,0,38,65.78c.23.32.49.63.74.94l1.8.48-.07.24L39,67.05c.88,1.11,1.83,2.19,2.83,3.24a7.82,7.82,0,0,0-4.68.36c-.77-.77-1.52-1.55-2.24-2.35A46.88,46.88,0,0,1,31,63.36l-1,2.33-.23-.09,1-2.5a45.68,45.68,0,0,1-3-5.2c-.57-1.14-1.08-2.32-1.56-3.52l-1.51,1.8L24.57,56l1.6-1.91c-.08-.22-.15-.44-.23-.65-.29-.77-.57-1.54-.83-2.34l-1.66,2.22-.1-.07A53.8,53.8,0,0,1,16.83,48h0c-1-.92-1.9-1.87-2.78-2.85a46.88,46.88,0,0,1-3.86-4.94l-1,2.33L9,42.41l1-2.5a45.68,45.68,0,0,1-3-5.2c-.57-1.14-1.08-2.32-1.55-3.52L3.93,33l-.19-.16,1.6-1.91a51.78,51.78,0,0,1-2.45-8.19c-.05-.22-.08-.46-.12-.69l-1,1.18-.2-.16,1.13-1.34A65.28,65.28,0,0,1,1.59,10.13V10l.71,0L1.42,2.09a.09.09,0,0,1,0-.09A.11.11,0,0,1,1.53,2L3,1.78a.13.13,0,0,1,.14.11l.91,8.22h.29l.25-8.58a.13.13,0,0,1,.13-.12h0l1.53,0a.12.12,0,0,1,.08,0,.12.12,0,0,1,0,.09l-.25,8.6.3,0,1-8.16A.12.12,0,0,1,7.65,2l1.51.19a.2.2,0,0,1,.09,0,.13.13,0,0,1,0,.09l-1,8,.71,0v.13A57.75,57.75,0,0,0,9,21.71c.16,1.44.41,2.85.7,4.23l2,1.25-.13.21L9.81,26.28a43,43,0,0,0,1.87,6.37c.25.65.53,1.29.82,1.92l1.85.63-.08.24-1.64-.56a42.11,42.11,0,0,0,4.51,7.71c.23.32.49.63.74.94l1.8.48-.06.24-1.49-.39c.95,1.18,2,2.34,3,3.46h0A47.93,47.93,0,0,0,25.06,51c-.25-.81-.5-1.63-.72-2.45v0c-.23-.84-.44-1.7-.62-2.57,0-.22-.08-.46-.13-.69l-1,1.18-.19-.16,1.13-1.34a65.38,65.38,0,0,1-1.12-11.59v-.13l.71,0-.88-7.94a.1.1,0,0,1,0-.09.11.11,0,0,1,.09-.05L23.87,25a.13.13,0,0,1,.14.11l.91,8.22h.29l.25-8.58a.13.13,0,0,1,.13-.12h0l1.53,0a.12.12,0,0,1,.08,0,.12.12,0,0,1,0,.09L27,33.38l.29,0,1.06-8.16a.12.12,0,0,1,.14-.1l1.51.19a.14.14,0,0,1,.08.05.16.16,0,0,1,0,.09l-1,8,.72,0v.13a57.75,57.75,0,0,0,.1,11.27c.16,1.44.41,2.85.7,4.23Zm21.56,3.73-.17.23-.1-.07-.21-.16a52.65,52.65,0,0,1-4.6-3.57h0A50.7,50.7,0,0,1,43,45.11a48.14,48.14,0,0,1-3.85-4.94l-1,2.33-.23-.09,1-2.5a47.22,47.22,0,0,1-3-5.2c-.56-1.14-1.07-2.32-1.55-3.52L32.84,33l-.19-.16,1.61-1.91a50.78,50.78,0,0,1-2.46-8.19L31.68,22l-1,1.18-.19-.16,1.12-1.34A66.23,66.23,0,0,1,30.5,10.13V10l.71,0-.88-7.94a.12.12,0,0,1,0-.09A.1.1,0,0,1,30.44,2L32,1.78a.12.12,0,0,1,.13.11L33,10.11h.3l.25-8.58a.12.12,0,0,1,.12-.12h0l1.52,0a.15.15,0,0,1,.09,0,.16.16,0,0,1,0,.09l-.25,8.6.3,0,1.05-8.16a.12.12,0,0,1,.14-.1l1.52.19a.14.14,0,0,1,.08,0,.1.1,0,0,1,0,.09l-1,8,.71,0v.13A57.72,57.72,0,0,0,38,21.71c.16,1.44.4,2.85.69,4.23l2,1.25-.13.21-1.83-1.12a44.19,44.19,0,0,0,1.87,6.37c.25.65.54,1.29.82,1.92l1.85.63-.08.24-1.64-.56a42.69,42.69,0,0,0,4.51,7.71c.24.32.5.63.74.94l1.8.48-.06.24-1.48-.39A49.83,49.83,0,0,0,50.78,48h0c.59.59,1.19,1.16,1.81,1.72.22.78.47,1.56.72,2.33Zm17.3,18.21h0a7.88,7.88,0,0,1-1.74.82,48.37,48.37,0,0,1-3.86-3.85,46.88,46.88,0,0,1-3.86-4.94l-1,2.33-.23-.09,1-2.5a45.6,45.6,0,0,1-3-5.2c-.57-1.14-1.08-2.32-1.56-3.52l-1.52,1.8L53.92,56l1.61-1.91c-.13-.34-.26-.69-.38-1s-.17-.5-.25-.74c-.39-1.1-.74-2.23-1-3.37-.15-.55-.32-1.09-.45-1.65h0c-.11-.46-.23-.92-.32-1.38,0-.22-.08-.46-.13-.69l-1,1.18-.19-.16,1.12-1.34a65.31,65.31,0,0,1-1.11-11.59v-.13l.71,0-.88-7.94a.14.14,0,0,1,0-.09.1.1,0,0,1,.08-.05L53.23,25a.13.13,0,0,1,.14.11l.91,8.22h.29l.25-8.58a.12.12,0,0,1,.13-.12h0l1.52,0a.13.13,0,0,1,.09,0s0,.06,0,.09l-.25,8.6.3,0,1.06-8.16a.12.12,0,0,1,.14-.1l1.51.19a.14.14,0,0,1,.08.05.16.16,0,0,1,0,.09l-1,8,.72,0,0,.13a58.51,58.51,0,0,0,.11,11.27c.16,1.44.41,2.85.7,4.23l.44.28,0,0,1.54,1-.13.21L60,49.47c.25,1.2.56,2.37.9,3.53.29,1,.61,1.91,1,2.84.25.65.54,1.29.82,1.92l1.85.63-.08.24-1.64-.56a42.69,42.69,0,0,0,4.51,7.71c.24.32.5.63.74.94l1.81.48-.07.24-1.48-.39c1,1.2,2,2.38,3.08,3.51A8.11,8.11,0,0,0,69.83,71.32Z"/></svg>