<svg id="圖層_1" data-name="圖層 1" xmlns="http://www.w3.org/2000/svg" viewBox="0 0 69.19 72.54"><defs><style>.cls-1{fill:#fff;}</style></defs><title>nuipan</title><path class="cls-1" d="M68.8,67.62c0-.14,0-.28.07-.43l-.55-.14C68.47,67.24,68.64,67.43,68.8,67.62Z"/><path class="cls-1" d="M68.88,65.47c-.14-.17-.28-.35-.41-.53a40.6,40.6,0,0,1-3.23-5.13,1.42,1.42,0,0,0,.56-.72l.08-.24a1.42,1.42,0,0,0-.89-1.8l-1.26-.43c-.19-.42-.38-.86-.54-1.29-.41-1.06-.78-2.18-1.11-3.35a1.4,1.4,0,0,0,1-.65l.13-.21a1.48,1.48,0,0,0,.17-1.07,1.43,1.43,0,0,0-.64-.88l-1.5-.92c-.25-1.27-.43-2.43-.55-3.5a56.56,56.56,0,0,1-.1-11v-.13a1.45,1.45,0,0,0-.35-1.06,1.29,1.29,0,0,0-.21-.19l.87-6.71a1.56,1.56,0,0,0-.31-1.15,1.7,1.7,0,0,0-1-.58l-1.46-.19-.25,0H57.6a1.65,1.65,0,0,0-1.09-.49l-1.56,0a1.51,1.51,0,0,0-1.12.48,1.4,1.4,0,0,0-.58-.12l-.19,0-1.51.16a1.59,1.59,0,0,0-1,.59,1.66,1.66,0,0,0-.32,1.12l.74,6.62-.14.11a1.4,1.4,0,0,0-.43,1v.13a67.32,67.32,0,0,0,1,11.17l-.7.83a2.11,2.11,0,0,0-.18.33c-.23-.25-.49-.49-.72-.75a1.88,1.88,0,0,0,.12-.3l.06-.25a1.38,1.38,0,0,0-.14-1.07,1.42,1.42,0,0,0-.86-.66l-1.35-.36-.42-.53A41.7,41.7,0,0,1,44,36.62a1.41,1.41,0,0,0,.55-.72l.08-.24a1.42,1.42,0,0,0-.88-1.8l-1.27-.43c-.18-.43-.37-.85-.54-1.29-.4-1.06-.77-2.18-1.1-3.35a1.36,1.36,0,0,0,.94-.65l.13-.21a1.44,1.44,0,0,0,.18-1.07,1.41,1.41,0,0,0-.64-.88l-1.5-.92c-.25-1.28-.43-2.43-.56-3.51a57.25,57.25,0,0,1-.1-11l0-.13a1.45,1.45,0,0,0-.35-1.06l-.21-.19.87-6.71a1.61,1.61,0,0,0-.31-1.15,1.7,1.7,0,0,0-1-.58L36.75.54h-.42A1.67,1.67,0,0,0,35.24.05L33.66,0a1.5,1.5,0,0,0-1.1.48A1.43,1.43,0,0,0,32,.36l-.18,0L30.27.54a1.59,1.59,0,0,0-1,.59,1.66,1.66,0,0,0-.32,1.12l.74,6.62L29.52,9a1.45,1.45,0,0,0-.44,1v.13a67.32,67.32,0,0,0,1,11.17l-.7.83a1.4,1.4,0,0,0-.32,1,1.41,1.41,0,0,0,.23.63l-.6-.08-.26,0h-.21a1.67,1.67,0,0,0-1.09-.49l-1.57,0a1.52,1.52,0,0,0-1.12.48,1.39,1.39,0,0,0-.57-.12l-.2,0-1.51.16a1.59,1.59,0,0,0-1,.59,1.71,1.71,0,0,0-.31,1.12l.73,6.62-.14.11a1.44,1.44,0,0,0-.43,1v.13a67.22,67.22,0,0,0,1,11.17l-.69.83,0,0-.44-.46a1.21,1.21,0,0,0,.11-.3l.07-.25a1.41,1.41,0,0,0-1-1.73l-1.35-.36c-.14-.17-.28-.35-.41-.53a40.53,40.53,0,0,1-3.22-5.13,1.46,1.46,0,0,0,.55-.72l.08-.24a1.43,1.43,0,0,0-.89-1.8l-1.26-.43q-.29-.65-.54-1.29c-.41-1.06-.78-2.18-1.11-3.35a1.4,1.4,0,0,0,.95-.65l.13-.21a1.39,1.39,0,0,0,.17-1.07A1.41,1.41,0,0,0,12.5,26L11,25.06c-.26-1.28-.44-2.43-.56-3.51a56.45,56.45,0,0,1-.1-11v-.13A1.41,1.41,0,0,0,10,9.37a1.8,1.8,0,0,0-.2-.19l.86-6.71a1.52,1.52,0,0,0-.31-1.15,1.7,1.7,0,0,0-1-.58L7.83.54H7.42A1.67,1.67,0,0,0,6.33.05L4.75,0A1.5,1.5,0,0,0,3.64.48,1.4,1.4,0,0,0,3.06.36l-.17,0L1.36.54a1.59,1.59,0,0,0-1,.59A1.71,1.71,0,0,0,0,2.25L.74,8.87.6,9a1.44,1.44,0,0,0-.43,1v.13a67.32,67.32,0,0,0,1,11.17l-.69.83a1.42,1.42,0,0,0,.17,2l.2.16a1.39,1.39,0,0,0,.9.33h.1a53.24,53.24,0,0,0,1.85,6L2.65,31.92a1.43,1.43,0,0,0,.18,2l.19.16a1.42,1.42,0,0,0,.91.33A1.39,1.39,0,0,0,5,33.9l0,0c.23.51.46,1,.69,1.46a48.68,48.68,0,0,0,2.69,4.72l-.75,1.8a1.47,1.47,0,0,0,0,1.09,1.42,1.42,0,0,0,.77.77l.23.09a1.31,1.31,0,0,0,.54.11,1.4,1.4,0,0,0,1.3-.86c.79,1,1.61,2,2.47,3s1.66,1.77,2.54,2.62h0a3.24,3.24,0,0,0,.32-.17h0a6.82,6.82,0,0,1,1-.54h0c-1-.92-1.9-1.87-2.78-2.85a46.88,46.88,0,0,1-3.86-4.94l-1,2.33L9,42.41l1-2.5a45.68,45.68,0,0,1-3-5.2c-.57-1.14-1.08-2.32-1.56-3.52L3.93,33l-.19-.16,1.6-1.91a51.78,51.78,0,0,1-2.45-8.19c-.05-.22-.08-.46-.12-.69l-1,1.18-.19-.16,1.13-1.34A65.28,65.28,0,0,1,1.59,10.13V10h.13l.58,0L1.42,2.09a.1.1,0,0,1,0-.09A.13.13,0,0,1,1.53,2L3,1.78a.12.12,0,0,1,.14.11l.91,8.22h.29l.25-8.58a.12.12,0,0,1,.13-.12l1.53,0a.12.12,0,0,1,.08,0,.12.12,0,0,1,0,.09l-.25,8.6.3,0,1-8.15A.12.12,0,0,1,7.65,2l1.51.19a.2.2,0,0,1,.09,0,.15.15,0,0,1,0,.09l-1,8,.71,0v.13A57.75,57.75,0,0,0,9,21.71c.16,1.44.41,2.85.7,4.23l2,1.25-.13.21L9.81,26.28a43,43,0,0,0,1.87,6.37c.25.65.53,1.29.82,1.93l1.85.63-.08.23-1.64-.56a42.11,42.11,0,0,0,4.51,7.71c.23.32.49.63.74.94l1.8.48-.07.24-1.48-.39q1.43,1.78,3,3.46h0l.41.08.1.09a1.44,1.44,0,0,0,.91.33h.1a53.24,53.24,0,0,0,1.85,6l-1.07,1.27a1.41,1.41,0,0,0,.18,2l.19.16a1.42,1.42,0,0,0,.91.33,1.39,1.39,0,0,0,1.08-.51l0,0c.23.51.46,1,.69,1.46a46.67,46.67,0,0,0,2.69,4.72l-.75,1.8a1.47,1.47,0,0,0,0,1.09,1.42,1.42,0,0,0,.77.77l.23.09a1.27,1.27,0,0,0,.54.11,1.41,1.41,0,0,0,1.3-.86c.79,1,1.61,2,2.47,3,.63.7,1.29,1.39,2,2.07h0a6.91,6.91,0,0,1,1.33-.67h0c-.77-.76-1.52-1.54-2.24-2.35A46.88,46.88,0,0,1,31,63.36l-1,2.33-.23-.09,1-2.5a45.68,45.68,0,0,1-3-5.2c-.57-1.14-1.08-2.32-1.56-3.52l-1.51,1.8L24.57,56l1.6-1.91a51.63,51.63,0,0,1-1.83-5.6h0c.09.06.19.1.28.15l0,0-.3-.28c-.21-.81-.41-1.62-.58-2.44,0-.22-.08-.46-.13-.69l-1,1.18-.19-.16,1.13-1.34a65.28,65.28,0,0,1-1.12-11.59v-.13h.13l.58,0-.88-7.94a.1.1,0,0,1,0-.09.13.13,0,0,1,.09-.05L23.87,25a.12.12,0,0,1,.14.11l.91,8.22h.29l.25-8.58a.13.13,0,0,1,.13-.12h0l1.53,0a.12.12,0,0,1,.08,0,.12.12,0,0,1,0,.09L27,33.38l.29,0,1.06-8.15a.12.12,0,0,1,.14-.11l1.51.19a.14.14,0,0,1,.08.05.16.16,0,0,1,0,.09l-1,8,.72,0v.13a57.75,57.75,0,0,0,.1,11.27c.16,1.44.41,2.85.7,4.24l2,1.24-.13.21-1.82-1.12a41.79,41.79,0,0,0,1.87,6.37c.25.65.53,1.29.81,1.93l1.86.63-.08.23-1.65-.56A42.74,42.74,0,0,0,38,65.78c.23.32.49.63.74.94l1.8.48-.07.24L39,67.05c.88,1.11,1.83,2.19,2.83,3.24h0a7.75,7.75,0,0,1,2.47,1h0a8.22,8.22,0,0,0,1.36.68l0,0a48,48,0,0,1-3.92-3.89,1.21,1.21,0,0,0,.11-.3l.07-.25a1.43,1.43,0,0,0-.15-1.07,1.37,1.37,0,0,0-.86-.66l-1.35-.36c-.14-.17-.28-.35-.41-.53a40.6,40.6,0,0,1-3.23-5.13,1.42,1.42,0,0,0,.56-.72l.08-.24a1.42,1.42,0,0,0-.89-1.8l-1.26-.43c-.19-.42-.37-.86-.54-1.29-.41-1.06-.78-2.18-1.11-3.35a1.4,1.4,0,0,0,1-.65l.13-.21A1.39,1.39,0,0,0,34,50.05a1.43,1.43,0,0,0-.64-.88l-1.49-.92c-.26-1.28-.44-2.43-.56-3.51a56.45,56.45,0,0,1-.1-11v-.13a1.41,1.41,0,0,0-.35-1.06,1.8,1.8,0,0,0-.2-.19l.72-5.63c.38,1.31.79,2.62,1.28,3.91l-1.07,1.27a1.42,1.42,0,0,0,.17,2l.19.16a1.44,1.44,0,0,0,.91.33,1.4,1.4,0,0,0,1.09-.51l0,0c.23.51.46,1,.69,1.46a48.68,48.68,0,0,0,2.69,4.72l-.75,1.8a1.47,1.47,0,0,0,0,1.09,1.45,1.45,0,0,0,.77.77l.23.09a1.31,1.31,0,0,0,.54.11,1.42,1.42,0,0,0,1.31-.86c.78,1,1.61,2,2.47,3a51.5,51.5,0,0,0,3.69,3.7h0a7.75,7.75,0,0,0,1.85-.23h0A50.7,50.7,0,0,1,43,45.11a48.14,48.14,0,0,1-3.85-4.94l-1,2.33-.23-.09,1-2.5a47.22,47.22,0,0,1-3-5.2c-.56-1.14-1.07-2.32-1.55-3.52L32.84,33l-.19-.16,1.61-1.91a50.78,50.78,0,0,1-2.46-8.19L31.68,22l-1,1.18-.19-.16,1.12-1.34A65.28,65.28,0,0,1,30.5,10.13V10h.13l.58,0-.88-7.94a.14.14,0,0,1,0-.09A.14.14,0,0,1,30.44,2L32,1.78a.12.12,0,0,1,.13.11L33,10.11h.3l.25-8.58a.12.12,0,0,1,.13-.12l1.52,0a.15.15,0,0,1,.09,0,.16.16,0,0,1,0,.09l-.25,8.6.3,0,1.05-8.15c0-.07.08-.13.14-.11l1.52.19a.14.14,0,0,1,.08,0,.1.1,0,0,1,0,.09l-1,8,.71,0v.13A57.72,57.72,0,0,0,38,21.71c.16,1.44.4,2.85.69,4.23l2,1.25-.13.21-1.83-1.12a44.19,44.19,0,0,0,1.87,6.37c.25.65.54,1.29.82,1.93l1.85.63-.08.23-1.64-.56a42.69,42.69,0,0,0,4.51,7.71c.24.32.5.63.74.94l1.8.48-.06.24-1.48-.39A48.29,48.29,0,0,0,50.78,48h0a6.76,6.76,0,0,1,.69-.29,1.41,1.41,0,0,0,.49.09h.09a55.44,55.44,0,0,0,1.86,6l-1.07,1.27a1.45,1.45,0,0,0-.33,1,1.4,1.4,0,0,0,.5,1l.19.16a1.44,1.44,0,0,0,.91.33,1.4,1.4,0,0,0,1.09-.51l0,0c.23.51.46,1,.7,1.46a44.83,44.83,0,0,0,2.69,4.72l-.75,1.8a1.38,1.38,0,0,0,0,1.09,1.43,1.43,0,0,0,.76.77l.23.09a1.32,1.32,0,0,0,.55.11,1.41,1.41,0,0,0,1.3-.86c.78,1,1.61,2,2.47,3,1,1.13,2.11,2.22,3.24,3.28h0a7.93,7.93,0,0,0,1.67-.38l.11,0h0l-.11,0a48.37,48.37,0,0,1-3.86-3.85,46.88,46.88,0,0,1-3.86-4.94l-1,2.33-.23-.09,1-2.5a45.6,45.6,0,0,1-3-5.2c-.57-1.14-1.08-2.32-1.56-3.52l-1.52,1.8L53.92,56l1.61-1.91a50.76,50.76,0,0,1-2.45-8.19c0-.22-.08-.46-.13-.69l-1,1.18-.19-.16,1.12-1.34a65.31,65.31,0,0,1-1.11-11.59v-.13h.14l.57,0-.88-7.94a.14.14,0,0,1,0-.09.14.14,0,0,1,.08-.05L53.23,25a.13.13,0,0,1,.14.11l.91,8.22h.29l.25-8.58a.12.12,0,0,1,.13-.12h0l1.52,0a.13.13,0,0,1,.09,0s0,.06,0,.09l-.25,8.6.3,0,1.06-8.15a.12.12,0,0,1,.14-.11l1.51.19a.14.14,0,0,1,.08.05.16.16,0,0,1,0,.09l-1,8,.72,0,0,.13a58.51,58.51,0,0,0,.11,11.27c.16,1.44.41,2.85.7,4.24l2,1.24-.13.21L60,49.47a42.93,42.93,0,0,0,1.86,6.37c.25.65.54,1.29.82,1.93l1.85.63-.08.23-1.64-.56a42.69,42.69,0,0,0,4.51,7.71c.24.32.5.63.74.94l.85.23c.09-.47.19-.93.28-1.39Z"/></svg>