<svg id="圖層_1" data-name="圖層 1" xmlns="http://www.w3.org/2000/svg" viewBox="0 0 81.34 77.02"><defs><style>.cls-1{opacity:0.8;}.cls-2{fill:#fff;}</style></defs><title>0</title><g class="cls-1"><path class="cls-2" d="M18.31,56.65a4.61,4.61,0,0,0-1.47-4c-.1,2.34-.23,4.64-.42,6.84a10.85,10.85,0,0,1,1.1-2.21A1.55,1.55,0,0,1,18.31,56.65Z"/><path class="cls-2" d="M21,73.37a13.67,13.67,0,0,1-4.43-11.18,2.4,2.4,0,0,1-.37,0c0,.14,0,.28,0,.42A87.79,87.79,0,0,1,14,74.93a12.73,12.73,0,0,1,1.64-.76q.5-2.09.92-4.41A14.5,14.5,0,0,0,19,73.4,12.77,12.77,0,0,1,21,73.37Z"/><path class="cls-2" d="M13.76,62.78c.39-3.42.65-7.09.79-10.87-.8,2-3.09,5.16-9.71,5.63H4.68l0-.17c0-.09,2.24-8.94,9.89-7.38a175.73,175.73,0,0,0-.48-18.81c-.23-2.86-.3-5.48-.27-7.91l-.37,0A4.58,4.58,0,0,0,9,25.87a1.77,1.77,0,0,1,.63.61,11.13,11.13,0,0,1,1.57,5.68v.14l-.14,0a2.94,2.94,0,0,1-.48-.11A25.15,25.15,0,0,1,3.72,50a1.28,1.28,0,0,1-1,.43,1.37,1.37,0,0,1-.69-.19,1.32,1.32,0,0,1-.59-1.58A74.23,74.23,0,0,0,4.67,30.87a4.13,4.13,0,0,1-1,0l-.16,0,.07-.15A12,12,0,0,1,6.93,26a1.84,1.84,0,0,1,1-.38,5.66,5.66,0,0,1,5.55-3.35l.35,0C14.21,11,17.09,4.55,18.54,2a1.18,1.18,0,0,1,.79-.57,1.16,1.16,0,0,1,.94.22,1.17,1.17,0,0,1,.31,1.49c-1.68,3-5.45,11.76-4.13,27.86a180.27,180.27,0,0,1,.43,20.43,5.66,5.66,0,0,1,2.42,5.19,1.57,1.57,0,0,1,.91.75A18.61,18.61,0,0,1,22,62.16l0,.16h-.16a3.35,3.35,0,0,1-1.05-.25A30.28,30.28,0,0,0,24,73a1.08,1.08,0,0,1,0,1,12.71,12.71,0,0,1,1.33.51,2.54,2.54,0,0,0-.12-2.12,28.1,28.1,0,0,1-2.78-8.67,1.42,1.42,0,0,0,1-1.67l0-.16a20,20,0,0,0-1.93-5.15,3,3,0,0,0-.72-.87,7.08,7.08,0,0,0-2.41-5,180.41,180.41,0,0,0-.46-19.88c-1.29-15.71,2.34-24.15,4-27.05A2.59,2.59,0,0,0,19.56,0,2.6,2.6,0,0,0,17.3,1.31c-1.6,2.81-4.28,9-4.79,19.56A7,7,0,0,0,7,24.37a3.25,3.25,0,0,0-1,.52,13.37,13.37,0,0,0-3.83,5.23l-.07.15a1.42,1.42,0,0,0,1,2,70.68,70.68,0,0,1-3,16,2.75,2.75,0,0,0,1.21,3.25,2.78,2.78,0,0,0,1.42.39,2.7,2.7,0,0,0,2-.87,26.48,26.48,0,0,0,7.19-17.48l.11-.08a1.42,1.42,0,0,0,.52-1v-.16a12.5,12.5,0,0,0-1.78-6.46l0-.05a3,3,0,0,1,1.66-1c0,2.17.1,4.34.28,6.58.44,5.42.62,11.3.51,17.1h-.37c-7.39,0-9.5,8.57-9.52,8.65l0,.17A1.42,1.42,0,0,0,4.68,59L5,59a14.44,14.44,0,0,0,8-2.65c-.14,2.2-.33,4.31-.56,6.31A73.52,73.52,0,0,1,9.47,77a12.72,12.72,0,0,0,1.67-.56A78.31,78.31,0,0,0,13.76,62.78Z"/><path class="cls-2" d="M37,47.78l0,.18-.18,0C33.43,47.2,31.75,45.3,31,43.5A167.58,167.58,0,0,1,31.08,63c-.1,1.74-.24,3.39-.41,5a7,7,0,0,1,4.47-2.91,16.53,16.53,0,0,1,4.17-.45,85.64,85.64,0,0,0,1.41-14.74,4.29,4.29,0,0,1-1.13.06l-.16,0,.06-.15a12.81,12.81,0,0,1,3.39-5.19A2,2,0,0,1,44,44.11a8,8,0,0,1,1.45-2.18,1.32,1.32,0,0,1-.24,0,15.84,15.84,0,0,1-11.14-11.1,2.64,2.64,0,0,1-.75.36l-.13,0,0-.13a15.36,15.36,0,0,1,0-6,1.77,1.77,0,0,1,.54-.89A4.62,4.62,0,0,0,29.21,21h0a74.93,74.93,0,0,0,.68,10.4c.36,2.74.66,5.61.89,8.51C35.61,40.26,37,47.7,37,47.78ZM32.11,24a3.08,3.08,0,0,0-.28.73,16.75,16.75,0,0,0,0,6.64l0,.13a1.42,1.42,0,0,0,1.38,1.11h0A17,17,0,0,0,43.14,42.7l-.1.18a3.36,3.36,0,0,0-1.08.63,14.22,14.22,0,0,0-3.78,5.75l-.06.15a1.42,1.42,0,0,0,1.16,1.92h0a85.1,85.1,0,0,1-1.15,11.89,17,17,0,0,0-3.33.48,11.14,11.14,0,0,0-2.4.89c0-.5.07-1,.1-1.49.28-4.72.32-10,.11-15.43a10.7,10.7,0,0,0,4,1.65l.18,0a1.4,1.4,0,0,0,.29,0,1.42,1.42,0,0,0,1.39-1.67l0-.18c-.06-.33-1.41-7.45-6.39-8.82-.22-2.64-.5-5.15-.8-7.49a75.81,75.81,0,0,1-.66-8.56A3,3,0,0,1,32.11,24Z"/><path class="cls-2" d="M49.6,73.45a12.76,12.76,0,0,1,1.27.24c-.08-.76-.16-1.52-.23-2.31A11.19,11.19,0,0,1,49.6,73.45Z"/><path class="cls-2" d="M49.84,66.11a1.93,1.93,0,0,1,.47-.11,179,179,0,0,1,.88-25.16H51a6.05,6.05,0,0,0-5.75,3.59,1.89,1.89,0,0,1,.52.51,11.89,11.89,0,0,1,2,6v.14h-.14a3.13,3.13,0,0,1-.53-.1,26.9,26.9,0,0,1-6.34,19.43,1.36,1.36,0,0,1-1.06.51,1.46,1.46,0,0,1-.68-.17,1.41,1.41,0,0,1-.71-1.65c.2-.72.38-1.44.55-2.16-1.95,3.39-4.31,4.13-6,4.13a5.82,5.82,0,0,1-1.46-.19,5.2,5.2,0,0,1-1-.38q-.44,3.29-1.08,6.07a12.71,12.71,0,0,0,1.34.45c.34-1.46.64-3,.9-4.66a7.18,7.18,0,0,0,5.69-1.38,2.87,2.87,0,0,0,2.44,1.35,2.77,2.77,0,0,0,2.14-1,28.23,28.23,0,0,0,6.72-19.06l.15-.12a1.44,1.44,0,0,0,.27-.34c-.2,4.51-.24,9-.1,13.21-1.49.67-5.2,3-5.2,9.09a12.73,12.73,0,0,1,1.43-.41C45.29,67.82,49.3,66.28,49.84,66.11ZM47,44.22a4.37,4.37,0,0,1,2.64-1.81c-.23,2.43-.42,4.91-.55,7.38A13.48,13.48,0,0,0,47,44.22Z"/><path class="cls-2" d="M27.07,75.39l.11.07a83.83,83.83,0,0,0,1.56-12.19,170.34,170.34,0,0,0-1.21-31.56C25.31,14.88,28.85,5.56,30.47,2.33a1.17,1.17,0,0,1,2.1,1C31.46,5.63,29.39,11,29.18,20h0a5.68,5.68,0,0,1,5.42,3.73,1.79,1.79,0,0,1,1.54.4A21.58,21.58,0,0,1,40,28.63l.09.14-.15.05a3.87,3.87,0,0,1-1.27.14,35.15,35.15,0,0,0,7.78,10.71,1.24,1.24,0,0,1,.4,1.09A7.48,7.48,0,0,1,51,39.61l.37,0c.11-.94.21-1.87.33-2.79,2.12-16-1.2-24.94-2.73-28a1.18,1.18,0,0,1,.39-1.48,1.16,1.16,0,0,1,1-.17,1.18,1.18,0,0,1,.76.61C52.66,11,56.2,20.32,54,37.15c-.43,3.25-.76,6.6-1,10,5-.35,7.69,7.3,7.71,7.38l.06.19-.2,0c-5.46-.7-7.18-3.65-7.73-5.5a161.46,161.46,0,0,0-.06,19.55q.19,3.09.52,5.84a12.76,12.76,0,0,1,1.53.85h0q-.42-3.15-.65-6.78c-.29-4.66-.34-9.81-.15-15.1a11.76,11.76,0,0,0,6.34,2.55l.2,0h.18a1.42,1.42,0,0,0,1.34-1.87L62,54c-.11-.32-2.5-7.27-7.53-8.24.24-3,.54-5.83.88-8.47C57.66,20.11,54,10.48,52.3,7.14a2.59,2.59,0,0,0-1.67-1.35,2.58,2.58,0,0,0-2.12.38,2.6,2.6,0,0,0-.85,3.27c1.47,3,4.67,11.59,2.6,27.22-.07.52-.13,1-.19,1.58a8.94,8.94,0,0,0-2.47.57l-.18-.18A32.93,32.93,0,0,1,40.79,30a1.42,1.42,0,0,0,.5-2l-.09-.14a23,23,0,0,0-4.1-4.79,3.18,3.18,0,0,0-1.57-.75,7.06,7.06,0,0,0-4.9-3.61C31,10.56,33,5.74,33.85,4a2.59,2.59,0,0,0-4.64-2.3c-1.68,3.34-5.36,13-3.08,30.2a168.83,168.83,0,0,1,1.2,31.29,83.78,83.78,0,0,1-1.45,11.54,12.74,12.74,0,0,1,1.19.67Z"/><path class="cls-2" d="M74.59,64.06c-.33-1.61-.64-3.31-.92-5-.58,5.23-6.05,7.44-6.11,7.47l-.14.06,0-.15c-1.17-7.4,4.29-9.93,5.82-10.21h0A183.77,183.77,0,0,1,71.4,36.71a6,6,0,0,0-3.78,4.35,1.56,1.56,0,0,1,.45.36,9.68,9.68,0,0,1,2.08,4.68v.14H70a2.59,2.59,0,0,1-.41,0A21.85,21.85,0,0,1,66,62.38a1.13,1.13,0,0,1-.95.51,1.2,1.2,0,0,1-.46-.09,1.16,1.16,0,0,1-.72-1.3,64.36,64.36,0,0,0,.47-15.65,3.51,3.51,0,0,1-.87.13h-.18l0-.16a10.42,10.42,0,0,1,2.33-4.47h0a1.62,1.62,0,0,1,.69-.42,7.39,7.39,0,0,1,5-5.51c0-.95-.06-1.9-.07-2.82a64.91,64.91,0,0,0-2.57-18.23,5.3,5.3,0,0,0-5,3.13,1.67,1.67,0,0,1,.45.45,10.47,10.47,0,0,1,1.75,5.26v.14h-.14a2.78,2.78,0,0,1-.45-.08,23.65,23.65,0,0,1-5.58,17.05,1.22,1.22,0,0,1-.94.45,1.29,1.29,0,0,1-.6-.15,1.25,1.25,0,0,1-.63-1.47,69.72,69.72,0,0,0,2.15-16.83,3.82,3.82,0,0,1-1,0l-.16,0,.06-.15a11.28,11.28,0,0,1,3-4.56,1.74,1.74,0,0,1,1-.41,6.54,6.54,0,0,1,5.73-3.93,32.39,32.39,0,0,0-3.8-8,1.17,1.17,0,0,1,.17-1.52,1.16,1.16,0,0,1,.92-.31,1.18,1.18,0,0,1,.84.5c2.07,3,6.91,11.68,7.11,28.65A170.49,170.49,0,0,0,76.94,64a90.3,90.3,0,0,0,2.64,10,12.72,12.72,0,0,1,1.76.72,84.51,84.51,0,0,1-3-11A169,169,0,0,1,75,32.55c-.21-17.37-5.22-26.38-7.37-29.45A2.59,2.59,0,0,0,65.84,2l-.29,0a2.57,2.57,0,0,0-1.76.69,2.6,2.6,0,0,0-.37,3.36,28.94,28.94,0,0,1,3.06,6.11A7.92,7.92,0,0,0,61.68,16a3.15,3.15,0,0,0-.94.56,12.69,12.69,0,0,0-3.38,5.12l-.06.15a1.42,1.42,0,0,0,1,1.9,66.18,66.18,0,0,1-2.07,15,2.67,2.67,0,0,0,1.33,3.1,2.71,2.71,0,0,0,1.27.32,2.63,2.63,0,0,0,2-1,25,25,0,0,0,6-16.76l.08-.06a1.42,1.42,0,0,0,.46-1v-.14a11.8,11.8,0,0,0-1.87-5.88A3.67,3.67,0,0,1,67.7,15.9a65.39,65.39,0,0,1,2.18,16.72c0,.61,0,1.23,0,1.85a8.72,8.72,0,0,0-4.73,5.48,3,3,0,0,0-.51.43A11.82,11.82,0,0,0,62,45.44l0,.16a1.42,1.42,0,0,0,1.11,1.78,61,61,0,0,1-.56,13.88,2.58,2.58,0,0,0,1.57,2.86,2.65,2.65,0,0,0,1,.2,2.57,2.57,0,0,0,.73-.1A14,14,0,0,0,66,66.6l0,.15a1.42,1.42,0,0,0,1.92,1.11l.15-.06A13.07,13.07,0,0,0,73.12,64l.08.39q1,4.93,2.27,9a12.76,12.76,0,0,1,1.5.07A96.12,96.12,0,0,1,74.59,64.06ZM71.24,52.14q.19,1.53.4,3a8.63,8.63,0,0,0-1,.5A22.88,22.88,0,0,0,71.24,52.14Zm-2-11.52a4.55,4.55,0,0,1,.85-1.38q.08,1.45.18,2.92A10.59,10.59,0,0,0,69.25,40.62Z"/></g></svg>