<svg id="圖層_1" data-name="圖層 1" xmlns="http://www.w3.org/2000/svg" viewBox="0 0 81.34 77.02"><defs><style>.cls-1{opacity:0.8;}.cls-2{fill:#fff;}</style></defs><title>0</title><g class="cls-1"><path class="cls-2" d="M18.31,56.65a4.65,4.65,0,0,0-1.47-4c-.1,2.34-.24,4.64-.43,6.84a11.1,11.1,0,0,1,1.1-2.21A1.55,1.55,0,0,1,18.31,56.65Z"/><path class="cls-2" d="M21,73.37a13.67,13.67,0,0,1-4.44-11.19,3.69,3.69,0,0,1-.37,0c0,.13,0,.28,0,.41A87.74,87.74,0,0,1,14,74.93a11.57,11.57,0,0,1,1.64-.76c.34-1.39.64-2.86.92-4.41A14.59,14.59,0,0,0,19,73.4,11.9,11.9,0,0,1,21,73.37Z"/><path class="cls-2" d="M13.76,62.78c.39-3.42.65-7.09.8-10.86-.8,2-3.1,5.16-9.71,5.63H4.68l0-.16c0-.09,2.24-8.94,9.89-7.39a175.45,175.45,0,0,0-.48-18.81c-.23-2.86-.3-5.48-.26-7.91l-.38,0A4.59,4.59,0,0,0,9,25.87a1.87,1.87,0,0,1,.64.61,11.17,11.17,0,0,1,1.57,5.68v.14l-.13,0a3.06,3.06,0,0,1-.48-.12A25.17,25.17,0,0,1,3.72,50a1.27,1.27,0,0,1-1,.42,1.32,1.32,0,0,1-.69-.19,1.31,1.31,0,0,1-.59-1.58A74.7,74.7,0,0,0,4.67,30.87a3.91,3.91,0,0,1-1,0l-.16,0,.06-.14A12.06,12.06,0,0,1,6.93,26,1.75,1.75,0,0,1,8,25.63a5.66,5.66,0,0,1,5.55-3.36l.35,0C14.21,11,17.09,4.55,18.54,2a1.19,1.19,0,0,1,.79-.57,1.14,1.14,0,0,1,.94.22,1.16,1.16,0,0,1,.31,1.49c-1.68,3-5.44,11.77-4.13,27.86a182,182,0,0,1,.44,20.44,5.66,5.66,0,0,1,2.42,5.18,1.57,1.57,0,0,1,.91.75A18.46,18.46,0,0,1,22,62.16l0,.15h-.17a3.22,3.22,0,0,1-1.05-.25A30.38,30.38,0,0,0,24,73a1.07,1.07,0,0,1,0,1,12.57,12.57,0,0,1,1.33.51,2.5,2.5,0,0,0-.11-2.12,28,28,0,0,1-2.78-8.67,1.48,1.48,0,0,0,.68-.45A1.42,1.42,0,0,0,23.43,62l0-.16a20.1,20.1,0,0,0-1.93-5.14,3.09,3.09,0,0,0-.72-.88,7.11,7.11,0,0,0-2.41-5,180.3,180.3,0,0,0-.46-19.88c-1.29-15.71,2.33-24.16,3.95-27A2.59,2.59,0,0,0,19.56,0a2.94,2.94,0,0,0-.51.05A2.63,2.63,0,0,0,17.3,1.31c-1.59,2.81-4.27,9-4.78,19.57A7,7,0,0,0,7,24.37a3.42,3.42,0,0,0-1,.52,13.32,13.32,0,0,0-3.83,5.23l-.07.15a1.41,1.41,0,0,0,0,1.25,1.44,1.44,0,0,0,.94.71,70.78,70.78,0,0,1-3,16,2.77,2.77,0,0,0,2.63,3.64,2.73,2.73,0,0,0,2-.87A26.53,26.53,0,0,0,12,33.48l.11-.09a1.4,1.4,0,0,0,.52-1v-.16a12.51,12.51,0,0,0-1.78-6.46l0-.05a2.87,2.87,0,0,1,1.66-1c0,2.17.1,4.34.28,6.58.44,5.42.62,11.3.51,17.1h-.37c-7.39,0-9.5,8.57-9.52,8.66l0,.16A1.42,1.42,0,0,0,4.68,59H5a14.5,14.5,0,0,0,8-2.66c-.14,2.2-.33,4.32-.56,6.31A73.15,73.15,0,0,1,9.47,77a13.64,13.64,0,0,0,1.67-.56A77.65,77.65,0,0,0,13.76,62.78Z"/><path class="cls-2" d="M37.05,47.78l0,.18-.18,0C33.43,47.2,31.75,45.3,31,43.5A167.74,167.74,0,0,1,31.08,63c-.1,1.73-.24,3.39-.41,5a7,7,0,0,1,4.47-2.91,16.16,16.16,0,0,1,4.17-.45,86.08,86.08,0,0,0,1.42-14.75,3.68,3.68,0,0,1-1.13.06h-.16l.05-.15a12.91,12.91,0,0,1,3.39-5.19A1.93,1.93,0,0,1,44,44.11a7.89,7.89,0,0,1,1.45-2.18,2,2,0,0,1-.24,0A15.84,15.84,0,0,1,34.08,30.79a2.63,2.63,0,0,1-.75.37l-.13,0,0-.14a15.25,15.25,0,0,1,0-6,1.74,1.74,0,0,1,.54-.89A4.63,4.63,0,0,0,29.21,21h-.05a76,76,0,0,0,.68,10.41c.37,2.74.66,5.61.89,8.51C35.61,40.26,37,47.7,37.05,47.78ZM32.11,24a3.13,3.13,0,0,0-.27.72,16.63,16.63,0,0,0-.05,6.64l0,.13a1.44,1.44,0,0,0,1.38,1.12h0A17,17,0,0,0,43.14,42.7a1.62,1.62,0,0,0-.1.18,3.23,3.23,0,0,0-1.09.63,14.27,14.27,0,0,0-3.78,5.74l-.06.15a1.48,1.48,0,0,0,.11,1.25,1.39,1.39,0,0,0,1.06.67h0a84.6,84.6,0,0,1-1.15,11.89,17,17,0,0,0-3.33.48,10.77,10.77,0,0,0-2.4.89c0-.5.07-1,.1-1.5.28-4.72.32-10,.11-15.43a10.72,10.72,0,0,0,4,1.65l.19,0a1.33,1.33,0,0,0,.28,0,1.41,1.41,0,0,0,1-.41,1.42,1.42,0,0,0,.41-1.27l0-.18c-.06-.32-1.41-7.45-6.39-8.81-.22-2.64-.49-5.16-.8-7.5a75.78,75.78,0,0,1-.66-8.56A3,3,0,0,1,32.11,24Z"/><path class="cls-2" d="M49.6,73.45c.42.06.85.15,1.27.25-.09-.76-.16-1.53-.23-2.32A11.14,11.14,0,0,1,49.6,73.45Z"/><path class="cls-2" d="M49.84,66.11a1.92,1.92,0,0,1,.47-.11,180.36,180.36,0,0,1,.88-25.16H51a6.06,6.06,0,0,0-5.75,3.6,1.8,1.8,0,0,1,.52.51,11.93,11.93,0,0,1,2,6v.13h-.14a2.93,2.93,0,0,1-.53-.1,26.91,26.91,0,0,1-6.33,19.43,1.38,1.38,0,0,1-1.06.5,1.51,1.51,0,0,1-.68-.16,1.41,1.41,0,0,1-.71-1.65c.2-.72.38-1.44.55-2.17-1.95,3.39-4.31,4.13-6,4.13a5.8,5.8,0,0,1-1.46-.18,5,5,0,0,1-1-.38q-.45,3.3-1.08,6.07a10.68,10.68,0,0,0,1.35.45c.33-1.45.64-3,.89-4.66a7.07,7.07,0,0,0,1.3.12,7.19,7.19,0,0,0,4.39-1.5,2.88,2.88,0,0,0,2.44,1.35,2.77,2.77,0,0,0,2.14-1,28.24,28.24,0,0,0,6.72-19.06l.15-.12a1.54,1.54,0,0,0,.28-.34c-.2,4.51-.24,9-.1,13.21-1.5.67-5.2,3-5.2,9.09a14.52,14.52,0,0,1,1.43-.41C45.29,67.82,49.3,66.28,49.84,66.11ZM47,44.22a4.35,4.35,0,0,1,2.64-1.81c-.23,2.43-.42,4.91-.56,7.38A13.38,13.38,0,0,0,47,44.22Z"/><path class="cls-2" d="M27.07,75.39a.41.41,0,0,1,.11.07,83.43,83.43,0,0,0,1.56-12.19,169.9,169.9,0,0,0-1.21-31.56C25.31,14.88,28.85,5.56,30.47,2.33a1.19,1.19,0,0,1,.76-.61,1.21,1.21,0,0,1,1,.17,1.18,1.18,0,0,1,.38,1.48C31.46,5.63,29.39,11,29.18,20h0a5.69,5.69,0,0,1,5.42,3.73,1.8,1.8,0,0,1,1.54.41A21.81,21.81,0,0,1,40,28.63l.08.14-.15.05a3.87,3.87,0,0,1-1.28.14,35.26,35.26,0,0,0,7.79,10.71,1.24,1.24,0,0,1,.4,1.09A7.5,7.5,0,0,1,51,39.61l.37,0c.11-.94.21-1.88.34-2.79,2.11-16-1.21-24.94-2.74-28a1.19,1.19,0,0,1,.39-1.48,1.21,1.21,0,0,1,1-.17,1.25,1.25,0,0,1,.76.61C52.66,11,56.2,20.32,54,37.15c-.43,3.24-.75,6.6-1,10,5-.36,7.69,7.3,7.71,7.38l.07.19-.2,0c-5.46-.7-7.18-3.65-7.72-5.5a159.8,159.8,0,0,0-.07,19.55q.2,3.09.53,5.83a14.41,14.41,0,0,1,1.53.85h0c-.28-2.1-.5-4.35-.65-6.77-.29-4.66-.34-9.81-.15-15.1a11.81,11.81,0,0,0,6.34,2.55l.2,0h.18a1.41,1.41,0,0,0,1.34-1.87L62,54.05c-.11-.32-2.5-7.28-7.54-8.25.24-3,.54-5.83.89-8.47C57.66,20.11,54,10.48,52.3,7.14a2.6,2.6,0,0,0-1.66-1.35A3,3,0,0,0,50,5.71a2.59,2.59,0,0,0-2.33,3.73c1.47,3,4.67,11.59,2.6,27.21-.07.52-.13,1.05-.19,1.58a8.74,8.74,0,0,0-2.47.58l-.19-.19A33.07,33.07,0,0,1,40.79,30a1.43,1.43,0,0,0,.51-2l-.09-.13a22.63,22.63,0,0,0-4.1-4.79,3.11,3.11,0,0,0-1.57-.75,7,7,0,0,0-4.9-3.61C31,10.56,33,5.74,33.85,4A2.59,2.59,0,0,0,31.52.27a2.34,2.34,0,0,0-.64.08,2.56,2.56,0,0,0-1.67,1.34c-1.69,3.35-5.36,13-3.08,30.2a169.66,169.66,0,0,1,1.2,31.29,84.57,84.57,0,0,1-1.45,11.54,12.83,12.83,0,0,1,1.19.67Z"/><path class="cls-2" d="M74.59,64.06c-.33-1.61-.63-3.31-.92-5-.58,5.23-6,7.44-6.12,7.46l-.14.06,0-.15C66.21,59,71.67,56.45,73.2,56.18h0A185.08,185.08,0,0,1,71.4,36.71a6,6,0,0,0-3.77,4.35,1.7,1.7,0,0,1,.45.36,9.63,9.63,0,0,1,2.07,4.69l0,.13H70a2.73,2.73,0,0,1-.41,0A21.83,21.83,0,0,1,66,62.38a1.13,1.13,0,0,1-1,.51,1.18,1.18,0,0,1-.46-.09,1.15,1.15,0,0,1-.71-1.3,64.58,64.58,0,0,0,.46-15.65,3.55,3.55,0,0,1-.87.13h-.18l0-.16a10.43,10.43,0,0,1,2.33-4.47h0a1.59,1.59,0,0,1,.69-.42,7.38,7.38,0,0,1,5-5.51c0-1-.06-1.89-.07-2.82a65.13,65.13,0,0,0-2.57-18.23,5.28,5.28,0,0,0-5,3.13,1.75,1.75,0,0,1,.45.45A10.53,10.53,0,0,1,66,23.21v.14l-.14,0a2.11,2.11,0,0,1-.45-.08,23.65,23.65,0,0,1-5.58,17.06,1.24,1.24,0,0,1-1.54.29,1.24,1.24,0,0,1-.63-1.46,69.47,69.47,0,0,0,2.15-16.83,4.26,4.26,0,0,1-1,.05l-.16,0,.06-.15a11.31,11.31,0,0,1,3-4.56,1.69,1.69,0,0,1,1-.42,6.53,6.53,0,0,1,5.73-3.93,32.42,32.42,0,0,0-3.8-8,1.19,1.19,0,0,1,.17-1.52,1.2,1.2,0,0,1,1.77.19c2.07,3,6.9,11.68,7.11,28.65A170.24,170.24,0,0,0,76.94,64a90.76,90.76,0,0,0,2.64,10,11.62,11.62,0,0,1,1.76.72,83.68,83.68,0,0,1-3-11A169.9,169.9,0,0,1,75,32.55c-.21-17.37-5.22-26.37-7.36-29.44A2.55,2.55,0,0,0,65.84,2l-.29,0a2.58,2.58,0,0,0-2.13,4.05,29.31,29.31,0,0,1,3.06,6.11A7.92,7.92,0,0,0,61.68,16a3.21,3.21,0,0,0-.94.56,12.67,12.67,0,0,0-3.38,5.13l-.06.15a1.41,1.41,0,0,0,1,1.89,66.41,66.41,0,0,1-2.08,15,2.7,2.7,0,0,0,2.6,3.41,2.6,2.6,0,0,0,2-1,24.94,24.94,0,0,0,6-16.76l.08-.06a1.44,1.44,0,0,0,.46-1v-.14a11.79,11.79,0,0,0-1.87-5.88A3.67,3.67,0,0,1,67.7,15.9a65.39,65.39,0,0,1,2.18,16.72c0,.61,0,1.23,0,1.85A8.68,8.68,0,0,0,65.19,40a3,3,0,0,0-.52.43A11.91,11.91,0,0,0,62,45.44l0,.15a1.42,1.42,0,0,0,1.11,1.78,61,61,0,0,1-.56,13.88,2.59,2.59,0,0,0,1.57,2.86,2.62,2.62,0,0,0,1,.2,2.58,2.58,0,0,0,.73-.11A13.55,13.55,0,0,0,66,66.6l0,.15a1.42,1.42,0,0,0,.69,1,1.39,1.39,0,0,0,1.22.09l.15-.06A13,13,0,0,0,73.12,64c0,.13.06.27.08.4q1,4.92,2.27,9c.51,0,1,0,1.51.07A94.46,94.46,0,0,1,74.59,64.06ZM71.24,52.14c.12,1,.26,2,.4,3a7.27,7.27,0,0,0-1,.5A23.73,23.73,0,0,0,71.24,52.14Zm-2-11.52a4.39,4.39,0,0,1,.85-1.38c.05,1,.11,1.94.18,2.92A10.6,10.6,0,0,0,69.25,40.62Z"/></g></svg>