<svg id="圖層_1" data-name="圖層 1" xmlns="http://www.w3.org/2000/svg" viewBox="0 0 153.63 77.38"><defs><style>.cls-1{fill:#fff;}</style></defs><title>0</title><path class="cls-1" d="M153.28,23.94a8.15,8.15,0,0,0-6.72-5.05c-.4,0-.79-.06-1.22-.09-3.09-.21-3.82-.26-4.81-3.09-.68-1.92-.2-3,.46-4.41a10.35,10.35,0,0,0,1.19-4.37,6.62,6.62,0,0,0-2.1-5.32A6.24,6.24,0,0,0,135.87.1a9.17,9.17,0,0,0-1.16.08c-3.82.57-6,2.27-8.22,4.08l-.9.71a21,21,0,0,0-2.34,2.2l-.68.69a6.9,6.9,0,0,0-5.85-2.8,9.54,9.54,0,0,0-1.83.18,16.69,16.69,0,0,1-3,.3A14.64,14.64,0,0,1,108.12,5a10.26,10.26,0,0,0-2.43-.39l-.51,0a1.55,1.55,0,0,0-1.24,1,8.7,8.7,0,0,0-.41,3.71,13.33,13.33,0,0,1-3-1.18,12.26,12.26,0,0,0-5-1.42A9.1,9.1,0,0,0,94.64,4a7.31,7.31,0,0,0-6.39-4,6.36,6.36,0,0,0-2.71.6A2.77,2.77,0,0,0,83.86,4a2.84,2.84,0,0,0,2.8,1.82,4.24,4.24,0,0,0,.85-.09,2.2,2.2,0,0,1,.5-.06c.88,0,1.56.65,2,1.92A18.82,18.82,0,0,0,86.6,9.12a11.17,11.17,0,0,1-4.16,1.05c-3.36.45-7.54,1-11.69,5.45a14.54,14.54,0,0,0-1,1.23l-1-.12a15.52,15.52,0,0,1-7.23-2.28,13.15,13.15,0,0,0-3.77-1.59c.41-1.58,1.21-2.38,2.38-2.38l.32,0a3.85,3.85,0,0,0,.48,0A3,3,0,0,0,64,8.35,2.89,2.89,0,0,0,61.94,5a6.65,6.65,0,0,0-2.27-.39,7.75,7.75,0,0,0-7.08,5,9.67,9.67,0,0,0-.66,3,19.28,19.28,0,0,0-5.51,1.81,12.25,12.25,0,0,1-4.67.85c-3.67.25-8.23.55-13,5.06a20,20,0,0,0-6.12,12.2,31.19,31.19,0,0,0-5.05-.49,12.66,12.66,0,0,0-2.27.18A9.54,9.54,0,0,0,12,33.53a3.66,3.66,0,0,1-2.24.67H9.39c-.53,0-1.1,0-1.66,0-1.47,0-5.95,0-7,4.55-.11.51-.24.95-.35,1.33A5.36,5.36,0,0,0,1,45.21c.92,1.42,2.64,2,4,2.55a9.05,9.05,0,0,1,1.67.73,2.72,2.72,0,0,1-.61,1,5.47,5.47,0,0,0-1.22,2.51,3.94,3.94,0,0,0,.7,2.79A1.63,1.63,0,0,1,5.91,56a4.41,4.41,0,0,1-.54,1.25,5.93,5.93,0,0,0-.52,5.95,7.47,7.47,0,0,0,4.58,4.26,4.22,4.22,0,0,0,1.11.14,4,4,0,0,0,2.4-.78c.35-.26.69-.54,1.06-.85,1.16-1,2.25-1.86,3.82-1.86l.49,0c.32,0,.62.05.92.05a5.87,5.87,0,0,0,3.87-1.32A5.61,5.61,0,0,0,25,58.69c0-.49.38-.6.67-.63a.69.69,0,0,1,.71.56,10.38,10.38,0,0,1,.24,1.83c.12,1.72.33,4.6,4.08,4.8h.44a7.3,7.3,0,0,0,3.51-.88l.16-.08a11.54,11.54,0,0,0,6.7,2.37c2.18.21,2.68.37,3,1.49,1.3,5,4,5.74,7,6.55l.3.08a7.62,7.62,0,0,1,2.41,1.28,5.44,5.44,0,0,0,3.13,1.31,3.94,3.94,0,0,0,2.25-.77,7.05,7.05,0,0,0,2.46-3.23c.38-.87.57-1.23,1.15-1.52,2.14-1,1.61-3.37,1.29-4.76a7.08,7.08,0,0,1-.26-1.56.23.23,0,0,1,.09,0l.06,0c.08.14.18.32.25.47A5.06,5.06,0,0,0,69,69.13a12.14,12.14,0,0,0,1.28.07,13.33,13.33,0,0,0,2.1-.18,7.84,7.84,0,0,1,.83-.08c.34,0,.78.08,1.95,1a10.08,10.08,0,0,0,6.18,2.4,7.34,7.34,0,0,0,.81,0,4.81,4.81,0,0,0,3.38-1.79c1.52-2,3.76-7.22,1-10.55a20.39,20.39,0,0,0-1.85-1.87,11.64,11.64,0,0,1-1.78-1.92,2.57,2.57,0,0,1,.54-.31,4.11,4.11,0,0,1,1.73-.37,9.31,9.31,0,0,1,2.06.31c.61,3.78,2.75,5.06,4.49,6.11a6.53,6.53,0,0,1,3.17,3.18C95.63,67,97,69.4,99.08,69.87a3.63,3.63,0,0,0,.73.08,3.74,3.74,0,0,0,2.47-1,8.84,8.84,0,0,1,1.28-.93c2-1.26,2.37-2.29,2.16-6.56a2.92,2.92,0,0,1,2-3,7.37,7.37,0,0,1,2.32-.42c2.08-.09,3.24-.69,4.19-3.83.43-1.39,1.22-1.56,2.83-1.79,1.19-.17,2.83-.4,3.48-2,1.91-4.71,0-7.79-1.2-9.82L119,40a15.58,15.58,0,0,0,1.9-3.58c1.07.59,2.14,1.22,3.17,1.89a15.93,15.93,0,0,0,8.58,2.42,14.46,14.46,0,0,0,5.16-.89c2.29-.88,3.82-2.34,4.29-4.09s3-2.86,5.51-4a16.8,16.8,0,0,0,4.72-2.81A4.56,4.56,0,0,0,153.28,23.94Zm-1.93,4A16,16,0,0,1,147,30.44c-2.78,1.29-5.66,2.63-6.28,4.93-.35,1.31-1.57,2.42-3.43,3.14a13.17,13.17,0,0,1-4.65.79,14.48,14.48,0,0,1-7.81-2.2c-1.55-1-3.17-1.91-4.76-2.72a14.83,14.83,0,0,1-2.75,5.46,11.94,11.94,0,0,0,.82,1.48c1.22,2,2.74,4.5,1.09,8.55-.34.84-1.28,1-2.36,1.13-1.54.21-3.28.46-4,2.78-.83,2.73-1.57,2.76-2.91,2.83a8.45,8.45,0,0,0-2.73.49,4.37,4.37,0,0,0-3,4.48c.2,4.16-.23,4.43-1.5,5.22a10.83,10.83,0,0,0-1.46,1.06,2.34,2.34,0,0,1-1.54.67,1.51,1.51,0,0,1-.42,0c-1.54-.34-2.71-2.6-3.27-3.91a7.88,7.88,0,0,0-3.74-3.84c-1.87-1.13-3.63-2.2-3.94-6.07-.29,0-.61-.12-1-.2a6.72,6.72,0,0,0-4.7.14c-.87.39-1.34.83-1.42,1.33-.15.94,1,2,2.27,3.22a22,22,0,0,1,1.74,1.75c2.22,2.65.24,7.14-1,8.78A3.38,3.38,0,0,1,82,70.92a8.23,8.23,0,0,1-5.93-2c-1.88-1.54-2.6-1.44-3.89-1.26a11.51,11.51,0,0,1-3,.1,3.67,3.67,0,0,1-3.19-2.43c-.49-1-.81-1.58-2-1.13s-1,1.84-.73,3.26.6,2.61-.53,3.17a3.79,3.79,0,0,0-1.83,2.21,5.62,5.62,0,0,1-2,2.65,2.43,2.43,0,0,1-1.43.51,4.32,4.32,0,0,1-2.33-1,8.9,8.9,0,0,0-2.85-1.49l-.29-.08c-3-.79-5-1.31-6-5.54-.57-2.18-2.17-2.34-4.2-2.54A10,10,0,0,1,35.5,63c-.13-.11-.22-.24-.34-.36A4.36,4.36,0,0,0,34,63.1a5.93,5.93,0,0,1-3.26.73c-2.49-.13-2.61-1.76-2.74-3.48a10.93,10.93,0,0,0-.29-2.1,2.1,2.1,0,0,0-2.31-1.59,2,2,0,0,0-1.85,2,4.21,4.21,0,0,1-1.4,3.13,4.76,4.76,0,0,1-3.71.94c-2.45-.28-4,1-5.38,2.16-.34.28-.66.54-1,.79a2.58,2.58,0,0,1-1.56.51,3.38,3.38,0,0,1-.76-.1,6.11,6.11,0,0,1-3.64-3.49c-1-2.05-.21-3.44.47-4.67a4.79,4.79,0,0,0,.71-1.8,2.87,2.87,0,0,0-.57-2,2.62,2.62,0,0,1-.51-1.86,4.23,4.23,0,0,1,1-1.86,3.18,3.18,0,0,0,.9-2.11c-.06-.92-1.24-1.35-2.6-1.85s-2.66-1-3.32-2c-1.07-1.66-.81-2.54-.39-4C1.9,40,2,39.55,2.15,39c.82-3.67,4.35-3.52,7.19-3.4a5.08,5.08,0,0,0,3.33-.85,8,8,0,0,1,2.85-1.1c2.09-.39,5.23,0,8.33.58A19,19,0,0,1,29.68,21.4c4.44-4.16,8.54-4.43,12.17-4.67a13.62,13.62,0,0,0,5.21-1,17.29,17.29,0,0,1,6.2-1.82c0-.12,0-.24,0-.37a10.26,10.26,0,0,1,.62-3.33c1.56-3.7,5.06-4.74,7.56-3.84,1,.35,1.31,1.09,1.18,1.66s-.84,1.18-2.09,1.06c-2.26-.23-3.81,1.2-4.35,4a6.94,6.94,0,0,0-.12.85,11.93,11.93,0,0,1,4.66,1.68,16.82,16.82,0,0,0,7.8,2.47c.61.07,1.21.15,1.82.25a17.09,17.09,0,0,1,1.43-1.8c3.8-4.07,7.54-4.57,10.84-5a12.21,12.21,0,0,0,4.69-1.23,16.48,16.48,0,0,1,4.43-1.82,8.87,8.87,0,0,0-.22-.93c-.74-2.53-2.25-3.71-4.31-3.29-1.13.23-1.83-.23-2-.79s.05-1.21.94-1.63c2.2-1,5.48-.4,7.24,2.83a9.35,9.35,0,0,1,.86,3c0,.16,0,.32.08.47a10.9,10.9,0,0,1,5.49,1.28,14,14,0,0,0,5.42,1.65,8.88,8.88,0,0,1,0-5l0-.07h.08a7.82,7.82,0,0,1,2.4.33,15.44,15.44,0,0,0,7.37.24c2.92-.56,5.55.46,6.53,2.53.16.33.33.51.53.54.47.08,1.22-.68,2.06-1.55a19.21,19.21,0,0,1,2.2-2.06l.91-.72c2.2-1.76,4.1-3.28,7.54-3.78a5.11,5.11,0,0,1,4.22,1.08,5.3,5.3,0,0,1,1.63,4.23,9.08,9.08,0,0,1-1.07,3.81,6.39,6.39,0,0,0-.51,5.47c1.3,3.72,2.89,3.82,6.06,4l1.2.09a6.76,6.76,0,0,1,5.5,4.13A3.17,3.17,0,0,1,151.35,27.93Z"/></svg>