<svg id="圖層_1" data-name="圖層 1" xmlns="http://www.w3.org/2000/svg" viewBox="0 0 135.38 77.38"><defs><style>.cls-1{opacity:0.8;}.cls-2{fill:#fff;}</style></defs><title>0</title><g class="cls-1"><path class="cls-2" d="M79.56,70.72A9.37,9.37,0,0,1,76,68.88c-1.88-1.54-2.59-1.44-3.88-1.26a11.71,11.71,0,0,1-3,.1,3.67,3.67,0,0,1-3.19-2.43c-.49-1-.81-1.58-2.06-1.12s-1,1.83-.72,3.25.6,2.62-.53,3.17a3.75,3.75,0,0,0-1.83,2.21,5.69,5.69,0,0,1-2,2.65,2.47,2.47,0,0,1-1.43.52A4.31,4.31,0,0,1,55,74.91a8.85,8.85,0,0,0-2.85-1.49l-.29-.08c-3-.79-4.95-1.31-6-5.54-.57-2.18-2.17-2.34-4.2-2.54a16.89,16.89,0,0,1-2.79-.45c.14.52.27,1,.41,1.55a22.3,22.3,0,0,0,2.24.31c2.18.22,2.68.37,3,1.49,1.3,5,4,5.74,7,6.56l.29.08a7.62,7.62,0,0,1,2.4,1.28,5.51,5.51,0,0,0,3.13,1.31,3.89,3.89,0,0,0,2.25-.77,7.08,7.08,0,0,0,2.46-3.23c.38-.86.56-1.23,1.15-1.51,2.13-1,1.61-3.37,1.29-4.76a7.39,7.39,0,0,1-.26-1.56l.09,0,.06,0c.08.13.17.32.25.46A5,5,0,0,0,69,69.13c.47,0,.9.06,1.28.06A14,14,0,0,0,72.34,69a6.46,6.46,0,0,1,.83-.09c.35,0,.79.08,2,1a11.15,11.15,0,0,0,3,1.77c.47-.21.92-.44,1.41-.65C79.54,71.11,79.55,71,79.56,70.72Z"/><path class="cls-2" d="M82.79,54.6c-.87.4-1.33.83-1.42,1.33-.14.84.79,1.81,1.88,2.84q.35-.62.74-1.26a7.2,7.2,0,0,1-1.16-1.32,2.78,2.78,0,0,1,.55-.31,4.09,4.09,0,0,1,1.73-.37h.23q.48-.66,1-1.31A5.86,5.86,0,0,0,82.79,54.6Z"/><path class="cls-2" d="M135.22,10l-.12-.22a1.42,1.42,0,0,0-1.91-.6,53.86,53.86,0,0,0-12.68,9.88A15.36,15.36,0,0,0,116.1,13a13.38,13.38,0,0,0-8.94-3.15,14,14,0,0,1-6.68-1.62,12.3,12.3,0,0,0-5-1.42A9.06,9.06,0,0,0,94.64,4a7.3,7.3,0,0,0-6.38-4,6.36,6.36,0,0,0-2.71.6A2.77,2.77,0,0,0,83.87,4a2.82,2.82,0,0,0,2.79,1.82,4.28,4.28,0,0,0,.85-.09,2.53,2.53,0,0,1,.5-.05c.89,0,1.57.64,2,1.91A18.4,18.4,0,0,0,86.6,9.12a11.22,11.22,0,0,1-4.17,1c-3.36.45-7.54,1-11.68,5.45-.35.38-.69.78-1,1.23l-1-.12a15.45,15.45,0,0,1-7.23-2.27,13.34,13.34,0,0,0-3.77-1.59c.41-1.58,1.21-2.37,2.37-2.37l.33,0,.48,0A3,3,0,0,0,64,8.35,2.89,2.89,0,0,0,61.94,5a6.67,6.67,0,0,0-2.26-.39,7.73,7.73,0,0,0-7.08,5,9.69,9.69,0,0,0-.66,3,19.19,19.19,0,0,0-5.5,1.81,12.33,12.33,0,0,1-4.67.85c-3.67.24-8.24.55-13,5.05a19.37,19.37,0,0,0-3.56,4.53l.7,1.72a17.88,17.88,0,0,1,3.83-5.22c4.44-4.16,8.54-4.43,12.17-4.67a13.44,13.44,0,0,0,5.21-1,17.24,17.24,0,0,1,6.19-1.81l0-.37a10.11,10.11,0,0,1,.62-3.34c1.57-3.7,5.06-4.74,7.56-3.84,1,.36,1.32,1.1,1.19,1.67s-.85,1.18-2.1,1.06c-2.26-.23-3.81,1.2-4.35,4-.06.3-.09.58-.12.86a11.85,11.85,0,0,1,4.66,1.67,16.84,16.84,0,0,0,7.8,2.47c.61.07,1.21.14,1.82.25a16.45,16.45,0,0,1,1.43-1.79c3.8-4.07,7.54-4.57,10.84-5a12.31,12.31,0,0,0,4.7-1.23,16.34,16.34,0,0,1,4.42-1.82,8.81,8.81,0,0,0-.22-.94c-.74-2.53-2.27-3.7-4.31-3.29-1.13.23-1.83-.23-2-.79a1.38,1.38,0,0,1,.94-1.63c2.2-1,5.48-.4,7.24,2.83a9.25,9.25,0,0,1,.86,3l.08.47a10.9,10.9,0,0,1,5.49,1.28,15.4,15.4,0,0,0,7.27,1.78,12,12,0,0,1,8.13,2.84A15.42,15.42,0,0,1,120,21.79a52.3,52.3,0,0,1,13.87-11.34l.12.22a52,52,0,0,0-13.9,11.41,23.26,23.26,0,0,1,.8,4.81,14,14,0,0,1,1.44.13,24.77,24.77,0,0,0-.68-4.58,50.9,50.9,0,0,1,13-10.5,1.42,1.42,0,0,0,.61-1.91Z"/><path class="cls-2" d="M30.77,63.83c-2.5-.13-2.61-1.76-2.74-3.48a10.89,10.89,0,0,0-.29-2.1,2.1,2.1,0,0,0-2.31-1.59,2,2,0,0,0-1.85,2,4.23,4.23,0,0,1-1.4,3.12,4.74,4.74,0,0,1-3.71.94c-2.45-.27-4,1-5.38,2.16-.34.28-.66.55-1,.79a2.59,2.59,0,0,1-1.56.51,3.11,3.11,0,0,1-.77-.1,6.1,6.1,0,0,1-3.64-3.49c-1-2.05-.2-3.44.47-4.67a4.9,4.9,0,0,0,.72-1.8,3,3,0,0,0-.57-2,2.6,2.6,0,0,1-.52-1.85,4.19,4.19,0,0,1,1-1.87,3.17,3.17,0,0,0,.9-2.1c-.06-.92-1.24-1.35-2.6-1.85s-2.65-1-3.32-2c-1.07-1.65-.81-2.54-.39-4C1.9,40,2,39.55,2.15,39c.82-3.67,4.35-3.52,7.19-3.4a5.16,5.16,0,0,0,3.33-.85,8.59,8.59,0,0,1,1.82-.84l-.8-1.23a10.4,10.4,0,0,0-1.73.84,3.69,3.69,0,0,1-2.24.67H9.4c-.54,0-1.11,0-1.68,0-1.47,0-5.94,0-7,4.56-.11.51-.24.94-.35,1.33A5.34,5.34,0,0,0,1,45.21c.92,1.42,2.64,2.05,4,2.56a8.73,8.73,0,0,1,1.67.73,2.73,2.73,0,0,1-.61,1A5.46,5.46,0,0,0,4.84,52a4,4,0,0,0,.7,2.79A1.63,1.63,0,0,1,5.91,56a4.18,4.18,0,0,1-.55,1.25,5.94,5.94,0,0,0-.51,6,7.5,7.5,0,0,0,4.57,4.26,4.54,4.54,0,0,0,1.12.14,4,4,0,0,0,2.39-.78c.35-.26.7-.54,1.06-.85,1.16-1,2.25-1.87,3.82-1.87l.49,0a8.2,8.2,0,0,0,.92.05,5.85,5.85,0,0,0,3.87-1.32A5.61,5.61,0,0,0,25,58.69c0-.49.38-.6.68-.63a.67.67,0,0,1,.7.56,9.77,9.77,0,0,1,.25,1.83c.13,1.72.34,4.6,4.08,4.79h.44l.64,0-.59-1.4Z"/></g></svg>