<svg id="圖層_1" data-name="圖層 1" xmlns="http://www.w3.org/2000/svg" viewBox="0 0 132.84 76.32"><defs><style>.cls-1{fill:#fff;}</style></defs><title>0</title><path class="cls-1" d="M56.07,28.51c0,.18,0,.36,0,.53a9.76,9.76,0,0,1-5.76-3.34,17.23,17.23,0,0,0-2-1.76,11.83,11.83,0,0,0,2.63-1.59c0,.16.08.33.14.48a7.37,7.37,0,0,0,4,4.23c.44.2.83.42,1.19.63C56.16,28,56.1,28.23,56.07,28.51Z"/><path class="cls-1" d="M37.29,23.12a10.67,10.67,0,0,0-6.65,3.4,19.51,19.51,0,0,1-8.14,5.29,13,13,0,0,1,4,5.55,11.44,11.44,0,0,1,1.21-1.09A11.24,11.24,0,0,1,36.08,34l.31.06a19.52,19.52,0,0,1,2.91-10A11.61,11.61,0,0,1,37.29,23.12ZM35,32.53h-.44A12.59,12.59,0,0,0,27,35a14.44,14.44,0,0,0-1.92-2.73,20.56,20.56,0,0,0,6.62-4.83A9.19,9.19,0,0,1,37,24.6l.34.19A21.12,21.12,0,0,0,35,32.53Z"/><path class="cls-1" d="M51.06,22.83c-.06-.16-.09-.32-.14-.48a11.83,11.83,0,0,1-2.62,1.59,17.23,17.23,0,0,1,2,1.76A9.76,9.76,0,0,0,56,29c0-.18,0-.36,0-.53s.09-.55.15-.82c-.36-.21-.75-.42-1.19-.63A7.37,7.37,0,0,1,51.06,22.83Z"/><path class="cls-1" d="M57.72,40.85a12.5,12.5,0,0,0-2.28.51,7.44,7.44,0,0,0-3-4A8.69,8.69,0,0,1,50.9,36a13.35,13.35,0,0,1,2.32-3.62,14.77,14.77,0,0,0,1.66.46,12.77,12.77,0,0,0,3.83,6.56c-.09-.26-.18-.52-.26-.79h0a21.37,21.37,0,0,1-.49-2.2,11.33,11.33,0,0,1-1.87-4.76,13.39,13.39,0,0,1-3.26-.91,14.68,14.68,0,0,0-3.53,5.55,9,9,0,0,0,2.35,2.28,5.75,5.75,0,0,1,2.65,4.83,10.81,10.81,0,0,1,5.52-1.16c-.23-.46-.43-.95-.63-1.44A13,13,0,0,0,57.72,40.85Z"/><path class="cls-1" d="M48.44,27.43a14.59,14.59,0,0,0-3.27-2.6,11.64,11.64,0,0,1-1.59.12,11.86,11.86,0,0,1-1.55-.1l-.56-.1c-1,1.65-3.25,5.74-2.88,9.93a11.19,11.19,0,0,1,4.3,2.9,9.8,9.8,0,0,1,2.56-2A13.15,13.15,0,0,1,48,34.46a16.88,16.88,0,0,1,3.16-4.68A15.76,15.76,0,0,1,48.44,27.43ZM47,33.31a14.47,14.47,0,0,0-2.2,1,11.91,11.91,0,0,0-1.88,1.3A12.48,12.48,0,0,0,40,33.73a16,16,0,0,1,2.23-7.43,13.27,13.27,0,0,0,1.38.07,11.81,11.81,0,0,0,1.27-.07,13.18,13.18,0,0,1,2.55,2.11A19.23,19.23,0,0,0,49.1,30,17.88,17.88,0,0,0,47,33.31Z"/><path class="cls-1" d="M124.76,38.22A13.26,13.26,0,0,1,118.19,40,13.43,13.43,0,0,1,110,37.16a19.51,19.51,0,0,0-5,7.9,12.39,12.39,0,0,1-7.91,19.86,12.38,12.38,0,0,1-14-9.9q-.71.08-1.42.12A13.9,13.9,0,0,0,95.24,66.48a14,14,0,0,0,2.1-.16,13.8,13.8,0,0,0,9.26-21.52A17.66,17.66,0,0,1,110.19,39a14.91,14.91,0,0,0,8,2.34,14.67,14.67,0,0,0,3.36-.4,2,2,0,0,1,.48-.67,2,2,0,0,1,2-.16,14.6,14.6,0,0,0,8.78-12c-.45-.22-.9-.45-1.36-.7A13.34,13.34,0,0,1,124.76,38.22Z"/><path class="cls-1" d="M60.77,64.71a11.3,11.3,0,0,1-12.36-8.28,4.11,4.11,0,0,1-1.15.43,3.45,3.45,0,0,1-.7.07,3.33,3.33,0,0,1-2.23-.87,5.31,5.31,0,0,1-1.57-3,11.43,11.43,0,0,1-1.29,1.17,11.27,11.27,0,0,1-4.73,2.13c-.22,3.87-1.43,8.18-5.2,9.94-6.16,2.86-6.41,3-10.6,5.8l-1.58,1a8.81,8.81,0,0,1-4.52,1.74,2.75,2.75,0,0,1-1.7-.52c-1.25-.95-1.5-3.08-.66-5.71a36.67,36.67,0,0,0,1.16-6,40.9,40.9,0,0,1,1.66-7.89c-.3,0-.6,0-.91,0a13.11,13.11,0,0,1-1.72-.11A12.94,12.94,0,1,1,19.57,30a17.33,17.33,0,0,0,9.22-5.18l.07-.07a8,8,0,0,1-5.12,1.92,7.89,7.89,0,0,1-.8,0c-2.55-.27-5-1.83-7.18-4.5a15.59,15.59,0,0,0-4.39-3.46c-2.42-1.46-4.71-2.85-4.48-6.17A4.4,4.4,0,0,1,8.94,9c1.92-1.24,4.75-1.31,7.76-.19a10.67,10.67,0,0,0,6,.49c2.18-.31,4.23-.6,8,1.82a8.42,8.42,0,0,1,1.24,1c0-.17,0-.34,0-.52A11.77,11.77,0,0,1,52.91,6q.37.48.68,1a4.87,4.87,0,0,1,1.24-2.18c-.3-.37-.59-.75-.86-1.14a5.61,5.61,0,0,0-.61.65A13.09,13.09,0,0,0,45.3.12,13.49,13.49,0,0,0,43.55,0,13.2,13.2,0,0,0,30.87,9.64a11.24,11.24,0,0,0-6-1.92,16.72,16.72,0,0,0-2.4.22,14.68,14.68,0,0,1-2.12.2,8.83,8.83,0,0,1-3.15-.61,13.13,13.13,0,0,0-4.57-.88A8.18,8.18,0,0,0,8.17,7.85,5.78,5.78,0,0,0,5.47,12.4c-.29,4.19,2.61,5.94,5.17,7.49a14.3,14.3,0,0,1,4,3.13,12.87,12.87,0,0,0,7.14,4.87,16.68,16.68,0,0,1-2.09.65,14.26,14.26,0,0,0-3.46-.91A14.36,14.36,0,0,0,.13,40,14.36,14.36,0,0,0,12.48,56.09l.91.09a51.3,51.3,0,0,0-1.15,6.28,35.72,35.72,0,0,1-1.11,5.77c-1,3.28-.62,5.93,1.16,7.27a4.13,4.13,0,0,0,2.56.81,10.05,10.05,0,0,0,5.3-2l1.58-1c4.19-2.78,4.35-2.88,10.42-5.7,3.38-1.57,5.42-5,5.94-10.08a12.59,12.59,0,0,0,4.06-2,5.88,5.88,0,0,0,1.26,1.6,4.72,4.72,0,0,0,3.17,1.22,4.82,4.82,0,0,0,1-.1,12.75,12.75,0,0,0,11.79,8,13,13,0,0,0,1.63-.1,12.75,12.75,0,0,0,11.1-12.38c-.48-.18-.95-.39-1.41-.6A11.33,11.33,0,0,1,60.77,64.71Z"/></svg>