<svg id="圖層_1" data-name="圖層 1" xmlns="http://www.w3.org/2000/svg" viewBox="0 0 103.46 65.48"><defs><style>.cls-1{fill:#fff;}</style></defs><title>strawberry</title><path class="cls-1" d="M101.49,24.74c-1.75-1.66-4.39-2.53-7.63-2.53-.51,0-1,0-1.46.06a2.5,2.5,0,0,0-.18-1c-.47-1.19-1.71-1.82-3.69-1.88H88.3A11.13,11.13,0,0,0,81.73,22l-.4.32a3.11,3.11,0,0,0-1.17-2.75,2.92,2.92,0,0,0-.92-.45,6.94,6.94,0,0,0-.46-4.41,2.75,2.75,0,0,0-2.14-1.48H76.4a8.39,8.39,0,0,0-1.22-3,3.33,3.33,0,0,0-2.75-1.59,2.78,2.78,0,0,0-.76.1l-.3.09a6.1,6.1,0,0,0-2.22-2.21,3.73,3.73,0,0,0-1.82-.48,4.2,4.2,0,0,0-2.19.66c-1.07-1.06-2.69-2.3-4.43-2.3h-.19a3.47,3.47,0,0,0-2.93,1.56,3.28,3.28,0,0,0-.36.84l-.6,0a4,4,0,0,0-2.72.87c-1,.91-1.12,2.41-.27,4.3a4.6,4.6,0,0,0-3,3.21,4.13,4.13,0,0,0,1,3.5c-.19.15-.39.3-.58.48a3.5,3.5,0,0,0-.45.07A8.5,8.5,0,0,0,48.6,20a4.16,4.16,0,0,0-2.75-2c.26-3.22-.1-6.26-1-7.93A2.81,2.81,0,0,0,43,8.51a3.51,3.51,0,0,0-.72-.07,3.33,3.33,0,0,0-.78.09,11.75,11.75,0,0,0-2.7-4.8,4.15,4.15,0,0,0-2.83-1.44,3.78,3.78,0,0,0-1.74.41A5.27,5.27,0,0,0,30.14,0,3.66,3.66,0,0,0,27,1.9a3.6,3.6,0,0,0-1.8-.49,3.49,3.49,0,0,0-1.4.3,3.55,3.55,0,0,0-2.1,2.7,3.45,3.45,0,0,0-.57,0,2.79,2.79,0,0,0-.64.07,3.07,3.07,0,0,0-2.14,1.68c-.87,1.69-.26,3.74.49,5.26a2.78,2.78,0,0,0-.51.41,2.83,2.83,0,0,0-.81,2.36,6.44,6.44,0,0,0,1.05,2.76c-.08.07-.16.16-.24.24a3.79,3.79,0,0,0-.52,3.92h0A9.63,9.63,0,0,0,13.6,19.8a3.42,3.42,0,0,0-1,.13,3,3,0,0,0-2.15,2.38,9.34,9.34,0,0,0-1.35-.1,4.6,4.6,0,0,0-3.31,1.15,3.89,3.89,0,0,0-1.12,2.09l-.59,0A4.47,4.47,0,0,0,.89,26.51a3.12,3.12,0,0,0-.76,3.13,6.4,6.4,0,0,0,1.64,2.84l-.1.11a2.84,2.84,0,0,0-.62,2.32,4.87,4.87,0,0,0,2.05,3,3.33,3.33,0,0,0-.49.73,3.38,3.38,0,0,0,.5,3.68,6.18,6.18,0,0,0,3.23,2.21,2.82,2.82,0,0,0,.09,1.19C6.9,47.31,8.6,48.28,11,48.28h.27q.53,0,1-.06a2.19,2.19,0,0,0,2.51,2.2,5.56,5.56,0,0,0,.67,0A12.91,12.91,0,0,0,19.57,49a23.94,23.94,0,0,0-.2,8.63C19.81,59.67,20.7,61,22,61.39a6.56,6.56,0,0,0,2,.31c4,0,9.47-3.09,12.91-7.34.11-.13.21-.27.31-.4a12,12,0,0,0,1.92,4.46,4.49,4.49,0,0,0,3.05,1.88l.4,0c1.77,0,4-1.39,5.88-3.73a22.15,22.15,0,0,0,5,5,10.77,10.77,0,0,0,5.9,2.29,4.71,4.71,0,0,0,1.9-.38c2.83-1.22,3.75-5.83,3.88-9A16.89,16.89,0,0,0,71.39,58a8.4,8.4,0,0,0,2.42.39A4.74,4.74,0,0,0,77,57.32a5.41,5.41,0,0,0,.89-1,6,6,0,0,0,1.43,5.63c1.89,2.22,5.47,3.54,9.57,3.54.49,0,1,0,1.45-.06,2.88-.25,4.94-1.19,5.8-2.65,1.22-2.05.56-5.57-.47-8.18-1.43-3.65-3.67-6.16-6.15-6.89L89,47.55a6.9,6.9,0,0,0,4.13-1.44,6.06,6.06,0,0,0,2.07-3.55c4.72-1.26,7.14-2.91,7.58-5.15a3.88,3.88,0,0,0-.86-3.16C103.65,31.39,104.45,27.53,101.49,24.74Zm-.16,12.4c-.34,1.73-2.85,3.17-7.48,4.28A4.84,4.84,0,0,1,92.18,45c-1.43,1.17-3.64,1.43-6.56.78A3.07,3.07,0,0,1,86,47.93a1.92,1.92,0,0,1-.94,1.15,9.17,9.17,0,0,1,1.21-.21,5.88,5.88,0,0,1,2.83.19c2,.6,4,2.86,5.23,6,1.12,2.84,1.35,5.63.57,6.94-.6,1-2.36,1.76-4.7,2-.43,0-.88.06-1.33.06-3.12,0-6.66-.9-8.5-3a4.6,4.6,0,0,1-.79-5.28,6.4,6.4,0,0,1,1.16-3.63,15.72,15.72,0,0,1-2.84-3.25S78,49,78,49c.25,3.34-.44,6-1.87,7.25a3.34,3.34,0,0,1-2.28.76,7.09,7.09,0,0,1-2-.32,15.53,15.53,0,0,1-8.28-6.47,18.73,18.73,0,0,1,.33,3.21c0,3.68-1,7.88-3.05,8.77a3.32,3.32,0,0,1-1.33.26,9.46,9.46,0,0,1-5.08-2A19.45,19.45,0,0,1,48.6,54a16.92,16.92,0,0,1-1.13,1.61c-1.64,2-3.5,3.26-4.83,3.26h-.22a3.13,3.13,0,0,1-2.11-1.34c-1.31-1.69-2-4.76-2.23-7.91a13,13,0,0,1-2.22,3.83c-3.22,4-8.3,6.81-11.81,6.81a5,5,0,0,1-1.59-.23c-.79-.27-1.37-1.22-1.7-2.76a22.68,22.68,0,0,1,.3-8.55c.08-.39.17-.76.26-1.13a.47.47,0,0,1-.14-.14,1.06,1.06,0,0,1-.14-1A15.17,15.17,0,0,1,15.25,49a2.9,2.9,0,0,1-.48,0c-.75,0-1-.3-1.07-.56-.15-.58.44-1.45,1.24-2.13a14.2,14.2,0,0,1-3.73.54c-1.83.06-3.12-.54-3.42-1.58a1.77,1.77,0,0,1,.73-1.87,5.54,5.54,0,0,1-4.27-2,2,2,0,0,1-.38-2.21,2.86,2.86,0,0,1,2-1.34c-.94-.46-3.17-1.71-3.39-3.18a1.44,1.44,0,0,1,.3-1.19,2.63,2.63,0,0,1,1.61-.74A6.5,6.5,0,0,1,1.5,29.3a1.76,1.76,0,0,1,.38-1.78c.74-.72,2.33-.88,4.18-.42a3.11,3.11,0,0,1,.73-2.71c.94-.9,2.64-1,5.07-.32-.11-.61-.28-2.38,1.14-2.78s4.61,1.08,5.75,2.14c-.06-.6-.05-1.67.66-2.07-.65-1.39-.69-2.57-.07-3.27a1.59,1.59,0,0,1,1.56-.46,7.25,7.25,0,0,1-2-3.62,1.44,1.44,0,0,1,.38-1.22A2.41,2.41,0,0,1,21,12.25c-.55-.8-2.34-3.65-1.39-5.49a1.75,1.75,0,0,1,1.16-1,3.42,3.42,0,0,1,2.35.71c-.15-.8-.35-2.84,1.24-3.51s2.78.7,3.22,1.3c.17-.8.79-2.89,2.6-2.89h0c1.92,0,3.28,2.69,3.66,3.55A2.4,2.4,0,0,1,36,3.7h0a2.89,2.89,0,0,1,1.81,1A10.47,10.47,0,0,1,40.47,11,2,2,0,0,1,42.7,9.9a1.49,1.49,0,0,1,.92.88c.8,1.54,1.21,5,.62,8.93a1.66,1.66,0,0,1,.95-.31h.22c1.76.22,2.38,2.09,2.55,2.74a6.85,6.85,0,0,1,3-1.46,3.36,3.36,0,0,1,.77-.05A5.87,5.87,0,0,1,54.23,19c-.7-.4-2.52-1.64-2.15-3.48S55,13,55.72,12.9c-.43-.67-1.92-3.16-.87-4.09s3.09-.41,3.82-.23a2.09,2.09,0,0,1,.13-1.77,2.05,2.05,0,0,1,1.8-.89h.11c1.87,0,3.83,2.27,4.29,2.83.39-.42,1.82-1.79,3.46-.89a5.7,5.7,0,0,1,2.38,3.21,1.92,1.92,0,0,1,1.19-1A1.79,1.79,0,0,1,74,11a7.78,7.78,0,0,1,1.19,4.12,1.85,1.85,0,0,1,1.31-.54,1.36,1.36,0,0,1,1,.78c.85,1.43.16,4.26-.06,5.07a2.32,2.32,0,0,1,1.83.21,1.82,1.82,0,0,1,.59,1.62,6.24,6.24,0,0,1-.61,2.36,1.56,1.56,0,0,1,.91.69,18,18,0,0,1,2.39-2.26,9.59,9.59,0,0,1,5.89-2.31c1.35,0,2.17.38,2.41,1,.31.78-.38,1.76-.78,2.24,1.53-.32,7.22-1.23,10.4,1.76,3.43,3.23.1,7.88-.47,8.63A3.06,3.06,0,0,1,101.33,37.14Z"/></svg>