<svg id="圖層_1" data-name="圖層 1" xmlns="http://www.w3.org/2000/svg" viewBox="0 0 154.79 90.71"><defs><style>.cls-1{opacity:0.8;}.cls-2{fill:#fff;}</style></defs><title>0</title><g class="cls-1"><path class="cls-2" d="M154.25,33.59A3.4,3.4,0,0,0,152,32.2a4,4,0,0,0-.58,0,4.54,4.54,0,0,0-.61,0c1.12-3,2.05-6.48,1.25-8.62a3.21,3.21,0,0,0-1.77-1.89,4.42,4.42,0,0,0-1.72-.35,7.48,7.48,0,0,0-5,2.55,4.83,4.83,0,0,0-1.19-1.36,4.22,4.22,0,0,0-2.61-.9,6,6,0,0,0-3.16,1A13.11,13.11,0,0,0,133,26.12a3.2,3.2,0,0,0-.91-.77,2.89,2.89,0,0,0-.64-.27,18.38,18.38,0,0,0,1.1-6c0-3-1.25-5.37-3.27-6.21a4,4,0,0,0-1.55-.31,4.1,4.1,0,0,0-1.11.16,16.31,16.31,0,0,0-1-2.63c-2-4-4.78-4.82-6.78-4.82l-.61,0c-3,.26-5.44,2.25-6.75,5.6-.18.46-.33.92-.45,1.36a4.21,4.21,0,0,0-.53-.26,3.88,3.88,0,0,0-1.49-.3,4.3,4.3,0,0,0-1.66.35c-2.61,1.09-3.29,5.7-3.42,9.21a4.3,4.3,0,0,0-1.6.36c-1.65.72-2.81,2.42-3.46,5a17.62,17.62,0,0,0-.47,3.15c-1.35-4-3.74-9.95-6.81-13.13a8.44,8.44,0,0,0-6-2.89,6.34,6.34,0,0,0-2.17.38,6.89,6.89,0,0,0-4,3.93,8.47,8.47,0,0,0-3.54-.85,6,6,0,0,0-4.2,1.67c-1.45,1.35-2.21,3.43-2.27,6.18h-.35a7.17,7.17,0,0,0-3.45.86c.88-2.63,1.45-5.44.77-7.26a3.21,3.21,0,0,0-1.77-1.89,4.43,4.43,0,0,0-1.72-.35,7.48,7.48,0,0,0-5,2.55,4.84,4.84,0,0,0-1.19-1.36,4.21,4.21,0,0,0-2.61-.9,6,6,0,0,0-3.16,1,11.48,11.48,0,0,0-2.62,2.34,2.91,2.91,0,0,0-.63-.26,18.37,18.37,0,0,0,1.1-6c0-3-1.25-5.37-3.27-6.21A4.05,4.05,0,0,0,44,7.29a4.09,4.09,0,0,0-1.11.16,16.27,16.27,0,0,0-1-2.63C39.88.84,37.08,0,35.08,0l-.62,0c-3,.26-5.44,2.25-6.75,5.6-.18.46-.33.92-.45,1.36a4.19,4.19,0,0,0-.53-.26,3.89,3.89,0,0,0-1.49-.3,4.25,4.25,0,0,0-1.66.35C21,7.87,20.28,12.47,20.15,16a4.28,4.28,0,0,0-1.59.36c-1.65.72-2.81,2.42-3.46,5a17.51,17.51,0,0,0-.47,3.1h-.18a3.13,3.13,0,0,0-.45,0,3,3,0,0,0-1.18.44C11.47,21,9.07,15,6,11.77A10.2,10.2,0,0,0,3.05,9.61c.24.66.45,1.35.65,2.06A9.76,9.76,0,0,1,5,12.75c3.92,4.06,6.74,13.17,7.47,15.73.26-2,1.19-2.48,1.77-2.57a2.56,2.56,0,0,1,1.81.57,17.32,17.32,0,0,1,.46-4.76c.54-2.18,1.43-3.56,2.66-4.09a3.12,3.12,0,0,1,2.42,0c0-1.33.06-8.51,2.58-9.56a2.6,2.6,0,0,1,2.06,0A4.31,4.31,0,0,1,28.13,10,15.13,15.13,0,0,1,29,6.14c1.12-2.86,3-4.49,5.55-4.7s4.6,1.17,6,4a16.22,16.22,0,0,1,1.33,4.13A2.85,2.85,0,0,1,45,8.91c1.48.61,2.39,2.49,2.39,4.9a18.31,18.31,0,0,1-2,7.91,1.85,1.85,0,0,1,3.1.5,12.13,12.13,0,0,1,3.24-3.28c2-1.26,3.38-.81,4.16-.2a4,4,0,0,1,1.41,3.21c1-1.37,4-5.06,6.82-3.86a1.8,1.8,0,0,1,1,1.08c1,2.7-1.75,9-2.55,10.69A9.11,9.11,0,0,1,64.21,29a6.07,6.07,0,0,1,4.87-2.5h.25a4.06,4.06,0,0,1,1.58.38c-.2-2.43,0-5.32,1.76-6.94,3-2.77,6.8-.32,7.68.3A5.63,5.63,0,0,1,83.9,15.5c2.17-.79,4.6,0,6.68,2.16C94.5,21.71,97.32,30.83,98,33.38c.25-2,1.17-2.47,1.74-2.56a16.75,16.75,0,0,1,.47-3.83c.54-2.18,1.43-3.55,2.66-4.09a3.12,3.12,0,0,1,2.42,0c0-1.33.06-8.51,2.58-9.56a2.61,2.61,0,0,1,2.06,0,4.31,4.31,0,0,1,1.94,1.93,15.13,15.13,0,0,1,.9-3.82c1.12-2.86,3-4.49,5.55-4.7s4.6,1.17,6,4a16.22,16.22,0,0,1,1.33,4.13,2.85,2.85,0,0,1,3.07-.67c1.48.61,2.39,2.49,2.39,4.9a18.32,18.32,0,0,1-2,7.91,2.08,2.08,0,0,1,2.29-.4,3.29,3.29,0,0,1,1.26,2.69,15.64,15.64,0,0,1,4.62-5.43c2-1.26,3.38-.8,4.16-.2a4,4,0,0,1,1.41,3.21c1-1.37,4-5.06,6.82-3.86a1.8,1.8,0,0,1,1,1.08c1,2.7-1.75,9-2.55,10.69a6,6,0,0,1,3.61-1.17,2,2,0,0,1,1.35.82,2.75,2.75,0,0,1,.14,2.12c-.88,4.12-6,12.07-12.46,15.95,1.1.08,3.95.53,4.58,3A1.91,1.91,0,0,1,145,57c-1.29,2-7.12,5.06-15.5,6.8.83.14,2,.56,2,1.77a2.42,2.42,0,0,1-.77,1.72c-.89,1-3.88,3.23-12.4,3.44h-.11l0-.11c0-.1-.09-.51-.18-1.14a10.54,10.54,0,0,1-4.33,1.61h0l0,0-.09,0a6,6,0,0,1-2.14.38c-3.77,0-9.13-2.85-16-8.5l-.24-.21a23.35,23.35,0,0,1-6,6.63,1.52,1.52,0,0,1,1.59.87c.83,1.82-1.29,4.19-3.82,5.59a27.8,27.8,0,0,1-8,3.12,2,2,0,0,1,1.37,1.35c.19.7.33,3.22-6.11,5.95A39,39,0,0,1,58.63,89a11.58,11.58,0,0,0-2,.1l-.3.1,0,.08-.11,0-.05,0,0,0h0C47,86.42,42.39,83.89,42.42,81.75c0-1.19,1.45-1.87,2.12-2.12-2-.74-12.06-4.76-16.56-11a11.1,11.1,0,0,1-1.28-2.21,6.71,6.71,0,0,1-.88.06c-3.77,0-9.13-2.85-16-8.5A127,127,0,0,1,.51,49.37c-.17.5-.33,1-.51,1.5,2.17,2.18,5.39,5.28,9,8.23,7.19,5.94,12.72,8.82,16.88,8.82h0a14.49,14.49,0,0,0,1,1.56C30.53,74.58,37.68,78.24,41.63,80A3,3,0,0,0,41,81.73c0,2.11,1.7,4.82,14.64,8.84a1.47,1.47,0,0,0,.31.1,1.22,1.22,0,0,0,.34,0,1.59,1.59,0,0,0,.74-.2l0,0c.29,0,1.08,0,1.57,0A40.29,40.29,0,0,0,74.8,87.51c7.29-3.09,7.27-6.37,6.92-7.63l-.07-.21a33.44,33.44,0,0,0,6-2.64c3-1.67,5.66-4.7,4.42-7.42a3.07,3.07,0,0,0-.32-.54,25.15,25.15,0,0,0,3.8-4.27c6.72,5.4,11.93,8,15.9,8a7.53,7.53,0,0,0,2.2-.32h.19a10.09,10.09,0,0,0,3.3-.93,1.42,1.42,0,0,0,1.14.57h.14c8.73-.22,12.14-2.54,13.4-3.9A3.79,3.79,0,0,0,133,65.48a3.09,3.09,0,0,0-.21-1c6.63-1.73,12-4.36,13.48-6.75a3.28,3.28,0,0,0,.49-2.63,5,5,0,0,0-2.66-3.19c5.7-4.5,9.76-11.4,10.55-15.08A4,4,0,0,0,154.25,33.59Z"/></g></svg>