<svg id="圖層_1" data-name="圖層 1" xmlns="http://www.w3.org/2000/svg" viewBox="0 0 173.46 90.71"><defs><style>.cls-1{fill:#fff;}</style></defs><title>0</title><path class="cls-1" d="M172.92,33.59a3.37,3.37,0,0,0-2.3-1.39,3.69,3.69,0,0,0-.58,0,4,4,0,0,0-.6,0c1.12-3,2.05-6.48,1.25-8.62a3.23,3.23,0,0,0-1.77-1.9,4.46,4.46,0,0,0-1.73-.35,7.52,7.52,0,0,0-5,2.55A4.77,4.77,0,0,0,161,22.52a4.22,4.22,0,0,0-2.62-.9,6.1,6.1,0,0,0-3.16,1,13.13,13.13,0,0,0-3.52,3.49,3.08,3.08,0,0,0-.91-.77,2.56,2.56,0,0,0-.64-.27,18.36,18.36,0,0,0,1.1-6c0-3-1.25-5.37-3.27-6.2a4,4,0,0,0-1.55-.31,4.18,4.18,0,0,0-1.11.15,16.65,16.65,0,0,0-1-2.63c-2-4-4.78-4.81-6.78-4.81-.2,0-.41,0-.61,0-3.05.26-5.45,2.25-6.76,5.6a13.5,13.5,0,0,0-.45,1.36,3.26,3.26,0,0,0-.53-.26,3.85,3.85,0,0,0-1.49-.3A4.3,4.3,0,0,0,126,12c-2.61,1.09-3.29,5.69-3.42,9.2a4.39,4.39,0,0,0-1.6.36c-1.64.72-2.81,2.42-3.46,5a16.72,16.72,0,0,0-.47,3.15c-1.35-4-3.74-9.95-6.82-13.13a8.55,8.55,0,0,0-6-2.89,6.44,6.44,0,0,0-2.17.38,6.91,6.91,0,0,0-4,3.93,8.32,8.32,0,0,0-3.54-.86,6,6,0,0,0-4.2,1.68c-1.45,1.35-2.21,3.42-2.26,6.17h-.35a7.21,7.21,0,0,0-3.46.86c.88-2.63,1.45-5.44.77-7.26a3.23,3.23,0,0,0-1.77-1.9,4.44,4.44,0,0,0-1.72-.35,7.48,7.48,0,0,0-5,2.55,4.8,4.8,0,0,0-1.19-1.36,4.22,4.22,0,0,0-2.61-.9,6,6,0,0,0-3.16,1A11.56,11.56,0,0,0,67,20.07a2.89,2.89,0,0,0-.63-.26,18.35,18.35,0,0,0,1.1-6c0-3-1.26-5.37-3.27-6.21a4.16,4.16,0,0,0-1.55-.31,3.89,3.89,0,0,0-1.12.16,16.28,16.28,0,0,0-1-2.63C58.55.84,55.75,0,53.74,0l-.61,0c-3.05.26-5.44,2.25-6.75,5.6A13.35,13.35,0,0,0,45.93,7a5.2,5.2,0,0,0-.53-.26,3.85,3.85,0,0,0-1.49-.3,4.39,4.39,0,0,0-1.67.35C39.63,7.87,39,12.47,38.82,16a4.34,4.34,0,0,0-1.59.36c-1.65.72-2.81,2.42-3.46,5a17.26,17.26,0,0,0-.48,3.11h-.18a3.25,3.25,0,0,0-.44,0,3.1,3.1,0,0,0-1.18.44c-1.35-4-3.74-10-6.83-13.18a8.57,8.57,0,0,0-6-2.89,6.44,6.44,0,0,0-2.17.38,6.86,6.86,0,0,0-4,3.93A8.4,8.4,0,0,0,9,12.33,6,6,0,0,0,4.75,14C1.89,16.68,2.33,21.69,2.9,24.63a3.61,3.61,0,0,0-2,1.18c-1.28,1.52-1.16,4,.36,7.45,4.35,9.93,9.43,15,15.1,15.2A132.92,132.92,0,0,0,27.63,59.09c7.19,5.94,12.71,8.83,16.88,8.83h0a16.55,16.55,0,0,0,1,1.55C49.2,74.58,56.36,78.24,60.3,80a2.91,2.91,0,0,0-.62,1.77c0,2.12,1.7,4.82,14.64,8.84a1.49,1.49,0,0,0,.3.09,1,1,0,0,0,.34,0,1.6,1.6,0,0,0,.74-.19l0,0c.29,0,1.08,0,1.56,0a40.28,40.28,0,0,0,16.17-2.94c7.29-3.09,7.27-6.36,6.92-7.63a1.72,1.72,0,0,0-.07-.21,33.22,33.22,0,0,0,6-2.64c3-1.67,5.66-4.7,4.41-7.42a2.38,2.38,0,0,0-.31-.54,25.2,25.2,0,0,0,3.8-4.28c6.72,5.4,11.92,8,15.9,8a7.55,7.55,0,0,0,2.2-.32h.19a10.38,10.38,0,0,0,3.3-.93,1.4,1.4,0,0,0,1.13.57h.15c8.73-.22,12.14-2.53,13.4-3.89a3.78,3.78,0,0,0,1.14-2.76,3.24,3.24,0,0,0-.21-1c6.63-1.73,12-4.37,13.48-6.75a3.24,3.24,0,0,0,.49-2.63,5,5,0,0,0-2.65-3.19c5.7-4.5,9.76-11.4,10.55-15.08A4,4,0,0,0,172.92,33.59Zm-1,2.95c-.88,4.12-6,12.07-12.46,16,1.1.08,4,.52,4.58,3a1.93,1.93,0,0,1-.32,1.53c-1.28,2-7.11,5-15.5,6.8.83.14,1.95.56,2,1.77a2.45,2.45,0,0,1-.77,1.71c-.89,1-3.88,3.23-12.4,3.45H137v-.11c0-.1-.09-.51-.19-1.14a10.49,10.49,0,0,1-4.33,1.61h-.07l-.08,0a5.9,5.9,0,0,1-2.14.38c-3.78,0-9.13-2.85-16-8.5l-.25-.21a23.17,23.17,0,0,1-6,6.64,1.5,1.5,0,0,1,1.6.87c.83,1.81-1.29,4.19-3.82,5.59a27.8,27.8,0,0,1-8,3.12A2,2,0,0,1,99,80.26c.2.7.33,3.22-6.11,5.95A39.08,39.08,0,0,1,77.3,89a11.84,11.84,0,0,0-1.94.1l-.31.1,0,.08-.1,0h0l0,0h0c-9.17-2.84-13.81-5.37-13.79-7.51,0-1.19,1.45-1.87,2.13-2.13-2-.73-12.06-4.75-16.56-11a11.86,11.86,0,0,1-1.28-2.2,8.1,8.1,0,0,1-.87.06c-3.77,0-9.13-2.85-16-8.5A130,130,0,0,1,17,47c-5.3.22-10.16-4.61-14.42-14.35-1.27-2.9-1.46-4.91-.58-6A3,3,0,0,1,4.68,26c-.35-1.27-2-8.09,1-11s6.8-.32,7.68.31A5.62,5.62,0,0,1,17,10.59c2.16-.78,4.6,0,6.68,2.16,3.92,4.06,6.73,13.17,7.47,15.73.25-2,1.19-2.48,1.76-2.56a2.51,2.51,0,0,1,1.81.57,17.5,17.5,0,0,1,.46-4.76c.54-2.18,1.44-3.56,2.66-4.09a3.15,3.15,0,0,1,2.42,0c0-1.33.06-8.51,2.57-9.56A2.62,2.62,0,0,1,44.86,8,4.28,4.28,0,0,1,46.8,10a15.15,15.15,0,0,1,.9-3.82c1.12-2.86,3-4.49,5.55-4.7s4.6,1.17,6,4a16.22,16.22,0,0,1,1.33,4.13,2.85,2.85,0,0,1,3.07-.67c1.48.61,2.4,2.49,2.4,4.9a18.31,18.31,0,0,1-2,7.91,2.08,2.08,0,0,1,2.29-.41,2.14,2.14,0,0,1,.81.91,12.19,12.19,0,0,1,3.24-3.28c2-1.26,3.38-.81,4.16-.21A4,4,0,0,1,75.93,22c1-1.37,4-5.07,6.82-3.86a1.8,1.8,0,0,1,1,1.08c1,2.7-1.75,9-2.55,10.69A9.66,9.66,0,0,1,82.88,29,6.05,6.05,0,0,1,88,26.5a4,4,0,0,1,1.58.38c-.2-2.43,0-5.31,1.76-6.94,3-2.77,6.8-.32,7.67.31a5.65,5.65,0,0,1,3.56-4.76c2.17-.78,4.6,0,6.68,2.16,3.92,4.06,6.74,13.18,7.47,15.73.26-2,1.17-2.47,1.75-2.56a16,16,0,0,1,.47-3.83c.54-2.18,1.43-3.55,2.65-4.09a3.09,3.09,0,0,1,2.42,0c0-1.33.06-8.51,2.58-9.57a2.59,2.59,0,0,1,2.06,0,4.36,4.36,0,0,1,1.95,1.93,15,15,0,0,1,.89-3.82c1.12-2.86,3-4.49,5.56-4.71s4.59,1.17,6,4a16.22,16.22,0,0,1,1.33,4.13,2.86,2.86,0,0,1,3.07-.66c1.48.61,2.39,2.49,2.39,4.89a18.26,18.26,0,0,1-2,7.91,2.07,2.07,0,0,1,2.29-.4,3.25,3.25,0,0,1,1.26,2.69A15.67,15.67,0,0,1,156,23.84c2-1.26,3.38-.81,4.16-.21a4,4,0,0,1,1.4,3.22c1-1.37,4-5.07,6.83-3.86a1.8,1.8,0,0,1,1,1.08c1,2.7-1.76,9-2.55,10.69a6.09,6.09,0,0,1,3.61-1.16,2,2,0,0,1,1.36.82A2.73,2.73,0,0,1,171.91,36.54Z"/></svg>