<svg id="圖層_1" data-name="圖層 1" xmlns="http://www.w3.org/2000/svg" viewBox="0 0 96.54 59.25"><defs><style>.cls-1{fill:#fff;}</style></defs><title>0</title><path class="cls-1" d="M96.11,26.31a40.3,40.3,0,0,1-1.22-11.09,31.94,31.94,0,0,0-.79-8.29c-.59-2.18-1.68-3.56-3.25-4.1a3.44,3.44,0,0,0-.55-.15A7.91,7.91,0,0,0,85,0h-.22a6.6,6.6,0,0,0-3.88,1.29h-.14a15,15,0,0,0-2.2.17C68.29,3,68.29,14.23,68.29,24.13V25c0,4.75,0,9.24,1.19,12.6,1.37,3.79,4.1,5.76,8.35,6l.24,0h.16l.51,0a12.25,12.25,0,0,0,4.59-.92,6.67,6.67,0,0,0,1.27.11,11.28,11.28,0,0,0,7.66-3.66C95.08,36.36,97.57,31.49,96.11,26.31ZM91.26,38.18a9.92,9.92,0,0,1-6.66,3.25,5.45,5.45,0,0,1-1.41-.19,10.7,10.7,0,0,1-4.45,1c-.23,0-.43,0-.65,0h0C74.32,42,72,40.41,70.82,37.12,69.7,34,69.7,29.63,69.7,25v-.87c0-9.79,0-19.91,9-21.27a13.52,13.52,0,0,1,2.62-.14,5.24,5.24,0,0,1,3.39-1.3h.17A6.78,6.78,0,0,1,89.61,4a3.56,3.56,0,0,1,.78.14c1.09.38,1.88,1.44,2.35,3.14a31.56,31.56,0,0,1,.73,7.94,41.38,41.38,0,0,0,1.27,11.45C96,31.29,93.79,35.64,91.26,38.18Z"/><path class="cls-1" d="M59.92,24.34a32.47,32.47,0,0,0-.78-8.29c-.59-2.18-1.69-3.55-3.25-4.1a5.12,5.12,0,0,0-.56-.15A7.92,7.92,0,0,0,50,9.13h-.21a6.66,6.66,0,0,0-3.87,1.29h-.16a13.76,13.76,0,0,0-2.2.17C33.32,12.13,33.32,23.35,33.32,33.26v.87c0,4.75,0,9.24,1.2,12.6,1.36,3.79,4.09,5.76,8.35,6a1,1,0,0,0,.24,0h.15l.51,0a12.06,12.06,0,0,0,4.59-.93,6.75,6.75,0,0,0,1.27.12,11.3,11.3,0,0,0,7.67-3.66c2.81-2.83,5.3-7.69,3.84-12.87A40.33,40.33,0,0,1,59.92,24.34Zm-3.63,23a9.89,9.89,0,0,1-6.66,3.24,5.45,5.45,0,0,1-1.41-.18,10.66,10.66,0,0,1-4.45,1c-.22,0-.43,0-.64,0h0c-3.74-.18-6.07-1.79-7.25-5.08-1.12-3.13-1.11-7.5-1.11-12.12v-.87c0-9.79,0-19.91,9-21.27a12.74,12.74,0,0,1,2.62-.14,5.22,5.22,0,0,1,3.55-1.3,6.72,6.72,0,0,1,4.71,2.6,2.67,2.67,0,0,1,.78.14c1.1.38,1.89,1.44,2.35,3.14a30.59,30.59,0,0,1,.73,7.93,41.49,41.49,0,0,0,1.28,11.46C61.07,40.41,58.82,44.77,56.29,47.31Z"/><path class="cls-1" d="M26.6,30.82a32.38,32.38,0,0,0-.78-8.29c-.6-2.18-1.69-3.56-3.26-4.1a3.17,3.17,0,0,0-.55-.15,7.89,7.89,0,0,0-5.35-2.68h-.23a6.59,6.59,0,0,0-3.86,1.29h-.16a15,15,0,0,0-2.19.17C0,18.6,0,29.83,0,39.73v.87c0,4.75,0,9.24,1.2,12.6,1.36,3.8,4.09,5.76,8.35,6l.24,0h.15l.51,0A12.25,12.25,0,0,0,15,58.33a6.67,6.67,0,0,0,1.27.12A11.29,11.29,0,0,0,24,54.78c2.82-2.82,5.31-7.69,3.85-12.87A40.3,40.3,0,0,1,26.6,30.82ZM23,53.78A9.88,9.88,0,0,1,16.31,57a5.05,5.05,0,0,1-1.41-.19,10.66,10.66,0,0,1-4.45,1c-.23,0-.43,0-.65,0h0C6,57.62,3.71,56,2.53,52.72,1.41,49.6,1.41,45.23,1.42,40.6v-.87c0-9.78,0-19.91,9-21.27a13.49,13.49,0,0,1,2.62-.13A5.16,5.16,0,0,1,16.61,17a6.78,6.78,0,0,1,4.71,2.6,3.07,3.07,0,0,1,.78.15c1.09.38,1.89,1.43,2.35,3.13a31.11,31.11,0,0,1,.73,7.94,41.42,41.42,0,0,0,1.28,11.45C27.75,46.89,25.5,51.24,23,53.78Z"/></svg>