<svg id="圖層_1" data-name="圖層 1" xmlns="http://www.w3.org/2000/svg" viewBox="0 0 115.68 74.87"><defs><style>.cls-1{fill:#fff;}</style></defs><title>0</title><path class="cls-1" d="M81,30a7.76,7.76,0,0,0-2.86-1.85,8.65,8.65,0,0,0-3-.53c-2,0-7,.81-9.74,8.35-.24.66-.47,1.35-.69,2A20.6,20.6,0,0,1,63,33.36c-1.37-5.38-4.57-7.67-7-8.63A11.18,11.18,0,0,0,51.86,24a10.09,10.09,0,0,0-5.43,1.51,11.77,11.77,0,0,0-4.3,15.29,16.63,16.63,0,0,0,3.6,5c1.54,1.58,2.46,2.53,2.58,6,.13,3.63,1.91,8,9.68,8.37A8.11,8.11,0,0,1,63,62a7.52,7.52,0,0,1,1.29,1.39,57.73,57.73,0,0,1,0,9.93,1.42,1.42,0,0,0,1.3,1.53l.25,0h.11a1.43,1.43,0,0,0,1.42-1.3,61.62,61.62,0,0,0,0-10.44l.11-.27a3.86,3.86,0,0,0,.44-1c.59-1.9,2-2.46,4.46-3.28,1.86-.63,4-1.33,5.41-3.17a5.59,5.59,0,0,0,1.29-4.7c-.14-1.28-.29-2.73,1.71-6,2.35-3.89,3.11-7.91,2.17-11.16A7.35,7.35,0,0,1,81,30ZM79.56,44c-2.25,3.72-2.06,5.5-1.91,6.93a4.23,4.23,0,0,1-1,3.68c-1.18,1.5-3,2.11-4.74,2.69-2.33.79-4.53,1.53-5.36,4.21a2.35,2.35,0,0,1-.34.71c-.17.42-.28.67-.31.73a57,57,0,0,1,0,10.55l-.25,0a57.6,57.6,0,0,0,0-10.52,7.83,7.83,0,0,0-1.75-2,9.53,9.53,0,0,0-5.84-2.21c-5.45-.24-8.18-2.53-8.33-7-.14-4-1.39-5.26-3-6.89a15.06,15.06,0,0,1-3.34-4.63,10.4,10.4,0,0,1,3.78-13.51,9.33,9.33,0,0,1,8.22-.62c2.14.84,5,2.86,6.16,7.66a19,19,0,0,0,3.7,7.72,41.57,41.57,0,0,1,1.45-4.94c2.63-7.14,7.51-8.22,10.89-7a6.4,6.4,0,0,1,3.86,4C82.5,36.42,81.8,40.23,79.56,44Z"/><path class="cls-1" d="M115.14,9.07a7.83,7.83,0,0,0-4.71-4.86,8.57,8.57,0,0,0-3-.53c-2,0-7,.82-9.73,8.35-.25.67-.48,1.35-.69,2.05a19.92,19.92,0,0,1-1.76-4.69C93.92,4,90.71,1.73,88.26.76A11.13,11.13,0,0,0,84.2,0a10.21,10.21,0,0,0-5.44,1.51,11.79,11.79,0,0,0-4.3,15.3,16.63,16.63,0,0,0,3.61,5c1.53,1.57,2.46,2.52,2.58,5.95A10.49,10.49,0,0,0,81,30a8.07,8.07,0,0,1,1.85,3,4.43,4.43,0,0,1,.13.49C84.4,35,86.71,36,90.33,36.15a8.2,8.2,0,0,1,5,1.87,7.15,7.15,0,0,1,1.29,1.4,56.74,56.74,0,0,1,0,9.93,1.43,1.43,0,0,0,1.3,1.53l.25,0h.12a1.43,1.43,0,0,0,1.41-1.3,60.6,60.6,0,0,0,0-10.44c0-.08.07-.17.12-.27a4.06,4.06,0,0,0,.44-1c.58-1.89,2-2.45,4.46-3.28,1.85-.62,4-1.33,5.4-3.16a5.53,5.53,0,0,0,1.29-4.7c-.13-1.29-.28-2.74,1.72-6.06C115.57,16.63,116.31,12.39,115.14,9.07ZM110,26.91a4.21,4.21,0,0,1-1,3.68c-1.19,1.5-3,2.11-4.74,2.7-2.33.78-4.53,1.52-5.37,4.2a2.1,2.1,0,0,1-.34.72c-.17.42-.28.66-.3.72a58.84,58.84,0,0,1,0,10.55l-.25,0A58.4,58.4,0,0,0,98,39a8,8,0,0,0-1.75-2,9.63,9.63,0,0,0-5.85-2.21c-5.45-.24-8.18-2.53-8.33-7-.14-4-1.39-5.26-3-6.89a15.25,15.25,0,0,1-3.33-4.64,10.4,10.4,0,0,1,3.77-13.5,9.34,9.34,0,0,1,8.22-.63c2.14.85,5,2.86,6.17,7.66a19,19,0,0,0,3.69,7.73,40.49,40.49,0,0,1,1.46-4.95c2.63-7.14,7.51-8.22,10.88-7a6.43,6.43,0,0,1,3.87,4c1,2.92.33,6.73-1.92,10.44S109.83,25.48,110,26.91Z"/><path class="cls-1" d="M81,30a7.35,7.35,0,0,0,2,3.49,4.43,4.43,0,0,0-.13-.49A8.07,8.07,0,0,0,81,30Z"/><path class="cls-1" d="M42,19.94a7.81,7.81,0,0,0-4.71-4.86,8.61,8.61,0,0,0-3-.53c-2,0-7,.82-9.73,8.35-.25.67-.48,1.35-.69,2.05a20.09,20.09,0,0,1-1.76-4.69c-1.37-5.38-4.57-7.66-7-8.63A11.17,11.17,0,0,0,11,10.87a10.12,10.12,0,0,0-5.44,1.51,11.79,11.79,0,0,0-4.3,15.3,16.69,16.69,0,0,0,3.61,5c1.53,1.58,2.46,2.53,2.57,5.95.13,3.63,1.91,8,9.69,8.37a8.23,8.23,0,0,1,5,1.87,6.88,6.88,0,0,1,1.29,1.4,57.7,57.7,0,0,1,0,9.93,1.4,1.4,0,0,0,1.29,1.52l.25,0h.12a1.41,1.41,0,0,0,1.41-1.3,59.6,59.6,0,0,0,0-10.44c0-.08.07-.17.12-.27a4.06,4.06,0,0,0,.44-1c.58-1.89,2-2.45,4.46-3.28,1.85-.62,4-1.33,5.4-3.16a5.61,5.61,0,0,0,1.29-4.71c-.13-1.28-.28-2.73,1.72-6.05C42.38,27.5,43.12,23.26,42,19.94ZM36.79,37.78a4.22,4.22,0,0,1-1,3.68c-1.19,1.5-3,2.11-4.74,2.7-2.33.78-4.53,1.52-5.37,4.2a2,2,0,0,1-.34.71c-.17.42-.28.67-.3.73a58.84,58.84,0,0,1,0,10.55l-.25,0a58.4,58.4,0,0,0,0-10.51,8,8,0,0,0-1.75-2A9.63,9.63,0,0,0,17.2,45.6c-5.45-.24-8.18-2.53-8.33-7-.14-4-1.39-5.26-3-6.9a15.06,15.06,0,0,1-3.33-4.63A10.41,10.41,0,0,1,6.33,13.57,9.33,9.33,0,0,1,14.55,13c2.14.84,4.95,2.86,6.17,7.66a18.88,18.88,0,0,0,3.69,7.72,40.87,40.87,0,0,1,1.46-4.94c2.63-7.14,7.51-8.22,10.88-7a6.41,6.41,0,0,1,3.87,4c1,2.92.33,6.72-1.92,10.44S36.64,36.35,36.79,37.78Z"/></svg>