<svg id="圖層_1" data-name="圖層 1" xmlns="http://www.w3.org/2000/svg" viewBox="0 0 124.28 68.23"><defs><style>.cls-1{fill:#fff;}</style></defs><title>0</title><path class="cls-1" d="M41.08,33.49c.22,0,.44.07.65.12a9.74,9.74,0,0,1,2-1.46l0-.46-.09.1A9.84,9.84,0,0,1,41.08,33.49Z"/><path class="cls-1" d="M124.18,40.72a7.39,7.39,0,0,0-4.81-5.85,7.86,7.86,0,0,0-1.5-.38,9.41,9.41,0,0,0,1.33-16.38,8.13,8.13,0,0,0,.12-1.19,9.44,9.44,0,0,0-9.15-9.71h0A9.4,9.4,0,0,0,101.54,1h-.28A9.34,9.34,0,0,0,92.6,6.72h-.08a9.44,9.44,0,0,0-9.42,9.15,9.21,9.21,0,0,0,0,1.05,9.41,9.41,0,0,0-4.72,6.6,9.53,9.53,0,0,0,0,3.24,9.49,9.49,0,0,0-7.66-4.32h0a9.44,9.44,0,0,0-8.58-6.2h-.28a9.35,9.35,0,0,0-8.66,5.7h-.07a9.41,9.41,0,0,0-6.57,2.7,9.48,9.48,0,0,0-4.16-7.54,9.75,9.75,0,0,0,.11-1.19A9.43,9.43,0,0,0,33.34,6.2h-.05A9.43,9.43,0,0,0,24.72,0h-.29a9.34,9.34,0,0,0-8.65,5.7h-.07a9.39,9.39,0,0,0-9.43,9.16,9.21,9.21,0,0,0,0,1.05,9.36,9.36,0,0,0-4.72,6.6A9.45,9.45,0,0,0,7,32.77a7.5,7.5,0,0,0-1.82.34,7.39,7.39,0,0,0-5,5.66,8.84,8.84,0,0,0,2,7.24c1.63,2.07,5.6,5.56,13.89,5.68h.29a13.13,13.13,0,0,0,7.24-1.85A13.31,13.31,0,0,0,31,52h.76c5.82,0,9.48-1.77,11.67-3.52a10.83,10.83,0,0,0,1,.53,7.5,7.5,0,0,0-1.82.34,7.29,7.29,0,0,0-5,5.66,8.88,8.88,0,0,0,2,7.24c1.63,2.07,5.6,5.56,13.9,5.67h.29A13.12,13.12,0,0,0,61,66.08a13.29,13.29,0,0,0,7.45,2.14h.75C77,68.23,80.87,65,82.51,63.1A8.84,8.84,0,0,0,84.76,56,7.42,7.42,0,0,0,80,50.09a7.73,7.73,0,0,0-1.49-.37,9.71,9.71,0,0,0,1.92-1.18c2.26,2,6.1,4.07,12.47,4.16h.29a13.18,13.18,0,0,0,7.23-1.84A13.45,13.45,0,0,0,107.82,53h.75c7.81,0,11.72-3.22,13.36-5.13A8.87,8.87,0,0,0,124.18,40.72ZM120.85,47c-1.5,1.75-5.06,4.63-12.28,4.63h-.72c-3.65-.09-6.18-1.2-7.44-2.58-1.28,1.29-3.76,2.28-7.27,2.28h-.27c-7.15-.1-10.78-2.83-12.45-4.71a8,8,0,0,1-5.9,2.61h-.24A7.93,7.93,0,0,1,70.35,48a20.58,20.58,0,0,0-5.51,11.59c3.82-.76,5.27-2.75,6.68-4.7a14.84,14.84,0,0,1,2.28-2.64,6,6,0,0,1,9.56,4,7.42,7.42,0,0,1-1.93,6c-1.5,1.76-5.06,4.64-12.28,4.64h-.72c-3.65-.1-6.18-1.21-7.44-2.58-1.29,1.29-3.76,2.28-7.27,2.28h-.27c-7.71-.11-11.33-3.27-12.8-5.14a7.41,7.41,0,0,1-1.7-6,6,6,0,0,1,9.71-3.59,14.34,14.34,0,0,1,2.18,2.74c1.34,2,2.72,4.08,6.56,5a22.92,22.92,0,0,0-2.52-8.69,15.81,15.81,0,0,0-2.5-3.5,8,8,0,0,1-9.06-.57c-1.8,1.72-5.31,3.89-11.57,3.89H31c-3.65-.1-6.18-1.21-7.45-2.58-1.28,1.29-3.76,2.28-7.27,2.28h-.26C8.34,50.16,4.72,47,3.24,45.13a7.43,7.43,0,0,1-1.69-6.05,5.94,5.94,0,0,1,4.08-4.62,5.93,5.93,0,0,1,5.63,1,14.3,14.3,0,0,1,2.17,2.73c1.34,2,2.73,4.08,6.56,5a23,23,0,0,0-2.51-8.69A16,16,0,0,0,15,31,8,8,0,1,1,7.86,16.74a8.3,8.3,0,0,1-.17-1.84,8,8,0,0,1,9.06-7.71,8,8,0,0,1,7.68-5.77h.24a8,8,0,0,1,7.58,6.24,7.71,7.71,0,0,1,1,0,8,8,0,0,1,7.78,8.25,7.76,7.76,0,0,1-.31,1.93,8,8,0,0,1-3.65,15.14h-.24a8.08,8.08,0,0,1-3.94-1.19,20.59,20.59,0,0,0-5.5,11.59c3.81-.76,5.27-2.75,6.68-4.69A13.82,13.82,0,0,1,36.4,36a5.92,5.92,0,0,1,5.66-.81l.1,0A8.11,8.11,0,0,1,45.26,33a8.19,8.19,0,0,1-.16-1.83,8,8,0,0,1,8-7.78h.24c.25,0,.51,0,.8.07a8,8,0,0,1,7.69-5.77h.24a8,8,0,0,1,7.57,6.24,10,10,0,0,1,1,0A8,8,0,0,1,78.18,34a8,8,0,0,1,2.66,2.23,6.25,6.25,0,0,1,1.62-.79,5.93,5.93,0,0,1,5.62,1,14,14,0,0,1,2.18,2.74c1.34,2,2.72,4.07,6.56,5a23,23,0,0,0-2.52-8.7A16.07,16.07,0,0,0,91.8,32a8,8,0,1,1-7.12-14.28,8.24,8.24,0,0,1-.16-1.83,8,8,0,0,1,8.25-7.78,7.75,7.75,0,0,1,.8.06,8,8,0,0,1,7.69-5.77h.24a8,8,0,0,1,7.57,6.25,6.55,6.55,0,0,1,1.05,0,8,8,0,0,1,7.78,8.25,8.23,8.23,0,0,1-.3,1.93A8,8,0,0,1,114,34h-.24a8,8,0,0,1-3.94-1.18c-1.34,1.3-4.45,5-5.51,11.59,3.82-.76,5.27-2.76,6.68-4.7A14.56,14.56,0,0,1,113.22,37a6,6,0,0,1,9.57,4A7.44,7.44,0,0,1,120.85,47Zm-47.12,3.6a6.31,6.31,0,0,0-.84.59,15.8,15.8,0,0,0-2.52,2.9,9.31,9.31,0,0,1-3.65,3.46,19,19,0,0,1,3.92-7.76A9.55,9.55,0,0,0,73.73,50.56Zm-25.34-.74A9.22,9.22,0,0,0,52,49a15.67,15.67,0,0,1,1.59,2.41,20.41,20.41,0,0,1,2,5.93A9.25,9.25,0,0,1,52,53.68a15.21,15.21,0,0,0-2.39-3A5.94,5.94,0,0,0,48.39,49.82ZM11,33.59a9.46,9.46,0,0,0,3.66-.81,15.67,15.67,0,0,1,1.59,2.41,20.82,20.82,0,0,1,2,5.93,9.25,9.25,0,0,1-3.66-3.68,15.66,15.66,0,0,0-2.4-3A6,6,0,0,0,11,33.59Zm32.73-1.44a9.74,9.74,0,0,0-2,1.46c-.21,0-.43-.09-.65-.12a9.84,9.84,0,0,0,2.51-1.7l.09-.1Zm-7.38,2.17a5.72,5.72,0,0,0-.84.59A15.75,15.75,0,0,0,33,37.81a9.37,9.37,0,0,1-3.65,3.46,18.92,18.92,0,0,1,3.92-7.76A9.24,9.24,0,0,0,36.33,34.32Zm43.44-4.05.2.3a9.35,9.35,0,0,0,3.88,3.21,8,8,0,0,0-1.82.34,7.26,7.26,0,0,0-.88.34,9.18,9.18,0,0,0-1.37-1.12,8.13,8.13,0,0,0,.12-1.2A9.69,9.69,0,0,0,79.77,30.27Zm8,4.33a9.59,9.59,0,0,0,3.66-.8,15.67,15.67,0,0,1,1.59,2.41,20.32,20.32,0,0,1,2,5.92,9.31,9.31,0,0,1-3.66-3.68,15.51,15.51,0,0,0-2.39-3A5.82,5.82,0,0,0,87.8,34.6Zm25.35.74a5.51,5.51,0,0,0-.84.59,15.05,15.05,0,0,0-2.51,2.9,9.45,9.45,0,0,1-3.66,3.45,19.12,19.12,0,0,1,3.92-7.76A9.56,9.56,0,0,0,113.15,35.34Z"/></svg>