<svg id="圖層_1" data-name="圖層 1" xmlns="http://www.w3.org/2000/svg" viewBox="0 0 113.44 47.87"><defs><style>.cls-1{fill:#fff;}</style></defs><title>0</title><path class="cls-1" d="M108.63,17.75c-.74-.59-1.59-1.26-2.47-2.06a26.44,26.44,0,0,1-3.79-4.33c-2.73-3.87-6-4.68-8.19-4.68a11.21,11.21,0,0,0-5.46,1.51c-11.08,2.26-12.82,10.08-13,13.63a27.88,27.88,0,0,0-1,3,9.69,9.69,0,0,1,.72,3.11,31.28,31.28,0,0,1,1.69-5.81c.13-3.49,1.73-10.58,12.14-12.6a8.51,8.51,0,0,1,12,2.64,27.52,27.52,0,0,0,4,4.56c.92.85,1.79,1.53,2.56,2.13,2.57,2,4.26,3.35,4.26,7.66,0,7.61-3.89,13-11.57,15.94a13.43,13.43,0,0,1-6.33,1.36,34.32,34.32,0,0,1-9.22-1.5c-7.12-2-9.25-6.19-9.74-9.48a18.59,18.59,0,0,1-.71,2.76c1.34,3.39,4.4,6.48,10.06,8.08a35.62,35.62,0,0,0,9.61,1.56A14.9,14.9,0,0,0,101,43.75c8.24-3.2,12.41-9,12.41-17.23C113.44,21.52,111.32,19.86,108.63,17.75Z"/><path class="cls-1" d="M35.92,31c.17-.88.42-2.09.78-3.45Q34,33,26.85,35.78a13.47,13.47,0,0,1-6.34,1.37,34.78,34.78,0,0,1-9.22-1.5C.49,32.58,1.17,24.56,1.64,22.17l0-.17A33.27,33.27,0,0,1,3.5,15.45C3.64,12,5.24,4.87,15.65,2.86a8.49,8.49,0,0,1,12,2.64,27,27,0,0,0,4,4.55c.92.85,1.79,1.53,2.56,2.14,2.56,2,4.26,3.35,4.26,7.65,0,.36,0,.7,0,1a13.48,13.48,0,0,1,1.32-3c-.5-3.53-2.38-5-4.68-6.83-.74-.59-1.59-1.25-2.48-2.06a26,26,0,0,1-3.78-4.33C26,.81,22.81,0,20.58,0a11.34,11.34,0,0,0-5.46,1.52C4,3.77,2.3,11.59,2.1,15.14A35.2,35.2,0,0,0,.29,21.73l0,.17C-.83,27.43,1.4,34.31,10.91,37a36,36,0,0,0,9.6,1.55,15.09,15.09,0,0,0,6.93-1.48,20.9,20.9,0,0,0,8.41-5.64c0-.08,0-.15,0-.23Z"/><path class="cls-1" d="M62.49,45.1a13.6,13.6,0,0,1-6.34,1.36A34.38,34.38,0,0,1,46.93,45c-10.8-3.07-10.12-11.09-9.65-13.47l0-.18c.17-.84.38-1.91.69-3.1a15.39,15.39,0,0,1-2.15,3.23c-1,5.49,1.31,12.21,10.7,14.88a36,36,0,0,0,9.6,1.55,15.07,15.07,0,0,0,6.92-1.48C69,44.1,72.75,40.47,74.45,35.6a11.73,11.73,0,0,1-.73-2.79C72.62,38.5,68.86,42.63,62.49,45.1Z"/><path class="cls-1" d="M39.8,21.1c1.12-3.46,4-7.49,11.49-8.93a8.49,8.49,0,0,1,12,2.64,27.42,27.42,0,0,0,4,4.56c.93.84,1.8,1.52,2.57,2.13,2.28,1.79,3.87,3.05,4.19,6.35.17-.83.39-1.88.71-3-.85-1.95-2.33-3.11-4-4.45-.75-.58-1.59-1.25-2.48-2.06A26,26,0,0,1,64.41,14c-2.73-3.87-6-4.68-8.19-4.68a11.08,11.08,0,0,0-5.46,1.52c-6,1.23-9.3,4.12-11,7.07a14.33,14.33,0,0,1,.13,1.94C39.84,20.27,39.82,20.69,39.8,21.1Z"/><path class="cls-1" d="M75.24,28.85l0-.17c0-.23.09-.48.14-.74a9.69,9.69,0,0,0-.72-3.11c-.32,1.14-.54,2.19-.71,3,0,.41.07.83.07,1.3a19.44,19.44,0,0,1-.34,3.66,11.73,11.73,0,0,0,.73,2.79,18.59,18.59,0,0,0,.71-2.76A11.88,11.88,0,0,1,75.24,28.85Z"/><path class="cls-1" d="M75.24,28.85a11.88,11.88,0,0,0-.08,4,21.75,21.75,0,0,0,.32-3.69c0-.43,0-.83-.06-1.21,0,.26-.1.51-.14.74Z"/><path class="cls-1" d="M39.14,24.76a13.74,13.74,0,0,1,.66-3.66c0-.41,0-.83,0-1.26a14.33,14.33,0,0,0-.13-1.94,13.48,13.48,0,0,0-1.32,3,16.57,16.57,0,0,1-1.69,6.71c-.36,1.36-.61,2.57-.78,3.45l0,.17c0,.08,0,.15,0,.23A15.39,15.39,0,0,0,38,28.21,28.32,28.32,0,0,1,39.14,24.76Z"/><path class="cls-1" d="M36.7,27.59a16.57,16.57,0,0,0,1.69-6.71,14.61,14.61,0,0,0-.65,3.57A27.4,27.4,0,0,0,36.7,27.59Z"/><path class="cls-1" d="M73.85,28.58a13,13,0,0,0-.13,4.23,19.44,19.44,0,0,0,.34-3.66c0-.47,0-.89-.07-1.3,0,.2-.07.38-.1.55Z"/><path class="cls-1" d="M39.14,24.76A28.32,28.32,0,0,0,38,28.21a18,18,0,0,0,1.8-7.11A13.74,13.74,0,0,0,39.14,24.76Z"/></svg>