<svg id="圖層_1" data-name="圖層 1" xmlns="http://www.w3.org/2000/svg" viewBox="0 0 84.84 95.64"><defs><style>.cls-1{fill:#fff;}</style></defs><title>0</title><path class="cls-1" d="M47.69,46.92A17.89,17.89,0,0,0,46.93,49c.26-.24.54-.49.84-.73.53-.42.76-.76.66-1S48.08,47,47.69,46.92Z"/><path class="cls-1" d="M54.64,37.62a.45.45,0,0,0-.2.09l.23-.06a0,0,0,0,1,0,0Z"/><path class="cls-1" d="M53.18,29.82a1.3,1.3,0,0,0,.37.19c.23.06.36,0,.39,0s.08-.2-.46-.82Z"/><path class="cls-1" d="M51,33.42h0c-.16.19-.32.38-.49.56l.24-.07a5.6,5.6,0,0,0,1.89-.67C52.57,33,51.69,33.23,51,33.42Z"/><path class="cls-1" d="M44.58,30.35a4.33,4.33,0,0,1-1.33-3.83,6.69,6.69,0,0,1-2.82.64,5.14,5.14,0,0,1-1.3-.16,2.89,2.89,0,0,1-2-1.49,3.1,3.1,0,0,0-1.64-1.69c-.06.61-.38,3.2-1.67,4.2l-.16-.2c1.22-.94,1.53-3.54,1.58-4.06a8.59,8.59,0,0,1-2.89-1.22,5.68,5.68,0,0,1-3.07,1.06h-.06c4.29,5.23,9.83,8.48,12.86,9.42a4.51,4.51,0,0,0,3.83-.57A2.51,2.51,0,0,1,44.58,30.35ZM33.33,25.87c-.5-.46-1-.94-1.48-1.45a4.44,4.44,0,0,0,.49-.24,8.9,8.9,0,0,0,1.32.58A7,7,0,0,1,33.33,25.87ZM43.4,31.8a3.11,3.11,0,0,1-.89-.14,24.41,24.41,0,0,1-6.75-3.77,6.79,6.79,0,0,0,.52-1.09,4.55,4.55,0,0,0,2.49,1.58,6.86,6.86,0,0,0,1.66.2,7.71,7.71,0,0,0,1.5-.15,5.19,5.19,0,0,0,1.32,2.62,5.43,5.43,0,0,0,.24.75Z"/><path class="cls-1" d="M84.17,25.13a3.54,3.54,0,0,0-2.74-1.31,4,4,0,0,0-.7.07A35.16,35.16,0,0,0,76,25.21a5.28,5.28,0,0,0-.24-4,3.41,3.41,0,0,0-2.14-1.82c-1.84-.64-1.84-1-1.83-1.51v-.28c0-1.54-1.37-4.31-3.16-5a2.67,2.67,0,0,0-.87-.16,2.4,2.4,0,0,0-1.76.79,3.19,3.19,0,0,0-1.17-.23c-3.2,0-9.14,4.08-12.79,8.66a1.28,1.28,0,0,0-.38-.05,1.6,1.6,0,0,0-.39.05,1.52,1.52,0,0,0-1.08,1,6.89,6.89,0,0,0-.27,1.33,5,5,0,0,0-2.3-.59,3.81,3.81,0,0,0-.59.05,12.12,12.12,0,0,0,1.12-2.41A6,6,0,0,1,49,19.37,1.5,1.5,0,0,0,49.58,18a1.52,1.52,0,0,0-.8-1.25,7.89,7.89,0,0,0-1.24-.51,4.75,4.75,0,0,0,1.05-3.18A5.62,5.62,0,0,0,48,11.14c-.26-.57-.29-.63-.11-1a1.57,1.57,0,0,0,0-1.22A1.74,1.74,0,0,0,47.11,8a6.74,6.74,0,0,0-2.33-.42,5.22,5.22,0,0,0-2.88.82,3.71,3.71,0,0,0-3.49,2.37l-.12.32a2.28,2.28,0,0,0-1.51-1.21A3.08,3.08,0,0,0,36,9.83a3.36,3.36,0,0,0-1,.14,14.59,14.59,0,0,0,.31-2.88,1.56,1.56,0,0,0-1.54-1.51,1.7,1.7,0,0,0-.5.09A5.79,5.79,0,0,1,31.55,6,1.1,1.1,0,0,1,31.11,6a4.88,4.88,0,0,0-2.45-3.08c-.53-.32-.8-.47-1.08-1.69a1.56,1.56,0,0,0-1-1.13A1.41,1.41,0,0,0,26.08,0a1.62,1.62,0,0,0-1,.38A5.74,5.74,0,0,0,23.14,4a5.33,5.33,0,0,0-2.25-.52,4.15,4.15,0,0,0-1.36.22,1.52,1.52,0,0,0-.91.93,4.34,4.34,0,0,0,.05,3.54,1.22,1.22,0,0,1,.14.86A3.61,3.61,0,0,0,19,11a8.69,8.69,0,0,0-1.4-.49c-.81-.22-1.8-.56-2.86-.93A20.67,20.67,0,0,0,9.1,8.17a3,3,0,0,0-1.5.34A2.21,2.21,0,0,0,6.52,10c-.34,1.58.6,2.61,1.76,3.32a7.9,7.9,0,0,0-1.06,6.06l0,0a4.52,4.52,0,0,0-1.83,3.27,1.51,1.51,0,0,0,.37,1.21,1.55,1.55,0,0,0,1.13.52,1.41,1.41,0,0,1,.49.26,4.1,4.1,0,0,0,1.51.68A4.66,4.66,0,0,1,8.5,26C7,28.33,8,30.29,9,31a1.38,1.38,0,0,0,.64.26,4.29,4.29,0,0,0,.19.54A4.1,4.1,0,0,0,10,35l0,0a7.79,7.79,0,0,0-2.07-.3,5.24,5.24,0,0,0-2.93.83A4,4,0,0,0,3,38.89a2.17,2.17,0,0,0,.25.85c-1.3.38-2.48.86-3,1.86a2.45,2.45,0,0,0-.13,2A2.94,2.94,0,0,0,1,44.78a6.77,6.77,0,0,0,.07,1.48,4.23,4.23,0,0,0,2,3.25,2.39,2.39,0,0,0,1,.25,2.93,2.93,0,0,0,1.23-.3,5.9,5.9,0,0,0-.25.63A3.89,3.89,0,0,0,6.3,54.4a6.35,6.35,0,0,0,3.85,4,1.68,1.68,0,0,0,.55.1,1.55,1.55,0,0,0,.71-.17,1.69,1.69,0,0,0,.77-.95c.14-.49.24-.53.88-.82a5.9,5.9,0,0,0,1.8-1.17,5,5,0,0,0,1.37-3.45,8,8,0,0,0,1.55.55,1.24,1.24,0,0,0,.33,0,1.72,1.72,0,0,0,1.08-.43,1.56,1.56,0,0,0,.43-1.43,6.11,6.11,0,0,1,.56-2.08c.59-1.56,1.32-3.5.42-5.27a3.84,3.84,0,0,0-.22-.39h.11a1.5,1.5,0,0,0,1.06-.66A1.54,1.54,0,0,0,21.77,41a6.62,6.62,0,0,0-.33-.94,4,4,0,0,0,2.76-2.72,4,4,0,0,0,1.05-.66,4.06,4.06,0,0,0,1.38-2.8,4,4,0,0,0-1-3,4,4,0,0,0-2-1.24,3.8,3.8,0,0,0-.62-.95A4.08,4.08,0,0,0,20,27.32a.48.48,0,0,1-.09-.1,3.92,3.92,0,0,0-.6-.55v-.11c.05-1.95.42-2.06.88-2.2l.27-.09a5.11,5.11,0,0,0,1.7-1.06l.3.43c2,2.89,4,5.87,7,7.9a21.46,21.46,0,0,1,2.24,1.75,12.78,12.78,0,0,0-2.11,5,4.58,4.58,0,0,0-.83-.08,4,4,0,0,0-4,3.68,4,4,0,0,0-2,5,8.61,8.61,0,0,0-2.48,4.4,1.54,1.54,0,0,0,.53,1.41,1.51,1.51,0,0,0,1,.36,1.47,1.47,0,0,0,.46-.07c.18,0,.59-.16,1-.25A3.53,3.53,0,0,0,23,55.34a2.94,2.94,0,0,1-.15,1.4,5.64,5.64,0,0,0,.17,4.1,1.54,1.54,0,0,0,1.41.93l.3,0a8,8,0,0,0,3-1.49,5.76,5.76,0,0,0,2.14,3.25,1.6,1.6,0,0,0,.91.3,1.68,1.68,0,0,0,.59-.12,1.58,1.58,0,0,0,.94-1.19c.19-1.24.44-1.42.95-1.77a4.9,4.9,0,0,0,2.21-3.26,1.43,1.43,0,0,1,.65-.11,4.69,4.69,0,0,1,.62,0,113.13,113.13,0,0,1-3.83,14.06s-.54,1.7-.81,2.53c-1.84,5.65-3.91,12.06-4.42,17a3.57,3.57,0,0,0,.85,2.71,5.55,5.55,0,0,0,4,1.67c.58,0,2.51.16,3.28.24a2.42,2.42,0,0,0,.38,0c1.88,0,3.41-1.63,3.81-4.07.16-.95.32-2.08.5-3.33a78.25,78.25,0,0,1,2.36-12.09,99,99,0,0,0,3.56-16.82l.1.16c.35.51.52.77.25,2a1.53,1.53,0,0,0,1.5,1.86,1.84,1.84,0,0,0,.41,0A5.79,5.79,0,0,0,52,60.89a4.84,4.84,0,0,0,3,1.82l.23,0a1.63,1.63,0,0,0,1.09-.46,4.31,4.31,0,0,0,1.49-3.2,1.29,1.29,0,0,1,.25-.85,4.46,4.46,0,0,0,.48-.95,3.53,3.53,0,0,0,.89.79,3.82,3.82,0,0,0,2.34,3.48,3.88,3.88,0,0,0,1.46.29,3.83,3.83,0,0,0,1.45-.29,3.78,3.78,0,0,0,2.06-2.06A3.71,3.71,0,0,0,67,58.22c.41.38.45.44.43.85a1.56,1.56,0,0,0,.43,1.14,1.63,1.63,0,0,0,1.11.47,6,6,0,0,0,4.68-2.35A3.71,3.71,0,0,0,76,54.81c0-.11,0-.22,0-.33a2.4,2.4,0,0,0,1.53.56,1.88,1.88,0,0,0,.33,0,4,4,0,0,0,2.83-2.29,6.15,6.15,0,0,0,.49-1.24,2.84,2.84,0,0,0,1.12-.8,2.38,2.38,0,0,0,.5-1.86,4.08,4.08,0,0,0-2-2.52,2.21,2.21,0,0,0,.41-.6,2.58,2.58,0,0,0,.16-.61,4.34,4.34,0,0,0,.14-.6,3.82,3.82,0,0,0-.14-1.68,3.82,3.82,0,0,0,.76-4.38A3.87,3.87,0,0,0,79.81,32a3.27,3.27,0,0,0-.54,0,3.72,3.72,0,0,0-1.65.37,8.12,8.12,0,0,0-.22-1.15,9.51,9.51,0,0,1,3.27-1.11c2.57-.15,3.56-1.21,3.94-2.07A2.79,2.79,0,0,0,84.17,25.13Zm-.85,2.33c-.32.7-1.29,1.14-2.74,1.22a14.06,14.06,0,0,0-5,1.84,6.78,6.78,0,0,1,.58,4h.28a2.29,2.29,0,0,1,.63.19,2.55,2.55,0,0,1,.69-.81,2.45,2.45,0,1,1,2.32,4.26,2.42,2.42,0,0,1,.95,2.3,2.44,2.44,0,0,1-1.52,1.92,2.41,2.41,0,0,1,.56,1.93,2.7,2.7,0,0,1-.12.49,1.34,1.34,0,0,1-.07.35.67.67,0,0,1-.31.31,2.45,2.45,0,0,1-.45.46,2.5,2.5,0,0,1-.86.4c.26.19.56.39.81.56,1,.68,2.19,1.45,2.29,2.15a1,1,0,0,1-.2.77,2,2,0,0,1-1.25.57,4.34,4.34,0,0,1-.51,1.71,2.67,2.67,0,0,1-1.8,1.55c-1,.14-1.87-1.65-2.65-3.23a5.81,5.81,0,0,0-1-1.72c-.24.15.18,1,.5,1.55s.66,1.27.55,1.59a.37.37,0,0,1-.19.2c-.24.1-.46-.1-.63-.26a1.2,1.2,0,0,0-.23-.17c-.07.1,0,.44.15.77a7.72,7.72,0,0,1,.5,2.48,2.41,2.41,0,0,1-1.86,2.34A4.42,4.42,0,0,1,69,59.26h0a.12.12,0,0,1-.09,0,.13.13,0,0,1,0-.1,2.19,2.19,0,0,0-.92-2A4.3,4.3,0,0,1,67,56a2.32,2.32,0,0,1-1,.84,2.11,2.11,0,0,1-.6.15c0,.05.05.09.07.14a2.38,2.38,0,0,1-3.11,3.11,2.37,2.37,0,0,1-1.31-3,2.23,2.23,0,0,1-.44-.13,2.36,2.36,0,0,1-1.4-2.74,3.42,3.42,0,0,0-1.85-.59.7.7,0,0,0-.49.28c-.17.24-.07.49.13.91a2.24,2.24,0,0,1-.08,2.51A2.61,2.61,0,0,0,56.42,59a2.92,2.92,0,0,1-1.08,2.27.14.14,0,0,1-.1,0c-.1,0-2.28-.27-3.2-3.41l-.08.15c-.81,1.65-1.65,3.35-3.63,3.89h0a.09.09,0,0,1-.08,0,.13.13,0,0,1,0-.12,3.24,3.24,0,0,0-.45-3.09,3.54,3.54,0,0,1-.64-2.94,1.16,1.16,0,0,0-.22-.9,2.6,2.6,0,0,0-1-.78c-.27,1.54-.51,3.17-.76,4.89A96.87,96.87,0,0,1,41.53,75.7a80.88,80.88,0,0,0-2.42,12.35c-.17,1.2-.33,2.34-.49,3.29-.24,1.47-1.07,2.89-2.41,2.89l-.22,0c-.82-.09-2.8-.22-3.37-.24a4.23,4.23,0,0,1-3-1.19,2.12,2.12,0,0,1-.51-1.64c.49-4.8,2.55-11.13,4.36-16.72l.77-2.4,0-.13C36.47,65,39,57.22,38.94,49.33c-1.32-.53-2.76-1-3.08-.6-.15.17,0,.56.32,1.11,2.82,4.34,2.06,6.24,2,6.32a.13.13,0,0,1-.14.07c-2-.52-2.93-.25-3.41.06a1.15,1.15,0,0,0-.53.75,3.55,3.55,0,0,1-1.67,2.51,3.25,3.25,0,0,0-1.54,2.72.14.14,0,0,1-.08.1h0a.11.11,0,0,1-.07,0c-1.66-1.22-1.82-3.12-2-5,0,0,0-.1,0-.15a8,8,0,0,1-4.28,3.1.12.12,0,0,1-.14-.08,4.27,4.27,0,0,1-.1-3.17A4.21,4.21,0,0,0,24.36,55a2.21,2.21,0,0,1,.84-2.36c.34-.33.53-.52.45-.81a.69.69,0,0,0-.35-.44c-1-.54-3.44.22-3.46.23a.12.12,0,0,1-.16-.14,7.92,7.92,0,0,1,2.86-4.35,2.58,2.58,0,0,1,1.7-4.26c0-.12-.06-.23-.08-.36a2.59,2.59,0,0,1,4.14-2.39,3.28,3.28,0,0,1,.34.31c.49-4.23,2-6.3,3-7.25a22,22,0,0,0-3.4-2.84c-2.75-1.88-4.73-4.75-6.65-7.53L22.26,21a5.65,5.65,0,0,1-2.29,2l-.23.07c-.81.25-1.81.55-1.89,3.53a2.49,2.49,0,0,1-.16.89,2.51,2.51,0,0,1,1.53,1.42,2.66,2.66,0,0,1,2.73.8,2.58,2.58,0,0,1,.61,1.29,2.67,2.67,0,0,1,2,.9,2.63,2.63,0,0,1,.65,1.93,2.68,2.68,0,0,1-.9,1.83,2.61,2.61,0,0,1-1.35.62,2.65,2.65,0,0,1-2.66,2.57,2.75,2.75,0,0,1-.94-.18,2.78,2.78,0,0,1,.07.81,6.15,6.15,0,0,1,1,1.92.12.12,0,0,1,0,.1.15.15,0,0,1-.09.06,12.72,12.72,0,0,1-2.15,0,2.61,2.61,0,0,1-.92.33,5.77,5.77,0,0,1,2.12,2.1c.61,1.21.06,2.69-.48,4.13a5.85,5.85,0,0,0-.63,2.87.13.13,0,0,1,0,.12.12.12,0,0,1-.12,0s-3.61-.83-4.16-3.72c-.42-2.21-.83-2.29-.88-2.29s-.18.14-.24.36a6.09,6.09,0,0,0,1.29,3.8,4.33,4.33,0,0,1-.22,5.12,4.41,4.41,0,0,1-1.4.89A2.37,2.37,0,0,0,10.82,57a.1.1,0,0,1-.06.08l-.06,0h0a4.81,4.81,0,0,1-3.08-3.44,2.62,2.62,0,0,1-1.09-3A8.54,8.54,0,0,1,7.87,48.2c.24-.31.47-.6.43-.72v0s-.21,0-.3.09-.52.22-.73,0a.37.37,0,0,1-.12-.26c0-.37.52-.86,1.12-1.43s1.25-1.18,1.06-1.42h0c-.28,0-1,.74-1.69,1.39-1.36,1.34-2.9,2.86-3.84,2.38A2.88,2.88,0,0,1,2.49,46a4.46,4.46,0,0,1,.08-1.93,2.22,2.22,0,0,1-1.09-1,1.06,1.06,0,0,1,.06-.85c.35-.68,1.81-1.07,3.09-1.41a4.77,4.77,0,0,0,1.69-.6c-.09-.25-.46-.4-.82-.54s-1-.4-1.08-.92a2.67,2.67,0,0,1,1.29-2c.88-.58,2.41-1,4.86,0a2.59,2.59,0,0,1,.74-1.09,2.43,2.43,0,0,1,.62-.4,2.35,2.35,0,0,1-.29-.26,2.68,2.68,0,0,1-.17-3.28,2.64,2.64,0,0,1-.55-1.78,2.47,2.47,0,0,1,.2-.81,2.9,2.9,0,0,0-1.12.66.14.14,0,0,1-.16,0s-1.46-1-.15-3.06a6.79,6.79,0,0,0,1-3.13,2.16,2.16,0,0,1-2.56-.17A2.2,2.2,0,0,0,6.87,23a.14.14,0,0,1-.09-.05.15.15,0,0,1,0-.1,3.14,3.14,0,0,1,1.32-2.34c.44-.35.72-.58.57-1.28-.38-1.68-.37-5.12,2.26-6.25-2-.81-3.25-1.51-3-2.67a.76.76,0,0,1,.38-.52c1-.54,3.54.35,6,1.2,1.08.38,2.1.73,3,1A10.51,10.51,0,0,1,19.84,13a2.93,2.93,0,0,0,1.58-.28.7.7,0,0,0,.32-.46c.05-.29-.15-.47-.51-.77a2.21,2.21,0,0,1-1-2.29A2.6,2.6,0,0,0,20,7.6a2.89,2.89,0,0,1,0-2.51A.11.11,0,0,1,20,5c.09,0,2.16-.74,4.36,1.68V6.53c0-1.84,0-3.74,1.59-5.08a.14.14,0,0,1,.12,0,.16.16,0,0,1,.09.09,3.26,3.26,0,0,0,1.74,2.6,3.51,3.51,0,0,1,1.85,2.37,1.15,1.15,0,0,0,.59.72c.5.27,1.49.47,3.4-.19a.11.11,0,0,1,.11,0,.17.17,0,0,1,.06.1,15.85,15.85,0,0,1-1.47,6.21,3.21,3.21,0,0,1,.59.09A4.24,4.24,0,0,1,34.2,12a2.6,2.6,0,0,1,2.24-.75c1,.23,1.1,2.23,1.23,4a5.5,5.5,0,0,0,.31,2c.28,0,.2-.95.13-1.62s-.13-1.42.1-1.68a.34.34,0,0,1,.25-.11h0c.26,0,.39.27.49.48s.1.23.14.24.13-.42.15-.77a7.92,7.92,0,0,1,.49-2.48,2.42,2.42,0,0,1,2.61-1.46,4.47,4.47,0,0,1,4.24-.51.16.16,0,0,1,.07.07.12.12,0,0,1,0,.1,2.2,2.2,0,0,0,.1,2.19,4.47,4.47,0,0,1,.44,1.47,4,4,0,0,1-3,3.71A5.59,5.59,0,0,0,41,18.75c-.1.21-.1.35,0,.39s.33.23,2-1.06c2.14-1.68,5.14-.07,5.17-.06a.13.13,0,0,1,.06.1c0,.05,0,.09-.05.11a5.46,5.46,0,0,0-1.31,2.38c-.5,1.32-1,2.69-2.18,3.16a6.26,6.26,0,0,1-3.74,0A13.65,13.65,0,0,1,43.81,26a.14.14,0,0,1,0,.09.15.15,0,0,1-.06.09l0,0a2.23,2.23,0,0,0,1.84-.56A4.35,4.35,0,0,1,46.94,25a3.86,3.86,0,0,1,3.73,1.53c.1-.2.21-.39.31-.6l.28-.52a6.88,6.88,0,0,1,.26-2.22.11.11,0,0,1,.08-.08.13.13,0,0,1,.12,0,2.43,2.43,0,0,0,.71.4c3.53-5,9.7-9,12.38-9h0a.92.92,0,0,1,1.11.8,10.19,10.19,0,0,0,1-1,1,1,0,0,1,1.14-.3c1.12.43,2.21,2.61,2.23,3.68v.24c0,.85,0,1.89,2.79,2.87a2.07,2.07,0,0,1,1.33,1.1,4,4,0,0,1-.25,3.79,4.25,4.25,0,0,0-.64,2.06A33.39,33.39,0,0,1,81,25.28a2.1,2.1,0,0,1,2,.74A1.39,1.39,0,0,1,83.32,27.46Z"/><path class="cls-1" d="M15.47,14.72l-.57-.23a2.56,2.56,0,0,1,.07.82,1.94,1.94,0,0,0,.45,1.46,4.25,4.25,0,0,0,1.2-1.48A9.46,9.46,0,0,0,15.47,14.72Z"/><path class="cls-1" d="M16,16.56l.21-.12a7.92,7.92,0,0,1,1.2-.62c-.2-.14-.4-.28-.61-.41A4.07,4.07,0,0,1,16,16.56Z"/><path class="cls-1" d="M32.27,39.56a21.36,21.36,0,0,1,4.35,2.88,8.91,8.91,0,0,1,2.1,2.64c-.48-4.53-1.76-7.94-4.09-10.77C33.92,35,32.81,36.45,32.27,39.56Zm1.6-.76a10,10,0,0,1,.75-2.09,16.06,16.06,0,0,1,1.72,3.72A20.88,20.88,0,0,0,33.87,38.8Z"/><path class="cls-1" d="M67,53.25l0-.14-.14,0Z"/><path class="cls-1" d="M60,41.24a9.09,9.09,0,0,1-2.49,1.41,5.73,5.73,0,0,1,1.36,3.62l.34,0A2.39,2.39,0,0,1,62.16,45a8,8,0,0,0-.76-4.81Zm-.18,2.55c-.07-.18-.15-.37-.24-.56a8.55,8.55,0,0,0,1.09-.72,7,7,0,0,1,.09,1A4.27,4.27,0,0,0,59.85,43.79Z"/><path class="cls-1" d="M62.5,39.33a8.87,8.87,0,0,1,1,5.68l.06,0a2.39,2.39,0,0,1,1.82,0l.1.06A6.62,6.62,0,0,1,68.8,43.8a14.08,14.08,0,0,1-3.58-1s-.06,0-.06-.08a.11.11,0,0,1,0-.1,6.3,6.3,0,0,1,4-2.5,3,3,0,0,1,2.41.62,4.28,4.28,0,0,0,1.11.72,3.62,3.62,0,0,1,0-.57,3.37,3.37,0,0,1,.09-.34h-.2a2.45,2.45,0,0,1,.7-4.85,2.29,2.29,0,0,1,.63.19,2.44,2.44,0,0,1,.73-.9c.08-.06.17-.1.25-.15a6,6,0,0,0-.38-3.71A117.58,117.58,0,0,0,62.5,39.33Zm6.63-1.78a3.63,3.63,0,0,0,0,1.14l-.15,0A7.77,7.77,0,0,0,64.7,41a9.2,9.2,0,0,0-.4-1.22c1.67-1.26,3.63-2.68,5.64-4.05A3.82,3.82,0,0,0,69.13,37.55ZM73.58,34a1.75,1.75,0,0,0-.24.23,2.48,2.48,0,0,0-.38,0,3.79,3.79,0,0,0-1.07.15q.85-.55,1.71-1.08C73.6,33.53,73.6,33.76,73.58,34Z"/><path class="cls-1" d="M62.54,19.09l-1.37.9.41.13a1.85,1.85,0,0,0,1.52,0A4.2,4.2,0,0,0,62.54,19.09Z"/><path class="cls-1" d="M58.08,26a2.37,2.37,0,0,1,1-.54.42.42,0,0,1,0-.1,3.57,3.57,0,0,1-.94-2.19,3,3,0,0,1,.05-.86,20.22,20.22,0,0,0-2,2,3,3,0,0,1,1.66,1.14A3.1,3.1,0,0,1,58.08,26Z"/><path class="cls-1" d="M69.53,49.05l-.18.28c-.09.15-.19.3-.29.49l-.15.22a2.35,2.35,0,0,1,.13.74,4.72,4.72,0,0,0,1.55-2.32c0-.24,0-.37-.1-.38S70.21,48,69.53,49.05Z"/><path class="cls-1" d="M66.94,31.41c1.39-.86,2.78-1.7,4.22-2.48l-.29-.32a6.74,6.74,0,0,0-2.49-1.8c.05.11.1.22.14.33A2.39,2.39,0,0,1,68.33,29a2.33,2.33,0,0,1-1.42,1.15,2,2,0,0,1-.42.07,2.5,2.5,0,0,1,.36.71A3,3,0,0,1,66.94,31.41Z"/><path class="cls-1" d="M63,19.25c0-.13-.07-.27-.1-.42l-.19.12a5.09,5.09,0,0,1,.34.53A1.55,1.55,0,0,1,63,19.25Z"/><path class="cls-1" d="M60.46,33.79a2.47,2.47,0,0,1-.54-.19,2.16,2.16,0,0,0-.36.87l.7,0A2.5,2.5,0,0,1,60.46,33.79Z"/><path class="cls-1" d="M60.24,34.69c-.33,0-.57,0-.7,0q0,.51-.09,1l.84-.42A2.28,2.28,0,0,1,60.24,34.69Z"/></svg>