<svg id="圖層_1" data-name="圖層 1" xmlns="http://www.w3.org/2000/svg" viewBox="0 0 90.29 112.32"><defs><style>.cls-1{fill:#fff;}</style></defs><title>0</title><path class="cls-1" d="M66.53,33l-.49,0,.17.31Z"/><path class="cls-1" d="M61,56.93a2.51,2.51,0,0,1,0-.27l-.17.12Z"/><path class="cls-1" d="M65,44.17l.15-.1a.56.56,0,0,1,0-.12C65.09,44,65.06,44.1,65,44.17Z"/><path class="cls-1" d="M90.23,46.56c-1.35-4.52-3.69-7.61-7-9.18l-.36-.17a8,8,0,0,0,.74-.68c2.53-2.62,3.61-6.4,3.19-11.22a1.51,1.51,0,0,0-.63-1.12,1.54,1.54,0,0,0-.91-.29,1.74,1.74,0,0,0-.39.05,21.77,21.77,0,0,0-8,4.24,24.12,24.12,0,0,0-2.79-4.86,1.53,1.53,0,0,0-1.24-.63h-.11a1.53,1.53,0,0,0-1.09.57,19.19,19.19,0,0,0-2.1,3.35A16.93,16.93,0,0,0,62.64,22C63,18,62,10.68,52.53,6.41a1.52,1.52,0,0,0-.59-.12,1.8,1.8,0,0,0-.64.14,1.54,1.54,0,0,0-.83.94A20.17,20.17,0,0,0,49.79,14a8.62,8.62,0,0,0-5.38,2.24c-.13-.25-.27-.49-.41-.73-3.42-5.62-9.79-7.47-14.46-8l-.26,0a1.64,1.64,0,0,0-1,.4A1.56,1.56,0,0,0,27.74,9,16.79,16.79,0,0,0,28,11.46a19.36,19.36,0,0,0-2.55,1c-.12-4-2.43-8-6.86-12.07A1.55,1.55,0,0,0,17.56,0l-.23,0a1.52,1.52,0,0,0-1.12.79,22.82,22.82,0,0,0-2.06,6.13,15.21,15.21,0,0,0-5.31-.89A26.35,26.35,0,0,0,1.09,7.37a1.53,1.53,0,0,0-1,.89,1.48,1.48,0,0,0,.06,1.3,17.33,17.33,0,0,0,4,4.75,18.79,18.79,0,0,0-3.27,2A1.65,1.65,0,0,0,.26,18c.25,1.22,2.31,3.35,4.86,4.74a8.87,8.87,0,0,0-.3,1.43,8.5,8.5,0,0,0,1.45,5.88,21,21,0,0,0-4.73,7.4,1.5,1.5,0,0,0,0,1.16,1.74,1.74,0,0,0,.87.86,14.29,14.29,0,0,0,4.76.79,13.17,13.17,0,0,0,3.8-.54,21.9,21.9,0,0,0,.91,4.59,1.6,1.6,0,0,0,.8.94,1.73,1.73,0,0,0,.68.15,2,2,0,0,0,.48-.07,14.49,14.49,0,0,0,3.44-1.87,8.57,8.57,0,0,0,6.61,6.23,17.89,17.89,0,0,0-1.48,7.12A1.56,1.56,0,0,0,22.89,58a1.49,1.49,0,0,0,1.06.43h.11a14.9,14.9,0,0,0,5.21-1.53c-1.1,9.11-4.56,17-7.41,23.52A90.28,90.28,0,0,0,18.4,89a49.73,49.73,0,0,1-4.34,9.48c-2.54,4.57-4.74,8.52-.34,12.17a8,8,0,0,0,5.11,1.63,11.43,11.43,0,0,0,4.51-.94c4.28-1.83,6.93-5.83,7.29-11v-.15c.74-10.77,1.86-27,7.45-32a16.63,16.63,0,0,1,3.1-2.12,19.11,19.11,0,0,0-.71,6.2,1.57,1.57,0,0,0,.59,1.08,1.7,1.7,0,0,0,1,.33l.24,0A13.28,13.28,0,0,0,50,70.06a8.59,8.59,0,0,0,3.47,2,14,14,0,0,0,2.84,7.36,1.73,1.73,0,0,0,1,.64l.24,0a1.72,1.72,0,0,0,1-.35,17.18,17.18,0,0,0,3.62-4.48,15.27,15.27,0,0,0,5.09,4,1.57,1.57,0,0,0,.68.15,1.72,1.72,0,0,0,.55-.1,1.55,1.55,0,0,0,.89-.9,21.8,21.8,0,0,0,1.16-7.2,12.21,12.21,0,0,0-2.23-7l.2,0a8.89,8.89,0,0,0,1,.06,8.58,8.58,0,0,0,8-5.61,10.6,10.6,0,0,0,1.11.06,20.34,20.34,0,0,0,6-1,1.51,1.51,0,0,0,.93-.78,1.67,1.67,0,0,0,.07-1.24,19.34,19.34,0,0,0-6.06-8,18,18,0,0,0,6.48,1.14A19.1,19.1,0,0,0,89,48.52a1.56,1.56,0,0,0,1.19-2Zm-1.38.51a.08.08,0,0,1-.08,0,15.7,15.7,0,0,1-2.66.2A14.91,14.91,0,0,1,77.78,45a27.16,27.16,0,0,0-6.41,2.11,9.41,9.41,0,0,1,5.35.47c5.2,2.08,7.62,8.46,7.64,8.52a.11.11,0,0,1,0,.1.12.12,0,0,1-.07.07,19.25,19.25,0,0,1-5.61.94,12.22,12.22,0,0,1-2.13-.2,7.17,7.17,0,0,1-7,5.75,6.29,6.29,0,0,1-.86-.05,7.17,7.17,0,0,1-6.27-8,7.61,7.61,0,0,1,.25-1.19A34.33,34.33,0,0,1,58,56.94a7.08,7.08,0,0,1,3.51,2.42,7,7,0,0,1,1.22,2.33c5.13,2,6.32,6.23,6.4,9.48A20.06,20.06,0,0,1,68,77.84a.14.14,0,0,1-.07.08h0l-.06,0a12.23,12.23,0,0,1-6-5.82,14.24,14.24,0,0,1-4.25,6.51.11.11,0,0,1-.08,0h0a.19.19,0,0,1-.09,0c-1.91-2.71-2.77-5.29-2.56-7.69a7.16,7.16,0,0,1-5-3c-1.56,2.36-4.22,3.86-7.9,4.45h0a.11.11,0,0,1-.08,0,.13.13,0,0,1,0-.09,16.48,16.48,0,0,1,2.11-9,24.35,24.35,0,0,0-6.85,4c-6,5.37-7.13,21.34-7.93,33v.15c-.31,4.58-2.66,8.14-6.43,9.76a10.17,10.17,0,0,1-4,.82,6.59,6.59,0,0,1-4.21-1.31c-3.49-2.89-1.83-5.87.68-10.38a50.8,50.8,0,0,0,4.45-9.74A90.61,90.61,0,0,1,23.17,81c3.29-7.51,7.16-16.38,7.77-26.95a12.5,12.5,0,0,1-7,3h0a.11.11,0,0,1-.08,0,.12.12,0,0,1,0-.09,14.55,14.55,0,0,1,2.46-8.47,5.36,5.36,0,0,1-.69.06,6.11,6.11,0,0,1-.86-.05,7.17,7.17,0,0,1-6.28-7.89A13.24,13.24,0,0,1,13.39,44h0l-.06,0a.11.11,0,0,1-.06-.07,18.5,18.5,0,0,1-.9-6.28,4.37,4.37,0,0,1-.48.25,11.32,11.32,0,0,1-4.69,1,12.79,12.79,0,0,1-4.25-.71.13.13,0,0,1-.07-.06.17.17,0,0,1,0-.1,18.13,18.13,0,0,1,5.39-7.76c-.18-.19-.36-.39-.53-.6a7.14,7.14,0,0,1-.79-7.59c-3-1.22-5.13-3.59-5.27-4.31a.24.24,0,0,1,.07-.26A15.68,15.68,0,0,1,7.2,14.66,15.3,15.3,0,0,1,1.43,8.91a.14.14,0,0,1,0-.11.11.11,0,0,1,.08-.07c6.9-2.18,11.21-1.19,13.8.33a21.1,21.1,0,0,1,2.14-7.58.13.13,0,0,1,.09-.06.11.11,0,0,1,.11,0c4.34,4,6.5,7.88,6.41,11.6a8.66,8.66,0,0,1-.34,2.18,16.44,16.44,0,0,1,6-2.77A18.12,18.12,0,0,1,29.16,9a.11.11,0,0,1,0-.09.1.1,0,0,1,.1,0c4.43.53,10.37,2.23,13.48,7.36A12.48,12.48,0,0,1,44,19a7.19,7.19,0,0,1,7-3.49l.36.07a18.31,18.31,0,0,1,.42-7.73.14.14,0,0,1,.07-.08H52C61.5,12,61.66,19.41,61.09,23c4.32.94,7.44,4.38,8.87,6.27a20,20,0,0,1,2.8-5.12.13.13,0,0,1,.1,0,.09.09,0,0,1,.1.05,19.43,19.43,0,0,1,3.33,6.67c3.31-4,8.89-5.5,9-5.52a.12.12,0,0,1,.1,0,.15.15,0,0,1,.06.09c.38,4.4-.56,7.8-2.8,10.11a9.7,9.7,0,0,1-3.26,2.19,10.25,10.25,0,0,1,3.28.92c2.91,1.4,5,4.19,6.23,8.31A.14.14,0,0,1,88.85,47.07ZM61,56.93l-.21-.15.17-.12A2.51,2.51,0,0,0,61,56.93Z"/><path class="cls-1" d="M38.76,22.29a11.12,11.12,0,0,1-3-1.08,19,19,0,0,0-1.09,4.85A16.59,16.59,0,0,1,38.76,22.29Z"/><path class="cls-1" d="M16.14,14.4a12.31,12.31,0,0,1-2.28.91A11.64,11.64,0,0,1,18,18.81.14.14,0,0,1,18,19l-.41.44a7.22,7.22,0,0,1,2.17,2.52,11,11,0,0,1,.86-2.84A10,10,0,0,1,16.14,14.4Z"/><path class="cls-1" d="M26.59,23.4a8.29,8.29,0,0,1-3.93,1,9,9,0,0,1-2.23-.28,7.2,7.2,0,0,1,0,2A7.11,7.11,0,0,1,20,27.78a.16.16,0,0,1,.07.07,14.41,14.41,0,0,1,.75,8.06,7.15,7.15,0,0,1,5.58-1.74,7,7,0,0,1,2.93,1,59.6,59.6,0,0,1,1.57-16.59A10.75,10.75,0,0,1,26.59,23.4ZM27.89,33a8,8,0,0,0-1.29-.25,8.6,8.6,0,0,0-4,.49,17.51,17.51,0,0,0-1-5.53,9,9,0,0,0,.32-1.49c0-.16,0-.31,0-.47l.74,0a9.53,9.53,0,0,0,4.6-1.14,8.64,8.64,0,0,0,1.24-.79A60.43,60.43,0,0,0,27.89,33Z"/><path class="cls-1" d="M45.21,39.43c.33-.58.67-1.13,1-1.65-1.48-3.69-1.72-7-.72-9.78a6.47,6.47,0,0,1-.59-.58,13.75,13.75,0,0,1-10.09,4.33H34.5c0,1.2.12,2.4.22,3.59C39.62,34.56,43.11,37.11,45.21,39.43ZM36,33.78c0-.22,0-.44,0-.66a14.91,14.91,0,0,0,7.53-2.66,16,16,0,0,0,.77,6.16,12.43,12.43,0,0,0-7.81-2.85Z"/><path class="cls-1" d="M48.77,49.09a14.87,14.87,0,0,1-4-.56l-1,1.36c-1.63,2.21-3,4.11-2.82,5.46a1.84,1.84,0,0,0,.86,1.23c1.71,1.17,5.6.08,10.1-2.48A15.62,15.62,0,0,1,52,48.62,11.59,11.59,0,0,1,48.77,49.09Zm-5.06,6.54a1.94,1.94,0,0,1-1-.22.57.57,0,0,1-.27-.29c-.13-.76,1.42-2.85,2.56-4.38l.44-.61a15.74,15.74,0,0,0,3.37.37,14.17,14.17,0,0,0,1.6-.09,17.94,17.94,0,0,0,.06,2.92C47.68,54.8,45.27,55.63,43.71,55.63Z"/><path class="cls-1" d="M49.53,40.65a10.47,10.47,0,0,1,1-.38c.3-.1.6-.18.89-.25a7.2,7.2,0,0,1,4.65-5.68A11.31,11.31,0,0,1,56,32.53,38.84,38.84,0,0,0,49.53,40.65Z"/><path class="cls-1" d="M59.71,48.65l.75-.64a6.31,6.31,0,0,1-.72.18Z"/><path class="cls-1" d="M41.51,44.08A11.15,11.15,0,0,1,36.59,43c-.3-.14-.58-.3-.85-.46.64,2.7,1.63,4.89,3,5.14,1.16.21,2.5-1,4-3.67Q42.1,44.08,41.51,44.08ZM39,46.29c-.12,0-.47-.32-.9-1.23a13,13,0,0,0,2,.37C39.35,46.25,39,46.29,39,46.29Z"/><path class="cls-1" d="M63.18,31.73a8.72,8.72,0,0,1,1.07,1.19,10.62,10.62,0,0,1,1.6,3.41,13.28,13.28,0,0,1,3.29-3.8,14.13,14.13,0,0,1,.28-1.47,23.9,23.9,0,0,1-5.44.72C63.7,31.78,63.45,31.74,63.18,31.73ZM66.53,33l-.32.36L66,33.08Z"/></svg>