<svg id="圖層_1" data-name="圖層 1" xmlns="http://www.w3.org/2000/svg" viewBox="0 0 86.86 93.7"><defs><style>.cls-1{fill:#fff;}</style></defs><title>0</title><path class="cls-1" d="M16.36,59.26a11,11,0,0,1,1.1-2.2,1.52,1.52,0,0,1,.79-.6,4.58,4.58,0,0,0-1.47-4C16.69,54.79,16.55,57.07,16.36,59.26Z"/><path class="cls-1" d="M17.54,39.49a7.43,7.43,0,0,1,.65-2.39c-.09-2.14-.21-4.26-.37-6.31C16.54,15.14,20.15,6.73,21.76,3.84A2.61,2.61,0,0,0,21.07.53,2.64,2.64,0,0,0,19.49,0,3.14,3.14,0,0,0,19,.05a2.64,2.64,0,0,0-1.74,1.26c-1.59,2.8-4.26,9-4.77,19.49A7,7,0,0,0,7,24.29a3.19,3.19,0,0,0-1,.52A13.22,13.22,0,0,0,2.22,30a1.56,1.56,0,0,0,0,1.35,1.54,1.54,0,0,0,.87.73A70.1,70.1,0,0,1,.14,48a2.76,2.76,0,0,0,2.63,3.63,2.71,2.71,0,0,0,2-.87,26.39,26.39,0,0,0,7.17-17.5l.07,0a1.55,1.55,0,0,0,.56-1.12,12.3,12.3,0,0,0-1.77-6.46l0-.05a2.89,2.89,0,0,1,1.65-.95c0,2.17.09,4.33.28,6.55.44,5.41.61,11.27.51,17h-.36c-5.86,0-8.77,5.64-9.5,8.62a1.55,1.55,0,0,0,1.5,1.91h.11a14.46,14.46,0,0,0,7.93-2.64c-.15,2.2-.33,4.3-.56,6.28C10.85,75.28,8.18,80.9,6.19,83.35a2.57,2.57,0,0,0,.14,3.4,2.61,2.61,0,0,0,1.86.79h.12a2.55,2.55,0,0,0,1.88-1c2.75-3.42,4.89-9.24,6.29-17a15.18,15.18,0,0,0,4.92,5.82,2.52,2.52,0,0,0,1.49.48,2.6,2.6,0,0,0,1.69-.63,2.54,2.54,0,0,0,.58-3.12,28.17,28.17,0,0,1-2.78-8.68A1.49,1.49,0,0,0,23,63a1.52,1.52,0,0,0,.32-1.33A20.2,20.2,0,0,0,21.4,56.5a3.19,3.19,0,0,0-.72-.87,7.09,7.09,0,0,0-2.4-5c.1-3.2.1-6.42,0-9.6A1.53,1.53,0,0,1,17.54,39.49Zm1.71,16.95a1.57,1.57,0,0,1,.9.74h0A18.66,18.66,0,0,1,21.94,62a.1.1,0,0,1,0,.1s-.07.06-.1.05a3.22,3.22,0,0,1-1-.25,30.17,30.17,0,0,0,3.15,10.9,1.12,1.12,0,0,1-.27,1.39,1.11,1.11,0,0,1-1.41.07A13.63,13.63,0,0,1,16.47,62a2.1,2.1,0,0,1-.37,0c0,.13,0,.28,0,.41-1.22,11.07-3.63,19.12-7,23.27a1.12,1.12,0,0,1-.83.43H8.19a1.17,1.17,0,0,1-.84-.36,1.16,1.16,0,0,1-.06-1.53c3-3.72,5.25-11.21,6.43-21.67.39-3.41.65-7.07.79-10.82-.8,2-3.08,5.13-9.67,5.61h0a.18.18,0,0,1-.1,0,.15.15,0,0,1,0-.11c0-.1,2.24-8.92,9.86-7.36a174.34,174.34,0,0,0-.48-18.75c-.23-2.85-.3-5.47-.27-7.88l-.37,0a4.55,4.55,0,0,0-4.52,2.61,1.78,1.78,0,0,1,.64.61,11.08,11.08,0,0,1,1.57,5.65.11.11,0,0,1-.05.09.1.1,0,0,1-.1,0l-.47-.11a25.08,25.08,0,0,1-6.8,17.76,1.32,1.32,0,0,1-1,.43,1.36,1.36,0,0,1-.7-.2,1.3,1.3,0,0,1-.58-1.57A73.46,73.46,0,0,0,4.65,30.77a3.87,3.87,0,0,1-1,0,.15.15,0,0,1-.09-.06.11.11,0,0,1,0-.11,11.78,11.78,0,0,1,3.39-4.67h0a1.83,1.83,0,0,1,1-.39,5.63,5.63,0,0,1,5.53-3.34l.35,0C14.17,11,17,4.54,18.48,2a1.17,1.17,0,0,1,2,1.14c-1.68,3-5.43,11.72-4.12,27.76a180.58,180.58,0,0,1,.44,20.36A5.66,5.66,0,0,1,19.25,56.44Z"/><path class="cls-1" d="M34,30.69a2.44,2.44,0,0,1-.74.37.18.18,0,0,1-.1,0,.1.1,0,0,1-.06-.08,15.41,15.41,0,0,1,0-6,1.75,1.75,0,0,1,.54-.88,4.62,4.62,0,0,0-4.52-3.18h-.05a74,74,0,0,0,.68,10.37c.36,2.73.65,5.58.88,8.48,4.87.35,6.28,7.76,6.3,7.84a.15.15,0,0,1,0,.11.12.12,0,0,1-.09,0h0c-3.46-.71-5.13-2.61-5.89-4.4A166.54,166.54,0,0,1,31,62.8c-.1,1.73-.24,3.37-.41,5A7,7,0,0,1,35,64.85a16.94,16.94,0,0,1,4.15-.45,85.23,85.23,0,0,0,1.41-14.69,4.53,4.53,0,0,1-1.12.06.17.17,0,0,1-.1-.06.14.14,0,0,1,0-.11,12.8,12.8,0,0,1,3.38-5.17A1.9,1.9,0,0,1,43.86,44a8,8,0,0,1,1.45-2.17,2,2,0,0,1-.24,0A15.82,15.82,0,0,1,34,30.69Zm8.93,12a3.37,3.37,0,0,0-1.08.63A14.2,14.2,0,0,0,38,49.1a1.54,1.54,0,0,0,.12,1.34,1.52,1.52,0,0,0,1,.71A84.13,84.13,0,0,1,38,63a16.9,16.9,0,0,0-3.32.48,11.1,11.1,0,0,0-2.38.88c0-.49.07-1,.1-1.48.28-4.7.31-10,.11-15.37a10.92,10.92,0,0,0,4,1.65l.27,0a1.72,1.72,0,0,0,1.08-.43,1.57,1.57,0,0,0,.44-1.4c-.06-.32-1.45-7.41-6.37-8.77-.22-2.63-.49-5.14-.8-7.47a73,73,0,0,1-.65-8.52A3,3,0,0,1,32,23.93a3.13,3.13,0,0,0-.27.72,16.43,16.43,0,0,0-.05,6.61,1.53,1.53,0,0,0,.71,1,1.43,1.43,0,0,0,.7.21A17,17,0,0,0,43,42.56Z"/><path class="cls-1" d="M54.32,45.65c.24-3,.53-5.81.88-8.44,2.27-17.16-1.39-26.76-3.07-30.09a2.52,2.52,0,0,0-1.68-1.35,2.18,2.18,0,0,0-.63-.08,2.56,2.56,0,0,0-1.47.46,2.6,2.6,0,0,0-.85,3.26c1.47,3,4.65,11.55,2.59,27.12-.07.52-.13,1-.2,1.57a9,9,0,0,0-2.45.57l-.18-.18a32.57,32.57,0,0,1-6.61-8.61,1.54,1.54,0,0,0,.58-.75,1.59,1.59,0,0,0-.15-1.36A23,23,0,0,0,37,23a3.16,3.16,0,0,0-1.56-.75,7,7,0,0,0-4.88-3.59C30.92,10.53,32.88,5.73,33.74,4A2.58,2.58,0,0,0,31.42.27a2.29,2.29,0,0,0-.64.08,2.56,2.56,0,0,0-1.67,1.34C27.44,5,23.81,14.52,26,31.5a16.63,16.63,0,0,0-2.69.93,9.59,9.59,0,0,0-5.12,4.67c0,1.29.1,2.59.13,3.9a2.94,2.94,0,0,0,1,.38,6.34,6.34,0,0,0,1.32.13,7.75,7.75,0,0,0,3.78-1,9.06,9.06,0,0,0,2.36-1.92A163.43,163.43,0,0,1,27.24,63C26.42,75.89,24,81.63,22.17,84.18a2.57,2.57,0,0,0,2.08,4.09h.25a2.57,2.57,0,0,0,1.83-1c2.34-3.23,4.06-8.31,5.11-15.13a8,8,0,0,0,1.29.11,7.21,7.21,0,0,0,4.38-1.49,2.73,2.73,0,0,0,1.09,1,2.82,2.82,0,0,0,1.33.33,2.76,2.76,0,0,0,2.14-1A28.14,28.14,0,0,0,48.38,52l.1-.09a1.3,1.3,0,0,0,.31-.39c-.2,4.53-.24,9-.1,13.25-1.77.8-6.67,3.87-4.76,12.91a1.52,1.52,0,0,0,.94,1.12,1.56,1.56,0,0,0,.57.11,1.72,1.72,0,0,0,.92-.31,19.79,19.79,0,0,0,3.15-3.08c1,7.83,2.82,13.58,5.4,17.14a2.56,2.56,0,0,0,1.84,1l.24,0a2.58,2.58,0,0,0,2.08-4.1c-1.86-2.54-4.25-8.29-5.07-21.21-.29-4.65-.34-9.78-.14-15a11.77,11.77,0,0,0,6.36,2.55h.14a1.52,1.52,0,0,0,1.19-.57,1.53,1.53,0,0,0,.28-1.47C61.72,53.55,59.32,46.62,54.32,45.65Zm-7.5-1.57a4.28,4.28,0,0,1,2.62-1.8c-.23,2.4-.42,4.84-.55,7.28A13.43,13.43,0,0,0,46.82,44.08ZM60.46,54.43a.12.12,0,0,1-.1,0h0c-5.45-.7-7.16-3.64-7.7-5.48a160.43,160.43,0,0,0-.06,19.47c.66,10.51,2.51,18.1,5.34,22A1.16,1.16,0,0,1,57.79,92h0a1.16,1.16,0,0,1-.8.32h-.11a1.15,1.15,0,0,1-.82-.46c-2.85-3.93-4.77-11-5.59-20.67A11.3,11.3,0,0,1,49,73.88a18.42,18.42,0,0,1-3.46,3.56.11.11,0,0,1-.07,0h0a.12.12,0,0,1-.08-.09C43.39,68.23,49,66.1,49.68,65.88a2.08,2.08,0,0,1,.47-.1A177.49,177.49,0,0,1,51,40.71H50.8a6,6,0,0,0-5.73,3.58,1.8,1.8,0,0,1,.52.51,11.79,11.79,0,0,1,2,6,.11.11,0,0,1,0,.09.17.17,0,0,1-.1,0,2.82,2.82,0,0,1-.52-.1,26.78,26.78,0,0,1-6.32,19.36,1.36,1.36,0,0,1-1.06.51,1.51,1.51,0,0,1-.67-.17,1.41,1.41,0,0,1-.71-1.65c.2-.71.38-1.43.55-2.15-1.94,3.37-4.29,4.11-6,4.11a5.65,5.65,0,0,1-1.45-.18,5,5,0,0,1-1-.37c-1,7.35-2.71,12.87-5.1,16.16a1.15,1.15,0,0,1-.82.46h-.11a1.21,1.21,0,0,1-.8-.32A1.16,1.16,0,0,1,23.31,85c2.83-3.87,4.68-11.47,5.34-22a168.31,168.31,0,0,0-.88-28.69,9.93,9.93,0,0,1-4,4.91,6.28,6.28,0,0,1-3.09.83,5.05,5.05,0,0,1-1-.1c-.69-.15-.67-.32-.66-.37.26-2.54,2-4.59,4.93-5.91a17.39,17.39,0,0,1,3.68-1.12c0-.33-.07-.67-.12-1-2.21-16.77,1.31-26,2.93-29.27a1.19,1.19,0,0,1,.76-.61,1.17,1.17,0,0,1,1.34,1.64C31.36,5.62,29.3,11,29.09,19.94h0a5.64,5.64,0,0,1,5.4,3.72,1.8,1.8,0,0,1,1.54.4,21.42,21.42,0,0,1,3.82,4.48.14.14,0,0,1,0,.11.2.2,0,0,1-.08.08,4.17,4.17,0,0,1-1.27.14,35,35,0,0,0,7.76,10.67,1.24,1.24,0,0,1,.4,1.09,7.41,7.41,0,0,1,4.08-1.15h.37c.11-.93.21-1.86.33-2.77,2.12-16-1.2-24.85-2.72-27.94a1.17,1.17,0,0,1,1.34-1.64,1.22,1.22,0,0,1,.76.61C52.49,11,56,20.25,53.8,37c-.43,3.24-.76,6.58-1,9.94,5-.35,7.66,7.28,7.68,7.35A.1.1,0,0,1,60.46,54.43Z"/><path class="cls-1" d="M17.54,39.49A1.53,1.53,0,0,0,18.32,41c0-1.31-.08-2.61-.13-3.9A7.43,7.43,0,0,0,17.54,39.49Z"/><path class="cls-1" d="M86.13,83.75c-2.21-2.26-5.4-7.6-8.06-20.28a167.84,167.84,0,0,1-3.27-31C74.59,15.14,69.59,6.16,67.46,3.1A2.64,2.64,0,0,0,65.61,2l-.28,0a2.56,2.56,0,0,0-1.76.7A2.59,2.59,0,0,0,63.2,6a29.22,29.22,0,0,1,3,6.08,7.9,7.9,0,0,0-4.78,3.82,2.83,2.83,0,0,0-.94.56,12.58,12.58,0,0,0-3.37,5.12,1.54,1.54,0,0,0,1,2,66.08,66.08,0,0,1-2.07,15A2.7,2.7,0,0,0,58.64,42a2.62,2.62,0,0,0,2-.95A24.89,24.89,0,0,0,66.6,24.3l0,0a1.57,1.57,0,0,0,.5-1.15,11.75,11.75,0,0,0-1.86-5.85,3.65,3.65,0,0,1,2.19-1.42,64.91,64.91,0,0,1,2.17,16.65c0,.61,0,1.22,0,1.84A8.74,8.74,0,0,0,65,39.81a4.15,4.15,0,0,0-.51.43,11.74,11.74,0,0,0-2.66,5.06,1.52,1.52,0,0,0,1.06,1.88A60.79,60.79,0,0,1,62.3,61a2.58,2.58,0,0,0,1.56,2.86,2.66,2.66,0,0,0,1,.2,2.46,2.46,0,0,0,.72-.11,13.42,13.42,0,0,0,.18,2.39,1.54,1.54,0,0,0,.75,1.1,1.62,1.62,0,0,0,.77.21,1.86,1.86,0,0,0,.57-.11,13.06,13.06,0,0,0,5-3.84c0,.14.06.26.08.39,2.3,11.17,5.59,19.2,9.5,23.22a2.55,2.55,0,0,0,1.83.77h.12a2.58,2.58,0,0,0,1.73-4.37Zm-.94,2.51a1.12,1.12,0,0,1-.86.44h0a1.16,1.16,0,0,1-.82-.35c-3.72-3.82-6.87-11.61-9.12-22.51-.33-1.61-.63-3.3-.92-5-.58,5.21-6,7.41-6.09,7.44h0l-.06,0a.11.11,0,0,1-.06-.09C66,58.8,71.43,56.27,73,56h0a184,184,0,0,1-1.81-19.4,6,6,0,0,0-3.76,4.33,1.55,1.55,0,0,1,.45.36A9.63,9.63,0,0,1,69.92,46a.17.17,0,0,1,0,.1.18.18,0,0,1-.09,0,2.63,2.63,0,0,1-.41,0,21.79,21.79,0,0,1-3.58,16.11,1.14,1.14,0,0,1-1,.51,1.18,1.18,0,0,1-1.17-1.39,64.23,64.23,0,0,0,.47-15.59,3.68,3.68,0,0,1-.89.13.12.12,0,0,1-.09,0,.09.09,0,0,1,0-.11,10.27,10.27,0,0,1,2.32-4.45h0a1.59,1.59,0,0,1,.69-.42,7.37,7.37,0,0,1,5-5.5c0-.94-.06-1.89-.07-2.81A64.83,64.83,0,0,0,68.5,14.32a5.3,5.3,0,0,0-5,3.13,1.48,1.48,0,0,1,.46.44,10.46,10.46,0,0,1,1.73,5.24.13.13,0,0,1,0,.1.14.14,0,0,1-.09,0l-.45-.08a23.53,23.53,0,0,1-5.56,17,1.21,1.21,0,0,1-.94.45,1.37,1.37,0,0,1-.6-.15A1.24,1.24,0,0,1,57.42,39a69.39,69.39,0,0,0,2.14-16.77,4.18,4.18,0,0,1-1,.05.15.15,0,0,1-.09-.06.11.11,0,0,1,0-.11,11.23,11.23,0,0,1,3-4.55,1.72,1.72,0,0,1,1-.41,6.5,6.5,0,0,1,5.71-3.92,32.53,32.53,0,0,0-3.78-8,1.16,1.16,0,0,1,.17-1.51,1.18,1.18,0,0,1,1.75.19c2.07,3,6.89,11.64,7.09,28.55a169,169,0,0,0,3.31,31.3c2.15,10.3,5.07,17.56,8.42,21A1.15,1.15,0,0,1,85.19,86.26ZM70.4,55.48A23.86,23.86,0,0,0,71,52c.12,1,.25,2,.39,3C71.07,55.13,70.74,55.29,70.4,55.48ZM70,42a10.29,10.29,0,0,0-1-1.51,4.58,4.58,0,0,1,.84-1.36C69.91,40.07,70,41,70,42Z"/></svg>