<svg id="圖層_1" data-name="圖層 1" xmlns="http://www.w3.org/2000/svg" viewBox="0 0 90.6 108.47"><defs><style>.cls-1{fill:#fff;}</style></defs><title>0</title><path class="cls-1" d="M36.59,28c0-.07,0-.13,0-.2l-.12,0Z"/><path class="cls-1" d="M32.05,39.27l.18,0-.1-.21C32.1,39.16,32.08,39.22,32.05,39.27Z"/><path class="cls-1" d="M22.84,23.68l0,0,0,0Z"/><path class="cls-1" d="M27.76,31.65a12.56,12.56,0,0,1-3.61,4.77,10.83,10.83,0,0,1,1.11-.21,9.38,9.38,0,0,1,6.13,1.43c-1.31-2.58-2.42-4.82-3.31-6.92A8.53,8.53,0,0,1,27.76,31.65Zm-.15,3.16.46-.68.39.81C28.19,34.89,27.9,34.84,27.61,34.81Z"/><path class="cls-1" d="M52.9,39.44a4.52,4.52,0,0,1-.5-.23,10.37,10.37,0,0,1-.62,2.45c-1.39,3.52-4.6,5.78-6.78,7a4.81,4.81,0,0,0,2.69,1h.12c4,0,6.73-4.51,8.88-9.91a6.27,6.27,0,0,1-1.49.19A6.14,6.14,0,0,1,52.9,39.44Zm-4.52,8.68a14.29,14.29,0,0,0,4.72-5.93,10.69,10.69,0,0,0,.36-1.09,7.2,7.2,0,0,0,1,.16C52.54,45.48,50.54,47.74,48.38,48.12Z"/><path class="cls-1" d="M44.08,35.9a6.25,6.25,0,0,1-2.29-.44,6.25,6.25,0,0,1-3.53-8.1c.1-.23.2-.45.32-.67A9.66,9.66,0,0,1,35,25.76c-.29-.15-.57-.32-.85-.49.4,1.16.8,2.4,1.22,3.69,1.84,5.63,4,12.11,6.61,16.28a13.6,13.6,0,0,1,2.73-9.38C44.52,35.88,44.3,35.9,44.08,35.9ZM36.59,28l-.08-.23.12,0C36.62,27.89,36.6,28,36.59,28ZM41,40.34c-.68-1.52-1.32-3.17-1.93-4.86a7.92,7.92,0,0,0,2.17,1.3,6.69,6.69,0,0,0,1,.31A14,14,0,0,0,41,40.34Z"/><path class="cls-1" d="M90.55,24.94a1.57,1.57,0,0,0-.86-1A19.78,19.78,0,0,0,81.78,22a12.52,12.52,0,0,0-2.4.23,32.46,32.46,0,0,0,1-7.36,1.6,1.6,0,0,0-.51-1.19,1.58,1.58,0,0,0-1-.39h-.18A19.19,19.19,0,0,0,68.6,18.16l-.41-.32a15.42,15.42,0,0,0-9.37-2.76,29.25,29.25,0,0,0-5.72.62,1.57,1.57,0,0,0-1,.75A1.55,1.55,0,0,0,52,17.69a17.84,17.84,0,0,0,7.66,9l-.18.52A7.23,7.23,0,0,0,58,26.5,7.55,7.55,0,0,0,55.19,26a7.74,7.74,0,0,0-3.06.64,6.71,6.71,0,0,0-.84.44l-.18-.45a7.5,7.5,0,0,0-2.23-2.9c3.22-6-.37-14.4-.4-14.48a1.56,1.56,0,0,0-1.06-.9,1.47,1.47,0,0,0-.36,0,1.61,1.61,0,0,0-.92.31c-3.43,2.55-5.62,5.33-6.53,8.27a18.93,18.93,0,0,0-5.41-2.33c2-4.54,1.41-9.66.47-13.36a1.55,1.55,0,0,0-.91-1A1.62,1.62,0,0,0,33.18,0a1.74,1.74,0,0,0-.83.24c-.06,0-5.9,3.81-7.94,9.69h-.1a7.64,7.64,0,0,0-4.66,1.58C17.26,9.19,13.56,8,8.65,8c-.73,0-1.5,0-2.27.08A1.53,1.53,0,0,0,5,10a17.32,17.32,0,0,0,2.63,5.62A25.29,25.29,0,0,0,.64,19.23a1.55,1.55,0,0,0,0,2.5,23.38,23.38,0,0,0,8.65,3.59,7.69,7.69,0,0,0,1.22,4.55,26.12,26.12,0,0,0-6.6,6.65,1.54,1.54,0,0,0,.78,2.28A22,22,0,0,0,12,40.23a13,13,0,0,0,4.48-.76A33.88,33.88,0,0,0,12.12,45a1.53,1.53,0,0,0-.19,1.28,1.56,1.56,0,0,0,.86,1,19.88,19.88,0,0,0,7.36,1.46,14.87,14.87,0,0,0,3.55-.41.61.61,0,0,0,.05.12,7.7,7.7,0,0,0,7,4.61,7.49,7.49,0,0,0,3-.64,7.62,7.62,0,0,0,2.33-1.58c.59,1.35,1.16,2.68,1.72,4,8.46,20.47,7.52,33.91,6.95,41.94-.33,4.69-.54,7.79,1.29,9.79,1.16,1.26,2.9,1.85,5.65,1.89h.3c3,0,5.12-.79,6.44-2.41,2.73-3.38,1.34-9.44-.78-18.6a187,187,0,0,1-3.95-21.33c-.64-5.58,1.81-9.37,4.91-14.18l.6-.94a19,19,0,0,0,3.46,9.48,1.48,1.48,0,0,0,1.11.69l.19,0a1.57,1.57,0,0,0,1.1-.47A23.19,23.19,0,0,0,68,57.12,19.45,19.45,0,0,0,69.57,54c.2.32.43.63.66.93A14.49,14.49,0,0,0,79,59.85h.19a1.54,1.54,0,0,0,1.52-1.3c.73-4.49.34-8.15-1.13-10.93a26.46,26.46,0,0,0,4-.74,1.55,1.55,0,0,0,1.14-1.75,13.9,13.9,0,0,0-1.51-4,24.72,24.72,0,0,0,3.62-.29A1.54,1.54,0,0,0,88,38.77a19.68,19.68,0,0,0-4.49-6.71,24.33,24.33,0,0,0,6.78-5.81A1.5,1.5,0,0,0,90.55,24.94Zm-1.39.47c-.06.07-3.69,4.73-8.42,6.34,2.38,1.41,4.38,4,6,7.59a.14.14,0,0,1,0,.11.15.15,0,0,1-.09.06,22.69,22.69,0,0,1-3.56.26,21.17,21.17,0,0,1-2.67-.16,12.89,12.89,0,0,1,3,5.77.13.13,0,0,1-.09.14,22.06,22.06,0,0,1-5.52.78c-.32,0-.62,0-.93-.06l.22.21C79.4,49,80.17,53,79.31,58.33a.12.12,0,0,1-.12.11h0A13,13,0,0,1,71.34,54a11.57,11.57,0,0,1-2.22-4.87,13.85,13.85,0,0,1-2.36,7.21,20.38,20.38,0,0,1-2.63,3.39.09.09,0,0,1-.08,0h0a.18.18,0,0,1-.09-.06c-2.77-4.22-3.77-8.11-3-11.55a9.91,9.91,0,0,1,.93-2.46,5.52,5.52,0,0,1-.64-.79C60,47.26,58.71,49.31,57.5,51.2c-3.13,4.84-5.83,9-5.13,15.1a187.77,187.77,0,0,0,4,21.49c2,8.76,3.36,14.54,1.06,17.39-1,1.26-2.78,1.88-5.34,1.88h-.28c-2.32,0-3.75-.48-4.62-1.44-1.43-1.55-1.23-4.41-.92-8.73.57-8.15,1.53-21.8-7.06-42.58-.95-2.3-1.87-4.39-2.76-6.33a6.19,6.19,0,0,1-5.65,3.65,6.06,6.06,0,0,1-2.29-.44,6.19,6.19,0,0,1-3.44-3.32,5.58,5.58,0,0,1-.4-1.3,13.44,13.44,0,0,1-4.5.75A18.6,18.6,0,0,1,13.36,46a.18.18,0,0,1-.07-.08.14.14,0,0,1,0-.11A26.54,26.54,0,0,1,20,38.38c-.19-.85-.34-1.68-.45-2.47a10,10,0,0,1-1.72,1.38A10.85,10.85,0,0,1,12,38.81a20.75,20.75,0,0,1-6.86-1.34.11.11,0,0,1-.08-.08.14.14,0,0,1,0-.11,23.42,23.42,0,0,1,7.56-7A6.26,6.26,0,0,1,10.9,24.1a21.18,21.18,0,0,1-9.43-3.52.12.12,0,0,1,0-.2,22.38,22.38,0,0,1,8.67-4A15.18,15.18,0,0,1,6.35,9.67a.14.14,0,0,1,0-.11.13.13,0,0,1,.09,0c5.85-.39,10.05.71,12.47,3.27a6.83,6.83,0,0,1,.62.75,6.28,6.28,0,0,1,5.89-2.08c1.44-6,7.58-10,7.67-10a.13.13,0,0,1,.12,0,.11.11,0,0,1,.07.08c1,4,1.56,9.52-1.21,14,2.67.5,6.13,1.59,8.47,3.93.22-3.43,2.38-6.7,6.43-9.72a.12.12,0,0,1,.1,0,.11.11,0,0,1,.08.07c0,.11,3.83,9.07-.25,14.36a6.17,6.17,0,0,1,2.89,3,6.26,6.26,0,0,1,.51,2.61A6.32,6.32,0,0,1,52.7,27.9a6.21,6.21,0,0,1,7.38,1.87c.45-1.38.88-2.65,1.3-3.73a16.36,16.36,0,0,1-8.08-8.79.12.12,0,0,1,0-.1.16.16,0,0,1,.08-.06c5.93-1.2,10.63-.57,14,1.89a9.91,9.91,0,0,1,1.36,1.19c3.68-4.64,10.07-5.46,10.13-5.47a.13.13,0,0,1,.1,0,.11.11,0,0,1,0,.09,26.28,26.28,0,0,1-1.91,9.74,1.86,1.86,0,0,1,.19-.11c3.14-1.61,7.13-1.35,11.86.76a.11.11,0,0,1,.07.08A.14.14,0,0,1,89.16,25.41Z"/></svg>