<svg id="圖層_1" data-name="圖層 1" xmlns="http://www.w3.org/2000/svg" viewBox="0 0 97.06 99.02"><defs><style>.cls-1{fill:#fff;}</style></defs><title>0</title><path class="cls-1" d="M12.35,32h0Z"/><path class="cls-1" d="M43.25,43a3.62,3.62,0,0,1-.09,1,6.7,6.7,0,0,1,1.76.83c-.26-.33-.53-.66-.86-1S43.52,43.3,43.25,43Z"/><path class="cls-1" d="M91,14.92a9.12,9.12,0,0,0-2.36-.33,6.82,6.82,0,0,0-3.78,1.09,6.5,6.5,0,0,0-1,.73,7.07,7.07,0,0,0-.7.5c4-6.22,5.7-9.22,5.19-11.15a2.24,2.24,0,0,0-1.13-1.43A2.58,2.58,0,0,0,86.08,4c-1.67,0-3.5,1.49-6.24,5.26a18.42,18.42,0,0,0-5-8.79A1.54,1.54,0,0,0,73.69,0h-.16a1.53,1.53,0,0,0-1.17.75c-.06.1-5.52,9.61,2.19,16.62l-1,1.61a92.17,92.17,0,0,1-6.88-8.5c-1.27-1.85-2.26-3.61-3.06-5C62.06,2.63,61,.78,59.14.78a2.44,2.44,0,0,0-.55.06,2.29,2.29,0,0,0-1.68,1.37c-.58,1.41-.12,3.52,3.93,9.73.5.78,1,1.6,1.62,2.44a11.51,11.51,0,0,0-4.06-.75,12.61,12.61,0,0,0-7,2.25,1.55,1.55,0,0,0-.25,2.37,17.31,17.31,0,0,0,1.66,1.46c-.52.08-1.06.19-1.57.32a11.61,11.61,0,0,0-3.42-3.16c2.07-6.79,1.88-8.35.7-9.13a2.29,2.29,0,0,0-1.26-.4,2.25,2.25,0,0,0-.68.11c-1.42.48-2.1,2-3.69,6.39A11.88,11.88,0,0,0,37,8.94a1.71,1.71,0,0,0-.59-.11,1.64,1.64,0,0,0-.75.19,1.51,1.51,0,0,0-.77,1.11c0,.09-1.22,8.43,5.39,11.78-.46,1.56-.88,3.06-1.24,4.33-3-2.91-6.52-6-9.93-8.79a10.4,10.4,0,0,0,2-2.62c1.32-2.46,2.31-6.73-.48-13.1a1.51,1.51,0,0,0-1-.88,1.58,1.58,0,0,0-.38,0,1.65,1.65,0,0,0-.91.3c-.07,0-6,4.54-5,11.83C17.5,8.65,13.42,6.49,11.16,6.49a3.26,3.26,0,0,0-.72.07A2.55,2.55,0,0,0,8.51,8.19c-.86,2.28,1.4,4.72,6.19,8.61a7.2,7.2,0,0,1-.26,1.53c-.49,0-1.06.05-1.64.05s-1.1,0-1.58-.06H11a1.54,1.54,0,0,0-1.34,1.09,6.79,6.79,0,0,0-3,1.69A6.62,6.62,0,0,0,5.2,29,5.84,5.84,0,0,0,7,31a19.19,19.19,0,0,0-2.85-.28c-1.66,0-2.67.54-3,1.6a2.73,2.73,0,0,0,.4,2.41,5.94,5.94,0,0,0,2.18,1.75c-3.82,2.91-4,8.64-3.61,11A1.55,1.55,0,0,0,1,48.71a1.57,1.57,0,0,0,.64.14,1.67,1.67,0,0,0,.79-.22,20.39,20.39,0,0,0,3.91-3c-1.51,3.5-.8,8.24,3.05,10.31a6.47,6.47,0,0,0,3.1.77,8.49,8.49,0,0,0,3.88-1,9.6,9.6,0,0,0,3.32.59,8.1,8.1,0,0,0,7.17-4,7.32,7.32,0,0,0,.5-6.41,8,8,0,0,0-5.06-4.79,9,9,0,0,0-2.75-.46,5.69,5.69,0,0,0-.72,0l-.15-.56c2.58.33,5.18.56,7.53.67l3.32.14c5.1.2,8.14.32,10.55,1.55v.35a4.2,4.2,0,0,1-1,.09h0a6.79,6.79,0,0,1-3.24-1.23,1.51,1.51,0,0,0-.9-.29,1.73,1.73,0,0,0-.82.24,1.56,1.56,0,0,0-.7,1.57l.09.44,0,0a7.47,7.47,0,0,0-4.09,7.41,5.47,5.47,0,0,0,1.8,3.93,6.16,6.16,0,0,0,4.08,1.3c.3,0,.58,0,.83,0A9.08,9.08,0,0,0,42.3,59a7.46,7.46,0,0,0,3.64-.95,8.08,8.08,0,0,0,3.16-3.22,41.6,41.6,0,0,0,3.2,4c5.38,6.06,11.91,26,14.07,34.2.76,2.89,1.95,6,6.51,6a16.38,16.38,0,0,0,2.67-.26,4.34,4.34,0,0,0,3.3-2.27c1.61-3.11-.32-8.46-3.7-15.54-5.29-11.08-7.67-21.76-7-31.21a7.14,7.14,0,0,0,2.73,1.92,8,8,0,0,0,6.39-.2,9.36,9.36,0,0,0,4-3.56,7.43,7.43,0,0,0,5.67-4.08c1.75-3.93-.49-8-3.75-9.93.26.07.52.14.79.19a8.13,8.13,0,0,0,1.38.12c3.92,0,6-3.14,6.74-4.54a7.9,7.9,0,0,0,5-7.43C97,18.7,94.71,15.89,91,14.92Zm.08,13.59c-.21.52-1.91,4.28-5.72,4.28a6.54,6.54,0,0,1-1.13-.11,5.86,5.86,0,0,1-4.74-4.78,5.14,5.14,0,0,1,0-1.46,4.33,4.33,0,0,1-1.69-.68.13.13,0,0,1-.05-.12.13.13,0,0,1,.08-.1,7.16,7.16,0,0,0,3.43-3.3,7.59,7.59,0,0,1-1.87-1.95c-2.4,3.75-5,8-7.25,12.23a7.88,7.88,0,0,1,.78,2.54c.05.26.11.52.17.79a5.12,5.12,0,0,0,.65,1.58l.42-.08c2.09-2.62,5.5-3.71,8-2.42,2.88,1.47,5,5,3.5,8.32-1.3,2.92-4.71,3.3-5.26,3.34a7.94,7.94,0,0,1-3.69,3.58,6.62,6.62,0,0,1-2.82.64,6.79,6.79,0,0,1-2.45-.47,5.94,5.94,0,0,1-3.48-3.86,6.65,6.65,0,0,1,.88-5.67,6,6,0,0,1,3.28-2.59,10.46,10.46,0,0,1-1.29-3.11,40.88,40.88,0,0,0-3.38,9.46c-2.15,10.89.08,23.68,6.44,37,2.77,5.8,5.14,11.54,3.72,14.27a2.93,2.93,0,0,1-2.28,1.53,14.49,14.49,0,0,1-2.43.24c-3.23,0-4.29-1.66-5.14-4.9-1.47-5.58-8.22-27.84-14.38-34.78a34.87,34.87,0,0,1-4.79-6.62,6.35,6.35,0,0,1-3.32,5.52,6.06,6.06,0,0,1-3,.78,8,8,0,0,1-5.65-2.72l-.24,0c-.87.07-2.89.26-4.27-.91a4.11,4.11,0,0,1-1.31-3,6.12,6.12,0,0,1,3.32-6,6,6,0,0,1,1.17-.45A6.18,6.18,0,0,1,34.86,43a.12.12,0,0,1,.06-.13.14.14,0,0,1,.14,0,8.36,8.36,0,0,0,4,1.5h.11a4.63,4.63,0,0,0,1.59-.24,4.5,4.5,0,0,1,.63-.15,4.89,4.89,0,0,0,.09-1.07,2,2,0,0,1,.2-1.11c-2.87-1.88-6.25-2-12.11-2.25l-3.31-.14c-3-.15-6.5-.5-9.9-1a9.75,9.75,0,0,1,1.31,4,6.05,6.05,0,0,1,4.18,0,6.61,6.61,0,0,1,4.17,3.94,6,6,0,0,1-.39,5.18c-2.09,3.52-6.38,3.92-9.38,2.52a7.37,7.37,0,0,1-3.78,1.18,5,5,0,0,1-2.43-.61C6.87,53,6.38,48.92,7.76,46c1.2-2.56,4.57-3.79,7.83-3l.38-.2a5.64,5.64,0,0,0-.45-1.64c-.12-.25-.24-.49-.35-.73a8.8,8.8,0,0,1-.93-2.37,59.87,59.87,0,0,1-6.13-1.39,6.35,6.35,0,0,1,.08,3.22c-.42,1.91-1.88,4.76-6.47,7.52a.07.07,0,0,1-.06,0h0a.11.11,0,0,1-.07-.09c0-.1-1.3-9.3,5.74-10.92C5,35.69,3.36,34.86,2.73,34a1.3,1.3,0,0,1-.22-1.17c.37-1.14,3.77-.53,9.75.64,7.63,1.5,18.07,3.55,19.25-.57,1.08-3.77-6.19-9.49-12.61-14.53l-1-.83a14.07,14.07,0,0,1-.45,2.41,14.1,14.1,0,0,1,2.71,2,5,5,0,0,1,2.53,2.2,5.22,5.22,0,0,1-1.22,6.43,5.82,5.82,0,0,1-4,1.62,8.49,8.49,0,0,1-4.73-1.69c-2.83.64-5.15-.16-6.23-2.16a5.21,5.21,0,0,1,1.15-6.2,5.39,5.39,0,0,1,3.32-1.51,5,5,0,0,1,.05-.79.17.17,0,0,1,.13-.1,29,29,0,0,0,4.37-.05,9.15,9.15,0,0,0,.67-3.54c-4-3.19-6.9-5.86-6.3-7.45A1.13,1.13,0,0,1,10.73,8c2.52-.54,9.35,4.3,13.19,7.22.71.55,1.44,1.11,2.17,1.69C21.46,8,29,2.3,29.09,2.24a.12.12,0,0,1,.1,0,.11.11,0,0,1,.08.07C31.84,8.15,31,12,29.81,14.16a8.56,8.56,0,0,1-3,3.27,172.85,172.85,0,0,1,13,11.5c.47-1.76,1.31-4.79,2.22-7.82-6.92-2.5-5.73-10.68-5.71-10.76a.11.11,0,0,1,.06-.09.14.14,0,0,1,.11,0c4.9,2,6.2,5.5,6.44,8,.28-.86.56-1.68.83-2.43C45.42,11,46.15,9.09,47,8.8a.78.78,0,0,1,.71.12c.7.47-.25,4.29-1.64,8.74,1.1.31,2.8,1.38,4.58,4A15,15,0,0,1,54.12,21a5.24,5.24,0,0,1,2.27-.58,19.3,19.3,0,0,1-4.22-3.12.14.14,0,0,1,0-.1.15.15,0,0,1,.06-.09c8.32-5.49,14.71,2,14.78,2a.12.12,0,0,1,0,.17,7.35,7.35,0,0,1-5.44,2.55h-.09a8.27,8.27,0,0,1-1.49-.15,5.71,5.71,0,0,1,1.85,4.17c.12,5.39-5.39,6.67-6,6.81-1.22,2.26-3,3.52-4.94,3.52a5.05,5.05,0,0,1-1-.11,5.41,5.41,0,0,1-4.07-5.15,5.65,5.65,0,0,1,1.08-3.64,4.5,4.5,0,0,1-.58-.58.14.14,0,0,1,0-.17,30.38,30.38,0,0,0,2.95-3.47,10.48,10.48,0,0,0-3.56-3.91c-1.42,4.35-3.13,9-4.1,11.59.47.47.94.95,1.39,1.42,5.56,5.72,10,10.24,14.27,9.82,2.62-.25,5.18-2.34,7.84-6.38,2.17-3.3,4.46-7.08,6.69-10.79-1.55-2.07-6.51-8.74-9.7-13.63-3-4.66-4.24-7.34-3.8-8.42a.88.88,0,0,1,.67-.53c1.17-.26,2,1.32,3.5,3.92.82,1.45,1.82,3.25,3.14,5.15A100.12,100.12,0,0,0,73.8,21.34c.89-1.47,1.76-2.9,2.6-4.26-8.15-6.29-2.87-15.51-2.82-15.6a.13.13,0,0,1,.09-.06.12.12,0,0,1,.11,0c4.56,4.85,5.14,8.88,4.82,11.41a8,8,0,0,1-.19,1C82,8.34,85,4.72,86.61,5.59a.84.84,0,0,1,.42.53C87.45,7.71,84.68,12,80.85,18L80,19.3a4.62,4.62,0,0,1,.7.74,6.32,6.32,0,0,0,1,1,7.52,7.52,0,0,1,3.06-3.55,6.78,6.78,0,0,1,.84-.66,6.07,6.07,0,0,1,5-.58c3.11.81,5,3,5,5.95A6.43,6.43,0,0,1,91.08,28.51Zm-9.45,4.7A6.83,6.83,0,0,0,79.81,33a8.6,8.6,0,0,0-5.48,2.12l-.07-.34a14.72,14.72,0,0,0-.57-2.21c1-1.91,2.11-3.81,3.22-5.65h0a5,5,0,0,0,1.09.6c0,.22,0,.43.08.65A7.26,7.26,0,0,0,81.63,33.21ZM8.46,43a9.77,9.77,0,0,0,1.12-2.79,8.88,8.88,0,0,0,.19-1.61c1,.25,2.14.48,3.34.71.2.56.49,1.15.78,1.76l.14.3H13.6A8.52,8.52,0,0,0,8.46,43Zm3.89-11h0Zm12-7.38c3.45,3,6.28,6.06,5.77,7.84-.35,1.22-3,1.4-4.52,1.4a41.73,41.73,0,0,1-6.15-.57,7.48,7.48,0,0,0,2.89-1.68A6.66,6.66,0,0,0,24.38,24.62Zm38.29-1.46A8.62,8.62,0,0,0,67.18,21C68.32,22.6,69.32,24,70,24.88c-2.13,3.55-4.21,7-6.16,9.93-2.38,3.61-4.66,5.55-6.79,5.75l-.42,0c-1.83,0-3.85-1.17-6.06-3h.23a7,7,0,0,0,5.87-3.72c1.85-.53,6.65-2.45,6.53-8.06A7.45,7.45,0,0,0,62.67,23.16ZM45,27.46A7.07,7.07,0,0,0,44.3,31c0,.21,0,.42.05.62l-1.18-1.21c.81-2.17,2-5.49,3.16-8.85a8,8,0,0,1,1.16,1.41,25.32,25.32,0,0,1-2.23,2.56A1.53,1.53,0,0,0,45,27.46Z"/></svg>