<svg id="圖層_1" data-name="圖層 1" xmlns="http://www.w3.org/2000/svg" viewBox="0 0 90.3 53.9"><defs><style>.cls-1{fill:#fff;}</style></defs><title>0</title><path class="cls-1" d="M27.34,32.43a4.81,4.81,0,0,1-.41.54,7.35,7.35,0,0,1,0,1.15c.34,0,.7.06,1.09.12l0-.06A5.37,5.37,0,0,1,27.34,32.43Z"/><path class="cls-1" d="M32.1,36.1a6.61,6.61,0,0,1,1.48,2.19c0-.25,0-.5,0-.74a4.7,4.7,0,0,1,.18-.95,11.23,11.23,0,0,1-1.11-1.26A2.57,2.57,0,0,1,32.1,36.1Z"/><path class="cls-1" d="M53.45,29.9a5.62,5.62,0,0,1-2.34,1.28A2,2,0,0,1,51.85,33c-.28,1.17-2.64,2.57-5.27,2.14a4,4,0,0,1,.12.87,7,7,0,0,1,4.78.05,5.85,5.85,0,0,1,1.94,1.2v0a6.55,6.55,0,0,1,1.47,1.91,6.1,6.1,0,0,1-.09-1.4s0,0,0,0,0-.06,0-.1,0-.29.06-.43a5.84,5.84,0,0,1,1.41-3,38,38,0,0,1-2.37-3A2.6,2.6,0,0,1,53.45,29.9Zm.34,5.83a7.75,7.75,0,0,0-1.49-.86,3.34,3.34,0,0,0,.93-1.54,2.68,2.68,0,0,0,.07-.56c.36.48.79,1,1.18,1.49A7.08,7.08,0,0,0,53.79,35.73Z"/><path class="cls-1" d="M60.78,28.88a6.11,6.11,0,0,1-4.21,1.43h-.12a7.87,7.87,0,0,1-1.2-.11c0,.06.08.11.12.18A11,11,0,0,0,57.71,33a8.72,8.72,0,0,1,3.36-1.2h0a4.85,4.85,0,0,1,.55-.09,9.71,9.71,0,0,1-.22-2.85A5.32,5.32,0,0,1,60.78,28.88Z"/><path class="cls-1" d="M89.8,23.5a9.83,9.83,0,0,0-5.44-4.75c-.3-.12-.59-.23-.87-.32a2.3,2.3,0,0,0,.13-.73c0-1.2-.78-2.18-2.42-2.93a7.7,7.7,0,0,0-3.3-.68,13.73,13.73,0,0,0-4.82,1,2.86,2.86,0,0,0-1-.64,4.42,4.42,0,0,0-1.65-.29,7.7,7.7,0,0,0-1.53.17,2.26,2.26,0,0,0-.64-.58,2.67,2.67,0,0,0-.71-.32,6.08,6.08,0,0,0-.72-3.73,2.57,2.57,0,0,0-2-1.22h-.13a7,7,0,0,0-1.22-2.39A3.09,3.09,0,0,0,61,4.81a2.83,2.83,0,0,0-.9.15L60,5a5.37,5.37,0,0,0-2-1.7A3.42,3.42,0,0,0,56.5,3a3.68,3.68,0,0,0-2,.66A6.26,6.26,0,0,0,50.72,2a3.11,3.11,0,0,0-.43,0,3.16,3.16,0,0,0-2.58,1.63,2.48,2.48,0,0,0-.24.64,3.84,3.84,0,0,0-2.79,1c-.86.88-.89,2.19-.1,3.77a4.12,4.12,0,0,0-2.26,3,3.7,3.7,0,0,0,1,3l-.28.27-.33.08a7.66,7.66,0,0,0-1.62.69,3.75,3.75,0,0,0-2.32-1.45A13.66,13.66,0,0,0,37.38,7.9,2.58,2.58,0,0,0,35.5,6.54a3.4,3.4,0,0,0-.45,0,3.06,3.06,0,0,0-.74.09A10.4,10.4,0,0,0,31.7,2.73a3.94,3.94,0,0,0-2.5-1.12H29a3.29,3.29,0,0,0-1.39.4,4.66,4.66,0,0,0-3.5-2h-.19a3.31,3.31,0,0,0-2.75,1.77,3.26,3.26,0,0,0-4.48,2.54h-.1a2.91,2.91,0,0,0-2.7,1.82,5.18,5.18,0,0,0,.67,4.53,1.64,1.64,0,0,0-.3.29,2.7,2.7,0,0,0-.59,2.25,5.44,5.44,0,0,0,1,2.26l-.09.11a3.16,3.16,0,0,0-.54,2.62,2.5,2.5,0,0,0-.39.65,10.19,10.19,0,0,0-2.5-.35,4.28,4.28,0,0,0-2,.42A2.78,2.78,0,0,0,7.7,21.32,4.7,4.7,0,0,0,4,23.14a3.43,3.43,0,0,0-.59,1.91,4.25,4.25,0,0,0-3,1.67,3,3,0,0,0-.07,3,5.59,5.59,0,0,0,1.83,2A2.67,2.67,0,0,0,2.12,34a4.28,4.28,0,0,0,2.19,2.12,3.38,3.38,0,0,0-.2.56,3.21,3.21,0,0,0,1.18,3.22,5.43,5.43,0,0,0,3.08,1.29,2.41,2.41,0,0,0,.3.89,3.37,3.37,0,0,0,3.13,1.62,6.64,6.64,0,0,0,1.65-.22l.64-.17a2.88,2.88,0,0,0,.13.31,2.06,2.06,0,0,0,1.9,1.1,3.7,3.7,0,0,0,1.27-.25l.13-.05a18.55,18.55,0,0,0,.5,6.11c.66,2.31,1.81,3.05,2.65,3.26A5.37,5.37,0,0,0,22,53.9h0c3.57,0,8.43-3.1,11.29-7.22h0a9.77,9.77,0,0,0,1.83,3.38,4,4,0,0,0,2.9,1.5h.13c1.59,0,3.46-1.28,5.05-3.45a18.8,18.8,0,0,0,4.53,3.83,10.06,10.06,0,0,0,4.95,1.64,4.49,4.49,0,0,0,2.08-.47c1.86-1,3-4,2.91-7.76A14.8,14.8,0,0,0,63,47.8a8.35,8.35,0,0,0,1.72.2A4.47,4.47,0,0,0,68,46.76l.24-.26a5.41,5.41,0,0,0,1.73,4.1c1.61,1.62,4.33,2.55,7.49,2.55a15.76,15.76,0,0,0,2.4-.18c2.52-.41,4.29-1.38,5-2.75.95-1.92.15-5-.91-7.2-1.49-3.11-3.63-5.18-5.87-5.66a6.77,6.77,0,0,0-.74-.13,5.79,5.79,0,0,0,1.4-1.4,21.27,21.27,0,0,0,2.9.22h0c2.47,0,4.08-.61,4.93-1.87A3.59,3.59,0,0,0,87,31.35C89.34,29.62,91.24,26.76,89.8,23.5Zm-4.56,7.28a2.66,2.66,0,0,1,.09,2.61c-.86,1.26-3.34,1.57-7.39.89a4.21,4.21,0,0,1-2.54,2.29C73.87,37,72,36.49,70,35a2.69,2.69,0,0,1-.4,1.82,1.56,1.56,0,0,1-.81.53.74.74,0,0,1,.12.13,12,12,0,0,0,3,2.82,6.72,6.72,0,0,1,3.41-1.55,5.12,5.12,0,0,1,2.41,0c1.78.39,3.61,2.22,4.89,4.89,1.14,2.38,1.51,4.77.92,5.95-.46.93-1.93,1.67-3.94,2a13.73,13.73,0,0,1-2.17.17c-2.41,0-5-.61-6.48-2.14a4,4,0,0,1-1-4.5,5.43,5.43,0,0,1,.76-3.19,13.41,13.41,0,0,1-2.59-2.57s0,0,0,.06c.42,2.86,0,5.19-1.16,6.37a3.06,3.06,0,0,1-2.27.81,6.22,6.22,0,0,1-1.42-.17,13.52,13.52,0,0,1-7.49-5,15.73,15.73,0,0,1,.47,2.64c.36,4.19-.77,7.08-2.08,7.76h0a3.1,3.1,0,0,1-1.43.31,8.61,8.61,0,0,1-4.22-1.43,17,17,0,0,1-5.36-5.13A15,15,0,0,1,42.28,47c-1.33,1.9-2.93,3.12-4.09,3.12h-.07a2.73,2.73,0,0,1-1.9-1c-1.22-1.37-2-3.92-2.4-6.59a11.45,11.45,0,0,1-1.66,3.35c-2.63,3.79-7.08,6.62-10.13,6.62a4.11,4.11,0,0,1-1-.12c-.7-.18-1.27-1-1.64-2.28a20,20,0,0,1-.11-8.37,9.49,9.49,0,0,1-2.36,1.37,2.61,2.61,0,0,1-.79.16.65.65,0,0,1-.64-.33c-.23-.45.08-1.26.6-2a12.25,12.25,0,0,1-3,1.12c-1.55.39-2.74.12-3.19-.7a1.55,1.55,0,0,1,.24-1.7,4.72,4.72,0,0,1-3.93-.88A1.77,1.77,0,0,1,5.49,37a2.41,2.41,0,0,1,1.37-1.48c-.91-.23-3-.87-3.42-2.05a1.31,1.31,0,0,1,0-1.08,2.27,2.27,0,0,1,1.18-.91,5.61,5.61,0,0,1-3-2.38,1.52,1.52,0,0,1,0-1.58c.49-.75,1.8-1.18,3.43-1.14a2.71,2.71,0,0,1,.12-2.42c.62-.93,2-1.34,4.19-1.22-.31-.74-.53-2,.47-2.55,1.19-.63,4,0,5.21.71-.17-.55-.36-1.54.33-1.95a1.58,1.58,0,0,1,.35-.16,2.26,2.26,0,0,1,0-2.32,1.36,1.36,0,0,1,1.27-.5,6.25,6.25,0,0,1-1.92-3,1.27,1.27,0,0,1,.27-1.09,2.09,2.09,0,0,1,1.38-.57c-.54-.69-2.22-3-1.51-4.62a1.44,1.44,0,0,1,1-.9,2.91,2.91,0,0,1,2,.45c-.18-.71-.44-2.41.86-3.08s2.42.39,2.85.89c.11-.74.53-2.54,2.1-2.63h.11c1.59,0,2.87,2.08,3.27,2.81A2,2,0,0,1,29.13,3a2.48,2.48,0,0,1,1.63.77A9,9,0,0,1,33.48,9a1.72,1.72,0,0,1,1.84-1,1.32,1.32,0,0,1,.86.7c.79,1.28,1.35,4.22,1.1,7.61a1.46,1.46,0,0,1,1-.3c1.51.08,2.17,1.62,2.36,2.19a6.14,6.14,0,0,1,2.49-1.43,2.5,2.5,0,0,1,.66-.09,5,5,0,0,1,2-1.53c-.65-.32-2.24-1.28-2-2.87s2.29-2.33,3-2.5c-.43-.58-1.83-2.6-1-3.47s2.6-.56,3.26-.44a1.83,1.83,0,0,1,0-1.52,1.82,1.82,0,0,1,1.51-.89c1.62-.2,3.5,1.67,4,2.16a2.51,2.51,0,0,1,2.94-1A4.87,4.87,0,0,1,59.6,7.17a1.66,1.66,0,0,1,1-.87A1.56,1.56,0,0,1,62.34,7a6.73,6.73,0,0,1,1.28,3.44,1.6,1.6,0,0,1,1.06-.52h0a1.18,1.18,0,0,1,1,.61c.81,1.17.41,3.61.27,4.35a2,2,0,0,1,1.57.08A1.44,1.44,0,0,1,68.09,16a5.37,5.37,0,0,1,3.47-.26,1.44,1.44,0,0,1,1,1.12c.87-.43,4.93-2.3,8.1-.84,1.07.5,1.61,1,1.6,1.62s-.85,1.24-1.34,1.5a18,18,0,0,1,2.95.89,8.53,8.53,0,0,1,4.68,4C90.13,27.77,86,30.35,85.24,30.78ZM72.9,38a7.56,7.56,0,0,0-1.05.55,11.14,11.14,0,0,1-1.08-1,2.19,2.19,0,0,0,.17-.29A8.85,8.85,0,0,0,72.9,38Z"/></svg>