<svg id="圖層_1" data-name="圖層 1" xmlns="http://www.w3.org/2000/svg" viewBox="0 0 145.07 58.16"><defs><style>.cls-1{fill:#fff;}</style></defs><title>0</title><path class="cls-1" d="M143.61,29.56a2.73,2.73,0,0,0-.73-.35c.49-2.32.61-5.42-1.72-6.66a4.11,4.11,0,0,0-1.95-.48,5.93,5.93,0,0,0-3.09,1,2.71,2.71,0,0,0-.63-.9,2.45,2.45,0,0,0-1.73-.68,2.54,2.54,0,0,0-.61.07,4.36,4.36,0,0,0-.94.32c.08-.39.15-.81.21-1.25.65-4.43-1.51-5.8-2.18-6.11a3.15,3.15,0,0,0-1.34-.3,3.49,3.49,0,0,0-.65.06,16.9,16.9,0,0,0-.52-1.81c-1.46-4.14-3.9-4.84-5.24-4.89h-.23a6.54,6.54,0,0,0-5.85,4.06,5.8,5.8,0,0,0-1.42-.19,4,4,0,0,0-2.35.71c-1.5,1-2.17,3.06-2,6.1a2.92,2.92,0,0,0-.83-.12,2.62,2.62,0,0,0-1.75.64A3.31,3.31,0,0,0,107.2,20c-.11-.26-.22-.52-.34-.77-1.89-4-4.1-4.83-5.62-4.83h-.17a4.38,4.38,0,0,0-2.69,1.11A6.67,6.67,0,0,0,95,13.23a4.58,4.58,0,0,0-1-.11,4.11,4.11,0,0,0-1.1.15,3.64,3.64,0,0,0-1.74-1.84,3.09,3.09,0,0,0-1.34-.3,3.59,3.59,0,0,0-.65.07,17,17,0,0,0-.52-1.82c-1.46-4.13-3.9-4.83-5.24-4.88H83.2a6.55,6.55,0,0,0-5.85,4.06,5.73,5.73,0,0,0-1.42-.19,4,4,0,0,0-2.35.71c-1.49,1.05-2.17,3.05-2,6.09a3.32,3.32,0,0,0-.83-.11A2.62,2.62,0,0,0,69,15.7a3.11,3.11,0,0,0-.82,1.21c-.11-.26-.23-.52-.35-.78-1.89-4-4.1-4.82-5.62-4.82H62a4.33,4.33,0,0,0-2.7,1.11,6.69,6.69,0,0,0-3.38-2.26,4,4,0,0,0-1-.11,4.51,4.51,0,0,0-2.65.89A6.48,6.48,0,0,0,50,14.21a2.46,2.46,0,0,0-1.2-.3,2.68,2.68,0,0,0-.62.07,4.47,4.47,0,0,0-.93.32c.07-.39.14-.8.21-1.25.65-4.43-1.51-5.8-2.19-6.11a3.08,3.08,0,0,0-1.33-.3,3.68,3.68,0,0,0-.66.06,16.9,16.9,0,0,0-.52-1.81C41.31.75,38.87.05,37.53,0H37.3a6.54,6.54,0,0,0-5.85,4.06A5.82,5.82,0,0,0,30,3.87a4.05,4.05,0,0,0-2.35.71c-1.49,1-2.16,3.06-2,6.09a3.46,3.46,0,0,0-.84-.11,2.64,2.64,0,0,0-1.75.64,3.3,3.3,0,0,0-.82,1.21c-.11-.26-.23-.52-.35-.77-1.89-4-4.1-4.83-5.62-4.83h-.16a4.41,4.41,0,0,0-2.7,1.11A6.69,6.69,0,0,0,10,5.66a4.58,4.58,0,0,0-1-.11,4.46,4.46,0,0,0-2.64.89C3.52,8.51,3.35,12.58,3.55,15a4.89,4.89,0,0,0-2.46,1.26A4,4,0,0,0,0,19.42c.19,2.66,2.41,5.94,4.87,8.13a3.54,3.54,0,0,0-1.17,1.33C3,30.36,3.37,32.19,4.9,34.32c2.74,3.79,7.82,6.5,11,7.92a2.64,2.64,0,0,0-.3,1.17c0,1.75,1.34,4,11.5,7.11a1.49,1.49,0,0,0,.47.07,1.7,1.7,0,0,0,.66-.14h0c.2,0,.75,0,1.13,0a30.72,30.72,0,0,0,12.42-2.26c5.49-2.33,5.75-4.88,5.52-6a25.38,25.38,0,0,0,4.28-1.93l.22-.13c2.86,3.16,7.18,5.44,10,6.7a2.48,2.48,0,0,0-.3,1.17c0,1.75,1.33,4,11.5,7.11a1.49,1.49,0,0,0,.47.07,1.71,1.71,0,0,0,.66-.15h0c.2,0,.72,0,1.14,0A31.1,31.1,0,0,0,87.7,52.65c5.49-2.34,5.75-4.89,5.51-6.06.36-.12.75-.26,1.16-.43a39.57,39.57,0,0,0,6.49,3.65,2.51,2.51,0,0,0-.3,1.17c0,1.75,1.33,4,11.5,7.11a1.49,1.49,0,0,0,.47.07,1.52,1.52,0,0,0,.61-.13l.07,0c.2,0,.75,0,1.12,0a31.14,31.14,0,0,0,12.43-2.26c5.48-2.33,5.74-4.88,5.51-6a26.65,26.65,0,0,0,4.29-1.93c3.47-1.93,4.26-4.47,3.51-6.12a1.74,1.74,0,0,0-.1-.19,18.68,18.68,0,0,0,4.28-5.79C146.07,31.69,144.41,30.07,143.61,29.56ZM143,35a17.4,17.4,0,0,1-5.32,6.48,1.18,1.18,0,0,1,1.14.69c.47,1-.24,2.8-2.91,4.29a21.31,21.31,0,0,1-6,2.36,1.55,1.55,0,0,1,1,1c.15.54.26,2.47-4.66,4.56a29.59,29.59,0,0,1-11.88,2.14,9.52,9.52,0,0,0-1.47.07l-.26.09h0l-.06,0h0C105.49,54.58,102,52.65,102,51c0-.88,1-1.4,1.57-1.61a39.28,39.28,0,0,1-9-4.85,18.15,18.15,0,0,1-3.7,1.24,1.5,1.5,0,0,1,.94,1c.15.54.26,2.47-4.66,4.55a29.64,29.64,0,0,1-11.88,2.15,8.29,8.29,0,0,0-1.47.07l-.25.08v0h-.1c-7-2.17-10.53-4.1-10.51-5.75,0-.88,1-1.39,1.56-1.61-1.64-.62-9-3.59-12.39-8.16a11.18,11.18,0,0,1-1.19.78A21.29,21.29,0,0,1,45,41.29a1.55,1.55,0,0,1,.95,1c.15.54.25,2.47-4.66,4.56A29.59,29.59,0,0,1,29.36,49a9.11,9.11,0,0,0-1.48.08l-.25.08h0l-.06,0h0C20.53,47,17,45.08,17,43.43c0-.88,1-1.4,1.56-1.61-1.66-.63-9.15-3.67-12.52-8.33-1.2-1.66-1.56-3-1.07-4C5.55,28.38,7.1,28.06,7.89,28c-2.79-1.53-6.26-5.7-6.46-8.66a2.5,2.5,0,0,1,.67-2,4.53,4.53,0,0,1,3-1c-.18-1-1-6.48,2.11-8.66A3,3,0,0,1,9.71,7c1.85.43,3.24,2.53,3.66,3.23a3.39,3.39,0,0,1,2.8-2h.1c1.14,0,2.78.72,4.34,4a21.41,21.41,0,0,1,1.88,7.4c.19.08.36.17.48.23-.06-1.21-.27-6.5,1-7.6,1-.89,2.71.43,3.37,1-.66-4-.28-6.57,1.13-7.56s3.24-.13,3.76.14c.25-.8,1.56-4.46,5-4.46h.19c1.69.06,3,1.43,3.94,3.94a17.46,17.46,0,0,1,.8,3.5,2.15,2.15,0,0,1,2.44-.64c.94.44,1.79,1.88,1.39,4.62A14.13,14.13,0,0,1,44.54,18a3.11,3.11,0,0,1,.54-.18,7.74,7.74,0,0,1,3.39-2.41,1.12,1.12,0,0,1,1.08.25,3.53,3.53,0,0,1,.58,2.53,8.41,8.41,0,0,1,.71-.66c.08-1.93.59-4.18,2.31-5.4a3,3,0,0,1,2.47-.55c1.85.43,3.24,2.53,3.66,3.22a3.4,3.4,0,0,1,2.79-2h.11c1.14,0,2.78.73,4.34,4a21.16,21.16,0,0,1,1.87,7.41,2.85,2.85,0,0,1,.49.23c-.07-1.22-.27-6.5,1-7.61,1-.88,2.72.44,3.38,1-.67-4-.29-6.57,1.12-7.56s3.24-.14,3.77.13c.24-.8,1.55-4.46,5-4.46h.2c1.69.06,3,1.42,3.93,3.93a17.05,17.05,0,0,1,.8,3.5,2.18,2.18,0,0,1,2.45-.63A3,3,0,0,1,92,15.32l.18-.15a3,3,0,0,1,2.48-.56c1.85.43,3.24,2.53,3.65,3.23a3.42,3.42,0,0,1,2.8-2h.11c1.13,0,2.77.72,4.34,4a21.11,21.11,0,0,1,1.87,7.4l.49.23c-.07-1.21-.28-6.5,1-7.6,1-.89,2.71.43,3.38,1-.67-4-.29-6.57,1.12-7.56s3.24-.13,3.77.13c.24-.8,1.55-4.45,5-4.45h.19c1.69.06,3.06,1.43,3.94,3.94a17.46,17.46,0,0,1,.8,3.5,2.17,2.17,0,0,1,2.45-.64c.93.44,1.78,1.88,1.38,4.62a14.2,14.2,0,0,1-1.51,5.12,2.85,2.85,0,0,1,.54-.18,7.73,7.73,0,0,1,3.38-2.41,1.14,1.14,0,0,1,1.09.25,3.47,3.47,0,0,1,.57,2.53c.79-.82,3.26-3.06,5.4-1.92s1,5.52.53,6.88a1.81,1.81,0,0,1,1.82.07C143.33,31.06,144.32,32.11,143,35Z"/></svg>