<svg id="圖層_1" data-name="圖層 1" xmlns="http://www.w3.org/2000/svg" viewBox="0 0 148.65 138.99"><defs><style>.cls-1{fill:#fff;}</style></defs><title>0</title><path class="cls-1" d="M59.93,82.89h.22a3,3,0,0,0,3-2.46,3,3,0,0,0-2.32-3.26A4,4,0,0,1,59.54,76l-.29-.32a8.72,8.72,0,0,0,3.9-4.34c1.27-3.1,0-5.69-1.42-8.43a26.8,26.8,0,0,1-2.23-5.42c-2.12-8.09-7-10.38-10.82-10.88-4.65-.61-6.06-.8-7.56-4.43-1.42-3.43-4.56-8-8.75-9.6A8.86,8.86,0,0,0,29.23,32a9,9,0,0,0-4,.95C21,35,17.44,36,14.38,36a12.93,12.93,0,0,1-2.59-.25,9.61,9.61,0,0,0-2-.21A9.6,9.6,0,0,0,.49,41.83c-1.75,5,1.49,8.23,5,11.14C7.68,54.84,7.87,55.51,8.58,58c.36,1.28.86,3,1.79,5.49,2.19,5.82,5.55,11.77,13.86,11.77A21.67,21.67,0,0,0,28,74.94a10.41,10.41,0,0,1,1.87-.19c3.45,0,5.33,2,7.51,4.4,1.79,1.93,3.8,4.11,6.83,4.89a10.71,10.71,0,0,0,2.69.36c4.38,0,6.8-3,8.22-5.14l.36.5C56.33,81,57.67,82.89,59.93,82.89Zm-4-4.81a2.62,2.62,0,0,0-1.27-.84l-.22.36c-1.22,2-3.35,5.38-7.6,5.38a9.67,9.67,0,0,1-2.34-.31c-2.62-.68-4.41-2.61-6.14-4.48-2.56-2.78-5.21-5.65-10.68-4.65-9.89,1.81-13.53-4-16-10.52-.9-2.4-1.39-4.12-1.74-5.38C9.2,55,8.92,54,6.36,51.88,2.5,48.64.51,46,1.83,42.3,3.35,38,8,36.41,11.5,37.14c4,.82,8.57-.11,14.39-2.93a7.25,7.25,0,0,1,6-.3c3.78,1.43,6.64,5.64,8,8.81,1.81,4.39,4,4.67,8.69,5.3s8.09,3.94,9.63,9.83a27.66,27.66,0,0,0,2.33,5.7c1.35,2.66,2.41,4.75,1.38,7.25S59,74.26,57.32,75.13l-.53.29a6.47,6.47,0,0,1,1.68,1.51,4.84,4.84,0,0,0,1.87,1.57c1.15.4,1.47,1.15,1.39,1.72a1.61,1.61,0,0,1-1.66,1.25h-.14c-1.53,0-2.53-1.4-3.34-2.53C56.36,78.63,56.15,78.33,55.94,78.08Z"/><path class="cls-1" d="M62.85,42.12c3.13,1.39,3.84,3.63,4.73,6.47,1.26,4,2.68,8.48,10.78,10.95l.23.08a16.07,16.07,0,0,0,4.56,5.84,14.64,14.64,0,0,0,1.72,1.27A8.87,8.87,0,0,0,92.47,71l.66,0a12.94,12.94,0,0,0,7.76-2.49c.18,1.81.71,4.09,3,4.12h0a2.25,2.25,0,0,0,1.89-1.06c.92-1.4.81-4.26-.29-7.72l.92-1.21h0a4.79,4.79,0,0,1,.25.45c1.2,2.5,2,3.75,3.2,4.15a2.51,2.51,0,0,0,.66.1,2.2,2.2,0,0,0,1.06-.27,2.3,2.3,0,0,0,1.17-1.79A5.63,5.63,0,0,0,112,62a12.06,12.06,0,0,0,5.37-2.32,10.36,10.36,0,0,0,3.74-7.55,15.82,15.82,0,0,0-4-11.6,13.1,13.1,0,0,1-1-1.16c-.26-.44-.53-.88-.82-1.29-1.11-2.23-.47-4.16,1.08-8.26l.4-1.06c0-.14,5.2-14.2.82-22.89A10.16,10.16,0,0,0,111.13.47,12.48,12.48,0,0,0,107.75,0c-7.64,0-13.91,6.68-16.51,12.89a11.92,11.92,0,0,1-3.75,4.62h-.06a9.93,9.93,0,0,0-5.23,1.66c-4.11,2.57-5.84,3.43-8,3.43a14.92,14.92,0,0,1-3.38-.5,26.42,26.42,0,0,0-6.06-.79c-4.68,0-8.11,1.77-9.92,5.11a9.27,9.27,0,0,0-.49,7.38C55.2,36.24,57.34,39.66,62.85,42.12Zm-6.74-15c2.8-5.17,9.38-4.82,14.4-3.62S77.16,24,83,20.38A8.1,8.1,0,0,1,88,19a13.89,13.89,0,0,0,4.58-5.52C95.64,6.06,103.28-.3,110.74,1.84a8.74,8.74,0,0,1,5.6,4.68c3.41,6.76.52,18-.88,21.76l-.4,1c-1.54,4.08-2.47,6.59-1,9.49.3.43.59.88.85,1.34a16.07,16.07,0,0,0,1.14,1.35A14.42,14.42,0,0,1,119.67,52a9,9,0,0,1-3.2,6.54,12.44,12.44,0,0,1-6.88,2.33c1.41,1.91,1.88,3.36,1.76,4.19a.9.9,0,0,1-.44.74.76.76,0,0,1-.39.1.67.67,0,0,1-.24,0c-.7-.22-1.39-1.42-2.35-3.4a4.79,4.79,0,0,0-.91-1.35c-.47,0-1,.12-1.43.21-.19.26-.4.52-.6.8-.35.46-.72,1-1.12,1.45,1.23,3.52,1.33,6.25.69,7.21a.81.81,0,0,1-.7.42h0c-1.4,0-1.52-2.24-1.62-3.86,0-.2,0-.38,0-.56A7.57,7.57,0,0,0,102,65.7a12.11,12.11,0,0,1-8.89,3.9h-.6a7.56,7.56,0,0,1-6.65-3.91,12,12,0,0,1-1.81-1.3,14.22,14.22,0,0,1-4.38-5.84,8.18,8.18,0,0,0-.91-.35c-7.39-2.26-8.64-6.21-9.85-10-.92-2.92-1.79-5.68-5.51-7.34-5-2.25-7-5.31-7.71-7.48A7.86,7.86,0,0,1,56.11,27.1Z"/><path class="cls-1" d="M87.06,121.29a28.27,28.27,0,0,0-2.56-5.91,3,3,0,0,0,.86-.3,1.41,1.41,0,0,0,.58-1.91l-.11-.22a1.41,1.41,0,0,0-1.23-.77,1.35,1.35,0,0,0-.64.16.65.65,0,0,1-.21,0,1.5,1.5,0,0,1-.82-.31,4.24,4.24,0,0,0-.87-.46,55.87,55.87,0,0,0-4.34-5.35,65.07,65.07,0,0,1-4.25-5,44.23,44.23,0,0,1-2.38-4.13c-2.76-5.14-4.43-8-6.54-8a2,2,0,0,0-.55.07c-2.32.63-1.92,3.11-1.58,5.3a24.29,24.29,0,0,1,.4,5.53,17,17,0,0,1-.47,3c-.22.92-.61,2.09-1,3.33-.14.4-.28.83-.42,1.27l-.44.29a4.19,4.19,0,0,1-2.17,1,1.41,1.41,0,0,0-.49-.09,1.43,1.43,0,0,0-1.23.7l-.11.19a1.42,1.42,0,0,0,.48,2,2.68,2.68,0,0,0,1.37.33,4.43,4.43,0,0,0,1.35-.22,29.74,29.74,0,0,0-.92,11.75,8.06,8.06,0,0,1-1.67.54,1.41,1.41,0,0,0-1.15,1.62l0,.25a1.41,1.41,0,0,0,.58.92,1.37,1.37,0,0,0,.82.27,1,1,0,0,0,.24,0,10.14,10.14,0,0,0,1.82-.53,21.44,21.44,0,0,0,2.18,5c3.68,6.22,8.51,7.53,11.92,7.53a14.31,14.31,0,0,0,6.07-1.36c4.56-2.25,7.24-5.41,8-9.4l0-.23A34.08,34.08,0,0,1,87.06,121.29ZM86.18,128c-.65,3.53-3.08,6.35-7.22,8.39a12.76,12.76,0,0,1-5.44,1.21c-3.29,0-7.45-1.34-10.7-6.83a20.11,20.11,0,0,1-2.44-6.3,10,10,0,0,1-3,1.14l0-.24a10.17,10.17,0,0,0,3-1.15c-1.09-5.64.29-11.08,1.66-15.39l-.55.36a5.72,5.72,0,0,1-3.11,1.29,1.3,1.3,0,0,1-.64-.13l.06-.1.06-.11s1,.56,3.49-1.16c.29-.2.56-.38.81-.53.19-.6.39-1.19.57-1.75.45-1.32.83-2.47,1.06-3.43a19,19,0,0,0,.51-3.23,26.1,26.1,0,0,0-.42-5.84c-.32-2.06-.54-3.42.55-3.71,1.35-.36,3.45,3.52,5.47,7.29A45.44,45.44,0,0,0,72.33,102h0a61.86,61.86,0,0,0,4.34,5.15,56,56,0,0,1,4.49,5.59,3.21,3.21,0,0,1,1,.43,2.37,2.37,0,0,0,2.46.39l.12.22a2,2,0,0,1-1,.21,3.15,3.15,0,0,1-1.78-.61,2.23,2.23,0,0,0-.57-.3C84.38,117.46,87.11,123,86.18,128Z"/><path class="cls-1" d="M148.38,119.62a6.33,6.33,0,0,0-1.14-1.17c-.27-8.55-2.86-15.57-7.71-20.89a43.92,43.92,0,0,0-8.1-7.06,1.42,1.42,0,0,0-.56-1.83,3.76,3.76,0,0,0-1.88-.51,3.54,3.54,0,0,0-1,.13,17.53,17.53,0,0,1-3.52-2.79,11.83,11.83,0,0,1-1.8-2.56c-.85-1.59-1.55-3-2.17-4.24-2.1-4.21-3.16-6.32-5.23-6.32a2.53,2.53,0,0,0-.73.11,2.71,2.71,0,0,0-1.8,1.63c-.75,1.89.25,5.18,3,9.78a18.77,18.77,0,0,1,2.88,8.45,23.52,23.52,0,0,1-.36,5.9c-1.32.61-2.48,1.72-2.51,2.92a1.41,1.41,0,0,0,1.37,1.46h.29a46.3,46.3,0,0,0,.53,16c-.4.68-.85.72-.94.72a1.43,1.43,0,0,0-1.36,1.37V121a1.37,1.37,0,0,0,.4,1,1.41,1.41,0,0,0,1,.44,4,4,0,0,0,1.75-.49c2,6.46,5.68,11.36,10.62,14.26a16.19,16.19,0,0,0,7.93,2.6,8.08,8.08,0,0,0,3.78-.9c4.71-2.49,5.69-9.39,5.89-12.31.06-.92.15-2.16.2-3.58a1.38,1.38,0,0,0,.64-.26l.21-.15A1.43,1.43,0,0,0,148.38,119.62Zm-1.35,1a4,4,0,0,0-1.19-1.11c0,2.34-.11,4.41-.22,6v.06c-.18,2.62-1.05,8.94-5.13,11.09a6.62,6.62,0,0,1-3.12.74,14.73,14.73,0,0,1-7.21-2.4c-5.94-3.48-9.12-9.53-10.63-15.79a2.94,2.94,0,0,1-2.46,1.82h0v-.25c.07,0,1.53,0,2.37-2a43.51,43.51,0,0,1-.17-18.31c.07-.31.12-.6.18-.91-1.15.36-2,1.21-2,1.65h-.25c0-.6,1.06-1.57,2.34-1.91a25.5,25.5,0,0,0,.53-7.07A20,20,0,0,0,117,83.18c-2.38-4-3.43-7.14-2.87-8.54a1.28,1.28,0,0,1,.87-.79c1.36-.4,2.35,1.57,4.3,5.48.63,1.25,1.33,2.67,2.19,4.28a13.56,13.56,0,0,0,2,2.86,21.2,21.2,0,0,0,4.4,3.4,2.31,2.31,0,0,1,2.29,0l-.13.22A2,2,0,0,0,128.1,90c.08,0,.14.09.22.14a44.64,44.64,0,0,1,10.16,8.34c6,6.57,7.26,14.57,7.36,20.71a4.15,4.15,0,0,1,1.39,1.24Z"/><path class="cls-1" d="M111.49,102.75c-.66-2.18-1.36-4.43-1.91-6.68-.19-.78-.36-1.57-.53-2.39a72.49,72.49,0,0,1-1.17-8.12c-.3-3.08-.48-4.94-2.26-5.56a3.47,3.47,0,0,0-1.12-.19,3,3,0,0,0-1.3.3c-1.64.82-2.33,3-3.48,6.58A86.83,86.83,0,0,1,96.28,96a65.6,65.6,0,0,1-3.61,7c-.32.53-.62,1.06-.91,1.59l-.39.2a1.55,1.55,0,0,1-.77.23,1.25,1.25,0,0,1-.51-.11h0a1.36,1.36,0,0,0-.8-.26,1.15,1.15,0,0,0-.26,0,1.39,1.39,0,0,0-.91.6l-.15.2a1.44,1.44,0,0,0,.38,2,4.17,4.17,0,0,0,1.71.61,34.41,34.41,0,0,0-3,13.27,15.13,15.13,0,0,1,.55,6.71c.13.74.28,1.49.47,2.24,1.14,4.7,6.19,8,12.29,8h.19c4,0,8.88-1.7,11.63-6l.17,0,.25,0a1.42,1.42,0,0,0,1.38-1.12,3.88,3.88,0,0,0-.3-2.23c.12-.38.21-.73.29-1.09.22-1,.4-2,.54-3.08h0a1.41,1.41,0,0,0,1.39-1.42,5,5,0,0,0-1.12-2.86C114.9,113.85,113.17,108.21,111.49,102.75Zm2.78,20.58a3.36,3.36,0,0,0-.89-2,34,34,0,0,1-.79,6.2,11.54,11.54,0,0,1-.44,1.54,2.58,2.58,0,0,1,.46,1.78l-.25,0a2.19,2.19,0,0,0-.32-1.45c-2,5.38-7.11,7.41-11.5,7.46h-.17c-5.45,0-9.93-2.82-10.92-6.9A33,33,0,0,1,92.59,106a3.75,3.75,0,0,0-.41.19,3.14,3.14,0,0,1-1.58.43,2.79,2.79,0,0,1-1.45-.39l.14-.21a2.7,2.7,0,0,0,2.77,0,5.63,5.63,0,0,1,.72-.33c.35-.66.71-1.31,1.1-2a65.79,65.79,0,0,0,3.7-7.12,87.48,87.48,0,0,0,3.49-9.44c1-3.12,1.66-5.19,2.77-5.74a1.62,1.62,0,0,1,1.32,0c.92.32,1,1.67,1.31,4.37A74.16,74.16,0,0,0,107.66,94c.17.85.35,1.65.55,2.45.55,2.28,1.25,4.55,1.93,6.76,1.7,5.53,3.44,11.22,3.25,17.83a3.7,3.7,0,0,1,1.13,2.32Z"/><path class="cls-1" d="M87.06,121.29a34.08,34.08,0,0,0,.55,6.71A15.13,15.13,0,0,0,87.06,121.29Z"/></svg>