<svg id="圖層_1" data-name="圖層 1" xmlns="http://www.w3.org/2000/svg" viewBox="0 0 119.65 84.65"><defs><style>.cls-1{fill:#fff;}</style></defs><title>0</title><path class="cls-1" d="M23.25,19.92a2.78,2.78,0,0,1,1.17.24v-.48a1.2,1.2,0,0,0-.23-.11l-.25.05a8.19,8.19,0,0,1-1.85.25h-.26l.13.23.16,0A6.12,6.12,0,0,1,23.25,19.92Z"/><path class="cls-1" d="M78.2,37.79h0Z"/><path class="cls-1" d="M35.86,29.92l-.1,0,.05.09Z"/><path class="cls-1" d="M82.06,21.36c0,.15.11.31.16.42l.3,0C82.36,21.67,82.21,21.52,82.06,21.36Z"/><path class="cls-1" d="M65.36,11l-.22-.36-.15.16A2.64,2.64,0,0,1,65.36,11Z"/><path class="cls-1" d="M67.27,13.3a1.45,1.45,0,0,0,.23,0c0-.1,0-.2,0-.3a4.4,4.4,0,0,1-.63-.4L67,13a3.55,3.55,0,0,0,.23.35Z"/><path class="cls-1" d="M30.89,34.25c-1.65-.42-1.29-2-1.05-3a1,1,0,0,0-.29-.94,3.27,3.27,0,0,1-.53-1,2,2,0,0,1-.34,0,1.33,1.33,0,0,1-.76-.22c0,1.82,0,3.64,0,5.37A2.87,2.87,0,0,0,29.34,36c1.42.51,1.52,1.58,1.49,2.95a36.22,36.22,0,0,1,2.68-4.15C33.11,34.76,32.08,34.55,30.89,34.25Z"/><path class="cls-1" d="M34.23,30.12a6.16,6.16,0,0,1,1.11,2.46c.49-.56,1-1.13,1.56-1.7s1.23-1.22,1.84-1.78h0a1.58,1.58,0,0,0-.34,0,6.87,6.87,0,0,1-2.36-.6c-1.23-.5-1.31-1.43-1.39-2.34v-.05a4.73,4.73,0,0,1-1.27,1.07l-.32.2a3.26,3.26,0,0,1,.05.33A6.24,6.24,0,0,0,34.23,30.12Zm1.63-.2,0,0-.05-.09Z"/><path class="cls-1" d="M48.29,25.66l.92.41.39.18c-.1-.46-.21-.92-.32-1.39A12.14,12.14,0,0,1,48.29,25.66Z"/><path class="cls-1" d="M48.76,23h0c-.59-2.22-1.14-4-1.61-5.54a2.94,2.94,0,0,1-.54.92,1.32,1.32,0,0,1,.6,1.53,15.63,15.63,0,0,0-.13,3.44A4.74,4.74,0,0,1,48.74,23Z"/><path class="cls-1" d="M42.84,39.68a1.71,1.71,0,0,1,.43,1.15l1-.45c.08-.62.19-1.47.22-2.39a3.06,3.06,0,0,1-.84-.61A9.75,9.75,0,0,0,42,36a4.52,4.52,0,0,1-1.47-1.43,3.69,3.69,0,0,1-.49-2.87,19.44,19.44,0,0,0-3.24,3.53l-.36.55a6.61,6.61,0,0,1,3.83.76,7,7,0,0,1,1.81,2.13A6.65,6.65,0,0,0,42.84,39.68Z"/><path class="cls-1" d="M45.1,27.87c-1,.67-2,1.41-3.08,2.21a3.57,3.57,0,0,1,3.18,1.24,5.4,5.4,0,0,1,.3.49,3.34,3.34,0,0,1,1.4-.75,2.47,2.47,0,0,1-.3-.58A9.91,9.91,0,0,0,45.1,27.87Z"/><path class="cls-1" d="M41.66,45.35a2.43,2.43,0,0,0,1.41,1h0a27.56,27.56,0,0,1,2.62-3.3h0A31.23,31.23,0,0,1,41.66,45.35Z"/><path class="cls-1" d="M50.85,35.27a4.17,4.17,0,0,0-.32,2.24,2.81,2.81,0,0,1,0,.29l.7-.27c-.05-.71-.13-1.6-.24-2.63A2,2,0,0,1,50.85,35.27Z"/><path class="cls-1" d="M37.73,41.58a5.08,5.08,0,0,1-2.79-2.34l-.36-.5c-.51.86-.95,1.66-1.33,2.38a5.46,5.46,0,0,1,3.92,1.35,7.2,7.2,0,0,0,1,.9c.63-.36,1.3-.73,2-1.11a6.77,6.77,0,0,1-1.2-.32A11.29,11.29,0,0,0,37.73,41.58Z"/><path class="cls-1" d="M84.46,40.35a9.65,9.65,0,0,0-1.72-1.24L82.53,39c-.34,1-.65,2-.91,2.9l.22-.11a3.22,3.22,0,0,1,3.27,0,6.39,6.39,0,0,1,1.26,1.27c.54-.49,1.11-1,1.7-1.46h0A5.34,5.34,0,0,1,84.46,40.35Z"/><path class="cls-1" d="M93.62,35.51A6.83,6.83,0,0,1,93,33.8a5.42,5.42,0,0,1-2,.41A4.6,4.6,0,0,1,89.58,34,4.83,4.83,0,0,1,86,30.16q-.48,1-.87,2l-.08.21c-.35.9-.68,1.75-1,2.59a6,6,0,0,1,2.67-.29,3,3,0,0,1,1.93,1.22,4,4,0,0,0,2,1.41,2.78,2.78,0,0,1,1.64,1.14c.81-.57,1.61-1.11,2.38-1.62A3.36,3.36,0,0,1,93.62,35.51Zm-1.19,1.07A4.82,4.82,0,0,0,91,35.92a2.05,2.05,0,0,1-.68-.33,5.17,5.17,0,0,0,.68,0,6.41,6.41,0,0,0,1.06-.09c.08.2.17.4.27.61a4,4,0,0,0,.2.35Z"/><path class="cls-1" d="M50.57,32.3l.13.18c0-.07,0-.13,0-.21Z"/><path class="cls-1" d="M116.8,34.44c3-.33,2.9-2.71,2.82-4.63,0-.73-.08-1.63-.05-2.7.14-5.58-4.07-6-6.13-6.2l-.45,0c-2.35,0-3.13,1.78-3.68,3.38v0a3.6,3.6,0,0,1,0-1,4.48,4.48,0,0,0-1.11-3.75,2.55,2.55,0,0,0-1.79-.74c-1.41,0-2.64,1.09-4,2.26a16.92,16.92,0,0,1-1.47,1.22,4.85,4.85,0,0,0-2,3.17,4.27,4.27,0,0,0-.29-.41,3.62,3.62,0,0,0,.58-.81,5,5,0,0,0,0-3.8,3.81,3.81,0,0,0-3.49-2.65c2.39-2,2-5.3,1.83-6.49a3.8,3.8,0,0,0-1.71-3,3.23,3.23,0,0,0-1.63-.41,8.26,8.26,0,0,0-3.11.83l-.42.18c-2.1.89-2.68,1.61-2.85,3.68a3,3,0,0,0-2.38-1.1,7.59,7.59,0,0,0-2.27.47l-.19.06c-1.78.57-1.9,2.08-2,3.1a10.29,10.29,0,0,1-.2,1.55,5.59,5.59,0,0,0,0,2.34,2.53,2.53,0,0,0-.64-.42,2.48,2.48,0,0,0-.76-.18,5.37,5.37,0,0,0,0-3.81,4.85,4.85,0,0,1-.27-1.79,4.44,4.44,0,0,0-.89-3,3.2,3.2,0,0,0-2.34-1.08,3.29,3.29,0,0,0-.54,0,3,3,0,0,0-1.15.49,5,5,0,0,0,.07-.77c0-1.88-1.25-2.88-2.2-3.62a4,4,0,0,1-1.23-1.24,3.23,3.23,0,0,0-3-2,4.82,4.82,0,0,0-2.73,1A2.84,2.84,0,0,0,64,.54,3.12,3.12,0,0,0,62.18,0a8.31,8.31,0,0,0-2.63.55,5.46,5.46,0,0,0-3.73,6.6A7.49,7.49,0,0,0,56.49,9a8.36,8.36,0,0,0-3.74-2,4,4,0,0,0-.49,0,3.23,3.23,0,0,0-2,.69,3,3,0,0,0-.78.91A4.84,4.84,0,0,0,49,7.33c-1.55-3-3.45-3.6-4.76-3.6a4.27,4.27,0,0,0-1,.12A3.61,3.61,0,0,0,40.83,5.9a5.46,5.46,0,0,0,.29,4.71,4.19,4.19,0,0,0,1,1.27,2.31,2.31,0,0,0-.93.75,5.32,5.32,0,0,1-.37.46c-.68.82-1.62,1.94-1.47,3.3a2.67,2.67,0,0,0,1.08,1.81,1.74,1.74,0,0,1,.29.25,3.72,3.72,0,0,0-.22,1.33,4.33,4.33,0,0,1-.22.91c0,.14-.09.28-.13.43-1-1.1-2.67-1.22-3.62-1.29l-.37,0a3.89,3.89,0,0,0-2-1.26c.11-.19.2-.38.29-.56a4.49,4.49,0,0,1,.75-1.18,3.94,3.94,0,0,0,1.15-3.08,4.83,4.83,0,0,0-2-3.34,3.47,3.47,0,0,0-2-.68,3.6,3.6,0,0,0-1.05.16,3.15,3.15,0,0,0,.31-1.08c.16-1.85-2.2-5-3.55-6a3.33,3.33,0,0,0-2-.61,5,5,0,0,0-2.32.6,3.4,3.4,0,0,0-2.05,3c0,.32,0,.64,0,1.05,0,.6,0,1.26,0,2a3.75,3.75,0,0,0-1.26-.22,3.51,3.51,0,0,0-2.15.71,3.06,3.06,0,0,0-.6,4.09,2.22,2.22,0,0,1,.24,1.46,4.65,4.65,0,0,0,.78,3.23l.23.31a3.76,3.76,0,0,0-2.05.93,3.23,3.23,0,0,0-1.07,2.41,4.16,4.16,0,0,0,1.15,2.91l.19.17c.32.29.54.48.82,1.61a5.21,5.21,0,0,0,.76,1.73l-.42,0a3,3,0,0,0-2.11,1.31A4.28,4.28,0,0,0,15.8,33a3.78,3.78,0,0,1-.22.93,10.49,10.49,0,0,0-.32,1.13,3.93,3.93,0,0,0,.64,3.46,5.19,5.19,0,0,0,4,1.64,2.56,2.56,0,0,1,1.14.37,7.57,7.57,0,0,0,2.48.8l.5,0h.05c0,.06.09.11.13.16C15.86,45.85,7.66,61,6,64.1A84,84,0,0,0,.06,78.79a1.55,1.55,0,0,0,1.48,2l.24,0a3.92,3.92,0,0,1,.59,0,3.16,3.16,0,0,1,1,.17,7.34,7.34,0,0,1,2.23,1.27,6.26,6.26,0,0,0,4.15,1.58,10.63,10.63,0,0,0,2.06-.23,21.27,21.27,0,0,1,4-.61c1.18,0,2.26.3,4.65,1.26a7.15,7.15,0,0,0,2.74.52,10.28,10.28,0,0,0,2.24-.26,1.7,1.7,0,0,0,1-.72,109.12,109.12,0,0,0,6.45-12.94,52.15,52.15,0,0,0,1.82-5c0,.15,0,.31-.05.47A1.5,1.5,0,0,0,35,67.31a1.67,1.67,0,0,0,1.09.57l.82.07a10.65,10.65,0,0,1,3.55,1.15,7.91,7.91,0,0,0,5.91.9,19.76,19.76,0,0,0,3.15-1,7.79,7.79,0,0,1,2.79-.7,7.17,7.17,0,0,1,2.95.78,9.51,9.51,0,0,0,2.11.7q-.13.46-.24.87a82.56,82.56,0,0,0-2,9.36,1.58,1.58,0,0,0,.31,1.17,1.69,1.69,0,0,0,1,.59,16.61,16.61,0,0,0,1.87.11,26.3,26.3,0,0,0,4.66-.52A20,20,0,0,1,66.57,81l.7,0a7.56,7.56,0,0,1,3.33,1.2A8.42,8.42,0,0,0,75,83.57h.25a7.35,7.35,0,0,0,4.1-1.8,13.9,13.9,0,0,1,3.28-1.91,1.52,1.52,0,0,0,1-1.21c1.82-11.72,2.32-20.3,1.52-26.18.12-.21.29-.45.49-.74,1.72,2.6,4.73,3,6.23,3.22l.32.05a3.5,3.5,0,0,1,1.12.61A4.88,4.88,0,0,0,96,56.67a3.14,3.14,0,0,0,1.79-.57,4.2,4.2,0,0,0,2-3.36,4.25,4.25,0,0,0-1.88-3.51,3.49,3.49,0,0,1-1.09-1.88l-.06-.15.27.23a5.17,5.17,0,0,0,3.3,1.12,5.74,5.74,0,0,0,.71,0l.31,0a9.05,9.05,0,0,1,2.57.58,8.66,8.66,0,0,0,2.57.57,2.76,2.76,0,0,0,2.22-1,3.31,3.31,0,0,0,.7-2.62A7,7,0,0,0,106.74,42a4.84,4.84,0,0,0,2.42.62q.3,0,.6,0H110a1.09,1.09,0,0,1,.7.27,3.23,3.23,0,0,0,1.82.61,3.41,3.41,0,0,0,1.18-.22,5.26,5.26,0,0,0,3.3-3.06,3.61,3.61,0,0,0-.71-3.32,13.31,13.31,0,0,0-2.23-2.2h.24A21.93,21.93,0,0,0,116.8,34.44Zm-1.69,3.23a2.24,2.24,0,0,1,.48,2,3.8,3.8,0,0,1-2.42,2.14,2,2,0,0,1-.7.14,1.88,1.88,0,0,1-1.06-.4,2.47,2.47,0,0,0-1.79-.47,3.35,3.35,0,0,1-3.85-3.2l-.47-3.56-1.41.83c-1.64.94-3.46,2-5.3,3.16l.21.07a12,12,0,0,0,2.49.61,3.49,3.49,0,0,1,3,2.21,3.86,3.86,0,0,0,1.2,1.53A5.8,5.8,0,0,1,108,46.22a1.83,1.83,0,0,1-.39,1.52,1.36,1.36,0,0,1-1.12.48,7.6,7.6,0,0,1-2.13-.5,8.6,8.6,0,0,0-3.47-.62,3.88,3.88,0,0,1-3-.77,4.52,4.52,0,0,1-1.53-3.13,7.82,7.82,0,0,0-.47-1.91,4.36,4.36,0,0,1-.28-.95c-1.09.77-2.16,1.57-3.17,2.41-.62.52-1.19,1-1.73,1.5a5.24,5.24,0,0,1,3.5,1.29,5.79,5.79,0,0,1,1.24,2.29A4.73,4.73,0,0,0,97,50.37a2.87,2.87,0,0,1,1.3,2.34A2.81,2.81,0,0,1,97,54.92a1.75,1.75,0,0,1-1,.33,3.59,3.59,0,0,1-1.89-.83,4.48,4.48,0,0,0-1.7-.83L92,53.53c-1.79-.25-5.06-.71-6-4.48H85.9a20.18,20.18,0,0,0-2.28,3.13c.88,5.72.4,14.43-1.44,26.26a.1.1,0,0,1-.07.09,15.85,15.85,0,0,0-3.61,2.09,6.17,6.17,0,0,1-3.31,1.54H75a7.08,7.08,0,0,1-3.69-1.22,9,9,0,0,0-3.91-1.37,18.17,18.17,0,0,0-4.59.41,19.92,19.92,0,0,1-6.11.4.1.1,0,0,1-.08-.05.16.16,0,0,1,0-.09,84.52,84.52,0,0,1,2-9.19c.19-.68.43-1.51.71-2.43a9,9,0,0,1-3.34-.8,7.27,7.27,0,0,0-6.84-.12,19.15,19.15,0,0,1-2.95.93,8.06,8.06,0,0,1-1.59.18,7.38,7.38,0,0,1-3.41-1,12,12,0,0,0-4-1.29l-.9-.08a.12.12,0,0,1-.08,0,.1.1,0,0,1,0-.1,46.47,46.47,0,0,1,1.14-6.4,49.28,49.28,0,0,1,2.43-7.16c-.05-.08-.09-.16-.13-.24a6.71,6.71,0,0,0-1.74-2.23,3.87,3.87,0,0,1-1.49-2.66c-.42.18-.83.36-1.23.55a25.2,25.2,0,0,1,.26,7.52,50.8,50.8,0,0,1-3.73,14.49A107.61,107.61,0,0,1,25.25,83a.16.16,0,0,1-.08.06,9.18,9.18,0,0,1-1.92.23A5.76,5.76,0,0,1,21,82.82c-4.26-1.73-5.11-1.63-9.49-.73-2.85.58-3.89-.2-5.08-1.1a8.94,8.94,0,0,0-2.63-1.48,4.83,4.83,0,0,0-2.28-.17.12.12,0,0,1-.11,0,.13.13,0,0,1,0-.12A82.9,82.9,0,0,1,7.27,64.76c1.11-2.13,10.44-19.6,18.93-22.52,0-.09-.05-.35-.11-.78a8,8,0,0,1-1.41-1.61A1.69,1.69,0,0,1,24,40l-.32,0a6.16,6.16,0,0,1-2.05-.67,3.83,3.83,0,0,0-1.75-.5h0A3.84,3.84,0,0,1,17,37.67a2.54,2.54,0,0,1-.37-2.25c.09-.38.2-.73.29-1a3.12,3.12,0,0,0,.24-1.69,3,3,0,0,1,.17-2.38,1.6,1.6,0,0,1,1.14-.69,6.1,6.1,0,0,1,2.59.51,13,13,0,0,0,2.81.72,2.84,2.84,0,0,1,1.49.66c0-1.7.06-3.45.23-5.14a7.31,7.31,0,0,1-2.76,2.21,2.57,2.57,0,0,1-.72.11,2.61,2.61,0,0,1-1.23-.33,3.53,3.53,0,0,1-1.59-2.24,3.71,3.71,0,0,0-1.24-2.34,1.14,1.14,0,0,1-.17-.15,2.78,2.78,0,0,1-.71-1.85,1.82,1.82,0,0,1,.6-1.36,2,2,0,0,1,1.84-.55A1.82,1.82,0,0,1,20.84,21c.22.62.73.56,1.54.41a2.22,2.22,0,0,1,1.55.05l.54.3a10.14,10.14,0,0,1,1.35.82c0-1.38,0-2.69,0-3.9a3.88,3.88,0,0,1-.71-.28,1.94,1.94,0,0,0-1-.3l-.51.1c-1,.23-2.76.61-3.78-.92A3.21,3.21,0,0,1,19.3,15a3.6,3.6,0,0,0-.42-2.23c-.73-1.33-.08-2.05.23-2.29a2.2,2.2,0,0,1,2.72.12c.18.17.38.38.61.63a8.85,8.85,0,0,0,3.23,2.48l.11.07a5.48,5.48,0,0,1,.32-1.67c-1.16-.41-2.83-1.54-3-2.58A20.73,20.73,0,0,1,23,6.86c0-.38,0-.75,0-1.1a2,2,0,0,1,1.3-1.7A2.8,2.8,0,0,1,27.12,4c1.25.92,3.07,3.6,3,4.69-.08.93-1.47,2.3-2.3,3.11l-.27.28a12.44,12.44,0,0,1,.36,2.58c.22-.24.63-.72,1.23-1.5,1.08-1.42,2.86-2.68,4.33-1.61a3.39,3.39,0,0,1,1.46,2.33,2.55,2.55,0,0,1-.75,2,5.41,5.41,0,0,0-1,1.52,3,3,0,0,1-1.65,1.74,4.14,4.14,0,0,1-1.59.3,6.49,6.49,0,0,1-1.9-.31c0,1.32,0,2.76,0,4.26a4,4,0,0,1,1.93-1.79,7.1,7.1,0,0,0,1.56-.92c.7-.51,1.36-1,2-.8a2.33,2.33,0,0,1,1.92,1.52,1.43,1.43,0,0,1,.71-.13l.33,0c1.29.1,2.9.22,3,1.86a4.47,4.47,0,0,0,.8,1.92,3.74,3.74,0,0,1,.76,2.1c.74-.6,1.46-1.14,2.16-1.63a3.82,3.82,0,0,1-1.68-1.75,3.57,3.57,0,0,1,.12-2.62,4.75,4.75,0,0,0,.29-1.35,2.36,2.36,0,0,1,.5-1.5c0-.06-.09-.1-.13-.16a5.4,5.4,0,0,0-1-1,1.26,1.26,0,0,1-.53-.85c-.08-.75.6-1.56,1.15-2.22.17-.2.32-.38.44-.54.47-.66,2-.52,2.84-.38.34.06.56.11.7.15-.39-1.45-.4-2.15.21-2.5h0l-.17,0-.31.07a2.86,2.86,0,0,1-1.39.42,2,2,0,0,1-.48-.06A2.2,2.2,0,0,1,42.38,10a4.06,4.06,0,0,1-.26-3.47,2.15,2.15,0,0,1,1.45-1.26C44.68,5,46.3,5.23,47.74,8A2,2,0,0,1,48,9.72a2.25,2.25,0,0,1-1.66.95.59.59,0,0,1,.23.07c.46.24,1,1.21,1.64,2.75a18.86,18.86,0,0,1,1.27-1.71,2.91,2.91,0,0,1,.86-.69,2.27,2.27,0,0,1,0-.52,2.45,2.45,0,0,1,.81-1.8,1.89,1.89,0,0,1,1.44-.37c1,.15,2,.92,3.45,2l.55.42a6,6,0,0,1,1.14,1.09,5.26,5.26,0,0,1,1.09-2.12A6.22,6.22,0,0,1,57.2,6.83,4.06,4.06,0,0,1,60,1.89c1.1-.38,2.45-.74,3.2-.2a1.82,1.82,0,0,1,.6,1.6,5.2,5.2,0,0,0,.76,2.52A2.94,2.94,0,0,1,65.09,8a4.85,4.85,0,0,1-2.78,2.94,2.89,2.89,0,0,1-.91.15,2.77,2.77,0,0,1-.93-.17,27,27,0,0,1-.71,5.78c-.33,1.82-.71,3.89-1,6.2a4,4,0,0,1,1.46-1.24c2.14-1.05,3.69-.7,4.75,1a1.51,1.51,0,0,1,.09.18,2.54,2.54,0,0,1,1.91.68,3.11,3.11,0,0,0,2,.8c.45.08,1,.16,1.57.32a3.5,3.5,0,0,1,.79.29c-.3-1.52-.64-3-1-4.48a1.75,1.75,0,0,1-.62.11,5.4,5.4,0,0,0-1.64.37,5.61,5.61,0,0,1-1.72.38,2.21,2.21,0,0,1-1.57-.65,17.56,17.56,0,0,1-2.37-2.92,15.76,15.76,0,0,0-1-1.35,2.93,2.93,0,0,1,0-3.43,3.21,3.21,0,0,1,2.19-1.07h0a1.87,1.87,0,0,1,1.4.68,7.31,7.31,0,0,1,.77,1.08,1.71,1.71,0,0,0,1.45,1.06,5.37,5.37,0,0,1,1.93.65,11.64,11.64,0,0,1-.27-3.34c-.81-.14-1.88-.71-2.83-2.57C64.87,7,64.64,4.86,65.54,4a3.42,3.42,0,0,1,2.72-1A1.81,1.81,0,0,1,69.58,4a4.94,4.94,0,0,0,1.65,1.78c.86.67,1.68,1.31,1.65,2.47a4,4,0,0,1-2.1,3.37,11.71,11.71,0,0,1,1,3.17,6.68,6.68,0,0,0,2-2.84c.56-1.47,1.3-1.89,1.82-2a1.68,1.68,0,0,1,1.56.59,3.22,3.22,0,0,1,.53,2.13,6,6,0,0,0,.38,2.33,4.38,4.38,0,0,1-.61,3.9A2.17,2.17,0,0,1,75.79,20h-.14a6.52,6.52,0,0,1-3-.83c.38,2,.84,4.23,1.43,6.67a7.3,7.3,0,0,1,2.76-2.54c.14-2,.65-2.89,2-3.49a.89.89,0,0,1,.76,0c.52.23.78,1,1,1.76a3.78,3.78,0,0,0,.62,1.35,2,2,0,0,0,1.26.36,2.14,2.14,0,0,1,1.89.86,5.61,5.61,0,0,1,.51,1.1c.69-1.39,1.32-2.58,1.9-3.59a4.4,4.4,0,0,1-.73.06,5.1,5.1,0,0,1-.87-.07A3.62,3.62,0,0,1,82.81,20a4.14,4.14,0,0,1-.61-3.18,13,13,0,0,0,.23-1.75c.07-1,.12-1.56,1-1.83l.19-.06c1.47-.47,2.86-.92,3.57,1a13.14,13.14,0,0,1,.59,2.5,8.94,8.94,0,0,0,.64,2.4,6.35,6.35,0,0,1,1.33-1.41,7.86,7.86,0,0,1-.56-3.42c0-3.23.19-3.37,2-4.15l.43-.19c1.29-.55,2.59-1,3.48-.49a2.45,2.45,0,0,1,1,2c.37,3-.3,4.84-2.12,5.73-.5.24-.9.46-1.26.65a8.26,8.26,0,0,1-1.34.62,4.35,4.35,0,0,1-.34,1.82,7.58,7.58,0,0,1,2.42-1c1.66-.32,3.76-.3,4.36,1.55a3.59,3.59,0,0,1,.08,2.73,2.49,2.49,0,0,1-1.54,1.15l-.06,0-.8.24A2.65,2.65,0,0,1,98.14,27c.18.51.36,1,.53,1.39a9.43,9.43,0,0,1,1,4.1c0,.42,0,.79,0,1.12v.14c1.46-.86,3-1.72,4.39-2.49-.14-.19-.28-.4-.42-.62a6,6,0,0,0-1.89-2,3,3,0,0,1-1.44-2.48,3.38,3.38,0,0,1,1.5-2.82c.53-.38,1.07-.86,1.6-1.33,1.45-1.28,2.82-2.49,3.8-1.54a3.13,3.13,0,0,1,.69,2.66,3.68,3.68,0,0,0,.13,1.64,7,7,0,0,1-.07,4.62,9.53,9.53,0,0,1,1.58-.5,6.41,6.41,0,0,1,.52-2.42c.19-.49.36-1,.5-1.38.58-1.72,1-3,2.79-2.79h0c2.08.2,4.92.48,4.81,4.74,0,1.13,0,2.06,0,2.81.09,2,.14,3-1.55,3.16a22.4,22.4,0,0,1-2.4.15c-1.54,0-2.83-.28-3.43-1.21-.23-.37-.41-.68-.56-.94A14.9,14.9,0,0,1,108,32.72,18.51,18.51,0,0,1,115.11,37.67Zm-10.52,1.5a4.42,4.42,0,0,0-2.33-1.38l1.91-1.12.2,1.45A5.74,5.74,0,0,0,104.59,39.17Zm-9.46,5.31a5.31,5.31,0,0,0-1.41-1c.35-.28.71-.57,1.1-.86a4.46,4.46,0,0,1,.11.67A8.36,8.36,0,0,0,95.13,44.48Zm-58.24,6.9a5.31,5.31,0,0,1,1.21,1.45c-.53,1.3-1,2.64-1.45,4,0-.34.07-.67.11-1A32.52,32.52,0,0,0,36.89,51.38ZM21.82,19.86h.26a8.19,8.19,0,0,0,1.85-.25l.25-.05a1.2,1.2,0,0,1,.23.11v.48a2.78,2.78,0,0,0-1.17-.24,6.12,6.12,0,0,0-1.14.14l-.16,0ZM65.36,11a2.64,2.64,0,0,0-.37-.2l.15-.16ZM60.62,20c.11-.63.21-1.23.32-1.8.09.14.2.29.31.44.24.35.49.71.76,1.07A6.05,6.05,0,0,0,60.62,20Zm7.27,2.56.63-.2.72-.22.21.92L69.19,23c-.82-.13-1-.19-1.22-.37Zm-1-9.86a4.4,4.4,0,0,0,.63.4c0,.1,0,.2,0,.3a1.45,1.45,0,0,1-.23,0h0A3.55,3.55,0,0,1,67,13Zm8.86,8.77a8.2,8.2,0,0,0-.2,1,6.86,6.86,0,0,0-.64.46c-.12-.55-.23-1.08-.34-1.6q.46.08,1,.12Zm6.34-.06c.15.16.3.31.46.45l-.3,0C82.17,21.67,82.11,21.51,82.06,21.36Zm18.56,8.28c.11.07.21.15.33.22a3.76,3.76,0,0,1,1,.95l-1,.55A9,9,0,0,0,100.62,29.64Z"/><path class="cls-1" d="M83,29.15a3.41,3.41,0,0,1-.92.13,4.27,4.27,0,0,1-1.71-.4,16.12,16.12,0,0,1-1.21,2.48c.23.18.47.37.73.61A3.21,3.21,0,0,1,81,34c.44-1.2.91-2.39,1.42-3.5C82.58,30.05,82.79,29.59,83,29.15Z"/><path class="cls-1" d="M78,36.35c-.65,0-1.15-.07-1.56-.12.15.88.29,1.72.41,2.52a1.56,1.56,0,0,1,1,.58l.3.42c.22.3.47.65.7,1,.4-1.44.89-3.06,1.44-4.72a3.91,3.91,0,0,1-1.76.32Zm.23,1.44h0Z"/><path class="cls-1" d="M54.56,16.71a1.59,1.59,0,0,1-1.23-.57,12,12,0,0,1-3.92.92,96.12,96.12,0,0,1,2.28,10,2.4,2.4,0,0,1,1.56,2,2.6,2.6,0,0,1-.88,2.36c.26,1.8.47,3.66.64,5.53l1-.32,0-.24a5.83,5.83,0,0,0-.26-3.76c-1.14-2.14-.27-3.18.84-4l.38-.28.15-.11c.06-.76.13-1.54.21-2.32a3.5,3.5,0,0,1-.85.14c-1,0-1.68-.68-2.69-2.14A6.51,6.51,0,0,1,51,19a2.65,2.65,0,0,1,1-1.78c.63-.37,1.46.25,2.33.9a5,5,0,0,0,1.84,1c.19-1.25.38-2.43.59-3.51a3.9,3.9,0,0,1-2.16,1Z"/><path class="cls-1" d="M70.92,44c-.53-.19-1-.33-1.51-.46-2.39-.65-4.12-1.13-4-7.08a3,3,0,0,1,1.22-2.34,2,2,0,0,1,1.73-.37,25.67,25.67,0,0,1,4.43,2.55c-.14-1-.26-1.89-.35-2.79a3.44,3.44,0,0,1-.61-1.73,5.76,5.76,0,0,1-1.38.3l-.47,0c-1.85,0-2.52-1.24-3.13-2.35-.42-.78-.79-1.46-1.51-1.62-.16,0-.3-.08-.44-.12a2.69,2.69,0,0,1-.94,1.12,10.11,10.11,0,0,1-4.59,1.31,3.83,3.83,0,0,1-.6,0A16.88,16.88,0,0,1,58,33.46a3.43,3.43,0,0,0-.09,1,4.61,4.61,0,0,1-.13,1.27v.12l.16,0c.12-.32.26-.68.43-1.08.64-1.43,1.29-2.75,2.31-3.1a2.08,2.08,0,0,1,1.72.27,3.58,3.58,0,0,1,1.94,2.15,3.17,3.17,0,0,1-.6,2.5l0,.06c-.81,1.21-1.72,2.59-3,2.81l-.37,0a3.06,3.06,0,0,1-1.79-.69,2.16,2.16,0,0,1-.8-1v.83A3.65,3.65,0,0,1,59.46,41a7.4,7.4,0,0,1,.91.94c2.31,2.95,3.13,8.39,2.5,16.57q.45-1.06,1-2.13c2.91-6.12,6-10.08,9.2-11.76l.38-.18h-.18A6.93,6.93,0,0,1,70.92,44Zm-7.52-13a7.61,7.61,0,0,0,1.28-.64,3.48,3.48,0,0,0,.57-.46c.11.18.23.39.32.56a7.58,7.58,0,0,0,1.38,2,3.65,3.65,0,0,0-1.19.58,2.43,2.43,0,0,0-.25.2A5.24,5.24,0,0,0,63.4,30.93Zm1.07,21.18c-.16-5-1.15-8.69-3-11l-.18-.22A5.32,5.32,0,0,0,64,38.77c.43,4.46,2.39,5.37,5,6.1l.81.23A27.06,27.06,0,0,0,64.47,52.11Z"/><path class="cls-1" d="M91.25,26.34l.57.56A6.13,6.13,0,0,0,93.19,28a5.2,5.2,0,0,1,.68-2.75c-.21,0-.41.05-.62.05A3.49,3.49,0,0,1,89.8,23c-.4.76-.85,1.57-1.32,2.42l-.66,1.19.34-.17C89.43,25.87,90.7,25.84,91.25,26.34Z"/></svg>