<svg xmlns="http://www.w3.org/2000/svg" width="2484.087" height="6202.969" viewBox="0 0 2484.087 6202.969">
  <path id="Path_8064" data-name="Path 8064" d="M72.612,775.692C148.3,441.577,441.053,381.046,691.183,105.331c411.634-373.169,697.825,2.6,1147.984,0,516.739-2.985,652.119,338.775,534.137,767.761-163.636,672.245,266.179,594.306,50.667,1785.639-67.635,521.044,245.492,862.575,42.533,1727.761s123.14,1170.651,0,1479.4c-240.977,604.194-1151.39,15.473-1846.491,119.329-766.825-346.736-554.907-1206.193-415.277-2043.3s-332.72-937.954-73.527-1961.74C338.251,1365.452-26.491,1213.171,72.612,775.692Z" transform="translate(-51.948 60.065)" fill="#fff6eb" stroke="#000" stroke-miterlimit="10" stroke-width="0.25"/>
</svg>
