<svg xmlns="http://www.w3.org/2000/svg" xmlns:xlink="http://www.w3.org/1999/xlink" width="316.513" height="405.274" viewBox="0 0 316.513 405.274">
  <defs>
    <clipPath id="clip-path">
      <path id="Path_15678" data-name="Path 15678" d="M616.436,1437.732H719.019c33.333,0,42.028-10.858,34.6-62.934-78.764,19.977-150.027,5.046-171.7-.521C574.35,1426.806,582.992,1437.732,616.436,1437.732Z" transform="translate(-579.366 -1374.278)" fill="none"/>
    </clipPath>
  </defs>
  <g id="Group_4112" data-name="Group 4112" transform="translate(-540.15 -1174.279)">
    <g id="Group_4098" data-name="Group 4098" transform="translate(724.939 1502.045)">
      <path id="Path_15639" data-name="Path 15639" d="M679.451,1418.113s.056,29.8-6.346,43.529,13.907,20.184,39.712,18.638,63.768,4.5,79.1-1.511-2.17-21.818-7.219-61.326Z" transform="translate(-671.915 -1404.099)" fill="#af485c" stroke="#000" stroke-miterlimit="10" stroke-width="0.25"/>
      <path id="Path_15640" data-name="Path 15640" d="M686.323,1414.792c16.159-5.154,53.494-9.827,77.944-4.522s24.908,19.217-1.453,21.847-44.209-2.222-65.9-2.67S671.246,1419.6,686.323,1414.792Z" transform="translate(-669.75 -1407.931)" fill="#ffecd9" stroke="#000" stroke-miterlimit="10" stroke-width="0.25"/>
    </g>
    <g id="Group_4099" data-name="Group 4099" transform="translate(812.484 1537.11)">
      <path id="Path_15641" data-name="Path 15641" d="M761.074,1437.168c6.628.066,17.315-1.5,17.3,1.351s-1.678,5.2-4.485,7.734-12.477.481-16.74,3.505-11.228,6.923-16.115,2.358-7.212-11.869-6.621-15.967Z" transform="translate(-734.322 -1431.628)" fill="#e5aeae" stroke="#000" stroke-miterlimit="10" stroke-width="0.25"/>
      <path id="Path_15642" data-name="Path 15642" d="M738.333,1434.6c6.875-1.713,22.581-2.709,32.656.061s9.919,8.47-1.153,8.9-18.4-1.993-27.449-2.707S731.918,1436.193,738.333,1434.6Z" transform="translate(-734.298 -1432.927)" fill="#ffecd9" stroke="#000" stroke-miterlimit="10" stroke-width="0.25"/>
    </g>
    <g id="Group_4100" data-name="Group 4100" transform="translate(740.055 1411.167)">
      <path id="Path_15643" data-name="Path 15643" d="M712.451,1348.659c6.717-2.179,9.6,5.511,10.837,10.828,0,0,.258-15.507,7.262-16.309,5.363-.613,7.865,8,7.085,16.169,0,0,3.179-18.1,10.89-15.279,10.039,3.678,6.14,52.567-21.436,77.223C710.072,1408.313,694.6,1354.445,712.451,1348.659Z" transform="translate(-673.903 -1343.147)" fill="#cece46" stroke="#000" stroke-miterlimit="10" stroke-width="0.25"/>
      <path id="Path_15644" data-name="Path 15644" d="M716.766,1434.54s18.931-3.367,35.01-16.361c16.647-13.453,24.031-27.906,18.319-33.772s-19.808,7.995-19.808,7.995,12.223-19.423,3.893-23.491-16.958,18.735-16.958,18.735,6.146-18.829-1.028-21.877S712.856,1392.649,716.766,1434.54Z" transform="translate(-669.207 -1334.121)" fill="#e5aeae" stroke="#000" stroke-miterlimit="10" stroke-width="0.25"/>
      <path id="Path_15645" data-name="Path 15645" d="M739.4,1389.63s-19.161,12.935-22.805,35.212" transform="translate(-669.034 -1324.424)" fill="none" stroke="#000" stroke-linejoin="round" stroke-width="0.25"/>
      <path id="Path_15646" data-name="Path 15646" d="M730.458,1436.487s-25.862-7.72-40.969-26.873-1.971-34.98,9.737-22.93c0,0-9.7-20.089,1.2-23.833s17.767,15.493,17.767,15.493.972-21.247,13.422-17.89C743,1363.524,744.05,1411.258,730.458,1436.487Z" transform="translate(-682.69 -1336.321)" fill="#cece46" stroke="#000" stroke-miterlimit="10" stroke-width="0.25"/>
      <path id="Path_15647" data-name="Path 15647" d="M700.418,1374.737s18.245,20.593,22.9,55.851" transform="translate(-675.55 -1330.423)" fill="none" stroke="#000" stroke-miterlimit="10" stroke-width="0.25"/>
    </g>
    <g id="Group_4111" data-name="Group 4111" transform="translate(540.275 1174.279)">
      <path id="Path_15648" data-name="Path 15648" d="M557.5,1294.169s17.152,9.793,26.5,11.351l8.457-27.886s-11.8-4.608-16.247-8.391-11.151-9.212-16.692-6.9S550.811,1285.045,557.5,1294.169Z" transform="translate(-534.857 -1139.03)" fill="#fff" stroke="#000" stroke-miterlimit="10" stroke-width="0.25"/>
      <path id="Path_15649" data-name="Path 15649" d="M717.312,1280.783c-29.69-32.4-66.118-30.463-66.118-30.463l-1.382,30.484,22.8,13.742a34.833,34.833,0,0,0,24.971,10.222l-.076.094a5.461,5.461,0,0,0-.69,5.608,5.683,5.683,0,0,0,1.853,2.33c5.726,4.2,20.122,14.811,23.184,17.536a5.148,5.148,0,0,0,5.418,1.2c2.107-.722,4.176-2.615,6.073-4.974C736.87,1322.176,740.645,1306.245,717.312,1280.783Z" transform="translate(-496.154 -1143.659)" fill="#af485c" stroke="#000" stroke-miterlimit="10" stroke-width="0.25"/>
      <path id="Path_15650" data-name="Path 15650" d="M680.68,1292.45s6.7-16.34,34.186-11.141" transform="translate(-483.72 -1131.579)" fill="none" stroke="#000" stroke-miterlimit="10" stroke-width="0.25"/>
      <path id="Path_15651" data-name="Path 15651" d="M683.269,1257.275a45.9,45.9,0,0,0-16.051,36" transform="translate(-489.147 -1140.848)" fill="none" stroke="#000" stroke-miterlimit="10" stroke-width="0.25"/>
      <path id="Path_15652" data-name="Path 15652" d="M671.959,1253.167s-12.514,11.2-11.523,35.449" transform="translate(-491.897 -1142.503)" fill="none" stroke="#000" stroke-miterlimit="10" stroke-width="0.25"/>
      <path id="Path_15653" data-name="Path 15653" d="M650.463,1257.68c11.819.445,43,7.48,60.006,32.173,0,0,25.673,14.359,7.279,34.415" transform="translate(-495.891 -1140.685)" fill="none" stroke="#000" stroke-miterlimit="10" stroke-width="0.25"/>
      <path id="Path_15654" data-name="Path 15654" d="M699.434,1294.756c-2.222-3.665-19.284-22.146-49.39-27.841" transform="translate(-496.06 -1136.965)" fill="none" stroke="#000" stroke-miterlimit="10" stroke-width="0.25"/>
      <path id="Path_15655" data-name="Path 15655" d="M690.7,1305.525s.483-13.433,9.721-21.606" transform="translate(-479.685 -1130.116)" fill="none" stroke="#000" stroke-miterlimit="10" stroke-width="0.25"/>
      <path id="Path_15656" data-name="Path 15656" d="M660.191,1250.726s-9.634,15.327-6.007,33.164" transform="translate(-494.721 -1143.486)" fill="none" stroke="#000" stroke-miterlimit="10" stroke-width="0.25"/>
      <path id="Path_15657" data-name="Path 15657" d="M697.014,1280.615s-8.163,1.9-13.147,11.941c1.728.727,22.223-1.042,36.9,19.816" transform="translate(-482.436 -1131.447)" fill="none" stroke="#000" stroke-miterlimit="10" stroke-width="0.25"/>
      <path id="Path_15658" data-name="Path 15658" d="M671.115,1294.228s4.781-22.734,26.809-29.442" transform="translate(-487.573 -1137.823)" fill="none" stroke="#000" stroke-miterlimit="10" stroke-width="0.25"/>
      <path id="Path_15659" data-name="Path 15659" d="M645.953,1252.864s-29.981,11.21-42.958,32.2c0,0-8.428-9.854-15.105-8-6.22,1.724-16.285,11.481-16.888,30.2a8.72,8.72,0,0,0,3.536,7.32c4.656,3.412,13.955,8.378,27.966,7.607,21.062-1.157,32.633-9.027,32.633-9.027Z" transform="translate(-527.9 -1142.625)" fill="#af485c" stroke="#000" stroke-miterlimit="10" stroke-width="0.25"/>
      <path id="Path_15660" data-name="Path 15660" d="M601.826,1312.421c-11.618-12.562-5.481-36.6-5.481-36.6s-12.282,17.847-7.891,37.208" transform="translate(-521.25 -1133.378)" fill="none" stroke="#000" stroke-miterlimit="10" stroke-width="0.25"/>
      <path id="Path_15661" data-name="Path 15661" d="M591.556,1271.137s-15.016,16.991-11.1,41.106" transform="translate(-524.352 -1135.265)" fill="none" stroke="#000" stroke-miterlimit="10" stroke-width="0.25"/>
      <path id="Path_15662" data-name="Path 15662" d="M602.411,1265.993s1.789,15.5,9.194,17.585" transform="translate(-515.247 -1137.337)" fill="none" stroke="#000" stroke-miterlimit="10" stroke-width="0.25"/>
      <path id="Path_15663" data-name="Path 15663" d="M597.755,1270.611s-2.037,23.142,9.3,29.623" transform="translate(-517.18 -1135.476)" fill="none" stroke="#000" stroke-miterlimit="10" stroke-width="0.25"/>
      <path id="Path_15664" data-name="Path 15664" d="M571.851,1288.361a54.124,54.124,0,0,1,30.49,14.015s8.15-22.811,25.74-29.292" transform="translate(-527.556 -1134.48)" fill="none" stroke="#000" stroke-miterlimit="10" stroke-width="0.25"/>
      <path id="Path_15665" data-name="Path 15665" d="M576.314,1280.978s15.825.191,23.177,9.463a74.8,74.8,0,0,1,38.134-29.456" transform="translate(-525.759 -1139.354)" fill="none" stroke="#000" stroke-miterlimit="10" stroke-width="0.25"/>
      <path id="Path_15666" data-name="Path 15666" d="M607.837,1261.788s4.323,16.866,17.09,17.243" transform="translate(-513.061 -1139.031)" fill="none" stroke="#000" stroke-miterlimit="10" stroke-width="0.25"/>
      <path id="Path_15667" data-name="Path 15667" d="M613.928,1257.95s3.336,9.28,11.577,10.455" transform="translate(-510.608 -1140.576)" fill="none" stroke="#000" stroke-miterlimit="10" stroke-width="0.25"/>
      <path id="Path_15668" data-name="Path 15668" d="M752.885,1426.682c-1.272-8.915-3.013-19.028-5.189-30.511-14.29-75.458-40.746-149.829-80.326-150.7v.957c-.125,0-.248.01-.373.011s-.25-.011-.375-.011v-.957c-40.076.884-65.539,72.623-80.326,150.7-2.132,11.259-3.849,21.2-5.115,29.99C602.858,1431.728,674.12,1446.66,752.885,1426.682Z" transform="translate(-523.798 -1145.603)" fill="#e5aeae" stroke="#000" stroke-miterlimit="10" stroke-width="0.25"/>
      <path id="Path_15669" data-name="Path 15669" d="M616.436,1437.732H719.019c33.333,0,42.028-10.858,34.6-62.934-78.764,19.977-150.027,5.046-171.7-.521C574.35,1426.806,582.992,1437.732,616.436,1437.732Z" transform="translate(-524.529 -1093.719)" fill="#af485c" stroke="#000" stroke-miterlimit="10" stroke-width="0.25"/>
      <g id="Group_4104" data-name="Group 4104" transform="translate(54.837 280.559)">
        <g id="Group_4103" data-name="Group 4103" clip-path="url(#clip-path)">
          <g id="Group_4102" data-name="Group 4102" transform="translate(-9.576 -8.407)">
            <path id="Path_15670" data-name="Path 15670" d="M574.978,1387.248s116.683,23.229,190.569-2.245" transform="translate(-571.558 -1361.551)" fill="none" stroke="#000" stroke-miterlimit="10" stroke-width="0.25"/>
            <path id="Path_15671" data-name="Path 15671" d="M572.54,1403.378s121.623,21.3,200.729-3.594" transform="translate(-572.54 -1355.598)" fill="none" stroke="#000" stroke-miterlimit="10" stroke-width="0.25"/>
            <g id="Group_4101" data-name="Group 4101" transform="translate(18.388)">
              <path id="Path_15672" data-name="Path 15672" d="M588.469,1369.548s-9.388,48.534,6.087,77.711" transform="translate(-585.648 -1367.776)" fill="none" stroke="#000" stroke-miterlimit="10" stroke-width="0.25"/>
              <path id="Path_15673" data-name="Path 15673" d="M603.9,1372.95s-5.239,42.671,4.255,74.009" transform="translate(-578.876 -1366.406)" fill="none" stroke="#000" stroke-miterlimit="10" stroke-width="0.25"/>
              <path id="Path_15674" data-name="Path 15674" d="M623.778,1375.506s-3.5,41.043.786,70.423" transform="translate(-570.831 -1365.377)" fill="none" stroke="#000" stroke-miterlimit="10" stroke-width="0.25"/>
              <path id="Path_15675" data-name="Path 15675" d="M697.912,1368.285s10.054,48.312-5.016,77.839" transform="translate(-542.448 -1368.285)" fill="none" stroke="#000" stroke-miterlimit="10" stroke-width="0.25"/>
              <path id="Path_15676" data-name="Path 15676" d="M681.621,1372.047s5.826,42.544-3.235,74.094" transform="translate(-548.293 -1366.77)" fill="none" stroke="#000" stroke-miterlimit="10" stroke-width="0.25"/>
              <path id="Path_15677" data-name="Path 15677" d="M660.827,1375.056s4.06,40.956.182,70.429" transform="translate(-555.366 -1365.558)" fill="none" stroke="#000" stroke-miterlimit="10" stroke-width="0.25"/>
              <line id="Line_849" data-name="Line 849" x1="0.175" y2="69.42" transform="translate(79.077 11.133)" fill="none" stroke="#000" stroke-miterlimit="10" stroke-width="0.25"/>
            </g>
          </g>
        </g>
      </g>
      <path id="Path_15679" data-name="Path 15679" d="M629.419,1250.239a6.881,6.881,0,0,0-5.058,3.925s6.436,36.335,25.506,82.5c17.852,43.213,29.462,67.552,59.153,62.108,23.838-4.373,20.968-31.679,14.863-34.941,0,0,4.224,14.043-3.925,21.889s-28.309,6.778-32.363,2.907C670.06,1371.872,643.474,1310.062,629.419,1250.239Z" transform="translate(-506.405 -1143.682)" fill="#ffecd9" stroke="#000" stroke-miterlimit="10" stroke-width="0.25"/>
      <g id="Group_4105" data-name="Group 4105" transform="translate(177.942 240.804)">
        <path id="Path_15680" data-name="Path 15680" d="M667.467,1353.392s-1.523,20.56,1.839,27.015,10.181,9.264,22.729,7.129c12.642-2.152,13.583-9.281,13.987-14.122s-2.139-22.595-2.139-22.595Z" transform="translate(-667.123 -1343.973)" fill="#af485c" stroke="#000" stroke-miterlimit="10" stroke-width="0.25"/>
        <circle id="Ellipse_2819" data-name="Ellipse 2819" cx="5.442" cy="5.442" r="5.442" transform="translate(16.757 16.545)" fill="#cece46" stroke="#000" stroke-miterlimit="10" stroke-width="0.25"/>
        <path id="Path_15681" data-name="Path 15681" d="M670.3,1350.076c5.757-2.11,18.228-5.8,29.8-3.3a4.523,4.523,0,0,1,3.475,3.623c.826,4.626.28,13.3-14.542,15.351-16.4,2.267-20.632-4.831-21.669-10.542A4.6,4.6,0,0,1,670.3,1350.076Z" transform="translate(-667.054 -1345.939)" fill="#aed1c1" stroke="#000" stroke-linejoin="round" stroke-width="0.25"/>
      </g>
      <g id="Group_4107" data-name="Group 4107" transform="translate(124.392)">
        <rect id="Rectangle_213" data-name="Rectangle 213" width="7.93" height="18.28" transform="translate(27.955 33.88) rotate(32.22)" fill="#e5aeae" stroke="#000" stroke-miterlimit="10" stroke-width="0.25"/>
        <path id="Rectangle_214" data-name="Rectangle 214" d="M0,0H12.234a0,0,0,0,1,0,0V24.126a2.516,2.516,0,0,1-2.516,2.516h-7.2A2.516,2.516,0,0,1,0,24.126V0A0,0,0,0,1,0,0Z" transform="translate(12.316 86.524)" fill="#fff" stroke="#000" stroke-miterlimit="10" stroke-width="0.25"/>
        <path id="Path_15682" data-name="Path 15682" d="M654.055,1217.261c-3.239,6.576-11.089,5.1-13,0-4.164,5.942-11.149,4.718-12.018,4.539-.056.589-.09,1.185-.09,1.789v10.924a18.434,18.434,0,0,0,36.867,0v-10.924c0-.414-.035-.819-.063-1.226C655.8,1223.2,654.055,1217.261,654.055,1217.261Z" transform="translate(-628.949 -1156.966)" fill="#fff" stroke="#000" stroke-miterlimit="10" stroke-width="0.25"/>
        <path id="Path_15683" data-name="Path 15683" d="M647.356,1208.632a18.433,18.433,0,0,0-18.343,16.644c.868.178,7.854,1.4,12.018-4.539,1.909,5.1,9.759,6.576,13,0,0,0,1.744,5.942,11.7,5.1A18.418,18.418,0,0,0,647.356,1208.632Z" transform="translate(-628.923 -1160.442)" stroke="#000" stroke-miterlimit="10" stroke-width="0.25"/>
        <g id="Group_4106" data-name="Group 4106" transform="translate(13.102 70.826)">
          <ellipse id="Ellipse_2820" data-name="Ellipse 2820" cx="1.308" cy="2.617" rx="1.308" ry="2.617"/>
          <ellipse id="Ellipse_2821" data-name="Ellipse 2821" cx="1.308" cy="2.617" rx="1.308" ry="2.617" transform="translate(8.046)"/>
        </g>
        <path id="Path_15684" data-name="Path 15684" d="M683.108,1211.93c-.1-2.887-2.641-5.9-9.264-6.846a23.221,23.221,0,0,0,2.9-6.892c2.6-10.778-2.689-21.3-11.817-23.505s-18.64,4.744-21.243,15.522c-2.493,10.32.469,18.584,10.689,23.16a44.842,44.842,0,0,0,17.125,4.587C679.392,1218.407,683.24,1215.7,683.108,1211.93Z" transform="translate(-623.349 -1174.279)"/>
      </g>
      <rect id="Rectangle_215" data-name="Rectangle 215" width="10.608" height="295.481" rx="2.182" transform="translate(17.343 75.566)" fill="#cece46" stroke="#000" stroke-miterlimit="10" stroke-width="0.25"/>
      <path id="Path_15685" data-name="Path 15685" d="M570.016,1210.5a9.977,9.977,0,0,0-7.094-2.961h0a9.977,9.977,0,0,0-7.094,2.961L543.5,1222.965a11.163,11.163,0,0,0-3.225,7.849v26.329a3.966,3.966,0,0,0,3.966,3.966H581.6a3.966,3.966,0,0,0,3.966-3.966v-26.329a11.163,11.163,0,0,0-3.225-7.849Z" transform="translate(-540.275 -1160.881)" fill="#aed1c1" stroke="#000" stroke-linejoin="round" stroke-width="0.25"/>
      <path id="Path_15686" data-name="Path 15686" d="M569.791,1430.464a5.375,5.375,0,0,0-3.82-1.592h-6.125a5.374,5.374,0,0,0-3.82,1.592L545.9,1440.67a19.281,19.281,0,0,0-5.593,13.579v.628h45.2v-.628a19.282,19.282,0,0,0-5.594-13.579Z" transform="translate(-540.262 -1071.729)" fill="#ffecd9" stroke="#000" stroke-miterlimit="10" stroke-width="0.25"/>
      <rect id="Rectangle_216" data-name="Rectangle 216" width="45.202" height="7.719" transform="translate(0.046 383.148)" fill="#cece46" stroke="#000" stroke-miterlimit="10" stroke-width="0.25"/>
      <g id="Group_4108" data-name="Group 4108" transform="translate(109.588 344.013)">
        <path id="Path_15687" data-name="Path 15687" d="M622.759,1419.512s.654,26.556,10.493,44.9h12.07v-44.9Z" transform="translate(-616.639 -1419.512)" fill="#fff" stroke="#000" stroke-miterlimit="10" stroke-width="0.25"/>
        <path id="Path_15688" data-name="Path 15688" d="M618.759,1459.235c3.107-2.469,9.456-6.854,16.25-7.718h12.07a13.751,13.751,0,0,1,1.434,4.319,4.5,4.5,0,0,1-4.468,5.094h-24.7A.949.949,0,0,1,618.759,1459.235Z" transform="translate(-618.396 -1406.621)" stroke="#000" stroke-miterlimit="10" stroke-width="0.25"/>
        <path id="Path_15689" data-name="Path 15689" d="M668.43,1419.512s-.654,26.556-10.493,44.9h-12.07v-44.9Z" transform="translate(-607.331 -1419.512)" fill="#fff" stroke="#000" stroke-miterlimit="10" stroke-width="0.25"/>
        <path id="Path_15690" data-name="Path 15690" d="M674.612,1459.235c-3.109-2.469-9.458-6.854-16.251-7.718h-12.07a13.751,13.751,0,0,0-1.434,4.319,4.5,4.5,0,0,0,4.469,5.094h24.7A.95.95,0,0,0,674.612,1459.235Z" transform="translate(-607.754 -1406.621)" stroke="#000" stroke-miterlimit="10" stroke-width="0.25"/>
      </g>
      <g id="Group_4110" data-name="Group 4110" transform="translate(180.876 166.811)">
        <g id="Group_4109" data-name="Group 4109">
          <path id="Path_15691" data-name="Path 15691" d="M714.041,1313.059c-3.062-2.726-17.458-13.336-23.184-17.536a5.683,5.683,0,0,1-1.853-2.33h0s-16.215,14.864-19.323,30.838c-2.494,12.812,5.516,21.592,12.576,23.473,8.608,2.292,23.515-5.652,17.981-20.611,0,0,12.267-2.866,19.231-12.628l-.01-.007A5.149,5.149,0,0,1,714.041,1313.059Z" transform="translate(-669.214 -1293.192)" fill="#fff" stroke="#000" stroke-miterlimit="10" stroke-width="0.25"/>
        </g>
        <path id="Path_15692" data-name="Path 15692" d="M683.2,1324.205s2.187-4.732,11.4-6.99" transform="translate(-663.58 -1283.516)" fill="none" stroke="#000" stroke-miterlimit="10" stroke-width="0.25"/>
      </g>
      <path id="Path_15693" data-name="Path 15693" d="M556.169,1263.845c5.969-.731,10.757,7.471,12.015,16.817,1.4,10.417-2.348,17.672-10.377,15.954C548.6,1294.645,542.787,1265.484,556.169,1263.845Z" transform="translate(-537.044 -1138.22)" fill="#fff" stroke="#000" stroke-miterlimit="10" stroke-width="0.25"/>
      <rect id="Rectangle_217" data-name="Rectangle 217" width="14.142" height="6.479" rx="1.333" transform="matrix(0.942, -0.336, 0.336, 0.942, 129.788, 168.65)" fill="#af485c" stroke="#000" stroke-miterlimit="10" stroke-width="0.25"/>
    </g>
  </g>
</svg>
