<svg xmlns="http://www.w3.org/2000/svg" width="300.764" height="438.78" viewBox="0 0 300.764 438.78">
  <g id="Group_3973" data-name="Group 3973" transform="translate(-148.95 -643.439)">
    <g id="Group_3324" data-name="Group 3324" transform="translate(149.087 643.573)">
      <g id="Group_3318" data-name="Group 3318" transform="translate(0 105.209)">
        <path id="Path_10814" data-name="Path 10814" d="M155.562,908.3c17.911,28.488,40.965,12.609,60.264,17.388,22.655,5.612,21.037,37.566,45.831,43.576s34.937-7.888,52.593-1.5,12.912,28.65,31.869,33.9c15.467,4.286,20.824-17.032,41.721-16.247,29.967,1.127,40.707,39.852,41.1,59.387h3.4s-1.135-40.6-20.383-61.525c-5.331-5.793-3.752-14.337,4.134-16.517,5.925-1.639,19.956-3.057,21.114-15.66.8-8.656-9.371-14.407-6.683-23.473,3.247-10.954,15.248-7.681,18.435-21.341s-5.546-22.176-4.72-34.97,9.561-24.057,2.837-37.093c-7.651-14.83-20.844-7.943-29.26-13.724-21.961-15.084,1.392-73.339-71.073-82.7-41.782-5.4-41.809-16.914-70.37-19.6-31.261-2.936-64.9,6.605-78.956,40s11.083,57.2-11.074,65.8C148.548,838.654,142.019,886.758,155.562,908.3Z" transform="translate(-149.087 -717.704)" fill="#006857" stroke="#000" stroke-miterlimit="10" stroke-width="0.25"/>
        <g id="Group_3317" data-name="Group 3317" transform="translate(96.051 103.189)">
          <path id="Path_10815" data-name="Path 10815" d="M365.943,944.8S315.291,836.729,216.765,790.411" transform="translate(-216.765 -790.411)" fill="none" stroke="#000" stroke-miterlimit="10" stroke-width="0.25"/>
          <path id="Path_10816" data-name="Path 10816" d="M276.189,910.9s26.14-15.1,52.425-11.537c0,0,4.513-38.026,34-54.563" transform="translate(-191.852 -767.607)" fill="none" stroke="#000" stroke-miterlimit="10" stroke-width="0.25"/>
          <path id="Path_10817" data-name="Path 10817" d="M359.968,807.283s-37.245,20.583-43.9,68.809c0,0-41.914-14.976-73.447,17.492" transform="translate(-205.924 -783.338)" fill="none" stroke="#000" stroke-miterlimit="10" stroke-width="0.25"/>
        </g>
      </g>
      <g id="Group_3323" data-name="Group 3323" transform="translate(15.407)">
        <path id="Path_10818" data-name="Path 10818" d="M283.585,839.832s1.167,2.251-.417,6.084-1.919,7.451.416,9.769,9.821,2.118,14.671,3.734c6.934,2.312,11.723,9.542,21.333,10.663a14.861,14.861,0,0,0,14.557-7.3,23.83,23.83,0,0,0,3.2-12.109c0-12.67-12.835-19.671-25.254-13.836,0,0-14-2.248-14.419-2.082S283.585,839.832,283.585,839.832Z" transform="translate(-108.811 -563.429)" fill="#e94827" stroke="#000" stroke-miterlimit="10" stroke-width="0.25"/>
        <path id="Path_10819" data-name="Path 10819" d="M249.5,849.9s1.318,4.932.853,7.982c-.5,3.266,4.854,4.323,7.386,10.656s4.432,15.2,17.516,15.724,21.421-3.9,25.535-12.662,3.331-29-17.093-24.9c0,0-4.012-.142-1.372-4.661l-7.914-3.358Z" transform="translate(-122.398 -561.78)" fill="#e94827" stroke="#000" stroke-miterlimit="10" stroke-width="0.25"/>
        <g id="Group_3319" data-name="Group 3319" transform="translate(208.786 197.122)">
          <path id="Path_10820" data-name="Path 10820" d="M330.042,820.262a34.811,34.811,0,0,1-7.726-12.969c-2.621-8-5.795-20.42-11.866-24.56-2.425-1.655-3.257,4.607-3.382,12.716l5.61.781s2.719,3.711,4.695,11.685c2.376,9.591,6.334,15.362,11.835,17.156A7.6,7.6,0,0,0,330.042,820.262Z" transform="translate(-307.049 -782.466)" fill="#f8b300" stroke="#000" stroke-miterlimit="10" stroke-width="0.25"/>
          <path id="Path_10821" data-name="Path 10821" d="M316.437,807.653c-2.433-9.554-4.192-10.194-4.192-10.194l-5.141-.5c.263,10.444,1.167,20.955,1.167,20.955a15.854,15.854,0,0,0,14.029,4.97,12.535,12.535,0,0,0,3.507-.941C321.646,819.659,318.181,814.507,316.437,807.653Z" transform="translate(-307.034 -776.392)" fill="#f8b300" stroke="#000" stroke-miterlimit="10" stroke-width="0.25"/>
          <path id="Path_10822" data-name="Path 10822" d="M317.377,804.079c-1.976-7.973-4.695-11.684-4.695-11.684l-5.61-.781c-.038,2.417-.013,4.994.052,7.58l5.141.5s1.76.64,4.192,10.194c1.744,6.854,5.209,12.005,9.37,14.286a7.082,7.082,0,0,0,3.385-2.944C323.711,819.441,319.753,813.67,317.377,804.079Z" transform="translate(-307.054 -778.631)" fill="#e94827" stroke="#000" stroke-miterlimit="10" stroke-width="0.25"/>
        </g>
        <circle id="Ellipse_1826" data-name="Ellipse 1826" cx="53.656" cy="53.656" r="53.656" transform="translate(86.739 113.132)" fill="#e94827" stroke="#000" stroke-miterlimit="10" stroke-width="0.25"/>
        <path id="Path_10823" data-name="Path 10823" d="M285.412,775.265s8.417-11.046,29.216-6.475,22.789,42.235,7.522,86.351c0,0-20.133,8.493-30.091,6.059,0,0-7.928-11.723-13.054-40.711l-15.045-32.3Z" transform="translate(-116.335 -591.542)" fill="#fff" stroke="#000" stroke-miterlimit="10" stroke-width="0.25"/>
        <path id="Path_10824" data-name="Path 10824" d="M177.348,837.425s12.946,39.416,55.814,31.649l2.3-55.241,24.455-31.487-27.332-13.883-55.24,43.356Z" transform="translate(-152.646 -591.215)" fill="#e94827" stroke="#000" stroke-miterlimit="10" stroke-width="0.25"/>
        <path id="Path_10825" data-name="Path 10825" d="M220.793,820.272c-17.352,1.375-33.724-12.557-33.724-12.557l.6-2.793s16.917,13.266,34.2,11.2Z" transform="translate(-148.57 -575.93)" fill="#f8b300" stroke="#000" stroke-miterlimit="10" stroke-width="0.25"/>
        <path id="Path_10826" data-name="Path 10826" d="M248.132,785.613s-7.065-13.327-19.648-4.194c-12.19,8.85-23.047,46.889-17.191,70.5s16.633,23.615,25.6,23.236,15.959-8.5,14.259-19.835c0,0-7.179-52.9-6.99-54.408S248.132,785.613,248.132,785.613Z" transform="translate(-139.1 -587.124)" fill="#f8b300" stroke="#000" stroke-miterlimit="10" stroke-width="0.25"/>
        <path id="Path_10827" data-name="Path 10827" d="M203.78,725.181s.954-12.776,4.158-18.379,31.036,22.231,31.036,22.231l59.341-14.49s4.238,2.2,3.911,6.289l-7.905,20.657-13.515,1.959s-10.163,6.588-34.377,0S206.174,737.539,203.78,725.181Z" transform="translate(-141.564 -617.378)" fill="#e94827" stroke="#000" stroke-miterlimit="10" stroke-width="0.25"/>
        <g id="Group_3320" data-name="Group 3320" transform="translate(0 107.804)">
          <path id="Path_10828" data-name="Path 10828" d="M193.764,831.689c10.338-12.7,18.432-21.675,29.319-29.739,11.362-8.417,23.285-12.2,40.681-8l8.877,3.3L291.888,758.5c-2.809-15.938-33.251-28.576-52.56-31.425-15.342-2.264-17.17-7.54-17.17-7.54-40.793,15.271-54.1,56.768-58.443,68.63-5.061,13.835-5.677,23.186,2.173,21.174s16.3-7.245,16.3-7.245l2.918.5c-10.319,10.49-7.875,29.967-6.89,40.584C181.547,842.388,187.16,839.805,193.764,831.689Z" transform="translate(-159.943 -719.532)" fill="#f8b300" stroke="#000" stroke-miterlimit="10" stroke-width="0.25"/>
          <path id="Path_10829" data-name="Path 10829" d="M222.6,781.394c-13.979,10.41-19.919,17.955-30.861,32.123-7.065,9.148-14.008,11.45-18.044,11.936-.013,8.071-6.294,15.491,2.264,15.006s11.313-7.272,18.747-20.04,18.727-27.113,34.043-38,36.239-2.005,36.239-2.005l1.385-2.79-7.44-2.826C249.394,772.416,235.788,771.574,222.6,781.394Z" transform="translate(-155.113 -697.012)" fill="#f8b300" stroke="#000" stroke-miterlimit="10" stroke-width="0.25"/>
          <path id="Path_10830" data-name="Path 10830" d="M258.365,772.48c-17.4-4.208-29.319-.422-40.681,8-10.887,8.064-18.981,17.034-29.319,29.739-6.6,8.117-12.217,10.7-15.546,11.49.177,1.91.308,3.538.308,4.77v.024c4.036-.485,10.979-2.787,18.044-11.936,10.942-14.168,16.882-21.713,30.861-32.123,13.186-9.82,26.792-8.978,36.333-6.594l7.44,2.826,1.438-2.894Z" transform="translate(-154.544 -698.058)" fill="#e94827" stroke="#000" stroke-miterlimit="10" stroke-width="0.25"/>
        </g>
        <path id="Path_10831" data-name="Path 10831" d="M206.977,708.319c2.106-6.957,19.235-10.61,40.81-7.748,12.333,1.636,48.172,6.961,43,19.814S246.842,738.9,232.375,735.1a134.244,134.244,0,0,0-15.308-10.528C208.287,719.406,205.682,712.6,206.977,708.319Z" transform="translate(-140.355 -620.089)" fill="#f8b300" stroke="#000" stroke-miterlimit="10" stroke-width="0.25"/>
        <path id="Path_10832" data-name="Path 10832" d="M284.228,767.368a55.286,55.286,0,0,0,28,17.282c17.973,4.493,26.614-5.3,26.614-5.3l-19.356-27.421-32.662-9.452-4.473,9Z" transform="translate(-108.626 -602.107)" fill="#fff" stroke="#000" stroke-miterlimit="10" stroke-width="0.25"/>
        <path id="Path_10833" data-name="Path 10833" d="M280.972,714.243s17.966.2,39.422,15.878,37.977,49.1,42.913,69.412c0,0-2.621,5.562-10.069,0s-17.146-24.956-25.578-31.561-21.782-9.7-27.966-8.572l-2.811,2.108-33.725,28.4-10.2-29.194s-2.36-12.678,11.679-26.226C277.052,722.506,281.691,719.185,280.972,714.243Z" transform="translate(-121.011 -613.946)" fill="#f8b300" stroke="#000" stroke-miterlimit="10" stroke-width="0.25"/>
        <path id="Path_10834" data-name="Path 10834" d="M172.312,787.643s4.641,4.036,22,2.422,45-10.091,53.579-15.64l4.13-22.61s-13.325-6.52-44.1.8C188.892,761.365,172.312,787.643,172.312,787.643Z" transform="translate(-154.757 -599.315)" fill="#fff" stroke="#000" stroke-miterlimit="10" stroke-width="0.25"/>
        <path id="Path_10835" data-name="Path 10835" d="M196.047,754.177a129.1,129.1,0,0,1,8.47-12.867" transform="translate(-144.806 -602.598)" fill="none" stroke="#000" stroke-miterlimit="10" stroke-width="0.25"/>
        <path id="Path_10836" data-name="Path 10836" d="M194.72,746.826a8.365,8.365,0,0,1,2.379,4.188" transform="translate(-145.363 -600.286)" fill="none" stroke="#000" stroke-miterlimit="10" stroke-width="0.25"/>
        <g id="Group_3321" data-name="Group 3321" transform="translate(93.844 131.426)">
          <path id="Path_10837" data-name="Path 10837" d="M231.011,742.047a12.108,12.108,0,0,1,6.406-4.486c3.961-.931,26.421,9.185,30.287,17.136,0,0,5.715-10.6,20.752-17.993a5.252,5.252,0,0,1,3.98-.251,20.6,20.6,0,0,1,6.79,3.625l-12.509,21.138H255.4Z" transform="translate(-223.992 -736.176)" fill="#a6b832" stroke="#000" stroke-miterlimit="10" stroke-width="0.25"/>
          <path id="Path_10838" data-name="Path 10838" d="M227.011,753.81c.27-2.844,1.734-9.884,2.36-12.816a1.163,1.163,0,0,1,1.546-.846c4.265,1.588,18.73,6.993,34.046,12.881,0,0,5.358,2.577,9.752-.937,0,0,15.839-10.829,26.9-14.041a1.162,1.162,0,0,1,1.476,1.053l2.816,46.987a1.169,1.169,0,0,1-.451.992L278.2,808.149a1.166,1.166,0,0,1-.971.213l-49.391-11.219a1.164,1.164,0,0,1-.9-1.03A249.387,249.387,0,0,1,227.011,753.81Z" transform="translate(-226.066 -735.409)" fill="#006857" stroke="#000" stroke-miterlimit="10" stroke-width="0.25"/>
          <rect id="Rectangle_199" data-name="Rectangle 199" width="8.811" height="38.712" rx="1.978" transform="translate(39.939 24.157)" fill="#a6b832" stroke="#000" stroke-miterlimit="10" stroke-width="0.25"/>
        </g>
        <path id="Path_10839" data-name="Path 10839" d="M283.671,745.515s7.115,1.489,8.693,12.262-7.336,15.866-14.024,12.159-6.873-18.195,4.922-19.588A13.956,13.956,0,0,0,283.671,745.515Z" transform="translate(-112.228 -600.836)" fill="#fff" stroke="#000" stroke-miterlimit="10" stroke-width="0.25"/>
        <path id="Path_10840" data-name="Path 10840" d="M280.454,748.936a7.115,7.115,0,0,1,1.848,0" transform="translate(-109.42 -599.424)" fill="none" stroke="#000" stroke-miterlimit="10" stroke-width="0.25"/>
        <path id="Path_10841" data-name="Path 10841" d="M243.961,785.877c4.825-3.273,11.11-6.953,19.337-7.579,13.672-1.04,27.238,2.106,33.659,19.07s2.6,50.794,0,60.857l-37.383,15.268s-5.992-13.706-8.074-22.728c0,0-9.2,7.807-14.92,9.716,0,0-12.144-1.562-15.094-30.883s10.094-46.342,17.523-39.557A40.01,40.01,0,0,1,243.961,785.877Z" transform="translate(-134.32 -587.167)" fill="#fff" stroke="#000" stroke-miterlimit="10" stroke-width="0.25"/>
        <path id="Path_10842" data-name="Path 10842" d="M230.8,793.148a16.275,16.275,0,0,1,4.123-6.628" transform="translate(-130.236 -583.645)" fill="none" stroke="#000" stroke-miterlimit="10" stroke-width="0.25"/>
        <path id="Path_10843" data-name="Path 10843" d="M243.955,841.517a161.239,161.239,0,0,1-4.869-41.337" transform="translate(-126.776 -577.918)" fill="none" stroke="#000" stroke-miterlimit="10" stroke-width="0.25"/>
        <path id="Path_10844" data-name="Path 10844" d="M245.423,849.743c1.753-5.054,13.454-11.324,25.788-14.8s19.059-.9,17.938,5.045-9.641,3.812-19.732,7.512-13.4,6.895-17.137,8.328C248.252,857.373,243.737,854.6,245.423,849.743Z" transform="translate(-124.258 -564.001)" fill="#f8b300" stroke="#000" stroke-miterlimit="10" stroke-width="0.25"/>
        <path id="Path_10845" data-name="Path 10845" d="M281.274,838.329c.694-2.733,7.085-5.335,16.836-7.5s18.836-2.75,20.5,1.751-.25,7.251-6.168,6.584-18.42-.917-23.254,2.251S280.024,843.247,281.274,838.329Z" transform="translate(-109.167 -565.759)" fill="#f8b300" stroke="#000" stroke-miterlimit="10" stroke-width="0.25"/>
        <path id="Path_10846" data-name="Path 10846" d="M295.011,844.883a39.354,39.354,0,0,1,11.585-8.669" transform="translate(-103.317 -562.811)" fill="none" stroke="#000" stroke-miterlimit="10" stroke-width="0.25"/>
        <path id="Path_10847" data-name="Path 10847" d="M264.522,860.045a20.329,20.329,0,0,1,12.872-15.722" transform="translate(-116.099 -559.411)" fill="none" stroke="#000" stroke-miterlimit="10" stroke-width="0.25"/>
        <g id="Group_3322" data-name="Group 3322" transform="translate(73.636)">
          <path id="Path_10848" data-name="Path 10848" d="M231.637,723.333s-5.79-.078-8.649-2.526c-3.311-2.837-1.414-6.57,3.487-4.851,0,0-15.8-11.9-14.581-22.949,1.314-11.929,21.145-10.631,31.659,8.761,0,0-9.462-13.318-9.7-34.58s15.538-30.257,24.883-18.224,7.126,39.72,7.126,39.72,9.58-10.631,23.365-12.032,13.9,14.953-11.682,25.116c0,0,11.215-2.1,18.457,4.323s2.921,16-9.7,14.252c0,0,14.935,10.24,5.93,29.309-8.623,18.261-51.909,22.247-64.093,6.753S227.578,726.412,231.637,723.333Z" transform="translate(-211.827 -643.573)" fill="#fff" stroke="#000" stroke-miterlimit="10" stroke-width="0.25"/>
          <path id="Path_10849" data-name="Path 10849" d="M246.29,696.678s-6.631,5.223-3.965,7.807c2.044,1.982,6.692-2.727,7.126-4.772,0,0-.1,8.015,4.337,7.126,4.028-.8,1.239-8.488,1.239-8.488s4.771,8.8,8.737,5.576c3.246-2.637-1.177-7.374-3.594-6.94" transform="translate(-199.306 -621.31)" fill="none" stroke="#000" stroke-miterlimit="10" stroke-width="0.25"/>
          <ellipse id="Ellipse_1827" data-name="Ellipse 1827" cx="1.198" cy="2.659" rx="1.198" ry="2.659" transform="translate(50.045 97.637)"/>
          <ellipse id="Ellipse_1828" data-name="Ellipse 1828" cx="1.198" cy="2.659" rx="1.198" ry="2.659" transform="translate(58.309 97.637)"/>
          <ellipse id="Ellipse_1829" data-name="Ellipse 1829" cx="1.299" cy="0.602" rx="1.299" ry="0.602" transform="translate(40.08 104.076)" fill="#e94827" stroke="#000" stroke-miterlimit="10" stroke-width="0.25"/>
          <ellipse id="Ellipse_1830" data-name="Ellipse 1830" cx="1.299" cy="0.602" rx="1.299" ry="0.602" transform="translate(42.546 107.202)" fill="#e94827" stroke="#000" stroke-miterlimit="10" stroke-width="0.25"/>
          <ellipse id="Ellipse_1831" data-name="Ellipse 1831" cx="1.299" cy="0.602" rx="1.299" ry="0.602" transform="translate(35.454 107.07)" fill="#e94827" stroke="#000" stroke-miterlimit="10" stroke-width="0.25"/>
          <ellipse id="Ellipse_1832" data-name="Ellipse 1832" cx="1.093" cy="0.602" rx="1.093" ry="0.602" transform="translate(62.12 105.749)" fill="#e94827" stroke="#000" stroke-miterlimit="10" stroke-width="0.25"/>
          <ellipse id="Ellipse_1833" data-name="Ellipse 1833" cx="1.093" cy="0.602" rx="1.093" ry="0.602" transform="translate(65.595 102.956)" fill="#e94827" stroke="#000" stroke-miterlimit="10" stroke-width="0.25"/>
          <ellipse id="Ellipse_1834" data-name="Ellipse 1834" cx="1.093" cy="0.7" rx="1.093" ry="0.7" transform="translate(68.314 105.553)" fill="#e94827" stroke="#000" stroke-miterlimit="10" stroke-width="0.25"/>
        </g>
        <path id="Path_10850" data-name="Path 10850" d="M288.025,750.166s-.9-9.357-3.481-14.343" transform="translate(-107.705 -604.899)" fill="none" stroke="#000" stroke-miterlimit="10" stroke-width="0.25"/>
        <path id="Path_10851" data-name="Path 10851" d="M167.044,795.843s7.7-3.894,14.465-13.778S197.651,760,210.121,752.85a13.133,13.133,0,0,0-10.035-4.258" transform="translate(-156.965 -599.546)" fill="#f8b300" stroke="#000" stroke-miterlimit="10" stroke-width="0.25"/>
        <path id="Path_10852" data-name="Path 10852" d="M229.689,749.142s-7.437,4.844-9.4,12.089c-1.69,6.233-.316,14.9,10.037,15.319s17.113-9.614,15-17.431-12.255-6.868-15.741-5.917Z" transform="translate(-134.899 -599.315)" fill="#fff" stroke="#000" stroke-miterlimit="10" stroke-width="0.25"/>
      </g>
    </g>
    <g id="Group_3334" data-name="Group 3334" transform="translate(248.198 952.614)">
      <g id="Group_3325" data-name="Group 3325" transform="translate(0 42.637)">
        <path id="Path_10853" data-name="Path 10853" d="M261.83,897.156c-2.161-.789-10.128-8.017-22.289-5.1s-12.046,17.3-15.87,23.037-6.66,12.55-3.163,15.631c8.4,7.406,19.279-3.372,22.474-13.795S254.826,895.572,261.83,897.156Z" transform="translate(-218.921 -891.367)" fill="#fde3b9" stroke="#000" stroke-miterlimit="10" stroke-width="0.25"/>
        <path id="Path_10854" data-name="Path 10854" d="M220.039,929.565s6.757,1.842,10.024-12.184c3.518-15.106,16.973-28.224,31.3-21.385" transform="translate(-218.452 -890.206)" fill="none" stroke="#000" stroke-miterlimit="10" stroke-width="0.25"/>
      </g>
      <g id="Group_3326" data-name="Group 3326" transform="translate(44.509 46.952)">
        <path id="Path_10855" data-name="Path 10855" d="M309.029,976.912a3.012,3.012,0,0,0,1.983-1.293,2.965,2.965,0,0,0,.444-2.286c-4.989-23.493-14.055-54.624-59.5-78.925l-1.675,3.234c43.217,23.149,51.738,52.943,56.51,75.379.336,1.585.589,4.154,2.176,3.9Z" transform="translate(-250.282 -894.407)" fill="#f8b300" stroke="#000" stroke-miterlimit="10" stroke-width="0.25"/>
      </g>
      <g id="Group_3328" data-name="Group 3328" transform="translate(24.632 1.67)">
        <g id="Group_3327" data-name="Group 3327">
          <path id="Path_10856" data-name="Path 10856" d="M256.753,908.907s-7.072-10.853-.142-19.634c6.839-8.666,7.945-22.667-1.267-25.865-11.856-4.116-19.766,6.227-19.018,22.178s-.074,25.025,20.427,23.321" transform="translate(-236.277 -862.502)" fill="#a6b832" stroke="#000" stroke-miterlimit="10" stroke-width="0.25"/>
          <path id="Path_10857" data-name="Path 10857" d="M245.619,863.943" transform="translate(-232.36 -861.897)" fill="#a6b832" stroke="#000" stroke-miterlimit="10" stroke-width="0.25"/>
          <path id="Path_10858" data-name="Path 10858" d="M248.824,862.566c1.554,9.786-.165,15.532-4.048,24.909-4.09,9.876,1.585,19.7,8.987,21.4" transform="translate(-233.287 -862.475)" fill="#a6b832" stroke="#000" stroke-miterlimit="10" stroke-width="0.25"/>
        </g>
      </g>
      <g id="Group_3330" data-name="Group 3330" transform="translate(13.588 46.275)">
        <g id="Group_3329" data-name="Group 3329">
          <path id="Path_10859" data-name="Path 10859" d="M236.708,948.508c-7.84-.856-11.94-11.941-3.666-23.075s4.307-18.044,11.835-26.653c6.8-7.775,21.34-6.154,23.283,6.079s-14.439,13.063-15.849,26.67S244.2,949.325,236.708,948.508Z" transform="translate(-228.495 -893.885)" fill="#a6b832" stroke="#000" stroke-miterlimit="10" stroke-width="0.25"/>
          <path id="Path_10860" data-name="Path 10860" d="M254.792,893.93s2.8,11.929-8.281,22.228-13.4,23.83-10.44,32.624" transform="translate(-225.813 -893.93)" fill="#a6b832" stroke="#000" stroke-miterlimit="10" stroke-width="0.25"/>
        </g>
      </g>
      <path id="Path_10861" data-name="Path 10861" d="M249.155,895.446" transform="translate(-206.246 -847.02)" fill="none" stroke="#000" stroke-miterlimit="10" stroke-width="0.25"/>
      <g id="Group_3331" data-name="Group 3331" transform="translate(43.01 28.903)">
        <path id="Path_10862" data-name="Path 10862" d="M249.226,900.45s10.253-16.947,24.723-18.577,13.564,8.111,21.345,9.33,18.044-4.429,23.128,3.69-1.012,23.136-16,17.266-12.9-10.964-20.3-9.787C275.427,903.436,268.821,914.218,249.226,900.45Z" transform="translate(-249.226 -881.69)" fill="#fde3b9" stroke="#000" stroke-miterlimit="10" stroke-width="0.25"/>
        <path id="Path_10863" data-name="Path 10863" d="M249.226,897.4c15.034-10.727,33.359-10.575,45.245-3.192s25.694,4.712,25.694,4.712" transform="translate(-249.226 -878.64)" fill="none" stroke="#000" stroke-miterlimit="10" stroke-width="0.25"/>
      </g>
      <g id="Group_3333" data-name="Group 3333" transform="translate(40.077)">
        <g id="Group_3332" data-name="Group 3332">
          <path id="Path_10864" data-name="Path 10864" d="M296.377,861.361c-9.9-.833-12.574,13.142-25.58,16.578s-30.382,9.519-20.941,30.954c0,0,7.626-11.118,26.316-13.418,10.529-1.294,23.737-3.984,28.236-13.961C308.6,872.205,304.241,862.022,296.377,861.361Z" transform="translate(-247.159 -861.325)" fill="#a6b832" stroke="#000" stroke-miterlimit="10" stroke-width="0.25"/>
          <path id="Path_10865" data-name="Path 10865" d="M297.815,861.683s3.567,16.077-17.3,22.512c-14.547,4.488-27.028,10.333-31.456,24.547" transform="translate(-246.363 -861.175)" fill="#a6b832" stroke="#000" stroke-miterlimit="10" stroke-width="0.25"/>
        </g>
      </g>
    </g>
  </g>
</svg>
