<svg xmlns="http://www.w3.org/2000/svg" width="360.016" height="414.31" viewBox="0 0 360.016 414.31">
  <g id="Group_4178" data-name="Group 4178" transform="translate(-1429.091 -1704.967)">
    <g id="Group_4164" data-name="Group 4164" transform="translate(1670.552 1875.444)">
      <path id="Path_15878" data-name="Path 15878" d="M1663.55,1821.464s-67.514,58.656-69.48,142.528" transform="translate(-1594.07 -1821.464)" fill="none" stroke="#000" stroke-linejoin="round" stroke-width="0.25"/>
      <path id="Path_15879" data-name="Path 15879" d="M1652.819,1828.289a52.768,52.768,0,0,0-21.527,5.36" transform="translate(-1576.814 -1818.3)" fill="none" stroke="#000" stroke-linejoin="round" stroke-width="0.25"/>
      <path id="Path_15880" data-name="Path 15880" d="M1654.858,1837.35s-21.282,3.3-34.344,11.937" transform="translate(-1581.81 -1814.099)" fill="none" stroke="#000" stroke-linejoin="round" stroke-width="0.25"/>
      <path id="Path_15881" data-name="Path 15881" d="M1658.958,1848.552s-26.576,1.232-46.509,13.718" transform="translate(-1585.549 -1808.906)" fill="none" stroke="#000" stroke-linejoin="round" stroke-width="0.25"/>
      <path id="Path_15882" data-name="Path 15882" d="M1661.173,1859.295s-32.261,2.1-55.849,18.058" transform="translate(-1588.852 -1803.925)" fill="none" stroke="#000" stroke-linejoin="round" stroke-width="0.25"/>
      <path id="Path_15883" data-name="Path 15883" d="M1657.905,1870.369s-31.463,2.415-58.029,22.319" transform="translate(-1591.378 -1798.791)" fill="none" stroke="#000" stroke-linejoin="round" stroke-width="0.25"/>
      <path id="Path_15884" data-name="Path 15884" d="M1642.586,1881.6s-18.857,1.271-45.679,21.572" transform="translate(-1592.755 -1793.583)" fill="none" stroke="#000" stroke-linejoin="round" stroke-width="0.25"/>
      <path id="Path_15885" data-name="Path 15885" d="M1615.82,1896.87s-13.6,5.234-20.466,11.1" transform="translate(-1593.474 -1786.505)" fill="none" stroke="#000" stroke-linejoin="round" stroke-width="0.25"/>
    </g>
    <g id="Group_4165" data-name="Group 4165" transform="translate(1429.098 1920.087)">
      <path id="Path_15886" data-name="Path 15886" d="M1444.677,1851.966s92.889,71.848,110.429,191.162" transform="translate(-1421.875 -1851.966)" fill="none" stroke="#000" stroke-linejoin="round" stroke-width="0.25"/>
      <path id="Path_15887" data-name="Path 15887" d="M1438.349,1858.4a38.271,38.271,0,0,1,25.67,5.421" transform="translate(-1424.809 -1849.166)" fill="none" stroke="#000" stroke-linejoin="round" stroke-width="0.25"/>
      <path id="Path_15888" data-name="Path 15888" d="M1429.1,1865.387s34.7-1.983,56.536,13.228" transform="translate(-1429.098 -1845.783)" fill="none" stroke="#000" stroke-linejoin="round" stroke-width="0.25"/>
      <path id="Path_15889" data-name="Path 15889" d="M1430.293,1877.981s41.438-3.753,73.123,17.4" transform="translate(-1428.544 -1840.025)" fill="none" stroke="#000" stroke-linejoin="round" stroke-width="0.25"/>
      <path id="Path_15890" data-name="Path 15890" d="M1431.024,1895.172s49.476-8.024,92.073,22.512" transform="translate(-1428.205 -1832.377)" fill="none" stroke="#000" stroke-linejoin="round" stroke-width="0.25"/>
      <path id="Path_15891" data-name="Path 15891" d="M1433.994,1909.849s55.153-7.552,101.178,26.09" transform="translate(-1426.828 -1825.467)" fill="none" stroke="#000" stroke-linejoin="round" stroke-width="0.25"/>
      <path id="Path_15892" data-name="Path 15892" d="M1447.981,1924.469s62.634-10.417,90.668,28.294" transform="translate(-1420.344 -1818.944)" fill="none" stroke="#000" stroke-linejoin="round" stroke-width="0.25"/>
      <path id="Path_15893" data-name="Path 15893" d="M1473.178,1940.031s37.757-1.035,60.429,24.7" transform="translate(-1408.662 -1811.141)" fill="none" stroke="#000" stroke-linejoin="round" stroke-width="0.25"/>
    </g>
    <g id="Group_4166" data-name="Group 4166" transform="translate(1719.496 2063.861)">
      <path id="Path_15894" data-name="Path 15894" d="M1667.4,1972.344c-7.764-6.936-10.666-17.121-11.586-21.412-14.4,3.26-28.45,13.209-28.308,19.74.241,11.043,27.637,14.658,47.834,13.572A30.067,30.067,0,0,0,1667.4,1972.344Z" transform="translate(-1627.51 -1949.859)" fill="#cee5ca" stroke="#000" stroke-linejoin="round" stroke-width="0.25"/>
      <path id="Path_15895" data-name="Path 15895" d="M1673.336,1971.783a34.279,34.279,0,0,1-5.969-18.43,44.454,44.454,0,0,0-5.758-2.147,29.108,29.108,0,0,0-10.943-.84,39.67,39.67,0,0,0,10.879,20.846,38.33,38.33,0,0,1,9.074,12.885,66.083,66.083,0,0,0,7.412-1.2A34.132,34.132,0,0,0,1673.336,1971.783Z" transform="translate(-1616.775 -1950.198)" fill="#cee5ca" stroke="#000" stroke-linejoin="round" stroke-width="0.25"/>
      <path id="Path_15896" data-name="Path 15896" d="M1663.313,1971.159a39.671,39.671,0,0,1-10.879-20.846,44.5,44.5,0,0,0-5.582.906c.92,4.291,3.821,14.477,11.586,21.413a30.063,30.063,0,0,1,7.94,11.9c2.093-.113,4.108-.275,6.009-.486A38.33,38.33,0,0,0,1663.313,1971.159Z" transform="translate(-1618.543 -1950.146)" fill="#fff5e6" stroke="#000" stroke-linejoin="round" stroke-width="0.25"/>
      <path id="Path_15897" data-name="Path 15897" d="M1668.116,1955.711a41.723,41.723,0,0,0-6.039-3.357,34.281,34.281,0,0,0,5.969,18.43,34.127,34.127,0,0,1,4.7,11.112,27.622,27.622,0,0,0,4.34-1.328,33.529,33.529,0,0,0-4.021-10.823A39.455,39.455,0,0,1,1668.116,1955.711Z" transform="translate(-1611.484 -1949.199)" fill="#fff5e6" stroke="#000" stroke-linejoin="round" stroke-width="0.25"/>
      <path id="Path_15898" data-name="Path 15898" d="M1666.2,1954.648a39.455,39.455,0,0,0,4.944,14.033,33.528,33.528,0,0,1,4.021,10.823c1.786-.744,2.953-1.6,3.3-2.558C1680.734,1970.7,1675.975,1961.218,1666.2,1954.648Z" transform="translate(-1609.572 -1948.136)" fill="#cee5ca" stroke="#000" stroke-linejoin="round" stroke-width="0.25"/>
    </g>
    <g id="Group_4167" data-name="Group 4167" transform="translate(1587.744 2005.393)">
      <path id="Path_15899" data-name="Path 15899" d="M1643.641,1962.478c-14.857-3.5-20.966-5.979-33.161-14.778s-21.19-12.754-36.841-13.427c-10.251-.442-16.237-2.831-19.148-4.427q-2.5,3.025-4.761,5.957c2.413,1.815,6.443,5,16.332,6.407,13.175,1.875,15.863,6.046,26.392,14.657s16.357,13.257,29.086,13.559c12.214.29,25.215,10.667,32.946,30.964A68.161,68.161,0,0,0,1671,1998.2C1667.278,1976.358,1657.8,1965.813,1643.641,1962.478Z" transform="translate(-1531.818 -1901.166)" fill="#f9d0bb" stroke="#000" stroke-linejoin="round" stroke-width="0.25"/>
      <path id="Path_15900" data-name="Path 15900" d="M1611.423,1974.593c-11.47-2.753-16.836-7.06-26.31-15.457a62.738,62.738,0,0,0-28.36-14.153,13.9,13.9,0,0,1-9.024-7.21q-1.416,2-2.7,3.952a26.869,26.869,0,0,0,14.143,11.126c12.325,4.13,18.69,8.542,29.521,17.338s18.162,8.61,25.975,13.4c4.91,3.008,6.938,9.374,7.766,13.689,4.28.275,8.528.523,12.7.685C1630.377,1981.346,1622.236,1977.188,1611.423,1974.593Z" transform="translate(-1533.999 -1897.491)" fill="#f9d0bb" stroke="#000" stroke-linejoin="round" stroke-width="0.25"/>
      <path id="Path_15901" data-name="Path 15901" d="M1618.159,1982.334c-7.813-4.786-15.144-4.6-25.975-13.4s-17.2-13.208-29.521-17.338a26.87,26.87,0,0,1-14.143-11.126c-10.234,15.558-14.068,28.95-8.411,40.267,7.5,15.011,21.562,12.416,56.511,13.55,9.515.309,19.489,1.1,29.3,1.733C1625.1,1991.708,1623.069,1985.341,1618.159,1982.334Z" transform="translate(-1537.492 -1896.239)" fill="#fff5e6" stroke="#000" stroke-linejoin="round" stroke-width="0.25"/>
      <path id="Path_15902" data-name="Path 15902" d="M1622.865,1968.539c-12.729-.3-18.558-4.948-29.086-13.559s-13.217-12.782-26.392-14.657c-9.89-1.408-13.919-4.593-16.332-6.407q-2.213,2.867-4.181,5.645a13.9,13.9,0,0,0,9.025,7.21,62.739,62.739,0,0,1,28.36,14.153c9.474,8.4,14.84,12.7,26.31,15.457,10.813,2.595,18.954,6.753,23.7,23.367a178,178,0,0,0,21.538-.245C1648.08,1979.206,1635.079,1968.829,1622.865,1968.539Z" transform="translate(-1533.143 -1899.279)" fill="#fff5e6" stroke="#000" stroke-linejoin="round" stroke-width="0.25"/>
      <path id="Path_15903" data-name="Path 15903" d="M1673.9,1980.264c-3.587-9.711-17.639-24.587-30.768-37.443a69.535,69.535,0,0,1-16.495-24.382q-1.675-1.186-3.514-2.408c-20.138-13.329-48.783-2.456-68.419,20.832q-.876,1.041-1.724,2.068c2.911,1.6,8.9,3.985,19.148,4.427,15.65.673,24.646,4.628,36.84,13.427s18.3,11.278,33.161,14.778c14.154,3.334,23.637,13.88,27.364,35.721a34.631,34.631,0,0,0,8.853-4.457C1678.451,1995.007,1676.38,1986.969,1673.9,1980.264Z" transform="translate(-1530.31 -1910.25)" fill="#fff5e6" stroke="#000" stroke-linejoin="round" stroke-width="0.25"/>
      <path id="Path_15904" data-name="Path 15904" d="M1637.211,1946.992a33.792,33.792,0,0,1-6.981-3.472,63.7,63.7,0,0,0,6.062,10.574c6.6,9.186,11,16.843,12.52,27.131C1661.383,1964.943,1648.364,1951.157,1637.211,1946.992Z" transform="translate(-1494.498 -1894.826)" fill="#fff5e6" stroke="#000" stroke-linejoin="round" stroke-width="0.25"/>
      <path id="Path_15905" data-name="Path 15905" d="M1648.773,1966.925a63.7,63.7,0,0,1-6.062-10.574c-5.736-3.82-7.606-8.313-12.256-13-5.777-5.825-9.985-15.33-27.146-27.5a69.535,69.535,0,0,0,16.495,24.382c13.129,12.856,27.181,27.732,30.768,37.443,2.477,6.7,4.548,14.743,4.447,22.563a26.215,26.215,0,0,0,3.8-3.286,37.711,37.711,0,0,0,2.479-2.892C1659.769,1983.768,1655.374,1976.11,1648.773,1966.925Z" transform="translate(-1506.979 -1907.657)" fill="#f9d0bb" stroke="#000" stroke-linejoin="round" stroke-width="0.25"/>
    </g>
    <g id="Group_4176" data-name="Group 4176" transform="translate(1461.741 1705.029)">
      <g id="Group_4168" data-name="Group 4168" transform="translate(48.598 37.917)">
        <path id="Path_15906" data-name="Path 15906" d="M1503.611,1731.241c8.492,2.973,1.732,21.777-1.392,28.974-5.192,11.961-12.455,21.161-15.413,20.125s-3.03-14.45.367-25.392C1488.8,1749.714,1494.72,1728.129,1503.611,1731.241Z" transform="translate(-1484.605 -1730.935)" fill="#f9d0bb" stroke="#000" stroke-linejoin="round" stroke-width="0.25"/>
        <line id="Line_893" data-name="Line 893" x1="1.263" y2="3.331" transform="translate(19.218 10.094)" fill="none" stroke="#000" stroke-linejoin="round" stroke-width="0.25"/>
        <line id="Line_894" data-name="Line 894" x1="1.073" y2="3.725" transform="translate(10.268 12.735)" fill="none" stroke="#000" stroke-linejoin="round" stroke-width="0.25"/>
        <line id="Line_895" data-name="Line 895" x1="1.593" y2="3.509" transform="translate(8.689 24.081)" fill="none" stroke="#000" stroke-linejoin="round" stroke-width="0.25"/>
        <line id="Line_896" data-name="Line 896" x1="1.796" y2="3.429" transform="translate(9.809 32.311)" fill="none" stroke="#000" stroke-linejoin="round" stroke-width="0.25"/>
        <line id="Line_897" data-name="Line 897" x1="0.361" y2="4.185" transform="translate(2.557 32.64)" fill="none" stroke="#000" stroke-linejoin="round" stroke-width="0.25"/>
        <line id="Line_898" data-name="Line 898" x1="1.388" y2="3.821" transform="translate(3.682 41.613)" fill="none" stroke="#000" stroke-linejoin="round" stroke-width="0.25"/>
      </g>
      <g id="Group_4169" data-name="Group 4169" transform="translate(0 71.194)">
        <path id="Path_15907" data-name="Path 15907" d="M1451.546,1758.768c2.042-8.761,21.464-4.065,28.954-1.734,12.449,3.875,22.379,10.106,21.667,13.161s-14.041,4.566-25.284,2.366C1471.506,1771.509,1449.409,1767.944,1451.546,1758.768Z" transform="translate(-1451.401 -1753.672)" fill="#f9d0bb" stroke="#000" stroke-linejoin="round" stroke-width="0.25"/>
        <line id="Line_899" data-name="Line 899" x2="3.448" y2="0.897" transform="translate(9.719 2.577)" fill="none" stroke="#000" stroke-linejoin="round" stroke-width="0.25"/>
        <line id="Line_900" data-name="Line 900" x2="3.819" y2="0.667" transform="translate(13.328 11.379)" fill="none" stroke="#000" stroke-linejoin="round" stroke-width="0.25"/>
        <line id="Line_901" data-name="Line 901" x2="3.66" y2="1.206" transform="translate(24.722 11.213)" fill="none" stroke="#000" stroke-linejoin="round" stroke-width="0.25"/>
        <line id="Line_902" data-name="Line 902" x2="3.602" y2="1.417" transform="translate(32.762 9.011)" fill="none" stroke="#000" stroke-linejoin="round" stroke-width="0.25"/>
        <line id="Line_903" data-name="Line 903" y1="0.091" x2="4.199" transform="translate(34.024 17.522)" fill="none" stroke="#000" stroke-linejoin="round" stroke-width="0.25"/>
        <line id="Line_904" data-name="Line 904" x2="3.948" y2="0.969" transform="translate(42.713 14.508)" fill="none" stroke="#000" stroke-linejoin="round" stroke-width="0.25"/>
      </g>
      <g id="Group_4170" data-name="Group 4170" transform="translate(8.421 54.829)">
        <path id="Path_15908" data-name="Path 15908" d="M1458.257,1744.636c5.516-7.106,21.2,5.279,27.029,10.528,9.69,8.723,16.105,18.533,14.184,21.01s-14.664-1.72-23.959-8.417C1471.064,1764.552,1452.48,1752.078,1458.257,1744.636Z" transform="translate(-1457.154 -1742.49)" fill="#2e8e89" stroke="#000" stroke-linejoin="round" stroke-width="0.25"/>
        <line id="Line_905" data-name="Line 905" x2="2.757" y2="2.256" transform="translate(10.852 3.858)" fill="#2e8e89" stroke="#000" stroke-linejoin="round" stroke-width="0.25"/>
        <line id="Line_906" data-name="Line 906" x2="3.19" y2="2.201" transform="translate(10.452 13.363)" fill="#2e8e89" stroke="#000" stroke-linejoin="round" stroke-width="0.25"/>
        <line id="Line_907" data-name="Line 907" x2="2.821" y2="2.626" transform="translate(20.873 17.974)" fill="#2e8e89" stroke="#000" stroke-linejoin="round" stroke-width="0.25"/>
        <line id="Line_908" data-name="Line 908" x2="2.68" y2="2.793" transform="translate(29.097 19.335)" fill="#2e8e89" stroke="#000" stroke-linejoin="round" stroke-width="0.25"/>
        <line id="Line_909" data-name="Line 909" x2="3.853" y2="1.673" transform="translate(26.648 27.676)" fill="#2e8e89" stroke="#000" stroke-linejoin="round" stroke-width="0.25"/>
        <line id="Line_910" data-name="Line 910" x2="3.182" y2="2.53" transform="translate(35.84 28.487)" fill="#2e8e89" stroke="#000" stroke-linejoin="round" stroke-width="0.25"/>
      </g>
      <g id="Group_4171" data-name="Group 4171" transform="translate(42.491 36.086)">
        <path id="Path_15909" data-name="Path 15909" d="M1487.454,1729.691c8.987-.43,9.774,19.538,9.578,27.38-.326,13.035-3.608,24.287-6.74,24.438s-8.228-12.259-9.184-23.677C1480.651,1752.373,1478.045,1730.142,1487.454,1729.691Z" transform="translate(-1480.433 -1729.684)" fill="#2e8e89" stroke="#000" stroke-linejoin="round" stroke-width="0.25"/>
        <line id="Line_911" data-name="Line 911" x2="0.079" y2="3.562" transform="translate(12.06 8.528)" fill="#2e8e89" stroke="#000" stroke-linejoin="round" stroke-width="0.25"/>
        <line id="Line_912" data-name="Line 912" x2="0.402" y2="3.855" transform="translate(4.579 14.404)" fill="#2e8e89" stroke="#000" stroke-linejoin="round" stroke-width="0.25"/>
        <line id="Line_913" data-name="Line 913" x1="0.16" y2="3.851" transform="translate(7.692 25.32)" fill="#2e8e89" stroke="#000" stroke-linejoin="round" stroke-width="0.25"/>
        <line id="Line_914" data-name="Line 914" x1="0.379" y2="3.852" transform="translate(11.787 32.452)" fill="#2e8e89" stroke="#000" stroke-linejoin="round" stroke-width="0.25"/>
        <line id="Line_915" data-name="Line 915" x2="1.235" y2="4.015" transform="translate(4.236 36.016)" fill="#2e8e89" stroke="#000" stroke-linejoin="round" stroke-width="0.25"/>
        <line id="Line_916" data-name="Line 916" x2="0.147" y2="4.063" transform="translate(9.597 43.526)" fill="#2e8e89" stroke="#000" stroke-linejoin="round" stroke-width="0.25"/>
      </g>
      <g id="Group_4172" data-name="Group 4172" transform="translate(23.755 42.579)">
        <path id="Path_15910" data-name="Path 15910" d="M1470.4,1734.831c7.829-4.432,17.53,13.038,20.889,20.128,5.582,11.784,7.722,23.308,4.994,24.854s-12.87-7.236-18.868-17C1474.545,1758.146,1462.2,1739.474,1470.4,1734.831Z" transform="translate(-1467.631 -1734.121)" fill="#f9d0bb" stroke="#000" stroke-linejoin="round" stroke-width="0.25"/>
        <line id="Line_917" data-name="Line 917" x2="1.675" y2="3.144" transform="translate(11.106 6.048)" fill="none" stroke="#000" stroke-linejoin="round" stroke-width="0.25"/>
        <line id="Line_918" data-name="Line 918" x2="2.096" y2="3.261" transform="translate(7.075 14.665)" fill="none" stroke="#000" stroke-linejoin="round" stroke-width="0.25"/>
        <line id="Line_919" data-name="Line 919" x2="1.592" y2="3.51" transform="translate(14.915 22.935)" fill="none" stroke="#000" stroke-linejoin="round" stroke-width="0.25"/>
        <line id="Line_920" data-name="Line 920" x2="1.397" y2="3.61" transform="translate(21.98 27.358)" fill="none" stroke="#000" stroke-linejoin="round" stroke-width="0.25"/>
        <line id="Line_921" data-name="Line 921" x2="2.911" y2="3.028" transform="translate(16.507 34.112)" fill="none" stroke="#000" stroke-linejoin="round" stroke-width="0.25"/>
        <line id="Line_922" data-name="Line 922" x2="1.961" y2="3.561" transform="translate(24.677 38.402)" fill="none" stroke="#000" stroke-linejoin="round" stroke-width="0.25"/>
      </g>
      <path id="Path_15911" data-name="Path 15911" d="M1587.625,1856.512s-5.588,9.194-3.024,11.677c2.5,2.414,5.626-2.835,5.626-2.835s-1.285,7.374,3.959,8.749c7.41,1.944,13.707-8.315,1.228-20.349C1595.414,1853.755,1589.245,1851.768,1587.625,1856.512Z" transform="translate(-1389.96 -1636.269)" fill="#fff" stroke="#000" stroke-linejoin="round" stroke-width="0.25"/>
      <path id="Path_15912" data-name="Path 15912" d="M1504.145,1788.055s-.039-6.968,3.819-6.083c3.965.909,3.933,13.177,3.933,13.177,1.218,5.584-5.974,7.284-5.974,7.284-8.911-.337-14.81-8.682-10-15.223s11.75.912,7.2,7.744" transform="translate(-1431.557 -1669.393)" fill="#fff" stroke="#000" stroke-linejoin="round" stroke-width="0.25"/>
      <path id="Path_15913" data-name="Path 15913" d="M1560.1,1761.957s21.253,46.84,33.985,70.392,30.123,54.917,27.637,60.817-27.637,10.986-37.263,8.385L1555.761,1763Z" transform="translate(-1403.018 -1678.636)" fill="#e2545b" stroke="#000" stroke-linejoin="round" stroke-width="0.25"/>
      <path id="Path_15914" data-name="Path 15914" d="M1552.985,1767.161s-20.457,38.2-23.737,43.475c0,0-8.249-14.867-12.6-16.594s-23.29,25.7-18.011,35.9,21.316,26.969,34.569,27.28,25.187-87.545,25.187-87.545Z" transform="translate(-1429.927 -1676.224)" fill="#e2545b" stroke="#000" stroke-linejoin="round" stroke-width="0.25"/>
      <g id="Group_4173" data-name="Group 4173" transform="translate(107.405 368.504)">
        <path id="Path_15915" data-name="Path 15915" d="M1532.315,1956.807l1.5,20.182-.067.107,13.723.531-.874-20.2Z" transform="translate(-1521.294 -1956.807)" fill="#fff" stroke="#000" stroke-linejoin="round" stroke-width="0.25"/>
        <path id="Path_15916" data-name="Path 15916" d="M1524.911,1990.761c-1.086,5.6,4.93,7.82,15.014.972,9.945-6.754,12.563-6.9,11.044-20.322l-.009-.211-13.723-.531C1536.438,1971.915,1526.581,1982.164,1524.911,1990.761Z" transform="translate(-1524.785 -1950.38)" fill="#e2545b" stroke="#000" stroke-linejoin="round" stroke-width="0.25"/>
        <ellipse id="Ellipse_2847" data-name="Ellipse 2847" cx="2.34" cy="2.348" rx="2.34" ry="2.348" transform="translate(5.307 30.6)" fill="#fff5e6" stroke="#000" stroke-linejoin="round" stroke-width="0.25"/>
        <ellipse id="Ellipse_2848" data-name="Ellipse 2848" cx="2.34" cy="2.348" rx="2.34" ry="2.348" transform="translate(9.988 24.516)" fill="#fff5e6" stroke="#000" stroke-linejoin="round" stroke-width="0.25"/>
      </g>
      <g id="Group_4174" data-name="Group 4174" transform="translate(156.534 368.504)">
        <path id="Path_15917" data-name="Path 15917" d="M1573.785,1956.807l-1.5,20.182.068.107-13.724.531.875-20.2Z" transform="translate(-1558.222 -1956.807)" fill="#fff" stroke="#000" stroke-linejoin="round" stroke-width="0.25"/>
        <path id="Path_15918" data-name="Path 15918" d="M1584.81,1990.761c1.086,5.6-4.928,7.82-15.012.972-9.947-6.754-12.563-6.9-11.046-20.322l.009-.211,13.724-.531C1573.282,1971.915,1583.141,1982.164,1584.81,1990.761Z" transform="translate(-1558.352 -1950.38)" fill="#e2545b" stroke="#000" stroke-linejoin="round" stroke-width="0.25"/>
        <ellipse id="Ellipse_2849" data-name="Ellipse 2849" cx="2.34" cy="2.348" rx="2.34" ry="2.348" transform="translate(16.597 30.6)" fill="#fff5e6" stroke="#000" stroke-linejoin="round" stroke-width="0.25"/>
        <ellipse id="Ellipse_2850" data-name="Ellipse 2850" cx="2.34" cy="2.348" rx="2.34" ry="2.348" transform="translate(11.916 24.516)" fill="#fff5e6" stroke="#000" stroke-linejoin="round" stroke-width="0.25"/>
      </g>
      <path id="Path_15919" data-name="Path 15919" d="M1611.518,1856.894s21.72,85.482,21.426,149.147c0,0-69.775,8.79-126.568-2.892,0,0-4.321-59.832,21.094-146.3C1527.469,1856.853,1571.513,1847.447,1611.518,1856.894Z" transform="translate(-1426.043 -1636.574)" fill="#2e8e89" stroke="#000" stroke-linejoin="round" stroke-width="0.25"/>
      <path id="Path_15920" data-name="Path 15920" d="M1574.716,1764.543s11.238,24.622,20.635,78.918l9.4,54.3-84.049-.041s2.219-20.786,7.7-62.028,16.488-70.219,16.488-70.219Z" transform="translate(-1419.274 -1677.438)" fill="#e2545b" stroke="#000" stroke-linejoin="round" stroke-width="0.25"/>
      <path id="Path_15921" data-name="Path 15921" d="M1536.493,1788.855a20.188,20.188,0,0,1,9.913-3.32c5.724-.281,9.633,6.723,2.793,10.365,0,0,5.965,2.241,4.868,6.583s-6.683,2.942-6.683,2.942,3.491,7.423-1.117,8.824-10.472-.84-13.124-9.666S1536.493,1788.855,1536.493,1788.855Z" transform="translate(-1413.818 -1667.709)" fill="#f9d0bb" stroke="#000" stroke-linejoin="round" stroke-width="0.25"/>
      <path id="Path_15922" data-name="Path 15922" d="M1544.13,1761.957s2.506,25.543,6.1,35.094c4.506-10.2,6.962-33.243,6.962-33.243Z" transform="translate(-1408.411 -1678.636)" fill="#fff" stroke="#000" stroke-linejoin="round" stroke-width="0.25"/>
      <circle id="Ellipse_2851" data-name="Ellipse 2851" cx="1.549" cy="1.549" r="1.549" transform="translate(140.42 99.192) rotate(-83.663)" fill="#f9d0bb" stroke="#000" stroke-linejoin="round" stroke-width="0.25"/>
      <circle id="Ellipse_2852" data-name="Ellipse 2852" cx="1.549" cy="1.549" r="1.549" transform="translate(140.42 106.016) rotate(-83.663)" fill="#f9d0bb" stroke="#000" stroke-linejoin="round" stroke-width="0.25"/>
      <path id="Path_15923" data-name="Path 15923" d="M1540.264,1762.671a140.411,140.411,0,0,0-17.737,49.792c-5.076,34.466,2.033,55.393,2.033,55.393h15.7s-6.173-31.064-1.763-57.514a268,268,0,0,1,11.587-45.514Z" transform="translate(-1419.273 -1678.306)" fill="#fff5e6" stroke="#000" stroke-linejoin="round" stroke-width="0.25"/>
      <path id="Path_15924" data-name="Path 15924" d="M1535.666,1748.15s-3.839,2.179-3.839,11.211,2.02,14.011,7.9,15.116,24.341,2.582,32.2-2.027,5.494-25.372-.766-24.3-30.882-3.038-30.882-3.038Z" transform="translate(-1414.115 -1686.446)" fill="#fff5e6" stroke="#000" stroke-linejoin="round" stroke-width="0.25"/>
      <ellipse id="Ellipse_2853" data-name="Ellipse 2853" cx="24.44" cy="26.638" rx="24.44" ry="26.638" transform="translate(114.713 13.267) rotate(-3.19)" fill="#fff" stroke="#000" stroke-linejoin="round" stroke-width="0.25"/>
      <line id="Line_923" data-name="Line 923" y2="6.103" transform="translate(115.581 235.251)" fill="none" stroke="#000" stroke-linejoin="round" stroke-width="0.25"/>
      <line id="Line_924" data-name="Line 924" y2="8.324" transform="translate(125.308 260.366)" fill="none" stroke="#000" stroke-linejoin="round" stroke-width="0.25"/>
      <line id="Line_925" data-name="Line 925" y2="8.324" transform="translate(170.212 284.377)" fill="none" stroke="#000" stroke-linejoin="round" stroke-width="0.25"/>
      <line id="Line_926" data-name="Line 926" y2="7.176" transform="translate(108.858 286.485)" fill="none" stroke="#000" stroke-linejoin="round" stroke-width="0.25"/>
      <line id="Line_927" data-name="Line 927" y2="8.18" transform="translate(127.025 304.28)" fill="none" stroke="#000" stroke-linejoin="round" stroke-width="0.25"/>
      <line id="Line_928" data-name="Line 928" y2="5.31" transform="translate(98.132 321.174)" fill="none" stroke="#000" stroke-linejoin="round" stroke-width="0.25"/>
      <line id="Line_929" data-name="Line 929" y2="5.31" transform="translate(193.254 337.808)" fill="none" stroke="#000" stroke-linejoin="round" stroke-width="0.25"/>
      <line id="Line_930" data-name="Line 930" y2="6.888" transform="translate(128.741 337)" fill="none" stroke="#000" stroke-linejoin="round" stroke-width="0.25"/>
      <line id="Line_931" data-name="Line 931" y2="5.177" transform="translate(116.297 352.205)" fill="none" stroke="#000" stroke-linejoin="round" stroke-width="0.25"/>
      <line id="Line_932" data-name="Line 932" y2="4.723" transform="translate(150.054 360.571)" fill="none" stroke="#000" stroke-linejoin="round" stroke-width="0.25"/>
      <line id="Line_933" data-name="Line 933" y2="5.797" transform="translate(162.07 337)" fill="none" stroke="#000" stroke-linejoin="round" stroke-width="0.25"/>
      <line id="Line_934" data-name="Line 934" x2="0.572" y2="6.486" transform="translate(149.482 307.84)" fill="none" stroke="#000" stroke-linejoin="round" stroke-width="0.25"/>
      <line id="Line_935" data-name="Line 935" x2="0.572" y2="6.486" transform="translate(183.057 309.712)" fill="none" stroke="#000" stroke-linejoin="round" stroke-width="0.25"/>
      <line id="Line_936" data-name="Line 936" y2="6.171" transform="translate(146.907 270.698)" fill="none" stroke="#000" stroke-linejoin="round" stroke-width="0.25"/>
      <line id="Line_937" data-name="Line 937" y2="4.484" transform="translate(180.568 258.967)" fill="none" stroke="#000" stroke-linejoin="round" stroke-width="0.25"/>
      <line id="Line_938" data-name="Line 938" y2="5.385" transform="translate(140.845 235.969)" fill="none" stroke="#000" stroke-linejoin="round" stroke-width="0.25"/>
      <line id="Line_939" data-name="Line 939" y2="6.171" transform="translate(174.943 237.691)" fill="none" stroke="#000" stroke-linejoin="round" stroke-width="0.25"/>
      <line id="Line_940" data-name="Line 940" y2="5.55" transform="translate(178.09 357.382)" fill="none" stroke="#000" stroke-linejoin="round" stroke-width="0.25"/>
      <g id="Group_4175" data-name="Group 4175" transform="translate(125.123 27.018)">
        <ellipse id="Ellipse_2854" data-name="Ellipse 2854" cx="7.315" cy="12.862" rx="7.315" ry="12.862" transform="translate(17.327 0.02) rotate(-0.078)" fill="none" stroke="#000" stroke-linejoin="round" stroke-width="0.25"/>
        <ellipse id="Ellipse_2855" data-name="Ellipse 2855" cx="7.315" cy="12.862" rx="7.315" ry="12.862" transform="translate(0 0.036) rotate(-0.078)" fill="none" stroke="#000" stroke-linejoin="round" stroke-width="0.25"/>
        <line id="Line_941" data-name="Line 941" x1="2.887" transform="translate(14.542 14.79)" fill="none" stroke="#000" stroke-linejoin="round" stroke-width="0.25"/>
        <ellipse id="Ellipse_2856" data-name="Ellipse 2856" cx="1.531" cy="3.198" rx="1.531" ry="3.198" transform="translate(21.179 10.664) rotate(-0.075)"/>
        <ellipse id="Ellipse_2857" data-name="Ellipse 2857" cx="1.531" cy="3.198" rx="1.531" ry="3.198" transform="translate(8.997 10.675) rotate(-0.075)"/>
      </g>
      <path id="Path_15925" data-name="Path 15925" d="M1574.1,1798.364s-7.316-6.86-14.744-2.5-1.715,11.876,4.622,11.448c0,0-10.922,2.892-10.922,9.006,0,7.3,11.734,5.263,14.027,1.863,0,0-1.038,10.239,5,9.847s6.127-10.162,6.127-10.162Z" transform="translate(-1404.274 -1663.589)" fill="#f9d0bb" stroke="#000" stroke-linejoin="round" stroke-width="0.25"/>
      <path id="Path_15926" data-name="Path 15926" d="M1533.633,1724.7c-1.568,7.731-1.708,16.3-9.005,22.139s-5.279,12.951-1.863,15.125.932,6.522,8.54,7.765,16.565-3.421,16.565-3.421c-3.95-4.732-10.393-12.068-6.783-29.653,2.851-13.888,11.5-18.434,18.327-18.515,9.723-.117,21.654,8.562,19.753,27.779-1.114,11.248-10.329,16.594-5.228,23.751,4.619,6.482,33.913,6.267,34.224-3.981s-7.369-7.1-8.688-17.734c-1.253-10.09-2.8-11.611-11.342-18.054-7.757-5.854-2.642-17.459-12.334-22.437-8.161-4.192-14.217-2.329-19.03.777C1556.769,1708.24,1538.292,1701.718,1533.633,1724.7Z" transform="translate(-1419.747 -1705.029)" fill="#e2545b" stroke="#000" stroke-linejoin="round" stroke-width="0.25"/>
      <path id="Path_15927" data-name="Path 15927" d="M1551.467,1828.692c6.059.115,7.1,13.269,3.552,19.434,0,0,12.851-5.016,14.209,2.717,1.143,6.5-7.521,8.149-14.418,6.582,0,0,6.687,4.992,7.836,10.594h-14s-2.967-5.265-1.985-8.713c0,0-3.029,8.745-8.985,8.713l-10.135-.034s-5.252-11.072,11.988-13.266c0,0-12.824-.741-13.033-9.2s10.762-7.627,16.613-.732C1543.108,1844.782,1540.5,1828.483,1551.467,1828.692Z" transform="translate(-1416.588 -1647.698)" fill="#f9d0bb" stroke="#000" stroke-linejoin="round" stroke-width="0.25"/>
      <path id="Path_15928" data-name="Path 15928" d="M1584.986,1858.593c-2.317-1.073-4.585-3.878-5.021-10.6,0,0-1.287,10.717-8.4,10.455s-5.84-9.421.247-13.972c0,0-13.806,1.347-13.063-7.844.411-5.076,11.5-5.272,16.483-1.973,0,0-3.541-11.039,3.014-11.776.189-.022.373-.033.55-.036Z" transform="translate(-1401.644 -1650.407)" fill="#f9d0bb" stroke="#000" stroke-linejoin="round" stroke-width="0.25"/>
      <path id="Path_15929" data-name="Path 15929" d="M1490.726,1767.7l1.075-4.9-7.31,5.193,5.162.5,22.885,41.309.73-.536Z" transform="translate(-1436.06 -1678.25)" fill="#cee5ca" stroke="#000" stroke-linejoin="round" stroke-width="0.25"/>
      <path id="Path_15930" data-name="Path 15930" d="M1501.478,1794.708s2.791-3.138,1.764-6.679-3.321-5.008-6.241-3.81" transform="translate(-1430.26 -1668.505)" fill="#fff" stroke="#000" stroke-linejoin="round" stroke-width="0.25"/>
    </g>
    <g id="Group_4177" data-name="Group 4177" transform="translate(1693.963 1995.918)">
      <path id="Path_15931" data-name="Path 15931" d="M1634.784,1909.4s-3.592,47.875-24.719,41.862" transform="translate(-1610.065 -1901.169)" fill="none" stroke="#000" stroke-linejoin="round" stroke-width="0.25"/>
      <path id="Path_15932" data-name="Path 15932" d="M1620.039,1912.379s-5.894,23.3,4.262,24.814" transform="translate(-1606.23 -1899.789)" fill="none" stroke="#000" stroke-linejoin="round" stroke-width="0.25"/>
      <circle id="Ellipse_2858" data-name="Ellipse 2858" cx="3.118" cy="3.118" r="3.118" transform="translate(11.474 6.559)" fill="#e2545b" stroke="#000" stroke-linejoin="round" stroke-width="0.25"/>
      <circle id="Ellipse_2859" data-name="Ellipse 2859" cx="4.093" cy="4.093" r="4.093" transform="translate(21.012)" fill="#2e8e89" stroke="#000" stroke-linejoin="round" stroke-width="0.25"/>
      <path id="Path_15933" data-name="Path 15933" d="M1625.42,1923.746s1.193-10.838,14.671-13.358C1640.091,1910.388,1638.508,1924.993,1625.42,1923.746Z" transform="translate(-1602.946 -1900.712)" fill="#fff5e6" stroke="#000" stroke-linejoin="round" stroke-width="0.25"/>
    </g>
  </g>
</svg>
