<svg xmlns="http://www.w3.org/2000/svg" width="395.282" height="410.573" viewBox="0 0 395.282 410.573">
  <g id="Group_4187" data-name="Group 4187" transform="translate(-2336.302 -1716.61)">
    <path id="Path_15934" data-name="Path 15934" d="M2567.519,1940.437c1.366-4.146,3.526-35.931,2.456-55.589,0,0,11.6,17.639,16.79,25.738l1.306,17.3,3.5-12.937,14.358,16.318s-11.032-25.889-22.491-38.1l17.389-.692s-10.479-4.661-21.254-5.193c0,0-4.933-6.124-7.813-9.774,0,0,.8-10.516,1.491-20.5a134.988,134.988,0,0,0,.441-14.492s13.7,11.357,21.715,18.6c0,0-10.7-19.27-20.576-26.335,0,0,.746-6.109,1.352-14.3.656-8.887,1.147-20.226.336-28.876,0,0-4.42,16.242-5.5,29.414h0s-12.611,8.956-28.738,22.165c0,0,17.564-4.068,26.845-13.993,0,0-1.986,17.887-3.272,29,0,0-17.86,13.253-31.159,21.718s-17.652,14.633-17.652,14.633a156.344,156.344,0,0,0,20.86-10.9s.07,9.869.588,16.956c0,0,4.833-7.739,5.042-20.385,0,0,15.226-7.646,21.169-12.468,0,0-3.375,17.746-5.562,41.525,0,0-12.241,9.3-22.3,15.614s-24.1,13.06-32.9,21.24-16.427,15.173-16.427,15.173,15.048-7.866,21.5-13.218,8.885-4.894,8.885-4.894-1.793,17.144-.4,32.285c0,0,6.837-17.03,5.556-33.971,0,0,10.57-6.84,17.243-10.12a48.845,48.845,0,0,1,2.7,11.191s3.853-5.289,4.152-14.3a53.328,53.328,0,0,0,11.366-9.63s-4.7,20.378-6.846,38.614c-1.89,16.022-6.634,51.867-7.72,71.465,7.743-.11,14.3-.345,21.069-.889.1-7.1.474-21.566,1.109-36.6.931-21.992.669-44.608.669-44.608s17.728,16.018,23.129,20.586c0,0,1.1,20.833,4.271,30.451l2.3-26.2,26.6,18.379S2587.9,1952.6,2567.519,1940.437Z" transform="translate(77.543 38.428)" fill="#bcd0ed" stroke="#000" stroke-linejoin="round" stroke-width="0.25"/>
    <g id="Group_4179" data-name="Group 4179" transform="translate(2647.613 1965.658)">
      <ellipse id="Ellipse_2860" data-name="Ellipse 2860" cx="17.334" cy="11.278" rx="17.334" ry="11.278" transform="translate(45.211 7.235) rotate(-12.045)" fill="#ea6157" stroke="#000" stroke-linejoin="round" stroke-width="0.25"/>
      <path id="Path_15935" data-name="Path 15935" d="M2604.86,1891.123l-26.4,14.275,16.284-21.944" transform="translate(-2523.392 -1880.093)" fill="none" stroke="#000" stroke-linejoin="round" stroke-width="0.25"/>
      <path id="Path_15936" data-name="Path 15936" d="M2585.742,1885.858l1.217,18.3s-21.762,38.621-25.061,72.827" transform="translate(-2531.892 -1878.858)" fill="none" stroke="#000" stroke-linejoin="round" stroke-width="0.25"/>
      <ellipse id="Ellipse_2861" data-name="Ellipse 2861" cx="11.337" cy="15.79" rx="11.337" ry="15.79" transform="translate(0 52.681) rotate(-42.691)" fill="#ea6157" stroke="#000" stroke-linejoin="round" stroke-width="0.25"/>
      <path id="Path_15937" data-name="Path 15937" d="M2570.5,1930.243s14.933,2.691,20.664-6.917S2577.8,1912.561,2570.5,1930.243Z" transform="translate(-2527.475 -1863.164)" fill="#ea6157" stroke="#000" stroke-linejoin="round" stroke-width="0.25"/>
      <path id="Path_15938" data-name="Path 15938" d="M2546.649,1912.086l18.642,23.611,3.963-18.623" transform="translate(-2539.719 -1865.396)" fill="none" stroke="#000" stroke-linejoin="round" stroke-width="0.25"/>
      <path id="Path_15939" data-name="Path 15939" d="M2554.118,1909.76l7.34,27.131s4.051,15.72,2.736,27.83" transform="translate(-2535.885 -1866.59)" fill="none" stroke="#000" stroke-linejoin="round" stroke-width="0.25"/>
      <path id="Path_15940" data-name="Path 15940" d="M2594.274,1916.972s-11.721,3.875-20.1,13a79.867,79.867,0,0,0-10.833,17.33" transform="translate(-2531.149 -1862.889)" fill="none" stroke="#000" stroke-linejoin="round" stroke-width="0.25"/>
    </g>
    <g id="Group_4180" data-name="Group 4180" transform="translate(2567.869 2044.626)">
      <path id="Path_15941" data-name="Path 15941" d="M2505.611,1948.875a92.644,92.644,0,0,1-6.4,15.475,99.521,99.521,0,0,0-9.839,30.5s81.517,3.771,82.2,4.228,67.411-3.994,67.411-3.994-5.567-15.267-12.887-26.664-7.991-19.37-7.991-19.37l-51-7.138Z" transform="translate(-2489.372 -1929.057)" fill="#325984" stroke="#000" stroke-linejoin="round" stroke-width="0.25"/>
      <path id="Path_15942" data-name="Path 15942" d="M2519.624,1945.788a102.118,102.118,0,0,0-.439,15.2" transform="translate(-2474.132 -1927.067)" fill="none" stroke="#000" stroke-linejoin="round" stroke-width="0.25"/>
      <path id="Path_15943" data-name="Path 15943" d="M2519.662,1958.378s.455,13.954-.269,21.314" transform="translate(-2473.964 -1920.605)" fill="none" stroke="#000" stroke-linejoin="round" stroke-width="0.25"/>
      <path id="Path_15944" data-name="Path 15944" d="M2555,1946.586s-1.019,3.17,3.4,14.6,5.554,18.4,7.7,25.512" transform="translate(-2455.741 -1926.658)" fill="none" stroke="#000" stroke-linejoin="round" stroke-width="0.25"/>
      <path id="Path_15945" data-name="Path 15945" d="M2496.559,1950.642c-.825-7.191,5.151-9.431,12.513-12.751s14.3-3.031,23.6-3.294,20.128.032,31.512-.922,17.767.722,31.364,5.184,19.564,4.75,24,10.587,2.064,11.8-3.906,12.626-13.321-3.352-22.342-5.031-12.9-3.63-24.982-2.4-22.626-.174-31.232-.881-15.549,1.779-22.769,2.6S2497.243,1956.614,2496.559,1950.642Z" transform="translate(-2485.722 -1933.417)" fill="#ebebf2" stroke="#000" stroke-linejoin="round" stroke-width="0.25"/>
      <ellipse id="Ellipse_2862" data-name="Ellipse 2862" cx="1.352" cy="3.124" rx="1.352" ry="3.124" transform="translate(120.567 33.054) rotate(-29.91)" fill="#fff" stroke="#000" stroke-linejoin="round" stroke-width="0.25"/>
      <ellipse id="Ellipse_2863" data-name="Ellipse 2863" cx="2.108" cy="5.42" rx="2.108" ry="5.42" transform="translate(128.78 40.042) rotate(-21.159)" fill="#fff" stroke="#000" stroke-linejoin="round" stroke-width="0.25"/>
      <path id="Path_15946" data-name="Path 15946" d="M2525.906,1949.461c1.138-.038,2.055,2.61.816,5.078s-3.228,2.191-2.813,0S2524.454,1949.508,2525.906,1949.461Z" transform="translate(-2471.675 -1925.182)" fill="#fff" stroke="#000" stroke-linejoin="round" stroke-width="0.25"/>
      <path id="Path_15947" data-name="Path 15947" d="M2551.091,1950.736c.9-1.169,2.6-.165,3.768,3.593s-.579,7.642-2.445,5.977S2549.693,1952.564,2551.091,1950.736Z" transform="translate(-2458.051 -1924.764)" fill="#fff" stroke="#000" stroke-linejoin="round" stroke-width="0.25"/>
      <path id="Path_15948" data-name="Path 15948" d="M2555.338,1959.737c1.4-.253,1.427,3.117,1.1,4.37-.481,1.818-2.488,2.432-2.713,0S2554.325,1959.918,2555.338,1959.737Z" transform="translate(-2456.364 -1919.915)" fill="#fff" stroke="#000" stroke-linejoin="round" stroke-width="0.25"/>
      <ellipse id="Ellipse_2864" data-name="Ellipse 2864" cx="1.869" cy="2.958" rx="1.869" ry="2.958" transform="matrix(0.391, -0.92, 0.92, 0.391, 116.958, 20.065)" fill="#fff" stroke="#000" stroke-linejoin="round" stroke-width="0.25"/>
      <ellipse id="Ellipse_2865" data-name="Ellipse 2865" cx="2.343" cy="3.056" rx="2.343" ry="3.056" transform="translate(105.061 14.725) rotate(-77.517)" fill="#fff" stroke="#000" stroke-linejoin="round" stroke-width="0.25"/>
    </g>
    <g id="Group_4183" data-name="Group 4183" transform="translate(2374.188 1716.742)">
      <path id="Path_15949" data-name="Path 15949" d="M2472.389,1989.434s2.294,9.577,9.9,7.745c20.354-4.907,42.825-12.1,53.958-16.066,12.342-4.395,13.974-9.232,11.888-16.811,0,0-11.048-5.4-30.093,3.19S2472.389,1989.434,2472.389,1989.434Z" transform="translate(-2304.407 -1590.54)" fill="#bcd0ed" stroke="#000" stroke-linejoin="round" stroke-width="0.25"/>
      <path id="Path_15950" data-name="Path 15950" d="M2497.964,1950.965s8.079,11.321,1.966,17.864-32.73,17.292-27.294,30.852c0,0,39.8-16.626,75.745-25.132,0,0-5.267-21.576-12.037-31.887Z" transform="translate(-2304.654 -1600.787)" fill="#325984" stroke="#000" stroke-linejoin="round" stroke-width="0.25"/>
      <path id="Path_15951" data-name="Path 15951" d="M2378.242,1976.143s-3.812,9.184,3.358,11c13.8,3.493,38.425,6.767,74.153,4.629a4.721,4.721,0,0,0,4.279-3.558c.479-1.892,1.042-4.218,1.371-5.924l-26.615-7.321Z" transform="translate(-2353.248 -1584.206)" fill="#bcd0ed" stroke="#000" stroke-linejoin="round" stroke-width="0.25"/>
      <path id="Path_15952" data-name="Path 15952" d="M2421.664,1953.315s-.032,12.991-6.059,19.462-32.957-.468-37.706,14.907c0,0,57.008,2.5,83.161,6.146,0,0,5.7-26.771,4.036-41.35Z" transform="translate(-2352.905 -1595.748)" fill="#325984" stroke="#000" stroke-linejoin="round" stroke-width="0.25"/>
      <path id="Path_15953" data-name="Path 15953" d="M2406.053,1959.078a29.711,29.711,0,0,0,7.686,1.028" transform="translate(-2338.454 -1592.361)" fill="none" stroke="#000" stroke-linejoin="round" stroke-width="0.25"/>
      <path id="Path_15954" data-name="Path 15954" d="M2404.918,1962.723s4.676,1.961,8.209,1.341" transform="translate(-2339.037 -1590.49)" fill="none" stroke="#000" stroke-linejoin="round" stroke-width="0.25"/>
      <path id="Path_15955" data-name="Path 15955" d="M2531.234,1773.438s23.348,7.91,50.866,46.8,23.767,51.817,9.173,76.833l-19.6,32.105s19.159,32.757,26.581,60.4,15.789,46.763-5.649,53.8-72.688,14.222-103.841,13.812-78.717,5.283-81.062-22.186,13.458-112.559,18.342-135.958,9.17-42.426,7.928-51.939c0,0-32.731,3.309-55.172-6.445s-19.61-29.949-11.383-42.479,26.552-31.955,39.342-36.25Z" transform="translate(-2361.382 -1693.55)" fill="#ea6157" stroke="#000" stroke-linejoin="round" stroke-width="0.25"/>
      <circle id="Ellipse_2866" data-name="Ellipse 2866" cx="4.198" cy="4.198" r="4.198" transform="translate(100.895 103.162)" fill="#ebebf2" stroke="#000" stroke-linejoin="round" stroke-width="0.25"/>
      <circle id="Ellipse_2867" data-name="Ellipse 2867" cx="4.198" cy="4.198" r="4.198" transform="translate(98.059 131.691)" fill="#ebebf2" stroke="#000" stroke-linejoin="round" stroke-width="0.25"/>
      <circle id="Ellipse_2868" data-name="Ellipse 2868" cx="4.198" cy="4.198" r="4.198" transform="translate(95.841 160.559)" fill="#ebebf2" stroke="#000" stroke-linejoin="round" stroke-width="0.25"/>
      <circle id="Ellipse_2869" data-name="Ellipse 2869" cx="4.198" cy="4.198" r="4.198" transform="translate(93.442 191.721)" fill="#ebebf2" stroke="#000" stroke-linejoin="round" stroke-width="0.25"/>
      <circle id="Ellipse_2870" data-name="Ellipse 2870" cx="4.198" cy="4.198" r="4.198" transform="translate(91.082 223.158)" fill="#ebebf2" stroke="#000" stroke-linejoin="round" stroke-width="0.25"/>
      <circle id="Ellipse_2871" data-name="Ellipse 2871" cx="4.198" cy="4.198" r="4.198" transform="translate(91.032 255.081)" fill="#ebebf2" stroke="#000" stroke-linejoin="round" stroke-width="0.25"/>
      <circle id="Ellipse_2872" data-name="Ellipse 2872" cx="4.198" cy="4.198" r="4.198" transform="translate(89.862 324.605)" fill="#ebebf2" stroke="#000" stroke-linejoin="round" stroke-width="0.25"/>
      <circle id="Ellipse_2873" data-name="Ellipse 2873" cx="4.198" cy="4.198" r="4.198" transform="translate(89.998 290.341)" fill="#ebebf2" stroke="#000" stroke-linejoin="round" stroke-width="0.25"/>
      <path id="Path_15956" data-name="Path 15956" d="M2455.323,1724.949s8.307-7.633,15.782-1.361c0,0,10.437-8.082,16.187,1.361,0,0,11.848-4.447,12.719,8.508,0,0,12.719-3.248,12.37,11.387,0,0,14.984,2.963,9.583,18.469,0,0,10.628,9.932-2.613,21.081,0,0-.872,14.053-12.545,12.341,0,0-2.265,10.473-14.112,8.126,0,0-3.485,8.978-12.2,4.273,0,0-6.07,9.258-14.971,6.285l-19.954-4.786s-13.97,6.885-14.8-6.81c0,0-9.456-4.911,2.246-15.037S2455.323,1724.949,2455.323,1724.949Z" transform="translate(-2327.617 -1714.88)" fill="#ebebf2" stroke="#000" stroke-linejoin="round" stroke-width="0.25"/>
      <path id="Path_15957" data-name="Path 15957" d="M2456.2,1725.623s-4.795-11.5-13.506-6.272c0,0-13.241-7.84-18.991,3.659,0,0-15.68-5.053-19.339,8.362,0,0-15.333-.522-14.983,16.9,0,0-15.333,11.5-1.744,27.354,0,0-4.529,19.206,14.112,19.011,0,0,6.323,16.018,22.882,6.75,0,0,6.8,12.115,20.748,12.132s9.469-10.314,9.469-10.314,5.68-5.392-1.722-11.218Z" transform="translate(-2350.792 -1716.742)" fill="#ebebf2" stroke="#000" stroke-linejoin="round" stroke-width="0.25"/>
      <path id="Path_15958" data-name="Path 15958" d="M2424.692,1763.748s-3.4,6.793-9,10.3-4.519,13.217,3.161,17.619c0,0-1.283,2.485-6.763,6.529s-4.742,12.1,2.225,16.073c0,0-13.179,5.944-4.051,15.54,0,0,.34,6.113-7.765,9.213-8.25,3.155-8.247,7.445-.294,7.763a4.6,4.6,0,0,0,4.6,4.04c4.137.033,3.969-4.8,3.969-4.8s5.334,5.865,7.727-2.5c0,0,6.861-2.515.731-12.041,0,0,6.032-.5,6.99-5.1s-2.229-6.055-2.172-10.381c0,0,5.855-.618,9.076-7.919s-3.063-14.825-3.063-14.825,8.745-1.413,9.216-12.139-9.846-16.781-9.846-16.781Z" transform="translate(-2343.474 -1692.615)" fill="#f2b85a" stroke="#000" stroke-linejoin="round" stroke-width="0.25"/>
      <path id="Path_15959" data-name="Path 15959" d="M2418.414,1776.1s.483,4.272-2.005,6.957" transform="translate(-2333.139 -1686.276)" fill="none" stroke="#000" stroke-linejoin="round" stroke-width="0.25"/>
      <path id="Path_15960" data-name="Path 15960" d="M2421.9,1776.2s.012,3.651-2.5,5.771" transform="translate(-2331.604 -1686.223)" fill="none" stroke="#000" stroke-linejoin="round" stroke-width="0.25"/>
      <path id="Path_15961" data-name="Path 15961" d="M2413.889,1791.7s.3,4.317-2,6.856" transform="translate(-2335.459 -1678.269)" fill="none" stroke="#000" stroke-linejoin="round" stroke-width="0.25"/>
      <path id="Path_15962" data-name="Path 15962" d="M2416.637,1792.731s-.438,3.384-2.412,5.125" transform="translate(-2334.26 -1677.74)" fill="none" stroke="#000" stroke-linejoin="round" stroke-width="0.25"/>
      <path id="Path_15963" data-name="Path 15963" d="M2410.1,1802.473a7.083,7.083,0,0,1-1.161,5.023" transform="translate(-2336.97 -1672.739)" fill="none" stroke="#000" stroke-linejoin="round" stroke-width="0.25"/>
      <path id="Path_15964" data-name="Path 15964" d="M2412.712,1803.089c-.029.226-.262,3.093-1.571,4" transform="translate(-2335.843 -1672.423)" fill="none" stroke="#000" stroke-linejoin="round" stroke-width="0.25"/>
      <path id="Path_15965" data-name="Path 15965" d="M2458,1768.36s-8.893,4.909-13.393,10.582-3.024,13.572,7.749,17.879c0,0-12.313,4.478-12.9,12.584s6.4,12.68,6.4,12.68-12.734,4.16-5.5,16.582c0,0-3.527,8.088-11.8,10.488s-7.076,6.38-.814,6.39,8.9-2.415,8.9-2.415-.11,11.19,6.044,3.057c0,0,5.431,11.658,8.633-3.325,0,0,7.4-2.288.054-11.976,0,0,10.121-6.858,3.548-16.529,0,0,19.549-9.231,7.044-24.872,0,0,22.7-7.112,3.16-30.425Z" transform="translate(-2329.914 -1690.248)" fill="#f2b85a" stroke="#000" stroke-linejoin="round" stroke-width="0.25"/>
      <path id="Path_15966" data-name="Path 15966" d="M2448.344,1779.726s1.24,5.313-1.921,8.583" transform="translate(-2317.735 -1684.415)" fill="none" stroke="#000" stroke-linejoin="round" stroke-width="0.25"/>
      <path id="Path_15967" data-name="Path 15967" d="M2449.537,1788.655c3.367-3.063,2.289-8.176,2.289-8.176" transform="translate(-2316.136 -1684.028)" fill="none" stroke="#000" stroke-linejoin="round" stroke-width="0.25"/>
      <path id="Path_15968" data-name="Path 15968" d="M2443.267,1798.234s.595,3.868-1.858,6.486" transform="translate(-2320.308 -1674.915)" fill="none" stroke="#000" stroke-linejoin="round" stroke-width="0.25"/>
      <path id="Path_15969" data-name="Path 15969" d="M2446.285,1798.909a6.017,6.017,0,0,1-1.865,4.7" transform="translate(-2318.763 -1674.569)" fill="none" stroke="#000" stroke-linejoin="round" stroke-width="0.25"/>
      <path id="Path_15970" data-name="Path 15970" d="M2440.038,1811.426s.327,2.834-.918,4.1" transform="translate(-2321.483 -1668.144)" fill="none" stroke="#000" stroke-linejoin="round" stroke-width="0.25"/>
      <path id="Path_15971" data-name="Path 15971" d="M2442.359,1811.193a5.932,5.932,0,0,1-.937,4.177" transform="translate(-2320.301 -1668.264)" fill="none" stroke="#000" stroke-linejoin="round" stroke-width="0.25"/>
      <path id="Path_15972" data-name="Path 15972" d="M2438.724,1784.011s-10.7,16.171-18.58,4.638c0,0-6.494,2.288-5.967-5.59,0,0-3.872.229-6.242,2.655,0,0,4.124-6.737,3.06-12.138,0,0-12.483-1.1-5.355-19.627a3.211,3.211,0,0,0-3.428-.021s1.56-3.868,7.77-4.258,7.508-4.517,7.508-4.517a10.022,10.022,0,0,1-4.066-4.926s6.631,1.249,8.807-4.791,6.242-8.291,10.417-7.818a3.991,3.991,0,0,0,1.434-4.307s2.673,4.039,10.893,4.027c0,0-.294-2.865-3.871-5.41a15.529,15.529,0,0,1,13.793,3.532s5.14-4.65,16.066-3.01a12.22,12.22,0,0,0-1.58,5.632s8.182-3.66,13.339-.4,1.023,9.033,6.964,12.648,7.489,7.547,5.756,15.647,4.351,14.277,7.834,17.325c0,0-5.823-.658-7.6,1.607,0,0,6.772,7.61-2.281,12.044,0,0-2.581,15.169-13.793,11.186,0,0-14.7,4.861-17.115-12.133Z" transform="translate(-2340.426 -1714.281)" fill="#f2b85a" stroke="#000" stroke-linejoin="round" stroke-width="0.25"/>
      <path id="Path_15973" data-name="Path 15973" d="M2449.7,1766.467s-1.46,3.986,1.153,6.607" transform="translate(-2316.259 -1691.22)" fill="none" stroke="#000" stroke-linejoin="round" stroke-width="0.25"/>
      <path id="Path_15974" data-name="Path 15974" d="M2454.567,1767.277s-.4,3.564-2.05,4.762" transform="translate(-2314.607 -1690.804)" fill="none" stroke="#000" stroke-linejoin="round" stroke-width="0.25"/>
      <path id="Path_15975" data-name="Path 15975" d="M2454.783,1772.2s3.391-1.047,4.3-3.983" transform="translate(-2313.443 -1690.321)" fill="none" stroke="#000" stroke-linejoin="round" stroke-width="0.25"/>
      <path id="Path_15976" data-name="Path 15976" d="M2414.228,1761.927a8.4,8.4,0,0,1,.6,4.295" transform="translate(-2334.259 -1693.55)" fill="none" stroke="#000" stroke-linejoin="round" stroke-width="0.25"/>
      <path id="Path_15977" data-name="Path 15977" d="M2418.687,1762.7a7.856,7.856,0,0,1-1.079,4.363" transform="translate(-2332.524 -1693.155)" fill="none" stroke="#000" stroke-linejoin="round" stroke-width="0.25"/>
      <circle id="Ellipse_2874" data-name="Ellipse 2874" cx="22.672" cy="22.672" r="22.672" transform="translate(84.797 32.99)" fill="#fff" stroke="#000" stroke-linejoin="round" stroke-width="0.25"/>
      <ellipse id="Ellipse_2875" data-name="Ellipse 2875" cx="2.49" cy="1.038" rx="2.49" ry="1.038" transform="translate(90.267 61.896) rotate(-88.094)"/>
      <ellipse id="Ellipse_2876" data-name="Ellipse 2876" cx="2.49" cy="1.038" rx="2.49" ry="1.038" transform="translate(97.39 62.41) rotate(-88.094)"/>
      <path id="Path_15978" data-name="Path 15978" d="M2439.5,1731.343s-6.622-4.988-11.454-.356-4.014,21.039-17.867,20.275c0,0,1.575,2.509,7.292,3.387,0,0-1.158,3.326-3.833,4.1,0,0,17.37,5.368,24.2-6.434,0,0,.251,9.36,11.393,10.493a11.471,11.471,0,0,1-.228-4.51s5.444,14.48,24.31,4c0,0-8.223-1.81-6.045-7.693s4.429-12.5.154-16.679-11.5-3.4-15.355-.934c0,0,3.1-4.728-.062-6.065-3.379-1.433-5.337,3.208-5.337,3.208" transform="translate(-2336.339 -1710.441)" fill="#f2b85a" stroke="#000" stroke-linejoin="round" stroke-width="0.25"/>
      <path id="Path_15979" data-name="Path 15979" d="M2398.256,1747.275a100.082,100.082,0,0,1,13.825-1.728c7.545-.4,12.5-3.058,13.56-.8s-3.323,11.7-20.606,10.1S2398.256,1747.275,2398.256,1747.275Z" transform="translate(-2344.079 -1702.829)" fill="#fff" stroke="#000" stroke-linejoin="round" stroke-width="0.25"/>
      <path id="Path_15980" data-name="Path 15980" d="M2393.406,1781.692s.543,15.026,0,21.83" transform="translate(-2344.946 -1683.406)" fill="none" stroke="#000" stroke-linejoin="round" stroke-width="0.25"/>
      <path id="Path_15981" data-name="Path 15981" d="M2467.692,1796.23s25.438,27.015,32.818,43.072a9,9,0,0,1,.778,2.911c.5,5.3,1.554,23.938-5.488,46.984" transform="translate(-2306.818 -1675.944)" fill="none" stroke="#000" stroke-linejoin="round" stroke-width="0.25"/>
      <path id="Path_15982" data-name="Path 15982" d="M2482.067,1877s-5.5,5.929-3.37,9.34,6.619,2.314,8.182.324.569-10.942.569-10.942Z" transform="translate(-2301.422 -1635.143)" fill="#fff" stroke="#000" stroke-linejoin="round" stroke-width="0.25"/>
      <rect id="Rectangle_218" data-name="Rectangle 218" width="4.693" height="14.901" transform="translate(169.067 255.574) rotate(20.11)" fill="#bcd0ed" stroke="#000" stroke-linejoin="round" stroke-width="0.25"/>
      <rect id="Rectangle_219" data-name="Rectangle 219" width="4.693" height="14.901" transform="translate(207.318 267.376) rotate(20.11)" fill="#bcd0ed" stroke="#000" stroke-linejoin="round" stroke-width="0.25"/>
      <circle id="Ellipse_2877" data-name="Ellipse 2877" cx="7.672" cy="7.672" r="7.672" transform="translate(157.497 265.115)" fill="#325984" stroke="#000" stroke-linejoin="round" stroke-width="0.25"/>
      <circle id="Ellipse_2878" data-name="Ellipse 2878" cx="7.672" cy="7.672" r="7.672" transform="translate(195.748 278.505)" fill="#325984" stroke="#000" stroke-linejoin="round" stroke-width="0.25"/>
      <g id="Group_4181" data-name="Group 4181" transform="translate(100.527 262.953)">
        <rect id="Rectangle_220" data-name="Rectangle 220" width="79.63" height="65.155" transform="translate(25.875 81.694) rotate(-70.192)" fill="#bcd0ed" stroke="#000" stroke-linejoin="round" stroke-width="0.25"/>
        <path id="Path_15983" data-name="Path 15983" d="M2464.331,1891.4l-.123-.044a14.228,14.228,0,0,0-18.209,8.565l-1.982,5.5-13.377,37.14-1.98,5.5a14.228,14.228,0,0,0,8.565,18.209l.123.044,12.425,4.476,26.985-74.92Z" transform="translate(-2427.813 -1890.508)" fill="#bcd0ed" stroke="#000" stroke-linejoin="round" stroke-width="0.25"/>
        <path id="Path_15984" data-name="Path 15984" d="M2527.542,1915.028l-.123-.046-12.426-4.475-26.984,74.918,12.426,4.476.123.044a14.228,14.228,0,0,0,18.209-8.565l1.981-5.5,13.377-37.14,1.982-5.5A14.227,14.227,0,0,0,2527.542,1915.028Z" transform="translate(-2396.917 -1880.243)" fill="#bcd0ed" stroke="#000" stroke-linejoin="round" stroke-width="0.25"/>
        <rect id="Rectangle_221" data-name="Rectangle 221" width="18.408" height="19.944" rx="2.401" transform="translate(32.082 31.161) rotate(19.808)" fill="#ebebf2" stroke="#000" stroke-linejoin="round" stroke-width="0.25"/>
        <rect id="Rectangle_222" data-name="Rectangle 222" width="18.408" height="19.944" rx="2.401" transform="translate(97.298 54.65) rotate(19.808)" fill="#ebebf2" stroke="#000" stroke-linejoin="round" stroke-width="0.25"/>
        <line id="Line_942" data-name="Line 942" x1="3.916" y1="1.41" transform="translate(21.959 80.284)" fill="#bcd0ed" stroke="#000" stroke-linejoin="round" stroke-width="0.25"/>
        <line id="Line_943" data-name="Line 943" x2="3.916" y2="1.41" transform="translate(48.944 5.365)" fill="#bcd0ed" stroke="#000" stroke-linejoin="round" stroke-width="0.25"/>
        <rect id="Rectangle_223" data-name="Rectangle 223" width="79.63" height="4.162" transform="translate(21.959 80.284) rotate(-70.192)" fill="#325984" stroke="#000" stroke-linejoin="round" stroke-width="0.25"/>
        <line id="Line_944" data-name="Line 944" x1="3.916" y1="1.41" transform="translate(87.175 103.773)" fill="#bcd0ed" stroke="#000" stroke-linejoin="round" stroke-width="0.25"/>
        <line id="Line_945" data-name="Line 945" x2="3.916" y2="1.41" transform="translate(114.159 28.855)" fill="#bcd0ed" stroke="#000" stroke-linejoin="round" stroke-width="0.25"/>
        <rect id="Rectangle_224" data-name="Rectangle 224" width="79.63" height="4.162" transform="translate(87.175 103.773) rotate(-70.192)" fill="#325984" stroke="#000" stroke-linejoin="round" stroke-width="0.25"/>
        <rect id="Rectangle_225" data-name="Rectangle 225" width="6.861" height="10.472" rx="1.07" transform="translate(38.676 29.89) rotate(19.808)" fill="#bcd0ed" stroke="#000" stroke-linejoin="round" stroke-width="0.25"/>
        <rect id="Rectangle_226" data-name="Rectangle 226" width="6.861" height="10.472" rx="1.07" transform="translate(103.892 53.379) rotate(19.808)" fill="#bcd0ed" stroke="#000" stroke-linejoin="round" stroke-width="0.25"/>
      </g>
      <rect id="Rectangle_227" data-name="Rectangle 227" width="18.011" height="10.039" rx="2.187" transform="translate(171.484 286.917) rotate(19.808)" fill="#ebebf2" stroke="#000" stroke-linejoin="round" stroke-width="0.25"/>
      <g id="Group_4182" data-name="Group 4182" transform="translate(100.527 262.953)">
        <path id="Path_15985" data-name="Path 15985" d="M2440.5,1899.919l-1.982,5.5,8.158,2.937a5.688,5.688,0,0,0,7.28-3.425l4.876-13.536-.123-.044A14.228,14.228,0,0,0,2440.5,1899.919Z" transform="translate(-2422.317 -1890.508)" fill="#325984" stroke="#000" stroke-linejoin="round" stroke-width="0.25"/>
        <path id="Path_15986" data-name="Path 15986" d="M2428.659,1930.408a14.228,14.228,0,0,0,8.565,18.209l.123.044,4.875-13.536a5.688,5.688,0,0,0-3.424-7.28l-8.158-2.939Z" transform="translate(-2427.813 -1872.853)" fill="#325984" stroke="#000" stroke-linejoin="round" stroke-width="0.25"/>
        <path id="Path_15987" data-name="Path 15987" d="M2515.943,1913.51l-.123-.046L2510.945,1927a5.688,5.688,0,0,0,3.424,7.28l8.157,2.938,1.982-5.5A14.228,14.228,0,0,0,2515.943,1913.51Z" transform="translate(-2385.319 -1878.725)" fill="#325984" stroke="#000" stroke-linejoin="round" stroke-width="0.25"/>
        <path id="Path_15988" data-name="Path 15988" d="M2496.22,1968.841l.123.044a14.229,14.229,0,0,0,18.209-8.565l1.981-5.5-8.157-2.939a5.69,5.69,0,0,0-7.28,3.424Z" transform="translate(-2392.703 -1859.182)" fill="#325984" stroke="#000" stroke-linejoin="round" stroke-width="0.25"/>
      </g>
      <rect id="Rectangle_228" data-name="Rectangle 228" width="56.552" height="10.606" rx="2.827" transform="matrix(0.941, 0.339, -0.339, 0.941, 166.976, 244.635)" fill="#325984" stroke="#000" stroke-linejoin="round" stroke-width="0.25"/>
      <path id="Path_15989" data-name="Path 15989" d="M2486.423,1878.636s-7.106,7.816-5.4,14.78,10.8,8.385,16.343,3.838,5.543-16.485,5.543-16.485Z" transform="translate(-2300.112 -1633.648)" fill="#fff" stroke="#000" stroke-linejoin="round" stroke-width="0.25"/>
      <path id="Path_15990" data-name="Path 15990" d="M2487.061,1851.649s3.512-12.185,13.218-4.75c0,0,9.087-7.568,14.25,1.172,0,0,13.012-4.478,14.458,6.469,0,0,10.119-1.446,9.294,9.293,0,0,11.565,10.326-1.033,20.034,0,0,2.892,10.121-5.576,9.913,0,0,.35,11.166-9.532,7.856,0,0-4.924,13.418-13.806,2.678,0,0-10.534,6.4-13.01-5.576,0,0-15.567,2.477-13.464-11.566,0,0-14.138-2.467-6.34-16.149,0,0-4.774-10.287,3.9-11.319C2479.421,1859.7,2478.266,1849.6,2487.061,1851.649Z" transform="translate(-2304.005 -1651.498)" fill="#ebebf2" stroke="#000" stroke-linejoin="round" stroke-width="0.25"/>
      <ellipse id="Ellipse_2879" data-name="Ellipse 2879" cx="3.074" cy="5.58" rx="3.074" ry="5.58" transform="translate(205.364 205.586) rotate(-45)" fill="#fff" stroke="#000" stroke-linejoin="round" stroke-width="0.25"/>
      <ellipse id="Ellipse_2880" data-name="Ellipse 2880" cx="2.176" cy="3.829" rx="2.176" ry="3.829" transform="translate(221.013 212.325) rotate(-34.368)" fill="#fff" stroke="#000" stroke-linejoin="round" stroke-width="0.25"/>
      <path id="Path_15991" data-name="Path 15991" d="M2401.213,1747.167s7.046-5.224,10.5.911c0,0,8.57,1.845,4.286,9.773,0,0,10.384.882,4.578,10.587,0,0,3.635,8.86-6.868,10.225,0,0,1.86,9.317-3.192,10.781,0,0,2.526,13.958-7.843,11.033,0,0-11.965,6.914-15.022-5.982,0,0-12.363.16-9.837-12.416a11.123,11.123,0,0,1-1.464-11.511c2.926-6.516,11.168-4.921,11.168-4.921s-3.723-8.774,4.786-9.305C2392.306,1756.341,2390.576,1745.173,2401.213,1747.167Z" transform="translate(-2354.214 -1702.19)" fill="#ebebf2" stroke="#000" stroke-linejoin="round" stroke-width="0.25"/>
    </g>
    <g id="Group_4185" data-name="Group 4185" transform="translate(2336.432 2052.241)">
      <g id="Group_4184" data-name="Group 4184">
        <path id="Path_15992" data-name="Path 15992" d="M2372.4,1987.235a111.761,111.761,0,0,1-14.821-.6c-4.221-2.321-17.726-10.644-20.669-12.463a1.015,1.015,0,0,1-.463-1.04c.67-3.971,2.3-7.468,5-15.211,2.848-8.187,2.373-9.375,2.373-9.375l12.926-1.437,42.446,2.612s3.525,5.224,6.659,11.109,7.053,11.876,7.053,11.876c-1.96,1.044-3.7,3.4-10,6.509C2393.964,1983.623,2381.953,1986.874,2372.4,1987.235Z" transform="translate(-2336.432 -1934.005)" fill="#325984" stroke="#000" stroke-linejoin="round" stroke-width="0.25"/>
        <path id="Path_15993" data-name="Path 15993" d="M2350.407,1985.086s.918-5.219,2.338-10.821a87.092,87.092,0,0,0,2.684-24.143" transform="translate(-2329.26 -1932.458)" fill="none" stroke="#000" stroke-linejoin="round" stroke-width="0.25"/>
        <path id="Path_15994" data-name="Path 15994" d="M2340.507,1952.881c-.639-3.75,2.55-7.33,6.055-8.6s7.808-4.357,13.492-5.206,11.475-1.009,15.671.69,6.374,2.019,11.791,2.019,10.358,2.019,12.59,5.79,2.55,8.606-1.062,10.411-11.793,2.5-18.752,1.063-13.161-.372-17.868-1.753-10.99,1.223-14.427.69C2344.225,1957.4,2340.874,1955.051,2340.507,1952.881Z" transform="translate(-2334.383 -1938.449)" fill="#ebebf2" stroke="#000" stroke-linejoin="round" stroke-width="0.25"/>
        <path id="Path_15995" data-name="Path 15995" d="M2342.383,1960.55c.891.114,1.232,1.481.2,3.49s-2.759,2.182-2.53.18C2340.237,1962.572,2341.343,1960.418,2342.383,1960.55Z" transform="translate(-2334.587 -1927.109)" fill="#fff" stroke="#000" stroke-linejoin="round" stroke-width="0.25"/>
        <path id="Path_15996" data-name="Path 15996" d="M2345.879,1953.581c1.827-.125,2.562,2.865.493,6.666s-4.924,2.947-4.567.507S2343.508,1953.743,2345.879,1953.581Z" transform="translate(-2333.69 -1930.685)" fill="#fff" stroke="#000" stroke-linejoin="round" stroke-width="0.25"/>
        <path id="Path_15997" data-name="Path 15997" d="M2378,1953.97c1.049-.845,3.253,2.536,3.809,4.19s-1.383,2.78-2.415.981S2377.326,1954.512,2378,1953.97Z" transform="translate(-2315.207 -1930.551)" fill="#fff" stroke="#000" stroke-linejoin="round" stroke-width="0.25"/>
        <path id="Path_15998" data-name="Path 15998" d="M2381.511,1958.679c.439-.351,1.712.8,2.252,2.114s-.663,2.04-1.379.949S2381.02,1959.074,2381.511,1958.679Z" transform="translate(-2313.383 -1928.099)" fill="#fff" stroke="#000" stroke-linejoin="round" stroke-width="0.25"/>
        <path id="Path_15999" data-name="Path 15999" d="M2356.727,1960.113a37.861,37.861,0,0,0,0,8.072" transform="translate(-2326.135 -1927.33)" fill="none" stroke="#000" stroke-linejoin="round" stroke-width="0.25"/>
      </g>
      <path id="Path_16000" data-name="Path 16000" d="M2369.387,1945.043c1.257-2.036,5.814-.345,4.8,1.168S2368.24,1946.9,2369.387,1945.043Z" transform="translate(-2319.606 -1935.546)" fill="#fff" stroke="#000" stroke-linejoin="round" stroke-width="0.25"/>
      <path id="Path_16001" data-name="Path 16001" d="M2374.732,1947.123c1.008-1.236,5.021.562,3.771,1.618S2373.722,1948.361,2374.732,1947.123Z" transform="translate(-2316.867 -1934.212)" fill="#fff" stroke="#000" stroke-linejoin="round" stroke-width="0.25"/>
    </g>
    <g id="Group_4186" data-name="Group 4186" transform="translate(2595.071 2094.419)">
      <path id="Path_16002" data-name="Path 16002" d="M2507.348,1980.69s10.385-1.447,18.654,9.966" transform="translate(-2507.348 -1958.976)" fill="none" stroke="#000" stroke-linejoin="round" stroke-width="0.25"/>
      <path id="Path_16003" data-name="Path 16003" d="M2512.808,1975.376s11.646,4.431,17.185,18.725" transform="translate(-2504.545 -1961.674)" fill="none" stroke="#000" stroke-linejoin="round" stroke-width="0.25"/>
      <path id="Path_16004" data-name="Path 16004" d="M2517.369,1967.93s10.528,6.306,15.407,29.573" transform="translate(-2502.204 -1965.495)" fill="none" stroke="#000" stroke-linejoin="round" stroke-width="0.25"/>
      <path id="Path_16005" data-name="Path 16005" d="M2525.817,1966.321a82,82,0,0,1,7.243,30.324" transform="translate(-2497.869 -1966.321)" fill="none" stroke="#000" stroke-linejoin="round" stroke-width="0.25"/>
      <path id="Path_16006" data-name="Path 16006" d="M2541.006,1968.171a79.482,79.482,0,0,0-7.652,29.959" transform="translate(-2494 -1965.371)" fill="none" stroke="#000" stroke-linejoin="round" stroke-width="0.25"/>
      <path id="Path_16007" data-name="Path 16007" d="M2536.592,1993.144s2.316-11.66,10.045-18.9" transform="translate(-2492.338 -1962.257)" fill="none" stroke="#000" stroke-linejoin="round" stroke-width="0.25"/>
      <path id="Path_16008" data-name="Path 16008" d="M2539.989,1990.3a24.75,24.75,0,0,1,13.774-8.462" transform="translate(-2490.595 -1958.36)" fill="none" stroke="#000" stroke-linejoin="round" stroke-width="0.25"/>
    </g>
  </g>
</svg>
