<svg xmlns="http://www.w3.org/2000/svg" width="355.539" height="406.719" viewBox="0 0 355.539 406.719">
  <g id="Group_3994" data-name="Group 3994" transform="translate(-1417.643 -134.525)">
    <g id="Group_3994-2" data-name="Group 3994" transform="translate(1481.661 395.173)">
      <ellipse id="Ellipse_2773" data-name="Ellipse 2773" cx="2.258" cy="2.201" rx="2.258" ry="2.201" transform="translate(11.493 4.479) rotate(-82.664)" fill="#60472a" stroke="#000" stroke-miterlimit="10" stroke-width="0.25"/>
      <path id="Path_15340" data-name="Path 15340" d="M1476.778,335.019s3.864,31.373,31.87,43.75" transform="translate(-1462.595 -330.4)" fill="none" stroke="#000" stroke-miterlimit="10" stroke-width="0.25"/>
      <path id="Path_15341" data-name="Path 15341" d="M1469.6,341.494s4.092,15.563,17.947,14.261" transform="translate(-1464.916 -328.307)" fill="none" stroke="#000" stroke-miterlimit="10" stroke-width="0.25"/>
      <circle id="Ellipse_2774" data-name="Ellipse 2774" cx="3.601" cy="3.601" r="3.601" transform="translate(0 6.759)" fill="#ecb36f" stroke="#000" stroke-miterlimit="10" stroke-width="0.25"/>
    </g>
    <g id="Group_3995" data-name="Group 3995" transform="translate(1704.365 371.209)">
      <path id="Path_15342" data-name="Path 15342" d="M1659.9,318.6c5.918,21.885,2.865,56.021-25.538,100.865" transform="translate(-1634.358 -311.745)" fill="none" stroke="#000" stroke-miterlimit="10" stroke-width="0.25"/>
      <circle id="Ellipse_2775" data-name="Ellipse 2775" cx="3.601" cy="3.601" r="3.601" transform="translate(20.388 0)" fill="#ecb36f" stroke="#000" stroke-miterlimit="10" stroke-width="0.25"/>
      <circle id="Ellipse_2776" data-name="Ellipse 2776" cx="3.601" cy="3.601" r="3.601" transform="translate(12.414 30.524)" fill="#60472a" stroke="#000" stroke-miterlimit="10" stroke-width="0.25"/>
      <circle id="Ellipse_2777" data-name="Ellipse 2777" cx="2.02" cy="2.02" r="2.02" transform="translate(36.863 12.119)" fill="#60472a" stroke="#000" stroke-miterlimit="10" stroke-width="0.25"/>
      <circle id="Ellipse_2778" data-name="Ellipse 2778" cx="2.02" cy="2.02" r="2.02" transform="translate(39.973 40.827)" fill="#ecb36f" stroke="#000" stroke-miterlimit="10" stroke-width="0.25"/>
      <path id="Path_15343" data-name="Path 15343" d="M1667.2,325.593s4.639,17.261-12.419,24.291" transform="translate(-1627.756 -309.483)" fill="none" stroke="#000" stroke-miterlimit="10" stroke-width="0.25"/>
      <path id="Path_15344" data-name="Path 15344" d="M1655.09,356.926s-6.857-3.452-8.425-14.985" transform="translate(-1630.38 -304.198)" fill="none" stroke="#000" stroke-miterlimit="10" stroke-width="0.25"/>
      <path id="Path_15345" data-name="Path 15345" d="M1670.122,347.339s-3.324,17.053-18.253,13.549" transform="translate(-1628.697 -302.453)" fill="none" stroke="#000" stroke-miterlimit="10" stroke-width="0.25"/>
    </g>
    <g id="Group_3997" data-name="Group 3997" transform="translate(1462.556 425.067)">
      <g id="Group_3996" data-name="Group 3996">
        <path id="Path_15346" data-name="Path 15346" d="M1578.078,404.206h0l2.264-2.494a6.01,6.01,0,0,0-4.526-10.049l-3.361.042,1.65-2.624a6.009,6.009,0,0,0-6.293-9.087l-3.024.619.971-2.616a6.01,6.01,0,0,0-8.1-7.57l-2.535,1.142.327-2.661a6.01,6.01,0,0,0-9.656-5.477l-2.117,1.649-.326-2.865a6.01,6.01,0,0,0-10.628-3.123l-1.831,2.244-1.035-3.106a6.01,6.01,0,0,0-10.99-.957l-1.564,2.9-1.542-2.862a6.009,6.009,0,0,0-10.994.951l-1.021,3.071-1.8-2.22a6.011,6.011,0,0,0-10.635,3.116l-.32,2.829-2.079-1.622a6.009,6.009,0,0,0-9.662,5.473l.322,2.615-2.488-1.122a6.009,6.009,0,0,0-8.1,7.577l.957,2.566-2.972-.609a6.01,6.01,0,0,0-6.284,9.1l1.629,2.574-3.317-.037a6.01,6.01,0,0,0-4.5,10.063l2.244,2.456-.02,0a6.01,6.01,0,0,0-2.046,11.158l1.285.732s15.792,6.946,62.963,6.946c38.539,0,59.968-6.84,59.968-6.84l1.268-.725A6.01,6.01,0,0,0,1578.078,404.206Z" transform="translate(-1451.622 -354.119)" fill="#4b8e32" stroke="#000" stroke-miterlimit="10" stroke-width="0.25"/>
      </g>
      <path id="Path_15347" data-name="Path 15347" d="M1495.458,387.731s-3.65-6.841.712-9.352,8.014,4.559,8.014,4.559" transform="translate(-1437.914 -346.451)" fill="#4b8e32" stroke="#000" stroke-miterlimit="10" stroke-width="0.25"/>
    </g>
    <path id="Path_15348" data-name="Path 15348" d="M1510.249,415.177c-4.156-7.867,6.481-10.527,10.749-11.473a189.983,189.983,0,0,1,47.2-6.364c25.1-.353,30.978-.569,34.344,5.391,7.2,12.736,1.238,18.923-12.426,20.65C1575.879,425.179,1516.411,426.843,1510.249,415.177Z" transform="translate(29.58 84.872)" fill="#ecb36f" stroke="#000" stroke-miterlimit="10" stroke-width="0.25"/>
    <path id="Path_15349" data-name="Path 15349" d="M1506.988,366.44s-3.143,23.984,13.563,42.675c0,0,2.646,2.977,5.955,3.143s46.645,0,46.645,0l-9.1-41.352Z" transform="translate(28.756 74.931)" fill="#ffeed6" stroke="#000" stroke-miterlimit="10" stroke-width="0.25"/>
    <path id="Path_15350" data-name="Path 15350" d="M1557.583,429.308c-4.494-7.679,6.018-10.8,10.241-11.929a190.072,190.072,0,0,1,46.878-8.411c25.056-1.444,30.922-1.915,34.546,3.893,7.742,12.411,2.06,18.851-11.515,21.17C1623.586,436.447,1564.247,440.7,1557.583,429.308Z" transform="translate(44.833 88.377)" fill="#ecb36f" stroke="#000" stroke-miterlimit="10" stroke-width="0.25"/>
    <path id="Path_15351" data-name="Path 15351" d="M1635.253,370.574s1.489,9.059,9.1,30.288c7.341,20.471,8.7,24.907,6.741,25.535s-77.023,2.918-80.99,3.091c-6.446.281-17.53-26.121-20.68-52.806Z" transform="translate(42.551 76.267)" fill="#ffeed6" stroke="#000" stroke-miterlimit="10" stroke-width="0.25"/>
    <path id="Path_15352" data-name="Path 15352" d="M1526.091,318.232s-28.24,31.318-19.687,67.487l63.247,5.734,6.714-73.22Z" transform="translate(28.122 59.347)" fill="#60472a" stroke="#000" stroke-miterlimit="10" stroke-width="0.25"/>
    <path id="Path_15353" data-name="Path 15353" d="M1634.74,393.413l-85.122,3.705c-11.831-38.78,6.366-78.54,6.366-78.54l65.316-5.365c5.628,30.361,14.728,64.042,17.973,75.7C1640.031,391.641,1639.257,393.216,1634.74,393.413Z" transform="translate(41.321 57.724)" fill="#60472a" stroke="#000" stroke-miterlimit="10" stroke-width="0.25"/>
    <g id="Group_3998" data-name="Group 3998" transform="translate(1514.838 231.654)">
      <path id="Path_15354" data-name="Path 15354" d="M1515.327,233.5s-19.041,14.3-23.471,38.717c-3.77,20.783,8.044,24.33,15.594,23.417,9.276-1.123,14.524-11.9,11.344-25.912-4.247-18.7,11.713-29.369,11.713-29.369Z" transform="translate(-1491.132 -199.699)" fill="#fff" stroke="#000" stroke-miterlimit="10" stroke-width="0.25"/>
      <path id="Path_15355" data-name="Path 15355" d="M1534.318,207.956s-16.77,12.349-21.312,23.61l13.9,18.457S1549.031,216.876,1534.318,207.956Z" transform="translate(-1484.061 -207.956)" fill="#fff" stroke="#000" stroke-miterlimit="10" stroke-width="0.25"/>
      <path id="Path_15356" data-name="Path 15356" d="M1516.128,223.851s-8.215,3.958-8.948,11.645c0,0,2.681,9.389,16.611,15.98,0,0,7.348-6.458,5.783-10.831C1527.524,234.92,1516.128,223.851,1516.128,223.851Z" transform="translate(-1485.944 -202.818)" fill="#fff" stroke="#000" stroke-miterlimit="10" stroke-width="0.25"/>
    </g>
    <path id="Path_15357" data-name="Path 15357" d="M1517.331,359.172c-5-42.771-1.768-112.443,14.946-148.545l33.162-13s50.053,46.681,66.574,137.171c4.311,23.61,5.853,28.405,1.221,28.736S1518.875,372.389,1517.331,359.172Z" transform="translate(31.481 20.36)" fill="#ecb36f" stroke="#000" stroke-miterlimit="10" stroke-width="0.25"/>
    <path id="Path_15358" data-name="Path 15358" d="M1528.877,239.052c.441-.041,8.313,3.309,25.76-.818,0,0,8.847,36.05-10.685,36.288C1526.041,274.74,1528.877,239.052,1528.877,239.052Z" transform="translate(35.855 33.486)" fill="#ffeed6" stroke="#000" stroke-miterlimit="10" stroke-width="0.25"/>
    <g id="Group_3999" data-name="Group 3999" transform="translate(1441.606 243.564)">
      <path id="Path_15359" data-name="Path 15359" d="M1626.314,219.2c-.83-1.423-1.855-2.866-3.283-1.97L1435.79,351.263l2.751,6.026,187.571-134.116C1627.739,222.164,1627.342,220.963,1626.314,219.2Z" transform="translate(-1435.79 -216.957)" fill="#60472a" stroke="#000" stroke-miterlimit="10" stroke-width="0.25"/>
    </g>
    <path id="Path_15360" data-name="Path 15360" d="M1558.424,241.345s-.635,17.916-13.974,21.837c-12.55,3.688-15.861-6.259-17.344-8.928-1.867-3.358-9.22-3.568-12.268,2.735-3.265,6.753,1.425,22.249,14.617,28.986,18.589,9.493,61.725.56,59.879-47.311Z" transform="translate(31.046 33.625)" fill="#fff" stroke="#000" stroke-miterlimit="10" stroke-width="0.25"/>
    <g id="Group_4000" data-name="Group 4000" transform="translate(1539.871 134.649)">
      <path id="Path_15361" data-name="Path 15361" d="M1592.742,183.349c-4.5-14.465-20.741-7.859-29.035-25.286-4.524-9.5-12.9-28.932-33.672-21.921-18.853,6.362-12.206,41.324-17.82,51.818-4.908,9.174-3.287,27.535,24.27,27.011-.716,4.257-1.6,9.692-2.549,16.017a174.854,174.854,0,0,1,5.828,18.8c1.516,6.148,12.96,9.5,16.174-3.135,2.212-8.7,6.922-23.839,11.16-28.663-1.874-2.493-3.754-4.814-5.636-7.021C1591.449,203.144,1595.116,190.975,1592.742,183.349Z" transform="translate(-1510.049 -134.649)" fill="#fff" stroke="#000" stroke-miterlimit="10" stroke-width="0.25"/>
      <ellipse id="Ellipse_2779" data-name="Ellipse 2779" cx="1.531" cy="3.658" rx="1.531" ry="3.658" transform="matrix(0.986, -0.165, 0.165, 0.986, 19.552, 41.001)"/>
      <ellipse id="Ellipse_2780" data-name="Ellipse 2780" cx="1.531" cy="3.658" rx="1.531" ry="3.658" transform="matrix(0.986, -0.165, 0.165, 0.986, 28.76, 39.463)"/>
    </g>
    <path id="Path_15362" data-name="Path 15362" d="M1546.964,238.46s-1.5-19.373,7.5-32.761a8.269,8.269,0,0,1,13.558-.083,59.874,59.874,0,0,1,10.635,32.429Z" transform="translate(41.724 21.812)" fill="#fff" stroke="#000" stroke-miterlimit="10" stroke-width="0.25"/>
    <path id="Path_15363" data-name="Path 15363" d="M1547.795,245.727s13.09,4.638,31.383-1.194a21.621,21.621,0,0,0-.146-16.461c-13.82-4.927-31.686.627-31.686.627S1542.761,235.244,1547.795,245.727Z" transform="translate(41.26 29.542)" fill="#fff" stroke="#000" stroke-miterlimit="10" stroke-width="0.25"/>
    <path id="Path_15364" data-name="Path 15364" d="M1431.986,303.115l44.475,24.175-37.146,80.767-20.082-8.311S1411.491,364.182,1431.986,303.115Z" transform="translate(0 54.46)" fill="#ecb36f" stroke="#000" stroke-miterlimit="10" stroke-width="0.25"/>
    <circle id="Ellipse_2781" data-name="Ellipse 2781" cx="3.47" cy="3.47" r="3.47" transform="translate(1440.756 375.899)" fill="#ffeed6" stroke="#000" stroke-miterlimit="10" stroke-width="0.25"/>
    <g id="Group_4001" data-name="Group 4001" transform="translate(1628.219 441.371)">
      <path id="Path_15365" data-name="Path 15365" d="M1713.216,459.2a5.1,5.1,0,0,0,.725-9.864h0l4.766-2.24a5.105,5.105,0,0,0-1.008-9.591l-5.122-1.2,4.4-2.607a5.105,5.105,0,0,0-1.954-9.455l-5.065-.65,3.855-2.915a5.105,5.105,0,0,0-3.059-9.177l-4.825-.019,3.119-3.123a5.1,5.1,0,0,0-4.381-8.653l-4.35.662,2.239-3.194a5.105,5.105,0,0,0-5.9-7.737l-3.662,1.309,1.367-3.222a5.1,5.1,0,0,0-7.441-6.3l-2.947,1.876.594-3.459a5.1,5.1,0,0,0-8.685-4.428l-2.456,2.517-.205-3.918a5.1,5.1,0,0,0-9.407-2.467l-2.109,3.327-1.072-4.346a5.1,5.1,0,0,0-9.664-.748l-1.734,4.144-1.725-4.133a5.1,5.1,0,0,0-9.665.746l-1.068,4.332-2.112-3.331a5.1,5.1,0,0,0-9.409,2.464l-.206,3.926-2.456-2.517a5.1,5.1,0,0,0-8.683,4.428l.593,3.458-2.948-1.879a5.1,5.1,0,0,0-7.441,6.3l1.367,3.225-3.653-1.307a5.1,5.1,0,0,0-5.9,7.735l2.235,3.189-4.346-.663a5.1,5.1,0,0,0-4.383,8.651l3.116,3.122-4.826.019a5.1,5.1,0,0,0-3.061,9.174l3.856,2.916-5.078.652a5.1,5.1,0,0,0-1.955,9.452l4.407,2.613-5.14,1.206a5.1,5.1,0,0,0-1.007,9.588l4.781,2.248h0a5.1,5.1,0,0,0,.725,9.862,290.212,290.212,0,0,0,63.975,6.992C1676.39,466.189,1713.216,459.2,1713.216,459.2Z" transform="translate(-1576.814 -366.44)" fill="#cbd13a" stroke="#000" stroke-miterlimit="10" stroke-width="0.25"/>
      <path id="Path_15366" data-name="Path 15366" d="M1644.832,397.593s2.662-7.111,6.676-4.649,0,8.478,0,8.478" transform="translate(-1554.827 -358.04)" fill="none" stroke="#000" stroke-miterlimit="10" stroke-width="0.25"/>
    </g>
  </g>
</svg>
