<svg xmlns="http://www.w3.org/2000/svg" width="352.882" height="438.432" viewBox="0 0 352.882 438.432">
  <g id="Group_3974" data-name="Group 3974" transform="translate(0.148 0.02)">
    <g id="Group_3212" data-name="Group 3212">
      <g id="Group_3206" data-name="Group 3206" transform="translate(251.607 251.571)">
        <path id="Path_10419" data-name="Path 10419" d="M1022.972,969.688c4.739,10.331,5.01,26.7,5.01,26.7l-15.92-13.851c-7.63,9.482-14.907,19.567-21.45,29.612,14.833,17.907,13.6,44.055,13.6,44.055l-24.809-25.634c-16.073,28.481-18.435,56.568-8.155,59.693,12.279,3.733,41.243-4.028,61.707-49.437,22.553-50.041,33.054-106.216,33.054-106.216C1052.615,940.483,1037.487,953.538,1022.972,969.688Z" transform="translate(-965.053 -934.611)" fill="#f2a100" stroke="#000" stroke-miterlimit="10" stroke-width="0.25"/>
      </g>
      <g id="Group_3207" data-name="Group 3207" transform="translate(68.029 209.726)">
        <path id="Path_10420" data-name="Path 10420" d="M868.549,960.829c8.664,1.981,16.985,10.285,16.985,10.285l-18.763,4.172a294.259,294.259,0,0,0-1.336,30.681c19.961-1.29,32.011,13.162,32.011,13.162l-31.245,4.4c2.117,26.257,14.284,42.523,23.514,36.81,11.024-6.827,28.811-31.529,21.577-69.705C903.32,948.556,883.3,911.9,883.3,911.9,876.207,924.512,871.383,942.085,868.549,960.829Z" transform="translate(-865.422 -911.901)" fill="#f7ddc4" stroke="#000" stroke-miterlimit="10" stroke-width="0.25"/>
      </g>
      <g id="Group_3208" data-name="Group 3208" transform="translate(214.52 185.264)">
        <path id="Path_10421" data-name="Path 10421" d="M1006.31,898.625c-8.53,10.875-17.271,25.772-25.467,42.691,5.445,5.047,12.543,13.3,19.775,26.417,0,0-15.084-6.554-27.442-9.635-4.654,10.8-9.021,22.095-12.944,33.467,9.615,5.25,30.622,18.542,40.386,38.916,0,0-27.626-8.163-50.128-6.992-12.286,46.617-3.26,88.349,17.562,92.347,30.124,5.788,44.644-23.469,53.161-79.43S1006.31,898.625,1006.31,898.625Z" transform="translate(-944.925 -898.625)" fill="#008555" stroke="#000" stroke-miterlimit="10" stroke-width="0.25"/>
      </g>
      <g id="Group_3209" data-name="Group 3209" transform="translate(0 271.895)">
        <path id="Path_10422" data-name="Path 10422" d="M848.71,997.359c11.288-1.347,26.952,3.409,26.952,3.409L857.6,1011.68c6.689,10.169,14.061,20.184,21.619,29.489,21.59-8.634,46.105.545,46.105.545l-32,15.763c22.19,24.026,48.2,34.877,54.327,26.047,7.315-10.547,8.8-40.495-28.16-73.883-40.731-36.8-90.987-64-90.987-64C829.987,960.2,837.781,978.594,848.71,997.359Z" transform="translate(-828.502 -945.641)" fill="#008555" stroke="#000" stroke-miterlimit="10" stroke-width="0.25"/>
      </g>
      <path id="Path_10423" data-name="Path 10423" d="M904.13,1023.165v9.63s-8.325,4.951-6.887,7.98c2.515,5.305,24.331-8.866,24.331-8.866v-12.362Z" transform="translate(-770.722 -611.474)" fill="#fff" stroke="#000" stroke-miterlimit="10" stroke-width="0.25"/>
      <path id="Path_10424" data-name="Path 10424" d="M941.773,1025.745v10.033s-9.659,7.91-6.532,10.8,27.21-12.638,27.21-12.638V1022.9Z" transform="translate(-739.089 -608.648)" fill="#fff" stroke="#000" stroke-miterlimit="10" stroke-width="0.25"/>
      <path id="Path_10425" data-name="Path 10425" d="M883.038,995.354s4.2,26.393,21.728,42.083c18.15,16.245,39.43,11.677,44.521,0a36.467,36.467,0,0,0,1.647-23Z" transform="translate(-782.55 -631.858)" fill="#f7ddc4" stroke="#000" stroke-miterlimit="10" stroke-width="0.25"/>
      <path id="Path_10426" data-name="Path 10426" d="M1008.458,1008.96s-5.248,32.2-32.973,37.919c-30.276,6.241-47.521-9.884-58.11-28.063l24.748-20.764h60.885Z" transform="translate(-753.618 -629.585)" fill="#f7ddc4" stroke="#000" stroke-miterlimit="10" stroke-width="0.25"/>
      <path id="Path_10427" data-name="Path 10427" d="M929.928,858.912a158.516,158.516,0,0,0-19.386,36.268c-8.225,21.643-15.712,50.975-15.712,50.975s61.091,34.539,87.457-4.043c0,0,5.961-39.4-28.754-85.408Z" transform="translate(-772.614 -748.683)" fill="#f7ddc4" stroke="#000" stroke-miterlimit="10" stroke-width="0.25"/>
      <path id="Path_10428" data-name="Path 10428" d="M906.83,911.694s18.046-8.716,27.985-40.522l-6.429,79.357L914.445,937.9l-20.169-20.173Z" transform="translate(-773.081 -736.493)" fill="#e84130" stroke="#000" stroke-miterlimit="10" stroke-width="0.25"/>
      <g id="Group_3210" data-name="Group 3210" transform="translate(92.445 193.43)">
        <path id="Path_10429" data-name="Path 10429" d="M942.532,915.394a75.453,75.453,0,0,1-29.434-8.85s-15.277,47.285-25.962,80.787c-6.368,19.965-20.222,75.8,12.128,93.7,9.839,5.443,26.036,10.466,44.279,13.8l0,0C932.495,1076.44,941.223,935.5,942.532,915.394Z" transform="translate(-878.673 -900.119)" fill="#e84130" stroke="#000" stroke-miterlimit="10" stroke-width="0.25"/>
        <path id="Path_10430" data-name="Path 10430" d="M962.941,903.057c-14.822,10.772-29.362,14.809-42.022,15.507-3.41,75.814-5.736,152.053,2.417,180.077a2.789,2.789,0,0,1,.028,1.13c39.039,5.122,82.62,1.809,93.2-21.116C1033.464,1042.049,974.558,945.993,962.941,903.057Z" transform="translate(-845.713 -903.057)" fill="#e84130" stroke="#000" stroke-miterlimit="10" stroke-width="0.25"/>
        <path id="Path_10431" data-name="Path 10431" d="M924.677,913.777q.114-2.518.227-5.038l-11.415,2.4s-.057.857-.158,2.41A75.532,75.532,0,0,0,924.677,913.777Z" transform="translate(-849.472 -898.269)" fill="#e84130" stroke="#000" stroke-miterlimit="10" stroke-width="0.25"/>
        <path id="Path_10432" data-name="Path 10432" d="M929.156,1091.656c-8.153-28.024-5.828-104.263-2.417-180.077a75.518,75.518,0,0,1-11.347-.232c-1.308,20.11-10.037,161.047,1.01,179.43l0,0c4.172.761,8.445,1.435,12.78,2A2.786,2.786,0,0,0,929.156,1091.656Z" transform="translate(-851.534 -896.072)" fill="#f7ddc4" stroke="#000" stroke-miterlimit="10" stroke-width="0.25"/>
      </g>
      <path id="Path_10433" data-name="Path 10433" d="M919.611,935.777l3.525-64.605s7.654,35.533,22.559,41.551l-2.279,12.987L921.8,942.235Z" transform="translate(-751.734 -736.493)" fill="#e84130" stroke="#000" stroke-miterlimit="10" stroke-width="0.25"/>
      <path id="Path_10434" data-name="Path 10434" d="M948.335,798.08s-.05,17.254-22.8,47.454c-12.183,16.171-23.2,34.853-15.561,52.389,6.547,15.025,28.874,20.005,41.252-1.649,12.141-21.238-2.475-45.378,5.775-68.891l-9.487,15.264S951.635,818.691,948.335,798.08Z" transform="translate(-761.984 -798.08)" fill="#fff" stroke="#000" stroke-miterlimit="10" stroke-width="0.25"/>
      <ellipse id="Ellipse_1721" data-name="Ellipse 1721" cx="1.629" cy="4.234" rx="1.629" ry="4.234" transform="translate(158.227 85.945)" stroke="#000" stroke-miterlimit="10" stroke-width="0.25"/>
      <ellipse id="Ellipse_1722" data-name="Ellipse 1722" cx="1.629" cy="4.234" rx="1.629" ry="4.234" transform="translate(168.438 85.945)" stroke="#000" stroke-miterlimit="10" stroke-width="0.25"/>
      <path id="Path_10435" data-name="Path 10435" d="M913.071,877.586s-10.289,7.162-18.017,29.614c-8.174,23.744-1.638,50.406,29.109,55.427,30.418,4.968,38.3-25.428,27.256-25.8-10.064-.334-26.513,1.422-36.916-12.312C902.762,909.019,913.071,877.586,913.071,877.586Z" transform="translate(-775.144 -731.089)" fill="#f2a100" stroke="#000" stroke-miterlimit="10" stroke-width="0.25"/>
      <g id="Group_3211" data-name="Group 3211" transform="translate(139.359 152.885)">
        <circle id="Ellipse_1723" data-name="Ellipse 1723" cx="7.975" cy="7.975" r="7.975" transform="translate(0 54.375)" fill="#fff" stroke="#000" stroke-miterlimit="10" stroke-width="0.25"/>
        <path id="Path_10436" data-name="Path 10436" d="M966.632,881.462c5.57,2.029,9.725,38.239-4.746,58.967s-43.589,24.663-50.513,12.227c-6.222-11.173,1.183-22.666,14.8-24.971,16.563-2.8,24.123-7.5,28.958-26.808C957.257,892.391,958.472,878.49,966.632,881.462Z" transform="translate(-899.912 -881.053)" fill="#f2a100" stroke="#000" stroke-miterlimit="10" stroke-width="0.25"/>
      </g>
    </g>
    <g id="Group_3215" data-name="Group 3215" transform="translate(169.781 44.532)">
      <g id="Group_3214" data-name="Group 3214">
        <path id="Path_10437" data-name="Path 10437" d="M920.749,923.6a193.516,193.516,0,0,0,.42,20.724" transform="translate(-920.644 -736.851)" fill="none" stroke="#000" stroke-miterlimit="10" stroke-width="0.25"/>
        <path id="Path_10438" data-name="Path 10438" d="M960.87,843.712s-30.591,50.6-38.318,113.777" transform="translate(-919.038 -804.163)" fill="none" stroke="#000" stroke-miterlimit="10" stroke-width="0.25"/>
        <g id="Group_3213" data-name="Group 3213" transform="translate(41.283)">
          <path id="Path_10439" data-name="Path 10439" d="M963.587,822.248s-.929,10.845-9.484,12.192C954.1,834.44,953.589,825.836,963.587,822.248Z" transform="translate(-933.739 -822.248)" fill="#f7ddc4" stroke="#000" stroke-miterlimit="10" stroke-width="0.25"/>
          <path id="Path_10440" data-name="Path 10440" d="M966.851,827.157s-3.884,9.345-16.432,9.985C950.419,837.142,953.415,824.515,966.851,827.157Z" transform="translate(-936.84 -818.418)" fill="#f7ddc4" stroke="#000" stroke-miterlimit="10" stroke-width="0.25"/>
          <path id="Path_10441" data-name="Path 10441" d="M958.3,822.843s2.48,16.508-5.977,19.727C952.32,842.57,947.7,831.908,958.3,822.843Z" transform="translate(-936.081 -821.747)" fill="#f7ddc4" stroke="#000" stroke-miterlimit="10" stroke-width="0.25"/>
          <path id="Path_10442" data-name="Path 10442" d="M967.912,830.558S963.4,845.695,946.8,846.73C946.8,846.73,948.308,829.974,967.912,830.558Z" transform="translate(-939.888 -815.259)" fill="#f7ddc4" stroke="#000" stroke-miterlimit="10" stroke-width="0.25"/>
          <path id="Path_10443" data-name="Path 10443" d="M956.086,826.3s-12.834,6.046-8.164,24.632C947.922,850.929,961.126,847.29,956.086,826.3Z" transform="translate(-939.806 -818.836)" fill="#f7ddc4" stroke="#000" stroke-miterlimit="10" stroke-width="0.25"/>
          <path id="Path_10444" data-name="Path 10444" d="M950.41,830.355s6.567,17.888-5.533,24.8C944.877,855.158,938.186,843.272,950.41,830.355Z" transform="translate(-943.049 -815.417)" fill="#f7ddc4" stroke="#000" stroke-miterlimit="10" stroke-width="0.25"/>
          <path id="Path_10445" data-name="Path 10445" d="M967.179,836.462s-7.348,15.616-23.84,13.833C943.339,850.294,944.675,834.868,967.179,836.462Z" transform="translate(-942.805 -810.369)" fill="#f7ddc4" stroke="#000" stroke-miterlimit="10" stroke-width="0.25"/>
        </g>
      </g>
      <path id="Path_10446" data-name="Path 10446" d="M997.648,838.354s-39.028,14.127-65.613,54.578" transform="translate(-911.047 -808.677)" fill="none" stroke="#000" stroke-miterlimit="10" stroke-width="0.25"/>
      <path id="Path_10447" data-name="Path 10447" d="M929.681,901.412s28.743-40,76.729-58.663" transform="translate(-913.03 -804.974)" fill="none" stroke="#000" stroke-miterlimit="10" stroke-width="0.25"/>
    </g>
    <g id="Group_3217" data-name="Group 3217" transform="translate(174.41 86.515)">
      <g id="Group_3216" data-name="Group 3216" transform="translate(44.75)">
        <path id="Path_10448" data-name="Path 10448" d="M972.562,845.033s-11.465,3.1-11.988,11.269C960.574,856.3,970.038,856.293,972.562,845.033Z" transform="translate(-936.379 -845.033)" fill="#f7ddc4" stroke="#000" stroke-miterlimit="10" stroke-width="0.25"/>
        <path id="Path_10449" data-name="Path 10449" d="M967.417,845.452S953.64,854.3,956.5,866.067C956.5,866.067,969.359,860.412,967.417,845.452Z" transform="translate(-940.143 -844.68)" fill="#f7ddc4" stroke="#000" stroke-miterlimit="10" stroke-width="0.25"/>
        <path id="Path_10450" data-name="Path 10450" d="M976.263,849.819a22.35,22.35,0,0,0-21.042,10.8S968.982,862.231,976.263,849.819Z" transform="translate(-940.889 -841.078)" fill="#f7ddc4" stroke="#000" stroke-miterlimit="10" stroke-width="0.25"/>
        <path id="Path_10451" data-name="Path 10451" d="M963.254,848.119S946.29,855.86,950.946,870.9C950.946,870.9,966.33,866.569,963.254,848.119Z" transform="translate(-945.173 -842.433)" fill="#f7ddc4" stroke="#000" stroke-miterlimit="10" stroke-width="0.25"/>
        <path id="Path_10452" data-name="Path 10452" d="M976.918,853.694s-19.349-2.581-26.563,11.124C950.355,864.818,964.991,870.532,976.918,853.694Z" transform="translate(-944.989 -837.898)" fill="#f7ddc4" stroke="#000" stroke-miterlimit="10" stroke-width="0.25"/>
        <path id="Path_10453" data-name="Path 10453" d="M954.817,850.44s-12.362,10.72-5.075,21.949C949.743,872.389,961.657,864.954,954.817,850.44Z" transform="translate(-947.443 -840.477)" fill="#f7ddc4" stroke="#000" stroke-miterlimit="10" stroke-width="0.25"/>
        <path id="Path_10454" data-name="Path 10454" d="M970.227,859.509s-16.182-6.263-21.536,6.53C948.691,866.039,958.527,872.652,970.227,859.509Z" transform="translate(-946.391 -834.127)" fill="#f7ddc4" stroke="#000" stroke-miterlimit="10" stroke-width="0.25"/>
      </g>
      <path id="Path_10455" data-name="Path 10455" d="M923.167,923.172a167.675,167.675,0,0,0,1.856,26.629" transform="translate(-923.157 -779.193)" fill="none" stroke="#000" stroke-miterlimit="10" stroke-width="0.25"/>
      <path id="Path_10456" data-name="Path 10456" d="M968.3,862.352s-31.378,28.293-42.884,77.575" transform="translate(-921.252 -830.44)" fill="none" stroke="#000" stroke-miterlimit="10" stroke-width="0.25"/>
      <path id="Path_10457" data-name="Path 10457" d="M1005.711,865.594s-52.974,17.287-77.385,53.529" transform="translate(-918.801 -827.708)" fill="none" stroke="#000" stroke-miterlimit="10" stroke-width="0.25"/>
      <path id="Path_10458" data-name="Path 10458" d="M996.808,860.615s-40.366,14.741-65.97,51.259" transform="translate(-916.684 -831.904)" fill="none" stroke="#000" stroke-miterlimit="10" stroke-width="0.25"/>
    </g>
  </g>
</svg>
