<svg xmlns="http://www.w3.org/2000/svg" width="444.867" height="414.08" viewBox="0 0 444.867 414.08">
  <g id="Group_3988" data-name="Group 3988" transform="translate(-504.029 -164.692)">
    <g id="Group_3988-2" data-name="Group 3988" transform="translate(747.256 407.96)">
      <path id="Path_15304" data-name="Path 15304" d="M745.314,342.135s21.9,30.359,15.373,54.039-32.84,14.484-28.656,37.743-17.317,16.714-24.012,43.133C708.019,477.051,720.591,381.342,745.314,342.135Z" transform="translate(-661.616 -320.374)" fill="#ff6c5c" stroke="#000" stroke-linejoin="round" stroke-width="0.25"/>
      <path id="Path_15305" data-name="Path 15305" d="M686.438,373.931S680.6,382.913,677.4,397.8s12.064,19.678,18.467,21.413,16.556,6.859,15.222,19.151,13.226,13.9,12.2,22.986C723.287,461.345,726.765,412,686.438,373.931Z" transform="translate(-676.958 -304.668)" fill="#ff6c5c" stroke="#000" stroke-linejoin="round" stroke-width="0.25"/>
      <path id="Path_15306" data-name="Path 15306" d="M863.155,327.569s-.587,49.114-22.444,73.268c-20.289,22.423-35.813,1.745-48.637,19.4s-.589,49.445-30.166,45.745-45.957,7.229-53.939,18.262C707.969,484.246,766.925,371.744,863.155,327.569Z" transform="translate(-661.641 -327.569)" fill="#ff6c5c" stroke="#000" stroke-linejoin="round" stroke-width="0.25"/>
    </g>
    <g id="Group_3989" data-name="Group 3989" transform="translate(504.154 417.985)">
      <path id="Path_15307" data-name="Path 15307" d="M494.154,334.279s4.539,44.55,22.666,59.01,35.29,8.254,42.761,29.223,1.986,34.851,23.088,39.133S616.282,468.1,625.06,485C625.06,485,585.258,386.445,494.154,334.279Z" transform="translate(-494.154 -334.279)" fill="#ff6c5c" stroke="#000" stroke-linejoin="round" stroke-width="0.25"/>
      <path id="Path_15308" data-name="Path 15308" d="M556.333,351.571s-12.134,20.823-5.809,40.549c5.93,18.492,18.181,24.637,27.076,30.263s-2.994,19.273,9.023,34.663,11.493,19.408,11.493,19.408S596.4,385.236,556.333,351.571Z" transform="translate(-467.212 -325.738)" fill="#ff6c5c" stroke="#000" stroke-linejoin="round" stroke-width="0.25"/>
      <path id="Path_15309" data-name="Path 15309" d="M615.7,354.608s9.821,15.679,11.478,32.32-11.067,19.088-22.149,31.684-.424,15.141-7.622,28.431-16.552,12.539-15.093,27.91C582.317,474.953,569.505,411.323,615.7,354.608Z" transform="translate(-451.411 -324.237)" fill="#ff6c5c" stroke="#000" stroke-linejoin="round" stroke-width="0.25"/>
    </g>
    <g id="Group_3993" data-name="Group 3993" transform="translate(596.499 164.819)">
      <g id="Group_3990" data-name="Group 3990" transform="translate(35.297 320.371)">
        <path id="Path_15310" data-name="Path 15310" d="M607.159,379.674s8.28,16.067,7.984,29.873h28.185V390.136A46.089,46.089,0,0,0,607.159,379.674Z" transform="translate(-575.976 -379.26)" fill="#006781" stroke="#000" stroke-linejoin="round" stroke-width="0.25"/>
        <path id="Path_15311" data-name="Path 15311" d="M647.114,397.06s-19.557.158-28.795,0a51.014,51.014,0,0,0-18.825,4.707c4.373,2.071,15.781,8.516,20.074,20.942,8.518-.486,17.908-1.253,27.546-2.45A168.443,168.443,0,0,0,647.114,397.06Z" transform="translate(-579.762 -370.474)" fill="#ffeed6" stroke="#000" stroke-linejoin="round" stroke-width="0.25"/>
        <path id="Path_15312" data-name="Path 15312" d="M605.324,400.211c-7.582,3.645-15.129,10.105-17.632,21.58,0,0,16.023.6,37.706-.638C621.1,408.727,609.7,402.282,605.324,400.211Z" transform="translate(-585.592 -368.917)" fill="#fff" stroke="#000" stroke-linejoin="round" stroke-width="0.25"/>
        <path id="Path_15313" data-name="Path 15313" d="M588.386,415.677s-3.687,3.081-1.291,9.939c4.383.553,14.051.568,22.2.049,10.8-.687,24.546-1.052,33.178-2,7.55-.829,12.658-.533,11.163-11.078Z" transform="translate(-586.286 -362.803)" fill="#006781" stroke="#000" stroke-linejoin="round" stroke-width="0.25"/>
        <path id="Path_15314" data-name="Path 15314" d="M612.7,388.991a18.024,18.024,0,0,1,3.031,8.447" transform="translate(-573.238 -374.459)" fill="none" stroke="#000" stroke-linejoin="round" stroke-width="0.25"/>
        <path id="Path_15315" data-name="Path 15315" d="M616.18,389.475a19.5,19.5,0,0,1,1.588,7.724" transform="translate(-571.52 -374.22)" fill="none" stroke="#000" stroke-linejoin="round" stroke-width="0.25"/>
        <path id="Path_15316" data-name="Path 15316" d="M619.852,390.3a18.7,18.7,0,0,1,.65,6.5" transform="translate(-569.706 -373.815)" fill="none" stroke="#000" stroke-linejoin="round" stroke-width="0.25"/>
        <path id="Path_15317" data-name="Path 15317" d="M624.591,390.3a32.7,32.7,0,0,0-.217,6.5" transform="translate(-567.516 -373.815)" fill="none" stroke="#000" stroke-linejoin="round" stroke-width="0.25"/>
        <path id="Path_15318" data-name="Path 15318" d="M628.935,390.3a15.765,15.765,0,0,0-1.155,6.5" transform="translate(-565.796 -373.815)" fill="none" stroke="#000" stroke-linejoin="round" stroke-width="0.25"/>
        <path id="Path_15319" data-name="Path 15319" d="M691.987,379.666s-8.663,18.365-8.029,29.9H655.774V390.152A46.2,46.2,0,0,1,691.987,379.666Z" transform="translate(-551.962 -379.264)" fill="#006781" stroke="#000" stroke-linejoin="round" stroke-width="0.25"/>
        <path id="Path_15320" data-name="Path 15320" d="M711.743,421.935c-2.6-11.914-10.636-18.426-18.5-21.991-3.883,1.616-13.7,6.992-18.676,21.381C695.977,422.521,711.743,421.935,711.743,421.935Z" transform="translate(-542.681 -369.049)" fill="#fff" stroke="#000" stroke-linejoin="round" stroke-width="0.25"/>
        <path id="Path_15321" data-name="Path 15321" d="M702.659,401.365a51.137,51.137,0,0,0-17.953-4.3c-9.236.16-28.793,0-28.793,0a168.448,168.448,0,0,0,0,23.2c9.836,1.222,19.412,2,28.07,2.479C688.961,408.356,698.776,402.981,702.659,401.365Z" transform="translate(-552.101 -370.47)" fill="#ffeed6" stroke="#000" stroke-linejoin="round" stroke-width="0.25"/>
        <path id="Path_15322" data-name="Path 15322" d="M721.11,415.685s3.687,3.081,1.291,9.939c-4.382.553-14.049.568-22.2.049-10.8-.687-24.546-1.052-33.179-2-7.549-.828-12.658-.533-11.161-11.078Z" transform="translate(-552.048 -362.799)" fill="#006781" stroke="#000" stroke-linejoin="round" stroke-width="0.25"/>
        <path id="Path_15323" data-name="Path 15323" d="M675.445,389a18.023,18.023,0,0,0-3.033,8.445" transform="translate(-543.744 -374.455)" fill="none" stroke="#000" stroke-linejoin="round" stroke-width="0.25"/>
        <path id="Path_15324" data-name="Path 15324" d="M671.494,389.483a19.485,19.485,0,0,0-1.588,7.724" transform="translate(-544.991 -374.216)" fill="none" stroke="#000" stroke-linejoin="round" stroke-width="0.25"/>
        <path id="Path_15325" data-name="Path 15325" d="M667.517,390.3a18.7,18.7,0,0,0-.65,6.5" transform="translate(-546.5 -373.811)" fill="none" stroke="#000" stroke-linejoin="round" stroke-width="0.25"/>
        <path id="Path_15326" data-name="Path 15326" d="M662.652,390.3a32.693,32.693,0,0,1,.217,6.5" transform="translate(-548.565 -373.811)" fill="none" stroke="#000" stroke-linejoin="round" stroke-width="0.25"/>
        <path id="Path_15327" data-name="Path 15327" d="M658.594,390.3a15.765,15.765,0,0,1,1.155,6.5" transform="translate(-550.569 -373.811)" fill="none" stroke="#000" stroke-linejoin="round" stroke-width="0.25"/>
      </g>
      <circle id="Ellipse_2763" data-name="Ellipse 2763" cx="22.672" cy="22.672" r="22.672" transform="translate(96.041 34.994)" fill="#fff" stroke="#000" stroke-linejoin="round" stroke-width="0.25"/>
      <path id="Path_15328" data-name="Path 15328" d="M694.61,170.771c-6.334-8.1-21.519-8.2-31.98,1.37-.143.131-.3.245-.451.366a6.615,6.615,0,0,0-.639-.672c-3.436-3.1-9.515-1.971-13.582,2.529-2.747,3.042-3.865,6.841-3.245,9.944-3.9-1.527-9.739-.762-15.2,2.39-7.664,4.424-11.659,11.855-8.923,16.593,2.5,4.324,9.73,4.9,16.8,1.616a8.043,8.043,0,0,0,2.505,4.9c4,3.615,11.127,2.245,15.918-3.057.3-.336.59-.681.861-1.031,7.183,4.891,19.144,3.381,28.893-4.243C696.9,192.62,700.944,178.873,694.61,170.771Z" transform="translate(-534.469 -164.819)" fill="#006781" stroke="#000" stroke-linejoin="round" stroke-width="0.25"/>
      <path id="Path_15329" data-name="Path 15329" d="M629.125,242.165l-7.736-27.236s29.167-9.884,61.947,0l-9.883,27.236" transform="translate(-533.65 -142.237)" fill="#bad5dd" stroke="#000" stroke-linejoin="round" stroke-width="0.25"/>
      <circle id="Ellipse_2764" data-name="Ellipse 2764" cx="2.392" cy="2.392" r="2.392" transform="translate(134.947 75.238)" fill="#ffeed6" stroke="#000" stroke-linejoin="round" stroke-width="0.25"/>
      <ellipse id="Ellipse_2765" data-name="Ellipse 2765" cx="0.984" cy="2.376" rx="0.984" ry="2.376" transform="translate(126.103 52.914)"/>
      <ellipse id="Ellipse_2766" data-name="Ellipse 2766" cx="0.984" cy="2.376" rx="0.984" ry="2.376" transform="translate(132.571 52.914)"/>
      <circle id="Ellipse_2767" data-name="Ellipse 2767" cx="120.927" cy="120.927" r="120.927" transform="translate(0 93.334)" fill="#ffeed6" stroke="#000" stroke-linejoin="round" stroke-width="0.25"/>
      <g id="Group_3991" data-name="Group 3991" transform="translate(105.558 231.22)">
        <path id="Path_15330" data-name="Path 15330" d="M700.457,347.017a102.376,102.376,0,0,1-17.316,41.23c-10.774,14.854-31.017,16.075-40.791,5.6s-15.1-35.5,2.577-63.883Z" transform="translate(-633.317 -314.464)" fill="#bad5dd" stroke="#000" stroke-linejoin="round" stroke-width="0.25"/>
        <path id="Path_15331" data-name="Path 15331" d="M660.714,356.034s-3.033,6.884-9.264,8.13" transform="translate(-624.36 -301.587)" fill="none" stroke="#000" stroke-linejoin="round" stroke-width="0.25"/>
        <path id="Path_15332" data-name="Path 15332" d="M643.68,345.592s-6.293,14.518,1.117,29.64" transform="translate(-629.429 -306.745)" fill="none" stroke="#000" stroke-linejoin="round" stroke-width="0.25"/>
        <path id="Path_15333" data-name="Path 15333" d="M698.973,348.506c2.749-13.053-5.4-20.246-26.416-26.223s-29.7-1.319-32.588,7.246,3.472,18.4,26.225,25.34S697.431,355.834,698.973,348.506Z" transform="translate(-630.353 -319.589)" fill="#006781" stroke="#000" stroke-linejoin="round" stroke-width="0.25"/>
        <circle id="Ellipse_2768" data-name="Ellipse 2768" cx="2.731" cy="2.731" r="2.731" transform="translate(19.88 5.361)" fill="#ffeed6" stroke="#000" stroke-linejoin="round" stroke-width="0.25"/>
        <circle id="Ellipse_2769" data-name="Ellipse 2769" cx="2.731" cy="2.731" r="2.731" transform="translate(18.852 15.559)" fill="#ffeed6" stroke="#000" stroke-linejoin="round" stroke-width="0.25"/>
      </g>
      <circle id="Ellipse_2770" data-name="Ellipse 2770" cx="2.392" cy="2.392" r="2.392" transform="translate(133.243 82.78)" fill="#ffeed6" stroke="#000" stroke-linejoin="round" stroke-width="0.25"/>
      <path id="Path_15334" data-name="Path 15334" d="M626.068,351.853s6.947,10.467,17.972,14.816c12.551,4.949,28.866-7.265,18.411-21.622,0,0,1.234-10.637-16.577-11.093l-7.313,1.065Z" transform="translate(-531.339 -81.274)" fill="#fbc6a6" stroke="#000" stroke-linejoin="round" stroke-width="0.25"/>
      <path id="Path_15335" data-name="Path 15335" d="M646.02,338.889s3.569-.372,6.576,3.724" transform="translate(-521.484 -78.841)" fill="none" stroke="#000" stroke-linejoin="round" stroke-width="0.25"/>
      <g id="Group_3992" data-name="Group 3992" transform="translate(4.209 372.607)">
        <path id="Path_15336" data-name="Path 15336" d="M566.851,414.269l.175-.024a1.768,1.768,0,0,1,1.927,1.215c.989,3.094,4.562,10.087,16.649,10.087H777.021c12.165,0,15.694-6.975,16.659-10.072a1.77,1.77,0,0,1,1.923-1.228h0a1.776,1.776,0,0,1,1.464,2.286c-1.615,5.2-7.153,12.546-20.046,12.546H585.6c-12.893,0-18.431-7.341-20.044-12.546a1.775,1.775,0,0,1,1.464-2.286" transform="translate(-565.477 -414.229)" fill="#ff6c5c" stroke="#000" stroke-linejoin="round" stroke-width="0.25"/>
      </g>
      <circle id="Ellipse_2771" data-name="Ellipse 2771" cx="13.186" cy="13.186" r="13.186" transform="translate(44.501 387.457)" fill="#fbc6a6" stroke="#000" stroke-linejoin="round" stroke-width="0.25"/>
      <circle id="Ellipse_2772" data-name="Ellipse 2772" cx="13.186" cy="13.186" r="13.186" transform="translate(177.928 387.457)" fill="#fbc6a6" stroke="#000" stroke-linejoin="round" stroke-width="0.25"/>
      <path id="Path_15337" data-name="Path 15337" d="M659.455,233.574S759.1,304.4,701.41,446.693" transform="translate(-514.847 -130.857)" fill="none" stroke="#000" stroke-linejoin="round" stroke-width="0.25"/>
      <path id="Path_15338" data-name="Path 15338" d="M650.055,169.965s-7.132,6.324-5.553,13.3" transform="translate(-522.346 -162.277)" fill="none" stroke="#000" stroke-linejoin="round" stroke-width="0.25"/>
      <path id="Path_15339" data-name="Path 15339" d="M652.717,276.443a21.115,21.115,0,0,0,1.482-3.823l.022-.061h0A21.18,21.18,0,0,0,613.7,260.238s-12.255,26.494-21.721,52.605,15.343,64.306,43.414,82.586l19.586-21.87s-16.571-17.181-21.18-34.867C629.5,322.166,645,295.425,652.717,276.443Z" transform="translate(-549.189 -124.85)" fill="#ffeed6" stroke="#000" stroke-linejoin="round" stroke-width="0.25"/>
      <rect id="Rectangle_212" data-name="Rectangle 212" width="41.711" height="18.542" rx="4.09" transform="translate(76.433 270.389) rotate(-48.485)" fill="#006781" stroke="#000" stroke-linejoin="round" stroke-width="0.25"/>
    </g>
  </g>
</svg>
