<svg xmlns="http://www.w3.org/2000/svg" xmlns:xlink="http://www.w3.org/1999/xlink" width="321.744" height="366.744" viewBox="0 0 321.744 366.744">
  <defs>
    <clipPath id="clip-path">
      <path id="Path_15506" data-name="Path 15506" d="M1555.371,915.761a89.207,89.207,0,0,0,10.76,14.565c6.6,7.2,10.2,18,11.4,22.2s7.2,3,26.4,3.6,39.6-1.2,46.8,4.8,2.4,7.2,15,7.8,23.4-.6,31.2-3,10.8-3.6,13.2-6-.6-11.4-1.2-24.6,1.2-30,1.2-30h-75Z" transform="translate(-1555.371 -905.127)" fill="none"/>
    </clipPath>
  </defs>
  <g id="Group_4055" data-name="Group 4055" transform="translate(-1446.388 -712.027)">
    <g id="Group_4057" data-name="Group 4057" transform="translate(1611.961 989.432)">
      <path id="Path_15500" data-name="Path 15500" d="M1555.371,915.761a89.207,89.207,0,0,0,10.76,14.565c6.6,7.2,10.2,18,11.4,22.2s7.2,3,26.4,3.6,39.6-1.2,46.8,4.8,2.4,7.2,15,7.8,23.4-.6,31.2-3,10.8-3.6,13.2-6-.6-11.4-1.2-24.6,1.2-30,1.2-30h-75Z" transform="translate(-1554.873 -888.139)" fill="#e54c17" stroke="#000" stroke-miterlimit="10" stroke-width="0.25"/>
      <g id="Group_4056" data-name="Group 4056" transform="translate(0.498 16.988)">
        <g id="Group_4055-2" data-name="Group 4055" clip-path="url(#clip-path)">
          <path id="Path_15501" data-name="Path 15501" d="M1624.377,907.861c-2.086,4.172,3.129,10.168,4.692,15.643s5.476,14.86,8.082,15.12,1.565-2.086.261-9.907a36.963,36.963,0,0,1,1.3-15.642l5.215,1.3a92.5,92.5,0,0,1-1.3,14.6c-1.3,7.039,3.649,9.907,3.649,23.2s6.258,21.377,6.258,21.377l-13.3-1.824s-7.039-9.907-7.039-16.946-.261-14.6-8.6-25.288-6.257-18.51-6.257-18.51Z" transform="translate(-1522.969 -903.692)" fill="#ed7235" stroke="#000" stroke-miterlimit="10" stroke-width="0.25"/>
          <path id="Path_15502" data-name="Path 15502" d="M1612.394,918.982c2.542-1.525,3.953,6.424,5.188,13.094s6.423,15.563,5.434,23.467-8.152,1.484-8.152,1.484.247-10.759-.741-22.056S1608.689,921.207,1612.394,918.982Z" transform="translate(-1526.203 -897.955)" fill="#ed7235" stroke="#000" stroke-miterlimit="10" stroke-width="0.25"/>
          <path id="Path_15503" data-name="Path 15503" d="M1592.1,914.892s4.95,11.278,6.79,28.3-1.531,22.88,3.4,31.976c0,0,8.5-8.423,9.123-10.572s-3.039-3.359-1.988-16.645A98.129,98.129,0,0,0,1603,904.793l-4,1.757s1.508,4.442,2.584,8.239,5.09,15.285,4.81,19.678.816,10.242-1.371,9.288-3.166-7.885-4.634-15.927-1.357-11.476-4.7-17.077Z" transform="translate(-1536.091 -905.302)" fill="#ed7235" stroke="#000" stroke-miterlimit="10" stroke-width="0.25"/>
          <path id="Path_15504" data-name="Path 15504" d="M1589.753,923.236s-1.725,8.378,4.867,21.827,12.658,23.734,10.813,40.348c0,0-8.005-1.847-7.827-3.956s2.22-10.285-8.163-32.173-13.283-30.59-13.811-47.2l13.713,5.275Z" transform="translate(-1544.736 -906.727)" fill="#ed7235" stroke="#000" stroke-miterlimit="10" stroke-width="0.25"/>
          <path id="Path_15505" data-name="Path 15505" d="M1638.887,902.163c0,1.583,2.9,15.56,8.966,29.273s7.385,19.777,9.494,16.613-3.428-9.23-3.955-21.1a72.288,72.288,0,0,0-3.428-19.779Z" transform="translate(-1511.537 -906.683)" fill="#ed7235" stroke="#000" stroke-miterlimit="10" stroke-width="0.25"/>
        </g>
      </g>
      <path id="Path_15507" data-name="Path 15507" d="M1555.047,918.847c-.144,5.326,5.855,10.127,15.456,8.926,16.117-2.014,15,.6,30.6,0s19.8-1.8,28.2-3,16.8-1.2,25.2-4.2,12,3,18,4.2,16.8,1.2,19.2-1.2,18-3,18.6-13.2-9.6-13.2-16.8-13.8-11.4-.6-15.6-1.8-15.6-1.2-20.4,1.2-22.8,6-34.8,7.8-21-.6-27.6-2.4S1555.545,900.326,1555.047,918.847Z" transform="translate(-1555.044 -893.986)" fill="#fee3c0" stroke="#000" stroke-miterlimit="10" stroke-width="0.25"/>
      <path id="Path_15508" data-name="Path 15508" d="M1643.156,912.771c4.588-.154,9.906.32,10.65-2.13s-4.9-3.62-10.65-3.727-9.158,1.278-8.733,3.408S1639.219,912.9,1643.156,912.771Z" transform="translate(-1513.401 -887.204)" fill="#fff" stroke="#000" stroke-miterlimit="10" stroke-width="0.25"/>
      <path id="Path_15509" data-name="Path 15509" d="M1643.416,902.959c.119,1.871,2.574,2.641,7.081,2.458,4.938-.2,6.764-2.328,6.359-3.905-.4-1.54-4.169-2.377-7.772-2.024S1643.3,901.221,1643.416,902.959Z" transform="translate(-1508.664 -891.14)" fill="#fff" stroke="#000" stroke-miterlimit="10" stroke-width="0.25"/>
    </g>
    <g id="Group_4060" data-name="Group 4060" transform="translate(1488.889 712.133)">
      <path id="Path_15510" data-name="Path 15510" d="M1569.786,946.324c-6.214,7.2-13.761,4.09-15.416,10.093s6.185,8.384,14.148,6.311a23.335,23.335,0,0,0,16.029-14.506l-6.048-21.107-19.1,1.42C1562.308,938.555,1569.786,946.324,1569.786,946.324Z" transform="translate(-1432.443 -599.299)" fill="#fff" stroke="#000" stroke-miterlimit="10" stroke-width="0.25"/>
      <path id="Path_15511" data-name="Path 15511" d="M1532.468,947.441c-6.807,6.234-16.031,4.643-16.42,8.777-.491,5.221,8.062,6.574,15.973,4.135,7.731-2.382,14.956-11.046,14.956-11.046l-4.732-21.9h-19.818C1525.636,937.955,1532.468,947.441,1532.468,947.441Z" transform="translate(-1452.45 -599.143)" fill="#fff" stroke="#000" stroke-miterlimit="10" stroke-width="0.25"/>
      <path id="Path_15512" data-name="Path 15512" d="M1532.952,785.441s-31.732,68.93-44.026,82.734l31.084-3.644Z" transform="translate(-1466.674 -673.657)" fill="#45805c" stroke="#000" stroke-miterlimit="10" stroke-width="0.25"/>
      <path id="Path_15513" data-name="Path 15513" d="M1643.777,858.835s13.6,36.485,0,65.6-142.372,15.314-147.549-17.472,13.8-48.132,13.8-48.132Z" transform="translate(-1463.312 -635.136)" fill="#ffba31" stroke="#000" stroke-miterlimit="10" stroke-width="0.25"/>
      <path id="Path_15514" data-name="Path 15514" d="M1595.572,858.835s17.8,57.938-27.048,80.86" transform="translate(-1424.897 -635.136)" fill="#ffba31" stroke="#000" stroke-miterlimit="10" stroke-width="0.25"/>
      <path id="Path_15515" data-name="Path 15515" d="M1594.643,858.835s1.414,61.267-47.036,80.86" transform="translate(-1435.875 -635.136)" fill="#ffba31" stroke="#000" stroke-miterlimit="10" stroke-width="0.25"/>
      <path id="Path_15516" data-name="Path 15516" d="M1554.781,774.691s33.08,23.714,61.429,66.435c37.119,55.936,34.367,83.259,34.367,83.259s-86.278-10.694-159.184-19.844c0,0,32.354-72.043,40.552-123.379Z" transform="translate(-1465.38 -679.299)" fill="#45805c" stroke="#000" stroke-miterlimit="10" stroke-width="0.25"/>
      <line id="Line_848" data-name="Line 848" y1="13.356" x2="131.727" transform="translate(8.688 50.15)" fill="none" stroke="#000" stroke-miterlimit="10" stroke-width="0.25"/>
      <path id="Path_15517" data-name="Path 15517" d="M1508.091,751.452s-7.385,29.634,9.95,47.075c14.712,14.8,35.7,2.5,38.013-18.922a73.215,73.215,0,0,0-5.035-34.887Z" transform="translate(-1457.436 -695.031)" fill="#fff" stroke="#000" stroke-miterlimit="10" stroke-width="0.25"/>
      <g id="Group_4058" data-name="Group 4058" transform="translate(63.519 77.912)">
        <ellipse id="Ellipse_2811" data-name="Ellipse 2811" cx="1.312" cy="3.397" rx="1.312" ry="3.397" transform="translate(0 1.38) rotate(-7.344)"/>
        <ellipse id="Ellipse_2812" data-name="Ellipse 2812" cx="1.312" cy="3.397" rx="1.312" ry="3.397" transform="translate(8.105 0.336) rotate(-7.344)"/>
      </g>
      <path id="Path_15518" data-name="Path 15518" d="M1507.155,771.412s-1.9-11.168,8.6-22.1c11.466-11.927,23.458-11.409,37.73-26.447,7.885-8.31,14.934-13.789,21.929-8.879s6.174,15.073-5.767,22.562-19.1,15.355-16.844,30.273Z" transform="translate(-1457.177 -712.133)" fill="#ffba31" stroke="#000" stroke-miterlimit="10" stroke-width="0.25"/>
      <path id="Path_15519" data-name="Path 15519" d="M1514.014,831.915c40.57,1.987,73.725,73.984,44.657,145.639h-19.818s-12.412-1.961-43.721-62.957C1478.482,882.162,1479.8,830.24,1514.014,831.915Z" transform="translate(-1468.876 -649.286)" fill="#ffba31" stroke="#000" stroke-miterlimit="10" stroke-width="0.25"/>
      <path id="Path_15520" data-name="Path 15520" d="M1500.879,831.875s7.664,96.8,38.574,145.678" transform="translate(-1460.401 -649.286)" fill="none" stroke="#000" stroke-miterlimit="10" stroke-width="0.25"/>
      <path id="Path_15521" data-name="Path 15521" d="M1488.926,839.7s2.332,74.972,51.525,133.75" transform="translate(-1466.674 -645.18)" fill="none" stroke="#000" stroke-miterlimit="10" stroke-width="0.25"/>
      <path id="Path_15522" data-name="Path 15522" d="M1513.527,834.412s21.362,81.9,23.623,141.81" transform="translate(-1453.763 -647.954)" fill="none" stroke="#000" stroke-miterlimit="10" stroke-width="0.25"/>
      <path id="Path_15523" data-name="Path 15523" d="M1551.269,830.9c41.27,2.02,73.946,73.841,44.376,146.732l-19.1,1.42s-12.633-2-44.483-64.044C1515.122,882.015,1516.459,829.2,1551.269,830.9Z" transform="translate(-1449.589 -649.818)" fill="#ffba31" stroke="#000" stroke-miterlimit="10" stroke-width="0.25"/>
      <path id="Path_15524" data-name="Path 15524" d="M1527.3,836.637s-.046,79.161,49.1,139.169" transform="translate(-1446.536 -646.786)" fill="none" stroke="#000" stroke-miterlimit="10" stroke-width="0.25"/>
      <path id="Path_15525" data-name="Path 15525" d="M1536.734,831.132s25.236,95.137,41.752,147.04" transform="translate(-1441.582 -649.676)" fill="none" stroke="#000" stroke-miterlimit="10" stroke-width="0.25"/>
      <path id="Path_15526" data-name="Path 15526" d="M1548.826,832.578s37.822,58.785,28.615,144.442" transform="translate(-1435.236 -648.917)" fill="none" stroke="#000" stroke-miterlimit="10" stroke-width="0.25"/>
      <path id="Path_15527" data-name="Path 15527" d="M1509.511,851.654s-4.96-4.962-9.491-4.53-2.373,4.53-2.373,4.53-8.2-1.726-9.059,4.1,6.04,13.59,20.923,5.393Z" transform="translate(-1466.889 -641.296)" fill="#fff" stroke="#000" stroke-miterlimit="10" stroke-width="0.25"/>
      <path id="Path_15528" data-name="Path 15528" d="M1568.514,803.66s30.249,49.079,7.815,61.734c-27.265,15.38-64.753,7.8-71.61,10.64-8.341,3.451-6.292,36.984,11.072,47.668,16.825,10.354,12.51-6.47,23.3-7.981,11.956-1.673,15.674,9.707,26.462,9.707,13.945,0,12.8-18.335,26.6-18.335s29.964-7.975,25.6-33.936-25.86-68.448-48.237-87.717" transform="translate(-1460.874 -673.657)" fill="#45805c" stroke="#000" stroke-miterlimit="10" stroke-width="0.25"/>
      <path id="Path_15529" data-name="Path 15529" d="M1494.327,808.7l9.237,41.529,3.092-.789-9.676-41.447Z" transform="translate(-1463.839 -661.82)" fill="#45805c" stroke="#000" stroke-miterlimit="10" stroke-width="0.25"/>
      <g id="Group_4059" data-name="Group 4059" transform="translate(29.247 166.168)">
        <path id="Path_15530" data-name="Path 15530" d="M1498.958,824.194c.422-1.818,2.107-3.314,3.693-2.923,2.5.616,2.847,5.424,0,7.348S1498.094,827.914,1498.958,824.194Z" transform="translate(-1490.774 -821.053)" fill="#fff" stroke="#000" stroke-miterlimit="10" stroke-width="0.25"/>
        <path id="Path_15531" data-name="Path 15531" d="M1502.236,833.317c-7.118.916-9.126-1.648-8.658-7.164.491-5.782,9.373-6.523,11.294-2.6,1.648,3.368,3.075,8.928-2.636,9.761" transform="translate(-1493.514 -821.106)" fill="#fff" stroke="#000" stroke-miterlimit="10" stroke-width="0.25"/>
      </g>
      <circle id="Ellipse_2813" data-name="Ellipse 2813" cx="26.876" cy="26.876" r="26.876" transform="translate(0 94.529)" fill="#45805c" stroke="#000" stroke-miterlimit="10" stroke-width="0.25"/>
      <circle id="Ellipse_2814" data-name="Ellipse 2814" cx="22.392" cy="22.392" r="22.392" transform="translate(4.484 99.013)" fill="#fff" stroke="#000" stroke-miterlimit="10" stroke-width="0.25"/>
      <path id="Path_15532" data-name="Path 15532" d="M1496.456,781.9c.335-1.56,5.291-.044,8.393,4.393,2.954,4.224,3.239,8.573,1.6,8.562-1.185-.006-.767-4.123-3.64-7.777C1500.274,783.858,1496.11,783.512,1496.456,781.9Z" transform="translate(-1462.733 -675.827)" fill="#ffba31" stroke="#000" stroke-miterlimit="10" stroke-width="0.25"/>
      <path id="Path_15533" data-name="Path 15533" d="M1503.521,792.76c.927.381.148,4.36-1.561,4.079S1502.1,792.175,1503.521,792.76Z" transform="translate(-1460.194 -669.844)" fill="#ffba31" stroke="#000" stroke-miterlimit="10" stroke-width="0.25"/>
    </g>
    <g id="Group_4062" data-name="Group 4062" transform="translate(1678.611 943.543)">
      <path id="Path_15534" data-name="Path 15534" d="M1598.753,881.977s1.487,10.488,9.242,7.533C1608,889.51,1609.034,882.747,1598.753,881.977Z" transform="translate(-1598.753 -854.4)" fill="#ffba31" stroke="#000" stroke-miterlimit="10" stroke-width="0.25"/>
      <path id="Path_15535" data-name="Path 15535" d="M1616.26,863.892s-10.359,5.718-3.988,14.288C1612.273,878.18,1621.654,876.22,1616.26,863.892Z" transform="translate(-1592.744 -863.892)" fill="#ffba31" stroke="#000" stroke-miterlimit="10" stroke-width="0.25"/>
      <path id="Path_15536" data-name="Path 15536" d="M1612.074,873.262s-6.113,13.106,6.391,47" transform="translate(-1592.545 -858.974)" fill="none" stroke="#000" stroke-miterlimit="10" stroke-width="0.25"/>
      <path id="Path_15537" data-name="Path 15537" d="M1604.814,886.917s3.251,4.277,10.479,5.2" transform="translate(-1595.572 -851.807)" fill="none" stroke="#000" stroke-miterlimit="10" stroke-width="0.25"/>
      <g id="Group_4061" data-name="Group 4061" transform="translate(38.842 14.28)">
        <path id="Path_15538" data-name="Path 15538" d="M1635.748,888.5s-2.437-7.734,8.035-9.248C1643.783,879.254,1645.01,889.646,1635.748,888.5Z" transform="translate(-1618.307 -870.109)" fill="#ffba31" stroke="#000" stroke-miterlimit="10" stroke-width="0.25"/>
        <path id="Path_15539" data-name="Path 15539" d="M1628.969,873.257s-8.85,6.926-1.581,13.853C1627.387,887.11,1635.038,882.4,1628.969,873.257Z" transform="translate(-1624.071 -873.257)" fill="#ffba31" stroke="#000" stroke-miterlimit="10" stroke-width="0.25"/>
        <path id="Path_15540" data-name="Path 15540" d="M1627.542,882.342a63.412,63.412,0,0,1-3.317,31.712" transform="translate(-1624.226 -868.489)" fill="none" stroke="#000" stroke-miterlimit="10" stroke-width="0.25"/>
        <path id="Path_15541" data-name="Path 15541" d="M1640.438,885.319a26.519,26.519,0,0,1-13.871,12.162" transform="translate(-1622.997 -866.926)" fill="none" stroke="#000" stroke-miterlimit="10" stroke-width="0.25"/>
      </g>
    </g>
    <g id="Group_4063" data-name="Group 4063" transform="translate(1446.601 894.448)">
      <path id="Path_15542" data-name="Path 15542" d="M1473.263,862.229s6.85-14.42-18.934-30.534C1454.329,831.695,1450.508,854.1,1473.263,862.229Z" transform="translate(-1442.672 -831.695)" fill="#97ceb3" stroke="#000" stroke-miterlimit="10" stroke-width="0.25"/>
      <path id="Path_15543" data-name="Path 15543" d="M1502.282,856.209s2.17,29.5-21.064,34.2C1481.218,890.41,1483.333,868.356,1502.282,856.209Z" transform="translate(-1428.432 -818.829)" fill="#45805c" stroke="#000" stroke-miterlimit="10" stroke-width="0.25"/>
      <path id="Path_15544" data-name="Path 15544" d="M1499.076,919.782s-7.46-26.558-52.475-32.185C1446.6,887.6,1462.53,920.209,1499.076,919.782Z" transform="translate(-1446.601 -802.355)" fill="#97ceb3" stroke="#000" stroke-miterlimit="10" stroke-width="0.25"/>
      <path id="Path_15545" data-name="Path 15545" d="M1518.259,898.587s-4.283,30.845-29.956,29.271A47.243,47.243,0,0,1,1518.259,898.587Z" transform="translate(-1424.714 -796.586)" fill="#45805c" stroke="#000" stroke-miterlimit="10" stroke-width="0.25"/>
      <path id="Path_15546" data-name="Path 15546" d="M1470.809,861.352s-6.154-8.865-18.181-4.649C1452.628,856.7,1460.943,865.582,1470.809,861.352Z" transform="translate(-1443.438 -819.167)" fill="#45805c" stroke="#000" stroke-miterlimit="10" stroke-width="0.25"/>
      <path id="Path_15547" data-name="Path 15547" d="M1498.9,1015.995c15.459-81.648-25.715-153.766-25.715-153.766-2.126-.833-.052-8.6-18.934-30.534" transform="translate(-1442.588 -831.695)" fill="none" stroke="#000" stroke-miterlimit="10" stroke-width="0.25"/>
      <path id="Path_15548" data-name="Path 15548" d="M1487.863,918.548" transform="translate(-1424.944 -786.11)" fill="none" stroke="#000" stroke-miterlimit="10" stroke-width="0.25"/>
      <path id="Path_15549" data-name="Path 15549" d="M1502.919,856.209s-13.253,16.956-21.064,34.2c0,0-2.89,7-1.447,12.675" transform="translate(-1429.069 -818.829)" fill="none" stroke="#000" stroke-miterlimit="10" stroke-width="0.25"/>
      <path id="Path_15550" data-name="Path 15550" d="M1452.628,856.311a42.659,42.659,0,0,1,18.181,4.649s11.343,5.166,12.754,8.675" transform="translate(-1443.438 -818.775)" fill="none" stroke="#000" stroke-miterlimit="10" stroke-width="0.25"/>
      <path id="Path_15551" data-name="Path 15551" d="M1446.6,887.6s34.068,11.13,52.475,32.185c0,0,6.333,7.1,6.669,12.4" transform="translate(-1446.601 -802.355)" fill="none" stroke="#000" stroke-miterlimit="10" stroke-width="0.25"/>
      <path id="Path_15552" data-name="Path 15552" d="M1519.626,898.587a187.1,187.1,0,0,0-29.956,29.271l-3.972,6.908" transform="translate(-1426.081 -796.586)" fill="none" stroke="#000" stroke-miterlimit="10" stroke-width="0.25"/>
    </g>
  </g>
</svg>
