<svg xmlns="http://www.w3.org/2000/svg" width="334.62" height="421.672" viewBox="0 0 334.62 421.672">
  <g id="Group_3411" data-name="Group 3411" transform="translate(-1060.674 -1708.609)">
    <g id="Group_3402" data-name="Group 3402" transform="translate(1352.79 1953.58)">
      <ellipse id="Ellipse_1890" data-name="Ellipse 1890" cx="3.477" cy="3.489" rx="3.477" ry="3.489" transform="translate(4.648)" fill="#e2545b" stroke="#000" stroke-linejoin="round" stroke-width="0.25"/>
      <ellipse id="Ellipse_1891" data-name="Ellipse 1891" cx="3.694" cy="3.706" rx="3.694" ry="3.706" transform="translate(18.24 8.175)" fill="#e2545b" stroke="#000" stroke-linejoin="round" stroke-width="0.25"/>
      <path id="Path_11146" data-name="Path 11146" d="M1273.568,1881.314s-2.839,17.031-14.192,18.127" transform="translate(-1251.634 -1865.727)" fill="none" stroke="#000" stroke-linejoin="round" stroke-width="0.25"/>
      <path id="Path_11147" data-name="Path 11147" d="M1255.636,1879.682s.989,15.388,6.521,14.621" transform="translate(-1253.539 -1866.558)" fill="none" stroke="#000" stroke-linejoin="round" stroke-width="0.25"/>
      <ellipse id="Ellipse_1892" data-name="Ellipse 1892" cx="2.097" cy="2.103" rx="2.097" ry="2.103" transform="translate(0 8.916)" fill="#f9d0bb" stroke="#000" stroke-linejoin="round" stroke-width="0.25"/>
      <path id="Path_11148" data-name="Path 11148" d="M1260.318,1886.137s-.338-5.115,5.9-6.6C1266.221,1879.532,1266.641,1886.031,1260.318,1886.137Z" transform="translate(-1251.156 -1866.635)" fill="#2e8e89" stroke="#000" stroke-linejoin="round" stroke-width="0.25"/>
      <path id="Path_11149" data-name="Path 11149" d="M1266.546,1888.053s2.759,6.493,13.054,4.88C1279.6,1892.932,1274.435,1884.329,1266.546,1888.053Z" transform="translate(-1247.982 -1862.771)" fill="#2e8e89" stroke="#000" stroke-linejoin="round" stroke-width="0.25"/>
      <path id="Path_11150" data-name="Path 11150" d="M1261.4,1875.61s4.034,25.4-5.259,39.506" transform="translate(-1253.279 -1868.632)" fill="none" stroke="#000" stroke-linejoin="round" stroke-width="0.25"/>
    </g>
    <g id="Group_3403" data-name="Group 3403" transform="translate(1267.448 1937.522)">
      <path id="Path_11151" data-name="Path 11151" d="M1245.3,1902.288a72.056,72.056,0,0,0,15.136-23.559c1.523,2.539,2.921,5.138,4.151,7.749-1.444,3.773-4.528,9.528-11.074,16.055-9.258,9.229-12.189,21.839-12.992,26.522-2.457.22-5.111.389-7.992.5-.125.006-.247.009-.373.014C1232.851,1923.1,1235.589,1912.484,1245.3,1902.288Z" transform="translate(-1180.16 -1850.986)" fill="#f9d0bb" stroke="#000" stroke-linejoin="round" stroke-width="0.25"/>
      <path id="Path_11152" data-name="Path 11152" d="M1238.353,1901.193c11.643-12.174,16.8-23.614,18.89-29.552a87.483,87.483,0,0,1,7.53,10.7,72.059,72.059,0,0,1-15.136,23.559c-9.707,10.2-12.445,20.815-13.145,27.277-4.5.166-8.8.276-12.864.273C1224.623,1925.1,1227.916,1912.109,1238.353,1901.193Z" transform="translate(-1184.501 -1854.595)" fill="#fff5e6" stroke="#000" stroke-linejoin="round" stroke-width="0.25"/>
      <path id="Path_11153" data-name="Path 11153" d="M1250.686,1899.918c6.546-6.526,9.63-12.281,11.074-16.055,4.661,9.889,7.014,19.9,5.4,27.063-1.586,7.026-7,13.5-29.463,15.515C1238.5,1921.757,1241.427,1909.147,1250.686,1899.918Z" transform="translate(-1177.337 -1848.371)" fill="#fff5e6" stroke="#000" stroke-linejoin="round" stroke-width="0.25"/>
      <path id="Path_11154" data-name="Path 11154" d="M1235.618,1860.435a29.521,29.521,0,0,1,13.248,2.054,40.265,40.265,0,0,1,11.966,7.94A137.282,137.282,0,0,1,1241.3,1903c-12.075,14.839-15.711,28.358-16.782,35.948-8.6-.51-15.7-1.89-20.823-4.827,1.217-12.58,6.7-24.068,19.273-41.9C1233.259,1877.641,1235.317,1866.117,1235.618,1860.435Z" transform="translate(-1194.652 -1860.348)" fill="#fff5e6" stroke="#000" stroke-linejoin="round" stroke-width="0.25"/>
      <path id="Path_11155" data-name="Path 11155" d="M1234.277,1899.6a137.292,137.292,0,0,0,19.528-32.569,69.845,69.845,0,0,1,6.563,6.964c-2.085,5.938-7.246,17.377-18.89,29.552-10.437,10.916-13.731,23.908-14.725,32.255-3.248,0-6.336-.08-9.258-.253C1218.566,1927.955,1222.2,1914.435,1234.277,1899.6Z" transform="translate(-1187.625 -1856.946)" fill="#f9d0bb" stroke="#000" stroke-linejoin="round" stroke-width="0.25"/>
      <path id="Path_11156" data-name="Path 11156" d="M1200.064,1902.781c7.862-27.312,23.093-41.164,38.606-42.375-.3,5.681-2.359,17.205-12.647,31.787-12.577,17.83-18.056,29.318-19.273,41.9C1198.164,1929.166,1195.151,1919.849,1200.064,1902.781Z" transform="translate(-1197.705 -1860.318)" fill="#f9d0bb" stroke="#000" stroke-linejoin="round" stroke-width="0.25"/>
    </g>
    <g id="Group_3404" data-name="Group 3404" transform="translate(1060.778 1940.976)">
      <path id="Path_11157" data-name="Path 11157" d="M1115.187,1920.742c13.522,12.312,16.783,32.124,30.364,30.023s13.466-35.1,21.591-35.216,9.926,62.185,23.917,60.369c12.052-1.565,13.213.362,19.978,9.669,5.66,7.785,15.875,6.323,20.76.012-5.944-11.539-12.907-22.043-19.516-25.76-13.246-7.449-15.694-7.058-20.354-27.333s-5.435-32.342-15.918-52.616-29.508-25.583-58.327,0c-10.3,9.141-19.617,21.979-27.624,35.586C1096.476,1913.81,1106.688,1913,1115.187,1920.742Z" transform="translate(-1045.864 -1862.637)" fill="#fff5e6" stroke="#000" stroke-linejoin="round" stroke-width="0.25"/>
      <path id="Path_11158" data-name="Path 11158" d="M1246.71,1968.141c-4.884,6.311-15.1,7.773-20.76-.012-6.765-9.307-7.926-11.234-19.978-9.669-13.992,1.816-15.794-60.484-23.917-60.37s-8.011,33.115-21.591,35.216-16.841-17.711-30.363-30.022c-8.5-7.739-18.711-6.932-25.129-5.266a341.322,341.322,0,0,0-28.477,63.855c-6.1,19.308-19.792,28.86-14.543,46.823,3.167,10.832,25.947,12.71,50.7,13.495s41.625,12.7,65.655,10.959c15.9-1.15,37.728-15.006,59.763-16.467,31.106-2.063,17.531-28.927,17.531-28.927C1253.077,1979.9,1252.68,1979.727,1246.71,1968.141Z" transform="translate(-1060.778 -1845.179)" fill="#f9d0bb" stroke="#000" stroke-linejoin="round" stroke-width="0.25"/>
      <path id="Path_11159" data-name="Path 11159" d="M1102.89,1912.453c5.941,3.47-1.881,19.991-9.026,30.511s-10.529,32.961-16.546,29.689,7.885-21.893,11.281-36.235C1091.9,1922.492,1098.733,1910.025,1102.89,1912.453Z" transform="translate(-1053.113 -1837.419)" fill="#fff5e6" stroke="#000" stroke-linejoin="round" stroke-width="0.25"/>
      <path id="Path_11160" data-name="Path 11160" d="M1137.505,1930.5c3.134-2.054,9.21,5.066,8.367,26.9s.426,32.489-4.143,33.887-6.534-16.653-4.848-34.789S1133.774,1932.946,1137.505,1930.5Z" transform="translate(-1022.441 -1828.242)" fill="#fff5e6" stroke="#000" stroke-linejoin="round" stroke-width="0.25"/>
      <path id="Path_11161" data-name="Path 11161" d="M1156.152,1949.31c4.528-1.642,6.644,4.383,8.406,13.484s9.355,18.372,5.423,21.911-6.1-10.449-11.794-18.877S1152.9,1950.49,1156.152,1949.31Z" transform="translate(-1013.404 -1818.627)" fill="#fff5e6" stroke="#000" stroke-linejoin="round" stroke-width="0.25"/>
    </g>
    <g id="Group_3407" data-name="Group 3407" transform="translate(1177.583 1708.834)">
      <path id="Path_11162" data-name="Path 11162" d="M1273.934,1971.888s2.862,9.986,12.665,9.338C1286.6,1981.226,1284.753,1970.409,1273.934,1971.888Z" transform="translate(-1069.012 -1574.918)" fill="#2e8e89" stroke="#000" stroke-linejoin="round" stroke-width="0.25"/>
      <g id="Group_3405" data-name="Group 3405" transform="translate(39.252 373.474)">
        <path id="Path_11163" data-name="Path 11163" d="M1169.334,1956.274l1.5,20.257-.068.105,13.774.534-.879-20.275Z" transform="translate(-1161.542 -1956.274)" fill="#fff" stroke="#000" stroke-linejoin="round" stroke-width="0.25"/>
        <path id="Path_11164" data-name="Path 11164" d="M1164.314,1991.738c-1.09,5.616,4.148,8.581,13.509.7s10.884-8.46,9.361-21.929l-.009-.212-13.774-.534C1172.6,1971.016,1165.99,1983.109,1164.314,1991.738Z" transform="translate(-1164.172 -1949.402)" fill="#e2545b" stroke="#000" stroke-linejoin="round" stroke-width="0.25"/>
        <path id="Path_11165" data-name="Path 11165" d="M1209.6,1977.4l-.032-.019-1.761-21.108-11.626,2v20.3A37.076,37.076,0,0,0,1209.6,1977.4Z" transform="translate(-1147.869 -1956.274)" fill="#fff" stroke="#000" stroke-linejoin="round" stroke-width="0.25"/>
        <path id="Path_11166" data-name="Path 11166" d="M1209.6,1970.272a37.07,37.07,0,0,1-13.419,1.177v2.3a11.67,11.67,0,0,0,4.434,9.187,49.279,49.279,0,0,0,16.515,8.421C1233.329,1996.129,1224.5,1979.485,1209.6,1970.272Z" transform="translate(-1147.869 -1949.144)" fill="#e2545b" stroke="#000" stroke-linejoin="round" stroke-width="0.25"/>
      </g>
      <path id="Path_11167" data-name="Path 11167" d="M1237,1855.219s21.426,91.408,21.158,155.31c0,0-63.907,8.824-115.925-2.9,0,0-2.91-62.689,20.367-149.474C1162.6,1858.153,1200.362,1845.737,1237,1855.219Z" transform="translate(-1136.152 -1636.09)" fill="#2e8e89" stroke="#000" stroke-linejoin="round" stroke-width="0.25"/>
      <path id="Path_11168" data-name="Path 11168" d="M1203,1769.142s11.281,24.714,20.711,79.212,2.872,52.949,2.872,52.949l-70.073-1.125s-5.5-18.231,0-59.627,16.549-70.479,16.549-70.479Z" transform="translate(-1130.065 -1678.116)" fill="#e2545b" stroke="#000" stroke-linejoin="round" stroke-width="0.25"/>
      <path id="Path_11169" data-name="Path 11169" d="M1166.065,1792.906a20.272,20.272,0,0,1,9.95-3.332c5.746-.281,9.669,6.75,2.8,10.4,0,0,5.988,2.25,4.886,6.608s-6.708,2.954-6.708,2.954,3.5,7.452-1.121,8.857-10.509-.844-13.172-9.7S1166.065,1792.906,1166.065,1792.906Z" transform="translate(-1126.014 -1667.713)" fill="#f9d0bb" stroke="#000" stroke-linejoin="round" stroke-width="0.25"/>
      <path id="Path_11170" data-name="Path 11170" d="M1203.021,1810.212s-2.89-8.7-11.394-7.859-9.065,9-3.18,11.248c0,0-10.837,1.005-11.934,6.97s6.8,7.23,10.277,5.121c0,0-2.675,8.764,2.925,10.919s11.063-6.842,11.063-6.842Z" transform="translate(-1118.687 -1661.23)" fill="#f9d0bb" stroke="#000" stroke-linejoin="round" stroke-width="0.25"/>
      <path id="Path_11171" data-name="Path 11171" d="M1192.958,1837.352a7.52,7.52,0,0,0-1.461.145,7.675,7.675,0,0,0,.145-1.476,18.239,18.239,0,0,1-18.147,6.124,8.518,8.518,0,1,0,14.614,8.611,7.574,7.574,0,1,0,4.849-13.4Z" transform="translate(-1124.022 -1647.914)" fill="#f9d0bb" stroke="#000" stroke-linejoin="round" stroke-width="0.25"/>
      <path id="Path_11172" data-name="Path 11172" d="M1176.387,1767.316s5.33,25.2,9.972,34.333c3.366-10.676,3.263-33.935,3.263-33.935Z" transform="translate(-1118.697 -1679.046)" fill="#fff" stroke="#000" stroke-linejoin="round" stroke-width="0.25"/>
      <circle id="Ellipse_1893" data-name="Ellipse 1893" cx="1.549" cy="1.549" r="1.549" transform="translate(64.038 100.489)" fill="#f9d0bb" stroke="#000" stroke-linejoin="round" stroke-width="0.25"/>
      <circle id="Ellipse_1894" data-name="Ellipse 1894" cx="1.549" cy="1.549" r="1.549" transform="translate(65.004 107.273)" fill="#f9d0bb" stroke="#000" stroke-linejoin="round" stroke-width="0.25"/>
      <path id="Path_11173" data-name="Path 11173" d="M1151.07,1793.493s-12.107,6-12.831,14.793,3.983,19.872,11.95,19.508,23.721-12.766,19.925-24.654Z" transform="translate(-1138.165 -1665.713)" fill="#e2545b" stroke="#000" stroke-linejoin="round" stroke-width="0.25"/>
      <path id="Path_11174" data-name="Path 11174" d="M1170.207,1767.321a140.929,140.929,0,0,0-17.8,49.976c-5.1,34.594,2.041,55.6,2.041,55.6h15.762s-6.2-31.18-1.769-57.728a268.86,268.86,0,0,1,11.631-45.683Z" transform="translate(-1131.847 -1679.043)" fill="#fff5e6" stroke="#000" stroke-linejoin="round" stroke-width="0.25"/>
      <path id="Path_11175" data-name="Path 11175" d="M1165.253,1753.28s-3.853,2.187-3.853,11.252,2.028,14.063,7.93,15.173,24.432,2.59,32.318-2.036,5.515-25.466-.768-24.39-31-3.05-31-3.05Z" transform="translate(-1126.331 -1687.749)" fill="#fff5e6" stroke="#000" stroke-linejoin="round" stroke-width="0.25"/>
      <ellipse id="Ellipse_1895" data-name="Ellipse 1895" cx="24.531" cy="26.737" rx="24.531" ry="26.737" transform="translate(36.554 17.34) rotate(-3.19)" fill="#fff" stroke="#000" stroke-linejoin="round" stroke-width="0.25"/>
      <path id="Path_11176" data-name="Path 11176" d="M1142.287,1768.976c-2.566-6.223.177-11.277,6.57-16.07s5.687-9.332,6.542-14.9c.927-6.034,5.71-10.384,12.458-11.989s8.694-10.8,18.645-14.965c12.585-5.271,30.72-1.247,35.87,13.006s-1.236,22.248,3.393,27.771,6.631,4.975,7.257,8.952-4.253,5.233-5.005,9.5-9.646,5.917-18.523,5.6c0,0,9.64-6.6,8.264-28.566s-13.138-22.257-20.053-18.731c-6.774,3.453-11.9,15.927-11.848,30.637.042,11.717-6.258,17.343-15.892,17.844S1146.3,1778.712,1142.287,1768.976Z" transform="translate(-1136.552 -1708.834)" fill="#e2545b" stroke="#000" stroke-linejoin="round" stroke-width="0.25"/>
      <path id="Path_11177" data-name="Path 11177" d="M1140.065,1765.205c4.54-3.537,14.837,20.919,23.7,40.87s79.1,168.425,79.1,168.425,12.427-1.472,21.928,13.928l-32.527,16.523s-5.76-14.52.732-26.056c0,0-64.688-146.662-77.844-176S1136.675,1767.845,1140.065,1765.205Z" transform="translate(-1137.706 -1680.297)" fill="#cee5ca" stroke="#000" stroke-linejoin="round" stroke-width="0.25"/>
      <path id="Path_11178" data-name="Path 11178" d="M1200.813,1923.93s8.243,52.558,48.658,85.873" transform="translate(-1106.256 -1599.275)" fill="none" stroke="#000" stroke-linejoin="round" stroke-width="0.25"/>
      <path id="Path_11179" data-name="Path 11179" d="M1222.363,1912.983s37.383,43.54,45.573,79.075" transform="translate(-1095.28 -1604.851)" fill="none" stroke="#000" stroke-linejoin="round" stroke-width="0.25"/>
      <path id="Path_11180" data-name="Path 11180" d="M1205.611,1921.493s22.628,61.566,48.071,82.665" transform="translate(-1103.812 -1600.516)" fill="none" stroke="#000" stroke-linejoin="round" stroke-width="0.25"/>
      <path id="Path_11181" data-name="Path 11181" d="M1216.184,1915.931s33.206,43.755,46.046,81.511" transform="translate(-1098.427 -1603.349)" fill="none" stroke="#000" stroke-linejoin="round" stroke-width="0.25"/>
      <line id="Line_614" data-name="Line 614" x2="45.381" y2="81.065" transform="translate(110.452 316.581)" fill="none" stroke="#000" stroke-linejoin="round" stroke-width="0.25"/>
      <path id="Path_11182" data-name="Path 11182" d="M1151.865,1790.063s-6.348,4.29-6.348,12.039c0,4.505,4.282,10.958,15.241,7.932s4.419-21.572-7.211-16.212Z" transform="translate(-1134.421 -1667.46)" fill="#fff" stroke="#000" stroke-linejoin="round" stroke-width="0.25"/>
      <line id="Line_615" data-name="Line 615" y2="6.125" transform="translate(36.017 239.724)" fill="none" stroke="#000" stroke-linejoin="round" stroke-width="0.25"/>
      <line id="Line_616" data-name="Line 616" y2="8.355" transform="translate(45.78 264.932)" fill="none" stroke="#000" stroke-linejoin="round" stroke-width="0.25"/>
      <line id="Line_617" data-name="Line 617" y2="7.202" transform="translate(29.269 291.148)" fill="none" stroke="#000" stroke-linejoin="round" stroke-width="0.25"/>
      <line id="Line_618" data-name="Line 618" y2="8.211" transform="translate(47.503 309.009)" fill="none" stroke="#000" stroke-linejoin="round" stroke-width="0.25"/>
      <line id="Line_619" data-name="Line 619" y2="5.33" transform="translate(29.49 320.245)" fill="none" stroke="#000" stroke-linejoin="round" stroke-width="0.25"/>
      <line id="Line_620" data-name="Line 620" y2="6.914" transform="translate(49.226 341.852)" fill="none" stroke="#000" stroke-linejoin="round" stroke-width="0.25"/>
      <line id="Line_621" data-name="Line 621" y2="5.196" transform="translate(36.735 357.114)" fill="none" stroke="#000" stroke-linejoin="round" stroke-width="0.25"/>
      <line id="Line_622" data-name="Line 622" y2="4.741" transform="translate(70.618 365.511)" fill="none" stroke="#000" stroke-linejoin="round" stroke-width="0.25"/>
      <line id="Line_623" data-name="Line 623" y2="5.819" transform="translate(82.678 341.852)" fill="none" stroke="#000" stroke-linejoin="round" stroke-width="0.25"/>
      <line id="Line_624" data-name="Line 624" x2="0.574" y2="6.51" transform="translate(70.044 312.583)" fill="none" stroke="#000" stroke-linejoin="round" stroke-width="0.25"/>
      <line id="Line_625" data-name="Line 625" y2="6.194" transform="translate(67.459 275.303)" fill="none" stroke="#000" stroke-linejoin="round" stroke-width="0.25"/>
      <line id="Line_626" data-name="Line 626" y2="5.405" transform="translate(61.375 240.444)" fill="none" stroke="#000" stroke-linejoin="round" stroke-width="0.25"/>
      <line id="Line_627" data-name="Line 627" y2="6.194" transform="translate(95.6 242.173)" fill="none" stroke="#000" stroke-linejoin="round" stroke-width="0.25"/>
      <line id="Line_628" data-name="Line 628" y2="5.571" transform="translate(98.758 362.31)" fill="none" stroke="#000" stroke-linejoin="round" stroke-width="0.25"/>
      <ellipse id="Ellipse_1896" data-name="Ellipse 1896" cx="2.349" cy="2.357" rx="2.349" ry="2.357" transform="translate(45.283 409.292)" fill="#fff5e6" stroke="#000" stroke-linejoin="round" stroke-width="0.25"/>
      <ellipse id="Ellipse_1897" data-name="Ellipse 1897" cx="2.349" cy="2.357" rx="2.349" ry="2.357" transform="translate(48.829 400.808)" fill="#fff5e6" stroke="#000" stroke-linejoin="round" stroke-width="0.25"/>
      <ellipse id="Ellipse_1898" data-name="Ellipse 1898" cx="1.938" cy="1.944" rx="1.938" ry="1.944" transform="translate(102.538 401.22)" fill="#fff5e6" stroke="#000" stroke-linejoin="round" stroke-width="0.25"/>
      <ellipse id="Ellipse_1899" data-name="Ellipse 1899" cx="1.938" cy="1.944" rx="1.938" ry="1.944" transform="translate(108.514 407.21)" fill="#fff5e6" stroke="#000" stroke-linejoin="round" stroke-width="0.25"/>
      <g id="Group_3406" data-name="Group 3406" transform="translate(52.153 34.609)">
        <ellipse id="Ellipse_1900" data-name="Ellipse 1900" cx="12.91" cy="7.343" rx="12.91" ry="7.343" transform="matrix(0.045, -0.999, 0.999, 0.045, 17.374, 26.586)" fill="none" stroke="#000" stroke-linejoin="round" stroke-width="0.25"/>
        <ellipse id="Ellipse_1901" data-name="Ellipse 1901" cx="12.91" cy="7.343" rx="12.91" ry="7.343" transform="matrix(0.045, -0.999, 0.999, 0.045, 0, 25.793)" fill="none" stroke="#000" stroke-linejoin="round" stroke-width="0.25"/>
        <line id="Line_629" data-name="Line 629" x1="2.909" y2="0.169" transform="translate(15.044 15.606)" fill="none" stroke="#000" stroke-linejoin="round" stroke-width="0.25"/>
        <ellipse id="Ellipse_1902" data-name="Ellipse 1902" cx="3.21" cy="1.537" rx="3.21" ry="1.537" transform="matrix(0.045, -0.999, 0.999, 0.045, 21.483, 20.859)"/>
        <ellipse id="Ellipse_1903" data-name="Ellipse 1903" cx="3.21" cy="1.537" rx="3.21" ry="1.537" transform="matrix(0.045, -0.999, 0.999, 0.045, 9.27, 20.302)"/>
      </g>
      <path id="Path_11183" data-name="Path 11183" d="M1260.22,1966.105s3.84-10.215,20.031-7.118C1280.251,1958.987,1274.493,1971.548,1260.22,1966.105Z" transform="translate(-1075.997 -1581.716)" fill="#2e8e89" stroke="#000" stroke-linejoin="round" stroke-width="0.25"/>
      <path id="Path_11184" data-name="Path 11184" d="M1248.053,1974.865s13.643-8.107,24.871,2.632C1272.924,1977.5,1256.238,1986.657,1248.053,1974.865Z" transform="translate(-1082.195 -1574.826)" fill="#2e8e89" stroke="#000" stroke-linejoin="round" stroke-width="0.25"/>
      <path id="Path_11185" data-name="Path 11185" d="M1195.659,1846.919s-10.111-3.047-11.836,0c-1.68,2.964,4.077,4.647,4.077,4.647s-7.322.593-7.339,5.915c-.024,7.518,11.273,10.976,19.635-3.842C1200.2,1853.64,1200.566,1847.29,1195.659,1846.919Z" transform="translate(-1116.572 -1639.19)" fill="#fff" stroke="#000" stroke-linejoin="round" stroke-width="0.25"/>
      <path id="Path_11186" data-name="Path 11186" d="M1188.868,1768.41s19.443,24.376,29.293,70.994c7.7,36.446.743,54.634-6.958,62.07a6.309,6.309,0,0,1-9.618-1.013l-13.564-20.094a6.353,6.353,0,0,1-.924-4.984c2.433-10.55,11.121-49.187,10.937-62.253l-11.544-43.616Z" transform="translate(-1113.551 -1678.489)" fill="#e2545b" stroke="#000" stroke-linejoin="round" stroke-width="0.25"/>
    </g>
    <g id="Group_3408" data-name="Group 3408" transform="translate(1150.749 1897.931)">
      <ellipse id="Ellipse_1904" data-name="Ellipse 1904" cx="2.838" cy="2.847" rx="2.838" ry="2.847" transform="translate(7.728)" fill="#e2545b" stroke="#000" stroke-linejoin="round" stroke-width="0.25"/>
      <ellipse id="Ellipse_1905" data-name="Ellipse 1905" cx="2.838" cy="2.847" rx="2.838" ry="2.847" transform="translate(0 15.002)" fill="#e2545b" stroke="#000" stroke-linejoin="round" stroke-width="0.25"/>
      <ellipse id="Ellipse_1906" data-name="Ellipse 1906" cx="2.838" cy="2.847" rx="2.838" ry="2.847" transform="translate(16.207 2.614)" fill="#f9d0bb" stroke="#000" stroke-linejoin="round" stroke-width="0.25"/>
      <path id="Path_11187" data-name="Path 11187" d="M1127.576,1837.89a109.27,109.27,0,0,1,0,22.249,149.58,149.58,0,0,0,0,25.446" transform="translate(-1117.011 -1832.196)" fill="none" stroke="#000" stroke-linejoin="round" stroke-width="0.25"/>
      <path id="Path_11188" data-name="Path 11188" d="M1122.445,1847.821s.435,21.249,6.927,22.1" transform="translate(-1119.339 -1827.138)" fill="none" stroke="#000" stroke-linejoin="round" stroke-width="0.25"/>
      <path id="Path_11189" data-name="Path 11189" d="M1135.282,1839.6c.036.008-1.3,13.216-7.568,12.423" transform="translate(-1116.655 -1831.326)" fill="none" stroke="#000" stroke-linejoin="round" stroke-width="0.25"/>
    </g>
    <g id="Group_3409" data-name="Group 3409" transform="translate(1093.742 1864.431)">
      <ellipse id="Ellipse_1907" data-name="Ellipse 1907" cx="5.416" cy="5.433" rx="5.416" ry="5.433" transform="matrix(0.895, -0.446, 0.446, 0.895, 15.872, 4.832)" fill="#e2545b" stroke="#000" stroke-linejoin="round" stroke-width="0.25"/>
      <ellipse id="Ellipse_1908" data-name="Ellipse 1908" cx="3.326" cy="3.337" rx="3.326" ry="3.337" transform="matrix(0.895, -0.446, 0.446, 0.895, 0, 10.719)" fill="#f9d0bb" stroke="#000" stroke-linejoin="round" stroke-width="0.25"/>
      <ellipse id="Ellipse_1909" data-name="Ellipse 1909" cx="3.351" cy="3.362" rx="3.351" ry="3.362" transform="matrix(0.895, -0.446, 0.446, 0.895, 39.675, 47.269)" fill="#f9d0bb" stroke="#000" stroke-linejoin="round" stroke-width="0.25"/>
      <path id="Path_11190" data-name="Path 11190" d="M1097.849,1820.25s-2.879,67.448,25.5,87.136" transform="translate(-1074.902 -1807.681)" fill="none" stroke="#000" stroke-linejoin="round" stroke-width="0.25"/>
      <path id="Path_11191" data-name="Path 11191" d="M1090.6,1821.129s1.313,36.085,13.438,37.691" transform="translate(-1078.55 -1807.234)" fill="none" stroke="#000" stroke-linejoin="round" stroke-width="0.25"/>
      <path id="Path_11192" data-name="Path 11192" d="M1085.665,1822.227s.488,26.76,12.118,25.8" transform="translate(-1081.066 -1806.674)" fill="none" stroke="#000" stroke-linejoin="round" stroke-width="0.25"/>
      <path id="Path_11193" data-name="Path 11193" d="M1098.147,1836.63s1.283-6.656,12.224-7.09C1110.371,1829.54,1108.5,1838.738,1098.147,1836.63Z" transform="translate(-1074.708 -1802.95)" fill="#2e8e89" stroke="#000" stroke-linejoin="round" stroke-width="0.25"/>
      <path id="Path_11194" data-name="Path 11194" d="M1096.474,1869.062s5.882,11.9,18.82,5.348A16.4,16.4,0,0,0,1096.474,1869.062Z" transform="translate(-1075.56 -1783.373)" fill="#2e8e89" stroke="#000" stroke-linejoin="round" stroke-width="0.25"/>
      <path id="Path_11195" data-name="Path 11195" d="M1115.337,1846.468s5.852,24.643-9.963,29.82" transform="translate(-1071.027 -1794.327)" fill="none" stroke="#000" stroke-linejoin="round" stroke-width="0.25"/>
      <path id="Path_11196" data-name="Path 11196" d="M1106.208,1851.43s-.481,11.24,8.318,12.386C1114.527,1863.816,1114.59,1854.121,1106.208,1851.43Z" transform="translate(-1070.604 -1791.8)" fill="#2e8e89" stroke="#000" stroke-linejoin="round" stroke-width="0.25"/>
    </g>
    <path id="Path_11197" data-name="Path 11197" d="M1273.45,1916.6c-1.39-7.861-5.511-16.776-13.694-16.665a11.317,11.317,0,0,0-1.245.086C1260.98,1908.48,1269.331,1912.854,1273.45,1916.6Z" transform="translate(100.715 97.338)" fill="#fff5e6" stroke="#000" stroke-linejoin="round" stroke-width="0.25"/>
    <g id="Group_3410" data-name="Group 3410" transform="translate(1340.833 1997.361)">
      <path id="Path_11198" data-name="Path 11198" d="M1248.705,1909.692c2.361,6.6,10.8,11.113,12.914,20.176a51.88,51.88,0,0,0,5.856-.782c-2.782-6.561-12.952-13.625-17.035-22.471C1249.81,1907.612,1249.233,1908.644,1248.705,1909.692Z" transform="translate(-1245.112 -1896.622)" fill="#f9d0bb" stroke="#000" stroke-linejoin="round" stroke-width="0.25"/>
      <path id="Path_11199" data-name="Path 11199" d="M1246.979,1925.146c1.574,3.274,8.668,4.232,15.853,3.683-2.113-9.062-10.553-13.572-12.914-20.176C1246.712,1915,1245.433,1921.931,1246.979,1925.146Z" transform="translate(-1246.325 -1895.584)" fill="#fff5e6" stroke="#000" stroke-linejoin="round" stroke-width="0.25"/>
      <path id="Path_11200" data-name="Path 11200" d="M1257.174,1901.441a25.418,25.418,0,0,0-7.319,7.808c4.083,8.846,14.253,15.91,17.035,22.471,5.2-1.008,9.581-2.765,10.737-4.913C1276.392,1919.561,1262.337,1912.145,1257.174,1901.441Z" transform="translate(-1244.527 -1899.257)" fill="#fff5e6" stroke="#000" stroke-linejoin="round" stroke-width="0.25"/>
      <path id="Path_11201" data-name="Path 11201" d="M1275.39,1916.573c-4.119-3.748-12.47-8.122-14.94-16.579a13.586,13.586,0,0,0-5.746,2.184c5.163,10.7,19.218,18.12,20.453,25.366l.009-.015C1276.067,1925.834,1276.244,1921.4,1275.39,1916.573Z" transform="translate(-1242.057 -1899.994)" fill="#f9d0bb" stroke="#000" stroke-linejoin="round" stroke-width="0.25"/>
    </g>
  </g>
</svg>
