<svg xmlns="http://www.w3.org/2000/svg" width="349.775" height="427.298" viewBox="0 0 349.775 427.298">
  <g id="Group_3972" data-name="Group 3972" transform="translate(-1045.436 -644.67)">
    <g id="Group_3339" data-name="Group 3339" transform="translate(1045.611 926.536)">
      <g id="Group_3335" data-name="Group 3335" transform="translate(0 76.246)">
        <path id="Path_10866" data-name="Path 10866" d="M1045.611,904.042s21.262,51.294,86.275,34.832C1131.885,938.874,1096.27,895.066,1045.611,904.042Z" transform="translate(-1045.611 -902.83)" fill="#e54c17" stroke="#000" stroke-miterlimit="10" stroke-width="0.25"/>
        <path id="Path_10867" data-name="Path 10867" d="M1045.611,903.7c17.187,13.016,60.326,36.605,86.275,34.832" transform="translate(-1045.611 -902.492)" fill="#e54c17" stroke="#000" stroke-miterlimit="10" stroke-width="0.25"/>
      </g>
      <g id="Group_3336" data-name="Group 3336" transform="translate(28.776 10.266)">
        <path id="Path_10868" data-name="Path 10868" d="M1066.353,855.272s5.764,94.837,57,101.569C1123.358,956.841,1127.182,895.312,1066.353,855.272Z" transform="translate(-1066.353 -855.272)" fill="#ed7235" stroke="#000" stroke-miterlimit="10" stroke-width="0.25"/>
        <path id="Path_10869" data-name="Path 10869" d="M1066.353,855.272s31.855,49.951,57,101.569" transform="translate(-1066.353 -855.272)" fill="#ed7235" stroke="#000" stroke-miterlimit="10" stroke-width="0.25"/>
      </g>
      <g id="Group_3337" data-name="Group 3337" transform="translate(86.211 47.207)">
        <path id="Path_10870" data-name="Path 10870" d="M1160.378,881.9s-39.338,16.557-52.626,65.064C1107.752,946.962,1154.856,941.9,1160.378,881.9Z" transform="translate(-1107.752 -881.899)" fill="#ed7235" stroke="#000" stroke-miterlimit="10" stroke-width="0.25"/>
        <path id="Path_10871" data-name="Path 10871" d="M1107.752,946.962c37.425-26.712,52.626-65.064,52.626-65.064" transform="translate(-1107.752 -881.899)" fill="#ed7235" stroke="#000" stroke-miterlimit="10" stroke-width="0.25"/>
      </g>
      <g id="Group_3338" data-name="Group 3338" transform="translate(76.386)">
        <path id="Path_10872" data-name="Path 10872" d="M1111.235,959.509c-25.046-62.632,2.3-111.637,2.3-111.637S1149.762,923.528,1111.235,959.509Z" transform="translate(-1100.671 -847.872)" fill="#e54c17" stroke="#000" stroke-miterlimit="10" stroke-width="0.25"/>
        <path id="Path_10873" data-name="Path 10873" d="M1110.589,847.872s10.7,73.4-2.3,111.637" transform="translate(-1097.721 -847.872)" fill="#e54c17" stroke="#000" stroke-miterlimit="10" stroke-width="0.25"/>
      </g>
    </g>
    <path id="Path_10874" data-name="Path 10874" d="M1329.248,930.809s-19.2,29.312-62.124,26.623c-30.909-1.937-44.91-28.325-51.619-49.61l6.616-3.56s8.307,30.956,26.222,38.972c0,0-20.933-24.815-23.621-64.313l6.677-2.468s3.523,38.4,23.593,60.788c0,0-11.79-25.7-8.469-70.247l7.532.524s-1.715,43.836,7.331,67.374c0,0-1.249-42.84,9.724-66.187l7.84,2.483s-9.3,18.55-8.7,64.32c0,0,10.078-41.157,27.664-64.939l6.465,3.653s-21.667,34.471-23.94,61.995c0,0,19.927-17.686,30.611-52.894l6.774,4.992s-6.074,29.717-30.336,52.141c0,0,26.354-14.1,36.068-32.15l4.53,5.266s-9.785,18.848-34.792,32.79c0,0,18.85-4.519,31.727-20.732Z" transform="translate(65.808 86.071)" fill="#ed7235" stroke="#000" stroke-miterlimit="10" stroke-width="0.25"/>
    <g id="Group_3345" data-name="Group 3345" transform="translate(1116.832 644.785)">
      <g id="Group_3344" data-name="Group 3344">
        <path id="Path_10875" data-name="Path 10875" d="M1150.6,725.776s-4.671,14.323-19.616,25.533l23.134,42.967s25.749-46.393,12.36-66.008Z" transform="translate(-1083.764 -613.414)" fill="#45805c" stroke="#000" stroke-miterlimit="10" stroke-width="0.25"/>
        <path id="Path_10876" data-name="Path 10876" d="M1141,921.41a198,198,0,0,0,7.683,23.074s-10.158-.325-17.576.289a2.773,2.773,0,0,0-2.529,2.854h0a2.774,2.774,0,0,0,1.307,2.289,70.112,70.112,0,0,0,24.654,8.613,4.239,4.239,0,0,0,4.825-4.075c.2-7.571.144-23.138-3.169-33.467C1148.163,914.893,1141,921.41,1141,921.41Z" transform="translate(-1084.697 -538.809)" fill="#fff" stroke="#000" stroke-miterlimit="10" stroke-width="0.25"/>
        <path id="Path_10877" data-name="Path 10877" d="M1228.9,932.194s6.654,10.337,12.823,14.7c0,0-7.8,9.212-10.252,12.4-2.36,3.06,1.533,4.6,4.192,2.589,3.348-2.536,10.3-7.254,13.8-9.571,2.9-1.922,2.014-4.932,1.333-7.35l-5.308-18.812Z" transform="translate(-1045.838 -535.802)" fill="#fff" stroke="#000" stroke-miterlimit="10" stroke-width="0.25"/>
        <path id="Path_10878" data-name="Path 10878" d="M1162.2,817.76s-36.9,24.5-43.649,77.4,26.678,65.328,26.678,65.328l15.2-.423s25.257-35.9,32.854-64.038C1193.277,896.025,1210.792,812.238,1162.2,817.76Z" transform="translate(-1088.928 -577.886)" fill="#ffba31" stroke="#000" stroke-miterlimit="10" stroke-width="0.25"/>
        <path id="Path_10879" data-name="Path 10879" d="M1141.422,956.225s-37.3-74.341,25.533-128.8" transform="translate(-1083.977 -574.04)" fill="none" stroke="#000" stroke-miterlimit="10" stroke-width="0.25"/>
        <path id="Path_10880" data-name="Path 10880" d="M1170.556,845.366s-39.176,30.862-27.232,103.744" transform="translate(-1079.861 -567.092)" fill="none" stroke="#000" stroke-miterlimit="10" stroke-width="0.25"/>
        <path id="Path_10881" data-name="Path 10881" d="M1147.491,941.668s4.47-51.29,29.366-76.578" transform="translate(-1077.369 -559.452)" fill="none" stroke="#000" stroke-miterlimit="10" stroke-width="0.25"/>
        <path id="Path_10882" data-name="Path 10882" d="M1151.941,706.1s.769,17.242-3.044,29.835-19.406,69.216,3.094,111.252c0,0,41.909,10.282,81.434,9.7,0,0-7.255-50.755-54.9-122.032-22.313-33.379-9.213-50.692-9.213-50.692Z" transform="translate(-1080.238 -629.532)" fill="#45805c" stroke="#000" stroke-miterlimit="10" stroke-width="0.25"/>
        <g id="Group_3340" data-name="Group 3340" transform="translate(0 217.718)">
          <circle id="Ellipse_1835" data-name="Ellipse 1835" cx="7.429" cy="7.429" r="7.429" transform="translate(31.446)" fill="#fff" stroke="#000" stroke-miterlimit="10" stroke-width="0.25"/>
          <line id="Line_574" data-name="Line 574" x2="15.984" y2="8.177" transform="translate(26.768 9.847)" fill="none" stroke="#000" stroke-miterlimit="10" stroke-width="0.25"/>
          <path id="Path_10883" data-name="Path 10883" d="M1096.947,980.975c1.535-3.875,34.76-169.213,34.76-169.213" transform="translate(-1096.947 -797.826)" fill="none" stroke="#000" stroke-miterlimit="10" stroke-width="0.25"/>
        </g>
        <path id="Path_10884" data-name="Path 10884" d="M1148.667,801.673s5.277,162.691,111.305,178.735l16.59-6.047s-22.023-106.727-46.461-162.986Z" transform="translate(-1076.914 -584.016)" fill="#ffba31" stroke="#000" stroke-miterlimit="10" stroke-width="0.25"/>
        <g id="Group_3343" data-name="Group 3343" transform="translate(26.662)">
          <line id="Line_575" data-name="Line 575" x2="105.99" y2="9.88" transform="translate(0 34.115)" fill="none" stroke="#000" stroke-miterlimit="10" stroke-width="0.25"/>
          <g id="Group_3342" data-name="Group 3342" transform="translate(30.699 34.75)">
            <path id="Path_10885" data-name="Path 10885" d="M1140.822,672.264s-8.062,23.224,4.6,38.407c10.748,12.884,28.416,4.5,31.772-12.5a65.025,65.025,0,0,0-.88-28.342Z" transform="translate(-1138.293 -669.833)" fill="#fff" stroke="#000" stroke-miterlimit="10" stroke-width="0.25"/>
            <g id="Group_3341" data-name="Group 3341" transform="translate(6.152 17.457)">
              <ellipse id="Ellipse_1836" data-name="Ellipse 1836" cx="2.731" cy="1.055" rx="2.731" ry="1.055" transform="translate(0 5.455) rotate(-87.07)"/>
              <ellipse id="Ellipse_1837" data-name="Ellipse 1837" cx="2.731" cy="1.055" rx="2.731" ry="1.055" transform="translate(6.562 5.79) rotate(-87.07)"/>
            </g>
          </g>
          <path id="Path_10886" data-name="Path 10886" d="M1140.116,681.966s.23-9.105,10.212-16.1c10.892-7.633,20.273-5.365,33.864-15.018,7.508-5.333,13.919-8.564,18.675-3.606s2.536,12.848-8.045,16.906-17.448,9.152-17.98,21.272Z" transform="translate(-1106.888 -644.785)" fill="#ffba31" stroke="#000" stroke-miterlimit="10" stroke-width="0.25"/>
        </g>
        <path id="Path_10887" data-name="Path 10887" d="M1158.749,802.875s.767,124.556,99.3,176.345" transform="translate(-1073.008 -583.551)" fill="none" stroke="#000" stroke-miterlimit="10" stroke-width="0.25"/>
        <path id="Path_10888" data-name="Path 10888" d="M1174.856,804.793c3.142,58.357,36.268,136.226,82.988,171.485" transform="translate(-1066.77 -582.808)" fill="none" stroke="#000" stroke-miterlimit="10" stroke-width="0.25"/>
        <path id="Path_10889" data-name="Path 10889" d="M1193.177,806.976s-.3,72,62.293,166.735" transform="translate(-1059.673 -581.962)" fill="none" stroke="#000" stroke-miterlimit="10" stroke-width="0.25"/>
        <path id="Path_10890" data-name="Path 10890" d="M1114.427,725.776c-4.048,9.341,7.427,38.815-7.429,66.943,12.955-.721,26.587,19.5,52.306,10.454,9.734-27.139-4.9-38.375,4.1-59.026C1163.4,744.147,1122.212,746.637,1114.427,725.776Z" transform="translate(-1093.054 -613.414)" fill="#ffba31" stroke="#000" stroke-miterlimit="10" stroke-width="0.25"/>
        <circle id="Ellipse_1838" data-name="Ellipse 1838" cx="7.429" cy="7.429" r="7.429" transform="translate(13.944 143.953)" fill="#fff" stroke="#000" stroke-miterlimit="10" stroke-width="0.25"/>
      </g>
      <path id="Path_10891" data-name="Path 10891" d="M1167.82,729s7.275,21.14-1.616,42.1-12.934,16.975-25.463,30.08-28.293,15.126-26.272,24.423,16.167,5.659,22.634,16.572,15.359,6.085,15.763-2.617,2.425-15.571,8.084-18.805,19,.4,23.038-14.55-3.638-17.246-2.021-26.407,4.806-9.954,3.212-22.289-2.182-15.47-4.394-21.527" transform="translate(-1090.229 -612.168)" fill="#45805c" stroke="#000" stroke-miterlimit="10" stroke-width="0.25"/>
    </g>
  </g>
</svg>
