<svg xmlns="http://www.w3.org/2000/svg" width="426.516" height="387.972" viewBox="0 0 426.516 387.972">
  <g id="Group_3978" data-name="Group 3978" transform="translate(-107.761 -1195.4)">
    <g id="Group_3346" data-name="Group 3346" transform="translate(252.76 1409.365)">
      <path id="Path_10892" data-name="Path 10892" d="M489.182,1437.607c1.353-11.471-16.083-22.126-30.132-13.825,0,0,1.6-21.923-18.967-31.632-17.215-8.128-30.729.888-30.729.888s-9.725-50-72.729-49.936-74.042,40-72.562,51.122c0,0-9.094-6.191-17.567-.485s-6.953,16.009-6.953,16.009-29.98.417-31.61,18.884c-1.067,12.072,10.953,22.252,41.965,22.252,15.547,0,84.24,2.532,113.435,2.294C403.611,1452.852,486.3,1462.007,489.182,1437.607Z" transform="translate(-207.868 -1343.102)" fill="#cece46" stroke="#000" stroke-miterlimit="10" stroke-width="0.25"/>
      <path id="Path_10893" data-name="Path 10893" d="M370.221,1400.936s.67-7.525-6.083-9.294-9.719,6.069-9.274,8.512" transform="translate(-141.877 -1321.42)" fill="none" stroke="#000" stroke-linejoin="round" stroke-width="0.25"/>
      <path id="Path_10894" data-name="Path 10894" d="M293.407,1373.291s-6.244-5.59-13.234-2.265c-7.953,3.781-5.66,12.414-5.535,15.556" transform="translate(-178.064 -1331.037)" fill="none" stroke="#000" stroke-linejoin="round" stroke-width="0.25"/>
      <path id="Path_10895" data-name="Path 10895" d="M284.705,1381.908c-14.414-5.289-39.955,2.49-31.046,33.607" transform="translate(-188.132 -1326.362)" fill="none" stroke="#000" stroke-linejoin="round" stroke-width="0.25"/>
      <path id="Path_10896" data-name="Path 10896" d="M368.717,1394.721c-4.847-1.687-6.893,12.93-22.32,28.736-9.425,9.655-24.988,27.367-28.271,19.938-6.215-14.063-.949-48.777-8.035-48.674-9.226.133,2.381,35.877-1.488,46.293s-24.614-22.352-32.236-32.984c-4.783-6.673-8.887-.719-.675,11.817s20.116,24.143,25.77,28.012,4.825,9.558-.3,14.188c-5.877,5.313-21.43,15.024-23.142,23.358s6.774,9.474,11.238,3.523,26.712-29.412,40.433-39.134C352.2,1433.848,377.645,1397.827,368.717,1394.721Z" transform="translate(-179.518 -1319.981)" fill="#aed1c1" stroke="#000" stroke-linejoin="round" stroke-width="0.25"/>
    </g>
    <g id="Group_3354" data-name="Group 3354" transform="translate(107.901 1195.545)">
      <g id="Group_3347" data-name="Group 3347" transform="translate(0 304.047)">
        <path id="Path_10897" data-name="Path 10897" d="M149.95,1442.749c4.139,2.227-4.743,15.522-4.743,15.522s13.965-9.756,16.673-4.6c4.04,7.694-24.866,12.471-28.171,18.739,0,0-.53-15.037,5.462-23.626C143.668,1442.336,148.082,1441.742,149.95,1442.749Z" transform="translate(-96.317 -1388.756)" fill="#aed1c1" stroke="#000" stroke-linejoin="round" stroke-width="0.25"/>
        <path id="Path_10898" data-name="Path 10898" d="M117.269,1432.6c8.857,5.857,20.7,11.273,25.654,33.849,0,0,1.861-16.75,11.579-28.124s13.379-19.591,8.686-22.037c-4.865-2.536-11.971,6.943-13.74,16.869,0,0,3.194-25.228-4.25-24.815s-2.9,17.37-2.9,17.37-8.686-24.14-16.75-19.825,8.479,25.615,8.479,25.615-20-22.8-25.436-13.442C105.958,1422.6,111.26,1428.624,117.269,1432.6Z" transform="translate(-107.901 -1405.368)" fill="#e5aeae" stroke="#000" stroke-miterlimit="10" stroke-width="0.25"/>
        <path id="Path_10899" data-name="Path 10899" d="M129.086,1426.443s4.544,10.344,4.324,30.539l2.169,20.385" transform="translate(-98.388 -1395.903)" fill="none" stroke="#000" stroke-linecap="round" stroke-linejoin="round" stroke-width="0.25"/>
        <path id="Path_10900" data-name="Path 10900" d="M144.239,1471.069a27.1,27.1,0,0,0-11.964-21.128c-11.964-7.89-17.309-4.072-16.29,0s8.654,8.267,8.654,8.267-12.232-4.442-14,0c-2.561,6.432,7.127,8.025,14.51,7.006S143.221,1467.251,144.239,1471.069Z" transform="translate(-106.86 -1387.414)" fill="#aed1c1" stroke="#000" stroke-linejoin="round" stroke-width="0.25"/>
      </g>
      <g id="Group_3353" data-name="Group 3353" transform="translate(17.887)">
        <g id="Group_3348" data-name="Group 3348" transform="translate(158.115 302.065)">
          <path id="Path_10901" data-name="Path 10901" d="M229.36,1417.317l19.538,53.761,14.292-3.335-13.816-57.168Z" transform="translate(-229.36 -1401.047)" fill="#fff" stroke="#000" stroke-linejoin="round" stroke-width="0.25"/>
          <path id="Path_10902" data-name="Path 10902" d="M245.25,1453.361s-8.742,4.821-7.679,8.586c.546,1.936,7.521.614,14.61-4.362,7.85-5.512,7.361-7.558,7.361-7.558Z" transform="translate(-225.712 -1383.33)" stroke="#000" stroke-linejoin="round" stroke-width="0.25"/>
          <path id="Path_10903" data-name="Path 10903" d="M283.674,1413.528l-14.769,63.362H257.948L241.033,1404Z" transform="translate(-224.118 -1404)" fill="#fff" stroke="#000" stroke-linejoin="round" stroke-width="0.25"/>
          <path id="Path_10904" data-name="Path 10904" d="M254.853,1454.3s-9,7.471-6.486,10.262c3.736,4.15,17.442-10.262,17.442-10.262Z" transform="translate(-221.023 -1381.411)" stroke="#000" stroke-linejoin="round" stroke-width="0.25"/>
        </g>
        <path id="Path_10905" data-name="Path 10905" d="M199.966,1324.014s-19.332,27.942-17.4,51.532c.691,8.431,8.645,19.713,24.207,13.9s14.707-59.954,11.339-65.431Z" transform="translate(-92.318 -1137.854)" fill="#fff" stroke="#000" stroke-linejoin="round" stroke-width="0.25"/>
        <g id="Group_3349" data-name="Group 3349" transform="translate(103.615 125.817)">
          <path id="Path_10906" data-name="Path 10906" d="M216.311,1288.91s-10.222,25.809-21.765,38.994,16.014,26.047,21.765,21.761,19.12-46.043,11.033-60.755S216.311,1288.91,216.311,1288.91Z" transform="translate(-191.749 -1282.371)" fill="#af485c" stroke="#000" stroke-miterlimit="10" stroke-width="0.25"/>
          <path id="Path_10907" data-name="Path 10907" d="M198.614,1307s8.558,11.524,23.591,11.661" transform="translate(-188.667 -1271.313)" fill="none" stroke="#000" stroke-linejoin="round" stroke-width="0.25"/>
          <path id="Path_10908" data-name="Path 10908" d="M195.049,1312.133s8.48,16.49,24.531,16.215" transform="translate(-190.267 -1269.007)" fill="none" stroke="#000" stroke-linejoin="round" stroke-width="0.25"/>
          <path id="Path_10909" data-name="Path 10909" d="M196.078,1343.634s19.468-13.07,27.266-59.012" transform="translate(-189.805 -1281.361)" fill="none" stroke="#000" stroke-linejoin="round" stroke-width="0.25"/>
        </g>
        <path id="Path_10910" data-name="Path 10910" d="M376.425,1401.878a272.258,272.258,0,0,0-32.361-66.859c-41.006-62.291-101.11-82.235-101.11-82.235l-20.474,9.661c-17.6,37.613-20.032,130.19-19.894,182.77C291.373,1449.428,354.3,1415.862,376.425,1401.878Z" transform="translate(-83.271 -1169.841)" fill="#e5aeae" stroke="#000" stroke-miterlimit="10" stroke-width="0.25"/>
        <path id="Path_10911" data-name="Path 10911" d="M376.41,1355.625c-22.121,13.983-85.05,47.55-173.839,43.337.059,22.807.6,38.1.6,38.1.819,25.549,56.983,13.052,95.172,5.857s90.428-18.789,86.595-45.812C384.941,1397.107,384.461,1380.9,376.41,1355.625Z" transform="translate(-83.275 -1123.658)" fill="#af485c" stroke="#000" stroke-miterlimit="10" stroke-width="0.25"/>
        <path id="Path_10912" data-name="Path 10912" d="M202.638,1410.737s40.939,4.53,93.913-8.622,84.072-36.073,84.072-36.073" transform="translate(-83.245 -1118.98)" fill="none" stroke="#000" stroke-miterlimit="10" stroke-width="0.25"/>
        <path id="Path_10913" data-name="Path 10913" d="M384.241,1381.343s-34.382,21.935-83.223,32.285-97.973,8.581-97.973,8.581" transform="translate(-83.062 -1112.109)" fill="none" stroke="#000" stroke-miterlimit="10" stroke-width="0.25"/>
        <path id="Path_10914" data-name="Path 10914" d="M210.757,1385.769s-2,35.985,7.838,52.584" transform="translate(-79.674 -1110.122)" fill="none" stroke="#000" stroke-miterlimit="10" stroke-width="0.25"/>
        <path id="Path_10915" data-name="Path 10915" d="M228.056,1385.273s.135,35.821,5.486,53.3" transform="translate(-71.83 -1110.344)" fill="none" stroke="#000" stroke-miterlimit="10" stroke-width="0.25"/>
        <path id="Path_10916" data-name="Path 10916" d="M245.118,1383.428s5.5,21.524,6.589,52.149" transform="translate(-64.168 -1111.173)" fill="none" stroke="#000" stroke-miterlimit="10" stroke-width="0.25"/>
        <path id="Path_10917" data-name="Path 10917" d="M260.613,1380.543s10.88,27.067,7.845,51.911" transform="translate(-57.21 -1112.468)" fill="none" stroke="#000" stroke-miterlimit="10" stroke-width="0.25"/>
        <path id="Path_10918" data-name="Path 10918" d="M273.983,1377.086s14.894,31.988,9.191,52.837" transform="translate(-51.206 -1114.021)" fill="none" stroke="#000" stroke-miterlimit="10" stroke-width="0.25"/>
        <path id="Path_10919" data-name="Path 10919" d="M286.983,1372.812s13.707,21.391,12.055,53.791" transform="translate(-45.368 -1115.94)" fill="none" stroke="#000" stroke-miterlimit="10" stroke-width="0.25"/>
        <path id="Path_10920" data-name="Path 10920" d="M300.691,1367.3s14.821,31.3,12.022,55.168" transform="translate(-39.212 -1118.417)" fill="none" stroke="#000" stroke-miterlimit="10" stroke-width="0.25"/>
        <path id="Path_10921" data-name="Path 10921" d="M312.7,1361.4s15.714,33.245,12.221,54.167" transform="translate(-33.818 -1121.067)" fill="none" stroke="#000" stroke-miterlimit="10" stroke-width="0.25"/>
        <path id="Path_10922" data-name="Path 10922" d="M172.879,1371.409l9.468,56.52a7.786,7.786,0,0,0,5.937,6.331c10.98,2.479,37.329,5.2,56.095-19.1a7.819,7.819,0,0,0,.5-8.726l-30.4-51.613Z" transform="translate(-96.609 -1124.021)" fill="#ffecd9" stroke="#000" stroke-miterlimit="10" stroke-width="0.25"/>
        <path id="Path_10923" data-name="Path 10923" d="M203.968,1363c4.159-4.871,13.53-.582,18.321,4.491s10.3,14.831,9.3,25.115c-.71,7.319-4.228,17.054-10.148,15.983s-3.189-6.111-1.41-8.625,2.1-9.7-.835-17.164-8-9.574-11.746-10.472C202.554,1371.155,201.395,1366.012,203.968,1363Z" transform="translate(-83.245 -1121.307)" fill="#ffecd9" stroke="#000" stroke-miterlimit="10" stroke-width="0.25"/>
        <path id="Path_10924" data-name="Path 10924" d="M214.8,1265.932c-3.059,1.588-4.656,7.583-2.113,13.278,5.686,12.733,27.731,63.007,51.339,82.67,36.622,30.5,57.263,21.642,59.354,21.54l-.309-6.69s-23.242,5.885-46.3-18.828c-20.577-22.052-36.857-47.641-47.524-68.147C220.132,1272.244,217.83,1266.828,214.8,1265.932Z" transform="translate(-79.302 -1163.937)" fill="#ffecd9" stroke="#000" stroke-miterlimit="10" stroke-width="0.25"/>
        <path id="Path_10925" data-name="Path 10925" d="M311.045,1357.125s-1.933-33.7-22.365-62.858a110.273,110.273,0,0,1,16.973,22.091c5.23,9.344,10.141,28.754,12.3,47.015A81.744,81.744,0,0,1,311.045,1357.125Z" transform="translate(-44.606 -1151.212)" fill="#ffecd9" stroke="#000" stroke-miterlimit="10" stroke-width="0.25"/>
        <path id="Path_10926" data-name="Path 10926" d="M258.584,1331.306s-20.33,27.263-34.163,32.8-17.981,5.186-17.29,10.027,9.336,3.113,12.8,3.113,4.495,4.15,1.382,6.225-11.758,9.683-7.954,19.019,13.142,15.562,33.889,5.879,40.806-32.506,49.106-58.787Z" transform="translate(-81.26 -1134.579)" fill="#fff" stroke="#000" stroke-linejoin="round" stroke-width="0.25"/>
        <path id="Path_10927" data-name="Path 10927" d="M172.9,1372.03c-1-4.592,8.915-11.145,16.592-14.363s23.133-6.431,25.012-2.229-6.192,11.391-17.583,16.592S173.874,1376.505,172.9,1372.03Z" transform="translate(-96.63 -1124.643)" fill="#ffecd9" stroke="#000" stroke-miterlimit="10" stroke-width="0.25"/>
        <path id="Path_10928" data-name="Path 10928" d="M142.15,1385.634c6.825-4.179,12.432,2.055,26.23,1.468s22.939-4.988,27.3-5.579c8.148-1.1,9.981,11.451,0,12.918s-24.368,8.219-30.533,16.734-12.623,7.045-18.789,1.174S133.04,1391.212,142.15,1385.634Z" transform="translate(-112.353 -1112.059)" fill="#ffecd9" stroke="#000" stroke-miterlimit="10" stroke-width="0.25"/>
        <path id="Path_10929" data-name="Path 10929" d="M146.411,1387.846a18.8,18.8,0,0,1,7.67,16.243" transform="translate(-108.495 -1109.189)" fill="none" stroke="#000" stroke-linejoin="round" stroke-width="0.25"/>
        <path id="Path_10930" data-name="Path 10930" d="M221.634,1263.686s-2.436,17.813,6.958,16.77,4.737-20.815,3.131-23.8a40.437,40.437,0,0,0-4.524-6.28l-7.451,6.28Z" transform="translate(-75.561 -1170.923)" fill="#fff" stroke="#000" stroke-linejoin="round" stroke-width="0.25"/>
        <g id="Group_3350" data-name="Group 3350" transform="translate(171.656 122.335)">
          <path id="Path_10931" data-name="Path 10931" d="M265.42,1279.968h0a9.753,9.753,0,0,1,5.973,2.029c8.983,6.934,34.944,32.51,23.452,90.047a5.634,5.634,0,0,1-7.273,4.268c-12.275-4.039-36.262-13.469-46.572-25.238-3.508-4-2.432-10.19-.509-13.329,12.517-20.443,10.261-41.727,16.551-53.055A9.522,9.522,0,0,1,265.42,1279.968Z" transform="translate(-238.704 -1279.968)" fill="#af485c" stroke="#000" stroke-miterlimit="10" stroke-width="0.25"/>
          <path id="Path_10932" data-name="Path 10932" d="M253.063,1297.488s26.132-.607,35.3,14.63" transform="translate(-232.256 -1272.102)" fill="none" stroke="#000" stroke-linejoin="round" stroke-width="0.25"/>
          <path id="Path_10933" data-name="Path 10933" d="M247.584,1307.583s31.871.293,46.038,19.452" transform="translate(-234.717 -1267.567)" fill="none" stroke="#000" stroke-linejoin="round" stroke-width="0.25"/>
          <path id="Path_10934" data-name="Path 10934" d="M243.878,1317.65s36.318,8.435,50.622,24.994" transform="translate(-236.381 -1263.046)" fill="none" stroke="#000" stroke-linejoin="round" stroke-width="0.25"/>
          <path id="Path_10935" data-name="Path 10935" d="M260.856,1286.229s8.749,45.995-10.558,73.46" transform="translate(-233.498 -1277.156)" fill="none" stroke="#000" stroke-linejoin="round" stroke-width="0.25"/>
          <path id="Path_10936" data-name="Path 10936" d="M265.245,1292.9s13.636,40.109,1.049,74.3" transform="translate(-226.786 -1274.162)" fill="none" stroke="#000" stroke-linejoin="round" stroke-width="0.25"/>
        </g>
        <path id="Path_10937" data-name="Path 10937" d="M219.749,1230.148l6.433-12.452,6.413,4.208-5.57,11.539Z" transform="translate(-75.561 -1185.598)" fill="#ffecd9" stroke="#000" stroke-miterlimit="10" stroke-width="0.25"/>
        <path id="Path_10938" data-name="Path 10938" d="M218.4,1212.612c-.425-4.985,1.114-13.866,11.423-16.432,13.226-3.292,19.238,7.014,20.041,12.826s1.2,8.618,5.611,8.416,9.219,4.609,5.411,11.423-15.231,10.622-26.653,5.011S219.121,1221.072,218.4,1212.612Z" transform="translate(-76.195 -1195.545)" stroke="#000" stroke-linejoin="round" stroke-width="0.25"/>
        <path id="Path_10939" data-name="Path 10939" d="M120.245,1406.535s9.965-16.941,32.885-15.2" transform="translate(-120.245 -1107.678)" fill="none" stroke="#000" stroke-linejoin="round" stroke-width="0.25"/>
        <path id="Path_10940" data-name="Path 10940" d="M125.231,1432.311s1.743-29.773,29.4-35.812" transform="translate(-118.006 -1105.303)" fill="none" stroke="#000" stroke-linejoin="round" stroke-width="0.25"/>
        <path id="Path_10941" data-name="Path 10941" d="M152.071,1401.786s-16.443,16.173-14.949,36.363" transform="translate(-112.709 -1102.928)" fill="none" stroke="#000" stroke-linejoin="round" stroke-width="0.25"/>
        <g id="Group_3351" data-name="Group 3351" transform="translate(124.954 44.267)">
          <path id="Path_10942" data-name="Path 10942" d="M243.827,1242.527a34.239,34.239,0,0,0-2.639-7.09c-3.67,9.6-12.42,2.824-12.42,2.824-4.572,8.776-12.068,2.194-12.068,2.194-2.171,6.693-10.025,4.8-10.19,4.754a34.357,34.357,0,0,0,.974,6.476c3.45,13.688,14.382,22.735,24.417,20.206S247.278,1256.215,243.827,1242.527Z" transform="translate(-206.459 -1221.898)" fill="#fff" stroke="#000" stroke-linejoin="round" stroke-width="0.25"/>
          <path id="Path_10943" data-name="Path 10943" d="M216.717,1244.651s7.5,6.582,12.068-2.194c0,0,8.749,6.779,12.42-2.824-4.837-9.554-13.6-15.175-21.778-13.115-8.432,2.126-13.524,11.75-12.9,22.888C206.692,1249.447,214.546,1251.344,216.717,1244.651Z" transform="translate(-206.475 -1226.094)" stroke="#000" stroke-linejoin="round" stroke-width="0.25"/>
        </g>
        <ellipse id="Ellipse_1839" data-name="Ellipse 1839" cx="1.1" cy="2.293" rx="1.1" ry="2.293" transform="translate(137.019 76.894) rotate(-14.206)"/>
        <ellipse id="Ellipse_1840" data-name="Ellipse 1840" cx="1.1" cy="2.293" rx="1.1" ry="2.293" transform="translate(141.99 75.489) rotate(-14.206)"/>
        <g id="Group_3352" data-name="Group 3352" transform="translate(232.63 196.808)">
          <path id="Path_10944" data-name="Path 10944" d="M281.109,1346.651s3.389,22,8.494,27.98,12.962,7.276,25.646,1.981c12.779-5.333,12.04-13.062,11.288-18.254S318.8,1335.1,318.8,1335.1Z" transform="translate(-280.636 -1329.681)" fill="#af485c" stroke="#000" stroke-miterlimit="10" stroke-width="0.25"/>
          <circle id="Ellipse_1841" data-name="Ellipse 1841" cx="5.876" cy="5.876" r="5.876" transform="translate(20.644 19.011)" fill="#cece46" stroke="#000" stroke-miterlimit="10" stroke-width="0.25"/>
          <path id="Path_10945" data-name="Path 10945" d="M283.029,1342.071c5.546-3.62,17.771-10.526,30.552-10.709a4.883,4.883,0,0,1,4.537,2.969c1.991,4.667,3.523,13.926-11.574,19.681-16.7,6.367-22.882-.074-25.359-5.831A4.96,4.96,0,0,1,283.029,1342.071Z" transform="translate(-280.782 -1331.362)" fill="#aed1c1" stroke="#000" stroke-linejoin="round" stroke-width="0.25"/>
        </g>
        <rect id="Rectangle_200" data-name="Rectangle 200" width="15.271" height="6.996" rx="1.333" transform="matrix(0.842, -0.539, 0.539, 0.842, 140.148, 136.542)" fill="#af485c" stroke="#000" stroke-miterlimit="10" stroke-width="0.25"/>
      </g>
    </g>
  </g>
</svg>
