<svg xmlns="http://www.w3.org/2000/svg" width="392.842" height="425.764" viewBox="0 0 392.842 425.764">
  <g id="Group_3412" data-name="Group 3412" transform="translate(-1935.707 -1706.601)">
    <g id="Group_3412-2" data-name="Group 3412" transform="translate(1937.806 1991.479)">
      <path id="Path_11202" data-name="Path 11202" d="M1953.5,1917.327s1.053,2.634-5.27,20.816c-5.982,17.2-9.606,24.965-11.095,33.781a2.258,2.258,0,0,0,1.031,2.311c6.537,4.037,36.529,22.523,45.9,27.677a305.073,305.073,0,0,0,32.915,1.336c16.145-.371,29.877,3.261,37.858.053s15.774-11.187,29.876-17.868,17.853-12.134,22.2-14.454c0,0-8.7-13.306-15.662-26.375s-14.792-24.672-14.792-24.672l-94.261-5.8Z" transform="translate(-1937.098 -1885.037)" fill="#325984" stroke="#000" stroke-linejoin="round" stroke-width="0.25"/>
      <path id="Path_11203" data-name="Path 11203" d="M1968.134,1998.474s2.04-11.591,5.193-24.031,6.834-32.414,5.958-53.615" transform="translate(-1921.17 -1881.6)" fill="none" stroke="#000" stroke-linejoin="round" stroke-width="0.25"/>
      <path id="Path_11204" data-name="Path 11204" d="M2013.714,1944.036s2.453,22.176,1.4,40.572" transform="translate(-1897.779 -1869.689)" fill="none" stroke="#000" stroke-linejoin="round" stroke-width="0.25"/>
      <path id="Path_11205" data-name="Path 11205" d="M1979.026,1938.65a43.568,43.568,0,0,0-1.777,11.508,74.4,74.4,0,0,1-.507,8.631" transform="translate(-1916.753 -1872.453)" fill="none" stroke="#000" stroke-linejoin="round" stroke-width="0.25"/>
      <path id="Path_11206" data-name="Path 11206" d="M2012.172,1930.577s1.677,8.911,1.677,12.9" transform="translate(-1898.57 -1876.597)" fill="none" stroke="#000" stroke-linejoin="round" stroke-width="0.25"/>
      <path id="Path_11207" data-name="Path 11207" d="M1946.147,1926.955c-1.415-8.328,5.662-16.279,13.45-19.11s17.34-9.674,29.963-11.561,25.479-2.241,34.8,1.535,14.156,4.482,26.188,4.482,23,4.482,27.958,12.857,5.663,19.11-2.359,23.122-26.189,5.545-41.642,2.359-29.229-.826-39.682-3.893-24.405,2.716-32.04,1.534C1954.4,1936.982,1946.967,1931.774,1946.147,1926.955Z" transform="translate(-1932.548 -1894.904)" fill="#ebebf2" stroke="#000" stroke-linejoin="round" stroke-width="0.25"/>
      <ellipse id="Ellipse_1910" data-name="Ellipse 1910" cx="8.804" cy="3.549" rx="8.804" ry="3.549" transform="translate(23.067 82.395) rotate(-83.234)" fill="#fff" stroke="#000" stroke-linejoin="round" stroke-width="0.25"/>
      <path id="Path_11208" data-name="Path 11208" d="M1948.156,1943.841c1.957-.4,3.642,2.241,2.886,7.2s-4.254,6.552-5.194,2.176C1945.075,1949.619,1945.872,1944.3,1948.156,1943.841Z" transform="translate(-1932.755 -1869.81)" fill="#fff" stroke="#000" stroke-linejoin="round" stroke-width="0.25"/>
      <path id="Path_11209" data-name="Path 11209" d="M1953.187,1928.333c2.149-.464,3.541,2.961,1.741,7.837s-5.34,4.353-5.34,1.394S1950.4,1928.937,1953.187,1928.333Z" transform="translate(-1930.689 -1877.77)" fill="#fff" stroke="#000" stroke-linejoin="round" stroke-width="0.25"/>
      <path id="Path_11210" data-name="Path 11210" d="M2006.542,1938.391c2.737-1.2,5.513,7.318,5.747,11.189s-4.575,5.159-5.747.7S2004.783,1939.163,2006.542,1938.391Z" transform="translate(-1902.029 -1872.646)" fill="#fff" stroke="#000" stroke-linejoin="round" stroke-width="0.25"/>
      <path id="Path_11211" data-name="Path 11211" d="M2002.043,1929.332c1.2-.353,2.843,3.081,2.843,6.239s-3.081,3.633-3.633.79S2000.7,1929.727,2002.043,1929.332Z" transform="translate(-1904.352 -1877.249)" fill="#fff" stroke="#000" stroke-linejoin="round" stroke-width="0.25"/>
    </g>
    <g id="Group_3425" data-name="Group 3425" transform="translate(2028.59 1706.726)">
      <g id="Group_3413" data-name="Group 3413" transform="translate(25.07 366.835)">
        <path id="Path_11212" data-name="Path 11212" d="M2013.716,1973.92s-.035,7.814,6.173,7.831c16.61.047,35.284-1.271,44.612-2.232,10.338-1.065,12.5-4.488,12.323-10.721,0,0-7.5-6.241-23.794-3.2S2013.716,1973.92,2013.716,1973.92Z" transform="translate(-2013.631 -1941.136)" fill="#bcd0ed" stroke="#000" stroke-linejoin="round" stroke-width="0.25"/>
        <path id="Path_11213" data-name="Path 11213" d="M2042.431,1949.148s4.1,10.245-1.844,14.138-28.48,7.171-26.842,18.646c0,0,33.808-5.328,63.108-5.122,0,0,0-17.621-3.278-26.843Z" transform="translate(-2013.66 -1949.148)" fill="#325984" stroke="#000" stroke-linejoin="round" stroke-width="0.25"/>
        <path id="Path_11214" data-name="Path 11214" d="M2033.538,1954.722a17.045,17.045,0,0,0,7.876.138" transform="translate(-2003.458 -1946.287)" fill="none" stroke="#000" stroke-linejoin="round" stroke-width="0.25"/>
        <path id="Path_11215" data-name="Path 11215" d="M2032.136,1957.94a15.125,15.125,0,0,0,8.494.624" transform="translate(-2004.178 -1944.636)" fill="none" stroke="#000" stroke-linejoin="round" stroke-width="0.25"/>
      </g>
      <g id="Group_3414" data-name="Group 3414" transform="translate(101.253 359.867)">
        <path id="Path_11216" data-name="Path 11216" d="M2064.034,1977.018s-.722,7.855,5.138,7.539c11.279-.608,30.7-3.936,57.265-13.981a3.75,3.75,0,0,0,2.4-3.7c-.083-1.546-.206-3.441-.36-4.811l-21.889.729Z" transform="translate(-2064.006 -1935.553)" fill="#bcd0ed" stroke="#000" stroke-linejoin="round" stroke-width="0.25"/>
        <path id="Path_11217" data-name="Path 11217" d="M2089.074,1949.65s3.04,9.85,0,16.172-25.077,7.418-25.05,20.186c0,0,43.776-11.552,64.448-14.956,0,0-1.459-18-8.391-26.508Z" transform="translate(-2063.996 -1944.543)" fill="#325984" stroke="#000" stroke-linejoin="round" stroke-width="0.25"/>
        <path id="Path_11218" data-name="Path 11218" d="M2081.423,1953.03a23.616,23.616,0,0,0,6.063-1.034" transform="translate(-2055.067 -1940.718)" fill="none" stroke="#000" stroke-linejoin="round" stroke-width="0.25"/>
        <path id="Path_11219" data-name="Path 11219" d="M2081.423,1956.02s4,.383,6.534-.92" transform="translate(-2055.067 -1939.125)" fill="none" stroke="#000" stroke-linejoin="round" stroke-width="0.25"/>
      </g>
      <path id="Path_11220" data-name="Path 11220" d="M2041.808,1772.824s-29.422,61.857-30.583,120.56l27.639,5.5,18.918-131.633Z" transform="translate(-1989.841 -1675.666)" fill="#ea6157" stroke="#000" stroke-linejoin="round" stroke-width="0.25"/>
      <path id="Path_11221" data-name="Path 11221" d="M2006.726,1875.688s-4.1,22.344,12.849,19.737l4.282-21.227Z" transform="translate(-1992.372 -1620.778)" fill="#fff" stroke="#000" stroke-linejoin="round" stroke-width="0.25"/>
      <path id="Path_11222" data-name="Path 11222" d="M2044.766,1777.809s-13.266,65.557-26.012,148.172-17.276,109.813,17.6,118.209,115.6-5.166,145.3-15.5c0,0,7.749-42.255,0-116.379,0,0,4.063-105.471-19.074-145.062Z" transform="translate(-1990.803 -1675.666)" fill="#ea6157" stroke="#000" stroke-linejoin="round" stroke-width="0.25"/>
      <path id="Path_11223" data-name="Path 11223" d="M2061.727,1721.348s-9.7-12.52-20.83-4.07c0,0-11.334-3.5-12.776,6.594,0,0-10.922-3.5-11.747,11.747,0,0-15.456,5.358-5.564,16.9,0,0-13.826,7.214-3.306,18.547,0,0-15.448,10.724-.4,21.746,0,0-1.236,17,17.311,6.281,0,0,4.138,16.937,16.281,7.908,0,0,7.949,10.83,17.061-2.043h19s4.312,8.194,11.953-2.361c0,0,9.686,1.442,11.953-7.008s7.263-22.464-10.485-27.822S2061.727,1721.348,2061.727,1721.348Z" transform="translate(-1995.336 -1702.814)" fill="#ebebf2" stroke="#000" stroke-linejoin="round" stroke-width="0.25"/>
      <path id="Path_11224" data-name="Path 11224" d="M2085.456,1717.364c1.312-.994,12.606-15.172,22.007-5.222,0,0,13.876-8.208,19.348,3.73,0,0,19.4-4.726,16.414,12.685,0,0,23.379.248,11.193,21.389,0,0,11.938,8.189-2.985,16.4,0,0,12.685,7.666-1.99,17.641,0,0,2.24,14.7-13.677,17.685,0,0-.882,15.663-18.157,7.209,0,0-7.87,10.872-14.472,0l-16.6,1.8s-7.138,9.276-11.779,3.031c0,0-9.458,3.647-7.852-5.136,0,0-9.28-3.784-2.141-13.6a13.147,13.147,0,0,0-2.7-13.395C2063.692,1779.813,2085.456,1717.364,2085.456,1717.364Z" transform="translate(-1963.749 -1705.755)" fill="#ebebf2" stroke="#000" stroke-linejoin="round" stroke-width="0.25"/>
      <ellipse id="Ellipse_1911" data-name="Ellipse 1911" cx="3.969" cy="3.255" rx="3.969" ry="3.255" transform="translate(33.936 32.656)" fill="#fff" stroke="#000" stroke-linejoin="round" stroke-width="0.25"/>
      <path id="Path_11225" data-name="Path 11225" d="M2015.8,1746.37s-6.41,4.643-1.33,9.091c0,0-2.3,4.418,2.66,5.582" transform="translate(-1989.179 -1686.381)" fill="none" stroke="#000" stroke-linejoin="round" stroke-width="0.25"/>
      <path id="Path_11226" data-name="Path 11226" d="M2018.987,1761.311s-1.33,4.717,2.9,4.838c0,0,.725,6.651,6.651,1.209" transform="translate(-1985.958 -1678.713)" fill="none" stroke="#000" stroke-linejoin="round" stroke-width="0.25"/>
      <ellipse id="Ellipse_1912" data-name="Ellipse 1912" cx="3" cy="4.236" rx="3" ry="4.236" transform="translate(147.136 16.376) rotate(-73.491)" fill="#fff" stroke="#000" stroke-linejoin="round" stroke-width="0.25"/>
      <ellipse id="Ellipse_1913" data-name="Ellipse 1913" cx="3.936" cy="5.77" rx="3.936" ry="5.77" transform="translate(159.714 27.791) rotate(-73.491)" fill="#fff" stroke="#000" stroke-linejoin="round" stroke-width="0.25"/>
      <path id="Path_11227" data-name="Path 11227" d="M2110.61,1733.849s4.83.179,2.952,5.278c0,0,4.562,4.382-.716,7.156" transform="translate(-1938.834 -1692.806)" fill="none" stroke="#000" stroke-linejoin="round" stroke-width="0.25"/>
      <path id="Path_11228" data-name="Path 11228" d="M2107.368,1758.429s4.743,3.412.451,6.123c0,0,3.669,4.048.673,6.324-3.119,2.367-6.206-.687-6.206-.687" transform="translate(-1943.106 -1680.192)" fill="none" stroke="#000" stroke-linejoin="round" stroke-width="0.25"/>
      <circle id="Ellipse_1914" data-name="Ellipse 1914" cx="4.27" cy="4.27" r="4.27" transform="translate(91.349 120.683)" fill="#ebebf2" stroke="#000" stroke-linejoin="round" stroke-width="0.25"/>
      <circle id="Ellipse_1915" data-name="Ellipse 1915" cx="4.27" cy="4.27" r="4.27" transform="translate(89.317 149.776)" fill="#ebebf2" stroke="#000" stroke-linejoin="round" stroke-width="0.25"/>
      <circle id="Ellipse_1916" data-name="Ellipse 1916" cx="4.27" cy="4.27" r="4.27" transform="translate(87.923 179.195)" fill="#ebebf2" stroke="#000" stroke-linejoin="round" stroke-width="0.25"/>
      <circle id="Ellipse_1917" data-name="Ellipse 1917" cx="4.27" cy="4.27" r="4.27" transform="translate(86.412 210.953)" fill="#ebebf2" stroke="#000" stroke-linejoin="round" stroke-width="0.25"/>
      <circle id="Ellipse_1918" data-name="Ellipse 1918" cx="4.27" cy="4.27" r="4.27" transform="translate(84.95 242.988)" fill="#ebebf2" stroke="#000" stroke-linejoin="round" stroke-width="0.25"/>
      <circle id="Ellipse_1919" data-name="Ellipse 1919" cx="4.27" cy="4.27" r="4.27" transform="translate(85.851 275.45)" fill="#ebebf2" stroke="#000" stroke-linejoin="round" stroke-width="0.25"/>
      <circle id="Ellipse_1920" data-name="Ellipse 1920" cx="4.27" cy="4.27" r="4.27" transform="translate(86.735 346.177)" fill="#ebebf2" stroke="#000" stroke-linejoin="round" stroke-width="0.25"/>
      <circle id="Ellipse_1921" data-name="Ellipse 1921" cx="4.27" cy="4.27" r="4.27" transform="translate(85.851 311.333)" fill="#ebebf2" stroke="#000" stroke-linejoin="round" stroke-width="0.25"/>
      <path id="Path_11229" data-name="Path 11229" d="M2096.449,1803.8a236.8,236.8,0,0,1,8.093,65.458" transform="translate(-1946.102 -1656.909)" fill="none" stroke="#000" stroke-linejoin="round" stroke-width="0.25"/>
      <g id="Group_3417" data-name="Group 3417" transform="translate(0 196.737)">
        <path id="Path_11230" data-name="Path 11230" d="M2109.28,1877.06s-2.168,15.052,7.781,8.929c0,0-1.672,8.98,4.209,10.2,6.123,1.276,15.8.162,10.514-23.836Z" transform="translate(-1939.62 -1818.459)" fill="#fff" stroke="#000" stroke-linejoin="round" stroke-width="0.25"/>
        <g id="Group_3416" data-name="Group 3416">
          <path id="Path_11231" data-name="Path 11231" d="M2035.281,1845.013s-7.822-8.006-13.965,1.3c0,0-8.38-9.683-12.849,2.607,0,0-13.593.186-9.309,15.082a11.108,11.108,0,0,0,.931,13.966s-7.448,9.123,2.607,14.151c0,0,1.489,7.448,9.868,3.352,0,0,1.863,5.624,8.008,1.229,0,0,9.123,7.15,13.033-8.677,0,0,16.387-5.4,9.87-22.16C2043.473,1865.868,2049.246,1843.71,2035.281,1845.013Z" transform="translate(-1997.093 -1834.136)" fill="#ebebf2" stroke="#000" stroke-linejoin="round" stroke-width="0.25"/>
          <ellipse id="Ellipse_1922" data-name="Ellipse 1922" cx="3.732" cy="3.052" rx="3.732" ry="3.052" transform="translate(14.813 19.881)" fill="#fff" stroke="#000" stroke-linejoin="round" stroke-width="0.25"/>
          <ellipse id="Ellipse_1923" data-name="Ellipse 1923" cx="2.204" cy="1.512" rx="2.204" ry="1.512" transform="translate(24.965 17.309)" fill="#fff" stroke="#000" stroke-linejoin="round" stroke-width="0.25"/>
          <g id="Group_3415" data-name="Group 3415" transform="translate(151.122)">
            <path id="Path_11232" data-name="Path 11232" d="M2103.509,1849.395s-11.737,4.658-3.539,14.533c0,0-8.215,9.129,2.506,13.787,0,0-5.3,10.806,6.437,11.55,0,0-2.98,9.875,6.707,8.012,0,0,6.894,6.521,12.484-2.981,0,0,5.478,5.962,10.191-1.3,0,0,6.019,4.724,9.372-2.856,0,0,7.639-2.548,8.2-13.168s-6.892-11.364-6.892-11.364,7.453-9.367-1.491-13.254c0,0,1.863-11.526-6.147-10.222,0,0-6.708-7.453-11.366-1.118,0,0-3.538-8.863-8.2-.186-.708-4.57-7.691-6.11-10.061-.372C2111.707,1840.451,2100.342,1838.775,2103.509,1849.395Z" transform="translate(-2096.961 -1836.739)" fill="#ebebf2" stroke="#000" stroke-linejoin="round" stroke-width="0.25"/>
            <ellipse id="Ellipse_1924" data-name="Ellipse 1924" cx="2.812" cy="5.813" rx="2.812" ry="5.813" transform="translate(28.996 14.486) rotate(-80.472)" fill="#fff" stroke="#000" stroke-linejoin="round" stroke-width="0.25"/>
          </g>
        </g>
      </g>
      <g id="Group_3422" data-name="Group 3422" transform="translate(128.354 258.985)">
        <g id="Group_3418" data-name="Group 3418" transform="translate(34.875 8.289)">
          <rect id="Rectangle_201" data-name="Rectangle 201" width="4.509" height="14.317" transform="translate(0 8.352) rotate(-8.558)" fill="#bcd0ed" stroke="#000" stroke-linejoin="round" stroke-width="0.25"/>
          <rect id="Rectangle_202" data-name="Rectangle 202" width="4.509" height="14.317" transform="translate(37.686 0.671) rotate(-8.558)" fill="#bcd0ed" stroke="#000" stroke-linejoin="round" stroke-width="0.25"/>
        </g>
        <g id="Group_3421" data-name="Group 3421" transform="translate(0 19.235)">
          <circle id="Ellipse_1925" data-name="Ellipse 1925" cx="7.371" cy="7.371" r="7.371" transform="translate(32.152 6.343)" fill="#325984" stroke="#000" stroke-linejoin="round" stroke-width="0.25"/>
          <circle id="Ellipse_1926" data-name="Ellipse 1926" cx="7.371" cy="7.371" r="7.371" transform="translate(70.57)" fill="#325984" stroke="#000" stroke-linejoin="round" stroke-width="0.25"/>
          <g id="Group_3419" data-name="Group 3419" transform="translate(0 4.169)">
            <rect id="Rectangle_203" data-name="Rectangle 203" width="62.6" height="76.507" transform="translate(28.18 12.397) rotate(-8.86)" fill="#bcd0ed" stroke="#000" stroke-linejoin="round" stroke-width="0.25"/>
            <path id="Path_11233" data-name="Path 11233" d="M2093.606,1903.9l-.124.019a13.671,13.671,0,0,0-11.4,15.613l.865,5.552,5.843,37.475.866,5.552a13.67,13.67,0,0,0,15.613,11.4l.124-.02,12.537-1.953-11.783-75.6Z" transform="translate(-2081.915 -1888.929)" fill="#bcd0ed" stroke="#000" stroke-linejoin="round" stroke-width="0.25"/>
            <path id="Path_11234" data-name="Path 11234" d="M2156.686,1893.507l-.123.02-12.539,1.954,11.785,75.6,12.537-1.955.124-.02a13.67,13.67,0,0,0,11.4-15.613l-.865-5.552-5.841-37.475-.866-5.552A13.673,13.673,0,0,0,2156.686,1893.507Z" transform="translate(-2050.04 -1893.342)" fill="#bcd0ed" stroke="#000" stroke-linejoin="round" stroke-width="0.25"/>
            <rect id="Rectangle_204" data-name="Rectangle 204" width="17.686" height="19.162" rx="2.285" transform="translate(21.904 42.531) rotate(-8.86)" fill="#ebebf2" stroke="#000" stroke-linejoin="round" stroke-width="0.25"/>
            <rect id="Rectangle_205" data-name="Rectangle 205" width="17.686" height="19.162" rx="2.285" transform="translate(87.708 32.273) rotate(-8.86)" fill="#ebebf2" stroke="#000" stroke-linejoin="round" stroke-width="0.25"/>
            <line id="Line_630" data-name="Line 630" x1="3.951" y2="0.616" transform="translate(36.013 87.991)" fill="#bcd0ed" stroke="#000" stroke-linejoin="round" stroke-width="0.25"/>
            <line id="Line_631" data-name="Line 631" y1="0.616" x2="3.951" transform="translate(24.229 12.397)" fill="#bcd0ed" stroke="#000" stroke-linejoin="round" stroke-width="0.25"/>
            <rect id="Rectangle_206" data-name="Rectangle 206" width="3.999" height="76.507" transform="translate(24.229 13.013) rotate(-8.86)" fill="#325984" stroke="#000" stroke-linejoin="round" stroke-width="0.25"/>
            <line id="Line_632" data-name="Line 632" x1="3.951" y2="0.616" transform="translate(101.817 77.733)" fill="#bcd0ed" stroke="#000" stroke-linejoin="round" stroke-width="0.25"/>
            <line id="Line_633" data-name="Line 633" y1="0.616" x2="3.951" transform="translate(90.033 2.139)" fill="#bcd0ed" stroke="#000" stroke-linejoin="round" stroke-width="0.25"/>
            <rect id="Rectangle_207" data-name="Rectangle 207" width="3.999" height="76.507" transform="translate(90.033 2.755) rotate(-8.86)" fill="#325984" stroke="#000" stroke-linejoin="round" stroke-width="0.25"/>
            <rect id="Rectangle_208" data-name="Rectangle 208" width="6.592" height="10.062" rx="1.019" transform="translate(26.877 38.419) rotate(-8.86)" fill="#bcd0ed" stroke="#000" stroke-linejoin="round" stroke-width="0.25"/>
            <rect id="Rectangle_209" data-name="Rectangle 209" width="6.592" height="10.062" rx="1.019" transform="translate(92.681 28.162) rotate(-8.86)" fill="#bcd0ed" stroke="#000" stroke-linejoin="round" stroke-width="0.25"/>
          </g>
          <rect id="Rectangle_210" data-name="Rectangle 210" width="17.305" height="9.645" rx="2.082" transform="translate(51.359 22.714) rotate(-8.86)" fill="#ebebf2" stroke="#000" stroke-linejoin="round" stroke-width="0.25"/>
          <g id="Group_3420" data-name="Group 3420" transform="translate(0 4.169)">
            <path id="Path_11235" data-name="Path 11235" d="M2082.08,1918.866l.865,5.552,8.232-1.283a5.464,5.464,0,0,0,4.558-6.242l-2.129-13.66-.124.02A13.671,13.671,0,0,0,2082.08,1918.866Z" transform="translate(-2081.915 -1888.266)" fill="#325984" stroke="#000" stroke-linejoin="round" stroke-width="0.25"/>
            <path id="Path_11236" data-name="Path 11236" d="M2087.323,1948.008a13.671,13.671,0,0,0,15.614,11.4l.124-.02-2.129-13.658a5.469,5.469,0,0,0-6.243-4.559l-8.231,1.283Z" transform="translate(-2079.584 -1868.829)" fill="#325984" stroke="#000" stroke-linejoin="round" stroke-width="0.25"/>
            <path id="Path_11237" data-name="Path 11237" d="M2152.433,1893.507l-.123.02,2.129,13.658a5.466,5.466,0,0,0,6.242,4.559l8.232-1.283-.866-5.552A13.673,13.673,0,0,0,2152.433,1893.507Z" transform="translate(-2045.788 -1893.342)" fill="#325984" stroke="#000" stroke-linejoin="round" stroke-width="0.25"/>
            <path id="Path_11238" data-name="Path 11238" d="M2160.841,1950.605l.124-.02a13.67,13.67,0,0,0,11.4-15.613l-.866-5.552-8.23,1.283a5.467,5.467,0,0,0-4.56,6.244Z" transform="translate(-2042.536 -1874.827)" fill="#325984" stroke="#000" stroke-linejoin="round" stroke-width="0.25"/>
          </g>
        </g>
        <rect id="Rectangle_211" data-name="Rectangle 211" width="54.334" height="10.19" rx="3.367" transform="translate(28.071 8.384) rotate(-8.876)" fill="#325984" stroke="#000" stroke-linejoin="round" stroke-width="0.25"/>
      </g>
      <g id="Group_3424" data-name="Group 3424" transform="translate(41.874)">
        <g id="Group_3423" data-name="Group 3423" transform="translate(7.149 78.237)">
          <path id="Path_11239" data-name="Path 11239" d="M2048.188,1759.617s-2.589,7.323-7.834,11.595-2.913,13.983,5.439,17.481c0,0-.988,2.682-6.038,7.478s-3.281,12.876,4.293,16.031c0,0-12.623,7.7-2.147,16.282,0,0,1.121,6.16-6.713,10.332-7.973,4.245-7.427,8.6.684,7.914a4.7,4.7,0,0,0,5.178,3.518c4.2-.489,3.42-5.375,3.42-5.375s6.157,5.276,7.525-3.516c0,0,6.644-3.42-.782-12.313,0,0,6.059-1.269,6.449-6.057s-3.029-5.864-3.518-10.261c0,0,5.864-1.368,8.208-9.185s-4.984-14.657-4.984-14.657,8.7-2.541,7.818-13.484-12.116-15.781-12.116-15.781Z" transform="translate(-2029.49 -1757.819)" fill="#f2b85a" stroke="#000" stroke-linejoin="round" stroke-width="0.25"/>
          <path id="Path_11240" data-name="Path 11240" d="M2046.522,1771.811s1.031,4.273-1.155,7.313" transform="translate(-2021.341 -1751.561)" fill="none" stroke="#000" stroke-linejoin="round" stroke-width="0.25"/>
          <path id="Path_11241" data-name="Path 11241" d="M2050.123,1771.5s.475,3.7-1.806,6.174" transform="translate(-2019.827 -1751.723)" fill="none" stroke="#000" stroke-linejoin="round" stroke-width="0.25"/>
          <path id="Path_11242" data-name="Path 11242" d="M2043.909,1788.215s.852,4.341-1.164,7.212" transform="translate(-2022.687 -1743.143)" fill="none" stroke="#000" stroke-linejoin="round" stroke-width="0.25"/>
          <path id="Path_11243" data-name="Path 11243" d="M2046.9,1788.932s-.013,3.489-1.8,5.506" transform="translate(-2021.477 -1742.775)" fill="none" stroke="#000" stroke-linejoin="round" stroke-width="0.25"/>
          <path id="Path_11244" data-name="Path 11244" d="M2041.509,1799.591a7.25,7.25,0,0,1-.542,5.244" transform="translate(-2023.599 -1737.304)" fill="none" stroke="#000" stroke-linejoin="round" stroke-width="0.25"/>
          <path id="Path_11245" data-name="Path 11245" d="M2044.276,1799.9c0,.231.127,3.172-1.086,4.256" transform="translate(-2022.459 -1737.144)" fill="none" stroke="#000" stroke-linejoin="round" stroke-width="0.25"/>
          <path id="Path_11246" data-name="Path 11246" d="M2085.287,1759.268s-7.311,6.475-10.338,12.74.017,13.368,11.025,15.143c0,0-10.607,6.787-9.459,14.515s8.668,10.547,8.668,10.547-11.069,6.579-1.67,16.709c0,0-1.609,8.327-8.863,12.318s-5.3,7.47.58,6.165,7.835-4.134,7.835-4.134,2.249,10.518,6.31,1.595c0,0,7.545,9.794,7.4-4.931,0,0,6.457-3.7-2.467-11.245,0,0,8.052-8.559-.145-16.249,0,0,16.394-12.767,1.378-24.809,0,0,19.8-11.441-3.43-29.2Z" transform="translate(-2008.714 -1758.429)" fill="#f2b85a" stroke="#000" stroke-linejoin="round" stroke-width="0.25"/>
          <path id="Path_11247" data-name="Path 11247" d="M2084.047,1769.294s2.277,4.721,0,8.453" transform="translate(-2001.49 -1752.853)" fill="none" stroke="#000" stroke-linejoin="round" stroke-width="0.25"/>
          <path id="Path_11248" data-name="Path 11248" d="M2087.071,1777.443c2.513-3.579.428-8.149.428-8.149" transform="translate(-1999.938 -1752.853)" fill="none" stroke="#000" stroke-linejoin="round" stroke-width="0.25"/>
          <path id="Path_11249" data-name="Path 11249" d="M2083.324,1787.715s1.371,3.5-.38,6.475" transform="translate(-2002.056 -1743.399)" fill="none" stroke="#000" stroke-linejoin="round" stroke-width="0.25"/>
          <path id="Path_11250" data-name="Path 11250" d="M2086.423,1787.715a5.788,5.788,0,0,1-.761,4.8" transform="translate(-2000.661 -1743.399)" fill="none" stroke="#000" stroke-linejoin="round" stroke-width="0.25"/>
          <path id="Path_11251" data-name="Path 11251" d="M2083.238,1800.7s.9,2.589,0,4.037" transform="translate(-2001.905 -1736.735)" fill="none" stroke="#000" stroke-linejoin="round" stroke-width="0.25"/>
          <path id="Path_11252" data-name="Path 11252" d="M2085.36,1800a5.709,5.709,0,0,1,0,4.113" transform="translate(-2000.816 -1737.096)" fill="none" stroke="#000" stroke-linejoin="round" stroke-width="0.25"/>
        </g>
        <path id="Path_11253" data-name="Path 11253" d="M2069.319,1778.167s-8.089,19.211-18.706,8.595c0,0-6.4,3.708-7.414-4.719,0,0-4.045,1.012-6.067,4.045,0,0,3.019-7.935.82-13.43,0,0-13.406,1.318-9.559-19.669a3.458,3.458,0,0,0-3.627.658s.879-4.395,7.363-6.044,7.032-6.263,7.032-6.263a10.787,10.787,0,0,1-5.275-4.394s7.253,0,8.352-6.812,4.945-10,9.45-10.329a4.291,4.291,0,0,0,.66-4.836s3.626,3.736,12.307,2.088c0,0-.879-2.966-5.164-4.945a16.7,16.7,0,0,1,15.274.99s4.5-5.933,16.372-6.374a13.158,13.158,0,0,0-.55,6.263s7.917-5.493,14.012-3.077,2.877,9.341,9.871,11.977,9.412,6.484,9.193,15.385,2.086,12.856,6.374,15.383c0,0-4.287,1.318-5.716,4.066,0,0,13.846,7.692,5.165,14.174,0,0-1.538,16.043-14.174,14.065,0,0-11.1,7.911-17.033-9.56Z" transform="translate(-2024.765 -1706.726)" fill="#f2b85a" stroke="#000" stroke-linejoin="round" stroke-width="0.25"/>
        <circle id="Ellipse_1927" data-name="Ellipse 1927" cx="23.185" cy="23.185" r="23.185" transform="translate(33.462 31.305)" fill="#fff" stroke="#000" stroke-linejoin="round" stroke-width="0.25"/>
        <ellipse id="Ellipse_1928" data-name="Ellipse 1928" cx="1.061" cy="2.547" rx="1.061" ry="2.547" transform="translate(44.386 58.537) rotate(-5.201)"/>
        <ellipse id="Ellipse_1929" data-name="Ellipse 1929" cx="1.061" cy="2.547" rx="1.061" ry="2.547" transform="translate(51.681 58.157) rotate(-5.201)"/>
        <path id="Path_11254" data-name="Path 11254" d="M2079.759,1752.378s-.75,4.5,2.532,6.75" transform="translate(-1996.58 -1683.297)" fill="none" stroke="#000" stroke-linejoin="round" stroke-width="0.25"/>
        <path id="Path_11255" data-name="Path 11255" d="M2084.855,1752.378s.281,3.843-1.218,5.437" transform="translate(-1994.552 -1683.297)" fill="none" stroke="#000" stroke-linejoin="round" stroke-width="0.25"/>
        <path id="Path_11256" data-name="Path 11256" d="M2086.115,1757.688s3.376-1.781,3.75-5.062" transform="translate(-1993.28 -1683.17)" fill="none" stroke="#000" stroke-linejoin="round" stroke-width="0.25"/>
        <path id="Path_11257" data-name="Path 11257" d="M2041.5,1754.608a9.024,9.024,0,0,1,1.49,4.417" transform="translate(-2016.178 -1682.153)" fill="none" stroke="#000" stroke-linejoin="round" stroke-width="0.25"/>
        <path id="Path_11258" data-name="Path 11258" d="M2046.067,1754.608a8.44,8.44,0,0,1-.271,4.823" transform="translate(-2013.972 -1682.153)" fill="none" stroke="#000" stroke-linejoin="round" stroke-width="0.25"/>
        <path id="Path_11259" data-name="Path 11259" d="M2064.261,1722.572s-8.2-3.609-12.14,2.46.985,23.131-13.779,25.756c0,0,2.277,2.25,8.512,1.756,0,0-.395,3.786-3.019,5.263,0,0,19.606,1.347,23.871-12.762,0,0,2.582,9.787,14.584,8.221a12.419,12.419,0,0,1-1.354-4.688s9.312,13.888,26.566-1.813c0,0-9.1.132-8.264-6.6s1.565-14.247-3.968-17.587-12.943-.731-16.386,2.817c0,0,2.086-5.741-1.567-6.366-3.912-.67-4.823,4.7-4.823,4.7" transform="translate(-2017.798 -1700.44)" fill="#f2b85a" stroke="#000" stroke-linejoin="round" stroke-width="0.25"/>
      </g>
    </g>
    <g id="Group_3426" data-name="Group 3426" transform="translate(1975.458 1934.78)">
      <path id="Path_11260" data-name="Path 11260" d="M1969.154,1881.4a162.743,162.743,0,0,0-.722,31.342c1.264,17.5,20.174,12.327,15.562.711s-7.211-13.9-5.454-30.086l-4.777-7.435Z" transform="translate(-1958.886 -1847.94)" fill="#ea6157" stroke="#000" stroke-linejoin="round" stroke-width="0.25"/>
      <path id="Path_11261" data-name="Path 11261" d="M1987.573,1877.832a22.9,22.9,0,0,1-11.939,5.142,13.383,13.383,0,0,0,1.351,2.733c1.68,2.55,7.257.561,9.4-.631s2.232-4.62,1.25-7.1C1987.621,1877.93,1987.595,1877.881,1987.573,1877.832Z" transform="translate(-1954.975 -1846.967)" fill="#ebebf2" stroke="#000" stroke-linejoin="round" stroke-width="0.25"/>
      <path id="Path_11262" data-name="Path 11262" d="M1962.016,1880.411c-.568,4.523,5.944,7.1,8.769,7.484,1.426.191,2.853-2.416,3.916-5.046a21.9,21.9,0,0,1-10.376-5.914C1963.031,1879.051,1962.016,1880.411,1962.016,1880.411Z" transform="translate(-1961.981 -1847.428)" fill="#ebebf2" stroke="#000" stroke-linejoin="round" stroke-width="0.25"/>
      <path id="Path_11263" data-name="Path 11263" d="M1993.784,1888.3c-1.218-2.573-8.819-8.861-10.428-20.22-1.58-11.17-6.7-12.2-9.512-9.2-3.338,3.57-3.719,10.671-5.57,17.621a42.015,42.015,0,0,1-4.744,10.437,21.9,21.9,0,0,0,10.376,5.914,50.6,50.6,0,0,0,1.74-5.185s.627,2.9.963,5.706a21.644,21.644,0,0,0,4.544.133c.035-1.556-.082-2.928-.082-2.928a16.012,16.012,0,0,0,.773,2.858A22.9,22.9,0,0,0,1993.784,1888.3Z" transform="translate(-1961.186 -1857.435)" fill="#f2b85a" stroke="#000" stroke-linejoin="round" stroke-width="0.25"/>
      <path id="Path_11264" data-name="Path 11264" d="M1972.173,1881.188c.062.514.115,1.027.15,1.517.233,3.164,1.138,3.347,3.022,2.985,1.046-.2,1.327-2.428,1.372-4.37A21.623,21.623,0,0,1,1972.173,1881.188Z" transform="translate(-1956.75 -1845.245)" fill="#ebebf2" stroke="#000" stroke-linejoin="round" stroke-width="0.25"/>
      <path id="Path_11265" data-name="Path 11265" d="M1971.249,1902.312s-.213,2.995,1.015,4.4" transform="translate(-1957.232 -1834.404)" fill="none" stroke="#000" stroke-linejoin="round" stroke-width="0.25"/>
      <path id="Path_11266" data-name="Path 11266" d="M1973.479,1902.538a7.8,7.8,0,0,0,.6,3.867" transform="translate(-1956.095 -1834.288)" fill="none" stroke="#000" stroke-linejoin="round" stroke-width="0.25"/>
      <path id="Path_11267" data-name="Path 11267" d="M1975.458,1902.5s.188,2.631-.376,3.711" transform="translate(-1955.258 -1834.306)" fill="none" stroke="#000" stroke-linejoin="round" stroke-width="0.25"/>
      <path id="Path_11268" data-name="Path 11268" d="M1977.383,1902.679s.091,2.451-.9,3.26" transform="translate(-1954.539 -1834.216)" fill="none" stroke="#000" stroke-linejoin="round" stroke-width="0.25"/>
      <path id="Path_11269" data-name="Path 11269" d="M1969.964,1889.566a7.832,7.832,0,0,0,.334,3.953" transform="translate(-1957.943 -1840.945)" fill="none" stroke="#000" stroke-linejoin="round" stroke-width="0.25"/>
      <path id="Path_11270" data-name="Path 11270" d="M1972.557,1889.829a6.728,6.728,0,0,1-.135,2.977" transform="translate(-1956.623 -1840.81)" fill="none" stroke="#000" stroke-linejoin="round" stroke-width="0.25"/>
      <path id="Path_11271" data-name="Path 11271" d="M1970.089,1865.821a10.8,10.8,0,0,0-.354,3.485" transform="translate(-1958.015 -1853.131)" fill="none" stroke="#000" stroke-linejoin="round" stroke-width="0.25"/>
      <path id="Path_11272" data-name="Path 11272" d="M1969.128,1872.424a11.726,11.726,0,0,0-1.212,3.4" transform="translate(-1958.935 -1849.742)" fill="none" stroke="#000" stroke-linejoin="round" stroke-width="0.25"/>
      <path id="Path_11273" data-name="Path 11273" d="M1970.548,1870.605a7.824,7.824,0,0,1,.232,2.515" transform="translate(-1957.584 -1850.676)" fill="none" stroke="#000" stroke-linejoin="round" stroke-width="0.25"/>
    </g>
    <g id="Group_3427" data-name="Group 3427" transform="translate(2009.9 1963.325)">
      <path id="Path_11274" data-name="Path 11274" d="M1990.043,1893.395a107.506,107.506,0,0,1-1.471,17.853c-1.566,8.41-5.1,12.227-3.364,14.245s9.184,2.262,11.787-2.238.491-24.8-.912-30.137-4.687-3.179-4.687-3.179Z" transform="translate(-1984.741 -1869.52)" fill="#ea6157" stroke="#000" stroke-linejoin="round" stroke-width="0.25"/>
      <path id="Path_11275" data-name="Path 11275" d="M1985.631,1888.911c-1.833,4.229-.5,4.741,1.212,5.333,1.81.622,4.113,1.4,5.024.413a16.543,16.543,0,0,0,1.952-3.31A15.619,15.619,0,0,1,1985.631,1888.911Z" transform="translate(-1984.738 -1869.826)" fill="#ebebf2" stroke="#000" stroke-linejoin="round" stroke-width="0.25"/>
      <path id="Path_11276" data-name="Path 11276" d="M1996.618,1883.669c-1.554-6.284-2.656-7.533-4.485-7.354-2.134.208-2.2,3.341-2.645,5.523a53.617,53.617,0,0,1-3.833,12.826c-.12.254-.223.489-.323.72a15.623,15.623,0,0,0,8.188,2.436l.106,0c.419,0,.846-.02,1.283-.065a18.666,18.666,0,0,0,2.578-.445l.02,0a15.972,15.972,0,0,0,4.6-1.893C2000.493,1892.641,1997.708,1888.074,1996.618,1883.669Z" transform="translate(-1984.438 -1876.298)" fill="#f2b85a" stroke="#000" stroke-linejoin="round" stroke-width="0.25"/>
      <path id="Path_11277" data-name="Path 11277" d="M1997.981,1888.932a15.98,15.98,0,0,1-4.6,1.893c.254.66,1.509,3.715,2.857,3.385,1.51-.371,3.091-1.6,2.958-2.855A10.271,10.271,0,0,0,1997.981,1888.932Z" transform="translate(-1980.309 -1869.816)" fill="#ebebf2" stroke="#000" stroke-linejoin="round" stroke-width="0.25"/>
      <path id="Path_11278" data-name="Path 11278" d="M1990.813,1890.7c.071.781.38,3.7,1.038,3.8.76.122,2.559-.159,3.025-.793.408-.555-.073-2.923-.2-3.516a18.688,18.688,0,0,1-2.578.445C1991.659,1890.676,1991.232,1890.692,1990.813,1890.7Z" transform="translate(-1981.625 -1869.172)" fill="#ebebf2" stroke="#000" stroke-linejoin="round" stroke-width="0.25"/>
      <path id="Path_11279" data-name="Path 11279" d="M1989.178,1882.3a7.513,7.513,0,0,1-.824,3.084" transform="translate(-1982.888 -1873.218)" fill="none" stroke="#000" stroke-linejoin="round" stroke-width="0.25"/>
      <path id="Path_11280" data-name="Path 11280" d="M1989.787,1885.621a7.065,7.065,0,0,1-.973,2.712" transform="translate(-1982.651 -1871.515)" fill="none" stroke="#000" stroke-linejoin="round" stroke-width="0.25"/>
      <path id="Path_11281" data-name="Path 11281" d="M1987.329,1910.28a5.65,5.65,0,0,1-.531,2.357" transform="translate(-1983.686 -1858.859)" fill="none" stroke="#000" stroke-linejoin="round" stroke-width="0.25"/>
      <path id="Path_11282" data-name="Path 11282" d="M1988.684,1910.392a4.715,4.715,0,0,1-.531,2.356" transform="translate(-1982.991 -1858.802)" fill="none" stroke="#000" stroke-linejoin="round" stroke-width="0.25"/>
      <path id="Path_11283" data-name="Path 11283" d="M1989.9,1910.356a4.625,4.625,0,0,1-.424,2.072" transform="translate(-1982.31 -1858.82)" fill="none" stroke="#000" stroke-linejoin="round" stroke-width="0.25"/>
      <path id="Path_11284" data-name="Path 11284" d="M1991.177,1910.078a3.675,3.675,0,0,1-.172,2.088" transform="translate(-1981.527 -1858.963)" fill="none" stroke="#000" stroke-linejoin="round" stroke-width="0.25"/>
      <path id="Path_11285" data-name="Path 11285" d="M1989.117,1899.825a5.6,5.6,0,0,1-.233,2.822" transform="translate(-1982.615 -1864.225)" fill="none" stroke="#000" stroke-linejoin="round" stroke-width="0.25"/>
      <path id="Path_11286" data-name="Path 11286" d="M1990.328,1900.045a4.772,4.772,0,0,1,.012,2.293" transform="translate(-1981.874 -1864.112)" fill="none" stroke="#000" stroke-linejoin="round" stroke-width="0.25"/>
      <path id="Path_11287" data-name="Path 11287" d="M1991.586,1899.96a7.61,7.61,0,0,1,.136,2.191" transform="translate(-1981.229 -1864.156)" fill="none" stroke="#000" stroke-linejoin="round" stroke-width="0.25"/>
    </g>
    <g id="Group_3428" data-name="Group 3428" transform="translate(1935.72 1962.576)">
      <path id="Path_11288" data-name="Path 11288" d="M1975.122,1894.452s-5.912,13.218-5.882,23.88" transform="translate(-1918.517 -1866.234)" fill="none" stroke="#000" stroke-linejoin="round" stroke-width="0.25"/>
      <path id="Path_11289" data-name="Path 11289" d="M1974.817,1930.012s1.07-25.906-22.016-54.207" transform="translate(-1926.954 -1875.804)" fill="none" stroke="#000" stroke-linejoin="round" stroke-width="0.25"/>
      <path id="Path_11290" data-name="Path 11290" d="M1974.63,1931.687s-3.6-28.8-30.193-54.512" transform="translate(-1931.246 -1875.1)" fill="none" stroke="#000" stroke-linejoin="round" stroke-width="0.25"/>
      <path id="Path_11291" data-name="Path 11291" d="M1971.286,1926.758s-5.787-26.732-31.369-42.851" transform="translate(-1933.566 -1871.646)" fill="none" stroke="#000" stroke-linejoin="round" stroke-width="0.25"/>
      <path id="Path_11292" data-name="Path 11292" d="M1968.669,1922.444s-10.3-19.1-30.284-27.406" transform="translate(-1934.352 -1865.933)" fill="none" stroke="#000" stroke-linejoin="round" stroke-width="0.25"/>
      <path id="Path_11293" data-name="Path 11293" d="M1966.455,1919.144s-12.662-13.33-30.735-15.155" transform="translate(-1935.72 -1861.339)" fill="none" stroke="#000" stroke-linejoin="round" stroke-width="0.25"/>
    </g>
    <g id="Group_3429" data-name="Group 3429" transform="translate(2200.247 2069.576)">
      <path id="Path_11294" data-name="Path 11294" d="M2114.618,1956.134a52.015,52.015,0,0,1-1.589,17.391c-2.5,9.164-2.5,14.156-2.5,14.156s15.433,4.993,32.909,10.895,20.213,6.776,29.973,4.735,10.881-2.919,21.548-6.551,12.4-4.285,16.064-6.669c0,0-3.005-10.816-5.183-22.709l-49.466-4.894Z" transform="translate(-2110.532 -1941.577)" fill="#325984" stroke="#000" stroke-linejoin="round" stroke-width="0.25"/>
      <path id="Path_11295" data-name="Path 11295" d="M2145.917,2002.564a218.459,218.459,0,0,0,1.01-23.467c-.127-13.187,1.144-19.67,1.144-19.67" transform="translate(-2092.372 -1939.887)" fill="none" stroke="#000" stroke-linejoin="round" stroke-width="0.25"/>
      <path id="Path_11296" data-name="Path 11296" d="M2111.529,1959.113c-1.48-6.658,5.59-10.958,13.642-12.189s20.239.448,29.183,3.131,15.879,2.46,23.929,5.145,14.648,7.714,23.034,10.4,6.6,9.951,0,12.746-12.3,5.927-20.686,2.685-20.239-9.952-33.1-11.071S2113.766,1969.176,2111.529,1959.113Z" transform="translate(-2110.122 -1946.514)" fill="#ebebf2" stroke="#000" stroke-linejoin="round" stroke-width="0.25"/>
      <path id="Path_11297" data-name="Path 11297" d="M2149.968,1971.427c0,.3.707,6.56,0,9.79" transform="translate(-2090.293 -1933.729)" fill="none" stroke="#000" stroke-linejoin="round" stroke-width="0.25"/>
      <ellipse id="Ellipse_1930" data-name="Ellipse 1930" cx="6.783" cy="3.166" rx="6.783" ry="3.166" transform="matrix(0.095, -0.995, 0.995, 0.095, 12.631, 45.606)" fill="#fff" stroke="#000" stroke-linejoin="round" stroke-width="0.25"/>
      <ellipse id="Ellipse_1931" data-name="Ellipse 1931" cx="2.452" cy="1.471" rx="2.452" ry="1.471" transform="translate(8.741 32.401) rotate(-76.748)" fill="#fff" stroke="#000" stroke-linejoin="round" stroke-width="0.25"/>
      <path id="Path_11298" data-name="Path 11298" d="M2118.074,1952.163c-.2-2.385,5.16-3.065,8.076-.6s2.093,5.384-.9,4.785S2118.3,1954.855,2118.074,1952.163Z" transform="translate(-2106.665 -1944.718)" fill="#fff" stroke="#000" stroke-linejoin="round" stroke-width="0.25"/>
      <ellipse id="Ellipse_1932" data-name="Ellipse 1932" cx="2.649" cy="3.664" rx="2.649" ry="3.664" transform="matrix(0.334, -0.943, 0.943, 0.334, 28.84, 12.984)" fill="#fff" stroke="#000" stroke-linejoin="round" stroke-width="0.25"/>
      <path id="Path_11299" data-name="Path 11299" d="M2161.61,1972.47c1.091-.682,3.742,1.4,4.531,4.349s-1.707,2.3-3.414,0S2160.692,1973.044,2161.61,1972.47Z" transform="translate(-2084.576 -1933.26)" fill="#fff" stroke="#000" stroke-linejoin="round" stroke-width="0.25"/>
      <path id="Path_11300" data-name="Path 11300" d="M2167.1,1974.111c1.4-.962,4.725,1.64,5.25,4.989s-3.1,1.717-4.726-1.108C2166.474,1976,2166.433,1974.569,2167.1,1974.111Z" transform="translate(-2081.725 -1932.456)" fill="#fff" stroke="#000" stroke-linejoin="round" stroke-width="0.25"/>
    </g>
    <g id="Group_3430" data-name="Group 3430" transform="translate(2263.215 2035.189)">
      <path id="Path_11301" data-name="Path 11301" d="M2198.56,1927.67c-7.729-5.935-20.472-5.372-23.19,3.849s18.884,20.884,27.038,14.4C2208.62,1940.982,2204.605,1932.311,2198.56,1927.67Z" transform="translate(-2140.344 -1923.79)" fill="#ea6157" stroke="#000" stroke-linejoin="round" stroke-width="0.25"/>
      <path id="Path_11302" data-name="Path 11302" d="M2203.563,1936.292s-12.833-3.892-24.88,3.771c0,0,11.6-13.834,19.479-12.9" transform="translate(-2138.525 -1922.08)" fill="none" stroke="#000" stroke-linejoin="round" stroke-width="0.25"/>
      <path id="Path_11303" data-name="Path 11303" d="M2190.967,1924.475s2.16,6.475-1.008,16.946a145.569,145.569,0,0,0-33.251,37.653" transform="translate(-2149.801 -1923.438)" fill="none" stroke="#000" stroke-linejoin="round" stroke-width="0.25"/>
      <path id="Path_11304" data-name="Path 11304" d="M2161.446,1945.732s7.011,4.307,9.779-1.365c2.954-6.057-2.492-13.825-9.849-15.9C2149.4,1925.095,2148.713,1941.32,2161.446,1945.732Z" transform="translate(-2152.144 -1921.623)" fill="#ea6157" stroke="#000" stroke-linejoin="round" stroke-width="0.25"/>
      <path id="Path_11305" data-name="Path 11305" d="M2168.962,1934.058s-2.459,7.626-8.368,11.323a35.771,35.771,0,0,0-6.789-16.685" transform="translate(-2151.292 -1921.272)" fill="none" stroke="#000" stroke-linejoin="round" stroke-width="0.25"/>
      <path id="Path_11306" data-name="Path 11306" d="M2161.436,1928.882s1.017,6.429-2.228,16.4c-.525,1.613-4.02,13.02-2.163,31.333" transform="translate(-2149.905 -1921.177)" fill="none" stroke="#000" stroke-linejoin="round" stroke-width="0.25"/>
    </g>
  </g>
</svg>
