<svg xmlns="http://www.w3.org/2000/svg" width="339.81" height="387.011" viewBox="0 0 339.81 387.011">
  <g id="Group_4138" data-name="Group 4138" transform="translate(-2344.201 -1185.46)">
    <g id="Group_4125" data-name="Group 4125" transform="translate(2344.472 1384.311)">
      <path id="Path_15752" data-name="Path 15752" d="M2417.1,1365.461c4.6-4.538-7.682-14.484-14.2-11.918,0,0-4.511-7.873-13.029-10.336s-13.194.543-13.361,3.216c0,0-8.579-2.946-11.852-.442-3.432,2.625.5,6.563.5,6.563s-8.783-1.791-9.49,2.739,12.821,5.45,19.383,6.044C2394.043,1363.042,2413.05,1369.455,2417.1,1365.461Z" transform="translate(-2340.068 -1322.609)" fill="#96c6e7" stroke="#000" stroke-linejoin="round" stroke-width="0.25"/>
      <path id="Path_15753" data-name="Path 15753" d="M2395.881,1334.638c.552-2.284-4.5-1.873-4.5-1.873s-.573-4.536-4.873-4.593a3.918,3.918,0,0,0-4.03,3.234s-12.58-.891-14.116,4.639,13.648,1.405,15.8-1.218C2384.167,1334.827,2395.226,1337.356,2395.881,1334.638Z" transform="translate(-2335.104 -1328.172)" fill="#96c6e7" stroke="#000" stroke-linejoin="round" stroke-width="0.25"/>
      <path id="Path_15754" data-name="Path 15754" d="M2404.013,1379.821c.153-5.1-8.935-8.8-12.728-5.714,0,0-9.2-2.934-17.382-.31s-9.173,8.493-9.173,8.493-4.674-1.794-8.007,0c-4.12,2.218-2.33,5.9-2.33,5.9s-6.249-.212-8.792,4.661a8.573,8.573,0,0,0,0,8.579Z" transform="translate(-2344.472 -1310.63)" fill="#96c6e7" stroke="#000" stroke-linejoin="round" stroke-width="0.25"/>
      <path id="Path_15755" data-name="Path 15755" d="M2406.925,1392.321s-.408-4.48-3.565-6.823-6.721-.916-7.027.612c0,0-2.443-3.973-7.027-3.871s-4.278,6.518.509,7.13S2406.925,1392.321,2406.925,1392.321Z" transform="translate(-2328.099 -1306.876)" fill="#96c6e7" stroke="#000" stroke-linejoin="round" stroke-width="0.25"/>
      <path id="Path_15756" data-name="Path 15756" d="M2421.55,1386.272c2.191-4.207-5.366-6.5-5.366-6.5a8.7,8.7,0,0,0-3.554-8.653,9.644,9.644,0,0,0-9.922-1.024,12.738,12.738,0,0,0-9.676-5.839c-6.99-.813-12.115,4.61-10.983,7.459,1,2.5,9.669,2.611,18.741,6.135C2413.01,1382.6,2419.268,1390.653,2421.55,1386.272Z" transform="translate(-2329.734 -1313.989)" fill="#96c6e7" stroke="#000" stroke-linejoin="round" stroke-width="0.25"/>
      <line id="Line_850" data-name="Line 850" x2="12.91" y2="116.157" transform="translate(46.986 8.062)" fill="none" stroke="#000" stroke-miterlimit="10" stroke-width="0.25"/>
      <path id="Path_15757" data-name="Path 15757" d="M2385.9,1333.5s-.273,7.707-5.665,7.743c-3.537.024-5.25-5.475-5.25-5.475" transform="translate(-2332.455 -1326.071)" fill="none" stroke="#000" stroke-miterlimit="10" stroke-width="0.25"/>
      <path id="Path_15758" data-name="Path 15758" d="M2374.039,1356.46s.285,9.886,10.6,12.049" transform="translate(-2332.826 -1317.029)" fill="none" stroke="#000" stroke-miterlimit="10" stroke-width="0.25"/>
      <path id="Path_15759" data-name="Path 15759" d="M2398.226,1373.477a17.092,17.092,0,0,1-14.824,10.4" transform="translate(-2329.138 -1310.326)" fill="none" stroke="#000" stroke-miterlimit="10" stroke-width="0.25"/>
      <path id="Path_15760" data-name="Path 15760" d="M2396.887,1388.11s-1.77,9.688-11.873,10.207" transform="translate(-2328.504 -1304.563)" fill="none" stroke="#000" stroke-miterlimit="10" stroke-width="0.25"/>
      <path id="Path_15761" data-name="Path 15761" d="M2370.114,1384.128s6.531,9.692,19.793,6.979" transform="translate(-2334.372 -1306.131)" fill="none" stroke="#000" stroke-miterlimit="10" stroke-width="0.25"/>
    </g>
    <g id="Group_4128" data-name="Group 4128" transform="translate(2358.714 1433.677)">
      <g id="Group_4127" data-name="Group 4127">
        <path id="Path_15762" data-name="Path 15762" d="M2379.764,1447.578l20.659-44.757,9.631-3.106,24.931,48.9Z" transform="translate(-2344.813 -1349.357)" fill="#ae7516" stroke="#000" stroke-miterlimit="10" stroke-width="0.25"/>
        <path id="Path_15763" data-name="Path 15763" d="M2401.495,1413.946l23.771-43.55,24.719-6.808,8.383,1.148,34.3,20.416,21.178,40.454,5.5,38.934-92.912-1.689Z" transform="translate(-2336.254 -1363.587)" fill="#ae7516" stroke="#000" stroke-miterlimit="10" stroke-width="0.25"/>
        <path id="Path_15764" data-name="Path 15764" d="M2436.539,1363.587l-.905,22.372,9.288-21.224Z" transform="translate(-2322.807 -1363.587)" fill="none" stroke="#000" stroke-miterlimit="10" stroke-width="0.25"/>
        <line id="Line_851" data-name="Line 851" x1="14.924" y2="47.369" transform="translate(96.919 27.993)" fill="none" stroke="#000" stroke-miterlimit="10" stroke-width="0.25"/>
        <line id="Line_852" data-name="Line 852" x1="0.738" y2="32.008" transform="translate(84.76 29.713)" fill="none" stroke="#000" stroke-miterlimit="10" stroke-width="0.25"/>
        <line id="Line_853" data-name="Line 853" x1="0.961" y2="5.49" transform="translate(132.876 20.392)" fill="none" stroke="#000" stroke-miterlimit="10" stroke-width="0.25"/>
        <line id="Line_854" data-name="Line 854" x1="20.661" y2="22.654" transform="translate(129.558 22.182)" fill="none" stroke="#000" stroke-miterlimit="10" stroke-width="0.25"/>
        <g id="Group_4126" data-name="Group 4126" transform="translate(0 69.027)">
          <path id="Path_15765" data-name="Path 15765" d="M2354.69,1439.547l36.229-26.438,20.012,1.635,47.246,28.822-87.731-1.617Z" transform="translate(-2354.69 -1413.108)" fill="#ae7516" stroke="#000" stroke-miterlimit="10" stroke-width="0.25"/>
          <line id="Line_855" data-name="Line 855" x1="8.508" y2="27.794" transform="translate(47.734 1.635)" fill="none" stroke="#000" stroke-miterlimit="10" stroke-width="0.25"/>
          <line id="Line_856" data-name="Line 856" x2="0.214" y2="11.283" transform="translate(38.07 5.123)" fill="none" stroke="#000" stroke-miterlimit="10" stroke-width="0.25"/>
          <line id="Line_857" data-name="Line 857" x2="8.31" y2="8.109" transform="translate(70.592 18.044)" fill="none" stroke="#000" stroke-miterlimit="10" stroke-width="0.25"/>
        </g>
      </g>
    </g>
    <g id="Group_4129" data-name="Group 4129" transform="translate(2500.389 1396.705)">
      <path id="Path_15766" data-name="Path 15766" d="M2528.64,1494.782l99.142-13.282-21.859-39.019-5.644-64.709-55.163,4.509-66.206-25.641-22.579,121.276Z" transform="translate(-2456.331 -1329.352)" fill="#ae7516" stroke="#000" stroke-miterlimit="10" stroke-width="0.25"/>
      <line id="Line_858" data-name="Line 858" x1="16.371" y1="101.645" transform="translate(100.146 57.863)" fill="none" stroke="#000" stroke-miterlimit="10" stroke-width="0.25"/>
      <line id="Line_859" data-name="Line 859" x1="5.209" y2="46.322" transform="translate(117.609 67.883)" fill="none" stroke="#000" stroke-miterlimit="10" stroke-width="0.25"/>
      <line id="Line_860" data-name="Line 860" x2="1.311" y2="6.511" transform="translate(128.813 80.361)" fill="none" stroke="#000" stroke-miterlimit="10" stroke-width="0.25"/>
      <line id="Line_861" data-name="Line 861" x1="15.721" y2="30.455" transform="translate(107.08 12.705)" fill="none" stroke="#000" stroke-miterlimit="10" stroke-width="0.25"/>
      <line id="Line_862" data-name="Line 862" x1="11.008" y2="31.06" transform="translate(92.728 5.661)" fill="none" stroke="#000" stroke-miterlimit="10" stroke-width="0.25"/>
      <line id="Line_863" data-name="Line 863" y1="6.774" x2="6.746" transform="translate(100.418 18.759)" fill="none" stroke="#000" stroke-miterlimit="10" stroke-width="0.25"/>
      <path id="Path_15767" data-name="Path 15767" d="M2523.989,1393.13l26.106,1.8,43.8-9.442-19.178-39.439-19.008-8.982-55.26,4.353-27.922,22.936Z" transform="translate(-2449.95 -1337.063)" fill="#ae7516" stroke="#000" stroke-miterlimit="10" stroke-width="0.25"/>
      <line id="Line_864" data-name="Line 864" x1="1.73" y2="109.363" transform="translate(72.309 56.067)" fill="none" stroke="#000" stroke-miterlimit="10" stroke-width="0.25"/>
      <line id="Line_865" data-name="Line 865" x1="18.474" y2="60.606" transform="translate(31.988 60.375)" fill="none" stroke="#000" stroke-miterlimit="10" stroke-width="0.25"/>
      <line id="Line_866" data-name="Line 866" x1="7.011" y2="46.872" transform="translate(46.13 94.829)" fill="none" stroke="#000" stroke-miterlimit="10" stroke-width="0.25"/>
    </g>
    <path id="Path_15768" data-name="Path 15768" d="M2549.681,1409.685l11.537,30.1,19.729,6.765,13.587-11.8Z" transform="translate(80.828 88.246)" fill="#fff3d9" stroke="#000" stroke-miterlimit="10" stroke-width="0.25"/>
    <line id="Line_867" data-name="Line 867" x1="2.393" y2="3.604" transform="translate(2648.323 1522.174)" fill="none" stroke="#000" stroke-miterlimit="10" stroke-width="0.25"/>
    <line id="Line_868" data-name="Line 868" y1="3.234" x2="11.993" transform="translate(2653.726 1525.757)" fill="none" stroke="#000" stroke-miterlimit="10" stroke-width="0.25"/>
    <path id="Path_15769" data-name="Path 15769" d="M2549.681,1412.429l21.336,22.052,23.517,3.013-19.715-34.779Z" transform="translate(80.828 85.502)" fill="#e6ad18" stroke="#000" stroke-miterlimit="10" stroke-width="0.25"/>
    <g id="Group_4136" data-name="Group 4136" transform="translate(2404.191 1185.644)">
      <g id="Group_4133" data-name="Group 4133" transform="translate(0 274.655)">
        <path id="Path_15770" data-name="Path 15770" d="M2424.822,1431.946s1.132,7.778-11.371,10.92-18.891,18.674,6.822,18.6,45.651-3.619,46.166-9.529c0,0-4.331-5.042-2.721-18.75Z" transform="translate(-2381.323 -1363.284)" fill="#fff" stroke="#000" stroke-miterlimit="10" stroke-width="0.25"/>
        <path id="Path_15771" data-name="Path 15771" d="M2486.154,1438.23s1.616,7.921-.631,13.948-1.052,12.187,5.585,14.382,44.979,10.878,44.415.116-10.72-10.6-13.925-30S2486.154,1438.23,2486.154,1438.23Z" transform="translate(-2349.043 -1364.667)" fill="#fff" stroke="#000" stroke-miterlimit="10" stroke-width="0.25"/>
        <g id="Group_4132" data-name="Group 4132" transform="translate(37.938)">
          <g id="Group_4130" data-name="Group 4130" transform="translate(0 2.351)">
            <path id="Path_15772" data-name="Path 15772" d="M2421.785,1391.3s-5.532,35.048-7.01,45.859,4.051,14.275,10.453,14.811,20.209,1.409,27.63,1.252,11.034-3.455,11.964-13.055,8.109-54.672,8.109-54.672S2435.363,1380.593,2421.785,1391.3Z" transform="translate(-2414.533 -1384.373)" fill="#90d1a2" stroke="#000" stroke-linejoin="round" stroke-width="0.25"/>
            <line id="Line_869" data-name="Line 869" x2="1.008" y2="3.5" transform="translate(5.498 58.432)" fill="none" stroke="#000" stroke-linejoin="round" stroke-width="0.25"/>
            <line id="Line_870" data-name="Line 870" x2="0.665" y2="3.484" transform="translate(12.309 58.74)" fill="none" stroke="#000" stroke-linejoin="round" stroke-width="0.25"/>
            <line id="Line_871" data-name="Line 871" x2="0.277" y2="2.973" transform="translate(19.017 59.537)" fill="none" stroke="#000" stroke-linejoin="round" stroke-width="0.25"/>
            <line id="Line_872" data-name="Line 872" x1="0.134" y2="2.955" transform="translate(25.613 59.842)" fill="none" stroke="#000" stroke-linejoin="round" stroke-width="0.25"/>
            <line id="Line_873" data-name="Line 873" x1="0.708" y2="2.929" transform="translate(30.948 60.11)" fill="none" stroke="#000" stroke-linejoin="round" stroke-width="0.25"/>
            <line id="Line_874" data-name="Line 874" x1="1.119" y2="2.91" transform="translate(37.267 60.414)" fill="none" stroke="#000" stroke-linejoin="round" stroke-width="0.25"/>
            <line id="Line_875" data-name="Line 875" x1="1.772" y2="2.802" transform="translate(41.946 60.734)" fill="none" stroke="#000" stroke-linejoin="round" stroke-width="0.25"/>
          </g>
          <g id="Group_4131" data-name="Group 4131" transform="translate(83.935)">
            <path id="Path_15773" data-name="Path 15773" d="M2474.75,1385.7s1.429,39.409,4.526,52.9,5.583,18.624,18.683,18.683,32.511,2.671,32.935-12.143.332-42.668-1.982-55.793C2528.912,1389.348,2489.969,1377.209,2474.75,1385.7Z" transform="translate(-2474.75 -1382.686)" fill="#90d1a2" stroke="#000" stroke-linejoin="round" stroke-width="0.25"/>
            <line id="Line_876" data-name="Line 876" x2="1.496" y2="3.275" transform="translate(15.11 67.157)" fill="none" stroke="#000" stroke-linejoin="round" stroke-width="0.25"/>
            <line id="Line_877" data-name="Line 877" x2="1.496" y2="3.275" transform="translate(21.758 67.458)" fill="none" stroke="#000" stroke-linejoin="round" stroke-width="0.25"/>
            <line id="Line_878" data-name="Line 878" x1="0.167" y2="3.693" transform="translate(28.835 67.293)" fill="none" stroke="#000" stroke-linejoin="round" stroke-width="0.25"/>
            <line id="Line_879" data-name="Line 879" x1="1.07" y2="3.652" transform="translate(35.073 67.616)" fill="none" stroke="#000" stroke-linejoin="round" stroke-width="0.25"/>
            <line id="Line_880" data-name="Line 880" x1="0.966" y2="3.164" transform="translate(41.004 67.88)" fill="none" stroke="#000" stroke-linejoin="round" stroke-width="0.25"/>
            <line id="Line_881" data-name="Line 881" x1="0.678" y2="2.724" transform="translate(48.113 67.531)" fill="none" stroke="#000" stroke-linejoin="round" stroke-width="0.25"/>
          </g>
        </g>
        <path id="Path_15774" data-name="Path 15774" d="M2421.548,1438.464c-5.007,1.352-32.674,6.887-34.133,18.187s13.394,11.026,29.069,10,49.836-2.165,55.479-6.645c0,0,4.251-12.406-1.28-13.855s-20.517,5.29-31.924,6.194-10.242-3.936-7.09-7.267S2433.065,1435.352,2421.548,1438.464Z" transform="translate(-2387.316 -1361.044)" fill="#e6ad18" stroke="#000" stroke-miterlimit="10" stroke-width="0.25"/>
        <path id="Path_15775" data-name="Path 15775" d="M2485.043,1452.453s-7.257,8.22-1.837,15.122c2.545,3.244,9.927,3.663,37.3,3.66s37.031,2.179,37.144-9.605-22.534-18.384-28.8-19.46-7.765,4.7-3.514,7.606,4.119,6.147,1.451,6.815-17.462,1.068-26.673-.355S2489.362,1449.83,2485.043,1452.453Z" transform="translate(-2350.337 -1359.308)" fill="#e6ad18" stroke="#000" stroke-miterlimit="10" stroke-width="0.25"/>
      </g>
      <g id="Group_4134" data-name="Group 4134" transform="translate(37.336 190.478)">
        <path id="Path_15776" data-name="Path 15776" d="M2437.563,1322.686s.023,22.21-8.287,38.148-21.333,43.806-11.866,52.582,35.616-5.6,78.191-4.048,60.86,9.23,68.494-.793c9.34-12.266-13.646-40.544-18.606-50.222a76.91,76.91,0,0,1-8.762-36.057Z" transform="translate(-2414.101 -1322.296)" fill="#96c6e7" stroke="#000" stroke-linejoin="round" stroke-width="0.25"/>
        <path id="Path_15777" data-name="Path 15777" d="M2420.26,1377.251s-1.615,5.275.387,8.352" transform="translate(-2411.918 -1300.65)" fill="none" stroke="#000" stroke-linejoin="round" stroke-width="0.25"/>
        <path id="Path_15778" data-name="Path 15778" d="M2425.58,1378.714s-.652,4.386.859,6.04" transform="translate(-2409.635 -1300.074)" fill="none" stroke="#000" stroke-linejoin="round" stroke-width="0.25"/>
        <path id="Path_15779" data-name="Path 15779" d="M2432.673,1380.222a7.239,7.239,0,0,0,.368,4.363" transform="translate(-2406.857 -1299.48)" fill="none" stroke="#000" stroke-linejoin="round" stroke-width="0.25"/>
        <path id="Path_15780" data-name="Path 15780" d="M2440.034,1380.182a7.926,7.926,0,0,0,.6,4.216" transform="translate(-2403.91 -1299.496)" fill="none" stroke="#000" stroke-linejoin="round" stroke-width="0.25"/>
        <path id="Path_15781" data-name="Path 15781" d="M2446.1,1380.457a14.759,14.759,0,0,0,.515,3.646" transform="translate(-2401.499 -1299.387)" fill="none" stroke="#000" stroke-linejoin="round" stroke-width="0.25"/>
        <line id="Line_882" data-name="Line 882" x2="0.514" y2="3.647" transform="translate(53.3 81.464)" fill="none" stroke="#000" stroke-linejoin="round" stroke-width="0.25"/>
        <path id="Path_15782" data-name="Path 15782" d="M2457.89,1380.179a35.185,35.185,0,0,1,.956,3.871" transform="translate(-2396.854 -1299.497)" fill="none" stroke="#000" stroke-linejoin="round" stroke-width="0.25"/>
        <path id="Path_15783" data-name="Path 15783" d="M2464.56,1379.993a10.877,10.877,0,0,1,.4,3.7" transform="translate(-2394.226 -1299.57)" fill="none" stroke="#000" stroke-linejoin="round" stroke-width="0.25"/>
        <path id="Path_15784" data-name="Path 15784" d="M2472.487,1378.971a6.969,6.969,0,0,1,.787,5.113" transform="translate(-2391.104 -1299.973)" fill="none" stroke="#000" stroke-linejoin="round" stroke-width="0.25"/>
        <path id="Path_15785" data-name="Path 15785" d="M2482.945,1379.445a6.042,6.042,0,0,1,.361,4.534" transform="translate(-2386.985 -1299.786)" fill="none" stroke="#000" stroke-linejoin="round" stroke-width="0.25"/>
        <path id="Path_15786" data-name="Path 15786" d="M2491.167,1379.086a10.5,10.5,0,0,1,.913,4.825" transform="translate(-2383.746 -1299.927)" fill="none" stroke="#000" stroke-linejoin="round" stroke-width="0.25"/>
        <path id="Path_15787" data-name="Path 15787" d="M2498.248,1379.406a12.247,12.247,0,0,1,1.441,4.822" transform="translate(-2380.957 -1299.801)" fill="none" stroke="#000" stroke-linejoin="round" stroke-width="0.25"/>
        <path id="Path_15788" data-name="Path 15788" d="M2506.49,1379.78a7.656,7.656,0,0,1,.78,5.313" transform="translate(-2377.71 -1299.654)" fill="none" stroke="#000" stroke-linejoin="round" stroke-width="0.25"/>
        <path id="Path_15789" data-name="Path 15789" d="M2514.456,1380.869a12.341,12.341,0,0,1-.192,4.251" transform="translate(-2374.649 -1299.225)" fill="none" stroke="#000" stroke-linejoin="round" stroke-width="0.25"/>
        <path id="Path_15790" data-name="Path 15790" d="M2518.867,1382.033a6.813,6.813,0,0,1-1.036,2.853" transform="translate(-2373.244 -1298.767)" fill="none" stroke="#000" stroke-linejoin="round" stroke-width="0.25"/>
      </g>
      <path id="Path_15791" data-name="Path 15791" d="M2398.094,1314.623a13.822,13.822,0,0,0-2.084,13.208c2.595,8.054,15.844,28.274,15.844,28.274s-5.185,1.648-4.025,8.695,3.943,10.938,13.088,10.949,19.2-5.184,22.957-13.89-2.882-16.54-6.8-22.1-12.481-21.636-12.481-21.636A27.891,27.891,0,0,0,2398.094,1314.623Z" transform="translate(-2384.199 -1135.579)" fill="#fff" stroke="#000" stroke-miterlimit="10" stroke-width="0.25"/>
      <path id="Path_15792" data-name="Path 15792" d="M2429.223,1326.958c17.715,7.573,29.7,17.37,60.32,18.983s38.585-2.543,55.6-10.574c14.695-6.937,27.67-7.05,35.2-4.725-10.865-16.223-43.981-55.276-78.351-67.3l-29.973.985s-25.6,10.046-52.226,36.17c-9.788,9.6-16.575,17.506-20.383,23.3C2403.482,1322.8,2415.058,1320.9,2429.223,1326.958Z" transform="translate(-2382.552 -1155.037)" fill="#e6ad18" stroke="#000" stroke-miterlimit="10" stroke-width="0.25"/>
      <path id="Path_15793" data-name="Path 15793" d="M2585.041,1320.4c-.264-1.052-1.544-3.358-3.67-6.532-7.53-2.325-20.505-2.212-35.2,4.725-17.012,8.031-24.982,12.185-55.6,10.574s-42.605-11.41-60.32-18.983c-14.165-6.057-25.741-4.159-29.815-3.156-4.545,6.918-4.842,10.831-.874,11.01,7.294.33,21.017-.955,41.517,9.506s53.007,15.43,76.141,9.8,31.711-12.546,47.711-15S2586.656,1326.828,2585.041,1320.4Z" transform="translate(-2383.582 -1138.262)" fill="#fff3d9" stroke="#000" stroke-miterlimit="10" stroke-width="0.25"/>
      <path id="Path_15794" data-name="Path 15794" d="M2419.33,1285.372l20.3-1.082,8.826,11.84,13.114-5.126,12.84,11.7,17.417-13.194,16.031,10.9,9.786-12.586,14.935,7.032,6.645-10.41" transform="translate(-2374.706 -1146.788)" fill="none" stroke="#000" stroke-linejoin="round" stroke-width="0.25"/>
      <path id="Path_15795" data-name="Path 15795" d="M2410,1295.211l24.064,1.09,14.646,13.1,16.029-7.626,13.993,11.919,16.524-12.914,19.522,12.515,10.07-12.888,18.219,6.269,9.459-15.534" transform="translate(-2378.379 -1144.088)" fill="none" stroke="#000" stroke-linejoin="round" stroke-width="0.25"/>
      <path id="Path_15796" data-name="Path 15796" d="M2544.443,1319.1s2.818,7.5-3.519,15.45-12.877,15.89-12.877,15.89,5.316.858,4.205,7.192-4.322,13.6-15.625,13.09-17.4-11.291-16.584-20.314,10.027-28.12,10.027-28.12S2533.707,1309.384,2544.443,1319.1Z" transform="translate(-2342.943 -1134.505)" fill="#fff" stroke="#000" stroke-miterlimit="10" stroke-width="0.25"/>
      <ellipse id="Ellipse_2832" data-name="Ellipse 2832" cx="24.361" cy="23.343" rx="24.361" ry="23.343" transform="matrix(0.045, -0.999, 0.999, 0.045, 79.534, 113.426)" fill="#fff" stroke="#000" stroke-miterlimit="10" stroke-width="0.25"/>
      <ellipse id="Ellipse_2833" data-name="Ellipse 2833" cx="9.797" cy="16.118" rx="9.797" ry="16.118" transform="translate(63.562 74.334) rotate(-12.146)" fill="#e6ad18" stroke="#000" stroke-miterlimit="10" stroke-width="0.25"/>
      <path id="Path_15797" data-name="Path 15797" d="M2440.323,1247.99a13.86,13.86,0,0,1,2.213,10.658" transform="translate(-2366.437 -1161.086)" fill="none" stroke="#000" stroke-linejoin="round" stroke-width="0.25"/>
      <ellipse id="Ellipse_2834" data-name="Ellipse 2834" cx="16.118" cy="9.797" rx="16.118" ry="9.797" transform="matrix(0.045, -0.999, 0.999, 0.045, 121.17, 98.328)" fill="#e6ad18" stroke="#000" stroke-miterlimit="10" stroke-width="0.25"/>
      <path id="Path_15798" data-name="Path 15798" d="M2482.013,1242.647s-1.448,5.944,1.029,11.126" transform="translate(-2350.182 -1163.191)" fill="none" stroke="#000" stroke-linejoin="round" stroke-width="0.25"/>
      <path id="Path_15799" data-name="Path 15799" d="M2513.969,1238.5a13.084,13.084,0,0,0-6.305-24.189c-.368-.017-.732-.007-1.094.006a25.273,25.273,0,0,0,1.264-5.263c1.471-11.355-4.811-21.529-14.034-22.725a14.889,14.889,0,0,0-10.78,2.981,16.228,16.228,0,0,0-3.55-2.212c-9.173-4.161-20.454.937-25.2,11.388a22.448,22.448,0,0,0-1.586,14.116c-.243-.022-.481-.059-.726-.07a14.409,14.409,0,0,0-11.16,24.263,9.783,9.783,0,0,0,2.372,18.547,9.789,9.789,0,1,0,15.169,11.2,6.615,6.615,0,0,1,11.94,1.542,8.717,8.717,0,0,1,15.983,2.74,14.951,14.951,0,0,0,15.4-17.783,9.013,9.013,0,0,0,5.287,2.273,9.488,9.488,0,0,0,10.039-8.9A9.782,9.782,0,0,0,2513.969,1238.5Z" transform="translate(-2368.508 -1185.644)" fill="#96c6e7" stroke="#000" stroke-linejoin="round" stroke-width="0.25"/>
      <g id="Group_4135" data-name="Group 4135" transform="translate(76.22 45.61)">
        <path id="Path_15800" data-name="Path 15800" d="M2448.211,1233.574a11.352,11.352,0,0,0-6.214,1.843h0" transform="translate(-2441.997 -1212.38)" fill="#e6ad18" stroke="#000" stroke-miterlimit="10" stroke-width="0.25"/>
        <path id="Path_15801" data-name="Path 15801" d="M2464.526,1218.885C2443.554,1222.569,2442,1241.4,2442,1241.4a11.352,11.352,0,0,1,6.214-1.843s4.049-15.461,19.85-15.621c16.484-.169,23.148,12.447,23.148,12.447l.121.032a9.658,9.658,0,0,1,5.7,1.474C2497.667,1233.25,2486.183,1215.08,2464.526,1218.885Z" transform="translate(-2441.997 -1218.365)" fill="#e6ad18" stroke="#000" stroke-miterlimit="10" stroke-width="0.25"/>
      </g>
      <path id="Path_15802" data-name="Path 15802" d="M2440.882,1236.466s3.936-3.161,7.768-2.891" transform="translate(-2366.216 -1166.771)" fill="none" stroke="#000" stroke-linejoin="round" stroke-width="0.25"/>
      <path id="Path_15803" data-name="Path 15803" d="M2475.363,1231.575c.288.012,7.9-1.695,10.425,3.476" transform="translate(-2352.635 -1167.655)" fill="none" stroke="#000" stroke-linejoin="round" stroke-width="0.25"/>
      <path id="Path_15804" data-name="Path 15804" d="M2467.76,1202.026s10.38-2.761,9.705,9.01c0,0,7.323-1.073,7.346,6.514" transform="translate(-2355.63 -1179.302)" fill="none" stroke="#000" stroke-linejoin="round" stroke-width="0.25"/>
      <ellipse id="Ellipse_2835" data-name="Ellipse 2835" cx="2.139" cy="0.984" rx="2.139" ry="0.984" transform="matrix(0.004, -1, 1, 0.004, 99.271, 91.883)"/>
      <ellipse id="Ellipse_2836" data-name="Ellipse 2836" cx="2.139" cy="0.984" rx="2.139" ry="0.984" transform="matrix(0.004, -1, 1, 0.004, 105.364, 91.906)"/>
    </g>
    <g id="Group_4137" data-name="Group 4137" transform="translate(2656.365 1470.835)">
      <path id="Path_15805" data-name="Path 15805" d="M2577.056,1392.69s2.441,18.22-8.812,30.808" transform="translate(-2568.225 -1389.282)" fill="none" stroke="#000" stroke-linejoin="round" stroke-width="0.25"/>
      <path id="Path_15806" data-name="Path 15806" d="M2569.656,1396.726a9.287,9.287,0,0,0,5.882,9.438" transform="translate(-2567.68 -1387.692)" fill="none" stroke="#000" stroke-linejoin="round" stroke-width="0.25"/>
      <path id="Path_15807" data-name="Path 15807" d="M2572.6,1410.433s10,2.47,18.319-9.851" transform="translate(-2566.51 -1386.173)" fill="none" stroke="#000" stroke-linejoin="round" stroke-width="0.25"/>
      <path id="Path_15808" data-name="Path 15808" d="M2581.974,1396.579s-4.85,7.924-1.712,13.39" transform="translate(-2563.907 -1387.75)" fill="none" stroke="#000" stroke-linejoin="round" stroke-width="0.25"/>
      <circle id="Ellipse_2837" data-name="Ellipse 2837" cx="1.88" cy="1.88" r="1.88" transform="translate(6.845)" fill="#90d1a2" stroke="#000" stroke-linejoin="round" stroke-width="0.25"/>
      <circle id="Ellipse_2838" data-name="Ellipse 2838" cx="1.88" cy="1.88" r="1.88" transform="translate(0 5.114)" fill="#90d1a2" stroke="#000" stroke-linejoin="round" stroke-width="0.25"/>
      <circle id="Ellipse_2839" data-name="Ellipse 2839" cx="1.88" cy="1.88" r="1.88" transform="translate(17.027 5.773)" fill="#90d1a2" stroke="#000" stroke-linejoin="round" stroke-width="0.25"/>
      <circle id="Ellipse_2840" data-name="Ellipse 2840" cx="1.88" cy="1.88" r="1.88" transform="translate(23.761 11.4)" fill="#90d1a2" stroke="#000" stroke-linejoin="round" stroke-width="0.25"/>
    </g>
  </g>
</svg>
