<svg xmlns="http://www.w3.org/2000/svg" width="366.088" height="383.757" viewBox="0 0 366.088 383.757">
  <g id="Group_3979" data-name="Group 3979" transform="translate(-1047.77 -1203.717)">
    <g id="Group_3357" data-name="Group 3357" transform="translate(1270.261 1435.494)">
      <g id="Group_3356" data-name="Group 3356">
        <g id="Group_3355" data-name="Group 3355">
          <path id="Path_10946" data-name="Path 10946" d="M1200.279,1399.872c5.537-13.415,22.573-13.1,23-12.883.533.213,1.811-19.806,15.545-22.574a28.832,28.832,0,0,1,22.893,4.791s1.49-7.134,10.435-8.624,9.689,9.37,9.689,9.37,2.022-5.111,8.944-5.324c6.815-.213,11.926,7.134,8.091,12.671,0,0,9.371-5.324,16.824.744,7.348,6.069,2.024,13.2,2.024,13.2s11.711-3.513,19.8,4.365,2.237,23.85,0,25.448c0,0,8.624,12.245-4.578,19.591,0,0,3.3,12.991-13.948,18,0,0-20.869,22.041-61.438,3.087,0,0-19.272,10.861-38.437-1.6,0,0-13.2,3.939-18.528-5.963-5.43-10.009,4.472-23.852,4.472-23.852S1193.678,1415.843,1200.279,1399.872Z" transform="translate(-1198.221 -1360.442)" fill="#b4c834" stroke="#000" stroke-miterlimit="10" stroke-width="0.25"/>
          <path id="Path_10947" data-name="Path 10947" d="M1249.819,1392.825s-2.235-7.241,2.237-11.073c3.407-2.982,6.813.746,4.365,6.6,0,0,3.194-3.515,5.324-1.917,1.811,1.491-.213,6.389-2.556,8.411" transform="translate(-1173.76 -1350.733)" fill="none" stroke="#221714" stroke-linecap="round" stroke-linejoin="round" stroke-width="0.25"/>
          <path id="Path_10948" data-name="Path 10948" d="M1225.339,1401.449s-5-7.24-.959-11.818c3.3-3.728,10.648.426,10.648,5.963,0,0,1.065-7.454,4.793-7.987,2.768-.319,5.111,3.407,3.3,6.922" transform="translate(-1186.441 -1347.432)" fill="none" stroke="#221714" stroke-linecap="round" stroke-linejoin="round" stroke-width="0.25"/>
          <path id="Path_10949" data-name="Path 10949" d="M1246.618,1405.308c-.319-.107,7.454,56.539,4.259,80.6" transform="translate(-1175.031 -1338.94)" fill="none" stroke="#221714" stroke-linecap="round" stroke-linejoin="round" stroke-width="0.25"/>
          <path id="Path_10950" data-name="Path 10950" d="M1256.2,1406.964s-.639,26.192-7.134,34.5" transform="translate(-1173.855 -1338.146)" fill="none" stroke="#221714" stroke-linecap="round" stroke-linejoin="round" stroke-width="0.25"/>
          <path id="Path_10951" data-name="Path 10951" d="M1272.34,1409.051s-11.18,46.423-13.417,75.171" transform="translate(-1169.129 -1337.146)" fill="none" stroke="#221714" stroke-linecap="round" stroke-linejoin="round" stroke-width="0.25"/>
          <path id="Path_10952" data-name="Path 10952" d="M1259.31,1418.192s-3.833,28.217,2.237,43.549" transform="translate(-1169.516 -1332.765)" fill="none" stroke="#221714" stroke-linecap="round" stroke-linejoin="round" stroke-width="0.25"/>
          <path id="Path_10953" data-name="Path 10953" d="M1221.278,1406.964s10.968,49.83,7.88,71.339" transform="translate(-1187.171 -1338.146)" fill="none" stroke="#221714" stroke-linecap="round" stroke-linejoin="round" stroke-width="0.25"/>
          <path id="Path_10954" data-name="Path 10954" d="M1215.88,1413.658s4.472,30.878,15.972,39.289" transform="translate(-1189.758 -1334.938)" fill="none" stroke="#221714" stroke-linecap="round" stroke-linejoin="round" stroke-width="0.25"/>
        </g>
      </g>
    </g>
    <g id="Group_3360" data-name="Group 3360" transform="translate(1072.858 1422.84)">
      <g id="Group_3359" data-name="Group 3359">
        <g id="Group_3358" data-name="Group 3358">
          <path id="Path_10955" data-name="Path 10955" d="M1206.169,1391.318c-5.537-13.415-22.574-13.1-23-12.883-.532.212-1.811-19.806-15.546-22.573a28.825,28.825,0,0,0-22.893,4.791s-1.49-7.135-10.433-8.624-9.69,9.37-9.69,9.37-2.022-5.111-8.944-5.324c-6.815-.213-11.926,7.133-8.091,12.67,0,0-9.371-5.324-16.824.746-7.348,6.069-2.024,13.2-2.024,13.2s-11.711-3.515-19.8,4.365-2.235,23.85,0,25.448c0,0-8.624,12.245,4.578,19.591,0,0-3.3,12.991,13.949,18,0,0,20.869,22.041,61.437,3.087,0,0,19.272,10.861,38.437-1.6,0,0,13.2,3.941,18.528-5.962,5.431-10.008-4.472-23.851-4.472-23.851S1212.769,1407.289,1206.169,1391.318Z" transform="translate(-1064.774 -1351.888)" fill="#b4c834" stroke="#000" stroke-miterlimit="10" stroke-width="0.25"/>
          <path id="Path_10956" data-name="Path 10956" d="M1139.362,1390.821s5.666-5.033,3.828-10.629c-1.368-4.317-6.213-2.9-7.155,3.382,0,0-.91-4.661-3.559-4.4-2.321.336-3.13,5.574-2.176,8.518" transform="translate(-1033.558 -1339.514)" fill="none" stroke="#221714" stroke-linecap="round" stroke-linejoin="round" stroke-width="0.25"/>
          <path id="Path_10957" data-name="Path 10957" d="M1115.85,1385.1s-.729-8.772-6.762-9.741c-4.917-.784-7.957,7.089-4.442,11.367,0,0-5.554-5.083-8.772-3.129-2.342,1.51-1.787,5.877,1.843,7.442" transform="translate(-1050.544 -1340.667)" fill="none" stroke="#221714" stroke-linecap="round" stroke-linejoin="round" stroke-width="0.25"/>
          <path id="Path_10958" data-name="Path 10958" d="M1114.986,1396.754c.32-.107-7.454,56.539-4.259,80.6" transform="translate(-1043.121 -1330.386)" fill="none" stroke="#221714" stroke-linecap="round" stroke-linejoin="round" stroke-width="0.25"/>
          <path id="Path_10959" data-name="Path 10959" d="M1106.086,1398.409s.639,26.193,7.134,34.5" transform="translate(-1044.975 -1329.592)" fill="none" stroke="#221714" stroke-linecap="round" stroke-linejoin="round" stroke-width="0.25"/>
          <path id="Path_10960" data-name="Path 10960" d="M1091.978,1400.5s11.18,46.423,13.417,75.172" transform="translate(-1051.737 -1328.592)" fill="none" stroke="#221714" stroke-linecap="round" stroke-linejoin="round" stroke-width="0.25"/>
          <path id="Path_10961" data-name="Path 10961" d="M1101.773,1409.638s3.833,28.217-2.237,43.549" transform="translate(-1048.114 -1324.211)" fill="none" stroke="#221714" stroke-linecap="round" stroke-linejoin="round" stroke-width="0.25"/>
          <path id="Path_10962" data-name="Path 10962" d="M1129.192,1396.754s-8.944,55.793-4.578,78.473" transform="translate(-1036.671 -1330.385)" fill="none" stroke="#221714" stroke-linecap="round" stroke-linejoin="round" stroke-width="0.25"/>
          <path id="Path_10963" data-name="Path 10963" d="M1120.122,1402.944s3.089,31.411,5.111,44.295" transform="translate(-1038.248 -1327.419)" fill="none" stroke="#221714" stroke-linecap="round" stroke-linejoin="round" stroke-width="0.25"/>
          <path id="Path_10964" data-name="Path 10964" d="M1141.423,1398.409s-10.967,49.832-7.88,71.34" transform="translate(-1032.078 -1329.592)" fill="none" stroke="#221714" stroke-linecap="round" stroke-linejoin="round" stroke-width="0.25"/>
          <path id="Path_10965" data-name="Path 10965" d="M1149.266,1405.1s-4.472,30.88-15.971,39.29" transform="translate(-1031.936 -1326.384)" fill="none" stroke="#221714" stroke-linecap="round" stroke-linejoin="round" stroke-width="0.25"/>
        </g>
      </g>
    </g>
    <g id="Group_3366" data-name="Group 3366" transform="translate(1047.906 1203.842)">
      <g id="Group_3363" data-name="Group 3363" transform="translate(75.023)">
        <path id="Path_10966" data-name="Path 10966" d="M1149.575,1448.9s.76,4.534-.148,5.682-11.56,5.262-10.806,9.967c.7,4.376,8.1,4.621,23.706-3.458a7.032,7.032,0,0,0,3.779-6.051l.271-10.262Z" transform="translate(-1079.471 -1088.371)" fill="#fff" stroke="#000" stroke-miterlimit="10" stroke-width="0.25"/>
        <path id="Path_10967" data-name="Path 10967" d="M1202.214,1446.213s.377,6.044-.207,7.9-10.689,6.377-7.905,11.235c2.278,3.975,13.95-.016,20.581-4.041a7.5,7.5,0,0,0,3.615-6.216l.358-13.648Z" transform="translate(-1053.095 -1089.969)" fill="#fff" stroke="#000" stroke-miterlimit="10" stroke-width="0.25"/>
        <g id="Group_3361" data-name="Group 3361" transform="translate(30.463 166.778)">
          <path id="Path_10968" data-name="Path 10968" d="M1130.583,1329.341s-18.263,94.693-8.49,143.837,57.789,38.308,80.111,30.765c0,0,5.72,7.681,32.186,4.256,28.789-3.725,44.286-8.186,54.909-18.591s7.79-31.988,6.26-53.311-9.374-86.235-20.389-107.434C1275.17,1328.864,1171.36,1300.923,1130.583,1329.341Z" transform="translate(-1119.216 -1316.586)" fill="#f98a10" stroke="#000" stroke-miterlimit="10" stroke-width="0.25"/>
          <path id="Path_10969" data-name="Path 10969" d="M1171.006,1342.47s-1.862,91.241-2.256,108.149-1.393,30.791,9.815,40.921" transform="translate(-1095.578 -1304.181)" fill="none" stroke="#000" stroke-miterlimit="10" stroke-width="0.25"/>
          <path id="Path_10970" data-name="Path 10970" d="M1120.563,1419.019s15.51,7.875,43.295,9.435c14.955.84,23.266,1.024,27.752,1.015" transform="translate(-1118.571 -1267.494)" fill="none" stroke="#000" stroke-miterlimit="10" stroke-width="0.25"/>
          <path id="Path_10971" data-name="Path 10971" d="M1168.667,1428.8s19.823,7.1,52.749,1.384,45.574-13.912,51.846-18.647" transform="translate(-1095.516 -1271.078)" fill="none" stroke="#000" stroke-miterlimit="10" stroke-width="0.25"/>
          <circle id="Ellipse_1842" data-name="Ellipse 1842" cx="2.55" cy="2.55" r="2.55" transform="translate(151.096 161.036)" fill="#b4c834" stroke="#000" stroke-miterlimit="10" stroke-width="0.25"/>
          <circle id="Ellipse_1843" data-name="Ellipse 1843" cx="2.55" cy="2.55" r="2.55" transform="translate(150.838 170.866)" fill="#b4c834" stroke="#000" stroke-miterlimit="10" stroke-width="0.25"/>
          <path id="Path_10972" data-name="Path 10972" d="M1137.617,1334.857s-4.439,36.072-4.676,63.206" transform="translate(-1112.639 -1307.83)" fill="none" stroke="#000" stroke-miterlimit="10" stroke-width="0.25"/>
          <path id="Path_10973" data-name="Path 10973" d="M1132.687,1386.747s-1.683,28.008.583,41.1" transform="translate(-1113.048 -1282.961)" fill="none" stroke="#000" stroke-miterlimit="10" stroke-width="0.25"/>
          <path id="Path_10974" data-name="Path 10974" d="M1153.125,1332.957a733.213,733.213,0,0,0-6.3,87.6" transform="translate(-1105.983 -1308.74)" fill="none" stroke="#000" stroke-miterlimit="10" stroke-width="0.25"/>
          <path id="Path_10975" data-name="Path 10975" d="M1141.884,1360.2s-3.808,32.861-1.578,60.113" transform="translate(-1109.444 -1295.685)" fill="none" stroke="#000" stroke-miterlimit="10" stroke-width="0.25"/>
          <path id="Path_10976" data-name="Path 10976" d="M1146.6,1401s-.772,19.232,1.248,29.872" transform="translate(-1106.163 -1276.128)" fill="none" stroke="#000" stroke-miterlimit="10" stroke-width="0.25"/>
          <path id="Path_10977" data-name="Path 10977" d="M1158.608,1365.5s-2.871,51.728,1.984,82.862" transform="translate(-1100.741 -1293.141)" fill="none" stroke="#000" stroke-miterlimit="10" stroke-width="0.25"/>
          <path id="Path_10978" data-name="Path 10978" d="M1164.547,1333.284s-3.874,17.891-3.028,28.879" transform="translate(-1099 -1308.583)" fill="none" stroke="#000" stroke-miterlimit="10" stroke-width="0.25"/>
          <path id="Path_10979" data-name="Path 10979" d="M1181.214,1334.209s1.556,9.364,2.247,22.078" transform="translate(-1089.503 -1308.14)" fill="none" stroke="#000" stroke-miterlimit="10" stroke-width="0.25"/>
          <path id="Path_10980" data-name="Path 10980" d="M1183.5,1361.309s6.072,42.34,4.531,72.256" transform="translate(-1088.409 -1295.152)" fill="none" stroke="#000" stroke-miterlimit="10" stroke-width="0.25"/>
          <path id="Path_10981" data-name="Path 10981" d="M1189.758,1340.861s9.359,37.2,8.6,60.794" transform="translate(-1085.408 -1304.952)" fill="none" stroke="#000" stroke-miterlimit="10" stroke-width="0.25"/>
          <path id="Path_10982" data-name="Path 10982" d="M1196.875,1332.379s9.1,22.763,10.958,48.321" transform="translate(-1081.997 -1309.017)" fill="none" stroke="#000" stroke-miterlimit="10" stroke-width="0.25"/>
          <path id="Path_10983" data-name="Path 10983" d="M1196.114,1393.47s1.429,18.64.46,25.064" transform="translate(-1082.362 -1279.739)" fill="none" stroke="#000" stroke-miterlimit="10" stroke-width="0.25"/>
          <path id="Path_10984" data-name="Path 10984" d="M1205.173,1373.524s3.97,36.1,1.645,61.876" transform="translate(-1078.021 -1289.298)" fill="none" stroke="#000" stroke-miterlimit="10" stroke-width="0.25"/>
          <path id="Path_10985" data-name="Path 10985" d="M1217.672,1400.041s.313,17.535-.648,24.707" transform="translate(-1072.341 -1276.59)" fill="none" stroke="#000" stroke-miterlimit="10" stroke-width="0.25"/>
          <path id="Path_10986" data-name="Path 10986" d="M1232.191,1398.939s.63,7.436-.289,10.985" transform="translate(-1065.21 -1277.118)" fill="none" stroke="#000" stroke-miterlimit="10" stroke-width="0.25"/>
          <path id="Path_10987" data-name="Path 10987" d="M1186.5,1415.94s.478,5.711-.186,7.108" transform="translate(-1087.057 -1268.97)" fill="none" stroke="#000" stroke-miterlimit="10" stroke-width="0.25"/>
          <path id="Path_10988" data-name="Path 10988" d="M1213.2,1349.934s7.053,32.377,6.666,60.116" transform="translate(-1074.171 -1300.604)" fill="none" stroke="#000" stroke-miterlimit="10" stroke-width="0.25"/>
          <path id="Path_10989" data-name="Path 10989" d="M1220.045,1337.061s11.527,31.967,13.91,77.265" transform="translate(-1070.893 -1306.773)" fill="none" stroke="#000" stroke-miterlimit="10" stroke-width="0.25"/>
          <path id="Path_10990" data-name="Path 10990" d="M1207.888,1332.668a42.188,42.188,0,0,1,4.858,14.452" transform="translate(-1076.72 -1308.879)" fill="none" stroke="#000" stroke-miterlimit="10" stroke-width="0.25"/>
        </g>
        <path id="Path_10991" data-name="Path 10991" d="M1110.463,1286.68c18.019-29.56,51.838-54.555,99.242-53.311,67.069,1.762,92.789,51.063,97.39,72.861s-1.253,65.92-32.9,70.82c-25.393,3.932-82.8-15.393-82.8-15.393s-36.434,24.125-62.55,12.335S1086.171,1326.53,1110.463,1286.68Z" transform="translate(-1098.623 -1189.712)" fill="#fae3bb" stroke="#040000" stroke-linejoin="round" stroke-width="0.25"/>
        <path id="Path_10992" data-name="Path 10992" d="M1125.773,1300.528s58.766-36.844,96.514-3.05" transform="translate(-1085.61 -1165.803)" fill="none" stroke="#000" stroke-miterlimit="10" stroke-width="0.25"/>
        <path id="Path_10993" data-name="Path 10993" d="M1133.2,1280.073s-2.024,10.812-.436,16.6" transform="translate(-1082.552 -1167.307)" fill="none" stroke="#000" stroke-miterlimit="10" stroke-width="0.25"/>
        <circle id="Ellipse_1844" data-name="Ellipse 1844" cx="3.477" cy="3.477" r="3.477" transform="translate(106.103 97.42)" fill="#b4c834" stroke="#000" stroke-miterlimit="10" stroke-width="0.25"/>
        <circle id="Ellipse_1845" data-name="Ellipse 1845" cx="3.477" cy="3.477" r="3.477" transform="translate(106.566 79.793)" fill="#b4c834" stroke="#000" stroke-miterlimit="10" stroke-width="0.25"/>
        <path id="Path_10994" data-name="Path 10994" d="M1174.114,1237.758c-6.217,2.188-18.73,9.634-18.958,34.149a.516.516,0,0,0,.719.486c3.991-1.873,23.122-11.923,22.038-32.088A2.873,2.873,0,0,0,1174.114,1237.758Z" transform="translate(-1071.528 -1187.664)" fill="#b4c834" stroke="#000" stroke-miterlimit="10" stroke-width="0.25"/>
        <path id="Path_10995" data-name="Path 10995" d="M1175.876,1237.024c5.623,1.507,19.156,7.874,18.772,34.212a.514.514,0,0,1-.774.447c-3.784-2.379-20.5-13.948-20.489-32.692A2,2,0,0,1,1175.876,1237.024Z" transform="translate(-1062.792 -1187.971)" fill="#b4c834" stroke="#000" stroke-miterlimit="10" stroke-width="0.25"/>
        <path id="Path_10996" data-name="Path 10996" d="M1161.341,1339.834s11.91-9.2,23.316-19.686,18.81-27.514,41.326-23.876c0,0-4.822-6.035-5.859-17.412" transform="translate(-1068.564 -1167.889)" fill="none" stroke="#000" stroke-miterlimit="10" stroke-width="0.25"/>
        <path id="Path_10997" data-name="Path 10997" d="M1172.389,1283.887s11.3,9.124,10.254,30.57" transform="translate(-1063.269 -1165.479)" fill="none" stroke="#000" stroke-miterlimit="10" stroke-width="0.25"/>
        <path id="Path_10998" data-name="Path 10998" d="M1175.85,1308.864s2.76,12.535-3.286,21.679" transform="translate(-1063.185 -1153.509)" fill="none" stroke="#000" stroke-miterlimit="10" stroke-width="0.25"/>
        <circle id="Ellipse_1846" data-name="Ellipse 1846" cx="5.919" cy="5.919" r="5.919" transform="translate(102.728 50.642)" fill="#f98a10" stroke="#000" stroke-miterlimit="10" stroke-width="0.25"/>
        <g id="Group_3362" data-name="Group 3362" transform="translate(62.022)">
          <ellipse id="Ellipse_1847" data-name="Ellipse 1847" cx="18.369" cy="14.333" rx="18.369" ry="14.333" transform="translate(62.574 45.728) rotate(-88.496)" fill="#fff" stroke="#000" stroke-miterlimit="10" stroke-width="0.25"/>
          <ellipse id="Ellipse_1848" data-name="Ellipse 1848" cx="18.369" cy="14.333" rx="18.369" ry="14.333" transform="translate(0 44.085) rotate(-88.496)" fill="#fff" stroke="#000" stroke-miterlimit="10" stroke-width="0.25"/>
          <circle id="Ellipse_1849" data-name="Ellipse 1849" cx="26.363" cy="26.363" r="26.363" transform="translate(18.407)" fill="#fff" stroke="#000" stroke-miterlimit="10" stroke-width="0.25"/>
          <ellipse id="Ellipse_1850" data-name="Ellipse 1850" cx="3.164" cy="1.71" rx="3.164" ry="1.71" transform="translate(34.292 37.237) rotate(-88.496)"/>
          <ellipse id="Ellipse_1851" data-name="Ellipse 1851" cx="3.164" cy="1.71" rx="3.164" ry="1.71" transform="translate(45.8 37.539) rotate(-88.496)"/>
        </g>
      </g>
      <g id="Group_3365" data-name="Group 3365" transform="translate(0 210.445)">
        <g id="Group_3364" data-name="Group 3364" transform="translate(0 44.391)">
          <path id="Path_10999" data-name="Path 10999" d="M1088.151,1404.147c2.218,11.8,9.534,16.245,13.089,17.739-3.3-15.319-6.654-29.779-9.392-39.24C1089.777,1385.384,1085.928,1392.321,1088.151,1404.147Z" transform="translate(-1028.939 -1372.984)" fill="#f98a10" stroke="#000" stroke-miterlimit="10" stroke-width="0.25"/>
          <path id="Path_11000" data-name="Path 11000" d="M1081.155,1424.605c-2.286,22.716-1.191,30.132-5.555,30.745-4.927.689-18.143-17.667-25.3-39.209a1.181,1.181,0,0,0-2.3.272c-.426,6.692.348,19.733,8.448,38.986,12.342,29.335,39.082,27.826,39.082,27.826s3.062.272,7.449.549C1103.418,1439.225,1087.924,1427.558,1081.155,1424.605Z" transform="translate(-1047.906 -1357.326)" fill="#f98a10" stroke="#000" stroke-miterlimit="10" stroke-width="0.25"/>
          <path id="Path_11001" data-name="Path 11001" d="M1123.266,1494.283s-6.79-36.567-13.833-69.266c-3.555-1.494-10.871-5.939-13.089-17.739-2.223-11.827,1.626-18.763,3.7-21.5-.994-3.432-2.567-7.747-3.365-9.663l-13.788.919s-5.426,13.374-10.473,49.479c-.895,6.4-1.541,11.989-2.032,16.881,6.769,2.953,22.262,14.62,21.822,59.169,11.086.7,30.65,1.422,30.8-2.139,0,0,10.7.34,10.8-2.178C1133.972,1494.444,1123.266,1494.283,1123.266,1494.283Z" transform="translate(-1037.134 -1376.114)" fill="#f7b42f" stroke="#000" stroke-miterlimit="10" stroke-width="0.25"/>
        </g>
        <path id="Path_11002" data-name="Path 11002" d="M1090.042,1347.12c2.757.117,5.2,28.011,5.2,28.011l-11.889-.5S1086.52,1346.971,1090.042,1347.12Z" transform="translate(-1030.917 -1345.619)" fill="#f7b42f" stroke="#000" stroke-miterlimit="10" stroke-width="0.25"/>
        <path id="Path_11003" data-name="Path 11003" d="M1081.205,1423.4s29.122-4.988,26.986,49.854c0,0,10.08-.719,9.628,4.56" transform="translate(-1031.947 -1309.117)" fill="none" stroke="#000" stroke-miterlimit="10" stroke-width="0.25"/>
        <path id="Path_11004" data-name="Path 11004" d="M1083.512,1346.106c2.679.113,4.309,17.361,4.762,22.868a2.314,2.314,0,0,0,1.862,1.96c1.944.544,4.646.4,8.518.144,7.861-.525,16.278-.213,16.139,3.038-.182,4.3-13.677,19.587-26.9,19.025-12.886-.546-14.822-8.685-12.34-20.918C1077.8,1361.162,1080.322,1345.97,1083.512,1346.106Z" transform="translate(-1035.102 -1346.105)" fill="#f7b42f" stroke="#000" stroke-miterlimit="10" stroke-width="0.25"/>
        <circle id="Ellipse_1852" data-name="Ellipse 1852" cx="1.525" cy="1.525" r="1.525" transform="translate(53.466 29.745)"/>
        <circle id="Ellipse_1853" data-name="Ellipse 1853" cx="2.614" cy="2.614" r="2.614" transform="translate(77.118 24.448)" fill="#f98a10" stroke="#000" stroke-miterlimit="10" stroke-width="0.25"/>
      </g>
    </g>
    <g id="Group_3369" data-name="Group 3369" transform="translate(1314.721 1492.612)">
      <g id="Group_3368" data-name="Group 3368">
        <g id="Group_3367" data-name="Group 3367">
          <path id="Path_11005" data-name="Path 11005" d="M1263.46,1412.425s-26.193,34.391-28.215,74.958" transform="translate(-1224.937 -1392.647)" fill="none" stroke="#221714" stroke-linecap="round" stroke-linejoin="round" stroke-width="0.25"/>
          <path id="Path_11006" data-name="Path 11006" d="M1269.362,1400.518c-3.621-3.726-10.967.213-14.269,5.643-3.513,5.856-3.62,13.417,2.876,12.991C1264.464,1418.62,1274.579,1405.842,1269.362,1400.518Z" transform="translate(-1216.569 -1399.055)" fill="#ffe7bd" stroke="#000" stroke-miterlimit="10" stroke-width="0.25"/>
          <path id="Path_11007" data-name="Path 11007" d="M1245.77,1409.3c2.342-1.491,10.541,8.943,7.026,13.628C1249.283,1427.511,1241.724,1411.753,1245.77,1409.3Z" transform="translate(-1220.449 -1394.211)" fill="#f7b42f" stroke="#000" stroke-miterlimit="10" stroke-width="0.25"/>
          <path id="Path_11008" data-name="Path 11008" d="M1267.05,1399.181s-9.9,6.813-13.522,17.781" transform="translate(-1216.175 -1398.994)" fill="none" stroke="#221714" stroke-linecap="round" stroke-linejoin="round" stroke-width="0.25"/>
          <path id="Path_11009" data-name="Path 11009" d="M1268.07,1400.044a45.409,45.409,0,0,1-12.671,18.421" transform="translate(-1215.278 -1398.581)" fill="none" stroke="#221714" stroke-linecap="round" stroke-linejoin="round" stroke-width="0.25"/>
          <path id="Path_11010" data-name="Path 11010" d="M1239.077,1421.948c2.661-.958,10.541,8.306,7.559,13.735S1232.475,1424.185,1239.077,1421.948Z" transform="translate(-1224.084 -1388.116)" fill="#f7b42f" stroke="#000" stroke-miterlimit="10" stroke-width="0.25"/>
          <path id="Path_11011" data-name="Path 11011" d="M1232.311,1433.706c2.981-1.491,13.841,8.837,10.967,13.948C1240.3,1452.871,1224.75,1437.539,1232.311,1433.706Z" transform="translate(-1227.327 -1382.517)" fill="#f7b42f" stroke="#000" stroke-miterlimit="10" stroke-width="0.25"/>
          <path id="Path_11012" data-name="Path 11012" d="M1228.682,1448.241c1.916-2.663,12.989,4.472,11.285,10.328C1238.159,1464.425,1225.913,1452.18,1228.682,1448.241Z" transform="translate(-1228.277 -1375.757)" fill="#f7b42f" stroke="#000" stroke-miterlimit="10" stroke-width="0.25"/>
          <path id="Path_11013" data-name="Path 11013" d="M1248.473,1451.837c2.875,4.365-13.309,10.86-12.35,5.643C1237.186,1452.157,1245.812,1447.579,1248.473,1451.837Z" transform="translate(-1224.536 -1374.562)" fill="#f7b42f" stroke="#000" stroke-miterlimit="10" stroke-width="0.25"/>
          <path id="Path_11014" data-name="Path 11014" d="M1255.4,1441.976c1.064,5.75-17.463,8.624-16.4,3.194C1240.385,1438.036,1254.442,1436.652,1255.4,1441.976Z" transform="translate(-1223.158 -1380.033)" fill="#f7b42f" stroke="#000" stroke-miterlimit="10" stroke-width="0.25"/>
          <path id="Path_11015" data-name="Path 11015" d="M1257.222,1432.577c-.106,3.833-15.865,4.791-13.63.106S1257.435,1425.442,1257.222,1432.577Z" transform="translate(-1221.041 -1385.114)" fill="#f7b42f" stroke="#000" stroke-miterlimit="10" stroke-width="0.25"/>
          <path id="Path_11016" data-name="Path 11016" d="M1265,1420.334c-1.065,5.643-16.824,2.768-14.8-.852C1253.078,1414.052,1265.854,1416.608,1265,1420.334Z" transform="translate(-1217.854 -1390.761)" fill="#f7b42f" stroke="#000" stroke-miterlimit="10" stroke-width="0.25"/>
        </g>
      </g>
    </g>
  </g>
</svg>
