<svg xmlns="http://www.w3.org/2000/svg" width="358.573" height="369.085" viewBox="0 0 358.573 369.085">
  <g id="Group_3316" data-name="Group 3316" transform="translate(-1941.013 -185.742)">
    <g id="Group_3303" data-name="Group 3303" transform="translate(1941.198 305.776)">
      <g id="Group_3300" data-name="Group 3300">
        <g id="Group_3296" data-name="Group 3296" transform="translate(1.431)">
          <path id="Path_10755" data-name="Path 10755" d="M2040.46,292.365s-1.993-19.768-16.722-22.832c-14.78-3.075-15.052,10.853-27.682,6.517-10.539-3.618-13.274,4.069-19.767,4.2s-16.506,1.787-22.171,11.139.235,11.209-7.126,19.727-6.424,15.182,3.96,20.977,42.686,12.049,65.316-5.262S2041.111,302.658,2040.46,292.365Z" transform="translate(-1942.191 -269.085)" fill="#ffaa85" stroke="#000" stroke-miterlimit="10" stroke-width="0.25"/>
          <path id="Path_10756" data-name="Path 10756" d="M1999.164,277.8s.464,5.963-1.817,10.113" transform="translate(-1917.869 -265.243)" fill="none" stroke="#231815" stroke-miterlimit="10" stroke-width="0.25"/>
          <path id="Path_10757" data-name="Path 10757" d="M1993.413,277.81s.533,4.051-.888,6.454" transform="translate(-1919.996 -265.238)" fill="none" stroke="#231815" stroke-miterlimit="10" stroke-width="0.25"/>
          <path id="Path_10758" data-name="Path 10758" d="M1956.511,289.961s1.964,4.27,4.513,5.053" transform="translate(-1935.876 -259.88)" fill="none" stroke="#231815" stroke-miterlimit="10" stroke-width="0.25"/>
          <path id="Path_10759" data-name="Path 10759" d="M1952.356,295.175s1.914,4.118,4.961,5.017" transform="translate(-1937.709 -257.581)" fill="none" stroke="#231815" stroke-miterlimit="10" stroke-width="0.25"/>
        </g>
        <ellipse id="Ellipse_1807" data-name="Ellipse 1807" cx="6.888" cy="4.119" rx="6.888" ry="4.119" transform="translate(32.778 25.146) rotate(-20.63)" fill="#ffe6c7" stroke="#000" stroke-miterlimit="10" stroke-width="0.25"/>
        <ellipse id="Ellipse_1808" data-name="Ellipse 1808" cx="7.615" cy="4.586" rx="7.615" ry="4.586" transform="translate(54.819 25.705) rotate(-11.975)" fill="#ffe6c7" stroke="#000" stroke-miterlimit="10" stroke-width="0.25"/>
        <ellipse id="Ellipse_1809" data-name="Ellipse 1809" cx="6.614" cy="3.841" rx="6.614" ry="3.841" transform="translate(22.105 43.056) rotate(-34.124)" fill="#ffe6c7" stroke="#000" stroke-miterlimit="10" stroke-width="0.25"/>
        <line id="Line_569" data-name="Line 569" x2="10.958" y2="26.309" transform="translate(42.127 30.429)" fill="none" stroke="#231815" stroke-miterlimit="10" stroke-width="0.25"/>
        <line id="Line_570" data-name="Line 570" x1="3.791" y2="20.634" transform="translate(57.03 33.327)" fill="none" stroke="#231815" stroke-miterlimit="10" stroke-width="0.25"/>
        <line id="Line_571" data-name="Line 571" x2="11.196" y2="11.448" transform="translate(31.89 45.704)" fill="none" stroke="#231815" stroke-miterlimit="10" stroke-width="0.25"/>
        <g id="Group_3297" data-name="Group 3297" transform="translate(33.062 46.053)">
          <path id="Path_10760" data-name="Path 10760" d="M1999.391,307.525s-3.19-5.869-9.258-6.434-5.578,4.248-12.507,6.284-9.848.473-12.856,6.271,5.154,21.495,17.533,21.261S2008.007,330.909,1999.391,307.525Z" transform="translate(-1964.142 -301.045)" fill="#d6cd25" stroke="#000" stroke-miterlimit="10" stroke-width="0.25"/>
          <path id="Path_10761" data-name="Path 10761" d="M1980.188,307.863a21.077,21.077,0,0,1,.735,3.989" transform="translate(-1957.067 -298.039)" fill="none" stroke="#231815" stroke-miterlimit="10" stroke-width="0.25"/>
          <path id="Path_10762" data-name="Path 10762" d="M1974.176,309.85s1.051,2.731,2.589,3.561" transform="translate(-1959.718 -297.163)" fill="none" stroke="#231815" stroke-miterlimit="10" stroke-width="0.25"/>
        </g>
        <g id="Group_3298" data-name="Group 3298" transform="translate(63.404 18.424)">
          <path id="Path_10763" data-name="Path 10763" d="M2028.733,327.564s15.743-11.77,13.462-31.661-17.106-15.816-24.018-5.114-16.371,1-25.979,12.09-1.089,24.148-5.078,33.269-2.61,30.359,12.258,22.166S2028.733,327.564,2028.733,327.564Z" transform="translate(-1985.199 -281.871)" fill="#ffaa85" stroke="#000" stroke-miterlimit="10" stroke-width="0.25"/>
          <path id="Path_10764" data-name="Path 10764" d="M2013.155,298.826s-1.081,7.771-9.035,16.46" transform="translate(-1976.856 -274.395)" fill="none" stroke="#231815" stroke-miterlimit="10" stroke-width="0.25"/>
          <path id="Path_10765" data-name="Path 10765" d="M2002.824,302.739s-.83,9.038-4.563,13.283" transform="translate(-1979.44 -272.669)" fill="none" stroke="#231815" stroke-miterlimit="10" stroke-width="0.25"/>
        </g>
        <g id="Group_3299" data-name="Group 3299" transform="translate(0 51.772)">
          <path id="Path_10766" data-name="Path 10766" d="M1998.948,327.314s-9.714,2.383-20.911-11.751-18.225-11.81-22.065-6.025-12.551,3.319-14.587,11.74,12.817,24.934,35.218,27.116,34.827,4.373,33.75-4.486S1998.948,327.314,1998.948,327.314Z" transform="translate(-1941.198 -305.014)" fill="#ffaa85" stroke="#000" stroke-miterlimit="10" stroke-width="0.25"/>
          <path id="Path_10767" data-name="Path 10767" d="M1951.763,321.111s5.041,5.056,10.725,6.307" transform="translate(-1936.539 -297.917)" fill="none" stroke="#231815" stroke-miterlimit="10" stroke-width="0.25"/>
          <path id="Path_10768" data-name="Path 10768" d="M1957.961,316.006s2.589,4.5,6.667,5.366" transform="translate(-1933.806 -300.168)" fill="none" stroke="#231815" stroke-miterlimit="10" stroke-width="0.25"/>
        </g>
        <path id="Path_10769" data-name="Path 10769" d="M2038.846,313.581s-7.5,23.153-28.541,34.543c0,0,5.558,28.129,33.514,86.759L2034.866,438s-23.932-45.079-34.365-86.563c0,0-18.584,6.767-38.236-7.579,0,0,21.143-4.721,34-1.37,0,0-8.92-17.789-7.085-28.849,0,0,12.453,10.3,17.436,25.454C2006.618,339.092,2019.347,322.626,2038.846,313.581Z" transform="translate(-1931.908 -249.465)" fill="#ffe6c7" stroke="#000" stroke-miterlimit="10" stroke-width="0.25"/>
      </g>
      <g id="Group_3301" data-name="Group 3301" transform="translate(84.095 76.466)">
        <path id="Path_10770" data-name="Path 10770" d="M2025.463,404.523s-35.318,9.881-23.476,48.131c11.206,36.2,57.275,31.574,71.767,16.286,15.354-16.2,15.314-35.7-.646-59.6,0,0,14.716-9.963,13.451-27.531s-16.113-26.656-16.113-26.656,11.631-12.513,4-24.995-23.285-8.5-27.613-.725-3.453,15.632.825,21.109c0,0-18.677.014-27.287,13.27C2011.876,376.9,2015.706,393.716,2025.463,404.523Z" transform="translate(-1999.559 -322.151)" fill="#58ad5d" stroke="#000" stroke-miterlimit="10" stroke-width="0.25"/>
        <path id="Path_10771" data-name="Path 10771" d="M2052.1,351.651s4.7,68.062-36.735,111.668" transform="translate(-1992.591 -309.143)" fill="#58ad5d" stroke="#000" stroke-miterlimit="10" stroke-width="0.25"/>
      </g>
      <g id="Group_3302" data-name="Group 3302" transform="translate(4.336 114.23)">
        <path id="Path_10772" data-name="Path 10772" d="M2055.985,455.872c15.1-21.809,4.01-70.518-40.922-66.986,0,0-2.525-26.81-30.12-24.251,0,0-2.993-19.6-24.806-15.783s-20.35,35.975-.939,38.161c0,0-8.575,33.45,21.365,38.94C1977.144,471.77,2028.9,494.981,2055.985,455.872Z" transform="translate(-1944.207 -348.359)" fill="#58ad5d" stroke="#000" stroke-miterlimit="10" stroke-width="0.25"/>
        <path id="Path_10773" data-name="Path 10773" d="M2045.939,444.613s-53.9-.39-78.949-70.721" transform="translate(-1934.161 -337.1)" fill="#58ad5d" stroke="#000" stroke-miterlimit="10" stroke-width="0.25"/>
      </g>
    </g>
    <g id="Group_3312" data-name="Group 3312" transform="translate(2015.094 185.877)">
      <path id="Path_10774" data-name="Path 10774" d="M2174.006,239.028c2.373,8.221,11.046,15.443,23.758,19.447,25.187,7.932,47.909,33.923,43.315,63.3s-6.548,42.974,13.6,61.105,29.865,53.151,14.478,71.616c-12.292,14.75-28.056.893-42.34,12.495-16.278,13.222-26.256,8.007-37.079,8.685s-15.495,7.3-29.524,10.257c-16.523,3.478-40-8.428-34.53-37.814,5.26-28.274,28.309-29.913,32.471-66.363,3.9-34.2-23.677-21.646-26.383-55.131a61.545,61.545,0,0,1,3.472-22.137,62.818,62.818,0,0,1-21.346,5.079l0,0s-8.674,115.481-8.214,116.569-24.882,16.692-63.967,40.984-58.285-.787-45.106-17.093,23.117-33.251,16.816-56.183c-8.538-31.064,24.995-58.4,37-79.178,9.2-15.921,3.585-35.171,1.511-43.616-4.754-19.362-7.284-56.592,24.523-76.111S2158.769,186.241,2174.006,239.028Z" transform="translate(-1992.48 -185.877)" fill="#1789a0" stroke="#000" stroke-miterlimit="10" stroke-width="0.25"/>
      <g id="Group_3304" data-name="Group 3304" transform="translate(69.25 301.252)">
        <path id="Path_10775" data-name="Path 10775" d="M2058.689,406.967v13.96s-21.616,10.523-17.669,21.047,40.5-2.075,43.4-6.3V408.081C2073.247,411.575,2058.689,406.967,2058.689,406.967Z" transform="translate(-2040.539 -389.638)" fill="#d6cd25" stroke="#000" stroke-miterlimit="10" stroke-width="0.25"/>
        <path id="Path_10776" data-name="Path 10776" d="M2053.135,395.549V412.27s14.558,4.608,25.733,1.114v-9.8S2068.7,392.229,2053.135,395.549Z" transform="translate(-2034.984 -394.941)" fill="#fff" stroke="#000" stroke-linejoin="round" stroke-width="0.25"/>
      </g>
      <g id="Group_3305" data-name="Group 3305" transform="translate(133.188 282.698)">
        <path id="Path_10777" data-name="Path 10777" d="M2122.438,417.951c-1.265-7.362-3.183-14.244-5.617-18.139-5.261-8.42-16.048-23.416-26.308-15.522s-2.482,13.288-2.482,13.288a171.605,171.605,0,0,1,5.177,25C2093.217,422.579,2109.647,427.135,2122.438,417.951Z" transform="translate(-2084.78 -382.065)" fill="#fff" stroke="#000" stroke-linejoin="round" stroke-width="0.25"/>
        <path id="Path_10778" data-name="Path 10778" d="M2122.569,406.969c-12.792,9.185-29.221,4.628-29.23,4.625.594,5.244.723,10.316-.134,14.067,0,0-14.616,15.944-5.043,24.2s34.84-8.156,35.894-19.205C2124.621,424.722,2124.039,415.521,2122.569,406.969Z" transform="translate(-2084.911 -371.083)" fill="#d6cd25" stroke="#000" stroke-miterlimit="10" stroke-width="0.25"/>
      </g>
      <path id="Path_10779" data-name="Path 10779" d="M2080.3,209.253a32.762,32.762,0,0,1,4.586,8.682" transform="translate(-1953.757 -175.569)" fill="none" stroke="#231815" stroke-miterlimit="10" stroke-width="0.25"/>
      <path id="Path_10780" data-name="Path 10780" d="M2063.516,236.862s3.6,11.774,0,21.867c0,0,12.9,4.385,21.548-3.064,0,0-5.929-6.788-6.168-22.168Z" transform="translate(-1961.156 -164.879)" fill="#fff" stroke="#000" stroke-linejoin="round" stroke-width="0.25"/>
      <g id="Group_3307" data-name="Group 3307" transform="translate(30.233 88.894)">
        <g id="Group_3306" data-name="Group 3306">
          <path id="Path_10781" data-name="Path 10781" d="M2052.26,291.361q.735-2.438,1.444-4.876c-1.029,1.866-1.68,2.978-1.68,2.978S2052.067,290.17,2052.26,291.361Z" transform="translate(-1996.457 -230.407)" fill="#1789a0" stroke="#000" stroke-miterlimit="10" stroke-width="0.25"/>
          <path id="Path_10782" data-name="Path 10782" d="M2128.956,293.965c-5.261-8.641-14.6-26.852-17.274-37.1-1.219-4.673-3.487-9.734-6.538-9.264s-3.9,3.641-3.9,3.641-1.128-4.02-4.232-3.611-4.02,4.193-4.02,4.193c-.634-5.486-7.171-5.644-8.65,0-.493,1.878-1.042,4.038-1.635,6.392-2.914,11.554-7.013,28.318-12,45.432q-.709,2.438-1.444,4.876a37.344,37.344,0,0,0,9.757,19.558c10.3,10.662,20.859,27.511,11.718,32-8.369,4.114-23.035-8.695-28.17-31.436-13.056,35.132-36.388,81.093-41.776,88.789-6.051,8.643-14.643,27.852,4.033,38.318s36.878-10.084,36.878-10.084,3.813,19.038,25.352,22.472c22.645,3.611,37.654-16.673,37.654-16.673,5.1-.829,50.339-37.5,54.339-76.064S2134.112,302.435,2128.956,293.965Z" transform="translate(-2013.462 -247.568)" fill="#ffaa85" stroke="#000" stroke-miterlimit="10" stroke-width="0.25"/>
        </g>
        <path id="Path_10783" data-name="Path 10783" d="M2078.439,250.52s3.367,51.029-16.081,108.248c-20.79,61.169-15.208,85.6-15.208,85.6" transform="translate(-1998.907 -246.266)" fill="none" stroke="#000" stroke-miterlimit="10" stroke-width="0.25"/>
        <path id="Path_10784" data-name="Path 10784" d="M2074.383,250.116s9.728,51.095,13.108,87.506,10.356,62.634,10.356,62.634" transform="translate(-1986.598 -246.444)" fill="none" stroke="#000" stroke-miterlimit="10" stroke-width="0.25"/>
        <path id="Path_10785" data-name="Path 10785" d="M2064.558,324.822a37.343,37.343,0,0,1-9.757-19.558c-.193-1.192.416-3.01,1.444-4.876,4.987-17.114,9.087-33.878,12-45.432h0s-19.6,19.068-21.74,47.1a78.712,78.712,0,0,0,1.6,23.332c5.134,22.741,19.8,35.55,28.169,31.436C2085.417,352.333,2074.856,335.484,2064.558,324.822Z" transform="translate(-1998.999 -244.31)" fill="#fff" stroke="#000" stroke-linejoin="round" stroke-width="0.25"/>
      </g>
      <path id="Path_10786" data-name="Path 10786" d="M2073.448,349.12c-5.963-7.663,20.891-29.671,29.1-38.86-.634-29.5-10.187-33.009-16.938-56.242,8.731,5.154,20.056,15.644,27.052,37.708C2121.057,318.2,2083.7,362.3,2073.448,349.12Z" transform="translate(-1957.154 -155.83)" fill="#fff" stroke="#000" stroke-linejoin="round" stroke-width="0.25"/>
      <path id="Path_10787" data-name="Path 10787" d="M2144.125,310.552s.945,10.715,6.618,14.182" transform="translate(-1925.612 -130.901)" fill="none" stroke="#231815" stroke-miterlimit="10" stroke-width="0.25"/>
      <path id="Path_10788" data-name="Path 10788" d="M2153.092,303.442s0,19.987,9.77,26.3" transform="translate(-1921.657 -134.036)" fill="none" stroke="#231815" stroke-miterlimit="10" stroke-width="0.25"/>
      <path id="Path_10789" data-name="Path 10789" d="M2155.811,351.724s4.244,12.4-2.719,18.858" transform="translate(-1921.657 -112.746)" fill="none" stroke="#231815" stroke-miterlimit="10" stroke-width="0.25"/>
      <path id="Path_10790" data-name="Path 10790" d="M2165.835,352.922a15.628,15.628,0,0,1,0,13.9" transform="translate(-1916.038 -112.218)" fill="none" stroke="#231815" stroke-miterlimit="10" stroke-width="0.25"/>
      <path id="Path_10791" data-name="Path 10791" d="M2043.23,242.133a16.179,16.179,0,0,1,1.359,14.07" transform="translate(-1970.102 -161.071)" fill="none" stroke="#231815" stroke-miterlimit="10" stroke-width="0.25"/>
      <path id="Path_10792" data-name="Path 10792" d="M2049.122,242.7s2.547,5.551,0,10.69" transform="translate(-1967.504 -160.822)" fill="none" stroke="#231815" stroke-miterlimit="10" stroke-width="0.25"/>
      <path id="Path_10793" data-name="Path 10793" d="M2023.08,313.432a20.419,20.419,0,0,0-3.056,19.359" transform="translate(-1980.859 -129.631)" fill="none" stroke="#231815" stroke-miterlimit="10" stroke-width="0.25"/>
      <path id="Path_10794" data-name="Path 10794" d="M2028.8,314.611s-3.906,7.077-1.189,13.9" transform="translate(-1977.411 -129.111)" fill="none" stroke="#231815" stroke-miterlimit="10" stroke-width="0.25"/>
      <path id="Path_10795" data-name="Path 10795" d="M2008.6,364.343s-2.888,5.944-1.7,9.68" transform="translate(-1986.248 -107.181)" fill="none" stroke="#231815" stroke-miterlimit="10" stroke-width="0.25"/>
      <path id="Path_10796" data-name="Path 10796" d="M2013.119,365.286s-2.225,5.265-.867,8.322" transform="translate(-1983.956 -106.766)" fill="none" stroke="#231815" stroke-miterlimit="10" stroke-width="0.25"/>
      <path id="Path_10797" data-name="Path 10797" d="M2110.319,226.482s1.628,9.624,9.032,11.252" transform="translate(-1940.519 -167.972)" fill="none" stroke="#231815" stroke-miterlimit="10" stroke-width="0.25"/>
      <path id="Path_10798" data-name="Path 10798" d="M2105.695,228.537s.9,6.151,4.6,7.147" transform="translate(-1942.557 -167.066)" fill="none" stroke="#231815" stroke-miterlimit="10" stroke-width="0.25"/>
      <g id="Group_3310" data-name="Group 3310" transform="translate(77.741 20.048)">
        <g id="Group_3309" data-name="Group 3309">
          <g id="Group_3308" data-name="Group 3308">
            <path id="Path_10799" data-name="Path 10799" d="M2099.817,238.864c2.591-9.853,0-16.757,0-16.757-21.655-6.284-29.133-22.318-29.133-22.318-3.24,22.318-24.253,27.283-24.253,27.283a29.983,29.983,0,0,0,51.95,20.439A35.2,35.2,0,0,1,2099.817,238.864Z" transform="translate(-2046.431 -199.79)" fill="#fff" stroke="#000" stroke-linejoin="round" stroke-width="0.25"/>
          </g>
          <ellipse id="Ellipse_1810" data-name="Ellipse 1810" cx="1.438" cy="2.598" rx="1.438" ry="2.598" transform="translate(30.716 29.992) rotate(-6.387)" fill="#231815"/>
          <ellipse id="Ellipse_1811" data-name="Ellipse 1811" cx="1.438" cy="2.598" rx="1.438" ry="2.598" transform="translate(22.262 30.938) rotate(-6.387)" fill="#231815"/>
        </g>
      </g>
      <path id="Path_10800" data-name="Path 10800" d="M2076.745,271.717" transform="translate(-1955.323 -148.026)" fill="#58ad5d" stroke="#000" stroke-miterlimit="10" stroke-width="0.25"/>
      <path id="Path_10801" data-name="Path 10801" d="M2133.491,222.763c2.373,8.221,11.047,15.443,23.759,19.447,25.187,7.932,47.909,33.923,43.315,63.3s-6.548,42.974,13.6,61.105,29.865,53.151,14.478,71.616c-12.292,14.75-28.055.893-42.34,12.495-16.278,13.222-26.256,8.007-37.079,8.685s-15.495,7.3-29.524,10.257c-16.524,3.478-40-8.428-34.53-37.814,5.26-28.274,28.309-29.913,32.471-66.363,3.905-34.2-23.677-21.646-26.382-55.131a61.538,61.538,0,0,1,3.472-22.137s1.887-5.2,4.721-11.218" transform="translate(-1951.965 -169.612)" fill="#1789a0" stroke="#000" stroke-miterlimit="10" stroke-width="0.25"/>
      <path id="Path_10802" data-name="Path 10802" d="M2046.431,227.073s21.013-4.966,24.253-27.283c0,0,7.478,16.034,29.133,22.318,0,0,2.591,6.9,0,16.757s-3.029,16.7,10.356,23.939c17.186,9.3,6.377,20.936,1.281,35.547" transform="translate(-1968.69 -179.742)" fill="none" stroke="#231815" stroke-miterlimit="10" stroke-width="0.25"/>
      <g id="Group_3311" data-name="Group 3311" transform="translate(90.818 116.229)">
        <path id="Path_10803" data-name="Path 10803" d="M2062.493,272.579s17.553,43.149,7.069,85.81" transform="translate(-2052.426 -263.874)" fill="none" stroke="#231815" stroke-miterlimit="10" stroke-width="0.25"/>
        <circle id="Ellipse_1812" data-name="Ellipse 1812" cx="4.077" cy="4.077" r="4.077" transform="translate(4.4 0.93)" fill="#1789a0" stroke="#000" stroke-miterlimit="10" stroke-width="0.25"/>
        <circle id="Ellipse_1813" data-name="Ellipse 1813" cx="4.018" cy="4.018" r="4.018" transform="translate(17.418 9.528)" fill="#1789a0" stroke="#000" stroke-miterlimit="10" stroke-width="0.25"/>
        <circle id="Ellipse_1814" data-name="Ellipse 1814" cx="3.86" cy="3.86" r="3.86" transform="translate(0 13.851)" fill="#1789a0" stroke="#000" stroke-miterlimit="10" stroke-width="0.25"/>
        <circle id="Ellipse_1815" data-name="Ellipse 1815" cx="4.105" cy="4.105" r="4.105" transform="translate(3.614 30.712)" fill="#1789a0" stroke="#000" stroke-miterlimit="10" stroke-width="0.25"/>
        <circle id="Ellipse_1816" data-name="Ellipse 1816" cx="3.982" cy="3.982" r="3.982" transform="translate(29.894)" fill="#1789a0" stroke="#000" stroke-miterlimit="10" stroke-width="0.25"/>
        <circle id="Ellipse_1817" data-name="Ellipse 1817" cx="3.604" cy="3.604" r="3.604" transform="translate(37.026 15.092)" fill="#1789a0" stroke="#000" stroke-miterlimit="10" stroke-width="0.25"/>
        <circle id="Ellipse_1818" data-name="Ellipse 1818" cx="4.105" cy="4.105" r="4.105" transform="translate(25.789 26.607)" fill="#1789a0" stroke="#000" stroke-miterlimit="10" stroke-width="0.25"/>
        <path id="Path_10804" data-name="Path 10804" d="M2060.15,281.472l8.58,5.191,4.331-8.148" transform="translate(-2053.458 -261.257)" fill="none" stroke="#231815" stroke-miterlimit="10" stroke-width="0.25"/>
        <path id="Path_10805" data-name="Path 10805" d="M2063,293.6l7.732,4.152,8.322-8.252" transform="translate(-2052.202 -256.412)" fill="none" stroke="#231815" stroke-miterlimit="10" stroke-width="0.25"/>
        <line id="Line_572" data-name="Line 572" x1="15.464" y2="26.365" transform="translate(17.234 7.725)" fill="none" stroke="#231815" stroke-miterlimit="10" stroke-width="0.25"/>
        <line id="Line_573" data-name="Line 573" x1="11.191" y2="0.732" transform="translate(25.834 18.695)" fill="none" stroke="#231815" stroke-miterlimit="10" stroke-width="0.25"/>
      </g>
    </g>
    <g id="Group_3315" data-name="Group 3315" transform="translate(2173.914 412.712)">
      <circle id="Ellipse_1819" data-name="Ellipse 1819" cx="6.372" cy="6.372" r="6.372" transform="translate(85.388)" fill="#ffaa85" stroke="#000" stroke-miterlimit="10" stroke-width="0.25"/>
      <circle id="Ellipse_1820" data-name="Ellipse 1820" cx="6.372" cy="6.372" r="6.372" transform="translate(63.768 5.021)" fill="#ffaa85" stroke="#000" stroke-miterlimit="10" stroke-width="0.25"/>
      <circle id="Ellipse_1821" data-name="Ellipse 1821" cx="6.372" cy="6.372" r="6.372" transform="translate(85.745 21.603)" fill="#ffaa85" stroke="#000" stroke-miterlimit="10" stroke-width="0.25"/>
      <circle id="Ellipse_1822" data-name="Ellipse 1822" cx="6.372" cy="6.372" r="6.372" transform="translate(51.444 24.644)" fill="#ffaa85" stroke="#000" stroke-miterlimit="10" stroke-width="0.25"/>
      <circle id="Ellipse_1823" data-name="Ellipse 1823" cx="6.372" cy="6.372" r="6.372" transform="translate(75.536 39.667)" fill="#ffaa85" stroke="#000" stroke-miterlimit="10" stroke-width="0.25"/>
      <circle id="Ellipse_1824" data-name="Ellipse 1824" cx="6.372" cy="6.372" r="6.372" transform="translate(40.019 47.82)" fill="#ffaa85" stroke="#000" stroke-miterlimit="10" stroke-width="0.25"/>
      <circle id="Ellipse_1825" data-name="Ellipse 1825" cx="6.372" cy="6.372" r="6.372" transform="translate(68.352 57.157)" fill="#ffaa85" stroke="#000" stroke-miterlimit="10" stroke-width="0.25"/>
      <path id="Path_10806" data-name="Path 10806" d="M2174.214,350.928s-32.635,40.291-35.263,100.978" transform="translate(-2086.713 -339.932)" fill="none" stroke="#231815" stroke-miterlimit="10" stroke-width="0.25"/>
      <path id="Path_10807" data-name="Path 10807" d="M2166.646,366.944l-12.377,4.477-1.929-15.9" transform="translate(-2080.809 -337.908)" fill="none" stroke="#231815" stroke-miterlimit="10" stroke-width="0.25"/>
      <path id="Path_10808" data-name="Path 10808" d="M2159.5,379.278l-9.965,4.179-4.99-14.569" transform="translate(-2084.244 -332.012)" fill="none" stroke="#231815" stroke-miterlimit="10" stroke-width="0.25"/>
      <path id="Path_10809" data-name="Path 10809" d="M2155.861,390.659l-9.35,3.652L2137.8,384.24" transform="translate(-2087.222 -325.243)" fill="none" stroke="#231815" stroke-miterlimit="10" stroke-width="0.25"/>
      <g id="Group_3313" data-name="Group 3313" transform="translate(0 64.551)">
        <path id="Path_10810" data-name="Path 10810" d="M2113.38,388.1c-8.2.131-1.566,22.191-1.566,22.191s-10.108-4.058-9.036,5.644,14.882,17.351,14.882,17.351-13.614-3.464-9.15,8.735,22.367,23.1,43.537,19.656c1.86-5.255,5.061-31.7-1.451-38.842-7.512-8.236-9.141,6.859-9.141,6.859s1.681-14.4-1.829-23.028-10.316-5.8-11.009,3.131C2128.617,409.792,2124.275,387.92,2113.38,388.1Z" transform="translate(-2102.698 -388.094)" fill="#ffe6c7" stroke="#000" stroke-miterlimit="10" stroke-width="0.25"/>
        <path id="Path_10811" data-name="Path 10811" d="M2112.81,398.842s3.463,35.008,34.779,58.091" transform="translate(-2098.24 -383.355)" fill="#ffe6c7" stroke="#000" stroke-miterlimit="10" stroke-width="0.25"/>
      </g>
      <g id="Group_3314" data-name="Group 3314" transform="translate(49.257 75.063)">
        <path id="Path_10812" data-name="Path 10812" d="M2163.635,446.655s11.143,1.778,9.934,9.348-23.727,8.18-36.049,2.53c0,0-2.991-10.487,3.985-32.37s13.072-10.849,11.054-5.711c0,0,4.24-20.536,10.361-19.732s2.369,11.7,2.369,11.7,9.871-21.933,20.979-16.023,3.542,32.011-13.636,35.018c0,0,8.738-.5,9.623,5.477S2168.56,446.867,2163.635,446.655Z" transform="translate(-2136.883 -395.39)" fill="#ffe6c7" stroke="#000" stroke-miterlimit="10" stroke-width="0.25"/>
        <path id="Path_10813" data-name="Path 10813" d="M2175.166,408.526s-13.6,5.774-37.841,44.214" transform="translate(-2136.687 -389.597)" fill="#ffe6c7" stroke="#000" stroke-miterlimit="10" stroke-width="0.25"/>
      </g>
    </g>
  </g>
</svg>
