<svg xmlns="http://www.w3.org/2000/svg" width="327.785" height="428.214" viewBox="0 0 327.785 428.214">
  <g id="Group_3382" data-name="Group 3382" transform="translate(-143.671 -1697.505)">
    <g id="Group_3382-2" data-name="Group 3382" transform="translate(259.621 2030.508)">
      <path id="Path_11052" data-name="Path 11052" d="M223.256,1961.722c-5.016-11.364,13.357-30.627,28.5-35.969,13.6-4.8,26.54-2.158,35.173,9.112s17.984,8.873,21.1,21.582-20.382,21.1-47.239,17.026S226.008,1967.956,223.256,1961.722Z" transform="translate(-222.413 -1923.471)" fill="#78634b" stroke="#000" stroke-linejoin="round" stroke-width="0.25"/>
      <path id="Path_11053" data-name="Path 11053" d="M226.048,1961.528s7.193-21.346,21.76-26.434c12.116-4.233,22.681,1.8,28.53,11.912,5.8,10.033,17.82,8.142,17.453,19.434" transform="translate(-220.69 -1918.611)" fill="#78634b" stroke="#000" stroke-linejoin="round" stroke-width="0.25"/>
      <path id="Path_11054" data-name="Path 11054" d="M232.868,1960.7s7.006-19.773,15.471-18.362,5.745,20.968,12.67,22.868" transform="translate(-217.458 -1914.565)" fill="#78634b" stroke="#000" stroke-linejoin="round" stroke-width="0.25"/>
    </g>
    <g id="Group_3383" data-name="Group 3383" transform="translate(404.685 2091.433)">
      <path id="Path_11055" data-name="Path 11055" d="M378.053,1993.052c4.039-7.377-7.244-21.433-17.151-25.909-8.894-4.02-17.779-2.986-24.252,4.118s-12.644,4.948-15.479,13.342,12.533,15.41,30.885,14.209S375.836,1997.1,378.053,1993.052Z" transform="translate(-320.831 -1964.805)" fill="#78634b" stroke="#000" stroke-linejoin="round" stroke-width="0.25"/>
      <path id="Path_11056" data-name="Path 11056" d="M372.188,1992.524s-3.62-14.815-13.154-19.088c-7.93-3.555-15.4-.1-19.934,6.391-4.491,6.432-12.49,4.463-12.894,12.1" transform="translate(-318.283 -1961.389)" fill="#78634b" stroke="#000" stroke-linejoin="round" stroke-width="0.25"/>
      <path id="Path_11057" data-name="Path 11057" d="M358.865,1991.28s-3.585-13.743-9.377-13.28-5.085,13.814-9.867,14.7" transform="translate(-311.926 -1958.557)" fill="#78634b" stroke="#000" stroke-linejoin="round" stroke-width="0.25"/>
    </g>
    <g id="Group_3384" data-name="Group 3384" transform="translate(143.906 2017.615)">
      <path id="Path_11058" data-name="Path 11058" d="M147.348,1986.826c-14.443-27.715,20.229-49.127,36.517-52.8s29.161-.789,45.449-13.661,40.982-1.839,46.5,14.449,4.2,21.279,11.823,32.576-9.195,28.086-47.814,27.7S157.068,2005.478,147.348,1986.826Z" transform="translate(-143.906 -1914.724)" fill="#78634b" stroke="#000" stroke-linejoin="round" stroke-width="0.25"/>
      <path id="Path_11059" data-name="Path 11059" d="M165.66,1988.889s4.217-25.155,22.081-31.46,25.745.789,39.406-13.66,24.432-12.874,31,0,11.034,12.61,11.034,20.753a41.465,41.465,0,0,1-2.861,14.781" transform="translate(-133.596 -1905.819)" fill="#78634b" stroke="#000" stroke-linejoin="round" stroke-width="0.25"/>
      <path id="Path_11060" data-name="Path 11060" d="M205.061,1979.083s-.542-5.507,4.216-8.089,8.02-4.351,8.7-12.371,8.972-12.915,14-8.292,1.689,10.686,5.437,13.482a10.824,10.824,0,0,1,4.4,10.845" transform="translate(-114.931 -1898.696)" fill="#78634b" stroke="#000" stroke-linejoin="round" stroke-width="0.25"/>
      <path id="Path_11061" data-name="Path 11061" d="M161.47,1946.2s-6.742,7.541-5.941,16.8" transform="translate(-138.429 -1899.804)" fill="#78634b" stroke="#000" stroke-linejoin="round" stroke-width="0.25"/>
      <path id="Path_11062" data-name="Path 11062" d="M167.46,1949.382a23.563,23.563,0,0,0-5.6,15.425" transform="translate(-135.396 -1898.298)" fill="#78634b" stroke="#000" stroke-linejoin="round" stroke-width="0.25"/>
      <path id="Path_11063" data-name="Path 11063" d="M186.593,1931.688s4.655-2.27,8.213-1.806" transform="translate(-123.675 -1907.569)" fill="#78634b" stroke="#000" stroke-linejoin="round" stroke-width="0.25"/>
      <path id="Path_11064" data-name="Path 11064" d="M186.078,1938.748s8.045-.155,11.911-4.951" transform="translate(-123.919 -1905.684)" fill="#78634b" stroke="#000" stroke-linejoin="round" stroke-width="0.25"/>
      <path id="Path_11065" data-name="Path 11065" d="M184.714,1943.625s10.055,1.083,15.933-5.1" transform="translate(-124.565 -1903.446)" fill="#78634b" stroke="#000" stroke-linejoin="round" stroke-width="0.25"/>
    </g>
    <g id="Group_3398" data-name="Group 3398" transform="translate(235.372 1697.631)">
      <path id="Path_11066" data-name="Path 11066" d="M246.025,1960.271a9.667,9.667,0,0,1-3,4.021c-5.785,4.4-33.426,12.94-36.445,18.511-1.918,3.539.694,6.6,7.057,6.365,5.843-.212,33.052.55,47.225-5.952a5.856,5.856,0,0,0,3.389-5.48c-.106-4.189-.389-11.4-1.128-17.911A30.344,30.344,0,0,1,246.025,1960.271Z" transform="translate(-205.961 -1573.364)" fill="#c99a6b" stroke="#000" stroke-linejoin="round" stroke-width="0.25"/>
      <path id="Path_11067" data-name="Path 11067" d="M234.177,1952.807s1,5.978-1.035,10.789a30.347,30.347,0,0,0,17.1-.447,56.1,56.1,0,0,0-1.937-10.343Z" transform="translate(-193.078 -1576.69)" fill="#fff" stroke="#000" stroke-linejoin="round" stroke-width="0.25"/>
      <g id="Group_3385" data-name="Group 3385" transform="translate(29.403 390.927)">
        <path id="Path_11068" data-name="Path 11068" d="M231.105,1962.855a23.016,23.016,0,0,1,3.7,5.75" transform="translate(-223.446 -1962.855)" fill="#fff" stroke="#000" stroke-linejoin="round" stroke-width="0.25"/>
        <path id="Path_11069" data-name="Path 11069" d="M225.909,1965.606a12.321,12.321,0,0,1,2.114,4.189" transform="translate(-225.909 -1961.551)" fill="#fff" stroke="#000" stroke-linejoin="round" stroke-width="0.25"/>
      </g>
      <g id="Group_3387" data-name="Group 3387" transform="translate(127.27 360.588)">
        <g id="Group_3386" data-name="Group 3386">
          <path id="Path_11070" data-name="Path 11070" d="M321.316,1947.037c-1.422-2.829-2.56-4.766-2.56-4.766l-15.637,7.09a15.522,15.522,0,0,1,2.1,5.541C308.579,1954.215,316.814,1952.076,321.316,1947.037Z" transform="translate(-287.183 -1942.271)" fill="#fff" stroke="#000" stroke-linejoin="round" stroke-width="0.25"/>
          <path id="Path_11071" data-name="Path 11071" d="M326.441,1945.5c-4.5,5.039-12.738,7.178-16.1,7.865a7.379,7.379,0,0,1-1.5,6.054c-3.959,4.7-11.532,17.721-13.2,25.748s-5.452,10.148-1.817,12.723,11.662-4.392,18.023-11.36,19.387-14.995,20.145-22.87C332.487,1958.6,329,1950.593,326.441,1945.5Z" transform="translate(-292.307 -1940.739)" fill="#c99a6b" stroke="#000" stroke-linejoin="round" stroke-width="0.25"/>
        </g>
        <line id="Line_612" data-name="Line 612" x2="5.359" y2="1.592" transform="translate(16.54 18.685)" fill="#fff" stroke="#000" stroke-linejoin="round" stroke-width="0.25"/>
        <line id="Line_613" data-name="Line 613" x2="5.835" y2="1.811" transform="translate(10.705 27.396)" fill="#fff" stroke="#000" stroke-linejoin="round" stroke-width="0.25"/>
      </g>
      <g id="Group_3390" data-name="Group 3390" transform="translate(19.644 63.175)">
        <path id="Path_11072" data-name="Path 11072" d="M294.367,1741.9c44.426,1.887,75.176,7.794,78.579,20.441s13.1,50.844,13.6,87.115-7.5,50.478-18.861,53.954-46.076,8.525-92.95-12.387c0,0-39.161-.258-50.574-10.334s-.106-66.869,6.748-84.011,6.195-46.851,22.646-52.907S294.367,1741.9,294.367,1741.9Z" transform="translate(-219.288 -1740.492)" fill="#c99a6b" stroke="#000" stroke-linejoin="round" stroke-width="0.25"/>
        <path id="Path_11073" data-name="Path 11073" d="M311.979,1782.577c5.564,12.838,10.092,72.706,3.091,102.811" transform="translate(-175.357 -1720.546)" fill="none" stroke="#000" stroke-linejoin="round" stroke-width="0.25"/>
        <g id="Group_3389" data-name="Group 3389" transform="translate(145.373 97.028)">
          <path id="Path_11074" data-name="Path 11074" d="M320.985,1828.161a59.21,59.21,0,0,0,0,13.662c.935,6.189,7.591,4.671,12.38,3.271s9.458-3.5,10.742-10.511,1.636-15.531-4.9-17.867Z" transform="translate(-316.658 -1801.394)" fill="#e4a422" stroke="#000" stroke-linejoin="round" stroke-width="0.25"/>
          <path id="Path_11075" data-name="Path 11075" d="M323.838,1825.734s3.324,8.285,2.817,16.239" transform="translate(-315.11 -1797.12)" fill="none" stroke="#000" stroke-linejoin="round" stroke-width="0.25"/>
          <g id="Group_3388" data-name="Group 3388">
            <path id="Path_11076" data-name="Path 11076" d="M320.506,1809.162s-3.941,16.739-2.1,21.8,8.993,3.9,8.993,3.9,10.987,1.161,20.4-8.6c0,0-.349-18.137-8.72-19.533S324.425,1807.941,320.506,1809.162Z" transform="translate(-317.916 -1806.321)" fill="#e4a422" stroke="#000" stroke-linejoin="round" stroke-width="0.25"/>
            <path id="Path_11077" data-name="Path 11077" d="M321.726,1812.034s3,4.3,3.868,20.114" transform="translate(-316.111 -1803.613)" fill="none" stroke="#000" stroke-linejoin="round" stroke-width="0.25"/>
          </g>
        </g>
      </g>
      <g id="Group_3393" data-name="Group 3393" transform="translate(13.282 190.99)">
        <path id="Path_11078" data-name="Path 11078" d="M277,1858.591c20.193-1.269,37.664-11.519,49.8-21.067-1.126-3.778-2.285-7.211-3.512-10.316l-85.364,11.019s-1.29,2.245-3.455,6.614C239.43,1849.985,252.46,1860.136,277,1858.591Z" transform="translate(-205.731 -1827.208)" fill="#e4a422" stroke="#000" stroke-linejoin="round" stroke-width="0.25"/>
        <path id="Path_11079" data-name="Path 11079" d="M332.332,1928.222c-18.824,2.32-37.437,14.047-43.328,18.048,4.373,8.333,8.667,12.884,13.411,11.846C314,1955.582,335,1946.53,334.64,1938.2,334.508,1935.142,333.737,1932.613,332.332,1928.222Z" transform="translate(-179.884 -1779.332)" fill="#f46e34" stroke="#000" stroke-linejoin="round" stroke-width="0.25"/>
        <path id="Path_11080" data-name="Path 11080" d="M217.58,1942.441c.971,5.8,1.893,10.061,2.436,12.169,2.482,9.621,23.558,9.218,32.249,9.581s13.034-3.259,11.224-9.053a116.633,116.633,0,0,1-2.313-11.49C244.289,1939.947,224.021,1941.723,217.58,1942.441Z" transform="translate(-213.736 -1773.096)" fill="#f46e34" stroke="#000" stroke-linejoin="round" stroke-width="0.25"/>
        <g id="Group_3392" data-name="Group 3392" transform="translate(0 10.316)">
          <g id="Group_3391" data-name="Group 3391" transform="translate(0 5.137)">
            <path id="Path_11081" data-name="Path 11081" d="M304.828,1863.2q-.926-4.586-1.823-8.91c-9.57.276-15.947-7.58-18.3-11.09q-2.861,1.364-5.88,2.556C280.9,1849.364,289.789,1863.063,304.828,1863.2Z" transform="translate(-184.71 -1835.082)" fill="#f46e34" stroke="#000" stroke-linejoin="round" stroke-width="0.25"/>
            <path id="Path_11082" data-name="Path 11082" d="M301.114,1856.9c-1.47-7.082-2.882-13.587-4.245-19.208a107.428,107.428,0,0,1-14.057,8.119C285.167,1849.32,291.544,1857.176,301.114,1856.9Z" transform="translate(-182.819 -1837.692)" fill="#e4a422" stroke="#000" stroke-linejoin="round" stroke-width="0.25"/>
            <path id="Path_11083" data-name="Path 11083" d="M247.154,1846.659a41.387,41.387,0,0,1-10.048-7.488c-2.061,4.158-4.914,10.245-8.2,18.156C232.5,1856.761,240.161,1854.614,247.154,1846.659Z" transform="translate(-208.369 -1836.991)" fill="#e4a422" stroke="#000" stroke-linejoin="round" stroke-width="0.25"/>
            <path id="Path_11084" data-name="Path 11084" d="M335.09,1862.378c-15.039-.137-23.925-13.836-26-17.444a75.219,75.219,0,0,1-22.842,5.256c-11.991.754-21.215-1.29-28.111-4.17A32.339,32.339,0,0,1,233,1860.788c-3.67,9.282-7.722,20.542-11.747,33.715-9.992,32.7-5.894,72.98-2.436,93.649,6.441-.718,26.709-2.494,43.6,1.207-2.88-17.319-6.633-49.715-3.117-73.236,4.706-31.5,20.276-48.881,20.276-48.881l7.259,0c2.559,13.563,6.863,38.52,16.272,64.185,8.219,22.414,14.686,42.305,20.989,54.322,5.181-3.52,20.206-13.009,36.558-16.825C350.194,1940.642,341.994,1896.546,335.09,1862.378Z" transform="translate(-214.972 -1834.26)" fill="#e4a422" stroke="#000" stroke-linejoin="round" stroke-width="0.25"/>
            <path id="Path_11085" data-name="Path 11085" d="M252.335,1846.344a47.571,47.571,0,0,1-4.375-2.093c-6.994,7.955-14.657,10.1-18.25,10.668-.811,1.947-1.649,4.025-2.507,6.192A32.339,32.339,0,0,0,252.335,1846.344Z" transform="translate(-209.175 -1834.583)" fill="#f46e34" stroke="#000" stroke-linejoin="round" stroke-width="0.25"/>
          </g>
          <path id="Path_11086" data-name="Path 11086" d="M317.848,1921.207c-8.139-40.694-12.887-68.217-18.48-87-2.171,1.708-4.521,3.438-7.019,5.137,8.108,33.451,17.936,97.629,31.628,134.66a64.532,64.532,0,0,1,6.77-1.223C328.33,1965.221,324.032,1952.128,317.848,1921.207Z" transform="translate(-178.299 -1834.207)" fill="#f46e34" stroke="#000" stroke-linejoin="round" stroke-width="0.25"/>
        </g>
      </g>
      <path id="Path_11087" data-name="Path 11087" d="M257.093,1848.518s-1.223,11.6,2.6,17.026" transform="translate(-181.815 -1626.118)" fill="none" stroke="#000" stroke-linejoin="round" stroke-width="0.25"/>
      <path id="Path_11088" data-name="Path 11088" d="M265.037,1848.4a79.54,79.54,0,0,0-1.3,17.192" transform="translate(-178.599 -1626.173)" fill="none" stroke="#000" stroke-linejoin="round" stroke-width="0.25"/>
      <circle id="Ellipse_1865" data-name="Ellipse 1865" cx="1.928" cy="1.928" r="1.928" transform="translate(78.201 225.656)" fill="#ffe7d2" stroke="#000" stroke-linejoin="round" stroke-width="0.25"/>
      <g id="Group_3394" data-name="Group 3394" transform="translate(23.141 25.107)">
        <path id="Path_11089" data-name="Path 11089" d="M247.7,1716.106c-4.326.556-8.04,1.11-11.062,1.515-15.249,2.043-13.877,11.454-14.807,27.166-1.4,23.67,5.723,25.678,22.118,25.874C232.675,1742.307,244.379,1721.219,247.7,1716.106Z" transform="translate(-221.66 -1713.982)" fill="#c99a6b" stroke="#000" stroke-linejoin="round" stroke-width="0.25"/>
        <path id="Path_11090" data-name="Path 11090" d="M250.323,1715.464c-2.958.294-5.706.62-8.247.946-3.322,5.113-15.027,26.2-3.751,54.556,2.522.029,5.253.019,8.216.035A62.837,62.837,0,0,1,250.323,1715.464Z" transform="translate(-216.035 -1714.286)" fill="#78634b" stroke="#000" stroke-linejoin="round" stroke-width="0.25"/>
        <path id="Path_11091" data-name="Path 11091" d="M339.8,1726.232a186.82,186.82,0,0,0-21.486-6.171,215.646,215.646,0,0,0-70.649-4.219,62.837,62.837,0,0,0-3.782,55.537,189.594,189.594,0,0,1,21.934,1.193c23.209,2.76,47.728,11.128,66.8,16.1C322.154,1750.87,336.153,1730.666,339.8,1726.232Z" transform="translate(-213.374 -1714.665)" fill="#c99a6b" stroke="#000" stroke-linejoin="round" stroke-width="0.25"/>
        <path id="Path_11092" data-name="Path 11092" d="M338.875,1745.977c-1.247-5.716-5.74-13.992-23.953-21.793-3.322,4.5-16.4,25.267-6.193,61.747,8.648,1.93,15.752,2.742,20.475,1.336C344.749,1782.635,340.6,1753.9,338.875,1745.977Z" transform="translate(-182.207 -1710.153)" fill="#c99a6b" stroke="#000" stroke-linejoin="round" stroke-width="0.25"/>
        <path id="Path_11093" data-name="Path 11093" d="M317.26,1724.976q-2.9-1.243-6.292-2.463c-3.644,4.434-17.643,24.637-7.187,62.435,2.531.659,4.964,1.256,7.286,1.775C300.864,1750.243,313.938,1729.472,317.26,1724.976Z" transform="translate(-184.544 -1710.945)" fill="#78634b" stroke="#000" stroke-linejoin="round" stroke-width="0.25"/>
      </g>
      <path id="Path_11094" data-name="Path 11094" d="M270.653,1734.145s-54.992,27.791-56.84,71.258c0,0,17.345-6.942,15.917,10.2s-4.762,65.716,37.62,76.669,82.055-24.014,79.049-58.248c0,0,24.146-10.456,20.478-40.8-2.873-23.756-32.383-51.109-52.859-56.984Z" transform="translate(-202.239 -1680.325)" fill="#f46e34" stroke="#000" stroke-linejoin="round" stroke-width="0.25"/>
      <path id="Path_11095" data-name="Path 11095" d="M265.865,1786.877s-.736,26.3,20.4,44.059,34.933,17.2,37.6,12.073c3.145-6.034,5.784-13.683.535-13.675s-23.657-8.677-31.581-19.953C292.822,1809.382,285.8,1774.848,265.865,1786.877Z" transform="translate(-177.571 -1656.538)" fill="#e4a422" stroke="#000" stroke-linejoin="round" stroke-width="0.25"/>
      <path id="Path_11096" data-name="Path 11096" d="M225.918,1774.044s-14.206,10.787-14.995,24.73,15.183,23.44,25.255,12.89c9.363-9.808,9.208-33.674,9.208-33.674Z" transform="translate(-203.622 -1661.415)" fill="#f46e34" stroke="#000" stroke-linejoin="round" stroke-width="0.25"/>
      <path id="Path_11097" data-name="Path 11097" d="M230.894,1767.174s-7.634-2.083-11.1,7.495,10.132,18.875,16.656,19.57,11.659-7.772,8.049-15.546Z" transform="translate(-199.67 -1664.762)" fill="#78634b" stroke="#000" stroke-linejoin="round" stroke-width="0.25"/>
      <path id="Path_11098" data-name="Path 11098" d="M314.555,1812.95c-16.841,7.862-33.553-3.418-33.553-3.418.32-1.443,4.644-30.917,4.644-30.917s7.218-.293,16.846,5.841" transform="translate(-170.395 -1659.25)" fill="#f46e34" stroke="#000" stroke-linejoin="round" stroke-width="0.25"/>
      <path id="Path_11099" data-name="Path 11099" d="M273.717,1786.06c3.352-8.114,9.155-12.175,11.892-11.041s5.191,3.586,5.286,6.418-1.038,26.9-4.531,31.618-16.1-9-16.138-13.4C270.194,1795.687,271.925,1790.4,273.717,1786.06Z" transform="translate(-175.503 -1661.042)" fill="#78634b" stroke="#000" stroke-linejoin="round" stroke-width="0.25"/>
      <path id="Path_11100" data-name="Path 11100" d="M266.167,1772.968s-5.993,4.662-3.163,13.483,9.486,7.793,11.4,11.139c0,0,9.906-8.142,9.24-14.634s-7.657-11.82-7.657-11.82Z" transform="translate(-179.285 -1662.793)" fill="#fff" stroke="#000" stroke-linejoin="round" stroke-width="0.25"/>
      <path id="Path_11101" data-name="Path 11101" d="M233.309,1772.233a171.674,171.674,0,0,1,4.727-16.732c2.478-6.91,8.633-21.08,17.519-15.089,0,0-10.66,8.281-13.756,32.985l-2.876,6.861h-7.1Z" transform="translate(-193.703 -1678.039)" fill="#e4a422" stroke="#000" stroke-linejoin="round" stroke-width="0.25"/>
      <path id="Path_11102" data-name="Path 11102" d="M258.211,1732.08s-10.5,4.97-15.674,15.679l8.225,10.22s8.08-6.544,7.3-6.365l5.661-9.912Z" transform="translate(-188.625 -1681.304)" fill="#c99a6b" stroke="#000" stroke-linejoin="round" stroke-width="0.25"/>
      <path id="Path_11103" data-name="Path 11103" d="M253.32,1748.431c-2.165,14.858,1.045,25.415,1.045,25.415a49.534,49.534,0,0,0,13.447-21.949,47.425,47.425,0,0,0,1.6-13.2l-14.171-3.129S254.124,1742.93,253.32,1748.431Z" transform="translate(-183.87 -1679.652)" fill="#fff" stroke="#000" stroke-linejoin="round" stroke-width="0.25"/>
      <path id="Path_11104" data-name="Path 11104" d="M277.468,1748.858s-11.019,22.332-11.6,43.834c0,0,7.607,5.395,11.6,1.16,0,0,7.213-40.815,17.994-55.611,0,0-7.222-5.7-12.834-2.637Z" transform="translate(-177.57 -1680.062)" fill="#e4a422" stroke="#000" stroke-linejoin="round" stroke-width="0.25"/>
      <path id="Path_11105" data-name="Path 11105" d="M282.389,1756.776s-3.122,15.3,0,27.831" transform="translate(-170.395 -1669.599)" fill="none" stroke="#000" stroke-linejoin="round" stroke-width="0.25"/>
      <g id="Group_3397" data-name="Group 3397" transform="translate(35.072)">
        <path id="Path_11106" data-name="Path 11106" d="M285.754,1730.636s6.4,5.368,7.461,12.283c0,0-21.088,17.3-24.628,19.59l-2.755-5.81-5.715.795s4.009-5.718,4.117-11.443Z" transform="translate(-215.365 -1681.988)" fill="#c99a6b" stroke="#000" stroke-linejoin="round" stroke-width="0.25"/>
        <circle id="Ellipse_1866" data-name="Ellipse 1866" cx="24.75" cy="24.75" r="24.75" transform="translate(24.12 14.564)" fill="#fff" stroke="#000" stroke-linejoin="round" stroke-width="0.25"/>
        <g id="Group_3395" data-name="Group 3395">
          <path id="Path_11107" data-name="Path 11107" d="M275.357,1726.962a96.025,96.025,0,0,0,24.158,3.362,13.717,13.717,0,0,1-.283-6.325c1.664-10.356-5.918-26.732-26.261-26.362-13.924.254-18.752,9.449-23.919,14.707C252.278,1715.814,260.434,1723.027,275.357,1726.962Z" transform="translate(-220.61 -1697.631)" fill="#f46e34" stroke="#000" stroke-linejoin="round" stroke-width="0.25"/>
          <path id="Path_11108" data-name="Path 11108" d="M323.357,1735.24a29.262,29.262,0,0,1-11.276-5.691c-34.875,1.347-52.176-13.568-57.8-19.739a11.191,11.191,0,0,1-4.376,1.574c-10.941,1.478-20.671,1.094-20.13,9.432.5,7.684,12.181,8.076,20.951,6.417s8.651,4.148,13.983,6.162,9.371-4.5,18.013-2.845c7.38,1.411,8.415,11.377,17.421,9.955s12.918,6.518,23.212,7.228S335.98,1738.652,323.357,1735.24Z" transform="translate(-229.755 -1691.859)" fill="#f46e34" stroke="#000" stroke-linejoin="round" stroke-width="0.25"/>
          <path id="Path_11109" data-name="Path 11109" d="M304.194,1730.591a10.649,10.649,0,0,1-3.421-5,96.026,96.026,0,0,1-24.158-3.362c-14.922-3.934-23.079-11.147-26.306-14.617a20.49,20.49,0,0,1-3.913,3.239C252.018,1717.023,269.319,1731.938,304.194,1730.591Z" transform="translate(-221.869 -1692.9)" fill="#e4a422" stroke="#000" stroke-linejoin="round" stroke-width="0.25"/>
        </g>
        <path id="Path_11110" data-name="Path 11110" d="M261.16,1706.695l-3.922,3.509,12.178,5.85v-5.747Z" transform="translate(-216.73 -1693.335)" fill="#e4a422" stroke="#000" stroke-linejoin="round" stroke-width="0.25"/>
        <g id="Group_3396" data-name="Group 3396" transform="translate(21.251 40.104)">
          <circle id="Ellipse_1867" data-name="Ellipse 1867" cx="5.814" cy="5.814" r="5.814" stroke="#000" stroke-linejoin="round" stroke-width="0.25"/>
          <circle id="Ellipse_1868" data-name="Ellipse 1868" cx="5.755" cy="5.755" r="5.755" transform="translate(16.568 2.482)" stroke="#000" stroke-linejoin="round" stroke-width="0.25"/>
          <path id="Path_11111" data-name="Path 11111" d="M252.008,1729.456s3.253-.447,5.019.8" transform="translate(-240.459 -1722.688)" fill="#fff" stroke="#000" stroke-linejoin="round" stroke-width="0.25"/>
        </g>
      </g>
      <circle id="Ellipse_1869" data-name="Ellipse 1869" cx="2.068" cy="2.068" r="2.068" transform="translate(117.058 145.629)" fill="#c99a6b" stroke="#000" stroke-linejoin="round" stroke-width="0.25"/>
      <circle id="Ellipse_1870" data-name="Ellipse 1870" cx="2.068" cy="2.068" r="2.068" transform="translate(124.21 147.129)" fill="#c99a6b" stroke="#000" stroke-linejoin="round" stroke-width="0.25"/>
      <circle id="Ellipse_1871" data-name="Ellipse 1871" cx="2.068" cy="2.068" r="2.068" transform="translate(26.058 142.412)" fill="#c99a6b" stroke="#000" stroke-linejoin="round" stroke-width="0.25"/>
      <circle id="Ellipse_1872" data-name="Ellipse 1872" cx="2.068" cy="2.068" r="2.068" transform="translate(30.721 133.908)" fill="#c99a6b" stroke="#000" stroke-linejoin="round" stroke-width="0.25"/>
      <circle id="Ellipse_1873" data-name="Ellipse 1873" cx="3.298" cy="3.298" r="3.298" transform="translate(65.009 116.064)" fill="#c99a6b" stroke="#000" stroke-linejoin="round" stroke-width="0.25"/>
      <circle id="Ellipse_1874" data-name="Ellipse 1874" cx="3.298" cy="3.298" r="3.298" transform="translate(66.141 103.669)" fill="#c99a6b" stroke="#000" stroke-linejoin="round" stroke-width="0.25"/>
      <path id="Path_11112" data-name="Path 11112" d="M226.7,1776.685c-1.276-5.008,2.33-13.484,9.156-15.148,0,0-.511,4.494,2.158,4.661s6.332-3.5,6.332-3.5,4.661,2.165,2.5,11.986S228.864,1785.175,226.7,1776.685Z" transform="translate(-196.251 -1667.343)" fill="#fff" stroke="#000" stroke-linejoin="round" stroke-width="0.25"/>
    </g>
    <g id="Group_3400" data-name="Group 3400" transform="translate(159.272 1911.626)">
      <g id="Group_3399" data-name="Group 3399" transform="translate(0 28.917)">
        <path id="Path_11113" data-name="Path 11113" d="M159.195,1868.843s-.544,18.393,9.725,27.633,34.187,23.485,38.917,34.5" transform="translate(-152.029 -1859.397)" fill="none" stroke="#000" stroke-linejoin="round" stroke-width="0.25"/>
        <path id="Path_11114" data-name="Path 11114" d="M170.553,1882.285c2.018-.284,4.755,2.286,5.564,7.062s.218,9.131-2.7,9.253c-2.687.114-4.714-5.337-5.294-8.475S167.841,1882.667,170.553,1882.285Z" transform="translate(-147.914 -1853.036)" fill="#f46e34" stroke="#000" stroke-linejoin="round" stroke-width="0.25"/>
        <circle id="Ellipse_1875" data-name="Ellipse 1875" cx="4.711" cy="4.711" r="4.711" transform="translate(2.272)" fill="#f46e34" stroke="#000" stroke-linejoin="round" stroke-width="0.25"/>
        <circle id="Ellipse_1876" data-name="Ellipse 1876" cx="4.114" cy="4.114" r="4.114" transform="translate(0 16.7)" fill="#78634b" stroke="#000" stroke-linejoin="round" stroke-width="0.25"/>
        <circle id="Ellipse_1877" data-name="Ellipse 1877" cx="4.366" cy="4.366" r="4.366" transform="translate(7.957 13.404)" fill="#78634b" stroke="#000" stroke-linejoin="round" stroke-width="0.25"/>
        <circle id="Ellipse_1878" data-name="Ellipse 1878" cx="3.694" cy="3.694" r="3.694" transform="translate(3.879 26.62)" fill="#ffe7d2" stroke="#000" stroke-linejoin="round" stroke-width="0.25"/>
        <circle id="Ellipse_1879" data-name="Ellipse 1879" cx="4.114" cy="4.114" r="4.114" transform="translate(11.064 23.37)" fill="#ffe7d2" stroke="#000" stroke-linejoin="round" stroke-width="0.25"/>
        <path id="Path_11115" data-name="Path 11115" d="M173.992,1885.075c3.65-1.4,5.65,4.114,6.649,8.814s.021,7.81-1.739,8.005-3.731-3.272-5.184-7.84S171.989,1885.846,173.992,1885.075Z" transform="translate(-145.692 -1851.809)" fill="#f46e34" stroke="#000" stroke-linejoin="round" stroke-width="0.25"/>
        <path id="Path_11116" data-name="Path 11116" d="M160.13,1891.7c.432-3.1,6.612-4.042,14.5-1.1,7.535,2.815,3.083,8.166-1.831,7.471S159.419,1896.786,160.13,1891.7Z" transform="translate(-151.603 -1849.93)" fill="#f46e34" stroke="#000" stroke-linejoin="round" stroke-width="0.25"/>
        <path id="Path_11117" data-name="Path 11117" d="M166.349,1897.822c.342-3.847,7.259-4.506,11.963-3.557s5.9,5.387,1,7.032S165.93,1902.54,166.349,1897.822Z" transform="translate(-148.643 -1847.531)" fill="#f46e34" stroke="#000" stroke-linejoin="round" stroke-width="0.25"/>
        <path id="Path_11118" data-name="Path 11118" d="M180.931,1890.835c2.823-1.032,5.09,1.35,5.479,6.544s-1.014,8.172-3.527,7.995S176.565,1892.43,180.931,1890.835Z" transform="translate(-142.669 -1849.086)" fill="#f46e34" stroke="#000" stroke-linejoin="round" stroke-width="0.25"/>
        <path id="Path_11119" data-name="Path 11119" d="M170.482,1903.506c-.065-3.537,4.031-5.389,11.1-5.159s9.51,3.791,6.9,6.951C185.817,1908.537,170.568,1908.3,170.482,1903.506Z" transform="translate(-146.677 -1845.423)" fill="#f46e34" stroke="#000" stroke-linejoin="round" stroke-width="0.25"/>
      </g>
      <path id="Path_11120" data-name="Path 11120" d="M183.512,1849.46s13.373,14.507,12.515,48.02-4.127,53.5,14.409,62.552" transform="translate(-140.501 -1839.667)" fill="none" stroke="#000" stroke-linejoin="round" stroke-width="0.25"/>
      <circle id="Ellipse_1880" data-name="Ellipse 1880" cx="3.858" cy="3.858" r="3.858" transform="translate(47.748 11.883)" fill="#78634b" stroke="#000" stroke-linejoin="round" stroke-width="0.25"/>
      <circle id="Ellipse_1881" data-name="Ellipse 1881" cx="3.858" cy="3.858" r="3.858" transform="translate(40.407 15.236)" fill="#78634b" stroke="#000" stroke-linejoin="round" stroke-width="0.25"/>
      <circle id="Ellipse_1882" data-name="Ellipse 1882" cx="3.225" cy="3.225" r="3.225" transform="translate(51.062 21.152)" fill="#ffe7d2" stroke="#000" stroke-linejoin="round" stroke-width="0.25"/>
      <circle id="Ellipse_1883" data-name="Ellipse 1883" cx="3.225" cy="3.225" r="3.225" transform="translate(44.926 23.955)" fill="#ffe7d2" stroke="#000" stroke-linejoin="round" stroke-width="0.25"/>
      <circle id="Ellipse_1884" data-name="Ellipse 1884" cx="5.284" cy="5.284" r="5.284" transform="translate(34.957)" fill="#f46e34" stroke="#000" stroke-linejoin="round" stroke-width="0.25"/>
      <path id="Path_11121" data-name="Path 11121" d="M203.777,1871.029c1.492,1.23.582,4.989-1.7,8.266-2.189,3.137-5.527,6.54-7.986,5.081s-.368-6.9,2.525-10.266S202.216,1869.74,203.777,1871.029Z" transform="translate(-136.004 -1829.701)" fill="#f46e34" stroke="#000" stroke-linejoin="round" stroke-width="0.25"/>
      <path id="Path_11122" data-name="Path 11122" d="M202.111,1862.888c1.378,1.138.538,4.613-1.576,7.642-2.024,2.9-5.11,6.046-7.383,4.7s-.34-6.382,2.335-9.492S200.668,1861.7,202.111,1862.888Z" transform="translate(-136.408 -1833.54)" fill="#f46e34" stroke="#000" stroke-linejoin="round" stroke-width="0.25"/>
      <path id="Path_11123" data-name="Path 11123" d="M182.189,1867.013c-.775,1.5,1.25,4.217,4.218,6.067,2.84,1.77,6.7,3.36,8.175,1.34s-2.078-5.682-5.566-7.393S183,1865.438,182.189,1867.013Z" transform="translate(-141.207 -1831.928)" fill="#f46e34" stroke="#000" stroke-linejoin="round" stroke-width="0.25"/>
      <path id="Path_11124" data-name="Path 11124" d="M182.083,1874.806c-.815,1.58,1.313,4.432,4.432,6.376,2.986,1.86,7.041,3.532,8.593,1.408s-2.184-5.971-5.85-7.771S182.938,1873.149,182.083,1874.806Z" transform="translate(-141.261 -1828.265)" fill="#f46e34" stroke="#000" stroke-linejoin="round" stroke-width="0.25"/>
      <path id="Path_11125" data-name="Path 11125" d="M205.235,1880.913c1.226,1.5-.4,5.02-3.287,7.8-2.764,2.656-6.709,5.35-8.842,3.437s.983-6.858,4.485-9.6S203.952,1879.34,205.235,1880.913Z" transform="translate(-136.285 -1825.185)" fill="#f46e34" stroke="#000" stroke-linejoin="round" stroke-width="0.25"/>
      <path id="Path_11126" data-name="Path 11126" d="M182.629,1882.1c-.936,1.516.976,4.529,3.946,6.709,2.842,2.086,6.768,4.064,8.481,2.059s-1.73-6.135-5.258-8.21S183.608,1880.509,182.629,1882.1Z" transform="translate(-141.033 -1824.721)" fill="#f46e34" stroke="#000" stroke-linejoin="round" stroke-width="0.25"/>
      <path id="Path_11127" data-name="Path 11127" d="M207.894,1890.283c.738,1.829-1.907,4.761-5.555,6.587-3.49,1.748-8.142,3.175-9.638.669s3.03-6.372,7.265-7.981S207.122,1888.365,207.894,1890.283Z" transform="translate(-136.284 -1821.134)" fill="#f46e34" stroke="#000" stroke-linejoin="round" stroke-width="0.25"/>
      <path id="Path_11128" data-name="Path 11128" d="M208.3,1898.435c.483,1.906-2.52,4.443-6.365,5.756-3.677,1.257-8.46,2.042-9.6-.631s3.844-5.882,8.238-6.9S207.794,1896.441,208.3,1898.435Z" transform="translate(-136.397 -1817.507)" fill="#f46e34" stroke="#000" stroke-linejoin="round" stroke-width="0.25"/>
      <path id="Path_11129" data-name="Path 11129" d="M208.184,1905.539c.466,1.836-2.429,4.283-6.135,5.549-3.546,1.21-8.157,1.968-9.255-.61s3.706-5.669,7.942-6.654S207.7,1903.615,208.184,1905.539Z" transform="translate(-136.177 -1814.103)" fill="#f46e34" stroke="#000" stroke-linejoin="round" stroke-width="0.25"/>
      <path id="Path_11130" data-name="Path 11130" d="M208.381,1912.259c.248,1.729-2.647,3.688-6.167,4.487-3.369.764-7.67,1.007-8.427-1.464s3.953-4.836,7.933-5.322S208.122,1910.447,208.381,1912.259Z" transform="translate(-135.669 -1811.052)" fill="#f46e34" stroke="#000" stroke-linejoin="round" stroke-width="0.25"/>
      <path id="Path_11131" data-name="Path 11131" d="M181.322,1890.356c-.644,1.7,1.847,4.342,5.235,5.952,3.244,1.54,7.551,2.764,8.879.43s-2.91-5.8-6.836-7.2S182,1888.577,181.322,1890.356Z" transform="translate(-141.587 -1821.065)" fill="#f46e34" stroke="#000" stroke-linejoin="round" stroke-width="0.25"/>
      <path id="Path_11132" data-name="Path 11132" d="M180.088,1897.712c-.55,1.835,2.271,4.431,5.962,5.868,3.532,1.377,8.157,2.339,9.379-.218s-3.5-5.888-7.741-7.063S180.663,1895.789,180.088,1897.712Z" transform="translate(-142.156 -1817.744)" fill="#f46e34" stroke="#000" stroke-linejoin="round" stroke-width="0.25"/>
      <path id="Path_11133" data-name="Path 11133" d="M181.173,1904.583c-.7,1.71,1.758,4.468,5.162,6.2,3.256,1.655,7.6,3.018,9.018.681s-2.8-5.981-6.755-7.511S181.907,1902.794,181.173,1904.583Z" transform="translate(-141.667 -1814.294)" fill="#f46e34" stroke="#000" stroke-linejoin="round" stroke-width="0.25"/>
      <path id="Path_11134" data-name="Path 11134" d="M182.5,1912.908c-.246,1.686,2.571,3.6,6,4.391,3.282.752,7.476,1,8.217-1.406s-3.841-4.726-7.721-5.21S182.758,1911.144,182.5,1912.908Z" transform="translate(-140.987 -1810.71)" fill="#f46e34" stroke="#000" stroke-linejoin="round" stroke-width="0.25"/>
    </g>
    <g id="Group_3401" data-name="Group 3401" transform="translate(443.325 2027.542)">
      <path id="Path_11135" data-name="Path 11135" d="M368.406,1926.277s-3.9,5.088-3.293,24.294c.843,26.779-17.724,38.513-17.724,38.513" transform="translate(-346.884 -1919.175)" fill="none" stroke="#000" stroke-linejoin="round" stroke-width="0.25"/>
      <circle id="Ellipse_1885" data-name="Ellipse 1885" cx="3.633" cy="3.633" r="3.633" transform="translate(18.965)" fill="#f46e34" stroke="#000" stroke-linejoin="round" stroke-width="0.25"/>
      <circle id="Ellipse_1886" data-name="Ellipse 1886" cx="4.274" cy="4.274" r="4.274" transform="translate(9.821 10.328)" fill="#78634b" stroke="#000" stroke-linejoin="round" stroke-width="0.25"/>
      <circle id="Ellipse_1887" data-name="Ellipse 1887" cx="4.274" cy="4.274" r="4.274" transform="translate(19.459 13.637)" fill="#78634b" stroke="#000" stroke-linejoin="round" stroke-width="0.25"/>
      <circle id="Ellipse_1888" data-name="Ellipse 1888" cx="4.274" cy="4.274" r="4.274" transform="translate(9.032 22.274)" fill="#ffe7d2" stroke="#000" stroke-linejoin="round" stroke-width="0.25"/>
      <circle id="Ellipse_1889" data-name="Ellipse 1889" cx="4.274" cy="4.274" r="4.274" transform="translate(18.59 25.271)" fill="#ffe7d2" stroke="#000" stroke-linejoin="round" stroke-width="0.25"/>
      <path id="Path_11136" data-name="Path 11136" d="M368.55,1947c1.017,1.978-2.149,5.349-5.489,7.658s-6.362,1.126-4.444-2.562S366.942,1943.875,368.55,1947Z" transform="translate(-341.846 -1909.848)" fill="#f46e34" stroke="#000" stroke-linejoin="round" stroke-width="0.25"/>
      <path id="Path_11137" data-name="Path 11137" d="M353.863,1945.31c2.573-1.757,7.365,2.886,8.362,6.593s-.637,6.721-3.891,4.509S350.443,1947.648,353.863,1945.31Z" transform="translate(-344.386 -1910.336)" fill="#f46e34" stroke="#000" stroke-linejoin="round" stroke-width="0.25"/>
      <path id="Path_11138" data-name="Path 11138" d="M368.264,1955.6c1.026,1.974-.769,4.223-4.277,6.462s-6.332,2.267-7.361.7c-1.005-1.53.195-4.283,3.551-6.9S367.089,1953.34,368.264,1955.6Z" transform="translate(-342.669 -1906.084)" fill="#f46e34" stroke="#000" stroke-linejoin="round" stroke-width="0.25"/>
      <path id="Path_11139" data-name="Path 11139" d="M350.783,1951.513c2.6-1.991,6.979,2.022,9.012,6.233s-.777,6.129-4.361,3.666S348.011,1953.64,350.783,1951.513Z" transform="translate(-345.725 -1907.463)" fill="#f46e34" stroke="#000" stroke-linejoin="round" stroke-width="0.25"/>
      <path id="Path_11140" data-name="Path 11140" d="M365.141,1963.43c.691,2.382-2.964,5.089-8.627,5.832s-5.532-3.63-2.086-5.459S364.326,1960.624,365.141,1963.43Z" transform="translate(-344.692 -1902.329)" fill="#f46e34" stroke="#000" stroke-linejoin="round" stroke-width="0.25"/>
      <path id="Path_11141" data-name="Path 11141" d="M348.181,1956.342c2.276-1.411,6.056,2.255,7.2,7.914,1.091,5.383-2.4,5.917-5.044,3.207S345.694,1957.883,348.181,1956.342Z" transform="translate(-347.046 -1905.069)" fill="#f46e34" stroke="#000" stroke-linejoin="round" stroke-width="0.25"/>
    </g>
    <path id="Path_11142" data-name="Path 11142" d="M333.463,1972.012s-2.211,3.07-5.035,3.439" transform="translate(87.454 130.043)" fill="#78634b" stroke="#000" stroke-linejoin="round" stroke-width="0.25"/>
    <path id="Path_11143" data-name="Path 11143" d="M333.514,1974.012a4.515,4.515,0,0,1-3.378,2.824" transform="translate(88.264 130.991)" fill="#78634b" stroke="#000" stroke-linejoin="round" stroke-width="0.25"/>
    <path id="Path_11144" data-name="Path 11144" d="M355.886,1977.988s1.352,1.754,1.29,2.921" transform="translate(100.468 132.875)" fill="#78634b" stroke="#000" stroke-linejoin="round" stroke-width="0.25"/>
    <path id="Path_11145" data-name="Path 11145" d="M356.762,1977.8a3.543,3.543,0,0,1,.945,2.211" transform="translate(100.883 132.788)" fill="#78634b" stroke="#000" stroke-linejoin="round" stroke-width="0.25"/>
  </g>
</svg>
