<svg xmlns="http://www.w3.org/2000/svg" width="373.456" height="331.486" viewBox="0 0 373.456 331.486">
  <g id="Group_3980" data-name="Group 3980" transform="translate(0.126 0.125)">
    <path id="Path_10306" data-name="Path 10306" d="M924.277,1436.554s-3.261-36.081,26.782-48.215c0,0,13.284,29.584,12.549,26.887s-.449-32.555-.449-32.555a29.954,29.954,0,0,1,12.31-2.063l.694,50.3,8.647-52.259s7.886-4.184,14.846-1.631l-7.688,47.968,18.67-49.016s9.356-1.066,14.318,4.363l-11.532,34.989,24.039-32.106s17.317,3.428,26.479,17.966l-5.355,10.461,10.932-4.836a37.129,37.129,0,0,1,4.715,31.709Z" transform="translate(-725.894 -1119.964)" fill="#90d1a2" stroke="#000" stroke-miterlimit="10" stroke-width="0.25"/>
    <g id="Group_3381" data-name="Group 3381" transform="translate(0 0)">
      <g id="Group_3371" data-name="Group 3371" transform="translate(17.771 219.942)">
        <path id="Path_11017" data-name="Path 11017" d="M1943.279,1459.739l58.994-61.452,63.91-15.732,48.67,18.05,26.093,13.649,28.667,51.159-79.382,12.778Z" transform="translate(-1943.279 -1382.555)" fill="#ae7516" stroke="#000" stroke-miterlimit="10" stroke-width="0.25"/>
        <path id="Path_11018" data-name="Path 11018" d="M1985.975,1393.941l28.955,34.9,52.638,5.952" transform="translate(-1926.981 -1378.209)" fill="none" stroke="#000" stroke-miterlimit="10" stroke-width="0.25"/>
        <line id="Line_576" data-name="Line 576" x2="13.085" y2="46.667" transform="translate(122.904)" fill="none" stroke="#000" stroke-miterlimit="10" stroke-width="0.25"/>
        <line id="Line_577" data-name="Line 577" x2="28.68" y2="23.9" transform="translate(77.509 16.968)" fill="none" stroke="#000" stroke-miterlimit="10" stroke-width="0.25"/>
        <line id="Line_578" data-name="Line 578" x2="3.441" y2="9.025" transform="translate(102.748 22.279)" fill="none" stroke="#000" stroke-miterlimit="10" stroke-width="0.25"/>
        <line id="Line_579" data-name="Line 579" x2="19.12" y2="20.979" transform="translate(145.49 22.279)" fill="none" stroke="#000" stroke-miterlimit="10" stroke-width="0.25"/>
        <line id="Line_580" data-name="Line 580" x2="6.108" y2="5.867" transform="translate(169.656 32.769)" fill="none" stroke="#000" stroke-miterlimit="10" stroke-width="0.25"/>
        <line id="Line_581" data-name="Line 581" x1="57.08" y2="24.89" transform="translate(140.586 31.699)" fill="none" stroke="#000" stroke-miterlimit="10" stroke-width="0.25"/>
        <line id="Line_582" data-name="Line 582" x2="3.629" y2="22.622" transform="translate(141.861 63.165)" fill="none" stroke="#000" stroke-miterlimit="10" stroke-width="0.25"/>
        <line id="Line_583" data-name="Line 583" x2="3.852" y2="13.61" transform="translate(172.709 62.243)" fill="none" stroke="#000" stroke-miterlimit="10" stroke-width="0.25"/>
        <line id="Line_584" data-name="Line 584" x2="24.337" y2="23.746" transform="translate(192.328 50.729)" fill="none" stroke="#000" stroke-miterlimit="10" stroke-width="0.25"/>
        <line id="Line_585" data-name="Line 585" x1="35.925" y2="26.672" transform="translate(26.718 40.868)" fill="none" stroke="#000" stroke-miterlimit="10" stroke-width="0.25"/>
        <line id="Line_586" data-name="Line 586" x1="8.162" y2="16.891" transform="translate(77.509 54.204)" fill="none" stroke="#000" stroke-miterlimit="10" stroke-width="0.25"/>
      </g>
      <g id="Group_3377" data-name="Group 3377" transform="translate(140.486 0)">
        <path id="Path_11019" data-name="Path 11019" d="M2064.744,1341.887s-.626,14.272-12.869,22.634l30.759,29.862s64.348-9.5,93.468,7.167c42.184,24.148,48.327,41.772,56.737,38.222,7.544-3.183,3.517-65.39-13.023-87.939l-75.979-30.432Z" transform="translate(-2024.541 -1185.957)" fill="#96c6e7" stroke="#000" stroke-linejoin="round" stroke-width="0.25"/>
        <path id="Path_11020" data-name="Path 11020" d="M2043.089,1375.657c-.113-11.127,7.527-29.432,23.359-33.584,20.235-5.308,35.706,8.782,41.816,18.822l98.381,34.833,26.069,36.874s-.754,39.837-28.753,49.043-47.945-11.507-47.945-11.507l-1.534-27.232s-14.966,2.847-29.081.865-15.812-4.874-18.325-8.913a72.588,72.588,0,0,1-25.753,7.924c-15.105,1.733-20.553,0-25.01-8.668S2043.333,1399.6,2043.089,1375.657Z" transform="translate(-2027.895 -1178.508)" fill="#90d1a2" stroke="#000" stroke-linejoin="round" stroke-width="0.25"/>
        <g id="Group_3372" data-name="Group 3372" transform="translate(0 256.349)">
          <path id="Path_11021" data-name="Path 11021" d="M2067.3,1417.4s11.464,13.734-7.382,29.1,2.458,15.772,19.665,15.157,41.581-8.4,41.581-8.4-13.52-8.6-16.387-23.965-3.262-20.386-3.262-20.386Z" transform="translate(-2024.28 -1408.904)" fill="#fff" stroke="#000" stroke-linejoin="round" stroke-width="0.25"/>
          <path id="Path_11022" data-name="Path 11022" d="M2069.885,1432.489a113.247,113.247,0,0,1-21.462,12.232c-11.381,4.7-17.7,5.108-16.077,12.308,5.419,8.24,50.759,1.42,68.823,4.491s15.9-14.992,3.251-15.535-18.985.377-23.262,1c-4.859.707-8.169-1.36-4.918-4.25S2083.04,1434.528,2069.885,1432.489Z" transform="translate(-2032.092 -1399.901)" fill="#e6ad18" stroke="#000" stroke-miterlimit="10" stroke-width="0.25"/>
        </g>
        <path id="Path_11023" data-name="Path 11023" d="M2097.562,1390.842s31.98-5.964,61.1,10.707c42.184,24.148,48.327,41.772,56.738,38.222,7.544-3.183,3.516-65.39-13.023-87.939L2126.4,1321.4" transform="translate(-2007.101 -1185.957)" fill="#96c6e7" stroke="#000" stroke-linejoin="round" stroke-width="0.25"/>
        <g id="Group_3373" data-name="Group 3373" transform="translate(29.457 87.602)">
          <path id="Path_11024" data-name="Path 11024" d="M2220.059,1340.163c-21.647,1.419-29.542-10.322-51.041-12.915-17.611-2.126-29.468,5.126-48.664,6.6s-24.806-8.268-42.82-5.316c-13.8,2.262-19.772-.391-21.82-1.759a36.123,36.123,0,0,0-2.011,5.973c-2.778,12.441,14.606,5.094,32.827,5.094s24.919,11.89,50.49,3.058,35.91-2.718,54.593,6.794,31.59,0,31.59,0A44.91,44.91,0,0,0,2220.059,1340.163Z" transform="translate(-2053.411 -1271.507)" fill="#fff3d9" stroke="#000" stroke-miterlimit="10" stroke-width="0.25"/>
          <path id="Path_11025" data-name="Path 11025" d="M2076.9,1343.8c18.013-2.953,23.624,6.793,42.82,5.316s31.052-8.728,48.664-6.6c21.5,2.594,29.393,14.334,51.041,12.915-3.715-7.413-11.473-19.923-27.086-35.948-25.816-26.495-55.951-32.708-55.951-32.708s-40.517,8.252-50.49,14.226c-8.664,5.19-24.761,26.647-30.816,41.043C2057.126,1343.412,2063.1,1346.066,2076.9,1343.8Z" transform="translate(-2052.775 -1286.776)" fill="#e6ad18" stroke="#000" stroke-miterlimit="10" stroke-width="0.25"/>
        </g>
        <path id="Path_11026" data-name="Path 11026" d="M2093.091,1433.747s-8.861-28.644-12.522-50.875,4.97-33.668,18.832-37.757,23.121,2.808,23.121,2.808" transform="translate(-2013.91 -1177.399)" fill="#90d1a2" stroke="#000" stroke-linejoin="round" stroke-width="0.25"/>
        <path id="Path_11027" data-name="Path 11027" d="M2076.425,1336.4s-1.5,6.243-3.149,7.651" transform="translate(-2016.372 -1180.23)" fill="none" stroke="#000" stroke-linejoin="round" stroke-width="0.25"/>
        <path id="Path_11028" data-name="Path 11028" d="M2120.881,1353.117s-9.316,11.262-20.888,15.59-25.262,8.272-23.3,16.528a6.208,6.208,0,0,0,5.317,4.846s-5.048,7.389,4.174,10.3c0,0-6.52,5.182.361,9.873s28.047-3.493,38.6-10.946c9.638-6.808,23.3-18.181,26.517-29.5Z" transform="translate(-2015.14 -1173.85)" fill="#fff" stroke="#000" stroke-miterlimit="10" stroke-width="0.25"/>
        <path id="Path_11029" data-name="Path 11029" d="M2080.488,1380.742s7.023-.218,12.3-3.16" transform="translate(-2013.619 -1164.511)" fill="none" stroke="#000" stroke-linejoin="round" stroke-width="0.25"/>
        <path id="Path_11030" data-name="Path 11030" d="M2083.509,1388.016a18.653,18.653,0,0,0,12.385-2.5" transform="translate(-2012.465 -1161.485)" fill="none" stroke="#000" stroke-linejoin="round" stroke-width="0.25"/>
        <path id="Path_11031" data-name="Path 11031" d="M2040.152,1370.976c0-4.348,4.281-7.725,10.328-7.233,7.426.6,13.691,6.849,9.007,14.594a7.63,7.63,0,0,1,2.883,10.266s5.644,3.123,4.2,9.248-12.669,10.551-18.376,5.284c-4.96-4.578-1.681-10.568-1.681-10.568s-7.843-5.617-2.307-13.653A9.122,9.122,0,0,1,2040.152,1370.976Z" transform="translate(-2029.016 -1169.812)" fill="#fff" stroke="#000" stroke-miterlimit="10" stroke-width="0.25"/>
        <path id="Path_11032" data-name="Path 11032" d="M2043.088,1374.868a26.416,26.416,0,0,0,15.279-.576" transform="translate(-2027.895 -1165.767)" fill="none" stroke="#000" stroke-linejoin="round" stroke-width="0.25"/>
        <path id="Path_11033" data-name="Path 11033" d="M2044.758,1385.685s9.093,2.751,15.854-3.963" transform="translate(-2027.258 -1162.931)" fill="none" stroke="#000" stroke-linejoin="round" stroke-width="0.25"/>
        <line id="Line_587" data-name="Line 587" x2="18.159" y2="38.194" transform="translate(130.563 206.858)" fill="none" stroke="#000" stroke-linejoin="round" stroke-width="0.25"/>
        <path id="Path_11034" data-name="Path 11034" d="M2126.013,1403.018s9.694,13.19-2.3,16.181" transform="translate(-1997.121 -1154.802)" fill="none" stroke="#000" stroke-linejoin="round" stroke-width="0.25"/>
        <g id="Group_3374" data-name="Group 3374" transform="translate(45.566 264.397)">
          <path id="Path_11035" data-name="Path 11035" d="M2104.515,1414.841s2.616,13.3,0,20.822-12.8,15.036-12.8,15.036-18.189,10.913,9.458,12.853a108.187,108.187,0,0,0,48.5-7.725s-11.533-23.7-11.511-41.1Z" transform="translate(-2057.142 -1414.729)" fill="#fff" stroke="#000" stroke-miterlimit="10" stroke-width="0.25"/>
          <path id="Path_11036" data-name="Path 11036" d="M2101.724,1436.831s-5.3,7.775-21.395,11.935-18.446,9.222-11.754,14.827,43.581,3.979,54.973,1.628,26.819,1.118,38.517-8.5c0,0-.482-15.113-6.66-13.886s-7.73,8.1-23.773,9.276-21.285,2.3-21.828-.615,10.648-8.529,4.477-13.24C2108.783,1434.059,2101.724,1436.831,2101.724,1436.831Z" transform="translate(-2065.071 -1406.635)" fill="#e6ad18" stroke="#000" stroke-miterlimit="10" stroke-width="0.25"/>
        </g>
        <path id="Path_11037" data-name="Path 11037" d="M2062.641,1316.015l10.053-3.759,4.642,7.115,11.157-5.679,6.566,5.679,7.655-7.115,10.4,9.233,9.848-9.233,12.593,7.115,8.335-11.424,13.063,9.849,4.788-9.849,10.6,10.054,4.992-11.285,10.365,3.4" transform="translate(-2020.432 -1191.562)" fill="none" stroke="#000" stroke-linejoin="round" stroke-width="0.25"/>
        <path id="Path_11038" data-name="Path 11038" d="M2058.362,1322.406l10.835-2.074,7.386,6.566,12.35-5.745,9.81,7.592,5.6-7.592,9.375,7.592,10.464-8.412,13,7.592,9.361-9.438,14.158,7.181,4.891-7.181,11.523,8.412,6.771-12.311,14.85,2.55" transform="translate(-2022.064 -1188.558)" fill="none" stroke="#000" stroke-linejoin="round" stroke-width="0.25"/>
        <line id="Line_588" data-name="Line 588" y2="6.567" transform="translate(141.648 200.291)" fill="none" stroke="#000" stroke-linejoin="round" stroke-width="0.25"/>
        <line id="Line_589" data-name="Line 589" y2="6.641" transform="translate(148.722 201.05)" fill="none" stroke="#000" stroke-linejoin="round" stroke-width="0.25"/>
        <line id="Line_590" data-name="Line 590" y2="6.772" transform="translate(155.878 203.574)" fill="none" stroke="#000" stroke-linejoin="round" stroke-width="0.25"/>
        <line id="Line_591" data-name="Line 591" y2="7.467" transform="translate(162.898 205.603)" fill="none" stroke="#000" stroke-linejoin="round" stroke-width="0.25"/>
        <line id="Line_592" data-name="Line 592" y2="8.069" transform="translate(171.246 211.385)" fill="none" stroke="#000" stroke-linejoin="round" stroke-width="0.25"/>
        <line id="Line_593" data-name="Line 593" y2="8.159" transform="translate(178.75 217.219)" fill="none" stroke="#000" stroke-linejoin="round" stroke-width="0.25"/>
        <line id="Line_594" data-name="Line 594" y2="7.95" transform="translate(186.235 224.026)" fill="none" stroke="#000" stroke-linejoin="round" stroke-width="0.25"/>
        <line id="Line_595" data-name="Line 595" y2="9.487" transform="translate(194.963 229.699)" fill="none" stroke="#000" stroke-linejoin="round" stroke-width="0.25"/>
        <line id="Line_596" data-name="Line 596" y2="5.841" transform="translate(202.932 236.909)" fill="none" stroke="#000" stroke-linejoin="round" stroke-width="0.25"/>
        <line id="Line_597" data-name="Line 597" x2="2.488" y2="4.998" transform="translate(35.305 254.927)" fill="none" stroke="#000" stroke-linejoin="round" stroke-width="0.25"/>
        <line id="Line_598" data-name="Line 598" x2="2.488" y2="4.998" transform="translate(41.887 253.849)" fill="none" stroke="#000" stroke-linejoin="round" stroke-width="0.25"/>
        <line id="Line_599" data-name="Line 599" x2="2.488" y2="4.998" transform="translate(48.469 252.772)" fill="none" stroke="#000" stroke-linejoin="round" stroke-width="0.25"/>
        <line id="Line_600" data-name="Line 600" x2="2.488" y2="4.998" transform="translate(55.051 251.695)" fill="none" stroke="#000" stroke-linejoin="round" stroke-width="0.25"/>
        <line id="Line_601" data-name="Line 601" x2="2.488" y2="4.998" transform="translate(61.633 250.618)" fill="none" stroke="#000" stroke-linejoin="round" stroke-width="0.25"/>
        <line id="Line_602" data-name="Line 602" x2="2.488" y2="4.998" transform="translate(68.215 249.541)" fill="none" stroke="#000" stroke-linejoin="round" stroke-width="0.25"/>
        <line id="Line_603" data-name="Line 603" x2="1.67" y2="5.327" transform="translate(88.161 254.166)" fill="none" stroke="#000" stroke-linejoin="round" stroke-width="0.25"/>
        <line id="Line_604" data-name="Line 604" x2="1.67" y2="5.327" transform="translate(94.83 254.139)" fill="none" stroke="#000" stroke-linejoin="round" stroke-width="0.25"/>
        <line id="Line_605" data-name="Line 605" x2="1.67" y2="5.327" transform="translate(101.5 254.113)" fill="none" stroke="#000" stroke-linejoin="round" stroke-width="0.25"/>
        <line id="Line_606" data-name="Line 606" x2="1.67" y2="5.327" transform="translate(108.169 254.086)" fill="none" stroke="#000" stroke-linejoin="round" stroke-width="0.25"/>
        <line id="Line_607" data-name="Line 607" x2="1.67" y2="5.327" transform="translate(114.839 254.06)" fill="none" stroke="#000" stroke-linejoin="round" stroke-width="0.25"/>
        <line id="Line_608" data-name="Line 608" x2="1.67" y2="5.327" transform="translate(121.509 254.033)" fill="none" stroke="#000" stroke-linejoin="round" stroke-width="0.25"/>
        <g id="Group_3375" data-name="Group 3375" transform="translate(49.439 42.71)">
          <circle id="Ellipse_1854" data-name="Ellipse 1854" cx="32.842" cy="32.842" r="32.842" fill="#fff" stroke="#000" stroke-miterlimit="10" stroke-width="0.25"/>
          <ellipse id="Ellipse_1855" data-name="Ellipse 1855" cx="1.181" cy="3.018" rx="1.181" ry="3.018" transform="translate(10.84 43.153) rotate(-8.447)"/>
          <ellipse id="Ellipse_1856" data-name="Ellipse 1856" cx="1.181" cy="3.018" rx="1.181" ry="3.018" transform="translate(18.751 41.978) rotate(-8.447)"/>
        </g>
        <g id="Group_3376" data-name="Group 3376" transform="translate(32.763)">
          <path id="Path_11039" data-name="Path 11039" d="M2166.574,1267.278c0-6.875-5.119-12.694-12.176-14.654a18.6,18.6,0,0,0,1.889-8.137c0-10.913-9.455-19.76-21.119-19.76a21.631,21.631,0,0,0-16.454,7.39,17.579,17.579,0,0,0-15.419-8.741c-9.456,0-17.135,7.06-17.386,15.852-6.043-.343-11.817,2.339-14.812,7.525a15.272,15.272,0,0,0-.81,13.278,14.243,14.243,0,0,0-5.907,24.411,12.322,12.322,0,1,0,15.865,13.928,9.215,9.215,0,0,0,18.115.021c.447-.11.891-.229,1.326-.367a33.639,33.639,0,0,1,28.879,5.9,11.312,11.312,0,0,1,14.528-7.418,11.313,11.313,0,0,0,10.89-14.471C2161.252,1280.186,2166.574,1274.285,2166.574,1267.278Z" transform="translate(-2055.803 -1223.375)" fill="#96c6e7" stroke="#000" stroke-linejoin="round" stroke-width="0.25"/>
          <path id="Path_11040" data-name="Path 11040" d="M2076.545,1252.955s.47-8.913,13.78-12.828,31.966,5.487,34.464,28.631l-7.317,1.862s-2.841-19.868-18.978-21.212c0,0-3.5-5.379-9.01-3.9s-6.132,8.458-6.132,8.458c-10.386-2.271-17.064,0-17.064,0" transform="translate(-2051.802 -1217.309)" fill="#e6ad18" stroke="#000" stroke-miterlimit="10" stroke-width="0.25"/>
          <path id="Path_11041" data-name="Path 11041" d="M2110.914,1247.556a4.746,4.746,0,0,1,4.014-4.253c3.737-.561,5.719,2.361,5.065,4.253,0,0,4.3-.25,6.26,3.013,2.024,3.378,0,7.941-2.8,8.6" transform="translate(-2034.767 -1215.795)" fill="none" stroke="#000" stroke-linejoin="round" stroke-width="0.25"/>
          <circle id="Ellipse_1857" data-name="Ellipse 1857" cx="15.289" cy="15.289" r="15.289" transform="translate(57.698 51.448)" fill="#e6ad18" stroke="#000" stroke-miterlimit="10" stroke-width="0.25"/>
          <circle id="Ellipse_1858" data-name="Ellipse 1858" cx="7.319" cy="7.319" r="7.319" transform="translate(65.668 59.418)" fill="#fff3d9" stroke="#000" stroke-miterlimit="10" stroke-width="0.25"/>
        </g>
        <path id="Path_11042" data-name="Path 11042" d="M2115.595,1340.914s-3.676,9.834-7.784,11.779,9.946,14.965,24.431,20.672,19.46-8.347,23.135-31.483" transform="translate(-2003.466 -1178.508)" fill="#96c6e7" stroke="#000" stroke-linejoin="round" stroke-width="0.25"/>
      </g>
      <g id="Group_3378" data-name="Group 3378" transform="translate(301.909 300.101)">
        <path id="Path_11043" data-name="Path 11043" d="M2163.747,1458.323c.124.126,6.257-11.638,6.257-11.638l10.136-2.378,12.266-3.738,22.149,10.441v11.147l-27.781,4.552-22.528-2.793Z" transform="translate(-2143.26 -1440.569)" fill="#ae7516" stroke="#000" stroke-miterlimit="10" stroke-width="0.25"/>
        <line id="Line_609" data-name="Line 609" x2="5.382" y2="10.137" transform="translate(30.624 8.493)" fill="none" stroke="#000" stroke-miterlimit="10" stroke-width="0.25"/>
        <line id="Line_610" data-name="Line 610" x2="1.377" y2="9.512" transform="translate(41.888 6.741)" fill="none" stroke="#000" stroke-miterlimit="10" stroke-width="0.25"/>
        <path id="Path_11044" data-name="Path 11044" d="M2148.919,1459.9l10.391-14.892h7.5l8.858,18.693-8.347,6.3-12.657-1.864Z" transform="translate(-2148.919 -1438.875)" fill="#ae7516" stroke="#000" stroke-miterlimit="10" stroke-width="0.25"/>
        <line id="Line_611" data-name="Line 611" x2="1.533" y2="11.413" transform="translate(14.65 13.413)" fill="none" stroke="#000" stroke-miterlimit="10" stroke-width="0.25"/>
      </g>
      <path id="Path_11045" data-name="Path 11045" d="M1933.4,1448.819c-3.8,7.384-4.663,22.065,1.588,29.529h121.657a76.66,76.66,0,0,0,1.632-8.694l-19.777-3.8,20.383-8.567a76.087,76.087,0,0,0-5.419-26.156l-23.531,5.022,14.928-20.561a65.246,65.246,0,0,0-20.01-18.123l-18.9,43.021,6.38-48.432a57.312,57.312,0,0,0-13.5-2.347l-3.014,20.677-5.5-20.491a57.406,57.406,0,0,0-12.772,2.718l9.365,55.784-18.41-51.886a62.513,62.513,0,0,0-11.46,7.9l4.015,25.878-13.078-16.3c-9.569,11.474-12.677,17.864-12.677,17.864l31.089,23.662Z" transform="translate(-1930.417 -1159.882)" fill="#90d1a2" stroke="#000" stroke-linejoin="round" stroke-width="0.25"/>
      <g id="Group_3380" data-name="Group 3380" transform="translate(90.37 176.513)">
        <path id="Path_11046" data-name="Path 11046" d="M2003.257,1356.09s10.23,35.254,31.257,41.8" transform="translate(-1992.983 -1349.228)" fill="none" stroke="#000" stroke-linejoin="round" stroke-width="0.25"/>
        <path id="Path_11047" data-name="Path 11047" d="M1998.786,1362.648s5.816,6.182,10.873,3.217" transform="translate(-1994.689 -1346.725)" fill="none" stroke="#000" stroke-linejoin="round" stroke-width="0.25"/>
        <path id="Path_11048" data-name="Path 11048" d="M2011.549,1355.358s.7,6.917-6.282,8.8" transform="translate(-1992.215 -1349.508)" fill="none" stroke="#000" stroke-linejoin="round" stroke-width="0.25"/>
        <circle id="Ellipse_1859" data-name="Ellipse 1859" cx="3.526" cy="3.526" r="3.526" transform="translate(5.394)" fill="#90d1a2" stroke="#000" stroke-linejoin="round" stroke-width="0.25"/>
        <g id="Group_3379" data-name="Group 3379" transform="translate(22.822 4.739)">
          <path id="Path_11049" data-name="Path 11049" d="M2022.922,1359.74a39.066,39.066,0,0,1-6.452,28.255" transform="translate(-2010.762 -1352.573)" fill="none" stroke="#000" stroke-linejoin="round" stroke-width="0.25"/>
          <path id="Path_11050" data-name="Path 11050" d="M2014.949,1363.292s2.748,7.309,8.453,7.747" transform="translate(-2011.342 -1351.218)" fill="none" stroke="#000" stroke-linejoin="round" stroke-width="0.25"/>
          <path id="Path_11051" data-name="Path 11051" d="M2031.712,1359.033a16.42,16.42,0,0,1-10.247,8.457" transform="translate(-2008.855 -1352.844)" fill="none" stroke="#000" stroke-linejoin="round" stroke-width="0.25"/>
          <circle id="Ellipse_1860" data-name="Ellipse 1860" cx="3.526" cy="3.526" r="3.526" transform="translate(7.752)" fill="#90d1a2" stroke="#000" stroke-linejoin="round" stroke-width="0.25"/>
          <circle id="Ellipse_1861" data-name="Ellipse 1861" cx="2.499" cy="2.499" r="2.499" transform="translate(21.268 1.281)" fill="#90d1a2" stroke="#000" stroke-linejoin="round" stroke-width="0.25"/>
          <circle id="Ellipse_1862" data-name="Ellipse 1862" cx="2.499" cy="2.499" r="2.499" transform="translate(0 7.297)" fill="#90d1a2" stroke="#000" stroke-linejoin="round" stroke-width="0.25"/>
        </g>
        <circle id="Ellipse_1863" data-name="Ellipse 1863" cx="2.499" cy="2.499" r="2.499" transform="translate(16.746 0.806)" fill="#90d1a2" stroke="#000" stroke-linejoin="round" stroke-width="0.25"/>
        <circle id="Ellipse_1864" data-name="Ellipse 1864" cx="2.499" cy="2.499" r="2.499" transform="translate(0 11.479)" fill="#90d1a2" stroke="#000" stroke-linejoin="round" stroke-width="0.25"/>
      </g>
    </g>
  </g>
</svg>
