<svg xmlns="http://www.w3.org/2000/svg" width="347.651" height="388.762" viewBox="0 0 347.651 388.762">
  <g id="Group_4124" data-name="Group 4124" transform="translate(-1427.222 -1184.047)">
    <g id="Group_4113" data-name="Group 4113" transform="translate(1626.088 1309.938)">
      <path id="Path_15694" data-name="Path 15694" d="M1611.061,1288.98s8.654,10.927-1.379,31.593c-14.412,29.343,1.709,36.188-7.842,53.892" transform="translate(-1557.552 -1268.761)" fill="none" stroke="#040000" stroke-miterlimit="10" stroke-width="0.25"/>
      <path id="Path_15695" data-name="Path 15695" d="M1620.909,1301.467s-9.779,2.932-11.4,7.159" transform="translate(-1554.541 -1263.855)" fill="none" stroke="#040000" stroke-miterlimit="10" stroke-width="0.25"/>
      <path id="Path_15696" data-name="Path 15696" d="M1594.482,1315.556s10.375-4.145,13.458,6.611" transform="translate(-1560.443 -1258.628)" fill="none" stroke="#040000" stroke-miterlimit="10" stroke-width="0.25"/>
      <path id="Path_15697" data-name="Path 15697" d="M1570.044,1327.854s7.827-4.338,10.337-11.9,8.991-12.15,17.149-7.445c8.115,4.821,10.742,18.81-.1,23.824C1586.069,1337.678,1570.044,1327.854,1570.044,1327.854Z" transform="translate(-1570.044 -1261.836)" fill="#90c6c0" stroke="#040000" stroke-miterlimit="10" stroke-width="0.25"/>
      <path id="Path_15698" data-name="Path 15698" d="M1596.915,1316.347a16.442,16.442,0,0,0-18.021,5.273" transform="translate(-1566.567 -1258.343)" fill="#90c6c0" stroke="#040000" stroke-miterlimit="10" stroke-width="0.25"/>
      <path id="Path_15699" data-name="Path 15699" d="M1601.769,1274.493s2.63,4.42-.011,10.617,4.18,9.6,9.452,9.529a10.256,10.256,0,0,0,5.389-13.008C1613.122,1273.609,1601.769,1274.493,1601.769,1274.493Z" transform="translate(-1557.815 -1274.464)" fill="#90c6c0" stroke="#040000" stroke-miterlimit="10" stroke-width="0.25"/>
      <path id="Path_15700" data-name="Path 15700" d="M1605.748,1279.373a11.584,11.584,0,0,1,3.652,9.268" transform="translate(-1556.017 -1272.536)" fill="none" stroke="#040000" stroke-miterlimit="10" stroke-width="0.25"/>
      <path id="Path_15701" data-name="Path 15701" d="M1597.589,1332.289s5.587-1.919,7.857,2.754c0,0,2.887-8.2,10.084-7.141" transform="translate(-1559.222 -1253.507)" fill="none" stroke="#040000" stroke-miterlimit="10" stroke-width="0.25"/>
      <path id="Path_15702" data-name="Path 15702" d="M1584.3,1336.386c-.272.027-.369-.4-.281-.632.624-.942,2.1-2.734,3.46-4.573,2.028-2.892,6.016-7.13,12.178-3.715s3.293,11.229-1.417,12.568C1593.413,1341.328,1587.3,1336.754,1584.3,1336.386Z" transform="translate(-1564.567 -1254.14)" fill="#90c6c0" stroke="#040000" stroke-miterlimit="10" stroke-width="0.25"/>
      <path id="Path_15703" data-name="Path 15703" d="M1589.128,1332.217a9.914,9.914,0,0,1,9.306-1.017" transform="translate(-1562.546 -1252.453)" fill="none" stroke="#040000" stroke-miterlimit="10" stroke-width="0.25"/>
      <path id="Path_15704" data-name="Path 15704" d="M1628.727,1318.524a15.16,15.16,0,0,1-4.966,13.958c-6.668,6.094-14.869,1.5-13.915-5.08s7.342-8.2,11.349-7.705A16.78,16.78,0,0,0,1628.727,1318.524Z" transform="translate(-1554.436 -1257.154)" fill="#90c6c0" stroke="#040000" stroke-miterlimit="10" stroke-width="0.25"/>
      <path id="Path_15705" data-name="Path 15705" d="M1621.375,1323.425s-4.429-1.439-8.162,3.161" transform="translate(-1553.084 -1255.312)" fill="#90c6c0" stroke="#040000" stroke-miterlimit="10" stroke-width="0.25"/>
      <path id="Path_15706" data-name="Path 15706" d="M1656.586,1279.968a29.2,29.2,0,0,0-1.468,15.433c1.509,8.708-6.091,27.817-24.118,22.863-20.673-5.577-18.12-27.936-5.733-34.587C1637.927,1277,1644.846,1282.541,1656.586,1279.968Z" transform="translate(-1552.104 -1272.302)" fill="#90c6c0" stroke="#040000" stroke-miterlimit="10" stroke-width="0.25"/>
      <path id="Path_15707" data-name="Path 15707" d="M1644.529,1285.928s-15.8-.166-23.938,14.54" transform="translate(-1550.185 -1269.96)" fill="#90c6c0" stroke="#040000" stroke-miterlimit="10" stroke-width="0.25"/>
    </g>
    <g id="Group_4123" data-name="Group 4123" transform="translate(1427.394 1184.172)">
      <g id="Group_4114" data-name="Group 4114" transform="translate(0 304.018)">
        <path id="Path_15708" data-name="Path 15708" d="M1428.7,1467.532c-9.2-16.559,31.943-68.739,68.57-64.892,36.46,3.846,96,49,91.817,64.892s-57.364,22.744-97.169,12.209C1451.948,1469.37,1438.568,1485.426,1428.7,1467.532Z" transform="translate(-1427.394 -1402.438)" fill="#b4c834" stroke="#000" stroke-miterlimit="10" stroke-width="0.25"/>
        <path id="Path_15709" data-name="Path 15709" d="M1466.522,1414.815c2.843,3.177-9.869,22.076-19.233,17.226C1438.09,1427.358,1462.173,1410.133,1466.522,1414.815Z" transform="translate(-1420.394 -1397.889)" fill="#fff" stroke="#040000" stroke-miterlimit="10" stroke-width="0.25"/>
        <path id="Path_15710" data-name="Path 15710" d="M1448.476,1432.143c2.509,1.84-5.018,17.06-10.036,12.544C1433.256,1440.339,1444.294,1429.133,1448.476,1432.143Z" transform="translate(-1423.589 -1390.967)" fill="#fff" stroke="#040000" stroke-miterlimit="10" stroke-width="0.25"/>
        <path id="Path_15711" data-name="Path 15711" d="M1458.454,1430.237c1.506,2.174-6.189,7.191-8.194,4.85C1448.419,1432.746,1456.781,1428.063,1458.454,1430.237Z" transform="translate(-1418.515 -1391.737)" fill="#fff" stroke="#040000" stroke-miterlimit="10" stroke-width="0.25"/>
      </g>
      <g id="Group_4117" data-name="Group 4117" transform="translate(177.447 229.495)">
        <g id="Group_4116" data-name="Group 4116">
          <g id="Group_4115" data-name="Group 4115">
            <path id="Path_15712" data-name="Path 15712" d="M1554.925,1409.277c2.174-13.38,29.269-55.024,50.509-58.536s38.3-3.012,49.839,11.707c11.707,14.717,21.574,22.41,29.6,32.613,8.194,10.034,9.366,28.766-9.366,31.442-18.564,2.676-42.48-3.847-68.571-4.85C1581.182,1420.817,1552.584,1424.329,1554.925,1409.277Z" transform="translate(-1554.79 -1348.936)" fill="#b4c834" stroke="#000" stroke-miterlimit="10" stroke-width="0.25"/>
            <path id="Path_15713" data-name="Path 15713" d="M1614.6,1358.2c3.01-1.5,8.195,7.694,4.85,10.036C1616.106,1370.747,1611.591,1359.708,1614.6,1358.2Z" transform="translate(-1531.68 -1345.36)" fill="#ffe7bd" stroke="#000" stroke-miterlimit="10" stroke-width="0.25"/>
            <path id="Path_15714" data-name="Path 15714" d="M1626.762,1365.748c2.007-1.339,14.717,11.54,11.039,15.722C1634.288,1385.483,1623.249,1368.09,1626.762,1365.748Z" transform="translate(-1526.782 -1342.368)" fill="#ffe7bd" stroke="#000" stroke-miterlimit="10" stroke-width="0.25"/>
            <path id="Path_15715" data-name="Path 15715" d="M1626.174,1380.053c.836-1.5,12.71,8.363,9.7,12.043C1632.863,1395.607,1624.167,1383.733,1626.174,1380.053Z" transform="translate(-1526.862 -1336.771)" fill="#ffe7bd" stroke="#000" stroke-miterlimit="10" stroke-width="0.25"/>
            <path id="Path_15716" data-name="Path 15716" d="M1645.663,1429.166c-.334-9.533,9.868-22.41,20.07-20.906,10.035,1.506,28.265,16.724,21.742,23.749C1681.119,1438.866,1646,1439.536,1645.663,1429.166Z" transform="translate(-1519.091 -1325.676)" fill="#b4c834" stroke="#000" stroke-miterlimit="10" stroke-width="0.25"/>
            <path id="Path_15717" data-name="Path 15717" d="M1661.243,1413.283c2.006-1.673,7.693,1.506,6.856,3.01C1667.1,1417.631,1659.236,1415.123,1661.243,1413.283Z" transform="translate(-1513.095 -1323.841)" fill="#ffe7bd" stroke="#000" stroke-miterlimit="10" stroke-width="0.25"/>
            <path id="Path_15718" data-name="Path 15718" d="M1668.867,1418.667c1-2.676,5.017,1.84,4.182,3.011C1672.044,1423.016,1668.032,1421.343,1668.867,1418.667Z" transform="translate(-1510.016 -1321.867)" fill="#ffe7bd" stroke="#000" stroke-miterlimit="10" stroke-width="0.25"/>
          </g>
        </g>
      </g>
      <g id="Group_4120" data-name="Group 4120" transform="translate(23.888)">
        <g id="Group_4119" data-name="Group 4119">
          <g id="Group_4118" data-name="Group 4118">
            <path id="Path_15719" data-name="Path 15719" d="M1477.081,1208.835c0-9.867,3.344-18.9,12.041-18.9s12.543,11.373,12.543,18.9c0,9.366-4.349,16.724-12.71,16.724C1483.6,1225.559,1477.081,1222.883,1477.081,1208.835Z" transform="translate(-1431.762 -1181.908)" fill="#fff" stroke="#040000" stroke-miterlimit="10" stroke-width="0.25"/>
            <path id="Path_15720" data-name="Path 15720" d="M1468.89,1317.729c.836,4.18-1.673,8.194-7.191,6.02-5.352-2.174-9.366,5.184-13.714.837-4.348-4.516.836-20.739,9.867-15.22C1462.367,1312.042,1467.718,1311.708,1468.89,1317.729Z" transform="translate(-1443.808 -1135.431)" fill="#fff" stroke="#040000" stroke-miterlimit="10" stroke-width="0.25"/>
            <path id="Path_15721" data-name="Path 15721" d="M1568.622,1313.434c-1,3.178-2.676,7.024,0,9.366s4.516-.334,6.189,0,.334,5.52,4.516,6.857c6.857,2.341,12.042-13.379,7.024-20.738C1581.333,1301.393,1569.458,1310.257,1568.622,1313.434Z" transform="translate(-1396.365 -1136.322)" fill="#fff" stroke="#040000" stroke-miterlimit="10" stroke-width="0.25"/>
            <path id="Path_15722" data-name="Path 15722" d="M1489.479,1414.11s-3.01,9.031-5.017,9.366c-2.174.334-12.376-3.513-12.543,3.511-.167,4.85,17.894,14.719,27.427,8.53,4.181-2.676,4.181-12.879,4.85-15.554C1504.7,1417.287,1489.479,1414.11,1489.479,1414.11Z" transform="translate(-1433.791 -1093.835)" fill="#fff" stroke="#040000" stroke-miterlimit="10" stroke-width="0.25"/>
            <path id="Path_15723" data-name="Path 15723" d="M1562.572,1374.488s7.191,6.856,8.194,9.7c1,3.01-1.84,7.024,2.174,8.529,5.854,2.342,14.049-10.2,7.526-18.4-3.01-3.511-9.2-10.369-12.543-9.03C1564.411,1366.961,1562.572,1374.488,1562.572,1374.488Z" transform="translate(-1398.174 -1113.083)" fill="#fff" stroke="#040000" stroke-miterlimit="10" stroke-width="0.25"/>
            <path id="Path_15724" data-name="Path 15724" d="M1561.741,1335.1s20.068,15.72,23.581,25.756c3.344,10.034-.336,21.741-5.353,30.439s-13.379,17.226-19.233,19.233S1540,1401.5,1540,1401.5Z" transform="translate(-1407.043 -1124.875)" fill="#f98a10" stroke="#000" stroke-miterlimit="10" stroke-width="0.25"/>
            <path id="Path_15725" data-name="Path 15725" d="M1476.824,1285.577c.5,2.342,10.536,23.247,11.206,34.954.5,11.707,9.867,44.487,9.867,44.487s-29.269,54.356-31.107,69.742c-1.673,15.22,13.713,36.794,37.964,41.31s54.187,3.344,64.054-19.736,26.927-96.667,22.411-139.482-6.857-36.627-30.439-34.787C1537.033,1283.737,1476.824,1285.577,1476.824,1285.577Z" transform="translate(-1435.854 -1146.262)" fill="#f98a10" stroke="#000" stroke-miterlimit="10" stroke-width="0.25"/>
            <path id="Path_15726" data-name="Path 15726" d="M1505.692,1310.968s-7.693,24.92-16.724,42.146" transform="translate(-1427.092 -1134.357)" fill="none" stroke="#221714" stroke-linecap="round" stroke-linejoin="round" stroke-width="0.25"/>
            <path id="Path_15727" data-name="Path 15727" d="M1543.254,1297.88s-7.694,48.669-20.906,71.08" transform="translate(-1413.978 -1139.499)" fill="none" stroke="#221714" stroke-linecap="round" stroke-linejoin="round" stroke-width="0.25"/>
            <path id="Path_15728" data-name="Path 15728" d="M1473.839,1371.6s45.657,33.45,96.834,31.777" transform="translate(-1433.036 -1110.534)" fill="none" stroke="#221714" stroke-linecap="round" stroke-linejoin="round" stroke-width="0.25"/>
            <circle id="Ellipse_2822" data-name="Ellipse 2822" cx="3.847" cy="3.847" r="3.847" transform="translate(98.837 298.7)" fill="#b4c834" stroke="#000" stroke-miterlimit="10" stroke-width="0.25"/>
            <circle id="Ellipse_2823" data-name="Ellipse 2823" cx="3.847" cy="3.847" r="3.847" transform="translate(91.311 314.422)" fill="#b4c834" stroke="#000" stroke-miterlimit="10" stroke-width="0.25"/>
            <path id="Path_15729" data-name="Path 15729" d="M1548.884,1308.807s3.01,21.741,0,33.114" transform="translate(-1403.552 -1135.206)" fill="none" stroke="#221714" stroke-linecap="round" stroke-linejoin="round" stroke-width="0.25"/>
            <path id="Path_15730" data-name="Path 15730" d="M1542.335,1336.663s-7.191,34.787-12.543,42.983" transform="translate(-1411.053 -1124.262)" fill="none" stroke="#221714" stroke-linecap="round" stroke-linejoin="round" stroke-width="0.25"/>
            <path id="Path_15731" data-name="Path 15731" d="M1544.428,1364.64s-1.172,12.711-7.191,22.913" transform="translate(-1408.128 -1113.27)" fill="none" stroke="#221714" stroke-linecap="round" stroke-linejoin="round" stroke-width="0.25"/>
            <path id="Path_15732" data-name="Path 15732" d="M1523.832,1358.036s-4.85,17.394-15.052,28.264" transform="translate(-1419.308 -1115.865)" fill="none" stroke="#221714" stroke-linecap="round" stroke-linejoin="round" stroke-width="0.25"/>
            <path id="Path_15733" data-name="Path 15733" d="M1500.949,1364.64a29.705,29.705,0,0,1-5.017,9.533" transform="translate(-1424.356 -1113.27)" fill="none" stroke="#221714" stroke-linecap="round" stroke-linejoin="round" stroke-width="0.25"/>
            <path id="Path_15734" data-name="Path 15734" d="M1516.589,1333.542s-2.676,15.386-13.213,34.117" transform="translate(-1421.431 -1125.488)" fill="none" stroke="#221714" stroke-linecap="round" stroke-linejoin="round" stroke-width="0.25"/>
            <path id="Path_15735" data-name="Path 15735" d="M1524.99,1302.8s-1.673,19.736-9.366,33.784" transform="translate(-1416.619 -1137.565)" fill="none" stroke="#221714" stroke-linecap="round" stroke-linejoin="round" stroke-width="0.25"/>
            <path id="Path_15736" data-name="Path 15736" d="M1516.966,1306.646s-1.673,24.083-19.233,50.34" transform="translate(-1423.648 -1136.055)" fill="none" stroke="#221714" stroke-linecap="round" stroke-linejoin="round" stroke-width="0.25"/>
            <path id="Path_15737" data-name="Path 15737" d="M1496.069,1353.474s-4.85,14.717-10.7,20.57" transform="translate(-1428.507 -1117.657)" fill="none" stroke="#221714" stroke-linecap="round" stroke-linejoin="round" stroke-width="0.25"/>
            <path id="Path_15738" data-name="Path 15738" d="M1489.481,1300.882a114.921,114.921,0,0,0,0,29.6" transform="translate(-1427.27 -1138.32)" fill="none" stroke="#221714" stroke-linecap="round" stroke-linejoin="round" stroke-width="0.25"/>
            <path id="Path_15739" data-name="Path 15739" d="M1493.26,1306.646s-1.673,11.037,0,16.054" transform="translate(-1425.698 -1136.055)" fill="none" stroke="#221714" stroke-linecap="round" stroke-linejoin="round" stroke-width="0.25"/>
            <path id="Path_15740" data-name="Path 15740" d="M1496.553,1345.611c-8.7,15.554-25.086,15.554-40.975,4.85s-15.053-27.763,5.352-70.243c19.9-41.31,52.349-63.386,64.724-63.386s24.083.167,53.519,17.729c29.6,17.56,54.354,56.529,59.538,80.277,5.019,23.916,2.342,31.441-15.553,35.456-12.878,3.01-19.233,2.174-23.916-4.516-8.2-12.041-15.554-38.8-15.554-38.8s-5.687,18.564-49,16.724c-37.63-1.673-39.136-8.2-39.136-8.2Z" transform="translate(-1444.545 -1171.341)" fill="#fae3bb" stroke="#040000" stroke-linejoin="round" stroke-width="0.25"/>
            <path id="Path_15741" data-name="Path 15741" d="M1481.792,1243.608s-6.189,53.017.334,61.546" transform="translate(-1430.954 -1160.822)" fill="none" stroke="#221714" stroke-linecap="round" stroke-miterlimit="10" stroke-width="0.25"/>
            <path id="Path_15742" data-name="Path 15742" d="M1551.118,1297.071s-8.363-37.3-23.247-55.024" transform="translate(-1411.808 -1161.435)" fill="none" stroke="#221714" stroke-linecap="round" stroke-linejoin="round" stroke-width="0.25"/>
            <circle id="Ellipse_2824" data-name="Ellipse 2824" cx="2.509" cy="2.509" r="2.509" transform="translate(79.604 73.588)" fill="#b4c834" stroke="#000" stroke-miterlimit="10" stroke-width="0.25"/>
            <circle id="Ellipse_2825" data-name="Ellipse 2825" cx="2.509" cy="2.509" r="2.509" transform="translate(79.604 86.299)" fill="#b4c834" stroke="#000" stroke-miterlimit="10" stroke-width="0.25"/>
            <path id="Path_15743" data-name="Path 15743" d="M1519.536,1243.241s2.843-21.576-14.719-25.087C1504.984,1217.986,1503.814,1233.539,1519.536,1243.241Z" transform="translate(-1420.865 -1170.823)" fill="#b4c834" stroke="#000" stroke-miterlimit="10" stroke-width="0.25"/>
            <path id="Path_15744" data-name="Path 15744" d="M1489.688,1241.833s-.334-21.742,18.564-23.08C1508.587,1218.92,1507.584,1234.475,1489.688,1241.833Z" transform="translate(-1426.809 -1170.586)" fill="#b4c834" stroke="#000" stroke-miterlimit="10" stroke-width="0.25"/>
            <circle id="Ellipse_2826" data-name="Ellipse 2826" cx="4.516" cy="4.516" r="4.516" transform="translate(77.263 47.163)" fill="#f98a10" stroke="#000" stroke-miterlimit="10" stroke-width="0.25"/>
            <circle id="Ellipse_2827" data-name="Ellipse 2827" cx="24.752" cy="24.752" r="24.752" transform="translate(58.364)" fill="#fff" stroke="#040000" stroke-miterlimit="10" stroke-width="0.25"/>
            <path id="Path_15745" data-name="Path 15745" d="M1518.025,1208.835c0-9.867,3.346-18.9,12.041-18.9s12.544,11.373,12.544,18.9c0,9.366-4.349,16.724-12.712,16.724C1524.715,1225.559,1518.025,1222.883,1518.025,1208.835Z" transform="translate(-1415.676 -1181.908)" fill="#fff" stroke="#040000" stroke-miterlimit="10" stroke-width="0.25"/>
            <ellipse id="Ellipse_2828" data-name="Ellipse 2828" cx="1.505" cy="3.01" rx="1.505" ry="3.01" transform="translate(71.576 27.094)" fill="#221714"/>
            <ellipse id="Ellipse_2829" data-name="Ellipse 2829" cx="1.505" cy="3.01" rx="1.505" ry="3.01" transform="translate(80.273 27.094)" fill="#221714"/>
          </g>
        </g>
      </g>
      <g id="Group_4122" data-name="Group 4122" transform="translate(237.077 211.672)">
        <g id="Group_4121" data-name="Group 4121" transform="translate(0 45.796)">
          <path id="Path_15746" data-name="Path 15746" d="M1629.16,1398.355c-2.288,12.175-9.835,16.76-13.5,18.3,3.4-15.8,6.864-30.721,9.689-40.483C1627.483,1379,1631.454,1386.155,1629.16,1398.355Z" transform="translate(-1590.507 -1366.206)" fill="#f98a10" stroke="#000" stroke-miterlimit="10" stroke-width="0.25"/>
          <path id="Path_15747" data-name="Path 15747" d="M1650.934,1421.554c2.357,23.434,1.227,31.085,5.73,31.716,5.083.713,18.718-18.226,26.1-40.449a1.218,1.218,0,0,1,2.377.28c.439,6.9-.359,20.359-8.715,40.221-12.734,30.263-40.32,28.707-40.32,28.707s-3.159.28-7.686.565C1627.966,1436.636,1643.949,1424.6,1650.934,1421.554Z" transform="translate(-1585.496 -1352.143)" fill="#f98a10" stroke="#000" stroke-miterlimit="10" stroke-width="0.25"/>
          <path id="Path_15748" data-name="Path 15748" d="M1608.48,1490.927s7.006-37.725,14.271-71.458c3.668-1.542,11.214-6.127,13.5-18.3,2.294-12.2-1.677-19.357-3.813-22.18,1.025-3.541,2.648-7.992,3.471-9.969l14.225.947s5.6,13.8,10.8,51.046c.923,6.6,1.589,12.369,2.1,17.417-6.985,3.045-22.969,15.082-22.515,61.04-11.436.72-31.62,1.467-31.776-2.206,0,0-11.034.351-11.146-2.247C1597.437,1491.094,1608.48,1490.927,1608.48,1490.927Z" transform="translate(-1597.601 -1369.018)" fill="#f7b42f" stroke="#000" stroke-miterlimit="10" stroke-width="0.25"/>
        </g>
        <path id="Path_15749" data-name="Path 15749" d="M1626.928,1337.251c-2.844.121-5.364,28.9-5.364,28.9l12.264-.521S1630.564,1337.1,1626.928,1337.251Z" transform="translate(-1588.186 -1335.703)" fill="#f7b42f" stroke="#000" stroke-miterlimit="10" stroke-width="0.25"/>
        <path id="Path_15750" data-name="Path 15750" d="M1643.382,1420.821s-30.043-5.147-27.84,51.431c0,0-10.4-.741-9.934,4.705" transform="translate(-1594.461 -1302.917)" fill="none" stroke="#000" stroke-miterlimit="10" stroke-width="0.25"/>
        <path id="Path_15751" data-name="Path 15751" d="M1642.455,1336.14c-2.765.117-4.446,17.911-4.913,23.591a2.391,2.391,0,0,1-1.922,2.024c-2.006.561-4.794.414-8.786.148-8.111-.543-16.794-.22-16.65,3.134.188,4.436,14.11,20.206,27.748,19.627,13.292-.564,15.291-8.961,12.729-21.58C1648.346,1351.674,1645.745,1336,1642.455,1336.14Z" transform="translate(-1592.658 -1336.139)" fill="#f7b42f" stroke="#000" stroke-miterlimit="10" stroke-width="0.25"/>
        <circle id="Ellipse_2830" data-name="Ellipse 2830" cx="1.573" cy="1.573" r="1.573" transform="translate(41.435 30.687)"/>
        <circle id="Ellipse_2831" data-name="Ellipse 2831" cx="2.696" cy="2.696" r="2.696" transform="translate(14.787 25.222)" fill="#f98a10" stroke="#000" stroke-miterlimit="10" stroke-width="0.25"/>
      </g>
    </g>
  </g>
</svg>
