<svg xmlns="http://www.w3.org/2000/svg" width="417.362" height="430.251" viewBox="0 0 417.362 430.251">
  <g id="Group_3286" data-name="Group 3286" transform="translate(-124.541 -172.381)">
    <g id="Group_3271" data-name="Group 3271" transform="translate(353.384 438.771)">
      <path id="Path_10652" data-name="Path 10652" d="M430.871,439.289S422.945,458.368,401.2,454.1s-35.041-12.1-48.564.54-11.512,18.627-22.748,17.519-23.71-4.437-24.81-10.444,21.564-11.923,22.718-31.5-15.926-30.224-28.3-36.485-27.438-17.687-30.86-30.628l17.91-4.284s3.561,10.356,12.205,9.729,12.413-24.47,12.413-24.47l19.689,3.535s-5.042,22.887-1.688,36.56,7.073,28.861,19.244,24.51-9.429-19.7-4.586-45.585l23.627,4.241s-4.733,21.042,5.039,31.326,22.2,2.714,18.758-8.432S379.538,373.742,386.8,343.3l21.152,3.8s-6.067,19.266.291,25.308,13.654.79,17.724-7.723,4.656-20.9,4.656-20.9l24.047,4.316s-2.368,24.589-21.549,43.474-37.3,23.746-40.635,35.246,11.361,9.135,17.85,2Z" transform="translate(-267.536 -336.871)" fill="#fbc6a6" stroke="#000" stroke-linejoin="round" stroke-width="0.25"/>
      <ellipse id="Ellipse_1769" data-name="Ellipse 1769" cx="3.377" cy="11.525" rx="3.377" ry="11.525" transform="translate(141.264 94.962) rotate(-62.998)" fill="#ff6c5c" stroke="#000" stroke-linejoin="round" stroke-width="0.25"/>
      <ellipse id="Ellipse_1770" data-name="Ellipse 1770" cx="2.135" cy="3.179" rx="2.135" ry="3.179" transform="matrix(0.177, -0.984, 0.984, 0.177, 137.197, 45.787)" fill="#ffeed6" stroke="#000" stroke-linejoin="round" stroke-width="0.25"/>
      <ellipse id="Ellipse_1771" data-name="Ellipse 1771" cx="1.993" cy="4.034" rx="1.993" ry="4.034" transform="translate(120.36 25.262) rotate(-4.086)" fill="#ffeed6" stroke="#000" stroke-linejoin="round" stroke-width="0.25"/>
      <ellipse id="Ellipse_1772" data-name="Ellipse 1772" cx="2.583" cy="1.696" rx="2.583" ry="1.696" transform="matrix(0.177, -0.984, 0.984, 0.177, 124.799, 21.779)" fill="#ffeed6" stroke="#000" stroke-linejoin="round" stroke-width="0.25"/>
      <ellipse id="Ellipse_1773" data-name="Ellipse 1773" cx="2.041" cy="1.279" rx="2.041" ry="1.279" transform="matrix(0.177, -0.984, 0.984, 0.177, 175.777, 27.516)" fill="#ffeed6" stroke="#000" stroke-linejoin="round" stroke-width="0.25"/>
      <ellipse id="Ellipse_1774" data-name="Ellipse 1774" cx="3.355" cy="1.736" rx="3.355" ry="1.736" transform="translate(166.851 36.368) rotate(-61.81)" fill="#ffeed6" stroke="#000" stroke-linejoin="round" stroke-width="0.25"/>
      <ellipse id="Ellipse_1775" data-name="Ellipse 1775" cx="5.437" cy="2.175" rx="5.437" ry="2.175" transform="matrix(0.645, -0.764, 0.764, 0.645, 118.681, 84.053)" fill="#ffeed6" stroke="#000" stroke-linejoin="round" stroke-width="0.25"/>
      <ellipse id="Ellipse_1776" data-name="Ellipse 1776" cx="2.111" cy="4.606" rx="2.111" ry="4.606" transform="matrix(0.177, -0.984, 0.984, 0.177, 129.784, 112.847)" fill="#ffeed6" stroke="#000" stroke-linejoin="round" stroke-width="0.25"/>
      <ellipse id="Ellipse_1777" data-name="Ellipse 1777" cx="2.431" cy="1.983" rx="2.431" ry="1.983" transform="matrix(0.715, -0.699, 0.699, 0.715, 145.375, 109.73)" fill="#ffeed6" stroke="#000" stroke-linejoin="round" stroke-width="0.25"/>
      <ellipse id="Ellipse_1778" data-name="Ellipse 1778" cx="3.471" cy="2.047" rx="3.471" ry="2.047" transform="matrix(0.177, -0.984, 0.984, 0.177, 83.321, 45.105)" fill="#ffeed6" stroke="#000" stroke-linejoin="round" stroke-width="0.25"/>
      <ellipse id="Ellipse_1779" data-name="Ellipse 1779" cx="5.437" cy="2.903" rx="5.437" ry="2.903" transform="matrix(0.177, -0.984, 0.984, 0.177, 50.74, 29.378)" fill="#ffeed6" stroke="#000" stroke-linejoin="round" stroke-width="0.25"/>
      <ellipse id="Ellipse_1780" data-name="Ellipse 1780" cx="1.771" cy="2.759" rx="1.771" ry="2.759" transform="translate(51.785 36.448) rotate(-4.086)" fill="#ffeed6" stroke="#000" stroke-linejoin="round" stroke-width="0.25"/>
      <ellipse id="Ellipse_1781" data-name="Ellipse 1781" cx="1.727" cy="2.623" rx="1.727" ry="2.623" transform="matrix(0.177, -0.984, 0.984, 0.177, 25.56, 46.826)" fill="#ffeed6" stroke="#000" stroke-linejoin="round" stroke-width="0.25"/>
      <ellipse id="Ellipse_1782" data-name="Ellipse 1782" cx="2.239" cy="4.733" rx="2.239" ry="4.733" transform="matrix(0.645, -0.764, 0.764, 0.645, 12.931, 35.351)" fill="#ffeed6" stroke="#000" stroke-linejoin="round" stroke-width="0.25"/>
      <ellipse id="Ellipse_1783" data-name="Ellipse 1783" cx="7.028" cy="12.216" rx="7.028" ry="12.216" transform="matrix(0.177, -0.984, 0.984, 0.177, 161.843, 13.834)" fill="#ff6c5c" stroke="#000" stroke-linejoin="round" stroke-width="0.25"/>
      <ellipse id="Ellipse_1784" data-name="Ellipse 1784" cx="4.269" cy="10.745" rx="4.269" ry="10.745" transform="matrix(0.177, -0.984, 0.984, 0.177, 118.509, 10.635)" fill="#ff6c5c" stroke="#000" stroke-linejoin="round" stroke-width="0.25"/>
      <ellipse id="Ellipse_1785" data-name="Ellipse 1785" cx="5.824" cy="12.002" rx="5.824" ry="12.002" transform="matrix(0.177, -0.984, 0.984, 0.177, 75.258, 31.96)" fill="#ff6c5c" stroke="#000" stroke-linejoin="round" stroke-width="0.25"/>
      <ellipse id="Ellipse_1786" data-name="Ellipse 1786" cx="4.439" cy="10.002" rx="4.439" ry="10.002" transform="matrix(0.177, -0.984, 0.984, 0.177, 42.843, 11.578)" fill="#ff6c5c" stroke="#000" stroke-linejoin="round" stroke-width="0.25"/>
      <ellipse id="Ellipse_1787" data-name="Ellipse 1787" cx="9.208" cy="4.724" rx="9.208" ry="4.724" transform="translate(0 21.638) rotate(-13.453)" fill="#ff6c5c" stroke="#000" stroke-linejoin="round" stroke-width="0.25"/>
    </g>
    <g id="Group_3280" data-name="Group 3280" transform="translate(124.768 172.535)">
      <g id="Group_3272" data-name="Group 3272" transform="translate(161.265)">
        <circle id="Ellipse_1788" data-name="Ellipse 1788" cx="26.467" cy="26.467" r="26.467" transform="translate(20.183 42.941)" fill="#fff" stroke="#000" stroke-linejoin="round" stroke-width="0.25"/>
        <ellipse id="Ellipse_1789" data-name="Ellipse 1789" cx="1.462" cy="3.157" rx="1.462" ry="3.157" transform="translate(40.036 58.408)"/>
        <ellipse id="Ellipse_1790" data-name="Ellipse 1790" cx="1.462" cy="3.157" rx="1.462" ry="3.157" transform="translate(50.341 58.408)"/>
        <path id="Path_10653" data-name="Path 10653" d="M294.884,201.865a13.183,13.183,0,0,0-23.079-12.028,30.406,30.406,0,0,0-1.994-5.775c-3.663-7.971-9.823-12.967-13.762-11.156-1.835.842-2.852,3.021-3.058,5.9a20.4,20.4,0,0,0-12.807.086c-11.578,3.966-17.364,17.692-12.922,30.657s17.43,20.256,29.007,16.29a20.491,20.491,0,0,0,10.674-8.565,10.989,10.989,0,0,0,18.241,4.736,12.307,12.307,0,1,0,9.7-20.147Z" transform="translate(-225.766 -172.535)" fill="#006781" stroke="#000" stroke-linejoin="round" stroke-width="0.25"/>
        <path id="Path_10654" data-name="Path 10654" d="M239.869,256.489l-9.294-25.131s39.934-28.228,77.457,0l-9,24.9" transform="translate(-222.897 -144.92)" fill="#bad5dd" stroke="#000" stroke-linejoin="round" stroke-width="0.25"/>
        <circle id="Ellipse_1791" data-name="Ellipse 1791" cx="3.57" cy="3.57" r="3.57" transform="translate(42.837 81.469)" fill="#ffeed6" stroke="#000" stroke-linejoin="round" stroke-width="0.25"/>
        <circle id="Ellipse_1792" data-name="Ellipse 1792" cx="4.2" cy="4.2" r="4.2" transform="translate(42.207 93.378)" fill="#ffeed6" stroke="#000" stroke-linejoin="round" stroke-width="0.25"/>
        <path id="Path_10655" data-name="Path 10655" d="M242.817,176.464s5.549,2.5,7.567,7.249" transform="translate(-215.592 -170.19)" fill="none" stroke="#000" stroke-linejoin="round" stroke-width="0.25"/>
        <path id="Path_10656" data-name="Path 10656" d="M253.243,187.966a11.378,11.378,0,0,1,2.167-4.6" transform="translate(-209.37 -166.069)" fill="none" stroke="#000" stroke-linejoin="round" stroke-width="0.25"/>
        <path id="Path_10657" data-name="Path 10657" d="M251.2,197.2a21.084,21.084,0,0,0,.572,5.354" transform="translate(-210.593 -157.815)" fill="none" stroke="#000" stroke-linejoin="round" stroke-width="0.25"/>
      </g>
      <g id="Group_3274" data-name="Group 3274" transform="translate(111.368 324.817)">
        <path id="Path_10658" data-name="Path 10658" d="M220.118,376.49s10.854,21.064,10.466,39.163h36.95V390.206S249.456,372.743,220.118,376.49Z" transform="translate(-179.239 -375.963)" fill="#006781" stroke="#000" stroke-linejoin="round" stroke-width="0.25"/>
        <g id="Group_3273" data-name="Group 3273" transform="translate(2.754 34.837)">
          <path id="Path_10659" data-name="Path 10659" d="M273.144,397.781s-25.64.209-37.75,0a66.878,66.878,0,0,0-24.677,6.171c5.731,2.714,20.687,11.164,26.315,27.455,11.166-.637,23.476-1.643,36.111-3.214C273.144,428.194,274.38,411.518,273.144,397.781Z" transform="translate(-187.603 -397.781)" fill="#ffeed6" stroke="#000" stroke-linejoin="round" stroke-width="0.25"/>
          <path id="Path_10660" data-name="Path 10660" d="M219.355,401.646c-9.941,4.779-19.834,13.25-23.114,28.291,0,0,21,.782,49.429-.835C240.042,412.81,225.086,404.36,219.355,401.646Z" transform="translate(-196.241 -395.475)" fill="#fff" stroke="#000" stroke-linejoin="round" stroke-width="0.25"/>
        </g>
        <path id="Path_10661" data-name="Path 10661" d="M197.27,420.877s-4.835,4.038-1.693,13.031c5.745.723,18.418.744,29.1.064,14.153-.9,32.178-1.38,43.5-2.62,9.9-1.086,16.595-.7,14.634-14.524Z" transform="translate(-194.516 -351.578)" fill="#006781" stroke="#000" stroke-linejoin="round" stroke-width="0.25"/>
        <path id="Path_10662" data-name="Path 10662" d="M226.916,387.885a23.649,23.649,0,0,1,3.974,11.072" transform="translate(-175.183 -368.849)" fill="none" stroke="#000" stroke-linejoin="round" stroke-width="0.25"/>
        <path id="Path_10663" data-name="Path 10663" d="M231.183,388.477s2.366,5.312,2.082,10.126" transform="translate(-172.637 -368.496)" fill="none" stroke="#000" stroke-linejoin="round" stroke-width="0.25"/>
        <path id="Path_10664" data-name="Path 10664" d="M235.687,389.485a24.522,24.522,0,0,1,.851,8.517" transform="translate(-169.949 -367.894)" fill="none" stroke="#000" stroke-linejoin="round" stroke-width="0.25"/>
        <path id="Path_10665" data-name="Path 10665" d="M241.526,389.485a42.739,42.739,0,0,0-.283,8.517" transform="translate(-166.704 -367.894)" fill="none" stroke="#000" stroke-linejoin="round" stroke-width="0.25"/>
        <path id="Path_10666" data-name="Path 10666" d="M246.927,389.485A20.643,20.643,0,0,0,245.411,398" transform="translate(-164.155 -367.894)" fill="none" stroke="#000" stroke-linejoin="round" stroke-width="0.25"/>
      </g>
      <g id="Group_3276" data-name="Group 3276" transform="translate(215.133 324.784)">
        <path id="Path_10667" data-name="Path 10667" d="M307.322,376.468s-11.359,24.079-10.525,39.2h-36.95V390.218S277.984,372.723,307.322,376.468Z" transform="translate(-259.297 -375.943)" fill="#006781" stroke="#000" stroke-linejoin="round" stroke-width="0.25"/>
        <g id="Group_3275" data-name="Group 3275" transform="translate(0 34.87)">
          <path id="Path_10668" data-name="Path 10668" d="M331.635,430.138c-3.406-15.619-13.943-24.157-24.259-28.829-5.089,2.119-17.958,9.167-24.482,28.03C310.966,430.906,331.635,430.138,331.635,430.138Z" transform="translate(-245.545 -395.676)" fill="#fff" stroke="#000" stroke-linejoin="round" stroke-width="0.25"/>
          <path id="Path_10669" data-name="Path 10669" d="M321.334,403.414a67.048,67.048,0,0,0-23.534-5.633c-12.11.209-37.748,0-37.748,0-1.237,13.737,0,30.413,0,30.413,12.9,1.6,25.45,2.617,36.8,3.251C303.376,412.581,316.246,405.533,321.334,403.414Z" transform="translate(-259.503 -397.781)" fill="#ffeed6" stroke="#000" stroke-linejoin="round" stroke-width="0.25"/>
        </g>
        <path id="Path_10670" data-name="Path 10670" d="M345.515,420.877s4.833,4.038,1.691,13.031c-5.745.723-18.418.744-29.1.064-14.152-.9-32.179-1.38-43.495-2.62-9.9-1.086-16.595-.7-14.634-14.524Z" transform="translate(-259.425 -351.546)" fill="#006781" stroke="#000" stroke-linejoin="round" stroke-width="0.25"/>
        <path id="Path_10671" data-name="Path 10671" d="M284.231,387.885a23.64,23.64,0,0,0-3.976,11.072" transform="translate(-247.119 -368.816)" fill="none" stroke="#000" stroke-linejoin="round" stroke-width="0.25"/>
        <path id="Path_10672" data-name="Path 10672" d="M279.265,388.477s-2.366,5.312-2.082,10.126" transform="translate(-248.967 -368.463)" fill="none" stroke="#000" stroke-linejoin="round" stroke-width="0.25"/>
        <path id="Path_10673" data-name="Path 10673" d="M274.308,389.485a24.521,24.521,0,0,0-.851,8.517" transform="translate(-251.203 -367.862)" fill="none" stroke="#000" stroke-linejoin="round" stroke-width="0.25"/>
        <path id="Path_10674" data-name="Path 10674" d="M268.284,389.485a42.81,42.81,0,0,1,.284,8.517" transform="translate(-254.262 -367.862)" fill="none" stroke="#000" stroke-linejoin="round" stroke-width="0.25"/>
        <path id="Path_10675" data-name="Path 10675" d="M263.306,389.485A20.66,20.66,0,0,1,264.82,398" transform="translate(-257.233 -367.862)" fill="none" stroke="#000" stroke-linejoin="round" stroke-width="0.25"/>
      </g>
      <path id="Path_10676" data-name="Path 10676" d="M403.776,303.4a120.324,120.324,0,0,0-46.749-49.473c-14.728-8.563-32.407-14.731-57.718-14.731a112.89,112.89,0,0,0-44.922,9.021,120.339,120.339,0,0,0-62.3,60.9c-7.833,17.23-13.577,38.839-11.3,63.235,18.774,67.9,55.721,97.687,118.515,99.467,62.794-1.78,96.3-28.192,118.514-99.467C420.364,345.176,412.947,321.458,403.776,303.4Z" transform="translate(-91.637 -132.759)" fill="#ffeed6" stroke="#000" stroke-linejoin="round" stroke-width="0.25"/>
      <g id="Group_3277" data-name="Group 3277" transform="translate(229.904 222.326)">
        <path id="Path_10677" data-name="Path 10677" d="M272.894,336.3s-1.491,17.158-1.119,34.13,13.242,23.125,26.67,16.6,31.422-28.706,24.848-62.935Z" transform="translate(-266.986 -304.421)" fill="#bad5dd" stroke="#000" stroke-linejoin="round" stroke-width="0.25"/>
        <path id="Path_10678" data-name="Path 10678" d="M279.811,342.022s.374,7.832,5.969,11.375" transform="translate(-262.155 -293.725)" fill="none" stroke="#000" stroke-linejoin="round" stroke-width="0.25"/>
        <path id="Path_10679" data-name="Path 10679" d="M300.741,337.7s2.684,18.463-10.184,30.4" transform="translate(-255.743 -296.304)" fill="none" stroke="#000" stroke-linejoin="round" stroke-width="0.25"/>
        <path id="Path_10680" data-name="Path 10680" d="M269.253,339.743c-2.659-12.625,5.221-19.582,25.549-25.364s28.72-1.276,31.517,7.008-3.356,17.8-25.362,24.51S270.744,346.83,269.253,339.743Z" transform="translate(-268.753 -311.774)" fill="#006781" stroke="#000" stroke-linejoin="round" stroke-width="0.25"/>
        <circle id="Ellipse_1793" data-name="Ellipse 1793" cx="2.642" cy="2.642" r="2.642" transform="translate(42.356 5.185)" fill="#ffeed6" stroke="#000" stroke-linejoin="round" stroke-width="0.25"/>
        <circle id="Ellipse_1794" data-name="Ellipse 1794" cx="2.642" cy="2.642" r="2.642" transform="translate(43.351 15.048)" fill="#ffeed6" stroke="#000" stroke-linejoin="round" stroke-width="0.25"/>
      </g>
      <g id="Group_3278" data-name="Group 3278" transform="translate(136.871 222.326)">
        <path id="Path_10681" data-name="Path 10681" d="M262.6,336.3s1.491,17.158,1.118,34.13-13.24,23.125-26.668,16.6S205.623,358.327,212.2,324.1Z" transform="translate(-210.304 -304.421)" fill="#bad5dd" stroke="#000" stroke-linejoin="round" stroke-width="0.25"/>
        <path id="Path_10682" data-name="Path 10682" d="M238.109,342.022s-.372,7.832-5.967,11.375" transform="translate(-197.568 -293.725)" fill="none" stroke="#000" stroke-linejoin="round" stroke-width="0.25"/>
        <path id="Path_10683" data-name="Path 10683" d="M218.843,337.7s-2.684,18.463,10.184,30.4" transform="translate(-205.642 -296.304)" fill="none" stroke="#000" stroke-linejoin="round" stroke-width="0.25"/>
        <path id="Path_10684" data-name="Path 10684" d="M268.188,339.743c2.657-12.625-5.223-19.582-25.551-25.364s-28.72-1.276-31.518,7.008,3.358,17.8,25.364,24.51S266.7,346.83,268.188,339.743Z" transform="translate(-210.489 -311.774)" fill="#006781" stroke="#000" stroke-linejoin="round" stroke-width="0.25"/>
        <circle id="Ellipse_1795" data-name="Ellipse 1795" cx="2.642" cy="2.642" r="2.642" transform="translate(10.559 5.185)" fill="#ffeed6" stroke="#000" stroke-linejoin="round" stroke-width="0.25"/>
        <circle id="Ellipse_1796" data-name="Ellipse 1796" cx="2.642" cy="2.642" r="2.642" transform="translate(9.565 15.048)" fill="#ffeed6" stroke="#000" stroke-linejoin="round" stroke-width="0.25"/>
      </g>
      <g id="Group_3279" data-name="Group 3279" transform="translate(0 177.592)">
        <path id="Path_10685" data-name="Path 10685" d="M127,378.939c-7.247-18.579,3.553-39.147,26.4-47.229,17.2-6.085,107.3-35.605,133.166-43.744s46.356-4.683,52.262,12.207-3.435,35.75-26.1,45.633S205.383,390.744,172.634,397.9C149.076,403.047,132.766,393.715,127,378.939Z" transform="translate(-124.768 -283.758)" fill="#ff6c5c" stroke="#000" stroke-linejoin="round" stroke-width="0.25"/>
        <path id="Path_10686" data-name="Path 10686" d="M156.391,326.23l5.7,22.062,6.143-1.755-5.92-22.353Z" transform="translate(-105.898 -259.636)" fill="#bad5dd" stroke="#000" stroke-linejoin="round" stroke-width="0.25"/>
        <path id="Path_10687" data-name="Path 10687" d="M227.9,301.41l5.4,20.926,5.827-1.665-5.615-21.2Z" transform="translate(-63.227 -274.384)" fill="#bad5dd" stroke="#000" stroke-linejoin="round" stroke-width="0.25"/>
        <ellipse id="Ellipse_1797" data-name="Ellipse 1797" cx="14.105" cy="8.901" rx="14.105" ry="8.901" transform="translate(35.238 54.022) rotate(-13.677)" fill="#fbc6a6" stroke="#000" stroke-linejoin="round" stroke-width="0.25"/>
        <ellipse id="Ellipse_1798" data-name="Ellipse 1798" cx="14.105" cy="8.901" rx="14.105" ry="8.901" transform="translate(45.176 90.084) rotate(-13.677)" fill="#fbc6a6" stroke="#000" stroke-linejoin="round" stroke-width="0.25"/>
        <ellipse id="Ellipse_1799" data-name="Ellipse 1799" cx="13.379" cy="8.443" rx="13.379" ry="8.443" transform="translate(150.205 15.102) rotate(-13.677)" fill="#fbc6a6" stroke="#000" stroke-linejoin="round" stroke-width="0.25"/>
        <ellipse id="Ellipse_1800" data-name="Ellipse 1800" cx="13.379" cy="8.443" rx="13.379" ry="8.443" transform="translate(159.632 49.307) rotate(-13.677)" fill="#fbc6a6" stroke="#000" stroke-linejoin="round" stroke-width="0.25"/>
        <path id="Path_10688" data-name="Path 10688" d="M153.246,320.973a13,13,0,0,1,6.471-2.475" transform="translate(-107.775 -263.029)" fill="none" stroke="#000" stroke-linejoin="round" stroke-width="0.25"/>
        <path id="Path_10689" data-name="Path 10689" d="M154.14,323.429s3.807-.476,6-2.189" transform="translate(-107.241 -261.393)" fill="none" stroke="#000" stroke-linejoin="round" stroke-width="0.25"/>
        <path id="Path_10690" data-name="Path 10690" d="M162.231,343.835a25.553,25.553,0,0,1,6.594-1.632" transform="translate(-102.413 -248.884)" fill="none" stroke="#000" stroke-linejoin="round" stroke-width="0.25"/>
        <path id="Path_10691" data-name="Path 10691" d="M162.963,346.97s4.464-.356,6.521-2.057" transform="translate(-101.976 -247.267)" fill="none" stroke="#000" stroke-linejoin="round" stroke-width="0.25"/>
        <path id="Path_10692" data-name="Path 10692" d="M225.2,296.1a20.614,20.614,0,0,1,7.307-1.119" transform="translate(-64.836 -277.075)" fill="none" stroke="#000" stroke-linejoin="round" stroke-width="0.25"/>
        <path id="Path_10693" data-name="Path 10693" d="M225.625,299a22.026,22.026,0,0,0,6.636-1.268" transform="translate(-64.585 -275.421)" fill="none" stroke="#000" stroke-linejoin="round" stroke-width="0.25"/>
        <path id="Path_10694" data-name="Path 10694" d="M233.844,317.5a11.448,11.448,0,0,1,5.518-1.79" transform="translate(-59.681 -264.693)" fill="none" stroke="#000" stroke-linejoin="round" stroke-width="0.25"/>
        <path id="Path_10695" data-name="Path 10695" d="M234.934,320.521a12.656,12.656,0,0,0,5.343-2.43" transform="translate(-59.03 -263.272)" fill="none" stroke="#000" stroke-linejoin="round" stroke-width="0.25"/>
      </g>
      <path id="Path_10696" data-name="Path 10696" d="M254.83,239.192s28.763,133.291,0,232.627" transform="translate(-47.158 -132.759)" fill="none" stroke="#000" stroke-linejoin="round" stroke-width="0.25"/>
      <path id="Path_10697" data-name="Path 10697" d="M238.124,272.771s-30.069,23.975-35.758,74.361l-18.987,5.606s-3.695-17.69-1.218-35.3" transform="translate(-91.031 -112.722)" fill="#ffeed6" stroke="#000" stroke-linejoin="round" stroke-width="0.25"/>
      <path id="Path_10698" data-name="Path 10698" d="M293.387,272.771s30.069,23.975,35.758,74.361" transform="translate(-24.15 -112.722)" fill="none" stroke="#000" stroke-linejoin="round" stroke-width="0.25"/>
      <path id="Path_10699" data-name="Path 10699" d="M183.307,333.493s1.49,24.166,9.43,33.081,19.549,4.838,20.2-4.179c.688-9.588-3.077-13.216-1.95-14.487,1.466-1.651,4.455,3.026,6.826,1.253,3.415-2.552-4.677-16.987-14.457-21.238C203.352,327.924,189.574,327.36,183.307,333.493Z" transform="translate(-89.837 -79.82)" fill="#fbc6a6" stroke="#000" stroke-linejoin="round" stroke-width="0.25"/>
      <path id="Path_10700" data-name="Path 10700" d="M338.506,332.585s1.734,7.551-2.7,18.8c-4.246,10.755-14.1,15-19.521,10.342s2.587-9.676.042-13.063c-2.4-3.192-8.258.335-9.357-3.064-1.279-3.953,9.813-6.329,11.236-17.569C318.2,328.028,330.787,325.9,338.506,332.585Z" transform="translate(-16.11 -79.942)" fill="#fbc6a6" stroke="#000" stroke-linejoin="round" stroke-width="0.25"/>
      <path id="Path_10701" data-name="Path 10701" d="M129.822,307.234" transform="translate(-121.752 -92.158)" fill="none" stroke="#000" stroke-linejoin="round" stroke-width="0.25"/>
      <rect id="Rectangle_196" data-name="Rectangle 196" width="35.055" height="15.292" rx="4.789" transform="translate(82.989 240.81) rotate(-15.72)" fill="#006781" stroke="#000" stroke-linejoin="round" stroke-width="0.25"/>
      <rect id="Rectangle_197" data-name="Rectangle 197" width="35.055" height="15.292" rx="4.789" transform="translate(328.564 255.53) rotate(-164.28)" fill="#006781" stroke="#000" stroke-linejoin="round" stroke-width="0.25"/>
    </g>
    <g id="Group_3285" data-name="Group 3285" transform="translate(160.947 542.718)">
      <g id="Group_3281" data-name="Group 3281" transform="translate(0 6.601)">
        <path id="Path_10702" data-name="Path 10702" d="M189.324,416.329a4.454,4.454,0,0,0-5.378-1.862,7.834,7.834,0,0,0-3.941-4.817c-3.106-1.734-6.618-1.447-8.21.562a4.444,4.444,0,0,0-7.552,3.754,3.681,3.681,0,0,0-1.849-1.443c-2.531-.848-5.584,1.439-6.917,5.127a2.852,2.852,0,0,0-2.78-1.265c-1.589.342-2.491,2.4-2.018,4.594a5.568,5.568,0,0,0,.276.886c-2.151.75-3.6,2.24-3.526,3.891.105,2.266,3.039,3.971,6.55,3.808a8,8,0,0,0,4.923-1.8c.01.026.011.053.021.078.956,2.682,5.509,3.51,10.168,1.847a11.914,11.914,0,0,0,6.122-4.464c1.386,1.244,4.038,2.093,7.089,2.109,4.495.024,8.146-1.768,8.159-4a3.205,3.205,0,0,0-1.82-2.566A4.133,4.133,0,0,0,189.324,416.329Z" transform="translate(-147.426 -408.51)" fill="#ffeed6" stroke="#000" stroke-linejoin="round" stroke-width="0.25"/>
        <path id="Path_10703" data-name="Path 10703" d="M162.688,409.576a11.583,11.583,0,0,1,3.944,7.22" transform="translate(-138.319 -407.873)" fill="#ffeed6" stroke="#000" stroke-linejoin="round" stroke-width="0.25"/>
        <path id="Path_10704" data-name="Path 10704" d="M171.625,417.516a5.587,5.587,0,0,0,2.576-1.33" transform="translate(-132.986 -403.929)" fill="#ffeed6" stroke="#000" stroke-linejoin="round" stroke-width="0.25"/>
      </g>
      <g id="Group_3282" data-name="Group 3282" transform="translate(75.429 27.07)">
        <path id="Path_10705" data-name="Path 10705" d="M236.564,429.148a4.455,4.455,0,0,0-5.378-1.86,7.829,7.829,0,0,0-3.941-4.817c-3.106-1.734-6.618-1.448-8.21.56a4.446,4.446,0,0,0-7.554,3.756,3.67,3.67,0,0,0-1.847-1.443c-2.531-.849-5.584,1.439-6.919,5.127a2.851,2.851,0,0,0-2.778-1.266c-1.589.343-2.492,2.4-2.018,4.6a5.491,5.491,0,0,0,.276.885c-2.151.752-3.6,2.242-3.526,3.893.105,2.266,3.037,3.971,6.55,3.808a8.007,8.007,0,0,0,4.923-1.8c.008.025.011.053.021.078.956,2.681,5.509,3.508,10.168,1.847a11.92,11.92,0,0,0,6.122-4.464c1.386,1.244,4.036,2.093,7.089,2.109,4.495.024,8.146-1.769,8.159-4a3.2,3.2,0,0,0-1.82-2.566A4.136,4.136,0,0,0,236.564,429.148Z" transform="translate(-194.666 -421.329)" fill="#ffeed6" stroke="#000" stroke-linejoin="round" stroke-width="0.25"/>
        <path id="Path_10706" data-name="Path 10706" d="M209.928,422.4a11.59,11.59,0,0,1,3.944,7.222" transform="translate(-185.559 -420.693)" fill="#ffeed6" stroke="#000" stroke-linejoin="round" stroke-width="0.25"/>
        <path id="Path_10707" data-name="Path 10707" d="M218.864,430.336a5.588,5.588,0,0,0,2.577-1.33" transform="translate(-180.227 -416.748)" fill="#ffeed6" stroke="#000" stroke-linejoin="round" stroke-width="0.25"/>
      </g>
      <path id="Path_10708" data-name="Path 10708" d="M218.212,433.148a5.176,5.176,0,0,0-3.345-2.189,7.618,7.618,0,0,0,2.783-5.743c0-4.611-4.522-8.348-10.1-8.348a11.094,11.094,0,0,0-7.485,2.758c-1.566-2.935-5.111-4.985-9.24-4.985-5.577,0-10.1,3.738-10.1,8.348a7.145,7.145,0,0,0,.99,3.588c-3.823.669-6.7,3.543-6.7,6.987a6.148,6.148,0,0,0,.441,2.266,14.463,14.463,0,0,0-4.5-.7c-5.391,0-9.761,2.767-9.761,6.179s4.37,6.178,9.761,6.178a15.079,15.079,0,0,0,2.314-.182,4.664,4.664,0,0,0,.683,2.323,5.433,5.433,0,0,0,4.011,2.312,5.072,5.072,0,0,0,.584,3.687c2.042,3.246,7.934,3.211,13.16-.077a16,16,0,0,0,4.929-4.75,17.531,17.531,0,0,0,2.009-.5,16.354,16.354,0,0,0,5.438-2.86,14.765,14.765,0,0,0,8.354-2.465C217.672,441.688,220.254,436.392,218.212,433.148Z" transform="translate(-139.205 -398.251)" fill="#ffeed6" stroke="#000" stroke-linejoin="round" stroke-width="0.25"/>
      <g id="Group_3283" data-name="Group 3283" transform="translate(72.983 16.957)">
        <path id="Path_10709" data-name="Path 10709" d="M204.221,415.033c6.248-.385,12.344,2.164,12.648,8.461.273,5.681-4.667,18.924-12.276,18.035s-13.133-15.273-11-20.06S200.18,415.282,204.221,415.033Z" transform="translate(-193.135 -414.995)" fill="#ff6c5c" stroke="#000" stroke-linejoin="round" stroke-width="0.25"/>
        <path id="Path_10710" data-name="Path 10710" d="M197.745,415.6s-5.328,14.142,3.174,25.142" transform="translate(-191.367 -414.632)" fill="#ff6c5c" stroke="#000" stroke-linejoin="round" stroke-width="0.25"/>
        <path id="Path_10711" data-name="Path 10711" d="M201.391,415s-3.326,16.39.466,26.539" transform="translate(-189.013 -414.995)" fill="#ff6c5c" stroke="#000" stroke-linejoin="round" stroke-width="0.25"/>
        <path id="Path_10712" data-name="Path 10712" d="M206.224,415.825s2.807,13.9-3.352,24.3" transform="translate(-187.324 -414.5)" fill="#ff6c5c" stroke="#000" stroke-linejoin="round" stroke-width="0.25"/>
      </g>
      <g id="Group_3284" data-name="Group 3284" transform="translate(50.907)">
        <path id="Path_10713" data-name="Path 10713" d="M192.155,405.112c8.094-1.82,16.218-.359,18.878,5.413s-2.261,22.247-11.835,24.557S181,427.525,179.48,418.51C178.078,410.223,185.562,406.6,192.155,405.112Z" transform="translate(-179.309 -404.376)" fill="#ff6c5c" stroke="#000" stroke-linejoin="round" stroke-width="0.25"/>
        <path id="Path_10714" data-name="Path 10714" d="M181.584,407.374s2.849,16.378,12.517,26.224" transform="translate(-177.951 -402.586)" fill="#ff6c5c" stroke="#000" stroke-linejoin="round" stroke-width="0.25"/>
        <path id="Path_10715" data-name="Path 10715" d="M188.345,404.641a143.4,143.4,0,0,0,5.461,30.283" transform="translate(-173.917 -404.217)" fill="#ff6c5c" stroke="#000" stroke-linejoin="round" stroke-width="0.25"/>
        <path id="Path_10716" data-name="Path 10716" d="M194.956,404.752s4.008,16.8-1.092,28.635" transform="translate(-170.624 -404.151)" fill="#ff6c5c" stroke="#000" stroke-linejoin="round" stroke-width="0.25"/>
      </g>
    </g>
  </g>
</svg>
