<svg xmlns="http://www.w3.org/2000/svg" width="403.67" height="410.738" viewBox="0 0 403.67 410.738">
  <g id="Group_4054" data-name="Group 4054" transform="translate(-509.679 -648.784)">
    <g id="Group_4033" data-name="Group 4033" transform="translate(732.581 846.556)">
      <g id="Group_4032" data-name="Group 4032">
        <g id="Group_4031" data-name="Group 4031">
          <path id="Path_15448" data-name="Path 15448" d="M674.9,970.437s-2.968-22.2,15.963-26.68c21.288-5.041,13.672-16.055,5.19-9.96-5.586,4.013-13.51,5.543-15.835-.142-2.5-6.1,2.341-12.666,13.745-16.918,16.957-6.322,35.284-2.823,32.044-10.252-.642-1.47-3.238-2.049-13.634,1.5-6.074,2.076-20.7,4.542-22.3-4.011-2.407-12.859,16.456-19.248,36.781-19.823s24.061-10.856,14.692-9.875-27.551,9.106-30.8-.64c-4.477-13.437,13.126-19.666,33.551-19.011,14.542.466,24.625,1.229,22.743-4.617-1.217-3.784-19.277,3.47-24.463-.584-5.984-4.678-1.5-13.634,10.776-13.973,11.341-.312,38.51,5.5,36.8-3.342-.91-4.717-13.218-1.212-16.675-.205s-13.437,1.949-13.126-5.218c.282-6.529,8.007-10.723,18.535-10.429,17.71.494,29.872,10.077,31.416,3.645,1.349-5.625-11.151-1.3-13.225-6.706-1.589-4.134,1.6-9.991,19.054-8.91,15.351.951,24.276,5.852,23.972-4.1-.231-7.592,9.946-5.582,9.322.038-.558,5.043-3.751,10.1,1.616,11.775s4.424,6.217,4.049,7.912c-.643,2.91-5.066,5.533-7.3,1.56s-8.5-2.122-5.26,5.306.8,17.384-.844,22.331-9.618,9.836-11.859.37,3.824-17.034-2.51-17.091.447,22.005-4.154,38.136-10.546,16.526-13.748,14.172-.536-15.253.94-23.591,1.691-16.774-1.7-16.607-3.666,14.934-4.358,29.67-.362,21.522-5.371,20.721-6.57-8.1-8.328-18.377-2.28-14.539-6.157-13.564,8.529,24.1,8.578,41.35c.043,15.685-8.34,19.724-17.134,15.89-12.274-5.352-2.76-33.281-12.836-31.394-6.429,1.2,4.833,14.31,5.376,35.055.531,20.326-10.761,33.857-15.716,17.825-4.412-14.277-.869-33.5-8.215-31.044-8.236,2.757,7.985,28.492,5.453,45.2s-9.642,15.75-13.4,9.551-8.983-26.455-14.764-22.667c-4.983,3.266,13.465,17.5,10.125,33.724S682.822,1007.375,674.9,970.437Z" transform="translate(-674.728 -795.225)" fill="#a6b832" stroke="#000" stroke-miterlimit="10" stroke-width="0.25"/>
          <path id="Path_15449" data-name="Path 15449" d="M692.108,960.594c14.9-35.633,57.27-109.752,143.01-153.968" transform="translate(-668.63 -791.224)" fill="none" stroke="#000" stroke-miterlimit="10" stroke-width="0.25"/>
        </g>
      </g>
    </g>
    <g id="Group_4036" data-name="Group 4036" transform="translate(742.591 927.796)">
      <g id="Group_4035" data-name="Group 4035">
        <g id="Group_4034" data-name="Group 4034">
          <path id="Path_15450" data-name="Path 15450" d="M682.216,951.92s2.559-17.327,17.757-16.611c17.092.8,13.742-9.12,6.052-6.368-5.066,1.813-11.353,1.252-11.874-3.523-.559-5.128,4.493-9.017,13.984-9.752,14.112-1.094,27.135,5.491,26.3-.793-.165-1.244-1.991-2.24-10.575-1.811-5.013.25-16.543-1.054-15.9-7.828.966-10.187,16.526-10.919,31.93-6.965s20.43-2.969,13.175-4.253-22.677.9-23.015-7.127c-.465-11.069,14.113-11.952,29.326-7.051,10.831,3.488,18.247,6.238,18.095,1.436-.1-3.107-15.242-1.551-18.265-5.717-3.489-4.809,1.811-10.575,11.116-8.179,8.593,2.211,27.764,12.445,28.388,5.429.334-3.742-9.676-3.764-12.491-3.753s-10.522-1.433-8.741-6.756c1.621-4.847,8.332-6.334,16.185-3.841,13.206,4.194,20.282,14.022,22.831,9.52,2.227-3.938-8.1-3.388-8.5-7.895-.3-3.451,3.359-7.165,16.247-2.587,11.335,4.027,16.987,9.637,18.908,2.09,1.464-5.757,8.681-2.051,7,2.041-1.509,3.67-5,6.784-1.328,9.2s1.984,5.628,1.337,6.822c-1.112,2.048-5,3.065-5.826-.4s-5.933-3.43-5.1,2.853-3.153,13.241-5.455,16.606-9.352,5.318-8.994-2.282,6.55-11.981,1.8-13.39-4.412,16.64-11.351,27.774-11.5,10.148-13.394,7.686,2.888-11.582,5.8-17.533,4.891-12.244,2.306-12.852-5.979,10.437-9.679,21.365-4.916,16.1-8.509,14.418-3.191-7.509-2.295-15.612,1.422-11.422-1.7-11.526,1.213,19.955-2.475,32.937c-3.351,11.8-10.526,13.029-16.309,8.248-8.073-6.672,5.106-25.615-2.876-26.372-5.093-.482.546,11.8-3.523,27.513-3.986,15.4-15.4,23.131-15.66,10.01-.236-11.686,6.576-25.375.524-25.111-6.788.3-.146,23.143-5.656,35.157s-10.647,9.76-12.133,4.289-1.044-21.827-6.207-20.227c-4.451,1.379,6.346,16.061.334,27.537S680.2,981.4,682.216,951.92Z" transform="translate(-682.138 -855.364)" fill="#006857" stroke="#000" stroke-miterlimit="10" stroke-width="0.25"/>
          <path id="Path_15451" data-name="Path 15451" d="M696.1,949.363c18.89-23.573,66.738-70.15,140.736-84.888" transform="translate(-677.239 -852.168)" fill="none" stroke="#000" stroke-miterlimit="10" stroke-width="0.25"/>
        </g>
      </g>
    </g>
    <g id="Group_4052" data-name="Group 4052" transform="translate(584.557 648.923)">
      <path id="Path_15452" data-name="Path 15452" d="M636.8,908.67s32.779,27.9,45.971,34.294l33.547-14.294S705.331,886.02,683.633,850.8Z" transform="translate(-540.011 -578.093)" fill="#fff" stroke="#000" stroke-miterlimit="10" stroke-width="0.25"/>
      <path id="Path_15453" data-name="Path 15453" d="M707.97,907.575s.9,2.884,5.451,4.806,11.313,5.149,11.253,11.189c-.076,7.43-5.023,6.634-9.824,13.746-4.872,7.219-3.068,14.608-10.272,23.608-4.4,5.5-10.527,7.754-18.149,7.721-5.53-.021-10.691-2.553-14.939-6.85-10.614-10.737-5.6-27.424,9.81-32.883,0,0,9.983-13.636,10.475-13.845S707.97,907.575,707.97,907.575Z" transform="translate(-529.815 -558.173)" fill="#e94827" stroke="#000" stroke-miterlimit="10" stroke-width="0.25"/>
      <path id="Path_15454" data-name="Path 15454" d="M705.9,903.637c-2.879-1.733-10.473,1.416-20.552,7.748s-18.268,13.451-15.91,18.661,6.287,5.936,10.743.413,14.842-16.209,21.592-17.575S711.083,906.758,705.9,903.637Z" transform="translate(-528.701 -559.72)" fill="#f8b300" stroke="#000" stroke-miterlimit="10" stroke-width="0.25"/>
      <path id="Path_15455" data-name="Path 15455" d="M694.369,921.637A46.891,46.891,0,0,0,677.289,924" transform="translate(-525.805 -553.258)" fill="none" stroke="#000" stroke-miterlimit="10" stroke-width="0.25"/>
      <g id="Group_4037" data-name="Group 4037" transform="translate(37.755 242.516)">
        <path id="Path_15456" data-name="Path 15456" d="M595.219,833.175s-12.229,33.48,22.051,63.967c0,0,62.838-19.57,75.254-33.185,0,0-5.5-20.613-15.99-35.507Z" transform="translate(-593.098 -828.45)" fill="#e94827" stroke="#000" stroke-miterlimit="10" stroke-width="0.25"/>
        <path id="Path_15457" data-name="Path 15457" d="M695.128,856.784c-5.037-8.448-27.031,1.7-46.875,12.3s-43.689,16.876-38.756,27.9,37.195-6.146,48.131-11.865C669.854,878.734,700.255,865.381,695.128,856.784Z" transform="translate(-587.575 -819.61)" fill="#f8b300" stroke="#000" stroke-miterlimit="10" stroke-width="0.25"/>
      </g>
      <path id="Path_15458" data-name="Path 15458" d="M636.953,871.427s-17.937,39.129-20.5,53.564l22.875,28.4s38.058-22.169,66.053-52.625Z" transform="translate(-547.15 -570.855)" fill="#fff" stroke="#000" stroke-miterlimit="10" stroke-width="0.25"/>
      <g id="Group_4038" data-name="Group 4038" transform="translate(79.47 259.072)">
        <path id="Path_15459" data-name="Path 15459" d="M728.387,848.277s11.55,33.721-23.341,63.508c0,0-62.43-20.838-74.567-34.7,0,0,5.911-20.5,16.706-35.175Z" transform="translate(-621.698 -840.284)" fill="#e94827" stroke="#000" stroke-miterlimit="10" stroke-width="0.25"/>
        <path id="Path_15460" data-name="Path 15460" d="M681.094,840.706s-3.815,29.862-23.323,56.471l1.726,3.112s18.5-21.1,24.3-59.557Z" transform="translate(-612.122 -840.706)" fill="#f8b300" stroke="#000" stroke-miterlimit="10" stroke-width="0.25"/>
        <path id="Path_15461" data-name="Path 15461" d="M624.6,869.838c5.208-8.344,26.991,2.242,46.617,13.25s43.338,17.758,38.183,28.684-37.062-6.9-47.881-12.839C649.424,892.294,619.3,878.329,624.6,869.838Z" transform="translate(-623.979 -831.537)" fill="#f8b300" stroke="#000" stroke-miterlimit="10" stroke-width="0.25"/>
      </g>
      <path id="Path_15462" data-name="Path 15462" d="M701.488,741.825s22.827,51.105,39.811,81.719,26.4,52.765,24.529,59.59S703.842,880.955,654.143,882s-74.1,1.9-72.918-7.89S595.9,836.67,600.363,805.26s67.154-57.967,67.154-57.967Z" transform="translate(-559.524 -616.327)" fill="#f8b300" stroke="#000" stroke-miterlimit="10" stroke-width="0.25"/>
      <path id="Path_15463" data-name="Path 15463" d="M605.208,765.839s-34.263,28.308-39.082,50.5,9.389,37.872,16.393,19.975,23.832-25.081,23.832-25.081Z" transform="translate(-565.15 -607.902)" fill="#f8b300" stroke="#000" stroke-miterlimit="10" stroke-width="0.25"/>
      <g id="Group_4040" data-name="Group 4040" transform="translate(17.584 188.443)">
        <g id="Group_4039" data-name="Group 4039">
          <path id="Path_15464" data-name="Path 15464" d="M676.026,795.785l2.2.525s-1.63,10.891,3.308,18.95l-17.49,15.586L640.281,846.64l-4.892-9.6,3.853-12.752Z" transform="translate(-558.09 -785.838)" fill="#fff" stroke="#000" stroke-miterlimit="10" stroke-width="0.25"/>
          <path id="Path_15465" data-name="Path 15465" d="M579.333,814.559c.737-1.113,36.307-24.81,41.211-25.872s32.843,1.3,43.667,2.887,32.9,4.4,34.826,6.246c2.752,2.644-11.2,11.827-18.557,17.763S663.62,827.563,659.7,830.4c-1.7,1.233-1.364,4.48-.909,9.8s.631,7.034,2.267,7.384,16.946-12.189,23.989-17.5S701.2,815.5,702.536,816.9c1.536,1.614-.661,2.927-4.3,6.4s-12.545,11.223-16.722,14.6-16.972,12.593-20.492,13.246-33.766-5.018-50.063-8.625-30.633-5.979-31.829-8.1S577.686,817.044,579.333,814.559Z" transform="translate(-578.167 -788.422)" fill="#006857" stroke="#000" stroke-miterlimit="10" stroke-width="0.25"/>
        </g>
        <line id="Line_832" data-name="Line 832" x1="33.356" y2="24.929" transform="translate(85.151 21.363)" fill="#fff" stroke="#000" stroke-miterlimit="10" stroke-width="0.25"/>
        <line id="Line_833" data-name="Line 833" x1="33.356" y2="24.929" transform="translate(85.892 26.143)" fill="#fff" stroke="#000" stroke-miterlimit="10" stroke-width="0.25"/>
      </g>
      <g id="Group_4042" data-name="Group 4042" transform="translate(26.146 169.391)">
        <g id="Group_4041" data-name="Group 4041">
          <path id="Path_15466" data-name="Path 15466" d="M586.675,795.508s1.413,13.6-.908,17.68l37.112,8.856,33.726,5.676,4.659-.774L679.186,812.9l13.388-11.915.128-12.7-3.215-6.6-33.7,18.93Z" transform="translate(-584.062 -771.733)" fill="#fff" stroke="#000" stroke-linejoin="round" stroke-width="0.25"/>
          <path id="Path_15467" data-name="Path 15467" d="M657.281,811.843c6.4-1.941,29.843-24.449,33.066-23.829,2,.385,2.891,11.632,1.4,14.843S664.384,827.689,659.69,829.1s-45.866-7.395-74.016-14.427c-1.63-.407-1.475,1.626-.027,2.735s67.862,15.824,73.9,14.244,33.788-25.737,34.733-27.733,1.268-20.412-3.644-21.419-65.147-9.355-68.937-8.043c-3.346,1.156-13,6.477-19.673,10.653-6.607,4.132-17.445,11.863-16.553,13.879s21.418,5.988,36.454,8.5C637.148,810.023,653.82,812.892,657.281,811.843Z" transform="translate(-584.505 -774.318)" fill="#f8b300" stroke="#000" stroke-miterlimit="10" stroke-width="0.25"/>
        </g>
        <line id="Line_834" data-name="Line 834" x1="25.94" y2="20.345" transform="translate(76.621 22.554)" fill="none" stroke="#000" stroke-miterlimit="10" stroke-width="0.25"/>
        <line id="Line_835" data-name="Line 835" x1="25.94" y2="20.345" transform="translate(76.57 27.568)" fill="none" stroke="#000" stroke-miterlimit="10" stroke-width="0.25"/>
        <line id="Line_836" data-name="Line 836" x2="62.068" y2="11.707" transform="translate(5.81 32.197)" fill="none" stroke="#000" stroke-miterlimit="10" stroke-width="0.25"/>
        <line id="Line_837" data-name="Line 837" x2="62.068" y2="11.707" transform="translate(5.76 37.211)" fill="none" stroke="#000" stroke-miterlimit="10" stroke-width="0.25"/>
      </g>
      <g id="Group_4044" data-name="Group 4044" transform="translate(34.879 154.983)">
        <g id="Group_4043" data-name="Group 4043">
          <path id="Path_15468" data-name="Path 15468" d="M664.062,769.152l1.644.392s-1.217,8.135,2.471,14.154L655.114,795.34l-17.75,11.8-3.654-7.169,2.879-9.525Z" transform="translate(-575.974 -761.723)" fill="#fff" stroke="#000" stroke-miterlimit="10" stroke-width="0.25"/>
          <path id="Path_15469" data-name="Path 15469" d="M591.841,783.174c.55-.832,27.117-18.531,30.781-19.324s24.53.969,32.614,2.156,24.573,3.283,26.013,4.666c2.055,1.974-8.366,8.833-13.86,13.267s-12.594,8.948-15.52,11.069c-1.27.92-1.018,3.345-.679,7.318s.471,5.253,1.694,5.516,12.657-9.1,17.918-13.07,12.063-10.9,13.061-9.848c1.148,1.205-.493,2.186-3.21,4.782s-9.371,8.383-12.491,10.908-12.676,9.406-15.305,9.894-25.221-3.749-37.393-6.444-22.881-4.465-23.774-6.048S590.611,785.03,591.841,783.174Z" transform="translate(-590.97 -763.652)" fill="#e94827" stroke="#000" stroke-miterlimit="10" stroke-width="0.25"/>
        </g>
        <line id="Line_838" data-name="Line 838" x1="24.914" y2="18.62" transform="translate(63.6 15.956)" fill="#fff" stroke="#000" stroke-miterlimit="10" stroke-width="0.25"/>
        <line id="Line_839" data-name="Line 839" x1="24.914" y2="18.62" transform="translate(64.154 19.526)" fill="#fff" stroke="#000" stroke-miterlimit="10" stroke-width="0.25"/>
      </g>
      <path id="Path_15470" data-name="Path 15470" d="M581.328,809.943c2.745.207,10.03,1.951,9.553,8.1s-7.858,11.555-15.209,8.686c-6.438-2.513-6.1-8.836-3.3-13.552,1.614-2.714,4.655-4.56,9.271-4.713A7.189,7.189,0,0,0,581.328,809.943Z" transform="translate(-563.285 -592.947)" fill="#fff" stroke="#000" stroke-miterlimit="10" stroke-width="0.25"/>
      <path id="Path_15471" data-name="Path 15471" d="M709.275,789.183s-14.651,23.3-36.054,33.195c-20.9,9.659-35.068.816-38.512,7.285-1.883,3.536-8.506.607-9.148,6.834-.6,5.815,2.359,8.339,5.787,9.328,17.469,5.041,54.133,4.8,77.28-3.812s51.984-27.583,51.984-27.583Z" transform="translate(-543.981 -599.712)" fill="#fff" stroke="#000" stroke-miterlimit="10" stroke-width="0.25"/>
      <path id="Path_15472" data-name="Path 15472" d="M671.354,744.834c29.647,10.978,62.121,47.213,73.4,73.828s10.873,40.045,4.956,37.322-51.572-36.461-62.2-37.9S685.346,817,677.573,792.6s-6.484-21.6-6.484-21.6" transform="translate(-528.008 -615.272)" fill="#f8b300" stroke="#000" stroke-miterlimit="10" stroke-width="0.25"/>
      <g id="Group_4045" data-name="Group 4045" transform="translate(61.522 95.207)">
        <path id="Path_15473" data-name="Path 15473" d="M716.357,752.836s.251-15.258-1.666-21.711c-2-6.714-36.735,20.332-36.735,20.332l-57.691-23.423s-9.628,5.526-9.572,11.286l5.874,16.838,14.208,4.221s9.881,8.667,36.918,5.387S716.719,765.616,716.357,752.836Z" transform="translate(-610.693 -716.373)" fill="#e94827" stroke="#000" stroke-miterlimit="10" stroke-width="0.25"/>
        <path id="Path_15474" data-name="Path 15474" d="M619.677,733.978c-2.275-14.862,35.783-14.715,49.285-14.539,23.617.308,41.44,6.915,42.611,14.715.72,4.8-3.093,11.831-13.383,15.879-19.609,7.717-31.757,6.514-51.48,5.955S620.557,739.724,619.677,733.978Z" transform="translate(-607.575 -719.402)" fill="#f8b300" stroke="#000" stroke-miterlimit="10" stroke-width="0.25"/>
      </g>
      <g id="Group_4046" data-name="Group 4046" transform="translate(62.819)">
        <path id="Path_15475" data-name="Path 15475" d="M686.46,734.369s6.271-.421,9.226-3.241c3.426-3.266,1.152-7.2-4.059-5.053,0,0,16.43-13.809,14.47-25.718-2.115-12.851-23.532-10.295-33.8,11.332,0,0,9.482-14.982,8.5-38.037s-18.593-31.89-28.025-18.307-5.418,43.458-5.418,43.458-11-10.965-26.019-11.685-14.2,17.011,14.118,26.542c0,0-12.277-1.628-19.754,5.756s-2.237,17.514,11.335,14.882c0,0-15.592,11.963-4.727,32.107,10.4,19.29,57.547,21.1,69.852,3.6S691.038,737.472,686.46,734.369Z" transform="translate(-611.653 -648.923)" fill="#fff" stroke="#000" stroke-miterlimit="10" stroke-width="0.25"/>
        <path id="Path_15476" data-name="Path 15476" d="M648.811,711.028s6.685,6.263,3.564,8.81c-2.4,1.955-6.983-3.569-7.262-5.821,0,0-.633,8.675-5.352,7.3-4.281-1.245-.553-9.3-.553-9.3s-5.975,9.072-9.965,5.22c-3.264-3.152,1.957-7.865,4.531-7.17" transform="translate(-605.847 -627.491)" fill="none" stroke="#000" stroke-miterlimit="10" stroke-width="0.25"/>
        <ellipse id="Ellipse_2803" data-name="Ellipse 2803" cx="2.886" cy="1.3" rx="2.886" ry="1.3" transform="translate(36.24 104.987) rotate(-88.009)"/>
        <ellipse id="Ellipse_2804" data-name="Ellipse 2804" cx="2.886" cy="1.3" rx="2.886" ry="1.3" transform="translate(27.276 104.676) rotate(-88.009)"/>
        <ellipse id="Ellipse_2805" data-name="Ellipse 2805" cx="0.653" cy="1.41" rx="0.653" ry="1.41" transform="translate(46.741 107.876) rotate(-88.009)" fill="#e94827" stroke="#000" stroke-miterlimit="10" stroke-width="0.25"/>
        <ellipse id="Ellipse_2806" data-name="Ellipse 2806" cx="0.653" cy="1.41" rx="0.653" ry="1.41" transform="translate(43.949 111.173) rotate(-88.009)" fill="#e94827" stroke="#000" stroke-miterlimit="10" stroke-width="0.25"/>
        <ellipse id="Ellipse_2807" data-name="Ellipse 2807" cx="0.653" cy="1.41" rx="0.653" ry="1.41" transform="translate(51.646 111.298) rotate(-88.009)" fill="#e94827" stroke="#000" stroke-miterlimit="10" stroke-width="0.25"/>
        <ellipse id="Ellipse_2808" data-name="Ellipse 2808" cx="0.653" cy="1.186" rx="0.653" ry="1.186" transform="translate(23.221 108.876) rotate(-88.009)" fill="#e94827" stroke="#000" stroke-miterlimit="10" stroke-width="0.25"/>
        <ellipse id="Ellipse_2809" data-name="Ellipse 2809" cx="0.653" cy="1.186" rx="0.653" ry="1.186" transform="translate(19.557 105.715) rotate(-88.009)" fill="#e94827" stroke="#000" stroke-miterlimit="10" stroke-width="0.25"/>
        <ellipse id="Ellipse_2810" data-name="Ellipse 2810" cx="0.76" cy="1.186" rx="0.76" ry="1.186" transform="translate(16.502 108.642) rotate(-88.009)" fill="#e94827" stroke="#000" stroke-miterlimit="10" stroke-width="0.25"/>
      </g>
      <g id="Group_4048" data-name="Group 4048" transform="translate(24.697 132.341)">
        <g id="Group_4047" data-name="Group 4047">
          <path id="Path_15477" data-name="Path 15477" d="M585.513,767.21s1.355,13.041-.87,16.953l35.586,8.492,32.34,5.443,4.466-.742,17.186-13.465,12.837-11.426.123-12.181-3.083-6.327-32.315,18.151Z" transform="translate(-583.008 -744.412)" fill="#fff" stroke="#000" stroke-linejoin="round" stroke-width="0.25"/>
          <path id="Path_15478" data-name="Path 15478" d="M653.216,782.874c6.138-1.862,28.615-23.443,31.707-22.849,1.919.369,2.772,11.154,1.341,14.233s-26.238,23.81-30.74,25.164-43.979-7.089-70.971-13.833c-1.564-.39-1.414,1.559-.027,2.622s65.072,15.173,70.858,13.657,32.4-24.677,33.305-26.592,1.217-19.573-3.495-20.538-62.468-8.97-66.1-7.713c-3.208,1.11-12.46,6.213-18.863,10.215-6.336,3.962-16.728,11.376-15.873,13.309s20.537,5.743,34.956,8.146C633.911,781.129,649.9,783.88,653.216,782.874Z" transform="translate(-583.432 -746.891)" fill="#f8b300" stroke="#000" stroke-miterlimit="10" stroke-width="0.25"/>
        </g>
        <line id="Line_840" data-name="Line 840" x1="24.873" y2="19.508" transform="translate(73.471 21.627)" fill="none" stroke="#000" stroke-miterlimit="10" stroke-width="0.25"/>
        <line id="Line_841" data-name="Line 841" x1="24.873" y2="19.508" transform="translate(73.422 26.435)" fill="none" stroke="#000" stroke-miterlimit="10" stroke-width="0.25"/>
        <line id="Line_842" data-name="Line 842" x2="59.516" y2="11.226" transform="translate(5.572 30.874)" fill="none" stroke="#000" stroke-miterlimit="10" stroke-width="0.25"/>
        <line id="Line_843" data-name="Line 843" x2="59.516" y2="11.226" transform="translate(5.523 35.682)" fill="none" stroke="#000" stroke-miterlimit="10" stroke-width="0.25"/>
      </g>
      <g id="Group_4050" data-name="Group 4050" transform="translate(35.597 115.391)">
        <g id="Group_4049" data-name="Group 4049">
          <path id="Path_15479" data-name="Path 15479" d="M593.231,751.242s1.127,10.845-.724,14.1L622.1,772.4l26.893,4.525,3.715-.616L667,765.112l10.676-9.5.1-10.13-2.564-5.26-26.874,15.094Z" transform="translate(-591.148 -732.282)" fill="#fff" stroke="#000" stroke-linejoin="round" stroke-width="0.25"/>
          <path id="Path_15480" data-name="Path 15480" d="M649.533,764.267c5.106-1.548,23.8-19.5,26.369-19,1.6.307,2.3,9.276,1.116,11.836s-21.82,19.8-25.564,20.926-36.574-5.9-59.02-11.5c-1.3-.324-1.177,1.3-.023,2.182s54.114,12.617,58.926,11.358,26.943-20.522,27.7-22.115,1.013-16.277-2.906-17.08-51.949-7.459-54.972-6.414c-2.668.923-10.362,5.166-15.687,8.5-5.268,3.295-13.91,9.46-13.2,11.066s17.079,4.775,29.07,6.775C633.479,762.816,646.774,765.1,649.533,764.267Z" transform="translate(-591.501 -734.344)" fill="#006857" stroke="#000" stroke-miterlimit="10" stroke-width="0.25"/>
        </g>
        <line id="Line_844" data-name="Line 844" x1="20.685" y2="16.223" transform="translate(61.099 17.985)" fill="none" stroke="#000" stroke-miterlimit="10" stroke-width="0.25"/>
        <line id="Line_845" data-name="Line 845" x1="20.685" y2="16.223" transform="translate(61.058 21.983)" fill="none" stroke="#000" stroke-miterlimit="10" stroke-width="0.25"/>
        <line id="Line_846" data-name="Line 846" x2="49.494" y2="9.335" transform="translate(4.633 25.675)" fill="none" stroke="#000" stroke-miterlimit="10" stroke-width="0.25"/>
        <line id="Line_847" data-name="Line 847" x2="49.494" y2="9.335" transform="translate(4.593 29.673)" fill="none" stroke="#000" stroke-miterlimit="10" stroke-width="0.25"/>
      </g>
      <path id="Path_15481" data-name="Path 15481" d="M582.7,834.328a451.821,451.821,0,0,0,70.065,4.941c35.093-.526,111.652,2.043,111.652,2.043s.605,2.3.723,2.867c0,0-50.921-2.767-73.216-2.587-19.489.157-56.44.655-82.367-.869s-27.341-4.817-27.341-4.817S582.579,834.7,582.7,834.328Z" transform="translate(-559.163 -583.872)" fill="#e94827" stroke="#000" stroke-miterlimit="10" stroke-width="0.25"/>
      <g id="Group_4051" data-name="Group 4051" transform="translate(19.577 345.817)">
        <path id="Path_15482" data-name="Path 15482" d="M652.209,944.248s-9.253,19.74-22.078,19.605c-7.387-.078-11.238-3.076-18.727-6.046-5.384-2.136-11.752-.443-20.526-6.383-12.922-8.747-13.348-21.09-8.036-31.325s25.037-24.145,35.945-1.847c0,0,3.056,1.778,6.561-3.326l7.751,6.308Z" transform="translate(-579.642 -904.43)" fill="#e94827" stroke="#000" stroke-miterlimit="10" stroke-width="0.25"/>
        <path id="Path_15483" data-name="Path 15483" d="M650.486,943.859c.958-6.3-7.9-19.409-18.973-29.921s-19.6-11.527-21.716-4.639,8.051,9.372,16.636,18.876,10.3,14.707,13.446,18.3C643.268,950.334,649.566,949.922,650.486,943.859Z" transform="translate(-569.161 -904.921)" fill="#f8b300" stroke="#000" stroke-miterlimit="10" stroke-width="0.25"/>
        <path id="Path_15484" data-name="Path 15484" d="M604.5,938.719a24.221,24.221,0,0,0,5.563-23.566" transform="translate(-570.92 -901.331)" fill="none" stroke="#000" stroke-miterlimit="10" stroke-width="0.25"/>
      </g>
    </g>
    <g id="Group_4053" data-name="Group 4053" transform="translate(509.837 923.963)">
      <path id="Path_15485" data-name="Path 15485" d="M587.945,972.612c-1.467-94.71-56.727-108.624-77.9-105.321" transform="translate(-509.764 -847.498)" fill="none" stroke="#000" stroke-miterlimit="10" stroke-width="0.25"/>
      <path id="Path_15486" data-name="Path 15486" d="M527.877,872.891s8.8-5.726.789-20.364C528.666,852.527,519.757,866.226,527.877,872.891Z" transform="translate(-504.706 -852.527)" fill="#006857" stroke="#000" stroke-miterlimit="10" stroke-width="0.25"/>
      <path id="Path_15487" data-name="Path 15487" d="M516.7,881.105s12.386-.789,12.786-11.4C529.487,869.708,520.69,869.748,516.7,881.105Z" transform="translate(-507.429 -846.499)" fill="#006857" stroke="#000" stroke-miterlimit="10" stroke-width="0.25"/>
      <path id="Path_15488" data-name="Path 15488" d="M542.12,854.982s4.413,17.633-7.242,21.581C534.878,876.563,530.586,866.559,542.12,854.982Z" transform="translate(-501.325 -851.666)" fill="#006857" stroke="#000" stroke-miterlimit="10" stroke-width="0.25"/>
      <path id="Path_15489" data-name="Path 15489" d="M536.86,872.774s-8.459-.639-12.223,12.5C524.638,885.271,538.354,882.415,536.86,872.774Z" transform="translate(-504.644 -845.425)" fill="#006857" stroke="#000" stroke-miterlimit="10" stroke-width="0.25"/>
      <path id="Path_15490" data-name="Path 15490" d="M564.432,867.863s-3.456,20.054-14.446,20.376C549.986,888.239,548.575,875.4,564.432,867.863Z" transform="translate(-495.762 -847.146)" fill="#006857" stroke="#000" stroke-miterlimit="10" stroke-width="0.25"/>
      <path id="Path_15491" data-name="Path 15491" d="M533.77,892.851s16.078,1.624,19.587-8.243C553.357,884.608,543.449,881.576,533.77,892.851Z" transform="translate(-501.44 -841.401)" fill="#006857" stroke="#000" stroke-miterlimit="10" stroke-width="0.25"/>
      <path id="Path_15492" data-name="Path 15492" d="M542.586,881.38s10.693-1.185,10.521-21.445C553.107,859.935,538.472,870.181,542.586,881.38Z" transform="translate(-498.603 -849.928)" fill="#006857" stroke="#000" stroke-miterlimit="10" stroke-width="0.25"/>
      <path id="Path_15493" data-name="Path 15493" d="M529.791,888.923s15.357-.873,15.281-11.153C545.072,877.771,535.436,876.881,529.791,888.923Z" transform="translate(-502.836 -843.675)" fill="#006857" stroke="#000" stroke-miterlimit="10" stroke-width="0.25"/>
      <path id="Path_15494" data-name="Path 15494" d="M519.946,868.5s-7.971-.81-10.109,8.89C509.837,877.386,518.834,876.661,519.946,868.5Z" transform="translate(-509.837 -846.93)" fill="#006857" stroke="#000" stroke-miterlimit="10" stroke-width="0.25"/>
      <path id="Path_15495" data-name="Path 15495" d="M519.177,869.278c2.517-2.294,3.531-8.915-2.188-14.372C516.988,854.906,511.964,865.425,519.177,869.278Z" transform="translate(-507.925 -851.692)" fill="#006857" stroke="#000" stroke-miterlimit="10" stroke-width="0.25"/>
      <path id="Path_15496" data-name="Path 15496" d="M573.04,876.829s-1.525,20.664-16.953,19.922A25.285,25.285,0,0,1,573.04,876.829Z" transform="translate(-493.61 -844)" fill="#006857" stroke="#000" stroke-miterlimit="10" stroke-width="0.25"/>
      <path id="Path_15497" data-name="Path 15497" d="M560.446,893.179s-7.866-6.676-23.614,7.042C536.832,900.221,553.679,904.134,560.446,893.179Z" transform="translate(-500.366 -838.834)" fill="#006857" stroke="#000" stroke-miterlimit="10" stroke-width="0.25"/>
      <path id="Path_15498" data-name="Path 15498" d="M560.436,904.09s3.273-12.724,22.243-15.3C582.679,888.79,577.047,907.888,560.436,904.09Z" transform="translate(-492.084 -839.804)" fill="#006857" stroke="#000" stroke-miterlimit="10" stroke-width="0.25"/>
      <path id="Path_15499" data-name="Path 15499" d="M564.881,901.272s-10.23-5.337-25.145,8.694C539.736,909.966,558,914.086,564.881,901.272Z" transform="translate(-499.347 -835.774)" fill="#006857" stroke="#000" stroke-miterlimit="10" stroke-width="0.25"/>
    </g>
  </g>
</svg>
