<svg xmlns="http://www.w3.org/2000/svg" width="307.123" height="436.453" viewBox="0 0 307.123 436.453">
  <g id="Group_3287" data-name="Group 3287" transform="translate(-1067.639 -146.642)">
    <g id="Group_3287-2" data-name="Group 3287" transform="translate(1335.177 482.905)">
      <ellipse id="Ellipse_1801" data-name="Ellipse 1801" cx="1.886" cy="1.935" rx="1.886" ry="1.935" transform="translate(25.377 0.482) rotate(-7.336)" fill="#60472a" stroke="#000" stroke-miterlimit="10" stroke-width="0.25"/>
      <path id="Path_10717" data-name="Path 10717" d="M1275.953,376.813s-3.312,26.883-27.307,37.487" transform="translate(-1248.646 -372.854)" fill="none" stroke="#000" stroke-miterlimit="10" stroke-width="0.25"/>
      <path id="Path_10718" data-name="Path 10718" d="M1277.6,381.779s-3.505,13.335-15.378,12.22" transform="translate(-1242.152 -370.479)" fill="none" stroke="#000" stroke-miterlimit="10" stroke-width="0.25"/>
      <circle id="Ellipse_1802" data-name="Ellipse 1802" cx="3.085" cy="3.085" r="3.085" transform="translate(33.289 5.792)" fill="#ecb36f" stroke="#000" stroke-miterlimit="10" stroke-width="0.25"/>
      <path id="Path_10719" data-name="Path 10719" d="M1262.314,380.7s-1.481,7.965,2.252,9.711" transform="translate(-1242.246 -370.996)" fill="none" stroke="#000" stroke-miterlimit="10" stroke-width="0.25"/>
      <circle id="Ellipse_1803" data-name="Ellipse 1803" cx="2.302" cy="2.302" r="2.302" transform="translate(18.18 5.526)" fill="#ecb36f" stroke="#000" stroke-miterlimit="10" stroke-width="0.25"/>
    </g>
    <g id="Group_3288" data-name="Group 3288" transform="translate(1084.347 309.83)">
      <path id="Path_10720" data-name="Path 10720" d="M1104.436,290.953s-16.035,2.3-23.427-18.143c0,0,19.455,3.754,23.427,18.143" transform="translate(-1078.011 -249.533)" fill="#cbd13a" stroke="#000" stroke-miterlimit="10" stroke-width="0.25"/>
      <path id="Path_10721" data-name="Path 10721" d="M1096.855,289.958s15.347,7.248,29.627-15.068c0,0-23.607,2.516-29.627,15.068" transform="translate(-1070.43 -248.538)" fill="#cbd13a" stroke="#000" stroke-miterlimit="10" stroke-width="0.25"/>
      <path id="Path_10722" data-name="Path 10722" d="M1100.583,262.786c-15.538,52.815,20.959,98.5,20.959,98.5" transform="translate(-1070.489 -254.328)" fill="none" stroke="#000" stroke-miterlimit="10" stroke-width="0.25"/>
      <path id="Path_10723" data-name="Path 10723" d="M1095.048,257.065s.219,7.874,6.28,8.91C1101.328,265.975,1102.957,260.074,1095.048,257.065Z" transform="translate(-1071.295 -257.065)" fill="#cbd13a" stroke="#000" stroke-miterlimit="10" stroke-width="0.25"/>
      <path id="Path_10724" data-name="Path 10724" d="M1099.293,264.688s6.02,2.806,10.467-4.947C1109.76,259.742,1102.438,259.164,1099.293,264.688Z" transform="translate(-1069.264 -255.793)" fill="#cbd13a" stroke="#000" stroke-miterlimit="10" stroke-width="0.25"/>
      <path id="Path_10725" data-name="Path 10725" d="M1097.139,276.863s10.18,3.227,18.349-10.56C1115.489,266.3,1100.682,266.327,1097.139,276.863Z" transform="translate(-1070.295 -252.646)" fill="#cbd13a" stroke="#000" stroke-miterlimit="10" stroke-width="0.25"/>
      <path id="Path_10726" data-name="Path 10726" d="M1087.086,264.1s4.479,14.946,14.862,13.819C1101.948,277.918,1101.082,267.232,1087.086,264.1Z" transform="translate(-1075.104 -253.7)" fill="#cbd13a" stroke="#000" stroke-miterlimit="10" stroke-width="0.25"/>
      <path id="Path_10727" data-name="Path 10727" d="M1078.981,288.363s11.188,20.521,29.59,16.283C1108.571,304.646,1101.467,288.852,1078.981,288.363Z" transform="translate(-1078.981 -242.093)" fill="#cbd13a" stroke="#000" stroke-miterlimit="10" stroke-width="0.25"/>
      <path id="Path_10728" data-name="Path 10728" d="M1131.578,284.244s-15.44,24.349-32.251,22.5C1099.328,306.739,1098.653,291.385,1131.578,284.244Z" transform="translate(-1069.248 -244.063)" fill="#cbd13a" stroke="#000" stroke-miterlimit="10" stroke-width="0.25"/>
      <path id="Path_10729" data-name="Path 10729" d="M1079.217,303.38s20.511,24.089,37.424,16.079C1116.641,319.459,1109.973,302.051,1079.217,303.38Z" transform="translate(-1078.868 -234.943)" fill="#cbd13a" stroke="#000" stroke-miterlimit="10" stroke-width="0.25"/>
      <path id="Path_10730" data-name="Path 10730" d="M1104.531,324.916s22.7.377,37.02-33.015C1141.551,291.9,1104.436,305.246,1104.531,324.916Z" transform="translate(-1066.759 -240.4)" fill="#cbd13a" stroke="#000" stroke-miterlimit="10" stroke-width="0.25"/>
    </g>
    <g id="Group_3293" data-name="Group 3293" transform="translate(1067.765 146.767)">
      <path id="Path_10731" data-name="Path 10731" d="M1148.247,460.342c13.6,31.933,147.046,26.194,150.329-9.567,2.411-26.271-6.088-109.919-57.338-112.526S1137.553,435.232,1148.247,460.342Z" transform="translate(-1029.934 -55.188)" fill="#cbd13a" stroke="#000" stroke-miterlimit="10" stroke-width="0.25"/>
      <path id="Path_10732" data-name="Path 10732" d="M1067.784,390.422c-.559-8.413,11.218-8.409,15.278-7.581,4.3.875,18.851,4.679,41.754,14.51,21.854,9.38,29.945,12.052,29.307,18.506-1.109,11.234-7.9,16.267-20.39,12.488C1120.719,424.407,1068.615,402.9,1067.784,390.422Z" transform="translate(-1067.765 -34)" fill="#ecb36f" stroke="#000" stroke-miterlimit="10" stroke-width="0.25"/>
      <path id="Path_10733" data-name="Path 10733" d="M1100.051,406.35c-.56-8.412,11.218-8.409,15.276-7.581,4.3.875,18.851,4.679,41.754,14.51,21.854,9.38,29.945,12.052,29.307,18.508-1.109,11.233-7.9,16.265-20.39,12.486C1152.985,440.335,1100.88,418.823,1100.051,406.35Z" transform="translate(-1052.329 -26.38)" fill="#ecb36f" stroke="#000" stroke-miterlimit="10" stroke-width="0.25"/>
      <path id="Path_10734" data-name="Path 10734" d="M1232.037,204.473c-1.591-14.8-18.5-11.523-23.183-29.9-2.554-10.023-6.935-30.348-28.293-27.541-19.386,2.549-19.629,37.52-27.038,46.568-6.477,7.912-8.406,25.922,18.261,30.659-1.5,3.968-3.382,9.04-5.5,14.958a171.581,171.581,0,0,1,2.042,19.234c.293,6.217,10.689,11.622,16.19.055,3.789-7.966,11.208-21.666,16.214-25.511-1.334-2.76-2.7-5.356-4.1-7.841C1227.026,223.312,1232.876,212.277,1232.037,204.473Z" transform="translate(-1028.703 -146.767)" fill="#fff" stroke="#000" stroke-linejoin="round" stroke-width="0.25"/>
      <path id="Path_10735" data-name="Path 10735" d="M1269.656,338.273l-104.8-34.692s-55.3,17.043-68.953,61.884l123.807,57.216s8.1-10.409,23.224-21.5c30.227-22.157,37.666-54.484,26.719-62.911" transform="translate(-1054.303 -71.749)" fill="#60472a" stroke="#000" stroke-miterlimit="10" stroke-width="0.25"/>
      <g id="Group_3289" data-name="Group 3289" transform="translate(94.389 112.896)">
        <path id="Path_10736" data-name="Path 10736" d="M1143.457,253.571a14.211,14.211,0,0,0,8.826.991c5.166-.993,9.775-31.43,9.775-31.43S1144.967,244.149,1143.457,253.571Z" transform="translate(-1125.944 -223.131)" fill="#fff" stroke="#000" stroke-linejoin="round" stroke-width="0.25"/>
        <path id="Path_10737" data-name="Path 10737" d="M1156.426,253.571l0-.033a24.542,24.542,0,0,1-8.308-.705,3.84,3.84,0,0,1-1.579-.866c-1.477,4.045-14.328,39.937-14.9,64.744-.581,25.354,5.622,41.429,23.023,36.237,9.8-2.926-3.083-23.688-5.844-40.87C1145.8,293.226,1153.967,266.872,1156.426,253.571Z" transform="translate(-1131.611 -209.336)" fill="#fff" stroke="#000" stroke-linejoin="round" stroke-width="0.25"/>
        <path id="Path_10738" data-name="Path 10738" d="M1144.711,243.721a24.743,24.743,0,0,0-3.8,8.589,3.786,3.786,0,0,0,1.215,3.6,3.84,3.84,0,0,0,1.579.866,24.544,24.544,0,0,0,8.309.705c.386-.034.755-.035,1.15-.092l.37-12.68A14.211,14.211,0,0,1,1144.711,243.721Z" transform="translate(-1127.198 -213.281)" fill="#fff" stroke="#000" stroke-linejoin="round" stroke-width="0.25"/>
      </g>
      <path id="Path_10739" data-name="Path 10739" d="M1188.7,230.6c-5.5,11.567-15.9,6.162-16.19-.055a171.616,171.616,0,0,0-2.042-19.234c-13.953,38.914-37.965,113.578-27.02,139.383l104.8,34.692c-2.058-16.6-9.762-130.457-43.331-180.3C1199.9,208.936,1192.486,222.636,1188.7,230.6Z" transform="translate(-1032.889 -118.865)" fill="#ecb36f" stroke="#000" stroke-miterlimit="10" stroke-width="0.25"/>
      <path id="Path_10740" data-name="Path 10740" d="M1153.269,257.36c.525.015,9.3,5.117,30.464,2.813,0,0,5.134,43.762-17.909,41.177C1144.693,298.981,1153.269,257.36,1153.269,257.36Z" transform="translate(-1027.685 -93.861)" fill="#ffeed6" stroke="#000" stroke-miterlimit="10" stroke-width="0.25"/>
      <path id="Path_10741" data-name="Path 10741" d="M1165.046,443.419c6.069,3.088,22.918,11.381,27.582,13.084,7.633,2.79,4.312-17.761,33.076-54.223l-121.3-56.054s-21.774,19.022-21.007,53.523c.072,3.264,3.949,4.571,14.3,10.1C1121.111,422.355,1154.631,438.1,1165.046,443.419Z" transform="translate(-1060.294 -51.349)" fill="#ffeed6" stroke="#000" stroke-miterlimit="10" stroke-width="0.25"/>
      <path id="Path_10742" data-name="Path 10742" d="M1122.984,372.952s6.736-27.743,36.782-46.349" transform="translate(-1041.349 -60.736)" fill="none" stroke="#000" stroke-miterlimit="10" stroke-width="0.25"/>
      <path id="Path_10743" data-name="Path 10743" d="M1111.451,417.6c2.3-39.65,20.58-58.541,20.58-58.541" transform="translate(-1046.866 -45.21)" fill="none" stroke="#000" stroke-miterlimit="10" stroke-width="0.25"/>
      <ellipse id="Ellipse_1804" data-name="Ellipse 1804" cx="3.595" cy="1.505" rx="3.595" ry="1.505" transform="translate(143.714 45.458) rotate(-88.326)"/>
      <ellipse id="Ellipse_1805" data-name="Ellipse 1805" cx="3.595" cy="1.505" rx="3.595" ry="1.505" transform="translate(152.884 45.726) rotate(-88.326)"/>
      <g id="Group_3291" data-name="Group 3291" transform="translate(52.726 217.907)">
        <g id="Group_3290" data-name="Group 3290" transform="translate(0 0)">
          <rect id="Rectangle_198" data-name="Rectangle 198" width="6.323" height="175.07" transform="translate(0 6.16) rotate(-76.969)" fill="#ffeed6" stroke="#000" stroke-miterlimit="10" stroke-width="0.25"/>
        </g>
        <path id="Path_10744" data-name="Path 10744" d="M1206.83,330.5l24.316-14.915,17.946,48.658-7.8,6.728S1218.113,359.692,1206.83,330.5Z" transform="translate(-1053.964 -283.912)" fill="#ecb36f" stroke="#000" stroke-miterlimit="10" stroke-width="0.25"/>
        <circle id="Ellipse_1806" data-name="Ellipse 1806" cx="1.886" cy="1.886" r="1.886" transform="translate(172.779 42.536)" fill="#ffeed6" stroke="#000" stroke-miterlimit="10" stroke-width="0.25"/>
      </g>
      <g id="Group_3292" data-name="Group 3292" transform="translate(134.89 115.441)">
        <path id="Path_10745" data-name="Path 10745" d="M1203.029,256.576c.717-18.938-5.568-31.914-11.7-31.722-11.945.375-12.383,31.75-12.383,31.75C1190.659,254.112,1203.029,256.576,1203.029,256.576Z" transform="translate(-1149.466 -224.853)" fill="#fff" stroke="#000" stroke-linejoin="round" stroke-width="0.25" opacity="0.95"/>
        <path id="Path_10746" data-name="Path 10746" d="M1210.323,256.995a13.293,13.293,0,0,1-10.6,3.9q-.5-.044-.98-.1a13.02,13.02,0,0,1-7.244-3.329c-.034.027-.068.044-.1.072,0,0-15.134,66.331-28.311,84.324s8.649,25.314,21.738,21.162,21.088-32.286,24.536-58c3.859-28.768.97-48.028.97-48.028Z" transform="translate(-1159.006 -209.476)" fill="#fff" stroke="#000" stroke-linejoin="round" stroke-width="0.25"/>
        <path id="Path_10747" data-name="Path 10747" d="M1204.951,251.479a13.491,13.491,0,0,0-1.485-4.817s-12.37-2.464-24.08.028a20.959,20.959,0,0,0-1.109,3.888,13.311,13.311,0,0,0,4.119,12.35,13.021,13.021,0,0,0,7.244,3.329q.481.058.98.1a13.293,13.293,0,0,0,10.6-3.9A12.986,12.986,0,0,0,1204.951,251.479Z" transform="translate(-1149.903 -214.939)" fill="#fff" stroke="#000" stroke-linejoin="round" stroke-width="0.25" opacity="0.95"/>
      </g>
    </g>
    <g id="Group_3294" data-name="Group 3294" transform="translate(1320.022 427.95)">
      <path id="Path_10748" data-name="Path 10748" d="M1273.165,365.116h0l0,0a15.775,15.775,0,0,0-1.093-1.378,16.3,16.3,0,0,1-2.125-2.927,27.366,27.366,0,0,1-3.042-12.976c.019-.276.031-.556.031-.838,0-5.539-2.924-10.031-8.3-10.031s-8.3,4.491-8.3,10.031c.389,8.612-7.455,15.983-7.455,15.983h0a14.712,14.712,0,0,0-4.493,10.42c0,8.86,8.384,16.044,18.728,16.044s18.728-7.184,18.728-16.044A14.292,14.292,0,0,0,1273.165,365.116Z" transform="translate(-1238.395 -336.963)" fill="#cbd13a" stroke="#000" stroke-miterlimit="10" stroke-width="0.25"/>
      <path id="Path_10749" data-name="Path 10749" d="M1254.824,348.909s1.61,34.816-10.446,44.4" transform="translate(-1235.533 -331.248)" fill="none" stroke="#000" stroke-miterlimit="10" stroke-width="0.25"/>
      <path id="Path_10750" data-name="Path 10750" d="M1248.713,354.711a3.73,3.73,0,0,0,3.795,2.705,4.811,4.811,0,0,0,4.338-2.705" transform="translate(-1233.459 -328.473)" fill="none" stroke="#000" stroke-miterlimit="10" stroke-width="0.25"/>
      <path id="Path_10751" data-name="Path 10751" d="M1245.905,363.351s1.144,3.69,6.265,4.178a7.712,7.712,0,0,0,7.578-4.178" transform="translate(-1234.802 -324.339)" fill="none" stroke="#000" stroke-miterlimit="10" stroke-width="0.25"/>
    </g>
    <g id="Group_3295" data-name="Group 3295" transform="translate(1240.806 479.534)">
      <path id="Path_10752" data-name="Path 10752" d="M1191.37,462.333h0l-4.562-3.34a4.873,4.873,0,0,1,1.419-8.581l5.4-1.7-4.315-3.733a4.874,4.874,0,0,1,2.092-8.434l5.557-1.283-3.953-4.015a4.873,4.873,0,0,1,2.788-8.243l5.573-.791-3.464-4.262a4.873,4.873,0,0,1,3.615-7.943l5.479-.188-2.788-4.445a4.873,4.873,0,0,1,4.651-7.435l5.2.563-1.869-4.494a4.874,4.874,0,0,1,5.952-6.523l4.623,1.441-.727-4.336a4.873,4.873,0,0,1,7.405-4.929l3.7,2.334.508-4.141a4.872,4.872,0,0,1,8.543-2.571l2.71,3.177,1.665-3.724a4.873,4.873,0,0,1,8.934.083l1.555,3.662,2.29-2.618a4.873,4.873,0,0,1,8.529,2.859l.25,3.47,3.316-1.909a4.872,4.872,0,0,1,7.167,5.365l-.9,3.748,4.3-1.107a4.873,4.873,0,0,1,5.566,6.911l-2.01,3.993,4.883-.3a4.874,4.874,0,0,1,4.24,7.723l-2.879,3.975,5.148.381a4.872,4.872,0,0,1,3.234,8.149l-3.49,3.816,5.242.914a4.873,4.873,0,0,1,2.462,8.387l-3.922,3.606,5.238,1.335a4.874,4.874,0,0,1,1.836,8.532l-4.228,3.372,5.158,1.682a4.873,4.873,0,0,1,1.279,8.629l-4.449,3.1h0a7.779,7.779,0,0,1-6.125,12.551l-100.821.234A8.365,8.365,0,0,1,1191.37,462.333Z" transform="translate(-1184.812 -371.856)" fill="#4b8e32" stroke="#000" stroke-miterlimit="10" stroke-width="0.25"/>
      <path id="Path_10753" data-name="Path 10753" d="M1219.408,413.707s-7.769-6.432-3.5-10.7c3.278-3.278,9.831,3.867,9.831,3.867" transform="translate(-1170.549 -357.367)" fill="#4b8e32" stroke="#000" stroke-miterlimit="10" stroke-width="0.25"/>
      <path id="Path_10754" data-name="Path 10754" d="M1247.453,418.029s2.66-5.318,5.943-3.44-.782,9.07-.782,9.07" transform="translate(-1154.846 -351.605)" fill="#4b8e32" stroke="#000" stroke-miterlimit="10" stroke-width="0.25"/>
    </g>
  </g>
</svg>
