<svg xmlns="http://www.w3.org/2000/svg" width="273.611" height="359.001" viewBox="0 0 273.611 359.001">
  <g id="Group_3946" data-name="Group 3946" transform="translate(-2056.385 -171.894)">
    <ellipse id="Ellipse_2730" data-name="Ellipse 2730" cx="2.746" cy="1.452" rx="2.746" ry="1.452" transform="translate(2219.83 527.865)" fill="#c19165" stroke="#000" stroke-linejoin="round" stroke-width="0.25"/>
    <g id="Group_3955" data-name="Group 3955" transform="translate(2056.51 172.06)">
      <g id="Group_3946-2" data-name="Group 3946" transform="translate(71.543)">
        <path id="Path_15248" data-name="Path 15248" d="M2136.431,192.267c.123-.611-1.868-4.824,2.077-9.407,4.52-5.253,9.163-1.344,15.882-3.543s6.422-6.023,12.828-7.086a10.221,10.221,0,0,1,11.607,6.476c1.662,4.09,4.52,5.742,6.963,5.742s-5.131,24.311-5.131,24.311-11.851,9.407-13.683,8.8-20.281-13.072-20.281-13.072Z" transform="translate(-2136.036 -172.06)" fill="#ddd658" stroke="#000" stroke-linejoin="round" stroke-width="0.25"/>
      </g>
      <ellipse id="Ellipse_2731" data-name="Ellipse 2731" cx="1.894" cy="3.022" rx="1.894" ry="3.022" transform="translate(93.284 11.474) rotate(-76.596)" fill="#dffffa" stroke="#231815" stroke-miterlimit="10" stroke-width="0.25"/>
      <g id="Group_3947" data-name="Group 3947" transform="translate(100.934 10.196)">
        <path id="Path_15249" data-name="Path 15249" d="M2175.083,218.722a15.938,15.938,0,0,1-2.177-8.291c0-5.054-4.276-5.287-4.2-9.174s5.754-3.343,7.931-7.7,2.8-7.853,10.729-8.941,12.907-3.11,15.861,2.877,2.254,5.443,9.175,7.386,8.008,5.409,9.8,10.868,4.277,2.971,4.9,9.89-20.153,28.839-20.153,28.839l-27.736,10.189-10.5-19.67Z" transform="translate(-2168.706 -183.394)" fill="#ddd658" stroke="#000" stroke-linejoin="round" stroke-width="0.25"/>
        <path id="Path_15250" data-name="Path 15250" d="M2184.958,215c1.8-.933,3.576,4.353,11.283,8.252a105.914,105.914,0,0,1,11.245,6.347l-6.076,4.081a58.736,58.736,0,0,0-8.7-8.7C2188.353,221.711,2183.559,215.727,2184.958,215Z" transform="translate(-2170.312 -186.555)" fill="#fff6eb" stroke="#000" stroke-miterlimit="10" stroke-width="0.25"/>
        <path id="Path_15251" data-name="Path 15251" d="M2195.992,197.41c.993-.776,2.72,1.83,7.617,9.733s7.98,13.888,8.251,17.516c0,0-3.083,1.723-3.264,1.179s-2.773-3.426-5.259-12.241C2200.625,203.984,2194.541,198.544,2195.992,197.41Z" transform="translate(-2171.423 -184.787)" fill="#fff6eb" stroke="#000" stroke-miterlimit="10" stroke-width="0.25"/>
        <path id="Path_15252" data-name="Path 15252" d="M2217.571,203.421c2.164.3,1.36,14.4.725,19.713,0,0-6.71,1.414-6.257,1.052s2.937-1,3.464-7.255S2215.576,203.15,2217.571,203.421Z" transform="translate(-2173.053 -185.403)" fill="#fff6eb" stroke="#000" stroke-miterlimit="10" stroke-width="0.25"/>
        <ellipse id="Ellipse_2732" data-name="Ellipse 2732" cx="3.715" cy="2.299" rx="3.715" ry="2.299" transform="translate(9.112 20.057)" fill="#dffffa" stroke="#231815" stroke-miterlimit="10" stroke-width="0.25"/>
        <ellipse id="Ellipse_2733" data-name="Ellipse 2733" cx="2.18" cy="1.675" rx="2.18" ry="1.675" transform="translate(10.683 12.492)" fill="#dffffa" stroke="#231815" stroke-miterlimit="10" stroke-width="0.25"/>
      </g>
      <g id="Group_3948" data-name="Group 3948" transform="translate(19.457 15.388)">
        <path id="Path_15253" data-name="Path 15253" d="M2106.726,404.847s-5.993-1.5-8.54-5.843-.373-7.865-5.842-13.333c-2.547-2.547-7.941-9.738-7.641-18.128s-4.943-7.79-6.292-16.779,2.846-9.738,1.2-18.878,0-11.329,1.2-15.552-2.548-7.969-.9-15.01,3.3-9.439,1.5-14.832,1.1-8.54,1.9-19.626-3.045-11.986,0-15.881,2.6-7.94,3.644-14.981,5.543-3,9.139-16.03,10.487-8.839,13.783-17.229,10.487-10.038,15.731-9.139,7.641-7.94,18.728-2.846,3,16.33,12.435,21.124,13.634,6.143,12.885,12.435-7.791,11.537-5.244,15.731,7.791-.449,9.739,8.09-20.983,132.6-20.983,132.6-19.7,17.424-23.083,23.174S2106.726,404.847,2106.726,404.847Z" transform="translate(-2078.139 -189.165)" fill="#bfc632" stroke="#231815" stroke-miterlimit="10" stroke-width="0.25"/>
        <path id="Path_15254" data-name="Path 15254" d="M2130.371,196.649c1.883,1.215-5.678,18.862-6.9,34.48,0,0,4.462-6.9,9.532-15.009s6.58-12.321,7.884-12.032-.87,3.769-2.971,8.551-7.245,17.464-10,22.1-4.446,7.536-4.446,7.536-.626,17.319.388,17.319,5.87-7.754,8.985-13.623,6.594-11.087,9.2-16.884,5.724-13.044,6.811-12.9-2.9,13.768-6.884,21.449-9.927,19.058-11.884,22.68-4.854,7.464-5,10.072.724,7.319.435,9.783,2.246.725,5.072-3.7,6.884-13.913,10.653-19.13,12.319-21.595,13.985-21.522-2.029,10.072-4.782,15.217-7.463,13.623-10.362,18.7-10.724,18.405-11.739,20.942a49.666,49.666,0,0,0,.29,7.1c.436,3.406-.29,6.3.8,6.522s3.334-2.682,7.536-10.073,6.594-12.391,12.1-20.289,7.681-13.044,9.13-12.463-.218,6.014-3.188,11.666-5.58,13.623-7.9,16.594-6.884,13.044-10.145,17.9-6.448,8.841-6.739,11.014,1.313,8.721,2.215,13.457-3.762,77.688-5.181,78.3-6.891,4.864-13.581,2.229-7.094-3.762-9.932-14.346-1.982-25.266-4.424-29.116-8.545-7.605-11.267-12.394a28.74,28.74,0,0,1-3.85-14.178c-.187-5.164-.657-8.638,0-8.544s2.441,4.038,5.07,11.924,8.075,17.934,11.737,18.591c0,0-.094-12.769.281-18.309s1.033-7.042-2.911-10.047-6.385-10.985-8.826-17.652-5.164-21.6-3.192-22.159,3.756,11.643,8.732,21.972,5.258,12.676,8.357,13.332c0,0,1.5-9.671,1.5-14.272s-.938-4.414-3.662-7.793-5.634-10.985-7.605-16.337-4.226-16.432-4.883-21.033,0-7.793,1.221-4.976a81.41,81.41,0,0,1,4.414,12.488c2.065,7.23,6.291,18.122,10.892,22.441a106.367,106.367,0,0,0,1.69-13.615c.188-5.821-.751-4.226-3.568-8.92s-6.76-16.057-8.262-22.16-2.348-12.113-1.127-12.206,2.535,10.329,6.1,16.432,4.789,14.085,8.169,16.432,1.314-3.568,2.535-9.765-1.6-6.009-3.1-10.046-5.539-10.7-7.042-19.718-1.409-14.366-.376-14.648,2.723,14.835,5.258,21.408,4.789,12.3,7.324,12.3,1.126-4.038,2.723-8.826,2.254-7.324.094-10.517-3.849-10.985-4.6-16.9-1.409-7.23-.094-7.042.939,4.226,3.287,9.483,3.1,7.605,4.319,8.169a35.588,35.588,0,0,1,2.253-8.357c1.5-3.1,1.6-7.042,3.286-11.08S2129.293,195.954,2130.371,196.649Z" transform="translate(-2078.715 -189.914)" fill="#fff6eb" stroke="#000" stroke-miterlimit="10" stroke-width="0.25"/>
        <ellipse id="Ellipse_2734" data-name="Ellipse 2734" cx="2.061" cy="1.359" rx="2.061" ry="1.359" transform="translate(25.755 32.527)" fill="#dffffa" stroke="#231815" stroke-miterlimit="10" stroke-width="0.25"/>
        <ellipse id="Ellipse_2735" data-name="Ellipse 2735" cx="1.923" cy="1.008" rx="1.923" ry="1.008" transform="translate(76.982 34.998) rotate(-24.228)" fill="#dffffa" stroke="#231815" stroke-miterlimit="10" stroke-width="0.25"/>
        <ellipse id="Ellipse_2736" data-name="Ellipse 2736" cx="2.222" cy="1.186" rx="2.222" ry="1.186" transform="translate(82.288 40.855) rotate(-41.149)" fill="#dffffa" stroke="#231815" stroke-miterlimit="10" stroke-width="0.25"/>
      </g>
      <g id="Group_3950" data-name="Group 3950" transform="translate(57.171 38.357)">
        <g id="Group_3949" data-name="Group 3949" transform="translate(84.676)">
          <path id="Path_15255" data-name="Path 15255" d="M2276.008,415.682l53.375-62.142-2.035-34.583a66.528,66.528,0,0,0-2.268-18.847c-.785-2.617-1.464-4.661-2.012-6.486a39.028,39.028,0,0,0-10.058-7.325c-6.946-3.251-10.049-4.286-18.694-11.675s-17.069-13.521-14.7-15.147c1.646-1.132,6.724,6.8,13.966,10.936s7.685,6.945,16.625,10.419c5.769,2.241,9.072,4.359,11.506,6.432a38.431,38.431,0,0,1,.122-7.536c.818-8.454-4.4-11.881-8.619-18.941a73.344,73.344,0,0,0-12.459-6.766c-9.694-4.177-14.763-3.468-24.248-11.428s-7.83-8.591-7.83-8.591c1.261-1.654,5.438,4.65,13.32,9.537s13.95,5.754,20.1,7.014a22.039,22.039,0,0,1,8.466,3.231c-.713-5.612,1.665-10.054-3.695-16.1-6.893-7.779-14.77-3.15-23.239-11.029s-11.817-8.37-19.4-9.453-9.157,2.56-16.838-.886a19.114,19.114,0,0,0-20.088,3.052c-2.682,2.282-7.922,2.883-13.115,4.169,3.919,3.283,6.373,5.621,11.36,2.919,6.133-3.324,14.974-7.858,25.689-.7,11.43,7.638,9.876,19.375,16.534,26.2s14.292,11.044,13.155,19.975-2.6,10.393,2.6,21.274a43.15,43.15,0,0,1,4.385,20.3S2280.985,369.674,2276.008,415.682Zm12.4-129.826c1.376-1.232,2.439,1.847,7.611,5.246s4.581,5.985,14.187,10.493,7.832,8.645,7.832,8.645-10.345-4.36-10.492-4.581-3.029-2.882-6.724-6.207-3.769-4.8-6.281-7.02S2287,287.112,2288.4,285.856Z" transform="translate(-2214.183 -214.697)" fill="#bfc632" stroke="#231815" stroke-miterlimit="10" stroke-width="0.25"/>
          <path id="Path_15256" data-name="Path 15256" d="M2288.062,245.663c-7.882-4.887-12.059-11.191-13.32-9.537,0,0-1.655.631,7.83,8.591s14.554,7.251,24.248,11.428a73.345,73.345,0,0,1,12.459,6.766c-.351-.588-.7-1.193-1.031-1.837a15.133,15.133,0,0,1-1.623-5.167,22.039,22.039,0,0,0-8.466-3.231C2302.012,251.417,2295.943,250.55,2288.062,245.663Z" transform="translate(-2220.25 -216.821)" fill="#ddd658" stroke="#000" stroke-linejoin="round" stroke-width="0.25"/>
          <path id="Path_15257" data-name="Path 15257" d="M2300.832,275.4c-7.242-4.138-12.32-12.068-13.966-10.936-2.364,1.626,6.059,7.758,14.7,15.147s11.748,8.424,18.694,11.675a39.028,39.028,0,0,1,10.058,7.325,32.138,32.138,0,0,1-1.359-6.36c-2.434-2.074-5.737-4.191-11.506-6.432C2308.516,282.343,2308.073,279.535,2300.832,275.4Z" transform="translate(-2221.438 -219.681)" fill="#ddd658" stroke="#000" stroke-linejoin="round" stroke-width="0.25"/>
          <path id="Path_15258" data-name="Path 15258" d="M2302.791,300.341c2.512,2.217,2.586,3.695,6.281,7.02s6.576,5.985,6.724,6.207,10.492,4.581,10.492,4.581,1.774-4.137-7.832-8.645-9.014-7.094-14.187-10.493-6.234-6.477-7.611-5.246C2295.255,295.021,2300.279,298.125,2302.791,300.341Z" transform="translate(-2222.437 -222.605)" fill="#ddd658" stroke="#000" stroke-linejoin="round" stroke-width="0.25"/>
        </g>
        <path id="Path_15259" data-name="Path 15259" d="M2184.075,244.792c-8.271,5.711-10.044,7.68-11.915,11.127s-.1,5.712-3.545,10.832a232.427,232.427,0,0,1-16.936,21.663c-5.515,6.007.394,9.453-4.235,16.346s-10.339,13.884-10.044,19.2.1,6.4-5.12,12.9-.887,14.672-3.94,24.224-5.711,10.437-7.779,20.482,2.859,12.958,3.743,20.777-1.182,7.188-2.758,17.527,2.32,11.127,5.05,13.491,1.744,5.515.464,9.059.394,6.6,4.235,7.484-.2,4.53,6.1,7.582,6.5,5.908,6.5,5.908,13.459.123,14.248,0,19.259-4.849,19.259-4.849l48.153,5.679,41-47.735c4.977-46.008,11.9-102.183,11.9-102.183a43.15,43.15,0,0,0-4.385-20.3c-5.2-10.881-3.735-12.342-2.6-21.274s-6.5-13.154-13.155-19.975-5.1-18.557-16.534-26.2c-10.714-7.159-19.556-2.624-25.689.7-4.987,2.7-7.441.363-11.36-2.919-3.772.933-7.521,2.224-10.245,4.792C2188.014,235.24,2192.347,239.081,2184.075,244.792Z" transform="translate(-2120.06 -215.506)" fill="#ddd658" stroke="#000" stroke-linejoin="round" stroke-width="0.25"/>
      </g>
      <g id="Group_3951" data-name="Group 3951" transform="translate(63.707 55.879)">
        <path id="Path_15260" data-name="Path 15260" d="M2267.7,318.086s.818-2.454-2.542-6.895.48-8.041-1.8-19.082-9.48-8.04-11.041-19.321.84-13.561-2.64-19.561-12.961-5.641-20.161-13.2-12.841-6.3-17.042-4.408-6.809,9.569-15.526,10.769-13.4,12.721-15.077,18.842-5.281,8.52-11.761,13.2-6.841,11.521-9.121,18.721-6.841,2.761-9.12,16.682-7.681,12.361-10.8,20.282,1.08,11.736-3.361,17.749-3.6,9.373-3.72,15.134-5.881,12.361-3.72,21.121-4.541,20.721-2.571,28.062,5.451,9.5,5.451,9.5-3.36,4.68,3.121,12.721,0,13.922,6.96,18.6,7.8.721,13.921,10.8l24.586,2,57.213-10.171,26.649-112.769Z" transform="translate(-2127.326 -234.173)" fill="#fff6eb" stroke="#000" stroke-miterlimit="10" stroke-width="0.25"/>
        <path id="Path_15261" data-name="Path 15261" d="M2257.063,335.594s2.439-6.146,1.392-11.945-6.845-9.1-5.718-16.671,3.544-13.852-2.979-21.423-.4-18.765-7.731-23.275-7.893-1.127-13.047-5.316-6.684-5.154-11.275-4.832-6.846,2.416-9.181,6.282-3.222,4.43-6.684,5.315-9.191,1.59-14.265,10.046-5.678,12.093-11.235,15.555a18.088,18.088,0,0,0-8.486,10.8c-1.215,3.554-1.047,7.328-5.4,12.322s-8.39,6.78-7.494,17.977l-13.213,36.28-1.344,47.477,15.9,43.63,9.592,7.524,36.881,5.316s29.272,2.219,28.887,1.617S2257.063,335.594,2257.063,335.594Z" transform="translate(-2128.638 -235.97)" fill="#ddd658" stroke="#000" stroke-linejoin="round" stroke-width="0.25"/>
        <path id="Path_15262" data-name="Path 15262" d="M2201.992,481.562s10.69,1.2,19.875-10.39,11.913-73.042,16.705-86.329,2.443-22.961-.506-29.36-4.264-9.336-1.53-16.122,6.179-11.343.1-19.345-2.229-14.281-1.924-22.992-9.419-13.166-15.9-9.317-10.635,6.887-14.078,4.355-8.305,2.735-12.559,11.445-8.2,22.181-15.8,24.814-10.938,6.786-11.85,16,.4,15.9-7.7,27.65-3.24,20.864-2.025,29.474-2.837,8-3.748,16.813,5.166,8,6.482,20.358,1.013,12.965,5.368,19.548,4.052,10.613,4.052,10.613Z" transform="translate(-2129.698 -239.407)" fill="#fff6eb" stroke="#000" stroke-miterlimit="10" stroke-width="0.25"/>
        <path id="Path_15263" data-name="Path 15263" d="M2241.679,269.083c2.1-1.309,2.874.233,4.505,3.029s4.194,10.027,6.447,18.879,5.708,15.408,6.042,32.069,0,21.346,0,21.346-6.9.313-6.4-.464.27-10.774,0-23.881-4.137-24.756-5.6-32.212C2244.345,275.965,2238.458,271.088,2241.679,269.083Z" transform="translate(-2138.709 -237.63)" fill="#fff6eb" stroke="#000" stroke-miterlimit="10" stroke-width="0.25"/>
        <path id="Path_15264" data-name="Path 15264" d="M2210.11,267.861c2.1.73-4.068,5.076-12.934,13.629s-19.591,22.916-24.4,29.034-14.613,23.433-17.741,30.839-10.431,25.763-11.579,42.87,2.5,34.422,5.529,47.878,11.265,29,15.125,32.648l-2.5,2.159s-5.528-1.95-10.848-9.46-10.014-21.592-11.891-29.1-3.025-30.459-1.877-41.2,3.1-16.187,6.5-30.549,11.174-27.04,17.222-37.5,16.252-21.127,21.543-28.2S2205.84,266.378,2210.11,267.861Z" transform="translate(-2128.25 -237.546)" fill="#fff6eb" stroke="#000" stroke-miterlimit="10" stroke-width="0.25"/>
        <path id="Path_15265" data-name="Path 15265" d="M2225.561,308.6c1.877-1.7,3.672,4.372,4.9,10.144s3.323,27.457,2.1,50.018-4.065,43.724-5.793,59.988-4.351,22.911-5.051,28.158-4.654,11.761-10.917,13.772l-1.38-2.022s4.565-3.078,7.112-11.782a164.589,164.589,0,0,0,6.368-30.466c1.168-11.677,2.123-20.063,3.5-32.8s2.133-39.909,2.567-50.411C2229.885,320.962,2222.9,311,2225.561,308.6Z" transform="translate(-2135.565 -241.615)" fill="#ddd658" stroke="#000" stroke-linejoin="round" stroke-width="0.25"/>
        <path id="Path_15266" data-name="Path 15266" d="M2170.535,383.041c2.077-6.024,8.781-24.489,15.123-37.464s13.269-20.391,19.219-28,11.1-9.874,10.342-11.61c-.536-1.222-6.673,1.026-11.513,6.557a171.027,171.027,0,0,0-18.929,27.227,335.937,335.937,0,0,0-14.867,31.4c-4.754,11.65-8.816,27.814-9.422,35.42s-.864,23.77.778,31.722.432,10.286,2.939,16.6,5.186,7.952,5.963,11.582c0,0,2.853-2.074,2.766-2.334a41.7,41.7,0,0,1-5.7-13.829,129.477,129.477,0,0,1-1.815-23.684C2165.588,420.4,2165.357,398.061,2170.535,383.041Z" transform="translate(-2130.608 -241.347)" fill="#ddd658" stroke="#000" stroke-linejoin="round" stroke-width="0.25"/>
        <path id="Path_15267" data-name="Path 15267" d="M2211.682,335.065c6.12-.85,10.652,4.946,7.152,15.6s-2.587,15.6-1.065,18.946,2.263,4.109-.542,9.967-.371,14.533.619,19.707-.185,7.838-1.538,11.87-2.647,8.446.472,12.707-.978,6.01-2.885,13.239,1.212,7.913.6,11.414-3.272,5.241-3.347,9.392,1.9,5.978.608,8.717-2.815,5.182-8.142,7.042-26.718-9.649-26.718-9.649a13.272,13.272,0,0,1-3.6-5.326c-1.062-3.188-.212-4.039-1.276-10.2s-2.552-8.823-1.594-19.453-1.276-10.752.212-16.856,3.615-8.443,3.615-16.946.318-12.331,5.846-18.815,6.91-7.122,9.354-13.181,2.25-8.76,5.627-13.434,9.832-3.3,11.118-7.741C2207.174,338.7,2208.4,335.521,2211.682,335.065Z" transform="translate(-2131.62 -244.292)" fill="#ddd658" stroke="#000" stroke-linejoin="round" stroke-width="0.25"/>
        <path id="Path_15268" data-name="Path 15268" d="M2209.756,350.7c3.294.551,2.422,6.639.469,11.4s.469,7.264,2.265,10.465-.235,6.483.859,10.153-1.8,5.39-.391,10.388-3.247,7.783-3.125,11.558c.479,14.778-4.1,63.045-4.1,63.045s-19.556.985-22.271-1.782c-9.275-9.451-7.745-34.134-7.745-34.134s3.61-33.884,3.085-37.672-.45-7.479,5-13.474,5.53-8.358,9.317-11.759,3.333-4.31,5.076-7.871,5.075-4.217,7.121-7.146S2208.285,350.455,2209.756,350.7Z" transform="translate(-2132.173 -245.864)" fill="#fff6eb" stroke="#000" stroke-miterlimit="10" stroke-width="0.25"/>
        <path id="Path_15269" data-name="Path 15269" d="M2208.225,382.753c-.3-2.177,1.212-2.651,2.12-1.136s1.667,3.409,2.5,10.3,1.894,10.454,1.742,18.256.53,19.695-.985,27.951-.3,17.347-1.515,23.937-.726,9.838-3.082,12.278c0,0-4.188-2.051-3.621-2.884a19.465,19.465,0,0,0,2.991-8.258c.682-4.7,2.272-14.922,2.2-23.785s-.215-19.241-.6-25.6.221-11.362-.46-18.18S2208.68,386.01,2208.225,382.753Z" transform="translate(-2135.156 -248.885)" fill="#ddd658" stroke="#000" stroke-linejoin="round" stroke-width="0.25"/>
        <path id="Path_15270" data-name="Path 15270" d="M2189.064,380.728c.956.637.035,2.018-1.329,4.366s-3.333,6.287-5.227,14.09-3.457,14.393-4.077,23.862a210.856,210.856,0,0,0,.442,30.679c.833,7.2,2.644,13.017,4.428,15.22l-3.67-1.206a27.72,27.72,0,0,1-3.485-7.651c-1.212-4.394-.53-8.484-1.515-15.907s-.606-13.711,0-22.422,1.288-14.09,3.485-21.817S2187.514,379.695,2189.064,380.728Z" transform="translate(-2132.013 -248.878)" fill="#ddd658" stroke="#000" stroke-linejoin="round" stroke-width="0.25"/>
        <path id="Path_15271" data-name="Path 15271" d="M2197.25,381.2c2.11.444,1.515,3.181,1.212,9.544s2.879,5.682,4.166,9.545-.228,5.757,1.515,11.818-.373,7.309,1.061,12.744,1.212,6.648,1.061,10.89-3.219,35.755-3.219,35.755l-17.486-4.21a4.18,4.18,0,0,0-1.582-3.325c-1.734-1.428-1.236-4.183-.38-8.223s-1.473-6.845-1.569-12.6,3.47-11.172,2.139-15.83.047-12.311,2.519-16.637,4.183-7.035,3.946-13.215S2193.172,380.347,2197.25,381.2Z" transform="translate(-2132.816 -248.927)" fill="#ddd658" stroke="#000" stroke-linejoin="round" stroke-width="0.25"/>
        <path id="Path_15272" data-name="Path 15272" d="M2195.2,433.912c1.36-1,2.5,1.549,1.784,4.934s-2.083,5.273-1.042,7.551-.651,3.905-.39,6.9-1.745,5.208-.352,7.161-1.458,5.533,0,9.829v2.734s-2.838-.326-2.773-.716.908-2.279,0-9.113-.066-9.765,0-14.907-.915-4.737,1.238-9.569C2195.02,435.679,2193.941,434.839,2195.2,433.912Z" transform="translate(-2133.819 -254.2)" fill="#fff6eb" stroke="#000" stroke-miterlimit="10" stroke-width="0.25"/>
        <path id="Path_15273" data-name="Path 15273" d="M2195.74,411.827c1.316,1.152-.31,1.647-1.862,4.766s-3.14,4.236-4.023,9.649-2,14.357-1.412,19.3-.765,12.656,1.412,17.71,1.424,7.559,1.424,7.559-4.13-.674-4.072-.91-.353-2.824-1.883-7.826.412-8.237,0-13.65.47-6.708.354-10.062.47-11.3,2.471-16.063S2194.327,410.592,2195.74,411.827Z" transform="translate(-2133.087 -251.991)" fill="#fff6eb" stroke="#000" stroke-miterlimit="10" stroke-width="0.25"/>
        <path id="Path_15274" data-name="Path 15274" d="M2199.582,413.6c1.426-.62,2.119,1.883,2.824,4.472s1,4.825.942,10.768a168.7,168.7,0,0,1-1,17.946c-.824,8.3-.647,9.827-1.412,15.122s-2.354,9.12-2.354,10.708-4.883-1.62-4.883-1.62a24.775,24.775,0,0,0,3.425-8.912c1.106-5.649,2.517-9.355,2.753-14.121s.553-8.7.553-17.417C2200.429,418.953,2198.229,414.187,2199.582,413.6Z" transform="translate(-2133.988 -252.174)" fill="#fff6eb" stroke="#000" stroke-miterlimit="10" stroke-width="0.25"/>
      </g>
      <g id="Group_3952" data-name="Group 3952" transform="translate(147.376 125.948)">
        <path id="Path_15275" data-name="Path 15275" d="M2290.709,468s.538,1.347-2.154,4.442-2.154,4.307-2.154,4.307a58.972,58.972,0,0,0,9.119.238c2.54-3.092,5.709-6.061,9.485-7.442a9.886,9.886,0,0,0,5.759-4.719,50.759,50.759,0,0,1-12.248,2.5C2293.4,467.6,2290.709,468,2290.709,468Z" transform="translate(-2226.958 -327.395)" fill="#cad226" stroke="#231815" stroke-miterlimit="10" stroke-width="0.25"/>
        <path id="Path_15276" data-name="Path 15276" d="M2281.169,485.755c.078.946,3.811,1.8,7.835,2.237a18.253,18.253,0,0,1,1.676-3.35c.62-.964,1.337-2.053,2.138-3.186-3.821,0-6.468-.076-8.285-.681C2284.534,480.775,2281.035,484.14,2281.169,485.755Z" transform="translate(-2226.436 -328.996)" fill="#cad226" stroke="#231815" stroke-miterlimit="10" stroke-width="0.25"/>
        <path id="Path_15277" data-name="Path 15277" d="M2266.833,499.112c-4.852,4.763-8.43,7.38-11.836,9l.022.01c4.809,2.326,6.2-1.861,8.841-2.172s5.118-2.481,8.53-5.738,3.412-3.412,8.84-5.893c2.35-1.074,3.419-2.061,4.1-3.187a21.388,21.388,0,0,1-8.944-2A137.035,137.035,0,0,1,2266.833,499.112Z" transform="translate(-2223.81 -329.835)" fill="#cad226" stroke="#231815" stroke-miterlimit="10" stroke-width="0.25"/>
        <path id="Path_15278" data-name="Path 15278" d="M2297.746,452.032a65.892,65.892,0,0,1-4.308,10.23s6.94,1.5,19.217-1.942c.75-2.082,1.4-4.6,2.366-7.656a32.829,32.829,0,0,1,2.6-6.141,64.768,64.768,0,0,1-6.681,2.817C2305.552,451.224,2300.572,452.705,2297.746,452.032Z" transform="translate(-2227.668 -325.557)" fill="#cad226" stroke="#231815" stroke-miterlimit="10" stroke-width="0.25"/>
        <path id="Path_15279" data-name="Path 15279" d="M2339.669,334.412c-3-8.795-9.581-9.867-13.156-10.224s-5.506-1.931-6.221-6.293-5.005-4.575-10.725-4.218-6.221-2.574-12.084-1.287-5.578,3.718-8.509,7.579-6.793,3.575-11.941,5.935-3.147,4.29-6.436,8.366-9.581,5.506-13.37,6.293-4.719,1.788-7.579,4.79-4.433,5.863-4.576,11.8-2.217,7.793-6.721,12.942-4.719,10.3-1.43,16.088,4.862,13.871,3.432,19.448-7.221,8.867-7.15,12.227,3.861,7.293,3.146,11.083-6.935,5.148-7.721,8.294,1.286,4.719.714,8.724-9.152,6.935-9.009,13.728,5.792,10.01,4.147,12.942-1.072,5.22,1.573,7.15a5.809,5.809,0,0,1,2.017,2.9c.812-3.507,3.9-6.9,7.557-9.55,5.383-3.9,7.672-6.6,7.806-8.614s-2.154-7.538-1.884-12.652-1.212-13.6-1.346-17.229-.808-15.076,1.211-15.21,0,9.422,1.75,19.382,2.692,18.978,4.845,20.593a50.352,50.352,0,0,0,3.365-3.769c.134-.4-3.1-8.211-3.23-17.9s-1.75-14.4-1.346-19.786-.4-15.344,1.346-14.94.808,12.921,2.019,25.843,3.231,18.306,5.519,21.132c0,0,3.9-4.038,4.172-5.114s-2.558-9.826-2.826-15.21-1.616-7-2.02-11.576-1.211-30.824.808-31.093-.4,14.4,1.616,31.227,5.787,21,6.056,21.805,5.923-9.422,5.923-9.422-2.692-7.807-4.846-14.671-4.845-20.324-3.23-20.594,2.827,15.075,5.922,21.94,2.827,8.749,4.71,10.634l3.365-6.461s-3.769-13.864-6.6-20.593-5.923-26.785-4.307-26.92,3.634,15.614,6.326,25.978,5.424,15.479,7.154,17.229a74.9,74.9,0,0,0,6.172-17.5s-3.635-1.615-6.865-13.19-4.71-31.766-2.288-31.766.135,15.883,6.326,29.477,7.538,10.5,8.211,7.672,5.249-15.477,5.249-21.939c0,0-6.73-7.807-8.615-17.364s-1.884-13.191-.538-13.325.942,14.94,10.633,23.824a139.41,139.41,0,0,1,3.365-16.421c2.692-8.884,1.481-18.575,3.365-17.9,1.654.59,1.347,10.364.539,18.036s-2.289,15.479-1.885,16.826,4.576-3.231,8.076-8.346,5.519-7.134,7.942-10.364,2.961-5.115,3.769-4.307-4.576,9.826-7.4,14.267a124.031,124.031,0,0,1-12.452,15.479s1.332,15.617-.418,24.905c0,0,2.237.265,7.89-3.907s8.644-5.653,12.465-9.557,5.706-6.007,6.379-4.955-1.71,7.911-13.661,16.426c-8.652,6.165-13.6,8.367-13.6,8.367s-1.951,12.332-3.836,19.6c0,0,5.518-1.077,11.306-6.461s10.23-9.723,14.537-13.139,4.719-3.821,5.32-3.148-2.9,6.057-6.263,10.365-11.575,9.557-15.479,12.383-7.941,5.653-10.9,6.191l-2.692,8.48a96.876,96.876,0,0,0,13.325-3.768c3.036-1.125,5.2-2,6.723-2.541a27.157,27.157,0,0,1,6.706-5.873c4.808-3.1,7.056-6.635,9.272-12.868s7.618-8.173,8.726-13.575-.934-6.747-1.506-13.969,2.789-9.724,3.79-13.728-2.36-5.72-2.861-12.8S2342.672,343.207,2339.669,334.412Z" transform="translate(-2220.33 -312.061)" fill="#bfc632" stroke="#231815" stroke-miterlimit="10" stroke-width="0.25"/>
        <ellipse id="Ellipse_2737" data-name="Ellipse 2737" cx="2.869" cy="1.769" rx="2.869" ry="1.769" transform="translate(29.899 51.19)" fill="#dffffa" stroke="#231815" stroke-miterlimit="10" stroke-width="0.25"/>
        <ellipse id="Ellipse_2738" data-name="Ellipse 2738" cx="1.769" cy="2.869" rx="1.769" ry="2.869" transform="matrix(0.251, -0.968, 0.968, 0.251, 96.01, 19.37)" fill="#dffffa" stroke="#231815" stroke-miterlimit="10" stroke-width="0.25"/>
        <ellipse id="Ellipse_2739" data-name="Ellipse 2739" cx="1.291" cy="2.295" rx="1.291" ry="2.295" transform="translate(37.095 48.177) rotate(-72.881)" fill="#dffffa" stroke="#231815" stroke-miterlimit="10" stroke-width="0.25"/>
        <ellipse id="Ellipse_2740" data-name="Ellipse 2740" cx="2.443" cy="4.379" rx="2.443" ry="4.379" transform="translate(106.676 31.833) rotate(-71.461)" fill="#dffffa" stroke="#231815" stroke-miterlimit="10" stroke-width="0.25"/>
        <path id="Path_15280" data-name="Path 15280" d="M2328.737,400.277c-.6-.673-1.014-.269-5.32,3.148s-8.749,7.756-14.537,13.139-11.306,6.461-11.306,6.461c1.885-7.268,3.836-19.6,3.836-19.6s4.944-2.2,13.6-8.367c11.951-8.515,14.334-15.375,13.661-16.426s-2.558,1.052-6.379,4.955-6.812,5.384-12.465,9.557-7.89,3.907-7.89,3.907c1.75-9.288.418-24.905.418-24.905a124.027,124.027,0,0,0,12.452-15.479c2.827-4.441,8.211-13.459,7.4-14.267s-1.346,1.077-3.769,4.307-4.442,5.249-7.942,10.364-7.672,9.692-8.076,8.346,1.077-9.154,1.885-16.826,1.115-17.446-.539-18.036c-1.884-.674-.673,9.018-3.365,17.9a139.409,139.409,0,0,0-3.365,16.421c-9.691-8.884-9.288-23.959-10.633-23.824s-1.346,3.769.538,13.325,8.615,17.364,8.615,17.364c0,6.462-4.576,19.113-5.249,21.939s-2.02,5.922-8.211-7.672-3.9-29.477-6.326-29.477-.942,20.189,2.288,31.766,6.865,13.19,6.865,13.19a74.9,74.9,0,0,1-6.172,17.5c-1.73-1.75-4.462-6.864-7.154-17.229s-4.711-26.113-6.326-25.978,1.481,20.19,4.307,26.92,6.6,20.593,6.6,20.593l-3.365,6.461c-1.884-1.885-1.615-3.769-4.71-10.634s-4.307-22.209-5.922-21.94,1.076,13.729,3.23,20.594,4.846,14.671,4.846,14.671-5.653,10.23-5.923,9.422-4.038-4.979-6.056-21.805.4-31.5-1.616-31.227-1.211,26.516-.808,31.093,1.751,6.191,2.02,11.576,3.1,14.133,2.826,15.21-4.172,5.114-4.172,5.114c-2.289-2.827-4.307-8.211-5.519-21.132s-.269-25.44-2.019-25.843-.942,9.556-1.346,14.94,1.211,10.095,1.346,19.786,3.365,17.5,3.23,17.9a50.411,50.411,0,0,1-3.365,3.769c-2.153-1.615-3.1-10.633-4.845-20.593s.269-19.517-1.75-19.382-1.346,11.575-1.211,15.21,1.615,12.113,1.346,17.229,2.019,10.634,1.884,12.652-2.423,4.71-7.806,8.614c-3.655,2.649-6.745,6.044-7.557,9.55a7.213,7.213,0,0,0,.558,4.987c2.557,5.115,12.114,5.922,17.5,4.576a28.11,28.11,0,0,0,5.392-1.9c3.406-1.622,6.985-4.239,11.836-9a137.035,137.035,0,0,0,9.556-9.974,21.388,21.388,0,0,0,8.944,2,15.02,15.02,0,0,0,1.044-2.3c-4.024-.436-7.756-1.29-7.835-2.236-.135-1.616,3.365-4.98,3.365-4.98,1.816.605,4.464.681,8.285.681.665-.939,1.392-1.906,2.18-2.865a58.972,58.972,0,0,1-9.119-.238s-.538-1.212,2.154-4.307,2.154-4.442,2.154-4.442,2.692-.4,7.807-.673a50.759,50.759,0,0,0,12.248-2.5,18.343,18.343,0,0,0,1.181-2.672c-12.277,3.44-19.217,1.942-19.217,1.942a65.892,65.892,0,0,0,4.308-10.23c2.826.673,7.807-.808,13.191-2.693a64.768,64.768,0,0,0,6.681-2.817,25.021,25.021,0,0,1,2.33-3.492c-1.526.537-3.687,1.415-6.723,2.541A96.873,96.873,0,0,1,2293.4,437.7l2.692-8.48c2.962-.538,7-3.365,10.9-6.191s12.114-8.076,15.479-12.383S2329.339,400.951,2328.737,400.277Z" transform="translate(-2221.17 -313.914)" fill="#fff6eb" stroke="#000" stroke-miterlimit="10" stroke-width="0.25"/>
      </g>
      <ellipse id="Ellipse_2741" data-name="Ellipse 2741" cx="2.004" cy="1.454" rx="2.004" ry="1.454" transform="translate(194.985 51.426)" fill="#dffffa" stroke="#231815" stroke-miterlimit="10" stroke-width="0.25"/>
      <ellipse id="Ellipse_2742" data-name="Ellipse 2742" cx="2.129" cy="3.469" rx="2.129" ry="3.469" transform="translate(208.773 61.525) rotate(-63.236)" fill="#dffffa" stroke="#231815" stroke-miterlimit="10" stroke-width="0.25"/>
      <g id="Group_3953" data-name="Group 3953" transform="translate(189.066 228.664)">
        <path id="Path_15281" data-name="Path 15281" d="M2266.671,497.315a15.821,15.821,0,0,1,9.953-1.555c5.287,1.089,8.708,1.244,13.063-2.332s15.844-1.28,24.1-5.287c6.235-3.025,4.181-6.583,12.718-10.456s13.042-2.292,18.615-11.145.277-11.067,1.463-18.261,7.51-13.359,2.451-18.023-10.751-6.008-20.395,0-20.632,17.944-20.632,17.944l-15.335,17.707L2283.965,482Z" transform="translate(-2266.671 -426.237)" fill="#ddd658" stroke="#000" stroke-linejoin="round" stroke-width="0.25"/>
        <path id="Path_15282" data-name="Path 15282" d="M2281.955,494.705c.553-.158,2.53.244,6.878,1.743s6.8-.7,4.426-1.775-4.822-.126-8.062-2.814Z" transform="translate(-2268.205 -432.824)" fill="#cad226" stroke="#231815" stroke-miterlimit="10" stroke-width="0.25"/>
        <path id="Path_15283" data-name="Path 15283" d="M2292.675,480.164s1.581,4.19,7.272,5.691,13.833,4.665,15.257,3.479-2.688-1.9-7.273-3.162-6.166-2.371-9.17-3.636a14.667,14.667,0,0,1-4.788-3.241Z" transform="translate(-2269.281 -431.563)" fill="#cad226" stroke="#231815" stroke-miterlimit="10" stroke-width="0.25"/>
        <path id="Path_15284" data-name="Path 15284" d="M2298.562,474.176s2.767,2.609,9.8,3,10.514.632,15.652,1.344,7.51-2.53,4.427-2.687-10.893.5-18.735-1.344-8.143-2.872-8.143-2.872Z" transform="translate(-2269.872 -430.792)" fill="#cad226" stroke="#231815" stroke-miterlimit="10" stroke-width="0.25"/>
        <path id="Path_15285" data-name="Path 15285" d="M2306.877,468.535c.345.078,4.95.474,10.039.948a37.057,37.057,0,0,0,15.76-1.818c5.692-1.9,6.087-.908,7.114-2.075s.317-1.9-2.53-.82-9.406,1.788-15.967,1.868a26.585,26.585,0,0,1-11.383-2.393Z" transform="translate(-2270.707 -430.052)" fill="#bfc632" stroke="#231815" stroke-miterlimit="10" stroke-width="0.25"/>
        <path id="Path_15286" data-name="Path 15286" d="M2313.524,458.741a34.836,34.836,0,0,0,5.591-2.688s5.612.578,13.913-2.636,9.486-4.715,9.011-5.822-10.751,5.692-20.711,5.573a81.01,81.01,0,0,1,9.991-6.363c5.5-2.925,5.345-5.3,8.585-7.193s2.709-4.427,2.224-4.427-3.015,2.451-7.2,4.98-14.387,9.486-18.813,11.145Z" transform="translate(-2271.374 -427.135)" fill="#cad226" stroke="#231815" stroke-miterlimit="10" stroke-width="0.25"/>
        <ellipse id="Ellipse_2743" data-name="Ellipse 2743" cx="1.487" cy="1.019" rx="1.487" ry="1.019" transform="translate(75.012 8.049)" fill="none" stroke="#231815" stroke-miterlimit="10" stroke-width="0.25"/>
      </g>
      <g id="Group_3954" data-name="Group 3954" transform="translate(107.25 332.183)">
        <path id="Path_15287" data-name="Path 15287" d="M2179.515,547.5a7.186,7.186,0,0,1,2.7-5.188c2.562-1.825,5.089-.832,7.328.421,3.169,1.773,7.835.11,13.04.329s7.615,3.307,9.807,6.529,6.3,2.236,6.574,5.086-2.959,5.589-6.958,4.109-8.972.493-12.759.165-7.951-.493-11.9,1.315-4.053-.712-4.218-2.685-.931-3.506-4.876-3.013-2.685-5.205-.219-5.863S2179.515,547.5,2179.515,547.5Z" transform="translate(-2175.727 -541.307)" fill="#bfc632" stroke="#231815" stroke-miterlimit="10" stroke-width="0.25"/>
        <path id="Path_15288" data-name="Path 15288" d="M2177.437,549.538c-.6-2.182,5.92-3.152,12.146-2.075s19.374,2.46,19.758,5.073-7.687-2.306-17.989-2.229S2177.9,551.229,2177.437,549.538Z" transform="translate(-2175.895 -541.88)" fill="#fff6eb" stroke="#000" stroke-miterlimit="10" stroke-width="0.25"/>
      </g>
      <ellipse id="Ellipse_2744" data-name="Ellipse 2744" cx="4.046" cy="2.148" rx="4.046" ry="2.148" transform="translate(130.739 323.275)" fill="#c19165" stroke="#000" stroke-linejoin="round" stroke-width="0.25"/>
      <path id="Path_15289" data-name="Path 15289" d="M2255.429,561.1s2.007-2.271,5.7-.37a13.518,13.518,0,0,0,11.407.37" transform="translate(-2076.477 -210.997)" fill="none" stroke="#231815" stroke-miterlimit="10" stroke-width="0.25"/>
      <path id="Path_15290" data-name="Path 15290" d="M2227.662,528.6s4.225-2.747,8.661-1.69,5.345,4.386,12.358,3.063c9.243-1.743,15.263,3.75,18.7,2.852" transform="translate(-2073.69 -207.654)" fill="none" stroke="#231815" stroke-miterlimit="10" stroke-width="0.25"/>
      <ellipse id="Ellipse_2745" data-name="Ellipse 2745" cx="2.26" cy="1.372" rx="2.26" ry="1.372" transform="translate(215.221 333.914)" fill="#ecb36f" stroke="#000" stroke-linejoin="round" stroke-width="0.25"/>
      <path id="Path_15291" data-name="Path 15291" d="M2282,526.609c5.419-1.942,11.03,1.99,12.757.408" transform="translate(-2079.144 -207.593)" fill="none" stroke="#231815" stroke-miterlimit="10" stroke-width="0.25"/>
      <path id="Path_15292" data-name="Path 15292" d="M2310.357,532.05a15.289,15.289,0,0,0,4.508-.288" transform="translate(-2081.99 -208.165)" fill="none" stroke="#231815" stroke-miterlimit="10" stroke-width="0.25"/>
      <ellipse id="Ellipse_2746" data-name="Ellipse 2746" cx="3.333" cy="1.678" rx="3.333" ry="1.678" transform="translate(230.813 311.655)" fill="#ecb36f" stroke="#000" stroke-linejoin="round" stroke-width="0.25"/>
      <ellipse id="Ellipse_2747" data-name="Ellipse 2747" cx="1.894" cy="0.959" rx="1.894" ry="0.959" transform="translate(240.883 314.677)" fill="#ecb36f" stroke="#000" stroke-linejoin="round" stroke-width="0.25"/>
      <path id="Path_15293" data-name="Path 15293" d="M2293.426,561.2c1.619-.01,4.2.385,6.022,0" transform="translate(-2080.291 -211.12)" fill="none" stroke="#231815" stroke-miterlimit="10" stroke-width="0.25"/>
      <ellipse id="Ellipse_2748" data-name="Ellipse 2748" cx="4.427" cy="2.042" rx="4.427" ry="2.042" transform="translate(9.861 330.443)" fill="#c19165" stroke="#000" stroke-linejoin="round" stroke-width="0.25"/>
      <ellipse id="Ellipse_2749" data-name="Ellipse 2749" cx="3.097" cy="1.618" rx="3.097" ry="1.618" transform="translate(0 337.306)" fill="#c19165" stroke="#000" stroke-linejoin="round" stroke-width="0.25"/>
      <path id="Path_15294" data-name="Path 15294" d="M2071.284,558.008c4.864-4.513,11.541.205,15.182-1.488" transform="translate(-2057.993 -210.597)" fill="none" stroke="#231815" stroke-miterlimit="10" stroke-width="0.25"/>
      <path id="Path_15295" data-name="Path 15295" d="M2093.463,557.744a5.076,5.076,0,0,1,3.488,0,5.083,5.083,0,0,0,3.488,0" transform="translate(-2060.219 -210.743)" fill="none" stroke="#231815" stroke-miterlimit="10" stroke-width="0.25"/>
      <path id="Path_15296" data-name="Path 15296" d="M2063.55,448.029c6.128-3.753,12.18-1.838,20.071.69s12.809-3.71,22.75-.69" transform="translate(-2057.217 -199.549)" fill="none" stroke="#231815" stroke-miterlimit="10" stroke-width="0.25"/>
      <ellipse id="Ellipse_2750" data-name="Ellipse 2750" cx="2.306" cy="1.271" rx="2.306" ry="1.271" transform="translate(20.604 236.888)" fill="#ecb36f" stroke="#000" stroke-linejoin="round" stroke-width="0.25"/>
      <ellipse id="Ellipse_2751" data-name="Ellipse 2751" cx="2.968" cy="1.692" rx="2.968" ry="1.692" transform="translate(33.038 234.346)" fill="#ecb36f" stroke="#000" stroke-linejoin="round" stroke-width="0.25"/>
      <path id="Path_15297" data-name="Path 15297" d="M2114.082,448.6c1.214,0,3.008-.792,4.011-.264" transform="translate(-2062.289 -199.773)" fill="none" stroke="#231815" stroke-miterlimit="10" stroke-width="0.25"/>
      <ellipse id="Ellipse_2752" data-name="Ellipse 2752" cx="2.585" cy="1.474" rx="2.585" ry="1.474" transform="translate(8.88 258.015)" fill="#c19165" stroke="#000" stroke-linejoin="round" stroke-width="0.25"/>
      <path id="Path_15298" data-name="Path 15298" d="M2089.987,467.436c2.307-1.538,5.939,1.026,9.443-.641" transform="translate(-2059.871 -201.644)" fill="none" stroke="#231815" stroke-miterlimit="10" stroke-width="0.25"/>
      <path id="Path_15299" data-name="Path 15299" d="M2106.374,466.089c.982.256,3.248-.94,4.23,0" transform="translate(-2061.516 -201.537)" fill="none" stroke="#231815" stroke-miterlimit="10" stroke-width="0.25"/>
      <ellipse id="Ellipse_2753" data-name="Ellipse 2753" cx="2.705" cy="1.503" rx="2.705" ry="1.503" transform="translate(52.013 272.591) rotate(-11.18)" fill="#ecb36f" stroke="#000" stroke-linejoin="round" stroke-width="0.25"/>
    </g>
    <g id="Group_3957" data-name="Group 3957" transform="translate(2147.072 444.452)">
      <g id="Group_3956" data-name="Group 3956" transform="translate(0)">
        <path id="Path_15300" data-name="Path 15300" d="M2211.7,495.876c-.657-3.5-1.314-6.459-8.212-13.795s-18.237-10.052-29.56-3.613c-11.167,6.35-15.437,14.78-16.641,21.239-1.112,5.962,6.332,7.458,12.31,8.138l-7.937-13.6a5.946,5.946,0,0,0,4.747-3.441c1.662-3.322,2.551-4.45,7.357-4.509s6.882-5.4,12.519-6.289,7.357,1.424,10.5,3.619,5.4,1.779,7.24,5.162,1.068,5.043,2.729,8.6.062,5.4.712,7.653a5.881,5.881,0,0,1,.14,2.391,3.964,3.964,0,0,0,3.329-4C2211.043,501.022,2212.357,499.379,2211.7,495.876Z" transform="translate(-2157.176 -474.844)" fill="#cad226" stroke="#231815" stroke-miterlimit="10" stroke-width="0.25"/>
        <path id="Path_15301" data-name="Path 15301" d="M2207.964,505.594c-.65-2.252.949-4.093-.712-7.653s-.89-5.221-2.729-8.6-4.094-2.967-7.24-5.162-4.865-4.509-10.5-3.619-7.713,6.23-12.519,6.289-5.7,1.187-7.357,4.509a5.946,5.946,0,0,1-4.747,3.441l7.938,13.6c.783.089,1.542.165,2.252.234,6.131.6,10.4-1.036,15.765-.38a115.287,115.287,0,0,0,18.5,0,9.384,9.384,0,0,0,1.488-.269A5.881,5.881,0,0,0,2207.964,505.594Z" transform="translate(-2157.677 -475.397)" fill="#fff6eb" stroke="#000" stroke-miterlimit="10" stroke-width="0.25"/>
      </g>
      <ellipse id="Ellipse_2754" data-name="Ellipse 2754" cx="0.661" cy="0.821" rx="0.661" ry="0.821" transform="translate(20.135 27.6)" fill="#ddd658" stroke="#000" stroke-linejoin="round" stroke-width="0.25"/>
      <ellipse id="Ellipse_2755" data-name="Ellipse 2755" cx="0.661" cy="1.026" rx="0.661" ry="1.026" transform="translate(24.468 28.785)" fill="#ddd658" stroke="#000" stroke-linejoin="round" stroke-width="0.25"/>
      <ellipse id="Ellipse_2756" data-name="Ellipse 2756" cx="0.798" cy="1.14" rx="0.798" ry="1.14" transform="translate(29.484 28.193)" fill="#ddd658" stroke="#000" stroke-linejoin="round" stroke-width="0.25"/>
      <ellipse id="Ellipse_2757" data-name="Ellipse 2757" cx="0.688" cy="0.963" rx="0.688" ry="0.963" transform="translate(38.669 28.193)" fill="#ddd658" stroke="#000" stroke-linejoin="round" stroke-width="0.25"/>
      <ellipse id="Ellipse_2758" data-name="Ellipse 2758" cx="0.688" cy="0.963" rx="0.688" ry="0.963" transform="matrix(0.906, -0.423, 0.423, 0.906, 33.844, 28.574)" fill="#ddd658" stroke="#000" stroke-linejoin="round" stroke-width="0.25"/>
      <ellipse id="Ellipse_2759" data-name="Ellipse 2759" cx="0.688" cy="0.963" rx="0.688" ry="0.963" transform="matrix(0.906, -0.423, 0.423, 0.906, 42.966, 28.394)" fill="#ddd658" stroke="#000" stroke-linejoin="round" stroke-width="0.25"/>
    </g>
    <g id="Group_3958" data-name="Group 3958" transform="translate(2074.666 449.626)">
      <path id="Path_15302" data-name="Path 15302" d="M2079.972,509.2c.975-4.2-1.192-5.7-.317-8.1s2.623-1.442,3.656-4.542,4.77.65,7.632-2.021,1.192-5.134,5.247-8.154,6.041-4.691,8.584-1.829,5.406-1.453,9.063-2.276,4.213.82,7.471-.8,5.247-1.16,8.268,2.546,6.677.447,13.592,1.719,5.724,6.439,10.334,8.187,5.8,1.987,7.234,6.439,2.226,4.531,6.042,5.087,5.8,2.623,5.8,6.2-4.293,4.849-4.213,8.506,1.113,8.028-3.816,11.685-5.484-.08-10.333,1.669-4.293,4.849-4.452,6.6-2.226,5.326-5.962,4.611-5.962-3.894-11.129-4.134-4.689,1.749-9.857-.874-10.254.557-16.931.4-4.77-7.551-9.937-8.187-12.4,3.5-11.764-3.179-1.785-6.809-5.643-9.221C2074.089,516.747,2078.938,513.647,2079.972,509.2Z" transform="translate(-2076.691 -480.596)" fill="#bfc632" stroke="#231815" stroke-miterlimit="10" stroke-width="0.25"/>
      <path id="Path_15303" data-name="Path 15303" d="M2079.558,510.239c-.052-1.821,1.919-2.347,4.621-1.92s6.826.266,9.528.844,2.417-2.337,4.907-4.755,2.489-4.431,6.328-8.116,6.115-6.887,8.106-5.749-3.342,3.84-7.821,8.745-6.4,8.106-6.826,9.812,6.542,1.92,7.608.426a29.143,29.143,0,0,1,7.892-8.674c5.4-4.124,12.515-10.239,14.149-8.959s-9.883,7.75-13.58,11.448-5.191,4.195-5.76,5.759-.071,1.991,3.483,1.92,5.83.995,7.395-1.209,5.973-5.261,11.874-8.248,10.1-5.19,11.519-4.053-6.257,2.7-13.865,7.608-7.111,6.1-7.111,6.1,9.649,1.582,12.291,1.226,3.281-2.418,10.534-4.693,9.172-1.137,9.243-.071-3.768.142-9.385,2.417-5.333,3.588-5.333,3.588a52.964,52.964,0,0,1,6.612,1.106c5.663,1.429,11.983.8,11.075,3.038-.44,1.086-9.039-2-18.3-1.852,0,0-2.508.032,3.787,6.121,5.861,5.668,7.771,7.808,6.956,8.4s-6.817-3.556-11.261-8.446-3.711-5.7-7.412-6.816-10.369-2.149-9.183-.668a42.653,42.653,0,0,0,12.224,10.817c6.965,4,11.41,7.557,10.966,8.52s-4.075-.964-11.854-6.3a79.055,79.055,0,0,1-14.656-12.51c-1.26-1.472-10.592-2.822-10.534-1.413.077,1.846,3.482,3.922,8.446,8.367s19.114,11.335,18.522,12.892-9.6-4.224-16.434-8.816-13.052-12.738-16.387-13.37-5.038-1-4.223,0a83.883,83.883,0,0,0,8.3,8.11c3.7,3.111,10,6.371,9.334,7.557s-8.594-4.371-12.3-7.854-7.482-6.885-10.52-7.813S2079.654,513.594,2079.558,510.239Z" transform="translate(-2076.979 -481.571)" fill="#fff6eb" stroke="#000" stroke-miterlimit="10" stroke-width="0.25"/>
      <ellipse id="Ellipse_2760" data-name="Ellipse 2760" cx="3.331" cy="1.933" rx="3.331" ry="1.933" transform="translate(59.672 7.685)" fill="#dffffa" stroke="#231815" stroke-miterlimit="10" stroke-width="0.25"/>
      <ellipse id="Ellipse_2761" data-name="Ellipse 2761" cx="1.627" cy="2.892" rx="1.627" ry="2.892" transform="matrix(0.286, -0.958, 0.958, 0.286, 88, 30.313)" fill="#dffffa" stroke="#231815" stroke-miterlimit="10" stroke-width="0.25"/>
      <ellipse id="Ellipse_2762" data-name="Ellipse 2762" cx="2.057" cy="1.363" rx="2.057" ry="1.363" transform="translate(81.523 30.102) rotate(-9.566)" fill="#dffffa" stroke="#231815" stroke-miterlimit="10" stroke-width="0.25"/>
    </g>
  </g>
</svg>
