<svg xmlns="http://www.w3.org/2000/svg" xmlns:xlink="http://www.w3.org/1999/xlink" width="311.638" height="343.332" viewBox="0 0 311.638 343.332">
  <defs>
    <clipPath id="clip-path">
      <path id="Path_13528" data-name="Path 13528" d="M2648.625,843.661c4.641,1.662-.971,16.506-11.974,54.695s-14.726,75.975-35.115,99.277-28.885,26.943-38.109,36.167-11.894,10.68-17.962,8.253-2.185-15.292-3.641-37.866,3.265-50.31,31.555-79.373C2617.8,879.18,2638.916,840.181,2648.625,843.661Z" transform="translate(-2541.59 -843.444)" fill="none"/>
    </clipPath>
  </defs>
  <g id="Group_3786" data-name="Group 3786" transform="translate(-2428.289 -790.851)">
    <g id="Group_3754" data-name="Group 3754" transform="translate(2471.278 797.785)">
      <path id="Path_13449" data-name="Path 13449" d="M2578.492,881.5s1.236-15.292,3.693-24.03-3.792-26.215-8.283-35.135-4.43-7.95-5.1-4.794-3.824,10.639-3.743,20.511-3.964,26.377-9.3,26.62-4.289-12.622-1.942-19.743,1.376-21.684-2.832-28.885-8.091-15.384-10.033-15.095-5.1,10.079-5.906,16.794-4.612,7.282-7.93-.647-18.771-19.5-20.066-19.1-2.265,7.2,0,17.153,5.664,17.88,2.185,18.69-14.341-6.473-20.349-6.291-3.519,2.063-.971,5.886,1.092,12.44,20.572,19.115,26,20.328,20.1,21.785-20.587-3.156-31.813-10.073-23.059-8.07-24.09-6.857,4.429,17.355,18.811,23.726,17.194,9.87,24.395,18.2,19.236,9.467,19.236,9.467-14.443-.244-21.42-4.613-15.577-4.429-20.168-6.19-4.348-.849-2.224,3.52,3.155,6.745,12.926,9.684,46.447,5.6,46.447,5.6Z" transform="translate(-2472.563 -797.989)" fill="#bfc632" stroke="#231815" stroke-miterlimit="10" stroke-width="0.25"/>
      <path id="Path_13450" data-name="Path 13450" d="M2508.083,798s41.669,70.1,53.158,113.208" transform="translate(-2473.595 -797.99)" fill="none" stroke="#000" stroke-miterlimit="10" stroke-width="0.25"/>
      <path id="Path_13451" data-name="Path 13451" d="M2537.784,851.51c12.877-22.967,5.064-50.474,5.064-50.474" transform="translate(-2474.459 -798.078)" fill="none" stroke="#000" stroke-miterlimit="10" stroke-width="0.25"/>
      <path id="Path_13452" data-name="Path 13452" d="M2485.589,829.538s24.187,20.676,50.677,22.8" transform="translate(-2472.941 -798.907)" fill="none" stroke="#000" stroke-miterlimit="10" stroke-width="0.25"/>
      <path id="Path_13453" data-name="Path 13453" d="M2572.4,815.948s10.091,51.651-15.113,79.089" transform="translate(-2475.027 -798.512)" fill="none" stroke="#000" stroke-miterlimit="10" stroke-width="0.25"/>
      <path id="Path_13454" data-name="Path 13454" d="M2472.688,859.188s38.978,35.863,82.143,37.107" transform="translate(-2472.567 -799.769)" fill="none" stroke="#000" stroke-miterlimit="10" stroke-width="0.25"/>
      <path id="Path_13455" data-name="Path 13455" d="M2490.469,900.375s13.137,15.072,40.485,15.364" transform="translate(-2473.083 -800.967)" fill="none" stroke="#000" stroke-miterlimit="10" stroke-width="0.25"/>
    </g>
    <g id="Group_3755" data-name="Group 3755" transform="translate(2431.531 865.789)">
      <path id="Path_13456" data-name="Path 13456" d="M2454.078,935.371s-11.894,1.735-17.719-3.326-7.363-7.65,1.7-9.753,17.8-1.619,18.69-5.422-6.716-5.663-12.137-14.725-9.629-14.807-6.877-15.535c2.033-.539,11.974-1.376,22.007,4.935s8.658,12.784,13.189,11.974-2.751-21.36,5.178-31.231,3.823-.648,10.65,8.091,12.895,16.748,13.7,27.105S2491.62,930.935,2454.078,935.371Z" transform="translate(-2431.625 -868.03)" fill="#bfc632" stroke="#231815" stroke-miterlimit="10" stroke-width="0.25"/>
      <path id="Path_13457" data-name="Path 13457" d="M2437.158,887.735s33.667,19.19,54.3,40.955" transform="translate(-2431.786 -868.603)" fill="none" stroke="#000" stroke-miterlimit="10" stroke-width="0.25"/>
      <path id="Path_13458" data-name="Path 13458" d="M2431.645,927.581s29.067,6.718,53.017,3.967" transform="translate(-2431.626 -869.762)" fill="none" stroke="#000" stroke-miterlimit="10" stroke-width="0.25"/>
      <path id="Path_13459" data-name="Path 13459" d="M2484.512,868.1s-.985,12.1,2.777,28.454.728,23.415-1.093,30.989" transform="translate(-2433.16 -868.033)" fill="none" stroke="#000" stroke-miterlimit="10" stroke-width="0.25"/>
    </g>
    <g id="Group_3756" data-name="Group 3756" transform="translate(2428.391 902.932)">
      <path id="Path_13460" data-name="Path 13460" d="M2556.115,909.136c-12.564-3.127-22.274-5.717-58.2,3.831s-45.876,9-55.1,13.4-6.554,5.126-10.316,8.889-5.34,4.369-3.034,12.015,0,7.4,1.214,12.743,4.976,11.287,22.938,20.147,17.234,5.1,29.613,16.748,25.729,17.841,40.172,17.841Z" transform="translate(-2428.392 -906.287)" fill="#518937" stroke="#000" stroke-linejoin="round" stroke-width="0.25"/>
      <path id="Path_13461" data-name="Path 13461" d="M2466.833,931.392s36.734-15.222,79.292-6.478" transform="translate(-2429.51 -906.749)" fill="none" stroke="#000" stroke-linejoin="round" stroke-width="0.25"/>
      <path id="Path_13462" data-name="Path 13462" d="M2457.167,962.143s29.451,17.014,64.4,18.956" transform="translate(-2429.228 -907.911)" fill="none" stroke="#000" stroke-linejoin="round" stroke-width="0.25"/>
      <path id="Path_13463" data-name="Path 13463" d="M2436.983,943.208c2.478.073,4.976,8.779,1.051,9.224S2434.231,943.127,2436.983,943.208Z" transform="translate(-2428.583 -907.36)" fill="#fff6eb" stroke="#000" stroke-miterlimit="10" stroke-width="0.25"/>
      <path id="Path_13464" data-name="Path 13464" d="M2446.371,934.809c-.829-1.473,2.427-3.155,3.217-1.517S2447.463,936.751,2446.371,934.809Z" transform="translate(-2428.91 -907.052)" fill="#3a6026" stroke="#000" stroke-linejoin="round" stroke-width="0.25"/>
      <path id="Path_13465" data-name="Path 13465" d="M2440.209,964c1.283-.328,2.688,2.246,1.475,2.853S2438.31,964.485,2440.209,964Z" transform="translate(-2428.713 -907.964)" fill="#3a6026" stroke="#000" stroke-linejoin="round" stroke-width="0.25"/>
      <path id="Path_13466" data-name="Path 13466" d="M2444.993,964.93c.837-1.035,4.794,1.153,3.156,2.913S2443.962,966.2,2444.993,964.93Z" transform="translate(-2428.867 -907.984)" fill="#3a6026" stroke="#000" stroke-linejoin="round" stroke-width="0.25"/>
      <path id="Path_13467" data-name="Path 13467" d="M2488.936,987.241c.542-.751,4.065-.06,3.884,1.335S2488.146,988.333,2488.936,987.241Z" transform="translate(-2430.15 -908.632)" fill="#3a6026" stroke="#000" stroke-linejoin="round" stroke-width="0.25"/>
      <path id="Path_13468" data-name="Path 13468" d="M2489.9,992.664c1.031-.449,6.27.768,5.178,2.67S2487.759,993.594,2489.9,992.664Z" transform="translate(-2430.167 -908.796)" fill="#3a6026" stroke="#000" stroke-linejoin="round" stroke-width="0.25"/>
      <path id="Path_13469" data-name="Path 13469" d="M2500.5,995.968c.513-.977,6.352,1.319,5.583,3.422S2499.811,997.278,2500.5,995.968Z" transform="translate(-2430.486 -908.888)" fill="#3a6026" stroke="#000" stroke-linejoin="round" stroke-width="0.25"/>
      <path id="Path_13470" data-name="Path 13470" d="M2494.829,1000.091c.606-.66,4.733,1.243,4.329,2.578S2493.818,1001.2,2494.829,1000.091Z" transform="translate(-2430.319 -909.01)" fill="#3a6026" stroke="#000" stroke-linejoin="round" stroke-width="0.25"/>
      <path id="Path_13471" data-name="Path 13471" d="M2507.081,1004.819c.606-1.354,5.543.607,5.219,2.185S2506.231,1006.721,2507.081,1004.819Z" transform="translate(-2430.677 -909.138)" fill="#3a6026" stroke="#000" stroke-linejoin="round" stroke-width="0.25"/>
      <path id="Path_13472" data-name="Path 13472" d="M2499.25,933.966c.089-1.78,4.733-1.335,4.814.283S2499.169,935.584,2499.25,933.966Z" transform="translate(-2430.452 -907.058)" fill="#3a6026" stroke="#000" stroke-linejoin="round" stroke-width="0.25"/>
      <path id="Path_13473" data-name="Path 13473" d="M2508.917,931.641c.092-1.54,6.756-1,6.271,1.119S2508.8,933.663,2508.917,931.641Z" transform="translate(-2430.733 -906.998)" fill="#3a6026" stroke="#000" stroke-linejoin="round" stroke-width="0.25"/>
      <path id="Path_13474" data-name="Path 13474" d="M2517.829,937.942c1.091-1.545,5.1.485,4.086,1.9S2516.858,939.317,2517.829,937.942Z" transform="translate(-2430.989 -907.191)" fill="#3a6026" stroke="#000" stroke-linejoin="round" stroke-width="0.25"/>
      <path id="Path_13475" data-name="Path 13475" d="M2518.457,929.738c.246-.982,3.844-.081,3.642,1.254S2517.971,931.68,2518.457,929.738Z" transform="translate(-2431.009 -906.956)" fill="#3a6026" stroke="#000" stroke-linejoin="round" stroke-width="0.25"/>
      <path id="Path_13476" data-name="Path 13476" d="M2517.677,914.555c.555-1.382,3.709-1.214,3.224.485S2516.962,916.336,2517.677,914.555Z" transform="translate(-2430.985 -906.5)" fill="#3a6026" stroke="#000" stroke-linejoin="round" stroke-width="0.25"/>
      <path id="Path_13477" data-name="Path 13477" d="M2525.109,910.356c1.778-1.042,7.08-.93,5.5,1.173S2522.763,911.732,2525.109,910.356Z" transform="translate(-2431.189 -906.386)" fill="#3a6026" stroke="#000" stroke-linejoin="round" stroke-width="0.25"/>
      <path id="Path_13478" data-name="Path 13478" d="M2534.4,914.06c1.65-1.331,6.149-.813,4.693.807S2532.094,915.922,2534.4,914.06Z" transform="translate(-2431.458 -906.49)" fill="#3a6026" stroke="#000" stroke-linejoin="round" stroke-width="0.25"/>
      <path id="Path_13479" data-name="Path 13479" d="M2544.282,910.572c1.207-1.14,9.506.669,8.374,2.64S2542.1,912.636,2544.282,910.572Z" transform="translate(-2431.752 -906.401)" fill="#3a6026" stroke="#000" stroke-linejoin="round" stroke-width="0.25"/>
      <path id="Path_13480" data-name="Path 13480" d="M2497.247,955.393c.623-1.517,4.733-.728,3.52.971S2496.6,956.971,2497.247,955.393Z" transform="translate(-2430.391 -907.691)" fill="#3a6026" stroke="#000" stroke-linejoin="round" stroke-width="0.25"/>
      <path id="Path_13481" data-name="Path 13481" d="M2506.873,958.552c.93-2.185,4.733-.566,3.721,1.214S2506.311,959.872,2506.873,958.552Z" transform="translate(-2430.672 -907.776)" fill="#3a6026" stroke="#000" stroke-linejoin="round" stroke-width="0.25"/>
    </g>
    <g id="Group_3757" data-name="Group 3757" transform="translate(2654.9 925.217)">
      <path id="Path_13482" data-name="Path 13482" d="M2699.209,1003.791s-5.016-9.794-.647-12.271,11.974,7.07,25.891,3.672,18.124-18.448,17.477-20.066-10.624-.673-22.546.716-12.407-3.71-4.64-7.553,12.461-11.125,12.461-24.07-.486-14.645-1.457-14.969-12.7,6.6-20.066,15.759-8.981,15.715-13.35,13.206-3.317-13.269-11.57-19.58-9.871,21.279-3.721,30.988,6.958,12.235,2.993,12.631-12.055-2.517-16.91-1.626S2664.58,1018.865,2699.209,1003.791Z" transform="translate(-2661.684 -929.239)" fill="#bfc632" stroke="#231815" stroke-miterlimit="10" stroke-width="0.25"/>
      <path id="Path_13483" data-name="Path 13483" d="M2725.811,929.25s-29.794,62.058-61.987,76.137" transform="translate(-2661.746 -929.239)" fill="none" stroke="#000" stroke-miterlimit="10" stroke-width="0.25"/>
      <path id="Path_13484" data-name="Path 13484" d="M2678.1,938.122s.369,29.9,15.4,42.89" transform="translate(-2662.161 -929.497)" fill="none" stroke="#000" stroke-miterlimit="10" stroke-width="0.25"/>
      <path id="Path_13485" data-name="Path 13485" d="M2742.868,976.5s-25.567,14.078-48.913,5.627" transform="translate(-2662.622 -930.613)" fill="none" stroke="#000" stroke-miterlimit="10" stroke-width="0.25"/>
    </g>
    <g id="Group_3758" data-name="Group 3758" transform="translate(2648.925 995.033)">
      <path id="Path_13486" data-name="Path 13486" d="M2663.52,1004.431s19.581-3.589,29.128-3.264,10.437.492,10.4,1.621-9.749,2.181-18,4.69-15.777,11.732-4.612,13.916,15.9-3.4,26.215-5.1,23.788,1.456,24.273,3.641-10.316,5.628-14.928,11.432-3.277,9.443,12.379,15.147,19.418,23.059,17.719,24.273-25.487,5.219-32.283-1.7-6.311-14.807-12.743-14.078-2.306,17.234-3.52,24.394-6.675,6.554-15.9-4.733-12.015-26.094-23.424-37.623Z" transform="translate(-2655.609 -1001.146)" fill="#bfc632" stroke="#231815" stroke-miterlimit="10" stroke-width="0.25"/>
      <path id="Path_13487" data-name="Path 13487" d="M2746.01,1071.458s-63.114-40.657-90.48-47.332" transform="translate(-2655.53 -1001.814)" fill="none" stroke="#000" stroke-miterlimit="10" stroke-width="0.25"/>
      <path id="Path_13488" data-name="Path 13488" d="M2679.194,1032.932c19.029-7.958,52.333-12.432,52.333-12.432" transform="translate(-2656.218 -1001.709)" fill="none" stroke="#000" stroke-miterlimit="10" stroke-width="0.25"/>
      <path id="Path_13489" data-name="Path 13489" d="M2694.995,1084.97s-17.673-27.307-15.8-51.666" transform="translate(-2656.214 -1002.081)" fill="none" stroke="#000" stroke-miterlimit="10" stroke-width="0.25"/>
    </g>
    <g id="Group_3759" data-name="Group 3759" transform="translate(2600.059 1024.262)">
      <path id="Path_13490" data-name="Path 13490" d="M2639.39,1049.25c2.188.076-1.82,8.374-4.329,6.594S2637.044,1049.169,2639.39,1049.25Z" transform="translate(-2606.047 -1031.774)" fill="none" stroke="#000" stroke-miterlimit="10" stroke-width="0.25"/>
      <path id="Path_13491" data-name="Path 13491" d="M2634.983,1031.25a179.568,179.568,0,0,1,24.516,6.675c12.136,4.369,10.883-1.7,24.071,11.651s15.13,18.326,13.795,18.69-12.463-1.335-21.766-3.4-21.207-1.578-24.843,1.457,2.432,9.224,20.879,9.588,32.283,10.195,31.677,12.5-18.69.243-21.6,3.52-1.209,5.461,9.833,12.379,13.145,21.6,11.79,22.7-12.156,4.126-21.623-1.092-13.107-16.384-18.447-16.506,5.1,24.88.121,25.608-14.2-8.01-16.384-25.123-6.8-25.972-12.015-25.851-4.612,12.743,0,28.035,6.432,21,4.976,21.724-14.442-6.19-18.2-14.806l-3.762-8.617s-7.282-6.675-10.073-13.35-2.719-36.045-2.719-36.045Z" transform="translate(-2605.2 -1031.25)" fill="#bfc632" stroke="#231815" stroke-miterlimit="10" stroke-width="0.25"/>
      <path id="Path_13492" data-name="Path 13492" d="M2703.679,1127.243s-55.767-36.278-86.512-87.881" transform="translate(-2605.548 -1031.486)" fill="none" stroke="#000" stroke-miterlimit="10" stroke-width="0.25"/>
      <path id="Path_13493" data-name="Path 13493" d="M2697.952,1068.871s-19.108-16.456-72.563-16.825" transform="translate(-2605.787 -1031.855)" fill="none" stroke="#000" stroke-miterlimit="10" stroke-width="0.25"/>
      <path id="Path_13494" data-name="Path 13494" d="M2640.393,1134.348s-30.674-47.349-16.55-84.377" transform="translate(-2605.634 -1031.794)" fill="none" stroke="#000" stroke-miterlimit="10" stroke-width="0.25"/>
      <path id="Path_13495" data-name="Path 13495" d="M2664.89,1136.773s-13.114-18.937-5.415-45.151" transform="translate(-2606.708 -1033.005)" fill="none" stroke="#000" stroke-miterlimit="10" stroke-width="0.25"/>
      <path id="Path_13496" data-name="Path 13496" d="M2704.892,1090.016s-13.671-9.1-45.344,1.453" transform="translate(-2606.78 -1032.853)" fill="none" stroke="#000" stroke-miterlimit="10" stroke-width="0.25"/>
    </g>
    <g id="Group_3763" data-name="Group 3763" transform="translate(2511.517 790.948)">
      <path id="Path_13497" data-name="Path 13497" d="M2686.443,801.036c7.651,9.189,10.4,16.511,10.4,36.072s-11.812,40.758-14.564,61.794-1.052,57.226-7.605,79.668-17.477,63.462-49.274,82.4-51.54,12.77-68.207,14.355-18.254,2.356-26.927-2.8Z" transform="translate(-2514.479 -791.241)" fill="#518937" stroke="#000" stroke-linejoin="round" stroke-width="0.25"/>
      <path id="Path_13498" data-name="Path 13498" d="M2674.482,797c5.083,1.555,9.793-.887,14.162,7.729s2.792,20.268-4,36.531a423.715,423.715,0,0,0-25.649,89.244c-7.119,41.1-8.091,88.677-36.57,108.743s-45.634,21.683-58.58,24.6-14.159,3.52-21.684,8.738-8.617.849-14.564-1.335-3.277-6.19-4-15.413-12.015-29.693-9.1-58.174,8.01-55.909,48.789-103.241,43.449-48.384,60.763-69.421,30.18-33.833,39.181-33.5C2668.2,791.675,2666.9,794.68,2674.482,797Z" transform="translate(-2514.006 -790.963)" fill="#ff9536" stroke="#000" stroke-linejoin="round" stroke-width="0.25"/>
      <path id="Path_13499" data-name="Path 13499" d="M2648.795,843.661c4.641,1.662-.971,16.506-11.975,54.695s-14.726,75.975-35.115,99.277-28.885,26.943-38.109,36.167-11.894,10.68-17.962,8.253-2.185-15.292-3.641-37.866,3.265-50.31,31.555-79.373C2617.968,879.18,2639.085,840.181,2648.795,843.661Z" transform="translate(-2514.813 -792.474)" fill="#ffc064" stroke="#000" stroke-linejoin="round" stroke-width="0.25"/>
      <path id="Path_13500" data-name="Path 13500" d="M2621.154,844.578c4.169-.518,5.907,1.459,2.509,4.939s-8.5,2.67-8.5-.4C2615.167,846.119,2618.973,844.849,2621.154,844.578Z" transform="translate(-2516.948 -792.505)" fill="#dffffa" stroke="#231815" stroke-miterlimit="10" stroke-width="0.25"/>
      <path id="Path_13501" data-name="Path 13501" d="M2632.026,831.65c1.7,1.7-1.538,5.826-3.966,4.288S2629.76,829.384,2632.026,831.65Z" transform="translate(-2517.302 -792.114)" fill="#dffffa" stroke="#231815" stroke-miterlimit="10" stroke-width="0.25"/>
      <path id="Path_13502" data-name="Path 13502" d="M2651.25,820.125a13.154,13.154,0,0,1,0,3.277" transform="translate(-2517.997 -791.796)" fill="none" stroke="#252f33" stroke-miterlimit="10" stroke-width="0.25"/>
      <path id="Path_13503" data-name="Path 13503" d="M2653.125,821.063a7.733,7.733,0,0,1,0,3.337" transform="translate(-2518.052 -791.823)" fill="none" stroke="#252f33" stroke-miterlimit="10" stroke-width="0.25"/>
      <path id="Path_13504" data-name="Path 13504" d="M2676.71,838.188a1.732,1.732,0,0,1-1.335,1.092" transform="translate(-2518.699 -792.321)" fill="none" stroke="#252f33" stroke-miterlimit="10" stroke-width="0.25"/>
      <path id="Path_13505" data-name="Path 13505" d="M2677.317,840.688a3.038,3.038,0,0,1-1.942.971" transform="translate(-2518.699 -792.394)" fill="none" stroke="#252f33" stroke-miterlimit="10" stroke-width="0.25"/>
      <path id="Path_13506" data-name="Path 13506" d="M2631.97,1006.51c3.074,2.08-.971,7.768-5.179,5.409S2628.9,1004.43,2631.97,1006.51Z" transform="translate(-2517.246 -797.202)" fill="#dffffa" stroke="#231815" stroke-miterlimit="10" stroke-width="0.25"/>
      <path id="Path_13507" data-name="Path 13507" d="M2644.5,932.526s2.75-1.092,4.207,0" transform="translate(-2517.801 -795.05)" fill="none" stroke="#252f33" stroke-miterlimit="10" stroke-width="0.25"/>
      <path id="Path_13508" data-name="Path 13508" d="M2645,937.167a3.8,3.8,0,0,0,2.75.918" transform="translate(-2517.816 -795.199)" fill="none" stroke="#252f33" stroke-miterlimit="10" stroke-width="0.25"/>
      <path id="Path_13509" data-name="Path 13509" d="M2641.583,962.633s1.214,3.107,3.237,3.674" transform="translate(-2517.716 -795.94)" fill="none" stroke="#252f33" stroke-miterlimit="10" stroke-width="0.25"/>
      <path id="Path_13510" data-name="Path 13510" d="M2584.125,898.688s.85,2.488,2.61,3.277" transform="translate(-2516.045 -794.081)" fill="none" stroke="#252f33" stroke-miterlimit="10" stroke-width="0.25"/>
      <path id="Path_13511" data-name="Path 13511" d="M2587.313,896.125a5.593,5.593,0,0,1,1.092,2.488" transform="translate(-2516.139 -794.006)" fill="none" stroke="#252f33" stroke-miterlimit="10" stroke-width="0.25"/>
      <path id="Path_13512" data-name="Path 13512" d="M2639.417,865.711s.485-1.092,1.092-1.294" transform="translate(-2517.653 -793.084)" fill="none" stroke="#252f33" stroke-miterlimit="10" stroke-width="0.25"/>
      <path id="Path_13513" data-name="Path 13513" d="M2692.425,849.624c1.161.372,1.213,6.251-1.274,7.161S2690.4,848.976,2692.425,849.624Z" transform="translate(-2519.122 -792.653)" fill="#3a6026" stroke="#000" stroke-linejoin="round" stroke-width="0.25"/>
      <path id="Path_13514" data-name="Path 13514" d="M2693.429,860.083c1.243.173-.117,5.138-1.738,5.422S2691.973,859.881,2693.429,860.083Z" transform="translate(-2519.155 -792.958)" fill="#3a6026" stroke="#000" stroke-linejoin="round" stroke-width="0.25"/>
      <path id="Path_13515" data-name="Path 13515" d="M2668.251,936.667c1.037.214,1.253,4.491-.405,4.53S2666.875,936.383,2668.251,936.667Z" transform="translate(-2518.452 -795.185)" fill="#3a6026" stroke="#000" stroke-linejoin="round" stroke-width="0.25"/>
      <path id="Path_13516" data-name="Path 13516" d="M2669.575,945.54c1.6-.9,1.5,8.778-.484,8.414S2667.917,946.471,2669.575,945.54Z" transform="translate(-2518.482 -795.441)" fill="#3a6026" stroke="#000" stroke-linejoin="round" stroke-width="0.25"/>
      <path id="Path_13517" data-name="Path 13517" d="M2664.243,959.167c1.085.127,1.011,6.554-.728,6.229S2662.868,959,2664.243,959.167Z" transform="translate(-2518.328 -795.839)" fill="#3a6026" stroke="#000" stroke-linejoin="round" stroke-width="0.25"/>
      <path id="Path_13518" data-name="Path 13518" d="M2671.5,963.148c1.588,2,.2,9.506-2.87,8.738S2668.832,959.79,2671.5,963.148Z" transform="translate(-2518.467 -795.937)" fill="#3a6026" stroke="#000" stroke-linejoin="round" stroke-width="0.25"/>
      <path id="Path_13519" data-name="Path 13519" d="M2671.771,979.467c1.257-2.59,2.71-.243,1.5,3.236C2672.562,984.725,2669.762,983.6,2671.771,979.467Z" transform="translate(-2518.573 -796.398)" fill="#3a6026" stroke="#000" stroke-linejoin="round" stroke-width="0.25"/>
      <path id="Path_13520" data-name="Path 13520" d="M2653.561,1028.745c1.663.994-1.313,8.01-3.5,6.877S2651.395,1027.451,2653.561,1028.745Z" transform="translate(-2517.943 -797.858)" fill="#3a6026" stroke="#000" stroke-linejoin="round" stroke-width="0.25"/>
      <path id="Path_13521" data-name="Path 13521" d="M2651.66,1039.5c1.107.741-.716,6.23-3.184,5.988S2649.909,1038.323,2651.66,1039.5Z" transform="translate(-2517.894 -798.171)" fill="#3a6026" stroke="#000" stroke-linejoin="round" stroke-width="0.25"/>
      <path id="Path_13522" data-name="Path 13522" d="M2577.706,1075.055c-.667-1.4,3.8-3.357,4.33-1.74S2578.556,1076.834,2577.706,1075.055Z" transform="translate(-2515.857 -799.141)" fill="#3a6026" stroke="#000" stroke-linejoin="round" stroke-width="0.25"/>
      <path id="Path_13523" data-name="Path 13523" d="M2586.573,1077.516c1.166,1.527-4.085,3.034-5.663,1.011S2585.4,1075.978,2586.573,1077.516Z" transform="translate(-2515.945 -799.255)" fill="#3a6026" stroke="#000" stroke-linejoin="round" stroke-width="0.25"/>
      <path id="Path_13524" data-name="Path 13524" d="M2569.167,1079.542c.164-1.13,7.443-2.757,7.2-.371S2568.883,1081.491,2569.167,1079.542Z" transform="translate(-2515.61 -799.293)" fill="#3a6026" stroke="#000" stroke-linejoin="round" stroke-width="0.25"/>
      <path id="Path_13525" data-name="Path 13525" d="M2673.17,791.039c2.478-.643,2.711,2.265,5.866,3.357s5.542-1.214,7,1.578-1.093,7.282-9.467,5.219S2669.893,791.889,2673.17,791.039Z" transform="translate(-2518.557 -790.948)" fill="#fff6eb" stroke="#000" stroke-miterlimit="10" stroke-width="0.25"/>
      <g id="Group_3762" data-name="Group 3762" transform="translate(26.781 50.97)">
        <g id="Group_3761" data-name="Group 3761" clip-path="url(#clip-path)">
          <g id="Group_3760" data-name="Group 3760" transform="translate(2.793 29.963)">
            <circle id="Ellipse_2448" data-name="Ellipse 2448" cx="5.41" cy="5.41" r="5.41" transform="translate(82.704)" fill="#6d4a32" stroke="#000" stroke-linejoin="round" stroke-width="0.25"/>
            <circle id="Ellipse_2449" data-name="Ellipse 2449" cx="5.41" cy="5.41" r="5.41" transform="translate(83.992 13.308)" fill="#6d4a32" stroke="#000" stroke-linejoin="round" stroke-width="0.25"/>
            <circle id="Ellipse_2450" data-name="Ellipse 2450" cx="5.41" cy="5.41" r="5.41" transform="translate(65.681 17.672)" fill="#6d4a32" stroke="#000" stroke-linejoin="round" stroke-width="0.25"/>
            <circle id="Ellipse_2451" data-name="Ellipse 2451" cx="5.41" cy="5.41" r="5.41" transform="translate(71.091 34.904)" fill="#6d4a32" stroke="#000" stroke-linejoin="round" stroke-width="0.25"/>
            <circle id="Ellipse_2452" data-name="Ellipse 2452" cx="5.41" cy="5.41" r="5.41" transform="translate(79.733 33.901)" fill="#6d4a32" stroke="#000" stroke-linejoin="round" stroke-width="0.25"/>
            <circle id="Ellipse_2453" data-name="Ellipse 2453" cx="5.41" cy="5.41" r="5.41" transform="translate(46.471 32.994)" fill="#6d4a32" stroke="#000" stroke-linejoin="round" stroke-width="0.25"/>
            <circle id="Ellipse_2454" data-name="Ellipse 2454" cx="5.41" cy="5.41" r="5.41" transform="translate(44.27 42.217)" fill="#6d4a32" stroke="#000" stroke-linejoin="round" stroke-width="0.25"/>
            <circle id="Ellipse_2455" data-name="Ellipse 2455" cx="5.41" cy="5.41" r="5.41" transform="translate(70.039 51.133)" fill="#6d4a32" stroke="#000" stroke-linejoin="round" stroke-width="0.25"/>
            <circle id="Ellipse_2456" data-name="Ellipse 2456" cx="5.41" cy="5.41" r="5.41" transform="translate(47.424 66.258)" fill="#6d4a32" stroke="#000" stroke-linejoin="round" stroke-width="0.25"/>
            <circle id="Ellipse_2457" data-name="Ellipse 2457" cx="5.41" cy="5.41" r="5.41" transform="translate(61.216 64.451)" fill="#6d4a32" stroke="#000" stroke-linejoin="round" stroke-width="0.25"/>
            <circle id="Ellipse_2458" data-name="Ellipse 2458" cx="5.41" cy="5.41" r="5.41" transform="translate(55.22 69.861)" fill="#6d4a32" stroke="#000" stroke-linejoin="round" stroke-width="0.25"/>
            <circle id="Ellipse_2459" data-name="Ellipse 2459" cx="5.41" cy="5.41" r="5.41" transform="translate(56.398 83.671)" fill="#6d4a32" stroke="#000" stroke-linejoin="round" stroke-width="0.25"/>
            <circle id="Ellipse_2460" data-name="Ellipse 2460" cx="5.41" cy="5.41" r="5.41" transform="translate(48.148 86.327)" fill="#6d4a32" stroke="#000" stroke-linejoin="round" stroke-width="0.25"/>
            <circle id="Ellipse_2461" data-name="Ellipse 2461" cx="5.41" cy="5.41" r="5.41" transform="translate(64.63 81.566)" fill="#6d4a32" stroke="#000" stroke-linejoin="round" stroke-width="0.25"/>
            <circle id="Ellipse_2462" data-name="Ellipse 2462" cx="5.41" cy="5.41" r="5.41" transform="translate(64.63 71.668)" fill="#6d4a32" stroke="#000" stroke-linejoin="round" stroke-width="0.25"/>
            <circle id="Ellipse_2463" data-name="Ellipse 2463" cx="5.41" cy="5.41" r="5.41" transform="translate(29.56 49.402)" fill="#6d4a32" stroke="#000" stroke-linejoin="round" stroke-width="0.25"/>
            <circle id="Ellipse_2464" data-name="Ellipse 2464" cx="5.41" cy="5.41" r="5.41" transform="translate(30.708 63.274)" fill="#6d4a32" stroke="#000" stroke-linejoin="round" stroke-width="0.25"/>
            <circle id="Ellipse_2465" data-name="Ellipse 2465" cx="5.41" cy="5.41" r="5.41" transform="translate(4.706 84.26)" fill="#6d4a32" stroke="#000" stroke-linejoin="round" stroke-width="0.25"/>
            <circle id="Ellipse_2466" data-name="Ellipse 2466" cx="5.41" cy="5.41" r="5.41" transform="translate(25.298 78.261)" fill="#6d4a32" stroke="#000" stroke-linejoin="round" stroke-width="0.25"/>
            <circle id="Ellipse_2467" data-name="Ellipse 2467" cx="5.41" cy="5.41" r="5.41" transform="translate(12.244 99.007)" fill="#6d4a32" stroke="#000" stroke-linejoin="round" stroke-width="0.25"/>
            <circle id="Ellipse_2468" data-name="Ellipse 2468" cx="5.41" cy="5.41" r="5.41" transform="translate(8.75 107.549)" fill="#6d4a32" stroke="#000" stroke-linejoin="round" stroke-width="0.25"/>
            <circle id="Ellipse_2469" data-name="Ellipse 2469" cx="5.41" cy="5.41" r="5.41" transform="translate(0 111.69)" fill="#6d4a32" stroke="#000" stroke-linejoin="round" stroke-width="0.25"/>
            <circle id="Ellipse_2470" data-name="Ellipse 2470" cx="5.41" cy="5.41" r="5.41" transform="translate(17.361 115.618)" fill="#6d4a32" stroke="#000" stroke-linejoin="round" stroke-width="0.25"/>
            <circle id="Ellipse_2471" data-name="Ellipse 2471" cx="5.41" cy="5.41" r="5.41" transform="translate(25.298 108.48)" fill="#6d4a32" stroke="#000" stroke-linejoin="round" stroke-width="0.25"/>
            <circle id="Ellipse_2472" data-name="Ellipse 2472" cx="5.41" cy="5.41" r="5.41" transform="translate(32.385 113.89)" fill="#6d4a32" stroke="#000" stroke-linejoin="round" stroke-width="0.25"/>
            <circle id="Ellipse_2473" data-name="Ellipse 2473" cx="5.41" cy="5.41" r="5.41" transform="translate(25.298 124.229)" fill="#6d4a32" stroke="#000" stroke-linejoin="round" stroke-width="0.25"/>
            <circle id="Ellipse_2474" data-name="Ellipse 2474" cx="5.41" cy="5.41" r="5.41" transform="translate(28.181 132.702)" fill="#6d4a32" stroke="#000" stroke-linejoin="round" stroke-width="0.25"/>
            <circle id="Ellipse_2475" data-name="Ellipse 2475" cx="5.41" cy="5.41" r="5.41" transform="translate(19.888 135.793)" fill="#6d4a32" stroke="#000" stroke-linejoin="round" stroke-width="0.25"/>
            <circle id="Ellipse_2476" data-name="Ellipse 2476" cx="5.41" cy="5.41" r="5.41" transform="translate(20.983 144.413)" fill="#6d4a32" stroke="#000" stroke-linejoin="round" stroke-width="0.25"/>
            <circle id="Ellipse_2477" data-name="Ellipse 2477" cx="5.41" cy="5.41" r="5.41" transform="translate(10.164 152.814)" fill="#6d4a32" stroke="#000" stroke-linejoin="round" stroke-width="0.25"/>
            <circle id="Ellipse_2478" data-name="Ellipse 2478" cx="5.41" cy="5.41" r="5.41" transform="translate(6.542 144.413)" fill="#6d4a32" stroke="#000" stroke-linejoin="round" stroke-width="0.25"/>
            <circle id="Ellipse_2479" data-name="Ellipse 2479" cx="5.41" cy="5.41" r="5.41" transform="translate(8.698 126.453)" fill="#6d4a32" stroke="#000" stroke-linejoin="round" stroke-width="0.25"/>
            <circle id="Ellipse_2480" data-name="Ellipse 2480" cx="5.41" cy="5.41" r="5.41" transform="translate(0.713 130.297)" fill="#6d4a32" stroke="#000" stroke-linejoin="round" stroke-width="0.25"/>
            <circle id="Ellipse_2481" data-name="Ellipse 2481" cx="5.41" cy="5.41" r="5.41" transform="translate(33.924 128.375)" fill="#6d4a32" stroke="#000" stroke-linejoin="round" stroke-width="0.25"/>
            <circle id="Ellipse_2482" data-name="Ellipse 2482" cx="5.41" cy="5.41" r="5.41" transform="translate(40.724 109.491)" fill="#6d4a32" stroke="#000" stroke-linejoin="round" stroke-width="0.25"/>
            <circle id="Ellipse_2483" data-name="Ellipse 2483" cx="5.41" cy="5.41" r="5.41" transform="translate(37.328 97.66)" fill="#6d4a32" stroke="#000" stroke-linejoin="round" stroke-width="0.25"/>
            <circle id="Ellipse_2484" data-name="Ellipse 2484" cx="5.41" cy="5.41" r="5.41" transform="translate(46.134 101.313)" fill="#6d4a32" stroke="#000" stroke-linejoin="round" stroke-width="0.25"/>
            <circle id="Ellipse_2485" data-name="Ellipse 2485" cx="5.41" cy="5.41" r="5.41" transform="translate(53.558 106.395)" fill="#6d4a32" stroke="#000" stroke-linejoin="round" stroke-width="0.25"/>
            <circle id="Ellipse_2486" data-name="Ellipse 2486" cx="5.41" cy="5.41" r="5.41" transform="translate(49.811 115.618)" fill="#6d4a32" stroke="#000" stroke-linejoin="round" stroke-width="0.25"/>
            <circle id="Ellipse_2487" data-name="Ellipse 2487" cx="5.41" cy="5.41" r="5.41" transform="translate(55.22 99.939)" fill="#6d4a32" stroke="#000" stroke-linejoin="round" stroke-width="0.25"/>
            <path id="Path_13526" data-name="Path 13526" d="M2609.549,913.167s-1.052,5.141-3.965,7.992" transform="translate(-2546.243 -875.435)" fill="none" stroke="#252f33" stroke-miterlimit="10" stroke-width="0.25"/>
            <path id="Path_13527" data-name="Path 13527" d="M2611.061,914.793a5.169,5.169,0,0,1-.728,2.6" transform="translate(-2546.381 -875.482)" fill="none" stroke="#252f33" stroke-miterlimit="10" stroke-width="0.25"/>
          </g>
        </g>
      </g>
    </g>
    <g id="Group_3764" data-name="Group 3764" transform="translate(2446.702 1027.4)">
      <ellipse id="Ellipse_2488" data-name="Ellipse 2488" cx="5.947" cy="2.705" rx="5.947" ry="2.705" transform="translate(13.74 0)" fill="#ecb36f" stroke="#000" stroke-linejoin="round" stroke-width="0.25"/>
      <path id="Path_13529" data-name="Path 13529" d="M2512.528,1047.957s-2.757,2.751-14.893,0-13.107-1.043-20.389.612a28.419,28.419,0,0,1-14.079-.726" transform="translate(-2447.713 -1034.831)" fill="none" stroke="#252f33" stroke-miterlimit="10" stroke-width="0.25"/>
      <path id="Path_13530" data-name="Path 13530" d="M2447.25,1047.844s3.317-2.866,8.253,0" transform="translate(-2447.25 -1034.833)" fill="none" stroke="#252f33" stroke-miterlimit="10" stroke-width="0.25"/>
      <ellipse id="Ellipse_2489" data-name="Ellipse 2489" cx="4.976" cy="2.832" rx="4.976" ry="2.832" transform="translate(35.519 28.013)" fill="#c19165" stroke="#000" stroke-linejoin="round" stroke-width="0.25"/>
      <ellipse id="Ellipse_2490" data-name="Ellipse 2490" cx="8.172" cy="3.965" rx="8.172" ry="3.965" transform="translate(55.99 50.182)" fill="#c19165" stroke="#000" stroke-linejoin="round" stroke-width="0.25"/>
      <ellipse id="Ellipse_2491" data-name="Ellipse 2491" cx="3.277" cy="2.185" rx="3.277" ry="2.185" transform="translate(33.578 58.111)" fill="#ecb36f" stroke="#000" stroke-linejoin="round" stroke-width="0.25"/>
      <path id="Path_13531" data-name="Path 13531" d="M2483,1107.892a15.046,15.046,0,0,0,14.241.89c8.253-3.479,14.725-1.294,20.308,2.67s14.321.284,15.777-2.2" transform="translate(-2448.29 -1036.592)" fill="none" stroke="#252f33" stroke-miterlimit="10" stroke-width="0.25"/>
      <path id="Path_13532" data-name="Path 13532" d="M2553.083,1098.159s3.318,2.75,9.386.566,8.332.485,9.83,1.7" transform="translate(-2450.328 -1036.326)" fill="none" stroke="#252f33" stroke-miterlimit="10" stroke-width="0.25"/>
      <path id="Path_13533" data-name="Path 13533" d="M2580.649,1105.616s3.982-3.8,10.131,0a11.483,11.483,0,0,0,11.894,0" transform="translate(-2451.129 -1036.501)" fill="none" stroke="#252f33" stroke-miterlimit="10" stroke-width="0.25"/>
      <ellipse id="Ellipse_2492" data-name="Ellipse 2492" cx="4.309" cy="2.67" rx="4.309" ry="2.67" transform="translate(123.901 90.391)" fill="#c19165" stroke="#000" stroke-linejoin="round" stroke-width="0.25"/>
      <path id="Path_13534" data-name="Path 13534" d="M2530.5,1139.479s4.207,3.56,11.489.323,7.687,2.185,19.58,2.67" transform="translate(-2449.671 -1037.515)" fill="none" stroke="#252f33" stroke-miterlimit="10" stroke-width="0.25"/>
      <path id="Path_13535" data-name="Path 13535" d="M2615.167,1140.215s3.964-2.993,8.819.566,10.438-.872,10.438-.872" transform="translate(-2452.133 -1037.522)" fill="none" stroke="#252f33" stroke-miterlimit="10" stroke-width="0.25"/>
      <path id="Path_13536" data-name="Path 13536" d="M2708.583,1095.278s3.034,2.67,9.831.283a12.352,12.352,0,0,1,11.651,1.74" transform="translate(-2454.85 -1036.236)" fill="none" stroke="#252f33" stroke-miterlimit="10" stroke-width="0.25"/>
      <ellipse id="Ellipse_2493" data-name="Ellipse 2493" cx="4.895" cy="2.788" rx="4.895" ry="2.788" transform="translate(272.06 48.814)" fill="#c19165" stroke="#000" stroke-linejoin="round" stroke-width="0.25"/>
      <ellipse id="Ellipse_2494" data-name="Ellipse 2494" cx="3.155" cy="1.537" rx="3.155" ry="1.537" transform="translate(257.173 50.061)" fill="#ecb36f" stroke="#000" stroke-linejoin="round" stroke-width="0.25"/>
      <ellipse id="Ellipse_2495" data-name="Ellipse 2495" cx="4.761" cy="2.697" rx="4.761" ry="2.697" transform="translate(19.687 101.263)" fill="#ecb36f" stroke="#000" stroke-linejoin="round" stroke-width="0.25"/>
    </g>
  </g>
</svg>
