<svg xmlns="http://www.w3.org/2000/svg" width="319.58" height="383.359" viewBox="0 0 319.58 383.359">
  <g id="Group_3658" data-name="Group 3658" transform="translate(-1662.958 -775.831)">
    <path id="Path_12615" data-name="Path 12615" d="M1809.949,1037.176s.956-6.622,6.622-10.173l1.98,1.435s-5.12,3.891-5.394,10.309Z" transform="translate(8.276 14.146)" fill="#a2c427" stroke="#231815" stroke-miterlimit="10" stroke-width="0.25"/>
    <g id="Group_3663" data-name="Group 3663" transform="translate(1757.229 879.522)">
      <g id="Group_3658-2" data-name="Group 3658" transform="translate(0 93.205)">
        <path id="Path_12616" data-name="Path 12616" d="M1767.331,962.656s13.381-3.574,28.1,10.024c0,0,2.736.829,10.943-2.557s16.155-6.605,28.271-5.062l-1.495,6.094s-19.956.005-25.773,4.872-9.622,6.364-16.224,6.677-14.432,5.461-19.69,13.405-9.621,17.229-16.11,21.928l-3.149-2.461s3.585-1.567,7.562-10.517,14.382-26.514,31.5-29.759c0,0-7.15-11.524-23.937-9.174l-3.378-3.218Z" transform="translate(-1752.206 -962.232)" fill="#62a542" stroke="#000" stroke-linejoin="round" stroke-width="0.25"/>
        <path id="Path_12617" data-name="Path 12617" d="M1789.184,974.6a14.7,14.7,0,0,1,1.769,3.667" transform="translate(-1750.122 -961.535)" fill="none" stroke="#000" stroke-linejoin="round" stroke-width="0.25"/>
        <path id="Path_12618" data-name="Path 12618" d="M1793.127,972.122a15,15,0,0,1,1.845,3.046" transform="translate(-1749.9 -961.674)" fill="none" stroke="#000" stroke-linejoin="round" stroke-width="0.25"/>
      </g>
      <g id="Group_3659" data-name="Group 3659" transform="translate(127.915 21.374)">
        <path id="Path_12619" data-name="Path 12619" d="M1875.942,903.652c.754.422,5.03-1.552,13.58.641s9.208,11.51,16.772,14.688c0,0-21.377,5.7-33,19.293l3.508,2.521s4.275-4.6,12.99-6.687,22.2-11.182,35.243-14.141,30.887-5.273,43.343-17.6l-4.421-6.825s-13.819,12.477-46.266,19.163a16.24,16.24,0,0,0-6.14-1.425c-3.507-.11-7.453-2.631-10.3-6.248s-14.518-10.3-24.908-6.575Z" transform="translate(-1873.298 -894.159)" fill="#a2c427" stroke="#231815" stroke-miterlimit="10" stroke-width="0.25"/>
        <path id="Path_12620" data-name="Path 12620" d="M1904.534,917.731a12.943,12.943,0,0,0,5.164,1.013" transform="translate(-1871.538 -892.908)" fill="#cad226" stroke="#231815" stroke-miterlimit="10" stroke-width="0.25"/>
        <path id="Path_12621" data-name="Path 12621" d="M1915.327,913.684a5.393,5.393,0,0,1,1.876,1.6" transform="translate(-1870.93 -893.137)" fill="#a2c427" stroke="#231815" stroke-miterlimit="10" stroke-width="0.25"/>
        <ellipse id="Ellipse_2269" data-name="Ellipse 2269" cx="2.547" cy="4.066" rx="2.547" ry="4.066" transform="translate(88.525 2.77) rotate(-32.933)" fill="#62a542" stroke="#000" stroke-linejoin="round" stroke-width="0.25"/>
      </g>
      <g id="Group_3660" data-name="Group 3660" transform="translate(124.059)">
        <path id="Path_12622" data-name="Path 12622" d="M1941.279,876.456s-2.752,18.309-9.224,27.931-12.262,30.95-29.387,53.848-33.022,34.29-33.022,34.29l10.772,3.618s16.261-17.676,28.663-37.908,20.661-29.454,28.054-47.676,12.275-34.1,12.275-34.1Z" transform="translate(-1869.647 -873.86)" fill="#62a542" stroke="#000" stroke-linejoin="round" stroke-width="0.25"/>
        <ellipse id="Ellipse_2270" data-name="Ellipse 2270" cx="4.066" cy="2.596" rx="4.066" ry="2.596" transform="translate(71.633)" fill="#62a542" stroke="#000" stroke-linejoin="round" stroke-width="0.25"/>
      </g>
      <path id="Path_12623" data-name="Path 12623" d="M1775.27,1028.18s4.945-3.663,17.5-2.934c12.937.751,20.493-.92,25.3-5.572l1.035,6.289s-4.953,3.5-15.967,3.192-15.44-2.646-24.092,3.165Z" transform="translate(-1750.907 -865.79)" fill="#a2c427" stroke="#231815" stroke-miterlimit="10" stroke-width="0.25"/>
      <path id="Path_12624" data-name="Path 12624" d="M1762.477,1016.778s11.973-8.19,26.049-9.721,30.423-.969,37.175,5.554l-11.257,4.571s-20.263-7.561-47.484,2.087Z" transform="translate(-1751.628 -866.541)" fill="#a2c427" stroke="#231815" stroke-miterlimit="10" stroke-width="0.25"/>
      <path id="Path_12625" data-name="Path 12625" d="M1763.852,983.736s3.14,4.709,13.591,8.52,19.516,5.588,30.29,9.954,24.3,2.532,32.844,9.821l2.759-17.925s-17.736,3.406-26.8,1.565c0,0-6.7-5.157-7.75-16.5s-13.085-20.521-13.085-20.521l-4.2,3.787s5.331,3,9.4,14.9,1.708,13.629,5.388,16.772a215.045,215.045,0,0,0-21.341-3.77c-9.928-1.1-18.861-13-18.861-13Z" transform="translate(-1751.55 -869.229)" fill="#62a542" stroke="#000" stroke-linejoin="round" stroke-width="0.25"/>
      <g id="Group_3661" data-name="Group 3661" transform="translate(138.884 79.27)">
        <path id="Path_12626" data-name="Path 12626" d="M1883.681,954.144s9.188-4.495,21.232,7.662,28.806,33.056,55.5,31.732l-3.3-10.206s-5.547,3.472-21.034-3.985c-22.472-10.819-31.784-34.154-52.395-29.764Z" transform="translate(-1883.681 -949.04)" fill="#a2c427" stroke="#231815" stroke-miterlimit="10" stroke-width="0.25"/>
        <ellipse id="Ellipse_2271" data-name="Ellipse 2271" cx="2.705" cy="5.364" rx="2.705" ry="5.364" transform="matrix(0.951, -0.308, 0.308, 0.951, 70.855, 35.125)" fill="#62a542" stroke="#000" stroke-linejoin="round" stroke-width="0.25"/>
      </g>
      <g id="Group_3662" data-name="Group 3662" transform="translate(138.09 79.468)">
        <path id="Path_12627" data-name="Path 12627" d="M1893.917,982.836s9.253,1.9,22.412-9.421,33.075-15.978,47.634-14.5l-.457-9.571s-15.117-1.525-34.868,7.41c-19.857,8.984-26.793,21.779-45.708,21.78Z" transform="translate(-1882.93 -949.226)" fill="#62a542" stroke="#000" stroke-linejoin="round" stroke-width="0.25"/>
        <ellipse id="Ellipse_2272" data-name="Ellipse 2272" cx="2.548" cy="4.79" rx="2.548" ry="4.79" transform="matrix(0.999, -0.048, 0.048, 0.999, 78.031, 0.244)" fill="#62a542" stroke="#000" stroke-linejoin="round" stroke-width="0.25"/>
      </g>
    </g>
    <g id="Group_3664" data-name="Group 3664" transform="translate(1802.326 811.812)">
      <path id="Path_12628" data-name="Path 12628" d="M1802.412,825.272s-.911-7.67,2.08-11.44,6.631-4.421,8.841-3.64v2.6a6.179,6.179,0,0,0-7.02,2.875c-2.6,4.275-.13,10.255-.13,10.255Z" transform="translate(-1794.482 -809.9)" fill="#62a542" stroke="#000" stroke-linejoin="round" stroke-width="0.25"/>
      <path id="Path_12629" data-name="Path 12629" d="M1822.83,848.451c3.125,2.21,5.725,10.921,7.155,22.361s2.211,17.356,4.551,20.443" transform="translate(-1793.324 -807.728)" fill="none" stroke="#000" stroke-linejoin="round" stroke-width="0.25"/>
      <path id="Path_12630" data-name="Path 12630" d="M1798.213,824.61s7.345-5.246,14.5.6c0,0,4.81-6.37,14.561,1.17s8.991,18.331,16.066,25.221,5.255,8.32,9.805,13,7.8,8.19,6.891,13.65-28.9,20.629-29.4,20.91-13.369,1.191-13.369,1.191L1794.9,847.706Z" transform="translate(-1794.898 -809.193)" fill="#cad226" stroke="#231815" stroke-miterlimit="10" stroke-width="0.25"/>
      <ellipse id="Ellipse_2273" data-name="Ellipse 2273" cx="1.101" cy="2.345" rx="1.101" ry="2.345" transform="translate(29.275 26.894) rotate(-23.307)" fill="#dffffa" stroke="#231815" stroke-miterlimit="10" stroke-width="0.25"/>
      <ellipse id="Ellipse_2274" data-name="Ellipse 2274" cx="2.167" cy="4.725" rx="2.167" ry="4.725" transform="translate(35.05 31.287) rotate(-23.307)" fill="#dffffa" stroke="#231815" stroke-miterlimit="10" stroke-width="0.25"/>
      <path id="Path_12631" data-name="Path 12631" d="M1811.758,825.067s6.745,5.773,8.331,18.187" transform="translate(-1793.948 -809.046)" fill="none" stroke="#000" stroke-linejoin="round" stroke-width="0.25"/>
    </g>
    <g id="Group_3665" data-name="Group 3665" transform="translate(1710.67 775.972)">
      <path id="Path_12632" data-name="Path 12632" d="M1758.169,778.09a1.7,1.7,0,0,1,2.145-2.016c1.1.455.26,2.8,2.8,8.127s3.121,12.027,1.4,16.708l-3.544-1.325a11.92,11.92,0,0,0,1.5-9.727C1760.9,784.266,1758.754,780.561,1758.169,778.09Z" transform="translate(-1705.315 -775.973)" fill="#62a542" stroke="#000" stroke-linejoin="round" stroke-width="0.25"/>
      <path id="Path_12633" data-name="Path 12633" d="M1766.822,798.527s2.6-5.578,10.784-1.859c0,0,5.083-4.09,9.67-.372s12.271,14.5,15.246,27.4,9.033,36.429,15.161,51.512,8.825,23.131,6.127,29.433-67.668,54.662-67.668,54.662-20.473,8.759-35.32-7.03-13.957-29.931-10.75-43.364-3.155-18.04,3.679-35.886,10.6-16.9,13.9-38.35,12.726-44.542,30.873-37.708C1758.53,796.961,1763.8,794.2,1766.822,798.527Z" transform="translate(-1708.131 -774.915)" fill="#cad226" stroke="#231815" stroke-miterlimit="10" stroke-width="0.25"/>
      <path id="Path_12634" data-name="Path 12634" d="M1738.662,863.537s4.949-59.153,18.147-66.695" transform="translate(-1706.411 -774.796)" fill="none" stroke="#000" stroke-linejoin="round" stroke-width="0.25"/>
      <path id="Path_12635" data-name="Path 12635" d="M1773.9,796.565s7.436,4.063,12.444,19.853" transform="translate(-1704.425 -774.812)" fill="none" stroke="#000" stroke-linejoin="round" stroke-width="0.25"/>
      <path id="Path_12636" data-name="Path 12636" d="M1767.576,806.607s6.471,10.27,6.68,26.521.86,17.811,2.81,20.932-.794,10.27,1.1,16.12.333,14.561-1.358,17.811" transform="translate(-1704.782 -774.246)" fill="none" stroke="#000" stroke-linejoin="round" stroke-width="0.25"/>
      <path id="Path_12637" data-name="Path 12637" d="M1775.528,892.414a10.452,10.452,0,0,1-1.429,4.912" transform="translate(-1704.414 -769.411)" fill="none" stroke="#000" stroke-linejoin="round" stroke-width="0.25"/>
      <path id="Path_12638" data-name="Path 12638" d="M1791.821,849.312c.39,4.551-.39,12.009,2.47,20.63s.91,20.09,0,27.356" transform="translate(-1703.416 -771.84)" fill="none" stroke="#000" stroke-linejoin="round" stroke-width="0.25"/>
      <ellipse id="Ellipse_2275" data-name="Ellipse 2275" cx="2.187" cy="1.599" rx="2.187" ry="1.599" transform="translate(30.563 35.323) rotate(-52.809)" fill="#dffffa" stroke="#231815" stroke-miterlimit="10" stroke-width="0.25"/>
      <ellipse id="Ellipse_2276" data-name="Ellipse 2276" cx="4.643" cy="2.767" rx="4.643" ry="2.767" transform="translate(27.653 47.596) rotate(-62.513)" fill="#dffffa" stroke="#231815" stroke-miterlimit="10" stroke-width="0.25"/>
      <path id="Path_12639" data-name="Path 12639" d="M1739.2,870.419s-1.973,26.359,10.425,50.485" transform="translate(-1706.387 -770.651)" fill="none" stroke="#000" stroke-linejoin="round" stroke-width="0.25"/>
      <path id="Path_12640" data-name="Path 12640" d="M1726.337,885.413s-.495,4.693,1.088,7.4" transform="translate(-1707.11 -769.806)" fill="none" stroke="#000" stroke-linejoin="round" stroke-width="0.25"/>
      <path id="Path_12641" data-name="Path 12641" d="M1728.118,908.269a16.422,16.422,0,0,0,2.375,10.5c3.264,5.227,1.186,8.194,4.451,10.866" transform="translate(-1707.011 -768.518)" fill="none" stroke="#000" stroke-linejoin="round" stroke-width="0.25"/>
      <path id="Path_12642" data-name="Path 12642" d="M1763.691,798.325s.492.87,1,2.066" transform="translate(-1705 -774.713)" fill="none" stroke="#000" stroke-linejoin="round" stroke-width="0.25"/>
    </g>
    <g id="Group_3666" data-name="Group 3666" transform="translate(1752.493 891.58)">
      <path id="Path_12643" data-name="Path 12643" d="M1749.917,885.413s3.225,5.677,2.839,18.32,2.708,24.9,6.709,28.642c0,0,1.677,7.612-10.322,9.161,0,0,7.612,6.863-1.42,15.237L1774.3,968.63l14.45,4.386s5.677-1.935,7.1-7.741c0,0,14.579,3.355,25.546-6.967l27.1-17.852s-30.946-32.95-34.062-32.281-28.5,5.788-28.5,5.788S1778.014,898.272,1749.917,885.413Z" transform="translate(-1747.723 -885.413)" fill="#a2c427" stroke="#231815" stroke-miterlimit="10" stroke-width="0.25"/>
      <path id="Path_12644" data-name="Path 12644" d="M1749.841,885.413s11.308,9.4,24.221,35.229c10.386,20.772,10.468,33.608,21.709,44.633,0,0-23.027-21.859-46.7-23.739" transform="translate(-1747.647 -885.413)" fill="none" stroke="#000" stroke-linejoin="round" stroke-width="0.25"/>
      <path id="Path_12645" data-name="Path 12645" d="M1753.139,914.375s10.218,13.79,26.466,17.734" transform="translate(-1747.418 -883.781)" fill="none" stroke="#000" stroke-linejoin="round" stroke-width="0.25"/>
      <path id="Path_12646" data-name="Path 12646" d="M1770.962,898.159s2.305,9-1.66,14.861" transform="translate(-1746.507 -884.695)" fill="none" stroke="#000" stroke-linejoin="round" stroke-width="0.25"/>
      <path id="Path_12647" data-name="Path 12647" d="M1762.477,932.216s6.213,4.44,9.186,14.043" transform="translate(-1746.892 -882.776)" fill="none" stroke="#000" stroke-linejoin="round" stroke-width="0.25"/>
      <path id="Path_12648" data-name="Path 12648" d="M1772.005,951.686s5.621,1.724,9.957,0" transform="translate(-1746.355 -881.679)" fill="none" stroke="#000" stroke-linejoin="round" stroke-width="0.25"/>
      <path id="Path_12649" data-name="Path 12649" d="M1785.768,922.769s-1.533,13.053,8.262,19.334" transform="translate(-1745.584 -883.308)" fill="none" stroke="#000" stroke-linejoin="round" stroke-width="0.25"/>
      <path id="Path_12650" data-name="Path 12650" d="M1802.7,908.739c-11.34,12.394-9.415,55.222-9.415,55.222s8.846-9.935,19.933-15.479,19.3-14.341,21.606-20.915" transform="translate(-1745.163 -884.099)" fill="none" stroke="#000" stroke-linejoin="round" stroke-width="0.25"/>
      <path id="Path_12651" data-name="Path 12651" d="M1823.8,926.135s-11.529,6.934-15.466,23.621" transform="translate(-1744.308 -883.118)" fill="none" stroke="#000" stroke-linejoin="round" stroke-width="0.25"/>
      <path id="Path_12652" data-name="Path 12652" d="M1811.848,956.667a9.467,9.467,0,0,1-8.675-4.618" transform="translate(-1744.599 -881.658)" fill="none" stroke="#000" stroke-linejoin="round" stroke-width="0.25"/>
      <path id="Path_12653" data-name="Path 12653" d="M1767.746,959.286s14.133-3.243,26.973,1.884" transform="translate(-1746.595 -881.307)" fill="none" stroke="#000" stroke-linejoin="round" stroke-width="0.25"/>
      <path id="Path_12654" data-name="Path 12654" d="M1777.6,964.512s4.695-1.667,6.573-5.866" transform="translate(-1746.039 -881.286)" fill="none" stroke="#000" stroke-linejoin="round" stroke-width="0.25"/>
    </g>
    <g id="Group_3667" data-name="Group 3667" transform="translate(1784.053 874.075)">
      <path id="Path_12655" data-name="Path 12655" d="M1777.6,916.345c.221,0,13.88-1.816,32.467,11.018s19.884,23.352,19.884,23.352,12.334-10.031,26.8-4.6c0,0,.493-15.239,17.267-16.746,0,0-.987-7.92,5.1-11.21s6.067-9.647,4.571-13.575,3.742-6.923,1.216-14.968-7.952-8.607-8.326-15.623c0,0-13.94,5.333-23.762-5.144-5.988,18.429-21.611,14.313-21.611,14.313s-.094,10.852-18.429,15.25S1777.6,916.345,1777.6,916.345Z" transform="translate(-1777.599 -868.842)" fill="#62a542" stroke="#000" stroke-linejoin="round" stroke-width="0.25"/>
      <path id="Path_12656" data-name="Path 12656" d="M1830.609,891.705c.57.143,7.306,1.972,10.713,7.12" transform="translate(-1774.612 -867.554)" fill="none" stroke="#000" stroke-linejoin="round" stroke-width="0.25"/>
      <path id="Path_12657" data-name="Path 12657" d="M1814,922.195s15.628-8.433,18.654-22.26" transform="translate(-1775.548 -867.09)" fill="none" stroke="#000" stroke-linejoin="round" stroke-width="0.25"/>
      <path id="Path_12658" data-name="Path 12658" d="M1840.751,913.617s8.4-7.2,9.112-15.865" transform="translate(-1774.041 -867.213)" fill="none" stroke="#000" stroke-linejoin="round" stroke-width="0.25"/>
      <path id="Path_12659" data-name="Path 12659" d="M1829.95,949.09s24.416-42.089,53.471-47.48c-20.324-6.905-46.28-4.087-66.222,3.528-18.793,7.177-39.6,9.582-39.6,9.582" transform="translate(-1777.599 -867.217)" fill="none" stroke="#000" stroke-linejoin="round" stroke-width="0.25"/>
      <path id="Path_12660" data-name="Path 12660" d="M1827.688,930.873s8.335-8.879,20.33-10.288" transform="translate(-1774.777 -865.926)" fill="none" stroke="#000" stroke-linejoin="round" stroke-width="0.25"/>
      <path id="Path_12661" data-name="Path 12661" d="M1852.079,931.443s7.522-5.714,6.685-20.973" transform="translate(-1773.402 -866.496)" fill="none" stroke="#000" stroke-linejoin="round" stroke-width="0.25"/>
      <path id="Path_12662" data-name="Path 12662" d="M1857.345,905.292s4.972-1.682,8.762.63" transform="translate(-1773.105 -866.821)" fill="none" stroke="#000" stroke-linejoin="round" stroke-width="0.25"/>
      <path id="Path_12663" data-name="Path 12663" d="M1828.348,882.391s30.576,3.22,52.213,20.08a27.333,27.333,0,0,0-9.4,26.129" transform="translate(-1774.739 -868.079)" fill="none" stroke="#000" stroke-linejoin="round" stroke-width="0.25"/>
      <path id="Path_12664" data-name="Path 12664" d="M1848.806,868.842c5.454,12.454,22.088,14.394,30.6,34.393" transform="translate(-1773.587 -868.842)" fill="none" stroke="#000" stroke-linejoin="round" stroke-width="0.25"/>
      <path id="Path_12665" data-name="Path 12665" d="M1841.263,890.54s7.963,1.2,14.283-1.568" transform="translate(-1774.012 -867.708)" fill="none" stroke="#000" stroke-linejoin="round" stroke-width="0.25"/>
      <path id="Path_12666" data-name="Path 12666" d="M1860.458,884.341a23.137,23.137,0,0,1,2.644,8.528" transform="translate(-1772.93 -867.969)" fill="none" stroke="#000" stroke-linejoin="round" stroke-width="0.25"/>
      <path id="Path_12667" data-name="Path 12667" d="M1870.029,881.013s1.02,4.6-.961,7.78" transform="translate(-1772.445 -868.156)" fill="none" stroke="#000" stroke-linejoin="round" stroke-width="0.25"/>
    </g>
    <g id="Group_3668" data-name="Group 3668" transform="translate(1703.61 1001.952)">
      <path id="Path_12668" data-name="Path 12668" d="M1722.664,989.9s2.688,9.751-10.68,15.413c0,0,5.219,7.234-4.154,15.569,0,0,5.44,4.875,0,13.839a48.478,48.478,0,0,0-6.384,18.086s19.344-12.9,32.24-8.335,41.362-18.086,41.362-18.086-1.416-12.582-10.852-11.639-9.594-3.3-8.492-7.391.314-8.336-7.078-11.638S1722.664,989.9,1722.664,989.9Z" transform="translate(-1701.447 -989.897)" fill="#a2c427" stroke="#231815" stroke-miterlimit="10" stroke-width="0.25"/>
      <path id="Path_12669" data-name="Path 12669" d="M1701.447,1051.561s18.02-32.647,54.776-39.6c0,0-2.235,12.26-8.471,16.631" transform="translate(-1701.447 -988.654)" fill="none" stroke="#000" stroke-linejoin="round" stroke-width="0.25"/>
      <path id="Path_12670" data-name="Path 12670" d="M1723.335,1038.918a27.027,27.027,0,0,0,3.813-16.079" transform="translate(-1700.214 -988.041)" fill="none" stroke="#000" stroke-linejoin="round" stroke-width="0.25"/>
      <path id="Path_12671" data-name="Path 12671" d="M1722.753,1015.834s9.781-2.935,16.443.876" transform="translate(-1700.247 -988.496)" fill="none" stroke="#000" stroke-linejoin="round" stroke-width="0.25"/>
      <path id="Path_12672" data-name="Path 12672" d="M1707.49,1019.793s25.689-14.816,47.52-9.431" transform="translate(-1701.106 -988.81)" fill="none" stroke="#000" stroke-linejoin="round" stroke-width="0.25"/>
      <path id="Path_12673" data-name="Path 12673" d="M1721.307,1006.453a12.155,12.155,0,0,1,8.3,4.68" transform="translate(-1700.328 -988.964)" fill="none" stroke="#000" stroke-linejoin="round" stroke-width="0.25"/>
      <path id="Path_12674" data-name="Path 12674" d="M1711.422,1004.57s22.276-5.856,43.267,5.276" transform="translate(-1700.885 -989.157)" fill="none" stroke="#000" stroke-linejoin="round" stroke-width="0.25"/>
      <path id="Path_12675" data-name="Path 12675" d="M1742.24,994.024c.4.12,2.971,7.286,2.9,13.129" transform="translate(-1699.148 -989.664)" fill="none" stroke="#000" stroke-linejoin="round" stroke-width="0.25"/>
      <path id="Path_12676" data-name="Path 12676" d="M1735.174,1028.723s6.209-10.67,17.992-12.5" transform="translate(-1699.547 -988.414)" fill="none" stroke="#000" stroke-linejoin="round" stroke-width="0.25"/>
      <path id="Path_12677" data-name="Path 12677" d="M1759.862,1022.94s-1.8-6.862-4.669-9.83" transform="translate(-1698.418 -988.589)" fill="none" stroke="#000" stroke-linejoin="round" stroke-width="0.25"/>
    </g>
    <path id="Path_12678" data-name="Path 12678" d="M1854.05,929.795a32.957,32.957,0,0,1,22.78,6.729" transform="translate(10.761 8.66)" fill="none" stroke="#000" stroke-linejoin="round" stroke-width="0.25"/>
    <g id="Group_3669" data-name="Group 3669" transform="translate(1808.443 926.681)">
      <path id="Path_12679" data-name="Path 12679" d="M1800.688,985.991s6.831-5.9,13.642-20.879,9.462-24.09,31.182-32.444,19.791-14.661,20.958-13.975,8.084-.074,10.078,7.145-.52,10.6,6.763,13.029,8.5,9.884,7.37,15.78-7.89,7.717-7.543,14.653-11.648,17.037-28.162,13.8C1829.843,978.182,1809.688,985.544,1800.688,985.991Z" transform="translate(-1800.688 -918.642)" fill="#62a542" stroke="#000" stroke-linejoin="round" stroke-width="0.25"/>
      <path id="Path_12680" data-name="Path 12680" d="M1800.688,985c11.114-2.785,21.265-8.136,38.687-24.035s40.462-24.812,40.462-24.812-1.252,15.8-18.112,32.28" transform="translate(-1800.688 -917.655)" fill="none" stroke="#000" stroke-linejoin="round" stroke-width="0.25"/>
      <path id="Path_12681" data-name="Path 12681" d="M1837.311,977.636s10.043-13.834,8.19-24.357" transform="translate(-1798.624 -916.69)" fill="none" stroke="#000" stroke-linejoin="round" stroke-width="0.25"/>
      <path id="Path_12682" data-name="Path 12682" d="M1813.6,962.8a84.928,84.928,0,0,1,25.045-3.156" transform="translate(-1799.96 -916.333)" fill="none" stroke="#000" stroke-linejoin="round" stroke-width="0.25"/>
      <path id="Path_12683" data-name="Path 12683" d="M1834.422,946.412s11.579-3.259,20.734.889" transform="translate(-1798.787 -917.146)" fill="none" stroke="#000" stroke-linejoin="round" stroke-width="0.25"/>
      <path id="Path_12684" data-name="Path 12684" d="M1854.05,957.856s7.806-8.72,18.7-9.36" transform="translate(-1797.681 -916.96)" fill="none" stroke="#000" stroke-linejoin="round" stroke-width="0.25"/>
      <path id="Path_12685" data-name="Path 12685" d="M1881.548,960.6s2.793-17.364-4.467-24.423a82.318,82.318,0,0,0-27.481,2.35" transform="translate(-1797.932 -917.672)" fill="none" stroke="#000" stroke-linejoin="round" stroke-width="0.25"/>
      <path id="Path_12686" data-name="Path 12686" d="M1874.361,956.369s2.859-5.056,6.32-6.815" transform="translate(-1796.537 -916.9)" fill="none" stroke="#000" stroke-linejoin="round" stroke-width="0.25"/>
      <path id="Path_12687" data-name="Path 12687" d="M1864.833,922.011c-.047.522,1.482,6.687,1.158,9.649" transform="translate(-1797.074 -918.452)" fill="none" stroke="#000" stroke-linejoin="round" stroke-width="0.25"/>
    </g>
    <path id="Path_12688" data-name="Path 12688" d="M1813.66,1103.314s-2.353-9.111-9.595-9.763" transform="translate(7.945 17.896)" fill="none" stroke="#000" stroke-linejoin="round" stroke-width="0.25"/>
    <g id="Group_3670" data-name="Group 3670" transform="translate(1814.604 1008.65)">
      <path id="Path_12689" data-name="Path 12689" d="M1806.521,1016.312s9.765-.676,8.639,13.614c0,0,5.633-.029,5.633,6.526l20.72-22.026.98-14.912s-5.922,2.939-10.907,0-4.128-4.136-8.366-2.612-9.581.911-11.493-.663C1811.727,996.238,1817.143,1006.41,1806.521,1016.312Z" transform="translate(-1806.521 -996.238)" fill="#62a542" stroke="#000" stroke-linejoin="round" stroke-width="0.25"/>
      <path id="Path_12690" data-name="Path 12690" d="M1806.521,1016.284s5.065-2.475,9.691-9.393,8.449-9.31,11.316-10.149c1.84,7.692-6.906,23.36-5,37.84" transform="translate(-1806.521 -996.21)" fill="none" stroke="#000" stroke-linejoin="round" stroke-width="0.25"/>
      <path id="Path_12691" data-name="Path 12691" d="M1831.432,1020.629s1.3-17.437-5.025-23.888" transform="translate(-1805.4 -996.21)" fill="none" stroke="#000" stroke-linejoin="round" stroke-width="0.25"/>
      <path id="Path_12692" data-name="Path 12692" d="M1818.555,1012.5c.308-.432,3.326-7.031,2.65-12.58" transform="translate(-1805.843 -996.031)" fill="none" stroke="#000" stroke-linejoin="round" stroke-width="0.25"/>
      <path id="Path_12693" data-name="Path 12693" d="M1812.693,1003.77s1.505-1.024,6.192-1.248" transform="translate(-1806.173 -995.884)" fill="none" stroke="#000" stroke-linejoin="round" stroke-width="0.25"/>
      <path id="Path_12694" data-name="Path 12694" d="M1814.7,1029.073s3.867-12.96,10.076-17.681a26.515,26.515,0,0,1,2.292,14.58" transform="translate(-1806.06 -995.384)" fill="none" stroke="#000" stroke-linejoin="round" stroke-width="0.25"/>
      <path id="Path_12695" data-name="Path 12695" d="M1836.225,1010.415c-.617-.678-1.845-5.508-6.226-6.392" transform="translate(-1805.198 -995.799)" fill="none" stroke="#000" stroke-linejoin="round" stroke-width="0.25"/>
    </g>
    <path id="Path_12696" data-name="Path 12696" d="M1848.352,1042.505c.407-.081,6.848-1.06,10.027,8.887s7.012,29.1,17.284,32.365,15.164,1.224,20.382,9.295,15.245,10.109,20.708,5.788,2.283-9.783-.408-6.033-.978,11.36,3.995,8.248,3.831-7.187,2.528-6.943-2.283,6.686,2.119,7.011,5.544-6.522,3.832-6.358-2.365,6.441,1.3,6.277,2.447-5.951,6.115-7.5,5.87,4.892,10.028,2.364,2.445-6.848,1.222-6.686-1.549,5.462,2.365,3.914,3.1-6.767,0-7.256" transform="translate(10.44 15.016)" fill="none" stroke="#000" stroke-linejoin="round" stroke-width="0.25"/>
    <path id="Path_12697" data-name="Path 12697" d="M1847.061,1045.26a31.24,31.24,0,0,0,17.563,11.65c11.565,2.71,19.337-2.633,17.579-5s-6.2,1.885-3.331,10.3,10.733,4.534,16.562-1.388,12.027-5.18,13.692,1.111,4.164,8.326,6.94,4.163-1.388-7.68-2.312-4.163,1.387,7.407,5.366,6.34,4.718-8.284,2.22-7.913-2.383,7.119,1.445,8.093,5.864-6.706,5.864-6.706-.473,6.331,3.424,5.551c2.775-.554,1.758-6.106,4.163-6.661s3.978,4.441,7.68-.555" transform="translate(10.368 15.174)" fill="none" stroke="#000" stroke-linejoin="round" stroke-width="0.25"/>
    <path id="Path_12698" data-name="Path 12698" d="M1887.35,1041.118s13.4,8.523,26.168,5.654,13.415-13.23,13.415-13.23" transform="translate(12.638 14.514)" fill="none" stroke="#000" stroke-linejoin="round" stroke-width="0.25"/>
    <path id="Path_12699" data-name="Path 12699" d="M1890.885,1036.629s6.7-1.779,14.2,5.346,13.693,10.639,23.686,8.048,9.276-16.252,5.274-14.987c-3.516,1.11-5.581,8.786-3.886,11.75,1.248,2.18,5.366,1.851,8.512-2.22s4.9-8.234,2.776-7.865-3.424,6.846,0,7.68,4.07-4.534,7.124-6.107,2.22,7.124,9.9,0" transform="translate(12.837 14.593)" fill="none" stroke="#000" stroke-linejoin="round" stroke-width="0.25"/>
    <path id="Path_12700" data-name="Path 12700" d="M1843.622,1061.779s12.25-6.3,24.245,4.512,8.947,17.8,3.048,28.12-8.16,17.107-4.129,21.139,9.931-4.72,7.571-6.1-7.079,6.194-4.522,10.52,12.781-3.735,10.422-6.784-6.293,6.489-3.54,8.947,9.144-3.146,6.98-4.62-3.835,6.539.787,5.235,5.113-5.826,3.834-5.924-3.933,7.079-.294,7.866,7.472-7.866,4.915-7.964-1.977,6.1.83,5.113,2.415-5.407,4.971-6.686,3.244,3.146,6.489.1,3.933,1.18,8.259-2.36" transform="translate(10.174 16.002)" fill="none" stroke="#000" stroke-linejoin="round" stroke-width="0.25"/>
    <path id="Path_12701" data-name="Path 12701" d="M1663.072,1004.04c2.184,4.828,4.828,10.094,8.967,10.738s3.563-7.175,1.149-7.06-.674,9.663,3.661,10.329,4.279-8.18,1.834-8.259-.889,11.038,3.447,11.2,4.446-10.505,1.945-9.95-.667,9.794,3.557,9.51,5.17-8.564,2.835-8.037-2.065,8.587,1.246,9.644,3.033-3,6.035-3.725,3.39,6.559,7.114,8.393,7.281-.055,10.449-2.667" transform="translate(0 12.852)" fill="none" stroke="#000" stroke-linejoin="round" stroke-width="0.25"/>
    <path id="Path_12702" data-name="Path 12702" d="M1715.7,1012.465c-.945.581-8.512-.227-12.381,7.614s-2.322,19.279-11.007,29-10.061,5.847-9.372,4.127,4.871-3.095,5.143,3.354.531,11.264,6.12,12.64,6.3-2.409,5.04-3.268-4.352.86-5.3,6.879,4.643,4.558,6.362,2.924,1.051-4.557-1.065-3.525-3.578,5.675-1.6,9.029,7.911-1.462,6.536-3.182-5.848,3.353-2.838,6.792,6.536,1.979,9.545.86,2.493,3.956,4.815,5.159,3.612-.516,2.924-1.461" transform="translate(1.111 13.326)" fill="none" stroke="#000" stroke-linejoin="round" stroke-width="0.25"/>
    <ellipse id="Ellipse_2277" data-name="Ellipse 2277" cx="3.783" cy="2.004" rx="3.783" ry="2.004" transform="translate(1732.459 1089.831)" fill="#ecb36f" stroke="#000" stroke-linejoin="round" stroke-width="0.25"/>
    <ellipse id="Ellipse_2278" data-name="Ellipse 2278" cx="3.182" cy="1.419" rx="3.182" ry="1.419" transform="translate(1736.672 1083.984)" fill="#ecb36f" stroke="#000" stroke-linejoin="round" stroke-width="0.25"/>
    <ellipse id="Ellipse_2279" data-name="Ellipse 2279" cx="4.657" cy="2.675" rx="4.657" ry="2.675" transform="translate(1728.693 1137.729)" fill="#c19165" stroke="#000" stroke-linejoin="round" stroke-width="0.25"/>
    <ellipse id="Ellipse_2280" data-name="Ellipse 2280" cx="4.191" cy="2.282" rx="4.191" ry="2.282" transform="translate(1739.683 1145.833)" fill="#ecb36f" stroke="#000" stroke-linejoin="round" stroke-width="0.25"/>
    <path id="Path_12703" data-name="Path 12703" d="M1737.536,1097.981c1.49,2.98,8.1,5.63,11.364,1.325s1.4-5.889,0-5.423-.373,5.122,3.632,4.377,3.26-6.334,6.241-6.241,2.887,6.334,9.407,3.261,2.888-10.711.839-10.247,1.706,8.01,5,5.5,2.2-8.756,0-8.662.685,7.7,5.155,5.714,1.676-7.67,0-7.3,1.3,8.662,4.47,5.308,1.583-8.269,0-7.441.932,10.049,5.5,3.9" transform="translate(4.196 17.022)" fill="none" stroke="#000" stroke-linejoin="round" stroke-width="0.25"/>
    <ellipse id="Ellipse_2281" data-name="Ellipse 2281" cx="2.85" cy="1.731" rx="2.85" ry="1.731" transform="translate(1845.65 1131.304)" fill="#ecb36f" stroke="#000" stroke-linejoin="round" stroke-width="0.25"/>
    <ellipse id="Ellipse_2282" data-name="Ellipse 2282" cx="4.262" cy="1.984" rx="4.262" ry="1.984" transform="translate(1850.268 1136.426)" fill="#c19165" stroke="#000" stroke-linejoin="round" stroke-width="0.25"/>
    <path id="Path_12704" data-name="Path 12704" d="M1816.935,1106.055c4.462-3.663,8.358-1.17,12.975,0s9.92-2.653,9.92-2.653" transform="translate(8.67 18.451)" fill="none" stroke="#000" stroke-linejoin="round" stroke-width="0.25"/>
    <path id="Path_12705" data-name="Path 12705" d="M1828.33,1129.4c3.174-3.606,6.493-1.875,10.244-.793s3.918-1.948,10.906-.793" transform="translate(9.312 19.793)" fill="none" stroke="#000" stroke-linejoin="round" stroke-width="0.25"/>
    <path id="Path_12706" data-name="Path 12706" d="M1840.965,1138.549c2.669-3.03,7.935-2.236,12.986-.793s7.72-1.3,14.285.36,9.162-1.01,9.162-1.01" transform="translate(10.024 20.314)" fill="none" stroke="#000" stroke-linejoin="round" stroke-width="0.25"/>
    <ellipse id="Ellipse_2283" data-name="Ellipse 2283" cx="3.455" cy="2.033" rx="3.455" ry="2.033" transform="translate(1913.462 1092.777)" fill="#ecb36f" stroke="#000" stroke-linejoin="round" stroke-width="0.25"/>
    <ellipse id="Ellipse_2284" data-name="Ellipse 2284" cx="3.496" cy="1.789" rx="3.496" ry="1.789" transform="translate(1949.885 1023.103)" fill="#c19165" stroke="#000" stroke-linejoin="round" stroke-width="0.25"/>
    <ellipse id="Ellipse_2285" data-name="Ellipse 2285" cx="4.797" cy="2.276" rx="4.797" ry="2.276" transform="translate(1958.177 1028.956)" fill="#ecb36f" stroke="#000" stroke-linejoin="round" stroke-width="0.25"/>
    <path id="Path_12707" data-name="Path 12707" d="M1909.908,1003.408c2.328-2.377,6.23-2.214,9.239.469s5.2-.163,8.943.487,5.2,2.358,8.374,1.139" transform="translate(13.909 12.722)" fill="none" stroke="#000" stroke-linejoin="round" stroke-width="0.25"/>
    <path id="Path_12708" data-name="Path 12708" d="M1908.738,1012.42c2.344-1.7,7.548-.562,11.287,1.552s8.943.407,8.943.407" transform="translate(13.843 13.277)" fill="none" stroke="#000" stroke-linejoin="round" stroke-width="0.25"/>
    <path id="Path_12709" data-name="Path 12709" d="M1743.124,1077.74c1.033-1.112,5.563,1.51,9.933-1.986" transform="translate(4.511 16.893)" fill="none" stroke="#000" stroke-linejoin="round" stroke-width="0.25"/>
    <path id="Path_12710" data-name="Path 12710" d="M1752.076,1071.425c1.986-3.179,5.563-.159,10.012-2.146s6.754.528,10.172-1.325" transform="translate(5.015 16.453)" fill="none" stroke="#000" stroke-linejoin="round" stroke-width="0.25"/>
    <path id="Path_12711" data-name="Path 12711" d="M1683.57,1112.308c2.131-2.664,6.317-2.435,8.905-.913a8.173,8.173,0,0,0,8.829-.762" transform="translate(1.155 18.838)" fill="none" stroke="#000" stroke-linejoin="round" stroke-width="0.25"/>
    <path id="Path_12712" data-name="Path 12712" d="M1684.218,1119.928c2.056-2.968,7.612-4.186,12.635-1.75s7.155,2.359,10.961.76,8.144.533,8.144.533" transform="translate(1.191 19.21)" fill="none" stroke="#000" stroke-linejoin="round" stroke-width="0.25"/>
    <path id="Path_12713" data-name="Path 12713" d="M1743.87,1120.094c1.927-2.007,5.941-2.81,9.554,0,4.78,3.719,7.064-.321,12.924-.722s11.48,5.379,17.742.883" transform="translate(4.553 19.289)" fill="none" stroke="#000" stroke-linejoin="round" stroke-width="0.25"/>
    <path id="Path_12714" data-name="Path 12714" d="M1691.26,930.406c-.984,2.843,2.951,4.656,3.717,2.164s-1.3-7.412-3.875-6.538-4.981,6.455-1.373,13.559,10.495,6.119,13.885,8.525,1.858,8.964,8.527,10.276,13.666-1.531,13.666-1.531" transform="translate(1.399 8.45)" fill="none" stroke="#000" stroke-linejoin="round" stroke-width="0.25"/>
    <path id="Path_12715" data-name="Path 12715" d="M1702.5,935.332c-1.859-2.351-3.936-7.441-1.531-8.45s6.915,7.192,5.207,9.158-2.665-5.794,0-5.684,1.025,9.3,5.4,9.186,2.405-5.031,7.215-5.469,20.445,2.186,19.679,18.367" transform="translate(2.074 8.499)" fill="none" stroke="#000" stroke-linejoin="round" stroke-width="0.25"/>
    <g id="Group_3671" data-name="Group 3671" transform="translate(1679.88 949.8)">
      <path id="Path_12716" data-name="Path 12716" d="M1678.983,995.127s52.324-9.242,58.722,15.64c0,0,9.954-11.091,18.627-7.536,0,0,2.275-14.787,13.082-14.218,0,0-.427-6.682,5.545-8.674s4.693-5.972,0-8.673-4.265-8.247-1.422-12.8.854-6.54-2.7-8.247-5.83-2.417-5.83-4.55c0,0-12.37,2.559-16.351-5.545,0,0-5.687,14.219-25.309,9.1,0,0,5.165,9.394-8.263,14.832C1698.013,971.371,1691.693,989.116,1678.983,995.127Z" transform="translate(-1678.983 -940.527)" fill="#62a542" stroke="#000" stroke-linejoin="round" stroke-width="0.25"/>
      <path id="Path_12717" data-name="Path 12717" d="M1723.346,949.141c11.064,6.65,37.749,8.564,48.112,16.656-22.908-8.332-41.7,1.138-61.594,12.988a308.8,308.8,0,0,1-30.88,15.856" transform="translate(-1678.983 -940.042)" fill="none" stroke="#000" stroke-linejoin="round" stroke-width="0.25"/>
      <path id="Path_12718" data-name="Path 12718" d="M1705.011,988.972s5.257-5.44,5.238-12.807" transform="translate(-1677.516 -938.519)" fill="none" stroke="#000" stroke-linejoin="round" stroke-width="0.25"/>
      <path id="Path_12719" data-name="Path 12719" d="M1715.961,964.916a19.254,19.254,0,0,1,11.769,2.4" transform="translate(-1676.899 -939.16)" fill="none" stroke="#000" stroke-linejoin="round" stroke-width="0.25"/>
      <path id="Path_12720" data-name="Path 12720" d="M1741.574,962.633s.847,9.185-11.991,20.047" transform="translate(-1676.132 -939.281)" fill="none" stroke="#000" stroke-linejoin="round" stroke-width="0.25"/>
      <path id="Path_12721" data-name="Path 12721" d="M1739.2,950.095s3.319,3.1,3.353,6.067" transform="translate(-1675.59 -939.988)" fill="none" stroke="#000" stroke-linejoin="round" stroke-width="0.25"/>
      <path id="Path_12722" data-name="Path 12722" d="M1745.522,940.527s2.434,12.062,22.8,25.756c0,0-23.119,14.615-33.751,44.484" transform="translate(-1675.851 -940.527)" fill="none" stroke="#000" stroke-linejoin="round" stroke-width="0.25"/>
      <path id="Path_12723" data-name="Path 12723" d="M1757.109,950.095s1.916,4.479,0,7.935" transform="translate(-1674.581 -939.988)" fill="none" stroke="#000" stroke-linejoin="round" stroke-width="0.25"/>
      <path id="Path_12724" data-name="Path 12724" d="M1767.331,964.909s-12.969,12.729-15.125,36.948" transform="translate(-1674.857 -939.153)" fill="none" stroke="#000" stroke-linejoin="round" stroke-width="0.25"/>
      <path id="Path_12725" data-name="Path 12725" d="M1742.75,976.9s4.3-3.093,11.441-.713" transform="translate(-1675.39 -938.568)" fill="none" stroke="#000" stroke-linejoin="round" stroke-width="0.25"/>
      <path id="Path_12726" data-name="Path 12726" d="M1761.627,971.308c.394.4,2.894,2.947,1.228,10.884" transform="translate(-1674.326 -938.793)" fill="none" stroke="#000" stroke-linejoin="round" stroke-width="0.25"/>
    </g>
    <g id="Group_3672" data-name="Group 3672" transform="translate(1714.461 1032.963)">
      <path id="Path_12727" data-name="Path 12727" d="M1711.72,1074.742c11.48-34.914,29.409-36.645,32.24-47.653,0,0,7.864,4.875,13.053-5.033a18.57,18.57,0,0,0,12.6-1.258c6.9-3.146,11.935-1.416,12.249,4.56s2.516,5.5,6.134,6.605,3.932,2.988,2.83,10.694-4.088,8.492-9.278,8.492-10.852-3.617-15.884,7.707c0,0-11.8-6.763-20.6,2.2C1745.061,1061.059,1724.459,1064.361,1711.72,1074.742Z" transform="translate(-1711.72 -1019.254)" fill="#a2c427" stroke="#231815" stroke-miterlimit="10" stroke-width="0.25"/>
      <path id="Path_12728" data-name="Path 12728" d="M1741.463,1056.762s7.492-6.071,6.905-16.211" transform="translate(-1710.044 -1018.055)" fill="none" stroke="#000" stroke-linejoin="round" stroke-width="0.25"/>
      <path id="Path_12729" data-name="Path 12729" d="M1742.543,1036.845s7.076-2.4,11.528-.8" transform="translate(-1709.983 -1018.339)" fill="none" stroke="#000" stroke-linejoin="round" stroke-width="0.25"/>
      <path id="Path_12730" data-name="Path 12730" d="M1765.664,1058.328c.528-1.131,3.606-20.569,16.964-29.679,0,0-34.809,3.331-70.908,45.563" transform="translate(-1711.72 -1018.725)" fill="none" stroke="#000" stroke-linejoin="round" stroke-width="0.25"/>
      <path id="Path_12731" data-name="Path 12731" d="M1757.886,1048.385s4.49-9.02,13.488-11.24" transform="translate(-1709.118 -1018.246)" fill="none" stroke="#000" stroke-linejoin="round" stroke-width="0.25"/>
      <path id="Path_12732" data-name="Path 12732" d="M1781.654,1039.384c-.344-.579-1.346-4.788-4-6.285" transform="translate(-1708.004 -1018.474)" fill="none" stroke="#000" stroke-linejoin="round" stroke-width="0.25"/>
      <path id="Path_12733" data-name="Path 12733" d="M1742.24,1026.671c7.593,7.817,19.333,3.595,38.668,2.089-4.569,12.763-1.6,21.023-1.08,21.972" transform="translate(-1710 -1018.836)" fill="none" stroke="#000" stroke-linejoin="round" stroke-width="0.25"/>
      <path id="Path_12734" data-name="Path 12734" d="M1755.879,1025.365a12.4,12.4,0,0,1,3.944,5.684" transform="translate(-1709.232 -1018.91)" fill="none" stroke="#000" stroke-linejoin="round" stroke-width="0.25"/>
      <path id="Path_12735" data-name="Path 12735" d="M1754.6,1021.907s5.033,5.032,15.763,5.032c9.256,0,9.852,2.09,9.852,2.09" transform="translate(-1709.304 -1019.105)" fill="none" stroke="#000" stroke-linejoin="round" stroke-width="0.25"/>
    </g>
    <g id="Group_3673" data-name="Group 3673" transform="translate(1778.212 1044.599)">
      <path id="Path_12736" data-name="Path 12736" d="M1808.694,1128.749c3.3-11.976,15.621-20.134,19.786-38.185s10.56-13.192,14.393-11.456c0,0-2.59-15.448,14.247-22.043,0,0-7.29-8.66-6.6-17.522l-17-7.821s-10.775,7.1-19.454,4.679-5.554-7.793-14.753-5.628-11.282,14.739-27.251,18c0,0,9.2,5.863,4.165,23.915,0,0,8.753-.687,9.894,12.323C1787.986,1106.186,1807.652,1112.434,1808.694,1128.749Z" transform="translate(-1772.07 -1030.27)" fill="#62a542" stroke="#000" stroke-linejoin="round" stroke-width="0.25"/>
      <path id="Path_12737" data-name="Path 12737" d="M1776.013,1072.36s22.738-15.639,37.839-36.286c0,0-9.2,13.813-9.72,37.72s4.476,27.893,4.339,54.628" transform="translate(-1771.848 -1029.943)" fill="none" stroke="#000" stroke-linejoin="round" stroke-width="0.25"/>
      <path id="Path_12738" data-name="Path 12738" d="M1772.07,1048.445s18.225,7.407,42-12.371c0,0,4.312,20.838,28.8,42.707" transform="translate(-1772.07 -1029.943)" fill="none" stroke="#000" stroke-linejoin="round" stroke-width="0.25"/>
      <path id="Path_12739" data-name="Path 12739" d="M1854.879,1056.738s-19.267-1.753-43.046-20.664" transform="translate(-1769.829 -1029.943)" fill="none" stroke="#000" stroke-linejoin="round" stroke-width="0.25"/>
      <path id="Path_12740" data-name="Path 12740" d="M1817.483,1079.295s-2.531-17.9-13.418-21.532" transform="translate(-1770.267 -1028.72)" fill="none" stroke="#000" stroke-linejoin="round" stroke-width="0.25"/>
      <path id="Path_12741" data-name="Path 12741" d="M1791.228,1074.884s8.132-13.964,6.1-22" transform="translate(-1770.99 -1028.995)" fill="none" stroke="#000" stroke-linejoin="round" stroke-width="0.25"/>
      <path id="Path_12742" data-name="Path 12742" d="M1793.923,1091.236a20.111,20.111,0,0,1,9.177-14.353" transform="translate(-1770.838 -1027.643)" fill="none" stroke="#000" stroke-linejoin="round" stroke-width="0.25"/>
      <path id="Path_12743" data-name="Path 12743" d="M1787.137,1050.38s8.456-4.9,15.537-2.364" transform="translate(-1771.221 -1029.311)" fill="none" stroke="#000" stroke-linejoin="round" stroke-width="0.25"/>
      <path id="Path_12744" data-name="Path 12744" d="M1796.018,1036.074c.043.183,4.921,2.037,7.168,6.751" transform="translate(-1770.721 -1029.943)" fill="none" stroke="#000" stroke-linejoin="round" stroke-width="0.25"/>
      <path id="Path_12745" data-name="Path 12745" d="M1822.478,1073.4s-4.365-10.529-2.172-18.8" transform="translate(-1769.387 -1028.899)" fill="none" stroke="#000" stroke-linejoin="round" stroke-width="0.25"/>
      <path id="Path_12746" data-name="Path 12746" d="M1837.873,1068.005s-4.659-1.928-7.624-.267" transform="translate(-1768.792 -1028.197)" fill="none" stroke="#000" stroke-linejoin="round" stroke-width="0.25"/>
      <path id="Path_12747" data-name="Path 12747" d="M1834.812,1050.215s-.493,7.635,5.582,12.5" transform="translate(-1768.535 -1029.146)" fill="none" stroke="#000" stroke-linejoin="round" stroke-width="0.25"/>
      <path id="Path_12748" data-name="Path 12748" d="M1845.914,1050.215s-3.149.614-4.352,2.823" transform="translate(-1768.154 -1029.146)" fill="none" stroke="#000" stroke-linejoin="round" stroke-width="0.25"/>
    </g>
    <g id="Group_3674" data-name="Group 3674" transform="translate(1816.203 967.578)">
      <path id="Path_12749" data-name="Path 12749" d="M1889.19,978.116c3.9,2.98,9.977-.23,17.87,5.693s10.125,17.537,8.19,23.791-.745,14.147,3.424,18.912c0,0-12.508.149-20.252,10.722s-11.912,13.1-11.912,13.1a18.09,18.09,0,0,0-16.381-8.637c-11.317.6-16.529,12.359-62.1,11.318,0,0,3.112-2.234,9.225-13.254a168.863,168.863,0,0,1,16.983-25.463c7.148-9.232,2.166-15.279-1.448-18.882,0,0,19.169-13.426,17.978-32.489,0,0,13.551,2.407,21.294-5.573,0,0,.729,2.036,6.033,3.98C1888.264,965.065,1881,971.862,1889.19,978.116Z" transform="translate(-1808.034 -957.357)" fill="#a2c427" stroke="#231815" stroke-miterlimit="10" stroke-width="0.25"/>
      <path id="Path_12750" data-name="Path 12750" d="M1808.034,1051.911s22.383-1.987,46.527-29.834c19.85-22.9,20.263-34.1,34.629-45.068,0,0,9.356,25.732-4.771,69.45" transform="translate(-1808.034 -956.25)" fill="none" stroke="#000" stroke-linejoin="round" stroke-width="0.25"/>
      <path id="Path_12751" data-name="Path 12751" d="M1843.121,1006.611s12.757-6.581,23.526-4.513" transform="translate(-1806.057 -954.859)" fill="none" stroke="#000" stroke-linejoin="round" stroke-width="0.25"/>
      <path id="Path_12752" data-name="Path 12752" d="M1855.162,1039.028s5.085-15.215,1.532-24.8" transform="translate(-1805.379 -954.152)" fill="none" stroke="#000" stroke-linejoin="round" stroke-width="0.25"/>
      <path id="Path_12753" data-name="Path 12753" d="M1838.094,1047.172s5.683-6.3,5.106-17.337c-9.874-2.112-19.794,1.946-19.794,1.946" transform="translate(-1807.168 -953.307)" fill="none" stroke="#000" stroke-linejoin="round" stroke-width="0.25"/>
      <path id="Path_12754" data-name="Path 12754" d="M1831.473,994.312s13.8,3.175,30.56-5.011,25.836-12.292,25.836-12.292,8.929,7.3,15.449,26.078c5.61,16.164,14.036,22.317,14.036,22.317" transform="translate(-1806.713 -956.25)" fill="none" stroke="#000" stroke-linejoin="round" stroke-width="0.25"/>
      <path id="Path_12755" data-name="Path 12755" d="M1843.121,981.044s9.932,1.766,15.512,9.281" transform="translate(-1806.057 -956.022)" fill="none" stroke="#000" stroke-linejoin="round" stroke-width="0.25"/>
      <path id="Path_12756" data-name="Path 12756" d="M1878.122,1015.388s1.256-12.407,10.157-21.768" transform="translate(-1804.085 -955.314)" fill="none" stroke="#000" stroke-linejoin="round" stroke-width="0.25"/>
      <path id="Path_12757" data-name="Path 12757" d="M1897.045,995.091a19.375,19.375,0,0,0-2.608,13.659" transform="translate(-1803.181 -955.231)" fill="none" stroke="#000" stroke-linejoin="round" stroke-width="0.25"/>
      <path id="Path_12758" data-name="Path 12758" d="M1889.38,1035.115s.945-10.487-3.372-15.442" transform="translate(-1803.64 -953.845)" fill="none" stroke="#000" stroke-linejoin="round" stroke-width="0.25"/>
      <path id="Path_12759" data-name="Path 12759" d="M1848.492,962.633s18.289,15.357,38.418,15.186" transform="translate(-1805.755 -957.06)" fill="none" stroke="#000" stroke-linejoin="round" stroke-width="0.25"/>
      <path id="Path_12760" data-name="Path 12760" d="M1863.009,961.125s4.667,6.935,5.552,13.442" transform="translate(-1804.936 -957.145)" fill="none" stroke="#000" stroke-linejoin="round" stroke-width="0.25"/>
      <path id="Path_12761" data-name="Path 12761" d="M1864.972,979.572s5.507.887,11.243-3.562" transform="translate(-1804.826 -956.306)" fill="none" stroke="#000" stroke-linejoin="round" stroke-width="0.25"/>
      <path id="Path_12762" data-name="Path 12762" d="M1863.009,992.109s4.667-2.352,5.552-7.277" transform="translate(-1804.936 -955.809)" fill="none" stroke="#000" stroke-linejoin="round" stroke-width="0.25"/>
    </g>
  </g>
</svg>
