<svg xmlns="http://www.w3.org/2000/svg" xmlns:xlink="http://www.w3.org/1999/xlink" width="341.166" height="362.03" viewBox="0 0 341.166 362.03">
  <defs>
    <clipPath id="clip-path">
      <path id="Intersection_1" data-name="Intersection 1" d="M0,66.875a6.836,6.836,0,0,1,1.8-4.587s2.542-4.449,22.026-11.649,47.867-18,66.929-25.2,33.039-9.394,57.608-18.781S177.615.56,177.615.56a7.694,7.694,0,0,1,.67,3.3c.009,4.65-3.432,13.313-26.111,20.087A754.224,754.224,0,0,0,67.668,54.874C42.46,65.71,27.7,74.068,16.643,76.69a15.45,15.45,0,0,1-3.565.42C5.872,77.109.014,71.985,0,66.875Z" transform="translate(0)" fill="none"/>
    </clipPath>
  </defs>
  <g id="Group_3651" data-name="Group 3651" transform="translate(-94.286 -200.197)">
    <g id="Group_3509" data-name="Group 3509" transform="translate(136.935 200.328)">
      <g id="Group_3504" data-name="Group 3504" transform="translate(0)">
        <path id="Path_11686" data-name="Path 11686" d="M139.934,205.367c5.915-5.807,19.111-7.167,27.492-1.034s6.525,8.9,22.919,14.334c14.433,4.78,18.2,31.062,2.017,44.122-6.984,5.637-21.009,10.052-32.587,3.375-14.81-8.543-5.8-18.368-19.842-35.056C132.883,222.728,133.7,211.486,139.934,205.367Z" transform="translate(-134.948 -200.328)" fill="#a5b63d" stroke="#231815" stroke-miterlimit="10" stroke-width="0.25"/>
        <path id="Path_11687" data-name="Path 11687" d="M148.855,214.12s42.2,25.972,49.3,68.236" transform="translate(-134.266 -199.653)" fill="none" stroke="#000" stroke-miterlimit="10" stroke-width="0.25"/>
        <path id="Path_11688" data-name="Path 11688" d="M146.1,221.07a18.078,18.078,0,0,0,14.163,1.644s2.793-2.712-.982-13.4" transform="translate(-134.401 -199.888)" fill="none" stroke="#000" stroke-miterlimit="10" stroke-width="0.25"/>
        <path id="Path_11689" data-name="Path 11689" d="M150.292,232.039s13.261,6.867,23.886,3.94c0,0,4.42-9-.744-20.823" transform="translate(-134.196 -199.602)" fill="none" stroke="#000" stroke-miterlimit="10" stroke-width="0.25"/>
        <path id="Path_11690" data-name="Path 11690" d="M155.609,247.684s10.542,8.321,30.166,3.408c0,0,6.688-10.3,3.516-25.666" transform="translate(-133.935 -199.099)" fill="none" stroke="#000" stroke-miterlimit="10" stroke-width="0.25"/>
      </g>
      <path id="Path_11691" data-name="Path 11691" d="M158.928,273.788c.474,0,8.7-2.263,33.515,3.94s31.919,5.164,42.664,7.416,15.6,3.64,31.888,2.6,29.636,6.742,40.035,13.336,13.9,7.957,19.254,7.016" transform="translate(-133.773 -196.749)" fill="none" stroke="#000" stroke-miterlimit="10" stroke-width="0.25"/>
      <g id="Group_3505" data-name="Group 3505" transform="translate(98.715 30.588)">
        <path id="Path_11692" data-name="Path 11692" d="M241.745,283.679c-7.835-3.527-13.682-10.248-12.552-20.421,1.058-9.527,9.405-15.287,19.162-16.815s15.989-7.994,22.572-13.167,18.692-5.877,24.218,3.174-8.906,18.618-11.639,26.216C277.627,279.007,264.73,294.026,241.745,283.679Z" transform="translate(-229.053 -229.488)" fill="#a5b63d" stroke="#231815" stroke-miterlimit="10" stroke-width="0.25"/>
        <path id="Path_11693" data-name="Path 11693" d="M285.137,239.657s-17.31,4.651-29.289,24.436c-7.536,12.447-14.063,21.028-21.476,23.329" transform="translate(-228.792 -228.99)" fill="none" stroke="#000" stroke-miterlimit="10" stroke-width="0.25"/>
        <path id="Path_11694" data-name="Path 11694" d="M277.689,236.143a15.309,15.309,0,0,0-3.077,7.525,14.808,14.808,0,0,0,11.224,2.888" transform="translate(-226.821 -229.162)" fill="none" stroke="#000" stroke-miterlimit="10" stroke-width="0.25"/>
        <path id="Path_11695" data-name="Path 11695" d="M266.537,241.174s-2.46,3.658-3.1,11.288c0,0,7.386,4.017,19.025-.639" transform="translate(-227.368 -228.916)" fill="none" stroke="#000" stroke-miterlimit="10" stroke-width="0.25"/>
        <path id="Path_11696" data-name="Path 11696" d="M252.945,250.158s-4.568,10.436-.447,17.531c0,0,14.536,1.153,25.317-7.362" transform="translate(-227.988 -228.476)" fill="none" stroke="#000" stroke-miterlimit="10" stroke-width="0.25"/>
        <path id="Path_11697" data-name="Path 11697" d="M241.837,256.942s-3.113,13.376,4.354,20.037c0,0,12.062,3.689,23.763-2.788" transform="translate(-228.458 -228.143)" fill="none" stroke="#000" stroke-miterlimit="10" stroke-width="0.25"/>
      </g>
      <g id="Group_3506" data-name="Group 3506" transform="translate(166.161 61.842)">
        <path id="Path_11698" data-name="Path 11698" d="M365.111,274.841c-.028-13.255-14.876-17.615-28.042-14.69s-26.889-4.931-36.346,2.428-10.2,24.648,0,33.991,25.986,8.12,35.975-1.494S365.143,289.506,365.111,274.841Z" transform="translate(-293.349 -259.282)" fill="#a5b63d" stroke="#231815" stroke-miterlimit="10" stroke-width="0.25"/>
        <path id="Path_11699" data-name="Path 11699" d="M350.186,273.4c-32.348-3.606-36.748,21.638-55.818,24.367" transform="translate(-293.299 -258.608)" fill="none" stroke="#000" stroke-miterlimit="10" stroke-width="0.25"/>
        <path id="Path_11700" data-name="Path 11700" d="M345.251,267.115a11.361,11.361,0,0,0-6.389,6.226s1.618,5.744,9.144,8.389" transform="translate(-291.12 -258.899)" fill="none" stroke="#000" stroke-miterlimit="10" stroke-width="0.25"/>
        <path id="Path_11701" data-name="Path 11701" d="M333.893,265.294s-6.487,4.222-7.54,11.438a18.829,18.829,0,0,0,11.286,7.436" transform="translate(-291.733 -258.988)" fill="none" stroke="#000" stroke-miterlimit="10" stroke-width="0.25"/>
        <path id="Path_11702" data-name="Path 11702" d="M319.817,267.115s-7.831,8.494-5.531,18.126a28.652,28.652,0,0,0,18.677,5.154" transform="translate(-292.345 -258.899)" fill="none" stroke="#000" stroke-miterlimit="10" stroke-width="0.25"/>
        <path id="Path_11703" data-name="Path 11703" d="M306.007,270.685s-5.812,11.879,0,21.833c0,0,6.316,6.81,18.434,6.076" transform="translate(-292.856 -258.724)" fill="none" stroke="#000" stroke-miterlimit="10" stroke-width="0.25"/>
      </g>
      <g id="Group_3507" data-name="Group 3507" transform="translate(121.502 91.205)">
        <path id="Path_11704" data-name="Path 11704" d="M250.776,305.465s.551-9.762,11.894-11.929,20.586,4.206,24.283,8.732,6.118,8.285,13.447,10.643l-33.586,6.565Z" transform="translate(-250.776 -286.989)" fill="#a5b63d" stroke="#231815" stroke-miterlimit="10" stroke-width="0.25"/>
        <path id="Path_11705" data-name="Path 11705" d="M258.288,287.274a93.028,93.028,0,0,1,5.927,10.561c4.078,8.159,10.475,16.186,21.968,18.068" transform="translate(-250.408 -287.274)" fill="none" stroke="#000" stroke-miterlimit="10" stroke-width="0.25"/>
        <path id="Path_11706" data-name="Path 11706" d="M265.745,300.648a56.352,56.352,0,0,1,22.438,3.684" transform="translate(-250.043 -286.622)" fill="none" stroke="#000" stroke-miterlimit="10" stroke-width="0.25"/>
        <path id="Path_11707" data-name="Path 11707" d="M265.329,299.614a24.28,24.28,0,0,0-3.938,11.569" transform="translate(-250.256 -286.67)" fill="none" stroke="#000" stroke-miterlimit="10" stroke-width="0.25"/>
        <path id="Path_11708" data-name="Path 11708" d="M270.1,306.448a15.4,15.4,0,0,0-1.512,10.894" transform="translate(-249.922 -286.335)" fill="none" stroke="#000" stroke-miterlimit="10" stroke-width="0.25"/>
        <path id="Path_11709" data-name="Path 11709" d="M270.634,307.119a21.183,21.183,0,0,1,15.246,3" transform="translate(-249.803 -286.319)" fill="none" stroke="#000" stroke-miterlimit="10" stroke-width="0.25"/>
      </g>
      <g id="Group_3508" data-name="Group 3508" transform="translate(249.595 77.703)">
        <path id="Path_11710" data-name="Path 11710" d="M385.205,276.964c-.278-2.038,4.168-3.983,5.465-1.112s-1.73,4.65-7.673,5.521-9.554,3.834-10.11,6.983" transform="translate(-372.887 -274.403)" fill="none" stroke="#000" stroke-miterlimit="10" stroke-width="0.25"/>
        <path id="Path_11711" data-name="Path 11711" d="M374.653,301.558s4.816,1.038,9.539-5.908,9.355-8.971,13.522-6.615,3.705,8.266-1.945,8" transform="translate(-372.801 -273.732)" fill="none" stroke="#000" stroke-miterlimit="10" stroke-width="0.25"/>
        <path id="Path_11712" data-name="Path 11712" d="M404.125,313.7s-3.172-2.529-.184-4.46c2.465-1.592,6.289,2.162,5.27,5.033s-3.8,5.835-10.373,2.779c-6.03-2.8-8.7-17.57-16.845-19.532" transform="translate(-372.441 -273.271)" fill="none" stroke="#000" stroke-miterlimit="10" stroke-width="0.25"/>
      </g>
    </g>
    <g id="Group_3510" data-name="Group 3510" transform="translate(173.678 263.039)">
      <path id="Path_11713" data-name="Path 11713" d="M170.026,261.758c.519-2.946,7.445-1.667,12.666,1.667a180.962,180.962,0,0,0,27.112,14.333c13,5.556,24.889,14.112,37.556,21.779s27.556,21.444,27.556,21.444-28.113,7.514-28.453,7.646-27.77-16.313-37.215-23.535-14.222-14.622-19.334-20.422-10.879-13.023-14.94-16.468S169.693,263.647,170.026,261.758Z" transform="translate(-169.974 -260.11)" fill="#62a542" stroke="#000" stroke-linejoin="round" stroke-width="0.25"/>
      <path id="Path_11714" data-name="Path 11714" d="M170.024,261.681a45.467,45.467,0,0,1,12,8.445c6.111,5.889,9.555,6.666,18.333,16.555s28.5,25.465,39.14,30.066" transform="translate(-169.972 -260.033)" fill="none" stroke="#000" stroke-miterlimit="10" stroke-width="0.25"/>
    </g>
    <g id="Group_3512" data-name="Group 3512" transform="translate(144.66 286.607)">
      <path id="Path_11715" data-name="Path 11715" d="M176.533,298.3s7.869,1.323,22.834,5.564,27.221,9.3,40.38,11.091,23.737,4.162,28.124,6.784l-56.635,21.2a81.578,81.578,0,0,1-18.449-8.9c-9.547-6.192-19.8-13.8-24.348-20.641L164.922,299.2Z" transform="translate(-141.204 -281.808)" fill="#62a542" stroke="#000" stroke-linejoin="round" stroke-width="0.25"/>
      <path id="Path_11716" data-name="Path 11716" d="M186.135,321.209a6.984,6.984,0,0,0,3.313,3.2" transform="translate(-140.165 -280.686)" fill="none" stroke="#000" stroke-miterlimit="10" stroke-width="0.25"/>
      <path id="Path_11717" data-name="Path 11717" d="M191.489,322.735a5.27,5.27,0,0,0,2.976,1.6" transform="translate(-139.902 -280.611)" fill="none" stroke="#000" stroke-miterlimit="10" stroke-width="0.25"/>
      <path id="Path_11718" data-name="Path 11718" d="M210.977,331.971a6.7,6.7,0,0,0,4.1,1.123" transform="translate(-138.948 -280.159)" fill="none" stroke="#000" stroke-miterlimit="10" stroke-width="0.25"/>
      <path id="Path_11719" data-name="Path 11719" d="M214.886,330.472a5.8,5.8,0,0,0,2.751,0" transform="translate(-138.756 -280.232)" fill="none" stroke="#000" stroke-miterlimit="10" stroke-width="0.25"/>
      <g id="Group_3511" data-name="Group 3511" transform="translate(0 0)">
        <path id="Path_11720" data-name="Path 11720" d="M146.838,283.524s3.227,1.545,8.4,6.853c4.393,4.5,11.151,5.838,15.445,3.633s10.137-4.1,16.367-2.593,8.744,3.753,8.744,3.753a31.1,31.1,0,0,0-8.628,3.676,20.09,20.09,0,0,1-12.846,3.057s10.338,2.233,11.3,13.208c0,0-.7-1.045-7.23-2.265s-9.843-6.967-9.843-6.967,4.013,6.01,2.878,10.887-1.31,3.4-2.181,8.885a22.181,22.181,0,0,0-5.26-9.973s1.568,6.818-5.982,9.973a18.855,18.855,0,0,0-1.858-8.347c-2.149-4.878.174-10.164-1.8-15.158s-8.044-13.277-11.136-15.379Z" transform="translate(-142.267 -282.532)" fill="#ddd658" stroke="#000" stroke-linejoin="round" stroke-width="0.25"/>
        <path id="Path_11721" data-name="Path 11721" d="M159.058,306.344c-.37,3.52,2.059,5.874,4.154,8.216" transform="translate(-141.493 -281.414)" fill="none" stroke="#000" stroke-miterlimit="10" stroke-width="0.25"/>
        <path id="Path_11722" data-name="Path 11722" d="M169.382,300.263a18.112,18.112,0,0,0,3.661.819" transform="translate(-140.985 -281.712)" fill="none" stroke="#000" stroke-miterlimit="10" stroke-width="0.25"/>
        <ellipse id="Ellipse_2026" data-name="Ellipse 2026" cx="2.453" cy="1.516" rx="2.453" ry="1.516" transform="translate(0 3.046) rotate(-38.383)" fill="#62a542" stroke="#000" stroke-linejoin="round" stroke-width="0.25"/>
      </g>
    </g>
    <g id="Group_3517" data-name="Group 3517" transform="translate(175.877 269.897)">
      <path id="Path_11723" data-name="Path 11723" d="M172.071,365.738s3.409-12.893,51.606-30.085,54.645-23.945,88.414-28.857,43.285-10.745,54.644-17.805l7.368,23.638s-18.726,31.62-59.556,53.109-89.027,22.916-89.027,22.916S184.011,385.078,172.071,365.738Z" transform="translate(-172.071 -265.554)" fill="#62a542" stroke="#000" stroke-linejoin="round" stroke-width="0.25"/>
      <path id="Path_11724" data-name="Path 11724" d="M189.582,363.814s2.542-4.448,22.027-11.649,47.866-18,66.928-25.2,33.04-9.394,57.608-18.781,29.253-6.093,29.253-6.093,7.176,13.648-25.441,23.391A754.013,754.013,0,0,0,255.451,356.4c-25.208,10.836-39.964,19.194-51.026,21.816S183.652,370.591,189.582,363.814Z" transform="translate(-171.301 -264.94)" fill="#a5b63d" stroke="#231815" stroke-miterlimit="10" stroke-width="0.25"/>
      <g id="Group_3515" data-name="Group 3515" transform="translate(16.482 36.586)">
        <g id="Group_3514" data-name="Group 3514" transform="translate(0 0)" clip-path="url(#clip-path)">
          <g id="Group_3513" data-name="Group 3513" transform="translate(12.456 5.191)">
            <ellipse id="Ellipse_2027" data-name="Ellipse 2027" cx="12.216" cy="12.932" rx="12.216" ry="12.932" transform="translate(0 43.751)" fill="#ddd658" stroke="#000" stroke-linejoin="round" stroke-width="0.25"/>
            <circle id="Ellipse_2028" data-name="Ellipse 2028" cx="15.31" cy="15.31" r="15.31" transform="translate(19.385 33.364)" fill="#ddd658" stroke="#000" stroke-linejoin="round" stroke-width="0.25"/>
            <circle id="Ellipse_2029" data-name="Ellipse 2029" cx="13.864" cy="13.864" r="13.864" transform="translate(46.726 23.816)" fill="#ddd658" stroke="#000" stroke-linejoin="round" stroke-width="0.25"/>
            <ellipse id="Ellipse_2030" data-name="Ellipse 2030" cx="12.704" cy="13.864" rx="12.704" ry="13.864" transform="translate(70.864 14.862)" fill="#ddd658" stroke="#000" stroke-linejoin="round" stroke-width="0.25"/>
            <ellipse id="Ellipse_2031" data-name="Ellipse 2031" cx="13.766" cy="13.349" rx="13.766" ry="13.349" transform="translate(93.112 8.487)" fill="#ddd658" stroke="#000" stroke-linejoin="round" stroke-width="0.25"/>
            <ellipse id="Ellipse_2032" data-name="Ellipse 2032" cx="13.766" cy="13.349" rx="13.766" ry="13.349" transform="translate(118.419)" fill="#ddd658" stroke="#000" stroke-linejoin="round" stroke-width="0.25"/>
          </g>
        </g>
        <path id="Path_11727" data-name="Path 11727" d="M189.582,363.814s2.542-4.448,22.027-11.649,47.866-18,66.928-25.2,33.04-9.394,57.608-18.781,29.253-6.093,29.253-6.093,7.176,13.648-25.441,23.391A754.013,754.013,0,0,0,255.451,356.4c-25.208,10.836-39.964,19.194-51.026,21.816S183.652,370.591,189.582,363.814Z" transform="translate(-187.783 -301.526)" fill="none" stroke="#000" stroke-linejoin="round" stroke-width="0.25"/>
      </g>
      <path id="Path_11728" data-name="Path 11728" d="M265.316,360.972a12.975,12.975,0,0,1,3.2-1.483" transform="translate(-167.503 -262.101)" fill="none" stroke="#000" stroke-miterlimit="10" stroke-width="0.25"/>
      <path id="Path_11729" data-name="Path 11729" d="M266.843,363.259a11.549,11.549,0,0,0,3.547-2.356" transform="translate(-167.429 -262.031)" fill="none" stroke="#000" stroke-miterlimit="10" stroke-width="0.25"/>
      <path id="Path_11730" data-name="Path 11730" d="M293.029,361s2.461-1.077,3.144-2.17" transform="translate(-166.146 -262.133)" fill="none" stroke="#000" stroke-miterlimit="10" stroke-width="0.25"/>
      <path id="Path_11731" data-name="Path 11731" d="M296.743,361.585a11.638,11.638,0,0,0,2.46-1.716" transform="translate(-165.964 -262.082)" fill="none" stroke="#000" stroke-miterlimit="10" stroke-width="0.25"/>
      <path id="Path_11732" data-name="Path 11732" d="M313.941,344.074a8.971,8.971,0,0,0,2.938-1.981" transform="translate(-165.121 -262.953)" fill="none" stroke="#000" stroke-miterlimit="10" stroke-width="0.25"/>
      <path id="Path_11733" data-name="Path 11733" d="M317.068,346.487a8.529,8.529,0,0,1,2.938-2.05" transform="translate(-164.968 -262.838)" fill="none" stroke="#000" stroke-miterlimit="10" stroke-width="0.25"/>
      <path id="Path_11734" data-name="Path 11734" d="M271.189,320.326a6.7,6.7,0,0,1,2.622-1.286" transform="translate(-167.216 -264.082)" fill="none" stroke="#000" stroke-miterlimit="10" stroke-width="0.25"/>
      <path id="Path_11735" data-name="Path 11735" d="M271.853,317.3a7.3,7.3,0,0,1,2.108-.884" transform="translate(-167.183 -264.211)" fill="none" stroke="#000" stroke-miterlimit="10" stroke-width="0.25"/>
      <g id="Group_3516" data-name="Group 3516" transform="translate(158.288 0)">
        <path id="Path_11736" data-name="Path 11736" d="M377.078,268.148s-2.9,3.895-5.445,7.645-4.22,3.281-8.238,5.96-7.97,5.826-16.341,3.683-16.452-.538-24.087,6.7a28.893,28.893,0,0,0,10.759,5.828c6.477,1.841,12.892-.807,12.892-.807a40.559,40.559,0,0,0-8.673,9.112c-3.55,5.358-4.889,5.491-4.889,5.491s12.695,4.316,23.775-1.942a30.216,30.216,0,0,0,.669,13.8c2.143,7.433,2.277,10.916,2.277,10.916s6.7-7.567,10.247-13.929c0,0,4.011,8.205,13.052,8.071a39.731,39.731,0,0,1-2.27-7.334c-.674-3.775.536-7.367.67-11.855s-1.206-10.581-7.032-14.264a12.18,12.18,0,0,0,3.281-7.3c.469-4.688.67-6.7,3.55-10.85s3.172-5.142,3.172-5.142Z" transform="translate(-322.967 -266.575)" fill="#ddd658" stroke="#000" stroke-linejoin="round" stroke-width="0.25"/>
        <path id="Path_11737" data-name="Path 11737" d="M368.473,296.614s7.7,6.936-.646,22.589" transform="translate(-320.77 -265.181)" fill="#ddd658" stroke="#000" stroke-linejoin="round" stroke-width="0.25"/>
        <path id="Path_11738" data-name="Path 11738" d="M345.514,296.033s2.415-.868,5.647-1.737a8.344,8.344,0,0,0,5.01-3.284" transform="translate(-321.863 -265.455)" fill="#ddd658" stroke="#000" stroke-linejoin="round" stroke-width="0.25"/>
        <path id="Path_11739" data-name="Path 11739" d="M361.1,296.254s-4,3.614-5.851,12.184" transform="translate(-321.386 -265.198)" fill="#ddd658" stroke="#000" stroke-linejoin="round" stroke-width="0.25"/>
        <ellipse id="Ellipse_2033" data-name="Ellipse 2033" cx="1.767" cy="4.14" rx="1.767" ry="4.14" transform="translate(53.306 3.145) rotate(-62.876)" fill="#62a542" stroke="#000" stroke-linejoin="round" stroke-width="0.25"/>
      </g>
    </g>
    <path id="Path_11740" data-name="Path 11740" d="M191.983,451.663c-3.638-1.778-10.145,5.794-4.042,10.428,6.236,4.736,19.6-5.216,23.655-9.866,16.293-18.68,32.13-12.26,39.629-24.84" transform="translate(4.461 11.122)" fill="none" stroke="#000" stroke-miterlimit="10" stroke-width="0.25"/>
    <path id="Path_11741" data-name="Path 11741" d="M184.207,431.226c1.272,1.176,1.077,5.388-3.624,4.6s-6.366-7.444-2.351-10.284,12.733-.2,21.058,6.66,10.279,13.146,16.8,16.024" transform="translate(3.997 10.977)" fill="none" stroke="#000" stroke-miterlimit="10" stroke-width="0.25"/>
    <path id="Path_11742" data-name="Path 11742" d="M214.518,423.178c2.107-1.175-2.5-6.366-5.63-3.624-3.067,2.684,1.861,9.109,9.991,8.913s19.826-5.221,26.074,4.784" transform="translate(5.565 10.7)" fill="none" stroke="#000" stroke-miterlimit="10" stroke-width="0.25"/>
    <path id="Path_11743" data-name="Path 11743" d="M212.7,448.575s-1.242,14.329,3.441,25.685,12.851,11.453,16.45,9.881c4.971-2.17,4.3-9.776.28-10.782-4.481-1.12-6.091,4.691-4.411,6.161" transform="translate(5.789 12.16)" fill="none" stroke="#000" stroke-miterlimit="10" stroke-width="0.25"/>
    <path id="Path_11744" data-name="Path 11744" d="M249.832,427.842a30.551,30.551,0,0,1,2.793,17.86c-1.477,10.251-5.672,12.894-8.862,11.467-3.174-1.42-1.824-7.125,1.824-6.342" transform="translate(7.231 11.145)" fill="none" stroke="#000" stroke-miterlimit="10" stroke-width="0.25"/>
    <g id="Group_3518" data-name="Group 3518" transform="translate(290.499 482.517)">
      <ellipse id="Ellipse_2034" data-name="Ellipse 2034" cx="11.068" cy="10.515" rx="11.068" ry="10.515" transform="translate(0 6.56) rotate(-17.237)" fill="#ddd658" stroke="#000" stroke-linejoin="round" stroke-width="0.25"/>
      <ellipse id="Ellipse_2035" data-name="Ellipse 2035" cx="1.222" cy="3.076" rx="1.222" ry="3.076" transform="translate(14.544 7.708) rotate(-45)" fill="#62a542" stroke="#000" stroke-linejoin="round" stroke-width="0.25"/>
    </g>
    <g id="Group_3519" data-name="Group 3519" transform="translate(331.017 477.828)">
      <ellipse id="Ellipse_2036" data-name="Ellipse 2036" cx="11.385" cy="11.068" rx="11.385" ry="11.068" transform="matrix(0.909, -0.416, 0.416, 0.909, 0, 9.468)" fill="#ddd658" stroke="#000" stroke-linejoin="round" stroke-width="0.25"/>
      <ellipse id="Ellipse_2037" data-name="Ellipse 2037" cx="3.076" cy="1.222" rx="3.076" ry="1.222" transform="matrix(0.611, -0.792, 0.792, 0.611, 5.555, 12.82)" fill="#62a542" stroke="#000" stroke-linejoin="round" stroke-width="0.25"/>
    </g>
    <g id="Group_3520" data-name="Group 3520" transform="translate(352.958 473.567)">
      <ellipse id="Ellipse_2038" data-name="Ellipse 2038" cx="11.791" cy="11.463" rx="11.791" ry="11.463" transform="matrix(0.909, -0.416, 0.416, 0.909, 0, 9.806)" fill="#ddd658" stroke="#000" stroke-linejoin="round" stroke-width="0.25"/>
      <ellipse id="Ellipse_2039" data-name="Ellipse 2039" cx="2.993" cy="1.23" rx="2.993" ry="1.23" transform="translate(19.21 21.551) rotate(-45)" fill="#62a542" stroke="#000" stroke-linejoin="round" stroke-width="0.25"/>
    </g>
    <g id="Group_3521" data-name="Group 3521" transform="translate(331.434 459.932)">
      <ellipse id="Ellipse_2040" data-name="Ellipse 2040" cx="11.276" cy="10.962" rx="11.276" ry="10.962" transform="matrix(0.909, -0.416, 0.416, 0.909, 0, 9.377)" fill="#ddd658" stroke="#000" stroke-linejoin="round" stroke-width="0.25"/>
      <ellipse id="Ellipse_2041" data-name="Ellipse 2041" cx="2.878" cy="1.379" rx="2.878" ry="1.379" transform="translate(18.865 18.396) rotate(-63.599)" fill="#62a542" stroke="#000" stroke-linejoin="round" stroke-width="0.25"/>
    </g>
    <g id="Group_3522" data-name="Group 3522" transform="translate(334.604 510.134)">
      <ellipse id="Ellipse_2042" data-name="Ellipse 2042" cx="10.135" cy="10.901" rx="10.135" ry="10.901" transform="translate(0 16.666) rotate(-55.309)" fill="#ddd658" stroke="#000" stroke-linejoin="round" stroke-width="0.25"/>
      <ellipse id="Ellipse_2043" data-name="Ellipse 2043" cx="1.109" cy="2.714" rx="1.109" ry="2.714" transform="matrix(0.747, -0.664, 0.664, 0.747, 15.771, 9.536)" fill="#62a542" stroke="#000" stroke-linejoin="round" stroke-width="0.25"/>
    </g>
    <ellipse id="Ellipse_2044" data-name="Ellipse 2044" cx="6.891" cy="3.328" rx="6.891" ry="3.328" transform="translate(336.849 555.444)" fill="#c19165" stroke="#000" stroke-linejoin="round" stroke-width="0.25"/>
    <ellipse id="Ellipse_2045" data-name="Ellipse 2045" cx="3.828" cy="2.344" rx="3.828" ry="2.344" transform="translate(353.008 542.975)" fill="#c19165" stroke="#000" stroke-linejoin="round" stroke-width="0.25"/>
    <path id="Path_11745" data-name="Path 11745" d="M292.277,540.352c6.938-4.406,18,4.126,24,.469" transform="translate(9.695 16.593)" fill="none" stroke="#000" stroke-miterlimit="10" stroke-width="0.25"/>
    <path id="Path_11746" data-name="Path 11746" d="M255.9,517.37c12.095-4.031,31.6,5.25,39.285.562" transform="translate(7.913 15.479)" fill="none" stroke="#000" stroke-miterlimit="10" stroke-width="0.25"/>
    <ellipse id="Ellipse_2046" data-name="Ellipse 2046" cx="4.677" cy="2.578" rx="4.677" ry="2.578" transform="translate(252.093 518.692)" fill="#c19165" stroke="#000" stroke-linejoin="round" stroke-width="0.25"/>
    <ellipse id="Ellipse_2047" data-name="Ellipse 2047" cx="6.563" cy="3.375" rx="6.563" ry="3.375" transform="translate(267.094 509.503)" fill="#ecb36f" stroke="#000" stroke-linejoin="round" stroke-width="0.25"/>
    <ellipse id="Ellipse_2048" data-name="Ellipse 2048" cx="5.912" cy="2.81" rx="5.912" ry="2.81" transform="translate(196.84 497.021)" fill="#ecb36f" stroke="#000" stroke-linejoin="round" stroke-width="0.25"/>
    <ellipse id="Ellipse_2049" data-name="Ellipse 2049" cx="5.912" cy="2.81" rx="5.912" ry="2.81" transform="translate(183.408 489.866)" fill="#ecb36f" stroke="#000" stroke-linejoin="round" stroke-width="0.25"/>
    <path id="Path_11747" data-name="Path 11747" d="M297.729,519.555s4.407,1.032,6.282,0" transform="translate(9.962 15.637)" fill="none" stroke="#000" stroke-miterlimit="10" stroke-width="0.25"/>
    <ellipse id="Ellipse_2050" data-name="Ellipse 2050" cx="3.709" cy="2.205" rx="3.709" ry="2.205" transform="translate(297.874 460.083)" fill="#c19165" stroke="#000" stroke-linejoin="round" stroke-width="0.25"/>
    <path id="Path_11748" data-name="Path 11748" d="M270.183,454.561c4.083-2.476,11.232.954,13.68-.408" transform="translate(8.612 12.408)" fill="none" stroke="#000" stroke-miterlimit="10" stroke-width="0.25"/>
    <ellipse id="Ellipse_2051" data-name="Ellipse 2051" cx="4.662" cy="2.348" rx="4.662" ry="2.348" transform="translate(401.424 495.892)" fill="#ecb36f" stroke="#000" stroke-linejoin="round" stroke-width="0.25"/>
    <path id="Path_11749" data-name="Path 11749" d="M366.52,496.076c1.77-3.811,8.3-4.968,16.128-1.633s10.957-.885,15.447.952" transform="translate(13.331 14.311)" fill="none" stroke="#000" stroke-miterlimit="10" stroke-width="0.25"/>
    <path id="Path_11750" data-name="Path 11750" d="M400.9,497.01a10.053,10.053,0,0,0,5.716,0" transform="translate(15.016 14.533)" fill="none" stroke="#000" stroke-miterlimit="10" stroke-width="0.25"/>
    <g id="Group_3523" data-name="Group 3523" transform="translate(412.096 382.882)">
      <ellipse id="Ellipse_2052" data-name="Ellipse 2052" cx="4.202" cy="2.428" rx="4.202" ry="2.428" transform="translate(14.827 0)" fill="#ecb36f" stroke="#000" stroke-linejoin="round" stroke-width="0.25"/>
      <ellipse id="Ellipse_2053" data-name="Ellipse 2053" cx="2.121" cy="1.491" rx="2.121" ry="1.491" transform="translate(7.41 8.538)" fill="#c19165" stroke="#000" stroke-linejoin="round" stroke-width="0.25"/>
      <path id="Path_11751" data-name="Path 11751" d="M397.259,392.522c4.987-1.585,11.046.466,12.91,0" transform="translate(-397.259 -373.497)" fill="none" stroke="#000" stroke-miterlimit="10" stroke-width="0.25"/>
      <path id="Path_11752" data-name="Path 11752" d="M414.364,391.91s3.076,1.312,5.033.682" transform="translate(-396.421 -373.497)" fill="none" stroke="#000" stroke-miterlimit="10" stroke-width="0.25"/>
    </g>
    <ellipse id="Ellipse_2054" data-name="Ellipse 2054" cx="11.208" cy="12.209" rx="11.208" ry="12.209" transform="matrix(0.893, -0.449, 0.449, 0.893, 121.029, 420.165)" fill="#ddd658" stroke="#000" stroke-linejoin="round" stroke-width="0.25"/>
    <ellipse id="Ellipse_2055" data-name="Ellipse 2055" cx="3.407" cy="1.293" rx="3.407" ry="1.293" transform="matrix(0.586, -0.81, 0.81, 0.586, 127.06, 424.552)" fill="#62a542" stroke="#000" stroke-linejoin="round" stroke-width="0.25"/>
    <ellipse id="Ellipse_2056" data-name="Ellipse 2056" cx="12.391" cy="12.04" rx="12.391" ry="12.04" transform="matrix(0.695, -0.719, 0.719, 0.695, 148.269, 412.946)" fill="#ddd658" stroke="#000" stroke-linejoin="round" stroke-width="0.25"/>
    <ellipse id="Ellipse_2057" data-name="Ellipse 2057" cx="3.534" cy="1.363" rx="3.534" ry="1.363" transform="translate(169.739 417.932) rotate(-68.446)" fill="#62a542" stroke="#000" stroke-linejoin="round" stroke-width="0.25"/>
    <ellipse id="Ellipse_2058" data-name="Ellipse 2058" cx="4.132" cy="1.745" rx="4.132" ry="1.745" transform="translate(144.566 393.422)" fill="none" stroke="#000" stroke-miterlimit="10" stroke-width="0.25"/>
    <ellipse id="Ellipse_2059" data-name="Ellipse 2059" cx="12.287" cy="10.759" rx="12.287" ry="10.759" transform="translate(139.347 390.53)" fill="#ddd658" stroke="#000" stroke-linejoin="round" stroke-width="0.25"/>
    <ellipse id="Ellipse_2060" data-name="Ellipse 2060" cx="5.104" cy="2.693" rx="5.104" ry="2.693" transform="translate(116.392 390.304)" fill="#c19165" stroke="#000" stroke-linejoin="round" stroke-width="0.25"/>
    <ellipse id="Ellipse_2061" data-name="Ellipse 2061" cx="3.512" cy="1.889" rx="3.512" ry="1.889" transform="translate(106.666 396.137)" fill="#c19165" stroke="#000" stroke-linejoin="round" stroke-width="0.25"/>
    <path id="Path_11753" data-name="Path 11753" d="M94.37,379.053c14.362-12.862,28.121-.71,41.679-7.037" transform="translate(0 8.41)" fill="none" stroke="#000" stroke-miterlimit="10" stroke-width="0.25"/>
    <ellipse id="Ellipse_2062" data-name="Ellipse 2062" cx="6.348" cy="2.346" rx="6.348" ry="2.346" transform="translate(163.992 341.463)" fill="#ecb36f" stroke="#000" stroke-linejoin="round" stroke-width="0.25"/>
    <ellipse id="Ellipse_2063" data-name="Ellipse 2063" cx="2.795" cy="1.753" rx="2.795" ry="1.753" transform="translate(152.784 336.934)" fill="#ecb36f" stroke="#000" stroke-linejoin="round" stroke-width="0.25"/>
    <path id="Path_11754" data-name="Path 11754" d="M133.064,489.234c2.185,4.449,9.677,5.229,20.681,1.483s17.014,3.609,22.867,2.39" transform="translate(1.895 14.152)" fill="none" stroke="#000" stroke-miterlimit="10" stroke-width="0.25"/>
    <path id="Path_11755" data-name="Path 11755" d="M178.446,494.577c4.059-3.535,8.195,1.561,10.692-.937" transform="translate(4.118 14.35)" fill="none" stroke="#000" stroke-miterlimit="10" stroke-width="0.25"/>
    <g id="Group_3525" data-name="Group 3525" transform="translate(342.967 308.522)">
      <g id="Group_3524" data-name="Group 3524" transform="translate(0.622 0)">
        <path id="Path_11756" data-name="Path 11756" d="M345.474,304.236c7.88-2.8,13.645,2.371,16.769,10.874s6.613,12.161,15.138,18.211,13.1,24.911-3.913,35.116-38.009,6.66-41.041-9.559c-2.408-12.879,5.166-20.8,3.746-33.327S340.1,306.148,345.474,304.236Z" transform="translate(-331.951 -303.469)" fill="#a5b63d" stroke="#231815" stroke-miterlimit="10" stroke-width="0.25"/>
        <path id="Path_11757" data-name="Path 11757" d="M347.579,314.566c0,40.13,22.48,49.073,33.621,59.987" transform="translate(-331.185 -302.926)" fill="none" stroke="#000" stroke-miterlimit="10" stroke-width="0.25"/>
        <path id="Path_11758" data-name="Path 11758" d="M339.778,319.65s2.353,9.161,9.69,11.374c0,0,4.928-2.689,5.53-13.7" transform="translate(-331.567 -302.79)" fill="none" stroke="#000" stroke-miterlimit="10" stroke-width="0.25"/>
        <path id="Path_11759" data-name="Path 11759" d="M338.792,336.928s3.834,10.727,18.215,12.9c0,0,7.414-7.2,6.9-22.167" transform="translate(-331.615 -302.285)" fill="none" stroke="#000" stroke-miterlimit="10" stroke-width="0.25"/>
        <path id="Path_11760" data-name="Path 11760" d="M338.384,354.8s10.566,12.695,27.572,5.213c0,0,9.332-5.039,9.406-21.122" transform="translate(-331.636 -301.734)" fill="none" stroke="#000" stroke-miterlimit="10" stroke-width="0.25"/>
      </g>
      <path id="Path_11761" data-name="Path 11761" d="M414.39,353.169c-16.684,29.46-69.442,16.17-83.032,32.341" transform="translate(-331.358 -301.035)" fill="none" stroke="#000" stroke-miterlimit="10" stroke-width="0.25"/>
      <path id="Path_11762" data-name="Path 11762" d="M339.275,387.342s5.173-11.247,23.8-7.212c18.534,4.017,16.588,23.245,16.588,23.245Z" transform="translate(-330.97 -299.757)" fill="#a5b63d" stroke="#231815" stroke-miterlimit="10" stroke-width="0.25"/>
      <path id="Path_11763" data-name="Path 11763" d="M365.126,374.019s-2.121,11.178-9.809,16.582" transform="translate(-330.184 -300.013)" fill="none" stroke="#000" stroke-miterlimit="10" stroke-width="0.25"/>
    </g>
    <ellipse id="Ellipse_2064" data-name="Ellipse 2064" cx="3.771" cy="2.031" rx="3.771" ry="2.031" transform="translate(131.357 467.263)" fill="#c19165" stroke="#000" stroke-linejoin="round" stroke-width="0.25"/>
    <path id="Path_11764" data-name="Path 11764" d="M280.627,379.009a3.893,3.893,0,0,1,1.959,1.61" transform="translate(9.124 8.753)" fill="none" stroke="#000" stroke-miterlimit="10" stroke-width="0.25"/>
    <path id="Path_11765" data-name="Path 11765" d="M282.005,377.55a3.839,3.839,0,0,1,1.513,1.794" transform="translate(9.191 8.681)" fill="none" stroke="#000" stroke-miterlimit="10" stroke-width="0.25"/>
    <g id="Group_3529" data-name="Group 3529" transform="translate(116.258 340.939)">
      <g id="Group_3527" data-name="Group 3527" transform="translate(43.363 18.545)">
        <path id="Path_11766" data-name="Path 11766" d="M165.331,373.857c.8-.094,18.077,4.67,18.077,4.67s15.672,1.978,38.558,9.607,39.274,8.276,75.441,17.317,43.587,8.55,68.753,10.72c15.827,1.365,25.39,2.857,38.2,3.548,9.678.52,15.426.776,17.409,3.142,1.575-1.2-.708-3.278-4.948-4.779-5.795-2.052-7.847-3.381-12.8-7.244s-9.055-7.243-21.007-12.073-21.492-9.177-33.323-11.108-37.669-10.021-55.779-13.161-61.975-10.179-85.856-12.761-31.3-9.682-31.3-9.682-12.015.916-17.712,10.327c-3.258,5.383-3.716,13.606,1.222,21.01C162.462,378.807,164.906,373.908,165.331,373.857Z" transform="translate(-156.574 -352.052)" fill="#62a542" stroke="#000" stroke-linejoin="round" stroke-width="0.25"/>
        <path id="Path_11767" data-name="Path 11767" d="M182.8,364.959s10,4.589,18.359,6.1l-2.319,11.408-23.563-4.57L168.9,367.684Z" transform="translate(-155.97 -351.42)" fill="#a5b63d" stroke="#231815" stroke-miterlimit="10" stroke-width="0.25"/>
        <path id="Path_11768" data-name="Path 11768" d="M386.188,411.353s12.158,3.868,16.566,7.633H386.188Z" transform="translate(-145.326 -349.147)" fill="#a5b63d" stroke="#231815" stroke-miterlimit="10" stroke-width="0.25"/>
        <g id="Group_3526" data-name="Group 3526" transform="translate(36.277 14.646)">
          <path id="Path_11769" data-name="Path 11769" d="M219.459,382.414c.624-8.048-3.41-14.871-11.92-16.26-7.137-1.165-15.709,5.129-16.333,13.176s4.714,15.026,11.923,15.585S218.835,390.462,219.459,382.414Z" transform="translate(-191.157 -366.014)" fill="#ddd658" stroke="#000" stroke-linejoin="round" stroke-width="0.25"/>
          <ellipse id="Ellipse_2065" data-name="Ellipse 2065" cx="15.022" cy="14.182" rx="15.022" ry="14.182" transform="translate(23.468 30.279) rotate(-85.563)" fill="#ddd658" stroke="#000" stroke-linejoin="round" stroke-width="0.25"/>
          <ellipse id="Ellipse_2066" data-name="Ellipse 2066" cx="15.022" cy="14.182" rx="15.022" ry="14.182" transform="translate(46.226 39.228) rotate(-85.563)" fill="#ddd658" stroke="#000" stroke-linejoin="round" stroke-width="0.25"/>
          <ellipse id="Ellipse_2067" data-name="Ellipse 2067" cx="15.022" cy="14.182" rx="15.022" ry="14.182" transform="translate(69.766 43.148) rotate(-85.563)" fill="#ddd658" stroke="#000" stroke-linejoin="round" stroke-width="0.25"/>
          <ellipse id="Ellipse_2068" data-name="Ellipse 2068" cx="14.465" cy="13.705" rx="14.465" ry="13.705" transform="translate(92.294 46.809) rotate(-85.563)" fill="#ddd658" stroke="#000" stroke-linejoin="round" stroke-width="0.25"/>
          <circle id="Ellipse_2069" data-name="Ellipse 2069" cx="14.169" cy="14.169" r="14.169" transform="translate(116.745 23.841)" fill="#ddd658" stroke="#000" stroke-linejoin="round" stroke-width="0.25"/>
          <circle id="Ellipse_2070" data-name="Ellipse 2070" cx="14.169" cy="14.169" r="14.169" transform="translate(141.996 27.662)" fill="#ddd658" stroke="#000" stroke-linejoin="round" stroke-width="0.25"/>
          <ellipse id="Ellipse_2071" data-name="Ellipse 2071" cx="13.327" cy="12.234" rx="13.327" ry="12.234" transform="translate(165.942 58.168) rotate(-85.563)" fill="#ddd658" stroke="#000" stroke-linejoin="round" stroke-width="0.25"/>
          <circle id="Ellipse_2072" data-name="Ellipse 2072" cx="10.168" cy="10.168" r="10.168" transform="translate(188.186 39.725)" fill="#ddd658" stroke="#000" stroke-linejoin="round" stroke-width="0.25"/>
        </g>
        <path id="Path_11770" data-name="Path 11770" d="M166.341,388.934s11.358,7.193,35.442,19.079,46.106,22.306,82.259,31.48a257.485,257.485,0,0,0,82.986,6.908c19.317-1.69,28.976-8.089,35.616-13.28s9.176-9.9,15.575-10.383a6.658,6.658,0,0,0,3.378-.9c-1.983-2.365-7.731-2.621-17.409-3.142-12.812-.69-22.375-2.183-38.2-3.548-25.165-2.169-32.587-1.677-68.753-10.72s-52.554-9.687-75.441-17.317-38.558-9.607-38.558-9.607-17.276-4.764-18.077-4.67c-.425.05-2.869,4.95-5.066,9.532A27.5,27.5,0,0,0,166.341,388.934Z" transform="translate(-156.402 -351.034)" fill="#62a542" stroke="#000" stroke-linejoin="round" stroke-width="0.25"/>
      </g>
      <path id="Path_11771" data-name="Path 11771" d="M200.748,399.3a7.994,7.994,0,0,0,3.637,3.268" transform="translate(-111.048 -331.193)" fill="none" stroke="#000" stroke-miterlimit="10" stroke-width="0.25"/>
      <path id="Path_11772" data-name="Path 11772" d="M203.306,398.81a5.66,5.66,0,0,0,3.638,2.405" transform="translate(-110.922 -331.216)" fill="none" stroke="#000" stroke-miterlimit="10" stroke-width="0.25"/>
      <path id="Path_11773" data-name="Path 11773" d="M245.6,411.75a7.062,7.062,0,0,0,3.7,2.26" transform="translate(-108.851 -330.582)" fill="none" stroke="#000" stroke-miterlimit="10" stroke-width="0.25"/>
      <path id="Path_11774" data-name="Path 11774" d="M249.127,410.782a5.242,5.242,0,0,0,3.613,1.78" transform="translate(-108.678 -330.63)" fill="none" stroke="#000" stroke-miterlimit="10" stroke-width="0.25"/>
      <path id="Path_11775" data-name="Path 11775" d="M299.818,429.114a4.829,4.829,0,0,0,4.471.426" transform="translate(-106.195 -329.732)" fill="none" stroke="#000" stroke-miterlimit="10" stroke-width="0.25"/>
      <path id="Path_11776" data-name="Path 11776" d="M300.968,427.22a3.137,3.137,0,0,0,2.767,0" transform="translate(-106.138 -329.825)" fill="none" stroke="#000" stroke-miterlimit="10" stroke-width="0.25"/>
      <path id="Path_11777" data-name="Path 11777" d="M336.255,421.7a5.189,5.189,0,0,0,3.959-.985" transform="translate(-104.41 -330.143)" fill="none" stroke="#000" stroke-miterlimit="10" stroke-width="0.25"/>
      <path id="Path_11778" data-name="Path 11778" d="M334.376,419.67s2.646.164,3.95-1.041" transform="translate(-104.502 -330.246)" fill="none" stroke="#000" stroke-miterlimit="10" stroke-width="0.25"/>
      <path id="Path_11779" data-name="Path 11779" d="M364.336,433.887s2.573.328,3.832-1.479" transform="translate(-103.034 -329.571)" fill="none" stroke="#000" stroke-miterlimit="10" stroke-width="0.25"/>
      <g id="Group_3528" data-name="Group 3528" transform="translate(0 0)">
        <path id="Path_11780" data-name="Path 11780" d="M121.609,335.655a25.148,25.148,0,0,0,6.553,4.128c4.339,1.986,4.927,4.118,9.855,4.78s9.045,1.478,12.061,3.754a17.89,17.89,0,0,0,16.254,2.5c7.208-2.354,16.9-9.923,31.458-.779,0,0-4.773.728-12.436,6.8,0,0,10.972,2.121,15.582,8.047a44.694,44.694,0,0,0-10.169,3.438c-4.316,2.268-8.778,4.683-13.752,4.17,0,0,2.946,1.285,8.632,3.146,6.354,2.08,8.7,4.755,10.606,8.632a54.308,54.308,0,0,0-12.362.8c-8.047,1.244-13.958-.436-18.361-3.73,0,0,5.194,4.17,4.755,12.509s.293,8.559.293,8.559-5.486-6.8-12-10.388-8.851-14.192-9.876-20.994-5.486-8.851-10.094-10.973-2.635-6.534-9.072-10.534c-5.219-3.243-12.436-7.973-13.765-11.319Z" transform="translate(-115.21 -334.31)" fill="#ddd658" stroke="#000" stroke-linejoin="round" stroke-width="0.25"/>
        <path id="Path_11781" data-name="Path 11781" d="M182.944,355.85s-5.626,5-16.895,1.951" transform="translate(-112.747 -333.321)" fill="none" stroke="#000" stroke-miterlimit="10" stroke-width="0.25"/>
        <path id="Path_11782" data-name="Path 11782" d="M161.576,364.341a15.221,15.221,0,0,1,6.314,3.521,13.515,13.515,0,0,0,6.934,3.226" transform="translate(-112.966 -332.905)" fill="none" stroke="#000" stroke-miterlimit="10" stroke-width="0.25"/>
        <path id="Path_11783" data-name="Path 11783" d="M154.55,368.464a32.1,32.1,0,0,0,9.081,11.275" transform="translate(-113.311 -332.703)" fill="none" stroke="#000" stroke-miterlimit="10" stroke-width="0.25"/>
        <ellipse id="Ellipse_2073" data-name="Ellipse 2073" cx="3.211" cy="1.765" rx="3.211" ry="1.765" transform="matrix(0.937, -0.349, 0.349, 0.937, 0, 2.241)" fill="#62a542" stroke="#000" stroke-linejoin="round" stroke-width="0.25"/>
      </g>
    </g>
  </g>
</svg>
