<svg xmlns="http://www.w3.org/2000/svg" width="288.813" height="338.509" viewBox="0 0 288.813 338.509">
  <g id="Group_3649" data-name="Group 3649" transform="translate(-2445.684 -174.404)">
    <g id="Group_3591" data-name="Group 3591" transform="translate(2558.417 174.594)">
      <path id="Path_12347" data-name="Path 12347" d="M2569.56,226.445c-1.658-4.189,3.316-17.558,11.235-11.7,0,0-2.6-12.844,2.405-19.553s10.554-5.367,12.522-1.074c0,0-1.43-9.3,4.651-16.011s13.953-3.13,14.133,5.1c0,0,2.862-8.806,9.839-8.607s8.318,8.786,8.408,14.868c0,0,5.1-6.8,11.627-4.561s5.9,13.506,4.74,18.693c0,0,3.667-4.382,7.6-2.236s2.772,14.043,1.431,17.084c0,0,3.31-4.651,5.993-2.595s2.5,12.7-3.935,21.378c0,0,14.3,1.354-1.282,21.244l-18.064,42.391-7.74,25.961s-6.771,15.1-6.61,14.319-29.833-31.1-30.334-36.07-19.315-38.213-19.315-38.213-12-28.463-10.39-29.217S2569.56,226.445,2569.56,226.445Z" transform="translate(-2566.328 -174.594)" fill="#518937" stroke="#000" stroke-linejoin="round" stroke-width="0.25"/>
      <path id="Path_12348" data-name="Path 12348" d="M2617.9,194.252c1.608.393.719,12.318,1.334,26.485s1.877,34.157,2.6,49.956-.861,39.77,4.021,51.321,3.877,14.455,3.877,14.455l-6.607-.718s-4.164-19.388-4.452-31.309-1.9-44.5-1.566-66.338C2617.446,215.93,2615.411,193.641,2617.9,194.252Z" transform="translate(-2569.632 -175.885)" fill="#bfc632" stroke="#231815" stroke-miterlimit="10" stroke-width="0.25"/>
      <path id="Path_12349" data-name="Path 12349" d="M2603.283,198.333c.816,13.853,9.4,14.089,12.85,23.051" transform="translate(-2568.755 -176.153)" fill="none" stroke="#000" stroke-linejoin="round" stroke-width="0.25"/>
      <path id="Path_12350" data-name="Path 12350" d="M2631,198.333c-2.328,13.853-10.7,16.707-11.581,22.672" transform="translate(-2569.814 -176.153)" fill="none" stroke="#000" stroke-linejoin="round" stroke-width="0.25"/>
      <path id="Path_12351" data-name="Path 12351" d="M2592.625,227.613c1.81,14.623,19.97,20.624,23.01,32.715" transform="translate(-2568.055 -178.076)" fill="none" stroke="#000" stroke-linejoin="round" stroke-width="0.25"/>
      <path id="Path_12352" data-name="Path 12352" d="M2639.878,227.613c-3.725,14.623-16.234,22.251-18.257,34.341" transform="translate(-2569.959 -178.076)" fill="none" stroke="#000" stroke-linejoin="round" stroke-width="0.25"/>
      <path id="Path_12353" data-name="Path 12353" d="M2615.915,288.61s-1.952-8.15-12.4-14.562a56.923,56.923,0,0,1-18.428-18.276" transform="translate(-2567.56 -179.925)" fill="none" stroke="#000" stroke-linejoin="round" stroke-width="0.25"/>
      <path id="Path_12354" data-name="Path 12354" d="M2642.844,255.772c-1.63,12.922-18.51,22.468-20.378,32.838" transform="translate(-2570.014 -179.925)" fill="none" stroke="#000" stroke-linejoin="round" stroke-width="0.25"/>
      <ellipse id="Ellipse_2173" data-name="Ellipse 2173" cx="2.145" cy="1.634" rx="2.145" ry="1.634" transform="translate(68.559 29.03) rotate(-56.973)" fill="#dffffa" stroke="#231815" stroke-miterlimit="10" stroke-width="0.25"/>
      <ellipse id="Ellipse_2174" data-name="Ellipse 2174" cx="2.698" cy="1.946" rx="2.698" ry="1.946" transform="translate(77.227 36.617) rotate(-30)" fill="#dffffa" stroke="#231815" stroke-miterlimit="10" stroke-width="0.25"/>
      <path id="Path_12355" data-name="Path 12355" d="M2623.165,312.033a25.249,25.249,0,0,1,10.143-8.547c10.1-4.989,14.713-9.741,18.464-22.1" transform="translate(-2570.061 -181.608)" fill="none" stroke="#000" stroke-linejoin="round" stroke-width="0.25"/>
    </g>
    <g id="Group_3592" data-name="Group 3592" transform="translate(2613.234 216.476)">
      <path id="Path_12356" data-name="Path 12356" d="M2676.853,237.254c.314-8.485,18.384-26.4,21.055-13.041,0,0,6.6-6.285,11-3.614s0,10.685,0,10.685,11-6.128,16.184.157-4.714,16.812-4.714,16.812,13.2-1.1,13.827,10.685-17.126,13.984-17.126,13.984,9.27,0,9.427,6.128-8.484,9.584-8.484,9.584,10.717,3.455-10.7,20.128c0,0,13.728,10.375-15.226,26.351s-35.695,34.946-35.695,34.946-19.286,1.029-19.921,0-8.674-39.742-8.674-39.742-7.307-17.336,1.653-14.5c0,0-5.973-24.193,3.584-19.414,0,0-2.688-8.513.15-16.726s7.467-8.363,9.706-6.123c0,0-.9-9.558,2.838-16.577s9.11-9.558,14.038-3.137a21.317,21.317,0,0,1,3.468-14.717C2668.173,231.511,2674.962,233.806,2676.853,237.254Z" transform="translate(-2624.998 -219.42)" fill="#518937" stroke="#000" stroke-linejoin="round" stroke-width="0.25"/>
      <path id="Path_12357" data-name="Path 12357" d="M2697.228,243.375c1.988,2.238-9.789,11.347-19.355,25.585s-20.025,39.377-23.583,56.619-6.274,35.267-1.111,51.725a25.006,25.006,0,0,1-4.227,0s-4.449-14.461-2.225-38.488,13.837-46.274,20.267-59.177S2695.448,241.373,2697.228,243.375Z" transform="translate(-2626.384 -220.985)" fill="#bfc632" stroke="#231815" stroke-miterlimit="10" stroke-width="0.25"/>
      <path id="Path_12358" data-name="Path 12358" d="M2689.4,237.394c-2.832,5.485-.177,14.563-4.41,19.833" transform="translate(-2628.938 -220.6)" fill="none" stroke="#000" stroke-linejoin="round" stroke-width="0.25"/>
      <path id="Path_12359" data-name="Path 12359" d="M2671.59,250.817c-5.8,9.3,0,21.576-3.128,29.317" transform="translate(-2627.852 -221.481)" fill="none" stroke="#000" stroke-linejoin="round" stroke-width="0.25"/>
      <path id="Path_12360" data-name="Path 12360" d="M2650.572,274.342c-2.157,16.855,7.361,21.688,6.175,29.789" transform="translate(-2626.657 -223.026)" fill="none" stroke="#000" stroke-linejoin="round" stroke-width="0.25"/>
      <path id="Path_12361" data-name="Path 12361" d="M2637.879,303.784c-.944,12.712,9.7,17.4,10.52,25.423" transform="translate(-2625.841 -224.96)" fill="none" stroke="#000" stroke-linejoin="round" stroke-width="0.25"/>
      <path id="Path_12362" data-name="Path 12362" d="M2633.563,335.68c1.746,9.169,10.788,12.271,11.717,21.98" transform="translate(-2625.561 -227.054)" fill="none" stroke="#000" stroke-linejoin="round" stroke-width="0.25"/>
      <path id="Path_12363" data-name="Path 12363" d="M2711.92,249.687c-9.042,8.347-15.585,4.457-22.973,8.913" transform="translate(-2629.198 -221.407)" fill="none" stroke="#000" stroke-linejoin="round" stroke-width="0.25"/>
      <path id="Path_12364" data-name="Path 12364" d="M2705.766,270.7c-13.681,11.9-23.675,2.5-34.437,14.427" transform="translate(-2628.04 -222.787)" fill="none" stroke="#000" stroke-linejoin="round" stroke-width="0.25"/>
      <path id="Path_12365" data-name="Path 12365" d="M2694.807,289.16c-11.327,10.388-25.2,7.376-32.75,17.119" transform="translate(-2627.432 -223.999)" fill="none" stroke="#000" stroke-linejoin="round" stroke-width="0.25"/>
      <path id="Path_12366" data-name="Path 12366" d="M2654.865,329.8s1.647-5.567,13.4-9.061,17.632-8.238,20.492-13.253" transform="translate(-2626.959 -225.202)" fill="none" stroke="#000" stroke-linejoin="round" stroke-width="0.25"/>
      <path id="Path_12367" data-name="Path 12367" d="M2650.877,355.768s2.5-4.426,11.409-9.561c9.264-5.34,17.752-9.469,19.023-17.571" transform="translate(-2626.698 -226.592)" fill="none" stroke="#000" stroke-linejoin="round" stroke-width="0.25"/>
      <ellipse id="Ellipse_2175" data-name="Ellipse 2175" cx="1.652" cy="1.322" rx="1.652" ry="1.322" transform="translate(65.629 10.899) rotate(-64.737)" fill="#dffffa" stroke="#231815" stroke-miterlimit="10" stroke-width="0.25"/>
      <ellipse id="Ellipse_2176" data-name="Ellipse 2176" cx="2.785" cy="1.416" rx="2.785" ry="1.416" transform="matrix(0.906, -0.423, 0.423, 0.906, 70.908, 12.931)" fill="#dffffa" stroke="#231815" stroke-miterlimit="10" stroke-width="0.25"/>
    </g>
    <g id="Group_3593" data-name="Group 3593" transform="translate(2632.274 289.39)">
      <line id="Line_701" data-name="Line 701" x2="4.772" y2="3.771" transform="translate(25.012 133.01)" fill="none" stroke="#000" stroke-linejoin="round" stroke-width="0.25"/>
      <path id="Path_12368" data-name="Path 12368" d="M2679.329,433.132a10.711,10.711,0,0,1-1.833-5.532c-.109-3.222,1.75-8.58-.546-9.345,0,0,7.164-8.2,2.38-12.465,0,0,21.128-9.512,12.6-17.166,0,0,20.665-5.9,14.433-15.2,0,0,13.667-2.843,20.775-9.294s2.842-10.278-.766-9.4c0,0,9.294-3.936,13.886-7.654s3.39-11.7-1.64-11.262c0,0,8.857-3.718,8.857-10.934s-5.57-9.075-11.915-7.982c0,0,5.354-6.56,3.277-11.043s-8.091-2.515-10.059,0c0,0,4.155-6.433-2.187-7.59s-12.246,6.824-12.246,6.824,3.69-6.67-2.365-7.545-12.4,5.168-13.708,8.105c0,0-2.23-6.9-10.135-3.4a21.829,21.829,0,0,0-10.8,10.843s-10.447-6.469-16.9,21.849c0,0-9.4-2.4-7.872,21.649,0,0-7.873-2.178-3.39,16.46,0,0-9.152,3.222.946,18.091l6.818,24.315,4.264,8.378L2674,438.7Z" transform="translate(-2645.376 -297.458)" fill="#62a542" stroke="#000" stroke-linejoin="round" stroke-width="0.25"/>
      <path id="Path_12369" data-name="Path 12369" d="M2669.591,418.21c1.513-10.57,11.245-9.148,15.181-19.317" transform="translate(-2646.966 -304.119)" fill="none" stroke="#000" stroke-linejoin="round" stroke-width="0.25"/>
      <path id="Path_12370" data-name="Path 12370" d="M2666.826,400.15c8.142-9.962,19.3-7,27.168-15.417" transform="translate(-2646.784 -303.19)" fill="none" stroke="#000" stroke-linejoin="round" stroke-width="0.25"/>
      <path id="Path_12371" data-name="Path 12371" d="M2661.279,398.835c-2.809-11.648-12.443-13.008-15.9-25.791" transform="translate(-2645.376 -302.422)" fill="none" stroke="#000" stroke-linejoin="round" stroke-width="0.25"/>
      <path id="Path_12372" data-name="Path 12372" d="M2663.935,382.641c0-13.449-7.76-17.713-4.37-29.76" transform="translate(-2646.251 -301.098)" fill="none" stroke="#000" stroke-linejoin="round" stroke-width="0.25"/>
      <path id="Path_12373" data-name="Path 12373" d="M2668.462,385.09c7.38-7.646,24.764-6.006,32.964-13.112" transform="translate(-2646.892 -302.352)" fill="none" stroke="#000" stroke-linejoin="round" stroke-width="0.25"/>
      <path id="Path_12374" data-name="Path 12374" d="M2676.511,359.694c9.59-6.813,23.476.492,35.175-6.813" transform="translate(-2647.42 -301.098)" fill="none" stroke="#000" stroke-linejoin="round" stroke-width="0.25"/>
      <path id="Path_12375" data-name="Path 12375" d="M2673.478,356.419c-.686-9.219-3.2-16.265.518-25.425" transform="translate(-2647.125 -299.661)" fill="none" stroke="#000" stroke-linejoin="round" stroke-width="0.25"/>
      <path id="Path_12376" data-name="Path 12376" d="M2684.723,337.663c2.136-7.129-.6-14.449,3.448-18.932" transform="translate(-2647.959 -298.855)" fill="none" stroke="#000" stroke-linejoin="round" stroke-width="0.25"/>
      <path id="Path_12377" data-name="Path 12377" d="M2686.568,341.706c6.753-3.7,16.813.779,26.435-4.251" transform="translate(-2648.08 -300.085)" fill="none" stroke="#000" stroke-linejoin="round" stroke-width="0.25"/>
      <path id="Path_12378" data-name="Path 12378" d="M2698.1,325.677c1.786-4.9,7.131-6.661,7.568-12.446" transform="translate(-2648.838 -298.494)" fill="none" stroke="#000" stroke-linejoin="round" stroke-width="0.25"/>
      <path id="Path_12379" data-name="Path 12379" d="M2698.965,329.406c4.027-1.664,9.248,1.4,16.533-1.664" transform="translate(-2648.895 -299.447)" fill="none" stroke="#000" stroke-linejoin="round" stroke-width="0.25"/>
      <ellipse id="Ellipse_2177" data-name="Ellipse 2177" cx="3.258" cy="2.003" rx="3.258" ry="2.003" transform="matrix(0.988, -0.157, 0.157, 0.988, 74.131, 33.861)" fill="#dffffa" stroke="#231815" stroke-miterlimit="10" stroke-width="0.25"/>
      <ellipse id="Ellipse_2178" data-name="Ellipse 2178" cx="2.577" cy="1.744" rx="2.577" ry="1.744" transform="translate(78.962 26.047) rotate(-47.467)" fill="#dffffa" stroke="#231815" stroke-miterlimit="10" stroke-width="0.25"/>
    </g>
    <g id="Group_3594" data-name="Group 3594" transform="translate(2445.861 198.102)">
      <path id="Path_12380" data-name="Path 12380" d="M2652.713,420.537s.847-12.505-7.6-14.722c0,0,3.347-25.977-7.649-25.34,0,0,4.3-34.1-13.865-25.976,0,0-.637-34.9-17.848-25.976,0,0,7.012-44.783-16.574-39.2,0,0,5.259-37.132-11-29.164,0,0,3.028-17.69-2.709-20.717s-10.518,4.143-10.837,7.171c0,0,1.753-47.173-24.224-31.714,0,0-5.033-15.139-17.052-15.14-10.41,0-12.271,8.447-12.271,8.447s-4.134-9.378-16.1-6.694c-14.51,3.256-13.706,17.69-13.706,17.69s-6.78-4.973-13.546-.32a9.705,9.705,0,0,0-2.55,13.706s-8.444-.8-11.265,9.525a8.027,8.027,0,0,0,3.775,9.6s-20.465,8.705-7.579,27.785c0,0-11.919,22.064,15.6,25.868,0,0-23.54,22.424,49.993,30.426,0,0-24.814,6.435,10.037,8.306,0,0-22.216,26.783,21.067,44.5s52,18.01,52,18.01-8.739,22.369,24.913,20.687c0,0-10.093,13,30.12,8.433Z" transform="translate(-2445.861 -199.754)" fill="#62a542" stroke="#000" stroke-linejoin="round" stroke-width="0.25"/>
      <path id="Path_12381" data-name="Path 12381" d="M2493.127,234.049c1.128-.557,13.351,16.021,18.692,25.246s16.507,21.119,28.4,39.81,26.7,34.519,37.868,47.239,20.877,21.216,32.286,33.6,20.876,15.05,30.828,27.673,19.177,18.691,19.177,18.691-6.554-5.34-8.739-26.944,5.1-39.325,12.623-54.618,19.663-27.673,34.713-29.615c0,0-18.449,7.283-28.886,25.489s-15.536,39.811-14.565,53.4,7.688,29.985,13.8,34.949,8.971,6.872,15.08,15.081c5.991,8.05,10.513,12.428,17.167,18.9a1.321,1.321,0,0,1,.4.962c-.025,1.662-.42,6.5-4.016,9.157-4.391,3.245-7.827,3.245-10.309.954a73.083,73.083,0,0,0-11.264-9.163c-5.153-3.245-4.39-14.126-12.789-20.425s-17.372-21.571-25.58-29.016-22.144-21.953-30.734-29.4-17.753-15.462-26.344-26.726-18.326-24.434-25.388-32.07-22.145-26.916-31.116-40.47-18.392-31.58-22.716-38.56C2496.584,239.908,2492.064,234.572,2493.127,234.049Z" transform="translate(-2448.955 -202.005)" fill="#bfc632" stroke="#231815" stroke-miterlimit="10" stroke-width="0.25"/>
      <path id="Path_12382" data-name="Path 12382" d="M2480.47,251.526c8.652,10.479,27.694,10.479,33.675,20.96" transform="translate(-2448.134 -203.154)" fill="none" stroke="#000" stroke-linejoin="round" stroke-width="0.25"/>
      <path id="Path_12383" data-name="Path 12383" d="M2519.254,227.067c6.529,20.24-2.562,32.646,3.193,44.415" transform="translate(-2450.681 -201.548)" fill="none" stroke="#000" stroke-linejoin="round" stroke-width="0.25"/>
      <path id="Path_12384" data-name="Path 12384" d="M2470.687,280.7c20.077,13.548,44.073,5.06,60.771,21.227" transform="translate(-2447.491 -205.07)" fill="none" stroke="#000" stroke-linejoin="round" stroke-width="0.25"/>
      <path id="Path_12385" data-name="Path 12385" d="M2544.488,236.152c5.55,19.587-8.439,37.053-2.282,61.316" transform="translate(-2452.083 -202.144)" fill="none" stroke="#000" stroke-linejoin="round" stroke-width="0.25"/>
      <path id="Path_12386" data-name="Path 12386" d="M2482.916,314.244c25.628,18.282,53.9,6.04,76.786,23.775" transform="translate(-2448.294 -207.272)" fill="none" stroke="#000" stroke-linejoin="round" stroke-width="0.25"/>
      <path id="Path_12387" data-name="Path 12387" d="M2566.47,266.55c6.2,16-8,36.074,1.6,65.2" transform="translate(-2453.66 -204.14)" fill="none" stroke="#000" stroke-linejoin="round" stroke-width="0.25"/>
      <path id="Path_12388" data-name="Path 12388" d="M2588.945,300.268c8.651,21.873-5.876,42.439,2.45,58.109" transform="translate(-2455.242 -206.355)" fill="none" stroke="#000" stroke-linejoin="round" stroke-width="0.25"/>
      <path id="Path_12389" data-name="Path 12389" d="M2530.261,347.612c15.67,11.426,41.624,7.346,51.1,16.479" transform="translate(-2451.404 -209.464)" fill="none" stroke="#000" stroke-linejoin="round" stroke-width="0.25"/>
      <path id="Path_12390" data-name="Path 12390" d="M2611.788,343.245c3.918,12.319-4.142,29.147.867,38.079" transform="translate(-2456.702 -209.177)" fill="none" stroke="#000" stroke-linejoin="round" stroke-width="0.25"/>
      <path id="Path_12391" data-name="Path 12391" d="M2563.454,378.36c14.2,14.2,30.361,3.265,41.328,10.866" transform="translate(-2453.583 -211.483)" fill="none" stroke="#000" stroke-linejoin="round" stroke-width="0.25"/>
      <path id="Path_12392" data-name="Path 12392" d="M2635.432,375.041c4.734,14.511-2.285,21.709,1.734,29.023" transform="translate(-2458.31 -211.265)" fill="none" stroke="#000" stroke-linejoin="round" stroke-width="0.25"/>
      <path id="Path_12393" data-name="Path 12393" d="M2594.377,406.1c19.179,11.947,29.381,2.154,38.359,9.143" transform="translate(-2455.614 -213.305)" fill="none" stroke="#000" stroke-linejoin="round" stroke-width="0.25"/>
      <path id="Path_12394" data-name="Path 12394" d="M2650.456,401.77c4.119,8.621-.652,13.193,4.119,20.534" transform="translate(-2459.297 -213.02)" fill="none" stroke="#000" stroke-linejoin="round" stroke-width="0.25"/>
      <path id="Path_12395" data-name="Path 12395" d="M2627.92,433.915c11.1,4.9,17.381-3.686,26.238,2.646" transform="translate(-2457.817 -215.131)" fill="none" stroke="#000" stroke-linejoin="round" stroke-width="0.25"/>
      <circle id="Ellipse_2179" data-name="Ellipse 2179" cx="1.688" cy="1.688" r="1.688" transform="translate(75.111 16.641)" fill="#dffffa" stroke="#231815" stroke-miterlimit="10" stroke-width="0.25"/>
      <ellipse id="Ellipse_2180" data-name="Ellipse 2180" cx="4.166" cy="3.112" rx="4.166" ry="3.112" transform="translate(83.444 20.544)" fill="#dffffa" stroke="#231815" stroke-miterlimit="10" stroke-width="0.25"/>
      <ellipse id="Ellipse_2181" data-name="Ellipse 2181" cx="2.031" cy="3.277" rx="2.031" ry="3.277" transform="translate(13.228 97.04) rotate(-80.961)" fill="#dffffa" stroke="#231815" stroke-miterlimit="10" stroke-width="0.25"/>
    </g>
    <g id="Group_3595" data-name="Group 3595" transform="translate(2454.56 318.2)">
      <path id="Path_12396" data-name="Path 12396" d="M2594.082,434.38s15.6,6.836,19.764,0-9.6-24.276-13.118-16.9c0,0-7.549-26.622-17.129-18.349,0,0-9.414-34.538-21.069-25.583,0,0-10.8-30.821-19.9-18.964,0,0-20.325-30.07-24.731-14.578,0,0-7.675-12.649-15.491-11.655s-6.68,10.592-6.68,10.592-7.951-7.181-14.635-4.481-3.841,11.883-3.841,11.883-9.381-4.349-15.35,1.335-.852,12.223-.852,12.223a5.809,5.809,0,0,0-5.686,4.69c-1.137,4.832,2.985,7.391,5.828,8.528a7.128,7.128,0,0,0-4.406,7.222c.426,5.428,9.665,9.975,16.2,10.4,0,0-4.264,7.817,2.7,13.644s19.044,2.984,19.044,2.984-3.553,3.98,0,7.534,17.055-.427,17.055-.427-3.837,6.68,8.67,4.832c0,0-5.117,5.116,1.706,6.823s19.472-3.127,19.472-3.127-4.975,6.111.71,10.66,18.05,3.553,22.314,1.705c0,0,1.563,5.452,9.949,5.356S2594.082,434.38,2594.082,434.38Z" transform="translate(-2455.172 -328.293)" fill="#518937" stroke="#000" stroke-linejoin="round" stroke-width="0.25"/>
      <path id="Path_12397" data-name="Path 12397" d="M2475.365,357.269c1.06-.453,4.569,3.162,16.418,12.456s17.311,14.469,27.947,19.26,32.319,14.618,46.32,21.943,20.472,10.894,34.574,17.168,17.78,6.582,17.78,9.506c0,1.782-2.1,2.309-6.978.562s-9.233-5.309-18.051-9.286-23.653-12.9-32.99-16.322-30.189-12.345-42.949-20.23-29.324-20.645-35.048-26.662S2473.65,358,2475.365,357.269Z" transform="translate(-2456.466 -330.194)" fill="#bfc632" stroke="#231815" stroke-miterlimit="10" stroke-width="0.25"/>
      <path id="Path_12398" data-name="Path 12398" d="M2469.906,373.032c8.922,5.809,17.356.4,23.721,3.725" transform="translate(-2456.139 -331.231)" fill="none" stroke="#000" stroke-linejoin="round" stroke-width="0.25"/>
      <path id="Path_12399" data-name="Path 12399" d="M2490,349.492c6.017,9.026,1.932,19.065,7.979,23.856" transform="translate(-2457.459 -329.686)" fill="none" stroke="#000" stroke-linejoin="round" stroke-width="0.25"/>
      <path id="Path_12400" data-name="Path 12400" d="M2517.943,394.69c-7.365-4.979-24.436,4.565-35.343.207" transform="translate(-2456.973 -332.556)" fill="none" stroke="#000" stroke-linejoin="round" stroke-width="0.25"/>
      <path id="Path_12401" data-name="Path 12401" d="M2505.437,355.6c12.034,14.42,5.187,23.757,12.83,31.61" transform="translate(-2458.473 -330.087)" fill="none" stroke="#000" stroke-linejoin="round" stroke-width="0.25"/>
      <path id="Path_12402" data-name="Path 12402" d="M2572.248,436.241c8.531-1.323,12.987-8.822,19.039-6.875" transform="translate(-2462.86 -334.91)" fill="none" stroke="#000" stroke-linejoin="round" stroke-width="0.25"/>
      <path id="Path_12403" data-name="Path 12403" d="M2593.1,424.386c-7.634-7.1-4.581-12.961-9.161-19.044" transform="translate(-2463.628 -333.353)" fill="none" stroke="#000" stroke-linejoin="round" stroke-width="0.25"/>
      <path id="Path_12404" data-name="Path 12404" d="M2593.742,439.551c4.3.147,7.4-4.537,11.289-3.672" transform="translate(-2464.271 -335.352)" fill="none" stroke="#000" stroke-linejoin="round" stroke-width="0.25"/>
      <path id="Path_12405" data-name="Path 12405" d="M2607.418,431.335c-3.1-5.5-.991-9.991-3.1-13.19" transform="translate(-2464.966 -334.194)" fill="none" stroke="#000" stroke-linejoin="round" stroke-width="0.25"/>
      <ellipse id="Ellipse_2182" data-name="Ellipse 2182" cx="1.555" cy="2.287" rx="1.555" ry="2.287" transform="translate(49.179 16.018) rotate(-60)" fill="#dffffa" stroke="#231815" stroke-miterlimit="10" stroke-width="0.25"/>
      <ellipse id="Ellipse_2183" data-name="Ellipse 2183" cx="2.976" cy="4.599" rx="2.976" ry="4.599" transform="translate(68.658 26.067) rotate(-38.129)" fill="#dffffa" stroke="#231815" stroke-miterlimit="10" stroke-width="0.25"/>
      <path id="Path_12406" data-name="Path 12406" d="M2501.514,411.1c11.331,1.793,25-9.271,35.144-6.373" transform="translate(-2458.215 -333.281)" fill="none" stroke="#000" stroke-linejoin="round" stroke-width="0.25"/>
    </g>
    <path id="Path_12407" data-name="Path 12407" d="M2684.052,461.276a7.1,7.1,0,0,1,5.751-4.052" transform="translate(-15.642 -18.56)" fill="none" stroke="#000" stroke-linejoin="round" stroke-width="0.25"/>
    <path id="Path_12408" data-name="Path 12408" d="M2692.846,478.328a4.936,4.936,0,0,1,3.41-3.064" transform="translate(-16.219 -19.745)" fill="none" stroke="#000" stroke-linejoin="round" stroke-width="0.25"/>
    <path id="Path_12409" data-name="Path 12409" d="M2701.878,483.647s1.5-5.144,5.376-5.723" transform="translate(-16.812 -19.919)" fill="none" stroke="#000" stroke-linejoin="round" stroke-width="0.25"/>
    <ellipse id="Ellipse_2184" data-name="Ellipse 2184" cx="5.188" cy="2.573" rx="5.188" ry="2.573" transform="translate(2677.905 406.372)" fill="#c19165" stroke="#000" stroke-linejoin="round" stroke-width="0.25"/>
    <ellipse id="Ellipse_2185" data-name="Ellipse 2185" cx="4.502" cy="2.761" rx="4.502" ry="2.761" transform="translate(2690.254 379.243)" fill="#ecb36f" stroke="#000" stroke-linejoin="round" stroke-width="0.25"/>
    <path id="Path_12410" data-name="Path 12410" d="M2708.1,418.69c6.994,3.223,11.758-3.977,23.515.844" transform="translate(-17.221 -15.972)" fill="none" stroke="#000" stroke-linejoin="round" stroke-width="0.25"/>
    <path id="Path_12411" data-name="Path 12411" d="M2737.231,420.7c3.153-1.783,6.238,1.92,11.106,0" transform="translate(-19.134 -16.128)" fill="none" stroke="#000" stroke-linejoin="round" stroke-width="0.25"/>
    <path id="Path_12412" data-name="Path 12412" d="M2692.811,435.8c10.913-2.926,16.765,5.595,32.13,1.586" transform="translate(-16.217 -17.112)" fill="none" stroke="#000" stroke-linejoin="round" stroke-width="0.25"/>
    <ellipse id="Ellipse_2186" data-name="Ellipse 2186" cx="4.368" cy="1.983" rx="4.368" ry="1.983" transform="translate(2706.401 432.331)" fill="#c19165" stroke="#000" stroke-linejoin="round" stroke-width="0.25"/>
    <ellipse id="Ellipse_2187" data-name="Ellipse 2187" cx="2.144" cy="1.474" rx="2.144" ry="1.474" transform="translate(2719.424 431.366)" fill="#ecb36f" stroke="#000" stroke-linejoin="round" stroke-width="0.25"/>
    <g id="Group_3596" data-name="Group 3596" transform="translate(2511.556 479.652)">
      <path id="Path_12413" data-name="Path 12413" d="M2555.1,501.409c1.991,1.83,2.551,22.842-6.377,22.146,0,0-1.159,9.159-7.189,6.145,0,0-9.392,9.276-9.856,1.275,0,0-12.985,7.073-11.247-1.623,0,0-3.54.321-4.182-2.51s3.024-4.183,3.024-4.183-2.639-1.737-1.867-4.054,5.792-2.9,7.465-2.252c0,0-1.48-5.084,8.237-2.832,0,0-1.029-4.5,6.885-1.673,0,0-2.187-3.732,3.926-2.638,0,0-2.768-2.124.9-3.6S2553.473,499.914,2555.1,501.409Z" transform="translate(-2516.173 -501.093)" fill="#bfc632" stroke="#231815" stroke-miterlimit="10" stroke-width="0.25"/>
      <path id="Path_12414" data-name="Path 12414" d="M2527.2,524.619s18.326-1.066,28.623-23.188" transform="translate(-2516.897 -501.115)" fill="none" stroke="#000" stroke-linejoin="round" stroke-width="0.25"/>
    </g>
    <circle id="Ellipse_2188" data-name="Ellipse 2188" cx="2.175" cy="2.175" r="2.175" transform="translate(2514.657 469.702)" fill="#c19165" stroke="#000" stroke-linejoin="round" stroke-width="0.25"/>
    <ellipse id="Ellipse_2189" data-name="Ellipse 2189" cx="2.533" cy="1.519" rx="2.533" ry="1.519" transform="translate(2522.806 471.729)" fill="#ecb36f" stroke="#000" stroke-linejoin="round" stroke-width="0.25"/>
    <ellipse id="Ellipse_2190" data-name="Ellipse 2190" cx="4.1" cy="2.037" rx="4.1" ry="2.037" transform="translate(2472.98 439.528)" fill="#c19165" stroke="#000" stroke-linejoin="round" stroke-width="0.25"/>
    <ellipse id="Ellipse_2191" data-name="Ellipse 2191" cx="2.533" cy="1.239" rx="2.533" ry="1.239" transform="translate(2464.403 436.058)" fill="#c19165" stroke="#000" stroke-linejoin="round" stroke-width="0.25"/>
    <path id="Path_12415" data-name="Path 12415" d="M2465.111,437.791s4.03,2.226,10.044,0,8.721,1.323,13.774,0" transform="translate(-1.264 -17.234)" fill="none" stroke="#000" stroke-linejoin="round" stroke-width="0.25"/>
    <path id="Path_12416" data-name="Path 12416" d="M2487.384,445.772a2.645,2.645,0,0,1,3.007-.9c2.1.544,3.428,0,4.09-.778" transform="translate(-2.727 -17.697)" fill="none" stroke="#000" stroke-linejoin="round" stroke-width="0.25"/>
    <path id="Path_12417" data-name="Path 12417" d="M2540.9,460.954a14.679,14.679,0,0,1,8.653,0c8.653,2.4,8.421-1.081,14.37,0" transform="translate(-6.241 -18.764)" fill="none" stroke="#000" stroke-linejoin="round" stroke-width="0.25"/>
    <path id="Path_12418" data-name="Path 12418" d="M2568.967,462.872a3.422,3.422,0,0,1,2.534-.537" transform="translate(-8.084 -18.891)" fill="none" stroke="#000" stroke-linejoin="round" stroke-width="0.25"/>
    <path id="Path_12419" data-name="Path 12419" d="M2626.816,463.793c1.681-1.465,3.068,2.349,7.19,2.493s5.944-1.2,5.7.672c0,0,4.89-1.534,4.89.575,0,0,6.184-3.547,6.76-.575,0,0,3.259-2.589,5.465-.96s.335,4.075.335,4.075,4.17-.192,4.793,2.445-3.02,2.924-3.02,2.924a3.7,3.7,0,0,1,1.773,4.266c-.767,2.972-6.9,2.684-9.54,1.678,0,0,1.487,4.554-2.493,5.225s-6.088-2.781-6.854-4.6c0,0-5.8,2.732-9.012-6.328,0,0-5.944-.144-4.7-6.183C2628.11,469.5,2624.947,465.423,2626.816,463.793Z" transform="translate(-11.844 -18.969)" fill="#62a542" stroke="#000" stroke-linejoin="round" stroke-width="0.25"/>
    <path id="Path_12420" data-name="Path 12420" d="M2654.541,472.876s-15.569,8.5-27.683-9.06" transform="translate(-11.886 -18.993)" fill="none" stroke="#000" stroke-linejoin="round" stroke-width="0.25"/>
    <ellipse id="Ellipse_2192" data-name="Ellipse 2192" cx="1.741" cy="2.927" rx="1.741" ry="2.927" transform="translate(2623.029 471.97) rotate(-74.631)" fill="#c19165" stroke="#000" stroke-linejoin="round" stroke-width="0.25"/>
    <ellipse id="Ellipse_2193" data-name="Ellipse 2193" cx="2.491" cy="1.621" rx="2.491" ry="1.621" transform="translate(2614.654 471.937)" fill="#c19165" stroke="#000" stroke-linejoin="round" stroke-width="0.25"/>
    <path id="Path_12421" data-name="Path 12421" d="M2642.428,502c6.935-3.686,13,3.007,19.739.63" transform="translate(-12.908 -21.426)" fill="none" stroke="#000" stroke-linejoin="round" stroke-width="0.25"/>
    <path id="Path_12422" data-name="Path 12422" d="M2662.205,493.861c1.018-1.31,7.323-1.116,11.252,0a17.228,17.228,0,0,0,10.621-.911" transform="translate(-14.207 -20.906)" fill="none" stroke="#000" stroke-linejoin="round" stroke-width="0.25"/>
    <path id="Path_12423" data-name="Path 12423" d="M2611.76,503.149c4.648-3.146,14.577,3.122,24.364-2.287" transform="translate(-10.894 -21.426)" fill="none" stroke="#000" stroke-linejoin="round" stroke-width="0.25"/>
    <ellipse id="Ellipse_2194" data-name="Ellipse 2194" cx="7.722" cy="3.826" rx="7.722" ry="3.826" transform="translate(2667.472 499.797) rotate(-6.521)" fill="#ecb36f" stroke="#000" stroke-linejoin="round" stroke-width="0.25"/>
    <ellipse id="Ellipse_2195" data-name="Ellipse 2195" cx="3.405" cy="1.965" rx="3.405" ry="1.965" transform="translate(2684.865 495.171) rotate(-6.521)" fill="#ecb36f" stroke="#000" stroke-linejoin="round" stroke-width="0.25"/>
    <path id="Path_12424" data-name="Path 12424" d="M2588.682,527c6.138-4.211,16.219,2.569,21.563-.785" transform="translate(-9.379 -23.048)" fill="none" stroke="#000" stroke-linejoin="round" stroke-width="0.25"/>
    <path id="Path_12425" data-name="Path 12425" d="M2616.336,527.785a9.49,9.49,0,0,0,4.211,0" transform="translate(-11.195 -23.194)" fill="none" stroke="#000" stroke-linejoin="round" stroke-width="0.25"/>
    <g id="Group_3606" data-name="Group 3606" transform="translate(2552.762 443.032)">
      <g id="Group_3597" data-name="Group 3597" transform="translate(5.292 0)">
        <path id="Path_12426" data-name="Path 12426" d="M2579,466.769a7.1,7.1,0,0,0-2.829-1.426,4.754,4.754,0,0,0-6.131,3.523c-3.418-.758-6.6,3.553-1.187,7.935a16.651,16.651,0,0,1,1.746-.3v0c-.036-.126,3.318-1.432,4.77-4.109a1.353,1.353,0,0,1,1.365-.717,15.568,15.568,0,0,0,3.583.065,10.179,10.179,0,0,0,1.869-.383A11.361,11.361,0,0,0,2579,466.769Z" transform="translate(-2565.939 -462.112)" fill="#fff6eb" stroke="#000" stroke-miterlimit="10" stroke-width="0.25"/>
        <path id="Path_12427" data-name="Path 12427" d="M2590.446,465.941c-.522-2.659-1.659-3.87-2.8-4.022-2.29-.306-3.347,3.008-3.347,3.008-.176-1.085-2.026-2.614-3.611-1.571-.7.46-.969,1.545-.782,3.2a11.359,11.359,0,0,1,3.185,4.583,6.508,6.508,0,0,0,2.4-1.257,1.354,1.354,0,0,1,1.51-.2,11.846,11.846,0,0,0,1.611.675,9.936,9.936,0,0,0,2.08.455A20.351,20.351,0,0,0,2590.446,465.941Z" transform="translate(-2566.853 -461.899)" fill="#fff6eb" stroke="#000" stroke-miterlimit="10" stroke-width="0.25"/>
        <path id="Path_12428" data-name="Path 12428" d="M2600.681,474.9s-.509,2.492.33,3.871a18.806,18.806,0,0,1,6.3,1.729,10.708,10.708,0,0,1,1.291.751c1.276-3.314-2.382-4.349-2.382-4.349,1.829-2.5-1.044-4.305-4.413-3.8a8.312,8.312,0,0,0-1.287.3,8.248,8.248,0,0,1-1.02,1.464A7.61,7.61,0,0,0,2600.681,474.9Z" transform="translate(-2568.144 -462.629)" fill="#fff6eb" stroke="#000" stroke-miterlimit="10" stroke-width="0.25"/>
        <path id="Path_12429" data-name="Path 12429" d="M2599.755,466.528c-1.7-1.294-3.875,0-3.875,0-.121-2.55-2.716-2.977-4.689-.423a20.351,20.351,0,0,1,.25,4.87,7.727,7.727,0,0,0,2.034-.036,1.357,1.357,0,0,1,1.445.7,4.848,4.848,0,0,0,2.725,2.356,5.736,5.736,0,0,0,1.313.306,8.288,8.288,0,0,0,1.021-1.464C2601.527,469.974,2600.658,467.215,2599.755,466.528Z" transform="translate(-2567.598 -462.062)" fill="#fff6eb" stroke="#000" stroke-miterlimit="10" stroke-width="0.25"/>
        <path id="Path_12430" data-name="Path 12430" d="M2594.876,477.807a19.02,19.02,0,0,1-2.53,1.139,3.362,3.362,0,0,1-2.52-.459c-.1.47-.187.933-.3,1.429,0,0-2.207,2.258-4.716-.381.016.156.035.313.048.469a17.618,17.618,0,0,1-4.5.822,3.514,3.514,0,0,1-.064,1.445,3.914,3.914,0,0,1,3.135.867,4.6,4.6,0,0,1,1.142,1.706,3.629,3.629,0,0,1,2.546-1.728,4.192,4.192,0,0,1,3.43,1.907,2.5,2.5,0,0,1,1.123-1.585,3.934,3.934,0,0,1,2.7-.291,4.117,4.117,0,0,1,.241-2.736,1.788,1.788,0,0,1,.821-.8,3.459,3.459,0,0,1-.49-.952A2.213,2.213,0,0,1,2594.876,477.807Z" transform="translate(-2566.883 -462.943)" fill="#ffb829" stroke="#000" stroke-linejoin="round" stroke-width="0.25"/>
        <path id="Path_12431" data-name="Path 12431" d="M2584.2,479.139a26.55,26.55,0,0,0-1.688-7.35,10.17,10.17,0,0,1-1.869.383,15.568,15.568,0,0,1-3.583-.065,1.353,1.353,0,0,0-1.365.717c-1.452,2.677-4.806,3.983-4.77,4.109v0a12.841,12.841,0,0,1,5.358.413c2.437.762,3.274,1.976,3.468,3.08a17.62,17.62,0,0,0,4.5-.822C2584.23,479.452,2584.212,479.3,2584.2,479.139Z" transform="translate(-2566.266 -462.548)" fill="#ffb829" stroke="#000" stroke-linejoin="round" stroke-width="0.25"/>
        <path id="Path_12432" data-name="Path 12432" d="M2588.845,470.892a11.832,11.832,0,0,1-1.611-.675,1.355,1.355,0,0,0-1.511.2,6.506,6.506,0,0,1-2.4,1.257,26.559,26.559,0,0,1,1.688,7.35c2.509,2.639,4.716.381,4.716.381.112-.5.2-.959.3-1.429a45.278,45.278,0,0,0,.9-6.632A9.93,9.93,0,0,1,2588.845,470.892Z" transform="translate(-2567.081 -462.435)" fill="#ffb829" stroke="#000" stroke-linejoin="round" stroke-width="0.25"/>
        <path id="Path_12433" data-name="Path 12433" d="M2595.9,477.622a2.223,2.223,0,0,0,.074.849,3.46,3.46,0,0,0,.49.952,8.1,8.1,0,0,1,4.31-.519c-.839-1.379-.33-3.871-.33-3.871a7.611,7.611,0,0,1-1.177-.038A11.873,11.873,0,0,1,2595.9,477.622Z" transform="translate(-2567.906 -462.759)" fill="#ffb829" stroke="#000" stroke-linejoin="round" stroke-width="0.25"/>
        <path id="Path_12434" data-name="Path 12434" d="M2597.6,474.452a4.848,4.848,0,0,1-2.725-2.356,1.357,1.357,0,0,0-1.445-.7,7.722,7.722,0,0,1-2.034.036,45.315,45.315,0,0,1-.9,6.632,3.363,3.363,0,0,0,2.52.459,19.017,19.017,0,0,0,2.53-1.139,11.874,11.874,0,0,0,3.366-2.626A5.736,5.736,0,0,1,2597.6,474.452Z" transform="translate(-2567.552 -462.521)" fill="#ffb829" stroke="#000" stroke-linejoin="round" stroke-width="0.25"/>
      </g>
      <g id="Group_3605" data-name="Group 3605" transform="translate(0 11.894)">
        <g id="Group_3604" data-name="Group 3604">
          <path id="Path_12435" data-name="Path 12435" d="M2578.931,479.243s-.214-3.5,1.778-2.231c0,0,1.218-3.67,3.419-1.235,0,0,2.727-2.815,4.032.372,0,0,2.793-3.13,3.718.249,0,0,1.956-1,1.956,1.174,0,0,2.205-.712,2.205,2.027l-1.067,4.385-7.184,2.3-6.793-1.1-2.882-1.707Z" transform="translate(-2561.447 -474.628)" fill="#fff6eb" stroke="#000" stroke-miterlimit="10" stroke-width="0.25"/>
          <circle id="Ellipse_2196" data-name="Ellipse 2196" cx="0.375" cy="0.375" r="0.375" transform="translate(21.316 3.925)" fill="#ffb829" stroke="#000" stroke-linejoin="round" stroke-width="0.25"/>
          <circle id="Ellipse_2197" data-name="Ellipse 2197" cx="0.375" cy="0.375" r="0.375" transform="translate(23.36 2.154)" fill="#ffb829" stroke="#000" stroke-linejoin="round" stroke-width="0.25"/>
          <circle id="Ellipse_2198" data-name="Ellipse 2198" cx="0.375" cy="0.375" r="0.375" transform="translate(24.88 5.65)" fill="#ffb829" stroke="#000" stroke-linejoin="round" stroke-width="0.25"/>
          <circle id="Ellipse_2199" data-name="Ellipse 2199" cx="0.375" cy="0.375" r="0.375" transform="translate(27.268 3.55)" fill="#ffb829" stroke="#000" stroke-linejoin="round" stroke-width="0.25"/>
          <circle id="Ellipse_2200" data-name="Ellipse 2200" cx="0.375" cy="0.375" r="0.375" transform="translate(28.983 5.65)" fill="#ffb829" stroke="#000" stroke-linejoin="round" stroke-width="0.25"/>
          <circle id="Ellipse_2201" data-name="Ellipse 2201" cx="0.375" cy="0.375" r="0.375" transform="translate(30.967 3.55)" fill="#ffb829" stroke="#000" stroke-linejoin="round" stroke-width="0.25"/>
          <g id="Group_3598" data-name="Group 3598" transform="translate(35.15 4.253)">
            <path id="Path_12436" data-name="Path 12436" d="M2608.5,481.66a10.7,10.7,0,0,0-1.291-.751,18.808,18.808,0,0,0-6.3-1.729,1.793,1.793,0,0,0,.7.682c1.778.924,1,1.725-1.042,3.121h0a5.9,5.9,0,0,0-1.619,1.655,6.149,6.149,0,0,0-.89,2.2,1.4,1.4,0,0,1-.159.43l.013.017a12.458,12.458,0,0,0,6.271,3.71,10.052,10.052,0,0,0,3.362.343c3.111-.291,1.755-3.611,1.755-3.611C2612.554,487.15,2611.769,483.86,2608.5,481.66Z" transform="translate(-2597.896 -479.18)" fill="#fff6eb"/>
            <path id="Path_12437" data-name="Path 12437" d="M2608.5,481.66a10.7,10.7,0,0,0-1.291-.751,18.808,18.808,0,0,0-6.3-1.729,1.793,1.793,0,0,0,.7.682c1.778.924,1,1.725-1.042,3.121h0a5.9,5.9,0,0,0-1.619,1.655,6.149,6.149,0,0,0-.89,2.2,1.4,1.4,0,0,1-.159.43l.013.017a12.458,12.458,0,0,0,6.271,3.71,10.052,10.052,0,0,0,3.362.343c3.111-.291,1.755-3.611,1.755-3.611C2612.554,487.15,2611.769,483.86,2608.5,481.66Z" transform="translate(-2597.896 -479.18)" fill="none" stroke="#000" stroke-miterlimit="10" stroke-width="0.25"/>
          </g>
          <g id="Group_3603" data-name="Group 3603" transform="translate(0 2.387)">
            <g id="Group_3599" data-name="Group 3599" transform="translate(0 0.109)">
              <path id="Path_12438" data-name="Path 12438" d="M2573.26,484.618a4.243,4.243,0,0,0-2.439-1.686,1.338,1.338,0,0,1-.778-1.841,4.705,4.705,0,0,0,.441-2.125,6.382,6.382,0,0,0-.262-1.667,16.635,16.635,0,0,0-1.746.3,16.213,16.213,0,0,0-6.782,3.227c-2.292,2.075-1.887,4.772,1.82,4.232,0,0-2.359,2.293.809,4.113a5.912,5.912,0,0,0,3.75.287,22.547,22.547,0,0,1,5.192-4.842Z" transform="translate(-2560.276 -477.299)" fill="#fff6eb"/>
              <path id="Path_12439" data-name="Path 12439" d="M2573.26,484.618a4.243,4.243,0,0,0-2.439-1.686,1.338,1.338,0,0,1-.778-1.841,4.705,4.705,0,0,0,.441-2.125,6.382,6.382,0,0,0-.262-1.667,16.635,16.635,0,0,0-1.746.3,16.213,16.213,0,0,0-6.782,3.227c-2.292,2.075-1.887,4.772,1.82,4.232,0,0-2.359,2.293.809,4.113a5.912,5.912,0,0,0,3.75.287,22.547,22.547,0,0,1,5.192-4.842Z" transform="translate(-2560.276 -477.299)" fill="none" stroke="#000" stroke-miterlimit="10" stroke-width="0.25"/>
            </g>
            <g id="Group_3600" data-name="Group 3600" transform="translate(5.604 7.424)">
              <path id="Path_12440" data-name="Path 12440" d="M2581.857,489.681a5.518,5.518,0,0,0-4.52-1.453,1.309,1.309,0,0,1-1.356-1.006c-.024-.1-.054-.207-.087-.313a2.174,2.174,0,0,0-2.235-1.777,22.547,22.547,0,0,0-5.192,4.842,10.355,10.355,0,0,0-2.089,4.185c-.947,5.262,4.877,2.606,4.877,2.606.131,6.613,6.749,3.622,10.156-1.373.1-.148.2-.3.293-.448a18.211,18.211,0,0,0,1.52-2.966A5.3,5.3,0,0,0,2581.857,489.681Z" transform="translate(-2566.274 -485.128)" fill="#fff6eb"/>
              <path id="Path_12441" data-name="Path 12441" d="M2581.857,489.681a5.518,5.518,0,0,0-4.52-1.453,1.309,1.309,0,0,1-1.356-1.006c-.024-.1-.054-.207-.087-.313a2.174,2.174,0,0,0-2.235-1.777,22.547,22.547,0,0,0-5.192,4.842,10.355,10.355,0,0,0-2.089,4.185c-.947,5.262,4.877,2.606,4.877,2.606.131,6.613,6.749,3.622,10.156-1.373.1-.148.2-.3.293-.448a18.211,18.211,0,0,0,1.52-2.966A5.3,5.3,0,0,0,2581.857,489.681Z" transform="translate(-2566.274 -485.128)" fill="none" stroke="#000" stroke-miterlimit="10" stroke-width="0.25"/>
            </g>
            <g id="Group_3601" data-name="Group 3601" transform="translate(30.991 9.956)">
              <path id="Path_12442" data-name="Path 12442" d="M2597.616,487.856l-.013-.017a1.329,1.329,0,0,1-1.157.707,2.639,2.639,0,0,0-2.529,1.454,1.354,1.354,0,0,1-.472.522c.1.489.2,1,.281,1.556a21.1,21.1,0,0,1,.151,4.963c1.254,2.476,3.042,3.408,4.986,2.966a3.637,3.637,0,0,0,2.787-2.946c3.269,1.834,3.849-1.594,2.237-5.495A12.459,12.459,0,0,1,2597.616,487.856Z" transform="translate(-2593.445 -487.839)" fill="#fff6eb"/>
              <path id="Path_12443" data-name="Path 12443" d="M2597.616,487.856l-.013-.017a1.329,1.329,0,0,1-1.157.707,2.639,2.639,0,0,0-2.529,1.454,1.354,1.354,0,0,1-.472.522c.1.489.2,1,.281,1.556a21.1,21.1,0,0,1,.151,4.963c1.254,2.476,3.042,3.408,4.986,2.966a3.637,3.637,0,0,0,2.787-2.946c3.269,1.834,3.849-1.594,2.237-5.495A12.459,12.459,0,0,1,2597.616,487.856Z" transform="translate(-2593.445 -487.839)" fill="none" stroke="#000" stroke-miterlimit="10" stroke-width="0.25"/>
            </g>
            <g id="Group_3602" data-name="Group 3602" transform="translate(20.741 12.64)">
              <path id="Path_12444" data-name="Path 12444" d="M2593.006,492.267c-.08-.557-.177-1.067-.281-1.556a1.182,1.182,0,0,1-.853.192,1.91,1.91,0,0,0-.722.015,1.938,1.938,0,0,0-.9.458,1.368,1.368,0,0,1-1.476.249,3.659,3.659,0,0,0-4.489.726v-.006a18.192,18.192,0,0,1-1.52,2.966c-.094.151-.193.3-.293.448a16.925,16.925,0,0,0,.331,2.487c1.281,5.979,5.409,1.95,5.409,1.95,2.606,3.312,4.53,1.208,4.944-2.966A21.094,21.094,0,0,0,2593.006,492.267Z" transform="translate(-2582.474 -490.711)" fill="#fff6eb"/>
              <path id="Path_12445" data-name="Path 12445" d="M2593.006,492.267c-.08-.557-.177-1.067-.281-1.556a1.182,1.182,0,0,1-.853.192,1.91,1.91,0,0,0-.722.015,1.938,1.938,0,0,0-.9.458,1.368,1.368,0,0,1-1.476.249,3.659,3.659,0,0,0-4.489.726v-.006a18.192,18.192,0,0,1-1.52,2.966c-.094.151-.193.3-.293.448a16.925,16.925,0,0,0,.331,2.487c1.281,5.979,5.409,1.95,5.409,1.95,2.606,3.312,4.53,1.208,4.944-2.966A21.094,21.094,0,0,0,2593.006,492.267Z" transform="translate(-2582.474 -490.711)" fill="none" stroke="#000" stroke-miterlimit="10" stroke-width="0.25"/>
            </g>
            <path id="Path_12446" data-name="Path 12446" d="M2579.725,480.785c-.194-1.1-1.031-2.319-3.468-3.081a12.843,12.843,0,0,0-5.358-.413,6.383,6.383,0,0,1,.262,1.667,4.712,4.712,0,0,1-.441,2.125,1.338,1.338,0,0,0,.778,1.841,4.245,4.245,0,0,1,2.439,1.687h.005a13.214,13.214,0,0,1,5.719-2.38A3.522,3.522,0,0,0,2579.725,480.785Z" transform="translate(-2560.953 -477.183)" fill="#ffb829" stroke="#000" stroke-linejoin="round" stroke-width="0.25"/>
            <path id="Path_12447" data-name="Path 12447" d="M2583.032,483.45a3.914,3.914,0,0,0-3.135-.867,13.215,13.215,0,0,0-5.719,2.38,2.174,2.174,0,0,1,2.235,1.777c.033.106.062.211.087.313a1.309,1.309,0,0,0,1.356,1.006,5.518,5.518,0,0,1,4.52,1.453,12.281,12.281,0,0,1,1.8-4.356A4.6,4.6,0,0,0,2583.032,483.45Z" transform="translate(-2561.189 -477.535)" fill="#ffb829" stroke="#000" stroke-linejoin="round" stroke-width="0.25"/>
            <path id="Path_12448" data-name="Path 12448" d="M2592.4,483.806a2.5,2.5,0,0,0-1.123,1.585,11.881,11.881,0,0,1,2.03,4.841,1.353,1.353,0,0,0,.473-.522,2.639,2.639,0,0,1,2.529-1.454,1.329,1.329,0,0,0,1.157-.707,10.479,10.479,0,0,1-2.363-4.033A3.935,3.935,0,0,0,2592.4,483.806Z" transform="translate(-2562.311 -477.592)" fill="#ffb829" stroke="#000" stroke-linejoin="round" stroke-width="0.25"/>
            <path id="Path_12449" data-name="Path 12449" d="M2590.726,485.4a4.191,4.191,0,0,0-3.43-1.907,3.629,3.629,0,0,0-2.546,1.728,12.286,12.286,0,0,0-1.8,4.356,5.3,5.3,0,0,1,1.366,2.3v.006a3.659,3.659,0,0,1,4.489-.726,1.368,1.368,0,0,0,1.476-.249,1.938,1.938,0,0,1,.9-.458,1.91,1.91,0,0,1,.722-.015,1.182,1.182,0,0,0,.853-.192A11.881,11.881,0,0,0,2590.726,485.4Z" transform="translate(-2561.765 -477.596)" fill="#ffb829" stroke="#000" stroke-linejoin="round" stroke-width="0.25"/>
            <path id="Path_12450" data-name="Path 12450" d="M2601.432,479.858a1.794,1.794,0,0,1-.7-.682,8.1,8.1,0,0,0-4.31.519,1.789,1.789,0,0,0-.821.8,4.117,4.117,0,0,0-.241,2.736,10.48,10.48,0,0,0,2.363,4.033,1.41,1.41,0,0,0,.159-.43,6.149,6.149,0,0,1,.89-2.2,5.9,5.9,0,0,1,1.619-1.655h0C2602.429,481.583,2603.21,480.782,2601.432,479.858Z" transform="translate(-2562.571 -477.31)" fill="#ffb829" stroke="#000" stroke-linejoin="round" stroke-width="0.25"/>
          </g>
        </g>
      </g>
    </g>
    <g id="Group_3612" data-name="Group 3612" transform="translate(2480.256 360.344)">
      <g id="Group_3607" data-name="Group 3607" transform="translate(16.776 38.729)">
        <path id="Path_12451" data-name="Path 12451" d="M2508.395,451.835a10.854,10.854,0,0,0-3.646-3.222c-2.37-1.27-3.3-5.247-.762-4.486,0,0-2.607-2.624-2.53-5.585s2.108-1.777,2.108-1.777a39.658,39.658,0,0,1-2.624-5.925c-1.015-3.047.677-4.655,1.946-3.216,0,0-1.693-4.993-.338-6.516s3.455.794,3.455.794-.479-5.7,2.392-6.888,3.459,4.4,3.459,4.4,1.865-2.285,4.065-.846,0,6.135,0,6.135,4.739.222,2.116,8.639c0,0,5.212.711-3.91,13.068C2514.125,446.412,2510.941,452.688,2508.395,451.835Z" transform="translate(-2500.629 -414.85)" fill="#bfc632" stroke="#231815" stroke-miterlimit="10" stroke-width="0.25"/>
        <path id="Path_12452" data-name="Path 12452" d="M2510.2,424.719s3.231,16.6-1.261,27.765" transform="translate(-2501.175 -415.499)" fill="none" stroke="#000" stroke-linejoin="round" stroke-width="0.25"/>
      </g>
      <path id="Path_12453" data-name="Path 12453" d="M2534.147,416.813a25.806,25.806,0,0,1-7.634,14.968c-7.086,7.11-6.481,10.11-13.437,14.256s-9.376,13.421-15.828,17.152a41.52,41.52,0,0,1-12.6,4.738l.625,6.281s4.609,1.41,10.969-2.752c7.348-4.808,7.864-6.856,12.3-12.2s8.368-10.284,15.425-14.317,9.981-5.7,17.442-7.134,11.09-2.946,13.71-5.518l-1.109-1.544s-4.567,3.308-14.23,4.72-9.555,3.427-14.449,5.645a38.608,38.608,0,0,0,9.625-12c4.234-7.965,4.742-11.8,6.754-17.489l-5.544-2.473Z" transform="translate(-2482.803 -375.747)" fill="#bfc632" stroke="#231815" stroke-miterlimit="10" stroke-width="0.25"/>
      <path id="Path_12454" data-name="Path 12454" d="M2546.982,403.7c2.461-1.159,6.688,1.228,7.985,9.179s-2.169,10.408-4.565,7.336c0,0-5.808,3.617-6.558-4.64S2544.632,404.8,2546.982,403.7Z" transform="translate(-2486.678 -375.371)" fill="#fff6eb" stroke="#000" stroke-miterlimit="10" stroke-width="0.25"/>
      <g id="Group_3608" data-name="Group 3608" transform="translate(33.264)">
        <path id="Path_12455" data-name="Path 12455" d="M2532.748,382.133c-.033-.022-.062-.046-.1-.068-5.34-3.629-10.287-3.629-10.351,1.641,0,0-4.389-.207-4,4.169.161,1.811,2.142,3.725,5.03,5.328a36.68,36.68,0,0,1,5.488.542v0c.433-2.132,1.358-3.325,3.551-3.668a6.266,6.266,0,0,0,3.832-1.963,5.62,5.62,0,0,0,1.1-1.885A23.2,23.2,0,0,0,2532.748,382.133Z" transform="translate(-2518.276 -373.802)" fill="#fff6eb" stroke="#000" stroke-miterlimit="10" stroke-width="0.25"/>
        <path id="Path_12456" data-name="Path 12456" d="M2551.667,383.764l.033-.015a3.194,3.194,0,0,0,2.041,2.355c1.762.617,3.28-.867,4.945,1.025a3.839,3.839,0,0,0,2.817,1.578c.216-.115.432-.231.661-.338.4-.189.811-.347,1.217-.491a6.242,6.242,0,0,0,.623-1.695c.978-4.888-3.047-7.476-6.21-4.831,0,0,.287-4.141-3.106-3.623-1.609.246-2.534,1.9-3.066,3.574a9.435,9.435,0,0,1,.077,1.2C2551.7,382.924,2551.685,383.344,2551.667,383.764Z" transform="translate(-2520.466 -373.681)" fill="#fff6eb" stroke="#000" stroke-miterlimit="10" stroke-width="0.25"/>
        <path id="Path_12457" data-name="Path 12457" d="M2550.424,381.022c-.713-5.7-6.387-11.022-9.988-4.9,0,0-2.99-2.53-5.808-.23-1.462,1.193-1.505,3.532-.889,5.835a23.21,23.21,0,0,1,4.557,4.091h0a8.436,8.436,0,0,0,3.634,0c1.75-.46,1.555-2.223,4.051-1.782a7.935,7.935,0,0,0,3.851-.312,5.959,5.959,0,0,0,.636-.247c.018-.419.031-.84.033-1.26A9.39,9.39,0,0,0,2550.424,381.022Z" transform="translate(-2519.267 -373.4)" fill="#fff6eb" stroke="#000" stroke-miterlimit="10" stroke-width="0.25"/>
        <path id="Path_12458" data-name="Path 12458" d="M2572.061,391.161c1.806-2.868-3.061-4.355-7.984-2.618-.406.144-.814.3-1.217.49-.229.107-.445.223-.662.338a1.418,1.418,0,0,0,.267-.022,6,6,0,0,0-.22,1.607,3.655,3.655,0,0,0,.808,2.452c1.371,1.567,3.524,1.077,4.015,2.3a5.072,5.072,0,0,1-.207,2.5,14.707,14.707,0,0,1,4.92.444c2.6-1.267,3.587-3.049,3.615-4.368C2575.454,391.6,2572.061,391.161,2572.061,391.161Z" transform="translate(-2521.161 -374.345)" fill="#fff6eb" stroke="#000" stroke-miterlimit="10" stroke-width="0.25"/>
        <path id="Path_12459" data-name="Path 12459" d="M2552.381,403.079c1.239-.942,1.471-.462,4.525.323-.043-.069-.094-.138-.135-.207l.288-2.415s.358-.185.962-.446c-.554-.051-1.119-.111-1.709-.187l-2.243-3.738a9.85,9.85,0,0,1,.515-.972l-.112.052-5.8-1.252h0l-3.635.35s-1.412-.941-3.12-2.177c.024.065.04.111.04.111l-2.135,5.285c-.382.012-.77.01-1.16,0a5.2,5.2,0,0,1,1.716,2.174,3.632,3.632,0,0,1,.274,1.487,3.481,3.481,0,0,1,1.66.414c3.225,1.8,3.529,5.182,1.046,10.709,2.466-1.533,3.7-1.552,6.054-.44a3.975,3.975,0,0,0,4.238-.392,19.376,19.376,0,0,1-.849-2.988Z" transform="translate(-2519.615 -374.648)" fill="#ffb829" stroke="#000" stroke-linejoin="round" stroke-width="0.25"/>
        <path id="Path_12460" data-name="Path 12460" d="M2541.322,392.036a18.533,18.533,0,0,0-3.277-5.34,5.62,5.62,0,0,1-1.1,1.885,6.265,6.265,0,0,1-3.832,1.963c-2.193.343-3.117,1.536-3.55,3.668v0c3.415.6,6.576,1.686,8.508,3.218.389.007.777.009,1.16,0l2.135-5.285Z" transform="translate(-2519.017 -374.273)" fill="#ffb829" stroke="#000" stroke-linejoin="round" stroke-width="0.25"/>
        <path id="Path_12461" data-name="Path 12461" d="M2550.178,384.438a7.935,7.935,0,0,1-3.851.312c-2.5-.441-2.3,1.322-4.051,1.782a8.437,8.437,0,0,1-3.634,0h0a18.532,18.532,0,0,1,3.277,5.34c1.708,1.236,3.12,2.177,3.12,2.177l3.635-.35.735-.071a51.256,51.256,0,0,0,1.406-9.436A6.011,6.011,0,0,1,2550.178,384.438Z" transform="translate(-2519.613 -374.108)" fill="#ffb829" stroke="#000" stroke-linejoin="round" stroke-width="0.25"/>
        <path id="Path_12462" data-name="Path 12462" d="M2566.6,395.931c-.491-1.224-2.644-.734-4.015-2.3a3.655,3.655,0,0,1-.808-2.452,23.645,23.645,0,0,1-6.116,4.178,9.867,9.867,0,0,0-.515.972l2.243,3.738c.59.076,1.155.135,1.709.187a23.08,23.08,0,0,1,7.295-1.822A5.075,5.075,0,0,0,2566.6,395.931Z" transform="translate(-2520.698 -374.567)" fill="#ffb829" stroke="#000" stroke-linejoin="round" stroke-width="0.25"/>
        <path id="Path_12463" data-name="Path 12463" d="M2561.356,389.133a3.839,3.839,0,0,1-2.817-1.578c-1.665-1.892-3.183-.408-4.945-1.025a3.194,3.194,0,0,1-2.042-2.355l-.033.015a51.243,51.243,0,0,1-1.405,9.436l-.735.071,5.8,1.252.112-.052a23.65,23.65,0,0,0,6.116-4.178,6,6,0,0,1,.22-1.607A1.42,1.42,0,0,1,2561.356,389.133Z" transform="translate(-2520.319 -374.107)" fill="#ffb829" stroke="#000" stroke-linejoin="round" stroke-width="0.25"/>
      </g>
      <g id="Group_3609" data-name="Group 3609" transform="translate(68.753 48.402)">
        <circle id="Ellipse_2202" data-name="Ellipse 2202" cx="6.595" cy="6.595" r="6.595" fill="#ffb829" stroke="#000" stroke-linejoin="round" stroke-width="0.25"/>
        <path id="Path_12464" data-name="Path 12464" d="M2561.551,425.429s4.476,1.978,2.892,5.921c0,0,1.092-3.645,3.914-3.648" transform="translate(-2556.607 -425.218)" fill="#ffb829" stroke="#000" stroke-linejoin="round" stroke-width="0.25"/>
        <path id="Path_12465" data-name="Path 12465" d="M2557.651,435.893a7.658,7.658,0,0,0,6.536-4.383c-1.975-3.22-6.4-3.643-6.4-3.643" transform="translate(-2556.351 -425.378)" fill="#ffb829" stroke="#000" stroke-linejoin="round" stroke-width="0.25"/>
        <path id="Path_12466" data-name="Path 12466" d="M2556.269,432.551s2.66-1.326,7.827-.794c0,0,1.571,3.163-2.084,7" transform="translate(-2556.26 -425.626)" fill="none" stroke="#000" stroke-linejoin="round" stroke-width="0.25"/>
        <path id="Path_12467" data-name="Path 12467" d="M2569.816,430.615a4.172,4.172,0,0,1-5.17,1.075c3.917,2.78,2.473,5.913,2.473,5.913" transform="translate(-2556.81 -425.559)" fill="#ffb829" stroke="#000" stroke-linejoin="round" stroke-width="0.25"/>
      </g>
      <ellipse id="Ellipse_2203" data-name="Ellipse 2203" cx="1.849" cy="3.249" rx="1.849" ry="3.249" transform="translate(0 92.536) rotate(-11.642)" fill="#62a542" stroke="#000" stroke-linejoin="round" stroke-width="0.25"/>
      <g id="Group_3611" data-name="Group 3611" transform="translate(50.56 16.067)">
        <path id="Path_12468" data-name="Path 12468" d="M2537.22,397.874c0-.214-1.407-2.387.852-2.941,0,0-.085-3.068,2.387-2.77,0,0,2-3.154,4.007-.426,0,0,3.238-2.728,4.219.255,0,0,5.669-2,3.963,1.748,0,0,4.219-1.066,2.855,2.642,0,0,3.666-.171,2,3.068a3.908,3.908,0,0,1-.86,3.625c-.351,2.116-2.919,2.7-4.233,2.007-1.2-.787-3.863-3.121-7.657,0-.548-.259-5.407-2.222-5.407-2.222Z" transform="translate(-2536.788 -390.596)" fill="#fff6eb" stroke="#000" stroke-miterlimit="10" stroke-width="0.25"/>
        <g id="Group_3610" data-name="Group 3610" transform="translate(3.661 2.868)">
          <circle id="Ellipse_2204" data-name="Ellipse 2204" cx="0.381" cy="0.381" r="0.381" transform="translate(1.989)" fill="#ffb829" stroke="#000" stroke-linejoin="round" stroke-width="0.25"/>
          <circle id="Ellipse_2205" data-name="Ellipse 2205" cx="0.381" cy="0.381" r="0.381" transform="translate(3.673 2.199)" fill="#ffb829" stroke="#000" stroke-linejoin="round" stroke-width="0.25"/>
          <circle id="Ellipse_2206" data-name="Ellipse 2206" cx="0.381" cy="0.381" r="0.381" transform="translate(0 2.581)" fill="#ffb829" stroke="#000" stroke-linejoin="round" stroke-width="0.25"/>
          <circle id="Ellipse_2207" data-name="Ellipse 2207" cx="0.381" cy="0.381" r="0.381" transform="translate(7.787 4.794)" fill="#ffb829" stroke="#000" stroke-linejoin="round" stroke-width="0.25"/>
          <circle id="Ellipse_2208" data-name="Ellipse 2208" cx="0.381" cy="0.381" r="0.381" transform="translate(7.502 0.867)" fill="#ffb829" stroke="#000" stroke-linejoin="round" stroke-width="0.25"/>
          <circle id="Ellipse_2209" data-name="Ellipse 2209" cx="0.381" cy="0.381" r="0.381" transform="translate(12.899 6.055)" fill="#ffb829" stroke="#000" stroke-linejoin="round" stroke-width="0.25"/>
          <circle id="Ellipse_2210" data-name="Ellipse 2210" cx="0.381" cy="0.381" r="0.381" transform="translate(10.769 3.471)" fill="#ffb829" stroke="#000" stroke-linejoin="round" stroke-width="0.25"/>
        </g>
      </g>
      <path id="Path_12469" data-name="Path 12469" d="M2530.079,403.582c.295-1.826.931-3.05-.2-4.518a7.01,7.01,0,0,1-1.433-2.592,4.052,4.052,0,0,1,0-1.766,36.688,36.688,0,0,0-5.488-.542c-5.009-.112-9.445.869-10.194,3.081-.848,2.5,2.932,3.962,2.932,3.962-1.744.159-3.407,2.695-.476,4.914,2.569,1.944,9.383,2.062,14.654.834q.42-.481.884-.947C2530.131,405.59,2529.884,404.8,2530.079,403.582Z" transform="translate(-2484.642 -374.763)" fill="#fff6eb" stroke="#000" stroke-miterlimit="10" stroke-width="0.25"/>
      <path id="Path_12470" data-name="Path 12470" d="M2539.693,411.472c-1.738-.56-3.186-.07-3.711-1.882a2.792,2.792,0,0,0-2.962-2.4,2.356,2.356,0,0,1-1.238-.35q-.462.465-.884.947a11.2,11.2,0,0,0-2.537,4.325c-1.092,4.5,3.343,4.094,3.343,4.094,1.843,5.869,8.484,2.862,10.967-2.666A7.316,7.316,0,0,0,2539.693,411.472Z" transform="translate(-2485.663 -375.596)" fill="#fff6eb" stroke="#000" stroke-miterlimit="10" stroke-width="0.25"/>
      <path id="Path_12471" data-name="Path 12471" d="M2539.776,400.137a5.2,5.2,0,0,0-1.716-2.174c-1.931-1.531-5.093-2.616-8.508-3.218a4.052,4.052,0,0,0,0,1.766,7.01,7.01,0,0,0,1.433,2.592c1.127,1.469.491,2.693.2,4.518-.2,1.215.052,2.008.682,2.426,2.448-2.457,5.7-4.461,8.184-4.422A3.624,3.624,0,0,0,2539.776,400.137Z" transform="translate(-2485.746 -374.801)" fill="#ffb829" stroke="#000" stroke-linejoin="round" stroke-width="0.25"/>
      <path id="Path_12472" data-name="Path 12472" d="M2541.879,402.522a3.481,3.481,0,0,0-1.66-.414c-2.488-.039-5.736,1.965-8.184,4.422a2.356,2.356,0,0,0,1.238.35,2.793,2.793,0,0,1,2.962,2.4c.524,1.812,1.972,1.322,3.71,1.882a7.313,7.313,0,0,1,2.979,2.07C2545.408,407.7,2545.1,404.32,2541.879,402.522Z" transform="translate(-2485.915 -375.285)" fill="#ffb829" stroke="#000" stroke-linejoin="round" stroke-width="0.25"/>
      <path id="Path_12473" data-name="Path 12473" d="M2559.672,411.685c-2.742-.266-3.089-.227-4.164.634-.24.193-.507.4-.8.6a15.441,15.441,0,0,0,4.787,7.018c4.486,3.393,7.016-1.38,7.016-1.38s1.783,1.725,3.278.575c.928-.713,1-3.11-.553-5.953a15.514,15.514,0,0,1-6.143-3.109C2562.15,410.833,2562.108,411.921,2559.672,411.685Z" transform="translate(-2487.404 -375.808)" fill="#fff6eb" stroke="#000" stroke-miterlimit="10" stroke-width="0.25"/>
      <path id="Path_12474" data-name="Path 12474" d="M2571.883,399.383h0a14.708,14.708,0,0,0-4.92-.444,5.174,5.174,0,0,0-.059,1.808,3.564,3.564,0,0,0,.265.881,2.871,2.871,0,0,1-1.127,4,2.535,2.535,0,0,0-.856,1.574,2.53,2.53,0,0,1-1.1,1.864,2.558,2.558,0,0,0-.4.269,15.516,15.516,0,0,0,6.143,3.109,5.76,5.76,0,0,0,1.876.087c4.083-.575,2.128-5.578,2.128-5.578C2577.967,406.784,2578.254,401.149,2571.883,399.383Z" transform="translate(-2487.993 -375.074)" fill="#fff6eb" stroke="#000" stroke-miterlimit="10" stroke-width="0.25"/>
      <path id="Path_12475" data-name="Path 12475" d="M2559.594,411.271c2.436.236,2.478-.851,3.417-1.613a22.4,22.4,0,0,1-5.13-5.51c-2.672-1.165-5.183.31-4.1,5.371a16.261,16.261,0,0,0,.849,2.988c.295-.2.563-.41.8-.6C2556.505,411.044,2556.852,411,2559.594,411.271Z" transform="translate(-2487.327 -375.394)" fill="#ffb829" stroke="#000" stroke-linejoin="round" stroke-width="0.25"/>
      <path id="Path_12476" data-name="Path 12476" d="M2566.787,401.63a3.576,3.576,0,0,1-.265-.881,5.18,5.18,0,0,1,.059-1.808,19.071,19.071,0,0,0-7.3,1.822,2.242,2.242,0,0,0-1.115,3.068,22.409,22.409,0,0,0,5.131,5.51,2.542,2.542,0,0,1,.4-.269,2.529,2.529,0,0,0,1.1-1.864,2.536,2.536,0,0,1,.856-1.574A2.87,2.87,0,0,0,2566.787,401.63Z" transform="translate(-2487.616 -375.077)" fill="#ffb829" stroke="#000" stroke-linejoin="round" stroke-width="0.25"/>
    </g>
  </g>
</svg>
