<svg xmlns="http://www.w3.org/2000/svg" width="326.537" height="364.054" viewBox="0 0 326.537 364.054">
  <g id="Group_3793" data-name="Group 3793" transform="translate(-880.473 -789.942)">
    <g id="Group_3691" data-name="Group 3691" transform="translate(890.999 1008.539)">
      <path id="Path_12871" data-name="Path 12871" d="M1149.662,1040.408s4.958,2.38,12.36-1.983,8.725,2.366,17.582,1.315" transform="translate(-874.471 -993.374)" fill="none" stroke="#000" stroke-miterlimit="10" stroke-width="0.25"/>
      <ellipse id="Ellipse_2321" data-name="Ellipse 2321" cx="4.172" cy="2.503" rx="4.172" ry="2.503" transform="translate(89.244 140.326)" fill="#ecb36f" stroke="#000" stroke-linejoin="round" stroke-width="0.25"/>
      <path id="Path_12872" data-name="Path 12872" d="M1012.477,1114.761a12.271,12.271,0,0,0,10.586-.294c7.458-3.49,11.2,1.8,15.611.23" transform="translate(-882.898 -988.687)" fill="none" stroke="#000" stroke-miterlimit="10" stroke-width="0.25"/>
      <path id="Path_12873" data-name="Path 12873" d="M1024.492,1108.251a7.063,7.063,0,0,0,4.986.186c2.852-.891,5.891.962,5.891.962" transform="translate(-882.16 -988.997)" fill="none" stroke="#000" stroke-miterlimit="10" stroke-width="0.25"/>
      <ellipse id="Ellipse_2322" data-name="Ellipse 2322" cx="3.958" cy="2.303" rx="3.958" ry="2.303" transform="translate(21.148 40.958)" fill="#c19165" stroke="#000" stroke-linejoin="round" stroke-width="0.25"/>
      <ellipse id="Ellipse_2323" data-name="Ellipse 2323" cx="2.75" cy="5.114" rx="2.75" ry="5.114" transform="matrix(0.138, -0.99, 0.99, 0.138, 47.826, 101.752)" fill="#c19165" stroke="#000" stroke-linejoin="round" stroke-width="0.25"/>
      <path id="Path_12874" data-name="Path 12874" d="M973.765,1098.515s4.231,5.076,13.96,2.453,15.906-1.371,23.182.753,11.422-1.175,16.753.517" transform="translate(-885.276 -989.592)" fill="none" stroke="#000" stroke-miterlimit="10" stroke-width="0.25"/>
      <path id="Path_12875" data-name="Path 12875" d="M1176.515,1030.382s2.238-2.007,6.128-.645,6.129.086,6.129.086" transform="translate(-872.821 -993.846)" fill="none" stroke="#000" stroke-miterlimit="10" stroke-width="0.25"/>
      <ellipse id="Ellipse_2324" data-name="Ellipse 2324" cx="5.373" cy="2.819" rx="5.373" ry="2.819" transform="translate(209.704 125.43)" fill="#c19165" stroke="#000" stroke-linejoin="round" stroke-width="0.25"/>
      <ellipse id="Ellipse_2325" data-name="Ellipse 2325" cx="3.169" cy="1.816" rx="3.169" ry="1.816" transform="translate(36.584 104.293)" fill="#ecb36f" stroke="#000" stroke-linejoin="round" stroke-width="0.25"/>
      <path id="Path_12876" data-name="Path 12876" d="M1088.251,1091.179s4.265-4.859,13.176-1.07c8.352,3.552,16.308-4.664,27.139,1.09" transform="translate(-878.243 -990.197)" fill="none" stroke="#000" stroke-miterlimit="10" stroke-width="0.25"/>
      <path id="Path_12877" data-name="Path 12877" d="M1151.677,1016.836s3.008,2.524,8.648.86,7.682-.8,10.636.568" transform="translate(-874.347 -994.612)" fill="none" stroke="#000" stroke-miterlimit="10" stroke-width="0.25"/>
      <ellipse id="Ellipse_2326" data-name="Ellipse 2326" cx="4.302" cy="2.42" rx="4.302" ry="2.42" transform="translate(280.79 74.117)" fill="#ecb36f" stroke="#000" stroke-linejoin="round" stroke-width="0.25"/>
      <path id="Path_12878" data-name="Path 12878" d="M898.18,1052.323c3.356-2.065,15.273-.387,20.8-3.872s13.533,1.549,18.18,0,9.423-1.9,13.812,1.308" transform="translate(-889.919 -992.744)" fill="none" stroke="#000" stroke-linejoin="round" stroke-width="0.25"/>
      <path id="Path_12879" data-name="Path 12879" d="M890.4,1046.193c2.066,1.549,7.1-.387,10.585-1.808s5.765,1.808,10.563,0" transform="translate(-890.397 -992.94)" fill="none" stroke="#000" stroke-linejoin="round" stroke-width="0.25"/>
      <path id="Path_12880" data-name="Path 12880" d="M937.646,1109.434a5.6,5.6,0,0,1,5.953-1.2,10.583,10.583,0,0,0,8.611-.42c2.153-.949,5.446,1.916,8.739.42" transform="translate(-887.495 -989.033)" fill="none" stroke="#000" stroke-linejoin="round" stroke-width="0.25"/>
      <path id="Path_12881" data-name="Path 12881" d="M1144.337,1078.128c5.469-2.217,8.722,3.253,19.218,1.479s13.305,1.182,13.305,1.182" transform="translate(-874.798 -990.877)" fill="none" stroke="#000" stroke-linejoin="round" stroke-width="0.25"/>
      <path id="Path_12882" data-name="Path 12882" d="M1147.622,1013.084s1.856-1.856,5.474-.586a9.887,9.887,0,0,0,7.037-.445" transform="translate(-874.596 -994.903)" fill="none" stroke="#000" stroke-linejoin="round" stroke-width="0.25"/>
      <ellipse id="Ellipse_2327" data-name="Ellipse 2327" cx="3.714" cy="2.395" rx="3.714" ry="2.395" transform="translate(287.492)" fill="#ecb36f" stroke="#000" stroke-linejoin="round" stroke-width="0.25"/>
      <ellipse id="Ellipse_2328" data-name="Ellipse 2328" cx="3.248" cy="2.206" rx="3.248" ry="2.206" transform="translate(298.636 6.842)" fill="#ecb36f" stroke="#000" stroke-linejoin="round" stroke-width="0.25"/>
      <ellipse id="Ellipse_2329" data-name="Ellipse 2329" cx="2.381" cy="1.341" rx="2.381" ry="1.341" transform="translate(252.5 89.913)" fill="#ecb36f" stroke="#000" stroke-linejoin="round" stroke-width="0.25"/>
      <ellipse id="Ellipse_2330" data-name="Ellipse 2330" cx="2.301" cy="1.433" rx="2.301" ry="1.433" transform="translate(202.849 118.397)" fill="#ecb36f" stroke="#000" stroke-linejoin="round" stroke-width="0.25"/>
    </g>
    <g id="Group_3696" data-name="Group 3696" transform="translate(928.579 790.06)">
      <g id="Group_3692" data-name="Group 3692" transform="translate(36.247)">
        <path id="Path_12883" data-name="Path 12883" d="M982.839,790.271c3.35-1.541,3.966,5.671,7.508,11.448s12.857,11.925,23.851,26.459,15.652,24.038,14.534,43.6-4.261,42.935-28.777,39.356-36.441-23.984-39.05-37.726,0-30.139,9.5-49.518,9.789-20.254,10.875-24.4S980.548,791.324,982.839,790.271Z" transform="translate(-959.951 -790.06)" fill="#a2c427" stroke="#231815" stroke-miterlimit="10" stroke-width="0.25"/>
        <path id="Path_12884" data-name="Path 12884" d="M981.514,790.259s25.99,80.728,20.521,121.2" transform="translate(-958.627 -790.048)" fill="none" stroke="#000" stroke-miterlimit="10" stroke-width="0.25"/>
        <path id="Path_12885" data-name="Path 12885" d="M978.057,819.821s1.185,45.1,21.825,76.129" transform="translate(-958.839 -788.232)" fill="none" stroke="#000" stroke-miterlimit="10" stroke-width="0.25"/>
        <path id="Path_12886" data-name="Path 12886" d="M969.31,842.537s-.839,34.5,19.178,50.225" transform="translate(-959.376 -786.837)" fill="none" stroke="#000" stroke-miterlimit="10" stroke-width="0.25"/>
        <path id="Path_12887" data-name="Path 12887" d="M998.619,818.674s15.77,40.182,11.508,73.364" transform="translate(-957.576 -788.302)" fill="none" stroke="#000" stroke-miterlimit="10" stroke-width="0.25"/>
        <path id="Path_12888" data-name="Path 12888" d="M1014.44,839.9s4.95,20.409,1.812,35.319" transform="translate(-956.604 -786.999)" fill="none" stroke="#000" stroke-miterlimit="10" stroke-width="0.25"/>
      </g>
      <g id="Group_3693" data-name="Group 3693" transform="translate(186.644 127.567)">
        <path id="Path_12889" data-name="Path 12889" d="M1104.074,950.732s3.744-9.376,21.4-19.359,40.83-12.3,49.922-16.047,9.9-6.369,11.851-4.422-3.772,7.3-5.72,18.255-9.845,52.277-45.215,62.307S1098.168,963.536,1104.074,950.732Z" transform="translate(-1101.645 -910.244)" fill="#a2c427" stroke="#231815" stroke-miterlimit="10" stroke-width="0.25"/>
        <path id="Path_12890" data-name="Path 12890" d="M1118.541,968.72s41.54-15.644,67.663-57.854" transform="translate(-1100.606 -910.206)" fill="none" stroke="#000" stroke-miterlimit="10" stroke-width="0.25"/>
        <path id="Path_12891" data-name="Path 12891" d="M1124.834,969.42c.89.185,30.428-10.338,45.567-27.877" transform="translate(-1100.22 -908.322)" fill="none" stroke="#000" stroke-miterlimit="10" stroke-width="0.25"/>
        <path id="Path_12892" data-name="Path 12892" d="M1153.5,922.8a175.859,175.859,0,0,0-31.487,42.277" transform="translate(-1100.393 -909.473)" fill="none" stroke="#000" stroke-miterlimit="10" stroke-width="0.25"/>
        <path id="Path_12893" data-name="Path 12893" d="M1135.269,929.194s-11.559,12.554-16.728,34.524" transform="translate(-1100.606 -909.08)" fill="none" stroke="#000" stroke-miterlimit="10" stroke-width="0.25"/>
        <path id="Path_12894" data-name="Path 12894" d="M1117.876,941.543a31.42,31.42,0,0,0-3.508,15.544" transform="translate(-1100.865 -908.322)" fill="none" stroke="#000" stroke-miterlimit="10" stroke-width="0.25"/>
        <path id="Path_12895" data-name="Path 12895" d="M1129.423,972.982s13.246.576,28.511-11.262" transform="translate(-1099.938 -907.082)" fill="none" stroke="#000" stroke-miterlimit="10" stroke-width="0.25"/>
        <path id="Path_12896" data-name="Path 12896" d="M1146.376,976.33s-5.521,3.323-15.13,1.662" transform="translate(-1099.826 -906.185)" fill="none" stroke="#000" stroke-miterlimit="10" stroke-width="0.25"/>
      </g>
      <g id="Group_3694" data-name="Group 3694" transform="translate(0 250.057)">
        <path id="Path_12897" data-name="Path 12897" d="M954.69,1037.175s-4.979-.766-12.766,13.4-9.957,24-14.17,28.212-1.276,7.532,5.617,7.532,16.085,3.063,32.17,1.532,30.764-7.276,41.615-21.063,9.7-42.382-19.915-41.1S954.69,1037.175,954.69,1037.175Z" transform="translate(-925.802 -1025.645)" fill="#a2c427" stroke="#231815" stroke-miterlimit="10" stroke-width="0.25"/>
        <path id="Path_12898" data-name="Path 12898" d="M999.452,1031.336s-26.17,43.148-70.848,51.445" transform="translate(-925.63 -1025.295)" fill="none" stroke="#000" stroke-miterlimit="10" stroke-width="0.25"/>
        <path id="Path_12899" data-name="Path 12899" d="M986.058,1035.907s-21.291,7.083-40.977,27.445" transform="translate(-924.618 -1025.015)" fill="none" stroke="#000" stroke-miterlimit="10" stroke-width="0.25"/>
        <path id="Path_12900" data-name="Path 12900" d="M949.771,1047.71a47.471,47.471,0,0,1,25.02-12.766" transform="translate(-924.329 -1025.074)" fill="none" stroke="#000" stroke-miterlimit="10" stroke-width="0.25"/>
        <path id="Path_12901" data-name="Path 12901" d="M956.281,1081.888s30.876-10.978,45.173-50.552" transform="translate(-923.93 -1025.295)" fill="none" stroke="#000" stroke-miterlimit="10" stroke-width="0.25"/>
        <path id="Path_12902" data-name="Path 12902" d="M997.856,1043.724s-.256,19.021-14.17,31.658" transform="translate(-922.246 -1024.534)" fill="none" stroke="#000" stroke-miterlimit="10" stroke-width="0.25"/>
      </g>
      <g id="Group_3695" data-name="Group 3695" transform="translate(72.781 230.518)">
        <path id="Path_12903" data-name="Path 12903" d="M995.412,1024.178s-5.326,30.261,8.1,51.468,26.2,22.068,32.119,28.189,8.63,6.523,12.746-.7,16.458-16.734,12.844-38.424-22.857-58.092-46.993-57.465S995.412,1024.178,995.412,1024.178Z" transform="translate(-994.37 -1007.237)" fill="#a2c427" stroke="#231815" stroke-miterlimit="10" stroke-width="0.25"/>
        <path id="Path_12904" data-name="Path 12904" d="M1027.365,1029.79s-9.363,32.042-5.2,55.553" transform="translate(-992.729 -1005.852)" fill="none" stroke="#000" stroke-miterlimit="10" stroke-width="0.25"/>
        <path id="Path_12905" data-name="Path 12905" d="M1021.751,1010.472s-12.458,33.4-11.21,62.118" transform="translate(-993.383 -1007.039)" fill="none" stroke="#000" stroke-miterlimit="10" stroke-width="0.25"/>
        <path id="Path_12906" data-name="Path 12906" d="M1010.848,1016.859s-7.4,14.8-6.778,28.515" transform="translate(-993.777 -1006.647)" fill="none" stroke="#000" stroke-miterlimit="10" stroke-width="0.25"/>
        <path id="Path_12907" data-name="Path 12907" d="M1030.727,1036.653s13.5,35.668,8.935,69.953" transform="translate(-992.137 -1005.431)" fill="none" stroke="#000" stroke-miterlimit="10" stroke-width="0.25"/>
        <path id="Path_12908" data-name="Path 12908" d="M1040.155,1048.835s10.175,17.653,9.135,34.3" transform="translate(-991.558 -1004.682)" fill="none" stroke="#000" stroke-miterlimit="10" stroke-width="0.25"/>
      </g>
    </g>
    <path id="Path_12909" data-name="Path 12909" d="M1065.381,949.254a5.053,5.053,0,0,1,2.3,2.489" transform="translate(11.351 9.779)" fill="none" stroke="#000" stroke-miterlimit="10" stroke-width="0.25"/>
    <g id="Group_3702" data-name="Group 3702" transform="translate(992.427 817.644)">
      <ellipse id="Ellipse_2331" data-name="Ellipse 2331" cx="67.98" cy="76.9" rx="67.98" ry="76.9" transform="translate(0 125.489) rotate(-67.366)" fill="#f98435" stroke="#000" stroke-linejoin="round" stroke-width="0.25"/>
      <g id="Group_3701" data-name="Group 3701" transform="translate(90.061 23.155)">
        <g id="Group_3697" data-name="Group 3697" transform="translate(21.474 4.064)">
          <path id="Path_12910" data-name="Path 12910" d="M1091.036,844.44s3.025-4.041,9.963-2.325c5.244,1.3,3.763,4.649,12.065,5.646s10.972,6.837,9.076,10.516-7.969,5.2-7.969,5.2l-23.135-10.944Z" transform="translate(-1091.036 -841.691)" fill="#62a542" stroke="#000" stroke-linejoin="round" stroke-width="0.25"/>
          <path id="Path_12911" data-name="Path 12911" d="M1099.736,846.609s-.641,2.565,0,3.367" transform="translate(-1090.519 -841.389)" fill="none" stroke="#000" stroke-miterlimit="10" stroke-width="0.25"/>
          <path id="Path_12912" data-name="Path 12912" d="M1104.824,848.182a8.867,8.867,0,0,0-.8,3.14" transform="translate(-1090.238 -841.292)" fill="none" stroke="#000" stroke-miterlimit="10" stroke-width="0.25"/>
          <path id="Path_12913" data-name="Path 12913" d="M1110.722,849.856s-.8,2.885-2.244,3.446" transform="translate(-1089.965 -841.189)" fill="none" stroke="#000" stroke-miterlimit="10" stroke-width="0.25"/>
          <path id="Path_12914" data-name="Path 12914" d="M1112.932,854.846a4.964,4.964,0,0,0,3.126-2.347" transform="translate(-1089.691 -841.027)" fill="none" stroke="#000" stroke-miterlimit="10" stroke-width="0.25"/>
        </g>
        <g id="Group_3698" data-name="Group 3698">
          <path id="Path_12915" data-name="Path 12915" d="M1095.046,852.866c0-.332,2.4-8.842-5.941-13.275s-13.1,1.1-18.3.767c0,0-.112,1.66,2.324,3.542s-1.011,3.21,4.752,5.424,7.091,6.421,7.091,6.421Z" transform="translate(-1070.804 -837.862)" fill="#62a542" stroke="#000" stroke-linejoin="round" stroke-width="0.25"/>
          <path id="Path_12916" data-name="Path 12916" d="M1080.781,841.027s3.053.266,4.654,1.6" transform="translate(-1070.192 -837.668)" fill="none" stroke="#000" stroke-miterlimit="10" stroke-width="0.25"/>
          <path id="Path_12917" data-name="Path 12917" d="M1081.121,844.959a5.54,5.54,0,0,1,3.111,0" transform="translate(-1070.171 -837.441)" fill="none" stroke="#000" stroke-miterlimit="10" stroke-width="0.25"/>
          <path id="Path_12918" data-name="Path 12918" d="M1082.374,847.666a3.938,3.938,0,0,1,2.2-1.057" transform="translate(-1070.094 -837.325)" fill="none" stroke="#000" stroke-miterlimit="10" stroke-width="0.25"/>
        </g>
        <g id="Group_3699" data-name="Group 3699" transform="translate(45.277 20.326)">
          <path id="Path_12919" data-name="Path 12919" d="M1113.461,859.836a11.513,11.513,0,0,1,9.056-2.725c5.53.721,6.652,3.045,10.979,7.052s4.1,7.554,4.1,7.554a13.019,13.019,0,0,0-8.352-.662c-4.567,1.2-9.3-3.206-10.819-5.048S1113.461,859.836,1113.461,859.836Z" transform="translate(-1113.461 -857.011)" fill="#62a542" stroke="#000" stroke-linejoin="round" stroke-width="0.25"/>
          <path id="Path_12920" data-name="Path 12920" d="M1123.725,859.755a4.738,4.738,0,0,1,2.77,1.224" transform="translate(-1112.831 -856.843)" fill="none" stroke="#000" stroke-miterlimit="10" stroke-width="0.25"/>
          <path id="Path_12921" data-name="Path 12921" d="M1124.834,862.431a3.375,3.375,0,0,1,2.148,1.6" transform="translate(-1112.763 -856.679)" fill="none" stroke="#000" stroke-miterlimit="10" stroke-width="0.25"/>
        </g>
        <g id="Group_3700" data-name="Group 3700" transform="translate(10.95 10.954)">
          <path id="Path_12922" data-name="Path 12922" d="M1081.8,851.113c1.754-3.063,11.6-4.67,15.968,0s7.682,7.532,15.517,7.984,12.653,6.026,12.5,11-13.884-.261-20.635,3.281c0,0-4.76-6.863-11.512-10.073S1078.7,856.523,1081.8,851.113Z" transform="translate(-1081.121 -848.182)" fill="#62a542" stroke="#000" stroke-linejoin="round" stroke-width="0.25"/>
          <path id="Path_12923" data-name="Path 12923" d="M1088.869,855.7a5.171,5.171,0,0,1,4.617-3.2" transform="translate(-1080.645 -847.917)" fill="none" stroke="#000" stroke-miterlimit="10" stroke-width="0.25"/>
          <path id="Path_12924" data-name="Path 12924" d="M1094.549,858.126a9.154,9.154,0,0,1,2.022-2.9" transform="translate(-1080.296 -847.749)" fill="none" stroke="#000" stroke-miterlimit="10" stroke-width="0.25"/>
          <path id="Path_12925" data-name="Path 12925" d="M1100.452,857.958a7.061,7.061,0,0,0-.731,3.167" transform="translate(-1079.98 -847.581)" fill="none" stroke="#000" stroke-miterlimit="10" stroke-width="0.25"/>
          <path id="Path_12926" data-name="Path 12926" d="M1104.46,859.755a13.717,13.717,0,0,1-1.032,6.335" transform="translate(-1079.751 -847.471)" fill="none" stroke="#000" stroke-miterlimit="10" stroke-width="0.25"/>
          <path id="Path_12927" data-name="Path 12927" d="M1109.275,860.295s.534,3.281-.419,5.15" transform="translate(-1079.417 -847.438)" fill="none" stroke="#000" stroke-miterlimit="10" stroke-width="0.25"/>
          <path id="Path_12928" data-name="Path 12928" d="M1112.774,861.193s1.565,1.947,1.412,3.7" transform="translate(-1079.177 -847.383)" fill="none" stroke="#000" stroke-miterlimit="10" stroke-width="0.25"/>
        </g>
      </g>
      <ellipse id="Ellipse_2332" data-name="Ellipse 2332" cx="3.87" cy="2.438" rx="3.87" ry="2.438" transform="matrix(0.75, -0.662, 0.662, 0.75, 72.055, 48.725)" fill="#dffffa" stroke="#231815" stroke-miterlimit="10" stroke-width="0.25"/>
      <ellipse id="Ellipse_2333" data-name="Ellipse 2333" cx="5.829" cy="3.859" rx="5.829" ry="3.859" transform="translate(67.422 63.752) rotate(-60)" fill="#dffffa" stroke="#231815" stroke-miterlimit="10" stroke-width="0.25"/>
      <path id="Path_12929" data-name="Path 12929" d="M1037.255,861.756s7.378-13.015,25.93-14.649" transform="translate(-982.804 -814.139)" fill="none" stroke="#000" stroke-miterlimit="10" stroke-width="0.25"/>
      <path id="Path_12930" data-name="Path 12930" d="M1052.926,846.116a21.658,21.658,0,0,1,7.27-1.17" transform="translate(-981.841 -814.274)" fill="none" stroke="#000" stroke-miterlimit="10" stroke-width="0.25"/>
      <path id="Path_12931" data-name="Path 12931" d="M1129.423,881.6s3.286,9.459,1.294,17.525" transform="translate(-977.142 -812.021)" fill="none" stroke="#000" stroke-miterlimit="10" stroke-width="0.25"/>
      <path id="Path_12932" data-name="Path 12932" d="M1135,878.41c.5,1.495,7.567,17.426-.7,38.039" transform="translate(-976.843 -812.217)" fill="none" stroke="#000" stroke-miterlimit="10" stroke-width="0.25"/>
      <path id="Path_12933" data-name="Path 12933" d="M1140.117,881.6a19.872,19.872,0,0,1,1.992,10.555" transform="translate(-976.486 -812.021)" fill="none" stroke="#000" stroke-miterlimit="10" stroke-width="0.25"/>
      <path id="Path_12934" data-name="Path 12934" d="M1121.552,880.38c0,.5-.6,4.481.5,6.572" transform="translate(-977.636 -812.096)" fill="none" stroke="#000" stroke-miterlimit="10" stroke-width="0.25"/>
      <path id="Path_12935" data-name="Path 12935" d="M1084.449,866.309a8.994,8.994,0,0,0-2.589,4.837" transform="translate(-980.064 -812.96)" fill="none" stroke="#000" stroke-miterlimit="10" stroke-width="0.25"/>
      <ellipse id="Ellipse_2334" data-name="Ellipse 2334" cx="3.485" cy="2.539" rx="3.485" ry="2.539" transform="translate(127.063 114.913) rotate(-57.845)" fill="#dffffa" stroke="#231815" stroke-miterlimit="10" stroke-width="0.25"/>
    </g>
    <g id="Group_3704" data-name="Group 3704" transform="translate(880.598 887.223)">
      <path id="Path_12936" data-name="Path 12936" d="M1041.627,964.816c0,45.96-19.971,89.125-77.869,83.217-48.431-4.942-77.87-37.257-77.87-83.217s23.4-83.216,77.87-83.216C1015.357,881.6,1041.627,918.857,1041.627,964.816Z" transform="translate(-880.273 -881.6)" fill="#f98435" stroke="#000" stroke-linejoin="round" stroke-width="0.25"/>
      <path id="Path_12937" data-name="Path 12937" d="M913.108,950.632c2.468-1.563,2.112-5.47-3.715-8.463-6.024-3.1-9.02-13.161,0-19.794s17.777-4.511,22.817-9.95a3.741,3.741,0,0,0,4.378,1.592c2.918-.929,4.908-2.256,8.623,2.123s10.745,2.785,14.858,9.418-8.092,15.521-3.582,27.727-1.857,40.991-1.857,40.991,6.9,9.154.531,15.919-16.051,7.164-20.429,13.532c0,0-8.092-6.5-17.379-7.163s-12.337-13.665-7.164-18.308,6.736-5,5.709-6.706-3.763,1.232-5.814,3.01-5.679,4.857-10.6,1.368-3.832-21.754-18.882-28.938c0,0,4.947-2.292,7.356-9.71s4.061-10.751,9.153-11.176C902.887,945.624,907.335,954.291,913.108,950.632Z" transform="translate(-880.598 -879.706)" fill="#62a542" stroke="#000" stroke-linejoin="round" stroke-width="0.25"/>
      <path id="Path_12938" data-name="Path 12938" d="M923.805,906.851a16.445,16.445,0,0,1,10.121-8.842" transform="translate(-877.944 -880.592)" fill="none" stroke="#000" stroke-miterlimit="10" stroke-width="0.25"/>
      <path id="Path_12939" data-name="Path 12939" d="M927.418,907.067s4.048-7.458,23.119-12.57" transform="translate(-877.722 -880.808)" fill="none" stroke="#000" stroke-miterlimit="10" stroke-width="0.25"/>
      <path id="Path_12940" data-name="Path 12940" d="M975.4,941.5a10.086,10.086,0,0,1,6.392-2.238" transform="translate(-874.775 -878.058)" fill="none" stroke="#000" stroke-miterlimit="10" stroke-width="0.25"/>
      <path id="Path_12941" data-name="Path 12941" d="M1010.727,946.99a8.585,8.585,0,0,1,3.941,5.859" transform="translate(-872.604 -877.583)" fill="none" stroke="#000" stroke-miterlimit="10" stroke-width="0.25"/>
      <path id="Path_12942" data-name="Path 12942" d="M1015.243,946.086a4.836,4.836,0,0,1,1.918,3.889" transform="translate(-872.327 -877.639)" fill="none" stroke="#000" stroke-miterlimit="10" stroke-width="0.25"/>
      <ellipse id="Ellipse_2335" data-name="Ellipse 2335" cx="3.258" cy="4.062" rx="3.258" ry="4.062" transform="translate(109.491 17.87) rotate(-51.269)" fill="#dffffa" stroke="#231815" stroke-miterlimit="10" stroke-width="0.25"/>
      <ellipse id="Ellipse_2336" data-name="Ellipse 2336" cx="3.897" cy="8.131" rx="3.897" ry="8.131" transform="translate(122.092 24.557) rotate(-46.562)" fill="#dffffa" stroke="#231815" stroke-miterlimit="10" stroke-width="0.25"/>
      <path id="Path_12943" data-name="Path 12943" d="M962.553,1007.245s20.739,10.562,42.919,4.136" transform="translate(-875.564 -873.882)" fill="none" stroke="#000" stroke-miterlimit="10" stroke-width="0.25"/>
      <path id="Path_12944" data-name="Path 12944" d="M952.648,1015.466a17.309,17.309,0,0,0,13.616,5.011" transform="translate(-876.172 -873.377)" fill="none" stroke="#000" stroke-miterlimit="10" stroke-width="0.25"/>
      <path id="Path_12945" data-name="Path 12945" d="M971.16,996.241a16.735,16.735,0,0,0,8.963,0" transform="translate(-875.035 -874.558)" fill="none" stroke="#000" stroke-miterlimit="10" stroke-width="0.25"/>
      <path id="Path_12946" data-name="Path 12946" d="M950.238,951.943c2.11-4.518,10.609-4.987,16.775-1.45s7.8,10.246,8.071,17.953,4.9,8.978,4.9,8.978A12.5,12.5,0,0,0,971,984.043c-3.355,6.076-7.707,17.138-19.042,11.607s-.362-13.154-2.266-19.59-1.269-10.356.635-15.059S948.734,955.165,950.238,951.943Z" transform="translate(-876.535 -877.512)" fill="#62a542" stroke="#000" stroke-linejoin="round" stroke-width="0.25"/>
      <path id="Path_12947" data-name="Path 12947" d="M956.281,955.937s6.433-1.17,9.878,2.079" transform="translate(-875.949 -877.046)" fill="none" stroke="#000" stroke-miterlimit="10" stroke-width="0.25"/>
      <path id="Path_12948" data-name="Path 12948" d="M954.628,962.378s8.708-2.209,12.671,3.444" transform="translate(-876.051 -876.664)" fill="none" stroke="#000" stroke-miterlimit="10" stroke-width="0.25"/>
      <path id="Path_12949" data-name="Path 12949" d="M955.118,970.72s5.588-1.936,9.682.591" transform="translate(-876.02 -876.169)" fill="none" stroke="#000" stroke-miterlimit="10" stroke-width="0.25"/>
      <path id="Path_12950" data-name="Path 12950" d="M955.118,977.253a9.507,9.507,0,0,0,8.188-.391" transform="translate(-876.02 -875.748)" fill="none" stroke="#000" stroke-miterlimit="10" stroke-width="0.25"/>
      <path id="Path_12951" data-name="Path 12951" d="M952.853,983.046s4.483,2.273,8.22,0" transform="translate(-876.16 -875.368)" fill="none" stroke="#000" stroke-miterlimit="10" stroke-width="0.25"/>
      <path id="Path_12952" data-name="Path 12952" d="M916.195,952.51s-9.124,13.386,0,27.579" transform="translate(-878.661 -877.244)" fill="none" stroke="#000" stroke-miterlimit="10" stroke-width="0.25"/>
      <path id="Path_12953" data-name="Path 12953" d="M916.506,945.109s15.931-7.822,29.835,1.23" transform="translate(-878.392 -877.892)" fill="none" stroke="#000" stroke-miterlimit="10" stroke-width="0.25"/>
      <path id="Path_12954" data-name="Path 12954" d="M920.054,986.747c.434.29,11.543,6.38,22.882-1.152" transform="translate(-878.174 -875.212)" fill="none" stroke="#000" stroke-miterlimit="10" stroke-width="0.25"/>
      <path id="Path_12955" data-name="Path 12955" d="M933.425,954.888s10.573.017,11.876,10.58-5.938,14.475-5.938,14.475" transform="translate(-877.353 -877.098)" fill="none" stroke="#000" stroke-miterlimit="10" stroke-width="0.25"/>
      <path id="Path_12956" data-name="Path 12956" d="M923.055,960.257s-4.634,6.612-.869,16.025,12.021,7.531,12.021,7.531" transform="translate(-878.134 -876.768)" fill="none" stroke="#000" stroke-miterlimit="10" stroke-width="0.25"/>
      <g id="Group_3703" data-name="Group 3703" transform="translate(45.451 67.065)">
        <path id="Path_12957" data-name="Path 12957" d="M924.358,946.964s-1.414,9,2.481,16.632,3.547,9.779,6.747,9.333a5.172,5.172,0,0,0,4.1-6.567s-3.964-1.043-5.773-7.164-1.12-9.28-1.12-9.28Z" transform="translate(-923.377 -944.65)" fill="#ddd658" stroke="#000" stroke-linejoin="round" stroke-width="0.25"/>
        <ellipse id="Ellipse_2337" data-name="Ellipse 2337" cx="2.036" cy="3.714" rx="2.036" ry="3.714" transform="matrix(0.595, -0.804, 0.804, 0.595, 0, 3.275)" fill="#62a542" stroke="#000" stroke-linejoin="round" stroke-width="0.25"/>
      </g>
      <path id="Path_12958" data-name="Path 12958" d="M927.374,970.011a4.336,4.336,0,0,0,1.977,4.186" transform="translate(-877.726 -876.169)" fill="none" stroke="#000" stroke-miterlimit="10" stroke-width="0.25"/>
      <path id="Path_12959" data-name="Path 12959" d="M935.882,961.176c.348.07,4.313,0,5.356,5.008,1.073,5.152-2.087,8.764-5.842,10.225" transform="translate(-877.232 -876.712)" fill="none" stroke="#000" stroke-miterlimit="10" stroke-width="0.25"/>
      <path id="Path_12960" data-name="Path 12960" d="M918.987,994.318s-2.9,2.379-1.3,7.109" transform="translate(-878.349 -874.676)" fill="none" stroke="#000" stroke-miterlimit="10" stroke-width="0.25"/>
      <path id="Path_12961" data-name="Path 12961" d="M924.758,994.318s-2.747,8.177,1.373,12.6" transform="translate(-877.941 -874.676)" fill="none" stroke="#000" stroke-miterlimit="10" stroke-width="0.25"/>
      <path id="Path_12962" data-name="Path 12962" d="M931.319,995.625a13.514,13.514,0,0,1,.687,11.674" transform="translate(-877.482 -874.596)" fill="none" stroke="#000" stroke-miterlimit="10" stroke-width="0.25"/>
      <path id="Path_12963" data-name="Path 12963" d="M937.716,994.318c0,.09,3.662,2.914,2.289,8.788" transform="translate(-877.089 -874.676)" fill="none" stroke="#000" stroke-miterlimit="10" stroke-width="0.25"/>
      <path id="Path_12964" data-name="Path 12964" d="M942.963,993.612a8.546,8.546,0,0,1,2.519,5.144" transform="translate(-876.767 -874.719)" fill="none" stroke="#000" stroke-miterlimit="10" stroke-width="0.25"/>
      <path id="Path_12965" data-name="Path 12965" d="M908,980.1s-.3,3.395-4.5,4.139" transform="translate(-879.191 -875.549)" fill="none" stroke="#000" stroke-miterlimit="10" stroke-width="0.25"/>
      <path id="Path_12966" data-name="Path 12966" d="M899.332,979.337a7.137,7.137,0,0,0,6.676-2.976" transform="translate(-879.447 -875.779)" fill="none" stroke="#000" stroke-miterlimit="10" stroke-width="0.25"/>
      <path id="Path_12967" data-name="Path 12967" d="M894.588,972.633s6.332,1.4,9.766-1.4" transform="translate(-879.739 -876.094)" fill="none" stroke="#000" stroke-miterlimit="10" stroke-width="0.25"/>
      <path id="Path_12968" data-name="Path 12968" d="M891.066,964.07s7.4,3.93,13.962,1.622" transform="translate(-879.955 -876.534)" fill="none" stroke="#000" stroke-miterlimit="10" stroke-width="0.25"/>
      <path id="Path_12969" data-name="Path 12969" d="M893.726,955.732s3.509,3.509,8.087,2.594" transform="translate(-879.792 -877.046)" fill="none" stroke="#000" stroke-miterlimit="10" stroke-width="0.25"/>
      <path id="Path_12970" data-name="Path 12970" d="M894.588,950.7s4.884-.534,7.935,2.9" transform="translate(-879.739 -877.357)" fill="none" stroke="#000" stroke-miterlimit="10" stroke-width="0.25"/>
      <path id="Path_12971" data-name="Path 12971" d="M910.067,926.272s-2.589,7.507,2.675,11.563" transform="translate(-878.827 -878.856)" fill="none" stroke="#000" stroke-miterlimit="10" stroke-width="0.25"/>
      <path id="Path_12972" data-name="Path 12972" d="M916.535,934.122s-2.127-7.336,2.447-10.615" transform="translate(-878.421 -879.026)" fill="none" stroke="#000" stroke-miterlimit="10" stroke-width="0.25"/>
      <path id="Path_12973" data-name="Path 12973" d="M928.93,919.361a14.568,14.568,0,0,0-2.589,14.153" transform="translate(-877.841 -879.281)" fill="none" stroke="#000" stroke-miterlimit="10" stroke-width="0.25"/>
      <path id="Path_12974" data-name="Path 12974" d="M934.051,917.9a16.949,16.949,0,0,1-.626,15.707" transform="translate(-877.353 -879.37)" fill="none" stroke="#000" stroke-miterlimit="10" stroke-width="0.25"/>
      <path id="Path_12975" data-name="Path 12975" d="M941.643,922.532s2.5,8.37-2.549,12.513" transform="translate(-877.005 -879.086)" fill="none" stroke="#000" stroke-miterlimit="10" stroke-width="0.25"/>
      <path id="Path_12976" data-name="Path 12976" d="M949.2,927.491c0,.259,2.006,5.7-2.449,9.665" transform="translate(-876.535 -878.781)" fill="none" stroke="#000" stroke-miterlimit="10" stroke-width="0.25"/>
    </g>
    <g id="Group_3705" data-name="Group 3705" transform="translate(1026.279 944.603)">
      <path id="Path_12977" data-name="Path 12977" d="M1063.727,1028.438c-25.8-32.354-20.416-76.306-1.875-87.99-26.08,12.12-44,37.219-44,66.234,0,40.859,35.525,73.98,79.348,73.98a83.164,83.164,0,0,0,42.633-11.6C1117.556,1078.145,1085.128,1055.276,1063.727,1028.438Z" transform="translate(-1017.848 -935.365)" fill="#f98435" stroke="#000" stroke-linejoin="round" stroke-width="0.25"/>
      <path id="Path_12978" data-name="Path 12978" d="M1140.31,977.743c-18.874-29.151-45.967-45.06-67.589-41.621a33.592,33.592,0,0,0-12.163,4.389c-.117.071-.227.158-.343.231-18.541,11.684-23.926,55.636,1.875,87.99,21.4,26.837,53.829,49.707,76.1,40.624a25.988,25.988,0,0,0,4.325-2.258,30.121,30.121,0,0,0,5.728-4.823C1164.191,1045.083,1160.771,1009.345,1140.31,977.743Z" transform="translate(-1016.211 -935.659)" fill="#ffc064" stroke="#000" stroke-linejoin="round" stroke-width="0.25"/>
      <path id="Path_12979" data-name="Path 12979" d="M1026.037,997.057s-.032-12.873,8.35-22.612" transform="translate(-1017.345 -933.276)" fill="none" stroke="#000" stroke-miterlimit="10" stroke-width="0.25"/>
      <path id="Path_12980" data-name="Path 12980" d="M1034.592,985.6a9.86,9.86,0,0,0-1.849,5.055" transform="translate(-1016.933 -932.592)" fill="none" stroke="#000" stroke-miterlimit="10" stroke-width="0.25"/>
      <ellipse id="Ellipse_2338" data-name="Ellipse 2338" cx="2.622" cy="9.611" rx="2.622" ry="9.611" transform="translate(65.773 40.75) rotate(-34.486)" fill="#f98435" stroke="#000" stroke-linejoin="round" stroke-width="0.25"/>
      <ellipse id="Ellipse_2339" data-name="Ellipse 2339" cx="9.611" cy="2.622" rx="9.611" ry="2.622" transform="translate(58.038 64.304)" fill="#f98435" stroke="#000" stroke-linejoin="round" stroke-width="0.25"/>
      <ellipse id="Ellipse_2340" data-name="Ellipse 2340" cx="9.611" cy="2.622" rx="9.611" ry="2.622" transform="matrix(0.574, -0.819, 0.819, 0.574, 70.562, 90.075)" fill="#f98435" stroke="#000" stroke-linejoin="round" stroke-width="0.25"/>
      <ellipse id="Ellipse_2341" data-name="Ellipse 2341" cx="2.237" cy="8.207" rx="2.237" ry="8.207" transform="translate(89.237 78.538)" fill="#f98435" stroke="#000" stroke-linejoin="round" stroke-width="0.25"/>
      <ellipse id="Ellipse_2342" data-name="Ellipse 2342" cx="9.217" cy="2.158" rx="9.217" ry="2.158" transform="translate(85.216 56.301) rotate(-84.546)" fill="#f98435" stroke="#000" stroke-linejoin="round" stroke-width="0.25"/>
      <ellipse id="Ellipse_2343" data-name="Ellipse 2343" cx="2.293" cy="10.377" rx="2.293" ry="10.377" transform="translate(94.875 78.994) rotate(-45)" fill="#f98435" stroke="#000" stroke-linejoin="round" stroke-width="0.25"/>
      <ellipse id="Ellipse_2344" data-name="Ellipse 2344" cx="8.238" cy="2.438" rx="8.238" ry="2.438" transform="translate(93.435 59.563) rotate(-39.225)" fill="#f98435" stroke="#000" stroke-linejoin="round" stroke-width="0.25"/>
      <ellipse id="Ellipse_2345" data-name="Ellipse 2345" cx="2.537" cy="9.681" rx="2.537" ry="9.681" transform="matrix(0.219, -0.976, 0.976, 0.219, 97.749, 72.387)" fill="#f98435" stroke="#000" stroke-linejoin="round" stroke-width="0.25"/>
      <path id="Path_12981" data-name="Path 12981" d="M1094.2,996.465a3.718,3.718,0,0,1,3.74-3.853c1.73.168,3.294-.782,5.024,2.233s3.852,7.257,2.29,8.541-1.912,2.624-5.254,1.619-3.455-2.345-4.125-4.075S1094.255,997.863,1094.2,996.465Z" transform="translate(-1013.158 -932.161)" fill="#fff6eb" stroke="#000" stroke-miterlimit="10" stroke-width="0.25"/>
      <ellipse id="Ellipse_2346" data-name="Ellipse 2346" cx="0.367" cy="0.6" rx="0.367" ry="0.6" transform="translate(83.866 63.138) rotate(-60)" fill="#f98435" stroke="#000" stroke-linejoin="round" stroke-width="0.25"/>
      <ellipse id="Ellipse_2347" data-name="Ellipse 2347" cx="0.6" cy="0.367" rx="0.6" ry="0.367" transform="translate(83.486 65.352) rotate(-2.389)" fill="#f98435" stroke="#000" stroke-linejoin="round" stroke-width="0.25"/>
      <ellipse id="Ellipse_2348" data-name="Ellipse 2348" cx="0.6" cy="0.367" rx="0.6" ry="0.367" transform="matrix(0.816, -0.579, 0.579, 0.816, 84.468, 68.034)" fill="#f98435" stroke="#000" stroke-linejoin="round" stroke-width="0.25"/>
      <ellipse id="Ellipse_2349" data-name="Ellipse 2349" cx="0.6" cy="0.367" rx="0.6" ry="0.367" transform="translate(86.051 70.866) rotate(-67.366)" fill="#f98435" stroke="#000" stroke-linejoin="round" stroke-width="0.25"/>
      <ellipse id="Ellipse_2350" data-name="Ellipse 2350" cx="0.6" cy="0.367" rx="0.6" ry="0.367" transform="matrix(0.674, -0.738, 0.738, 0.674, 87.965, 64.029)" fill="#f98435" stroke="#000" stroke-linejoin="round" stroke-width="0.25"/>
      <ellipse id="Ellipse_2351" data-name="Ellipse 2351" cx="0.6" cy="0.367" rx="0.6" ry="0.367" transform="translate(88.726 66.02) rotate(-24.855)" fill="#f98435" stroke="#000" stroke-linejoin="round" stroke-width="0.25"/>
      <ellipse id="Ellipse_2352" data-name="Ellipse 2352" cx="0.367" cy="0.6" rx="0.367" ry="0.6" transform="translate(89.934 69.173) rotate(-81.677)" fill="#f98435" stroke="#000" stroke-linejoin="round" stroke-width="0.25"/>
      <ellipse id="Ellipse_2353" data-name="Ellipse 2353" cx="0.367" cy="0.6" rx="0.367" ry="0.6" transform="translate(88.718 70.553) rotate(-16.027)" fill="#f98435" stroke="#000" stroke-linejoin="round" stroke-width="0.25"/>
      <ellipse id="Ellipse_2354" data-name="Ellipse 2354" cx="0.6" cy="0.367" rx="0.6" ry="0.367" transform="translate(86.39 63.224) rotate(-81.677)" fill="#f98435" stroke="#000" stroke-linejoin="round" stroke-width="0.25"/>
      <path id="Path_12982" data-name="Path 12982" d="M1071.465,1062.23c.363,0,10.366,3.625,21.316-.846" transform="translate(-1014.555 -927.936)" fill="none" stroke="#000" stroke-miterlimit="10" stroke-width="0.25"/>
      <path id="Path_12983" data-name="Path 12983" d="M1073.742,1057.4a8.357,8.357,0,0,0,6.284.846" transform="translate(-1014.415 -928.181)" fill="none" stroke="#000" stroke-miterlimit="10" stroke-width="0.25"/>
      <path id="Path_12984" data-name="Path 12984" d="M1088.542,1066.25s3.626.241,5.922-1.45" transform="translate(-1013.506 -927.726)" fill="none" stroke="#000" stroke-miterlimit="10" stroke-width="0.25"/>
      <path id="Path_12985" data-name="Path 12985" d="M1104.437,1038.878a29.562,29.562,0,0,1-.409,7.488" transform="translate(-1012.554 -929.318)" fill="none" stroke="#000" stroke-miterlimit="10" stroke-width="0.25"/>
      <path id="Path_12986" data-name="Path 12986" d="M1101.616,1036.653a11.975,11.975,0,0,1,0,3.711" transform="translate(-1012.702 -929.455)" fill="none" stroke="#000" stroke-miterlimit="10" stroke-width="0.25"/>
      <path id="Path_12987" data-name="Path 12987" d="M1123.927,1040.848s1.282,1.282,1.956,5.4" transform="translate(-1011.332 -929.197)" fill="none" stroke="#000" stroke-miterlimit="10" stroke-width="0.25"/>
      <path id="Path_12988" data-name="Path 12988" d="M1126.045,1038.922a15.855,15.855,0,0,1,3.081,8.993" transform="translate(-1011.202 -929.316)" fill="none" stroke="#000" stroke-miterlimit="10" stroke-width="0.25"/>
      <path id="Path_12989" data-name="Path 12989" d="M1139.042,1014.836a10.282,10.282,0,0,1,2.831,1.123" transform="translate(-1010.403 -930.795)" fill="none" stroke="#000" stroke-miterlimit="10" stroke-width="0.25"/>
      <path id="Path_12990" data-name="Path 12990" d="M1139.777,1016.859a4.919,4.919,0,0,1,2.684,1.318" transform="translate(-1010.358 -930.671)" fill="none" stroke="#000" stroke-miterlimit="10" stroke-width="0.25"/>
      <path id="Path_12991" data-name="Path 12991" d="M1074.1,1022.059a5.884,5.884,0,0,1,2.176-1.872" transform="translate(-1014.392 -930.467)" fill="none" stroke="#000" stroke-miterlimit="10" stroke-width="0.25"/>
      <path id="Path_12992" data-name="Path 12992" d="M1055.487,983.351a9.982,9.982,0,0,0,3.928,0" transform="translate(-1015.536 -932.729)" fill="none" stroke="#000" stroke-miterlimit="10" stroke-width="0.25"/>
      <path id="Path_12993" data-name="Path 12993" d="M1063.036,950.679a6.915,6.915,0,0,0,2.772,2.3" transform="translate(-1015.072 -934.736)" fill="none" stroke="#000" stroke-miterlimit="10" stroke-width="0.25"/>
      <ellipse id="Ellipse_2355" data-name="Ellipse 2355" cx="2.938" cy="5.149" rx="2.938" ry="5.149" transform="matrix(0.754, -0.657, 0.657, 0.754, 76.373, 11.558)" fill="#dffffa" stroke="#231815" stroke-miterlimit="10" stroke-width="0.25"/>
      <ellipse id="Ellipse_2356" data-name="Ellipse 2356" cx="3.452" cy="7.506" rx="3.452" ry="7.506" transform="matrix(0.754, -0.657, 0.657, 0.754, 88.857, 18.397)" fill="#dffffa" stroke="#231815" stroke-miterlimit="10" stroke-width="0.25"/>
    </g>
  </g>
</svg>
