<svg xmlns="http://www.w3.org/2000/svg" width="347.914" height="353.387" viewBox="0 0 347.914 353.387">
  <g id="Group_3772" data-name="Group 3772" transform="translate(-114.164 -1829.928)">
    <g id="Group_3772-2" data-name="Group 3772" transform="translate(130.334 1913.481)">
      <path id="Path_13537" data-name="Path 13537" d="M131.794,1915.9s33.681,21.4,56.038,70.159" transform="translate(-130.264 -1913.139)" fill="none" stroke="#252f33" stroke-miterlimit="10" stroke-width="0.25"/>
      <path id="Path_13538" data-name="Path 13538" d="M130.27,1920.2s9.408,7.943,16.365,7.764" transform="translate(-130.27 -1913.122)" fill="none" stroke="#252f33" stroke-miterlimit="10" stroke-width="0.25"/>
      <path id="Path_13539" data-name="Path 13539" d="M139.15,1913.15s5.943,4.121,7.45,14.847" transform="translate(-130.235 -1913.15)" fill="none" stroke="#252f33" stroke-miterlimit="10" stroke-width="0.25"/>
      <path id="Path_13540" data-name="Path 13540" d="M157.226,1923.319s4.3,9.7,1.572,17.466" transform="translate(-130.163 -1913.109)" fill="none" stroke="#252f33" stroke-miterlimit="10" stroke-width="0.25"/>
      <path id="Path_13541" data-name="Path 13541" d="M132.649,1940.845s10.055,5.336,26.247-.13" transform="translate(-130.261 -1913.04)" fill="none" stroke="#252f33" stroke-miterlimit="10" stroke-width="0.25"/>
      <path id="Path_13542" data-name="Path 13542" d="M131.505,1951.352s19.25,5.043,27.4-10.636" transform="translate(-130.265 -1913.04)" fill="none" stroke="#252f33" stroke-miterlimit="10" stroke-width="0.25"/>
      <path id="Path_13543" data-name="Path 13543" d="M165.594,1917.029s3.561,17.271-6.8,23.781" transform="translate(-130.156 -1913.134)" fill="none" stroke="#252f33" stroke-miterlimit="10" stroke-width="0.25"/>
      <path id="Path_13544" data-name="Path 13544" d="M160.431,1958.939a24.359,24.359,0,0,0,15.939,5.729" transform="translate(-130.15 -1912.967)" fill="none" stroke="#252f33" stroke-miterlimit="10" stroke-width="0.25"/>
      <path id="Path_13545" data-name="Path 13545" d="M177.636,1949.224s3.231,10.564-1.329,15.482" transform="translate(-130.086 -1913.006)" fill="none" stroke="#252f33" stroke-miterlimit="10" stroke-width="0.25"/>
      <path id="Path_13546" data-name="Path 13546" d="M147.708,1967.228s12.021,7.409,28.713-2.583" transform="translate(-130.2 -1912.945)" fill="none" stroke="#252f33" stroke-miterlimit="10" stroke-width="0.25"/>
      <path id="Path_13547" data-name="Path 13547" d="M185.376,1947.992s3.251,11.941-9.069,16.719" transform="translate(-130.086 -1913.011)" fill="none" stroke="#252f33" stroke-miterlimit="10" stroke-width="0.25"/>
      <path id="Path_13548" data-name="Path 13548" d="M149.693,1979.69s19.492,1.251,26.72-15.045" transform="translate(-130.193 -1912.945)" fill="none" stroke="#252f33" stroke-miterlimit="10" stroke-width="0.25"/>
    </g>
    <g id="Group_3773" data-name="Group 3773" transform="translate(364.06 2013.795)">
      <path id="Path_13549" data-name="Path 13549" d="M364.893,2013.066a4.826,4.826,0,0,1,4.394,2.805" transform="translate(-363.061 -2013.065)" fill="none" stroke="#252f33" stroke-miterlimit="10" stroke-width="0.25"/>
      <ellipse id="Ellipse_2496" data-name="Ellipse 2496" cx="6.458" cy="5.268" rx="6.458" ry="5.268" transform="matrix(0.964, -0.265, 0.265, 0.964, 0, 4.518)" fill="#e86a58" stroke="#000" stroke-linejoin="round" stroke-width="0.25"/>
      <path id="Path_13550" data-name="Path 13550" d="M373.922,2018.064s-.546-1.894-4.255-2.3" transform="translate(-363.042 -2013.055)" fill="none" stroke="#252f33" stroke-miterlimit="10" stroke-width="0.25"/>
      <path id="Path_13551" data-name="Path 13551" d="M366.7,2020.052a4.115,4.115,0,0,1,2.062-4.029" transform="translate(-363.053 -2013.053)" fill="none" stroke="#252f33" stroke-miterlimit="10" stroke-width="0.25"/>
      <path id="Path_13552" data-name="Path 13552" d="M371.55,2018.489a4,4,0,0,0-2.28-2.629" transform="translate(-363.043 -2013.054)" fill="none" stroke="#252f33" stroke-miterlimit="10" stroke-width="0.25"/>
      <path id="Path_13553" data-name="Path 13553" d="M368.75,2019.259a3.719,3.719,0,0,1,.523-3.4" transform="translate(-363.046 -2013.054)" fill="none" stroke="#252f33" stroke-miterlimit="10" stroke-width="0.25"/>
    </g>
    <path id="Path_13554" data-name="Path 13554" d="M142.995,2058.568s3.608,4.17,10.039,1.39,10.165.088,11.556,2.173" transform="translate(0.114 0.911)" fill="none" stroke="#252f33" stroke-miterlimit="10" stroke-width="0.25"/>
    <path id="Path_13555" data-name="Path 13555" d="M133,2065.319a9.833,9.833,0,0,0,10.426,1.65c6-2.606,8.776-1.3,11.122,1.477s8.515,1.825,10.079-2.433" transform="translate(0.075 0.938)" fill="none" stroke="#252f33" stroke-miterlimit="10" stroke-width="0.25"/>
    <path id="Path_13556" data-name="Path 13556" d="M154.465,2084.327s9.732,11.855,24.676,4.9L194.085,1973.5S165.586,2031.808,154.465,2084.327Z" transform="translate(0.16 0.572)" fill="#ddd658" stroke="#000" stroke-linejoin="round" stroke-width="0.25"/>
    <g id="Group_3774" data-name="Group 3774" transform="translate(202.729 1876.039)">
      <path id="Path_13557" data-name="Path 13557" d="M207.1,2086.831s8.645,6.257,21.7,0c0,0-2.054-80.978,4.284-127.2s-4.437-82.37-8.955-81.675-22.311,45.718-20.882,103.919C204.723,2042.077,202.407,2053.857,207.1,2086.831Z" transform="translate(-202.375 -1875.848)" fill="#cad226" stroke="#231815" stroke-miterlimit="10" stroke-width="0.25"/>
      <path id="Path_13558" data-name="Path 13558" d="M217.184,2019.289c1.923.027,4.045,8.729,3.024,11.069s-6.707,1.87-7.585.082C211.562,2028.285,215.12,2019.261,217.184,2019.289Z" transform="translate(-202.338 -1875.285)" fill="#a5b63d" stroke="#231815" stroke-miterlimit="10" stroke-width="0.25"/>
      <path id="Path_13559" data-name="Path 13559" d="M224.208,2046.2c2.523-.263,6.641,11.1,5.664,14.408s-8.5,3.557-9.922,1.292C218.228,2059.163,221.5,2046.479,224.208,2046.2Z" transform="translate(-202.31 -1875.177)" fill="#a5b63d" stroke="#231815" stroke-miterlimit="10" stroke-width="0.25"/>
      <path id="Path_13560" data-name="Path 13560" d="M206.75,2039.595c2.1-.109,4.915,10.5,3.938,13.477s-6.244,3.342-7.376-.975C202.569,2049.265,204.5,2039.712,206.75,2039.595Z" transform="translate(-202.375 -1875.204)" fill="#a5b63d" stroke="#231815" stroke-miterlimit="10" stroke-width="0.25"/>
      <path id="Path_13561" data-name="Path 13561" d="M206.509,1994.208c2.421-.113,5.7,11.236,4.575,14.409s-7.2,3.557-8.516-1.058C201.705,2004.532,203.911,1994.328,206.509,1994.208Z" transform="translate(-202.378 -1875.385)" fill="#a5b63d" stroke="#231815" stroke-miterlimit="10" stroke-width="0.25"/>
      <path id="Path_13562" data-name="Path 13562" d="M226.062,1875.9c2,.687.474,11.983-1.6,14.479s-7.828-.011-7.979-2.481C216.3,1884.912,223.914,1875.158,226.062,1875.9Z" transform="translate(-202.322 -1875.856)" fill="#a5b63d" stroke="#231815" stroke-miterlimit="10" stroke-width="0.25"/>
      <path id="Path_13563" data-name="Path 13563" d="M227.024,1880.525c2.413.314,3.908,11.2,2.309,13.9s-8.678,1.291-9.543-1.009C218.746,1890.637,224.433,1880.188,227.024,1880.525Z" transform="translate(-202.309 -1875.838)" fill="#a5b63d" stroke="#231815" stroke-miterlimit="10" stroke-width="0.25"/>
      <path id="Path_13564" data-name="Path 13564" d="M219.571,1887.062c2.694.333,4.15,13.542,2.308,16.849s-9.741,1.743-10.662-1.037C210.1,1899.519,216.677,1886.7,219.571,1887.062Z" transform="translate(-202.344 -1875.812)" fill="#a5b63d" stroke="#231815" stroke-miterlimit="10" stroke-width="0.25"/>
      <path id="Path_13565" data-name="Path 13565" d="M224.586,1893.018c2.76.362,4.5,12.677,2.68,15.72s-9.923,1.437-10.918-1.168C215.147,1904.428,221.623,1892.629,224.586,1893.018Z" transform="translate(-202.323 -1875.788)" fill="#a5b63d" stroke="#231815" stroke-miterlimit="10" stroke-width="0.25"/>
      <path id="Path_13566" data-name="Path 13566" d="M225.686,1900.619c2.413.314,3.909,11.2,2.31,13.9s-8.679,1.291-9.544-1.009C217.409,1910.731,223.1,1900.282,225.686,1900.619Z" transform="translate(-202.315 -1875.758)" fill="#a5b63d" stroke="#231815" stroke-miterlimit="10" stroke-width="0.25"/>
      <path id="Path_13567" data-name="Path 13567" d="M215.557,1902.511c3.163.319,6.27,11.1,4.487,13.765s-9.893,2.341-11.377-1.168C207.458,1912.252,212.162,1902.167,215.557,1902.511Z" transform="translate(-202.354 -1875.75)" fill="#a5b63d" stroke="#231815" stroke-miterlimit="10" stroke-width="0.25"/>
    </g>
    <g id="Group_3775" data-name="Group 3775" transform="translate(224.123 1830.055)">
      <path id="Path_13568" data-name="Path 13568" d="M233,1839.528c6.677-1.1,11.583,6.882,15.721,52.794s20.506,153.708,20.506,153.708l-23.1,5.558s-14.435-70.259-19.3-135.251S226.658,1840.572,233,1839.528Z" transform="translate(-223.683 -1830.018)" fill="#ddd658" stroke="#000" stroke-linejoin="round" stroke-width="0.25"/>
      <path id="Path_13569" data-name="Path 13569" d="M240.921,1884.383c2.428-.162,6.016,10.228,4.973,13.181s-8.262,2.957-9.558.87C234.772,1895.914,238.314,1884.557,240.921,1884.383Z" transform="translate(-223.638 -1829.838)" fill="#a5b63d" stroke="#231815" stroke-miterlimit="10" stroke-width="0.25"/>
      <path id="Path_13570" data-name="Path 13570" d="M231.713,1830.064c2.284-.38,6.7,11.337,6,14.835s-7.54,4.077-8.972,1.768C227.012,1843.881,229.26,1830.474,231.713,1830.064Z" transform="translate(-223.669 -1830.055)" fill="#a5b63d" stroke="#231815" stroke-miterlimit="10" stroke-width="0.25"/>
      <path id="Path_13571" data-name="Path 13571" d="M230.58,1840.239c2.224.344,2.817,12.226,1.131,15.165s-7.465,2.611-8-1.254C223.279,1851,228.193,1839.87,230.58,1840.239Z" transform="translate(-223.687 -1830.014)" fill="#a5b63d" stroke="#231815" stroke-miterlimit="10" stroke-width="0.25"/>
      <path id="Path_13572" data-name="Path 13572" d="M247.17,1910.825c2.385-.475,5.943,9.425,5.291,12.49s-6.462,3.939-8.018,2.036C242.565,1923.055,244.608,1911.335,247.17,1910.825Z" transform="translate(-223.607 -1829.733)" fill="#a5b63d" stroke="#231815" stroke-miterlimit="10" stroke-width="0.25"/>
      <path id="Path_13573" data-name="Path 13573" d="M236.093,1837.535c2.211-.832,7.448,9.274,7.381,12.639s-5.5,5.091-7.351,3.268C233.894,1851.242,233.717,1838.43,236.093,1837.535Z" transform="translate(-223.644 -1830.025)" fill="#a5b63d" stroke="#231815" stroke-miterlimit="10" stroke-width="0.25"/>
      <path id="Path_13574" data-name="Path 13574" d="M230.564,1945.764c-2.4.086-3.353,11.533-1.977,14.64s7.141,2.6,8.157.18C237.972,1957.667,233.137,1945.672,230.564,1945.764Z" transform="translate(-223.67 -1829.594)" fill="#a5b63d" stroke="#231815" stroke-miterlimit="10" stroke-width="0.25"/>
      <path id="Path_13575" data-name="Path 13575" d="M232.964,1839.528" transform="translate(-223.65 -1830.017)" fill="#a5b63d" stroke="#231815" stroke-miterlimit="10" stroke-width="0.25"/>
      <path id="Path_13576" data-name="Path 13576" d="M233.073,1844.823c2.4-.365,6.854,9.684,6.063,12.715s-7.983,3.641-9.451,1.671C227.915,1856.83,230.49,1845.215,233.073,1844.823Z" transform="translate(-223.665 -1829.996)" fill="#a5b63d" stroke="#231815" stroke-miterlimit="10" stroke-width="0.25"/>
      <path id="Path_13577" data-name="Path 13577" d="M239.457,1848.434c2.485-.914,7.98,9.132,7.8,12.537s-6.284,5.324-8.278,3.541C236.569,1862.36,236.787,1849.414,239.457,1848.434Z" transform="translate(-223.633 -1829.982)" fill="#a5b63d" stroke="#231815" stroke-miterlimit="10" stroke-width="0.25"/>
      <path id="Path_13578" data-name="Path 13578" d="M227.742,1852.553c2.421-.238,6.335,10.032,5.386,13.018s-7.084,4.1-8.714.841C223.088,1863.759,225.142,1852.809,227.742,1852.553Z" transform="translate(-223.686 -1829.965)" fill="#a5b63d" stroke="#231815" stroke-miterlimit="10" stroke-width="0.25"/>
      <path id="Path_13579" data-name="Path 13579" d="M234.324,1855.743c2.354-.615,7.833,8.912,7.365,12.01s-7.558,4.459-9.224,2.653C230.456,1868.225,231.8,1856.4,234.324,1855.743Z" transform="translate(-223.656 -1829.953)" fill="#a5b63d" stroke="#231815" stroke-miterlimit="10" stroke-width="0.25"/>
      <path id="Path_13580" data-name="Path 13580" d="M242.742,1860.987c2.423-.23,4.954,9.982,3.994,12.964s-6.829,3.26-8.183,1.21C236.919,1872.685,240.142,1861.234,242.742,1860.987Z" transform="translate(-223.63 -1829.932)" fill="#a5b63d" stroke="#231815" stroke-miterlimit="10" stroke-width="0.25"/>
    </g>
    <g id="Group_3776" data-name="Group 3776" transform="translate(291.191 1953.563)">
      <path id="Path_13581" data-name="Path 13581" d="M327.179,2059.488s-7.923,10.088-26.743,7.734c0,0-6.493-45.334-9.946-59.932l8.367-54.217S322.309,2026.063,327.179,2059.488Z" transform="translate(-290.489 -1953.073)" fill="#cad226" stroke="#231815" stroke-miterlimit="10" stroke-width="0.25"/>
      <path id="Path_13582" data-name="Path 13582" d="M301.54,2011.281c1.883-.51,6.41,7.63,6.074,10.264s-6.019,3.748-7.381,2.2C298.588,2021.877,299.516,2011.828,301.54,2011.281Z" transform="translate(-290.454 -1952.841)" fill="#a5b63d" stroke="#231815" stroke-miterlimit="10" stroke-width="0.25"/>
      <path id="Path_13583" data-name="Path 13583" d="M306.846,1983.328c1.624-.645,6.029,8.6,6.134,11.6s-3.9,4.3-5.374,2.59C305.829,1995.459,305.1,1984.021,306.846,1983.328Z" transform="translate(-290.428 -1952.952)" fill="#a5b63d" stroke="#231815" stroke-miterlimit="10" stroke-width="0.25"/>
      <path id="Path_13584" data-name="Path 13584" d="M315.417,2029.505c2.118-.8,7.141,8.847,7.078,12.065s-5.272,4.876-7.042,3.137C313.316,2042.609,313.141,2030.365,315.417,2029.505Z" transform="translate(-290.396 -1952.768)" fill="#a5b63d" stroke="#231815" stroke-miterlimit="10" stroke-width="0.25"/>
    </g>
    <path id="Path_13585" data-name="Path 13585" d="M264.818,2055.923c1.922-.876,6.943,6.929,7.015,9.689s-4.668,4.652-6.37,3.322C263.408,2067.331,262.754,2056.864,264.818,2055.923Z" transform="translate(0.595 0.901)" fill="none" stroke="#252f33" stroke-miterlimit="10" stroke-width="0.25"/>
    <path id="Path_13586" data-name="Path 13586" d="M195.275,1939.985c-2.369.513-1.676,11.009.141,13.561s7.472,1.041,8.135-1.322C204.351,1949.371,197.818,1939.434,195.275,1939.985Z" transform="translate(0.317 0.438)" fill="none" stroke="#252f33" stroke-miterlimit="10" stroke-width="0.25"/>
    <path id="Path_13587" data-name="Path 13587" d="M411.915,2043.837s-34.755,26.694-61.69,34.688" transform="translate(0.94 0.852)" fill="none" stroke="#252f33" stroke-miterlimit="10" stroke-width="0.25"/>
    <path id="Path_13588" data-name="Path 13588" d="M377.4,2046.928s10.063,3.876,13.987,11.037" transform="translate(1.049 0.865)" fill="none" stroke="#252f33" stroke-miterlimit="10" stroke-width="0.25"/>
    <path id="Path_13589" data-name="Path 13589" d="M392.573,2074.45a26.935,26.935,0,0,0-1.243-16.529" transform="translate(1.104 0.908)" fill="none" stroke="#252f33" stroke-miterlimit="10" stroke-width="0.25"/>
    <path id="Path_13590" data-name="Path 13590" d="M383.436,2075.688a18.759,18.759,0,0,0,7.925-17.767" transform="translate(1.073 0.908)" fill="none" stroke="#252f33" stroke-miterlimit="10" stroke-width="0.25"/>
    <path id="Path_13591" data-name="Path 13591" d="M370.779,2051.342s14.72,1.056,20.633,6.6" transform="translate(1.022 0.882)" fill="none" stroke="#252f33" stroke-miterlimit="10" stroke-width="0.25"/>
    <path id="Path_13592" data-name="Path 13592" d="M376.231,2059.073a24.481,24.481,0,0,1,15.159-1.15" transform="translate(1.044 0.905)" fill="none" stroke="#252f33" stroke-miterlimit="10" stroke-width="0.25"/>
    <path id="Path_13593" data-name="Path 13593" d="M394.456,2038.7s-19.806,78.77-111.04,114.219" transform="translate(0.674 0.832)" fill="none" stroke="#252f33" stroke-miterlimit="10" stroke-width="0.25"/>
    <path id="Path_13594" data-name="Path 13594" d="M362.413,2126.747s6.27-18.02-1.753-28.462" transform="translate(0.982 1.069)" fill="none" stroke="#252f33" stroke-miterlimit="10" stroke-width="0.25"/>
    <path id="Path_13595" data-name="Path 13595" d="M338.716,2093.338s12.985-2.329,22.031,4.968" transform="translate(0.895 1.048)" fill="none" stroke="#252f33" stroke-miterlimit="10" stroke-width="0.25"/>
    <path id="Path_13596" data-name="Path 13596" d="M354.1,2116.516s9.419-7.259,6.589-18.231" transform="translate(0.956 1.069)" fill="none" stroke="#252f33" stroke-miterlimit="10" stroke-width="0.25"/>
    <path id="Path_13597" data-name="Path 13597" d="M345.14,2100.618s8.009-4.29,15.582-2.331" transform="translate(0.92 1.067)" fill="none" stroke="#252f33" stroke-miterlimit="10" stroke-width="0.25"/>
    <path id="Path_13598" data-name="Path 13598" d="M328.492,2128.049c6.935,15.5-1.85,25.689-1.85,25.689" transform="translate(0.846 1.188)" fill="none" stroke="#252f33" stroke-miterlimit="10" stroke-width="0.25"/>
    <path id="Path_13599" data-name="Path 13599" d="M321.19,2143.7s9.675-6.156,7.324-15.653" transform="translate(0.825 1.188)" fill="none" stroke="#252f33" stroke-miterlimit="10" stroke-width="0.25"/>
    <path id="Path_13600" data-name="Path 13600" d="M305.417,2115.4s14.952,1.32,23.16,12.695" transform="translate(0.762 1.138)" fill="none" stroke="#252f33" stroke-miterlimit="10" stroke-width="0.25"/>
    <path id="Path_13601" data-name="Path 13601" d="M305.936,2128.058s12.724-5.267,22.639,0" transform="translate(0.764 1.179)" fill="none" stroke="#252f33" stroke-miterlimit="10" stroke-width="0.25"/>
    <path id="Path_13602" data-name="Path 13602" d="M287.243,2128.711s13.147,1.991,21.431,12.041" transform="translate(0.689 1.19)" fill="none" stroke="#252f33" stroke-miterlimit="10" stroke-width="0.25"/>
    <path id="Path_13603" data-name="Path 13603" d="M302.172,2167.5s9.383-5.279,6.443-26.8" transform="translate(0.749 1.238)" fill="none" stroke="#252f33" stroke-miterlimit="10" stroke-width="0.25"/>
    <path id="Path_13604" data-name="Path 13604" d="M290.489,2135.846s11-1.9,18.172,4.879" transform="translate(0.702 1.218)" fill="none" stroke="#252f33" stroke-miterlimit="10" stroke-width="0.25"/>
    <path id="Path_13605" data-name="Path 13605" d="M300.744,2160.595s9.966-7.958,7.876-19.891" transform="translate(0.743 1.238)" fill="none" stroke="#252f33" stroke-miterlimit="10" stroke-width="0.25"/>
    <path id="Path_13606" data-name="Path 13606" d="M281.856,2147.35s9.93-3.628,18.446-2.271" transform="translate(0.668 1.254)" fill="none" stroke="#252f33" stroke-miterlimit="10" stroke-width="0.25"/>
    <path id="Path_13607" data-name="Path 13607" d="M285.3,2156.8s13.294-3.65,14.993-11.72" transform="translate(0.682 1.256)" fill="none" stroke="#252f33" stroke-miterlimit="10" stroke-width="0.25"/>
    <path id="Path_13608" data-name="Path 13608" d="M336.2,2128.258s71.074-1.421,100.094-52.712" transform="translate(0.885 0.979)" fill="none" stroke="#252f33" stroke-miterlimit="10" stroke-width="0.25"/>
    <path id="Path_13609" data-name="Path 13609" d="M336.88,2124.817s5.832-.781,10.418,2.281" transform="translate(0.887 1.175)" fill="none" stroke="#252f33" stroke-miterlimit="10" stroke-width="0.25"/>
    <path id="Path_13610" data-name="Path 13610" d="M337.546,2132.5s8.708-.52,9.75-5.408" transform="translate(0.89 1.184)" fill="none" stroke="#252f33" stroke-miterlimit="10" stroke-width="0.25"/>
    <path id="Path_13611" data-name="Path 13611" d="M352.9,2111.186s8.405.3,15,11.945" transform="translate(0.951 1.121)" fill="none" stroke="#252f33" stroke-miterlimit="10" stroke-width="0.25"/>
    <path id="Path_13612" data-name="Path 13612" d="M356.5,2120.405s8.362-2.244,11.389,2.692" transform="translate(0.965 1.155)" fill="none" stroke="#252f33" stroke-miterlimit="10" stroke-width="0.25"/>
    <path id="Path_13613" data-name="Path 13613" d="M360.66,2138.7s7.006-2.234,7.212-15.62" transform="translate(0.982 1.168)" fill="none" stroke="#252f33" stroke-miterlimit="10" stroke-width="0.25"/>
    <path id="Path_13614" data-name="Path 13614" d="M373.505,2100.607s12.186,4.693,15.575,15.25" transform="translate(1.033 1.078)" fill="none" stroke="#252f33" stroke-miterlimit="10" stroke-width="0.25"/>
    <path id="Path_13615" data-name="Path 13615" d="M380.515,2144.272s12.788-5.243,8.537-28.476" transform="translate(1.061 1.139)" fill="none" stroke="#252f33" stroke-miterlimit="10" stroke-width="0.25"/>
    <path id="Path_13616" data-name="Path 13616" d="M367.209,2108.916s15.74-1.612,21.9,6.908" transform="translate(1.008 1.111)" fill="none" stroke="#252f33" stroke-miterlimit="10" stroke-width="0.25"/>
    <path id="Path_13617" data-name="Path 13617" d="M376.88,2135.084s13.88-6.516,12.186-19.288" transform="translate(1.047 1.139)" fill="none" stroke="#252f33" stroke-miterlimit="10" stroke-width="0.25"/>
    <path id="Path_13618" data-name="Path 13618" d="M358.966,2130.894s5.995-.509,8.912-7.81" transform="translate(0.975 1.168)" fill="none" stroke="#252f33" stroke-miterlimit="10" stroke-width="0.25"/>
    <path id="Path_13619" data-name="Path 13619" d="M378.131,2120.006s-4.453,2.949-4.626,7" transform="translate(1.033 1.156)" fill="none" stroke="#252f33" stroke-miterlimit="10" stroke-width="0.25"/>
    <ellipse id="Ellipse_2497" data-name="Ellipse 2497" cx="8.712" cy="7.609" rx="8.712" ry="7.609" transform="translate(365.826 2128.157)" fill="#e86a58" stroke="#000" stroke-linejoin="round" stroke-width="0.25"/>
    <path id="Path_13620" data-name="Path 13620" d="M368.529,2132a6.688,6.688,0,0,1,4.275-5" transform="translate(1.013 1.184)" fill="none" stroke="#252f33" stroke-miterlimit="10" stroke-width="0.25"/>
    <path id="Path_13621" data-name="Path 13621" d="M377.694,2131.867a4.845,4.845,0,0,0-3.468-4.867" transform="translate(1.036 1.184)" fill="none" stroke="#252f33" stroke-miterlimit="10" stroke-width="0.25"/>
    <path id="Path_13622" data-name="Path 13622" d="M371.3,2132a5.186,5.186,0,0,1,1.933-5.02" transform="translate(1.024 1.184)" fill="none" stroke="#252f33" stroke-miterlimit="10" stroke-width="0.25"/>
    <path id="Path_13623" data-name="Path 13623" d="M375.132,2131.867a6.339,6.339,0,0,0-1.345-4.889" transform="translate(1.034 1.184)" fill="none" stroke="#252f33" stroke-miterlimit="10" stroke-width="0.25"/>
    <path id="Path_13624" data-name="Path 13624" d="M417.321,2098.36a38.544,38.544,0,0,0-25.991-17.031" transform="translate(1.104 1.002)" fill="none" stroke="#252f33" stroke-miterlimit="10" stroke-width="0.25"/>
    <path id="Path_13625" data-name="Path 13625" d="M393.326,2092.99s9.106-4.965,23.987,5.329" transform="translate(1.112 1.043)" fill="none" stroke="#252f33" stroke-miterlimit="10" stroke-width="0.25"/>
    <path id="Path_13626" data-name="Path 13626" d="M212.449,2115.541s83.768,11.731,173.437-34.212" transform="translate(0.391 1.002)" fill="none" stroke="#252f33" stroke-miterlimit="10" stroke-width="0.25"/>
    <path id="Path_13627" data-name="Path 13627" d="M211.756,2110.8s8.735,1.258,11.862,5.582" transform="translate(0.388 1.119)" fill="none" stroke="#252f33" stroke-miterlimit="10" stroke-width="0.25"/>
    <path id="Path_13628" data-name="Path 13628" d="M211.756,2118.855s6.976,1.46,11.862-2.5" transform="translate(0.388 1.141)" fill="none" stroke="#252f33" stroke-miterlimit="10" stroke-width="0.25"/>
    <path id="Path_13629" data-name="Path 13629" d="M219.934,2103.982s11.665,3.005,17.595,12.809" transform="translate(0.421 1.092)" fill="none" stroke="#252f33" stroke-miterlimit="10" stroke-width="0.25"/>
    <path id="Path_13630" data-name="Path 13630" d="M215.91,2125.045s12.577.2,21.635-8.3" transform="translate(0.405 1.143)" fill="none" stroke="#252f33" stroke-miterlimit="10" stroke-width="0.25"/>
    <path id="Path_13631" data-name="Path 13631" d="M240.835,2105.28a31.231,31.231,0,0,1,12.979,11.1" transform="translate(0.504 1.097)" fill="none" stroke="#252f33" stroke-miterlimit="10" stroke-width="0.25"/>
    <path id="Path_13632" data-name="Path 13632" d="M241.224,2127s7.309-.944,12.588-10.67" transform="translate(0.506 1.141)" fill="none" stroke="#252f33" stroke-miterlimit="10" stroke-width="0.25"/>
    <path id="Path_13633" data-name="Path 13633" d="M240.25,2099.035s9.983,3.117,13.566,17.365" transform="translate(0.502 1.072)" fill="none" stroke="#252f33" stroke-miterlimit="10" stroke-width="0.25"/>
    <path id="Path_13634" data-name="Path 13634" d="M240.835,2133.322s9.71-.847,12.979-16.991" transform="translate(0.504 1.141)" fill="none" stroke="#252f33" stroke-miterlimit="10" stroke-width="0.25"/>
    <path id="Path_13635" data-name="Path 13635" d="M262.514,2099.035s11.563,5,14.644,15.311" transform="translate(0.591 1.072)" fill="none" stroke="#252f33" stroke-miterlimit="10" stroke-width="0.25"/>
    <path id="Path_13636" data-name="Path 13636" d="M272.769,2098.465a18.689,18.689,0,0,1,4.348,15.883" transform="translate(0.632 1.07)" fill="none" stroke="#252f33" stroke-miterlimit="10" stroke-width="0.25"/>
    <path id="Path_13637" data-name="Path 13637" d="M263.682,2128.1a16.7,16.7,0,0,0,13.471-13.819" transform="translate(0.595 1.133)" fill="none" stroke="#252f33" stroke-miterlimit="10" stroke-width="0.25"/>
    <path id="Path_13638" data-name="Path 13638" d="M267.382,2132.418s10.075-2.41,9.757-18.133" transform="translate(0.61 1.133)" fill="none" stroke="#252f33" stroke-miterlimit="10" stroke-width="0.25"/>
    <path id="Path_13639" data-name="Path 13639" d="M278.05,2114.166s3.625.333,4.929,3" transform="translate(0.653 1.133)" fill="none" stroke="#252f33" stroke-miterlimit="10" stroke-width="0.25"/>
    <ellipse id="Ellipse_2498" data-name="Ellipse 2498" cx="8.062" cy="7.364" rx="8.062" ry="7.364" transform="matrix(0.766, -0.642, 0.642, 0.766, 277.443, 2123.464)" fill="#e86a58" stroke="#000" stroke-linejoin="round" stroke-width="0.25"/>
    <path id="Path_13640" data-name="Path 13640" d="M282.471,2117.574s-1.446,2.238-.582,6.115" transform="translate(0.667 1.146)" fill="none" stroke="#252f33" stroke-miterlimit="10" stroke-width="0.25"/>
    <path id="Path_13641" data-name="Path 13641" d="M283.649,2116.612a7.321,7.321,0,0,1,6.1.55" transform="translate(0.675 1.141)" fill="none" stroke="#252f33" stroke-miterlimit="10" stroke-width="0.25"/>
    <path id="Path_13642" data-name="Path 13642" d="M284.605,2122.566s-1.833-1.287-1.827-5.279" transform="translate(0.672 1.145)" fill="none" stroke="#252f33" stroke-miterlimit="10" stroke-width="0.25"/>
    <path id="Path_13643" data-name="Path 13643" d="M287.944,2119.928a5.91,5.91,0,0,0-4.7-3.022" transform="translate(0.673 1.143)" fill="none" stroke="#252f33" stroke-miterlimit="10" stroke-width="0.25"/>
    <ellipse id="Ellipse_2499" data-name="Ellipse 2499" cx="7.364" cy="8.062" rx="7.364" ry="8.062" transform="matrix(0.403, -0.915, 0.915, 0.403, 322.404, 2096.898)" fill="#ea6157" stroke="#000" stroke-linejoin="round" stroke-width="0.25"/>
    <path id="Path_13644" data-name="Path 13644" d="M329.531,2099.32s2.645.305,5.74-2.186" transform="translate(0.858 1.065)" fill="none" stroke="#252f33" stroke-miterlimit="10" stroke-width="0.25"/>
    <path id="Path_13645" data-name="Path 13645" d="M328.152,2098.7a7.32,7.32,0,0,1-2.209-5.713" transform="translate(0.844 1.048)" fill="none" stroke="#252f33" stroke-miterlimit="10" stroke-width="0.25"/>
    <path id="Path_13646" data-name="Path 13646" d="M333.06,2095.2s-.342,2.214-3.924,3.976" transform="translate(0.856 1.057)" fill="none" stroke="#252f33" stroke-miterlimit="10" stroke-width="0.25"/>
    <path id="Path_13647" data-name="Path 13647" d="M329.218,2093.382a5.91,5.91,0,0,0-.628,5.554" transform="translate(0.853 1.05)" fill="none" stroke="#252f33" stroke-miterlimit="10" stroke-width="0.25"/>
    <path id="Path_13648" data-name="Path 13648" d="M298.823,2091.325s11.14.49,16.831,15.95" transform="translate(0.736 1.042)" fill="none" stroke="#252f33" stroke-miterlimit="10" stroke-width="0.25"/>
    <path id="Path_13649" data-name="Path 13649" d="M304.444,2125.983s12.818-5.724,11.187-18.771" transform="translate(0.758 1.105)" fill="none" stroke="#252f33" stroke-miterlimit="10" stroke-width="0.25"/>
    <path id="Path_13650" data-name="Path 13650" d="M301,2098.285s10.389-.166,14.642,8.963" transform="translate(0.744 1.069)" fill="none" stroke="#252f33" stroke-miterlimit="10" stroke-width="0.25"/>
    <path id="Path_13651" data-name="Path 13651" d="M305.158,2118.456s8.545-1.014,10.471-11.244" transform="translate(0.761 1.105)" fill="none" stroke="#252f33" stroke-miterlimit="10" stroke-width="0.25"/>
    <path id="Path_13652" data-name="Path 13652" d="M327.127,2104.175a7.292,7.292,0,0,1,1.794-5.141" transform="translate(0.848 1.072)" fill="none" stroke="#252f33" stroke-miterlimit="10" stroke-width="0.25"/>
    <g id="Group_3777" data-name="Group 3777" transform="translate(123.575 2027.32)">
      <ellipse id="Ellipse_2500" data-name="Ellipse 2500" cx="5.222" cy="5.717" rx="5.222" ry="5.717" transform="translate(0 11.736) rotate(-71.672)" fill="#e86a58" stroke="#000" stroke-linejoin="round" stroke-width="0.25"/>
      <path id="Path_13653" data-name="Path 13653" d="M132.645,2030.3a5.968,5.968,0,0,1,1.983,3.878" transform="translate(-123.502 -2026.522)" fill="none" stroke="#252f33" stroke-miterlimit="10" stroke-width="0.25"/>
      <path id="Path_13654" data-name="Path 13654" d="M131.629,2029.976a5.192,5.192,0,0,0-3.877,1.959" transform="translate(-123.521 -2026.523)" fill="none" stroke="#252f33" stroke-miterlimit="10" stroke-width="0.25"/>
      <path id="Path_13655" data-name="Path 13655" d="M132.542,2034.153s.871-1.328-.177-3.958" transform="translate(-123.503 -2026.522)" fill="none" stroke="#252f33" stroke-miterlimit="10" stroke-width="0.25"/>
      <path id="Path_13656" data-name="Path 13656" d="M129.661,2033.287a4.191,4.191,0,0,1,2.309-3.222" transform="translate(-123.514 -2026.523)" fill="none" stroke="#252f33" stroke-miterlimit="10" stroke-width="0.25"/>
      <path id="Path_13657" data-name="Path 13657" d="M133.763,2026.537a5.351,5.351,0,0,0-1.574,3.632" transform="translate(-123.503 -2026.537)" fill="none" stroke="#252f33" stroke-miterlimit="10" stroke-width="0.25"/>
    </g>
    <g id="Group_3778" data-name="Group 3778" transform="translate(194.949 1884.679)">
      <path id="Path_13658" data-name="Path 13658" d="M287.721,2074.949s-3.13,10.905-21.9,10.319c0,0-25.719-42.293-42.054-85.042s-32.67-108.089-24.329-110.174,28.334,47.962,43.014,88.626S287.721,2074.949,287.721,2074.949Z" transform="translate(-194.618 -1884.44)" fill="#ddd658" stroke="#000" stroke-linejoin="round" stroke-width="0.25"/>
      <path id="Path_13659" data-name="Path 13659" d="M220.811,1923.761c1.953-.706,7.648,8.414,7.572,11.477s-6.01,4.7-7.626,3C218.805,1936.185,218.715,1924.52,220.811,1923.761Z" transform="translate(-194.53 -1884.305)" fill="#a5b63d" stroke="#231815" stroke-miterlimit="10" stroke-width="0.25"/>
      <path id="Path_13660" data-name="Path 13660" d="M223.286,1960.236c1.761-.8,7.388,6.163,7.453,8.713s-5.311,4.55-6.87,3.31C221.986,1970.764,221.393,1961.091,223.286,1960.236Z" transform="translate(-194.519 -1884.16)" fill="#a5b63d" stroke="#231815" stroke-miterlimit="10" stroke-width="0.25"/>
      <path id="Path_13661" data-name="Path 13661" d="M196.731,1884.522c2.117-.939,9.315,9.307,9.51,12.868s-6.283,5.83-8.246,3.952C195.626,1899.075,194.458,1885.531,196.731,1884.522Z" transform="translate(-194.625 -1884.462)" fill="#a5b63d" stroke="#231815" stroke-miterlimit="10" stroke-width="0.25"/>
      <path id="Path_13662" data-name="Path 13662" d="M232.6,1993.97c-1.826.366-.78,10.2.76,12.672s5.887,1.33,6.292-.845C240.146,2003.172,234.566,1993.577,232.6,1993.97Z" transform="translate(-194.481 -1884.025)" fill="#a5b63d" stroke="#231815" stroke-miterlimit="10" stroke-width="0.25"/>
      <path id="Path_13663" data-name="Path 13663" d="M198.17,1894.661c2.239-.222,5.779,11.136,4.88,14.4s-6.577,4.391-8.058.781C193.787,1906.906,195.766,1894.9,198.17,1894.661Z" transform="translate(-194.629 -1884.421)" fill="#a5b63d" stroke="#231815" stroke-miterlimit="10" stroke-width="0.25"/>
      <path id="Path_13664" data-name="Path 13664" d="M202.841,1890.662c1.935-1.358,9.527,7.121,10.3,10.4s-4.06,6.3-6.3,5C204.134,1904.484,200.764,1892.121,202.841,1890.662Z" transform="translate(-194.598 -1884.438)" fill="#a5b63d" stroke="#231815" stroke-miterlimit="10" stroke-width="0.25"/>
      <path id="Path_13665" data-name="Path 13665" d="M201.73,1898.475c2.238-.955,9.054,7.667,9.046,10.8s-6.823,5.519-8.736,3.976C199.732,1911.389,199.327,1899.5,201.73,1898.475Z" transform="translate(-194.607 -1884.406)" fill="#a5b63d" stroke="#231815" stroke-miterlimit="10" stroke-width="0.25"/>
      <path id="Path_13666" data-name="Path 13666" d="M198.5,1907.291c2.285-.835,8.638,8.133,8.465,11.261s-5.837,5.738-8.228,2.989C196.788,1919.3,196.044,1908.188,198.5,1907.291Z" transform="translate(-194.619 -1884.371)" fill="#a5b63d" stroke="#231815" stroke-miterlimit="10" stroke-width="0.25"/>
      <path id="Path_13667" data-name="Path 13667" d="M208.817,1900.378c2.179-1.5,9.5,5.953,9.457,10.953-.046,5.072-3.535,5.966-5.91,4.737C209.5,1914.583,206.478,1901.993,208.817,1900.378Z" transform="translate(-194.575 -1884.399)" fill="#a5b63d" stroke="#231815" stroke-miterlimit="10" stroke-width="0.25"/>
      <path id="Path_13668" data-name="Path 13668" d="M205.67,1908.736c2.125-1.184,9.809,6.676,10.129,9.792s-6.206,6.2-8.27,4.87C205.039,1921.788,203.388,1910.007,205.67,1908.736Z" transform="translate(-194.589 -1884.365)" fill="#a5b63d" stroke="#231815" stroke-miterlimit="10" stroke-width="0.25"/>
    </g>
    <g id="Group_3779" data-name="Group 3779" transform="translate(172.285 1836.408)">
      <path id="Path_13669" data-name="Path 13669" d="M179.558,2094.585s12.986,9.508,28.041,1.049c0,0,3.239-38.035,2.543-95s-9.286-118.167-15.244-133.111-14.645-25.719-17.426-24.676-1.042,24.329,2.085,54.217,4.171,93.491,2.781,128.595S179.558,2094.585,179.558,2094.585Z" transform="translate(-172.038 -1836.357)" fill="#cad226" stroke="#231815" stroke-miterlimit="10" stroke-width="0.25"/>
      <path id="Path_13670" data-name="Path 13670" d="M197.044,1947.366c2.076-.014,4.4,10.484,3.307,13.345s-7.235,2.429-8.192.284C191.006,1958.407,194.815,1947.381,197.044,1947.366Z" transform="translate(-171.975 -1835.94)" fill="#a5b63d" stroke="#231815" stroke-miterlimit="10" stroke-width="0.25"/>
      <path id="Path_13671" data-name="Path 13671" d="M200.719,1978.237c1.732-.169,4.535,6.9,3.857,8.956s-5.839,2.232-6.813.825C196.587,1986.321,198.86,1978.419,200.719,1978.237Z" transform="translate(-171.953 -1835.817)" fill="#a5b63d" stroke="#231815" stroke-miterlimit="10" stroke-width="0.25"/>
      <path id="Path_13672" data-name="Path 13672" d="M191.571,2015.087c2.069-.2,5.422,8.312,4.612,10.793s-6.977,2.688-8.141.992C186.636,2024.827,189.349,2015.3,191.571,2015.087Z" transform="translate(-171.992 -1835.67)" fill="#a5b63d" stroke="#231815" stroke-miterlimit="10" stroke-width="0.25"/>
      <path id="Path_13673" data-name="Path 13673" d="M182.712,1925.4c2.422-.239,6.305,10.865,5.346,14.077s-7.036,3.912-8.6-.6C178.433,1935.916,180.111,1925.661,182.712,1925.4Z" transform="translate(-172.026 -1836.027)" fill="#a5b63d" stroke="#231815" stroke-miterlimit="10" stroke-width="0.25"/>
      <path id="Path_13674" data-name="Path 13674" d="M183.267,1967.006c2.422-.239,6.3,10.865,5.346,14.077s-7.036,3.912-8.6-.6C178.988,1977.517,180.666,1967.262,183.267,1967.006Z" transform="translate(-172.024 -1835.862)" fill="#a5b63d" stroke="#231815" stroke-miterlimit="10" stroke-width="0.25"/>
      <path id="Path_13675" data-name="Path 13675" d="M182.41,2040.745c2.916-.271,7.562,12.069,6.4,15.643s-8.478,4.368-10.349-.651C177.236,2052.445,179.28,2041.037,182.41,2040.745Z" transform="translate(-172.03 -1835.568)" fill="#a5b63d" stroke="#231815" stroke-miterlimit="10" stroke-width="0.25"/>
      <path id="Path_13676" data-name="Path 13676" d="M175.562,1836.418c2.12-.73,8.238,9.908,8.137,13.4s-6.542,5.137-8.285,3.13C173.312,1850.527,173.285,1837.2,175.562,1836.418Z" transform="translate(-172.047 -1836.382)" fill="#a5b63d" stroke="#231815" stroke-miterlimit="10" stroke-width="0.25"/>
      <path id="Path_13677" data-name="Path 13677" d="M174.95,1844.907c2.395-.431,7.115,9.495,6.408,12.547s-6.736,4.651-8.619,1.533C171.206,1856.449,172.379,1845.37,174.95,1844.907Z" transform="translate(-172.055 -1836.348)" fill="#a5b63d" stroke="#231815" stroke-miterlimit="10" stroke-width="0.25"/>
      <path id="Path_13678" data-name="Path 13678" d="M180.289,1840.457c2.186-1.015,8.033,8.039,8.153,11.239s-5.272,5.39-7.237,3.848C178.835,1853.684,177.943,1841.547,180.289,1840.457Z" transform="translate(-172.027 -1836.366)" fill="#a5b63d" stroke="#231815" stroke-miterlimit="10" stroke-width="0.25"/>
      <path id="Path_13679" data-name="Path 13679" d="M177.677,1846.284c2.263-.9,9.244,9.49,9.259,13.055s-6.878,5.709-8.831,3.791C175.75,1860.816,175.247,1847.248,177.677,1846.284Z" transform="translate(-172.038 -1836.343)" fill="#a5b63d" stroke="#231815" stroke-miterlimit="10" stroke-width="0.25"/>
      <path id="Path_13680" data-name="Path 13680" d="M174.95,1858.407c2.395-.431,7.115,9.495,6.408,12.547s-6.736,4.651-8.619,1.533C171.206,1869.949,172.379,1858.87,174.95,1858.407Z" transform="translate(-172.055 -1836.294)" fill="#a5b63d" stroke="#231815" stroke-miterlimit="10" stroke-width="0.25"/>
      <path id="Path_13681" data-name="Path 13681" d="M184.82,1848.726c2.178-1.033,8.484,9.218,8.736,12.763s-5.135,5.747-7.194,3.962C183.879,1863.3,182.48,1849.837,184.82,1848.726Z" transform="translate(-172.008 -1836.333)" fill="#a5b63d" stroke="#231815" stroke-miterlimit="10" stroke-width="0.25"/>
      <path id="Path_13682" data-name="Path 13682" d="M202.087,1899.94c2.395-.282,5.09,11.448,4.2,14.886s-6.7,3.8-8.083,1.454C196.535,1913.444,199.516,1900.243,202.087,1899.94Z" transform="translate(-171.952 -1836.129)" fill="#a5b63d" stroke="#231815" stroke-miterlimit="10" stroke-width="0.25"/>
      <path id="Path_13683" data-name="Path 13683" d="M205.476,1931.6c1.511-.22,3.318,9.782,2.782,12.7s-4.2,3.176-5.094,1.165C202.087,1943.035,203.854,1931.833,205.476,1931.6Z" transform="translate(-171.932 -1836.003)" fill="#a5b63d" stroke="#231815" stroke-miterlimit="10" stroke-width="0.25"/>
      <path id="Path_13684" data-name="Path 13684" d="M208.328,2021.507c1.987-.227,4.175,9.769,3.419,12.689s-5.573,3.2-6.707,1.192C203.671,2032.966,206.2,2021.751,208.328,2021.507Z" transform="translate(-171.925 -1835.644)" fill="#a5b63d" stroke="#231815" stroke-miterlimit="10" stroke-width="0.25"/>
      <path id="Path_13685" data-name="Path 13685" d="M181.957,1857.264c2.353-.616,7.833,8.911,7.365,12.01s-7.558,4.459-9.224,2.653C178.089,1869.746,179.43,1857.926,181.957,1857.264Z" transform="translate(-172.026 -1836.299)" fill="#a5b63d" stroke="#231815" stroke-miterlimit="10" stroke-width="0.25"/>
      <path id="Path_13686" data-name="Path 13686" d="M176.575,1868.223c2.353-.615,7.831,8.913,7.362,12.011s-6.353,5.159-8.474,2.2C173.737,1880.02,174.048,1868.884,176.575,1868.223Z" transform="translate(-172.045 -1836.255)" fill="#a5b63d" stroke="#231815" stroke-miterlimit="10" stroke-width="0.25"/>
      <path id="Path_13687" data-name="Path 13687" d="M190.475,1861.511c2.67-.915,7.946,8.283,7.576,11.453s-6.906,5.116-8.916,3.511C186.708,1874.537,187.608,1862.493,190.475,1861.511Z" transform="translate(-171.992 -1836.282)" fill="#a5b63d" stroke="#231815" stroke-miterlimit="10" stroke-width="0.25"/>
      <path id="Path_13688" data-name="Path 13688" d="M183.984,1867.421c2.866-.663,8.507,9.441,8.188,12.982s-7.128,5.577-9.27,3.737C180.317,1881.918,179.164,1868.536,183.984,1867.421Z" transform="translate(-172.02 -1836.259)" fill="#a5b63d" stroke="#231815" stroke-miterlimit="10" stroke-width="0.25"/>
    </g>
    <path id="Path_13689" data-name="Path 13689" d="M135.555,2000.195s23.019,4.1,37.641,22.579" transform="translate(0.085 0.678)" fill="none" stroke="#252f33" stroke-miterlimit="10" stroke-width="0.25"/>
    <path id="Path_13690" data-name="Path 13690" d="M134.647,2003.96s10.067,3.574,16.764,1.744" transform="translate(0.081 0.693)" fill="none" stroke="#252f33" stroke-miterlimit="10" stroke-width="0.25"/>
    <path id="Path_13691" data-name="Path 13691" d="M141.483,1995.219s7.212,3.836,9.9,10.52" transform="translate(0.108 0.658)" fill="none" stroke="#252f33" stroke-miterlimit="10" stroke-width="0.25"/>
    <path id="Path_13692" data-name="Path 13692" d="M164.071,2001.1s5.821,4,3.286,15.476" transform="translate(0.198 0.682)" fill="none" stroke="#252f33" stroke-miterlimit="10" stroke-width="0.25"/>
    <path id="Path_13693" data-name="Path 13693" d="M148.753,2021.461s8.594,3.164,18.665-4.942" transform="translate(0.137 0.743)" fill="none" stroke="#252f33" stroke-miterlimit="10" stroke-width="0.25"/>
    <path id="Path_13694" data-name="Path 13694" d="M166.321,1991.844s8.9,12.121,1.027,24.773" transform="translate(0.207 0.645)" fill="none" stroke="#252f33" stroke-miterlimit="10" stroke-width="0.25"/>
    <path id="Path_13695" data-name="Path 13695" d="M144.685,2029.281s12.86,4.519,22.749-12.762" transform="translate(0.121 0.743)" fill="none" stroke="#252f33" stroke-miterlimit="10" stroke-width="0.25"/>
    <path id="Path_13696" data-name="Path 13696" d="M349.268,1925.916s-34.787,17.02-42.254,53.947" transform="translate(0.768 0.382)" fill="none" stroke="#252f33" stroke-miterlimit="10" stroke-width="0.25"/>
    <path id="Path_13697" data-name="Path 13697" d="M343.284,1921.658s-6.56,5.419-6.668,12.484" transform="translate(0.886 0.365)" fill="none" stroke="#252f33" stroke-miterlimit="10" stroke-width="0.25"/>
    <path id="Path_13698" data-name="Path 13698" d="M352.147,1930.824a21.854,21.854,0,0,1-15.531,3.281" transform="translate(0.886 0.402)" fill="none" stroke="#252f33" stroke-miterlimit="10" stroke-width="0.25"/>
    <path id="Path_13699" data-name="Path 13699" d="M334.582,1913.609s-8.6,10.066-4.211,25.93" transform="translate(0.856 0.333)" fill="none" stroke="#252f33" stroke-miterlimit="10" stroke-width="0.25"/>
    <path id="Path_13700" data-name="Path 13700" d="M326.171,1914.3s-4.89,14.12,4.217,25.235" transform="translate(0.839 0.336)" fill="none" stroke="#252f33" stroke-miterlimit="10" stroke-width="0.25"/>
    <path id="Path_13701" data-name="Path 13701" d="M357.081,1942.787s-15.694,4.548-26.715-3.351" transform="translate(0.861 0.436)" fill="none" stroke="#252f33" stroke-miterlimit="10" stroke-width="0.25"/>
    <path id="Path_13702" data-name="Path 13702" d="M349.175,1954.169s-14.425-1.627-18.809-14.733" transform="translate(0.861 0.436)" fill="none" stroke="#252f33" stroke-miterlimit="10" stroke-width="0.25"/>
    <path id="Path_13703" data-name="Path 13703" d="M317.7,1933.081s-5.752,13.182-2.268,24.881" transform="translate(0.797 0.411)" fill="none" stroke="#252f33" stroke-miterlimit="10" stroke-width="0.25"/>
    <path id="Path_13704" data-name="Path 13704" d="M307.905,1937.818s-.835,15.32,7.551,20.125" transform="translate(0.772 0.43)" fill="none" stroke="#252f33" stroke-miterlimit="10" stroke-width="0.25"/>
    <path id="Path_13705" data-name="Path 13705" d="M335.767,1957.14s-12.564,6.925-20.341.726" transform="translate(0.802 0.507)" fill="none" stroke="#252f33" stroke-miterlimit="10" stroke-width="0.25"/>
    <path id="Path_13706" data-name="Path 13706" d="M344.466,1964.679s-22.026,4.742-29.04-6.816" transform="translate(0.802 0.51)" fill="none" stroke="#252f33" stroke-miterlimit="10" stroke-width="0.25"/>
    <path id="Path_13707" data-name="Path 13707" d="M332.377,1971.387s-15.927.069-16.951-13.524" transform="translate(0.802 0.51)" fill="none" stroke="#252f33" stroke-miterlimit="10" stroke-width="0.25"/>
    <path id="Path_13708" data-name="Path 13708" d="M366.962,1994.347s-36.054-6.357-52.522,11.033" transform="translate(0.798 0.65)" fill="none" stroke="#252f33" stroke-miterlimit="10" stroke-width="0.25"/>
    <path id="Path_13709" data-name="Path 13709" d="M366.81,1989.249s-9.3-1.334-14.076,3.981" transform="translate(0.95 0.634)" fill="none" stroke="#252f33" stroke-miterlimit="10" stroke-width="0.25"/>
    <path id="Path_13710" data-name="Path 13710" d="M365.68,1998.242a15.651,15.651,0,0,1-12.946-5.029" transform="translate(0.95 0.65)" fill="none" stroke="#252f33" stroke-miterlimit="10" stroke-width="0.25"/>
    <path id="Path_13711" data-name="Path 13711" d="M354.88,1969.948s-15.986,7.961-17.268,24.492" transform="translate(0.89 0.558)" fill="none" stroke="#252f33" stroke-miterlimit="10" stroke-width="0.25"/>
    <path id="Path_13712" data-name="Path 13712" d="M353.925,2020.072s-12.842-7.246-16.313-25.729" transform="translate(0.89 0.655)" fill="none" stroke="#252f33" stroke-miterlimit="10" stroke-width="0.25"/>
    <path id="Path_13713" data-name="Path 13713" d="M365.741,2010.161s-21.767-.14-28.129-15.818" transform="translate(0.89 0.655)" fill="none" stroke="#252f33" stroke-miterlimit="10" stroke-width="0.25"/>
    <path id="Path_13714" data-name="Path 13714" d="M352.361,1981.286s-11.751,3.3-14.749,13.109" transform="translate(0.89 0.603)" fill="none" stroke="#252f33" stroke-miterlimit="10" stroke-width="0.25"/>
    <path id="Path_13715" data-name="Path 13715" d="M329.158,1974.622s-17.106,14.233-11.247,27.709" transform="translate(0.807 0.576)" fill="none" stroke="#252f33" stroke-miterlimit="10" stroke-width="0.25"/>
    <path id="Path_13716" data-name="Path 13716" d="M340.1,2017.89s-20.08-2.687-22.2-15.669" transform="translate(0.812 0.686)" fill="none" stroke="#252f33" stroke-miterlimit="10" stroke-width="0.25"/>
    <path id="Path_13717" data-name="Path 13717" d="M328.1,1984.489s-12.616,9.473-10.191,17.8" transform="translate(0.81 0.616)" fill="none" stroke="#252f33" stroke-miterlimit="10" stroke-width="0.25"/>
    <path id="Path_13718" data-name="Path 13718" d="M336.8,2008.311s-12.828,2.495-18.893-6.09" transform="translate(0.812 0.686)" fill="none" stroke="#252f33" stroke-miterlimit="10" stroke-width="0.25"/>
    <path id="Path_13719" data-name="Path 13719" d="M158.186,2129.966a7.8,7.8,0,0,0,7.994,2.694c5.387-1.086,6.591-1.406,10.426.695" transform="translate(0.175 1.196)" fill="none" stroke="#252f33" stroke-miterlimit="10" stroke-width="0.25"/>
    <path id="Path_13720" data-name="Path 13720" d="M140.618,2137.842a9.164,9.164,0,0,0,9.558,1.912c5.56-2.173,7.733-.87,11.208,1.216s8.384,2.085,12.512-1.564" transform="translate(0.105 1.227)" fill="none" stroke="#252f33" stroke-miterlimit="10" stroke-width="0.25"/>
    <path id="Path_13721" data-name="Path 13721" d="M231.683,2140.1a7.682,7.682,0,0,0-5.561,6.159" transform="translate(0.446 1.236)" fill="none" stroke="#252f33" stroke-miterlimit="10" stroke-width="0.25"/>
    <ellipse id="Ellipse_2501" data-name="Ellipse 2501" cx="10.278" cy="8.385" rx="10.278" ry="8.385" transform="translate(216.29 2147.497)" fill="#e86a58" stroke="#000" stroke-linejoin="round" stroke-width="0.25"/>
    <path id="Path_13722" data-name="Path 13722" d="M219.934,2151.58s.041-3.136,5.56-5.326" transform="translate(0.421 1.261)" fill="none" stroke="#252f33" stroke-miterlimit="10" stroke-width="0.25"/>
    <path id="Path_13723" data-name="Path 13723" d="M231.853,2151.58a6.549,6.549,0,0,0-4.864-5.313" transform="translate(0.449 1.261)" fill="none" stroke="#252f33" stroke-miterlimit="10" stroke-width="0.25"/>
    <path id="Path_13724" data-name="Path 13724" d="M223.742,2151.232a6.359,6.359,0,0,1,2.389-5" transform="translate(0.436 1.26)" fill="none" stroke="#252f33" stroke-miterlimit="10" stroke-width="0.25"/>
    <path id="Path_13725" data-name="Path 13725" d="M228.36,2151.232a5.922,5.922,0,0,0-2.238-5" transform="translate(0.446 1.26)" fill="none" stroke="#252f33" stroke-miterlimit="10" stroke-width="0.25"/>
    <path id="Path_13726" data-name="Path 13726" d="M245.508,2168.739c.261,0,3.476,4.519,9.992,1.217s10.514-1.061,13.381,1.207a6.988,6.988,0,0,0,10.079-1.438" transform="translate(0.523 1.348)" fill="none" stroke="#252f33" stroke-miterlimit="10" stroke-width="0.25"/>
    <path id="Path_13727" data-name="Path 13727" d="M233.046,2177.132a8.018,8.018,0,0,0,9.818,1.564c6.082-2.955,9.3-1.043,12.512,1.651s8.689,1.3,10.514-1.608" transform="translate(0.473 1.384)" fill="none" stroke="#252f33" stroke-miterlimit="10" stroke-width="0.25"/>
    <path id="Path_13728" data-name="Path 13728" d="M350.225,2042.458s5.192-3.715,10.014-.651,8.472,1.135,10.622-.28,6.777-2.262,9.775,1.127" transform="translate(0.94 0.838)" fill="none" stroke="#252f33" stroke-miterlimit="10" stroke-width="0.25"/>
    <path id="Path_13729" data-name="Path 13729" d="M368.961,2033.3s5.344,3.127,9.123.391a7.734,7.734,0,0,1,10.687,1.123" transform="translate(1.015 0.805)" fill="none" stroke="#252f33" stroke-miterlimit="10" stroke-width="0.25"/>
    <path id="Path_13730" data-name="Path 13730" d="M411.67,2063.16a8.133,8.133,0,0,1,8.688,0c4.953,2.78,8.081,1.043,9.993,0a6.463,6.463,0,0,1,8.08,1.5" transform="translate(1.185 0.924)" fill="none" stroke="#252f33" stroke-miterlimit="10" stroke-width="0.25"/>
    <path id="Path_13731" data-name="Path 13731" d="M405.439,2162.167s5.3-3.823,9.992,0,11.47-.849,11.47-.849" transform="translate(1.161 1.317)" fill="none" stroke="#252f33" stroke-miterlimit="10" stroke-width="0.25"/>
    <path id="Path_13732" data-name="Path 13732" d="M387.7,2170.471s5.3,2.694,10.687.435,9.123-.975,12.164.9,8.689,1.617,10.686-.382" transform="translate(1.09 1.354)" fill="none" stroke="#252f33" stroke-miterlimit="10" stroke-width="0.25"/>
    <g id="Group_3780" data-name="Group 3780" transform="translate(221.702 1903.811)">
      <path id="Path_13733" data-name="Path 13733" d="M246.138,2093.721s-18.258,5.285-24.862-4.338c0,0,7.992-55.151,19.8-101.029s36.158-82.717,40.329-79.936,3.822,30.052-5.908,56.385S249.1,2048.251,246.138,2093.721Z" transform="translate(-221.276 -1903.499)" fill="#cad226" stroke="#231815" stroke-miterlimit="10" stroke-width="0.25"/>
      <path id="Path_13734" data-name="Path 13734" d="M283.681,1903.564c2.7.822,1.859,14.6-.615,17.656s-10.3.046-10.751-2.963C271.768,1914.626,280.778,1902.682,283.681,1903.564Z" transform="translate(-221.073 -1903.518)" fill="#a5b63d" stroke="#231815" stroke-miterlimit="10" stroke-width="0.25"/>
      <path id="Path_13735" data-name="Path 13735" d="M277.426,1913.082c2.994,1.262,1.168,15.61-1.815,18.456s-11.605-1.467-11.924-4.695C263.3,1922.949,274.211,1911.728,277.426,1913.082Z" transform="translate(-221.107 -1903.48)" fill="#a5b63d" stroke="#231815" stroke-miterlimit="10" stroke-width="0.25"/>
      <path id="Path_13736" data-name="Path 13736" d="M281.88,1916.368c2.471.042,3.464,13.048,2.045,16.616s-7.363,3.12-8.413.394C274.245,1930.086,279.227,1916.322,281.88,1916.368Z" transform="translate(-221.061 -1903.466)" fill="#a5b63d" stroke="#231815" stroke-miterlimit="10" stroke-width="0.25"/>
      <path id="Path_13737" data-name="Path 13737" d="M250.018,2045.594c2.215.373,3.012,11.107,1.389,13.709s-8.1,1.031-8.772-1.251C241.819,2055.3,247.64,2045.191,250.018,2045.594Z" transform="translate(-221.191 -1902.952)" fill="#a5b63d" stroke="#231815" stroke-miterlimit="10" stroke-width="0.25"/>
      <path id="Path_13738" data-name="Path 13738" d="M238.878,2012c-2.509-.74-6.949,7.547-6.457,10.347s6.621,4.351,8.4,2.875C242.974,2023.438,241.572,2012.791,238.878,2012Z" transform="translate(-221.232 -1903.085)" fill="#a5b63d" stroke="#231815" stroke-miterlimit="10" stroke-width="0.25"/>
      <path id="Path_13739" data-name="Path 13739" d="M277.246,1925.3c2.7.822,1.86,14.6-.614,17.656s-10.3.046-10.751-2.963C265.334,1936.359,274.344,1924.415,277.246,1925.3Z" transform="translate(-221.098 -1903.431)" fill="#a5b63d" stroke="#231815" stroke-miterlimit="10" stroke-width="0.25"/>
      <path id="Path_13740" data-name="Path 13740" d="M281.252,1930.826c2.466.159,2.957,12.719,1.4,16.086s-7.474,2.652-8.417-.021C273.1,1943.665,278.6,1930.656,281.252,1930.826Z" transform="translate(-221.065 -1903.409)" fill="#a5b63d" stroke="#231815" stroke-miterlimit="10" stroke-width="0.25"/>
    </g>
    <g id="Group_3781" data-name="Group 3781" transform="translate(266.99 1871.4)">
      <path id="Path_13741" data-name="Path 13741" d="M317.665,1874.184c3.1.767,4.616,18.42-13.8,77.852s-8.853,114.394-8.853,114.394-7.883,12.119-24.365,7.077c0,0-9.584-55.09,0-95.753S309.224,1872.1,317.665,1874.184Z" transform="translate(-266.383 -1871.224)" fill="#ddd658" stroke="#000" stroke-linejoin="round" stroke-width="0.25"/>
      <path id="Path_13742" data-name="Path 13742" d="M318.153,1871.263c2.5.626,2.146,13.694-.025,16.721s-9.416.617-9.922-2.2C307.594,1882.381,315.47,1870.59,318.153,1871.263Z" transform="translate(-266.217 -1871.235)" fill="#a5b63d" stroke="#231815" stroke-miterlimit="10" stroke-width="0.25"/>
      <path id="Path_13743" data-name="Path 13743" d="M313.665,1874.836c2.665,1.406-.046,14.337-3,16.678s-8.756.266-8.722-3.522C301.991,1883.281,310.8,1873.326,313.665,1874.836Z" transform="translate(-266.242 -1871.222)" fill="#a5b63d" stroke="#231815" stroke-miterlimit="10" stroke-width="0.25"/>
      <path id="Path_13744" data-name="Path 13744" d="M318.969,1880.316c2.328.255,2.54,11.127,1,13.961s-7.12,1.935-7.96-.42C311,1891.017,316.468,1880.044,318.969,1880.316Z" transform="translate(-266.202 -1871.199)" fill="#a5b63d" stroke="#231815" stroke-miterlimit="10" stroke-width="0.25"/>
      <path id="Path_13745" data-name="Path 13745" d="M300.626,1925.836c1.94.331,2.672,9.585,1.259,11.822s-7.086.856-7.685-1.113C293.477,1934.167,298.542,1925.481,300.626,1925.836Z" transform="translate(-266.273 -1871.018)" fill="#a5b63d" stroke="#231815" stroke-miterlimit="10" stroke-width="0.25"/>
      <path id="Path_13746" data-name="Path 13746" d="M281.687,1972.377c1.946.31,2.351,10.9.845,13.52s-7.178,1.238-7.712-1C274.178,1982.193,279.6,1972.044,281.687,1972.377Z" transform="translate(-266.35 -1870.832)" fill="#a5b63d" stroke="#231815" stroke-miterlimit="10" stroke-width="0.25"/>
      <path id="Path_13747" data-name="Path 13747" d="M282.586,2031.8c2.686.062,5.583,11.958,4.139,15.136s-9.38,2.461-10.6.012C274.665,2043.991,279.7,2031.731,282.586,2031.8Z" transform="translate(-266.345 -1870.595)" fill="#a5b63d" stroke="#231815" stroke-miterlimit="10" stroke-width="0.25"/>
      <path id="Path_13748" data-name="Path 13748" d="M304.32,1888.435c2.834,1.022,1.941,14.2-.657,16.932s-8.634,1.476-9.125-2.28C293.929,1898.416,301.277,1887.336,304.32,1888.435Z" transform="translate(-266.271 -1871.167)" fill="#a5b63d" stroke="#231815" stroke-miterlimit="10" stroke-width="0.25"/>
      <path id="Path_13749" data-name="Path 13749" d="M304.11,1947.214c2.478.407,1.878,12.677.015,15.794s-7.781,1.816-8.5-.881C294.755,1958.871,301.45,1946.778,304.11,1947.214Z" transform="translate(-266.267 -1870.932)" fill="#a5b63d" stroke="#231815" stroke-miterlimit="10" stroke-width="0.25"/>
      <path id="Path_13750" data-name="Path 13750" d="M294.015,1986.191c2.477.406,1.878,12.676.015,15.793s-7.782,1.817-8.5-.88C284.659,1997.848,291.354,1985.755,294.015,1986.191Z" transform="translate(-266.307 -1870.777)" fill="#a5b63d" stroke="#231815" stroke-miterlimit="10" stroke-width="0.25"/>
      <path id="Path_13751" data-name="Path 13751" d="M318.069,1890.067c2.638.46,2.4,11.926.52,14.784s-8.189,1.452-9.038-1.1C308.526,1900.68,315.236,1889.574,318.069,1890.067Z" transform="translate(-266.212 -1871.16)" fill="#a5b63d" stroke="#231815" stroke-miterlimit="10" stroke-width="0.25"/>
      <path id="Path_13752" data-name="Path 13752" d="M312.823,1883.255c2.8.711,2.578,14.876.189,18.13s-10.528.547-11.13-2.515C301.153,1895.173,309.813,1882.491,312.823,1883.255Z" transform="translate(-266.242 -1871.188)" fill="#a5b63d" stroke="#231815" stroke-miterlimit="10" stroke-width="0.25"/>
      <path id="Path_13753" data-name="Path 13753" d="M309.011,1894.729c2.654.453,3.655,13.112,1.722,16.171s-9.693,1.172-10.512-1.523C299.232,1906.125,306.162,1894.242,309.011,1894.729Z" transform="translate(-266.249 -1871.142)" fill="#a5b63d" stroke="#231815" stroke-miterlimit="10" stroke-width="0.25"/>
      <path id="Path_13754" data-name="Path 13754" d="M300.491,1901.83c2.631.957,1.979,12.8-.385,15.221s-7.958,1.214-8.461-2.172C291.022,1910.671,297.665,1900.8,300.491,1901.83Z" transform="translate(-266.283 -1871.114)" fill="#a5b63d" stroke="#231815" stroke-miterlimit="10" stroke-width="0.25"/>
      <path id="Path_13755" data-name="Path 13755" d="M314.916,1899.586c2.925.517,2.773,12.753.727,15.783s-9.049,1.466-10.015-1.262C304.462,1910.815,311.776,1899.031,314.916,1899.586Z" transform="translate(-266.227 -1871.122)" fill="#a5b63d" stroke="#231815" stroke-miterlimit="10" stroke-width="0.25"/>
    </g>
    <ellipse id="Ellipse_2502" data-name="Ellipse 2502" cx="3.365" cy="2.113" rx="3.365" ry="2.113" transform="translate(136.379 2050.648)" fill="#c19165" stroke="#000" stroke-linejoin="round" stroke-width="0.25"/>
    <ellipse id="Ellipse_2503" data-name="Ellipse 2503" cx="6.126" cy="3.085" rx="6.126" ry="3.085" transform="translate(117.871 2079.029)" fill="#c19165" stroke="#000" stroke-linejoin="round" stroke-width="0.25"/>
    <ellipse id="Ellipse_2504" data-name="Ellipse 2504" cx="3.171" cy="2.149" rx="3.171" ry="2.149" transform="translate(161.489 2120.259)" fill="#ecb36f" stroke="#000" stroke-linejoin="round" stroke-width="0.25"/>
    <ellipse id="Ellipse_2505" data-name="Ellipse 2505" cx="6.386" cy="4.214" rx="6.386" ry="4.214" transform="translate(171.742 2128.555)" fill="#ecb36f" stroke="#000" stroke-linejoin="round" stroke-width="0.25"/>
    <ellipse id="Ellipse_2506" data-name="Ellipse 2506" cx="3.302" cy="1.955" rx="3.302" ry="1.955" transform="translate(258.108 2157.054)" fill="#c19165" stroke="#000" stroke-linejoin="round" stroke-width="0.25"/>
    <ellipse id="Ellipse_2507" data-name="Ellipse 2507" cx="4.172" cy="2.694" rx="4.172" ry="2.694" transform="translate(269.404 2162.441)" fill="#c19165" stroke="#000" stroke-linejoin="round" stroke-width="0.25"/>
    <ellipse id="Ellipse_2508" data-name="Ellipse 2508" cx="1.63" cy="0.999" rx="1.63" ry="0.999" transform="translate(279.84 2159.835)" fill="#ecb36f" stroke="#000" stroke-linejoin="round" stroke-width="0.25"/>
    <ellipse id="Ellipse_2509" data-name="Ellipse 2509" cx="3.584" cy="2.019" rx="3.584" ry="2.019" transform="translate(340.912 2038.229)" fill="#ecb36f" stroke="#000" stroke-linejoin="round" stroke-width="0.25"/>
    <ellipse id="Ellipse_2510" data-name="Ellipse 2510" cx="2.541" cy="1.765" rx="2.541" ry="1.765" transform="translate(351.991 2046.205)" fill="#c19165" stroke="#000" stroke-linejoin="round" stroke-width="0.25"/>
    <ellipse id="Ellipse_2511" data-name="Ellipse 2511" cx="2.694" cy="1.683" rx="2.694" ry="1.683" transform="translate(433.274 2056.612)" fill="#c19165" stroke="#000" stroke-linejoin="round" stroke-width="0.25"/>
    <ellipse id="Ellipse_2512" data-name="Ellipse 2512" cx="3.476" cy="1.907" rx="3.476" ry="1.907" transform="translate(443.527 2059.035)" fill="#ecb36f" stroke="#000" stroke-linejoin="round" stroke-width="0.25"/>
    <ellipse id="Ellipse_2513" data-name="Ellipse 2513" cx="4.214" cy="2.52" rx="4.214" ry="2.52" transform="translate(405.557 2151.58)" fill="#c19165" stroke="#000" stroke-linejoin="round" stroke-width="0.25"/>
    <ellipse id="Ellipse_2514" data-name="Ellipse 2514" cx="2.563" cy="1.607" rx="2.563" ry="1.607" transform="translate(420.241 2156.62)" fill="#ecb36f" stroke="#000" stroke-linejoin="round" stroke-width="0.25"/>
    <ellipse id="Ellipse_2515" data-name="Ellipse 2515" cx="2.954" cy="1.521" rx="2.954" ry="1.521" transform="translate(398.171 2155.577)" fill="#ecb36f" stroke="#000" stroke-linejoin="round" stroke-width="0.25"/>
    <g id="Group_3782" data-name="Group 3782" transform="translate(247.058 1845.37)">
      <path id="Path_13756" data-name="Path 13756" d="M291.725,2078.55s-17.4-46.216-18.143-88.11.741-68.29,6.3-98.282-4.434-41.486-6.48-41.856-21.7,35.59-22.067,82.674,2.149,101.506,13.346,154.389C264.684,2087.365,283.638,2095.273,291.725,2078.55Z" transform="translate(-246.512 -1845.29)" fill="#ddd658" stroke="#000" stroke-linejoin="round" stroke-width="0.25"/>
      <path id="Path_13757" data-name="Path 13757" d="M274.893,1845.31c3.012.092,6.184,13.331,4.543,16.847s-10.54,2.65-11.886-.08C265.926,1858.782,271.659,1845.211,274.893,1845.31Z" transform="translate(-246.448 -1845.31)" fill="#a5b63d" stroke="#231815" stroke-miterlimit="10" stroke-width="0.25"/>
      <path id="Path_13758" data-name="Path 13758" d="M269.583,1851.431c2.923.444,4.5,13.563,2.5,16.755s-9.579,3.217-10.748-.374C259.885,1863.346,266.444,1850.955,269.583,1851.431Z" transform="translate(-246.472 -1845.285)" fill="#a5b63d" stroke="#231815" stroke-miterlimit="10" stroke-width="0.25"/>
      <path id="Path_13759" data-name="Path 13759" d="M280.233,1854.432c2.791.153,3.8,12.81,2.165,16.205s-8.346,2.692-9.509,0C271.487,1867.389,277.236,1854.267,280.233,1854.432Z" transform="translate(-246.426 -1845.273)" fill="#a5b63d" stroke="#231815" stroke-miterlimit="10" stroke-width="0.25"/>
      <path id="Path_13760" data-name="Path 13760" d="M273.133,1859.3c3.012.093,6.184,13.331,4.543,16.847s-10.54,2.651-11.886-.079C264.166,1872.776,269.9,1859.2,273.133,1859.3Z" transform="translate(-246.455 -1845.254)" fill="#a5b63d" stroke="#231815" stroke-miterlimit="10" stroke-width="0.25"/>
      <path id="Path_13761" data-name="Path 13761" d="M253.1,2000.176c2.1-.544,6.773,6.462,6.294,8.815s-6.8,3.622-8.242,2.315C249.41,2009.728,250.842,2000.761,253.1,2000.176Z" transform="translate(-246.515 -1844.692)" fill="#a5b63d" stroke="#231815" stroke-miterlimit="10" stroke-width="0.25"/>
      <path id="Path_13762" data-name="Path 13762" d="M266.809,1865.669c2.952.459,4.71,12.991,2.736,16.01s-9.616,2.948-10.84-.491C257.183,1876.911,263.639,1865.175,266.809,1865.669Z" transform="translate(-246.483 -1845.228)" fill="#a5b63d" stroke="#231815" stroke-miterlimit="10" stroke-width="0.25"/>
      <path id="Path_13763" data-name="Path 13763" d="M259.706,1887.455c2.952.46,4.71,12.991,2.735,16.01s-8.078,2.911-9.3-.528C251.617,1898.66,256.537,1886.962,259.706,1887.455Z" transform="translate(-246.505 -1845.141)" fill="#a5b63d" stroke="#231815" stroke-miterlimit="10" stroke-width="0.25"/>
      <path id="Path_13764" data-name="Path 13764" d="M250.267,1941.613c2.012-.22,5.34,8.953,4.571,11.624s-6.77,2.9-7.916,1.072C245.538,1952.105,248.105,1941.849,250.267,1941.613Z" transform="translate(-246.531 -1844.926)" fill="#a5b63d" stroke="#231815" stroke-miterlimit="10" stroke-width="0.25"/>
      <path id="Path_13765" data-name="Path 13765" d="M275.261,1885.336c2.62-.281,5.418,12.834,4.4,16.654s-7.373,4.145-8.851,1.506C269.023,1900.311,272.446,1885.638,275.261,1885.336Z" transform="translate(-246.436 -1845.15)" fill="#a5b63d" stroke="#231815" stroke-miterlimit="10" stroke-width="0.25"/>
      <path id="Path_13766" data-name="Path 13766" d="M278,1865.765c2.446-.238,5.013,10.485,4.047,13.614s-6.892,3.416-8.262,1.261C272.134,1878.04,275.376,1866.021,278,1865.765Z" transform="translate(-246.424 -1845.228)" fill="#a5b63d" stroke="#231815" stroke-miterlimit="10" stroke-width="0.25"/>
      <path id="Path_13767" data-name="Path 13767" d="M267.7,1970.526c2.77-.573,7.081,12.292,6.375,16.244s-7.457,4.982-9.3,2.495C262.553,1986.264,264.729,1971.141,267.7,1970.526Z" transform="translate(-246.461 -1844.811)" fill="#a5b63d" stroke="#231815" stroke-miterlimit="10" stroke-width="0.25"/>
      <path id="Path_13768" data-name="Path 13768" d="M268.058,2028.17c2.482-.461,5.9,7.715,5.144,10.292s-6.791,3.461-8.35,1.913C262.97,2038.507,265.394,2028.664,268.058,2028.17Z" transform="translate(-246.46 -1844.581)" fill="#a5b63d" stroke="#231815" stroke-miterlimit="10" stroke-width="0.25"/>
    </g>
    <ellipse id="Ellipse_2516" data-name="Ellipse 2516" cx="4.41" cy="2.496" rx="4.41" ry="2.496" transform="translate(417.917 2103.881)" fill="#dffffa" stroke="#231815" stroke-miterlimit="10" stroke-width="0.25"/>
    <ellipse id="Ellipse_2517" data-name="Ellipse 2517" cx="1.629" cy="1.13" rx="1.629" ry="1.13" transform="translate(431.949 2109.905)" fill="#dffffa" stroke="#231815" stroke-miterlimit="10" stroke-width="0.25"/>
    <ellipse id="Ellipse_2518" data-name="Ellipse 2518" cx="1.006" cy="2.677" rx="1.006" ry="2.677" transform="matrix(0.837, -0.548, 0.548, 0.837, 178.449, 1848.691)" fill="#dffffa" stroke="#231815" stroke-miterlimit="10" stroke-width="0.25"/>
    <ellipse id="Ellipse_2519" data-name="Ellipse 2519" cx="0.794" cy="2.085" rx="0.794" ry="2.085" transform="translate(173.825 1860.538)" fill="#dffffa" stroke="#231815" stroke-miterlimit="10" stroke-width="0.25"/>
    <circle id="Ellipse_2520" data-name="Ellipse 2520" cx="1.248" cy="1.248" r="1.248" transform="translate(209.87 1902.38)" fill="#dffffa" stroke="#231815" stroke-miterlimit="10" stroke-width="0.25"/>
    <ellipse id="Ellipse_2521" data-name="Ellipse 2521" cx="0.951" cy="1.291" rx="0.951" ry="1.291" transform="translate(207.897 1911.049)" fill="#dffffa" stroke="#231815" stroke-miterlimit="10" stroke-width="0.25"/>
    <ellipse id="Ellipse_2522" data-name="Ellipse 2522" cx="0.88" cy="1.618" rx="0.88" ry="1.618" transform="matrix(0.999, -0.036, 0.036, 0.999, 280.315, 1857.203)" fill="#dffffa" stroke="#231815" stroke-miterlimit="10" stroke-width="0.25"/>
    <ellipse id="Ellipse_2523" data-name="Ellipse 2523" cx="1.368" cy="0.708" rx="1.368" ry="0.708" transform="matrix(0.586, -0.81, 0.81, 0.586, 308.848, 1879.043)" fill="#dffffa" stroke="#231815" stroke-miterlimit="10" stroke-width="0.25"/>
    <ellipse id="Ellipse_2524" data-name="Ellipse 2524" cx="0.847" cy="0.586" rx="0.847" ry="0.586" transform="translate(312.546 1877.895) rotate(-49.496)" fill="#dffffa" stroke="#231815" stroke-miterlimit="10" stroke-width="0.25"/>
    <g id="Group_3783" data-name="Group 3783" transform="translate(114.296 2030.319)">
      <path id="Path_13769" data-name="Path 13769" d="M117.179,2029.524a5.077,5.077,0,0,1,3.888,3.867" transform="translate(-114.285 -2029.524)" fill="none" stroke="#252f33" stroke-miterlimit="10" stroke-width="0.25"/>
      <ellipse id="Ellipse_2525" data-name="Ellipse 2525" cx="6.792" cy="5.541" rx="6.792" ry="5.541" transform="translate(0 4.232) rotate(-3.077)" fill="#e86a58" stroke="#000" stroke-linejoin="round" stroke-width="0.25"/>
      <path id="Path_13770" data-name="Path 13770" d="M125.339,2036.682s-.139-2.067-3.857-3.317" transform="translate(-114.268 -2029.509)" fill="none" stroke="#252f33" stroke-miterlimit="10" stroke-width="0.25"/>
      <path id="Path_13771" data-name="Path 13771" d="M117.471,2037.105a4.329,4.329,0,0,1,3.022-3.679" transform="translate(-114.283 -2029.508)" fill="none" stroke="#252f33" stroke-miterlimit="10" stroke-width="0.25"/>
      <path id="Path_13772" data-name="Path 13772" d="M122.806,2036.589a4.206,4.206,0,0,0-1.754-3.213" transform="translate(-114.269 -2029.509)" fill="none" stroke="#252f33" stroke-miterlimit="10" stroke-width="0.25"/>
      <path id="Path_13773" data-name="Path 13773" d="M119.758,2036.752a3.912,3.912,0,0,1,1.3-3.376" transform="translate(-114.274 -2029.509)" fill="none" stroke="#252f33" stroke-miterlimit="10" stroke-width="0.25"/>
    </g>
    <g id="Group_3784" data-name="Group 3784" transform="translate(254.571 2076.094)">
      <path id="Path_13774" data-name="Path 13774" d="M449.3,2080.367s-35.031,8.517-66.7,8.01-94.777-13.074-105.425-12.648-20.085,2.2-20.557,4.491,20.382,18.287,55.5,24.386,99.628,9.551,143.065,3.252Z" transform="translate(-254.004 -2075.115)" fill="#ddd658" stroke="#000" stroke-linejoin="round" stroke-width="0.25"/>
      <path id="Path_13775" data-name="Path 13775" d="M387.829,2089.625c.524-2.622,9.573-4.423,11.594-2.732s.089,9.4-1.884,10.372C395.158,2098.442,387.266,2092.441,387.829,2089.625Z" transform="translate(-253.481 -2075.073)" fill="#a5b63d" stroke="#231815" stroke-miterlimit="10" stroke-width="0.25"/>
      <path id="Path_13776" data-name="Path 13776" d="M308.954,2085.753c.346-2.008,10.548-2.542,13.029-1.02s1.012,7.381-1.156,7.956C318.212,2093.382,308.582,2087.908,308.954,2085.753Z" transform="translate(-253.795 -2075.083)" fill="#a5b63d" stroke="#231815" stroke-miterlimit="10" stroke-width="0.25"/>
      <path id="Path_13777" data-name="Path 13777" d="M344.255,2094.62c.35-2.022,10.593-2.569,13.083-1.038s1.01,7.435-1.167,8.014C353.545,2102.3,343.879,2096.791,344.255,2094.62Z" transform="translate(-253.654 -2075.047)" fill="#a5b63d" stroke="#231815" stroke-miterlimit="10" stroke-width="0.25"/>
      <path id="Path_13778" data-name="Path 13778" d="M355.387,2107.254c.168-2.615,12.609-4.815,15.846-3.24s2.364,6.819-1.938,8.674C366.2,2114.022,355.206,2110.063,355.387,2107.254Z" transform="translate(-253.61 -2075.004)" fill="#a5b63d" stroke="#231815" stroke-miterlimit="10" stroke-width="0.25"/>
      <path id="Path_13779" data-name="Path 13779" d="M320.671,2104.151c.388-2.315,11.84-3.091,14.627-1.378s1.525,6.3-2.535,7.546C329.844,2111.213,320.254,2106.637,320.671,2104.151Z" transform="translate(-253.748 -2075.011)" fill="#a5b63d" stroke="#231815" stroke-miterlimit="10" stroke-width="0.25"/>
      <path id="Path_13780" data-name="Path 13780" d="M328.24,2082.925c-.473,2.078,11.02,6.814,14.533,6.373s3.943-4.736.234-7.226C340.339,2080.282,328.748,2080.694,328.24,2082.925Z" transform="translate(-253.718 -2075.094)" fill="#a5b63d" stroke="#231815" stroke-miterlimit="10" stroke-width="0.25"/>
      <path id="Path_13781" data-name="Path 13781" d="M254.034,2078.592c-.584,2.777,11.795,8.691,15.641,7.989s4.459-6.426.495-9.612C267.32,2074.679,254.662,2075.61,254.034,2078.592Z" transform="translate(-254.014 -2075.115)" fill="#a5b63d" stroke="#231815" stroke-miterlimit="10" stroke-width="0.25"/>
      <ellipse id="Ellipse_2526" data-name="Ellipse 2526" cx="6.311" cy="14.057" rx="6.311" ry="14.057" transform="translate(189.128 6.574) rotate(-12.087)" fill="#a5b63d" stroke="#231815" stroke-miterlimit="10" stroke-width="0.25"/>
      <path id="Path_13782" data-name="Path 13782" d="M257.337,2081.583c.472-2.635,12.906-3.586,15.89-1.654s1.052,9.638-1.6,10.442C268.424,2091.342,256.83,2084.413,257.337,2081.583Z" transform="translate(-254.001 -2075.102)" fill="#a5b63d" stroke="#231815" stroke-miterlimit="10" stroke-width="0.25"/>
      <path id="Path_13783" data-name="Path 13783" d="M262.783,2086.8c.456-2.3,13.06-2.329,16.1-.423s1.6,6.442-2.885,7.426C272.779,2094.516,262.292,2089.279,262.783,2086.8Z" transform="translate(-253.979 -2075.078)" fill="#a5b63d" stroke="#231815" stroke-miterlimit="10" stroke-width="0.25"/>
      <path id="Path_13784" data-name="Path 13784" d="M267.353,2077.608c-.521,2.435,10.9,7.7,14.433,7.1s4.063-5.614.4-8.434C279.551,2074.251,267.913,2074.995,267.353,2077.608Z" transform="translate(-253.961 -2075.117)" fill="#a5b63d" stroke="#231815" stroke-miterlimit="10" stroke-width="0.25"/>
      <path id="Path_13785" data-name="Path 13785" d="M268.33,2083c.472-2.636,12.907-3.586,15.89-1.655s1.052,9.638-1.6,10.443C279.417,2092.758,267.824,2085.829,268.33,2083Z" transform="translate(-253.957 -2075.096)" fill="#a5b63d" stroke="#231815" stroke-miterlimit="10" stroke-width="0.25"/>
      <path id="Path_13786" data-name="Path 13786" d="M271.752,2090.6c.62-2.881,13.441-3.77,16.405-1.616s1.185,7.865-3.44,9.386C281.394,2099.462,271.085,2093.694,271.752,2090.6Z" transform="translate(-253.943 -2075.067)" fill="#a5b63d" stroke="#231815" stroke-miterlimit="10" stroke-width="0.25"/>
      <path id="Path_13787" data-name="Path 13787" d="M277.509,2078.012c-.521,2.435,10.9,7.7,14.433,7.1s4.063-5.614.4-8.433C289.706,2074.654,278.069,2075.4,277.509,2078.012Z" transform="translate(-253.92 -2075.115)" fill="#a5b63d" stroke="#231815" stroke-miterlimit="10" stroke-width="0.25"/>
      <path id="Path_13788" data-name="Path 13788" d="M281.833,2084.553c.471-2.636,12.906-3.586,15.89-1.655s1.052,9.639-1.6,10.444C292.92,2094.313,281.326,2087.384,281.833,2084.553Z" transform="translate(-253.903 -2075.09)" fill="#a5b63d" stroke="#231815" stroke-miterlimit="10" stroke-width="0.25"/>
    </g>
    <g id="Group_3785" data-name="Group 3785" transform="translate(305.021 2032.441)">
      <path id="Path_13789" data-name="Path 13789" d="M455.227,2110.906a228.5,228.5,0,0,1-50.148-18.63c-25.548-13.246-71.781-49.04-80.612-53.009s-17.227-6.347-18.538-4.678,9.164,23.131,35.255,42.324,69.812,46.256,107.69,58.736Z" transform="translate(-304.258 -2031.628)" fill="#ddd658" stroke="#000" stroke-linejoin="round" stroke-width="0.25"/>
      <path id="Path_13790" data-name="Path 13790" d="M397.764,2090.966c1.49-1.92,9.578.283,10.537,2.477s-3.736,7.677-5.736,7.671C400.153,2101.107,396.165,2093.028,397.764,2090.966Z" transform="translate(-303.893 -2031.404)" fill="#a5b63d" stroke="#231815" stroke-miterlimit="10" stroke-width="0.25"/>
      <path id="Path_13791" data-name="Path 13791" d="M353.551,2071.352c1.1-1.492,9.609,2.208,11.01,4.451s-2.169,6.414-4.164,6C357.989,2081.309,352.375,2072.955,353.551,2071.352Z" transform="translate(-304.068 -2031.48)" fill="#a5b63d" stroke="#231815" stroke-miterlimit="10" stroke-width="0.25"/>
      <path id="Path_13792" data-name="Path 13792" d="M372.561,2096.1c1.2-2.059,12.205,1.193,14.2,3.786s-.839,6.5-5.09,6.269C378.613,2105.986,371.275,2098.311,372.561,2096.1Z" transform="translate(-303.992 -2031.383)" fill="#a5b63d" stroke="#231815" stroke-miterlimit="10" stroke-width="0.25"/>
      <path id="Path_13793" data-name="Path 13793" d="M334.485,2069.375c1.253-1.725,10.881,2.286,12.453,4.808s-1.313,5.744-5.118,5.109C339.084,2078.836,333.138,2071.228,334.485,2069.375Z" transform="translate(-304.144 -2031.488)" fill="#a5b63d" stroke="#231815" stroke-miterlimit="10" stroke-width="0.25"/>
      <path id="Path_13794" data-name="Path 13794" d="M369.782,2071.709c-1.226,1.5,6.2,10.008,9.237,11.072s5.126-2.253,3.118-5.782C380.693,2074.463,371.1,2070.1,369.782,2071.709Z" transform="translate(-304.003 -2031.479)" fill="#a5b63d" stroke="#231815" stroke-miterlimit="10" stroke-width="0.25"/>
      <path id="Path_13795" data-name="Path 13795" d="M304.481,2032.22c-1.6,2.022,6.071,11.848,9.483,12.836s6.23-3.419,4.3-7.616C316.872,2034.422,306.2,2030.05,304.481,2032.22Z" transform="translate(-304.264 -2031.637)" fill="#a5b63d" stroke="#231815" stroke-miterlimit="10" stroke-width="0.25"/>
      <ellipse id="Ellipse_2527" data-name="Ellipse 2527" cx="12.773" cy="5.735" rx="12.773" ry="5.735" transform="translate(139.062 102.594) rotate(-75.6)" fill="#a5b63d" stroke="#231815" stroke-miterlimit="10" stroke-width="0.25"/>
      <path id="Path_13796" data-name="Path 13796" d="M305.955,2035.992c1.452-1.953,11.949,2.313,13.593,5.094s-3.05,8.265-5.534,7.844C311.016,2048.422,304.4,2038.088,305.955,2035.992Z" transform="translate(-304.258 -2031.622)" fill="#a5b63d" stroke="#231815" stroke-miterlimit="10" stroke-width="0.25"/>
      <path id="Path_13797" data-name="Path 13797" d="M308.266,2042.447c1.305-1.689,11.566,3.4,13.267,6.183s-1.313,5.886-5.355,4.869C313.271,2052.769,306.864,2044.26,308.266,2042.447Z" transform="translate(-304.249 -2031.595)" fill="#a5b63d" stroke="#231815" stroke-miterlimit="10" stroke-width="0.25"/>
      <path id="Path_13798" data-name="Path 13798" d="M315.711,2036.819c-1.411,1.768,5.745,10.677,8.859,11.626s5.579-2.918,3.742-6.7C326.99,2039.032,317.226,2034.92,315.711,2036.819Z" transform="translate(-304.219 -2031.618)" fill="#a5b63d" stroke="#231815" stroke-miterlimit="10" stroke-width="0.25"/>
      <path id="Path_13799" data-name="Path 13799" d="M314.322,2041.6c1.452-1.953,11.949,2.314,13.593,5.094s-3.05,8.265-5.534,7.844C319.383,2054.028,312.763,2043.694,314.322,2041.6Z" transform="translate(-304.225 -2031.599)" fill="#a5b63d" stroke="#231815" stroke-miterlimit="10" stroke-width="0.25"/>
      <path id="Path_13800" data-name="Path 13800" d="M313.452,2049.794c1.3-1.688,11.565,3.4,13.267,6.183s-1.313,5.885-5.356,4.869C318.457,2060.115,312.05,2051.608,313.452,2049.794Z" transform="translate(-304.228 -2031.566)" fill="#a5b63d" stroke="#231815" stroke-miterlimit="10" stroke-width="0.25"/>
      <path id="Path_13801" data-name="Path 13801" d="M324.8,2041.316c-1.411,1.768,5.745,10.677,8.859,11.626s5.579-2.919,3.742-6.7C336.076,2043.528,326.31,2039.417,324.8,2041.316Z" transform="translate(-304.183 -2031.601)" fill="#a5b63d" stroke="#231815" stroke-miterlimit="10" stroke-width="0.25"/>
      <path id="Path_13802" data-name="Path 13802" d="M323.341,2048.615c1.452-1.953,11.949,2.314,13.593,5.094s-3.05,8.265-5.534,7.844C328.4,2061.045,321.782,2050.712,323.341,2048.615Z" transform="translate(-304.189 -2031.572)" fill="#a5b63d" stroke="#231815" stroke-miterlimit="10" stroke-width="0.25"/>
    </g>
  </g>
</svg>
