<svg xmlns="http://www.w3.org/2000/svg" width="304.181" height="362.633" viewBox="0 0 304.181 362.633">
  <g id="Group_3640" data-name="Group 3640" transform="translate(-2828.598 -158.431)">
    <g id="Group_3553" data-name="Group 3553" transform="translate(2950.753 158.559)">
      <g id="Group_3548" data-name="Group 3548" transform="translate(42.086 6.291)">
        <path id="Path_11904" data-name="Path 11904" d="M3010.333,165.766s4.33-1.761,7.983.67c0,0-.745,12.147-1.217,21.685,0,0-9.066,40.755-9.607,40.451s-6-9-6.652-9.2.36-18.036,2.288-28.725S3006.68,173.759,3010.333,165.766Z" transform="translate(-3000.641 -165.149)" fill="#ddd658" stroke="#000" stroke-linejoin="round" stroke-width="0.25"/>
        <path id="Path_11905" data-name="Path 11905" d="M3010.328,176.416a189.565,189.565,0,0,0-3.675,27.732" transform="translate(-3000.914 -165.66)" fill="none" stroke="#000" stroke-linejoin="round" stroke-width="0.25"/>
        <path id="Path_11906" data-name="Path 11906" d="M3013.716,179.251a52.487,52.487,0,0,0-1.133,9.51" transform="translate(-3001.182 -165.789)" fill="none" stroke="#000" stroke-linejoin="round" stroke-width="0.25"/>
      </g>
      <g id="Group_3549" data-name="Group 3549" transform="translate(0 21.785)">
        <path id="Path_11907" data-name="Path 11907" d="M2956.554,188.123s2.76-6.744,6.918-6.744c1.557,0,4.5,2.248,13.318,11.761s20.4,24,23.391,33.546l-1.9,4.463-7.063-3.533a32.266,32.266,0,0,0-6.542-11.724c-4.9-5.531-9.586-12.9-15.85-18.445A106.568,106.568,0,0,0,2956.554,188.123Z" transform="translate(-2956.554 -181.379)" fill="#ddd658" stroke="#000" stroke-linejoin="round" stroke-width="0.25"/>
        <path id="Path_11908" data-name="Path 11908" d="M2966.629,187.612a123.683,123.683,0,0,1,12.2,11.684c4.787,5.541,14.062,16.572,17.554,25.27" transform="translate(-2957.011 -181.662)" fill="none" stroke="#000" stroke-linejoin="round" stroke-width="0.25"/>
        <path id="Path_11909" data-name="Path 11909" d="M2964.358,190.213s7.167,3.782,14.364,13.117,11.893,13.621,15.146,21.354" transform="translate(-2956.908 -181.78)" fill="none" stroke="#000" stroke-linejoin="round" stroke-width="0.25"/>
      </g>
      <g id="Group_3550" data-name="Group 3550" transform="translate(30.726)">
        <path id="Path_11910" data-name="Path 11910" d="M3001.065,226.653c0-1.957-.524-5.9-2.933-12.166s-5.351-20.115-7.434-30.473a130.05,130.05,0,0,1-1.957-21.909,2.706,2.706,0,0,1,1.354-2.391,7.777,7.777,0,0,1,4.873-1.093,2.722,2.722,0,0,1,2.239,2.048,102.492,102.492,0,0,1,2.371,17.443c.843,13.009,3.853,31.076,4.938,38.3s1.325,8.593,1.325,8.593Z" transform="translate(-2988.74 -158.559)" fill="#ddd658" stroke="#000" stroke-linejoin="round" stroke-width="0.25"/>
        <path id="Path_11911" data-name="Path 11911" d="M2995.3,166.5s1.082,8.121,2.288,20.046,5.3,27.944,5.3,27.944" transform="translate(-2989.038 -158.919)" fill="none" stroke="#000" stroke-linejoin="round" stroke-width="0.25"/>
        <path id="Path_11912" data-name="Path 11912" d="M2991.891,166.5s1.686,10.891,2.649,19.2,3.614,24.33,5.9,28.788" transform="translate(-2988.884 -158.919)" fill="none" stroke="#000" stroke-linejoin="round" stroke-width="0.25"/>
      </g>
      <g id="Group_3551" data-name="Group 3551" transform="translate(53.487 27.116)">
        <path id="Path_11913" data-name="Path 11913" d="M3012.583,225.789c.12-.617,2.563-7.6,9.714-15.793a141.41,141.41,0,0,1,23-21.511,5.056,5.056,0,0,1,3.615-1.52c3.2.029,5.442,3.248,5.078,6.339s-2.355,3.824-6.179,7.124-12.781,12.781-16.029,17.6-8.562,13.987-9.538,18.007Z" transform="translate(-3012.583 -186.964)" fill="#ddd658" stroke="#000" stroke-linejoin="round" stroke-width="0.25"/>
        <path id="Path_11914" data-name="Path 11914" d="M3020.221,222.264A56.648,56.648,0,0,1,3031.737,207c6.892-6.368,15.528-14.132,15.528-14.132" transform="translate(-3012.93 -187.232)" fill="none" stroke="#000" stroke-linejoin="round" stroke-width="0.25"/>
        <path id="Path_11915" data-name="Path 11915" d="M3044.663,199.079s-8.9,9.508-12.213,14.219-6.138,9.684-6.138,9.684" transform="translate(-3013.206 -187.514)" fill="none" stroke="#000" stroke-linejoin="round" stroke-width="0.25"/>
      </g>
      <g id="Group_3552" data-name="Group 3552" transform="translate(46.551 5.487)">
        <path id="Path_11916" data-name="Path 11916" d="M3005.318,223.259a87.916,87.916,0,0,1,4.127-18.955,114.358,114.358,0,0,1,14-28.823c3.422-4.9,5.833-8.215,7.015-9.826a3.293,3.293,0,0,1,2.562-1.344,8.417,8.417,0,0,1,4.465,1.057,3.29,3.29,0,0,1,1.469,3.821,68.247,68.247,0,0,1-5.6,12.881c-4.769,8.574-11.77,20.9-13.766,33.023s-7.291,15.6-7.291,15.6Z" transform="translate(-3005.318 -164.306)" fill="#ddd658" stroke="#000" stroke-linejoin="round" stroke-width="0.25"/>
        <path id="Path_11917" data-name="Path 11917" d="M3011.555,215.594s.406-10.789,18.276-40.254" transform="translate(-3005.601 -164.807)" fill="none" stroke="#000" stroke-linejoin="round" stroke-width="0.25"/>
        <path id="Path_11918" data-name="Path 11918" d="M3017.082,211.861a193.088,193.088,0,0,1,14.885-34.706" transform="translate(-3005.852 -164.889)" fill="none" stroke="#000" stroke-linejoin="round" stroke-width="0.25"/>
      </g>
      <path id="Path_11919" data-name="Path 11919" d="M2992.353,229.138a3.859,3.859,0,0,1,4.142,0c2.243,1.36,3.907.341,5.437-1.664s4.146-2.31,6.659-.34,4.961-.494,8.461,2.624a14.962,14.962,0,0,1,4.417,6.449s-.362,13.677-.241,22.152-.9,18.98-.9,18.98l-3.424,19.738s-15.478,30.993-15.478,30.459-14.226,7.8-14.226,7.8-3.112-14.389-2.979-15.229.8-13.64,2.161-25.7,2.873-22.342,3.781-29.147,1.209-15.045,1.814-21.36S2991.215,232.635,2992.353,229.138Z" transform="translate(-2957.809 -161.61)" fill="#c19165" stroke="#000" stroke-linejoin="round" stroke-width="0.25"/>
      <path id="Path_11920" data-name="Path 11920" d="M2984.614,242.8c3.847-1.416,5.553-5.807,9.073-5.988" transform="translate(-2957.827 -162.109)" fill="none" stroke="#000" stroke-linejoin="round" stroke-width="0.25"/>
      <path id="Path_11921" data-name="Path 11921" d="M2991.864,244.281a21.154,21.154,0,0,0,3.82.815" transform="translate(-2958.156 -162.448)" fill="none" stroke="#000" stroke-linejoin="round" stroke-width="0.25"/>
      <path id="Path_11922" data-name="Path 11922" d="M3004.077,241.6a19.458,19.458,0,0,0,5.262,0" transform="translate(-2958.711 -162.327)" fill="none" stroke="#000" stroke-linejoin="round" stroke-width="0.25"/>
      <path id="Path_11923" data-name="Path 11923" d="M3010.654,248.709c.072,2.54,4.245,5.007,4.825,6.967" transform="translate(-2959.009 -162.649)" fill="none" stroke="#000" stroke-linejoin="round" stroke-width="0.25"/>
      <path id="Path_11924" data-name="Path 11924" d="M3003.507,257.186c3.629,2.685,13.5,2.031,18.117,0" transform="translate(-2958.684 -163.034)" fill="none" stroke="#000" stroke-linejoin="round" stroke-width="0.25"/>
      <path id="Path_11925" data-name="Path 11925" d="M2995.144,263.191a10.167,10.167,0,0,1,3.012.348" transform="translate(-2958.305 -163.306)" fill="none" stroke="#000" stroke-linejoin="round" stroke-width="0.25"/>
      <path id="Path_11926" data-name="Path 11926" d="M3005.028,269.122a12.932,12.932,0,0,0,5.589.4" transform="translate(-2958.753 -163.576)" fill="none" stroke="#000" stroke-linejoin="round" stroke-width="0.25"/>
      <path id="Path_11927" data-name="Path 11927" d="M3000.124,278.425s5.915,1.488,10.27-.218" transform="translate(-2958.531 -163.988)" fill="none" stroke="#000" stroke-linejoin="round" stroke-width="0.25"/>
      <path id="Path_11928" data-name="Path 11928" d="M3014.8,272.657c.254,3.012,2.322,4.209,1.887,6.117" transform="translate(-2959.197 -163.736)" fill="none" stroke="#000" stroke-linejoin="round" stroke-width="0.25"/>
      <path id="Path_11929" data-name="Path 11929" d="M2988.159,279.876a65.951,65.951,0,0,1,6.922,1.382,32.453,32.453,0,0,0,8.965.544" transform="translate(-2957.988 -164.064)" fill="none" stroke="#000" stroke-linejoin="round" stroke-width="0.25"/>
      <path id="Path_11930" data-name="Path 11930" d="M2979.249,296.348c3.495.046,6.258-6.306,10.181-5.69" transform="translate(-2957.584 -164.551)" fill="none" stroke="#000" stroke-linejoin="round" stroke-width="0.25"/>
      <path id="Path_11931" data-name="Path 11931" d="M2982.778,271.3c2.284-.01,3.495-6.438,7.649-7.254" transform="translate(-2957.744 -163.345)" fill="none" stroke="#000" stroke-linejoin="round" stroke-width="0.25"/>
      <path id="Path_11932" data-name="Path 11932" d="M2996.479,292.057c2.179-.5,10.488,3.624,15.612-.375" transform="translate(-2958.365 -164.599)" fill="none" stroke="#000" stroke-linejoin="round" stroke-width="0.25"/>
      <path id="Path_11933" data-name="Path 11933" d="M2993.223,304.207a14.409,14.409,0,0,0,10.309.687" transform="translate(-2958.218 -165.168)" fill="none" stroke="#000" stroke-linejoin="round" stroke-width="0.25"/>
      <path id="Path_11934" data-name="Path 11934" d="M2989.914,318.227c2.518.194,5.66,2.157,8.6.907" transform="translate(-2958.068 -165.804)" fill="none" stroke="#000" stroke-linejoin="round" stroke-width="0.25"/>
      <path id="Path_11935" data-name="Path 11935" d="M3017.806,242.04c1.712,2.837,6.26,3.717,8.118,5.136" transform="translate(-2959.333 -162.347)" fill="none" stroke="#000" stroke-linejoin="round" stroke-width="0.25"/>
    </g>
    <g id="Group_3554" data-name="Group 3554" transform="translate(2983.898 219.069)">
      <path id="Path_11936" data-name="Path 11936" d="M3046.06,222.326c5.388-.967,15.617-.959,21.308,10.9l-7.5,40.343-40.008,86.193-17.715-6.5-10.873-23.089A253.9,253.9,0,0,0,3007.5,302.1c6.513-13.7,13.48-27.023,16.813-37.172,3.085-9.394,11.935-26.86,17.052-38.884A6.294,6.294,0,0,1,3046.06,222.326Z" transform="translate(-2991.274 -221.945)" fill="#ecb36f" stroke="#000" stroke-linejoin="round" stroke-width="0.25"/>
      <path id="Path_11937" data-name="Path 11937" d="M3037.779,228.458c4.619.541,5.6-2.121,9.239-2.424" transform="translate(-2993.384 -222.13)" fill="none" stroke="#231815" stroke-miterlimit="10" stroke-width="0.25"/>
      <path id="Path_11938" data-name="Path 11938" d="M3054.8,236.814c.729.242,5.911,1.619,7.935,3.886" transform="translate(-2994.157 -222.62)" fill="none" stroke="#000" stroke-linejoin="round" stroke-width="0.25"/>
      <path id="Path_11939" data-name="Path 11939" d="M3041.594,231.142a13.381,13.381,0,0,0,5.6,1.771" transform="translate(-2993.557 -222.362)" fill="none" stroke="#000" stroke-linejoin="round" stroke-width="0.25"/>
      <path id="Path_11940" data-name="Path 11940" d="M3030.629,244.486c3.319.971,5.424-1.62,8.582-.81" transform="translate(-2993.06 -222.924)" fill="none" stroke="#000" stroke-linejoin="round" stroke-width="0.25"/>
      <path id="Path_11941" data-name="Path 11941" d="M3053.9,243c-2.429,4.21,1.944,7.287-1.052,10.363" transform="translate(-2994.068 -222.901)" fill="none" stroke="#000" stroke-linejoin="round" stroke-width="0.25"/>
      <path id="Path_11942" data-name="Path 11942" d="M3044.525,253.352c4.717,2.98,13.129,6.882,14.5,10.2" transform="translate(-2993.69 -223.37)" fill="none" stroke="#000" stroke-linejoin="round" stroke-width="0.25"/>
      <path id="Path_11943" data-name="Path 11943" d="M3061.2,234.384s4.2,1.025,5.517,2.7" transform="translate(-2994.447 -222.509)" fill="none" stroke="#000" stroke-linejoin="round" stroke-width="0.25"/>
      <path id="Path_11944" data-name="Path 11944" d="M3019.318,265.339c4.818-.768,6.715-7.119,11.97-5.951" transform="translate(-2992.547 -223.637)" fill="none" stroke="#000" stroke-linejoin="round" stroke-width="0.25"/>
      <path id="Path_11945" data-name="Path 11945" d="M3024,272.128a19.31,19.31,0,0,1,5.235,2.369" transform="translate(-2992.759 -224.222)" fill="none" stroke="#000" stroke-linejoin="round" stroke-width="0.25"/>
      <path id="Path_11946" data-name="Path 11946" d="M3037.9,264.038s3.649.823,5.255,2.283" transform="translate(-2993.389 -223.855)" fill="none" stroke="#000" stroke-linejoin="round" stroke-width="0.25"/>
      <path id="Path_11947" data-name="Path 11947" d="M3040.65,275.878c.292-.042,1.706.4,3.7,2.366" transform="translate(-2993.515 -224.392)" fill="none" stroke="#000" stroke-linejoin="round" stroke-width="0.25"/>
      <path id="Path_11948" data-name="Path 11948" d="M3049.816,264.038c-1.022,1.553,2.408,4.8,1.167,8.908" transform="translate(-2993.922 -223.855)" fill="none" stroke="#000" stroke-linejoin="round" stroke-width="0.25"/>
      <path id="Path_11949" data-name="Path 11949" d="M3036.177,283.264s-2.846.389-4.014,4.75" transform="translate(-2993.129 -224.727)" fill="none" stroke="#000" stroke-linejoin="round" stroke-width="0.25"/>
      <path id="Path_11950" data-name="Path 11950" d="M3029.946,290.668s9.271,3.691,13.43,10.567" transform="translate(-2993.029 -225.063)" fill="none" stroke="#000" stroke-linejoin="round" stroke-width="0.25"/>
      <path id="Path_11951" data-name="Path 11951" d="M3016.233,289.43s4.77.669,6.449,2.348" transform="translate(-2992.406 -225.007)" fill="none" stroke="#000" stroke-linejoin="round" stroke-width="0.25"/>
      <path id="Path_11952" data-name="Path 11952" d="M3012.237,297.671c2.076,1.473,10.994,3.511,14.569,9.324" transform="translate(-2992.225 -225.381)" fill="none" stroke="#000" stroke-linejoin="round" stroke-width="0.25"/>
      <path id="Path_11953" data-name="Path 11953" d="M3031.694,302.149c-.886,1.168,2.894,5.607,1.614,7.577" transform="translate(-2993.102 -225.584)" fill="none" stroke="#000" stroke-linejoin="round" stroke-width="0.25"/>
      <path id="Path_11954" data-name="Path 11954" d="M3029.946,310.344a8,8,0,0,1,2.548,2.548" transform="translate(-2993.029 -225.956)" fill="none" stroke="#000" stroke-linejoin="round" stroke-width="0.25"/>
      <path id="Path_11955" data-name="Path 11955" d="M3015.442,312.325s4.84,1.9,7.122,4.206" transform="translate(-2992.371 -226.046)" fill="none" stroke="#000" stroke-linejoin="round" stroke-width="0.25"/>
      <path id="Path_11956" data-name="Path 11956" d="M3011.073,319.177s9.233,3.2,12.571,6.7" transform="translate(-2992.172 -226.357)" fill="none" stroke="#000" stroke-linejoin="round" stroke-width="0.25"/>
      <path id="Path_11957" data-name="Path 11957" d="M3000.582,312.165c3.708,1.018,5.786-4.467,10.737-3.151" transform="translate(-2991.697 -225.886)" fill="none" stroke="#000" stroke-linejoin="round" stroke-width="0.25"/>
      <path id="Path_11958" data-name="Path 11958" d="M2998.063,324.591s9.192,1.976,13.92,7.428" transform="translate(-2991.582 -226.603)" fill="none" stroke="#000" stroke-linejoin="round" stroke-width="0.25"/>
      <path id="Path_11959" data-name="Path 11959" d="M3006.643,338.841c.667.055,13.014,6.771,15.825,12.648" transform="translate(-2991.971 -227.249)" fill="none" stroke="#000" stroke-linejoin="round" stroke-width="0.25"/>
      <path id="Path_11960" data-name="Path 11960" d="M3028.146,328.481s2.716,2.372,3.194,3.405" transform="translate(-2992.947 -226.779)" fill="none" stroke="#000" stroke-linejoin="round" stroke-width="0.25"/>
    </g>
    <g id="Group_3559" data-name="Group 3559" transform="translate(3001.115 161.946)">
      <g id="Group_3555" data-name="Group 3555" transform="translate(73.024 3.982)">
        <path id="Path_11961" data-name="Path 11961" d="M3089.938,209.166a176.992,176.992,0,0,1,9.27-22.785c5.473-10.833,9.158-18.763,11.615-20.1,0,0,9.271.894,11.951,7.148l-21.445,32.153s-9.716,18.777-10.945,18.441a49.045,49.045,0,0,1-4.579-1.9Z" transform="translate(-3085.805 -166.278)" fill="#ddd658" stroke="#000" stroke-linejoin="round" stroke-width="0.25"/>
        <path id="Path_11962" data-name="Path 11962" d="M3090.911,219.849s4.173-10.962,6.853-18.7,10.164-21.592,12.733-25.389" transform="translate(-3086.037 -166.708)" fill="none" stroke="#000" stroke-linejoin="round" stroke-width="0.25"/>
        <path id="Path_11963" data-name="Path 11963" d="M3114.959,177.627s-6.9,12.929-15.539,28.1" transform="translate(-3086.423 -166.793)" fill="none" stroke="#000" stroke-linejoin="round" stroke-width="0.25"/>
      </g>
      <path id="Path_11964" data-name="Path 11964" d="M3056.519,164.273c.267-2.086,6.392-2.9,6.694-1.4.544,2.7,1.919,7.035,4.5,14.446s4.511,24.65,7.894,37.378,5.1,19.116,4.169,24.632l-11.4,1.679a206.065,206.065,0,0,0-3.075-21.784c-2.218-10.916-5.252-23.873-5.953-31.461S3055.96,168.657,3056.519,164.273Z" transform="translate(-3011.448 -162.107)" fill="#ddd658" stroke="#000" stroke-linejoin="round" stroke-width="0.25"/>
      <path id="Path_11965" data-name="Path 11965" d="M3062.2,175.084c.391,4.562,2.678,15.543,6.293,27.065s5.309,26.525,6.874,31.864" transform="translate(-3011.71 -162.696)" fill="none" stroke="#000" stroke-linejoin="round" stroke-width="0.25"/>
      <path id="Path_11966" data-name="Path 11966" d="M3062.2,189.695s3.258,13.3,5.214,25.291,3.911,19.69,3.911,19.69" transform="translate(-3011.71 -163.359)" fill="none" stroke="#000" stroke-linejoin="round" stroke-width="0.25"/>
      <g id="Group_3556" data-name="Group 3556" transform="translate(65.987 0.571)">
        <path id="Path_11967" data-name="Path 11967" d="M3089.011,163.962c.913-1.434,4.824-1.564,5.476-.782s.912,11.993,0,24.377-5.084,31.874-6.388,38.1-2.476,12.742-2.476,12.742l-7.188-.7s2.756-17.812,3.929-26.156,5.083-21.9,5.605-30.505S3089.011,163.962,3089.011,163.962Z" transform="translate(-3078.434 -162.705)" fill="#ddd658" stroke="#000" stroke-linejoin="round" stroke-width="0.25"/>
        <path id="Path_11968" data-name="Path 11968" d="M3092.246,175.084s-.912,3.78-2.086,17.728-3.931,26.011-6.518,33.406" transform="translate(-3078.671 -163.267)" fill="none" stroke="#000" stroke-linejoin="round" stroke-width="0.25"/>
      </g>
      <g id="Group_3557" data-name="Group 3557" transform="translate(74.309 27.483)">
        <path id="Path_11969" data-name="Path 11969" d="M3087.151,239.678s4.733-3.455,10.86-12.742c6.079-9.216,26.786-29.819,43.533-36a.642.642,0,0,1,.707.176,9.085,9.085,0,0,1,1.713,8.57.651.651,0,0,1-.254.368,145.937,145.937,0,0,0-14.021,11.209c-6.127,5.736-16.946,13.3-22.421,19.555s-11.794,12.906-11.794,12.906S3088.284,244.763,3087.151,239.678Z" transform="translate(-3087.151 -190.896)" fill="#ddd658" stroke="#000" stroke-linejoin="round" stroke-width="0.25"/>
        <path id="Path_11970" data-name="Path 11970" d="M3095.867,236.176a88.321,88.321,0,0,1,15.747-17.982c8.823-7.929,11.727-13.737,22.114-20.327" transform="translate(-3087.546 -191.213)" fill="none" stroke="#000" stroke-linejoin="round" stroke-width="0.25"/>
        <path id="Path_11971" data-name="Path 11971" d="M3136.467,202.351s-15.3,11.132-21.387,17.163-12.337,11.277-13.012,15.19" transform="translate(-3087.828 -191.416)" fill="none" stroke="#000" stroke-linejoin="round" stroke-width="0.25"/>
      </g>
      <g id="Group_3558" data-name="Group 3558" transform="translate(70.862 4.652)">
        <path id="Path_11972" data-name="Path 11972" d="M3083.638,240.135c-.393-.781.284-7.147,4.3-15.524s10.718-19.1,15.3-27.14,20.216-28.145,23.454-30.491c0,0,5.026.335,6.478,4.468,0,0-.112,3.574-7.484,12.173a254.475,254.475,0,0,0-19.991,26.582c-5.138,8.041-6.809,14.742-10.385,20.327s-7.369,11.5-7.369,11.5Z" transform="translate(-3083.541 -166.98)" fill="#ddd658" stroke="#000" stroke-linejoin="round" stroke-width="0.25"/>
        <path id="Path_11973" data-name="Path 11973" d="M3093.878,227.588s6.477-14.073,13.626-24.013,10.945-16.419,15.636-20.215" transform="translate(-3084.009 -167.723)" fill="none" stroke="#000" stroke-linejoin="round" stroke-width="0.25"/>
        <path id="Path_11974" data-name="Path 11974" d="M3119.622,182.658s-9.047,10.945-15.749,20.438-11.219,17.535-11.219,17.535" transform="translate(-3083.954 -167.691)" fill="none" stroke="#000" stroke-linejoin="round" stroke-width="0.25"/>
      </g>
      <path id="Path_11975" data-name="Path 11975" d="M3036.363,414.358s-8.737,18.654-10.777,22.122-16.275-13.987-16.275-13.987,7.426-21.078,9.581-21.122,13.056,0,13.056,0Z" transform="translate(-3009.31 -172.963)" fill="#ecb36f" stroke="#000" stroke-linejoin="round" stroke-width="0.25"/>
      <path id="Path_11976" data-name="Path 11976" d="M3065.366,244.069c.6-1.273,1.309-2.556,2.6-2.057a3.133,3.133,0,0,0,3.92-.963c1.395-1.527,3.454.864,5.115,0s3.42-3.105,6.177-.523,3.222,2.882,7.075,2.716,3.52,2.856,2.291,5.944-3,8.122-5.133,14.75-8.265,24.794-10.311,32.487-23.245,68-23.245,68a103.529,103.529,0,0,1-5.309,13.013c-2.975,5.809-10.171,0-10.171,0s-22.883-10.891-22.387-11.3,3.8-12.423,7.933-21.538,6.115-15.536,9.585-23.151,8.594-21.5,13.222-32.074,10.572-24.772,12.913-30.238S3064.255,246.442,3065.366,244.069Z" transform="translate(-3009.613 -165.611)" fill="#ecb36f" stroke="#000" stroke-linejoin="round" stroke-width="0.25"/>
      <path id="Path_11977" data-name="Path 11977" d="M3069.191,251.685c-3.318-1.041-6.115,3.774-10.6,3.318" transform="translate(-3011.546 -166.165)" fill="none" stroke="#000" stroke-linejoin="round" stroke-width="0.25"/>
      <path id="Path_11978" data-name="Path 11978" d="M3077.5,251.752a7.757,7.757,0,0,0,4.3.741" transform="translate(-3012.404 -166.175)" fill="none" stroke="#000" stroke-linejoin="round" stroke-width="0.25"/>
      <path id="Path_11979" data-name="Path 11979" d="M3091.513,251.538c3.406.2,3.406,5.547,6.812,5.483" transform="translate(-3013.04 -166.165)" fill="none" stroke="#000" stroke-linejoin="round" stroke-width="0.25"/>
      <path id="Path_11980" data-name="Path 11980" d="M3087.945,256.676c.193.064,2.764,2.312,4.981,1.252" transform="translate(-3012.878 -166.398)" fill="none" stroke="#000" stroke-linejoin="round" stroke-width="0.25"/>
      <path id="Path_11981" data-name="Path 11981" d="M3073.2,259.907s10.74,7.421,16.807,4.963" transform="translate(-3012.209 -166.545)" fill="none" stroke="#000" stroke-linejoin="round" stroke-width="0.25"/>
      <path id="Path_11982" data-name="Path 11982" d="M3085.32,270.811c3.92,1.543.869,7.646,5,11.052" transform="translate(-3012.759 -167.04)" fill="none" stroke="#000" stroke-linejoin="round" stroke-width="0.25"/>
      <path id="Path_11983" data-name="Path 11983" d="M3070.714,271.888s4.288,4.113,8.634,3.791" transform="translate(-3012.096 -167.088)" fill="none" stroke="#000" stroke-linejoin="round" stroke-width="0.25"/>
      <path id="Path_11984" data-name="Path 11984" d="M3069.3,283.264s6.4,4.345,13.9,3.008" transform="translate(-3012.032 -167.605)" fill="none" stroke="#000" stroke-linejoin="round" stroke-width="0.25"/>
      <path id="Path_11985" data-name="Path 11985" d="M3058.182,286.683c.011-.025,3.225,3.1,6.051,2.969" transform="translate(-3011.528 -167.76)" fill="none" stroke="#000" stroke-linejoin="round" stroke-width="0.25"/>
      <path id="Path_11986" data-name="Path 11986" d="M3055.448,283.264c-5.783.514-8.032,7.068-12.465,7.068" transform="translate(-3010.838 -167.605)" fill="none" stroke="#000" stroke-linejoin="round" stroke-width="0.25"/>
      <path id="Path_11987" data-name="Path 11987" d="M3057.549,269.909s3.122,4.074,6.977,5.166" transform="translate(-3011.499 -166.999)" fill="none" stroke="#000" stroke-linejoin="round" stroke-width="0.25"/>
      <path id="Path_11988" data-name="Path 11988" d="M3046.774,295.056a9.654,9.654,0,0,0,4.474,2.986" transform="translate(-3011.01 -168.14)" fill="none" stroke="#000" stroke-linejoin="round" stroke-width="0.25"/>
      <path id="Path_11989" data-name="Path 11989" d="M3045.106,318.227c.674,0,5.673,5.524,11.212,4.5" transform="translate(-3010.934 -169.191)" fill="none" stroke="#000" stroke-linejoin="round" stroke-width="0.25"/>
      <path id="Path_11990" data-name="Path 11990" d="M3032.694,315.2c.312-.149,6.432-.836,8.93-2.584" transform="translate(-3010.371 -168.937)" fill="none" stroke="#000" stroke-linejoin="round" stroke-width="0.25"/>
      <path id="Path_11991" data-name="Path 11991" d="M3042.148,324.454c-.312-.375-4.87-1.338-6.151-2.886" transform="translate(-3010.521 -169.343)" fill="none" stroke="#000" stroke-linejoin="round" stroke-width="0.25"/>
      <path id="Path_11992" data-name="Path 11992" d="M3032.653,334.467c-6.307-.374-6.868,4.934-11.865,6.807" transform="translate(-3009.831 -169.927)" fill="none" stroke="#000" stroke-linejoin="round" stroke-width="0.25"/>
      <path id="Path_11993" data-name="Path 11993" d="M3041.067,332.048a6.971,6.971,0,0,0,3,2.292" transform="translate(-3010.751 -169.818)" fill="none" stroke="#000" stroke-linejoin="round" stroke-width="0.25"/>
      <path id="Path_11994" data-name="Path 11994" d="M3047.821,336.449c-2.123,4.6-7.557,7.164-7.931,9.787" transform="translate(-3010.698 -170.018)" fill="none" stroke="#000" stroke-linejoin="round" stroke-width="0.25"/>
      <path id="Path_11995" data-name="Path 11995" d="M3028.556,339.5a12.2,12.2,0,0,0,6.2,3.816" transform="translate(-3010.183 -170.156)" fill="none" stroke="#000" stroke-linejoin="round" stroke-width="0.25"/>
      <path id="Path_11996" data-name="Path 11996" d="M3041.067,351.019s8.416,6.177,15.292,6.3" transform="translate(-3010.751 -170.679)" fill="none" stroke="#000" stroke-linejoin="round" stroke-width="0.25"/>
      <path id="Path_11997" data-name="Path 11997" d="M3016.433,354.774c2.058,1,4.938-4.172,10.09-4.4" transform="translate(-3009.633 -170.65)" fill="none" stroke="#000" stroke-linejoin="round" stroke-width="0.25"/>
      <path id="Path_11998" data-name="Path 11998" d="M3025.531,414.976c.642.214,1.36,1.049,2.767,2.345" transform="translate(-3010.046 -173.581)" fill="none" stroke="#231815" stroke-miterlimit="10" stroke-width="0.25"/>
      <path id="Path_11999" data-name="Path 11999" d="M3032.626,419.125c0,4.6,6.165,6.791,4.514,11.264" transform="translate(-3010.368 -173.769)" fill="none" stroke="#231815" stroke-miterlimit="10" stroke-width="0.25"/>
      <path id="Path_12000" data-name="Path 12000" d="M3026.092,423.5s3,3.784,4.924,4.836" transform="translate(-3010.072 -173.968)" fill="none" stroke="#231815" stroke-miterlimit="10" stroke-width="0.25"/>
      <path id="Path_12001" data-name="Path 12001" d="M3018.644,411.5a22.671,22.671,0,0,0,3.931,5.664" transform="translate(-3009.734 -173.423)" fill="none" stroke="#231815" stroke-miterlimit="10" stroke-width="0.25"/>
      <path id="Path_12002" data-name="Path 12002" d="M3022.669,421.592c-1.966,2.462-.113,4.9-1.966,6.409" transform="translate(-3009.827 -173.881)" fill="none" stroke="#231815" stroke-miterlimit="10" stroke-width="0.25"/>
      <path id="Path_12003" data-name="Path 12003" d="M3029.162,431.115c-1.083.542-1.583,2.043,0,6.274" transform="translate(-3010.165 -174.313)" fill="none" stroke="#231815" stroke-miterlimit="10" stroke-width="0.25"/>
    </g>
    <ellipse id="Ellipse_2097" data-name="Ellipse 2097" cx="4.497" cy="1.964" rx="4.497" ry="1.964" transform="translate(2838.24 431.142)" fill="#ecb36f" stroke="#000" stroke-linejoin="round" stroke-width="0.25"/>
    <ellipse id="Ellipse_2098" data-name="Ellipse 2098" cx="5.174" cy="2.504" rx="5.174" ry="2.504" transform="translate(2869.841 465.971)" fill="#ecb36f" stroke="#000" stroke-linejoin="round" stroke-width="0.25"/>
    <ellipse id="Ellipse_2099" data-name="Ellipse 2099" cx="3.004" cy="1.558" rx="3.004" ry="1.558" transform="translate(2883.973 460.963)" fill="#c19165" stroke="#000" stroke-linejoin="round" stroke-width="0.25"/>
    <ellipse id="Ellipse_2100" data-name="Ellipse 2100" cx="4.505" cy="2.148" rx="4.505" ry="2.148" transform="translate(2920.301 463.587)" fill="#c19165" stroke="#000" stroke-linejoin="round" stroke-width="0.25"/>
    <ellipse id="Ellipse_2101" data-name="Ellipse 2101" cx="5.007" cy="2.782" rx="5.007" ry="2.782" transform="translate(2938.831 511.593)" fill="#c19165" stroke="#000" stroke-linejoin="round" stroke-width="0.25"/>
    <ellipse id="Ellipse_2102" data-name="Ellipse 2102" cx="3.449" cy="2.114" rx="3.449" ry="2.114" transform="translate(2954.631 502.579)" fill="#c19165" stroke="#000" stroke-linejoin="round" stroke-width="0.25"/>
    <ellipse id="Ellipse_2103" data-name="Ellipse 2103" cx="3.616" cy="2.059" rx="3.616" ry="2.059" transform="matrix(0.984, -0.177, 0.177, 0.984, 2985.665, 499.8)" fill="#ecb36f" stroke="#000" stroke-linejoin="round" stroke-width="0.25"/>
    <ellipse id="Ellipse_2104" data-name="Ellipse 2104" cx="4.618" cy="2.17" rx="4.618" ry="2.17" transform="translate(3054.555 516.6)" fill="#c19165" stroke="#000" stroke-linejoin="round" stroke-width="0.25"/>
    <ellipse id="Ellipse_2105" data-name="Ellipse 2105" cx="2.863" cy="1.669" rx="2.863" ry="1.669" transform="translate(3065.428 510.591)" fill="#ecb36f" stroke="#000" stroke-linejoin="round" stroke-width="0.25"/>
    <path id="Path_12004" data-name="Path 12004" d="M3044.084,526.481c.977-.065,3.714.521,4.691,0" transform="translate(-9.772 -16.694)" fill="none" stroke="#231815" stroke-miterlimit="10" stroke-width="0.25"/>
    <path id="Path_12005" data-name="Path 12005" d="M2993.98,527.243c12.772-6.191,23.524.847,29.65-2.151" transform="translate(-7.499 -16.609)" fill="none" stroke="#231815" stroke-miterlimit="10" stroke-width="0.25"/>
    <path id="Path_12006" data-name="Path 12006" d="M2930,494.082c8.168-6.437,17.747,1.263,29.224-1.336" transform="translate(-4.596 -15.105)" fill="none" stroke="#231815" stroke-miterlimit="10" stroke-width="0.25"/>
    <path id="Path_12007" data-name="Path 12007" d="M2970.141,498.973c.594-.149,5.049.3,6.163-1.188" transform="translate(-6.417 -15.393)" fill="none" stroke="#231815" stroke-miterlimit="10" stroke-width="0.25"/>
    <path id="Path_12008" data-name="Path 12008" d="M2897.467,507.418c4.107-3.583,17.04,2.01,21.234,0" transform="translate(-3.119 -15.774)" fill="none" stroke="#231815" stroke-miterlimit="10" stroke-width="0.25"/>
    <path id="Path_12009" data-name="Path 12009" d="M2877.786,518c7.078-4.893,19.573.7,24.119-1.485" transform="translate(-2.226 -16.216)" fill="none" stroke="#231815" stroke-miterlimit="10" stroke-width="0.25"/>
    <path id="Path_12010" data-name="Path 12010" d="M2857.19,460.494c2.9,1.266,7.89-.006,12.808-1.565,7.521-2.383,16.234,2.83,23.384,0" transform="translate(-1.292 -13.6)" fill="none" stroke="#231815" stroke-miterlimit="10" stroke-width="0.25"/>
    <path id="Path_12011" data-name="Path 12011" d="M2903.917,462.485s2.159-.457,5.361-1.346" transform="translate(-3.412 -13.73)" fill="none" stroke="#231815" stroke-miterlimit="10" stroke-width="0.25"/>
    <ellipse id="Ellipse_2106" data-name="Ellipse 2106" cx="2.384" cy="1.289" rx="2.384" ry="1.289" transform="translate(3035.276 412.441)" fill="#ecb36f" stroke="#000" stroke-linejoin="round" stroke-width="0.25"/>
    <ellipse id="Ellipse_2107" data-name="Ellipse 2107" cx="2.831" cy="1.501" rx="2.831" ry="1.501" transform="translate(3099.436 398.38)" fill="#ecb36f" stroke="#000" stroke-linejoin="round" stroke-width="0.25"/>
    <ellipse id="Ellipse_2108" data-name="Ellipse 2108" cx="4.16" cy="1.458" rx="4.16" ry="1.458" transform="translate(3104.583 428.916)" fill="#c19165" stroke="#000" stroke-linejoin="round" stroke-width="0.25"/>
    <ellipse id="Ellipse_2109" data-name="Ellipse 2109" cx="2.059" cy="1.337" rx="2.059" ry="1.337" transform="translate(3115.734 434.647)" fill="#c19165" stroke="#000" stroke-linejoin="round" stroke-width="0.25"/>
    <path id="Path_12012" data-name="Path 12012" d="M3106.1,421.354a19.394,19.394,0,0,1,8.749.344c4.975,1.286,6.476,1.115,6.476,1.115" transform="translate(-12.587 -11.909)" fill="none" stroke="#231815" stroke-miterlimit="10" stroke-width="0.25"/>
    <path id="Path_12013" data-name="Path 12013" d="M3108.789,466.556c6.775-3.037,17.17,1.838,20.907-.483" transform="translate(-12.709 -13.929)" fill="none" stroke="#231815" stroke-miterlimit="10" stroke-width="0.25"/>
    <path id="Path_12014" data-name="Path 12014" d="M3045.094,435.611a13.792,13.792,0,0,1,6.444-.039" transform="translate(-9.818 -12.554)" fill="none" stroke="#231815" stroke-miterlimit="10" stroke-width="0.25"/>
    <g id="Group_3560" data-name="Group 3560" transform="translate(3040.786 291.848)">
      <path id="Path_12015" data-name="Path 12015" d="M3052.7,307.238s.53,4.307.943,10.3.527,13.423,2.123,22.3.562,14.869,1.7,21.169,1.637,18.472,2.625,24.157,2.434,26.75,3.364,34.082,1.652,20.445,4.337,30.152,3.1,28.4,3.1,28.4l26.022,6.566s-.31-18-.724-25.343.1-20.358-1.031-28.413-3.006-23.459-4.073-34.919,0-19.378-1.246-25.025-1.957-25.394-2.135-30.554-1.423-16.544-.534-25.795-1.341-13.4-1.341-13.4Z" transform="translate(-3050.949 -298.307)" fill="#c19165" stroke="#000" stroke-linejoin="round" stroke-width="0.25"/>
      <path id="Path_12016" data-name="Path 12016" d="M3052.7,307.115c-1-3.681,5.172-5.456,9.069-6.943s11.266-1.842,17.5-1.985,9.5,4.323,4.535,7.086-14.241,4.818-19.626,4.959S3053.758,311.012,3052.7,307.115Z" transform="translate(-3050.944 -298.184)" fill="#ecb36f" stroke="#000" stroke-linejoin="round" stroke-width="0.25"/>
      <path id="Path_12017" data-name="Path 12017" d="M3056.625,306.212c-.553-.719.264-1.983,2.777-2.643s4.451-.882,9.563-1.807,11.37-1.983,12.163-.705-1.675,2.38-5.553,3.966-8.2.221-10.972,1.014S3057.947,307.931,3056.625,306.212Z" transform="translate(-3051.12 -298.287)" fill="#c19165" stroke="#000" stroke-linejoin="round" stroke-width="0.25"/>
      <path id="Path_12018" data-name="Path 12018" d="M3065.958,307.438a4.019,4.019,0,0,0,.441,1.514" transform="translate(-3051.551 -298.604)" fill="none" stroke="#231815" stroke-miterlimit="10" stroke-width="0.25"/>
      <path id="Path_12019" data-name="Path 12019" d="M3071.59,307.224a5.276,5.276,0,0,1,.661,1.41" transform="translate(-3051.806 -298.594)" fill="none" stroke="#231815" stroke-miterlimit="10" stroke-width="0.25"/>
      <path id="Path_12020" data-name="Path 12020" d="M3075.837,306.624a2.5,2.5,0,0,0,.793,1.278" transform="translate(-3051.999 -298.567)" fill="none" stroke="#231815" stroke-miterlimit="10" stroke-width="0.25"/>
      <path id="Path_12021" data-name="Path 12021" d="M3082.207,304.362a2.162,2.162,0,0,0,1.146.837" transform="translate(-3052.288 -298.464)" fill="none" stroke="#231815" stroke-miterlimit="10" stroke-width="0.25"/>
      <path id="Path_12022" data-name="Path 12022" d="M3084.238,302.054c.133,0,1.147.088,1.366.485" transform="translate(-3052.38 -298.359)" fill="none" stroke="#231815" stroke-miterlimit="10" stroke-width="0.25"/>
      <path id="Path_12023" data-name="Path 12023" d="M3061.019,308.7a3.391,3.391,0,0,1,.22,1.322" transform="translate(-3051.326 -298.661)" fill="none" stroke="#231815" stroke-miterlimit="10" stroke-width="0.25"/>
      <path id="Path_12024" data-name="Path 12024" d="M3055.912,308.982a2.177,2.177,0,0,0,.9-.877" transform="translate(-3051.095 -298.634)" fill="none" stroke="#231815" stroke-miterlimit="10" stroke-width="0.25"/>
      <path id="Path_12025" data-name="Path 12025" d="M3054.239,305.631a1.643,1.643,0,0,0,1.357.176" transform="translate(-3051.019 -298.522)" fill="none" stroke="#231815" stroke-miterlimit="10" stroke-width="0.25"/>
      <path id="Path_12026" data-name="Path 12026" d="M3060.882,301.737a1.535,1.535,0,0,1,.459.788" transform="translate(-3051.321 -298.345)" fill="none" stroke="#231815" stroke-miterlimit="10" stroke-width="0.25"/>
      <path id="Path_12027" data-name="Path 12027" d="M3066.976,299.973a1.126,1.126,0,0,1,.371.9" transform="translate(-3051.597 -298.265)" fill="none" stroke="#231815" stroke-miterlimit="10" stroke-width="0.25"/>
      <path id="Path_12028" data-name="Path 12028" d="M3066.189,303.952s.184.845,1.758.81" transform="translate(-3051.561 -298.445)" fill="none" stroke="#231815" stroke-miterlimit="10" stroke-width="0.25"/>
      <path id="Path_12029" data-name="Path 12029" d="M3071.1,302.308a2.342,2.342,0,0,1-.14,1.569" transform="translate(-3051.778 -298.371)" fill="none" stroke="#231815" stroke-miterlimit="10" stroke-width="0.25"/>
      <path id="Path_12030" data-name="Path 12030" d="M3074.7,303.13s.39.931,1.087.965" transform="translate(-3051.948 -298.408)" fill="none" stroke="#231815" stroke-miterlimit="10" stroke-width="0.25"/>
      <path id="Path_12031" data-name="Path 12031" d="M3084.238,315.329c2.648-.093,4.34,3.992,8.333,3.653" transform="translate(-3052.38 -298.962)" fill="none" stroke="#231815" stroke-miterlimit="10" stroke-width="0.25"/>
      <path id="Path_12032" data-name="Path 12032" d="M3066.42,333.118a27.936,27.936,0,0,0,10.456-1.488" transform="translate(-3051.572 -299.701)" fill="none" stroke="#231815" stroke-miterlimit="10" stroke-width="0.25"/>
      <path id="Path_12033" data-name="Path 12033" d="M3084.744,336.449c2.369,0,5.075,4.939,7.037,4.128" transform="translate(-3052.403 -299.92)" fill="none" stroke="#231815" stroke-miterlimit="10" stroke-width="0.25"/>
      <path id="Path_12034" data-name="Path 12034" d="M3056.58,335.315c-3.962.745-2.33,6.293-5.714,7.308" transform="translate(-3050.866 -299.868)" fill="none" stroke="#231815" stroke-miterlimit="10" stroke-width="0.25"/>
      <path id="Path_12035" data-name="Path 12035" d="M3056.752,348.5c.011.153,4.868,2.03,7.913,1.218" transform="translate(-3051.133 -300.467)" fill="none" stroke="#231815" stroke-miterlimit="10" stroke-width="0.25"/>
      <path id="Path_12036" data-name="Path 12036" d="M3082.334,349.745c.812-.338,5.143-1.353,7.24-5.074" transform="translate(-3052.294 -300.293)" fill="none" stroke="#231815" stroke-miterlimit="10" stroke-width="0.25"/>
      <path id="Path_12037" data-name="Path 12037" d="M3086.8,360.051c2.232,3.721,8.457,3.653,9.134,8.389" transform="translate(-3052.497 -300.991)" fill="none" stroke="#231815" stroke-miterlimit="10" stroke-width="0.25"/>
      <path id="Path_12038" data-name="Path 12038" d="M3070.782,360.862a5.143,5.143,0,0,0,3.585-.811" transform="translate(-3051.77 -300.991)" fill="none" stroke="#231815" stroke-miterlimit="10" stroke-width="0.25"/>
      <path id="Path_12039" data-name="Path 12039" d="M3078.011,374.513a11.984,11.984,0,0,0,8.8-1.489,8.594,8.594,0,0,1,3.8-1.421" transform="translate(-3052.098 -301.515)" fill="none" stroke="#231815" stroke-miterlimit="10" stroke-width="0.25"/>
      <path id="Path_12040" data-name="Path 12040" d="M3059.377,379.682c.535.271,4.188,2.03,7.166,1.218" transform="translate(-3051.252 -301.882)" fill="none" stroke="#231815" stroke-miterlimit="10" stroke-width="0.25"/>
      <path id="Path_12041" data-name="Path 12041" d="M3071.7,387.25s4.128.88,6.427-.338" transform="translate(-3051.812 -302.21)" fill="none" stroke="#231815" stroke-miterlimit="10" stroke-width="0.25"/>
      <path id="Path_12042" data-name="Path 12042" d="M3088.713,385.282c1.015,5.345,7.037,6.427,6.969,10.69" transform="translate(-3052.583 -302.136)" fill="none" stroke="#231815" stroke-miterlimit="10" stroke-width="0.25"/>
      <path id="Path_12043" data-name="Path 12043" d="M3066.4,398.124s4.451.516,7.225-1.127" transform="translate(-3051.572 -302.667)" fill="none" stroke="#231815" stroke-miterlimit="10" stroke-width="0.25"/>
      <path id="Path_12044" data-name="Path 12044" d="M3074.75,408.407s11.736-.47,17.438-7.035" transform="translate(-3051.949 -302.866)" fill="none" stroke="#231815" stroke-miterlimit="10" stroke-width="0.25"/>
      <path id="Path_12045" data-name="Path 12045" d="M3053.859,320.127c.628-.662,4.128.2,6.7-.95" transform="translate(-3051.002 -299.136)" fill="none" stroke="#231815" stroke-miterlimit="10" stroke-width="0.25"/>
      <path id="Path_12046" data-name="Path 12046" d="M3069.143,316.626c.505-1.1,3.352-.872,4.958-2.2" transform="translate(-3051.695 -298.92)" fill="none" stroke="#231815" stroke-miterlimit="10" stroke-width="0.25"/>
      <path id="Path_12047" data-name="Path 12047" d="M3078.81,327.527c1.194.23,6.559-2.02,9.225-4.591" transform="translate(-3052.134 -299.307)" fill="none" stroke="#231815" stroke-miterlimit="10" stroke-width="0.25"/>
      <path id="Path_12048" data-name="Path 12048" d="M3077.938,418.29c.675-.169,3.865.056,5.676-1.8" transform="translate(-3052.095 -303.552)" fill="none" stroke="#231815" stroke-miterlimit="10" stroke-width="0.25"/>
      <path id="Path_12049" data-name="Path 12049" d="M3065.464,424.509c-.394,4.166-5.011,4.9-5.573,10.616" transform="translate(-3051.275 -303.916)" fill="none" stroke="#231815" stroke-miterlimit="10" stroke-width="0.25"/>
      <path id="Path_12050" data-name="Path 12050" d="M3065.069,435.368s8.906,3.765,15.832,2.527" transform="translate(-3051.51 -304.408)" fill="none" stroke="#231815" stroke-miterlimit="10" stroke-width="0.25"/>
      <path id="Path_12051" data-name="Path 12051" d="M3080.819,424.745c-2.443,3.322-.023,5.574-1.938,8.839" transform="translate(-3052.137 -303.926)" fill="none" stroke="#231815" stroke-miterlimit="10" stroke-width="0.25"/>
      <path id="Path_12052" data-name="Path 12052" d="M3093.017,430.924c1.725,4.492,8.065,5.438,7.642,11.764" transform="translate(-3052.778 -304.207)" fill="none" stroke="#231815" stroke-miterlimit="10" stroke-width="0.25"/>
      <path id="Path_12053" data-name="Path 12053" d="M3068.1,446.154c-4.142,2.03-1.021,6.256-5.286,8.538" transform="translate(-3051.408 -304.898)" fill="none" stroke="#231815" stroke-miterlimit="10" stroke-width="0.25"/>
      <path id="Path_12054" data-name="Path 12054" d="M3079.505,447.535a14.684,14.684,0,0,0,7.563-.761" transform="translate(-3052.166 -304.926)" fill="none" stroke="#231815" stroke-miterlimit="10" stroke-width="0.25"/>
      <path id="Path_12055" data-name="Path 12055" d="M3068.508,456.456s5.927,3.1,9.9,3.015" transform="translate(-3051.666 -305.365)" fill="none" stroke="#231815" stroke-miterlimit="10" stroke-width="0.25"/>
      <path id="Path_12056" data-name="Path 12056" d="M3097.316,464.39s-11.809,3.3-17.811.512" transform="translate(-3052.166 -305.725)" fill="none" stroke="#231815" stroke-miterlimit="10" stroke-width="0.25"/>
      <path id="Path_12057" data-name="Path 12057" d="M3083.466,470.416a6.967,6.967,0,0,0,5.94,0" transform="translate(-3052.345 -305.999)" fill="none" stroke="#231815" stroke-miterlimit="10" stroke-width="0.25"/>
      <path id="Path_12058" data-name="Path 12058" d="M3082.909,460.035a3.394,3.394,0,0,0,2.566,0" transform="translate(-3052.32 -305.528)" fill="none" stroke="#231815" stroke-miterlimit="10" stroke-width="0.25"/>
    </g>
    <g id="Group_3565" data-name="Group 3565" transform="translate(2828.718 364.2)">
      <g id="Group_3561" data-name="Group 3561" transform="translate(0 19.369)">
        <path id="Path_12059" data-name="Path 12059" d="M3074.431,518.326s-10.789-5.057-19.35-9.06-21.677-8.837-32.447-13.117-29.133-12.012-38.936-18.226-46.413-24.145-61.422-31.651-23.338-8.909-43.107-19.129-34.68-18.261-41.549-21.11-9.11-4.524-8.888-6.08,3.408-2.816,9.781-.518,13.413,2.371,19.563,3.335,10.374,1.7,15.562.815,44.288,11.664,60.762,20.04,30.069,12.446,40.522,17.117,40.1,16.919,64.9,23.725,35.118,11.976,47.677,16.886Z" transform="translate(-2828.718 -394.443)" fill="#ecb36f" stroke="#000" stroke-linejoin="round" stroke-width="0.25"/>
        <path id="Path_12060" data-name="Path 12060" d="M3098.986,485.3c4.809,1.336,5.608,10.121,4.65,15.729s-1.23,13.813-9.438,19.284-12.446.411-12.31-6.154-.136-12.31,4.1-19.011S3094.062,483.929,3098.986,485.3Z" transform="translate(-2840.206 -398.385)" fill="#fff6eb" stroke="#000" stroke-miterlimit="10" stroke-width="0.25"/>
        <path id="Path_12061" data-name="Path 12061" d="M3096.669,490.034c3.494-.776,5.333,5.881,4.377,10.669s-3.321,13.485-9.437,17.507-7.25-4.1-6.156-9.3,3.147-8.206,5.471-12.036S3092.976,490.855,3096.669,490.034Z" transform="translate(-2840.351 -398.608)" fill="#ecb36f" stroke="#000" stroke-linejoin="round" stroke-width="0.25"/>
        <path id="Path_12062" data-name="Path 12062" d="M3095.548,494.671c1.431-.525,3.777-1.448,4.218,1.385s-1.133,3.8-2.11,8.762-6.642,13.336-8.719,12.077-2.959-4.408-1.574-7.24,2.267-6.612,3.525-9.256S3093.529,495.412,3095.548,494.671Z" transform="translate(-2840.424 -398.795)" fill="#fff6eb" stroke="#000" stroke-miterlimit="10" stroke-width="0.25"/>
        <path id="Path_12063" data-name="Path 12063" d="M3064.381,482.026s2-5.53,6.392-7.914" transform="translate(-2839.412 -397.888)" fill="none" stroke="#231815" stroke-miterlimit="10" stroke-width="0.25"/>
        <path id="Path_12064" data-name="Path 12064" d="M3065.766,494.712a20.817,20.817,0,0,0-2.908,9.57" transform="translate(-2839.342 -398.823)" fill="none" stroke="#231815" stroke-miterlimit="10" stroke-width="0.25"/>
        <path id="Path_12065" data-name="Path 12065" d="M3048.394,506.892a14.755,14.755,0,0,1,2.056-7.865" transform="translate(-2838.686 -399.019)" fill="none" stroke="#231815" stroke-miterlimit="10" stroke-width="0.25"/>
        <path id="Path_12066" data-name="Path 12066" d="M3048.386,491.777s2.064-5.414,4.85-8.36" transform="translate(-2838.686 -398.31)" fill="none" stroke="#231815" stroke-miterlimit="10" stroke-width="0.25"/>
        <path id="Path_12067" data-name="Path 12067" d="M3055.878,491.946s1.735,0,3.513-3.393c1.36-2.595,4.119-.788,4.119-.788" transform="translate(-2839.026 -398.48)" fill="none" stroke="#231815" stroke-miterlimit="10" stroke-width="0.25"/>
        <path id="Path_12068" data-name="Path 12068" d="M3077.579,486.9a13.315,13.315,0,0,1,5.088-5.769" transform="translate(-2840.01 -398.207)" fill="none" stroke="#231815" stroke-miterlimit="10" stroke-width="0.25"/>
        <path id="Path_12069" data-name="Path 12069" d="M3077.538,496.869a14.74,14.74,0,0,0-.848,4.362" transform="translate(-2839.969 -398.921)" fill="none" stroke="#231815" stroke-miterlimit="10" stroke-width="0.25"/>
        <path id="Path_12070" data-name="Path 12070" d="M3061.46,508.545c.121.364-.121,2.747,0,3.858" transform="translate(-2839.278 -399.451)" fill="none" stroke="#231815" stroke-miterlimit="10" stroke-width="0.25"/>
        <path id="Path_12071" data-name="Path 12071" d="M3060.624,475.169c-6.222-5.144-.955-7.521-5.312-11.2" transform="translate(-2839 -397.428)" fill="none" stroke="#231815" stroke-miterlimit="10" stroke-width="0.25"/>
        <path id="Path_12072" data-name="Path 12072" d="M3087.267,474.544c1.861,3.545-3.01,5.307.91,8.871" transform="translate(-2840.42 -397.908)" fill="none" stroke="#231815" stroke-miterlimit="10" stroke-width="0.25"/>
        <path id="Path_12073" data-name="Path 12073" d="M3072.615,512.108c-5.917.456-2.547,7.081-8.743,7.76" transform="translate(-2839.388 -399.612)" fill="none" stroke="#231815" stroke-miterlimit="10" stroke-width="0.25"/>
        <path id="Path_12074" data-name="Path 12074" d="M3001.466,486.9s-1.53-3.342,3.805-11.877" transform="translate(-2836.547 -397.929)" fill="none" stroke="#231815" stroke-miterlimit="10" stroke-width="0.25"/>
        <path id="Path_12075" data-name="Path 12075" d="M2979.247,481.066c7.507,1.358,6.418-4.145,11.64-3.708" transform="translate(-2835.548 -398.034)" fill="none" stroke="#231815" stroke-miterlimit="10" stroke-width="0.25"/>
        <path id="Path_12076" data-name="Path 12076" d="M2969.882,469.64s.863-6.954,4.678-11.8" transform="translate(-2835.124 -397.15)" fill="none" stroke="#231815" stroke-miterlimit="10" stroke-width="0.25"/>
        <path id="Path_12077" data-name="Path 12077" d="M2967.589,460.4c2.452,2.507,6.43.2,11.443,3.45" transform="translate(-2835.02 -397.266)" fill="none" stroke="#231815" stroke-miterlimit="10" stroke-width="0.25"/>
        <path id="Path_12078" data-name="Path 12078" d="M2962.769,447.661a15.542,15.542,0,0,0-2.355,8.061" transform="translate(-2834.694 -396.688)" fill="none" stroke="#231815" stroke-miterlimit="10" stroke-width="0.25"/>
        <path id="Path_12079" data-name="Path 12079" d="M2957.508,439.786s-4.438,4.438-5.254,9.963" transform="translate(-2834.324 -396.331)" fill="none" stroke="#231815" stroke-miterlimit="10" stroke-width="0.25"/>
        <path id="Path_12080" data-name="Path 12080" d="M2943.9,449.464s-2.389,4.075-2.01,6.34" transform="translate(-2833.852 -396.77)" fill="none" stroke="#231815" stroke-miterlimit="10" stroke-width="0.25"/>
        <path id="Path_12081" data-name="Path 12081" d="M2968.954,446.541a20.027,20.027,0,0,1,3.424-7.6" transform="translate(-2835.082 -396.292)" fill="none" stroke="#231815" stroke-miterlimit="10" stroke-width="0.25"/>
        <path id="Path_12082" data-name="Path 12082" d="M2982.455,459.865c-.027-.118,4.049-6.006,4.23-11.35" transform="translate(-2835.694 -396.727)" fill="none" stroke="#231815" stroke-miterlimit="10" stroke-width="0.25"/>
        <path id="Path_12083" data-name="Path 12083" d="M2990.992,464.018a21.257,21.257,0,0,0-1.449,5.9" transform="translate(-2836.016 -397.43)" fill="none" stroke="#231815" stroke-miterlimit="10" stroke-width="0.25"/>
        <path id="Path_12084" data-name="Path 12084" d="M2918,449.337c3.441,1.54,5.525-3.8,9.419-2.446" transform="translate(-2832.77 -396.643)" fill="none" stroke="#231815" stroke-miterlimit="10" stroke-width="0.25"/>
        <path id="Path_12085" data-name="Path 12085" d="M2927.4,439.566s.634-3.261,2.355-4.62" transform="translate(-2833.196 -396.111)" fill="none" stroke="#231815" stroke-miterlimit="10" stroke-width="0.25"/>
        <path id="Path_12086" data-name="Path 12086" d="M2937.074,449.081a19.105,19.105,0,0,1,3.623-8.062" transform="translate(-2833.635 -396.387)" fill="none" stroke="#231815" stroke-miterlimit="10" stroke-width="0.25"/>
        <path id="Path_12087" data-name="Path 12087" d="M2881.567,428.321a9.092,9.092,0,0,1,1.754-4.2" transform="translate(-2831.116 -395.62)" fill="none" stroke="#231815" stroke-miterlimit="10" stroke-width="0.25"/>
        <path id="Path_12088" data-name="Path 12088" d="M2878.094,418.346s1.34-6.527,6.469-9.674" transform="translate(-2830.959 -394.919)" fill="none" stroke="#231815" stroke-miterlimit="10" stroke-width="0.25"/>
        <path id="Path_12089" data-name="Path 12089" d="M2869.547,420.466a7.585,7.585,0,0,1,1.923-4.9" transform="translate(-2830.571 -395.232)" fill="none" stroke="#231815" stroke-miterlimit="10" stroke-width="0.25"/>
        <path id="Path_12090" data-name="Path 12090" d="M2858.615,413.54a9.264,9.264,0,0,1,.408-4.2" transform="translate(-2830.071 -394.949)" fill="none" stroke="#231815" stroke-miterlimit="10" stroke-width="0.25"/>
        <path id="Path_12091" data-name="Path 12091" d="M2852.82,406.661a10.763,10.763,0,0,1,2.855-5.07" transform="translate(-2829.812 -394.597)" fill="none" stroke="#231815" stroke-miterlimit="10" stroke-width="0.25"/>
        <path id="Path_12092" data-name="Path 12092" d="M2848.119,398.178c-.116,1.568,2.04,3.608,1.573,6.23" transform="translate(-2829.598 -394.443)" fill="none" stroke="#231815" stroke-miterlimit="10" stroke-width="0.25"/>
        <path id="Path_12093" data-name="Path 12093" d="M2838.107,410.648c2.855,1.573,6.11-2.914,9.553-1.982" transform="translate(-2829.144 -394.913)" fill="none" stroke="#231815" stroke-miterlimit="10" stroke-width="0.25"/>
        <path id="Path_12094" data-name="Path 12094" d="M2831.269,394.265c.933,4.254,4.6,4.143,5.77,6.85" transform="translate(-2828.834 -394.265)" fill="none" stroke="#231815" stroke-miterlimit="10" stroke-width="0.25"/>
        <path id="Path_12095" data-name="Path 12095" d="M2842.318,404.181c-.058-.262.112-1.311.755-1.369" transform="translate(-2829.335 -394.653)" fill="none" stroke="#231815" stroke-miterlimit="10" stroke-width="0.25"/>
        <path id="Path_12096" data-name="Path 12096" d="M2943.418,463.773c6.516.633,4.746-5,10.539-5.158" transform="translate(-2833.922 -397.185)" fill="none" stroke="#231815" stroke-miterlimit="10" stroke-width="0.25"/>
        <path id="Path_12097" data-name="Path 12097" d="M3010.654,484.153c3.108.565,3.6-2.826,6.216-2.055" transform="translate(-2836.974 -398.245)" fill="none" stroke="#231815" stroke-miterlimit="10" stroke-width="0.25"/>
        <path id="Path_12098" data-name="Path 12098" d="M3022.833,494.826s.26-2.287,1.509-3.171" transform="translate(-2837.526 -398.684)" fill="none" stroke="#231815" stroke-miterlimit="10" stroke-width="0.25"/>
      </g>
      <g id="Group_3562" data-name="Group 3562" transform="translate(242.435 108.064)">
        <path id="Path_12099" data-name="Path 12099" d="M3095.033,487.176a6.948,6.948,0,0,0,.506,1.818" transform="translate(-3083.237 -487.176)" fill="none" stroke="#231815" stroke-miterlimit="10" stroke-width="0.25"/>
        <path id="Path_12100" data-name="Path 12100" d="M3099.8,488.994a3.437,3.437,0,0,0,.637-1.818" transform="translate(-3083.454 -487.176)" fill="none" stroke="#231815" stroke-miterlimit="10" stroke-width="0.25"/>
        <path id="Path_12101" data-name="Path 12101" d="M3102.8,493.508s.449.028,1.011-.9" transform="translate(-3083.59 -487.423)" fill="none" stroke="#231815" stroke-miterlimit="10" stroke-width="0.25"/>
        <path id="Path_12102" data-name="Path 12102" d="M3089.032,493.551a5.062,5.062,0,0,0,1.124,1.8" transform="translate(-3082.965 -487.465)" fill="none" stroke="#231815" stroke-miterlimit="10" stroke-width="0.25"/>
        <path id="Path_12103" data-name="Path 12103" d="M3086.694,497.788a3,3,0,0,0,1.488,1.3" transform="translate(-3082.859 -487.658)" fill="none" stroke="#231815" stroke-miterlimit="10" stroke-width="0.25"/>
        <path id="Path_12104" data-name="Path 12104" d="M3083.8,504.737a3.815,3.815,0,0,0,1.63.564" transform="translate(-3082.728 -487.973)" fill="none" stroke="#231815" stroke-miterlimit="10" stroke-width="0.25"/>
        <path id="Path_12105" data-name="Path 12105" d="M3082.677,511.7a3.506,3.506,0,0,0,1.584-.615" transform="translate(-3082.677 -488.261)" fill="none" stroke="#231815" stroke-miterlimit="10" stroke-width="0.25"/>
        <path id="Path_12106" data-name="Path 12106" d="M3083.8,519.827a4.9,4.9,0,0,0,1.231-1.524" transform="translate(-3082.728 -488.588)" fill="none" stroke="#231815" stroke-miterlimit="10" stroke-width="0.25"/>
        <path id="Path_12107" data-name="Path 12107" d="M3094.689,518.835a2.841,2.841,0,0,0,1.016,1.338" transform="translate(-3083.222 -488.612)" fill="none" stroke="#231815" stroke-miterlimit="10" stroke-width="0.25"/>
        <path id="Path_12108" data-name="Path 12108" d="M3089.49,521.782a2.7,2.7,0,0,0,.351,1.056" transform="translate(-3082.986 -488.746)" fill="none" stroke="#231815" stroke-miterlimit="10" stroke-width="0.25"/>
        <path id="Path_12109" data-name="Path 12109" d="M3097.43,515.847a4.058,4.058,0,0,0,.743,1.6" transform="translate(-3083.346 -488.477)" fill="none" stroke="#231815" stroke-miterlimit="10" stroke-width="0.25"/>
        <path id="Path_12110" data-name="Path 12110" d="M3100.467,509.747s.7.7,1.323.43" transform="translate(-3083.484 -488.2)" fill="none" stroke="#231815" stroke-miterlimit="10" stroke-width="0.25"/>
        <path id="Path_12111" data-name="Path 12111" d="M3102.8,502.992a1.232,1.232,0,0,0,1.011,0" transform="translate(-3083.59 -487.894)" fill="none" stroke="#231815" stroke-miterlimit="10" stroke-width="0.25"/>
        <ellipse id="Ellipse_2110" data-name="Ellipse 2110" cx="0.879" cy="1.849" rx="0.879" ry="1.849" transform="translate(8.808 13.114) rotate(-18.791)" fill="#c19165" stroke="#000" stroke-linejoin="round" stroke-width="0.25"/>
        <ellipse id="Ellipse_2111" data-name="Ellipse 2111" cx="1.849" cy="0.879" rx="1.849" ry="0.879" transform="matrix(0.832, -0.555, 0.555, 0.832, 6.337, 19.398)" fill="#c19165" stroke="#000" stroke-linejoin="round" stroke-width="0.25"/>
        <ellipse id="Ellipse_2112" data-name="Ellipse 2112" cx="0.879" cy="1.849" rx="0.879" ry="1.849" transform="translate(9.722 20.079)" fill="#c19165" stroke="#000" stroke-linejoin="round" stroke-width="0.25"/>
        <ellipse id="Ellipse_2113" data-name="Ellipse 2113" cx="1.849" cy="0.879" rx="1.849" ry="0.879" transform="translate(11.032 17.236) rotate(-38.752)" fill="#c19165" stroke="#000" stroke-linejoin="round" stroke-width="0.25"/>
      </g>
      <g id="Group_3564" data-name="Group 3564" transform="translate(92.98)">
        <g id="Group_3563" data-name="Group 3563">
          <path id="Path_12112" data-name="Path 12112" d="M3040.084,443.2c-.683-.305-27.221-17.222-39.257-24.035s-62.439-45.189-62.439-45.189l-12.27,8.174s25.221,34.839,37.469,45.416,19.661,18.944,29.1,27.209,19.419,19.144,25.493,23.425Z" transform="translate(-2926.118 -373.975)" fill="#c19165" stroke="#000" stroke-linejoin="round" stroke-width="0.25"/>
          <path id="Path_12113" data-name="Path 12113" d="M3020.908,480.225c-3.89-3.557-6.871-9.442-7-14.119-.159-5.81,3.277-12.654,7-16.2a29.413,29.413,0,0,1,11.868-6.463c3.218-.9,12.625,1.207,16.47,8.448s4.148,15.489,1.232,20.819-6.736,12.269-16.9,12.746C3026.842,485.774,3022.629,481.8,3020.908,480.225Z" transform="translate(-2930.101 -377.118)" fill="#ecb36f" stroke="#000" stroke-linejoin="round" stroke-width="0.25"/>
          <path id="Path_12114" data-name="Path 12114" d="M2997.8,469.446c4.075.5,4.981-5.4,9.963-4.709" transform="translate(-2929.37 -378.091)" fill="none" stroke="#231815" stroke-miterlimit="10" stroke-width="0.25"/>
          <path id="Path_12115" data-name="Path 12115" d="M2963.186,437.632c5.239,1.923,8.545-4.554,12.412-2.557" transform="translate(-2927.8 -376.73)" fill="none" stroke="#231815" stroke-miterlimit="10" stroke-width="0.25"/>
          <path id="Path_12116" data-name="Path 12116" d="M2988.6,449.533c1.31.936,4.081-2.352,6.923-1.033" transform="translate(-2928.953 -377.342)" fill="none" stroke="#231815" stroke-miterlimit="10" stroke-width="0.25"/>
          <path id="Path_12117" data-name="Path 12117" d="M2992.228,442.44a3.673,3.673,0,0,1,1.527-2.12" transform="translate(-2929.117 -376.985)" fill="none" stroke="#231815" stroke-miterlimit="10" stroke-width="0.25"/>
          <path id="Path_12118" data-name="Path 12118" d="M2998.271,457.469c.125-.567-.187-4.655,2.245-7.694" transform="translate(-2929.392 -377.414)" fill="none" stroke="#231815" stroke-miterlimit="10" stroke-width="0.25"/>
          <path id="Path_12119" data-name="Path 12119" d="M3007.026,456.79a6.409,6.409,0,0,1,2.62-3.991" transform="translate(-2929.789 -377.552)" fill="none" stroke="#231815" stroke-miterlimit="10" stroke-width="0.25"/>
          <path id="Path_12120" data-name="Path 12120" d="M2985.809,431.146a9.859,9.859,0,0,1,5.014-5.965" transform="translate(-2928.827 -376.298)" fill="none" stroke="#231815" stroke-miterlimit="10" stroke-width="0.25"/>
          <path id="Path_12121" data-name="Path 12121" d="M3011.07,441.931a17.588,17.588,0,0,1,9.427-3.781" transform="translate(-2929.972 -376.887)" fill="none" stroke="#231815" stroke-miterlimit="10" stroke-width="0.25"/>
          <path id="Path_12122" data-name="Path 12122" d="M3016.007,433.354a7.2,7.2,0,0,1,5.035-1.924" transform="translate(-2930.196 -376.582)" fill="none" stroke="#231815" stroke-miterlimit="10" stroke-width="0.25"/>
          <path id="Path_12123" data-name="Path 12123" d="M3028.673,439.6c.192-.859.335-3.384-.668-4.007" transform="translate(-2930.741 -376.771)" fill="none" stroke="#231815" stroke-miterlimit="10" stroke-width="0.25"/>
          <path id="Path_12124" data-name="Path 12124" d="M2968.954,425.366s1.08-3.271,3.424-4.617" transform="translate(-2928.062 -376.097)" fill="none" stroke="#231815" stroke-miterlimit="10" stroke-width="0.25"/>
          <path id="Path_12125" data-name="Path 12125" d="M2968.144,412.848c.385-.385,2.528-2.982,4.2-2.982" transform="translate(-2928.025 -375.604)" fill="none" stroke="#231815" stroke-miterlimit="10" stroke-width="0.25"/>
          <path id="Path_12126" data-name="Path 12126" d="M2955.006,402.409c1.447,3.464,4.545,2.5,6.1,5" transform="translate(-2927.429 -375.265)" fill="none" stroke="#231815" stroke-miterlimit="10" stroke-width="0.25"/>
          <path id="Path_12127" data-name="Path 12127" d="M2953.714,397.054a7.106,7.106,0,0,1,3.157-2.561" transform="translate(-2927.37 -374.906)" fill="none" stroke="#231815" stroke-miterlimit="10" stroke-width="0.25"/>
        </g>
        <path id="Path_12128" data-name="Path 12128" d="M3019.323,461.405c.652-2.922,1.865-4.257,5.072-5.422s3.848-3.324,7.814-4.548,10.437-1.4,12.361,2.565.642,5.481,3.091,10.088-3.208,9.8-5.423,11.544-2.274,5.412-7.929,5.33-7.08-2.647-10.129-3.23-1.685-6.224-3.166-9.854C3019.888,465.121,3018.968,462.993,3019.323,461.405Z" transform="translate(-2930.344 -377.455)" fill="#c19165" stroke="#000" stroke-linejoin="round" stroke-width="0.25"/>
        <path id="Path_12129" data-name="Path 12129" d="M3022.065,461.45c.855-2.376,2.2-1.976,5.094-3.733s4.26-3.689,8.608-4.7,7.509,1.449,7.64,3.206-1.1,3.645.571,7.421.966,5.884-2.459,8.783-2.5,7.027-6.719,6.632-4.084-.966-6.193-2.46-4.391-.746-4.04-3.689S3021.055,464.26,3022.065,461.45Z" transform="translate(-2930.464 -377.551)" fill="#ecb36f" stroke="#000" stroke-linejoin="round" stroke-width="0.25"/>
        <path id="Path_12130" data-name="Path 12130" d="M3021.352,453.41a3.932,3.932,0,0,1,2.1,1.083" transform="translate(-2930.439 -377.579)" fill="none" stroke="#231815" stroke-miterlimit="10" stroke-width="0.25"/>
        <path id="Path_12131" data-name="Path 12131" d="M3032.05,446.536a7.507,7.507,0,0,1,.544,2.706" transform="translate(-2930.924 -377.267)" fill="none" stroke="#231815" stroke-miterlimit="10" stroke-width="0.25"/>
        <path id="Path_12132" data-name="Path 12132" d="M3037.249,448.614a8.608,8.608,0,0,0,0-2.5" transform="translate(-2931.161 -377.248)" fill="none" stroke="#231815" stroke-miterlimit="10" stroke-width="0.25"/>
        <path id="Path_12133" data-name="Path 12133" d="M3048.849,458.909a5.656,5.656,0,0,0,2.368-.609" transform="translate(-2931.687 -377.801)" fill="none" stroke="#000" stroke-linejoin="round" stroke-width="0.25"/>
        <path id="Path_12134" data-name="Path 12134" d="M3016.008,466.7a3.69,3.69,0,0,0,2.331,0" transform="translate(-2930.197 -378.182)" fill="none" stroke="#231815" stroke-miterlimit="10" stroke-width="0.25"/>
        <path id="Path_12135" data-name="Path 12135" d="M3017.732,472.695a4.11,4.11,0,0,0,2.248-.741" transform="translate(-2930.275 -378.421)" fill="none" stroke="#231815" stroke-miterlimit="10" stroke-width="0.25"/>
        <path id="Path_12136" data-name="Path 12136" d="M3030.715,483.417a6.7,6.7,0,0,0-.478,1.612" transform="translate(-2930.842 -378.941)" fill="none" stroke="#231815" stroke-miterlimit="10" stroke-width="0.25"/>
        <path id="Path_12137" data-name="Path 12137" d="M3038.257,483.153a4.691,4.691,0,0,1,.938,2.055" transform="translate(-2931.206 -378.929)" fill="none" stroke="#231815" stroke-miterlimit="10" stroke-width="0.25"/>
        <path id="Path_12138" data-name="Path 12138" d="M3046.792,475.7a3.524,3.524,0,0,1,1.861,1.672" transform="translate(-2931.594 -378.591)" fill="none" stroke="#231815" stroke-miterlimit="10" stroke-width="0.25"/>
        <path id="Path_12139" data-name="Path 12139" d="M3033.118,464.459c.677-.181-.416-5.309-1.988-4.615S3032.285,464.682,3033.118,464.459Z" transform="translate(-2930.861 -377.868)" fill="#fff6eb" stroke="#000" stroke-miterlimit="10" stroke-width="0.25"/>
        <path id="Path_12140" data-name="Path 12140" d="M3037.347,464.566c.563.865,3.836-1.313,3.189-2.344S3036.652,463.5,3037.347,464.566Z" transform="translate(-2931.16 -377.968)" fill="#fff6eb" stroke="#000" stroke-miterlimit="10" stroke-width="0.25"/>
        <path id="Path_12141" data-name="Path 12141" d="M3028,470.044c-.029-1.895,4.853-3.1,5.2-2.126C3033.611,469.076,3028.036,472.062,3028,470.044Z" transform="translate(-2930.741 -378.222)" fill="#fff6eb" stroke="#000" stroke-miterlimit="10" stroke-width="0.25"/>
        <path id="Path_12142" data-name="Path 12142" d="M3037.235,468.707c.9-.35,2.871,3.283,1.992,4.207S3036.168,469.123,3037.235,468.707Z" transform="translate(-2931.147 -378.272)" fill="#fff6eb" stroke="#000" stroke-miterlimit="10" stroke-width="0.25"/>
      </g>
    </g>
    <g id="Group_3569" data-name="Group 3569" transform="translate(2862.784 240.683)">
      <g id="Group_3566" data-name="Group 3566" transform="translate(106.569 101.327)">
        <path id="Path_12143" data-name="Path 12143" d="M2976.709,402.565c-1.433,2.627-.551,5.733,2.426,6.109s6.51-.285,6.231,2.471-3.338,3.658-2.1,6.908,9.986-.287,12.471,4.3,2.915,9.934,8.648,9.387,4.156-6.137,8.123-8.574,5.255-3.344,4.921-8.074-1.243-9.509,3.439-10.465,6.355,2.628,7.454,6.355,7.549,4.4,10.751,1.434a4.958,4.958,0,0,1,8.314,2.007c1.146,3.249,5.351,5.3,9.413,1.481s.381-9.651,2.34-13.139,4.3-5.3,2.533-8.743-4.826-4.013-5.065-6.594-.287-5.733-5.3-7.692-9.891,4.013-11.993.525,5.448-7.556,10.273-7.337,8.362,1.317,8.744-3.222-2.962-8.743-6.642-8.17-8.982-.717-14.429-3.679-5.113-5.352-8.505-4.778-3.87,2.484-6.307,6.737-10.416.765-10.607-2.007.765-10.273-8.457-5.543-6.8,22.164-6.8,22.164Z" transform="translate(-2976.037 -350.73)" fill="#cad226" stroke="#231815" stroke-miterlimit="10" stroke-width="0.25"/>
        <path id="Path_12144" data-name="Path 12144" d="M3044.146,398.387s-16.257-24.331-44.9-20.46" transform="translate(-2977.09 -351.945)" fill="none" stroke="#000" stroke-linejoin="round" stroke-width="0.25"/>
        <path id="Path_12145" data-name="Path 12145" d="M3038.445,373.96c-4.2-1.731-13.194,4.026-21.03,4.849" transform="translate(-2977.915 -351.77)" fill="none" stroke="#000" stroke-linejoin="round" stroke-width="0.25"/>
        <path id="Path_12146" data-name="Path 12146" d="M3037.733,399.285c-6.414-2.766-10.8-12.967-16.513-19.036" transform="translate(-2978.087 -352.07)" fill="none" stroke="#000" stroke-linejoin="round" stroke-width="0.25"/>
        <path id="Path_12147" data-name="Path 12147" d="M3020.271,398.4c-7.043-2.655-12.661-17.279-19.971-20.584" transform="translate(-2977.138 -351.959)" fill="none" stroke="#000" stroke-linejoin="round" stroke-width="0.25"/>
        <path id="Path_12148" data-name="Path 12148" d="M3017.633,367.1s-4.336.1-10.21,6.24" transform="translate(-2977.461 -351.473)" fill="none" stroke="#000" stroke-linejoin="round" stroke-width="0.25"/>
        <ellipse id="Ellipse_2114" data-name="Ellipse 2114" cx="2.752" cy="1.738" rx="2.752" ry="1.738" transform="translate(71.564 50.954)" fill="#dffffa" stroke="#231815" stroke-miterlimit="10" stroke-width="0.25"/>
        <ellipse id="Ellipse_2115" data-name="Ellipse 2115" cx="1.159" cy="1.931" rx="1.159" ry="1.931" transform="matrix(0.273, -0.962, 0.962, 0.273, 72.897, 43.54)" fill="#dffffa" stroke="#231815" stroke-miterlimit="10" stroke-width="0.25"/>
      </g>
      <g id="Group_3567" data-name="Group 3567" transform="translate(2.463)">
        <path id="Path_12149" data-name="Path 12149" d="M2877.345,318.623c-.089-.264-2.468-.881-2.468-3.789s1.41-2.908.793-5.727-.44-3.612,1.675-5.2,4.581-1.762,2.731-5.55-6.961-4.141-7.666-7.313,5.022-7.225,2.731-12.247-5.727-3.525-7.313-9.428-.793-7.4,1.145-8.987,4.318-2.908,4.494-5.816,1.409-8.106,8.37-9.692,10.837,3.7,12.776,7.49,6.7.352,10.837,1.321,8.282,5.11,11.542,8.722,5.815,3.26,9.516-1.145,7.4-5.9,14.01-3.789,8.9,6.96,8.9,12.688,3.613,7.929,7.489,7.753a7.437,7.437,0,0,1,7.577,6.343c.705,3.7-3.877,8.722-6.785,13.04s-1.057,9.251,5.111,8.547,9.516-4.493,17.357-.881,3.524,10.837,4.845,14.186.264,4.052-.7,6.167-.528,3.084-.528,3.084l-17.093,10.661-49.988,10.2Z" transform="translate(-2866.983 -244.586)" fill="#cad226" stroke="#231815" stroke-miterlimit="10" stroke-width="0.25"/>
        <path id="Path_12150" data-name="Path 12150" d="M2892.6,269.6s53.268,21.574,56.087,70.26" transform="translate(-2868.146 -245.721)" fill="none" stroke="#000" stroke-linejoin="round" stroke-width="0.25"/>
        <path id="Path_12151" data-name="Path 12151" d="M2897.147,283.648s11.262-3.921,19.762,1.058" transform="translate(-2868.353 -246.292)" fill="none" stroke="#000" stroke-linejoin="round" stroke-width="0.25"/>
        <path id="Path_12152" data-name="Path 12152" d="M2911.874,299.062s16.285-.431,28.641,12.15" transform="translate(-2869.02 -247.058)" fill="none" stroke="#000" stroke-linejoin="round" stroke-width="0.25"/>
        <path id="Path_12153" data-name="Path 12153" d="M2927.307,276.625s-2.3,8.184-.893,14.948" transform="translate(-2869.66 -246.04)" fill="none" stroke="#000" stroke-linejoin="round" stroke-width="0.25"/>
        <path id="Path_12154" data-name="Path 12154" d="M2947.628,290.966a40.619,40.619,0,0,0-5.281,20.672" transform="translate(-2870.403 -246.691)" fill="none" stroke="#000" stroke-linejoin="round" stroke-width="0.25"/>
        <path id="Path_12155" data-name="Path 12155" d="M2961.511,316.367s-8.8,10.193-10.636,20.77" transform="translate(-2870.791 -247.844)" fill="none" stroke="#000" stroke-linejoin="round" stroke-width="0.25"/>
        <path id="Path_12156" data-name="Path 12156" d="M2932.3,325.616c.331,0,13.763,1.818,16.981,7.421" transform="translate(-2869.948 -248.263)" fill="none" stroke="#000" stroke-linejoin="round" stroke-width="0.25"/>
        <ellipse id="Ellipse_2116" data-name="Ellipse 2116" cx="2.21" cy="1.406" rx="2.21" ry="1.406" transform="translate(9.927 16.943)" fill="#dffffa" stroke="#231815" stroke-miterlimit="10" stroke-width="0.25"/>
        <ellipse id="Ellipse_2117" data-name="Ellipse 2117" cx="2.137" cy="1.595" rx="2.137" ry="1.595" transform="translate(69.929 30.009)" fill="#dffffa" stroke="#231815" stroke-miterlimit="10" stroke-width="0.25"/>
      </g>
      <g id="Group_3568" data-name="Group 3568" transform="translate(0 55.465)">
        <path id="Path_12157" data-name="Path 12157" d="M2943.447,317.324c3.357,2.015,1.976,7.907-1.769,7.6s-5.514,1.769-4.265,4.681,4.369,1.977,6.034,6.763,11.756,5.2,15.5,3.745,6.242-3.537,4.058-5.93-1.04-6.763,3.537-6.138,7.906,5.1,11.651,3.226,7.387-3.122,11.028.727-.728,7.075,1.977,9.883,7.281,1.457,9.051,4.682-2.5,8.74-1.353,12.589,5.306,3.433,5.514,8.114-4.161,5.306-5.618,8.739,1.041,6.659-1.456,9.987-7.907,2.185-10.82,2.185-4.473,2.4-3.226,5.673-.936,5.146-3.641,7.955-5,2.6-8.534,0-7.9,1.769-11.388-1.768.031-6.242-5.783-10.716-10.082.591-10.29,3.572-3.849,6.727,1.249,8.183,9.051,1.654,9.675,6.913.539,7.131-1.759,10.565,1.138,4.8-1.309,7.86-3.609,2.778-6.408,4.845-6.441,7.393-10.811,5.3-2.184-3.64-4.161-7.858-4.262-5.675-6.812-4.323-2.447,4.4-4.735,6.879-7.464,3.555-11.067,3.487-2.666,4.7-7.243,7.156-8.843,1.016-10.2-.815a72.707,72.707,0,0,0-4.785-6.341c-2.5-2.876-3.017-7.176,0-9.656a5,5,0,0,0-.1-7.993c-2.288-1.769-3.729-3.717-2.644-6.644s-2.453-6.258-6.3-5.944-5.305,3.433-8.843,0-4.057-7.282-.936-8.322,1.456-4.89,1.561-8.114,0-6.867,6.762-6.867,7.7,3.642,12.379,2.393,4.473-5.514,3.537-7.906-2.288-4.266-.624-6.346,1.977-3.641-1.248-5.1-3.121-2.914-9.675-2.393-7.387-2.809-7.283-6.137-2.08-3.642-4.161-6.242-2.081-7.6-.312-10.508,3.745-3.745,6.451-5.618,1.872-5.41,1.559-9.051,2.394-6.346,6.347-8.635,14.669-2.081,18.1-6.034,5.722-7.49,9.467-6.867,8.115,3.85,10.612,2.393,5.722-4.057,9.571-1.04,3.538,9.987,6.347,12.068S2939.8,315.14,2943.447,317.324Z" transform="translate(-2864.403 -302.688)" fill="#ddd658" stroke="#000" stroke-linejoin="round" stroke-width="0.25"/>
        <path id="Path_12158" data-name="Path 12158" d="M2894.1,326.205c16.645.55,20.634,13.227,29.438,14.6" transform="translate(-2865.751 -303.755)" fill="none" stroke="#000" stroke-linejoin="round" stroke-width="0.25"/>
        <path id="Path_12159" data-name="Path 12159" d="M2908.07,406.222c1.382-20.645,12.314-48.856,39.4-65.678-4.905,4.609-22.167-3.647-35.813,4.744" transform="translate(-2866.385 -304.406)" fill="none" stroke="#000" stroke-linejoin="round" stroke-width="0.25"/>
        <path id="Path_12160" data-name="Path 12160" d="M2897.5,385.335c3.136-.412,12.873-7.922,18.758-9.051" transform="translate(-2865.905 -306.027)" fill="none" stroke="#000" stroke-linejoin="round" stroke-width="0.25"/>
        <path id="Path_12161" data-name="Path 12161" d="M2919.734,409.257c2.45-7.684-6.331-14.45-5.953-25.257" transform="translate(-2866.643 -306.378)" fill="none" stroke="#000" stroke-linejoin="round" stroke-width="0.25"/>
        <path id="Path_12162" data-name="Path 12162" d="M2934.465,394.185c2.81-5.634-8.869-25.314-6.627-34.684" transform="translate(-2867.269 -305.266)" fill="none" stroke="#000" stroke-linejoin="round" stroke-width="0.25"/>
        <path id="Path_12163" data-name="Path 12163" d="M2901.615,367.248c11.6-10.9,20.722-8.438,28.436-11.862" transform="translate(-2866.092 -305.079)" fill="none" stroke="#000" stroke-linejoin="round" stroke-width="0.25"/>
        <path id="Path_12164" data-name="Path 12164" d="M2944.748,386.868c-2.9-9.511-11.458-8.03-15.81-16.062" transform="translate(-2867.332 -305.779)" fill="none" stroke="#000" stroke-linejoin="round" stroke-width="0.25"/>
        <path id="Path_12165" data-name="Path 12165" d="M2958.631,376.168c-.658-14.43-15.31-19.7-15.28-31.548" transform="translate(-2867.986 -304.591)" fill="none" stroke="#000" stroke-linejoin="round" stroke-width="0.25"/>
        <path id="Path_12166" data-name="Path 12166" d="M2985.709,371.631c-12.658-9.052-27.277-5.19-34.356-11.169" transform="translate(-2868.349 -305.309)" fill="none" stroke="#000" stroke-linejoin="round" stroke-width="0.25"/>
        <ellipse id="Ellipse_2118" data-name="Ellipse 2118" cx="2.855" cy="1.268" rx="2.855" ry="1.268" transform="translate(20.604 94.415)" fill="none" stroke="#000" stroke-linejoin="round" stroke-width="0.25"/>
        <ellipse id="Ellipse_2119" data-name="Ellipse 2119" cx="2.243" cy="1.728" rx="2.243" ry="1.728" transform="translate(14.434 89.482)" fill="none" stroke="#000" stroke-linejoin="round" stroke-width="0.25"/>
        <ellipse id="Ellipse_2120" data-name="Ellipse 2120" cx="4.292" cy="2.599" rx="4.292" ry="2.599" transform="translate(117.36 51.795)" fill="#dffffa" stroke="#231815" stroke-miterlimit="10" stroke-width="0.25"/>
        <ellipse id="Ellipse_2121" data-name="Ellipse 2121" cx="2.452" cy="1.324" rx="2.452" ry="1.324" transform="translate(110.548 43.46)" fill="#dffffa" stroke="#231815" stroke-miterlimit="10" stroke-width="0.25"/>
      </g>
    </g>
  </g>
</svg>
