<svg xmlns="http://www.w3.org/2000/svg" width="339.643" height="334.4" viewBox="0 0 339.643 334.4">
  <g id="Group_3652" data-name="Group 3652" transform="translate(-1655.455 -186.651)">
    <path id="Path_11784" data-name="Path 11784" d="M1788.11,460.175c6.157,5.9,11.261-1.12,16.638,1.408" transform="translate(6.822 14.073)" fill="none" stroke="#231815" stroke-miterlimit="10" stroke-width="0.25"/>
    <ellipse id="Ellipse_2074" data-name="Ellipse 2074" cx="5.445" cy="3.336" rx="5.445" ry="3.336" transform="translate(1673.199 419.515)" fill="#c19165" stroke="#000" stroke-linejoin="round" stroke-width="0.25"/>
    <ellipse id="Ellipse_2075" data-name="Ellipse 2075" cx="3.925" cy="2.76" rx="3.925" ry="2.76" transform="translate(1690.686 426.846) rotate(-34.121)" fill="#c19165" stroke="#000" stroke-linejoin="round" stroke-width="0.25"/>
    <ellipse id="Ellipse_2076" data-name="Ellipse 2076" cx="2.681" cy="4.231" rx="2.681" ry="4.231" transform="translate(1937.735 352.276) rotate(-81.689)" fill="#ecb36f" stroke="#000" stroke-linejoin="round" stroke-width="0.25"/>
    <g id="Group_3537" data-name="Group 3537" transform="translate(1655.587 186.805)">
      <g id="Group_3531" data-name="Group 3531" transform="translate(162.775 1.688)">
        <path id="Path_11785" data-name="Path 11785" d="M1810.393,199.967c.875-.751,3.127-7.757,9.633-10.383s9.866-.5,15.067,3,9.865-2.376,22.733-.751,25.753,9.008,30.757,18.39,3.5,14.387,9.883,22.644,5.88,14.763,0,20.893-8.757,6.38-10.508,13.51-27.4-19.14-27.4-19.14-27.4-14.513-27.9-14.888-11.76-.25-11.885-1.751S1810.393,199.967,1810.393,199.967Z" transform="translate(-1810.393 -188.41)" fill="#cad226" stroke="#231815" stroke-miterlimit="10" stroke-width="0.25"/>
        <path id="Path_11786" data-name="Path 11786" d="M1833.883,198.092s12.831,13.237,12.831,30.826" transform="translate(-1809.184 -187.911)" fill="none" stroke="#231815" stroke-miterlimit="10" stroke-width="0.25"/>
        <path id="Path_11787" data-name="Path 11787" d="M1856.356,230.718C1856.4,210.2,1875.4,198.6,1875.4,198.6" transform="translate(-1808.027 -187.885)" fill="none" stroke="#231815" stroke-miterlimit="10" stroke-width="0.25"/>
        <path id="Path_11788" data-name="Path 11788" d="M1853.582,196.006a25.864,25.864,0,0,1,7.755,17.607" transform="translate(-1808.17 -188.019)" fill="none" stroke="#231815" stroke-miterlimit="10" stroke-width="0.25"/>
        <path id="Path_11789" data-name="Path 11789" d="M1891.254,222.26c-7.709,4.452-25.338-1.1-34.038,5.258" transform="translate(-1807.983 -186.667)" fill="none" stroke="#231815" stroke-miterlimit="10" stroke-width="0.25"/>
        <path id="Path_11790" data-name="Path 11790" d="M1864.025,208.394c4.782-3.427,14.271,1.145,19.222-2.893" transform="translate(-1807.632 -187.53)" fill="none" stroke="#231815" stroke-miterlimit="10" stroke-width="0.25"/>
        <ellipse id="Ellipse_2077" data-name="Ellipse 2077" cx="2.587" cy="3.341" rx="2.587" ry="3.341" transform="translate(66.168 28.828) rotate(-45)" fill="#dffffa" stroke="#231815" stroke-miterlimit="10" stroke-width="0.25"/>
        <path id="Path_11791" data-name="Path 11791" d="M1871.666,245.752c6.63-2.628,15.449,3.985,27.741-1.386" transform="translate(-1807.239 -185.529)" fill="none" stroke="#231815" stroke-miterlimit="10" stroke-width="0.25"/>
      </g>
      <g id="Group_3532" data-name="Group 3532" transform="translate(227.202 58.388)">
        <path id="Path_11792" data-name="Path 11792" d="M1891.622,248.418c.792-.527,10.68-8.833,18.062-5.142s11.866,8.438,11.735,16.612,0,11.885,4.482,17.94,6.724,13.7,3.692,20.689-6.46,8.57-6.065,15.822-.264,9.888-5.142,12.788-39.775-13.975-39.136-14.371-7.5-32.828-7.584-33.62S1891.622,248.418,1891.622,248.418Z" transform="translate(-1871.666 -242.333)" fill="#a5b63d" stroke="#231815" stroke-miterlimit="10" stroke-width="0.25"/>
        <path id="Path_11793" data-name="Path 11793" d="M1920.74,259.029s-23.6,10.283-35.882,37.179" transform="translate(-1870.986 -241.474)" fill="none" stroke="#231815" stroke-miterlimit="10" stroke-width="0.25"/>
        <path id="Path_11794" data-name="Path 11794" d="M1910.747,244.7c-4.112,5.975-.039,14.528-5.438,24.424" transform="translate(-1869.934 -242.212)" fill="none" stroke="#231815" stroke-miterlimit="10" stroke-width="0.25"/>
        <path id="Path_11795" data-name="Path 11795" d="M1888.613,251.214c-2.687,11.739,3.046,21.034,2.481,34.069" transform="translate(-1870.831 -241.876)" fill="none" stroke="#231815" stroke-miterlimit="10" stroke-width="0.25"/>
        <path id="Path_11796" data-name="Path 11796" d="M1895.417,277.873c10.4-5.806,22.314-.43,28.227-3.185" transform="translate(-1870.443 -240.668)" fill="none" stroke="#231815" stroke-miterlimit="10" stroke-width="0.25"/>
        <path id="Path_11797" data-name="Path 11797" d="M1884.125,296.213c2.769-1.317,14.282-2.408,20.964,0,8.9,3.209,16.492,6.4,22.089,3.132" transform="translate(-1871.024 -239.633)" fill="none" stroke="#231815" stroke-miterlimit="10" stroke-width="0.25"/>
      </g>
      <g id="Group_3533" data-name="Group 3533" transform="translate(39.157 15.597)">
        <path id="Path_11798" data-name="Path 11798" d="M1692.827,266.483c.554-1.293-.617-2.9.778-6.328s-.508-7.993,1.142-14.463,5.2-9.643,14.59-12.561,10.4-8.628,14.844-17,7.1-14.972,17.763-14.464,15.479,27.785,15.479,27.785l-15.352,27.58-14.718,13.148Z" transform="translate(-1692.827 -201.638)" fill="#a5b63d" stroke="#231815" stroke-miterlimit="10" stroke-width="0.25"/>
        <path id="Path_11799" data-name="Path 11799" d="M1703.4,240.281c9.422,9.426,21.214,4.418,25.924,9.008" transform="translate(-1692.283 -199.649)" fill="none" stroke="#231815" stroke-miterlimit="10" stroke-width="0.25"/>
        <path id="Path_11800" data-name="Path 11800" d="M1716.927,226.021s4.5,18.983,17.9,30.581" transform="translate(-1691.586 -200.383)" fill="none" stroke="#231815" stroke-miterlimit="10" stroke-width="0.25"/>
        <path id="Path_11801" data-name="Path 11801" d="M1732.684,218.8c4.392,6.4-5.03,25.222,1.976,33.388" transform="translate(-1690.812 -200.754)" fill="none" stroke="#231815" stroke-miterlimit="10" stroke-width="0.25"/>
      </g>
      <g id="Group_3534" data-name="Group 3534" transform="translate(84.255)">
        <path id="Path_11802" data-name="Path 11802" d="M1749.485,228.746s-3.95-2.446-3.857-9.125,1.585-9.628-3.857-13.358-7.808-8.561-4.61-13.547,12.23-7.9,20.414-4.327,7.431,8,21.636,4.045,25.964-4.986,35,3.1,3.762,15.147,10.63,19.38,5.55,11.382,3.48,17.779-18.815,22.269-18.815,22.269l-40.639-16.343Z" transform="translate(-1735.717 -186.805)" fill="#a5b63d" stroke="#231815" stroke-miterlimit="10" stroke-width="0.25"/>
        <path id="Path_11803" data-name="Path 11803" d="M1758.474,197.706s11.759,11.759,12.23,25.776" transform="translate(-1734.546 -186.243)" fill="none" stroke="#231815" stroke-miterlimit="10" stroke-width="0.25"/>
        <path id="Path_11804" data-name="Path 11804" d="M1783.1,190.682s4.367,18.392-2.562,35.231" transform="translate(-1733.41 -186.605)" fill="none" stroke="#231815" stroke-miterlimit="10" stroke-width="0.25"/>
        <path id="Path_11805" data-name="Path 11805" d="M1786.388,229.5c3.669-7.62,16.745-7.244,24.458-17.216" transform="translate(-1733.109 -185.493)" fill="none" stroke="#231815" stroke-miterlimit="10" stroke-width="0.25"/>
        <path id="Path_11806" data-name="Path 11806" d="M1812.895,227.409c-.115.376-3.595,6.4-12.908,9.408" transform="translate(-1732.409 -184.714)" fill="none" stroke="#231815" stroke-miterlimit="10" stroke-width="0.25"/>
        <ellipse id="Ellipse_2078" data-name="Ellipse 2078" cx="3.763" cy="2.728" rx="3.763" ry="2.728" transform="translate(61.275 9.675)" fill="#dffffa" stroke="#231815" stroke-miterlimit="10" stroke-width="0.25"/>
      </g>
      <g id="Group_3535" data-name="Group 3535" transform="translate(25.505 179.45)">
        <path id="Path_11807" data-name="Path 11807" d="M1692.112,364.23s-13.921,4.289-12.1,21.136,11.553,17.452,24.74,17.654S1730.2,420.6,1738.916,426.5c7.571,5.121,16.5,3.343,21.869-7.848s2.187-50.127,2.062-50.127-43.571-11.053-43.571-11.053Z" transform="translate(-1679.844 -357.469)" fill="#a5b63d" stroke="#231815" stroke-miterlimit="10" stroke-width="0.25"/>
        <path id="Path_11808" data-name="Path 11808" d="M1690.4,387.043s16.834-9.025,35.862-7.388" transform="translate(-1679.301 -356.337)" fill="none" stroke="#231815" stroke-miterlimit="10" stroke-width="0.25"/>
        <path id="Path_11809" data-name="Path 11809" d="M1706.423,402.336s8.182-19.33,23.872-24.711" transform="translate(-1678.475 -356.431)" fill="none" stroke="#231815" stroke-miterlimit="10" stroke-width="0.25"/>
        <path id="Path_11810" data-name="Path 11810" d="M1732,413.318a24.335,24.335,0,0,0-4.693-12.043c-4.223-5.317-8.125-11.924-9.536-16.441" transform="translate(-1677.891 -356.06)" fill="none" stroke="#231815" stroke-miterlimit="10" stroke-width="0.25"/>
        <path id="Path_11811" data-name="Path 11811" d="M1732.646,375.778a134.854,134.854,0,0,1,3.909,14.876" transform="translate(-1677.125 -356.527)" fill="none" stroke="#231815" stroke-miterlimit="10" stroke-width="0.25"/>
      </g>
      <g id="Group_3536" data-name="Group 3536" transform="translate(0 70.99)">
        <path id="Path_11812" data-name="Path 11812" d="M1715.036,377.223s-3.776,8.413-11.155,5.988-8.521-11.548-17.931-16.111-18.251.142-24.81-7.842-7.414-22.386-2-34.505,7.7-19.1,4.277-31.72-2.567-21.426,4.847-27.575,12.832-7.29,18.679-5.294a13.283,13.283,0,0,0,13.688-2.852c3.28-2.852,11.122-4.99,16.254,0s9.126.143,17.11,6.274-4.847,37.842-4.847,37.842l-3.505,58.729Z" transform="translate(-1655.588 -254.319)" fill="#cad226" stroke="#231815" stroke-miterlimit="10" stroke-width="0.25"/>
        <path id="Path_11813" data-name="Path 11813" d="M1664.486,339.781c10.433,11.571,40.79,4.814,44.1,16.892" transform="translate(-1655.129 -249.92)" fill="none" stroke="#231815" stroke-miterlimit="10" stroke-width="0.25"/>
        <path id="Path_11814" data-name="Path 11814" d="M1665.879,315.819c8.968,10.458,27.086,7.837,31.661,17" transform="translate(-1655.058 -251.153)" fill="none" stroke="#231815" stroke-miterlimit="10" stroke-width="0.25"/>
        <path id="Path_11815" data-name="Path 11815" d="M1670.752,271.6c1.1.916,21.5,14.642,24.569,38.251" transform="translate(-1654.807 -253.429)" fill="none" stroke="#231815" stroke-miterlimit="10" stroke-width="0.25"/>
        <path id="Path_11816" data-name="Path 11816" d="M1665.879,285.883c6.941,8.016,22.993,6.108,26.4,11.051" transform="translate(-1655.058 -252.694)" fill="none" stroke="#231815" stroke-miterlimit="10" stroke-width="0.25"/>
        <path id="Path_11817" data-name="Path 11817" d="M1685.779,268.279c3.149,4.427-2.88,12.266-.973,18.136" transform="translate(-1654.103 -253.6)" fill="none" stroke="#231815" stroke-miterlimit="10" stroke-width="0.25"/>
        <ellipse id="Ellipse_2079" data-name="Ellipse 2079" cx="3.584" cy="2.327" rx="3.584" ry="2.327" transform="translate(6.042 78.625)" fill="#dffffa" stroke="#231815" stroke-miterlimit="10" stroke-width="0.25"/>
      </g>
    </g>
    <g id="Group_3539" data-name="Group 3539" transform="translate(1685.283 440.372)">
      <g id="Group_3538" data-name="Group 3538" transform="translate(67.532 13.715)">
        <path id="Path_11818" data-name="Path 11818" d="M1748.055,448.143c.887-.592,6.906-8.521,16.8-6.93s11.892,12.732,20.405,14.359,12.143,6.635,11.768,12.894-5.008,12.394-13.646,13.521-13.706,10.014-19.748,9.889-8.544-5.883-11.423-11.517S1748.055,448.143,1748.055,448.143Z" transform="translate(-1748.055 -441.002)" fill="#a5b63d" stroke="#231815" stroke-miterlimit="10" stroke-width="0.25"/>
        <path id="Path_11819" data-name="Path 11819" d="M1755.456,459.383s28.184,2.849,37.627,16.635" transform="translate(-1747.675 -440.056)" fill="none" stroke="#231815" stroke-miterlimit="10" stroke-width="0.25"/>
        <path id="Path_11820" data-name="Path 11820" d="M1770.677,443.9s-3.481,9.217-12.244,13.873" transform="translate(-1747.521 -440.852)" fill="none" stroke="#231815" stroke-miterlimit="10" stroke-width="0.25"/>
        <path id="Path_11821" data-name="Path 11821" d="M1785.091,455.081s-4.993,7.777-12.684,8.473" transform="translate(-1746.802 -440.277)" fill="none" stroke="#231815" stroke-miterlimit="10" stroke-width="0.25"/>
        <path id="Path_11822" data-name="Path 11822" d="M1774.335,484.331s.27-14.265-7.5-22.817" transform="translate(-1747.088 -439.946)" fill="none" stroke="#231815" stroke-miterlimit="10" stroke-width="0.25"/>
        <path id="Path_11823" data-name="Path 11823" d="M1765.411,489.773s-2.034-9.178-9.643-14.267" transform="translate(-1747.658 -439.226)" fill="none" stroke="#231815" stroke-miterlimit="10" stroke-width="0.25"/>
        <path id="Path_11824" data-name="Path 11824" d="M1784.26,480.173s.654-9.359-3.888-13.761" transform="translate(-1746.391 -439.694)" fill="none" stroke="#231815" stroke-miterlimit="10" stroke-width="0.25"/>
      </g>
      <path id="Path_11825" data-name="Path 11825" d="M1694.226,427.958s5.916,11.286,15.109,16.383,23.755,2.275,23.755,2.275l2.821,6.785s-10.934,4.055-20.126,3.6c0,0,10.388,3.995,12.755,9.546l-2.64,2.731s-3.367-5.825-12.56-9.283a58.118,58.118,0,0,1,2,11.377c.182,5.006-10.286,3.732-10.194,3.276a25.133,25.133,0,0,0-8.464-22.572c-10.831-9.374-12.469-5.734-12.833-11.1S1688.037,428.869,1694.226,427.958Z" transform="translate(-1683.83 -427.958)" fill="#cad226" stroke="#231815" stroke-miterlimit="10" stroke-width="0.25"/>
      <path id="Path_11826" data-name="Path 11826" d="M1764.086,467.27a5.645,5.645,0,0,0-.46-9.419,5.645,5.645,0,0,0-6.606-5.967,5.654,5.654,0,0,0-2.128-6.9,6.957,6.957,0,0,0-6.065-9.51,6.229,6.229,0,0,0-4.892-3.819,6.014,6.014,0,0,0-4.4,1.221,5.836,5.836,0,0,0-8.263,4.842,5.753,5.753,0,0,0-2.016.7,6.156,6.156,0,0,0-2.059,8.456,6.474,6.474,0,0,0,2.5,2.447,3.438,3.438,0,0,0-.128,3.7,3.534,3.534,0,0,0,.81.952,3.158,3.158,0,0,0-.681,1.055,3.281,3.281,0,0,0,.939,3.633,5.8,5.8,0,0,0-4.275,3.559,5.7,5.7,0,0,0-.005,4.079,4.816,4.816,0,0,0-3.3-.836,5.117,5.117,0,0,0-4.31,4.336,5.826,5.826,0,0,0-10.017,1.4,5.582,5.582,0,0,0-5.222-.451,5.52,5.52,0,0,0-3.489,4.773,5.064,5.064,0,0,0-2.98,9.533,5.137,5.137,0,0,0-2.771,4.7c0,2.812,2.012,5.091,4.5,5.091a4.061,4.061,0,0,0,2.167-.656v0c1.1,2.662,4.4,3.824,7.38,2.6a6.36,6.36,0,0,0,2.074-1.382,4.537,4.537,0,0,0,.189.56c1.1,2.662,4.4,3.824,7.38,2.6a6.309,6.309,0,0,0,2.643-2.031,5.417,5.417,0,0,0,8.881-2.712,5.086,5.086,0,0,0,6.382,2.411,4.85,4.85,0,0,0,1.683-1.165,3.5,3.5,0,0,0,5.662-.61,11.18,11.18,0,0,1,9.156-4.255,4.935,4.935,0,0,0,2.959-5.5,5.656,5.656,0,0,0,5.778-7.789c-.066-.162-.142-.317-.221-.468a5.765,5.765,0,0,0,1.025-.311,5.66,5.66,0,0,0,2.185-8.856Z" transform="translate(-1683.293 -427.77)" fill="#fff6eb" stroke="#000" stroke-miterlimit="10" stroke-width="0.25"/>
      <circle id="Ellipse_2080" data-name="Ellipse 2080" cx="2.457" cy="2.457" r="2.457" transform="translate(54.356 11.468)" fill="none" stroke="#231815" stroke-miterlimit="10" stroke-width="0.25"/>
      <path id="Path_11827" data-name="Path 11827" d="M1711.23,478.628a2.982,2.982,0,1,1-5.67,1.293" transform="translate(-1682.711 -425.35)" fill="none" stroke="#231815" stroke-miterlimit="10" stroke-width="0.25"/>
      <path id="Path_11828" data-name="Path 11828" d="M1717.346,484.019s2.517,2.433,5.121,1.152a2.956,2.956,0,0,0,1.579-3.8s2.177.939,3.542-.342,0-4.139,0-4.139" transform="translate(-1682.104 -425.439)" fill="none" stroke="#231815" stroke-miterlimit="10" stroke-width="0.25"/>
      <path id="Path_11829" data-name="Path 11829" d="M1724.839,465.31s-2.057,2.1-.656,4.1,6.006.867,6.006.867,1.267,3.488,4.137,3.679a5.279,5.279,0,0,0,4.471-2.277s2.936,3.8,8.474,1.668,3-7.006,3-7.006,3.87-.067,4.337-5.005-2.135-6.805-2.135-6.805a7.051,7.051,0,0,0,3.028-3.637" transform="translate(-1681.778 -426.777)" fill="none" stroke="#231815" stroke-miterlimit="10" stroke-width="0.25"/>
      <path id="Path_11830" data-name="Path 11830" d="M1744.5,450.391s2.4,1.359,1.936,3.5-3.27,1.6-3.27,1.6,2.07,4.138-.666,5.871-5.139-.8-5.139-.8,1.267,2.941-.867,3.806c-1.8.731-3.136-1.9-3.136-1.9" transform="translate(-1681.28 -426.803)" fill="none" stroke="#231815" stroke-miterlimit="10" stroke-width="0.25"/>
      <path id="Path_11831" data-name="Path 11831" d="M1750.65,473.832s1.869,3.136-1.868,2.868" transform="translate(-1680.486 -425.596)" fill="none" stroke="#231815" stroke-miterlimit="10" stroke-width="0.25"/>
      <path id="Path_11832" data-name="Path 11832" d="M1742.631,472.825s2.7,6.129-3.17,7.465c0,0,3.67,6.939-3.136,7.606a5.463,5.463,0,0,1-.9,5.046" transform="translate(-1681.174 -425.648)" fill="none" stroke="#231815" stroke-miterlimit="10" stroke-width="0.25"/>
    </g>
    <ellipse id="Ellipse_2081" data-name="Ellipse 2081" cx="4.88" cy="3.537" rx="4.88" ry="3.537" transform="translate(1793.491 450.536)" fill="#ecb36f" stroke="#000" stroke-linejoin="round" stroke-width="0.25"/>
    <ellipse id="Ellipse_2082" data-name="Ellipse 2082" cx="2.688" cy="1.769" rx="2.688" ry="1.769" transform="translate(1806.194 448.047)" fill="#c19165" stroke="#000" stroke-linejoin="round" stroke-width="0.25"/>
    <ellipse id="Ellipse_2083" data-name="Ellipse 2083" cx="4.389" cy="3.013" rx="4.389" ry="3.013" transform="translate(1838.557 511.454)" fill="#ecb36f" stroke="#000" stroke-linejoin="round" stroke-width="0.25"/>
    <ellipse id="Ellipse_2084" data-name="Ellipse 2084" cx="2.882" cy="1.9" rx="2.882" ry="1.9" transform="translate(1827.16 504.248)" fill="#ecb36f" stroke="#000" stroke-linejoin="round" stroke-width="0.25"/>
    <path id="Path_11833" data-name="Path 11833" d="M1767.428,502.9c12.577-7.4,20.437,5.634,31.094,1.048" transform="translate(5.757 16.153)" fill="none" stroke="#231815" stroke-miterlimit="10" stroke-width="0.25"/>
    <path id="Path_11834" data-name="Path 11834" d="M1811.383,462.544c7.177-4.155,14.6,4.165,19.739.9" transform="translate(8.02 14.134)" fill="none" stroke="#231815" stroke-miterlimit="10" stroke-width="0.25"/>
    <path id="Path_11835" data-name="Path 11835" d="M1809.327,440.6c8.937,4.64,13.581,1.346,21.9-.945,7.658-2.108,11.7,4.322,19.344,2.977" transform="translate(7.914 12.994)" fill="none" stroke="#231815" stroke-miterlimit="10" stroke-width="0.25"/>
    <path id="Path_11836" data-name="Path 11836" d="M1852.8,442.77c2.678-.943,3.18,1.092,6.445,1.092" transform="translate(10.152 13.164)" fill="none" stroke="#231815" stroke-miterlimit="10" stroke-width="0.25"/>
    <ellipse id="Ellipse_2085" data-name="Ellipse 2085" cx="5.052" cy="3.682" rx="5.052" ry="3.682" transform="translate(1958.366 472.493)" fill="#c19165" stroke="#000" stroke-linejoin="round" stroke-width="0.25"/>
    <ellipse id="Ellipse_2086" data-name="Ellipse 2086" cx="3.158" cy="1.684" rx="3.158" ry="1.684" transform="translate(1978.863 471.85)" fill="#ecb36f" stroke="#000" stroke-linejoin="round" stroke-width="0.25"/>
    <path id="Path_11837" data-name="Path 11837" d="M1921.91,431.251s7.438-3.929,15.438-1.263,14.6,4.351,19.368,1.824" transform="translate(13.71 12.471)" fill="none" stroke="#231815" stroke-miterlimit="10" stroke-width="0.25"/>
    <path id="Path_11838" data-name="Path 11838" d="M1958.482,432.869s4.351-.836,6.175,1.2" transform="translate(15.593 12.659)" fill="none" stroke="#231815" stroke-miterlimit="10" stroke-width="0.25"/>
    <g id="Group_3540" data-name="Group 3540" transform="translate(1919.321 369.471)">
      <path id="Path_11839" data-name="Path 11839" d="M1934.092,377.781c1.071-.4,14.139-.263,22.838-16.455,0,0,6.235-3.323,9.568,3.593,0,0-6.763,16.068,2.121,31.062l-10.706,6.557s-5.085-12.178-3.748-21.813c0,0-2.944,7.627-6.289,10.438,0,0-2.544-1.606-2.008-1.74s4.551-5.754,5.488-11.642c0,0-3.8,0-12.069,5.218S1934.092,377.781,1934.092,377.781Z" transform="translate(-1905.013 -360.528)" fill="#cad226" stroke="#231815" stroke-miterlimit="10" stroke-width="0.25"/>
      <path id="Path_11840" data-name="Path 11840" d="M1976.579,398.7a6.373,6.373,0,0,0-4.369-5.364c-3.075-1.168-6.3-.217-7.506,2.1a6.963,6.963,0,0,0-3.94-3.557c-3.269-1.242-6.734-.108-7.738,2.534-.019.052-.03.1-.048.157a6.736,6.736,0,0,0-5.9-.347,6.5,6.5,0,0,0-4.318,5.031c-2.97.423-5.229,2.513-5.229,5.033,0,2.825,2.836,5.116,6.334,5.116a7.3,7.3,0,0,0,3.911-1.1c-.057.122-.116.243-.165.371a6.135,6.135,0,0,0,3.821,7.778,6.478,6.478,0,0,0,5.559-.41,4.521,4.521,0,1,0,8.916,1.5,7.882,7.882,0,0,0,2.044,1.148,7.326,7.326,0,0,0,9.56-3.974,6.879,6.879,0,0,0-.209-5.331,5.66,5.66,0,0,0,2.783-3.047A6.1,6.1,0,0,0,1976.579,398.7Z" transform="translate(-1904.808 -358.94)" fill="#fff6eb" stroke="#000" stroke-miterlimit="10" stroke-width="0.25"/>
      <path id="Path_11841" data-name="Path 11841" d="M1951.814,385.739a6.562,6.562,0,0,0-4.741-1.926,4.364,4.364,0,0,0-1.025-4.259,4.737,4.737,0,0,0-6.448.165,8.27,8.27,0,0,0-2.464-5.334c-2.848-2.847-7.094-3.276-9.8-1.1a6.8,6.8,0,0,0-11.869,4.534c0,.151.012.3.023.449a6.366,6.366,0,0,0-4.814,1.8,6.671,6.671,0,0,0-1.475,6.737,5.264,5.264,0,0,0-1.273.922,4.554,4.554,0,0,0-.367,6.409,3.925,3.925,0,0,0,2.172,1.087c-.431,2.4-.921,5.472-.921,5.472l4.576,5.632h4.155a9.708,9.708,0,0,1,11.9,5.4,6.585,6.585,0,0,0,9.247.062,3.48,3.48,0,0,0,5.366.485,3.5,3.5,0,0,0,.171-4.76c2.125-1.846,4.761-4.2,4.831-4.611.058-.334-.346-3.144-.8-6.02a6.58,6.58,0,0,0,3.557-11.147Z" transform="translate(-1906.409 -359.988)" fill="#fff6eb" stroke="#000" stroke-miterlimit="10" stroke-width="0.25"/>
      <path id="Path_11842" data-name="Path 11842" d="M1920.12,380.317s-2.3,1.789-1.795,3.873a4.247,4.247,0,0,0,2.872,2.731s-2.055,2.446-.717,4.937c1.434,2.672,5.1,1.954,5.1,1.954" transform="translate(-1905.8 -359.509)" fill="none" stroke="#231815" stroke-miterlimit="10" stroke-width="0.25"/>
      <path id="Path_11843" data-name="Path 11843" d="M1932.046,390.9s-.933,4.666,3.374,2.8c0,0,.071,3.086,2.87,1.292" transform="translate(-1905.094 -358.965)" fill="none" stroke="#231815" stroke-miterlimit="10" stroke-width="0.25"/>
      <path id="Path_11844" data-name="Path 11844" d="M1957.936,401.64s-.691,4.982,3.975,2.925c0,0,1.265,3.447,3.953.5" transform="translate(-1903.759 -358.412)" fill="none" stroke="#231815" stroke-miterlimit="10" stroke-width="0.25"/>
    </g>
    <path id="Path_11845" data-name="Path 11845" d="M1900.716,360.133c.923-.577,5.656-4.271,10.62-2.078s7.042,3.117,14.544,1.269" transform="translate(12.619 8.78)" fill="none" stroke="#231815" stroke-miterlimit="10" stroke-width="0.25"/>
    <path id="Path_11846" data-name="Path 11846" d="M1933.532,360.169s2.966.51,4.2,1.723" transform="translate(14.308 8.925)" fill="none" stroke="#231815" stroke-miterlimit="10" stroke-width="0.25"/>
    <g id="Group_3541" data-name="Group 3541" transform="translate(1691.3 219.083)">
      <path id="Path_11847" data-name="Path 11847" d="M1898.058,297.835a6.7,6.7,0,0,0-.028-1.266,7.517,7.517,0,0,0-7.338-6.339,7.444,7.444,0,0,0,4.928-7.695,6.847,6.847,0,0,0-1.717-3.738,5.97,5.97,0,0,0,3.253-5.784,5.524,5.524,0,0,0-2.536-3.914,5.524,5.524,0,0,0,1.516-4.411,5.9,5.9,0,0,0-4.235-4.734,3.784,3.784,0,0,0,.475-2.285c-.329-2.69-3.683-4.494-7.522-4.072a8.06,8.06,0,0,0,.8-4.643,7.753,7.753,0,0,0-4.439-6.213,6.355,6.355,0,0,0-7.071-9.042,5.436,5.436,0,0,0-8.3-5.936,6.952,6.952,0,0,0-3.045-4.572,7.476,7.476,0,0,0-9.135,1.186,6.715,6.715,0,0,0-1.295-1.82c-2.861-2.862-7.737-2.627-10.889.526a8.818,8.818,0,0,0-1.43,1.875,8,8,0,0,0-9.2,1.753,8.4,8.4,0,0,0-2.52,6.154,6.678,6.678,0,0,0-2.147-.437c-4.044-.148-7.455,3.344-7.618,7.8-.009.244,0,.485.006.723a6.136,6.136,0,0,0-6.655-.089,6.416,6.416,0,0,0-2.764-4.862,5.955,5.955,0,0,0-8.339,1.02,5.172,5.172,0,0,0-.655,1.288,8.948,8.948,0,0,0-1.352-1.177c-.147-.1-.3-.193-.451-.288a2.9,2.9,0,0,0-2.479-4.263,5.286,5.286,0,0,0-6.744-4.626,6.089,6.089,0,0,0-7.929-5.5,6.09,6.09,0,0,0-8.9-2.492,8.562,8.562,0,0,0-14.012,3.047,8.581,8.581,0,0,0-10.077,10.392,7.792,7.792,0,0,0-7.276,3.124,7.679,7.679,0,0,0-.9,6.963,9.527,9.527,0,0,0-6.276,6.36,9.917,9.917,0,0,0,.374,7.431,6.549,6.549,0,0,0-4.112,2.6,7.211,7.211,0,0,0,.005,7.84,10.876,10.876,0,0,0-6.6,4.356,11.008,11.008,0,0,0-1.085,1.916,10.243,10.243,0,0,0-10.474,3.924,9.667,9.667,0,0,0-1.752,5.3,10.534,10.534,0,0,0-9.5,4.338,10.409,10.409,0,0,0-1.557,8.541,9.116,9.116,0,0,0-3.916,11.713,10.212,10.212,0,0,0-2.9,2.741,10.721,10.721,0,0,0,.659,12.978,10.2,10.2,0,0,0-1.472,1.661,10.892,10.892,0,0,0,2.942,15.114,11.508,11.508,0,0,0,3.578,1.692,8.848,8.848,0,0,0,11.52,9.908,8.755,8.755,0,0,0,.752,3.413,8.433,8.433,0,0,0-5.083,3.364,8.676,8.676,0,0,0,2.206,12.069,8.994,8.994,0,0,0,1.643.916,8.833,8.833,0,0,0,10.427,11.222,5.094,5.094,0,0,0,.514,3.671c1.574,2.727,5.5,3.408,8.764,1.523a7.892,7.892,0,0,0,2.464-2.21,5.583,5.583,0,0,0,7.067.836,5.87,5.87,0,0,0,3.086-5.288l41.732-7,63.617,14.048,27.171-30.819,24.563-40.676-.852-2.662a10.679,10.679,0,0,0,3.827-4.546C1903.53,305,1902.044,299.669,1898.058,297.835Z" transform="translate(-1689.552 -217.503)" fill="#fff6eb" stroke="#000" stroke-miterlimit="10" stroke-width="0.25"/>
      <path id="Path_11848" data-name="Path 11848" d="M1832.424,357.831a7.559,7.559,0,0,0-2.076-14.527,6.9,6.9,0,0,0,.2-7.763c-2.184-3.113-6.883-3.583-10.5-1.049,0,0-.273-6.992-5.861-7.758a9.325,9.325,0,0,0-.293-5.782c-1.651-4.374-6.091-6.772-10.089-5.554-.091-7.443-6.451-13.453-14.292-13.453a14.687,14.687,0,0,0-8.695,2.823,6.144,6.144,0,0,0-11.289.178,7.918,7.918,0,0,0-11.626,5.988,5.469,5.469,0,0,0-.895-.089,5.365,5.365,0,0,0-5.008,7.349,12.063,12.063,0,0,0-9.271,15.658,8.829,8.829,0,0,0-4.737,4.817,9.37,9.37,0,0,0,1.479,8.911,6.767,6.767,0,0,0-4.059,3.763c-1.026,2.643-.014,5.717,2.368,8.221a6.5,6.5,0,0,0-2.848,3.237c-1.1,2.836.059,6.1,2.662,8.471a4.553,4.553,0,0,0-.689,2.52c.155,3.811,5.471,6.691,11.876,6.433.605-.025,1.194-.085,1.773-.162,3.075,6.967,19.964,11.736,40.121,10.922,22.108-.893,39.768-8.162,39.441-16.237a6.24,6.24,0,0,0-1.317-3.471,7.562,7.562,0,0,0,3.615-13.446Z" transform="translate(-1687.236 -213.197)" fill="#fff6eb" stroke="#000" stroke-miterlimit="10" stroke-width="0.25"/>
      <path id="Path_11849" data-name="Path 11849" d="M1751.153,317.362a6.069,6.069,0,0,1,4.854,1.233" transform="translate(-1686.38 -212.367)" fill="none" stroke="#231815" stroke-miterlimit="10" stroke-width="0.25"/>
      <path id="Path_11850" data-name="Path 11850" d="M1776.3,329.848s-.413-5.542,3.474-7.279,6.039,2.068,6.039,2.068,1.406-4.8,5.872-4.135,3.391,5.541,3.391,5.541,3.061-1.82,5.211-.5,1.323,5.873,1.323,5.873,7.361,1.241,2.565,10.919" transform="translate(-1685.087 -212.204)" fill="none" stroke="#231815" stroke-miterlimit="10" stroke-width="0.25"/>
      <path id="Path_11851" data-name="Path 11851" d="M1812.338,366.053c.248-.083,7.609-2.813,4.88-8.685,0,0,5.046-6.617-1.406-8.437,0,0,3.284-2.73,2.15-6.2-1.093-3.349-5.045-2.233-5.045-2.233s-2.545-5.646-8.8-2.7" transform="translate(-1683.654 -211.354)" fill="none" stroke="#231815" stroke-miterlimit="10" stroke-width="0.25"/>
      <path id="Path_11852" data-name="Path 11852" d="M1816.043,332.858a9.9,9.9,0,0,1-3.557,7.847" transform="translate(-1683.223 -211.565)" fill="none" stroke="#231815" stroke-miterlimit="10" stroke-width="0.25"/>
      <path id="Path_11853" data-name="Path 11853" d="M1759.419,357.36a4.627,4.627,0,0,1-2.017-4.425c.455-2.863,3.969-2.082,3.969-2.082s-1.407-3.941.976-6.821c2.147-2.6,6.182-1.354,6.7,0a6.389,6.389,0,0,1,6.442-2.419c4.034.976,4.165,5.726,4.165,5.726s6.572-1.953,6.507,6.962" transform="translate(-1686.062 -211.123)" fill="none" stroke="#231815" stroke-miterlimit="10" stroke-width="0.25"/>
      <ellipse id="Ellipse_2087" data-name="Ellipse 2087" cx="4.076" cy="3.092" rx="4.076" ry="3.092" transform="translate(61.924 116.002)" fill="#dffffa" stroke="#231815" stroke-miterlimit="10" stroke-width="0.25"/>
      <ellipse id="Ellipse_2088" data-name="Ellipse 2088" cx="2.062" cy="1.453" rx="2.062" ry="1.453" transform="translate(70.733 111.973)" fill="#dffffa" stroke="#231815" stroke-miterlimit="10" stroke-width="0.25"/>
      <path id="Path_11854" data-name="Path 11854" d="M1762,267.739a7.668,7.668,0,0,0-10.9-2.257,8.482,8.482,0,0,0-8.625-3.246c-5.893,1.025-7.615,4.527-7.615,4.527-2.235-2.648-6.809-1.344-6.809-1.344" transform="translate(-1687.57 -215.208)" fill="none" stroke="#231815" stroke-miterlimit="10" stroke-width="0.25"/>
      <path id="Path_11855" data-name="Path 11855" d="M1708.5,345.606s-.219-4.741,8.927-5.825" transform="translate(-1688.576 -211.208)" fill="none" stroke="#231815" stroke-miterlimit="10" stroke-width="0.25"/>
      <path id="Path_11856" data-name="Path 11856" d="M1722.24,364.561a3.992,3.992,0,0,1-1.4-4.2c.764-2.61,3.645-2.228,3.645-2.228a5.889,5.889,0,0,1-.339-4.647c.656-1.931,2.486-2.737,4.587-2.355" transform="translate(-1687.95 -210.629)" fill="none" stroke="#231815" stroke-miterlimit="10" stroke-width="0.25"/>
      <path id="Path_11857" data-name="Path 11857" d="M1702.389,322.53s-2.631-4.458,1.243-5.846" transform="translate(-1688.935 -212.397)" fill="none" stroke="#231815" stroke-miterlimit="10" stroke-width="0.25"/>
      <path id="Path_11858" data-name="Path 11858" d="M1718.458,322.732s-2.178-3.674-.439-5.846a3.246,3.246,0,0,1,4.166-.731,4.091,4.091,0,0,1,3.58-3.363,4.037,4.037,0,0,1,4.24,2.339s2.631-2.557,5.774-1.9,4.094,4.936,4.094,4.936" transform="translate(-1688.121 -212.599)" fill="none" stroke="#231815" stroke-miterlimit="10" stroke-width="0.25"/>
      <path id="Path_11859" data-name="Path 11859" d="M1709.117,280a8.445,8.445,0,0,1,7.33,4.522s2.049-3.913,5.124-3.633,4.472,4.006,4.472,4.006a6.032,6.032,0,0,1,5.683-2.449c3.633.586,4.938,4.219,4.938,7.387" transform="translate(-1688.545 -214.286)" fill="none" stroke="#231815" stroke-miterlimit="10" stroke-width="0.25"/>
      <path id="Path_11860" data-name="Path 11860" d="M1725.1,309.931s-2.422-3.634-.559-7.081,6.149-3.139,6.149-3.139a9.674,9.674,0,0,1,1.771-6.924c2.422-3.167,6.335-3.261,7.825-1.4,0,0,.932-3.633,3.634-3.726s3.82,3.914,3.82,3.914" transform="translate(-1687.787 -213.891)" fill="none" stroke="#231815" stroke-miterlimit="10" stroke-width="0.25"/>
      <path id="Path_11861" data-name="Path 11861" d="M1752.835,313.225s-1.757-4.125,1.993-5.664c0,0-4.419-.67-5.022-4.286s1.6-6.5,3.848-7.1c0,0-3.246-6.964,2.981-8.572,0,0-2.076-3.883,0-6.964s6.429-2.143,6.429-2.143" transform="translate(-1686.455 -214.37)" fill="none" stroke="#231815" stroke-miterlimit="10" stroke-width="0.25"/>
      <path id="Path_11862" data-name="Path 11862" d="M1786.838,273.295s-1.3,3.5-4.312,2.035c0,0-1.872,3.824-5.452,3.173a5.087,5.087,0,0,1-4.15-3.905,7.753,7.753,0,0,1-4.759,6.248c-4.422,1.778-6.3-1.009-6.007-3.509,0,0-3.99-.185-3.412-5.046.605-5.091,4.757-5.67,4.757-5.67s-2.283-2.74-.9-5.046,5.755-1.442,5.755-1.442a7.023,7.023,0,0,1,.144-6.488c1.875-3.412,5.719-3.364,7.209-1.3,0,0,2.674-3.048,6.488-2.259,4.641.961,4.641,7.641,4.641,7.641" transform="translate(-1685.993 -215.832)" fill="none" stroke="#231815" stroke-miterlimit="10" stroke-width="0.25"/>
      <path id="Path_11863" data-name="Path 11863" d="M1808.935,318.869a9.638,9.638,0,0,1,1.7-5.983c1.993-2.656,6.071-1.328,6.071-1.328s-1.424-5.786,2.655-8.917,9.2-.474,9.675.95c0,0,1.517-3.795,5.311-3.7s6.735,3.888,6.64,6.165c0,0,8.347-1.708,8.251,9.675,0,0,5.6-2.371,3.321,8.631" transform="translate(-1683.407 -213.262)" fill="none" stroke="#231815" stroke-miterlimit="10" stroke-width="0.25"/>
      <path id="Path_11864" data-name="Path 11864" d="M1824.768,325.764s-1.314-2.775.511-4.819,4.235,0,4.235,0a4.625,4.625,0,0,1,3.009-2.7c2.247-.585,3.854,1.533,4,2.994" transform="translate(-1682.614 -212.322)" fill="none" stroke="#231815" stroke-miterlimit="10" stroke-width="0.25"/>
      <path id="Path_11865" data-name="Path 11865" d="M1840.866,332.628a7.036,7.036,0,0,1,2.409-7.3c3.724-2.847,6.937-.949,6.937-.949a4.827,4.827,0,0,1,4.234-4.746,5.092,5.092,0,0,1,5.7,3.286s1.168-3.577,4.308-2.92,2.629,7.739,2.629,7.739" transform="translate(-1681.774 -212.25)" fill="none" stroke="#231815" stroke-miterlimit="10" stroke-width="0.25"/>
      <path id="Path_11866" data-name="Path 11866" d="M1842.029,307.07c.006-.393-.431-7.695,5.264-8.206,0,0-.657-5.767,2.848-9.71s9.492-3.8,11.1-2.044a6.8,6.8,0,0,1,6.207-5.184c5.256-.439,9.346,1.752,9.564,7.374a7.9,7.9,0,0,1,5.834-2.384" transform="translate(-1681.702 -214.189)" fill="none" stroke="#231815" stroke-miterlimit="10" stroke-width="0.25"/>
      <ellipse id="Ellipse_2089" data-name="Ellipse 2089" cx="2.61" cy="4.039" rx="2.61" ry="4.039" transform="translate(110.331 36.615) rotate(-79.916)" fill="#dffffa" stroke="#231815" stroke-miterlimit="10" stroke-width="0.25"/>
      <ellipse id="Ellipse_2090" data-name="Ellipse 2090" cx="2.92" cy="4.598" rx="2.92" ry="4.598" transform="translate(123.69 41.817) rotate(-82.323)" fill="#dffffa" stroke="#231815" stroke-miterlimit="10" stroke-width="0.25"/>
      <path id="Path_11867" data-name="Path 11867" d="M1776.329,251.947a6.372,6.372,0,0,1-2.084-6.236c.667-4.293,5.033-4.663,6.44-3.627,0,0,.518-4.071,3.923-5.922a9.693,9.693,0,0,1,9.4-.213" transform="translate(-1685.197 -216.611)" fill="none" stroke="#231815" stroke-miterlimit="10" stroke-width="0.25"/>
      <path id="Path_11868" data-name="Path 11868" d="M1755.938,244.543s-.357-3.776,2.893-4.22a3.809,3.809,0,0,1,4.14,2.788,3.57,3.57,0,0,1,3.849-2.122c2.814.444,2.739,4.515,2.739,4.515" transform="translate(-1686.135 -216.33)" fill="none" stroke="#231815" stroke-miterlimit="10" stroke-width="0.25"/>
      <path id="Path_11869" data-name="Path 11869" d="M1805.568,268.159s-.3-5.033,2.887-6.144,5.034,1.678,5.329,3.06c0,0,2.3-3.577,5.108-2.69s2.738,4.812,2.738,4.812,3.628-.222,4.441,2.887a6.336,6.336,0,0,1-.74,5.181" transform="translate(-1683.58 -215.225)" fill="none" stroke="#231815" stroke-miterlimit="10" stroke-width="0.25"/>
      <path id="Path_11870" data-name="Path 11870" d="M1831.051,284.177a9.655,9.655,0,0,1,3.553-6.514,7.006,7.006,0,0,1,9.845.445s2.146-4.071,5.774-5.108,5.922.889,6.439,1.7c0,0,4.034-1.278,6.336,1.259,2.62,2.887.881,8.135.881,8.135" transform="translate(-1682.267 -214.661)" fill="none" stroke="#231815" stroke-miterlimit="10" stroke-width="0.25"/>
      <path id="Path_11871" data-name="Path 11871" d="M1812.263,239.8s4.258,2.859,6.457,9.912c0,0,3.308-3.206,7.243-1.923s4.392,8.1,4.392,8.1a12.187,12.187,0,0,1,11.451-3.34c6.5,1.557,6.91,10.338,6.91,10.338a7.1,7.1,0,0,1,6.831,0c3.39,2.029,2.284,8.915.363,12.113" transform="translate(-1683.235 -216.355)" fill="none" stroke="#231815" stroke-miterlimit="10" stroke-width="0.25"/>
      <path id="Path_11872" data-name="Path 11872" d="M1836.541,237.2s1.317-3.331,4.724-3.021,2.711,4.725,2.711,4.725,2.092-3.119,5.189-2.373,2.4,4.7,2.4,4.7" transform="translate(-1681.985 -216.646)" fill="none" stroke="#231815" stroke-miterlimit="10" stroke-width="0.25"/>
      <path id="Path_11873" data-name="Path 11873" d="M1856.356,252.83a7,7,0,0,1,6.351-3.33c4.183.232,5.189,4.492,5.189,4.492a25.869,25.869,0,0,1,8.371-2.041" transform="translate(-1680.965 -215.856)" fill="none" stroke="#231815" stroke-miterlimit="10" stroke-width="0.25"/>
      <path id="Path_11874" data-name="Path 11874" d="M1864.679,266.962s2.092-.542,3.177.774,0,3.021,0,3.021,2.25-.2,2.788,1.627c.384,1.3-.387,2.943-1.7,4.183" transform="translate(-1680.536 -214.962)" fill="none" stroke="#231815" stroke-miterlimit="10" stroke-width="0.25"/>
      <path id="Path_11875" data-name="Path 11875" d="M1786.764,296.934s-2.047-2.047-.512-4.095,4.2-.512,4.2-.512a5.276,5.276,0,0,1,2.15-5.836,4.029,4.029,0,0,1,6.04,2.764s1.228-3.275,4.094-2.456,1.945,4.669,1.945,4.669" transform="translate(-1684.603 -213.983)" fill="none" stroke="#231815" stroke-miterlimit="10" stroke-width="0.25"/>
      <path id="Path_11876" data-name="Path 11876" d="M1861.434,305.544s-.093-3.32,2.8-4.393a3.561,3.561,0,0,1,4.847,2.6s2.193-2.192,4.118-1.329,1.992,2.525,1.728,4.051c0,0,1.992-.73,2.988.4s.266,4.185-1,6.177" transform="translate(-1680.703 -213.211)" fill="none" stroke="#231815" stroke-miterlimit="10" stroke-width="0.25"/>
      <path id="Path_11877" data-name="Path 11877" d="M1837.5,350.425a3.271,3.271,0,0,1,0-3.455c1.094-1.642,3.646-1.28,3.646-1.28" transform="translate(-1681.962 -210.906)" fill="none" stroke="#231815" stroke-miterlimit="10" stroke-width="0.25"/>
    </g>
    <g id="Group_3542" data-name="Group 3542" transform="translate(1843.987 309.047)">
      <path id="Path_11878" data-name="Path 11878" d="M1844.61,368.442s-3.175-3.558,1.269-15.824,17.933-11.949,28.249-22.74,4.723-12.156,10.211-17.915,10.711-3.722,16.024-7.087a12,12,0,0,1,13.5.593c2.536,1.972,3.029,8.1,7.961,12.187s3.979,19.507-5.072,30.605-10.991,16.487-12.931,27.587-12.392,19.2-24.676,23.448-20.151,13.993-20.151,13.993-24.229-4.815-24.229-5.281S1844.61,368.442,1844.61,368.442Z" transform="translate(-1834.763 -303.063)" fill="#cad226" stroke="#231815" stroke-miterlimit="10" stroke-width="0.25"/>
      <path id="Path_11879" data-name="Path 11879" d="M1882.094,331.987s1.185,20.528-4.228,39.9c-2.508,8.971-6.662,20.465-6.032,28.25" transform="translate(-1832.858 -301.574)" fill="none" stroke="#231815" stroke-miterlimit="10" stroke-width="0.25"/>
      <path id="Path_11880" data-name="Path 11880" d="M1861.433,345.657c3.015,13.563,15.5,12.353,18.344,19.948" transform="translate(-1833.39 -300.87)" fill="none" stroke="#231815" stroke-miterlimit="10" stroke-width="0.25"/>
      <path id="Path_11881" data-name="Path 11881" d="M1908.5,318.144c-9.164,2.732-6.989,24.011-27.636,35.866" transform="translate(-1832.39 -302.286)" fill="none" stroke="#231815" stroke-miterlimit="10" stroke-width="0.25"/>
      <path id="Path_11882" data-name="Path 11882" d="M1905.369,344.671c-1.64,5.805-4.628,13.458-15.221,17.551-11.5,4.444-9.974,14.589-14.928,17.39" transform="translate(-1832.68 -300.921)" fill="none" stroke="#231815" stroke-miterlimit="10" stroke-width="0.25"/>
      <path id="Path_11883" data-name="Path 11883" d="M1872.666,388.476c5.824-3.909,11.91-1.1,20.271-9.751a22.365,22.365,0,0,1,8.784-5.727" transform="translate(-1832.812 -299.462)" fill="none" stroke="#231815" stroke-miterlimit="10" stroke-width="0.25"/>
      <path id="Path_11884" data-name="Path 11884" d="M1859.709,373.411c-.508,15.044,10.32,16.141,10.986,25.551" transform="translate(-1833.48 -299.441)" fill="none" stroke="#231815" stroke-miterlimit="10" stroke-width="0.25"/>
      <ellipse id="Ellipse_2091" data-name="Ellipse 2091" cx="3.498" cy="2.197" rx="3.498" ry="2.197" transform="matrix(0.809, -0.587, 0.587, 0.809, 62.064, 9.164)" fill="#dffffa" stroke="#231815" stroke-miterlimit="10" stroke-width="0.25"/>
    </g>
    <g id="Group_3543" data-name="Group 3543" transform="translate(1737.344 371.656)">
      <path id="Path_11885" data-name="Path 11885" d="M1794.69,426.655c14.311-2.077,27.414,4.017,40.215-2.007s10.792-17.672,19.227-25.3S1870.4,385.889,1871,376.049s-5.445-14.269-11.6-13.058-17.924-2.566-26.942,1.741-16.5,16.073-26.062,18.053-15.592-.33-20.5-4.728-18.322-1.1-23.6-3.08-12.866-1.979-16.276,3.849-10.007,5.388-12.1,12.316,1.539,13.746,9.128,17.376,10.227,7.587,13.746,12.976,9.567,8.468,16.6,8.357S1787.164,427.748,1794.69,426.655Z" transform="translate(-1733.341 -362.606)" fill="#a5b63d" stroke="#231815" stroke-miterlimit="10" stroke-width="0.25"/>
      <path id="Path_11886" data-name="Path 11886" d="M1797.656,391.323s-4.989,24.006,2.465,33.432" transform="translate(-1730.114 -361.127)" fill="none" stroke="#231815" stroke-miterlimit="10" stroke-width="0.25"/>
      <path id="Path_11887" data-name="Path 11887" d="M1766.715,382.705c7.837,16.531,27.061,8.45,31.013,20.059" transform="translate(-1731.623 -361.571)" fill="none" stroke="#231815" stroke-miterlimit="10" stroke-width="0.25"/>
      <path id="Path_11888" data-name="Path 11888" d="M1754.487,388.528c9.919,31.47,35.634,17.265,44.49,28.522" transform="translate(-1732.252 -361.271)" fill="none" stroke="#231815" stroke-miterlimit="10" stroke-width="0.25"/>
      <ellipse id="Ellipse_2092" data-name="Ellipse 2092" cx="1.908" cy="1.469" rx="1.908" ry="1.469" transform="translate(8.484 27.257)" fill="#dffffa" stroke="#231815" stroke-miterlimit="10" stroke-width="0.25"/>
      <ellipse id="Ellipse_2093" data-name="Ellipse 2093" cx="3.043" cy="5.055" rx="3.043" ry="5.055" transform="matrix(0.177, -0.984, 0.984, 0.177, 14.421, 23.508)" fill="#dffffa" stroke="#231815" stroke-miterlimit="10" stroke-width="0.25"/>
      <path id="Path_11889" data-name="Path 11889" d="M1752.79,404.3c6.705,13,20.013,16.093,22.179,23.4" transform="translate(-1732.34 -360.459)" fill="none" stroke="#231815" stroke-miterlimit="10" stroke-width="0.25"/>
      <path id="Path_11890" data-name="Path 11890" d="M1797,399.321c6.01-5.652,18.118-.36,35.525-19.236" transform="translate(-1730.064 -361.706)" fill="none" stroke="#231815" stroke-miterlimit="10" stroke-width="0.25"/>
      <path id="Path_11891" data-name="Path 11891" d="M1798.82,423.517c18.917-23.266,35.016-14.966,51.131-42.142" transform="translate(-1729.97 -361.639)" fill="none" stroke="#231815" stroke-miterlimit="10" stroke-width="0.25"/>
      <path id="Path_11892" data-name="Path 11892" d="M1837.032,405.024c-1.017,7.686-14.575,12.6-15.594,19.921" transform="translate(-1728.806 -360.422)" fill="none" stroke="#231815" stroke-miterlimit="10" stroke-width="0.25"/>
    </g>
    <g id="Group_3546" data-name="Group 3546" transform="translate(1839.806 397.552)">
      <g id="Group_3544" data-name="Group 3544" transform="translate(27.078 38.627)">
        <path id="Path_11893" data-name="Path 11893" d="M1856.539,434.985s11.382,7.085,9.728,18.391-5.986,16.226-5.986,16.226,16.335,12.994,16.61,12.3,2.49-6.775,11.169-15.1,23.482-11.774,31.661-7.5c0,0-1.61-13.534-2.3-13.317s-12.938,1.183-17.706,4.079c0,0,2.926-5.839,6.261-8.869,0,0-2.481-2.589-2.758-1.823s-6.2,5.314-7.859,10.968c0,0-6.757.689-9.791,2.619a31.534,31.534,0,0,1,16.4-17.246c0-1.3-3.718-9.021-3.718-9.021l-15.269-2.725s1.736,11.774-5.217,20.177c0,0-1.082-10.488-6.913-15.452,0,0-5.142,1.378-4.729,1.516s3.171,3.457,3.861,9.8c0,0-5.653-8.278-11.582-10.623Z" transform="translate(-1856.539 -423.97)" fill="#cad226" stroke="#231815" stroke-miterlimit="10" stroke-width="0.25"/>
        <ellipse id="Ellipse_2094" data-name="Ellipse 2094" cx="3.77" cy="10.336" rx="3.77" ry="10.336" transform="translate(1.498 48.663) rotate(-53.469)" fill="#a5b63d" stroke="#231815" stroke-miterlimit="10" stroke-width="0.25"/>
      </g>
      <path id="Path_11894" data-name="Path 11894" d="M1937.323,436.271a8.369,8.369,0,0,0,.5-2.3,9.309,9.309,0,0,0-7.345-9.442,6.863,6.863,0,1,0-13.431-.6c-3.611,1.776-8.04,3.961-11.17,5.525a7.72,7.72,0,1,0-1.145,13.847,7.3,7.3,0,0,0-1.154,3.922,8,8,0,0,0,8.26,7.719,8.82,8.82,0,0,0,2.236-.293,6.385,6.385,0,0,0,8.43,8.817c2.908,3.518,7.465,4.8,10.9,2.817,3.919-2.263,4.888-7.921,2.165-12.638a11.832,11.832,0,0,0-1.033-1.5,9.112,9.112,0,0,0,6.752-7.96A8.911,8.911,0,0,0,1937.323,436.271Z" transform="translate(-1827.52 -385.753)" fill="#fff6eb" stroke="#000" stroke-miterlimit="10" stroke-width="0.25"/>
      <path id="Path_11895" data-name="Path 11895" d="M1922.624,434.014s3.071-.246,3.687,2.212-1.844,3.87-1.844,3.87,3.195.922,2.764,2.949-3.072,2.765-3.072,2.765" transform="translate(-1826.059 -384.826)" fill="none" stroke="#231815" stroke-miterlimit="10" stroke-width="0.25"/>
      <path id="Path_11896" data-name="Path 11896" d="M1917.949,447.462c.191-1.033,3.108-3.435,6.092-2.211,2.868,1.176,1.147,4.24,1.147,4.24s2.213.091,2.714,1.72a3.53,3.53,0,0,1-2.334,4.609" transform="translate(-1826.3 -384.265)" fill="none" stroke="#231815" stroke-miterlimit="10" stroke-width="0.25"/>
      <path id="Path_11897" data-name="Path 11897" d="M1875.381,410.609c0-1.192-5.691-4.02-7.438-4.86a13.219,13.219,0,0,0-24.783.9,8.027,8.027,0,0,0-8.55,9.993c-3.269,2.394-4.722,6.049-3.247,8.6,1.073,1.857,3.422,2.661,6.046,2.341a4.99,4.99,0,0,0,.188,4.281c1.63,2.824,6.212,3.231,10.234.909a11.659,11.659,0,0,0,2.1-1.548,6.427,6.427,0,0,0,11.99,1.959,4.509,4.509,0,0,0,2.208,1.608c2.192.7,4.656-.489,6.414-2.8.1.075.181.159.285.226a3.734,3.734,0,0,0,4.545-5.891c.716-.517,1.307-.937,1.413-.993C1877.091,425.184,1875.381,412.017,1875.381,410.609Z" transform="translate(-1830.787 -386.712)" fill="#fff6eb" stroke="#000" stroke-miterlimit="10" stroke-width="0.25"/>
      <path id="Path_11898" data-name="Path 11898" d="M1846.268,416.347a8.058,8.058,0,0,1,1.245-5.487c1.739-2.277,4.251-1.492,4.487,0,0,0,1.963-1.649,3.847-1.1s2.356,3.321,1.728,5" transform="translate(-1829.993 -386.091)" fill="none" stroke="#231815" stroke-miterlimit="10" stroke-width="0.25"/>
      <g id="Group_3545" data-name="Group 3545" transform="translate(32.302)">
        <path id="Path_11899" data-name="Path 11899" d="M1923.231,428.413a7.065,7.065,0,0,0-3.3-4.69,4.858,4.858,0,0,0,1.679-1.574,4.912,4.912,0,0,0-2.364-7.239,6.65,6.65,0,0,0,2.8-7.178,6.79,6.79,0,0,0-4.781-5.294,6.537,6.537,0,0,0-2.953-7.59,6.916,6.916,0,0,0-6.49-.662,9.92,9.92,0,0,0-9.327-5.991,10.4,10.4,0,0,0-6.692,2.388,7.13,7.13,0,0,0-12.206.193,6.156,6.156,0,0,0-10.675,4.187V395a6.156,6.156,0,0,0-3.08,11.027,5.658,5.658,0,0,0,1.316,11.158,8.575,8.575,0,0,0-.327,2.31c0,5.023,4.331,9.094,9.674,9.094a10.067,10.067,0,0,0,5.24-1.456c.525,4.622,5.268,8.243,11.047,8.243a12.681,12.681,0,0,0,6.731-1.875,9.847,9.847,0,0,0,9.535,6.562,10.619,10.619,0,0,0,4.575-1.028,2.775,2.775,0,0,0,1.141,1.506,2.8,2.8,0,0,0,3.573-4.254c.177-.019.353-.044.531-.081C1922.053,435.525,1924,432.039,1923.231,428.413Z" transform="translate(-1861.507 -387.234)" fill="#fff6eb" stroke="#000" stroke-miterlimit="10" stroke-width="0.25"/>
        <ellipse id="Ellipse_2095" data-name="Ellipse 2095" cx="2.723" cy="1.873" rx="2.723" ry="1.873" transform="translate(17.913 6.308)" fill="#dffffa" stroke="#231815" stroke-miterlimit="10" stroke-width="0.25"/>
        <ellipse id="Ellipse_2096" data-name="Ellipse 2096" cx="4.157" cy="2.687" rx="4.157" ry="2.687" transform="translate(26.298 9.461)" fill="#dffffa" stroke="#231815" stroke-miterlimit="10" stroke-width="0.25"/>
        <path id="Path_11900" data-name="Path 11900" d="M1878.136,410.062s-.574-3.941,2.723-5.231,5.16,3.23,5.16,3.23,2.561-3.159,5.58-2.3,3.091,4.874,3.091,4.874,3.153-1.362,5.3,1-.358,8.456-.358,8.456" transform="translate(-1860.653 -386.34)" fill="none" stroke="#231815" stroke-miterlimit="10" stroke-width="0.25"/>
        <path id="Path_11901" data-name="Path 11901" d="M1908.736,420.633s3.225-.932,3.512-3.512a3.309,3.309,0,0,0-3.082-3.655s1.863-3.44.071-5.088-4.371,0-4.371,0-1.076-3.583-3.727-3.01-3.492,3.922-3.537,5.222" transform="translate(-1859.649 -386.304)" fill="none" stroke="#231815" stroke-miterlimit="10" stroke-width="0.25"/>
      </g>
    </g>
    <path id="Path_11902" data-name="Path 11902" d="M1916.628,473.3c12.108-4.057,15.372,5.639,26.255,3.364" transform="translate(13.438 14.697)" fill="none" stroke="#231815" stroke-miterlimit="10" stroke-width="0.25"/>
    <path id="Path_11903" data-name="Path 11903" d="M1947.117,477.854c.558.07,4.112,1.953,7.319,1.534" transform="translate(15.007 14.983)" fill="none" stroke="#231815" stroke-miterlimit="10" stroke-width="0.25"/>
  </g>
</svg>
