<svg xmlns="http://www.w3.org/2000/svg" width="346.304" height="337.019" viewBox="0 0 346.304 337.019">
  <g id="Group_3858" data-name="Group 3858" transform="translate(-3194.197 -1318.812)">
    <g id="Group_3858-2" data-name="Group 3858" transform="translate(3225.494 1391.804)">
      <path id="Path_14504" data-name="Path 14504" d="M3224.823,1391.288c2.858-2.988,3.57-.8,7.763-1.963s5.265-2.945,9.281-2.142,5.533,2.476,9.013,1.951,3.837.012,5.8,2.154,3.57,1.071,6.693,1.963,5.177,4.373,5.177,4.373l32.432,40.413s-53.2,49.752-56.7,49.976-4.64-.974-5.265-3.027-4.806-2.142-4.946-5.354,1.823-2.543.574-7.072,2.856-4.618,4.016-8.009-1.16-6.6-2.945-10.084.714-5.89-.447-9.905-2.677-2.766-4.016-5.89,1.428-4.283.179-7.228-3.927-4.016-3.48-7.317.535-5.622-1.071-7.675-1.16-5-1.16-7.852-1.874-3.035-2.053-5.89,1.874-3.57.714-5.444S3222.86,1393.341,3224.823,1391.288Z" transform="translate(-3223.429 -1386.982)" fill="#cad226" stroke="#231815" stroke-miterlimit="10" stroke-width="0.25"/>
      <path id="Path_14505" data-name="Path 14505" d="M3279.389,1448.248s-21.094-38.572-54.658-57.245" transform="translate(-3223.337 -1386.697)" fill="none" stroke="#000" stroke-linejoin="round" stroke-width="0.25"/>
      <path id="Path_14506" data-name="Path 14506" d="M3236.922,1387.3s2.385,3.412,1.893,14.087" transform="translate(-3222.473 -1386.96)" fill="none" stroke="#000" stroke-linejoin="round" stroke-width="0.25"/>
      <path id="Path_14507" data-name="Path 14507" d="M3223.847,1399.959s9.583,2.96,15.895.526" transform="translate(-3223.399 -1386.063)" fill="none" stroke="#000" stroke-linejoin="round" stroke-width="0.25"/>
      <path id="Path_14508" data-name="Path 14508" d="M3248.35,1389.069a34.68,34.68,0,0,1-.6,20.744" transform="translate(-3221.706 -1386.834)" fill="none" stroke="#000" stroke-linejoin="round" stroke-width="0.25"/>
      <path id="Path_14509" data-name="Path 14509" d="M3225.515,1410.47s15.313,3.213,23.81-2.029" transform="translate(-3223.281 -1385.462)" fill="none" stroke="#000" stroke-linejoin="round" stroke-width="0.25"/>
      <path id="Path_14510" data-name="Path 14510" d="M3256.142,1392.115a56.1,56.1,0,0,1-1.015,25.689" transform="translate(-3221.183 -1386.619)" fill="none" stroke="#000" stroke-linejoin="round" stroke-width="0.25"/>
      <path id="Path_14511" data-name="Path 14511" d="M3227.648,1422.064s17.937,3.069,29.426-5.959" transform="translate(-3223.13 -1384.919)" fill="none" stroke="#000" stroke-linejoin="round" stroke-width="0.25"/>
      <path id="Path_14512" data-name="Path 14512" d="M3231.165,1429.546s11.889,4.089,31.367-1.969" transform="translate(-3222.881 -1384.106)" fill="none" stroke="#000" stroke-linejoin="round" stroke-width="0.25"/>
      <path id="Path_14513" data-name="Path 14513" d="M3234.481,1441.279s14.416,4.079,36.656-7.955" transform="translate(-3222.646 -1383.699)" fill="none" stroke="#000" stroke-linejoin="round" stroke-width="0.25"/>
      <path id="Path_14514" data-name="Path 14514" d="M3234.9,1450.774s24.264-.555,40.331-11.655" transform="translate(-3222.616 -1383.289)" fill="none" stroke="#000" stroke-linejoin="round" stroke-width="0.25"/>
      <path id="Path_14515" data-name="Path 14515" d="M3237.923,1457.527s13.575,2.53,24.13-2.841" transform="translate(-3222.402 -1382.186)" fill="none" stroke="#000" stroke-linejoin="round" stroke-width="0.25"/>
      <path id="Path_14516" data-name="Path 14516" d="M3233.71,1465.02s7.621,3.448,18.457-.283" transform="translate(-3222.701 -1381.474)" fill="none" stroke="#000" stroke-linejoin="round" stroke-width="0.25"/>
      <path id="Path_14517" data-name="Path 14517" d="M3272.561,1440.425s12.928-7.528,12.928-19.742" transform="translate(-3219.948 -1384.595)" fill="none" stroke="#000" stroke-linejoin="round" stroke-width="0.25"/>
    </g>
    <g id="Group_3859" data-name="Group 3859" transform="translate(3256.74 1327.738)">
      <path id="Path_14518" data-name="Path 14518" d="M3275.547,1327.493c2.269-1.015,7.139.308,9.816,3.164s5.086,2.588,8.388,2.409,5.444,2.142,7.139,5.086,5.89,3.124,8.478,2.5,5,2.588,6.514,4.909,3.927.713,5.711,2.142.714,5.532,2.053,7.585,2.5.268,4.462,2.053.178,5.264,2.5,7.5,3.48.089,5.711.892,1.517,3.124,5.533,4.819l-7.078,67.087-45.145,8.233s-4.621.8-7.209-.717-3.659-1.429-6.157-.893-5.533-.535-6.693-2.677a5.365,5.365,0,0,0-4.908-3.213c-2.409-.178-10.352-.624-10.8-4.819s-2.587-6.693,0-8.209.09-5.087,3.124-7.05,5.89-5.532,3.837-9.638,1.071-5.086.268-7.764-2.677-5.89-1.963-9.1-.179-5.622-.892-8.12.981-3.569.535-6.246-2.677-7.139-2.677-10.263,4.283-7.941,5-10.886-1.606-6.425.179-8.745,4.372-3.213,4.908-6.425,2.321-4.283,4.462-5.622S3272.157,1329.01,3275.547,1327.493Z" transform="translate(-3252.607 -1327.154)" fill="#a5b63d" stroke="#231815" stroke-miterlimit="10" stroke-width="0.25"/>
      <path id="Path_14519" data-name="Path 14519" d="M3274.03,1327.471s38.482,44.812,54.276,109.325" transform="translate(-3251.09 -1327.132)" fill="none" stroke="#000" stroke-linejoin="round" stroke-width="0.25"/>
      <path id="Path_14520" data-name="Path 14520" d="M3266.673,1337.04s11.386,6.58,20.162,6.263" transform="translate(-3251.611 -1326.454)" fill="none" stroke="#000" stroke-linejoin="round" stroke-width="0.25"/>
      <path id="Path_14521" data-name="Path 14521" d="M3285.5,1332.163s1.9,7.041,0,11.486" transform="translate(-3250.277 -1326.799)" fill="none" stroke="#000" stroke-linejoin="round" stroke-width="0.25"/>
      <path id="Path_14522" data-name="Path 14522" d="M3260.3,1346.9s18.007,10.844,36.3,10.3" transform="translate(-3252.063 -1325.755)" fill="none" stroke="#000" stroke-linejoin="round" stroke-width="0.25"/>
      <path id="Path_14523" data-name="Path 14523" d="M3300.518,1339.457s-.908,15.431-6.321,18.268" transform="translate(-3249.661 -1326.282)" fill="none" stroke="#000" stroke-linejoin="round" stroke-width="0.25"/>
      <path id="Path_14524" data-name="Path 14524" d="M3257.268,1360.549s26.032,14.8,47.468,9.741" transform="translate(-3252.277 -1324.788)" fill="none" stroke="#000" stroke-linejoin="round" stroke-width="0.25"/>
      <path id="Path_14525" data-name="Path 14525" d="M3311.328,1342.889s-.817,23.44-9.732,28.652" transform="translate(-3249.137 -1326.039)" fill="none" stroke="#000" stroke-linejoin="round" stroke-width="0.25"/>
      <path id="Path_14526" data-name="Path 14526" d="M3319.841,1353.426s-.795,15.837-13.516,27.372" transform="translate(-3248.802 -1325.293)" fill="none" stroke="#000" stroke-linejoin="round" stroke-width="0.25"/>
      <path id="Path_14527" data-name="Path 14527" d="M3258.078,1376.882s30.165,14.521,51.666,2.254" transform="translate(-3252.22 -1323.631)" fill="none" stroke="#000" stroke-linejoin="round" stroke-width="0.25"/>
      <path id="Path_14528" data-name="Path 14528" d="M3327.2,1362.957s-4.452,24.62-14.56,32.193" transform="translate(-3248.355 -1324.618)" fill="none" stroke="#000" stroke-linejoin="round" stroke-width="0.25"/>
      <path id="Path_14529" data-name="Path 14529" d="M3258.553,1388.677s30.941,14.366,57.916,4.651" transform="translate(-3252.186 -1322.796)" fill="none" stroke="#000" stroke-linejoin="round" stroke-width="0.25"/>
      <path id="Path_14530" data-name="Path 14530" d="M3259.64,1400.383s33.078,13.253,60.89,2.645" transform="translate(-3252.109 -1321.966)" fill="none" stroke="#000" stroke-linejoin="round" stroke-width="0.25"/>
      <path id="Path_14531" data-name="Path 14531" d="M3317.975,1400.673a3.89,3.89,0,0,1-1.473,2.334" transform="translate(-3248.081 -1321.946)" fill="none" stroke="#000" stroke-linejoin="round" stroke-width="0.25"/>
      <path id="Path_14532" data-name="Path 14532" d="M3258.553,1410.781s26.2,10.194,63.285,1.092" transform="translate(-3252.186 -1321.23)" fill="none" stroke="#000" stroke-linejoin="round" stroke-width="0.25"/>
      <path id="Path_14533" data-name="Path 14533" d="M3252.958,1422.979s35.135,9.986,71.08-3.8" transform="translate(-3252.583 -1320.635)" fill="none" stroke="#000" stroke-linejoin="round" stroke-width="0.25"/>
      <path id="Path_14534" data-name="Path 14534" d="M3267.386,1432.736s16.434,3.392,42.561-3.434" transform="translate(-3251.56 -1319.918)" fill="none" stroke="#000" stroke-linejoin="round" stroke-width="0.25"/>
    </g>
    <g id="Group_3860" data-name="Group 3860" transform="translate(3326.391 1318.913)">
      <path id="Path_14535" data-name="Path 14535" d="M3379.117,1340.5c7.893-2.323,30.407-5.313,50.753,8.664s24.808,30.754,26.057,46.281l-83.882,63.755s-41.281-5.246-49.821-25.934-4.257-41.926,5.738-55.669S3354.778,1347.661,3379.117,1340.5Z" transform="translate(-3317.651 -1317.525)" fill="#e7ef92" stroke="#000" stroke-linejoin="round" stroke-width="0.25"/>
      <path id="Path_14536" data-name="Path 14536" d="M3373.54,1363.367c.546,1.247,2.053.356,4.462,1.16s6.96.179,8.209-2.231,0-3.124-1.516-4.462-1.517-4.64-2.142-9.37-4.551-8.477-3.391-13.385,7.942-12.225,13.385-11.333,8.834,4.283,8.388,8.834,2.232,3.927,2.856,1.785-.268-2.856-.535-5.087-2.142-7.586-6.96-9.46-10.084-.981-16.33,4.016-6.693,7.675-7.407,13.029a33.166,33.166,0,0,0,.982,15.081c1.606,5.176.982,6.6.447,8.121S3372.916,1361.939,3373.54,1363.367Z" transform="translate(-3313.792 -1318.913)" fill="#ddb458" stroke="#000" stroke-linejoin="round" stroke-width="0.25"/>
      <path id="Path_14537" data-name="Path 14537" d="M3362.17,1353.315s6.743-1.406,10.156,2.877" transform="translate(-3314.497 -1316.492)" fill="none" stroke="#252f33" stroke-miterlimit="10" stroke-width="0.25"/>
      <path id="Path_14538" data-name="Path 14538" d="M3383.716,1343.113s-1.7.58-1.852,3.636" transform="translate(-3313.102 -1317.199)" fill="none" stroke="#252f33" stroke-miterlimit="10" stroke-width="0.25"/>
      <path id="Path_14539" data-name="Path 14539" d="M3392.07,1343.113s-7.623,3.679-9.1,11.444" transform="translate(-3313.024 -1317.199)" fill="none" stroke="#252f33" stroke-miterlimit="10" stroke-width="0.25"/>
      <path id="Path_14540" data-name="Path 14540" d="M3349.343,1368.129s8.784-10.106,24.4-5.756" transform="translate(-3315.406 -1315.912)" fill="none" stroke="#252f33" stroke-miterlimit="10" stroke-width="0.25"/>
      <path id="Path_14541" data-name="Path 14541" d="M3374.5,1363.988s-18,6.448-21.217,31.256" transform="translate(-3315.127 -1315.72)" fill="none" stroke="#252f33" stroke-miterlimit="10" stroke-width="0.25"/>
      <path id="Path_14542" data-name="Path 14542" d="M3377.31,1365.426s-4.6,2.766-4.216,11.155" transform="translate(-3313.725 -1315.618)" fill="none" stroke="#252f33" stroke-miterlimit="10" stroke-width="0.25"/>
      <path id="Path_14543" data-name="Path 14543" d="M3381.2,1365.843a11.3,11.3,0,0,1,1.427,7.049" transform="translate(-3313.15 -1315.589)" fill="none" stroke="#252f33" stroke-miterlimit="10" stroke-width="0.25"/>
      <path id="Path_14544" data-name="Path 14544" d="M3387.016,1362.593s8.136-.09,10.188,5.443" transform="translate(-3312.737 -1315.819)" fill="none" stroke="#252f33" stroke-miterlimit="10" stroke-width="0.25"/>
      <path id="Path_14545" data-name="Path 14545" d="M3388.614,1360.766a14.629,14.629,0,0,1,14.634,7.407" transform="translate(-3312.624 -1315.956)" fill="none" stroke="#252f33" stroke-miterlimit="10" stroke-width="0.25"/>
      <path id="Path_14546" data-name="Path 14546" d="M3389.53,1356.1s20.614-7.623,33.464,9.095" transform="translate(-3312.559 -1316.402)" fill="none" stroke="#252f33" stroke-miterlimit="10" stroke-width="0.25"/>
    </g>
    <g id="Group_3862" data-name="Group 3862" transform="translate(3374.064 1381.906)">
      <ellipse id="Ellipse_2628" data-name="Ellipse 2628" cx="81.756" cy="84.172" rx="81.756" ry="84.172" fill="#e7ef92" stroke="#000" stroke-linejoin="round" stroke-width="0.25"/>
      <g id="Group_3861" data-name="Group 3861" transform="translate(104.926 25.767)">
        <path id="Path_14547" data-name="Path 14547" d="M3476.887,1403.14s-4.283,2.008-9.37-1.339a8.211,8.211,0,0,1-6.291,3.748s2.008,5.89-1.071,8.165c0,0,4.551,7.228,3.213,11.645,0,0,7.9,5.756,9.5,12.047,0,0,8.031,1.2,10.173,7.228,0,0,5.884-2.276,9.9,0,0,0,.271-6.024,5.09-7.228,0,0-3.347-6.827-1.74-10.039,0,0-4.283-4.819-4.685-9.905,0,0-5.086-2.276-6.157-7.362C3485.454,1410.1,3479.3,1408.494,3476.887,1403.14Z" transform="translate(-3460.155 -1401.801)" fill="#ddb458" stroke="#000" stroke-linejoin="round" stroke-width="0.25"/>
        <path id="Path_14548" data-name="Path 14548" d="M3466.306,1406.586c6.044-3.264,20.748,9.37,24.763,19.275s.535,20.48-10.976,11.378S3459.614,1410.2,3466.306,1406.586Z" transform="translate(-3459.881 -1401.499)" fill="#e7ef92" stroke="#000" stroke-linejoin="round" stroke-width="0.25"/>
        <ellipse id="Ellipse_2629" data-name="Ellipse 2629" cx="2.075" cy="2.744" rx="2.075" ry="2.744" transform="translate(17.095 20.725) rotate(-30)" fill="#ddb458" stroke="#000" stroke-linejoin="round" stroke-width="0.25"/>
      </g>
      <path id="Path_14549" data-name="Path 14549" d="M3452.2,1387.759s17.4,2.876,21.685,16.965" transform="translate(-3355.793 -1377.028)" fill="none" stroke="#252f33" stroke-miterlimit="10" stroke-width="0.25"/>
      <path id="Path_14550" data-name="Path 14550" d="M3484.226,1403.6a7.878,7.878,0,0,1-.447,6.37" transform="translate(-3353.556 -1375.906)" fill="none" stroke="#252f33" stroke-miterlimit="10" stroke-width="0.25"/>
      <path id="Path_14551" data-name="Path 14551" d="M3497.348,1418.287s-2.59-1.3-7.318.687" transform="translate(-3353.113 -1374.896)" fill="none" stroke="#252f33" stroke-miterlimit="10" stroke-width="0.25"/>
      <path id="Path_14552" data-name="Path 14552" d="M3413.864,1408.086s28.927-16.988,54.308-3.541" transform="translate(-3358.509 -1376.206)" fill="none" stroke="#252f33" stroke-miterlimit="10" stroke-width="0.25"/>
      <path id="Path_14553" data-name="Path 14553" d="M3420.28,1437.12s22.233-23.37,44.8-20.3" transform="translate(-3358.054 -1374.989)" fill="none" stroke="#252f33" stroke-miterlimit="10" stroke-width="0.25"/>
      <path id="Path_14554" data-name="Path 14554" d="M3446.78,1451.1s18.693-10.059,23.892-21.538" transform="translate(-3356.177 -1374.067)" fill="none" stroke="#252f33" stroke-miterlimit="10" stroke-width="0.25"/>
      <path id="Path_14555" data-name="Path 14555" d="M3467.331,1439.619a36.421,36.421,0,0,1-17.134,15.053" transform="translate(-3355.935 -1373.355)" fill="none" stroke="#252f33" stroke-miterlimit="10" stroke-width="0.25"/>
      <path id="Path_14556" data-name="Path 14556" d="M3482.917,1441.8s2.5,21.194-20.971,41.986" transform="translate(-3355.102 -1373.2)" fill="none" stroke="#252f33" stroke-miterlimit="10" stroke-width="0.25"/>
      <path id="Path_14557" data-name="Path 14557" d="M3491.916,1437.919s9.76,6.521,6.19,39.45" transform="translate(-3352.979 -1373.475)" fill="none" stroke="#252f33" stroke-miterlimit="10" stroke-width="0.25"/>
      <path id="Path_14558" data-name="Path 14558" d="M3493.79,1430.092s8.2-1.19,12.929,10.2" transform="translate(-3352.846 -1374.032)" fill="none" stroke="#252f33" stroke-miterlimit="10" stroke-width="0.25"/>
      <path id="Path_14559" data-name="Path 14559" d="M3405.28,1407.172s12.984-8.059,26.1-9" transform="translate(-3359.116 -1376.29)" fill="none" stroke="#252f33" stroke-miterlimit="10" stroke-width="0.25"/>
      <path id="Path_14560" data-name="Path 14560" d="M3491.4,1448.3a20.86,20.86,0,0,1,1.339,8.611" transform="translate(-3353.015 -1372.74)" fill="none" stroke="#252f33" stroke-miterlimit="10" stroke-width="0.25"/>
    </g>
    <ellipse id="Ellipse_2630" data-name="Ellipse 2630" cx="4.283" cy="2.811" rx="4.283" ry="2.811" transform="translate(3523.832 1529.079)" fill="#c19165" stroke="#000" stroke-linejoin="round" stroke-width="0.25"/>
    <ellipse id="Ellipse_2631" data-name="Ellipse 2631" cx="2.878" cy="1.807" rx="2.878" ry="1.807" transform="translate(3513.659 1535.638)" fill="#ecb36f" stroke="#000" stroke-linejoin="round" stroke-width="0.25"/>
    <path id="Path_14561" data-name="Path 14561" d="M3483.114,1530.263s4.283,3.124,8.745,1.071,6.336-1.012,7.943.7,6.246,1.632,7.852-.917" transform="translate(20.462 14.968)" fill="none" stroke="#252f33" stroke-miterlimit="10" stroke-width="0.25"/>
    <path id="Path_14562" data-name="Path 14562" d="M3499.114,1538.976s5.175-2.053,9.191.624,8.21.943,10.53-.688" transform="translate(21.595 15.536)" fill="none" stroke="#252f33" stroke-miterlimit="10" stroke-width="0.25"/>
    <g id="Group_3863" data-name="Group 3863" transform="translate(3374.196 1511.593)">
      <path id="Path_14563" data-name="Path 14563" d="M3380.791,1571a19.882,19.882,0,0,0,12.972.328c7.162-2.244,11.78-1.422,17.737-.328s9.57-5.129,16.2-5.263,8.7,2.877,14.055,2.074,7.362-2.284,11.444-2.079,5.89,2.542,13.051,3.248,8.121-.76,13.932.207l-3.156-10.678-25.834-14.457-54.479,3.213Z" transform="translate(-3360.983 -1495.643)" fill="#cad226" stroke="#231815" stroke-miterlimit="10" stroke-width="0.25"/>
      <path id="Path_14564" data-name="Path 14564" d="M3500.418,1552.474c-1.594-3.647-6.96-2.945-10.575-6.291s-1.606-4.685-4.953-7.094-6.87.357-10.441-2.142-1.427-4.1-3.748-6.6-9.1.536-13.474-2.945-3.213-6.96-6.96-9.815-9.638-.09-14.635-2.945-3.926-6.872-7.138-9.1-7.586.713-10.8-1.339-2.319-4.73-7.228-5.265-5.354,2.321-8.745,2.142-2.677-2.454-6.068-2.209-26.95,10.479-31.946,36.551,4.461,38.922,9.637,37.493,5.087-1.16,8.209.982,7.139-1.517,9.37-4.908,7.318-2.142,9.728-3.391,3.034-7.049,7.229-7.585,5.89.8,9.637-.09,8.12-5.086,12.939-5.354,5.8,3.035,11.779,3.57,7.852-2.677,12.671-2.053,4.016,3.748,7.586,4.908,4.283-.178,6.469,1.651.669,3.525,2.722,4.64,3.258.313,5.354,2.677,2.053,4.775,5.533,4.417,8.12,1.384,10.4-.937,1.339-3.971,2.276-5.577,4.774-1.383,4.819-4.462C3500.1,1558.388,3502.425,1557.07,3500.418,1552.474Z" transform="translate(-3362.294 -1498.846)" fill="#a5b63d" stroke="#231815" stroke-miterlimit="10" stroke-width="0.25"/>
      <path id="Path_14565" data-name="Path 14565" d="M3501.179,1554.115s-26.224-1.212-51.656-14.062-54.494-12.228-86.812-.559" transform="translate(-3362.264 -1496.598)" fill="none" stroke="#000" stroke-linejoin="round" stroke-width="0.25"/>
      <path id="Path_14566" data-name="Path 14566" d="M3408.538,1558.613s.868,4.494-2.946,10.647" transform="translate(-3359.226 -1494.612)" fill="none" stroke="#000" stroke-linejoin="round" stroke-width="0.25"/>
      <path id="Path_14567" data-name="Path 14567" d="M3419.159,1555.926a16.5,16.5,0,0,1-1.953,11.8" transform="translate(-3358.404 -1494.802)" fill="none" stroke="#000" stroke-linejoin="round" stroke-width="0.25"/>
      <path id="Path_14568" data-name="Path 14568" d="M3428.774,1553.363s1.343,6.683-2.742,11.742" transform="translate(-3357.778 -1494.984)" fill="none" stroke="#000" stroke-linejoin="round" stroke-width="0.25"/>
      <path id="Path_14569" data-name="Path 14569" d="M3438.559,1554.363s1.553,7.5-3.272,12.82" transform="translate(-3357.122 -1494.913)" fill="none" stroke="#000" stroke-linejoin="round" stroke-width="0.25"/>
      <path id="Path_14570" data-name="Path 14570" d="M3447.629,1554.363s1.3,6.1-2.429,10.878" transform="translate(-3356.421 -1494.913)" fill="none" stroke="#000" stroke-linejoin="round" stroke-width="0.25"/>
      <path id="Path_14571" data-name="Path 14571" d="M3454,1557.216a10.443,10.443,0,0,1-1.427,8.674" transform="translate(-3355.898 -1494.711)" fill="none" stroke="#000" stroke-linejoin="round" stroke-width="0.25"/>
      <path id="Path_14572" data-name="Path 14572" d="M3459.939,1559.8a8.223,8.223,0,0,1-1.46,7.759" transform="translate(-3355.48 -1494.528)" fill="none" stroke="#000" stroke-linejoin="round" stroke-width="0.25"/>
      <path id="Path_14573" data-name="Path 14573" d="M3487.16,1562.867s-11.138-5.612-14.625-13.28" transform="translate(-3354.483 -1495.251)" fill="none" stroke="#000" stroke-linejoin="round" stroke-width="0.25"/>
      <path id="Path_14574" data-name="Path 14574" d="M3483.443,1544.051s-8.055.95-10.908,5.928" transform="translate(-3354.483 -1495.643)" fill="none" stroke="#000" stroke-linejoin="round" stroke-width="0.25"/>
      <path id="Path_14575" data-name="Path 14575" d="M3475.456,1535.516s-10.531,3.251-13.743,11.932" transform="translate(-3355.25 -1496.248)" fill="none" stroke="#000" stroke-linejoin="round" stroke-width="0.25"/>
      <path id="Path_14576" data-name="Path 14576" d="M3477.31,1568.954s-13.422-8.678-15.6-22.295" transform="translate(-3355.25 -1495.459)" fill="none" stroke="#000" stroke-linejoin="round" stroke-width="0.25"/>
      <path id="Path_14577" data-name="Path 14577" d="M3466.611,1533.283s-10.839,4.888-13.194,11.188" transform="translate(-3355.838 -1496.406)" fill="none" stroke="#000" stroke-linejoin="round" stroke-width="0.25"/>
      <path id="Path_14578" data-name="Path 14578" d="M3458.419,1556.313a20.454,20.454,0,0,1-5-12.582" transform="translate(-3355.838 -1495.666)" fill="none" stroke="#000" stroke-linejoin="round" stroke-width="0.25"/>
      <path id="Path_14579" data-name="Path 14579" d="M3460.8,1527.22s-11.53,4.108-18.472,12.3" transform="translate(-3356.624 -1496.836)" fill="none" stroke="#000" stroke-linejoin="round" stroke-width="0.25"/>
      <path id="Path_14580" data-name="Path 14580" d="M3447.216,1551.215a15.511,15.511,0,0,1-4.887-12.505" transform="translate(-3356.626 -1496.022)" fill="none" stroke="#000" stroke-linejoin="round" stroke-width="0.25"/>
      <path id="Path_14581" data-name="Path 14581" d="M3449.43,1522.345s-12.646,4.553-17.657,13.028" transform="translate(-3357.372 -1497.181)" fill="none" stroke="#000" stroke-linejoin="round" stroke-width="0.25"/>
      <path id="Path_14582" data-name="Path 14582" d="M3441.036,1553.442s-10.263-9.953-9.258-18.931" transform="translate(-3357.376 -1496.319)" fill="none" stroke="#000" stroke-linejoin="round" stroke-width="0.25"/>
      <path id="Path_14583" data-name="Path 14583" d="M3421.4,1533.151c2.808-10.688,15.331-18.248,15.331-18.248" transform="translate(-3358.106 -1497.708)" fill="none" stroke="#000" stroke-linejoin="round" stroke-width="0.25"/>
      <path id="Path_14584" data-name="Path 14584" d="M3430.693,1551.166a26.6,26.6,0,0,1-9.291-19.222" transform="translate(-3358.106 -1496.501)" fill="none" stroke="#000" stroke-linejoin="round" stroke-width="0.25"/>
      <path id="Path_14585" data-name="Path 14585" d="M3429.131,1510.575s-18.914,9.121-23.267,21.421" transform="translate(-3359.207 -1498.015)" fill="none" stroke="#000" stroke-linejoin="round" stroke-width="0.25"/>
      <path id="Path_14586" data-name="Path 14586" d="M3422.355,1551.791s-12.833-6.253-16.491-21.212" transform="translate(-3359.207 -1496.598)" fill="none" stroke="#000" stroke-linejoin="round" stroke-width="0.25"/>
      <path id="Path_14587" data-name="Path 14587" d="M3415.421,1503.843s-15.03,11.7-21.035,29.317" transform="translate(-3360.02 -1498.492)" fill="none" stroke="#000" stroke-linejoin="round" stroke-width="0.25"/>
      <path id="Path_14588" data-name="Path 14588" d="M3410.407,1555.782s-14.484-10.812-16.02-24.561" transform="translate(-3360.02 -1496.552)" fill="none" stroke="#000" stroke-linejoin="round" stroke-width="0.25"/>
      <path id="Path_14589" data-name="Path 14589" d="M3401.374,1560.426s-13-6.783-18.176-27.407" transform="translate(-3360.812 -1496.425)" fill="none" stroke="#000" stroke-linejoin="round" stroke-width="0.25"/>
      <path id="Path_14590" data-name="Path 14590" d="M3402.253,1500.644s-18.106,15.779-19.055,34.668" transform="translate(-3360.812 -1498.718)" fill="none" stroke="#000" stroke-linejoin="round" stroke-width="0.25"/>
      <path id="Path_14591" data-name="Path 14591" d="M3393.832,1564.094a44.926,44.926,0,0,1-20.823-28.538" transform="translate(-3361.535 -1496.245)" fill="none" stroke="#000" stroke-linejoin="round" stroke-width="0.25"/>
      <path id="Path_14592" data-name="Path 14592" d="M3386.391,1570.719a43.231,43.231,0,0,1-21.165-32.7" transform="translate(-3362.086 -1496.071)" fill="none" stroke="#000" stroke-linejoin="round" stroke-width="0.25"/>
    </g>
    <g id="Group_3866" data-name="Group 3866" transform="translate(3230.618 1434.524)">
      <path id="Path_14593" data-name="Path 14593" d="M3362.531,1435.093s24.189,14.421,33.422,43.753,4.771,53.646-5.937,74.773-39.109,41.3-73.365,44.51-59.777-16.241-70.843-28.913-15.565-31.873-15.565-31.873Z" transform="translate(-3228.07 -1426.293)" fill="#e7ef92" stroke="#000" stroke-linejoin="round" stroke-width="0.25"/>
      <path id="Path_14594" data-name="Path 14594" d="M3352.2,1436.9c4.652.8,10.474-1.226,10.474-1.226s16.745,14.2,20.59,43.1-4.349,64.117-24.159,84.618-67.284,34.423-101.016,10.865-35.338-56.219-22.31-83.7,42.12-49,62.644-56.717,42.6-9.386,48.188-3.161Z" transform="translate(-3228.215 -1426.876)" fill="#fffed4" stroke="#000" stroke-linejoin="round" stroke-width="0.25"/>
      <path id="Path_14595" data-name="Path 14595" d="M3345.154,1447.515c3.387-1.063,15.435,7.5,15.792,18.919s-2.358,24.094-2.071,32.3-6.272,15.753-11.113,23.761-4.485,22.764-19.119,30.288-19.275,4.586-28.735,4.9-19.275-1.805-16.6-8.244,13.743-15.185,16.42-22.323,9.1-19.166,12.492-22.7,13.208-15.136,14.814-20.491,6.246-17.311,9.815-22.13S3340.6,1448.943,3345.154,1447.515Z" transform="translate(-3224.343 -1425.42)" fill="#eded9d" stroke="#000" stroke-linejoin="round" stroke-width="0.25"/>
      <path id="Path_14596" data-name="Path 14596" d="M3337.245,1442.654c-.526-3.553-14.456-2.5-21.059,1.071s-17.848,12.672-21.239,18.74-14.457,11.423-21.595,17.312-20.881,15.035-24.273,25.989-2.142,23.269,1.25,28.8,9.459,5.89,13.563,8.923,5.354,5.354,9.281,3.569,9.459-17.442,14.813-24.069,13.208-14.481,13.921-22.333,8.746-17.133,13.743-22.309,10.173-18.562,13.921-22.845S3337.959,1447.473,3337.245,1442.654Z" transform="translate(-3226.878 -1425.913)" fill="#eded9d" stroke="#000" stroke-linejoin="round" stroke-width="0.25"/>
      <g id="Group_3864" data-name="Group 3864" transform="translate(30.017 19.56)">
        <path id="Path_14597" data-name="Path 14597" d="M3334.927,1462.27c-.605-2.307,12.759-6.27,13.641-2.9S3335.553,1464.664,3334.927,1462.27Z" transform="translate(-3250.673 -1444.226)" fill="#ddb458" stroke="#000" stroke-linejoin="round" stroke-width="0.25"/>
        <path id="Path_14598" data-name="Path 14598" d="M3322.172,1455.882c-1.835,1.522-10.5-8.227-7.817-10.448S3324.075,1454.3,3322.172,1455.882Z" transform="translate(-3252.165 -1445.141)" fill="#ddb458" stroke="#000" stroke-linejoin="round" stroke-width="0.25"/>
        <path id="Path_14599" data-name="Path 14599" d="M3319.363,1461.118c-1.61,2.32-14.292-5.836-11.941-9.223S3321.033,1458.711,3319.363,1461.118Z" transform="translate(-3252.641 -1444.711)" fill="#ddb458" stroke="#000" stroke-linejoin="round" stroke-width="0.25"/>
        <path id="Path_14600" data-name="Path 14600" d="M3312.324,1469.576c-1.61,2.321-15.777-6.866-13.426-10.253S3313.995,1467.169,3312.324,1469.576Z" transform="translate(-3253.243 -1444.182)" fill="#ddb458" stroke="#000" stroke-linejoin="round" stroke-width="0.25"/>
        <path id="Path_14601" data-name="Path 14601" d="M3307.789,1476.73c-1.394,3.08-19.121-4.247-17.086-8.743S3309.235,1473.534,3307.789,1476.73Z" transform="translate(-3253.816 -1443.604)" fill="#ddb458" stroke="#000" stroke-linejoin="round" stroke-width="0.25"/>
        <path id="Path_14602" data-name="Path 14602" d="M3300.953,1483.7c-1.036,2.293-15.175-3.588-13.661-6.935S3302.031,1481.321,3300.953,1483.7Z" transform="translate(-3254.054 -1442.959)" fill="#ddb458" stroke="#000" stroke-linejoin="round" stroke-width="0.25"/>
        <path id="Path_14603" data-name="Path 14603" d="M3297.838,1490.292c-1.4,3.085-21.018-5.1-18.981-9.6S3299.286,1487.092,3297.838,1490.292Z" transform="translate(-3254.654 -1442.699)" fill="#ddb458" stroke="#000" stroke-linejoin="round" stroke-width="0.25"/>
        <path id="Path_14604" data-name="Path 14604" d="M3295.041,1497.563c-1.459,3.421-24.889-5.817-22.759-10.81S3296.555,1494.014,3295.041,1497.563Z" transform="translate(-3255.119 -1442.277)" fill="#ddb458" stroke="#000" stroke-linejoin="round" stroke-width="0.25"/>
        <path id="Path_14605" data-name="Path 14605" d="M3293.735,1504.829c-1.038,3.572-30.3-4.208-28.782-9.421S3294.812,1501.124,3293.735,1504.829Z" transform="translate(-3255.633 -1441.679)" fill="#ddb458" stroke="#000" stroke-linejoin="round" stroke-width="0.25"/>
        <path id="Path_14606" data-name="Path 14606" d="M3289.151,1512.177c-.816,4.627-34.066-.35-32.874-7.1S3290,1507.377,3289.151,1512.177Z" transform="translate(-3256.246 -1441.067)" fill="#ddb458" stroke="#000" stroke-linejoin="round" stroke-width="0.25"/>
        <path id="Path_14607" data-name="Path 14607" d="M3282.389,1518.692c-.2,3.538-26.035,2.731-25.741-2.433S3282.6,1515.022,3282.389,1518.692Z" transform="translate(-3256.217 -1440.279)" fill="#ddb458" stroke="#000" stroke-linejoin="round" stroke-width="0.25"/>
        <path id="Path_14608" data-name="Path 14608" d="M3277.834,1525.768c.106,2.481-19.417,3.779-19.572.157S3277.723,1523.194,3277.834,1525.768Z" transform="translate(-3256.103 -1439.589)" fill="#ddb458" stroke="#000" stroke-linejoin="round" stroke-width="0.25"/>
        <path id="Path_14609" data-name="Path 14609" d="M3333.54,1467.412c.208-2.831,14.14-2.341,13.837,1.792S3333.325,1470.349,3333.54,1467.412Z" transform="translate(-3250.77 -1443.69)" fill="#ddb458" stroke="#000" stroke-linejoin="round" stroke-width="0.25"/>
        <path id="Path_14610" data-name="Path 14610" d="M3331.393,1473.77c.95-2.979,17.8,1.78,16.411,6.13S3330.406,1476.862,3331.393,1473.77Z" transform="translate(-3250.925 -1443.179)" fill="#ddb458" stroke="#000" stroke-linejoin="round" stroke-width="0.25"/>
        <path id="Path_14611" data-name="Path 14611" d="M3324.876,1488.615c1.968-2.722,21.793,10.838,18.919,14.812S3322.833,1491.438,3324.876,1488.615Z" transform="translate(-3251.395 -1442.087)" fill="#ddb458" stroke="#000" stroke-linejoin="round" stroke-width="0.25"/>
        <path id="Path_14612" data-name="Path 14612" d="M3320.726,1496.39c1.929-2.451,21.156,11.94,18.341,15.518S3318.725,1498.933,3320.726,1496.39Z" transform="translate(-3251.689 -1441.531)" fill="#ddb458" stroke="#000" stroke-linejoin="round" stroke-width="0.25"/>
        <path id="Path_14613" data-name="Path 14613" d="M3315.681,1503.689c2.019-2.378,20.7,12.717,17.754,16.188S3313.587,1506.156,3315.681,1503.689Z" transform="translate(-3252.047 -1441.012)" fill="#ddb458" stroke="#000" stroke-linejoin="round" stroke-width="0.25"/>
        <path id="Path_14614" data-name="Path 14614" d="M3306.792,1518.54c2.288-2.12,19.04,15.089,15.7,18.185S3304.419,1520.74,3306.792,1518.54Z" transform="translate(-3252.683 -1439.955)" fill="#ddb458" stroke="#000" stroke-linejoin="round" stroke-width="0.25"/>
        <path id="Path_14615" data-name="Path 14615" d="M3299.659,1525.286c2.793-2.286,20.235,17.95,16.159,21.287S3296.762,1527.658,3299.659,1525.286Z" transform="translate(-3253.196 -1439.477)" fill="#ddb458" stroke="#000" stroke-linejoin="round" stroke-width="0.25"/>
        <path id="Path_14616" data-name="Path 14616" d="M3295.847,1531.446c2.034-1.058,10.69,14.65,7.723,16.194S3293.739,1532.544,3295.847,1531.446Z" transform="translate(-3253.468 -1439.031)" fill="#ddb458" stroke="#000" stroke-linejoin="round" stroke-width="0.25"/>
        <path id="Path_14617" data-name="Path 14617" d="M3290.669,1535.991c1.828-.951,7.427,8.974,4.76,10.361S3288.774,1536.977,3290.669,1535.991Z" transform="translate(-3253.842 -1438.71)" fill="#ddb458" stroke="#000" stroke-linejoin="round" stroke-width="0.25"/>
        <path id="Path_14618" data-name="Path 14618" d="M3311.188,1513.591c2.59-3.051,24.535,14.6,20.754,19.051S3308.5,1516.757,3311.188,1513.591Z" transform="translate(-3252.371 -1440.317)" fill="#ddb458" stroke="#000" stroke-linejoin="round" stroke-width="0.25"/>
        <path id="Path_14619" data-name="Path 14619" d="M3329.531,1481.791c1.269-2.727,20.358,5.535,18.505,9.516S3328.214,1484.62,3329.531,1481.791Z" transform="translate(-3251.059 -1442.584)" fill="#ddb458" stroke="#000" stroke-linejoin="round" stroke-width="0.25"/>
      </g>
      <g id="Group_3865" data-name="Group 3865" transform="translate(117.652 3.693)">
        <path id="Path_14620" data-name="Path 14620" d="M3338.829,1430.433c-1.935.552,0,6.336,4.551,7.675s12.4-.535,11.512-2.677-2.142-.09-4.819.357-6.693-.447-8.209-2.856S3340.079,1430.077,3338.829,1430.433Z" transform="translate(-3338.083 -1430.325)" fill="#ddb458" stroke="#000" stroke-linejoin="round" stroke-width="0.25"/>
        <line id="Line_822" data-name="Line 822" y1="1.863" x2="2.595" transform="translate(0.421 1.407)" fill="#ddb458" stroke="#000" stroke-linejoin="round" stroke-width="0.25"/>
        <line id="Line_823" data-name="Line 823" y1="2.454" x2="2.273" transform="translate(2.023 3.27)" fill="#ddb458" stroke="#000" stroke-linejoin="round" stroke-width="0.25"/>
        <line id="Line_824" data-name="Line 824" y1="3.003" x2="1.247" transform="translate(4.52 4.497)" fill="#ddb458" stroke="#000" stroke-linejoin="round" stroke-width="0.25"/>
        <line id="Line_825" data-name="Line 825" x1="0.425" y2="3.084" transform="translate(7.172 5.148)" fill="#ddb458" stroke="#000" stroke-linejoin="round" stroke-width="0.25"/>
        <line id="Line_826" data-name="Line 826" x2="0.431" y2="2.645" transform="translate(9.753 5.54)" fill="#ddb458" stroke="#000" stroke-linejoin="round" stroke-width="0.25"/>
        <line id="Line_827" data-name="Line 827" x2="0.76" y2="2.363" transform="translate(11.991 5.463)" fill="#ddb458" stroke="#000" stroke-linejoin="round" stroke-width="0.25"/>
        <line id="Line_828" data-name="Line 828" x2="0.995" y2="2.345" transform="translate(13.937 4.832)" fill="#ddb458" stroke="#000" stroke-linejoin="round" stroke-width="0.25"/>
      </g>
    </g>
    <ellipse id="Ellipse_2632" data-name="Ellipse 2632" cx="3.213" cy="2.225" rx="3.213" ry="2.225" transform="translate(3209.629 1540.336)" fill="#ecb36f" stroke="#000" stroke-linejoin="round" stroke-width="0.25"/>
    <ellipse id="Ellipse_2633" data-name="Ellipse 2633" cx="4.194" cy="2.588" rx="4.194" ry="2.588" transform="translate(3220.516 1603.503)" fill="#c19165" stroke="#000" stroke-linejoin="round" stroke-width="0.25"/>
    <ellipse id="Ellipse_2634" data-name="Ellipse 2634" cx="5.463" cy="2.588" rx="5.463" ry="2.588" transform="translate(3232.792 1597.078)" fill="#c19165" stroke="#000" stroke-linejoin="round" stroke-width="0.25"/>
    <path id="Path_14621" data-name="Path 14621" d="M3194.28,1535.927s3.48,3.078,7.228,1.2,6.068-.8,8.121.6,6.067.67,7.54-.9" transform="translate(0 15.374)" fill="none" stroke="#252f33" stroke-miterlimit="10" stroke-width="0.25"/>
    <path id="Path_14622" data-name="Path 14622" d="M3204.405,1542.639s4.685,2.409,8.7,0a8.446,8.446,0,0,1,10.887,1.472c2.365,2.811,8.153,2.182,10.262-.669s8.969-1.052,10.842,2.485" transform="translate(0.717 15.755)" fill="none" stroke="#252f33" stroke-miterlimit="10" stroke-width="0.25"/>
    <path id="Path_14623" data-name="Path 14623" d="M3245.655,1589.51s5.488,3.725,11.713,1.25,10.441-.937,13.921,1.271,9.437,1.807,14.055-.4,10.441-1.539,16.2,1.138" transform="translate(3.64 19.168)" fill="none" stroke="#252f33" stroke-miterlimit="10" stroke-width="0.25"/>
    <path id="Path_14624" data-name="Path 14624" d="M3233.78,1597.3a5.8,5.8,0,0,0,6.157,1.606c3.882-1.2,6.023-1.944,9.905.3a9.215,9.215,0,0,0,10.039-.953" transform="translate(2.799 19.722)" fill="none" stroke="#252f33" stroke-miterlimit="10" stroke-width="0.25"/>
    <path id="Path_14625" data-name="Path 14625" d="M3292.655,1612.753s5.622,4.685,14.456,1.339,16.866-2.81,20.614,1.2,13.52,2.811,17.133-1.071,14.189-3.48,18.606,1.2,16.063,3.213,19.275.4" transform="translate(6.969 20.734)" fill="none" stroke="#252f33" stroke-miterlimit="10" stroke-width="0.25"/>
    <ellipse id="Ellipse_2635" data-name="Ellipse 2635" cx="5.957" cy="3.213" rx="5.957" ry="3.213" transform="translate(3360.261 1645.801)" fill="#ecb36f" stroke="#000" stroke-linejoin="round" stroke-width="0.25"/>
    <ellipse id="Ellipse_2636" data-name="Ellipse 2636" cx="3.614" cy="1.74" rx="3.614" ry="1.74" transform="translate(3350.222 1652.226)" fill="#c19165" stroke="#000" stroke-linejoin="round" stroke-width="0.25"/>
    <ellipse id="Ellipse_2637" data-name="Ellipse 2637" cx="5.086" cy="2.945" rx="5.086" ry="2.945" transform="translate(3388.906 1597.747)" fill="#c19165" stroke="#000" stroke-linejoin="round" stroke-width="0.25"/>
    <ellipse id="Ellipse_2638" data-name="Ellipse 2638" cx="2.878" cy="1.537" rx="2.878" ry="1.537" transform="translate(3402.961 1603.637)" fill="#ecb36f" stroke="#000" stroke-linejoin="round" stroke-width="0.25"/>
    <ellipse id="Ellipse_2639" data-name="Ellipse 2639" cx="3.547" cy="2.457" rx="3.547" ry="2.457" transform="translate(3467.747 1632.321)" fill="#c19165" stroke="#000" stroke-linejoin="round" stroke-width="0.25"/>
    <ellipse id="Ellipse_2640" data-name="Ellipse 2640" cx="3.142" cy="2.008" rx="3.142" ry="2.008" transform="translate(3492.249 1594.936)" fill="#ecb36f" stroke="#000" stroke-linejoin="round" stroke-width="0.25"/>
    <path id="Path_14626" data-name="Path 14626" d="M3390.405,1591.943s8.566-4.819,16.263,0,13.587,1.74,17.067,0,13.193-4.016,18.242,1.339,15.624,2.717,18.97-1.118" transform="translate(13.894 19.19)" fill="none" stroke="#252f33" stroke-miterlimit="10" stroke-width="0.25"/>
    <path id="Path_14627" data-name="Path 14627" d="M3450.405,1584.1a10.9,10.9,0,0,1,9.579.8c4.877,2.945,10.366.185,11.7-.777" transform="translate(18.144 18.733)" fill="none" stroke="#252f33" stroke-miterlimit="10" stroke-width="0.25"/>
    <path id="Path_14628" data-name="Path 14628" d="M3373.87,1607.128a17.337,17.337,0,0,0,10.88,0c5.488-2.008,8.567-1.339,12.181,1.473s9.187,1.383,12.424-1.316" transform="translate(12.722 20.335)" fill="none" stroke="#252f33" stroke-miterlimit="10" stroke-width="0.25"/>
  </g>
</svg>
