<svg xmlns="http://www.w3.org/2000/svg" xmlns:xlink="http://www.w3.org/1999/xlink" width="324.386" height="337.761" viewBox="0 0 324.386 337.761">
  <defs>
    <clipPath id="clip-path">
      <path id="Path_14369" data-name="Path 14369" d="M2631.227,1334.333c23.826,0,47.1,7.313,62.906,33.232s22.2,45.817,21.139,73.528-17.586,62.173-37.837,72.476-73.542,8.7-95.213-3.73-41.567-47.607-40.146-80.648,13.5-59.33,31.975-74.962S2611.842,1334.333,2631.227,1334.333Z" transform="translate(-2542.003 -1334.333)" fill="none"/>
    </clipPath>
  </defs>
  <g id="Group_3846" data-name="Group 3846" transform="translate(-2428.696 -1334.208)">
    <g id="Group_3846-2" data-name="Group 3846" transform="translate(2508.271 1348.168)">
      <path id="Path_14324" data-name="Path 14324" d="M2507.95,1347.334c-2.122.274.533,2.132-2.131,11.724s-5.152,25.225,3.907,35.883,38.9,29.843,38.9,29.843,15.454-31.442,2.843-48.673-30.242-19.5-37.3-25.8C2511.7,1348.112,2509.326,1347.157,2507.95,1347.334Z" transform="translate(-2503.359 -1347.313)" fill="#a5b63d" stroke="#231815" stroke-miterlimit="10" stroke-width="0.25"/>
      <path id="Path_14325" data-name="Path 14325" d="M2507.667,1347.333s25.793,30.044,38.655,76.13" transform="translate(-2503.076 -1347.312)" fill="none" stroke="#000" stroke-miterlimit="10" stroke-width="0.25"/>
      <path id="Path_14326" data-name="Path 14326" d="M2505.667,1358.333s11.266,7.871,15.535,7.267" transform="translate(-2503.208 -1346.588)" fill="none" stroke="#000" stroke-miterlimit="10" stroke-width="0.25"/>
      <path id="Path_14327" data-name="Path 14327" d="M2520.592,1354.352s2.479,7.246-.35,11.51" transform="translate(-2502.248 -1346.85)" fill="none" stroke="#000" stroke-miterlimit="10" stroke-width="0.25"/>
      <path id="Path_14328" data-name="Path 14328" d="M2503.527,1369.809s16.01,8.624,24.111,5.846" transform="translate(-2503.348 -1345.833)" fill="none" stroke="#000" stroke-miterlimit="10" stroke-width="0.25"/>
      <path id="Path_14329" data-name="Path 14329" d="M2531.068,1359.285s2.05,11.887-4.92,17.063" transform="translate(-2501.859 -1346.526)" fill="none" stroke="#000" stroke-miterlimit="10" stroke-width="0.25"/>
      <path id="Path_14330" data-name="Path 14330" d="M2504.461,1382.556s16.2,9.016,29.806,5.51" transform="translate(-2503.287 -1344.994)" fill="none" stroke="#000" stroke-miterlimit="10" stroke-width="0.25"/>
      <path id="Path_14331" data-name="Path 14331" d="M2541.466,1366.138s-.968,18.642-9.04,23.009" transform="translate(-2501.446 -1346.074)" fill="none" stroke="#000" stroke-miterlimit="10" stroke-width="0.25"/>
      <path id="Path_14332" data-name="Path 14332" d="M2549.318,1374.333s-1.644,14.369-13.245,23.127" transform="translate(-2501.206 -1345.535)" fill="none" stroke="#000" stroke-miterlimit="10" stroke-width="0.25"/>
      <path id="Path_14333" data-name="Path 14333" d="M2510.693,1393.5s19.7,6.081,27.051,2.7" transform="translate(-2502.876 -1344.274)" fill="none" stroke="#000" stroke-miterlimit="10" stroke-width="0.25"/>
      <path id="Path_14334" data-name="Path 14334" d="M2553.776,1385.879s-5.938,13.55-15.044,18.03" transform="translate(-2501.031 -1344.775)" fill="none" stroke="#000" stroke-miterlimit="10" stroke-width="0.25"/>
      <path id="Path_14335" data-name="Path 14335" d="M2517.876,1399.985s13.632,6.819,22.229,3" transform="translate(-2502.404 -1343.847)" fill="none" stroke="#000" stroke-miterlimit="10" stroke-width="0.25"/>
    </g>
    <g id="Group_3847" data-name="Group 3847" transform="translate(2609.007 1558.059)">
      <path id="Path_14336" data-name="Path 14336" d="M2696.063,1619.924c1.789-.5,3.064-18.119-5.862-34.106s-23.936-32.582-41.479-38.725-29.843-.444-29.843-.444l-21.005,28.244s11.28,22.249,27.49,30.509,30.231,12.624,42.721,11.324,17.52-1.6,24.647,1.465C2694.877,1619.114,2694.865,1620.257,2696.063,1619.924Z" transform="translate(-2597.875 -1544.242)" fill="#cad226" stroke="#231815" stroke-miterlimit="10" stroke-width="0.25"/>
      <path id="Path_14337" data-name="Path 14337" d="M2695.227,1619.155s-30.605-48.806-84.647-63.239" transform="translate(-2597.039 -1543.474)" fill="none" stroke="#000" stroke-miterlimit="10" stroke-width="0.25"/>
      <path id="Path_14338" data-name="Path 14338" d="M2672.948,1612.53a25.856,25.856,0,0,1,.885-17.423" transform="translate(-2593.007 -1540.894)" fill="none" stroke="#000" stroke-miterlimit="10" stroke-width="0.25"/>
      <path id="Path_14339" data-name="Path 14339" d="M2691.942,1603.312s-8.73-8.65-18.233-8.2" transform="translate(-2592.883 -1540.895)" fill="none" stroke="#000" stroke-miterlimit="10" stroke-width="0.25"/>
      <path id="Path_14340" data-name="Path 14340" d="M2657.491,1614.528s-6.656-20.812,0-34.433" transform="translate(-2594.146 -1541.882)" fill="none" stroke="#000" stroke-miterlimit="10" stroke-width="0.25"/>
      <path id="Path_14341" data-name="Path 14341" d="M2688.4,1587.741s-16.7-12.473-31.091-7.576" transform="translate(-2593.963 -1541.953)" fill="none" stroke="#000" stroke-miterlimit="10" stroke-width="0.25"/>
      <path id="Path_14342" data-name="Path 14342" d="M2680.716,1573.967a44.622,44.622,0,0,0-39.616-4.912" transform="translate(-2595.03 -1542.78)" fill="none" stroke="#000" stroke-miterlimit="10" stroke-width="0.25"/>
      <path id="Path_14343" data-name="Path 14343" d="M2640.97,1611.621s-9.086-22.985.4-42.727" transform="translate(-2595.296 -1542.62)" fill="none" stroke="#000" stroke-miterlimit="10" stroke-width="0.25"/>
      <path id="Path_14344" data-name="Path 14344" d="M2666.245,1557.913s-24.057-6.619-38.3,4.573" transform="translate(-2595.895 -1543.47)" fill="none" stroke="#000" stroke-miterlimit="10" stroke-width="0.25"/>
      <path id="Path_14345" data-name="Path 14345" d="M2626.168,1605.484s-6.42-25.726,2.049-43.4" transform="translate(-2596.166 -1543.068)" fill="none" stroke="#000" stroke-miterlimit="10" stroke-width="0.25"/>
      <path id="Path_14346" data-name="Path 14346" d="M2611.376,1594.218s-2.791-21.988,6.641-36.186" transform="translate(-2597.011 -1543.334)" fill="none" stroke="#000" stroke-miterlimit="10" stroke-width="0.25"/>
    </g>
    <g id="Group_3848" data-name="Group 3848" transform="translate(2638.895 1388.335)">
      <path id="Path_14347" data-name="Path 14347" d="M2693.75,1385s16.387,2.931,20.517,13.722,4.929,12.923,4.13,21.983,4.551,18.652.277,27.179-5.073,21.05-8.137,23.981a36.451,36.451,0,0,0,.133-17.32c-2.265-9.326-6.919-13.032-6.99-16.641S2703.342,1394.459,2693.75,1385Z" transform="translate(-2621.452 -1385)" fill="#ffe8cf" stroke="#000" stroke-miterlimit="10" stroke-width="0.25"/>
      <path id="Path_14348" data-name="Path 14348" d="M2634.088,1540.741a20.674,20.674,0,0,1,12.168,1.777c5.862,3.019,10.658,5.95,15.809,3.6s7.639.311,12.88-7.15,8.615-4.086,11.458-9.77,4.8-18.385,9.947-21.983,7.461-9.1,8.882-14.341,5.552-16.48,9.77-22.3,3.109-17.675,5.417-21.849-1.332-26.2,0-33.041a44.2,44.2,0,0,0,.964-11.1,97.884,97.884,0,0,1,5.165,19.89,132.312,132.312,0,0,0,7.106,26.467c1.687,4.175.888,14.567-1.954,21.849s-6.128,17.5-6.484,24.78-9.326,16.093-11.1,21.413-8.526,11.094-13.678,26.46-9.337,13.056-16.126,17.32-8.565,7.106-19.046,7.106-16.447-3.908-24.832-4-14.514-8.971-14.514-8.971Z" transform="translate(-2625.917 -1383.711)" fill="#f2b370" stroke="#000" stroke-linejoin="round" stroke-width="0.25"/>
      <path id="Path_14349" data-name="Path 14349" d="M2639.236,1546.083s.459.889.992.889" transform="translate(-2625.04 -1374.397)" fill="none" stroke="#000" stroke-miterlimit="10" stroke-width="0.25"/>
      <path id="Path_14350" data-name="Path 14350" d="M2637.917,1538s1.316,0,1.724.621" transform="translate(-2625.127 -1374.929)" fill="none" stroke="#000" stroke-miterlimit="10" stroke-width="0.25"/>
      <path id="Path_14351" data-name="Path 14351" d="M2654.5,1544.625s2.31.666,3.02,0" transform="translate(-2624.035 -1374.493)" fill="none" stroke="#000" stroke-miterlimit="10" stroke-width="0.25"/>
      <path id="Path_14352" data-name="Path 14352" d="M2643.167,1551.669a3.35,3.35,0,0,1,2.575.71" transform="translate(-2624.781 -1374.031)" fill="none" stroke="#000" stroke-miterlimit="10" stroke-width="0.25"/>
      <path id="Path_14353" data-name="Path 14353" d="M2653.708,1549.833a4.849,4.849,0,0,0,2,0" transform="translate(-2624.088 -1374.15)" fill="none" stroke="#000" stroke-miterlimit="10" stroke-width="0.25"/>
      <path id="Path_14354" data-name="Path 14354" d="M2659.75,1553.35a5.326,5.326,0,0,1,3.286,0" transform="translate(-2623.689 -1373.937)" fill="none" stroke="#000" stroke-miterlimit="10" stroke-width="0.25"/>
      <path id="Path_14355" data-name="Path 14355" d="M2674.833,1546.6s2.665.237,3.82-1.7" transform="translate(-2622.697 -1374.475)" fill="none" stroke="#000" stroke-miterlimit="10" stroke-width="0.25"/>
      <path id="Path_14356" data-name="Path 14356" d="M2671.833,1538.012a2.425,2.425,0,0,1,1.955,0" transform="translate(-2622.895 -1374.941)" fill="none" stroke="#000" stroke-miterlimit="10" stroke-width="0.25"/>
      <path id="Path_14357" data-name="Path 14357" d="M2684,1532.543s1.6-.977,2.665-.621" transform="translate(-2622.094 -1375.334)" fill="none" stroke="#000" stroke-miterlimit="10" stroke-width="0.25"/>
      <path id="Path_14358" data-name="Path 14358" d="M2689.75,1536.816s1.51-.355,1.954-1.066" transform="translate(-2621.716 -1375.077)" fill="none" stroke="#000" stroke-miterlimit="10" stroke-width="0.25"/>
      <path id="Path_14359" data-name="Path 14359" d="M2705.833,1498.871a2.41,2.41,0,0,1,1.783-.621" transform="translate(-2620.656 -1377.546)" fill="none" stroke="#000" stroke-miterlimit="10" stroke-width="0.25"/>
      <path id="Path_14360" data-name="Path 14360" d="M2703.583,1492.623a2.332,2.332,0,0,1,1.865-.621" transform="translate(-2620.804 -1377.959)" fill="none" stroke="#000" stroke-miterlimit="10" stroke-width="0.25"/>
      <path id="Path_14361" data-name="Path 14361" d="M2711.88,1487.544a3.274,3.274,0,0,0,2.348-.711" transform="translate(-2620.259 -1378.297)" fill="none" stroke="#000" stroke-miterlimit="10" stroke-width="0.25"/>
      <path id="Path_14362" data-name="Path 14362" d="M2709.667,1481.343a4.067,4.067,0,0,1,2.359,0" transform="translate(-2620.404 -1378.669)" fill="none" stroke="#000" stroke-miterlimit="10" stroke-width="0.25"/>
      <path id="Path_14363" data-name="Path 14363" d="M2716,1476.2s1.51.177,2.131-.533" transform="translate(-2619.987 -1379.032)" fill="none" stroke="#000" stroke-miterlimit="10" stroke-width="0.25"/>
      <path id="Path_14364" data-name="Path 14364" d="M2714.083,1467.252s1.865-.266,2.576.711" transform="translate(-2620.114 -1379.588)" fill="none" stroke="#000" stroke-miterlimit="10" stroke-width="0.25"/>
      <path id="Path_14365" data-name="Path 14365" d="M2719.417,1444.5a5.3,5.3,0,0,1,1.421,1.6" transform="translate(-2619.762 -1381.083)" fill="none" stroke="#000" stroke-miterlimit="10" stroke-width="0.25"/>
      <path id="Path_14366" data-name="Path 14366" d="M2720.75,1457.667s.178,1.332.977,1.687" transform="translate(-2619.675 -1380.217)" fill="none" stroke="#000" stroke-miterlimit="10" stroke-width="0.25"/>
    </g>
    <g id="Group_3851" data-name="Group 3851" transform="translate(2549.458 1334.333)">
      <path id="Path_14367" data-name="Path 14367" d="M2631.489,1334.333c23.826,0,47.1,7.313,62.906,33.232s22.2,45.817,21.138,73.528-17.586,62.173-37.837,72.476-73.542,8.7-95.213-3.73-41.567-47.607-40.146-80.648,13.5-59.33,31.975-74.962S2612.1,1334.333,2631.489,1334.333Z" transform="translate(-2541.986 -1334.333)" fill="#fff6eb" stroke="#000" stroke-miterlimit="10" stroke-width="0.25"/>
      <g id="Group_3850" data-name="Group 3850">
        <g id="Group_3849" data-name="Group 3849" clip-path="url(#clip-path)">
          <path id="Path_14368" data-name="Path 14368" d="M2548.892,1389.958s18.163,10.348,23.315,19.229,5.151,15.454,12.967,19.54,24.071,7.639,36.816,14.745,25.269-1.6,41.3,2.486,21.538-3.552,33.973-2.31,21.316-11.013,21.316-11.013,1.254,52.492-31.082,76.473-81.629,12.79-98.416,5.6-36.238-25.58-44.5-52.225S2537.346,1400.572,2548.892,1389.958Z" transform="translate(-2542.189 -1330.672)" fill="#f2b370" stroke="#000" stroke-linejoin="round" stroke-width="0.25"/>
        </g>
      </g>
      <path id="Path_14370" data-name="Path 14370" d="M2616.875,1353s7.106,6.084,18.607.266" transform="translate(-2537.075 -1333.104)" fill="none" stroke="#000" stroke-miterlimit="10" stroke-width="0.25"/>
      <path id="Path_14371" data-name="Path 14371" d="M2649.918,1351.715s-6.128-.893-8.616-4.443-6.839.18-13.145-1.329-12.168,1.332-14.389,4.085-3.73,4.175-3.375,6.839a10.982,10.982,0,0,1-.976,5.417s9.59-1.154,13.721,2.576,13.723,1.776,16.743-2.665S2646.1,1352.6,2649.918,1351.715Z" transform="translate(-2537.566 -1333.596)" fill="#f2b370" stroke="#000" stroke-linejoin="round" stroke-width="0.25"/>
      <circle id="Ellipse_2609" data-name="Ellipse 2609" cx="2.443" cy="2.443" r="2.443" transform="translate(118.658 34.018)" fill="#dffffa" stroke="#231815" stroke-miterlimit="10" stroke-width="0.25"/>
      <ellipse id="Ellipse_2610" data-name="Ellipse 2610" cx="4.707" cy="5.995" rx="4.707" ry="5.995" transform="translate(129.381 37.317) rotate(-26.062)" fill="#dffffa" stroke="#231815" stroke-miterlimit="10" stroke-width="0.25"/>
      <ellipse id="Ellipse_2611" data-name="Ellipse 2611" cx="3.73" cy="2.576" rx="3.73" ry="2.576" transform="translate(46.735 36.509) rotate(-51.769)" fill="#dffffa" stroke="#231815" stroke-miterlimit="10" stroke-width="0.25"/>
      <path id="Path_14372" data-name="Path 14372" d="M2659.25,1389.083a2.917,2.917,0,0,1,.533,1.865" transform="translate(-2534.286 -1330.729)" fill="none" stroke="#000" stroke-miterlimit="10" stroke-width="0.25"/>
      <path id="Path_14373" data-name="Path 14373" d="M2660.583,1387.833a5.015,5.015,0,0,1,1.688,3.2" transform="translate(-2534.198 -1330.811)" fill="none" stroke="#000" stroke-miterlimit="10" stroke-width="0.25"/>
      <path id="Path_14374" data-name="Path 14374" d="M2676,1414.25a8.329,8.329,0,0,1,.355,4.53" transform="translate(-2533.183 -1329.073)" fill="none" stroke="#000" stroke-miterlimit="10" stroke-width="0.25"/>
      <path id="Path_14375" data-name="Path 14375" d="M2677.417,1411.667s2.487,2.486,1.865,8.26" transform="translate(-2533.09 -1329.243)" fill="none" stroke="#000" stroke-miterlimit="10" stroke-width="0.25"/>
      <path id="Path_14376" data-name="Path 14376" d="M2605.374,1408s-2.4,2.132-1.954,6.839" transform="translate(-2537.965 -1329.484)" fill="none" stroke="#000" stroke-miterlimit="10" stroke-width="0.25"/>
      <path id="Path_14377" data-name="Path 14377" d="M2607.314,1410.417s-1.332.976-.978,3.819" transform="translate(-2537.773 -1329.325)" fill="none" stroke="#000" stroke-miterlimit="10" stroke-width="0.25"/>
      <path id="Path_14378" data-name="Path 14378" d="M2578.456,1387.5a23.325,23.325,0,0,0-6.039,13.767" transform="translate(-2540.002 -1330.833)" fill="none" stroke="#000" stroke-miterlimit="10" stroke-width="0.25"/>
      <path id="Path_14379" data-name="Path 14379" d="M2578.67,1392.667s-2.4,1.6-2.753,6.572" transform="translate(-2539.771 -1330.493)" fill="none" stroke="#000" stroke-miterlimit="10" stroke-width="0.25"/>
      <path id="Path_14380" data-name="Path 14380" d="M2552.625,1405.625a3.565,3.565,0,0,0,1.466,1.643" transform="translate(-2541.304 -1329.64)" fill="none" stroke="#000" stroke-miterlimit="10" stroke-width="0.25"/>
      <path id="Path_14381" data-name="Path 14381" d="M2552.625,1414.833s.577,1.688,1.466,1.688" transform="translate(-2541.304 -1329.034)" fill="none" stroke="#000" stroke-miterlimit="10" stroke-width="0.25"/>
      <path id="Path_14382" data-name="Path 14382" d="M2565.583,1415.625a9.987,9.987,0,0,1,.889,1.91" transform="translate(-2540.451 -1328.982)" fill="none" stroke="#000" stroke-miterlimit="10" stroke-width="0.25"/>
      <path id="Path_14383" data-name="Path 14383" d="M2566.917,1422.333s.8,1.777,1.509,2.132" transform="translate(-2540.364 -1328.541)" fill="none" stroke="#000" stroke-miterlimit="10" stroke-width="0.25"/>
      <path id="Path_14384" data-name="Path 14384" d="M2573.75,1428.75a11.012,11.012,0,0,1,.621,2.4" transform="translate(-2539.914 -1328.118)" fill="none" stroke="#000" stroke-miterlimit="10" stroke-width="0.25"/>
      <path id="Path_14385" data-name="Path 14385" d="M2600,1442.036a4.41,4.41,0,0,1,2.487-.533" transform="translate(-2538.186 -1327.282)" fill="none" stroke="#000" stroke-miterlimit="10" stroke-width="0.25"/>
      <path id="Path_14386" data-name="Path 14386" d="M2612.25,1442.667a6.054,6.054,0,0,1,.8,2.132" transform="translate(-2537.38 -1327.202)" fill="none" stroke="#000" stroke-miterlimit="10" stroke-width="0.25"/>
      <path id="Path_14387" data-name="Path 14387" d="M2616.083,1453.5a4.987,4.987,0,0,0,2.4,1.066" transform="translate(-2537.127 -1326.489)" fill="none" stroke="#000" stroke-miterlimit="10" stroke-width="0.25"/>
      <path id="Path_14388" data-name="Path 14388" d="M2633.417,1449.083s1.865.444,2.309,1.244" transform="translate(-2535.986 -1326.78)" fill="none" stroke="#000" stroke-miterlimit="10" stroke-width="0.25"/>
      <path id="Path_14389" data-name="Path 14389" d="M2647.083,1459.25a4.01,4.01,0,0,1,2.487,2.043" transform="translate(-2535.087 -1326.11)" fill="none" stroke="#000" stroke-miterlimit="10" stroke-width="0.25"/>
      <path id="Path_14390" data-name="Path 14390" d="M2637.917,1467.417a2.851,2.851,0,0,0,1.954,1.753" transform="translate(-2535.69 -1325.573)" fill="none" stroke="#000" stroke-miterlimit="10" stroke-width="0.25"/>
      <path id="Path_14391" data-name="Path 14391" d="M2634.833,1477.667a5.144,5.144,0,0,1,2.31,1.687" transform="translate(-2535.893 -1324.898)" fill="none" stroke="#000" stroke-miterlimit="10" stroke-width="0.25"/>
      <path id="Path_14392" data-name="Path 14392" d="M2645,1492.583a3.7,3.7,0,0,0,2.753.622" transform="translate(-2535.224 -1323.917)" fill="none" stroke="#000" stroke-miterlimit="10" stroke-width="0.25"/>
      <path id="Path_14393" data-name="Path 14393" d="M2651.5,1482.083s1.777-.088,2.4,1.066" transform="translate(-2534.796 -1324.608)" fill="none" stroke="#000" stroke-miterlimit="10" stroke-width="0.25"/>
      <path id="Path_14394" data-name="Path 14394" d="M2650.5,1474.333s1.421.266,1.687,1.422" transform="translate(-2534.862 -1325.118)" fill="none" stroke="#000" stroke-miterlimit="10" stroke-width="0.25"/>
      <path id="Path_14395" data-name="Path 14395" d="M2659.333,1468.667s2.132-.09,2.843,1.154" transform="translate(-2534.281 -1325.491)" fill="none" stroke="#000" stroke-miterlimit="10" stroke-width="0.25"/>
      <path id="Path_14396" data-name="Path 14396" d="M2670.333,1482.082s1.865,1.511,3.375,1.067" transform="translate(-2533.557 -1324.608)" fill="none" stroke="#000" stroke-miterlimit="10" stroke-width="0.25"/>
      <path id="Path_14397" data-name="Path 14397" d="M2663.667,1491.205a4.1,4.1,0,0,0,2.22-.622" transform="translate(-2533.996 -1324.048)" fill="none" stroke="#000" stroke-miterlimit="10" stroke-width="0.25"/>
      <path id="Path_14398" data-name="Path 14398" d="M2675,1471.418s1.954-.266,2.753.976" transform="translate(-2533.249 -1325.311)" fill="none" stroke="#000" stroke-miterlimit="10" stroke-width="0.25"/>
      <path id="Path_14399" data-name="Path 14399" d="M2671.583,1454.022a3.092,3.092,0,0,1,2.843,0" transform="translate(-2533.475 -1326.478)" fill="none" stroke="#000" stroke-miterlimit="10" stroke-width="0.25"/>
      <path id="Path_14400" data-name="Path 14400" d="M2656.5,1448.417s1.244,1.154,1.865.71" transform="translate(-2534.467 -1326.824)" fill="none" stroke="#000" stroke-miterlimit="10" stroke-width="0.25"/>
      <path id="Path_14401" data-name="Path 14401" d="M2685.25,1454.9s1.6-1.421,3.109-1.066" transform="translate(-2532.575 -1326.471)" fill="none" stroke="#000" stroke-miterlimit="10" stroke-width="0.25"/>
      <path id="Path_14402" data-name="Path 14402" d="M2694.75,1447.421a4.1,4.1,0,0,0,2.22-1.421" transform="translate(-2531.949 -1326.983)" fill="none" stroke="#000" stroke-miterlimit="10" stroke-width="0.25"/>
      <path id="Path_14403" data-name="Path 14403" d="M2687.5,1465.588s2.31-.266,3.02-1.421" transform="translate(-2532.427 -1325.787)" fill="none" stroke="#000" stroke-miterlimit="10" stroke-width="0.25"/>
      <path id="Path_14404" data-name="Path 14404" d="M2631.509,1334.333c23.828,0,47.1,7.313,62.907,33.232s22.2,45.817,21.139,73.528-17.586,62.173-37.837,72.476-73.542,8.7-95.213-3.73-41.567-47.607-40.146-80.648,13.5-59.33,31.975-74.962S2612.124,1334.333,2631.509,1334.333Z" transform="translate(-2541.985 -1334.333)" fill="none" stroke="#000" stroke-miterlimit="10" stroke-width="0.25"/>
      <path id="Path_14405" data-name="Path 14405" d="M2627.931,1356.43a24.756,24.756,0,0,1-.155-8.707c.678-3.3,2.376-6.658,2.376-9.056h-5.685s-.346,2.579-.421,4.651c-.133,3.7-.133,4.519-1.2,7.006s-.444,5.663.557,6.282A10.561,10.561,0,0,0,2627.931,1356.43Z" transform="translate(-2536.719 -1334.048)" fill="#7a5d49" stroke="#0a0503" stroke-miterlimit="10" stroke-width="0.25"/>
      <ellipse id="Ellipse_2612" data-name="Ellipse 2612" cx="2.842" cy="1.421" rx="2.842" ry="1.421" transform="translate(87.749 3.198)" fill="#ad7955" stroke="#000" stroke-linejoin="round" stroke-width="0.25"/>
    </g>
    <g id="Group_3852" data-name="Group 3852" transform="translate(2471.473 1376.958)">
      <path id="Path_14406" data-name="Path 14406" d="M2469.477,1374.691c2.132-1.512,30.607,1.281,52.231,15.629s25.5,22.205,27.169,38.015l-35.429,27.178s-17.97,2.843-31.825-20.784-8.615-39.972-11.413-55.29C2469.7,1376.663,2467.879,1375.827,2469.477,1374.691Z" transform="translate(-2468.834 -1374.326)" fill="#cad226" stroke="#231815" stroke-miterlimit="10" stroke-width="0.25"/>
      <path id="Path_14407" data-name="Path 14407" d="M2469.438,1374.669s33.114,53.706,62.686,66.465" transform="translate(-2468.795 -1374.303)" fill="none" stroke="#000" stroke-miterlimit="10" stroke-width="0.25"/>
      <path id="Path_14408" data-name="Path 14408" d="M2482.888,1375.553s4.748,15.867,1.5,21.827" transform="translate(-2467.909 -1374.245)" fill="none" stroke="#000" stroke-miterlimit="10" stroke-width="0.25"/>
      <path id="Path_14409" data-name="Path 14409" d="M2471.04,1389s8.953,8.385,14.13,7.492" transform="translate(-2468.69 -1373.359)" fill="none" stroke="#000" stroke-miterlimit="10" stroke-width="0.25"/>
      <path id="Path_14410" data-name="Path 14410" d="M2471.357,1398.748s8.768,8.529,21.718,7.1" transform="translate(-2468.668 -1372.718)" fill="none" stroke="#000" stroke-miterlimit="10" stroke-width="0.25"/>
      <path id="Path_14411" data-name="Path 14411" d="M2491.734,1377.59s6.47,22.237,0,29.65" transform="translate(-2467.327 -1374.111)" fill="none" stroke="#000" stroke-miterlimit="10" stroke-width="0.25"/>
      <path id="Path_14412" data-name="Path 14412" d="M2473.076,1411.854s13.095,7.362,27.936,2.346" transform="translate(-2468.556 -1371.855)" fill="none" stroke="#000" stroke-miterlimit="10" stroke-width="0.25"/>
      <path id="Path_14413" data-name="Path 14413" d="M2503.806,1381.57s4.626,25.212-4.519,34.623" transform="translate(-2466.83 -1373.849)" fill="none" stroke="#000" stroke-miterlimit="10" stroke-width="0.25"/>
      <path id="Path_14414" data-name="Path 14414" d="M2477.362,1424.418s17.263,5.849,33.485-.868" transform="translate(-2468.273 -1371.085)" fill="none" stroke="#000" stroke-miterlimit="10" stroke-width="0.25"/>
      <path id="Path_14415" data-name="Path 14415" d="M2519.079,1389.333s2.1,21.583-10.3,36.47" transform="translate(-2466.205 -1373.338)" fill="none" stroke="#000" stroke-miterlimit="10" stroke-width="0.25"/>
      <path id="Path_14416" data-name="Path 14416" d="M2484.3,1436.609s15.185,6.381,35.1-6.082" transform="translate(-2467.817 -1370.626)" fill="none" stroke="#000" stroke-miterlimit="10" stroke-width="0.25"/>
      <path id="Path_14417" data-name="Path 14417" d="M2526.672,1394.715s2.306,29.436-9.442,38.169" transform="translate(-2465.649 -1372.984)" fill="none" stroke="#000" stroke-miterlimit="10" stroke-width="0.25"/>
      <path id="Path_14418" data-name="Path 14418" d="M2535.264,1402.206s3.331,22.75-10.343,35.4" transform="translate(-2465.143 -1372.49)" fill="none" stroke="#000" stroke-miterlimit="10" stroke-width="0.25"/>
    </g>
    <g id="Group_3853" data-name="Group 3853" transform="translate(2449.766 1562.689)">
      <path id="Path_14419" data-name="Path 14419" d="M2448.5,1556.863c.369-1.4,3.73.691,10.125-2.418s19.54-8.97,31.62-3.819,37.992,7.194,45.508,23.537c0,0-18.063,12.613-33.784,14.655s-28.334-4.263-34.373-9.947-10.215-12.345-13.589-16.432S2448.147,1558.214,2448.5,1556.863Z" transform="translate(-2448.468 -1548.587)" fill="#a5b63d" stroke="#231815" stroke-miterlimit="10" stroke-width="0.25"/>
      <path id="Path_14420" data-name="Path 14420" d="M2448.5,1556.352s18.586,8.954,37.837,10.416c21.316,1.619,36.482-1.021,49.417,6.883" transform="translate(-2448.466 -1548.075)" fill="none" stroke="#000" stroke-miterlimit="10" stroke-width="0.25"/>
      <path id="Path_14421" data-name="Path 14421" d="M2464.067,1551.425s11.922,6.186,14.452,14.858" transform="translate(-2447.442 -1548.4)" fill="none" stroke="#000" stroke-miterlimit="10" stroke-width="0.25"/>
      <path id="Path_14422" data-name="Path 14422" d="M2459.465,1569.446s14.223,1.409,19.357-4.081" transform="translate(-2447.745 -1547.482)" fill="none" stroke="#000" stroke-miterlimit="10" stroke-width="0.25"/>
      <path id="Path_14423" data-name="Path 14423" d="M2468.546,1579.6s18.879-1.827,28.556-12.931" transform="translate(-2447.146 -1547.396)" fill="none" stroke="#000" stroke-miterlimit="10" stroke-width="0.25"/>
      <path id="Path_14424" data-name="Path 14424" d="M2483.323,1549.134s14.138,11.673,12.806,18.688" transform="translate(-2446.174 -1548.551)" fill="none" stroke="#000" stroke-miterlimit="10" stroke-width="0.25"/>
      <path id="Path_14425" data-name="Path 14425" d="M2479.949,1585.819s21.549-1.768,29.365-18.82" transform="translate(-2446.396 -1547.375)" fill="none" stroke="#000" stroke-miterlimit="10" stroke-width="0.25"/>
      <path id="Path_14426" data-name="Path 14426" d="M2503.805,1586.468s11.043-6.814,13.13-18.717" transform="translate(-2444.825 -1547.325)" fill="none" stroke="#000" stroke-miterlimit="10" stroke-width="0.25"/>
    </g>
    <g id="Group_3854" data-name="Group 3854" transform="translate(2648.131 1507.518)">
      <path id="Path_14427" data-name="Path 14427" d="M2716.917,1513c.926-1.953-11.146-10.525-21.138-11.857s-10.7-4.53-21.4-2.931-8.971-2.265-19.363-1.2-15.151,3.969-20.162,7.9l-.266,23.01s10.17-5.6,16.965-5.729,13.722,3.464,19.851,2.931,10.792-1.2,14.255,1.133,10.125,3.93,12.39,1.665,4.263-8.26,8.66-9.326S2715.275,1516.463,2716.917,1513Z" transform="translate(-2634.583 -1496.823)" fill="#f2b370" stroke="#000" stroke-linejoin="round" stroke-width="0.25"/>
      <path id="Path_14428" data-name="Path 14428" d="M2691.125,1509.593a3.3,3.3,0,0,1,1.91,0" transform="translate(-2630.861 -1495.992)" fill="none" stroke="#000" stroke-miterlimit="10" stroke-width="0.25"/>
      <path id="Path_14429" data-name="Path 14429" d="M2692.021,1518.167a3.061,3.061,0,0,0,1.843,0" transform="translate(-2630.802 -1495.418)" fill="none" stroke="#000" stroke-miterlimit="10" stroke-width="0.25"/>
      <path id="Path_14430" data-name="Path 14430" d="M2676.25,1505.5a4.357,4.357,0,0,1,2.31.621" transform="translate(-2631.84 -1496.251)" fill="none" stroke="#000" stroke-miterlimit="10" stroke-width="0.25"/>
      <path id="Path_14431" data-name="Path 14431" d="M2679.583,1513a3.111,3.111,0,0,0,2.132,0" transform="translate(-2631.621 -1495.758)" fill="none" stroke="#000" stroke-miterlimit="10" stroke-width="0.25"/>
      <path id="Path_14432" data-name="Path 14432" d="M2662.833,1516.667a5.814,5.814,0,0,1,2.576.71" transform="translate(-2632.723 -1495.516)" fill="none" stroke="#000" stroke-miterlimit="10" stroke-width="0.25"/>
      <path id="Path_14433" data-name="Path 14433" d="M2651.833,1504.676s2.576-.533,4,.443" transform="translate(-2633.447 -1496.315)" fill="none" stroke="#000" stroke-miterlimit="10" stroke-width="0.25"/>
      <path id="Path_14434" data-name="Path 14434" d="M2648.333,1511.974a9.867,9.867,0,0,0,2.576-.807" transform="translate(-2633.678 -1495.878)" fill="none" stroke="#000" stroke-miterlimit="10" stroke-width="0.25"/>
    </g>
    <g id="Group_3855" data-name="Group 3855" transform="translate(2428.75 1565.084)">
      <ellipse id="Ellipse_2613" data-name="Ellipse 2613" cx="4.086" cy="2.398" rx="4.086" ry="2.398" transform="translate(291.591)" fill="#ecb36f" stroke="#000" stroke-linejoin="round" stroke-width="0.25"/>
      <ellipse id="Ellipse_2614" data-name="Ellipse 2614" cx="2.709" cy="1.727" rx="2.709" ry="1.727" transform="translate(278.18 5.107)" fill="#ecb36f" stroke="#000" stroke-linejoin="round" stroke-width="0.25"/>
      <path id="Path_14435" data-name="Path 14435" d="M2721.28,1567.444a15.421,15.421,0,0,1-9.947,1.545c-5.329-1.131-5.862-1.889-11.013,0s-10.57-1.545-10.57-1.545" transform="translate(-2411.57 -1549.74)" fill="none" stroke="#000" stroke-miterlimit="10" stroke-width="0.25"/>
      <path id="Path_14436" data-name="Path 14436" d="M2678.27,1576.667a13.759,13.759,0,0,0,10.193,1.066c5.862-1.6,7.106-.479,10.481,1.448s8.7-2.46,14.21,0" transform="translate(-2412.325 -1549.133)" fill="none" stroke="#000" stroke-miterlimit="10" stroke-width="0.25"/>
      <path id="Path_14437" data-name="Path 14437" d="M2734.13,1600.7a11.6,11.6,0,0,1-8.882,0c-4.974-1.955-9.415,2.278-9.415,2.278" transform="translate(-2409.854 -1547.585)" fill="none" stroke="#000" stroke-miterlimit="10" stroke-width="0.25"/>
      <ellipse id="Ellipse_2615" data-name="Ellipse 2615" cx="4.352" cy="2.398" rx="4.352" ry="2.398" transform="translate(292.124 84.2)" fill="#c19165" stroke="#000" stroke-linejoin="round" stroke-width="0.25"/>
      <ellipse id="Ellipse_2616" data-name="Ellipse 2616" cx="3.375" cy="1.954" rx="3.375" ry="1.954" transform="translate(305.269 92.016)" fill="#ecb36f" stroke="#000" stroke-linejoin="round" stroke-width="0.25"/>
      <path id="Path_14438" data-name="Path 14438" d="M2670.9,1640.861s-3.376,1.777-10.126,0-6.75,2.289-13.5.79-10.3-1.729-15.276.339" transform="translate(-2415.371 -1544.938)" fill="none" stroke="#000" stroke-miterlimit="10" stroke-width="0.25"/>
      <path id="Path_14439" data-name="Path 14439" d="M2584.25,1596.8s5.24,1.189,8.793-.5,5.8-.517,9.06,1.027c3.908,1.85,8.327,1.451,10.648-1.077" transform="translate(-2418.515 -1547.895)" fill="none" stroke="#000" stroke-miterlimit="10" stroke-width="0.25"/>
      <ellipse id="Ellipse_2617" data-name="Ellipse 2617" cx="3.308" cy="1.865" rx="3.308" ry="1.865" transform="translate(182.522 88.996)" fill="#ecb36f" stroke="#000" stroke-linejoin="round" stroke-width="0.25"/>
      <ellipse id="Ellipse_2618" data-name="Ellipse 2618" cx="5.818" cy="2.053" rx="5.818" ry="2.053" transform="translate(171.953 96.259)" fill="#c19165" stroke="#000" stroke-linejoin="round" stroke-width="0.25"/>
      <ellipse id="Ellipse_2619" data-name="Ellipse 2619" cx="4.174" cy="2.487" rx="4.174" ry="2.487" transform="translate(137.58 72.653)" fill="#c19165" stroke="#000" stroke-linejoin="round" stroke-width="0.25"/>
      <path id="Path_14440" data-name="Path 14440" d="M2562.625,1603.755a11.594,11.594,0,0,0,9.193.384c4.8-1.98,7.327,2.761,14.522.79s13.856,2.819,17.187.492" transform="translate(-2419.938 -1547.357)" fill="none" stroke="#000" stroke-miterlimit="10" stroke-width="0.25"/>
      <ellipse id="Ellipse_2620" data-name="Ellipse 2620" cx="2.798" cy="1.601" rx="2.798" ry="1.601" transform="translate(8.527 12.435)" fill="#ecb36f" stroke="#000" stroke-linejoin="round" stroke-width="0.25"/>
      <ellipse id="Ellipse_2621" data-name="Ellipse 2621" cx="4.33" cy="2.043" rx="4.33" ry="2.043" transform="translate(17.142 18.474)" fill="#c19165" stroke="#000" stroke-linejoin="round" stroke-width="0.25"/>
      <ellipse id="Ellipse_2622" data-name="Ellipse 2622" cx="3.197" cy="1.865" rx="3.197" ry="1.865" transform="translate(27.267 93.437)" fill="#ecb36f" stroke="#000" stroke-linejoin="round" stroke-width="0.25"/>
      <ellipse id="Ellipse_2623" data-name="Ellipse 2623" cx="5.063" cy="2.753" rx="5.063" ry="2.753" transform="translate(17.142 101.253)" fill="#c19165" stroke="#000" stroke-linejoin="round" stroke-width="0.25"/>
      <path id="Path_14441" data-name="Path 14441" d="M2485.167,1635.2a5.116,5.116,0,0,1,4.707,0c2.309,1.332,5.613-.593,5.613-.593" transform="translate(-2425.036 -1545.319)" fill="none" stroke="#000" stroke-miterlimit="10" stroke-width="0.25"/>
      <path id="Path_14442" data-name="Path 14442" d="M2500.083,1635.268s6.517-4.557,12.584-1.537,14.594-3.227,22.588.251" transform="translate(-2424.054 -1545.445)" fill="none" stroke="#000" stroke-miterlimit="10" stroke-width="0.25"/>
      <path id="Path_14443" data-name="Path 14443" d="M2469.417,1621.167s3.717,2.575,7.854,1.243,5.379-1.278,8.577.383,8.527-2.46,13.056,0" transform="translate(-2426.073 -1546.204)" fill="none" stroke="#000" stroke-miterlimit="10" stroke-width="0.25"/>
      <path id="Path_14444" data-name="Path 14444" d="M2440,1580.754a14.563,14.563,0,0,0,11.635.621c6.4-2.4,10.747,2.4,16.431,1.332s11.34-2,15.352.158" transform="translate(-2428.009 -1548.868)" fill="none" stroke="#000" stroke-miterlimit="10" stroke-width="0.25"/>
      <path id="Path_14445" data-name="Path 14445" d="M2428.75,1576.3a11.331,11.331,0,0,1,8.527,0c4.618,1.865,8.793-2.487,13.589,0" transform="translate(-2428.75 -1549.212)" fill="none" stroke="#000" stroke-miterlimit="10" stroke-width="0.25"/>
    </g>
    <g id="Group_3856" data-name="Group 3856" transform="translate(2468.342 1427.105)">
      <path id="Path_14446" data-name="Path 14446" d="M2494.249,1452.162s-3.13-.466-4.263-.6-2.4,2.665-1.465,3.73a8.864,8.864,0,0,1,2.332,3.53S2495.248,1456.626,2494.249,1452.162Z" transform="translate(-2464.429 -1419.389)" fill="#7a5d49" stroke="#0a0503" stroke-miterlimit="10" stroke-width="0.25"/>
      <path id="Path_14447" data-name="Path 14447" d="M2472.552,1468.417s-11.342,23.891-4.414,53.912,31.087,57.554,57.554,66.259,54.978,8.7,84.511-5.862,39.449-45.365,40.442-69.579Z" transform="translate(-2465.896 -1418.279)" fill="#f2b370" stroke="#000" stroke-linejoin="round" stroke-width="0.25"/>
      <path id="Path_14448" data-name="Path 14448" d="M2493.881,1458.1c2.871-4.014-3.552-6.928-.888-16.7s16.135-17.928,35.172-19.793,48.139,7.713,64.837,16.6,36.593,25.047,44.765,40.323,15.721,31.175,11.724,40.235-7.815,9.148-10.925,8.881-6.128-1.066-6.483,1.244,4,4.175,2.842,12.257-6.838,16.7-17.142,22.027-38.991,6.305-60.485,2.22-51.87-20.962-67.147-41.034-21.494-45.83-17.408-54.357,8.083-9.459,12.013-9.726S2491.816,1460.988,2493.881,1458.1Z" transform="translate(-2465.526 -1421.376)" fill="#fff6eb" stroke="#000" stroke-miterlimit="10" stroke-width="0.25"/>
      <path id="Path_14449" data-name="Path 14449" d="M2499.917,1460.583s5.417,5.507,9.059,6.306" transform="translate(-2463.657 -1418.795)" fill="none" stroke="#000" stroke-miterlimit="10" stroke-width="0.25"/>
      <path id="Path_14450" data-name="Path 14450" d="M2504.167,1461.583s2.487,3.82,6.128,5.241" transform="translate(-2463.378 -1418.729)" fill="none" stroke="#000" stroke-miterlimit="10" stroke-width="0.25"/>
      <path id="Path_14451" data-name="Path 14451" d="M2506.667,1461.25s9.237,2.576,14.122,7.639" transform="translate(-2463.213 -1418.751)" fill="none" stroke="#000" stroke-miterlimit="10" stroke-width="0.25"/>
      <path id="Path_14452" data-name="Path 14452" d="M2532,1477.667a152.385,152.385,0,0,1,21.583,13.274c10.658,7.953,24.426,9.463,32.33,9.641" transform="translate(-2461.545 -1417.67)" fill="none" stroke="#000" stroke-miterlimit="10" stroke-width="0.25"/>
      <path id="Path_14453" data-name="Path 14453" d="M2541.667,1477.167s20.606-.533,40.323,15.631" transform="translate(-2460.909 -1417.703)" fill="none" stroke="#000" stroke-miterlimit="10" stroke-width="0.25"/>
      <path id="Path_14454" data-name="Path 14454" d="M2557.833,1482.583s16.61,7.017,21.494,12.347" transform="translate(-2459.845 -1417.347)" fill="none" stroke="#000" stroke-miterlimit="10" stroke-width="0.25"/>
      <path id="Path_14455" data-name="Path 14455" d="M2550.333,1485.167c.267.177,10.879,6.737,16.343,7.1" transform="translate(-2460.339 -1417.177)" fill="none" stroke="#000" stroke-miterlimit="10" stroke-width="0.25"/>
      <path id="Path_14456" data-name="Path 14456" d="M2572.083,1480.79c.169-.911,11.014-1.154,15.988,1.332s3.464,5.894,0,5.774C2582.212,1487.691,2571.64,1483.188,2572.083,1480.79Z" transform="translate(-2458.908 -1417.507)" fill="#7a5d49" stroke="#0a0503" stroke-miterlimit="10" stroke-width="0.25"/>
      <path id="Path_14457" data-name="Path 14457" d="M2596.333,1502.667s7.727,2.4,10.57,5.772" transform="translate(-2457.311 -1416.025)" fill="none" stroke="#000" stroke-miterlimit="10" stroke-width="0.25"/>
      <path id="Path_14458" data-name="Path 14458" d="M2593.25,1503.417s8.793,5.329,12.345,6.572" transform="translate(-2457.514 -1415.975)" fill="none" stroke="#000" stroke-miterlimit="10" stroke-width="0.25"/>
      <path id="Path_14459" data-name="Path 14459" d="M2614,1488.917a15.55,15.55,0,0,1,2.043,6.572" transform="translate(-2456.148 -1416.93)" fill="none" stroke="#000" stroke-miterlimit="10" stroke-width="0.25"/>
      <path id="Path_14460" data-name="Path 14460" d="M2615.917,1490.121a8.54,8.54,0,0,1,1.333,5.289" transform="translate(-2456.022 -1416.851)" fill="none" stroke="#000" stroke-miterlimit="10" stroke-width="0.25"/>
      <path id="Path_14461" data-name="Path 14461" d="M2542.287,1491.5c1.342-.544,8.954,6.04,11.262,10.836s2.931,8.437-.621,9.947-6.217-3.73-7.727-6.75S2540.972,1492.035,2542.287,1491.5Z" transform="translate(-2460.891 -1416.762)" fill="#7a5d49" stroke="#0a0503" stroke-miterlimit="10" stroke-width="0.25"/>
      <ellipse id="Ellipse_2624" data-name="Ellipse 2624" cx="2.398" cy="3.533" rx="2.398" ry="3.533" transform="translate(32.929 74.807) rotate(-27.958)" fill="#dffffa" stroke="#231815" stroke-miterlimit="10" stroke-width="0.25"/>
      <ellipse id="Ellipse_2625" data-name="Ellipse 2625" cx="5.018" cy="2.665" rx="5.018" ry="2.665" transform="translate(115.574 124.301)" fill="#dffffa" stroke="#231815" stroke-miterlimit="10" stroke-width="0.25"/>
      <path id="Path_14462" data-name="Path 14462" d="M2527.875,1529.75s2.132,3.864,5.6,3.864" transform="translate(-2461.817 -1414.242)" fill="none" stroke="#000" stroke-miterlimit="10" stroke-width="0.25"/>
      <path id="Path_14463" data-name="Path 14463" d="M2530.5,1529.75a3.281,3.281,0,0,0,2.8,1.666" transform="translate(-2461.644 -1414.242)" fill="none" stroke="#000" stroke-miterlimit="10" stroke-width="0.25"/>
      <path id="Path_14464" data-name="Path 14464" d="M2531.917,1439.095a2.967,2.967,0,0,1,2.132,0" transform="translate(-2461.551 -1420.222)" fill="none" stroke="#000" stroke-miterlimit="10" stroke-width="0.25"/>
      <path id="Path_14465" data-name="Path 14465" d="M2530.792,1440.627a5.038,5.038,0,0,1,4.085-.443" transform="translate(-2461.625 -1420.155)" fill="none" stroke="#000" stroke-miterlimit="10" stroke-width="0.25"/>
      <ellipse id="Ellipse_2626" data-name="Ellipse 2626" cx="1.221" cy="1.799" rx="1.221" ry="1.799" transform="matrix(0.199, -0.98, 0.98, 0.199, 96.671, 22.399)" fill="#dffffa" stroke="#231815" stroke-miterlimit="10" stroke-width="0.25"/>
      <ellipse id="Ellipse_2627" data-name="Ellipse 2627" cx="2.82" cy="4.397" rx="2.82" ry="4.397" transform="matrix(0.244, -0.97, 0.97, 0.244, 106.733, 28.848)" fill="#dffffa" stroke="#231815" stroke-miterlimit="10" stroke-width="0.25"/>
      <path id="Path_14466" data-name="Path 14466" d="M2481.25,1520.417a3.653,3.653,0,0,0,1.777,0" transform="translate(-2464.886 -1414.856)" fill="none" stroke="#000" stroke-miterlimit="10" stroke-width="0.25"/>
      <path id="Path_14467" data-name="Path 14467" d="M2479.583,1529.794s2.488-.266,2.665-.711" transform="translate(-2464.995 -1414.286)" fill="none" stroke="#000" stroke-miterlimit="10" stroke-width="0.25"/>
      <path id="Path_14468" data-name="Path 14468" d="M2493.75,1531.314a3.755,3.755,0,0,0,1.688,0" transform="translate(-2464.063 -1414.139)" fill="none" stroke="#000" stroke-miterlimit="10" stroke-width="0.25"/>
      <path id="Path_14469" data-name="Path 14469" d="M2494.542,1550.5a4.866,4.866,0,0,0,2.975,0" transform="translate(-2464.011 -1412.876)" fill="none" stroke="#000" stroke-miterlimit="10" stroke-width="0.25"/>
      <path id="Path_14470" data-name="Path 14470" d="M2510.917,1550.737a3.515,3.515,0,0,0,2.22-.237" transform="translate(-2462.934 -1412.876)" fill="none" stroke="#000" stroke-miterlimit="10" stroke-width="0.25"/>
      <path id="Path_14471" data-name="Path 14471" d="M2522.417,1556.167a4.268,4.268,0,0,0,2.487,0" transform="translate(-2462.176 -1412.503)" fill="none" stroke="#000" stroke-miterlimit="10" stroke-width="0.25"/>
      <path id="Path_14472" data-name="Path 14472" d="M2514.583,1564.2a7.881,7.881,0,0,0,3.287-.533" transform="translate(-2462.692 -1412.01)" fill="none" stroke="#000" stroke-miterlimit="10" stroke-width="0.25"/>
      <path id="Path_14473" data-name="Path 14473" d="M2528.917,1568.167s2.175.533,3.086,0" transform="translate(-2461.749 -1411.713)" fill="none" stroke="#000" stroke-miterlimit="10" stroke-width="0.25"/>
      <path id="Path_14474" data-name="Path 14474" d="M2543.167,1563.744a5.9,5.9,0,0,0,1.865-1.244" transform="translate(-2460.81 -1412.086)" fill="none" stroke="#000" stroke-miterlimit="10" stroke-width="0.25"/>
      <path id="Path_14475" data-name="Path 14475" d="M2557.833,1565.689a4.251,4.251,0,0,0,2.043-.356" transform="translate(-2459.845 -1411.9)" fill="none" stroke="#000" stroke-miterlimit="10" stroke-width="0.25"/>
      <path id="Path_14476" data-name="Path 14476" d="M2551.5,1575.194a2.989,2.989,0,0,0,2.22-.445" transform="translate(-2460.262 -1411.28)" fill="none" stroke="#000" stroke-miterlimit="10" stroke-width="0.25"/>
      <path id="Path_14477" data-name="Path 14477" d="M2563.583,1571.944a7.236,7.236,0,0,0,2.221-.444" transform="translate(-2459.467 -1411.494)" fill="none" stroke="#000" stroke-miterlimit="10" stroke-width="0.25"/>
      <path id="Path_14478" data-name="Path 14478" d="M2584.25,1568.513a3.34,3.34,0,0,0,1.332-2.013" transform="translate(-2458.106 -1411.823)" fill="none" stroke="#000" stroke-miterlimit="10" stroke-width="0.25"/>
      <path id="Path_14479" data-name="Path 14479" d="M2587.75,1574.8s1.865-.089,2.487-.888" transform="translate(-2457.876 -1411.335)" fill="none" stroke="#000" stroke-miterlimit="10" stroke-width="0.25"/>
      <path id="Path_14480" data-name="Path 14480" d="M2600,1563.771s1.865-.623,2.131-1.688" transform="translate(-2457.07 -1412.114)" fill="none" stroke="#000" stroke-miterlimit="10" stroke-width="0.25"/>
      <path id="Path_14481" data-name="Path 14481" d="M2604.667,1566.176s2.309,0,3.286-1.509" transform="translate(-2456.762 -1411.944)" fill="none" stroke="#000" stroke-miterlimit="10" stroke-width="0.25"/>
      <path id="Path_14482" data-name="Path 14482" d="M2615.667,1555.955a4.218,4.218,0,0,0,2.042-.622" transform="translate(-2456.038 -1412.558)" fill="none" stroke="#000" stroke-miterlimit="10" stroke-width="0.25"/>
      <path id="Path_14483" data-name="Path 14483" d="M2622.75,1545.332A2.665,2.665,0,0,0,2624.7,1544" transform="translate(-2455.572 -1413.304)" fill="none" stroke="#000" stroke-miterlimit="10" stroke-width="0.25"/>
      <path id="Path_14484" data-name="Path 14484" d="M2628.167,1538.082a2.631,2.631,0,0,0,1.509-1.332" transform="translate(-2455.215 -1413.781)" fill="none" stroke="#000" stroke-miterlimit="10" stroke-width="0.25"/>
      <path id="Path_14485" data-name="Path 14485" d="M2631.75,1530.749s1.954,0,1.954-1.332" transform="translate(-2454.979 -1414.264)" fill="none" stroke="#000" stroke-miterlimit="10" stroke-width="0.25"/>
      <path id="Path_14486" data-name="Path 14486" d="M2632.667,1524.885s1.154-1.066,2.042-.8" transform="translate(-2454.919 -1414.618)" fill="none" stroke="#000" stroke-miterlimit="10" stroke-width="0.25"/>
      <path id="Path_14487" data-name="Path 14487" d="M2625.917,1526a2.217,2.217,0,0,1,1.332,1.244" transform="translate(-2455.364 -1414.489)" fill="none" stroke="#000" stroke-miterlimit="10" stroke-width="0.25"/>
    </g>
    <g id="Group_3857" data-name="Group 3857" transform="translate(2454.552 1593.522)">
      <path id="Path_14488" data-name="Path 14488" d="M2554.967,1577.765c-.6-1.106-6.573,1.865-15.1,1.119-10.788-.945-24.159-.32-35.172,4.921s-23.8,17.853-32.419,19.451a111.385,111.385,0,0,1-16.076,2.132c-5.062.355-3.286,2.665-.8,2.753s7.994,1.51,19.451,7.816,35.616,4.086,52.847-5.773,19.185-21.849,23.271-26.113S2555.588,1578.92,2554.967,1577.765Z" transform="translate(-2452.958 -1577.516)" fill="#cad226" stroke="#231815" stroke-miterlimit="10" stroke-width="0.25"/>
      <path id="Path_14489" data-name="Path 14489" d="M2554.967,1577.75s-21.316,19.806-44.321,26.113-45.742,1.244-57.688,2.931" transform="translate(-2452.958 -1577.5)" fill="none" stroke="#000" stroke-miterlimit="10" stroke-width="0.25"/>
      <path id="Path_14490" data-name="Path 14490" d="M2538.662,1578.889s-5.57,6.714-4.549,10.844" transform="translate(-2447.624 -1577.425)" fill="none" stroke="#000" stroke-miterlimit="10" stroke-width="0.25"/>
      <path id="Path_14491" data-name="Path 14491" d="M2541.711,1589.6s-2.764.866-7.606-.534" transform="translate(-2447.617 -1576.755)" fill="none" stroke="#000" stroke-miterlimit="10" stroke-width="0.25"/>
      <path id="Path_14492" data-name="Path 14492" d="M2531.229,1578.552s-7.247,8.94-6.818,17.532" transform="translate(-2448.256 -1577.447)" fill="none" stroke="#000" stroke-miterlimit="10" stroke-width="0.25"/>
      <path id="Path_14493" data-name="Path 14493" d="M2535.941,1598.644s-8.837.353-11.531-3.643" transform="translate(-2448.255 -1576.365)" fill="none" stroke="#000" stroke-miterlimit="10" stroke-width="0.25"/>
      <path id="Path_14494" data-name="Path 14494" d="M2522.2,1578.622s-11.235,13.425-10.247,23.535" transform="translate(-2449.079 -1577.443)" fill="none" stroke="#000" stroke-miterlimit="10" stroke-width="0.25"/>
      <path id="Path_14495" data-name="Path 14495" d="M2526.24,1607.195s-10.773,0-14.293-6.492" transform="translate(-2449.075 -1575.989)" fill="none" stroke="#000" stroke-miterlimit="10" stroke-width="0.25"/>
      <path id="Path_14496" data-name="Path 14496" d="M2513.611,1579.783s-15.115,13.467-15.249,25.926" transform="translate(-2449.969 -1577.366)" fill="none" stroke="#000" stroke-miterlimit="10" stroke-width="0.25"/>
      <path id="Path_14497" data-name="Path 14497" d="M2515.058,1612.931s-12.773-.6-16.7-8.823" transform="translate(-2449.969 -1575.765)" fill="none" stroke="#000" stroke-miterlimit="10" stroke-width="0.25"/>
      <path id="Path_14498" data-name="Path 14498" d="M2498.613,1585.312s-10.939,10.645-10.545,21.144" transform="translate(-2450.647 -1577.002)" fill="none" stroke="#000" stroke-miterlimit="10" stroke-width="0.25"/>
      <path id="Path_14499" data-name="Path 14499" d="M2502.526,1616.494s-11.532,0-14.459-11.344" transform="translate(-2450.646 -1575.697)" fill="none" stroke="#000" stroke-miterlimit="10" stroke-width="0.25"/>
      <path id="Path_14500" data-name="Path 14500" d="M2484.683,1594.686s-6.235,4.855-7.434,11.288" transform="translate(-2451.359 -1576.385)" fill="none" stroke="#000" stroke-miterlimit="10" stroke-width="0.25"/>
      <path id="Path_14501" data-name="Path 14501" d="M2488.779,1617.646s-9.729-3-11.53-12.369" transform="translate(-2451.359 -1575.688)" fill="none" stroke="#000" stroke-miterlimit="10" stroke-width="0.25"/>
      <path id="Path_14502" data-name="Path 14502" d="M2467.938,1605.175c.732-2.336,5.1-3.934,5.1-3.934" transform="translate(-2451.972 -1575.954)" fill="none" stroke="#000" stroke-miterlimit="10" stroke-width="0.25"/>
      <path id="Path_14503" data-name="Path 14503" d="M2477.368,1615.687s-8.032-3.455-9.43-10.755" transform="translate(-2451.972 -1575.711)" fill="none" stroke="#000" stroke-miterlimit="10" stroke-width="0.25"/>
    </g>
  </g>
</svg>
