<svg xmlns="http://www.w3.org/2000/svg" width="319.244" height="361.206" viewBox="0 0 319.244 361.206">
  <g id="Group_3944" data-name="Group 3944" transform="translate(-116.097 -1285.911)">
    <g id="Group_3935" data-name="Group 3935" transform="translate(125.53 1535.225)">
      <ellipse id="Ellipse_2717" data-name="Ellipse 2717" cx="4.742" cy="2.407" rx="4.742" ry="2.407" transform="translate(271.814)" fill="#ecb36f" stroke="#000" stroke-linejoin="round" stroke-width="0.25"/>
      <ellipse id="Ellipse_2718" data-name="Ellipse 2718" cx="2.558" cy="1.654" rx="2.558" ry="1.654" transform="translate(283.296 8.058)" fill="#c19165" stroke="#000" stroke-linejoin="round" stroke-width="0.25"/>
      <ellipse id="Ellipse_2719" data-name="Ellipse 2719" cx="4.493" cy="2.21" rx="4.493" ry="2.21" transform="translate(0 35.764)" fill="#c19165" stroke="#000" stroke-linejoin="round" stroke-width="0.25"/>
      <ellipse id="Ellipse_2720" data-name="Ellipse 2720" cx="2.746" cy="2.095" rx="2.746" ry="2.095" transform="translate(12.106 40.184)" fill="#ecb36f" stroke="#000" stroke-linejoin="round" stroke-width="0.25"/>
      <ellipse id="Ellipse_2721" data-name="Ellipse 2721" cx="3.931" cy="2.538" rx="3.931" ry="2.538" transform="translate(67.392 81.94)" fill="#c19165" stroke="#000" stroke-linejoin="round" stroke-width="0.25"/>
      <ellipse id="Ellipse_2722" data-name="Ellipse 2722" cx="5.866" cy="3.744" rx="5.866" ry="3.744" transform="translate(163.987 90.675)" fill="#ecb36f" stroke="#000" stroke-linejoin="round" stroke-width="0.25"/>
      <ellipse id="Ellipse_2723" data-name="Ellipse 2723" cx="4.618" cy="2.184" rx="4.618" ry="2.184" transform="translate(208.915 52.861)" fill="#c19165" stroke="#000" stroke-linejoin="round" stroke-width="0.25"/>
      <ellipse id="Ellipse_2724" data-name="Ellipse 2724" cx="4.056" cy="2.434" rx="4.056" ry="2.434" transform="translate(218.899 60.474)" fill="#c19165" stroke="#000" stroke-linejoin="round" stroke-width="0.25"/>
      <ellipse id="Ellipse_2725" data-name="Ellipse 2725" cx="5.242" cy="2.558" rx="5.242" ry="2.558" transform="translate(232.502 106.65)" fill="#ecb36f" stroke="#000" stroke-linejoin="round" stroke-width="0.25"/>
      <ellipse id="Ellipse_2726" data-name="Ellipse 2726" cx="3.058" cy="1.778" rx="3.058" ry="1.778" transform="translate(272.188 55.045)" fill="#ecb36f" stroke="#000" stroke-linejoin="round" stroke-width="0.25"/>
      <path id="Path_15161" data-name="Path 15161" d="M381.878,1552.2s2.58,3.411,8.321,1.747,7.738-.167,10.733,1.248,7.155.25,8.32-1.5" transform="translate(-125.956 -1535.651)" fill="none" stroke="#252f33" stroke-miterlimit="10" stroke-width="0.25"/>
      <path id="Path_15162" data-name="Path 15162" d="M407.878,1558.861s3.494-1.5,6.532,0,6.614-.332,6.614-.332" transform="translate(-125.997 -1535.661)" fill="none" stroke="#252f33" stroke-miterlimit="10" stroke-width="0.25"/>
      <path id="Path_15163" data-name="Path 15163" d="M360.8,1576.193s4.41-2.246,10.816,0,9.984,1.164,13.146-.5,8.986-1.582,13.354,1.331" transform="translate(-125.922 -1535.687)" fill="none" stroke="#252f33" stroke-miterlimit="10" stroke-width="0.25"/>
      <path id="Path_15164" data-name="Path 15164" d="M278.045,1604.359a19.846,19.846,0,0,1,13.728,0c7.405,2.746,12.148.777,16.723-.61s10.816-2.551,16.556,1.443" transform="translate(-125.789 -1535.732)" fill="none" stroke="#252f33" stroke-miterlimit="10" stroke-width="0.25"/>
      <path id="Path_15165" data-name="Path 15165" d="M320.8,1615.359s4.326-3,11.149-.665a15.088,15.088,0,0,0,12.064-.888" transform="translate(-125.858 -1535.75)" fill="none" stroke="#252f33" stroke-miterlimit="10" stroke-width="0.25"/>
      <path id="Path_15166" data-name="Path 15166" d="M350.212,1621.111a6.133,6.133,0,0,1,5.407,0c2.912,1.415,3.494,1,5.741,0a6.165,6.165,0,0,1,6.157.142" transform="translate(-125.905 -1535.76)" fill="none" stroke="#252f33" stroke-miterlimit="10" stroke-width="0.25"/>
      <path id="Path_15167" data-name="Path 15167" d="M213.962,1625.026s2.911-3.38,8.4-1.107,7.987,1.888,11.565,0,8.652-.643,10.982,1.563" transform="translate(-125.687 -1535.765)" fill="none" stroke="#252f33" stroke-miterlimit="10" stroke-width="0.25"/>
      <path id="Path_15168" data-name="Path 15168" d="M134.545,1586.527a6.452,6.452,0,0,1,7.072-.416c4.243,2.081,9.984-.206,9.984-.206" transform="translate(-125.56 -1535.704)" fill="none" stroke="#252f33" stroke-miterlimit="10" stroke-width="0.25"/>
    </g>
    <g id="Group_3936" data-name="Group 3936" transform="translate(116.221 1490.867)">
      <path id="Path_15169" data-name="Path 15169" d="M155.4,1491.2c-5.417-.078-4.826,6.822-.708,10.32,4.06,3.45,3.12,7.4,5.616,9.481s6.24,5.489,3.994,8.194-5.574-1.621-14.477-.456-12.9,4.66-18.387,5.908-7.488,1.913-8.986,4.825-2,5.491-4.243,8.736-3.578,5.824,1.58,10.067,3.994,4.909,10.566,6.324,3.245,2,14.394,1.164,11.315,6.074,8.486,10.068-4.742,5.907-4.576,12.4,0,8.154-4.077,13.146-3.245,12.9.084,15.891-.084,10.649,8.07,15.308,13.978-6.323,21.049-8.736,11.149-1.165,15.725-3.827,4.243-4.909,8.154-6.573,5.908-.582,11.564-4.825,10.567,1.58,12.564,4.326,5.324.333,10.234,3.162,6.822,2.579,12.064,2,10.316,1.5,13.645-1.165,2-5.657,3.245-10.234-1.082-8.4-5.741-11.315-6.407-7.987-6.656-12.73-4.264-6.635-9.671-9.631-8.413-7.665-4.918-10.244,6.6.9,12.593,1.237,6.4-4.726,3.827-8.4C239.6,1530.134,236.1,1510.5,236.1,1510.5S202.157,1491.861,155.4,1491.2Z" transform="translate(-116.221 -1491.195)" fill="#a5b63d" stroke="#231815" stroke-miterlimit="10" stroke-width="0.25"/>
      <path id="Path_15170" data-name="Path 15170" d="M152.795,1622.6s26.677-71.991,78.609-114.412" transform="translate(-116.28 -1491.223)" fill="none" stroke="#000" stroke-linejoin="round" stroke-width="0.25"/>
      <path id="Path_15171" data-name="Path 15171" d="M116.423,1541.539s25.4,6.674,96.13-15.692" transform="translate(-116.222 -1491.251)" fill="none" stroke="#000" stroke-linejoin="round" stroke-width="0.25"/>
      <path id="Path_15172" data-name="Path 15172" d="M152.795,1491.992s17.857,32.279,59.816,33.8" transform="translate(-116.28 -1491.197)" fill="none" stroke="#000" stroke-linejoin="round" stroke-width="0.25"/>
      <path id="Path_15173" data-name="Path 15173" d="M251.586,1552.025s-21.161-4.137-38.879-26.178" transform="translate(-116.376 -1491.251)" fill="none" stroke="#000" stroke-linejoin="round" stroke-width="0.25"/>
      <path id="Path_15174" data-name="Path 15174" d="M257.889,1606.982s-50.253-23.545-45.183-81.135" transform="translate(-116.375 -1491.251)" fill="none" stroke="#000" stroke-linejoin="round" stroke-width="0.25"/>
    </g>
    <g id="Group_3937" data-name="Group 3937" transform="translate(130.643 1301.421)">
      <path id="Path_15175" data-name="Path 15175" d="M249.355,1327.439c-11.491,2.673-14.227-3.744-41.683,5.99s-69.888,39.353-76.544,99.923,59.856,95.931,125.8,82.867c70.554-13.978,97.843-22.3,112.487-72.883,13.918-48.08-12.508-105.724-56.576-114.192S269.739,1322.7,249.355,1327.439Z" transform="translate(-130.666 -1301.481)" fill="#518937" stroke="#000" stroke-linejoin="round" stroke-width="0.25"/>
      <path id="Path_15176" data-name="Path 15176" d="M223.984,1342.025s-22.068-9.844-47.766,8.889-35.823,39.536-42.242,65.951c0,0,16.335-33.013,32.268-48.715C183.466,1351.177,197.194,1340.361,223.984,1342.025Z" transform="translate(-130.671 -1301.506)" fill="#ddd658" stroke="#000" stroke-linejoin="round" stroke-width="0.25"/>
      <path id="Path_15177" data-name="Path 15177" d="M226.206,1349.946s-41.184,17.971-52.166,58.906,6.49,68.141,14.477,75.13c0,0-17.389-46.26-4.076-77.875S204.241,1366.669,226.206,1349.946Z" transform="translate(-130.73 -1301.523)" fill="#ddd658" stroke="#000" stroke-linejoin="round" stroke-width="0.25"/>
      <path id="Path_15178" data-name="Path 15178" d="M156.447,1403.529c-3.485-2.191-9.319,10.316-9.485,19.635s1.331,10.316.832,16.14,2.483,8.653,3.9,5.491,2.074-6.822,0-15.142-.721-13.6,2.586-18.408S157.175,1403.986,156.447,1403.529Z" transform="translate(-130.692 -1301.609)" fill="#ddd658" stroke="#000" stroke-linejoin="round" stroke-width="0.25"/>
      <path id="Path_15179" data-name="Path 15179" d="M215.445,1369.529c-2.526-.842-2.33,3.994-4.992,7.987s-7.655,11.814-4.992,14.644,3-6.989,8.153-12.314S217.442,1370.195,215.445,1369.529Z" transform="translate(-130.785 -1301.555)" fill="#ddd658" stroke="#000" stroke-linejoin="round" stroke-width="0.25"/>
      <path id="Path_15180" data-name="Path 15180" d="M207.958,1432.862c-2.61-.725-3,6.324-2.5,11.316s0,16.14,3.994,16.14.5-6.49.665-13.728S210.953,1433.695,207.958,1432.862Z" transform="translate(-130.786 -1301.656)" fill="#ddd658" stroke="#000" stroke-linejoin="round" stroke-width="0.25"/>
      <path id="Path_15181" data-name="Path 15181" d="M223.543,1471.321c-2.471-.883-.374,10.608,2.746,10.358S225.29,1471.945,223.543,1471.321Z" transform="translate(-130.813 -1301.718)" fill="#ddd658" stroke="#000" stroke-linejoin="round" stroke-width="0.25"/>
      <path id="Path_15182" data-name="Path 15182" d="M247.772,1356.7s-16.224,19.53-13.978,67.921,13.978,62.62,13.978,62.62-8.877-47.174-6.81-78.374S247.772,1356.7,247.772,1356.7Z" transform="translate(-130.831 -1301.534)" fill="#ddd658" stroke="#000" stroke-linejoin="round" stroke-width="0.25"/>
      <path id="Path_15183" data-name="Path 15183" d="M264.93,1352.7s23.328,5.491,35.308,34.2l-10.483,2.746S286.281,1369.669,264.93,1352.7Z" transform="translate(-130.881 -1301.528)" fill="#ddd658" stroke="#000" stroke-linejoin="round" stroke-width="0.25"/>
      <path id="Path_15184" data-name="Path 15184" d="M278.545,1344.7s31.949-4.77,59.4,24.7l-4.493,10.5S318.481,1351.185,278.545,1344.7Z" transform="translate(-130.903 -1301.515)" fill="#ddd658" stroke="#000" stroke-linejoin="round" stroke-width="0.25"/>
      <path id="Path_15185" data-name="Path 15185" d="M282.613,1332.437a37.851,37.851,0,0,1,16.917-5.81s10.34,1.871,12.936,2.405C312.466,1329.032,293.662,1327.944,282.613,1332.437Z" transform="translate(-130.909 -1301.486)" fill="#ddd658" stroke="#000" stroke-linejoin="round" stroke-width="0.25"/>
      <path id="Path_15186" data-name="Path 15186" d="M302.627,1359.362c2.188-.61,3.828.749,5.658,3.828s1.248,5.407,0,5.242S299.049,1360.36,302.627,1359.362Z" transform="translate(-130.94 -1301.538)" fill="#ddd658" stroke="#000" stroke-linejoin="round" stroke-width="0.25"/>
      <path id="Path_15187" data-name="Path 15187" d="M273.792,1398.862c2.26.565,6.157,8.986,5.658,20.135s-.788,15.974-2.806,15.642-.855-5.99-2.851-8.486,1.664-4.992,0-14.644S270.464,1398.03,273.792,1398.862Z" transform="translate(-130.892 -1301.601)" fill="#ddd658" stroke="#000" stroke-linejoin="round" stroke-width="0.25"/>
      <path id="Path_15188" data-name="Path 15188" d="M254.96,1452.2c1.465.353,1.248,4.243,2.162,7.571s-.582,5.824-2.162,4.326S252.546,1451.613,254.96,1452.2Z" transform="translate(-130.863 -1301.687)" fill="#ddd658" stroke="#000" stroke-linejoin="round" stroke-width="0.25"/>
      <path id="Path_15189" data-name="Path 15189" d="M267.362,1341.263c2.744-2.439,5-19.8-3.925-36.172l-32.35,10.806s3.078,7.52,2.7,12.886-.125,9.11-1.248,12.48,4.867,1.872,10.608,3.619,10.483,4.243,16.848,1S265.115,1343.26,267.362,1341.263Z" transform="translate(-130.827 -1301.452)" fill="#ffae2c" stroke="#000" stroke-linejoin="round" stroke-width="0.25"/>
      <path id="Path_15190" data-name="Path 15190" d="M259.212,1314.779s5.657,12.9,3,25.292" transform="translate(-130.872 -1301.467)" fill="none" stroke="#252f33" stroke-miterlimit="10" stroke-width="0.25"/>
      <path id="Path_15191" data-name="Path 15191" d="M264.128,1319.7a25.588,25.588,0,0,1,1.5,11.731" transform="translate(-130.88 -1301.475)" fill="none" stroke="#252f33" stroke-miterlimit="10" stroke-width="0.25"/>
      <path id="Path_15192" data-name="Path 15192" d="M253.128,1320.779s3.162,6.323,2.081,16.723" transform="translate(-130.862 -1301.477)" fill="none" stroke="#252f33" stroke-miterlimit="10" stroke-width="0.25"/>
      <path id="Path_15193" data-name="Path 15193" d="M243.628,1320.779a44.53,44.53,0,0,1,2.33,21.216" transform="translate(-130.847 -1301.477)" fill="none" stroke="#252f33" stroke-miterlimit="10" stroke-width="0.25"/>
      <path id="Path_15194" data-name="Path 15194" d="M239.7,1324.362a28.238,28.238,0,0,1,1.1,11.981" transform="translate(-130.841 -1301.482)" fill="none" stroke="#252f33" stroke-miterlimit="10" stroke-width="0.25"/>
      <path id="Path_15195" data-name="Path 15195" d="M231.128,1314.508c2.471-5.706,5.491-4.326,12.48-8.819s16.474-5.99,19.3-1.664-3.139,7.085-11.981,9.152c-6.407,1.5-7.53,4.118-12.148,4.368S230.021,1317.064,231.128,1314.508Z" transform="translate(-130.827 -1301.446)" fill="#a5b63d" stroke="#231815" stroke-miterlimit="10" stroke-width="0.25"/>
    </g>
    <path id="Path_15196" data-name="Path 15196" d="M302.462,1286.528s8.819-2.5,11.148,3.827-1.164,14.6-5.574,14.705,3.744-9.547,8.9-6.884-3.744,16.973-7.738,15.142,7.208-10.982,9.3-7.821.182,8.653-3.9,10.317,5.159-10.15,7.821-6.24-.583,11.565-4.243,12.9,1.58-8.486,6.406-6.323-4.409,10.483-8.9,17.555-1.082,16.556,10.982,15.558,13.478,2.663,12.646,9.069,5.575,8.237,5.575,8.237" transform="translate(-0.298)" fill="none" stroke="#252f33" stroke-miterlimit="10" stroke-width="0.25"/>
    <g id="Group_3938" data-name="Group 3938" transform="translate(273.58 1331.614)">
      <path id="Path_15197" data-name="Path 15197" d="M371.888,1331.792c-5.757-.917-5.741,4.4-9.568,7.059s-10.317,5.99-13.812,14.976-11.482,6.34-15.308,14.569,1.248,14.8-5.824,17.214-6.739.166-10.4-.749-4.41,1.663-10.316-.583-6.656-5.99-14.561-3.994-10.566,2.829-11.564,6.407,1.081,6.323,4.243,8.9,5.075,8.986,3.162,14.06.582,11.648,3.994,15.642,4.076,3.577,4.159,8.736,2.413,7.82-.832,10.733-5.324.582-8.569,2.329-4.077,5.658-8.736,8.486-4.826,7.655-3.162,11.4,9.068,1.414,14.06,5.491,6.781,10.982,17.14,11.357,17.6-5.491,29.078-4.493,33.571,7.779,54.205-.042,26.458-10.316,30.451-13.978,13.811-1.456,15.059-5.824.5-9.859-3.619-13.1-5.117-7.114-9.485-9.235-9.859-.374-10.982-3.12,1.747-3.994,2.5-9.11,2.621-8.112,6.739-11.981,1.622-6.552,3.682-9.672,4.243-7.051,3.869-11.606,7.488-5.927,4.929-11.543-9.734-5.866-13.229-5.928-5.99-2.371-9.61-1.747-8.486,6.3-12.48,4.68-2.371-4.118-6.552-6.739.062-9.8-3.058-16.224-4.741-5.742-7.362-9.548C376.936,1339.98,378.149,1332.79,371.888,1331.792Z" transform="translate(-273.832 -1331.687)" fill="#a5b63d" stroke="#231815" stroke-miterlimit="10" stroke-width="0.25"/>
      <path id="Path_15198" data-name="Path 15198" d="M372,1331.792s-31.277,75.463-28.243,148.755" transform="translate(-273.944 -1331.687)" fill="none" stroke="#000" stroke-linejoin="round" stroke-width="0.25"/>
      <path id="Path_15199" data-name="Path 15199" d="M344.207,1450.106c-13.131-37.593-63.662-63.327-63.662-63.327" transform="translate(-273.843 -1331.775)" fill="none" stroke="#000" stroke-linejoin="round" stroke-width="0.25"/>
      <path id="Path_15200" data-name="Path 15200" d="M274.131,1465.208s41.189-26.474,70.066-15" transform="translate(-273.833 -1331.872)" fill="none" stroke="#000" stroke-linejoin="round" stroke-width="0.25"/>
      <path id="Path_15201" data-name="Path 15201" d="M432.529,1380.2s-60.661,20.987-88.22,69.9" transform="translate(-273.945 -1331.764)" fill="none" stroke="#000" stroke-linejoin="round" stroke-width="0.25"/>
      <path id="Path_15202" data-name="Path 15202" d="M434.9,1459.672s-23.82-25.389-90.591-9.473" transform="translate(-273.945 -1331.868)" fill="none" stroke="#000" stroke-linejoin="round" stroke-width="0.25"/>
    </g>
    <path id="Path_15203" data-name="Path 15203" d="M168.545,1550.062s.874-5.616,7.363-5.616,7.751,6.3,7.862,12.355-7.987,6.365-5.408,2.7,10.234-3.891,11.565,2.381.25,18,8.153,20.665,13.146-6.989,11.9-9.568-4.742,2-1.83,6.906,8.112,1.622,7.862-2.122-2.663-3.536-2.205-.125,2.081,6.281,4.742,5.7,4.243-4.742,3.412-7.238-3.452-1.581-2.663,2.163,4.66,5.616,9.465,2,12.186-7.862,22.754-3.744,21.612,1.373,25.606-8.861" transform="translate(-0.084 -0.414)" fill="none" stroke="#252f33" stroke-miterlimit="10" stroke-width="0.25"/>
    <g id="Group_3942" data-name="Group 3942" transform="translate(231.907 1402.01)">
      <path id="Path_15204" data-name="Path 15204" d="M256.983,1485.778c-.382-3.023,11.674,3.569,21.052,2.44s21.524,5.858,29.012,2.863,27.085-23.375,31.783-25.916,9.651-18.345,13.145-22.339,1.664-11.315,3.494-14.31,1.594-6.55,2.829-8.32,10.283,9.318,15.042,23.462,16.74,61.4-25.193,83.741S260.412,1512.922,256.983,1485.778Z" transform="translate(-232.132 -1402.225)" fill="#f98435" stroke="#000" stroke-linejoin="round" stroke-width="0.25"/>
      <g id="Group_3939" data-name="Group 3939" transform="translate(32.915 27.907)">
        <path id="Path_15205" data-name="Path 15205" d="M324.29,1497.7c4.015-.861,9.235,6.614,12.355,17.222s2.122,19.843-1.373,20.592-8.736-6.365-11.981-16.973S320.8,1498.445,324.29,1497.7Z" transform="translate(-265.151 -1430.255)" fill="#ffc064" stroke="#000" stroke-linejoin="round" stroke-width="0.25"/>
        <path id="Path_15206" data-name="Path 15206" d="M330.693,1489.214c3.88-1.342,9.971,5.442,14.358,15.593s4.518,19.438,1.14,20.606-9.445-5.255-13.956-15.39S327.316,1490.382,330.693,1489.214Z" transform="translate(-265.162 -1430.242)" fill="#ffc064" stroke="#000" stroke-linejoin="round" stroke-width="0.25"/>
        <path id="Path_15207" data-name="Path 15207" d="M336.281,1487.147c2.942-1.92,9.41,2.447,15.161,9.962s7.791,15.2,5.23,16.872-8.934-2.4-14.785-9.878S333.72,1488.819,336.281,1487.147Z" transform="translate(-265.173 -1430.238)" fill="#ffc064" stroke="#000" stroke-linejoin="round" stroke-width="0.25"/>
        <path id="Path_15208" data-name="Path 15208" d="M314.068,1483.515c3.886.007,7.221,7.965,7.987,18.4s-2,18.781-5.387,18.775-6.809-7.635-7.69-18.1S310.686,1483.509,314.068,1483.515Z" transform="translate(-265.131 -1430.233)" fill="#ffc064" stroke="#000" stroke-linejoin="round" stroke-width="0.25"/>
        <path id="Path_15209" data-name="Path 15209" d="M320.014,1502.092c3.868.364,6.458,8.6,6.26,19.058s-3.722,18.516-7.09,18.2-6.078-8.229-5.993-18.727S316.646,1501.776,320.014,1502.092Z" transform="translate(-265.138 -1430.263)" fill="#ffc064" stroke="#000" stroke-linejoin="round" stroke-width="0.25"/>
        <path id="Path_15210" data-name="Path 15210" d="M306.9,1498.055c3.885-.088,7.412,7.787,8.43,18.2s-1.549,18.824-4.93,18.9-6.992-7.467-8.126-17.9S303.523,1498.131,306.9,1498.055Z" transform="translate(-265.12 -1430.256)" fill="#ffc064" stroke="#000" stroke-linejoin="round" stroke-width="0.25"/>
        <path id="Path_15211" data-name="Path 15211" d="M288.53,1487.732c3.855-.484,8.17,6.988,10.249,17.244s.386,18.883-2.97,19.3-7.72-6.712-9.916-16.979S285.174,1488.153,288.53,1487.732Z" transform="translate(-265.093 -1430.24)" fill="#ffc064" stroke="#000" stroke-linejoin="round" stroke-width="0.25"/>
        <path id="Path_15212" data-name="Path 15212" d="M302.691,1486.732c3.484.7,5.051,8.44,3.866,17.941s-5.166,16.49-8.2,15.877-4.739-8.07-3.654-17.614S299.658,1486.12,302.691,1486.732Z" transform="translate(-265.108 -1430.238)" fill="#ffc064" stroke="#000" stroke-linejoin="round" stroke-width="0.25"/>
        <path id="Path_15213" data-name="Path 15213" d="M279.993,1478.667c2.5,1.62,1.334,8.129-2.515,15.164s-9.1,11.251-11.275,9.84-1.206-7.745,2.579-14.843S277.82,1477.256,279.993,1478.667Z" transform="translate(-265.061 -1430.225)" fill="#ffc064" stroke="#000" stroke-linejoin="round" stroke-width="0.25"/>
        <path id="Path_15214" data-name="Path 15214" d="M282.523,1484.809c3.107.948,3.847,8.124,1.928,16.661s-6.158,14.542-8.864,13.717-3.6-7.76-1.764-16.345S279.819,1483.983,282.523,1484.809Z" transform="translate(-265.073 -1430.235)" fill="#ffc064" stroke="#000" stroke-linejoin="round" stroke-width="0.25"/>
        <path id="Path_15215" data-name="Path 15215" d="M298.247,1476.006c2.681.572,3.821,6.551,2.826,13.865s-4.125,12.668-6.459,12.17-3.584-6.262-2.665-13.61S295.914,1475.508,298.247,1476.006Z" transform="translate(-265.103 -1430.221)" fill="#ffc064" stroke="#000" stroke-linejoin="round" stroke-width="0.25"/>
        <path id="Path_15216" data-name="Path 15216" d="M308.206,1478.041c2.737.146,4.8,5.872,4.96,13.252s-2.092,13.157-4.475,13.031-4.52-5.625-4.761-13.026S305.823,1477.914,308.206,1478.041Z" transform="translate(-265.123 -1430.224)" fill="#ffc064" stroke="#000" stroke-linejoin="round" stroke-width="0.25"/>
        <path id="Path_15217" data-name="Path 15217" d="M316.645,1473.455c3.052-1.04,7.813,4.31,11.224,12.3s3.482,15.285.826,16.191-7.4-4.161-10.91-12.137S313.988,1474.361,316.645,1473.455Z" transform="translate(-265.141 -1430.216)" fill="#ffc064" stroke="#000" stroke-linejoin="round" stroke-width="0.25"/>
        <path id="Path_15218" data-name="Path 15218" d="M343.586,1483.342c2.6-1.913,8.749,1.751,14.411,8.339s7.93,13.521,5.671,15.187-8.312-1.734-14.062-8.281S341.325,1485.007,343.586,1483.342Z" transform="translate(-265.185 -1430.232)" fill="#ffc064" stroke="#000" stroke-linejoin="round" stroke-width="0.25"/>
        <path id="Path_15219" data-name="Path 15219" d="M330.249,1473.466c2.382-2.173,8.884.831,15.2,6.793s9.3,12.622,7.221,14.514-8.446-.86-14.848-6.772S328.174,1475.358,330.249,1473.466Z" transform="translate(-265.164 -1430.216)" fill="#ffc064" stroke="#000" stroke-linejoin="round" stroke-width="0.25"/>
        <path id="Path_15220" data-name="Path 15220" d="M321.712,1466.425c3.419-1.653,9.751,3.919,14.883,12.768s6.26,17.37,3.284,18.81-9.248-3.8-14.492-12.627S318.735,1467.864,321.712,1466.425Z" transform="translate(-265.149 -1430.205)" fill="#ffc064" stroke="#000" stroke-linejoin="round" stroke-width="0.25"/>
        <path id="Path_15221" data-name="Path 15221" d="M352.309,1481.559c2.242-2.369,9.025.179,15.841,5.725s10.315,12.045,8.364,14.107-8.586-.24-15.483-5.73S350.356,1483.62,352.309,1481.559Z" transform="translate(-265.2 -1430.228)" fill="#ffc064" stroke="#000" stroke-linejoin="round" stroke-width="0.25"/>
        <path id="Path_15222" data-name="Path 15222" d="M333.015,1464.365c2.242-2.369,9.026.179,15.841,5.725s10.316,12.045,8.364,14.107-8.586-.24-15.483-5.73S331.062,1466.428,333.015,1464.365Z" transform="translate(-265.169 -1430.201)" fill="#ffc064" stroke="#000" stroke-linejoin="round" stroke-width="0.25"/>
        <path id="Path_15223" data-name="Path 15223" d="M355.192,1471.839c2.461-2.141,8.966,1.052,15.213,7.231s9.1,12.987,6.959,14.851-8.522-1.07-14.856-7.2S353.049,1473.7,355.192,1471.839Z" transform="translate(-265.204 -1430.213)" fill="#ffc064" stroke="#000" stroke-linejoin="round" stroke-width="0.25"/>
        <path id="Path_15224" data-name="Path 15224" d="M350.88,1454.919c1.238-3.018,8.483-3.087,16.84-.371s13.965,7.516,12.887,10.144-8.1,2.871-16.509.238S349.8,1457.547,350.88,1454.919Z" transform="translate(-265.198 -1430.183)" fill="#ffc064" stroke="#000" stroke-linejoin="round" stroke-width="0.25"/>
        <path id="Path_15225" data-name="Path 15225" d="M346.183,1470.512c.628-2.993,7.294-4.289,15.458-3.208s14.151,4.551,13.605,7.156-6.973,4.025-15.176,3.029S345.637,1473.117,346.183,1470.512Z" transform="translate(-265.191 -1430.206)" fill="#ffc064" stroke="#000" stroke-linejoin="round" stroke-width="0.25"/>
        <path id="Path_15226" data-name="Path 15226" d="M349.245,1453.456c-.055-2.843,5.719-5.407,13.346-6.127s13.777,1.179,13.824,3.654-5.483,5.1-13.127,5.907S349.292,1455.932,349.245,1453.456Z" transform="translate(-265.196 -1430.174)" fill="#ffc064" stroke="#000" stroke-linejoin="round" stroke-width="0.25"/>
        <path id="Path_15227" data-name="Path 15227" d="M327.929,1458.42c-.055-2.844,5.719-5.407,13.346-6.127s13.777,1.179,13.825,3.654-5.483,5.1-13.127,5.907S327.976,1460.9,327.929,1458.42Z" transform="translate(-265.162 -1430.182)" fill="#ffc064" stroke="#000" stroke-linejoin="round" stroke-width="0.25"/>
        <path id="Path_15228" data-name="Path 15228" d="M357.807,1446.193c-.268-2.662,4.949-5.505,12.045-6.761s13,.055,13.238,2.372-4.752,5.2-11.856,6.536S358.041,1448.511,357.807,1446.193Z" transform="translate(-265.209 -1430.161)" fill="#ffc064" stroke="#000" stroke-linejoin="round" stroke-width="0.25"/>
        <path id="Path_15229" data-name="Path 15229" d="M351.273,1438.585c-.311-3.1,5.763-6.409,14.023-7.871s15.141.065,15.412,2.763-5.532,6.053-13.8,7.611S351.545,1441.284,351.273,1438.585Z" transform="translate(-265.199 -1430.147)" fill="#ffc064" stroke="#000" stroke-linejoin="round" stroke-width="0.25"/>
        <path id="Path_15230" data-name="Path 15230" d="M338.734,1448.494c-.288-2.866,5.33-5.928,12.971-7.281s14,.06,14.256,2.556-5.117,5.6-12.768,7.039S338.986,1450.989,338.734,1448.494Z" transform="translate(-265.179 -1430.164)" fill="#ffc064" stroke="#000" stroke-linejoin="round" stroke-width="0.25"/>
        <path id="Path_15231" data-name="Path 15231" d="M337.169,1461.616c.627-2.993,7.293-4.289,15.458-3.209s14.15,4.552,13.6,7.157-6.972,4.025-15.175,3.029S336.623,1464.221,337.169,1461.616Z" transform="translate(-265.176 -1430.192)" fill="#ffc064" stroke="#000" stroke-linejoin="round" stroke-width="0.25"/>
        <path id="Path_15232" data-name="Path 15232" d="M360.772,1466.012c.627-2.993,7.293-4.289,15.458-3.208s14.15,4.551,13.605,7.156-6.973,4.025-15.176,3.029S360.226,1468.617,360.772,1466.012Z" transform="translate(-265.214 -1430.199)" fill="#ffc064" stroke="#000" stroke-linejoin="round" stroke-width="0.25"/>
      </g>
      <g id="Group_3941" data-name="Group 3941" transform="translate(0)">
        <path id="Path_15233" data-name="Path 15233" d="M232.177,1498.7s-6.372,90.355,91.721,75.379C323.9,1574.075,260.5,1566.371,232.177,1498.7Z" transform="translate(-232.093 -1402.351)" fill="#518937" stroke="#000" stroke-linejoin="round" stroke-width="0.25"/>
        <g id="Group_3940" data-name="Group 3940" transform="translate(0.084)">
          <path id="Path_15234" data-name="Path 15234" d="M232.177,1498.542s11.849-4.057,14.22-6.115,8.986-6.989,10.546-6.677,8.673,8.8,12.167,14.851,12.979,7.052,17.1,11.544,5.866,9.485,9.734,11.606,6.155-.007,10.4,1.913c3.494,1.581,3.744,4.909,7.987,4.992s8.486-2.828,13.312-1.83,7.516,2.52,11.065-.749c3.162-2.912,4.742-5.408,10.982-7.821s4.909-11.731,11.4-14.061,7.9-9.318,7.156-13.894,5.54-10.109,5.058-16.224-2.312-10.4-.565-15.226-.791-9.73-3.536-13.6.374-7.864-1.789-12.773-10.234-11.232-9.151-14.31,7.82-5.658,11.814-8.986,9.485-3.994,14.477-8.986c0,0,31.949,36.607,21.3,92.185s-46.259,75.546-81.952,79.539S239.8,1535.482,232.177,1498.542Z" transform="translate(-232.177 -1402.196)" fill="#ffae2c" stroke="#000" stroke-linejoin="round" stroke-width="0.25"/>
          <path id="Path_15235" data-name="Path 15235" d="M270.415,1527.571a13.567,13.567,0,0,1-3.12,3.245" transform="translate(-232.233 -1402.397)" fill="none" stroke="#252f33" stroke-miterlimit="10" stroke-width="0.25"/>
          <path id="Path_15236" data-name="Path 15236" d="M296.54,1538.957s0,8.093-3,13.089" transform="translate(-232.275 -1402.415)" fill="none" stroke="#252f33" stroke-miterlimit="10" stroke-width="0.25"/>
          <path id="Path_15237" data-name="Path 15237" d="M303.669,1548.071s.125,4.618-.749,6.864" transform="translate(-232.29 -1402.43)" fill="none" stroke="#252f33" stroke-miterlimit="10" stroke-width="0.25"/>
          <path id="Path_15238" data-name="Path 15238" d="M337.3,1546.446s5.117,9.36,4.368,14.976" transform="translate(-232.345 -1402.427)" fill="none" stroke="#252f33" stroke-miterlimit="10" stroke-width="0.25"/>
          <path id="Path_15239" data-name="Path 15239" d="M353.42,1544.446a12.541,12.541,0,0,1,2.621,5.117" transform="translate(-232.371 -1402.424)" fill="none" stroke="#252f33" stroke-miterlimit="10" stroke-width="0.25"/>
          <path id="Path_15240" data-name="Path 15240" d="M372.42,1519.236s5.366,4.328,6.739,8.571" transform="translate(-232.402 -1402.383)" fill="none" stroke="#252f33" stroke-miterlimit="10" stroke-width="0.25"/>
          <path id="Path_15241" data-name="Path 15241" d="M377.17,1521.446a17.737,17.737,0,0,1,3.619,4.867" transform="translate(-232.409 -1402.387)" fill="none" stroke="#252f33" stroke-miterlimit="10" stroke-width="0.25"/>
          <path id="Path_15242" data-name="Path 15242" d="M382.3,1488.327s8.611.244,12.355,3.488" transform="translate(-232.417 -1402.334)" fill="none" stroke="#252f33" stroke-miterlimit="10" stroke-width="0.25"/>
          <path id="Path_15243" data-name="Path 15243" d="M388.483,1486.7a12.891,12.891,0,0,1,5.054,1.628" transform="translate(-232.427 -1402.331)" fill="none" stroke="#252f33" stroke-miterlimit="10" stroke-width="0.25"/>
          <path id="Path_15244" data-name="Path 15244" d="M385.67,1460.444s4.243-1.373,7.363-.749" transform="translate(-232.423 -1402.288)" fill="none" stroke="#252f33" stroke-miterlimit="10" stroke-width="0.25"/>
          <path id="Path_15245" data-name="Path 15245" d="M385.67,1448.195a16.231,16.231,0,0,0,5.335-.872" transform="translate(-232.423 -1402.268)" fill="none" stroke="#252f33" stroke-miterlimit="10" stroke-width="0.25"/>
        </g>
      </g>
    </g>
    <g id="Group_3943" data-name="Group 3943" transform="translate(133.034 1371.916)">
      <path id="Path_15246" data-name="Path 15246" d="M348.787,1372.258c-1.867-1.276-6.3,3.744-4.68,6.178S352.531,1374.817,348.787,1372.258Z" transform="translate(-133.398 -1372.053)" fill="#dffffa" stroke="#231815" stroke-miterlimit="10" stroke-width="0.25"/>
      <path id="Path_15247" data-name="Path 15247" d="M338.038,1386.361c1.309,1.169-1,5.408-3.661,3.744S335.708,1384.281,338.038,1386.361Z" transform="translate(-133.382 -1372.075)" fill="#dffffa" stroke="#231815" stroke-miterlimit="10" stroke-width="0.25"/>
      <ellipse id="Ellipse_2727" data-name="Ellipse 2727" cx="3.494" cy="2.235" rx="3.494" ry="2.235" transform="matrix(0.934, -0.356, 0.356, 0.934, 0, 158.78)" fill="#dffffa" stroke="#231815" stroke-miterlimit="10" stroke-width="0.25"/>
      <ellipse id="Ellipse_2728" data-name="Ellipse 2728" cx="3.798" cy="1.916" rx="3.798" ry="1.916" transform="translate(14.241 160.227) rotate(-9.626)" fill="#dffffa" stroke="#231815" stroke-miterlimit="10" stroke-width="0.25"/>
      <ellipse id="Ellipse_2729" data-name="Ellipse 2729" cx="2.751" cy="1.81" rx="2.751" ry="1.81" transform="translate(46.654 228.702) rotate(-45)" fill="#dffffa" stroke="#231815" stroke-miterlimit="10" stroke-width="0.25"/>
    </g>
  </g>
</svg>
