<svg xmlns="http://www.w3.org/2000/svg" width="306.877" height="363.159" viewBox="0 0 306.877 363.159">
  <g id="Group_3838" data-name="Group 3838" transform="translate(-2806.482 -1276.737)">
    <g id="Group_3825" data-name="Group 3825">
      <ellipse id="Ellipse_2587" data-name="Ellipse 2587" cx="2.625" cy="1.323" rx="2.625" ry="1.323" transform="translate(2832.308 1532.812)" fill="#ecb36f" stroke="#000" stroke-linejoin="round" stroke-width="0.25"/>
      <ellipse id="Ellipse_2588" data-name="Ellipse 2588" cx="4.688" cy="1.594" rx="4.688" ry="1.594" transform="translate(2818.933 1543.301)" fill="#ecb36f" stroke="#000" stroke-linejoin="round" stroke-width="0.25"/>
      <ellipse id="Ellipse_2589" data-name="Ellipse 2589" cx="3.438" cy="1.938" rx="3.438" ry="1.938" transform="translate(2845.808 1588.488)" fill="#c19165" stroke="#000" stroke-linejoin="round" stroke-width="0.25"/>
      <ellipse id="Ellipse_2590" data-name="Ellipse 2590" cx="4" cy="2.438" rx="4" ry="2.438" transform="translate(2857.058 1593.363)" fill="#ecb36f" stroke="#000" stroke-linejoin="round" stroke-width="0.25"/>
      <ellipse id="Ellipse_2591" data-name="Ellipse 2591" cx="3.125" cy="1.875" rx="3.125" ry="1.875" transform="translate(2881.433 1619.363)" fill="#c19165" stroke="#000" stroke-linejoin="round" stroke-width="0.25"/>
      <ellipse id="Ellipse_2592" data-name="Ellipse 2592" cx="4.164" cy="2.24" rx="4.164" ry="2.24" transform="translate(2968.105 1607.363)" fill="#c19165" stroke="#000" stroke-linejoin="round" stroke-width="0.25"/>
      <ellipse id="Ellipse_2593" data-name="Ellipse 2593" cx="2.75" cy="1.375" rx="2.75" ry="1.375" transform="translate(3035.308 1574.988)" fill="#ecb36f" stroke="#000" stroke-linejoin="round" stroke-width="0.25"/>
      <ellipse id="Ellipse_2594" data-name="Ellipse 2594" cx="2.5" cy="1.75" rx="2.5" ry="1.75" transform="translate(3070.308 1610.613)" fill="#c19165" stroke="#000" stroke-linejoin="round" stroke-width="0.25"/>
      <ellipse id="Ellipse_2595" data-name="Ellipse 2595" cx="3.125" cy="1.625" rx="3.125" ry="1.625" transform="translate(3077.933 1616.488)" fill="#ecb36f" stroke="#000" stroke-linejoin="round" stroke-width="0.25"/>
      <ellipse id="Ellipse_2596" data-name="Ellipse 2596" cx="4.125" cy="1.938" rx="4.125" ry="1.938" transform="translate(3089.308 1557.238)" fill="#c19165" stroke="#000" stroke-linejoin="round" stroke-width="0.25"/>
      <ellipse id="Ellipse_2597" data-name="Ellipse 2597" cx="1.875" cy="1.063" rx="1.875" ry="1.063" transform="translate(3084.933 1552.363)" fill="#ecb36f" stroke="#000" stroke-linejoin="round" stroke-width="0.25"/>
      <ellipse id="Ellipse_2598" data-name="Ellipse 2598" cx="3.5" cy="1.188" rx="3.5" ry="1.188" transform="translate(3088.683 1536.363)" fill="#ecb36f" stroke="#000" stroke-linejoin="round" stroke-width="0.25"/>
      <path id="Path_14134" data-name="Path 14134" d="M3086.683,1532.363s5.958-2.291,10.541.625,8.5-2.75,16.084.667" fill="none" stroke="#000" stroke-miterlimit="10" stroke-width="0.25"/>
      <path id="Path_14135" data-name="Path 14135" d="M3048.12,1568.634a15.984,15.984,0,0,1,10.021,0c5,1.854,4.5-.812,9.167,1.188s7.25-1.834,11.625.666" fill="none" stroke="#000" stroke-miterlimit="10" stroke-width="0.25"/>
      <path id="Path_14136" data-name="Path 14136" d="M3074.433,1565.488a12.237,12.237,0,0,1,8.125,1.5c3.75,2.375,8.25-3.25,13.125,0" fill="none" stroke="#000" stroke-miterlimit="10" stroke-width="0.25"/>
      <path id="Path_14137" data-name="Path 14137" d="M2994.933,1590.488a13.567,13.567,0,0,1,12.5-.875c6.875,3,10.625-3,19,.875s14.25-3.75,21.687.875" fill="none" stroke="#000" stroke-miterlimit="10" stroke-width="0.25"/>
      <path id="Path_14138" data-name="Path 14138" d="M2937.808,1620.238s7.166-3.083,12.083,0,15.333-4,21,0" fill="none" stroke="#000" stroke-miterlimit="10" stroke-width="0.25"/>
      <path id="Path_14139" data-name="Path 14139" d="M2913.391,1638.572a13.7,13.7,0,0,1,11.25.5c5.833,3,8.333-3.5,15.5,0" fill="none" stroke="#000" stroke-miterlimit="10" stroke-width="0.25"/>
      <path id="Path_14140" data-name="Path 14140" d="M2848.891,1606.988s2.917-3,8.167,0,7.166-3.333,14.083-.666,8.75-3.347,16.542,1.493" fill="none" stroke="#000" stroke-miterlimit="10" stroke-width="0.25"/>
      <path id="Path_14141" data-name="Path 14141" d="M2876.808,1598.905s8.666-3.25,13.583,0,11.914-3.277,17.167-.722" fill="none" stroke="#000" stroke-miterlimit="10" stroke-width="0.25"/>
      <path id="Path_14142" data-name="Path 14142" d="M2815.641,1555.072s6.5-3.834,12.333,0,10.084-4,16.25,0" fill="none" stroke="#000" stroke-miterlimit="10" stroke-width="0.25"/>
      <path id="Path_14143" data-name="Path 14143" d="M2833.558,1548.145a6.315,6.315,0,0,1,5.583-.5c2.917,1.26,5.167-1.511,8.083,0" fill="none" stroke="#000" stroke-miterlimit="10" stroke-width="0.25"/>
    </g>
    <g id="Group_3826" data-name="Group 3826">
      <path id="Path_14144" data-name="Path 14144" d="M2902.466,1605.405c-1.332-.823,1.175-4,1.175-4s-3.833-1.417.833-4.583c0,0-3.958-2.667,2.459-5.25,0,0-2.875-3.25,5.375-5.709,0,0-3.334-2.365,4.416-5.2,0,0-2.166-1.422,2.25-4.13,0,0-2.333-.958,2.042-3.25,0,0,12.958-30.292,27.292-38.542s25.958-7.333,25.958-7.333l23.708,4.458s5.792,25.584-.458,21c0,0,.458,8-2.583,4.5,0,0-.042,8.042-3.959,5.417,0,0-3,10.5-5.916,6.458,0,0-2,11.125-4.959,5.75,0,0-4.666,9.209-6.5,3.959,0,0-4.416,9.958-7.041,4.875,0,0-4.167,7.25-5.042,1.791,0,0-5.25,6.459-6.25,1.917,0,0-5.042,6.083-6.375,1.5,0,0-6.042,6.625-7.125,1.667,0,0-4.583,6-5.917,2.083,0,0-5.625,6.375-6.166,2.042,0,0-6.667,6.708-7.292,2.208,0,0-6.5,5.792-6.625,1.417,0,0-6,5.416-6.042,2.333C2909.724,1600.78,2904.625,1606.738,2902.466,1605.405Z" fill="#ddd658" stroke="#000" stroke-linejoin="round" stroke-width="0.25"/>
      <path id="Path_14145" data-name="Path 14145" d="M2902.466,1605.405a150.663,150.663,0,0,1,42.675-38.918c27.333-16.5,28.667-29.249,52.833-34.624" fill="none" stroke="#000" stroke-miterlimit="10" stroke-width="0.25"/>
      <path id="Path_14146" data-name="Path 14146" d="M2917.6,1594.03s3.541-4.907,2.708-8.62" fill="none" stroke="#000" stroke-miterlimit="10" stroke-width="0.25"/>
      <path id="Path_14147" data-name="Path 14147" d="M2912.474,1590.072s3.917-4.662,7.833-4.662" fill="none" stroke="#000" stroke-miterlimit="10" stroke-width="0.25"/>
      <path id="Path_14148" data-name="Path 14148" d="M2928.141,1590.572s4.037-8.942,2.539-14.075" fill="none" stroke="#000" stroke-miterlimit="10" stroke-width="0.25"/>
      <path id="Path_14149" data-name="Path 14149" d="M2920.1,1581.2s6.625-5.635,10.581-4.7" fill="none" stroke="#000" stroke-miterlimit="10" stroke-width="0.25"/>
      <path id="Path_14150" data-name="Path 14150" d="M2926.266,1571.822a25.664,25.664,0,0,1,13.817-2.129" fill="none" stroke="#000" stroke-miterlimit="10" stroke-width="0.25"/>
      <path id="Path_14151" data-name="Path 14151" d="M2936.558,1585.41s4.519-10.476,3.525-15.717" fill="none" stroke="#000" stroke-miterlimit="10" stroke-width="0.25"/>
      <path id="Path_14152" data-name="Path 14152" d="M2945.266,1583.534a50.828,50.828,0,0,0,3.707-19.442" fill="none" stroke="#000" stroke-miterlimit="10" stroke-width="0.25"/>
      <path id="Path_14153" data-name="Path 14153" d="M2935.474,1560.655s10.845-.566,13.5,3.437" fill="none" stroke="#000" stroke-miterlimit="10" stroke-width="0.25"/>
      <path id="Path_14154" data-name="Path 14154" d="M2941.933,1553.155s9.688-.766,17.094,3.742" fill="none" stroke="#000" stroke-miterlimit="10" stroke-width="0.25"/>
      <path id="Path_14155" data-name="Path 14155" d="M2953.808,1579.988s7.333-11.916,5.219-23.091" fill="none" stroke="#000" stroke-miterlimit="10" stroke-width="0.25"/>
      <path id="Path_14156" data-name="Path 14156" d="M2948.976,1546.988s11.905-3.242,19.493,1.837" fill="none" stroke="#000" stroke-miterlimit="10" stroke-width="0.25"/>
      <path id="Path_14157" data-name="Path 14157" d="M2962.141,1576.392s9.25-14.032,6.328-27.567" fill="none" stroke="#000" stroke-miterlimit="10" stroke-width="0.25"/>
      <path id="Path_14158" data-name="Path 14158" d="M2955.058,1539.572s13.667-3.3,21.792,2.018" fill="none" stroke="#000" stroke-miterlimit="10" stroke-width="0.25"/>
      <path id="Path_14159" data-name="Path 14159" d="M2973.141,1568.634s8.5-9.4,3.709-27.044" fill="none" stroke="#000" stroke-miterlimit="10" stroke-width="0.25"/>
      <path id="Path_14160" data-name="Path 14160" d="M2964.724,1533.572s14.134-3.764,26.651.118" fill="none" stroke="#000" stroke-miterlimit="10" stroke-width="0.25"/>
      <path id="Path_14161" data-name="Path 14161" d="M2983.464,1559.655s9.927-12.982,7.911-25.965" fill="none" stroke="#000" stroke-miterlimit="10" stroke-width="0.25"/>
    </g>
    <g id="Group_3827" data-name="Group 3827">
      <path id="Path_14162" data-name="Path 14162" d="M3013.143,1279.644c-1.525-.115-2.643,4.217-2.643,4.217s-.259-3.551-1.827-2.629-3.146,5.7-3.146,5.7-1.843-3.708-5.825,3.863c0,0-2.648-4.079-5.984,4.208,0,0-4.152-5.814-8.752,5.9,0,0-5.449-4.574-8.724,7.506,0,0-4.137-3.721-4.318,7.7,0,0-4.119-3.156-5.348,8.265,0,0-4.066-3.27-4.914,9.441,0,0-4.3-3.376-5.812,8.818,0,0-3.951-3.217-3.208,11.484,0,0-5.366-3.174-6.13,9.507,0,0-3.809-2.507-3.935,6.7,0,0-3.406-1.511-.94,6.737,0,0-5.143.277,1.551,13.785,0,0,16.425-6.231,42.7-25.368s27.695-34.973,23.258-32.144c0,0,5.748-5.806,1.975-5.688,0,0,5.319-8.382.177-6.678,0,0,7.4-8.641,2.839-8.343,0,0,4.722-7.892.073-7.18,0,0,5.937-9.77-.047-8.281,0,0,5.138-8.188,1.292-8.011,0,0,1.642-4.086-1.065-3.279C3014.385,1285.863,3015.4,1279.814,3013.143,1279.644Z" fill="#cad226" stroke="#231815" stroke-miterlimit="10" stroke-width="0.25"/>
      <path id="Path_14163" data-name="Path 14163" d="M3013.143,1279.644s-2.642,20.526-19.587,41.84-27.725,37.876-37.8,52.462" fill="none" stroke="#000" stroke-miterlimit="10" stroke-width="0.25"/>
      <path id="Path_14164" data-name="Path 14164" d="M3003.758,1293.26s.159,5.738,2.688,7.3" fill="none" stroke="#000" stroke-miterlimit="10" stroke-width="0.25"/>
      <path id="Path_14165" data-name="Path 14165" d="M3012.067,1296.4s-.716,3.319-5.621,4.159" fill="none" stroke="#000" stroke-miterlimit="10" stroke-width="0.25"/>
      <path id="Path_14166" data-name="Path 14166" d="M2998.606,1296.493s-1.323,7.854,2.665,13.861" fill="none" stroke="#000" stroke-miterlimit="10" stroke-width="0.25"/>
      <path id="Path_14167" data-name="Path 14167" d="M3010.558,1303.821s-4.229,5.567-9.287,6.533" fill="none" stroke="#000" stroke-miterlimit="10" stroke-width="0.25"/>
      <path id="Path_14168" data-name="Path 14168" d="M2993.046,1303.406s-1.2,8.11,2.973,14.852" fill="none" stroke="#000" stroke-miterlimit="10" stroke-width="0.25"/>
      <path id="Path_14169" data-name="Path 14169" d="M3008.167,1311.569s-5.968,6.969-12.148,6.689" fill="none" stroke="#000" stroke-miterlimit="10" stroke-width="0.25"/>
      <path id="Path_14170" data-name="Path 14170" d="M2985.831,1307.639s-2.737,11.878,3.275,19.512" fill="none" stroke="#000" stroke-miterlimit="10" stroke-width="0.25"/>
      <path id="Path_14171" data-name="Path 14171" d="M3005.8,1322.647s-5.533,7.142-16.7,4.5" fill="none" stroke="#000" stroke-miterlimit="10" stroke-width="0.25"/>
      <path id="Path_14172" data-name="Path 14172" d="M2976.273,1319.363s-1.9,10.951,4.189,19.225" fill="none" stroke="#000" stroke-miterlimit="10" stroke-width="0.25"/>
      <path id="Path_14173" data-name="Path 14173" d="M3000.918,1333.7s-12.144,8.719-20.456,4.89" fill="none" stroke="#000" stroke-miterlimit="10" stroke-width="0.25"/>
      <path id="Path_14174" data-name="Path 14174" d="M2969.673,1329.664s-1.329,11.726,3.621,18.853" fill="none" stroke="#000" stroke-miterlimit="10" stroke-width="0.25"/>
      <path id="Path_14175" data-name="Path 14175" d="M2994.927,1344.49s-11.263,7.9-21.633,4.027" fill="none" stroke="#000" stroke-miterlimit="10" stroke-width="0.25"/>
      <path id="Path_14176" data-name="Path 14176" d="M2960.81,1341.074s-1.609,12.144,3.571,20.274" fill="none" stroke="#000" stroke-miterlimit="10" stroke-width="0.25"/>
      <path id="Path_14177" data-name="Path 14177" d="M2989.65,1354.112s-15.019,9.938-25.269,7.236" fill="none" stroke="#000" stroke-miterlimit="10" stroke-width="0.25"/>
      <path id="Path_14178" data-name="Path 14178" d="M2955.318,1356.843a17.914,17.914,0,0,0,3.206,13.073" fill="none" stroke="#000" stroke-miterlimit="10" stroke-width="0.25"/>
    </g>
    <g id="Group_3828" data-name="Group 3828">
      <path id="Path_14179" data-name="Path 14179" d="M2916.613,1357.559c-12.867,9.015-27.246,30.428-30.126,54.794s23.92,74.43,78.858,68.892,62.026-59.145,60.476-75.98-7.682-40.261-41.942-52.029S2938.544,1342.195,2916.613,1357.559Z" fill="#e86a58" stroke="#000" stroke-linejoin="round" stroke-width="0.25"/>
      <path id="Path_14180" data-name="Path 14180" d="M2920.379,1370.487c.619-2.127,4.984-5.316,6.867-4.652s.739,3.4,1.255,5.021,3.84,2.954,5.391,5.833,6.1,5.231,6.318,9.366a19.877,19.877,0,0,1-2.809,2.649,20.289,20.289,0,0,0-3.879-6.624c-2.8-3.176-3.47-4.726-5.464-6.572s-1.772-2.511-4.061-3.027S2920.084,1371.5,2920.379,1370.487Z" fill="#6d4a32" stroke="#000" stroke-linejoin="round" stroke-width="0.25"/>
      <path id="Path_14181" data-name="Path 14181" d="M2944.081,1376.45s0,9.875-10.688,14.583" fill="none" stroke="#000" stroke-miterlimit="10" stroke-width="0.25"/>
      <ellipse id="Ellipse_2599" data-name="Ellipse 2599" cx="1.772" cy="1.329" rx="1.772" ry="1.329" transform="translate(2906.777 1394.461) rotate(-52.207)" fill="#dffffa" stroke="#231815" stroke-miterlimit="10" stroke-width="0.25"/>
      <ellipse id="Ellipse_2600" data-name="Ellipse 2600" cx="4.32" cy="2.824" rx="4.32" ry="2.824" transform="translate(2906.989 1406.184) rotate(-73.718)" fill="#dffffa" stroke="#231815" stroke-miterlimit="10" stroke-width="0.25"/>
      <ellipse id="Ellipse_2601" data-name="Ellipse 2601" cx="3.045" cy="3.433" rx="3.045" ry="3.433" transform="matrix(0.824, -0.567, 0.567, 0.824, 3000.822, 1380.459)" fill="#dffffa" stroke="#231815" stroke-miterlimit="10" stroke-width="0.25"/>
      <ellipse id="Ellipse_2602" data-name="Ellipse 2602" cx="2.094" cy="2.74" rx="2.094" ry="2.74" transform="matrix(0.824, -0.567, 0.567, 0.824, 3012.697, 1384.892)" fill="#dffffa" stroke="#231815" stroke-miterlimit="10" stroke-width="0.25"/>
    </g>
    <g id="Group_3829" data-name="Group 3829">
      <path id="Path_14182" data-name="Path 14182" d="M2806.808,1448.113c-1.025.846,2.25,3.625,2.25,3.625s-3.5,3.417,2.75,7.334c0,0-3.25,1.916,2.75,4.333,0,0-1.5,1.667,3.083,2.917,0,0-2.167,2.166,3.25,5.083,0,0-1.833,1.833,2.833,4.583,0,0-2.5,1.834,3.084,3.417,0,0-1.667,3,6.25,4.167,0,0-2.417,2.333,4.333,3.75,0,0-1.946,2.75,4.777,3.833,0,0-2.86,1.917,3.973,3.667,0,0-1.583,1.833,4.167,2.583,0,0-3,2.667,5.75,3.25,0,0-1.667,2.583,3.833,2.583,0,0-2.667,2,3.917,2.917,0,0-2.5,2.333,5.666,2l37.584-17.833,3.583-14.667s-1.262-3.805-2.243-1.954c0,0-1.757-4.129-2.507-1.546,0,0-2.933-5.25-3.425-1.917,0,0-3.825-7.416-4.908-3.333,0,0-3.459-4.917-3.938-1.5,0,0-3.312-5.167-3.979-1.667,0,0-4.167-5.083-4.25-1.083,0,0-6.917-5.667-5.917-1,0,0-4.666-3.75-4-.417,0,0-4.416-4.083-3.833-.416,0,0-5.75-4.084-4.583-.167,0,0-5.417-5.333-4.667-.75,0,0-4.333-4.417-4.25-.5,0,0-5.25-4-4.833.583,0,0-5.167-3.833-4.917,0,0,0-5.583-5.5-5.417-.916,0,0-6.666-6-6.25-2.25,0,0-4.916-5.667-5.25-1.417,0,0-5.5-6.333-5.833-2.083,0,0-8.667-7.75-8.167-3,0,0-5-3.834-5.166-1.417C2812.308,1448.905,2808.474,1446.738,2806.808,1448.113Z" fill="#cad226" stroke="#231815" stroke-miterlimit="10" stroke-width="0.25"/>
      <path id="Path_14183" data-name="Path 14183" d="M2806.808,1448.113s19.487,12.662,33.375,25.588c15.25,14.194,36.908,16.534,66.875,16.621" fill="none" stroke="#000" stroke-miterlimit="10" stroke-width="0.25"/>
      <path id="Path_14184" data-name="Path 14184" d="M2815.808,1459.926s4.344.623,6.8-.688" fill="none" stroke="#000" stroke-miterlimit="10" stroke-width="0.25"/>
      <path id="Path_14185" data-name="Path 14185" d="M2819.745,1453.551s2.785,2.472,2.86,5.687" fill="none" stroke="#000" stroke-miterlimit="10" stroke-width="0.25"/>
      <path id="Path_14186" data-name="Path 14186" d="M2820.87,1465.926s6.149,1.908,10.075-.2" fill="none" stroke="#000" stroke-miterlimit="10" stroke-width="0.25"/>
      <path id="Path_14187" data-name="Path 14187" d="M2828.62,1457.926s2.958,4.162,2.325,7.8" fill="none" stroke="#000" stroke-miterlimit="10" stroke-width="0.25"/>
      <path id="Path_14188" data-name="Path 14188" d="M2826.683,1473.113s7.687,3.738,13.5.588" fill="none" stroke="#000" stroke-miterlimit="10" stroke-width="0.25"/>
      <path id="Path_14189" data-name="Path 14189" d="M2837.5,1464.113s3.115,4.9,2.688,9.588" fill="none" stroke="#000" stroke-miterlimit="10" stroke-width="0.25"/>
      <path id="Path_14190" data-name="Path 14190" d="M2837.058,1481.905s8.634,1.441,12.692-1.238" fill="none" stroke="#000" stroke-miterlimit="10" stroke-width="0.25"/>
      <path id="Path_14191" data-name="Path 14191" d="M2846.62,1466.988s4.431,7.2,3.13,13.679" fill="none" stroke="#000" stroke-miterlimit="10" stroke-width="0.25"/>
      <path id="Path_14192" data-name="Path 14192" d="M2848.3,1490.322s9.849,1.149,12.9-4.811" fill="none" stroke="#000" stroke-miterlimit="10" stroke-width="0.25"/>
      <path id="Path_14193" data-name="Path 14193" d="M2855.058,1471.176s6.507,7.052,6.142,14.335" fill="none" stroke="#000" stroke-miterlimit="10" stroke-width="0.25"/>
      <path id="Path_14194" data-name="Path 14194" d="M2859.62,1494.488s11.86-1.086,14.618-6.074" fill="none" stroke="#000" stroke-miterlimit="10" stroke-width="0.25"/>
      <path id="Path_14195" data-name="Path 14195" d="M2865.183,1472.176s9.178,6.875,9.055,16.238" fill="none" stroke="#000" stroke-miterlimit="10" stroke-width="0.25"/>
      <path id="Path_14196" data-name="Path 14196" d="M2869.245,1498.3s9.691-1.606,14.814-8.772" fill="none" stroke="#000" stroke-miterlimit="10" stroke-width="0.25"/>
      <path id="Path_14197" data-name="Path 14197" d="M2877.979,1470.3s7.955,11.544,6.08,19.228" fill="none" stroke="#000" stroke-miterlimit="10" stroke-width="0.25"/>
    </g>
    <g id="Group_3830" data-name="Group 3830">
      <path id="Path_14198" data-name="Path 14198" d="M2827.433,1385.738c.86-.268,1.875,1.563,1.875,1.563s1.062-2.188,2.875,1.312c0,0,1.812-2.062,3.562,4.5,0,0,2.375-3.687,5.188,7.188,0,0,2.187-3.75,6.5,6.562,0,0,1.812-3,5.187,4.25,0,0,.938-3.875,4.438,3.125,0,0,1.375-3.812,4.25,1.188,0,0,1.125-3.313,4.312,2.062,0,0,1.37-4.963,6.5,2.55,0,0,.628-3.362,5.691,2.763,0,0,0-4.5,6.375,3.187,0,0,.75-3.375,5.312,3.25,0,0,.75-4.875,4.313,3.75,0,0,1.875-4.125,4.437,4.375,0,0,1.5-2.25,2.75,2.688,0,0,2.375-2.5,4.188,4.687,0,0,1.687-2.625,2.812,4.313,0,0,1.188-2.188,2.25,3.187,0,0,1.25-2.312,2.063,3.25,0,0,1.5-2.562,2.312,3.438,0,0,2-2.438,2.875,4.25,0,0,1.25-1.5,1.625,2.375,0,0,1.563-1.638,1.688,2.118,0,0,1.062-2.181,1.375,3.257l-5.438,7.375-56.437-17.188s-6.428-7.375-1.683-7.25c0,0-6.192-3.562-2.567-4.187,0,0-5.188-3.625-1.938-3.938,0,0-6.312-3.5-3.312-4,0,0-5.75-4.187-2.625-4.625,0,0-5.5-4.562-1.938-4.812,0,0-5.25-3.438-2.25-3.75,0,0-6.937-5-3.312-5.563,0,0-5.688-4.375-2.438-4.625,0,0-6.125-4.437-2.937-4.75,0,0-5.313-5.312-2.313-5.5,0,0-5.187-5.937-2-5.687,0,0-4.687-3.813-1.875-3.75,0,0-3.687-4.313-.937-3.938,0,0-3.313-4.5-.688-3.812,0,0-2-3.375-.562-3.125C2826.933,1387.8,2826.433,1386.051,2827.433,1385.738Z" fill="#ddd658" stroke="#000" stroke-linejoin="round" stroke-width="0.25"/>
      <path id="Path_14199" data-name="Path 14199" d="M2896.633,1472.176c-4.842-10.146-21.492-26.688-38.008-38.688s-31.192-47.75-31.192-47.75" fill="none" stroke="#000" stroke-miterlimit="10" stroke-width="0.25"/>
      <path id="Path_14200" data-name="Path 14200" d="M2832.641,1403.28s2.492,2.579,4.538,2.456" fill="none" stroke="#000" stroke-miterlimit="10" stroke-width="0.25"/>
      <path id="Path_14201" data-name="Path 14201" d="M2837.474,1401.572s.913,1.151-.3,4.164" fill="none" stroke="#000" stroke-miterlimit="10" stroke-width="0.25"/>
      <path id="Path_14202" data-name="Path 14202" d="M2837.179,1411.822s2.857,2.764,5.034,2.423" fill="none" stroke="#000" stroke-miterlimit="10" stroke-width="0.25"/>
      <path id="Path_14203" data-name="Path 14203" d="M2842.213,1406.405s2.011,5.417,0,7.84" fill="none" stroke="#000" stroke-miterlimit="10" stroke-width="0.25"/>
      <path id="Path_14204" data-name="Path 14204" d="M2841.224,1419.405a10.553,10.553,0,0,0,7.046,3.53" fill="none" stroke="#000" stroke-miterlimit="10" stroke-width="0.25"/>
      <path id="Path_14205" data-name="Path 14205" d="M2848.27,1413.048s2.46,8.068,0,9.887" fill="none" stroke="#000" stroke-miterlimit="10" stroke-width="0.25"/>
      <path id="Path_14206" data-name="Path 14206" d="M2846.891,1428.155s3.957,2.781,8.02,2.224" fill="none" stroke="#000" stroke-miterlimit="10" stroke-width="0.25"/>
      <path id="Path_14207" data-name="Path 14207" d="M2855.974,1419.905s1.512,7.587-1.063,10.474" fill="none" stroke="#000" stroke-miterlimit="10" stroke-width="0.25"/>
      <path id="Path_14208" data-name="Path 14208" d="M2852.808,1437.822a17.785,17.785,0,0,0,13.266,1.376" fill="none" stroke="#000" stroke-miterlimit="10" stroke-width="0.25"/>
      <path id="Path_14209" data-name="Path 14209" d="M2864.724,1423.405s3.167,10.75,1.35,15.793" fill="none" stroke="#000" stroke-miterlimit="10" stroke-width="0.25"/>
      <path id="Path_14210" data-name="Path 14210" d="M2859.441,1445.155s9.4,4.609,16.464,2.5" fill="none" stroke="#000" stroke-miterlimit="10" stroke-width="0.25"/>
      <path id="Path_14211" data-name="Path 14211" d="M2875.905,1428.155s2.933,13.333,0,19.5" fill="none" stroke="#000" stroke-miterlimit="10" stroke-width="0.25"/>
      <path id="Path_14212" data-name="Path 14212" d="M2863.641,1453.822s10.94,4.978,20.262,1.655" fill="none" stroke="#000" stroke-miterlimit="10" stroke-width="0.25"/>
      <path id="Path_14213" data-name="Path 14213" d="M2885.308,1435.822s3.416,11.005-1.405,19.655" fill="none" stroke="#000" stroke-miterlimit="10" stroke-width="0.25"/>
      <path id="Path_14214" data-name="Path 14214" d="M2892.891,1442.905s1.373,13.767-2.421,20" fill="none" stroke="#000" stroke-miterlimit="10" stroke-width="0.25"/>
      <path id="Path_14215" data-name="Path 14215" d="M2900.224,1450.155s2.834,11.208-1.666,20.146" fill="none" stroke="#000" stroke-miterlimit="10" stroke-width="0.25"/>
      <path id="Path_14216" data-name="Path 14216" d="M2907.724,1460.822s1.459,8.916-3.979,15.166" fill="none" stroke="#000" stroke-miterlimit="10" stroke-width="0.25"/>
    </g>
    <g id="Group_3831" data-name="Group 3831">
      <path id="Path_14217" data-name="Path 14217" d="M2928.058,1372.111c-.1-1.3,2.954-3.47,5.095-2.51s9.969,1.181,12.184-1.551,3.452-6.7,4.947-6.147c0,0,1.329-3.71,2.326-2.658,0,0,1.606-3.544,2.769-2.049,0,0,1.758-3.364,3.073-1.745,0,0,2.382-3.516,3.628-3.682s.969,1.135.969,1.135,2.8-3.96,4.79-4.264,1.052,1.634,1.052,1.634,3.766-4.071,5.178-4.071.692,1.634.692,1.634,4.514-5.15,6.535-4.929.443,2.215.443,2.215,3.6-3.932,5.787-3.682.693,2.076.693,2.076,2.741-3.71,4.568-3.849,1.8,1.385,1.5,1.828c0,0,3.433-2.52,5.62-2.021s.887,2.353.887,2.353,2.879-1.938,4.347-1.606.914,1.855.914,1.855,2.492-2.242,4.1-1.938.664,1.689.664,1.689,2.049-2.021,3.434-2.021.747,1.218.747,1.218,2.3-1.709,3.212-1.616a.737.737,0,0,1,.692.952s1.717-2.215,2.963-2.686,1.717.443,1.412,1.024c0,0,2.769-3.738,3.683-3.461s-.5,5.483-2.326,7.144a1.957,1.957,0,0,1,.526,2.409c-.637,1.606-4.624,3.766-4.624,3.766s1.329.221.388,1.55-3.683,2.216-3.683,2.216,1.44.363,1.025,1.344-4.486,2.754-4.486,2.754a1.742,1.742,0,0,1-.083,2.99c-2.049,1.468-5.843,1.911-5.843,1.911s1.5.886-.166,1.993a7.36,7.36,0,0,1-4.209.831s1.5.831.8,1.938-3.6.859-3.6.859,1.274,1.356-1.08,2.409-6.036.553-6.036.553,1.8,2.271-.776,3.462-6.894-.139-6.894-.139,1.135,1.523-1.44,1.966-5.954-1.052-5.954-1.052.388,1.661-1.855,2.215-5.538-1.551-5.538-1.551-.443,1.8-4.319,0c0,0,.166.887-1.938.887s-4.514-3.157-4.514-3.157-.471.969-2.3.831-3.766-2.465-3.766-2.465-.941,2.3-2.713,1.219a8.024,8.024,0,0,1-2.529-2.3,12.031,12.031,0,0,1-8.012,3.249c-4.984.074-6.5-1.772-8.639-1.44a2.1,2.1,0,0,0-1.92,2.289S2928.206,1374.068,2928.058,1372.111Z" fill="#ddd658" stroke="#000" stroke-linejoin="round" stroke-width="0.25"/>
      <path id="Path_14218" data-name="Path 14218" d="M3026.956,1335.238s-4.827,11.325-22.7,16.494-32.046,2.806-55.379,15.063" fill="none" stroke="#000" stroke-miterlimit="10" stroke-width="0.25"/>
      <path id="Path_14219" data-name="Path 14219" d="M3014.081,1343.277a12.2,12.2,0,0,0-3.612,6.217" fill="none" stroke="#000" stroke-miterlimit="10" stroke-width="0.25"/>
      <path id="Path_14220" data-name="Path 14220" d="M3017.293,1349.074s-3.6,1.621-6.824.42" fill="none" stroke="#000" stroke-miterlimit="10" stroke-width="0.25"/>
      <path id="Path_14221" data-name="Path 14221" d="M3008.321,1344.5s-5.646,3.851-6.09,7.8" fill="none" stroke="#000" stroke-miterlimit="10" stroke-width="0.25"/>
      <path id="Path_14222" data-name="Path 14222" d="M3011.016,1353.947s-5.01,1.15-8.785-1.656" fill="none" stroke="#000" stroke-miterlimit="10" stroke-width="0.25"/>
      <path id="Path_14223" data-name="Path 14223" d="M3001.528,1345.714s-6.8,3.582-8.735,8.584" fill="none" stroke="#000" stroke-miterlimit="10" stroke-width="0.25"/>
      <path id="Path_14224" data-name="Path 14224" d="M3003.891,1360.519s-8.049-.37-11.1-6.221" fill="none" stroke="#000" stroke-miterlimit="10" stroke-width="0.25"/>
      <path id="Path_14225" data-name="Path 14225" d="M2992.409,1346.785s-7.608,3.47-8.53,8.934" fill="none" stroke="#000" stroke-miterlimit="10" stroke-width="0.25"/>
      <path id="Path_14226" data-name="Path 14226" d="M2997.356,1364.727a14.927,14.927,0,0,1-13.477-9.008" fill="none" stroke="#000" stroke-miterlimit="10" stroke-width="0.25"/>
      <path id="Path_14227" data-name="Path 14227" d="M2984.914,1346.563s-8.531,3.791-11.04,11" fill="none" stroke="#000" stroke-miterlimit="10" stroke-width="0.25"/>
      <path id="Path_14228" data-name="Path 14228" d="M2987.72,1368.2s-9.747-1.4-13.846-10.639" fill="none" stroke="#000" stroke-miterlimit="10" stroke-width="0.25"/>
      <path id="Path_14229" data-name="Path 14229" d="M2972.62,1350.735s-6.861,4.412-7.455,9.166" fill="none" stroke="#000" stroke-miterlimit="10" stroke-width="0.25"/>
      <path id="Path_14230" data-name="Path 14230" d="M2979.782,1371.262s-11.481-2.547-14.617-11.361" fill="none" stroke="#000" stroke-miterlimit="10" stroke-width="0.25"/>
      <path id="Path_14231" data-name="Path 14231" d="M2962.283,1355.018s-4.26,3.179-4.585,7.626" fill="none" stroke="#000" stroke-miterlimit="10" stroke-width="0.25"/>
      <path id="Path_14232" data-name="Path 14232" d="M2969.334,1372.517s-8.6-1.55-11.636-9.873" fill="none" stroke="#000" stroke-miterlimit="10" stroke-width="0.25"/>
    </g>
    <g id="Group_3832" data-name="Group 3832">
      <path id="Path_14233" data-name="Path 14233" d="M3112.058,1320.238c-.834-.455-2.834,1.75-2.834,1.75s-.333-3.083-3.916,1.584c0,0-1.834-4.334-4.5,3.083,0,0-2.25-3.375-4.417,4.521,0,0-2.452-3.1-4.75,3.31,0,0-1.833-3.164-5.083,3.419l-35.7,90.625L3071,1443.322s10.813-7.417,5.9-7.917c0,0,6.417-5.542,1.75-5.521,0,0,9.75-6.4,4.083-7.4,0,0,6.917-5.484,3.084-5.992,0,0,6.833-4.508,2.833-5.758,0,0,8.295-8.083,2.648-8.666,0,0,5.852-5.334,1.769-5.834,0,0,7-5.681,2.666-6.674,0,0,6.167-5.831,2.084-5.745,0,0,6.333-8.664,2.25-8.5,0,0,5.666-9.334.583-8.167,0,0,6.167-9,.917-8.333,0,0,7.25-8.667,1.25-8.417,0,0,4.833-6.5-.084-5.833,0,0,5.334-6,2-6.334,0,0,4.667-5.583,1.5-5.666,0,0,4.75-2.584,2.667-3.417,0,0,4.333-2.75,1.75-3.792C3110.641,1325.363,3113.891,1321.238,3112.058,1320.238Z" fill="#cad226" stroke="#231815" stroke-miterlimit="10" stroke-width="0.25"/>
      <path id="Path_14234" data-name="Path 14234" d="M3112.058,1320.238a149.682,149.682,0,0,0-34.417,52.75" fill="none" stroke="#000" stroke-miterlimit="10" stroke-width="0.25"/>
      <path id="Path_14235" data-name="Path 14235" d="M3095.62,1334.486s-1.479,2.083-.771,6.168" fill="none" stroke="#000" stroke-miterlimit="10" stroke-width="0.25"/>
      <path id="Path_14236" data-name="Path 14236" d="M3100.058,1338.051a6.541,6.541,0,0,1-5.209,2.6" fill="none" stroke="#000" stroke-miterlimit="10" stroke-width="0.25"/>
      <path id="Path_14237" data-name="Path 14237" d="M3098.245,1344.926s-4.046,4.922-9.585,5.274" fill="none" stroke="#000" stroke-miterlimit="10" stroke-width="0.25"/>
      <path id="Path_14238" data-name="Path 14238" d="M3098,1354.072s-4.987,7.232-15.806,8.2" fill="none" stroke="#000" stroke-miterlimit="10" stroke-width="0.25"/>
      <path id="Path_14239" data-name="Path 14239" d="M3096.558,1364.613s-6.875,7.563-16.063,8.875" fill="none" stroke="#000" stroke-miterlimit="10" stroke-width="0.25"/>
      <path id="Path_14240" data-name="Path 14240" d="M3095.433,1375.566s-7.615,8.377-17.792,9.831" fill="none" stroke="#000" stroke-miterlimit="10" stroke-width="0.25"/>
      <path id="Path_14241" data-name="Path 14241" d="M3091.891,1387.975s-7.615,8.376-17.792,9.83" fill="none" stroke="#000" stroke-miterlimit="10" stroke-width="0.25"/>
      <path id="Path_14242" data-name="Path 14242" d="M3088.058,1402.176s-9.931,7.681-21.608,7.495" fill="none" stroke="#000" stroke-miterlimit="10" stroke-width="0.25"/>
      <path id="Path_14243" data-name="Path 14243" d="M3083.87,1414.363s-10.424,6.406-22.969,5.879" fill="none" stroke="#000" stroke-miterlimit="10" stroke-width="0.25"/>
      <path id="Path_14244" data-name="Path 14244" d="M3079.66,1424.575s-10.425,6.406-22.969,5.879" fill="none" stroke="#000" stroke-miterlimit="10" stroke-width="0.25"/>
    </g>
    <g id="Group_3833" data-name="Group 3833">
      <path id="Path_14245" data-name="Path 14245" d="M3090.433,1276.863c-1.248.076-3.625,5-3.75,6,0,0-3-2.25-3.125,4.438,0,0-2.438-1.625-2.688,4.437,0,0-2.625-.875-2.5,5.125,0,0-2.562-.812-1.75,5.25,0,0-2.375-2.187-2.562,4.813,0,0-2-1.313-2.625,4.562,0,0-2.313-2.312-2.625,3.813,0,0-2.063-2.75-2.875,5.687,0,0-2.063-2.5-2.938,3.438,0,0-2.5-2.6-3.625,4.45,0,0-2.812-3.5-4.437,4.933,0,0-3.813-2.383-4.563,6.367,0,0-3.062-2.25-3.125,6.375,0,0-2.562-1.563-2.25,5.062,0,0-3-2.187-3.25,4.875,0,0-2.625-2.437-2.562,5.313,0,0-3.438-1.688-2.5,6.562,0,0-3.438-1.75-2.813,5.438,0,0-2.937-2.313-1.687,4.75,0,0-2.813-.438-1.063,5.625,0,0-3.766-2.438-2.6,5.562,0,0-2.335-.625-1.835,7.688,0,0-8.375,26.687-2.5,35.312,0,0,20.625-3.791,28.5-5.208s13-8.042,10.125-8.167c0,0,6.217-4.875,4.171-5.5,0,0,4.266-4.625,1.391-5.187,0,0,7.563-5.25,3.375-5.875,0,0,8.875-6.813,3.813-7,0,0,8.437-7.688,3-7.75,0,0,8.062-6.313,2.125-6.5,0,0,8.312-6,4.375-7.375,0,0,6.437-6.688,2.125-6.688,0,0,3.937-6.125.375-5.312,0,0,5.562-8.5.187-7.375,0,0,3.563-5.688.375-5.375,0,0,4.375-6.625.438-6.125,0,0,2.687-6.438-.563-5.625,0,0,3-5.625-.625-5,0,0,4.875-6.313,1.25-6.688,0,0,4.25-8.687.063-7,0,0,2.437-7.562-1.188-6.437,0,0,3.438-7.125.063-6.188,0,0,3.187-6.5.437-6.312,0,0,3.313-4.938.688-5.188,0,0,2.937-5.875.625-5.312,0,0,2.812-2.938.875-3.188C3090.183,1286.363,3092.5,1276.738,3090.433,1276.863Z" fill="#ddd658" stroke="#000" stroke-linejoin="round" stroke-width="0.25"/>
      <path id="Path_14246" data-name="Path 14246" d="M3080,1301.3s-1.53,6.932,1.016,10.029" fill="none" stroke="#000" stroke-miterlimit="10" stroke-width="0.25"/>
      <path id="Path_14247" data-name="Path 14247" d="M3085.683,1303.738s-1.351,5.825-4.672,7.592" fill="none" stroke="#000" stroke-miterlimit="10" stroke-width="0.25"/>
      <path id="Path_14248" data-name="Path 14248" d="M3075.245,1310.488s-3.355,12.695.948,15.566" fill="none" stroke="#000" stroke-miterlimit="10" stroke-width="0.25"/>
      <path id="Path_14249" data-name="Path 14249" d="M3084.558,1316.926s-3.731,8.715-8.365,9.128" fill="none" stroke="#000" stroke-miterlimit="10" stroke-width="0.25"/>
      <path id="Path_14250" data-name="Path 14250" d="M3068.183,1325.363s-2.214,15.114,1.518,18.245" fill="none" stroke="#000" stroke-miterlimit="10" stroke-width="0.25"/>
      <path id="Path_14251" data-name="Path 14251" d="M3083.558,1331.176s-8.339,11.494-13.857,12.432" fill="none" stroke="#000" stroke-miterlimit="10" stroke-width="0.25"/>
      <path id="Path_14252" data-name="Path 14252" d="M3060.433,1333.613s-2.881,22.037,1.841,27.269" fill="none" stroke="#000" stroke-miterlimit="10" stroke-width="0.25"/>
      <path id="Path_14253" data-name="Path 14253" d="M3082.87,1347.248s-11.3,14.183-20.6,13.634" fill="none" stroke="#000" stroke-miterlimit="10" stroke-width="0.25"/>
      <path id="Path_14254" data-name="Path 14254" d="M3051.745,1346.363s-2.6,19.518,4.328,27.79" fill="none" stroke="#000" stroke-miterlimit="10" stroke-width="0.25"/>
      <path id="Path_14255" data-name="Path 14255" d="M3082.433,1364.613s-14.52,11.458-26.36,9.54" fill="none" stroke="#000" stroke-miterlimit="10" stroke-width="0.25"/>
      <path id="Path_14256" data-name="Path 14256" d="M3043.058,1364.613s.308,21.777,5.779,24.951" fill="none" stroke="#000" stroke-miterlimit="10" stroke-width="0.25"/>
      <path id="Path_14257" data-name="Path 14257" d="M3078.62,1377.988s-13.163,12.824-29.783,11.576" fill="none" stroke="#000" stroke-miterlimit="10" stroke-width="0.25"/>
      <path id="Path_14258" data-name="Path 14258" d="M3036.5,1377.089s-1.931,21.589,6.066,28.463" fill="none" stroke="#000" stroke-miterlimit="10" stroke-width="0.25"/>
      <path id="Path_14259" data-name="Path 14259" d="M3071,1393.113s-14.741,13.67-28.434,12.439" fill="none" stroke="#000" stroke-miterlimit="10" stroke-width="0.25"/>
      <path id="Path_14260" data-name="Path 14260" d="M3027.183,1402.176s1.824,15.844,10.406,22.453" fill="none" stroke="#000" stroke-miterlimit="10" stroke-width="0.25"/>
      <path id="Path_14261" data-name="Path 14261" d="M3062.245,1408.363s-12.158,14.391-24.656,16.266" fill="none" stroke="#000" stroke-miterlimit="10" stroke-width="0.25"/>
    </g>
    <g id="Group_3834" data-name="Group 3834">
      <path id="Path_14262" data-name="Path 14262" d="M3090.433,1276.863s-9.716,43.383-26.671,80.754-21.288,40.205-28.371,78.038c0,0-.083,5.417,1,7.167" fill="none" stroke="#000" stroke-miterlimit="10" stroke-width="0.25"/>
      <path id="Path_14263" data-name="Path 14263" d="M3036.609,1415.523s-19.628-1.5-41.072,10.946-34.584,28.514-38.185,48.129c-4.158,22.64,1.294,48.267,16.741,66.8s39.8,26,62.516,23.636,42.348-9.04,52.382-23.443Z" fill="#e86a58" stroke="#000" stroke-linejoin="round" stroke-width="0.25"/>
      <path id="Path_14264" data-name="Path 14264" d="M3016.572,1449.017c-2.5,1.258-12.039-2.558-24.215.577s-18.945,18.4-14.584,37.345,19.9,49.884,44.569,58.88,50.43,12.539,66.649-4.225,17.718-39.254,13.766-52.2-13.493-34.164-22.216-46.386-32.531-29.258-46.933-27.35-18.353,21.308-16.173,29.713Z" fill="#ffd67b" stroke="#000" stroke-linejoin="round" stroke-width="0.25"/>
      <path id="Path_14265" data-name="Path 14265" d="M3014.975,1452.9c-.985-.392-4.954-6.32-4.918-10.04l5.987-.829s2.4,4.335,4.358,5.932S3017.269,1453.81,3014.975,1452.9Z" fill="#6d4a32" stroke="#000" stroke-linejoin="round" stroke-width="0.25"/>
      <path id="Path_14266" data-name="Path 14266" d="M3012.639,1445.471s.8,3.254,2.336,4.188" fill="none" stroke="#000" stroke-miterlimit="10" stroke-width="0.25"/>
      <path id="Path_14267" data-name="Path 14267" d="M3014.1,1445.7a3.792,3.792,0,0,0,2.194,2.785" fill="none" stroke="#000" stroke-miterlimit="10" stroke-width="0.25"/>
      <path id="Path_14268" data-name="Path 14268" d="M3016.088,1446.017a5.253,5.253,0,0,0,1.507,1.234" fill="none" stroke="#000" stroke-miterlimit="10" stroke-width="0.25"/>
      <path id="Path_14269" data-name="Path 14269" d="M3070.227,1510.155c2.021-.213,9.45-13.812,4-32.166s-27.849-36.028-56.562-29.758c0,0-5.589,1.772-1.681,17.037s11.948,29.031,20.876,33.461,22.148,6.337,26.85,8.246S3068.5,1510.336,3070.227,1510.155Z" fill="#ad6149" stroke="#000" stroke-linejoin="round" stroke-width="0.25"/>
      <path id="Path_14270" data-name="Path 14270" d="M3025.57,1453.887c1.133-.341,6.449,6.61,5.359,7.633S3024.437,1454.227,3025.57,1453.887Z" fill="#6d4a32" stroke="#000" stroke-linejoin="round" stroke-width="0.25"/>
      <path id="Path_14271" data-name="Path 14271" d="M3018.935,1454.364c.984-.342,3.2,6.406,2.385,6.679S3017.367,1454.909,3018.935,1454.364Z" fill="#6d4a32" stroke="#000" stroke-linejoin="round" stroke-width="0.25"/>
      <path id="Path_14272" data-name="Path 14272" d="M3035.5,1453.887c.276-1.171,4.088,0,5.724,2.522s1.529,3.658.886,3.68c-.92.03-1.329-2.293-3.51-3.316S3035.3,1454.7,3035.5,1453.887Z" fill="#6d4a32" stroke="#000" stroke-linejoin="round" stroke-width="0.25"/>
      <path id="Path_14273" data-name="Path 14273" d="M3051.373,1460.089c.664-1.034,3.748-.235,5.52,1.518s2.385,3.388,1.84,4.206-1.511-2.362-3.584-3.089S3050.76,1461.043,3051.373,1460.089Z" fill="#6d4a32" stroke="#000" stroke-linejoin="round" stroke-width="0.25"/>
      <path id="Path_14274" data-name="Path 14274" d="M3052.872,1469.152c.79-.46,2.317,1.022,4.226,3.612s1.84,4.157,1.363,4.566-2.795-2.181-3.749-3.748S3052.055,1469.629,3052.872,1469.152Z" fill="#6d4a32" stroke="#000" stroke-linejoin="round" stroke-width="0.25"/>
      <path id="Path_14275" data-name="Path 14275" d="M3040.674,1465.268c1.271-.978,2.385,2.93,4.225,4.975s3.748,5.043,3.271,5.792-3-1.09-4.975-4.089S3039.788,1465.949,3040.674,1465.268Z" fill="#6d4a32" stroke="#000" stroke-linejoin="round" stroke-width="0.25"/>
      <path id="Path_14276" data-name="Path 14276" d="M3027.249,1467.926c1.285-.53,4.293,6.833,7.019,9.447s6.688,7.249,6.138,8-5.525-1.91-8.455-6.816S3026.09,1468.4,3027.249,1467.926Z" fill="#6d4a32" stroke="#000" stroke-linejoin="round" stroke-width="0.25"/>
      <path id="Path_14277" data-name="Path 14277" d="M3032.019,1486.257c.784-.359,3.476,3.749,5.384,4.5s5.724,3.2,5.383,4.43-4.02-2.181-6.474-3.339S3030.383,1487.007,3032.019,1486.257Z" fill="#6d4a32" stroke="#000" stroke-linejoin="round" stroke-width="0.25"/>
      <path id="Path_14278" data-name="Path 14278" d="M3049.261,1480.6c1.09-.545,3.68,2.453,3,3.135S3048.17,1481.146,3049.261,1480.6Z" fill="#6d4a32" stroke="#000" stroke-linejoin="round" stroke-width="0.25"/>
      <path id="Path_14279" data-name="Path 14279" d="M3051.032,1491.437c1.093-.61,3.817,2.18,7.02,2.794s5.588.409,5.929,1.976-4.021,1-6.475.545S3048.511,1492.845,3051.032,1491.437Z" fill="#6d4a32" stroke="#000" stroke-linejoin="round" stroke-width="0.25"/>
      <path id="Path_14280" data-name="Path 14280" d="M3067.592,1498.024c1.08.038,1.136,5.089-.908,4.952S3066.275,1497.979,3067.592,1498.024Z" fill="#6d4a32" stroke="#000" stroke-linejoin="round" stroke-width="0.25"/>
      <path id="Path_14281" data-name="Path 14281" d="M3065.593,1477.853c1.193-.253,3.09,2.68,3.181,6.5s-.455,6.225-1.818,6.225.273-4.494-.409-6.745S3064.094,1478.171,3065.593,1477.853Z" fill="#6d4a32" stroke="#000" stroke-linejoin="round" stroke-width="0.25"/>
      <path id="Path_14282" data-name="Path 14282" d="M3035.473,1435.01a6.28,6.28,0,0,1,0,2.726" fill="none" stroke="#000" stroke-miterlimit="10" stroke-width="0.25"/>
      <ellipse id="Ellipse_2603" data-name="Ellipse 2603" cx="1.59" cy="2.408" rx="1.59" ry="2.408" transform="translate(3036.326 1421.145) rotate(-21.843)" fill="#dffffa" stroke="#231815" stroke-miterlimit="10" stroke-width="0.25"/>
      <ellipse id="Ellipse_2604" data-name="Ellipse 2604" cx="2.953" cy="4.157" rx="2.953" ry="4.157" transform="translate(3042.739 1423.232) rotate(-30)" fill="#dffffa" stroke="#231815" stroke-miterlimit="10" stroke-width="0.25"/>
      <path id="Path_14283" data-name="Path 14283" d="M3068.783,1447.027s-.782,3.149-2.554,4.7" fill="none" stroke="#000" stroke-miterlimit="10" stroke-width="0.25"/>
      <path id="Path_14284" data-name="Path 14284" d="M3070.455,1451.093s-1.672,2.292-2.949,2.782" fill="none" stroke="#000" stroke-miterlimit="10" stroke-width="0.25"/>
      <path id="Path_14285" data-name="Path 14285" d="M3078.632,1463.632a12.075,12.075,0,0,1-5.179,2.314" fill="none" stroke="#000" stroke-miterlimit="10" stroke-width="0.25"/>
      <path id="Path_14286" data-name="Path 14286" d="M3079.859,1469.069a18.457,18.457,0,0,1-3.672.56" fill="none" stroke="#000" stroke-miterlimit="10" stroke-width="0.25"/>
      <path id="Path_14287" data-name="Path 14287" d="M3087.492,1486.235a26.32,26.32,0,0,1-4.089.7" fill="none" stroke="#000" stroke-miterlimit="10" stroke-width="0.25"/>
      <path id="Path_14288" data-name="Path 14288" d="M3088.991,1491.35s-3.68-1.922-6.406-.509" fill="none" stroke="#000" stroke-miterlimit="10" stroke-width="0.25"/>
      <path id="Path_14289" data-name="Path 14289" d="M3003.942,1472.355a15.326,15.326,0,0,0,7.633-1.7" fill="none" stroke="#000" stroke-miterlimit="10" stroke-width="0.25"/>
      <path id="Path_14290" data-name="Path 14290" d="M3008.372,1475.081a5.375,5.375,0,0,1,2.249-.477" fill="none" stroke="#000" stroke-miterlimit="10" stroke-width="0.25"/>
      <path id="Path_14291" data-name="Path 14291" d="M3017.3,1499.615a5.914,5.914,0,0,0,2.522-2.377" fill="none" stroke="#000" stroke-miterlimit="10" stroke-width="0.25"/>
      <path id="Path_14292" data-name="Path 14292" d="M3046.943,1514.675a8.424,8.424,0,0,1,0,3.953" fill="none" stroke="#000" stroke-miterlimit="10" stroke-width="0.25"/>
      <path id="Path_14293" data-name="Path 14293" d="M3027.453,1514.675s-4.361,6.679-5.111,12.812" fill="none" stroke="#000" stroke-miterlimit="10" stroke-width="0.25"/>
      <path id="Path_14294" data-name="Path 14294" d="M3029.361,1516.652s-.613,5.86-3.2,9.131" fill="none" stroke="#000" stroke-miterlimit="10" stroke-width="0.25"/>
      <path id="Path_14295" data-name="Path 14295" d="M3054.644,1515.561a50.8,50.8,0,0,1,1.636,13.766" fill="none" stroke="#000" stroke-miterlimit="10" stroke-width="0.25"/>
      <path id="Path_14296" data-name="Path 14296" d="M3072.022,1514.675a28.932,28.932,0,0,1,8.519,11.517" fill="none" stroke="#000" stroke-miterlimit="10" stroke-width="0.25"/>
      <path id="Path_14297" data-name="Path 14297" d="M3075.634,1515.152s3.952,2.863,5.384,6.883" fill="none" stroke="#000" stroke-miterlimit="10" stroke-width="0.25"/>
      <ellipse id="Ellipse_2605" data-name="Ellipse 2605" cx="3.089" cy="3.949" rx="3.089" ry="3.949" transform="translate(2988.45 1470.658)" fill="#dffffa" stroke="#231815" stroke-miterlimit="10" stroke-width="0.25"/>
      <ellipse id="Ellipse_2606" data-name="Ellipse 2606" cx="1.225" cy="2.133" rx="1.225" ry="2.133" transform="translate(2985.273 1463.632)" fill="#dffffa" stroke="#231815" stroke-miterlimit="10" stroke-width="0.25"/>
      <path id="Path_14298" data-name="Path 14298" d="M3010.057,1442.855c.076-1.644,6.7-2.251,6.018-.244S3009.981,1444.5,3010.057,1442.855Z" fill="#ad7955" stroke="#000" stroke-linejoin="round" stroke-width="0.25"/>
    </g>
    <g id="Group_3835" data-name="Group 3835">
      <path id="Path_14299" data-name="Path 14299" d="M2950.719,1458.309c-4.247-1.527-13.406-3.435-20.585-.507l17.961,11.606,15.937.274S2958.387,1461.067,2950.719,1458.309Z" fill="#e86a58" stroke="#000" stroke-linejoin="round" stroke-width="0.25"/>
      <path id="Path_14300" data-name="Path 14300" d="M2844.336,1552.488s1.914,19.573,21.624,26.636c20.472,7.337,42.99,2.287,57.282-5.18l-62.664-22.535Z" fill="#e86a58" stroke="#000" stroke-linejoin="round" stroke-width="0.25"/>
      <path id="Path_14301" data-name="Path 14301" d="M2940.453,1460.712c-2.447-2.2-1.372-4.69-5.879-4.152-5.712.682-33.769,13.185-49.375,28.387s-41.918,48.827-41.169,64.31c.6,12.512,6.189,11.7,11.974,9.552s7.669-1.884,13.992,5.381,24.889,17.894,46.012,12.378,47.761-33.231,52.47-44.8,6.727-30.271,4.3-42.313-9.283-24.626-17.49-24.791S2943.368,1463.336,2940.453,1460.712Z" fill="#ffd67b" stroke="#000" stroke-linejoin="round" stroke-width="0.25"/>
      <path id="Path_14302" data-name="Path 14302" d="M2936.189,1472.951c-1.9-1.982-4.171-.785-6.727-.785s-3.364.942-5.113,3.229-7,4.709-10.628,7.938-8.476,5.247-12.109,10.225-7.8,8.745-11.3,12.108-3.363,5.516-4.709,9.014-3.094,5.516-2.556,10.9-1.884,8.745.807,10.359,7.131-1.211,11.974-1.614,11.351-3.633,13.546-7.4,10.671-6.592,16.052-15.472,8.476-23.544,10.764-25.562S2938.745,1475.619,2936.189,1472.951Z" fill="#ffa943" stroke="#000" stroke-linejoin="round" stroke-width="0.25"/>
      <path id="Path_14303" data-name="Path 14303" d="M2930.134,1483.333s-1.749,9.149-6.323,15.472" fill="none" stroke="#000" stroke-miterlimit="10" stroke-width="0.25"/>
      <path id="Path_14304" data-name="Path 14304" d="M2921.524,1490.463s-17.894,12.513-22.468,27.312" fill="none" stroke="#000" stroke-miterlimit="10" stroke-width="0.25"/>
      <path id="Path_14305" data-name="Path 14305" d="M2920.313,1486.293s-7.147,2.421-10.031,6.323" fill="none" stroke="#000" stroke-miterlimit="10" stroke-width="0.25"/>
      <path id="Path_14306" data-name="Path 14306" d="M2899.729,1500.823a25.261,25.261,0,0,0-9.014,13.05" fill="none" stroke="#000" stroke-miterlimit="10" stroke-width="0.25"/>
      <path id="Path_14307" data-name="Path 14307" d="M2916.95,1509.971s-10.763,13.992-23.006,18.7" fill="none" stroke="#000" stroke-miterlimit="10" stroke-width="0.25"/>
      <ellipse id="Ellipse_2607" data-name="Ellipse 2607" cx="2.347" cy="3.592" rx="2.347" ry="3.592" transform="translate(2952.339 1481.172) rotate(-21.698)" fill="#dffffa" stroke="#231815" stroke-miterlimit="10" stroke-width="0.25"/>
      <ellipse id="Ellipse_2608" data-name="Ellipse 2608" cx="1.481" cy="1.951" rx="1.481" ry="1.951" transform="translate(2946.306 1478.415) rotate(-30)" fill="#dffffa" stroke="#231815" stroke-miterlimit="10" stroke-width="0.25"/>
      <path id="Path_14308" data-name="Path 14308" d="M2909.685,1474.588a46.184,46.184,0,0,0,0,5.516" fill="none" stroke="#000" stroke-miterlimit="10" stroke-width="0.25"/>
      <path id="Path_14309" data-name="Path 14309" d="M2912.039,1476.673a3.289,3.289,0,0,0,0,3.162" fill="none" stroke="#000" stroke-miterlimit="10" stroke-width="0.25"/>
      <path id="Path_14310" data-name="Path 14310" d="M2939.485,1467.928s.134-1.076.74-1.345" fill="none" stroke="#000" stroke-miterlimit="10" stroke-width="0.25"/>
      <path id="Path_14311" data-name="Path 14311" d="M2939.855,1492.078a8.908,8.908,0,0,1,3.262-1.009" fill="none" stroke="#000" stroke-miterlimit="10" stroke-width="0.25"/>
      <path id="Path_14312" data-name="Path 14312" d="M2940.225,1494.769a22.194,22.194,0,0,1,9.485-1.077" fill="none" stroke="#000" stroke-miterlimit="10" stroke-width="0.25"/>
      <path id="Path_14313" data-name="Path 14313" d="M2939.485,1499.881a98.431,98.431,0,0,0,17.961,1.951" fill="none" stroke="#000" stroke-miterlimit="10" stroke-width="0.25"/>
      <path id="Path_14314" data-name="Path 14314" d="M2898.652,1487.773a4.167,4.167,0,0,0,1.48,1.345" fill="none" stroke="#000" stroke-miterlimit="10" stroke-width="0.25"/>
      <path id="Path_14315" data-name="Path 14315" d="M2877.6,1513a5.247,5.247,0,0,0,2.624,0" fill="none" stroke="#000" stroke-miterlimit="10" stroke-width="0.25"/>
      <path id="Path_14316" data-name="Path 14316" d="M2869.121,1528.672s3.229-.74,4.776-2.287" fill="none" stroke="#000" stroke-miterlimit="10" stroke-width="0.25"/>
      <path id="Path_14317" data-name="Path 14317" d="M2879.346,1538.964s-3.161,5.718-5.852,8.275" fill="none" stroke="#000" stroke-miterlimit="10" stroke-width="0.25"/>
      <path id="Path_14318" data-name="Path 14318" d="M2892.4,1540.377s-.538,2.893,0,4.373" fill="none" stroke="#000" stroke-miterlimit="10" stroke-width="0.25"/>
      <path id="Path_14319" data-name="Path 14319" d="M2904.774,1537.888a32.483,32.483,0,0,1,2.556,6.862" fill="none" stroke="#000" stroke-miterlimit="10" stroke-width="0.25"/>
      <path id="Path_14320" data-name="Path 14320" d="M2907.33,1537.888s4.373,7.131,5.113,12.243" fill="none" stroke="#000" stroke-miterlimit="10" stroke-width="0.25"/>
      <path id="Path_14321" data-name="Path 14321" d="M2922.062,1525.578a34.153,34.153,0,0,1,7.2,7.736" fill="none" stroke="#000" stroke-miterlimit="10" stroke-width="0.25"/>
      <path id="Path_14322" data-name="Path 14322" d="M2924.82,1524.3a67.944,67.944,0,0,0,13.992,12.131" fill="none" stroke="#000" stroke-miterlimit="10" stroke-width="0.25"/>
      <path id="Path_14323" data-name="Path 14323" d="M2935.987,1512.393a9.437,9.437,0,0,0,5.718,2.153" fill="none" stroke="#000" stroke-miterlimit="10" stroke-width="0.25"/>
    </g>
  </g>
</svg>
