<svg xmlns="http://www.w3.org/2000/svg" width="346.148" height="322.958" viewBox="0 0 346.148 322.958">
  <g id="Group_3788" data-name="Group 3788" transform="translate(-1264.179 -826.301)">
    <g id="Group_3675" data-name="Group 3675" transform="translate(1271.221 1032.804)">
      <ellipse id="Ellipse_2286" data-name="Ellipse 2286" cx="2.988" cy="5.469" rx="2.988" ry="5.469" transform="translate(233.844 113.598) rotate(-75.681)" fill="#c19165" stroke="#000" stroke-linejoin="round" stroke-width="0.25"/>
      <ellipse id="Ellipse_2287" data-name="Ellipse 2287" cx="4.254" cy="2.481" rx="4.254" ry="2.481" transform="translate(224.589 100.865)" fill="#c19165" stroke="#000" stroke-linejoin="round" stroke-width="0.25"/>
      <ellipse id="Ellipse_2288" data-name="Ellipse 2288" cx="2.946" cy="5.216" rx="2.946" ry="5.216" transform="matrix(0.363, -0.932, 0.932, 0.363, 279.677, 60.911)" fill="#ecb36f" stroke="#000" stroke-linejoin="round" stroke-width="0.25"/>
      <ellipse id="Ellipse_2289" data-name="Ellipse 2289" cx="2.127" cy="3.595" rx="2.127" ry="3.595" transform="matrix(0.269, -0.963, 0.963, 0.269, 299.233, 37.1)" fill="#c19165" stroke="#000" stroke-linejoin="round" stroke-width="0.25"/>
      <ellipse id="Ellipse_2290" data-name="Ellipse 2290" cx="2.127" cy="4.102" rx="2.127" ry="4.102" transform="matrix(0.138, -0.99, 0.99, 0.138, 316.461, 43.093)" fill="#ecb36f" stroke="#000" stroke-linejoin="round" stroke-width="0.25"/>
      <path id="Path_12763" data-name="Path 12763" d="M1527.083,1056.228c3.544-1.924,7.631,4.235,12.963,1.925,9.115-3.95,12.66.3,14.888-1.519" transform="translate(-1244.464 -1009.443)" fill="none" stroke="#000" stroke-miterlimit="10" stroke-width="0.25"/>
      <path id="Path_12764" data-name="Path 12764" d="M1518.259,1051.542c1.418-1.552,4.153-1.284,6.279,0s3.646.588,7.19-.533,7.089,1.224,7.089,1.224" transform="translate(-1245.363 -1009.991)" fill="none" stroke="#000" stroke-miterlimit="10" stroke-width="0.25"/>
      <path id="Path_12765" data-name="Path 12765" d="M1498.5,1091.455c3.746,3.039,8.709,2.532,13.367-.406s10.128,1.418,13.774-1.215" transform="translate(-1247.374 -1005.983)" fill="none" stroke="#000" stroke-miterlimit="10" stroke-width="0.25"/>
      <path id="Path_12766" data-name="Path 12766" d="M1448.592,1071.726c2.729,2.026,4.857-3.747,9.008-1.417s8-.564,8-.564" transform="translate(-1252.456 -1008.029)" fill="none" stroke="#000" stroke-miterlimit="10" stroke-width="0.25"/>
      <path id="Path_12767" data-name="Path 12767" d="M1409.891,1078.963c2.532,2.633,9.143,2.431,14.142-.405s7.127-.507,13.608.608,10.846-4.355,14.892-2.532a11.222,11.222,0,0,0,7.186.911" transform="translate(-1256.396 -1007.365)" fill="none" stroke="#000" stroke-miterlimit="10" stroke-width="0.25"/>
      <path id="Path_12768" data-name="Path 12768" d="M1397.483,1113.307c2.127,4.253,8.3,3.949,15.7,1.013s13.064-.436,17.216.592,9.621-1.974,9.621-1.974" transform="translate(-1257.66 -1003.631)" fill="none" stroke="#000" stroke-miterlimit="10" stroke-width="0.25"/>
      <path id="Path_12769" data-name="Path 12769" d="M1384.982,1103.214c2.937,3.646,5.975.608,10.635-.406s6.481,3,11.14,1.621" transform="translate(-1258.933 -1004.679)" fill="none" stroke="#000" stroke-miterlimit="10" stroke-width="0.25"/>
      <ellipse id="Ellipse_2291" data-name="Ellipse 2291" cx="2.785" cy="5.57" rx="2.785" ry="5.57" transform="translate(93.849 95.756) rotate(-82.846)" fill="#ecb36f" stroke="#000" stroke-linejoin="round" stroke-width="0.25"/>
      <ellipse id="Ellipse_2292" data-name="Ellipse 2292" cx="3.545" cy="2.378" rx="3.545" ry="2.378" transform="translate(183.371 96.11)" fill="#ecb36f" stroke="#000" stroke-linejoin="round" stroke-width="0.25"/>
      <ellipse id="Ellipse_2293" data-name="Ellipse 2293" cx="3.073" cy="1.658" rx="3.073" ry="1.658" transform="translate(0 34.222)" fill="#c19165" stroke="#000" stroke-linejoin="round" stroke-width="0.25"/>
      <ellipse id="Ellipse_2294" data-name="Ellipse 2294" cx="4.409" cy="2.215" rx="4.409" ry="2.215" transform="translate(13.895 39.275)" fill="#ecb36f" stroke="#000" stroke-linejoin="round" stroke-width="0.25"/>
      <ellipse id="Ellipse_2295" data-name="Ellipse 2295" cx="5.745" cy="2.402" rx="5.745" ry="2.402" transform="translate(19.774)" fill="#ecb36f" stroke="#000" stroke-linejoin="round" stroke-width="0.25"/>
      <path id="Path_12770" data-name="Path 12770" d="M1283.193,1029.427c3.206,4.623,11.357-.926,17.9,0a58.96,58.96,0,0,1,11.891,3.02" transform="translate(-1269.297 -1012.145)" fill="none" stroke="#000" stroke-miterlimit="10" stroke-width="0.25"/>
      <path id="Path_12771" data-name="Path 12771" d="M1283.193,1062.659a5.32,5.32,0,0,1,7.215-1.069c2,1.336,5.612-.94,5.612-.94" transform="translate(-1269.297 -1008.955)" fill="none" stroke="#000" stroke-miterlimit="10" stroke-width="0.25"/>
      <path id="Path_12772" data-name="Path 12772" d="M1300.048,1058.971c3.875,4.41,9.221,5.874,15.7,2.87s13.944-4.483,19.564-1" transform="translate(-1267.581 -1009.141)" fill="none" stroke="#000" stroke-miterlimit="10" stroke-width="0.25"/>
    </g>
    <g id="Group_3683" data-name="Group 3683" transform="translate(1264.301 826.425)">
      <g id="Group_3677" data-name="Group 3677" transform="translate(35.324 176.481)">
        <g id="Group_3676" data-name="Group 3676" transform="translate(0 2.231)">
          <path id="Path_12773" data-name="Path 12773" d="M1429.124,1059.993s-1.69,12.956-21.962,24.965-36.8,8.13-53.665,17.583-42.922,15.585-54.676,1.789c-7.419-8.709,3.218-9.454,14.9-20.7s43.3-54.453,61.716-61.164l9.075-12.473a41.784,41.784,0,0,1,21.188-14.419c13.914-4.005,44.377-6.957,44.377-6.957l14.02,1.308-23.612,40.857Z" transform="translate(-1296.361 -988.622)" fill="#a5b63d" stroke="#231815" stroke-miterlimit="10" stroke-width="0.25"/>
          <path id="Path_12774" data-name="Path 12774" d="M1309.68,1081.966s14.131-1.442,22.373,3.38c0,0-2.386,10.484-9.9,15.221" transform="translate(-1295.005 -979.138)" fill="none" stroke="#000" stroke-miterlimit="10" stroke-width="0.25"/>
          <path id="Path_12775" data-name="Path 12775" d="M1320.48,1071.924s24.486-5.19,36.562-1.266c0,0,.986,11.974-11.606,23.661" transform="translate(-1293.905 -980.418)" fill="none" stroke="#000" stroke-miterlimit="10" stroke-width="0.25"/>
          <path id="Path_12776" data-name="Path 12776" d="M1332.958,1058.819c.693-.116,24-6.5,38.574.562,0,0,1.516,11.685-4.376,26.358" transform="translate(-1292.634 -981.755)" fill="none" stroke="#000" stroke-miterlimit="10" stroke-width="0.25"/>
          <path id="Path_12777" data-name="Path 12777" d="M1380.353,1078.487" transform="translate(-1287.809 -979.472)" fill="none" stroke="#000" stroke-miterlimit="10" stroke-width="0.25"/>
          <path id="Path_12778" data-name="Path 12778" d="M1388.819,1081.857s10.942-17.493,2.128-36.465c-8.936,8.16-18.632,20.357-46.2,37.467s-47.547,13.581-47.547,13.581" transform="translate(-1296.275 -982.842)" fill="none" stroke="#000" stroke-miterlimit="10" stroke-width="0.25"/>
          <path id="Path_12779" data-name="Path 12779" d="M1401.571,1069.973s4.858-14.825-2.729-29.48" transform="translate(-1285.926 -983.34)" fill="none" stroke="#000" stroke-miterlimit="10" stroke-width="0.25"/>
        </g>
        <path id="Path_12780" data-name="Path 12780" d="M1397.582,1022.17a258.933,258.933,0,0,1,21.24-15.325c10.688-6.764,17.722-12.491,22.592-20.248" transform="translate(-1286.054 -986.597)" fill="none" stroke="#000" stroke-miterlimit="10" stroke-width="0.25"/>
        <path id="Path_12781" data-name="Path 12781" d="M1386.532,1003.987s20.346-1.773,27.421,5.078c0,0,1.792,15.557-2.668,23.582" transform="translate(-1287.179 -984.847)" fill="none" stroke="#000" stroke-miterlimit="10" stroke-width="0.25"/>
        <path id="Path_12782" data-name="Path 12782" d="M1410.474,993.555s9.484,2.961,14.459,7.6a29.289,29.289,0,0,1,1.664,15.665" transform="translate(-1284.742 -985.888)" fill="none" stroke="#000" stroke-miterlimit="10" stroke-width="0.25"/>
      </g>
      <g id="Group_3678" data-name="Group 3678" transform="translate(217.406)">
        <path id="Path_12783" data-name="Path 12783" d="M1461.617,915.024s2.92-17.035,10.275-29.671,14.143-20.932,26.589-33.19,16.218-22.629,27.91-25.458,13.2,16.406,14.709,26.4,2.074,24.516,3.206,33.757.2,38.934-15.276,53.556-53.405-1.922-53.953-2.186S1461.617,915.024,1461.617,915.024Z" transform="translate(-1461.617 -826.425)" fill="#a5b63d" stroke="#231815" stroke-miterlimit="10" stroke-width="0.25"/>
        <path id="Path_12784" data-name="Path 12784" d="M1530.561,827.091s-8.066,14.7-17.375,41.7-14.011,61.964-39.353,69.38" transform="translate(-1460.373 -826.357)" fill="none" stroke="#000" stroke-miterlimit="10" stroke-width="0.25"/>
        <path id="Path_12785" data-name="Path 12785" d="M1512.161,835.786s-2.681,12.216,1.569,20.071c0,0,10.63-4.014,15-15.183" transform="translate(-1456.555 -825.472)" fill="none" stroke="#000" stroke-miterlimit="10" stroke-width="0.25"/>
        <path id="Path_12786" data-name="Path 12786" d="M1501.59,847.825s-.721,14.909,6.935,24.443c0,0,16.784-2.568,24.088-13.971" transform="translate(-1457.549 -824.246)" fill="none" stroke="#000" stroke-miterlimit="10" stroke-width="0.25"/>
        <path id="Path_12787" data-name="Path 12787" d="M1491.175,860.286s.176,22.641,11.84,32.5c0,0,22.941-2.095,32.545-16.25" transform="translate(-1458.607 -822.977)" fill="none" stroke="#000" stroke-miterlimit="10" stroke-width="0.25"/>
        <path id="Path_12788" data-name="Path 12788" d="M1480.4,873.17s.352,26.213,15.07,40.1c0,0,25.531-2.095,41.185-20.05" transform="translate(-1459.704 -821.665)" fill="none" stroke="#000" stroke-miterlimit="10" stroke-width="0.25"/>
        <path id="Path_12789" data-name="Path 12789" d="M1471.744,889.781s2.625,27.785,12.017,37.2c0,0,22.535,4.218,50.172-15.406" transform="translate(-1460.586 -819.974)" fill="none" stroke="#000" stroke-miterlimit="10" stroke-width="0.25"/>
      </g>
      <g id="Group_3679" data-name="Group 3679" transform="translate(281.008 51.763)">
        <path id="Path_12790" data-name="Path 12790" d="M1532.693,887.5a46.677,46.677,0,0,1,22.365-12.3c13.6-2.883,26.714-4.678,28.922,14.217s-12.194,52.594-34.07,72.552l-30.568-28.517Z" transform="translate(-1519.341 -873.404)" fill="#cad226" stroke="#231815" stroke-miterlimit="10" stroke-width="0.25"/>
        <path id="Path_12791" data-name="Path 12791" d="M1579.576,877.5s-10.342,4.632-20.591,19.846-24.256,35.691-38.136,37.24" transform="translate(-1519.187 -872.987)" fill="none" stroke="#000" stroke-miterlimit="10" stroke-width="0.25"/>
        <path id="Path_12792" data-name="Path 12792" d="M1564.61,876.682s-3.5,6.026-2.307,11.254a20.531,20.531,0,0,0,12.419-.637" transform="translate(-1514.992 -873.07)" fill="none" stroke="#000" stroke-miterlimit="10" stroke-width="0.25"/>
        <path id="Path_12793" data-name="Path 12793" d="M1553.308,879.343s-7.69,16.147-4.7,28.853c.862.067,15.119,1.28,27.557-7.518" transform="translate(-1516.431 -872.799)" fill="none" stroke="#000" stroke-miterlimit="10" stroke-width="0.25"/>
        <path id="Path_12794" data-name="Path 12794" d="M1540.879,883.932s-10.88,15.062-3.215,38.827c0,0,18.76,4.451,33.487-2.222" transform="translate(-1517.754 -872.332)" fill="none" stroke="#000" stroke-miterlimit="10" stroke-width="0.25"/>
        <path id="Path_12795" data-name="Path 12795" d="M1562.508,933.282s-24.426,9.391-38.4-4.708" transform="translate(-1518.856 -867.787)" fill="none" stroke="#000" stroke-miterlimit="10" stroke-width="0.25"/>
      </g>
      <g id="Group_3680" data-name="Group 3680" transform="translate(0 110.979)">
        <path id="Path_12796" data-name="Path 12796" d="M1264.322,958.823c-.4-4.749,5-3.852,12.411-9,11.641-8.094,23.049-4.806,42.159-10.117s84.711-29.038,84.711,7.1c0,2.365-14.857,35.658-14.857,35.658s-17.519,13.747-38,14.3-27.931,2.445-43.291-9.572S1265.307,970.643,1264.322,958.823Z" transform="translate(-1264.301 -927.148)" fill="#cad226" stroke="#231815" stroke-miterlimit="10" stroke-width="0.25"/>
        <path id="Path_12797" data-name="Path 12797" d="M1264.32,956.338s23.64-6.9,50.038-4.137,32.112,1.97,50.434,6.5,34.745-3.575,34.745-3.575" transform="translate(-1264.299 -924.664)" fill="none" stroke="#000" stroke-miterlimit="10" stroke-width="0.25"/>
        <path id="Path_12798" data-name="Path 12798" d="M1296.571,944.665c.383,0,7.146,2.412,9.06,7.586,0,0-7.019,11.081-26.032,12.211" transform="translate(-1262.744 -925.365)" fill="none" stroke="#000" stroke-miterlimit="10" stroke-width="0.25"/>
        <path id="Path_12799" data-name="Path 12799" d="M1323.439,940.38c1.148.128,11.637,7.743,11.5,15.164,0,0-6.01,13.291-34.722,18.65" transform="translate(-1260.645 -925.801)" fill="none" stroke="#000" stroke-miterlimit="10" stroke-width="0.25"/>
        <path id="Path_12800" data-name="Path 12800" d="M1343.016,940.38s12.732,7.4,13.32,18.693c0,0-13.3,22.668-40.364,25.721" transform="translate(-1259.04 -925.801)" fill="none" stroke="#000" stroke-miterlimit="10" stroke-width="0.25"/>
        <path id="Path_12801" data-name="Path 12801" d="M1358.47,939.917s11.7,6.108,18.105,21.049c0,0-7.167,19.273-32.815,25.908" transform="translate(-1256.211 -925.848)" fill="none" stroke="#000" stroke-miterlimit="10" stroke-width="0.25"/>
      </g>
      <g id="Group_3681" data-name="Group 3681" transform="translate(71.674 68.55)">
        <path id="Path_12802" data-name="Path 12802" d="M1365.006,927.29c.435.29,4.493,10,15.653,12.754l.869-3.189s-7.99-2.761-11.859-13.043Z" transform="translate(-1325.721 -885.059)" fill="#a5b63d" stroke="#231815" stroke-miterlimit="10" stroke-width="0.25"/>
        <path id="Path_12803" data-name="Path 12803" d="M1352.192,911.777s-2.887-5,0-13.1,10.213-12.543,15.1-8.547,1.665,15.319-4.774,21.091S1352.024,914.786,1352.192,911.777Z" transform="translate(-1327.157 -888.64)" fill="#fff6eb" stroke="#000" stroke-miterlimit="10" stroke-width="0.25"/>
        <path id="Path_12804" data-name="Path 12804" d="M1359.854,911.251s5.106,10.1-5,21.758-25.2,9.228-22.092-1.38S1346.866,912.139,1359.854,911.251Z" transform="translate(-1329.046 -886.338)" fill="#fff6eb" stroke="#000" stroke-miterlimit="10" stroke-width="0.25"/>
        <path id="Path_12805" data-name="Path 12805" d="M1360.978,913.723s-3.342-9.1-12.883-9.435-16.2,4.106-18.2,9.435,1.332,9.991,13.1,7.993S1360.978,913.723,1360.978,913.723Z" transform="translate(-1329.352 -887.049)" fill="#fff6eb" stroke="#000" stroke-miterlimit="10" stroke-width="0.25"/>
        <path id="Path_12806" data-name="Path 12806" d="M1361.455,912.718c1.341.08,12.1,3.269,12.211,9.486s-10.324,12.877-16.984,10.1S1351.464,912.112,1361.455,912.718Z" transform="translate(-1326.984 -886.19)" fill="#fff6eb" stroke="#000" stroke-miterlimit="10" stroke-width="0.25"/>
        <path id="Path_12807" data-name="Path 12807" d="M1356.507,911.141s1.442-5.44,7.992-9.88,14.986-4.329,18.871,1.666-2.329,14.529-10.1,17.254S1358.949,919.134,1356.507,911.141Z" transform="translate(-1326.587 -887.672)" fill="#fff6eb" stroke="#000" stroke-miterlimit="10" stroke-width="0.25"/>
      </g>
      <g id="Group_3682" data-name="Group 3682" transform="translate(44.858 47.142)">
        <ellipse id="Ellipse_2296" data-name="Ellipse 2296" cx="2.645" cy="1.678" rx="2.645" ry="1.678" transform="translate(78.054 16.982)" fill="#fff6eb" stroke="#000" stroke-miterlimit="10" stroke-width="0.25"/>
        <ellipse id="Ellipse_2297" data-name="Ellipse 2297" cx="2.543" cy="1.831" rx="2.543" ry="1.831" transform="translate(70.222 2.335)" fill="#fff6eb" stroke="#000" stroke-miterlimit="10" stroke-width="0.25"/>
        <ellipse id="Ellipse_2298" data-name="Ellipse 2298" cx="2.589" cy="1.824" rx="2.589" ry="1.824" transform="matrix(0.904, -0.428, 0.428, 0.904, 56.083, 4.24)" fill="#fff6eb" stroke="#000" stroke-miterlimit="10" stroke-width="0.25"/>
        <ellipse id="Ellipse_2299" data-name="Ellipse 2299" cx="2.039" cy="1.457" rx="2.039" ry="1.457" transform="translate(51.419 11.485) rotate(-45)" fill="#fff6eb" stroke="#000" stroke-miterlimit="10" stroke-width="0.25"/>
        <ellipse id="Ellipse_2300" data-name="Ellipse 2300" cx="2.039" cy="1.457" rx="2.039" ry="1.457" transform="translate(50.902 21.166) rotate(-30)" fill="#fff6eb" stroke="#000" stroke-miterlimit="10" stroke-width="0.25"/>
        <ellipse id="Ellipse_2301" data-name="Ellipse 2301" cx="1.745" cy="1.365" rx="1.745" ry="1.365" transform="translate(43.346 24.147) rotate(-30)" fill="#fff6eb" stroke="#000" stroke-miterlimit="10" stroke-width="0.25"/>
        <ellipse id="Ellipse_2302" data-name="Ellipse 2302" cx="2.427" cy="1.739" rx="2.427" ry="1.739" transform="translate(35.835 2.427) rotate(-30)" fill="#fff6eb" stroke="#000" stroke-miterlimit="10" stroke-width="0.25"/>
        <ellipse id="Ellipse_2303" data-name="Ellipse 2303" cx="2.199" cy="1.726" rx="2.199" ry="1.726" transform="translate(35.639 30.392) rotate(-45)" fill="#fff6eb" stroke="#000" stroke-miterlimit="10" stroke-width="0.25"/>
        <ellipse id="Ellipse_2304" data-name="Ellipse 2304" cx="2.809" cy="1.473" rx="2.809" ry="1.473" transform="translate(14.377 65.829) rotate(-77.512)" fill="#fff6eb" stroke="#000" stroke-miterlimit="10" stroke-width="0.25"/>
        <ellipse id="Ellipse_2305" data-name="Ellipse 2305" cx="2.809" cy="1.473" rx="2.809" ry="1.473" transform="translate(22.748 12.018) rotate(-45)" fill="#fff6eb" stroke="#000" stroke-miterlimit="10" stroke-width="0.25"/>
        <ellipse id="Ellipse_2306" data-name="Ellipse 2306" cx="2.459" cy="1.625" rx="2.459" ry="1.625" transform="translate(24.873 25.772) rotate(-20.466)" fill="#fff6eb" stroke="#000" stroke-miterlimit="10" stroke-width="0.25"/>
        <ellipse id="Ellipse_2307" data-name="Ellipse 2307" cx="2.459" cy="1.625" rx="2.459" ry="1.625" transform="translate(11.353 23.199) rotate(-45)" fill="#fff6eb" stroke="#000" stroke-miterlimit="10" stroke-width="0.25"/>
        <ellipse id="Ellipse_2308" data-name="Ellipse 2308" cx="2.234" cy="1.328" rx="2.234" ry="1.328" transform="matrix(0.613, -0.79, 0.79, 0.613, 13.105, 36.088)" fill="#fff6eb" stroke="#000" stroke-miterlimit="10" stroke-width="0.25"/>
        <ellipse id="Ellipse_2309" data-name="Ellipse 2309" cx="2.234" cy="1.328" rx="2.234" ry="1.328" transform="matrix(0.613, -0.79, 0.79, 0.613, 0, 41.87)" fill="#fff6eb" stroke="#000" stroke-miterlimit="10" stroke-width="0.25"/>
        <path id="Path_12808" data-name="Path 12808" d="M1308.162,907.089s28.938,22.021,54.973,7.038c0,0-8.082,15.228-40.58,14.95" transform="translate(-1304.693 -865.353)" fill="none" stroke="#000" stroke-miterlimit="10" stroke-width="0.25"/>
        <path id="Path_12809" data-name="Path 12809" d="M1382.046,889.158s-4.49,16.5-22.257,28.436c0,0,.369-21.455-18.765-44.548" transform="translate(-1301.347 -868.819)" fill="none" stroke="#000" stroke-miterlimit="10" stroke-width="0.25"/>
        <path id="Path_12810" data-name="Path 12810" d="M1330.3,880.206s22.389,17.476,31.624,36.659c0,0-19.229,3.1-41.869-12.821" transform="translate(-1303.482 -868.09)" fill="none" stroke="#000" stroke-miterlimit="10" stroke-width="0.25"/>
        <path id="Path_12811" data-name="Path 12811" d="M1361.335,875.046s7.6,18.99-1.542,42.344c0,0-9.524-13.807-18.806-17.5" transform="translate(-1301.351 -868.616)" fill="none" stroke="#000" stroke-miterlimit="10" stroke-width="0.25"/>
        <path id="Path_12812" data-name="Path 12812" d="M1318.981,892.413s20.3,19.149,43.053,25.017c0,0,15.544-13.891,14.322-42.778" transform="translate(-1303.592 -868.656)" fill="none" stroke="#000" stroke-miterlimit="10" stroke-width="0.25"/>
        <path id="Path_12813" data-name="Path 12813" d="M1330.711,894.8s16.649,16.035,30.128,20.818c0,0-3.386-15.882-12.219-23.135" transform="translate(-1302.397 -866.841)" fill="none" stroke="#000" stroke-miterlimit="10" stroke-width="0.25"/>
        <path id="Path_12814" data-name="Path 12814" d="M1354.137,890.761s7.768,12.435,4.317,26.1a41.571,41.571,0,0,0-3.522-36.671" transform="translate(-1300.012 -868.092)" fill="none" stroke="#000" stroke-miterlimit="10" stroke-width="0.25"/>
      </g>
    </g>
    <g id="Group_3685" data-name="Group 3685" transform="translate(1372.832 852.413)">
      <path id="Path_12815" data-name="Path 12815" d="M1427.126,853.333s8.625-3.03,16.986,0,17.156,12.592,21.961,27.935,7.594,26.346,18.133,37.04,22.005,29.053,12.115,57.179-20.372,37.356-35.362,35.155-15.619-5.766-22.327-2.2-10.378,3.354-17.716,1.572-8.28,1.048-15.618,2.725-26,2.412-37.527-12.474-1.018-38.292,11.517-56.064,10.352-29.65,12.129-47.683S1400.862,851.045,1427.126,853.333Z" transform="translate(-1362.803 -849.81)" fill="#ea6157" stroke="#000" stroke-linejoin="round" stroke-width="0.25"/>
      <path id="Path_12816" data-name="Path 12816" d="M1419.791,900.469s3.3,41.654-8.89,64.514" transform="translate(-1357.905 -844.873)" fill="none" stroke="#000" stroke-miterlimit="10" stroke-width="0.25"/>
      <path id="Path_12817" data-name="Path 12817" d="M1405.122,915.914s-.508,27.431-17.272,45.211" transform="translate(-1360.253 -843.301)" fill="none" stroke="#000" stroke-miterlimit="10" stroke-width="0.25"/>
      <path id="Path_12818" data-name="Path 12818" d="M1440.409,908.076s1.27,35.559,23.367,43.687" transform="translate(-1354.901 -844.099)" fill="none" stroke="#000" stroke-miterlimit="10" stroke-width="0.25"/>
      <path id="Path_12819" data-name="Path 12819" d="M1455.623,922.829s3.3,11.43,20.065,18.034" transform="translate(-1353.352 -842.597)" fill="none" stroke="#000" stroke-miterlimit="10" stroke-width="0.25"/>
      <path id="Path_12820" data-name="Path 12820" d="M1407.063,979.768s-3.337,7.658,3.049,12.446" transform="translate(-1358.385 -836.799)" fill="none" stroke="#000" stroke-miterlimit="10" stroke-width="0.25"/>
      <path id="Path_12821" data-name="Path 12821" d="M1373.559,980.69a6.522,6.522,0,0,0,4.064,6.6" transform="translate(-1361.709 -836.705)" fill="none" stroke="#000" stroke-miterlimit="10" stroke-width="0.25"/>
      <ellipse id="Ellipse_2310" data-name="Ellipse 2310" cx="2.332" cy="1.47" rx="2.332" ry="1.47" transform="matrix(0.758, -0.652, 0.652, 0.758, 41.771, 17.076)" fill="#dffffa" stroke="#231815" stroke-miterlimit="10" stroke-width="0.25"/>
      <ellipse id="Ellipse_2311" data-name="Ellipse 2311" cx="2.213" cy="2.912" rx="2.213" ry="2.912" transform="translate(77.653 9.704) rotate(-45)" fill="#dffffa" stroke="#231815" stroke-miterlimit="10" stroke-width="0.25"/>
      <ellipse id="Ellipse_2312" data-name="Ellipse 2312" cx="3.238" cy="4.797" rx="3.238" ry="4.797" transform="translate(83.097 18.518) rotate(-45)" fill="#dffffa" stroke="#231815" stroke-miterlimit="10" stroke-width="0.25"/>
      <g id="Group_3684" data-name="Group 3684" transform="translate(59.537 0)">
        <path id="Path_12822" data-name="Path 12822" d="M1426.286,855.7a1.35,1.35,0,0,0,.036-.42,1.31,1.31,0,0,0-.094-.32l-.214-2.758-8.959.895.307,3.076c.134,1.332,2.247,2.213,4.72,1.964,2.195-.218,3.928-1.25,4.2-2.411h0Z" transform="translate(-1416.816 -849.788)" fill="#ea6157" stroke="#000" stroke-linejoin="round" stroke-width="0.25"/>
        <ellipse id="Ellipse_2313" data-name="Ellipse 2313" cx="4.502" cy="2.424" rx="4.502" ry="2.424" transform="translate(0 0.894) rotate(-5.698)" fill="#fbc6a6" stroke="#000" stroke-linejoin="round" stroke-width="0.25"/>
      </g>
    </g>
    <g id="Group_3687" data-name="Group 3687" transform="translate(1435.545 927.485)">
      <path id="Path_12823" data-name="Path 12823" d="M1525.74,1049.621c12.2.174,20.746-2.354,30.247-8.716a25.8,25.8,0,0,0,11.157-27.807c-2.528-10.722-12.029-12.9-19.7-15.081s-11.68-7.41-13.162-12.552-2.7-1.918-6.015-5.317-7.849-14.76-4.1-26.184,5-20.7,0-27.906a21.376,21.376,0,0,0-7.882-6.783c-9.548-2.266-20.28-1.648-32.2,6.783-19.725,13.955-22.221,31.239-29.886,49.465s-16.555,29.962-26.292,38.951-10.671,21.6-3.43,38.076c0,0,10.5,14.622,26.995,9,1.669-.57,3.426-1.049,5.224-1.482,8.945-3.895,24.385-6.429,36.511-8.874C1507.343,1048.34,1513.536,1049.447,1525.74,1049.621Z" transform="translate(-1419.72 -918.146)" fill="#fff6eb" stroke="#000" stroke-miterlimit="10" stroke-width="0.25"/>
      <path id="Path_12824" data-name="Path 12824" d="M1519.945,953.8a17.374,17.374,0,0,1,15.821,9.3" transform="translate(-1409.515 -914.517)" fill="none" stroke="#000" stroke-miterlimit="10" stroke-width="0.25"/>
      <path id="Path_12825" data-name="Path 12825" d="M1537.026,969.095a6.247,6.247,0,0,1,2.623,5.186,12.323,12.323,0,0,0,1.622,5.948" transform="translate(-1407.776 -912.958)" fill="none" stroke="#000" stroke-miterlimit="10" stroke-width="0.25"/>
      <path id="Path_12826" data-name="Path 12826" d="M1517.767,959.991a6.79,6.79,0,0,1,6.224,2.915" transform="translate(-1409.737 -913.89)" fill="none" stroke="#000" stroke-miterlimit="10" stroke-width="0.25"/>
      <path id="Path_12827" data-name="Path 12827" d="M1536.175,977.068s2.25,2.242-.375,8.172" transform="translate(-1407.901 -912.146)" fill="none" stroke="#000" stroke-miterlimit="10" stroke-width="0.25"/>
      <path id="Path_12828" data-name="Path 12828" d="M1521.078,954.75c5.242-1.011,11.68-1.656,14.255,2.759,2.38,4.08,7.747,10.117,15.009,7.161.624-.874,5.124-7.67,1.538-17.384-3.843-10.415-14.048-14.812-27.281-21.332-5.237-2.581-10.984-5.3-17.238-6.783a21.377,21.377,0,0,1,7.883,6.783c4.7,6.77,3.874,15.377.645,25.874C1516.4,953.371,1517.721,955.4,1521.078,954.75Z" transform="translate(-1410.797 -918.042)" fill="#ea6157" stroke="#000" stroke-linejoin="round" stroke-width="0.25"/>
      <path id="Path_12829" data-name="Path 12829" d="M1572.515,979.156c-3.755-9.719-10.554-10.093-12-10.059-8.191,1.96-10.849,7.22-10.849,13.4a40.82,40.82,0,0,0,2.523,12.919c5.192,2.091,9.875,5.44,11.536,12.491a25.8,25.8,0,0,1-11.157,27.807c-9.5,6.363-18.045,8.891-30.247,8.716s-18.4-1.28-32.533,1.571c-12.126,2.445-27.566,4.979-36.511,8.874,15.97-3.853,36.316-2.794,48.954-4.143,14.059-1.5,26.995,1.5,43.491-1.687s27.183-16.872,28.87-28.87S1576.731,990.067,1572.515,979.156Z" transform="translate(-1416.303 -912.958)" fill="#ea6157" stroke="#000" stroke-linejoin="round" stroke-width="0.25"/>
      <path id="Path_12830" data-name="Path 12830" d="M1554.412,971.162c-.176,0-.278.014-.278.014-6.82-3.1-4.465-9.425-4.465-9.425s.029-.038.074-.1c-7.262,2.956-12.629-3.081-15.009-7.161-2.575-4.415-9.013-3.77-14.255-2.759-3.356.648-4.673-1.378-5.189-2.922q-.309,1-.646,2.032c-3.748,11.424.789,22.784,4.1,26.184a7.923,7.923,0,0,0,1.216,1.036,3.667,3.667,0,0,1,2.986-1.487,3.492,3.492,0,0,1,3.6,3.372,3.321,3.321,0,0,1-1.651,2.828c1.578,5,5.568,10,13.025,12.121a80.505,80.505,0,0,1,8.163,2.589,40.824,40.824,0,0,1-2.523-12.919C1543.564,978.383,1546.221,973.123,1554.412,971.162Z" transform="translate(-1410.198 -915.024)" fill="#fbc6a6" stroke="#000" stroke-linejoin="round" stroke-width="0.25"/>
      <path id="Path_12831" data-name="Path 12831" d="M1525.927,977.379a3.492,3.492,0,0,0-3.6-3.372,3.666,3.666,0,0,0-2.986,1.487c2.424,1.646,3.514-.176,4.8,4.282.041.143.091.288.138.431A3.321,3.321,0,0,0,1525.927,977.379Z" transform="translate(-1409.577 -912.458)" fill="none" stroke="#000" stroke-miterlimit="10" stroke-width="0.25"/>
      <path id="Path_12832" data-name="Path 12832" d="M1529.744,931.973s3.873,8.535.528,14.676" transform="translate(-1408.517 -916.738)" fill="none" stroke="#000" stroke-miterlimit="10" stroke-width="0.25"/>
      <path id="Path_12833" data-name="Path 12833" d="M1536.524,951.485s4.043-2.46,4.043-6.591" transform="translate(-1407.827 -915.422)" fill="none" stroke="#000" stroke-miterlimit="10" stroke-width="0.25"/>
      <path id="Path_12834" data-name="Path 12834" d="M1551.168,976.822s6.691-.749,9.46,10.1" transform="translate(-1406.336 -912.173)" fill="none" stroke="#000" stroke-miterlimit="10" stroke-width="0.25"/>
      <path id="Path_12835" data-name="Path 12835" d="M1547.084,983.827s3.461-1.06,5.538,1.247" transform="translate(-1406.752 -911.483)" fill="none" stroke="#000" stroke-miterlimit="10" stroke-width="0.25"/>
      <path id="Path_12836" data-name="Path 12836" d="M1538.716,963.752a5.062,5.062,0,0,1,3.729-.679" transform="translate(-1407.604 -913.584)" fill="none" stroke="#000" stroke-miterlimit="10" stroke-width="0.25"/>
      <path id="Path_12837" data-name="Path 12837" d="M1541.434,971.179a7.04,7.04,0,0,0,3.389-3.04" transform="translate(-1407.327 -913.056)" fill="none" stroke="#000" stroke-miterlimit="10" stroke-width="0.25"/>
      <path id="Path_12838" data-name="Path 12838" d="M1540.879,968.275a3.957,3.957,0,0,1,2.306-1.47" transform="translate(-1407.384 -913.191)" fill="none" stroke="#000" stroke-miterlimit="10" stroke-width="0.25"/>
      <path id="Path_12839" data-name="Path 12839" d="M1540.193,965.5a3.172,3.172,0,0,1,2.328-.791" transform="translate(-1407.453 -913.409)" fill="none" stroke="#000" stroke-miterlimit="10" stroke-width="0.25"/>
      <path id="Path_12840" data-name="Path 12840" d="M1501.588,933.209c7.644,1.934,3.04,11.709,5.066,16.17" transform="translate(-1411.384 -916.612)" fill="none" stroke="#000" stroke-miterlimit="10" stroke-width="0.25"/>
      <path id="Path_12841" data-name="Path 12841" d="M1508.444,935.2a16.947,16.947,0,0,1,.345,8.764" transform="translate(-1410.686 -916.409)" fill="none" stroke="#000" stroke-miterlimit="10" stroke-width="0.25"/>
      <ellipse id="Ellipse_2314" data-name="Ellipse 2314" cx="2.781" cy="1.972" rx="2.781" ry="1.972" transform="translate(68.073 16.539) rotate(-45)" fill="#dffffa" stroke="#231815" stroke-miterlimit="10" stroke-width="0.25"/>
      <ellipse id="Ellipse_2315" data-name="Ellipse 2315" cx="4.659" cy="3.048" rx="4.659" ry="3.048" transform="translate(56.745 27.073) rotate(-37.777)" fill="#dffffa" stroke="#231815" stroke-miterlimit="10" stroke-width="0.25"/>
      <path id="Path_12842" data-name="Path 12842" d="M1537.895,1003.728s6.773,2.458,3.288,14.353" transform="translate(-1407.687 -909.432)" fill="none" stroke="#000" stroke-miterlimit="10" stroke-width="0.25"/>
      <path id="Path_12843" data-name="Path 12843" d="M1545.59,1007.3a13.366,13.366,0,0,1-2.163,13.273" transform="translate(-1407.124 -909.068)" fill="none" stroke="#000" stroke-miterlimit="10" stroke-width="0.25"/>
      <path id="Path_12844" data-name="Path 12844" d="M1507.361,984.915c.119-.13,8.181.263,12.309-4.653" transform="translate(-1410.797 -911.821)" fill="none" stroke="#000" stroke-miterlimit="10" stroke-width="0.25"/>
      <path id="Path_12845" data-name="Path 12845" d="M1513.234,986.812a14.446,14.446,0,0,1,4.995-2.327" transform="translate(-1410.198 -911.391)" fill="none" stroke="#000" stroke-miterlimit="10" stroke-width="0.25"/>
      <path id="Path_12846" data-name="Path 12846" d="M1511.478,989.809c-2.163.885-4.227,3.441-4.62,7.865s-4.228,10.323-11.6,14.649-17.7,4.129-23.3,7.176" transform="translate(-1414.401 -910.849)" fill="none" stroke="#000" stroke-miterlimit="10" stroke-width="0.25"/>
      <path id="Path_12847" data-name="Path 12847" d="M1464.017,1015.6c4.228-1.77,5.3-9.479,6.875-15.87s9.837-21.153,31.466-15.815" transform="translate(-1415.21 -911.566)" fill="none" stroke="#000" stroke-miterlimit="10" stroke-width="0.25"/>
      <path id="Path_12848" data-name="Path 12848" d="M1476.241,1011.523s18.384,1.386,24.872-13.858" transform="translate(-1413.965 -910.049)" fill="none" stroke="#000" stroke-miterlimit="10" stroke-width="0.25"/>
      <g id="Group_3686" data-name="Group 3686" transform="translate(64.88 81.811)">
        <path id="Path_12849" data-name="Path 12849" d="M1498.239,1002.768c.01-.181.027-.358.027-.541a9.831,9.831,0,1,0-13.766,9.006A23.5,23.5,0,0,0,1498.239,1002.768Z" transform="translate(-1478.605 -992.397)" fill="#c19165" stroke="#000" stroke-linejoin="round" stroke-width="0.25"/>
      </g>
      <path id="Path_12850" data-name="Path 12850" d="M1428.82,1021.87s.5-7,4.612-9.308" transform="translate(-1418.794 -908.532)" fill="none" stroke="#000" stroke-miterlimit="10" stroke-width="0.25"/>
      <path id="Path_12851" data-name="Path 12851" d="M1433.006,1021.443a6.528,6.528,0,0,1,2.432-4.688" transform="translate(-1418.367 -908.105)" fill="none" stroke="#000" stroke-miterlimit="10" stroke-width="0.25"/>
      <path id="Path_12852" data-name="Path 12852" d="M1451.593,1025.758a15.3,15.3,0,0,0,8.7-5.7" transform="translate(-1416.475 -907.769)" fill="none" stroke="#000" stroke-miterlimit="10" stroke-width="0.25"/>
      <path id="Path_12853" data-name="Path 12853" d="M1447.6,1033.668a31.519,31.519,0,0,1,16.553-10.474" transform="translate(-1416.881 -907.45)" fill="none" stroke="#000" stroke-miterlimit="10" stroke-width="0.25"/>
    </g>
    <g id="Group_3688" data-name="Group 3688" transform="translate(1307.458 1002.011)">
      <path id="Path_12854" data-name="Path 12854" d="M1312.113,995.251s1.712-2.036,7.3-2.747,12.8,1.374,12.8,1.374l-3.049,16.35-12.5-3.295Z" transform="translate(-1302.59 -985.115)" fill="#ea6157" stroke="#000" stroke-linejoin="round" stroke-width="0.25"/>
      <path id="Path_12855" data-name="Path 12855" d="M1468.533,1048.067s3.581,15.107-12.719,19.612-25.708-.132-37.635-5.565-32.864-5.964-53.4-5.3-39.092.265-52.741-14.047-6.891-34.19-6.891-34.19l78.582,9.674,45.983,17.757,28.756,13.119Z" transform="translate(-1303.47 -983.464)" fill="#ea6157" stroke="#000" stroke-linejoin="round" stroke-width="0.25"/>
      <path id="Path_12856" data-name="Path 12856" d="M1305,1010.36a32.842,32.842,0,0,1,2.834-9.788c2.414-5.336,4.64-5.859,6.363-4.675s-.647,5.278,4.523,5.709,8.292-4.2,9.262-9.478l23.047-1.064s.431,6.988,11.523,10.542,96.807,49.2,96.807,49.2l6.651-1.616a2.04,2.04,0,0,1,2.38.666s-2.251,6.879-11.537,9.007a36.969,36.969,0,0,1-25.439-3.448c-6.456-3.657-19.416-11.1-37.336-12.223s-42.151,1.916-54.549,1.015-21.968-3.67-28.4-12.51A31.994,31.994,0,0,1,1305,1010.36Z" transform="translate(-1303.325 -985.247)" fill="#fbc6a6" stroke="#000" stroke-linejoin="round" stroke-width="0.25"/>
      <path id="Path_12857" data-name="Path 12857" d="M1309.413,1000.092c1.454-2.974,3.889-3.6,4.175-1.3s-2.565,5.439,1.33,6.674,7.409-.664,13.3-1.994,25.1-5.346,41.121-1.863,19.225,10.155,31.773,12.493c0,0,7.756,6.7,15.159,8.255s13.144,6.765,19.952,10.9,12.683,4.806,17.356,7.877,3.671,6.641,12.194,7.4c0,0-3.3,6.011-9.354,7.1s-11.894,2.182-20.14-.879-11.164-8.377-24.487-12.218-39.25-2.823-49.332-2.372-29.408,1.892-42.251-4.95S1304.675,1009.78,1309.413,1000.092Z" transform="translate(-1303.088 -984.602)" fill="#fff6eb" stroke="#000" stroke-miterlimit="10" stroke-width="0.25"/>
      <path id="Path_12858" data-name="Path 12858" d="M1314.3,1013.732s.664,15.731,15.509,19.5" transform="translate(-1302.368 -982.939)" fill="none" stroke="#000" stroke-miterlimit="10" stroke-width="0.25"/>
      <path id="Path_12859" data-name="Path 12859" d="M1325.759,1025.194s2.547,3.656,6.2,4.653" transform="translate(-1301.201 -981.772)" fill="none" stroke="#000" stroke-miterlimit="10" stroke-width="0.25"/>
      <path id="Path_12860" data-name="Path 12860" d="M1330.786,1023.887s6.757,5.428,13.958,4.985" transform="translate(-1300.689 -981.905)" fill="none" stroke="#000" stroke-miterlimit="10" stroke-width="0.25"/>
      <path id="Path_12861" data-name="Path 12861" d="M1331.389,997.4a3.406,3.406,0,0,0,1.462,2.316" transform="translate(-1300.627 -984.602)" fill="none" stroke="#000" stroke-miterlimit="10" stroke-width="0.25"/>
      <path id="Path_12862" data-name="Path 12862" d="M1334.187,997.634a7.4,7.4,0,0,1,2.54,2.058" transform="translate(-1300.343 -984.578)" fill="none" stroke="#000" stroke-miterlimit="10" stroke-width="0.25"/>
      <path id="Path_12863" data-name="Path 12863" d="M1337.923,996.919a4.848,4.848,0,0,0,2.8,2.189" transform="translate(-1299.962 -984.651)" fill="none" stroke="#000" stroke-miterlimit="10" stroke-width="0.25"/>
      <path id="Path_12864" data-name="Path 12864" d="M1390.811,1048.7s7-.518,11.578,3.2" transform="translate(-1294.577 -979.381)" fill="none" stroke="#000" stroke-miterlimit="10" stroke-width="0.25"/>
      <path id="Path_12865" data-name="Path 12865" d="M1422.726,1045.635s3.543,3.666,8.036,3.345" transform="translate(-1291.328 -979.69)" fill="none" stroke="#000" stroke-miterlimit="10" stroke-width="0.25"/>
      <path id="Path_12866" data-name="Path 12866" d="M1427.2,1045.635a3.52,3.52,0,0,0,3.111.864" transform="translate(-1290.873 -979.69)" fill="none" stroke="#000" stroke-miterlimit="10" stroke-width="0.25"/>
      <ellipse id="Ellipse_2316" data-name="Ellipse 2316" cx="2.453" cy="4.497" rx="2.453" ry="4.497" transform="translate(72.599 23.164) rotate(-57.184)" fill="#dffffa" stroke="#231815" stroke-miterlimit="10" stroke-width="0.25"/>
      <ellipse id="Ellipse_2317" data-name="Ellipse 2317" cx="11.749" cy="5.327" rx="11.749" ry="5.327" transform="translate(24.082 1.018) rotate(-2.483)" fill="#ea6157" stroke="#000" stroke-linejoin="round" stroke-width="0.25"/>
    </g>
    <path id="Path_12867" data-name="Path 12867" d="M1558.959,932.847" transform="translate(30.002 10.836)" fill="none" stroke="#000" stroke-miterlimit="10" stroke-width="0.25"/>
    <g id="Group_3689" data-name="Group 3689" transform="translate(1488.368 1069.552)">
      <ellipse id="Ellipse_2318" data-name="Ellipse 2318" cx="1.347" cy="2.631" rx="1.347" ry="2.631" transform="translate(20.706 20.997)" fill="#fff6eb" stroke="#000" stroke-miterlimit="10" stroke-width="0.25"/>
      <ellipse id="Ellipse_2319" data-name="Ellipse 2319" cx="1.228" cy="2.308" rx="1.228" ry="2.308" transform="translate(24.713 11.515) rotate(-23.734)" fill="#fff6eb" stroke="#000" stroke-miterlimit="10" stroke-width="0.25"/>
      <ellipse id="Ellipse_2320" data-name="Ellipse 2320" cx="1.415" cy="2.643" rx="1.415" ry="2.643" transform="translate(26.805 1.657) rotate(-35.847)" fill="#fff6eb" stroke="#000" stroke-miterlimit="10" stroke-width="0.25"/>
      <path id="Path_12868" data-name="Path 12868" d="M1479.352,1057.336s10.469-1.842,15.473-6.8" transform="translate(-1466.472 -1046.734)" fill="none" stroke="#000" stroke-miterlimit="10" stroke-width="0.25"/>
      <path id="Path_12869" data-name="Path 12869" d="M1467.662,1057.383s10.78,7.02,25.641,2.281" transform="translate(-1467.662 -1046.036)" fill="none" stroke="#000" stroke-miterlimit="10" stroke-width="0.25"/>
      <path id="Path_12870" data-name="Path 12870" d="M1487.983,1069.481s-12.738-2.176-16.536-10.319" transform="translate(-1467.276 -1045.855)" fill="none" stroke="#000" stroke-miterlimit="10" stroke-width="0.25"/>
    </g>
  </g>
</svg>
