<svg xmlns="http://www.w3.org/2000/svg" width="302.503" height="359.253" viewBox="0 0 302.503 359.253">
  <g id="Group_3650" data-name="Group 3650" transform="translate(-106.166 -770.103)">
    <g id="Group_3614" data-name="Group 3614" transform="translate(127.745 770.244)">
      <path id="Path_12477" data-name="Path 12477" d="M128.463,975.747s-1.2-48.8,21.945-105.677c21.512-52.868,60.258-96.645,83.763-99.506s32.448,14.086,31.5,28.613,10.715,12.766,21.5,7.044,18.928-14.967,30.594-19.81,33.234,3.3,40.278,32.575-14.307,45.121-14.307,45.121-32.15,74.923-91.768,108.647C195.764,1004.544,128.463,975.747,128.463,975.747Z" transform="translate(-128.452 -770.245)" fill="#ddd658" stroke="#000" stroke-linejoin="round" stroke-width="0.25"/>
      <path id="Path_12478" data-name="Path 12478" d="M273.7,810.227a113.653,113.653,0,0,0-21.614,42.045S238.3,825.9,253.781,787.44" transform="translate(-132.214 -770.793)" fill="none" stroke="#000" stroke-linejoin="round" stroke-width="0.25"/>
      <path id="Path_12479" data-name="Path 12479" d="M212.792,805.432s4.839,25.642,38.223,47.414c46.447-17.417,75.96-46.689,75.96-47.414" transform="translate(-131.142 -771.367)" fill="none" stroke="#000" stroke-linejoin="round" stroke-width="0.25"/>
      <path id="Path_12480" data-name="Path 12480" d="M328.194,836.167s-38.223,30-77.9,17.659c-31.691,3.145-59.995-7.5-59.995-7.5" transform="translate(-130.425 -772.347)" fill="none" stroke="#000" stroke-linejoin="round" stroke-width="0.25"/>
      <path id="Path_12481" data-name="Path 12481" d="M168.265,876.906s48.866,8.709,80.315-22.5c0,0-38.223,88.587-112.121,118.378" transform="translate(-128.708 -772.929)" fill="none" stroke="#000" stroke-linejoin="round" stroke-width="0.25"/>
      <path id="Path_12482" data-name="Path 12482" d="M163.72,898.681s28.245,6.216,64.866-5.833" transform="translate(-129.577 -774.154)" fill="none" stroke="#000" stroke-linejoin="round" stroke-width="0.25"/>
      <path id="Path_12483" data-name="Path 12483" d="M151.725,931.363s29.079,3.219,56.923-11.4" transform="translate(-129.194 -775.019)" fill="none" stroke="#000" stroke-linejoin="round" stroke-width="0.25"/>
      <path id="Path_12484" data-name="Path 12484" d="M252.274,854.408a186.193,186.193,0,0,1,7.979,65.361" transform="translate(-132.401 -772.929)" fill="none" stroke="#000" stroke-linejoin="round" stroke-width="0.25"/>
      <ellipse id="Ellipse_2211" data-name="Ellipse 2211" cx="5.309" cy="3.721" rx="5.309" ry="3.721" transform="translate(204.798 53.163) rotate(-55.96)" fill="#dffffa" stroke="#231815" stroke-miterlimit="10" stroke-width="0.25"/>
      <ellipse id="Ellipse_2212" data-name="Ellipse 2212" cx="4.378" cy="2.96" rx="4.378" ry="2.96" transform="translate(42.742 88.749) rotate(-45)" fill="#dffffa" stroke="#231815" stroke-miterlimit="10" stroke-width="0.25"/>
      <ellipse id="Ellipse_2213" data-name="Ellipse 2213" cx="6.218" cy="2.811" rx="6.218" ry="2.811" transform="translate(28.739 103.197) rotate(-22.525)" fill="#dffffa" stroke="#231815" stroke-miterlimit="10" stroke-width="0.25"/>
    </g>
    <g id="Group_3617" data-name="Group 3617" transform="translate(106.278 1002.747)">
      <ellipse id="Ellipse_2214" data-name="Ellipse 2214" cx="5.121" cy="2.75" rx="5.121" ry="2.75" transform="translate(54.976 113.773)" fill="#c19165" stroke="#000" stroke-linejoin="round" stroke-width="0.25"/>
      <ellipse id="Ellipse_2215" data-name="Ellipse 2215" cx="3.131" cy="1.917" rx="3.131" ry="1.917" transform="translate(195.511 71.589)" fill="#c19165" stroke="#000" stroke-linejoin="round" stroke-width="0.25"/>
      <path id="Path_12485" data-name="Path 12485" d="M343.039,1125.394c6.4-4.067,16.614,3.807,22.151.432" transform="translate(-113.828 -1014.035)" fill="none" stroke="#000" stroke-miterlimit="10" stroke-width="0.25"/>
      <path id="Path_12486" data-name="Path 12486" d="M316.762,1110.882c11.162-3.72,29.16,4.846,36.256.52" transform="translate(-112.99 -1013.58)" fill="none" stroke="#000" stroke-miterlimit="10" stroke-width="0.25"/>
      <ellipse id="Ellipse_2216" data-name="Ellipse 2216" cx="4.634" cy="2.761" rx="4.634" ry="2.761" transform="translate(263.696 82.924)" fill="#ecb36f" stroke="#000" stroke-linejoin="round" stroke-width="0.25"/>
      <ellipse id="Ellipse_2217" data-name="Ellipse 2217" cx="3.719" cy="2.129" rx="3.719" ry="2.129" transform="translate(20.095 43.931)" fill="#ecb36f" stroke="#000" stroke-linejoin="round" stroke-width="0.25"/>
      <ellipse id="Ellipse_2218" data-name="Ellipse 2218" cx="5.456" cy="2.594" rx="5.456" ry="2.594" transform="translate(202.723 75.626)" fill="#ecb36f" stroke="#000" stroke-linejoin="round" stroke-width="0.25"/>
      <path id="Path_12487" data-name="Path 12487" d="M376.928,1112.89s-4.139-.559-5.771.554" transform="translate(-114.725 -1013.67)" fill="none" stroke="#000" stroke-miterlimit="10" stroke-width="0.25"/>
      <ellipse id="Ellipse_2219" data-name="Ellipse 2219" cx="3.423" cy="2.035" rx="3.423" ry="2.035" transform="translate(161.788 104.634)" fill="#c19165" stroke="#000" stroke-linejoin="round" stroke-width="0.25"/>
      <path id="Path_12488" data-name="Path 12488" d="M295.066,1079.438c3.768-2.286,10.367.879,12.626-.377" transform="translate(-112.298 -1012.58)" fill="none" stroke="#000" stroke-miterlimit="10" stroke-width="0.25"/>
      <ellipse id="Ellipse_2220" data-name="Ellipse 2220" cx="4.302" cy="2.167" rx="4.302" ry="2.167" transform="translate(245.92 66.804)" fill="#ecb36f" stroke="#000" stroke-linejoin="round" stroke-width="0.25"/>
      <path id="Path_12489" data-name="Path 12489" d="M354.136,1067.53c1.633-3.517,7.663-4.585,14.885-1.507s10.112-.817,14.256.879" transform="translate(-114.182 -1012.122)" fill="none" stroke="#000" stroke-miterlimit="10" stroke-width="0.25"/>
      <path id="Path_12490" data-name="Path 12490" d="M360.719,1111.131a9.286,9.286,0,0,0,5.275,0" transform="translate(-114.392 -1013.618)" fill="none" stroke="#000" stroke-miterlimit="10" stroke-width="0.25"/>
      <g id="Group_3615" data-name="Group 3615" transform="translate(259.818 40.702)">
        <ellipse id="Ellipse_2221" data-name="Ellipse 2221" cx="3.878" cy="2.241" rx="3.878" ry="2.241" transform="translate(0 1.341)" fill="#ecb36f" stroke="#000" stroke-linejoin="round" stroke-width="0.25"/>
        <ellipse id="Ellipse_2222" data-name="Ellipse 2222" cx="1.957" cy="1.376" rx="1.957" ry="1.376" transform="translate(12.882)" fill="#c19165" stroke="#000" stroke-linejoin="round" stroke-width="0.25"/>
      </g>
      <ellipse id="Ellipse_2223" data-name="Ellipse 2223" cx="3.621" cy="1.714" rx="3.621" ry="1.714" transform="translate(36.807 1.451)" fill="#c19165" stroke="#000" stroke-linejoin="round" stroke-width="0.25"/>
      <ellipse id="Ellipse_2224" data-name="Ellipse 2224" cx="3.241" cy="1.744" rx="3.241" ry="1.744" transform="translate(71.051 108.418)" fill="#c19165" stroke="#000" stroke-linejoin="round" stroke-width="0.25"/>
      <path id="Path_12491" data-name="Path 12491" d="M383.683,1031.984c12.481-7.663,22.407,2.147,33.707-1.011" transform="translate(-115.124 -1010.998)" fill="none" stroke="#000" stroke-miterlimit="10" stroke-width="0.25"/>
      <path id="Path_12492" data-name="Path 12492" d="M106.278,1086.555c2.017,4.106,8.931,4.826,19.086,1.369s15.7,3.33,21.1,2.205" transform="translate(-106.278 -1012.834)" fill="none" stroke="#000" stroke-miterlimit="10" stroke-width="0.25"/>
      <path id="Path_12493" data-name="Path 12493" d="M151.66,1091.8c3.746-3.262,7.563,1.441,9.868-.864" transform="translate(-107.725 -1012.963)" fill="none" stroke="#000" stroke-miterlimit="10" stroke-width="0.25"/>
      <g id="Group_3616" data-name="Group 3616" transform="translate(15.686)">
        <path id="Path_12494" data-name="Path 12494" d="M270.916,1081.973s5.305,5.824,14.6,2.87c10.732-3.41,13.48,1.123,16.475-.375" transform="translate(-127.215 -1012.688)" fill="none" stroke="#020202" stroke-miterlimit="10" stroke-width="0.25"/>
        <path id="Path_12495" data-name="Path 12495" d="M123.048,1021.379c10.005-3.845,16.82,3.463,23.251,0" transform="translate(-122.499 -1010.719)" fill="none" stroke="#020202" stroke-miterlimit="10" stroke-width="0.25"/>
        <ellipse id="Ellipse_2225" data-name="Ellipse 2225" cx="4.3" cy="1.998" rx="4.3" ry="1.998" transform="translate(82.436 122.488)" fill="#ecb36f" stroke="#000" stroke-linejoin="round" stroke-width="0.25"/>
        <ellipse id="Ellipse_2226" data-name="Ellipse 2226" cx="2.866" cy="1.433" rx="2.866" ry="1.433" transform="translate(95.465 119.274)" fill="#ecb36f" stroke="#000" stroke-linejoin="round" stroke-width="0.25"/>
        <ellipse id="Ellipse_2227" data-name="Ellipse 2227" cx="2.403" cy="1.716" rx="2.403" ry="1.716" transform="translate(281.773 6.106)" fill="#c19165" stroke="#000" stroke-linejoin="round" stroke-width="0.25"/>
        <path id="Path_12496" data-name="Path 12496" d="M249.876,1102.169s4.386-3.9,9.615-1.116,9.083-.7,13.945-.719c3.73-.015,10,2.71,14.544,1.422" transform="translate(-126.544 -1013.265)" fill="none" stroke="#231815" stroke-miterlimit="10" stroke-width="0.25"/>
        <path id="Path_12497" data-name="Path 12497" d="M376.753,1010.538s2.853-.653,7.786.951,7.785,0,7.785,0" transform="translate(-130.59 -1010.406)" fill="none" stroke="#231815" stroke-miterlimit="10" stroke-width="0.25"/>
        <path id="Path_12498" data-name="Path 12498" d="M139.488,1068.547a3.816,3.816,0,0,1,2.937.2,5.38,5.38,0,0,0,4.058.216" transform="translate(-123.023 -1012.254)" fill="none" stroke="#231815" stroke-miterlimit="10" stroke-width="0.25"/>
        <path id="Path_12499" data-name="Path 12499" d="M122.481,1075.036a9.528,9.528,0,0,1,10.036-.545,8.786,8.786,0,0,0,9.926-1.181" transform="translate(-122.481 -1012.412)" fill="none" stroke="#231815" stroke-miterlimit="10" stroke-width="0.25"/>
        <ellipse id="Ellipse_2228" data-name="Ellipse 2228" cx="3.266" cy="1.771" rx="3.266" ry="1.771" transform="translate(253.044 9.341)" fill="#c19165" stroke="#000" stroke-linejoin="round" stroke-width="0.25"/>
      </g>
    </g>
    <g id="Group_3620" data-name="Group 3620" transform="translate(163.278 846.266)">
      <g id="Group_3618" data-name="Group 3618">
        <path id="Path_12500" data-name="Path 12500" d="M232.1,911.221c-6.978-11.252-9.75-17.392-10.848-20.427q-2.36,2.432-4.519,4.678a89.19,89.19,0,0,1,6.032,25.457c1.274,15.979,6.55,19.157,9.335,36.7,1.428,9-1.863,27.519,10.255,41.352l16.7-2.537c-8.6-11.364-9.653-29.09-11.159-42.592C246.038,937.2,243.325,929.312,232.1,911.221Z" transform="translate(-166.8 -850.11)" fill="#e5aeae" stroke="#000" stroke-linejoin="round" stroke-width="0.25"/>
        <path id="Path_12501" data-name="Path 12501" d="M222.413,921.083a89.189,89.189,0,0,0-6.032-25.457c-4.062,4.222-7.625,7.973-10.818,11.369,1.577,3.9,3.8,11.358,4.8,23.892,1.636,20.489,2.626,17.77,4.85,38.31,1.064,9.828,1.343,15.865,2.4,20.7a142.855,142.855,0,0,1,11.272,11.235L242,999.135c-12.118-13.833-8.827-32.356-10.255-41.352C228.963,940.24,223.687,937.062,222.413,921.083Z" transform="translate(-166.444 -850.264)" fill="#b25269" stroke="#000" stroke-linejoin="round" stroke-width="0.25"/>
        <path id="Path_12502" data-name="Path 12502" d="M267.527,909.4c-4.651-15.223-.845-16.069-4.651-29.389-2.561-8.961-5.729-14.1-7.534-16.505a75.774,75.774,0,0,0-17.287,10.83,41.881,41.881,0,0,0,6.615,17.577c7.221,10.528,4.819,17.248,9.234,35.361s7.629,33.889,8.5,47.327c.492,7.54,4.248,14.647,7.451,19.434l6.357-.966c-8.267-11.337-2.827-27.275-7.053-36.309C263.823,945.342,272.179,924.622,267.527,909.4Z" transform="translate(-167.48 -849.24)" fill="#e5aeae" stroke="#000" stroke-linejoin="round" stroke-width="0.25"/>
        <path id="Path_12503" data-name="Path 12503" d="M253.374,927.63c-4.415-18.113-2.013-24.833-9.234-35.361a41.882,41.882,0,0,1-6.615-17.577,146.035,146.035,0,0,0-10.93,10.256c-1.818,1.86-3.534,3.624-5.19,5.332,1.1,3.035,3.87,9.175,10.848,20.427,11.221,18.091,13.934,25.978,15.791,42.631,1.506,13.5,2.561,31.228,11.159,42.592l10.126-1.539c-3.2-4.787-6.959-11.894-7.451-19.434C261,961.519,257.789,945.743,253.374,927.63Z" transform="translate(-166.949 -849.597)" fill="#b25269" stroke="#000" stroke-linejoin="round" stroke-width="0.25"/>
        <path id="Path_12504" data-name="Path 12504" d="M174.5,944.888a6.332,6.332,0,0,1-1.212-5.647c-.136.161-.272.314-.408.482-4.194,5.192-2.8,8.187-5.391,10.583s-3.595,5.63,0,8.806.2,4.373,6.39,4.972c5.607.542,5.28.545,9.861,2.758-1.5-2.271-.462-4.037-2.156-10.248C179.349,948.393,177.188,948.243,174.5,944.888Z" transform="translate(-165.156 -851.655)" fill="#e5aeae" stroke="#000" stroke-linejoin="round" stroke-width="0.25"/>
        <path id="Path_12505" data-name="Path 12505" d="M203.056,939.122c-.9-14.6-3.1-21.515-4.655-24.672-3.065,3.308-5.793,6.287-8.377,9.107a76.749,76.749,0,0,1-8.451,8,48.9,48.9,0,0,1,5.721,14.348c2.267,9.584,3.56,19.021,6.007,26.878a47.551,47.551,0,0,0,6.313,5.138C198.55,967.118,204.161,957.016,203.056,939.122Z" transform="translate(-165.679 -850.865)" fill="#e5aeae" stroke="#000" stroke-linejoin="round" stroke-width="0.25"/>
        <path id="Path_12506" data-name="Path 12506" d="M181.311,932.124c-3.078,2.511-5.441,4.16-7.759,6.89a6.332,6.332,0,0,0,1.212,5.647c2.685,3.355,4.846,3.5,7.084,11.706,1.694,6.211.657,7.977,2.156,10.248.476.23.988.476,1.583.758,3.524,1.665,4.834,3.439,7.453,5.976-2.447-7.857-3.74-17.293-6.007-26.878A48.9,48.9,0,0,0,181.311,932.124Z" transform="translate(-165.417 -851.428)" fill="#b25269" stroke="#000" stroke-linejoin="round" stroke-width="0.25"/>
        <path id="Path_12507" data-name="Path 12507" d="M210.154,931.262c-1-12.534-3.225-19.989-4.8-23.892-2.3,2.449-4.424,4.724-6.4,6.854,1.553,3.157,3.753,10.069,4.655,24.672,1.1,17.894-4.507,28-3.442,38.8,1.2.828,2.566,1.715,4.154,2.67a90.893,90.893,0,0,1,13.08,9.9c-1.056-4.832-1.335-10.869-2.4-20.7C212.781,949.032,211.79,951.751,210.154,931.262Z" transform="translate(-166.233 -850.639)" fill="#e5aeae" stroke="#000" stroke-linejoin="round" stroke-width="0.25"/>
        <path id="Path_12508" data-name="Path 12508" d="M286.608,912.2c-2.631-14.165-2.019-18.183-1.6-35.1a81.524,81.524,0,0,0-3.2-25.215,73.383,73.383,0,0,0-13.586,5.293c-4.851,2.449-8.788,4.252-12.312,5.954,1.8,2.41,4.973,7.544,7.534,16.505,3.806,13.32,0,14.166,4.651,29.389s-3.7,35.943,1.637,47.36c4.226,9.034-1.214,24.971,7.053,36.309l17.124-2.6A139.759,139.759,0,0,0,290.3,962.52C285.223,940.532,289.24,926.366,286.608,912.2Z" transform="translate(-168.05 -848.869)" fill="#b25269" stroke="#000" stroke-linejoin="round" stroke-width="0.25"/>
        <path id="Path_12509" data-name="Path 12509" d="M387.233,886.743c-2.834-11.192-4.905-17.632-5.965-20.667a72.684,72.684,0,0,0-9.467-3.61c1.245,2.477,3.087,7.206,4.016,14.763,1.479,12.052,0,16.915,2.536,25.371s.423,15.647,3.595,33.195c3.051,16.878-5.237,26.72-3.054,46.256,11.763-7.889,18.553-20.976,22.792-30.365-1.293-4.9-.029-11.96-3.035-23.08C394.421,912.961,391.461,903.446,387.233,886.743Z" transform="translate(-171.745 -849.207)" fill="#b25269" stroke="#000" stroke-linejoin="round" stroke-width="0.25"/>
        <path id="Path_12510" data-name="Path 12510" d="M408.26,924.758c1.668-10.611-2.971-14.151-5.675-20.583-3-7.147,1.845-14.8-1.949-22.142-2.686-5.195-9.138-11.206-19.057-15.838,1.06,3.035,3.132,9.475,5.965,20.667,4.229,16.7,7.188,26.217,11.417,41.863,3.006,11.12,1.742,18.179,3.035,23.08,1.822-4.035,3.176-7.389,4.251-9.345C412.159,931.7,407.084,932.245,408.26,924.758Z" transform="translate(-172.057 -849.326)" fill="#e5aeae" stroke="#000" stroke-linejoin="round" stroke-width="0.25"/>
        <path id="Path_12511" data-name="Path 12511" d="M361.725,959.728c-3.172-10.149,6.131-29.177,5.5-43.976s1.057-13.109,0-28.755a222.2,222.2,0,0,0-3.623-26.819c-11.445-3.087-19.638-7.338-29.228-9.662,2.159,2.727,6.175,9.286,9.805,23.372,5.286,20.508,4.44,21.354,9.3,36.048a73.615,73.615,0,0,1,2.96,35.2c-1.043,7.471-6.36,27.643-3.534,43.163a51.375,51.375,0,0,0,8.139-.422C362.27,980.224,363.918,966.744,361.725,959.728Z" transform="translate(-170.552 -848.826)" fill="#b25269" stroke="#000" stroke-linejoin="round" stroke-width="0.25"/>
        <path id="Path_12512" data-name="Path 12512" d="M381.632,935.732c-3.172-17.548-1.057-24.737-3.595-33.195s-1.057-13.319-2.536-25.371c-.928-7.557-2.771-12.285-4.016-14.763-1.478-.452-2.99-.885-4.573-1.271-.835-.2-1.633-.42-2.434-.636a222.2,222.2,0,0,1,3.623,26.819c1.057,15.646-.634,13.954,0,28.755s-8.668,33.828-5.5,43.976c2.193,7.017.545,20.5-.681,28.153a38.8,38.8,0,0,0,14.21-4.677c.84-.483,1.65-1,2.444-1.533C376.4,962.452,384.682,952.61,381.632,935.732Z" transform="translate(-171.43 -849.144)" fill="#e5aeae" stroke="#000" stroke-linejoin="round" stroke-width="0.25"/>
        <path id="Path_12513" data-name="Path 12513" d="M304.576,946.57c-4.334-15.223,6.449-29.811,3.7-49.9s-2.748-14.166-3.171-28.754c-.287-9.884-2.124-16.014-3.28-18.948a84.965,84.965,0,0,0-19.161,2.824,81.523,81.523,0,0,1,3.2,25.215c-.423,16.914-1.035,20.931,1.6,35.1s-1.385,28.332,3.689,50.319A139.756,139.756,0,0,1,294.763,990l10.062-1.529C304.686,975.255,307.783,957.832,304.576,946.57Z" transform="translate(-168.903 -848.776)" fill="#e5aeae" stroke="#000" stroke-linejoin="round" stroke-width="0.25"/>
        <path id="Path_12514" data-name="Path 12514" d="M331.77,908.3c-6.315-24.314-5.1-35.309-4.892-44.823a29.071,29.071,0,0,0-3.812-14.578c-1.177-.072-2.379-.118-3.629-.118-5.958,0-11.536-.062-16.981.188,1.156,2.934,2.993,9.064,3.28,18.948.422,14.588.422,8.668,3.171,28.754s-8.033,34.675-3.7,49.9c3.206,11.262.109,28.685.249,41.9l25.533-3.881C339.683,969.805,337.63,930.863,331.77,908.3Z" transform="translate(-169.534 -848.77)" fill="#b25269" stroke="#000" stroke-linejoin="round" stroke-width="0.25"/>
        <path id="Path_12515" data-name="Path 12515" d="M356.1,945.088a73.615,73.615,0,0,0-2.96-35.2c-4.863-14.695-4.017-15.54-9.3-36.048-3.63-14.086-7.646-20.645-9.8-23.372a58.1,58.1,0,0,0-10.287-1.565,29.071,29.071,0,0,1,3.812,14.578c-.212,9.514-1.423,20.508,4.892,44.823,5.86,22.568,7.912,61.51-.781,76.29l.781-.119a65.443,65.443,0,0,0,20.117,3.78C349.74,972.731,355.058,952.558,356.1,945.088Z" transform="translate(-170.213 -848.774)" fill="#e5aeae" stroke="#000" stroke-linejoin="round" stroke-width="0.25"/>
      </g>
      <g id="Group_3619" data-name="Group 3619" transform="translate(202.145 79.14)">
        <path id="Path_12516" data-name="Path 12516" d="M377.85,931.379c2.341-1.463,6.383-1.326,7.046,2.487s-1.161,7.128.912,12.185-2.487,10.776-7.544,8.207-4.559-7.46-3.9-12.268S374.534,933.451,377.85,931.379Z" transform="translate(-373.959 -930.517)" fill="#fff6eb" stroke="#000" stroke-miterlimit="10" stroke-width="0.25"/>
        <path id="Path_12517" data-name="Path 12517" d="M380.322,939.5c.739-1.324,2.791-1.582,2.908.409a65.686,65.686,0,0,0,.528,6.855c.41,2.7-2.153,4.628-3.04,1.992S379.113,941.667,380.322,939.5Z" transform="translate(-374.142 -930.77)" fill="#b25269" stroke="#000" stroke-linejoin="round" stroke-width="0.25"/>
      </g>
      <path id="Path_12518" data-name="Path 12518" d="M181.53,949.849s.487-1.362,2.878-1.174" transform="translate(-165.678 -851.955)" fill="none" stroke="#000" stroke-linejoin="round" stroke-width="0.25"/>
      <path id="Path_12519" data-name="Path 12519" d="M183.874,952.193a3.279,3.279,0,0,0,1.219-.578" transform="translate(-165.752 -852.05)" fill="none" stroke="#000" stroke-linejoin="round" stroke-width="0.25"/>
      <path id="Path_12520" data-name="Path 12520" d="M198.117,946.156a2.052,2.052,0,0,0,1.876,0" transform="translate(-166.207 -851.876)" fill="none" stroke="#000" stroke-linejoin="round" stroke-width="0.25"/>
      <path id="Path_12521" data-name="Path 12521" d="M196.664,947.547a6.233,6.233,0,0,0,4.964,0" transform="translate(-166.16 -851.92)" fill="none" stroke="#000" stroke-linejoin="round" stroke-width="0.25"/>
      <path id="Path_12522" data-name="Path 12522" d="M210.523,923.246s3.481-2.793,10.385-1.338" transform="translate(-166.602 -851.089)" fill="none" stroke="#000" stroke-linejoin="round" stroke-width="0.25"/>
      <path id="Path_12523" data-name="Path 12523" d="M234.606,944.9s7.313,2.282,13.281-1.169" transform="translate(-167.37 -851.798)" fill="none" stroke="#000" stroke-linejoin="round" stroke-width="0.25"/>
      <path id="Path_12524" data-name="Path 12524" d="M240.408,943.172s3.218.585,4.739-.469" transform="translate(-167.555 -851.765)" fill="none" stroke="#000" stroke-linejoin="round" stroke-width="0.25"/>
      <path id="Path_12525" data-name="Path 12525" d="M221.915,957.631c.234-.059,3.862,1.813,6.2,1.4" transform="translate(-166.966 -852.242)" fill="none" stroke="#000" stroke-linejoin="round" stroke-width="0.25"/>
      <path id="Path_12526" data-name="Path 12526" d="M205.771,977.333s1.958,1.609,3.5,1.4" transform="translate(-166.451 -852.87)" fill="none" stroke="#000" stroke-linejoin="round" stroke-width="0.25"/>
      <path id="Path_12527" data-name="Path 12527" d="M238.216,912.381c.56-.14,3.357-2.029,6.3-1.89" transform="translate(-167.485 -850.738)" fill="none" stroke="#000" stroke-linejoin="round" stroke-width="0.25"/>
      <path id="Path_12528" data-name="Path 12528" d="M241.468,909.028a3.16,3.16,0,0,1,2.028-.56" transform="translate(-167.589 -850.674)" fill="none" stroke="#000" stroke-linejoin="round" stroke-width="0.25"/>
      <path id="Path_12529" data-name="Path 12529" d="M262.568,918.2s2.588.63,4.267-.839" transform="translate(-168.262 -850.957)" fill="none" stroke="#000" stroke-linejoin="round" stroke-width="0.25"/>
      <path id="Path_12530" data-name="Path 12530" d="M253.68,889.582a5.187,5.187,0,0,1,3.847-.629" transform="translate(-167.979 -850.046)" fill="none" stroke="#000" stroke-linejoin="round" stroke-width="0.25"/>
      <path id="Path_12531" data-name="Path 12531" d="M247.764,884.73s3.908-1.68,6.777-.91" transform="translate(-167.79 -849.881)" fill="none" stroke="#000" stroke-linejoin="round" stroke-width="0.25"/>
      <path id="Path_12532" data-name="Path 12532" d="M276.225,896.688a7.587,7.587,0,0,0,5.206.352" transform="translate(-168.697 -850.298)" fill="none" stroke="#000" stroke-linejoin="round" stroke-width="0.25"/>
      <path id="Path_12533" data-name="Path 12533" d="M272.034,898.858a14.56,14.56,0,0,0,10.773.909" transform="translate(-168.564 -850.367)" fill="none" stroke="#000" stroke-linejoin="round" stroke-width="0.25"/>
      <path id="Path_12534" data-name="Path 12534" d="M288.943,890.364c1.189-.909,11.753,1.127,14.83-1.189" transform="translate(-169.103 -850.058)" fill="none" stroke="#000" stroke-linejoin="round" stroke-width="0.25"/>
      <path id="Path_12535" data-name="Path 12535" d="M294.724,912.3a3.934,3.934,0,0,0,2.588,0" transform="translate(-169.287 -850.796)" fill="none" stroke="#000" stroke-linejoin="round" stroke-width="0.25"/>
      <path id="Path_12536" data-name="Path 12536" d="M315.39,898.858a19.381,19.381,0,0,0,13.012.752" transform="translate(-169.946 -850.367)" fill="none" stroke="#000" stroke-linejoin="round" stroke-width="0.25"/>
      <path id="Path_12537" data-name="Path 12537" d="M323.7,896.688s2.887.74,4.267,0" transform="translate(-170.211 -850.298)" fill="none" stroke="#000" stroke-linejoin="round" stroke-width="0.25"/>
      <path id="Path_12538" data-name="Path 12538" d="M294.146,873.277a8.44,8.44,0,0,0,5.526.28" transform="translate(-169.269 -849.552)" fill="none" stroke="#000" stroke-linejoin="round" stroke-width="0.25"/>
      <path id="Path_12539" data-name="Path 12539" d="M267.554,864.269a39.032,39.032,0,0,1,14.481-3.637" transform="translate(-168.421 -849.148)" fill="none" stroke="#000" stroke-linejoin="round" stroke-width="0.25"/>
      <path id="Path_12540" data-name="Path 12540" d="M308.092,861.921s7.625-1.189,12.312.91" transform="translate(-169.714 -849.179)" fill="none" stroke="#000" stroke-linejoin="round" stroke-width="0.25"/>
      <path id="Path_12541" data-name="Path 12541" d="M349.5,874.578c.28,0,4.757.139,7.136,1.748" transform="translate(-171.034 -849.593)" fill="none" stroke="#000" stroke-linejoin="round" stroke-width="0.25"/>
      <path id="Path_12542" data-name="Path 12542" d="M335.045,887.572a17.931,17.931,0,0,1,8.674.28" transform="translate(-170.573 -849.995)" fill="none" stroke="#000" stroke-linejoin="round" stroke-width="0.25"/>
      <path id="Path_12543" data-name="Path 12543" d="M341.765,891.776a23.9,23.9,0,0,1,7.836,2.589" transform="translate(-170.788 -850.141)" fill="none" stroke="#000" stroke-linejoin="round" stroke-width="0.25"/>
      <path id="Path_12544" data-name="Path 12544" d="M360.264,892.282a5.7,5.7,0,0,1,3.358,2.379" transform="translate(-171.377 -850.158)" fill="none" stroke="#000" stroke-linejoin="round" stroke-width="0.25"/>
      <path id="Path_12545" data-name="Path 12545" d="M371.609,894.45s5.176,1.469,7.275,4.617" transform="translate(-171.739 -850.227)" fill="none" stroke="#000" stroke-linejoin="round" stroke-width="0.25"/>
      <path id="Path_12546" data-name="Path 12546" d="M375.367,894.016a5.2,5.2,0,0,1,3.078,1.889" transform="translate(-171.859 -850.213)" fill="none" stroke="#000" stroke-linejoin="round" stroke-width="0.25"/>
      <path id="Path_12547" data-name="Path 12547" d="M389.241,885.634s3.123,1.539,4.045,3.778" transform="translate(-172.302 -849.946)" fill="none" stroke="#000" stroke-linejoin="round" stroke-width="0.25"/>
      <path id="Path_12548" data-name="Path 12548" d="M391.33,884.116a8.522,8.522,0,0,1,3.5,3.358" transform="translate(-172.368 -849.897)" fill="none" stroke="#000" stroke-linejoin="round" stroke-width="0.25"/>
      <path id="Path_12549" data-name="Path 12549" d="M396.973,910.419s.839,1.539,3.987.42" transform="translate(-172.548 -850.736)" fill="none" stroke="#000" stroke-linejoin="round" stroke-width="0.25"/>
      <path id="Path_12550" data-name="Path 12550" d="M400.224,920.665a6.227,6.227,0,0,0,4.2-2.657" transform="translate(-172.652 -850.978)" fill="none" stroke="#000" stroke-linejoin="round" stroke-width="0.25"/>
      <path id="Path_12551" data-name="Path 12551" d="M405.245,934.627a11.421,11.421,0,0,1-1.119,3.711" transform="translate(-172.776 -851.508)" fill="none" stroke="#000" stroke-linejoin="round" stroke-width="0.25"/>
      <path id="Path_12552" data-name="Path 12552" d="M407.115,935.855a5.42,5.42,0,0,1-1.4,3.5" transform="translate(-172.827 -851.547)" fill="none" stroke="#000" stroke-linejoin="round" stroke-width="0.25"/>
      <path id="Path_12553" data-name="Path 12553" d="M398.9,938.167a8.5,8.5,0,0,1-3.953,2.8" transform="translate(-172.484 -851.621)" fill="none" stroke="#000" stroke-linejoin="round" stroke-width="0.25"/>
      <path id="Path_12554" data-name="Path 12554" d="M398.174,952.547s-1.958,4.757-9.584,8.535" transform="translate(-172.281 -852.079)" fill="none" stroke="#000" stroke-linejoin="round" stroke-width="0.25"/>
      <path id="Path_12555" data-name="Path 12555" d="M349.09,921.632s2.5.832,4.084,0" transform="translate(-171.021 -851.094)" fill="none" stroke="#000" stroke-linejoin="round" stroke-width="0.25"/>
    </g>
    <g id="Group_3624" data-name="Group 3624" transform="translate(226.972 907.473)">
      <g id="Group_3622" data-name="Group 3622" transform="translate(10.146 18.04)">
        <g id="Group_3621" data-name="Group 3621">
          <path id="Path_12556" data-name="Path 12556" d="M329.44,1022.448c13.585-12.829,17.861-27.921,23.646-43.935a88.42,88.42,0,0,0,4.823-23.463A131.659,131.659,0,0,0,347.7,930.628s-105.294,80.5-106.235,80.3,16.617,25,30.7,39.2a33.851,33.851,0,0,0,9.993,6.823C303.374,1051.177,318.035,1033.22,329.44,1022.448Z" transform="translate(-241.428 -930.628)" fill="#b25269" stroke="#000" stroke-linejoin="round" stroke-width="0.25"/>
          <path id="Path_12557" data-name="Path 12557" d="M322.462,1049.665c10.584-12.074,16.873-17.106,23.162-26.915,5.605-8.745,15.4-18.68,20.14-37.934-.712-4.531-1.713-9.94-3.3-17.027-.956-4.268-2.058-8.263-3.211-11.934a88.422,88.422,0,0,1-4.823,23.463c-5.785,16.014-10.062,31.106-23.646,43.935-11.405,10.772-26.066,28.729-47.28,34.5,6.84,3.146,14.616,4.481,21.721,4.968A58.228,58.228,0,0,0,322.462,1049.665Z" transform="translate(-242.769 -931.432)" fill="#e5aeae" stroke="#000" stroke-linejoin="round" stroke-width="0.25"/>
          <path id="Path_12558" data-name="Path 12558" d="M370.816,1014.472a62.1,62.1,0,0,1-11.913,16.149c-10.314,9.845-16.351,16.522-28.676,26.641-4.072,3.343-6.8,5.687-8.912,7.388,1.472-.07,2.782-.144,3.869-.2,9.677-.49,17.027-5.757,23.029-8.7s9.554-4.9,14.087-12.372,8.085-5.512,7.89-11.025C370.02,1027.51,371.9,1024,370.816,1014.472Z" transform="translate(-243.975 -933.302)" fill="#e5aeae" stroke="#000" stroke-linejoin="round" stroke-width="0.25"/>
          <path id="Path_12559" data-name="Path 12559" d="M358.413,1029.706a62.105,62.105,0,0,0,11.913-16.149c-.149-1.308-.351-2.724-.626-4.278-1.527-8.648-1.762-14.225-3.221-23.51-4.735,19.255-14.534,29.189-20.14,37.934-6.289,9.81-12.578,14.841-23.162,26.915a58.223,58.223,0,0,1-17.239,13.059,129.114,129.114,0,0,0,14.887.057c2.114-1.7,4.841-4.045,8.912-7.388C342.062,1046.228,348.1,1039.551,358.413,1029.706Z" transform="translate(-243.485 -932.387)" fill="#b25269" stroke="#000" stroke-linejoin="round" stroke-width="0.25"/>
        </g>
        <path id="Path_12560" data-name="Path 12560" d="M285.02,1048.187s3.485,4.4,6.835,6.158" transform="translate(-242.818 -934.377)" fill="none" stroke="#000" stroke-linejoin="round" stroke-width="0.25"/>
        <path id="Path_12561" data-name="Path 12561" d="M289.122,1049.015a11.655,11.655,0,0,1,4,3.324" transform="translate(-242.949 -934.403)" fill="none" stroke="#000" stroke-linejoin="round" stroke-width="0.25"/>
        <path id="Path_12562" data-name="Path 12562" d="M317.361,1046.343s2.753,3.42,5.541,3.6" transform="translate(-243.849 -934.318)" fill="none" stroke="#000" stroke-linejoin="round" stroke-width="0.25"/>
        <path id="Path_12563" data-name="Path 12563" d="M332.339,1030.888a13.876,13.876,0,0,1,3.048,3.6" transform="translate(-244.327 -933.825)" fill="none" stroke="#000" stroke-linejoin="round" stroke-width="0.25"/>
        <path id="Path_12564" data-name="Path 12564" d="M341.784,1052.449s3.694,1.847,7.019,1.385" transform="translate(-244.628 -934.513)" fill="none" stroke="#000" stroke-linejoin="round" stroke-width="0.25"/>
        <path id="Path_12565" data-name="Path 12565" d="M347.7,1050.064s1.477,1.507,3.048,1.261" transform="translate(-244.817 -934.437)" fill="none" stroke="#000" stroke-linejoin="round" stroke-width="0.25"/>
        <path id="Path_12566" data-name="Path 12566" d="M347.7,1033.369a21.24,21.24,0,0,0,5.633,6.443" transform="translate(-244.817 -933.904)" fill="none" stroke="#000" stroke-linejoin="round" stroke-width="0.25"/>
        <path id="Path_12567" data-name="Path 12567" d="M352.66,1033.369a11.063,11.063,0,0,1,2.808,3.6" transform="translate(-244.975 -933.904)" fill="none" stroke="#000" stroke-linejoin="round" stroke-width="0.25"/>
        <path id="Path_12568" data-name="Path 12568" d="M364.68,1030.888a29.1,29.1,0,0,1,.924,5.623" transform="translate(-245.358 -933.825)" fill="none" stroke="#000" stroke-linejoin="round" stroke-width="0.25"/>
        <path id="Path_12569" data-name="Path 12569" d="M358.1,1015.624a15.134,15.134,0,0,1,3.7,8.093" transform="translate(-245.148 -933.339)" fill="none" stroke="#000" stroke-linejoin="round" stroke-width="0.25"/>
        <path id="Path_12570" data-name="Path 12570" d="M361.508,1016.673a6.864,6.864,0,0,1,1.224,3.51" transform="translate(-245.257 -933.372)" fill="none" stroke="#000" stroke-linejoin="round" stroke-width="0.25"/>
        <path id="Path_12571" data-name="Path 12571" d="M343.3,999.729a12.609,12.609,0,0,1,2.094,5.176" transform="translate(-244.676 -932.832)" fill="none" stroke="#000" stroke-linejoin="round" stroke-width="0.25"/>
        <path id="Path_12572" data-name="Path 12572" d="M361.923,974.337s2.87,5.039,2.944,8.836" transform="translate(-245.27 -932.022)" fill="none" stroke="#000" stroke-linejoin="round" stroke-width="0.25"/>
        <path id="Path_12573" data-name="Path 12573" d="M360.438,980.09a7.16,7.16,0,0,1,.95,3.266" transform="translate(-245.223 -932.205)" fill="none" stroke="#000" stroke-linejoin="round" stroke-width="0.25"/>
        <path id="Path_12574" data-name="Path 12574" d="M353.273,981.2a7.919,7.919,0,0,1,1.168,2.776" transform="translate(-244.994 -932.241)" fill="none" stroke="#000" stroke-linejoin="round" stroke-width="0.25"/>
        <path id="Path_12575" data-name="Path 12575" d="M350.708,981.777c.219.684,1.533,4.408,3.651,5.285" transform="translate(-244.913 -932.259)" fill="none" stroke="#000" stroke-linejoin="round" stroke-width="0.25"/>
      </g>
      <g id="Group_3623" data-name="Group 3623">
        <path id="Path_12576" data-name="Path 12576" d="M252.955,944.628c11.82-13.459,32.548-28.952,55.927-32.122s41.824,8.285,42.682,36.66-22.95,63.122-46.114,79.208-46.561,18.582-68.011,12.27c0,0-8.11-30.637-6.2-50.8S248.208,950.033,252.955,944.628Z" transform="translate(-230.947 -911.994)" fill="#fff6eb" stroke="#000" stroke-miterlimit="10" stroke-width="0.25"/>
        <ellipse id="Ellipse_2229" data-name="Ellipse 2229" cx="3.154" cy="1.389" rx="3.154" ry="1.389" transform="translate(68.994 110.916) rotate(-45)" fill="#e5aeae" stroke="#000" stroke-linejoin="round" stroke-width="0.25"/>
        <ellipse id="Ellipse_2230" data-name="Ellipse 2230" cx="3.734" cy="1.389" rx="3.734" ry="1.389" transform="translate(44.77 115.901) rotate(-11.897)" fill="#e5aeae" stroke="#000" stroke-linejoin="round" stroke-width="0.25"/>
        <ellipse id="Ellipse_2231" data-name="Ellipse 2231" cx="0.867" cy="2.935" rx="0.867" ry="2.935" transform="translate(34.05 105.122) rotate(-60)" fill="#e5aeae" stroke="#000" stroke-linejoin="round" stroke-width="0.25"/>
        <ellipse id="Ellipse_2232" data-name="Ellipse 2232" cx="2.169" cy="0.993" rx="2.169" ry="0.993" transform="translate(60.915 110.139) rotate(-38.584)" fill="#e5aeae" stroke="#000" stroke-linejoin="round" stroke-width="0.25"/>
        <ellipse id="Ellipse_2233" data-name="Ellipse 2233" cx="2.454" cy="1.162" rx="2.454" ry="1.162" transform="translate(83.414 94.804) rotate(-60)" fill="#e5aeae" stroke="#000" stroke-linejoin="round" stroke-width="0.25"/>
        <ellipse id="Ellipse_2234" data-name="Ellipse 2234" cx="3.387" cy="1.334" rx="3.387" ry="1.334" transform="translate(90.227 85.354) rotate(-60)" fill="#e5aeae" stroke="#000" stroke-linejoin="round" stroke-width="0.25"/>
        <ellipse id="Ellipse_2235" data-name="Ellipse 2235" cx="1.949" cy="1.11" rx="1.949" ry="1.11" transform="translate(99.749 75.109) rotate(-60)" fill="#e5aeae" stroke="#000" stroke-linejoin="round" stroke-width="0.25"/>
        <ellipse id="Ellipse_2236" data-name="Ellipse 2236" cx="3.206" cy="1.202" rx="3.206" ry="1.202" transform="translate(103.254 61.405) rotate(-81.959)" fill="#e5aeae" stroke="#000" stroke-linejoin="round" stroke-width="0.25"/>
        <ellipse id="Ellipse_2237" data-name="Ellipse 2237" cx="1.815" cy="0.967" rx="1.815" ry="0.967" transform="translate(66.888 96.941) rotate(-50.013)" fill="#e5aeae" stroke="#000" stroke-linejoin="round" stroke-width="0.25"/>
        <ellipse id="Ellipse_2238" data-name="Ellipse 2238" cx="1.01" cy="2.014" rx="1.01" ry="2.014" transform="translate(8.125 71.577)" fill="#e5aeae" stroke="#000" stroke-linejoin="round" stroke-width="0.25"/>
        <ellipse id="Ellipse_2239" data-name="Ellipse 2239" cx="0.798" cy="1.817" rx="0.798" ry="1.817" transform="translate(11.865 81.491)" fill="#e5aeae" stroke="#000" stroke-linejoin="round" stroke-width="0.25"/>
        <ellipse id="Ellipse_2240" data-name="Ellipse 2240" cx="1.104" cy="3.102" rx="1.104" ry="3.102" transform="translate(17.875 77.383)" fill="#e5aeae" stroke="#000" stroke-linejoin="round" stroke-width="0.25"/>
        <ellipse id="Ellipse_2241" data-name="Ellipse 2241" cx="1.962" cy="0.736" rx="1.962" ry="0.736" transform="matrix(0.274, -0.962, 0.962, 0.274, 16.998, 63.064)" fill="#e5aeae" stroke="#000" stroke-linejoin="round" stroke-width="0.25"/>
        <path id="Path_12577" data-name="Path 12577" d="M270.375,986.222c.924.643.184,2.824-2.146,6.625s-.121,6.253,1.779,7.479,2.206,3.8-.431,2.883a7.369,7.369,0,0,1-5.054-6.983C264.3,992.354,268.964,985.241,270.375,986.222Z" transform="translate(-232.018 -914.358)" fill="#e5aeae" stroke="#000" stroke-linejoin="round" stroke-width="0.25"/>
        <path id="Path_12578" data-name="Path 12578" d="M274.495,1009.87c.084-1.441,3.863.736,8.585-.675s5.212-3.373,6.622-2.268-2.146,3.114-5.273,4.255S274.372,1011.956,274.495,1009.87Z" transform="translate(-232.336 -915.011)" fill="#e5aeae" stroke="#000" stroke-linejoin="round" stroke-width="0.25"/>
        <path id="Path_12579" data-name="Path 12579" d="M290.008,997.2c-1.1-1.6,3.686-3.6,6.439-6.87,4.293-5.089,4.6-12.019,6.684-11.773s-1.077,8.4-3.556,11.712C297.179,993.475,291.353,999.149,290.008,997.2Z" transform="translate(-232.826 -914.116)" fill="#e5aeae" stroke="#000" stroke-linejoin="round" stroke-width="0.25"/>
        <path id="Path_12580" data-name="Path 12580" d="M263.042,975.549c-1.4-.36-.153-4.39,2.177-7.763s4.447-5.274,6.21-8.462,5.319-4.109,4.706-2.514-2.637,2.391-4.17,5.7-4.293,3.925-5.519,7.789S264.128,975.829,263.042,975.549Z" transform="translate(-231.952 -913.399)" fill="#e5aeae" stroke="#000" stroke-linejoin="round" stroke-width="0.25"/>
        <path id="Path_12581" data-name="Path 12581" d="M286.059,962.221c-2.467-.425,1.166-5.212,4.6-8.339s8.707-5.151,11.773-5.028,3.365,3.74-.525,3.556-6.159-.06-9.838,3.4S287.838,962.528,286.059,962.221Z" transform="translate(-232.679 -913.169)" fill="#e5aeae" stroke="#000" stroke-linejoin="round" stroke-width="0.25"/>
        <path id="Path_12582" data-name="Path 12582" d="M300.341,964.481c-.76-.731,1.034-3.149,4.407-3.149s5.518,2.514,5.273,6.009-1.717,2.944-2.146.8-1.1-4.967-3.25-4.476S300.849,964.968,300.341,964.481Z" transform="translate(-233.155 -913.567)" fill="#e5aeae" stroke="#000" stroke-linejoin="round" stroke-width="0.25"/>
        <path id="Path_12583" data-name="Path 12583" d="M282.856,984.69c1.173.812,2.874-1.816,3.883-3.682s4.476-1.513,4.589-3.278-3.228-1.411-5.951,1.311S281.545,983.782,282.856,984.69Z" transform="translate(-232.585 -914.055)" fill="#e5aeae" stroke="#000" stroke-linejoin="round" stroke-width="0.25"/>
        <path id="Path_12584" data-name="Path 12584" d="M318.745,955.375c.7-1.344,3.688.5,2.969,4.141s-1.484,8.272-2.743,7.957.415-3.451.9-6.653C320.455,956.954,318.159,956.493,318.745,955.375Z" transform="translate(-233.74 -913.363)" fill="#e5aeae" stroke="#000" stroke-linejoin="round" stroke-width="0.25"/>
        <path id="Path_12585" data-name="Path 12585" d="M326.166,970.137c1.531.084.155,3.3-1.315,6.313s-2.088,4.445-3.868,7.6-3.782,4.523-5.488,6.817-2.634,1.288-1.241-1.11,4.331-5.125,6.42-8.906,3.017-4.322,3.79-7.183S325.315,970.09,326.166,970.137Z" transform="translate(-233.582 -913.848)" fill="#e5aeae" stroke="#000" stroke-linejoin="round" stroke-width="0.25"/>
        <path id="Path_12586" data-name="Path 12586" d="M303.131,938.818c0-1.838,3.895-1.183,6.608.556s3.755.974,4.8,2.852.209,2.365-1.322,1.252a14.66,14.66,0,0,0-5.425-2.534C305.287,940.278,303.131,940.209,303.131,938.818Z" transform="translate(-233.249 -912.814)" fill="#e5aeae" stroke="#000" stroke-linejoin="round" stroke-width="0.25"/>
        <ellipse id="Ellipse_2242" data-name="Ellipse 2242" cx="1.931" cy="1.131" rx="1.931" ry="1.131" transform="translate(55.806 18.272) rotate(-36.296)" fill="#e5aeae" stroke="#000" stroke-linejoin="round" stroke-width="0.25"/>
        <ellipse id="Ellipse_2243" data-name="Ellipse 2243" cx="2.648" cy="0.941" rx="2.648" ry="0.941" transform="matrix(0.776, -0.631, 0.631, 0.776, 27.511, 32.551)" fill="#e5aeae" stroke="#000" stroke-linejoin="round" stroke-width="0.25"/>
        <ellipse id="Ellipse_2244" data-name="Ellipse 2244" cx="2.397" cy="0.745" rx="2.397" ry="0.745" transform="matrix(0.776, -0.631, 0.631, 0.776, 36.286, 30.388)" fill="#e5aeae" stroke="#000" stroke-linejoin="round" stroke-width="0.25"/>
        <ellipse id="Ellipse_2245" data-name="Ellipse 2245" cx="2.48" cy="1.301" rx="2.48" ry="1.301" transform="translate(77.436 6.292) rotate(-11.186)" fill="#e5aeae" stroke="#000" stroke-linejoin="round" stroke-width="0.25"/>
        <ellipse id="Ellipse_2246" data-name="Ellipse 2246" cx="1.142" cy="2.165" rx="1.142" ry="2.165" transform="translate(86.398 19.166) rotate(-30)" fill="#e5aeae" stroke="#000" stroke-linejoin="round" stroke-width="0.25"/>
        <ellipse id="Ellipse_2247" data-name="Ellipse 2247" cx="1.069" cy="1.945" rx="1.069" ry="1.945" transform="translate(100.479 14.369) rotate(-30)" fill="#e5aeae" stroke="#000" stroke-linejoin="round" stroke-width="0.25"/>
        <ellipse id="Ellipse_2248" data-name="Ellipse 2248" cx="3.657" cy="1.412" rx="3.657" ry="1.412" transform="translate(104.274 36.709) rotate(-87.796)" fill="#e5aeae" stroke="#000" stroke-linejoin="round" stroke-width="0.25"/>
      </g>
    </g>
    <g id="Group_3627" data-name="Group 3627" transform="translate(147.799 979.05)">
      <g id="Group_3625" data-name="Group 3625" transform="translate(0 19.017)">
        <path id="Path_12587" data-name="Path 12587" d="M165.324,1082.472A42.477,42.477,0,0,1,149.4,1067.6a52.65,52.65,0,0,0,4.737,17.168c3.334,2.086,11.2,7.535,16.558,15.479,5.491,8.138,13.546,11.864,18.376,15.078a41.726,41.726,0,0,0,16.322,1.212,59.693,59.693,0,0,0,8.958-1.877c-4.7-1.15-10.7-4.911-19.679-11.933C183.927,1094.323,177.726,1089.086,165.324,1082.472Z" transform="translate(-149.175 -1007.55)" fill="#e5aeae" stroke="#000" stroke-linejoin="round" stroke-width="0.25"/>
        <path id="Path_12588" data-name="Path 12588" d="M165.735,1065.722a171.776,171.776,0,0,0-14.641-24.581,157.644,157.644,0,0,0-1.9,19.269,47.958,47.958,0,0,0,.2,6.347,42.477,42.477,0,0,0,15.92,14.871c12.4,6.614,18.6,11.851,29.352,20.257,8.978,7.022,14.976,10.783,19.679,11.933A71.4,71.4,0,0,0,226.526,1109c-12.483-.81-22.894-7.574-34.487-17.88C179.864,1080.3,174.153,1082.707,165.735,1065.722Z" transform="translate(-149.167 -1006.706)" fill="#b25269" stroke="#000" stroke-linejoin="round" stroke-width="0.25"/>
        <path id="Path_12589" data-name="Path 12589" d="M170.855,1100.814c-5.36-7.944-13.223-13.393-16.558-15.479,6.832,14.7,20,26.49,34.933,30.558C184.4,1112.678,176.346,1108.952,170.855,1100.814Z" transform="translate(-149.331 -1008.116)" fill="#b25269" stroke="#000" stroke-linejoin="round" stroke-width="0.25"/>
        <path id="Path_12590" data-name="Path 12590" d="M208.646,1087.368c-12.614-9.619-15.493-7.665-28.118-13.978s-11.573-22.545-18.938-28.107c-5.888-4.446-7.24-14.391-7.546-18.2-1.064,4-2.066,8.543-2.886,13.611a171.772,171.772,0,0,1,14.641,24.581c8.418,16.985,14.129,14.58,26.3,25.4,11.593,10.306,22,17.07,34.487,17.88a99.08,99.08,0,0,0,18.809-12.53C236.142,1097.028,220.21,1096.187,208.646,1087.368Z" transform="translate(-149.231 -1006.258)" fill="#e5aeae" stroke="#000" stroke-linejoin="round" stroke-width="0.25"/>
        <path id="Path_12591" data-name="Path 12591" d="M268.16,1070.966l-106.146-65.394s-4.271,7.273-7.876,20.824c.306,3.81,1.658,13.756,7.546,18.2,7.365,5.562,6.313,21.794,18.938,28.107s15.5,4.358,28.118,13.978c11.564,8.818,27.5,9.66,36.752,8.657A133.589,133.589,0,0,0,268.16,1070.966Z" transform="translate(-149.326 -1005.572)" fill="#b25269" stroke="#000" stroke-linejoin="round" stroke-width="0.25"/>
      </g>
      <path id="Path_12592" data-name="Path 12592" d="M165.223,998.892c10.322-15.163,33.55-20.192,68.03,2.485s45.354,53.43,35.1,68.962-47.252,15.85-80.179-8.38S157.251,1010.6,165.223,998.892Z" transform="translate(-149.522 -985.928)" fill="#fff6eb" stroke="#000" stroke-miterlimit="10" stroke-width="0.25"/>
      <path id="Path_12593" data-name="Path 12593" d="M228.8,1087.659a7.97,7.97,0,0,1-2.789,3.928" transform="translate(-151.618 -989.173)" fill="none" stroke="#000" stroke-linejoin="round" stroke-width="0.25"/>
      <path id="Path_12594" data-name="Path 12594" d="M233.429,1089.02s-1.876,4.323-4.975,4.975" transform="translate(-151.695 -989.216)" fill="none" stroke="#000" stroke-linejoin="round" stroke-width="0.25"/>
      <path id="Path_12595" data-name="Path 12595" d="M233.021,1101.4a4.155,4.155,0,0,1-2,2.691" transform="translate(-151.777 -989.611)" fill="none" stroke="#000" stroke-linejoin="round" stroke-width="0.25"/>
      <path id="Path_12596" data-name="Path 12596" d="M205.2,1090.705s.49,2.12,0,2.691" transform="translate(-150.954 -989.27)" fill="none" stroke="#000" stroke-linejoin="round" stroke-width="0.25"/>
      <path id="Path_12597" data-name="Path 12597" d="M198.34,1085.482a6.65,6.65,0,0,1-1.141,4.071" transform="translate(-150.699 -989.103)" fill="none" stroke="#000" stroke-linejoin="round" stroke-width="0.25"/>
      <path id="Path_12598" data-name="Path 12598" d="M160.867,1066.45s-1.55,5.294,0,8.882" transform="translate(-149.518 -988.496)" fill="none" stroke="#000" stroke-linejoin="round" stroke-width="0.25"/>
      <path id="Path_12599" data-name="Path 12599" d="M178.141,1081.925a11.213,11.213,0,0,0-3.52,4.022" transform="translate(-149.979 -988.99)" fill="none" stroke="#000" stroke-linejoin="round" stroke-width="0.25"/>
      <path id="Path_12600" data-name="Path 12600" d="M181.178,1098.619s-5.326,4.434-5.558,7.439" transform="translate(-150.011 -989.522)" fill="none" stroke="#000" stroke-linejoin="round" stroke-width="0.25"/>
      <path id="Path_12601" data-name="Path 12601" d="M196,1103.886s-1.937,4.774-5.036,6.079" transform="translate(-150.5 -989.69)" fill="none" stroke="#000" stroke-linejoin="round" stroke-width="0.25"/>
      <path id="Path_12602" data-name="Path 12602" d="M158.76,1032s-3.4,3.116-3.613,9.491" transform="translate(-149.358 -987.398)" fill="none" stroke="#000" stroke-linejoin="round" stroke-width="0.25"/>
      <path id="Path_12603" data-name="Path 12603" d="M159.374,1037.771a6.132,6.132,0,0,0-.5,2.559" transform="translate(-149.476 -987.582)" fill="none" stroke="#000" stroke-linejoin="round" stroke-width="0.25"/>
      <path id="Path_12604" data-name="Path 12604" d="M169.28,1050.292a10.3,10.3,0,0,0-1.841,6.162" transform="translate(-149.749 -987.981)" fill="none" stroke="#000" stroke-linejoin="round" stroke-width="0.25"/>
      <path id="Path_12605" data-name="Path 12605" d="M171.122,1054.023s-.566,1.7-1.487,2.054" transform="translate(-149.82 -988.1)" fill="none" stroke="#000" stroke-linejoin="round" stroke-width="0.25"/>
      <g id="Group_3626" data-name="Group 3626" transform="translate(22.474 8.007)">
        <ellipse id="Ellipse_2249" data-name="Ellipse 2249" cx="2.385" cy="1.325" rx="2.385" ry="1.325" transform="translate(0 29.061) rotate(-83.105)" fill="#b25269" stroke="#000" stroke-linejoin="round" stroke-width="0.25"/>
        <ellipse id="Ellipse_2250" data-name="Ellipse 2250" cx="2.098" cy="1.093" rx="2.098" ry="1.093" transform="matrix(0.549, -0.836, 0.836, 0.549, 1.336, 9.911)" fill="#b25269" stroke="#000" stroke-linejoin="round" stroke-width="0.25"/>
        <ellipse id="Ellipse_2251" data-name="Ellipse 2251" cx="1.663" cy="0.988" rx="1.663" ry="0.988" transform="matrix(0.549, -0.836, 0.836, 0.549, 8.345, 17.283)" fill="#b25269" stroke="#000" stroke-linejoin="round" stroke-width="0.25"/>
        <ellipse id="Ellipse_2252" data-name="Ellipse 2252" cx="2.944" cy="1.276" rx="2.944" ry="1.276" transform="matrix(0.887, -0.463, 0.463, 0.887, 13.191, 7.072)" fill="#b25269" stroke="#000" stroke-linejoin="round" stroke-width="0.25"/>
        <ellipse id="Ellipse_2253" data-name="Ellipse 2253" cx="1.535" cy="2.654" rx="1.535" ry="2.654" transform="translate(29.929 2.729) rotate(-62.717)" fill="#b25269" stroke="#000" stroke-linejoin="round" stroke-width="0.25"/>
        <ellipse id="Ellipse_2254" data-name="Ellipse 2254" cx="1.349" cy="3.536" rx="1.349" ry="3.536" transform="translate(12.053 42.422) rotate(-14.255)" fill="#b25269" stroke="#000" stroke-linejoin="round" stroke-width="0.25"/>
        <ellipse id="Ellipse_2255" data-name="Ellipse 2255" cx="0.996" cy="3.033" rx="0.996" ry="3.033" transform="translate(7.928 49.363) rotate(-24.132)" fill="#b25269" stroke="#000" stroke-linejoin="round" stroke-width="0.25"/>
        <ellipse id="Ellipse_2256" data-name="Ellipse 2256" cx="0.654" cy="2.276" rx="0.654" ry="2.276" transform="translate(6.853 40.138) rotate(-14.255)" fill="#b25269" stroke="#000" stroke-linejoin="round" stroke-width="0.25"/>
        <ellipse id="Ellipse_2257" data-name="Ellipse 2257" cx="0.532" cy="1.257" rx="0.532" ry="1.257" transform="translate(1.13 36.885) rotate(-14.255)" fill="#b25269" stroke="#000" stroke-linejoin="round" stroke-width="0.25"/>
        <path id="Path_12606" data-name="Path 12606" d="M194,1018.587c1.55.186-1.807,4.769-.808,7.73s1.462,5.037.27,5.614-3.346-4.576-2.654-8.114S193.041,1018.472,194,1018.587Z" transform="translate(-172.965 -994.977)" fill="#b25269" stroke="#000" stroke-linejoin="round" stroke-width="0.25"/>
        <path id="Path_12607" data-name="Path 12607" d="M208.906,1026.747c1.888-.56,2.032,4.832,3.569,6.809s.1,2.691-2.011,0S207.424,1027.185,208.906,1026.747Z" transform="translate(-173.523 -995.236)" fill="#b25269" stroke="#000" stroke-linejoin="round" stroke-width="0.25"/>
        <path id="Path_12608" data-name="Path 12608" d="M223.052,1030.31c.494-.988,3.177.2,5.327,3.515,1.985,3.064,1.752,5.949.7,5.94-.9-.007-1.187-3.795-2.579-5.774C225.244,1032.207,222.448,1031.518,223.052,1030.31Z" transform="translate(-173.995 -995.34)" fill="#b25269" stroke="#000" stroke-linejoin="round" stroke-width="0.25"/>
        <path id="Path_12609" data-name="Path 12609" d="M200.463,1019.682c-.657-.658,1.086-3.3,6.666-4.083s10.637,1.61,10.524,3.109-4.832-2.509-10.374-1.386S201.4,1020.619,200.463,1019.682Z" transform="translate(-173.273 -994.877)" fill="#b25269" stroke="#000" stroke-linejoin="round" stroke-width="0.25"/>
        <path id="Path_12610" data-name="Path 12610" d="M210.732,1006.288c.02-1.662,5.33-1,10.2,1.992s5.368,4.483,4.317,4.981-3.528-2.622-8.3-4.317C213.621,1007.763,210.716,1007.671,210.732,1006.288Z" transform="translate(-173.605 -994.556)" fill="#b25269" stroke="#000" stroke-linejoin="round" stroke-width="0.25"/>
        <ellipse id="Ellipse_2258" data-name="Ellipse 2258" cx="1.124" cy="3.04" rx="1.124" ry="3.04" transform="translate(55.113 13.129) rotate(-60)" fill="#b25269" stroke="#000" stroke-linejoin="round" stroke-width="0.25"/>
        <ellipse id="Ellipse_2259" data-name="Ellipse 2259" cx="1.101" cy="2.123" rx="1.101" ry="2.123" transform="translate(57.839 23.503) rotate(-60)" fill="#b25269" stroke="#000" stroke-linejoin="round" stroke-width="0.25"/>
        <ellipse id="Ellipse_2260" data-name="Ellipse 2260" cx="0.812" cy="2.437" rx="0.812" ry="2.437" transform="matrix(0.768, -0.64, 0.64, 0.768, 70.975, 24.903)" fill="#b25269" stroke="#000" stroke-linejoin="round" stroke-width="0.25"/>
        <ellipse id="Ellipse_2261" data-name="Ellipse 2261" cx="1.075" cy="2.857" rx="1.075" ry="2.857" transform="translate(80.444 43.232) rotate(-16.901)" fill="#b25269" stroke="#000" stroke-linejoin="round" stroke-width="0.25"/>
        <ellipse id="Ellipse_2262" data-name="Ellipse 2262" cx="1.038" cy="4.044" rx="1.038" ry="4.044" transform="translate(88.824 47.777) rotate(-11.897)" fill="#b25269" stroke="#000" stroke-linejoin="round" stroke-width="0.25"/>
        <ellipse id="Ellipse_2263" data-name="Ellipse 2263" cx="2.447" cy="1.027" rx="2.447" ry="1.027" transform="translate(86.758 60.026) rotate(-74.008)" fill="#b25269" stroke="#000" stroke-linejoin="round" stroke-width="0.25"/>
        <ellipse id="Ellipse_2264" data-name="Ellipse 2264" cx="3.565" cy="1.365" rx="3.565" ry="1.365" transform="matrix(0.57, -0.821, 0.821, 0.57, 86.578, 70.646)" fill="#b25269" stroke="#000" stroke-linejoin="round" stroke-width="0.25"/>
        <ellipse id="Ellipse_2265" data-name="Ellipse 2265" cx="1.069" cy="2.36" rx="1.069" ry="2.36" transform="translate(33.927 67.938) rotate(-60)" fill="#b25269" stroke="#000" stroke-linejoin="round" stroke-width="0.25"/>
        <path id="Path_12611" data-name="Path 12611" d="M206.063,1045.243c1.283-1.283,3.877,1.057,7.46,3.818s6.7,2.936,9.575,4.346,1.645,2.526-.411,2.115-5.756-2.761-10.456-4.523S205.065,1046.241,206.063,1045.243Z" transform="translate(-173.449 -995.815)" fill="#b25269" stroke="#000" stroke-linejoin="round" stroke-width="0.25"/>
        <path id="Path_12612" data-name="Path 12612" d="M229.549,1059.321c-.352-.588,2.232-.7,4.582-1.175s2.471-1.527,3.262-.646-1.559,2.526-5.024,2.585S229.549,1059.321,229.549,1059.321Z" transform="translate(-174.203 -996.207)" fill="#b25269" stroke="#000" stroke-linejoin="round" stroke-width="0.25"/>
        <path id="Path_12613" data-name="Path 12613" d="M250.815,1055.961c1.906.479.822,3.555-2.761,6.2s-9.046,4.464-9.28,2.819,4.137-1.828,7.166-4.2C249.287,1058.166,249.523,1055.636,250.815,1055.961Z" transform="translate(-174.499 -996.168)" fill="#b25269" stroke="#000" stroke-linejoin="round" stroke-width="0.25"/>
        <ellipse id="Ellipse_2266" data-name="Ellipse 2266" cx="1.691" cy="0.981" rx="1.691" ry="0.981" transform="translate(59.081 79.08) rotate(-37.983)" fill="#b25269" stroke="#000" stroke-linejoin="round" stroke-width="0.25"/>
        <ellipse id="Ellipse_2267" data-name="Ellipse 2267" cx="1.302" cy="0.833" rx="1.302" ry="0.833" transform="translate(64.832 80.306)" fill="#b25269" stroke="#000" stroke-linejoin="round" stroke-width="0.25"/>
        <ellipse id="Ellipse_2268" data-name="Ellipse 2268" cx="1.864" cy="0.982" rx="1.864" ry="0.982" transform="translate(79.352 79.796) rotate(-22.974)" fill="#b25269" stroke="#000" stroke-linejoin="round" stroke-width="0.25"/>
        <path id="Path_12614" data-name="Path 12614" d="M238.44,1026.816c1.018-.293,3.944,3.7,4.976,6.939s2,8.669.413,8.944.069-4.4-3.3-9.358S237.721,1027.022,238.44,1026.816Z" transform="translate(-174.471 -995.239)" fill="#b25269" stroke="#000" stroke-linejoin="round" stroke-width="0.25"/>
      </g>
    </g>
  </g>
</svg>
