<svg xmlns="http://www.w3.org/2000/svg" width="312.488" height="366.396" viewBox="0 0 312.488 366.396">
  <g id="Group_3893" data-name="Group 3893" transform="translate(-2046.12 -1269.872)">
    <g id="Group_3893-2" data-name="Group 3893">
      <path id="Path_14781" data-name="Path 14781" d="M2198.055,1573.75s2.32,11.375-2.055,17.125-.947,6.625-3.411,12-5.589,3.75-8.714,7.75-.958,4.125-2.708,6.958-4.167,4.167-4.334,7.084c0,0-3.853-5.5-9.176-7.584a13.377,13.377,0,0,1-8.324-10.416c-.75-3.917-4.166-12.25-7.333-15.084s-3.833-11.583-1.417-15.25,1.283-7.916-.608-8.416-3.642-.084-4.475,3.416-.333,5.334-3.333,8,.583,8.667-3.834,14-5.666,4.084-7.583,9.084-7.5,6.5-14.25,6.666-14.583-1.916-23.583,2.584-19.667,2.5-19.667,2.5.25-23.917,4.5-32.084,14.75-10.794,15.917-16.6,4.083-12.4,9.666-13.645,16.167-1.945,16.584-6.472-10.834-6.528-17-3.611a22.413,22.413,0,0,1-18,1c-5.5-2.167-8.417-14.966-11.667-17.941s-6.583-6.476-7.167-13.559a44.939,44.939,0,0,0-3.916-13.917s3.583-4.5,11.916-3.416S2177.5,1506.75,2177.5,1506.75Z" fill="#cad226" stroke="#231815" stroke-miterlimit="10" stroke-width="0.25"/>
      <path id="Path_14782" data-name="Path 14782" d="M2073.25,1614.167s35.7-37.013,51-55.6,56.218-42.142,56.218-42.142" fill="none" stroke="#000" stroke-miterlimit="10" stroke-width="0.25"/>
      <path id="Path_14783" data-name="Path 14783" d="M2176.833,1624.667s-6.77-19.354-3.083-33.167-12.25-44.734-12.25-44.734" fill="none" stroke="#000" stroke-miterlimit="10" stroke-width="0.25"/>
      <path id="Path_14784" data-name="Path 14784" d="M2062.167,1497.333s29.583,13.235,43.833,23.2,40,13.221,52.875,9.468" fill="none" stroke="#000" stroke-miterlimit="10" stroke-width="0.25"/>
      <path id="Path_14785" data-name="Path 14785" d="M2091.5,1606.688s3.608-7.442,1.273-13.1" fill="none" stroke="#000" stroke-miterlimit="10" stroke-width="0.25"/>
      <path id="Path_14786" data-name="Path 14786" d="M2079.375,1594.75s8.1-3.522,13.4-1.158" fill="none" stroke="#000" stroke-miterlimit="10" stroke-width="0.25"/>
      <path id="Path_14787" data-name="Path 14787" d="M2084.063,1582.625s12.69-5.424,23.063-4.556" fill="none" stroke="#000" stroke-miterlimit="10" stroke-width="0.25"/>
      <path id="Path_14788" data-name="Path 14788" d="M2104.813,1604.5a33.08,33.08,0,0,0,2.313-26.431" fill="none" stroke="#000" stroke-miterlimit="10" stroke-width="0.25"/>
      <path id="Path_14789" data-name="Path 14789" d="M2093.559,1570.625s10.1-7.957,26.456-7.041" fill="none" stroke="#000" stroke-miterlimit="10" stroke-width="0.25"/>
      <path id="Path_14790" data-name="Path 14790" d="M2117.938,1600.875s9.812-17.625,2.077-37.291" fill="none" stroke="#000" stroke-miterlimit="10" stroke-width="0.25"/>
      <path id="Path_14791" data-name="Path 14791" d="M2110,1555.857s9.78-5.077,18.765-2.217" fill="none" stroke="#000" stroke-miterlimit="10" stroke-width="0.25"/>
      <path id="Path_14792" data-name="Path 14792" d="M2129.875,1590.75s5.375-18-1.11-37.11" fill="none" stroke="#000" stroke-miterlimit="10" stroke-width="0.25"/>
      <path id="Path_14793" data-name="Path 14793" d="M2124,1545.361s7.615-1.7,12.808.982" fill="none" stroke="#000" stroke-miterlimit="10" stroke-width="0.25"/>
      <path id="Path_14794" data-name="Path 14794" d="M2138.511,1575.035s3.329-14.346-1.7-28.692" fill="none" stroke="#000" stroke-miterlimit="10" stroke-width="0.25"/>
      <path id="Path_14795" data-name="Path 14795" d="M2067.375,1506.25a14.724,14.724,0,0,0,10.414-1.524" fill="none" stroke="#000" stroke-miterlimit="10" stroke-width="0.25"/>
      <path id="Path_14796" data-name="Path 14796" d="M2072.582,1515s9.538,1.161,17.228-4.107" fill="none" stroke="#000" stroke-miterlimit="10" stroke-width="0.25"/>
      <path id="Path_14797" data-name="Path 14797" d="M2075.75,1522s16.341,3.071,25.17-4.777" fill="none" stroke="#000" stroke-miterlimit="10" stroke-width="0.25"/>
      <path id="Path_14798" data-name="Path 14798" d="M2099,1505.665s4.423,8.67,1.92,11.558" fill="none" stroke="#000" stroke-miterlimit="10" stroke-width="0.25"/>
      <path id="Path_14799" data-name="Path 14799" d="M2083.333,1534.333s22.229,1.758,33.365-8.246" fill="none" stroke="#000" stroke-miterlimit="10" stroke-width="0.25"/>
      <path id="Path_14800" data-name="Path 14800" d="M2112,1507.083s6.951,12.33,4.7,19" fill="none" stroke="#000" stroke-miterlimit="10" stroke-width="0.25"/>
      <path id="Path_14801" data-name="Path 14801" d="M2116.167,1536.917s11.666.039,15.25-6.647" fill="none" stroke="#000" stroke-miterlimit="10" stroke-width="0.25"/>
      <path id="Path_14802" data-name="Path 14802" d="M2124.917,1513.75s8.782,11.474,6.5,16.52" fill="none" stroke="#000" stroke-miterlimit="10" stroke-width="0.25"/>
      <path id="Path_14803" data-name="Path 14803" d="M2167.657,1611.375s.575-6.191,5.021-8.814" fill="none" stroke="#000" stroke-miterlimit="10" stroke-width="0.25"/>
      <path id="Path_14804" data-name="Path 14804" d="M2179.375,1609.438s-1.739-6.063-6.7-6.877" fill="none" stroke="#000" stroke-miterlimit="10" stroke-width="0.25"/>
      <path id="Path_14805" data-name="Path 14805" d="M2162.875,1601.438s5.49-9.456,11.12-11.041" fill="none" stroke="#000" stroke-miterlimit="10" stroke-width="0.25"/>
      <path id="Path_14806" data-name="Path 14806" d="M2185.75,1602.561S2180.5,1591.335,2174,1590.4" fill="none" stroke="#000" stroke-miterlimit="10" stroke-width="0.25"/>
      <path id="Path_14807" data-name="Path 14807" d="M2158.875,1592.188s6.635-10.22,14.911-11.329" fill="none" stroke="#000" stroke-miterlimit="10" stroke-width="0.25"/>
      <path id="Path_14808" data-name="Path 14808" d="M2187.75,1593.625s-5.312-11.4-13.964-12.766" fill="none" stroke="#000" stroke-miterlimit="10" stroke-width="0.25"/>
      <path id="Path_14809" data-name="Path 14809" d="M2156.563,1583.313a31.922,31.922,0,0,1,14.9-12.134" fill="none" stroke="#000" stroke-miterlimit="10" stroke-width="0.25"/>
      <path id="Path_14810" data-name="Path 14810" d="M2190.438,1588.688s-7.75-15.438-18.973-17.509" fill="none" stroke="#000" stroke-miterlimit="10" stroke-width="0.25"/>
    </g>
    <g id="Group_3894" data-name="Group 3894">
      <path id="Path_14811" data-name="Path 14811" d="M2217.333,1270s-3.166,1.333-3.333,8.167-8.181,12.333-11.341,21-.826,11-2.159,19-2.417,19.25,5.083,24.416,5.5,9.084,9.334,13.917,7.75,7.25,5.583,10.25-6.253,2.833-10.168-2.833-13.082-10.584-19.749-11.25-8.583-6.25-14.5-5.5-12.583,7.25-18.5,8.666-11.75,2.25-14.416,5.667c0,0,2.083,7.583,8.333,11.833s4.083,10,11,12.25,8.667,3.834,10.417,8.834,73.016,0,73.016,0,48.35-23.3,54.542-26.443,9.025-6.891,10.275-10.807,8.583-7.584,8.75-12.917-2.583-11.833-2-16.5.75-10.333-.25-13.583c0,0-10.667-3.75-18.25.583s-6.167,5.667-13.25,7.25-14.167,3.583-16.25,10.167-2.417,16.416-7.917,21-10.083,5.083-10.916-1.084,1.25-11.583,5.166-13.666,7.584-9.5,6.5-14.5,2.417-10.834-2.5-16.584-17.417-11.489-20.916-13.833C2230.083,1287.583,2229.333,1271.667,2217.333,1270Z" fill="#cad226" stroke="#231815" stroke-miterlimit="10" stroke-width="0.25"/>
      <path id="Path_14812" data-name="Path 14812" d="M2217.333,1270s5,27,7.334,48.333,9.918,46.958,20.532,59.138" fill="none" stroke="#000" stroke-miterlimit="10" stroke-width="0.25"/>
      <path id="Path_14813" data-name="Path 14813" d="M2317.25,1314.167s-42.086,21.517-49.751,69.842" fill="none" stroke="#000" stroke-miterlimit="10" stroke-width="0.25"/>
      <path id="Path_14814" data-name="Path 14814" d="M2143.167,1361.5s27.669-1.733,90.5,33.683" fill="none" stroke="#000" stroke-miterlimit="10" stroke-width="0.25"/>
      <path id="Path_14815" data-name="Path 14815" d="M2213.833,1286.083s3.272,6.458,7.3,6.4" fill="none" stroke="#000" stroke-miterlimit="10" stroke-width="0.25"/>
      <path id="Path_14816" data-name="Path 14816" d="M2225.75,1283.917s-.543,7.314-4.614,8.562" fill="none" stroke="#000" stroke-miterlimit="10" stroke-width="0.25"/>
      <path id="Path_14817" data-name="Path 14817" d="M2210.167,1298.083s7,8.19,13,8.179" fill="none" stroke="#000" stroke-miterlimit="10" stroke-width="0.25"/>
      <path id="Path_14818" data-name="Path 14818" d="M2231.75,1292s-.877,12.637-8.584,14.262" fill="none" stroke="#000" stroke-miterlimit="10" stroke-width="0.25"/>
      <path id="Path_14819" data-name="Path 14819" d="M2207.125,1308.75s8.833,9.667,17.542,9.583" fill="none" stroke="#000" stroke-miterlimit="10" stroke-width="0.25"/>
      <path id="Path_14820" data-name="Path 14820" d="M2242.875,1301.438s-7.1,14.4-18.208,16.9" fill="none" stroke="#000" stroke-miterlimit="10" stroke-width="0.25"/>
      <path id="Path_14821" data-name="Path 14821" d="M2205.833,1322.333s8,9.792,21.209,10.986" fill="none" stroke="#000" stroke-miterlimit="10" stroke-width="0.25"/>
      <path id="Path_14822" data-name="Path 14822" d="M2250.417,1309.417s-6.292,16.208-23.375,23.9" fill="none" stroke="#000" stroke-miterlimit="10" stroke-width="0.25"/>
      <path id="Path_14823" data-name="Path 14823" d="M2207.125,1334.25s11.081,11.123,22.562,10.038" fill="none" stroke="#000" stroke-miterlimit="10" stroke-width="0.25"/>
      <path id="Path_14824" data-name="Path 14824" d="M2254.357,1321.368s-11.5,19.245-24.67,22.92" fill="none" stroke="#000" stroke-miterlimit="10" stroke-width="0.25"/>
      <path id="Path_14825" data-name="Path 14825" d="M2217.333,1349.088s10.21,9.747,16.876,8.83" fill="none" stroke="#000" stroke-miterlimit="10" stroke-width="0.25"/>
      <path id="Path_14826" data-name="Path 14826" d="M2245.933,1342.375s-3.182,13.31-11.724,15.543" fill="none" stroke="#000" stroke-miterlimit="10" stroke-width="0.25"/>
      <path id="Path_14827" data-name="Path 14827" d="M2154.333,1368.167s7.27-.076,9.844-3.288" fill="none" stroke="#000" stroke-miterlimit="10" stroke-width="0.25"/>
      <path id="Path_14828" data-name="Path 14828" d="M2157.833,1357.979s7.231,4.806,6.344,6.9" fill="none" stroke="#000" stroke-miterlimit="10" stroke-width="0.25"/>
      <path id="Path_14829" data-name="Path 14829" d="M2160,1375.826s14.965-.447,18.9-6.345" fill="none" stroke="#000" stroke-miterlimit="10" stroke-width="0.25"/>
      <path id="Path_14830" data-name="Path 14830" d="M2168.833,1354.917s9.932,6.627,10.066,14.564" fill="none" stroke="#000" stroke-miterlimit="10" stroke-width="0.25"/>
      <path id="Path_14831" data-name="Path 14831" d="M2168.833,1381.917s18.367-.2,23.309-7.306" fill="none" stroke="#000" stroke-miterlimit="10" stroke-width="0.25"/>
      <path id="Path_14832" data-name="Path 14832" d="M2183.25,1355.583s10.82,10.914,8.892,19.028" fill="none" stroke="#000" stroke-miterlimit="10" stroke-width="0.25"/>
      <path id="Path_14833" data-name="Path 14833" d="M2199.833,1360.583s5.122,9.144,4.186,19.28" fill="none" stroke="#000" stroke-miterlimit="10" stroke-width="0.25"/>
      <path id="Path_14834" data-name="Path 14834" d="M2305.688,1315.938s-3.306,3.571-2.747,8.066" fill="none" stroke="#000" stroke-miterlimit="10" stroke-width="0.25"/>
      <path id="Path_14835" data-name="Path 14835" d="M2313.625,1324.313s-4.176,2.888-10.684-.309" fill="none" stroke="#000" stroke-miterlimit="10" stroke-width="0.25"/>
      <path id="Path_14836" data-name="Path 14836" d="M2297.063,1318.313s-7,8.624-4.689,15.624" fill="none" stroke="#000" stroke-miterlimit="10" stroke-width="0.25"/>
      <path id="Path_14837" data-name="Path 14837" d="M2313,1332.563s-11.848,4.65-20.626,1.374" fill="none" stroke="#000" stroke-miterlimit="10" stroke-width="0.25"/>
      <path id="Path_14838" data-name="Path 14838" d="M2283.75,1327.063s-1.653,11.681,1.767,15.028" fill="none" stroke="#000" stroke-miterlimit="10" stroke-width="0.25"/>
      <path id="Path_14839" data-name="Path 14839" d="M2310.813,1342.875s-14.016,5.081-25.3-.784" fill="none" stroke="#000" stroke-miterlimit="10" stroke-width="0.25"/>
      <path id="Path_14840" data-name="Path 14840" d="M2274.125,1334.577s-2.756,15.107,3.185,20.3" fill="none" stroke="#000" stroke-miterlimit="10" stroke-width="0.25"/>
      <path id="Path_14841" data-name="Path 14841" d="M2306.875,1351.438s-16.062,8.312-29.565,3.435" fill="none" stroke="#000" stroke-miterlimit="10" stroke-width="0.25"/>
      <path id="Path_14842" data-name="Path 14842" d="M2267.5,1348.25a26.428,26.428,0,0,0,4.61,18.142" fill="none" stroke="#000" stroke-miterlimit="10" stroke-width="0.25"/>
      <path id="Path_14843" data-name="Path 14843" d="M2302.75,1360.375s-20.175,11.05-30.641,6.017" fill="none" stroke="#000" stroke-miterlimit="10" stroke-width="0.25"/>
    </g>
    <path id="Path_14844" data-name="Path 14844" d="M2128,1332.563s4.333-21.9,28.667-15.063,5.735,39.447-1.716,52.723-5.278,23.8,12.716,25.06" fill="none" stroke="#000" stroke-miterlimit="10" stroke-width="0.25"/>
    <path id="Path_14845" data-name="Path 14845" d="M2120,1381.917s-4.167-1.917-1.833-5.417,10.666,2.167,14.833,5.417,24.667,16.25,39.917,12.5" fill="none" stroke="#000" stroke-miterlimit="10" stroke-width="0.25"/>
    <g id="Group_3896" data-name="Group 3896">
      <path id="Path_14846" data-name="Path 14846" d="M2351.333,1327c-1.147-1.35-2.333.667-3.833,6.667s-.333,12.833-6.667,21-23.333,25.5-33.166,25.666l3.833,11.334s6.333-7.334,9-12.334,9.583-10.166,13.667-12.75,10.833-12.083,12.666-19.5S2352.75,1328.667,2351.333,1327Z" fill="#a2c427" stroke="#231815" stroke-miterlimit="10" stroke-width="0.25"/>
      <ellipse id="Ellipse_2665" data-name="Ellipse 2665" cx="2.25" cy="3.424" rx="2.25" ry="3.424" transform="matrix(0.133, -0.991, 0.991, 0.133, 2276.634, 1371.192)" fill="none" stroke="#000" stroke-miterlimit="10" stroke-width="0.25"/>
      <g id="Group_3895" data-name="Group 3895">
        <path id="Path_14847" data-name="Path 14847" d="M2112.417,1462.417c-.184-2.874-14.5-4.917-22.667-3.417s-11.917,6.917-14.333,12.167-3.667,12.489.5,14.036S2112.917,1470.25,2112.417,1462.417Z" fill="#ffe3ca" stroke="#000" stroke-miterlimit="10" stroke-width="0.25"/>
        <path id="Path_14848" data-name="Path 14848" d="M2128.309,1460.333c-1.966-3.208-9.976-5.25-15.476-1.666s-6.416,7.166-9.666,8.5-14.5,1.666-22.417,9.666-12,18.968-8.168,25.359,18-4.692,23.085-11.859,11.666-5.166,23.166-12.666S2131.119,1464.917,2128.309,1460.333Z" fill="#ffefde" stroke="#000" stroke-miterlimit="10" stroke-width="0.25"/>
        <path id="Path_14849" data-name="Path 14849" d="M2123.95,1446.677c-.692-3.863-7.367-7.677-13.033-8.844a21.285,21.285,0,0,0-17.793,4.917c-5.124,4.5-10.374,11.833-4.207,17.917s16.666,3.333,24.083,0S2124.95,1452.261,2123.95,1446.677Z" fill="#ffefde" stroke="#000" stroke-miterlimit="10" stroke-width="0.25"/>
        <path id="Path_14850" data-name="Path 14850" d="M2100.92,1489.583c-1.711-4.04-13.793,2.478-20.42,9.584s-7.418,11.937-1.5,13.083,12.917-3.583,17.25-10.333S2102.191,1492.583,2100.92,1489.583Z" fill="#ffefde" stroke="#000" stroke-miterlimit="10" stroke-width="0.25"/>
        <path id="Path_14851" data-name="Path 14851" d="M2224.667,1375.826" fill="#ffefde" stroke="#000" stroke-miterlimit="10" stroke-width="0.25"/>
        <path id="Path_14852" data-name="Path 14852" d="M2276.583,1454.075c1.74,2.82,4.917,12.488-3.333,15.582s-18.671,3.164-19-2.122,6.5-16.7,10.25-17.535S2273.083,1448.4,2276.583,1454.075Z" fill="#ffefde" stroke="#000" stroke-miterlimit="10" stroke-width="0.25"/>
        <path id="Path_14853" data-name="Path 14853" d="M2173.167,1466.333c-2.6-3.873-15.084-7.5-23.584-3s-11.25,12.979-14.416,13.49-11.834-5.99-21.5-2.406-19.584,8.166-20.5,17.083,13.294,11.151,19.583,9.583,11.333-7.586,18.25-7.335,23,1.752,31-3.665S2178.565,1474.38,2173.167,1466.333Z" fill="#ffe3ca" stroke="#000" stroke-miterlimit="10" stroke-width="0.25"/>
        <path id="Path_14854" data-name="Path 14854" d="M2148.083,1461.25c-2.23-3.346-14.666-2-20.666,2.083s-8.584,8.75-5.917,14.167,14.1,3.583,18.715,0S2151.417,1466.25,2148.083,1461.25Z" fill="#ffefde" stroke="#000" stroke-miterlimit="10" stroke-width="0.25"/>
        <path id="Path_14855" data-name="Path 14855" d="M2145.583,1495.667c.124-3.543-10.083-4.67-22.333-1.919s-24.971,1.085-30.444,6.419-6.473,10.488,2.694,11.869,13.167,8.714,27.583,6.464S2145,1512.417,2145.583,1495.667Z" fill="#ffefde" stroke="#000" stroke-miterlimit="10" stroke-width="0.25"/>
        <path id="Path_14856" data-name="Path 14856" d="M2139.875,1423.875c-1.95-4.255-10.5-7.625-16.25-5.375s-4.25,5.375-8.875,7.5-10.875,4.25-10.75,12.375,15.375,11.375,24.5,7.25S2144,1432.875,2139.875,1423.875Z" fill="#ffefde" stroke="#000" stroke-miterlimit="10" stroke-width="0.25"/>
        <path id="Path_14857" data-name="Path 14857" d="M2174.5,1427.625c-2.688-5.17-13.625-3.625-25.25,0s-29.956,11.5-32.1,22,.853,16.375,9.478,17.125a20.484,20.484,0,0,0,17-6.75c2.375-2.75,2.375-7.625,8.25-9.625s14.25-4.125,19.875-11.875S2176.125,1430.75,2174.5,1427.625Z" fill="#ffefde" stroke="#000" stroke-miterlimit="10" stroke-width="0.25"/>
        <path id="Path_14858" data-name="Path 14858" d="M2172.417,1448.917c-1.306-2.939-10.167-5.755-19.417-1.5s-15.187,12.836-11.843,19,23.676,1.083,28.593-5S2174.083,1452.667,2172.417,1448.917Z" fill="#ffe3ca" stroke="#000" stroke-miterlimit="10" stroke-width="0.25"/>
        <path id="Path_14859" data-name="Path 14859" d="M2196.345,1467.906c-1.307-2.708-15.7.011-22.729,2.594s-14.965,7.167-13.582,14.583,14.049,7.667,25.633.5S2198.189,1471.728,2196.345,1467.906Z" fill="#ffefde" stroke="#000" stroke-miterlimit="10" stroke-width="0.25"/>
        <path id="Path_14860" data-name="Path 14860" d="M2181.833,1491.5c-.731-3.413-10.166-7.25-18.958-6.083s-12.542,4.75-18.958,7.416-16.372,3-15.561,11.167,10.477,5.036,15.894,6.893,23.639,1.274,31.028-3.81S2183.833,1500.833,2181.833,1491.5Z" fill="#ffefde" stroke="#000" stroke-miterlimit="10" stroke-width="0.25"/>
        <path id="Path_14861" data-name="Path 14861" d="M2186.111,1399.474c-2.192-3.687-9.4-8.417-16.7-6.334s-11.468,7.584-16.8,10.5-17.583,2.334-23,11-.5,18.25,8.667,19.667,12.746-3.148,18.456-2.24,23.877-8.677,28.127-17.093S2187.945,1402.557,2186.111,1399.474Z" fill="#ffe3ca" stroke="#000" stroke-miterlimit="10" stroke-width="0.25"/>
        <path id="Path_14862" data-name="Path 14862" d="M2207,1433.192c-.626-3.206-11.625-4.817-22.875-3.192s-22,6.5-23.625,14.5.39,14,15.945,11.75S2208.625,1441.508,2207,1433.192Z" fill="#ffefde" stroke="#000" stroke-miterlimit="10" stroke-width="0.25"/>
        <path id="Path_14863" data-name="Path 14863" d="M2221.75,1455.167c-1.558-3.868-13.747.083-23.623,4.208s-18.733,6.875-14.555,14.75,26.428-3.482,31.178-8.741S2223.26,1458.917,2221.75,1455.167Z" fill="#ffefde" stroke="#000" stroke-miterlimit="10" stroke-width="0.25"/>
        <path id="Path_14864" data-name="Path 14864" d="M2228.25,1470.75c-2.74-1.772-14.167-4.375-24.417-1.688s-13.5,10.6-17.333,12.1-9.667,2.416-11.083,9.5,8.261,9.729,17.172,7.75,17.744-.226,27.328.637S2237.917,1477,2228.25,1470.75Z" fill="#ffe3ca" stroke="#000" stroke-miterlimit="10" stroke-width="0.25"/>
        <path id="Path_14865" data-name="Path 14865" d="M2253.5,1369.917c-1.6-3.293-9-6.667-18.917-5.167s-15.583,7.583-20.166,8.25-18.834-.25-23.75,6.083-9.75,4.667-12.667,9-3.083,19.834,11.75,23,46-14.666,53.917-20.083S2256.417,1375.917,2253.5,1369.917Z" fill="#ffefde" stroke="#000" stroke-miterlimit="10" stroke-width="0.25"/>
        <path id="Path_14866" data-name="Path 14866" d="M2232.167,1399.583c-6.584-.916-20.5-.75-29,2.5s-8.417,6.75-12.5,7.917-11.084,0-18.25,6.75-8,14,.583,16.917,15-1.167,18.5-1.084,10.667,6.334,27.5-1.166,35.25-23.084,33.5-27.334S2232.167,1399.583,2232.167,1399.583Z" fill="#ffefde" stroke="#000" stroke-miterlimit="10" stroke-width="0.25"/>
        <path id="Path_14867" data-name="Path 14867" d="M2226.833,1431.5c-1.1-2.218-25.166.25-32.166,4.917s-8.75,12.083-12.084,13.75-15,4.25-17.333,12.666,7.333,10.584,13.75,8.667,3.583-4.833,9.583-5.583,16.167-2.334,28.584-14S2228.419,1434.685,2226.833,1431.5Z" fill="#ffefde" stroke="#000" stroke-miterlimit="10" stroke-width="0.25"/>
        <path id="Path_14868" data-name="Path 14868" d="M2269.333,1427.667c-2.324-1.533-13.333-2.25-24.416,1.75s-15.167,9.5-23.25,12.166-11.75,15.75-14.667,19.5.917,9.98,11.833,8.574,35.921-9.43,47.834-23.24S2272.083,1429.48,2269.333,1427.667Z" fill="#ffefde" stroke="#000" stroke-miterlimit="10" stroke-width="0.25"/>
        <path id="Path_14869" data-name="Path 14869" d="M2263.75,1451.413c-2.314-2.761-10.5-3-16.333,0s-7.23,6.42-10.282,7.337-18.135,5.131-17.718,13.4,11.166,6.184,19,2.518,14.083-2.084,17.833-6S2266.75,1454.992,2263.75,1451.413Z" fill="#ffefde" stroke="#000" stroke-miterlimit="10" stroke-width="0.25"/>
        <path id="Path_14870" data-name="Path 14870" d="M2283.75,1385.167c.1-2.934-14.417-9.584-24.917-9.334s-16.666,1.91-20.083,4.664-4.583,3.67-10.583,5.086-21.667,11-19.917,18.334,14,8,21.25,4.666,16.227-2.954,23.863-2.518S2283.25,1399.25,2283.75,1385.167Z" fill="#ffefde" stroke="#000" stroke-miterlimit="10" stroke-width="0.25"/>
        <path id="Path_14871" data-name="Path 14871" d="M2270.073,1404.375c-1.008-3.173-14.948-2.375-26.7,4.25s-11.086,12-14.481,14.5S2214.8,1427.75,2215.4,1434s13.516,7.086,20.432,4.231,5.292-5.856,9.542-6.981,12.912-3.5,19.269-10.625S2271.541,1409,2270.073,1404.375Z" fill="#ffe3ca" stroke="#000" stroke-miterlimit="10" stroke-width="0.25"/>
        <path id="Path_14872" data-name="Path 14872" d="M2292.583,1396.333c-.126-2.645-19.25-2.083-24.666.667s-13.75,5-16.5,12.667,2.25,12,12.583,9.333S2292.917,1403.333,2292.583,1396.333Z" fill="#ffefde" stroke="#000" stroke-miterlimit="10" stroke-width="0.25"/>
        <path id="Path_14873" data-name="Path 14873" d="M2316.5,1395.625c3.011,1.357,4,13.5-.875,22.5S2313,1430.25,2305.25,1437.5s-11,9-14,16.25-13.125,11.125-19,5.75,2-14.875,2-14.875S2305.125,1390.5,2316.5,1395.625Z" fill="#ffefde" stroke="#000" stroke-miterlimit="10" stroke-width="0.25"/>
        <path id="Path_14874" data-name="Path 14874" d="M2300.5,1416.25c4,2.521-1.833,13.5-7.917,18.333s-12.333,7.334-14.583,11.667-6.417,6.417-10.333,7.5-9.917-.333-5.334-7.5,11.25-12.083,15.417-15.333S2295.083,1412.833,2300.5,1416.25Z" fill="#ffefde" stroke="#000" stroke-miterlimit="10" stroke-width="0.25"/>
        <path id="Path_14875" data-name="Path 14875" d="M2308.333,1378.167c2.322-4.515-10.666-13.834-21.666-15.667s-14.75.25-20.334,0-14.583-2.75-19.666,3.5,3.916,11.5,13.583,10.917,12.083,6.083,29.333,6.166S2306.833,1381.083,2308.333,1378.167Z" fill="#ffefde" stroke="#000" stroke-miterlimit="10" stroke-width="0.25"/>
        <path id="Path_14876" data-name="Path 14876" d="M2311.667,1381c2.8,3.034,2,8-5.834,12.5s-18.083,4.083-24.916,5.667-15.834,1.666-16.25-2.75,4.833-14.25,12.916-15.917S2307.75,1376.75,2311.667,1381Z" fill="#ffe3ca" stroke="#000" stroke-miterlimit="10" stroke-width="0.25"/>
        <path id="Path_14877" data-name="Path 14877" d="M2313.138,1390.25c2.891,2.805-7.763,21.875-16.888,26.5s-10.25,12.875-20.625,17.375-23.75,6.75-23.75-1S2259.5,1420.75,2264,1419s9.5-16.625,23.75-22.125S2309.4,1386.625,2313.138,1390.25Z" fill="#ffefde" stroke="#000" stroke-miterlimit="10" stroke-width="0.25"/>
      </g>
      <ellipse id="Ellipse_2666" data-name="Ellipse 2666" cx="3.583" cy="2.127" rx="3.583" ry="2.127" transform="matrix(0.954, -0.301, 0.301, 0.954, 2224.837, 1372.578)" fill="#dffffa" stroke="#231815" stroke-miterlimit="10" stroke-width="0.25"/>
      <ellipse id="Ellipse_2667" data-name="Ellipse 2667" cx="2.33" cy="1.253" rx="2.33" ry="1.253" transform="matrix(0.947, -0.321, 0.321, 0.947, 2139.936, 1408.814)" fill="#dffffa" stroke="#231815" stroke-miterlimit="10" stroke-width="0.25"/>
      <ellipse id="Ellipse_2668" data-name="Ellipse 2668" cx="5.563" cy="2.75" rx="5.563" ry="2.75" transform="translate(2147.745 1411.9) rotate(-30)" fill="#dffffa" stroke="#231815" stroke-miterlimit="10" stroke-width="0.25"/>
      <ellipse id="Ellipse_2669" data-name="Ellipse 2669" cx="5.563" cy="2.75" rx="5.563" ry="2.75" transform="translate(2233.878 1418.307) rotate(-30)" fill="#dffffa" stroke="#231815" stroke-miterlimit="10" stroke-width="0.25"/>
      <ellipse id="Ellipse_2670" data-name="Ellipse 2670" cx="6.688" cy="3.282" rx="6.688" ry="3.282" transform="translate(2182.718 1416.634) rotate(-16.299)" fill="#dffffa" stroke="#231815" stroke-miterlimit="10" stroke-width="0.25"/>
      <ellipse id="Ellipse_2671" data-name="Ellipse 2671" cx="3.563" cy="3.125" rx="3.563" ry="3.125" transform="matrix(0.781, -0.625, 0.625, 0.781, 2149.891, 1473.225)" fill="#dffffa" stroke="#231815" stroke-miterlimit="10" stroke-width="0.25"/>
      <ellipse id="Ellipse_2672" data-name="Ellipse 2672" cx="4.079" cy="2.252" rx="4.079" ry="2.252" transform="translate(2099.202 1448.395) rotate(-41.056)" fill="#dffffa" stroke="#231815" stroke-miterlimit="10" stroke-width="0.25"/>
      <ellipse id="Ellipse_2673" data-name="Ellipse 2673" cx="2.313" cy="1.313" rx="2.313" ry="1.313" transform="matrix(0.844, -0.537, 0.537, 0.844, 2092.781, 1448.071)" fill="#dffffa" stroke="#231815" stroke-miterlimit="10" stroke-width="0.25"/>
    </g>
    <g id="Group_3898" data-name="Group 3898">
      <g id="Group_3897" data-name="Group 3897">
        <path id="Path_14878" data-name="Path 14878" d="M2269.375,1563.875s.188,11.813-6.437,13.313-7.75-3.8-7.75-3.8l1.25-8.8,5.844-4.9Z" fill="#ffe3ca" stroke="#000" stroke-miterlimit="10" stroke-width="0.25"/>
        <path id="Path_14879" data-name="Path 14879" d="M2257.063,1565.813s1.562,10-4.188,14.375-13.437,1.937-15.937-1.313l2.75-14.562,10.937-2.813Z" fill="#ffe3ca" stroke="#000" stroke-miterlimit="10" stroke-width="0.25"/>
        <path id="Path_14880" data-name="Path 14880" d="M2263.5,1559.25s-2.187,8.5-10.062,9.375a8.623,8.623,0,0,1-9.688-6.062l5.389-15.23,10.8-2.708Z" fill="#ffe3ca" stroke="#000" stroke-miterlimit="10" stroke-width="0.25"/>
        <path id="Path_14881" data-name="Path 14881" d="M2195.188,1562.938s-9.063,7.187-8.625,14.312,6.937,11.5,13.312,10.813,9.125-6.438,9.125-6.438l.563-12.937-6-6.75Z" fill="#ffe3ca" stroke="#000" stroke-miterlimit="10" stroke-width="0.25"/>
        <path id="Path_14882" data-name="Path 14882" d="M2208.25,1568.945s-4.437,12.368,1.875,16.993,11.625-.125,14.563-3.938l-1.5-13.937Z" fill="#ffe3ca" stroke="#000" stroke-miterlimit="10" stroke-width="0.25"/>
        <path id="Path_14883" data-name="Path 14883" d="M2250.75,1547.333s1.4,9.115-1.611,13.828a14.221,14.221,0,0,1-7.7,5.9s-1.83,16.857-11.188,17.812-10.125-11.437-9.437-15l11.52-20.125Z" fill="#ffe3ca" stroke="#000" stroke-miterlimit="10" stroke-width="0.25"/>
        <path id="Path_14884" data-name="Path 14884" d="M2232.333,1549.75s2.542,4.5-3.458,13.688-14.562,10.75-20.312,7.75-6.875-10.622-6.875-10.622l4.479-9.149Z" fill="#ffe3ca" stroke="#000" stroke-miterlimit="10" stroke-width="0.25"/>
        <path id="Path_14885" data-name="Path 14885" d="M2144.25,1545.361s-4.562,3.827-2.75,13.827,10.625,12.437,16.5,9.187l.875-18.812Z" fill="#ffe3ca" stroke="#000" stroke-miterlimit="10" stroke-width="0.25"/>
        <path id="Path_14886" data-name="Path 14886" d="M2138.683,1523.425a24.1,24.1,0,0,0,0,14.138c2.38,7.562,6.5,12,14.192,11.625l4.688-13.563Z" fill="#ffe3ca" stroke="#000" stroke-miterlimit="10" stroke-width="0.25"/>
        <path id="Path_14887" data-name="Path 14887" d="M2157.063,1552s-4.063,14.188,1.187,19.75,10.438,3.875,11.938,2.438c0,0,2.875,8.062,9.562,4.687l-4.687-20.125-8.554-7.495Z" fill="#ffe3ca" stroke="#000" stroke-miterlimit="10" stroke-width="0.25"/>
        <path id="Path_14888" data-name="Path 14888" d="M2155.688,1536.563a12.153,12.153,0,0,0-4.063,11.687c1.375,7.625,10.25,6.188,13.313,4.813s3.125-10.875,3.125-10.875Z" fill="#ffe3ca" stroke="#000" stroke-miterlimit="10" stroke-width="0.25"/>
        <path id="Path_14889" data-name="Path 14889" d="M2206.167,1551.417a12.5,12.5,0,0,1-2.667,14.061c-6.437,6.772-10.51,2.022-10.911-.79l-1.276-16.5Z" fill="#ffe3ca" stroke="#000" stroke-miterlimit="10" stroke-width="0.25"/>
        <path id="Path_14890" data-name="Path 14890" d="M2168.063,1542.188a14.313,14.313,0,0,0-2.625,14.25c3,8.375,8.25,6.375,9.125,5.562,0,0-1.563,10.25,2.875,15.688s10.062,1.812,12.562-2.063,5.771-12.312,2.417-25.625Z" fill="#ffe3ca" stroke="#000" stroke-miterlimit="10" stroke-width="0.25"/>
      </g>
      <path id="Path_14891" data-name="Path 14891" d="M2232.333,1496.75s-9.708-6-17.458-1a12.018,12.018,0,0,0-13.375.688,22.26,22.26,0,0,0-14.312-.375c-7.438,2.5-9.375,6-9.375,6s-8.063-3.938-18.875,1-10.625,10.5-10.625,10.5-13.5,5-8.813,16.247,16.188,6.75,16.188,6.75a5.452,5.452,0,0,0,3.187,7c5,2.125,9.188-1.375,9.188-1.375a13.264,13.264,0,0,0,10.02,10.729c9,2.25,14.334-2.917,14.334-2.917a5.708,5.708,0,0,0,5.71,4.167,12.857,12.857,0,0,0,8.04-2.75s4.833,5.25,14.333,4.333,11.833-6,11.833-6,7.917,2.833,14.334-1.5Z" fill="#fff2e3" stroke="#000" stroke-miterlimit="10" stroke-width="0.25"/>
      <path id="Path_14892" data-name="Path 14892" d="M2165.75,1524.5c0-6.38,17.25-18.625,36-19.625s33.375,3.083,37.25,11.042,2.587,17.833-9.332,20.083-31.043,3.125-42.543,1.25S2165.75,1530.25,2165.75,1524.5Z" fill="#fcfcfc" stroke="#000" stroke-miterlimit="10" stroke-width="0.25"/>
      <path id="Path_14893" data-name="Path 14893" d="M2191.5,1519.368c1.89-2.793,17.375,1.007,13,5.882S2188.375,1523.987,2191.5,1519.368Z" fill="#d6a47b" stroke="#000" stroke-miterlimit="10" stroke-width="0.25"/>
      <path id="Path_14894" data-name="Path 14894" d="M2204.25,1515.93c-.247-2.555,13-3.7,13.125,0S2204.75,1521.109,2204.25,1515.93Z" fill="#d6a47b" stroke="#000" stroke-miterlimit="10" stroke-width="0.25"/>
      <path id="Path_14895" data-name="Path 14895" d="M2212.625,1527.625c-2.1-2.676,9.875-9.627,13.875-6.126S2216.25,1532.25,2212.625,1527.625Z" fill="#d6a47b" stroke="#000" stroke-miterlimit="10" stroke-width="0.25"/>
      <ellipse id="Ellipse_2674" data-name="Ellipse 2674" cx="4" cy="1.908" rx="4" ry="1.908" transform="translate(2162.875 1509.75)" fill="#dffffa" stroke="#231815" stroke-miterlimit="10" stroke-width="0.25"/>
      <ellipse id="Ellipse_2675" data-name="Ellipse 2675" cx="2.313" cy="1.143" rx="2.313" ry="1.143" transform="translate(2154.625 1509.75)" fill="#dffffa" stroke="#231815" stroke-miterlimit="10" stroke-width="0.25"/>
    </g>
    <path id="Path_14896" data-name="Path 14896" d="M2355.25,1488.5s-2.875-8.089-11.625-9.357-9.75,6.232-.875,4.107,12.375-11.25,12.5-20.375-13.375-13.375-25.375-6.625-24.565,13.271-41.375,13.61-19.75-10.11-19.75-10.11" fill="none" stroke="#000" stroke-miterlimit="10" stroke-width="0.25"/>
    <path id="Path_14897" data-name="Path 14897" d="M2284.75,1446.375s14.125-2.5,23,6.564,7.5,21.311,2.125,23.061-5.875-6.031-2.625-6.14" fill="none" stroke="#000" stroke-miterlimit="10" stroke-width="0.25"/>
    <g id="Group_3899" data-name="Group 3899">
      <ellipse id="Ellipse_2676" data-name="Ellipse 2676" cx="3.74" cy="1.985" rx="3.74" ry="1.985" transform="translate(2337.188 1582.554)" fill="#c19165" stroke="#000" stroke-linejoin="round" stroke-width="0.25"/>
      <ellipse id="Ellipse_2677" data-name="Ellipse 2677" cx="2.795" cy="1.5" rx="2.795" ry="1.5" transform="translate(2328.485 1575.5)" fill="#ecb36f" stroke="#000" stroke-linejoin="round" stroke-width="0.25"/>
      <ellipse id="Ellipse_2678" data-name="Ellipse 2678" cx="4.833" cy="2.667" rx="4.833" ry="2.667" transform="translate(2308.333 1624.333)" fill="#c19165" stroke="#000" stroke-linejoin="round" stroke-width="0.25"/>
      <ellipse id="Ellipse_2679" data-name="Ellipse 2679" cx="4.167" cy="1.948" rx="4.167" ry="1.948" transform="translate(2222 1609.438)" fill="#ecb36f" stroke="#000" stroke-linejoin="round" stroke-width="0.25"/>
      <ellipse id="Ellipse_2680" data-name="Ellipse 2680" cx="3.167" cy="1.484" rx="3.167" ry="1.484" transform="translate(2213 1604)" fill="#ecb36f" stroke="#000" stroke-linejoin="round" stroke-width="0.25"/>
      <ellipse id="Ellipse_2681" data-name="Ellipse 2681" cx="3.736" cy="1.833" rx="3.736" ry="1.833" transform="translate(2151.402 1624.667)" fill="#c19165" stroke="#000" stroke-linejoin="round" stroke-width="0.25"/>
      <ellipse id="Ellipse_2682" data-name="Ellipse 2682" cx="3.75" cy="1.917" rx="3.75" ry="1.917" transform="translate(2104 1618.333)" fill="#ecb36f" stroke="#000" stroke-linejoin="round" stroke-width="0.25"/>
      <ellipse id="Ellipse_2683" data-name="Ellipse 2683" cx="7.167" cy="2.667" rx="7.167" ry="2.667" transform="translate(2087.333 1626.5)" fill="#c19165" stroke="#000" stroke-linejoin="round" stroke-width="0.25"/>
      <ellipse id="Ellipse_2684" data-name="Ellipse 2684" cx="4.62" cy="2.08" rx="4.62" ry="2.08" transform="translate(2076.833 1561.318)" fill="#c19165" stroke="#000" stroke-linejoin="round" stroke-width="0.25"/>
      <ellipse id="Ellipse_2685" data-name="Ellipse 2685" cx="3.563" cy="1.616" rx="3.563" ry="1.616" transform="translate(2067.375 1554.312)" fill="#ecb36f" stroke="#000" stroke-linejoin="round" stroke-width="0.25"/>
      <path id="Path_14898" data-name="Path 14898" d="M2046.167,1564.5a17.2,17.2,0,0,1,11.333,0c6,2.167,8.25.37,9.875-.481s3.292-1.128,5.875,1.51" fill="none" stroke="#000" stroke-miterlimit="10" stroke-width="0.25"/>
      <path id="Path_14899" data-name="Path 14899" d="M2058.667,1570.625s5.833,3.125,11.333,0,7.767-2.433,11.454.554,8.664.66,12.1-2.593" fill="none" stroke="#000" stroke-miterlimit="10" stroke-width="0.25"/>
      <path id="Path_14900" data-name="Path 14900" d="M2133.75,1606s.9,2.751,4.761,1.5,6.114-1.6,8.989.326" fill="none" stroke="#000" stroke-miterlimit="10" stroke-width="0.25"/>
      <path id="Path_14901" data-name="Path 14901" d="M2130.366,1611.375a14.8,14.8,0,0,0,13.634,1.25c8-3,7.125,1.25,14.875.375" fill="none" stroke="#000" stroke-miterlimit="10" stroke-width="0.25"/>
      <path id="Path_14902" data-name="Path 14902" d="M2203.25,1624.667a16.013,16.013,0,0,1,11.5,0c5.75,2.458,9.625.856,13-1.093s8.5-1.949,12.875,1.8" fill="none" stroke="#000" stroke-miterlimit="10" stroke-width="0.25"/>
      <path id="Path_14903" data-name="Path 14903" d="M2190.438,1632.125s5.756,4.5,12.221,1.75,10.763-1.22,13.052.89,7.914,1.735,11.039-.765" fill="none" stroke="#000" stroke-miterlimit="10" stroke-width="0.25"/>
      <path id="Path_14904" data-name="Path 14904" d="M2268.25,1594.375s4.875-3.75,9.875-1.25,9.5,4.125,15.375,1.25,12.25-1.957,14.375-.291" fill="none" stroke="#000" stroke-miterlimit="10" stroke-width="0.25"/>
      <path id="Path_14905" data-name="Path 14905" d="M2302.25,1588.133s3.194,2.617,8.285.867,6.465-1.419,9.215.6,6.595.99,8.735-.869" fill="none" stroke="#000" stroke-miterlimit="10" stroke-width="0.25"/>
      <path id="Path_14906" data-name="Path 14906" d="M2299.875,1616.75a7.435,7.435,0,0,1,6.375,0c3.375,1.625,5.485-2.625,9.118,0" fill="none" stroke="#000" stroke-miterlimit="10" stroke-width="0.25"/>
      <path id="Path_14907" data-name="Path 14907" d="M2336.25,1537.75s3.25-1.375,5.875,0,8.75-1.125,12.75,1.375" fill="none" stroke="#000" stroke-miterlimit="10" stroke-width="0.25"/>
      <path id="Path_14908" data-name="Path 14908" d="M2344,1534.25s3.625-1.5,6.75,0,7,.667,7.75-.667" fill="none" stroke="#000" stroke-miterlimit="10" stroke-width="0.25"/>
    </g>
    <g id="Group_3903" data-name="Group 3903">
      <g id="Group_3902" data-name="Group 3902">
        <g id="Group_3900" data-name="Group 3900">
          <path id="Path_14909" data-name="Path 14909" d="M2313.917,1570.431s-4.75,5.9-11.167,5.9-9.145-3.239-10.25-6.666l4.833-5.084,14,.439Z" fill="#ffefde" stroke="#000" stroke-miterlimit="10" stroke-width="0.25"/>
          <path id="Path_14910" data-name="Path 14910" d="M2339.243,1541.667s1.757,10.75-1.91,16.5-6.083,6.416-8.25,4.25,2.25-12.344,2.25-12.344Z" fill="#ffefde" stroke="#000" stroke-miterlimit="10" stroke-width="0.25"/>
          <path id="Path_14911" data-name="Path 14911" d="M2331.75,1552.5a21.122,21.122,0,0,1-4.912,15.083c-6,7.417-13.755,9.334-15.838,3.584s3.5-15.592,3.5-15.592l10-3.075Z" fill="#ffefde" stroke="#000" stroke-miterlimit="10" stroke-width="0.25"/>
          <path id="Path_14912" data-name="Path 14912" d="M2256.675,1546.766a5.919,5.919,0,0,0-3.083,5.843c.25,4.334,6.25,6,10.25,1.75l-1.167-7.25Z" fill="#ffefde" stroke="#000" stroke-miterlimit="10" stroke-width="0.25"/>
          <path id="Path_14913" data-name="Path 14913" d="M2295.833,1568s-4,6.667-13.5,5.167-9-7.917-8.5-10.917l7.084-4.667L2295,1563.5Z" fill="#ffefde" stroke="#000" stroke-miterlimit="10" stroke-width="0.25"/>
          <path id="Path_14914" data-name="Path 14914" d="M2230.871,1496a8.916,8.916,0,0,0-11.418-.583c-6.334,4.416-1.75,18,7.166,15.916S2230.871,1496,2230.871,1496Z" fill="#ffefde" stroke="#000" stroke-miterlimit="10" stroke-width="0.25"/>
          <path id="Path_14915" data-name="Path 14915" d="M2235.433,1469.657s-10.1,5.26-11.6,15.426,2.25,12.084,8.5,11.667l3.5-11.083Z" fill="#ffefde" stroke="#000" stroke-miterlimit="10" stroke-width="0.25"/>
          <path id="Path_14916" data-name="Path 14916" d="M2266,1535.125s-7.917,10.042-7.25,17.375,4.583,12.917,12.75,12.5,14.333-11.333,15.375-16.875Z" fill="#ffefde" stroke="#000" stroke-miterlimit="10" stroke-width="0.25"/>
          <path id="Path_14917" data-name="Path 14917" d="M2237.833,1531.25s-10.993-2.167-14.33-10.75-.25-14.917,6.165-16.75l13.59,13.75-2.175,11.417Z" fill="#ffefde" stroke="#000" stroke-miterlimit="10" stroke-width="0.25"/>
          <path id="Path_14918" data-name="Path 14918" d="M2318,1555.375s-1.167,10.125-9.5,13.625-14.917-.04-15-3.978l4.083-8.477Z" fill="#ffefde" stroke="#000" stroke-miterlimit="10" stroke-width="0.25"/>
          <path id="Path_14919" data-name="Path 14919" d="M2336.951,1526a16.665,16.665,0,0,1-1.868,10.914l-3.666-6.417Z" fill="#ffefde" stroke="#000" stroke-miterlimit="10" stroke-width="0.25"/>
          <path id="Path_14920" data-name="Path 14920" d="M2300.567,1559.072s-3.692,9.928-15.067,6.553-.807-18.859-.807-18.859l6.432,1.609Z" fill="#ffefde" stroke="#000" stroke-miterlimit="10" stroke-width="0.25"/>
          <path id="Path_14921" data-name="Path 14921" d="M2233.188,1489.875s-3.845,1.208-5.6,10.042,4,15.25,11.412,16c0,0,6.167.595,8-6.328Z" fill="#ffefde" stroke="#000" stroke-miterlimit="10" stroke-width="0.25"/>
          <path id="Path_14922" data-name="Path 14922" d="M2244.5,1509.75a12.5,12.5,0,0,0-5.333,7.583c-1.25,5.25,1.333,10.25,5.916,9.417a7.217,7.217,0,0,0,5.667-4.875Z" fill="#ffefde" stroke="#000" stroke-miterlimit="10" stroke-width="0.25"/>
          <path id="Path_14923" data-name="Path 14923" d="M2244.346,1520.467s-9.429,3.616-10.429,13.616,2.916,15.5,8.333,16.25a9.67,9.67,0,0,0,8.5-3s.55,4.047,4.333,4.084c3.917.038,10.084-2.417,10.917-16.292l-13.167-15.757Z" fill="#ffefde" stroke="#000" stroke-miterlimit="10" stroke-width="0.25"/>
        </g>
        <path id="Path_14924" data-name="Path 14924" d="M2244.625,1469.062s1.75-4.812,5.625-4.687,4.625,5.25,4.625,5.25.5-2,2.25-1.875,3.25,2.75,3.25,2.75a11.067,11.067,0,0,1,10.625-3.064,13.62,13.62,0,0,1,9.375,7.439s4.125-4.125,12.125,0,12.125,13.75,13.5,19.875c0,0,8-1.625,13.375,3.25s5,10.5,2.125,12.625c0,0,9.75.25,13.5,8.625s1.5,10.5-1.625,11.375c0,0,5,1.75,5.75,10s-2.125,13.25-7.375,11.875c0,0-2.375,4.5-7,5s-6.75-2.125-6.75-2.125-.375,5.875-10.625,5.125-17.75-7.375-20.5-12.375c0,0-5.5,3-13-.875s-7.875-12.125-7.875-12.125-5.875,1.875-11-3.625-4.25-9.625-4.25-9.625-5.875,2-7.25-3.25a11.668,11.668,0,0,1,1-8.875,10.094,10.094,0,0,1-7.812-.312c-4.125-1.938-9.938-10.25-3.5-19.563,0,0-8-1.937-4.875-10.75S2241.5,1464.187,2244.625,1469.062Z" fill="#fff6eb" stroke="#000" stroke-miterlimit="10" stroke-width="0.25"/>
        <g id="Group_3901" data-name="Group 3901">
          <path id="Path_14925" data-name="Path 14925" d="M2256.75,1480.164c5.5-1.612,15.583-3.664,37.75,14.169s36.333,29.334,31.333,43.167-31.166,5.833-45.333-3.667-26.333-20.833-30.167-35.166S2252.775,1481.329,2256.75,1480.164Z" fill="#fcfcfc"/>
          <path id="Path_14926" data-name="Path 14926" d="M2256.75,1480.164c5.5-1.612,15.583-3.664,37.75,14.169s36.333,29.334,31.333,43.167-31.166,5.833-45.333-3.667-26.333-20.833-30.167-35.166S2252.775,1481.329,2256.75,1480.164Z" fill="none" stroke="#000" stroke-miterlimit="10" stroke-width="0.25"/>
        </g>
        <ellipse id="Ellipse_2686" data-name="Ellipse 2686" cx="1.292" cy="2.375" rx="1.292" ry="2.375" transform="matrix(0.561, -0.828, 0.828, 0.561, 2283.879, 1480.588)" fill="#dffffa" stroke="#231815" stroke-miterlimit="10" stroke-width="0.25"/>
        <ellipse id="Ellipse_2687" data-name="Ellipse 2687" cx="1.967" cy="4.417" rx="1.967" ry="4.417" transform="matrix(0.561, -0.828, 0.828, 0.561, 2290.537, 1483.625)" fill="#dffffa" stroke="#231815" stroke-miterlimit="10" stroke-width="0.25"/>
        <path id="Path_14927" data-name="Path 14927" d="M2274.25,1503.333c3.369-.707,12.5,14.75,6.833,17.334S2267.5,1504.75,2274.25,1503.333Z" fill="#d6a47b" stroke="#000" stroke-miterlimit="10" stroke-width="0.25"/>
        <path id="Path_14928" data-name="Path 14928" d="M2284.583,1506.083c1-3.934,15.417,1.272,14.167,6.386S2283.083,1512,2284.583,1506.083Z" fill="#d6a47b" stroke="#000" stroke-miterlimit="10" stroke-width="0.25"/>
        <path id="Path_14929" data-name="Path 14929" d="M2287.083,1524.417c-1.767-4.609,11.667-7.334,13.334-2.5S2289.417,1530.5,2287.083,1524.417Z" fill="#d6a47b" stroke="#000" stroke-miterlimit="10" stroke-width="0.25"/>
      </g>
    </g>
  </g>
</svg>
