<svg xmlns="http://www.w3.org/2000/svg" xmlns:xlink="http://www.w3.org/1999/xlink" width="322.979" height="343.818" viewBox="0 0 322.979 343.818">
  <defs>
    <clipPath id="clip-path">
      <path id="Path_13963" data-name="Path 13963" d="M737.167,1436.333c-7.687-8.033-31.167-6.166-50.834,2.5s-43.958,24.417-53.666,37.334c-6.674,8.878-16.167,29.255,3.666,31.961s41.667-4.461,55-11.128,25.834-23.046,33-26.856S752.157,1452,737.167,1436.333Z" fill="none"/>
    </clipPath>
  </defs>
  <g id="Group_3839" data-name="Group 3839" transform="translate(-499.938 -1300.957)">
    <g id="Group_3794" data-name="Group 3794">
      <ellipse id="Ellipse_2528" data-name="Ellipse 2528" cx="3.625" cy="2.25" rx="3.625" ry="2.25" transform="translate(763.5 1518.5)" fill="#ecb36f" stroke="#000" stroke-linejoin="round" stroke-width="0.25"/>
      <ellipse id="Ellipse_2529" data-name="Ellipse 2529" cx="2.875" cy="1.5" rx="2.875" ry="1.5" transform="translate(771.688 1525.25)" fill="#c19165" stroke="#000" stroke-linejoin="round" stroke-width="0.25"/>
      <path id="Path_13803" data-name="Path 13803" d="M744.072,1536.2a10.357,10.357,0,0,1,6.8,1.3c3.188,2,6.625,2.188,10.375,0s9.625-2.25,12.875.5" fill="none" stroke="#252f33" stroke-miterlimit="10" stroke-width="0.25"/>
      <path id="Path_13804" data-name="Path 13804" d="M783.188,1541.125s3.5-2.937,7.187-1.312,5.5.832,6.625-.49" fill="none" stroke="#252f33" stroke-miterlimit="10" stroke-width="0.25"/>
      <path id="Path_13805" data-name="Path 13805" d="M714.25,1575a9.981,9.981,0,0,1,9.625,0,19.768,19.768,0,0,0,16.625,0c4.25-2.125,10.375-2.137,16,.307s13.375,3.693,19.125-.932" fill="none" stroke="#252f33" stroke-miterlimit="10" stroke-width="0.25"/>
      <ellipse id="Ellipse_2530" data-name="Ellipse 2530" cx="5.813" cy="2.767" rx="5.813" ry="2.767" transform="translate(676.375 1575.466)" fill="#c19165" stroke="#000" stroke-linejoin="round" stroke-width="0.25"/>
      <path id="Path_13806" data-name="Path 13806" d="M697.75,1591.375s6.25-3.5,12.75,0,13.5,1.75,16.125,0" fill="none" stroke="#252f33" stroke-miterlimit="10" stroke-width="0.25"/>
      <ellipse id="Ellipse_2531" data-name="Ellipse 2531" cx="4.563" cy="2.688" rx="4.563" ry="2.688" transform="translate(763.125 1598)" fill="#ecb36f" stroke="#000" stroke-linejoin="round" stroke-width="0.25"/>
      <ellipse id="Ellipse_2532" data-name="Ellipse 2532" cx="3.5" cy="2.063" rx="3.5" ry="2.063" transform="translate(774.75 1608.125)" fill="#ecb36f" stroke="#000" stroke-linejoin="round" stroke-width="0.25"/>
      <path id="Path_13807" data-name="Path 13807" d="M760.75,1624.25s6.125-2.375,11.5,0,8.375,1.194,10.75-.528" fill="none" stroke="#252f33" stroke-miterlimit="10" stroke-width="0.25"/>
      <path id="Path_13808" data-name="Path 13808" d="M633.531,1617.75a10.819,10.819,0,0,1,11.344,0c6.125,3.625,15,3.375,19.75,0s9.375-1.25,11.75,1.125" fill="none" stroke="#252f33" stroke-miterlimit="10" stroke-width="0.25"/>
      <ellipse id="Ellipse_2533" data-name="Ellipse 2533" cx="3.563" cy="2.563" rx="3.563" ry="2.563" transform="translate(654.92 1639.526)" fill="#c19165" stroke="#000" stroke-linejoin="round" stroke-width="0.25"/>
      <path id="Path_13809" data-name="Path 13809" d="M682.188,1618.186s4.437-1.939,7.562,0,8-.861,8-.861" fill="none" stroke="#252f33" stroke-miterlimit="10" stroke-width="0.25"/>
      <ellipse id="Ellipse_2534" data-name="Ellipse 2534" cx="8.313" cy="4.188" rx="8.313" ry="4.188" transform="translate(548 1607)" fill="#c19165" stroke="#000" stroke-linejoin="round" stroke-width="0.25"/>
      <ellipse id="Ellipse_2535" data-name="Ellipse 2535" cx="4.625" cy="2.5" rx="4.625" ry="2.5" transform="translate(536.875 1618.125)" fill="#c19165" stroke="#000" stroke-linejoin="round" stroke-width="0.25"/>
      <path id="Path_13810" data-name="Path 13810" d="M543.652,1581.125s7.723,3.875,13.473,0,12.375-1.778,14.625.861,10.375,3.764,13.875-.361" fill="none" stroke="#252f33" stroke-miterlimit="10" stroke-width="0.25"/>
      <ellipse id="Ellipse_2536" data-name="Ellipse 2536" cx="2.938" cy="1.874" rx="2.938" ry="1.874" transform="translate(520.75 1508.128)" fill="#ecb36f" stroke="#000" stroke-linejoin="round" stroke-width="0.25"/>
      <path id="Path_13811" data-name="Path 13811" d="M506,1521.156s5.875,4.031,11,0,10.768-.428,13.125.9c5.25,2.948,10.3,1.448,13.026-1.677" fill="none" stroke="#252f33" stroke-miterlimit="10" stroke-width="0.25"/>
      <path id="Path_13812" data-name="Path 13812" d="M500,1531.753a8.446,8.446,0,0,0,7.375,0,6.451,6.451,0,0,1,7,.835" fill="none" stroke="#252f33" stroke-miterlimit="10" stroke-width="0.25"/>
    </g>
    <path id="Path_13813" data-name="Path 13813" d="M725.75,1345.375s-4.125-10.125-10.375-8.625-5.5,7.5-2.375,8.625,9-3.25,4.625-11.625-16.5-5.25-20.125,3.875,7,18.875,11.75,23.5,5.75,14.125,4.375,19.375-4.375,14.5,1.25,21.5" fill="none" stroke="#252f33" stroke-miterlimit="10" stroke-width="0.25"/>
    <g id="Group_3795" data-name="Group 3795">
      <path id="Path_13814" data-name="Path 13814" d="M784.5,1337.875c-1.488-.9-8.75,5.375-10.375,5.625s-1.375-2-3-1.875-4.875,4.25-6.375,4.5-1.625-2.125-2.75-1.875-3.5,2.75-4.25,2.75-.875-1.75-1.75-1.5-4.375,6.5-5.875,6.75-1.125-2.125-1.875-2.25-11.782,12.819-13.891,13.159-1.359-1.784-2.609-1.659-4,10.625-5.25,11.5-1.75-1-2.5-.75-2,11.375-3.125,12.125-.777-1.375-1.951-.625-1.3,6.75-2.3,6.875-1.75-1-2.25-.625,1.56,11-1.532,12.875-7.392-2.375-7.8-6.5-1.288-4.25-1.788-4.25-.875,1-1.437,1-.938-9.25-2.063-9.875-1.5.333-2.25.25-2.583-10.25-3.917-10.333-2.416.75-3.416.75-2.917-8.633-3.917-8.483-.917,1.233-1.667,1.233-1.416-3.25-2.333-3.167-.833,2.917-1.5,3-10.771,47,18.406,73.167,52.511,50.291,62.177,52.146,11.167.187,11.5-.563-1.333-3.349-.833-3.883,7.833,1.2,8.5,0-1-4.137-.5-4.835,9.5.4,10-.484-2.167-3.255-1.667-4.318,10.834.194,11.834-.851-2-3.975-1.334-5.344,11.834-3.1,12.5-4.149-1.416-3.386-1.083-3.886,6.417-1.25,6.833-2.333-2.083-2.667-1.75-3.917,5,.583,5.5-.583-2.333-2.375-2.208-3.167,4.208-2.917,4.167-3.833-4.375-1.959-4.917-2.792,1.458-3.583.708-4.208-6.375-1-6.875-1.917,1.625-4.333.417-4.625-8.042-.167-8.75-1.125.5-2.583-.708-3.167-6.709,1.042-7.625.75-1.125-3.166-2.084-3.541-3.625,1.666-4.708,1.375-1.75-2.709-2.458-2.917-4.625,2.125-5.917,1.708-.417-2.125-1.125-2.416-5.958,2.25-6.875,1.916.292-2.458-.667-2.708-6.583,3.667-7.75,1.417,6.125-5.417,5.792-6.5-2.792-1.209-2.75-2.167,11.833-8.5,11.458-9.542-2.875-1.708-2.875-2.708,10.292-9.667,10.25-10.708-3.291-1.417-3.291-2.375,7.833-7.459,7.583-8.959-3.5-1.541-3.625-2.25,4.833-8.166,4.833-9.166-3.458-1.625-3.791-3.209,6.541-7.958,5.791-8.916-7.208-1.709-7.833-2.792,4.583-10.333,3.875-11.875-3.417-.417-4.333-.792S785.667,1338.583,784.5,1337.875Z" fill="#a5b63d" stroke="#231815" stroke-miterlimit="10" stroke-width="0.25"/>
      <path id="Path_13815" data-name="Path 13815" d="M784.5,1337.875s-36.877,74.225-75.583,109.645" fill="none" stroke="#000" stroke-miterlimit="10" stroke-width="0.25"/>
      <path id="Path_13816" data-name="Path 13816" d="M766.073,1350.333s-.94,12.771,2.66,16.469" fill="none" stroke="#000" stroke-miterlimit="10" stroke-width="0.25"/>
      <path id="Path_13817" data-name="Path 13817" d="M782.667,1360.5s-7.13,6.486-13.934,6.3" fill="none" stroke="#000" stroke-miterlimit="10" stroke-width="0.25"/>
      <path id="Path_13818" data-name="Path 13818" d="M754.667,1357.833s-2.55,15.822,2.891,27.494" fill="none" stroke="#000" stroke-miterlimit="10" stroke-width="0.25"/>
      <path id="Path_13819" data-name="Path 13819" d="M780.875,1380.25s-10.924,6.963-23.317,5.077" fill="none" stroke="#000" stroke-miterlimit="10" stroke-width="0.25"/>
      <path id="Path_13820" data-name="Path 13820" d="M744.456,1405.169s-7.706-9.419-8.2-29.833" fill="none" stroke="#000" stroke-miterlimit="10" stroke-width="0.25"/>
      <path id="Path_13821" data-name="Path 13821" d="M770.75,1401.333s-13.505,6.922-26.294,3.836" fill="none" stroke="#000" stroke-miterlimit="10" stroke-width="0.25"/>
      <path id="Path_13822" data-name="Path 13822" d="M730.915,1423.433c-8-8.484-9.273-24.124-9.273-24.124" fill="none" stroke="#000" stroke-miterlimit="10" stroke-width="0.25"/>
      <path id="Path_13823" data-name="Path 13823" d="M760.5,1418.25s-13.329,9.754-29.585,5.183" fill="none" stroke="#000" stroke-miterlimit="10" stroke-width="0.25"/>
      <line id="Line_820" data-name="Line 820" x2="11.565" y2="13.848" transform="translate(694.056 1408.5)" fill="none" stroke="#000" stroke-miterlimit="10" stroke-width="0.25"/>
      <path id="Path_13824" data-name="Path 13824" d="M701.375,1399.75s2.277,9.039-2.215,14.862" fill="none" stroke="#000" stroke-miterlimit="10" stroke-width="0.25"/>
      <path id="Path_13825" data-name="Path 13825" d="M689.323,1416.125s5.552,2.125,9.837-1.513" fill="none" stroke="#000" stroke-miterlimit="10" stroke-width="0.25"/>
      <path id="Path_13826" data-name="Path 13826" d="M713.313,1411s.075,6.293-2.307,10.615" fill="none" stroke="#000" stroke-miterlimit="10" stroke-width="0.25"/>
      <path id="Path_13827" data-name="Path 13827" d="M822.792,1449.667s-39.977,2.083-60.15,3.23" fill="none" stroke="#000" stroke-miterlimit="10" stroke-width="0.25"/>
      <path id="Path_13828" data-name="Path 13828" d="M808.656,1443.906s-7.7,3.688-8.817,6.969" fill="none" stroke="#000" stroke-miterlimit="10" stroke-width="0.25"/>
      <path id="Path_13829" data-name="Path 13829" d="M811.188,1458.375s-7.912-1.062-11.349-7.5" fill="none" stroke="#000" stroke-miterlimit="10" stroke-width="0.25"/>
      <path id="Path_13830" data-name="Path 13830" d="M801.875,1440.188s-10.813,2.617-16,11.433" fill="none" stroke="#000" stroke-miterlimit="10" stroke-width="0.25"/>
      <path id="Path_13831" data-name="Path 13831" d="M799.563,1465.438s-8.625-1.875-13.688-13.817" fill="none" stroke="#000" stroke-miterlimit="10" stroke-width="0.25"/>
      <path id="Path_13832" data-name="Path 13832" d="M785.125,1436.188s-11.571,6.026-15.067,16.294" fill="none" stroke="#000" stroke-miterlimit="10" stroke-width="0.25"/>
      <path id="Path_13833" data-name="Path 13833" d="M790.5,1470.188s-15.875-3.375-20.442-17.706" fill="none" stroke="#000" stroke-miterlimit="10" stroke-width="0.25"/>
      <path id="Path_13834" data-name="Path 13834" d="M767.875,1432.746s-5.75,4.736-7.375,11.589" fill="none" stroke="#000" stroke-miterlimit="10" stroke-width="0.25"/>
      <path id="Path_13835" data-name="Path 13835" d="M780.279,1476.875s-10.457-1.9-15.055-8.761" fill="none" stroke="#000" stroke-miterlimit="10" stroke-width="0.25"/>
    </g>
    <g id="Group_3796" data-name="Group 3796">
      <path id="Path_13836" data-name="Path 13836" d="M747.816,1316.244s-1.378,1.256-2.941,11.694-12.75,47.187-19.125,55.687-29.25,31.8-35.5,43.652l8.175-.652s9.45-15.375,20.325-24.625,16.5-23.257,21.25-36.566,9.625-27.434,9.875-32.184,0-9.562,4-14.125Z" fill="#ddd658" stroke="#000" stroke-linejoin="round" stroke-width="0.25"/>
      <path id="Path_13837" data-name="Path 13837" d="M748.25,1315.75c2.309-1.732,7.125.75,5.625,3.375S745.75,1317.625,748.25,1315.75Z" fill="#a5b63d" stroke="#231815" stroke-miterlimit="10" stroke-width="0.25"/>
    </g>
    <g id="Group_3797" data-name="Group 3797">
      <path id="Path_13838" data-name="Path 13838" d="M646.667,1343.833c-4.817.084-18.586-9.333-41.039-3.583-26.551,6.8-43.17,22.407-57.939,59.083C535.08,1430.644,540.662,1485,587.5,1504s96.5-31.667,103.835-69-2.083-56.25-11.083-71.25S656.208,1343.667,646.667,1343.833Z" fill="#aa506a" stroke="#000" stroke-linejoin="round" stroke-width="0.25"/>
      <path id="Path_13839" data-name="Path 13839" d="M662.125,1363c2.46-1.757,7.375,3.75,5.375,4.875S660.375,1364.25,662.125,1363Z" fill="#dffffa" stroke="#231815" stroke-miterlimit="10" stroke-width="0.25"/>
      <path id="Path_13840" data-name="Path 13840" d="M671.375,1371.625c2.875-1.75,10.875,3.875,7.125,6.625S668.5,1373.375,671.375,1371.625Z" fill="#dffffa" stroke="#231815" stroke-miterlimit="10" stroke-width="0.25"/>
      <path id="Path_13841" data-name="Path 13841" d="M647.625,1355.25a4.766,4.766,0,0,1,2.667,3.625" fill="none" stroke="#252f33" stroke-miterlimit="10" stroke-width="0.25"/>
      <path id="Path_13842" data-name="Path 13842" d="M650.292,1353.25s4.458-.25,5.958,2" fill="none" stroke="#252f33" stroke-miterlimit="10" stroke-width="0.25"/>
      <path id="Path_13843" data-name="Path 13843" d="M644.25,1355.25a6.363,6.363,0,0,1,0,3.625" fill="none" stroke="#252f33" stroke-miterlimit="10" stroke-width="0.25"/>
      <path id="Path_13844" data-name="Path 13844" d="M636.25,1351s-2.625-.5-3.875,1.125" fill="none" stroke="#252f33" stroke-miterlimit="10" stroke-width="0.25"/>
      <path id="Path_13845" data-name="Path 13845" d="M639.125,1354.2s-1.625.675-2,1.8" fill="none" stroke="#252f33" stroke-miterlimit="10" stroke-width="0.25"/>
      <path id="Path_13846" data-name="Path 13846" d="M632.375,1348a5.075,5.075,0,0,1,3.875.875" fill="none" stroke="#252f33" stroke-miterlimit="10" stroke-width="0.25"/>
      <path id="Path_13847" data-name="Path 13847" d="M633.5,1368.046s-1.25,1.121-1.125,2.121" fill="none" stroke="#252f33" stroke-miterlimit="10" stroke-width="0.25"/>
      <path id="Path_13848" data-name="Path 13848" d="M618.083,1350.927s-1.75.073-2.166,1.2" fill="none" stroke="#252f33" stroke-miterlimit="10" stroke-width="0.25"/>
      <path id="Path_13849" data-name="Path 13849" d="M597.75,1353.242a3.508,3.508,0,0,0-3.667,1" fill="none" stroke="#252f33" stroke-miterlimit="10" stroke-width="0.25"/>
      <path id="Path_13850" data-name="Path 13850" d="M592.583,1363.917a4.729,4.729,0,0,0-2.833,2.666" fill="none" stroke="#252f33" stroke-miterlimit="10" stroke-width="0.25"/>
      <path id="Path_13851" data-name="Path 13851" d="M614.167,1366a2.766,2.766,0,0,0-1.917,2.583" fill="none" stroke="#252f33" stroke-miterlimit="10" stroke-width="0.25"/>
      <path id="Path_13852" data-name="Path 13852" d="M595.583,1382.583s-1.416.75-1.5,3.25" fill="none" stroke="#252f33" stroke-miterlimit="10" stroke-width="0.25"/>
      <path id="Path_13853" data-name="Path 13853" d="M575.917,1380.917a3.282,3.282,0,0,0-2,2.75" fill="none" stroke="#252f33" stroke-miterlimit="10" stroke-width="0.25"/>
      <path id="Path_13854" data-name="Path 13854" d="M579.5,1393a5.138,5.138,0,0,0-1.833,4.417" fill="none" stroke="#252f33" stroke-miterlimit="10" stroke-width="0.25"/>
      <path id="Path_13855" data-name="Path 13855" d="M619.5,1382.292s-1.417.875-1.5,4.458" fill="none" stroke="#252f33" stroke-miterlimit="10" stroke-width="0.25"/>
      <path id="Path_13856" data-name="Path 13856" d="M642.25,1383.667a4.8,4.8,0,0,0-1.083,3.083" fill="none" stroke="#252f33" stroke-miterlimit="10" stroke-width="0.25"/>
      <path id="Path_13857" data-name="Path 13857" d="M615.667,1398.167s-1.167.5-.917,2.666" fill="none" stroke="#252f33" stroke-miterlimit="10" stroke-width="0.25"/>
      <path id="Path_13858" data-name="Path 13858" d="M603.167,1402.667a4.894,4.894,0,0,0-1.75,4.5" fill="none" stroke="#252f33" stroke-miterlimit="10" stroke-width="0.25"/>
      <path id="Path_13859" data-name="Path 13859" d="M589.75,1404.917a4.709,4.709,0,0,0-1.167,3.5" fill="none" stroke="#252f33" stroke-miterlimit="10" stroke-width="0.25"/>
      <path id="Path_13860" data-name="Path 13860" d="M577.657,1415.667a3.661,3.661,0,0,0-1.24,2.5" fill="none" stroke="#252f33" stroke-miterlimit="10" stroke-width="0.25"/>
      <path id="Path_13861" data-name="Path 13861" d="M553.75,1426.583a4,4,0,0,0-1.667,3.834" fill="none" stroke="#252f33" stroke-miterlimit="10" stroke-width="0.25"/>
      <path id="Path_13862" data-name="Path 13862" d="M563.417,1440.167a3.618,3.618,0,0,0-1.25,2.75" fill="none" stroke="#252f33" stroke-miterlimit="10" stroke-width="0.25"/>
      <path id="Path_13863" data-name="Path 13863" d="M588,1428.083s-1.5,1.75-1,3.25" fill="none" stroke="#252f33" stroke-miterlimit="10" stroke-width="0.25"/>
      <path id="Path_13864" data-name="Path 13864" d="M610.583,1411.833s-1.25.75-1.333,3.334" fill="none" stroke="#252f33" stroke-miterlimit="10" stroke-width="0.25"/>
      <path id="Path_13865" data-name="Path 13865" d="M617.167,1434.25a4.747,4.747,0,0,0-1.167,4.5" fill="none" stroke="#252f33" stroke-miterlimit="10" stroke-width="0.25"/>
      <path id="Path_13866" data-name="Path 13866" d="M598.583,1444.333a5.361,5.361,0,0,0-1.916,4.25" fill="none" stroke="#252f33" stroke-miterlimit="10" stroke-width="0.25"/>
      <path id="Path_13867" data-name="Path 13867" d="M580.917,1455.167a4.5,4.5,0,0,0-1.417,3.583" fill="none" stroke="#252f33" stroke-miterlimit="10" stroke-width="0.25"/>
      <path id="Path_13868" data-name="Path 13868" d="M561.5,1471.667s.333,2.859,1.917,4.221" fill="none" stroke="#252f33" stroke-miterlimit="10" stroke-width="0.25"/>
      <path id="Path_13869" data-name="Path 13869" d="M576.25,1475.333a3.745,3.745,0,0,0-1.25,3.334" fill="none" stroke="#252f33" stroke-miterlimit="10" stroke-width="0.25"/>
      <path id="Path_13870" data-name="Path 13870" d="M592.75,1472.667a2.737,2.737,0,0,0-.917,2.666" fill="none" stroke="#252f33" stroke-miterlimit="10" stroke-width="0.25"/>
      <path id="Path_13871" data-name="Path 13871" d="M588.083,1491.25a6.313,6.313,0,0,0,1.02,4.083" fill="none" stroke="#252f33" stroke-miterlimit="10" stroke-width="0.25"/>
      <path id="Path_13872" data-name="Path 13872" d="M599.083,1488.083a3.717,3.717,0,0,0,.334,3.167" fill="none" stroke="#252f33" stroke-miterlimit="10" stroke-width="0.25"/>
      <path id="Path_13873" data-name="Path 13873" d="M613,1472.667s-.167,2.916-1.25,4" fill="none" stroke="#252f33" stroke-miterlimit="10" stroke-width="0.25"/>
      <path id="Path_13874" data-name="Path 13874" d="M610.667,1458.25a5.354,5.354,0,0,0-.5,3" fill="none" stroke="#252f33" stroke-miterlimit="10" stroke-width="0.25"/>
      <path id="Path_13875" data-name="Path 13875" d="M622.583,1455.833a3.164,3.164,0,0,0-1.416,2.417" fill="none" stroke="#252f33" stroke-miterlimit="10" stroke-width="0.25"/>
      <path id="Path_13876" data-name="Path 13876" d="M637.5,1432.746s.5,1.421,0,2.171" fill="none" stroke="#252f33" stroke-miterlimit="10" stroke-width="0.25"/>
      <path id="Path_13877" data-name="Path 13877" d="M634.833,1406.667a4.344,4.344,0,0,1,0,3.916" fill="none" stroke="#252f33" stroke-miterlimit="10" stroke-width="0.25"/>
      <path id="Path_13878" data-name="Path 13878" d="M655.25,1423.594a6.778,6.778,0,0,1,0,4.989" fill="none" stroke="#252f33" stroke-miterlimit="10" stroke-width="0.25"/>
      <path id="Path_13879" data-name="Path 13879" d="M650.333,1422.75a3.368,3.368,0,0,1,0,2.333" fill="none" stroke="#252f33" stroke-miterlimit="10" stroke-width="0.25"/>
      <path id="Path_13880" data-name="Path 13880" d="M665,1425.083a4.94,4.94,0,0,0,.417,3" fill="none" stroke="#252f33" stroke-miterlimit="10" stroke-width="0.25"/>
      <path id="Path_13881" data-name="Path 13881" d="M675.333,1404.917s1.084.916.584,3.708" fill="none" stroke="#252f33" stroke-miterlimit="10" stroke-width="0.25"/>
      <path id="Path_13882" data-name="Path 13882" d="M664.167,1397.75a4.929,4.929,0,0,1,.759,4.25" fill="none" stroke="#252f33" stroke-miterlimit="10" stroke-width="0.25"/>
      <path id="Path_13883" data-name="Path 13883" d="M656.333,1396.833a4.4,4.4,0,0,1,0,3.417" fill="none" stroke="#252f33" stroke-miterlimit="10" stroke-width="0.25"/>
      <path id="Path_13884" data-name="Path 13884" d="M657.583,1376.583a3.637,3.637,0,0,1,.9,2.834" fill="none" stroke="#252f33" stroke-miterlimit="10" stroke-width="0.25"/>
      <path id="Path_13885" data-name="Path 13885" d="M669,1376.583a3.367,3.367,0,0,1,1.642,3.334" fill="none" stroke="#252f33" stroke-miterlimit="10" stroke-width="0.25"/>
      <path id="Path_13886" data-name="Path 13886" d="M643.083,1301.454c3.168-1.658,3.167.713,7.5,3.879,5.773,4.219,1.667,38.334-.416,43.584s-3.167,5.666-5.5,5.083-5.417-.667-6.584-2.583,2.667-1.834,6.417-17,3.583-22.667,0-26.667C642.787,1305.838,640.543,1302.784,643.083,1301.454Z" fill="#ddd658" stroke="#000" stroke-linejoin="round" stroke-width="0.25"/>
      <path id="Path_13887" data-name="Path 13887" d="M652.583,1319.167c-2.451-.9-2.787-1.819-5.352-1.076s-.314,3.742-2.231,10.409-3.5,11.333-1.333,12.167,3.82-.072,5.833,1.166,3.409-.333,4.038-7.75S656.184,1320.481,652.583,1319.167Z" fill="#996656" stroke="#000" stroke-miterlimit="10" stroke-width="0.25"/>
      <path id="Path_13888" data-name="Path 13888" d="M651,1334.5a14.333,14.333,0,0,1-1.417,5.75" fill="none" stroke="#252f33" stroke-miterlimit="10" stroke-width="0.25"/>
      <path id="Path_13889" data-name="Path 13889" d="M649.417,1336.667a10.117,10.117,0,0,1-.77,3.583" fill="none" stroke="#252f33" stroke-miterlimit="10" stroke-width="0.25"/>
      <path id="Path_13890" data-name="Path 13890" d="M650.75,1340.542a9.9,9.9,0,0,0,1.208-3.167" fill="none" stroke="#252f33" stroke-miterlimit="10" stroke-width="0.25"/>
    </g>
    <path id="Path_13891" data-name="Path 13891" d="M582.833,1493.333c-9.166,5.5-29.649,8.08-34.333-6.833-4.25-13.531,5.167-26.833,13.167-50.963s-6.667-37.87-18.516-39.2-26.484,6-24.818,18.673,19.936,8.918,18.334-1.339c-1.042-6.667-6.933-7.167-9.925-2.667" fill="none" stroke="#252f33" stroke-miterlimit="10" stroke-width="0.25"/>
    <g id="Group_3798" data-name="Group 3798">
      <path id="Path_13892" data-name="Path 13892" d="M574,1494.75s-10.495-.182-11.667,1.129,2.834,3.538,1.334,4.538-9.334.166-10.417,1.5,1.833,4,.667,4.5-9.584,1.916-10.084,3.416,2.167,4.084.917,4.834-7.167.916-7.667,1.75,2.584,3.166,2,4.083-11.25,2.5-11.666,4.167,3.166,3.166,2.25,4.083-4.834,1.25-5.334,2.167,2.5,5.416,2,5.916-4.333-.333-5.083.584,1.667,5.75,1.25,6.416-4.75,1.167-5.083,1.834,1.25,1.916,1.083,2.666-3.333,1.834-3.25,3.084,7.417,1.75,7.333,2.916-1.083,1.75-.916,2.584,3.549.083,4.024.833-.691,1.833-.358,2.417,6.25-1.334,6.917-.584-.867,1.084-.6,1.75,8.017-2.916,8.6-2.166-.167,2.25.333,2.666,10.167-5.416,11-4.75-.166,2.25.5,2.584,8.084-3.834,8.917-3.5.917,2.687,1.75,2.968,7.833-5.3,8.75-4.885.833,3.167,1.417,3.417,7.916-4.834,9-4.334.5,2.917,1.916,3.167,5.5-5.25,6.167-5,.333,2.5,1.167,2.417,5.75-6.667,7-6.167.916,3.167,2.083,3.75,6.5-8.25,9.25-6.5-1.75,6.083-1.75,7.083,3.25-.833,3.25-.083-5.562,6.5-5.531,7.583,2.781.917,2.948,1.584-6.334,7.5-6.084,8.833,3.667.667,3.834,1.583-5.667,10.084-4.834,11.584,3.522-.334,4.136.583-3.969,7-3.386,8.417,3.75-1.5,4.5,0-2.666,7.833-1.916,9.333,3,.5,3.416,1.25-1.916,6.833-1.083,7.833,4.583-.666,5.417,0,.166,3.417,1.416,3.667,6.334-8,7.667-8,2.417,1.25,3.417,1.167,4.583-8.834,5.416-9.084,4.667.5,5.584.167,2.75-7.417,3.75-7.5,2.25,1.667,3.5,1.167,3.166-8.417,4-8.5,2.083,1.25,2.666.833,2.417-10.25,3.417-10.417,1.917,1.25,2.917.834.75-8.417,1.833-8.75,1.75,1,2.583.75,2.667-8.92,2.334-12.419S656.333,1485.5,574,1494.75Z" fill="#a5b63d" stroke="#231815" stroke-miterlimit="10" stroke-width="0.25"/>
      <path id="Path_13893" data-name="Path 13893" d="M515.25,1551.417s82.628-22.886,104.083-42.108" fill="none" stroke="#252f33" stroke-miterlimit="10" stroke-width="0.25"/>
      <path id="Path_13894" data-name="Path 13894" d="M531.65,1537.5s10.624.32,14.987,4.327" fill="none" stroke="#252f33" stroke-miterlimit="10" stroke-width="0.25"/>
      <path id="Path_13895" data-name="Path 13895" d="M540.667,1554.667s5.992-5.023,5.97-12.84" fill="none" stroke="#252f33" stroke-miterlimit="10" stroke-width="0.25"/>
      <path id="Path_13896" data-name="Path 13896" d="M541.667,1528s18.022-1.743,33.552,3.753" fill="none" stroke="#252f33" stroke-miterlimit="10" stroke-width="0.25"/>
      <path id="Path_13897" data-name="Path 13897" d="M558.443,1551.417s16.922-12.97,16.776-19.664" fill="none" stroke="#252f33" stroke-miterlimit="10" stroke-width="0.25"/>
      <path id="Path_13898" data-name="Path 13898" d="M560.917,1513.583s25.765.063,39.174,7.573" fill="none" stroke="#252f33" stroke-miterlimit="10" stroke-width="0.25"/>
      <path id="Path_13899" data-name="Path 13899" d="M590,1543.5s10.359-8.5,10.091-22.344" fill="none" stroke="#252f33" stroke-miterlimit="10" stroke-width="0.25"/>
      <path id="Path_13900" data-name="Path 13900" d="M610.667,1534s8.189-10.1,7.428-23.634" fill="none" stroke="#252f33" stroke-miterlimit="10" stroke-width="0.25"/>
      <path id="Path_13901" data-name="Path 13901" d="M635.911,1539.663c-4.13,40.33-22.078,74.587-22.078,74.587" fill="none" stroke="#252f33" stroke-miterlimit="10" stroke-width="0.25"/>
      <path id="Path_13902" data-name="Path 13902" d="M627.25,1580.543c-4.563.6-10.625,7.082-10.625,7.082" fill="none" stroke="#252f33" stroke-miterlimit="10" stroke-width="0.25"/>
      <path id="Path_13903" data-name="Path 13903" d="M630.813,1591.5s-.176-8.391-3.563-10.957" fill="none" stroke="#252f33" stroke-miterlimit="10" stroke-width="0.25"/>
      <path id="Path_13904" data-name="Path 13904" d="M616,1567.25s7.311-9.113,17.531-11.494" fill="none" stroke="#252f33" stroke-miterlimit="10" stroke-width="0.25"/>
      <path id="Path_13905" data-name="Path 13905" d="M641.188,1574.75s-1.08-14.129-7.657-18.994" fill="none" stroke="#252f33" stroke-miterlimit="10" stroke-width="0.25"/>
      <path id="Path_13906" data-name="Path 13906" d="M620.25,1545.688s3.2-4.75,15.661-7.188" fill="none" stroke="#252f33" stroke-miterlimit="10" stroke-width="0.25"/>
      <path id="Path_13907" data-name="Path 13907" d="M648.083,1554.056S644.667,1544,636.667,1538.5" fill="none" stroke="#252f33" stroke-miterlimit="10" stroke-width="0.25"/>
    </g>
    <g id="Group_3815" data-name="Group 3815">
      <path id="Path_13908" data-name="Path 13908" d="M612.573,1505.917s24.207,50.6,69.466,53.083c45.659,2.5,64.614-20.25,76.538-42.25s8.33-55.758-1.748-84Z" fill="#aa506a" stroke="#000" stroke-linejoin="round" stroke-width="0.25"/>
      <path id="Path_13909" data-name="Path 13909" d="M751.75,1426c-11.972-11.014-64.528-4.306-93.267,10.5-25.233,13-49.233,47.25-46.983,65.5s38.25,23.75,65,15.25,70.5-41.5,78-59.25S758,1431.75,751.75,1426Z" fill="#e5aeae" stroke="#000" stroke-linejoin="round" stroke-width="0.25"/>
      <path id="Path_13910" data-name="Path 13910" d="M737.167,1436.333c-7.687-8.033-31.167-6.166-50.834,2.5s-43.958,24.417-53.666,37.334c-6.674,8.878-16.167,29.255,3.666,31.961s41.667-4.461,55-11.128,25.834-23.046,33-26.856S752.157,1452,737.167,1436.333Z" fill="#ffc064" stroke="#000" stroke-linejoin="round" stroke-width="0.25"/>
      <path id="Path_13911" data-name="Path 13911" d="M645.833,1529.25a2.763,2.763,0,0,0,2.25,1.833" fill="none" stroke="#000" stroke-miterlimit="10" stroke-width="0.25"/>
      <path id="Path_13912" data-name="Path 13912" d="M650.167,1536.5a3.811,3.811,0,0,0,2.75,2" fill="none" stroke="#000" stroke-miterlimit="10" stroke-width="0.25"/>
      <path id="Path_13913" data-name="Path 13913" d="M658.833,1532.583s1.917,1,2.167,2.5" fill="none" stroke="#000" stroke-miterlimit="10" stroke-width="0.25"/>
      <path id="Path_13914" data-name="Path 13914" d="M667.25,1526.917a3.763,3.763,0,0,1,1.833,3.25" fill="none" stroke="#000" stroke-miterlimit="10" stroke-width="0.25"/>
      <path id="Path_13915" data-name="Path 13915" d="M682.039,1530.363s1.794-.363,2.544.72" fill="none" stroke="#000" stroke-miterlimit="10" stroke-width="0.25"/>
      <path id="Path_13916" data-name="Path 13916" d="M680.5,1540.917a3.081,3.081,0,0,0,2.97,1.177" fill="none" stroke="#000" stroke-miterlimit="10" stroke-width="0.25"/>
      <path id="Path_13917" data-name="Path 13917" d="M687.417,1548.917a5.458,5.458,0,0,0,3,1.333" fill="none" stroke="#000" stroke-miterlimit="10" stroke-width="0.25"/>
      <path id="Path_13918" data-name="Path 13918" d="M700.667,1543.25s2,1.583,3.833,1.167" fill="none" stroke="#000" stroke-miterlimit="10" stroke-width="0.25"/>
      <path id="Path_13919" data-name="Path 13919" d="M699.333,1522.333a2.513,2.513,0,0,1,1.334,2.334" fill="none" stroke="#000" stroke-miterlimit="10" stroke-width="0.25"/>
      <path id="Path_13920" data-name="Path 13920" d="M716.917,1530.694a2.561,2.561,0,0,1,.5,2.723" fill="none" stroke="#000" stroke-miterlimit="10" stroke-width="0.25"/>
      <path id="Path_13921" data-name="Path 13921" d="M712.333,1512.75a3.076,3.076,0,0,1,1.75,3.167" fill="none" stroke="#000" stroke-miterlimit="10" stroke-width="0.25"/>
      <path id="Path_13922" data-name="Path 13922" d="M727.5,1535.083a4.533,4.533,0,0,1-.667,3.988" fill="none" stroke="#000" stroke-miterlimit="10" stroke-width="0.25"/>
      <path id="Path_13923" data-name="Path 13923" d="M736.667,1511.167a3.3,3.3,0,0,1,.583,3.166" fill="none" stroke="#000" stroke-miterlimit="10" stroke-width="0.25"/>
      <path id="Path_13924" data-name="Path 13924" d="M729.75,1497.833a5.345,5.345,0,0,1,.5,3.834" fill="none" stroke="#000" stroke-miterlimit="10" stroke-width="0.25"/>
      <path id="Path_13925" data-name="Path 13925" d="M746.25,1487.75a3.549,3.549,0,0,1,.417,4.167" fill="none" stroke="#000" stroke-miterlimit="10" stroke-width="0.25"/>
      <path id="Path_13926" data-name="Path 13926" d="M738.667,1489.009a2.635,2.635,0,0,1,0,2.241" fill="none" stroke="#000" stroke-miterlimit="10" stroke-width="0.25"/>
      <path id="Path_13927" data-name="Path 13927" d="M751.167,1505.917a3.908,3.908,0,0,1-.508,3.392" fill="none" stroke="#000" stroke-miterlimit="10" stroke-width="0.25"/>
      <path id="Path_13928" data-name="Path 13928" d="M752.667,1474.571a2.4,2.4,0,0,1,1,2.308" fill="none" stroke="#000" stroke-miterlimit="10" stroke-width="0.25"/>
      <path id="Path_13929" data-name="Path 13929" d="M756.75,1471.045a3.257,3.257,0,0,1,.75,3.526" fill="none" stroke="#000" stroke-miterlimit="10" stroke-width="0.25"/>
      <path id="Path_13930" data-name="Path 13930" d="M726.667,1478.167c1.666,1.666-2.334,5.833-4.334,3.833S725,1476.5,726.667,1478.167Z" fill="#dffffa" stroke="#231815" stroke-miterlimit="10" stroke-width="0.25"/>
      <path id="Path_13931" data-name="Path 13931" d="M715.5,1489.083c-1.12-1.539,5.083-6.083,7.167-3.666S717.5,1491.833,715.5,1489.083Z" fill="#dffffa" stroke="#231815" stroke-miterlimit="10" stroke-width="0.25"/>
      <g id="Group_3814" data-name="Group 3814">
        <g id="Group_3813" data-name="Group 3813" clip-path="url(#clip-path)">
          <g id="Group_3799" data-name="Group 3799">
            <path id="Path_13932" data-name="Path 13932" d="M694.218,1484.5c.745,3.364,6.946,6.495,15.085,2.945s11.193-7.541,8.732-10.708-9.323-3.932-17.019-.606S693.657,1481.967,694.218,1484.5Z" fill="#ffc91f" stroke="#000" stroke-linejoin="round" stroke-width="0.25"/>
            <circle id="Ellipse_2537" data-name="Ellipse 2537" cx="2.724" cy="2.724" r="2.724" transform="translate(698.792 1479.937)" fill="#6d4a32" stroke="#000" stroke-linejoin="round" stroke-width="0.25"/>
          </g>
          <g id="Group_3800" data-name="Group 3800">
            <path id="Path_13933" data-name="Path 13933" d="M663.635,1500.54c.745,3.363,6.946,6.494,15.084,2.944s11.194-7.541,8.733-10.707-9.324-3.933-17.019-.606S663.074,1498.009,663.635,1500.54Z" fill="#ffc91f" stroke="#000" stroke-linejoin="round" stroke-width="0.25"/>
            <circle id="Ellipse_2538" data-name="Ellipse 2538" cx="2.724" cy="2.724" r="2.724" transform="translate(668.209 1495.979)" fill="#6d4a32" stroke="#000" stroke-linejoin="round" stroke-width="0.25"/>
          </g>
          <g id="Group_3801" data-name="Group 3801">
            <path id="Path_13934" data-name="Path 13934" d="M658.74,1482c.745,3.364,6.946,6.495,15.085,2.945s11.193-7.541,8.732-10.708-9.324-3.932-17.019-.606S658.179,1479.473,658.74,1482Z" fill="#ffc91f" stroke="#000" stroke-linejoin="round" stroke-width="0.25"/>
            <circle id="Ellipse_2539" data-name="Ellipse 2539" cx="2.724" cy="2.724" r="2.724" transform="translate(663.314 1477.443)" fill="#6d4a32" stroke="#000" stroke-linejoin="round" stroke-width="0.25"/>
          </g>
          <g id="Group_3802" data-name="Group 3802">
            <path id="Path_13935" data-name="Path 13935" d="M623.907,1496.253c.745,3.364,6.945,6.495,15.084,2.945s11.194-7.541,8.733-10.708-9.324-3.932-17.019-.606S623.346,1493.723,623.907,1496.253Z" fill="#ffc91f" stroke="#000" stroke-linejoin="round" stroke-width="0.25"/>
            <circle id="Ellipse_2540" data-name="Ellipse 2540" cx="2.724" cy="2.724" r="2.724" transform="translate(628.481 1491.693)" fill="#6d4a32" stroke="#000" stroke-linejoin="round" stroke-width="0.25"/>
          </g>
          <g id="Group_3803" data-name="Group 3803">
            <path id="Path_13936" data-name="Path 13936" d="M649.357,1455.045c-2.455,2.416-1.82,9.333,5.507,14.349s12.331,5.488,13.709,1.722-1.613-9.989-8.515-14.748S651.205,1453.227,649.357,1455.045Z" fill="#ffc91f" stroke="#000" stroke-linejoin="round" stroke-width="0.25"/>
            <circle id="Ellipse_2541" data-name="Ellipse 2541" cx="2.724" cy="2.724" r="2.724" transform="translate(652.062 1457.533)" fill="#6d4a32" stroke="#000" stroke-linejoin="round" stroke-width="0.25"/>
          </g>
          <g id="Group_3804" data-name="Group 3804">
            <path id="Path_13937" data-name="Path 13937" d="M632.607,1469.355c-2.455,2.416-1.82,9.334,5.507,14.35s12.331,5.488,13.709,1.721-1.613-9.989-8.515-14.748S634.455,1467.538,632.607,1469.355Z" fill="#ffc91f" stroke="#000" stroke-linejoin="round" stroke-width="0.25"/>
            <circle id="Ellipse_2542" data-name="Ellipse 2542" cx="2.724" cy="2.724" r="2.724" transform="translate(635.312 1471.844)" fill="#6d4a32" stroke="#000" stroke-linejoin="round" stroke-width="0.25"/>
          </g>
          <g id="Group_3805" data-name="Group 3805">
            <path id="Path_13938" data-name="Path 13938" d="M676.425,1468.607c2.372,2.5,9.3,1.984,14.444-5.254s5.7-12.232,1.962-13.676-10.016,1.436-14.9,8.254S674.64,1466.727,676.425,1468.607Z" fill="#ffc91f" stroke="#000" stroke-linejoin="round" stroke-width="0.25"/>
            <circle id="Ellipse_2543" data-name="Ellipse 2543" cx="2.724" cy="2.724" r="2.724" transform="translate(679.008 1460.547)" fill="#6d4a32" stroke="#000" stroke-linejoin="round" stroke-width="0.25"/>
          </g>
          <g id="Group_3806" data-name="Group 3806">
            <path id="Path_13939" data-name="Path 13939" d="M706.662,1466.927c3.252,1.136,9.177-2.49,10.441-11.279s-.524-13.487-4.511-13.059-8.25,5.859-9.47,14.153S704.215,1466.072,706.662,1466.927Z" fill="#ffc91f" stroke="#000" stroke-linejoin="round" stroke-width="0.25"/>
            <circle id="Ellipse_2544" data-name="Ellipse 2544" cx="2.724" cy="2.724" r="2.724" transform="translate(706.216 1457.03)" fill="#6d4a32" stroke="#000" stroke-linejoin="round" stroke-width="0.25"/>
          </g>
          <g id="Group_3807" data-name="Group 3807">
            <path id="Path_13940" data-name="Path 13940" d="M690.478,1444.827c3.252,1.136,9.178-2.489,10.441-11.278s-.523-13.487-4.511-13.06-8.249,5.859-9.47,14.154S688.032,1443.972,690.478,1444.827Z" fill="#ffc91f" stroke="#000" stroke-linejoin="round" stroke-width="0.25"/>
            <circle id="Ellipse_2545" data-name="Ellipse 2545" cx="2.724" cy="2.724" r="2.724" transform="translate(690.033 1434.931)" fill="#6d4a32" stroke="#000" stroke-linejoin="round" stroke-width="0.25"/>
          </g>
          <g id="Group_3808" data-name="Group 3808">
            <path id="Path_13941" data-name="Path 13941" d="M712.793,1444.337c3.252,1.136,9.177-2.489,10.441-11.278s-.524-13.487-4.511-13.06-8.25,5.859-9.47,14.154S710.346,1443.482,712.793,1444.337Z" fill="#ffc91f" stroke="#000" stroke-linejoin="round" stroke-width="0.25"/>
            <circle id="Ellipse_2546" data-name="Ellipse 2546" cx="2.724" cy="2.724" r="2.724" transform="translate(712.347 1434.441)" fill="#6d4a32" stroke="#000" stroke-linejoin="round" stroke-width="0.25"/>
          </g>
          <g id="Group_3809" data-name="Group 3809">
            <path id="Path_13942" data-name="Path 13942" d="M723.22,1460.773c-1.078,3.271,2.652,9.132,11.462,10.239s13.475-.762,12.977-4.741-6-8.145-14.319-9.218S724.031,1458.311,723.22,1460.773Z" fill="#ffc91f" stroke="#000" stroke-linejoin="round" stroke-width="0.25"/>
            <circle id="Ellipse_2547" data-name="Ellipse 2547" cx="2.724" cy="2.724" r="2.724" transform="translate(727.708 1460.2)" fill="#6d4a32" stroke="#000" stroke-linejoin="round" stroke-width="0.25"/>
          </g>
          <g id="Group_3812" data-name="Group 3812">
            <g id="Group_3810" data-name="Group 3810">
              <path id="Path_13943" data-name="Path 13943" d="M707.875,1443.625c2.907-1.954,9.657-2.375,16.579,3.625s8.5,11.875,6.213,14.125-12.084,2.792-18.875-3.958S705.333,1445.333,707.875,1443.625Z" fill="#ffc91f" stroke="#000" stroke-linejoin="round" stroke-width="0.25"/>
              <path id="Path_13944" data-name="Path 13944" d="M734.25,1432.917c-3.562,1.047-9.083,8.976-5.833,19.7s7.833,10.3,9.666,9.054,5.917-7.584,5.25-15.917S738.5,1431.667,734.25,1432.917Z" fill="#ffc91f" stroke="#000" stroke-linejoin="round" stroke-width="0.25"/>
              <path id="Path_13945" data-name="Path 13945" d="M711.583,1428.833c1.748,4.566,2.743,13.505-1.959,19.243-4.162,5.079-9.541,5.674-12.207,4.091s-3.589-10.924,3.333-19.421C705.583,1426.813,710.514,1426.039,711.583,1428.833Z" fill="#ffc91f" stroke="#000" stroke-linejoin="round" stroke-width="0.25"/>
              <path id="Path_13946" data-name="Path 13946" d="M728.25,1471.375c-.75-4.062-.562-8.375-7.437-12.25s-9.563,2.188-9.375,8.563,3.928,12.937,3.928,12.937Z" fill="#ffc91f" stroke="#000" stroke-linejoin="round" stroke-width="0.25"/>
              <path id="Path_13947" data-name="Path 13947" d="M705.625,1461.125c-2.433-3.476-10.5-1.625-16.937,2.875s-7.875,9.938-6.75,12.813,10.187,3.062,17.25-1.813S707.813,1464.25,705.625,1461.125Z" fill="#ffc91f" stroke="#000" stroke-linejoin="round" stroke-width="0.25"/>
              <path id="Path_13948" data-name="Path 13948" d="M722.422,1449.733c4.236.231,7.759-7.259,8.191-15.1s-2.959-12.329-5.915-13.218-8.7,6.126-9.22,14.691S718.613,1449.525,722.422,1449.733Z" fill="#ffc91f" stroke="#000" stroke-linejoin="round" stroke-width="0.25"/>
              <path id="Path_13949" data-name="Path 13949" d="M714.625,1465.969c-4.649-2.308-10.125-2.531-14.187-.406s-3.25,10.75,3.375,15.625,15.389,3.534,15.389,3.534l3.837-6.992S721.844,1469.552,714.625,1465.969Z" fill="#ffc91f" stroke="#000" stroke-linejoin="round" stroke-width="0.25"/>
              <path id="Path_13950" data-name="Path 13950" d="M697.962,1454.75c1.933-2.782-2.379-9.177-9.379-12.422s-13.916-2.495-14.916-1.328.947,8.91,10.1,12.823C691.25,1457.021,696.342,1457.083,697.962,1454.75Z" fill="#ffc91f" stroke="#000" stroke-linejoin="round" stroke-width="0.25"/>
              <path id="Path_13951" data-name="Path 13951" d="M701.663,1461c.809-4.156-1.824-12.049-6.234-12.208-4.347-.157-8.679,3.208-9.1,9.791s3.11,10.136,6.5,10.683C697.154,1469.964,700.576,1466.583,701.663,1461Z" fill="#ffc91f" stroke="#000" stroke-linejoin="round" stroke-width="0.25"/>
              <path id="Path_13952" data-name="Path 13952" d="M677.417,1478.1c1.5-1.618,7.583-2.513,15.75,3.237s8.583,11.25,7.166,12.75-10.666,2.441-17.25-4.071S676.167,1479.441,677.417,1478.1Z" fill="#ffc91f" stroke="#000" stroke-linejoin="round" stroke-width="0.25"/>
              <path id="Path_13953" data-name="Path 13953" d="M670.917,1462.583c-1.464-2.23-6.334-3.871-14.417.315s-9.333,10.435-7.833,13.352,13.75,4.167,18.833-1S672.667,1465.25,670.917,1462.583Z" fill="#ffc91f" stroke="#000" stroke-linejoin="round" stroke-width="0.25"/>
              <path id="Path_13954" data-name="Path 13954" d="M655.25,1453.5s2.417,5.667,7.333,8.5,8.893,1.417,9.363-.667.146-7.913-3.775-14.081Z" fill="#ffc91f" stroke="#000" stroke-linejoin="round" stroke-width="0.25"/>
              <path id="Path_13955" data-name="Path 13955" d="M667.5,1466.917c2.859-1.674,8.333-.875,12,1.771s5.7,9.145,4.268,11.145-7.351,2.917-13.185-.583S664.262,1468.812,667.5,1466.917Z" fill="#ffc91f" stroke="#000" stroke-linejoin="round" stroke-width="0.25"/>
              <path id="Path_13956" data-name="Path 13956" d="M687.667,1487.75c-.177-2.707-7.834-6.083-13.084-5.667s-10.555,3-10.9,6.5,6.319,8.5,13.652,7.167S687.917,1491.583,687.667,1487.75Z" fill="#ffc91f" stroke="#000" stroke-linejoin="round" stroke-width="0.25"/>
              <path id="Path_13957" data-name="Path 13957" d="M665.083,1482.532c-2.735-.676-8.416,2.8-12.166,11.885S654.167,1510,658,1509.25s8.25-3.917,9.833-12.5S668.583,1483.4,665.083,1482.532Z" fill="#ffc91f" stroke="#000" stroke-linejoin="round" stroke-width="0.25"/>
              <path id="Path_13958" data-name="Path 13958" d="M674.992,1505.917c-1.325-6.917,3.25-16.777,8.478-16.908s6.668,7.241,5.432,11.824S674.992,1505.917,674.992,1505.917Z" fill="#ffc91f" stroke="#000" stroke-linejoin="round" stroke-width="0.25"/>
              <path id="Path_13959" data-name="Path 13959" d="M645.333,1459.859c2.628-.5,8,3.676,9.417,13.992s-1.431,15.4-6.632,16.649-10.535-8.465-9.285-18.25S643,1460.3,645.333,1459.859Z" fill="#ffc91f" stroke="#000" stroke-linejoin="round" stroke-width="0.25"/>
              <path id="Path_13960" data-name="Path 13960" d="M655.917,1484.333c-2.5-1.888-8.667.417-16.584,6.917s-10.75,13.261-8.333,17.464,14.6,3.7,20.59-4.881S659.667,1487.167,655.917,1484.333Z" fill="#ffc91f" stroke="#000" stroke-linejoin="round" stroke-width="0.25"/>
              <path id="Path_13961" data-name="Path 13961" d="M626.75,1476.879c2.374-1.811,11.333-1.7,16.583,5.169s7.595,15.018,3.548,16.527-7.881-1.742-14.464-8.742S624.833,1478.341,626.75,1476.879Z" fill="#ffc91f" stroke="#000" stroke-linejoin="round" stroke-width="0.25"/>
            </g>
            <g id="Group_3811" data-name="Group 3811">
              <circle id="Ellipse_2548" data-name="Ellipse 2548" cx="3.198" cy="3.198" r="3.198" transform="translate(718.75 1450.625)" fill="#6d4a32" stroke="#000" stroke-linejoin="round" stroke-width="0.25"/>
              <circle id="Ellipse_2549" data-name="Ellipse 2549" cx="3.25" cy="3.25" r="3.25" transform="translate(733.345 1444.27)" fill="#6d4a32" stroke="#000" stroke-linejoin="round" stroke-width="0.25"/>
              <circle id="Ellipse_2550" data-name="Ellipse 2550" cx="3.375" cy="3.375" r="3.375" transform="translate(701.663 1439.667)" fill="#6d4a32" stroke="#000" stroke-linejoin="round" stroke-width="0.25"/>
              <circle id="Ellipse_2551" data-name="Ellipse 2551" cx="2.797" cy="2.797" r="2.797" transform="translate(719.047 1463.958)" fill="#6d4a32" stroke="#000" stroke-linejoin="round" stroke-width="0.25"/>
              <circle id="Ellipse_2552" data-name="Ellipse 2552" cx="2.719" cy="2.719" r="2.719" transform="translate(685.729 1470.089)" fill="#6d4a32" stroke="#000" stroke-linejoin="round" stroke-width="0.25"/>
              <circle id="Ellipse_2553" data-name="Ellipse 2553" cx="2.719" cy="2.719" r="2.719" transform="translate(719.884 1438.935)" fill="#6d4a32" stroke="#000" stroke-linejoin="round" stroke-width="0.25"/>
              <circle id="Ellipse_2554" data-name="Ellipse 2554" cx="3.525" cy="3.525" r="3.525" transform="translate(706.543 1471.045)" fill="#6d4a32" stroke="#000" stroke-linejoin="round" stroke-width="0.25"/>
              <circle id="Ellipse_2555" data-name="Ellipse 2555" cx="2.375" cy="2.375" r="2.375" transform="translate(684.583 1446.417)" fill="#6d4a32" stroke="#000" stroke-linejoin="round" stroke-width="0.25"/>
              <circle id="Ellipse_2556" data-name="Ellipse 2556" cx="2.635" cy="2.635" r="2.635" transform="translate(691.167 1454.5)" fill="#6d4a32" stroke="#000" stroke-linejoin="round" stroke-width="0.25"/>
              <path id="Path_13962" data-name="Path 13962" d="M672.917,1467.375c3.433.277,8.25-4.729,7.25-13.552s-3.917-12.916-7.667-11.495-6.281,7.734-5.583,16.089C667.466,1465,670.333,1467.167,672.917,1467.375Z" fill="#ffc91f" stroke="#000" stroke-linejoin="round" stroke-width="0.25"/>
              <circle id="Ellipse_2557" data-name="Ellipse 2557" cx="2.724" cy="2.724" r="2.724" transform="translate(670.583 1457.135)" fill="#6d4a32" stroke="#000" stroke-linejoin="round" stroke-width="0.25"/>
              <circle id="Ellipse_2558" data-name="Ellipse 2558" cx="2.521" cy="2.521" r="2.521" transform="translate(687.667 1484.333)" fill="#6d4a32" stroke="#000" stroke-linejoin="round" stroke-width="0.25"/>
              <circle id="Ellipse_2559" data-name="Ellipse 2559" cx="2.904" cy="2.904" r="2.904" transform="translate(658 1467.386)" fill="#6d4a32" stroke="#000" stroke-linejoin="round" stroke-width="0.25"/>
              <circle id="Ellipse_2560" data-name="Ellipse 2560" cx="2.316" cy="2.316" r="2.316" transform="translate(673.307 1471.535)" fill="#6d4a32" stroke="#000" stroke-linejoin="round" stroke-width="0.25"/>
              <circle id="Ellipse_2561" data-name="Ellipse 2561" cx="2.375" cy="2.375" r="2.375" transform="translate(673.52 1486.5)" fill="#6d4a32" stroke="#000" stroke-linejoin="round" stroke-width="0.25"/>
              <circle id="Ellipse_2562" data-name="Ellipse 2562" cx="2.938" cy="2.938" r="2.938" transform="translate(659.5 1488.875)" fill="#6d4a32" stroke="#000" stroke-linejoin="round" stroke-width="0.25"/>
              <circle id="Ellipse_2563" data-name="Ellipse 2563" cx="2.695" cy="2.695" r="2.695" transform="translate(681.589 1495.879)" fill="#6d4a32" stroke="#000" stroke-linejoin="round" stroke-width="0.25"/>
              <circle id="Ellipse_2564" data-name="Ellipse 2564" cx="3.391" cy="3.391" r="3.391" transform="translate(644 1472)" fill="#6d4a32" stroke="#000" stroke-linejoin="round" stroke-width="0.25"/>
              <circle id="Ellipse_2565" data-name="Ellipse 2565" cx="3.292" cy="3.292" r="3.292" transform="translate(636.75 1499.333)" fill="#6d4a32" stroke="#000" stroke-linejoin="round" stroke-width="0.25"/>
              <circle id="Ellipse_2566" data-name="Ellipse 2566" cx="3.083" cy="3.083" r="3.083" transform="translate(638.649 1488.167)" fill="#6d4a32" stroke="#000" stroke-linejoin="round" stroke-width="0.25"/>
            </g>
          </g>
        </g>
      </g>
      <path id="Path_13964" data-name="Path 13964" d="M737.167,1436.333c-7.687-8.033-31.167-6.166-50.834,2.5s-43.958,24.417-53.666,37.334c-6.674,8.878-16.167,29.255,3.666,31.961s41.667-4.461,55-11.128,25.834-23.046,33-26.856S752.157,1452,737.167,1436.333Z" fill="none" stroke="#000" stroke-miterlimit="10" stroke-width="0.25"/>
    </g>
  </g>
</svg>
