<svg xmlns="http://www.w3.org/2000/svg" width="326.884" height="362.601" viewBox="0 0 326.884 362.601">
  <g id="Group_3934" data-name="Group 3934" transform="translate(-3193.516 -786.038)">
    <path id="Path_15066" data-name="Path 15066" d="M3453.233,995.876s-12.344-3.673-40.706-2.99-75.691-17.086-75.691-17.086,41.689-10.936,73.128-1.709S3453.233,995.876,3453.233,995.876Z" transform="translate(3.607 4.627)" fill="#518937" stroke="#000" stroke-linejoin="round" stroke-width="0.25"/>
    <g id="Group_3918" data-name="Group 3918" transform="translate(3274.239 884.263)">
      <path id="Path_15067" data-name="Path 15067" d="M3321.349,882.3c-4.6-2.1-10.229,4.124-13.843,4.452s-8.089-1.045-11.934,3.474-4.2,4.111-7.27,4.878-7.171,2.843-8.524,9.405.179,6.788-2.622,13.06-3.671,4.367-4.713,10.529,2.613,6.486,4.155,12.277,3.564,3.293,6.438,8.278,5.877,4.223,11.907,4.3,5.033,2.393,10.963,1.31,19.188-7.181,24.273-16.41,10.419-17.281,11.654-23.011,2.427-11.717-1.111-16.222-7.092-5.356-11.708-7.9S3326.284,884.552,3321.349,882.3Z" transform="translate(-3272.258 -881.865)" fill="#fff8eb" stroke="#000" stroke-linecap="round" stroke-linejoin="round" stroke-width="0.25"/>
      <path id="Path_15068" data-name="Path 15068" d="M3320.512,882.287s-15.515,12.721-15,36.446l3.137,4.194A98.257,98.257,0,0,1,3320.512,882.287Z" transform="translate(-3271.42 -881.855)" fill="#e5aeae" stroke="#000" stroke-linejoin="round" stroke-width="0.25"/>
      <path id="Path_15069" data-name="Path 15069" d="M3340.927,914.067s-15.617-6.989-32.344,8.1l-.434,2.331S3320.591,914.192,3340.927,914.067Z" transform="translate(-3271.353 -881.095)" fill="#e5aeae" stroke="#000" stroke-linejoin="round" stroke-width="0.25"/>
      <path id="Path_15070" data-name="Path 15070" d="M3305.162,953.2s-1.743-12.335,3.149-28.989l-1.669-.145S3296.654,941.352,3305.162,953.2Z" transform="translate(-3271.515 -880.803)" fill="#e5aeae" stroke="#000" stroke-linejoin="round" stroke-width="0.25"/>
      <path id="Path_15071" data-name="Path 15071" d="M3276.49,939.352s8.636-11.569,30.788-15.248l-.665-1.713S3283.445,924.015,3276.49,939.352Z" transform="translate(-3272.151 -880.845)" fill="#e5aeae" stroke="#000" stroke-linejoin="round" stroke-width="0.25"/>
      <path id="Path_15072" data-name="Path 15072" d="M3306.623,919.31a54.359,54.359,0,0,1-18.715-24.533s-1.334,16.827,17.532,28.4Z" transform="translate(-3271.864 -881.54)" fill="#e5aeae" stroke="#000" stroke-linejoin="round" stroke-width="0.25"/>
      <path id="Path_15073" data-name="Path 15073" d="M3302.57,891.657a13.9,13.9,0,0,0-.354,8.613" transform="translate(-3271.516 -881.619)" fill="none" stroke="#252f33" stroke-linecap="round" stroke-linejoin="round" stroke-width="0.25"/>
      <path id="Path_15074" data-name="Path 15074" d="M3298.191,895.119s-.413.772.883,2.815" transform="translate(-3271.606 -881.531)" fill="none" stroke="#252f33" stroke-linecap="round" stroke-linejoin="round" stroke-width="0.25"/>
      <path id="Path_15075" data-name="Path 15075" d="M3320.632,900.589a11.332,11.332,0,0,1,8.568-3.808" transform="translate(-3271.039 -881.49)" fill="none" stroke="#252f33" stroke-linecap="round" stroke-linejoin="round" stroke-width="0.25"/>
      <path id="Path_15076" data-name="Path 15076" d="M3322.863,903.259s3.67-2.927,7.694-1.613" transform="translate(-3270.983 -881.376)" fill="none" stroke="#252f33" stroke-linecap="round" stroke-linejoin="round" stroke-width="0.25"/>
      <path id="Path_15077" data-name="Path 15077" d="M3283.641,913.137a7.092,7.092,0,0,0,4.428,4.729" transform="translate(-3271.97 -881.078)" fill="none" stroke="#252f33" stroke-linecap="round" stroke-linejoin="round" stroke-width="0.25"/>
      <path id="Path_15078" data-name="Path 15078" d="M3282.459,918.647a6.366,6.366,0,0,0,4.848,1.942" transform="translate(-3272 -880.939)" fill="none" stroke="#252f33" stroke-linecap="round" stroke-linejoin="round" stroke-width="0.25"/>
      <path id="Path_15079" data-name="Path 15079" d="M3291.311,934.059s-5.031,3.03-6.122,8.645" transform="translate(-3271.932 -880.551)" fill="none" stroke="#252f33" stroke-linecap="round" stroke-linejoin="round" stroke-width="0.25"/>
      <path id="Path_15080" data-name="Path 15080" d="M3292.376,936.744a10.639,10.639,0,0,0-3.278,5.829" transform="translate(-3271.833 -880.483)" fill="none" stroke="#252f33" stroke-linecap="round" stroke-linejoin="round" stroke-width="0.25"/>
      <path id="Path_15081" data-name="Path 15081" d="M3294.282,939.038a6.621,6.621,0,0,0-1.112,4.014" transform="translate(-3271.731 -880.425)" fill="none" stroke="#252f33" stroke-linecap="round" stroke-linejoin="round" stroke-width="0.25"/>
      <path id="Path_15082" data-name="Path 15082" d="M3315.41,930.569a4.1,4.1,0,0,1,3.05,2.906" transform="translate(-3271.171 -880.639)" fill="none" stroke="#252f33" stroke-linecap="round" stroke-linejoin="round" stroke-width="0.25"/>
      <path id="Path_15083" data-name="Path 15083" d="M3318.658,929.145s2.736.681,3.2,2.6" transform="translate(-3271.089 -880.675)" fill="none" stroke="#252f33" stroke-linecap="round" stroke-linejoin="round" stroke-width="0.25"/>
      <path id="Path_15084" data-name="Path 15084" d="M3296.555,914.7s4.634,3.745,6.835,6.039,3.525,4.39,4.5,4.083a1.724,1.724,0,0,0,.988-2.607,30.69,30.69,0,0,0-9.757-11.5Z" transform="translate(-3271.646 -881.139)" fill="#b25269" stroke="#000" stroke-linejoin="round" stroke-width="0.25"/>
      <ellipse id="Ellipse_2705" data-name="Ellipse 2705" cx="2.371" cy="1.089" rx="2.371" ry="1.089" transform="matrix(0.541, -0.841, 0.841, 0.541, 23.993, 32.969)" fill="#f7dec6" stroke="#000" stroke-linecap="round" stroke-linejoin="round" stroke-width="0.25"/>
    </g>
    <g id="Group_3919" data-name="Group 3919" transform="translate(3331.176 800.336)">
      <path id="Path_15085" data-name="Path 15085" d="M3329.031,886.436a65.475,65.475,0,0,1,3.075-36.031c7.347-18.453,10.593-29.56,14.865-50.405,0,0,1.2,18.453,8.2,31.781s1.879,40.521,1.879,40.521l-24.946,22.527Z" transform="translate(-3327.796 -800)" fill="#518937" stroke="#000" stroke-linejoin="round" stroke-width="0.25"/>
      <path id="Path_15086" data-name="Path 15086" d="M3346.787,800s-3.535,66.594-11.677,86.436l6.722-8.694S3346.787,837.59,3346.787,800Z" transform="translate(-3327.612 -800)" fill="#cad226" stroke="#231815" stroke-miterlimit="10" stroke-width="0.25"/>
    </g>
    <path id="Path_15087" data-name="Path 15087" d="M3308.776,950.5s-21.828-.241-51.387,12.439-29.158,13.875-29.359,17.292,1.85,5.467,4.925,5.467,41.52-20.232,61-22.759Z" transform="translate(0.868 4.126)" fill="#cad226" stroke="#231815" stroke-miterlimit="10" stroke-width="0.25"/>
    <g id="Group_3920" data-name="Group 3920" transform="translate(3221.167 786.667)">
      <path id="Path_15088" data-name="Path 15088" d="M3367,902.085s11.277-39.726,37.932-60.486,48.48-34,60.378-54.933c0,0,4.977,33.4-8.35,52.113s-31.268,16.916-45.108,36.907Z" transform="translate(-3216.8 -786.667)" fill="#518937" stroke="#000" stroke-linejoin="round" stroke-width="0.25"/>
      <path id="Path_15089" data-name="Path 15089" d="M3313.877,944.833s-24.348,21.871-49.807,33.831-39.982,12.815-42.545,17.856-.608,9.7,8.543,9.067,33.49-7.785,71.593-36.662l13.8-15.776Z" transform="translate(-3220.489 -782.684)" fill="#cad226" stroke="#231815" stroke-miterlimit="10" stroke-width="0.25"/>
      <path id="Path_15090" data-name="Path 15090" d="M3465.455,786.667s-13.22,34.172-47.051,62.194-47.712,35.293-57.154,63.371l6.579-3.418s10.058-28.513,45.523-51.409S3465.688,795.894,3465.455,786.667Z" transform="translate(-3216.945 -786.667)" fill="#cad226" stroke="#231815" stroke-miterlimit="10" stroke-width="0.25"/>
    </g>
    <g id="Group_3921" data-name="Group 3921" transform="translate(3308.201 797.516)">
      <path id="Path_15091" data-name="Path 15091" d="M3392.218,797.25s-10.679,30.243-38.1,61.255-47.992,89.49-45.108,102.9c0,0,30.5-11.662,67.535-71.123S3392.218,797.25,3392.218,797.25Z" transform="translate(-3305.301 -797.25)" fill="#62a542" stroke="#000" stroke-linejoin="round" stroke-width="0.25"/>
      <path id="Path_15092" data-name="Path 15092" d="M3392.3,797.25s-3.223,32.09-26.173,75.121-52.9,72.4-60.744,92.182l7.487-3.145s10.093-20.239,29.75-43.761C3361.632,894.9,3383.417,857.736,3392.3,797.25Z" transform="translate(-3305.385 -797.25)" fill="#cad226" stroke="#231815" stroke-miterlimit="10" stroke-width="0.25"/>
    </g>
    <g id="Group_3922" data-name="Group 3922" transform="translate(3437.508 875.687)">
      <path id="Path_15093" data-name="Path 15093" d="M3514.283,873.5s-37.419,6.194-57.026,16.937-25.741,24.767-25.741,24.767S3492.5,923.734,3514.283,873.5Z" transform="translate(-3431.516 -873.5)" fill="#518937" stroke="#000" stroke-linejoin="round" stroke-width="0.25"/>
      <path id="Path_15094" data-name="Path 15094" d="M3514.283,873.5s-42.513,26.254-82.767,41.7C3431.516,915.2,3459.436,914.507,3514.283,873.5Z" transform="translate(-3431.516 -873.5)" fill="#cad226" stroke="#231815" stroke-miterlimit="10" stroke-width="0.25"/>
    </g>
    <g id="Group_3923" data-name="Group 3923" transform="translate(3213.943 874.089)">
      <path id="Path_15095" data-name="Path 15095" d="M3412.439,890.476S3436.7,870.72,3480.016,872c0,0-20.583,26.783-42.545,39.021s-39.509,4.745-39.509,4.745S3401.119,901.365,3412.439,890.476Z" transform="translate(-3208.796 -871.942)" fill="#62a542" stroke="#000" stroke-linejoin="round" stroke-width="0.25"/>
      <path id="Path_15096" data-name="Path 15096" d="M3484.663,872s-112.493,56.347-136.862,63.96-62.707,46.589-90.729,62.394-39.391,11.7-42.249,16.147-1.151,10.936,3.975,11.448,27.089-2.891,66.338-32.977C3321.915,964.779,3426.74,906.087,3484.663,872Z" transform="translate(-3213.443 -871.94)" fill="#cad226" stroke="#231815" stroke-miterlimit="10" stroke-width="0.25"/>
    </g>
    <g id="Group_3924" data-name="Group 3924" transform="translate(3249.02 907.852)">
      <path id="Path_15097" data-name="Path 15097" d="M3370.172,926.532s44.6-20.863,71.635-21.58,44.724,3.768,61.511,5.242a198.524,198.524,0,0,1-48.055,22.682c-27.424,8.521-92.107,17.1-92.107,17.1Z" transform="translate(-3244.749 -904.875)" fill="#62a542" stroke="#000" stroke-linejoin="round" stroke-width="0.25"/>
      <path id="Path_15098" data-name="Path 15098" d="M3506.227,910.063s-76.5,3.865-137.118,26.847-122.331,85.268-121.441,94.165,12.515.579,28.983-17.533,56.79-66.2,130.6-84.87S3506.227,910.063,3506.227,910.063Z" transform="translate(-3247.658 -904.744)" fill="#cad226" stroke="#231815" stroke-miterlimit="10" stroke-width="0.25"/>
    </g>
    <ellipse id="Ellipse_2706" data-name="Ellipse 2706" cx="4.165" cy="2.499" rx="4.165" ry="2.499" transform="translate(3491.058 1036.641)" fill="#ecb36f" stroke="#000" stroke-linejoin="round" stroke-width="0.25"/>
    <ellipse id="Ellipse_2707" data-name="Ellipse 2707" cx="3.14" cy="1.794" rx="3.14" ry="1.794" transform="translate(3501.31 1044.458)" fill="#c19165" stroke="#000" stroke-linejoin="round" stroke-width="0.25"/>
    <path id="Path_15099" data-name="Path 15099" d="M3489.708,1062.721s-5.126-2.691-13.84,0-14.993-3.9-14.993-3.9" transform="translate(6.732 6.854)" fill="none" stroke="#252f33" stroke-miterlimit="10" stroke-width="0.25"/>
    <path id="Path_15100" data-name="Path 15100" d="M3477.625,1070.53a16.784,16.784,0,0,1,9.1,0c4.869,1.41,7.433-1.2,7.433-1.2" transform="translate(7.153 7.119)" fill="none" stroke="#252f33" stroke-miterlimit="10" stroke-width="0.25"/>
    <ellipse id="Ellipse_2708" data-name="Ellipse 2708" cx="3.652" cy="2.243" rx="3.652" ry="2.243" transform="translate(3383.285 1000.503)" fill="#ecb36f" stroke="#000" stroke-linejoin="round" stroke-width="0.25"/>
    <path id="Path_15101" data-name="Path 15101" d="M3410.042,1003.014a36.141,36.141,0,0,1-9.909-.341c-5.638-.94-6.237,1.281-10.679,1.452a19.593,19.593,0,0,1-8.287-1.683" transform="translate(4.724 5.434)" fill="none" stroke="#252f33" stroke-miterlimit="10" stroke-width="0.25"/>
    <path id="Path_15102" data-name="Path 15102" d="M3405.667,1007.6s2.307-1.11,6.493,0,6.664-.493,6.664-.493" transform="translate(5.342 5.552)" fill="none" stroke="#252f33" stroke-miterlimit="10" stroke-width="0.25"/>
    <path id="Path_15103" data-name="Path 15103" d="M3250.375,1061.64s6.023,4.613,14.224.641,10.636,2.9,19.607.486" transform="translate(1.431 6.909)" fill="none" stroke="#252f33" stroke-miterlimit="10" stroke-width="0.25"/>
    <path id="Path_15104" data-name="Path 15104" d="M3215.5,1084.152s5.639,3.076,15.634,0,15.762,1.367,15.762,1.367" transform="translate(0.552 7.464)" fill="none" stroke="#252f33" stroke-miterlimit="10" stroke-width="0.25"/>
    <path id="Path_15105" data-name="Path 15105" d="M3243.5,1088.895a5.573,5.573,0,0,1,5.767,0,5.937,5.937,0,0,0,6.151-.4" transform="translate(1.257 7.591)" fill="none" stroke="#252f33" stroke-miterlimit="10" stroke-width="0.25"/>
    <path id="Path_15106" data-name="Path 15106" d="M3280.125,1068.452s3.653-1.538,6.664.448,6.664-.509,6.664-.509" transform="translate(2.179 7.082)" fill="none" stroke="#252f33" stroke-miterlimit="10" stroke-width="0.25"/>
    <ellipse id="Ellipse_2709" data-name="Ellipse 2709" cx="3.844" cy="1.986" rx="3.844" ry="1.986" transform="translate(3273.975 1054.582)" fill="#ecb36f" stroke="#000" stroke-linejoin="round" stroke-width="0.25"/>
    <ellipse id="Ellipse_2710" data-name="Ellipse 2710" cx="2.734" cy="1.623" rx="2.734" ry="1.623" transform="translate(3264.064 1061.672)" fill="#c19165" stroke="#000" stroke-linejoin="round" stroke-width="0.25"/>
    <ellipse id="Ellipse_2711" data-name="Ellipse 2711" cx="3.78" cy="2.659" rx="3.78" ry="2.659" transform="translate(3291.147 1104.047)" fill="#c19165" stroke="#000" stroke-linejoin="round" stroke-width="0.25"/>
    <ellipse id="Ellipse_2712" data-name="Ellipse 2712" cx="3.652" cy="2.05" rx="3.652" ry="2.05" transform="translate(3278.011 1112.056)" fill="#ecb36f" stroke="#000" stroke-linejoin="round" stroke-width="0.25"/>
    <ellipse id="Ellipse_2713" data-name="Ellipse 2713" cx="3.246" cy="2.008" rx="3.246" ry="2.008" transform="translate(3200.674 1006.825)" fill="#c19165" stroke="#000" stroke-linejoin="round" stroke-width="0.25"/>
    <path id="Path_15107" data-name="Path 15107" d="M3193.583,1012.333a7.949,7.949,0,0,0,6.237.513,6.776,6.776,0,0,1,6.065.855" transform="translate(0 5.683)" fill="none" stroke="#252f33" stroke-miterlimit="10" stroke-width="0.25"/>
    <g id="Group_3925" data-name="Group 3925" transform="translate(3215.323 938.109)">
      <path id="Path_15108" data-name="Path 15108" d="M3432.88,957.85s-7.971,7.987-31.55,9.866-39.8,9.739-56.724,18.625-44.94,12.216-44.94,12.216,3.758-17.855,31.951-33.062,39.982-23.621,60.828-26.655S3432.88,957.85,3432.88,957.85Z" transform="translate(-3212.651 -934.284)" fill="#518937" stroke="#000" stroke-linejoin="round" stroke-width="0.25"/>
      <path id="Path_15109" data-name="Path 15109" d="M3431.4,949.772s-25.2-6.407-75.692,14.865-68.944,43.058-94.317,56.385-43.314,15.724-45.877,19.78,1.025,11.616,20.5,4.376,61.853-35.176,71.421-44.275S3366.135,952.848,3431.4,949.772Z" transform="translate(-3214.789 -934.024)" fill="#cad226" stroke="#231815" stroke-miterlimit="10" stroke-width="0.25"/>
      <path id="Path_15110" data-name="Path 15110" d="M3390.167,938.945s41.562-10.252,57.346,0,17.214,48.867,17.214,48.867-24.676-17.087-35.009-25.458S3416.479,937.578,3390.167,938.945Z" transform="translate(-3210.372 -934.389)" fill="#62a542" stroke="#000" stroke-linejoin="round" stroke-width="0.25"/>
    </g>
    <g id="Group_3926" data-name="Group 3926" transform="translate(3228.897 855.312)">
      <path id="Path_15111" data-name="Path 15111" d="M3317,984.336s-2.051-32.806,24.092-57.6,42.289-49.914,71.763-59.141,59.119-15.634,60.314-13.584-29.986,20.5-48.354,44.852-93.463,81.93-105,86.2Z" transform="translate(-3225.79 -853.626)" fill="#518937" stroke="#000" stroke-linejoin="round" stroke-width="0.25"/>
      <path id="Path_15112" data-name="Path 15112" d="M3230.883,1057.5c-5.3,2.615-2.371,8.2,1.9,8.458s51.6-28.064,80.306-64.65,28.15-51.623,55.425-76.569S3432.695,874.5,3475.41,854c0,0-60.827,24.22-95.427,53.118s-36.266,37.952-59.268,72.809S3267.469,1039.43,3230.883,1057.5Z" transform="translate(-3228.029 -853.616)" fill="#cad226" stroke="#231815" stroke-miterlimit="10" stroke-width="0.25"/>
    </g>
    <g id="Group_3927" data-name="Group 3927" transform="translate(3294.278 986.748)">
      <path id="Path_15113" data-name="Path 15113" d="M3371.393,1024.409s3.688,13.079,16.5,18.462l-3.246,15.035s-8.2-2.563-18.5,4.656C3366.154,1062.563,3361.3,1036.019,3371.393,1024.409Z" transform="translate(-3289.962 -980.761)" fill="#62a542" stroke="#000" stroke-linejoin="round" stroke-width="0.25"/>
      <path id="Path_15114" data-name="Path 15114" d="M3331.816,986.618c-4.722.784-7.338-.085-10.034,3.076s-6.027,1.281-10.9,4.955-4.357,13.071-8.458,18.283-5.212,3.673-6.066,8.714-.512,10.014-2.947,14.788-1.837,7.68,0,11.311.812,7.817.726,12.858,3.162,8.543,9.825,14.181,2.051,7.005,8.628,13.071,8.116,6.236,11.961,6.792,8.116-3.631,16.659-5.083,8.885-10.252,13.755-12.73,10.422-2.819,13.028-13.2,6.195-10.465,8.415-20.717-2.9-11.363-3.246-18.283,2.22-16.659-1.2-22.639-3.332-5.382-8.2-8.97-3.76-1.367-9.312-3.844-5.212-7.348-10.252-7.348S3339.99,985.26,3331.816,986.618Z" transform="translate(-3291.805 -981.833)" fill="#fff8eb" stroke="#000" stroke-linecap="round" stroke-linejoin="round" stroke-width="0.25"/>
      <path id="Path_15115" data-name="Path 15115" d="M3330.876,986.5s-7.518,21.686,8.714,45.785l3.674.69S3330.876,1010.933,3330.876,986.5Z" transform="translate(-3290.865 -981.716)" fill="#e5aeae" stroke="#000" stroke-linejoin="round" stroke-width="0.25"/>
      <path id="Path_15116" data-name="Path 15116" d="M3370.713,1001.5s-24.693,8.458-29.006,28.705v3.844h1.841S3349.056,1016.878,3370.713,1001.5Z" transform="translate(-3290.548 -981.338)" fill="#e5aeae" stroke="#000" stroke-linejoin="round" stroke-width="0.25"/>
      <path id="Path_15117" data-name="Path 15117" d="M3366.74,1062.339s-18.439-18.819-23.192-29.09l-1.841,1.888A40.815,40.815,0,0,0,3366.74,1062.339Z" transform="translate(-3290.548 -980.538)" fill="#e5aeae" stroke="#000" stroke-linejoin="round" stroke-width="0.25"/>
      <path id="Path_15118" data-name="Path 15118" d="M3339.624,1033.667a59.878,59.878,0,0,0-15.806,26.1c-4.87,16.531-2.306,26.911,0,33.575,0,0-2.306-19.35,4.87-35.625s13.54-22.588,13.54-22.588Z" transform="translate(-3291.069 -980.528)" fill="#e5aeae" stroke="#000" stroke-linejoin="round" stroke-width="0.25"/>
      <path id="Path_15119" data-name="Path 15119" d="M3293.375,1046.507s19.653-17.613,44.554-15.342l2.391,2.57S3311.444,1035.358,3293.375,1046.507Z" transform="translate(-3291.765 -980.596)" fill="#e5aeae" stroke="#000" stroke-linejoin="round" stroke-width="0.25"/>
      <path id="Path_15120" data-name="Path 15120" d="M3310.417,1011s1.231,8.589,12.387,12.986" transform="translate(-3291.336 -981.099)" fill="none" stroke="#252f33" stroke-linecap="round" stroke-linejoin="round" stroke-width="0.25"/>
      <path id="Path_15121" data-name="Path 15121" d="M3306.833,1015.75a5.912,5.912,0,0,0,4.272,3.588" transform="translate(-3291.426 -980.979)" fill="none" stroke="#252f33" stroke-linecap="round" stroke-linejoin="round" stroke-width="0.25"/>
      <path id="Path_15122" data-name="Path 15122" d="M3316.271,1010.083a7.64,7.64,0,0,0,3.225,5.212" transform="translate(-3291.188 -981.122)" fill="none" stroke="#252f33" stroke-linecap="round" stroke-linejoin="round" stroke-width="0.25"/>
      <path id="Path_15123" data-name="Path 15123" d="M3349.666,997.083a22.487,22.487,0,0,0-6.749,13.755" transform="translate(-3290.518 -981.449)" fill="none" stroke="#252f33" stroke-linecap="round" stroke-linejoin="round" stroke-width="0.25"/>
      <path id="Path_15124" data-name="Path 15124" d="M3343.518,997.5s-.6.684-.6,4.357" transform="translate(-3290.518 -981.438)" fill="none" stroke="#252f33" stroke-linecap="round" stroke-linejoin="round" stroke-width="0.25"/>
      <path id="Path_15125" data-name="Path 15125" d="M3352.334,1002.167s-2.051.341-3.417,3.417" transform="translate(-3290.366 -981.321)" fill="none" stroke="#252f33" stroke-linecap="round" stroke-linejoin="round" stroke-width="0.25"/>
      <path id="Path_15126" data-name="Path 15126" d="M3361.25,1032.42s2.5-.619,3.909.854" transform="translate(-3290.056 -980.562)" fill="none" stroke="#252f33" stroke-linecap="round" stroke-linejoin="round" stroke-width="0.25"/>
      <path id="Path_15127" data-name="Path 15127" d="M3360,1035.1s3.2-.991,4.742,1.059" transform="translate(-3290.087 -980.497)" fill="none" stroke="#252f33" stroke-linecap="round" stroke-linejoin="round" stroke-width="0.25"/>
      <path id="Path_15128" data-name="Path 15128" d="M3342.876,1063.063a10.432,10.432,0,0,0,1.666,6.92" transform="translate(-3290.52 -979.787)" fill="none" stroke="#252f33" stroke-linecap="round" stroke-linejoin="round" stroke-width="0.25"/>
      <path id="Path_15129" data-name="Path 15129" d="M3345.5,1063.938s.321,3.2,1.794,4.421" transform="translate(-3290.453 -979.765)" fill="none" stroke="#252f33" stroke-linecap="round" stroke-linejoin="round" stroke-width="0.25"/>
      <path id="Path_15130" data-name="Path 15130" d="M3308.417,1066a14.659,14.659,0,0,1,7.346-10.252" transform="translate(-3291.386 -979.971)" fill="none" stroke="#252f33" stroke-linecap="round" stroke-linejoin="round" stroke-width="0.25"/>
      <path id="Path_15131" data-name="Path 15131" d="M3305.167,1056.8a4.67,4.67,0,0,1,3.758-2.221" transform="translate(-3291.468 -980.001)" fill="none" stroke="#252f33" stroke-linecap="round" stroke-linejoin="round" stroke-width="0.25"/>
      <path id="Path_15132" data-name="Path 15132" d="M3317.036,1065a6.382,6.382,0,0,0-1.453,4.357" transform="translate(-3291.206 -979.739)" fill="none" stroke="#252f33" stroke-linecap="round" stroke-linejoin="round" stroke-width="0.25"/>
      <path id="Path_15133" data-name="Path 15133" d="M3343.238,1031.949c-4.3-2.873-12.689-4.722-12.689-4.722l-.381,4.722a49.687,49.687,0,0,1,7.326,1.805c2.691,1.025,4.549,2.05,5.414,1.25S3344.323,1032.674,3343.238,1031.949Z" transform="translate(-3290.838 -980.69)" fill="#b25269" stroke="#000" stroke-linejoin="round" stroke-width="0.25"/>
      <ellipse id="Ellipse_2714" data-name="Ellipse 2714" cx="1.709" cy="2.392" rx="1.709" ry="2.392" transform="translate(37.619 46.475)" fill="#f7dec6" stroke="#000" stroke-linecap="round" stroke-linejoin="round" stroke-width="0.25"/>
    </g>
    <g id="Group_3933" data-name="Group 3933" transform="translate(3316.007 963.596)">
      <g id="Group_3928" data-name="Group 3928" transform="translate(118.661)">
        <path id="Path_15134" data-name="Path 15134" d="M3473.089,959.25s-16.146,21.529-32.55,36.394-10.91,42.417-10.91,42.417,33.573-7.048,39.285-30.371S3470.526,975.909,3473.089,959.25Z" transform="translate(-3428.746 -959.25)" fill="#518937" stroke="#000" stroke-linejoin="round" stroke-width="0.25"/>
        <path id="Path_15135" data-name="Path 15135" d="M3473.068,959.25s-6.151,28.577-18.2,42.289-15.414,16.659-25.263,36.522" transform="translate(-3428.724 -959.25)" fill="#518937" stroke="#000" stroke-linejoin="round" stroke-width="0.25"/>
      </g>
      <g id="Group_3929" data-name="Group 3929" transform="translate(130.07 44.852)">
        <path id="Path_15136" data-name="Path 15136" d="M3490.237,1003s-23.963,5.638-34.856,12.558-15.506,30.756-15.506,30.756,28.833,3.844,38.444-14.1S3484.983,1013.38,3490.237,1003Z" transform="translate(-3439.875 -1003)" fill="#62a542" stroke="#000" stroke-linejoin="round" stroke-width="0.25"/>
        <path id="Path_15137" data-name="Path 15137" d="M3489.815,1003s-16.788,20.5-33.19,26.783" transform="translate(-3439.453 -1003)" fill="#62a542" stroke="#000" stroke-linejoin="round" stroke-width="0.25"/>
      </g>
      <path id="Path_15138" data-name="Path 15138" d="M3428.032,1099.085s-3.545,18.71-18.5,27.68-21.1,11.405-23.536,14.224c0,0,3.844-20.247,4.485-31.268s8.586-19.564,24.476-24.263Z" transform="translate(-3311.162 -956.072)" fill="#518937" stroke="#000" stroke-linejoin="round" stroke-width="0.25"/>
      <path id="Path_15139" data-name="Path 15139" d="M3386,1140.81s9.784-29.047,35.968-48.227" transform="translate(-3311.162 -955.892)" fill="none" stroke="#252f33" stroke-miterlimit="10" stroke-width="0.25"/>
      <path id="Path_15140" data-name="Path 15140" d="M3385.019,1074.25s-16.019,17.813-38.7,25.5-33.318,24.22-33.318,24.22,22.682,6.792,46.774-.641,36.65-9.1,49.081-26.911Z" transform="translate(-3313 -956.354)" fill="#62a542" stroke="#000" stroke-linejoin="round" stroke-width="0.25"/>
      <path id="Path_15141" data-name="Path 15141" d="M3313,1123.8s22.682-11.661,48.824-16.659,37.8-26.227,37.8-26.227" transform="translate(-3313 -956.186)" fill="none" stroke="#252f33" stroke-miterlimit="10" stroke-width="0.25"/>
      <g id="Group_3932" data-name="Group 3932" transform="translate(66.064 55.629)">
        <g id="Group_3931" data-name="Group 3931">
          <path id="Path_15142" data-name="Path 15142" d="M3408.641,1014.14c-8.118,1.4-10.935,7.9-16.36,11.32s-5.6,7.518-7.176,14.822-2.093,14.737-6.194,21.144,1.666,10,1.794,14.609,1.751,6.536,4.4,8.458,6.047,2.92,7.936,9.405,6.758,4.307,13.165,6.229,8.714,5.639,15.121,6.151,6.28-.769,12.174,0,4.87-3.46,10.636-6.92,10.508-5.51,12.43-11.533,1.453-8.757,7.133-13.156,3.5-10.851,4.272-17.684,5.211-19.65-1.11-26.057-9.4-4.229-16.83-8.97-7.177-8.2-17.428-7.176S3420.559,1012.09,3408.641,1014.14Z" transform="translate(-3377.441 -1013.512)" fill="#fff8eb" stroke="#000" stroke-linecap="round" stroke-linejoin="round" stroke-width="0.25"/>
          <path id="Path_15143" data-name="Path 15143" d="M3465.6,1030.5s-31.58,1.781-38.06,22.511l2.575,2.734S3442.023,1036.395,3465.6,1030.5Z" transform="translate(-3376.179 -1013.085)" fill="#e5aeae" stroke="#000" stroke-linejoin="round" stroke-width="0.25"/>
          <path id="Path_15144" data-name="Path 15144" d="M3462.434,1073.655s-11.618-22.725-33.062-19.564l-1.559,3.442A68.835,68.835,0,0,1,3462.434,1073.655Z" transform="translate(-3376.173 -1012.498)" fill="#e5aeae" stroke="#000" stroke-linejoin="round" stroke-width="0.25"/>
          <path id="Path_15145" data-name="Path 15145" d="M3432.277,1105.2s8.605-31.946-3.771-48.778l-2.424.851S3432.405,1082,3432.277,1105.2Z" transform="translate(-3376.216 -1012.432)" fill="#e5aeae" stroke="#000" stroke-linejoin="round" stroke-width="0.25"/>
          <path id="Path_15146" data-name="Path 15146" d="M3384.917,1083.426s12.607-21.956,41.8-27.509l.4,1.367S3397.988,1068.475,3384.917,1083.426Z" transform="translate(-3377.253 -1012.444)" fill="#e5aeae" stroke="#000" stroke-linejoin="round" stroke-width="0.25"/>
          <path id="Path_15147" data-name="Path 15147" d="M3428.439,1053.145s-6.109-19.35-36.522-27.978c0,0,23.97,13.241,34.624,31.524Z" transform="translate(-3377.077 -1013.219)" fill="#e5aeae" stroke="#000" stroke-linejoin="round" stroke-width="0.25"/>
          <path id="Path_15148" data-name="Path 15148" d="M3428.318,1044.927a19.977,19.977,0,0,1-1.758,7.269c-1.583,2.968-1.338,4.1-.415,5.119s3.134-.465,4.127-5.139a57.419,57.419,0,0,0,1.132-6.563Z" transform="translate(-3376.233 -1012.721)" fill="#b25269" stroke="#000" stroke-linejoin="round" stroke-width="0.25"/>
          <path id="Path_15149" data-name="Path 15149" d="M3392.75,1047.918a7.114,7.114,0,0,1,4.272.939" transform="translate(-3377.056 -1012.647)" fill="#fff8eb" stroke="#000" stroke-linecap="round" stroke-linejoin="round" stroke-width="0.25"/>
          <path id="Path_15150" data-name="Path 15150" d="M3393.417,1050.421a5.6,5.6,0,0,1,3.588.341" transform="translate(-3377.039 -1012.587)" fill="#fff8eb" stroke="#000" stroke-linecap="round" stroke-linejoin="round" stroke-width="0.25"/>
          <path id="Path_15151" data-name="Path 15151" d="M3407.039,1080.917a10.3,10.3,0,0,1-4.956,5.98" transform="translate(-3376.821 -1011.815)" fill="#fff8eb" stroke="#000" stroke-linecap="round" stroke-linejoin="round" stroke-width="0.25"/>
          <path id="Path_15152" data-name="Path 15152" d="M3410.053,1083.167s-.085,3.246-2.136,4.7" transform="translate(-3376.674 -1011.758)" fill="#fff8eb" stroke="#000" stroke-linecap="round" stroke-linejoin="round" stroke-width="0.25"/>
          <path id="Path_15153" data-name="Path 15153" d="M3417.272,1084.5a14.536,14.536,0,0,0-.513,8.287" transform="translate(-3376.461 -1011.725)" fill="#fff8eb" stroke="#000" stroke-linecap="round" stroke-linejoin="round" stroke-width="0.25"/>
          <path id="Path_15154" data-name="Path 15154" d="M3442.75,1080.21a3.308,3.308,0,0,1,1.453,2.6" transform="translate(-3375.796 -1011.833)" fill="#fff8eb" stroke="#000" stroke-linecap="round" stroke-linejoin="round" stroke-width="0.25"/>
          <path id="Path_15155" data-name="Path 15155" d="M3444.7,1078.25a3.96,3.96,0,0,1,1.441,3.311" transform="translate(-3375.748 -1011.882)" fill="#fff8eb" stroke="#000" stroke-linecap="round" stroke-linejoin="round" stroke-width="0.25"/>
          <path id="Path_15156" data-name="Path 15156" d="M3451.917,1049.584s6.492-.6,8.458,4.613" transform="translate(-3375.566 -1012.605)" fill="#fff8eb" stroke="#000" stroke-linecap="round" stroke-linejoin="round" stroke-width="0.25"/>
          <path id="Path_15157" data-name="Path 15157" d="M3451.917,1047.345s3.673-1.45,6.321.557" transform="translate(-3375.566 -1012.673)" fill="#fff8eb" stroke="#000" stroke-linecap="round" stroke-linejoin="round" stroke-width="0.25"/>
          <path id="Path_15158" data-name="Path 15158" d="M3422.167,1022.167a10.723,10.723,0,0,1,1.794,5.98" transform="translate(-3376.315 -1013.295)" fill="#fff8eb" stroke="#000" stroke-linecap="round" stroke-linejoin="round" stroke-width="0.25"/>
          <path id="Path_15159" data-name="Path 15159" d="M3426.083,1022.583s.94,1.2.684,4.1" transform="translate(-3376.216 -1013.284)" fill="#fff8eb" stroke="#000" stroke-linecap="round" stroke-linejoin="round" stroke-width="0.25"/>
          <path id="Path_15160" data-name="Path 15160" d="M3441.493,1026.584s-4.855-.683-6.528,3.162" transform="translate(-3375.992 -1013.185)" fill="#fff8eb" stroke="#000" stroke-linecap="round" stroke-linejoin="round" stroke-width="0.25"/>
          <g id="Group_3930" data-name="Group 3930" transform="translate(51.854 31.163)">
            <ellipse id="Ellipse_2715" data-name="Ellipse 2715" cx="1.068" cy="1.58" rx="1.068" ry="1.58" transform="translate(0 2.085) rotate(-77.482)" fill="#f7dec6"/>
            <ellipse id="Ellipse_2716" data-name="Ellipse 2716" cx="1.068" cy="1.58" rx="1.068" ry="1.58" transform="translate(0 2.085) rotate(-77.482)" fill="none" stroke="#000" stroke-linecap="round" stroke-linejoin="round" stroke-width="0.25"/>
          </g>
        </g>
      </g>
    </g>
  </g>
</svg>
