<svg xmlns="http://www.w3.org/2000/svg" xmlns:xlink="http://www.w3.org/1999/xlink" width="298.848" height="358.36" viewBox="0 0 298.848 358.36">
  <defs>
    <clipPath id="clip-path">
      <path id="Path_14721" data-name="Path 14721" d="M898.636,1468c-3.405-13.336-9.751-35.7,3.9-63s46.8-57.529,90.195-71.424,96.776-3.656,115.79,11.213,63.38,108.965,2.6,162.27-126.435,33.721-141.305,28.6-44.854-19.5-57.042-35.834S900.96,1477.108,898.636,1468Z" transform="translate(-894.158 -1327.009)" fill="none"/>
    </clipPath>
    <clipPath id="clip-path-2">
      <path id="Path_14779" data-name="Path 14779" d="M990.4,1502.667l17.647,4.388s6.338,28.114,29.252,45.016,38.678,25.839,81.094,16.5c0,0-42.091,16.82-76.544.731a89.276,89.276,0,0,1-47.291-52.411C992.123,1509.817,990.4,1502.667,990.4,1502.667Z" transform="translate(-990.402 -1502.667)" fill="none"/>
    </clipPath>
  </defs>
  <g id="Group_3867" data-name="Group 3867" transform="translate(-894.032 -1272.988)">
    <g id="Group_3880" data-name="Group 3880" transform="translate(895.792 1526.729)">
      <ellipse id="Ellipse_2653" data-name="Ellipse 2653" cx="2.763" cy="1.605" rx="2.763" ry="1.605" transform="translate(10.076 0.483)" fill="#c19165" stroke="#000" stroke-linejoin="round" stroke-width="0.25"/>
      <ellipse id="Ellipse_2654" data-name="Ellipse 2654" cx="5.038" cy="2.356" rx="5.038" ry="2.356" transform="translate(0 20.92)" fill="#ecb36f" stroke="#000" stroke-linejoin="round" stroke-width="0.25"/>
      <path id="Path_14705" data-name="Path 14705" d="M909,1543.626s4.632-3.088,8.9-.651,6.094,1.869,9.344.651,6.3-1.423,8.858,1.584" transform="translate(-896.161 -1533.432)" fill="none" stroke="#000" stroke-miterlimit="10" stroke-width="0.25"/>
      <path id="Path_14706" data-name="Path 14706" d="M919.75,1534.224s4.933-2.011,7.354-.366a6.645,6.645,0,0,0,7.069-.14" transform="translate(-896.429 -1533.211)" fill="none" stroke="#000" stroke-miterlimit="10" stroke-width="0.25"/>
      <ellipse id="Ellipse_2655" data-name="Ellipse 2655" cx="3.839" cy="1.463" rx="3.839" ry="1.463" transform="translate(81.947 81.822)" fill="#ecb36f" stroke="#000" stroke-linejoin="round" stroke-width="0.25"/>
      <ellipse id="Ellipse_2656" data-name="Ellipse 2656" cx="6.277" cy="2.377" rx="6.277" ry="2.377" transform="translate(87.798 89.013)" fill="#c19165" stroke="#000" stroke-linejoin="round" stroke-width="0.25"/>
      <ellipse id="Ellipse_2657" data-name="Ellipse 2657" cx="3.961" cy="2.316" rx="3.961" ry="2.316" transform="translate(200.297 99.861)" fill="#ecb36f" stroke="#000" stroke-linejoin="round" stroke-width="0.25"/>
      <ellipse id="Ellipse_2658" data-name="Ellipse 2658" cx="6.46" cy="2.803" rx="6.46" ry="2.803" transform="translate(212.729 47.816)" fill="#c19165" stroke="#000" stroke-linejoin="round" stroke-width="0.25"/>
      <ellipse id="Ellipse_2659" data-name="Ellipse 2659" cx="4.51" cy="2.438" rx="4.51" ry="2.438" transform="translate(225.649 59.761)" fill="#c19165" stroke="#000" stroke-linejoin="round" stroke-width="0.25"/>
      <ellipse id="Ellipse_2660" data-name="Ellipse 2660" cx="4.266" cy="2.438" rx="4.266" ry="2.438" transform="translate(266.115 36.115)" fill="#ecb36f" stroke="#000" stroke-linejoin="round" stroke-width="0.25"/>
      <path id="Path_14707" data-name="Path 14707" d="M1184.125,1550.544a4.606,4.606,0,0,1,4.326-.305c2.255,1.1,4.449.563,5.363-.419" transform="translate(-903.018 -1533.625)" fill="none" stroke="#000" stroke-miterlimit="10" stroke-width="0.25"/>
      <path id="Path_14708" data-name="Path 14708" d="M1160.437,1562.447s4.815-2.5,9.629-1.219,6.278,1.585,7.984.427a7.957,7.957,0,0,1,8.654,0c3.291,2.194,7.13-.246,7.13-.246" transform="translate(-902.428 -1533.888)" fill="none" stroke="#000" stroke-miterlimit="10" stroke-width="0.25"/>
      <path id="Path_14709" data-name="Path 14709" d="M1061.375,1601.04a16.107,16.107,0,0,1,14.87-1.584c8.776,3.169,12.432-1.219,16.942-1.706s4.875,3.413,14.139,3.291" transform="translate(-899.959 -1534.819)" fill="none" stroke="#000" stroke-miterlimit="10" stroke-width="0.25"/>
      <path id="Path_14710" data-name="Path 14710" d="M1140.5,1619.176s4.144-2.8,7.557-1.828,5.85,2.514,10.116-.206,9.263,2.034,9.263,2.034" transform="translate(-901.931 -1535.282)" fill="none" stroke="#000" stroke-miterlimit="10" stroke-width="0.25"/>
      <path id="Path_14711" data-name="Path 14711" d="M1080.25,1633.5s2.438,1.828,4.571.731,4.692-1.127,5.911.35" transform="translate(-900.429 -1535.709)" fill="none" stroke="#000" stroke-miterlimit="10" stroke-width="0.25"/>
      <path id="Path_14712" data-name="Path 14712" d="M1013.25,1623.929s6.582-4.266,11.823-.853,11.213.4,16.089-1.323,8.41.536,10.97,2.881" transform="translate(-898.76 -1535.403)" fill="none" stroke="#000" stroke-miterlimit="10" stroke-width="0.25"/>
      <path id="Path_14713" data-name="Path 14713" d="M923.125,1628.432a19.306,19.306,0,0,1,13.773-.731c7.679,2.438,11.579-5.309,23.158-.1" transform="translate(-896.514 -1535.518)" fill="none" stroke="#000" stroke-miterlimit="10" stroke-width="0.25"/>
    </g>
    <g id="Group_3884" data-name="Group 3884" transform="translate(894.158 1325.666)">
      <path id="Path_14714" data-name="Path 14714" d="M898.636,1468c-3.405-13.336-9.751-35.7,3.9-63s46.8-57.529,90.195-71.424,96.776-3.656,115.79,11.213,63.38,108.965,2.6,162.27-126.435,33.721-141.305,28.6-44.854-19.5-57.042-35.834S900.96,1477.108,898.636,1468Z" transform="translate(-894.158 -1327.009)" fill="#62a542" stroke="#000" stroke-linejoin="round" stroke-width="0.25"/>
      <path id="Path_14715" data-name="Path 14715" d="M906.36,1464.666s4.551,6.012,3.25,12.35a8.193,8.193,0,0,0-3.453,1.016c-1.341.894-3.169-1.1-2.885-4.022s-2.4-3.169-2.4-6.175S904.207,1464.462,906.36,1464.666Z" transform="translate(-894.325 -1330.439)" fill="#6d4a32" stroke="#000" stroke-linejoin="round" stroke-width="0.25"/>
      <ellipse id="Ellipse_2661" data-name="Ellipse 2661" cx="3.25" cy="1.95" rx="3.25" ry="1.95" transform="translate(46.76 39.905) rotate(-30)" fill="#dffffa" stroke="#231815" stroke-miterlimit="10" stroke-width="0.25"/>
      <ellipse id="Ellipse_2662" data-name="Ellipse 2662" cx="3.982" cy="2.275" rx="3.982" ry="2.275" transform="translate(40.52 51.528) rotate(-30)" fill="#dffffa" stroke="#231815" stroke-miterlimit="10" stroke-width="0.25"/>
      <ellipse id="Ellipse_2663" data-name="Ellipse 2663" cx="2.519" cy="1.869" rx="2.519" ry="1.869" transform="translate(175.848 38.344)" fill="#dffffa" stroke="#231815" stroke-miterlimit="10" stroke-width="0.25"/>
      <g id="Group_3883" data-name="Group 3883">
        <g id="Group_3882" data-name="Group 3882" clip-path="url(#clip-path)">
          <g id="Group_3881" data-name="Group 3881" transform="translate(0.479 9.254)">
            <path id="Path_14716" data-name="Path 14716" d="M894.649,1432.682c9.288,14.845,5.339,20.99,5.339,20.99,2.438,1.95,3.656,6.216,3.656,6.216a8.708,8.708,0,0,0,.609-8.085s3.25-4.956,3.25-7.313c0,0-4.793-6.825,3.576-14.3,0,0-3.9-6.988-2.357-12.108s2.681-11.376.731-14.626c0,0,2.751-7.537,2.147-11.529l-14.417,15.8Z" transform="translate(-894.649 -1337.881)" fill="#518937" stroke="#000" stroke-linejoin="round" stroke-width="0.25"/>
            <path id="Path_14717" data-name="Path 14717" d="M910.073,1455.947s9.436-9.751,10.9-26.571,13.535-20.849,11.945-40.466c0,0,17.064.731,23.158-6.338a58.08,58.08,0,0,1,27.546-18.283c13.164-4.144,19.5-22.671,19.5-22.671a35.177,35.177,0,0,0,34.981-5.119s13.285,5,20.355.975a12.235,12.235,0,0,0,12.676,1.219c7.435-3.291,18.283.731,18.283.731s9.873,15.845,9.873,15.479-21.939-5.729-38.759,6.216c0,0-21.7.609-31.812,17.064,0,0-26.083-14.748-36.444,8.166,0,0-15.358-.487-23.889,7.313s-8.776,25.718-8.776,25.718-12.92-6.216-23.524,10.97S921.967,1454.119,910.073,1455.947Z" transform="translate(-895.033 -1336.5)" fill="#518937" stroke="#000" stroke-linejoin="round" stroke-width="0.25"/>
            <path id="Path_14718" data-name="Path 14718" d="M917.125,1465.065s12.067-3.291,19.867-11.579c0,0,14.5.975,20.233-7.679,0,0,28.521-5.363,43.269-25.962a35.977,35.977,0,0,0,29.74-10.238s29.252,5.363,42.66-15.358c0,0,17.307,8.9,42.172,1.707l22.88,6.5a138.784,138.784,0,0,1,3.276,16.285s-37.614-3.036-54.8,9.761c0,0-23.4-10.482-52.776,12.676,0,0-16.7-7.679-23.767,2.438,0,0-18.4.609-30.837,21.452,0,0-20.233-7.923-38.638,2.925C940.4,1467.99,926.876,1464.456,917.125,1465.065Z" transform="translate(-895.209 -1337.939)" fill="#518937" stroke="#000" stroke-linejoin="round" stroke-width="0.25"/>
            <path id="Path_14719" data-name="Path 14719" d="M918.125,1483.814s19.38,10.238,31.324,9.02c0,0,11.457,10.848,28.765,2.316,0,0,22.3,4.632,33.762-9.629,0,0,20.964-1.463,33.031-13.773,0,0,18.4,4.632,29.009-4.144,0,0,12.554,4.022,24.255-.853l1.828,6.825s-102.261,30.471-117.619,42.416c0,0-13.529-6.948-28.034-3.778a19.6,19.6,0,0,0-17.064-8.288S937.017,1496.141,918.125,1483.814Z" transform="translate(-895.234 -1339.746)" fill="#518937" stroke="#000" stroke-linejoin="round" stroke-width="0.25"/>
            <path id="Path_14720" data-name="Path 14720" d="M911.125,1492s6.46,10.828,5.85,16.383c0,0,33.518,44.193,100.555,41.025l-1.1-11.579s-25.962,7.435-34.493-.487c0,0-21.939,2.559-35.59-11.823,0,0-10.97-3.413-14.017-14.992C932.333,1510.526,922.612,1509.45,911.125,1492Z" transform="translate(-895.06 -1340.375)" fill="#518937" stroke="#000" stroke-linejoin="round" stroke-width="0.25"/>
          </g>
        </g>
      </g>
    </g>
    <g id="Group_3885" data-name="Group 3885" transform="translate(1077.196 1273.125)">
      <path id="Path_14722" data-name="Path 14722" d="M1112.59,1273.125s-3.047,10.6-1.95,17.308,5.485,10.6,4.266,12.8-7.191,2.194-12.31-.609c0,0,.853,14.992,11.335,20.111s12.067,9.263,9.507,12.8-14.748-.731-20.842-6.947-15.357-5-18.4-.244-4.632,14.017,5.363,20.964,18.77,6.826,24.377,11.579,4.707,6.216,10.58,8.166,8.921,6.948,5.143,10.116-13.529,3.9-19.38,0-9.873-2.438-15.6-3.169-12.8,2.559-9.629,11.823,5.078,17.8,21.553,17.8,27.323-.366,27.81,6.216-17.917,7.8-25.352,6.826-16.778-2.552-22.061,1.1-5.119,11.457,3.169,15.845,17.551.853,22.061,8.654,9.141,13.407,18.4,15.479,20.355-12.676,29.374-15.236,8.532-10.6,22.67-14.017,16.7-22.3,10.848-28.034-17.552-3.169-21.574,3.657-18.526,10.482-18.4,3.047,12.31-5.607,23.28-13.529,8.288-10.6,14.992-14.26,7.435-17.429,1.95-22.914-9.751-2.316-16.089-2.438-12.188,5.729-13.651,11.335-10.97,15.723-16.089,11.457.244-13.773,2.438-17.43-.488-12.31,10.97-16.454,16.454-19.624,13.285-26.571-10.116-9.02-13.407-4.875-8.532,4.022-11.213,10.848-10.6,10.6-12.8,4.388,4.754-6.216,8.41-13.042-1.834-19.989-5.975-23.28c0,0-5.36,10.482-8.285,8.532s2.559-9.507-5.363-18.283C1118.014,1273.789,1112.59,1273.125,1112.59,1273.125Z" transform="translate(-1081.875 -1273.125)" fill="#cad226" stroke="#231815" stroke-miterlimit="10" stroke-width="0.25"/>
      <path id="Path_14723" data-name="Path 14723" d="M1113.375,1273.125s33.486,78.161,35.818,178.456" transform="translate(-1082.66 -1273.125)" fill="none" stroke="#000" stroke-miterlimit="10" stroke-width="0.25"/>
      <path id="Path_14724" data-name="Path 14724" d="M1103.125,1303.375s13.775,17.468,25.6,16.921" transform="translate(-1082.404 -1273.879)" fill="none" stroke="#000" stroke-miterlimit="10" stroke-width="0.25"/>
      <path id="Path_14725" data-name="Path 14725" d="M1140.829,1292.875s1.708,18.117-11.453,27.159" transform="translate(-1083.058 -1273.617)" fill="none" stroke="#000" stroke-miterlimit="10" stroke-width="0.25"/>
      <path id="Path_14726" data-name="Path 14726" d="M1084.25,1329.75s20.686,28.3,52.76,26.889" transform="translate(-1081.934 -1274.536)" fill="none" stroke="#000" stroke-miterlimit="10" stroke-width="0.25"/>
      <path id="Path_14727" data-name="Path 14727" d="M1171.289,1313.679s-12.956,34.49-32.931,42.559" transform="translate(-1083.282 -1274.136)" fill="none" stroke="#000" stroke-miterlimit="10" stroke-width="0.25"/>
      <path id="Path_14728" data-name="Path 14728" d="M1085.054,1382.962s33.131,23.648,59.565,20.009" transform="translate(-1081.954 -1275.862)" fill="none" stroke="#000" stroke-miterlimit="10" stroke-width="0.25"/>
      <path id="Path_14729" data-name="Path 14729" d="M1193.936,1359.334s-24.9,40.871-47.8,43.048" transform="translate(-1083.476 -1275.273)" fill="none" stroke="#000" stroke-miterlimit="10" stroke-width="0.25"/>
      <path id="Path_14730" data-name="Path 14730" d="M1084.726,1425.944s28.295,20.044,63.157,14.193" transform="translate(-1081.946 -1276.934)" fill="none" stroke="#000" stroke-miterlimit="10" stroke-width="0.25"/>
      <path id="Path_14731" data-name="Path 14731" d="M1195.207,1405.75s-14.022,28.129-45.71,33.884" transform="translate(-1083.56 -1276.43)" fill="none" stroke="#000" stroke-miterlimit="10" stroke-width="0.25"/>
    </g>
    <g id="Group_3886" data-name="Group 3886" transform="translate(1073.368 1379.055)">
      <path id="Path_14732" data-name="Path 14732" d="M1114.809,1381.762s-5.241,7.679-6.338,13.407,1.219,8.776-2.072,9.629-7.313-2.438-9.263-4.022c0,0-3.084,11.334,3.413,18.648s5.9,13.173.488,12.8-12.188-4.388-16.089,1.95,2.682,11.213,7.069,11.7,5.119,4.51,12.188,5,7.8,10.116,2.438,10.848-9.629-4.754-14.5-7.557-11.7-3.291-13.651,1.463,1.707,10.36,5.972,13.651,4.753,10.726,15.357,10.97,32.665-.975,37.906-9.263,5.972-12.92,2.682-15.845-6.826-2.681-10.6,1.463-8.288,2.925-7.8-.731,4.022-5.607,10.97-6.216,6.778-12.676,9.422-16.211-3.937-9.738-9.057-3.955-9.873,5.3-9.873,2.249,7.345-5.97,10.718-14.992,0-14.748,0-14.748-6.846,5.693-9.865,3.9,1.341-5.972-1.828-13.164A32.243,32.243,0,0,0,1114.809,1381.762Z" transform="translate(-1077.948 -1381.762)" fill="#cad226" stroke="#231815" stroke-miterlimit="10" stroke-width="0.25"/>
      <path id="Path_14733" data-name="Path 14733" d="M1115.7,1381.762s7.406,45.492-2.087,98.071" transform="translate(-1078.837 -1381.762)" fill="none" stroke="#000" stroke-miterlimit="10" stroke-width="0.25"/>
      <path id="Path_14734" data-name="Path 14734" d="M1097.626,1401.262s5.62,18.161,20.422,21.939" transform="translate(-1078.439 -1382.248)" fill="none" stroke="#000" stroke-miterlimit="10" stroke-width="0.25"/>
      <path id="Path_14735" data-name="Path 14735" d="M1135.193,1402.512s-2.65,19.337-16.623,20.72" transform="translate(-1078.961 -1382.279)" fill="none" stroke="#000" stroke-miterlimit="10" stroke-width="0.25"/>
      <path id="Path_14736" data-name="Path 14736" d="M1084.671,1436.346a47.9,47.9,0,0,0,32.183,13.077" transform="translate(-1078.116 -1383.122)" fill="none" stroke="#000" stroke-miterlimit="10" stroke-width="0.25"/>
      <path id="Path_14737" data-name="Path 14737" d="M1142.337,1429.593a30.461,30.461,0,0,1-24.66,19.661" transform="translate(-1078.939 -1382.954)" fill="none" stroke="#000" stroke-miterlimit="10" stroke-width="0.25"/>
      <path id="Path_14738" data-name="Path 14738" d="M1079.438,1455.97s9.531,20.126,33.726,23.417" transform="translate(-1077.986 -1383.611)" fill="none" stroke="#000" stroke-miterlimit="10" stroke-width="0.25"/>
      <path id="Path_14739" data-name="Path 14739" d="M1141.3,1457.012a38.245,38.245,0,0,1-27.278,22.4" transform="translate(-1078.848 -1383.637)" fill="none" stroke="#000" stroke-miterlimit="10" stroke-width="0.25"/>
    </g>
    <g id="Group_3887" data-name="Group 3887" transform="translate(904.567 1515.377)">
      <path id="Path_14740" data-name="Path 14740" d="M904.833,1592.682s.569-14.87,10.238-17.145,13.977-5.445,11.62-8.776-11.945-5.2-11.051-9.1,9.344-2.438,14.463-4.469,13.814,3.9,17.714,0,.488-7.232-3.819-8.044-6.175-4.388-12.108-7.069-4.713-15.6,11.132-15.114,9.995,8.207,20.233,11.294,13.636,1.937,11.457-2.843-4.225-7.069-1.3-9.507,36.3,8.613,44.942,21.411,6.574,20.233,8.646,26.205-1.341,12.188.975,17.673-5.241,8.532-7.191,12.554-6.46,8.044-12.067,2.8-8.654-9.995-7.313-15.235,2.808-16.211-1.094-21.939-10.607-6.094-11.582,2.194,4.144,14.748,1.706,23.28-7.557,8.776-13.529,10.848-8.9.366-11.457-4.876,4.753-10.116,3.535-16.82-8.044-11.457-10.726-4.632-1.463,9.019-5.85,13.407-4.632,8.776-8.776,9.995c0,0-.975-9.019-4.51-9.019s-3.535,3.291-11.335,3.291S918.444,1600.239,904.833,1592.682Z" transform="translate(-904.833 -1521.569)" fill="#cad226" stroke="#231815" stroke-miterlimit="10" stroke-width="0.25"/>
      <path id="Path_14741" data-name="Path 14741" d="M904.833,1593.365s28.44-11.213,40.953-24.214,47.67-23.342,76-19.308" transform="translate(-904.833 -1522.251)" fill="none" stroke="#000" stroke-miterlimit="10" stroke-width="0.25"/>
      <path id="Path_14742" data-name="Path 14742" d="M947.969,1567.581c-11.3-7.289-32.052-9-32.052-9" transform="translate(-905.109 -1522.491)" fill="none" stroke="#000" stroke-miterlimit="10" stroke-width="0.25"/>
      <path id="Path_14743" data-name="Path 14743" d="M944.625,1599.929a39.7,39.7,0,0,0,4.059-32.118" transform="translate(-905.825 -1522.721)" fill="none" stroke="#000" stroke-miterlimit="10" stroke-width="0.25"/>
      <path id="Path_14744" data-name="Path 14744" d="M930.308,1528.755s30.294,8.033,48.068,23.882" transform="translate(-905.468 -1521.748)" fill="none" stroke="#000" stroke-miterlimit="10" stroke-width="0.25"/>
      <path id="Path_14745" data-name="Path 14745" d="M975.588,1603.263s10.091-15.651,3.917-50.017" transform="translate(-906.596 -1522.358)" fill="none" stroke="#000" stroke-miterlimit="10" stroke-width="0.25"/>
      <path id="Path_14746" data-name="Path 14746" d="M1015,1605.465s13-27.317-1.75-56.49" transform="translate(-907.535 -1522.252)" fill="none" stroke="#000" stroke-miterlimit="10" stroke-width="0.25"/>
      <path id="Path_14747" data-name="Path 14747" d="M974.169,1523s23.374,7.352,38,25.294" transform="translate(-906.561 -1521.604)" fill="none" stroke="#000" stroke-miterlimit="10" stroke-width="0.25"/>
    </g>
    <g id="Group_3888" data-name="Group 3888" transform="translate(955.761 1424.094)">
      <path id="Path_14748" data-name="Path 14748" d="M962.7,1427.953s-3.457,10.187,1.65,18.138,4.859,10.522-2.623,13.52-3.621,8.569,2.236,9.054,3.856,3.442,9.675,4.751,8.757,4.457,2.977,6.666-5.787-1.067-13.3,1.034-7.176,9.922-3.207,13.432,13.348,7.068,20.607,3.607,17.359-3.271,17.238,1.577-10.739,7.672-16.709,5.81-17.237,3.582-13.863,12.737,13.416,10.172,20.63,8.928,14.49,8.315,26.122,4.462,23.71-7.436,30.718-20.613,5.771-26.781-4.263-24.523-21.882,5.457-22.857.611,8.422-12.046,10.555-18.46,4.661-12.633-3.685-20.3-14.132,1.919-13.665,8.494-1.571,18.576-6.228,16.737.951-9.923-.632-14.637-4.7-8.05-6.032-12.219-5.713-5.763-7.422-2.29-3.517,2.782-4.179.47a16.446,16.446,0,0,0-11.006-11.195C967.783,1431.526,966.039,1431.665,962.7,1427.953Z" transform="translate(-957.335 -1427.953)" fill="#cad226" stroke="#231815" stroke-miterlimit="10" stroke-width="0.25"/>
      <path id="Path_14749" data-name="Path 14749" d="M962.838,1427.953s19.688,35.036,35.613,50.775,24.034,50.134,24.034,50.134" transform="translate(-957.473 -1427.953)" fill="none" stroke="#000" stroke-miterlimit="10" stroke-width="0.25"/>
      <path id="Path_14750" data-name="Path 14750" d="M957.611,1464.571s16.4,6.41,30.413,3.126" transform="translate(-957.342 -1428.866)" fill="none" stroke="#000" stroke-miterlimit="10" stroke-width="0.25"/>
      <path id="Path_14751" data-name="Path 14751" d="M994.792,1443.01s2.571,16.207-5.991,24.15" transform="translate(-958.12 -1428.328)" fill="none" stroke="#000" stroke-miterlimit="10" stroke-width="0.25"/>
      <path id="Path_14752" data-name="Path 14752" d="M957.338,1489.937s21.315,9.06,47.924-1.061" transform="translate(-957.336 -1429.471)" fill="none" stroke="#000" stroke-miterlimit="10" stroke-width="0.25"/>
      <path id="Path_14753" data-name="Path 14753" d="M1022.5,1446.6s4.916,29.74-16.011,41.221" transform="translate(-958.56 -1428.418)" fill="none" stroke="#000" stroke-miterlimit="10" stroke-width="0.25"/>
      <path id="Path_14754" data-name="Path 14754" d="M967.362,1514.846s18.831,12.853,50.775,1.366" transform="translate(-957.585 -1430.118)" fill="none" stroke="#000" stroke-miterlimit="10" stroke-width="0.25"/>
      <path id="Path_14755" data-name="Path 14755" d="M1027.405,1496.859s4.992-3.255,9.738-3.94,7.247-4.852,12.254-6.062" transform="translate(-959.082 -1429.421)" fill="none" stroke="#000" stroke-miterlimit="10" stroke-width="0.25"/>
    </g>
    <g id="Group_3892" data-name="Group 3892" transform="translate(988.003 1441.641)">
      <ellipse id="Ellipse_2664" data-name="Ellipse 2664" cx="3.596" cy="2.069" rx="3.596" ry="2.069" transform="translate(170.978 83.907)" fill="#ecb36f" stroke="#000" stroke-linejoin="round" stroke-width="0.25"/>
      <path id="Path_14756" data-name="Path 14756" d="M1149.187,1545.453s8.776-3.047,16.15-.548,19.928-1.28,19.928-1.28" transform="translate(-994.359 -1448.382)" fill="none" stroke="#000" stroke-miterlimit="10" stroke-width="0.25"/>
      <path id="Path_14757" data-name="Path 14757" d="M1004.625,1496.154s8.058-2.153,11.931-3.616,10.374-4.673,19.637-6.623,16.82-5.445,31.08-8.147,16.455-5.992,36.566-9.222a89.658,89.658,0,0,0,36.809-14.2,103.986,103.986,0,0,1,11.051-5.952l10.036,4.652s11.213,72.724-33.031,98.807-89.1-6.338-101.286-27.058S1004.625,1496.154,1004.625,1496.154Z" transform="translate(-990.756 -1446.009)" fill="#ea6157" stroke="#000" stroke-linejoin="round" stroke-width="0.25"/>
      <path id="Path_14758" data-name="Path 14758" d="M993.541,1500.274s8.126-3.309,10.808-4.163c0,0,12.635,1.665,15.52,4.225,0,0,11.24,33.323,34.608,46.057s45.748,16.034,66.406,3.794c25.689-15.221,34.157-39.815,38.219-63.542s2.357-33.64,2.357-33.64l-10.036-4.652a51.017,51.017,0,0,0,4.977-1.665l3.23.629,10.441,2.925s.813,13.977.406,22.833-6.582,39.41-9.344,45.585-12.514,30.715-27.587,39.613-29.138,12.92-50.891,10.848-54.539-21.361-64.534-42.411-11.271-21.964-11.271-21.964Z" transform="translate(-990.48 -1445.966)" fill="#f4ffe9" stroke="#000" stroke-miterlimit="10" stroke-width="0.25"/>
      <path id="Path_14759" data-name="Path 14759" d="M1157.945,1445.948l-1.624.721a74.849,74.849,0,0,0,12.738,4.022s2.128,25.9-2.26,45.236-12.28,52.921-41.74,65.5c-32.828,14.015-60.633,4.491-79.469-8.331-26.977-18.364-33.052-42.241-34.676-48.53l-17.451-4.309a31.221,31.221,0,0,0-3.061,1l2.614,2.843,14.3,3.029s12.111,38.656,40.387,52.795,38.438,16.081,70.691,7.232c31.69-8.695,47.616-49,51.516-74.674s1.95-38.679.812-42.579C1170.724,1449.9,1159.042,1447.167,1157.945,1445.948Z" transform="translate(-990.402 -1445.948)" fill="#62a542" stroke="#000" stroke-linejoin="round" stroke-width="0.25"/>
      <g id="Group_3889" data-name="Group 3889" transform="translate(63.997 46.059)">
        <path id="Path_14760" data-name="Path 14760" d="M1061.257,1504.646c-.791-.416-7.913,6.021-4.116,7.839C1060.77,1514.222,1062.049,1505.063,1061.257,1504.646Z" transform="translate(-1056.034 -1493.47)" fill="#6d4a32" stroke="#000" stroke-linejoin="round" stroke-width="0.25"/>
        <path id="Path_14761" data-name="Path 14761" d="M1065.965,1524.586c-.862-.235-6.423,7.59-2.323,8.543C1067.56,1534.039,1066.828,1524.821,1065.965,1524.586Z" transform="translate(-1056.187 -1493.967)" fill="#6d4a32" stroke="#000" stroke-linejoin="round" stroke-width="0.25"/>
        <path id="Path_14762" data-name="Path 14762" d="M1088.474,1504.188c-.893.007-4.139,9.041.066,8.853C1092.558,1512.862,1089.368,1504.182,1088.474,1504.188Z" transform="translate(-1056.792 -1493.459)" fill="#6d4a32" stroke="#000" stroke-linejoin="round" stroke-width="0.25"/>
        <path id="Path_14763" data-name="Path 14763" d="M1108.314,1521.5c-.862.239-1.633,9.809,2.377,8.527C1114.523,1528.805,1109.175,1521.261,1108.314,1521.5Z" transform="translate(-1057.32 -1493.89)" fill="#6d4a32" stroke="#000" stroke-linejoin="round" stroke-width="0.25"/>
        <path id="Path_14764" data-name="Path 14764" d="M1102.671,1493.209c-.769.454.961,9.9,4.5,7.622C1110.56,1498.658,1103.442,1492.756,1102.671,1493.209Z" transform="translate(-1057.192 -1493.184)" fill="#6d4a32" stroke="#000" stroke-linejoin="round" stroke-width="0.25"/>
        <path id="Path_14765" data-name="Path 14765" d="M1125.552,1497.285c-.6.661,3.835,9.174,6.55,5.956C1134.695,1500.166,1126.153,1496.624,1125.552,1497.285Z" transform="translate(-1057.766 -1493.285)" fill="#6d4a32" stroke="#000" stroke-linejoin="round" stroke-width="0.25"/>
        <path id="Path_14766" data-name="Path 14766" d="M1139.161,1500.314c-.37.814,6.46,7.56,8.059,3.665C1148.749,1500.259,1139.532,1499.5,1139.161,1500.314Z" transform="translate(-1058.106 -1493.355)" fill="#6d4a32" stroke="#000" stroke-linejoin="round" stroke-width="0.25"/>
      </g>
      <path id="Path_14767" data-name="Path 14767" d="M1061.088,1490.676a6.528,6.528,0,0,1,5.4-1.44,6.77,6.77,0,0,0,5.485-1.462" transform="translate(-992.164 -1446.99)" fill="none" stroke="#000" stroke-miterlimit="10" stroke-width="0.25"/>
      <path id="Path_14768" data-name="Path 14768" d="M1101.375,1481.861a6.589,6.589,0,0,1,3.291-.488" transform="translate(-993.168 -1446.83)" fill="none" stroke="#000" stroke-miterlimit="10" stroke-width="0.25"/>
      <path id="Path_14769" data-name="Path 14769" d="M1122.75,1476.5s4.754-.975,7.069-2.56,5.85-2.925,7.922-2.072" transform="translate(-993.7 -1446.587)" fill="none" stroke="#000" stroke-miterlimit="10" stroke-width="0.25"/>
      <path id="Path_14770" data-name="Path 14770" d="M1144.531,1468.253a4.422,4.422,0,0,1,2.359-1.1" transform="translate(-994.243 -1446.477)" fill="none" stroke="#000" stroke-miterlimit="10" stroke-width="0.25"/>
      <path id="Path_14771" data-name="Path 14771" d="M1041.375,1515.679s.853-2.126,2.072-2.769" transform="translate(-991.672 -1447.617)" fill="none" stroke="#000" stroke-miterlimit="10" stroke-width="0.25"/>
      <path id="Path_14772" data-name="Path 14772" d="M1045.849,1515.75a2.9,2.9,0,0,1-1.036,2.072" transform="translate(-991.758 -1447.688)" fill="none" stroke="#000" stroke-miterlimit="10" stroke-width="0.25"/>
      <path id="Path_14773" data-name="Path 14773" d="M1090.985,1539.313a21.5,21.5,0,0,0-.426,7.191" transform="translate(-992.894 -1448.275)" fill="none" stroke="#000" stroke-miterlimit="10" stroke-width="0.25"/>
      <path id="Path_14774" data-name="Path 14774" d="M1093.875,1541.5a38.957,38.957,0,0,0,.427,5.485" transform="translate(-992.981 -1448.329)" fill="none" stroke="#000" stroke-miterlimit="10" stroke-width="0.25"/>
      <path id="Path_14775" data-name="Path 14775" d="M1130.812,1528.813a7.393,7.393,0,0,0,3.109,2.8" transform="translate(-993.901 -1448.013)" fill="none" stroke="#000" stroke-miterlimit="10" stroke-width="0.25"/>
      <path id="Path_14776" data-name="Path 14776" d="M1134,1527.375s.975,1.341,1.584,1.4" transform="translate(-993.981 -1447.977)" fill="none" stroke="#000" stroke-miterlimit="10" stroke-width="0.25"/>
      <path id="Path_14777" data-name="Path 14777" d="M990.4,1502.667l17.647,4.388s6.338,28.114,29.252,45.016,38.678,25.839,81.094,16.5c0,0-42.091,16.82-76.544.731a89.276,89.276,0,0,1-47.291-52.411C992.123,1509.817,990.4,1502.667,990.4,1502.667Z" transform="translate(-990.402 -1447.362)" fill="#62a542" stroke="#000" stroke-linejoin="round" stroke-width="0.25"/>
      <g id="Group_3891" data-name="Group 3891" transform="translate(0 55.305)">
        <g id="Group_3890" data-name="Group 3890" clip-path="url(#clip-path-2)">
          <path id="Path_14778" data-name="Path 14778" d="M1001.873,1503.375s-.781,8.532,3.327,14.139,3.255,13.895,3.255,13.895,4.53,1.031,7.262,7.462,7.973,6.393,10.655,10.983a19.857,19.857,0,0,1,2.56,9.466s5.241-.975,8.532,4.632,11.945,10.613,19.5,12.132c0,0-6.351-5.108-8.977-11.766,0,0-7.234-5.735-8.331-12.313,0,0-7.978-4.3-19.651-24.618s-11.186-23.158-11.186-23.158Z" transform="translate(-990.686 -1502.685)" fill="#518937" stroke="#000" stroke-linejoin="round" stroke-width="0.25"/>
        </g>
      </g>
      <path id="Path_14780" data-name="Path 14780" d="M990.4,1502.667l17.647,4.388s6.338,28.114,29.252,45.016,38.678,25.839,81.094,16.5c0,0-42.091,16.82-76.544.731a89.276,89.276,0,0,1-47.291-52.411C992.123,1509.817,990.4,1502.667,990.4,1502.667Z" transform="translate(-990.402 -1447.362)" fill="none" stroke="#000" stroke-miterlimit="10" stroke-width="0.25"/>
    </g>
  </g>
</svg>
