<svg xmlns="http://www.w3.org/2000/svg" width="271.829" height="370.416" viewBox="0 0 271.829 370.416">
  <g id="Group_3434" data-name="Group 3434" transform="translate(-509.527 -159.264)">
    <g id="Group_3457" data-name="Group 3457" transform="translate(562.91 206.353)">
      <path id="Path_11418" data-name="Path 11418" d="M660.682,238.247a18.169,18.169,0,0,0,10.561-10.08c3.2-7.84,9.664-13.226,22.3-13.636s14.281-2.3,20.848-4.432,22.9-2.775,29.877,11.212-2.713,23.661-5.816,32.454,1.965,9.724-5.173,23.895-27.3,11.644-33.671,22.37-46.072,15.594-44.323-19.943S653.431,246.526,660.682,238.247Z" transform="translate(-570.498 -208.935)" fill="#518937" stroke="#000" stroke-linejoin="round" stroke-width="0.25"/>
      <path id="Path_11419" data-name="Path 11419" d="M721.726,222.523c.793,1.456-3.777,3.567-11.646,9.337s-19.724,17.206-29.375,28.327a142.155,142.155,0,0,0-16.052,23.081s-49.615,96.316-59.961,106.892-31.13,48.672-31.314,48.591-7.538-13.875-7.538-13.875,12.182-18.163,22.988-30.808,14.024-15.634,25.52-35.865,32.877-53.951,42.763-72.152,12.415-20.96,21.151-29.236,15.523-16.768,26.723-24.288S720.547,220.359,721.726,222.523Z" transform="translate(-565.84 -209.615)" fill="#a5b63d" stroke="#231815" stroke-miterlimit="10" stroke-width="0.25"/>
      <path id="Path_11420" data-name="Path 11420" d="M720.683,217.577s-5.165,6.562-3.783,11.921" transform="translate(-573.698 -209.385)" fill="none" stroke="#231815" stroke-miterlimit="10" stroke-width="0.25"/>
      <path id="Path_11421" data-name="Path 11421" d="M707.162,220.277s-7.61,10.126-7.4,22.024" transform="translate(-572.817 -209.526)" fill="none" stroke="#231815" stroke-miterlimit="10" stroke-width="0.25"/>
      <path id="Path_11422" data-name="Path 11422" d="M689.729,227.029a48.684,48.684,0,0,0-7.912,32.407" transform="translate(-571.865 -209.877)" fill="none" stroke="#231815" stroke-miterlimit="10" stroke-width="0.25"/>
      <path id="Path_11423" data-name="Path 11423" d="M669.66,240.605s-9.95,14.395-7.554,46.416" transform="translate(-570.836 -210.585)" fill="none" stroke="#231815" stroke-miterlimit="10" stroke-width="0.25"/>
      <path id="Path_11424" data-name="Path 11424" d="M684.662,265.088s20.434,7.276,42.194,0" transform="translate(-572.031 -211.86)" fill="none" stroke="#231815" stroke-miterlimit="10" stroke-width="0.25"/>
      <path id="Path_11425" data-name="Path 11425" d="M720.976,280.369c-7.84,4.917-42.389,8.715-50.892,5.941" transform="translate(-571.271 -212.657)" fill="none" stroke="#231815" stroke-miterlimit="10" stroke-width="0.25"/>
      <path id="Path_11426" data-name="Path 11426" d="M718.008,232.4s7.842,4.6,19.211,2.291" transform="translate(-573.768 -210.157)" fill="none" stroke="#231815" stroke-miterlimit="10" stroke-width="0.25"/>
      <path id="Path_11427" data-name="Path 11427" d="M701.625,246.779s15.021,6.874,31.823,1.038" transform="translate(-572.914 -210.907)" fill="none" stroke="#231815" stroke-miterlimit="10" stroke-width="0.25"/>
      <ellipse id="Ellipse_1962" data-name="Ellipse 1962" cx="2.858" cy="1.865" rx="2.858" ry="1.865" transform="matrix(0.826, -0.564, 0.564, 0.826, 160.039, 15.39)" fill="#dffffa" stroke="#231815" stroke-miterlimit="10" stroke-width="0.25"/>
    </g>
    <g id="Group_3459" data-name="Group 3459" transform="translate(526.772 254.618)">
      <path id="Path_11428" data-name="Path 11428" d="M578.672,463.133s-2.313,1.45-7.624,9.167-3.809,2.906-9.12,15.734-2.606,12.126-8.118,21.045-6.013,9.02-8.919,15.534-2.706,5.311-6.915,12.026-7.918,9.721-9.922,7.816,5.412-1.4,8.418-11.023,6.012-9.02,8.919-16.637,3.211-9.521,5.664-13.93a39.974,39.974,0,0,0,5.158-13.645c1.3-6.4,4.939-9.262,5.276-18.376s9.059-14.382,9.059-14.382Z" transform="translate(-527.716 -270.096)" fill="#ecb36f" stroke="#000" stroke-linejoin="round" stroke-width="0.25"/>
      <g id="Group_3458" data-name="Group 3458" transform="translate(42.825)">
        <path id="Path_11429" data-name="Path 11429" d="M734.419,261.064s6.241,2.386,15.257-.375,24.885,1.3,28.465,12.343c4.26,13.145-7.376,24.769-5.348,34.6,2.476,12.007-1.558,29.214-20.112,33.5-21.529,4.975-22.655,11.949-28.665,19.276s-15.95,10.795-28.9,9.87-37.3,3.638-32.217-25.065-5.349-30.855,13.435-46.665,25.283-12.635,36.156-27.778S734.419,261.064,734.419,261.064Z" transform="translate(-577.549 -259.852)" fill="#62a542" stroke="#000" stroke-linejoin="round" stroke-width="0.25"/>
        <path id="Path_11430" data-name="Path 11430" d="M749.8,280.353c.861,2.272-6.768,4.486-21.38,13.1s-35.283,22.711-41.251,30.735c0,0-46.112,40.092-52.4,49.9s-12.872,13.42-23.105,29.7-11.609,18.84-16.768,31.813-9.707,20.975-18.836,17.681,4.095-27.046,7.511-31.235,17.6-16.048,21.62-24.764,17.438-17.958,24.145-27.045,57.263-54.4,70.605-62.9,25.179-15.583,31.2-18.637S749.111,278.539,749.8,280.353Z" transform="translate(-572.895 -260.905)" fill="#a5b63d" stroke="#231815" stroke-miterlimit="10" stroke-width="0.25"/>
        <path id="Path_11431" data-name="Path 11431" d="M749.145,271.392a26.422,26.422,0,0,0-8.531,16.479" transform="translate(-581.633 -260.453)" fill="none" stroke="#231815" stroke-miterlimit="10" stroke-width="0.25"/>
        <path id="Path_11432" data-name="Path 11432" d="M763.884,294.456s-17.01,2.11-22.071-3.047" transform="translate(-581.696 -261.496)" fill="none" stroke="#231815" stroke-miterlimit="10" stroke-width="0.25"/>
        <path id="Path_11433" data-name="Path 11433" d="M724.345,296.884s1.49-12.952,7.5-20.466" transform="translate(-580.786 -260.715)" fill="none" stroke="#231815" stroke-miterlimit="10" stroke-width="0.25"/>
        <path id="Path_11434" data-name="Path 11434" d="M767.052,311.236s-27.762,4.23-41.262-10.143" transform="translate(-580.861 -262.001)" fill="none" stroke="#231815" stroke-miterlimit="10" stroke-width="0.25"/>
        <path id="Path_11435" data-name="Path 11435" d="M706.916,307.4s-1.059-12.508,7.959-26.222" transform="translate(-579.876 -260.963)" fill="none" stroke="#231815" stroke-miterlimit="10" stroke-width="0.25"/>
        <path id="Path_11436" data-name="Path 11436" d="M708.805,312.828s17.723,16.874,48.626,13.066" transform="translate(-579.976 -262.612)" fill="none" stroke="#231815" stroke-miterlimit="10" stroke-width="0.25"/>
        <path id="Path_11437" data-name="Path 11437" d="M694.887,324.862s14.478,17.3,42.751,14.1" transform="translate(-579.251 -263.239)" fill="none" stroke="#231815" stroke-miterlimit="10" stroke-width="0.25"/>
        <path id="Path_11438" data-name="Path 11438" d="M715.392,357.056s-24.27,1.371-37.2-16.674" transform="translate(-578.381 -264.048)" fill="none" stroke="#231815" stroke-miterlimit="10" stroke-width="0.25"/>
        <ellipse id="Ellipse_1963" data-name="Ellipse 1963" cx="3.912" cy="2.342" rx="3.912" ry="2.342" transform="matrix(0.913, -0.408, 0.408, 0.913, 186.119, 20.912)" fill="#dffffa" stroke="#231815" stroke-miterlimit="10" stroke-width="0.25"/>
        <ellipse id="Ellipse_1964" data-name="Ellipse 1964" cx="2.317" cy="1.46" rx="2.317" ry="1.46" transform="translate(183.299 14.962) rotate(-11.07)" fill="#dffffa" stroke="#231815" stroke-miterlimit="10" stroke-width="0.25"/>
      </g>
      <path id="Path_11439" data-name="Path 11439" d="M572.854,469.515c-2.9,12.592,3.815,11.283,1.81,17.8" transform="translate(-530.03 -270.776)" fill="none" stroke="#231815" stroke-miterlimit="10" stroke-width="0.25"/>
      <path id="Path_11440" data-name="Path 11440" d="M563.91,479.832s-7.119,2.806-7.511,6.013" transform="translate(-529.211 -271.313)" fill="none" stroke="#231815" stroke-miterlimit="10" stroke-width="0.25"/>
      <path id="Path_11441" data-name="Path 11441" d="M559.789,496.325c-.478,4.65,3.372,9.579,4.3,12.828" transform="translate(-529.385 -272.173)" fill="none" stroke="#231815" stroke-miterlimit="10" stroke-width="0.25"/>
      <path id="Path_11442" data-name="Path 11442" d="M554.1,505.523s-9,3.908-8.9,11.526" transform="translate(-528.627 -272.652)" fill="none" stroke="#231815" stroke-miterlimit="10" stroke-width="0.25"/>
      <path id="Path_11443" data-name="Path 11443" d="M550.764,514.8s-.868,5.432,2.84,8.139" transform="translate(-528.912 -273.135)" fill="none" stroke="#231815" stroke-miterlimit="10" stroke-width="0.25"/>
      <path id="Path_11444" data-name="Path 11444" d="M544.038,528.36s.6,5.011,2.807,6.514" transform="translate(-528.567 -273.842)" fill="none" stroke="#231815" stroke-miterlimit="10" stroke-width="0.25"/>
      <path id="Path_11445" data-name="Path 11445" d="M537.831,537.558a10.141,10.141,0,0,1-7.13,3.007" transform="translate(-527.872 -274.321)" fill="none" stroke="#231815" stroke-miterlimit="10" stroke-width="0.25"/>
    </g>
    <g id="Group_3460" data-name="Group 3460" transform="translate(561.63 159.389)">
      <path id="Path_11446" data-name="Path 11446" d="M567.563,247.5c.869-.688,3.163-10.322,1.1-17.435s-1.15-11.458,6.837-17.62,10.156-16.431,10.726-25.559,9.471-27.727,31.492-27.5,34.9,17.8,34.687,30.123c-.254,14.994,13.387,17.994,5.553,36.952s-24.19,41.5-24.19,41.5-42.082,18.677-40.836,18.116S567.563,247.5,567.563,247.5Z" transform="translate(-564.65 -159.389)" fill="#62a542" stroke="#000" stroke-linejoin="round" stroke-width="0.25"/>
      <path id="Path_11447" data-name="Path 11447" d="M621.026,167.915c2.1.155,1.269,5.98.911,11.243s-1.7,11.362-.911,14.951-2.558,12.08-2.438,19.137l-2.871,1.743a66.1,66.1,0,0,0,2.512-13.584c.359-6.578,1.675-19.018,2.033-23.084S619.4,167.8,621.026,167.915Z" transform="translate(-567.159 -159.833)" fill="#a5b63d" stroke="#231815" stroke-miterlimit="10" stroke-width="0.25"/>
      <path id="Path_11448" data-name="Path 11448" d="M610.292,171.574s-.61,16.626,8.486,20.573" transform="translate(-566.876 -160.024)" fill="none" stroke="#231815" stroke-miterlimit="10" stroke-width="0.25"/>
      <path id="Path_11449" data-name="Path 11449" d="M635.864,173.972s-3.375,15.548-14.546,18.3" transform="translate(-567.451 -160.149)" fill="none" stroke="#231815" stroke-miterlimit="10" stroke-width="0.25"/>
      <path id="Path_11450" data-name="Path 11450" d="M596.1,185.454s2.45,24.4,18.6,31.457" transform="translate(-566.137 -160.747)" fill="none" stroke="#231815" stroke-miterlimit="10" stroke-width="0.25"/>
      <path id="Path_11451" data-name="Path 11451" d="M642.786,192.745s-5.143,19.881-24.041,24.546" transform="translate(-567.317 -161.127)" fill="none" stroke="#231815" stroke-miterlimit="10" stroke-width="0.25"/>
      <path id="Path_11452" data-name="Path 11452" d="M585.939,211.2s5.847,27.152,27.323,31.816" transform="translate(-565.608 -162.088)" fill="none" stroke="#231815" stroke-miterlimit="10" stroke-width="0.25"/>
      <path id="Path_11453" data-name="Path 11453" d="M578.872,231.894s8.852,27.8,31.816,33.082" transform="translate(-565.239 -163.166)" fill="none" stroke="#231815" stroke-miterlimit="10" stroke-width="0.25"/>
      <ellipse id="Ellipse_1965" data-name="Ellipse 1965" cx="2.049" cy="1.403" rx="2.049" ry="1.403" transform="translate(73.561 23.529) rotate(-30)" fill="#dffffa" stroke="#231815" stroke-miterlimit="10" stroke-width="0.25"/>
      <path id="Path_11454" data-name="Path 11454" d="M592.1,337.316s-2.969,51.461-27.608,100.238l8.245-.152s31.253-93.613,28.9-119.786Z" transform="translate(-564.49 -167.633)" fill="#a5b63d" stroke="#231815" stroke-miterlimit="10" stroke-width="0.25"/>
    </g>
    <g id="Group_3462" data-name="Group 3462" transform="translate(509.593 235.677)">
      <path id="Path_11455" data-name="Path 11455" d="M553.389,452.664A12.82,12.82,0,0,1,548.3,459.2c-3.988,2.623-4.722,8.395-11.649,13.012s-14.464,9.8-17.07,12.559-3.947,4.184-5.211,7.579-5.763,5.526-4.579,7.184,5.29-.553,8.684-5.763,6.5-6.268,11.211-8.369,9.79-9.316,17.448-16.421,14.528-12.79,13.264-18.316Z" transform="translate(-509.593 -250.853)" fill="#ecb36f" stroke="#000" stroke-linejoin="round" stroke-width="0.25"/>
      <g id="Group_3461" data-name="Group 3461" transform="translate(12.225)">
        <path id="Path_11456" data-name="Path 11456" d="M573.522,365.818c-.175-.528-2.623-4.082-9.389-4.636s-7.432-3.549-10.427-10.094-18.08-8.762-23.4-16.3,4.992-16.417,1.553-30.283-9.983-17.526-9.318-31.723,3.227-20.475,9.872-26.733c10.188-9.592,22.517-6.433,31.281-1.109s12.046,11,16.194,17.969,5.879,8.431,8.985,10.316,26.276,44.083,14.308,67.352l-7.9,16.638a18.51,18.51,0,0,0-13.644,8.607Z" transform="translate(-522.489 -239.871)" fill="#518937" stroke="#000" stroke-linejoin="round" stroke-width="0.25"/>
        <ellipse id="Ellipse_1966" data-name="Ellipse 1966" cx="4.418" cy="2.13" rx="4.418" ry="2.13" transform="matrix(0.602, -0.799, 0.799, 0.602, 9.079, 27.077)" fill="#dffffa" stroke="#231815" stroke-miterlimit="10" stroke-width="0.25"/>
        <path id="Path_11457" data-name="Path 11457" d="M548.125,264.668c1.523-1.041,8.815,13.147,13.337,26.535s8.682,19.363,9.881,26.743,4.7,11,7.1,19.751,2.952,17.148,3.967,24.713-.462,22.047,0,27.951-2.965,20.938-6.046,31.6-12.44,26.184-19.667,21.919-4.978-13.033,1.361-22.038a103.976,103.976,0,0,0,15.581-34.359c2.962-12.677.592-26.776,1.54-35.9s-6.557-31.516-9.321-39.336-7.148-23.34-11.057-31.634S547.014,265.426,548.125,264.668Z" transform="translate(-523.815 -241.16)" fill="#a5b63d" stroke="#231815" stroke-miterlimit="10" stroke-width="0.25"/>
        <path id="Path_11458" data-name="Path 11458" d="M538.183,271.37s6.009,11.835,17.577,12.967" transform="translate(-523.307 -241.512)" fill="none" stroke="#000" stroke-linejoin="round" stroke-width="0.25"/>
        <path id="Path_11459" data-name="Path 11459" d="M561.552,260.246s4.182,15.766-2.352,23.049" transform="translate(-524.402 -240.932)" fill="none" stroke="#000" stroke-linejoin="round" stroke-width="0.25"/>
        <path id="Path_11460" data-name="Path 11460" d="M531.558,288.869s11.013,16.627,31.216,17.911" transform="translate(-522.962 -242.423)" fill="none" stroke="#000" stroke-linejoin="round" stroke-width="0.25"/>
        <path id="Path_11461" data-name="Path 11461" d="M572.415,266.87s4.4,25.241-4.852,37.5" transform="translate(-524.838 -241.277)" fill="none" stroke="#000" stroke-linejoin="round" stroke-width="0.25"/>
        <path id="Path_11462" data-name="Path 11462" d="M537.933,317.617s14.774,17.361,34.282,19.7" transform="translate(-523.294 -243.921)" fill="none" stroke="#000" stroke-linejoin="round" stroke-width="0.25"/>
        <path id="Path_11463" data-name="Path 11463" d="M549.432,342.809s11.642,13.211,25.608,16.762" transform="translate(-523.893 -245.234)" fill="none" stroke="#000" stroke-linejoin="round" stroke-width="0.25"/>
        <path id="Path_11464" data-name="Path 11464" d="M602.63,330.741c-2.251,20.379-19.077,29.251-19.077,29.251" transform="translate(-525.671 -244.605)" fill="none" stroke="#000" stroke-linejoin="round" stroke-width="0.25"/>
        <ellipse id="Ellipse_1967" data-name="Ellipse 1967" cx="2.391" cy="1.529" rx="2.391" ry="1.529" transform="translate(8.73 16.006) rotate(-60)" fill="#dffffa" stroke="#231815" stroke-miterlimit="10" stroke-width="0.25"/>
      </g>
      <path id="Path_11465" data-name="Path 11465" d="M544.949,455.829s.553,4.184,7.342,4.815" transform="translate(-511.435 -251.122)" fill="none" stroke="#000" stroke-linejoin="round" stroke-width="0.25"/>
      <path id="Path_11466" data-name="Path 11466" d="M534.7,470.528s3.553.948,9.711-2.289" transform="translate(-510.901 -251.769)" fill="none" stroke="#000" stroke-linejoin="round" stroke-width="0.25"/>
      <path id="Path_11467" data-name="Path 11467" d="M529.249,484.4c-3.553,3-.829,9.869-5.289,14.548" transform="translate(-510.341 -252.611)" fill="none" stroke="#000" stroke-linejoin="round" stroke-width="0.25"/>
      <path id="Path_11468" data-name="Path 11468" d="M522.269,485.9s-7.816.553-9.553,5.132" transform="translate(-509.756 -252.689)" fill="none" stroke="#000" stroke-linejoin="round" stroke-width="0.25"/>
    </g>
    <g id="Group_3463" data-name="Group 3463" transform="translate(526.169 207.293)">
      <path id="Path_11469" data-name="Path 11469" d="M559.186,453.258A30.38,30.38,0,0,1,549,465.994c-7.651,5.648-13.019,10.316-14.549,22.319s-7.532,22.007-5.3,23.184,6.237-11.651,8.826-18.123,3.648-9.062,11.533-15.887S565.4,463.836,564.7,452.774Z" transform="translate(-527.162 -222.578)" fill="#ecb36f" stroke="#000" stroke-linejoin="round" stroke-width="0.25"/>
      <path id="Path_11470" data-name="Path 11470" d="M596.195,359.218s-.5-8.187-12.221-12.5-11.9-14.077-7.634-20.113,8.7-15.09,3.2-26.808-.267-22.546,5.458-29.47,8.034-7.456,8.922-18.819,6.525-27.285,19.351-36.038c13.329-9.1,32.488-7.1,41.72,6.746s-.533,22.369,5.326,35.861,3.55,19.706,0,29.293,10.184,40.109-18.744,53.114-24.151,15.924-24.151,15.924-11.412-.265-16.455,4.512Z" transform="translate(-529.514 -209.926)" fill="#62a542" stroke="#000" stroke-linejoin="round" stroke-width="0.25"/>
      <path id="Path_11471" data-name="Path 11471" d="M629.149,228.179c1.291.646-.132,10.373-.788,18.119a194.121,194.121,0,0,1-3.939,27.31c-2.495,11.423-4.469,17.988-6.371,29.673s-7.809,27.7-10.435,37.551-9.979,28.229-13,34.268-12.211,26.785-16.15,34.925-5.383,17.725-6.039,22.715-4.858,12.079-9.191,10.5-6.04-7.484-3.283-16.149,9.979-13.918,14.7-25.6,12.868-24.29,16.806-34.268,7.353-16.413,11.029-25.341a258.021,258.021,0,0,0,9.06-27.966c1.575-6.04,5.509-19.826,6.5-27.835s3.876-16.412,5.583-25.6,3.02-15.887,3.413-21.795S627.835,227.523,629.149,228.179Z" transform="translate(-528.723 -210.874)" fill="#ddd658" stroke="#000" stroke-linejoin="round" stroke-width="0.25"/>
      <path id="Path_11472" data-name="Path 11472" d="M623,230.588s-1.495,14.1,6.149,18.062" transform="translate(-532.071 -211.002)" fill="none" stroke="#231815" stroke-miterlimit="10" stroke-width="0.25"/>
      <path id="Path_11473" data-name="Path 11473" d="M642.256,231.566c0,4.994-4.057,15.416-10.264,17.135" transform="translate(-532.546 -211.053)" fill="none" stroke="#231815" stroke-miterlimit="10" stroke-width="0.25"/>
      <ellipse id="Ellipse_1968" data-name="Ellipse 1968" cx="2.31" cy="1.043" rx="2.31" ry="1.043" transform="translate(88.293 7.89) rotate(-30)" fill="#dffffa" stroke="#231815" stroke-miterlimit="10" stroke-width="0.25"/>
      <ellipse id="Ellipse_1969" data-name="Ellipse 1969" cx="4.158" cy="2.772" rx="4.158" ry="2.772" transform="translate(76.786 18.662) rotate(-32.317)" fill="#dffffa" stroke="#231815" stroke-miterlimit="10" stroke-width="0.25"/>
      <path id="Path_11474" data-name="Path 11474" d="M607.73,240.116s-2.284,35.795,13.161,44.576" transform="translate(-531.276 -211.499)" fill="none" stroke="#231815" stroke-miterlimit="10" stroke-width="0.25"/>
      <path id="Path_11475" data-name="Path 11475" d="M594.326,272.222s2.727,25.6,20.948,37.031" transform="translate(-530.583 -213.171)" fill="none" stroke="#020202" stroke-miterlimit="10" stroke-width="0.25"/>
      <path id="Path_11476" data-name="Path 11476" d="M587.214,306.432s3.913,27.608,18.717,34.482" transform="translate(-530.213 -214.954)" fill="none" stroke="#020202" stroke-miterlimit="10" stroke-width="0.25"/>
      <path id="Path_11477" data-name="Path 11477" d="M652.317,248.259s-6.182,29.2-27.087,37.948" transform="translate(-532.194 -211.923)" fill="none" stroke="#020202" stroke-miterlimit="10" stroke-width="0.25"/>
      <path id="Path_11478" data-name="Path 11478" d="M656.912,275.822s-9.629,29.586-36.524,34.493" transform="translate(-531.941 -213.359)" fill="none" stroke="#020202" stroke-miterlimit="10" stroke-width="0.25"/>
      <path id="Path_11479" data-name="Path 11479" d="M552.347,471.08s2.977,1.92,7.682.576" transform="translate(-528.396 -223.532)" fill="none" stroke="#020202" stroke-miterlimit="10" stroke-width="0.25"/>
      <path id="Path_11480" data-name="Path 11480" d="M543.977,475.132s-4.321,2.591-8.545,2.208" transform="translate(-527.515 -223.743)" fill="none" stroke="#020202" stroke-miterlimit="10" stroke-width="0.25"/>
      <path id="Path_11481" data-name="Path 11481" d="M542.683,483.032c-.768,2.976,1.44,8.834-.768,11.906" transform="translate(-527.853 -224.155)" fill="none" stroke="#020202" stroke-miterlimit="10" stroke-width="0.25"/>
      <path id="Path_11482" data-name="Path 11482" d="M535.957,493.06s-9.6,6.337-8.834,12.673" transform="translate(-527.08 -224.677)" fill="none" stroke="#020202" stroke-miterlimit="10" stroke-width="0.25"/>
    </g>
    <path id="Path_11483" data-name="Path 11483" d="M522.627,406.756s5.2,5.7,14.3,2.811c10.509-3.338,13.2,1.1,16.131-.366" transform="translate(-0.679 -12.888)" fill="none" stroke="#020202" stroke-miterlimit="10" stroke-width="0.25"/>
    <path id="Path_11484" data-name="Path 11484" d="M557.987,409.02c3.2-1.231,5.385,1.109,7.444,0" transform="translate(-2.521 -12.987)" fill="none" stroke="#020202" stroke-miterlimit="10" stroke-width="0.25"/>
    <ellipse id="Ellipse_1970" data-name="Ellipse 1970" cx="4.21" cy="1.956" rx="4.21" ry="1.956" transform="translate(541.577 381.291)" fill="#ecb36f" stroke="#000" stroke-linejoin="round" stroke-width="0.25"/>
    <ellipse id="Ellipse_1971" data-name="Ellipse 1971" cx="2.806" cy="1.403" rx="2.806" ry="1.403" transform="translate(554.334 378.145)" fill="#ecb36f" stroke="#000" stroke-linejoin="round" stroke-width="0.25"/>
    <ellipse id="Ellipse_1972" data-name="Ellipse 1972" cx="3.595" cy="1.724" rx="3.595" ry="1.724" transform="translate(517.05 433.765)" fill="#ecb36f" stroke="#000" stroke-linejoin="round" stroke-width="0.25"/>
    <ellipse id="Ellipse_1973" data-name="Ellipse 1973" cx="2.798" cy="1.559" rx="2.798" ry="1.559" transform="translate(639.053 186.396) rotate(-30)" fill="#dffffa" stroke="#231815" stroke-miterlimit="10" stroke-width="0.25"/>
    <g id="Group_3464" data-name="Group 3464" transform="translate(529.602 270.893)">
      <path id="Path_11485" data-name="Path 11485" d="M563.392,457.691s-.713,5.694-7.684,12.691-10.059,12.557-11.5,18.2-1.112,10.7-6.505,17.426-9.211,14.937-5.559,16.265,3.734-11.286,8.049-15.352,3.754-7.937,6.856-13.3,8.744-10.595,11.068-16.238,5.809-5.964,9.626-10.824,3.983-8.865,3.983-8.865Z" transform="translate(-530.701 -286.435)" fill="#ecb36f" stroke="#000" stroke-linejoin="round" stroke-width="0.25"/>
      <path id="Path_11486" data-name="Path 11486" d="M618.205,368.672s-.733-6.326-9.283-10.23-7.347-15.032-.682-20.1,10.9-10.206,9.964-18.676,7.388-20.692,19.4-21.8,12.439-11.136,24.618-17.67,25.129-1.765,29.8,3.439,6.757,14.231,4.535,22.285-4.444,9.026-3.611,19.719-3.055,15.553-10.138,21.942-1.585,8.76-8.472,14.3c-8.936,7.195-9,15.359-21.547,16.035s-17.565-8.3-30.206-4.826Z" transform="translate(-534.462 -277.022)" fill="#518937" stroke="#000" stroke-linejoin="round" stroke-width="0.25"/>
      <path id="Path_11487" data-name="Path 11487" d="M676.616,296.565c2.278,1.035-4.771,11.616-11.014,18.693a190.933,190.933,0,0,0-12.023,15.257c-2.021,2.728-3.673,3.481-6.871,8.386A108.775,108.775,0,0,1,636.5,352.138c-4.547,5.254-8.689,13.236-12.125,17.076s-12.307,16.53-15.616,20.208S599.926,402.659,597.3,406.8s-16.874,31-18.894,37.832-6.77,8.344-10.61,6.93-5.153-6.973-.505-13.338,9.8-11.923,12.934-17.379a199.416,199.416,0,0,1,12.933-18.693c4.042-5.254,12.125-16.929,16.773-22.712s16.358-25.308,22.325-31.358,18.8-22.217,27.185-30S674.393,295.555,676.616,296.565Z" transform="translate(-532.453 -278.037)" fill="#ddd658" stroke="#000" stroke-linejoin="round" stroke-width="0.25"/>
      <path id="Path_11488" data-name="Path 11488" d="M675.229,290.6s-3.45,11.981-.765,15.489" transform="translate(-538.138 -277.729)" fill="none" stroke="#231815" stroke-miterlimit="10" stroke-width="0.25"/>
      <path id="Path_11489" data-name="Path 11489" d="M663.562,290.6s-7.5,17.35-3.3,31.258" transform="translate(-537.385 -277.729)" fill="none" stroke="#231815" stroke-miterlimit="10" stroke-width="0.25"/>
      <path id="Path_11490" data-name="Path 11490" d="M677.113,308.353a22.478,22.478,0,0,0,14.474-8.8" transform="translate(-538.329 -278.195)" fill="none" stroke="#231815" stroke-miterlimit="10" stroke-width="0.25"/>
      <path id="Path_11491" data-name="Path 11491" d="M691.858,313.327s-14.9,14.694-28.919,12.337" transform="translate(-537.591 -278.913)" fill="none" stroke="#231815" stroke-miterlimit="10" stroke-width="0.25"/>
      <path id="Path_11492" data-name="Path 11492" d="M685.009,333.343s-20.855,13.645-35.233,9.551" transform="translate(-536.905 -279.956)" fill="none" stroke="#231815" stroke-miterlimit="10" stroke-width="0.25"/>
      <path id="Path_11493" data-name="Path 11493" d="M643.879,302.963s-9.56,19.609,1.232,35.469" transform="translate(-536.395 -278.373)" fill="none" stroke="#231815" stroke-miterlimit="10" stroke-width="0.25"/>
      <path id="Path_11494" data-name="Path 11494" d="M678.152,351.784s-17.019,15.205-43.621,11" transform="translate(-536.111 -280.917)" fill="none" stroke="#231815" stroke-miterlimit="10" stroke-width="0.25"/>
      <path id="Path_11495" data-name="Path 11495" d="M627.735,314.9s-7.075,28,1.06,42.544" transform="translate(-535.608 -278.995)" fill="none" stroke="#231815" stroke-miterlimit="10" stroke-width="0.25"/>
      <ellipse id="Ellipse_1974" data-name="Ellipse 1974" cx="1.753" cy="1.339" rx="1.753" ry="1.339" transform="translate(147.158 8.005)" fill="#dffffa" stroke="#231815" stroke-miterlimit="10" stroke-width="0.25"/>
      <path id="Path_11496" data-name="Path 11496" d="M552.595,483.789s-4.108,8.979,0,13.711" transform="translate(-531.747 -287.794)" fill="none" stroke="#231815" stroke-miterlimit="10" stroke-width="0.25"/>
    </g>
    <g id="Group_3465" data-name="Group 3465" transform="translate(633.572 346.285)">
      <path id="Path_11497" data-name="Path 11497" d="M755.275,439.7a4.735,4.735,0,0,1,2.743-3.445c2.582-1.38,7.7-6.089,4.206-11.124s-5.521-4.141-8.851-12.5-11.612-16.565-19-11.937-5.6,14.616-.569,22.168.707,18.934,19.192,18.034Z" transform="translate(-645.026 -358.787)" fill="#62a542" stroke="#000" stroke-linejoin="round" stroke-width="0.25"/>
      <path id="Path_11498" data-name="Path 11498" d="M644.334,362.235c6.422-7.258,19.273-7.876,31.89,0s12.741,13.459,22.293,16.932,14.887,6.079,17.492,13.646.435,10.793,3.505,16.872-2.884,11.785,1.829,16.623l-1.829,4.341s-1.645-.868-7.6,3.97-13.273-.992-22.205-1.117-19.972,1.365-27.788-8.56-5.211-16-11.785-26.424S635.378,372.356,644.334,362.235Z" transform="translate(-640.387 -356.557)" fill="#518937" stroke="#000" stroke-linejoin="round" stroke-width="0.25"/>
      <path id="Path_11499" data-name="Path 11499" d="M656.247,372.127c1.642-.832,4.1,6.065,11.15,12.343s24.087,20.244,33.44,27.675,23.7,16.529,36.9,24.6,17.681,10.762,17.681,10.762-4.229-3.972-10.891-15.5-13.931-25.856-13.041-26.7,4.4,7.776,6.933,12.179,12.475,21.425,17.586,26.462,11.979,7.63,14.268,10.452,2.365,8.087-1.6,9.995-2.213-2.078-8.164-5.578-29.644-21.99-40.19-27.356-32.774-27.013-37.524-29.547-11.7-11.243-17.093-16.626S654.087,373.222,656.247,372.127Z" transform="translate(-641.19 -357.365)" fill="#ddd658" stroke="#000" stroke-linejoin="round" stroke-width="0.25"/>
      <path id="Path_11500" data-name="Path 11500" d="M648.114,379.2s8.845,5.346,14.838,4.076" transform="translate(-640.789 -357.737)" fill="none" stroke="#231815" stroke-miterlimit="10" stroke-width="0.25"/>
      <path id="Path_11501" data-name="Path 11501" d="M663.768,367.888s3.048,8.637,1.414,13.789" transform="translate(-641.605 -357.148)" fill="none" stroke="#231815" stroke-miterlimit="10" stroke-width="0.25"/>
      <path id="Path_11502" data-name="Path 11502" d="M652.763,393.474a45.619,45.619,0,0,0,25.776,6.481" transform="translate(-641.032 -358.481)" fill="none" stroke="#231815" stroke-miterlimit="10" stroke-width="0.25"/>
      <path id="Path_11503" data-name="Path 11503" d="M682.786,396.6s-.058-16.882-8.437-26.338" transform="translate(-642.156 -357.271)" fill="none" stroke="#231815" stroke-miterlimit="10" stroke-width="0.25"/>
      <path id="Path_11504" data-name="Path 11504" d="M662.9,412.61s16.565,8.137,33.236,2.013" transform="translate(-641.56 -359.478)" fill="none" stroke="#231815" stroke-miterlimit="10" stroke-width="0.25"/>
      <path id="Path_11505" data-name="Path 11505" d="M700.247,410.651s1.755-17.327-6.261-27.75" transform="translate(-643.179 -357.93)" fill="none" stroke="#231815" stroke-miterlimit="10" stroke-width="0.25"/>
      <path id="Path_11506" data-name="Path 11506" d="M708.047,392.734s10.094,14.435,8.05,29.567" transform="translate(-643.912 -358.442)" fill="none" stroke="#231815" stroke-miterlimit="10" stroke-width="0.25"/>
      <path id="Path_11507" data-name="Path 11507" d="M711.536,427.494a61.029,61.029,0,0,1-31.1,2.828" transform="translate(-642.473 -360.253)" fill="none" stroke="#231815" stroke-miterlimit="10" stroke-width="0.25"/>
      <ellipse id="Ellipse_1975" data-name="Ellipse 1975" cx="1.39" cy="1.085" rx="1.39" ry="1.085" transform="matrix(0.928, -0.373, 0.373, 0.928, 9.575, 6.721)" fill="#dffffa" stroke="#231815" stroke-miterlimit="10" stroke-width="0.25"/>
      <ellipse id="Ellipse_1976" data-name="Ellipse 1976" cx="3.168" cy="1.537" rx="3.168" ry="1.537" transform="matrix(0.928, -0.373, 0.373, 0.928, 15.521, 6.721)" fill="#dffffa" stroke="#231815" stroke-miterlimit="10" stroke-width="0.25"/>
      <path id="Path_11508" data-name="Path 11508" d="M732.932,411.217s2.183,5.446,6.328,5.606" transform="translate(-645.208 -359.405)" fill="none" stroke="#231815" stroke-miterlimit="10" stroke-width="0.25"/>
      <path id="Path_11509" data-name="Path 11509" d="M742.777,407.277s1.572,5.3-1.65,8.741" transform="translate(-645.635 -359.2)" fill="none" stroke="#231815" stroke-miterlimit="10" stroke-width="0.25"/>
      <path id="Path_11510" data-name="Path 11510" d="M734.3,421.024s5.941,7.712,10.441,6.638" transform="translate(-645.28 -359.916)" fill="none" stroke="#231815" stroke-miterlimit="10" stroke-width="0.25"/>
      <path id="Path_11511" data-name="Path 11511" d="M748.525,415.414s1.853,7.187-1.51,10.861" transform="translate(-645.942 -359.624)" fill="none" stroke="#231815" stroke-miterlimit="10" stroke-width="0.25"/>
      <path id="Path_11512" data-name="Path 11512" d="M741.127,433.147s4.9,6.647,10.217,6" transform="translate(-645.635 -360.548)" fill="none" stroke="#231815" stroke-miterlimit="10" stroke-width="0.25"/>
      <path id="Path_11513" data-name="Path 11513" d="M754.205,437.559s4.194-3.5,1.434-13.407" transform="translate(-646.317 -360.079)" fill="none" stroke="#231815" stroke-miterlimit="10" stroke-width="0.25"/>
      <path id="Path_11514" data-name="Path 11514" d="M760.893,451.654s2.626,1.829,4.767,3.281" transform="translate(-646.665 -361.512)" fill="none" stroke="#231815" stroke-miterlimit="10" stroke-width="0.25"/>
    </g>
    <g id="Group_3467" data-name="Group 3467" transform="translate(620.205 437.668)">
      <path id="Path_11515" data-name="Path 11515" d="M629.305,455.182c3.334-3.831,13.618-4.429,14.2,12.666,0,0-6.3,3.372-13.349-2.222C625.2,461.694,627.694,457.033,629.305,455.182Z" transform="translate(-626.334 -452.964)" fill="#ffb829" stroke="#000" stroke-linejoin="round" stroke-width="0.25"/>
      <path id="Path_11516" data-name="Path 11516" d="M643.459,468.592s1.1,8.047-6.8,10.7-12.4-2.547-9.475-7.735S640.943,466.53,643.459,468.592Z" transform="translate(-626.285 -453.708)" fill="#ffb829" stroke="#000" stroke-linejoin="round" stroke-width="0.25"/>
      <path id="Path_11517" data-name="Path 11517" d="M643.049,468.045s-1.249-5.726,1.267-10.558c2.911-5.59,12.791-4.469,11.605,3.476C654.584,469.926,643.049,468.045,643.049,468.045Z" transform="translate(-627.142 -453.018)" fill="#ffb829" stroke="#000" stroke-linejoin="round" stroke-width="0.25"/>
      <path id="Path_11518" data-name="Path 11518" d="M644.394,468.647a9.3,9.3,0,0,0,5.847,10.531c7.565,3.275,9.823-4.742,5.306-8.469C651.127,467.062,644.394,468.647,644.394,468.647Z" transform="translate(-627.219 -453.763)" fill="#ffb829" stroke="#000" stroke-linejoin="round" stroke-width="0.25"/>
      <g id="Group_3466" data-name="Group 3466" transform="translate(6.122 5.816)">
        <ellipse id="Ellipse_1977" data-name="Ellipse 1977" cx="3.97" cy="1.426" rx="3.97" ry="1.426" transform="translate(8.193 9.484) rotate(-33.011)" fill="#518937" stroke="#000" stroke-linejoin="round" stroke-width="0.25"/>
        <ellipse id="Ellipse_1978" data-name="Ellipse 1978" cx="5.381" cy="1.618" rx="5.381" ry="1.618" transform="matrix(0.306, -0.952, 0.952, 0.306, 7.865, 10.447)" fill="#518937" stroke="#000" stroke-linejoin="round" stroke-width="0.25"/>
        <ellipse id="Ellipse_1979" data-name="Ellipse 1979" cx="1.983" cy="5.003" rx="1.983" ry="5.003" transform="matrix(0.629, -0.777, 0.777, 0.629, 0, 5.926)" fill="#518937" stroke="#000" stroke-linejoin="round" stroke-width="0.25"/>
        <ellipse id="Ellipse_1980" data-name="Ellipse 1980" cx="1.739" cy="5.38" rx="1.739" ry="5.38" transform="translate(5.402 0.526) rotate(-8.692)" fill="#518937" stroke="#000" stroke-linejoin="round" stroke-width="0.25"/>
      </g>
    </g>
    <g id="Group_3468" data-name="Group 3468" transform="translate(663.508 468.027)">
      <path id="Path_11519" data-name="Path 11519" d="M672.263,511.1c-1.456-9.5,2.661-12.239,8.249-16.1s7.582-6.385,16.762-7.715,14.413-3.865,21.646-.949,11.876,7.342,16.195,10.041l1.728,2.807a12.208,12.208,0,0,1,.647,7.234c-.864,4.1.324,9.177-5.506,12.848s-11.876,5.182-21.054,3.023-11.984-2.592-21.269-.972S673.113,516.641,672.263,511.1Z" transform="translate(-671.968 -484.991)" fill="#62a542" stroke="#000" stroke-linejoin="round" stroke-width="0.25"/>
      <path id="Path_11520" data-name="Path 11520" d="M688.069,509.348c-.141-1.9,9-.711,17.135-2.211s16.9-3.237,21.242-6,10.5-5.764,11.608-3.948-1.585,3.632-6.991,6.238-16.195,6.056-21.594,6.712C703.321,510.885,688.226,511.48,688.069,509.348Z" transform="translate(-672.807 -485.598)" fill="#ddd658" stroke="#000" stroke-linejoin="round" stroke-width="0.25"/>
      <path id="Path_11521" data-name="Path 11521" d="M685.986,503.216s8.752.96,12.234,5.02" transform="translate(-672.698 -485.941)" fill="#63a04b" stroke="#000" stroke-linejoin="round" stroke-width="0.25"/>
      <path id="Path_11522" data-name="Path 11522" d="M690.818,516.049s6.378-1.314,8.687-4.475" transform="translate(-672.95 -486.376)" fill="#63a04b" stroke="#000" stroke-linejoin="round" stroke-width="0.25"/>
      <path id="Path_11523" data-name="Path 11523" d="M689.818,496.634s14.142-.218,23.456,8.933" transform="translate(-672.898 -485.598)" fill="#63a04b" stroke="#000" stroke-linejoin="round" stroke-width="0.25"/>
      <path id="Path_11524" data-name="Path 11524" d="M701.4,519.264s11.76-2.063,14.566-9.639" transform="translate(-673.501 -486.275)" fill="#63a04b" stroke="#000" stroke-linejoin="round" stroke-width="0.25"/>
      <path id="Path_11525" data-name="Path 11525" d="M704.73,491.886s15.04-.333,23.748,8.283" transform="translate(-673.674 -485.35)" fill="#63a04b" stroke="#000" stroke-linejoin="round" stroke-width="0.25"/>
      <path id="Path_11526" data-name="Path 11526" d="M718.642,521.126s13.877-3.579,12.664-16.674" transform="translate(-674.399 -486.005)" fill="#63a04b" stroke="#000" stroke-linejoin="round" stroke-width="0.25"/>
    </g>
    <ellipse id="Ellipse_1981" data-name="Ellipse 1981" cx="3.728" cy="1.892" rx="3.728" ry="1.892" transform="translate(749.358 480.011)" fill="#c19165" stroke="#000" stroke-linejoin="round" stroke-width="0.25"/>
    <ellipse id="Ellipse_1982" data-name="Ellipse 1982" cx="3.697" cy="1.983" rx="3.697" ry="1.983" transform="translate(708.193 434.444)" fill="#ecb36f" stroke="#000" stroke-linejoin="round" stroke-width="0.25"/>
    <ellipse id="Ellipse_1983" data-name="Ellipse 1983" cx="2.353" cy="1.68" rx="2.353" ry="1.68" transform="translate(719.283 445.266)" fill="#c19165" stroke="#000" stroke-linejoin="round" stroke-width="0.25"/>
    <path id="Path_11527" data-name="Path 11527" d="M691.242,465.295s4.7-3.293,9.477,0,8.913.343,13.644.874c3.63.407,9.418,3.764,13.985,3.025" transform="translate(-9.464 -15.862)" fill="none" stroke="#231815" stroke-miterlimit="10" stroke-width="0.25"/>
    <path id="Path_11528" data-name="Path 11528" d="M735.772,471.261s3.092.47,4.436,0" transform="translate(-11.784 -16.249)" fill="none" stroke="#231815" stroke-miterlimit="10" stroke-width="0.25"/>
    <path id="Path_11529" data-name="Path 11529" d="M677.413,456.451s2.793-.64,7.622.931,7.622,0,7.622,0" transform="translate(-8.743 -15.47)" fill="none" stroke="#231815" stroke-miterlimit="10" stroke-width="0.25"/>
    <ellipse id="Ellipse_1984" data-name="Ellipse 1984" cx="6.345" cy="3.074" rx="6.345" ry="3.074" transform="translate(587.815 463.969)" fill="#c19165" stroke="#000" stroke-linejoin="round" stroke-width="0.25"/>
    <ellipse id="Ellipse_1985" data-name="Ellipse 1985" cx="5.334" cy="3.257" rx="5.334" ry="3.257" transform="translate(649.693 501.563)" fill="#ecb36f" stroke="#000" stroke-linejoin="round" stroke-width="0.25"/>
    <ellipse id="Ellipse_1986" data-name="Ellipse 1986" cx="3.201" cy="1.965" rx="3.201" ry="1.965" transform="translate(640.26 508.525)" fill="#ecb36f" stroke="#000" stroke-linejoin="round" stroke-width="0.25"/>
    <path id="Path_11530" data-name="Path 11530" d="M615.767,533.125s4.844-2.322,12.607.863,13.005,2.389,17.418.929" transform="translate(-5.532 -19.429)" fill="none" stroke="#231815" stroke-miterlimit="10" stroke-width="0.25"/>
    <path id="Path_11531" data-name="Path 11531" d="M587.627,497.873s6.241-1.165,11.678,1.062c12.474,5.109,18.645-2.787,29.328,2.123" transform="translate(-4.066 -17.619)" fill="none" stroke="#231815" stroke-miterlimit="10" stroke-width="0.25"/>
    <g id="Group_3470" data-name="Group 3470" transform="translate(699.962 350.614)">
      <path id="Path_11532" data-name="Path 11532" d="M717.329,363.287c2.143-2.34,7.762-4.065,11.256,1.92s1.822,12.989,1.822,12.989-10.375.4-13.655-5.478C714.233,368.2,715.571,365.208,717.329,363.287Z" transform="translate(-710.683 -361.125)" fill="#ffb829" stroke="#000" stroke-linejoin="round" stroke-width="0.25"/>
      <path id="Path_11533" data-name="Path 11533" d="M711.471,390.176c-2.2-4.038-1.055-9.607,4.672-11.888s14.319,0,14.319,0,.9,8.044-4.145,12.717S713.732,394.321,711.471,390.176Z" transform="translate(-710.426 -361.966)" fill="#ffb829" stroke="#000" stroke-linejoin="round" stroke-width="0.25"/>
      <path id="Path_11534" data-name="Path 11534" d="M731.775,377.78s7.757-1.474,12.943,4.847c5.226,6.37-.8,16.16-8.727,10.884S731.775,377.78,731.775,377.78Z" transform="translate(-711.493 -361.985)" fill="#ffb829" stroke="#000" stroke-linejoin="round" stroke-width="0.25"/>
      <path id="Path_11535" data-name="Path 11535" d="M729.312,378.335s.64-9.61,5.7-12.726c5.591-3.445,14.627,1.525,9.77,9.3C741.95,379.435,729.312,378.335,729.312,378.335Z" transform="translate(-711.41 -361.3)" fill="#ffb829" stroke="#000" stroke-linejoin="round" stroke-width="0.25"/>
      <g id="Group_3469" data-name="Group 3469" transform="translate(15.392 8.265)">
        <ellipse id="Ellipse_1987" data-name="Ellipse 1987" cx="4.592" cy="1.629" rx="4.592" ry="1.629" transform="translate(2.345 8.658) rotate(-26.61)" fill="#ddd658" stroke="#000" stroke-linejoin="round" stroke-width="0.25"/>
        <ellipse id="Ellipse_1988" data-name="Ellipse 1988" cx="4.592" cy="1.392" rx="4.592" ry="1.392" transform="translate(2.27 9.419) rotate(-60)" fill="#ddd658" stroke="#000" stroke-linejoin="round" stroke-width="0.25"/>
        <ellipse id="Ellipse_1989" data-name="Ellipse 1989" cx="4.592" cy="1.392" rx="4.592" ry="1.392" transform="matrix(0.15, -0.989, 0.989, 0.15, 2.269, 9.676)" fill="#ddd658" stroke="#000" stroke-linejoin="round" stroke-width="0.25"/>
        <ellipse id="Ellipse_1990" data-name="Ellipse 1990" cx="1.545" cy="5.141" rx="1.545" ry="5.141" transform="matrix(0.981, -0.193, 0.193, 0.981, 0, 0.597)" fill="#ddd658" stroke="#000" stroke-linejoin="round" stroke-width="0.25"/>
      </g>
    </g>
    <g id="Group_3476" data-name="Group 3476" transform="translate(716.554 331.164)">
      <path id="Path_11536" data-name="Path 11536" d="M732.107,342.115c3.529-3.122,14.044-2.461,12.635,12.352,0,0-3.372,1.543-4.387,2.239C735.471,360.055,723.489,349.743,732.107,342.115Z" transform="translate(-727.989 -340.606)" fill="#ffb829" stroke="#000" stroke-linejoin="round" stroke-width="0.25"/>
      <path id="Path_11537" data-name="Path 11537" d="M745.7,355.628a12.268,12.268,0,0,1,1.281-10.619c3.445-5.092,12.2-5.916,12.5,2.085s-11,9.892-11,9.892Z" transform="translate(-728.821 -340.633)" fill="#ffb829" stroke="#000" stroke-linejoin="round" stroke-width="0.25"/>
      <path id="Path_11538" data-name="Path 11538" d="M742.875,359.714s-7.429-5.13-12.615,0c-4.917,4.865-1.55,12.108,5.4,12.18S742.875,359.714,742.875,359.714Z" transform="translate(-727.93 -341.483)" fill="#ffb829" stroke="#000" stroke-linejoin="round" stroke-width="0.25"/>
      <path id="Path_11539" data-name="Path 11539" d="M748.129,356.651s10.215-7.144,14.4-1.54-4.134,12.1-13.916,10.476S748.129,356.651,748.129,356.651Z" transform="translate(-728.774 -341.25)" fill="#ffb829" stroke="#000" stroke-linejoin="round" stroke-width="0.25"/>
      <g id="Group_3471" data-name="Group 3471" transform="translate(17.827 8.36)">
        <ellipse id="Ellipse_1991" data-name="Ellipse 1991" cx="2.999" cy="6.435" rx="2.999" ry="6.435" fill="#62a542" stroke="#000" stroke-linejoin="round" stroke-width="0.25"/>
        <path id="Path_11540" data-name="Path 11540" d="M749.305,352.834a8.336,8.336,0,0,0,.216,3.2" transform="translate(-746.866 -349.603)" fill="none" stroke="#000" stroke-linejoin="round" stroke-width="0.25"/>
        <path id="Path_11541" data-name="Path 11541" d="M751.031,353.008a9.5,9.5,0,0,1,0,2.105" transform="translate(-746.96 -349.612)" fill="none" stroke="#000" stroke-linejoin="round" stroke-width="0.25"/>
      </g>
      <g id="Group_3472" data-name="Group 3472" transform="translate(10.382 8.421)">
        <ellipse id="Ellipse_1992" data-name="Ellipse 1992" cx="3.47" cy="8.759" rx="3.47" ry="8.759" transform="translate(0 0.946) rotate(-7.834)" fill="#ddd658" stroke="#000" stroke-linejoin="round" stroke-width="0.25"/>
        <path id="Path_11542" data-name="Path 11542" d="M743.082,354.237a28.738,28.738,0,0,1,1.165,7.434" transform="translate(-739.101 -349.737)" fill="none" stroke="#000" stroke-linejoin="round" stroke-width="0.25"/>
        <path id="Path_11543" data-name="Path 11543" d="M741.647,356.854a10.75,10.75,0,0,1,.922,4.048" transform="translate(-739.026 -349.874)" fill="none" stroke="#000" stroke-linejoin="round" stroke-width="0.25"/>
      </g>
      <g id="Group_3473" data-name="Group 3473" transform="translate(29.258 13.836)">
        <ellipse id="Ellipse_1993" data-name="Ellipse 1993" cx="7.539" cy="3.678" rx="7.539" ry="3.678" transform="translate(0 7.539) rotate(-30)" fill="#ffb829" stroke="#000" stroke-linejoin="round" stroke-width="0.25"/>
        <path id="Path_11544" data-name="Path 11544" d="M765.908,362.4a8.2,8.2,0,0,0,4.56-2.581" transform="translate(-759.167 -355.443)" fill="#ffb829" stroke="#000" stroke-linejoin="round" stroke-width="0.25"/>
      </g>
      <g id="Group_3474" data-name="Group 3474" transform="translate(23.454 14.279)">
        <ellipse id="Ellipse_1994" data-name="Ellipse 1994" cx="8.385" cy="3.537" rx="8.385" ry="3.537" transform="matrix(0.246, -0.969, 0.969, 0.246, 0, 16.254)" fill="#62a542" stroke="#000" stroke-linejoin="round" stroke-width="0.25"/>
        <path id="Path_11545" data-name="Path 11545" d="M758.862,360.222a7.541,7.541,0,0,0-.977,4.052" transform="translate(-752.943 -355.907)" fill="none" stroke="#000" stroke-linejoin="round" stroke-width="0.25"/>
        <path id="Path_11546" data-name="Path 11546" d="M760.67,361.124a7.116,7.116,0,0,1-.826,2.606" transform="translate(-753.046 -355.954)" fill="none" stroke="#000" stroke-linejoin="round" stroke-width="0.25"/>
      </g>
      <g id="Group_3475" data-name="Group 3475" transform="translate(14.448 13.651)">
        <ellipse id="Ellipse_1995" data-name="Ellipse 1995" cx="10.668" cy="4.522" rx="10.668" ry="4.522" transform="matrix(0.246, -0.969, 0.969, 0.246, 0, 20.679)" fill="#ddd658" stroke="#000" stroke-linejoin="round" stroke-width="0.25"/>
        <path id="Path_11547" data-name="Path 11547" d="M750.946,361.875s.194,5.391-1.409,8.062" transform="translate(-743.503 -355.365)" fill="none" stroke="#000" stroke-linejoin="round" stroke-width="0.25"/>
        <path id="Path_11548" data-name="Path 11548" d="M753.17,363.873s-.048,3.4-1.02,4.565" transform="translate(-743.64 -355.469)" fill="none" stroke="#000" stroke-linejoin="round" stroke-width="0.25"/>
      </g>
    </g>
    <g id="Group_3478" data-name="Group 3478" transform="translate(732.698 354.766)">
      <path id="Path_11549" data-name="Path 11549" d="M745.027,377.35c.671-3.616,7.98-4.342,14.867,1.627s.787,5.165-.407,5.657C755.885,386.119,743.966,383.061,745.027,377.35Z" transform="translate(-744.961 -365.977)" fill="#ffb829" stroke="#000" stroke-linejoin="round" stroke-width="0.25"/>
      <path id="Path_11550" data-name="Path 11550" d="M767.667,382.263s-8.991-2.248-15.183,1.612-2.689,10.9,4.94,10.741a15.744,15.744,0,0,0,14.042-9.093Z" transform="translate(-745.187 -366.344)" fill="#ffb829" stroke="#000" stroke-linejoin="round" stroke-width="0.25"/>
      <path id="Path_11551" data-name="Path 11551" d="M772.569,383.967s6.642-2.964,10.785,4.24-.079,13.737-7.114,10.314S769.445,386.2,772.569,383.967Z" transform="translate(-746.29 -366.435)" fill="#ffb829" stroke="#000" stroke-linejoin="round" stroke-width="0.25"/>
      <path id="Path_11552" data-name="Path 11552" d="M765.861,381.425s-7.765.53-9.615-5.495,2.44-12.42,9.615-9.835c6.74,2.429,4.94,15.343,4.94,15.343Z" transform="translate(-745.526 -365.505)" fill="#ffb829" stroke="#000" stroke-linejoin="round" stroke-width="0.25"/>
      <path id="Path_11553" data-name="Path 11553" d="M770.945,378.354a11.712,11.712,0,0,1,5.472-8.016,5.883,5.883,0,0,1,8.594,6.531c-1.232,4.844-6.3,6.9-10.626,6.379S770.945,378.354,770.945,378.354Z" transform="translate(-746.311 -365.717)" fill="#ffb829" stroke="#000" stroke-linejoin="round" stroke-width="0.25"/>
      <g id="Group_3477" data-name="Group 3477" transform="translate(19.384 8.661)">
        <ellipse id="Ellipse_1996" data-name="Ellipse 1996" cx="5.304" cy="1.433" rx="5.304" ry="1.433" transform="translate(2.874 9.798) rotate(-61.995)" fill="#62a542" stroke="#000" stroke-linejoin="round" stroke-width="0.25"/>
        <ellipse id="Ellipse_1997" data-name="Ellipse 1997" cx="4.356" cy="1.751" rx="4.356" ry="1.751" transform="translate(3.5 9.421) rotate(-40.229)" fill="#62a542" stroke="#000" stroke-linejoin="round" stroke-width="0.25"/>
        <ellipse id="Ellipse_1998" data-name="Ellipse 1998" cx="5.304" cy="1.433" rx="5.304" ry="1.433" transform="translate(3.047 10.6) rotate(-87.881)" fill="#62a542" stroke="#000" stroke-linejoin="round" stroke-width="0.25"/>
        <ellipse id="Ellipse_1999" data-name="Ellipse 1999" cx="1.433" cy="5.304" rx="1.433" ry="5.304" transform="translate(0 1.279) rotate(-17.727)" fill="#62a542" stroke="#000" stroke-linejoin="round" stroke-width="0.25"/>
      </g>
    </g>
    <g id="Group_3479" data-name="Group 3479" transform="translate(748.98 332.402)">
      <path id="Path_11554" data-name="Path 11554" d="M779.5,357.264a10.259,10.259,0,0,0,9.152,7.642c7.541.574,9.763-8.881.676-10.681A10.816,10.816,0,0,0,779.5,357.264Z" transform="translate(-763.043 -342.542)" fill="#ffb829" stroke="#000" stroke-linejoin="round" stroke-width="0.25"/>
      <path id="Path_11555" data-name="Path 11555" d="M778.924,355.688a10.278,10.278,0,0,0-5.252,11.127c1.508,7.8,11.664,6.968,13.4,1.353S783.761,356.519,778.924,355.688Z" transform="translate(-762.728 -342.629)" fill="#ffb829" stroke="#000" stroke-linejoin="round" stroke-width="0.25"/>
      <path id="Path_11556" data-name="Path 11556" d="M778.42,356.634s-5.824-2.288-5.668-8.424,8.527-8.476,12.094-3.9C788.514,349.015,786.014,354.385,778.42,356.634Z" transform="translate(-762.691 -341.911)" fill="#ffb829" stroke="#000" stroke-linejoin="round" stroke-width="0.25"/>
      <path id="Path_11557" data-name="Path 11557" d="M762.474,351.356c1.273-3.484,10.244-6.182,16.848,6.009a10.83,10.83,0,0,1-7.748,2.676C766.895,359.729,760.609,356.463,762.474,351.356Z" transform="translate(-762.138 -342.25)" fill="#ffb829" stroke="#000" stroke-linejoin="round" stroke-width="0.25"/>
      <ellipse id="Ellipse_2000" data-name="Ellipse 2000" cx="4.252" cy="1.397" rx="4.252" ry="1.397" transform="translate(14.932 13.312) rotate(-11.827)" fill="#ddd658" stroke="#000" stroke-linejoin="round" stroke-width="0.25"/>
      <ellipse id="Ellipse_2001" data-name="Ellipse 2001" cx="4.252" cy="1.397" rx="4.252" ry="1.397" transform="translate(15.029 13.793) rotate(-41.961)" fill="#ddd658" stroke="#000" stroke-linejoin="round" stroke-width="0.25"/>
      <ellipse id="Ellipse_2002" data-name="Ellipse 2002" cx="4.252" cy="1.397" rx="4.252" ry="1.397" transform="translate(13.849 14.102) rotate(-60)" fill="#ddd658" stroke="#000" stroke-linejoin="round" stroke-width="0.25"/>
      <ellipse id="Ellipse_2003" data-name="Ellipse 2003" cx="1.397" cy="4.252" rx="1.397" ry="4.252" transform="matrix(0.246, -0.969, 0.969, 0.246, 14.66, 15.952)" fill="#ddd658" stroke="#000" stroke-linejoin="round" stroke-width="0.25"/>
    </g>
    <path id="Path_11558" data-name="Path 11558" d="M527.564,442.289a3.588,3.588,0,0,1,3.78-.206,3.309,3.309,0,0,0,3.74-.445" transform="translate(-0.936 -14.705)" fill="none" stroke="#231815" stroke-miterlimit="10" stroke-width="0.25"/>
    <path id="Path_11559" data-name="Path 11559" d="M538.792,442.082a8.159,8.159,0,0,1,3.616.422" transform="translate(-1.521 -14.726)" fill="none" stroke="#231815" stroke-miterlimit="10" stroke-width="0.25"/>
    <path id="Path_11560" data-name="Path 11560" d="M607.379,439.837s4.439-4.954,14.669-1.737,12.314-4.053,25.489,2.059" transform="translate(-5.095 -14.465)" fill="none" stroke="#231815" stroke-miterlimit="10" stroke-width="0.25"/>
    <path id="Path_11561" data-name="Path 11561" d="M655.431,441.48s2.842-.579,7.083,1.222" transform="translate(-7.598 -14.693)" fill="none" stroke="#231815" stroke-miterlimit="10" stroke-width="0.25"/>
    <ellipse id="Ellipse_2004" data-name="Ellipse 2004" cx="3.198" cy="1.734" rx="3.198" ry="1.734" transform="translate(625.604 406.147)" fill="#c19165" stroke="#000" stroke-linejoin="round" stroke-width="0.25"/>
    <path id="Path_11562" data-name="Path 11562" d="M627.864,399.877a8.369,8.369,0,0,1,8.346.436c6.45,3.8,8.672-1.375,13.913,1.466" transform="translate(-6.162 -12.483)" fill="none" stroke="#231815" stroke-miterlimit="10" stroke-width="0.25"/>
    <path id="Path_11563" data-name="Path 11563" d="M637.053,504.641a10.156,10.156,0,0,1,5.123,0" transform="translate(-6.641 -17.97)" fill="none" stroke="#231815" stroke-miterlimit="10" stroke-width="0.25"/>
    <ellipse id="Ellipse_2005" data-name="Ellipse 2005" cx="4.795" cy="2.944" rx="4.795" ry="2.944" transform="translate(750.184 396.187)" fill="#c19165" stroke="#000" stroke-linejoin="round" stroke-width="0.25"/>
    <ellipse id="Ellipse_2006" data-name="Ellipse 2006" cx="1.872" cy="2.202" rx="1.872" ry="2.202" transform="translate(764.784 395.134) rotate(-77.919)" fill="#c19165" stroke="#000" stroke-linejoin="round" stroke-width="0.25"/>
  </g>
</svg>
