<svg xmlns="http://www.w3.org/2000/svg" width="304.28" height="355.673" viewBox="0 0 304.28 355.673">
  <g id="Group_3433" data-name="Group 3433" transform="translate(-882.313 -177.942)">
    <path id="Path_11307" data-name="Path 11307" d="M1141.961,456.543s9.732-.834,13.2,5.653c2.5,4.669,7.281,6.91,9-.879a45.059,45.059,0,0,1,9.193-18.726S1146.6,450.6,1141.961,456.543Z" transform="translate(6.515 6.64)" fill="#dffffa" stroke="#231815" stroke-miterlimit="10" stroke-width="0.25"/>
    <circle id="Ellipse_1933" data-name="Ellipse 1933" cx="2.239" cy="2.239" r="2.239" transform="translate(1165.283 479.032)" fill="#dffffa" stroke="#231815" stroke-miterlimit="10" stroke-width="0.25"/>
    <path id="Path_11308" data-name="Path 11308" d="M890.857,429.5s4.789,2.3,11.938-1.915,8.427,2.286,16.98,1.271" transform="translate(0.212 6.227)" fill="none" stroke="#000" stroke-miterlimit="10" stroke-width="0.25"/>
    <g id="Group_3445" data-name="Group 3445" transform="translate(882.438 178.094)">
      <path id="Path_11309" data-name="Path 11309" d="M1024.03,191.964s2.584.331,8.546-.723a17.384,17.384,0,0,1,10.532,1.458" transform="translate(-878.883 -177.77)" fill="none" stroke="#000" stroke-miterlimit="10" stroke-width="0.25"/>
      <g id="Group_3435" data-name="Group 3435">
        <g id="Group_3431" data-name="Group 3431" transform="translate(68.769 9.106)">
          <path id="Path_11310" data-name="Path 11310" d="M956.967,216.811,982.156,192.8l39.134-5.823,25.011,22.151,22.875,32.351,17.808,50.43,4.834,16.667L993,313.315s-43.758-26.421-43.476-26.555S956.967,216.811,956.967,216.811Z" transform="translate(-949.523 -186.977)" fill="#a5b63d" stroke="#231815" stroke-miterlimit="10" stroke-width="0.25"/>
          <path id="Path_11311" data-name="Path 11311" d="M983.042,206.989a20.711,20.711,0,0,1,12.215,6.763c5.442,6.09,5.183,6.195,10.624,10.871s11.014,20.225,14.642,37.2,3.369,28.122.518,38.1l19.694,3.625a91.941,91.941,0,0,0-2.2-33.792c-4.122-16.419-8.81-29.437-19.176-42.912s-20.6-25.913-35.5-25.136Z" transform="translate(-948.681 -186.608)" fill="#ddd658" stroke="#000" stroke-linejoin="round" stroke-width="0.25"/>
          <path id="Path_11312" data-name="Path 11312" d="M979.877,229.948c9.964,9.838,27.542-.436,35.905,13.089" transform="translate(-948.761 -185.898)" fill="none" stroke="#231815" stroke-miterlimit="10" stroke-width="0.25"/>
          <path id="Path_11313" data-name="Path 11313" d="M972.249,243.728c16.648,17.405,41.62,2.523,51.221,37.839" transform="translate(-948.952 -185.552)" fill="none" stroke="#231815" stroke-miterlimit="10" stroke-width="0.25"/>
          <path id="Path_11314" data-name="Path 11314" d="M973.725,261.568c7.441,11.225,42.212,11.351,48.417,33.4" transform="translate(-948.915 -185.104)" fill="none" stroke="#231815" stroke-miterlimit="10" stroke-width="0.25"/>
          <path id="Path_11315" data-name="Path 11315" d="M1008.076,200.824c4.9,7,.612,11.891,3.513,17.114" transform="translate(-948.053 -186.629)" fill="none" stroke="#231815" stroke-miterlimit="10" stroke-width="0.25"/>
          <path id="Path_11316" data-name="Path 11316" d="M1026.585,208.586c6.921,17.688,1.591,28.443,6.028,44.639" transform="translate(-947.588 -186.434)" fill="none" stroke="#231815" stroke-miterlimit="10" stroke-width="0.25"/>
          <path id="Path_11317" data-name="Path 11317" d="M1050.22,234.869c.9,17.7-11.346,20.835-12.32,37.262" transform="translate(-947.304 -185.775)" fill="none" stroke="#231815" stroke-miterlimit="10" stroke-width="0.25"/>
          <path id="Path_11318" data-name="Path 11318" d="M1039.63,283.78c8.668-15.622,19.185-15.914,23.508-33.006" transform="translate(-947.26 -185.375)" fill="none" stroke="#231815" stroke-miterlimit="10" stroke-width="0.25"/>
        </g>
        <g id="Group_3434" data-name="Group 3434">
          <g id="Group_3432" data-name="Group 3432" transform="translate(0 11.123)">
            <path id="Path_11319" data-name="Path 11319" d="M885.263,251.909s4.543,6.748,3.967,13.454c-.527,6.126-1.668,11.911,2.2,11.947,3.636.033,3.325-5.561,2.306-9.117-.9-3.148-.209-5.651,1.546-6.415C895.281,261.778,897.254,251.531,885.263,251.909Z" transform="translate(-882.367 -187.364)" fill="#dffffa" stroke="#231815" stroke-miterlimit="10" stroke-width="0.25"/>
            <path id="Path_11320" data-name="Path 11320" d="M918.261,302.756s-1.894.42-5.583-2.52-8.076-.547-10.768-7.726.7-15.353-2.99-24.225-16.634-9.3-16.482-26.762,24.2-13.939,30.484-30.79,19.148-17.157,31.556-18.229,29.079-7.442,42.591,0c0,0,6.343,15.1-7.127,29.3-11.834,12.473-18.116,15.684-21.693,24.055-5.828,13.641.9,16.879-.61,22.539-1.227,4.6-4.934,7.468,1.531,13.668,0,0-14,14.172-14.921,14.725S918.261,302.756,918.261,302.756Z" transform="translate(-882.438 -188.944)" fill="#cad226" stroke="#231815" stroke-miterlimit="10" stroke-width="0.25"/>
            <path id="Path_11321" data-name="Path 11321" d="M936.029,212.646c2.091,3.021-7.288,5.168-11.263,15.5s-6.625,18.948-3.71,41.34,7.137,24.293,12.512,26.721l-10.392,5.078s-8.82-2.653-11.925-16.563c-3.312-14.84.53-21.068,1.988-37.233s3.433-18.153,9.667-26.368S934.837,210.924,936.029,212.646Z" transform="translate(-881.747 -188.363)" fill="#a5b63d" stroke="#231815" stroke-miterlimit="10" stroke-width="0.25"/>
            <ellipse id="Ellipse_1934" data-name="Ellipse 1934" cx="3.396" cy="2.805" rx="3.396" ry="2.805" transform="translate(47.79 10.119)" fill="#dffffa" stroke="#231815" stroke-miterlimit="10" stroke-width="0.25"/>
            <path id="Path_11322" data-name="Path 11322" d="M894.314,252.286s12.616-.8,17.7,6.1" transform="translate(-882.14 -187.355)" fill="none" stroke="#231815" stroke-miterlimit="10" stroke-width="0.25"/>
            <path id="Path_11323" data-name="Path 11323" d="M893,234.526s13.752,2.773,20.588,13.188" transform="translate(-882.172 -187.8)" fill="none" stroke="#231815" stroke-miterlimit="10" stroke-width="0.25"/>
            <path id="Path_11324" data-name="Path 11324" d="M903.413,273.106s4.544,1.2,8.37,11.586" transform="translate(-881.911 -186.831)" fill="none" stroke="#231815" stroke-miterlimit="10" stroke-width="0.25"/>
            <path id="Path_11325" data-name="Path 11325" d="M920.784,269.188c1.294-26.96,26.493-20.074,36.9-45.127" transform="translate(-881.475 -188.062)" fill="none" stroke="#231815" stroke-miterlimit="10" stroke-width="0.25"/>
            <path id="Path_11326" data-name="Path 11326" d="M928.4,292.461c0-20.584,17.365-23.952,20.881-41.389" transform="translate(-881.284 -187.384)" fill="none" stroke="#231815" stroke-miterlimit="10" stroke-width="0.25"/>
            <path id="Path_11327" data-name="Path 11327" d="M912.592,263.72a4.137,4.137,0,0,1,3.681,2.237" transform="translate(-881.681 -187.067)" fill="none" stroke="#231815" stroke-miterlimit="10" stroke-width="0.25"/>
            <path id="Path_11328" data-name="Path 11328" d="M917.408,216.08s2.7,2.26,3.461,7.381" transform="translate(-881.56 -188.263)" fill="none" stroke="#231815" stroke-miterlimit="10" stroke-width="0.25"/>
            <path id="Path_11329" data-name="Path 11329" d="M952.461,218.552c-8.615,10.625-25.509,7.77-31.677,21.25" transform="translate(-881.475 -188.201)" fill="none" stroke="#231815" stroke-miterlimit="10" stroke-width="0.25"/>
          </g>
          <g id="Group_3433-2" data-name="Group 3433" transform="translate(62.579)">
            <path id="Path_11330" data-name="Path 11330" d="M944.878,218.573a42.611,42.611,0,0,0-.937-8.258c-1.012-5.218-.782-13.883,5.3-20.559,8.042-8.832,19.865-12.371,30.821-11.546s14.608,5.065,33.222,2.474,22.148,9.9,35.225,13.548,19.909,13.077,27.1,20.145,16.376,11.192,21.089,27.331,9.551,37.429-2.812,65.907c0,0-8.012-4.487-13.964-16.849s-8.47-16.254-10.074-22.435.294-11.257-4.287-15.732-4.689-3.516-6.927-10.443-5.222-3.836-11.722-9.164-10.656-6.5-9.59-14.172.532-13.64-3.943-17.476-6.027-6.324-7.317-9.056a17.216,17.216,0,0,0-6.247,1.2c-11.285,4.293-13.6,2.888-23.273,6.232-7.354,2.541-12.62,4.23-19.579,8.424-9,5.421-17.3,3.111-22.462,5.085S947.719,217.415,944.878,218.573Z" transform="translate(-943.484 -178.094)" fill="#ddd658" stroke="#000" stroke-linejoin="round" stroke-width="0.25"/>
            <path id="Path_11331" data-name="Path 11331" d="M952.911,203.185s6.19-2.849,12.576-11.049c5.989-7.689,15.074-12.583,21.307-12.9" transform="translate(-943.247 -178.065)" fill="none" stroke="#231815" stroke-miterlimit="10" stroke-width="0.25"/>
            <path id="Path_11332" data-name="Path 11332" d="M979.938,195.763s6.19-1.179,13.951-7.466,10.809-6.944,10.809-6.944" transform="translate(-942.569 -178.012)" fill="none" stroke="#231815" stroke-miterlimit="10" stroke-width="0.25"/>
            <path id="Path_11333" data-name="Path 11333" d="M1009.361,187.115a22.093,22.093,0,0,1,15.037-5.623" transform="translate(-941.83 -178.008)" fill="none" stroke="#231815" stroke-miterlimit="10" stroke-width="0.25"/>
            <ellipse id="Ellipse_1935" data-name="Ellipse 1935" cx="2.262" cy="3.202" rx="2.262" ry="3.202" transform="matrix(0.037, -0.999, 0.999, 0.037, 101.633, 25.733)" fill="#dffffa" stroke="#231815" stroke-miterlimit="10" stroke-width="0.25"/>
            <ellipse id="Ellipse_1936" data-name="Ellipse 1936" cx="2.73" cy="5.224" rx="2.73" ry="5.224" transform="translate(111.069 34.175) rotate(-76.601)" fill="#dffffa" stroke="#231815" stroke-miterlimit="10" stroke-width="0.25"/>
            <path id="Path_11334" data-name="Path 11334" d="M1051.59,217.012c9.923,10.824,29.767,6.426,42.715,24.865" transform="translate(-940.77 -177.117)" fill="none" stroke="#231815" stroke-miterlimit="10" stroke-width="0.25"/>
            <path id="Path_11335" data-name="Path 11335" d="M1064.9,233.731c7.025,9.3,28.076,8.343,33.495,30.226" transform="translate(-940.436 -176.697)" fill="none" stroke="#231815" stroke-miterlimit="10" stroke-width="0.25"/>
          </g>
        </g>
      </g>
      <g id="Group_3444" data-name="Group 3444" transform="translate(180.182 25.44)">
        <g id="Group_3436" data-name="Group 3436" transform="translate(23.066)">
          <path id="Path_11336" data-name="Path 11336" d="M1109.752,228.381l-1.6-6.64c.062-9.9-4.464-14.769-6.526-14.139s-2.632,3.378-1.03,8.243a12.75,12.75,0,0,0,5.152,6.869s2.837,7.028,2.793,7.223Z" transform="translate(-1080.232 -202.795)" fill="#fbc6a6" stroke="#000" stroke-linejoin="round" stroke-width="0.25"/>
          <path id="Path_11337" data-name="Path 11337" d="M1116.458,220.436l4.453-1.853a7.7,7.7,0,0,1,5.095-4.329c5.08-1.545,7.521,3.252,2.8,5.719a9.762,9.762,0,0,1-7.384.807l-5.724,1.774Z" transform="translate(-1079.829 -202.634)" fill="#fbc6a6" stroke="#000" stroke-linejoin="round" stroke-width="0.25"/>
          <path id="Path_11338" data-name="Path 11338" d="M1088.526,316.1l6.542-31.665s-6.172-12.237-14.361-15.04l7.964-4.941s1.653,11.7,7.845,16.3c0,0,5.713-26.86,10.375-45.162,0,0-2.116-3.973-4.99-5.608-3.332-1.9-6.64-1.871-8.571-6.52s3.211-7.539,7-2.172c2.873,4.067,1.424,6.649,7.726,11.589a25.584,25.584,0,0,0,1.69-8.088c.422-5.373,2.475-8.391,5.191-10.322s7.364.422,4.769,4.828-7.375,7.224-10.031,14.649c0,0,6.831-4.085,13.23-4.99a10.066,10.066,0,0,1,5.433-3.924c3.44-.845,6.157.785,6.036,3.2s-3.5,4.769-10.925,3.2a15.311,15.311,0,0,0-10.322,4.587s-5.263,13.3-8.74,25.887-5.7,29.569-5.7,29.569a32.558,32.558,0,0,0,5.1-2.046,9.68,9.68,0,0,1,6.95-3.963c4.041-.434,6.749,1.646,6.52,4.432-.24,2.915-7.121,5.615-13.205,2.264a9.413,9.413,0,0,0-5.8,2.734s-2.788,13-3.726,19.475Z" transform="translate(-1080.708 -202.638)" fill="#ea6157" stroke="#000" stroke-linejoin="round" stroke-width="0.25"/>
          <path id="Path_11339" data-name="Path 11339" d="M1107.313,239.994l1.6-4.308a6.894,6.894,0,0,1,.923-6.481c2.344-3.6,6.851-3.51,6.832,0s-3.693,6.3-5.417,7.1l-2.462,4.186" transform="translate(-1080.04 -202.318)" fill="#ea6157" stroke="#000" stroke-linejoin="round" stroke-width="0.25"/>
          <path id="Path_11340" data-name="Path 11340" d="M1112.541,218.53a33.071,33.071,0,0,0-.6-3.542c-.085-.172-1.974-.973-2.432-4.98s.726-7.09,3.033-7.1c2.461-.009,4.733,6.329,1.679,11.837l-.248,3.5" transform="translate(-1079.988 -202.911)" fill="#ea6157" stroke="#000" stroke-linejoin="round" stroke-width="0.25"/>
        </g>
        <g id="Group_3438" data-name="Group 3438" transform="translate(40.003 43.535)">
          <path id="Path_11341" data-name="Path 11341" d="M1115.035,259.215s1.8,10.11,8.74,13.126,8.989-5.189,5.309-9.835C1125.808,258.372,1120.363,257.034,1115.035,259.215Z" transform="translate(-1096.784 -245.058)" fill="#fbc6a6" stroke="#000" stroke-linejoin="round" stroke-width="0.25"/>
          <path id="Path_11342" data-name="Path 11342" d="M1113.1,260.406c-.408-.079.362-7.368,3.977-11.854s11.577-4.426,13.146,1.547S1124.211,262.569,1113.1,260.406Z" transform="translate(-1096.835 -245.379)" fill="#fbc6a6" stroke="#000" stroke-linejoin="round" stroke-width="0.25"/>
          <path id="Path_11343" data-name="Path 11343" d="M1099.124,269.858a33.774,33.774,0,0,0,8.3-8.728l6.025,1.227-.1,4.422-5.151,4.4s-3.118-1.955-8.144,2.194" transform="translate(-1097.183 -244.984)" fill="#ea6157" stroke="#000" stroke-linejoin="round" stroke-width="0.25"/>
          <path id="Path_11344" data-name="Path 11344" d="M1099.063,249.348c3.077-4.163,10.2-3.861,13.455.664a16.771,16.771,0,0,1,2.965,12.006s-7.55,3.68-14.609-1.265C1095.59,257.053,1097.052,252.07,1099.063,249.348Z" transform="translate(-1097.231 -245.353)" fill="#fbc6a6" stroke="#000" stroke-linejoin="round" stroke-width="0.25"/>
          <path id="Path_11345" data-name="Path 11345" d="M1116.094,261.13a13.506,13.506,0,0,1,2.745,14.094c-3.521,9.11-14.45,7.118-15.054-1.087C1103.28,267.261,1108.265,262.938,1116.094,261.13Z" transform="translate(-1097.067 -244.984)" fill="#fbc6a6" stroke="#000" stroke-linejoin="round" stroke-width="0.25"/>
          <g id="Group_3437" data-name="Group 3437" transform="translate(16.263 11.568)">
            <circle id="Ellipse_1937" data-name="Ellipse 1937" cx="1.988" cy="1.988" r="1.988" transform="translate(0 2.59)" fill="#cad226" stroke="#231815" stroke-miterlimit="10" stroke-width="0.25"/>
            <circle id="Ellipse_1938" data-name="Ellipse 1938" cx="1.491" cy="1.491" r="1.491" transform="translate(5.094 0.85)" fill="#cad226" stroke="#231815" stroke-miterlimit="10" stroke-width="0.25"/>
            <circle id="Ellipse_1939" data-name="Ellipse 1939" cx="2.071" cy="2.071" r="2.071" transform="translate(3.438 3.459)" fill="#cad226" stroke="#231815" stroke-miterlimit="10" stroke-width="0.25"/>
            <circle id="Ellipse_1940" data-name="Ellipse 1940" cx="1.513" cy="1.513" r="1.513" transform="translate(0.577)" fill="#cad226" stroke="#231815" stroke-miterlimit="10" stroke-width="0.25"/>
            <circle id="Ellipse_1941" data-name="Ellipse 1941" cx="1.532" cy="1.532" r="1.532" transform="translate(2.444 1.513)" fill="#cad226" stroke="#231815" stroke-miterlimit="10" stroke-width="0.25"/>
          </g>
        </g>
        <g id="Group_3439" data-name="Group 3439" transform="translate(53.805 74.353)">
          <path id="Path_11346" data-name="Path 11346" d="M1116.92,315.13s.329-6.829-1.47-9.964a9.5,9.5,0,0,1-4.586-6.119c-1.219-4.563,4.49-6.068,6.08-1.95a11.317,11.317,0,0,1,.189,7.787,19.571,19.571,0,0,1,.905,8.19S1120.945,315.69,1116.92,315.13Z" transform="translate(-1110.695 -274.96)" fill="#fbc6a6" stroke="#000" stroke-linejoin="round" stroke-width="0.25"/>
          <path id="Path_11347" data-name="Path 11347" d="M1110.695,328.866s8.914-21.487,13.248-27.19c0,0-.974-4.2-2.2-5.256,0,0-5.13-2-6.216-6.289s2.712-6.8,5.749-3.993,2.22,9.288,2.22,9.288.935,2.981,2.4,4.207a41.354,41.354,0,0,0,6.367-8.705,13.666,13.666,0,0,0,0-4.206s-2.863-1.753-2.863-6.834,5.667-6.251,6.719-1.169-1.461,7.769-1.461,7.769a9.061,9.061,0,0,0,.117,3.972,24.683,24.683,0,0,1,10.866-1.46c5.491.7,5.433,7.652-2.279,6.484s-10.515,1.87-10.515,1.87l-3.334,3.71s3.768,2.48,5.987,2.7c0,0,4.8.072,7.229,2.72s1.145,6.9-2.219,6.347-5.765-4.193-6.5-6.806c0,0-3.613-2.343-5.906-2.737a48.113,48.113,0,0,0-7.669,11.312c-3.662,7.255-8.333,14.505-8.333,14.505Z" transform="translate(-1110.695 -275.443)" fill="#ea6157" stroke="#000" stroke-linejoin="round" stroke-width="0.25"/>
          <path id="Path_11348" data-name="Path 11348" d="M1132.81,294.953a12.3,12.3,0,0,1,2.244-3.631,8.666,8.666,0,0,1,3.352-5.521c2.909-2.022,6.705-1.725,7.741,0s-.32,6.761-9.8,6.761a6.336,6.336,0,0,0-1.738,3.05" transform="translate(-1110.139 -275.218)" fill="#fbc6a6" stroke="#000" stroke-linejoin="round" stroke-width="0.25"/>
          <path id="Path_11349" data-name="Path 11349" d="M1127.306,298.767l2.415-.986a6.665,6.665,0,0,1,3.994-3.8c3.007-.986,5.078.2,5.374,1.676s-1.627,4.73-8.727,3.6L1127.7,300.3" transform="translate(-1110.278 -274.986)" fill="#ea6157" stroke="#000" stroke-linejoin="round" stroke-width="0.25"/>
        </g>
        <g id="Group_3440" data-name="Group 3440" transform="translate(56.923 107.714)">
          <path id="Path_11350" data-name="Path 11350" d="M1138.277,322.125s4.6-2.09,7.337-1.017a4.331,4.331,0,0,1,2.782,5.32c-.489,1.806-3.125,3.954-7.42,2.343S1138.277,322.125,1138.277,322.125Z" transform="translate(-1113.127 -307.665)" fill="#fbc6a6" stroke="#000" stroke-linejoin="round" stroke-width="0.25"/>
          <path id="Path_11351" data-name="Path 11351" d="M1129.047,321.471s11.531-15.026,17.327-10.347c5.076,4.1-3.124,12.685-9.664,14.03,0,0-7.322-1.535-7.322-1.68S1129.047,321.471,1129.047,321.471Z" transform="translate(-1113.351 -307.931)" fill="#fbc6a6" stroke="#000" stroke-linejoin="round" stroke-width="0.25"/>
          <path id="Path_11352" data-name="Path 11352" d="M1125.859,320.589a11.04,11.04,0,0,0,5.329-7.444c1.1-4.687,4.747-5.875,7.077-4.778,3.124,1.47,3.564,9.422-9.155,14.2Z" transform="translate(-1113.431 -307.987)" fill="#fbc6a6" stroke="#000" stroke-linejoin="round" stroke-width="0.25"/>
          <path id="Path_11353" data-name="Path 11353" d="M1127.711,322.541s8.493-1.959,13.375,2.315,2.977,11.059-2.294,9.692c-5.757-1.493-5.561-6.345-12.932-8.493Z" transform="translate(-1113.431 -307.633)" fill="#fbc6a6" stroke="#000" stroke-linejoin="round" stroke-width="0.25"/>
          <path id="Path_11354" data-name="Path 11354" d="M1113.736,323.716c.16.118,3.724.409,8.015-2.443,4.743-3.151,9.19-2.664,9.978.442.763,3.007-2.648,6.075-8.749,4.725s-8.3-.168-8.3-.168Z" transform="translate(-1113.736 -307.707)" fill="#ea6157" stroke="#000" stroke-linejoin="round" stroke-width="0.25"/>
        </g>
        <g id="Group_3441" data-name="Group 3441" transform="translate(6.055 76.59)">
          <path id="Path_11355" data-name="Path 11355" d="M1066.333,293.059s-2.765-2.6-2.123-5.883a6.307,6.307,0,0,1,4.67-4.866l7.382,7.666Z" transform="translate(-1064.114 -277.508)" fill="#fbc6a6" stroke="#000" stroke-linejoin="round" stroke-width="0.25"/>
          <path id="Path_11356" data-name="Path 11356" d="M1081.393,297.609a6,6,0,0,1,5.628-3.987s2.679,8.315,6.14,10.259l-2.211,2.018S1086.093,299.384,1081.393,297.609Z" transform="translate(-1063.68 -277.224)" fill="#ea6157" stroke="#000" stroke-linejoin="round" stroke-width="0.25"/>
          <path id="Path_11357" data-name="Path 11357" d="M1068.78,288.253a6.793,6.793,0,0,1,.679-6.986c2.308-3.142,6.7-1.977,6.7-1.977s8.3,8.395,6.078,13.851C1082.24,293.14,1071.738,292.172,1068.78,288.253Z" transform="translate(-1064.013 -277.589)" fill="#fbc6a6" stroke="#000" stroke-linejoin="round" stroke-width="0.25"/>
          <path id="Path_11358" data-name="Path 11358" d="M1083.837,296.352a37.733,37.733,0,0,1-7.846-10.056c-3.519-6.442,2.5-10.983,6.634-7.418s4.558,15.146,4.558,15.146Z" transform="translate(-1063.842 -277.626)" fill="#fbc6a6" stroke="#000" stroke-linejoin="round" stroke-width="0.25"/>
          <path id="Path_11359" data-name="Path 11359" d="M1066.582,296.125a8.265,8.265,0,0,1,.927-6.718c2.425-3.481,10.485-5.835,16.546,6.718l-2,3.138Z" transform="translate(-1064.06 -277.399)" fill="#fbc6a6" stroke="#000" stroke-linejoin="round" stroke-width="0.25"/>
        </g>
        <g id="Group_3443" data-name="Group 3443" transform="translate(0 33.039)">
          <path id="Path_11360" data-name="Path 11360" d="M1058.209,251.815c.1-5.019,6.027-7.041,10.453-5.97,4.871,1.178,10.842,7.387,13.153,17.442C1081.815,263.287,1057.965,263.987,1058.209,251.815Z" transform="translate(-1058.207 -234.879)" fill="#fbc6a6" stroke="#000" stroke-linejoin="round" stroke-width="0.25"/>
          <path id="Path_11361" data-name="Path 11361" d="M1081.458,264.249c-.315-.315-9.286-9.49-9.033-19.478.28-11.075,12.693-13.14,13.949-3.349S1081.458,264.249,1081.458,264.249Z" transform="translate(-1057.85 -235.141)" fill="#fbc6a6" stroke="#000" stroke-linejoin="round" stroke-width="0.25"/>
          <g id="Group_3442" data-name="Group 3442" transform="translate(11.422 13.06)">
            <ellipse id="Ellipse_1942" data-name="Ellipse 1942" cx="2.165" cy="7.71" rx="2.165" ry="7.71" transform="translate(7.602 1.557) rotate(-21.073)" fill="#cad226" stroke="#231815" stroke-miterlimit="10" stroke-width="0.25"/>
            <ellipse id="Ellipse_1943" data-name="Ellipse 1943" cx="2.19" cy="7.62" rx="2.19" ry="7.62" transform="translate(0 9.058) rotate(-50.071)" fill="#cad226" stroke="#231815" stroke-miterlimit="10" stroke-width="0.25"/>
            <ellipse id="Ellipse_1944" data-name="Ellipse 1944" cx="2.176" cy="7.67" rx="2.176" ry="7.67" transform="matrix(0.818, -0.575, 0.575, 0.818, 2.092, 3.33)" fill="#cad226" stroke="#231815" stroke-miterlimit="10" stroke-width="0.25"/>
          </g>
          <path id="Path_11362" data-name="Path 11362" d="M1085.681,267.944s-2.194-7.386-8.629-9.287-11.774.439-11.774,5.379c0,3.144,3.092,6.159,10.005,5.883C1082.61,269.627,1085.681,267.944,1085.681,267.944Z" transform="translate(-1058.029 -234.567)" fill="#fbc6a6" stroke="#000" stroke-linejoin="round" stroke-width="0.25"/>
          <path id="Path_11363" data-name="Path 11363" d="M1083.493,268.915a25.9,25.9,0,0,1-1.186-13.263c1-4.7,3.995-10.482,8.258-8.976,3.012,1.064,2.878,5.241-.695,11.442a10.1,10.1,0,0,0-1.034,7.094A9.075,9.075,0,0,1,1083.493,268.915Z" transform="translate(-1057.612 -234.857)" fill="#fbc6a6" stroke="#000" stroke-linejoin="round" stroke-width="0.25"/>
        </g>
      </g>
    </g>
    <g id="Group_3446" data-name="Group 3446" transform="translate(994.684 292.133)">
      <path id="Path_11364" data-name="Path 11364" d="M991.935,299.332s.871,7.458,8.033,8.148c0,0,37.483,1.63,37.949,1.747s46.679,25.842,47.146,26.076,12.222,13.563,12.222,13.563l25.959-4.833,2.794-6.286a25.178,25.178,0,0,0-12.106-15.133c-10.011-5.588-13.962-16.771-22.816-22.583s-20.954-3.958-32.129-6.287-16.016-6.4-32.129-3.259C1013.122,293.163,1012.772,300.147,991.935,299.332Z" transform="translate(-991.935 -289.34)" fill="#a5b63d" stroke="#231815" stroke-miterlimit="10" stroke-width="0.25"/>
      <path id="Path_11365" data-name="Path 11365" d="M1038.85,289.426s4.042.5,13.573,12.509" transform="translate(-990.757 -289.338)" fill="none" stroke="#231815" stroke-miterlimit="10" stroke-width="0.25"/>
      <path id="Path_11366" data-name="Path 11366" d="M1072.78,295.325s1.7.83,2.6,8.047,3.929,11.171,3.929,11.171" transform="translate(-989.905 -289.19)" fill="none" stroke="#231815" stroke-miterlimit="10" stroke-width="0.25"/>
      <path id="Path_11367" data-name="Path 11367" d="M1095.181,305.6c.305,13.256-3.447,18.935-2.712,27" transform="translate(-989.413 -288.932)" fill="none" stroke="#231815" stroke-miterlimit="10" stroke-width="0.25"/>
      <path id="Path_11368" data-name="Path 11368" d="M1109.373,327.2c-1.194,7.4-6.361,9.067-8.575,16.126" transform="translate(-989.202 -288.39)" fill="none" stroke="#231815" stroke-miterlimit="10" stroke-width="0.25"/>
    </g>
    <g id="Group_3447" data-name="Group 3447" transform="translate(888.88 272.199)">
      <path id="Path_11369" data-name="Path 11369" d="M1002.293,440.742a23.836,23.836,0,0,1-17.392,5.022c-10.514-1.13-12.062-5.929-24.741-6.808s-21.383,5.112-30.426,3.982-9.157-11.191-22.949-15.375-20.235-6.217-17.409-20.123,12.209-22.044,10.287-34.479-7.009-17.523-7.348-25.55,2.826-12.34,3.73-22.506,4.851-13.2,13-18.756c7.41-5.049,13.8-7.746,26.119-14.077s16.489-6.806,23.849-12.038c9.191-6.532,13.205-10.776,20.689-10.061,7.072.676,9.722,10.74,20.461,14.7s14.47,7.348,14.922,17.861S1002.293,440.742,1002.293,440.742Z" transform="translate(-888.723 -269.895)" fill="#ddd658" stroke="#000" stroke-linejoin="round" stroke-width="0.25"/>
      <path id="Path_11370" data-name="Path 11370" d="M907.464,341.734c11.338,5.11,23.174-3.467,34.41,0" transform="translate(-888.252 -268.113)" fill="none" stroke="#231815" stroke-miterlimit="10" stroke-width="0.25"/>
      <path id="Path_11371" data-name="Path 11371" d="M912.728,325.275c1.357-4.176,37.274,9.083,51.787,20.464l-1.566,16.915s-3.028-7-12.321-14.1-20.507-14.394-28.712-17.436C915.571,328.769,911.973,327.6,912.728,325.275Z" transform="translate(-888.122 -268.524)" fill="#cad226" stroke="#231815" stroke-miterlimit="10" stroke-width="0.25"/>
      <path id="Path_11372" data-name="Path 11372" d="M920.413,312.3c6.115,4.077,4.528,9.827,15.972,18.825" transform="translate(-887.927 -268.83)" fill="none" stroke="#231815" stroke-miterlimit="10" stroke-width="0.25"/>
      <path id="Path_11373" data-name="Path 11373" d="M951.532,298.179c9.377,13.351,7.3,32.772,11.648,41.865" transform="translate(-887.146 -269.185)" fill="none" stroke="#231815" stroke-miterlimit="10" stroke-width="0.25"/>
      <ellipse id="Ellipse_1945" data-name="Ellipse 1945" cx="4.547" cy="2.701" rx="4.547" ry="2.701" transform="translate(54.092 34.6)" fill="#dffffa" stroke="#231815" stroke-miterlimit="10" stroke-width="0.25"/>
      <ellipse id="Ellipse_1946" data-name="Ellipse 1946" cx="2.497" cy="1.886" rx="2.497" ry="1.886" transform="translate(42.881 30.829)" fill="#dffffa" stroke="#231815" stroke-miterlimit="10" stroke-width="0.25"/>
      <path id="Path_11374" data-name="Path 11374" d="M974.9,293.605c3.974,5.3-.26,14.068,3.487,22.22" transform="translate(-886.559 -269.299)" fill="none" stroke="#231815" stroke-miterlimit="10" stroke-width="0.25"/>
      <path id="Path_11375" data-name="Path 11375" d="M907.464,365.85c13.267,8.333,40.484-4.428,52.9,1.833" transform="translate(-888.252 -267.486)" fill="none" stroke="#231815" stroke-miterlimit="10" stroke-width="0.25"/>
      <path id="Path_11376" data-name="Path 11376" d="M904.666,403.46c19.986,3.852,40.22-13.306,51.965-9.672" transform="translate(-888.322 -266.797)" fill="none" stroke="#231815" stroke-miterlimit="10" stroke-width="0.25"/>
      <path id="Path_11377" data-name="Path 11377" d="M937.568,424.336c14.574.729,25.328-11.291,31.507-7.728" transform="translate(-887.496 -266.228)" fill="none" stroke="#231815" stroke-miterlimit="10" stroke-width="0.25"/>
      <ellipse id="Ellipse_1947" data-name="Ellipse 1947" cx="4.122" cy="2.135" rx="4.122" ry="2.135" transform="translate(42.638 84.693)" fill="#dffffa" stroke="#231815" stroke-miterlimit="10" stroke-width="0.25"/>
    </g>
    <g id="Group_3449" data-name="Group 3449" transform="translate(956.986 297.064)">
      <g id="Group_3448" data-name="Group 3448" transform="translate(0 0)">
        <path id="Path_11378" data-name="Path 11378" d="M1098.645,386.927c-2.306-15.478.482-34.745,0-42.262s-3.565-15.9-9.636-23.8-12.623-9.251-23.706-13.3-11.467-8.383-19.948-9.636-10.31-5.012-20.717-3.373-20.044,9.154-24.573,11.563-10.621,2.026-19.795,8.64-13.469,15.508-16.729,24.078-2.422,21.982-4.378,30.645-5.217,18.909-3.54,28.69,5.682,12.575,10.526,18.349,8.477,12.2,12.016,17.605,9.687,5.775,13.32,6.706,5.681,2.609,11.177,3.261c2.668.316,6.217.866,9.717,1.259a18.151,18.151,0,0,1-.289-4.263c.416-11.229,3.328-28.071,5.407-40.133s3.951-22.873,6.654-30.983,5.351-13.74,7.92-13.1c2.815.7,1.853,4.574,4.557,12.06s.416,24.745,0,50.946c-.189,11.923-.123,19.746-.853,24.741,4.481.1,8.282.432,14.776-.557,11.619-1.768,19.218-3.648,33.1-11.614S1100.952,402.405,1098.645,386.927Z" transform="translate(-955.16 -294.15)" fill="#a5b63d" stroke="#231815" stroke-miterlimit="10" stroke-width="0.25"/>
      </g>
      <path id="Path_11379" data-name="Path 11379" d="M1035.472,346.194c1.22-1.1,2.836.821,3.807,3.882s3.807,5.822,2.986,10.375-5.823,5.748-9.555,5.9-9.778-.075-13.138-5.076-2.156-9.527.245-12.4c2.891-3.461,8.6-4.855,10-3.647,1.3,1.13.432,2.613-1.286,2.763s-4.106-.448-5.823,1.418-2.612,5.151-.895,6.719,2.837,1.344,3.732,3.284,3.211,2.09,5.9,2.015,6.494-.225,6.569-4.628-.385-4.777-1.647-6.718S1034.8,346.806,1035.472,346.194Z" transform="translate(-953.595 -292.878)" fill="none" stroke="#000" stroke-miterlimit="10" stroke-width="0.25"/>
      <path id="Path_11380" data-name="Path 11380" d="M1017.991,442.163s-10.75,1.762-17.447-2.115-14.808-1.1-19.014-8.989-9.99-12.724-15.773-21.873-8.833-18.506-6.625-27.76,4.207-13.565,4.943-23.45,1.827-23.906,12.59-33.388c9.452-8.326,14.749-12.354,24.529-14.037s18.087-13.248,29.023-13.038,18.3,5.258,24.08,10.41,11.515,6.693,21.347,7.886,17.56,15.247,18.822,28.287-1.289,29.3,0,43.082,1.888,29.154-11.491,39.337-22.165,11.382-31.75,13.579-12.861-.488-20.966,2.468S1017.991,442.163,1017.991,442.163Z" transform="translate(-955.078 -294.066)" fill="#cad226" stroke="#231815" stroke-miterlimit="10" stroke-width="0.25"/>
      <path id="Path_11381" data-name="Path 11381" d="M1039.5,317.875c.915-2.008-1.147-3.441-5.83-4.3s-15.2-.478-23.322,1.529-8.411,4.014-14.72,6.786-12.33,4.492-17.874,13.477-7.36,15.484-8.507,26.858.382,17.875-.478,24.469.478,11.852,3.441,18.161,3.25,12.33,11.66,18.256,10.9,6.691,17.491,10.228,13.605,3.012,25.137,4.289,17.15-2.81,28.39-4.6,22.992-9.2,28.357-17.116,8.941-44.279,4.342-59.566-14.562-20.651-22.992-28.825-14.444-13.508-16.908-11.217,4.626,5.49,8.17,8.689,8.646,8.17,12.061,11.974,10.936,12.09,13.109,21.618,4.969,37.268-8.554,53.282-28.811,16.9-40.74,17.26-22.782-1.958-34.7-12.812-18.861-22.063-21-36.476.711-29.358,9.964-41.814,19.217-16.9,28.291-18.861,11.726-2.313,16.895-1.246S1038.694,319.646,1039.5,317.875Z" transform="translate(-954.825 -293.673)" fill="#a5b63d" stroke="#231815" stroke-miterlimit="10" stroke-width="0.25"/>
      <path id="Path_11382" data-name="Path 11382" d="M1035.665,327.2c1.443-2.4-3.636-3.484-8.105-3.636s-11.97,1.515-19.166,4.394-11.969,5.3-17.272,12.727-7.5,25.681-6.288,34.242,6.06,21.817,14.242,27.726a54.372,54.372,0,0,0,27.025,10.662c10.973,1.349,22.575-2.968,31.478-11.6s11.737-10.657,13.086-22.934-2.294-23.744-5.667-32.377-6.36-12.636-13.7-16.876c-6.255-3.615-10.835-3.882-11.406-1.861-.544,1.927,4.142,3.662,9.906,5.944s10.626,8.224,13.928,17.35,3.68,15.541,2.085,24.283-6.141,13.446-12.919,17.673a37.411,37.411,0,0,1-21.557,5.9c-7.711-.239-17.2-3.509-22.305-7.815s-8.773-6.3-13.557-17.146-2.314-18.742.239-25.839,6.7-13.4,13.637-16.349,8.853-3.988,15.711-3.908S1034.706,328.8,1035.665,327.2Z" transform="translate(-954.423 -293.412)" fill="#a5b63d" stroke="#231815" stroke-miterlimit="10" stroke-width="0.25"/>
      <path id="Path_11383" data-name="Path 11383" d="M1032.384,334.424c.668,2.21-2.888,2.256-5.073,2.746s-8.855,2.355-12.582,4.513-2.942,5.688-5.1,8.925-1.569,15.3,3.727,21.089,6.866,4.316,11.672,8.042,12.245,2.55,17.794-.98,5.157-7.749,6.825-13.732-.883-12.75-2.844-18.047-5.336-6.366-8.159-7.9-3.205-3.589-2.68-4.163,1.436-.335,4.45,2.2,7.857,4.15,10.543,9.906,2.149,7.674,3.991,12.279,4.144,14.723-1.228,23.4-18.418,7.6-25.938,6.53-10.591-.691-14.429-7.291-7.29-8.288-10.206-14.121-2.687-14.5,1.3-20.26,6.293-5.756,10.207-9.21,7.954-2.378,11.421-3.069S1031.845,332.644,1032.384,334.424Z" transform="translate(-954.005 -293.157)" fill="#a5b63d" stroke="#231815" stroke-miterlimit="10" stroke-width="0.25"/>
      <path id="Path_11384" data-name="Path 11384" d="M1035.234,367.4c-2.7-7.486-1.742-11.359-4.557-12.06-2.569-.641-5.217,4.99-7.92,13.1s-4.574,18.922-6.654,30.983-4.99,28.9-5.406,40.133a18.152,18.152,0,0,0,.289,4.263,40.631,40.631,0,0,0,9.854.25,68.579,68.579,0,0,1,13.541-.982c.73-5,.664-12.818.853-24.741C1035.65,392.145,1037.938,374.885,1035.234,367.4Z" transform="translate(-953.766 -292.615)" fill="#ddd658" stroke="#000" stroke-linejoin="round" stroke-width="0.25"/>
    </g>
    <g id="Group_3452" data-name="Group 3452" transform="translate(1058.189 336.649)">
      <g id="Group_3450" data-name="Group 3450" transform="translate(21.971)">
        <path id="Path_11385" data-name="Path 11385" d="M1077.408,382.726s1.575-4.607-1.351-12.965,3.58-13.814,6.646-19.136,4.886-10.244,13.822-8.249,13.059.8,18.513-4.257,8.834-5.7,11.788-5.222,3.914,3.57,7.759,5.149,3.158,4.669,1.373,7.347-28.964,21.287-28.964,21.287l-24.29,16.975Z" transform="translate(-1075.318 -332.766)" fill="#ddd658" stroke="#000" stroke-linejoin="round" stroke-width="0.25"/>
        <path id="Path_11386" data-name="Path 11386" d="M1087.632,359.019a8.742,8.742,0,0,1,2.682,6.183" transform="translate(-1075.009 -332.107)" fill="none" stroke="#231815" stroke-miterlimit="10" stroke-width="0.25"/>
        <path id="Path_11387" data-name="Path 11387" d="M1093.794,350.976a19.245,19.245,0,0,1,3.458,10.772" transform="translate(-1074.854 -332.309)" fill="none" stroke="#231815" stroke-miterlimit="10" stroke-width="0.25"/>
        <path id="Path_11388" data-name="Path 11388" d="M1107.179,347.408s1.995,6.317-.931,10.905" transform="translate(-1074.541 -332.398)" fill="none" stroke="#231815" stroke-miterlimit="10" stroke-width="0.25"/>
      </g>
      <g id="Group_3451" data-name="Group 3451" transform="translate(0 11.219)">
        <path id="Path_11389" data-name="Path 11389" d="M1181.864,410.453c-1.267-15.212-5.268-17.332-14.385-28.758s-8.771-24.466-19.389-33.006-20.081-4.732-28.39,1.269-12.05,7.666-22.87,11.595-13.836,11.095-17.533,18.106-3.7,11.4-7.936,19.8-2.109,12.886-2.15,17.1-3.629,9.631-6.248,13.1-2.542,5.316-4.546,9.477-5.58,4.408-4.237,6.857c1.822,3.324,14.34,2.064,14.34,2.064a83.154,83.154,0,0,0,27.2-19.2c12.979-13.71,12.247-13.161,18.462-19.925s15.572-15.687,19.377-21.215,5.8-11.66,7.611-11.326c2.256.416.41,6.116-4.53,14.5-4.584,7.776-5.72,11.087-14.135,21.328-7.745,9.426-12.958,17.815-22.109,25.97s-11.3,9.741-17.929,13.251c12.464,1.8,9.4,6.866,25.246,10.247s28.733-1.8,39.19-3.064,22.712-5.915,27.993-12.626S1183.132,425.665,1181.864,410.453Z" transform="translate(-1053.885 -343.71)" fill="#a5b63d" stroke="#231815" stroke-miterlimit="10" stroke-width="0.25"/>
        <path id="Path_11390" data-name="Path 11390" d="M1122.142,411.418c8.415-10.241,9.551-13.552,14.135-21.328,4.94-8.381,6.786-14.081,4.53-14.5-1.806-.333-3.805,5.8-7.612,11.326s-13.161,14.452-19.376,21.214-5.483,6.215-18.462,19.925a83.151,83.151,0,0,1-27.2,19.2c5.281,6.126,13.943,3.38,13.943,3.38,6.626-3.511,8.777-5.1,17.929-13.252S1114.4,420.844,1122.142,411.418Z" transform="translate(-1053.526 -342.91)" fill="#ddd658" stroke="#000" stroke-linejoin="round" stroke-width="0.25"/>
      </g>
      <path id="Path_11391" data-name="Path 11391" d="M1130.984,363.439s-2.972,3.221-2.792,14.474.059,11.128-2.131,16.143" transform="translate(-1052.073 -331.996)" fill="none" stroke="#231815" stroke-miterlimit="10" stroke-width="0.25"/>
      <path id="Path_11392" data-name="Path 11392" d="M1117.571,362.541s-7.564,11.143-6.212,24.4c1.065,10.444.811,16.566-3.361,26.82" transform="translate(-1052.526 -332.018)" fill="none" stroke="#231815" stroke-miterlimit="10" stroke-width="0.25"/>
      <path id="Path_11393" data-name="Path 11393" d="M1117.337,415.3s5.675-3.4,15.525-5c10.29-1.675,17.727-5.709,22.918-11.13" transform="translate(-1052.292 -331.099)" fill="none" stroke="#231815" stroke-miterlimit="10" stroke-width="0.25"/>
      <path id="Path_11394" data-name="Path 11394" d="M1150,377.1c-4.331,8.267-10.473,6.377-16.277,14.5" transform="translate(-1051.88 -331.653)" fill="none" stroke="#231815" stroke-miterlimit="10" stroke-width="0.25"/>
      <path id="Path_11395" data-name="Path 11395" d="M1102.05,377.1c-12.9,25.908,0,30.684-11.8,55.367" transform="translate(-1052.972 -331.653)" fill="none" stroke="#231815" stroke-miterlimit="10" stroke-width="0.25"/>
      <path id="Path_11396" data-name="Path 11396" d="M1102.55,433.1c11.524-8.463,31.958,2.877,53.6-13.992" transform="translate(-1052.663 -330.598)" fill="none" stroke="#231815" stroke-miterlimit="10" stroke-width="0.25"/>
      <ellipse id="Ellipse_1948" data-name="Ellipse 1948" cx="3.026" cy="2.43" rx="3.026" ry="2.43" transform="translate(114.559 66.433)" fill="#dffffa" stroke="#231815" stroke-miterlimit="10" stroke-width="0.25"/>
      <circle id="Ellipse_1949" data-name="Ellipse 1949" cx="1.628" cy="1.628" r="1.628" transform="translate(109.333 61.964)" fill="#dffffa" stroke="#231815" stroke-miterlimit="10" stroke-width="0.25"/>
      <path id="Path_11397" data-name="Path 11397" d="M1085.083,397.572c-7.2,16.22,0,27.19-5,42.477" transform="translate(-1053.227 -331.139)" fill="none" stroke="#231815" stroke-miterlimit="10" stroke-width="0.25"/>
      <path id="Path_11398" data-name="Path 11398" d="M1086.736,446.092c19.678-8.359,35.222,9.776,59.988-4.525" transform="translate(-1053.06 -330.035)" fill="none" stroke="#231815" stroke-miterlimit="10" stroke-width="0.25"/>
      <ellipse id="Ellipse_1950" data-name="Ellipse 1950" cx="1.619" cy="2.42" rx="1.619" ry="2.42" transform="translate(36.79 40.3) rotate(-60)" fill="#dffffa" stroke="#231815" stroke-miterlimit="10" stroke-width="0.25"/>
    </g>
    <ellipse id="Ellipse_1951" data-name="Ellipse 1951" cx="4.029" cy="2.418" rx="4.029" ry="2.418" transform="translate(1042.688 459.864)" fill="#ecb36f" stroke="#000" stroke-linejoin="round" stroke-width="0.25"/>
    <path id="Path_11399" data-name="Path 11399" d="M1052.573,457.68a11.853,11.853,0,0,0,10.191.875c7.538-2.533,10.552,2.954,14.954,1.929" transform="translate(4.272 7.019)" fill="none" stroke="#000" stroke-miterlimit="10" stroke-width="0.25"/>
    <path id="Path_11400" data-name="Path 11400" d="M1080.985,461.24a6.824,6.824,0,0,0,4.764.724c2.833-.543,5.547,1.567,5.547,1.567" transform="translate(4.984 7.108)" fill="none" stroke="#000" stroke-miterlimit="10" stroke-width="0.25"/>
    <ellipse id="Ellipse_1952" data-name="Ellipse 1952" cx="3.823" cy="2.224" rx="3.823" ry="2.224" transform="translate(883.423 462.313)" fill="#c19165" stroke="#000" stroke-linejoin="round" stroke-width="0.25"/>
    <ellipse id="Ellipse_1953" data-name="Ellipse 1953" cx="2.656" cy="4.939" rx="2.656" ry="4.939" transform="matrix(0.138, -0.99, 0.99, 0.138, 908.86, 446.319)" fill="#c19165" stroke="#000" stroke-linejoin="round" stroke-width="0.25"/>
    <path id="Path_11401" data-name="Path 11401" d="M914.086,454.816s4.7,5.636,15.5,2.724,17.661-1.523,25.74.836,12.682-1.3,18.6.574" transform="translate(0.795 6.947)" fill="none" stroke="#000" stroke-miterlimit="10" stroke-width="0.25"/>
    <path id="Path_11402" data-name="Path 11402" d="M981.717,459.116s2.161-1.94,5.919-.624,5.918.083,5.918.083" transform="translate(2.493 7.028)" fill="none" stroke="#000" stroke-miterlimit="10" stroke-width="0.25"/>
    <ellipse id="Ellipse_1954" data-name="Ellipse 1954" cx="7.289" cy="3.824" rx="7.289" ry="3.824" transform="translate(951.691 483.936)" fill="#c19165" stroke="#000" stroke-linejoin="round" stroke-width="0.25"/>
    <ellipse id="Ellipse_1955" data-name="Ellipse 1955" cx="3.824" cy="2.191" rx="3.824" ry="2.191" transform="translate(941.415 491.584)" fill="#ecb36f" stroke="#000" stroke-linejoin="round" stroke-width="0.25"/>
    <path id="Path_11403" data-name="Path 11403" d="M897.941,490.328s4.486-4.343,12.767,0c7.763,4.073,16.062-3.214,26.039,3.171" transform="translate(0.389 7.79)" fill="none" stroke="#000" stroke-miterlimit="10" stroke-width="0.25"/>
    <path id="Path_11404" data-name="Path 11404" d="M987.427,515.867s2.905,2.439,8.351.83,7.419-.77,10.273.548" transform="translate(2.636 8.478)" fill="none" stroke="#000" stroke-miterlimit="10" stroke-width="0.25"/>
    <path id="Path_11405" data-name="Path 11405" d="M1010.25,517.211a3.829,3.829,0,0,0,3.061.437" transform="translate(3.209 8.513)" fill="none" stroke="#000" stroke-miterlimit="10" stroke-width="0.25"/>
    <ellipse id="Ellipse_1956" data-name="Ellipse 1956" cx="4.155" cy="2.337" rx="4.155" ry="2.337" transform="translate(1065.408 528.816)" fill="#ecb36f" stroke="#000" stroke-linejoin="round" stroke-width="0.25"/>
    <g id="Group_3453" data-name="Group 3453" transform="translate(1009.134 472.857)">
      <path id="Path_11406" data-name="Path 11406" d="M1062.254,472.362s-5.265-8.558-14.611-6.363-9.844,6.043-23.409,6.363-13.871,7.784-16.857,15.082c-2.5,6.108-1.3,8.578,1.795,12.568s1.995,11.172,11.172,13.166,10.274-.9,16.857.7,11.134.7,17.886-7.78,17.142-5.98,19.081-13.735c1.822-7.289-7.1-9.166-8.719-16.106Z" transform="translate(-1006.031 -465.639)" fill="#cad226" stroke="#231815" stroke-miterlimit="10" stroke-width="0.25"/>
      <path id="Path_11407" data-name="Path 11407" d="M1017.58,498.763c.175-2.925,4.493,2.344,13.968-5.079s12.8-14.261,21-18.949,14.735-2.686,13.475,1.755c-.726,2.557-5.275-1.253-10.5,2.212s-11.717,12.6-19.4,17.2S1017.371,502.259,1017.58,498.763Z" transform="translate(-1005.741 -465.478)" fill="#ddd658" stroke="#000" stroke-linejoin="round" stroke-width="0.25"/>
      <path id="Path_11408" data-name="Path 11408" d="M1022.713,481.639c7.663,2.065,12.962-5.433,25.925-4.482" transform="translate(-1005.612 -465.352)" fill="none" stroke="#231815" stroke-miterlimit="10" stroke-width="0.25"/>
      <path id="Path_11409" data-name="Path 11409" d="M1018.773,489.066s4.8,6.014,11.323,5.237" transform="translate(-1005.711 -465.051)" fill="none" stroke="#231815" stroke-miterlimit="10" stroke-width="0.25"/>
      <path id="Path_11410" data-name="Path 11410" d="M1057.178,477.388s-3.988,3.807-7.271,16.179c-3.137,11.823-7.406,13.719-7.406,13.719" transform="translate(-1005.116 -465.344)" fill="none" stroke="#231815" stroke-miterlimit="10" stroke-width="0.25"/>
      <path id="Path_11411" data-name="Path 11411" d="M1027.767,507.467c6.555-2.82,6.414-9.727,11.287-14.3" transform="translate(-1005.486 -464.948)" fill="none" stroke="#231815" stroke-miterlimit="10" stroke-width="0.25"/>
      <path id="Path_11412" data-name="Path 11412" d="M1058.916,494.2c2.7-4.159.94-11.006,5.547-17.1" transform="translate(-1004.704 -465.351)" fill="none" stroke="#231815" stroke-miterlimit="10" stroke-width="0.25"/>
      <path id="Path_11413" data-name="Path 11413" d="M1049.66,469.161s6.247-.1,9.489,3.034" transform="translate(-1004.936 -465.55)" fill="none" stroke="#231815" stroke-miterlimit="10" stroke-width="0.25"/>
    </g>
    <g id="Group_3455" data-name="Group 3455" transform="translate(1096.458 474.06)">
      <path id="Path_11414" data-name="Path 11414" d="M1092.129,470.395c2.536-4.6,14.954-7.424,19.82,8.752a24.96,24.96,0,0,1-13.593,1.844C1090.539,479.906,1090.364,473.6,1092.129,470.395Z" transform="translate(-1091.217 -466.812)" fill="#fbc6a6" stroke="#000" stroke-linejoin="round" stroke-width="0.25"/>
      <path id="Path_11415" data-name="Path 11415" d="M1111.87,479.436s-9.321-.714-15.185,4.786c-6.237,5.852,1.3,17.156,9.7,12.234C1115.982,490.83,1111.87,479.436,1111.87,479.436Z" transform="translate(-1091.137 -466.496)" fill="#fbc6a6" stroke="#000" stroke-linejoin="round" stroke-width="0.25"/>
      <path id="Path_11416" data-name="Path 11416" d="M1111.083,480.158a6.5,6.5,0,0,1-1.086-7.914c2.045-3.573,10.785-5.283,12.885,2.245s-7.625,9.121-9.265,7.673A21.653,21.653,0,0,0,1111.083,480.158Z" transform="translate(-1090.768 -466.752)" fill="#fbc6a6" stroke="#000" stroke-linejoin="round" stroke-width="0.25"/>
      <path id="Path_11417" data-name="Path 11417" d="M1110.86,480.96s8.145-1.4,12.885,4.964,1.839,13.014-3.75,11.707S1110.51,491.37,1110.86,480.96Z" transform="translate(-1090.724 -466.46)" fill="#fbc6a6" stroke="#000" stroke-linejoin="round" stroke-width="0.25"/>
      <g id="Group_3454" data-name="Group 3454" transform="translate(15.634 8.732)">
        <ellipse id="Ellipse_1957" data-name="Ellipse 1957" cx="1.876" cy="2.317" rx="1.876" ry="2.317" transform="translate(3.603 5.916) rotate(-24.372)" fill="#cad226" stroke="#231815" stroke-miterlimit="10" stroke-width="0.25"/>
        <ellipse id="Ellipse_1958" data-name="Ellipse 1958" cx="1.621" cy="2.199" rx="1.621" ry="2.199" transform="translate(0.478 2.807) rotate(-60)" fill="#cad226" stroke="#231815" stroke-miterlimit="10" stroke-width="0.25"/>
        <ellipse id="Ellipse_1959" data-name="Ellipse 1959" cx="2.176" cy="1.682" rx="2.176" ry="1.682" transform="translate(0 5.141) rotate(-24.372)" fill="#cad226" stroke="#231815" stroke-miterlimit="10" stroke-width="0.25"/>
        <ellipse id="Ellipse_1960" data-name="Ellipse 1960" cx="1.583" cy="2.473" rx="1.583" ry="2.473" transform="translate(5.046 4.717) rotate(-67.378)" fill="#cad226" stroke="#231815" stroke-miterlimit="10" stroke-width="0.25"/>
        <ellipse id="Ellipse_1961" data-name="Ellipse 1961" cx="1.263" cy="1.879" rx="1.263" ry="1.879" transform="translate(2.875 4.828) rotate(-60)" fill="#cad226" stroke="#231815" stroke-miterlimit="10" stroke-width="0.25"/>
      </g>
    </g>
  </g>
</svg>
