<svg xmlns="http://www.w3.org/2000/svg" width="314.896" height="356.029" viewBox="0 0 314.896 356.029">
  <g id="Group_3837" data-name="Group 3837" transform="translate(-1655.938 -1278.924)">
    <g id="Group_3817" data-name="Group 3817" transform="translate(1682.884 1279.028)">
      <path id="Path_13965" data-name="Path 13965" d="M1752.5,1341.889s4.643-2.891,8.187-9.979,11.364-8.676,16.5-13.808,20.651-26.272,31.648-29.2,15.885-.511,22.239-4.654,10.142-6.343,14.907-4.633,9.407,6.124,19.307,4.663l-36.147,36.394-51.71,22.614Z" transform="translate(-1685.047 -1279.028)" fill="#a5b63d" stroke="#231815" stroke-miterlimit="10" stroke-width="0.25"/>
      <path id="Path_13966" data-name="Path 13966" d="M1771.689,1323.48s-.3,12.85,2.751,20.609" transform="translate(-1685.478 -1280.026)" fill="none" stroke="#000" stroke-miterlimit="10" stroke-width="0.25"/>
      <path id="Path_13967" data-name="Path 13967" d="M1787.53,1307.712s-6.663,17.308-2.166,33.051" transform="translate(-1685.75 -1279.672)" fill="none" stroke="#000" stroke-miterlimit="10" stroke-width="0.25"/>
      <path id="Path_13968" data-name="Path 13968" d="M1825.64,1286.837s-25.348,14.456-34.4,50.962" transform="translate(-1685.917 -1279.203)" fill="none" stroke="#000" stroke-miterlimit="10" stroke-width="0.25"/>
      <path id="Path_13969" data-name="Path 13969" d="M1810.066,1289.125s-4.543,8.638-1.539,13.972" transform="translate(-1686.282 -1279.255)" fill="none" stroke="#000" stroke-miterlimit="10" stroke-width="0.25"/>
      <path id="Path_13970" data-name="Path 13970" d="M1852.918,1282.08c-.626.777-15.653,4.379-20.6,16.569" transform="translate(-1686.839 -1279.096)" fill="none" stroke="#000" stroke-miterlimit="10" stroke-width="0.25"/>
      <path id="Path_13971" data-name="Path 13971" d="M1870.6,1288.163c-5.8-6.546-10.7-3.447-15.486.855-7.756,6.965-15.332-.122-20.831,4.277s-13.441,17.107-22.728,19.673-17.962-1.466-26.516,5.5-7.943,15.152-18.94,19.673-17.963.482-27.005,5.251-9.409,13.2-19.184,15.888-10.02-.244-16.863,4.643-5.213,6.6-11.242,8.717-11.567,8.146-6.029,15.478,19.062,10.59,37.8,10.1,76.857,4.222,76.857,4.222l51.08-54.83s-6.065-22.423,5.094-34.4S1875.151,1293.3,1870.6,1288.163Z" transform="translate(-1683.498 -1279.148)" fill="#bfc632" stroke="#231815" stroke-miterlimit="10" stroke-width="0.25"/>
      <path id="Path_13972" data-name="Path 13972" d="M1814.308,1313.625s-11.242,18.718-7.638,36.853" transform="translate(-1686.248 -1279.804)" fill="none" stroke="#000" stroke-miterlimit="10" stroke-width="0.25"/>
      <path id="Path_13973" data-name="Path 13973" d="M1794.554,1315.574s3.188,17.727,11.526,21.6" transform="translate(-1685.991 -1279.848)" fill="none" stroke="#000" stroke-miterlimit="10" stroke-width="0.25"/>
      <path id="Path_13974" data-name="Path 13974" d="M1874.089,1288.25s-27.536,12.282-35.348,41.149" transform="translate(-1686.983 -1279.235)" fill="none" stroke="#000" stroke-miterlimit="10" stroke-width="0.25"/>
      <path id="Path_13975" data-name="Path 13975" d="M1851.708,1292.391s-1.985,7.52-.618,14.261" transform="translate(-1687.25 -1279.328)" fill="none" stroke="#000" stroke-miterlimit="10" stroke-width="0.25"/>
      <path id="Path_13976" data-name="Path 13976" d="M1845.04,1292.075s-14.739,22.619-17.916,46.831" transform="translate(-1686.723 -1279.321)" fill="none" stroke="#000" stroke-miterlimit="10" stroke-width="0.25"/>
      <path id="Path_13977" data-name="Path 13977" d="M1829.591,1302.082s0,9.573,4.78,11.284" transform="translate(-1686.778 -1279.545)" fill="none" stroke="#000" stroke-miterlimit="10" stroke-width="0.25"/>
      <path id="Path_13978" data-name="Path 13978" d="M1773.862,1335.886s5.145,6.825,10.766,8.662a118.587,118.587,0,0,1,11.13,31.838" transform="translate(-1685.527 -1280.304)" fill="none" stroke="#000" stroke-miterlimit="10" stroke-width="0.25"/>
      <path id="Path_13979" data-name="Path 13979" d="M1782.375,1324.566s5.01,11.048,2.444,19.728" transform="translate(-1685.718 -1280.05)" fill="none" stroke="#000" stroke-miterlimit="10" stroke-width="0.25"/>
      <path id="Path_13980" data-name="Path 13980" d="M1740.375,1344.747s10.386,13.417,24.072,13.553c0,0,13.581,33.048,40.517,42.008" transform="translate(-1684.775 -1280.503)" fill="none" stroke="#000" stroke-miterlimit="10" stroke-width="0.25"/>
      <path id="Path_13981" data-name="Path 13981" d="M1765.206,1340.375A19.63,19.63,0,0,1,1765,1358.2" transform="translate(-1685.328 -1280.405)" fill="none" stroke="#000" stroke-miterlimit="10" stroke-width="0.25"/>
      <path id="Path_13982" data-name="Path 13982" d="M1711.881,1362.456s10.747,12.262,19.3,11.407c0,0,16.741,15.641,61.516,29.677" transform="translate(-1684.136 -1280.901)" fill="none" stroke="#000" stroke-miterlimit="10" stroke-width="0.25"/>
      <path id="Path_13983" data-name="Path 13983" d="M1729.568,1355.2s4.21,10.069,2.011,18.5" transform="translate(-1684.533 -1280.738)" fill="none" stroke="#000" stroke-miterlimit="10" stroke-width="0.25"/>
      <path id="Path_13984" data-name="Path 13984" d="M1687.242,1377.316s18.7,14.354,27.2,11.666c0,0,19.124,12.057,46.38,12.72" transform="translate(-1683.582 -1281.234)" fill="none" stroke="#000" stroke-miterlimit="10" stroke-width="0.25"/>
      <path id="Path_13985" data-name="Path 13985" d="M1703.5,1365.75a43.961,43.961,0,0,0,11.3,22.973" transform="translate(-1683.948 -1280.975)" fill="none" stroke="#000" stroke-miterlimit="10" stroke-width="0.25"/>
    </g>
    <g id="Group_3818" data-name="Group 3818" transform="translate(1790.27 1314.166)">
      <path id="Path_13986" data-name="Path 13986" d="M1805.268,1404.445c-6.4-5.376-14.216-17.107-11.283-23.95s6.191-10.1,8.472-21.017,8.471-13.522,17.433-16.781,13.034-12.219,21.832-14.175,16.456,1.793,24.928-2.932,21.506-13.848,36.169-9.449,15.479,11.4,19.551,17.269,17.27,5.051,21.017,13.2-3.095,12.871-.814,20.855,8.961,8.267,10.1,16.515-6.354,19.165-13.848,22.912l-84.218,14.358-35.906-2.627Z" transform="translate(-1793.35 -1314.973)" fill="#a5b63d" stroke="#231815" stroke-miterlimit="10" stroke-width="0.25"/>
      <path id="Path_13987" data-name="Path 13987" d="M1845.452,1328.407s34.913,45.547,37.519,88.285" transform="translate(-1794.52 -1315.275)" fill="none" stroke="#000" stroke-miterlimit="10" stroke-width="0.25"/>
      <path id="Path_13988" data-name="Path 13988" d="M1879.762,1394.152c25.184-24.838,38.506-69.995,38.506-69.995" transform="translate(-1795.29 -1315.179)" fill="none" stroke="#000" stroke-miterlimit="10" stroke-width="0.25"/>
      <path id="Path_13989" data-name="Path 13989" d="M1803.122,1358.611s19.757,9.178,32.792,23.027,35.2,20.719,43.833,20.054" transform="translate(-1793.57 -1315.953)" fill="none" stroke="#000" stroke-miterlimit="10" stroke-width="0.25"/>
      <path id="Path_13990" data-name="Path 13990" d="M1797,1375.913s16.13,11,38.776,6.113" transform="translate(-1793.432 -1316.341)" fill="none" stroke="#000" stroke-miterlimit="10" stroke-width="0.25"/>
      <path id="Path_13991" data-name="Path 13991" d="M1799.271,1399.665s24.513,13.759,64.5,0" transform="translate(-1793.483 -1316.874)" fill="none" stroke="#000" stroke-miterlimit="10" stroke-width="0.25"/>
      <path id="Path_13992" data-name="Path 13992" d="M1820.5,1343.333s6.641,10.1,15.3,9.613c0,0,15.327,17.184,33.5,17.146" transform="translate(-1793.96 -1315.61)" fill="none" stroke="#000" stroke-miterlimit="10" stroke-width="0.25"/>
      <path id="Path_13993" data-name="Path 13993" d="M1830.9,1336.326s5.927,8.479,5.131,16.463" transform="translate(-1794.193 -1315.452)" fill="none" stroke="#000" stroke-miterlimit="10" stroke-width="0.25"/>
      <path id="Path_13994" data-name="Path 13994" d="M1860.468,1328.407a24.221,24.221,0,0,1-1.409,20.192" transform="translate(-1794.825 -1315.275)" fill="none" stroke="#000" stroke-miterlimit="10" stroke-width="0.25"/>
      <path id="Path_13995" data-name="Path 13995" d="M1880.842,1319.02s1.132,10.57,8.952,18.228c0,0-2.394,24.892,7.6,33.789" transform="translate(-1795.314 -1315.064)" fill="none" stroke="#000" stroke-miterlimit="10" stroke-width="0.25"/>
      <path id="Path_13996" data-name="Path 13996" d="M1898.452,1314.973s.346,18.6-8.452,22.185" transform="translate(-1795.52 -1314.973)" fill="none" stroke="#000" stroke-miterlimit="10" stroke-width="0.25"/>
      <path id="Path_13997" data-name="Path 13997" d="M1936.283,1339.982s-14.324,13.033-28.8,13.693" transform="translate(-1795.913 -1315.534)" fill="none" stroke="#000" stroke-miterlimit="10" stroke-width="0.25"/>
      <path id="Path_13998" data-name="Path 13998" d="M1942.139,1343.333s-7.656,8.147-6.461,21.833c0,0-11.55,15.185-55.148,32.209" transform="translate(-1795.307 -1315.61)" fill="none" stroke="#000" stroke-miterlimit="10" stroke-width="0.25"/>
      <path id="Path_13999" data-name="Path 13999" d="M1946.88,1347.975s-3.717,10.125-9.935,17.295" transform="translate(-1796.574 -1315.714)" fill="none" stroke="#000" stroke-miterlimit="10" stroke-width="0.25"/>
      <path id="Path_14000" data-name="Path 14000" d="M1950.6,1376.621s-14.839,6.147-26.585,0" transform="translate(-1796.284 -1316.357)" fill="none" stroke="#000" stroke-miterlimit="10" stroke-width="0.25"/>
      <path id="Path_14001" data-name="Path 14001" d="M1953.919,1381.694s-23.751.372-55.965,34.062" transform="translate(-1795.698 -1316.471)" fill="none" stroke="#000" stroke-miterlimit="10" stroke-width="0.25"/>
      <path id="Path_14002" data-name="Path 14002" d="M1954.729,1393.214s-8.973,5.344-28.15-.493" transform="translate(-1796.341 -1316.718)" fill="none" stroke="#000" stroke-miterlimit="10" stroke-width="0.25"/>
    </g>
    <g id="Group_3819" data-name="Group 3819" transform="translate(1656.13 1511.821)">
      <path id="Path_14003" data-name="Path 14003" d="M1719.788,1524.335c-15.641,1.466-28.81,4.643-31.512,9.531s-.258,12.952-12.966,19.551-23.95,20.04-17.107,30.06,20.692,11.242,26.964,19.8,22.158,9.776,35.844,4.155,36.414,15.4,52.3,14.174,31.282-20.529,44.479-20.773,34.8,4.643,46.97-9.287,17.914-5.8,14.8-36.017-27.027-38.358-27.027-38.358Z" transform="translate(-1656.13 -1517.167)" fill="#bfc632" stroke="#231815" stroke-miterlimit="10" stroke-width="0.25"/>
      <path id="Path_14004" data-name="Path 14004" d="M1699.111,1610.4s43.414-65,123.318-91.521" transform="translate(-1657.095 -1517.205)" fill="none" stroke="#000" stroke-miterlimit="10" stroke-width="0.25"/>
      <path id="Path_14005" data-name="Path 14005" d="M1660.831,1565.977s54.419-24.5,105.252-19.366" transform="translate(-1656.236 -1517.812)" fill="none" stroke="#000" stroke-miterlimit="10" stroke-width="0.25"/>
      <path id="Path_14006" data-name="Path 14006" d="M1688.174,1536.258s39.91-4.693,64.226.805" transform="translate(-1656.849 -1517.553)" fill="none" stroke="#000" stroke-miterlimit="10" stroke-width="0.25"/>
      <path id="Path_14007" data-name="Path 14007" d="M1685.616,1544.995s22.33-.928,27.788,4.976" transform="translate(-1656.792 -1517.791)" fill="none" stroke="#000" stroke-miterlimit="10" stroke-width="0.25"/>
      <path id="Path_14008" data-name="Path 14008" d="M1658.25,1584.4s16.217-4.872,23.81-26.08" transform="translate(-1656.178 -1518.091)" fill="none" stroke="#000" stroke-miterlimit="10" stroke-width="0.25"/>
      <path id="Path_14009" data-name="Path 14009" d="M1656.357,1575.722a14.635,14.635,0,0,1,13.756,1.538" transform="translate(-1656.135 -1518.458)" fill="none" stroke="#000" stroke-miterlimit="10" stroke-width="0.25"/>
      <path id="Path_14010" data-name="Path 14010" d="M1663.393,1590.077s34.79-17.346,62.721-10.434" transform="translate(-1656.293 -1518.533)" fill="none" stroke="#000" stroke-miterlimit="10" stroke-width="0.25"/>
      <path id="Path_14011" data-name="Path 14011" d="M1680.929,1600.176s7.508-8.07,5.989-18.441" transform="translate(-1656.687 -1518.617)" fill="none" stroke="#000" stroke-miterlimit="10" stroke-width="0.25"/>
      <path id="Path_14012" data-name="Path 14012" d="M1744.889,1564.067a28.584,28.584,0,0,1-1.765,19.666s5.5,18.957,0,27.839" transform="translate(-1658.083 -1518.22)" fill="none" stroke="#000" stroke-miterlimit="10" stroke-width="0.25"/>
      <path id="Path_14013" data-name="Path 14013" d="M1727.554,1607.978s5.079-15.426,15.221-23.793" transform="translate(-1657.734 -1518.671)" fill="none" stroke="#000" stroke-miterlimit="10" stroke-width="0.25"/>
      <path id="Path_14014" data-name="Path 14014" d="M1777.141,1541.163s13.686,23.98-1.141,80.977" transform="translate(-1658.821 -1517.706)" fill="none" stroke="#000" stroke-miterlimit="10" stroke-width="0.25"/>
      <path id="Path_14015" data-name="Path 14015" d="M1749.743,1615.243s6.5-11.238,31.156-19.562" transform="translate(-1658.232 -1518.929)" fill="none" stroke="#000" stroke-miterlimit="10" stroke-width="0.25"/>
      <path id="Path_14016" data-name="Path 14016" d="M1794.976,1596.406c-5.743-13.441-11.926-20.406-11.926-20.406" transform="translate(-1658.979 -1518.488)" fill="none" stroke="#000" stroke-miterlimit="10" stroke-width="0.25"/>
      <path id="Path_14017" data-name="Path 14017" d="M1795.205,1596.875c-3.666,7.495-1,19.316-1,19.316" transform="translate(-1659.209 -1518.956)" fill="none" stroke="#000" stroke-miterlimit="10" stroke-width="0.25"/>
      <path id="Path_14018" data-name="Path 14018" d="M1805.523,1608.788a17.457,17.457,0,0,0-10.273-11.913" transform="translate(-1659.253 -1518.956)" fill="none" stroke="#000" stroke-miterlimit="10" stroke-width="0.25"/>
      <path id="Path_14019" data-name="Path 14019" d="M1831.411,1602.009s-16.82-39.9-42.261-49.038" transform="translate(-1659.116 -1517.97)" fill="none" stroke="#000" stroke-miterlimit="10" stroke-width="0.25"/>
      <path id="Path_14020" data-name="Path 14020" d="M1819.57,1602.094s-11.738-16.217-9.928-34.507" transform="translate(-1659.572 -1518.299)" fill="none" stroke="#000" stroke-miterlimit="10" stroke-width="0.25"/>
      <path id="Path_14021" data-name="Path 14021" d="M1843.987,1603.079s-3.632-8.972-17.079-10.959" transform="translate(-1659.964 -1518.85)" fill="none" stroke="#000" stroke-miterlimit="10" stroke-width="0.25"/>
      <path id="Path_14022" data-name="Path 14022" d="M1868.591,1592.457s-15.625-28.127-41.684-34.531" transform="translate(-1659.964 -1518.082)" fill="none" stroke="#000" stroke-miterlimit="10" stroke-width="0.25"/>
      <path id="Path_14023" data-name="Path 14023" d="M1855.912,1600.944s-7.06-14.8-3.476-28.649" transform="translate(-1660.514 -1518.404)" fill="none" stroke="#000" stroke-miterlimit="10" stroke-width="0.25"/>
      <path id="Path_14024" data-name="Path 14024" d="M1847.487,1560.868s-3.225-.915-9.533,1.192" transform="translate(-1660.212 -1518.143)" fill="none" stroke="#000" stroke-miterlimit="10" stroke-width="0.25"/>
    </g>
    <g id="Group_3820" data-name="Group 3820" transform="translate(1680.341 1383.171)">
      <path id="Path_14025" data-name="Path 14025" d="M1955.375,1418.211s9.9-2.566,12.464-1.344,2.444,9.248,4.033,13.3.244,16.638-3.055,20.181-11.242,4.4-13.441,7.454Z" transform="translate(-1687.059 -1386.257)" fill="#7a5d49" stroke="#0a0503" stroke-miterlimit="10" stroke-width="0.25"/>
      <path id="Path_14026" data-name="Path 14026" d="M1825.961,1417.463s8.613-3.585,13.2,0l6.71,30.3-14.443,2.444Z" transform="translate(-1684.153 -1386.242)" fill="#7a5d49" stroke="#0a0503" stroke-miterlimit="10" stroke-width="0.25"/>
      <path id="Path_14027" data-name="Path 14027" d="M1687.107,1418.971c7.551-8.374,25.986-17.27,36.9-23.788s39.591-8.96,58.979-3.583,31.608,11.567,38.451,19.388,3.425,25.715,6.679,32.008-133.573,29.55-133.573,29.55-15.015-6.571-13.549-16.55,3.421-17.515,1.955-25.4C1682.216,1426.642,1686.007,1420.191,1687.107,1418.971Z" transform="translate(-1680.897 -1385.632)" fill="#f4d6b3" stroke="#000" stroke-miterlimit="10" stroke-width="0.25"/>
      <path id="Path_14028" data-name="Path 14028" d="M1844.494,1401.875c-5.527,5.1-7.209,16.526-4.338,25.432s5.065,21.135,5.071,28.822,11.364,36.943,23.828,39.672,32.625,2.256,39.835-1.54,27-5.018,37.025-19.8,11-32.259,9.165-44.112,1.1-22.484-11.975-32.137-33.848-16.13-58.286-10.631S1849.259,1397.476,1844.494,1401.875Z" transform="translate(-1684.441 -1385.562)" fill="#f4d6b3" stroke="#000" stroke-miterlimit="10" stroke-width="0.25"/>
      <path id="Path_14029" data-name="Path 14029" d="M1705.625,1415.664s9.653-4.766,18.451-3.543" transform="translate(-1681.452 -1386.154)" fill="none" stroke="#000" stroke-miterlimit="10" stroke-width="0.25"/>
      <path id="Path_14030" data-name="Path 14030" d="M1703.5,1420.332s2.81-2.077,5.5-1.833" transform="translate(-1681.404 -1386.301)" fill="none" stroke="#000" stroke-miterlimit="10" stroke-width="0.25"/>
      <path id="Path_14031" data-name="Path 14031" d="M1763.875,1416.375s17.107.489,32.381,9.043" transform="translate(-1682.76 -1386.254)" fill="none" stroke="#000" stroke-miterlimit="10" stroke-width="0.25"/>
      <path id="Path_14032" data-name="Path 14032" d="M1794,1421a13.367,13.367,0,0,1,7.087,3.3" transform="translate(-1683.436 -1386.357)" fill="none" stroke="#000" stroke-miterlimit="10" stroke-width="0.25"/>
      <path id="Path_14033" data-name="Path 14033" d="M1816.615,1423.375s5.875,2.81,8.2,8.676" transform="translate(-1683.944 -1386.411)" fill="none" stroke="#000" stroke-miterlimit="10" stroke-width="0.25"/>
      <path id="Path_14034" data-name="Path 14034" d="M1815,1427s6.121,2.566,8.376,8.431" transform="translate(-1683.908 -1386.492)" fill="none" stroke="#000" stroke-miterlimit="10" stroke-width="0.25"/>
      <ellipse id="Ellipse_2567" data-name="Ellipse 2567" cx="4.542" cy="7.617" rx="4.542" ry="7.617" transform="translate(112.593 21.69) rotate(-60)" fill="#dffffa" stroke="#231815" stroke-miterlimit="10" stroke-width="0.25"/>
      <ellipse id="Ellipse_2568" data-name="Ellipse 2568" cx="2.261" cy="3.421" rx="2.261" ry="3.421" transform="translate(95.201 13.615) rotate(-69.325)" fill="#dffffa" stroke="#231815" stroke-miterlimit="10" stroke-width="0.25"/>
      <path id="Path_14035" data-name="Path 14035" d="M1829,1404.125s.611,11.975,4.521,15.274" transform="translate(-1684.222 -1385.979)" fill="none" stroke="#000" stroke-miterlimit="10" stroke-width="0.25"/>
      <path id="Path_14036" data-name="Path 14036" d="M1827.437,1422.375a8.064,8.064,0,0,0,5.9.978" transform="translate(-1684.186 -1386.389)" fill="none" stroke="#000" stroke-miterlimit="10" stroke-width="0.25"/>
      <path id="Path_14037" data-name="Path 14037" d="M1833.617,1422.063s-1.26,3.863.978,14.968" transform="translate(-1684.317 -1386.381)" fill="none" stroke="#000" stroke-miterlimit="10" stroke-width="0.25"/>
      <path id="Path_14038" data-name="Path 14038" d="M1828.781,1429.176a4.961,4.961,0,0,0,2.715-1.863" transform="translate(-1684.217 -1386.499)" fill="none" stroke="#000" stroke-miterlimit="10" stroke-width="0.25"/>
      <path id="Path_14039" data-name="Path 14039" d="M1830.906,1436.651s-.285-3.841,2.622-5.677" transform="translate(-1684.264 -1386.582)" fill="none" stroke="#000" stroke-miterlimit="10" stroke-width="0.25"/>
      <path id="Path_14040" data-name="Path 14040" d="M1834.1,1434.652a5.631,5.631,0,0,0-.836,4.128" transform="translate(-1684.316 -1386.664)" fill="none" stroke="#000" stroke-miterlimit="10" stroke-width="0.25"/>
      <path id="Path_14041" data-name="Path 14041" d="M1834.437,1426.781s.031,8.218,2.475,12.556" transform="translate(-1684.344 -1386.488)" fill="none" stroke="#000" stroke-miterlimit="10" stroke-width="0.25"/>
      <path id="Path_14042" data-name="Path 14042" d="M1838.187,1433.712a3.084,3.084,0,0,0,1.894-.277" transform="translate(-1684.428 -1386.637)" fill="none" stroke="#000" stroke-miterlimit="10" stroke-width="0.25"/>
      <path id="Path_14043" data-name="Path 14043" d="M1839.156,1436.493a2.849,2.849,0,0,0,2.017-.3" transform="translate(-1684.45 -1386.699)" fill="none" stroke="#000" stroke-miterlimit="10" stroke-width="0.25"/>
      <path id="Path_14044" data-name="Path 14044" d="M1836.667,1423.538a3.68,3.68,0,0,1,2.1.145" transform="translate(-1684.394 -1386.413)" fill="none" stroke="#000" stroke-miterlimit="10" stroke-width="0.25"/>
      <path id="Path_14045" data-name="Path 14045" d="M1837.208,1420.417a1.505,1.505,0,0,1,1.2.468" transform="translate(-1684.406 -1386.345)" fill="none" stroke="#000" stroke-miterlimit="10" stroke-width="0.25"/>
      <path id="Path_14046" data-name="Path 14046" d="M1837.74,1441.125a6.255,6.255,0,0,0,2.331,2.748" transform="translate(-1684.418 -1386.809)" fill="none" stroke="#000" stroke-miterlimit="10" stroke-width="0.25"/>
      <ellipse id="Ellipse_2569" data-name="Ellipse 2569" cx="3.727" cy="5.071" rx="3.727" ry="5.071" transform="matrix(0.192, -0.981, 0.981, 0.192, 229.854, 14.725)" fill="#dffffa" stroke="#231815" stroke-miterlimit="10" stroke-width="0.25"/>
      <ellipse id="Ellipse_2570" data-name="Ellipse 2570" cx="1.589" cy="2.322" rx="1.589" ry="2.322" transform="translate(245.237 14.797) rotate(-62.088)" fill="#dffffa" stroke="#231815" stroke-miterlimit="10" stroke-width="0.25"/>
      <ellipse id="Ellipse_2571" data-name="Ellipse 2571" cx="4.277" cy="5.315" rx="4.277" ry="5.315" transform="translate(247.466 26.826) rotate(-65.376)" fill="#dffffa" stroke="#231815" stroke-miterlimit="10" stroke-width="0.25"/>
      <path id="Path_14047" data-name="Path 14047" d="M1854.375,1407.512s6.476-5.5,17.962-4.764" transform="translate(-1684.791 -1385.947)" fill="none" stroke="#000" stroke-miterlimit="10" stroke-width="0.25"/>
      <path id="Path_14048" data-name="Path 14048" d="M1855.375,1409.836a11.3,11.3,0,0,1,5.988-1.711" transform="translate(-1684.814 -1386.069)" fill="none" stroke="#000" stroke-miterlimit="10" stroke-width="0.25"/>
      <path id="Path_14049" data-name="Path 14049" d="M1905.125,1429.219s11.486,1.863,15.152,1.008" transform="translate(-1685.931 -1386.542)" fill="none" stroke="#000" stroke-miterlimit="10" stroke-width="0.25"/>
      <path id="Path_14050" data-name="Path 14050" d="M1900.875,1431.562a58.16,58.16,0,0,0,15.641,1.6" transform="translate(-1685.835 -1386.595)" fill="none" stroke="#000" stroke-miterlimit="10" stroke-width="0.25"/>
      <path id="Path_14051" data-name="Path 14051" d="M1868.75,1464.608a56.389,56.389,0,0,0,33.237-.733" transform="translate(-1685.114 -1387.32)" fill="none" stroke="#000" stroke-miterlimit="10" stroke-width="0.25"/>
      <path id="Path_14052" data-name="Path 14052" d="M1895,1485.875s9.9,2.322,17.107,0" transform="translate(-1685.703 -1387.814)" fill="none" stroke="#000" stroke-miterlimit="10" stroke-width="0.25"/>
      <path id="Path_14053" data-name="Path 14053" d="M1928.706,1483.125s-7.332,7.943-23.706,8.431" transform="translate(-1685.928 -1387.753)" fill="none" stroke="#000" stroke-miterlimit="10" stroke-width="0.25"/>
      <path id="Path_14054" data-name="Path 14054" d="M1961,1423s4.277,17.474,1.711,28.96" transform="translate(-1687.185 -1386.402)" fill="none" stroke="#000" stroke-miterlimit="10" stroke-width="0.25"/>
      <path id="Path_14055" data-name="Path 14055" d="M1965.875,1438.75s1.1,5.621,0,8.8" transform="translate(-1687.294 -1386.756)" fill="none" stroke="#000" stroke-miterlimit="10" stroke-width="0.25"/>
      <path id="Path_14056" data-name="Path 14056" d="M1964.875,1444.875a10.346,10.346,0,0,1,4.277,4.643,5.973,5.973,0,0,0,7.636,2.933" transform="translate(-1687.272 -1386.894)" fill="none" stroke="#000" stroke-miterlimit="10" stroke-width="0.25"/>
      <path id="Path_14057" data-name="Path 14057" d="M1963.589,1450.438s1.429,10.692,9.133,13.013" transform="translate(-1687.243 -1387.018)" fill="none" stroke="#000" stroke-miterlimit="10" stroke-width="0.25"/>
      <path id="Path_14058" data-name="Path 14058" d="M1964.875,1451.293a7,7,0,0,0,2.993-.855" transform="translate(-1687.272 -1387.018)" fill="none" stroke="#000" stroke-miterlimit="10" stroke-width="0.25"/>
      <path id="Path_14059" data-name="Path 14059" d="M1967.937,1446.282a3.846,3.846,0,0,0,1.65-.449" transform="translate(-1687.341 -1386.915)" fill="none" stroke="#000" stroke-miterlimit="10" stroke-width="0.25"/>
      <path id="Path_14060" data-name="Path 14060" d="M1968.26,1443.7a2.147,2.147,0,0,0,1.334-.448" transform="translate(-1687.348 -1386.857)" fill="none" stroke="#000" stroke-miterlimit="10" stroke-width="0.25"/>
      <path id="Path_14061" data-name="Path 14061" d="M1965.083,1436.792a15.688,15.688,0,0,0,12.668,3.788" transform="translate(-1687.277 -1386.712)" fill="none" stroke="#000" stroke-miterlimit="10" stroke-width="0.25"/>
      <path id="Path_14062" data-name="Path 14062" d="M1965.583,1431.917a12.638,12.638,0,0,0,10.591,4.561" transform="translate(-1687.288 -1386.603)" fill="none" stroke="#000" stroke-miterlimit="10" stroke-width="0.25"/>
      <path id="Path_14063" data-name="Path 14063" d="M1964.583,1428.083s4.428,2.648,8.162,1.06" transform="translate(-1687.265 -1386.517)" fill="none" stroke="#000" stroke-miterlimit="10" stroke-width="0.25"/>
      <path id="Path_14064" data-name="Path 14064" d="M1961.245,1419.745a14.488,14.488,0,0,1,4.521-12.953" transform="translate(-1687.186 -1386.039)" fill="none" stroke="#000" stroke-miterlimit="10" stroke-width="0.25"/>
      <path id="Path_14065" data-name="Path 14065" d="M1967.6,1412.75a12.691,12.691,0,0,0-4.48,7.657" transform="translate(-1687.233 -1386.172)" fill="none" stroke="#000" stroke-miterlimit="10" stroke-width="0.25"/>
      <path id="Path_14066" data-name="Path 14066" d="M1965.083,1419.028a3.5,3.5,0,0,1,2.566-.571" transform="translate(-1687.277 -1386.299)" fill="none" stroke="#000" stroke-miterlimit="10" stroke-width="0.25"/>
      <path id="Path_14067" data-name="Path 14067" d="M1965.583,1420.57a1.714,1.714,0,0,1,1.548-.529" transform="translate(-1687.288 -1386.336)" fill="none" stroke="#000" stroke-miterlimit="10" stroke-width="0.25"/>
    </g>
    <g id="Group_3821" data-name="Group 3821" transform="translate(1664.638 1495.028)">
      <path id="Path_14068" data-name="Path 14068" d="M1941.474,1560.537s4.118-1.833,6.5-.795a15.921,15.921,0,0,0,11.058.238" transform="translate(-1671.044 -1501.323)" fill="none" stroke="#000" stroke-miterlimit="10" stroke-width="0.25"/>
      <ellipse id="Ellipse_2572" data-name="Ellipse 2572" cx="4.251" cy="2.571" rx="4.251" ry="2.571" transform="translate(270.707)" fill="#ecb36f" stroke="#000" stroke-linejoin="round" stroke-width="0.25"/>
      <ellipse id="Ellipse_2573" data-name="Ellipse 2573" cx="5.214" cy="2.517" rx="5.214" ry="2.517" transform="translate(283.001 6.544)" fill="#c19165" stroke="#000" stroke-linejoin="round" stroke-width="0.25"/>
      <ellipse id="Ellipse_2574" data-name="Ellipse 2574" cx="3.177" cy="1.423" rx="3.177" ry="1.423" transform="translate(276.647 45.126)" fill="#ecb36f" stroke="#000" stroke-linejoin="round" stroke-width="0.25"/>
      <ellipse id="Ellipse_2575" data-name="Ellipse 2575" cx="5.834" cy="2.933" rx="5.834" ry="2.933" transform="translate(214.126 107.378)" fill="#c19165" stroke="#000" stroke-linejoin="round" stroke-width="0.25"/>
      <ellipse id="Ellipse_2576" data-name="Ellipse 2576" cx="3.052" cy="1.629" rx="3.052" ry="1.629" transform="translate(202.384 105.586)" fill="#c19165" stroke="#000" stroke-linejoin="round" stroke-width="0.25"/>
      <ellipse id="Ellipse_2577" data-name="Ellipse 2577" cx="3.992" cy="1.955" rx="3.992" ry="1.955" transform="translate(135.879 135.89)" fill="#c19165" stroke="#000" stroke-linejoin="round" stroke-width="0.25"/>
      <ellipse id="Ellipse_2578" data-name="Ellipse 2578" cx="6.3" cy="2.607" rx="6.3" ry="2.607" transform="translate(33.508 122.042)" fill="#ecb36f" stroke="#000" stroke-linejoin="round" stroke-width="0.25"/>
      <ellipse id="Ellipse_2579" data-name="Ellipse 2579" cx="3.015" cy="1.711" rx="3.015" ry="1.711" transform="translate(48.713 116.013)" fill="#ecb36f" stroke="#000" stroke-linejoin="round" stroke-width="0.25"/>
      <ellipse id="Ellipse_2580" data-name="Ellipse 2580" cx="2.735" cy="1.466" rx="2.735" ry="1.466" transform="translate(0 29.989)" fill="#c19165" stroke="#000" stroke-linejoin="round" stroke-width="0.25"/>
      <path id="Path_14069" data-name="Path 14069" d="M1669.667,1518.855s7.9,2.39,14.011,0,10.08-.985,13.5,1.581,9.042,1.772,12.464-1.4" transform="translate(-1664.942 -1500.385)" fill="none" stroke="#000" stroke-miterlimit="10" stroke-width="0.25"/>
      <path id="Path_14070" data-name="Path 14070" d="M1677.562,1524.919a5.757,5.757,0,0,0,5.56,0c2.811-1.65,6.965-.611,8.8,1.16" transform="translate(-1665.119 -1500.53)" fill="none" stroke="#000" stroke-miterlimit="10" stroke-width="0.25"/>
      <path id="Path_14071" data-name="Path 14071" d="M1732.5,1624.8s5.865-3.014,10.386-.814,11.73-1.588,16.374,1.344" transform="translate(-1666.353 -1502.755)" fill="none" stroke="#000" stroke-miterlimit="10" stroke-width="0.25"/>
      <path id="Path_14072" data-name="Path 14072" d="M1752.5,1634.73a16.926,16.926,0,0,1,10.753,0c5.865,1.955,5.865.475,9.531-.434s7.576,3.7,16.985.481" transform="translate(-1666.801 -1502.994)" fill="none" stroke="#000" stroke-miterlimit="10" stroke-width="0.25"/>
      <path id="Path_14073" data-name="Path 14073" d="M1816.615,1622.169s6.975-4.155,13.94-2.322,10.221,2.488,16.964-.467,8.941,4.133,16.517,2.178" transform="translate(-1668.241 -1502.653)" fill="none" stroke="#000" stroke-miterlimit="10" stroke-width="0.25"/>
      <path id="Path_14074" data-name="Path 14074" d="M1861.875,1615.815a7.831,7.831,0,0,0,5.987,0c3.422-1.3,4.5-.959,6.83.58" transform="translate(-1669.257 -1502.571)" fill="none" stroke="#000" stroke-miterlimit="10" stroke-width="0.25"/>
      <path id="Path_14075" data-name="Path 14075" d="M1885.542,1598.346s7.413-2.811,13.156,0,12.342-2.444,19.062.733" transform="translate(-1669.788 -1502.169)" fill="none" stroke="#000" stroke-miterlimit="10" stroke-width="0.25"/>
      <path id="Path_14076" data-name="Path 14076" d="M1895,1518.022s6.843,2.74,12.464,0,7.943-.569,10.753,1.218,11.486,2.011,15.763-1.218" transform="translate(-1670 -1500.365)" fill="none" stroke="#000" stroke-miterlimit="10" stroke-width="0.25"/>
      <path id="Path_14077" data-name="Path 14077" d="M1930.25,1511.823s5.377,1.671,9.287,0,5.993,2.055,11.078.743" transform="translate(-1670.792 -1500.245)" fill="none" stroke="#000" stroke-miterlimit="10" stroke-width="0.25"/>
    </g>
    <g id="Group_3822" data-name="Group 3822" transform="translate(1683.863 1431.447)">
      <path id="Path_14078" data-name="Path 14078" d="M1698.878,1462.874s-7.454-.611-8.92,3.666.244,13.564-.855,19.062-1.955,9.9,1.466,14.541,6.354,3.177,8.309,3.666Z" transform="translate(-1684.582 -1435.573)" fill="#7a5d49" stroke="#0a0503" stroke-miterlimit="10" stroke-width="0.25"/>
      <path id="Path_14079" data-name="Path 14079" d="M1688.133,1459s4.35,5.458,3.943,11.731" transform="translate(-1684.582 -1435.487)" fill="none" stroke="#000" stroke-miterlimit="10" stroke-width="0.25"/>
      <path id="Path_14080" data-name="Path 14080" d="M1686.667,1470.167s3.666,1.547,4.725,4.643" transform="translate(-1684.548 -1435.738)" fill="none" stroke="#000" stroke-miterlimit="10" stroke-width="0.25"/>
      <path id="Path_14081" data-name="Path 14081" d="M1684.5,1473.083a17.045,17.045,0,0,1,7.521,7.414" transform="translate(-1684.5 -1435.803)" fill="none" stroke="#000" stroke-miterlimit="10" stroke-width="0.25"/>
      <path id="Path_14082" data-name="Path 14082" d="M1685.833,1480.667s4.7.733,6.218,3.91" transform="translate(-1684.53 -1435.973)" fill="none" stroke="#000" stroke-miterlimit="10" stroke-width="0.25"/>
      <path id="Path_14083" data-name="Path 14083" d="M1687.25,1487.75s1.874,2.118,4.155,1.058" transform="translate(-1684.562 -1436.132)" fill="none" stroke="#000" stroke-miterlimit="10" stroke-width="0.25"/>
      <path id="Path_14084" data-name="Path 14084" d="M1686.667,1493.167s3.882,1.955,5.4,0" transform="translate(-1684.548 -1436.254)" fill="none" stroke="#000" stroke-miterlimit="10" stroke-width="0.25"/>
      <path id="Path_14085" data-name="Path 14085" d="M1685.833,1499s4.371-.162,6.218-3.666" transform="translate(-1684.53 -1436.302)" fill="none" stroke="#000" stroke-miterlimit="10" stroke-width="0.25"/>
      <path id="Path_14086" data-name="Path 14086" d="M1688.347,1506.39s.507-5.767,3.761-8.39" transform="translate(-1684.586 -1436.362)" fill="none" stroke="#000" stroke-miterlimit="10" stroke-width="0.25"/>
      <path id="Path_14087" data-name="Path 14087" d="M1842.932,1445.263s-50.181-13.686-84.395-9.531-52.054,7.576-59.63,23.706-1.955,23.213-3.177,32.135,1.222,25.3,17.84,36.049,45.157,15.885,55.327,21.017,55.754,8.286,68.887,5.487Z" transform="translate(-1684.733 -1434.947)" fill="#f4d6b3" stroke="#000" stroke-miterlimit="10" stroke-width="0.25"/>
      <ellipse id="Ellipse_2581" data-name="Ellipse 2581" cx="2.34" cy="3.039" rx="2.34" ry="3.039" transform="matrix(0.649, -0.761, 0.761, 0.649, 130.718, 12.005)" fill="#dffffa" stroke="#231815" stroke-miterlimit="10" stroke-width="0.25"/>
      <ellipse id="Ellipse_2582" data-name="Ellipse 2582" cx="6.11" cy="3.605" rx="6.11" ry="3.605" transform="translate(49.034 18.061) rotate(-24.402)" fill="#dffffa" stroke="#231815" stroke-miterlimit="10" stroke-width="0.25"/>
      <ellipse id="Ellipse_2583" data-name="Ellipse 2583" cx="2.933" cy="1.65" rx="2.933" ry="1.65" transform="matrix(0.799, -0.601, 0.601, 0.799, 39.296, 15.492)" fill="#dffffa" stroke="#231815" stroke-miterlimit="10" stroke-width="0.25"/>
      <path id="Path_14088" data-name="Path 14088" d="M1705.167,1505.25a17.292,17.292,0,0,0,6.191,3.91" transform="translate(-1684.964 -1436.525)" fill="none" stroke="#000" stroke-miterlimit="10" stroke-width="0.25"/>
      <path id="Path_14089" data-name="Path 14089" d="M1713.25,1474.9s12.627-1.955,18.981,0" transform="translate(-1685.145 -1435.824)" fill="none" stroke="#000" stroke-miterlimit="10" stroke-width="0.25"/>
      <path id="Path_14090" data-name="Path 14090" d="M1708.583,1470.114s13.768-3.666,33.563-1.711" transform="translate(-1685.041 -1435.685)" fill="none" stroke="#000" stroke-miterlimit="10" stroke-width="0.25"/>
      <path id="Path_14091" data-name="Path 14091" d="M1704.917,1459.889s2.933-4.154,6.191-4.807" transform="translate(-1684.958 -1435.399)" fill="none" stroke="#000" stroke-miterlimit="10" stroke-width="0.25"/>
      <path id="Path_14092" data-name="Path 14092" d="M1725.75,1518.052s32.015,20.314,62.482,19.826" transform="translate(-1685.426 -1436.812)" fill="none" stroke="#000" stroke-miterlimit="10" stroke-width="0.25"/>
      <path id="Path_14093" data-name="Path 14093" d="M1768.5,1530.667s5.54,2.444,8.472,1.629" transform="translate(-1686.386 -1437.096)" fill="none" stroke="#000" stroke-miterlimit="10" stroke-width="0.25"/>
      <path id="Path_14094" data-name="Path 14094" d="M1785.333,1488.443a53.142,53.142,0,0,0,15.967,3.779" transform="translate(-1686.763 -1436.148)" fill="none" stroke="#000" stroke-miterlimit="10" stroke-width="0.25"/>
      <path id="Path_14095" data-name="Path 14095" d="M1794.667,1487s1.043,1.206,4.236,1.411" transform="translate(-1686.973 -1436.115)" fill="none" stroke="#000" stroke-miterlimit="10" stroke-width="0.25"/>
      <path id="Path_14096" data-name="Path 14096" d="M1793.5,1469a28.485,28.485,0,0,1,7.576,1.143" transform="translate(-1686.947 -1435.711)" fill="none" stroke="#000" stroke-miterlimit="10" stroke-width="0.25"/>
      <path id="Path_14097" data-name="Path 14097" d="M1782.25,1442.494s16.13-1.711,26.964,3.666" transform="translate(-1686.694 -1435.11)" fill="none" stroke="#000" stroke-miterlimit="10" stroke-width="0.25"/>
      <path id="Path_14098" data-name="Path 14098" d="M1797.75,1446.917s9.612.489,15.233,5.05" transform="translate(-1687.042 -1435.215)" fill="none" stroke="#000" stroke-miterlimit="10" stroke-width="0.25"/>
      <path id="Path_14099" data-name="Path 14099" d="M1845.533,1445.5c10.3.972,20.855,22.158,21.344,39.1s-2.77,23.787-1.63,35.355-12.056,35.354-27.7,34.376-24.6-22.157-26.394-33.725,1.955-36.7,10.915-52.075S1836.9,1444.685,1845.533,1445.5Z" transform="translate(-1687.334 -1435.182)" fill="#fff6eb" stroke="#000" stroke-miterlimit="10" stroke-width="0.25"/>
      <path id="Path_14100" data-name="Path 14100" d="M1844.867,1451.667c4.886-.208,6.435,7.82,6.517,14.581s-3.1,13.523-6.517,13.523-5.865-6.354-5.784-13.36S1841.038,1451.829,1844.867,1451.667Z" transform="translate(-1687.97 -1435.322)" fill="#d6a47b" stroke="#000" stroke-miterlimit="10" stroke-width="0.25"/>
      <path id="Path_14101" data-name="Path 14101" d="M1863.7,1474.458c2.058,1.981.306,6.381-1.893,10.046s-6.517,7.169-8.065,4.4.814-8.879,3.014-11.65S1861.934,1472.76,1863.7,1474.458Z" transform="translate(-1688.288 -1435.818)" fill="#d6a47b" stroke="#000" stroke-miterlimit="10" stroke-width="0.25"/>
      <path id="Path_14102" data-name="Path 14102" d="M1864.705,1495.033c.071-2.36-2.442-2.708-4.947-1.425s-2.893,2.974-1.771,4.461S1864.582,1499.148,1864.705,1495.033Z" transform="translate(-1688.381 -1436.247)" fill="#d6a47b" stroke="#000" stroke-miterlimit="10" stroke-width="0.25"/>
      <path id="Path_14103" data-name="Path 14103" d="M1864.7,1506.589c.444-1.509-1.412-3.3-3.659-3.381s-4.08.815-4,2.77,3.095,2.647,4.643,2.4S1864.292,1507.974,1864.7,1506.589Z" transform="translate(-1688.374 -1436.479)" fill="#d6a47b" stroke="#000" stroke-miterlimit="10" stroke-width="0.25"/>
      <path id="Path_14104" data-name="Path 14104" d="M1861.1,1522.816c2.34-.52,2.932-3.585.529-6.639s-6.843-3.91-8.227-2.566.285,5.54,2.2,7.087S1859.637,1523.142,1861.1,1522.816Z" transform="translate(-1688.28 -1436.699)" fill="#d6a47b" stroke="#000" stroke-miterlimit="10" stroke-width="0.25"/>
      <path id="Path_14105" data-name="Path 14105" d="M1847.258,1522.619c2.039-.393,5.376,1.919,7.21,8.884s2.728,10.591-.326,11.405-5.784-4.114-7.005-8.473S1844.773,1523.1,1847.258,1522.619Z" transform="translate(-1688.121 -1436.914)" fill="#d6a47b" stroke="#000" stroke-miterlimit="10" stroke-width="0.25"/>
      <path id="Path_14106" data-name="Path 14106" d="M1839.15,1523.092c-3.632-2.084-8.2.056-11.619,5.758s-3.339,13.849,2.77,17.107,10.834-3.5,11.893-9.857S1842.46,1524.991,1839.15,1523.092Z" transform="translate(-1687.66 -1436.908)" fill="#d6a47b" stroke="#000" stroke-miterlimit="10" stroke-width="0.25"/>
      <path id="Path_14107" data-name="Path 14107" d="M1833.233,1508.506c-.7-2.582-5.8-2.275-10.082,0s-8.388,6.532-6.547,9.291,8.013.622,12.351-2.006S1833.66,1510.081,1833.233,1508.506Z" transform="translate(-1687.455 -1436.557)" fill="#d6a47b" stroke="#000" stroke-miterlimit="10" stroke-width="0.25"/>
      <path id="Path_14108" data-name="Path 14108" d="M1844.7,1502.563c2.324.353,3.36,5.682,0,6.232S1841.886,1502.134,1844.7,1502.563Z" transform="translate(-1688.044 -1436.464)" fill="#d6a47b" stroke="#000" stroke-miterlimit="10" stroke-width="0.25"/>
      <path id="Path_14109" data-name="Path 14109" d="M1841.765,1496.279c.989-.611,3.921,1.508,2.169,3.635C1842.348,1501.839,1839.834,1497.472,1841.765,1496.279Z" transform="translate(-1688.015 -1436.321)" fill="#d6a47b" stroke="#000" stroke-miterlimit="10" stroke-width="0.25"/>
      <path id="Path_14110" data-name="Path 14110" d="M1849.128,1499.954a1.3,1.3,0,1,1-1.283-1.539A1.428,1.428,0,0,1,1849.128,1499.954Z" transform="translate(-1688.138 -1436.372)" fill="#d6a47b" stroke="#000" stroke-miterlimit="10" stroke-width="0.25"/>
      <path id="Path_14111" data-name="Path 14111" d="M1819.178,1490.216c1.768-3.285,6.782-2.83,10.753-.508s3.727,5.987,0,6.72S1816.734,1494.755,1819.178,1490.216Z" transform="translate(-1687.515 -1436.135)" fill="#d6a47b" stroke="#000" stroke-miterlimit="10" stroke-width="0.25"/>
      <path id="Path_14112" data-name="Path 14112" d="M1824.051,1472.655c1.71-2.6,5.593-1.344,8.875,1.589s4.322,7.759,2,9.1-5.987-1.222-8.187-3.421S1822.646,1474.793,1824.051,1472.655Z" transform="translate(-1687.622 -1435.761)" fill="#d6a47b" stroke="#000" stroke-miterlimit="10" stroke-width="0.25"/>
    </g>
    <g id="Group_3823" data-name="Group 3823" transform="translate(1843.194 1530.904)">
      <path id="Path_14113" data-name="Path 14113" d="M1847.664,1548.427s-.653,11.68.569,15.1,6.72,8.92,18.94,11.364,31.037.978,35.925,1.589,26.272-5.132,30.793-6.721,5.865-3.544,5.743-5.988-.978-10.631-1.1-14.052Z" transform="translate(-1847.49 -1536.951)" fill="#f4d6b3" stroke="#000" stroke-miterlimit="10" stroke-width="0.25"/>
      <path id="Path_14114" data-name="Path 14114" d="M1849.092,1545.424c3.852-3.349,17.718-6.476,24.317-7.454s31.526-2.688,43.868.855,21.384,6.476,21.262,10.631-9.776,10.753-35.436,10.142-41.581-3.338-46.917-5.437S1844.876,1549.09,1849.092,1545.424Z" transform="translate(-1847.494 -1536.688)" fill="#fff6eb" stroke="#000" stroke-miterlimit="10" stroke-width="0.25"/>
      <ellipse id="Ellipse_2584" data-name="Ellipse 2584" cx="7.118" cy="3.36" rx="7.118" ry="3.36" transform="translate(9.663 7.514)" fill="#d6a47b" stroke="#000" stroke-miterlimit="10" stroke-width="0.25"/>
      <path id="Path_14115" data-name="Path 14115" d="M1874.292,1541.231c1.617-1.444,9.715-1.222,10.264,3.055S1869.71,1545.325,1874.292,1541.231Z" transform="translate(-1848.072 -1536.772)" fill="#d6a47b" stroke="#000" stroke-miterlimit="10" stroke-width="0.25"/>
      <circle id="Ellipse_2585" data-name="Ellipse 2585" cx="1.268" cy="1.268" r="1.268" transform="translate(39.967 3.176)" fill="#d6a47b" stroke="#000" stroke-miterlimit="10" stroke-width="0.25"/>
      <ellipse id="Ellipse_2586" data-name="Ellipse 2586" cx="1.691" cy="0.971" rx="1.691" ry="0.971" transform="translate(42.228 9.533)" fill="#d6a47b" stroke="#000" stroke-miterlimit="10" stroke-width="0.25"/>
      <path id="Path_14116" data-name="Path 14116" d="M1893.625,1550.131a1.069,1.069,0,1,1,1.069,1.069A1.07,1.07,0,0,1,1893.625,1550.131Z" transform="translate(-1848.526 -1536.966)" fill="#d6a47b" stroke="#000" stroke-miterlimit="10" stroke-width="0.25"/>
      <path id="Path_14117" data-name="Path 14117" d="M1897.421,1538.551c1.511-1.147,4.46-.306,5.8,1.344s-.551,4.149-3.177,3.418S1895.649,1539.895,1897.421,1538.551Z" transform="translate(-1848.595 -1536.718)" fill="#d6a47b" stroke="#000" stroke-miterlimit="10" stroke-width="0.25"/>
      <path id="Path_14118" data-name="Path 14118" d="M1913.342,1539.925c-1.573-1.418-4.094.091-5.743,1.267s-1.344,2.277,0,3.07S1916.131,1542.439,1913.342,1539.925Z" transform="translate(-1848.814 -1536.748)" fill="#d6a47b" stroke="#000" stroke-miterlimit="10" stroke-width="0.25"/>
      <path id="Path_14119" data-name="Path 14119" d="M1933.379,1547.75c1.07-2.544-2.107-3.994-9.255-3.688s-10.081.977-10.875,2.993,7.148,4.407,11.792,4.338C1929.291,1551.33,1932.4,1550.072,1933.379,1547.75Z" transform="translate(-1848.964 -1536.853)" fill="#d6a47b" stroke="#000" stroke-miterlimit="10" stroke-width="0.25"/>
      <path id="Path_14120" data-name="Path 14120" d="M1896.118,1546.433c.787-.754,5.351.038,4.05,1.943S1894.713,1547.78,1896.118,1546.433Z" transform="translate(-1848.575 -1536.901)" fill="#d6a47b" stroke="#000" stroke-miterlimit="10" stroke-width="0.25"/>
      <path id="Path_14121" data-name="Path 14121" d="M1911.682,1551.937c.855-.489,3.6,1.649,2.41,2.322S1910.827,1552.425,1911.682,1551.937Z" transform="translate(-1848.926 -1537.029)" fill="#d6a47b" stroke="#000" stroke-miterlimit="10" stroke-width="0.25"/>
      <path id="Path_14122" data-name="Path 14122" d="M1898.151,1552.485c1.214-1.2,5.832-.811,8.119,1.886s-1.258,5.019-5.046,3.552S1896.482,1554.135,1898.151,1552.485Z" transform="translate(-1848.609 -1537.028)" fill="#d6a47b" stroke="#000" stroke-miterlimit="10" stroke-width="0.25"/>
      <path id="Path_14123" data-name="Path 14123" d="M1888.274,1552.188c1.836.072,3.666,1.833,2.658,3.482s-4.369,1.925-6.263.641S1884.394,1552.034,1888.274,1552.188Z" transform="translate(-1848.307 -1537.036)" fill="#d6a47b" stroke="#000" stroke-miterlimit="10" stroke-width="0.25"/>
      <path id="Path_14124" data-name="Path 14124" d="M1876.7,1550.81c1.948.441,1.62,3.513-.763,4.123s-4.491-.06-4-1.771A3.87,3.87,0,0,1,1876.7,1550.81Z" transform="translate(-1848.037 -1537.002)" fill="#d6a47b" stroke="#000" stroke-miterlimit="10" stroke-width="0.25"/>
      <path id="Path_14125" data-name="Path 14125" d="M1867.124,1563.625s-.409,5.744,1.069,8.859" transform="translate(-1847.929 -1537.293)" fill="none" stroke="#000" stroke-miterlimit="10" stroke-width="0.25"/>
      <path id="Path_14126" data-name="Path 14126" d="M1864.653,1566.438a12.045,12.045,0,0,0,0,3.3" transform="translate(-1847.872 -1537.356)" fill="none" stroke="#000" stroke-miterlimit="10" stroke-width="0.25"/>
      <path id="Path_14127" data-name="Path 14127" d="M1869.684,1568.125a11.847,11.847,0,0,0,0,3.421" transform="translate(-1847.985 -1537.394)" fill="none" stroke="#000" stroke-miterlimit="10" stroke-width="0.25"/>
      <line id="Line_821" data-name="Line 821" y2="3.055" transform="translate(47.91 29.753)" fill="none" stroke="#000" stroke-miterlimit="10" stroke-width="0.25"/>
      <path id="Path_14128" data-name="Path 14128" d="M1897.937,1568.125a13.009,13.009,0,0,1,0,3.116" transform="translate(-1848.622 -1537.394)" fill="none" stroke="#000" stroke-miterlimit="10" stroke-width="0.25"/>
      <path id="Path_14129" data-name="Path 14129" d="M1914.452,1568.688a5.017,5.017,0,0,1,0,2.871" transform="translate(-1848.993 -1537.406)" fill="none" stroke="#000" stroke-miterlimit="10" stroke-width="0.25"/>
      <path id="Path_14130" data-name="Path 14130" d="M1916.25,1565.813a23.436,23.436,0,0,1,0,9.423" transform="translate(-1849.034 -1537.342)" fill="none" stroke="#000" stroke-miterlimit="10" stroke-width="0.25"/>
      <path id="Path_14131" data-name="Path 14131" d="M1921.437,1569.188a3.525,3.525,0,0,1,0,2.382" transform="translate(-1849.15 -1537.418)" fill="none" stroke="#000" stroke-miterlimit="10" stroke-width="0.25"/>
      <path id="Path_14132" data-name="Path 14132" d="M1934.05,1563.063a4.461,4.461,0,0,1,.256,2.26" transform="translate(-1849.433 -1537.28)" fill="none" stroke="#000" stroke-miterlimit="10" stroke-width="0.25"/>
      <path id="Path_14133" data-name="Path 14133" d="M1936.562,1560.563a15.076,15.076,0,0,1,0,5.926" transform="translate(-1849.489 -1537.224)" fill="none" stroke="#000" stroke-miterlimit="10" stroke-width="0.25"/>
    </g>
  </g>
</svg>
