<svg xmlns="http://www.w3.org/2000/svg" width="274.654" height="358.184" viewBox="0 0 274.654 358.184">
  <g id="Group_3917" data-name="Group 3917" transform="translate(-1306.917 -1279.687)">
    <g id="Group_3908" data-name="Group 3908" transform="translate(1386.263 1279.812)">
      <path id="Path_14930" data-name="Path 14930" d="M1425.807,1369.583a3.708,3.708,0,0,0-1.39,2.247" transform="translate(-1388.437 -1281.475)" fill="none" stroke="#000" stroke-miterlimit="10" stroke-width="0.25"/>
      <path id="Path_14931" data-name="Path 14931" d="M1409.19,1279.813c.654.051,3.4,5.06,4.2,4.938s1.687-3.773,2.454-3.711,1.5,5.98,2.944,6.2,2.423-2.454,3.037-2.178,1.165,6.012,2.515,6.319,2.116-1.963,3.129-1.472,1.56,8.5,2.308,8.741,2.711-1.554,3.407-1.308,1.063,7.647,2.045,8.015,2.576-2.208,3.681-1.676.572,9.488,2.044,10.142,1.718-2.29,2.74-1.676.491,9.406,1.35,9.733,2.331-.818,3.6,0-.287,5.07.491,5.644,2.086-.45,2.822,0,7.32,50.137-23.9,67.558c0,0-12.248,3.845-20.836,1.6s-16.848-23.514-16.03-24.5,3.19.491,3.6-.245-5.889-7.034-5.235-8.261,3.518-.409,4.254-.982-6.87-8.833-5.971-10.142,5.235-.736,5.726-1.636-5.071-8.915-4.008-9.569,4.335.491,5.153-.409-4.334-13.086-3.681-13.986,3.435,1.064,4.171.409-3.353-8.343-2.862-9.651,2.944,1.88,3.517.9-3.19-7.606-2.618-8.179,3.763,1.063,4.5.245-2.863-7.443-2.045-7.852,3.6,1.554,4.171,1.227-2.126-6.134-1.39-6.706,3.107,1.635,4.007.736-2.208-7.934-1.145-8.425,3.19.819,3.844.164-1.227-6.216.164-6.544,2.781,1.391,3.435,1.145S1408.157,1279.731,1409.19,1279.813Z" transform="translate(-1387.758 -1279.812)" fill="#a5b63d" stroke="#231815" stroke-miterlimit="10" stroke-width="0.25"/>
      <path id="Path_14932" data-name="Path 14932" d="M1409.594,1279.813s17.084,53.755,13.812,84.959" transform="translate(-1388.162 -1279.812)" fill="none" stroke="#000" stroke-miterlimit="10" stroke-width="0.25"/>
      <path id="Path_14933" data-name="Path 14933" d="M1407.667,1301.5s4.251,10.417,10.59,12.079" transform="translate(-1388.127 -1280.214)" fill="none" stroke="#000" stroke-miterlimit="10" stroke-width="0.25"/>
      <path id="Path_14934" data-name="Path 14934" d="M1422.261,1299.667s.325,10.09-3.8,13.878" transform="translate(-1388.326 -1280.18)" fill="none" stroke="#000" stroke-miterlimit="10" stroke-width="0.25"/>
      <path id="Path_14935" data-name="Path 14935" d="M1403.083,1319.833s8.309,15.458,19.1,16.685" transform="translate(-1388.042 -1280.553)" fill="none" stroke="#000" stroke-miterlimit="10" stroke-width="0.25"/>
      <path id="Path_14936" data-name="Path 14936" d="M1434.279,1314.167s-.073,16.771-11.736,22.246" transform="translate(-1388.402 -1280.448)" fill="none" stroke="#000" stroke-miterlimit="10" stroke-width="0.25"/>
      <path id="Path_14937" data-name="Path 14937" d="M1399.312,1342.688s10.139,13.929,24.3,16.564" transform="translate(-1387.972 -1280.977)" fill="none" stroke="#000" stroke-miterlimit="10" stroke-width="0.25"/>
      <path id="Path_14938" data-name="Path 14938" d="M1439.275,1333.75s-2.253,18.9-15.2,25.337" transform="translate(-1388.43 -1280.811)" fill="none" stroke="#000" stroke-miterlimit="10" stroke-width="0.25"/>
      <path id="Path_14939" data-name="Path 14939" d="M1399.312,1364.583s7.27,11.942,21.476,13.332" transform="translate(-1387.972 -1281.382)" fill="none" stroke="#000" stroke-miterlimit="10" stroke-width="0.25"/>
    </g>
    <g id="Group_3909" data-name="Group 3909" transform="translate(1321.844 1329.395)">
      <path id="Path_14940" data-name="Path 14940" d="M1328.411,1330.387c.671-.635,5.884,4.316,6.664,3.986s-.738-3.327.163-3.461,5.989,6.478,6.675,6.345-.432-2.3.341-2.473,5.195,5.674,6.1,5.386-.263-2.815.707-2.9,4.944,6.877,6.077,6.863.07-3.262.834-3.069,5.153,7.46,6.07,7.232.884-3.567,2.009-3.426,5.549,9.519,6.862,9.478,2.558-3.661,3.271-3.4,3.105,8.345,4.757,9.144,1.114-3.948,2.69-3.624,4.436,12.6,5.751,12.991,2.022-2.508,2.857-2.048,1.667,8.988,3.431,9.924,2.178-2.286,3.04-1.646,2.907,9.909,3.836,10.385,1.463-2.762,2.591-2.193,1.383,10.809,2.5,11.319,1.68-2.12,2.688-1.533.793,11.173,1.561,12.01,1.823-.944,2.342-.347-1.309,9.613.01,10.645,1.2-2.263,2.492-1.2,1.446,33.465-20.105,44.939a82.967,82.967,0,0,1-34.645-13.312c-16.8-11.507-21.246-15.772-20.711-16.819s3.221-.342,3.6-1.063-6.353-6.671-6.024-8.194,3.49-.057,3.923-1.18-9.248-10.874-8.638-12.667,3.646.382,4.271-.677-7.9-8.911-7.431-10.729,3.4.28,3.718-.688-8.134-12.372-7.28-14.063,3.8,1.139,4.271-.678-6.613-11.4-5.614-12.744,2.98.524,3.76-.42-5.217-8.2-4.567-9.724,3.067.512,3.692-.547-5.669-11.264-4.737-12.738,2.75,1.48,3.594.344-2.439-9.028-1.285-9.935,4.122,2.98,4.932,2.538S1327.066,1331.66,1328.411,1330.387Z" transform="translate(-1322.123 -1330.331)" fill="#cad226" stroke="#231815" stroke-miterlimit="10" stroke-width="0.25"/>
      <path id="Path_14941" data-name="Path 14941" d="M1328.53,1330.388s41.5,57.056,66.22,129.338" transform="translate(-1322.242 -1330.332)" fill="none" stroke="#000" stroke-miterlimit="10" stroke-width="0.25"/>
      <path id="Path_14942" data-name="Path 14942" d="M1348.614,1345.3s3.88,11.4-.063,15.707" transform="translate(-1322.612 -1330.608)" fill="none" stroke="#000" stroke-miterlimit="10" stroke-width="0.25"/>
      <path id="Path_14943" data-name="Path 14943" d="M1334.873,1350.457s4.313,9.514,13.425,10.644" transform="translate(-1322.359 -1330.703)" fill="none" stroke="#000" stroke-miterlimit="10" stroke-width="0.25"/>
      <path id="Path_14944" data-name="Path 14944" d="M1364.861,1356.2s5.18,15.963-3.044,28.388" transform="translate(-1322.858 -1330.81)" fill="none" stroke="#000" stroke-miterlimit="10" stroke-width="0.25"/>
      <path id="Path_14945" data-name="Path 14945" d="M1336.169,1368.52s12.442,16.678,25.173,16.3" transform="translate(-1322.383 -1331.038)" fill="none" stroke="#000" stroke-miterlimit="10" stroke-width="0.25"/>
      <path id="Path_14946" data-name="Path 14946" d="M1383.516,1371.873s1.83,26.858-8.606,39.289" transform="translate(-1323.101 -1331.1)" fill="none" stroke="#000" stroke-miterlimit="10" stroke-width="0.25"/>
      <path id="Path_14947" data-name="Path 14947" d="M1337.67,1391.148s19.268,23.818,36.549,20.371" transform="translate(-1322.411 -1331.457)" fill="none" stroke="#000" stroke-miterlimit="10" stroke-width="0.25"/>
      <path id="Path_14948" data-name="Path 14948" d="M1397.483,1394.248s8.194,20.192-10.285,46.246" transform="translate(-1323.328 -1331.515)" fill="none" stroke="#000" stroke-miterlimit="10" stroke-width="0.25"/>
      <path id="Path_14949" data-name="Path 14949" d="M1342.935,1414.283s21.528,31.657,43.443,26.582" transform="translate(-1322.508 -1331.886)" fill="none" stroke="#000" stroke-miterlimit="10" stroke-width="0.25"/>
    </g>
    <g id="Group_3910" data-name="Group 3910" transform="translate(1321.766 1399.714)">
      <path id="Path_14950" data-name="Path 14950" d="M1364.646,1444.694s-6.263-9.032-13.743-12.944l-1.7,1.483a43.746,43.746,0,0,1,13.3,12.031Z" transform="translate(-1322.547 -1402.528)" fill="#cad226" stroke="#231815" stroke-miterlimit="10" stroke-width="0.25"/>
      <path id="Path_14951" data-name="Path 14951" d="M1355.345,1402.981c-4.679-2.3-13.557-1.227-14.722,9.324s5.627,17.05,7.731,17.3,11.959-7.913,13.186-14.906S1358.841,1404.7,1355.345,1402.981Z" transform="translate(-1322.386 -1401.976)" fill="#fff6eb" stroke="#000" stroke-miterlimit="10" stroke-width="0.25"/>
      <path id="Path_14952" data-name="Path 14952" d="M1374.84,1429.911c1.371-5.641-.674-13.624-11.042-11.17s-13.974,9.663-13.985,11.9,2.269,5.4,11.348,6.993S1373.735,1434.456,1374.84,1429.911Z" transform="translate(-1322.558 -1402.278)" fill="#fff6eb" stroke="#000" stroke-miterlimit="10" stroke-width="0.25"/>
      <path id="Path_14953" data-name="Path 14953" d="M1323.5,1415.984c-5.354,7.987,5.236,15.773,12.46,16.346s8.413-.735,9.177-1.8,3.384-5.432-3.463-12.351C1334.566,1411,1327.146,1410.547,1323.5,1415.984Z" transform="translate(-1322.044 -1402.168)" fill="#fff6eb" stroke="#000" stroke-miterlimit="10" stroke-width="0.25"/>
      <path id="Path_14954" data-name="Path 14954" d="M1322.6,1444.736c4.056,9.438,17.583,5.216,21.936-1.786s3.654-8.889,2.978-10.217-3.723-6.26-14.3-2.953C1322.237,1433.211,1321.24,1441.579,1322.6,1444.736Z" transform="translate(-1322.046 -1402.471)" fill="#fff6eb" stroke="#000" stroke-miterlimit="10" stroke-width="0.25"/>
      <path id="Path_14955" data-name="Path 14955" d="M1349.692,1457.951c10.273-.013,11.716-12.935,6.993-19.13s-6.733-6.287-8.22-6.2-7.22.877-8.343,10.981C1338.957,1454.095,1346.257,1457.955,1349.692,1457.951Z" transform="translate(-1322.377 -1402.544)" fill="#fff6eb" stroke="#000" stroke-miterlimit="10" stroke-width="0.25"/>
      <path id="Path_14956" data-name="Path 14956" d="M1350.432,1432.555c1.362-1.362-1.248-5.141-4-7.049l-2.878,4.568S1348.286,1434.7,1350.432,1432.555Z" transform="translate(-1322.443 -1402.412)" fill="#ffc064" stroke="#000" stroke-linejoin="round" stroke-width="0.25"/>
      <ellipse id="Ellipse_2688" data-name="Ellipse 2688" cx="2.699" cy="1.534" rx="2.699" ry="1.534" transform="translate(19.817 26.844) rotate(-57.787)" fill="#ffc064" stroke="#000" stroke-linejoin="round" stroke-width="0.25"/>
      <path id="Path_14957" data-name="Path 14957" d="M1331.417,1424.792a24.272,24.272,0,0,1,13.354,3.966" transform="translate(-1322.218 -1402.399)" fill="none" stroke="#000" stroke-miterlimit="10" stroke-width="0.25"/>
      <path id="Path_14958" data-name="Path 14958" d="M1337.917,1435.06s2.131-4.722,6.974-5.674" transform="translate(-1322.338 -1402.484)" fill="none" stroke="#000" stroke-miterlimit="10" stroke-width="0.25"/>
      <path id="Path_14959" data-name="Path 14959" d="M1334.083,1416.542s7.812,5.871,11.124,11.892" transform="translate(-1322.267 -1402.246)" fill="none" stroke="#000" stroke-miterlimit="10" stroke-width="0.25"/>
      <path id="Path_14960" data-name="Path 14960" d="M1349.151,1416.542a11.458,11.458,0,0,0-2.781,10.264" transform="translate(-1322.49 -1402.246)" fill="none" stroke="#000" stroke-miterlimit="10" stroke-width="0.25"/>
      <path id="Path_14961" data-name="Path 14961" d="M1342.125,1412.152s-.614,9.339,3.558,15.064" transform="translate(-1322.415 -1402.165)" fill="none" stroke="#000" stroke-miterlimit="10" stroke-width="0.25"/>
    </g>
    <g id="Group_3911" data-name="Group 3911" transform="translate(1399.693 1294.902)">
      <path id="Path_14962" data-name="Path 14962" d="M1484.374,1299.788c-.5-1.347,2.208-4.539,6.38-4.6s2.392,2.515,5.276,4.049,9.815,4.232,11.778,16.623-.368,20.488-3.558,22.7l-1.718-1.227s3.149-5.766,2-16.481-6.708-18.239-11.124-18.075-5.153-.328-6.38-1.8S1484.906,1301.219,1484.374,1299.788Z" transform="translate(-1402.976 -1295.187)" fill="#cad226" stroke="#231815" stroke-miterlimit="10" stroke-width="0.25"/>
      <path id="Path_14963" data-name="Path 14963" d="M1503.246,1336.327c6.075,1.742,19.3-8.179,34.352,3.435s32.716,44.659,26.827,80.973-14.231,43.511-36.315,53.9-54.553,33.526-83.18,7.316-45.221-30.981-43.344-71.372,28.131-76.214,55.367-81.121,33.493-.859,37.91,2.086S1500.464,1335.53,1503.246,1336.327Z" transform="translate(-1401.441 -1295.779)" fill="#93485c" stroke="#000" stroke-miterlimit="10" stroke-width="0.25"/>
      <ellipse id="Ellipse_2689" data-name="Ellipse 2689" cx="3.844" cy="2.127" rx="3.844" ry="2.127" transform="translate(44.357 49.386) rotate(-35.426)" fill="#dffffa" stroke="#231815" stroke-miterlimit="10" stroke-width="0.25"/>
      <ellipse id="Ellipse_2690" data-name="Ellipse 2690" cx="4.907" cy="2.863" rx="4.907" ry="2.863" transform="translate(38.584 61.681) rotate(-30)" fill="#dffffa" stroke="#231815" stroke-miterlimit="10" stroke-width="0.25"/>
      <path id="Path_14964" data-name="Path 14964" d="M1514.89,1350.457s27.809,52.882-.027,113.4" transform="translate(-1403.542 -1296.211)" fill="none" stroke="#000" stroke-miterlimit="10" stroke-width="0.25"/>
      <path id="Path_14965" data-name="Path 14965" d="M1465.138,1340.667a1.889,1.889,0,0,0-1.555,1.472" transform="translate(-1402.592 -1296.029)" fill="none" stroke="#000" stroke-miterlimit="10" stroke-width="0.25"/>
      <path id="Path_14966" data-name="Path 14966" d="M1480.833,1348s.655,1.963,0,2.944" transform="translate(-1402.912 -1296.165)" fill="none" stroke="#000" stroke-miterlimit="10" stroke-width="0.25"/>
      <path id="Path_14967" data-name="Path 14967" d="M1468.315,1354.917s-1.063,1.227-.982,1.963" transform="translate(-1402.662 -1296.293)" fill="none" stroke="#000" stroke-miterlimit="10" stroke-width="0.25"/>
      <path id="Path_14968" data-name="Path 14968" d="M1489.741,1362.833a3.544,3.544,0,0,1-.491,2.781" transform="translate(-1403.068 -1296.44)" fill="none" stroke="#000" stroke-miterlimit="10" stroke-width="0.25"/>
      <path id="Path_14969" data-name="Path 14969" d="M1498.667,1375.333a3.309,3.309,0,0,1,0,2.291" transform="translate(-1403.242 -1296.671)" fill="none" stroke="#000" stroke-miterlimit="10" stroke-width="0.25"/>
      <path id="Path_14970" data-name="Path 14970" d="M1479.308,1371.25a4.116,4.116,0,0,1-1.308,3.026" transform="translate(-1402.859 -1296.596)" fill="none" stroke="#000" stroke-miterlimit="10" stroke-width="0.25"/>
      <path id="Path_14971" data-name="Path 14971" d="M1442.234,1365.25a2.326,2.326,0,0,0-.818,2.208" transform="translate(-1402.182 -1296.485)" fill="none" stroke="#000" stroke-miterlimit="10" stroke-width="0.25"/>
      <path id="Path_14972" data-name="Path 14972" d="M1430.554,1382.583a2.333,2.333,0,0,0-.887,1.963" transform="translate(-1401.964 -1296.806)" fill="none" stroke="#000" stroke-miterlimit="10" stroke-width="0.25"/>
      <path id="Path_14973" data-name="Path 14973" d="M1455.494,1386.75a5.531,5.531,0,0,1-.327,3.271" transform="translate(-1402.437 -1296.883)" fill="none" stroke="#000" stroke-miterlimit="10" stroke-width="0.25"/>
      <path id="Path_14974" data-name="Path 14974" d="M1474.333,1404.583a4.225,4.225,0,0,1,0,3.926" transform="translate(-1402.792 -1297.213)" fill="none" stroke="#000" stroke-miterlimit="10" stroke-width="0.25"/>
      <path id="Path_14975" data-name="Path 14975" d="M1490.5,1389.5a4.12,4.12,0,0,0,0,2.618" transform="translate(-1403.087 -1296.934)" fill="none" stroke="#000" stroke-miterlimit="10" stroke-width="0.25"/>
      <path id="Path_14976" data-name="Path 14976" d="M1499.235,1407a6.307,6.307,0,0,1-.818,3.026" transform="translate(-1403.238 -1297.258)" fill="none" stroke="#000" stroke-miterlimit="10" stroke-width="0.25"/>
      <path id="Path_14977" data-name="Path 14977" d="M1452.262,1442a4.163,4.163,0,0,0,0,3.026" transform="translate(-1402.377 -1297.906)" fill="none" stroke="#000" stroke-miterlimit="10" stroke-width="0.25"/>
      <path id="Path_14978" data-name="Path 14978" d="M1415.575,1422.848a2.054,2.054,0,0,0,0,2.521" transform="translate(-1401.695 -1297.551)" fill="none" stroke="#000" stroke-miterlimit="10" stroke-width="0.25"/>
      <path id="Path_14979" data-name="Path 14979" d="M1484.583,1445.083s.9,1.718,0,2.863" transform="translate(-1402.981 -1297.963)" fill="none" stroke="#000" stroke-miterlimit="10" stroke-width="0.25"/>
      <path id="Path_14980" data-name="Path 14980" d="M1540.417,1419.75a4.813,4.813,0,0,1,.491,2.127" transform="translate(-1404.016 -1297.494)" fill="none" stroke="#000" stroke-miterlimit="10" stroke-width="0.25"/>
      <path id="Path_14981" data-name="Path 14981" d="M1549.25,1405.75a2.582,2.582,0,0,1,.429,2.432" transform="translate(-1404.179 -1297.235)" fill="none" stroke="#000" stroke-miterlimit="10" stroke-width="0.25"/>
      <path id="Path_14982" data-name="Path 14982" d="M1558.687,1399.688a1.571,1.571,0,0,1,0,1.656" transform="translate(-1404.354 -1297.122)" fill="none" stroke="#000" stroke-miterlimit="10" stroke-width="0.25"/>
      <path id="Path_14983" data-name="Path 14983" d="M1539.25,1385.313a3.881,3.881,0,0,0,.8,2.269" transform="translate(-1403.994 -1296.856)" fill="none" stroke="#000" stroke-miterlimit="10" stroke-width="0.25"/>
      <path id="Path_14984" data-name="Path 14984" d="M1548.062,1380.625a3.527,3.527,0,0,1,.552,2.086" transform="translate(-1404.157 -1296.769)" fill="none" stroke="#000" stroke-miterlimit="10" stroke-width="0.25"/>
      <path id="Path_14985" data-name="Path 14985" d="M1555.937,1378.625a3.447,3.447,0,0,1,.613,2.454" transform="translate(-1404.303 -1296.733)" fill="none" stroke="#000" stroke-miterlimit="10" stroke-width="0.25"/>
      <path id="Path_14986" data-name="Path 14986" d="M1536.187,1361.875a5.326,5.326,0,0,0,.921,2.761" transform="translate(-1403.937 -1296.422)" fill="none" stroke="#000" stroke-miterlimit="10" stroke-width="0.25"/>
      <path id="Path_14987" data-name="Path 14987" d="M1544.062,1360.188a3.543,3.543,0,0,1,1.1,2.6" transform="translate(-1404.083 -1296.391)" fill="none" stroke="#000" stroke-miterlimit="10" stroke-width="0.25"/>
      <path id="Path_14988" data-name="Path 14988" d="M1524.437,1344a2.044,2.044,0,0,1,.982,1.718" transform="translate(-1403.72 -1296.091)" fill="none" stroke="#000" stroke-miterlimit="10" stroke-width="0.25"/>
      <path id="Path_14989" data-name="Path 14989" d="M1529.937,1341.5s1.289.614,1.411,1.534" transform="translate(-1403.821 -1296.045)" fill="none" stroke="#000" stroke-miterlimit="10" stroke-width="0.25"/>
      <path id="Path_14990" data-name="Path 14990" d="M1549.834,1441.5a3.172,3.172,0,0,1,0,1.636" transform="translate(-1404.19 -1297.897)" fill="none" stroke="#000" stroke-miterlimit="10" stroke-width="0.25"/>
    </g>
    <g id="Group_3912" data-name="Group 3912" transform="translate(1311.745 1524.139)">
      <path id="Path_14991" data-name="Path 14991" d="M1564.222,1600.458c4.025-5.707,1.359-14.288-8.62-15.59-6.349-.828-10.2-.2-12.895,2.173-1.644,1.447-3.96,7.151,4.273,13.112C1553.831,1605.112,1561.674,1604.07,1564.222,1600.458Z" transform="translate(-1316.08 -1529.783)" fill="#fff6eb" stroke="#000" stroke-miterlimit="10" stroke-width="0.25"/>
      <path id="Path_14992" data-name="Path 14992" d="M1562.7,1576.741c-5.985,2.57-8.055,10.69-.759,16.6,4.641,3.757,8.011,5.135,11.308,4.567,2.012-.347,6.638-3.749,3-12.5C1573.226,1578.115,1566.484,1575.114,1562.7,1576.741Z" transform="translate(-1316.38 -1529.631)" fill="#fff6eb" stroke="#000" stroke-miterlimit="10" stroke-width="0.25"/>
      <path id="Path_14993" data-name="Path 14993" d="M1546.5,1570.048a10,10,0,0,0,9.447.429c4.907-2.515,12.329-.8,15.151,1.411s8.711,1.84,11.532-.8" transform="translate(-1316.18 -1529.5)" fill="none" stroke="#000" stroke-miterlimit="10" stroke-width="0.25"/>
      <path id="Path_14994" data-name="Path 14994" d="M1521.562,1546.62s4.969,3.931,12.453,1.232,9.079.365,14.477,1.226,6.993-2.771,14.354,1.252" transform="translate(-1315.718 -1529.081)" fill="none" stroke="#000" stroke-miterlimit="10" stroke-width="0.25"/>
      <path id="Path_14995" data-name="Path 14995" d="M1542.594,1535.375a10.771,10.771,0,0,0,8.373.58c4.785-1.562,7.729.156,9.938,2.487" transform="translate(-1316.108 -1528.872)" fill="none" stroke="#000" stroke-miterlimit="10" stroke-width="0.25"/>
      <path id="Path_14996" data-name="Path 14996" d="M1565.625,1538.483s2.208-2.086,6.134,0" transform="translate(-1316.534 -1528.913)" fill="none" stroke="#000" stroke-miterlimit="10" stroke-width="0.25"/>
      <ellipse id="Ellipse_2691" data-name="Ellipse 2691" cx="4.355" cy="2.117" rx="4.355" ry="2.117" transform="translate(254.244)" fill="#ecb36f" stroke="#000" stroke-linejoin="round" stroke-width="0.25"/>
      <ellipse id="Ellipse_2692" data-name="Ellipse 2692" cx="3.374" cy="1.314" rx="3.374" ry="1.314" transform="translate(262.954 5.398)" fill="#c19165" stroke="#000" stroke-linejoin="round" stroke-width="0.25"/>
      <ellipse id="Ellipse_2693" data-name="Ellipse 2693" cx="4.662" cy="2.169" rx="4.662" ry="2.169" transform="translate(209.096 30.457)" fill="#c19165" stroke="#000" stroke-linejoin="round" stroke-width="0.25"/>
      <ellipse id="Ellipse_2694" data-name="Ellipse 2694" cx="2.845" cy="2.086" rx="2.845" ry="2.086" transform="translate(208.067 70.912)" fill="#ecb36f" stroke="#000" stroke-linejoin="round" stroke-width="0.25"/>
      <path id="Path_14997" data-name="Path 14997" d="M1489.625,1612.091s3.5,2.822,11.257,0,10.212-2.058,13.893.627,9.324-2.467,15.09-.014" transform="translate(-1315.127 -1530.261)" fill="none" stroke="#000" stroke-miterlimit="10" stroke-width="0.25"/>
      <path id="Path_14998" data-name="Path 14998" d="M1539.375,1613.562s2.454-1.887,6.012,0" transform="translate(-1316.048 -1530.305)" fill="none" stroke="#000" stroke-miterlimit="10" stroke-width="0.25"/>
      <ellipse id="Ellipse_2695" data-name="Ellipse 2695" cx="4.355" cy="2.27" rx="4.355" ry="2.27" transform="translate(191.429 88.21)" fill="#c19165" stroke="#000" stroke-linejoin="round" stroke-width="0.25"/>
      <ellipse id="Ellipse_2696" data-name="Ellipse 2696" cx="6.216" cy="2.781" rx="6.216" ry="2.781" transform="translate(132.827 108.044)" fill="#c19165" stroke="#000" stroke-linejoin="round" stroke-width="0.25"/>
      <ellipse id="Ellipse_2697" data-name="Ellipse 2697" cx="4.171" cy="2.454" rx="4.171" ry="2.454" transform="translate(96.185 70.585)" fill="#ecb36f" stroke="#000" stroke-linejoin="round" stroke-width="0.25"/>
      <ellipse id="Ellipse_2698" data-name="Ellipse 2698" cx="3.456" cy="1.554" rx="3.456" ry="1.554" transform="translate(61.629 101.992)" fill="#ecb36f" stroke="#000" stroke-linejoin="round" stroke-width="0.25"/>
      <ellipse id="Ellipse_2699" data-name="Ellipse 2699" cx="4.089" cy="2.29" rx="4.089" ry="2.29" transform="translate(0 90.378)" fill="#ecb36f" stroke="#000" stroke-linejoin="round" stroke-width="0.25"/>
      <ellipse id="Ellipse_2700" data-name="Ellipse 2700" cx="4.089" cy="2.045" rx="4.089" ry="2.045" transform="translate(13.086 87.27)" fill="#ecb36f" stroke="#000" stroke-linejoin="round" stroke-width="0.25"/>
      <ellipse id="Ellipse_2701" data-name="Ellipse 2701" cx="4.498" cy="2.024" rx="4.498" ry="2.024" transform="translate(2.126 47.029)" fill="#ecb36f" stroke="#000" stroke-linejoin="round" stroke-width="0.25"/>
      <path id="Path_14999" data-name="Path 14999" d="M1314,1598.167a14.012,14.012,0,0,0,9.979,1.144c5.561-1.472,9.978-.737,11.941.449s7.034.327,8.18-.8" transform="translate(-1311.873 -1530.036)" fill="none" stroke="#000" stroke-miterlimit="10" stroke-width="0.25"/>
      <path id="Path_15000" data-name="Path 15000" d="M1429.833,1586.5s7.034,4.417,12.6,1.636,9.324-.616,12.268.919,8,2.064,10.869,0" transform="translate(-1314.019 -1529.82)" fill="none" stroke="#000" stroke-miterlimit="10" stroke-width="0.25"/>
      <path id="Path_15001" data-name="Path 15001" d="M1418.333,1608.988a13.869,13.869,0,0,0,9.979,0c5.071-2.127,5.889,1.927,11.614.472" transform="translate(-1313.806 -1530.225)" fill="none" stroke="#000" stroke-miterlimit="10" stroke-width="0.25"/>
      <path id="Path_15002" data-name="Path 15002" d="M1372.833,1620.833s5.835,3.6,12.487,1.636,9.105-.818,14.013.655,11.615-3.108,18.157,0" transform="translate(-1312.963 -1530.456)" fill="none" stroke="#000" stroke-miterlimit="10" stroke-width="0.25"/>
      <path id="Path_15003" data-name="Path 15003" d="M1427.749,1623.153s5.808-1.636,9.244,0" transform="translate(-1313.98 -1530.485)" fill="none" stroke="#000" stroke-miterlimit="10" stroke-width="0.25"/>
    </g>
    <g id="Group_3913" data-name="Group 3913" transform="translate(1449.577 1454.042)">
      <path id="Path_15004" data-name="Path 15004" d="M1574.2,1467.639c-.153-.868-6.952-.04-7.361-.736s2.454-2.126,1.84-2.74-8.261,1.554-8.711,1.063,1.636-1.513,1.146-2.086-7.2,1.391-7.729.655,1.8-2,1.1-2.618-7.689,2.454-8.548,1.8,1.8-2.535,1.1-2.822-8.179,2.781-8.751,2.086,1.35-3.23.408-3.762-9.651,4.13-10.632,3.354.123-4.254-.572-4.458-7.116,4.621-8.833,4.294,1.39-3.652,0-4.3-10.551,7.122-11.778,6.672-.123-3.067-1.023-3.19-6.38,5.929-8.261,5.644-.368-2.986-1.39-2.986-7.852,5.93-8.833,5.766.449-2.944-.736-3.148-7.2,7.484-8.343,7.238-.082-2.576-1.187-2.7-6.952,8.1-8.015,8.3-.859-1.759-1.595-1.595-4.458,8.1-6.053,8.138.368-2.414-1.227-2.331-14.109,22.165-4.138,43.181c0,0,8.677,11.373,28.061,12.109s25.211,0,25.4-1.1-2.27-2.092-2.148-2.855,8.65-1.5,9.263-2.848-2.638-2.026-2.331-3.13,13.25-3.067,13.8-4.785-3.005-1.778-2.883-2.944,11.1-2.331,11.778-3.987-2.761-1.718-2.454-2.638,13.25-4.846,13.556-6.625-3.558-1.288-2.883-2.944,11.532-4.962,11.532-6.56-2.576-1.292-2.638-2.457,8.65-3.312,9.018-4.847-2.638-1.349-2.516-2.515,10.735-5.4,10.858-7.055-2.944-.429-2.944-1.778,6.993-5.521,6.625-6.87-4.847-.062-5.215-.859S1574.505,1469.377,1574.2,1467.639Z" transform="translate(-1452.266 -1457.33)" fill="#a5b63d" stroke="#231815" stroke-miterlimit="10" stroke-width="0.25"/>
      <path id="Path_15005" data-name="Path 15005" d="M1574.271,1467.833s-58.153,17.462-118.112,58.722" transform="translate(-1452.339 -1457.524)" fill="none" stroke="#000" stroke-miterlimit="10" stroke-width="0.25"/>
      <path id="Path_15006" data-name="Path 15006" d="M1552.5,1467.833s-9.445,6.519-8.874,12.053" transform="translate(-1453.958 -1457.524)" fill="none" stroke="#000" stroke-miterlimit="10" stroke-width="0.25"/>
      <path id="Path_15007" data-name="Path 15007" d="M1559.942,1479.583s-8.7,4.83-16.316.52" transform="translate(-1453.959 -1457.742)" fill="none" stroke="#000" stroke-miterlimit="10" stroke-width="0.25"/>
      <path id="Path_15008" data-name="Path 15008" d="M1533.74,1466.917s-13.028,9.269-13.794,23.447" transform="translate(-1453.52 -1457.507)" fill="none" stroke="#000" stroke-miterlimit="10" stroke-width="0.25"/>
      <path id="Path_15009" data-name="Path 15009" d="M1548.462,1492.633s-18.991,5.693-28.516-1.827" transform="translate(-1453.52 -1457.95)" fill="none" stroke="#000" stroke-miterlimit="10" stroke-width="0.25"/>
      <path id="Path_15010" data-name="Path 15010" d="M1510.452,1468.25s-16.654,19.507-15.729,34.945" transform="translate(-1453.052 -1457.532)" fill="none" stroke="#000" stroke-miterlimit="10" stroke-width="0.25"/>
      <path id="Path_15011" data-name="Path 15011" d="M1534.254,1509.027s-28.268,7.279-39.53-5.173" transform="translate(-1453.053 -1458.192)" fill="none" stroke="#000" stroke-miterlimit="10" stroke-width="0.25"/>
      <path id="Path_15012" data-name="Path 15012" d="M1486.986,1477.417s-17.737,10.793-18.4,41.22" transform="translate(-1452.569 -1457.702)" fill="none" stroke="#000" stroke-miterlimit="10" stroke-width="0.25"/>
      <path id="Path_15013" data-name="Path 15013" d="M1516.921,1523.751s-34.447,11.993-48.332-4.336" transform="translate(-1452.569 -1458.48)" fill="none" stroke="#000" stroke-miterlimit="10" stroke-width="0.25"/>
    </g>
    <g id="Group_3914" data-name="Group 3914" transform="translate(1425.513 1504.878)">
      <path id="Path_15014" data-name="Path 15014" d="M1455.722,1509.125s8.465,1.595,8.956,2.7-.532,1.349-.45,1.922,6.706.9,6.788,2.046-1.144,1.144-.981,1.88,7.606.982,7.689,2.045-1.145.654-1.064,1.472,9.488,3.6,9.652,4.579-.9.73-.9,1.551,9.488,4.829,9.488,5.893-2.046.9-2.046,1.472,9.979,4.825,10.224,5.48-1.963,1.554-1.881,2.208,8.261,4.09,8.343,5.479-2.208.9-2.454,1.8,7.116,5.234,7.116,6.216-2.045.081-2.126.655,6.3,6.38,5.807,7.443-2.454-.081-2.617.736,6.134,6.38,5.561,7.361-2.371-.818-2.7,0,4.581,7.974,3.844,8.956-2.761-.614-3.129,0,1.472,3.558.982,4.049-6.318-.859-6.931-.368.614,2.147,0,2.761-8.465-2.393-9.2-1.9.674,1.27,0,1.984-9.754-2.721-10.428-2.107.245,1.595-.491,1.9-9.018-3.252-9.631-2.822.8,2.146.184,2.454-9.018-4.785-9.631-4.417.245,2.454-.552,2.7-8.527-4.539-9.079-4.294-.245,1.595-1.043,2.024-8.588-5.214-9.447-4.723.859,2.146,0,2.392-8.22-5.889-8.894-5.7-.185,1.227-.614,1.41-4.847-4.539-5.4-4.232-.062,1.656-.552,1.656-12.739-15.7-9.957-38.114C1428.159,1535.666,1438.955,1517.1,1455.722,1509.125Z" transform="translate(-1427.749 -1509.125)" fill="#a5b63d" stroke="#231815" stroke-miterlimit="10" stroke-width="0.25"/>
      <path id="Path_15015" data-name="Path 15015" d="M1519.877,1585.51s-45.56-43.549-89.306-52.446" transform="translate(-1427.801 -1509.568)" fill="none" stroke="#000" stroke-miterlimit="10" stroke-width="0.25"/>
      <path id="Path_15016" data-name="Path 15016" d="M1494.689,1564.546a17.678,17.678,0,0,1,12.574,2.035" transform="translate(-1428.989 -1510.145)" fill="none" stroke="#000" stroke-miterlimit="10" stroke-width="0.25"/>
      <path id="Path_15017" data-name="Path 15017" d="M1503.01,1578s-8.593-7.166-8.321-13.444" transform="translate(-1428.989 -1510.152)" fill="none" stroke="#000" stroke-miterlimit="10" stroke-width="0.25"/>
      <path id="Path_15018" data-name="Path 15018" d="M1497.657,1554.469s-17.116-10.534-31.416-7.857" transform="translate(-1428.462 -1509.811)" fill="none" stroke="#000" stroke-miterlimit="10" stroke-width="0.25"/>
      <path id="Path_15019" data-name="Path 15019" d="M1486.738,1575.15s-20.5-10.946-20.5-28.53" transform="translate(-1428.462 -1509.82)" fill="none" stroke="#000" stroke-miterlimit="10" stroke-width="0.25"/>
      <path id="Path_15020" data-name="Path 15020" d="M1484.082,1536.77s-18.7-8.506-35.4,1.636" transform="translate(-1428.136 -1509.575)" fill="none" stroke="#000" stroke-miterlimit="10" stroke-width="0.25"/>
      <path id="Path_15021" data-name="Path 15021" d="M1459.614,1567.7s-14.8-10.612-10.945-29.2" transform="translate(-1428.124 -1509.669)" fill="none" stroke="#000" stroke-miterlimit="10" stroke-width="0.25"/>
    </g>
    <g id="Group_3915" data-name="Group 3915" transform="translate(1309.552 1391.478)">
      <path id="Path_15022" data-name="Path 15022" d="M1418.346,1399.022c0-2.562,6.011-6.257,7.974-5.276s.368,1.779,2.146,3.435,4.192,7.034,3.048,17.5-4.389,28.42-17.775,36.253c0,0-2.792.515-3.572-.92,0,0,9.16-6.543,13.167-15.294s5.235-16.6,4.662-23.965-3.353-9.569-4.743-9.324-2.25.164-2.822-.736S1418.346,1400.659,1418.346,1399.022Z" transform="translate(-1311.462 -1393.585)" fill="#cad226" stroke="#231815" stroke-miterlimit="10" stroke-width="0.25"/>
      <path id="Path_15023" data-name="Path 15023" d="M1423,1398.837s2.582-.422,3.639-2" transform="translate(-1311.7 -1393.645)" fill="none" stroke="#000" stroke-miterlimit="10" stroke-width="0.25"/>
      <path id="Path_15024" data-name="Path 15024" d="M1425.833,1399.775a2.782,2.782,0,0,0,1.84-.9" transform="translate(-1311.752 -1393.683)" fill="none" stroke="#000" stroke-miterlimit="10" stroke-width="0.25"/>
      <path id="Path_15025" data-name="Path 15025" d="M1312.892,1541.258s6.486,26.814,42.064,42.2c31.135,13.468,71.4-1.349,87.351-27.788s19.467-67.334-.655-93.506Z" transform="translate(-1309.66 -1394.855)" fill="#93485c" stroke="#000" stroke-miterlimit="10" stroke-width="0.25"/>
      <path id="Path_15026" data-name="Path 15026" d="M1410.41,1451.4c-3.441-.973-4.785-6.011-11.1-8.649s-32.634-11.84-61.833,16.623-39.75,79.745-10.551,99.375,69.766,4.067,91.359-20.214,31.407-49.9,27.809-65.063-9.243-17.943-18.24-19.823S1418.078,1453.562,1410.41,1451.4Z" transform="translate(-1309.599 -1394.43)" fill="#ffc064" stroke="#000" stroke-linejoin="round" stroke-width="0.25"/>
      <ellipse id="Ellipse_2702" data-name="Ellipse 2702" cx="2.372" cy="3.026" rx="2.372" ry="3.026" transform="translate(102.631 63.385)" fill="#dffffa" stroke="#231815" stroke-miterlimit="10" stroke-width="0.25"/>
      <ellipse id="Ellipse_2703" data-name="Ellipse 2703" cx="1.963" cy="2.454" rx="1.963" ry="2.454" transform="translate(102.631 74.836)" fill="#dffffa" stroke="#231815" stroke-miterlimit="10" stroke-width="0.25"/>
      <path id="Path_15027" data-name="Path 15027" d="M1379.5,1453.333a12.517,12.517,0,0,1,2.777,7.77" transform="translate(-1310.894 -1394.692)" fill="none" stroke="#000" stroke-miterlimit="10" stroke-width="0.25"/>
      <path id="Path_15028" data-name="Path 15028" d="M1375.5,1458.167s.981,2.944,2.29,3.926" transform="translate(-1310.82 -1394.781)" fill="none" stroke="#000" stroke-miterlimit="10" stroke-width="0.25"/>
      <path id="Path_15029" data-name="Path 15029" d="M1335.833,1497.49a3.777,3.777,0,0,1,3.763,0" transform="translate(-1310.085 -1395.5)" fill="none" stroke="#000" stroke-miterlimit="10" stroke-width="0.25"/>
      <path id="Path_15030" data-name="Path 15030" d="M1332.167,1501.821s3.271-1.472,4.253,0" transform="translate(-1310.017 -1395.578)" fill="none" stroke="#000" stroke-miterlimit="10" stroke-width="0.25"/>
      <path id="Path_15031" data-name="Path 15031" d="M1320.667,1529.111s3.435-3.108,7.361-2.944" transform="translate(-1309.804 -1396.041)" fill="none" stroke="#000" stroke-miterlimit="10" stroke-width="0.25"/>
      <path id="Path_15032" data-name="Path 15032" d="M1424.833,1473.805a11.649,11.649,0,0,0,4.745-1.472" transform="translate(-1311.734 -1395.044)" fill="none" stroke="#000" stroke-miterlimit="10" stroke-width="0.25"/>
      <path id="Path_15033" data-name="Path 15033" d="M1420.5,1478.833a22.543,22.543,0,0,0,12.268,0" transform="translate(-1311.653 -1395.164)" fill="none" stroke="#000" stroke-miterlimit="10" stroke-width="0.25"/>
      <path id="Path_15034" data-name="Path 15034" d="M1427.25,1505.333s3.354.655,4.007,1.8" transform="translate(-1311.778 -1395.655)" fill="none" stroke="#000" stroke-miterlimit="10" stroke-width="0.25"/>
      <path id="Path_15035" data-name="Path 15035" d="M1420.5,1507.167s6.829,2.781,8.629,7.32" transform="translate(-1311.653 -1395.689)" fill="none" stroke="#000" stroke-miterlimit="10" stroke-width="0.25"/>
      <path id="Path_15036" data-name="Path 15036" d="M1417.5,1509.125s5.153,2.208,6.625,5.4" transform="translate(-1311.598 -1395.725)" fill="none" stroke="#000" stroke-miterlimit="10" stroke-width="0.25"/>
      <path id="Path_15037" data-name="Path 15037" d="M1402.375,1526.16s2.576,4.137,5.275,5.118" transform="translate(-1311.318 -1396.041)" fill="none" stroke="#000" stroke-miterlimit="10" stroke-width="0.25"/>
      <path id="Path_15038" data-name="Path 15038" d="M1373.875,1538.5s3.558,8.588,2.944,17.053" transform="translate(-1310.79 -1396.269)" fill="none" stroke="#000" stroke-miterlimit="10" stroke-width="0.25"/>
      <path id="Path_15039" data-name="Path 15039" d="M1379.5,1542.75a9.293,9.293,0,0,1,1.836,5.521" transform="translate(-1310.894 -1396.348)" fill="none" stroke="#000" stroke-miterlimit="10" stroke-width="0.25"/>
      <path id="Path_15040" data-name="Path 15040" d="M1367,1544.25a10.186,10.186,0,0,1,0,5.153" transform="translate(-1310.662 -1396.376)" fill="none" stroke="#000" stroke-miterlimit="10" stroke-width="0.25"/>
      <path id="Path_15041" data-name="Path 15041" d="M1355.469,1553.375a10.406,10.406,0,0,0-1.595,6.257" transform="translate(-1310.419 -1396.545)" fill="none" stroke="#000" stroke-miterlimit="10" stroke-width="0.25"/>
      <path id="Path_15042" data-name="Path 15042" d="M1352.975,1554.438a4.655,4.655,0,0,0-1.349,2.944" transform="translate(-1310.378 -1396.564)" fill="none" stroke="#000" stroke-miterlimit="10" stroke-width="0.25"/>
      <path id="Path_15043" data-name="Path 15043" d="M1341.333,1531.752s-.38-22.618,13.9-40.077c13.786-16.849,34.352-18.157,43.84-16.849,0,0,8.733,15.347-17.5,39.055C1357.814,1535.351,1341.333,1531.752,1341.333,1531.752Z" transform="translate(-1310.187 -1395.083)" fill="#d38718" stroke="#000" stroke-linejoin="round" stroke-width="0.25"/>
      <path id="Path_15044" data-name="Path 15044" d="M1391.014,1490.125s0,5.357-5.889,10.838" transform="translate(-1310.998 -1395.373)" fill="none" stroke="#000" stroke-miterlimit="10" stroke-width="0.25"/>
      <path id="Path_15045" data-name="Path 15045" d="M1392.581,1493.75a10.676,10.676,0,0,1-2.331,5.889" transform="translate(-1311.093 -1395.44)" fill="none" stroke="#000" stroke-miterlimit="10" stroke-width="0.25"/>
      <path id="Path_15046" data-name="Path 15046" d="M1355.75,1525.31a49.448,49.448,0,0,0,17.789-10.06" transform="translate(-1310.454 -1395.839)" fill="none" stroke="#000" stroke-miterlimit="10" stroke-width="0.25"/>
      <path id="Path_15047" data-name="Path 15047" d="M1372.5,1518.949a9.664,9.664,0,0,0,4.09-2.7" transform="translate(-1310.764 -1395.857)" fill="none" stroke="#000" stroke-miterlimit="10" stroke-width="0.25"/>
      <path id="Path_15048" data-name="Path 15048" d="M1374.625,1580.625s2.7.736,4.294,0" transform="translate(-1310.804 -1397.049)" fill="none" stroke="#000" stroke-miterlimit="10" stroke-width="0.25"/>
      <path id="Path_15049" data-name="Path 15049" d="M1396.75,1572.984a7.732,7.732,0,0,0,3.8-.859" transform="translate(-1311.214 -1396.892)" fill="none" stroke="#000" stroke-miterlimit="10" stroke-width="0.25"/>
      <path id="Path_15050" data-name="Path 15050" d="M1406.25,1580.6a6.907,6.907,0,0,0,2.576-1.35" transform="translate(-1311.389 -1397.024)" fill="none" stroke="#000" stroke-miterlimit="10" stroke-width="0.25"/>
      <path id="Path_15051" data-name="Path 15051" d="M1423.625,1568.22s2.331-.736,2.822-1.595" transform="translate(-1311.711 -1396.79)" fill="none" stroke="#000" stroke-miterlimit="10" stroke-width="0.25"/>
      <path id="Path_15052" data-name="Path 15052" d="M1418.875,1562.477a5.7,5.7,0,0,0,3.8-1.227" transform="translate(-1311.623 -1396.691)" fill="none" stroke="#000" stroke-miterlimit="10" stroke-width="0.25"/>
      <path id="Path_15053" data-name="Path 15053" d="M1432.25,1555.829a4.944,4.944,0,0,0,1.595-2.454" transform="translate(-1311.871 -1396.545)" fill="none" stroke="#000" stroke-miterlimit="10" stroke-width="0.25"/>
      <path id="Path_15054" data-name="Path 15054" d="M1433.062,1544.2s3.006-1.1,3.62-2.454" transform="translate(-1311.886 -1396.329)" fill="none" stroke="#000" stroke-miterlimit="10" stroke-width="0.25"/>
      <path id="Path_15055" data-name="Path 15055" d="M1444.625,1539.972a2.087,2.087,0,0,0,1.349-1.472" transform="translate(-1312.101 -1396.269)" fill="none" stroke="#000" stroke-miterlimit="10" stroke-width="0.25"/>
      <path id="Path_15056" data-name="Path 15056" d="M1442.625,1530.2a5.37,5.37,0,0,0,1.472-2.539" transform="translate(-1312.063 -1396.068)" fill="none" stroke="#000" stroke-miterlimit="10" stroke-width="0.25"/>
    </g>
    <g id="Group_3916" data-name="Group 3916" transform="translate(1307.058 1443.016)">
      <path id="Path_15057" data-name="Path 15057" d="M1328.2,1488.39c5.91-.064,9.652-8.179,7.361-14.558s-3.6-8.057-5.234-7.954-7.014,6.563-8.056,12.7S1322.6,1488.452,1328.2,1488.39Z" transform="translate(-1307.334 -1446.463)" fill="#fff6eb" stroke="#000" stroke-miterlimit="10" stroke-width="0.25"/>
      <path id="Path_15058" data-name="Path 15058" d="M1307.275,1476.016c-1.35-5.092,3.8-10.245,9.753-11.84s13.4-.7,11.795,3.558-2.925,10.622-10.111,12.961C1312.55,1482.7,1308.274,1479.786,1307.275,1476.016Z" transform="translate(-1307.058 -1446.417)" fill="#fff6eb" stroke="#000" stroke-miterlimit="10" stroke-width="0.25"/>
      <path id="Path_15059" data-name="Path 15059" d="M1320.283,1449.732c4.634-2.468,10.52-1.1,11.44,7.176s-.062,7.669-4.479,8.1-10.7-.682-11.593-6.38A8.35,8.35,0,0,1,1320.283,1449.732Z" transform="translate(-1307.215 -1446.143)" fill="#fff6eb" stroke="#000" stroke-miterlimit="10" stroke-width="0.25"/>
      <path id="Path_15060" data-name="Path 15060" d="M1347.983,1447.4c-2.738-2.9-11.7-.683-15.417,3.734s-2.658,11.736-.449,13.127,10.893.769,14.64-4.253S1350.6,1450.172,1347.983,1447.4Z" transform="translate(-1307.485 -1446.096)" fill="#fff6eb" stroke="#000" stroke-miterlimit="10" stroke-width="0.25"/>
      <path id="Path_15061" data-name="Path 15061" d="M1349.511,1477.514c2.525-2.747,5.4-9.569-.674-13.127s-14.088-4.028-16.277.164,2.842,12.412,6.646,14.252S1347.426,1479.784,1349.511,1477.514Z" transform="translate(-1307.521 -1446.383)" fill="#fff6eb" stroke="#000" stroke-miterlimit="10" stroke-width="0.25"/>
      <ellipse id="Ellipse_2704" data-name="Ellipse 2704" cx="3.987" cy="3.006" rx="3.987" ry="3.006" transform="translate(19.39 20.622) rotate(-56.617)" fill="#ffc064" stroke="#000" stroke-linejoin="round" stroke-width="0.25"/>
      <path id="Path_15062" data-name="Path 15062" d="M1313.07,1461.19s12.351-.57,17.749,4.132" transform="translate(-1307.169 -1446.375)" fill="none" stroke="#000" stroke-miterlimit="10" stroke-width="0.25"/>
      <path id="Path_15063" data-name="Path 15063" d="M1318.258,1454.94s9.5,3.108,13.1,9.815" transform="translate(-1307.266 -1446.26)" fill="none" stroke="#000" stroke-miterlimit="10" stroke-width="0.25"/>
      <path id="Path_15064" data-name="Path 15064" d="M1325.654,1454.357s5.34,3.793,6.257,10.183" transform="translate(-1307.402 -1446.249)" fill="none" stroke="#000" stroke-miterlimit="10" stroke-width="0.25"/>
      <path id="Path_15065" data-name="Path 15065" d="M1323.529,1468.97a10.748,10.748,0,0,1,7.268-2.863" transform="translate(-1307.363 -1446.467)" fill="none" stroke="#000" stroke-miterlimit="10" stroke-width="0.25"/>
    </g>
  </g>
</svg>
