<svg xmlns="http://www.w3.org/2000/svg" width="321.735" height="348.23" viewBox="0 0 321.735 348.23">
  <g id="Group_3657" data-name="Group 3657" transform="translate(-3213.167 -192.171)">
    <path id="Path_12167" data-name="Path 12167" d="M3297.669,455.882s19.781-6.969,39.561-42.836h2.517s-12.389,31.9-41.544,45.058Z" transform="translate(4.314 11.288)" fill="#ecb36f" stroke="#000" stroke-linejoin="round" stroke-width="0.25"/>
    <g id="Group_3571" data-name="Group 3571" transform="translate(3393.872 192.352)">
      <path id="Path_12168" data-name="Path 12168" d="M3385.365,257.841s-1.006-6.754,1.437-12.07c0,0,1.581,3.018,4.167,3.88,0,0-2.439-6.2.872-16.319a10.557,10.557,0,0,0,5.548,4.575s-.1-10.22,5.354-17.813c0,0,3.7,5.159,7.106,5.646,0,0,1.266-11.486,6.717-16.255,0,0,2.044,4.575,5.158,6.035,0,0,2.143-10.124,10.026-15.769,0,0,.973,4.283,3.8,6.23a19.22,19.22,0,0,1,9.442-10.9s.292,4.867,2.531,6.91c0,0,4.964-7.592,8.955-9.636,0,0,1.849,6.716,0,10.9,0,0,6.23-1.655,9.831-6.229,0,0,2.141,5.742,0,11.29,0,0,4.867,0,11.194-3.99,0,0,2.433,5.061-1.168,14.7a22.127,22.127,0,0,0,8.663-1.752,33.851,33.851,0,0,1-5.548,18.688s4.769.973,11-1.947c0,0,.1,8.664-5.061,15.477,0,0,5.158.681,8.955-.487a28.077,28.077,0,0,1-7.495,13.529s5.354.973,8.955-1.266a18.287,18.287,0,0,1-7.494,12.265s3.8,1.168,6.715,0c0,0,.194,10.22-9.733,17.813s-46.136,42.5-75.378,21.695S3385.365,257.841,3385.365,257.841Z" transform="translate(-3385.087 -192.352)" fill="#a5b63d" stroke="#231815" stroke-miterlimit="10" stroke-width="0.25"/>
      <path id="Path_12169" data-name="Path 12169" d="M3450.173,209.531s-30.662,45.551-27.2,108.758" transform="translate(-3383.163 -191.473)" fill="none" stroke="#000" stroke-linejoin="round" stroke-width="0.25"/>
      <path id="Path_12170" data-name="Path 12170" d="M3433.85,213.042s-.548,11,4.855,17.13c0,0,12.517-.44,21.683-7.691" transform="translate(-3382.594 -191.294)" fill="none" stroke="#000" stroke-linejoin="round" stroke-width="0.25"/>
      <path id="Path_12171" data-name="Path 12171" d="M3422.7,222.282s1.062,13.956,10.77,22.3c0,0,13.812,1.776,28.859-7.525" transform="translate(-3383.163 -190.821)" fill="none" stroke="#000" stroke-linejoin="round" stroke-width="0.25"/>
      <path id="Path_12172" data-name="Path 12172" d="M3410.424,233.6s2.92,19.569,18.355,28.526c0,0,16.8,2.39,38.142-9.374" transform="translate(-3383.791 -190.242)" fill="none" stroke="#000" stroke-linejoin="round" stroke-width="0.25"/>
      <path id="Path_12173" data-name="Path 12173" d="M3400.273,245.707s6.165,33.823,24.9,38.594c0,0,28.06,3.146,48.559-16.433" transform="translate(-3384.31 -189.623)" fill="none" stroke="#000" stroke-linejoin="round" stroke-width="0.25"/>
      <ellipse id="Ellipse_2122" data-name="Ellipse 2122" cx="2.893" cy="1.93" rx="2.893" ry="1.93" transform="translate(91.967 59.747)" fill="#dffffa" stroke="#231815" stroke-miterlimit="10" stroke-width="0.25"/>
      <ellipse id="Ellipse_2123" data-name="Ellipse 2123" cx="1.852" cy="1.331" rx="1.852" ry="1.331" transform="translate(86.528 52.803)" fill="#dffffa" stroke="#231815" stroke-miterlimit="10" stroke-width="0.25"/>
    </g>
    <g id="Group_3573" data-name="Group 3573" transform="translate(3415.753 279.984)">
      <g id="Group_3572" data-name="Group 3572">
        <path id="Path_12174" data-name="Path 12174" d="M3486.164,375c.934-.188,6.823.151,11.579-4.719a13.737,13.737,0,0,0-4.19-2.577s7.361-3.151,10.985-8.61a20.734,20.734,0,0,1-6.681-3.082s8.719-2.152,12.117-6.908c0,0-4.983-2.152-7.475-4.756,0,0,8.493-2.6,12.683-8.493,0,0-6-1.132-8.154-4.529,0,0,8.267-3.285,12-10.533,0,0-8.946-.112-12.91-2.944,0,0,9.173-4.87,12.231-15.288,0,0-5.436,1.246-8.833-.793,0,0,6.681-4.983,6.681-10.079,0,0-8.72,1.7-11.211,0,0,0,4.983-4.077,5.209-10.192,0,0-6.908.226-11.778,3.284a32.3,32.3,0,0,1-1.019-8.04,18.469,18.469,0,0,0-11.24,6.455s-1.5-4.3,0-7.475c0,0-9.031,1.585-12.882,7.135a12.291,12.291,0,0,1-1.585-7.135s-8.607,2.152-11.665,8.834c0,0-1.359-5.776,0-8.834a21.635,21.635,0,0,0-13.59,10.192c-4.756,8.494-36.85,26.532-36.85,26.532l-3.689,48.975,61.929,21.552Z" transform="translate(-3405.903 -275.72)" fill="#ddd658" stroke="#000" stroke-linejoin="round" stroke-width="0.25"/>
        <path id="Path_12175" data-name="Path 12175" d="M3496.586,292.866s-35.557,39.425-78.16,58.226" transform="translate(-3405.262 -274.843)" fill="none" stroke="#000" stroke-linejoin="round" stroke-width="0.25"/>
        <path id="Path_12176" data-name="Path 12176" d="M3479.9,289.782s-6.047,10.34-4.021,20.638a36.076,36.076,0,0,0,22.473-4.529" transform="translate(-3402.344 -275.001)" fill="none" stroke="#000" stroke-linejoin="round" stroke-width="0.25"/>
        <path id="Path_12177" data-name="Path 12177" d="M3465.787,288.7s-7.906,17.953-2.313,32.926c0,0,17.282,6.408,31.967.57" transform="translate(-3403.06 -275.056)" fill="none" stroke="#000" stroke-linejoin="round" stroke-width="0.25"/>
        <path id="Path_12178" data-name="Path 12178" d="M3450.467,296.97s-4.406,19.741,1.267,33.622c0,0,20,9,43.3,6.152" transform="translate(-3403.707 -274.633)" fill="none" stroke="#000" stroke-linejoin="round" stroke-width="0.25"/>
        <path id="Path_12179" data-name="Path 12179" d="M3488.923,348.864s-34.739,2.873-49.671-9.844c0,0-5.523-17.706-2.1-35.812" transform="translate(-3404.362 -274.314)" fill="none" stroke="#000" stroke-linejoin="round" stroke-width="0.25"/>
      </g>
      <ellipse id="Ellipse_2124" data-name="Ellipse 2124" cx="2.746" cy="1.607" rx="2.746" ry="1.607" transform="translate(86.372 52.937)" fill="#dffffa" stroke="#231815" stroke-miterlimit="10" stroke-width="0.25"/>
      <ellipse id="Ellipse_2125" data-name="Ellipse 2125" cx="1.899" cy="1.198" rx="1.899" ry="1.198" transform="translate(94.435 48.438)" fill="#dffffa" stroke="#231815" stroke-miterlimit="10" stroke-width="0.25"/>
    </g>
    <g id="Group_3574" data-name="Group 3574" transform="translate(3347.667 243.747)">
      <path id="Path_12180" data-name="Path 12180" d="M3341.947,272.242s-.931-6.033,1.033-10.274a10.249,10.249,0,0,0,7.421,2.525s-4.365-8.295-.764-16.153c0,0,4.365,5.712,8.077,5.149a20.183,20.183,0,0,0,1.31-10.605,16.8,16.8,0,0,1,9.844,7.857,15.831,15.831,0,0,0,4.343-9.5s7.64,3.711,6.767,14.953c0,0,5.239-3.056,6.221-7.53a18.863,18.863,0,0,1,3.383,15.934s5.566-3.6,6.875-9.168a19.972,19.972,0,0,1,2.947,18.554,10.962,10.962,0,0,0,7.858-6.439s4.148,7.64.983,18.554c0,0,4.7-.9,6.766-4.8,0,0,3.41,8.84-1.132,16.7a15.4,15.4,0,0,0,7.353-3.711s5.052,14.471-2.433,27.172c0,0,5.332.824,8.86-1.444,0,0,.859,5.933-6.389,11.751,0,0,3.295.555,5.51-.629a14.594,14.594,0,0,1-7.227,10.166,7.78,7.78,0,0,0,5.179,0s-2.963,9.857-16.365,17.651a6.116,6.116,0,0,0,4.012,1.931s-9.911,13.007-25.23,10.844-43.963-50.241-45.424-52.54S3341.947,272.242,3341.947,272.242Z" transform="translate(-3341.13 -241.246)" fill="#a5b63d" stroke="#231815" stroke-miterlimit="10" stroke-width="0.25"/>
      <path id="Path_12181" data-name="Path 12181" d="M3363.124,257.4s19.78,23.649,21.082,83.565" transform="translate(-3340.005 -240.42)" fill="none" stroke="#000" stroke-linejoin="round" stroke-width="0.25"/>
      <path id="Path_12182" data-name="Path 12182" d="M3355.815,270.147s10.024,18.179,22.412,20.875c0,0,7.94-7.7,6.352-24.9" transform="translate(-3340.378 -239.973)" fill="none" stroke="#000" stroke-linejoin="round" stroke-width="0.25"/>
      <path id="Path_12183" data-name="Path 12183" d="M3353.836,287.881s8.021,16.823,28.135,19.989a41.764,41.764,0,0,0,17.2-25.241" transform="translate(-3340.48 -239.129)" fill="none" stroke="#000" stroke-linejoin="round" stroke-width="0.25"/>
      <path id="Path_12184" data-name="Path 12184" d="M3405.91,297.851s-5.869,16.01-22.207,23.219c0,0-19.667-2.361-28.747-14.837" transform="translate(-3340.423 -238.351)" fill="none" stroke="#000" stroke-linejoin="round" stroke-width="0.25"/>
      <path id="Path_12185" data-name="Path 12185" d="M3411.953,317.171s-7.5,20.59-28.774,29.843" transform="translate(-3338.979 -237.363)" fill="none" stroke="#000" stroke-linejoin="round" stroke-width="0.25"/>
    </g>
    <g id="Group_3575" data-name="Group 3575" transform="translate(3226.268 224.689)">
      <path id="Path_12186" data-name="Path 12186" d="M3245.4,345.13s-5.8-1.557-9.343-10.334a13.133,13.133,0,0,1,7.644-1.84s-8.41-5.018-11.212-14.152a20.582,20.582,0,0,1,11.105-2.7s-12.87-2.491-16.5-17.332a66.962,66.962,0,0,0,13.492-1.246,32.938,32.938,0,0,1-14.219-21.172s6.746.208,10.275-1.764c0,0-9.134-3.114-11-22.315,0,0,5.854,0,9.881,1.661,0,0-6.56-5.5-4.587-17.851a37.189,37.189,0,0,1,9.86,3.944s-4.463-7.161-3.737-14.738a20.888,20.888,0,0,1,12.04,7.266s-1.557-5.19-.83-8.926c0,0,9.963,1.246,16.606,9.029a29.572,29.572,0,0,0,1.348-9.029,22.2,22.2,0,0,1,12.766,9.133s2.387-5.19,1.557-9.652a21.163,21.163,0,0,1,13.6,11.831s2.906-4.877,2.491-8.717a21.405,21.405,0,0,1,12.143,17.02s4.981-4.359,6.435-8.614a27.707,27.707,0,0,1,11.313,21.172s3.944-3.632,4.566-7.473c0,0,9.341,7.992,7.472,23.041a19.489,19.489,0,0,0,6.124-7.681s9.132,8.926,4.773,23.768c0,0,5.5-3.944,5.813-6.953,0,0,6.331,9.445,3.114,19.72,0,0,4.774-1.869,6.538-4.567,0,0,2.6,9.653-.622,16.5,0,0,4.774-.622,6.746-3.321,0,0,1.868,9.236-2.284,15.879,0,0,3.944-.518,4.982-2.179,0,0,5.058,12.092-6.311,30.044l-51.262,20.875s-52-13.372-53.486-14.115S3245.4,345.13,3245.4,345.13Z" transform="translate(-3225.638 -223.115)" fill="#ddd658" stroke="#000" stroke-linejoin="round" stroke-width="0.25"/>
      <path id="Path_12187" data-name="Path 12187" d="M3250.28,241.41s67.6,54.824,72.429,118.6" transform="translate(-3224.378 -222.179)" fill="none" stroke="#000" stroke-linejoin="round" stroke-width="0.25"/>
      <path id="Path_12188" data-name="Path 12188" d="M3244.024,256.675s14.8,10.971,29.718,7.465c0,0,3.034-11.731-5.5-30.62" transform="translate(-3224.698 -222.583)" fill="none" stroke="#000" stroke-linejoin="round" stroke-width="0.25"/>
      <path id="Path_12189" data-name="Path 12189" d="M3244.024,274.087s21.784,16.147,46.665,9.863c0,0,4.793-19.917-3.875-39.416" transform="translate(-3224.698 -222.019)" fill="none" stroke="#000" stroke-linejoin="round" stroke-width="0.25"/>
      <path id="Path_12190" data-name="Path 12190" d="M3243.01,291.421s34.255,23.826,62.98,15.112c0,0,12.729-19.682,4.96-46.492" transform="translate(-3224.75 -221.226)" fill="none" stroke="#000" stroke-linejoin="round" stroke-width="0.25"/>
      <path id="Path_12191" data-name="Path 12191" d="M3249.531,315.683c.458.152,38.289,16.069,65.759,10.168,0,0,16.045-15.228,19.091-42.784" transform="translate(-3224.416 -220.048)" fill="none" stroke="#000" stroke-linejoin="round" stroke-width="0.25"/>
      <path id="Path_12192" data-name="Path 12192" d="M3255.184,331.076s28.466,19.058,65.874,15.317c0,0,25.221-9.268,25.374-48.57" transform="translate(-3224.127 -219.294)" fill="none" stroke="#000" stroke-linejoin="round" stroke-width="0.25"/>
      <ellipse id="Ellipse_2126" data-name="Ellipse 2126" cx="2.345" cy="1.564" rx="2.345" ry="1.564" transform="translate(78.31 23.465)" fill="#dffffa" stroke="#231815" stroke-miterlimit="10" stroke-width="0.25"/>
      <ellipse id="Ellipse_2127" data-name="Ellipse 2127" cx="2.957" cy="2.294" rx="2.957" ry="2.294" transform="translate(90.138 31.418)" fill="#dffffa" stroke="#231815" stroke-miterlimit="10" stroke-width="0.25"/>
    </g>
    <g id="Group_3577" data-name="Group 3577" transform="translate(3213.315 344.26)">
      <g id="Group_3576" data-name="Group 3576">
        <path id="Path_12193" data-name="Path 12193" d="M3285.153,404.74s-4.646,5.572-14.622,4.752a18.04,18.04,0,0,1,.82-7.106,18.053,18.053,0,0,1-16.4,5.466s.547-4.637,3.553-7.579c0,0-11.069,4.035-18.31.41a14.168,14.168,0,0,1,5.191-5.949s-13.338,1.569-21.81-4.853c0,0,3.526-4.974,6.78-7.219,0,0-8.7-.129-13.916-6.319a7.763,7.763,0,0,1,4.411-5.306s-4.892-2.165-6.9-5.452a7.622,7.622,0,0,1,5.613-2.727s-4.972-4.09-6.254-8.5a32.248,32.248,0,0,1,15.8-3.449s-2-3.127-3.448-5.212c0,0,8.661-3.368,14.674-1.2,0,0-.159-3.929-2.165-6.254,0,0,14.194-4.009,22.614,4.811a8.074,8.074,0,0,0-1.684-6.174s10.746-.586,17.481,8.007a10.019,10.019,0,0,0-.081-5.841s8.768,1.7,11.881,8.911a10.065,10.065,0,0,0,2.633-6.265s6.3,2.788,9.142,12.43S3299.772,387.531,3285.153,404.74Z" transform="translate(-3213.315 -336.868)" fill="#a5b63d" stroke="#231815" stroke-miterlimit="10" stroke-width="0.25"/>
        <path id="Path_12194" data-name="Path 12194" d="M3226.14,357.635s47.634,2.531,69.48,27.144" transform="translate(-3212.659 -335.806)" fill="none" stroke="#000" stroke-linejoin="round" stroke-width="0.25"/>
        <path id="Path_12195" data-name="Path 12195" d="M3232,367.783a27.247,27.247,0,0,0,17.094-6.162s-2.011-8.567-13.2-12.557" transform="translate(-3212.359 -336.244)" fill="none" stroke="#000" stroke-linejoin="round" stroke-width="0.25"/>
        <path id="Path_12196" data-name="Path 12196" d="M3241.206,381.216s20.594-.66,31.528-11.483a32,32,0,0,0-16.956-22.828" transform="translate(-3211.888 -336.355)" fill="none" stroke="#000" stroke-linejoin="round" stroke-width="0.25"/>
        <path id="Path_12197" data-name="Path 12197" d="M3261.651,394.289a59.752,59.752,0,0,0,30.992-10.6A38.807,38.807,0,0,0,3279,354.237" transform="translate(-3210.843 -335.98)" fill="none" stroke="#000" stroke-linejoin="round" stroke-width="0.25"/>
      </g>
      <ellipse id="Ellipse_2128" data-name="Ellipse 2128" cx="1.772" cy="1.398" rx="1.772" ry="1.398" transform="translate(34.733 5.765)" fill="#dffffa" stroke="#231815" stroke-miterlimit="10" stroke-width="0.25"/>
      <ellipse id="Ellipse_2129" data-name="Ellipse 2129" cx="2.835" cy="1.722" rx="2.835" ry="1.722" transform="translate(50.188 6.921)" fill="#dffffa" stroke="#231815" stroke-miterlimit="10" stroke-width="0.25"/>
    </g>
    <g id="Group_3579" data-name="Group 3579" transform="translate(3403.181 338.536)">
      <path id="Path_12198" data-name="Path 12198" d="M3435.442,345.982c.622-.431,6.693-11.326,21.945-8.836s29.105,18.677,39.221,47,4.669,38.754-14.008,36.108-30.194-3.891-44.513-17.587-31.438-32.062-25.37-43.268S3435.442,345.982,3435.442,345.982Z" transform="translate(-3393.046 -331.149)" fill="#ea6157" stroke="#000" stroke-linejoin="round" stroke-width="0.25"/>
      <g id="Group_3578" data-name="Group 3578">
        <path id="Path_12199" data-name="Path 12199" d="M3421,350.519s.909-5.892,4.814-8.448,7.428-7.376,7.525-10.648c1.937,2.7,8.086,7.339,6.673,12,4.628-.07,12.991,4.259,19.593-.711,0,0,3.1,16.673-15.759,15.26-.921-.068-11.36,2.5-11.36,2.5s-8.185,2.249-10.976,2.685c-9.173,1.43-12.327-3.394-15.605-4.586,0,0,6.139-1.8,9.259-4.785C3418.858,350.252,3421,350.519,3421,350.519Z" transform="translate(-3393.331 -331.423)" fill="#a5b63d" stroke="#231815" stroke-miterlimit="10" stroke-width="0.25"/>
        <path id="Path_12200" data-name="Path 12200" d="M3398.55,365.475s-.584-9.812,6.073-14.485,16-2.687,18.924,2.687c0,0-10.513,3.388-6.541,15.886s2.92,18.573,2.92,18.573,11.214-5.607,9.345-26.4c0,0,6.775,8.41,21.025,5.374a89.984,89.984,0,0,1-5.84-9.777c-2.687-5.293-5.957-8.1-12.148-6.11a5.417,5.417,0,0,0-5.606.468s-4.088-10.4-18.339-7.242c-14.646,3.242-14.6,19.741-14.367,23.6S3399.367,372.6,3398.55,365.475Z" transform="translate(-3393.943 -330.787)" fill="#a5b63d" stroke="#231815" stroke-miterlimit="10" stroke-width="0.25"/>
        <path id="Path_12201" data-name="Path 12201" d="M3422.116,353.2s-.8,2.241.892,2.414" transform="translate(-3392.511 -330.309)" fill="none" stroke="#000" stroke-linejoin="round" stroke-width="0.25"/>
        <path id="Path_12202" data-name="Path 12202" d="M3428.2,352.346a5.89,5.89,0,0,1,2.355-1.481" transform="translate(-3392.19 -330.429)" fill="none" stroke="#000" stroke-linejoin="round" stroke-width="0.25"/>
        <path id="Path_12203" data-name="Path 12203" d="M3427.6,361.052a10.68,10.68,0,0,0-.994-3.8" transform="translate(-3392.272 -330.102)" fill="none" stroke="#000" stroke-linejoin="round" stroke-width="0.25"/>
        <path id="Path_12204" data-name="Path 12204" d="M3428.895,348.538s1.324-6.2,9.938-5.7" transform="translate(-3392.155 -330.841)" fill="none" stroke="#000" stroke-linejoin="round" stroke-width="0.25"/>
      </g>
      <path id="Path_12205" data-name="Path 12205" d="M3458.944,366.732a6.288,6.288,0,0,1-4.287-2.707c-1.692-2.482.774-3.892,2.671-1.636A6.035,6.035,0,0,1,3458.944,366.732Z" transform="translate(-3390.866 -329.897)" fill="#fbc6a6" stroke="#000" stroke-linejoin="round" stroke-width="0.25"/>
      <path id="Path_12206" data-name="Path 12206" d="M3472.558,370.524s-2.086-.169-4.005-3.892,1.855-4.789,3.216-1.184A10.812,10.812,0,0,1,3472.558,370.524Z" transform="translate(-3390.154 -329.796)" fill="#fbc6a6" stroke="#000" stroke-linejoin="round" stroke-width="0.25"/>
      <path id="Path_12207" data-name="Path 12207" d="M3466.9,355.255a5.011,5.011,0,0,1-3.554-2.088c-1.241-1.917.508-3.271,2.144-1.692A4.975,4.975,0,0,1,3466.9,355.255Z" transform="translate(-3390.415 -330.433)" fill="#fbc6a6" stroke="#000" stroke-linejoin="round" stroke-width="0.25"/>
      <path id="Path_12208" data-name="Path 12208" d="M3470.954,386.993a8.5,8.5,0,0,1-4.174-3.722c-1.409-2.708.513-4.509,2.346-2.821C3471.111,382.278,3470.954,386.993,3470.954,386.993Z" transform="translate(-3390.242 -328.949)" fill="#fbc6a6" stroke="#000" stroke-linejoin="round" stroke-width="0.25"/>
      <path id="Path_12209" data-name="Path 12209" d="M3484.638,384.732a3.758,3.758,0,0,1-2.347-3.239C3481.846,378.783,3486.055,379.551,3484.638,384.732Z" transform="translate(-3389.426 -328.94)" fill="#fbc6a6" stroke="#000" stroke-linejoin="round" stroke-width="0.25"/>
      <path id="Path_12210" data-name="Path 12210" d="M3485.264,399.025a8.02,8.02,0,0,1-2.987-3.48c-1.384-2.954,1.352-4.446,2.673-1.3A6.216,6.216,0,0,1,3485.264,399.025Z" transform="translate(-3389.444 -328.299)" fill="#fbc6a6" stroke="#000" stroke-linejoin="round" stroke-width="0.25"/>
      <path id="Path_12211" data-name="Path 12211" d="M3476.562,402.978s-3.157.121-4.533-1.619,1.158-3.5,2.941-1.152A12.605,12.605,0,0,1,3476.562,402.978Z" transform="translate(-3389.969 -327.963)" fill="#fbc6a6" stroke="#000" stroke-linejoin="round" stroke-width="0.25"/>
      <path id="Path_12212" data-name="Path 12212" d="M3485.392,410.588s-5.985,2.221-5.99-.567C3479.4,407.635,3484.178,408.322,3485.392,410.588Z" transform="translate(-3389.571 -327.479)" fill="#fbc6a6" stroke="#000" stroke-linejoin="round" stroke-width="0.25"/>
      <path id="Path_12213" data-name="Path 12213" d="M3443.222,377.8s-3.641.8-5.248-1.182.426-3.877,2.624-2.411A6.219,6.219,0,0,1,3443.222,377.8Z" transform="translate(-3391.72 -329.261)" fill="#fbc6a6" stroke="#000" stroke-linejoin="round" stroke-width="0.25"/>
      <path id="Path_12214" data-name="Path 12214" d="M3457.036,387.521s-3.735.033-5.249-1.4-.377-3.941,2.034-2.286A9.068,9.068,0,0,1,3457.036,387.521Z" transform="translate(-3391.019 -328.77)" fill="#fbc6a6" stroke="#000" stroke-linejoin="round" stroke-width="0.25"/>
      <path id="Path_12215" data-name="Path 12215" d="M3449.072,396.062s-3.546,1.1-5.155-.323-.377-3.7,1.987-2.562A6.763,6.763,0,0,1,3449.072,396.062Z" transform="translate(-3391.424 -328.28)" fill="#fbc6a6" stroke="#000" stroke-linejoin="round" stroke-width="0.25"/>
      <path id="Path_12216" data-name="Path 12216" d="M3463.49,401.667c.3.3-2.269.992-5.059.992s-2.709-2.043-1.183-2.648C3459.518,399.114,3462.781,400.958,3463.49,401.667Z" transform="translate(-3390.759 -327.927)" fill="#fbc6a6" stroke="#000" stroke-linejoin="round" stroke-width="0.25"/>
    </g>
    <g id="Group_3581" data-name="Group 3581" transform="translate(3281.184 314.554)">
      <path id="Path_12217" data-name="Path 12217" d="M3282.95,421.336c-10.836-14.621-2.73-50.954,9.618-70.742,13.4-21.476,43.987-42.72,80.122-10.969s12.642,65.543-15.86,77.575C3329.321,428.811,3293.981,436.22,3282.95,421.336Z" transform="translate(-3277.882 -307.848)" fill="#ea6157" stroke="#000" stroke-linejoin="round" stroke-width="0.25"/>
      <g id="Group_3580" data-name="Group 3580" transform="translate(51.44)">
        <path id="Path_12218" data-name="Path 12218" d="M3347.364,340.5s-4.231-13.9,5.843-18.94c0,0-1.209,18.637,10.678,19.544l-.4,2.8s2.839-1.221,6.205,1.769,10.417,3.127,16.461,1.094l-11.081,9.265a20.418,20.418,0,0,0,5.44,12.4s-4.111,5.216-10.819.884-7.112-12.078-7.112-12.078-7.174,10.255-24.871,3.516c4.438-2.995,4.478-7.649,6.839-10.277,0,0-7.789,3.056-12.694-1.512a18.475,18.475,0,0,1-5.032-10.042C3335.484,342.578,3339.351,339.7,3347.364,340.5Z" transform="translate(-3326.818 -307.946)" fill="#ddd658" stroke="#000" stroke-linejoin="round" stroke-width="0.25"/>
        <path id="Path_12219" data-name="Path 12219" d="M3343.681,349.2a8.064,8.064,0,0,1,5.328-2.723" transform="translate(-3325.956 -306.671)" fill="none" stroke="#000" stroke-linejoin="round" stroke-width="0.25"/>
        <path id="Path_12220" data-name="Path 12220" d="M3346.365,339.576c.312,0,3.572.517,4.8,1.541" transform="translate(-3325.819 -307.024)" fill="none" stroke="#000" stroke-linejoin="round" stroke-width="0.25"/>
        <path id="Path_12221" data-name="Path 12221" d="M3352.988,346.9a17.42,17.42,0,0,1,4.4-2.443c3.024-1.119,6.75-4.886,10.961-15.265a35.27,35.27,0,0,0,2.089-19.471h4.319s1.818,10.3-2.652,18.184-3.258,12.425-3.258,12.425-4.47,1.363-8.562,10.228" transform="translate(-3325.48 -308.551)" fill="#ddd658" stroke="#000" stroke-linejoin="round" stroke-width="0.25"/>
        <ellipse id="Ellipse_2130" data-name="Ellipse 2130" cx="2.156" cy="1.077" rx="2.156" ry="1.077" transform="translate(44.97)" fill="#a5b63d" stroke="#231815" stroke-miterlimit="10" stroke-width="0.25"/>
        <path id="Path_12222" data-name="Path 12222" d="M3363.206,348.571s4.569-.562,6.64,2.6,3.361,3.47,3.361,3.47" transform="translate(-3324.957 -306.566)" fill="none" stroke="#000" stroke-linejoin="round" stroke-width="0.25"/>
        <path id="Path_12223" data-name="Path 12223" d="M3360.839,355.62a18.909,18.909,0,0,1,0-2.544" transform="translate(-3325.081 -306.334)" fill="none" stroke="#000" stroke-linejoin="round" stroke-width="0.25"/>
      </g>
      <path id="Path_12224" data-name="Path 12224" d="M3309.329,347.687a9.449,9.449,0,0,1,0-4.013c.558-2.338,2.859-1.977,2.521,0S3309.329,347.687,3309.329,347.687Z" transform="translate(-3276.284 -306.897)" fill="#fbc6a6" stroke="#000" stroke-linejoin="round" stroke-width="0.25"/>
      <path id="Path_12225" data-name="Path 12225" d="M3323.085,351.655a5.737,5.737,0,0,1,.933-3.605,1.35,1.35,0,1,1,2.248,1.484A6.008,6.008,0,0,1,3323.085,351.655Z" transform="translate(-3275.571 -306.624)" fill="#fbc6a6" stroke="#000" stroke-linejoin="round" stroke-width="0.25"/>
      <path id="Path_12226" data-name="Path 12226" d="M3324.734,367.278a8.511,8.511,0,0,1,1.748-3.988c1.737-2.078,4.663-1.273,3.56,1.1C3328.674,367.338,3324.734,367.278,3324.734,367.278Z" transform="translate(-3275.486 -305.872)" fill="#fbc6a6" stroke="#000" stroke-linejoin="round" stroke-width="0.25"/>
      <path id="Path_12227" data-name="Path 12227" d="M3298.655,362.7s-.824-2.522-.243-4.025,2.377-1.358,2.522.34S3298.655,362.7,3298.655,362.7Z" transform="translate(-3276.843 -306.1)" fill="#fbc6a6" stroke="#000" stroke-linejoin="round" stroke-width="0.25"/>
      <path id="Path_12228" data-name="Path 12228" d="M3303.063,377.032a11.2,11.2,0,0,1,.873-4.51c.97-2.134,3.976-1.309,3.249.97S3303.063,377.032,3303.063,377.032Z" transform="translate(-3276.594 -305.402)" fill="#fbc6a6" stroke="#000" stroke-linejoin="round" stroke-width="0.25"/>
      <path id="Path_12229" data-name="Path 12229" d="M3299.834,397.549a12.108,12.108,0,0,1,1.019-5.383c1.212-3.2,4.122-2.23,3.685.243S3299.834,397.549,3299.834,397.549Z" transform="translate(-3276.761 -304.438)" fill="#fbc6a6" stroke="#000" stroke-linejoin="round" stroke-width="0.25"/>
      <path id="Path_12230" data-name="Path 12230" d="M3312.057,393.165a11.152,11.152,0,0,1,1.115-4.268c.97-1.6,3.4-1.794,3.249.533S3312.057,393.165,3312.057,393.165Z" transform="translate(-3276.134 -304.563)" fill="#fbc6a6" stroke="#000" stroke-linejoin="round" stroke-width="0.25"/>
      <path id="Path_12231" data-name="Path 12231" d="M3285.98,391.287a9.859,9.859,0,0,1-.631-4.413c.291-2.9,2.978-2.884,3.3-.97C3289.131,388.814,3285.98,391.287,3285.98,391.287Z" transform="translate(-3277.502 -304.723)" fill="#fbc6a6" stroke="#000" stroke-linejoin="round" stroke-width="0.25"/>
      <path id="Path_12232" data-name="Path 12232" d="M3291.169,412.582a13.375,13.375,0,0,1,.414-4.348c.621-2.278,2.83-2,2.692,0A5.524,5.524,0,0,1,3291.169,412.582Z" transform="translate(-3277.204 -303.594)" fill="#fbc6a6" stroke="#000" stroke-linejoin="round" stroke-width="0.25"/>
      <path id="Path_12233" data-name="Path 12233" d="M3311.654,409.581a7.055,7.055,0,0,1,4-2.406c2.555-.483,3.383,1.5,1.933,2.406S3311.654,409.581,3311.654,409.581Z" transform="translate(-3276.155 -303.57)" fill="#fbc6a6" stroke="#000" stroke-linejoin="round" stroke-width="0.25"/>
      <path id="Path_12234" data-name="Path 12234" d="M3331.128,402.431a5.338,5.338,0,0,1,3.59-2.424c2.379-.327,2.379,1.865,1.073,2.424S3331.128,402.431,3331.128,402.431Z" transform="translate(-3275.159 -303.935)" fill="#fbc6a6" stroke="#000" stroke-linejoin="round" stroke-width="0.25"/>
      <path id="Path_12235" data-name="Path 12235" d="M3327.445,413.345a5.506,5.506,0,0,1,3.87-1.586c2.284.094,2.619,1.772,1.147,2.519S3327.445,413.345,3327.445,413.345Z" transform="translate(-3275.347 -303.332)" fill="#fbc6a6" stroke="#000" stroke-linejoin="round" stroke-width="0.25"/>
      <path id="Path_12236" data-name="Path 12236" d="M3327.931,384.591a5.858,5.858,0,0,1,2.287-3.456c2.033-1.525,3.965-.356,2.592,1.524S3327.931,384.591,3327.931,384.591Z" transform="translate(-3275.322 -304.934)" fill="#fbc6a6" stroke="#000" stroke-linejoin="round" stroke-width="0.25"/>
      <path id="Path_12237" data-name="Path 12237" d="M3347.178,397.168s1.321-2.491,3.151-3.1,3.559.966,1.677,2.8S3347.178,397.168,3347.178,397.168Z" transform="translate(-3274.338 -304.244)" fill="#fbc6a6" stroke="#000" stroke-linejoin="round" stroke-width="0.25"/>
      <path id="Path_12238" data-name="Path 12238" d="M3345.05,374.658a9.6,9.6,0,0,1,.916-3.96c.914-1.678,2.9-.814,2.288,1.016S3345.05,374.658,3345.05,374.658Z" transform="translate(-3274.446 -305.478)" fill="#fbc6a6" stroke="#000" stroke-linejoin="round" stroke-width="0.25"/>
    </g>
    <g id="Group_3582" data-name="Group 3582" transform="translate(3229.417 461.755)">
      <path id="Path_12239" data-name="Path 12239" d="M3233.721,496.4s-4.07,3.608-5.087,8.049a27.448,27.448,0,0,0,9.065-.185,11.484,11.484,0,0,0-1.757,6.105,15.053,15.053,0,0,0,10.453-3.238,21.6,21.6,0,0,0,.648,6.384s8.789-1.758,12.767-5.829a11.727,11.727,0,0,0,1.388,5.829s7.215-2.684,11.471-7.124a6.7,6.7,0,0,0,3.238,4.162,19.884,19.884,0,0,0,7.678-7.585,8.947,8.947,0,0,0,1.388,4.348s5.642-2.775,8.141-8.234a7.635,7.635,0,0,0,3.237,3.886,13.221,13.221,0,0,0,6.384-9.159,9.388,9.388,0,0,0,6.383,3.145s5.272-6.568,1.85-26.457-15.356-22.11-26.735-21.832a10.166,10.166,0,0,0,.833,4.717s-4.9-3.515-15.08-3.053a10.589,10.589,0,0,0,1.388,4.533s-9.991-1.3-17.485,2.22a11.523,11.523,0,0,0,3.33,4.071,23.02,23.02,0,0,0-12.119,4.718,8.773,8.773,0,0,0,3.515,2.775s-8.6,1.481-11.934,5.459a12.513,12.513,0,0,0,3.608,2.5,22.458,22.458,0,0,0-9.251,9.991s2.868.833,4.811-.185c0,0-4.625,4.626-6.013,9.714A9.93,9.93,0,0,0,3233.721,496.4Z" transform="translate(-3228.634 -448.646)" fill="#a5b63d" stroke="#231815" stroke-miterlimit="10" stroke-width="0.25"/>
      <path id="Path_12240" data-name="Path 12240" d="M3244.738,493.733s38.777-11.732,57.7-39.935" transform="translate(-3227.81 -448.383)" fill="none" stroke="#000" stroke-linejoin="round" stroke-width="0.25"/>
      <path id="Path_12241" data-name="Path 12241" d="M3246.8,481.8s12.825-4.15,19.772,1.09a22.136,22.136,0,0,1-10.742,14.737" transform="translate(-3227.704 -447.03)" fill="none" stroke="#000" stroke-linejoin="round" stroke-width="0.25"/>
      <path id="Path_12242" data-name="Path 12242" d="M3253.973,468.293s17.451-3.549,27.47,5.652c0,0-.14,15.661-12.361,24.913" transform="translate(-3227.337 -447.676)" fill="none" stroke="#000" stroke-linejoin="round" stroke-width="0.25"/>
      <path id="Path_12243" data-name="Path 12243" d="M3272.186,455.913s14.154-.972,22.393,6.021c0,0-.174,17.586-9.053,30.983" transform="translate(-3226.406 -448.277)" fill="none" stroke="#000" stroke-linejoin="round" stroke-width="0.25"/>
    </g>
    <g id="Group_3583" data-name="Group 3583" transform="translate(3296.161 457.187)">
      <path id="Path_12244" data-name="Path 12244" d="M3302.632,452.869s7.779-9.124,16.36-5.484,14.761,18.645,13.149,32.366c-1.793,15.262-18.5,13.166-29.888,2.847s-13.917-23.052-3.719-29.647Z" transform="translate(-3292.13 -444.186)" fill="#ea6157" stroke="#000" stroke-linejoin="round" stroke-width="0.25"/>
      <path id="Path_12245" data-name="Path 12245" d="M3292.753,447.157c-.133-.733-.289-1.659,2.461-1.425,2.852.243,5.787,1.373,7.009,3.137a2.332,2.332,0,0,1,2.26-2.533c2.4-.09,5.11,1.221,8.5-2.035,0,0,1.673,5.969-3.031,8.683a7.518,7.518,0,0,0,5.563,2.306,12.707,12.707,0,0,1-8.773,2.623s.811,3.57.271,5.563c0,0-4.838-1.848-6.15-5.2,0,0-3.753,5.29-7.6,1.9a8.452,8.452,0,0,0,3.346-4.614c.932-3.165,2.261-4.432,4.341-3.707,0,0,.066-1.618-2.115-3.16C3296.029,446.7,3292.957,448.286,3292.753,447.157Z" transform="translate(-3292.101 -444.3)" fill="#ddd658" stroke="#000" stroke-linejoin="round" stroke-width="0.25"/>
      <path id="Path_12246" data-name="Path 12246" d="M3304.294,454.555a5.331,5.331,0,0,1,1.858,2.832" transform="translate(-3291.508 -443.775)" fill="none" stroke="#000" stroke-linejoin="round" stroke-width="0.25"/>
      <path id="Path_12247" data-name="Path 12247" d="M3303.667,450.556s2.275-1.577,5.728,2.123" transform="translate(-3291.54 -443.997)" fill="none" stroke="#000" stroke-linejoin="round" stroke-width="0.25"/>
      <path id="Path_12248" data-name="Path 12248" d="M3301.759,448.646a5.707,5.707,0,0,1,.76,1.658" transform="translate(-3291.637 -444.078)" fill="none" stroke="#000" stroke-linejoin="round" stroke-width="0.25"/>
      <path id="Path_12249" data-name="Path 12249" d="M3300.528,472.937s-2.3-.142-3.212-1.19c-.975-1.123.261-2.279,1.419-1.494A6.1,6.1,0,0,1,3300.528,472.937Z" transform="translate(-3291.883 -442.986)" fill="#fbc6a6" stroke="#000" stroke-linejoin="round" stroke-width="0.25"/>
      <path id="Path_12250" data-name="Path 12250" d="M3302.648,467.477a3.764,3.764,0,0,1-2.019-1.356c-.837-1.2-.184-2.367.8-1.938S3302.75,466.446,3302.648,467.477Z" transform="translate(-3291.715 -443.288)" fill="#fbc6a6" stroke="#000" stroke-linejoin="round" stroke-width="0.25"/>
      <path id="Path_12251" data-name="Path 12251" d="M3309.594,474.747s-2.2.387-3.3-.306a1.235,1.235,0,0,1,.958-2.265C3308.961,472.461,3309.594,474.747,3309.594,474.747Z" transform="translate(-3291.438 -442.876)" fill="#fbc6a6" stroke="#000" stroke-linejoin="round" stroke-width="0.25"/>
      <path id="Path_12252" data-name="Path 12252" d="M3314.659,470.84a5.214,5.214,0,0,1-2.672-1.164c-1.061-1.02-.184-2.815,1.223-1.856A4.1,4.1,0,0,1,3314.659,470.84Z" transform="translate(-3291.139 -443.111)" fill="#fbc6a6" stroke="#000" stroke-linejoin="round" stroke-width="0.25"/>
      <path id="Path_12253" data-name="Path 12253" d="M3322.56,474.752a2.961,2.961,0,0,1-1.164-2.468c.021-1.693,1.531-1.877,1.776-.694A7.028,7.028,0,0,1,3322.56,474.752Z" transform="translate(-3290.633 -442.943)" fill="#fbc6a6" stroke="#000" stroke-linejoin="round" stroke-width="0.25"/>
      <path id="Path_12254" data-name="Path 12254" d="M3315.925,480.859a7.009,7.009,0,0,1-2.673-.306c-1.346-.531-1.245-2.061.347-1.857S3315.925,480.859,3315.925,480.859Z" transform="translate(-3291.097 -442.542)" fill="#fbc6a6" stroke="#000" stroke-linejoin="round" stroke-width="0.25"/>
      <path id="Path_12255" data-name="Path 12255" d="M3323.99,484.7a5.608,5.608,0,0,1-1.723-2.367c-.6-1.761,1.07-2.489,1.723-1.122A5.825,5.825,0,0,1,3323.99,484.7Z" transform="translate(-3290.595 -442.448)" fill="#fbc6a6" stroke="#000" stroke-linejoin="round" stroke-width="0.25"/>
      <path id="Path_12256" data-name="Path 12256" d="M3319.272,459.885a3.907,3.907,0,0,1-1.585-2.665c-.333-1.917,1.2-2.243,1.585-1.04A6.231,6.231,0,0,1,3319.272,459.885Z" transform="translate(-3290.825 -443.728)" fill="#fbc6a6" stroke="#000" stroke-linejoin="round" stroke-width="0.25"/>
      <path id="Path_12257" data-name="Path 12257" d="M3323.5,465.25a4.1,4.1,0,0,1-.1-2.67.974.974,0,1,1,1.886.46A5.478,5.478,0,0,1,3323.5,465.25Z" transform="translate(-3290.539 -443.406)" fill="#fbc6a6" stroke="#000" stroke-linejoin="round" stroke-width="0.25"/>
    </g>
    <g id="Group_3586" data-name="Group 3586" transform="translate(3371.49 279.479)">
      <path id="Path_12258" data-name="Path 12258" d="M3391.54,329.422s12.451-17.935,24.059-24.477l1.448,2.466a86.293,86.293,0,0,0-22.981,22.443Z" transform="translate(-3362.375 -273.72)" fill="#ecb36f" stroke="#000" stroke-linejoin="round" stroke-width="0.25"/>
      <path id="Path_12259" data-name="Path 12259" d="M3433.976,293.29s-3.413-8.227.829-14.614c4.129-6.216,15.028-3.628,13.163,4.768S3436.2,296.09,3436.2,296.09Z" transform="translate(-3360.271 -275.239)" fill="#fff6eb" stroke="#000" stroke-miterlimit="10" stroke-width="0.25"/>
      <path id="Path_12260" data-name="Path 12260" d="M3437.047,292.939a14.986,14.986,0,0,1,14.315.663c7.566,4.457,3.731,13.889-5.8,11.712s-10.342-7.255-10.342-7.255Z" transform="translate(-3360.14 -274.411)" fill="#fff6eb" stroke="#000" stroke-miterlimit="10" stroke-width="0.25"/>
      <path id="Path_12261" data-name="Path 12261" d="M3431.1,297.06s-9.117.745-14.318-4.889-1.1-14.629,5.629-15.119,11.687,5.392,12.726,12.242S3431.1,297.06,3431.1,297.06Z" transform="translate(-3361.204 -275.148)" fill="#fff6eb" stroke="#000" stroke-miterlimit="10" stroke-width="0.25"/>
      <path id="Path_12262" data-name="Path 12262" d="M3433.051,300.35s-2.606,9.605,2.31,14.317a6.519,6.519,0,0,0,10.851-6.608c-1.9-6.913-9.116-9.239-9.116-9.239Z" transform="translate(-3360.286 -274.033)" fill="#fff6eb" stroke="#000" stroke-miterlimit="10" stroke-width="0.25"/>
      <path id="Path_12263" data-name="Path 12263" d="M3431.285,295.388s-8.627-.734-14.745,4.956-3.759,14.99,6.179,14.379,13.121-14.879,13.121-14.879Z" transform="translate(-3361.268 -274.21)" fill="#fff6eb" stroke="#000" stroke-miterlimit="10" stroke-width="0.25"/>
      <path id="Path_12264" data-name="Path 12264" d="M3419.461,285.841a11.777,11.777,0,0,1,6,4.143" transform="translate(-3360.946 -274.697)" fill="none" stroke="#000" stroke-linejoin="round" stroke-width="0.25"/>
      <path id="Path_12265" data-name="Path 12265" d="M3422.7,282.6a9.233,9.233,0,0,1,3.024,4.173" transform="translate(-3360.781 -274.863)" fill="none" stroke="#000" stroke-linejoin="round" stroke-width="0.25"/>
      <path id="Path_12266" data-name="Path 12266" d="M3426.621,281.359a9.209,9.209,0,0,1,1.53,4.343" transform="translate(-3360.58 -274.926)" fill="none" stroke="#000" stroke-linejoin="round" stroke-width="0.25"/>
      <path id="Path_12267" data-name="Path 12267" d="M3438.84,280.485a10.116,10.116,0,0,1-1.091,3.794" transform="translate(-3360.011 -274.971)" fill="none" stroke="#000" stroke-linejoin="round" stroke-width="0.25"/>
      <path id="Path_12268" data-name="Path 12268" d="M3442.412,280.485a10.631,10.631,0,0,1-2.753,5.63" transform="translate(-3359.913 -274.971)" fill="none" stroke="#000" stroke-linejoin="round" stroke-width="0.25"/>
      <path id="Path_12269" data-name="Path 12269" d="M3444.432,296.116s2.775-.18,4.344,1.252" transform="translate(-3359.669 -274.172)" fill="none" stroke="#000" stroke-linejoin="round" stroke-width="0.25"/>
      <path id="Path_12270" data-name="Path 12270" d="M3444.432,298.821a10.829,10.829,0,0,1,5.607,1.7" transform="translate(-3359.669 -274.033)" fill="none" stroke="#000" stroke-linejoin="round" stroke-width="0.25"/>
      <path id="Path_12271" data-name="Path 12271" d="M3444.8,301.789a9.8,9.8,0,0,1,3.283.551" transform="translate(-3359.65 -273.881)" fill="none" stroke="#000" stroke-linejoin="round" stroke-width="0.25"/>
      <path id="Path_12272" data-name="Path 12272" d="M3438.786,307.291a7.491,7.491,0,0,1,.317,3.7" transform="translate(-3359.958 -273.6)" fill="none" stroke="#000" stroke-linejoin="round" stroke-width="0.25"/>
      <path id="Path_12273" data-name="Path 12273" d="M3440.969,306.62s2.049,2.693.7,5.324" transform="translate(-3359.846 -273.634)" fill="none" stroke="#000" stroke-linejoin="round" stroke-width="0.25"/>
      <path id="Path_12274" data-name="Path 12274" d="M3435.526,306.912s.994,2.447.252,3.793" transform="translate(-3360.124 -273.619)" fill="none" stroke="#000" stroke-linejoin="round" stroke-width="0.25"/>
      <path id="Path_12275" data-name="Path 12275" d="M3421.382,309.619s3.365-1.041,4.528-3" transform="translate(-3360.848 -273.634)" fill="none" stroke="#000" stroke-linejoin="round" stroke-width="0.25"/>
      <path id="Path_12276" data-name="Path 12276" d="M3419.811,307.031a9.7,9.7,0,0,1,4.363-2.449" transform="translate(-3360.928 -273.738)" fill="none" stroke="#000" stroke-linejoin="round" stroke-width="0.25"/>
      <path id="Path_12277" data-name="Path 12277" d="M3417.147,306.377a8.648,8.648,0,0,1,5.851-5.286" transform="translate(-3361.064 -273.917)" fill="none" stroke="#000" stroke-linejoin="round" stroke-width="0.25"/>
      <g id="Group_3584" data-name="Group 3584" transform="translate(66.1 8.941)">
        <path id="Path_12278" data-name="Path 12278" d="M3444.053,283.745a6.4,6.4,0,0,1-1.774,2.509" transform="translate(-3425.879 -283.745)" fill="none" stroke="#000" stroke-linejoin="round" stroke-width="0.25"/>
        <circle id="Ellipse_2131" data-name="Ellipse 2131" cx="1.407" cy="1.407" r="1.407" transform="translate(10.753 6.455)" fill="#ffb829" stroke="#000" stroke-linejoin="round" stroke-width="0.25"/>
        <path id="Path_12279" data-name="Path 12279" d="M3438.795,294.884a2.025,2.025,0,0,0-1.505-3.388c-.053,0-.1.012-.156.016a4.2,4.2,0,1,0-7.511,3.488,5.771,5.771,0,0,0-.662,2.656,5.287,5.287,0,1,0,10.557,0A5.78,5.78,0,0,0,3438.795,294.884Z" transform="translate(-3426.561 -283.492)" fill="#ffc064" stroke="#000" stroke-linejoin="round" stroke-width="0.25"/>
        <circle id="Ellipse_2132" data-name="Ellipse 2132" cx="1.63" cy="1.63" r="1.63" transform="translate(0 14.749)" fill="#ffb829" stroke="#000" stroke-linejoin="round" stroke-width="0.25"/>
        <circle id="Ellipse_2133" data-name="Ellipse 2133" cx="1.297" cy="1.297" r="1.297" transform="translate(1.995 16.582)" fill="#ffb829" stroke="#000" stroke-linejoin="round" stroke-width="0.25"/>
        <circle id="Ellipse_2134" data-name="Ellipse 2134" cx="1.297" cy="1.297" r="1.297" transform="translate(2.895 11.909)" fill="#ffb829" stroke="#000" stroke-linejoin="round" stroke-width="0.25"/>
        <circle id="Ellipse_2135" data-name="Ellipse 2135" cx="1.297" cy="1.297" r="1.297" transform="translate(0.698 10.612)" fill="#ffb829" stroke="#000" stroke-linejoin="round" stroke-width="0.25"/>
        <circle id="Ellipse_2136" data-name="Ellipse 2136" cx="1.297" cy="1.297" r="1.297" transform="translate(0.698 8.29)" fill="#ffb829" stroke="#000" stroke-linejoin="round" stroke-width="0.25"/>
        <circle id="Ellipse_2137" data-name="Ellipse 2137" cx="1.517" cy="1.517" r="1.517" transform="translate(2.399 6.345)" fill="#ffb829" stroke="#000" stroke-linejoin="round" stroke-width="0.25"/>
        <circle id="Ellipse_2138" data-name="Ellipse 2138" cx="1.517" cy="1.517" r="1.517" transform="translate(4.457 18.545)" fill="#ffb829" stroke="#000" stroke-linejoin="round" stroke-width="0.25"/>
        <circle id="Ellipse_2139" data-name="Ellipse 2139" cx="1.517" cy="1.517" r="1.517" transform="translate(8.037 18.233)" fill="#ffb829" stroke="#000" stroke-linejoin="round" stroke-width="0.25"/>
        <circle id="Ellipse_2140" data-name="Ellipse 2140" cx="1.407" cy="1.407" r="1.407" transform="translate(6.751 2.867)" fill="#ffb829" stroke="#000" stroke-linejoin="round" stroke-width="0.25"/>
        <circle id="Ellipse_2141" data-name="Ellipse 2141" cx="1.407" cy="1.407" r="1.407" transform="translate(4.567 5.054)" fill="#ffb829" stroke="#000" stroke-linejoin="round" stroke-width="0.25"/>
        <circle id="Ellipse_2142" data-name="Ellipse 2142" cx="1.407" cy="1.407" r="1.407" transform="translate(11.321 16.14)" fill="#ffb829" stroke="#000" stroke-linejoin="round" stroke-width="0.25"/>
        <circle id="Ellipse_2143" data-name="Ellipse 2143" cx="1.407" cy="1.407" r="1.407" transform="translate(12.161 12.494)" fill="#ffb829" stroke="#000" stroke-linejoin="round" stroke-width="0.25"/>
      </g>
      <g id="Group_3585" data-name="Group 3585" transform="translate(0 38.237)">
        <path id="Path_12280" data-name="Path 12280" d="M3381.55,337.245a15.369,15.369,0,0,0-10.407,6.946c-2.961,4.63-1.946,13.711,8.567,12.239,9.449-1.323,8.359-18.415,8.359-18.415Z" transform="translate(-3363.492 -310.305)" fill="#fff6eb" stroke="#000" stroke-miterlimit="10" stroke-width="0.25"/>
        <path id="Path_12281" data-name="Path 12281" d="M3373.233,348.489a6.3,6.3,0,0,1,3.265-3.586" transform="translate(-3363.311 -309.914)" fill="none" stroke="#000" stroke-linejoin="round" stroke-width="0.25"/>
        <path id="Path_12282" data-name="Path 12282" d="M3377.513,346.167a17.855,17.855,0,0,1-2.056,5.885" transform="translate(-3363.197 -309.849)" fill="none" stroke="#000" stroke-linejoin="round" stroke-width="0.25"/>
        <path id="Path_12283" data-name="Path 12283" d="M3379.254,346.167s1.165,3.347-.022,5.543" transform="translate(-3363.004 -309.849)" fill="none" stroke="#000" stroke-linejoin="round" stroke-width="0.25"/>
        <path id="Path_12284" data-name="Path 12284" d="M3382.668,332.94s-5.894-4.54-5.74-11.541,7.078-11.617,14.079-9.078,8.463,12.386.769,20.618Z" transform="translate(-3363.122 -311.616)" fill="#fff6eb" stroke="#000" stroke-miterlimit="10" stroke-width="0.25"/>
        <path id="Path_12285" data-name="Path 12285" d="M3382.6,330.469s-5-9.694-14.421-5.693c-7.9,3.356-4.209,15.75,3.877,16.377s10.932-5.452,10.932-5.452Z" transform="translate(-3363.794 -310.992)" fill="#fff6eb" stroke="#000" stroke-miterlimit="10" stroke-width="0.25"/>
        <path id="Path_12286" data-name="Path 12286" d="M3386.11,341.556s-3.4,12.588,4.925,16.042,18.31-10.811,2.384-18.889Z" transform="translate(-3362.688 -310.23)" fill="#fff6eb" stroke="#000" stroke-miterlimit="10" stroke-width="0.25"/>
        <path id="Path_12287" data-name="Path 12287" d="M3390.176,330.777a15.44,15.44,0,0,1,12.771-6.969c8.078-.036,12.694,11.123,5.847,16.663s-17.54-2.077-17.54-2.077Z" transform="translate(-3362.445 -310.992)" fill="#fff6eb" stroke="#000" stroke-miterlimit="10" stroke-width="0.25"/>
        <path id="Path_12288" data-name="Path 12288" d="M3369.038,335.323a7.068,7.068,0,0,0,4.615.87" transform="translate(-3363.526 -310.404)" fill="none" stroke="#000" stroke-linejoin="round" stroke-width="0.25"/>
        <path id="Path_12289" data-name="Path 12289" d="M3371.233,328.863s3.047.391,4.31,2.22" transform="translate(-3363.414 -310.734)" fill="none" stroke="#000" stroke-linejoin="round" stroke-width="0.25"/>
        <path id="Path_12290" data-name="Path 12290" d="M3369.908,332.08s3.042.362,4.351,1.406" transform="translate(-3363.481 -310.569)" fill="none" stroke="#000" stroke-linejoin="round" stroke-width="0.25"/>
        <path id="Path_12291" data-name="Path 12291" d="M3382.97,316.108a9,9,0,0,0,0,5.006" transform="translate(-3362.832 -311.386)" fill="none" stroke="#000" stroke-linejoin="round" stroke-width="0.25"/>
        <path id="Path_12292" data-name="Path 12292" d="M3385.736,316.793a13.369,13.369,0,0,0,.3,5.722" transform="translate(-3362.681 -311.351)" fill="none" stroke="#000" stroke-linejoin="round" stroke-width="0.25"/>
        <path id="Path_12293" data-name="Path 12293" d="M3389.876,316.605s1.524,4.3-.173,7.571" transform="translate(-3362.469 -311.361)" fill="none" stroke="#000" stroke-linejoin="round" stroke-width="0.25"/>
        <path id="Path_12294" data-name="Path 12294" d="M3400.137,329.912a8.34,8.34,0,0,1,4.223,0" transform="translate(-3361.935 -310.695)" fill="none" stroke="#000" stroke-linejoin="round" stroke-width="0.25"/>
        <path id="Path_12295" data-name="Path 12295" d="M3399.765,332.725a11.755,11.755,0,0,0,5.658-.645" transform="translate(-3361.953 -310.569)" fill="none" stroke="#000" stroke-linejoin="round" stroke-width="0.25"/>
        <path id="Path_12296" data-name="Path 12296" d="M3400.612,337.377s4.532-.227,7.349-2.713" transform="translate(-3361.91 -310.437)" fill="none" stroke="#000" stroke-linejoin="round" stroke-width="0.25"/>
        <path id="Path_12297" data-name="Path 12297" d="M3390.176,347.945s-.114,2.968,1.942,4.338" transform="translate(-3362.444 -309.758)" fill="none" stroke="#000" stroke-linejoin="round" stroke-width="0.25"/>
        <path id="Path_12298" data-name="Path 12298" d="M3392.751,347.279a8.293,8.293,0,0,1,1.252,3.829" transform="translate(-3362.312 -309.792)" fill="none" stroke="#000" stroke-linejoin="round" stroke-width="0.25"/>
        <path id="Path_12299" data-name="Path 12299" d="M3394.4,345.09s2.741,2.317,2.418,5.171" transform="translate(-3362.228 -309.904)" fill="none" stroke="#000" stroke-linejoin="round" stroke-width="0.25"/>
        <circle id="Ellipse_2144" data-name="Ellipse 2144" cx="1.49" cy="1.49" r="1.49" transform="translate(20.016 16.407)" fill="#ffb829" stroke="#000" stroke-linejoin="round" stroke-width="0.25"/>
        <circle id="Ellipse_2145" data-name="Ellipse 2145" cx="1.877" cy="1.877" r="1.877" transform="translate(21.931 14.017)" fill="#ffb829" stroke="#000" stroke-linejoin="round" stroke-width="0.25"/>
        <circle id="Ellipse_2146" data-name="Ellipse 2146" cx="1.856" cy="1.856" r="1.856" transform="translate(24.019 16.439)" fill="#ffb829" stroke="#000" stroke-linejoin="round" stroke-width="0.25"/>
        <circle id="Ellipse_2147" data-name="Ellipse 2147" cx="1.808" cy="1.808" r="1.808" transform="translate(27.233 17.409)" fill="#ffb829" stroke="#000" stroke-linejoin="round" stroke-width="0.25"/>
        <path id="Path_12300" data-name="Path 12300" d="M3391.973,333.892c-.006-.026-.01-.054-.016-.079a2.569,2.569,0,0,0-3.475-3.758c-.078-.026-.156-.05-.235-.073a1.769,1.769,0,0,0,.023-.232,1.876,1.876,0,1,0-3.752,0,1.839,1.839,0,0,0,.03.3,2.576,2.576,0,0,0-3.277,3.94,2.566,2.566,0,0,0,.669,4.988l0,.018a1024.728,1024.728,0,0,1,6.186,2.905,2.579,2.579,0,0,0,2.58-2.579,2.751,2.751,0,0,0-.048-.472,2.573,2.573,0,1,0,1.317-4.962Z" transform="translate(-3362.989 -310.785)" fill="#ffc064" stroke="#000" stroke-linejoin="round" stroke-width="0.25"/>
        <circle id="Ellipse_2148" data-name="Ellipse 2148" cx="2.326" cy="2.326" r="2.326" transform="translate(28.524 20.297)" fill="#ffb829" stroke="#000" stroke-linejoin="round" stroke-width="0.25"/>
        <circle id="Ellipse_2149" data-name="Ellipse 2149" cx="1.906" cy="1.906" r="1.906" transform="translate(29.423 24.206)" fill="#ffb829" stroke="#000" stroke-linejoin="round" stroke-width="0.25"/>
        <circle id="Ellipse_2150" data-name="Ellipse 2150" cx="1.745" cy="1.745" r="1.745" transform="translate(30.698 27.329)" fill="#ffb829" stroke="#000" stroke-linejoin="round" stroke-width="0.25"/>
        <circle id="Ellipse_2151" data-name="Ellipse 2151" cx="2.427" cy="2.427" r="2.427" transform="translate(26.614 26.939)" fill="#ffb829" stroke="#000" stroke-linejoin="round" stroke-width="0.25"/>
        <circle id="Ellipse_2152" data-name="Ellipse 2152" cx="2.287" cy="2.287" r="2.287" transform="translate(24.497 30.423)" fill="#ffb829" stroke="#000" stroke-linejoin="round" stroke-width="0.25"/>
        <circle id="Ellipse_2153" data-name="Ellipse 2153" cx="1.859" cy="1.859" r="1.859" transform="translate(21.949 29.678)" fill="#ffb829" stroke="#000" stroke-linejoin="round" stroke-width="0.25"/>
        <circle id="Ellipse_2154" data-name="Ellipse 2154" cx="2.053" cy="2.053" r="2.053" transform="translate(18.691 29.602)" fill="#ffb829" stroke="#000" stroke-linejoin="round" stroke-width="0.25"/>
        <circle id="Ellipse_2155" data-name="Ellipse 2155" cx="1.935" cy="1.935" r="1.935" transform="translate(15.963 27.666)" fill="#ffb829" stroke="#000" stroke-linejoin="round" stroke-width="0.25"/>
        <circle id="Ellipse_2156" data-name="Ellipse 2156" cx="1.935" cy="1.935" r="1.935" transform="translate(16.756 17.137)" fill="#ffb829" stroke="#000" stroke-linejoin="round" stroke-width="0.25"/>
        <circle id="Ellipse_2157" data-name="Ellipse 2157" cx="1.935" cy="1.935" r="1.935" transform="translate(15.05 19.072)" fill="#ffb829" stroke="#000" stroke-linejoin="round" stroke-width="0.25"/>
        <circle id="Ellipse_2158" data-name="Ellipse 2158" cx="2.129" cy="2.129" r="2.129" transform="translate(13.354 25.743)" fill="#ffb829" stroke="#000" stroke-linejoin="round" stroke-width="0.25"/>
        <circle id="Ellipse_2159" data-name="Ellipse 2159" cx="2.595" cy="2.595" r="2.595" transform="translate(14.001 21.511)" fill="#ffb829" stroke="#000" stroke-linejoin="round" stroke-width="0.25"/>
      </g>
    </g>
    <path id="Path_12301" data-name="Path 12301" d="M3231.866,437.612c15.117-5.973,24.016,4.023,46.933,0" transform="translate(0.949 12.445)" fill="none" stroke="#000" stroke-linejoin="round" stroke-width="0.25"/>
    <ellipse id="Ellipse_2160" data-name="Ellipse 2160" cx="5.608" cy="2.56" rx="5.608" ry="2.56" transform="translate(3255.123 433.478)" fill="#ecb36f" stroke="#000" stroke-linejoin="round" stroke-width="0.25"/>
    <ellipse id="Ellipse_2161" data-name="Ellipse 2161" cx="3.475" cy="1.646" rx="3.475" ry="1.646" transform="translate(3246.346 428.236)" fill="#c19165" stroke="#000" stroke-linejoin="round" stroke-width="0.25"/>
    <path id="Path_12302" data-name="Path 12302" d="M3282.836,437.082a6.526,6.526,0,0,1,5.214,0" transform="translate(3.555 12.49)" fill="none" stroke="#000" stroke-linejoin="round" stroke-width="0.25"/>
    <ellipse id="Ellipse_2162" data-name="Ellipse 2162" cx="4.388" cy="2.238" rx="4.388" ry="2.238" transform="translate(3337.665 442.921)" fill="#c19165" stroke="#000" stroke-linejoin="round" stroke-width="0.25"/>
    <ellipse id="Ellipse_2163" data-name="Ellipse 2163" cx="5.603" cy="3.131" rx="5.603" ry="3.131" transform="translate(3385.86 480.776)" fill="#ecb36f" stroke="#000" stroke-linejoin="round" stroke-width="0.25"/>
    <ellipse id="Ellipse_2164" data-name="Ellipse 2164" cx="3.83" cy="2.221" rx="3.83" ry="2.221" transform="translate(3371.685 477.291)" fill="#ecb36f" stroke="#000" stroke-linejoin="round" stroke-width="0.25"/>
    <path id="Path_12303" data-name="Path 12303" d="M3346.791,479.279c6.7-4.551,22.924,3.89,31.7,0" transform="translate(6.827 14.605)" fill="none" stroke="#000" stroke-linejoin="round" stroke-width="0.25"/>
    <path id="Path_12304" data-name="Path 12304" d="M3341.594,442.379c2.649,3.129,10.593,0,14.318,2.032" transform="translate(6.561 12.789)" fill="none" stroke="#000" stroke-linejoin="round" stroke-width="0.25"/>
    <path id="Path_12305" data-name="Path 12305" d="M3359.387,445.761a6.266,6.266,0,0,1,3.228,0" transform="translate(7.471 12.95)" fill="none" stroke="#000" stroke-linejoin="round" stroke-width="0.25"/>
    <ellipse id="Ellipse_2165" data-name="Ellipse 2165" cx="4.291" cy="1.825" rx="4.291" ry="1.825" transform="translate(3376.235 520.842)" fill="#ecb36f" stroke="#000" stroke-linejoin="round" stroke-width="0.25"/>
    <ellipse id="Ellipse_2166" data-name="Ellipse 2166" cx="5.574" cy="2.565" rx="5.574" ry="2.565" transform="translate(3452.49 535.146)" fill="#c19165" stroke="#000" stroke-linejoin="round" stroke-width="0.25"/>
    <path id="Path_12306" data-name="Path 12306" d="M3409.694,502.486c9.273-4.933,22.788,5.13,33.442.788s13.712,1.744,24.365,1.267" transform="translate(10.044 15.792)" fill="none" stroke="#000" stroke-linejoin="round" stroke-width="0.25"/>
    <path id="Path_12307" data-name="Path 12307" d="M3437.192,479.295c2.072-2.664,12.923-4.833,19.828-1.184s13.121-1.578,19.532.789,9.372-.493,9.372-.493" transform="translate(11.451 14.518)" fill="none" stroke="#000" stroke-linejoin="round" stroke-width="0.25"/>
    <path id="Path_12308" data-name="Path 12308" d="M3481.394,468.44c8.189-5.327,14.9,3.058,22.689,0s14.009,2.072,14.009,2.072" transform="translate(13.712 14.029)" fill="none" stroke="#000" stroke-linejoin="round" stroke-width="0.25"/>
    <path id="Path_12309" data-name="Path 12309" d="M3477.171,443.309c11.541-6.116,25.057,2.96,32.258-2.268" transform="translate(13.496 12.72)" fill="none" stroke="#000" stroke-linejoin="round" stroke-width="0.25"/>
    <ellipse id="Ellipse_2167" data-name="Ellipse 2167" cx="4.143" cy="1.578" rx="4.143" ry="1.578" transform="translate(3481.296 469.15)" fill="#ecb36f" stroke="#000" stroke-linejoin="round" stroke-width="0.25"/>
    <ellipse id="Ellipse_2168" data-name="Ellipse 2168" cx="2.959" cy="1.282" rx="2.959" ry="1.282" transform="translate(3491.95 463.527)" fill="#ecb36f" stroke="#000" stroke-linejoin="round" stroke-width="0.25"/>
    <ellipse id="Ellipse_2169" data-name="Ellipse 2169" cx="4.39" cy="2.17" rx="4.39" ry="2.17" transform="translate(3514.146 441.923)" fill="#c19165" stroke="#000" stroke-linejoin="round" stroke-width="0.25"/>
    <ellipse id="Ellipse_2170" data-name="Ellipse 2170" cx="3.699" cy="1.825" rx="3.699" ry="1.825" transform="translate(3501.025 502.494)" fill="#c19165" stroke="#000" stroke-linejoin="round" stroke-width="0.25"/>
    <path id="Path_12310" data-name="Path 12310" d="M3461.406,423.06c2.86-2.762,9.272,2.96,16.572.592a17.806,17.806,0,0,1,12.923.589" transform="translate(12.689 11.761)" fill="none" stroke="#000" stroke-linejoin="round" stroke-width="0.25"/>
    <path id="Path_12311" data-name="Path 12311" d="M3494.158,424.16a7.556,7.556,0,0,1,4.241,0" transform="translate(14.364 11.841)" fill="none" stroke="#000" stroke-linejoin="round" stroke-width="0.25"/>
    <path id="Path_12312" data-name="Path 12312" d="M3513.666,440.3s3.55-.756,5.816.453" transform="translate(15.362 12.67)" fill="none" stroke="#000" stroke-linejoin="round" stroke-width="0.25"/>
    <ellipse id="Ellipse_2171" data-name="Ellipse 2171" cx="4.975" cy="2.224" rx="4.975" ry="2.224" transform="translate(3296.912 533.428)" fill="#c19165" stroke="#000" stroke-linejoin="round" stroke-width="0.25"/>
    <ellipse id="Ellipse_2172" data-name="Ellipse 2172" cx="3.57" cy="1.405" rx="3.57" ry="1.405" transform="translate(3311.427 530.033)" fill="#c19165" stroke="#000" stroke-linejoin="round" stroke-width="0.25"/>
    <g id="Group_3589" data-name="Group 3589" transform="translate(3349.458 357.08)">
      <g id="Group_3587" data-name="Group 3587">
        <path id="Path_12313" data-name="Path 12313" d="M3348.206,356.322s3.66,19.337,23.222,18.249l3.939-7.924S3357.563,363.739,3348.206,356.322Z" transform="translate(-3342.559 -348.693)" fill="#a5b63d" stroke="#231815" stroke-miterlimit="10" stroke-width="0.25"/>
        <path id="Path_12314" data-name="Path 12314" d="M3374.449,364.546a25.326,25.326,0,0,0,5.381-15.482s5.235,11.193-.364,18.246Z" transform="translate(-3341.216 -349.064)" fill="#a5b63d" stroke="#231815" stroke-miterlimit="10" stroke-width="0.25"/>
        <path id="Path_12315" data-name="Path 12315" d="M3373.589,366.873s-4.72,11.525-30.756,20.085c0,0,20.078,2.09,30-9.2S3373.589,366.873,3373.589,366.873Z" transform="translate(-3342.833 -348.153)" fill="#a5b63d" stroke="#231815" stroke-miterlimit="10" stroke-width="0.25"/>
        <path id="Path_12316" data-name="Path 12316" d="M3377.306,364.608s13.8-2.81,20.782-10.26c0,0,.6,11.238-14.935,14.074S3377.306,364.608,3377.306,364.608Z" transform="translate(-3341.222 -348.794)" fill="#a5b63d" stroke="#231815" stroke-miterlimit="10" stroke-width="0.25"/>
      </g>
      <path id="Path_12317" data-name="Path 12317" d="M3388.354,438.714c-16.869-16.989-21.451-35.619-17.824-50.057,2.948-11.737,2.686-14.973,2.686-14.973v0a21.419,21.419,0,0,1-3.784,8.4c-4.745,6.56-15.28,27.127-10.467,46.2,3.768,14.934,12.561,35.032,63.782,42.987,14.1,2.19,23.407,1.222,29.4-1.772C3430.687,471.063,3408.029,458.529,3388.354,438.714Z" transform="translate(-3342.071 -347.805)" fill="#ea6157" stroke="#000" stroke-linejoin="round" stroke-width="0.25"/>
      <g id="Group_3588" data-name="Group 3588" transform="translate(27.298 15.897)">
        <path id="Path_12318" data-name="Path 12318" d="M3456.6,424.431c-4.9-21.631-15.027-39.573-27.055-49.485s-24.011-11.939-37.528-9.487c-7.054,1.279-10.946.112-13.47-1.272a6.378,6.378,0,0,1-6.067,3.689,11.058,11.058,0,0,1,.446,2.6,12.968,12.968,0,0,1-.271,3.694v0s.262,3.235-2.686,14.973c-3.626,14.438.956,33.068,17.825,50.057,19.674,19.814,42.333,32.348,63.793,30.78C3467.37,462.092,3460.144,440.108,3456.6,424.431Z" transform="translate(-3368.803 -364.187)" fill="#fbc6a6" stroke="#000" stroke-linejoin="round" stroke-width="0.25"/>
      </g>
      <path id="Path_12319" data-name="Path 12319" d="M3372.3,367.891c2.6,9.979,3.645,21.849,18.794,43.206,14.686,20.706,36.727,37.328,45.669,30.461,7.182-5.516-10.059-30.956-21.71-46.088-10.682-13.872-24.628-22.834-35.038-30.5C3372.938,361.346,3372.3,367.891,3372.3,367.891Z" transform="translate(-3341.326 -348.306)" fill="#fff6eb" stroke="#000" stroke-miterlimit="10" stroke-width="0.25"/>
      <path id="Path_12320" data-name="Path 12320" d="M3377.124,392.551a58.217,58.217,0,0,0,.786,15.676" transform="translate(-3341.091 -346.84)" fill="none" stroke="#000" stroke-linejoin="round" stroke-width="0.25"/>
      <path id="Path_12321" data-name="Path 12321" d="M3385.118,409.521s.592,15.026,4.515,21.54" transform="translate(-3340.67 -345.972)" fill="none" stroke="#000" stroke-linejoin="round" stroke-width="0.25"/>
      <path id="Path_12322" data-name="Path 12322" d="M3397.935,424.487s.518,7.363,2.59,11.583" transform="translate(-3340.015 -345.206)" fill="none" stroke="#000" stroke-linejoin="round" stroke-width="0.25"/>
      <path id="Path_12323" data-name="Path 12323" d="M3413.567,435.506s.517,7.772,3.108,13.027" transform="translate(-3339.216 -344.643)" fill="none" stroke="#000" stroke-linejoin="round" stroke-width="0.25"/>
      <path id="Path_12324" data-name="Path 12324" d="M3423.426,443.393s1.406,6.069,3.552,7.919" transform="translate(-3338.711 -344.239)" fill="none" stroke="#000" stroke-linejoin="round" stroke-width="0.25"/>
      <path id="Path_12325" data-name="Path 12325" d="M3432.439,445.294s4.588,9.992,10.437,12.953" transform="translate(-3338.25 -344.142)" fill="none" stroke="#000" stroke-linejoin="round" stroke-width="0.25"/>
      <path id="Path_12326" data-name="Path 12326" d="M3438.355,442.477s5.847,8.439,10.14,9.993" transform="translate(-3337.948 -344.286)" fill="none" stroke="#000" stroke-linejoin="round" stroke-width="0.25"/>
      <path id="Path_12327" data-name="Path 12327" d="M3441.8,435.506s3.553.444,5.256,1.776" transform="translate(-3337.771 -344.643)" fill="none" stroke="#000" stroke-linejoin="round" stroke-width="0.25"/>
      <path id="Path_12328" data-name="Path 12328" d="M3439.692,426.351s3.479.223,4.848,1.259" transform="translate(-3337.879 -345.111)" fill="none" stroke="#000" stroke-linejoin="round" stroke-width="0.25"/>
      <path id="Path_12329" data-name="Path 12329" d="M3433.354,415.651s6.366-.445,9.475,1.258" transform="translate(-3338.203 -345.661)" fill="none" stroke="#000" stroke-linejoin="round" stroke-width="0.25"/>
      <path id="Path_12330" data-name="Path 12330" d="M3425.4,404.382s8.364-.3,14.656,2.295" transform="translate(-3338.61 -346.235)" fill="none" stroke="#000" stroke-linejoin="round" stroke-width="0.25"/>
      <path id="Path_12331" data-name="Path 12331" d="M3417.932,393.47s13.028-.864,19.986,2.973" transform="translate(-3338.992 -346.797)" fill="none" stroke="#000" stroke-linejoin="round" stroke-width="0.25"/>
      <path id="Path_12332" data-name="Path 12332" d="M3409.413,383.243s11.916-1.878,18.949.828" transform="translate(-3339.428 -347.348)" fill="none" stroke="#000" stroke-linejoin="round" stroke-width="0.25"/>
      <path id="Path_12333" data-name="Path 12333" d="M3398.216,373.731s10.363-2.447,18.061.366" transform="translate(-3340.001 -347.853)" fill="none" stroke="#000" stroke-linejoin="round" stroke-width="0.25"/>
      <path id="Path_12334" data-name="Path 12334" d="M3365.531,413.94a5.538,5.538,0,0,1-2.185-3.665c-.312-2.418,2.34-2.028,2.652,0A6.894,6.894,0,0,1,3365.531,413.94Z" transform="translate(-3341.785 -346.019)" fill="#fbc6a6" stroke="#000" stroke-linejoin="round" stroke-width="0.25"/>
      <path id="Path_12335" data-name="Path 12335" d="M3374.106,434.591s-3.237.333-4.717-.871c-1.553-1.263-.358-3.435,2-2S3374.106,434.591,3374.106,434.591Z" transform="translate(-3341.511 -344.86)" fill="#fbc6a6" stroke="#000" stroke-linejoin="round" stroke-width="0.25"/>
      <path id="Path_12336" data-name="Path 12336" d="M3374.479,444.445s-2.666.36-3.742-1.281.717-2.82,2.1-1.641A5.237,5.237,0,0,1,3374.479,444.445Z" transform="translate(-3341.423 -344.359)" fill="#fbc6a6" stroke="#000" stroke-linejoin="round" stroke-width="0.25"/>
      <path id="Path_12337" data-name="Path 12337" d="M3386.921,442.6a7.786,7.786,0,0,1-3.744-2.266c-1.1-1.511.251-3.335,1.872-1.7A7.386,7.386,0,0,1,3386.921,442.6Z" transform="translate(-3340.79 -344.515)" fill="#fbc6a6" stroke="#000" stroke-linejoin="round" stroke-width="0.25"/>
      <path id="Path_12338" data-name="Path 12338" d="M3386.964,453.336a6.9,6.9,0,0,1-3.933.44c-1.573-.409-1.51-2.36.535-2.3A4.948,4.948,0,0,1,3386.964,453.336Z" transform="translate(-3340.833 -343.826)" fill="#fbc6a6" stroke="#000" stroke-linejoin="round" stroke-width="0.25"/>
      <path id="Path_12339" data-name="Path 12339" d="M3402.021,456.135a4.915,4.915,0,0,1-3.3-2.046c-1.133-1.794-.032-3.431,1.652-2.014A5.788,5.788,0,0,1,3402.021,456.135Z" transform="translate(-3339.999 -343.823)" fill="#fbc6a6" stroke="#000" stroke-linejoin="round" stroke-width="0.25"/>
      <path id="Path_12340" data-name="Path 12340" d="M3414,461.6s-2.36,1.856-4.469,1.07-1.118-2.473,1.007-2.392A6.118,6.118,0,0,1,3414,461.6Z" transform="translate(-3339.482 -343.376)" fill="#fbc6a6" stroke="#000" stroke-linejoin="round" stroke-width="0.25"/>
      <path id="Path_12341" data-name="Path 12341" d="M3423.891,464.783s-2.387.459-3.626-.734.092-2.664,1.377-1.836A8.335,8.335,0,0,1,3423.891,464.783Z" transform="translate(-3338.898 -343.289)" fill="#fbc6a6" stroke="#000" stroke-linejoin="round" stroke-width="0.25"/>
      <path id="Path_12342" data-name="Path 12342" d="M3374.771,369.285s.086,3.856,1.516,6.151" transform="translate(-3341.2 -348.03)" fill="none" stroke="#000" stroke-linejoin="round" stroke-width="0.25"/>
      <path id="Path_12343" data-name="Path 12343" d="M3379.222,367.472a12.731,12.731,0,0,1,3.681,2.815" transform="translate(-3340.972 -348.122)" fill="none" stroke="#000" stroke-linejoin="round" stroke-width="0.25"/>
      <path id="Path_12344" data-name="Path 12344" d="M3377.45,368.049a13.844,13.844,0,0,1,3.119,4.375" transform="translate(-3341.063 -348.093)" fill="none" stroke="#000" stroke-linejoin="round" stroke-width="0.25"/>
      <path id="Path_12345" data-name="Path 12345" d="M3376.008,368.811s.91,3.621,2.426,4.81" transform="translate(-3341.137 -348.054)" fill="none" stroke="#000" stroke-linejoin="round" stroke-width="0.25"/>
      <path id="Path_12346" data-name="Path 12346" d="M3378.4,364.316c-2.722-1.493-3.852-3.239-5.622-2.445-1.864.837-1.052,3.7-.446,6.133A6.377,6.377,0,0,0,3378.4,364.316Z" transform="translate(-3341.361 -348.419)" fill="#a5b63d" stroke="#231815" stroke-miterlimit="10" stroke-width="0.25"/>
    </g>
  </g>
</svg>
