<svg xmlns="http://www.w3.org/2000/svg" width="284.765" height="363.248" viewBox="0 0 284.765 363.248">
  <g id="Group_3767" data-name="Group 3767" transform="translate(-2057.543 -786.791)">
    <g id="Group_3734" data-name="Group 3734" transform="translate(2109.665 786.882)">
      <path id="Path_13129" data-name="Path 13129" d="M2109.232,787.258c1.948-1.319,1.957,2.711,8.134,3.013s9.039-.6,26.063-2.712,30.883.151,46.7,14.764,14.669,24.255,22.173,26.515,5.114,10.191,5.114,10.191h-1.576s.873-5.695-3.538-7.711-5.123-1.9-7.022-5.576-5.458-2.136-7.77-.83-16.549,9.253-36.835,4.745-34.641-18.032-42-26.337S2107.373,788.516,2109.232,787.258Z" transform="translate(-2108.776 -786.882)" fill="#cad226" stroke="#231815" stroke-miterlimit="10" stroke-width="0.25"/>
      <path id="Path_13130" data-name="Path 13130" d="M2110,788.7s6.88,10.558,33.1,17.794,45.2,5.85,59.792,15.779" transform="translate(-2108.754 -786.85)" fill="none" stroke="#000" stroke-miterlimit="10" stroke-width="0.25"/>
      <path id="Path_13131" data-name="Path 13131" d="M2120.837,790.243c.345-.014,3.42,2.844,5.268,10.067a24.676,24.676,0,0,1-11.575-1.872" transform="translate(-2108.675 -786.823)" fill="none" stroke="#000" stroke-miterlimit="10" stroke-width="0.25"/>
      <path id="Path_13132" data-name="Path 13132" d="M2128.895,789.41s6.575,4.509,8.514,15.417c0,0-9.546,2.711-16.438,1.174" transform="translate(-2108.563 -786.838)" fill="none" stroke="#000" stroke-miterlimit="10" stroke-width="0.25"/>
      <path id="Path_13133" data-name="Path 13133" d="M2138.024,788.181c.421-.055,9.291,7.461,12.894,20.364,0,0-10.677,6.268-22.4,4.722" transform="translate(-2108.431 -786.859)" fill="none" stroke="#000" stroke-miterlimit="10" stroke-width="0.25"/>
      <path id="Path_13134" data-name="Path 13134" d="M2137.127,819.8s15.67,0,24.643-9.014c0,0-2.537-15.079-15.23-23.612" transform="translate(-2108.281 -786.877)" fill="none" stroke="#000" stroke-miterlimit="10" stroke-width="0.25"/>
      <path id="Path_13135" data-name="Path 13135" d="M2156.654,787.007s13.076,9.112,16.086,25.7c0,0-4.224,10.907-23.5,13.571" transform="translate(-2108.069 -786.88)" fill="none" stroke="#000" stroke-miterlimit="10" stroke-width="0.25"/>
      <path id="Path_13136" data-name="Path 13136" d="M2168.8,789.41S2181.1,799.559,2184.362,815c0,0-5.894,14.693-22.019,15.127" transform="translate(-2107.841 -786.838)" fill="none" stroke="#000" stroke-miterlimit="10" stroke-width="0.25"/>
      <path id="Path_13137" data-name="Path 13137" d="M2185.379,799.123s8.467,10.547,9.307,19.188c0,0-1.538,6.258-9.307,10.713" transform="translate(-2107.438 -786.668)" fill="none" stroke="#000" stroke-miterlimit="10" stroke-width="0.25"/>
    </g>
    <g id="Group_3735" data-name="Group 3735" transform="translate(2065.161 849.089)">
      <path id="Path_13138" data-name="Path 13138" d="M2065.4,848.565c.966-1.365,2.779.139,5.169,1.238,2.771,1.273,7.932,2.114,13.335,4.376a133.474,133.474,0,0,1,25.949,13.63c10.723,7.407,18.4,13.5,23.7,22.012s9.045,57.736,9.045,57.736l-40.469,22.677s-8.173-2.676-16.346-14.039-11.363-34.332-12.56-49.56,1.2-24.2-1.4-35.761S2063.551,851.175,2065.4,848.565Z" transform="translate(-2065.035 -848.021)" fill="#cad226" stroke="#231815" stroke-miterlimit="10" stroke-width="0.25"/>
      <path id="Path_13139" data-name="Path 13139" d="M2066.509,849.669s43.708,34.075,58.274,114.936" transform="translate(-2065.01 -847.993)" fill="none" stroke="#000" stroke-miterlimit="10" stroke-width="0.25"/>
      <path id="Path_13140" data-name="Path 13140" d="M2069.347,862.492" transform="translate(-2064.96 -847.769)" fill="none" stroke="#000" stroke-miterlimit="10" stroke-width="0.25"/>
      <path id="Path_13141" data-name="Path 13141" d="M2069.347,862.66s6.015,4.121,13.174,3.8c0,0,.916-8.077-2.028-13.613" transform="translate(-2064.96 -847.937)" fill="none" stroke="#000" stroke-miterlimit="10" stroke-width="0.25"/>
      <path id="Path_13142" data-name="Path 13142" d="M2072.426,874.764s8.943,4.737,18.259,2.813c0,0,2.335-10.517,0-20.585" transform="translate(-2064.906 -847.865)" fill="none" stroke="#000" stroke-miterlimit="10" stroke-width="0.25"/>
      <path id="Path_13143" data-name="Path 13143" d="M2072.954,883.861a46.243,46.243,0,0,0,26.455,7.863s5.637-15.345,1.674-29.559" transform="translate(-2064.897 -847.775)" fill="none" stroke="#000" stroke-miterlimit="10" stroke-width="0.25"/>
      <path id="Path_13144" data-name="Path 13144" d="M2072.743,894.473s18.06,11.917,33.509,10.57c0,0,9.063-16.944,5.473-36.2" transform="translate(-2064.901 -847.658)" fill="none" stroke="#000" stroke-miterlimit="10" stroke-width="0.25"/>
      <path id="Path_13145" data-name="Path 13145" d="M2072.954,904.222s16.247,13.957,38.819,13.605c0,0,11.648-12.4,12.9-39.011" transform="translate(-2064.897 -847.484)" fill="none" stroke="#000" stroke-miterlimit="10" stroke-width="0.25"/>
      <path id="Path_13146" data-name="Path 13146" d="M2074.272,917.618s19.389,12.232,42.264,13.507a74.679,74.679,0,0,0,17.87-39.9" transform="translate(-2064.874 -847.267)" fill="none" stroke="#000" stroke-miterlimit="10" stroke-width="0.25"/>
      <path id="Path_13147" data-name="Path 13147" d="M2075.887,929.085s22.179,13.437,44.248,14.164c0,0,11.779-10.022,18.288-33.4" transform="translate(-2064.846 -846.942)" fill="none" stroke="#000" stroke-miterlimit="10" stroke-width="0.25"/>
      <path id="Path_13148" data-name="Path 13148" d="M2078.891,940.192s24.342,11.972,43.316,11.424c0,0,11.8-5.837,18.47-23.531" transform="translate(-2064.793 -846.624)" fill="none" stroke="#000" stroke-miterlimit="10" stroke-width="0.25"/>
      <path id="Path_13149" data-name="Path 13149" d="M2083.473,951.23s20.018,10.818,39.953,6.05" transform="translate(-2064.713 -846.22)" fill="none" stroke="#000" stroke-miterlimit="10" stroke-width="0.25"/>
    </g>
    <g id="Group_3736" data-name="Group 3736" transform="translate(2124.934 827.44)">
      <ellipse id="Ellipse_2423" data-name="Ellipse 2423" cx="73.469" cy="79.208" rx="73.469" ry="79.208" transform="translate(0 10.601)" fill="#ffae2c" stroke="#000" stroke-linejoin="round" stroke-width="0.25"/>
      <path id="Path_13150" data-name="Path 13150" d="M2202.588,855.329s4.612,3.6,3.916,9.306c0,0,4.73-2.225,7.374,0,0,0,.278-5.7,4.869-6.678a22.723,22.723,0,0,1-7.292-8.2S2208,854.411,2202.588,855.329Z" transform="translate(-2122.407 -826.343)" fill="#c19165" stroke="#000" stroke-linejoin="round" stroke-width="0.25"/>
      <path id="Path_13151" data-name="Path 13151" d="M2209.189,856.691c-.748,1.373-2.478,2.178-1.2,3.831s4.131.677,4.281-.451-1.127-1.352,0-3.38a24.626,24.626,0,0,0,3.23-10.216c.676-5.558.462-10.066,3.16-11.793s5.106-.946,5.182-3.5-.013-4.057-1.59-4.357-2.041.283-2.873,1.184-1.951.972-3.6,3.526a25.3,25.3,0,0,0-3.656,12.964A24.152,24.152,0,0,1,2209.189,856.691Z" transform="translate(-2122.321 -826.744)" fill="#a5b63d" stroke="#231815" stroke-miterlimit="10" stroke-width="0.25"/>
      <ellipse id="Ellipse_2424" data-name="Ellipse 2424" cx="3.47" cy="2.184" rx="3.47" ry="2.184" transform="translate(51.099 31.702) rotate(-33.214)" fill="#dffffa" stroke="#231815" stroke-miterlimit="10" stroke-width="0.25"/>
      <ellipse id="Ellipse_2425" data-name="Ellipse 2425" cx="6.123" cy="3.647" rx="6.123" ry="3.647" transform="translate(36.107 38.248) rotate(-15.081)" fill="#dffffa" stroke="#231815" stroke-miterlimit="10" stroke-width="0.25"/>
      <line id="Line_702" data-name="Line 702" x2="1.194" y2="3.24" transform="translate(24.447 49.741)" fill="none" stroke="#000" stroke-miterlimit="10" stroke-width="0.25"/>
      <line id="Line_703" data-name="Line 703" x2="1.535" y2="2.899" transform="translate(21.378 80.603)" fill="none" stroke="#000" stroke-miterlimit="10" stroke-width="0.25"/>
      <line id="Line_704" data-name="Line 704" x2="2.131" y2="3.24" transform="translate(22.912 98.506)" fill="none" stroke="#000" stroke-miterlimit="10" stroke-width="0.25"/>
      <line id="Line_705" data-name="Line 705" x2="1.364" y2="3.24" transform="translate(39.281 71.054)" fill="none" stroke="#000" stroke-miterlimit="10" stroke-width="0.25"/>
      <line id="Line_706" data-name="Line 706" x2="1.194" y2="2.046" transform="translate(62.47 85.547)" fill="none" stroke="#000" stroke-miterlimit="10" stroke-width="0.25"/>
      <line id="Line_707" data-name="Line 707" x2="1.133" y2="2.558" transform="translate(55.199 94.925)" fill="none" stroke="#000" stroke-miterlimit="10" stroke-width="0.25"/>
      <line id="Line_708" data-name="Line 708" x2="1.535" y2="1.876" transform="translate(52.069 52.98)" fill="none" stroke="#000" stroke-miterlimit="10" stroke-width="0.25"/>
      <line id="Line_709" data-name="Line 709" x2="2.558" y2="1.876" transform="translate(65.881 65.598)" fill="none" stroke="#000" stroke-miterlimit="10" stroke-width="0.25"/>
      <line id="Line_710" data-name="Line 710" x2="1.898" y2="3.495" transform="translate(80.181 69.179)" fill="none" stroke="#000" stroke-miterlimit="10" stroke-width="0.25"/>
      <line id="Line_711" data-name="Line 711" x2="2.046" y2="1.748" transform="translate(92.139 70.926)" fill="none" stroke="#000" stroke-miterlimit="10" stroke-width="0.25"/>
      <line id="Line_712" data-name="Line 712" x2="2.387" transform="translate(71.848 49.741)" fill="none" stroke="#000" stroke-miterlimit="10" stroke-width="0.25"/>
      <line id="Line_713" data-name="Line 713" x2="3.05" transform="translate(85.21 47.183)" fill="none" stroke="#000" stroke-miterlimit="10" stroke-width="0.25"/>
      <line id="Line_714" data-name="Line 714" x2="1.705" y2="1.705" transform="translate(87.705 54.856)" fill="none" stroke="#000" stroke-miterlimit="10" stroke-width="0.25"/>
      <line id="Line_715" data-name="Line 715" x2="1.426" y2="2.046" transform="translate(96.339 48.547)" fill="none" stroke="#000" stroke-miterlimit="10" stroke-width="0.25"/>
      <line id="Line_716" data-name="Line 716" x1="1.194" y2="1.79" transform="translate(103.392 53.918)" fill="none" stroke="#000" stroke-miterlimit="10" stroke-width="0.25"/>
      <line id="Line_717" data-name="Line 717" x1="0.853" y2="1.535" transform="translate(107.484 42.068)" fill="none" stroke="#000" stroke-miterlimit="10" stroke-width="0.25"/>
      <line id="Line_718" data-name="Line 718" x2="2.302" transform="translate(105.609 70.031)" fill="none" stroke="#000" stroke-miterlimit="10" stroke-width="0.25"/>
      <line id="Line_719" data-name="Line 719" y1="0.938" x2="2.387" transform="translate(115.669 53.918)" fill="none" stroke="#000" stroke-miterlimit="10" stroke-width="0.25"/>
      <path id="Path_13152" data-name="Path 13152" d="M2239.813,872.615a22.6,22.6,0,0,0,2.217.512" transform="translate(-2121.757 -825.944)" fill="none" stroke="#000" stroke-miterlimit="10" stroke-width="0.25"/>
      <line id="Line_720" data-name="Line 720" x2="1.535" y2="0.938" transform="translate(122.83 66.536)" fill="none" stroke="#000" stroke-miterlimit="10" stroke-width="0.25"/>
      <line id="Line_721" data-name="Line 721" x2="2.302" y2="1.535" transform="translate(116.862 80.262)" fill="none" stroke="#000" stroke-miterlimit="10" stroke-width="0.25"/>
      <line id="Line_722" data-name="Line 722" x2="1.557" y2="1.705" transform="translate(99.982 86.57)" fill="none" stroke="#000" stroke-miterlimit="10" stroke-width="0.25"/>
      <line id="Line_723" data-name="Line 723" x2="1.525" y2="1.194" transform="translate(85.21 99.018)" fill="none" stroke="#000" stroke-miterlimit="10" stroke-width="0.25"/>
      <path id="Path_13153" data-name="Path 13153" d="M2198.588,939.984a13.235,13.235,0,0,0,2.2,1.534" transform="translate(-2122.477 -824.768)" fill="none" stroke="#000" stroke-miterlimit="10" stroke-width="0.25"/>
      <line id="Line_724" data-name="Line 724" x2="1.194" y2="1.876" transform="translate(89.411 123.059)" fill="none" stroke="#000" stroke-miterlimit="10" stroke-width="0.25"/>
      <line id="Line_725" data-name="Line 725" x2="2.217" transform="translate(103.392 121.184)" fill="none" stroke="#000" stroke-miterlimit="10" stroke-width="0.25"/>
      <line id="Line_726" data-name="Line 726" x2="2.387" y2="1.364" transform="translate(113.282 102.428)" fill="none" stroke="#000" stroke-miterlimit="10" stroke-width="0.25"/>
      <line id="Line_727" data-name="Line 727" x2="2.217" y2="0.682" transform="translate(129.651 87.593)" fill="none" stroke="#000" stroke-miterlimit="10" stroke-width="0.25"/>
      <line id="Line_728" data-name="Line 728" x2="2.472" y2="2.899" transform="translate(128.286 110.442)" fill="none" stroke="#000" stroke-miterlimit="10" stroke-width="0.25"/>
      <line id="Line_729" data-name="Line 729" x2="1.194" y2="1.705" transform="translate(116.862 124.935)" fill="none" stroke="#000" stroke-miterlimit="10" stroke-width="0.25"/>
      <line id="Line_730" data-name="Line 730" x2="3.581" transform="translate(90.604 143.861)" fill="none" stroke="#000" stroke-miterlimit="10" stroke-width="0.25"/>
    </g>
    <g id="Group_3738" data-name="Group 3738" transform="translate(2057.844 930.122)">
      <path id="Path_13154" data-name="Path 13154" d="M2183.524,935.638A21.371,21.371,0,0,0,2181.97,934c-.052-.049-.111-.091-.164-.139Q2182.677,934.736,2183.524,935.638Z" transform="translate(-2055.68 -927.557)" fill="none" stroke="#000" stroke-miterlimit="10" stroke-width="0.25"/>
      <path id="Path_13155" data-name="Path 13155" d="M2063.835,1055.945l-.207-.247C2063.7,1055.779,2063.765,1055.864,2063.835,1055.945Z" transform="translate(-2057.743 -925.43)" fill="none" stroke="#000" stroke-miterlimit="10" stroke-width="0.25"/>
      <path id="Path_13156" data-name="Path 13156" d="M2185.584,935.608c14.609,17.109,1.605,56.728-30.131,90.284-32.8,34.676-73.176,49.741-90.19,33.649-.5-.477-.978-.98-1.431-1.5,15.34,18.236,37.624,29.715,62.429,29.715,46.27,0,83.779-39.927,83.779-89.179A91.87,91.87,0,0,0,2185.584,935.608Z" transform="translate(-2057.74 -927.526)" fill="#ffae2c" stroke="#000" stroke-linejoin="round" stroke-width="0.25"/>
      <path id="Path_13157" data-name="Path 13157" d="M2155.558,1026.031c31.736-33.556,44.74-73.176,30.131-90.284q-.847-.9-1.719-1.781c-17.105-15.851-57.331-.779-90.026,33.79-31.672,33.489-44.682,73.013-30.214,90.177l.207.247c.453.52.927,1.022,1.431,1.5C2082.382,1075.772,2122.762,1060.707,2155.558,1026.031Z" transform="translate(-2057.844 -927.665)" fill="#fff6eb" stroke="#000" stroke-miterlimit="10" stroke-width="0.25"/>
      <g id="Group_3737" data-name="Group 3737" transform="translate(10.238 8.712)">
        <path id="Path_13158" data-name="Path 13158" d="M2074.421,1015.7s-1.473-.794-.567-3.967,4.534-16.59,8.5-20.593,7.255-4.91,9.861-4.684c0,0-2.607-3.173.793-8.161s10.429-9.521,15.133-13.6,7.311-5.673,9.238-4.311a16.918,16.918,0,0,1,6.007-7.97c4.762-3.589,12.469-7.709,18.477-9.106s6.688.222,6.914,2.813c0,0,2.154-5.409,4.421-7.246a13.065,13.065,0,0,1,8.955-2.631c3.741.113,11.425.877,15.971,8.939s-1.575,17.925-1.575,17.925,2.153-.227,1.246,3.4-3.854,12.469-7.14,17.8-5.441,7.254-8.5,7.48c0,0,1.7,2.721-1.36,8.729s-8.388,18.249-12.582,17.456c0,0,.681,1.814-1.134,4.534s-3.286,4.081-5.894,7.369-16.322,13.828-21.876,8.5c0,0,.453,3.174-6.8,7.368s-25.165,11.674-26.072,3.061c0,0-2.04,4.08-6.914,1.473a20.869,20.869,0,0,1-10.314-13.149C2067.393,1030.884,2066.26,1018.643,2074.421,1015.7Z" transform="translate(-2067.906 -936.228)" fill="#ffc952" stroke="#000" stroke-linejoin="round" stroke-width="0.25"/>
        <path id="Path_13159" data-name="Path 13159" d="M2074.309,1014.67s20.4-10.428,27.771-14.282a66.378,66.378,0,0,1,14.395-5.44" transform="translate(-2067.794 -935.203)" fill="none" stroke="#000" stroke-miterlimit="10" stroke-width="0.25"/>
        <path id="Path_13160" data-name="Path 13160" d="M2118.953,988.808c2.4-2.68,3.19-2.576,4.785-4.294s3.067-3.558,5.828-1.6,1.227,4.969-.553,6.257-3.313,5.338-6.257,7.607-7.141-.068-7.007-2.154S2117.3,990.659,2118.953,988.808Z" transform="translate(-2067.071 -935.427)" fill="#fff6eb" stroke="#000" stroke-miterlimit="10" stroke-width="0.25"/>
        <path id="Path_13161" data-name="Path 13161" d="M2091.8,985.589s17.112,5.727,24.37,8.044" transform="translate(-2067.489 -935.366)" fill="none" stroke="#000" stroke-miterlimit="10" stroke-width="0.25"/>
        <path id="Path_13162" data-name="Path 13162" d="M2116.532,959.963s-.335,2.28,1.9,10.124c2,7.011,2,12.918,3.464,16.4" transform="translate(-2067.058 -935.813)" fill="none" stroke="#000" stroke-miterlimit="10" stroke-width="0.25"/>
        <path id="Path_13163" data-name="Path 13163" d="M2147.741,945.945c-.881,2.661-3.751,6.227-7.58,13.252-5.008,9.188-11.3,17.747-12.82,23.507" transform="translate(-2066.869 -936.058)" fill="none" stroke="#000" stroke-miterlimit="10" stroke-width="0.25"/>
        <path id="Path_13164" data-name="Path 13164" d="M2130.814,985.171s2.407-1.528,7.7-4.233,13.989-5.878,20.1-9.756a97.886,97.886,0,0,1,16.838-8.543" transform="translate(-2066.808 -935.766)" fill="none" stroke="#000" stroke-miterlimit="10" stroke-width="0.25"/>
        <path id="Path_13165" data-name="Path 13165" d="M2127.688,990.194s3.8-.023,11.983,0,17.182-.382,21.44.643" transform="translate(-2066.863 -935.287)" fill="none" stroke="#000" stroke-miterlimit="10" stroke-width="0.25"/>
        <path id="Path_13166" data-name="Path 13166" d="M2125.725,993.04c.05-.067,2.648,2.769,7.585,8.529s10.621,10.113,13.893,15.4" transform="translate(-2066.897 -935.236)" fill="none" stroke="#000" stroke-miterlimit="10" stroke-width="0.25"/>
        <path id="Path_13167" data-name="Path 13167" d="M2118.426,1037.3a68.56,68.56,0,0,0,1.846-13.469c.235-7.288,1.9-10.251,1.772-15.941a98.2,98.2,0,0,0-.842-10.621" transform="translate(-2067.024 -935.162)" fill="none" stroke="#000" stroke-miterlimit="10" stroke-width="0.25"/>
        <path id="Path_13168" data-name="Path 13168" d="M2117.044,996.074a74.016,74.016,0,0,0-9.258,13.672c-4,7.758-5.76,9.4-9.875,16.927s-9.834,15.7-11.794,21.077" transform="translate(-2067.588 -935.183)" fill="none" stroke="#000" stroke-miterlimit="10" stroke-width="0.25"/>
        <ellipse id="Ellipse_2426" data-name="Ellipse 2426" cx="5.987" cy="3.154" rx="5.987" ry="3.154" transform="translate(32.457 53.338) rotate(-37.258)" fill="#dffffa" stroke="#231815" stroke-miterlimit="10" stroke-width="0.25"/>
        <ellipse id="Ellipse_2427" data-name="Ellipse 2427" cx="3.753" cy="2.482" rx="3.753" ry="2.482" transform="translate(32.928 42.085) rotate(-37.258)" fill="#dffffa" stroke="#231815" stroke-miterlimit="10" stroke-width="0.25"/>
        <path id="Path_13169" data-name="Path 13169" d="M2088.576,995.651s-3.541-.076-4,1.646,3.369.866,3.369.866" transform="translate(-2067.616 -935.19)" fill="none" stroke="#000" stroke-miterlimit="10" stroke-width="0.25"/>
        <path id="Path_13170" data-name="Path 13170" d="M2093.1,1010.018s-2.849,1.441-2.57,3.255c.229,1.484,2.57.514,2.57.514" transform="translate(-2067.511 -934.939)" fill="none" stroke="#000" stroke-miterlimit="10" stroke-width="0.25"/>
        <path id="Path_13171" data-name="Path 13171" d="M2110.369,1012.6c-.115.172-2.021,2.608-1.827,4.418.146,1.372,1.484,1.3,2.226-.388" transform="translate(-2067.197 -934.894)" fill="none" stroke="#000" stroke-miterlimit="10" stroke-width="0.25"/>
        <path id="Path_13172" data-name="Path 13172" d="M2106.436,1025s-1.435,1.989-.741,3.469,2.221-1.48,2.221-1.48" transform="translate(-2067.25 -934.678)" fill="none" stroke="#000" stroke-miterlimit="10" stroke-width="0.25"/>
        <path id="Path_13173" data-name="Path 13173" d="M2111.378,1032.646s-.417,3.516,1.063,3.284.833-3.7.833-3.7" transform="translate(-2067.148 -934.552)" fill="none" stroke="#000" stroke-miterlimit="10" stroke-width="0.25"/>
        <path id="Path_13174" data-name="Path 13174" d="M2128.249,1020.679s-.37,4.21,1.526,4.163.648-3.361.648-3.361" transform="translate(-2066.854 -934.753)" fill="none" stroke="#000" stroke-miterlimit="10" stroke-width="0.25"/>
        <path id="Path_13175" data-name="Path 13175" d="M2127.838,1006.491s.741,4.071,2.268,3.562.728-3.053.728-3.053" transform="translate(-2066.86 -935.001)" fill="none" stroke="#000" stroke-miterlimit="10" stroke-width="0.25"/>
        <path id="Path_13176" data-name="Path 13176" d="M2138.525,994.126s2.823-.833,3.008.555-2.591,1.943-2.591,1.943" transform="translate(-2066.674 -935.221)" fill="none" stroke="#000" stroke-miterlimit="10" stroke-width="0.25"/>
        <path id="Path_13177" data-name="Path 13177" d="M2145.71,1003.968s1.851,2.637,3.146,1.527-1.573-2.915-1.573-2.915" transform="translate(-2066.548 -935.069)" fill="none" stroke="#000" stroke-miterlimit="10" stroke-width="0.25"/>
        <path id="Path_13178" data-name="Path 13178" d="M2143.891,983.819c.069.016,2.267-1.755,3.561-.926,1.359.871-.878,2.545-.878,2.545" transform="translate(-2066.58 -935.417)" fill="none" stroke="#000" stroke-miterlimit="10" stroke-width="0.25"/>
        <path id="Path_13179" data-name="Path 13179" d="M2157.852,977.132a2.912,2.912,0,0,1,3.1-.847c1.365.53.513,2-2.449,2.975" transform="translate(-2066.336 -935.531)" fill="none" stroke="#000" stroke-miterlimit="10" stroke-width="0.25"/>
        <path id="Path_13180" data-name="Path 13180" d="M2133.056,957.27s.4-3.494,1.7-3.344.549,2.5.549,2.5" transform="translate(-2066.769 -935.919)" fill="none" stroke="#000" stroke-miterlimit="10" stroke-width="0.25"/>
        <path id="Path_13181" data-name="Path 13181" d="M2128.493,961.505s-.55-2.046-1.9-1.2-.8,4.592-.8,4.592" transform="translate(-2066.897 -935.811)" fill="none" stroke="#000" stroke-miterlimit="10" stroke-width="0.25"/>
        <path id="Path_13182" data-name="Path 13182" d="M2125.3,977.718s.389-3.481,1.792-3.531.28,2.745.28,2.745" transform="translate(-2066.904 -935.565)" fill="none" stroke="#000" stroke-miterlimit="10" stroke-width="0.25"/>
        <path id="Path_13183" data-name="Path 13183" d="M2137.569,971.827s2.419-5.033,4.753-5.412-.91,3.165-.91,3.165" transform="translate(-2066.69 -935.701)" fill="none" stroke="#000" stroke-miterlimit="10" stroke-width="0.25"/>
        <path id="Path_13184" data-name="Path 13184" d="M2150.57,964.505s4.042-2.795,4.991-1.6-2.773,2.745-2.773,2.745" transform="translate(-2066.463 -935.767)" fill="none" stroke="#000" stroke-miterlimit="10" stroke-width="0.25"/>
        <path id="Path_13185" data-name="Path 13185" d="M2164.11,956.93s2.2-1.248,2.845-.3-2.3,2.1-2.3,2.1" transform="translate(-2066.227 -935.878)" fill="none" stroke="#000" stroke-miterlimit="10" stroke-width="0.25"/>
        <path id="Path_13186" data-name="Path 13186" d="M2152.534,954.048a3.64,3.64,0,0,1,1.048-3.693c1.747-1.548,1.647.449,1.647.449" transform="translate(-2066.431 -935.991)" fill="none" stroke="#000" stroke-miterlimit="10" stroke-width="0.25"/>
        <path id="Path_13187" data-name="Path 13187" d="M2113.021,970.994s-.882-2.471,0-3.06,1.471,1.15,1.471,1.15" transform="translate(-2067.125 -935.676)" fill="none" stroke="#000" stroke-miterlimit="10" stroke-width="0.25"/>
        <path id="Path_13188" data-name="Path 13188" d="M2100.311,995.252s-1.941-.688-.823-1.374" transform="translate(-2067.361 -935.221)" fill="none" stroke="#000" stroke-miterlimit="10" stroke-width="0.25"/>
        <path id="Path_13189" data-name="Path 13189" d="M2086.351,1026.908s-3.377,4.146-.965,5.414,2.833-3.193,2.833-3.193" transform="translate(-2067.616 -934.645)" fill="none" stroke="#000" stroke-miterlimit="10" stroke-width="0.25"/>
      </g>
      <path id="Path_13190" data-name="Path 13190" d="M2103.725,1068.983a7.425,7.425,0,0,0,2.558,1.587" transform="translate(-2057.043 -925.198)" fill="none" stroke="#000" stroke-miterlimit="10" stroke-width="0.25"/>
      <path id="Path_13191" data-name="Path 13191" d="M2116.034,1064.649a3.936,3.936,0,0,0,2.321,1.411" transform="translate(-2056.828 -925.273)" fill="none" stroke="#000" stroke-miterlimit="10" stroke-width="0.25"/>
      <path id="Path_13192" data-name="Path 13192" d="M2119.675,1078.171a7.257,7.257,0,0,0,3,1.058" transform="translate(-2056.765 -925.037)" fill="none" stroke="#000" stroke-miterlimit="10" stroke-width="0.25"/>
      <path id="Path_13193" data-name="Path 13193" d="M2133.8,1064.649a3.573,3.573,0,0,1,1.911,1.94" transform="translate(-2056.518 -925.273)" fill="none" stroke="#000" stroke-miterlimit="10" stroke-width="0.25"/>
      <path id="Path_13194" data-name="Path 13194" d="M2136.058,1072.277a6.435,6.435,0,0,0,2.823,0" transform="translate(-2056.479 -925.14)" fill="none" stroke="#000" stroke-miterlimit="10" stroke-width="0.25"/>
      <path id="Path_13195" data-name="Path 13195" d="M2156.06,1063.01c.494.309,1.483,1.3,2.718,1.112" transform="translate(-2056.129 -925.302)" fill="none" stroke="#000" stroke-miterlimit="10" stroke-width="0.25"/>
      <path id="Path_13196" data-name="Path 13196" d="M2149.444,1048.2a2.08,2.08,0,0,0,1.915,1.42" transform="translate(-2056.245 -925.56)" fill="none" stroke="#000" stroke-miterlimit="10" stroke-width="0.25"/>
      <path id="Path_13197" data-name="Path 13197" d="M2165.652,1055.483a4.472,4.472,0,0,1,.8,2.162" transform="translate(-2055.962 -925.433)" fill="none" stroke="#000" stroke-miterlimit="10" stroke-width="0.25"/>
      <path id="Path_13198" data-name="Path 13198" d="M2161.463,1029.745a3.252,3.252,0,0,0,1.544,1.976" transform="translate(-2056.035 -925.883)" fill="none" stroke="#000" stroke-miterlimit="10" stroke-width="0.25"/>
      <path id="Path_13199" data-name="Path 13199" d="M2174.453,1020.882a3.373,3.373,0,0,1,.742,2.347" transform="translate(-2055.808 -926.037)" fill="none" stroke="#000" stroke-miterlimit="10" stroke-width="0.25"/>
      <path id="Path_13200" data-name="Path 13200" d="M2189.365,977.907a2.935,2.935,0,0,1,1.706,1.271" transform="translate(-2055.548 -926.788)" fill="none" stroke="#000" stroke-miterlimit="10" stroke-width="0.25"/>
      <path id="Path_13201" data-name="Path 13201" d="M2192.512,969.384a3.52,3.52,0,0,1,1.121,1.869" transform="translate(-2055.493 -926.936)" fill="none" stroke="#000" stroke-miterlimit="10" stroke-width="0.25"/>
      <path id="Path_13202" data-name="Path 13202" d="M2196.626,971.221a2.582,2.582,0,0,1,.523,1.345" transform="translate(-2055.422 -926.904)" fill="none" stroke="#000" stroke-miterlimit="10" stroke-width="0.25"/>
      <path id="Path_13203" data-name="Path 13203" d="M2198.756,978.531a3.943,3.943,0,0,1,.971,1.826" transform="translate(-2055.384 -926.777)" fill="none" stroke="#000" stroke-miterlimit="10" stroke-width="0.25"/>
    </g>
    <g id="Group_3739" data-name="Group 3739" transform="translate(2221.293 936.59)">
      <path id="Path_13204" data-name="Path 13204" d="M2322.7,934.268c2.161,1.413-1.762,4.153-3.272,10.32s-4.153,19.885-11.7,34.988-21.647,31.968-29.073,38.134-41.029-2.454-41.029-2.454l-19.13-16.676s10.779-26.308,25.1-36.978,36.576-17.034,49.237-19.685,19.416-2.872,24.24-5.594C2320.6,934.332,2321.655,933.586,2322.7,934.268Z" transform="translate(-2218.489 -934.021)" fill="#a5b63d" stroke="#231815" stroke-miterlimit="10" stroke-width="0.25"/>
      <path id="Path_13205" data-name="Path 13205" d="M2322.41,934.264s-5.293,6.711-19.063,19.652-27.541,26.71-42.307,36.5-21.951,18-26.073,25.838" transform="translate(-2218.201 -934.017)" fill="none" stroke="#000" stroke-miterlimit="10" stroke-width="0.25"/>
      <path id="Path_13206" data-name="Path 13206" d="M2307.242,938.9s-3.87,7.826-2.269,12.242c0,0,8.947-.407,12.165-3.3" transform="translate(-2216.986 -933.936)" fill="none" stroke="#000" stroke-miterlimit="10" stroke-width="0.25"/>
      <path id="Path_13207" data-name="Path 13207" d="M2298.983,940.367s-5.119,10.77-3.764,20.138c0,0,13.039.54,19.849-3.856" transform="translate(-2217.153 -933.911)" fill="none" stroke="#000" stroke-miterlimit="10" stroke-width="0.25"/>
      <path id="Path_13208" data-name="Path 13208" d="M2290.332,942.062s-6.515,14.081-4.8,27.653c0,0,17.6,1.814,26.829-4" transform="translate(-2217.323 -933.881)" fill="none" stroke="#000" stroke-miterlimit="10" stroke-width="0.25"/>
      <path id="Path_13209" data-name="Path 13209" d="M2282.377,944.006s-8.083,19.255-5.647,33.657c0,0,16.784,3.459,32.485-3.609" transform="translate(-2217.48 -933.847)" fill="none" stroke="#000" stroke-miterlimit="10" stroke-width="0.25"/>
      <path id="Path_13210" data-name="Path 13210" d="M2272.807,946.853s-8.1,21.345-3.677,37.1c0,0,14.1,4.927,33.774,2.544" transform="translate(-2217.628 -933.797)" fill="none" stroke="#000" stroke-miterlimit="10" stroke-width="0.25"/>
      <path id="Path_13211" data-name="Path 13211" d="M2261.131,951.212s-5.483,19.38-1.529,39.6c0,0,11.54,5.322,36.948,5.428" transform="translate(-2217.796 -933.721)" fill="none" stroke="#000" stroke-miterlimit="10" stroke-width="0.25"/>
      <path id="Path_13212" data-name="Path 13212" d="M2252.271,955.439s-5.937,23.325-1.147,41.624c0,0,19.95,10.045,39.934,6.491" transform="translate(-2217.952 -933.648)" fill="none" stroke="#000" stroke-miterlimit="10" stroke-width="0.25"/>
      <path id="Path_13213" data-name="Path 13213" d="M2242.15,961.933s-4.261,23.618,2.171,41.234a72.42,72.42,0,0,0,40.138,8.062" transform="translate(-2218.1 -933.534)" fill="none" stroke="#000" stroke-miterlimit="10" stroke-width="0.25"/>
      <path id="Path_13214" data-name="Path 13214" d="M2234.116,970.3s-4.686,18.261,2.94,41.813" transform="translate(-2218.241 -933.388)" fill="none" stroke="#000" stroke-miterlimit="10" stroke-width="0.25"/>
      <path id="Path_13215" data-name="Path 13215" d="M2225.5,983.312s.216,19.32,8.01,29.848" transform="translate(-2218.366 -933.161)" fill="none" stroke="#000" stroke-miterlimit="10" stroke-width="0.25"/>
    </g>
    <g id="Group_3740" data-name="Group 3740" transform="translate(2239.112 1000.093)">
      <path id="Path_13216" data-name="Path 13216" d="M2325.92,996.894c1.584,1.584-3.044,3.479-4.893,9.242s-9.765,32.5-24.78,38.54-46.759-24.732-46.759-24.732L2236,1009.811a113.805,113.805,0,0,1,31.314-10.418c17.939-3.153,44.252-1.087,50.884-1.522S2324.615,995.588,2325.92,996.894Z" transform="translate(-2236.002 -996.435)" fill="#cad226" stroke="#231815" stroke-miterlimit="10" stroke-width="0.25"/>
      <path id="Path_13217" data-name="Path 13217" d="M2253.207,1028.731s2.595-5.654,24.239-10.655,35.888-12.721,47.087-20.55" transform="translate(-2235.701 -996.416)" fill="none" stroke="#000" stroke-miterlimit="10" stroke-width="0.25"/>
      <path id="Path_13218" data-name="Path 13218" d="M2312.714,997.9s-4.752,4.361-5.365,9.33a45.666,45.666,0,0,0,11.912.519" transform="translate(-2234.757 -996.409)" fill="none" stroke="#000" stroke-miterlimit="10" stroke-width="0.25"/>
      <path id="Path_13219" data-name="Path 13219" d="M2305.093,997.739a38.131,38.131,0,0,0-7.332,13.842s11.661,3.338,19.861,1.545" transform="translate(-2234.924 -996.412)" fill="none" stroke="#000" stroke-miterlimit="10" stroke-width="0.25"/>
      <path id="Path_13220" data-name="Path 13220" d="M2296.024,997.527a41.812,41.812,0,0,0-7.766,17.466s13.746,7.267,26.445,5.936" transform="translate(-2235.09 -996.416)" fill="none" stroke="#000" stroke-miterlimit="10" stroke-width="0.25"/>
      <path id="Path_13221" data-name="Path 13221" d="M2286.909,997.658a58.182,58.182,0,0,0-8.509,20.087,50.562,50.562,0,0,0,32.6,10.984" transform="translate(-2235.262 -996.413)" fill="none" stroke="#000" stroke-miterlimit="10" stroke-width="0.25"/>
      <path id="Path_13222" data-name="Path 13222" d="M2278.536,998.021s-6.285,7.639-7.913,21.726c0,0,16.309,15.319,35.229,16.823" transform="translate(-2235.398 -996.407)" fill="none" stroke="#000" stroke-miterlimit="10" stroke-width="0.25"/>
      <path id="Path_13223" data-name="Path 13223" d="M2269.766,998.895a51.709,51.709,0,0,0-7.528,23.777s16.891,20.424,36.143,20.678" transform="translate(-2235.544 -996.392)" fill="none" stroke="#000" stroke-miterlimit="10" stroke-width="0.25"/>
      <path id="Path_13224" data-name="Path 13224" d="M2261.038,1000.544a53.591,53.591,0,0,0-5.76,25.973" transform="translate(-2235.666 -996.363)" fill="none" stroke="#000" stroke-miterlimit="10" stroke-width="0.25"/>
      <path id="Path_13225" data-name="Path 13225" d="M2252.677,1002.838a59.788,59.788,0,0,0-2.746,25.813" transform="translate(-2235.766 -996.323)" fill="none" stroke="#000" stroke-miterlimit="10" stroke-width="0.25"/>
    </g>
    <path id="Path_13226" data-name="Path 13226" d="M2099.978,1114.733c0-2.027,4.718-.539,7.414-3.371s13.157-17.983,27-26.045,21.127-11.568,35.551-9.276,13.784,6.741,20.98,6.606c0,0-2.24,2.966-9.116,13.212s-16.312,16.851-27.5,20.761-24.593,4.448-36.832,2.561S2099.978,1118.1,2099.978,1114.733Z" transform="translate(0.736 5.036)" fill="#a5b63d" stroke="#231815" stroke-miterlimit="10" stroke-width="0.25"/>
    <path id="Path_13227" data-name="Path 13227" d="M2099.978,1114.589s7.748,3.23,26.019-8.628c12.081-7.841,33.76-23.071,62.639-22.335" transform="translate(0.736 5.18)" fill="none" stroke="#000" stroke-miterlimit="10" stroke-width="0.25"/>
    <path id="Path_13228" data-name="Path 13228" d="M2109.711,1107.807s6.216-.513,10.138,1.3c0,0-.717,6.205-5.848,9.038" transform="translate(0.906 5.601)" fill="none" stroke="#000" stroke-miterlimit="10" stroke-width="0.25"/>
    <path id="Path_13229" data-name="Path 13229" d="M2115.593,1100.8s8.449-.9,13.851,2.436c0,0,0,10.712-5.852,16.256" transform="translate(1.008 5.478)" fill="none" stroke="#000" stroke-miterlimit="10" stroke-width="0.25"/>
    <path id="Path_13230" data-name="Path 13230" d="M2121.662,1094.5s12.163-.877,18.915,1.964a26.468,26.468,0,0,1-4.651,23.276" transform="translate(1.114 5.368)" fill="none" stroke="#000" stroke-miterlimit="10" stroke-width="0.25"/>
    <path id="Path_13231" data-name="Path 13231" d="M2130.172,1087.473s12.276-.638,20.529,3.944c0,0,4.806,14.175-3.976,26.963" transform="translate(1.263 5.247)" fill="none" stroke="#000" stroke-miterlimit="10" stroke-width="0.25"/>
    <path id="Path_13232" data-name="Path 13232" d="M2141.183,1081s10.76-.14,19.348,6.7c0,0,4.416,12.877-3.54,27.52" transform="translate(1.455 5.134)" fill="none" stroke="#000" stroke-miterlimit="10" stroke-width="0.25"/>
    <path id="Path_13233" data-name="Path 13233" d="M2154.507,1075.933s10.439,2.727,15.948,9.261c0,0,3.8,8.174-2.111,23.689" transform="translate(1.688 5.046)" fill="none" stroke="#000" stroke-miterlimit="10" stroke-width="0.25"/>
    <path id="Path_13234" data-name="Path 13234" d="M2168.745,1076.029s6.429,2.628,10.166,7.971c0,0,2.135,9.928-3.809,18.738" transform="translate(1.936 5.048)" fill="none" stroke="#000" stroke-miterlimit="10" stroke-width="0.25"/>
    <path id="Path_13235" data-name="Path 13235" d="M2186.142,1099.285c7.675-3.774,16.369,4.6,21.762.811" transform="translate(2.24 5.436)" fill="none" stroke="#000" stroke-miterlimit="10" stroke-width="0.25"/>
    <ellipse id="Ellipse_2428" data-name="Ellipse 2428" cx="4.075" cy="2.31" rx="4.075" ry="2.31" transform="translate(2181.219 1126.206)" fill="#ecb36f" stroke="#000" stroke-linejoin="round" stroke-width="0.25"/>
    <ellipse id="Ellipse_2429" data-name="Ellipse 2429" cx="4.843" cy="2.064" rx="4.843" ry="2.064" transform="translate(2295.341 1134.446)" fill="#ecb36f" stroke="#000" stroke-linejoin="round" stroke-width="0.25"/>
    <ellipse id="Ellipse_2430" data-name="Ellipse 2430" cx="3.096" cy="1.747" rx="3.096" ry="1.747" transform="translate(2276.604 1119.679)" fill="#ecb36f" stroke="#000" stroke-linejoin="round" stroke-width="0.25"/>
    <ellipse id="Ellipse_2431" data-name="Ellipse 2431" cx="3.652" cy="2.009" rx="3.652" ry="2.009" transform="translate(2323.129 1081.252)" fill="#c19165" stroke="#000" stroke-linejoin="round" stroke-width="0.25"/>
    <ellipse id="Ellipse_2432" data-name="Ellipse 2432" cx="4.287" cy="2.114" rx="4.287" ry="2.114" transform="translate(2333.609 1090.62)" fill="#c19165" stroke="#000" stroke-linejoin="round" stroke-width="0.25"/>
    <ellipse id="Ellipse_2433" data-name="Ellipse 2433" cx="4.409" cy="2.108" rx="4.409" ry="2.108" transform="translate(2063.937 1086.137)" fill="#ecb36f" stroke="#000" stroke-linejoin="round" stroke-width="0.25"/>
    <ellipse id="Ellipse_2434" data-name="Ellipse 2434" cx="2.423" cy="1.69" rx="2.423" ry="1.69" transform="translate(2074.445 1082.255)" fill="#c19165" stroke="#000" stroke-linejoin="round" stroke-width="0.25"/>
    <ellipse id="Ellipse_2435" data-name="Ellipse 2435" cx="4.173" cy="2.31" rx="4.173" ry="2.31" transform="translate(2115.686 1141.984)" fill="#c19165" stroke="#000" stroke-linejoin="round" stroke-width="0.25"/>
    <path id="Path_13236" data-name="Path 13236" d="M2064.413,1095.739c2.254,1.916,6.466,2.477,14.975-1.335,11.847-5.31,20.924,3.025,26.3.771" transform="translate(0.115 5.337)" fill="none" stroke="#000" stroke-miterlimit="10" stroke-width="0.25"/>
    <path id="Path_13237" data-name="Path 13237" d="M2090.664,1106.871c4.056-4.267,11.14.709,13.289-1.882" transform="translate(0.573 5.553)" fill="none" stroke="#000" stroke-miterlimit="10" stroke-width="0.25"/>
    <path id="Path_13238" data-name="Path 13238" d="M2108.053,1095.478s3.72-1.421,5.072-.6" transform="translate(0.876 5.372)" fill="none" stroke="#000" stroke-miterlimit="10" stroke-width="0.25"/>
    <path id="Path_13239" data-name="Path 13239" d="M2162.934,1138.147c4.228-2.479,6.077-2.93,11.182,0s7.358-3.726,12.993-2.033,8.114,1.253,8.114,1.253" transform="translate(1.834 6.091)" fill="none" stroke="#000" stroke-miterlimit="10" stroke-width="0.25"/>
    <path id="Path_13240" data-name="Path 13240" d="M2194.669,1143.675c3.268-2.029,7.438.451,9.466,0s4.846-2.592,9.241-1.353" transform="translate(2.388 6.198)" fill="none" stroke="#000" stroke-miterlimit="10" stroke-width="0.25"/>
    <path id="Path_13241" data-name="Path 13241" d="M2219.147,1125.732c5.974-3.155,9.692,1.014,16.566.677s7.326-2.633,12.623-.922a9.124,9.124,0,0,0,8.79-1.558" transform="translate(2.816 5.884)" fill="none" stroke="#000" stroke-miterlimit="10" stroke-width="0.25"/>
    <path id="Path_13242" data-name="Path 13242" d="M2296.026,1092.677s5.061-3.5,10.245-1.217,7.663,3.742,13.411,2.224,7.776.623,7.776.623" transform="translate(4.158 5.303)" fill="none" stroke="#000" stroke-miterlimit="10" stroke-width="0.25"/>
    <path id="Path_13243" data-name="Path 13243" d="M2304.967,1083.556a7.064,7.064,0,0,1,4.529,1.183c1.916,1.465,5.747-.6,5.747-.6" transform="translate(4.314 5.178)" fill="none" stroke="#000" stroke-miterlimit="10" stroke-width="0.25"/>
    <g id="Group_3741" data-name="Group 3741" transform="translate(2181.631 986.741)">
      <path id="Path_13244" data-name="Path 13244" d="M2179.829,1031.373s-5.979,44.046,33.584,66.1,104.9,7.526,102.561-43.659Z" transform="translate(-2179.507 -982.473)" fill="#ffae2c" stroke="#000" stroke-linejoin="round" stroke-width="0.25"/>
      <path id="Path_13245" data-name="Path 13245" d="M2307.113,1047.42c.721,5.49-8.725,12.616-13.186,16.684s-9.185.525-9.185.525c4.2,13.514-20.861,18.5-28.34,18.762s-8-3.805-8-3.805c-5.117,12.465-32.407,1.575-38.18-2.755s0-9.053,0-9.053c-9.709,5.512-16.8-12.6-19.288-18.631s1.444-7.741,1.444-7.741c-6.692-.919-5.51-13.646-3.805-21.125s7.086-8.4,7.086-8.4c-8.528-6.561,1.705-20.468,3.919-22.961a5.318,5.318,0,0,1,5.416-1.409,95.932,95.932,0,0,0-10.341-4.2s-27.072,43.96-8.179,81.089,85.668,49.192,129.5-9.746C2315.97,1054.655,2313.953,1052.16,2307.113,1047.42Z" transform="translate(-2179.503 -983.312)" fill="#fff6eb" stroke="#000" stroke-miterlimit="10" stroke-width="0.25"/>
      <path id="Path_13246" data-name="Path 13246" d="M2199.445,988.855c-2.214,2.493-12.447,16.4-3.919,22.961,0,0-5.38.919-7.086,8.4s-2.886,20.206,3.805,21.124c0,0-3.936,1.705-1.444,7.741s9.578,24.142,19.288,18.631c0,0-5.774,4.724,0,9.053s33.063,15.22,38.18,2.755c0,0,.525,4.068,8,3.805s32.539-5.248,28.34-18.762c0,0,4.724,3.542,9.185-.525s13.907-11.194,13.186-16.684c-7.822-5.42-21.954-13.777-46.619-24.708.151,2-1.6,2.247-3.444,2.469s-2.122,2.233-3.293,2.68-1.843-1.284-3.964-1.34-1.508-2.289-2.747-4.3-3.338-1.508-2.78-3.405-.224-2.512.558-3.908,2.222-.34,2.222-.34-20.936-17.143-42.056-27.055A5.318,5.318,0,0,0,2199.445,988.855Z" transform="translate(-2179.375 -983.244)" fill="#ffc952" stroke="#000" stroke-linejoin="round" stroke-width="0.25"/>
      <path id="Path_13247" data-name="Path 13247" d="M2243.718,1014.379c-.781,1.4,0,2.009-.558,3.908s1.541,1.4,2.78,3.405.626,4.243,2.747,4.3,2.791,1.787,3.964,1.34,1.451-2.456,3.293-2.68,3.595-.473,3.444-2.469c0,0-7.106-5.727-13.448-8.143C2245.94,1014.039,2244.5,1012.983,2243.718,1014.379Z" transform="translate(-2178.398 -982.782)" fill="#fff6eb" stroke="#000" stroke-miterlimit="10" stroke-width="0.25"/>
      <path id="Path_13248" data-name="Path 13248" d="M2195.382,1011.394s23.052,7.971,48.611,6.933" transform="translate(-2179.23 -982.822)" fill="none" stroke="#000" stroke-miterlimit="10" stroke-width="0.25"/>
      <path id="Path_13249" data-name="Path 13249" d="M2192.158,1040.71a152.8,152.8,0,0,0,24.616-4.388c14.748-3.73,23.984-10.56,30.752-13.132" transform="translate(-2179.286 -982.616)" fill="none" stroke="#000" stroke-miterlimit="10" stroke-width="0.25"/>
      <path id="Path_13250" data-name="Path 13250" d="M2209.7,1067.041s3.068-.34,11.116-11.034,10.4-11.48,17.473-18.94a116.644,116.644,0,0,0,9.962-11.595" transform="translate(-2178.98 -982.576)" fill="none" stroke="#000" stroke-miterlimit="10" stroke-width="0.25"/>
      <path id="Path_13251" data-name="Path 13251" d="M2249.964,1026.071s-.146,10.474,0,21.623-2.459,26.578-2.743,31.145" transform="translate(-2178.325 -982.565)" fill="none" stroke="#000" stroke-miterlimit="10" stroke-width="0.25"/>
      <path id="Path_13252" data-name="Path 13252" d="M2255.724,1024.463s2.849,2.774,9.1,10.387,14.88,19.325,18.589,29.061" transform="translate(-2178.177 -982.594)" fill="none" stroke="#000" stroke-miterlimit="10" stroke-width="0.25"/>
      <line id="Line_731" data-name="Line 731" x2="0.884" y2="1.621" transform="translate(60.306 117.98)" fill="none" stroke="#000" stroke-miterlimit="10" stroke-width="0.25"/>
      <line id="Line_732" data-name="Line 732" y2="2.284" transform="translate(77.547 116.507)" fill="none" stroke="#000" stroke-miterlimit="10" stroke-width="0.25"/>
      <line id="Line_733" data-name="Line 733" x2="0.737" y2="1.621" transform="translate(88.598 117.98)" fill="none" stroke="#000" stroke-miterlimit="10" stroke-width="0.25"/>
      <line id="Line_734" data-name="Line 734" x2="0.589" y2="1.916" transform="translate(98.618 108.107)" fill="none" stroke="#000" stroke-miterlimit="10" stroke-width="0.25"/>
      <line id="Line_735" data-name="Line 735" y2="2.492" transform="translate(103.923 112.247)" fill="none" stroke="#000" stroke-miterlimit="10" stroke-width="0.25"/>
      <line id="Line_736" data-name="Line 736" y2="1.767" transform="translate(116.449 100.298)" fill="none" stroke="#000" stroke-miterlimit="10" stroke-width="0.25"/>
      <line id="Line_737" data-name="Line 737" y2="2.652" transform="translate(124.553 98.529)" fill="none" stroke="#000" stroke-miterlimit="10" stroke-width="0.25"/>
      <line id="Line_738" data-name="Line 738" x2="0.737" y2="1.326" transform="translate(121.606 91.309)" fill="none" stroke="#000" stroke-miterlimit="10" stroke-width="0.25"/>
      <line id="Line_739" data-name="Line 739" y2="1.474" transform="translate(126.026 88.509)" fill="none" stroke="#000" stroke-miterlimit="10" stroke-width="0.25"/>
      <ellipse id="Ellipse_2436" data-name="Ellipse 2436" cx="1.856" cy="3.187" rx="1.856" ry="3.187" transform="matrix(0.815, -0.579, 0.579, 0.815, 88.343, 49.029)" fill="#dffffa" stroke="#231815" stroke-miterlimit="10" stroke-width="0.25"/>
      <ellipse id="Ellipse_2437" data-name="Ellipse 2437" cx="1.505" cy="2.842" rx="1.505" ry="2.842" transform="translate(114.512 64.125) rotate(-63.494)" fill="#dffffa" stroke="#231815" stroke-miterlimit="10" stroke-width="0.25"/>
      <ellipse id="Ellipse_2438" data-name="Ellipse 2438" cx="3.02" cy="4.759" rx="3.02" ry="4.759" transform="translate(93.94 65.832) rotate(-81.532)" fill="#dffffa" stroke="#231815" stroke-miterlimit="10" stroke-width="0.25"/>
      <path id="Path_13253" data-name="Path 13253" d="M2254.047,1037.777c-.944,1.889.719,7.288,1.888,2.678" transform="translate(-2178.211 -982.361)" fill="none" stroke="#000" stroke-miterlimit="10" stroke-width="0.25"/>
      <path id="Path_13254" data-name="Path 13254" d="M2261.908,1054.746c.494,3.507,2.427,5.4,3.731,4.766s-.359-2.787-1.528-2.922" transform="translate(-2178.069 -982.065)" fill="none" stroke="#000" stroke-miterlimit="10" stroke-width="0.25"/>
      <path id="Path_13255" data-name="Path 13255" d="M2271.541,1058.812c.27,1.573,1.933,5.221,3.463,4.5s-.9-3.466-.9-3.466" transform="translate(-2177.901 -981.994)" fill="none" stroke="#000" stroke-miterlimit="10" stroke-width="0.25"/>
      <path id="Path_13256" data-name="Path 13256" d="M2240.7,1042.193s-1.584,3.092-.661,3.772,2.046-1.564,2.046-1.564" transform="translate(-2178.456 -982.284)" fill="none" stroke="#000" stroke-miterlimit="10" stroke-width="0.25"/>
      <path id="Path_13257" data-name="Path 13257" d="M2232.265,1055.908s-6.008,4.525-4.554,6.533c.949,1.312,3.366-1.781,3.366-1.781" transform="translate(-2178.67 -982.045)" fill="none" stroke="#000" stroke-miterlimit="10" stroke-width="0.25"/>
      <path id="Path_13258" data-name="Path 13258" d="M2240.455,1067.682c1.305,1.7.29,7.036-1.56,6.673s-1.741-2.684-.942-3.7" transform="translate(-2178.497 -981.839)" fill="none" stroke="#000" stroke-miterlimit="10" stroke-width="0.25"/>
      <path id="Path_13259" data-name="Path 13259" d="M2254.958,1069.143c-1.052,1.56-.871,4.861.471,5.042s1.306-3.01,1.306-3.01" transform="translate(-2178.202 -981.814)" fill="none" stroke="#000" stroke-miterlimit="10" stroke-width="0.25"/>
      <path id="Path_13260" data-name="Path 13260" d="M2207.26,1029.013c-1.89.516-4.986,1.805-4.555,3.525s3.782,0,3.782,0" transform="translate(-2179.103 -982.514)" fill="none" stroke="#000" stroke-miterlimit="10" stroke-width="0.25"/>
      <path id="Path_13261" data-name="Path 13261" d="M2205.935,1054.746s-2.75,2.871,0,2.011" transform="translate(-2179.067 -982.065)" fill="none" stroke="#000" stroke-miterlimit="10" stroke-width="0.25"/>
      <path id="Path_13262" data-name="Path 13262" d="M2212.826,1042.42c-1.844.461-3.687,2.5-2.823,3.669s3.111-1.018,3.111-1.018" transform="translate(-2178.979 -982.28)" fill="none" stroke="#000" stroke-miterlimit="10" stroke-width="0.25"/>
      <path id="Path_13263" data-name="Path 13263" d="M2226.852,1022.443c-1.671-.288-5.357-.979-5.473,0s1.153.768,1.153.768" transform="translate(-2178.777 -982.638)" fill="none" stroke="#000" stroke-miterlimit="10" stroke-width="0.25"/>
      <path id="Path_13264" data-name="Path 13264" d="M2227.93,1011.854c-1.844-.807-9.044-.461-8.929,1.095s3.629.747,3.629.747" transform="translate(-2178.818 -982.821)" fill="none" stroke="#000" stroke-miterlimit="10" stroke-width="0.25"/>
      <path id="Path_13265" data-name="Path 13265" d="M2217.283,1004.643c-.461-.922-4.606-3.45-5.358-2.132-.594,1.044,1.555,3.11,1.555,3.11" transform="translate(-2178.943 -982.983)" fill="none" stroke="#000" stroke-miterlimit="10" stroke-width="0.25"/>
      <path id="Path_13266" data-name="Path 13266" d="M2235.06,1009.649c-.173-.115-3.034-4.9-5.07-3.686-1.25.743,1.5,3.686,1.5,3.686" transform="translate(-2178.632 -982.92)" fill="none" stroke="#000" stroke-miterlimit="10" stroke-width="0.25"/>
    </g>
  </g>
</svg>
