<svg id="圖層_1" data-name="圖層 1" xmlns="http://www.w3.org/2000/svg" viewBox="0 0 151.55 67.71"><defs><style>.cls-1{fill:#fff;}</style></defs><title>0</title><path class="cls-1" d="M151.43,43.45a7.89,7.89,0,0,0-7.06-6.64,10.13,10.13,0,0,0,3-2,10,10,0,0,0,3.14-7,10.09,10.09,0,0,0-4.49-8.65,8.68,8.68,0,0,0,.13-1.34,10,10,0,0,0-9.72-10.31h-.13A10,10,0,0,0,127.21.87h-.3A9.91,9.91,0,0,0,117.68,7h-.16a10.11,10.11,0,0,0-10,9.74,11.73,11.73,0,0,0,0,1.18,10,10,0,0,0,1.19,18.16,8.21,8.21,0,0,0-2.46.38,7.76,7.76,0,0,0-5.34,6A9.42,9.42,0,0,0,103,50.13c1.74,2.21,6,5.94,14.86,6.06h.3a14.07,14.07,0,0,0,7.78-2,14.13,14.13,0,0,0,8,2.32h.81c8.35,0,12.52-3.43,14.27-5.47A9.41,9.41,0,0,0,151.43,43.45ZM148,50.13c-1.61,1.88-5.43,5-13.19,5H134c-3.93-.1-6.65-1.3-8-2.78-1.37,1.39-4,2.46-7.81,2.46h-.29c-8.28-.12-12.17-3.51-13.76-5.52a8,8,0,0,1-1.82-6.5,6.41,6.41,0,0,1,4.39-5,6.34,6.34,0,0,1,6,1.11,15.74,15.74,0,0,1,2.34,2.94c1.44,2.16,2.93,4.39,7.06,5.36a24.6,24.6,0,0,0-2.71-9.37,16.7,16.7,0,0,0-2.69-3.76,8.59,8.59,0,1,1-7.64-15.34,8.31,8.31,0,0,1-.18-2,8.62,8.62,0,0,1,8.6-8.36h.26a6.78,6.78,0,0,1,.87.07,8.59,8.59,0,0,1,8.26-6.21h.25A8.58,8.58,0,0,1,135.3,9a7.65,7.65,0,0,1,1.13-.06,8.61,8.61,0,0,1,8.36,8.86,8.5,8.5,0,0,1-.33,2.08,8.61,8.61,0,0,1,4.68,7.91,8.6,8.6,0,0,1-8.59,8.36h-.26a8.55,8.55,0,0,1-4.24-1.27,17.81,17.81,0,0,0-2.68,3.39,24.52,24.52,0,0,0-3.24,9.09c4.11-.82,5.68-3,7.19-5.05a15.3,15.3,0,0,1,2.46-2.85A6.48,6.48,0,0,1,150,43.71,8,8,0,0,1,148,50.13Zm-36-13.4h.37a10.06,10.06,0,0,0,4.11-.89,16.4,16.4,0,0,1,1.77,2.66,22.22,22.22,0,0,1,2.25,6.64,9.92,9.92,0,0,1-4.18-4.08,16.64,16.64,0,0,0-2.55-3.2A6.4,6.4,0,0,0,111.93,36.73Zm28.17.82a6.5,6.5,0,0,0-1.24.82,17.07,17.07,0,0,0-2.68,3.09A9.92,9.92,0,0,1,132,45.31,22.33,22.33,0,0,1,134.57,39a18.64,18.64,0,0,1,1.76-2.38A9.74,9.74,0,0,0,140.1,37.55Z"/><path class="cls-1" d="M50.67,42.59a7.75,7.75,0,0,0-5.09-6.21,8.14,8.14,0,0,0-2-.44,10,10,0,0,0,1.73-17.62A10.33,10.33,0,0,0,45.45,17,10,10,0,0,0,35.72,6.66h-.13A10,10,0,0,0,26.44,0h-.26a10,10,0,0,0-9.26,6.13h-.15a10.09,10.09,0,0,0-10,9.73,9.53,9.53,0,0,0,0,1.19A10,10,0,0,0,8,35.21a8.15,8.15,0,0,0-2.46.37,7.75,7.75,0,0,0-5.34,6,9.4,9.4,0,0,0,2.08,7.69c1.74,2.21,6,5.93,14.86,6.06h.3a13.94,13.94,0,0,0,7.78-2,14.18,14.18,0,0,0,8,2.33H34c8.35,0,12.53-3.43,14.27-5.47A9.38,9.38,0,0,0,50.67,42.59ZM47.2,49.27c-1.61,1.88-5.43,5-13.19,5h-.77c-3.93-.1-6.65-1.3-8-2.77-1.38,1.38-4,2.45-7.82,2.45h-.29C8.85,53.79,5,50.4,3.38,48.39a8,8,0,0,1-1.82-6.5,6.38,6.38,0,0,1,4.38-5,6.34,6.34,0,0,1,6,1.11A15.12,15.12,0,0,1,14.32,41c1.44,2.16,2.93,4.39,7.07,5.36A24.66,24.66,0,0,0,18.68,37,16.86,16.86,0,0,0,16,33.22,8.59,8.59,0,1,1,8.34,17.88a9.6,9.6,0,0,1-.18-2,8.62,8.62,0,0,1,8.61-8.35H17c.28,0,.57,0,.87.07a8.6,8.6,0,0,1,16.65.51,9.33,9.33,0,0,1,1.14-.05A8.57,8.57,0,0,1,43.7,19a8.6,8.6,0,0,1-3.92,16.26h-.25A8.56,8.56,0,0,1,35.29,34a17.81,17.81,0,0,0-2.68,3.39,24.84,24.84,0,0,0-3.24,9.1c4.11-.82,5.68-3,7.2-5.06A14.82,14.82,0,0,1,39,38.59a6.48,6.48,0,0,1,10.26,4.26A8,8,0,0,1,47.2,49.27Zm-36-13.41h.37A10,10,0,0,0,15.66,35a17.43,17.43,0,0,1,1.77,2.68,21.9,21.9,0,0,1,2.24,6.63A9.86,9.86,0,0,1,15.5,40.2,16.63,16.63,0,0,0,12.94,37,6.89,6.89,0,0,0,11.17,35.86Zm28.17.83a7,7,0,0,0-1.24.81,16.78,16.78,0,0,0-2.68,3.1,10,10,0,0,1-4.19,3.85,22,22,0,0,1,2.59-6.31,17.15,17.15,0,0,1,1.75-2.38A10.1,10.1,0,0,0,39.34,36.69Z"/><path class="cls-1" d="M95,48.43A8,8,0,0,0,93,48,10,10,0,0,0,94.7,30.37,8.81,8.81,0,0,0,94.83,29,10,10,0,0,0,85.1,18.71H85a10,10,0,0,0-9.16-6.66h-.28a9.91,9.91,0,0,0-9.23,6.13h-.16a10.1,10.1,0,0,0-10,9.73,9.55,9.55,0,0,0,0,1.19,10,10,0,0,0,1.19,18.16,8.21,8.21,0,0,0-2.47.37,7.76,7.76,0,0,0-5.34,6,9.44,9.44,0,0,0,2.09,7.69c1.74,2.21,6,5.93,14.86,6.06h.3a13.94,13.94,0,0,0,7.78-2,14.13,14.13,0,0,0,8,2.33h.81c8.35,0,12.52-3.43,14.27-5.48a9.38,9.38,0,0,0,2.39-7.59A7.75,7.75,0,0,0,95,48.43Zm1.63,12.88c-1.61,1.89-5.43,5-13.19,5h-.77c-3.93-.1-6.65-1.3-8-2.77-1.37,1.38-4,2.45-7.81,2.45h-.29c-8.28-.12-12.17-3.51-13.76-5.52A8,8,0,0,1,51,53.94a6.48,6.48,0,0,1,10.42-3.85A15.48,15.48,0,0,1,63.71,53c1.44,2.16,2.93,4.39,7.06,5.36A24.6,24.6,0,0,0,68.06,49a17,17,0,0,0-2.69-3.76,8.59,8.59,0,1,1-7.64-15.33,8.39,8.39,0,0,1-.18-2,8.62,8.62,0,0,1,8.6-8.36h.26c.28,0,.56,0,.87.07a8.59,8.59,0,0,1,8.26-6.21h.25a8.57,8.57,0,0,1,8.14,6.71,7.55,7.55,0,0,1,1.13-.05,8.57,8.57,0,0,1,8,10.94,8.6,8.6,0,0,1-3.92,16.26h-.25a8.66,8.66,0,0,1-4.24-1.28A17.81,17.81,0,0,0,82,49.44a24.59,24.59,0,0,0-3.24,9.09c4.11-.81,5.68-3,7.19-5.05a15.3,15.3,0,0,1,2.46-2.85,6.35,6.35,0,0,1,6.08-.87,6.42,6.42,0,0,1,4.18,5.14A8,8,0,0,1,96.59,61.31Zm-36-13.4h.37A10.06,10.06,0,0,0,65,47a16.56,16.56,0,0,1,1.77,2.67,22.14,22.14,0,0,1,2.25,6.63c-2.1-1-3.08-2.43-4.18-4.08a16.64,16.64,0,0,0-2.55-3.2A6.63,6.63,0,0,0,60.56,47.91Zm28.17.83a6.46,6.46,0,0,0-1.24.81,16.78,16.78,0,0,0-2.68,3.1,10,10,0,0,1-4.19,3.85,22.07,22.07,0,0,1,2.58-6.31A17.31,17.31,0,0,1,85,47.81,10.1,10.1,0,0,0,88.73,48.74Z"/></svg>