<svg id="圖層_1" data-name="圖層 1" xmlns="http://www.w3.org/2000/svg" viewBox="0 0 94.72 54.13"><defs><style>.cls-1{fill:#fff;}</style></defs><title>0</title><path class="cls-1" d="M31,29.79a19.53,19.53,0,0,1,.22-2.57l.06-.36c-.08-.31-.17-.63-.28-1A10.35,10.35,0,0,0,30,23.74a11.34,11.34,0,0,0-.83-1,7.77,7.77,0,0,0-1-.89,7.08,7.08,0,0,0-2.58-1.17,7.65,7.65,0,0,0-1.38-.18h-.29a6.18,6.18,0,0,0-1.19.11,6.4,6.4,0,0,0-2.42,1c0-.59-.09-1.16-.15-1.73-.14-1.34-.3-2.77-.6-4.23a1.54,1.54,0,0,0-3,0c-.29,1.46-.46,2.89-.6,4.24l0,.31h0a11.57,11.57,0,0,0-2.32-2.06c-.15-.1-.3-.2-.49-.31l-.26-.15-.14-.07c-.19-.1-.38-.2-.56-.28a12.3,12.3,0,0,0-1.56-.54,8.87,8.87,0,0,0-2-.24,5.88,5.88,0,0,0-1.35.15,1.54,1.54,0,0,0,.15,3,6.29,6.29,0,0,1,3.52,1.7c.16.15.31.31.46.47-.23,0-.47,0-.71-.05a9.23,9.23,0,0,0-3.17.57A8.93,8.93,0,0,0,4.75,24a10.88,10.88,0,0,0-1.91,2.26,13.69,13.69,0,0,0-1.27,2.43A19.09,19.09,0,0,0,.73,31.2a23.57,23.57,0,0,0-.51,2.53A19.25,19.25,0,0,0,0,36.29a1.54,1.54,0,0,0,1.35,1.55l.18,0A1.56,1.56,0,0,0,3,36.69a31.23,31.23,0,0,1,1.39-4.23,16.19,16.19,0,0,1,2-3.6,5.69,5.69,0,0,1,2.62-2,4.1,4.1,0,0,1,1.29-.2h.15a1.75,1.75,0,0,1,.94.33,3.47,3.47,0,0,1,.84.83,9.22,9.22,0,0,0-2.8.5,8.49,8.49,0,0,0-2.7,1.61A9,9,0,0,0,5,32.23a10.53,10.53,0,0,0-1,2.59,10.38,10.38,0,0,0-.33,2.69A1.54,1.54,0,0,0,4.88,39a1.15,1.15,0,0,0,.26,0,1.54,1.54,0,0,0,1.44-1,14.77,14.77,0,0,1,.85-1.85,11.25,11.25,0,0,1,1-1.57,6.46,6.46,0,0,1,1.17-1.12A4.49,4.49,0,0,1,11,32.87a4.24,4.24,0,0,1,1.14-.16h.3a1.49,1.49,0,0,1,.8.28,4.7,4.7,0,0,1,1.47,2.44,17.85,17.85,0,0,1,.78,3.87c.06.64.1,1.34.12,2.06,0,.15,0,1.78,0,3.67,0,2.41,0,5.36,0,6.76a2.36,2.36,0,0,0,4.72,0c0-.84.06-1.81.07-2.17v-.09a9.58,9.58,0,0,1,.3-1.4,15.2,15.2,0,0,1,.53-1.61,14.13,14.13,0,0,1,1.47-2.94,7.16,7.16,0,0,1,1-1.14,4.1,4.1,0,0,1,1.06-.77,3.24,3.24,0,0,1,1.18-.32h.26a6,6,0,0,1,1.26.16,1.24,1.24,0,0,0,.27,0,1.56,1.56,0,0,0,1.44-1,1.53,1.53,0,0,0-.65-1.89,6.79,6.79,0,0,0-2.42-.9,6,6,0,0,0-1-.09,6.66,6.66,0,0,0-1.72.23,7.88,7.88,0,0,0-2.4,1.14q-.24.16-.48.36l0-3.6c.06-1.13.15-2.14.27-3.08a26,26,0,0,1,.6-3.4,10.13,10.13,0,0,1,1.08-2.82,4.44,4.44,0,0,1,.34-.5,2.85,2.85,0,0,1,.33-.35,1.48,1.48,0,0,1,.65-.35,1.76,1.76,0,0,1,.36,0,3,3,0,0,1,.53,0,2.59,2.59,0,0,1,.95.34,5.51,5.51,0,0,1,1.76,1.93,15.85,15.85,0,0,1,1.38,3.13,1.55,1.55,0,0,0,1.52,1h.14a1.54,1.54,0,0,0,1.17-.86A1.56,1.56,0,0,1,31,29.79Zm-.85.59c-.07,0-.12,0-.13-.08a17.31,17.31,0,0,0-1.5-3.39,6.7,6.7,0,0,0-2.28-2.44A4,4,0,0,0,24.84,24a4.87,4.87,0,0,0-.76-.06h0a3,3,0,0,0-.71.08,2.85,2.85,0,0,0-1.21.64,4.45,4.45,0,0,0-.52.54c-.18.25-.33.45-.45.65A11.9,11.9,0,0,0,20,29a28.86,28.86,0,0,0-.64,3.57c-.12,1-.21,2.07-.28,3.18,0,1.37,0,2.85,0,4.09,0,1.44,0,2.47,0,2.62v.7a10.54,10.54,0,0,1,1.12-1.49,9.23,9.23,0,0,1,1.6-1.43,6.26,6.26,0,0,1,2-.94,5.21,5.21,0,0,1,2.15-.12,5.56,5.56,0,0,1,1.93.73.12.12,0,0,1,.05.15.13.13,0,0,1-.15.08A6.29,6.29,0,0,0,25.8,40a4.64,4.64,0,0,0-1.7.47,5.45,5.45,0,0,0-1.41,1,9.62,9.62,0,0,0-1.14,1.37,15.79,15.79,0,0,0-1.63,3.24c-.2.53-.4,1.11-.57,1.73A11.8,11.8,0,0,0,19,49.47s-.05,1.28-.07,2.33a.95.95,0,0,1-1.89,0c0-1.39,0-4.34,0-6.75,0-1.91,0-3.56,0-3.69,0-.76-.07-1.49-.13-2.17A18.91,18.91,0,0,0,16,35a6.07,6.07,0,0,0-2-3.16,2.79,2.79,0,0,0-1.54-.52,5.63,5.63,0,0,0-1.89.19,6.13,6.13,0,0,0-1.73.83,7.35,7.35,0,0,0-1.46,1.39A11.45,11.45,0,0,0,6.19,35.5a14.84,14.84,0,0,0-.93,2,.13.13,0,0,1-.14.08.12.12,0,0,1-.1-.12,8.56,8.56,0,0,1,.29-2.33,9.87,9.87,0,0,1,.88-2.23,7.79,7.79,0,0,1,1.55-2A6.71,6.71,0,0,1,10,29.65a7.5,7.5,0,0,1,2.55-.42,5,5,0,0,1,2.41.66c-.1-.27-.21-.54-.32-.8a10.58,10.58,0,0,0-1-1.88,5.32,5.32,0,0,0-1.35-1.4,3.16,3.16,0,0,0-1.68-.57,5.67,5.67,0,0,0-2,.26A7.14,7.14,0,0,0,5.33,28a17.22,17.22,0,0,0-2.21,3.94,32.35,32.35,0,0,0-1.46,4.43.13.13,0,0,1-.13.09.12.12,0,0,1-.11-.13,18.15,18.15,0,0,1,.2-2.38,21,21,0,0,1,.48-2.36,18,18,0,0,1,.78-2.31A12.78,12.78,0,0,1,4,27.06a9,9,0,0,1,1.66-2A7.27,7.27,0,0,1,8,23.7a7.57,7.57,0,0,1,2.67-.47,5.22,5.22,0,0,1,1.44.22,5.59,5.59,0,0,1,1.32.6,7.06,7.06,0,0,1,1.68,1.54c-.17-.46-.34-.9-.53-1.31a13.11,13.11,0,0,0-1.15-2.1,10.79,10.79,0,0,0-1.53-1.82,7.73,7.73,0,0,0-4.34-2.08.13.13,0,0,1,0-.25,6.07,6.07,0,0,1,2.69.1,8.4,8.4,0,0,1,1.31.45l.47.23.14.08.21.12.39.24a10.42,10.42,0,0,1,2.07,1.84,13.12,13.12,0,0,1,1.56,2.27c.22.4.43.83.64,1.31,0-.2,0-.4,0-.6.06-1.39.16-2.76.29-4.09s.3-2.69.58-4.09a.12.12,0,0,1,.24,0c.28,1.4.45,2.8.58,4.09s.23,2.7.29,4.09l0,1c.09-.16.17-.32.26-.47A6.73,6.73,0,0,1,20.77,23a5,5,0,0,1,3.34-1.09,6.6,6.6,0,0,1,1.11.15,5.58,5.58,0,0,1,2.06.94,6.18,6.18,0,0,1,.82.73,7.48,7.48,0,0,1,.67.85,7.89,7.89,0,0,1,.91,1.84,10.82,10.82,0,0,1,.49,1.94c0,.33.08.66.1,1a6.57,6.57,0,0,1,0,1A.12.12,0,0,1,30.17,30.38Z"/><path class="cls-1" d="M62.59,21.6A12,12,0,0,0,62,19.4,9.25,9.25,0,0,0,61,17.24a9,9,0,0,0-.83-1.06,9.13,9.13,0,0,0-1-.88,7.06,7.06,0,0,0-2.57-1.18,7.89,7.89,0,0,0-1.39-.18H54.9a6.29,6.29,0,0,0-1.2.11,6.38,6.38,0,0,0-2.42,1c0-.58-.09-1.16-.15-1.73a41.53,41.53,0,0,0-.6-4.22,1.54,1.54,0,0,0-3,0c-.29,1.46-.46,2.89-.6,4.23l0,.31h0a11.88,11.88,0,0,0-2.33-2.06c-.15-.11-.3-.2-.48-.31l-.27-.15L43.63,11a5.16,5.16,0,0,0-.53-.26,10.5,10.5,0,0,0-1.56-.54,8.73,8.73,0,0,0-2-.24,6.57,6.57,0,0,0-1.35.14,1.54,1.54,0,0,0,.15,3,6.32,6.32,0,0,1,3.52,1.7c.16.16.32.31.46.47-.23,0-.47,0-.71,0a8.59,8.59,0,0,0-5.88,2.22,10.86,10.86,0,0,0-1.91,2.25,14.42,14.42,0,0,0-1.27,2.43,20.18,20.18,0,0,0-.83,2.49c-.19.68-.33,1.41-.46,2.16a9.88,9.88,0,0,1,.27,1.24,10.18,10.18,0,0,1,.12,1.11,8.52,8.52,0,0,1,0,1.13,1.48,1.48,0,0,1-.16.59,1.52,1.52,0,0,0,.84.41h.18a1.53,1.53,0,0,0,1.51-1.16A31.23,31.23,0,0,1,35.45,26a16.54,16.54,0,0,1,2-3.6,5.69,5.69,0,0,1,2.63-2,4,4,0,0,1,1.28-.2h.15a1.71,1.71,0,0,1,.95.33,3.86,3.86,0,0,1,.84.83,8.87,8.87,0,0,0-2.8.5,8.18,8.18,0,0,0-2.71,1.61A8.72,8.72,0,0,0,36,25.73a10.85,10.85,0,0,0-1,2.58A10,10,0,0,0,34.62,31a1.52,1.52,0,0,0,1.21,1.48,1.27,1.27,0,0,0,.34,0,1.54,1.54,0,0,0,1.43-1,17.22,17.22,0,0,1,.85-1.85,10.55,10.55,0,0,1,1-1.56A6.16,6.16,0,0,1,40.67,27a4.34,4.34,0,0,1,1.3-.63,4.3,4.3,0,0,1,1.14-.15h.3a1.39,1.39,0,0,1,.8.28,4.59,4.59,0,0,1,1.47,2.43,18.11,18.11,0,0,1,.78,3.87c.06.65.11,1.35.13,2.07,0,.14,0,1.65,0,3.57,0,2.43,0,5.43,0,6.85a2.36,2.36,0,0,0,4.72,0c0-.77,0-1.66.06-2.08v-.16a11.74,11.74,0,0,1,.3-1.42c.16-.57.34-1.1.53-1.6a14.64,14.64,0,0,1,1.47-2.94A8.43,8.43,0,0,1,54.69,36a4.64,4.64,0,0,1,1.06-.77,3.24,3.24,0,0,1,1.18-.32h.26a5.54,5.54,0,0,1,1.24.16,1.5,1.5,0,0,0,.29,0,1.54,1.54,0,0,0,.8-2.86,6.88,6.88,0,0,0-2.42-.91,6.19,6.19,0,0,0-1.05-.08,6.26,6.26,0,0,0-1.72.23,7.66,7.66,0,0,0-2.4,1.14l-.47.35v-3.6c.07-1.12.16-2.13.27-3.08a26.47,26.47,0,0,1,.61-3.4A10.41,10.41,0,0,1,53.42,20c.1-.16.21-.32.34-.5a3.82,3.82,0,0,1,.33-.35,1.57,1.57,0,0,1,.65-.34,1.15,1.15,0,0,1,.36,0,4.24,4.24,0,0,1,.53,0,2.73,2.73,0,0,1,.95.35,5.34,5.34,0,0,1,1.76,1.93,15.33,15.33,0,0,1,1.37,3.11,1.55,1.55,0,0,0,1.54,1.05h.13a1.54,1.54,0,0,0,1.34-1.44,8.66,8.66,0,0,0,0-1.14A9.49,9.49,0,0,0,62.59,21.6Zm-1.4,2.28a.12.12,0,0,1-.13-.09,17.25,17.25,0,0,0-1.5-3.39A6.73,6.73,0,0,0,57.29,18a4.24,4.24,0,0,0-1.43-.52,6.33,6.33,0,0,0-.76-.05h0a2.57,2.57,0,0,0-.71.08,2.79,2.79,0,0,0-1.21.64,3.77,3.77,0,0,0-.51.54,7.12,7.12,0,0,0-.45.65A11.69,11.69,0,0,0,51,22.52a28.18,28.18,0,0,0-.64,3.57c-.12,1-.21,2.07-.27,3.17,0,1.36,0,2.82,0,4.05,0,1.46,0,2.51,0,2.67v.69a12,12,0,0,1,1.12-1.48,8.91,8.91,0,0,1,1.6-1.44,6.48,6.48,0,0,1,2-.94,5,5,0,0,1,2.15-.11,5.54,5.54,0,0,1,1.93.72.14.14,0,0,1,.05.16.13.13,0,0,1-.14.07,6.32,6.32,0,0,0-1.88-.17,4.53,4.53,0,0,0-1.69.46,5.8,5.8,0,0,0-1.42,1,8.86,8.86,0,0,0-1.13,1.36,16.33,16.33,0,0,0-1.64,3.24c-.2.53-.39,1.11-.57,1.73A11.92,11.92,0,0,0,50,43s0,1.27-.07,2.32a.94.94,0,0,1-.94.92,1,1,0,0,1-1-.93c0-1.42,0-4.42,0-6.84,0-1.94,0-3.47,0-3.61,0-.75-.06-1.48-.13-2.17A19,19,0,0,0,47,28.48a6,6,0,0,0-2-3.15,2.86,2.86,0,0,0-1.55-.53,5.66,5.66,0,0,0-1.89.2,5.9,5.9,0,0,0-1.72.82,8,8,0,0,0-1.47,1.39A12.21,12.21,0,0,0,37.21,29a15.42,15.42,0,0,0-.93,2,.12.12,0,0,1-.14.08A.12.12,0,0,1,36,31a8.85,8.85,0,0,1,.29-2.32,9.53,9.53,0,0,1,.89-2.23,7.58,7.58,0,0,1,1.54-2A7,7,0,0,1,41,23.14a7.81,7.81,0,0,1,2.56-.42,5.06,5.06,0,0,1,2.4.66c-.1-.27-.2-.54-.31-.8a10.18,10.18,0,0,0-1-1.87,5.32,5.32,0,0,0-1.35-1.4,3.18,3.18,0,0,0-1.68-.58,5.67,5.67,0,0,0-2,.27,7.12,7.12,0,0,0-3.28,2.48,17.51,17.51,0,0,0-2.2,3.93,30.62,30.62,0,0,0-1.46,4.43.13.13,0,0,1-.14.09.12.12,0,0,1-.11-.12,18.43,18.43,0,0,1,.2-2.39,19.32,19.32,0,0,1,.49-2.36,16.79,16.79,0,0,1,.77-2.3,12.51,12.51,0,0,1,1.15-2.21,9.44,9.44,0,0,1,1.66-2A7.36,7.36,0,0,1,39,17.2a7.52,7.52,0,0,1,2.66-.47,5.16,5.16,0,0,1,1.44.21,5.63,5.63,0,0,1,1.32.61,6.7,6.7,0,0,1,1.68,1.54c-.17-.46-.34-.9-.53-1.32a12.23,12.23,0,0,0-1.15-2.09,10.34,10.34,0,0,0-1.53-1.82,7.82,7.82,0,0,0-4.33-2.09.11.11,0,0,1-.11-.11.11.11,0,0,1,.09-.13,6,6,0,0,1,2.7.09,8.29,8.29,0,0,1,1.3.46,3.88,3.88,0,0,1,.46.22l.16.08.2.13a3.26,3.26,0,0,1,.4.24,10.66,10.66,0,0,1,2.07,1.84,13.47,13.47,0,0,1,1.56,2.27c.22.4.43.83.64,1.3,0-.2,0-.4,0-.59.06-1.4.15-2.78.28-4.09s.3-2.7.58-4.09a.13.13,0,0,1,.24,0,40.18,40.18,0,0,1,.58,4.09c.13,1.33.23,2.7.29,4.09,0,.33,0,.68,0,1,.08-.15.16-.31.26-.46a6.5,6.5,0,0,1,1.48-1.68,5,5,0,0,1,2.17-1,4.86,4.86,0,0,1,1.17-.08,5.92,5.92,0,0,1,1.12.14,5.78,5.78,0,0,1,2,.94,7.1,7.1,0,0,1,.83.73,8.27,8.27,0,0,1,.66.85,8.41,8.41,0,0,1,.92,1.85,11.31,11.31,0,0,1,.48,1.93,7.93,7.93,0,0,1,.1,1,6.43,6.43,0,0,1,0,1A.13.13,0,0,1,61.19,23.88Z"/><path class="cls-1" d="M31.69,29.21a10.18,10.18,0,0,0-.12-1.11,9.88,9.88,0,0,0-.27-1.24l-.06.36A19.53,19.53,0,0,0,31,29.79a1.56,1.56,0,0,0,.51,1.14,1.48,1.48,0,0,0,.16-.59A8.52,8.52,0,0,0,31.69,29.21Z"/><path class="cls-1" d="M94.69,14.82c0-.36-.06-.74-.11-1.1a12.85,12.85,0,0,0-.55-2.2A10.42,10.42,0,0,0,93,9.35a10.1,10.1,0,0,0-.84-1,8,8,0,0,0-1-.88,6.83,6.83,0,0,0-2.57-1.18,7.65,7.65,0,0,0-1.38-.18h-.3a5.44,5.44,0,0,0-1.18.11,6.31,6.31,0,0,0-2.42,1c0-.58-.09-1.16-.15-1.73-.14-1.32-.3-2.74-.6-4.22a1.54,1.54,0,0,0-3,0,40.17,40.17,0,0,0-.6,4.23c0,.1,0,.21,0,.31h0A12,12,0,0,0,76.54,3.7l-.49-.3-.26-.15-.14-.08-.56-.27a9.8,9.8,0,0,0-1.56-.54,8.87,8.87,0,0,0-2-.24,6.67,6.67,0,0,0-1.36.14,1.54,1.54,0,0,0,.16,3A6.39,6.39,0,0,1,73.89,7l.46.47c-.23,0-.47,0-.72,0A8.94,8.94,0,0,0,70.47,8a8.77,8.77,0,0,0-2.71,1.66,10.56,10.56,0,0,0-1.91,2.25,14.42,14.42,0,0,0-1.27,2.43,18.72,18.72,0,0,0-.84,2.49,22.87,22.87,0,0,0-.52,2.52A21.23,21.23,0,0,0,63,21.91a1.54,1.54,0,0,0,1.34,1.55h.19a1.55,1.55,0,0,0,1.51-1.17,31.1,31.1,0,0,1,1.39-4.22,16.06,16.06,0,0,1,2-3.61,5.76,5.76,0,0,1,2.62-2,4,4,0,0,1,1.28-.2h.16a1.7,1.7,0,0,1,.94.33,3.29,3.29,0,0,1,.84.83,9.16,9.16,0,0,0-2.8.5,8,8,0,0,0-2.7,1.61A9,9,0,0,0,68,17.85a10.85,10.85,0,0,0-1,2.58,10.31,10.31,0,0,0-.33,2.68,1.51,1.51,0,0,0,1.21,1.48,1.24,1.24,0,0,0,.33,0,1.56,1.56,0,0,0,1.44-1,14,14,0,0,1,.85-1.85,10.43,10.43,0,0,1,1-1.57,6.07,6.07,0,0,1,1.17-1.11,4.07,4.07,0,0,1,2.45-.78h.29a1.48,1.48,0,0,1,.81.27,4.75,4.75,0,0,1,1.47,2.44,17.54,17.54,0,0,1,.77,3.87c.07.66.11,1.33.13,2.07,0,.13.06,9.25.07,10.42a2.36,2.36,0,0,0,4.72,0c0-.77,0-1.67.06-2.08a1,1,0,0,0,0-.17,9.85,9.85,0,0,1,.29-1.41c.16-.57.34-1.11.53-1.6a14.12,14.12,0,0,1,1.48-2.94,7.74,7.74,0,0,1,.94-1.15,4.59,4.59,0,0,1,1.07-.77A3.19,3.19,0,0,1,88.92,27h.25a5,5,0,0,1,1.17.15,2.33,2.33,0,0,0,.37,0,1.54,1.54,0,0,0,.79-2.86,6.81,6.81,0,0,0-2.42-.91,6,6,0,0,0-1-.09,6.59,6.59,0,0,0-1.71.23,7.69,7.69,0,0,0-2.4,1.15l-.48.35,0-3.6c.06-1.13.15-2.13.26-3.08a27.62,27.62,0,0,1,.61-3.4,10.26,10.26,0,0,1,1.08-2.82,3.91,3.91,0,0,1,.34-.49,4.21,4.21,0,0,1,.32-.36,1.57,1.57,0,0,1,.65-.34,1.18,1.18,0,0,1,.37,0,4.55,4.55,0,0,1,.53,0,2.67,2.67,0,0,1,.95.35,5.34,5.34,0,0,1,1.76,1.93,15.35,15.35,0,0,1,1.37,3.13,1.57,1.57,0,0,0,1.55,1h.11A1.54,1.54,0,0,0,94.7,16,8.66,8.66,0,0,0,94.69,14.82ZM93.18,16a.13.13,0,0,1-.14-.09,16.2,16.2,0,0,0-1.5-3.39,6.85,6.85,0,0,0-2.27-2.44,4.22,4.22,0,0,0-1.43-.51,4.65,4.65,0,0,0-.75-.05h0a2.52,2.52,0,0,0-.71.08,2.92,2.92,0,0,0-1.22.63,4.54,4.54,0,0,0-.51.55,7,7,0,0,0-.45.65A11.62,11.62,0,0,0,83,14.63a28.38,28.38,0,0,0-.64,3.58c-.12,1-.21,2.06-.28,3.17,0,1.44,0,3,0,4.19C82,27,82,28,82,28.09v.7a12,12,0,0,1,1.13-1.48,8.53,8.53,0,0,1,1.59-1.44,6.71,6.71,0,0,1,2-.94,5.09,5.09,0,0,1,2.16-.11,5.61,5.61,0,0,1,1.93.72.14.14,0,0,1,0,.16.13.13,0,0,1-.15.07,6.26,6.26,0,0,0-1.87-.17,4.63,4.63,0,0,0-1.7.46,5.75,5.75,0,0,0-1.41,1,8.35,8.35,0,0,0-1.14,1.36,16.05,16.05,0,0,0-1.63,3.24c-.21.55-.4,1.13-.57,1.73A12.21,12.21,0,0,0,82,35.08s0,1.28-.07,2.33a.93.93,0,0,1-.94.92.94.94,0,0,1-.94-.93c0-1.37,0-4.2,0-6.57,0-2,0-3.74,0-3.88,0-.77-.07-1.48-.14-2.17A19.06,19.06,0,0,0,79,20.6a6.05,6.05,0,0,0-2-3.15,2.8,2.8,0,0,0-1.54-.53,5.64,5.64,0,0,0-1.89.2,5.84,5.84,0,0,0-1.73.82,7.64,7.64,0,0,0-1.46,1.39,11.45,11.45,0,0,0-1.18,1.78,16,16,0,0,0-.94,2,.12.12,0,0,1-.13.08.13.13,0,0,1-.11-.12,8.9,8.9,0,0,1,.3-2.32,9.1,9.1,0,0,1,.88-2.23,7.41,7.41,0,0,1,1.55-2A6.88,6.88,0,0,1,73,15.26a7.75,7.75,0,0,1,2.55-.42,5.06,5.06,0,0,1,2.4.66c-.1-.27-.2-.54-.31-.8a10.47,10.47,0,0,0-1-1.87,5.35,5.35,0,0,0-1.36-1.4,3.15,3.15,0,0,0-1.68-.58,5.42,5.42,0,0,0-1.95.27,7,7,0,0,0-3.28,2.48,17.14,17.14,0,0,0-2.21,3.93A32.35,32.35,0,0,0,64.67,22c0,.06-.08.09-.14.09a.13.13,0,0,1-.11-.12,18.29,18.29,0,0,1,.21-2.39,21.41,21.41,0,0,1,.48-2.36,18.48,18.48,0,0,1,.78-2.31A13.47,13.47,0,0,1,67,12.67a10.1,10.1,0,0,1,1.66-2A7.4,7.4,0,0,1,71,9.32a7.76,7.76,0,0,1,2.67-.48,5.63,5.63,0,0,1,1.44.22,5.42,5.42,0,0,1,1.32.61,7.06,7.06,0,0,1,1.68,1.54c-.17-.46-.34-.91-.53-1.32a12.74,12.74,0,0,0-1.16-2.1A10.21,10.21,0,0,0,74.86,6a7.66,7.66,0,0,0-4.33-2.09.11.11,0,0,1-.11-.12.12.12,0,0,1,.1-.12,5.92,5.92,0,0,1,2.69.09,9.44,9.44,0,0,1,1.3.45,5.16,5.16,0,0,1,.47.24l.15.07.21.13.39.24A10.07,10.07,0,0,1,77.8,6.71,13.12,13.12,0,0,1,79.36,9c.22.39.43.83.64,1.3,0-.2,0-.4,0-.59.06-1.41.16-2.78.29-4.09a39,39,0,0,1,.58-4.09.12.12,0,0,1,.24,0c.28,1.41.45,2.8.58,4.09s.23,2.7.28,4.09c0,.33,0,.68,0,1l.26-.46a7,7,0,0,1,1.49-1.69,5,5,0,0,1,2.16-1,4.89,4.89,0,0,1,1.17-.08,5.61,5.61,0,0,1,3.18,1.08,7.89,7.89,0,0,1,.82.73,8.48,8.48,0,0,1,.67.85A8.16,8.16,0,0,1,92.69,12a9.7,9.7,0,0,1,.48,1.93,8.4,8.4,0,0,1,.11,1c0,.33,0,.66,0,1A.14.14,0,0,1,93.18,16Z"/></svg>