<svg id="圖層_1" data-name="圖層 1" xmlns="http://www.w3.org/2000/svg" viewBox="0 0 79.67 114.39"><defs><style>.cls-1{fill:#fff;}</style></defs><title>0</title><path class="cls-1" d="M24.87,35.19a1,1,0,0,1-.07.15,5.25,5.25,0,0,1-.48.74,2.69,2.69,0,0,1,.57-.17Z"/><path class="cls-1" d="M28.74,39.38a2.71,2.71,0,0,1-2-1.24,5.1,5.1,0,0,1-.11-3.78c-1.61-2.07.09-4.34.49-4.81a3.47,3.47,0,0,1-.68-1.07,19,19,0,0,1-1.34,6.21l.26,13.88a34.76,34.76,0,0,1,4.17.45,3.45,3.45,0,0,1,.14-.34,2.35,2.35,0,0,1,.81-.85,8,8,0,0,1-1.8-4.18A14.34,14.34,0,0,1,28.74,39.38Zm-2,7.86L26.63,40a4.34,4.34,0,0,0,.56.33,15.69,15.69,0,0,0,.1,3.49,10.11,10.11,0,0,0,1.19,3.56C27.84,47.34,27.25,47.28,26.77,47.24Z"/><path class="cls-1" d="M23.66,36.78l-.05,0a7.91,7.91,0,0,0-1.69,1.88,5.25,5.25,0,0,1,.86,4.91,4.13,4.13,0,0,1,1,5.43c.08.09.14.19.21.28.35-.25.71-.49,1.08-.71l-.23-12.45A3.3,3.3,0,0,0,23.66,36.78Z"/><path class="cls-1" d="M79.64,38.65c-.28-1.94-2.39-3.25-5.8-3.59-2.15-.22-2.57-.68-2.58-.68h0c0-.13.07-.47.59-1.37.67-1.17,1.93-3.34.86-5.22-.75-1.32-2.35-2-4.88-2h-.15a14.07,14.07,0,0,0-7.89,2.55,3.79,3.79,0,0,0-.34-.2,9.82,9.82,0,0,0-4.38-4.78,50.69,50.69,0,0,0-2.16-6.89L50.82,1.22A1.42,1.42,0,0,0,49.42,0h-.19L49,.05A1.42,1.42,0,0,0,48,.59a1.37,1.37,0,0,0-.27,1L49.35,13.2c-2.41-1.65-5.72-3.54-8.24-3.54a4,4,0,0,0-.71.05,3.58,3.58,0,0,0-2.55,1.56c-1.43,2.13.59,4,1.92,5.23.26.24.59.55.85.82h-.11a18.48,18.48,0,0,1-2.37-.26A21.57,21.57,0,0,0,35,16.73c-3.22,0-4.26,1.72-4.56,3.17a3.11,3.11,0,0,0,.43,2.48l.09.12a9.8,9.8,0,0,0-2.77-1.23l-1.83-3.14L26.22,18l-.16-8.88a1.42,1.42,0,0,0-1.42-1.39h-.27a1.43,1.43,0,0,0-1,.43,1.46,1.46,0,0,0-.4,1l.09,4.54c-2.7-2.71-5.62-4.27-8.12-4.27a5.13,5.13,0,0,0-1.2.14,3.6,3.6,0,0,0-2.81,2.86,5,5,0,0,0,1.51,4.38l.18.21a11.67,11.67,0,0,1-3.33.29c-2.71,0-6.8,0-6.86,3.73,0,3.29,3.37,3.74,5.41,4a6.93,6.93,0,0,1,2.51.59c.12.49-.88,1.7-1.49,2.42-1.35,1.62-3.39,4.08-1.37,6.58A3.53,3.53,0,0,0,10.3,36c1.61,0,3.15-1,4.64-2a9,9,0,0,1,2.58-1.37,6.24,6.24,0,0,1,1,2.09,8.71,8.71,0,0,0,1.6,3.08,7.09,7.09,0,0,0-1.15.84,45.63,45.63,0,0,0-4.5-1.49,20.89,20.89,0,0,0-5.34-.85c-3.15,0-4.49,1.35-5.06,2.48A3.76,3.76,0,0,0,3.78,42c.66,1.67,2.46,2.33,4,2.91a14.62,14.62,0,0,1,1.4.57A8.89,8.89,0,0,1,6,46.88C3.21,47.72-.93,49,.18,53.55.57,55.12,1.75,57,5.18,57a21.84,21.84,0,0,0,4.11-.53C8.12,59,7.36,62.63,8.7,67.66c-.61,1.53-1.89,5.85,1.26,9.18a5.32,5.32,0,0,0,4,5A5,5,0,0,0,15,82c1,0,3.26-.34,4.64-3.36a4.33,4.33,0,0,0,1.33-.9,6.75,6.75,0,0,0,1.78-4.65,6,6,0,0,0,1.33-1.27h.09L24.9,113a1.42,1.42,0,0,0,1.42,1.39h.27a1.41,1.41,0,0,0,1-.43,1.4,1.4,0,0,0,.39-1l-.79-43a14.17,14.17,0,0,0,1.06-2.31c.11-.3.26-.68.4-1a20.37,20.37,0,0,1,.93,2.07c.88,2.15,1.79,4.37,3.72,5a3.38,3.38,0,0,0,.9.13,3.84,3.84,0,0,0,2.15-.72l.2-.14.22.08a4.88,4.88,0,0,0,1.52.25,3.85,3.85,0,0,0,1.89-.48,4.46,4.46,0,0,0,1.17-1,5.6,5.6,0,0,0,3,2.08,4.83,4.83,0,0,0,3.25,2h.3a4.47,4.47,0,0,0,3.33-1.69,8,8,0,0,0,3.34-8.08,8.61,8.61,0,0,0,1.67-2.69l6.28,45.72a1.43,1.43,0,0,0,1.41,1.23l.19,0,.24,0a1.41,1.41,0,0,0,.94-.55,1.4,1.4,0,0,0,.28-1L59.46,64.09C60.1,66,61.68,69.33,65,69.87a4.37,4.37,0,0,0,.79.07,3.64,3.64,0,0,0,2.54-1,6,6,0,0,0,1.55-4.22,4.6,4.6,0,0,0,1.51-1.51A5.88,5.88,0,0,0,72,58.91a3.57,3.57,0,0,0,.08-2.9,8.67,8.67,0,0,0,.81-2.38h0A6.25,6.25,0,0,0,77.2,52a3.53,3.53,0,0,0,1.23-2.52c.08-2.07-1.65-3.89-3-5.27-.25-.26-.47-.49-.64-.69l0-.06a12.44,12.44,0,0,1,1.92-.92C78.78,41.72,79.88,40.25,79.64,38.65Zm-6.42,4.52c-.09.34.08.73.52,1.27.19.23.45.5.75.81C75.58,46.4,77.07,48,77,49.45A2.15,2.15,0,0,1,76.25,51a5.07,5.07,0,0,1-4.68,1.08,7,7,0,0,1-1.17,4c1,.95.28,2.35.11,2.63a4.85,4.85,0,0,1-.31,3.77,3.26,3.26,0,0,1-1.73,1.37c0,.53.13,2.93-1.08,4.07a2.24,2.24,0,0,1-1.58.59,2.77,2.77,0,0,1-.56,0c-3.42-.55-4.6-5.21-4.75-5.87a6.76,6.76,0,0,1-2.92-1.76l6.6,48-.25,0-6.65-48.4a4.27,4.27,0,0,1-.54-.92,5.17,5.17,0,0,1-.38-2.27,9.34,9.34,0,0,1-1,1.75A7.33,7.33,0,0,1,53,65.62a6.6,6.6,0,0,1-2.71,7.44A3.24,3.24,0,0,1,47.9,74.4h-.18a3.82,3.82,0,0,1-2.51-1.77,4.24,4.24,0,0,1-3-2.16,5.48,5.48,0,0,1-.55-2.64c-.46,1.61-1.07,3.08-2.18,3.7a2.32,2.32,0,0,1-1.19.31,3.75,3.75,0,0,1-2-.63,3.31,3.31,0,0,1-.75.67,2.44,2.44,0,0,1-1.36.48,1.51,1.51,0,0,1-.48-.07c-1.29-.39-2.07-2.3-2.83-4.14-.64-1.57-1.25-3.06-2.07-3.33s-1.37.92-1.91,2.32a10,10,0,0,1-1.15,2.37L26.57,113h-.25l-.8-43.17a1.8,1.8,0,0,1-2.1.45l-.06,0a4.41,4.41,0,0,1-2,2.06c0,2.53-.73,3.82-1.37,4.45a2.73,2.73,0,0,1-1.4.77c-.84,2.28-2.29,3.08-3.58,3.08a3.11,3.11,0,0,1-.69-.07,3.89,3.89,0,0,1-2.88-4.25c-3.59-3.22-1.45-8-1.2-8.5-2-7.1.33-11.27,2-13.16a21.86,21.86,0,0,0-3,.45c-3.22.62-6.88,1.33-7.65-1.83s2.05-4.14,4.81-5c1.84-.57,3.58-1.1,4.24-2.3a1.08,1.08,0,0,0,.14-.93c-.24-.64-1.31-1-2.44-1.45-1.37-.5-2.79-1-3.21-2.1a2.4,2.4,0,0,1,.24-2c1-1.91,3.92-2.22,8.76-.91a47.32,47.32,0,0,1,5.24,1.8A6.59,6.59,0,0,1,21.7,38.6a8.1,8.1,0,0,1,1.06-1.36,2,2,0,0,1-.48.07h-.22c-1.15-.12-1.68-1.6-2.2-3s-1.09-3-2.3-3h-.11a8.33,8.33,0,0,0-3.29,1.59c-2,1.32-4.11,2.69-5.57.87-1.29-1.6.06-3.22,1.36-4.78,1-1.22,2.07-2.48,1.78-3.67s-2-1.43-3.71-1.66C6,23.34,3.82,23.05,3.85,21c0-2.32,2.78-2.33,5.44-2.34,1.72,0,3.49,0,4.35-.68a1.34,1.34,0,0,0,.61-.84c0-.42-.32-.84-.74-1.32a3.62,3.62,0,0,1-1.19-3.18,2.19,2.19,0,0,1,1.75-1.76c2.16-.53,6,1,9.67,5.65a9.81,9.81,0,0,1,.81,1.24l-.16-8.7h.25l.17,9.2c.08.16.16.32.23.49l2.18,3.71c5,1.2,5.16,4.41,5.12,5.11a4,4,0,0,1,3.27,2.23,5.94,5.94,0,0,1,.61,2c4.7,1.83,3.6,6.33,3.4,7,3.55,2.46,2.76,7.11,2.62,7.79a6.44,6.44,0,0,1,2.21,2.52,10.87,10.87,0,0,1,2.83-2.58c.78-5.41,4.43-7,5.9-7.37.22-.52.45-1,.72-1.57l.11-.89-.89-6.53c-1.47,1-2.46-.22-3.52-1.51-.9-1.1-1.93-2.35-3.39-2.35h0c-1.43,0-1.74,1.77-2.07,3.65-.26,1.49-.53,3-1.44,3.65a1.67,1.67,0,0,1-.94.27,2.34,2.34,0,0,1-.57-.07c-3-.67-2.53-3-2-5.39a8.66,8.66,0,0,0,.19-4.08c-.27-.87-1.81-1.11-3.44-1.36s-3.26-.5-3.9-1.42a1.75,1.75,0,0,1-.22-1.39c.55-2.58,3.53-2.13,6.15-1.73,2.06.31,4,.61,4.44-.59.24-.67-.66-1.52-1.63-2.41-1.21-1.12-2.46-2.28-1.71-3.4a2.2,2.2,0,0,1,1.58-1c3.35-.5,9.51,4.35,10.62,5.25l-2-14.91.25,0,2.11,15.4a47.6,47.6,0,0,1,2.3,7.48,8.44,8.44,0,0,1,4.49,4.85,7.11,7.11,0,0,1,1.5.92,12.82,12.82,0,0,1,7.86-2.87h.13c2,0,3.19.46,3.67,1.29.67,1.17-.29,2.82-.86,3.81s-1,1.91-.64,2.7,1.65,1.26,3.72,1.47c2.66.26,4.36,1.15,4.54,2.38.13.92-.64,1.82-2.06,2.4C74.22,42,73.36,42.6,73.22,43.17ZM32.08,23.47a11.47,11.47,0,0,0,3.6.93,11.1,11.1,0,0,1,2.34.52,8.77,8.77,0,0,1-.27,3.24,15.22,15.22,0,0,0-.35,2.34,8,8,0,0,0-.53-1.33,5.44,5.44,0,0,0-3.22-2.75A5.82,5.82,0,0,0,32.08,23.47ZM41.2,38.26a7.79,7.79,0,0,0-.07-3,3.34,3.34,0,0,0,.62.06,3,3,0,0,0,1.73-.52c1.41-.94,1.75-2.88,2.05-4.58a7.27,7.27,0,0,1,.67-2.47c.8,0,1.57.93,2.31,1.83s1.89,2.3,3.42,2.38l.66,4.77-.07.46q-.2.41-.39.84A9.62,9.62,0,0,0,46,45.71a12.45,12.45,0,0,0-1.36,1.12,11.36,11.36,0,0,0-.86-.83C44,44.25,43.93,40.7,41.2,38.26Z"/><path class="cls-1" d="M53.89,24.61c.43,2.34.47,4.5-.54,5.41l.9,6.56h0l0,.14,0,.17c.24-.45.5-.89.78-1.33a5.71,5.71,0,0,1,.38-1,9.45,9.45,0,0,1,1.41-2.21,3.18,3.18,0,0,1,1.2-3.14A8.09,8.09,0,0,0,53.89,24.61Zm1.49,7.28-.29.4-.26-1.85a5.33,5.33,0,0,0,.75-2.79,6.63,6.63,0,0,1,.81,1.2A4.37,4.37,0,0,0,55.38,31.89Z"/><path class="cls-1" d="M27,22.54l-1.4-2.38a19.79,19.79,0,0,1,.83,4.16A12.07,12.07,0,0,1,27,22.54Z"/><path class="cls-1" d="M34.42,62.56l-.45.16a8.12,8.12,0,0,0,1.26,2.84c.16.28.32.56.47.84.17-.45.36-.9.54-1.33.51-1.22,1-2.38.62-2.79S35.53,62.18,34.42,62.56Z"/><path class="cls-1" d="M34.61,55.38c-1,.25-2,.48-2.13,1.06L33.54,56a13.58,13.58,0,0,0,2-.87Z"/></svg>