<svg id="圖層_1" data-name="圖層 1" xmlns="http://www.w3.org/2000/svg" viewBox="0 0 188.82 118.04"><defs><style>.cls-1{fill:#fff;}</style></defs><title>0</title><path class="cls-1" d="M53.92,68.41l2.36.11a12.39,12.39,0,0,1,3.49-7.41,45.86,45.86,0,0,1-7.31,1.72A12.25,12.25,0,0,1,53.92,68.41Zm2.38-4.87a14,14,0,0,0-1.12,3,12.83,12.83,0,0,0-.68-2.66C55.1,63.8,55.7,63.68,56.3,63.54Z"/><path class="cls-1" d="M31.58,51.29v0a23.82,23.82,0,0,1,2.85-7.15,41.91,41.91,0,0,1-8.63-1.44c-1.13-.29-2.18-.63-3.21-1A96.21,96.21,0,0,0,23,58.86a12.45,12.45,0,0,1,3.5,8.4l2.48.11a12.47,12.47,0,0,1,4.4-8.25A7.79,7.79,0,0,1,31.33,53,13.61,13.61,0,0,1,31.58,51.29ZM31.46,59a13.71,13.71,0,0,0-3.65,6.78,13.91,13.91,0,0,0-3.45-7.51,97,97,0,0,1-.47-14.63c.53.16,1,.31,1.54.44a45.85,45.85,0,0,0,6.74,1.3,22.91,22.91,0,0,0-2,5.65v0a15.9,15.9,0,0,0-.26,1.88A9.31,9.31,0,0,0,31.46,59Z"/><path class="cls-1" d="M93.35,37.71a45.39,45.39,0,0,1-10-1.11c0,.51-.07,1-.14,1.55s-.17,1-.28,1.49a12.46,12.46,0,0,1,4.83,10.5l2.49.33A12.5,12.5,0,0,1,96,42.09c-.31-1.55-.57-3-.79-4.42C94.62,37.69,94,37.71,93.35,37.71ZM89.18,48.86a13.85,13.85,0,0,0-4.69-9.76c.05-.26.09-.51.12-.76v0a47.28,47.28,0,0,0,8.73.82h.7c.13.75.26,1.52.42,2.31A13.94,13.94,0,0,0,89.18,48.86Z"/><path class="cls-1" d="M187.29,39.87a1.26,1.26,0,0,0-.15-.38,30.33,30.33,0,0,0-3.27-5.85,47.53,47.53,0,0,0-10.61-10.46,1.61,1.61,0,0,0-.65-.46,61,61,0,0,0-6.72-4.16A44.39,44.39,0,0,0,149,13.76a1.54,1.54,0,0,0-.51-.1,1.63,1.63,0,0,0-.31,0c-1-.07-2-.1-3-.1-7.71,0-14,1.95-17.18,5.18a12.86,12.86,0,0,0-.13-4.67,12.39,12.39,0,0,0-.83-2.52.2.2,0,0,1,0-.06c-2.57-5.67-9.08-9.67-17.89-11a1.47,1.47,0,0,0-.69-.17l-.29,0A48,48,0,0,0,102,0a62.91,62.91,0,0,0-8.46.6A45.88,45.88,0,0,0,80,4.51a1.45,1.45,0,0,0-.5.24c-5.9,2.92-10.62,7.21-13,11.81a15.57,15.57,0,0,0-1.43,4,27.29,27.29,0,0,0-3.12.58,1.42,1.42,0,0,0-.57.15c-1,.25-1.82.51-2.65.8a39.53,39.53,0,0,0-4.87,2.1A26.42,26.42,0,0,0,40,12.37,43.92,43.92,0,0,0,25,9.75c-5.42,0-10.18,1-13.41,2.84a9.49,9.49,0,0,0-5.09,6.57,19.81,19.81,0,0,0,2,13.28,1.74,1.74,0,0,0,.18.33l.05.09c.15.27.31.54.48.8A23.39,23.39,0,0,0,19.59,42a94.84,94.84,0,0,0,.09,12.8,14,14,0,0,0-5.12-1.22h-.5A14,14,0,0,0,0,67a13.94,13.94,0,0,0,13.34,14.5l.64,0a13.89,13.89,0,0,0,8.53-2.9A57.82,57.82,0,0,1,16,105.79a67.83,67.83,0,0,1-6,9.8,1.55,1.55,0,0,0-.12,1.61,1.52,1.52,0,0,0,1.37.84H13a1.55,1.55,0,0,0,1.25-.64,71.07,71.07,0,0,0,5.8-9.61,61.29,61.29,0,0,0,6.57-34.32,14.17,14.17,0,0,0,1-2.79h0A14.09,14.09,0,0,0,40.77,82.6l.67,0a13.75,13.75,0,0,0,13.5-10.7A14.08,14.08,0,0,0,68.13,83.75h.63a13.92,13.92,0,0,0,11.7-21.4,14,14,0,0,0,8.26-8.77h0a14.1,14.1,0,0,0,12.23,13c.27,0,.55.06.83.07a56.35,56.35,0,0,1-1,30A60.65,60.65,0,0,1,94,111.81a1.54,1.54,0,0,0,.35,2.25l1.11.74a1.64,1.64,0,0,0,.83.25,1.59,1.59,0,0,0,1.25-.63A60.67,60.67,0,0,0,105,98a63.75,63.75,0,0,0,2.42-11.62c1.11,1.34,3.12,2.55,6.09,3.69a1.57,1.57,0,0,0,.28.1h0c5.82,2.16,14.75,3.74,23.41,4.13l.23.06a61.76,61.76,0,0,1-6.73,12.53,68.47,68.47,0,0,1-7,8.48l-.21.21a1.42,1.42,0,0,0,1,2.41h2.1a1.53,1.53,0,0,0,1.08-.49,72.81,72.81,0,0,0,6.61-8.19,67.05,67.05,0,0,0,7.76-14.91c6.6,0,12.24-.85,16.34-2.32,8.57-3,8.47-8.41,7.65-11.33C165,77,159,65.41,145.62,61c.06-1.47.14-2.91.25-4.3,5.44,2.37,15.37,4.63,24.18,4.63a30,30,0,0,0,11.35-1.83c3.4-1.4,5.6-3.59,6.54-6.49A19,19,0,0,0,187.29,39.87Zm-.7,12.72c-.8,2.49-2.73,4.38-5.73,5.62a29,29,0,0,1-10.81,1.72c-9.41,0-20.17-2.68-24.85-5.09-.18-.09-.38-.21-.56-.32-.23,2.32-.39,4.84-.47,7.53,13.38,3.9,19.48,15.45,20.51,19.13h0c1.21,4.29-1.13,7.61-6.75,9.62C153.55,92.36,147.64,93,141.42,93h-.36a65.45,65.45,0,0,1-7.93,15.52h0a70,70,0,0,1-6.48,8l0,0h-2.1l.2-.21a68.1,68.1,0,0,0,7.12-8.67A63.16,63.16,0,0,0,139.44,93L137.8,93h0a.14.14,0,0,1-.11.06h-.07a.21.21,0,0,1,0-.06c-8.77-.37-17.68-1.94-23.44-4.1h0a0,0,0,0,1,0,0c-3.23-1.22-5.47-2.62-6.12-4.1a13.23,13.23,0,0,1,0-10.19l0,0a.14.14,0,0,1,0-.17l.1,0a15.89,15.89,0,0,1,1.1-2.23c1.49-2.46,4.58-6,10.56-8.52a12.6,12.6,0,0,1-2.38-7.78l-2.43-.34a12.56,12.56,0,0,1-10.42,9.74,59.19,59.19,0,0,1-.88,32.47,58.78,58.78,0,0,1-7.23,16,.12.12,0,0,1-.1,0l-.06,0-1.09-.73a.1.1,0,0,1-.06-.09.13.13,0,0,1,0-.1,61,61,0,0,0,7-15.57,57.48,57.48,0,0,0,.77-31.84,11.58,11.58,0,0,1-1.76-.08,12.64,12.64,0,0,1-11-12.84L87.67,52a12.57,12.57,0,0,1-9.55,9.58,12.51,12.51,0,0,1-9.36,20.75l-.57,0a12.61,12.61,0,0,1-12-11.86l-2.43-.11A12.38,12.38,0,0,1,41.44,81.2l-.61,0a12.61,12.61,0,0,1-12-11.86l-2.49-.11a12.68,12.68,0,0,1-1.24,4,59.81,59.81,0,0,1-6.38,33.92,69.84,69.84,0,0,1-5.69,9.43.12.12,0,0,1-.1.05H11.26a.13.13,0,0,1-.1-.2,69.33,69.33,0,0,0,6.14-10,58.48,58.48,0,0,0,6.48-31.1A12.55,12.55,0,0,1,1.43,67,12.64,12.64,0,0,1,14.06,55h.45a12.54,12.54,0,0,1,6.81,2.38,93.53,93.53,0,0,1-.24-16.29c-4.83-2-8.45-4.71-10.75-8.23-.2-.31-.37-.62-.55-.94h0a.11.11,0,0,1,0-.09A18.25,18.25,0,0,1,7.85,19.42a8.09,8.09,0,0,1,4.39-5.59c6.15-3.49,18.12-3.55,27.25-.14A25.13,25.13,0,0,1,53.31,26.14a39.62,39.62,0,0,1,5.94-2.68c1-.34,1.85-.6,2.73-.82h0a.13.13,0,0,1,.15,0,26.09,26.09,0,0,1,4.22-.72,13.65,13.65,0,0,1,1.46-4.68c2-3.84,6.1-8.13,12.51-11.26a.11.11,0,0,1,.09-.06h0A43.94,43.94,0,0,1,93.73,2a54,54,0,0,1,14.47-.18l.16-.05a.12.12,0,0,1,.15.08c9.29,1.33,15,5.5,17.17,10.27l0,0a11.26,11.26,0,0,1,.73,2.24c.82,3.82-.36,7.89-3.32,11.46a24.35,24.35,0,0,1-5,4.47h0a44.38,44.38,0,0,1-11.69,5.45,42.9,42.9,0,0,1-9.54,1.8c.18,1.2.4,2.45.65,3.77a12.46,12.46,0,0,1,6.63-1,12.59,12.59,0,0,1,11,13.09l2.37.33a12.48,12.48,0,0,1,13.86-10.09,12.19,12.19,0,0,1,1.72.35A34.26,34.26,0,0,1,127,32.81c-1.28-4.44-.94-8.39,1-11.74h0c2.51-4.29,11-6.63,20.41-5.94h0a.13.13,0,0,1,.18,0l0,0a43.18,43.18,0,0,1,16.65,4.66A61.77,61.77,0,0,1,172,24h0a.12.12,0,0,1,.14.1v0a45.47,45.47,0,0,1,10.52,10.3,28.1,28.1,0,0,1,3.17,5.71.1.1,0,0,1,.05.09A17.73,17.73,0,0,1,186.59,52.59ZM106.22,66.24A14,14,0,0,0,115.94,57a13.9,13.9,0,0,0,1.71,5.89,22.43,22.43,0,0,0-9.71,8.42c-.21.35-.41.71-.6,1.1A56.77,56.77,0,0,0,106.22,66.24Zm19.37-33a32.4,32.4,0,0,0,4.37,9h-.21a13.92,13.92,0,0,0-13.23,9.66A14.07,14.07,0,0,0,104.29,39a15,15,0,0,0-1.77-.11,13.88,13.88,0,0,0-4,.58c0-.2-.07-.4-.1-.59a43.81,43.81,0,0,0,8.33-1.72,45.48,45.48,0,0,0,12-5.58,1.74,1.74,0,0,0,.15-.11,25.84,25.84,0,0,0,5.26-4.69c.24-.28.46-.57.68-.86A18.22,18.22,0,0,0,125.59,33.2Z"/><path class="cls-1" d="M142.29,57.65a12.34,12.34,0,0,1-1.06,3.7c.46.09.9.18,1.34.29.09-2.92.27-5.59.53-8.07-.39-.25-.78-.53-1.18-.83A12.38,12.38,0,0,1,142.29,57.65Z"/></svg>