<svg id="圖層_1" data-name="圖層 1" xmlns="http://www.w3.org/2000/svg" viewBox="0 0 120.25 70"><defs><style>.cls-1{fill:#fff;}</style></defs><title>0</title><path class="cls-1" d="M33.69,21.24a9.63,9.63,0,0,0-6,3.19,17.69,17.69,0,0,1-7.28,4.92,11.71,11.71,0,0,1,3.69,4.95,10.26,10.26,0,0,1,8.63-3.16l.26.05a17.73,17.73,0,0,1,2.49-9.07A10.54,10.54,0,0,1,33.69,21.24Zm-2.06,8.42h-.05a11.73,11.73,0,0,0-7,2.34,12.38,12.38,0,0,0-1.1-1.61c-.16-.2-.32-.4-.5-.59a18.74,18.74,0,0,0,5.79-4.44,8.19,8.19,0,0,1,4.64-2.64.61.61,0,0,0,.14.07A19.28,19.28,0,0,0,31.63,29.66Z"/><path class="cls-1" d="M50.77,26.29c0-.16,0-.32,0-.47s.07-.5.12-.74c-.33-.18-.68-.37-1.08-.55a6.7,6.7,0,0,1-3.67-3.78c-.05-.13-.09-.28-.13-.42a10.65,10.65,0,0,1-2.33,1.47,16.63,16.63,0,0,1,1.8,1.56A8.87,8.87,0,0,0,50.77,26.29Z"/><path class="cls-1" d="M118.79,16.21A13.54,13.54,0,0,0,95.48,30a12.31,12.31,0,0,0,.88,1.29,22.21,22.21,0,0,0-3.24,4.85A12.43,12.43,0,0,0,88.8,34.6a19.34,19.34,0,0,0,1.75-7.09,6.8,6.8,0,0,1,1-2.4c.84-1.54,2-3.65.65-5.87a6,6,0,0,0-4.5-2.84c-.2,0-.42,0-.65,0-1.47,0-3.72.53-6.13,3.05A9.2,9.2,0,0,1,76,22a11.66,11.66,0,0,0-3.79,1.54,11.68,11.68,0,0,0-9.84-8.17c-.28,0-.56,0-.85-.06a14.09,14.09,0,0,0-1.21-2,7.49,7.49,0,0,1-1.62-4C58.34,6.1,57,3.6,54.93,2.38A5.16,5.16,0,0,0,50.26,2,5.65,5.65,0,0,0,48,3.72,12,12,0,0,0,40.6.08,13,13,0,0,0,39.2,0,12.1,12.1,0,0,0,27.56,8.88a10.29,10.29,0,0,0-5.24-1.57A14.26,14.26,0,0,0,20,7.55a12.36,12.36,0,0,1-2,.21,7.9,7.9,0,0,1-2.69-.5,12.19,12.19,0,0,0-4-.74A7.62,7.62,0,0,0,6.94,7.71,5.39,5.39,0,0,0,4.49,12c-.2,3.89,2.62,5.52,4.88,6.84A13,13,0,0,1,13,21.58a12.09,12.09,0,0,0,6.17,4.25,12.25,12.25,0,0,1-1.37.43,13.25,13.25,0,0,0-3.16-.76,12.75,12.75,0,0,0-1.51-.09,13.18,13.18,0,0,0-1.48,26.27l.66.06a46.6,46.6,0,0,0-.9,5.57,32.25,32.25,0,0,1-.91,5.23c-.91,3.06-.47,5.51,1.22,6.74a3.84,3.84,0,0,0,2.33.72A9.12,9.12,0,0,0,19,68.1l1.43-1c3.74-2.58,3.89-2.68,9.34-5.32,3.06-1.49,4.9-4.7,5.31-9.28a11.32,11.32,0,0,0,3.46-1.76,5.38,5.38,0,0,0,1.12,1.33,4.42,4.42,0,0,0,2.91,1.1,5.1,5.1,0,0,0,.86-.08,11.7,11.7,0,0,0,10.7,7A12.43,12.43,0,0,0,55.87,60a11.7,11.7,0,0,0,9.88-13.27,11.78,11.78,0,0,0-1.24-3.8,15.41,15.41,0,0,0,2.11-1.33c1.55,2.62,3.71,5.56,7.52,6.86,0,.27.06.53.11.78A12.65,12.65,0,0,0,86.74,59.8a12,12,0,0,0,2.15-.19,12.68,12.68,0,0,0,8.2-19.84,15.84,15.84,0,0,1,3-5.08,13.73,13.73,0,0,0,7,2,13.55,13.55,0,0,0,11.63-20.44Zm.09,9.91a12.13,12.13,0,0,1-11.72,9.11,12.26,12.26,0,0,1-7.27-2.4,17.72,17.72,0,0,0-4.36,7.22,11.27,11.27,0,1,1-19.89,9,11.07,11.07,0,0,1-.14-1.62c-4.46-1.1-6.57-4.52-8.5-8a13.84,13.84,0,0,1-4.55,2.91,10.29,10.29,0,0,1-6.79,16.28,11,11,0,0,1-1.51.11,10.26,10.26,0,0,1-9.84-7.42,4,4,0,0,1-1,.39,2.71,2.71,0,0,1-.69.08,3.06,3.06,0,0,1-2-.75,4.85,4.85,0,0,1-1.47-2.67A9.54,9.54,0,0,1,38,49.41a10.19,10.19,0,0,1-4.24,2c0,.28,0,.56,0,.84-.24,2.88-1.22,6.65-4.53,8.26A50,50,0,0,0,19.64,66l-1.42,1a7.82,7.82,0,0,1-4.14,1.65,2.51,2.51,0,0,1-1.5-.44c-1.15-.85-1.41-2.78-.69-5.19a32.88,32.88,0,0,0,.95-5.48,36.78,36.78,0,0,1,1.38-7.16c-.34,0-.69,0-1,0a12.34,12.34,0,0,1-1.35-.07,11.76,11.76,0,0,1,2.67-23.37,11.6,11.6,0,0,1,3.21.84A15.86,15.86,0,0,0,25.94,23a7.26,7.26,0,0,1-4.62,1.72l-.61,0c-2.32-.2-4.6-1.57-6.59-4a14.2,14.2,0,0,0-4-3.07c-2.23-1.29-4.33-2.51-4.17-5.54A4,4,0,0,1,7.73,8.89c1.72-1.16,4.29-1.27,7-.29A9.75,9.75,0,0,0,20.2,9c2-.32,3.83-.62,7.26,1.52a8.15,8.15,0,0,1,1.12.87c0-.14,0-.29,0-.44A10.69,10.69,0,0,1,48.22,6.33a4.14,4.14,0,0,1,2.59-3,3.74,3.74,0,0,1,3.39.26c1.66,1,2.77,3.1,3.06,5.79a8.94,8.94,0,0,0,1.86,4.67,9.05,9.05,0,0,1,1.4,2.66,10.24,10.24,0,0,1,10.76,9.8c1.36-2.16,3.16-2.66,5.07-3.17a10.58,10.58,0,0,0,5.57-3c2.28-2.4,4.31-2.73,5.6-2.59A4.61,4.61,0,0,1,91,20c.92,1.51.1,3-.68,4.45a7.54,7.54,0,0,0-1.14,3,15.62,15.62,0,0,1-2.77,8.45,11.29,11.29,0,0,1,6.89,2l.49.39a20.39,20.39,0,0,1,4.5-7,11.54,11.54,0,0,1-1.55-2,12.13,12.13,0,1,1,22.18-3.16Z"/><path class="cls-1" d="M70.1,31.81A10.35,10.35,0,0,1,67.42,35l-.21.15c.53.86,1,1.73,1.51,2.6a19.84,19.84,0,0,0,4.09,5.71,15.66,15.66,0,0,1,.61-6.75A7.51,7.51,0,0,1,70.1,31.81Zm1.27,7.72c-.48-.77-.94-1.6-1.41-2.44-.29-.52-.59-1.05-.91-1.6.23-.21.45-.44.66-.67a9.44,9.44,0,0,0,2.07,2.45A15.87,15.87,0,0,0,71.37,39.53Z"/><path class="cls-1" d="M43.86,25a12.89,12.89,0,0,0-3-2.3,10.84,10.84,0,0,1-1.62.13A10,10,0,0,1,38,22.73l-.5-.08c-.91,1.51-2.85,5.26-2.45,9A10.27,10.27,0,0,1,39,34.25a8.76,8.76,0,0,1,2.29-1.89,11.32,11.32,0,0,1,2.28-1,15.3,15.3,0,0,1,2.78-4.29A14.44,14.44,0,0,1,43.86,25ZM42.53,30.2a13.24,13.24,0,0,0-1.94.93A11,11,0,0,0,39,32.29a11.45,11.45,0,0,0-2.54-1.57,14.6,14.6,0,0,1,1.85-6.54c.32,0,.64,0,1,0a12.61,12.61,0,0,0,1.33-.08A12.07,12.07,0,0,1,42.85,26a19.78,19.78,0,0,0,1.46,1.35A16.65,16.65,0,0,0,42.53,30.2Z"/><path class="cls-1" d="M74.88,44.76a8.32,8.32,0,0,0,.8.29,11.26,11.26,0,0,1,1.87-4.45,11.78,11.78,0,0,1,1.5-1.72,12.49,12.49,0,0,1-4-1.23A15.42,15.42,0,0,0,74.88,44.76Zm1.2-5.15a2.42,2.42,0,0,0,.35.12l0,.06-.39.58C76,40.12,76.05,39.87,76.08,39.61Z"/><path class="cls-1" d="M61,37.27a9.5,9.5,0,0,1-1.19-.07,10.3,10.3,0,0,1-9-8.56,12.36,12.36,0,0,1-2.95-.77,13.29,13.29,0,0,0-3.11,5.07A8.17,8.17,0,0,0,47,35a5.4,5.4,0,0,1,2.4,3.52,5.29,5.29,0,0,1,.08.8,10.45,10.45,0,0,1,3.23-1,10.24,10.24,0,0,1,8.39,2.57,12.09,12.09,0,0,0,5-3.11c-.26-.46-.52-.9-.8-1.34A10.21,10.21,0,0,1,61,37.27Zm-6.86-.55a12,12,0,0,0-1.7.13,11,11,0,0,0-1.95.46,6.91,6.91,0,0,0-2.76-3.52,7.55,7.55,0,0,1-1.36-1.13,12.06,12.06,0,0,1,1.93-3.13,11.6,11.6,0,0,0,1.35.34,11.73,11.73,0,0,0,4.87,6.86Zm7.17,2.47c-.23-.18-.47-.35-.71-.51H61a11.9,11.9,0,0,0,1.59-.11A11.72,11.72,0,0,1,61.35,39.19Z"/></svg>