<svg id="圖層_1" data-name="圖層 1" xmlns="http://www.w3.org/2000/svg" viewBox="0 0 154.25 213.54"><defs><style>.cls-1{fill:#fff;}</style></defs><title>0</title><path class="cls-1" d="M107.46,69.8c.2-.24.42-.47.64-.71l-.12,0Z"/><path class="cls-1" d="M61.14,49.81l.85.07a2.27,2.27,0,0,1-.28-.26Z"/><path class="cls-1" d="M66.91,28.42c-.06-.14-.12-.28-.17-.43A16.11,16.11,0,0,1,65,30a3.32,3.32,0,0,0,1.65.81h0a.45.45,0,0,0,.4-.2C67.52,29.93,67.22,29.2,66.91,28.42Z"/><path class="cls-1" d="M65.34,59.09a1.16,1.16,0,0,0-.76,0,12.41,12.41,0,0,0,1.3,1.08,1.09,1.09,0,0,0-.06-.54A.87.87,0,0,0,65.34,59.09Z"/><path class="cls-1" d="M47.76,30.54a1.69,1.69,0,0,0,1,1.87c.44.09.83-.22,1.14-.85a12.16,12.16,0,0,0-2.11-1.29A2.43,2.43,0,0,1,47.76,30.54Z"/><path class="cls-1" d="M59.08,43.82q.47.15.9.33c1.61.67,2.65,1.54,2.78,2.31l.08-.12a11.48,11.48,0,0,1,2.17-2c-.66.06-1.3.11-1.91.11a13.59,13.59,0,0,1-1.85-.12,7.16,7.16,0,0,1-1.92-.52Z"/><path class="cls-1" d="M59.47,40a4.56,4.56,0,0,0,1-1.33c-1.36.21-2.52.51-2.67,1.15a.46.46,0,0,0,0,.39,1.77,1.77,0,0,0,1.15.36Z"/><path class="cls-1" d="M64.45,49.21c-1-.09-1.92-.19-2.13-1.52h0a4.82,4.82,0,0,1-1.86.84c-.77.23-1.51.45-1.74.92a.94.94,0,0,0,0,.77c.36,1,2.7,1.08,5,1.14.92,0,1.82,0,2.6.14a1.27,1.27,0,0,0,.22-.93C66.25,49.39,65.37,49.3,64.45,49.21Zm-3.31.6.57-.19a2.27,2.27,0,0,0,.28.26Z"/><path class="cls-1" d="M106.86,28.27c.6,1.65-1.36,2.77-3.11,3.76-1.42.8-2.77,1.56-2.73,2.48,0,.59,1.41.74,3.14.79a2.52,2.52,0,0,1-.17-1c.11-2.17,1.67-2.65,3-3.08,1.07-.33,2-.61,2.16-1.59S108.21,28.5,106.86,28.27Z"/><path class="cls-1" d="M103.42,59.4c-2,1.31-5.66,3.71-7.51,3.31a1.28,1.28,0,0,1-.85-.58,1.16,1.16,0,0,1-.16-.41,14.06,14.06,0,0,1-2.58-3c-.34-.47-.65-.91-.95-1.29a.86.86,0,0,0-.62-.41h0c-.41,0-.8.62-1.22,1.26-.64,1-1.37,2.06-2.47,1.72s-1.15-2.48-1.11-4.5c0-1.64.08-3.34-.62-3.63a.4.4,0,0,0-.26,0c0,.48.07.94.08,1.38.35,2.35.7,4.85,1.05,7.41,1.15,8.2,2.32,16.56,3.74,22.4A86.38,86.38,0,0,1,102.14,64.1c1.08-1.3,2.17-2.54,3.25-3.72a1.34,1.34,0,0,0-.12-1.17C104.93,58.79,104.25,58.86,103.42,59.4Zm-2.37,3.79A93.71,93.71,0,0,0,90.44,78.75c-1-5.07-1.86-11.23-2.71-17.3,1.47-.16,2.36-1.5,3-2.41l.06-.09.41.57a17.91,17.91,0,0,0,2.53,3c0,.1.1.21.16.31a2.73,2.73,0,0,0,1.76,1.22,3.51,3.51,0,0,0,.74.07c1.65,0,3.75-1,5.81-2.29Z"/><path class="cls-1" d="M81.41,59.08a3.82,3.82,0,0,1-1-1c-.57-.75-1.12-1.46-2.19-1.13s-1,2-.9,3.74c.06,2.13.14,4.54-1.71,5.06s-2.42-.76-2.91-1.9c-.35-.83-.69-1.62-1.48-1.66h0a3.37,3.37,0,0,0-1.79,1,2.14,2.14,0,0,1,.38,1,2.19,2.19,0,0,1-2,2.18,2.4,2.4,0,0,1-1-.24A77.93,77.93,0,0,1,77.59,82.61a11.44,11.44,0,0,1,3.11.72,117.42,117.42,0,0,0,.94-21.69C81.57,60.77,81.49,59.93,81.41,59.08Zm-1.92,22.4c-.32-.08-.64-.14-1-.19a77.35,77.35,0,0,0-9-14.12,4,4,0,0,0,.74-.65A3.23,3.23,0,0,0,71.15,64c0-.05,0-.09,0-.14.09.17.17.38.24.54.43,1,1.24,2.88,3.42,2.88A4.23,4.23,0,0,0,76,67.06c2.91-.82,2.8-4.22,2.73-6.47a13,13,0,0,1,.06-2.29,5.46,5.46,0,0,1,.5.6,8.27,8.27,0,0,0,.8.93c.06.63.12,1.26.17,1.92A111.87,111.87,0,0,1,79.49,81.48Z"/><path class="cls-1" d="M154,62.7c-.92-2.37-4.22-3.74-7.12-5-.69-.29-1.59-.66-2.29-1,.36-.12.74-.23,1.05-.32,2.19-.64,4.68-1.36,5.51-3.3A3.58,3.58,0,0,0,150.9,50c-.51-1-1.66-2.18-4.16-2.18a17.86,17.86,0,0,0-5,1l.05-.11a3.62,3.62,0,0,0-.17-3.16A3.1,3.1,0,0,0,140.21,44a2.32,2.32,0,0,0-.35-.35,3.16,3.16,0,0,0-2.09-.67,11.11,11.11,0,0,0-1.62.16,8.83,8.83,0,0,1-1.21.14,1.31,1.31,0,0,1-.31,0c.72-.65,3.48-1.55,5-2.05,4.24-1.37,8.62-2.79,7.92-6.14a3.28,3.28,0,0,0-1.43-2.22,3.68,3.68,0,0,0-2.1-.56,13.25,13.25,0,0,0-2.85.44,11.54,11.54,0,0,1-2.26.36,1.06,1.06,0,0,1-.63-.12c-.14-.57,1.07-2.52,1.79-3.69,1.7-2.76,4.28-6.95.69-9.23a3.42,3.42,0,0,0-1.85-.56,3.1,3.1,0,0,0-.85.11c-2.44.63-4.15,3.82-6,7.27a26.5,26.5,0,0,1-2.29,3.8,12.58,12.58,0,0,1-.49-2.62c-.22-1.9-.43-3.69-1.74-4.63a2.66,2.66,0,0,0-1.59-.5,3.11,3.11,0,0,0-.67.07,2.7,2.7,0,0,0-1.62,1c.36-1.61.49-3.25-.83-4.21a3.13,3.13,0,0,0-1.86-.7,2.58,2.58,0,0,0-.4,0c-1.13.19-1.75,1.07-2.41,2-.28.41-.58.82-1,1.27a6.53,6.53,0,0,1-1.26,1.2c0-.11,0-.24-.07-.41-.07-.54-.12-1.16-.17-1.82-.26-3.26-.64-8.17-4.49-8.17h-.31a3.24,3.24,0,0,0-2.36,1.19c-1.28,1.58-1,4.16-.65,6.45.07.51.15,1.19.19,1.71l-.5-.13a9.63,9.63,0,0,0-2.4-.41,3.42,3.42,0,0,0-3.5,2.86,3.75,3.75,0,0,0,0,1.86c-.63.25-1.26.54-1.9.83-.93.42-1.94.88-2.79,1.17,1.21-1.27,2.58-2.72,2.53-4.42a3,3,0,0,0-1-2.12,4.17,4.17,0,0,0-2.88-1,7.28,7.28,0,0,0-1.12.1,10.3,10.3,0,0,0-2.72.95A6.33,6.33,0,0,0,92.25,19a2.42,2.42,0,0,0-1.31-1.87,3.43,3.43,0,0,0-1.49-.35A4.49,4.49,0,0,0,86.66,18c.17-.47.35-.93.49-1.31,1.49-3.89,3-7.9.31-9.31A3,3,0,0,0,86.08,7c-1.54,0-2.87,1.14-3.92,2.22C81.94,5.16,81.5,0,78,0h-.15a3.74,3.74,0,0,0-2.7,1.26c-1.67,1.92-1.35,5.47-1.06,8.61.07.74.15,1.72.17,2.49l-.76-.78C72,10,70.29,8.23,68.28,8.23H68a3.59,3.59,0,0,0-2.69,1.7c-2,2.84.46,6,3.22,8.71h-.12a3.6,3.6,0,0,0-2.72,1.62,3.24,3.24,0,0,0-.63,2.37h-.22a5.64,5.64,0,0,0-3.48,1.54c-.16-.2-.3-.39-.43-.57-2.7-3.75-4.89-5.49-6.89-5.49a3.2,3.2,0,0,0-1.71.48c-2.18,1.34-.89,3.69-.34,4.69a1.14,1.14,0,0,0,.1.19,7,7,0,0,0-.73.95c-.63-.31-1.39-.79-2.2-1.3l-1.46-.9a8.76,8.76,0,0,0-4.32-1.37,5.08,5.08,0,0,0-1.58.25,3.59,3.59,0,0,0-2.24,2.08,3.81,3.81,0,0,0,.61,4,4.06,4.06,0,0,0-2,1.87,4.29,4.29,0,0,1-.43.64h0A12.59,12.59,0,0,1,37,26.39C36.48,23.54,35.88,20,32.8,20h-.15c-3.14.13-3.37,2.93-3.44,4.25-.21-.45-.42-1-.57-1.37-.65-1.67-1.38-3.58-3.05-4.14a2.92,2.92,0,0,0-.93-.15,3.62,3.62,0,0,0-1.91.6c-2.12,1.3-1.08,4.22-.09,7a17.79,17.79,0,0,1,.93,3.14H22.8c-.24,0-.48,0-.73,0a3.38,3.38,0,0,0-3.71,3c-.54,3,2.56,4.37,4.62,5.3a12.47,12.47,0,0,1,2,1,6.48,6.48,0,0,1-.76.19c-1,.19-3.18.65-3.18,3.27a4.36,4.36,0,0,0,0,.51,16.63,16.63,0,0,0-4.89,1.27A3.64,3.64,0,0,0,14,46.28c-.5,2.44,1.3,3.61,2.27,4.24.28.18.7.46.78.53s-.23.17-1.15.17A26,26,0,0,1,13,51a28.83,28.83,0,0,0-3.53-.3c-2.45,0-4,.82-4.67,2.43C3.77,55.63,6,57,7.14,57.59a7.06,7.06,0,0,1,1,.67,18.8,18.8,0,0,1-2,.86l-.38.15c-2.91,1.11-5,3-5.6,4.87a3.63,3.63,0,0,0,.6,3.28,3.6,3.6,0,0,0,3,1.56C5.55,69,7.36,67.67,9,66.5a20.59,20.59,0,0,1,2.1-1.39c0,.17,0,.33,0,.43a4.53,4.53,0,0,0,.74,3.64,3.88,3.88,0,0,0,3,1.14c1.91,0,3.39-1.44,4.69-3.3a5.51,5.51,0,0,0,3.05.71h.86c-.87.42-2,.89-2.93,1.25-3.69,1.49-7.5,3-8.28,5.79a4.76,4.76,0,0,0,.39,4c1.14,1.75,3.35,2.06,4.52,2.23a.3.3,0,0,1,.22.15c-.1.11-.51.47-.82.73-2,1.66-5.61,4.76-4.5,8.47a3.65,3.65,0,0,0,2.83,2.89,3.47,3.47,0,0,0,.64.06c2.74,0,5.31-3,6-4,1.13-1.46,2-1.86,2.31-1.86h0c.15,0,.31.3.36.39a6.24,6.24,0,0,1,.4,1.53c.22,1.22.51,2.74,1.77,3.55a3.14,3.14,0,0,0,1.72.48,4.72,4.72,0,0,0,1.2-.16c4.44-1.12,5.29-6.8,5.89-13.55a12.84,12.84,0,0,1,.82-4.17,3,3,0,0,1,.36.36A5.7,5.7,0,0,0,40.23,78a3.45,3.45,0,0,0,.57,0c0,1.63.51,3.1,2.05,3.8A2.62,2.62,0,0,0,44,82c1.65,0,2.42-1.48,3-2.58a6,6,0,0,1,.78-1.3c.54,0,.6,1.88.65,3.66,0,.57,0,1.17.07,1.79.14,2.51,1,4.47,2.36,5.52a3.52,3.52,0,0,0,3,.71c4.1-.9,3.42-5.85,2.92-9.47a16.74,16.74,0,0,1-.26-3.8l.74,0c1.37-.06,3.91-.18,4.46-3.37.37-2.18-1.39-3.75-3-5.13a10.9,10.9,0,0,1-2.44-2.67l.16,0a14.17,14.17,0,0,0,1.46.16A47,47,0,0,1,67.6,83.83a27,27,0,0,0-9.22,8.79c-3.38,5.56-3.81,11.31-4.17,16a31.93,31.93,0,0,1-.56,4.69c-.68,2.88.47,4.19,1.22,4.72a3.46,3.46,0,0,0,2,.61,7.3,7.3,0,0,0,3.9-1.38,2.86,2.86,0,0,1,.43-.24,22.06,22.06,0,0,0,.76,3.86c.9,3.22.67,4.2.5,4.92a3.8,3.8,0,0,0,.1,2.52A4.15,4.15,0,0,0,65.71,131a4.65,4.65,0,0,0,.75.06c1.73,0,3.52-1,5.32-3a97.68,97.68,0,0,1-1.94,21.3c-2.67,12.23-8.56,47.41-3.67,63.08a1.55,1.55,0,0,0,1.48,1.1h36.51a1.55,1.55,0,0,0,1.48-1.1c.07-.23,6.59-23,0-58.46-2.87-15.55-4.46-24.31-5.34-29.2a5,5,0,0,1,1.34.72,5.63,5.63,0,0,0,3.43,1.27,4.09,4.09,0,0,0,4-5c-.08-.41-.14-.93-.21-1.59a28.55,28.55,0,0,0-1.07-5.56,23.36,23.36,0,0,1,2.78.65,7.39,7.39,0,0,0,2.33.41,4.3,4.3,0,0,0,3.37-1.45c1.21-1.46,1.22-3.64,0-5.84a9.64,9.64,0,0,1-.73-3.23c-.42-3.35-1.06-8.42-7.45-14.36a21.45,21.45,0,0,0-9.46-5.14c1.28-4.32,3.86-9.13,7.82-14.58a3,3,0,0,0-.25,3.14,3,3,0,0,0,2.81,1.55,9.56,9.56,0,0,0,2.06-.3l.39-.08c-.05.34-.1.7-.16,1.07-.39,2.51-.79,5.1.4,6.7a3,3,0,0,0,2,1.19,5.46,5.46,0,0,0,.79.06,4,4,0,0,0,2.53-.82c1.74-1.34,2-3.87,2.3-6.1a12.09,12.09,0,0,1,.52-2.78,9.59,9.59,0,0,1,.74,1c.77,1.11,1.72,2.49,3.33,2.49a2.69,2.69,0,0,0,2.41-1.5c.94-1.82.19-4.91-.82-8.07a3.41,3.41,0,0,0,2.22.83,3,3,0,0,0,1.36-.31l.14-.08a3.84,3.84,0,0,0,1,.5,2.67,2.67,0,0,0,.9.16,2.3,2.3,0,0,0,1.37-.45,3.85,3.85,0,0,0,1.28-4.16l.93,1c2.29,2.61,4.45,5.08,6.59,5.08a2.66,2.66,0,0,0,1.5-.47c1.9-1.33,1.38-3.76.8-5.57,2.3,1,5,2.23,7.09,2.23h0a3.11,3.11,0,0,0,3.08-1.74A3.67,3.67,0,0,0,154,62.7Zm-1.43,2.37c-1,2.18-5.74,0-8.86-1.44L142.34,63c-.47-.2-.62-.15-.67-.11-.2.19.1,1.07.4,1.92.56,1.62,1.34,3.84,0,4.76a1.16,1.16,0,0,1-.69.22c-1.49,0-3.62-2.42-5.52-4.59-1.45-1.65-2.94-3.35-3.67-3.35h0a.45.45,0,0,0-.35.17c-.2.31,0,1.06.27,1.85.45,1.45,1,3.25-.33,4.23a1,1,0,0,1-1,.09,4.86,4.86,0,0,1-1.52-1,1.81,1.81,0,0,1-.69.67,2,2,0,0,1-2.49-.87,1.69,1.69,0,0,0-1.89-.91c-.5.23-.6.9-.29,1.84.76,2.26,2.15,6.44,1.28,8.11a1.26,1.26,0,0,1-.78.67c-1,.33-1.8-.76-2.53-1.81s-1.55-2.26-2.63-1.52c-.82.56-1,2.2-1.21,3.93-.24,2-.49,4.18-1.76,5.15a2.61,2.61,0,0,1-1.66.52c-.19,0-.39,0-.6,0a1.63,1.63,0,0,1-1.09-.63c-.83-1.13-.46-3.53-.13-5.64.1-.64.19-1.25.25-1.79a1,1,0,0,0-.19-.85c-.35-.31-1.15-.14-2,0-1.28.28-2.71.59-3.33-.55s1-2.88,2.65-4.47c1.32-1.3,2.69-2.63,2.35-3.43a.48.48,0,0,0-.28-.28c-.45-.12-1.3.5-2.13,1.09-1,.74-2,1.49-2.76,1.25l0,0C102.84,73.42,98.52,80.08,97,86.72a19.83,19.83,0,0,1,10.26,5.08c6,5.59,6.58,10.17,7,13.51a10.48,10.48,0,0,0,.9,3.73c.91,1.67,1,3.26.14,4.25a2.85,2.85,0,0,1-2.28.94,5.91,5.91,0,0,1-1.89-.34,39.85,39.85,0,0,0-4.86-1l-.64-.12a21.76,21.76,0,0,1,1.94,7.57c.07.66.14,1.24.23,1.69a2.67,2.67,0,0,1-2.64,3.35,4.3,4.3,0,0,1-2.57-1,8.54,8.54,0,0,0-4-1.49c.83,4.66,2.47,13.72,5.72,31.34,6.5,35.27.06,57.59,0,57.81a.12.12,0,0,1-.12.09H67.65a.13.13,0,0,1-.12-.09c-4.8-15.4,1-50.25,3.7-62.38a104.57,104.57,0,0,0,1.89-25.17l-.78.84c-.52.56-1,1.09-1.49,1.64-1.88,2.15-3.37,2.7-4.39,2.7a2.57,2.57,0,0,1-.5,0,2.72,2.72,0,0,1-2-1.81,2.47,2.47,0,0,1,0-1.71c.2-.87.48-2-.52-5.62a18.64,18.64,0,0,1-.78-5.41,9.43,9.43,0,0,0-2.55,1,6,6,0,0,1-3.12,1.15,2,2,0,0,1-1.22-.35c-.79-.55-1-1.7-.66-3.23a34.91,34.91,0,0,0,.6-5c.34-4.48.76-10,4-15.31a25.77,25.77,0,0,1,9.66-8.82A48.71,48.71,0,0,0,58.49,64a7.58,7.58,0,0,1-1.88-.12c-.84-.12-1.64-.24-1.93.1-.18.19-.19.56,0,1.1.44,1.54,1.79,2.74,3.1,3.91s2.73,2.43,2.49,3.83C59.88,74.92,58.47,75,57.11,75a11.49,11.49,0,0,0-1.18.1c-1.35.25-1,2.73-.64,5.35.47,3.41,1,7.28-1.82,7.89a1.54,1.54,0,0,1-.43.05,2.32,2.32,0,0,1-1.39-.5c-1-.79-1.68-2.38-1.79-4.47,0-.61,0-1.2-.07-1.76-.09-2.82-.15-4.87-1.95-5h-.12c-1,0-1.52,1-2,2.06s-1.14,2.19-2.25,1.69c-1.66-.75-1.62-3.5.11-8.15,1.12-3,2.24-8.11,1.44-9.26a.46.46,0,0,0-.39-.21h0c-.78,0-1.23.65-1.69,1.35h0c-.31,4.61-.65,8.73-.8,10.07-.18,1.56-.83,2.08-1.35,2.25-1.06.33-2.5-.51-3.37-1.51-.72-.82-1.34-1.16-1.84-1s-1.45,1.35-1.83,5.62c-.64,7.35-1.6,11.48-4.82,12.3A3.41,3.41,0,0,1,28,92a1.71,1.71,0,0,1-1-.26c-.75-.48-.95-1.57-1.15-2.62a6.81,6.81,0,0,0-.54-1.93,1.91,1.91,0,0,0-1.49-1.14h-.15c-1,0-2.21.85-3.41,2.41-1.37,1.77-3.58,3.72-5.29,3.4-.82-.15-1.4-.8-1.73-1.91-.85-2.82,2.34-5.53,4.06-7a7.69,7.69,0,0,0,1-1,1.45,1.45,0,0,0,.12-1.43,1.61,1.61,0,0,0-1.28-1l-.1,0c-.92-.13-2.64-.37-3.43-1.59a3.42,3.42,0,0,1-.21-2.86c.59-2.09,4.23-3.56,7.44-4.85,2.54-1,4.94-2,4.9-3s-1.25-1.06-2.63-1-2.66.07-3.37-.81a4.92,4.92,0,0,1-.57-.86c-1.33,2.22-2.81,4.28-4.53,4.28h0a2.52,2.52,0,0,1-1.92-.67,3.34,3.34,0,0,1-.39-2.57c.13-1.22.16-2-.73-2.11s-2.2.8-3.57,1.8C6,66.94,3.49,68.72,1.9,66.57a2.24,2.24,0,0,1-.38-2c.42-1.45,2.28-3,4.74-3.94l.39-.15c1.61-.61,2.77-1.06,3-1.71a1.23,1.23,0,0,0-.13-1,4.21,4.21,0,0,0-1.7-1.38C6.71,55.71,5.54,55,6.1,53.63c.79-2,3.8-1.62,6.71-1.26,2.61.33,5.07.63,5.53-.84.35-1.12-.42-1.62-1.32-2.2s-2-1.27-1.65-2.76c.11-.51.6-1,1.47-1.4A18.36,18.36,0,0,1,23,43.87a3.2,3.2,0,0,1-.52-1.75c0-1.47,1-1.68,2.05-1.89s1.8-.36,2-1.47-1.36-1.72-3-2.45c-1.95-.87-4.15-1.86-3.81-3.74s1.75-1.85,3-1.79c.91,0,1.76.08,2.14-.61s-.23-2.61-.87-4.4c-.81-2.3-1.65-4.68-.51-5.37a1.93,1.93,0,0,1,1.65-.32c1,.35,1.62,1.86,2.18,3.32s1.16,3,2.15,3a.94.94,0,0,0,.71-.19,2.84,2.84,0,0,0,.44-1.82c.07-1.3.15-2.93,2.09-3s2.42,2.63,2.86,5.25c.36,2.12.69,4.11,1.76,4.37s1.63-.48,2.12-1.27,1-1.64,2.3-1.24a1.87,1.87,0,0,1,1,1.05,9,9,0,0,1,.62,1.71,5.14,5.14,0,0,1,1.46-2.48c-2.55-1.32-4.79-2.87-3.91-5.09a2.18,2.18,0,0,1,1.38-1.25c1.24-.43,2.92-.07,4.71,1,.53.31,1,.63,1.51.93A12.26,12.26,0,0,0,52,26.16a5.39,5.39,0,0,1,1.85-2.29,9.66,9.66,0,0,0-.61-1.26c-.59-1.06-1.19-2.17-.16-2.8,1.55-1,3.81.6,6.71,4.62.41.57.9,1.2,1.43,1.83,1.17-1.18,2.37-2.18,3.65-2.2h0A2.9,2.9,0,0,1,67,25a1.55,1.55,0,0,1,.37.53,1.63,1.63,0,0,1,.34-.19c-1.12-1.74-1.59-3.26-.84-4.25a2.28,2.28,0,0,1,1.66-1.06h.08c1.13,0,2.18,1.13,3.19,2.22.81.87,1.57,1.7,2.21,1.72a.8.8,0,0,0,.57-.25.46.46,0,0,0,.16-.38c0-.85-1.62-2.38-3.34-4-2.93-2.76-6.58-6.18-4.88-8.64a2.24,2.24,0,0,1,1.64-1.1h.15c1.4,0,2.89,1.54,4.21,2.91,1,1,1.89,2,2.48,2h0a.46.46,0,0,0,.35-.16c.55-.58.37-2.54.18-4.62-.26-2.85-.55-6.08.72-7.54a2.26,2.26,0,0,1,1.7-.78H78c2.32,0,2.59,5.11,2.77,8.51,0,.57.06,1.08.09,1.52s.16.62.22.64c.25.1.9-.59,1.51-1.25,1.17-1.25,2.77-3,4.21-2.23,1.6.82.23,4.39-1,7.54C85,18.23,84.21,20.38,84.6,21a.44.44,0,0,0,.31.24h0c.36,0,.9-.54,1.47-1.1,1.07-1.07,2.41-2.4,3.9-1.68a1,1,0,0,1,.53.82c.25,1.54-1.14,4.65-2.37,7a13.83,13.83,0,0,1,6.29-3.6,3.14,3.14,0,0,1,2.78.58,1.56,1.56,0,0,1,.56,1.13c0,1.11-1.13,2.33-2.15,3.41-.83.86-1.61,1.68-1.49,2.17,0,.18.2.31.49.42,1.17.42,3.34-.57,5.44-1.52a25.9,25.9,0,0,1,3.53-1.41,2.07,2.07,0,0,1-.67-.61,2,2,0,0,1-.19-1.61,2.25,2.25,0,0,1,1-1.5c.88-.53,2.12-.2,3.2.08,1.26.33,2,.5,2.21-.18a9.52,9.52,0,0,0-.14-3c-.26-2-.55-4.26.35-5.37a1.87,1.87,0,0,1,1.37-.67h.2c2.54,0,2.84,3.8,3.08,6.87,0,.68.1,1.33.17,1.89.14,1,.46,1.63,1,1.77.68.2,1.75-.49,2.88-1.83.41-.5.74-1,1-1.37.55-.77.94-1.33,1.49-1.42a1.6,1.6,0,0,1,1.19.41c.83.6.44,2.14,0,3.76s-.89,3.54,0,4.46a1.93,1.93,0,0,0,2.1.47h.09c-.15-2.66-.09-4.92,1.36-5.22a1.41,1.41,0,0,1,1.16.19c.79.57,1,2.07,1.15,3.65.22,1.83.44,3.73,1.66,4.06s2.41-2.19,3.83-4.82c1.59-3,3.23-6,5.07-6.49a2,2,0,0,1,1.58.27c2.42,1.54.53,4.6-1.14,7.3-1.31,2.11-2.54,4.11-1.76,5.2s2.64.76,4.39.37c1.52-.34,3-.66,3.87-.07a2,2,0,0,1,.81,1.32c.43,2.1-3.34,3.32-7,4.51-3.18,1-6.47,2.09-6.05,3.59s1.78,1.31,3.21,1.1c1-.16,2-.31,2.6.19a1.32,1.32,0,0,1,.29.37,1.89,1.89,0,0,1,1,.94,2.24,2.24,0,0,1,.16,2c-.49,1.06-2,1.47-3.48,1.87-1.15.3-2.23.59-2.55,1.15a.77.77,0,0,0-.05.62.49.49,0,0,0,.26.32c.76.4,2.87-.33,5.09-1.1,3.8-1.31,8.54-2.94,9.92-.29a2.26,2.26,0,0,1,.21,2c-.57,1.33-2.72,2-4.61,2.5-1.35.39-2.62.76-2.89,1.29a.48.48,0,0,0,0,.39c.26.75,2.08,1.51,4,2.31,2.64,1.1,5.63,2.34,6.33,4.15A2.29,2.29,0,0,1,152.58,65.07ZM107.46,69.8l.52-.69.12,0C107.88,69.33,107.66,69.56,107.46,69.8Z"/><path class="cls-1" d="M104.2,43.82a4.71,4.71,0,0,1-.16-.62,2.47,2.47,0,0,1,.5-2.25l.07-.05c-1.61-.3-3-.43-3.62.26a1,1,0,0,0-.13,1.22A8.83,8.83,0,0,1,104.2,43.82Z"/><path class="cls-1" d="M97.32,57.56A1.09,1.09,0,0,0,97,56.28a1.71,1.71,0,0,0-.82-.35C96.55,56.47,97,57,97.32,57.56Z"/><path class="cls-1" d="M96.51,43.9a1.86,1.86,0,0,1-1.45.46s0,0,0,.06a.75.75,0,0,0,0,.26A8.29,8.29,0,0,1,98.05,46,8.12,8.12,0,0,0,96.51,43.9Z"/></svg>