<svg id="圖層_1" data-name="圖層 1" xmlns="http://www.w3.org/2000/svg" viewBox="0 0 93.29 96.72"><defs><style>.cls-1{fill:#fff;}</style></defs><title>0</title><path class="cls-1" d="M62.77,18.33a5.34,5.34,0,0,1,2.61.87,14.42,14.42,0,0,1,3,2.58l-1.47-9.52C63.5,13.69,62.83,17.86,62.77,18.33ZM66.16,18a6.73,6.73,0,0,0-1.67-.79,7,7,0,0,1,1.36-2.49l.54,3.43Z"/><path class="cls-1" d="M45.51,49.5l-.16,0a.8.8,0,0,1-.55-.22c-2-1.88-2.75-5.5-2.94-6.53-2.81,3.34-7.49,4.5-9.7,4.88,3.13.65,6.32,2.12,8.23,5.19a.93.93,0,0,1,0,.9.91.91,0,0,1-.71.53,23,23,0,0,1-6.12.07,32.21,32.21,0,0,1,2.76,5.4,9.74,9.74,0,0,1,1.72-.17,9.49,9.49,0,0,1,9.23,7.35v-6a9.42,9.42,0,0,1,0-11.13V45.52A26.42,26.42,0,0,1,46.12,49,.84.84,0,0,1,45.51,49.5Zm.4,11.87v.08a10.83,10.83,0,0,0-7.82-3.29l-.83,0c-.36-.83-.74-1.6-1.09-2.26h.13a27.8,27.8,0,0,0,3.62-.25,2.36,2.36,0,0,0,1.67-3.59,11.78,11.78,0,0,0-4.69-4.28,16.78,16.78,0,0,0,4.18-2.34,12,12,0,0,0,2.73,4.85,2.23,2.23,0,0,0,1.23.6,10.77,10.77,0,0,0,.87,10.45Z"/><path class="cls-1" d="M64.88,27.79a10.14,10.14,0,0,1,1.66-.11,18.15,18.15,0,0,1-1.7-1C64.87,27.07,64.88,27.43,64.88,27.79Z"/><path class="cls-1" d="M93.23,44.9a2.2,2.2,0,0,0-1.38-1.55,20.16,20.16,0,0,0-6.75-1.08,29.71,29.71,0,0,0-6.17.69,6.38,6.38,0,0,0-1.58.58,13.3,13.3,0,0,0-1.47-1.13,10.56,10.56,0,0,0,1.13-3,10.91,10.91,0,0,0-4-10.82,2.83,2.83,0,0,0,0-.29A14.69,14.69,0,0,0,70,21.56L67.22,3.38a1.42,1.42,0,0,0-1.4-1.2l-.22,0-.25,0a1.38,1.38,0,0,0-.92.56,1.41,1.41,0,0,0-.26,1.05l1.14,7.35a8.62,8.62,0,0,0-3.34,4A11.36,11.36,0,0,0,61.34,17a6.83,6.83,0,0,0-1.33.34,17.89,17.89,0,0,0-7.21,4.93A11,11,0,0,0,49,14.84V5.54a1.41,1.41,0,0,0-1.42-1.42h-.25a1.41,1.41,0,0,0-1.41,1.42V13A10.89,10.89,0,0,0,33.53,30a12.26,12.26,0,0,0-3.46,1.79,2.27,2.27,0,0,0-.91,1.71,2.24,2.24,0,0,0,.75,1.77,12,12,0,0,0,3.87,2.27,18.18,18.18,0,0,0-2.32,3.29h0A10.78,10.78,0,0,0,27.73,34L30.17,1.54a1.45,1.45,0,0,0-.34-1,1.47,1.47,0,0,0-1-.49L28.5,0a1.42,1.42,0,0,0-1.41,1.31l-1,13.42-.13.12a5.48,5.48,0,0,0-.52-.56,19.48,19.48,0,0,0-9.25-4.71,2.6,2.6,0,0,0-.56-.06,2.63,2.63,0,0,0-2,.9A2.59,2.59,0,0,0,13.19,13a24.8,24.8,0,0,0,1.47,3.25,15,15,0,0,0-2.37,1,15.32,15.32,0,0,0-7.1,8.32,2.57,2.57,0,0,0,.34,2.44,2.63,2.63,0,0,0,2.12,1.07h.11A23.21,23.21,0,0,0,16,27.25a8.46,8.46,0,0,0,.43,3.26,2.57,2.57,0,0,0,1,1.35A10.91,10.91,0,0,0,9.85,43.7a10.74,10.74,0,0,0,1.47,4.21,18.13,18.13,0,0,0-2.63-.2,20.25,20.25,0,0,0-4.43.52,2.58,2.58,0,0,0-1.56,4,20.27,20.27,0,0,0,4.16,4.52c-.54.41-1.14.89-1.76,1.44a16,16,0,0,0-5,7.61,2.64,2.64,0,0,0,.38,2.08,2.59,2.59,0,0,0,1.8,1.09,18.59,18.59,0,0,0,2.39.15,17.27,17.27,0,0,0,6-1,17.19,17.19,0,0,0-.06,3.84,2.55,2.55,0,0,0,1.25,2,2.63,2.63,0,0,0,1.31.36,2.5,2.5,0,0,0,1-.21,14.32,14.32,0,0,0,7-6.3l.24.07a2.39,2.39,0,0,0,.53.06h.13L20,95.32a1.4,1.4,0,0,0,1.3,1.52l.36,0a1.41,1.41,0,0,0,1.41-1.31l2.33-30.86c.37-.66.7-1.35,1-2a19.42,19.42,0,0,0,1.69,2A10.9,10.9,0,0,0,45.91,76.66V95.3a1.42,1.42,0,0,0,1.41,1.42h.25A1.42,1.42,0,0,0,49,95.3V64.46a10.86,10.86,0,0,0,6,1.79,5,5,0,0,0,.54,0,11.2,11.2,0,0,0,1.11.27A40.89,40.89,0,0,0,53.4,77.17a2.38,2.38,0,0,0,.68,2.15,2.35,2.35,0,0,0,1.67.68,2.09,2.09,0,0,0,.49,0,20.46,20.46,0,0,0,9.69-5,13.84,13.84,0,0,0,.55,3,2.42,2.42,0,0,0,2.29,1.64,2.38,2.38,0,0,0,1.92-1,25.38,25.38,0,0,0,3.85-7.78L77.36,89a1.42,1.42,0,0,0,1.4,1.2.86.86,0,0,0,.22,0l.24,0a1.42,1.42,0,0,0,.93-.57,1.4,1.4,0,0,0,.25-1L76.53,63.5a12.82,12.82,0,0,0,3.68-3.72,21.71,21.71,0,0,0,7.67,7.78,2.15,2.15,0,0,0,1.13.32,2.2,2.2,0,0,0,.87-.19,2.16,2.16,0,0,0,1.26-1.55c1.79-8.52-.66-13.4-2.71-15.83A16.91,16.91,0,0,0,92.7,46.9,2.19,2.19,0,0,0,93.23,44.9Zm-1.57,1c-1.18,1.27-3.47,3.4-5.85,3.83,1.24.91,6.21,5.32,4,16.09a.77.77,0,0,1-.45.54.66.66,0,0,1-.3.07.77.77,0,0,1-.39-.11c-2.05-1.24-6.86-4.66-8.37-10.24a9.15,9.15,0,0,1-.7,2A11.26,11.26,0,0,1,75,62.79l4,26-.24,0-4-25.92a.75.75,0,0,1-.53,0,.74.74,0,0,1-.43-.55A24,24,0,0,1,73.44,56c-1.25-.09-2.4,1.58-2.67,2a5.54,5.54,0,0,1,1.74,2.12c3.49,7.44-.91,14.82-3,17.65a.94.94,0,0,1-.93.38,1,1,0,0,1-.78-.66,19.86,19.86,0,0,1-.51-6.41c-3.38,5.29-9,7-11.37,7.47l-.2,0a1,1,0,0,1-.68-.28,1,1,0,0,1-.28-.88c1.57-8.33,3.62-11.4,4.3-12.22a8.51,8.51,0,0,1-3.4-.41c-.24,0-.47,0-.71,0a9.46,9.46,0,0,1-7.41-3.58v34h-.25V71.18a9.47,9.47,0,1,1-17.51-6.72,15.2,15.2,0,0,1-3.68-5.16,23.29,23.29,0,0,1-2.1,5L21.68,95.44h-.25l2.31-30.72a9.44,9.44,0,0,1-1.12,1.43.94.94,0,0,1-1.56-.36c-.08-.23-.17-.51-.25-.82a12.75,12.75,0,0,1-7.21,7.75,1.2,1.2,0,0,1-.45.09,1.16,1.16,0,0,1-.59-.16,1.15,1.15,0,0,1-.56-.88,14.3,14.3,0,0,1,.75-6.38C9,68,4.29,67.77,2.42,67.54a1.16,1.16,0,0,1-1-1.43,14.57,14.57,0,0,1,4.6-6.89,24.59,24.59,0,0,1,3.36-2.53A16.75,16.75,0,0,1,3.87,51.4a1.15,1.15,0,0,1-.12-1.08,1.18,1.18,0,0,1,.82-.71,15.33,15.33,0,0,1,13.27,2.6A9,9,0,0,1,20,54.69a20.19,20.19,0,0,1,.67-2.93h-.07a9.49,9.49,0,0,1-9.38-8.24,9.46,9.46,0,0,1,14.76-9l1.4-18.68A4.55,4.55,0,0,0,26,18.31a4.88,4.88,0,0,1-.1,1.86c-1.59,6.33-4.63,9.27-6.31,10.46a1.22,1.22,0,0,1-.68.22,1.26,1.26,0,0,1-.38-.06,1.18,1.18,0,0,1-.74-.74,8.41,8.41,0,0,1,.39-5.82C15,26.94,10.3,27.57,7.69,27.71a1.21,1.21,0,0,1-1-.49,1.17,1.17,0,0,1-.15-1.1A13.89,13.89,0,0,1,13,18.55a12.49,12.49,0,0,1,3.93-1.37,20.82,20.82,0,0,1-2.37-4.64,1.15,1.15,0,0,1,.21-1.19A1.17,1.17,0,0,1,15.88,11a18,18,0,0,1,8.58,4.37,5,5,0,0,1,1.42,2.42,3.93,3.93,0,0,1,1.57-2.27L28.5,1.42l.25,0-2.49,33.2.17.12a9.46,9.46,0,0,1,2.32,12.45,22.66,22.66,0,0,1,2.38.25.83.83,0,0,1-.23-.72,16.4,16.4,0,0,1,5.76-10,10.4,10.4,0,0,1-5.81-2.53A.83.83,0,0,1,30.91,33a10.59,10.59,0,0,1,5.6-2.08,9.47,9.47,0,0,1,5.43-17.24,9.34,9.34,0,0,1,5.38,1.69V5.54h.25v10a9.44,9.44,0,0,1,.11,15.13,5.4,5.4,0,0,1-.11.75v5.5A7.8,7.8,0,0,1,47.86,38a16.24,16.24,0,0,1-.29,6.54v4.94a9.47,9.47,0,0,1,16.89,5.9,10.25,10.25,0,0,1-.11,1.36,20.44,20.44,0,0,1,4,.26,5.43,5.43,0,0,1,2.21.89c.3-.47,1.51-2.21,2.9-2.11,0-.24,0-.49.07-.74L71.94,44.78a9.49,9.49,0,0,1-5.6,1.85,9,9,0,0,1-1.92-.2,9.49,9.49,0,0,1-7.36-11.2,9.34,9.34,0,0,1,1.77-3.84,23.31,23.31,0,0,1,.06-4.88C56.75,28.89,53.15,29,51.65,29a.72.72,0,0,1-.58-.33A.74.74,0,0,1,51,28a16.07,16.07,0,0,1,9.5-9.31,5.42,5.42,0,0,1,2-.33,9.75,9.75,0,0,1,.74-2.59A7,7,0,0,1,66.87,12l-1.3-8.36.25,0,2.87,18.55a13.35,13.35,0,0,1,2.88,6.31.73.73,0,0,1-.23.65,9.47,9.47,0,0,1,4.28,10,9.26,9.26,0,0,1-1.78,3.86,9.8,9.8,0,0,1,3.31,2.41,5.2,5.2,0,0,1,2.08-1c2.6-.57,7.62-1.28,12.14.34a.77.77,0,0,1,.48.54A.76.76,0,0,1,91.66,45.93ZM20.92,31.39A16.59,16.59,0,0,0,25.23,26l-.46,6.22A10.57,10.57,0,0,0,20.92,31.39ZM59.06,45.25a10.89,10.89,0,0,0-10.07,1V44.68a17.69,17.69,0,0,0,.27-7,8.88,8.88,0,0,0-.27-1V31.54l0-.15A11,11,0,0,0,50.41,30a2.08,2.08,0,0,0,1.18.41l.56,0a12.57,12.57,0,0,0,5.16-1q0,.77.06,1.62a10.86,10.86,0,0,0,1.69,14.27Zm3.2,2a10.4,10.4,0,0,0,1.87.57,11,11,0,0,0,2.21.23,10.76,10.76,0,0,0,4.52-1L72,54.62A5.45,5.45,0,0,0,70.17,56a6.74,6.74,0,0,0-1.59-.46,20.41,20.41,0,0,0-2.7-.27A10.9,10.9,0,0,0,62.26,47.25Z"/><path class="cls-1" d="M73.67,43.14a9.47,9.47,0,0,1-1.5,1.47l1.47,9.52a25.38,25.38,0,0,1,2-6.93A5.25,5.25,0,0,1,77,45.5,9.85,9.85,0,0,0,73.67,43.14Zm.73,3.47c-.13.27-.25.55-.36.82l-.35-2.25.31-.29a9,9,0,0,1,1,.7A5.76,5.76,0,0,0,74.4,46.61Z"/><path class="cls-1" d="M45.82,34a7.91,7.91,0,0,1,1.5,2.25V32.22A3.87,3.87,0,0,1,45.82,34Z"/><path class="cls-1" d="M45.64,33.84a3.9,3.9,0,0,0,1.68-2.46v-.46a9.43,9.43,0,0,1-3.58,1.51A8.09,8.09,0,0,1,45.64,33.84Z"/></svg>