<svg id="圖層_1" data-name="圖層 1" xmlns="http://www.w3.org/2000/svg" viewBox="0 0 87.96 102.85"><defs><style>.cls-1{fill:#fff;}</style></defs><title>0</title><path class="cls-1" d="M23.8,27.76l-.13,0,.08.1A.56.56,0,0,0,23.8,27.76Z"/><path class="cls-1" d="M38,35.6q.45.19.87.42A36.41,36.41,0,0,0,33.47,28a11.24,11.24,0,0,1-.28,2A6.58,6.58,0,0,1,35,31.12a6.71,6.71,0,0,1,2.14,4.17C37.45,35.38,37.75,35.48,38,35.6Z"/><path class="cls-1" d="M87.73,10.4a1.59,1.59,0,0,0,.15-1.3A1.55,1.55,0,0,0,87,8.15a23.32,23.32,0,0,0-8.57-1.87,13.9,13.9,0,0,0-3.66.46A21.1,21.1,0,0,0,73.27.92a1.47,1.47,0,0,0-1-.86,1.39,1.39,0,0,0-.4-.06,1.66,1.66,0,0,0-1,.33c-4.43,3.48-6.9,7.11-7.35,10.8a16.67,16.67,0,0,0-2.16-1.06,16.75,16.75,0,0,0,.42-2.18,1.56,1.56,0,0,0-.41-1.23,1.63,1.63,0,0,0-.94-.47h-.24c-8.65.36-12.83,4.13-14.83,7.34l-.26-.25a8.19,8.19,0,0,0-4.47-2.1,18.9,18.9,0,0,0-.13-6.58,1.54,1.54,0,0,0-.76-1A1.46,1.46,0,0,0,39,3.43a1.58,1.58,0,0,0-.52.09c-9.23,3.31-10.65,10.1-10.66,13.91a16.19,16.19,0,0,0-6.75,3.8A20.61,20.61,0,0,0,19.42,18a1.62,1.62,0,0,0-1.26-.65,1.55,1.55,0,0,0-1.18.54A22.81,22.81,0,0,0,14,22.18,20.73,20.73,0,0,0,6.8,17.64a1.61,1.61,0,0,0-.44-.06,1.66,1.66,0,0,0-.78.21,1.56,1.56,0,0,0-.74,1.08c-.75,4.54,0,8.19,2.21,10.86.17.21.36.42.55.62l-.22.08c-3.23,1.25-5.67,4-7.28,8.19a1.54,1.54,0,0,0,1,2,18.46,18.46,0,0,0,4.26.48,16.55,16.55,0,0,0,4.12-.51,18.34,18.34,0,0,0-5.81,6.84,1.55,1.55,0,0,0,0,1.23,1.64,1.64,0,0,0,.86.86A18.31,18.31,0,0,0,11.17,51,8.21,8.21,0,0,0,19,56.87h.34a11.61,11.61,0,0,0-2.5,6.35,20.2,20.2,0,0,0,.57,6.89,1.52,1.52,0,0,0,1.48,1.12,1.71,1.71,0,0,0,.59-.11,14.79,14.79,0,0,0,5-3.28,15.8,15.8,0,0,0,3,4.38,1.59,1.59,0,0,0,1.14.43h0a1.56,1.56,0,0,0,1.1-.56A13.25,13.25,0,0,0,33,65.38a8.1,8.1,0,0,0,3.33-1.56,12.75,12.75,0,0,0,7,4,1.71,1.71,0,0,0,.31,0,1.54,1.54,0,0,0,.87-.27,1.65,1.65,0,0,0,.65-1,17.25,17.25,0,0,0-.17-5.71,15.07,15.07,0,0,1,2.57,2.08C52.51,68,52.38,83.36,52.3,93.54v.14c0,3.9.7,6.37,2.32,7.79A6.52,6.52,0,0,0,59,102.85a33.85,33.85,0,0,0,4.62-.46l2.15-.3a4.54,4.54,0,0,0,3.61-1.92c1-1.79.08-3.92-1.35-7.15a49.85,49.85,0,0,1-3.26-9.17,87.72,87.72,0,0,0-2.64-8.42C60,69.17,57.31,61.53,56.92,53a13.82,13.82,0,0,0,4.66,1.74,1.06,1.06,0,0,0,.25,0,1.66,1.66,0,0,0,1-.37,1.53,1.53,0,0,0,.54-1.09,17.5,17.5,0,0,0-.73-6.45,8.14,8.14,0,0,0,4.79-2.56,8,8,0,0,0,1.76-3,13.19,13.19,0,0,0,3,1.89,1.66,1.66,0,0,0,.58.11,1.43,1.43,0,0,0,.6-.12,1.68,1.68,0,0,0,.84-.86,21.6,21.6,0,0,0,1.18-4.17,12.69,12.69,0,0,0,4.53.8,13,13,0,0,0,3.54-.46,1.55,1.55,0,0,0,.88-.74,1.71,1.71,0,0,0,.11-1.2,20.39,20.39,0,0,0-3.78-7.15,8.2,8.2,0,0,0,1.63-5.25,7.92,7.92,0,0,0-.23-1.6c2.54-1.12,4.66-3,5-4.16a1.65,1.65,0,0,0-.47-1.7,18.48,18.48,0,0,0-2.82-2.11A16.51,16.51,0,0,0,87.73,10.4Zm-7,4.25a14.66,14.66,0,0,1,4.94,3h0a.25.25,0,0,1,.05.26c-.19.68-2.47,2.8-5.41,3.72a6.46,6.46,0,0,1,.59,2.49,6.76,6.76,0,0,1-2.14,5.23,17.24,17.24,0,0,1,4.35,7.54.17.17,0,0,1,0,.1.16.16,0,0,1-.08.06,11.44,11.44,0,0,1-3.09.39,11.12,11.12,0,0,1-5.31-1.29c-.15-.08-.28-.18-.42-.27a17.7,17.7,0,0,1-1.3,5.84.16.16,0,0,1-.07.07h-.1a12.79,12.79,0,0,1-4.55-3.7l0,.28a6.8,6.8,0,0,1-6.5,7.06h-.29a7,7,0,0,1-.91-.07A14.06,14.06,0,0,1,62,53.18a.2.2,0,0,1-.05.09l-.08,0h0A11.84,11.84,0,0,1,55.46,50c-.18,10,2.82,18.61,5.37,25.92,1,3,2,5.81,2.6,8.26a50.54,50.54,0,0,0,3.35,9.45c1.25,2.82,2.07,4.69,1.4,5.87-.37.65-1.18,1-2.55,1.21-.75.09-1.48.2-2.17.3a34.27,34.27,0,0,1-4.42.45,5.07,5.07,0,0,1-3.49-1c-1.28-1.12-1.86-3.25-1.84-6.71v-.14c.09-11,.22-26.14-5.06-31.64a23.46,23.46,0,0,0-6.15-4.21,15.4,15.4,0,0,1,1.32,8.59.1.1,0,0,1,0,.08l-.07,0h0c-3.42-.82-5.81-2.42-7.12-4.76-.09.11-.17.22-.27.33a6.74,6.74,0,0,1-4.6,2.17c0,2.27-1,4.64-3,7.05a.13.13,0,0,1-.09,0h0a.11.11,0,0,1-.08,0A13.53,13.53,0,0,1,25,64.77a11.6,11.6,0,0,1-6,5h0l-.06,0a.11.11,0,0,1-.06-.07,19,19,0,0,1-.52-6.37c.31-3.06,1.74-7,6.71-8.46a6.81,6.81,0,0,1,4.8-4.13,32.39,32.39,0,0,1-4.13-3.49,6.72,6.72,0,0,1,.15,1.12,6.8,6.8,0,0,1-6.5,7.06H19a6.78,6.78,0,0,1-6.72-5.93c-.35,0-.7.06-1.06.06a16.88,16.88,0,0,1-6.18-1.34A.12.12,0,0,1,5,48.17a.1.1,0,0,1,0-.09c0-.06,2.76-5.9,7.81-7.48a9,9,0,0,1,5-.07A25.88,25.88,0,0,0,12,38.11a13.29,13.29,0,0,1-6.61,1.61,17.15,17.15,0,0,1-3.9-.43.16.16,0,0,1-.08-.06.11.11,0,0,1,0-.11c1.45-3.79,3.63-6.27,6.46-7.37A9.8,9.8,0,0,1,11,31.12a9.19,9.19,0,0,1-2.89-2.29c-1.94-2.34-2.58-5.61-1.9-9.73A.15.15,0,0,1,6.3,19a.12.12,0,0,1,.1,0c.08,0,5.22,1.81,8,5.84a18.68,18.68,0,0,1,3.62-6,.13.13,0,0,1,.1,0,.12.12,0,0,1,.1.05,18.88,18.88,0,0,1,2.26,5c1.49-1.67,4.67-4.67,8.8-5.25C29,15.15,29.73,8.18,39,4.85a.12.12,0,0,1,.1,0s.06,0,.06.08a17,17,0,0,1-.24,7.62l.39,0a6.73,6.73,0,0,1,6.31,3.69C46.92,13,50.5,8,60.28,7.6a.13.13,0,0,1,.1,0,.1.1,0,0,1,0,.09,17,17,0,0,1-.73,3.2,15.65,15.65,0,0,1,5.38,3,8.51,8.51,0,0,1-.15-2.06c.19-3.5,2.5-7,6.88-10.46a.14.14,0,0,1,.11,0,.18.18,0,0,1,.08.07,19.93,19.93,0,0,1,1.47,7.25c2.32-1.12,6.46-1.91,13,.73a.11.11,0,0,1,.07.08.12.12,0,0,1,0,.1A14.32,14.32,0,0,1,80.69,14.65Z"/><path class="cls-1" d="M42.79,43.81a14.59,14.59,0,0,1-2.77.27,11.46,11.46,0,0,1-4-.72,14.73,14.73,0,0,1-.32,5.17c4,2.73,7.63,4,9.32,3.06a1.74,1.74,0,0,0,.89-1.09c.31-1.26-.88-3.15-2.25-5.34C43.36,44.73,43.07,44.27,42.79,43.81Zm1.49,6.55a1.44,1.44,0,0,1-.69.13c-1.41,0-3.74-1-6.34-2.62a17,17,0,0,0,.26-2.61A13,13,0,0,0,40,45.5a16.21,16.21,0,0,0,2.06-.14l.35.56c1,1.5,2.24,3.57,2.07,4.24C44.49,50.23,44.33,50.33,44.28,50.36Z"/><path class="cls-1" d="M21.06,27a12.34,12.34,0,0,1,2.81,3.8,9.91,9.91,0,0,1,1.76-3.08,8.65,8.65,0,0,1,1.07-1,21.56,21.56,0,0,1-5.79-1.09C21,26,21,26.49,21.06,27Zm2.74.79a.56.56,0,0,1-.05.08l-.08-.1Z"/><path class="cls-1" d="M66.71,22.67a62.13,62.13,0,0,0-7.61,9.65,6.71,6.71,0,0,1,2-.4h.28a6.73,6.73,0,0,1,4.94,2.15,13.22,13.22,0,0,1,1.2-7.9,6.19,6.19,0,0,1-.23-1.44,6.81,6.81,0,0,1,.27-2.17A7.87,7.87,0,0,1,66.71,22.67Zm-1.95,8.56A8.1,8.1,0,0,0,62,30.52Q63.79,28,66,25.57c0,.16,0,.31.08.47A16.25,16.25,0,0,0,64.76,31.23Z"/><path class="cls-1" d="M62.85,22a8,8,0,0,1-1.08-.57,10.14,10.14,0,0,1-3.72-4.76,56.62,56.62,0,0,1,.66,10.66A54.26,54.26,0,0,1,62.85,22Zm-2.19.38-.56.69c0-.4,0-.79-.06-1.16C60.24,22.12,60.45,22.27,60.66,22.42Z"/><path class="cls-1" d="M44.39,24.08a7.32,7.32,0,0,1-.66.59c.63,2.66.15,5.65-1.46,8.91.27.51.54,1.05.8,1.6a15.56,15.56,0,0,1,1.82-1.48,10.32,10.32,0,0,1,8.36-1.6c.18-1.1.34-2.23.47-3.35A13,13,0,0,1,44.39,24.08ZM52.13,30l-.06.45q-.63-.06-1.26-.06a11.76,11.76,0,0,0-6.46,2,15,15,0,0,0,1.06-5.3A14.24,14.24,0,0,0,52.13,30Z"/><path class="cls-1" d="M50.39,19.55A15.36,15.36,0,0,1,54,23.35a17.71,17.71,0,0,0-.67-4.6A10.42,10.42,0,0,1,50.39,19.55Z"/><path class="cls-1" d="M47.16,39.9a13.36,13.36,0,0,1-2-.19c1.22,2.59,2.39,3.85,3.5,3.73,1.27-.13,2.35-2.11,3.15-4.59q-.39.19-.81.36A10.41,10.41,0,0,1,47.16,39.9ZM48.47,42s-.29-.06-.8-.72a11.6,11.6,0,0,0,1.57-.17C48.87,41.77,48.58,42,48.47,42Z"/></svg>