<svg id="圖層_1" data-name="圖層 1" xmlns="http://www.w3.org/2000/svg" viewBox="0 0 87.07 105.36"><defs><style>.cls-1{fill:#fff;}</style></defs><title>0</title><path class="cls-1" d="M29.41,33.76l-.06.18.18,0Z"/><path class="cls-1" d="M28.69,31a12,12,0,0,1-2.29,5.27,7.75,7.75,0,0,1,1-.44,8.94,8.94,0,0,1,5.32-.28c-1.54-1.84-2.85-3.5-4-5.09C28.72,30.66,28.72,30.84,28.69,31Zm.72,2.74.12.16-.18,0Z"/><path class="cls-1" d="M43.49,31.45a7.52,7.52,0,0,1-.82-.05,6,6,0,0,1-5.15-6.79c0-.23.09-.46.14-.68a9.58,9.58,0,0,1-3.52-.07c-.26-.06-.5-.15-.75-.22.68,1,1.4,2.17,2.14,3.34,2.9,4.55,6.22,9.74,9.42,13a13,13,0,0,1,.56-8.93A6,6,0,0,1,43.49,31.45ZM43,35.54c-.77-1-1.54-2.09-2.3-3.2a7.52,7.52,0,0,0,1.75.46,7.28,7.28,0,0,0,.93.07A14,14,0,0,0,43,35.54Z"/><path class="cls-1" d="M54,32.6l-.52-.1a9.8,9.8,0,0,1,0,2.42c-.5,3.56-2.93,6.37-4.69,8a4.14,4.14,0,0,0,2.66.36c3.77-.9,5.33-5.76,6.13-11.31a6,6,0,0,1-2.74.69A7.52,7.52,0,0,1,54,32.6Zm1,1.47a7.53,7.53,0,0,0,.83-.07c-.82,4.13-2.09,6.62-3.82,7.56a13.62,13.62,0,0,0,2.9-6.44A9.3,9.3,0,0,0,54.92,34.07Z"/><path class="cls-1" d="M86.78,24.08l-.1-.13A19,19,0,0,0,81,18.72a23.5,23.5,0,0,0,5-6.92l.07-.15a1.42,1.42,0,0,0-1-2l-.16,0a23.75,23.75,0,0,0-4.21-.41,13.75,13.75,0,0,0-5.77,1.14,31.23,31.23,0,0,0-.73-7l0-.14a1.41,1.41,0,0,0-.7-1,1.38,1.38,0,0,0-.68-.18,1.43,1.43,0,0,0-.5.09l-.14,0A18.11,18.11,0,0,0,63.78,9l-.41-.18a13.19,13.19,0,0,0-5.14-1,22.7,22.7,0,0,0-9.49,2.43l-.13.06a1.42,1.42,0,0,0-.76.88A1.48,1.48,0,0,0,48,12.39l.08.11a17.39,17.39,0,0,0,9.19,6.72c0,.13,0,.26,0,.4a6.58,6.58,0,0,0-1.44-.35,7,7,0,0,0-1-.07,7.33,7.33,0,0,0-4.48,1.51,7,7,0,0,0-.66.56,7.29,7.29,0,0,0-3-2.55C48.3,12.39,43.06,5.35,43,5.28l-.09-.12a1.42,1.42,0,0,0-1.1-.57h0a1.4,1.4,0,0,0-1.08.51l-.11.12c-2.61,3.16-4,6.23-4.24,9.18a17.59,17.59,0,0,0-5.48-.92c.68-3.8-.19-8-2.59-12.57L28.19.75A1.46,1.46,0,0,0,27.13,0h-.19a1.43,1.43,0,0,0-1,.44L25.8.56c-.05,0-4.66,4.88-5.24,10.86a7.52,7.52,0,0,0-4,2.53,11.57,11.57,0,0,0-5.89-1.43A24.75,24.75,0,0,0,3.31,13.8l-.14,0a1.43,1.43,0,0,0-.88.8,1.39,1.39,0,0,0,0,1.18l.05.12a16.71,16.71,0,0,0,3.7,4.64,24.26,24.26,0,0,0-5.62,5l-.11.13a1.41,1.41,0,0,0,.54,2.23L1,28A23,23,0,0,0,8.79,29.4c.37,0,.75,0,1.12,0a7.32,7.32,0,0,0,1.37,3,8,8,0,0,0,.77.87A24.82,24.82,0,0,0,7.42,41l0,.15A1.42,1.42,0,0,0,8.56,43h.16a26.9,26.9,0,0,0,2.78.15,15.19,15.19,0,0,0,8.25-2.08,33.3,33.3,0,0,0-2.71,6L17,47.2a1.41,1.41,0,0,0,1.08,1.86l.15,0a17.67,17.67,0,0,0,2.8.2,17.06,17.06,0,0,0,7.64-1.69,7.38,7.38,0,0,0,4.95,2.94,6.9,6.9,0,0,0,1,.07,7.4,7.4,0,0,0,6.15-3.3c.85,1,1.72,2.07,2.64,3.2,12,14.76,15.13,29,17.41,39.48,1.87,8.59,3.35,15.37,9.86,15.37.32,0,.65,0,1,0,3.13-.32,5.14-1.36,6.14-3.2C80,98.23,77,92.33,72,82.53A197.93,197.93,0,0,1,60.92,57.37c-1.76-5.1-.37-9.19,1.4-14.37l.27-.78a18.65,18.65,0,0,0,5.34,7.88l.12.1a1.37,1.37,0,0,0,1,.38h.2a1.43,1.43,0,0,0,1-.68l.06-.11a22,22,0,0,0,1.83-4.06,18.69,18.69,0,0,0,.77-3.21c.25.23.5.44.76.65a13.62,13.62,0,0,0,8.26,2.69A8.3,8.3,0,0,0,83,45.79h.11a1.43,1.43,0,0,0,1.24-1.51v-.13c-.34-4.33-1.52-7.66-3.51-9.94a24.69,24.69,0,0,0,3.55-1.58l.1,0a1.43,1.43,0,0,0,.62-1.83l0-.09a13.41,13.41,0,0,0-2.25-3.3,21.14,21.14,0,0,0,3.22-1.06l.15-.06a1.42,1.42,0,0,0,.56-2.15ZM85.5,25a23.33,23.33,0,0,1-5.79,1.51,12.29,12.29,0,0,1,4.09,4.7l0,.11-.1.05a19.85,19.85,0,0,1-5.83,2.16l.21.12c2.8,1.89,4.43,5.46,4.84,10.6v.12l-.11,0s-.37,0-1,0A12.23,12.23,0,0,1,74.52,42a11.12,11.12,0,0,1-3.16-4,13.6,13.6,0,0,1-.58,7.23A21,21,0,0,1,69.09,49l-.08.14-.11-.11c-3.55-3.32-5.37-6.73-5.42-10.13a9.64,9.64,0,0,1,.31-2.49,6.41,6.41,0,0,1-.76-.59c-.6,2.44-1.36,4.65-2.05,6.69-1.78,5.22-3.32,9.73-1.4,15.29a201.43,201.43,0,0,0,11.2,25.35c4.56,9,7.57,15,5.8,18.25-.76,1.39-2.41,2.2-5,2.47a8.32,8.32,0,0,1-.85,0c-5.37,0-6.62-5.75-8.48-14.26-2.3-10.57-5.46-25-17.69-40.06-1.46-1.79-2.81-3.43-4.09-4.94a6,6,0,0,1-5.8,4.51,7.86,7.86,0,0,1-.83,0,6,6,0,0,1-4.64-3.46A15.05,15.05,0,0,1,21,47.88a14.8,14.8,0,0,1-2.55-.19l-.14,0,.05-.14a25.4,25.4,0,0,1,4.53-8.44c-.37-.76-.69-1.49-1-2.2a8.92,8.92,0,0,1-1.29,1.67c-2.1,2.12-5.17,3.18-9.14,3.18a24.37,24.37,0,0,1-2.64-.14H8.71l0-.15a22.36,22.36,0,0,1,5.46-8.29,6.11,6.11,0,0,1-1.81-1.59,6,6,0,0,1-1.22-3.77,15.21,15.21,0,0,1-2.4.19,21.76,21.76,0,0,1-7.21-1.33l-.16-.07.11-.13a20.63,20.63,0,0,1,7.2-5.68,14.74,14.74,0,0,1-5.08-5.44l-.06-.13.14,0c5.39-1.69,9.56-1.61,12.41.23a9.14,9.14,0,0,1,.75.56,6,6,0,0,1,5-3.29c0-5.9,4.83-11,4.9-11.11l.12-.12.08.15c3.11,5.89,3,10.3,2,13.35,2.61-.13,6.1.09,8.83,1.75-.57-3.26.7-6.8,3.8-10.54l.1-.12.1.12c.07.09,5.62,7.58,3,13.46a6,6,0,0,1,4.43,4.48,5.92,5.92,0,0,1,1.81-2.23,6,6,0,0,1,7.32,0c.1-1.39.22-2.65.37-3.75a15.78,15.78,0,0,1-9.55-6.38l-.08-.12.13-.06c5.28-2.47,9.81-3,13.48-1.4a9.7,9.7,0,0,1,1.54.8c2.38-5.17,8.17-7.39,8.23-7.41l.14-.05,0,.14a25.46,25.46,0,0,1,.43,9.52l.13-.13c2.58-2.22,6.37-2.89,11.27-2l.16,0-.06.15c0,.08-2.37,5.26-6.41,7.84,2.54.78,5,2.7,7.27,5.74l.1.12Z"/></svg>