<svg id="圖層_1" data-name="圖層 1" xmlns="http://www.w3.org/2000/svg" viewBox="0 0 186.6 86.67"><defs><style>.cls-1{fill:#fff;}</style></defs><title>0</title><path class="cls-1" d="M183,52.22c-1.68-1.16-2.28-2.68-3-4.45s-1.45-3.7-3.48-4.83a19.68,19.68,0,0,0-3.16-1.37c0-7.88-3.07-15.49-7.9-19.18-4.39-3.36-7.65-3.45-10.81-3.54A17.48,17.48,0,0,1,146.32,17a14.91,14.91,0,0,0-4.48-1.42c.46-3.19,2.26-3.22,2.93-3.22h.12c2.22,0,3.39-1.31,3.56-2.6a3.06,3.06,0,0,0-2.51-3.29,7.46,7.46,0,0,0-1.83-.23,8.42,8.42,0,0,0-7.91,6.18,10.84,10.84,0,0,0-.43,3.49,21,21,0,0,0-6,2.58,6.8,6.8,0,0,1-1.24.58l-.36-.33c-3.93-3.57-7-3.92-10-4.26a16.52,16.52,0,0,1-7.78-2.41,14,14,0,0,0-5.77-2,10.73,10.73,0,0,0-.84-3.39,8.26,8.26,0,0,0-7.4-5,7.17,7.17,0,0,0-2.62.49,3,3,0,0,0-2,3.5A3.07,3.07,0,0,0,94.8,7.78a5.33,5.33,0,0,0,.67,0,2.45,2.45,0,0,1,.46,0c1.31,0,2.22,1,2.7,2.82a21.75,21.75,0,0,0-4.31,1.64,13.18,13.18,0,0,1-5,.94c-2.93.21-6.53.46-10.33,2.74a15,15,0,0,0-9.15-3.74A16.26,16.26,0,0,1,62.3,9.67a13.56,13.56,0,0,0-3-1.44C59.85,6.74,60.69,6,61.76,6a2.72,2.72,0,0,1,.67.08,4.57,4.57,0,0,0,1,.12,3,3,0,0,0,2.91-1.86,2.93,2.93,0,0,0-1.7-3.6A7,7,0,0,0,61.51,0a8.13,8.13,0,0,0-7,4.3A10.66,10.66,0,0,0,53.4,7.6a19.38,19.38,0,0,0-6.68,2,12.75,12.75,0,0,1-4.88.85c-3.8.23-8.54.5-13.56,5.13a20.26,20.26,0,0,0-5.36,8.16A21.18,21.18,0,0,0,18,23l-.53,0a9.84,9.84,0,0,0-3.64.88,4.25,4.25,0,0,1-1.81.45,6,6,0,0,1-1.05-.1,21.34,21.34,0,0,0-3.68-.42c-3,0-5,1.32-6,3.93-.19.52-.38,1-.56,1.36-.7,1.61-1.3,3-.12,5.48.76,1.6,2.48,2.49,3.86,3.21a8.81,8.81,0,0,1,1.73,1.06c-.06.33-.35.64-.83,1.14a5.74,5.74,0,0,0-1.62,2.44,4.17,4.17,0,0,0,.35,3,1.82,1.82,0,0,1,.25,1.31A4.39,4.39,0,0,1,3.64,48a6.27,6.27,0,0,0-1.35,6.15A7.88,7.88,0,0,0,6.48,59.2a4.43,4.43,0,0,0,1.69.34,4.22,4.22,0,0,0,2-.52c.41-.22.8-.47,1.24-.75a7.25,7.25,0,0,1,3.82-1.5,4.72,4.72,0,0,1,1.09.14,8.22,8.22,0,0,0,1.93.24,5.78,5.78,0,0,0,3.23-.91A5.88,5.88,0,0,0,24,52.19a.77.77,0,0,1,.82-.66h0a.82.82,0,0,1,.85.79,10.13,10.13,0,0,1,0,2c-.1,1.8-.28,4.83,3.57,5.53a7.58,7.58,0,0,0,4.26-.37,3.21,3.21,0,0,1,.92-.23,1.28,1.28,0,0,1,.61.18,12.52,12.52,0,0,0,2.32,1.87c1.39.94,2.49,1.68,2.93,3.48.56,2.22,2.12,3.58,3.49,4.79s2.27,2,2.35,3.27a3.69,3.69,0,0,0,3.57,3.7H50c2,0,4.5-1.34,4.93-3.51.39-2,1.69-3.35,4.34-4.65A8.47,8.47,0,0,0,63,64.43c.22-.4.55-1,.78-1.09s.55.18,1.13.85a4.85,4.85,0,0,0,3.89,2.07h.34c.7,0,1,.23,1.53.81a4.33,4.33,0,0,0,3.27,1.57c2.29,0,2.76-2.29,3.15-4.13s.77-3.71,2.24-4.62A5.49,5.49,0,0,0,82,55.68a9.77,9.77,0,0,0,1.79.16H84l1.12,0q.72,0,1.38,0A10.22,10.22,0,0,0,85.72,58a4.16,4.16,0,0,1-1.53,2.45c-2.24,2-6,5.27-3.32,9.72.28.47.51.9.71,1.29.81,1.55,1.51,2.89,4.18,3.53a4.25,4.25,0,0,0,1,.12A10.14,10.14,0,0,0,90.69,74a7.59,7.59,0,0,1,1.92-.68A2.75,2.75,0,0,1,93,74.66a5.71,5.71,0,0,0,.89,2.79A4.15,4.15,0,0,0,96.39,79a1.89,1.89,0,0,1,1.17.63,4.55,4.55,0,0,1,.52,1.41c.4,1.5,1,3.78,3.93,4.91a9.85,9.85,0,0,0,3.46.68,6.27,6.27,0,0,0,3.12-.76,4.25,4.25,0,0,0,2.19-3c.08-.45.14-.91.2-1.42.21-1.78.4-3.45,2-4.68a6.46,6.46,0,0,0,2.72-4.44,5.91,5.91,0,0,0-1.56-4.52.75.75,0,0,1,0-1,.86.86,0,0,1,.65-.33.92.92,0,0,1,.5.16,10.15,10.15,0,0,1,1.55,1.24c1,.9,2.12,1.92,3.68,1.92a4.35,4.35,0,0,0,2.87-1.22A7.72,7.72,0,0,0,125.8,65c.06-.16.11-.3.16-.42h.52a16.77,16.77,0,0,1,6.26,1.12,18.32,18.32,0,0,0,4.62,1.07c.61.75,1.35,1.56,2.2,2.43,1.27,1.31,1.38,1.73,1.5,2.21.28,1.06.66,2,2.86,4.27a24.13,24.13,0,0,1,2.71,3.44c1.6,2.34,3.25,4.75,7.36,4.75l.76,0c4.95-.32,5.8-2.7,6.62-5a14,14,0,0,1,1.17-2.65,18.51,18.51,0,0,0,1.8-4.62c.7-2.49,1.14-3.81,2.66-4.32a9,9,0,0,1,2.68-.3c1,0,2,.06,3.13.12s2.44.14,3.64.14h0c3,0,5-.44,6.5-1.44a8.07,8.07,0,0,0,3.65-6.65A8.15,8.15,0,0,0,183,52.22Zm-.81,12.36c-2.26,1.48-5.83,1.27-9.28,1.08-2.46-.14-4.79-.28-6.34.25-2.3.77-2.89,2.86-3.58,5.28a17.17,17.17,0,0,1-1.64,4.27,15,15,0,0,0-1.29,2.9c-.79,2.21-1.36,3.8-5.39,4.07l-.66,0c-3.36,0-4.62-1.84-6.19-4.13a24.9,24.9,0,0,0-2.88-3.64c-2.1-2.12-2.29-2.89-2.49-3.63s-.32-1.26-1.86-2.84a33.47,33.47,0,0,1-2.49-2.81,16.09,16.09,0,0,1-4.88-1.05,19,19,0,0,0-8-1.15,3.94,3.94,0,0,0-.68,1.32,6.34,6.34,0,0,1-2,3c-2,1.74-3.31.57-4.67-.67A11.74,11.74,0,0,0,116,65.4a2.25,2.25,0,0,0-3,.48,2.16,2.16,0,0,0,0,2.89,4.51,4.51,0,0,1,1.22,3.44,5.06,5.06,0,0,1-2.17,3.46c-2.09,1.59-2.35,3.74-2.57,5.64,0,.47-.11.91-.18,1.34a2.87,2.87,0,0,1-1.49,2,5,5,0,0,1-2.43.57,8.26,8.26,0,0,1-3-.58c-2.26-.87-2.69-2.51-3.07-4a5.46,5.46,0,0,0-.78-1.92,3.14,3.14,0,0,0-1.91-1.11A2.8,2.8,0,0,1,95,76.63a4.58,4.58,0,0,1-.63-2.15,3.4,3.4,0,0,0-.87-2.29c-.73-.67-2-.13-3.38.49s-2.76,1.21-4,.9c-2-.48-2.5-1.36-3.25-2.81-.21-.4-.45-.86-.76-1.36-2.07-3.43.77-5.92,3-7.92a5.55,5.55,0,0,0,2-3.12,8.29,8.29,0,0,1,1.39-2.95,7.88,7.88,0,0,1,.6-.75A28.57,28.57,0,0,0,84,54.42a8.93,8.93,0,0,1-3.45-.59c.18,1.75-.12,3.72-2,4.86-2,1.23-2.49,3.61-2.89,5.53-.35,1.68-.63,3-1.76,3a3,3,0,0,1-2.26-1.16A3.23,3.23,0,0,0,69,64.84a3.45,3.45,0,0,1-3-1.57,3,3,0,0,0-2.13-1.35c-1.07-.06-1.53.8-2.11,1.87a7,7,0,0,1-3.06,3.31c-3.05,1.51-4.62,3.25-5.1,5.65-.28,1.39-2.08,2.37-3.54,2.37h-.21a2.28,2.28,0,0,1-2.23-2.37c-.13-1.88-1.44-3-2.83-4.25s-2.6-2.27-3-4.07c-.58-2.32-2.07-3.33-3.52-4.3A10.07,10.07,0,0,1,36,58.29a2.93,2.93,0,0,0-2.89-.16,6.29,6.29,0,0,1-3.54.32C26.93,58,27,56.23,27.14,54.39a12.2,12.2,0,0,0,0-2.26,2.26,2.26,0,0,0-2.23-2,2.16,2.16,0,0,0-2.24,1.83,4.51,4.51,0,0,1-1.92,3.11,5.06,5.06,0,0,1-4.05.48c-2.56-.63-4.39.53-6,1.54-.4.26-.77.49-1.16.7A2.86,2.86,0,0,1,7,57.89a6.49,6.49,0,0,1-3.36-4.2c-.74-2.3.26-3.67,1.14-4.87a5.15,5.15,0,0,0,1-1.81,3.15,3.15,0,0,0-.33-2.19,2.82,2.82,0,0,1-.29-2A4.55,4.55,0,0,1,6.44,41a3.42,3.42,0,0,0,1.25-2.1c.06-1-1.13-1.62-2.51-2.34S2.51,35.12,2,34c-.9-1.9-.51-2.8.14-4.3.18-.42.39-.89.59-1.45,1.37-3.76,5.09-3.12,8.08-2.59a5.54,5.54,0,0,0,3.65-.45,8.63,8.63,0,0,1,3.17-.77,21.21,21.21,0,0,1,6.28,1,19,19,0,0,1,5.39-8.83c4.64-4.28,8.91-4.53,12.67-4.75a14,14,0,0,0,5.43-1A17.54,17.54,0,0,1,54.58,9l.12-.58a10.41,10.41,0,0,1,1-3.36C57.82,1.39,61.56.76,64,2a1.56,1.56,0,0,1,1,1.86c-.22.62-1,1.11-2.29.82-2.3-.52-4.08.76-5,3.63-.11.32-.18.62-.25.91a12.24,12.24,0,0,1,4,1.65,17.48,17.48,0,0,0,8.09,2.63c2.82.36,5.49.7,8.94,3.9.08.07.15.16.22.23,3.82-2.63,7.38-2.89,10.59-3.12A14.39,14.39,0,0,0,95,13.42a19,19,0,0,1,5.31-1.8c0-.36-.1-.73-.19-1.13-.68-3-2.39-4.49-4.8-4.16-1.33.19-2.1-.39-2.27-1s.15-1.39,1.2-1.81c2.63-1.05,6.4-.07,8.2,3.82a10.59,10.59,0,0,1,.78,3.54l.06.57a12.7,12.7,0,0,1,6.32,1.89,18,18,0,0,0,8.36,2.61c2.91.33,5.66.64,9.25,3.9a12.62,12.62,0,0,1,.89.9,9,9,0,0,0,2.41-1,19.25,19.25,0,0,1,6.72-2.63v-.43a11.31,11.31,0,0,1,.35-3.77c1.38-4.26,5.16-5.77,8-5,1.14.3,1.56,1.08,1.47,1.72s-.8,1.37-2.16,1.37h-.13c-2.51,0-4.07,1.75-4.39,4.94,0,.35,0,.67-.05,1a13.26,13.26,0,0,1,5.37,1.41,18.8,18.8,0,0,0,8.94,2c3.06.09,6,.18,10,3.25,4.83,3.7,7.63,11.43,7.31,19.09a20.44,20.44,0,0,1,3.92,1.57c1.59.89,2.2,2.46,2.85,4.12a9.66,9.66,0,0,0,3.48,5.09,6.77,6.77,0,0,1,3,5.72A6.63,6.63,0,0,1,182.17,64.58Z"/></svg>