<svg id="圖層_1" data-name="圖層 1" xmlns="http://www.w3.org/2000/svg" viewBox="0 0 147.72 140.26"><defs><style>.cls-1{fill:#fff;}</style></defs><title>0</title><path class="cls-1" d="M147.49,15.7a7.36,7.36,0,0,0-4.65-4.83,6.44,6.44,0,0,0-2.54-.51c-3.33,0-6.64,2.35-9.84,4.62-2.41,1.72-4.9,3.48-7,3.94-1.4.3-2.69.49-3.87.66a19.25,19.25,0,0,0-5.2,1.23,12.6,12.6,0,0,0-5.81-3.09c-3-.94-5.75-1.82-8-6.51C96.76,3.46,90.19,0,85.35,0a9.45,9.45,0,0,0-3.28.56c-4.77,1.77-6.79,5.69-6.19,12,.46,4.66.33,10.65-1.39,13.5-2.73,4.56-.58,11.81,3,14.33s5,5.54,4.65,9.65c-.22,2.49-.4,8.65,2.79,12.13a7.45,7.45,0,0,0,5.65,2.39A13.17,13.17,0,0,0,97,63a1.41,1.41,0,0,0,1.08,1.38l2.2,1.25a1.43,1.43,0,0,0,1.09.51,1.67,1.67,0,0,0,.44-.06l.23-.08a1.43,1.43,0,0,0,.93-1.75,4.25,4.25,0,0,1,1.35-4c.28-.27.42-.27.51-.27a6.83,6.83,0,0,1,2.25,1,17.35,17.35,0,0,0,8.75,2.55h.2c4.48,0,6.92-2.37,9.29-4.61,2-1.88,3.85-3.66,7.06-4.14,8.06-1.22,10.35-7.86,9.8-13.67l-.08-.82c-.42-4.28-1-10.15,2.19-14.38C146.29,23.16,148.45,19.28,147.49,15.7ZM140.7,40.3l.08.81c.24,2.51.32,10.79-8.61,12.14-3.64.55-5.76,2.57-7.82,4.52C122.09,59.91,120,61.94,116,62h-.19a16,16,0,0,1-8.08-2.37c-1.89-1-3.14-1.7-4.42-.45a5.63,5.63,0,0,0-1.72,5.44l-.12,0h0l-.12,0,0-.13L98.55,63h-.12a12.89,12.89,0,0,1,.63-3.19,12.18,12.18,0,0,1-8.44,3.32A6,6,0,0,1,86,61.17c-2.81-3.06-2.64-8.74-2.43-11,.41-4.61-1.31-8.19-5.25-10.94C75.23,37,73.4,30.6,75.71,26.75s1.82-12,1.59-14.36c-.55-5.63,1.12-9,5.26-10.5C87.39.1,95.15,3.38,99.25,11.83c2.55,5.24,5.77,6.25,8.88,7.24,2.11.67,4.1,1.3,5.67,3.22.09.11.15.22.23.32,1.54-1,3.39-1.29,5.74-1.63,1.17-.17,2.5-.36,4-.67,2.42-.52,5-2.38,7.55-4.17,3.74-2.66,7.6-5.4,11-4a6.07,6.07,0,0,1,3.83,3.9c.81,3-1.16,6.48-3,8.86C139.65,29.59,140.26,35.78,140.7,40.3Z"/><path class="cls-1" d="M62.83,95.92c-3.15-5.32-6-14-3.7-21a14.85,14.85,0,0,1,2.43-4.59h0a31.34,31.34,0,0,1,7.3-2.11C74,67.19,79.81,66,81.38,60.84a8.68,8.68,0,0,0-1-7.06c-2.35-4.11-7.68-7.51-11.49-8.42-1.28-.31-2.62-1.48-4.19-2.87-2.85-2.51-6.77-6-13.33-6H50a20.61,20.61,0,0,1-15.5-6.66c-3.23-3.41-7.42-5.46-11.24-5.48a10.2,10.2,0,0,0-7.55,3.24c-3.25,3.36-.77,7.69,1.62,11.87l1,1.79a11,11,0,0,1-3.63,6.27c-1.47,1.22-2.94,2.25-4.37,3.23-3,2.1-5.91,4.09-7.88,7.49a10.42,10.42,0,0,0-1.12,7.63,7.78,7.78,0,0,1-.05,3.87C.2,73-.79,77,1,80.1a7.39,7.39,0,0,0,5.16,3.46,16.3,16.3,0,0,0,3.63.38,36.88,36.88,0,0,0,5.46-.53A29.89,29.89,0,0,1,19.34,83a5.86,5.86,0,0,1,3.54,1l.31.21c2.88,2,5.38,3.73,8.45,3.73A10.41,10.41,0,0,0,37.32,86a10.83,10.83,0,0,0,4.39-6.27c.21,0,.42,0,.64,0s.6,0,.9,0a15.75,15.75,0,0,0,6.41-1.34c-.65,2.11-2,4.87-4.88,9a51.69,51.69,0,0,1-4.49,5.21,51,51,0,0,0-7.5,9.51c-.19-.18-.37-.34-.55-.49-6.6-5.55-8.26-9.08-10.18-13.17a1.44,1.44,0,0,0-1.29-.81,1.47,1.47,0,0,0-.54.1l-5,.89h0a1.43,1.43,0,0,0-1.37,1.46A36.47,36.47,0,0,1,6.38,111a14.6,14.6,0,0,0-.92,15.42c1.87,3.17,6,7,15.12,7a40.73,40.73,0,0,0,5.83-.45A28.23,28.23,0,0,0,33,131.2l.37.87c1.39,3.21,6.79,7.19,13.09,8a16.69,16.69,0,0,0,2.33.16c3.57,0,8.75-1.16,13.14-6.69a26.43,26.43,0,0,0,5.4-13.39,1.13,1.13,0,0,0,.11-.41l0-.25a1.23,1.23,0,0,0,0-.43C68.36,109.45,65.12,99.79,62.83,95.92Zm3.24,23.44,0,.25H66a25.24,25.24,0,0,1-5.15,13.09c-3.88,4.88-8.39,6.15-12,6.15a15.91,15.91,0,0,1-2.14-.14c-6.14-.82-10.9-4.7-12-7.19-.33-.75-.63-1.49-.91-2.21a24.61,24.61,0,0,1-7.57,2.19,39.27,39.27,0,0,1-5.63.43c-8.29,0-12.12-3.24-13.9-6.26a13.11,13.11,0,0,1,.83-13.84A37.7,37.7,0,0,0,15.26,90h.12l5.28-.94.11-.06c2,4.24,3.72,7.91,10.56,13.66a19.85,19.85,0,0,1,1.82,1.78c2.11-4.41,5.29-7.82,8.18-10.92a52.53,52.53,0,0,0,4.6-5.36c4.38-6.18,5.42-9.59,5.7-12.46a14.89,14.89,0,0,1-8.38,2.6l-.83,0A8,8,0,0,1,40.64,78a10,10,0,0,1-4.09,6.73,9,9,0,0,1-4.91,1.7C29,86.46,26.75,84.88,24,83l-.3-.2c-2.45-1.7-5.35-1.26-8.7-.76a23,23,0,0,1-8.57.17A6,6,0,0,1,2.19,79.4c-1.48-2.59-.55-6.26.41-9.16a9,9,0,0,0,.11-4.52A9,9,0,0,1,3.65,59c1.82-3.13,4.56-5,7.47-7,1.45-1,3-2,4.47-3.31a12.5,12.5,0,0,0,4.2-7.59c-.41-.77-.84-1.53-1.26-2.26-2.33-4.07-4.34-7.59-1.83-10.18a8.77,8.77,0,0,1,6.55-2.81c3.41,0,7.22,1.9,10.19,5A22.07,22.07,0,0,0,50.83,38c6.41-.21,10.06,3,13,5.62,1.69,1.48,3.14,2.76,4.77,3.16,3.44.82,8.46,4,10.59,7.74A7.31,7.31,0,0,1,80,60.42c-1.33,4.34-6.47,5.41-11.44,6.45A32.35,32.35,0,0,0,61,69.09l-.32.18a15.82,15.82,0,0,0-2.84,5.24c-2.46,7.41.52,16.55,3.82,22.13,2.13,3.61,5.41,13.16,4.4,22.72Z"/><path class="cls-1" d="M100.56,69.24l0-.14a1.41,1.41,0,0,0-1.4-1.66H94.31a1.42,1.42,0,0,0-1.41,1.25v.1a13.43,13.43,0,0,1-1.38,4,17.5,17.5,0,0,1-7.39,7.31c-7.37,4-13.45,11.47-15.5,19.13A22.15,22.15,0,0,0,71.27,117c3.14,5.06,7.71,7.85,12.89,7.85a15.12,15.12,0,0,0,3-.32c7.78-1.62,14.11-9,15.41-17.84,1.18-8.1,0-14.26-1.11-20.22C100.46,80.92,99.46,75.66,100.56,69.24Zm.65,37.25c-1.21,8.31-7.09,15.16-14.29,16.66a13.85,13.85,0,0,1-2.76.29c-4.64,0-8.8-2.52-11.69-7.17A20.8,20.8,0,0,1,70,99.58c2-7.3,7.76-14.46,14.8-18.25a18.89,18.89,0,0,0,8-7.91A15.1,15.1,0,0,0,94.3,69v-.11h4.88l0,.15c-1.15,6.67-.13,12.06,1,17.75C101.22,92.59,102.36,98.63,101.21,106.49Z"/><path class="cls-1" d="M126.36,85.49c-10.6-6.29-16.14-22-16.19-22.2a1.49,1.49,0,0,0-.72-.82,1.52,1.52,0,0,0-.63-.14,1.24,1.24,0,0,0-.46.08l-.23.08-.18.07-2.74,1.1a1.3,1.3,0,0,0-.52.21l-.21.14a1.43,1.43,0,0,0-.4,2s3.37,5.28,3.09,13.87c0,1.68-.34,3.85-.66,6.36-1.46,11.3-3.66,28.38,10,35.92a22.09,22.09,0,0,0,10.55,3.13,12.73,12.73,0,0,0,6.48-1.68c5.29-3.06,7.76-9.71,7.86-14.95C141.59,98.64,137.23,91.94,126.36,85.49Zm6.47,36.85a11.3,11.3,0,0,1-5.77,1.49,20.74,20.74,0,0,1-9.87-3c-12.82-7.08-10.68-23.58-9.27-34.5.33-2.55.61-4.75.67-6.49.29-9.16-3.29-14.65-3.32-14.7l.2-.14,0,0,3.1-1.24h0l.11,0h0l.11,0c.06.16,5.74,16.38,16.81,23C136,92.86,140.16,99.2,140,108.6,139.89,113.44,137.64,119.56,132.83,122.34Z"/></svg>