<svg id="圖層_1" data-name="圖層 1" xmlns="http://www.w3.org/2000/svg" viewBox="0 0 101.72 87.76"><defs><style>.cls-1{fill:#fff;}</style></defs><title>0</title><path class="cls-1" d="M29.81,55.66a36.2,36.2,0,0,0-.88-9.37c-.66-2.41-1.85-3.93-3.56-4.52a4.69,4.69,0,0,0-.67-.17,8.79,8.79,0,0,0-6-3h-.25A7.28,7.28,0,0,0,14.16,40H14a15.94,15.94,0,0,0-2.53.2C0,42,0,54.62,0,65.79v1C0,72.16,0,77.24,1.35,81c1.51,4.23,4.56,6.42,9.31,6.69a1.14,1.14,0,0,0,.26,0h.19l.56,0a13.63,13.63,0,0,0,5.19-1.05,8,8,0,0,0,1.47.13c2.84,0,6-1.49,8.56-4.09,3.16-3.17,6-8.63,4.32-14.43A46,46,0,0,1,29.81,55.66ZM25.89,81.75a11.26,11.26,0,0,1-7.56,3.68,6,6,0,0,1-1.6-.21,12.28,12.28,0,0,1-5.06,1.12c-.26,0-.48,0-.73,0h0l0,0c-4.24-.19-6.88-2-8.22-5.76C1.41,77,1.41,72,1.42,66.77v-1c0-11.12,0-22.62,10.23-24.16a15.21,15.21,0,0,1,3-.17,5.9,5.9,0,0,1,4-1.47c1.85.06,3.65,1.06,5.35,3a3,3,0,0,1,.88.16c1.24.43,2.14,1.62,2.66,3.55a34.88,34.88,0,0,1,.83,9,47.54,47.54,0,0,0,1.45,13C31.31,73.92,28.76,78.86,25.89,81.75Z"/><path class="cls-1" d="M101.24,29.75a46.46,46.46,0,0,1-1.4-12.66A36.16,36.16,0,0,0,99,7.72c-.65-2.41-1.85-3.93-3.56-4.52A4.37,4.37,0,0,0,94.73,3a8.79,8.79,0,0,0-6-3H88.5a7.31,7.31,0,0,0-4.31,1.46H84a16,16,0,0,0-2.54.2C70,3.38,70,16.05,70,27.22v1c0,5.37,0,10.45,1.35,14.23,1.51,4.23,4.56,6.42,9.3,6.69l.27,0h.19l.56,0a13.68,13.68,0,0,0,5.2-1,7.77,7.77,0,0,0,1.46.14c2.84,0,6-1.5,8.56-4.1C100.08,41,102.87,35.55,101.24,29.75ZM95.92,43.18a11.26,11.26,0,0,1-7.56,3.68,6,6,0,0,1-1.6-.21,12.24,12.24,0,0,1-5.06,1.12c-.25,0-.48,0-.72,0l0,0s0,0,0,0c-4.25-.2-6.89-2-8.23-5.77-1.27-3.54-1.26-8.51-1.26-13.77v-1c0-11.12,0-22.62,10.23-24.16a15.21,15.21,0,0,1,3-.17,5.9,5.9,0,0,1,4-1.47,7.7,7.7,0,0,1,5.35,3,3,3,0,0,1,.88.16c1.25.43,2.14,1.62,2.67,3.55a35.78,35.78,0,0,1,.83,9,46.77,46.77,0,0,0,1.45,13C101.34,35.35,98.79,40.29,95.92,43.18Z"/><path class="cls-1" d="M65.71,36a36.28,36.28,0,0,0-.89-9.38c-.65-2.4-1.85-3.92-3.56-4.51a3.55,3.55,0,0,0-.66-.17,8.79,8.79,0,0,0-6-3h-.25a7.28,7.28,0,0,0-4.31,1.46h-.18a17.19,17.19,0,0,0-2.54.19C35.9,22.28,35.9,34.94,35.9,46.12v1c0,5.38,0,10.46,1.34,14.24,1.52,4.22,4.56,6.41,9.3,6.69a1.24,1.24,0,0,0,.27,0H47l.55,0A13.51,13.51,0,0,0,52.76,67a7,7,0,0,0,1.46.14,12.58,12.58,0,0,0,8.56-4.1c3.16-3.17,6-8.62,4.32-14.42A46,46,0,0,1,65.71,36ZM61.78,62.07a11.21,11.21,0,0,1-7.56,3.69,6.05,6.05,0,0,1-1.6-.21,12.24,12.24,0,0,1-5.06,1.12c-.25,0-.48,0-.72,0h0l0,0c-4.25-.2-6.89-2-8.22-5.76-1.28-3.55-1.27-8.51-1.27-13.77v-1c0-11.12,0-22.62,10.24-24.16a15.11,15.11,0,0,1,3-.17,5.83,5.83,0,0,1,4-1.47c1.85.06,3.65,1.06,5.35,2.95a3.11,3.11,0,0,1,.89.17c1.24.43,2.13,1.62,2.66,3.55a35.74,35.74,0,0,1,.83,9,46.8,46.8,0,0,0,1.45,13C67.21,54.25,64.66,59.19,61.78,62.07Z"/></svg>