<svg id="圖層_1" data-name="圖層 1" xmlns="http://www.w3.org/2000/svg" viewBox="0 0 81.41 79.05"><defs><style>.cls-1{fill:#fff;}</style></defs><title>0</title><path class="cls-1" d="M30.81,38.67a4.32,4.32,0,0,1,1.65-.45h.38a7,7,0,0,1,1.6.2l.77.18a1.63,1.63,0,0,0,.31,0A1.41,1.41,0,0,0,36.25,36l-.68-.41a8.28,8.28,0,0,0-2.94-1.09,7.47,7.47,0,0,0-1.26-.11,7.6,7.6,0,0,0-2.07.28,9.38,9.38,0,0,0-2.93,1.39,13.19,13.19,0,0,0-1.27,1c0-.15,0-3.86,0-5.52.09-1.44.2-2.73.35-3.95a32.59,32.59,0,0,1,.78-4.38,14.2,14.2,0,0,1,1.41-3.71c.14-.22.29-.44.47-.67a4,4,0,0,1,.47-.51,2.3,2.3,0,0,1,1-.52,2.21,2.21,0,0,1,.57-.06,4.26,4.26,0,0,1,.73.05,3.9,3.9,0,0,1,1.36.49,7.24,7.24,0,0,1,2.39,2.61,20.63,20.63,0,0,1,1.79,4l.2.62a1.42,1.42,0,0,0,1.35,1h.18A1.42,1.42,0,0,0,39.4,25.2l0-.65a9.51,9.51,0,0,0,0-1.41,10.29,10.29,0,0,0-.15-1.36,15,15,0,0,0-.67-2.73,12.45,12.45,0,0,0-1.32-2.66,11.6,11.6,0,0,0-1-1.28A10.86,10.86,0,0,0,35.06,14a8.45,8.45,0,0,0-3.13-1.42,8.3,8.3,0,0,0-1.67-.22h-.35a8.06,8.06,0,0,0-1.45.13,7.86,7.86,0,0,0-3.37,1.56l-.15.13q-.11-1.5-.24-3c-.18-1.68-.39-3.5-.76-5.34l-.12-.61a1.42,1.42,0,0,0-1.39-1.13A1.41,1.41,0,0,0,21,5.28l-.13.61c-.36,1.83-.58,3.65-.75,5.35-.05.47-.09.95-.13,1.44-.21-.28-.43-.55-.65-.81A14.65,14.65,0,0,0,16.5,9.31c-.19-.13-.4-.25-.6-.37l-.31-.18-.23-.12c-.22-.12-.44-.23-.64-.32a14.19,14.19,0,0,0-1.91-.66,10.59,10.59,0,0,0-2.4-.29,7.3,7.3,0,0,0-1.64.17l-.72.16a1.42,1.42,0,0,0,.14,2.79l.74.09a8.5,8.5,0,0,1,4.72,2.28A12.3,12.3,0,0,1,15,14.39a8.38,8.38,0,0,0-2-.26,10.81,10.81,0,0,0-3.88.69,10.62,10.62,0,0,0-3.33,2,13.48,13.48,0,0,0-2.36,2.78,18.17,18.17,0,0,0-1.58,3,24.15,24.15,0,0,0-1,3.11A28,28,0,0,0,.2,28.93a25.2,25.2,0,0,0-.27,3.22v1.06a1.41,1.41,0,0,0,1.23,1.42h.19a1.41,1.41,0,0,0,1.37-1.07l.26-1A39.48,39.48,0,0,1,4.76,27.1a20.69,20.69,0,0,1,2.62-4.68,7.67,7.67,0,0,1,3.53-2.71,6,6,0,0,1,1.8-.27h.18a2.72,2.72,0,0,1,1.43.5,5.36,5.36,0,0,1,1.36,1.43c.1.13.19.27.28.41l-.52,0a11.39,11.39,0,0,0-3.72.62,10.24,10.24,0,0,0-3.3,2,11,11,0,0,0-2.23,2.84,13.29,13.29,0,0,0-1.27,3.18,13,13,0,0,0-.41,3.32v.63A1.41,1.41,0,0,0,5.7,35.67a1,1,0,0,0,.24,0,1.41,1.41,0,0,0,1.32-.9l.23-.59A20.36,20.36,0,0,1,8.6,31.79,13.39,13.39,0,0,1,10,29.73a8.49,8.49,0,0,1,1.57-1.5,6.27,6.27,0,0,1,1.79-.86,6.29,6.29,0,0,1,1.59-.21h.38a2.32,2.32,0,0,1,1.24.43,6.59,6.59,0,0,1,2,3.32,22.47,22.47,0,0,1,1,5c.08.84.14,1.73.16,2.66,0,.18,0,4.95,0,4.95,0,3,0,6.6,0,8.33a2.6,2.6,0,0,0,2.59,2.56A2.57,2.57,0,0,0,25,51.92c0-1,.07-2.2.08-2.71,0-.05,0-.11,0-.17a12.63,12.63,0,0,1,.39-1.88c.21-.74.44-1.44.69-2.08a18.23,18.23,0,0,1,1.92-3.83,9.8,9.8,0,0,1,1.26-1.53A6,6,0,0,1,30.81,38.67Zm-3.89,1.77a20.24,20.24,0,0,0-2.08,4.14c-.26.67-.51,1.42-.73,2.2a16.32,16.32,0,0,0-.44,2.14s-.05,1.62-.09,3A1.16,1.16,0,0,1,22.42,53a1.18,1.18,0,0,1-1.17-1.16c0-1.77,0-5.52-.06-8.59,0-2.43,0-4.53,0-4.7,0-1-.08-1.9-.17-2.77a24.11,24.11,0,0,0-1.08-5.33,7.79,7.79,0,0,0-2.57-4,3.65,3.65,0,0,0-2-.67,7.23,7.23,0,0,0-2.42.25,7.44,7.44,0,0,0-2.2,1.06,9.16,9.16,0,0,0-1.87,1.77,14,14,0,0,0-1.51,2.27,19.63,19.63,0,0,0-1.19,2.58l-.23.59v-.63A11.42,11.42,0,0,1,6.3,30.7a12.1,12.1,0,0,1,1.12-2.83,9.71,9.71,0,0,1,2-2.49,8.88,8.88,0,0,1,2.82-1.67,10,10,0,0,1,3.24-.53,6.26,6.26,0,0,1,3.13.88c-.14-.38-.29-.75-.44-1.11a13.63,13.63,0,0,0-1.28-2.39,6.89,6.89,0,0,0-1.73-1.79A4.09,4.09,0,0,0,13,18a7.21,7.21,0,0,0-2.5.34,9.09,9.09,0,0,0-4.2,3.17,22.63,22.63,0,0,0-2.81,5A42.42,42.42,0,0,0,1.59,32.2l-.26,1,0-1.06a23.82,23.82,0,0,1,.25-3,27.92,27.92,0,0,1,.62-3,22.9,22.9,0,0,1,1-2.93,16.91,16.91,0,0,1,1.46-2.8,12.11,12.11,0,0,1,2.11-2.49,9.54,9.54,0,0,1,2.89-1.77,9.84,9.84,0,0,1,3.38-.6,6.73,6.73,0,0,1,1.82.28,7.05,7.05,0,0,1,1.68.77,8.69,8.69,0,0,1,2.25,2.11c-.23-.66-.47-1.29-.74-1.87a15.71,15.71,0,0,0-1.47-2.68,13.49,13.49,0,0,0-1.95-2.32A9.88,9.88,0,0,0,9.09,9.17l-.73-.09.72-.16A7.84,7.84,0,0,1,12.49,9a11,11,0,0,1,1.65.58,5.59,5.59,0,0,1,.6.3l.19.09.26.16a3.76,3.76,0,0,1,.5.31,13.38,13.38,0,0,1,2.63,2.33,17.19,17.19,0,0,1,2,2.89c.3.54.58,1.13.87,1.78,0-.3,0-.6,0-.9.07-1.77.19-3.52.36-5.2S22,8,22.3,6.17l.13-.61.12.61c.36,1.78.57,3.56.74,5.21s.28,3.44.36,5.2c0,.47,0,.94.05,1.42.13-.23.25-.47.39-.69A8.61,8.61,0,0,1,26,15.18a6.29,6.29,0,0,1,2.74-1.27,6.54,6.54,0,0,1,1.49-.11,7.26,7.26,0,0,1,1.42.19,7,7,0,0,1,2.6,1.19,7.66,7.66,0,0,1,1,.92,9.91,9.91,0,0,1,.85,1.08,10.42,10.42,0,0,1,1.16,2.34A13.76,13.76,0,0,1,37.88,22c.07.42.11.83.14,1.24a10.47,10.47,0,0,1,0,1.25l0,.65-.21-.62a21.56,21.56,0,0,0-1.91-4.33A8.57,8.57,0,0,0,33,17.06a5.28,5.28,0,0,0-1.83-.66,6,6,0,0,0-1-.07h0a3.44,3.44,0,0,0-.9.1,3.78,3.78,0,0,0-1.57.82A5.44,5.44,0,0,0,27,18a9.22,9.22,0,0,0-.58.83,15.2,15.2,0,0,0-1.57,4.09,33.58,33.58,0,0,0-.82,4.56c-.16,1.28-.27,2.63-.35,4,0,1.73,0,3.58,0,5.15,0,1.86,0,3.21,0,3.4v1a14.33,14.33,0,0,1,1.49-2,11.06,11.06,0,0,1,2-1.82A7.81,7.81,0,0,1,29.67,36a6.32,6.32,0,0,1,2.73-.15,7,7,0,0,1,2.44.92l.68.41L34.75,37a7.88,7.88,0,0,0-2.39-.22,5.76,5.76,0,0,0-2.18.59,7.34,7.34,0,0,0-1.8,1.3A10.89,10.89,0,0,0,26.92,40.44Z"/><path class="cls-1" d="M81.42,17.92a10.61,10.61,0,0,0-.14-1.29,13.38,13.38,0,0,0-.64-2.57,11.07,11.07,0,0,0-1.24-2.51,9.68,9.68,0,0,0-1-1.21,9,9,0,0,0-1.16-1,7.91,7.91,0,0,0-3-1.35,8.34,8.34,0,0,0-1.59-.21h-.35A7.09,7.09,0,0,0,71,7.87a7.38,7.38,0,0,0-3.19,1.48c-.06-.88-.14-1.75-.22-2.59a50.25,50.25,0,0,0-.71-5l-.12-.61A1.43,1.43,0,0,0,65.4,0h0A1.41,1.41,0,0,0,64,1.14l-.12.61c-.35,1.74-.55,3.44-.72,5,0,.36-.06.72-.1,1.09l-.45-.56A13.69,13.69,0,0,0,59.9,4.89c-.18-.13-.37-.24-.61-.38l-.16-.1-.27-.14L58.22,4a12.76,12.76,0,0,0-1.81-.62,10,10,0,0,0-2.27-.28,7.08,7.08,0,0,0-1.55.17l-.72.16a1.41,1.41,0,0,0-1.11,1.45A1.43,1.43,0,0,0,52,6.17l.73.08a7.83,7.83,0,0,1,4.36,2.11,12.3,12.3,0,0,1,1.1,1.2,8.25,8.25,0,0,0-1.6-.18,10.3,10.3,0,0,0-3.67.65A10.46,10.46,0,0,0,49.79,12a13.12,13.12,0,0,0-2.23,2.63,17.12,17.12,0,0,0-1.48,2.85,21.9,21.9,0,0,0-1,2.93,25.53,25.53,0,0,0-.61,3,21.88,21.88,0,0,0-.26,3v1.06a1.41,1.41,0,0,0,1.24,1.42h.18A1.42,1.42,0,0,0,47,27.78l.26-1A36.42,36.42,0,0,1,49,21.67a19.6,19.6,0,0,1,2.43-4.37,7.17,7.17,0,0,1,3.27-2.5,5.17,5.17,0,0,1,1.61-.25h.21a2.38,2.38,0,0,1,1.28.44A5,5,0,0,1,59,16.32l.14.22h-.29a10.74,10.74,0,0,0-3.52.58A9.69,9.69,0,0,0,52.22,19a10.62,10.62,0,0,0-2.12,2.68,12.85,12.85,0,0,0-1.19,3,12.21,12.21,0,0,0-.39,3.13l0,.63a1.39,1.39,0,0,0,1.11,1.35l-.1.5c-.37,1.85-.58,3.67-.76,5.37,0,.48-.09,1-.13,1.46-.22-.28-.44-.55-.67-.82a14.17,14.17,0,0,0-2.89-2.57,6.08,6.08,0,0,0-.59-.37l-.23-.14L44,33.06a7.61,7.61,0,0,0-.7-.35,13.73,13.73,0,0,0-1.91-.66,10.8,10.8,0,0,0-2.42-.3,7.3,7.3,0,0,0-1.64.18l-.72.16a1.42,1.42,0,0,0,.14,2.79l.74.08a8.62,8.62,0,0,1,4.75,2.3,12,12,0,0,1,1.39,1.56,8.13,8.13,0,0,0-2-.27,10.92,10.92,0,0,0-3.9.69,11.08,11.08,0,0,0-3.34,2A13.8,13.8,0,0,0,32,44.07a18.41,18.41,0,0,0-1.59,3,25,25,0,0,0-1.05,3.13,27.07,27.07,0,0,0-.65,3.18,24.91,24.91,0,0,0-.27,3.23v1.06a1.41,1.41,0,0,0,1.24,1.42h.18a1.42,1.42,0,0,0,1.37-1.07l.26-1a40.23,40.23,0,0,1,1.8-5.47,20.73,20.73,0,0,1,2.63-4.71,7.76,7.76,0,0,1,3.56-2.72,5.75,5.75,0,0,1,1.82-.27h.18a2.65,2.65,0,0,1,1.43.49,5.67,5.67,0,0,1,1.38,1.45l.28.43a4.89,4.89,0,0,0-.54,0,11.19,11.19,0,0,0-3.73.62,10.28,10.28,0,0,0-3.31,2,11.27,11.27,0,0,0-2.25,2.85,13.44,13.44,0,0,0-1.27,3.2,12.7,12.7,0,0,0-.42,3.34l0,.62a1.42,1.42,0,0,0,1.17,1.37l.25,0a1.42,1.42,0,0,0,1.32-.91l.22-.58a20,20,0,0,1,1.12-2.43,13.05,13.05,0,0,1,1.38-2.07,8,8,0,0,1,1.58-1.51,6.2,6.2,0,0,1,1.8-.86,6,6,0,0,1,1.6-.21h.38a2.27,2.27,0,0,1,1.25.43,6.58,6.58,0,0,1,2.05,3.34,23.5,23.5,0,0,1,1,5c.09.85.14,1.75.17,2.68,0,.17,0,5.73,0,5.73,0,2.85,0,6,0,7.62a2.59,2.59,0,0,0,5.17,0c0-1,.07-2.16.09-2.69v-.21a12.48,12.48,0,0,1,.4-1.88c.21-.75.44-1.46.69-2.1a18.42,18.42,0,0,1,1.93-3.85A10.32,10.32,0,0,1,58,64.26a6,6,0,0,1,1.47-1.05,4.38,4.38,0,0,1,1.66-.46h.37a7.68,7.68,0,0,1,1.62.2l.77.18a1.65,1.65,0,0,0,.32,0,1.45,1.45,0,0,0,1.31-.89A1.42,1.42,0,0,0,65,60.52l-.67-.4a8.44,8.44,0,0,0-3-1.11,7.59,7.59,0,0,0-1.27-.1,7.67,7.67,0,0,0-2.08.28A9.43,9.43,0,0,0,55,60.58a13.77,13.77,0,0,0-1.3,1s0-3.92,0-5.56c.08-1.46.2-2.76.34-4a34.8,34.8,0,0,1,.79-4.4A14.21,14.21,0,0,1,56.32,44c.14-.22.29-.44.47-.68a4.82,4.82,0,0,1,.48-.51,2.37,2.37,0,0,1,1-.53,2.55,2.55,0,0,1,.64-.06,5.31,5.31,0,0,1,.68,0,4,4,0,0,1,1.37.5,6.32,6.32,0,0,1,1.91,1.9v.21A2.51,2.51,0,0,0,64.23,47a24.33,24.33,0,0,1,.93,2.39l.2.62a1.41,1.41,0,0,0,1.35,1h.18a1.42,1.42,0,0,0,1.23-1.32l0-.65a11.25,11.25,0,0,0,0-1.42A12.21,12.21,0,0,0,68,46.23c0-.28-.09-.57-.16-.87a2.63,2.63,0,0,0,.07-.49c0-.95.06-2,.07-2.52,0-.06,0-.12,0-.17a11.75,11.75,0,0,1,.36-1.74c.19-.68.41-1.33.64-1.94a17.47,17.47,0,0,1,1.79-3.57A9.73,9.73,0,0,1,72,33.52a5.49,5.49,0,0,1,1.34-1,4.19,4.19,0,0,1,1.52-.41h.34a6.91,6.91,0,0,1,1.47.18l.77.18a1.17,1.17,0,0,0,.32,0,1.42,1.42,0,0,0,.73-2.64l-.68-.4a7.67,7.67,0,0,0-2.78-1,6.86,6.86,0,0,0-1.2-.1,7.3,7.3,0,0,0-2,.26A8.92,8.92,0,0,0,69,29.93a11.2,11.2,0,0,0-1,.81c0-.06,0-4.94,0-4.94.08-1.36.19-2.56.32-3.69A33.94,33.94,0,0,1,69.07,18a12.9,12.9,0,0,1,1.31-3.44c.13-.21.27-.42.43-.63a3.94,3.94,0,0,1,.44-.46,2,2,0,0,1,.89-.47,1.78,1.78,0,0,1,.51,0,4.64,4.64,0,0,1,.67,0,3.7,3.7,0,0,1,1.24.45,6.72,6.72,0,0,1,2.2,2.41,18.39,18.39,0,0,1,1.66,3.77l.21.62a1.4,1.4,0,0,0,1.34,1h.19a1.42,1.42,0,0,0,1.23-1.32l0-.66A11.64,11.64,0,0,0,81.42,17.92ZM80,19.82l-.21-.63a20,20,0,0,0-1.79-4,8.08,8.08,0,0,0-2.72-2.92,4.86,4.86,0,0,0-1.71-.61,5.29,5.29,0,0,0-.9-.07h0a3.07,3.07,0,0,0-.84.1,3.35,3.35,0,0,0-1.47.76,6.38,6.38,0,0,0-.61.65c-.22.29-.39.54-.54.78a14,14,0,0,0-1.47,3.83,34.83,34.83,0,0,0-.77,4.27c-.14,1.2-.25,2.46-.32,3.78,0,1.62,0,3.36,0,4.83,0,1.74,0,3,0,3.17v.92a14.24,14.24,0,0,1,1.38-1.84,11.05,11.05,0,0,1,1.9-1.7A7.51,7.51,0,0,1,72.18,30a6,6,0,0,1,2.56-.14A6.61,6.61,0,0,1,77,30.7l.68.41-.77-.18a7.17,7.17,0,0,0-2.24-.2,5.39,5.39,0,0,0-2,.55A7.1,7.1,0,0,0,71,32.49a11.47,11.47,0,0,0-1.35,1.63,18.25,18.25,0,0,0-2,3.88A20.73,20.73,0,0,0,67,40.06a12.8,12.8,0,0,0-.42,2s0,1.52-.08,2.78a1,1,0,0,1-.12.45,10,10,0,0,1,.23,1.14c.07.42.11.84.14,1.25a10.5,10.5,0,0,1,0,1.25l0,.65L66.5,49a23.47,23.47,0,0,0-1.25-3.08,1.09,1.09,0,0,1-1-1.06c0-.19,0-.41,0-.64a8,8,0,0,0-2.62-2.69,5.21,5.21,0,0,0-1.84-.66,6.61,6.61,0,0,0-1-.08,4,4,0,0,0-.91.11,3.66,3.66,0,0,0-1.57.82,6.32,6.32,0,0,0-.66.7,9.25,9.25,0,0,0-.58.84,15.21,15.21,0,0,0-1.58,4.11,33.36,33.36,0,0,0-.82,4.58c-.16,1.29-.27,2.65-.36,4.06,0,1.76,0,3.63,0,5.22,0,1.85,0,3.19,0,3.38v1a14.69,14.69,0,0,1,1.5-2,11.92,11.92,0,0,1,2-1.83,8.27,8.27,0,0,1,2.51-1.2,6.52,6.52,0,0,1,2.74-.14,7.1,7.1,0,0,1,2.46.92l.68.41-.77-.18a8.37,8.37,0,0,0-2.41-.22,5.76,5.76,0,0,0-2.19.59A7.47,7.47,0,0,0,57,63.24,11.43,11.43,0,0,0,55.59,65a19.94,19.94,0,0,0-2.1,4.16c-.26.68-.51,1.42-.73,2.21a13.94,13.94,0,0,0-.44,2.15s-.06,1.63-.09,3a1.17,1.17,0,0,1-1.17,1.14,1.18,1.18,0,0,1-1.18-1.16c0-1.82,0-5.7-.05-8.81,0-2.45,0-4.39,0-4.55q0-1.47-.18-2.79A24.42,24.42,0,0,0,48.54,55,7.82,7.82,0,0,0,46,50.91a3.8,3.8,0,0,0-2-.68,7.3,7.3,0,0,0-2.44.26,7.55,7.55,0,0,0-2.22,1.06,9.22,9.22,0,0,0-1.87,1.78,14.8,14.8,0,0,0-1.52,2.28,21.88,21.88,0,0,0-1.2,2.59l-.22.59,0-.63a11.12,11.12,0,0,1,.38-3A11.69,11.69,0,0,1,36,52.35a9.88,9.88,0,0,1,2-2.49,8.85,8.85,0,0,1,2.84-1.69A10.06,10.06,0,0,1,44,47.64a6.48,6.48,0,0,1,3.15.89c-.14-.38-.29-.76-.44-1.12A13.05,13.05,0,0,0,45.46,45a6.81,6.81,0,0,0-1.74-1.8,4.11,4.11,0,0,0-2.17-.75,7.3,7.3,0,0,0-2.51.35A9.11,9.11,0,0,0,34.82,46,22.12,22.12,0,0,0,32,51a43.38,43.38,0,0,0-1.87,5.68l-.25,1v-1a23.82,23.82,0,0,1,.25-3,29.83,29.83,0,0,1,.62-3,23.78,23.78,0,0,1,1-3,16.66,16.66,0,0,1,1.47-2.81,12.23,12.23,0,0,1,2.12-2.51A9.23,9.23,0,0,1,41.63,40a6.74,6.74,0,0,1,1.83.27,7.27,7.27,0,0,1,1.68.77,8.9,8.9,0,0,1,2.28,2.13c-.24-.66-.48-1.29-.75-1.88a16.12,16.12,0,0,0-1.48-2.69,13.37,13.37,0,0,0-2-2.34,9.92,9.92,0,0,0-5.56-2.67l-.73-.09.72-.16a7.78,7.78,0,0,1,3.43.12,11.16,11.16,0,0,1,1.66.58c.21.09.41.2.61.3l.18.1.27.16c.16.09.33.19.49.3a13,13,0,0,1,2.64,2.35,17.34,17.34,0,0,1,2,2.9c.3.55.59,1.14.87,1.79,0-.3,0-.6,0-.9.07-1.78.2-3.54.36-5.23s.38-3.44.74-5.24l.13-.61.12.61c.36,1.8.57,3.58.74,5.24s.29,3.45.36,5.23l.06,1.43c.13-.24.25-.47.39-.69a8.57,8.57,0,0,1,1.89-2.15,6.46,6.46,0,0,1,2.75-1.28,6,6,0,0,1,1.5-.1,7.26,7.26,0,0,1,1.42.18,7.09,7.09,0,0,1,2.62,1.2,8.49,8.49,0,0,1,1,.93l.29.34c0-1.38,0-2.87,0-4.22,0-2.31,0-4.13,0-4.29,0-.9-.08-1.78-.16-2.59a22.66,22.66,0,0,0-1-5A7.25,7.25,0,0,0,60.63,21a3.34,3.34,0,0,0-1.85-.63,6.52,6.52,0,0,0-2.26.24,6.84,6.84,0,0,0-2.06,1,8.56,8.56,0,0,0-1.75,1.66,14.06,14.06,0,0,0-1.42,2.13,19.64,19.64,0,0,0-1.11,2.41l-.23.59v-.63A10.43,10.43,0,0,1,50.29,25a11.18,11.18,0,0,1,1.05-2.65A9.05,9.05,0,0,1,53.18,20a8.08,8.08,0,0,1,2.64-1.57,9.32,9.32,0,0,1,3-.5,5.89,5.89,0,0,1,2.91.82c-.13-.35-.26-.69-.4-1a12,12,0,0,0-1.2-2.24,6.36,6.36,0,0,0-1.62-1.68,3.83,3.83,0,0,0-2-.69,6.66,6.66,0,0,0-2.35.32,8.51,8.51,0,0,0-3.92,3,20.67,20.67,0,0,0-2.63,4.69,37.63,37.63,0,0,0-1.74,5.29l-.26,1V26.37a22.47,22.47,0,0,1,.24-2.84,24.06,24.06,0,0,1,.58-2.81A19.73,19.73,0,0,1,47.39,18a15.18,15.18,0,0,1,1.37-2.62,11.08,11.08,0,0,1,2-2.33,8.77,8.77,0,0,1,2.71-1.66,8.92,8.92,0,0,1,3.17-.56,5.94,5.94,0,0,1,1.71.26,6.16,6.16,0,0,1,1.57.72A8,8,0,0,1,62,13.72c-.21-.6-.43-1.17-.68-1.71a15.07,15.07,0,0,0-1.37-2.5,12.7,12.7,0,0,0-1.83-2.17,9.23,9.23,0,0,0-5.18-2.5l-.73-.08.72-.16a7.18,7.18,0,0,1,3.2.11,11.28,11.28,0,0,1,1.55.54c.19.08.37.18.55.27l.18.1.25.15.46.28a12.46,12.46,0,0,1,2.47,2.19,16.78,16.78,0,0,1,1.85,2.7c.28.5.54,1.05.81,1.65,0-.27,0-.55,0-.81.07-1.66.18-3.3.34-4.87A47.27,47.27,0,0,1,65.28,2l.12-.61.12.61c.34,1.67.53,3.33.69,4.88s.27,3.2.34,4.87c0,.43,0,.86,0,1.3.12-.21.23-.42.35-.62a8,8,0,0,1,1.77-2,5.82,5.82,0,0,1,2.56-1.19,5.74,5.74,0,0,1,1.4-.1A6.46,6.46,0,0,1,74,9.34a6.59,6.59,0,0,1,2.44,1.12,7.32,7.32,0,0,1,1,.87,8,8,0,0,1,.79,1,10.25,10.25,0,0,1,1.09,2.2,12.62,12.62,0,0,1,.57,2.3c.06.38.1.77.13,1.16a9.13,9.13,0,0,1,0,1.17ZM51.41,28.56l.09-.25a16.28,16.28,0,0,1,1-2.24,12.29,12.29,0,0,1,1.27-1.92,7.21,7.21,0,0,1,1.45-1.38A5.45,5.45,0,0,1,56.91,22a5.27,5.27,0,0,1,1.44-.2h.37a2,2,0,0,1,1.11.39,5.76,5.76,0,0,1,1.86,3.05,20.59,20.59,0,0,1,.94,4.68c.08.79.14,1.62.16,2.49,0,.17,0,5.46,0,5.46a8.4,8.4,0,0,0-2.2-.84,9.08,9.08,0,0,0-1.68-.22h-.36a7.21,7.21,0,0,0-1.45.14,7.78,7.78,0,0,0-3.38,1.56l-.17.14c-.06-1-.15-2-.24-3-.18-1.69-.39-3.51-.76-5.36l-.12-.61A1.42,1.42,0,0,0,51.41,28.56Z"/></svg>