<svg id="圖層_1" data-name="圖層 1" xmlns="http://www.w3.org/2000/svg" viewBox="0 0 125.44 118.51"><defs><style>.cls-1{fill:#fff;}</style></defs><title>0</title><path class="cls-1" d="M124.59,48.26c-1.52-2-4.57-2.35-7.27-2.66a19.17,19.17,0,0,1-2.76-.45,11.65,11.65,0,0,1,1.36-1.06c1.68-1.17,4.5-3.14,2.83-6.55-1.26-2.53-5.11-3.77-11.77-3.77-1.14,0-2.18,0-3,.09l-1-14.94a1.43,1.43,0,0,0-1.42-1.32l-.34,0a1.42,1.42,0,0,0-1,.48,1.38,1.38,0,0,0-.35,1l.81,12.32a13.58,13.58,0,0,0-2.67-1.37,16.23,16.23,0,0,0-5.6-1,13.3,13.3,0,0,0-1.43.07c-2.68.29-4.5,1.46-5,3.26-.62,2.74,1.1,4.13,2.13,5,.58.48.82.7.79.89-.06.46-.13.56-1,1.33a22.25,22.25,0,0,0-1.59,1.61,12.53,12.53,0,0,0-2.1-.16h-.88c-2.34,0-2.74-.51-2.75-.52s-.15-.3.5-1.73,1.63-3.9.26-5.73a4.65,4.65,0,0,0-4-1.55,12.54,12.54,0,0,0-1.55.1,15.61,15.61,0,0,0-8.52,4l-.61-.25a10.41,10.41,0,0,0-5.4-4.64,57,57,0,0,0-3.34-7.42L53.69,6.62A1.42,1.42,0,0,0,53,5.75a1.38,1.38,0,0,0-.71-.19,1.18,1.18,0,0,0-.37.05l-.24.06a1.43,1.43,0,0,0-1,1.73l3.41,13c-2.64-1.41-6.29-3-9.08-3a5.67,5.67,0,0,0-1.53.19,3.8,3.8,0,0,0-2.5,2c-1.22,2.38,1.19,4.12,2.78,5.28a13.68,13.68,0,0,1,1.34,1,7.21,7.21,0,0,1-1.7.14l-1.48,0-.88,0a5.12,5.12,0,0,0-.52-.27,6.41,6.41,0,0,0-4.28-4.82c-.28-1.71-1.48-4.51-6.12-5.78l-2.28-3.81-.3-9.88a1.44,1.44,0,0,0-.44-1,1.46,1.46,0,0,0-1-.38h-.3a1.42,1.42,0,0,0-1.37,1.46l.16,5.47C21.58,3.82,18.25,2,15.45,2a5.41,5.41,0,0,0-1.37.17,3.81,3.81,0,0,0-2.94,3.09A5.41,5.41,0,0,0,12.84,10l.34.4c-.62.44-2.56.47-4,.5-3,.06-7.42.14-7.39,4-.08,3.48,3.48,3.92,5.84,4.2.93.12,2.86.35,3,.78.17.61-.88,1.9-1.64,2.84-1.47,1.78-3.67,4.49-1.46,7.17a3.75,3.75,0,0,0,2.94,1.44c1.74,0,3.42-1.12,5.05-2.21a9,9,0,0,1,3-1.59c.38,0,1,1.78,1.3,2.45a9,9,0,0,0,1.94,3.48,9.12,9.12,0,0,0-1.26.88l-.26.23c-2.85-1.06-7.33-2.49-10.85-2.49-2.84,0-4.73.91-5.63,2.71a4,4,0,0,0-.3,3.37C4.18,40,6.16,40.69,7.91,41.3A12.48,12.48,0,0,1,9.66,42c-.5.79-2.19,1.33-3.83,1.84-3,.95-7.48,2.37-6.22,7.27.42,1.66,1.68,3.64,5.3,3.64a25.76,25.76,0,0,0,4.91-.68L10,54c-1.26,2.53-2.36,6.76-.66,12.81C8.72,68.49,7.27,73.35,10.89,77a5.72,5.72,0,0,0,4.35,5.45,4.66,4.66,0,0,0,1.06.12c1.06,0,3.6-.39,5.11-3.8a4.61,4.61,0,0,0,1.49-1,7.34,7.34,0,0,0,1.88-5.16A6.25,6.25,0,0,0,26.34,71h.21l1.38,46.11a1.42,1.42,0,0,0,1.42,1.37h.29A1.42,1.42,0,0,0,31,117.05l-1.43-48a14.62,14.62,0,0,0,1.17-2.59c.17-.45.4-1.07.6-1.47a18.1,18.1,0,0,1,1.24,2.57c.93,2.19,1.89,4.45,3.71,5.23a4.57,4.57,0,0,0,.18,3.42,4.64,4.64,0,0,0,2.58,2.65,4.17,4.17,0,0,0,1.43.24,9.76,9.76,0,0,0,4.14-1.3l.61-.29c-.09.37-.21.79-.31,1.12-.61,2.17-1.38,4.88-.14,6.91a4.58,4.58,0,0,0,3.19,2,5.82,5.82,0,0,0,1.08.11,4.11,4.11,0,0,0,2.51-.8,4.6,4.6,0,0,0,1.17-1.28,6.09,6.09,0,0,0,3.67,2A5.28,5.28,0,0,0,60,89.3h.16A4.67,4.67,0,0,0,63.84,87a8.71,8.71,0,0,0,2.57-9.34,9.68,9.68,0,0,0,1.69-4L78,111.22a1.47,1.47,0,0,0,.71.86,1.44,1.44,0,0,0,.71.18,1.84,1.84,0,0,0,.41-.05l.18-.06a1.4,1.4,0,0,0,1-1.72L71.48,74.37l.28.08c.81,1.86,3,5.89,7,6H79a4,4,0,0,0,3.14-1.37l.12-.14a4.84,4.84,0,0,0,.3.8,3.54,3.54,0,0,0,3.13,2,4.82,4.82,0,0,0-2.57,4.78c.23,2.6,1.82,3.91,4.75,3.91.45,0,.92,0,1.39,0s.88-.05,1.31-.05a2.91,2.91,0,0,1,2,.48c.47.42.41,1.1.18,2.53-.31,1.9-.83,5.09,3.23,6.47a6,6,0,0,0,2,.37,3.89,3.89,0,0,0,1.78-.41c1.66-.86,2.22-2.67,2.75-4.42a7,7,0,0,1,1.35-2.93.28.28,0,0,1,.22-.1,2.3,2.3,0,0,1,.79.24l.2,3.12a1.43,1.43,0,0,0,1.42,1.32,1.37,1.37,0,0,0,.88-.31l.24-.19,2.64-2.13.2-.06a3.69,3.69,0,0,0,1.87-1.59l.43-.67a1.4,1.4,0,0,0,.2-1c1-3.65-2.6-5.46-4.81-6.56l-.74-.38-.08-1.22a5.55,5.55,0,0,0,.72,0c1.8,0,3.1-1.08,3.89-3.22.67-1.83.55-4.73-3.83-8.12-.5-.38-1-.75-1.61-1.12l-.36-5.5a7.13,7.13,0,0,0-.12-1.79l0-.52a7.53,7.53,0,0,1,1-.61,15.66,15.66,0,0,1,2.63,2.21c2,2,4.37,4.16,6.87,4.16a4.08,4.08,0,0,0,2.94-1.27c2.91-2.85.7-6.31-.77-8.6a12.69,12.69,0,0,1-1.24-2.24h.26l.88,0c.4,0,.81,0,1.22,0h0c1.23,0,4.89,0,5.62-4.65A4.51,4.51,0,0,0,124.59,48.26ZM124,51.55c-.57,3.66-3.24,3.52-5.38,3.42-1.52-.08-2.47-.08-2.65.8s.61,2.23,1.49,3.6c1.43,2.23,3.06,4.77,1,6.82a2.67,2.67,0,0,1-2,.86c-1.93,0-4.08-2-5.9-3.77a15.59,15.59,0,0,0-3-2.44c-.83-.42-1.94.26-3.14,1.19l.09,1.38a5.54,5.54,0,0,1,.11,1.62l.42,6.3a21.94,21.94,0,0,1,2.1,1.44c2.94,2.26,4.1,4.51,3.37,6.51-1,2.66-2.45,2.38-3.75,2.13a6.23,6.23,0,0,0-1.06-.13L106,85c.44.26.94.51,1.47.77,2.35,1.18,5,2.51,3.94,5.33a4,4,0,0,1-.25.51l.35-.29-.42.67a2.27,2.27,0,0,1-1.15,1l-.08,0h0l-.28.08c-1,.77-1.89,1.55-2.85,2.31l-.24.19-.26-3.91c-1.22-.67-2.37-1.16-3.32-.31A7.93,7.93,0,0,0,101.09,95c-.46,1.53-.91,3-2,3.56a2.41,2.41,0,0,1-1.13.26,4.75,4.75,0,0,1-1.5-.29c-2.93-1-2.6-3-2.29-4.9.23-1.45.46-2.82-.62-3.81s-2.73-.88-4.35-.79c-2.16.12-4.39.24-4.64-2.57s2.09-3.67,4.13-4.51c1.55-.64,3-1.24,3.3-2.5a5.6,5.6,0,0,1-.94-.7,15.17,15.17,0,0,0-1.44.57c-2,.83-4.67,2-5.75-.15a3.7,3.7,0,0,1,.31-3.58A12.87,12.87,0,0,1,90,70.82a13,13,0,0,1,.71-1.6c-2.81-5.35,1.4-11.09,1.85-11.67a11.64,11.64,0,0,1-.23-1.65A10.44,10.44,0,0,1,89.28,57a2.66,2.66,0,0,1-.58,1.08,5.81,5.81,0,0,1-5.14,1.84,7.52,7.52,0,0,1-.72,4.87c1.29.85.62,2.56.48,2.88a5.41,5.41,0,0,1,.15,4.2,3.46,3.46,0,0,1-1.7,1.7c.1.57.5,3.26-.72,4.68a2.55,2.55,0,0,1-2.06.87h-.18c-3.82-.16-5.76-5.18-6-5.86a7.32,7.32,0,0,1-3.49-1.56l10.27,39.12-.24.07L69,71.35a5.31,5.31,0,0,1-.7-.92,5.85,5.85,0,0,1-.75-3,11,11,0,0,1-1,2.42,8.11,8.11,0,0,1-1.7,7.53,7.34,7.34,0,0,1-2,8.63,3.45,3.45,0,0,1-2.65,1.85H60a4.31,4.31,0,0,1-2.91-1.63,4.72,4.72,0,0,1-3.6-2,6.11,6.11,0,0,1-.92-2.58c-.3,1.69-.8,3.26-1.86,4a2.72,2.72,0,0,1-1.67.52,4.72,4.72,0,0,1-.81-.08A3.21,3.21,0,0,1,46,84.8c-.92-1.5-.24-3.88.3-5.78.4-1.4.77-2.73.32-3.13s-1.46.08-2.62.64c-1.44.7-3.08,1.5-4.46,1a3.22,3.22,0,0,1-1.76-1.88c-1.3-3.14,1.84-4.8,4.37-6.13,1.48-.79,2.76-1.46,2.69-2.2s-1.58-1-3.18-1.25c-.71-.12-1.46-.24-2.16-.41,1,2,1.65,4-.38,5.45a2.75,2.75,0,0,1-1.52.55,1.81,1.81,0,0,1-.51-.08c-1.44-.42-2.33-2.53-3.2-4.57-.73-1.73-1.42-3.36-2.33-3.65S30,64.38,29.42,66a11.19,11.19,0,0,1-1.27,2.67l1.45,48.45h-.25L27.91,68.93a2,2,0,0,1-2.28.54h0a4.51,4.51,0,0,1-2.24,2.3c.08,2.83-.75,4.28-1.46,5a3.06,3.06,0,0,1-1.56.88c-.95,2.61-2.6,3.52-4,3.52a3.67,3.67,0,0,1-.75-.08,4.34,4.34,0,0,1-3.23-4.68c-4.09-3.54-1.7-8.91-1.44-9.46C9.1,61,10.14,57,11.34,54.6A11.35,11.35,0,0,1,13,52.14a24.62,24.62,0,0,0-3.47.55c-3.59.73-7.67,1.57-8.55-1.92s2.23-4.6,5.28-5.56c2.05-.65,4-1.27,4.7-2.62a1.19,1.19,0,0,0,.16-1.05c-.27-.71-1.47-1.13-2.74-1.58-1.54-.54-3.13-1.09-3.61-2.28A2.63,2.63,0,0,1,5,35.47c2-4,11.47-.8,15.61.82a4.46,4.46,0,0,1,.77-.81,8,8,0,0,1,1.85-1.15A9.22,9.22,0,0,1,24.4,32.8a2.11,2.11,0,0,1-.56.09h-.21c-1.28-.13-1.9-1.76-2.49-3.35s-1.26-3.36-2.63-3.36h-.13A9.24,9.24,0,0,0,14.69,28c-2.2,1.48-4.48,3-6.1,1.05-1.47-1.79,0-3.61,1.46-5.38,1.12-1.37,2.28-2.78,1.92-4.1S9.78,18,7.81,17.75c-2.28-.28-4.64-.57-4.59-2.77,0-2.55,3-2.61,6-2.66,1.91,0,3.88-.08,4.84-.82a1.5,1.5,0,0,0,.69-.95c0-.47-.37-.94-.85-1.48a4.06,4.06,0,0,1-1.37-3.55,2.44,2.44,0,0,1,1.9-2c2.37-.61,6.63,1.07,10.81,6.18a11.09,11.09,0,0,1,1,1.43L25.9,1.42h.25l.3,10.23c0,.08.1.16.14.25l2.64,4.4C34.88,17.61,35,21.22,34.92,22c3.66.37,4.3,4,4.37,4.65a8.06,8.06,0,0,1,1.38.67l1.23,0c2.33.08,4.52.15,4.84-1.25.19-.79-.94-1.6-2.13-2.46-1.48-1.07-3-2.18-2.35-3.49a2.46,2.46,0,0,1,1.61-1.27c3.66-1,11.23,3.62,12.48,4.4L52.08,7,52.32,7l4.41,16.8a53.46,53.46,0,0,1,3.55,8,9.24,9.24,0,0,1,5.53,4.7h0a9.05,9.05,0,0,1,1.82.79A14.52,14.52,0,0,1,76.1,33c2.19-.25,3.56.05,4.21.9.88,1.18.09,3.08-.44,4.33s-.9,2.26-.37,3.06,2,1.21,4.39,1.15h.42a10.67,10.67,0,0,1,2.63.29,21.8,21.8,0,0,1,2-2.12c.84-.79,1.27-1.19,1.39-2.19s-.52-1.53-1.3-2.17c-1-.78-2.06-1.67-1.63-3.54.32-1.15,1.7-1.94,3.78-2.17a14.21,14.21,0,0,1,6.37.88A10.24,10.24,0,0,1,102,34.45l.3-1.33h0L101.35,19h.25l1.09,16.35c1.58-.14,12.9-1,14.79,2.8,1.13,2.31-.73,3.61-2.37,4.76-1.2.84-2.32,1.63-2.11,2.68s2.12,1.16,4.16,1.4c2.42.27,5.15.59,6.31,2.11A3.12,3.12,0,0,1,124,51.55ZM89.15,69.21c-.08.16-.16.35-.25.56a16.88,16.88,0,0,0-4.28,2.93,2.1,2.1,0,0,0,.13-.26,6.44,6.44,0,0,0,.07-4.79,3.77,3.77,0,0,0-.3-3.19,8.89,8.89,0,0,0,.61-3.15A6.82,6.82,0,0,0,89.76,59a3.8,3.8,0,0,0,.55-.78l.16,0C89.15,60.41,87.24,64.82,89.15,69.21Zm-47.4-1.7c.27,0,.56.09.83.15l-.74.4A5.25,5.25,0,0,0,41.75,67.51Z"/></svg>