<svg id="圖層_1" data-name="圖層 1" xmlns="http://www.w3.org/2000/svg" viewBox="0 0 145.17 79.04"><defs><style>.cls-1{fill:#fff;}</style></defs><title>1</title><path class="cls-1" d="M131,47.9a1.55,1.55,0,0,0-1.19.8,7.78,7.78,0,0,0,1.63-.35l-.18-.19A3.06,3.06,0,0,0,131,47.9Z"/><path class="cls-1" d="M62.06,38.45c.22.22.43.46.63.7a5.34,5.34,0,0,0,.28-.59h-.18A2.19,2.19,0,0,1,62.06,38.45Z"/><path class="cls-1" d="M42.19,55.52l.92-.14a7,7,0,0,0-.49-.69C42.48,55,42.33,55.26,42.19,55.52Z"/><path class="cls-1" d="M86.07,63.69a6.16,6.16,0,0,0,1.24.21c.21,0,.23,0,.27-.09a2.45,2.45,0,0,0,.31-.71A8.69,8.69,0,0,0,86.63,63a10.52,10.52,0,0,0-2.87.41h.33A9.36,9.36,0,0,1,86.07,63.69Z"/><path class="cls-1" d="M60.6,35a13.2,13.2,0,0,1-1.24-2.4c-.08-.21-.16-.43-.23-.66a5.92,5.92,0,0,1-1.43-.28A8.57,8.57,0,0,1,58,35.72,13.46,13.46,0,0,0,60.6,35Z"/><path class="cls-1" d="M144.42,40.49l-.65-1.28-1.26.66-1.47.77.64,1.26a4.68,4.68,0,0,1,.19.45s0,0-.05-.05a4.45,4.45,0,0,0-2.77-1.39,2.39,2.39,0,0,0-1.33.39,2.27,2.27,0,0,0-1.12,2,1.93,1.93,0,0,0-1.22-.41,1.68,1.68,0,0,0-.41,0,2.57,2.57,0,0,0-2,2.55,3.06,3.06,0,0,0-1.93-.66h-.22l-.24,0,1.56-1.6-2.91-.48a23.74,23.74,0,0,1-2.81-.64A9.19,9.19,0,0,0,129.67,39a5.86,5.86,0,0,1,3.13-2.6,4,4,0,0,1,1.16-.18h1.64l.44-2.8-1.35-.25a3.8,3.8,0,0,0-.73-.06,7.21,7.21,0,0,0-2.05.32,8.86,8.86,0,0,0-4.83,3.88,5.34,5.34,0,0,1-4.76,2.78H122a21.59,21.59,0,0,1-3.35-3A18.45,18.45,0,0,0,115.15,34a18.7,18.7,0,0,1,5.66-6,2.17,2.17,0,0,0-1.27-3.89c-7.65-.11-10.19-4.16-10.92-5.89l0-.1,0-.08a2.41,2.41,0,0,0-1.45-1.11,2,2,0,0,0-1.41.17,18.63,18.63,0,0,1-7.14,1.74,6.09,6.09,0,0,1-4.26-1.32l-.15-.12a4,4,0,0,0,0-2.84,3.34,3.34,0,0,0,1.45.36,2.57,2.57,0,0,0,2-1A3.15,3.15,0,0,0,98.24,11a6.07,6.07,0,0,0,1.57.26A2.34,2.34,0,0,0,102,10a2.59,2.59,0,0,0,.22-1.81A3.19,3.19,0,0,0,104.63,7c1.58-1.86.61-4.35-1.06-6l-1-1-2.16,2.19,1,1c.51.52,1.13,1.53.91,1.78-.06.07-.1.1-.1.11a2.72,2.72,0,0,1-.54-.19,3.57,3.57,0,0,0-1.35-.33,2.07,2.07,0,0,0-1.58.72,2.14,2.14,0,0,0-.13,2.61l-.17,0a6.74,6.74,0,0,0-2-.43A2.09,2.09,0,0,0,95,7.93C93.87,9,94.61,10.39,94.92,11a4.2,4.2,0,0,1,.3.65l-.61-.39a4.07,4.07,0,0,0-2.22-.94,2,2,0,0,0-.43,0,2.11,2.11,0,0,0-1.39,1,3.53,3.53,0,0,0,.3,3.4c.42.88.52,1.21.35,1.51,0,.05-.33.5-1.72.89a2.09,2.09,0,0,0-1.14-.34h-.14c-.89,0-8.72-.14-10.7-5.13l0-.11-.06-.1a2.2,2.2,0,0,0-1.72-1.11h0c-.53-.05-1.08-.07-1.62-.07-4.28,0-7.42,1.48-8.81,4.14a5.41,5.41,0,0,0,.43,5.63c-2.38.53-5.87,1.87-7.56,5.25a8.09,8.09,0,0,0-.85,3.12,7.6,7.6,0,0,0-1.21-.93,13.2,13.2,0,0,1-.14-2.2,9,9,0,0,0-.71-4.16,3.24,3.24,0,0,0-2.88-1.86,3,3,0,0,0-.89.13,2.87,2.87,0,0,0-2.17,2.76l.11,1.42,3.08-.24-.07-.91.1.15a6.86,6.86,0,0,1,.35,2.74c0,.28,0,.57,0,.87a18.91,18.91,0,0,0-4.4-.47,33.75,33.75,0,0,0-3.64.22,2.12,2.12,0,0,0-1.93,2.37,3.23,3.23,0,0,1-.63,2.41,4,4,0,0,1-1.9,1.17,19.94,19.94,0,0,0-6.45-8.08l-.08-.05a2.2,2.2,0,0,0-1.1-.28,2.06,2.06,0,0,0-.94.21,1.87,1.87,0,0,0-1,1.06A2.32,2.32,0,0,1,29.32,26a3.07,3.07,0,0,1-.82.1c-1.56,0-3.7-.93-6.19-2.7l-.06,0-.07,0A2.19,2.19,0,0,0,21.11,23a2.16,2.16,0,0,0-.71.12,2,2,0,0,0-1.14,1A11.17,11.17,0,0,1,15.07,28a3.91,3.91,0,0,1,.17-.48l.53-1.29L13,25l-.56,1.3a9.5,9.5,0,0,0-.68,3,18.4,18.4,0,0,1-4.35.5c-.79,0-1.6-.05-2.51-.14H4.74a2.15,2.15,0,0,0-1.92,1.13,2.2,2.2,0,0,0,.26,2.42l0,.06.05,0A14.74,14.74,0,0,1,7.65,43.9a2,2,0,0,0,.54,1.61,2,2,0,0,0,1.5.67h0a7.2,7.2,0,0,1,5.7,3.27,8.49,8.49,0,0,0,4,2.83,5.9,5.9,0,0,1-3,2.55l-.46.22a9.5,9.5,0,0,1-1.88-.54,5.6,5.6,0,0,1-3.2-2.6,3.53,3.53,0,0,0-2.82-2l-.35,0a3.35,3.35,0,0,0-2.31.84,3.62,3.62,0,0,0-1.1,2.54v1.4l1.66,0,1.35,0,.08-1.35a.53.53,0,0,1,.09-.3.46.46,0,0,1,.21,0h.16a3.08,3.08,0,0,1,.42.6,8.5,8.5,0,0,0,4.6,3.8,10.08,10.08,0,0,0-2.45,5.83A2.06,2.06,0,0,0,11,64.86a2,2,0,0,0,1.5.67h.17a20.91,20.91,0,0,1,5.22.69,4.29,4.29,0,0,0-.45.88c-.2.55-.35,1.05-.47,1.49a3.64,3.64,0,0,0-3-2.1h-.23c-2.07,0-2.62,1.88-2.92,2.9a5.25,5.25,0,0,1-.33.93h-.08c-.17,0-.22,0-.59-.75a3.44,3.44,0,0,0-2.69-2.28l-.31,0a2.54,2.54,0,0,0-2.44,2.37,6.78,6.78,0,0,1-1.11-3.15l-.15-1.4L0,65.43l.16,1.41c.33,3,2,6.29,4.54,6.51h.22a2.29,2.29,0,0,0,2.25-2.08,3.47,3.47,0,0,0,3.19,2.14h.12c2.34,0,2.95-2.13,3.26-3.17,0-.17.12-.4.18-.58a3.74,3.74,0,0,1,.64,1.08c.41.86,1,2.15,2.52,2.15,2,0,2.38-1.71,2.66-2.83a17.47,17.47,0,0,1,.55-1.88,1,1,0,0,1,.59-.6,4.38,4.38,0,0,1,2.06,3.23,2.12,2.12,0,0,0,1,1.65,2.17,2.17,0,0,0,1.06.27,2.23,2.23,0,0,0,.91-.2,17.69,17.69,0,0,1,6-1.27,5.86,5.86,0,0,1,3.79,1.12,2.19,2.19,0,0,0,1.42.53l.38,0A2,2,0,0,0,38.8,72a23.31,23.31,0,0,1,3.11-3.25A5.78,5.78,0,0,0,44,64.63a5.18,5.18,0,0,0-1.22-4l-.1-.09-.36-.33a29.69,29.69,0,0,0,6-1.31,2.07,2.07,0,0,0,.12.38c1.37,3.71,1,6.13.46,7.51a2.12,2.12,0,0,0,1.93,3,2,2,0,0,0,.73-.13,14.7,14.7,0,0,1,4.48-.8c3,0,4.22,1.31,4.42,1.54a2,2,0,0,0,1.62.75,2.23,2.23,0,0,0,1.38-.49l.08-.06a6.84,6.84,0,0,1,4.53-1.37,13.75,13.75,0,0,1,2.44.22,2,2,0,0,0,.59.09,2.08,2.08,0,0,0,1.22-.39,2.06,2.06,0,0,0,.85-1.76v-.28a2.05,2.05,0,0,0,1,.79A2.44,2.44,0,0,0,75,68a2.35,2.35,0,0,0,1.24-.35l.08,0,.07,0A24.28,24.28,0,0,1,82,64.06a3.08,3.08,0,0,0-.44.37c-1.45,1.47-1.1,3.29-.87,4.49,0,.15.07.35.1.53-.29-.13-.67-.34-.94-.49a5.24,5.24,0,0,0-2.51-.91,2.36,2.36,0,0,0-1.53.54c-1.33,1.08-1.09,2.69-.93,3.76,0,.1,0,.21,0,.32a4.37,4.37,0,0,0-2.5-1,3,3,0,0,0-.73.1,2.73,2.73,0,0,0-1.78,2.92l-.06-.1c-.39-.71-1-1.89-2.37-1.89a2.28,2.28,0,0,0-.83.17,2.9,2.9,0,0,0-.69.43V73l-3.08.1,0,1.41c0,1.48.34,3.4,1.47,4.16a2,2,0,0,0,1.84.21,2.53,2.53,0,0,0,1.56-1.83,2.83,2.83,0,0,0,2.31,1.29,2.73,2.73,0,0,0,1-.17,3.06,3.06,0,0,0,2-3.12l.24.17a4,4,0,0,0,2.3,1,2.33,2.33,0,0,0,1.74-.79,4,4,0,0,0,.65-3.56c0-.15,0-.34-.07-.51l.49.27a5.89,5.89,0,0,0,2.79,1,2.65,2.65,0,0,0,1.52-.45c1.61-1,1.27-2.79,1.06-3.86s-.23-1.46,0-1.73c0,0,.11-.11.38-.11a6.25,6.25,0,0,1,1.31.22,9.46,9.46,0,0,0,1.91.27,3.29,3.29,0,0,0,2.74-1.32,20.41,20.41,0,0,1,.29,3.83v.14a2.28,2.28,0,0,0,1.12,1.81,2.14,2.14,0,0,0,1.9.09,10.65,10.65,0,0,1,3.94-.76,11.23,11.23,0,0,1,5.63,1.56,2.06,2.06,0,0,0,1,.26,2.19,2.19,0,0,0,1.89-1.07,8.08,8.08,0,0,1,5.09-3.84l0,.06a2,2,0,0,0,.79,1.06,2.17,2.17,0,0,0,1.17.35h.23c4.48,0,7.71,3.35,8.93,4.85a2,2,0,0,0,1.3.84,1.67,1.67,0,0,0,.39,0,2.22,2.22,0,0,0,1.37-.48,10.11,10.11,0,0,1,6.49-2.26,14.73,14.73,0,0,1,5.21,1,2.19,2.19,0,0,0,.8.16,2.14,2.14,0,0,0,1.51-.64,2.16,2.16,0,0,0,.44-2.37c-.83-1.93-2.5-6.73,0-9.68a2.23,2.23,0,0,0,.45-1.93A2,2,0,0,0,139,57.35c-2.84-1.59-3.35-5.33-3.63-7.34a6.41,6.41,0,0,0-.28-1.39,2.36,2.36,0,0,0,.56-.81,2.67,2.67,0,0,0,1.14.95,2.42,2.42,0,0,0,.88.17,2.57,2.57,0,0,0,1-.22c1.86-.82,1.54-2.79,1.26-4A4.26,4.26,0,0,0,142.6,46a2.5,2.5,0,0,0,1-.19A2.59,2.59,0,0,0,145,44.34,5.35,5.35,0,0,0,144.42,40.49Zm-.76,3.37a1.11,1.11,0,0,1-.64.68c-.77.32-1.54-.33-2.28-1s-1.5-1.28-2.16-.84-.31,1.17-.08,2.07.54,2.2-.39,2.62a1,1,0,0,1-.78,0c-.54-.22-.83-1-1.11-1.64s-.53-1.32-.93-1.23c-.64.12-.69.79-.73,1.51s-.1,1.57-.94,1.69a1.32,1.32,0,0,1-1.32-.59,1.6,1.6,0,0,0-1.44-.69c-1.64.06-2.54,1.64-3.3,3.55a9.69,9.69,0,0,0,5.94-1h0a.16.16,0,0,1,.15,0c.14.08.19.34.3,1.16.29,2.11.89,6.5,4.39,8.42a.55.55,0,0,1,.34.41.78.78,0,0,1-.15.68c-3,3.56-1.19,9-.25,11.16a.74.74,0,0,1-.16.82.71.71,0,0,1-.77.16c-2.84-1.11-8.33-2.41-13.11,1.43a.76.76,0,0,1-.48.17h-.12a.58.58,0,0,1-.42-.29c-1.32-1.63-4.94-5.42-10.08-5.42h-.24a.67.67,0,0,1-.37-.11.51.51,0,0,1-.23-.36c-.06-.11-.28-.57-.56-1.24a10,10,0,0,0-7.14,4.8.78.78,0,0,1-.66.35.72.72,0,0,1-.33-.07,12.26,12.26,0,0,0-10.82-.88.66.66,0,0,1-.64,0,.86.86,0,0,1-.41-.68,16.33,16.33,0,0,0-1.26-7.1,7.39,7.39,0,0,0-.78-.32A5.25,5.25,0,0,1,89,64.76c-.78,1.11-2,.83-3.24.56s-2.24-.5-3,.28-.63,1.94-.42,3,.36,1.9-.42,2.39S80,71,79,70.41s-1.68-1-2.18-.52-.46,1.32-.33,2.21a2.82,2.82,0,0,1-.29,2.39c-.65.7-1.43.15-2.17-.39s-1.26-.9-1.88-.75-.6.77-.6,1.46,0,1.7-1,2.06-1.7-.64-2.16-1.47-.69-1.18-1.1-1-.64.88-.74,1.56-.21,1.4-.84,1.63a.59.59,0,0,1-.23,0,.56.56,0,0,1-.32-.11c-.75-.5-.84-2.77-.84-3h.25c0,.66.19,2.46.73,2.83a.38.38,0,0,0,.33,0c.48-.18.57-.79.67-1.44s.22-1.47.9-1.75,1,.43,1.41,1.12.93,1.68,1.86,1.35.84-1,.85-1.82,0-1.47.78-1.7a2.69,2.69,0,0,1,2.09.79c.84.6,1.38.93,1.84.42s.36-1.33.23-2.18-.28-1.88.42-2.44,1.52,0,2.46.49,1.9,1.08,2.61.59.49-1.21.31-2.13c-.2-1.07-.44-2.28.49-3.22s2.07-.61,3.24-.35,2.31.51,3-.46A5,5,0,0,0,89.46,62c-2.68-.85-7.38-.88-14,4.42a1.06,1.06,0,0,1-.51.14.64.64,0,0,1-.28,0,.52.52,0,0,1-.34-.32,18.56,18.56,0,0,1-1.15-3.5,8.12,8.12,0,0,0-1.41,4.67.65.65,0,0,1-.27.59.62.62,0,0,1-.6.08c-.9-.18-5.62-1-8.3,1.47a.79.79,0,0,1-.51.18h0a.59.59,0,0,1-.49-.21c-.51-.6-3.41-3.52-10.49-1.19a.67.67,0,0,1-.74-.17.7.7,0,0,1-.14-.78c.65-1.6,1.11-4.4-.43-8.57a.82.82,0,0,1,.31-.91,5.14,5.14,0,0,0,2.17-2.39c-4.56,2.92-10.18,3.41-12.4,3.49a5.79,5.79,0,0,0,1.89,2.64,3.74,3.74,0,0,1,.82,2.91,4.3,4.3,0,0,1-1.53,3.14,26.3,26.3,0,0,0-3.42,3.57.55.55,0,0,1-.39.25h-.12a.72.72,0,0,1-.49-.18c-3.43-2.85-9.48-.78-11.25-.08a.75.75,0,0,1-.7,0,.66.66,0,0,1-.33-.53A6,6,0,0,0,21.07,66,2.76,2.76,0,0,0,19,67.68a20.27,20.27,0,0,0-.6,2c-.26,1.09-.43,1.75-1.29,1.76h0c-.57,0-.87-.63-1.22-1.35-.43-.9-.92-1.92-2-2-.94-.07-1.17.74-1.45,1.69S11.75,72,10.47,72h-.11c-1.25,0-1.69-.89-2.08-1.68S7.64,69,6.9,69s-.87.5-1,1.45c-.1.72-.22,1.54-1,1.54h-.1c-1.61-.14-3-2.83-3.25-5.25l.24,0c.33,2.88,1.83,4.93,3,5h.07c.51,0,.62-.51.73-1.32s.24-1.68,1.13-1.68h.16c.87.1,1.23.81,1.57,1.5s.77,1.54,1.86,1.54h.11c1.09,0,1.37-1,1.66-2s.55-1.88,1.56-1.88h.14c1.25,0,1.8,1.18,2.24,2.1.31.65.57,1.21,1,1.21h0c.63,0,.77-.41,1.05-1.57a19.14,19.14,0,0,1,.61-2.06,2.92,2.92,0,0,1,2-1.76,19.49,19.49,0,0,0-8.14-1.72h-.17a.66.66,0,0,1-.46-.21.65.65,0,0,1-.16-.56,8.38,8.38,0,0,1,4-6.64,10.15,10.15,0,0,1-2.39-.64,7.23,7.23,0,0,1-4-3.27c-.45-.72-.74-1.19-1.54-1.26a1.76,1.76,0,0,0-1.4.39A2,2,0,0,0,6,53.24H5.73a2.18,2.18,0,0,1,.64-1.49A2,2,0,0,1,8,51.29c.92.08,1.28.65,1.73,1.37a7,7,0,0,0,3.89,3.17,9.74,9.74,0,0,0,2.63.68c.25-.13.5-.25.78-.37,3.4-1.54,4.09-3.57,4.16-4.79a8.39,8.39,0,0,1-4.57-2.71,8.63,8.63,0,0,0-6.85-3.88.6.6,0,0,1-.49-.2A.69.69,0,0,1,9.07,44,16.13,16.13,0,0,0,4.19,32.3a.81.81,0,0,1-.12-.87.75.75,0,0,1,.72-.37,20.27,20.27,0,0,0,8.37-.72,7.5,7.5,0,0,1,.54-3.48l.23.1a7.54,7.54,0,0,0-.53,3.29,13.11,13.11,0,0,0,7.11-5.44.59.59,0,0,1,.36-.33.76.76,0,0,1,.62.06c3.38,2.39,6.13,3.34,8.18,2.82a3.82,3.82,0,0,0,2.48-2,.48.48,0,0,1,.26-.33.85.85,0,0,1,.73,0c3.29,2.19,5.39,6.15,6.42,8.54a6.06,6.06,0,0,0,3.81-1.91,4.63,4.63,0,0,0,.93-3.5A.69.69,0,0,1,45,27.4c4.16-.47,7.37-.17,9.58.89a12.57,12.57,0,0,1-.26-2.94,7.58,7.58,0,0,0-.5-3.37c-.62-1.11-1.41-1.07-1.82-.94-.6.18-1,.69-1,1l-.25,0c0-.49.5-1.09,1.16-1.29A1.77,1.77,0,0,1,54,21.86a8,8,0,0,1,.52,3.49,11.12,11.12,0,0,0,.32,3.1,6.57,6.57,0,0,1,1.71,1.29,5.37,5.37,0,0,1,1,1.56,6.5,6.5,0,0,0,1.49.34A7.59,7.59,0,0,1,59.41,26c1.81-3.65,6.21-4.54,8-4.76a.55.55,0,0,0,.4-.35.49.49,0,0,0-.07-.48c-1.28-1.27-2.29-3.34-1.24-5.26,1.87-3.56,7-3.52,9.07-3.34a.74.74,0,0,1,.62.43c2.29,5.77,10.56,6,12,6h.16a.72.72,0,0,1,.52.27.67.67,0,0,1,.1.23c1.34-.27,2.89-.78,3.45-1.76s.12-1.92-.3-2.82c-.36-.75-.7-1.46-.34-2.1a.62.62,0,0,1,.44-.33c.43-.1,1,.27,1.57.67.88.6,1.8,1.23,2.46.45s.28-1.8-.11-2.54c-.29-.55-.54-1-.18-1.35s1.13-.07,2,.21,2.21.69,2.53.05-.07-1.14-.43-1.64-.68-.94-.29-1.39.81-.21,1.31,0a1.7,1.7,0,0,0,2.24-.29c1.27-1.49-1-3.7-1-3.73l.18-.18c.09.1,2.4,2.41,1,4.08a2,2,0,0,1-2.52.35c-.51-.21-.81-.32-1-.07s-.05.6.3,1.08a1.77,1.77,0,0,1,.45,1.9c-.41.84-1.69.43-2.82.08-.76-.24-1.54-.48-1.78-.26s0,.52.23,1.05c.4.76,1,1.79.08,2.81s-1.91.2-2.79-.4c-.54-.37-1-.71-1.38-.64a.38.38,0,0,0-.27.22c-.3.52,0,1.14.34,1.87.44.91.93,1.94.29,3.05S90.42,18.73,89,19a.61.61,0,0,1,0,.19A9.13,9.13,0,0,0,88.88,23a8.68,8.68,0,0,1,3.56-4.42.65.65,0,0,1,.9,0c.94.86,4.62,3.39,13-.22a.56.56,0,0,1,.44-.06.94.94,0,0,1,.57.46c.85,2,3.72,6.63,12.21,6.76a.75.75,0,0,1,.68.53.76.76,0,0,1-.27.83c-1.76,1.22-5.19,4-6.61,7.73A14.4,14.4,0,0,1,117.6,38a21.88,21.88,0,0,0,3.89,3.42,6.78,6.78,0,0,0,6.78-3.39,7.43,7.43,0,0,1,4-3.29,5,5,0,0,1,2.11-.23l0,.25a5,5,0,0,0-2,.22,7.24,7.24,0,0,0-3.9,3.18,7,7,0,0,1-6.21,3.53h-.37A19.23,19.23,0,0,0,129,44.16l.23,0-.16.17a7.52,7.52,0,0,0-1.6,5.34c.77-1.88,1.7-3.4,3.41-3.46a1.84,1.84,0,0,1,1.63.77c.33.35.59.62,1.1.51s.68-.61.73-1.46.1-1.58.93-1.74c.61-.13.9.6,1.21,1.38s.53,1.33,1,1.51a.77.77,0,0,0,.59,0c.74-.33.5-1.3.24-2.33s-.48-1.94.2-2.35,1.64.18,2.45.87,1.4,1.2,2,.93a.86.86,0,0,0,.51-.53,4.24,4.24,0,0,0-.5-2.54l.23-.11C143.19,41.2,144,42.83,143.66,43.86Zm-12.21,4.49a7.78,7.78,0,0,1-1.63.35,1.55,1.55,0,0,1,1.19-.8,3.06,3.06,0,0,1,.26.26ZM83.76,63.42A10.52,10.52,0,0,1,86.63,63a8.69,8.69,0,0,1,1.26.09,2.45,2.45,0,0,1-.31.71c0,.06-.06.09-.27.09a6.16,6.16,0,0,1-1.24-.21,9.36,9.36,0,0,0-2-.28Z"/></svg>