<svg id="圖層_1" data-name="圖層 1" xmlns="http://www.w3.org/2000/svg" viewBox="0 0 46.25 74.08"><defs><style>.cls-1{fill:#fff;}</style></defs><title>1</title><path class="cls-1" d="M9.19,8.63a2.4,2.4,0,0,0-1-.32A5.53,5.53,0,0,0,6.33,4.64L5.44,4l-.87.58a5.28,5.28,0,0,0-2.1,3.56,2.4,2.4,0,0,0-.94.26c-2,1.05-1.44,3.05-1,4.36-1,1.19-.35,2.83.08,3.88A12.73,12.73,0,0,1,1.39,19c.33,1.76.08,17.08-.65,39v.1l.06,1.14,1.07.3a9.82,9.82,0,0,0,2.66.37,9.31,9.31,0,0,0,1.74-.16l1.24-.22,0-1.27c.31-18,.85-37.07,1.38-39.07a12.25,12.25,0,0,1,.91-2.36c.48-1,1.24-2.61.21-3.86C10.56,11.71,11.17,9.82,9.19,8.63Zm-.68,4.9c1,.61.61,1.49,0,2.71a14.39,14.39,0,0,0-1,2.62c-.76,2.9-1.32,33.33-1.42,39.4v.1l-.1,0a8.33,8.33,0,0,1-1.49.13,8.63,8.63,0,0,1-2.27-.31l-.1,0v-.1c.29-8.51,1.17-36.5.63-39.33a13.79,13.79,0,0,0-.85-2.61c-.53-1.28-.91-2.2.15-2.76l.13-.06c-.09-.32-.2-.61-.29-.88-.45-1.28-.77-2.21.26-2.74A1.36,1.36,0,0,1,3.7,10c.06-2.11.62-3.53,1.66-4.23l.08,0,.07.06c.91.73,1.38,2.19,1.4,4.35a1.37,1.37,0,0,1,1.57-.29h0c1.07.64.67,1.59.11,2.9-.09.21-.18.44-.28.69Z"/><path class="cls-1" d="M22.48,15.24a12.79,12.79,0,0,1,.91-2.36c.49-1,1.26-2.66.15-3.92.53-1.28,1.13-3.17-.84-4.36a2.43,2.43,0,0,0-.94-.31A5.61,5.61,0,0,0,19.91.61L19,0l-.88.59a5.26,5.26,0,0,0-2.09,3.54,2.57,2.57,0,0,0-1,.27c-2.12,1.09-1.4,3.19-.95,4.46-1,1.19-.33,2.8.1,3.84A12.35,12.35,0,0,1,15,15c.38,2-.08,22.25-.72,41.5l.06,1.07,1,.35a6.91,6.91,0,0,1,1.54.76,9.93,9.93,0,0,0,2.11,1.07l2.12.78L21,58.31C20.94,54.9,21.83,17.92,22.48,15.24ZM19.42,58.46a8.51,8.51,0,0,1-1.81-.91,7.89,7.89,0,0,0-1.86-.93l-.09,0V56.5c.22-6.46,1.24-38.82.69-41.72a13.33,13.33,0,0,0-.85-2.61c-.53-1.28-.9-2.21.15-2.77l.1,0c-.11-.35-.22-.67-.32-1-.45-1.28-.77-2.21.26-2.74A1.4,1.4,0,0,1,17.27,6c.05-2.1.63-3.58,1.66-4.28L19,1.71l.07.06c.9.73,1.37,2.17,1.4,4.3A1.34,1.34,0,0,1,22,5.83c1.07.64.67,1.59.11,2.9-.09.23-.2.47-.3.73a.86.86,0,0,1,.28.11h0c1,.61.6,1.49,0,2.71a13.73,13.73,0,0,0-1,2.62c-.75,3.07-1.57,41.22-1.52,43.44v.18Z"/><path class="cls-1" d="M31.32,22.87a2.51,2.51,0,0,0-1-.33,5.48,5.48,0,0,0-1.86-3.67l-.89-.61-.87.59a5.24,5.24,0,0,0-2.1,3.55,2.26,2.26,0,0,0-.94.27c-2,1-1.44,3-1,4.35-1,1.19-.35,2.83.08,3.88a13.37,13.37,0,0,1,.77,2.34c.12.63.34,4.35-.23,25.17l-.1,3.45c-.1,3.3-.19,6.24-.26,8.39l-.06,2.07,2-.53a6.43,6.43,0,0,1,1.65-.21,7.51,7.51,0,0,1,1.34.13l1.81.37,0-1.85c.42-21,.94-35.13,1.34-36.79a12.79,12.79,0,0,1,.91-2.36c.45-.95,1.22-2.58.21-3.85C32.68,26,33.29,24.05,31.32,22.87Zm-.69,4.9c1,.61.61,1.49,0,2.7a13.59,13.59,0,0,0-1,2.63c-.63,2.58-1.18,26.81-1.38,37.1v.15l-.14,0a8.22,8.22,0,0,0-3.63.1l-.16,0V70.3c.07-2.16.16-5.1.26-8.4,0-1.11.06-2.27.09-3.45.42-15.19.49-24,.21-25.48a13.79,13.79,0,0,0-.85-2.61c-.53-1.28-.9-2.2.15-2.76l.14-.06c-.1-.31-.21-.6-.3-.88-.45-1.28-.77-2.2.26-2.73a1.34,1.34,0,0,1,1.52.32c.06-2.1.62-3.52,1.66-4.23l.08-.05.07.06c.91.73,1.38,2.2,1.4,4.35a1.38,1.38,0,0,1,1.57-.29h0c1.07.64.67,1.59.12,2.9-.1.22-.19.45-.29.69A.72.72,0,0,1,30.63,27.77Z"/><path class="cls-1" d="M44.89,18.84a2.44,2.44,0,0,0-1-.32A5.52,5.52,0,0,0,42,14.84l-.89-.61-.87.59a5.2,5.2,0,0,0-2.1,3.55,2.55,2.55,0,0,0-.94.27c-2.07,1.06-1.44,3.07-1,4.35-1.11,1.19-.42,2.88,0,4A13,13,0,0,1,37,29.27c.43,2.29-.23,27.09-.78,43.21l0,1.55,1.88,0h.24l.21-.06a9.62,9.62,0,0,0,2.33-1,7,7,0,0,1,1.31-.58l.92-.42.11-5c.19-8.7.77-35.17,1.34-37.5a12.79,12.79,0,0,1,.91-2.36c.48-1,1.24-2.62.25-3.84C46.23,22,46.9,20.05,44.89,18.84Zm-.75,5h0c1,.61.6,1.49,0,2.71a14.39,14.39,0,0,0-1,2.62c-.6,2.5-1.15,27.34-1.38,37.94,0,1.62-.06,3-.09,3.92v.09l-.08,0a8.23,8.23,0,0,0-1.48.68,8.83,8.83,0,0,1-2,.87h-.47v-.13c0-.4,1.36-40.26.75-43.51a13.33,13.33,0,0,0-.85-2.61c-.53-1.28-.91-2.2.15-2.77a.86.86,0,0,1,.21-.07c-.1-.34-.21-.65-.31-.93-.45-1.28-.77-2.2.26-2.73a1.39,1.39,0,0,1,1.53.32c.05-2.1.61-3.52,1.66-4.22l.07-.06.07.06c.91.73,1.38,2.2,1.4,4.35a1.39,1.39,0,0,1,1.58-.29c1.07.65.66,1.59.11,2.9l-.32.76Z"/></svg>