<svg id="圖層_1" data-name="圖層 1" xmlns="http://www.w3.org/2000/svg" viewBox="0 0 156.94 95.79"><defs><style>.cls-1{fill:#fff;}</style></defs><title>0</title><path class="cls-1" d="M57.5,27.77l.11.08-.07-.11Z"/><path class="cls-1" d="M34.18,33.71a23.65,23.65,0,0,1-9,7.66,15.71,15.71,0,0,1,5.73,6.1,13.68,13.68,0,0,1,11-5.55l.42,0c-.81-5,.82-9.89,1.92-12.47a14.56,14.56,0,0,1-2.6-.91A12.92,12.92,0,0,0,34.18,33.71Zm6.57,6.84a15.23,15.23,0,0,0-9.61,4.51,17.16,17.16,0,0,0-3.27-3.54,25,25,0,0,0,7.48-7,11.4,11.4,0,0,1,6.2-4.46l.83.32A25.36,25.36,0,0,0,40.75,40.55Z"/><path class="cls-1" d="M65.13,32.76c0-.23,0-.45,0-.68s0-.68,0-1a15.13,15.13,0,0,0-1.54-.57A8.9,8.9,0,0,1,58.18,26c-.1-.19-.17-.39-.26-.59a14.19,14.19,0,0,1-3,2.38,21.44,21.44,0,0,1,2.68,1.82A11.84,11.84,0,0,0,65.13,32.76Zm-7.63-5,0,0,.07.11Z"/><path class="cls-1" d="M153.39,9.35a17.48,17.48,0,0,0-11.6-6.8,18.19,18.19,0,0,0-2.44-.17A17.57,17.57,0,0,0,122,17.54a17.47,17.47,0,0,0,3.39,13A19.81,19.81,0,0,0,127,32.39a29.66,29.66,0,0,0-3.92,7.69,16.35,16.35,0,0,0-7-1.6,24.9,24.9,0,0,0,1.44-10.15,9.65,9.65,0,0,1,1-3.56c.88-2.17,2-4.86,0-7.36a7.57,7.57,0,0,0-6-2.89c-2,0-5.13.86-8.13,4.83-1.93,2.56-4.07,3.4-6.35,4.3a13.82,13.82,0,0,0-5.19,3.05A15.21,15.21,0,0,0,78.79,17a13.91,13.91,0,0,0-1.42.07,15.35,15.35,0,0,0-2-2.73A10.63,10.63,0,0,1,72.47,9c-.88-4-3-6.94-5.7-8.17A6.56,6.56,0,0,0,64.08.25,6.28,6.28,0,0,0,61,1.06,7,7,0,0,0,58,4a15.64,15.64,0,0,0-26,9.91,14.85,14.85,0,0,0-6.3-1.61,15,15,0,0,0-4.26.73,13.38,13.38,0,0,1-3.87.67A12,12,0,0,1,15,13.35a17.16,17.16,0,0,0-3.75-.44A10.27,10.27,0,0,0,4.46,15.1,6.67,6.67,0,0,0,2,20.73c.31,4.88,3.81,6.41,7.2,7.9a17.64,17.64,0,0,1,5.42,3.18c3.17,3.05,6.65,4.66,10.05,4.66h.22a20.26,20.26,0,0,1-3.54,1.74,17.08,17.08,0,1,0-4.31,33.6,14.66,14.66,0,0,0,1.48-.07,59.22,59.22,0,0,0-.44,8.08A44,44,0,0,1,17.7,87c-.69,3.9.2,7,2.38,8.21a4.59,4.59,0,0,0,2.27.58c1.95,0,4.17-1.08,6.61-3.19l1.74-1.51c4.52-3.93,4.79-4.17,11.65-8.53,3.72-2.36,5.59-6.81,5.4-12.85v-.16a15,15,0,0,0,4.91-3.33,7,7,0,0,0,1.91,2,5.49,5.49,0,0,0,3.08,1,5.37,5.37,0,0,0,1.8-.31l.23-.08A15.06,15.06,0,0,0,73,76.68a15.1,15.1,0,0,0,14.6-19,15.08,15.08,0,0,0-2.46-5.12,19.29,19.29,0,0,0,3.39-2.73c2.5,3.37,5.88,7.22,11.4,8.31.09.47.2.91.32,1.32A16.43,16.43,0,0,0,116,71.31a16.47,16.47,0,0,0,4.61-.66A16.4,16.4,0,0,0,128,43.74a21.11,21.11,0,0,1,2.68-6.57c.3-.48.61-1,1-1.44A17.47,17.47,0,0,0,137,37.35a18.34,18.34,0,0,0,2.45.17A17.37,17.37,0,0,0,150,34,17.6,17.6,0,0,0,153.39,9.35Zm-4.27,23.48a16,16,0,0,1-9.7,3.27,17.27,17.27,0,0,1-2.26-.15,16.28,16.28,0,0,1-5.93-2.05,30.55,30.55,0,0,0-1.74,2.54,21.42,21.42,0,0,0-3,7.77,15,15,0,1,1-24.93,14.87,14.68,14.68,0,0,1-.45-2.15c-6.1-.78-9.42-5-12.52-9.33A18.4,18.4,0,0,1,83,52.2,13.69,13.69,0,1,1,60.32,66.83a5,5,0,0,1-1.33.68,4,4,0,0,1-1.34.23A4.05,4.05,0,0,1,55.36,67,6.47,6.47,0,0,1,53,63.65a13.78,13.78,0,0,1-6.72,4.94c0,.38,0,.77.07,1.16.11,3.85-.61,9-4.75,11.62-7,4.41-7.22,4.65-11.82,8.65L28,91.53c-2.16,1.87-4.12,2.84-5.69,2.84A3.11,3.11,0,0,1,20.79,94c-1.65-.94-2.28-3.45-1.69-6.74a45,45,0,0,0,.44-7.41,49.13,49.13,0,0,1,.74-9.77,16,16,0,0,1-3.2.33,15.66,15.66,0,0,1,0-31.32,15.39,15.39,0,0,1,4.37.63A21.09,21.09,0,0,0,31.73,32c.11-.16.24-.3.35-.46-.09.1-.19.19-.28.3A9.61,9.61,0,0,1,25,35.05h-.25c-3,0-6.16-1.47-9.07-4.27A18.82,18.82,0,0,0,9.8,27.33c-3.27-1.43-6.09-2.67-6.34-6.69a5.3,5.3,0,0,1,1.92-4.46c2.1-1.79,5.48-2.31,9.27-1.45a13,13,0,0,0,7.26-.35c2.56-.72,5-1.4,9.84.92a10.48,10.48,0,0,1,1.68,1c0-.22,0-.45,0-.68a14.23,14.23,0,0,1,25.3-8.94,5.48,5.48,0,0,1,3-4.41,4.93,4.93,0,0,1,4.5-.17c2.34,1.05,4.13,3.67,4.91,7.19a12,12,0,0,0,3.19,5.93,11.83,11.83,0,0,1,2.27,3.34A13.57,13.57,0,0,1,92.31,30.05c1.46-3.16,3.81-4.1,6.28-5.08s4.8-1.89,7-4.76c2.65-3.51,5.28-4.26,7-4.27h0a6.1,6.1,0,0,1,4.81,2.34c1.44,1.85.63,3.85-.23,6a10.33,10.33,0,0,0-1.06,4.15c.2,4.8-.64,8.79-2.39,11.68a14.82,14.82,0,0,1,9.46,1.67c.26.14.5.3.75.46a27.6,27.6,0,0,1,4.93-10,16.17,16.17,0,0,1-2.37-2.51,16.15,16.15,0,1,1,22.62,3.14Z"/><path class="cls-1" d="M55.75,32a17.88,17.88,0,0,0-4.36-2.61,14.16,14.16,0,0,1-3.76.52c-.24,0-.47,0-.7,0-1,2.13-3,7.44-1.89,12.44a13.79,13.79,0,0,1,5.66,2.82,14.07,14.07,0,0,1,5.65-4.58,20.57,20.57,0,0,1,3.08-6.16A18.42,18.42,0,0,1,55.75,32Zm-.57,7.55a15.81,15.81,0,0,0-4.75,3.62,14.88,14.88,0,0,0-4.16-2,19.77,19.77,0,0,1,1.57-9.86,16.12,16.12,0,0,0,3.43-.44,16.45,16.45,0,0,1,3.59,2.21,21.7,21.7,0,0,0,2.53,1.81A21.56,21.56,0,0,0,55.18,39.52Z"/><path class="cls-1" d="M99.83,53.59a11.27,11.27,0,0,0,1.18.28,14.94,14.94,0,0,1,1.81-6.2,15.46,15.46,0,0,1,1.78-2.57A17.06,17.06,0,0,1,99,44.05,20.8,20.8,0,0,0,99.83,53.59Zm.37-7.69c.6.16,1.2.29,1.78.39-.14.23-.27.46-.4.7a16.47,16.47,0,0,0-1.19,2.73A17.54,17.54,0,0,1,100.2,45.9Z"/><path class="cls-1" d="M96.76,43.12a10.46,10.46,0,0,1-4.42-4.18,8.51,8.51,0,0,1-.78-2,13.58,13.58,0,0,1-3.38,5c.84,1.07,1.64,2.16,2.42,3.25,2,2.79,3.88,5.38,6.39,7A21,21,0,0,1,96.76,43.12ZM95,48.64a52.67,52.67,0,0,1-3.25-4.2c-.53-.75-1.1-1.54-1.7-2.32a15.09,15.09,0,0,0,1.42-1.87,11.83,11.83,0,0,0,3.71,3.6A20.57,20.57,0,0,0,95,48.64Z"/><path class="cls-1" d="M78.79,45.77a13.72,13.72,0,0,1-13.18-10,15.83,15.83,0,0,1-4.09-.58,17.6,17.6,0,0,0-3.38,7.26,11,11,0,0,0,3.21,2.38,7.24,7.24,0,0,1,3.7,4.29,8.25,8.25,0,0,1,.24,1.12,13.61,13.61,0,0,1,14.55-.51c.39.23.77.48,1.14.74a16.13,16.13,0,0,0,6.13-4.93c-.42-.58-.87-1.15-1.32-1.72A13.56,13.56,0,0,1,78.79,45.77ZM73,46.45a15.05,15.05,0,0,0-3.89.51,15.3,15.3,0,0,0-2.91,1.11A8.64,8.64,0,0,0,62,43.58,10.48,10.48,0,0,1,59.68,42,16.39,16.39,0,0,1,62.1,36.8a17,17,0,0,0,2.46.34,15.23,15.23,0,0,0,9.79,9.38A12.57,12.57,0,0,0,73,46.45Zm8.09,2.37-.52-.32a15.33,15.33,0,0,0-3.14-1.37q.68.06,1.38.06a15,15,0,0,0,6.3-1.4A14.77,14.77,0,0,1,81.07,48.82Z"/></svg>