<svg id="圖層_1" data-name="圖層 1" xmlns="http://www.w3.org/2000/svg" viewBox="0 0 121.38 114.19"><defs><style>.cls-1{fill:#fff;}</style></defs><title>0</title><path class="cls-1" d="M26.34,59.29c-.49-.54-1-1.09-1.45-1.65a1.53,1.53,0,0,0,.34-.58l.07-.24a1.42,1.42,0,0,0-1-1.76l-1.88-.55-.59-.81a54.14,54.14,0,0,1-4.21-7.12,1.39,1.39,0,0,0,1-.87l.09-.24a1.4,1.4,0,0,0-.05-1.08,1.42,1.42,0,0,0-.8-.74L16.05,43c-.28-.68-.51-1.28-.71-1.86a47,47,0,0,1-1.47-4.9,1.33,1.33,0,0,0,.28,0,1.53,1.53,0,0,0,.3,0,1.39,1.39,0,0,0,.89-.62l.14-.21a1.43,1.43,0,0,0-.42-2L13,32.12c-.31-1.73-.52-3.28-.65-4.73a72.84,72.84,0,0,1,.2-14.18l0-.13A1.42,1.42,0,0,0,12.25,12a1.44,1.44,0,0,0-.38-.32l1.37-9A1.42,1.42,0,0,0,12.05,1.1L9.88.76H9.66a1.27,1.27,0,0,0-.28,0A1.4,1.4,0,0,0,8.26.12L6,0A1.4,1.4,0,0,0,4.8.64,1.42,1.42,0,0,0,4,.41H3.9L1.7.61A1.41,1.41,0,0,0,.41,2.14l.78,8.91a1.5,1.5,0,0,0-.33.23,1.45,1.45,0,0,0-.46,1v.14a86.32,86.32,0,0,0,1,14.47l-1,1.19a1.42,1.42,0,0,0,.13,2l.19.16a1.41,1.41,0,0,0,.93.36h.09a1.53,1.53,0,0,0,.36-.07,67.07,67.07,0,0,0,2.33,8.36L2.82,40.68a1.41,1.41,0,0,0,.13,2l.18.16a1.43,1.43,0,0,0,.94.36h.09a1.46,1.46,0,0,0,1-.48l.48-.55q.54,1.3,1.11,2.52A59.84,59.84,0,0,0,10.13,51L9,53.45a1.42,1.42,0,0,0,.72,1.87l.23.11a1.47,1.47,0,0,0,.58.12,1.32,1.32,0,0,0,.51-.1,1.38,1.38,0,0,0,.78-.74l.31-.68c1.09,1.55,2.26,3.06,3.49,4.5q1.62,1.9,3.48,3.78a1.42,1.42,0,0,0,1,.42h.05a15.57,15.57,0,0,0,5.61-1l.16-.07a1.4,1.4,0,0,0,.84-1,1.44,1.44,0,0,0-.33-1.26Zm-1.1,1.16a14.69,14.69,0,0,1-5.06.86h-.05l0,0c-1.19-1.18-2.32-2.41-3.38-3.66a60.77,60.77,0,0,1-4.83-6.5l-1.34,3-.23-.1,1.41-3.18A60,60,0,0,1,8,44.09c-.7-1.5-1.33-3-1.91-4.61l-2,2.3-.19-.16L6,39.22a65.37,65.37,0,0,1-2.89-10.6C3.05,28.31,3,28,3,27.67L1.6,29.2,1.42,29l1.49-1.7A83.4,83.4,0,0,1,1.82,12.46v-.14l.91.06L1.83,2,4,1.83V2L5,12.53l.44,0L6,1.42l2.2.11v.13l-.59,11,.45,0L9.66,2.17l2.18.33,0,.12L10.25,12.88l.92.06,0,.13A73.91,73.91,0,0,0,11,27.51c.16,1.86.44,3.67.77,5.46l2.57,1.66-.14.21-2.37-1.53A56.25,56.25,0,0,0,14,41.61c.3.84.63,1.67,1,2.5l2.39.87-.09.24-2.17-.8A54.77,54.77,0,0,0,20.7,54.51l.89,1.23,2.35.68-.07.24-2-.59c1.07,1.43,2.22,2.83,3.45,4.18l.11.13Z"/><path class="cls-1" d="M67.21,41.13h0v.13L66.9,53.2l.5,0,1.48-11.44.72.09c-.33-.78-.64-1.58-.94-2.39Z"/><path class="cls-1" d="M120.85,105.24l-.09-.07A62,62,0,0,1,114,98.52a1.49,1.49,0,0,0,.3-.57l.07-.25a1.43,1.43,0,0,0-.15-1.07,1.37,1.37,0,0,0-.86-.66l-1.87-.5-.07-.09c-.19-.24-.38-.47-.56-.71a54.1,54.1,0,0,1-4.37-7,1,1,0,0,0,.22-.09,1.4,1.4,0,0,0,.72-.81l.08-.24a1.43,1.43,0,0,0-.89-1.8l-1.82-.61c-.29-.68-.53-1.28-.75-1.85q-.89-2.3-1.59-4.86l.25,0a1.42,1.42,0,0,0,1.21-.67l.13-.22a1.43,1.43,0,0,0-.46-2l-2.08-1.28c-.35-1.71-.6-3.26-.76-4.71a73.22,73.22,0,0,1-.13-14.17v-.13a1.37,1.37,0,0,0-.35-1.06,1.48,1.48,0,0,0-.39-.31l1.17-9a1.43,1.43,0,0,0-.29-1,1.38,1.38,0,0,0-.94-.54L97.6,42l-.19,0a1.65,1.65,0,0,0-.31,0A1.43,1.43,0,0,0,96,41.41l-2.24-.06a1.44,1.44,0,0,0-1,.38,1.54,1.54,0,0,0-.23.29,1.39,1.39,0,0,0-.75-.21h-.16l-2.19.25a1.41,1.41,0,0,0-1.25,1.56l1,8.89a1.55,1.55,0,0,0-.33.24,1.38,1.38,0,0,0-.43,1v.14c0,1.7.09,3.37.2,5-.38-.44-.77-.87-1.14-1.32a1.51,1.51,0,0,0,.33-.58l.07-.24a1.4,1.4,0,0,0-.12-1.08,1.42,1.42,0,0,0-.84-.68L85,54.51l-.58-.81a52,52,0,0,1-4.21-7.12,1.43,1.43,0,0,0,1-.87l.08-.24a1.41,1.41,0,0,0-.84-1.82L78.61,43c-.27-.68-.5-1.28-.71-1.86-.55-1.54-1-3.18-1.47-4.9a1.43,1.43,0,0,0,.29,0,1.53,1.53,0,0,0,.3,0,1.44,1.44,0,0,0,.89-.62L78,35.4a1.41,1.41,0,0,0-.42-2l-2.05-1.32c-.3-1.73-.52-3.28-.64-4.73a72.84,72.84,0,0,1,.2-14.18v-.13A1.42,1.42,0,0,0,74.81,12a1.44,1.44,0,0,0-.38-.32l1.37-9a1.41,1.41,0,0,0-.25-1.06,1.47,1.47,0,0,0-.93-.56L72.44.76h-.22a1.24,1.24,0,0,0-.27,0A1.4,1.4,0,0,0,70.82.12L68.54,0a1.4,1.4,0,0,0-1.18.64,1.42,1.42,0,0,0-.78-.23h-.12l-2.19.2A1.41,1.41,0,0,0,63,2.14l.78,8.91a1.56,1.56,0,0,0-.34.23,1.43,1.43,0,0,0-.45,1v.14a86.33,86.33,0,0,0,1,14.47l-1,1.19a1.42,1.42,0,0,0,.12,2l.19.16a1.41,1.41,0,0,0,.94.36h.09a1.36,1.36,0,0,0,.35-.07,67.07,67.07,0,0,0,2.33,8.36l-.68.77-1.37,0a1.39,1.39,0,0,0-1,.38,1.41,1.41,0,0,0-.29.4,1.44,1.44,0,0,0-.86-.29h-.16l-2.34.26A1.43,1.43,0,0,0,59,42l1.08,9.68a1.56,1.56,0,0,0-.4.27,1.44,1.44,0,0,0-.43,1v.13a92.83,92.83,0,0,0,1.45,15.63l-1.14,1.36a1.39,1.39,0,0,0-.32,1,1.42,1.42,0,0,0,.5,1l.19.16a1.44,1.44,0,0,0,.91.33,1.39,1.39,0,0,0,.6-.14c.55,2.33,1.21,4.64,2,6.89l-.36.44a1.44,1.44,0,0,0-.33,1,1.47,1.47,0,0,0,.51,1l.19.16a1.42,1.42,0,0,0,.91.33h.15c.73,1.89,1.54,3.72,2.4,5.44a66.69,66.69,0,0,0,3.85,6.74l-1.15,2.77a1.38,1.38,0,0,0,0,1.09,1.41,1.41,0,0,0,.76.76l.23.1a1.54,1.54,0,0,0,.55.11,1.43,1.43,0,0,0,1.31-.87l.39-.94c1.25,1.7,2.59,3.36,4,4.93A72.43,72.43,0,0,0,90,113.87l.1.07a1.38,1.38,0,0,0,.8.25,1.42,1.42,0,0,0,1.14-.56l2.32-3.09a1.41,1.41,0,0,0-.22-1.94l-.09-.08a68.42,68.42,0,0,1-7.46-7.26,1.38,1.38,0,0,0,.41-.67l.06-.24a1.41,1.41,0,0,0-.14-1.08,1.46,1.46,0,0,0-.86-.66l-2.09-.55-.68-.9a59.33,59.33,0,0,1-4.81-7.73,1.29,1.29,0,0,0,.38-.12,1.45,1.45,0,0,0,.72-.82l.08-.23a1.42,1.42,0,0,0-.89-1.8l-2-.69c-.32-.75-.59-1.41-.84-2-.67-1.76-1.27-3.59-1.78-5.46a1.5,1.5,0,0,0,.47.08,1.39,1.39,0,0,0,1.2-.68l.14-.21a1.48,1.48,0,0,0,.17-1.07,1.41,1.41,0,0,0-.64-.88l-2.33-1.43c-.33-1.68-.6-3.4-.79-5.13A78.14,78.14,0,0,1,72,55.17a1.43,1.43,0,0,0,.27.15l.23.11a1.42,1.42,0,0,0,.57.12,1.25,1.25,0,0,0,.51-.1,1.4,1.4,0,0,0,.79-.74l.3-.68c1.09,1.55,2.26,3,3.49,4.5,1.08,1.27,2.25,2.53,3.49,3.78a1.52,1.52,0,0,0,1.06.42,15.48,15.48,0,0,0,5.6-1l.17-.07a1.12,1.12,0,0,0,.28-.16c.22,2.33.53,4.62.93,6.84l-1,1.22a1.42,1.42,0,0,0,.18,2l.19.16a1.38,1.38,0,0,0,.91.33,1.26,1.26,0,0,0,.47-.08A68.24,68.24,0,0,0,93,80.29l-1.52,1.8a1.43,1.43,0,0,0,.18,2l.19.16a1.42,1.42,0,0,0,2-.17l.48-.57c.38.87.77,1.7,1.16,2.5A63,63,0,0,0,99,92.21l-1,2.51a1.47,1.47,0,0,0,0,1.09,1.4,1.4,0,0,0,.77.76l.23.1a1.49,1.49,0,0,0,.54.11,1.42,1.42,0,0,0,1.31-.87l.29-.69c1.12,1.52,2.33,3,3.59,4.42a68.52,68.52,0,0,0,12.17,10.67l.1.06a1.41,1.41,0,0,0,.8.26,1.43,1.43,0,0,0,1.14-.57l2.16-2.88A1.41,1.41,0,0,0,120.85,105.24Zm-33-44.79a14.83,14.83,0,0,1-5.06.86h0l0,0c-1.18-1.18-2.32-2.41-3.38-3.66a60.77,60.77,0,0,1-4.83-6.5l-1.34,3-.23-.1,1.41-3.18a60.3,60.3,0,0,1-3.41-6.14l-1.11,8.61,1,0v.13a80,80,0,0,0,.14,15.6c.23,2,.54,3.94.94,5.85l2.85,1.76-.13.21L71.9,75.29a59.55,59.55,0,0,0,2.64,8.94c.35.91.72,1.8,1.12,2.69l2.6.88-.08.24-2.38-.81A58.41,58.41,0,0,0,82.1,98c.32.44.65.87,1,1.3l2.55.68-.06.24-2.24-.59a67.93,67.93,0,0,0,9.75,10l.09.07-2.33,3.09-.1-.06a71.83,71.83,0,0,1-12.86-11.28,66,66,0,0,1-5.38-6.91l-1.38,3.31-.23-.09,1.44-3.47a63.26,63.26,0,0,1-4.18-7.22,67.18,67.18,0,0,1-3-7.16l-.78.94-.19-.16.88-1a69.83,69.83,0,0,1-2.55-9.13c-.08-.34-.13-.7-.19-1l-1.44,1.71L60.66,71l1.57-1.87a90.56,90.56,0,0,1-1.55-16.05v-.13h.13l.85,0L60.42,41.82l2.35-.26,1.28,11.52.49,0,.35-12,2,.06,1.67-1.9a65.37,65.37,0,0,1-2.89-10.6c0-.31-.09-.64-.15-.95L64.17,29.2,64,29l1.49-1.7a83.4,83.4,0,0,1-1.09-14.88v-.14l.91.06L64.39,2l2.19-.19,0,.12.92,10.58.44,0,.59-11.14,2.2.11v.13l-.58,11,.45,0L72.23,2.17l2.17.33,0,.12L72.82,12.88l.91.06v.13a74.74,74.74,0,0,0-.21,14.44c.17,1.86.44,3.67.77,5.46l2.57,1.66-.13.21-2.37-1.53a53.88,53.88,0,0,0,2.22,8.3c.3.84.63,1.67,1,2.5l2.39.87-.09.24-2.17-.8a54.24,54.24,0,0,0,5.6,10.09c.29.41.58.82.89,1.23l2.34.68-.07.24-2-.59c1.07,1.43,2.23,2.83,3.45,4.18l.12.13Zm30,48.76-.09-.07a65.73,65.73,0,0,1-11.92-10.45,59.78,59.78,0,0,1-5-6.38l-1.27,3-.23-.1,1.34-3.2a59.49,59.49,0,0,1-3.88-6.68q-1.09-2.22-2-4.56l-2,2.35L92.56,83l2-2.45A65.65,65.65,0,0,1,91.48,70c-.07-.32-.11-.65-.17-1L90,70.65l-.19-.16,1.45-1.73A84.16,84.16,0,0,1,89.81,53.9v-.13h.13l.79,0L89.58,43.46l2.19-.24L93,53.9l.44,0,.33-11.15,2.2.06V43l-.33,11L96,54l1.37-10.6,2.19.28L98.25,54.12l.92,0v.13a74.51,74.51,0,0,0,.13,14.45c.21,1.85.53,3.66.9,5.44l2.61,1.6-.14.21-2.4-1.47a55.91,55.91,0,0,0,2.41,8.24c.32.83.67,1.66,1,2.48l2.4.82-.08.23-2.19-.74a54.26,54.26,0,0,0,5.83,10c.31.41.64.81,1,1.21l2.32.62-.07.24-2-.53a62.75,62.75,0,0,0,9,9.21l.09.07Z"/><path class="cls-1" d="M61.94,108.52a67.43,67.43,0,0,1-7.45-7.26,1.44,1.44,0,0,0,.4-.67l.07-.24a1.43,1.43,0,0,0-1-1.74l-2.09-.55-.67-.9a56,56,0,0,1-4.81-7.73,1.15,1.15,0,0,0,.37-.12,1.42,1.42,0,0,0,.72-.82l.08-.23a1.42,1.42,0,0,0-.89-1.8l-2-.69c-.33-.75-.6-1.41-.84-2A55.36,55.36,0,0,1,42,78.26a1.5,1.5,0,0,0,.47.08,1.41,1.41,0,0,0,1.21-.68l.13-.21A1.39,1.39,0,0,0,44,76.38a1.41,1.41,0,0,0-.64-.88L41,74.07c-.33-1.68-.6-3.4-.8-5.13a78.81,78.81,0,0,1-.13-15.33v-.13a1.44,1.44,0,0,0-.35-1,1.35,1.35,0,0,0-.47-.35l.5-3.86c.51.93,1.05,1.84,1.61,2.75L40.3,53.45A1.42,1.42,0,0,0,41,55.32l.23.11a1.47,1.47,0,0,0,.58.12,1.32,1.32,0,0,0,.51-.1,1.38,1.38,0,0,0,.78-.74l.3-.68c1.1,1.55,2.27,3.06,3.5,4.5q1.62,1.9,3.48,3.78a1.54,1.54,0,0,0,1.06.42,15.57,15.57,0,0,0,5.61-1l.16-.07a1.4,1.4,0,0,0,.84-1,1.42,1.42,0,0,0-.34-1.26l-.11-.14c-.5-.54-1-1.09-1.45-1.65a1.4,1.4,0,0,0,.33-.58l.08-.24a1.42,1.42,0,0,0-1-1.76l-1.88-.55-.59-.81a54.14,54.14,0,0,1-4.21-7.12,1.39,1.39,0,0,0,1-.87l.09-.24a1.4,1.4,0,0,0,0-1.08,1.42,1.42,0,0,0-.8-.74L47.33,43c-.28-.68-.51-1.28-.71-1.86a47,47,0,0,1-1.47-4.9,1.33,1.33,0,0,0,.28,0,1.53,1.53,0,0,0,.3,0,1.39,1.39,0,0,0,.89-.62l.14-.21a1.43,1.43,0,0,0-.42-2l-2.05-1.32c-.31-1.73-.52-3.28-.65-4.73a72.84,72.84,0,0,1,.2-14.18l0-.13A1.42,1.42,0,0,0,43.53,12a1.34,1.34,0,0,0-.39-.32l1.38-9A1.42,1.42,0,0,0,43.33,1.1L41.16.76h-.22a1.27,1.27,0,0,0-.28,0A1.4,1.4,0,0,0,39.54.12L37.26,0a1.4,1.4,0,0,0-1.18.64A1.42,1.42,0,0,0,35.3.41h-.12L33,.61a1.41,1.41,0,0,0-1.29,1.53l.78,8.91a1.5,1.5,0,0,0-.33.23,1.45,1.45,0,0,0-.46,1v.14a86.32,86.32,0,0,0,1,14.47L31.63,28.1a1.42,1.42,0,0,0,.13,2l.18.16a1.43,1.43,0,0,0,.94.36H33a1.53,1.53,0,0,0,.36-.07,67.07,67.07,0,0,0,2.33,8.36l-.7.8-2.12-.06a1.39,1.39,0,0,0-1,.38,1.27,1.27,0,0,0-.3.4,1.44,1.44,0,0,0-.86-.29h-.15l-2.35.26A1.41,1.41,0,0,0,27,42L28,51.65a1.51,1.51,0,0,0-.39.27,1.45,1.45,0,0,0-.44,1v.13a92.82,92.82,0,0,0,1.46,15.63l-1.14,1.36a1.44,1.44,0,0,0-.33,1,1.42,1.42,0,0,0,.5,1l.19.16a1.41,1.41,0,0,0,1.52.19,72.22,72.22,0,0,0,2.78,9.15l-1.68,2a1.42,1.42,0,0,0,.17,2l.19.16a1.44,1.44,0,0,0,.91.33,1.42,1.42,0,0,0,1.09-.5l.64-.76c.43,1,.88,2,1.33,2.86a64.92,64.92,0,0,0,3.86,6.74l-1.16,2.77a1.47,1.47,0,0,0,0,1.09,1.43,1.43,0,0,0,.77.76l.23.1a1.49,1.49,0,0,0,.54.11,1.42,1.42,0,0,0,1.31-.87l.39-.94c1.26,1.7,2.6,3.35,4,4.93a72.36,72.36,0,0,0,13.11,11.5l.1.07a1.43,1.43,0,0,0,.81.25,1.41,1.41,0,0,0,1.13-.56l2.33-3.09A1.42,1.42,0,0,0,62,108.6Zm-3.14,4.25-.1-.06a71.9,71.9,0,0,1-12.87-11.28,66,66,0,0,1-5.38-6.91l-1.38,3.31-.23-.09,1.45-3.47a64.87,64.87,0,0,1-4.19-7.22c-.79-1.59-1.52-3.25-2.19-4.93l-2.14,2.54-.19-.16,2.23-2.64a70.23,70.23,0,0,1-3.39-11.37c-.07-.34-.12-.7-.19-1l-1.44,1.71L28.6,71l1.57-1.87a91.41,91.41,0,0,1-1.55-16.05v-.13h.13l.86,0L28.37,41.82l2.34-.26L32,53.08l.5,0,.35-12,2.36.07v.47l2.1-2.38a65.37,65.37,0,0,1-2.89-10.6c-.06-.31-.1-.64-.15-.95L32.88,29.2,32.7,29l1.49-1.7A83.4,83.4,0,0,1,33.1,12.46v-.14l.91.06L33.1,2l2.2-.19V2l.93,10.58.44,0,.58-11.14,2.2.11v.13l-.59,11,.45,0L40.94,2.17l2.18.33,0,.12L41.53,12.88l.92.06,0,.13a73.91,73.91,0,0,0-.2,14.44c.16,1.86.44,3.67.77,5.46l2.57,1.66-.14.21-2.37-1.53a55,55,0,0,0,2.22,8.3c.3.84.63,1.67,1,2.5l2.39.87-.09.24-2.17-.8A54.44,54.44,0,0,0,52,54.51l.89,1.23,2.34.68-.07.24-2-.59q1.6,2.15,3.44,4.18l.12.13-.16.07a14.69,14.69,0,0,1-5.06.86h-.05l0,0c-1.18-1.18-2.31-2.41-3.37-3.66a60.77,60.77,0,0,1-4.83-6.5l-1.34,3L41.6,54,43,50.85a58.44,58.44,0,0,1-3.72-6.76l-.3-.67-1.28,9.9,1,0v.13a80.74,80.74,0,0,0,.15,15.6c.22,2,.53,3.94.93,5.85l2.85,1.76-.13.21-2.64-1.63a58.4,58.4,0,0,0,2.64,8.94c.34.91.72,1.8,1.11,2.69l2.61.88-.08.24-2.39-.81A59,59,0,0,0,50.05,98c.32.44.65.87,1,1.3l2.55.68-.07.24-2.23-.59a67.35,67.35,0,0,0,9.74,10l.09.07Z"/><path class="cls-1" d="M37.37,39.48l-2,2.3-.17-.15L34.84,53.2l.51,0,1.48-11.44,1.53.2C38,41.16,37.69,40.33,37.37,39.48Z"/></svg>