<svg id="圖層_1" data-name="圖層 1" xmlns="http://www.w3.org/2000/svg" viewBox="0 0 65.48 112.2"><defs><style>.cls-1{fill:#fff;}</style></defs><title>0</title><path class="cls-1" d="M55.46,107.17a8.62,8.62,0,0,1,6.3-8.72h0a196.18,196.18,0,0,1-1.91-20.63,6.35,6.35,0,0,0-4,4.62,1.47,1.47,0,0,1,.48.38,10.21,10.21,0,0,1,2.2,5v.14H58.4a2.86,2.86,0,0,1-.43,0A23.17,23.17,0,0,1,54.16,105a1.18,1.18,0,0,1-1,.53,1.28,1.28,0,0,1-.48-.09,1.23,1.23,0,0,1-.75-1.37,68.53,68.53,0,0,0,.49-16.59,4.87,4.87,0,0,1-.94.15h-.17l0-.15a10.85,10.85,0,0,1,2.47-4.73,1.62,1.62,0,0,1,.73-.44,7.82,7.82,0,0,1,5.26-5.84c0-1,0-2-.07-3s0-1.76-.07-2.61L58.16,69q.15,2.13.18,4.47c0,.67,0,1.35,0,2a9.16,9.16,0,0,0-5,5.8,3,3,0,0,0-.55.45A12.56,12.56,0,0,0,50,87.09l0,.16a1.39,1.39,0,0,0,.23,1.23,1.36,1.36,0,0,0,.94.56,68.77,68.77,0,0,1-.27,12.65c.31,1.28.65,2.45,1,3.53C53.06,105.86,54.25,106.51,55.46,107.17Zm4.2-13.92c.17,1.41.35,2.81.55,4.19a9,9,0,0,0-1.32.66A23.78,23.78,0,0,0,59.66,93.25ZM57.47,82a4.87,4.87,0,0,1,1.09-1.69c.06,1.23.14,2.47.23,3.72A11.85,11.85,0,0,0,57.47,82Z"/><path class="cls-1" d="M61.73,106.44l.12.63c.3,1.45.62,2.83.95,4.17l1.69,1c-.44-1.71-.86-3.52-1.25-5.41q-.52-2.58-1-5.36a9.72,9.72,0,0,1-4.64,6.92l1.38.76A12.69,12.69,0,0,0,61.73,106.44Z"/><path class="cls-1" d="M63.68,75.68c-.44-.52-.94-1.11-1.46-1.74,0,3.14.19,6.36.41,9.59a6.42,6.42,0,0,1,1.3-2C63.82,79.56,63.73,77.61,63.68,75.68Z"/><path class="cls-1" d="M65.47,103a29.57,29.57,0,0,0-1.68-8.12l-.07-.22c.48,3.75,1.08,7.38,1.76,10.81C65.47,104.72,65.46,103.91,65.47,103Z"/><path class="cls-1" d="M19.68,52.52a4.89,4.89,0,0,0-1.78-4.2c0,2.51,0,5-.09,7.33a12,12,0,0,1,1.06-2.45A1.68,1.68,0,0,1,19.68,52.52Z"/><path class="cls-1" d="M21.82,39a6.84,6.84,0,0,1-3.18.81,5.27,5.27,0,0,1-1-.09c.13,2.48.22,4.95.26,7.39a6,6,0,0,1,2.83,5.35,1.71,1.71,0,0,1,1,.74,19.87,19.87,0,0,1,1.82,3.94c-.25-4.7-.67-9.42-1.27-13.94C22.09,41.72,21.94,40.33,21.82,39Zm-2.53,7.37c0-1.64-.09-3.37-.17-5.15A9,9,0,0,0,20.59,41c.08.8.18,1.6.28,2.39.26,1.92.48,3.9.68,5.91A7.31,7.31,0,0,0,19.29,46.35Z"/><path class="cls-1" d="M17.48,37.2a8.52,8.52,0,0,1,4.05-3.86,58.52,58.52,0,0,1,1.31-13.76c-.35-.6-.7-1.19-1-1.79a57.32,57.32,0,0,0-1.69,14.72,11.69,11.69,0,0,0-1.48,1c-.24-2.87-.53-5.63-.88-8.21A71,71,0,0,1,17.32,9.2c-.4-.84-.78-1.67-1.13-2.49a69.17,69.17,0,0,0,.16,18.79C16.84,29.25,17.22,33.21,17.48,37.2Z"/><path class="cls-1" d="M1.51,47.82a2.82,2.82,0,0,0,1.33.33,2.73,2.73,0,0,0,2.13-1,27.88,27.88,0,0,0,6.66-18.86l.14-.11a1.41,1.41,0,0,0,.47-1.05V27A13.1,13.1,0,0,0,10,20.29a.44.44,0,0,0-.08-.11A3.24,3.24,0,0,1,11.86,19c.12,2.29.34,4.65.65,7,.76,5.75,1.26,12,1.45,18.16a9.21,9.21,0,0,0-7.8,4.36A15.49,15.49,0,0,0,4,53.77l0,.16a1.42,1.42,0,0,0,1.39,1.68h.17l.17,0A15,15,0,0,0,14,52.24c0,2.41-.12,4.72-.26,6.91-.11,1.9-.28,3.7-.47,5.42.24.19.48.39.71.6s.39.38.59.57c.24-2,.44-4.19.59-6.5.23-3.65.31-7.56.26-11.56-.72,2.17-3,5.64-10,6.49l-.17,0,0-.16a14.14,14.14,0,0,1,2-4.71,7.86,7.86,0,0,1,8.09-3.62,186.52,186.52,0,0,0-1.5-19.88c-.4-3-.62-5.79-.71-8.35l-.4,0a4.84,4.84,0,0,0-4.66,3,1.81,1.81,0,0,1,.71.61,11.84,11.84,0,0,1,2,5.91v.14h-.14a4.35,4.35,0,0,1-.52-.1A26.62,26.62,0,0,1,3.89,46.24a1.36,1.36,0,0,1-1.05.5,1.51,1.51,0,0,1-.67-.17,1.39,1.39,0,0,1-.7-1.63A78.32,78.32,0,0,0,3.89,26,4,4,0,0,1,2.77,26l-.16,0,.06-.15A12.83,12.83,0,0,1,6,20.72a1.87,1.87,0,0,1,1.09-.46,6,6,0,0,1,5.7-3.84l.37,0A58.35,58.35,0,0,1,14.46,2.32c-.29-.76-.58-1.53-.9-2.32a55.91,55.91,0,0,0-1.81,15.07,7.4,7.4,0,0,0-5.63,4,3.22,3.22,0,0,0-1,.61,14,14,0,0,0-3.75,5.69l-.06.15a1.42,1.42,0,0,0,1.16,1.92A75.24,75.24,0,0,1,.11,44.56,2.81,2.81,0,0,0,1.51,47.82Z"/><path class="cls-1" d="M26.44,86.08a7.83,7.83,0,0,0,1.45.14,7.44,7.44,0,0,0,3.62-.94c-.21.91-.42,1.78-.66,2.62a2.91,2.91,0,0,0,1.45,3.37,3,3,0,0,0,1.38.34,2.88,2.88,0,0,0,2.2-1A29.82,29.82,0,0,0,43,70.4a1.33,1.33,0,0,0,.19-.14,1.44,1.44,0,0,0,.46-1.05v-.14A13.82,13.82,0,0,0,41.3,62a4.67,4.67,0,0,1,3-2A190.3,190.3,0,0,0,43.5,84c-1.8.79-7.09,4-5.06,13.63l0,.2a1.38,1.38,0,0,0,.24.52l1.17.6a1.45,1.45,0,0,0,.82-.28l.16-.12a21.29,21.29,0,0,0,3.47-3.44q.45,3.64,1.13,6.72l1.68.88a79.44,79.44,0,0,1-1.85-12A17.69,17.69,0,0,1,40,97.43l-.16.12,0-.2c-2-9.69,3.94-12,4.63-12.19A2.07,2.07,0,0,1,45,85a188,188,0,0,1,.93-26.64h-.24a6.41,6.41,0,0,0-6.1,3.81,1.92,1.92,0,0,1,.56.54,12.65,12.65,0,0,1,2.1,6.33v.14l-.14,0a4.82,4.82,0,0,1-.57-.1,28.45,28.45,0,0,1-6.71,20.57,1.43,1.43,0,0,1-1.11.53A1.56,1.56,0,0,1,33,90a1.48,1.48,0,0,1-.74-1.74,64.41,64.41,0,0,0,1.5-7c-1.95,2.89-4.2,3.55-5.83,3.55a6.25,6.25,0,0,1-1.54-.19,5.48,5.48,0,0,1-1.07-.4c-.34,2.54-.77,4.86-1.27,7l1.31.62C25.75,90,26.12,88.14,26.44,86.08Z"/><path class="cls-1" d="M21.87,89.69A89.14,89.14,0,0,0,23.56,76.6c.13-2,.2-4.09.24-6.21a14.46,14.46,0,0,1-5.71-11.94,2.47,2.47,0,0,1-.41.09c0,.14,0,.29,0,.43q-.3,5-.93,9.23c.4.56.79,1.14,1.15,1.75.21-1.22.39-2.48.56-3.8a15.55,15.55,0,0,0,3.93,4.91c-.05,2.06-.12,3.85-.22,5.45-.12,1.78-.27,3.48-.44,5.1a39.27,39.27,0,0,1,.21,6.89C21.89,88.92,21.88,89.31,21.87,89.69Z"/><path class="cls-1" d="M50.53,103.83c.13-.71.23-1.43.32-2.14A83.77,83.77,0,0,1,49,87.82c-.31-5-.36-10.52-.15-16.19a12.2,12.2,0,0,0,6.81,2.8l.2,0H56a1.43,1.43,0,0,0,1.1-.52,1.4,1.4,0,0,0,.24-1.35l-.06-.19c-.12-.34-2.67-7.73-8-8.7.15-1.81.31-3.56.5-5.27-.41-.52-.81-1-1.23-1.59-.32,2.7-.59,5.43-.79,8.2l.36,0c5.1,0,7.78,7.75,7.81,7.83l.06.19-.2,0c-5.83-.75-7.63-3.92-8.18-5.87a171.41,171.41,0,0,0-.07,20.75,76.14,76.14,0,0,0,2.52,16.35l.45.24A2.52,2.52,0,0,1,50.53,103.83Z"/><path class="cls-1" d="M29.79,34.75a1.89,1.89,0,0,1,1.63.42,23.11,23.11,0,0,1,4.06,4.76l.09.14-.16,0a4.17,4.17,0,0,1-1.35.15A37.24,37.24,0,0,0,42.3,51.62a1.35,1.35,0,0,1,.28,1.68,1.38,1.38,0,0,1-1.19.72A1.32,1.32,0,0,1,41,54,16.75,16.75,0,0,1,29.2,42.2a2.54,2.54,0,0,1-.79.39l-.13,0,0-.13a16.2,16.2,0,0,1,0-6.35,1.9,1.9,0,0,1,.57-.94,5.19,5.19,0,0,0-2.13-2.68,14.24,14.24,0,0,1-2.58,4.58c.12,1.81.29,3.72.56,5.75.38,2.9.69,5.94.94,9,5.17.36,6.67,8.24,6.69,8.32l0,.18-.18,0c-3.7-.76-5.48-2.8-6.27-4.71.27,4.51.38,9.05.34,13.38.09.16.18.33.28.49A1.18,1.18,0,0,1,26.33,71a.41.41,0,0,1-.11.07c0,1.81-.1,3.58-.2,5.27-.11,1.85-.26,3.6-.43,5.28,1.87-3.07,6.51-3.52,8.57-3.56A95.53,95.53,0,0,0,34.81,68,4.69,4.69,0,0,1,33.6,68l-.16,0,.06-.15a13.6,13.6,0,0,1,3.59-5.49,2,2,0,0,1,1.19-.49,7.85,7.85,0,0,1,7.36-4.76H46c.11-1,.22-2,.35-2.95,0-.05,0-.09,0-.13L45.16,52.4c-.06.53-.1,1-.18,1.58s-.14,1.16-.21,1.75a9.19,9.19,0,0,0-7.46,4.9,3.31,3.31,0,0,0-1.15.66,15,15,0,0,0-4,6.05l-.06.15a1.39,1.39,0,0,0,.11,1.24,1.41,1.41,0,0,0,1.05.68h.08c0,1.79-.17,4.34-.47,7.27a14.45,14.45,0,0,0-5.57,1.47l.12-1.75c.08-1.4.14-2.93.19-4.77a2.61,2.61,0,0,0,.13-2.86l-.08-.13c0-2.88,0-5.82-.13-8.76a11,11,0,0,0,4.35,1.84l.18,0a1.43,1.43,0,0,0,.29,0,1.46,1.46,0,0,0,1-.4,1.43,1.43,0,0,0,.41-1.27l0-.19c-.06-.34-1.5-7.89-6.76-9.28-.24-2.81-.53-5.49-.86-8-.21-1.64-.38-3.31-.5-5.09A14.6,14.6,0,0,0,27.21,35v0a3.17,3.17,0,0,0-.31.79,17.74,17.74,0,0,0-.05,7l0,.14a1.46,1.46,0,0,0,.67.92,1.52,1.52,0,0,0,.72.19h.07A18,18,0,0,0,40.61,55.33a3,3,0,0,0,.78.11,2.81,2.81,0,0,0,1.87-4.87,35,35,0,0,1-7.08-9.23,1.28,1.28,0,0,0,.54-.49c-1.66-2.33-3.31-4.72-4.94-7.13a3.23,3.23,0,0,0-1.09-.39,7.38,7.38,0,0,0-5.21-3.82c.08-1.76.23-3.37.42-4.84l-1.15-1.88a58.16,58.16,0,0,0-.74,8h0A6,6,0,0,1,29.79,34.75Z"/><path class="cls-1" d="M23.79,63.22c0-1.63-.1-3.27-.18-4.93a3.66,3.66,0,0,1-1-.2A34.2,34.2,0,0,0,23.79,63.22Z"/><path class="cls-1" d="M24.05,31.83H24v.52c.51-.15,1-.27,1.39-.36A5.59,5.59,0,0,0,24.05,31.83Z"/></svg>