<svg id="圖層_1" data-name="圖層 1" xmlns="http://www.w3.org/2000/svg" viewBox="0 0 140.78 72.57"><defs><style>.cls-1{fill:#fff;}</style></defs><title>0</title><path class="cls-1" d="M140.19,32.21c-.14-.36-.29-.77-.44-1.25-.8-2.64-2.79-4-5.93-4a24.28,24.28,0,0,0-2.79.22,6.55,6.55,0,0,1-.72.05,3.5,3.5,0,0,1-1.77-.5,9.21,9.21,0,0,0-3.31-1,9,9,0,0,0-1.07-.06,26,26,0,0,0-5.94.89,19.5,19.5,0,0,0-6.82-11.32,17.29,17.29,0,0,0-11.93-3.93h-2a9.37,9.37,0,0,1-3.59-.48,18.91,18.91,0,0,0-5.43-1.34,9.21,9.21,0,0,0-.86-2.82,7.6,7.6,0,0,0-6.73-4.36,6.63,6.63,0,0,0-2.7.56,2.86,2.86,0,0,0-1.8,3.42,2.91,2.91,0,0,0,2.91,1.92A4.63,4.63,0,0,0,80,8.19a2.89,2.89,0,0,1,.5,0c1,0,1.72.69,2.2,2A13.18,13.18,0,0,0,79.25,12a14.94,14.94,0,0,1-6.79,2.73l-.94.19a14.13,14.13,0,0,0-1.08-1.1c-4.35-4-8.43-4.23-11.72-4.41a10.88,10.88,0,0,1-4.08-.7,17.89,17.89,0,0,0-3.38-1.26c.54-1.92,1.57-1.92,1.92-1.92l.31,0a3.44,3.44,0,0,0,.54,0,2.83,2.83,0,0,0,2.9-2A2.73,2.73,0,0,0,55,.4,5.9,5.9,0,0,0,52.85,0a7.09,7.09,0,0,0-6.41,4.42,8.86,8.86,0,0,0-.65,2.69,11.84,11.84,0,0,0-4.66,1.74,13.59,13.59,0,0,1-6.32,2.05,13,13,0,0,0-8.43,3.72,16.43,16.43,0,0,0-4.55,9.05,9.46,9.46,0,0,0-1.34-.08h-.57a3.46,3.46,0,0,1-2.19-.65c-1.55-1-3.48-2.17-5.54-2.17a5.2,5.2,0,0,0-3.95,1.87c-.33.37-.65.68-.93.95a5.22,5.22,0,0,0-2,4.67c.1,1.65,1.26,3,2.19,4.1a9.16,9.16,0,0,1,1,1.36,2.7,2.7,0,0,1-1,.56,5.36,5.36,0,0,0-2.24,1.55,3.9,3.9,0,0,0-.75,2.72,1.51,1.51,0,0,1-.21,1.09,4,4,0,0,1-1,.78A5.8,5.8,0,0,0,0,45.24a7.29,7.29,0,0,0,1.84,5.81,4,4,0,0,0,2.82,1.17,3.75,3.75,0,0,0,.48,0c.42,0,.84-.12,1.31-.2a11.49,11.49,0,0,1,2.09-.26,3.85,3.85,0,0,1,2.39.75,6.35,6.35,0,0,0,3.7,1.31,5.33,5.33,0,0,0,1-.09,5.48,5.48,0,0,0,3.6-2.61.49.49,0,0,1,.46-.28.81.81,0,0,1,.27,0,.62.62,0,0,1,.37.79,8.87,8.87,0,0,1-.66,1.65c-.67,1.43-1.93,4.08,1.18,6.05a7.11,7.11,0,0,0,3.77,1.15c.79,0,.93.06,1.33.58a4.15,4.15,0,0,0,3.35,1.79,6.38,6.38,0,0,0,2.08-.42c.22-.07.42-.14.62-.19a1.75,1.75,0,0,1,.4,0,5.78,5.78,0,0,1,1,.11,7.52,7.52,0,0,0,1.43.16c1.65,0,3.08-.82,4.52-2.58l.37-.47.06.13A3.12,3.12,0,0,1,40,60.78c.12,4,.56,5.07,2.6,6.14a8.52,8.52,0,0,1,1.3.79,3.67,3.67,0,0,0,2.25.82,3.08,3.08,0,0,0,.95-.14c1.57-.49,2.85-2.14,3.8-4.93a6.25,6.25,0,0,1,2.81-3.28C55.3,59,57.26,57.63,57.59,54a7.28,7.28,0,0,1,2.25-.47,3.75,3.75,0,0,1,1.35.25,2.44,2.44,0,0,1,.5.23,11.58,11.58,0,0,1-1.56,1.93,21.93,21.93,0,0,0-1.65,2C56,61.29,58.57,66.19,60.19,68a4.73,4.73,0,0,0,3.44,1.5h.27a9.43,9.43,0,0,0,6.34-2.81c1.19-1.14,1.57-1.14,2-1.14l.61,0c.34,0,.71.05,1.14.05a12.47,12.47,0,0,0,2.15-.2,4.92,4.92,0,0,0,4-3.44c.06-.15.14-.33.2-.46h0a5.28,5.28,0,0,1-.1,1.56c-.21,1.38-.55,3.68,1.63,4.55.57.23.77.56,1.2,1.36a6.86,6.86,0,0,0,2.64,3,3.86,3.86,0,0,0,2,.6,5.09,5.09,0,0,0,3.21-1.52,7.37,7.37,0,0,1,2.21-1.4l.28-.1c2.81-1,5.46-1.9,6.35-6.89.2-1.08.62-1.25,2.72-1.62a11.18,11.18,0,0,0,6.3-2.77l.13,0a7.18,7.18,0,0,0,2.88.62,7.6,7.6,0,0,0,1-.07c3.65-.47,3.64-3.41,3.63-5a9.28,9.28,0,0,1,.1-1.78.62.62,0,0,1,.66-.55.54.54,0,0,1,.58.51A5.46,5.46,0,0,0,119.9,56a5.54,5.54,0,0,0,3.32,1,8,8,0,0,0,1.43-.14,4.06,4.06,0,0,1,.76-.07,6.16,6.16,0,0,1,3.51,1.52c.37.27.73.51,1.09.74a3.88,3.88,0,0,0,2.09.6,4.28,4.28,0,0,0,1.39-.24,7.3,7.3,0,0,0,4.13-4.48,5.78,5.78,0,0,0-1-5.76,4.31,4.31,0,0,1-.61-1.14,1.53,1.53,0,0,1,.28-1.08,3.89,3.89,0,0,0,.47-2.78,5.3,5.3,0,0,0-1.38-2.36,2.73,2.73,0,0,1-.64-.91,8.74,8.74,0,0,1,1.52-.8c1.3-.59,2.92-1.33,3.72-2.79A5.22,5.22,0,0,0,140.19,32.21Zm-1.41,4.4c-.56,1-1.89,1.65-3.06,2.18s-2.38,1.08-2.37,2a3,3,0,0,0,1,2,4.06,4.06,0,0,1,1.06,1.73,2.56,2.56,0,0,1-.36,1.83,2.87,2.87,0,0,0-.4,2,4.67,4.67,0,0,0,.82,1.68c.74,1.14,1.59,2.42.8,4.48A5.87,5.87,0,0,1,133,58.05a2.9,2.9,0,0,1-.94.16,2.54,2.54,0,0,1-1.34-.38c-.34-.21-.67-.45-1-.7-1.41-1-3-2.12-5.35-1.68a4.63,4.63,0,0,1-3.66-.64,4.11,4.11,0,0,1-1.59-2.91,2,2,0,0,0-1.93-1.76,2,2,0,0,0-2.1,1.71,10.81,10.81,0,0,0-.13,2c0,1.68,0,3.26-2.39,3.57a5.68,5.68,0,0,1-3.2-.46,4.44,4.44,0,0,0-1.12-.33c-.1.12-.19.25-.31.37a9.6,9.6,0,0,1-5.77,2.6c-1.94.35-3.48.62-3.86,2.77-.75,4.17-2.71,4.85-5.43,5.8l-.28.1A8.63,8.63,0,0,0,90,70a3.9,3.9,0,0,1-2.31,1.19,2.47,2.47,0,0,1-1.28-.39,5.6,5.6,0,0,1-2.12-2.42,3.6,3.6,0,0,0-1.92-2c-1.13-.45-.94-1.76-.75-3s.4-2.71-.94-3.09-1.5.29-1.9,1.24a3.55,3.55,0,0,1-2.9,2.59,11.65,11.65,0,0,1-2.94.13c-1.27-.09-2-.13-3.66,1.5a8.18,8.18,0,0,1-5.36,2.42h-.22a3.32,3.32,0,0,1-2.43-1c-1.32-1.49-3.57-5.68-1.62-8.41a21.39,21.39,0,0,1,1.55-1.82c1.12-1.22,2.17-2.38,2-3.27-.12-.48-.6-.87-1.47-1.19a6.58,6.58,0,0,0-4.55.22c-.32.1-.62.19-.9.26,0,3.77-1.63,4.93-3.35,6.16a7.54,7.54,0,0,0-3.33,4c-.45,1.31-1.41,3.57-2.88,4a1.89,1.89,0,0,1-.53.08,2.31,2.31,0,0,1-1.4-.54,10.16,10.16,0,0,0-1.49-.92c-1.29-.67-1.72-.9-1.84-4.92A4.43,4.43,0,0,0,41.05,59a3.94,3.94,0,0,0-1.55-1.8A19.67,19.67,0,0,1,38.22,59c-2,2.39-3.31,2.15-4.62,1.93a4.51,4.51,0,0,0-1.91-.06c-.23,0-.48.14-.74.22a5.16,5.16,0,0,1-1.64.35,2.71,2.71,0,0,1-2.22-1.24,2.67,2.67,0,0,0-2.38-1.12,5.71,5.71,0,0,1-3.09-.94c-2.05-1.3-1.37-2.73-.66-4.24A10.56,10.56,0,0,0,21.72,52a2,2,0,0,0-1.19-2.44,2,2,0,0,0-2.49.78,4.09,4.09,0,0,1-2.68,2,4.57,4.57,0,0,1-3.57-1c-1.94-1.39-3.87-1-5.57-.74-.42.08-.82.15-1.21.19A2.57,2.57,0,0,1,2.85,50a5.9,5.9,0,0,1-1.41-4.67c.16-2.2,1.47-3,2.63-3.72a4.8,4.8,0,0,0,1.45-1.18A2.9,2.9,0,0,0,6,38.51a2.51,2.51,0,0,1,.45-1.81,4,4,0,0,1,1.69-1.12,3.11,3.11,0,0,0,1.76-1.35c.39-.8-.4-1.73-1.31-2.79a6.34,6.34,0,0,1-1.86-3.27c-.11-1.9.53-2.53,1.59-3.57.29-.29.63-.62,1-1,2.43-2.7,5.34-.9,7.68.56a5,5,0,0,0,3.21.87A7.82,7.82,0,0,1,23,25.4c.48-3.94,2-7.53,4.35-9.75A11.63,11.63,0,0,1,35,12.31,14.93,14.93,0,0,0,41.88,10,10.6,10.6,0,0,1,47.09,8.4c0-.15,0-.3,0-.45A9,9,0,0,1,47.74,5C49.2,1.74,52.33.88,54.53,1.72a1.36,1.36,0,0,1,1,1.51c-.14.56-.78,1.06-1.9.92-2-.25-3.38,1-3.91,3.49a8.08,8.08,0,0,0-.14.91A16.18,16.18,0,0,1,54,10a11.79,11.79,0,0,0,4.62.84c3.22.18,6.87.39,10.84,4A15.46,15.46,0,0,1,71,16.49c.57-.14,1.15-.26,1.73-.37a16.39,16.39,0,0,0,7.36-3,11.38,11.38,0,0,1,4.37-2c0-.26-.1-.53-.18-.82-.73-2.69-2.33-4-4.49-3.57-1.21.22-1.93-.28-2.11-.87a1.45,1.45,0,0,1,1-1.7c2.35-1.06,5.81-.31,7.59,3.15a9.62,9.62,0,0,1,.84,3.18l.06.35A16.91,16.91,0,0,1,93.3,12.2a13,13,0,0,0,5.11.58c3.51,0,7.5-.07,12.1,3.62a18.39,18.39,0,0,1,6.58,12c2.94-.81,6-1.4,8-1.18a7.67,7.67,0,0,1,2.84.85,4.94,4.94,0,0,0,3.28.58c2.73-.33,6.14-.74,7.2,2.75.15.51.32.95.46,1.34C139.38,34.1,139.69,34.94,138.78,36.61Z"/></svg>