<svg id="圖層_1" data-name="圖層 1" xmlns="http://www.w3.org/2000/svg" viewBox="0 0 111.63 103.48"><defs><style>.cls-1{fill:#fff;}</style></defs><title>0</title><path class="cls-1" d="M67.79,20.22a9,9,0,0,1,1.77,4.7A20.31,20.31,0,0,0,69.8,27a9.5,9.5,0,0,1,.84-1.69,7.93,7.93,0,0,1-1.23-6.21C69,19.46,68.4,19.84,67.79,20.22Z"/><path class="cls-1" d="M111.42,19.35a1.44,1.44,0,0,0-1.21-.66,1.21,1.21,0,0,0-.49.09l-.58.21a8.32,8.32,0,0,1-3,.6A10,10,0,0,1,102,18.45l1.13-.2.28,0a1.42,1.42,0,0,0,1.18-1,1.4,1.4,0,0,0-.44-1.48l-.21-.19c-3.09-2.62-5.87-3.84-8.76-3.84a14.32,14.32,0,0,0-7.69,2.62,6.64,6.64,0,0,1-1.71.74,8,8,0,0,0,.61-1.51,11.74,11.74,0,0,0-.52-8A7.63,7.63,0,0,1,85.2,1.7,1.42,1.42,0,0,0,84.08.08l-.25,0a1.24,1.24,0,0,0-.27,0,1.46,1.46,0,0,0-1.38,1.05s-.57,1.91-3.6,5c-2.2,2.21-4.21,4.47-4.69,7.62A6.48,6.48,0,0,0,71,15.77c-.06-.18-.13-.35-.2-.52a11.69,11.69,0,0,0,1.58-1.31c3.78-3.72,2.06-9.36,2-9.6l-.08-.24a1.41,1.41,0,0,0-1.11-1l-.24,0a1.42,1.42,0,0,0-1.14.58l-.14.19c-.74,1-3.13,3.59-5.25,3.79a10.58,10.58,0,0,0-4.12,1.16,10.3,10.3,0,0,0-1.09-.07A6,6,0,0,0,58,9.61c-.54-.69-1.11-1.4-1.64-2C55,5.91,53.34,3.86,53,2.85a1.41,1.41,0,0,0-1.35-1,1.31,1.31,0,0,0-.39,0L51,2a1.41,1.41,0,0,0-1,1.71,15.1,15.1,0,0,1,.08,6.06c-.7,3.16-1,6.5,1.55,9.81A10.49,10.49,0,0,0,49.1,25a9.18,9.18,0,0,1-2.44,4.45c-.56-.6-1.13-1.29-1.7-2-.44-.57-.88-1.11-1.33-1.62l.16-.23A1.61,1.61,0,0,0,44,24.4c0-.08-1.84-8.7-10.85-8.88H32.9a10,10,0,0,0-5,1.18,13.56,13.56,0,0,0-9.42-4.46,8.23,8.23,0,0,0-2.8.47,5.88,5.88,0,0,0-4.22,4.92c-2.7.67-4.08,2.51-5.33,4.16A14.41,14.41,0,0,1,1,26.55l-.23.12a1.42,1.42,0,0,0,.08,2.55l.25.11a9.17,9.17,0,0,0,3.35.61A9.29,9.29,0,0,0,10,28.1a5.73,5.73,0,0,1,.64-.39l-.24.37a10.18,10.18,0,0,1-4.6,3.73l-.3.1a1.42,1.42,0,0,0-.11,2.63l.3.13a14.9,14.9,0,0,0,5.38,1.06,7.24,7.24,0,0,0-.54,2.08c-.28,2.9,1.13,6,2.36,8a27.89,27.89,0,0,0,2.65,3.7l.07.08a1.5,1.5,0,0,0,1.09.45,1.55,1.55,0,0,0,.56-.11,33.83,33.83,0,0,0,5.29-2.54l.06.48c.79,5.72,0,7.67-.38,7.9a1.41,1.41,0,0,0-.42,1.93l.13.21a1.42,1.42,0,0,0,1.2.67,1.4,1.4,0,0,0,.71-.19c.08,0,7.41-4.38,9.52-10.67a39,39,0,0,0,5.35,1.79C46.22,51.47,53,62.94,56.3,73.46c1,3.17,1.81,6.45,2.63,9.93a122.47,122.47,0,0,0,5.81,19.23,1.56,1.56,0,0,0,1.43.86l.24,0,.13,0c5.07-.82,9.62-1.26,13.4-1.58l.31,0a1.42,1.42,0,0,0,1-2.33l-.27-.32c-.27-.32-.54-.63-.8-1A66.13,66.13,0,0,1,69.55,79.6c-2.4-7-2.3-12.72.3-16.47,1.2-1.75,2.33-3.25,3.46-4.74,3.84-5.06,6.86-9.06,8.65-18.26.14-.76.27-1.47.39-2.14a10.31,10.31,0,0,0,.87,1.13c.7.79,1.32,1.47,1.88,2.07l.06.08c2.23,2.43,3.06,3.33,3.52,5.14l.06.25a1.44,1.44,0,0,0,1.1,1.05l.28,0a1.41,1.41,0,0,0,1.13-.56l.16-.21a15.61,15.61,0,0,0,2.78-9.45A33.64,33.64,0,0,0,99,35.69a1.52,1.52,0,0,0,.83-1.29,15,15,0,0,0-2.14-7.74h.08c.29,0,.59,0,.89,0s.54,0,.81,0c5.51,0,10.65-4.64,11.23-5.17l.45-.43A1.43,1.43,0,0,0,111.42,19.35Zm-1.66,1.18c-.05,0-5.59,5.21-10.94,4.76a14.48,14.48,0,0,0-3.7.2,13.63,13.63,0,0,1,3.34,8.83v.08l-.07,0a28.73,28.73,0,0,1-5.77,2c1,5.15-2.3,9.61-2.34,9.67l-.16.21-.06-.26c-.55-2.15-1.59-3.28-3.85-5.75-.57-.62-1.2-1.31-1.93-2.13A7.18,7.18,0,0,1,82.34,33c-.16-.25-.3-.5-.43-.75-.13.7-.27,1.48-.43,2.42-.23,1.37-.52,3.07-.92,5.16-1.71,8.87-4.66,12.75-8.38,17.67-1.12,1.47-2.27,3-3.5,4.78-2.86,4.14-3,10.27-.47,17.74A67.29,67.29,0,0,0,79,99.11c.36.46.73.88,1.1,1.32h-.31c-4.27.36-8.69.81-13.51,1.59l-.12,0-.13,0a120.8,120.8,0,0,1-5.75-19c-.83-3.5-1.61-6.81-2.66-10-3.21-10.08-10-22.64-18.58-24.86a38.32,38.32,0,0,1-6.68-2.39c-1,6.49-9.16,11.36-9.26,11.41L23,57c1.33-.87,1.7-4.25,1-9.27a15.35,15.35,0,0,1-.19-2.87,28.31,28.31,0,0,1-7.08,3.8l-.08,0-.06-.06a26.36,26.36,0,0,1-2.51-3.5C13,43.23,11.69,40.46,11.93,38a5.92,5.92,0,0,1,2-3.84,15.62,15.62,0,0,1-2.46.21,14.13,14.13,0,0,1-5.25-.94L6,33.25l.3-.11a11.49,11.49,0,0,0,5.34-4.32,7.88,7.88,0,0,1,3-2.91,6.53,6.53,0,0,1-.56-.35A8.09,8.09,0,0,0,9.15,27,7.93,7.93,0,0,1,1.65,28l-.23-.1.23-.12a16,16,0,0,0,5.66-5.17c1.43-1.9,2.7-3.55,5.63-3.81-.11-.64-.36-3.48,3.26-4.79s8.68.84,11.48,4.55a8,8,0,0,1,5.22-1.65h.22c7.88.15,9.46,7.66,9.48,7.74v.05l0,0a6.3,6.3,0,0,1-.86,1,25.24,25.24,0,0,1,2.11,2.44,19.29,19.29,0,0,0,4.37,4.43,7.33,7.33,0,0,1,3-1.21,4.2,4.2,0,0,1,2.72.29,22.41,22.41,0,0,1,.52-3.16,27.78,27.78,0,0,1-7.52,2.91l-.11,0,0-.11c0-.08,0-.11.21-.3a11.1,11.1,0,0,0,3.51-5.87,8.29,8.29,0,0,1,3.19-5.51c-3.17-3.29-2.83-6.66-2.17-9.65a16.31,16.31,0,0,0-.09-6.72l.24-.07c.41,1.27,2,3.26,3.6,5.19.88,1.07,1.79,2.19,2.5,3.19a6.18,6.18,0,0,1,.79-.71,5.17,5.17,0,0,1,4-.64,8.93,8.93,0,0,1,4-1.23c3.22-.3,6.23-4.31,6.26-4.35l.14-.2.08.23s1.54,5.05-1.64,8.17A10.24,10.24,0,0,1,69,14.73a8,8,0,0,1,.92,2.08l0,.07,0,.06a21.24,21.24,0,0,1-3.65,2.58l-.56.27A8.89,8.89,0,0,1,68.15,25a47.83,47.83,0,0,0,2,9.49c.06-.52.1-1.05.13-1.63a23.33,23.33,0,0,1,.53-4.19,8.84,8.84,0,0,1,1.58-3.35,7,7,0,0,1-1.53-6c1-3.38,3.12-4.23,4-4.44.12,0,.25,0,.37-.05.11-3.15,2-5.31,4.38-7.76,3.42-3.52,4-5.63,4-5.65l.25.05A8.94,8.94,0,0,0,84.53,6a10.32,10.32,0,0,1,.5,7.13,7.09,7.09,0,0,1-2.61,3.67,10.42,10.42,0,0,0,5.83-1.29C93.81,12,98,12.32,103,16.63l.21.18-.28,0a29.78,29.78,0,0,0-5.79,1.47,15.4,15.4,0,0,1,4.08,1.34c2.39,1.06,4.65,2.06,8.39.66l.58-.22ZM70.64,25.32A9.5,9.5,0,0,0,69.8,27a20.31,20.31,0,0,1-.24-2.09,9,9,0,0,0-1.77-4.7c.61-.38,1.16-.76,1.62-1.11A7.93,7.93,0,0,0,70.64,25.32Z"/></svg>