<svg id="圖層_1" data-name="圖層 1" xmlns="http://www.w3.org/2000/svg" viewBox="0 0 126.18 77.4"><defs><style>.cls-1{fill:#fff;}</style></defs><title>0</title><path class="cls-1" d="M126.07,19.88a3,3,0,0,0-.33-2.46A2.66,2.66,0,0,0,124,16.34c.59-1.78.93-3.6.47-4.85a2.57,2.57,0,0,0-1.4-1.49,3.34,3.34,0,0,0-1.29-.26A4.65,4.65,0,0,0,118.83,11a3.31,3.31,0,0,0-.44-.4,3.14,3.14,0,0,0-2-.67,4.28,4.28,0,0,0-2.23.7,8,8,0,0,0-1.9,1.74l-.1-.07A11.43,11.43,0,0,0,112.72,9c0-2.06-.9-3.72-2.35-4.32a3,3,0,0,0-1.17-.24l-.27,0c-.66-1.9-2.1-4.44-5.12-4.44l-.44,0a5.5,5.5,0,0,0-4.69,4,3.06,3.06,0,0,0-.85-.12,3.16,3.16,0,0,0-1.24.25c-1.69.71-2.27,3.2-2.42,5.61a2.72,2.72,0,0,0-.63.2,4.49,4.49,0,0,0-2.36,3.16,19.67,19.67,0,0,0-3.48-6,5.76,5.76,0,0,0-4.08-1.94,4.39,4.39,0,0,0-1.52.27A4.69,4.69,0,0,0,79.59,7.6a5.38,5.38,0,0,0-1.84-.34,4.24,4.24,0,0,0-3,1.17c-1.77,1.65-1.72,4.48-1.4,6.48a2.72,2.72,0,0,0-1,.74,3.23,3.23,0,0,0-.65,2.51,3.76,3.76,0,0,0-.76-.1h-.21a5.49,5.49,0,0,0-4.84,3.2,5,5,0,0,0-1-.11,3.47,3.47,0,0,0-2.06.63c-1.22.85-1.8,2.41-1.76,4.73l-.34,0a2.43,2.43,0,0,0-1.6.59,2.16,2.16,0,0,0-.44.48v0c-1.58-3.33-3.48-4-4.8-4h-.11a3.8,3.8,0,0,0-2.1.77,5.38,5.38,0,0,0-2.67-1.68,4,4,0,0,0-.84-.1,3.87,3.87,0,0,0-2.29.77c-2.33,1.67-2.56,4.84-2.44,6.86a4,4,0,0,0-1.85,1,3.44,3.44,0,0,0-.95,2.75c.15,2.13,1.81,4.66,3.71,6.44a3.18,3.18,0,0,0-.73.94,4,4,0,0,0,.49,3.93,4.36,4.36,0,0,0-1.69.66,6.24,6.24,0,0,0-.64.45A10.63,10.63,0,0,0,42.11,44c0-2.06-.9-3.72-2.35-4.32a3.13,3.13,0,0,0-1.17-.23h-.26C37.5,37.09,35.85,35,33.19,35l-.43,0a5.52,5.52,0,0,0-4.69,4,3,3,0,0,0-.85-.12,3.25,3.25,0,0,0-1.24.26c-1.69.71-2.27,3.2-2.42,5.6a3.06,3.06,0,0,0-.63.2,4.71,4.71,0,0,0-2.44,3.47,11.1,11.1,0,0,0-.26,1.46l-.17,0c-.88-2.47-2.28-5.75-4.07-7.61a5.82,5.82,0,0,0-4.08-1.93,4.62,4.62,0,0,0-1.52.26,4.69,4.69,0,0,0-2.51,2.17A5.42,5.42,0,0,0,6,42.49a4.25,4.25,0,0,0-3,1.18c-1.77,1.65-1.73,4.48-1.4,6.47a2.57,2.57,0,0,0-1,.74C-.72,52.54.43,55.17.8,56c2.68,6.11,5.85,9.32,9.44,9.56C12.84,68.37,21.76,77.4,27.6,77.4a4.88,4.88,0,0,0,2-.42l.08,0a1.39,1.39,0,0,0,.35,0h.1a5.11,5.11,0,0,0,.87-.15,1.37,1.37,0,0,0,.64.15h.14c5.51-.14,7.73-1.66,8.55-2.56a2.86,2.86,0,0,0,.86-2.11s0-.1,0-.15c2.63-.73,6.67-2.15,8-4.19a2.56,2.56,0,0,0,.37-2.07,3.5,3.5,0,0,0-1.17-1.85c3-2.59,5.32-6.26,5.93-8.78,1.3,1.17,3.75,2.28,7.59,3.5a1.4,1.4,0,0,0,.91.33,1.27,1.27,0,0,0,.39,0,1.56,1.56,0,0,0,.48-.14l.76,0a25,25,0,0,0,10-1.83c4.21-1.79,4.73-3.8,4.62-4.9a21.44,21.44,0,0,0,3.23-1.48c2.91-1.62,3.58-3.78,3-5.23a15,15,0,0,0,3.31-4.57A4.9,4.9,0,0,0,89.05,37c4.22,3.42,7.66,5.16,10.26,5.16a5.33,5.33,0,0,0,1.37-.19h.11a6,6,0,0,0,1.83-.45,1.38,1.38,0,0,0,.78.24h.14c5.52-.14,7.73-1.67,8.56-2.56a2.86,2.86,0,0,0,.85-2.12s0-.09,0-.14c2.63-.73,6.67-2.15,8-4.19a2.6,2.6,0,0,0,.38-2.08,3.55,3.55,0,0,0-1.18-1.84C123.15,26.18,125.53,22.4,126.07,19.88Zm-8.84,9.32c.76.08,2.31.42,2.67,1.83a1.19,1.19,0,0,1-.19,1c-1,1.63-5.28,3.25-9.2,4.1a1.22,1.22,0,0,1,1,1.07,1.54,1.54,0,0,1-.48,1.07c-.55.59-2.37,2-7.55,2.11h-.11l0-.1c0-.06,0-.28-.1-.62a6.43,6.43,0,0,1-2.58.94h-.07l0,0a3.72,3.72,0,0,1-1.27.23c-3.76,0-9.38-4.63-13.06-8.1a9.07,9.07,0,0,1-.47,4.11,1.45,1.45,0,0,1,1.42.08c.4.25,1.2,1.1.11,3.46a14,14,0,0,1-4.19,5.13A1,1,0,0,1,84,46c.38.82-.19,2.26-2.33,3.45A17.59,17.59,0,0,1,77,51.32a1.19,1.19,0,0,1,.69.78c.13.44.21,2-3.73,3.67a23.61,23.61,0,0,1-9.49,1.71,7.53,7.53,0,0,0-1.17.06l-.15.05,0,.07-.1,0-.17.07.07-.1c-5.54-1.72-8.35-3.26-8.33-4.58,0-.69.75-1.1,1.2-1.29a34.08,34.08,0,0,1-4.41-2.08,22.32,22.32,0,0,1-1.41,4A3.52,3.52,0,0,1,52,53a1.28,1.28,0,0,1,.85.52A1.71,1.71,0,0,1,53,54.81c-.53,2.48-3.59,7.24-7.45,9.63.75.08,2.31.41,2.67,1.82a1.19,1.19,0,0,1-.2,1c-1,1.64-5.27,3.25-9.19,4.1a1.21,1.21,0,0,1,1,1.07,1.48,1.48,0,0,1-.48,1.08c-.54.59-2.37,2-7.54,2.1h-.11l0-.11s0-.15-.05-.31a5.49,5.49,0,0,1-1.53.41H30l-.47-.27a1.24,1.24,0,0,1-.48.4A3.54,3.54,0,0,1,27.6,76c-5.78,0-15.89-10.87-16.73-11.79h-.19c-3.16,0-6-2.93-8.58-8.73-.78-1.78-.89-3-.34-3.67a1.81,1.81,0,0,1,1.61-.46c-.24-.94-1.16-4.91.67-6.62s4-.32,4.65.13A3.45,3.45,0,0,1,10.87,42,3.87,3.87,0,0,1,15,43.32c2.29,2.36,4,7.55,4.48,9.34.2-1.07.74-1.33,1.08-1.38a1.55,1.55,0,0,1,1.06.32,10.61,10.61,0,0,1,.27-2.82,3.43,3.43,0,0,1,1.64-2.51,1.91,1.91,0,0,1,1.44,0c0-1,.08-5.14,1.59-5.78a1.65,1.65,0,0,1,1.29,0A2.54,2.54,0,0,1,29,41.51c.15-1.25.86-4.8,3.94-5.07,3.28-.27,4.28,3.86,4.48,4.9A1.77,1.77,0,0,1,39.22,41a3.08,3.08,0,0,1,1.48,3,11.15,11.15,0,0,1-1.15,4.65,1.2,1.2,0,0,1,1.28-.14,1.34,1.34,0,0,1,.47.5,7.3,7.3,0,0,1,1.94-1.94,2.1,2.1,0,0,1,2.57-.12,2.47,2.47,0,0,1,.88,1.83A9.6,9.6,0,0,1,48,47.35a12.38,12.38,0,0,1-2.16-2.25c-1-1.33-1.26-2.41-.86-3.2a2.88,2.88,0,0,1,2.26-1.22c-2.22-1.26-4.93-4.55-5.1-6.89a2.06,2.06,0,0,1,.55-1.66,3.55,3.55,0,0,1,2.4-.81c-.15-.88-.72-5.18,1.7-6.91a2.37,2.37,0,0,1,2-.45,5.58,5.58,0,0,1,2.92,2.55,2.73,2.73,0,0,1,2.23-1.6c.92,0,2.28.49,3.57,3.22A17.05,17.05,0,0,1,59,34a2.56,2.56,0,0,1,.33.16c-.05-1.06-.2-5.17.82-6,.81-.7,2.11.28,2.67.78-.51-3.19-.2-5.2.93-6a3.11,3.11,0,0,1,3,.09c.22-.71,1.31-3.65,4.19-3.55s3.66,4.73,3.8,5.91a1.9,1.9,0,0,1,1.56-.58,28.56,28.56,0,0,1-2.47-4.57c-.77-1.78-.89-3-.34-3.67a1.8,1.8,0,0,1,1.62-.47c-.25-.93-1.17-4.91.66-6.62s4-.31,4.65.13a3.47,3.47,0,0,1,2.18-2.84,3.89,3.89,0,0,1,4.1,1.32c2.29,2.37,3.95,7.55,4.48,9.35.19-1,.69-1.3,1-1.37a10.17,10.17,0,0,1,.28-2.29,3.39,3.39,0,0,1,1.64-2.51,1.9,1.9,0,0,1,1.43,0c0-1,.08-5.13,1.6-5.77a1.61,1.61,0,0,1,1.29,0A2.59,2.59,0,0,1,99.55,6.5c.16-1.25.86-4.8,3.94-5.07,3.3-.29,4.29,3.86,4.48,4.89A1.77,1.77,0,0,1,109.82,6c.92.37,1.48,1.53,1.48,3a11,11,0,0,1-1.15,4.65,1.22,1.22,0,0,1,1.29-.14,1.93,1.93,0,0,1,.77,1.5A9.33,9.33,0,0,1,115,11.83a2.12,2.12,0,0,1,2.58-.12,2.44,2.44,0,0,1,.87,1.83c.68-.92,2.42-2.94,4.11-2.23a1.11,1.11,0,0,1,.62.68c.59,1.58-.92,5.16-1.47,6.37a3.51,3.51,0,0,1,2.08-.62,1.23,1.23,0,0,1,.85.51,1.74,1.74,0,0,1,.09,1.33C124.15,22.06,121.09,26.82,117.23,29.2Z"/><path class="cls-1" d="M82.39,29a6.42,6.42,0,0,1-4.61-2.29,5.75,5.75,0,0,1,0,1.95,11.37,11.37,0,0,1-1.17,4,2.47,2.47,0,0,1,.36-.11,6.32,6.32,0,0,1,2.71-1.93,1,1,0,0,1,.89.21,2.74,2.74,0,0,1,.47,2c.58-.59,2.09-1.93,3.57-1.72-1.08-1.08-1.83-1.88-2-2.1Z"/></svg>