<svg id="圖層_1" data-name="圖層 1" xmlns="http://www.w3.org/2000/svg" viewBox="0 0 141.69 83.09"><defs><style>.cls-1{fill:#fff;}</style></defs><title>0</title><path class="cls-1" d="M137.73,43.08c2-1.2,5-3,3.61-6a4.34,4.34,0,0,0-4.18-2.64,14.2,14.2,0,0,0-3.33.54,12.48,12.48,0,0,1-2.86.5,3.47,3.47,0,0,1-.49,0c-.92-.17-1.39-1-2-2.25a8.26,8.26,0,0,0-1.27-1.95,19.73,19.73,0,0,0-1.08-2.68.78.78,0,0,0-.09-.21,27.22,27.22,0,0,0-2.66-4.08,1,1,0,0,0-.15-.2l-.2-.23c-5.53-6.32-14.65-10.27-24.41-10.56l-1.31,0c-8.34,0-16.16,2.64-21.77,7.3A15.29,15.29,0,0,0,75,14c-.38-1.56-.6-2.56-.22-3.35s1.08-1,2.5-1.13c1.14-.12,2.43-.25,3.23-1.4A3.75,3.75,0,0,0,80,3.2a1.39,1.39,0,0,0-1-.38H79a1.44,1.44,0,0,0-1,.44l-.17.19a1.45,1.45,0,0,0,.06,2,.64.64,0,0,1,.16.83A5.41,5.41,0,0,1,77,6.43c-1.4.15-3.75.38-4.95,2.86-.88,1.83-.44,3.66,0,5.42a13.39,13.39,0,0,1,.53,4.59,43.09,43.09,0,0,0-18.35-6c-1.4-.14-2.85-.2-4.31-.2h-1A17.57,17.57,0,0,1,49,10.59a33.42,33.42,0,0,0,.27-3.5c.06-5-3.35-6.8-5.16-7.07a.75.75,0,0,0-.21,0,1.41,1.41,0,0,0-.84.28,1.34,1.34,0,0,0-.56.93l0,.25a1.43,1.43,0,0,0,1.16,1.6c.27,0,2.61.59,2.57,4A30.48,30.48,0,0,1,46,10.24a19.07,19.07,0,0,0-.19,3c-10.9,1-20.39,5.89-25.58,13.35l-.12.18a1.18,1.18,0,0,0-.19.39l-.36.59c-.16-1.68-.65-3.26-2.5-3.88a3.14,3.14,0,0,0-.95-.15c-1.54,0-2.49,1.18-3.25,2.13s-1.32,1.58-2.07,1.58a8.44,8.44,0,0,1-2.88-1A9.49,9.49,0,0,0,4,25.24,4,4,0,0,0,.66,27c-1.83,2.51.57,4.72,2.16,6.18.72.66,1.92,1.77,1.94,2.29,0,.14-.2.36-.28.43C2,38.33.86,40.39,1,42.21a3.55,3.55,0,0,0,1.4,2.64,5.06,5.06,0,0,0,3,.63c.54,0,1.15,0,1.8,0s1.32,0,2,0a6.53,6.53,0,0,1,2.88.37,6,6,0,0,1-.71,2.31c-.68,1.54-1.83,4.11,1,6a10.31,10.31,0,0,0,5.49,1.14,29.15,29.15,0,0,0,4.5-.37l.37.45a1.4,1.4,0,0,0,.36.69l.27.29C29.42,62.68,38.69,67,48.79,68c1.51.15,3,.22,4.53.22h.53A3.2,3.2,0,0,0,54,69,3,3,0,0,0,57.18,71L58,71c.25,0,.5,0,.75,0,.66,0,.91.14,1.13.42a9.36,9.36,0,0,1-1.21,1.55c-1.18,1.32-2.79,3.12-3.07,5.6a4.22,4.22,0,0,0,4.22,4.58h.24c4.92-.27,6.7-4.76,7.88-7.74a14.93,14.93,0,0,1,1-2.21c.32.15.55.64,1,2s.94,3,2.45,3.71a3.69,3.69,0,0,0,1.67.37,6,6,0,0,0,2-.38c3.88-1.35,4.13-6.11,4.31-9.59a21.66,21.66,0,0,1,.28-3c.2.2.34.69.55,1.87l0,.26A4.69,4.69,0,0,0,86,72.19h.24a4.69,4.69,0,0,0,4.55-4.29,17.57,17.57,0,0,0-.38-4.48l-.13-.84a5.48,5.48,0,0,1-.07-.6,13.9,13.9,0,0,0,4.48,1.82A9.63,9.63,0,0,1,98,65.11c.87.57,1.12,2.13,1.37,3.63.34,2.12.86,5.31,4.17,5.31h.17c2.49-.07,3.37-2.4,4-4a7.5,7.5,0,0,1,.68-1.49,9.9,9.9,0,0,1,.78,2.46,21,21,0,0,0,1.17,3.77c1,2.24,2.59,3.53,4.49,3.53h0a4.41,4.41,0,0,0,3.91-3c.25-.65.9-2.36,1.51-2.54a.27.27,0,0,1,.13,0,2.92,2.92,0,0,1,1.53.71,9.14,9.14,0,0,0,5.1,1.6,6.25,6.25,0,0,0,2.75-.57,3.74,3.74,0,0,0,2.24-3.24c.22-3.18-2.65-4.32-4.55-5.07-.62-.25-2.06-.82-2.08-1.13s.49-1.11,1-1.75c1-1.39,2.47-3.48.89-5.88a4.08,4.08,0,0,0-2.22-1.69A3.41,3.41,0,0,1,125,54.7a2.29,2.29,0,0,1,.9-.12,23.75,23.75,0,0,1,4.63.79,19.07,19.07,0,0,0,3.86.67,3,3,0,0,0,1.38-.28,3.65,3.65,0,0,0,2-2.43c.49-1.89-.31-4.32-2.41-7.43a1,1,0,0,1-.24-.66C135.21,44.61,136.73,43.69,137.73,43.08Zm-3.61,3.61c1.85,2.72,2.6,4.84,2.23,6.29a2.3,2.3,0,0,1-1.24,1.52c-.69.34-2.36-.06-4.29-.51-2.94-.7-6.61-1.56-7.17.25a5.77,5.77,0,0,0,0,2.8A2.64,2.64,0,0,1,126,58.29c1,1.58.07,2.94-.87,4.26a4.55,4.55,0,0,0-1.2,2.68c.08,1.2,1.48,1.76,3,2.35,1.79.71,3.81,1.51,3.66,3.65a2.36,2.36,0,0,1-1.44,2.07,7,7,0,0,1-6.41-.92c-1.16-.83-2.11-1.13-2.89-.89-1.17.35-1.84,1.87-2.42,3.39A3,3,0,0,1,114.75,77h0c-1.26,0-2.4-1-3.14-2.67a20.86,20.86,0,0,1-1.1-3.55c-.54-2.24-.93-3.86-2.54-3.49-.79.17-1.19,1.24-1.61,2.36-.53,1.4-1.13,3-2.66,3h-.14c-2.11,0-2.43-2-2.78-4.11-.29-1.81-.59-3.68-2-4.59A11.22,11.22,0,0,0,95,62.41a12,12,0,0,1-5.24-2.49c-.14-.11-.26-.23-.39-.35-.55.59-.8,1.54-.53,3.22,0,.29.09.57.14.85a17.35,17.35,0,0,1,.36,4.12,3.25,3.25,0,0,1-3.2,3A3.29,3.29,0,0,1,82.64,68l0-.25c-.29-1.6-.55-3-2.06-3.16a.87.87,0,0,0-.71.2c-.69.58-.77,2.31-.88,4.31-.16,3.25-.37,7.28-3.36,8.33a3.3,3.3,0,0,1-2.56.07c-1-.49-1.37-1.7-1.74-2.87-.47-1.47-.91-2.86-2.41-3H68.8c-.9,0-1.45,1.4-2.15,3.16C65.54,77.62,64,81.45,60,81.67h-.16a2.8,2.8,0,0,1-2.8-3c.22-2,1.6-3.53,2.7-4.77s2-2.27,1.37-3.24c-.85-1.21-2-1.13-3.18-1.06s-2.15.14-2.57-1.08a1.89,1.89,0,0,1,.3-1.77v0c-.78,0-1.57.07-2.36.07-1.45,0-2.92-.08-4.39-.22-9.76-1-18.71-5.07-24.55-11.28L24.11,55l.31.06c-.52-.57-1-1.17-1.49-1.78a27.34,27.34,0,0,1-5.08.51,9.53,9.53,0,0,1-4.72-.91c-1.83-1.2-1.18-2.66-.49-4.2a6.51,6.51,0,0,0,.81-3.15c-.17-1.69-3.58-1.58-6.32-1.48-1.8.06-3.36.11-3.92-.31a2.06,2.06,0,0,1-.83-1.58c-.08-1.36,1-3.12,3.1-5.22a2,2,0,0,0,.69-1.47c0-1.13-1.23-2.24-2.39-3.31-1.51-1.38-3.06-2.8-2-4.29,1.45-2,3.5-1.05,5.47-.13a9.4,9.4,0,0,0,3.44,1.13h0c1.5,0,2.4-1.12,3.2-2.12s1.51-1.88,2.65-1.51h0c1.48.49,1.54,2.1,1.6,4.14,0,.64.05,1.29.11,2a1.18,1.18,0,0,0,.59,1,24.65,24.65,0,0,1,2.41-4.7h-.06l.13-.18c5.25-7.55,15.06-12.27,26-12.85a11,11,0,0,1,0-4.14,32.78,32.78,0,0,0,.25-3.33c.06-4.77-3.7-5.4-3.74-5.4l0-.25c1.39.21,4,1.66,4,5.66a33.21,33.21,0,0,1-.25,3.35,10.61,10.61,0,0,0,0,4.1,44.07,44.07,0,0,1,6.38.14,41.52,41.52,0,0,1,19.48,7,12.87,12.87,0,0,0-.15-7.27c-.41-1.66-.76-3.09-.1-4.46.86-1.77,2.51-1.93,3.83-2.07.89-.09,1.67-.17,2-.68a2.1,2.1,0,0,0-.29-2.74L79,4.23a2.38,2.38,0,0,1,.33,3.07c-.42.61-1.25.69-2.21.79-1.32.14-2.83.29-3.62,1.92-.62,1.3-.28,2.69.11,4.3a13,13,0,0,1,.13,7.48c.46.33.91.66,1.35,1,5.57-5.34,14.17-8.41,23.42-8.11s18.12,4,23.4,10.09l.19.22h0a26.7,26.7,0,0,1,2.65,4,.28.28,0,0,1,0,.09h0l0,0A18.79,18.79,0,0,1,125.92,32a5.78,5.78,0,0,1,1.25,1.82c.65,1.26,1.39,2.68,3,3a10.67,10.67,0,0,0,3.95-.48c2.33-.57,4.74-1.16,5.88,1.31.85,1.83-1.14,3-3.06,4.2-1.49.91-3,1.84-3.3,3.06A2.29,2.29,0,0,0,134.12,46.69Z"/></svg>