<svg id="圖層_1" data-name="圖層 1" xmlns="http://www.w3.org/2000/svg" viewBox="0 0 119.96 159.34"><defs><style>.cls-1{fill:#fff;}</style></defs><title>0</title><path class="cls-1" d="M119.82,58.57c-.43-1.42-2.1-2.32-4-3.21a5.48,5.48,0,0,0,.35-.49,2.32,2.32,0,0,0,.6-1,3.17,3.17,0,0,0,.07-.57,4.73,4.73,0,0,0,.12-1,4.91,4.91,0,0,0-.69-2.49,4.93,4.93,0,0,0,.13-6.43,4.87,4.87,0,0,0,1.13-3.14,4.92,4.92,0,0,0-8.51-3.38,11.59,11.59,0,0,0-.92-3,9,9,0,0,1,5.17-2.9c5.12-1,5-3.76,4.85-4.57-.35-1.8-2.3-3.16-4.53-3.16a5.5,5.5,0,0,0-.91.08,27.34,27.34,0,0,0-6.92,2.08l.06,0a1.58,1.58,0,0,0,.74-1.33,1.53,1.53,0,0,0-.76-1.32,3.84,3.84,0,0,1-1.51-1.69,4.64,4.64,0,0,0-3.53-2.69c-3.32-.64-3.43-1.48-3.56-2.42,0-.12,0-.24,0-.39-.37-2-2.73-5.43-5.12-5.93a3.15,3.15,0,0,0-.61-.06,2.8,2.8,0,0,0-2.34,1.29c-.12.18-.24.36-.36.52A3.91,3.91,0,0,0,87.42,11c-1.94,0-3.53,1.41-5.55,3.18l-1.06.92a15.11,15.11,0,0,1-3,1.9c-1.87,1-3.81,2-5.08,5a29.74,29.74,0,0,1-2.26,4l0,0a1.51,1.51,0,0,0-.56-.11,1.54,1.54,0,0,0-.6.13,1.52,1.52,0,0,0-.92,1.14,10.86,10.86,0,0,0-.06,2.54l-.18.36A7.22,7.22,0,0,0,65,29.39a5.32,5.32,0,0,0-2.08.4,7.16,7.16,0,0,0-2.3,1.62,3.27,3.27,0,0,1-.84.67c-.15-.11-.35-.26-.62-.44a6.41,6.41,0,0,0,1.35-.6c2.11-1.19,2.65-3.7,3.14-5.92a7.81,7.81,0,0,1,1-3.08A1.6,1.6,0,0,0,65,20.61a1.54,1.54,0,0,0-1-1.09,11,11,0,0,0-2.95-.59,6.57,6.57,0,0,0,1.47-5.2,6.84,6.84,0,0,0-1.14-2.54c-.54-.81-.72-1.09-.44-1.9A1.69,1.69,0,0,0,60.92,8a1.56,1.56,0,0,0-1-.75A8.34,8.34,0,0,0,58,7.06a7.26,7.26,0,0,0-5.08,1.87,4.86,4.86,0,0,0-4.19,3.65,11.29,11.29,0,0,0-.31,2.9l-.08,0c-.59-1.79-1.46-3.19-3-3.29l-.38,0a4.63,4.63,0,0,0-2.78,1,22,22,0,0,0,0-5.43,1.56,1.56,0,0,0-.83-1.12,1.52,1.52,0,0,0-.69-.16,1.81,1.81,0,0,0-.72.17,7.09,7.09,0,0,1-3.16,1,1.89,1.89,0,0,1-.58-.08.49.49,0,0,1-.3-.25A6.59,6.59,0,0,0,32,3.64C31.06,3.26,30.45,3,29.67,1A1.57,1.57,0,0,0,28.5,0h-.27a1.58,1.58,0,0,0-1.16.52,8.2,8.2,0,0,0-1.9,6.27,7.78,7.78,0,0,0-2.93-.66h-.15a5.72,5.72,0,0,0-2.58.54,1.53,1.53,0,0,0-.81,1.09,5.62,5.62,0,0,0,.76,4.57A2.58,2.58,0,0,1,20,14,4.48,4.48,0,0,0,22.24,18l-.37.08a18.37,18.37,0,0,0-4.15-1c-1.25-.15-2.77-.43-4.41-.74a43.39,43.39,0,0,0-7.1-1,4.64,4.64,0,0,0-3,.77,2.44,2.44,0,0,0-1,1.82C2.16,20.24,4,21.45,5.83,22.14c-1.95,2.94-1.29,7.06-.49,9.19,0,.1,0,.17.06.18a4.32,4.32,0,0,1-.33.39,5.92,5.92,0,0,0-1.78,4.7,1.54,1.54,0,0,0,.52,1.12,1.53,1.53,0,0,0,1,.39l.21,0h.14a2.74,2.74,0,0,1,1,.33,5.22,5.22,0,0,0,2.25.6,4.46,4.46,0,0,0,.63,0,7.71,7.71,0,0,1-.59,2.15,5.11,5.11,0,0,0-.37,4,3.89,3.89,0,0,0,2,2.16,1.72,1.72,0,0,0,.59.12,1.75,1.75,0,0,0,.4-.05,5.66,5.66,0,0,0,.67,1.32,5.22,5.22,0,0,0,1,4.86,5.23,5.23,0,0,0-.51.84,12.2,12.2,0,0,0-2-.16A7.38,7.38,0,0,0,5.2,56a5.15,5.15,0,0,0-1.88,4.5A2.26,2.26,0,0,0,4.4,62c-2,.85-3.95,1.79-4.44,3.33a2.88,2.88,0,0,0,.23,2.28A4,4,0,0,0,1.74,69.1a9.15,9.15,0,0,0,.8,3.44A5,5,0,0,0,5.3,75.27a2.81,2.81,0,0,0,.91.16c1.26,0,2.4-.86,3.53-2.1,0,0,.15.1.16.12a12.34,12.34,0,0,0-1.09,3.1A5.06,5.06,0,0,0,11.21,82c1.54,4,6,4.78,6.13,4.8h.2a1.55,1.55,0,0,0,.93-.31,1.7,1.7,0,0,0,.6-1c.14-1.1.52-1.35,1.45-2a7.9,7.9,0,0,0,2.12-1.82,6.85,6.85,0,0,0,.95-6,12.18,12.18,0,0,0,3.32.88h.17a1.54,1.54,0,0,0,1.44-2.07c-.26-.71.05-2.13.35-3.51.52-2.38,1.1-5.07-.4-7.18A7,7,0,0,0,27.2,62.4c.8-.14,1.32-.27,1.49-.32a1.6,1.6,0,0,0,.94-.83,1.51,1.51,0,0,0,0-1.23,8.75,8.75,0,0,0-1.14-2,5.32,5.32,0,0,0,3.91-4.6,5.28,5.28,0,0,0-2.25-9.92,5.34,5.34,0,0,0-1.52-1.65,23.2,23.2,0,0,0,2.17-4.08,41.32,41.32,0,0,0,8.93,6A33.14,33.14,0,0,1,44,46.25,17.91,17.91,0,0,0,41.64,55a4.75,4.75,0,0,0-1-.1A5.16,5.16,0,0,0,35.49,60a4.62,4.62,0,0,0,.06.74A5.12,5.12,0,0,0,33,65.23a5.06,5.06,0,0,0,1,3,12.5,12.5,0,0,0-2.78,6.83,1.55,1.55,0,0,0,1.54,1.54,1.63,1.63,0,0,0,.66-.15,12.5,12.5,0,0,1,3.18-1,4.55,4.55,0,0,0-.72,4.66,4.82,4.82,0,0,1,.11,2.38,7.51,7.51,0,0,0,1,5.47,1.53,1.53,0,0,0,1.31.72,1.76,1.76,0,0,0,.51-.09,12,12,0,0,0,4.5-3.46,8.05,8.05,0,0,0,3.87,5,1.51,1.51,0,0,0,.72.18,1.59,1.59,0,0,0,.77-.21,1.57,1.57,0,0,0,.77-1.31c0-2.16.51-2.62,1.25-3.31a6.57,6.57,0,0,0,2.29-5,.45.45,0,0,1,.17-.26,3.42,3.42,0,0,1,2.33-.55l.78,0a160.55,160.55,0,0,1-2.45,21L53.57,102c-1.85,11.61-1,23-.32,33,.62,8.75,1.16,16.31,0,22.53a1.55,1.55,0,0,0,1.52,1.83H65.56a1.54,1.54,0,0,0,1.15-.52,1.5,1.5,0,0,0,.38-1.17c-.13-1.44-3.27-35.39.48-51.34,2.15-9.2,2-18.53,1.9-26.77,0-.11,0-.22,0-.34a6.75,6.75,0,0,0,1.27,1.74c.67.74,1.12,1.22.94,3.39A1.55,1.55,0,0,0,73.21,86a1.8,1.8,0,0,0,.64-.14,8.3,8.3,0,0,0,4.33-5,7.65,7.65,0,0,0,2.33,1.84,6,6,0,0,0,2.63.69h.12a1.53,1.53,0,0,0,1.15-.62,5.56,5.56,0,0,0,1.35-4.43A2.49,2.49,0,0,1,86,76.65,4.52,4.52,0,0,0,85.71,72l.37.1A4.87,4.87,0,0,0,89.16,76a4.86,4.86,0,0,0,9.71-.33,4.92,4.92,0,0,0-.17-1.27c.15-.1.29-.22.43-.33.28.22.55.41.8.59.82.57,1.13.78,1.21,1.72a1.54,1.54,0,0,0,.58,1.08,1.66,1.66,0,0,0,1,.33h.2s4.26-.59,5.87-4.26a4.75,4.75,0,0,0,2.46-5,11.44,11.44,0,0,0-.81-2.72l0,0c1,1.2,2.09,2,3.32,2h0a2.44,2.44,0,0,0,.71-.1,4.63,4.63,0,0,0,2.72-2.44,8.52,8.52,0,0,0,.88-3.16,3.43,3.43,0,0,0,1.5-1.3A2.76,2.76,0,0,0,119.82,58.57Zm-1.48,1.59a2.91,2.91,0,0,1-1.72,1.05,6.51,6.51,0,0,1-.71,3.49,3.23,3.23,0,0,1-1.86,1.73c-1.35.41-3-2-4.47-4.09-.76-1.11-1.56-2.26-1.92-2.3a.08.08,0,0,0-.07,0c-.34.29.44,1.34,1.07,2.18s1.25,1.68,1.16,2.16a.48.48,0,0,1-.22.3c-.33.18-.69-.06-1-.25s-.31-.21-.39-.2,0,0,0,0c-.09.17.12.58.38,1.11a11.26,11.26,0,0,1,1.22,3.44,3.51,3.51,0,0,1-2.19,3.72c-1.12,3.31-4.88,3.86-4.92,3.86h0a.11.11,0,0,1-.07,0,.1.1,0,0,1,0-.08,3.3,3.3,0,0,0-1.81-2.77A5.63,5.63,0,0,1,99.1,72l0-.09a3.42,3.42,0,0,1-2.21,1.82,3.4,3.4,0,0,1,.61,2,3.45,3.45,0,1,1-6.89,0,3.25,3.25,0,0,1,.1-.77,3.43,3.43,0,0,1-3.2-3.42,2.45,2.45,0,0,1,0-.38,5.2,5.2,0,0,0-2.89-.51,1,1,0,0,0-.67.52c-.23.43,0,.84.38,1.36A3.21,3.21,0,0,1,84.73,76a3.89,3.89,0,0,0-.38,2.43,4.12,4.12,0,0,1-1.07,3.44.14.14,0,0,1-.1,0,4.56,4.56,0,0,1-2-.54,7.44,7.44,0,0,1-3.36-3.84c0,.11-.07.22-.11.33-.86,2.79-1.68,5.41-4.41,6.64h-.05l-.07,0a.11.11,0,0,1,0-.11c.22-2.77-.53-3.59-1.32-4.45a5.17,5.17,0,0,1-1.57-4.14,1.76,1.76,0,0,0-.53-1.27A3.65,3.65,0,0,0,68,73.63c0,1.89,0,3.86,0,5.93.12,8.16.25,17.4-1.86,26.42-3.85,16.4-.54,51.45-.51,51.81a.1.1,0,0,1,0,.09.11.11,0,0,1-.09,0H54.73a.13.13,0,0,1-.1,0,.19.19,0,0,1,0-.1c1.24-6.41.69-14.05.06-22.9-.71-10-1.52-21.25.31-32.7l.21-1.3C56.84,90.68,58.7,79.17,57,68.12c-1.91-.45-4.23-.83-4.65-.17-.2.3,0,.85.71,1.6,4.9,5.69,4.24,8.59,4.21,8.71a.11.11,0,0,1-.13.09c-3-.37-4.38.23-5,.8a1.77,1.77,0,0,0-.63,1.24,5.13,5.13,0,0,1-1.85,4c-.85.8-1.65,1.56-1.69,4.32a.11.11,0,0,1-.06.1.07.07,0,0,1-.06,0h-.06c-2.75-1.48-3.33-4.33-3.89-7.09v0a12.09,12.09,0,0,1-5.6,5.53.12.12,0,0,1-.15,0,6.1,6.1,0,0,1-.82-4.55,6,6,0,0,0-.2-3.05A3.22,3.22,0,0,1,37.86,76c.4-.5.71-.9.51-1.36a.93.93,0,0,0-.23-.34l-.23-.14a.67.67,0,0,0-.14-.09c-1.53-.59-5,1.05-5,1.06a.1.1,0,0,1-.12,0,.11.11,0,0,1-.06-.1s.05-3.19,3.23-6.91a3.71,3.71,0,0,1,1.46-6.54A3.72,3.72,0,0,1,43,57.18c-.16-6.32,1.52-9.62,2.88-11.24a32.85,32.85,0,0,0-5.55-3.42,40.18,40.18,0,0,1-10.14-7.18,21.53,21.53,0,0,1-3.77,7.11A3.89,3.89,0,0,1,29.29,45a3.93,3.93,0,0,1,.6-.06A3.87,3.87,0,0,1,31,52.54,2.85,2.85,0,0,1,31,53a3.88,3.88,0,0,1-3.88,3.88,3.82,3.82,0,0,1-.9-.11,3.81,3.81,0,0,1,.28,1.22,8.62,8.62,0,0,1,1.82,2.62.09.09,0,0,1,0,.1.11.11,0,0,1-.08.07,18.7,18.7,0,0,1-3.17.5,3.81,3.81,0,0,1-1.4.72,8.44,8.44,0,0,1,3.63,2.63c1.13,1.6.64,3.87.17,6.06-.36,1.65-.7,3.2-.3,4.29a.13.13,0,0,1,0,.12.09.09,0,0,1-.11,0s-5.37-.49-6.75-4.49c-1-3.08-1.69-3.19-1.8-3.18s-.29.26-.34.63c-.14,1.06,1,3.44,2.64,5.32,1.87,2.1,2.21,5.55.73,7.38a6.6,6.6,0,0,1-1.8,1.52,3.67,3.67,0,0,0-2.08,3,.12.12,0,0,1,0,.08.13.13,0,0,1-.08,0h0s-4.09-.77-5.14-4.36a3.8,3.8,0,0,1-2.18-4.16,12.14,12.14,0,0,1,1.49-3.71c.31-.56.56-1,.47-1.19a.1.1,0,0,0-.05-.06c-.06,0-.27.1-.41.19-.31.19-.7.43-1,.2a.42.42,0,0,1-.2-.31c-.08-.5.56-1.3,1.3-2.23s1.62-2,1.27-2.38a.11.11,0,0,0-.08,0c-.41.05-1.27,1.2-2.19,2.42-1.66,2.22-3.54,4.73-5,4.2a3.57,3.57,0,0,1-2-2,6.71,6.71,0,0,1-.6-3.74A3.29,3.29,0,0,1,1.43,67a1.47,1.47,0,0,1-.11-1.18c.34-1.06,2.42-1.93,4.25-2.7,1.07-.45,2.18-.92,2.27-1.2a.06.06,0,0,0,0,0c-.23-.35-.83-.47-1.4-.59-.78-.16-1.58-.33-1.72-1A3.87,3.87,0,0,1,6.14,57c1.13-1,3.24-1.9,7-1a3.87,3.87,0,0,1,1.64-2.52,3.82,3.82,0,0,1-1.4-5.07,3.85,3.85,0,0,1-1.17-2.77,4.1,4.1,0,0,1,.12-.94A4.52,4.52,0,0,0,10.78,46a.12.12,0,0,1-.1,0h0a2.46,2.46,0,0,1-1.19-1.34,3.84,3.84,0,0,1,.33-2.94,10,10,0,0,0,.74-4.92,3.12,3.12,0,0,1-3.73.33,3.25,3.25,0,0,0-1.93-.43.17.17,0,0,1-.1,0,.13.13,0,0,1,0-.1,4.57,4.57,0,0,1,1.4-3.7c.57-.61.94-1,.55-2-.86-2.31-1.55-7.15,1.83-9.37C5.4,20.69,3.6,19.75,3.7,18.07a1,1,0,0,1,.41-.79c1.23-1,5.15-.23,8.94.49,1.64.31,3.19.61,4.51.76a16.71,16.71,0,0,1,4.15,1,4.27,4.27,0,0,0,2.2-.74,1,1,0,0,0,.37-.74c0-.48-.38-.71-.94-1A3.21,3.21,0,0,1,21.39,14a4,4,0,0,0-.73-2.38A4.22,4.22,0,0,1,20.09,8a.13.13,0,0,1,.07-.09,4.33,4.33,0,0,1,1.93-.39h.12a7.63,7.63,0,0,1,4.7,2l-.06-.41c-.36-2.65-.73-5.39,1.28-7.67a.14.14,0,0,1,.12,0,.12.12,0,0,1,.09.08c1,2.59,2,3,3.11,3.45a5.24,5.24,0,0,1,3.17,3,1.84,1.84,0,0,0,1.07.94c.8.3,2.29.37,4.9-1a.11.11,0,0,1,.11,0,.13.13,0,0,1,.07.09,22.61,22.61,0,0,1-.89,9.4,4.07,4.07,0,0,1,.95,0,6.45,6.45,0,0,1,2-2.92,3.21,3.21,0,0,1,2.37-.89c1.44.09,2.08,3.08,2.6,5.48.28,1.3.57,2.64.89,2.82a.08.08,0,0,0,.07,0c.43-.15.12-1.45-.13-2.5s-.48-2-.22-2.38a.43.43,0,0,1,.3-.18c.37-.05.59.3.77.58s.23.34.31.35,0,0,.08,0,.09-.57,0-1.09a11.19,11.19,0,0,1,.2-3.75,3.56,3.56,0,0,1,3.46-2.62c2.26-2.58,6-1.67,6-1.66a.11.11,0,0,1,.07.06.12.12,0,0,1,0,.1A3.11,3.11,0,0,0,60.26,12a5.5,5.5,0,0,1,.94,2c.43,2.15-1.19,4.85-3.53,5.91s-4,2.61-4.27,3.46c-.09.31-.08.55,0,.62s.65.21,2.71-2a5.88,5.88,0,0,1,4.75-1.7,9.82,9.82,0,0,1,2.68.52.12.12,0,0,1,.08.09.11.11,0,0,1,0,.11c-.76.79-1.08,2.24-1.41,3.77-.44,2-.89,4.11-2.45,5-1.75,1-4.24.91-5.82.67a21,21,0,0,1,5.12,2.88.11.11,0,0,1,0,.09.13.13,0,0,1,0,.1l-.11.09a3.23,3.23,0,0,0,2.6-1.21,5.86,5.86,0,0,1,1.86-1.33,5.57,5.57,0,0,1,5.36,1.14,17.59,17.59,0,0,1,1-2.16,10,10,0,0,1,0-2.56.12.12,0,0,1,.19-.09,3.42,3.42,0,0,0,1.07.42c.21-.35.43-.69.65-1A31.52,31.52,0,0,0,74,22.58c1.07-2.57,2.63-3.39,4.43-4.33a17.3,17.3,0,0,0,3.26-2.07l1.07-.94c2.41-2.12,4-3.53,5.93-2.47a1.25,1.25,0,0,1,.39.3,16.21,16.21,0,0,0,1.17-1.56,1.36,1.36,0,0,1,1.5-.64c1.67.35,3.71,3.25,4,4.8,0,.12,0,.24,0,.36.17,1.22.37,2.75,4.69,3.58a3.25,3.25,0,0,1,2.56,2,5.24,5.24,0,0,0,2,2.21.11.11,0,0,1,.06.1.11.11,0,0,1-.06.11,5.58,5.58,0,0,0-2.39,3.68,6.82,6.82,0,0,0-.12,1A25,25,0,0,1,113,24.6c1.69-.31,3.53.64,3.79,1.95.12.62,0,2.15-3.74,2.91a11.12,11.12,0,0,0-6.63,4.07,10.34,10.34,0,0,1,1.45,5.41,3.41,3.41,0,0,1,.46,0,3.45,3.45,0,0,1,1,.17,3.51,3.51,0,1,1,4.87,4.25,3.49,3.49,0,0,1,.11,6.23,3.51,3.51,0,0,1,1.28,2.69,3.43,3.43,0,0,1-.12.86,1.63,1.63,0,0,1,0,.4h0a.87.87,0,0,1-.33.48,3.56,3.56,0,0,1-2,1.6c.42.25,1,.54,1.62.83,1.61.76,3.42,1.63,3.71,2.58A1.41,1.41,0,0,1,118.34,60.16ZM56,70.9c-.41-.57-.87-1.18-1.4-1.81.36,0,.77.11,1.21.2C55.83,69.83,55.9,70.37,56,70.9Z"/></svg>