<svg id="圖層_1" data-name="圖層 1" xmlns="http://www.w3.org/2000/svg" viewBox="0 0 103.09 64.75"><defs><style>.cls-1{fill:#fff;}</style></defs><title>0</title><path class="cls-1" d="M102.93,30.78a10,10,0,0,0-.46-1.92l-.11-.36a1.67,1.67,0,0,0-.08-.2l-.17-.34a12.7,12.7,0,0,0-1-1.73A1.73,1.73,0,0,0,101,26a5.39,5.39,0,0,1-.58-.71l-.16-.17a.64.64,0,0,0-.15-.13l-.34-.29c-.16-.14-.32-.28-.47-.39A6.23,6.23,0,0,0,96.47,23l-.24,0a5.64,5.64,0,0,0-1-.12,2.89,2.89,0,0,0-.5,0,5.46,5.46,0,0,0-1,.11l-.12,0A6.59,6.59,0,0,0,91,24c0-.65-.1-1.3-.16-1.94-.15-1.5-.38-3-.67-4.49L90,17a1.41,1.41,0,0,0-2.77,0l-.13.61c-.2,1-.33,2-.47,3-.06.47-.12.93-.2,1.47,0,.18,0,.35,0,.52l-.07-.08a15.49,15.49,0,0,0-2.29-2,3.53,3.53,0,0,0-.65-.44l-.1-.06a5.14,5.14,0,0,0-.5-.28l-.16-.08-.23-.13-.13,0c-.22-.08-.46-.15-.73-.23L80.85,19a7,7,0,0,0-2.12-.34,6.35,6.35,0,0,0-1.43.17l-.7.16a1.42,1.42,0,0,0,.15,2.79l.72.08a7,7,0,0,1,3.78,1.8c.21.21.4.41.57.61a7.26,7.26,0,0,0-.93-.06h-.12a10.16,10.16,0,0,0-3.21.62,9.35,9.35,0,0,0-2.82,1.72,10.56,10.56,0,0,0-2,2.41,19.55,19.55,0,0,0-1.33,2.5,16.81,16.81,0,0,0-.88,2.62c-.2.74-.34,1.5-.47,2.25l-.07.35s0,.09,0,.13c0,.28,0,.56-.08.85a14.46,14.46,0,0,0-.14,1.81v1.11A1.42,1.42,0,0,0,71,42h.16a1.41,1.41,0,0,0,1.38-1.11l.25-1.08a25.72,25.72,0,0,1,1.5-4.57,16.69,16.69,0,0,1,2.19-3.86,6.05,6.05,0,0,1,2.8-2.15A5.3,5.3,0,0,1,80.81,29a2,2,0,0,1,1,.36,4.52,4.52,0,0,1,1,1.12l0,.06h-.05a9.91,9.91,0,0,0-3.16.51,8.44,8.44,0,0,0-2.85,1.68,8.64,8.64,0,0,0-1.91,2.43,10.33,10.33,0,0,0-1.08,2.66l-.12.57a8.32,8.32,0,0,0-.22,2.35l0,.52a1.41,1.41,0,0,0,1.21,1.27l.2,0a1.43,1.43,0,0,0,1.32-.89l.19-.48a12.92,12.92,0,0,1,.9-1.88,10.49,10.49,0,0,1,1.15-1.66l.06-.08a9.19,9.19,0,0,1,1.29-1.28,3.37,3.37,0,0,1,1.17-.54,8.16,8.16,0,0,1,1.63-.17,1.84,1.84,0,0,1,.93.29,5.19,5.19,0,0,1,1.59,2.61A25.2,25.2,0,0,1,86,42.36l.09,1,0,.3,0,.14c0,.3,0,.59,0,.89,0,.1,0,2.11,0,2.11,0,2.65.06,7.08.06,8.94a2.46,2.46,0,0,0,2.41,2.4,2.37,2.37,0,0,0,2.4-2.3,20.84,20.84,0,0,0,.08-2.5A7.61,7.61,0,0,1,91.46,52a.57.57,0,0,0,0-.14A6.53,6.53,0,0,1,92,50.38a.77.77,0,0,0,.07-.16,13.94,13.94,0,0,1,1.54-3.09,6.25,6.25,0,0,1,1-1.16l.08-.08a5.77,5.77,0,0,1,1.11-.79,4,4,0,0,1,1.28-.35h.21a6.87,6.87,0,0,1,.91.08l.58.07.78.08h.14a1.42,1.42,0,0,0,.58-2.72L99.58,42a10.58,10.58,0,0,0-2.35-.83,5.6,5.6,0,0,0-1.09-.1,6.67,6.67,0,0,0-1.82.26,6,6,0,0,0-2.58,1.28,6.23,6.23,0,0,0-.56.41,67.65,67.65,0,0,1,.41-7.16l.15-1a21.57,21.57,0,0,1,.56-2.77,8.92,8.92,0,0,1,1.09-3,2.1,2.1,0,0,0,.13-.26,1,1,0,0,0,0-.1l.08-.11c.06-.07.11-.15.14-.19a1.37,1.37,0,0,1,.21-.19l.2-.2a1.48,1.48,0,0,1,.66-.33.8.8,0,0,0,.16-.08h.56l.16.05a4.37,4.37,0,0,1,1,.36,6.57,6.57,0,0,1,1.94,2.15,16.56,16.56,0,0,1,1.45,3.31l.24.73a1.42,1.42,0,0,0,1.34,1l.23,0a1.41,1.41,0,0,0,1.19-1.4V32A6.09,6.09,0,0,0,102.93,30.78Zm-1.26,3-.24-.73a18,18,0,0,0-1.58-3.59,7.87,7.87,0,0,0-2.41-2.63,5,5,0,0,0-1.33-.52l-.15,0a3.06,3.06,0,0,0-.76-.07,1.44,1.44,0,0,0-.74.13,2.77,2.77,0,0,0-1.27.7l-.17.16a2.45,2.45,0,0,0-.39.4l-.13.18a1.59,1.59,0,0,0-.29.5v0a10.17,10.17,0,0,0-1.29,3.43,23.29,23.29,0,0,0-.57,2.88c0,.31-.09.62-.15.94a72.16,72.16,0,0,0-.43,7.78v.12h-.07c.07.84.07,1.63.07,2.47v.12h-.07v.81a11,11,0,0,1,1.22-1.67,8.57,8.57,0,0,1,1.69-1.53,4.36,4.36,0,0,1,2.07-1A4.71,4.71,0,0,1,97,42.51a10.14,10.14,0,0,1,2,.73l.71.32-.77-.08-.58-.07a6.26,6.26,0,0,0-1.42-.07,5.37,5.37,0,0,0-1.76.49,6.77,6.77,0,0,0-1.48,1.06,7.36,7.36,0,0,0-1.22,1.43,15.52,15.52,0,0,0-1.72,3.43,7.71,7.71,0,0,0-.64,1.79,8.56,8.56,0,0,0-.36,1.8s0,1.37-.07,2.45a1,1,0,0,1-1,1,1.06,1.06,0,0,1-1-1c0-2,0-6.77-.06-9.36,0-1,0-1.59,0-1.69,0-.39,0-.79,0-1.17h0l0-.3-.09-1.06a28,28,0,0,0-.89-4.15,6.48,6.48,0,0,0-2.12-3.33,3.3,3.3,0,0,0-1.68-.55,9.44,9.44,0,0,0-2.05.21,4.4,4.4,0,0,0-1.75.84,9.67,9.67,0,0,0-1.5,1.5,12,12,0,0,0-1.29,1.86,14.54,14.54,0,0,0-1,2.08l-.2.48,0-.52a7,7,0,0,1,.19-1.94c0-.16.07-.31.1-.47a9.07,9.07,0,0,1,1-2.36,7.1,7.1,0,0,1,1.61-2.05,6.83,6.83,0,0,1,2.36-1.39A8.28,8.28,0,0,1,82.85,32a4.92,4.92,0,0,1,2.69.81c-.13-.36-.27-.72-.42-1.07a10.36,10.36,0,0,0-1.08-2,5.59,5.59,0,0,0-1.41-1.49,3.46,3.46,0,0,0-1.75-.63,6.77,6.77,0,0,0-2,.29,7.3,7.3,0,0,0-3.47,2.63A18,18,0,0,0,73,34.67a26.55,26.55,0,0,0-1.58,4.81l-.25,1.09V39.46a13.12,13.12,0,0,1,.13-1.67l.09-.87.06-.35c.13-.71.26-1.44.45-2.13a14.38,14.38,0,0,1,.8-2.4,17.34,17.34,0,0,1,1.23-2.33,9.33,9.33,0,0,1,1.76-2.12,8.07,8.07,0,0,1,2.42-1.46,8.83,8.83,0,0,1,2.78-.52h0a5.88,5.88,0,0,1,1.56.22,6.26,6.26,0,0,1,1.41.67A7.29,7.29,0,0,1,85.54,28c-.15-.4-.31-.79-.5-1.18a13.63,13.63,0,0,0-1.21-2.22,9.74,9.74,0,0,0-1.58-1.93,8.49,8.49,0,0,0-4.62-2.2l-.71-.09.7-.16a5.23,5.23,0,0,1,2.81.15l.69.21.68.22h0l.31.18a1.93,1.93,0,0,1,.34.19l.21.12a1.83,1.83,0,0,1,.46.32,14,14,0,0,1,2.17,1.88,10.62,10.62,0,0,1,1.61,2.42c.21.41.41.83.61,1.25,0-.21,0-.42,0-.62.07-1.43.15-2.9.29-4.34.07-.48.14-1,.2-1.44.13-.95.26-1.94.45-2.91l.12-.61.13.61c.29,1.44.5,2.9.65,4.35s.22,2.91.29,4.33c0,.33,0,.68,0,1,.08-.14.15-.28.23-.41a7.08,7.08,0,0,1,1.55-1.77,5.41,5.41,0,0,1,2.29-1h.1a3.27,3.27,0,0,1,1.17-.06h0a4.93,4.93,0,0,1,.88.1l.26.05a4.7,4.7,0,0,1,2.15,1,4.56,4.56,0,0,1,.43.36c.14.12.29.25.43.35l0,0A7.61,7.61,0,0,0,100,27a14,14,0,0,1,.86,1.56l.17.35c0,.16.09.3.14.43a8.53,8.53,0,0,1,.38,1.64,5.65,5.65,0,0,1,.14,1Z"/><path class="cls-1" d="M70.71,29.08l.77.08h.14A1.4,1.4,0,0,0,73,28.11a1.42,1.42,0,0,0-.79-1.66l-.71-.32a11.12,11.12,0,0,0-2.35-.82,5.52,5.52,0,0,0-1.09-.11,6.32,6.32,0,0,0-1.82.27,6.07,6.07,0,0,0-2.58,1.27c-.2.14-.39.28-.56.42,0-2.38.16-4.79.41-7.09,0-.32.1-.63.16-1a20.56,20.56,0,0,1,.55-2.77,9.16,9.16,0,0,1,1.09-3,2.1,2.1,0,0,0,.13-.26l0-.1.07-.09.15-.21a2.12,2.12,0,0,1,.21-.2l.21-.19a1.45,1.45,0,0,1,.65-.34.56.56,0,0,0,.16-.07h.56l.16.05a4,4,0,0,1,1,.36,6.57,6.57,0,0,1,1.94,2.15A16.62,16.62,0,0,1,72,17.78l.24.73a1.43,1.43,0,0,0,1.34,1l.23,0A1.42,1.42,0,0,0,75,18.06V16.28A6.28,6.28,0,0,0,74.84,15a9.89,9.89,0,0,0-.46-1.93l-.1-.34a1.89,1.89,0,0,0-.09-.21L74,12.23a14.56,14.56,0,0,0-1-1.74,1.81,1.81,0,0,0-.18-.21,8.29,8.29,0,0,1-.58-.7c0-.06-.11-.13-.15-.18L72,9.27a4.07,4.07,0,0,1-.36-.3c-.15-.13-.31-.27-.47-.39a6.32,6.32,0,0,0-2.83-1.34l-.22,0a5.54,5.54,0,0,0-1-.13l-.49,0a5.79,5.79,0,0,0-1,.11l-.12,0a6.65,6.65,0,0,0-2.58,1.07c0-.67-.09-1.35-.16-2-.15-1.49-.38-3-.67-4.48l-.12-.61A1.43,1.43,0,0,0,60.54,0a1.41,1.41,0,0,0-1.39,1.14L59,1.75c-.2,1-.33,2-.46,3-.07.47-.13.94-.21,1.48,0,.2,0,.39-.05.59l-.14-.15a14.55,14.55,0,0,0-2.3-2,3.5,3.5,0,0,0-.65-.45l-.09,0a3.65,3.65,0,0,0-.5-.28l-.16-.08a1,1,0,0,0-.23-.13l-.13-.06-.73-.22-.69-.22a7,7,0,0,0-2.11-.34A6.35,6.35,0,0,0,49.14,3l-.8.18a1.42,1.42,0,0,0-1.09,1.49A1.41,1.41,0,0,0,48.55,6l.82.07a6.21,6.21,0,0,1,3.72,1.79c.24.24.45.46.64.68a5.82,5.82,0,0,0-.93-.07h-.11a10.17,10.17,0,0,0-3.22.62,9.4,9.4,0,0,0-2.82,1.72,10.56,10.56,0,0,0-2,2.41,19,19,0,0,0-1.33,2.5,17.54,17.54,0,0,0-.88,2.62c-.2.74-.34,1.51-.48,2.25l-.06.35a.57.57,0,0,0,0,.13l-.09.85c0,.29-.07.59-.1.91a1.36,1.36,0,0,1,1.46-.36c0-.13,0-.27.05-.41s.06-.57.09-.87l.06-.35c.13-.71.26-1.44.45-2.13a14.38,14.38,0,0,1,.8-2.4A17.34,17.34,0,0,1,45.84,14a9.33,9.33,0,0,1,1.76-2.12A8.07,8.07,0,0,1,50,10.39a8.83,8.83,0,0,1,2.78-.52h0a5.88,5.88,0,0,1,1.56.22,6.07,6.07,0,0,1,1.41.67,6.93,6.93,0,0,1,1.6,1.39c-.15-.4-.31-.79-.49-1.16a13.63,13.63,0,0,0-1.21-2.22,9.74,9.74,0,0,0-1.58-1.93,7.64,7.64,0,0,0-4.61-2.21l-.82-.06.8-.18a5.22,5.22,0,0,1,2.81.14l.68.22c.24.07.48.14.69.22h0a2.38,2.38,0,0,0,.31.17l.34.19.21.13a2,2,0,0,1,.46.32,13.44,13.44,0,0,1,2.17,1.88,10.77,10.77,0,0,1,1.61,2.41c.23.46.46.93.67,1.4l0-.77c.07-1.42.15-2.89.29-4.34.07-.48.14-1,.2-1.43.13-1,.26-1.94.45-2.91l.13-.61.12.61a42.45,42.45,0,0,1,.65,4.34c.15,1.45.22,2.92.29,4.34,0,.35,0,.72,0,1.08.08-.14.15-.28.23-.41a7.28,7.28,0,0,1,1.55-1.77,5.41,5.41,0,0,1,2.29-1h.1A3.27,3.27,0,0,1,67,8.5h0a4.93,4.93,0,0,1,.88.1l.26.05a4.7,4.7,0,0,1,2.15,1c.14.1.29.23.44.36s.28.25.42.35l0,0a7.43,7.43,0,0,0,.71.85,12,12,0,0,1,.86,1.57c.06.11.12.23.17.34l.13.42a8,8,0,0,1,.39,1.64,5.82,5.82,0,0,1,.15,1v1.78l-.25-.73a17.7,17.7,0,0,0-1.58-3.59,7.77,7.77,0,0,0-2.41-2.63A4.92,4.92,0,0,0,68,10.59l-.15,0a3.06,3.06,0,0,0-.76-.07,1.44,1.44,0,0,0-.74.13,2.83,2.83,0,0,0-1.27.7,1.36,1.36,0,0,1-.17.16,2.11,2.11,0,0,0-.39.4l-.13.18a1.49,1.49,0,0,0-.29.5v0A10.47,10.47,0,0,0,62.82,16a21.73,21.73,0,0,0-.57,2.89c0,.31-.09.62-.15.93a72.16,72.16,0,0,0-.43,7.78v.12H61.6c.07.84.07,1.64.07,2.47v.13H61.6v.74a10,10,0,0,1,1.23-1.67,8.24,8.24,0,0,1,1.68-1.54,4.55,4.55,0,0,1,2.07-1,4.83,4.83,0,0,1,2.28-.14,9.57,9.57,0,0,1,2,.73l.71.32-.77-.08-.58-.07a5.88,5.88,0,0,0-1.41-.08,5.36,5.36,0,0,0-1.77.5,7,7,0,0,0-1.48,1.06,7.31,7.31,0,0,0-1.22,1.42,15.13,15.13,0,0,0-1.71,3.44A7.75,7.75,0,0,0,62,35.73a8.6,8.6,0,0,0-.36,1.79s0,1.38-.07,2.45a1,1,0,0,1-1,1,1.06,1.06,0,0,1-1-1c0-2,0-6.76-.06-9.35,0-.95,0-1.6,0-1.69,0-.37,0-.74,0-1.1h0l0-.3c0-.4-.07-.78-.09-1.17a28.92,28.92,0,0,0-.89-4.11,6.4,6.4,0,0,0-2.12-3.33,3.3,3.3,0,0,0-1.68-.56,9.61,9.61,0,0,0-2.05.22,5.1,5.1,0,0,0-1.76.84,10.49,10.49,0,0,0-1.49,1.49,8.83,8.83,0,0,0-1.29,1.86,14.63,14.63,0,0,0-1,2.09l-.2.48,0-.52a6.67,6.67,0,0,1,.2-1.94l.09-.48A9,9,0,0,1,48.08,20,7.28,7.28,0,0,1,49.69,18a7.12,7.12,0,0,1,2.36-1.4,8.59,8.59,0,0,1,2.71-.44,4.92,4.92,0,0,1,2.66.8c-.12-.33-.25-.66-.39-1A10.93,10.93,0,0,0,56,14a5.9,5.9,0,0,0-1.42-1.48,3.37,3.37,0,0,0-1.74-.63,6.54,6.54,0,0,0-2,.29,7.29,7.29,0,0,0-3.47,2.63,17.93,17.93,0,0,0-2.37,4.16,23.24,23.24,0,0,0-1.33,3.76,1.42,1.42,0,0,1,.51.83l.12.61c.08.39.14.78.21,1.17,0,0,0-.08,0-.12L44.71,24a22.48,22.48,0,0,1,1.5-4.55,16.69,16.69,0,0,1,2.19-3.86,5.92,5.92,0,0,1,2.8-2.15,5.3,5.3,0,0,1,1.52-.21,2,2,0,0,1,1,.36,4.3,4.3,0,0,1,1.05,1.11h0a9.68,9.68,0,0,0-3.16.51,8.28,8.28,0,0,0-2.85,1.68,8.37,8.37,0,0,0-1.91,2.43A10.33,10.33,0,0,0,45.76,22s-.11.57-.11.57a8,8,0,0,0-.22,2.35l0,.52a1.41,1.41,0,0,0,1.21,1.27l.2,0a1.42,1.42,0,0,0,1.32-.89l.19-.49a12.54,12.54,0,0,1,.9-1.86l.06-.12a7.31,7.31,0,0,1,1.09-1.56l.06-.08a9.88,9.88,0,0,1,1.21-1.21A3.81,3.81,0,0,1,52.93,20a8.7,8.7,0,0,1,1.66-.18,1.84,1.84,0,0,1,.93.29,5.1,5.1,0,0,1,1.6,2.6A28.12,28.12,0,0,1,58,26.51c0,.38,0,.76.09,1.15l0,.3,0,.16c0,.27,0,.53,0,.8,0,.09,0,2.12,0,2.12,0,2.65.06,7.07.06,8.92a2.47,2.47,0,0,0,2.41,2.41A2.38,2.38,0,0,0,63,40.06a20.8,20.8,0,0,0,.08-2.5,6.93,6.93,0,0,1,.29-1.38l0-.14a6.36,6.36,0,0,1,.53-1.47,1.11,1.11,0,0,0,.07-.16,14.38,14.38,0,0,1,1.54-3.09,6.33,6.33,0,0,1,1-1.17l.08-.07a5.86,5.86,0,0,1,1.11-.8A4.2,4.2,0,0,1,69,28.93h.15a7.41,7.41,0,0,1,.92.09Z"/><path class="cls-1" d="M29.89,27.72a7.28,7.28,0,0,0-2.4-.84,5.8,5.8,0,0,0-1-.09,6.73,6.73,0,0,0-1.82.26,6.13,6.13,0,0,0-2.59,1.28c-.19.14-.38.28-.55.42a67.35,67.35,0,0,1,.41-7.16l.15-1a22.07,22.07,0,0,1,.56-2.78,8.92,8.92,0,0,1,1.09-3,2,2,0,0,0,.13-.25s0-.07,0-.11l.06-.08.16-.22a2.2,2.2,0,0,1,.21-.19l.2-.19a1.46,1.46,0,0,1,.66-.34.56.56,0,0,0,.16-.07h.56l.15,0a3.86,3.86,0,0,1,1,.37A6.47,6.47,0,0,1,29,16a16.77,16.77,0,0,1,1.45,3.3l.24.73A1.39,1.39,0,0,0,32,21h.23a1.42,1.42,0,0,0,1.19-1.4V17.79a6.28,6.28,0,0,0-.16-1.23,10,10,0,0,0-.43-1.84l-.14-.44a1.67,1.67,0,0,0-.08-.2l-.17-.35A15,15,0,0,0,31.48,12l-.18-.22a6.74,6.74,0,0,1-.58-.7l-.14-.16-.17-.15a4.34,4.34,0,0,1-.37-.31c-.15-.13-.3-.26-.45-.37a6.18,6.18,0,0,0-2.8-1.33l-.31-.06a5.55,5.55,0,0,0-1-.11l-.48,0a6,6,0,0,0-1,.11l-.11,0a6.72,6.72,0,0,0-2.58,1.06c-.05-.64-.1-1.29-.16-1.94-.15-1.49-.38-3-.67-4.48l-.13-.61a1.41,1.41,0,0,0-1.39-1.14,1.42,1.42,0,0,0-1.39,1.14l-.12.61c-.2,1-.33,2-.47,3-.06.47-.12.94-.2,1.48,0,.18,0,.35-.05.52l-.14-.15a14.93,14.93,0,0,0-2.29-2,3.26,3.26,0,0,0-.67-.45l-.1-.06A3.53,3.53,0,0,0,13,5.4l-.14-.08-.22-.12-.15-.06-.72-.23L11.1,4.7A7,7,0,0,0,9,4.36a6.33,6.33,0,0,0-1.43.16l-.7.16A1.42,1.42,0,0,0,7,7.47l.71.09A7.16,7.16,0,0,1,11.5,9.35c.21.21.4.42.57.61a7.26,7.26,0,0,0-.93-.06H11a10.4,10.4,0,0,0-3.21.62A9.56,9.56,0,0,0,5,12.24a10.31,10.31,0,0,0-2,2.42,18.6,18.6,0,0,0-1.34,2.5,16.28,16.28,0,0,0-.87,2.61A22.75,22.75,0,0,0,.3,22l-.06.34a.68.68,0,0,0,0,.14c0,.28,0,.55-.09.84A16.73,16.73,0,0,0,0,25.16v1.11a1.41,1.41,0,0,0,1.26,1.41h.16a1.42,1.42,0,0,0,1.38-1.1l.25-1.09A34.48,34.48,0,0,1,4.51,21l0-.1a16.91,16.91,0,0,1,2.19-3.86,6.05,6.05,0,0,1,2.8-2.15,5.28,5.28,0,0,1,1.51-.21,1.85,1.85,0,0,1,1,.37,4.07,4.07,0,0,1,1.06,1.12l.09.13h0a9.64,9.64,0,0,0-3.16.51,8.28,8.28,0,0,0-2.85,1.68A8.37,8.37,0,0,0,5.25,21a10.33,10.33,0,0,0-1.08,2.66l-.12.57a8,8,0,0,0-.22,2.35l0,.52a1.41,1.41,0,0,0,1.21,1.27h.2a1.41,1.41,0,0,0,1.32-.89L6.8,27a12.67,12.67,0,0,1,.89-1.86A.75.75,0,0,0,7.76,25a7.31,7.31,0,0,1,1.09-1.56l.06-.08a9.15,9.15,0,0,1,1.29-1.27,3,3,0,0,1,1.14-.53A7.82,7.82,0,0,1,13,21.36a1.84,1.84,0,0,1,.93.29,5.16,5.16,0,0,1,1.59,2.6,26.45,26.45,0,0,1,.84,3.88l.09,1.05,0,.3,0,.14c0,.29,0,.59,0,.88,0,.1,0,2.13,0,2.13,0,2.65.06,7.07.06,8.92A2.47,2.47,0,0,0,19,44a2.39,2.39,0,0,0,2.4-2.31,20.8,20.8,0,0,0,.08-2.5,7.68,7.68,0,0,1,.28-1.38.83.83,0,0,0,0-.15,6.29,6.29,0,0,1,.53-1.46,1.11,1.11,0,0,0,.07-.16A13.94,13.94,0,0,1,24,32.91a6.33,6.33,0,0,1,1-1.17l.08-.07a5.86,5.86,0,0,1,1.11-.8,4,4,0,0,1,1.3-.35h.16a8.66,8.66,0,0,1,.91.08l.62.08.6.06h.14a1.42,1.42,0,0,0,1.35-1,1.38,1.38,0,0,0-.46-1.5A1.38,1.38,0,0,1,29.89,27.72Zm-.63,1.53c-.2,0-.39,0-.58-.06a5.93,5.93,0,0,0-1.42-.08,5.55,5.55,0,0,0-1.76.49A7.87,7.87,0,0,0,24,30.66a8,8,0,0,0-1.21,1.43,15.59,15.59,0,0,0-1.72,3.44,7.55,7.55,0,0,0-.64,1.79,8.6,8.6,0,0,0-.36,1.79s0,1.37-.07,2.45a1,1,0,0,1-1,1,1.07,1.07,0,0,1-1-1c0-1.95,0-6.76-.06-9.35,0-1,0-1.6,0-1.7,0-.39,0-.78,0-1.17h0l0-.29L17.77,28a28.1,28.1,0,0,0-.89-4.14,6.46,6.46,0,0,0-2.12-3.33,3.3,3.3,0,0,0-1.68-.56,9.61,9.61,0,0,0-2.05.22A4.45,4.45,0,0,0,9.28,21a9.67,9.67,0,0,0-1.5,1.5,8.58,8.58,0,0,0-1.29,1.86,14,14,0,0,0-1,2.08l-.2.49,0-.52a7,7,0,0,1,.19-1.94c0-.16.07-.32.1-.48a9,9,0,0,1,1-2.35A7.1,7.1,0,0,1,8.1,19.58a6.86,6.86,0,0,1,2.36-1.4,8.55,8.55,0,0,1,2.71-.44,4.89,4.89,0,0,1,2.63.78,10.67,10.67,0,0,0-.44-1.11,10.86,10.86,0,0,0-1.07-2,5.75,5.75,0,0,0-1.41-1.49,3.38,3.38,0,0,0-1.75-.62,6.45,6.45,0,0,0-2,.28,7.44,7.44,0,0,0-3.48,2.63,18,18,0,0,0-2.36,4.16l-.06.16a36.57,36.57,0,0,0-1.53,4.66l-.24,1.08V25.16a15.08,15.08,0,0,1,.12-1.66c0-.29.07-.58.09-.88l.07-.34c.12-.71.26-1.45.44-2.14a17.31,17.31,0,0,1,.8-2.4,19.46,19.46,0,0,1,1.24-2.32A9.33,9.33,0,0,1,5.93,13.3a8.21,8.21,0,0,1,2.42-1.47,8.87,8.87,0,0,1,2.79-.51h0a5.6,5.6,0,0,1,1.56.22,5.94,5.94,0,0,1,1.4.66,7.15,7.15,0,0,1,1.69,1.49,12.45,12.45,0,0,0-.5-1.19,13.51,13.51,0,0,0-1.21-2.22A10.34,10.34,0,0,0,12.5,8.35a8.56,8.56,0,0,0-4.62-2.2l-.71-.09.7-.16a5.23,5.23,0,0,1,2.81.15l.68.22.69.21,0,0a2.38,2.38,0,0,0,.31.17,2.9,2.9,0,0,1,.34.19l.21.12a2.09,2.09,0,0,1,.46.33,13.44,13.44,0,0,1,2.17,1.88,10.55,10.55,0,0,1,1.61,2.41c.23.46.46.93.67,1.4l0-.7C18,10.88,18,9.41,18.17,8c.07-.48.14-1,.2-1.43.13-1,.26-1.94.45-2.91L18.94,3l.13.62c.28,1.43.5,2.89.65,4.34s.22,2.92.29,4.34c0,.33,0,.67,0,1l.23-.42a7.08,7.08,0,0,1,1.55-1.77,5.52,5.52,0,0,1,2.29-1l.09,0A3.59,3.59,0,0,1,25.39,10a3.82,3.82,0,0,1,.9.1l.26,0a4.91,4.91,0,0,1,2.15,1c.14.1.28.23.43.36l.43.36,0,0a7.49,7.49,0,0,0,.71.86,13.12,13.12,0,0,1,.86,1.55l.17.36.13.43a7.76,7.76,0,0,1,.39,1.63,5.65,5.65,0,0,1,.14,1v1.79l-.24-.74a18.1,18.1,0,0,0-1.58-3.58,7.77,7.77,0,0,0-2.41-2.63,4.73,4.73,0,0,0-1.33-.52l-.15,0a3.14,3.14,0,0,0-.77-.07,1.42,1.42,0,0,0-.73.13,2.77,2.77,0,0,0-1.27.7c-.05,0-.1.1-.17.15a2.5,2.5,0,0,0-.39.41l-.13.18a1.4,1.4,0,0,0-.29.5v0a10.11,10.11,0,0,0-1.29,3.42,21.9,21.9,0,0,0-.57,2.88l-.15.94a72.44,72.44,0,0,0-.43,7.78v.12H20v3.42A10.5,10.5,0,0,1,21.23,31a8.59,8.59,0,0,1,1.69-1.54,4.55,4.55,0,0,1,2.07-1,4.82,4.82,0,0,1,2.28-.14,5.76,5.76,0,0,1,2.06.73l.53.3Z"/><path class="cls-1" d="M43.15,26.28c.13.83.24,1.66.32,2.48.15,1.44.22,2.91.29,4.34,0,.36,0,.75.05,1.12.1-.17.19-.36.3-.53a6.88,6.88,0,0,1,1.55-1.77,5.23,5.23,0,0,1,2.29-1l.09,0a3.34,3.34,0,0,1,1.18-.06,5.16,5.16,0,0,1,.9.1l.26.05a4.81,4.81,0,0,1,2.15,1,4.56,4.56,0,0,1,.43.36c.14.12.29.25.43.35l0,0a5.92,5.92,0,0,0,.71.85A13,13,0,0,1,55,35.15l.18.35.13.42a8,8,0,0,1,.39,1.65,5.65,5.65,0,0,1,.14,1v1.78l-.24-.73A17.34,17.34,0,0,0,54,36.06a7.77,7.77,0,0,0-2.41-2.63,4.81,4.81,0,0,0-1.34-.53l-.15,0a3,3,0,0,0-.76-.07,1.47,1.47,0,0,0-.74.13,2.89,2.89,0,0,0-1.26.7l-.17.16a2.1,2.1,0,0,0-.39.4l-.13.18a1.53,1.53,0,0,0-.29.51l0,0a10.18,10.18,0,0,0-1.28,3.43,21.9,21.9,0,0,0-.57,2.88l-.15.94a70,70,0,0,0-.43,7.78v.12h-.14v0c.06.83.07,1.62.07,2.45v.12h-.08v.81A11.09,11.09,0,0,1,45,51.79a8.49,8.49,0,0,1,1.68-1.53,4.6,4.6,0,0,1,2.07-1A4.84,4.84,0,0,1,51,49.08a4.94,4.94,0,0,1,2.07.74l.46.28L53,50.05,52.43,50A6.15,6.15,0,0,0,51,49.91a5.44,5.44,0,0,0-1.77.49,7.28,7.28,0,0,0-1.48,1.06,7.66,7.66,0,0,0-1.21,1.43,15.3,15.3,0,0,0-1.72,3.43,7.75,7.75,0,0,0-.65,1.79,9.18,9.18,0,0,0-.35,1.8s0,1.37-.08,2.45a1,1,0,0,1-1,1,1.06,1.06,0,0,1-1-1c0-2,0-6.77-.06-9.35,0-1,0-1.6,0-1.7,0-.8-.08-1.6-.14-2.3a29.11,29.11,0,0,0-.94-4.38,6.48,6.48,0,0,0-2.12-3.33,3.4,3.4,0,0,0-1.67-.55,9.31,9.31,0,0,0-2.05.21,4.93,4.93,0,0,0-1.76.84,16.31,16.31,0,0,0-1.5,1.5,12.75,12.75,0,0,0-1.29,1.86,15.07,15.07,0,0,0-1,2.08l-.19.48L29,47.2a6.74,6.74,0,0,1,.2-2l.09-.47a9.42,9.42,0,0,1,1-2.36,7.1,7.1,0,0,1,1.61-2.05A6.88,6.88,0,0,1,34.21,39a8.36,8.36,0,0,1,2.71-.44,5,5,0,0,1,2.7.81c-.13-.36-.27-.72-.43-1.07a10.55,10.55,0,0,0-1.07-2,5.92,5.92,0,0,0-1.41-1.49A3.38,3.38,0,0,0,35,34.17a6.45,6.45,0,0,0-2,.28,7.37,7.37,0,0,0-3.48,2.63,17.78,17.78,0,0,0-2.36,4.16,40.43,40.43,0,0,0-1.59,4.82l-.24.94V46a15.26,15.26,0,0,1,.12-1.67c0-.28.07-.57.09-.87l.06-.33c.13-.71.26-1.45.45-2.15a15.35,15.35,0,0,1,.8-2.4A19.51,19.51,0,0,1,28,36.28a9.5,9.5,0,0,1,1.75-2.11,8,8,0,0,1,2.42-1.47A9.17,9.17,0,0,1,35,32.18h0a5.49,5.49,0,0,1,1.55.23,5.61,5.61,0,0,1,1.41.66,7.44,7.44,0,0,1,1.72,1.52c-.16-.44-.33-.87-.53-1.29a13.48,13.48,0,0,0-1.22-2.22,9.58,9.58,0,0,0-1.57-1.93,8.77,8.77,0,0,0-4.62-2.21L31,26.86l.7-.16a5.23,5.23,0,0,1,2.81.15l.68.21.69.22h0c.1.07.21.12.31.18a2.79,2.79,0,0,1,.34.18l.21.13a2,2,0,0,1,.46.32A13.88,13.88,0,0,1,39.4,30,10.62,10.62,0,0,1,41,32.4c.2.41.41.83.61,1.25,0-.18,0-.37,0-.55.07-1.43.14-2.9.29-4.34.07-.49.13-1,.2-1.45s.11-.84.17-1.27a1.39,1.39,0,0,1-.64-1.16V23.72c0-.32,0-.61,0-.9a1.47,1.47,0,0,0-.39.7l-.12.61c-.21,1-.34,2.07-.47,3-.06.46-.13.93-.2,1.47,0,.15,0,.3-.05.45a.39.39,0,0,0-.08-.1,14.88,14.88,0,0,0-2.29-2,3.52,3.52,0,0,0-.66-.45l-.1-.06a3.36,3.36,0,0,0-.49-.27l-.15-.08L36.5,26l-.17-.06-.72-.23-.69-.22a7,7,0,0,0-2.11-.34,6.35,6.35,0,0,0-1.43.17l-.7.16a1.41,1.41,0,0,0-1.09,1.46,1.37,1.37,0,0,0,.3.78l.13.06.53.3a1.08,1.08,0,0,1,.2.16l.08,0,.71.08a7.33,7.33,0,0,1,3.83,1.84c.22.23.42.44.6.65a6.77,6.77,0,0,0-1-.07h-.11a10.11,10.11,0,0,0-3.21.62,9.56,9.56,0,0,0-2.82,1.72,10.35,10.35,0,0,0-2,2.41A19.67,19.67,0,0,0,25.48,38a15.94,15.94,0,0,0-.87,2.61,22.94,22.94,0,0,0-.48,2.27l-.06.33a.59.59,0,0,0,0,.13c0,.29-.06.56-.09.85A16.73,16.73,0,0,0,23.83,46v1a1.42,1.42,0,0,0,1.23,1.41h.19a1.43,1.43,0,0,0,1.37-1.06l.24-.94a40.12,40.12,0,0,1,1.52-4.62,16.69,16.69,0,0,1,2.19-3.86,6,6,0,0,1,2.8-2.15,5.28,5.28,0,0,1,1.51-.21,1.85,1.85,0,0,1,1,.37,4.18,4.18,0,0,1,1.06,1.11l0,.06h-.06a10,10,0,0,0-3.16.51,8.43,8.43,0,0,0-2.84,1.69A8.68,8.68,0,0,0,29,41.74a11.17,11.17,0,0,0-1.08,2.67s-.11.56-.11.56a8,8,0,0,0-.22,2.35l.05.52a1.42,1.42,0,0,0,1.2,1.28h.21a1.41,1.41,0,0,0,1.31-.89l.2-.48a11.94,11.94,0,0,1,.9-1.88,11,11,0,0,1,1.13-1.65,14.43,14.43,0,0,1,1.29-1.3,3.44,3.44,0,0,1,1.25-.6,7.36,7.36,0,0,1,1.63-.18,1.93,1.93,0,0,1,.93.29,5.24,5.24,0,0,1,1.59,2.61,27.13,27.13,0,0,1,.88,4.09c.06.66.13,1.43.13,2.16,0,.1,0,2.11,0,2.11,0,2.65,0,7.08,0,8.94a2.47,2.47,0,0,0,2.41,2.4,2.38,2.38,0,0,0,2.41-2.3,23.36,23.36,0,0,0,.08-2.5,6.85,6.85,0,0,1,.28-1.39c0-.05,0-.09,0-.14A5.87,5.87,0,0,1,46.11,57c0-.06,0-.11.07-.17a13.72,13.72,0,0,1,1.54-3.09,6.28,6.28,0,0,1,1-1.16l.08-.08a5.9,5.9,0,0,1,1.12-.79,4,4,0,0,1,1.28-.35h.2a6.87,6.87,0,0,1,.92.08l.58.07.54,0h.14a1.42,1.42,0,0,0,.75-2.62l-.46-.28a6.39,6.39,0,0,0-2.61-.94,5.53,5.53,0,0,0-1-.09,6.65,6.65,0,0,0-1.81.26,6,6,0,0,0-2.59,1.28l-.48.36a66.86,66.86,0,0,1,.41-7.11c0-.31.1-.62.15-1a21.42,21.42,0,0,1,.56-2.76,8.71,8.71,0,0,1,1.09-3l.13-.25a.49.49,0,0,1,0-.11l.07-.09a1.86,1.86,0,0,0,.14-.21l.18-.17a2.73,2.73,0,0,0,.24-.22,1.37,1.37,0,0,1,.66-.33l.16-.08h.55l.16.05a4.28,4.28,0,0,1,1,.36,6.61,6.61,0,0,1,1.94,2.16,16.5,16.5,0,0,1,1.45,3.3l.24.73a1.4,1.4,0,0,0,1.34,1l.23,0a1.41,1.41,0,0,0,1.19-1.4V38.59a6.28,6.28,0,0,0-.16-1.24,9.76,9.76,0,0,0-.44-1.86l-.13-.42a1.67,1.67,0,0,0-.08-.2l-.17-.35a14.46,14.46,0,0,0-1-1.72,1.2,1.2,0,0,0-.17-.21,6.53,6.53,0,0,1-.58-.7l-.16-.18-.15-.13-.34-.29a5.48,5.48,0,0,0-.48-.39,6.15,6.15,0,0,0-2.84-1.34l-.22,0a6.22,6.22,0,0,0-1-.12,4.19,4.19,0,0,0-.5,0,6.07,6.07,0,0,0-1,.1l-.11,0a6.77,6.77,0,0,0-2.65,1.12c0-.66-.1-1.33-.17-2-.11-1.1-.27-2.21-.46-3.32A1.41,1.41,0,0,1,43.15,26.28Z"/><path class="cls-1" d="M44.09,23.52a1.42,1.42,0,0,0-.51-.83c-.09.35-.17.7-.25,1l-.25,1.14V23.72c0-.44,0-.84.08-1.26a1.36,1.36,0,0,0-1.46.36c0,.29,0,.58,0,.9v1.16A1.39,1.39,0,0,0,42.3,26c.08-.54.17-1.09.28-1.63l.12-.61.12.61c.13.62.23,1.25.33,1.87a1.41,1.41,0,0,0,1.27-1c-.07-.39-.13-.78-.21-1.17Z"/><path class="cls-1" d="M43.08,24.88l.25-1.14c.08-.35.16-.7.25-1a1.42,1.42,0,0,0-.42-.23c0,.42-.08.82-.08,1.26Z"/><path class="cls-1" d="M30,27.78l-.13-.06a1.38,1.38,0,0,0,.86.52,1.08,1.08,0,0,0-.2-.16Z"/><path class="cls-1" d="M43.08,26.3l.07,0c-.1-.62-.2-1.25-.33-1.87l-.12-.61-.12.61c-.11.54-.2,1.09-.28,1.63a1.4,1.4,0,0,0,.63.25Z"/></svg>