<svg id="圖層_1" data-name="圖層 1" xmlns="http://www.w3.org/2000/svg" viewBox="0 0 135.57 128.25"><defs><style>.cls-1{fill:#fff;}</style></defs><title>0</title><path class="cls-1" d="M47.83,70.27a6.11,6.11,0,0,1,.24.89c.36-.24.78-.52,1.13-.78C48.75,70.33,48.24,70.29,47.83,70.27Z"/><path class="cls-1" d="M40,48.55c-7.07-1.76-6.73-10.52-6.65-11.7a3.2,3.2,0,0,1-2.54-1.22c-1.17-1.55-.69-4-.58-4.49a3.82,3.82,0,0,1-.93-3.9,6.61,6.61,0,0,1,.89-1.9,3.84,3.84,0,0,1-1-1.3,23.12,23.12,0,0,1-.78,7.72l2.08,16.48a35.66,35.66,0,0,1,9.62.65C40,48.75,40,48.62,40,48.55Zm-7-1.8H31.68l-1.19-9.42a4.57,4.57,0,0,0,1.38.69c0,2,.44,5.9,2.73,8.75C34,46.75,33.45,46.75,33,46.75Z"/><path class="cls-1" d="M27.16,34.15a3.41,3.41,0,0,1-.62.59,10.17,10.17,0,0,0-1.47,2.2,6.58,6.58,0,0,1,1.8,5.51s0,.1,0,.14A5,5,0,0,1,28.8,49a3.71,3.71,0,0,1,.27.29c.36-.32.74-.63,1.13-.93L28.32,33.48A3.66,3.66,0,0,0,27.16,34.15Zm-.38,2.63c.12-.2.28-.42.45-.65l.22,1.72A10,10,0,0,0,26.78,36.78Z"/><path class="cls-1" d="M29.06,17.07h0l-2.21-3a23.13,23.13,0,0,1,1.72,5.41A14.68,14.68,0,0,1,29.06,17.07Z"/><path class="cls-1" d="M47.25,34a1.52,1.52,0,0,0-1.06-.66,8.53,8.53,0,0,1-.13,1.6A7.28,7.28,0,0,1,48,36.39,6.26,6.26,0,0,0,47.25,34Z"/><path class="cls-1" d="M27.58,33.54a3.5,3.5,0,0,1,.71-.32l-.12-.93c0,.1-.07.21-.11.3A7,7,0,0,1,27.58,33.54Z"/><path class="cls-1" d="M42.46,63a1.71,1.71,0,0,0,.07,1.21,5.31,5.31,0,0,1,3.35-2C44.27,62.09,42.87,62.08,42.46,63Z"/><path class="cls-1" d="M115.72,67.81l-.88-5.34a12.47,12.47,0,0,1-1.5,4.34C113.73,67,114.62,67.3,115.72,67.81Z"/><path class="cls-1" d="M114.16,58.28l-.06.06c0,.07.06.14.1.21Z"/><path class="cls-1" d="M64.77,37.23c-1.42,1.49-2.88.35-4.43-.86-1.34-1.06-2.86-2.25-4.58-1.87s-1.6,2.52-1.49,4.8c.08,1.81.17,3.68-.73,4.62a2.23,2.23,0,0,1-1.69.62,5.58,5.58,0,0,1-.73,0,5.65,5.65,0,0,1,2.53,3.56,3.81,3.81,0,0,1-1,3.5,4.3,4.3,0,0,1-3.11,1.33,4.46,4.46,0,0,1-.63-.05,5.23,5.23,0,0,1-2.67-1.27,7.51,7.51,0,0,1-1.33.35,1.71,1.71,0,0,1,.24,1.29c-.27,1-1.62,1.45-2.93,1.91s-2.57.92-2.37,1.76,2.42.93,4.79,1c2.58,0,5.49,0,6.64,1.22a1.84,1.84,0,0,1,.52,1.36,2.13,2.13,0,0,1-.43,1.28,63.55,63.55,0,0,1,7.88.51,12.37,12.37,0,0,1,2.87-4.28,10.36,10.36,0,0,1,2.55-8.26,9,9,0,0,1,2.51-1.89c.1-.6.22-1.2.37-1.82l-.1-1.33Zm1.16,9.61a10.87,10.87,0,0,0-2.26,1.84,11.59,11.59,0,0,0-3,8.68,14.46,14.46,0,0,0-2.28,3.3c-1.47-.16-3.29-.31-5.17-.37a3.25,3.25,0,0,0-.91-2.24c-1.57-1.6-4.66-1.62-7.64-1.65l-1.75,0c1.52-.54,3.16-1.19,3.6-2.79l0-.09a6.23,6.23,0,0,0,2.16.74,4.76,4.76,0,0,0,.84.07,5.74,5.74,0,0,0,4.14-1.77,5.23,5.23,0,0,0,1.34-4.7,5.85,5.85,0,0,0-1-2.47,3.44,3.44,0,0,0,.56-.46c1.31-1.38,1.21-3.56,1.12-5.66-.06-1.29-.15-3.24.37-3.36a2.09,2.09,0,0,1,.35,0c1,0,2.08.87,3.06,1.65,1.17.92,2.38,1.87,3.84,1.87a3.27,3.27,0,0,0,.7-.08l2.07,5.63.07.92C66.07,46.16,66,46.5,65.93,46.84Z"/><path class="cls-1" d="M135.56,45a4.75,4.75,0,0,0-1.16-3.58c-1.81-2-5.08-2-8-2.06a18.85,18.85,0,0,1-3.19-.23,9.94,9.94,0,0,1,1.46-1.43c1.65-1.41,4.41-3.76,2.32-7.15-1.24-2-4.11-3-8.77-3a50.15,50.15,0,0,0-7.35.62l-2.61-16a1.39,1.39,0,0,0-.57-.92,1.43,1.43,0,0,0-.83-.26h-.23l-.25.05a1.4,1.4,0,0,0-1.16,1.62L107.44,26a14.34,14.34,0,0,0-3.18-1.29,17.52,17.52,0,0,0-4.52-.6,14.76,14.76,0,0,0-3,.3c-2.79.58-4.58,2-4.92,3.9-.38,2.91,1.56,4.2,2.72,5,.82.54,1,.72,1,1,0,.54-.12.69-.92,1.6-.38.43-.92,1-1.56,1.92-.28,0-.56,0-.86,0a16.21,16.21,0,0,0-1.92.12,13.37,13.37,0,0,1-1.68.12c-1.23,0-1.76-.25-1.86-.38s-.2-.47.33-2,1.32-4.27-.29-6a4.42,4.42,0,0,0-3.41-1.25,12.09,12.09,0,0,0-2.51.3,16.77,16.77,0,0,0-8.69,5.14l-.77-.23a11.19,11.19,0,0,0-6.25-4.41,63.9,63.9,0,0,0-4.36-7.62L54.37,4.17A1.44,1.44,0,0,0,53,3.24a1.37,1.37,0,0,0-.49.09l-.24.09a1.43,1.43,0,0,0-.8.73,1.47,1.47,0,0,0,0,1.09L56.54,19c-2.71-1.14-6.43-2.43-9.35-2.43a6.93,6.93,0,0,0-2.44.4,4,4,0,0,0-2.4,2.32c-1,2.58,1.68,4.16,3.47,5.21a13.5,13.5,0,0,1,1.7,1.1,13.18,13.18,0,0,1-3.6.53l-1,.06-.65-.26a6.76,6.76,0,0,0-5.07-4.69c-.45-1.78-2-4.67-7.11-5.54l-2.87-3.9L25.92,1.24A1.42,1.42,0,0,0,24.51,0h-.17l-.25,0a1.41,1.41,0,0,0-1.23,1.59l.77,6.11c-3.35-2.89-6.84-4.51-9.78-4.51a6.27,6.27,0,0,0-2.09.34A4,4,0,0,0,9,7.08a5.73,5.73,0,0,0,2.26,4.79c.15.14.35.32.49.47l-.07.06c-.61.58-2.73.82-4.29,1-3.29.38-7.8.9-7.37,5C.29,22,4.08,22.09,6.6,22.15c1.18,0,3.15.08,3.34.6.26.69-.7,2.14-1.48,3.3-1.36,2-3.41,5.09-.83,7.67a3.89,3.89,0,0,0,2.81,1.22c2,0,3.76-1.46,5.49-2.88a9.17,9.17,0,0,1,3.15-2c.48,0,1.32,1.72,1.73,2.55a8.83,8.83,0,0,0,2.52,3.56A8.79,8.79,0,0,0,22,37.29a3,3,0,0,0-.3.32A42.08,42.08,0,0,0,11.42,36C7.49,36,5,37.15,4.16,39.45a4.15,4.15,0,0,0,0,3.54c.93,1.79,3.09,2.32,5,2.78a16,16,0,0,1,2.08.61v0c-.41,1-2.23,1.75-4,2.51-3,1.3-7.65,3.26-5.83,8.25a4.83,4.83,0,0,0,5,3.32,21.76,21.76,0,0,0,6.08-1.28l.45-.13-.06.13C11.78,62,11,66.67,13.47,73a12.72,12.72,0,0,0-.53,3.58,8.86,8.86,0,0,0,3.18,7.06A6,6,0,0,0,21.23,89a4.35,4.35,0,0,0,.63,0c1,0,4.1-.34,5.48-4.58,1.23-.66,3.24-2.45,2.93-6.94a6.79,6.79,0,0,0,1.54-1.85,3.05,3.05,0,0,0,.41,0l6.23,49.22A1.44,1.44,0,0,0,39.86,126l.18,0,.25,0a1.41,1.41,0,0,0,.94-.53,1.47,1.47,0,0,0,.29-1L35,73.27a16.28,16.28,0,0,0,1-2.9,16.43,16.43,0,0,1,.56-1.82,16.71,16.71,0,0,1,1.72,2.78c1.23,2.26,2.5,4.59,4.54,5.18a5.3,5.3,0,0,0,3.46,6.16,4.18,4.18,0,0,0,1.07.14A9.33,9.33,0,0,0,52.06,81c.25-.15.55-.34.84-.5-.07.47-.17,1-.25,1.47-.44,2.36-1,5.3.54,7.31a4.82,4.82,0,0,0,3.53,1.8l.62,0A4.49,4.49,0,0,0,60.4,90a5.09,5.09,0,0,0,1.16-1.6,6.38,6.38,0,0,0,4.2,1.82,5.72,5.72,0,0,0,3.58,1.48,3.43,3.43,0,0,0,.56,0,4.89,4.89,0,0,0,3.59-2.79,9.26,9.26,0,0,0,1.76-10.18,10.3,10.3,0,0,0,1.42-5l19.61,53.24a1.44,1.44,0,0,0,1.82.84l.23-.09a1.41,1.41,0,0,0,.84-1.82L80.27,74.5l.56.11a16.17,16.17,0,0,0,1.68,2.45c1.79,2.15,3.87,3.29,6,3.29h.32a4.21,4.21,0,0,0,3.39-1.75c.08-.12.16-.24.23-.36a4.68,4.68,0,0,0,.47,1A3.64,3.64,0,0,0,96.12,81a5,5,0,0,0,.66-.05c-1.63,1.14-3,2.79-2.55,5.5a4.09,4.09,0,0,0,4.4,3.65,15.29,15.29,0,0,0,2.43-.25,16.39,16.39,0,0,1,2.17-.23,2.39,2.39,0,0,1,1.48.37c.59.44.6,1.19.5,2.78-.13,2-.35,5.43,4,6.47a6.87,6.87,0,0,0,1.61.2,4.22,4.22,0,0,0,2.29-.62c1.65-1.06,2-3,2.43-4.93a7.79,7.79,0,0,1,1.17-3.33.44.44,0,0,1,.37-.16,3,3,0,0,1,.91.21L123,121a1.4,1.4,0,0,0,1.39,1.19l.24,0,.24,0a1.42,1.42,0,0,0,1.17-1.63l-4.68-28.55a4.63,4.63,0,0,0,1.16.16,3.44,3.44,0,0,0,1.44-.31,4.3,4.3,0,0,0,2.19-3c1.21-4.34-3-6-5.6-7l-.9-.35L119.4,80h.38c2.19,0,3.58-1.23,4.24-3.77.61-2.35-.09-5.83-6.75-9.23l-1-5.87a7.55,7.55,0,0,0-.31-1.9l-.1-.62a3.41,3.41,0,0,1,1.2-.81,16.51,16.51,0,0,1,3.06,2.1c2.24,1.75,4.77,3.73,7.26,3.73h0A4.27,4.27,0,0,0,130.79,62c2.75-3.28.06-6.7-1.72-9a11.38,11.38,0,0,1-1.62-2.43,13.59,13.59,0,0,1,1.37-.11C131.07,50.39,135.24,50.19,135.56,45ZM93,73.66c0-.13,0-.25-.07-.37a5.19,5.19,0,0,0,1.39-2.1,6.83,6.83,0,0,0-.42-5.07,3.94,3.94,0,0,0-.66-3.36,9.91,9.91,0,0,0,.33-3.55,7.35,7.35,0,0,0,4.74-2.94,5.08,5.08,0,0,0,.5-.91l.47-.18a18.16,18.16,0,0,0-1.19,3.12,11.94,11.94,0,0,0,.83,9c-.07.2-.15.44-.23.7A15.27,15.27,0,0,0,93,73.66Zm33-23.45c-.14,1,.88,2.32,2,3.7,1.76,2.24,3.75,4.78,1.74,7.17-2.24,2.73-5.8,0-8.66-2.29a16.56,16.56,0,0,0-3.43-2.31c-.93-.36-2,.48-3.23,1.6l.24,1.47a6.79,6.79,0,0,1,.28,1.71L116,67.94c3.13,1.51,7.59,4.35,6.66,7.93-.77,2.94-2.37,2.79-3.77,2.66a5.76,5.76,0,0,0-1.16,0l.65,4c.51.22,1.07.44,1.66.67,2.63,1,5.61,2.16,4.75,5.26a3,3,0,0,1-1.42,2.06c-1,.47-2.31-.1-3.56-.65l-.24-.11,5.07,31-.25,0L119.29,89.6c-1.38-.59-2.66-1-3.59,0a8.49,8.49,0,0,0-1.52,4c-.34,1.69-.66,3.28-1.8,4a2.8,2.8,0,0,1-1.53.41,5.64,5.64,0,0,1-1.28-.17c-3.22-.76-3.08-2.91-2.95-5,.11-1.57.2-3.06-1.06-4s-3-.66-4.72-.41c-2.29.35-4.66.72-5.21-2.25s1.84-4.13,3.94-5.24c1.59-.84,3.09-1.64,3.27-3a6.19,6.19,0,0,1-1.09-.66c-.43.18-1,.46-1.48.75-2,1.1-4.78,2.61-6.15.44a4,4,0,0,1,0-3.85A13.9,13.9,0,0,1,99.88,69a14,14,0,0,1,.6-1.77,10.35,10.35,0,0,1-1-8.5,16.34,16.34,0,0,1,1.79-4.16,11.64,11.64,0,0,1-.41-1.76,10.9,10.9,0,0,1-3.18,1.47,2.73,2.73,0,0,1-.51,1.22,6.16,6.16,0,0,1-5.29,2.48,8.11,8.11,0,0,1-.27,5.29c1.47.78.92,2.68.81,3A5.85,5.85,0,0,1,93,70.72a3.77,3.77,0,0,1-1.65,2c.17.57.88,3.42-.27,5.07a2.84,2.84,0,0,1-2.3,1.15h-.25c-1.7,0-3.39-1-4.91-2.78a13.9,13.9,0,0,1-1.85-2.86A7.86,7.86,0,0,1,77.83,72l20,54.34-.23.09L77.46,71.68a5.56,5.56,0,0,1-.85-.9,6.29,6.29,0,0,1-1.11-3.16,11.86,11.86,0,0,1-.84,2.75,8.71,8.71,0,0,1-1,8.22A7.88,7.88,0,0,1,72.34,88a3.7,3.7,0,0,1-2.63,2.24l-.37,0a4.77,4.77,0,0,1-3-1.45,5,5,0,0,1-4-1.73A6.61,6.61,0,0,1,61,84.38c-.14,1.85-.51,3.6-1.56,4.55a3.07,3.07,0,0,1-2.12.75l-.48,0a3.46,3.46,0,0,1-2.54-1.25c-1.14-1.51-.66-4.11-.28-6.2.3-1.61.55-3,0-3.38s-1.56.23-2.74,1c-1.47.9-3.13,1.92-4.65,1.52a3.43,3.43,0,0,1-2.08-1.83c-1.7-3.2,1.48-5.3,4-7,1.5-1,2.8-1.85,2.64-2.64s-1.79-.9-3.52-1c-.78,0-1.6-.11-2.37-.22,1.33,2,2.18,4.11.16,5.87a2.78,2.78,0,0,1-1.74.74,2.22,2.22,0,0,1-.37,0c-1.57-.3-2.74-2.46-3.87-4.55-1-1.77-1.87-3.45-2.87-3.67-1.16-.24-1.56,1.27-2,3a12.18,12.18,0,0,1-1.08,3l6.53,51.6-.25,0L33.36,73.3a2.13,2.13,0,0,1-2.38.83h-.05a5.31,5.31,0,0,1-2.15,2.7c.67,5.33-2.11,6.42-2.61,6.57-.8,3.11-2.67,4.19-4.31,4.19a3.24,3.24,0,0,1-.45,0,4.63,4.63,0,0,1-3.92-4.66,7.46,7.46,0,0,1-3.14-6.32A11.4,11.4,0,0,1,15,73c-2.51-6.15-1.81-10.58-.78-13.21a12.15,12.15,0,0,1,1.54-2.81,23.93,23.93,0,0,0-3.67.94C8.3,59,4,60.33,2.74,56.71s1.9-5.13,5.06-6.48c2.12-.9,4.13-1.76,4.76-3.27a1.31,1.31,0,0,0,.06-1.15c-.37-.74-1.7-1.07-3.1-1.41-1.7-.42-3.45-.85-4.09-2.07A2.81,2.81,0,0,1,5.48,40c1.71-4.45,12.16-2,16.74-.72a5.71,5.71,0,0,1,.75-1,8.45,8.45,0,0,1,1.86-1.41,10.66,10.66,0,0,1,1.08-1.77,2.2,2.2,0,0,1-.84.16c-1.37,0-2.19-1.68-3-3.31s-1.76-3.58-3.3-3.31c-1.15.2-2.42,1.23-3.76,2.33-2.2,1.8-4.47,3.66-6.39,1.74-1.75-1.75-.35-3.85,1-5.88,1-1.58,2.15-3.21,1.62-4.58s-2.51-1.46-4.63-1.52c-2.47-.06-5-.12-5.19-2.47-.28-2.71,3-3.09,6.13-3.45,2-.24,4.14-.48,5.09-1.37a1.61,1.61,0,0,0,.64-1.09c0-.51-.49-1-1.06-1.51A4.33,4.33,0,0,1,10.42,7.2a2.58,2.58,0,0,1,1.82-2.29c2.46-.9,7.18.46,12.16,5.49a10.51,10.51,0,0,1,1.18,1.45L24.26,1.45l.25,0,1.38,10.89c.06.09.12.16.17.25L29.34,17c6.2.81,6.64,4.68,6.66,5.53,4,0,5,3.91,5.16,4.52a7.72,7.72,0,0,1,1.54.58l1.32-.1c2.49-.16,4.85-.31,5-1.84.12-.87-1.17-1.62-2.53-2.42-1.69-1-3.44-2-2.87-3.47a2.63,2.63,0,0,1,1.59-1.52C49.08,16.83,57.71,21,59.05,21.7L52.8,4.75,53,4.66l6.43,17.48a57.31,57.31,0,0,1,4.63,8.18,9.88,9.88,0,0,1,6.39,4.47h0a9.49,9.49,0,0,1,2,.66A15.48,15.48,0,0,1,81.12,30c2.27-.49,3.81-.31,4.58.52,1.06,1.17.41,3.27,0,4.66s-.73,2.51-.07,3.32,2.28,1.09,4.81.78a11.55,11.55,0,0,1,3.28,0,24.39,24.39,0,0,1,2-2.48,3.57,3.57,0,0,0,1.27-2.5c.06-1.06-.72-1.58-1.63-2.18-1.1-.73-2.36-1.57-2.1-3.61.23-1.26,1.62-2.24,3.81-2.7a15.4,15.4,0,0,1,6.89.29,10.88,10.88,0,0,1,5,2.82l.19-1.47h0l-2.45-15,.24,0,2.85,17.37c1.64-.31,13.67-2.41,16.08,1.45,1.44,2.35-.41,3.93-2,5.32-1.19,1-2.31,2-2,3.08s2.39,1,4.6,1.08c2.6,0,5.55.1,7,1.6a3.33,3.33,0,0,1,.78,2.54c-.23,4-3.09,4.09-5.39,4.19C127.28,49.14,126.11,49.2,126,50.21ZM47.83,70.27c.41,0,.92.06,1.37.11-.35.26-.77.54-1.13.78A6.11,6.11,0,0,0,47.83,70.27Z"/><path class="cls-1" d="M64.22,30.6c1.12,2.64,1.72,5.16.73,6.42l2.75,7.47h0v.08l.13.35c.19-.66.39-1.31.63-2a11.07,11.07,0,0,1,1.25-4.09A3.76,3.76,0,0,1,70.29,35,9.63,9.63,0,0,0,64.22,30.6Zm4,8.18a15,15,0,0,0-.57,1.41l-1.12-3a6.39,6.39,0,0,0,.07-4,8,8,0,0,1,2,1.86A5,5,0,0,0,68.2,38.78Z"/><path class="cls-1" d="M118.1,82.35l-.62-3.8c-.52.13-.92.5-1.14,1.42C116.07,81.07,116.87,81.76,118.1,82.35Z"/><path class="cls-1" d="M109.12,29.15c.12.13.23.28.34.42l-.22-1.32Z"/></svg>