<svg id="圖層_1" data-name="圖層 1" xmlns="http://www.w3.org/2000/svg" viewBox="0 0 105.26 109.52"><defs><style>.cls-1{fill:#fff;}</style></defs><title>0</title><path class="cls-1" d="M45.5,20.81v-.24c-.17-.05-.36-.1-.57-.14Z"/><path class="cls-1" d="M104.35,48.37c-1.52-.69-5.8-3-7.24-5.57a16.88,16.88,0,0,0-2-2.7,15.7,15.7,0,0,0,5.74,1c.39,0,.78,0,1.19,0a1.54,1.54,0,0,0,.94-2.68,14.4,14.4,0,0,1-3.85-7,12.46,12.46,0,0,0-.85-2.75A11.77,11.77,0,0,0,101,26.61a1.54,1.54,0,0,0-1.1-2.56,10.67,10.67,0,0,1-3.64-.73,20.32,20.32,0,0,0,4.61-2.94,1.52,1.52,0,0,0,.28-2,1.54,1.54,0,0,0-1.3-.72h-.34l-.27.12a1.15,1.15,0,0,1-.44.08c-1.4,0-3.69-1.57-5.91-3.08l-1.33-.91A14.76,14.76,0,0,0,94.1,8.75,1.58,1.58,0,0,0,93.31,7l-.37-.17H92.6a1.58,1.58,0,0,0-1.09.45h0A3.89,3.89,0,0,1,89.94,8a9.82,9.82,0,0,1-2.29.24,22.15,22.15,0,0,1-5.42-.79,15.75,15.75,0,0,0-4-.6,10.34,10.34,0,0,0-1.28.08,7.75,7.75,0,1,0-11.77,7.45A12.39,12.39,0,0,0,65,15.88a6.59,6.59,0,0,0-1-.07,7.76,7.76,0,0,0-5.32,2.12c-.21-.35-.44-.68-.66-1-2.21-3-4.49-3.63-6-3.63a5.42,5.42,0,0,0-.89.07,6.24,6.24,0,0,0-.75.16,6.77,6.77,0,0,0-1.9-3.35,7.15,7.15,0,0,0-5.14-2.25c-2.41,0-4.76,1.2-7.28,2.49-2.84,1.44-5.78,2.94-9.21,2.94H26.3a1.56,1.56,0,0,0-1.44,1,1.54,1.54,0,0,0,.46,1.72,22.75,22.75,0,0,0,5,2.88,7.65,7.65,0,0,0-3,3.41c-.93,2.15-6.32,4.23-9.5,5a1.56,1.56,0,0,0-1.17,1.42,1.54,1.54,0,0,0,1,1.52,34.48,34.48,0,0,0,11.38,2h.32a7.81,7.81,0,0,0,2.25,4l-.35.3C29.64,38,28,39.43,23,39.43c-.64,0-1.31,0-2-.07h-.11a1.55,1.55,0,0,0-1.27,2.42,14.79,14.79,0,0,0,2.23,2.39,9.42,9.42,0,0,1-1.66-.72A62,62,0,0,1,12.69,38a1.55,1.55,0,0,0-1-.34h-.31l-.25.1a1.56,1.56,0,0,0-1,1.24,27.07,27.07,0,0,0,.36,7.7,7.73,7.73,0,0,0-3.2,8.8,25.93,25.93,0,0,1-6.3,3.39,1.54,1.54,0,0,0-.56,2.59,17.33,17.33,0,0,0,11.15,4.1,18.68,18.68,0,0,0,6.79-1.33,19.8,19.8,0,0,1-2.16,8.46A1.54,1.54,0,0,0,17.64,75h.22c.09,0,8.88-1.37,12.2-9.4a15.17,15.17,0,0,0,1.7-.48,8.11,8.11,0,0,0,12.68,5.14c.16.28.34.55.51.82a15.09,15.09,0,0,0,12.82,7.2,11.12,11.12,0,0,0,2.24-.2,1.54,1.54,0,0,0,.48-2.81c-2.37-1.48-2.86-3.63-3.6-6.88-.2-.88-.41-1.78-.67-2.75a25.37,25.37,0,0,0,9.59,2.08h.74c5.58,0,11.9,0,16.28,12.82a74.61,74.61,0,0,1,4.11,27.31l-.14,1.68h15.59l0-1.56a183.61,183.61,0,0,0-2.7-27.42c-2.27-12-5.39-19.34-12.52-29.3l1.21.34a29.36,29.36,0,0,0,7,.83,34.62,34.62,0,0,0,8.71-1.14,1.54,1.54,0,0,0,.25-2.9Zm-.6,1.53A33.39,33.39,0,0,1,95.39,51a27.73,27.73,0,0,1-6.69-.79A21.63,21.63,0,0,1,83.19,48c.45.75,1,1.53,1.56,2.33C92.64,61,95.92,68.42,98.28,80.8A184.47,184.47,0,0,1,101,108v.12H88.34V108a75.7,75.7,0,0,0-4.18-27.9C79.55,66.56,72.69,66.29,66.55,66.29h-.74c-4.41,0-8.17-1.53-12.07-3.24a13.31,13.31,0,0,1,.92,2.29c.35,1.18.6,2.28.84,3.35.77,3.34,1.37,6,4.24,7.77a.13.13,0,0,1,0,.13.12.12,0,0,1-.09.1,10.87,10.87,0,0,1-1.93.16,13.69,13.69,0,0,1-11.64-6.57A22.41,22.41,0,0,1,44.81,68,6.69,6.69,0,0,1,33,63.64c0-.23,0-.46,0-.68A12,12,0,0,1,29,64.34c-2.78,7.94-11.27,9.23-11.36,9.25h0a.12.12,0,0,1-.1-.06.13.13,0,0,1,0-.12,22.16,22.16,0,0,0,2.35-9.71c0-.63.09-1.26.14-1.88a14.31,14.31,0,0,1-6.26,2.23,15.66,15.66,0,0,1-2.12.15A16,16,0,0,1,1.46,60.48a.1.1,0,0,1,0-.11.14.14,0,0,1,.08-.1A26.48,26.48,0,0,0,9.06,56a6.18,6.18,0,0,1-.64-2.75,6.33,6.33,0,0,1,3.74-5.77,25.25,25.25,0,0,1-.56-8.25.14.14,0,0,1,.08-.1.11.11,0,0,1,.12,0,66.94,66.94,0,0,0,7.71,5.55A17.57,17.57,0,0,0,22.92,46l.52.17a9,9,0,0,1,1.84-1.24,15.72,15.72,0,0,1-4.49-4,.14.14,0,0,1,0-.14.16.16,0,0,1,.12-.06c7.09.48,9.33-1.42,11.3-3.11A14,14,0,0,1,34,36.27a6.32,6.32,0,0,1-3.43-5.4c-.51,0-1,.05-1.55.05A33.51,33.51,0,0,1,18.18,29a.12.12,0,0,1-.08-.13.12.12,0,0,1,.09-.11c.09,0,8.91-2.27,10.46-5.85a6.15,6.15,0,0,1,3.83-3.4,5.55,5.55,0,0,1,1.06-.22c-.33-.38-.62-.7-.89-1A21.91,21.91,0,0,1,26.23,15a.13.13,0,0,1,0-.14.12.12,0,0,1,.12-.08c4,.16,7.42-1.58,10.43-3.11,3.95-2,7.37-3.76,10.74-.47a6.25,6.25,0,0,1,1.76,4.36,5.42,5.42,0,0,1,2.11-.78c1.94-.31,3.86.73,5.53,3a17.51,17.51,0,0,1,1.58,2.73,6.32,6.32,0,0,1,8-2.8c0-.14,0-.27,0-.42a13.64,13.64,0,0,1,.33-3.71,6.33,6.33,0,1,1,8.81-5.83,5.8,5.8,0,0,1-.1,1c1.19-.57,3.16-.87,6.43,0,4.24,1.1,6.91.92,8.4.56a4.7,4.7,0,0,0,2.23-1,.14.14,0,0,1,.15,0,.13.13,0,0,1,.07.14,12.75,12.75,0,0,1-3.37,5.76c.9.56,1.81,1.18,2.71,1.8,3,2,5.79,4,7.71,3.13a.13.13,0,0,1,.15.05.11.11,0,0,1,0,.16,21.22,21.22,0,0,1-7,3.77,11.9,11.9,0,0,0,6.88,2.36.12.12,0,0,1,.11.08.13.13,0,0,1,0,.13,11.77,11.77,0,0,1-3.53,2.44,9.94,9.94,0,0,1,1.39,3.59,15.55,15.55,0,0,0,4.3,7.73.13.13,0,0,1,0,.13.13.13,0,0,1-.11.09l-1.11,0c-5.15,0-8.9-2.13-10.72-6a6.34,6.34,0,0,1-1.64,3,19.63,19.63,0,0,1,7.36,6.92c2,3.46,7.83,6.13,7.89,6.15a.13.13,0,0,1,.07.13A.12.12,0,0,1,103.75,49.9Z"/><path class="cls-1" d="M43.23,30c0,.22,0,.43,0,.65a6.3,6.3,0,0,1-1.11,3.58,16,16,0,0,0,6.51.47L50,34.6c-1.13-.87-2.41-1.71-3.71-2.56C45.23,31.37,44.22,30.7,43.23,30Zm1,3.27a6,6,0,0,0,.22-.72l1.28.85A14,14,0,0,1,44.22,33.26Z"/><path class="cls-1" d="M70.32,23.22c0,.11,0,.23,0,.35a6.33,6.33,0,0,1-9.45,5.51,29.45,29.45,0,0,1,.25,4.75c.71,1.1,1.36,2.22,2,3.33s1.12,1.93,1.73,2.89a12,12,0,0,1,1.35-2.4,12.09,12.09,0,0,1,7.34-4.78c0-1.57.18-3.16.33-4.79a61.53,61.53,0,0,0,.35-8.8A13.65,13.65,0,0,1,70.32,23.22ZM72.47,28c-.11,1.25-.23,2.53-.3,3.82a13.22,13.22,0,0,0-7.11,5.05l-.27.38c-.15-.26-.29-.51-.43-.74-.53-.94-1.13-2-1.79-3,0-.74,0-1.49,0-2.26a7.29,7.29,0,0,0,1.48.15A7.76,7.76,0,0,0,71.74,24a13.34,13.34,0,0,0,1.08-.88C72.76,24.69,72.63,26.28,72.47,28Z"/><path class="cls-1" d="M47,19.66c-1-.57-2.86-1.08-6-.64a30.22,30.22,0,0,0,6.32,4.51A11.83,11.83,0,0,1,47,19.66ZM45.5,20.81l-.57-.38c.21,0,.4.09.57.14Z"/><path class="cls-1" d="M56.2,43.65a6.46,6.46,0,0,1-4.7,1.66h-.09a5.64,5.64,0,0,1,.08.93,6.33,6.33,0,0,1-10.41,4.84A8.08,8.08,0,0,1,38,53.19l0,.23a47.34,47.34,0,0,0,8.42,1h.84c2.56,0,4.68,1.58,6.73,3.11l.48.36a11.4,11.4,0,0,1,0-3.08,12.1,12.1,0,0,1,4.26-7.53l-.11-.16C57.78,45.92,56.94,44.75,56.2,43.65Zm-3.11,11L53,55.1a11.56,11.56,0,0,0-4.34-2,7.8,7.8,0,0,0,4.21-6.5,8,8,0,0,0,3-1l1,1.43A13.09,13.09,0,0,0,53.09,54.62Z"/></svg>