<svg id="圖層_1" data-name="圖層 1" xmlns="http://www.w3.org/2000/svg" viewBox="0 0 123.64 94.92"><defs><style>.cls-1{fill:#fff;}</style></defs><title>0</title><path class="cls-1" d="M122.58,41.92c-1.79-.59-6.8-2.63-8.5-4.82a16.34,16.34,0,0,0-2.32-2.35,24.48,24.48,0,0,0,6.74.87l1.4,0a1.8,1.8,0,0,0,1.61-.9,1.12,1.12,0,0,0-.5-1.43,12.41,12.41,0,0,1-4.52-6,8.75,8.75,0,0,0-1-2.38,14.42,14.42,0,0,0,3.13-1.79,1.11,1.11,0,0,0,.3-1.44,1.91,1.91,0,0,0-1.6-.79,16.48,16.48,0,0,1-4.28-.63,27,27,0,0,0,5.41-2.53,1.11,1.11,0,0,0,.34-1.73,2,2,0,0,0-1.53-.62,2.84,2.84,0,0,0-.71.11,1.66,1.66,0,0,1-.53.07c-1.63,0-4.3-1.35-6.93-2.67-.49-.25-1-.52-1.57-.78a11.7,11.7,0,0,0,3-4.48,1.26,1.26,0,0,0-.91-1.48,2.68,2.68,0,0,0-.86-.15,2.17,2.17,0,0,0-1.27.39h0a5,5,0,0,1-1.83.58,15.57,15.57,0,0,1-2.7.2,34.61,34.61,0,0,1-6.36-.68,24.55,24.55,0,0,0-4.76-.52,14.51,14.51,0,0,0-1.5.07c-.5-3.36-4.37-6-9-6-5,0-9.11,3-9.11,6.72,0,2.36,1.67,4.51,4.33,5.72a11.33,11.33,0,0,0-.17,1.32,11.83,11.83,0,0,0-7.41,1.78c-.25-.31-.51-.59-.77-.86a9.85,9.85,0,0,0-7-3.15,9.42,9.42,0,0,0-1.06.06l-.88.14a5.83,5.83,0,0,0-2.23-2.9,10,10,0,0,0-6-1.94c-2.84,0-5.59,1-8.53,2.14-3.2,1.2-6.81,2.56-10.83,2.56H30.9a1.83,1.83,0,0,0-1.69.87,1.11,1.11,0,0,0,.54,1.49,28.92,28.92,0,0,0,5.85,2.51,7.74,7.74,0,0,0-3.48,2.94C31,21.26,24.7,23.06,21,23.76A1.52,1.52,0,0,0,19.6,25a1.39,1.39,0,0,0,1.16,1.33A54,54,0,0,0,34.12,28h.37a6.63,6.63,0,0,0,2.66,3.43l-.42.26c-1.92,1.21-3.9,2.47-9.67,2.47-.75,0-1.55,0-2.39-.07H24.4a2,2,0,0,0-1.44.68A1.05,1.05,0,0,0,23,36.18a14.68,14.68,0,0,0,2.63,2.1,15.26,15.26,0,0,1-1.94-.63A78.48,78.48,0,0,1,14.92,33a2.32,2.32,0,0,0-1.15-.3,2.39,2.39,0,0,0-.66.09A1.5,1.5,0,0,0,12,33.83a17.44,17.44,0,0,0,.42,6.68c-2.57,1.23-4.16,3.35-4.16,5.64a4.88,4.88,0,0,0,.41,2,35.47,35.47,0,0,1-7.39,2.94,1.58,1.58,0,0,0-1.21,1,1.14,1.14,0,0,0,.52,1.26,24.6,24.6,0,0,0,13.11,3.56c.9,0,1.82,0,2.72-.14a27.17,27.17,0,0,0,5.25-1,13.64,13.64,0,0,1-2.53,7.34,1.06,1.06,0,0,0,.15,1.4,2.11,2.11,0,0,0,1.47.55L21,65c.1,0,10.41-1.14,14.33-8.14a20.19,20.19,0,0,0,2-.42c.81,3.27,4.7,5.76,9.37,5.76a12,12,0,0,0,5.52-1.3c.19.23.39.47.61.7,4.88,5.43,11.52,6.25,15,6.25a16.94,16.94,0,0,0,2.64-.18,1.58,1.58,0,0,0,1.38-1.07,1.23,1.23,0,0,0-.83-1.36c-2.78-1.28-3.35-3.14-4.23-6-.23-.76-.47-1.54-.78-2.38A38.87,38.87,0,0,0,77.3,58.69h1.06c6.47,0,13.79,0,18.94,11.11,6,12.92,4.84,23.56,4.83,23.67v.12a1,1,0,0,0,.43.93,1.92,1.92,0,0,0,1.22.4h14.82a2,2,0,0,0,1.19-.36,1.1,1.1,0,0,0,.47-.89v-.1a121.79,121.79,0,0,0-3.17-23.77c-2.66-10.35-6.33-16.76-14.7-25.39.46.11.93.2,1.41.29a46,46,0,0,0,8.27.72,55.36,55.36,0,0,0,10.24-1,1.55,1.55,0,0,0,1.34-1.2A1.36,1.36,0,0,0,122.58,41.92Zm-.71,1.33a52.63,52.63,0,0,1-9.81,1,43.73,43.73,0,0,1-7.87-.69,31,31,0,0,1-6.47-1.89,27,27,0,0,0,1.84,2c9.26,9.24,13.12,15.66,15.89,26.39a120.77,120.77,0,0,1,3.14,23.55v.11H103.77l0-.11c0-.11,1.2-11-4.91-24.18-5.54-12-13.84-12-21.14-11.94H77.3c-5.17,0-9.59-1.33-14.18-2.82a9.87,9.87,0,0,1,1.09,2c.41,1,.7,2,1,2.91.9,2.89,1.6,5.18,5,6.73a.1.1,0,0,1,.07.11.15.15,0,0,1-.12.09,16.42,16.42,0,0,1-2.26.14c-3.22,0-9.22-.75-13.67-5.7a18.32,18.32,0,0,1-1.55-2,9.21,9.21,0,0,1-6,2c-4.34,0-7.86-2.6-7.86-5.8a3.81,3.81,0,0,1,0-.59,17.72,17.72,0,0,1-4.77,1.2c-3.27,6.87-13.23,8-13.34,8h0a.15.15,0,0,1-.12-.05.08.08,0,0,1,0-.11,15.28,15.28,0,0,0,2.75-8.4c0-.56.1-1.1.17-1.64a21.27,21.27,0,0,1-7.35,1.94c-.87.08-1.7.12-2.5.12a22.67,22.67,0,0,1-12-3.22.09.09,0,0,1,0-.1.11.11,0,0,1,.09-.08,36.17,36.17,0,0,0,8.88-3.71,4.27,4.27,0,0,1-.75-2.38c0-2.23,1.81-4.15,4.4-5A16.22,16.22,0,0,1,13.63,34s0-.07.09-.09a.26.26,0,0,1,.15,0,80.14,80.14,0,0,0,9.05,4.81,25.6,25.6,0,0,0,4,1.14l.61.14a12.4,12.4,0,0,1,2.16-1.07,17.53,17.53,0,0,1-5.27-3.43.09.09,0,0,1,0-.12.19.19,0,0,1,.13,0c8.34.42,11-1.24,13.27-2.7A18.45,18.45,0,0,1,40,31.43c-2.32-.88-3.93-2.64-4-4.68-.6,0-1.21.05-1.83.05a52.18,52.18,0,0,1-12.77-1.64c-.06,0-.1-.06-.09-.11s0-.09.11-.1,10.47-2,12.28-5.07a6.92,6.92,0,0,1,4.5-2.94,8.79,8.79,0,0,1,1.25-.2c-.38-.32-.73-.6-1-.84A29.54,29.54,0,0,1,30.81,13s-.07-.08,0-.12a.12.12,0,0,1,.14-.07c4.7.14,8.71-1.37,12.24-2.7,4.65-1.75,8.66-3.25,12.62-.4a4.76,4.76,0,0,1,2.07,3.78,7.63,7.63,0,0,1,2.47-.68,7.78,7.78,0,0,1,6.5,2.6,14.13,14.13,0,0,1,1.86,2.37,8.12,8.12,0,0,1,6.51-2.85,9.65,9.65,0,0,1,2.84.42c0-.12,0-.24,0-.37a8.54,8.54,0,0,1,.39-3.21c-2.67-.83-4.54-2.78-4.54-5,0-3,3.34-5.49,7.44-5.49s7.44,2.46,7.44,5.49a3.8,3.8,0,0,1-.11.89c1.39-.5,3.7-.75,7.55,0a28.28,28.28,0,0,0,9.87.49,6.34,6.34,0,0,0,2.62-.9.17.17,0,0,1,.18,0,.09.09,0,0,1,.07.12,10.61,10.61,0,0,1-4,5c1.07.48,2.14,1,3.2,1.55,3.49,1.77,6.79,3.44,9,2.72a.19.19,0,0,1,.18,0,.09.09,0,0,1,0,.14A28.08,28.08,0,0,1,109.18,20a17.36,17.36,0,0,0,8.08,2.05.18.18,0,0,1,.13.06.1.1,0,0,1,0,.12,14.57,14.57,0,0,1-4.14,2.11,7.56,7.56,0,0,1,1.63,3.12,13.49,13.49,0,0,0,5.05,6.69.1.1,0,0,1,0,.12.14.14,0,0,1-.13.07l-1.31,0c-6,0-10.45-1.85-12.59-5.24A5.38,5.38,0,0,1,104,31.71a21.74,21.74,0,0,1,8.64,6c2.32,3,9.19,5.31,9.26,5.33a.12.12,0,0,1,.09.11A.13.13,0,0,1,121.87,43.25Z"/><path class="cls-1" d="M82.6,20.12c0,.1,0,.2,0,.3,0,3-3.33,5.5-7.44,5.5a9.59,9.59,0,0,1-3.66-.72,18.08,18.08,0,0,1,.3,4.12c.84.95,1.59,1.92,2.34,2.89s1.32,1.67,2,2.51a9.26,9.26,0,0,1,1.59-2.09,15.29,15.29,0,0,1,8.62-4.14c0-1.36.21-2.74.39-4.16a39.4,39.4,0,0,0,.4-7.62A14.33,14.33,0,0,1,82.6,20.12Zm2.53,4.1c-.13,1.08-.27,2.2-.35,3.32a16.21,16.21,0,0,0-8.36,4.37l-.31.33-.5-.64c-.6-.77-1.33-1.71-2.12-2.63a18.27,18.27,0,0,0,0-1.95,12.61,12.61,0,0,0,1.74.12c4.87,0,8.86-2.83,9.1-6.39q.66-.36,1.26-.75C85.47,21.4,85.31,22.78,85.13,24.22Z"/><path class="cls-1" d="M66,37.83a9.24,9.24,0,0,1-5.52,1.44h-.1a3.59,3.59,0,0,1,.09.81c0,3-3.33,5.49-7.44,5.49a9.1,9.1,0,0,1-4.79-1.3,10.24,10.24,0,0,1-3.66,1.83c0,.07,0,.14,0,.2a67.35,67.35,0,0,0,10.7.86h.18c3,0,5.49,1.38,7.9,2.7l.56.31a7.47,7.47,0,0,1,0-2.66c.55-2.88,2.6-5,5-6.53l-.14-.14C67.87,39.8,66.89,38.79,66,37.83Zm-3.65,9.51c0,.14,0,.27-.07.41a16.77,16.77,0,0,0-5.09-1.7C60,45,62,42.88,62.14,40.42a11.6,11.6,0,0,0,3.49-.84c.38.4.77.82,1.18,1.24A10.71,10.71,0,0,0,62.36,47.34Z"/></svg>