<svg id="圖層_1" data-name="圖層 1" xmlns="http://www.w3.org/2000/svg" viewBox="0 0 133.27 69.05"><defs><style>.cls-1{fill:#fff;}</style></defs><title>0</title><path class="cls-1" d="M93.65,45.39l.34,0-.19-.29A1.82,1.82,0,0,0,93.65,45.39Z"/><path class="cls-1" d="M53.63,55.8a2,2,0,0,0,.26.45A6.34,6.34,0,0,0,55.08,56c.32-.1.66-.2,1-.28-.3,0-.59,0-.87,0A7.64,7.64,0,0,0,53.63,55.8Z"/><path class="cls-1" d="M74.54,32l.12-.16-.19,0Z"/><path class="cls-1" d="M13.32,45.16s-.06.1-.11.17l0,0c.31.06.62.1.93.13a1,1,0,0,0-.68-.34Z"/><path class="cls-1" d="M132.88,51.81a1.39,1.39,0,0,0-1-.45h-.29a1.42,1.42,0,0,0-1.42,1.37,6.43,6.43,0,0,1-.6,2.57,2.32,2.32,0,0,0-2.23-1.75,2.85,2.85,0,0,0-.49,0,3.25,3.25,0,0,0-2.37,2.34,3.74,3.74,0,0,1-.29.62l-.06,0a5.52,5.52,0,0,1-.31-.73c-.31-.82-1-2.52-2.78-2.52a2.21,2.21,0,0,0-.39,0,3.34,3.34,0,0,0-2.58,1.9q-.17-.47-.42-1a5,5,0,0,0-.37-.63,19.18,19.18,0,0,1,4.45-.93,2,2,0,0,0,1.58-.77,2.06,2.06,0,0,0,.38-1.66,9.37,9.37,0,0,0-2.53-5.06A7.94,7.94,0,0,0,125,41.43l.26-.5a.65.65,0,0,0,.18,0,.61.61,0,0,1,.07.18,1.44,1.44,0,0,0,.45.89,1.39,1.39,0,0,0,1,.38H127l.25,0a1.38,1.38,0,0,0,1-.5,1.39,1.39,0,0,0,.33-1,3.43,3.43,0,0,0-1.22-2.31,3.09,3.09,0,0,0-1.93-.64,4.06,4.06,0,0,0-.67.06,3.34,3.34,0,0,0-2.5,2.11,5,5,0,0,1-2.66,2.53,7.51,7.51,0,0,1-1.57.59l-.37-.13a5.54,5.54,0,0,1-2.81-1.91,7.82,7.82,0,0,0,3.38-2.83,6.38,6.38,0,0,1,4.8-3.31,2,2,0,0,0,1.46-.77,2,2,0,0,0,.4-1.59,13.28,13.28,0,0,1,3.27-9.83l.09-.13a2.16,2.16,0,0,0,.06-2.34,2.08,2.08,0,0,0-1.77-1l-.37,0a20,20,0,0,1-3.6.35,15.69,15.69,0,0,1-2.41-.19,8.64,8.64,0,0,0-.84-2.6,1.41,1.41,0,0,0-1.25-.75,1.44,1.44,0,0,0-.66.17l-.22.12a1.42,1.42,0,0,0-.6,1.9l0,.06a10.16,10.16,0,0,1-3.66-2.94,1.91,1.91,0,0,0-1.18-.9,2,2,0,0,0-.54-.07,2.1,2.1,0,0,0-1.21.37l-.11.08c-2.83,2.36-4.59,2.86-5.58,2.86a3.42,3.42,0,0,1-.46,0,2,2,0,0,1-1.35-.9,1.84,1.84,0,0,0-1-1,2,2,0,0,0-.75-.14,2.23,2.23,0,0,0-1.21.36l-.1.07a18.26,18.26,0,0,0-5.25,7.71,3.3,3.3,0,0,1-1.61-.85,2.83,2.83,0,0,1-.7-2.12,2,2,0,0,0-2-2.07H88.66a20.75,20.75,0,0,0-6,.76c0-.21,0-.41,0-.61a6.17,6.17,0,0,1,.08-2.38v0a1.41,1.41,0,0,0,1.24.73h.25a1.42,1.42,0,0,0,1.42-1.42,2.77,2.77,0,0,0-2.28-2.49,3.26,3.26,0,0,0-.62-.06,3.13,3.13,0,0,0-2.85,2.05,8.3,8.3,0,0,0-.33,3.82,13.69,13.69,0,0,1,0,1.91,9.35,9.35,0,0,0-.81.71,7.25,7.25,0,0,0-1-2.53c-1.75-2.92-4.9-3.92-7.11-4.26A4.94,4.94,0,0,0,70.57,10c-1.34-2.14-3.81-3.26-7.16-3.26a17.11,17.11,0,0,0-2.63.21A2.1,2.1,0,0,0,59.09,8.2a1.19,1.19,0,0,0-.08.2c-1.46,4.72-9,5.28-9.19,5.29a2,2,0,0,0-1.16.39,2.74,2.74,0,0,1-1.47-.61c-.13-.2-.09-.43.23-1.27a3.37,3.37,0,0,0,0-3.28A2.06,2.06,0,0,0,46,8.08l-.29,0a3.64,3.64,0,0,0-2.18,1l-.14.12c0-.06.05-.11.07-.16.23-.54.84-2-.37-2.93a2,2,0,0,0-1.24-.4A5,5,0,0,0,40,6.21,2,2,0,0,0,39.58,4a1.94,1.94,0,0,0-1.42-.6,3.18,3.18,0,0,0-1.43.42L36.36,4l0,0A2.6,2.6,0,0,1,37,2.51a1.42,1.42,0,0,0-.15-2L36.69.35A1.36,1.36,0,0,0,35.77,0,1.42,1.42,0,0,0,34.7.49c-1.45,1.66-2.17,4.07-.5,5.73a3,3,0,0,0,2.11.9h0a2.56,2.56,0,0,0,.37,1.56,2.21,2.21,0,0,0,2,1.07,4.74,4.74,0,0,0,1.47-.29A3,3,0,0,0,41.08,12a2.48,2.48,0,0,0,1.78.77,2.93,2.93,0,0,0,1.26-.31,3.59,3.59,0,0,0,.24,2.27l-.1.09c-.31.34-1.56,1.46-4.45,1.46a18,18,0,0,1-5.69-1.09,1.91,1.91,0,0,0-.78-.16,2.19,2.19,0,0,0-1.94,1.29,1.08,1.08,0,0,0-.08.19c-.53,1.59-2.5,5.36-9.42,6a2.1,2.1,0,0,0-1.76,1.62,2.14,2.14,0,0,0,1,2.29,16.84,16.84,0,0,1,5.36,4.84,18,18,0,0,0-2.85,3,20,20,0,0,1-2.75,2.91,6.42,6.42,0,0,1-.74,0A4.7,4.7,0,0,1,16.22,35a8.23,8.23,0,0,0-4.73-3.22A7.33,7.33,0,0,0,10,31.64a5.45,5.45,0,0,0-1.11.11,1.41,1.41,0,0,0-1,1.71l.06.25a1.42,1.42,0,0,0,1.67,1,2.25,2.25,0,0,1,.4,0,4.73,4.73,0,0,1,3.75,2.16,8.67,8.67,0,0,0,3,2.54,19.18,19.18,0,0,1-2.17.66l-.23.06a1.4,1.4,0,0,0-1,1,1.33,1.33,0,0,0,.07.88h0a2.87,2.87,0,0,0-1.86.63,2.4,2.4,0,0,0-2.08-2l-.25,0A1.92,1.92,0,0,0,8,41a2.06,2.06,0,0,0-1.14-1.58A2.37,2.37,0,0,0,5.7,39.1a3.38,3.38,0,0,0-2.29,1.12,1.42,1.42,0,0,0-.81-1.69l-.23-.1a1.55,1.55,0,0,0-.56-.11,1.39,1.39,0,0,0-.53.1,1.42,1.42,0,0,0-.77.77,5,5,0,0,0-.25,3.65,2.46,2.46,0,0,0,1.48,1.33,2.17,2.17,0,0,0,.76.13,3.36,3.36,0,0,0,2.3-1.12c-.12,1.09,0,2.67,1.59,3.24a2.45,2.45,0,0,0,.8.14,2.18,2.18,0,0,0,1-.24,2.48,2.48,0,0,0,.9-.79,2.09,2.09,0,0,0,.41.48,6.83,6.83,0,0,0-.14,1.21C9.27,49,9.07,52.4,6.7,54a2,2,0,0,0-1,1.41,2.13,2.13,0,0,0,.59,1.83c.81.81,2.5,3.28.68,8.63a2.1,2.1,0,0,0,.62,2.26,2,2,0,0,0,2.26.29,12.72,12.72,0,0,1,5.4-1.33,9,9,0,0,1,5.17,1.61,2.2,2.2,0,0,0,1.18.35,1.88,1.88,0,0,0,.53-.07,2,2,0,0,0,1.2-.9c1-1.46,3.71-4.74,7.7-5A2,2,0,0,0,33,61.64a7.15,7.15,0,0,1,4.66,3,2.12,2.12,0,0,0,2.93.56,10,10,0,0,1,5.62-1.81,9.8,9.8,0,0,1,2.82.43,2.08,2.08,0,0,0,1.85-.23,2.2,2.2,0,0,0,.94-1.85v-.14a17.32,17.32,0,0,1,0-3.13,3.09,3.09,0,0,0,2.15.83A7,7,0,0,0,56,58.91a5.25,5.25,0,0,1,1.22-.28c.12,0,.15,0,.17,0,.21.18.21.53.11,1.44s-.31,2.71,1.26,3.53a2.6,2.6,0,0,0,1.31.35,5.15,5.15,0,0,0,2.77-1.14l.17-.11c0,.06,0,.13,0,.18a3.83,3.83,0,0,0,.89,3.29,2.26,2.26,0,0,0,1.56.64,3.63,3.63,0,0,0,2.28-1.1h0a2.83,2.83,0,0,0,2.78,2.65,2.59,2.59,0,0,0,2.16-1.19,2.34,2.34,0,0,0,1.53,1.38,1.85,1.85,0,0,0,.56.08A2,2,0,0,0,76,68.25c1-.81,1.16-2.62,1.09-4a1.42,1.42,0,0,0-1.42-1.34h-.31a1.48,1.48,0,0,0-1,.46h0a2.36,2.36,0,0,0-.89-.52,2.17,2.17,0,0,0-.66-.11,2.43,2.43,0,0,0-2.12,1.62,2.44,2.44,0,0,0-2-2.17,3,3,0,0,0-.42,0,3.55,3.55,0,0,0-2.22.93c.07-1,.16-2.51-1.13-3.4a2.31,2.31,0,0,0-1.36-.45,4.62,4.62,0,0,0-2.48,1l-.56.37,0-.22a4.51,4.51,0,0,0-.92-3.88A23.24,23.24,0,0,1,64.14,59a1.19,1.19,0,0,0,.15.09,2.26,2.26,0,0,0,1,.24,2.29,2.29,0,0,0,.92-.19,2.13,2.13,0,0,0,.67-.51,2,2,0,0,0,1,1.5,2,2,0,0,0,1.06.3,1.85,1.85,0,0,0,.7-.13,11.94,11.94,0,0,1,3-.41,5.32,5.32,0,0,1,3.31.92.27.27,0,0,0,.08.07,2.29,2.29,0,0,0,1.22.36h.15a2,2,0,0,0,1.49-.83c.13-.17,1.33-1.71,4.58-1.71a14.32,14.32,0,0,1,3.28.42,2,2,0,0,0,.58.09,2,2,0,0,0,1.59-.77,2.06,2.06,0,0,0,.22-2.27C88.51,55,88,52.86,89,49.51a1.53,1.53,0,0,0,.07-.29,27.91,27.91,0,0,0,5.12.72l-.19.2A4.85,4.85,0,0,0,93.13,54a5.38,5.38,0,0,0,2.21,3.68,21.79,21.79,0,0,1,3,2.71,2,2,0,0,0,1.36.73h.19a2.11,2.11,0,0,0,1.48-.61,5.7,5.7,0,0,1,4.08-1.29,16.68,16.68,0,0,1,4.63.75,2.35,2.35,0,0,0,.74.13,2.07,2.07,0,0,0,1.16-.36,2,2,0,0,0,.89-1.64,3.82,3.82,0,0,1,1.52-3,.72.72,0,0,1,.42.4,14.47,14.47,0,0,1,.63,1.65c.33,1,.82,2.48,2.58,2.48h.18c1.42-.1,1.93-1.43,2.24-2.22a8.07,8.07,0,0,1,.34-.78c0,.1.08.2.11.29.34.88,1,2.72,3.07,2.72h.19a3.18,3.18,0,0,0,2.87-1.94,2.13,2.13,0,0,0,2,1.51h0a2.87,2.87,0,0,0,.39,0c2.32-.38,3.67-3.56,3.77-6.35A1.41,1.41,0,0,0,132.88,51.81Zm-3.61,6c-.76.13-.94-.64-1.09-1.31-.19-.86-.37-1.37-1-1.24s-.88.68-1.14,1.32-.66,1.64-1.88,1.69H124c-1.05,0-1.42-1-1.74-1.81s-.58-1.55-1.41-1.42c-1,.12-1.37,1.07-1.69,1.91-.27.68-.49,1.28-1,1.32-.8,0-1-.54-1.31-1.51a16.15,16.15,0,0,0-.68-1.79,2.48,2.48,0,0,0-2-1.36A5.47,5.47,0,0,0,111.5,58a.6.6,0,0,1-.26.51.73.73,0,0,1-.66.05c-1.64-.5-7.25-1.94-10.15.88a.7.7,0,0,1-.49.2h-.06a.53.53,0,0,1-.39-.22,21.94,21.94,0,0,0-3.35-3,4,4,0,0,1-1.61-2.74,3.45,3.45,0,0,1,.54-2.7,5.45,5.45,0,0,0,1.53-2.51l-1.12,0a22.71,22.71,0,0,1-10.32-2.28,4.61,4.61,0,0,0,2.1,2,.78.78,0,0,1,.37.83c-1.1,3.88-.49,6.37.21,7.78a.64.64,0,0,1-.06.72.61.61,0,0,1-.69.21c-6.54-1.6-9,1.24-9.39,1.83a.57.57,0,0,1-.44.23h-.05a.77.77,0,0,1-.43-.12c-2.6-2-6.81-1-7.63-.74a.55.55,0,0,1-.54,0,.6.6,0,0,1-.29-.53,7.41,7.41,0,0,0-1.6-4.09,16.49,16.49,0,0,1-.79,3.23.49.49,0,0,1-.28.32.92.92,0,0,1-.33.06.85.85,0,0,1-.39-.08c-6.38-4.33-10.62-4-13-3a4.48,4.48,0,0,0,.82,2.29c.68.82,1.67.52,2.72.2s2.12-.65,3,.09.79,1.9.68,2.89-.18,1.58.43,1.89,1.5-.17,2.3-.71,1.6-1.08,2.21-.63.62,1.34.56,2.19S64.53,64.56,65,65s.91.09,1.62-.51c.54-.46,1.16-1,1.84-.87s.79.84.85,1.49.11,1.38.89,1.59,1.21-.58,1.57-1.36S72.37,64,73,64.21s.8.92,1,1.54.25,1.11.7,1.24a.33.33,0,0,0,.29,0c.46-.37.48-2,.45-2.6h.25c0,.23.09,2.29-.55,2.8a.59.59,0,0,1-.51.1c-.59-.17-.74-.81-.88-1.43s-.27-1.18-.77-1.35-.6.29-.92,1-.8,1.77-1.86,1.49-1-1.08-1.07-1.81-.12-1.15-.65-1.27-1.1.37-1.63.82-1.31,1.1-2,.5A2.52,2.52,0,0,1,64.39,63c.06-.81.11-1.58-.45-2s-1.18.12-1.93.62-1.77,1.2-2.57.73-.65-1.24-.55-2.14.22-2-.59-2.67-1.72-.36-2.73,0-2.2.67-3-.28a4.77,4.77,0,0,1-.87-2.35,6.15,6.15,0,0,0-.68.34,14.88,14.88,0,0,0-.63,6.5.76.76,0,0,1-.33.66.62.62,0,0,1-.59.07,11.16,11.16,0,0,0-9.72,1.56.62.62,0,0,1-.35.1.7.7,0,0,1-.58-.28A9.05,9.05,0,0,0,32,60.05c-.2.61-.37,1-.41,1.15a.55.55,0,0,1-.57.48c-4.75.29-7.81,4.05-8.91,5.65a.52.52,0,0,1-.35.28.5.5,0,0,1-.17,0,.7.7,0,0,1-.4-.12c-4.59-3.13-9.47-1.57-12-.36a.67.67,0,0,1-.73-.09.69.69,0,0,1-.2-.74c2.08-6.1,0-9.08-1-10.08a.74.74,0,0,1-.19-.61.55.55,0,0,1,.3-.42c3-2,3.25-6,3.36-7.91,0-.75.06-1,.19-1.08a.16.16,0,0,1,.15,0h0a8.8,8.8,0,0,0,5.43.5c-.82-1.67-1.73-3-3.22-3a1.41,1.41,0,0,0-1.24.72,1.21,1.21,0,0,1-1.18.63c-.77-.05-.88-.8-1-1.47s-.18-1.24-.75-1.31c-.36,0-.55.54-.75,1.17S8,44.82,7.56,45.06a.94.94,0,0,1-.72,0c-.89-.31-.7-1.39-.55-2.35s.27-1.61-.21-1.86c-.63-.34-1.24.27-1.88.92s-1.29,1.28-2,1a1,1,0,0,1-.64-.57,4,4,0,0,1,.26-2.52l.23.09a3.85,3.85,0,0,0-.26,2.32.77.77,0,0,0,.49.44c.58.2,1.14-.38,1.75-1s1.39-1.39,2.17-1,.5,1.24.35,2.12-.3,1.83.38,2.08a.64.64,0,0,0,.53,0c.37-.19.58-.84.76-1.42s.45-1.42,1-1.35c.76.09.87.85,1,1.52s.21,1.23.74,1.26.7-.2,1-.54a1.67,1.67,0,0,1,1.44-.81h.11c1.48,0,2.41,1.27,3.22,2.88a7.68,7.68,0,0,0-.18-1.55,6.17,6.17,0,0,0-1.66-3.14l-.18-.16.24-.06a17.41,17.41,0,0,0,6.17-2.7c-.3,0-.6.06-.89.06A6.39,6.39,0,0,1,14.89,36c-2.54-3.34-5.54-2.66-5.58-2.66l-.05-.24a4.52,4.52,0,0,1,1.92.06,6.82,6.82,0,0,1,3.91,2.69,6.14,6.14,0,0,0,6.37,2.58,19.73,19.73,0,0,0,3.27-3.37,13.22,13.22,0,0,1,3.62-3.4c-1.55-3.29-4.84-5.54-6.52-6.51a.73.73,0,0,1-.31-.75.68.68,0,0,1,.58-.53c7.68-.73,9.95-5.12,10.56-7,.19-.37.56-.63.93-.44,7.78,2.67,10.93.12,11.71-.73a.61.61,0,0,1,.84-.09,7.94,7.94,0,0,1,3.52,3.69A8.32,8.32,0,0,0,49.25,16a1,1,0,0,1,0-.17c-1.27-.15-2.78-.53-3.41-1.45a2.82,2.82,0,0,1,0-2.8c.26-.67.48-1.26.18-1.71a.41.41,0,0,0-.25-.17c-.3,0-.74.31-1.19.68-.77.61-1.72,1.37-2.52.56A2.1,2.1,0,0,1,42,8.41c.21-.5.33-.81.14-1s-.92.1-1.58.36c-1,.41-2.14.87-2.58.13a1.63,1.63,0,0,1,.27-1.76c.29-.47.44-.75.2-1s-.47-.09-.91.14a1.78,1.78,0,0,1-2.32-.14c-1.42-1.42.51-3.68.6-3.77l.18.16S34.09,3.76,35.35,5a1.52,1.52,0,0,0,2,.1c.44-.23.85-.44,1.2-.1s.11.85-.16,1.3-.59,1-.28,1.51,1.37.13,2.27-.24,1.48-.6,1.83-.32.15.74-.07,1.24c-.31.73-.66,1.55.08,2.29s1.43,0,2.19-.58c.52-.42,1-.78,1.38-.72a.58.58,0,0,1,.42.27c.38.56.13,1.23-.14,1.94A2.59,2.59,0,0,0,46,14.27c.58.84,2,1.19,3.23,1.34a.54.54,0,0,1,.08-.21.62.62,0,0,1,.49-.29c.89-.06,8.83-.75,10.54-6.29.15-.31.35-.46.57-.46,1.88-.32,6.5-.72,8.44,2.38,1.09,1.67.32,3.61-.76,4.88a.45.45,0,0,0,0,.41.52.52,0,0,0,.4.28c1.63.07,5.68.57,7.59,3.74a6.88,6.88,0,0,1,.71,5.09,5.8,5.8,0,0,0,1.31-.41,5.08,5.08,0,0,1,.81-1.49A5.87,5.87,0,0,1,80.87,22a10.31,10.31,0,0,0,.06-2.83,7.14,7.14,0,0,1,.23-3.19A1.62,1.62,0,0,1,83,14.81c.63.14,1.16.64,1.16,1.1h-.25c0-.3-.41-.73-1-.85-.38-.09-1.09-.07-1.58,1a7,7,0,0,0-.21,3.08,10.76,10.76,0,0,1,0,2.66c1.93-1.11,4.81-1.61,8.6-1.49a.64.64,0,0,1,.65.65A4.19,4.19,0,0,0,91.5,24a5.51,5.51,0,0,0,3.57,1.45c.77-2.24,2.38-6,5.2-8.18a.8.8,0,0,1,.67-.08.44.44,0,0,1,.27.28,3.43,3.43,0,0,0,2.38,1.66c1.9.32,4.31-.73,7.18-3.13a.68.68,0,0,1,.58-.1.55.55,0,0,1,.37.29,11.91,11.91,0,0,0,6.79,4.4,6.76,6.76,0,0,0-.71-2.93l.22-.12a6.94,6.94,0,0,1,.74,3.11,18.28,18.28,0,0,0,7.61,0,.67.67,0,0,1,.69.3.71.71,0,0,1,0,.8,14.65,14.65,0,0,0-3.58,11,.6.6,0,0,1-.12.51.56.56,0,0,1-.45.23,7.79,7.79,0,0,0-5.9,4A7.68,7.68,0,0,1,113,40.3c.15,1.09.91,2.87,4.1,4,.25.09.49.18.72.28a8.84,8.84,0,0,0,2.33-.8,6.29,6.29,0,0,0,3.29-3.14c.36-.69.64-1.24,1.48-1.37a1.81,1.81,0,0,1,1.48.3,2,2,0,0,1,.69,1.31l-.25,0a1.8,1.8,0,0,0-.59-1.14,1.65,1.65,0,0,0-1.29-.25c-.71.12-.95.57-1.3,1.25a6.55,6.55,0,0,1-3.4,3.25,9.73,9.73,0,0,1-2.08.75,7.61,7.61,0,0,1,4.1,5.72.58.58,0,0,1-.11.52.6.6,0,0,1-.46.22,17.82,17.82,0,0,0-7.31,2.14,2.6,2.6,0,0,1,1.94,1.44,14.68,14.68,0,0,1,.7,1.82c.34,1,.48,1.37,1.06,1.34.37,0,.57-.56.81-1.16.33-.86.74-1.93,1.88-2.07s1.36.72,1.68,1.58S123.13,58,124,58h.11c1.07,0,1.36-.76,1.67-1.53s.54-1.33,1.32-1.47c.94-.18,1.14.71,1.3,1.42s.3,1.2.81,1.13c1.18-.2,2.29-2.42,2.37-4.76h.25C131.77,55,130.72,57.53,129.27,57.77ZM56.11,55.68c-.37.08-.71.18-1,.28a6.34,6.34,0,0,1-1.19.29,2,2,0,0,1-.26-.45,7.64,7.64,0,0,1,1.61-.17C55.52,55.63,55.81,55.65,56.11,55.68ZM13.19,45.36l0,0c0-.07.13-.17.11-.17h.12a1,1,0,0,1,.68.34C13.81,45.46,13.5,45.42,13.19,45.36Z"/></svg>