<svg id="圖層_1" data-name="圖層 1" xmlns="http://www.w3.org/2000/svg" viewBox="0 0 56.72 66.84"><defs><style>.cls-1{fill:#fff;}</style></defs><title>0</title><path class="cls-1" d="M9.87,9.58a2.42,2.42,0,0,0-1.21-.31,6,6,0,0,0-2.06-4,1.53,1.53,0,0,0-.94-.32,1.6,1.6,0,0,0-.89.29A5.73,5.73,0,0,0,2.58,9.26a2.49,2.49,0,0,0-1.12.32C-.75,10.78.06,12.93.6,14.36c-1.14,1.31-.35,3.09.16,4.23a15.46,15.46,0,0,1,.94,2.63c.41,1.91.58,17.82.43,41.54A1.54,1.54,0,0,0,2.73,64a1.69,1.69,0,0,0,.94.32,1.54,1.54,0,0,0,.43-.06A7.66,7.66,0,0,1,6.2,64a9.37,9.37,0,0,1,1.42.12l.18,0a1.7,1.7,0,0,0,1-.38,1.54,1.54,0,0,0,.53-1.18c-.14-23.94,0-39.39.43-41.3a14.34,14.34,0,0,1,1-2.71c.5-1.12,1.28-2.9.08-4.2C11.38,12.85,12,10.8,9.87,9.58ZM9.44,18a15.06,15.06,0,0,0-1.06,3C7.76,23.83,7.85,51,7.92,62.54a.13.13,0,0,1,0,.1.17.17,0,0,1-.1,0,9,9,0,0,0-4.07.21h0a.09.09,0,0,1-.07,0,.1.1,0,0,1-.05-.1c.07-11.61.17-38.92-.46-41.84a15.29,15.29,0,0,0-1-2.9c-.62-1.41-1.07-2.43.09-3.08a.44.44,0,0,1,.16-.06c-.12-.36-.25-.7-.37-1-.53-1.41-.92-2.43.21-3a1.54,1.54,0,0,1,1.73.36c0-2.38.57-4,1.72-4.83a.14.14,0,0,1,.15,0c1,.8,1.6,2.45,1.68,4.88.67-.54,1.26-.69,1.77-.41,1.21.68.79,1.75.21,3.22l-.32.82a1.49,1.49,0,0,1,.25.07C10.48,15.58,10,16.58,9.44,18Z"/><path class="cls-1" d="M25,4.67a2.6,2.6,0,0,0-1.21-.32,6,6,0,0,0-2.07-4A1.53,1.53,0,0,0,20.75,0a1.67,1.67,0,0,0-.89.28,5.81,5.81,0,0,0-2.19,4.07,2.49,2.49,0,0,0-1.12.32c-2.2,1.2-1.4,3.35-.86,4.78-1.24,1.31-.43,3.14.09,4.31a15,15,0,0,1,.94,2.62c.59,2.73.52,34.43.4,48.49A1.54,1.54,0,0,0,17.57,66a1.69,1.69,0,0,0,1.09.45H19a1.84,1.84,0,0,0,.47-.07A10.4,10.4,0,0,0,22,65.15a7.73,7.73,0,0,1,1.38-.67,1.56,1.56,0,0,0,1-1.45l0-4.31c0-9.81-.17-39.66.41-42.33a14.6,14.6,0,0,1,1-2.71c.5-1.11,1.27-2.87.11-4.17C26.44,8,27.18,5.92,25,4.67Zm-.51,8.44a15.3,15.3,0,0,0-1.06,3c-.61,2.82-.49,30.73-.44,42.65C23,60.5,23,62,23,63a.12.12,0,0,1-.08.11,9,9,0,0,0-1.64.81,9.15,9.15,0,0,1-2.21,1h-.39a.11.11,0,0,1-.12-.12c0-.45.35-45.16-.43-48.79a15.29,15.29,0,0,0-1-2.9c-.62-1.41-1.07-2.43.09-3.08a.92.92,0,0,1,.25-.08c-.13-.38-.27-.74-.39-1.06-.53-1.41-.92-2.43.21-3.05A1.55,1.55,0,0,1,19,6.27c0-2.38.57-4,1.72-4.83a.14.14,0,0,1,.15,0c1,.8,1.6,2.44,1.68,4.88.67-.54,1.27-.69,1.77-.41,1.21.68.79,1.75.21,3.22-.11.28-.23.58-.34.9a.8.8,0,0,1,.2.07C25.5,10.75,25.06,11.74,24.46,13.11Z"/><path class="cls-1" d="M40.06,9.58a2.48,2.48,0,0,0-1.21-.31,6,6,0,0,0-2.07-4,1.53,1.53,0,0,0-.94-.32A1.6,1.6,0,0,0,35,5.2a5.75,5.75,0,0,0-2.18,4.06,2.5,2.5,0,0,0-1.13.32c-2.19,1.19-1.41,3.31-.85,4.78-1.14,1.31-.35,3.09.15,4.23a14,14,0,0,1,.94,2.63c.49,2.26.56,23.62.42,43.79a1.55,1.55,0,0,0,1.15,1.5,10.83,10.83,0,0,0,2.66.33,10.63,10.63,0,0,0,2.19-.22,1.54,1.54,0,0,0,1.24-1.53c-.18-20.19-.13-41.59.41-43.86a13.54,13.54,0,0,1,1-2.71c.49-1.13,1.28-2.9.07-4.21C41.56,12.85,42.22,10.8,40.06,9.58ZM39.62,18a15.1,15.1,0,0,0-1,3c-.77,3.26-.51,37.38-.45,44.19a.12.12,0,0,1-.1.12,9.45,9.45,0,0,1-1.91.19,9.34,9.34,0,0,1-2.3-.28.14.14,0,0,1-.1-.13c0-6.79.26-40.85-.44-44.09a15.29,15.29,0,0,0-1-2.9c-.62-1.41-1.07-2.43.09-3.08a.52.52,0,0,1,.16-.06c-.12-.36-.25-.71-.36-1-.54-1.41-.93-2.43.2-3a1.54,1.54,0,0,1,1.73.36c0-2.35.59-4,1.72-4.83a.14.14,0,0,1,.15,0c1,.8,1.61,2.44,1.69,4.88.66-.54,1.26-.69,1.76-.41,1.21.68.79,1.75.21,3.22-.1.26-.21.53-.31.82l.24.07C40.66,15.58,40.23,16.58,39.62,18Z"/><path class="cls-1" d="M56,9.4c.56-1.46,1.22-3.51-.94-4.73a2.44,2.44,0,0,0-1.14-.31,6.06,6.06,0,0,0-2.06-4A1.54,1.54,0,0,0,50,.29a5.75,5.75,0,0,0-2.18,4.06,2.53,2.53,0,0,0-1.2.32c-2.21,1.2-1.39,3.36-.85,4.79a.3.3,0,0,0,0,.1c-1.1,1.3-.32,3.07.18,4.2A13.55,13.55,0,0,1,47,16.38c.52,2.39.55,26.53.42,46.48a1.55,1.55,0,0,0,1.07,1.47,7.55,7.55,0,0,1,1.79.83,10.59,10.59,0,0,0,2.3,1.09,1.72,1.72,0,0,0,.55.1,1.65,1.65,0,0,0,.91-.3,1.55,1.55,0,0,0,.63-1.31c-.17-3.82-.25-45.31.4-48.35a14.19,14.19,0,0,1,1-2.71C56.51,12.54,57.32,10.71,56,9.4Zm-1.31,3.71a15.58,15.58,0,0,0-1.05,3c-.75,3.49-.55,46.25-.44,48.72a.11.11,0,0,1,0,.11.08.08,0,0,1-.07,0h0A9.27,9.27,0,0,1,51,64a9,9,0,0,0-2.12-1,.13.13,0,0,1-.08-.12c0-7.25.25-43.54-.45-46.78a16.06,16.06,0,0,0-1-2.9c-.63-1.41-1.07-2.43.08-3.08l.12,0c-.13-.39-.27-.76-.4-1.09-.53-1.41-.92-2.44.21-3.05.52-.28,1.13-.13,1.8.42,0-2.38.58-4.08,1.73-4.89a.12.12,0,0,1,.14,0c1,.79,1.6,2.42,1.69,4.82a1.5,1.5,0,0,1,1.69-.35c1.21.68.79,1.75.21,3.22-.11.27-.22.57-.34.88a1,1,0,0,1,.35.09C55.76,10.75,55.32,11.74,54.71,13.11Z"/></svg>