<svg id="圖層_1" data-name="圖層 1" xmlns="http://www.w3.org/2000/svg" viewBox="0 0 147.67 88.93"><defs><style>.cls-1{fill:#fff;}</style></defs><title>0</title><path class="cls-1" d="M54.15,26l0,0,.11.07A.36.36,0,0,1,54.15,26Z"/><path class="cls-1" d="M32.17,31.45a22.14,22.14,0,0,1-8.28,7.05,14.76,14.76,0,0,1,5.26,5.61A13,13,0,0,1,39.48,39l.41,0a18.52,18.52,0,0,1,.47-7.7,26,26,0,0,1,1.3-3.8,13.57,13.57,0,0,1-2.44-.86A12.07,12.07,0,0,0,32.17,31.45ZM39,31a21.17,21.17,0,0,0-.69,6.66,14.3,14.3,0,0,0-8.95,4.1,15.61,15.61,0,0,0-2.83-3.08,23.23,23.23,0,0,0,6.81-6.4,10.56,10.56,0,0,1,5.78-4.09l.67.26C39.47,29.28,39.21,30.13,39,31Z"/><path class="cls-1" d="M57.61,30l0,0a.12.12,0,0,1,.17,0l.18.18a11.94,11.94,0,0,0,3.32.58c0-.28-.05-.55-.05-.83s0-.56.05-.84c-.43-.17-.89-.34-1.4-.49a8.5,8.5,0,0,1-5.15-4.21c-.08-.18-.15-.37-.23-.55a13.19,13.19,0,0,1-3,2.36,20.25,20.25,0,0,1,2.51,1.67A13.7,13.7,0,0,0,57.61,30ZM54.15,26a.36.36,0,0,0,.07.1l-.11-.07Z"/><path class="cls-1" d="M131,2.22a16.52,16.52,0,0,0-16.63,16.37,16.21,16.21,0,0,0,4.9,11.59,26,26,0,0,0-3.63,7,15.74,15.74,0,0,0-6.33-1.48,23.37,23.37,0,0,0,1.32-9.37,8.43,8.43,0,0,1,.86-3.22c.81-2,1.83-4.54,0-6.95a7.26,7.26,0,0,0-5.67-2.7c-1.92,0-4.82.78-7.68,4.45-1.78,2.38-3.78,3.17-5.91,4a13.26,13.26,0,0,0-4.78,2.75,14.44,14.44,0,0,0-13.31-8.91c-.41,0-.83,0-1.27.06A15.36,15.36,0,0,0,71,13.33a9.89,9.89,0,0,1-2.68-4.79C67.54,4.84,65.57,2,63,.86A6.24,6.24,0,0,0,60.33.28,6,6,0,0,0,57.41,1a6.62,6.62,0,0,0-2.77,2.67,14.77,14.77,0,0,0-24.43,9.13,14.22,14.22,0,0,0-5.82-1.43,14,14,0,0,0-4,.68,12.73,12.73,0,0,1-3.61.62,11.06,11.06,0,0,1-2.53-.31,16.29,16.29,0,0,0-3.6-.43,9.75,9.75,0,0,0-6.41,2.08A6.33,6.33,0,0,0,2,19.36c.27,4.56,3.56,6,6.74,7.38a16.41,16.41,0,0,1,5.16,3c2.92,2.79,6.13,4.29,9.29,4.35a19,19,0,0,1-2.71,1.33,16,16,0,1,0-4.32,31.32c.43,0,.87,0,1.3,0A56.73,56.73,0,0,0,17,74.1a40.76,40.76,0,0,1-.37,6.53c-.69,3.64.14,6.53,2.21,7.73a4.4,4.4,0,0,0,2.2.57c1.86,0,4-1,6.29-3l2.11-1.79c3.84-3.28,4.24-3.62,10.5-7.55,3.56-2.24,5.33-6.37,5.15-12a14.2,14.2,0,0,0,4.47-3,6.51,6.51,0,0,0,1.68,1.71,5.35,5.35,0,0,0,3.06,1A5.25,5.25,0,0,0,56,64l.08,0A14.38,14.38,0,0,0,83,57.21a13.78,13.78,0,0,0-2.81-8.33,18.93,18.93,0,0,0,3-2.4c2.74,3.6,5.8,6.72,10.68,7.69A15.54,15.54,0,0,0,124.57,51a15,15,0,0,0-4-10.27,20.14,20.14,0,0,1,3.36-7.36A16.76,16.76,0,0,0,131,35a16.53,16.53,0,0,0,16.63-16.38A16.52,16.52,0,0,0,131,2.22Zm0,31.33a15.29,15.29,0,0,1-7.58-2A21.94,21.94,0,0,0,119,41.19a13.64,13.64,0,0,1,4.15,9.8A14.11,14.11,0,0,1,95.1,52.94c-5.8-.76-9-4.86-11.78-8.69A17.25,17.25,0,0,1,78,48.51a12.47,12.47,0,0,1,3.56,8.7A12.8,12.8,0,0,1,68.64,69.87a13,13,0,0,1-11.92-7.78,4.29,4.29,0,0,1-1.17.61h0a3.79,3.79,0,0,1-1.23.21,3.92,3.92,0,0,1-2.25-.73,6,6,0,0,1-2.16-3.08,12.9,12.9,0,0,1-6.27,4.54c.31,4.32-.43,9.23-4.43,11.75-6.35,4-6.76,4.34-10.67,7.67l-2.11,1.79c-2,1.75-3.89,2.66-5.37,2.66a3,3,0,0,1-1.49-.38c-1.53-.88-2.1-3.21-1.53-6.24a42,42,0,0,0,.4-6.78,45.78,45.78,0,0,1,.7-9.07,14.94,14.94,0,0,1-3,.31A14.53,14.53,0,1,1,20.5,37a19.67,19.67,0,0,0,9.23-7,9.13,9.13,0,0,1-6.14,2.73h-.26c-2.84,0-5.78-1.36-8.49-4a18,18,0,0,0-5.57-3.3c-3-1.33-5.68-2.47-5.89-6.16a5,5,0,0,1,1.78-4.15c2-1.68,5.18-2.17,8.77-1.35a12.26,12.26,0,0,0,6.84-.33c2.4-.66,4.66-1.28,9.21.85a9.68,9.68,0,0,1,1.56.95c0-.19,0-.38,0-.58A13.35,13.35,0,0,1,55.27,6.42a5.06,5.06,0,0,1,2.82-4.13,4.63,4.63,0,0,1,4.27-.14c2.21,1,3.89,3.44,4.61,6.7a11.27,11.27,0,0,0,3,5.42,11.2,11.2,0,0,1,2.14,3.1A12.86,12.86,0,0,1,86.93,27.94c1.37-2.91,3.56-3.78,5.86-4.69s4.51-1.77,6.52-4.48c2.5-3.19,5-3.87,6.56-3.87h0a5.8,5.8,0,0,1,4.53,2.17h0c1.31,1.74.54,3.67-.21,5.53a9.3,9.3,0,0,0-1,3.83c.18,4.47-.61,8.19-2.26,10.87a15.33,15.33,0,0,1,2-.16,14.26,14.26,0,0,1,7.52,2.15,24.19,24.19,0,0,1,4.64-9.3,14.8,14.8,0,0,1-5.38-11.4,15.22,15.22,0,0,1,30.43,0A15.11,15.11,0,0,1,131,33.55Z"/><path class="cls-1" d="M93.86,50A9.64,9.64,0,0,0,95,50.2,13.64,13.64,0,0,1,98.36,42a16.43,16.43,0,0,1-5.32-1A18.91,18.91,0,0,0,93.86,50Zm.37-7.18c.52.14,1,.26,1.52.35A14.77,14.77,0,0,0,94.39,46,16.17,16.17,0,0,1,94.23,42.78Z"/><path class="cls-1" d="M91,40.07a9.16,9.16,0,0,1-4.77-5.64,12.7,12.7,0,0,1-3.42,4.83c.7.87,1.36,1.76,2,2.64l.23.32c1.94,2.66,3.74,5.11,6.21,6.61A19.53,19.53,0,0,1,91,40.07Zm-1.75,5.21a47.23,47.23,0,0,1-3.06-3.9l-.23-.32c-.41-.56-.82-1.11-1.25-1.67a14.29,14.29,0,0,0,1.43-1.78,10.92,10.92,0,0,0,3.27,3.18A19.6,19.6,0,0,0,89.22,45.28Z"/><path class="cls-1" d="M52.36,29.86a17,17,0,0,0-4-2.41,13.29,13.29,0,0,1-3.48.47l-.76,0c-.93,2.05-2.76,6.89-1.64,11.47A13,13,0,0,1,47.78,42,13,13,0,0,1,53,37.77a19.3,19.3,0,0,1,2.84-5.7A18.11,18.11,0,0,1,52.36,29.86Zm-.49,6.9A15.07,15.07,0,0,0,47.51,40a14.28,14.28,0,0,0-3.85-1.81A17.49,17.49,0,0,1,45,29.34,14.64,14.64,0,0,0,48.2,29a15.73,15.73,0,0,1,3.29,2,19.85,19.85,0,0,0,2.35,1.62A20,20,0,0,0,51.87,36.76Z"/><path class="cls-1" d="M74.18,42.5a12.88,12.88,0,0,1-12.4-9.16,16.61,16.61,0,0,1-4-.54,15.37,15.37,0,0,0-3.06,6.73,10,10,0,0,0,3,2.23,6.75,6.75,0,0,1,3.5,4.07,5.08,5.08,0,0,1,.19.86,13.1,13.1,0,0,1,14.63.21,15,15,0,0,0,5.78-4.59c-.39-.52-.79-1-1.2-1.55A13,13,0,0,1,74.18,42.5Zm-5.54.64a14.41,14.41,0,0,0-6.31,1.44,8.39,8.39,0,0,0-3.9-4.09,9.16,9.16,0,0,1-2.14-1.43,13.72,13.72,0,0,1,2.13-4.66,17.06,17.06,0,0,0,2.32.31,14.32,14.32,0,0,0,8.85,8.46C69.27,43.15,69,43.14,68.64,43.14Zm7.55,2.13a14.86,14.86,0,0,0-2.94-1.38l.93,0a14.56,14.56,0,0,0,5.34-1A14.93,14.93,0,0,1,76.19,45.27Z"/></svg>