<svg id="圖層_1" data-name="圖層 1" xmlns="http://www.w3.org/2000/svg" viewBox="0 0 91.08 104.5"><defs><style>.cls-1{fill:#fff;}</style></defs><title>0</title><path class="cls-1" d="M66.51,26.22l-.25.06.1.14Z"/><path class="cls-1" d="M29.05,23.17c0-.47,0-.92,0-1.36-.23.21-.46.4-.7.59Z"/><path class="cls-1" d="M64,49.59s0,0,0-.06l0,0Z"/><path class="cls-1" d="M27.23,21.47a8,8,0,0,1-1.08.63,58.55,58.55,0,0,1,4.47,5.28,58.4,58.4,0,0,1,.22-10.95A10.37,10.37,0,0,1,27.23,21.47Zm1.82,1.7-.69-.77c.24-.19.47-.38.7-.59C29.05,22.25,29.05,22.7,29.05,23.17Z"/><path class="cls-1" d="M21.34,22.84a6.68,6.68,0,0,1,.2,3.69,13.5,13.5,0,0,1,1.56,8,6.92,6.92,0,0,1,7.34-2.1,64.18,64.18,0,0,0-8.2-9.54C21.89,22.9,21.59,22.87,21.34,22.84Zm1.75,2.93a63.05,63.05,0,0,1,4.35,5,8.29,8.29,0,0,0-2.88.87A16.41,16.41,0,0,0,23,26.33,5.35,5.35,0,0,0,23.09,25.77Z"/><path class="cls-1" d="M38.78,19a10.58,10.58,0,0,1-3-.69,17.58,17.58,0,0,0-.49,4.77A15.78,15.78,0,0,1,38.78,19Z"/><path class="cls-1" d="M46.92,34.71c.25-.58.51-1.15.77-1.69-1.79-3.27-2.41-6.31-1.87-9.05a6.44,6.44,0,0,1-.7-.57,13.11,13.11,0,0,1-5.94,4.43,13.56,13.56,0,0,1-3.4.75c.17,1.14.39,2.28.62,3.39A11.11,11.11,0,0,1,46.92,34.71Zm-9.5-4.93a15.24,15.24,0,0,0,2.25-.62,14.24,14.24,0,0,0,4.55-2.72A15.6,15.6,0,0,0,45.6,32a12.26,12.26,0,0,0-6.34-1.84,11.57,11.57,0,0,0-1.75.14Q37.46,30,37.42,29.78Z"/><path class="cls-1" d="M42.47,39.69a10.46,10.46,0,0,1-3.41-.55c-.3-.1-.59-.22-.86-.34.93,2.5,2.12,4.49,3.43,4.57h.08c1.11,0,2.22-1.33,3.32-3.95A12.74,12.74,0,0,1,42.47,39.69ZM41.72,42c-.13,0-.46-.27-.91-1a12.86,12.86,0,0,0,1.66.11h.09C42,41.87,41.72,42,41.72,42Z"/><path class="cls-1" d="M54.52,42.76a12,12,0,0,1-4.67.9,14.89,14.89,0,0,1-2.26-.17c-.27.49-.54,1-.81,1.42-1.31,2.3-2.44,4.28-2.07,5.55a1.79,1.79,0,0,0,1,1.08c1.77.93,5.38-.57,9.4-3.53A15,15,0,0,1,54.52,42.76Zm-7.58,7.63a1.28,1.28,0,0,1-.61-.11.55.55,0,0,1-.26-.21c-.2-.7,1-2.87,2-4.46.11-.2.22-.4.34-.6.5.05,1,.07,1.49.07a14.09,14.09,0,0,0,3.23-.36,17.36,17.36,0,0,0,.38,2.7C50.77,49.29,48.37,50.39,46.94,50.39Z"/><path class="cls-1" d="M64.43,26.29a10.17,10.17,0,0,1,1.93,3.07,12.85,12.85,0,0,1,2.72-4,13.36,13.36,0,0,1,.09-1.42,21.59,21.59,0,0,1-5.86,1.36A8.17,8.17,0,0,1,64.43,26.29Zm2.08-.07-.15.2-.1-.14Z"/><path class="cls-1" d="M91,36.38c-1.81-4.2-4.42-6.9-7.76-8l-.28-.09q.3-.33.57-.69c2.14-2.81,2.74-6.57,1.79-11.14a1.56,1.56,0,0,0-.79-1.08,1.64,1.64,0,0,0-.73-.18,1.5,1.5,0,0,0-.55.11A20.63,20.63,0,0,0,76,20.22a22.49,22.49,0,0,0-3.21-4.29,1.55,1.55,0,0,0-1.12-.49h-.14a1.55,1.55,0,0,0-1.16.71,19.3,19.3,0,0,0-1.61,3.4,16.49,16.49,0,0,0-7.11-3.63c-.17-3.87-1.89-10.76-11.43-13.74a1.67,1.67,0,0,0-.49-.08,1.62,1.62,0,0,0-.81.23,1.53,1.53,0,0,0-.71,1,19.35,19.35,0,0,0,.16,6.74,8.37,8.37,0,0,0-4.75,2.62c-.19-.28-.39-.55-.59-.81-3.93-5-10.27-6.07-14.9-6.07A1.56,1.56,0,0,0,27,6.36a1.52,1.52,0,0,0-.35,1.24,16.46,16.46,0,0,0,.53,2.23A17.49,17.49,0,0,0,24.94,11c-.6-3.76-3.27-7.37-8-10.74a1.48,1.48,0,0,0-.91-.3,1.59,1.59,0,0,0-.43.06,1.54,1.54,0,0,0-1,.92A22.15,22.15,0,0,0,13.36,7a13.62,13.62,0,0,0-3.12-.35A23,23,0,0,0,.9,9a1.55,1.55,0,0,0-.85,1,1.6,1.6,0,0,0,.23,1.3,17.07,17.07,0,0,0,4.26,4.05,19.56,19.56,0,0,0-2.83,2.3,1.67,1.67,0,0,0-.4,1.72c.39,1.18,2.64,3,5.29,4A7.67,7.67,0,0,0,6.43,25a8.3,8.3,0,0,0,1.9,5.29,20.6,20.6,0,0,0-3.57,7.48A1.56,1.56,0,0,0,4.91,39a1.67,1.67,0,0,0,.93.72,12.89,12.89,0,0,0,3,.33,13.32,13.32,0,0,0,5.22-1,22,22,0,0,0,1.4,4.25,1.56,1.56,0,0,0,.88.83,1.84,1.84,0,0,0,.53.09,1.67,1.67,0,0,0,.66-.15,13.85,13.85,0,0,0,3-2.08,8.39,8.39,0,0,0,7,5.43A17.71,17.71,0,0,0,27,54a1.52,1.52,0,0,0,.6,1.09,1.69,1.69,0,0,0,.94.32l.28,0a14.18,14.18,0,0,0,4.76-2c0,8.82-2.43,16.76-4.4,23.28a87.34,87.34,0,0,0-2.34,8.7,50.78,50.78,0,0,1-2.95,9.54c-1.31,3.34-2.17,5.54-1.06,7.32.87,1.4,2.55,1.69,3.74,1.79l2.1.2h.11c1.47.15,2.86.29,4.11.29a7.19,7.19,0,0,0,5.06-1.61c1.58-1.51,2.23-4.06,2-8v-.14c-.52-10.4-1.31-26.13,3.47-31.54a15.76,15.76,0,0,1,2.62-2.31,18.81,18.81,0,0,0,0,5.91,1.49,1.49,0,0,0,.68,1,1.65,1.65,0,0,0,.84.25A1.4,1.4,0,0,0,48,68a12.87,12.87,0,0,0,7-4.35,8.35,8.35,0,0,0,3.5,1.47,13.44,13.44,0,0,0,3.57,6.72,1.57,1.57,0,0,0,1.15.51,1.68,1.68,0,0,0,1.12-.48,16.51,16.51,0,0,0,2.93-4.64,14.66,14.66,0,0,0,5.29,3.17,1.5,1.5,0,0,0,.52.09,1.67,1.67,0,0,0,.72-.18,1.5,1.5,0,0,0,.77-1,20.46,20.46,0,0,0,.29-7.07A11.86,11.86,0,0,0,72,55.79h.07a8.4,8.4,0,0,0,8.1-6.35A18.72,18.72,0,0,0,86.9,47.7a1.59,1.59,0,0,0,.83-.91,1.71,1.71,0,0,0-.09-1.2,18.66,18.66,0,0,0-6.39-6.83,16.2,16.2,0,0,0,3.62.39A18.82,18.82,0,0,0,90,38.46a1.52,1.52,0,0,0,.94-.83A1.48,1.48,0,0,0,91,36.38Zm-1.3.66a.12.12,0,0,1-.07.07,18.16,18.16,0,0,1-4.71.62,13.08,13.08,0,0,1-6.09-1.37,25.43,25.43,0,0,0-5.86,2.73,9.06,9.06,0,0,1,5.15-.15c5.23,1.39,8.28,7.24,8.31,7.3a.12.12,0,0,1,0,.1.11.11,0,0,1-.06.07,16.74,16.74,0,0,1-6.76,1.64c-.2,0-.39,0-.58,0a6.93,6.93,0,0,1-13.84-.57,6.25,6.25,0,0,1,.11-1.16A33.2,33.2,0,0,1,61.16,50a7,7,0,0,1,5.08,4c5.15,1.28,6.77,5.25,7.23,8.36a19.63,19.63,0,0,1-.26,6.52.13.13,0,0,1-.07.08l0,0h0a11.83,11.83,0,0,1-6.39-4.89,13.92,13.92,0,0,1-3.33,6.72.15.15,0,0,1-.09,0,.15.15,0,0,1-.09,0C61,68.48,59.87,66.1,59.8,63.78a6.89,6.89,0,0,1-5.09-2.35c-1.23,2.45-3.61,4.19-7.07,5.17h-.1a.15.15,0,0,1-.06-.09,15.89,15.89,0,0,1,1-8.83,23.85,23.85,0,0,0-6.11,4.57C37.2,68.08,38,83.52,38.54,94.79v.14c.18,3.53-.33,5.73-1.59,6.93a5.64,5.64,0,0,1-4.08,1.22c-1.18,0-2.51-.13-4-.28-.71-.07-1.46-.15-2.23-.21-1.41-.12-2.25-.48-2.66-1.13-.73-1.17,0-3.11,1.18-6a51.92,51.92,0,0,0,3-9.8,84.52,84.52,0,0,1,2.3-8.55c2.29-7.58,5-16.53,4.37-26.73A12,12,0,0,1,28.55,54h0a.12.12,0,0,1-.08,0,.19.19,0,0,1-.05-.09,14.53,14.53,0,0,1,1.18-8,7.12,7.12,0,0,1-1.23.11,6.94,6.94,0,0,1-6.93-6.93c0-.1,0-.2,0-.29a12.63,12.63,0,0,1-4.5,4h-.09a.12.12,0,0,1-.07-.07,17.88,17.88,0,0,1-1.58-5.91c-.15.09-.28.2-.42.29a11.53,11.53,0,0,1-5.92,1.56,11.09,11.09,0,0,1-2.63-.28.16.16,0,0,1-.08-.06.1.1,0,0,1,0-.09,17.72,17.72,0,0,1,4.12-7.9A6.93,6.93,0,0,1,7.84,25a6.74,6.74,0,0,1,.51-2.58c-3-.8-5.47-2.88-5.69-3.56a.23.23,0,0,1,0-.26,14.94,14.94,0,0,1,4.92-3.33,14.72,14.72,0,0,1-6.18-4.86.12.12,0,0,1,0-.1.11.11,0,0,1,.07-.08c6.59-3,10.85-2.35,13.27-1.3h0A20.15,20.15,0,0,1,16,1.5.15.15,0,0,1,16,1.42a.14.14,0,0,1,.11,0c4.62,3.32,7.14,6.82,7.48,10.39A8.66,8.66,0,0,1,23.55,14a15.86,15.86,0,0,1,5.38-3.33A16.82,16.82,0,0,1,28,7.38a.1.1,0,0,1,0-.1.11.11,0,0,1,.09,0c4.32,0,10.21,1,13.78,5.52a12.06,12.06,0,0,1,1.58,2.65,7,7,0,0,1,6.29-4l.4,0a17.63,17.63,0,0,1-.58-7.78.16.16,0,0,1,.06-.08.12.12,0,0,1,.1,0c9.61,3,10.62,10.1,10.48,13.62,4.25.41,7.63,3.34,9.22,5a19.35,19.35,0,0,1,2.1-5.22.13.13,0,0,1,.2,0,18.83,18.83,0,0,1,3.95,6c2.71-4.25,7.89-6.29,8-6.32a.12.12,0,0,1,.1,0,.11.11,0,0,1,.07.08c.87,4.18.35,7.55-1.53,10a9.41,9.41,0,0,1-2.86,2.47,9.68,9.68,0,0,1,3.24.51c3,1,5.27,3.45,6.92,7.26A.09.09,0,0,1,89.65,37ZM64,49.59l0,0,0,0S64,49.57,64,49.59Z"/><path class="cls-1" d="M61.88,41.88l.13-.14-.14,0S61.88,41.85,61.88,41.88Z"/><path class="cls-1" d="M51.21,35.38c.29-.17.58-.33.88-.47a8.29,8.29,0,0,1,.89-.36,6.94,6.94,0,0,1,3.83-5.66,10.34,10.34,0,0,1-.37-2A37.23,37.23,0,0,0,51.21,35.38Z"/></svg>