<svg id="圖層_1" data-name="圖層 1" xmlns="http://www.w3.org/2000/svg" viewBox="0 0 180.83 114.38"><defs><style>.cls-1{fill:#fff;}</style></defs><title>0</title><path class="cls-1" d="M180.29,78.45c-.15-.53-.33-1.13-.48-1.83C178.55,71,173.22,71,170.94,71c-.69,0-1.38,0-2.07,0h-.36a5.59,5.59,0,0,1-3.38-1,11.73,11.73,0,0,0-4.25-1.6,14.85,14.85,0,0,0-1.49-.18A27.1,27.1,0,0,0,155,58.41c.19-.15.39-.31.58-.49a4.33,4.33,0,0,1,3.3-1.17c.41,0,.82,0,1.22,0s.86.05,1.26.05a4.11,4.11,0,0,0,3.22-1.59,7.3,7.3,0,0,0,1-6.07,6,6,0,0,0-4-4.42,4.09,4.09,0,0,1-1.15-.63A1.59,1.59,0,0,1,160,43,3.88,3.88,0,0,0,159,40.41a5.65,5.65,0,0,0-2.46-1.29,3.51,3.51,0,0,1-1.08-.45,8.11,8.11,0,0,1,.89-1.57A7.48,7.48,0,0,0,158,32.7a5.42,5.42,0,0,0-2.65-4.36c-.31-.24-.67-.51-1.06-.86a5.33,5.33,0,0,0-3.53-1.4c-2.27,0-4.28,1.54-5.94,3a3.86,3.86,0,0,1-2.43,1,9.93,9.93,0,0,0-1.61.28c-.36-6.06-2.65-11.55-6.2-14.65a15,15,0,0,0-9.82-3.9,15.89,15.89,0,0,1-7.44-2.11,13.83,13.83,0,0,0-3.15-1.35c.39-1.17,1.11-2.37,2.42-2.37a2.62,2.62,0,0,1,.59.07,5.19,5.19,0,0,0,.86.08,3,3,0,0,0,3-2A2.89,2.89,0,0,0,119.15.6a6.92,6.92,0,0,0-2.84-.6,8.15,8.15,0,0,0-7.12,4.57,10.38,10.38,0,0,0-.91,3.27A18.51,18.51,0,0,0,101.85,10a12.85,12.85,0,0,1-4.7,1c-3.8.35-8.53.79-13.37,5.73a21.18,21.18,0,0,0-6.06,16.4,9.19,9.19,0,0,0-1.58.15,4.38,4.38,0,0,0-3.21,2.88c-.37.78-.59,1.19-1.15,1.4a4,4,0,0,1-.92-.54,8.17,8.17,0,0,0-5-1.72,11.3,11.3,0,0,0-3.07.47A7.27,7.27,0,0,0,60,37.48a17,17,0,0,1-3.3-2.16,15.72,15.72,0,0,0-3.3-2c.6-1.19,1.58-2.45,3-2.45a3.49,3.49,0,0,1,1.13.21,4.52,4.52,0,0,0,1.57.29,2.92,2.92,0,0,0,1.46-5.55,7.8,7.8,0,0,0-4.3-1.27,9,9,0,0,0-7.17,3.79,11.87,11.87,0,0,0-1.72,3.58l-.71,0a21.33,21.33,0,0,0-7,1.26,8.77,8.77,0,0,1-2.94.4c-.82,0-1.7-.06-2.63-.11-1.08-.07-2.19-.14-3.36-.14a19.63,19.63,0,0,0-12.19,3.95C9.9,43.39,8,53.56,9,61.46q-.64.24-1.23.51C3.23,64,2,66.55,1.81,68.33A8.4,8.4,0,0,0,3.26,74.4,3.06,3.06,0,0,1,4,76.84c-.13.76-.62,1.16-1.48,1.8C1.15,79.66-.9,81.2.44,85.11a6.05,6.05,0,0,0,3.24,4c.87.46,1.55.83,2.11,4.07.37,2.29,2.19,4.26,5.13,5.55a19.22,19.22,0,0,0,7.55,1.48c.39,0,.79,0,1.18,0,5.48-.32,11.44-3.08,11.73-9.86.08-1.94.52-5.23,2.71-5.39h.18c2.13,0,4.64,2.28,4.89,3.61a4.4,4.4,0,0,0,2.78,3.74c.59.27.78.36,1,1.43,1.16,6.74,4.72,7.75,6.74,7.75a6.53,6.53,0,0,0,.78-.05c5.26-.54,5.64-6,5.79-8,0-.67.48-1.15,1.32-2A13.72,13.72,0,0,0,59,89.66l0,.12c1.55,4.79,3.47,5.48,6.22,6a10.07,10.07,0,0,1,4.36,1.63c3,2,5.29,3.42,7.36,3.42a3.79,3.79,0,0,0,1.31-.22c1.9-.66,2.73-2.61,3.18-4a16.5,16.5,0,0,0,.5-6.22,11.4,11.4,0,0,1,0-2.27,1.09,1.09,0,0,1,.4,0h.13c1.16,0,1.26.3,1.7,1.38a5,5,0,0,0,3.41,3.4,7,7,0,0,1,2.16,1.24,6.24,6.24,0,0,0,3.63,1.57,4.08,4.08,0,0,0,1.28-.21c3.28,3.75,7.23,5.8,11.21,5.8a10.32,10.32,0,0,0,1.66-.13,32.8,32.8,0,0,1,4.78-.41,18,18,0,0,1,5.81,1l1,.28a6.4,6.4,0,0,0,4.64,4.56,5.35,5.35,0,0,1,1.85.92c.21.2.41.43.64.69.93,1,2.2,2.46,4.39,2.46A6.29,6.29,0,0,0,133,110a2.75,2.75,0,0,1,1.07-.26,3.29,3.29,0,0,1,1.44.49,9.31,9.31,0,0,0,4.46,1.13l.53,0c4.45-.22,4.71-3.61,4.88-5.86a12.85,12.85,0,0,1,.36-2.55,1.43,1.43,0,0,1,1.43-1.13h.19a1.3,1.3,0,0,1,1.2,1.27,6.86,6.86,0,0,0,2.31,5.07,7.28,7.28,0,0,0,4.85,1.66,10.6,10.6,0,0,0,1.11-.06,6,6,0,0,1,.72,0c2.22,0,3.66,1.18,5.34,2.57.5.41,1,.8,1.47,1.16a4.93,4.93,0,0,0,2.89.93,5.41,5.41,0,0,0,1.36-.18c2.27-.58,4.42-2.59,5.77-5.38,1.62-3.37.31-5.73-.65-7.47A5.35,5.35,0,0,1,173,99.5a2.82,2.82,0,0,1,.58-1.88,4.73,4.73,0,0,0,.85-3.33,6.66,6.66,0,0,0-1.52-3.08c-.62-.81-1-1.3-.92-1.89.16-.36,1.65-.91,2.54-1.24,1.76-.66,3.94-1.46,5.08-3.2C181.37,82.17,180.87,80.45,180.29,78.45Zm-1.88,5.65c-.89,1.35-2.75,2-4.4,2.65-1.81.67-3.38,1.25-3.46,2.49a4.16,4.16,0,0,0,1.21,2.82A5.44,5.44,0,0,1,173,94.49a3.41,3.41,0,0,1-.68,2.42,4.14,4.14,0,0,0-.76,2.71,6.39,6.39,0,0,0,1,2.43c.9,1.61,1.92,3.44.61,6.16-1.16,2.41-3,4.14-4.84,4.62a3.94,3.94,0,0,1-1,.13,3.46,3.46,0,0,1-2.06-.66c-.47-.34-.92-.71-1.4-1.11-1.9-1.56-3.87-3.19-7.11-2.84a6.26,6.26,0,0,1-4.88-1.26A5.52,5.52,0,0,1,150,103a2.7,2.7,0,0,0-2.44-2.62,2.88,2.88,0,0,0-3.16,2.14,14.74,14.74,0,0,0-.41,2.84c-.17,2.35-.33,4.39-3.53,4.55a7.86,7.86,0,0,1-4.29-1,3.73,3.73,0,0,0-3.68-.27c-2.76,1.16-4.05-.29-5.19-1.57-.25-.28-.48-.54-.72-.76a6.38,6.38,0,0,0-2.36-1.23c-1.56-.55-3.17-1.13-4-4.4-.59-.14-1.15-.31-1.72-.47-2.51-.75-5.1-1.52-11.2-.59-4.29.65-8.77-1.61-12.27-6-1.86,1.13-3.08.24-4.46-.77A8.35,8.35,0,0,0,88,91.45a3.55,3.55,0,0,1-2.49-2.57c-.48-1.17-.89-2.19-3-2.27a2,2,0,0,0-1.55.45c-.59.6-.52,1.83-.42,3.38a15,15,0,0,1-.44,5.69c-.57,1.78-1.3,2.77-2.3,3.11a2.32,2.32,0,0,1-.84.14c-1.65,0-3.82-1.35-6.58-3.18a11.33,11.33,0,0,0-4.89-1.84c-2.16-.39-3.72-.67-5.12-5A18,18,0,0,0,59,86.2a7.8,7.8,0,0,1-2.5,4.15,4.5,4.5,0,0,0-1.72,2.93c-.23,3.11-.93,6.33-4.52,6.69a4.68,4.68,0,0,1-.64,0c-2.72,0-4.61-2.3-5.35-6.57-.31-1.81-1-2.13-1.77-2.48s-1.61-.73-2-2.71S37,83.48,34.27,83.48H34c-2.43.18-3.86,2.58-4,6.76-.26,5.83-5.54,8.21-10.4,8.49a18.17,18.17,0,0,1-8.08-1.33c-2.48-1.09-4-2.68-4.3-4.47-.68-3.94-1.73-4.51-2.84-5.1a4.66,4.66,0,0,1-2.57-3.19c-1-2.93.31-3.92,1.58-4.88a4.18,4.18,0,0,0,2-2.69,4.37,4.37,0,0,0-.92-3.43A7,7,0,0,1,3.22,68.5c.24-2,2-3.84,5.12-5.24a21.21,21.21,0,0,1,2.23-.85c-1.43-8.17.65-18.22,8.73-24,5.7-4.11,10.44-3.81,14.63-3.55a15.45,15.45,0,0,0,6.12-.37,19.4,19.4,0,0,1,8.28-1.08c.08-.23.15-.45.22-.68a11.7,11.7,0,0,1,1.63-3.54c2.79-3.7,7-3.89,9.55-2.19a1.7,1.7,0,0,1,.88,2.14c-.33.65-1.27,1.09-2.65.61-2.5-.91-4.66.27-6.05,3.33a10.5,10.5,0,0,0-.42,1,14,14,0,0,1,4.28,2.36,17.91,17.91,0,0,0,4.51,2.76,6.59,6.59,0,0,1,3-2.06c3.71-1.07,5.51.16,6.82,1.06.84.58,1.45,1,2.27.68a3.51,3.51,0,0,0,1.88-2.1c.44-.92.89-1.86,2.18-2.09a7.82,7.82,0,0,1,1.49-.13,5.37,5.37,0,0,0,1.35-.15c-.57-5.77.85-12,5.55-16.66,4.49-4.59,8.75-5,12.51-5.33a14.22,14.22,0,0,0,5.21-1.12,16.44,16.44,0,0,1,7-2.13c0-.22.07-.45.1-.67a10.58,10.58,0,0,1,.84-3.28c2-3.65,5.65-4.43,8.1-3.31,1,.44,1.25,1.21,1.07,1.78s-1,1.15-2.22.91c-2.26-.47-4,.9-4.77,3.74-.09.36-.15.69-.2,1a12.44,12.44,0,0,1,4.11,1.52,17.46,17.46,0,0,0,8,2.3c2.82.26,5.48.51,9,3.56,3.76,3.29,5.85,9.4,5.76,15.64l.24-.13a8,8,0,0,1,2.91-.81,5.11,5.11,0,0,0,3.14-1.27c2.42-2.05,5-3.87,7.67-1.58.41.36.8.66,1.14.92a4,4,0,0,1,2.08,3.35c.07,1.18-.7,2.36-1.43,3.5s-1.46,2.25-1,3a3.25,3.25,0,0,0,1.94,1.13,4.32,4.32,0,0,1,1.87,1,2.49,2.49,0,0,1,.67,1.72,2.93,2.93,0,0,0,.78,2,5,5,0,0,0,1.6,1c1.27.57,2.71,1.21,3.2,3.43a5.86,5.86,0,0,1-.76,4.87,2.64,2.64,0,0,1-2.11,1.06c-.38,0-.78,0-1.19,0-1.78-.1-3.79-.21-5.58,1.52a5.78,5.78,0,0,1-1.71,1.15,24.8,24.8,0,0,1,5.38,11.66,13.5,13.5,0,0,1,2.4.19,10.57,10.57,0,0,1,3.79,1.44,7.14,7.14,0,0,0,4.49,1.16c4-.13,8.45-.29,9.51,4.43.17.74.35,1.36.51,1.92C179.49,80.77,179.83,81.93,178.41,84.1Z"/></svg>