<svg id="圖層_1" data-name="圖層 1" xmlns="http://www.w3.org/2000/svg" viewBox="0 0 103.6 137.44"><defs><style>.cls-1{fill:#fff;}</style></defs><title>0</title><path class="cls-1" d="M25.48,28.15c1.25,2.35,3.31,5.18,4.93,5.67a1.29,1.29,0,0,0,1.24-.2,1.88,1.88,0,0,0,.64-1.37c.1-1.37-.73-3.33-2-5.41A10.31,10.31,0,0,1,25.48,28.15Zm5.4,4a.66.66,0,0,1-.08.31,8.89,8.89,0,0,1-3-3.16,12.68,12.68,0,0,0,1.93-.61A7.31,7.31,0,0,1,30.88,32.15Z"/><path class="cls-1" d="M60.54,37.82h-.37a.13.13,0,0,1-.12-.09.13.13,0,0,1,.06-.14,5.35,5.35,0,0,0,2-2.25c0-.33-.38-2.51-4.86-6.28a9.61,9.61,0,0,1-1.73-1.9,9.58,9.58,0,0,0-2.14,6.12,3.78,3.78,0,0,1,3.75,1.3C58.38,36,58.45,38,58.52,40.11a12.75,12.75,0,0,0,1,5.53.12.12,0,0,1,0,.14.12.12,0,0,1-.1,0h0a7.08,7.08,0,0,1-5-4.56,5.37,5.37,0,0,0-1.54-2.46,39,39,0,0,1-3.12,7.36c-1.68,3.29-3,5.89-1.64,7,2.86,2.36,6.61-1.42,12.81-7.7L61,45.4a33.31,33.31,0,0,0,5.58-8.63q-.72.27-1.5.48A19.22,19.22,0,0,1,60.54,37.82ZM50,52.48a1.47,1.47,0,0,1-1-.38c-.5-.42,1.18-3.71,2-5.3.7-1.38,1.52-3,2.21-4.66a8.31,8.31,0,0,0,4.47,4.59C54.34,50.08,51.68,52.48,50,52.48Zm9.53-16.22a6.25,6.25,0,0,0-1.35-2.6,5.14,5.14,0,0,0-3.29-1.84,7.84,7.84,0,0,1,.73-2.3c.21.21.44.41.67.61,3.13,2.63,4,4.34,4.27,5A3.72,3.72,0,0,1,59.53,36.26ZM60.41,44a15.37,15.37,0,0,1-.47-3.92l0-.86a1.46,1.46,0,0,0,.22,0h.41A20.9,20.9,0,0,0,63.88,39,27.34,27.34,0,0,1,60.41,44Z"/><path class="cls-1" d="M36.29,28.23A48.15,48.15,0,0,1,38.16,33a12.89,12.89,0,0,1,2.29-3.86A16.64,16.64,0,0,1,36.29,28.23Z"/><path class="cls-1" d="M39.72,38.1l-.11,0c.23.92.42,1.79.6,2.59.72,3.2,1.19,5.3,2.35,5.35h0c1.61,0,2.61-3.26,3.4-7.22-.47,0-.92.06-1.36.06A15.71,15.71,0,0,1,39.72,38.1Zm3,6.32a24.93,24.93,0,0,1-1.11-4.07,3.59,3.59,0,0,1-.08-.35,18.17,18.17,0,0,0,2.7.26C43.56,43.05,43,44.06,42.71,44.42Z"/><path class="cls-1" d="M103.54,31.77a1.55,1.55,0,0,0-1.49-1.11h-.12c-.3,0-.59,0-.86,0a7.48,7.48,0,0,1-5.27-2.2l.79.09a1.24,1.24,0,0,0,.27,0,1.51,1.51,0,0,0,1.3-.73,1.53,1.53,0,0,0,0-1.68C95.27,21.94,92.21,20,88.21,20a17,17,0,0,0-4.86.8,5.92,5.92,0,0,1-1.55.22A7.46,7.46,0,0,0,82.63,20a11.12,11.12,0,0,0,1.6-7.5,7.2,7.2,0,0,1,.38-3.65,1.54,1.54,0,0,0-.69-2,1.59,1.59,0,0,0-.71-.18,1.54,1.54,0,0,0-1.33.76S80.87,9,77.33,11c-2.59,1.45-5,3-6.26,5.73a6.23,6.23,0,0,0-3,1.1l0-.34a11.19,11.19,0,0,0,1.73-.76,8.38,8.38,0,0,0,3.89-5.15,11.31,11.31,0,0,0,.44-3.17,1.51,1.51,0,0,0-.88-1.36,1.55,1.55,0,0,0-.66-.15,1.69,1.69,0,0,0-.94.32c-.78.59-3.22,2.14-5.15,2.14a3.33,3.33,0,0,1-.56,0,11.3,11.3,0,0,0-2.13-.21,8.55,8.55,0,0,0-1.94.21,7,7,0,0,0-2.72-.6,5.09,5.09,0,0,0-1.37.18c-.3-.73-.63-1.49-1-2.22C56,4.82,55,2.52,54.93,1.52a1.55,1.55,0,0,0-3.09,0,14.15,14.15,0,0,1-1.47,5.52C49,9.63,47.83,12.71,49.22,16.4a10.06,10.06,0,0,0-3.71,4.28A8.52,8.52,0,0,1,42.23,24c-.31-.63-.65-1.36-1-2.22q-.36-.91-.78-1.77l.16-.13a1.51,1.51,0,0,0,.5-1c0-.08.58-8.49-7.66-11a11.14,11.14,0,0,0-3.15-.49,8.29,8.29,0,0,0-1.89.21c-2-3.95-6-6.8-9.67-6.8l-.5,0a5.77,5.77,0,0,0-4.78,2.6,5.42,5.42,0,0,0-.4.8h-.2c-2.51,0-4.22,1.3-5.73,2.45a13.74,13.74,0,0,1-5.94,3,1.54,1.54,0,0,0-.63,2.71,9,9,0,0,0,5.33,1.77,9,9,0,0,0,3.18-.59l.36-.12-.07.07a9.55,9.55,0,0,1-5.11,2.19,1.55,1.55,0,0,0-1.38,1.07,1.53,1.53,0,0,0,.47,1.65,14.8,14.8,0,0,0,4.58,2.34,7.69,7.69,0,0,0-1,1.7C5.11,27.23,8.17,33.8,8.56,34.6a1.52,1.52,0,0,0,1.36.8h.14a32.81,32.81,0,0,0,5.38-.94c0,.12,0,.23,0,.34-.74,5.34-2,6.92-2.33,7.05a1.54,1.54,0,0,0,.47,3,1.74,1.74,0,0,0,.39,0c.35-.09,7.89-2.12,11.43-7.24a39.33,39.33,0,0,0,4.37,3c4.56,2.66,9.38,11.82,9.85,26.31.12,3.17,0,6.36-.16,9.74-.36,8.36-.76,17.83,2.52,30.93,2.4,9.76,11.26,29.92,23.31,29.92h.5a1.56,1.56,0,0,0,1.21-.69c9.25-13.92,9.14-14.39,9-15.12s-.49-.93-1.81-2c-3.33-2.67-13.46-10.8-19-24a62.36,62.36,0,0,1-4.86-19.72c-.38-7,1.17-12.15,4.49-14.89,1.57-1.31,3-2.39,4.38-3.43C63.93,53.9,67.73,51,71.73,43.07c.3-.59.58-1.15.83-1.68.13.36.28.73.45,1.09.46.93.86,1.74,1.22,2.45,1.4,2.78,1.92,3.82,1.88,5.58a1.54,1.54,0,0,0,1.54,1.57,1.69,1.69,0,0,0,.94-.32,14.81,14.81,0,0,0,5-7.88,31.82,31.82,0,0,0,4.86-.42,1.55,1.55,0,0,0,1.15-1,14.5,14.5,0,0,0,.07-7.54l.74.25a10.56,10.56,0,0,0,3.74.63,17,17,0,0,0,4.56-.67,22.08,22.08,0,0,0,4.08-1.56A1.54,1.54,0,0,0,103.54,31.77Zm-1.43.54a21.15,21.15,0,0,1-3.79,1.44,15.86,15.86,0,0,1-4.19.62,9,9,0,0,1-3.24-.54,14.07,14.07,0,0,0-3.42-.76A13,13,0,0,1,88.24,42l0,.07h-.07a30,30,0,0,1-4.58.39c-.42,0-.8,0-1.2-.06-.44,5-4.59,8.2-4.64,8.24a.09.09,0,0,1-.07,0l-.06,0a.14.14,0,0,1-.07-.11c.06-2.11-.59-3.41-2-6.25-.36-.71-.76-1.51-1.21-2.43a6.78,6.78,0,0,1-.45-5.2c-.08-.27-.15-.53-.2-.78-.3.6-.62,1.28-1,2.08-.57,1.19-1.27,2.67-2.17,4.48-3.86,7.66-7.55,10.44-12.22,14-1.4,1.06-2.84,2.15-4.42,3.47-3.69,3-5.41,8.59-5,16.06a63.58,63.58,0,0,0,5,20.19c5.67,13.58,16,21.88,19.41,24.61,1,.8,1.29,1,1.32,1.19.15.58-6.66,10.88-8.75,14a.14.14,0,0,1-.1,0h-.43c-11.09,0-19.69-19.71-21.94-28.84-3.23-12.9-2.83-22.27-2.47-30.53.14-3.42.28-6.64.16-9.86-.53-16-6-24.83-10.56-27.48A36.5,36.5,0,0,1,25,35.41c-2.63,5.66-11.3,8-11.4,8h0a.11.11,0,0,1-.12-.09.12.12,0,0,1,.08-.15c1.44-.46,2.65-3.44,3.31-8.2a14.81,14.81,0,0,1,.56-2.66A26.71,26.71,0,0,1,9.93,34H9.84l0-.08C9.67,33.64,6.62,27.25,8.28,23a5.61,5.61,0,0,1,2.83-3,14.12,14.12,0,0,1-6.83-2.66.13.13,0,0,1,0-.14.12.12,0,0,1,.11-.08,11.06,11.06,0,0,0,6-2.57,7.39,7.39,0,0,1,3.46-1.9,3.47,3.47,0,0,1-.41-.45,7.62,7.62,0,0,0-4.8,0,7.52,7.52,0,0,1-7.13-1,.11.11,0,0,1,0-.12.13.13,0,0,1,.1-.1A15,15,0,0,0,8,7.81c1.8-1.37,3.39-2.54,6.13-2a3.57,3.57,0,0,1,.55-1.59,4.38,4.38,0,0,1,3.67-1.94c3.64-.25,7.7,3,9.3,7.11a7.73,7.73,0,0,1,5.4-.1c7.16,2.17,6.67,9.45,6.66,9.52v0l0,0a6.59,6.59,0,0,1-1,.71,22.94,22.94,0,0,1,1.3,2.76,18.71,18.71,0,0,0,2.84,5.17,7,7,0,0,1,3-.34,4,4,0,0,1,2.4,1A20.37,20.37,0,0,1,49.5,25.4a27.3,27.3,0,0,1-6.29.75c-.81,0-1.3,0-1.32,0a.12.12,0,0,1-.11-.12c0-.09,0-.1.28-.23a10.56,10.56,0,0,0,4.72-4.45,7.9,7.9,0,0,1,4.31-4.23c-2-3.81-.85-6.79.53-9.35a15.51,15.51,0,0,0,1.64-6.15.12.12,0,0,1,.13-.12h0a.12.12,0,0,1,.12.12c.05,1.26,1,3.49,2,5.65.53,1.21,1.07,2.46,1.46,3.56a5.39,5.39,0,0,1,.9-.44,4.91,4.91,0,0,1,3.85.46,8.31,8.31,0,0,1,3.94-.11c3,.57,6.8-2.33,6.84-2.36a.12.12,0,0,1,.13,0,.12.12,0,0,1,.07.11,10,10,0,0,1-.4,2.75A6.92,6.92,0,0,1,69,15.48a9.89,9.89,0,0,1-2.69,1,7.77,7.77,0,0,1,.3,2.13v.08l-.06,0a20.39,20.39,0,0,1-4,1.41c-.2.05-.38.07-.58.11a8.37,8.37,0,0,1,1,5.4,44.79,44.79,0,0,0-.66,9.14c.18-.45.35-.92.53-1.43a21.5,21.5,0,0,1,1.56-3.69A8.3,8.3,0,0,1,66.71,27a6.56,6.56,0,0,1,.15-5.87c1.74-2.84,3.94-3.07,4.81-3l.35.05c.91-2.84,3.15-4.35,6-5.95,4-2.33,5.07-4.12,5.08-4.14a.13.13,0,1,1,.22.12,8.49,8.49,0,0,0-.5,4.34,9.9,9.9,0,0,1-1.38,6.65,6.76,6.76,0,0,1-3.33,2.66,9.86,9.86,0,0,0,5.64.33c6-1.78,9.69-.43,13.21,4.81a.12.12,0,0,1,0,.14.11.11,0,0,1-.12.06A27.92,27.92,0,0,0,91.2,27a14.38,14.38,0,0,1,3.35,2.27c1.91,1.58,3.73,3.08,7.49,2.76h0a.14.14,0,0,1,.13.09A.13.13,0,0,1,102.11,32.31Zm-37-5.75a11.32,11.32,0,0,0-1,1.08c.08-.59.17-1.15.29-1.68a8.48,8.48,0,0,0-.38-4.7c.54-.16,1-.34,1.48-.5A7.62,7.62,0,0,0,65.06,26.56Z"/></svg>