<svg id="圖層_1" data-name="圖層 1" xmlns="http://www.w3.org/2000/svg" viewBox="0 0 175.47 97.6"><defs><style>.cls-1{fill:#fff;}</style></defs><title>0</title><path class="cls-1" d="M175.39,64.26c-.79-4.13-4.78-4.14-7.42-4.15a11.18,11.18,0,0,1-3.85-.42c-1-.48-1.34-1.5-1.74-3.14s-.91-3.83-3.34-4.14l-.5,0c-2.34,0-3.53,1.95-4.6,4,0-.47.07-1,.1-1.52a1.56,1.56,0,0,0-.26-.91,18.44,18.44,0,0,0-.18-2.48,29.87,29.87,0,0,0-.69-4.07,1.73,1.73,0,0,0,0-.68,24.65,24.65,0,0,0-2.17-5.42c2-1.86,2.59-4,3.25-6.48A37.54,37.54,0,0,1,155.17,31c1.16-3.07,3.1-3.72,4.52-3.72a3.3,3.3,0,0,1,.61.05,1.24,1.24,0,0,0,.33,0,1.36,1.36,0,0,0,.75-.22,1.38,1.38,0,0,0,.63-.88l.06-.25a1.43,1.43,0,0,0-1.08-1.7,6.85,6.85,0,0,0-1.23-.11c-1.6,0-5.53.56-7.48,5.7A40.29,40.29,0,0,0,151,34c-.53,1.95-.89,3.32-1.86,4.47v0C142,28.13,128.09,21.69,112.74,21.69c-1.71,0-3.44.08-5.15.24a55.09,55.09,0,0,0-9.42,1.7c-.83-3.66.09-6.29.91-8.64.75-2.16,1.46-4.19.63-6.43C98.6,5.57,96,5,94.22,4.69a6.25,6.25,0,0,1-1.46-.38,1.16,1.16,0,0,1,.32-1.58,1.41,1.41,0,0,0,.25-2l-.15-.2A1.42,1.42,0,0,0,92.05,0a1.44,1.44,0,0,0-.85.28,4.33,4.33,0,0,0-1.14,5.53c.76,1.35,2.25,1.65,3.56,1.91,1.67.33,2.71.6,3.2,1.91s0,2.59-.66,4.34a17.27,17.27,0,0,0-.94,10.55h0c-.25-.78-.53-1.55-.85-2.32a1.39,1.39,0,0,0-.32-.48C89.05,10.85,76.52,2.92,62,1.5a46.58,46.58,0,0,0-4.87-.25c-10.22,0-19.87,3.33-26.49,9.15a1,1,0,0,0-.17.18,31.6,31.6,0,0,0-4.19,4.78,2,2,0,0,0-.14.25,25.54,25.54,0,0,0-2,3.6,1.6,1.6,0,0,0-.31.47,22.2,22.2,0,0,0-1.16,3.48,1.57,1.57,0,0,0,0,.57,19.07,19.07,0,0,0-.44,2.72,24,24,0,0,0,.08,5.12,1.48,1.48,0,0,0,0,.42A26.92,26.92,0,0,0,23,35.3a1.37,1.37,0,0,0,.26.51,25.18,25.18,0,0,0,1.7,4H24.9c-3.63.84-6.76,1.57-7.61,4.2a6,6,0,0,0,.25,3.43,3.69,3.69,0,0,1,.22,1.24,12.21,12.21,0,0,1-3-1A15.65,15.65,0,0,0,9,46.09a4.72,4.72,0,0,0-4.31,2.47c-1.62,2.86.22,5.11,1.57,6.74.69.84,1.4,1.71,1.4,2.32S6.21,58.94,5,59.51c-2.18,1.05-5.47,2.64-5,6.24A4.29,4.29,0,0,0,2.87,69.3a7,7,0,0,0,2.63.46,10.86,10.86,0,0,0,6.6-2.36,3.64,3.64,0,0,1,2.09-1.09l.2,0c.94.21,1.88,2.24,2.34,3.23a5.14,5.14,0,0,0,4.48,3.11h.24c2.15-.13,3.94-1.76,4.91-4.49a27,27,0,0,0,1.1-4.71c.26-1.51.58-3.4,1.07-3.4h.17a6.41,6.41,0,0,1,1.16,2c.84,1.82,2,4.32,4.68,4.32h.16c4-.12,4.33-3.85,4.58-6.58.19-2,.36-4,1.51-4.85l.37-.28q1,.46,1.92.87A9.9,9.9,0,0,0,41.6,60.2c-.13,2.62.89,4.81,2.68,5.73a17.38,17.38,0,0,0,2.26.9c2.27.77,3,1,2.35,3.9l-.23,1.06a21.47,21.47,0,0,0-.74,5.4,5.43,5.43,0,0,0,5,5.23,5.17,5.17,0,0,0,.57,0,5.42,5.42,0,0,0,5.4-4.25l.07-.3c.49-2.06.74-2.59,1.37-2.69a16.37,16.37,0,0,1,.31,4.27c0,4.2,0,9.94,4.47,11.77a6.82,6.82,0,0,0,2.58.58,4.17,4.17,0,0,0,1.66-.33c1.78-.78,2.47-2.61,3.08-4.22.71-1.89,1.07-2.54,1.8-2.62a13.08,13.08,0,0,1,1.3,3.09c1.23,3.66,3.09,9.19,8.92,9.82a4.58,4.58,0,0,0,.53,0,4.86,4.86,0,0,0,3.32-1.31,4.78,4.78,0,0,0,1.53-3.74c-.17-2.91-2-5.19-3.33-6.86C85.88,84.91,85,83.75,85,83.4c.88.47,1.76.91,2.63,1.3a50.76,50.76,0,0,0,20.91,4.38c1.73,0,3.49-.08,5.23-.25a53.46,53.46,0,0,0,21.48-6.61c3.18,2.51,8.72,5.72,12.35,5.72a6.33,6.33,0,0,0,.76,0c3.84-.53,3.91-3.69,4-5.78a7,7,0,0,1,.55-3.27.7.7,0,0,1,.33,0c1.33,0,3.85,1.3,5.7,2.25,2.29,1.18,3.75,1.9,4.94,1.9h0a2.72,2.72,0,0,0,.55-.06,4,4,0,0,0,2.67-2c1-1.88.81-4.7-.63-8.59-.22-.63-.1-.86-.06-.94.35-.71,2.22-1.29,3.59-1.72C172.39,68.85,176.05,67.71,175.39,64.26Zm-5.85,4c-1.87.58-3.8,1.18-4.43,2.44a2.48,2.48,0,0,0,0,2c1.27,3.46,1.51,6,.72,7.45a2.59,2.59,0,0,1-1.75,1.31c-.85.17-2.54-.7-4.52-1.72-3-1.55-6.79-3.49-7.89-1.66a8,8,0,0,0-.75,4c0,2.08-.09,4-2.74,4.4a3.36,3.36,0,0,1-.56,0c-3.31,0-9.07-3.3-12.2-6a52,52,0,0,1-21.76,6.92q-2.56.24-5.1.24a49.1,49.1,0,0,1-20.33-4.25c-1.18-.53-2.31-1.12-3.41-1.75a3.32,3.32,0,0,0-.89.81c-.89,1.16.15,2.46,1.47,4.11s2.88,3.59,3,6a3.46,3.46,0,0,1-1.08,2.63,3.5,3.5,0,0,1-2.36.92l-.38,0h0c-4.93-.53-6.55-5.34-7.73-8.86-.76-2.27-1.37-4.07-2.53-4.07h0c-1.87.06-2.51,1.75-3.19,3.54C70.58,88.2,70,89.66,68.8,90.2a4,4,0,0,1-3.14-.26c-3.6-1.47-3.6-6.45-3.59-10.46,0-2.48,0-4.63-.81-5.4a1.11,1.11,0,0,0-.89-.3c-1.9.13-2.31,1.82-2.78,3.79l-.07.3a4.16,4.16,0,0,1-8.19-.75,20.75,20.75,0,0,1,.72-5c.07-.34.15-.69.22-1,.87-4.13-1-4.76-3.27-5.54a15.81,15.81,0,0,1-2.08-.83c-1.26-.64-2-2.37-1.91-4.39a9,9,0,0,1,2.29-5.38,43.21,43.21,0,0,1-4.23-1.84,11.45,11.45,0,0,0-1.14.77c-1.64,1.26-1.85,3.59-2.06,5.85-.25,2.68-.48,5.21-3.21,5.3h-.12c-1.79,0-2.64-1.85-3.39-3.49-.62-1.36-1.21-2.64-2.22-2.8-2-.32-2.39,1.73-2.87,4.56a24.87,24.87,0,0,1-1,4.46c-.77,2.17-2.1,3.46-3.65,3.55h-.16A3.7,3.7,0,0,1,18,68.94c-.86-1.84-1.82-3.66-3.31-4-1-.23-2.14.22-3.51,1.36C9,68.12,5.57,68.85,3.39,68a2.89,2.89,0,0,1-1.93-2.4c-.37-2.6,2.05-3.76,4.18-4.79,1.79-.86,3.47-1.67,3.47-3.17,0-1.12-.84-2.14-1.72-3.22C6.12,52.86,4.81,51.27,6,49.26c1.73-3,5.37-1.48,8.3-.25,1.81.76,3.51,1.48,4.3.93,1-.67.69-1.68.35-2.86a4.81,4.81,0,0,1-.25-2.64c.59-1.83,3.36-2.47,6.57-3.22.62-.14,1.26-.3,1.89-.46a24.92,24.92,0,0,1-2.61-5.7s0,0,0,0l-.07,0a.16.16,0,0,1-.09-.09,23.41,23.41,0,0,1-.72-3.12.1.1,0,0,1,0-.1,22.6,22.6,0,0,1-.12-5.13A21,21,0,0,1,24,23.85l.05-.21,0,0a.12.12,0,0,1,0-.1,22,22,0,0,1,1.09-3.27.12.12,0,0,1,.07-.07.07.07,0,0,1,.06,0,23.55,23.55,0,0,1,2.12-3.86l0,0,0,0a.12.12,0,0,1,0-.1,29.62,29.62,0,0,1,4.13-4.66.07.07,0,0,1,0,0C39,4.92,50.29,1.72,61.82,2.91,76.07,4.3,88.24,12.06,92.89,22.68h0a.14.14,0,0,1,.1.08,27.09,27.09,0,0,1,1.21,3.59q1.34-.48,2.7-.9c-1.58-4.89-.4-8.29.55-11,.68-1.94,1.27-3.62.65-5.3C97.36,7,95.52,6.65,93.9,6.33c-1.16-.23-2.16-.43-2.6-1.21a2.92,2.92,0,0,1,.76-3.7l.15.19A2.63,2.63,0,0,0,91.52,5c.38.69,1.33.88,2.43,1.09,1.6.33,3.6.72,4.44,3,.64,1.76,0,3.48-.65,5.47-.94,2.7-2.11,6.06-.55,10.86a55.11,55.11,0,0,1,10.53-2c16.75-1.54,32.55,4.72,40.26,15.94a.15.15,0,0,1,0,.13h0q.44.68.81,1.32c2.33-1.67,2.87-3.64,3.59-6.33a38.73,38.73,0,0,1,1.22-4c2.18-5.74,7-4.71,7.07-4.7l-.05.24c-.19,0-4.69-1-6.79,4.54a40.87,40.87,0,0,0-1.21,3.95c-.74,2.76-1.29,4.78-3.7,6.49a24.7,24.7,0,0,1,2.61,6.1h0a.19.19,0,0,1,0,.08.12.12,0,0,1-.12.07h0a31,31,0,0,1,.78,4.42,16,16,0,0,1,.15,3.07h.14a.13.13,0,0,1,.1,0,.13.13,0,0,1,0,.1,24.83,24.83,0,0,1-.58,4.57.12.12,0,0,1-.09.09l-.2.07c-.07.3-.16.61-.24.92,1,.14,1.74.09,2.25-.74s.8-1.44,1.16-2.13c1.14-2.24,2-4,4-3.78h0c1.45.19,1.78,1.59,2.14,3.07s.78,3.3,2.51,4.09a11.76,11.76,0,0,0,4.44.56c2.69,0,5.46,0,6,3C174.42,66.74,171.94,67.51,169.54,68.26Z"/></svg>