<svg id="圖層_1" data-name="圖層 1" xmlns="http://www.w3.org/2000/svg" viewBox="0 0 119.23 83.09"><defs><style>.cls-1{fill:#fff;}</style></defs><title>0</title><path class="cls-1" d="M119.2,48c0-.47-.08-.95-.15-1.41a16.22,16.22,0,0,0-.7-2.81A12.5,12.5,0,0,0,117,41.05a12,12,0,0,0-1-1.32,10.54,10.54,0,0,0-1.26-1.11,8.66,8.66,0,0,0-3.21-1.47,9,9,0,0,0-1.74-.23h-.35a7.58,7.58,0,0,0-1.49.13,8,8,0,0,0-3.47,1.61l-.24.19c-.07-1.07-.16-2.14-.26-3.17-.18-1.75-.4-3.63-.78-5.53l-.13-.61a1.41,1.41,0,0,0-1.39-1.14,1.43,1.43,0,0,0-1.39,1.14l-.12.61c-.38,1.9-.6,3.78-.78,5.54-.06.53-.1,1.08-.15,1.63-.24-.33-.5-.64-.76-1a15,15,0,0,0-3-2.64c-.19-.13-.39-.25-.62-.39l-.32-.18-.19-.11c-.24-.12-.48-.24-.71-.34a12.15,12.15,0,0,0-2-.68,10.84,10.84,0,0,0-2.48-.31,7.66,7.66,0,0,0-1.68.18l-.72.16a1.42,1.42,0,0,0,.14,2.79l.73.09a8.78,8.78,0,0,1,4.93,2.38A12.91,12.91,0,0,1,94.1,39a8.22,8.22,0,0,0-2.19-.31,11.28,11.28,0,0,0-4,.71,11.09,11.09,0,0,0-3.42,2.09A14.05,14.05,0,0,0,82,44.4a18.61,18.61,0,0,0-1.63,3.13,25.38,25.38,0,0,0-1.08,3.22c-.15.55-.28,1.13-.4,1.71a8.74,8.74,0,0,0-2.6-.9,8,8,0,0,0-1.3-.11,8,8,0,0,0-2.13.29,9.53,9.53,0,0,0-3,1.44,12.15,12.15,0,0,0-1.4,1.13c0-.2,0-4.14,0-5.85.09-1.51.21-2.85.36-4.09a34.57,34.57,0,0,1,.81-4.55A14.58,14.58,0,0,1,71.14,36c.14-.22.3-.45.49-.7a4.43,4.43,0,0,1,.5-.54,2.48,2.48,0,0,1,1.05-.55,2.37,2.37,0,0,1,.57-.06,6,6,0,0,1,.81,0,3.87,3.87,0,0,1,1.42.52,7.52,7.52,0,0,1,2.5,2.72,20.58,20.58,0,0,1,1.85,4.2l.21.62a1.4,1.4,0,0,0,1.34,1h.19a1.42,1.42,0,0,0,1.23-1.32l0-.65a11.89,11.89,0,0,0,0-1.46c0-.48-.08-1-.15-1.4a16.54,16.54,0,0,0-.7-2.82,12.5,12.5,0,0,0-1.36-2.74,12,12,0,0,0-1-1.32,9.92,9.92,0,0,0-1.26-1.11,8.66,8.66,0,0,0-3.21-1.47,9.87,9.87,0,0,0-1.73-.23H73.5a7.45,7.45,0,0,0-1.47.13,8,8,0,0,0-3.47,1.61l-.24.2c-.07-1.08-.16-2.14-.26-3.18-.18-1.75-.4-3.63-.78-5.53l-.13-.61a1.41,1.41,0,0,0-1.39-1.14,1.43,1.43,0,0,0-1.39,1.14l-.12.61c-.38,1.9-.6,3.78-.78,5.54-.06.53-.1,1.08-.15,1.63-.24-.33-.5-.64-.76-.95a14.65,14.65,0,0,0-3-2.64c-.19-.13-.4-.26-.61-.38l-.33-.19-.19-.1a6.67,6.67,0,0,0-.71-.35,13.2,13.2,0,0,0-2-.68,10.84,10.84,0,0,0-2.48-.31,7.66,7.66,0,0,0-1.68.18l-.72.16a1.42,1.42,0,0,0,.14,2.79l.73.09a8.78,8.78,0,0,1,4.93,2.38,12.91,12.91,0,0,1,1.52,1.72A8.22,8.22,0,0,0,56,30.47a10.79,10.79,0,0,0-7.16,2.58.54.54,0,0,0-.12-.09l-.67-.41a8.6,8.6,0,0,0-3-1.13,8,8,0,0,0-1.3-.11,8,8,0,0,0-2.13.29,9.72,9.72,0,0,0-3,1.43,13.43,13.43,0,0,0-1.4,1.14s0-4.06,0-5.85c.09-1.5.21-2.84.36-4.09a34.57,34.57,0,0,1,.81-4.55,14.31,14.31,0,0,1,1.47-3.86,6.91,6.91,0,0,1,.49-.7,4.48,4.48,0,0,1,.5-.54,2.48,2.48,0,0,1,1-.55,2.43,2.43,0,0,1,.61-.07,4.81,4.81,0,0,1,.77.06,4.11,4.11,0,0,1,1.42.51,7.65,7.65,0,0,1,2.5,2.73,20.83,20.83,0,0,1,1.85,4.2l.21.62a1.42,1.42,0,0,0,1.34,1h.19A1.42,1.42,0,0,0,52,21.72l0-.65a14.28,14.28,0,0,0,0-1.46c0-.47-.08-.95-.15-1.41a16,16,0,0,0-.7-2.81,12.5,12.5,0,0,0-1.36-2.74,11.12,11.12,0,0,0-1.05-1.32,9.72,9.72,0,0,0-1.25-1.11,8.66,8.66,0,0,0-3.21-1.47,9,9,0,0,0-1.73-.23h-.37a7.62,7.62,0,0,0-1.49.14,8,8,0,0,0-3.46,1.61l-.24.19c-.07-1.07-.16-2.14-.26-3.17A55.72,55.72,0,0,0,36,1.75l-.12-.61A1.41,1.41,0,0,0,34.49,0,1.43,1.43,0,0,0,33.1,1.14L33,1.75c-.38,1.9-.6,3.78-.78,5.54-.06.53-.11,1.08-.15,1.63-.25-.33-.5-.65-.76-1a14.65,14.65,0,0,0-3-2.64A6.25,6.25,0,0,0,27.71,5l-.33-.19-.2-.11a7.48,7.48,0,0,0-.7-.34,13.32,13.32,0,0,0-2-.69A11.22,11.22,0,0,0,22,3.32a7.81,7.81,0,0,0-1.69.18l-.72.16a1.42,1.42,0,0,0,.15,2.79l.73.09a8.78,8.78,0,0,1,4.93,2.38A12.16,12.16,0,0,1,27,10.64a8.5,8.5,0,0,0-2.18-.32,11.51,11.51,0,0,0-4,.72,11,11,0,0,0-3.42,2.09A13.79,13.79,0,0,0,14.9,16a18.23,18.23,0,0,0-1.63,3.13,23.43,23.43,0,0,0-1.08,3.22,27.4,27.4,0,0,0-.67,3.27A24.62,24.62,0,0,0,11.24,29V30a1.42,1.42,0,0,0,1.23,1.42h.18A1.42,1.42,0,0,0,14,30.37l.25-1a41.54,41.54,0,0,1,1.87-5.65,21.38,21.38,0,0,1,2.72-4.87A8,8,0,0,1,22.55,16a5.76,5.76,0,0,1,1.86-.29h.21a2.88,2.88,0,0,1,1.5.52,5.9,5.9,0,0,1,1.43,1.5c.12.17.23.34.34.53-.21,0-.42,0-.64,0a11.79,11.79,0,0,0-3.83.63,10.64,10.64,0,0,0-3.4,2,11.71,11.71,0,0,0-2.31,2.93,13.86,13.86,0,0,0-1.3,3.28A13.5,13.5,0,0,0,16,30.53l0,.63a1.42,1.42,0,0,0,1.17,1.36,1.06,1.06,0,0,0,.25,0,1.42,1.42,0,0,0,1.32-.91l.22-.58a19.08,19.08,0,0,1,1.16-2.5,13.58,13.58,0,0,1,1.42-2.15,8.33,8.33,0,0,1,1.65-1.56,6.27,6.27,0,0,1,1.86-.9,6.44,6.44,0,0,1,1.65-.22h.41a2.31,2.31,0,0,1,1.31.46,6.85,6.85,0,0,1,2.13,3.46,24.08,24.08,0,0,1,1.05,5.21c.09.87.14,1.8.17,2.76,0,.16,0,1.89,0,4l-.41,0H31a7.41,7.41,0,0,0-1.47.14,7.85,7.85,0,0,0-3.47,1.6l-.24.2c-.07-1.08-.15-2.14-.26-3.18-.18-1.75-.4-3.63-.78-5.53l-.12-.61a1.43,1.43,0,0,0-1.39-1.14,1.41,1.41,0,0,0-1.39,1.14l-.13.61c-.38,1.9-.6,3.78-.78,5.54L20.82,40c-.24-.33-.49-.64-.75-1a15.32,15.32,0,0,0-3-2.64c-.2-.14-.41-.26-.61-.38l-.33-.19-.18-.1c-.23-.12-.48-.25-.71-.35a13.75,13.75,0,0,0-2-.68,10.78,10.78,0,0,0-2.48-.31,7.66,7.66,0,0,0-1.68.18l-.72.16a1.42,1.42,0,0,0,.14,2.79l.74.09A8.82,8.82,0,0,1,14.21,40a12.24,12.24,0,0,1,1.52,1.72,8.64,8.64,0,0,0-2.19-.31,10.93,10.93,0,0,0-7.43,2.8,14.05,14.05,0,0,0-2.44,2.87A19.87,19.87,0,0,0,2,50.25,24.73,24.73,0,0,0,1,53.46a29.53,29.53,0,0,0-.67,3.27A24.88,24.88,0,0,0,0,60.06v1.06a1.41,1.41,0,0,0,1.24,1.42h.18a1.41,1.41,0,0,0,1.37-1.07l.26-1a41.36,41.36,0,0,1,1.86-5.64,21.71,21.71,0,0,1,2.72-4.87,8,8,0,0,1,3.69-2.82,5.8,5.8,0,0,1,1.86-.29h.21a2.72,2.72,0,0,1,1.5.52,5.56,5.56,0,0,1,1.44,1.49l.34.53-.64,0A11.48,11.48,0,0,0,12.2,50a10.49,10.49,0,0,0-3.4,2,11.07,11.07,0,0,0-2.31,2.92,13.44,13.44,0,0,0-1.3,3.29,12.49,12.49,0,0,0-.43,3.42v.63A1.41,1.41,0,0,0,6,63.63l.24,0a1.42,1.42,0,0,0,1.32-.91l.23-.59a19.75,19.75,0,0,1,1.15-2.5,13.7,13.7,0,0,1,1.42-2.14A9,9,0,0,1,12,56a6.17,6.17,0,0,1,1.87-.89,5.94,5.94,0,0,1,1.66-.23h.39a2.42,2.42,0,0,1,1.32.46,6.85,6.85,0,0,1,2.12,3.46A23.47,23.47,0,0,1,20.37,64c.09.86.15,1.77.17,2.76,0,.17,0,2.2,0,4.76,0,3.19,0,7.13.06,9a2.62,2.62,0,0,0,5.24,0c0-1,.06-2.25.08-2.78,0-.07,0-.14,0-.21a12.64,12.64,0,0,1,.41-2,22.1,22.1,0,0,1,.71-2.17,19.69,19.69,0,0,1,2-4,10.46,10.46,0,0,1,1.31-1.58,6.08,6.08,0,0,1,1.53-1.11,4.69,4.69,0,0,1,1.73-.47h.39a7.61,7.61,0,0,1,1.67.21l.77.17a1.17,1.17,0,0,0,.32,0,1.42,1.42,0,0,0,.73-2.63l-.68-.41a8.63,8.63,0,0,0-3-1.13,8.15,8.15,0,0,0-1.3-.11,8.06,8.06,0,0,0-2.14.29,9.58,9.58,0,0,0-3,1.44A11.44,11.44,0,0,0,26,65.28c0-.19,0-4.13,0-5.85.09-1.5.21-2.84.36-4.09a36.31,36.31,0,0,1,.81-4.55,14.55,14.55,0,0,1,1.48-3.86,7.37,7.37,0,0,1,.48-.7,4.33,4.33,0,0,1,.5-.53,2.38,2.38,0,0,1,1.06-.56,2.47,2.47,0,0,1,.6-.06l.54,0c0,1.73,0,3.3,0,4.28A2.64,2.64,0,0,0,34.48,52,2.59,2.59,0,0,0,37,50.25a24.52,24.52,0,0,1,.89,2.32l.2.62a1.41,1.41,0,0,0,1.35,1h.18a1.42,1.42,0,0,0,1.23-1.32l0-.65a10.19,10.19,0,0,0,0-1.46c0-.47-.08-.95-.15-1.4A15.45,15.45,0,0,0,40,46.5a12.5,12.5,0,0,0-1.36-2.74,8.08,8.08,0,0,0-.56-.75l.26-.69a19.17,19.17,0,0,1,2-4,10.6,10.6,0,0,1,1.32-1.59,6.24,6.24,0,0,1,1.52-1.1,4.6,4.6,0,0,1,1.74-.47l.39,0a7.25,7.25,0,0,1,1.45.18c-.19.26-.38.52-.56.8a18.61,18.61,0,0,0-1.63,3.13,24.36,24.36,0,0,0-1.08,3.22,28.18,28.18,0,0,0-.67,3.27,24.88,24.88,0,0,0-.28,3.33v1.06a1.41,1.41,0,0,0,1.23,1.42h.19a1.41,1.41,0,0,0,1.37-1.07l.26-1a40.59,40.59,0,0,1,1.86-5.65A21.08,21.08,0,0,1,50.13,39a8,8,0,0,1,3.68-2.82,5.85,5.85,0,0,1,1.86-.29h.22a2.81,2.81,0,0,1,1.5.53,5.69,5.69,0,0,1,1.43,1.49c.12.17.23.34.34.53-.21,0-.42,0-.64,0a11.48,11.48,0,0,0-3.83.63,10.64,10.64,0,0,0-3.4,2A11.45,11.45,0,0,0,49,44a14,14,0,0,0-1.74,6.71l0,.63a1.4,1.4,0,0,0,1.17,1.36,1,1,0,0,0,.25,0,1.43,1.43,0,0,0,1.32-.9l.22-.59a21.2,21.2,0,0,1,1.16-2.5,13.47,13.47,0,0,1,1.42-2.14A8.39,8.39,0,0,1,54.46,45a6.27,6.27,0,0,1,1.86-.9A6.46,6.46,0,0,1,58,43.86h.4a2.45,2.45,0,0,1,1.32.46,6.85,6.85,0,0,1,2.12,3.46,23.47,23.47,0,0,1,1,5.22c.09.86.14,1.76.17,2.75,0,.18,0,2.2,0,4.77,0,3.19,0,7.13.06,9a2.63,2.63,0,0,0,2.62,2.59,2.6,2.6,0,0,0,2.62-2.55c0-1,.07-2.25.09-2.78v-.21a15.19,15.19,0,0,1,.41-2c.22-.78.46-1.5.72-2.17a19.69,19.69,0,0,1,2-4,11.13,11.13,0,0,1,1.32-1.59,6.28,6.28,0,0,1,1.53-1.1,4.5,4.5,0,0,1,1.73-.47h.39a7.61,7.61,0,0,1,1.67.21l.26.06c-.06.62-.09,1.2-.1,1.77v1.06a1.41,1.41,0,0,0,1.23,1.42h.19a1.41,1.41,0,0,0,1.37-1.07l.26-1a41.49,41.49,0,0,1,1.86-5.65A20.87,20.87,0,0,1,86,47.23a7.93,7.93,0,0,1,3.69-2.82,5.82,5.82,0,0,1,1.87-.29h.2a2.88,2.88,0,0,1,1.5.52,5.9,5.9,0,0,1,1.43,1.5c.12.17.23.34.35.53-.22,0-.43,0-.65,0a11.48,11.48,0,0,0-3.83.63,10.64,10.64,0,0,0-3.4,2,11.45,11.45,0,0,0-2.3,2.93,13.44,13.44,0,0,0-1.3,3.28,12.56,12.56,0,0,0-.43,3.43v.63a1.41,1.41,0,0,0,1.17,1.36,1,1,0,0,0,.25,0,1.43,1.43,0,0,0,1.32-.9l.22-.59A21.2,21.2,0,0,1,87.26,57a13.82,13.82,0,0,1,1.42-2.15,8.33,8.33,0,0,1,1.65-1.56,6.27,6.27,0,0,1,1.86-.9,6.46,6.46,0,0,1,1.66-.22h.4a2.45,2.45,0,0,1,1.32.46,6.85,6.85,0,0,1,2.12,3.46,23.47,23.47,0,0,1,1,5.22c.09.86.14,1.76.17,2.75,0,.18,0,2.2,0,4.77,0,3.19,0,7.13.06,9a2.63,2.63,0,0,0,2.62,2.59,2.6,2.6,0,0,0,2.62-2.55c0-1,.07-2.25.09-2.78a1.48,1.48,0,0,1,0-.21,13.94,13.94,0,0,1,.4-2q.33-1.16.72-2.16a19.68,19.68,0,0,1,2-4,11.24,11.24,0,0,1,1.32-1.59,6.28,6.28,0,0,1,1.53-1.1,4.5,4.5,0,0,1,1.73-.47h.38a7.07,7.07,0,0,1,1.68.21l.77.17a1.12,1.12,0,0,0,.32,0,1.41,1.41,0,0,0,.72-2.63l-.67-.41a8.6,8.6,0,0,0-3-1.13,7.93,7.93,0,0,0-1.29-.11,8.18,8.18,0,0,0-2.14.29,9.72,9.72,0,0,0-3,1.43,13.43,13.43,0,0,0-1.4,1.14c0-.19,0-4.13,0-5.85.09-1.5.21-2.84.36-4.09a34.57,34.57,0,0,1,.81-4.55A14.37,14.37,0,0,1,107,44.22a8.24,8.24,0,0,1,.49-.7A4.48,4.48,0,0,1,108,43a2.48,2.48,0,0,1,1-.55,2.4,2.4,0,0,1,.58-.06,6.35,6.35,0,0,1,.8.05,3.87,3.87,0,0,1,1.42.52,7.52,7.52,0,0,1,2.5,2.72,20.58,20.58,0,0,1,1.85,4.2l.21.62a1.4,1.4,0,0,0,1.34,1h.19a1.42,1.42,0,0,0,1.23-1.32l0-.65A11.89,11.89,0,0,0,119.2,48ZM47.27,34a8.2,8.2,0,0,0-2.49-.22,5.94,5.94,0,0,0-2.25.61,7.62,7.62,0,0,0-1.88,1.34,12.23,12.23,0,0,0-1.5,1.81A20.94,20.94,0,0,0,37,41.82c-.18.48-.36,1-.52,1.52l.1.1a8.72,8.72,0,0,1,.87,1.11A10.71,10.71,0,0,1,38.64,47a14,14,0,0,1,.64,2.55c.06.42.11.86.14,1.28a11.18,11.18,0,0,1,0,1.29l0,.66-.21-.62a21.74,21.74,0,0,0-2-4.48,12.57,12.57,0,0,0-1.34-1.83c0,.17-.06.34-.08.49,0,0-.06,1.69-.09,3.08a1.21,1.21,0,0,1-2.41,0c0-1.19,0-3.24,0-5.39a6,6,0,0,0-1-.25,8.26,8.26,0,0,0-1-.07h0a3.81,3.81,0,0,0-2.56,1,5.2,5.2,0,0,0-.68.72c-.25.33-.44.6-.6.86a15.91,15.91,0,0,0-1.63,4.24A38.91,38.91,0,0,0,25,55.16c-.16,1.34-.27,2.73-.36,4.19,0,1.79,0,3.71,0,5.33,0,1.93,0,3.33,0,3.53v1.06a14.89,14.89,0,0,1,1.55-2.07,11.89,11.89,0,0,1,2.1-1.89,8.3,8.3,0,0,1,2.59-1.23,6.42,6.42,0,0,1,2.82-.15,7,7,0,0,1,2.53.95l.68.4L36,65.11a8.22,8.22,0,0,0-2.49-.23,6.13,6.13,0,0,0-2.25.61,7.72,7.72,0,0,0-1.87,1.35,12.24,12.24,0,0,0-1.51,1.8,21.2,21.2,0,0,0-2.16,4.29c-.27.7-.52,1.47-.75,2.28a15.46,15.46,0,0,0-.46,2.22s-.05,1.68-.09,3.07a1.2,1.2,0,0,1-1.2,1.18,1.22,1.22,0,0,1-1.21-1.2c0-1.86,0-5.8-.06-9,0-2.58,0-4.61,0-4.79,0-1-.08-2-.18-2.87a25.16,25.16,0,0,0-1.11-5.52A8.1,8.1,0,0,0,18,54.13a3.72,3.72,0,0,0-2.05-.7,7.69,7.69,0,0,0-2.51.26,7.79,7.79,0,0,0-2.29,1.1,10.43,10.43,0,0,0-1.94,1.83A15.83,15.83,0,0,0,7.65,59a20.41,20.41,0,0,0-1.23,2.67l-.23.59v-.63a11.45,11.45,0,0,1,.38-3.06,12,12,0,0,1,1.17-2.93,9.88,9.88,0,0,1,2-2.57,9,9,0,0,1,2.92-1.73A10.2,10.2,0,0,1,16,50.77a6.46,6.46,0,0,1,3.25.92c-.15-.4-.3-.79-.46-1.16A13.12,13.12,0,0,0,17.49,48a7,7,0,0,0-1.79-1.85,4.31,4.31,0,0,0-2.24-.77,7.19,7.19,0,0,0-2.59.36,9.28,9.28,0,0,0-4.35,3.28,22.87,22.87,0,0,0-2.92,5.2,43.06,43.06,0,0,0-1.93,5.85l-.25,1V60.08a23.92,23.92,0,0,1,.27-3.15,26.55,26.55,0,0,1,.63-3.1,23.1,23.1,0,0,1,1-3,17.81,17.81,0,0,1,1.51-2.91,12.36,12.36,0,0,1,2.19-2.57,9.71,9.71,0,0,1,3-1.84,10.3,10.3,0,0,1,3.5-.62,7.19,7.19,0,0,1,1.89.29,6.94,6.94,0,0,1,1.73.8,9.31,9.31,0,0,1,2.36,2.2c-.25-.69-.5-1.35-.78-2a16.66,16.66,0,0,0-1.53-2.77,13.67,13.67,0,0,0-2-2.41,10.29,10.29,0,0,0-5.74-2.76l-.73-.08L9.44,36a7.93,7.93,0,0,1,3.53.12,10.75,10.75,0,0,1,1.71.6,6.14,6.14,0,0,1,.63.31l.19.09.26.16c.18.1.35.21.52.32A13.49,13.49,0,0,1,19,40a17.82,17.82,0,0,1,2.06,3c.31.56.61,1.18.91,1.87,0-.32,0-.64,0-1,.07-1.83.2-3.65.37-5.39s.39-3.55.76-5.4l.13-.61.12.61c.37,1.85.59,3.69.76,5.4s.3,3.54.38,5.39c0,.49,0,1,0,1.48.14-.24.27-.49.42-.72A8.51,8.51,0,0,1,27,42.48a6.55,6.55,0,0,1,2.83-1.32,6.9,6.9,0,0,1,1.54-.11,7.78,7.78,0,0,1,1.47.19l.44.13c0-.3,0-.6,0-.89,0-2.53,0-4.71,0-4.89,0-1-.09-2-.18-2.87a25.13,25.13,0,0,0-1.12-5.52A8,8,0,0,0,29.23,23a3.78,3.78,0,0,0-2.06-.7,7.42,7.42,0,0,0-2.5.26,7.77,7.77,0,0,0-2.29,1.09,9.61,9.61,0,0,0-1.94,1.84,15.46,15.46,0,0,0-1.56,2.35,20.54,20.54,0,0,0-1.24,2.68l-.22.58,0-.62a11.49,11.49,0,0,1,.39-3.06A12.35,12.35,0,0,1,19,24.51a10,10,0,0,1,2-2.57A9.17,9.17,0,0,1,23.9,20.2a10.41,10.41,0,0,1,3.35-.55,6.52,6.52,0,0,1,3.25.93q-.21-.6-.45-1.17a13.94,13.94,0,0,0-1.33-2.48,7.07,7.07,0,0,0-1.8-1.85,4.16,4.16,0,0,0-2.23-.77,7.51,7.51,0,0,0-2.6.35A9.47,9.47,0,0,0,17.74,18a23,23,0,0,0-2.91,5.19A43.53,43.53,0,0,0,12.9,29l-.26,1V29a25.62,25.62,0,0,1,.27-3.14,27.15,27.15,0,0,1,.64-3.11,23.6,23.6,0,0,1,1-3,17,17,0,0,1,1.51-2.9,12.65,12.65,0,0,1,2.18-2.58,9.55,9.55,0,0,1,6.5-2.45,6.85,6.85,0,0,1,1.89.29,7.46,7.46,0,0,1,1.73.79A9,9,0,0,1,30.74,15c-.24-.69-.5-1.35-.78-2a17.26,17.26,0,0,0-1.52-2.78,13.69,13.69,0,0,0-2-2.4,10.17,10.17,0,0,0-5.73-2.76L19.94,5l.72-.16A7.84,7.84,0,0,1,24.2,5a11.83,11.83,0,0,1,1.71.59c.21.09.42.2.62.31l.19.1.27.16c.17.1.35.2.52.32a13.77,13.77,0,0,1,2.72,2.42,17.4,17.4,0,0,1,2.05,3,17.93,17.93,0,0,1,.91,1.86c0-.31,0-.63,0-.95.08-1.83.2-3.64.38-5.39S34,3.87,34.37,2l.12-.61.13.61c.37,1.85.58,3.68.76,5.39s.3,3.56.37,5.39c0,.49,0,1,.06,1.49l.41-.73a8.87,8.87,0,0,1,2-2.21A6.62,6.62,0,0,1,41,10.05a6.28,6.28,0,0,1,1.54-.11,7.88,7.88,0,0,1,1.47.19,7.3,7.3,0,0,1,2.69,1.23,8.34,8.34,0,0,1,1.08,1,10.32,10.32,0,0,1,.88,1.11,11.22,11.22,0,0,1,1.2,2.43,13.52,13.52,0,0,1,.63,2.55,10.89,10.89,0,0,1,.14,1.28,9.3,9.3,0,0,1,0,1.29l0,.65-.2-.62a22.24,22.24,0,0,0-2-4.48,9,9,0,0,0-3-3.23,5.49,5.49,0,0,0-1.89-.68,6.73,6.73,0,0,0-1-.07h0a3.82,3.82,0,0,0-.94.1,3.91,3.91,0,0,0-1.63.86,6.75,6.75,0,0,0-.68.72,8.35,8.35,0,0,0-.59.86A15.33,15.33,0,0,0,37,19.33a35.07,35.07,0,0,0-.85,4.72c-.16,1.33-.28,2.72-.36,4.18,0,1.88,0,3.86,0,5.44,0,1.88,0,3.23,0,3.43v1a15.46,15.46,0,0,1,1.56-2.06,11.19,11.19,0,0,1,2.1-1.89A8.15,8.15,0,0,1,42,33a6.46,6.46,0,0,1,2.83-.15,7.18,7.18,0,0,1,2.53,1l.46.27-.06.07ZM78.54,54.14a7.94,7.94,0,0,0-2.49-.23,5.94,5.94,0,0,0-2.25.61,7.42,7.42,0,0,0-1.88,1.35,12.22,12.22,0,0,0-1.5,1.8A21.2,21.2,0,0,0,68.26,62c-.27.7-.52,1.47-.75,2.28a14.92,14.92,0,0,0-.46,2.22S67,68.14,67,69.53a1.21,1.21,0,0,1-2.41,0c0-1.86,0-5.8-.06-9,0-2.58,0-4.61,0-4.79,0-1-.09-2-.18-2.87a24.56,24.56,0,0,0-1.12-5.52,8,8,0,0,0-2.66-4.18,3.77,3.77,0,0,0-2-.7,7.69,7.69,0,0,0-2.51.26,7.77,7.77,0,0,0-2.29,1.09,10.18,10.18,0,0,0-1.94,1.84A15.09,15.09,0,0,0,50.15,48a19.78,19.78,0,0,0-1.24,2.67l-.22.59,0-.63a11.92,11.92,0,0,1,.39-3.06,12.35,12.35,0,0,1,1.16-2.93,10.14,10.14,0,0,1,2-2.57,9,9,0,0,1,2.92-1.73,10.15,10.15,0,0,1,3.35-.56,6.52,6.52,0,0,1,3.25.93c-.14-.4-.29-.79-.45-1.16A13.71,13.71,0,0,0,60,37.07a6.92,6.92,0,0,0-1.8-1.85A4.25,4.25,0,0,0,56,34.45a7.31,7.31,0,0,0-2.6.36A9.38,9.38,0,0,0,49,38.09a22.87,22.87,0,0,0-2.91,5.2,43.06,43.06,0,0,0-1.93,5.85l-.26,1,0-1.07A23.77,23.77,0,0,1,44.19,46a29,29,0,0,1,.64-3.11,24.68,24.68,0,0,1,1-3,17.35,17.35,0,0,1,1.51-2.9,13.17,13.17,0,0,1,1-1.37,1.41,1.41,0,0,0,1-.84,1.55,1.55,0,0,0,0-.23l.15-.14a9.64,9.64,0,0,1,3-1.83,10.3,10.3,0,0,1,3.5-.62,6.85,6.85,0,0,1,1.89.29,7.28,7.28,0,0,1,1.73.79A9.16,9.16,0,0,1,62,35.17c-.24-.69-.5-1.35-.78-2a16.7,16.7,0,0,0-1.52-2.77,13,13,0,0,0-2-2.41A10.23,10.23,0,0,0,52,25.27l-.73-.08.71-.17a8.14,8.14,0,0,1,3.54.13,11.83,11.83,0,0,1,1.71.59c.22.1.43.21.63.32l.18.09.28.16.51.32a13.77,13.77,0,0,1,2.72,2.42,17.8,17.8,0,0,1,2,3,18.13,18.13,0,0,1,.91,1.87c0-.32,0-.64,0-.95.08-1.85.21-3.66.38-5.39s.39-3.55.76-5.4l.12-.61.13.61c.37,1.85.58,3.68.76,5.39S67,31.11,67,33c0,.48,0,1,.06,1.48.14-.24.27-.49.41-.72a9.12,9.12,0,0,1,2-2.22,6.62,6.62,0,0,1,2.84-1.31,6.28,6.28,0,0,1,1.54-.11,7.78,7.78,0,0,1,1.47.19A7.3,7.3,0,0,1,78,31.5a8.69,8.69,0,0,1,1.08,1,10.59,10.59,0,0,1,.88,1.11A11.45,11.45,0,0,1,81.14,36a13.91,13.91,0,0,1,.63,2.55,10.89,10.89,0,0,1,.14,1.28,9.31,9.31,0,0,1,0,1.29l0,.66-.2-.63a22.24,22.24,0,0,0-2-4.48,9,9,0,0,0-3-3.22,5.43,5.43,0,0,0-1.9-.69,7.09,7.09,0,0,0-1-.07,3.37,3.37,0,0,0-.94.11,3.74,3.74,0,0,0-1.62.85,5.2,5.2,0,0,0-.68.72,8.68,8.68,0,0,0-.6.86,15.58,15.58,0,0,0-1.63,4.24,35.07,35.07,0,0,0-.85,4.72c-.16,1.33-.28,2.73-.36,4.18,0,1.79,0,3.69,0,5.3,0,2,0,3.37,0,3.57V58.3a14.89,14.89,0,0,1,1.55-2.07,11.55,11.55,0,0,1,2.1-1.89,8.15,8.15,0,0,1,2.58-1.23A6.46,6.46,0,0,1,76.1,53a7.11,7.11,0,0,1,2.53.95l0,0s0,.06,0,.09,0,.09,0,.14ZM117.75,50l-.2-.62a22.24,22.24,0,0,0-2-4.48,9.13,9.13,0,0,0-3-3.23,5.62,5.62,0,0,0-1.9-.68,6.72,6.72,0,0,0-1-.07,3.37,3.37,0,0,0-.94.11,3.69,3.69,0,0,0-1.62.85,5.2,5.2,0,0,0-.68.72,9.24,9.24,0,0,0-.6.86,15.58,15.58,0,0,0-1.63,4.24,35.07,35.07,0,0,0-.85,4.72c-.16,1.33-.28,2.73-.36,4.19,0,1.79,0,3.71,0,5.32,0,1.94,0,3.34,0,3.54v1.06a14.89,14.89,0,0,1,1.55-2.07,11.55,11.55,0,0,1,2.1-1.89,8.36,8.36,0,0,1,2.58-1.23,6.47,6.47,0,0,1,2.83-.15,7.11,7.11,0,0,1,2.53,1l.68.4-.77-.17a7.94,7.94,0,0,0-2.49-.23,5.94,5.94,0,0,0-2.25.61,7.42,7.42,0,0,0-1.88,1.35,12.22,12.22,0,0,0-1.5,1.8,20.94,20.94,0,0,0-2.16,4.29c-.27.7-.52,1.47-.75,2.28a15.18,15.18,0,0,0-.46,2.22s-.06,1.68-.09,3.07a1.21,1.21,0,0,1-2.41,0c0-1.86,0-5.8-.06-9,0-2.58,0-4.61,0-4.79,0-1-.09-2-.18-2.87A24.56,24.56,0,0,0,99,55.6a8,8,0,0,0-2.66-4.18,3.77,3.77,0,0,0-2.05-.7,7.45,7.45,0,0,0-4.8,1.35,9.88,9.88,0,0,0-1.94,1.84A15.21,15.21,0,0,0,86,56.26a22,22,0,0,0-1.24,2.68l-.22.59,0-.63a11.87,11.87,0,0,1,.39-3.06,12.35,12.35,0,0,1,1.16-2.93,10,10,0,0,1,2-2.57A9.17,9.17,0,0,1,91,48.6a10.15,10.15,0,0,1,3.35-.55,6.52,6.52,0,0,1,3.25.93q-.21-.6-.45-1.17a13.94,13.94,0,0,0-1.33-2.48,6.92,6.92,0,0,0-1.8-1.85,4.16,4.16,0,0,0-2.23-.77,7.55,7.55,0,0,0-2.6.35,9.47,9.47,0,0,0-4.35,3.29A23,23,0,0,0,82,51.54,43.2,43.2,0,0,0,80,57.4l-.26,1,0-1.06c0-.56,0-1.15.1-1.78,0-.37.08-.76.14-1.18,0,.43,0,.83,0,1.22a1.4,1.4,0,0,0,.64-.81,1.36,1.36,0,0,0-.45-1.43s0-.08,0-.11c.13-.74.29-1.47.47-2.16a24.13,24.13,0,0,1,1-3,17.35,17.35,0,0,1,1.51-2.9,12.38,12.38,0,0,1,2.19-2.58,9.76,9.76,0,0,1,3-1.83,10,10,0,0,1,3.5-.62,6.85,6.85,0,0,1,1.89.29,7.28,7.28,0,0,1,1.73.79,9.16,9.16,0,0,1,2.35,2.21c-.24-.69-.5-1.35-.78-2a16.84,16.84,0,0,0-1.52-2.78,13.27,13.27,0,0,0-2-2.4,10.23,10.23,0,0,0-5.73-2.76l-.73-.09.71-.16a8.14,8.14,0,0,1,3.54.13,11.83,11.83,0,0,1,1.71.59l.63.31.18.1.27.16c.17.1.35.2.52.32a13.49,13.49,0,0,1,2.72,2.42,17.8,17.8,0,0,1,2,3,17.18,17.18,0,0,1,.91,1.87c0-.32,0-.64,0-1,.08-1.83.21-3.64.38-5.39s.39-3.54.76-5.39l.12-.61.13.61c.37,1.85.58,3.68.76,5.39s.3,3.55.37,5.39c0,.49,0,1,.06,1.49.14-.25.27-.49.41-.72a8.94,8.94,0,0,1,2-2.22,6.62,6.62,0,0,1,2.84-1.31,6.35,6.35,0,0,1,1.54-.11,7.78,7.78,0,0,1,1.47.19,7.3,7.3,0,0,1,2.69,1.23,8.69,8.69,0,0,1,1.08,1,10.59,10.59,0,0,1,.88,1.11,11.22,11.22,0,0,1,1.2,2.43,13.91,13.91,0,0,1,.63,2.55,11.13,11.13,0,0,1,.14,1.28,9.31,9.31,0,0,1,0,1.29Z"/></svg>