<svg id="圖層_1" data-name="圖層 1" xmlns="http://www.w3.org/2000/svg" viewBox="0 0 124.4 117.12"><defs><style>.cls-1{fill:#fff;}</style></defs><title>0</title><path class="cls-1" d="M85.31,67.21l.13-.24-.15.15Z"/><path class="cls-1" d="M24.83,33.78l.23.35L25,33.55Z"/><path class="cls-1" d="M44.11,64.54c0,.14.09.28.13.42l.52-.36Z"/><path class="cls-1" d="M26.73,15.76l-1.87-2.52a21.67,21.67,0,0,1,1.45,4.6A13.26,13.26,0,0,1,26.73,15.76Z"/><path class="cls-1" d="M25.39,30.83a3.19,3.19,0,0,1,.65-.3l-.11-.83-.07.22A7.72,7.72,0,0,1,25.39,30.83Z"/><path class="cls-1" d="M24.8,31.6l-.18.17a9,9,0,0,0-1.5,2.15,5.76,5.76,0,0,1,1.51,5.25A4.51,4.51,0,0,1,26.4,45a3.57,3.57,0,0,1,.27.28c.35-.31.72-.61,1.11-.91L26.07,30.79A3.44,3.44,0,0,0,24.8,31.6Zm0,2.18.16-.23.07.58Z"/><path class="cls-1" d="M108.17,75.4,107.61,72c-.44.14-.79.48-1,1.28C106.37,74.25,107.08,74.86,108.17,75.4Z"/><path class="cls-1" d="M58.88,28.08c1,2.4,1.57,4.71.7,5.92l2.51,6.79h0l0,.15.07.21c.16-.55.34-1.11.54-1.66a10.12,10.12,0,0,1,1.14-3.87A3.44,3.44,0,0,1,64.45,32,8.91,8.91,0,0,0,58.88,28.08Zm3.48,7.46c-.11.25-.24.55-.37.9l-.86-2.34a6,6,0,0,0,.08-3.48A6.87,6.87,0,0,1,62.74,32,4.71,4.71,0,0,0,62.36,35.54Z"/><path class="cls-1" d="M124.39,41.16a4.49,4.49,0,0,0-1.11-3.39c-1.7-1.82-4.71-1.87-7.37-1.92a17.93,17.93,0,0,1-2.73-.17,10.42,10.42,0,0,1,1.18-1.1c1.43-1.23,4.09-3.5,2.12-6.67-1.14-1.83-3.76-2.72-8-2.72a47.23,47.23,0,0,0-6.73.56L99.34,11.3a1.45,1.45,0,0,0-.58-.92,1.37,1.37,0,0,0-.82-.27l-.23,0-.25,0a1.42,1.42,0,0,0-1.17,1.63l1.95,11.84a13.33,13.33,0,0,0-2.86-1.09,16,16,0,0,0-4-.52,13.13,13.13,0,0,0-3,.34c-2.4.56-3.89,1.84-4.11,3.5-.35,2.79,1.47,4,2.56,4.74.3.2.79.53.85.72,0,.47-.08.56-.82,1.38-.47.53-1,1.11-1.56,1.91-.27,0-.54,0-.83,0a13.07,13.07,0,0,0-1.73.11,13.39,13.39,0,0,1-1.46.09c-1.3,0-1.59-.29-1.6-.29s-.14-.32.3-1.71,1.26-3.94-.27-5.63a4.2,4.2,0,0,0-3.27-1.22,11.06,11.06,0,0,0-2.28.27,15.23,15.23,0,0,0-8,4.63l-.54-.17a10.41,10.41,0,0,0-5.81-4.08,54.91,54.91,0,0,0-4-6.9L50,3.91A1.43,1.43,0,0,0,48.66,3a1.37,1.37,0,0,0-.49.09l-.24.08A1.44,1.44,0,0,0,47.09,5l4.53,12.28c-2.46-1-5.73-2.12-8.31-2.12A6.28,6.28,0,0,0,41,15.5a3.78,3.78,0,0,0-2.27,2.19c-1,2.49,1.55,4,3.23,4.95.39.24,1,.58,1.35.86a15.67,15.67,0,0,1-3.11.39l-.51,0a6.66,6.66,0,0,0-.73-.31,6.25,6.25,0,0,0-4.67-4.3c-.48-1.62-2-4.17-6.56-5l-2.41-3.25-.12-.21L24,1.24A1.42,1.42,0,0,0,22.61,0h-.18l-.24,0A1.41,1.41,0,0,0,21,1.63l.66,5.28C18.61,4.39,15.49,3,12.84,3a5.86,5.86,0,0,0-2,.32A3.79,3.79,0,0,0,8.25,6.61a5.28,5.28,0,0,0,2.11,4.47l.34.33c-.56.47-2.5.69-3.79.83C4,12.56-.34,13.05,0,17c.32,3.45,3.86,3.53,6.21,3.59.9,0,2.79.07,2.93.45.21.59-.69,1.94-1.35,2.93-1.26,1.89-3.15,4.73-.75,7.14a3.73,3.73,0,0,0,2.7,1.17c1.87,0,3.53-1.36,5.14-2.68a8.79,8.79,0,0,1,2.78-1.83c.38.09,1.12,1.59,1.43,2.24a8.81,8.81,0,0,0,2.2,3.21,8,8,0,0,0-1.14,1l-.2.21a38.4,38.4,0,0,0-9.33-1.49C7,32.88,4.7,34,3.88,36.17a4,4,0,0,0,0,3.36c.88,1.68,2.88,2.18,4.65,2.62a14,14,0,0,1,1.75.53c-.44.8-2,1.48-3.54,2.13C4,46-.32,47.85,1.37,52.55a4.58,4.58,0,0,0,4.7,3.12,20.36,20.36,0,0,0,5.56-1.16l.08,0c-1.05,2.84-1.53,7,.58,12.45-.47,1.68-1.4,6.54,2.44,9.77a5.63,5.63,0,0,0,4.81,4.94,5.17,5.17,0,0,0,.57,0c.89,0,3.79-.31,5.06-4.17a4.67,4.67,0,0,0,1.34-1.13,7.24,7.24,0,0,0,1.36-5.2,6.1,6.1,0,0,0,1.38-1.65l.28,0,5.66,44.81a1.42,1.42,0,0,0,1.41,1.24h.18l.24,0A1.42,1.42,0,0,0,38,115a1.38,1.38,0,0,0,.28-1l-5.9-46.7a13.83,13.83,0,0,0,.88-2.61c.11-.42.27-1,.43-1.44a19.55,19.55,0,0,1,1.43,2.37c1.09,2,2.22,4.12,4,4.75a4.56,4.56,0,0,0,.56,3.27,4.5,4.5,0,0,0,2.75,2.37,3.94,3.94,0,0,0,1,.14,8.68,8.68,0,0,0,4.32-1.67L48.4,74c-.06.39-.14.82-.2,1.17-.39,2.17-.88,4.88.53,6.75A4.5,4.5,0,0,0,52,83.64l.59,0a4.27,4.27,0,0,0,2.89-1,4.67,4.67,0,0,0,1.07-1.46,6,6,0,0,0,3.8,1.61,5.4,5.4,0,0,0,3.32,1.35,3,3,0,0,0,.52,0A4.57,4.57,0,0,0,67.6,81.5a8.54,8.54,0,0,0,1.63-9.33,9.58,9.58,0,0,0,1.24-3.87l17.67,47.89a1.44,1.44,0,0,0,1.33.93A1.37,1.37,0,0,0,90,117l.24-.08a1.4,1.4,0,0,0,.79-.74,1.42,1.42,0,0,0,.05-1.09L73.77,68.35l.22,0c.94,1.7,3.35,5.27,7.13,5.27h.32A4,4,0,0,0,84.67,72l.1-.15a4.22,4.22,0,0,0,.39.8,3.43,3.43,0,0,0,3,1.7h.12a4.72,4.72,0,0,0-2,4.9,3.91,3.91,0,0,0,4.21,3.49,15.18,15.18,0,0,0,2.22-.22,14.36,14.36,0,0,1,1.94-.2,2.13,2.13,0,0,1,1.26.3c.45.33.46,1,.37,2.38-.13,1.91-.35,5.11,3.78,6.07a6.62,6.62,0,0,0,1.47.18,3.94,3.94,0,0,0,2.18-.6c1.55-1,1.94-2.89,2.28-4.57a6.85,6.85,0,0,1,1-3,.29.29,0,0,1,.26-.11,2.35,2.35,0,0,1,.68.14l4.55,27.71a1.4,1.4,0,0,0,.58.93,1.43,1.43,0,0,0,.82.26l.24,0,.24,0a1.43,1.43,0,0,0,1.17-1.63l-4.26-25.95a4,4,0,0,0,.91.11,3.17,3.17,0,0,0,1.38-.3,4.07,4.07,0,0,0,2.07-2.78c1.18-4.11-2.82-5.63-5.2-6.54l-.78-.3-.18-1.1h.25c2,0,3.37-1.2,4-3.56.48-1.88.09-4.72-4.55-7.59-.52-.32-1.07-.63-1.67-.94l-.82-5a7.35,7.35,0,0,0-.39-2.39l0-.17a3.51,3.51,0,0,1,1.08-.77,16.4,16.4,0,0,1,2.55,1.82c2.09,1.66,4.46,3.55,6.83,3.55A4.08,4.08,0,0,0,120,56.8c2.54-3.08.06-6.26-1.58-8.37a13.44,13.44,0,0,1-1.39-2c.33,0,.79-.06,1-.07C120.19,46.27,124.12,46.11,124.39,41.16ZM85.31,67.21l0-.09.15-.15Zm.25-9.84a9.43,9.43,0,0,0,.31-2.86,6.78,6.78,0,0,0,4.26-2.73,4.16,4.16,0,0,0,.51-1l0,0c-1.05,2.37-2.39,6.79-.16,10.82-.06.18-.13.39-.2.62a16.16,16.16,0,0,0-4,3.41c.07-.16.14-.33.2-.51a6.33,6.33,0,0,0-.39-4.68A3.77,3.77,0,0,0,85.56,57.37Zm30-11.43c-.12.93.81,2.11,1.78,3.37,1.61,2,3.43,4.38,1.6,6.59A2.64,2.64,0,0,1,116.77,57c-1.87,0-4.07-1.76-6-3.25a15.64,15.64,0,0,0-2.95-2.05c-.87-.38-1.94.48-3.08,1.58L105,54.3a5.9,5.9,0,0,1,.35,2.14l1,5.85a21.88,21.88,0,0,1,2.2,1.19c3.09,1.92,4.45,4,3.92,6-.7,2.71-2.16,2.58-3.45,2.45a5,5,0,0,0-1.09,0l.59,3.59c.47.21,1,.41,1.54.62,2.42.93,5.17,2,4.34,4.83a2.75,2.75,0,0,1-1.3,1.89c-.93.43-2.11-.09-3.25-.59l-.24-.1,4.66,28.34-.25,0-4.68-28.5c-1.25-.53-2.4-.89-3.25,0a7.65,7.65,0,0,0-1.39,3.66c-.31,1.53-.61,3-1.65,3.66a2.57,2.57,0,0,1-1.42.37,5,5,0,0,1-1.15-.15C97.44,89,97.58,87,97.71,85c.1-1.43.19-2.78-.95-3.61s-2.7-.58-4.24-.36c-2.13.31-4.32.64-4.83-2.13s1.69-3.79,3.61-4.79c1.46-.76,2.82-1.49,3-2.74a5.78,5.78,0,0,1-1-.62c-.38.17-.83.42-1.3.67-1.84,1-4.38,2.41-5.63.4a3.66,3.66,0,0,1,0-3.54,12.61,12.61,0,0,1,5.19-5.14,13,13,0,0,1,.56-1.69c-3.25-4.94.27-11,.65-11.59a10.11,10.11,0,0,1-.36-1.47,10.06,10.06,0,0,1-2.93,1.27A2.47,2.47,0,0,1,89,51a5.59,5.59,0,0,1-4.74,2.29,7.52,7.52,0,0,1-.31,4.57c1.35.76.86,2.46.75,2.78a5.29,5.29,0,0,1,.55,4.09,3.43,3.43,0,0,1-1.53,1.86c.17.55.84,3.11-.19,4.61a2.62,2.62,0,0,1-2.14,1.08h-.24c-3.65,0-5.91-4.52-6.2-5.16a7.3,7.3,0,0,1-3.57-1.2l18.36,49.74-.24.08L71,65.59a4.56,4.56,0,0,1-.79-.85,5.66,5.66,0,0,1-1-2.39,10.25,10.25,0,0,1-.71,2.18,7.9,7.9,0,0,1-.94,7.55,7.2,7.2,0,0,1-1.14,8.58,3.38,3.38,0,0,1-2.41,2l-.34,0A4.31,4.31,0,0,1,61,81.39a4.59,4.59,0,0,1-3.71-1.59A6.19,6.19,0,0,1,56,77c-.09,1.86-.4,3.61-1.45,4.55a2.77,2.77,0,0,1-1.94.68,3.39,3.39,0,0,1-.45,0,3.19,3.19,0,0,1-2.31-1.13c-1-1.38-.62-3.65-.26-5.65.25-1.43.5-2.78,0-3.14s-1.46.21-2.55.88c-1.34.82-2.86,1.75-4.24,1.38a3.14,3.14,0,0,1-1.88-1.69c-1.62-3,1.31-4.9,3.65-6.46C46,65.53,47.12,64.75,47,64s-1.62-.83-3.2-.94c-.7-.05-1.44-.11-2.14-.22,1.27,1.89,2.11,3.86.17,5.49a2.55,2.55,0,0,1-1.62.69,1.84,1.84,0,0,1-.33,0c-1.44-.27-2.51-2.25-3.55-4.16-.88-1.64-1.72-3.19-2.65-3.38s-1.39,1.16-1.82,2.75a10.84,10.84,0,0,1-1,2.71l6,47.14-.25,0L30.68,67.27a2,2,0,0,1-2.24.75l-.07,0a4.45,4.45,0,0,1-2,2.49c.32,2.75-.35,4.23-1,5a3,3,0,0,1-1.43,1c-.7,2.8-2.39,3.79-3.88,3.79a2.6,2.6,0,0,1-.4,0A4.27,4.27,0,0,1,16.09,76c-4.28-3.08-2.5-8.52-2.29-9.09-3.07-7.5-1-12.31.64-14.55a23.6,23.6,0,0,0-3.22.83c-3.43,1.06-7.31,2.25-8.51-1.08s1.74-4.72,4.63-6c1.94-.83,3.77-1.62,4.35-3a1.2,1.2,0,0,0,0-1c-.34-.67-1.54-1-2.82-1.29-1.55-.39-3.15-.79-3.74-1.91a2.6,2.6,0,0,1,0-2.2C6.76,32.56,16.33,34.8,20.52,36a4.27,4.27,0,0,1,.67-.86,7.35,7.35,0,0,1,1.69-1.3,10.81,10.81,0,0,1,1-1.63,2,2,0,0,1-.77.15c-1.26,0-2-1.54-2.74-3s-1.59-3.26-3-3A9.07,9.07,0,0,0,14,28.45c-2,1.67-4.14,3.4-5.93,1.61-1.59-1.59-.31-3.5.92-5.35,1-1.45,2-2.95,1.5-4.21s-2.3-1.33-4.23-1.38C4,19.07,1.64,19,1.43,16.81,1.2,14.31,4.18,14,7.06,13.65c1.87-.21,3.8-.42,4.65-1.25a1.4,1.4,0,0,0,.57-1c0-.47-.44-.88-1-1.36A3.91,3.91,0,0,1,9.67,6.74a2.38,2.38,0,0,1,1.68-2.11c2.27-.82,6.6.42,11.15,5a9.68,9.68,0,0,1,1.06,1.3l-1.2-9.49.25,0,1.26,10c.11.16.21.33.31.5L27,15.69c5.62.72,6.13,4.22,6.17,5h.08c3.51,0,4.49,3.52,4.62,4.09a7.32,7.32,0,0,1,1.59.64l1-.07c2.28-.15,4.43-.29,4.61-1.68.1-.79-1.07-1.47-2.31-2.2-1.55-.91-3.15-1.85-2.62-3.21a2.4,2.4,0,0,1,1.45-1.39C45,15.51,52.79,19.28,54.13,20L48.42,4.48l.24-.08,5.88,15.94a54,54,0,0,1,4.22,7.46,9.14,9.14,0,0,1,5.94,4.11,7.76,7.76,0,0,1,1.82.63,14,14,0,0,1,7.86-4.94c2.09-.44,3.5-.27,4.21.51,1,1.08.35,3.07,0,4.26s-.66,2.29,0,3,2.06,1,4.32.7a10.7,10.7,0,0,1,3.07,0,20.72,20.72,0,0,1,1.94-2.47A3.19,3.19,0,0,0,89,31.4c0-.95-.66-1.42-1.47-2-1-.69-2.19-1.47-1.94-3.39.13-1,1.24-1.88,3-2.3a13.89,13.89,0,0,1,6.39.17,10.2,10.2,0,0,1,4.72,2.56l.16-1.26h0L97.69,11.57l.25,0,2.6,15.86c1.3-.25,12.56-2.24,14.74,1.27,1.32,2.13-.36,3.57-1.84,4.84-1.09.93-2.12,1.8-1.78,2.8s2.21.93,4.23,1c2.37,0,5.07.09,6.35,1.47a3.07,3.07,0,0,1,.74,2.34c-.2,3.66-2.84,3.78-5,3.87C116.53,45,115.62,45.09,115.51,45.94Zm-71.4,18.6.65.06-.52.36C44.2,64.82,44.16,64.68,44.11,64.54Z"/><path class="cls-1" d="M100,26.71c.09.1.17.22.26.33L100.06,26Z"/><path class="cls-1" d="M59.4,34.22c-1.33,1.4-2.68.35-4.11-.77-1.22-1-2.62-2.06-4.19-1.72s-1.46,2.31-1.36,4.4c.07,1.65.15,3.36-.68,4.22a2,2,0,0,1-1.54.57h-.23a5.07,5.07,0,0,1,2,3.05,3.68,3.68,0,0,1-1,3.29,4,4,0,0,1-2.82,1.18,3.43,3.43,0,0,1-.56,0,5.24,5.24,0,0,1-2.46-1.12,7.47,7.47,0,0,1-1.2.33,1.56,1.56,0,0,1,.23,1.2c-.25.89-1.48,1.32-2.67,1.75s-2.36.84-2.2,1.63,2.22.85,4.38.87c2.36,0,5,0,6.07,1.13a1.68,1.68,0,0,1,.46,1.27,2,2,0,0,1-.3,1h1.24c2.16.06,4.29.27,5.9.46A11.6,11.6,0,0,1,57,53.08a9.55,9.55,0,0,1,2.36-7.58,8.45,8.45,0,0,1,2.2-1.68c.11-.61.24-1.22.4-1.84l-.09-1Zm.92,8.7a9.86,9.86,0,0,0-2,1.6,10.79,10.79,0,0,0-2.78,8,13,13,0,0,0-2,2.91c-1.61-.18-3.15-.29-4.57-.34a3.1,3.1,0,0,0-.85-1.91c-1.45-1.52-4.31-1.55-7.08-1.57h-1c1.2-.47,2.45-1.11,2.82-2.42a6.46,6.46,0,0,0,1.86.59,5,5,0,0,0,.77.06,5.42,5.42,0,0,0,3.83-1.61,5.08,5.08,0,0,0,1.38-4.52,5.54,5.54,0,0,0-.89-2.16,1.39,1.39,0,0,0,.25-.23c1.24-1.29,1.15-3.41,1.06-5.27,0-.86-.12-2.64.25-2.94a1.43,1.43,0,0,1,.29,0,5.47,5.47,0,0,1,2.73,1.47A6.12,6.12,0,0,0,58,36.31a3.15,3.15,0,0,0,.61-.06l1.86,5.06,0,.55C60.47,42.2,60.39,42.55,60.32,42.92Z"/><path class="cls-1" d="M106,62.15l-.77-4.72a11.64,11.64,0,0,1-1.37,3.83C104.21,61.39,105,61.7,106,62.15Z"/><polygon class="cls-1" points="104.57 53.45 104.56 53.46 104.57 53.47 104.57 53.45"/><path class="cls-1" d="M36.69,44.54C30.3,43,30.56,35,30.63,33.85a3,3,0,0,1-2.31-1.12c-1.07-1.41-.65-3.66-.56-4.09-2-2.07-.39-4.74,0-5.29a3.6,3.6,0,0,1-.89-1.13,20.89,20.89,0,0,1-.72,7L28,44.25a32.72,32.72,0,0,1,8.77.58C36.74,44.71,36.71,44.6,36.69,44.54Zm-6.3-1.78-1.13,0-1-8.24a4.15,4.15,0,0,0,1,.46,13.21,13.21,0,0,0,2.38,7.78Z"/></svg>