<svg id="圖層_1" data-name="圖層 1" xmlns="http://www.w3.org/2000/svg" viewBox="0 0 127.35 109.07"><defs><style>.cls-1{fill:#fff;}</style></defs><title>0</title><path class="cls-1" d="M35.94,59.51c.67,0,1.38.09,2.09.16a25.47,25.47,0,0,0,2.79.18,7.86,7.86,0,0,0,3.77-1,64.13,64.13,0,0,0-2.49-7.81A15,15,0,0,1,35.94,59.51Zm4.8-1.07c-.41,0-.82,0-1.23,0A16.11,16.11,0,0,0,42,55c.33,1,.64,2,.91,3.07A6.14,6.14,0,0,1,40.74,58.44Z"/><path class="cls-1" d="M95.81,45.5a4.36,4.36,0,0,1-1.71-1.23,3.48,3.48,0,0,1,0,.36c-.07.56-.14,1.15-.19,1.74a5.69,5.69,0,0,1,.08,2.52,3.73,3.73,0,0,0,1,2.1c.84.84,2.2,1.11,4.17.82a19,19,0,0,1,.92-4.7c.12-.35.25-.7.38-1-.36,0-.72.05-1.08.05A9.14,9.14,0,0,1,95.81,45.5Zm2,5h-.11A2.48,2.48,0,0,1,95.89,50a2.21,2.21,0,0,1-.51-1.11,7.11,7.11,0,0,0,0-2,9.73,9.73,0,0,0,3,.64A20.9,20.9,0,0,0,97.77,50.5Z"/><path class="cls-1" d="M126.71,37.12l-.15-.1c-4.73-3.11-9.09-4.83-13-5.11a26.2,26.2,0,0,0,4.11-9.73l0-.17a1.38,1.38,0,0,0-.38-1.22,1.41,1.41,0,0,0-1-.43h-.21l-.16,0c-.12,0-10.28,1.54-14.24,8.72a8.93,8.93,0,0,0-2.38-2.73c2.06-2.84,4-7.61,3.75-15.34v-.21a1.39,1.39,0,0,0-.73-1.19,1.37,1.37,0,0,0-.68-.17,1.41,1.41,0,0,0-.72.19l-.17.1a26.17,26.17,0,0,0-8.66,8.9,19.32,19.32,0,0,0-10.3-8l-.13,0a1.48,1.48,0,0,0-.46-.08,1.43,1.43,0,0,0-.64.15,1.41,1.41,0,0,0-.72.85l0,.13a20,20,0,0,0-.69,5.66c-.14-.29-.29-.58-.46-.87a8.75,8.75,0,0,0-6.32-4.42A9.49,9.49,0,0,0,71,12a9.66,9.66,0,0,0-2.57.35C68.7,9.06,67.9,5.26,66,1L65.93.84a1.4,1.4,0,0,0-1-.81l-.29,0a1.44,1.44,0,0,0-1,.36l-.13.12c-.07.06-6.93,6.28-6.78,13,0,.26,0,.52,0,.78h-.4a10.74,10.74,0,0,0-4,.75,14.43,14.43,0,0,0-6.91,6.48h0a9.23,9.23,0,0,0-1.91-.24,5.42,5.42,0,0,0-1.69.26,4.9,4.9,0,0,0-2.21,1.46,13.81,13.81,0,0,0-1.82.3c1.73-3.51,2.12-8.16,1.15-13.86l0-.16a1.41,1.41,0,0,0-.73-1A1.34,1.34,0,0,0,37.63,8a1.43,1.43,0,0,0-.58.12l-.16.08a26.28,26.28,0,0,0-7.48,5.44C27.56,10,24.18,6.88,19.33,4.5l-.12-.06a1.37,1.37,0,0,0-1.16,0,1.37,1.37,0,0,0-.8.83l-.05.13a23.84,23.84,0,0,0-.73,11.69,6.75,6.75,0,0,0-2.33,1.29c-2.94,2.45-2.91,5.21-2.48,7.63h-.58a22.12,22.12,0,0,0-9.24,2.19l-.15.07a1.42,1.42,0,0,0-.51,2.18l.11.13a24.15,24.15,0,0,0,5,4.33A15.93,15.93,0,0,0,.18,41.08l0,.1A1.43,1.43,0,0,0,.74,43l.11.06a21.79,21.79,0,0,0,9,2.81c-.44,3.26.68,6.66,3.36,10.13l.08.1a1.4,1.4,0,0,0,1.94.28l.11-.08a17.11,17.11,0,0,0,4.81-5.7,24.41,24.41,0,0,0,5,1,18.59,18.59,0,0,0-1.82,5.71v.13a1.39,1.39,0,0,0,.32,1.07l.05,0a18.93,18.93,0,0,0-3.84,1.69l-.13.08a1.43,1.43,0,0,0-.29,2.15l.09.11c3.87,4.31,8,6.49,12.12,6.49h.1a12.59,12.59,0,0,0,1.92-.18,18.63,18.63,0,0,1,1.69,1.74,23.33,23.33,0,0,1,1.72,2.39c1.23,1.9,2.4,3.69,5.92,3.69h.1l.42,0a10.85,10.85,0,0,0,2.77,5.52l.09.1a1.42,1.42,0,0,0,1,.47h0a1.41,1.41,0,0,0,1-.42l.1-.09a11.92,11.92,0,0,0,1.46-2c1.12,2.71,2.31,5.27,3.54,7.66,5,9.74,10.74,16.57,17,20.3a4.5,4.5,0,0,0,3.57.49,4.49,4.49,0,0,0,2.81-2.21,4.57,4.57,0,0,0-.42-5c-.58-.74-1.44-1.87-2.43-3.31A88.79,88.79,0,0,0,87.7,76.13l.69-1.68C90.75,68.72,93,63.31,97.83,61c.39-.19.76-.37,1.12-.56a29.6,29.6,0,0,0,4.38,7.85l.09.12a1.45,1.45,0,0,0,1.07.55h.06a1.41,1.41,0,0,0,1-.47l.1-.11a29,29,0,0,0,5.15-9,21.94,21.94,0,0,0,6.22,2.92l.15,0a1.39,1.39,0,0,0,.4.06,1.46,1.46,0,0,0,.81-.25,1.43,1.43,0,0,0,.6-1.06l0-.14a31.51,31.51,0,0,0-1-9.2,24,24,0,0,0-3.29-7.37c6.44-.44,11.85-4.82,11.9-4.86l.13-.11a1.4,1.4,0,0,0,.52-1.17A1.42,1.42,0,0,0,126.71,37.12ZM80,22.52a13.61,13.61,0,0,0,1.32,2.86l-.35.19a4.57,4.57,0,0,1-1.9.55A11.7,11.7,0,0,0,80,22.52Zm45.8,15.89c-.06.05-5.68,4.58-12,4.58q-.65,0-1.29-.06l-.75-.12a21.15,21.15,0,0,1,5,9.29,29.23,29.23,0,0,1,.92,8.72V61l-.15,0a19,19,0,0,1-7.38-4c-.12.45-.24.9-.37,1.33a28.06,28.06,0,0,1-5.07,9.11l-.1.11-.1-.12a27.27,27.27,0,0,1-4.66-9c-.82.44-1.67.88-2.57,1.31-5.35,2.58-7.68,8.23-10.14,14.22l-.69,1.68A88.4,88.4,0,0,1,72.32,98.17c1.26,1.89,2.37,3.36,3.09,4.27a3.16,3.16,0,0,1-1.65,5,3.46,3.46,0,0,1-.84.11,3.15,3.15,0,0,1-1.63-.45c-6-3.6-11.59-10.23-16.48-19.74a104.74,104.74,0,0,1-4.75-10.72,11.33,11.33,0,0,1-2.52,4.66l-.1.1-.09-.1a8.62,8.62,0,0,1-2.48-6.37,4.15,4.15,0,0,1-1.78.39H43c-2.75,0-3.54-1.21-4.73-3a24.73,24.73,0,0,0-1.82-2.53,26.4,26.4,0,0,0-2.35-2.37,10.51,10.51,0,0,1-2.36.3h-.09c-3.75,0-7.47-2-11.06-6l-.1-.11.13-.08A18.25,18.25,0,0,1,30.7,59.09a26,26,0,0,1,.53-2.55c.13-.46.28-1,.47-1.51a8.53,8.53,0,0,1-6.19,2.61c-.21,0-.43,0-.64,0h-.14l0-.13A17,17,0,0,1,27.81,50a5.08,5.08,0,0,1-1.58.25l-.41,0a22.18,22.18,0,0,1-6.41-1.39,15.68,15.68,0,0,1-4.87,6.33l-.1.07-.08-.09c-2.61-3.39-3.61-6.66-3-9.72a8.73,8.73,0,0,1,.28-1c-.35,0-.7,0-1.06,0a19.6,19.6,0,0,1-9.1-2.66l-.1-.06.05-.1a14.2,14.2,0,0,1,8-6.67,22.65,22.65,0,0,1-7.13-5.38l-.1-.13.15-.06a19.29,19.29,0,0,1,11-1.89c0-.17-.07-.34-.11-.51-.55-2.57-1.13-5.23,1.73-7.61a4.71,4.71,0,0,1,3.2-1.21c-1.93-5.95.26-12.31.29-12.38l0-.13.13.06c5.33,2.62,8.75,6.1,10.17,10.34,0,.12.07.23.1.35C32,12,37.42,9.55,37.48,9.52l.15-.06,0,.16c1.12,6.63.34,11.68-2.31,15a9.57,9.57,0,0,1-1.72,1.71c0,.12,0,.22,0,.34a12.45,12.45,0,0,1,6.83-2.39,3.6,3.6,0,0,1,1.89-1.47,5.47,5.47,0,0,1,2.9,0c.34.07.69.14,1.07.19C47,21.67,49.09,17.83,53,16.3a9.85,9.85,0,0,1,5.69-.42,7.77,7.77,0,0,1-.46-2.46c-.14-6,6.24-11.83,6.31-11.89l.13-.11.07.15c2.33,5.24,2.9,9.63,1.76,13.1a2.92,2.92,0,0,0,.36-.17,8.28,8.28,0,0,1,5.33-1,7.4,7.4,0,0,1,5.32,3.74,9.49,9.49,0,0,1-.8,10.23l.32,0a7.66,7.66,0,0,0,4.65-.66l.6-.33,1.15-.62a10.81,10.81,0,0,1-.82-1.15c-3.45-5.57-1.39-12.52-1.37-12.59l0-.12.12,0a17.84,17.84,0,0,1,10.89,9.86c2.25-6.72,9.15-10.86,9.25-10.91l.18-.11v.21c.3,8.33-2,13-4.47,15.65a7.41,7.41,0,0,1,3.4,3.29,3.59,3.59,0,0,0,1.61,1.42c2.79-7.95,13.81-9.64,13.94-9.66l.17,0,0,.17c0,.11-1.33,7.47-6,11.53,4.34-.77,9.56.82,15.52,4.74l.14.09Z"/><path class="cls-1" d="M73.34,68.83a11.61,11.61,0,0,1-3.06-.39l-.1,0,0-.11a14,14,0,0,1,2.68-6A14.58,14.58,0,0,1,71,61.58a17.28,17.28,0,0,1-3.14-1.92l-.11-.09.1-.1a14.23,14.23,0,0,1,4.47-3.07,14.85,14.85,0,0,1-5.16-4A23.23,23.23,0,0,1,65.39,50c-.59-.13-1.2-.29-1.82-.47-.18,2.89-.45,5.84-.72,8.84-.24,2.54-.48,5.16-.66,7.76-.56,7.91,1.47,16.38,6,25.19C71.88,84,75.66,75.79,79.49,66.73a7.25,7.25,0,0,1-.83.63A9.67,9.67,0,0,1,73.34,68.83Zm-5.1,19.24c-3.56-7.65-5.12-15-4.64-21.89.19-2.59.43-5.2.66-7.73s.42-4.67.58-6.79c.4.56.82,1.1,1.25,1.61a18.82,18.82,0,0,0,3.33,3.1,17.59,17.59,0,0,0-2.56,2.1l-.1.1a1.4,1.4,0,0,0,.11,2.1l.12.1a18.5,18.5,0,0,0,3.41,2.09l.3.13a16.16,16.16,0,0,0-1.89,5l0,.11a1.42,1.42,0,0,0,1,1.65l.09,0a12.59,12.59,0,0,0,3.49.46,12.4,12.4,0,0,0,3.29-.43C73.78,76.41,71,82.53,68.24,88.07Z"/><path class="cls-1" d="M63.69,47.39a15.56,15.56,0,0,1,6.82-6.82,12.17,12.17,0,0,1,6.22-1c-.61-1.38-1.14-2.57-2.16-2.83a3.74,3.74,0,0,1-.85-.36q-1.27.12-2.46.12a15.25,15.25,0,0,1-8.05-1.93A65.82,65.82,0,0,1,63.69,47.39Zm7.57-9.52c.68,0,1.39,0,2.18-.09a5.14,5.14,0,0,0,.77.28l.11,0a13.27,13.27,0,0,0-4.41,1.17,14.78,14.78,0,0,0-4.7,3.5c0-2.12-.1-4.06-.27-5.89A18.89,18.89,0,0,0,71.26,37.87Z"/><path class="cls-1" d="M53.8,49a11.54,11.54,0,0,1-4.51-1c.25.54.48,1.06.7,1.56,1.84,4.15,3,6.71,5.37,6.71h.33a2.23,2.23,0,0,0,1.63-.82c1.15-1.46.75-4.64.35-7.52A6.9,6.9,0,0,1,53.8,49Zm2.41,5.57a.85.85,0,0,1-.64.29h-.21c-1.25,0-2.14-1.58-3.52-4.62a12.08,12.08,0,0,0,2,.17,9.15,9.15,0,0,0,2.71-.39C56.71,51.87,56.79,53.86,56.21,54.6Z"/></svg>