<svg id="圖層_1" data-name="圖層 1" xmlns="http://www.w3.org/2000/svg" viewBox="0 0 105.45 116.9"><defs><style>.cls-1{fill:#fff;}</style></defs><title>0</title><path class="cls-1" d="M45.44,20.81v-.24c-.17-.05-.36-.1-.57-.14Z"/><path class="cls-1" d="M46.91,19.66c-1-.57-2.86-1.08-6-.64a30.64,30.64,0,0,0,6.33,4.51A11.57,11.57,0,0,1,46.91,19.66Zm-1.47,1.15-.57-.38c.21,0,.4.09.57.14Z"/><path class="cls-1" d="M43.17,30c0,.22,0,.43,0,.65a6.3,6.3,0,0,1-1.11,3.58,16,16,0,0,0,6.52.47l1.28-.09c-1.13-.87-2.4-1.71-3.7-2.56C45.18,31.37,44.16,30.7,43.17,30Zm1,3.27c.08-.24.15-.47.21-.72l1.28.85A13.77,13.77,0,0,1,44.17,33.26Z"/><path class="cls-1" d="M56.14,43.65a6.43,6.43,0,0,1-4.7,1.66h-.08a7,7,0,0,1,.07.93A6.33,6.33,0,0,1,41,51.08a8.08,8.08,0,0,1-3.12,2.11c0,.08,0,.15,0,.23a47.23,47.23,0,0,0,8.42,1h.84c2.55,0,4.67,1.58,6.73,3.11l.47.36a11.43,11.43,0,0,1,0-3.08,12,12,0,0,1,4.26-7.53l-.12-.16C57.72,45.92,56.88,44.75,56.14,43.65ZM53,54.62,53,55.1a11.51,11.51,0,0,0-4.33-2,7.75,7.75,0,0,0,4.2-6.5,7.88,7.88,0,0,0,3-1l1,1.43A13.09,13.09,0,0,0,53,54.62Z"/><path class="cls-1" d="M70.26,23.22c0,.11,0,.23,0,.35a6.33,6.33,0,0,1-9.45,5.51,27.33,27.33,0,0,1,.25,4.75c.72,1.09,1.36,2.22,2,3.33s1.12,1.93,1.72,2.89a12,12,0,0,1,1.35-2.4,12.11,12.11,0,0,1,7.35-4.78c0-1.57.18-3.16.33-4.8a61.41,61.41,0,0,0,.34-8.79A13.41,13.41,0,0,1,70.26,23.22Zm2.16,4.72c-.12,1.26-.24,2.54-.3,3.83A13.21,13.21,0,0,0,65,36.82c-.09.13-.18.25-.26.38-.16-.26-.3-.51-.43-.74-.54-.94-1.14-2-1.8-3,0-.74,0-1.49,0-2.26a7.46,7.46,0,0,0,1.49.15A7.77,7.77,0,0,0,71.69,24c.37-.28.73-.57,1.08-.88C72.7,24.69,72.57,26.28,72.42,27.94Z"/><path class="cls-1" d="M104.62,48.52l-.33-.15c-1.52-.69-5.79-3-7.23-5.56a16.6,16.6,0,0,0-2-2.71,15.74,15.74,0,0,0,5.74,1c.39,0,.79,0,1.2,0h.3a1.43,1.43,0,0,0,.86-2.48l-.22-.19a14.38,14.38,0,0,1-3.85-7,13,13,0,0,0-.86-2.75,12.31,12.31,0,0,0,2.67-2.07l.17-.2a1.41,1.41,0,0,0-1-2.35h-.27a10.72,10.72,0,0,1-3.64-.73,20.85,20.85,0,0,0,4.62-2.94l.57-.51a1.42,1.42,0,0,0-1-2.47,1.38,1.38,0,0,0-.56.12l-.7.3a1.15,1.15,0,0,1-.44.08c-1.39,0-3.68-1.57-5.9-3.08l-1.34-.91A14.28,14.28,0,0,0,94,8.74l.11-.45a1.42,1.42,0,0,0-.72-1.56,1.45,1.45,0,0,0-.67-.17,1.42,1.42,0,0,0-1,.45l-.28.3A3.73,3.73,0,0,1,89.89,8a9.85,9.85,0,0,1-2.3.24,22,22,0,0,1-5.41-.79,15.82,15.82,0,0,0-4.05-.6,10.47,10.47,0,0,0-1.28.08,7.75,7.75,0,1,0-11.77,7.45,14.69,14.69,0,0,0-.15,1.53,6.37,6.37,0,0,0-1-.07,7.75,7.75,0,0,0-5.32,2.12q-.33-.53-.66-1c-2.21-3-4.49-3.63-6-3.63a5.42,5.42,0,0,0-.89.07,6.08,6.08,0,0,0-.74.16,6.79,6.79,0,0,0-1.91-3.35,7.11,7.11,0,0,0-5.13-2.25c-2.42,0-4.76,1.2-7.25,2.47-2.73,1.39-5.82,3-9.26,3h-.46l-.42,0a1.42,1.42,0,0,0-.9,2.52l.28.23a22.15,22.15,0,0,0,5,2.88,7.67,7.67,0,0,0-3,3.41c-.93,2.15-6.32,4.23-9.5,5l-.38.1a1.42,1.42,0,0,0-.17,2.7l.37.14a34.48,34.48,0,0,0,11.38,2h.32a7.75,7.75,0,0,0,2.26,4c-.13.1-.24.2-.35.3C29.58,38,27.89,39.43,23,39.43c-.63,0-1.32,0-2-.07l-.35,0a1.41,1.41,0,0,0-1.17,2.21l.14.22a15.06,15.06,0,0,0,2.23,2.4,10.62,10.62,0,0,1-1.66-.73,64.65,64.65,0,0,1-7.48-5.39l-.17-.15a1.44,1.44,0,0,0-.91-.32,1.37,1.37,0,0,0-.52.1,1.39,1.39,0,0,0-.88,1.14l0,.22a26.43,26.43,0,0,0,.35,7.7,7.74,7.74,0,0,0-3.19,8.8A26.29,26.29,0,0,1,1,58.93L.8,59a1.41,1.41,0,0,0-.52,2.37l.14.14a17.37,17.37,0,0,0,11.16,4.11,18.09,18.09,0,0,0,2.32-.16,17.63,17.63,0,0,0,4.47-1.18,19.88,19.88,0,0,1-2.16,8.48L16.1,73a1.42,1.42,0,0,0,.12,1.46,1.39,1.39,0,0,0,1.15.6l.2,0,.23,0c.09,0,8.87-1.32,12.2-9.4a14.59,14.59,0,0,0,1.7-.48,8.11,8.11,0,0,0,12.68,5.14c.17.28.34.55.52.82a15.08,15.08,0,0,0,12.81,7.2,11.35,11.35,0,0,0,2.24-.2l.3-.07a1.41,1.41,0,0,0,.44-2.58l-.26-.16c-2.37-1.48-2.86-3.63-3.6-6.89-.2-.87-.4-1.77-.67-2.74a25.41,25.41,0,0,0,9.59,2.08h.75c5.57,0,11.89,0,16.28,12.82a75,75,0,0,1,4.11,27.31c-.32,3.49.89,6.29,3.39,7.88a7.69,7.69,0,0,0,4.12,1.18h0a7.87,7.87,0,0,0,4-1.08,8.24,8.24,0,0,0,3.91-7.87,185.38,185.38,0,0,0-2.7-27.41c-2.26-12-5.38-19.34-12.51-29.3.39.12.8.23,1.2.33a29,29,0,0,0,7,.84,34.74,34.74,0,0,0,8.71-1.14l.34-.09a1.41,1.41,0,0,0,.23-2.66Zm-.93,1.38A33.37,33.37,0,0,1,95.34,51a27.75,27.75,0,0,1-6.7-.79A21.63,21.63,0,0,1,83.13,48a27.27,27.27,0,0,0,1.57,2.33C92.58,61,95.87,68.42,98.22,80.8A186.56,186.56,0,0,1,100.9,108a6.92,6.92,0,0,1-3.21,6.63,6.55,6.55,0,0,1-3.29.88,6.29,6.29,0,0,1-3.35-1c-2-1.3-3-3.63-2.75-6.56a76,76,0,0,0-4.18-27.9C79.5,66.56,72.63,66.29,66.5,66.29h-.75c-4.4,0-8.17-1.53-12.07-3.24a13.29,13.29,0,0,1,.93,2.29c.34,1.18.59,2.28.84,3.35.76,3.34,1.36,6,4.23,7.77l.26.16-.3.07a10.59,10.59,0,0,1-1.93.16,13.67,13.67,0,0,1-11.63-6.57A22.34,22.34,0,0,1,44.75,68,6.68,6.68,0,0,1,33,63.64c0-.23,0-.46,0-.68A11.87,11.87,0,0,1,29,64.34c-2.78,7.94-11.26,9.23-11.35,9.25l-.24,0,.11-.22a22.2,22.2,0,0,0,2.34-9.7c0-.63.09-1.26.15-1.88a14.36,14.36,0,0,1-6.26,2.23,15.92,15.92,0,0,1-2.13.15A16,16,0,0,1,1.4,60.48l-.15-.14.2-.07A26.36,26.36,0,0,0,9,56a6.29,6.29,0,0,1,3.11-8.52,25.1,25.1,0,0,1-.57-8.25l0-.23.18.15a66.5,66.5,0,0,0,7.7,5.55A17.82,17.82,0,0,0,22.86,46l.52.16a9.68,9.68,0,0,1,1.84-1.23,15.72,15.72,0,0,1-4.49-4l-.14-.22.26,0c7.09.49,9.32-1.42,11.29-3.11A14.68,14.68,0,0,1,34,36.27a6.34,6.34,0,0,1-3.43-5.4c-.51,0-1,.05-1.55.05A33.61,33.61,0,0,1,18.12,29l-.37-.15.39-.09c.08,0,8.91-2.27,10.45-5.85a6.15,6.15,0,0,1,3.83-3.4,5.71,5.71,0,0,1,1.06-.22c-.32-.38-.62-.7-.89-1A22.08,22.08,0,0,1,26.17,15l-.28-.24.37,0c4,.16,7.41-1.58,10.42-3.11,4-2,7.37-3.76,10.74-.47a6.21,6.21,0,0,1,1.76,4.36,5.54,5.54,0,0,1,2.11-.78c2-.31,3.86.73,5.53,3a16.75,16.75,0,0,1,1.58,2.73A6.35,6.35,0,0,1,64,17.23a6.24,6.24,0,0,1,2.41.48c0-.14,0-.27,0-.42a13.27,13.27,0,0,1,.32-3.71,6.33,6.33,0,1,1,8.81-5.83,6.92,6.92,0,0,1-.09,1c1.18-.57,3.15-.87,6.42,0,4.25,1.1,6.92.92,8.41.56a4.85,4.85,0,0,0,2.23-1L92.76,8l-.1.45a12.75,12.75,0,0,1-3.37,5.76c.9.56,1.82,1.18,2.72,1.8,3,2,5.78,4,7.7,3.13l.7-.3-.57.51a21.1,21.1,0,0,1-7,3.77,11.88,11.88,0,0,0,6.88,2.36H100l-.17.2a12.12,12.12,0,0,1-3.53,2.44,9.94,9.94,0,0,1,1.39,3.59A15.66,15.66,0,0,0,102,39.43l.23.2-.31,0q-.56,0-1.11,0c-5.15,0-8.89-2.13-10.72-6a6.32,6.32,0,0,1-1.63,3,19.78,19.78,0,0,1,7.36,6.92c2,3.46,7.82,6.13,7.88,6.15l.32.15Z"/></svg>