<svg id="圖層_1" data-name="圖層 1" xmlns="http://www.w3.org/2000/svg" viewBox="0 0 136.37 71.04"><defs><style>.cls-1{fill:#fff;}</style></defs><title>0</title><path class="cls-1" d="M95.85,46.88l.49,0c-.09-.13-.18-.26-.26-.4C96,46.63,95.92,46.75,95.85,46.88Z"/><path class="cls-1" d="M55.19,58.05h0a4.72,4.72,0,0,0,1.23-.28,10.83,10.83,0,0,1,1.61-.4,10.43,10.43,0,0,0-1.66-.14,7.49,7.49,0,0,0-1.53.15A2.35,2.35,0,0,0,55.19,58.05Z"/><path class="cls-1" d="M76.32,33.13l.31-.39a1.69,1.69,0,0,1-.5.08A3.21,3.21,0,0,0,76.32,33.13Z"/><path class="cls-1" d="M13.68,46.43h-.11s-.09.12-.15.2l-.1.12a6.66,6.66,0,0,0,1.22.18A1.21,1.21,0,0,0,13.68,46.43Z"/><path class="cls-1" d="M135,53h-.29a1.4,1.4,0,0,0-1,.39,1.37,1.37,0,0,0-.45,1,7,7,0,0,1-.61,2.7,2.39,2.39,0,0,0-2.28-1.87,2.59,2.59,0,0,0-.47,0,3.21,3.21,0,0,0-2.4,2.35,4.74,4.74,0,0,1-.3.65l-.08,0a5.6,5.6,0,0,1-.35-.8c-.34-.89-1-2.54-2.84-2.54l-.42,0a3.44,3.44,0,0,0-2.62,2c-.12-.34-.27-.73-.46-1.15a4.83,4.83,0,0,0-.3-.55,20.06,20.06,0,0,1,4.52-.9,2.13,2.13,0,0,0,1.47-.8,2.1,2.1,0,0,0,.42-1.62,9.56,9.56,0,0,0-2.68-5.29,8.07,8.07,0,0,0,4-3.9,3.18,3.18,0,0,1,.33-.55,1,1,0,0,1,.22,0,.47.47,0,0,1,.1.2,1.41,1.41,0,0,0,1.4,1.24h.17l.25,0a1.41,1.41,0,0,0,1.24-1.57,3.48,3.48,0,0,0-1.28-2.27,3.16,3.16,0,0,0-2-.64,4.08,4.08,0,0,0-.59,0,3.44,3.44,0,0,0-2.61,2.17A5.15,5.15,0,0,1,122.45,44a7.77,7.77,0,0,1-1.9.65l-.22-.08a5.29,5.29,0,0,1-3-2.11,8.16,8.16,0,0,0,3.64-3,6.31,6.31,0,0,1,4.94-3.39,2.11,2.11,0,0,0,1.92-2.31,13.35,13.35,0,0,1,3.31-10.12,2.1,2.1,0,0,0-1.59-3.48,1.47,1.47,0,0,0-.36,0,21.32,21.32,0,0,1-3.57.32A16.56,16.56,0,0,1,123,20.3a8.7,8.7,0,0,0-.82-2.65,1.42,1.42,0,0,0-1.26-.77,1.39,1.39,0,0,0-.65.16l-.22.12a1.42,1.42,0,0,0-.61,1.9l.07.16a10.42,10.42,0,0,1-3.93-3.14,2.11,2.11,0,0,0-1.47-.85h-.22a2.1,2.1,0,0,0-1.36.49c-2.86,2.39-4.66,2.89-5.67,2.89a3,3,0,0,1-.43,0,2.21,2.21,0,0,1-1.55-1.05,2,2,0,0,0-1.39-.95,1.72,1.72,0,0,0-.39,0,2.1,2.1,0,0,0-1.29.44,18.36,18.36,0,0,0-5.39,8,3.24,3.24,0,0,1-1.59-.82,3,3,0,0,1-.77-2.2,2.11,2.11,0,0,0-2-2.15l-1.32,0a20.94,20.94,0,0,0-6.1.78c0-.26,0-.51,0-.74a5.9,5.9,0,0,1,.11-2.51l0,0A1.41,1.41,0,0,0,85.9,18h.25a1.41,1.41,0,0,0,1.42-1.42,2.86,2.86,0,0,0-2.38-2.52,3,3,0,0,0-.58-.06,3,3,0,0,0-2.82,2.07,8.2,8.2,0,0,0-.35,4,11.78,11.78,0,0,1,0,2,7.65,7.65,0,0,0-.84.74,7.56,7.56,0,0,0-1-2.76,10.12,10.12,0,0,0-7.35-4.3,5.2,5.2,0,0,0-.08-5.19c-1.39-2.18-3.92-3.33-7.32-3.33a16.49,16.49,0,0,0-2.79.25,2.1,2.1,0,0,0-1.63,1.46c-1.36,4.36-7.71,5.26-9.62,5.44a2.1,2.1,0,0,0-1.2.51,2.5,2.5,0,0,1-1.4-.62c-.17-.26-.1-.57.22-1.41a3.41,3.41,0,0,0,0-3.3,2,2,0,0,0-1.35-.87,1.82,1.82,0,0,0-.32,0,3.63,3.63,0,0,0-2.2,1l-.18.14.08-.2c.26-.64.8-2-.34-2.92a2,2,0,0,0-1.28-.43,5.42,5.42,0,0,0-1.91.5,2,2,0,0,0-.42-2.31,2,2,0,0,0-1.41-.58,3.13,3.13,0,0,0-1.42.42,2.34,2.34,0,0,0-.39.22.44.44,0,0,1-.1-.08c-.16-.15.21-1,.66-1.52a1.44,1.44,0,0,0,.37-1,1.4,1.4,0,0,0-.48-1L37.56.74a1.42,1.42,0,0,0-.94-.35h-.1a1.43,1.43,0,0,0-1,.49c-1.47,1.71-2.19,4.16-.48,5.8a3.08,3.08,0,0,0,2.15.92h.06a2.56,2.56,0,0,0,.34,1.62,2.22,2.22,0,0,0,2,1.1A4.83,4.83,0,0,0,41.17,10a3,3,0,0,0,.88,2.59,2.45,2.45,0,0,0,1.76.75A3,3,0,0,0,45.15,13a3.73,3.73,0,0,0,.25,2.55A6,6,0,0,1,41,17a19.94,19.94,0,0,1-6-1.13,2,2,0,0,0-.68-.12,2.2,2.2,0,0,0-.94.22,2.13,2.13,0,0,0-1.06,1.24c-1.62,5.06-7.74,6-9.57,6.18a2.1,2.1,0,0,0-.89,3.89,17.11,17.11,0,0,1,5.46,4.92,17.65,17.65,0,0,0-3,3.12,19.44,19.44,0,0,1-2.88,3.06,5.74,5.74,0,0,1-.71,0,4.9,4.9,0,0,1-4.1-2.21A8.39,8.39,0,0,0,11.73,33a6.9,6.9,0,0,0-1.55-.18,4.92,4.92,0,0,0-1,.1,1.37,1.37,0,0,0-.9.62,1.35,1.35,0,0,0-.19,1.07l0,.25a1.44,1.44,0,0,0,.67.91,1.39,1.39,0,0,0,.72.19l.29,0c.05,0,.18,0,.38,0a5,5,0,0,1,3.93,2.23,8.94,8.94,0,0,0,3.06,2.62,20.74,20.74,0,0,1-2.22.68l-.23.06a1.43,1.43,0,0,0-1,1,1.37,1.37,0,0,0,.06.85H13.5a3.06,3.06,0,0,0-1.86.69,2.39,2.39,0,0,0-2.18-2.15H9.32a2,2,0,0,0-1.15.35A2.2,2.2,0,0,0,7,40.65a2.39,2.39,0,0,0-1.11-.27,3.6,3.6,0,0,0-2.47,1.29,1.44,1.44,0,0,0,0-1,1.49,1.49,0,0,0-.76-.8l-.22-.1a1.47,1.47,0,0,0-.58-.12,1.52,1.52,0,0,0-.51.09,1.49,1.49,0,0,0-.79.75,5,5,0,0,0-.29,3.73A2.5,2.5,0,0,0,1.8,45.54a2.33,2.33,0,0,0,.74.11A3.54,3.54,0,0,0,5,44.46c-.15,1.12-.15,2.75,1.51,3.32a2.36,2.36,0,0,0,.81.15,2.17,2.17,0,0,0,1-.24,2.51,2.51,0,0,0,1-.89,2.11,2.11,0,0,0,.51.57,6.36,6.36,0,0,0-.17,1.35c-.11,1.85-.31,5.31-2.8,7a2.1,2.1,0,0,0-.29,3.25c.85.82,2.6,3.32.68,8.87a2.13,2.13,0,0,0,.6,2.27,2.08,2.08,0,0,0,2.3.32A13,13,0,0,1,15.6,69a9.28,9.28,0,0,1,5.32,1.64,2.12,2.12,0,0,0,1.17.36,2.46,2.46,0,0,0,.4,0,2.08,2.08,0,0,0,1.35-.9c.77-1.15,3.64-4.93,8-5.17a2.13,2.13,0,0,0,1.86-1.35l.06-.16a7.32,7.32,0,0,1,4.75,3.13,2.13,2.13,0,0,0,1.35.88,2.56,2.56,0,0,0,.39,0,2.07,2.07,0,0,0,1.21-.38,10.27,10.27,0,0,1,5.85-1.86,10.38,10.38,0,0,1,2.9.42,2.32,2.32,0,0,0,.58.08,2.1,2.1,0,0,0,2.1-2.31,18.17,18.17,0,0,1-.07-3.34,3,3,0,0,0,2.37,1.06,7.32,7.32,0,0,0,2.1-.41,5.06,5.06,0,0,1,1.27-.3c.15,0,.18,0,.2,0,.22.19.22.56.11,1.49s-.31,2.74,1.29,3.62a2.62,2.62,0,0,0,1.28.33,5,5,0,0,0,2.77-1.17l.19-.12c0,.06,0,.11,0,.16a3.85,3.85,0,0,0,1,3.43,2.38,2.38,0,0,0,1.55.6,3.64,3.64,0,0,0,2.32-1.13l.06-.06a2.78,2.78,0,0,0,2.11,2.61,2.57,2.57,0,0,0,.67.09A2.61,2.61,0,0,0,74.3,69,2.37,2.37,0,0,0,76,70.51a1.86,1.86,0,0,0,.52.07,2,2,0,0,0,1.28-.46c1-.84,1.13-2.66,1-4a1.46,1.46,0,0,0-.48-1,1.41,1.41,0,0,0-.94-.36l-.34,0a1.42,1.42,0,0,0-1,.51,2.57,2.57,0,0,0-.94-.57,2.3,2.3,0,0,0-.68-.11,2.48,2.48,0,0,0-2.17,1.68,2.39,2.39,0,0,0-2-2.16,2.28,2.28,0,0,0-.45,0,3.65,3.65,0,0,0-2.33,1s0-.06,0-.09c.08-1,.19-2.52-1.1-3.45A2.33,2.33,0,0,0,65,61.13,4.68,4.68,0,0,0,62.5,62.2l-.55.37c0-.09,0-.18,0-.25a4.43,4.43,0,0,0-1.12-4.14,23.88,23.88,0,0,1,4.77,2.52,2.08,2.08,0,0,0,1.18.36,2.18,2.18,0,0,0,.63-.09,2.08,2.08,0,0,0,1.14-.87.61.61,0,0,1,0,.14,2.11,2.11,0,0,0,2.1,2,2.33,2.33,0,0,0,.53-.07,12.94,12.94,0,0,1,3.22-.45,5.4,5.4,0,0,1,3.35.92,2.14,2.14,0,0,0,1.31.45l.28,0a2.08,2.08,0,0,0,1.39-.81c.4-.55,1.67-1.8,4.65-1.8a14.78,14.78,0,0,1,3.5.46,2.22,2.22,0,0,0,.51.06,2.09,2.09,0,0,0,1.86-3.06c-.62-1.2-1.14-3.38-.14-6.94,0-.07,0-.14,0-.21a29.42,29.42,0,0,0,5.38.74c-.12.17-.26.35-.41.54a5.05,5.05,0,0,0-.78,4,5.28,5.28,0,0,0,2.27,3.62,17.22,17.22,0,0,1,3.09,2.78,2.1,2.1,0,0,0,1.54.67,2.14,2.14,0,0,0,1.48-.61,5.77,5.77,0,0,1,4.15-1.31,18.32,18.32,0,0,1,4.87.78,2,2,0,0,0,.59.08,2.07,2.07,0,0,0,2.09-2,4,4,0,0,1,1.8-3.24.74.74,0,0,1,.37.38,16.62,16.62,0,0,1,.62,1.65c.33,1,.85,2.58,2.63,2.58h.19c1.47-.09,2-1.46,2.3-2.27a6.47,6.47,0,0,1,.38-.88c.06.13.11.28.16.39.37,1,1.06,2.76,3.16,2.76h.11a3.21,3.21,0,0,0,2.92-2A2.19,2.19,0,0,0,132.2,61a2.28,2.28,0,0,0,.36,0c2.36-.35,3.72-3.59,3.8-6.46A1.41,1.41,0,0,0,135,53Zm-2.64,6.52c-.78.12-1-.67-1.12-1.36-.19-.87-.36-1.39-1-1.27s-.88.68-1.14,1.33-.67,1.67-1.92,1.72h-.07c-1.13,0-1.51-1-1.84-1.86s-.61-1.59-1.47-1.47c-1,.15-1.39,1.11-1.72,2-.25.68-.5,1.32-1.06,1.35h-.1c-.76,0-1-.62-1.29-1.62a18,18,0,0,0-.67-1.78,2.45,2.45,0,0,0-1.9-1.36,5.68,5.68,0,0,0-3,4.77.68.68,0,0,1-.88.63c-2.19-.65-7.59-1.87-10.4.88a.7.7,0,0,1-.49.2h0a.68.68,0,0,1-.48-.21,19.48,19.48,0,0,0-3.38-3,3.91,3.91,0,0,1-1.63-2.67,3.71,3.71,0,0,1,.51-2.87,7.79,7.79,0,0,0,1.59-2.83l-1.08,0a23.71,23.71,0,0,1-10.45-2.24,4.72,4.72,0,0,0,2.05,1.91.67.67,0,0,1,.38.82c-1.12,4-.48,6.54.25,8a.71.71,0,0,1-.08.75.67.67,0,0,1-.69.24c-6.28-1.53-8.83.79-9.63,1.86a.67.67,0,0,1-.44.26H79.1a.69.69,0,0,1-.44-.15c-2.43-1.87-6.26-1.13-7.8-.72a.69.69,0,0,1-.57-.11.67.67,0,0,1-.28-.52,7.57,7.57,0,0,0-1.71-4.29,14.6,14.6,0,0,1-.85,3.35.68.68,0,0,1-.43.4.52.52,0,0,1-.21,0,.66.66,0,0,1-.38-.12c-2-1.37-8.26-5.18-13.23-3.13a4.71,4.71,0,0,0,.89,2.54c.67.82,1.68.51,2.75.18s2.18-.67,3,.09.8,1.94.68,2.94-.19,1.63.43,2,1.51-.2,2.31-.75,1.61-1.11,2.26-.65.58,1.34.52,2.19-.13,1.6.38,2,1,.08,1.67-.53c.55-.48,1.18-1,1.89-.9s.82.82.88,1.5.12,1.4.91,1.6S73,68,73.36,67.23s.64-1.39,1.29-1.17.82.94,1,1.57.27,1.15.75,1.27a.34.34,0,0,0,.32-.07c.47-.39.48-2,.44-2.65h.25c0,.23.12,2.31-.54,2.86a.54.54,0,0,1-.37.13.52.52,0,0,1-.17,0c-.62-.16-.78-.82-.93-1.46s-.28-1.21-.8-1.39-.64.31-1,1-.82,1.78-1.83,1.52-1-1.08-1.1-1.82-.12-1.19-.67-1.28-1.15.38-1.68.85-1.32,1.13-2,.53-.54-1.4-.47-2.25.12-1.58-.41-2-1.22.14-2,.66-1.76,1.2-2.57.76-.66-1.29-.56-2.22.24-2-.59-2.72-1.81-.35-2.82,0-2.24.69-3-.26A4.89,4.89,0,0,1,53,56.52a7.62,7.62,0,0,0-.85.44,13.69,13.69,0,0,0-.6,6.59.68.68,0,0,1-.24.59.71.71,0,0,1-.64.14,11.64,11.64,0,0,0-10,1.64.61.61,0,0,1-.39.13h-.12a.71.71,0,0,1-.44-.29,9.24,9.24,0,0,0-6.88-3.93c-.17.52-.33,1-.44,1.26a.69.69,0,0,1-.61.44c-5.05.27-8.27,4.5-9.14,5.79a.68.68,0,0,1-.44.3h-.13a.7.7,0,0,1-.37-.11C17,66.3,12,67.89,9.45,69.12a.65.65,0,0,1-.74-.1.67.67,0,0,1-.2-.74c2.18-6.32,0-9.35-1-10.35a.71.71,0,0,1-.21-.56.66.66,0,0,1,.3-.5c3.07-2.06,3.31-6.12,3.43-8.07.05-.81.07-1.07.21-1.16a.16.16,0,0,1,.16,0,9,9,0,0,0,5.57.53c-.84-1.67-1.78-3.21-3.36-3.14a1.6,1.6,0,0,0-1.28.76,1.28,1.28,0,0,1-1.19.66c-.82-.07-.92-.87-1-1.57s-.21-1.27-.75-1.31h0c-.38,0-.57.62-.78,1.28s-.42,1.36-.89,1.6a.89.89,0,0,1-.7,0c-.84-.29-.67-1.33-.5-2.32s.29-1.73-.23-2-1.23.3-1.88,1S3,44.43,2.22,44.19a1.06,1.06,0,0,1-.67-.59A4,4,0,0,1,1.85,41l.23.1a3.84,3.84,0,0,0-.3,2.37A.81.81,0,0,0,2.3,44c.62.19,1.25-.43,1.85-1s1.4-1.4,2.17-1,.53,1.32.37,2.26-.31,1.82.33,2a.64.64,0,0,0,.51,0c.37-.19.57-.83.76-1.44s.47-1.5,1.08-1.46c.77.07.88.84,1,1.52s.22,1.31.79,1.36.71-.23,1-.56a1.8,1.8,0,0,1,1.47-.86h.12c1.61,0,2.56,1.49,3.4,3.14a8,8,0,0,0-.19-1.67A6.43,6.43,0,0,0,15.21,43L15,42.83l.23,0a18,18,0,0,0,6.24-2.73c-.3,0-.6.06-.88.06a6.61,6.61,0,0,1-5.42-2.87c-2.58-3.39-5.7-2.74-5.72-2.73l-.06-.25a5.05,5.05,0,0,1,2,.08,7,7,0,0,1,4,2.74,6.36,6.36,0,0,0,6.52,2.66,20.56,20.56,0,0,0,3.4-3.51,13.48,13.48,0,0,1,3.79-3.57c-1.49-3.12-4.54-5.36-6.61-6.58a.68.68,0,0,1-.32-.74.67.67,0,0,1,.6-.53c2.06-.19,8.91-1.27,10.8-7.16a.69.69,0,0,1,.35-.4.67.67,0,0,1,.52,0c2,.69,8.7,2.69,12-.71a.68.68,0,0,1,.85-.11,8,8,0,0,1,3.51,3.69,8.79,8.79,0,0,0-.44-3.4h0c-1.32-.15-2.9-.53-3.55-1.52a3,3,0,0,1,.06-2.91c.27-.7.5-1.31.18-1.77a.39.39,0,0,0-.24-.17c-.29-.05-.74.31-1.22.68-.78.61-1.75,1.38-2.54.59A2.17,2.17,0,0,1,42.92,9c.21-.53.33-.85.14-1s-1,.11-1.61.37c-1,.41-2.19.88-2.62.14a1.78,1.78,0,0,1,.29-1.83c.28-.49.44-.79.21-1s-.46-.07-.91.15A1.82,1.82,0,0,1,36,5.66c-1.51-1.45.55-3.83.58-3.85L36.8,2s-1.92,2.23-.59,3.51a1.59,1.59,0,0,0,2.1.1c.45-.22.87-.43,1.2-.1s.1.86-.17,1.32-.6,1-.29,1.58,1.38.13,2.31-.24,1.52-.61,1.86-.33.15.75-.07,1.29c-.3.75-.65,1.59.08,2.31s1.43,0,2.21-.61c.54-.42,1-.79,1.41-.72a.58.58,0,0,1,.41.27c.39.57.12,1.26-.15,2A2.77,2.77,0,0,0,47,15c.58.89,2.06,1.25,3.31,1.4a.59.59,0,0,1,.1-.34.66.66,0,0,1,.51-.31c2.13-.2,9.22-1.23,10.84-6.43a.68.68,0,0,1,.53-.48C63.81,8.6,68.85,8,71,11.31c1.19,1.87.06,3.93-.71,5a.43.43,0,0,0-.05.45.4.4,0,0,0,.37.24c2.09.09,5.88.71,7.82,3.79a7,7,0,0,1,.74,5.2,5.17,5.17,0,0,0,1.38-.41,5.32,5.32,0,0,1,.79-1.4,5.79,5.79,0,0,1,1.47-1.3,10.25,10.25,0,0,0,.08-3,7.15,7.15,0,0,1,.23-3.29c.55-1.28,1.45-1.25,1.82-1.17.64.13,1.24.68,1.24,1.13H85.9c0-.3-.48-.77-1-.89-.38-.07-1.08,0-1.53,1a7,7,0,0,0-.23,3.17,10.65,10.65,0,0,1,0,2.82c2-1.15,5-1.67,8.87-1.52a.68.68,0,0,1,.65.7,4.42,4.42,0,0,0,1.18,3.23,5.53,5.53,0,0,0,3.54,1.41c.79-2.36,2.43-6.19,5.32-8.43a.65.65,0,0,1,.54-.13.68.68,0,0,1,.46.31,3.65,3.65,0,0,0,2.53,1.7c1.92.3,4.35-.77,7.23-3.18a.69.69,0,0,1,.52-.15.67.67,0,0,1,.47.27,12.34,12.34,0,0,0,7,4.49,7.13,7.13,0,0,0-.7-3l.22-.11a7.13,7.13,0,0,1,.73,3.17,19.16,19.16,0,0,0,7.82.11.68.68,0,0,1,.64,1.12,14.79,14.79,0,0,0-3.65,11.2.65.65,0,0,1-.15.5.64.64,0,0,1-.47.24,7.77,7.77,0,0,0-6.06,4.1,7.94,7.94,0,0,1-4.12,2.88c.1,1.12.8,3.05,4.26,4.26l.52.2a8.87,8.87,0,0,0,2.68-.84A6.53,6.53,0,0,0,126.4,42c.38-.72.68-1.3,1.55-1.43a1.93,1.93,0,0,1,1.49.32,2.06,2.06,0,0,1,.73,1.32l-.25,0a1.86,1.86,0,0,0-.63-1.15,1.64,1.64,0,0,0-1.3-.27c-.75.11-1,.58-1.37,1.3a6.82,6.82,0,0,1-3.44,3.33,9.42,9.42,0,0,1-2.39.79,7.88,7.88,0,0,1,4.37,6,.71.71,0,0,1-.13.53.69.69,0,0,1-.48.25,18.8,18.8,0,0,0-7.21,2,2.6,2.6,0,0,1,1.82,1.44,15.56,15.56,0,0,1,.68,1.81c.36,1.09.51,1.47,1.13,1.43.4,0,.61-.56.85-1.19.33-.87.74-2,1.91-2.13s1.4.76,1.74,1.63.65,1.7,1.61,1.7h.06c1.08,0,1.38-.78,1.69-1.56s.54-1.35,1.34-1.49c1-.17,1.14.74,1.31,1.46s.33,1.25.83,1.17c1.35-.2,2.32-2.68,2.39-4.86H135C134.88,56.71,133.82,59.31,132.35,59.53ZM58,57.37a10.83,10.83,0,0,0-1.61.4,4.72,4.72,0,0,1-1.23.28h0a2.35,2.35,0,0,1-.35-.67,7.49,7.49,0,0,1,1.53-.15A10.43,10.43,0,0,1,58,57.37ZM13.32,46.76l.1-.12c.06-.08.15-.19.15-.2h.11a1.21,1.21,0,0,1,.86.51A6.66,6.66,0,0,1,13.32,46.76Z"/></svg>