<svg id="圖層_1" data-name="圖層 1" xmlns="http://www.w3.org/2000/svg" viewBox="0 0 67.84 61.66"><defs><style>.cls-1{fill:#fff;}</style></defs><title>0</title><path class="cls-1" d="M11.53,5.65a2.73,2.73,0,0,0-1.34-.35H10a7.33,7.33,0,0,0-2.5-5A1.34,1.34,0,0,0,6.69,0a1.57,1.57,0,0,0-.92.29,6.9,6.9,0,0,0-2.59,5H3.06a2.73,2.73,0,0,0-1.34.35C-.72,7,.17,9.35.84,11.09-.69,12.51.22,14.59.85,16A18.09,18.09,0,0,1,2,19.33c.52,2.32.71,16.36.53,37.55V57a1.44,1.44,0,0,0,.52,1.12,1.49,1.49,0,0,0,.9.31,1.53,1.53,0,0,0,.3,0l.15,0a9.28,9.28,0,0,1,2-.22,9.16,9.16,0,0,1,2.34.3l.16,0a1.34,1.34,0,0,0,.35,0,1.48,1.48,0,0,0,.88-.3,1.46,1.46,0,0,0,.54-1.13V57c-.19-21.23,0-35.31.53-37.64A17.34,17.34,0,0,1,12.41,16c.62-1.43,1.53-3.51,0-4.93C13.08,9.35,14,7,11.53,5.65Zm-.42,9.81A18.54,18.54,0,0,0,9.85,19c-.77,3.5-.65,27.71-.56,38v.16l-.16,0a10.77,10.77,0,0,0-5-.1l-.15,0v-.16C4.05,46.67,4.17,22.52,3.4,19a18.54,18.54,0,0,0-1.26-3.57c-.73-1.68-1.26-2.89.11-3.64a1.26,1.26,0,0,1,.34-.13c-.14-.38-.28-.74-.41-1.08C1.49,8.83,1,7.65,2.4,6.89a1.83,1.83,0,0,1,2.08.44c0-2.91.7-4.88,2.11-5.89l.07-.05.08.06c1.27,1,2,3,2,5.88a1.83,1.83,0,0,1,2.08-.44c1.37.76.92,1.94.22,3.72-.13.34-.27.7-.41,1.08a1.15,1.15,0,0,1,.34.13h0C12.37,12.57,11.84,13.78,11.11,15.46Z"/><path class="cls-1" d="M29.73,5.65a2.76,2.76,0,0,0-1.34-.35h-.17a7.29,7.29,0,0,0-2.5-5A1.29,1.29,0,0,0,24.89,0,1.63,1.63,0,0,0,24,.29a6.92,6.92,0,0,0-2.58,5h-.13a2.76,2.76,0,0,0-1.34.35C17.47,7,18.37,9.35,19,11.09c-1.54,1.42-.63,3.5,0,4.93a17.34,17.34,0,0,1,1.17,3.31c.64,2.91.67,23.37.51,40v.19a1.43,1.43,0,0,0,.62,1.18,1.45,1.45,0,0,0,.8.25,1.55,1.55,0,0,0,.52-.1l.17-.07a11.9,11.9,0,0,0,2.26-1.12,9.26,9.26,0,0,1,2.68-1.18l.1,0A1.54,1.54,0,0,0,28.91,57c-.19-21.25,0-35.33.52-37.66A18.06,18.06,0,0,1,30.6,16c.63-1.43,1.54-3.51,0-4.93C31.28,9.35,32.17,7,29.73,5.65Zm-.43,9.81A18.57,18.57,0,0,0,28.05,19c-.77,3.5-.65,27.72-.56,38v.1l-.1,0a10.7,10.7,0,0,0-3.08,1.36,10.76,10.76,0,0,1-2,1l-.17.07v-.18c.06-6,.33-36.43-.54-40.33a18.57,18.57,0,0,0-1.25-3.57c-.73-1.68-1.26-2.89.11-3.64a1.2,1.2,0,0,1,.33-.13c-.13-.38-.27-.74-.4-1.08-.7-1.78-1.16-3,.22-3.72a1.82,1.82,0,0,1,2.07.44c0-2.91.71-4.88,2.11-5.89l.08-.05.07.06c1.28,1,2,3,2,5.88a1.85,1.85,0,0,1,2.09-.44c1.37.76.91,1.94.22,3.72-.13.34-.27.7-.41,1.08a1.2,1.2,0,0,1,.33.13h0C30.56,12.57,30,13.78,29.3,15.46Z"/><path class="cls-1" d="M47.93,5.65a2.77,2.77,0,0,0-1.35-.35h-.16a7.33,7.33,0,0,0-2.5-5A1.34,1.34,0,0,0,43.08,0a1.59,1.59,0,0,0-.92.29,6.93,6.93,0,0,0-2.59,5h-.12a2.73,2.73,0,0,0-1.34.35c-2.44,1.35-1.55,3.7-.87,5.44-1.54,1.42-.63,3.5,0,4.93a18.84,18.84,0,0,1,1.17,3.31c.65,3,.68,23.76.5,40.66v.11a1.43,1.43,0,0,0,1.21,1.41l.11,0a11.88,11.88,0,0,0,1.79.13,13,13,0,0,0,4.16-.7,1.54,1.54,0,0,0,.95-1.45c-.17-16.7-.14-37.25.51-40.18A17.34,17.34,0,0,1,48.8,16c.62-1.43,1.54-3.51,0-4.93C49.47,9.35,50.37,7,47.93,5.65Zm-.43,9.81A19.24,19.24,0,0,0,46.24,19c-.86,3.92-.6,34.42-.53,40.49v.09l-.09,0a11.2,11.2,0,0,1-3.61.6,10.4,10.4,0,0,1-1.58-.11l-.11,0V60c.07-6.14.35-37-.53-41a18.57,18.57,0,0,0-1.25-3.57c-.74-1.68-1.26-2.89.1-3.64a1.4,1.4,0,0,1,.34-.13c-.14-.38-.28-.74-.41-1.08-.69-1.78-1.15-3,.22-3.72a1.83,1.83,0,0,1,2.08.44c0-2.91.7-4.88,2.11-5.89l.08-.05.07.06c1.27,1,2,3,2,5.88a1.83,1.83,0,0,1,2.08-.44c1.38.76.92,1.94.22,3.72-.13.34-.27.7-.41,1.08a1.15,1.15,0,0,1,.34.13h0C48.76,12.57,48.23,13.78,47.5,15.46Z"/><path class="cls-1" d="M67,11.09c.68-1.74,1.57-4.09-.87-5.44a2.76,2.76,0,0,0-1.34-.35h-.17a7.25,7.25,0,0,0-2.5-5A1.29,1.29,0,0,0,61.28,0a1.63,1.63,0,0,0-.93.29c-1,.73-2.19,2.17-2.58,5h-.13a2.76,2.76,0,0,0-1.34.35c-2.44,1.35-1.54,3.7-.87,5.44-1.54,1.42-.62,3.5,0,4.93a17.34,17.34,0,0,1,1.17,3.31c.62,2.79.67,21.64.52,38.43A1.52,1.52,0,0,0,58,59.08a9.64,9.64,0,0,1,1.06.59,12.46,12.46,0,0,0,4.43,1.75l.15,0,.27,0a1.45,1.45,0,0,0,.91-.33,1.47,1.47,0,0,0,.51-1.1v-.16c-.17-16.86-.15-37.6.5-40.56A18.84,18.84,0,0,1,67,16C67.62,14.59,68.53,12.51,67,11.09Zm-1.3,4.37A18.57,18.57,0,0,0,64.44,19c-.88,4-.6,34.75-.53,40.88v.15l-.15,0a11.19,11.19,0,0,1-3.93-1.55,9.55,9.55,0,0,0-1.22-.67l-.07,0v-.08c.07-8.14.25-35-.55-38.66a19.24,19.24,0,0,0-1.26-3.57c-.73-1.68-1.26-2.89.11-3.64a1.15,1.15,0,0,1,.34-.13c-.14-.38-.28-.74-.41-1.08-.7-1.78-1.16-3,.22-3.72a1.83,1.83,0,0,1,2.08.44c0-2.87.72-4.9,2.11-5.89l.07-.05.07.06c1.28,1,2,3,2,5.88a1.83,1.83,0,0,1,2.09-.44c1.37.76.91,1.94.22,3.72-.13.34-.27.7-.41,1.08a1.2,1.2,0,0,1,.33.13h0C67,12.57,66.43,13.78,65.69,15.46Z"/></svg>