<svg id="圖層_1" data-name="圖層 1" xmlns="http://www.w3.org/2000/svg" viewBox="0 0 105.04 59.35"><defs><style>.cls-1{fill:#fff;}</style></defs><title>0</title><path class="cls-1" d="M60.06,31.51c.16.31.62,1.16.62,1.16.32.61.63,1.2,1,1.76A13.27,13.27,0,0,1,62,33a8,8,0,0,1-1.49-1.83C60.34,31.27,60.2,31.39,60.06,31.51Z"/><path class="cls-1" d="M37.31,22.69a10.18,10.18,0,0,0-1.81-1.54l-.71,0a10.84,10.84,0,0,1-1.13-.06,11.68,11.68,0,0,0-1.57,5.1,10.78,10.78,0,0,1,2,1.29A11.49,11.49,0,0,1,37,26a14.56,14.56,0,0,1,1.43-2.19C38.05,23.43,37.68,23.08,37.31,22.69Z"/><path class="cls-1" d="M43.19,26.22a8.27,8.27,0,0,1-1-.28,9,9,0,0,0-1.51,2.32,6.67,6.67,0,0,0,1,.89,6.19,6.19,0,0,1,2.29,3,10.4,10.4,0,0,1,2.67-.34h.12A10.29,10.29,0,0,1,43.19,26.22Z"/><path class="cls-1" d="M20.66,25.29a12.58,12.58,0,0,1,1,1.49,10.28,10.28,0,0,1,5.68-1.69h.22a16.11,16.11,0,0,1,1.67-5.34,6.68,6.68,0,0,0-3.73,2A16.7,16.7,0,0,1,20.66,25.29Z"/><path class="cls-1" d="M29.72,18.25a8.27,8.27,0,0,0-5.25,2.54,15.27,15.27,0,0,1-6.29,4,10.14,10.14,0,0,1,3,4.25,8.67,8.67,0,0,1,.91-.78,9,9,0,0,1,6.62-1.63l.23,0a14.77,14.77,0,0,1,2.34-7.6A8.88,8.88,0,0,1,29.72,18.25Zm-2.15,6.84h-.22a10.28,10.28,0,0,0-5.68,1.69,12.58,12.58,0,0,0-1-1.49,16.7,16.7,0,0,0,4.85-3.53,6.68,6.68,0,0,1,3.73-2A16.11,16.11,0,0,0,27.57,25.09Z"/><path class="cls-1" d="M38.34,21.71a11.62,11.62,0,0,0-2.49-2,9.28,9.28,0,0,1-1.06.07,9,9,0,0,1-1.36-.1,4.74,4.74,0,0,1-.49-.1c-.84,1.31-2.53,4.39-2.24,7.59A9,9,0,0,1,34,29.44a9,9,0,0,1,4-2.33,13.45,13.45,0,0,1,2.48-3.57A12.35,12.35,0,0,1,38.34,21.71ZM37,26a11.49,11.49,0,0,0-2.94,1.56,10.78,10.78,0,0,0-2-1.29,11.68,11.68,0,0,1,1.57-5.1,10.84,10.84,0,0,0,1.13.06l.71,0a10.18,10.18,0,0,1,1.81,1.54c.37.39.74.74,1.12,1.07A14.56,14.56,0,0,0,37,26Z"/><path class="cls-1" d="M41.93,22.23h0l.1-.08.16.21a8,8,0,0,0,2.16.72,4.57,4.57,0,0,1,0-.52,4.32,4.32,0,0,1,.1-.54,9,9,0,0,0-.88-.46,5.87,5.87,0,0,1-3.1-3.41c0-.11-.06-.22-.09-.33l-.15.12a8.75,8.75,0,0,1-2,1.13,15.67,15.67,0,0,1,1.49,1.34A9.31,9.31,0,0,0,41.93,22.23Z"/><path class="cls-1" d="M61,28.29a8.93,8.93,0,0,1-2.73,2.84c.38.65.73,1.31,1.08,2l.13.24a16.35,16.35,0,0,0,3.49,5,13.55,13.55,0,0,1,.69-5.9A6.28,6.28,0,0,1,61,28.29Zm.68,6.14c-.32-.56-.63-1.15-1-1.76,0,0-.46-.85-.62-1.16.14-.12.28-.24.41-.37A8,8,0,0,0,62,33,13.27,13.27,0,0,0,61.63,34.43Z"/><path class="cls-1" d="M53.29,32.61a9.77,9.77,0,0,1-1.32-.1A8.92,8.92,0,0,1,44.4,25a11.36,11.36,0,0,1-2.59-.75,10.73,10.73,0,0,0-2.73,4.23A7,7,0,0,0,40.9,30.3a4.68,4.68,0,0,1,2,3.15,3.31,3.31,0,0,1,0,.55,9.05,9.05,0,0,1,9.92,1.61A10.3,10.3,0,0,0,57.2,33.1c-.21-.38-.42-.75-.64-1.12A8.93,8.93,0,0,1,53.29,32.61Zm-6.61-.84a10.4,10.4,0,0,0-2.67.34,6.19,6.19,0,0,0-2.29-3,6.67,6.67,0,0,1-1-.89,9,9,0,0,1,1.51-2.32,8.27,8.27,0,0,0,1,.28,10.29,10.29,0,0,0,3.61,5.55Z"/><path class="cls-1" d="M102.65,14.81a12,12,0,0,0-7.85-4.62,12.61,12.61,0,0,0-1.74-.12,11.88,11.88,0,0,0-11.76,10,11.57,11.57,0,0,0,2,8.41,18.67,18.67,0,0,0-2.74,3.77A11.27,11.27,0,0,0,77.33,31a17,17,0,0,0,1.6-5.86,5.37,5.37,0,0,1,.84-1.91c.78-1.33,1.84-3.15.7-5.22a5.48,5.48,0,0,0-3.94-2.64,5,5,0,0,0-.8-.06,7.68,7.68,0,0,0-5.3,2.46,7.49,7.49,0,0,1-4.19,2,10.87,10.87,0,0,0-3.13,1.1,9.81,9.81,0,0,0-1.61-3.11,10.34,10.34,0,0,0-6.8-4l-.61-.07a11.32,11.32,0,0,0-1-1.7,6.31,6.31,0,0,1-1.27-3.3,7.73,7.73,0,0,0-3.14-6.14,4.73,4.73,0,0,0-2.57-.77,4.58,4.58,0,0,0-1.64.3,5.11,5.11,0,0,0-2,1.26A10.66,10.66,0,0,0,36.28.11,11.57,11.57,0,0,0,34.72,0a10.56,10.56,0,0,0-6.33,2.09,10.45,10.45,0,0,0-3.71,5.07,8.89,8.89,0,0,0-4.61-1.38,14.28,14.28,0,0,0-1.79.14A12.8,12.8,0,0,1,16.77,6a6.62,6.62,0,0,1-2.47-.49,10.75,10.75,0,0,0-3.85-.78,6.69,6.69,0,0,0-3.56,1A4.84,4.84,0,0,0,4.58,9.48c-.3,3.42,2,4.87,4.09,6.15a11.15,11.15,0,0,1,3.09,2.46,11,11,0,0,0,4.63,3.64l-.3.08A11.71,11.71,0,0,0,13.24,21a12,12,0,0,0-1.69-.12A11.57,11.57,0,0,0,.12,30.69a11.36,11.36,0,0,0,2.19,8.52,11.55,11.55,0,0,0,7.62,4.5l.34,0a42.7,42.7,0,0,0-.86,4.5,28.6,28.6,0,0,1-.88,4.32c-.9,2.62-.57,4.87.89,6a3.63,3.63,0,0,0,2.28.75A8.38,8.38,0,0,0,16,57.82l1.61-1a42.21,42.21,0,0,1,7.85-4.07c2.74-1.21,4.43-3.86,4.94-7.72a10.27,10.27,0,0,0,2.76-1.25,4.7,4.7,0,0,0,.8,1,4.11,4.11,0,0,0,2.83,1.14,3,3,0,0,0,.42,0A10.36,10.36,0,0,0,45.27,52a10,10,0,0,0,1.54.11,10.36,10.36,0,0,0,6.12-2,10,10,0,0,0,3.15-12.5,14.39,14.39,0,0,0,1.49-.85,12.58,12.58,0,0,0,6.22,5.94A10.77,10.77,0,0,0,66,48.28a11.14,11.14,0,0,0,7.34,4.32,11.59,11.59,0,0,0,1.66.12,11.08,11.08,0,0,0,6.61-2.16,10.87,10.87,0,0,0,2.69-14.78,13.18,13.18,0,0,1,2.56-4,12,12,0,0,0,4.58,1.66,11.45,11.45,0,0,0,1.75.13,11.89,11.89,0,0,0,11.76-10A11.59,11.59,0,0,0,102.65,14.81Zm.86,8.54a10.4,10.4,0,0,1-10.35,8.82,10.19,10.19,0,0,1-1.55-.11,10.55,10.55,0,0,1-5-2.11,14.88,14.88,0,0,0-4,6.06,9.46,9.46,0,0,1-2,13.41A9.78,9.78,0,0,1,75,51.3a10.34,10.34,0,0,1-1.46-.1,9.86,9.86,0,0,1-6.42-3.77,9.47,9.47,0,0,1-1.93-5.74c-3.85-1.09-5.63-4.18-7.14-7.06A11.9,11.9,0,0,1,54,37a8.6,8.6,0,0,1-1.95,12,8.9,8.9,0,0,1-5.28,1.73,10.07,10.07,0,0,1-1.34-.1,8.93,8.93,0,0,1-7.36-6.47,3.24,3.24,0,0,1-.83.28h0a2.81,2.81,0,0,1-.49,0,2.69,2.69,0,0,1-1.86-.76,4.09,4.09,0,0,1-1.16-2.26,8.24,8.24,0,0,1-1,.86,8.85,8.85,0,0,1-3.68,1.57c-.22,3-1.21,6.24-4.2,7.56a44.31,44.31,0,0,0-8,4.17l-1.61,1a7,7,0,0,1-3.55,1.32,2.23,2.23,0,0,1-1.4-.44c-1-.77-1.13-2.43-.43-4.45a28.81,28.81,0,0,0,.94-4.57,31.79,31.79,0,0,1,1.36-6.07l-.53,0a11.07,11.07,0,0,1-1.51-.11,10.16,10.16,0,0,1-6.69-4A10,10,0,0,1,1.52,30.9,10.13,10.13,0,0,1,13,22.42a10.26,10.26,0,0,1,2.91.88,13.63,13.63,0,0,0,6.69-3.55,6.34,6.34,0,0,1-3.47,1.09c-.23,0-.46,0-.69,0a8.61,8.61,0,0,1-5.6-3.58,12.23,12.23,0,0,0-3.46-2.8C7.46,13.21,5.77,12.16,6,9.6A3.43,3.43,0,0,1,7.64,6.93c1.53-1,3.77-1,6.15-.06a8.52,8.52,0,0,0,4.67.46,7.65,7.65,0,0,1,6.22,1.5,6.77,6.77,0,0,1,.92.74c0-.1,0-.21,0-.31a9,9,0,0,1,3.61-6A9.26,9.26,0,0,1,42.67,5.91,3.51,3.51,0,0,1,45,3.43a3.22,3.22,0,0,1,3,.33,6.4,6.4,0,0,1,2.49,5.05,7.72,7.72,0,0,0,1.49,4,7.73,7.73,0,0,1,1.14,2.3,9.76,9.76,0,0,1,1.42.09,9,9,0,0,1,5.88,3.45,8.6,8.6,0,0,1,1.77,5.05c1.22-1.76,2.78-2.13,4.42-2.52a8.92,8.92,0,0,0,4.87-2.39c2-1.94,3.78-2.16,4.88-2a4,4,0,0,1,2.92,1.95h0c.74,1.34,0,2.58-.69,3.79a6.36,6.36,0,0,0-1,2.5,13.31,13.31,0,0,1-2.61,7.14,10.51,10.51,0,0,1,1.37.09,9.83,9.83,0,0,1,4.88,2.18,17.31,17.31,0,0,1,4.06-5.8,10.24,10.24,0,0,1-2.52-8.31,10.55,10.55,0,0,1,18.82-4.65A10.21,10.21,0,0,1,103.51,23.35Z"/><path class="cls-1" d="M64.68,39.48a5,5,0,0,0,.68.25,9.36,9.36,0,0,1,3-5.19A11.37,11.37,0,0,1,65,33.31,13,13,0,0,0,64.68,39.48Z"/></svg>