<svg id="圖層_1" data-name="圖層 1" xmlns="http://www.w3.org/2000/svg" viewBox="0 0 91.19 104.57"><defs><style>.cls-1{fill:#fff;}</style></defs><title>0</title><path class="cls-1" d="M91.14,10a1.41,1.41,0,0,0-.79-.91l-.13-.06a22.88,22.88,0,0,0-9.34-2.3,13.59,13.59,0,0,0-3.11.35A22.14,22.14,0,0,0,76.49,1L76.43.9a1.4,1.4,0,0,0-.92-.84,1.34,1.34,0,0,0-.4-.06,1.37,1.37,0,0,0-.82.27l-.13.09c-4.7,3.38-7.38,7-8,10.75A18.06,18.06,0,0,0,64,9.9a15.69,15.69,0,0,0,.53-2.26l0-.14a1.41,1.41,0,0,0-1.4-1.61H63c-8.88,0-13.3,3.7-15.46,6.9a8.39,8.39,0,0,0-4.77-2.64,19.15,19.15,0,0,0,.15-6.73l0-.13a1.4,1.4,0,0,0-.67-1,1.34,1.34,0,0,0-.72-.21A1.55,1.55,0,0,0,41,2.2l-.13,0c-9.57,3-11.3,9.88-11.47,13.75a16.61,16.61,0,0,0-7.11,3.63,19.76,19.76,0,0,0-1.6-3.4l-.09-.14a1.41,1.41,0,0,0-1.06-.65h-.13a1.42,1.42,0,0,0-1,.45L18.3,16a23.25,23.25,0,0,0-3.21,4.29,21.25,21.25,0,0,0-7.16-4.95l-.14-.06a1.52,1.52,0,0,0-.51-.09,1.49,1.49,0,0,0-.68.17,1.46,1.46,0,0,0-.71.95l0,.15c-1,4.6-.36,8.36,1.79,11.17a7.45,7.45,0,0,0,.57.69,2.29,2.29,0,0,0-.28.09C4.6,29.55,2,32.25.17,36.45l-.05.13A1.41,1.41,0,0,0,1,38.49l.11,0a19.59,19.59,0,0,0,5.14.68,16.32,16.32,0,0,0,3.64-.39,18.75,18.75,0,0,0-6.4,6.84l-.06.12a1.41,1.41,0,0,0-.08,1.12,1.46,1.46,0,0,0,.76.82l.12.05A18.72,18.72,0,0,0,11,49.52a8.4,8.4,0,0,0,8.1,6.34h.08a11.83,11.83,0,0,0-2.87,6.42,21,21,0,0,0,.28,7.07l0,.13a1.38,1.38,0,0,0,.7.91,1.34,1.34,0,0,0,.67.17,1.62,1.62,0,0,0,.49-.08l.13,0a14.84,14.84,0,0,0,5.28-3.17,16.81,16.81,0,0,0,2.93,4.65l.09.09a1.43,1.43,0,0,0,1,.44h0A1.41,1.41,0,0,0,29,72l.09-.11a13.55,13.55,0,0,0,3.58-6.72,8.38,8.38,0,0,0,3.49-1.47,12.92,12.92,0,0,0,7,4.35l.13,0a1.33,1.33,0,0,0,.4.05,1.49,1.49,0,0,0,.73-.2A1.43,1.43,0,0,0,45,67l0-.14a18.1,18.1,0,0,0,0-5.91,15.7,15.7,0,0,1,2.62,2.3c4.78,5.41,4,21.13,3.47,31.54v.14c-.2,4,.44,6.52,2,8a7,7,0,0,0,5.06,1.61c1.25,0,2.64-.14,4.11-.29h.1l2.11-.2c1.19-.1,2.87-.39,3.74-1.79,1.11-1.78.24-4-1.07-7.33a51.65,51.65,0,0,1-2.95-9.53A88.21,88.21,0,0,0,62,76.71c-2-6.51-4.38-14.46-4.4-23.27a14.48,14.48,0,0,0,4.78,2l.13,0a1.06,1.06,0,0,0,.25,0,1.41,1.41,0,0,0,1.41-1.28v-.13a17.8,17.8,0,0,0-.48-6.65,8.38,8.38,0,0,0,7-5.43,14,14,0,0,0,3,2.08l.12.06a1.38,1.38,0,0,0,.6.13,1.43,1.43,0,0,0,.5-.09,1.39,1.39,0,0,0,.8-.76l0-.11a21.91,21.91,0,0,0,1.39-4.25,13.91,13.91,0,0,0,8.22.71l.12,0a1.45,1.45,0,0,0,.87-.66A1.41,1.41,0,0,0,86.4,38l0-.13A20.59,20.59,0,0,0,82.8,30.4a8.29,8.29,0,0,0,1.73-6.95c2.65-1,4.9-2.86,5.29-4a1.69,1.69,0,0,0-.4-1.72,19,19,0,0,0-2.84-2.3,16.88,16.88,0,0,0,4.28-4.07l.08-.12A1.41,1.41,0,0,0,91.14,10Zm-1.45.5a14.79,14.79,0,0,1-6.18,4.86,15,15,0,0,1,4.92,3.33.25.25,0,0,1,0,.26c-.23.68-2.65,2.76-5.69,3.56a6.92,6.92,0,0,1-1.91,7.83A17.83,17.83,0,0,1,85,38.26l0,.12-.12,0a11.09,11.09,0,0,1-2.63.28,11.51,11.51,0,0,1-5.92-1.56c-.15-.09-.28-.2-.42-.29a18.13,18.13,0,0,1-1.58,5.91l0,.12-.12-.06a12.78,12.78,0,0,1-4.5-4c0,.1,0,.2,0,.3a6.94,6.94,0,0,1-6.93,6.93A7.12,7.12,0,0,1,61.55,46a14.42,14.42,0,0,1,1.17,8v.13l-.14,0a12.14,12.14,0,0,1-6.35-3.66c-.61,10.2,2.08,19.15,4.38,26.72a88.14,88.14,0,0,1,2.3,8.56,52.36,52.36,0,0,0,3,9.79c1.16,3,1.92,4.89,1.19,6.06-.41.65-1.25,1-2.66,1.13-.77.06-1.52.14-2.24.21-1.45.15-2.78.28-4,.28a5.63,5.63,0,0,1-4.08-1.22c-1.27-1.2-1.77-3.4-1.6-6.93v-.14c.57-11.27,1.34-26.71-3.82-32.55a23.79,23.79,0,0,0-6.1-4.57,15.84,15.84,0,0,1,1,8.83l0,.14-.13,0c-3.47-1-5.84-2.72-7.08-5.17a6.87,6.87,0,0,1-5.08,2.35c-.08,2.32-1.2,4.7-3.34,7.07l-.09.1-.09-.09a13.73,13.73,0,0,1-3.33-6.72,11.86,11.86,0,0,1-6.4,4.89l-.13,0,0-.13a19.33,19.33,0,0,1-.26-6.52c.45-3.12,2.08-7.08,7.22-8.36a7,7,0,0,1,5.08-4,33.87,33.87,0,0,1-4.08-3.75,7.23,7.23,0,0,1,.1,1.15,6.93,6.93,0,0,1-13.83.58l-.58,0a16.74,16.74,0,0,1-6.76-1.64l-.12,0,.06-.12c0-.06,3.08-5.91,8.31-7.3a9.06,9.06,0,0,1,5.15.15,25.63,25.63,0,0,0-5.86-2.73,13.24,13.24,0,0,1-6.1,1.37,18.13,18.13,0,0,1-4.7-.62l-.13,0L1.47,37c1.65-3.81,4-6.26,6.93-7.26a9.58,9.58,0,0,1,3.23-.51,9.41,9.41,0,0,1-2.86-2.47c-1.88-2.47-2.39-5.84-1.52-10l0-.14.14.05c.07,0,5.25,2.07,8,6.32a19.19,19.19,0,0,1,4-6l.11-.11.09.13a19.35,19.35,0,0,1,2.1,5.22c1.59-1.65,5-4.58,9.21-5-.13-3.52.87-10.61,10.48-13.62l.14,0,0,.14a17.46,17.46,0,0,1-.58,7.78l.41,0a6.93,6.93,0,0,1,6.29,4.05C49.07,12.22,52.93,7.31,63,7.31h.15l0,.14a18.79,18.79,0,0,1-.89,3.24A16,16,0,0,1,67.58,14a8.66,8.66,0,0,1-.07-2.12C67.85,8.33,70.36,4.83,75,1.51l.13-.09.06.15A20.27,20.27,0,0,1,76.37,9h0c2.41-1,6.67-1.68,13.27,1.3l.13.06ZM27.12,49.65l0,0,0,0Z"/></svg>