<svg id="圖層_1" data-name="圖層 1" xmlns="http://www.w3.org/2000/svg" viewBox="0 0 162.48 64.16"><defs><style>.cls-1{fill:#fff;}</style></defs><title>0</title><path class="cls-1" d="M162.24,19.59a4.83,4.83,0,0,0-3.07-2.83c-.59-.23-.63-.39-.8-1.13a4.24,4.24,0,0,0-3.3-3.55,5.56,5.56,0,0,0-1.61-.24,9.32,9.32,0,0,0-4,1.17,5.84,5.84,0,0,1-2.06.72,1,1,0,0,1-.52-.14c-.59-.33-.59-.46-.6-1.25a3.66,3.66,0,0,0-1.93-3.55,4.86,4.86,0,0,0-2.41-.58,12.56,12.56,0,0,0-2.69.39,9.44,9.44,0,0,1-1.73.28,1,1,0,0,1-.44-.08,2.45,2.45,0,0,1-.87-.81,3.79,3.79,0,0,0-3.37-1.68h-.14a4.38,4.38,0,0,0-3.16,1.41,7.41,7.41,0,0,0-1.69,3c-.23-.16-.45-.31-.68-.45a11.68,11.68,0,0,0-6.4-1.91c-.71,0-1.38.05-2,.11s-1.3.1-2,.1a11.28,11.28,0,0,1-4.11-.77,11.27,11.27,0,0,0-3.11-.69c.19-1.69,1.14-1.78,1.53-1.81a2.84,2.84,0,0,0,2.83-2.59A2.64,2.64,0,0,0,111.4.06a5.66,5.66,0,0,0-.82-.06,6.56,6.56,0,0,0-6.3,5.51,7.92,7.92,0,0,0-.09,2.41,16.16,16.16,0,0,0-4,2.31,9.93,9.93,0,0,1-3.54,1.39l-.77.21a11,11,0,0,0-6.56-2.55,10.92,10.92,0,0,1-5.07-1.56,10.15,10.15,0,0,0-3.73-1.38,7.08,7.08,0,0,0-.57-2.07A6.1,6.1,0,0,0,74.44.57a5.34,5.34,0,0,0-2,.37,2.5,2.5,0,0,0-1.68,3,2.59,2.59,0,0,0,2.62,1.82,3.12,3.12,0,0,0,.52,0l.25,0c.21,0,.8,0,1.21,1.08a15.73,15.73,0,0,0-2.53,1,8.74,8.74,0,0,1-3.23.59c-2.72.19-6.12.43-9.7,3.82a15,15,0,0,0-1.72,1.94,1.84,1.84,0,0,1-.22-.17,12.25,12.25,0,0,0-2.48-1.58,2.61,2.61,0,0,1,2.06-1.58,2.44,2.44,0,0,1,.8.15,4.1,4.1,0,0,0,1.38.26A2.78,2.78,0,0,0,62.3,9.73,2.82,2.82,0,0,0,61.1,6.1,6.69,6.69,0,0,0,57.44,5a7.63,7.63,0,0,0-6.08,3.23A9.33,9.33,0,0,0,50,11h-.34a18.31,18.31,0,0,0-5.87,1,6.81,6.81,0,0,1-2.3.32c-.67,0-1.39-.05-2.16-.1s-1.8-.11-2.77-.11a16.36,16.36,0,0,0-10.13,3.27A19.23,19.23,0,0,0,19,26.87h-.55a12.82,12.82,0,0,0-2.38.2,10,10,0,0,0-3.47,1.33,3.94,3.94,0,0,1-2.4.72H9.85c-.58,0-1.18-.05-1.78-.05-1.69,0-6.2,0-7.25,4.74-.12.54-.26,1-.37,1.41C0,36.87-.45,38.31,1,40.6c1,1.48,2.76,2.13,4.2,2.66a8,8,0,0,1,1.82.81,2.68,2.68,0,0,1-.66,1.2,5.67,5.67,0,0,0-1.28,2.6,4.09,4.09,0,0,0,.73,2.89A1.82,1.82,0,0,1,6.25,52a4.31,4.31,0,0,1-.59,1.35c-.74,1.36-1.87,3.4-.54,6.22A7.83,7.83,0,0,0,9.89,64a4.68,4.68,0,0,0,1.16.15,4.16,4.16,0,0,0,2.48-.81c.36-.26.71-.55,1.11-.88,1.24-1,2.41-2,4.1-2l.53,0a8,8,0,0,0,1,.06,6.1,6.1,0,0,0,4-1.38,5.83,5.83,0,0,0,2-4.31.75.75,0,0,1,.72-.74h.1a.8.8,0,0,1,.81.66,10.57,10.57,0,0,1,.26,1.94c.13,1.79.34,4.79,4.23,5h.45a7.87,7.87,0,0,0,3.68-.92,2.41,2.41,0,0,1,1-.35,2.11,2.11,0,0,1,.71.17,5.06,5.06,0,0,0,2,.45,4.93,4.93,0,0,0,3.73-2c.16-.18.32-.35.48-.5a3.91,3.91,0,0,1,1.37-.68,5.38,5.38,0,0,0,3.74-3.43c.74-.14,1.39-.33,2-.5a21.94,21.94,0,0,1,7.11-1l1.24,0c.86,1.73,2.91,4.24,7.46,4.36,3,.07,3.5.45,4,.85a6.18,6.18,0,0,0,3,1.42,7,7,0,0,0,1.51.18,5.07,5.07,0,0,0,3.27-1.22A2.18,2.18,0,0,1,80.5,58h.19c.26,0,.53,0,.79,0,3.53,0,5.53-1.76,6-5.25.24-2,.48-2.2.84-2.57a7.27,7.27,0,0,0,.75-.88,3.24,3.24,0,0,0,.26-3.12c-.06-.19-.1-.33-.12-.43l.2,0a5.58,5.58,0,0,0,3.08-1.39,9.87,9.87,0,0,0,4.82,1.34,8.25,8.25,0,0,0,1.79-.19,18.73,18.73,0,0,1,4.14-.54,12.82,12.82,0,0,1,3,.4,13.9,13.9,0,0,0,3.31.44,15.12,15.12,0,0,0,3.12-.35A12.88,12.88,0,0,0,118,43.24l.1.15a9,9,0,0,0,5.28,4.13,8.82,8.82,0,0,0,2.16.27,14.42,14.42,0,0,0,3.35-.49,11.09,11.09,0,0,1,2.56-.41,5.67,5.67,0,0,1,2.38.54c2.7,1.21,4.32,1.9,6.15,1.9a10.84,10.84,0,0,0,4.31-1.09,2.88,2.88,0,0,1,1.11-.27,3.2,3.2,0,0,1,1.57.6,6.36,6.36,0,0,0,3.27,1,6.25,6.25,0,0,0,2-.36,4.93,4.93,0,0,0,3.33-4.13,9.86,9.86,0,0,0-3.46-8.71,5.87,5.87,0,0,1-.87-.78,4,4,0,0,1,.78-.16c2.06-.21,4.09-.71,4.45-4.1a.15.15,0,0,0,0-.06l.35-.1a5.6,5.6,0,0,0,3.28-1.95,4,4,0,0,0,1.1-3.7,1.35,1.35,0,0,1,.2-1.18A5.75,5.75,0,0,0,162.24,19.59Zm-2,4.09a2.75,2.75,0,0,0-.36,2.11,2.61,2.61,0,0,1-.79,2.56,4.3,4.3,0,0,1-2.54,1.49c-.79.2-1.31.33-1.41,1.38-.25,2.29-1.21,2.63-3.19,2.84-1.23.13-2.06.55-2.22,1.14s.38,1.42,1.6,2.34a8.44,8.44,0,0,1,2.91,7.35,3.56,3.56,0,0,1-2.38,3,4.36,4.36,0,0,1-4.14-.58,3.81,3.81,0,0,0-3.94-.39c-3.73,1.58-4.91,1.17-9.32-.8a8,8,0,0,0-5.84-.22,9.6,9.6,0,0,1-4.85.23,7.64,7.64,0,0,1-4.42-3.52,12,12,0,0,1-.79-1.45c-.34.22-.64.43-.93.63a11.81,11.81,0,0,1-5.2,2.22,14,14,0,0,1-2.83.31,13.3,13.3,0,0,1-3-.4c-1.77-.4-3.6-.8-7.8.13a8.32,8.32,0,0,1-6.56-1.59,4.12,4.12,0,0,1-3.06,1.82c-.6.1-1,.17-1.25.63a2.15,2.15,0,0,0,.06,1.67,1.9,1.9,0,0,1-.07,1.87,6.83,6.83,0,0,1-.6.7c-.53.53-.94.95-1.24,3.39-.45,3.73-2.8,4.11-5.27,4a3.47,3.47,0,0,0-2.56.89,3.66,3.66,0,0,1-2.42.94,5.54,5.54,0,0,1-1.2-.14,4.75,4.75,0,0,1-2.4-1.13c-.67-.56-1.3-1.09-4.84-1.18-4.52-.12-6.06-2.92-6.56-4.32-5.51-.24-7.82.42-9.68,1a17.05,17.05,0,0,1-2.68.59,4.14,4.14,0,0,1-3.14,3.36,5.19,5.19,0,0,0-1.84,1c-.2.18-.39.39-.59.61-.87,1-1.94,2.15-4.14,1.23a2.91,2.91,0,0,0-2.86.2,6.22,6.22,0,0,1-3.43.77c-2.63-.13-2.76-1.85-2.89-3.67a11.41,11.41,0,0,0-.31-2.22,2.21,2.21,0,0,0-2.44-1.68,2.14,2.14,0,0,0-2,2.08,4.45,4.45,0,0,1-1.48,3.29,5,5,0,0,1-3.91,1c-2.58-.28-4.23,1.08-5.69,2.28-.36.3-.7.58-1.05.84a2.69,2.69,0,0,1-1.64.54,3.35,3.35,0,0,1-.81-.11A6.4,6.4,0,0,1,6.41,59c-1-2.16-.22-3.63.5-4.92a5.38,5.38,0,0,0,.75-1.91,3.16,3.16,0,0,0-.6-2.1,2.7,2.7,0,0,1-.54-2,4.31,4.31,0,0,1,1-2,3.36,3.36,0,0,0,1-2.23c-.06-1-1.31-1.44-2.75-2s-2.8-1-3.5-2.1c-1.13-1.75-.86-2.69-.41-4.24.12-.43.26-.92.39-1.49.86-3.87,4.59-3.71,7.59-3.59a5.47,5.47,0,0,0,3.52-.89,8.34,8.34,0,0,1,3-1.17,15.1,15.1,0,0,1,3.81-.1,18.06,18.06,0,0,1,7.13-11.73c4.67-3.37,8.56-3.12,12-2.9a12.76,12.76,0,0,0,5-.3,15.91,15.91,0,0,1,6.74-.9c.06-.16.11-.33.17-.5a9.73,9.73,0,0,1,1.32-2.93c2.28-3,5.73-3.2,7.83-1.81A1.43,1.43,0,0,1,61,9.09c-.27.54-1.05.91-2.17.5-2-.73-3.77.24-4.91,2.72-.12.27-.22.53-.31.79A11.37,11.37,0,0,1,57.11,15,14.44,14.44,0,0,0,58.6,16.1a13.14,13.14,0,0,1,2.31-2.91c3.22-3,6.2-3.25,8.84-3.44A9.61,9.61,0,0,0,73.51,9,13.12,13.12,0,0,1,77.08,7.8c0-.24-.06-.47-.11-.73-.46-2-1.6-3-3.22-2.79-.92.12-1.46-.28-1.58-.74s.1-1,.83-1.28a4.47,4.47,0,0,1,5.63,2.61,7.47,7.47,0,0,1,.53,2.42c0,.12,0,.23,0,.35a8.78,8.78,0,0,1,4.27,1.28,12.08,12.08,0,0,0,5.65,1.77,9.6,9.6,0,0,1,6.31,2.66l0,.05L97,13a11.21,11.21,0,0,0,4-1.64,14.14,14.14,0,0,1,4.71-2.46l0-.28a8.27,8.27,0,0,1,0-2.81,5.07,5.07,0,0,1,5.53-4.34c.88.13,1.26.69,1.24,1.18s-.5,1.12-1.54,1.22C109,4,108,5.43,108,7.8c0,.25,0,.46,0,.69a9.68,9.68,0,0,1,4,.61,13.91,13.91,0,0,0,6.7.75,10.82,10.82,0,0,1,7.6,1.6,10.94,10.94,0,0,1,2.36,2,7.53,7.53,0,0,1,1.77-4.73,3,3,0,0,1,2.23-1A2.4,2.4,0,0,1,135,8.84a3.89,3.89,0,0,0,1.31,1.2c.82.46,2,.21,3.18-.06,1.41-.31,2.87-.63,4.11.06a2.23,2.23,0,0,1,1.19,2.32,2.34,2.34,0,0,0,1.32,2.46c1.26.72,2.48.14,3.89-.53s2.88-1.37,4.62-.86A2.87,2.87,0,0,1,157,16a2.46,2.46,0,0,0,1.67,2.13,3.53,3.53,0,0,1,2.25,2A4.44,4.44,0,0,1,160.2,23.68Z"/></svg>