<svg id="圖層_1" data-name="圖層 1" xmlns="http://www.w3.org/2000/svg" viewBox="0 0 95.25 136.47"><defs><style>.cls-1{fill:#fff;}</style></defs><title>0</title><path class="cls-1" d="M43.47,49.24c-1.11,1.45-2.31,2.78-3.35,3.93-1.2,1.31-3.68,4-3.31,4.58a1.52,1.52,0,0,0,1.4.7c1.78,0,4.69-1.5,8.38-3.61A8.29,8.29,0,0,1,43.47,49.24Z"/><path class="cls-1" d="M50.68,48.17c-.06.27-.12.54-.19.82a15.15,15.15,0,0,0-.57,3.91A27.07,27.07,0,0,0,54.58,49a19.44,19.44,0,0,1-3.7-.72Z"/><path class="cls-1" d="M51.09,45.21a3.54,3.54,0,0,0,1.29-.82c-.07-.7-.48-2.59-2.81-5.94a9.06,9.06,0,0,1-.49-.77,8,8,0,0,0-1.32,2,5.06,5.06,0,0,1,2.7,2.63A6.25,6.25,0,0,1,51.09,45.21Z"/><path class="cls-1" d="M22.82,30.22h-.53A8.72,8.72,0,0,0,24.36,34a.91.91,0,0,0,.15-.28,7.18,7.18,0,0,0-.2-3.64A10.76,10.76,0,0,1,22.82,30.22Z"/><path class="cls-1" d="M32.73,44.11c0,.13,0,.25,0,.37a25.11,25.11,0,0,0,0,4.21c.39-.27,1.19-1.11,2.55-3.63A17.45,17.45,0,0,1,32.73,44.11Z"/><path class="cls-1" d="M57.71,38.08A10.05,10.05,0,0,1,59,37.3a7.67,7.67,0,0,1,1.89-5.5c-.46,0-1,.08-1.56.09a8.51,8.51,0,0,1-.86,4.64C58.18,37,57.94,37.53,57.71,38.08Z"/><path class="cls-1" d="M56.2,47.62a19.34,19.34,0,0,1-4.9-.74l-.37-.12.37-.12A5.37,5.37,0,0,0,53.78,45c.06-.32.3-2.52-3.05-7.34a9.16,9.16,0,0,1-1.17-2.28,9.62,9.62,0,0,0-3.67,5.35A3.8,3.8,0,0,1,49.18,43c.86,1.73.41,3.66-.07,5.71a12.69,12.69,0,0,0-.44,5.62l0,.25-.23-.11a7.12,7.12,0,0,1-3.64-5.71A5.35,5.35,0,0,0,44,45.93a39.14,39.14,0,0,1-4.94,6.28c-2.48,2.74-4.44,4.9-3.42,6.36,2.14,3,6.75.36,14.38-4.08l.11-.07a33.14,33.14,0,0,0,7.63-6.86c-.43,0-.87.06-1.33.06Zm-18,10.83a1.52,1.52,0,0,1-1.4-.7c-.37-.53,2.11-3.27,3.31-4.58,1-1.15,2.24-2.48,3.35-3.93a8.29,8.29,0,0,0,3.12,5.6C42.9,57,40,58.45,38.21,58.45Zm9.55-18.73a8,8,0,0,1,1.32-2,9.06,9.06,0,0,0,.49.77c2.33,3.35,2.74,5.24,2.81,5.94a3.54,3.54,0,0,1-1.29.82,6.25,6.25,0,0,0-.63-2.86A5.06,5.06,0,0,0,47.76,39.72ZM49.92,52.9A15.15,15.15,0,0,1,50.49,49c.07-.28.13-.55.19-.82l.2.06a19.44,19.44,0,0,0,3.7.72A27.07,27.07,0,0,1,49.92,52.9Z"/><path class="cls-1" d="M94.08,51l-.61-.11c-3-.54-4.09-1.92-5.34-3.68l.77.3.26.12a1.41,1.41,0,0,0,.57.11,1.4,1.4,0,0,0,1-.37,1.43,1.43,0,0,0,.38-1.5L91,45.6c-2.16-6.35-5.83-9.07-12.28-9.07H78a5.71,5.71,0,0,1-1.44-.19,7.84,7.84,0,0,0,1.09-.83,11.2,11.2,0,0,0,3.5-6.82,7.27,7.27,0,0,1,1.32-3.43,1.43,1.43,0,0,0-.13-2l-.19-.16a1.34,1.34,0,0,0-.94-.36,1.46,1.46,0,0,0-1,.38s-1.39,1.26-5.35,2.32c-2.87.72-5.61,1.58-7.54,3.9a5.82,5.82,0,0,0-1.1-.1,6.26,6.26,0,0,0-2.12.37l.06-.33A11.75,11.75,0,0,0,66,29a8.34,8.34,0,0,0,5.1-3.95,11,11,0,0,0,1.26-2.95l.06-.24a1.42,1.42,0,0,0-1.38-1.75,1.5,1.5,0,0,0-.55.11l-.21.09a13.26,13.26,0,0,1-4.21.87,4.39,4.39,0,0,1-1.86-.34,10,10,0,0,0-3.93-1.07,6.3,6.3,0,0,0-3.81-1.47h0c-.1-.8-.22-1.63-.33-2.4a22.74,22.74,0,0,1-.43-5.43,1.42,1.42,0,0,0-1-1.7l-.24-.06a1.49,1.49,0,0,0-.36-.05,1.43,1.43,0,0,0-1.36,1,14.09,14.09,0,0,1-2.87,4.94c-2,2.11-3.92,4.78-3.54,8.71a10,10,0,0,0-4.7,3.16,8.64,8.64,0,0,1-4,2.38c-.14-.69-.27-1.48-.37-2.4-.08-.66-.17-1.3-.29-1.91l.19-.09a1.57,1.57,0,0,0,.75-.85c0-.08,2.8-8-4.52-12.61a9.94,9.94,0,0,0-4.8-1.59c-1-4.56-4.32-8.48-8-9.2A8,8,0,0,0,19,.08a5.43,5.43,0,0,0-3.8,1.42,5.74,5.74,0,0,0-.59.66,7.27,7.27,0,0,0-2-.29A11.31,11.31,0,0,0,8.26,3,14.19,14.19,0,0,1,2.51,4.34l-.75,0-.34,0A1.42,1.42,0,0,0,.26,6.53l.16.23a9,9,0,0,0,7,3.41c.29,0,.59,0,.9,0l.38,0-.08,0a8.94,8.94,0,0,1-4,.9,9.18,9.18,0,0,1-1.5-.11l-.31-.07a1.33,1.33,0,0,0-.28,0,1.42,1.42,0,0,0-1.16,2.23l.17.25a14.88,14.88,0,0,0,3.81,3.46A7.56,7.56,0,0,0,4,18.16c-3,4.1-1.79,11.25-1.62,12.14a1.53,1.53,0,0,0,1.23,1.15A32.61,32.61,0,0,0,9,32c-.05.1-.09.21-.13.31-2.11,5-3.7,6.16-4.09,6.19A1.42,1.42,0,0,0,3.42,39.9v.25a1.44,1.44,0,0,0,1.43,1.4c.36,0,8.19,0,12.9-4a38.46,38.46,0,0,0,3.45,4c3.71,3.76,6,13.86,2.63,28-.71,3.09-1.67,6.14-2.7,9.36-2.53,8-5.4,17-5.66,30.56.1,18.66,7.58,24.36,12,26.1a13.53,13.53,0,0,0,4.94.93,11.17,11.17,0,0,0,8-3.07c2-2.11.53-5.12-1.85-10.1-2.49-5.21-5.9-12.34-7.31-22A62.3,62.3,0,0,1,31.77,81c1.46-6.86,4.31-11.42,8.23-13.2,1.85-.85,3.51-1.52,5.12-2.17,5.6-2.25,10-4,16-10.66l1.24-1.41a8.15,8.15,0,0,0,.15,1.17c.19,1,.37,1.87.53,2.68.63,3,.86,4.19.36,5.87l-.08.25A1.41,1.41,0,0,0,63.7,65a1.35,1.35,0,0,0,1,.37,1.47,1.47,0,0,0,.54-.1l.24-.1a15,15,0,0,0,6.88-6.32,30.31,30.31,0,0,0,4.78.87h.14A1.57,1.57,0,0,0,78.48,59a14.18,14.18,0,0,0,2-7.24c.22.13.44.28.64.42a13.74,13.74,0,0,0,7.91,2.14h.12a22.91,22.91,0,0,0,4.34-.44l.6-.13a1.42,1.42,0,0,0,0-2.78Zm-.86,1.53a21.7,21.7,0,0,1-4,.4h-.11A12.43,12.43,0,0,1,82,51.07a13.74,13.74,0,0,0-3.09-1.63,12.94,12.94,0,0,1-1.6,8.8l0,.07h-.08a27.28,27.28,0,0,1-5.66-1.18c-1.73,4.67-6.57,6.7-6.63,6.73l-.24.1.08-.26c.6-2,.31-3.43-.33-6.55-.16-.78-.34-1.66-.53-2.67a6.78,6.78,0,0,1,.93-5.13,7.24,7.24,0,0,1,0-.81L63.3,50.28c-.86,1-1.92,2.25-3.27,3.75-5.72,6.39-10,8.11-15.44,10.3-1.62.65-3.31,1.33-5.18,2.19-4.35,2-7.47,6.88-9,14.2a63.81,63.81,0,0,0-.49,20.78c1.44,9.87,4.91,17.12,7.44,22.41,2.12,4.44,3.4,7.12,2.09,8.53a9.74,9.74,0,0,1-7,2.61,12.29,12.29,0,0,1-4.43-.83c-4.12-1.61-11-7-11.13-24.79h0c.26-13.3,3.09-22.24,5.59-30.12,1-3.26,2-6.33,2.73-9.47,3.69-15.63.69-25.54-3-29.29a35.42,35.42,0,0,1-4.27-5.19c-4,4.7-12.73,4.77-13.09,4.77h0v-.25c1.51-.06,3.45-2.63,5.33-7.05a15.59,15.59,0,0,1,1.24-2.42,19.64,19.64,0,0,1-2.36.13,30.52,30.52,0,0,1-5.24-.49H3.72l0-.09C3.65,29.66,2.38,22.68,5.09,19A5.67,5.67,0,0,1,8.6,16.87a14.09,14.09,0,0,1-5.9-4.35l-.18-.26.31.06a10.88,10.88,0,0,0,6.45-.91,7.4,7.4,0,0,1,3.83-.93,5.44,5.44,0,0,1-.27-.54A7.58,7.58,0,0,0,8.2,8.72,7.54,7.54,0,0,1,1.57,5.93l-.15-.21h.26A15.1,15.1,0,0,0,8.8,4.29c2.1-.85,3.93-1.57,6.44-.37a3.85,3.85,0,0,1,.94-1.38,4.34,4.34,0,0,1,4.05-.91c3.59.7,6.66,4.91,7.13,9.29a7.7,7.7,0,0,1,5.23,1.32c6.35,4,4,10.85,3.95,10.92l0,.05-.05,0a6.86,6.86,0,0,1-1.19.41,22.59,22.59,0,0,1,.53,3,18.65,18.65,0,0,0,1.39,5.73,6.78,6.78,0,0,1,3,.47,4,4,0,0,1,2.07,1.56,20.59,20.59,0,0,1,1.94-2.3,25.9,25.9,0,0,1-7.52-1.3l-.11,0,0-.11c0-.08.06-.09.33-.15a10.51,10.51,0,0,0,5.72-3.06,7.93,7.93,0,0,1,5.26-3c-1-4.21,1-6.77,3-8.88A15.57,15.57,0,0,0,54.1,10.1l.24.06c-.28,1.23.07,3.64.41,6,.19,1.31.38,2.65.48,3.82a5.13,5.13,0,0,1,1-.2A5,5,0,0,1,59.8,21.2a8.5,8.5,0,0,1,3.84.93c2.76,1.33,7.17-.47,7.21-.49l.23-.09-.06.24a9.79,9.79,0,0,1-1.1,2.54,6.94,6.94,0,0,1-4.22,3.32,10.43,10.43,0,0,1-2.4.29l-.46,0a7.93,7.93,0,0,1-.27,2.13l0,.08h-.07a19.78,19.78,0,0,1-3.59.34l-.64,0a5.46,5.46,0,0,1-.58,0,8.34,8.34,0,0,1-.49,5.45,45.42,45.42,0,0,0-3,8.66c.3-.39.58-.8.88-1.24a23.2,23.2,0,0,1,2.48-3.15,8.39,8.39,0,0,1,2.92-2,6.6,6.6,0,0,1,1.68-5.63c2.42-2.29,4.61-1.92,5.43-1.66a3.27,3.27,0,0,1,.33.14c1.62-2.51,4.17-3.38,7.35-4.18,4.49-1.2,6-2.65,6-2.67l.18.17a8.65,8.65,0,0,0-1.62,4.06,9.8,9.8,0,0,1-3.07,6.06,6.78,6.78,0,0,1-3.9,1.71A10,10,0,0,0,78,38h.15c6.26-.15,9.46,2.12,11.49,8.1l.09.27-.26-.12a28.6,28.6,0,0,0-5.4-1.62,14.71,14.71,0,0,1,2.64,3.07c1.43,2,2.78,3.94,6.51,4.62l.61.12ZM59.29,31.89c.57,0,1.1-.05,1.56-.09A7.67,7.67,0,0,0,59,37.3a10.05,10.05,0,0,0-1.25.78c.23-.55.47-1.07.72-1.55A8.51,8.51,0,0,0,59.29,31.89Z"/></svg>