<svg id="圖層_1" data-name="圖層 1" xmlns="http://www.w3.org/2000/svg" viewBox="0 0 169.65 85.23"><defs><style>.cls-1{fill:#fff;}</style></defs><title>0</title><path class="cls-1" d="M164.75,38.12c0-.54,1.25-1.7,2-2.39,1.64-1.51,4.11-3.79,2.22-6.36a4,4,0,0,0-3.36-1.78,9.79,9.79,0,0,0-4.05,1.25,9,9,0,0,1-3.07,1c-.81,0-1.37-.62-2.22-1.67s-1.75-2.15-3.3-2.15a3.3,3.3,0,0,0-3.08,2.22c-4.55-9.87-15.62-17.38-28.76-19.37a44.52,44.52,0,0,0-6.72-.51A40.53,40.53,0,0,0,98.5,11.53a29,29,0,0,1,.89-2.93c.91-2.49,2.45-3,3.57-3a3.33,3.33,0,0,1,.47,0,.92.92,0,0,0,.29,0,1.42,1.42,0,0,0,1.38-1.11l.06-.25A1.45,1.45,0,0,0,105,3.23a1.43,1.43,0,0,0-.89-.62A5.06,5.06,0,0,0,103,2.49c-1.08,0-4.74.37-6.47,5.05a34.11,34.11,0,0,0-1,3.49,19.51,19.51,0,0,1-.74,2.42c-.94.55-1.82,1.13-2.63,1.71A3.36,3.36,0,0,0,90.3,13a3.93,3.93,0,0,0-1.68-.39,5.86,5.86,0,0,0-3.79,1.9c-.39.36-1,.95-1.29.95a.88.88,0,0,1-.33-.19A7.18,7.18,0,0,1,84,12.84c.93-2,2.19-4.79.33-7.07a2.8,2.8,0,0,0-2-1.06l-.27,0c-1.55,0-3,1.23-4.32,2.41a11.16,11.16,0,0,1-1.54,1.22,1.64,1.64,0,0,1-.69.22.51.51,0,0,1-.17,0c-.21-.07-.76-.4-1.46-2-.08-.17-.16-.36-.28-.64-.8-1.87-2-4.69-4.42-5.61A4.41,4.41,0,0,0,67.7,0a5.49,5.49,0,0,0-2.3.55c-2.21,1-3.17,3.7-2.94,8.11A44.38,44.38,0,0,0,50.87,7.09a42,42,0,0,0-4.23.22,12.84,12.84,0,0,1-5-3.36c-1.37-1.33-2.78-2.7-4.92-2.85l-.39,0c-2.58,0-3.88,1.8-4.75,3a6.36,6.36,0,0,1-.72.89h0a.69.69,0,0,1-.65-.58,1.42,1.42,0,0,0-1.38-1.1,1.63,1.63,0,0,0-.31,0l-.25.06a1.4,1.4,0,0,0-1.06,1.71,3.76,3.76,0,0,0,3.64,3l.43,0a4.19,4.19,0,0,0,2.84-2.15c.77-1.06,1.29-1.71,2.25-1.71h.18c1,.07,1.76.81,3,2a26.12,26.12,0,0,0,2.25,2,32.1,32.1,0,0,0-5.95,2.08A29.68,29.68,0,0,0,30,13.85l-.52.42a1.37,1.37,0,0,0-.26.28A23.35,23.35,0,0,0,26.8,17l0,0c0-.24.1-.47.14-.7.58-2.72,1.29-6.12-2.07-7.35A5.54,5.54,0,0,0,23,8.62a3.78,3.78,0,0,0-1.76.43c-1.85,1-2.44,3.33-3,5.41-.34,1.35-.8,3.21-1.47,3.29s-1.52-2.27-2.06-3.55c-1.13-2.7-2.54-6.07-5.66-6.07a4.42,4.42,0,0,0-1.52.28,4.24,4.24,0,0,0-2.65,2.36c-1,2.43.46,5.49,1.88,8.45.65,1.36,1.73,3.63,1.55,4.24s-1.78.86-2.87,1.11c-1.83.42-3.91.9-4.91,2.51a4,4,0,0,0-.38,3.14c.72,3,4.12,3,5.24,3S7.82,33,9,32.92s2.17-.22,3.05-.22a4.64,4.64,0,0,1,1.22.12,11.32,11.32,0,0,1-2.72,1.82C8.42,35.85,6.17,37.1,5.74,39.3a4.33,4.33,0,0,0,1.1,3.61,4.81,4.81,0,0,0,3.86,2c2.48,0,4.8-1.81,6.85-3.41a11.53,11.53,0,0,1,3-1.94c.05.21.09.57.12.83.17,1.42.47,4.06,3.86,4.72a3.91,3.91,0,0,0,.67.07h0c4.29,7.74,12,14.28,21.3,18.05a45.67,45.67,0,0,0,17,3.39A38.94,38.94,0,0,0,70.63,66l.45.3a11.28,11.28,0,0,0,6.08,2,8.88,8.88,0,0,0,3.52-.73,16.69,16.69,0,0,0,3.46-2.16l0,0A8.09,8.09,0,0,0,86,68.4c.56.68,1.13,1.39,1.13,1.85s-1.37,1-2.11,1.39c-1.89.91-4.74,2.29-4.3,5.5a3.85,3.85,0,0,0,2.58,3.16,6.07,6.07,0,0,0,2.23.39,9.25,9.25,0,0,0,5.71-2.07,3,3,0,0,1,1.61-.86l.11,0c.67.14,1.48,1.83,1.83,2.55a4.5,4.5,0,0,0,4,2.75h.19c1.93-.09,3.53-1.52,4.4-3.92a23.39,23.39,0,0,0,.94-4,9.07,9.07,0,0,1,.67-2.66H105a6.36,6.36,0,0,1,.87,1.57c.69,1.49,1.73,3.74,4.12,3.74h.15c3.53-.15,3.84-3.51,4-5.74.15-1.66.3-3.23,1.19-3.91a10,10,0,0,1,3.36-1.61,3.71,3.71,0,0,0,1.89,1.39,12,12,0,0,0,1.8.37c1.64.24,1.82.26,1.76,2l0,.45a16.69,16.69,0,0,0,.19,4.33,4.33,4.33,0,0,0,4.3,3.42H129a4.37,4.37,0,0,0,4.08-4.12l0-.31a11.64,11.64,0,0,1,.11-1.18c.17.62.34,1.53.46,2.22.55,3.07,1.3,7.28,5,8.07a6.35,6.35,0,0,0,1.31.15,3.61,3.61,0,0,0,2-.57c1.31-.87,1.6-2.41,1.83-3.66a5.21,5.21,0,0,1,.44-1.6,15,15,0,0,1,1,1.7c1.32,2.41,3.33,6.07,7.52,6.07l.43,0a3.91,3.91,0,0,0,2.91-1.58,3.84,3.84,0,0,0,.65-3.19,9.22,9.22,0,0,0-3.38-4.67,9.76,9.76,0,0,1-1.12-1.06c.19-.24.49-.31,1.39-.36s3-.18,3.5-2.36a3.1,3.1,0,0,0-.79-2.8c-1.63-1.91-5.36-2.93-8-2.93-.28,0-.56,0-.83,0l-1,0c1.3-.72,3.39-2.16,2.59-4.92a3,3,0,0,0-1.72-1.93,5.73,5.73,0,0,0-2.45-.46,21.27,21.27,0,0,0-7.65,1.9,4.83,4.83,0,0,1-.59.2,1.7,1.7,0,0,1,.47-1.6,33.92,33.92,0,0,0,3.18-1.75l.36-.23a1.09,1.09,0,0,0,.17-.13l.87-.6c2.29,1.21,6.69,1.78,9.48,1.78,2.61,0,4.54-.4,5.74-1.2,2.93-1.91,1.73-4.56,1-6.14a5.89,5.89,0,0,1-.74-2.48c.18-.12.83-.39,3-.39.67,0,1.36,0,2,0s1.28,0,1.84,0a5.25,5.25,0,0,0,3.26-.7,3.52,3.52,0,0,0,1.4-2.67c.1-1.86-1.13-4-3.66-6.5C165,38.52,164.74,38.28,164.75,38.12Zm1.71,8.55c-.6.46-2.26.41-4.18.35-3-.09-6.31-.2-6.48,1.53a6.6,6.6,0,0,0,.87,3.3c.73,1.6,1.42,3.12-.49,4.37a9.94,9.94,0,0,1-5,1c-3.93,0-8.55-1-9.51-2.1-.58.44-1.17.87-1.79,1.27h0l-.36.23,0,0h0a32.55,32.55,0,0,1-3.24,1.77l-.05,0a3,3,0,0,0-.74,3.52c.45.65,1.3.76,2.34.3,3-1.32,7-2.34,8.93-1.46a1.66,1.66,0,0,1,.95,1c.58,2-1.1,2.86-2.32,3.49-.61.32-1.18.62-1.29,1s-.13.76,0,1c.36.45,1.48.6,3.43.45,2.81-.22,6.4.91,7.69,2.41a1.74,1.74,0,0,1,.48,1.56c-.27,1.15-1.21,1.2-2.2,1.26s-2,.13-2.66,1.27c-.47.9.42,1.67,1.54,2.65a8,8,0,0,1,2.94,3.92,2.48,2.48,0,0,1-.42,2,2.53,2.53,0,0,1-1.85,1h-.35c-3.35,0-5-3.07-6.28-5.34-.83-1.52-1.5-2.71-2.32-2.55-1.28.27-1.52,1.54-1.77,2.88-.2,1.08-.41,2.2-1.23,2.74a2.84,2.84,0,0,1-2.26.21c-2.72-.59-3.35-4.11-3.86-6.93-.31-1.77-.59-3.29-1.26-3.73a.8.8,0,0,0-.65-.09c-1.3.31-1.38,1.53-1.47,2.94l0,.31a3,3,0,0,1-6,.48,16.05,16.05,0,0,1-.15-4v-.44c.11-3-1.25-3.19-3-3.44a11.78,11.78,0,0,1-1.59-.32,2.77,2.77,0,0,1-1.64-1.77l-1.07.37A11.44,11.44,0,0,0,114.48,67c-1.39,1.07-1.57,3-1.74,4.91-.2,2.24-.39,4.36-2.69,4.45H110c-1.48,0-2.2-1.55-2.83-2.92-.53-1.15-1-2.23-1.88-2.36-1.71-.27-2,1.44-2.41,3.81a21.39,21.39,0,0,1-.88,3.78c-.66,1.83-1.8,2.92-3.13,3h-.12A3.07,3.07,0,0,1,96,79.72c-.74-1.54-1.57-3.06-2.81-3.33-.83-.18-1.78.19-2.92,1.15-1.82,1.52-4.69,2.16-6.53,1.44a2.47,2.47,0,0,1-1.69-2c-.29-2.19,1.73-3.17,3.52-4,1.49-.73,2.91-1.41,2.91-2.67a4.77,4.77,0,0,0-1.45-2.74c-1.06-1.31-2.15-2.66-1.19-4.36a3.06,3.06,0,0,1,.7-.86,10.53,10.53,0,0,0-3.28,1.9,15.51,15.51,0,0,1-3.18,2,7.32,7.32,0,0,1-3,.61,10,10,0,0,1-5.32-1.73c-.31-.2-.6-.41-.88-.62a37.4,37.4,0,0,1-7.47.74A44.19,44.19,0,0,1,47,61.9C37.41,58,29.9,51.26,26,43.56a1.94,1.94,0,0,1-.79.18,3,3,0,0,1-.41,0c-2.36-.46-2.55-2.14-2.71-3.49-.13-1.14-.23-2-1.45-2.09h-.06c-1,0-2.38,1.09-3.86,2.24C13.93,42.51,10.49,45.19,8,42a3,3,0,0,1-.82-2.45c.3-1.56,2.26-2.65,4.15-3.7s3.49-1.93,3.5-3.12a1.19,1.19,0,0,0-.36-.93c-.87-.79-3.12-.56-5.52-.32-3.35.33-6.81.68-7.37-1.62a2.62,2.62,0,0,1,.21-2.06c.69-1.11,2.38-1.5,4-1.87,1.81-.42,3.53-.81,3.91-2.09S9.05,20.73,8,18.61c-1.28-2.68-2.6-5.45-1.84-7.3A2.87,2.87,0,0,1,8,9.74c2.88-1,4.22,2.18,5.4,5,1,2.36,1.92,4.61,3.58,4.4s2.1-2.21,2.64-4.35c.47-1.87,1-3.81,2.26-4.5a3,3,0,0,1,2.49,0c2.2.81,1.74,3,1.17,5.73A18.85,18.85,0,0,0,25,22.43c.23-.47.47-.94.74-1.4h0l.07-.12.06-.1h0a22.43,22.43,0,0,1,1.79-2.58h0l.07-.08.09-.11h0a21.11,21.11,0,0,1,2.66-2.69l-.09,0,.52-.43a28.79,28.79,0,0,1,5.44-3.4h0a32.55,32.55,0,0,1,9.54-2.72,14.53,14.53,0,0,1-5.41-3.68c-1.26-1.22-2.34-2.28-3.87-2.39h-.28C34.58,2.75,33.7,4,32.92,5c-.59.81-1.09,1.5-1.84,1.58h-.29a2.44,2.44,0,0,1-2.27-1.88l.25-.06a2.12,2.12,0,0,0,2.28,1.68c.64-.07,1.12-.72,1.66-1.47.78-1.08,1.74-2.4,3.6-2.4h.3c1.61.12,2.73,1.2,4,2.46a14,14,0,0,0,5.85,3.79,42.23,42.23,0,0,1,17.57,1.85c-.45-3.73-.34-7.7,1.94-8.78a3.47,3.47,0,0,1,2.76-.22c1.86.71,2.92,3.2,3.62,4.85.11.24.2.47.29.67.7,1.54,1.45,2.43,2.3,2.72a2.4,2.4,0,0,0,2-.29,11.44,11.44,0,0,0,1.81-1.39c1.2-1,2.47-2.15,3.52-2a1.36,1.36,0,0,1,1,.55c1.31,1.59.34,3.71-.52,5.58-.78,1.7-1.45,3.17-.48,4,1.35,1.17,2.35.28,3.51-.75s2.29-2,3.92-1.29c1,.46,1.31,1.85,1.26,3.62.35-.31.71-.61,1.07-.87h0a29.81,29.81,0,0,1,3.77-2.52,15.47,15.47,0,0,0,1-3.06,35,35,0,0,1,1-3.36c1.44-3.92,4.53-4.35,6-4l0,.25c-.16,0-3.94-.81-5.66,3.87a31.89,31.89,0,0,0-1,3.34,18.28,18.28,0,0,1-.89,2.79C103.11,10.43,112,9,120.92,10.31c13.37,2,24.48,9.92,28.34,20.12h0l0,.06h0l.08.2h0a25.25,25.25,0,0,1,1,3.85,1.27,1.27,0,0,0,.32-.76c.08-.7.11-1.38.13-2.05.08-2,.14-3.68,1.62-4.17,1.17-.39,1.93.55,2.74,1.55s1.77,2.18,3.31,2.18h.11a9.87,9.87,0,0,0,3.57-1.18c2.05-1,4.16-2,5.66.09,1.14,1.55-.48,3-2,4.48-1.2,1.11-2.45,2.26-2.46,3.41a2.09,2.09,0,0,0,.75,1.53c2.19,2.13,3.31,4,3.24,5.4A2.18,2.18,0,0,1,166.46,46.67Z"/></svg>