<svg xmlns="http://www.w3.org/2000/svg" width="422.409" height="503.605" viewBox="0 0 422.409 503.605">
  <g id="Group_2776" data-name="Group 2776" transform="translate(-2828.599 -158.43)">
    <g id="Group_2758" data-name="Group 2758" transform="translate(2998.226 158.559)">
      <g id="Group_2753" data-name="Group 2753" transform="translate(58.459 8.739)">
        <path id="Path_8890" data-name="Path 8890" d="M3014.1,166.005s6.014-2.446,11.088.931c0,0-1.034,16.872-1.691,30.121,0,0-12.593,56.609-13.344,56.187s-8.332-12.508-9.24-12.773.5-25.052,3.179-39.9S3009.029,177.108,3014.1,166.005Z" transform="translate(-3000.64 -165.149)" fill="#ddd658" stroke="#000" stroke-linejoin="round" stroke-width="0.25"/>
        <path id="Path_8891" data-name="Path 8891" d="M3011.758,176.416a263.336,263.336,0,0,0-5.1,38.52" transform="translate(-2998.681 -161.476)" fill="none" stroke="#000" stroke-linejoin="round" stroke-width="0.25"/>
        <path id="Path_8892" data-name="Path 8892" d="M3014.157,179.251a72.972,72.972,0,0,0-1.574,13.209" transform="translate(-2996.749 -160.552)" fill="none" stroke="#000" stroke-linejoin="round" stroke-width="0.25"/>
      </g>
      <g id="Group_2754" data-name="Group 2754" transform="translate(0 30.259)">
        <path id="Path_8893" data-name="Path 8893" d="M2956.554,190.747s3.833-9.368,9.609-9.368c2.163,0,6.247,3.123,18.5,16.336s28.336,33.331,32.49,46.6l-2.645,6.2L3004.7,245.6a44.826,44.826,0,0,0-9.087-16.284c-6.8-7.683-13.315-17.925-22.015-25.621A148.031,148.031,0,0,0,2956.554,190.747Z" transform="translate(-2956.554 -181.379)" fill="#ddd658" stroke="#000" stroke-linejoin="round" stroke-width="0.25"/>
        <path id="Path_8894" data-name="Path 8894" d="M2966.629,187.612s10.291,8.533,16.941,16.229,19.532,23.019,24.384,35.1" transform="translate(-2953.269 -179.347)" fill="none" stroke="#000" stroke-linejoin="round" stroke-width="0.25"/>
        <path id="Path_8895" data-name="Path 8895" d="M2964.357,190.213s9.955,5.254,19.952,18.219,16.521,18.919,21.038,29.661" transform="translate(-2954.01 -178.499)" fill="none" stroke="#000" stroke-linejoin="round" stroke-width="0.25"/>
      </g>
      <g id="Group_2755" data-name="Group 2755" transform="translate(42.679)">
        <path id="Path_8896" data-name="Path 8896" d="M3005.859,253.143c0-2.718-.729-8.2-4.075-16.9s-7.432-27.94-10.325-42.327c-2.309-11.487-2.668-25.32-2.718-30.431a3.758,3.758,0,0,1,1.882-3.322,10.8,10.8,0,0,1,6.768-1.518,3.781,3.781,0,0,1,3.109,2.844c.849,3.44,2.455,11.312,3.292,24.228,1.171,18.069,5.353,43.165,6.859,53.2s1.841,11.935,1.841,11.935Z" transform="translate(-2988.741 -158.559)" fill="#ddd658" stroke="#000" stroke-linejoin="round" stroke-width="0.25"/>
        <path id="Path_8897" data-name="Path 8897" d="M2995.3,166.5s1.5,11.28,3.178,27.844,7.362,38.814,7.362,38.814" transform="translate(-2986.603 -155.971)" fill="none" stroke="#000" stroke-linejoin="round" stroke-width="0.25"/>
        <path id="Path_8898" data-name="Path 8898" d="M2991.891,166.5s2.341,15.128,3.679,26.672,5.02,33.8,8.2,39.986" transform="translate(-2987.713 -155.971)" fill="none" stroke="#000" stroke-linejoin="round" stroke-width="0.25"/>
      </g>
      <g id="Group_2756" data-name="Group 2756" transform="translate(74.294 37.665)">
        <path id="Path_8899" data-name="Path 8899" d="M3012.583,240.892c.167-.857,3.56-10.56,13.492-21.937a196.449,196.449,0,0,1,31.951-29.88c1.091-.815,2.249-2.135,5.022-2.111,4.447.04,7.559,4.511,7.054,8.8s-3.271,5.312-8.583,9.9-17.754,17.754-22.265,24.447-11.893,19.428-13.248,25.012Z" transform="translate(-3012.583 -186.964)" fill="#ddd658" stroke="#000" stroke-linejoin="round" stroke-width="0.25"/>
        <path id="Path_8900" data-name="Path 8900" d="M3020.221,233.7c.365-1.091,6.423-12.36,15.995-21.205s21.569-19.63,21.569-19.63" transform="translate(-3010.093 -185.04)" fill="none" stroke="#000" stroke-linejoin="round" stroke-width="0.25"/>
        <path id="Path_8901" data-name="Path 8901" d="M3051.8,199.079s-12.359,13.207-16.965,19.751-8.526,13.451-8.526,13.451" transform="translate(-3008.108 -183.014)" fill="none" stroke="#000" stroke-linejoin="round" stroke-width="0.25"/>
      </g>
      <g id="Group_2757" data-name="Group 2757" transform="translate(64.66 7.621)">
        <path id="Path_8902" data-name="Path 8902" d="M3005.319,246.192s.751-10.925,5.732-26.329,12.5-30.088,19.452-40.035c4.753-6.8,8.1-11.411,9.745-13.648a4.573,4.573,0,0,1,3.559-1.867,11.693,11.693,0,0,1,6.2,1.468,4.571,4.571,0,0,1,2.041,5.308,94.768,94.768,0,0,1-7.779,17.891c-6.625,11.91-16.348,29.034-19.121,45.87s-10.128,21.672-10.128,21.672Z" transform="translate(-3005.319 -164.306)" fill="#ddd658" stroke="#000" stroke-linejoin="round" stroke-width="0.25"/>
        <path id="Path_8903" data-name="Path 8903" d="M3011.555,231.253s.563-14.986,25.385-55.913" transform="translate(-3003.284 -160.71)" fill="none" stroke="#000" stroke-linejoin="round" stroke-width="0.25"/>
        <path id="Path_8904" data-name="Path 8904" d="M3017.082,225.362s7.707-25.465,20.675-48.207" transform="translate(-3001.483 -160.118)" fill="none" stroke="#000" stroke-linejoin="round" stroke-width="0.25"/>
      </g>
      <path id="Path_8905" data-name="Path 8905" d="M2995.518,230.436a5.36,5.36,0,0,1,5.754,0c3.115,1.89,5.427.473,7.551-2.311s5.759-3.209,9.25-.472,6.891-.686,11.752,3.645a20.78,20.78,0,0,1,6.135,8.957s-.5,19-.334,30.769-1.252,26.363-1.252,26.363l-4.756,27.416s-21.5,43.049-21.5,42.308-19.759,10.836-19.759,10.836-4.323-19.987-4.138-21.153,1.11-18.946,3-35.7,3.991-31.033,5.252-40.485,1.68-20.9,2.521-29.669S2993.938,235.293,2995.518,230.436Z" transform="translate(-2947.536 -136.638)" fill="#c19165" stroke="#000" stroke-linejoin="round" stroke-width="0.25"/>
      <path id="Path_8906" data-name="Path 8906" d="M2984.614,245.128c5.344-1.966,7.714-8.066,12.6-8.318" transform="translate(-2947.407 -133.05)" fill="none" stroke="#000" stroke-linejoin="round" stroke-width="0.25"/>
      <path id="Path_8907" data-name="Path 8907" d="M2991.864,244.281a29.4,29.4,0,0,0,5.307,1.132" transform="translate(-2945.044 -130.615)" fill="none" stroke="#000" stroke-linejoin="round" stroke-width="0.25"/>
      <path id="Path_8908" data-name="Path 8908" d="M3004.077,241.6a27.025,27.025,0,0,0,7.309,0" transform="translate(-2941.062 -131.489)" fill="none" stroke="#000" stroke-linejoin="round" stroke-width="0.25"/>
      <path id="Path_8909" data-name="Path 8909" d="M3010.654,248.709c.1,3.528,5.9,6.955,6.7,9.677" transform="translate(-2938.919 -129.171)" fill="none" stroke="#000" stroke-linejoin="round" stroke-width="0.25"/>
      <path id="Path_8910" data-name="Path 8910" d="M3003.507,257.186c5.041,3.73,18.751,2.822,25.165,0" transform="translate(-2941.248 -126.408)" fill="none" stroke="#000" stroke-linejoin="round" stroke-width="0.25"/>
      <path id="Path_8911" data-name="Path 8911" d="M2995.144,263.2a14.12,14.12,0,0,1,4.184.483" transform="translate(-2943.974 -124.454)" fill="none" stroke="#000" stroke-linejoin="round" stroke-width="0.25"/>
      <path id="Path_8912" data-name="Path 8912" d="M3005.028,269.122a17.961,17.961,0,0,0,7.762.554" transform="translate(-2940.752 -122.517)" fill="none" stroke="#000" stroke-linejoin="round" stroke-width="0.25"/>
      <path id="Path_8913" data-name="Path 8913" d="M3000.124,278.509s8.216,2.067,14.265-.3" transform="translate(-2942.351 -119.555)" fill="none" stroke="#000" stroke-linejoin="round" stroke-width="0.25"/>
      <path id="Path_8914" data-name="Path 8914" d="M3014.8,272.657c.352,4.184,3.225,5.846,2.621,8.5" transform="translate(-2937.568 -121.365)" fill="none" stroke="#000" stroke-linejoin="round" stroke-width="0.25"/>
      <path id="Path_8915" data-name="Path 8915" d="M2988.159,279.876a91.594,91.594,0,0,1,9.614,1.92c5.344,1.36,12.451.756,12.451.756" transform="translate(-2946.251 -119.011)" fill="none" stroke="#000" stroke-linejoin="round" stroke-width="0.25"/>
      <path id="Path_8916" data-name="Path 8916" d="M2979.249,298.577c4.854.064,8.692-8.759,14.142-7.9" transform="translate(-2949.155 -115.51)" fill="none" stroke="#000" stroke-linejoin="round" stroke-width="0.25"/>
      <path id="Path_8917" data-name="Path 8917" d="M2982.778,274.122c3.173-.015,4.854-8.942,10.625-10.076" transform="translate(-2948.005 -124.172)" fill="none" stroke="#000" stroke-linejoin="round" stroke-width="0.25"/>
      <path id="Path_8918" data-name="Path 8918" d="M2996.479,292.2c3.027-.695,14.569,5.033,21.685-.521" transform="translate(-2943.539 -115.163)" fill="none" stroke="#000" stroke-linejoin="round" stroke-width="0.25"/>
      <path id="Path_8919" data-name="Path 8919" d="M2993.223,304.207a20.014,20.014,0,0,0,14.319.955" transform="translate(-2944.6 -111.08)" fill="none" stroke="#000" stroke-linejoin="round" stroke-width="0.25"/>
      <path id="Path_8920" data-name="Path 8920" d="M2989.914,318.227c3.5.269,7.861,3,11.942,1.26" transform="translate(-2945.679 -106.51)" fill="none" stroke="#000" stroke-linejoin="round" stroke-width="0.25"/>
      <path id="Path_8921" data-name="Path 8921" d="M3017.806,242.04c2.378,3.941,8.7,5.163,11.276,7.134" transform="translate(-2936.586 -131.345)" fill="none" stroke="#000" stroke-linejoin="round" stroke-width="0.25"/>
    </g>
    <g id="Group_2759" data-name="Group 2759" transform="translate(3044.264 242.608)">
      <path id="Path_8922" data-name="Path 8922" d="M3067.373,222.474c7.484-1.343,21.691-1.333,29.6,15.139l-10.416,56.037-55.572,119.723-24.606-9.031-15.1-32.07s13.485-19.971,22.532-38.993,18.724-37.536,23.353-51.632c4.285-13.048,16.578-37.309,23.686-54.01A8.742,8.742,0,0,1,3067.373,222.474Z" transform="translate(-2991.274 -221.945)" fill="#ecb36f" stroke="#000" stroke-linejoin="round" stroke-width="0.25"/>
      <path id="Path_8923" data-name="Path 8923" d="M3037.779,229.4c6.416.752,7.783-2.946,12.833-3.367" transform="translate(-2976.114 -220.612)" fill="none" stroke="#231815" stroke-miterlimit="10" stroke-width="0.25"/>
      <path id="Path_8924" data-name="Path 8924" d="M3054.8,236.814c1.013.337,8.21,2.249,11.021,5.4" transform="translate(-2970.566 -217.098)" fill="none" stroke="#000" stroke-linejoin="round" stroke-width="0.25"/>
      <path id="Path_8925" data-name="Path 8925" d="M3041.594,231.142a18.588,18.588,0,0,0,7.774,2.46" transform="translate(-2974.87 -218.947)" fill="none" stroke="#000" stroke-linejoin="round" stroke-width="0.25"/>
      <path id="Path_8926" data-name="Path 8926" d="M3030.629,244.863c4.61,1.349,7.534-2.25,11.921-1.124" transform="translate(-2978.445 -214.913)" fill="none" stroke="#000" stroke-linejoin="round" stroke-width="0.25"/>
      <path id="Path_8927" data-name="Path 8927" d="M3054.311,243.005c-3.373,5.848,2.7,10.121-1.461,14.395" transform="translate(-2971.201 -215.08)" fill="none" stroke="#000" stroke-linejoin="round" stroke-width="0.25"/>
      <path id="Path_8928" data-name="Path 8928" d="M3044.525,253.352c6.552,4.14,18.237,9.559,20.147,14.169" transform="translate(-2973.915 -211.707)" fill="none" stroke="#000" stroke-linejoin="round" stroke-width="0.25"/>
      <path id="Path_8929" data-name="Path 8929" d="M3061.2,234.384s5.838,1.424,7.663,3.757" transform="translate(-2968.478 -217.89)" fill="none" stroke="#000" stroke-linejoin="round" stroke-width="0.25"/>
      <path id="Path_8930" data-name="Path 8930" d="M3019.318,267.71c6.692-1.067,9.327-9.888,16.627-8.266" transform="translate(-2982.132 -209.786)" fill="none" stroke="#000" stroke-linejoin="round" stroke-width="0.25"/>
      <path id="Path_8931" data-name="Path 8931" d="M3024,272.128a26.825,26.825,0,0,1,7.272,3.291" transform="translate(-2980.605 -205.586)" fill="none" stroke="#000" stroke-linejoin="round" stroke-width="0.25"/>
      <path id="Path_8932" data-name="Path 8932" d="M3037.9,264.038s5.069,1.143,7.3,3.172" transform="translate(-2976.075 -208.223)" fill="none" stroke="#000" stroke-linejoin="round" stroke-width="0.25"/>
      <path id="Path_8933" data-name="Path 8933" d="M3040.65,275.879c.406-.058,2.37.55,5.138,3.287" transform="translate(-2975.178 -204.365)" fill="none" stroke="#000" stroke-linejoin="round" stroke-width="0.25"/>
      <path id="Path_8934" data-name="Path 8934" d="M3049.891,264.038c-1.421,2.157,3.345,6.672,1.622,12.373" transform="translate(-2972.253 -208.223)" fill="none" stroke="#000" stroke-linejoin="round" stroke-width="0.25"/>
      <path id="Path_8935" data-name="Path 8935" d="M3037.739,283.264s-3.953.541-5.576,6.6" transform="translate(-2977.945 -201.956)" fill="none" stroke="#000" stroke-linejoin="round" stroke-width="0.25"/>
      <path id="Path_8936" data-name="Path 8936" d="M3029.946,290.668s12.878,5.126,18.655,14.677" transform="translate(-2978.667 -199.542)" fill="none" stroke="#000" stroke-linejoin="round" stroke-width="0.25"/>
      <path id="Path_8937" data-name="Path 8937" d="M3016.233,289.43s6.626.93,8.957,3.262" transform="translate(-2983.138 -199.946)" fill="none" stroke="#000" stroke-linejoin="round" stroke-width="0.25"/>
      <path id="Path_8938" data-name="Path 8938" d="M3012.237,297.671c2.884,2.046,15.27,4.877,20.237,12.951" transform="translate(-2984.441 -197.259)" fill="none" stroke="#000" stroke-linejoin="round" stroke-width="0.25"/>
      <path id="Path_8939" data-name="Path 8939" d="M3031.747,302.149c-1.23,1.623,4.019,7.788,2.241,10.524" transform="translate(-2978.142 -195.8)" fill="none" stroke="#000" stroke-linejoin="round" stroke-width="0.25"/>
      <path id="Path_8940" data-name="Path 8940" d="M3029.946,310.344s2.741,1.745,3.539,3.539" transform="translate(-2978.667 -193.128)" fill="none" stroke="#000" stroke-linejoin="round" stroke-width="0.25"/>
      <path id="Path_8941" data-name="Path 8941" d="M3015.441,312.325s6.723,2.644,9.892,5.842" transform="translate(-2983.395 -192.483)" fill="none" stroke="#000" stroke-linejoin="round" stroke-width="0.25"/>
      <path id="Path_8942" data-name="Path 8942" d="M3011.073,319.177s12.825,4.438,17.462,9.306" transform="translate(-2984.82 -190.249)" fill="none" stroke="#000" stroke-linejoin="round" stroke-width="0.25"/>
      <path id="Path_8943" data-name="Path 8943" d="M3000.582,313.471c5.15,1.413,8.037-6.2,14.913-4.377" transform="translate(-2988.239 -193.629)" fill="none" stroke="#000" stroke-linejoin="round" stroke-width="0.25"/>
      <path id="Path_8944" data-name="Path 8944" d="M2998.063,324.591s12.768,2.745,19.336,10.318" transform="translate(-2989.061 -188.484)" fill="none" stroke="#000" stroke-linejoin="round" stroke-width="0.25"/>
      <path id="Path_8945" data-name="Path 8945" d="M3006.643,338.841c.927.077,18.077,9.405,21.981,17.568" transform="translate(-2986.264 -183.839)" fill="none" stroke="#000" stroke-linejoin="round" stroke-width="0.25"/>
      <path id="Path_8946" data-name="Path 8946" d="M3028.146,328.481s3.772,3.3,4.437,4.73" transform="translate(-2979.254 -187.216)" fill="none" stroke="#000" stroke-linejoin="round" stroke-width="0.25"/>
    </g>
    <g id="Group_2764" data-name="Group 2764" transform="translate(3068.18 163.264)">
      <g id="Group_2760" data-name="Group 2760" transform="translate(101.431 5.531)">
        <path id="Path_8947" data-name="Path 8947" d="M3091.545,225.85A245.837,245.837,0,0,1,3104.42,194.2c7.6-15.047,12.722-26.062,16.135-27.924,0,0,12.877,1.241,16.6,9.929l-29.787,44.66s-13.5,26.081-15.2,25.615a68.068,68.068,0,0,1-6.361-2.637Z" transform="translate(-3085.805 -166.278)" fill="#ddd658" stroke="#000" stroke-linejoin="round" stroke-width="0.25"/>
        <path id="Path_8948" data-name="Path 8948" d="M3090.911,237s5.8-15.226,9.518-25.981,14.117-29.991,17.686-35.266" transform="translate(-3084.141 -163.189)" fill="none" stroke="#000" stroke-linejoin="round" stroke-width="0.25"/>
        <path id="Path_8949" data-name="Path 8949" d="M3121,177.627s-9.578,17.959-21.583,39.037" transform="translate(-3081.366 -162.578)" fill="none" stroke="#000" stroke-linejoin="round" stroke-width="0.25"/>
      </g>
      <path id="Path_8950" data-name="Path 8950" d="M3056.549,165.116c.37-2.9,8.879-4.022,9.3-1.939.756,3.749,2.665,9.771,6.245,20.066s6.267,34.24,10.966,51.919,7.088,26.553,5.791,34.214l-15.835,2.332a286.276,286.276,0,0,0-4.271-30.258c-3.081-15.163-7.3-33.16-8.269-43.7S3055.772,171.2,3056.549,165.116Z" transform="translate(-2993.945 -162.107)" fill="#ddd658" stroke="#000" stroke-linejoin="round" stroke-width="0.25"/>
      <path id="Path_8951" data-name="Path 8951" d="M3062.2,175.084c.542,6.337,3.719,21.59,8.741,37.593s7.374,36.844,9.547,44.26" transform="translate(-2992.068 -157.877)" fill="none" stroke="#000" stroke-linejoin="round" stroke-width="0.25"/>
      <path id="Path_8952" data-name="Path 8952" d="M3062.2,189.695s4.526,18.47,7.242,35.129,5.433,27.35,5.433,27.35" transform="translate(-2992.068 -153.114)" fill="none" stroke="#000" stroke-linejoin="round" stroke-width="0.25"/>
      <g id="Group_2761" data-name="Group 2761" transform="translate(91.657 0.793)">
        <path id="Path_8953" data-name="Path 8953" d="M3093.125,164.451c1.268-1.992,6.7-2.172,7.607-1.086s1.266,16.658,0,33.86-7.063,44.273-8.874,52.92-3.439,17.7-3.439,17.7l-9.985-.971s3.828-24.742,5.458-36.331,7.061-30.421,7.786-42.372S3093.125,164.451,3093.125,164.451Z" transform="translate(-3078.434 -162.705)" fill="#ddd658" stroke="#000" stroke-linejoin="round" stroke-width="0.25"/>
        <path id="Path_8954" data-name="Path 8954" d="M3095.593,175.084s-1.268,5.251-2.9,24.625-5.46,36.129-9.054,46.4" transform="translate(-3076.736 -158.669)" fill="none" stroke="#000" stroke-linejoin="round" stroke-width="0.25"/>
      </g>
      <g id="Group_2762" data-name="Group 2762" transform="translate(103.216 38.174)">
        <path id="Path_8955" data-name="Path 8955" d="M3087.152,258.655s6.574-4.8,15.084-17.7c8.444-12.8,37.206-41.418,60.468-50a.891.891,0,0,1,.982.244,12.62,12.62,0,0,1,2.378,11.9.9.9,0,0,1-.353.51,202.7,202.7,0,0,0-19.476,15.57c-8.51,7.968-23.539,18.47-31.144,27.161s-16.382,17.926-16.382,17.926S3088.725,265.717,3087.152,258.655Z" transform="translate(-3087.152 -190.896)" fill="#ddd658" stroke="#000" stroke-linejoin="round" stroke-width="0.25"/>
        <path id="Path_8956" data-name="Path 8956" d="M3095.868,251.079c3.565-5.43,9.616-13.963,21.872-24.978s16.29-19.081,30.716-28.234" transform="translate(-3084.309 -188.624)" fill="none" stroke="#000" stroke-linejoin="round" stroke-width="0.25"/>
        <path id="Path_8957" data-name="Path 8957" d="M3149.849,202.351s-21.251,15.462-29.707,23.84-17.136,15.664-18.074,21.1" transform="translate(-3082.289 -187.162)" fill="none" stroke="#000" stroke-linejoin="round" stroke-width="0.25"/>
      </g>
      <g id="Group_2763" data-name="Group 2763" transform="translate(98.428 6.461)">
        <path id="Path_8958" data-name="Path 8958" d="M3083.675,268.593c-.545-1.085.395-9.928,5.976-21.563s14.887-26.528,21.248-37.7,28.08-39.094,32.578-42.352c0,0,6.981.465,9,6.206,0,0-.156,4.964-10.395,16.909a353.362,353.362,0,0,0-27.769,36.923c-7.137,11.169-9.458,20.477-14.425,28.234s-10.236,15.978-10.236,15.978Z" transform="translate(-3083.54 -166.98)" fill="#ddd658" stroke="#000" stroke-linejoin="round" stroke-width="0.25"/>
        <path id="Path_8959" data-name="Path 8959" d="M3093.878,244.793s9-19.548,18.926-33.354,15.2-22.806,21.72-28.079" transform="translate(-3080.171 -161.64)" fill="none" stroke="#000" stroke-linejoin="round" stroke-width="0.25"/>
        <path id="Path_8960" data-name="Path 8960" d="M3130.113,182.658s-12.567,15.2-21.875,28.389-15.583,24.356-15.583,24.356" transform="translate(-3080.569 -161.869)" fill="none" stroke="#000" stroke-linejoin="round" stroke-width="0.25"/>
      </g>
      <path id="Path_8961" data-name="Path 8961" d="M3046.885,419.417s-12.135,25.911-14.969,30.728-22.607-19.428-22.607-19.428,10.315-29.278,13.309-29.339,18.135,0,18.135,0Z" transform="translate(-3009.31 -84.117)" fill="#ecb36f" stroke="#000" stroke-linejoin="round" stroke-width="0.25"/>
      <path id="Path_8962" data-name="Path 8962" d="M3084.575,245.916c.829-1.768,1.818-3.55,3.617-2.858s3.508.785,5.445-1.338,4.8,1.2,7.1,0,4.751-4.313,8.58-.727,4.475,4,9.827,3.772,4.89,3.967,3.182,8.257-4.174,11.281-7.129,20.488-11.479,34.44-14.321,45.125-32.288,94.451-32.288,94.451a143.791,143.791,0,0,1-7.374,18.076c-4.132,8.069-14.127,0-14.127,0s-31.785-15.128-31.1-15.7,5.28-17.256,11.019-29.917,8.494-21.579,13.314-32.156,11.938-29.86,18.365-44.552,14.684-34.409,17.937-42S3083.032,249.211,3084.575,245.916Z" transform="translate(-3007.134 -136.936)" fill="#ecb36f" stroke="#000" stroke-linejoin="round" stroke-width="0.25"/>
      <path id="Path_8963" data-name="Path 8963" d="M3073.316,251.742c-4.609-1.445-8.495,5.242-14.731,4.609" transform="translate(-2993.247 -132.954)" fill="none" stroke="#000" stroke-linejoin="round" stroke-width="0.25"/>
      <path id="Path_8964" data-name="Path 8964" d="M3077.5,251.752a10.775,10.775,0,0,0,5.979,1.029" transform="translate(-2987.08 -132.884)" fill="none" stroke="#000" stroke-linejoin="round" stroke-width="0.25"/>
      <path id="Path_8965" data-name="Path 8965" d="M3091.513,251.538c4.73.284,4.73,7.705,9.46,7.616" transform="translate(-2982.513 -132.954)" fill="none" stroke="#000" stroke-linejoin="round" stroke-width="0.25"/>
      <path id="Path_8966" data-name="Path 8966" d="M3087.944,256.676c.268.089,3.84,3.212,6.92,1.74" transform="translate(-2983.676 -131.279)" fill="none" stroke="#000" stroke-linejoin="round" stroke-width="0.25"/>
      <path id="Path_8967" data-name="Path 8967" d="M3073.2,259.907s14.917,10.308,23.345,6.894" transform="translate(-2988.482 -130.226)" fill="none" stroke="#000" stroke-linejoin="round" stroke-width="0.25"/>
      <path id="Path_8968" data-name="Path 8968" d="M3085.32,270.811c5.445,2.143,1.207,10.621,6.94,15.351" transform="translate(-2984.532 -126.671)" fill="none" stroke="#000" stroke-linejoin="round" stroke-width="0.25"/>
      <path id="Path_8969" data-name="Path 8969" d="M3070.714,271.888s5.957,5.712,11.992,5.265" transform="translate(-2989.293 -126.32)" fill="none" stroke="#000" stroke-linejoin="round" stroke-width="0.25"/>
      <path id="Path_8970" data-name="Path 8970" d="M3069.3,283.264s8.89,6.036,19.305,4.178" transform="translate(-2989.754 -122.612)" fill="none" stroke="#000" stroke-linejoin="round" stroke-width="0.25"/>
      <path id="Path_8971" data-name="Path 8971" d="M3058.181,286.683c.016-.035,4.48,4.3,8.406,4.124" transform="translate(-2993.378 -121.497)" fill="none" stroke="#000" stroke-linejoin="round" stroke-width="0.25"/>
      <path id="Path_8972" data-name="Path 8972" d="M3060.3,283.264c-8.033.713-11.157,9.818-17.314,9.818" transform="translate(-2998.333 -122.612)" fill="none" stroke="#000" stroke-linejoin="round" stroke-width="0.25"/>
      <path id="Path_8973" data-name="Path 8973" d="M3057.549,269.909s4.336,5.659,9.691,7.176" transform="translate(-2993.584 -126.965)" fill="none" stroke="#000" stroke-linejoin="round" stroke-width="0.25"/>
      <path id="Path_8974" data-name="Path 8974" d="M3046.774,295.056c-.072.17,3.406,3.645,6.214,4.148" transform="translate(-2997.097 -118.768)" fill="none" stroke="#000" stroke-linejoin="round" stroke-width="0.25"/>
      <path id="Path_8975" data-name="Path 8975" d="M3045.106,318.227c.936,0,7.879,7.673,15.574,6.244" transform="translate(-2997.641 -111.214)" fill="none" stroke="#000" stroke-linejoin="round" stroke-width="0.25"/>
      <path id="Path_8976" data-name="Path 8976" d="M3032.694,316.209c.434-.207,8.934-1.162,12.4-3.59" transform="translate(-3001.687 -113.042)" fill="none" stroke="#000" stroke-linejoin="round" stroke-width="0.25"/>
      <path id="Path_8977" data-name="Path 8977" d="M3044.541,325.576c-.434-.521-6.765-1.859-8.544-4.008" transform="translate(-3000.61 -110.125)" fill="none" stroke="#000" stroke-linejoin="round" stroke-width="0.25"/>
      <path id="Path_8978" data-name="Path 8978" d="M3037.269,334.474c-8.761-.52-9.541,6.853-16.481,9.456" transform="translate(-3005.568 -105.927)" fill="none" stroke="#000" stroke-linejoin="round" stroke-width="0.25"/>
      <path id="Path_8979" data-name="Path 8979" d="M3041.066,332.048s2,2.636,4.164,3.184" transform="translate(-2998.957 -106.709)" fill="none" stroke="#000" stroke-linejoin="round" stroke-width="0.25"/>
      <path id="Path_8980" data-name="Path 8980" d="M3050.906,336.449c-2.949,6.4-10.5,9.952-11.016,13.594" transform="translate(-2999.342 -105.274)" fill="none" stroke="#000" stroke-linejoin="round" stroke-width="0.25"/>
      <path id="Path_8981" data-name="Path 8981" d="M3028.557,339.5a16.934,16.934,0,0,0,8.609,5.3" transform="translate(-3003.037 -104.28)" fill="none" stroke="#000" stroke-linejoin="round" stroke-width="0.25"/>
      <path id="Path_8982" data-name="Path 8982" d="M3041.066,351.019s11.691,8.58,21.241,8.757" transform="translate(-2998.957 -100.525)" fill="none" stroke="#000" stroke-linejoin="round" stroke-width="0.25"/>
      <path id="Path_8983" data-name="Path 8983" d="M3016.433,356.484c2.859,1.391,6.858-5.795,14.016-6.1" transform="translate(-3006.988 -100.733)" fill="none" stroke="#000" stroke-linejoin="round" stroke-width="0.25"/>
      <path id="Path_8984" data-name="Path 8984" d="M3025.531,414.976c.893.3,1.889,1.457,3.844,3.257" transform="translate(-3004.022 -79.676)" fill="none" stroke="#231815" stroke-miterlimit="10" stroke-width="0.25"/>
      <path id="Path_8985" data-name="Path 8985" d="M3032.625,419.125c0,6.394,8.563,9.433,6.27,15.645" transform="translate(-3001.709 -78.323)" fill="none" stroke="#231815" stroke-miterlimit="10" stroke-width="0.25"/>
      <path id="Path_8986" data-name="Path 8986" d="M3026.092,423.5s4.163,5.256,6.839,6.717" transform="translate(-3003.84 -76.898)" fill="none" stroke="#231815" stroke-miterlimit="10" stroke-width="0.25"/>
      <path id="Path_8987" data-name="Path 8987" d="M3018.644,411.5a31.494,31.494,0,0,0,5.46,7.867" transform="translate(-3006.268 -80.809)" fill="none" stroke="#231815" stroke-miterlimit="10" stroke-width="0.25"/>
      <path id="Path_8988" data-name="Path 8988" d="M3023.433,421.592c-2.73,3.42-.156,6.81-2.73,8.9" transform="translate(-3005.596 -77.519)" fill="none" stroke="#231815" stroke-miterlimit="10" stroke-width="0.25"/>
      <path id="Path_8989" data-name="Path 8989" d="M3029.554,431.115c-1.5.753-2.2,2.838,0,8.714" transform="translate(-3003.167 -74.415)" fill="none" stroke="#231815" stroke-miterlimit="10" stroke-width="0.25"/>
    </g>
    <ellipse id="Ellipse_1394" data-name="Ellipse 1394" cx="6.247" cy="2.728" rx="6.247" ry="2.728" transform="translate(2841.943 537.18)" fill="#ecb36f" stroke="#000" stroke-linejoin="round" stroke-width="0.25"/>
    <ellipse id="Ellipse_1395" data-name="Ellipse 1395" cx="7.187" cy="3.478" rx="7.187" ry="3.478" transform="translate(2885.838 585.557)" fill="#ecb36f" stroke="#000" stroke-linejoin="round" stroke-width="0.25"/>
    <ellipse id="Ellipse_1396" data-name="Ellipse 1396" cx="4.173" cy="2.164" rx="4.173" ry="2.164" transform="translate(2905.467 578.602)" fill="#c19165" stroke="#000" stroke-linejoin="round" stroke-width="0.25"/>
    <ellipse id="Ellipse_1397" data-name="Ellipse 1397" cx="6.257" cy="2.984" rx="6.257" ry="2.984" transform="translate(2955.927 582.247)" fill="#c19165" stroke="#000" stroke-linejoin="round" stroke-width="0.25"/>
    <ellipse id="Ellipse_1398" data-name="Ellipse 1398" cx="6.955" cy="3.864" rx="6.955" ry="3.864" transform="translate(2981.665 648.927)" fill="#c19165" stroke="#000" stroke-linejoin="round" stroke-width="0.25"/>
    <ellipse id="Ellipse_1399" data-name="Ellipse 1399" cx="4.791" cy="2.937" rx="4.791" ry="2.937" transform="translate(3003.613 636.407)" fill="#c19165" stroke="#000" stroke-linejoin="round" stroke-width="0.25"/>
    <ellipse id="Ellipse_1400" data-name="Ellipse 1400" cx="5.023" cy="2.859" rx="5.023" ry="2.859" transform="matrix(0.984, -0.177, 0.177, 0.984, 3046.719, 632.547)" fill="#ecb36f" stroke="#000" stroke-linejoin="round" stroke-width="0.25"/>
    <ellipse id="Ellipse_1401" data-name="Ellipse 1401" cx="6.414" cy="3.014" rx="6.414" ry="3.014" transform="translate(3142.408 655.882)" fill="#c19165" stroke="#000" stroke-linejoin="round" stroke-width="0.25"/>
    <ellipse id="Ellipse_1402" data-name="Ellipse 1402" cx="3.976" cy="2.318" rx="3.976" ry="2.318" transform="translate(3157.511 647.536)" fill="#ecb36f" stroke="#000" stroke-linejoin="round" stroke-width="0.25"/>
    <path id="Path_8990" data-name="Path 8990" d="M3044.083,526.483c1.357-.09,5.159.724,6.516,0" transform="translate(70.207 119.935)" fill="none" stroke="#231815" stroke-miterlimit="10" stroke-width="0.25"/>
    <path id="Path_8991" data-name="Path 8991" d="M2993.98,528.272c17.74-8.6,32.675,1.176,41.184-2.987" transform="translate(53.873 119.324)" fill="none" stroke="#231815" stroke-miterlimit="10" stroke-width="0.25"/>
    <path id="Path_8992" data-name="Path 8992" d="M2930,495.108c11.345-8.941,24.652,1.754,40.593-1.856" transform="translate(33.017 108.515)" fill="none" stroke="#231815" stroke-miterlimit="10" stroke-width="0.25"/>
    <path id="Path_8993" data-name="Path 8993" d="M2970.141,499.436c.825-.207,7.013.412,8.561-1.651" transform="translate(46.102 110.582)" fill="none" stroke="#231815" stroke-miterlimit="10" stroke-width="0.25"/>
    <path id="Path_8994" data-name="Path 8994" d="M2897.467,507.9c5.7-4.976,23.669,2.792,29.5,0" transform="translate(22.411 113.322)" fill="none" stroke="#231815" stroke-miterlimit="10" stroke-width="0.25"/>
    <path id="Path_8995" data-name="Path 8995" d="M2877.785,518.8c9.831-6.8,27.188.971,33.5-2.063" transform="translate(15.996 116.494)" fill="none" stroke="#231815" stroke-miterlimit="10" stroke-width="0.25"/>
    <path id="Path_8996" data-name="Path 8996" d="M2857.19,461.353c4.034,1.758,10.96-.008,17.791-2.173,10.448-3.31,22.55,3.931,32.48,0" transform="translate(9.282 97.706)" fill="none" stroke="#231815" stroke-miterlimit="10" stroke-width="0.25"/>
    <path id="Path_8997" data-name="Path 8997" d="M2903.917,463.009s3-.635,7.446-1.87" transform="translate(24.513 98.636)" fill="none" stroke="#231815" stroke-miterlimit="10" stroke-width="0.25"/>
    <ellipse id="Ellipse_1403" data-name="Ellipse 1403" cx="3.312" cy="1.791" rx="3.312" ry="1.791" transform="translate(3115.629 511.205)" fill="#ecb36f" stroke="#000" stroke-linejoin="round" stroke-width="0.25"/>
    <ellipse id="Ellipse_1404" data-name="Ellipse 1404" cx="3.932" cy="2.085" rx="3.932" ry="2.085" transform="translate(3204.748 491.673)" fill="#ecb36f" stroke="#000" stroke-linejoin="round" stroke-width="0.25"/>
    <ellipse id="Ellipse_1405" data-name="Ellipse 1405" cx="5.778" cy="2.025" rx="5.778" ry="2.025" transform="translate(3211.897 534.088)" fill="#c19165" stroke="#000" stroke-linejoin="round" stroke-width="0.25"/>
    <ellipse id="Ellipse_1406" data-name="Ellipse 1406" cx="2.859" cy="1.858" rx="2.859" ry="1.858" transform="translate(3227.385 542.049)" fill="#c19165" stroke="#000" stroke-linejoin="round" stroke-width="0.25"/>
    <path id="Path_8998" data-name="Path 8998" d="M3106.1,421.484a26.937,26.937,0,0,1,12.152.477c6.911,1.786,9,1.549,9,1.549" transform="translate(90.423 85.558)" fill="none" stroke="#231815" stroke-miterlimit="10" stroke-width="0.25"/>
    <path id="Path_8999" data-name="Path 8999" d="M3108.789,466.957c9.411-4.218,23.849,2.552,29.04-.671" transform="translate(91.298 100.066)" fill="none" stroke="#231815" stroke-miterlimit="10" stroke-width="0.25"/>
    <path id="Path_9000" data-name="Path 9000" d="M3045.094,435.765a19.155,19.155,0,0,1,8.95-.054" transform="translate(70.535 90.186)" fill="none" stroke="#231815" stroke-miterlimit="10" stroke-width="0.25"/>
    <g id="Group_2765" data-name="Group 2765" transform="translate(3123.282 343.699)">
      <path id="Path_9001" data-name="Path 9001" d="M3052.7,309.7s.736,5.983,1.31,14.3.73,18.645,2.948,30.98.781,20.654,2.358,29.4,2.274,25.658,3.647,33.554,3.381,37.157,4.673,47.34,2.3,28.4,6.024,41.881,4.3,39.444,4.3,39.444l36.145,9.12s-.431-25-1.005-35.2.145-28.278-1.433-39.466-4.176-32.585-5.658-48.5,0-26.916-1.73-34.761-2.718-35.273-2.965-42.439-1.977-22.979-.741-35.829-1.863-18.612-1.863-18.612Z" transform="translate(-3050.268 -297.294)" fill="#c19165" stroke="#000" stroke-linejoin="round" stroke-width="0.25"/>
      <path id="Path_9002" data-name="Path 9002" d="M3052.738,310.589c-1.4-5.113,7.184-7.578,12.6-9.644s15.649-2.559,24.309-2.757,13.188,6,6.3,9.843-19.781,6.692-27.26,6.888S3054.213,316,3052.738,310.589Z" transform="translate(-3050.305 -298.184)" fill="#ecb36f" stroke="#000" stroke-linejoin="round" stroke-width="0.25"/>
      <path id="Path_9003" data-name="Path 9003" d="M3056.689,308.447c-.768-1,.367-2.754,3.857-3.672s6.182-1.225,13.282-2.51,15.792-2.754,16.895-.98-2.328,3.306-7.714,5.51-11.385.306-15.241,1.408S3058.526,310.835,3056.689,308.447Z" transform="translate(-3049.042 -297.44)" fill="#c19165" stroke="#000" stroke-linejoin="round" stroke-width="0.25"/>
      <path id="Path_9004" data-name="Path 9004" d="M3065.958,307.438a5.581,5.581,0,0,0,.613,2.1" transform="translate(-3045.946 -295.167)" fill="none" stroke="#231815" stroke-miterlimit="10" stroke-width="0.25"/>
      <path id="Path_9005" data-name="Path 9005" d="M3071.59,307.224a7.325,7.325,0,0,1,.917,1.958" transform="translate(-3044.11 -295.237)" fill="none" stroke="#231815" stroke-miterlimit="10" stroke-width="0.25"/>
      <path id="Path_9006" data-name="Path 9006" d="M3075.837,306.624a3.479,3.479,0,0,0,1.1,1.776" transform="translate(-3042.726 -295.432)" fill="none" stroke="#231815" stroke-miterlimit="10" stroke-width="0.25"/>
      <path id="Path_9007" data-name="Path 9007" d="M3082.207,304.362a3,3,0,0,0,1.592,1.163" transform="translate(-3040.649 -296.17)" fill="none" stroke="#231815" stroke-miterlimit="10" stroke-width="0.25"/>
      <path id="Path_9008" data-name="Path 9008" d="M3084.238,302.054c.184,0,1.592.122,1.9.674" transform="translate(-3039.987 -296.922)" fill="none" stroke="#231815" stroke-miterlimit="10" stroke-width="0.25"/>
      <path id="Path_9009" data-name="Path 9009" d="M3061.019,308.7a4.715,4.715,0,0,1,.306,1.837" transform="translate(-3047.556 -294.755)" fill="none" stroke="#231815" stroke-miterlimit="10" stroke-width="0.25"/>
      <path id="Path_9010" data-name="Path 9010" d="M3055.912,309.324a3.024,3.024,0,0,0,1.245-1.219" transform="translate(-3049.221 -294.949)" fill="none" stroke="#231815" stroke-miterlimit="10" stroke-width="0.25"/>
      <path id="Path_9011" data-name="Path 9011" d="M3054.239,305.631a2.279,2.279,0,0,0,1.884.244" transform="translate(-3049.767 -295.756)" fill="none" stroke="#231815" stroke-miterlimit="10" stroke-width="0.25"/>
      <path id="Path_9012" data-name="Path 9012" d="M3060.882,301.737a2.13,2.13,0,0,1,.638,1.094" transform="translate(-3047.601 -297.025)" fill="none" stroke="#231815" stroke-miterlimit="10" stroke-width="0.25"/>
      <path id="Path_9013" data-name="Path 9013" d="M3066.976,299.973a1.562,1.562,0,0,1,.515,1.245" transform="translate(-3045.614 -297.6)" fill="none" stroke="#231815" stroke-miterlimit="10" stroke-width="0.25"/>
      <path id="Path_9014" data-name="Path 9014" d="M3066.189,303.952s.255,1.174,2.441,1.124" transform="translate(-3045.871 -296.303)" fill="none" stroke="#231815" stroke-miterlimit="10" stroke-width="0.25"/>
      <path id="Path_9015" data-name="Path 9015" d="M3071.156,302.308a3.253,3.253,0,0,1-.2,2.18" transform="translate(-3044.315 -296.839)" fill="none" stroke="#231815" stroke-miterlimit="10" stroke-width="0.25"/>
      <path id="Path_9016" data-name="Path 9016" d="M3074.7,303.13s.542,1.293,1.51,1.341" transform="translate(-3043.097 -296.571)" fill="none" stroke="#231815" stroke-miterlimit="10" stroke-width="0.25"/>
      <path id="Path_9017" data-name="Path 9017" d="M3084.238,315.33c3.678-.129,6.028,5.545,11.573,5.075" transform="translate(-3039.987 -292.595)" fill="none" stroke="#231815" stroke-miterlimit="10" stroke-width="0.25"/>
      <path id="Path_9018" data-name="Path 9018" d="M3066.42,333.7a38.807,38.807,0,0,0,14.524-2.067" transform="translate(-3045.795 -287.281)" fill="none" stroke="#231815" stroke-miterlimit="10" stroke-width="0.25"/>
      <path id="Path_9019" data-name="Path 9019" d="M3084.744,336.449c3.29,0,7.049,6.861,9.774,5.734" transform="translate(-3039.823 -285.71)" fill="none" stroke="#231815" stroke-miterlimit="10" stroke-width="0.25"/>
      <path id="Path_9020" data-name="Path 9020" d="M3058.8,335.315c-5.5,1.034-3.237,8.741-7.936,10.15" transform="translate(-3050.866 -286.079)" fill="none" stroke="#231815" stroke-miterlimit="10" stroke-width="0.25"/>
      <path id="Path_9021" data-name="Path 9021" d="M3056.752,348.5c.016.212,6.763,2.819,10.991,1.692" transform="translate(-3048.947 -281.782)" fill="none" stroke="#231815" stroke-miterlimit="10" stroke-width="0.25"/>
      <path id="Path_9022" data-name="Path 9022" d="M3082.334,351.719c1.129-.469,7.143-1.879,10.056-7.048" transform="translate(-3040.608 -283.029)" fill="none" stroke="#231815" stroke-miterlimit="10" stroke-width="0.25"/>
      <path id="Path_9023" data-name="Path 9023" d="M3086.8,360.051c3.1,5.169,11.747,5.074,12.687,11.653" transform="translate(-3039.152 -278.016)" fill="none" stroke="#231815" stroke-miterlimit="10" stroke-width="0.25"/>
      <path id="Path_9024" data-name="Path 9024" d="M3070.782,361.178s3.008.469,4.98-1.127" transform="translate(-3044.374 -278.016)" fill="none" stroke="#231815" stroke-miterlimit="10" stroke-width="0.25"/>
      <path id="Path_9025" data-name="Path 9025" d="M3078.011,375.645a16.647,16.647,0,0,0,12.218-2.069,11.936,11.936,0,0,1,5.273-1.974" transform="translate(-3042.017 -274.25)" fill="none" stroke="#231815" stroke-miterlimit="10" stroke-width="0.25"/>
      <path id="Path_9026" data-name="Path 9026" d="M3059.377,379.682c.744.377,5.818,2.82,9.954,1.692" transform="translate(-3048.092 -271.616)" fill="none" stroke="#231815" stroke-miterlimit="10" stroke-width="0.25"/>
      <path id="Path_9027" data-name="Path 9027" d="M3071.7,387.381s5.734,1.223,8.928-.469" transform="translate(-3044.073 -269.26)" fill="none" stroke="#231815" stroke-miterlimit="10" stroke-width="0.25"/>
      <path id="Path_9028" data-name="Path 9028" d="M3088.713,385.282c1.409,7.424,9.774,8.928,9.679,14.848" transform="translate(-3038.528 -269.791)" fill="none" stroke="#231815" stroke-miterlimit="10" stroke-width="0.25"/>
      <path id="Path_9029" data-name="Path 9029" d="M3066.4,398.563s6.183.716,10.036-1.566" transform="translate(-3045.801 -265.972)" fill="none" stroke="#231815" stroke-miterlimit="10" stroke-width="0.25"/>
      <path id="Path_9030" data-name="Path 9030" d="M3074.751,411.143s16.3-.652,24.22-9.771" transform="translate(-3043.079 -264.546)" fill="none" stroke="#231815" stroke-miterlimit="10" stroke-width="0.25"/>
      <path id="Path_9031" data-name="Path 9031" d="M3053.859,320.5c.873-.919,5.734.282,9.312-1.319" transform="translate(-3049.89 -291.34)" fill="none" stroke="#231815" stroke-miterlimit="10" stroke-width="0.25"/>
      <path id="Path_9032" data-name="Path 9032" d="M3069.143,317.483c.7-1.53,4.655-1.211,6.886-3.06" transform="translate(-3044.908 -292.89)" fill="none" stroke="#231815" stroke-miterlimit="10" stroke-width="0.25"/>
      <path id="Path_9033" data-name="Path 9033" d="M3078.81,329.313c1.659.32,9.111-2.806,12.815-6.377" transform="translate(-3041.757 -290.115)" fill="none" stroke="#231815" stroke-miterlimit="10" stroke-width="0.25"/>
      <path id="Path_9034" data-name="Path 9034" d="M3077.938,418.991c.938-.235,5.369.078,7.884-2.5" transform="translate(-3042.041 -259.618)" fill="none" stroke="#231815" stroke-miterlimit="10" stroke-width="0.25"/>
      <path id="Path_9035" data-name="Path 9035" d="M3067.632,424.509c-.546,5.787-6.96,6.8-7.741,14.746" transform="translate(-3047.924 -257.004)" fill="none" stroke="#231815" stroke-miterlimit="10" stroke-width="0.25"/>
      <path id="Path_9036" data-name="Path 9036" d="M3065.069,435.368s12.371,5.23,21.99,3.51" transform="translate(-3046.236 -253.464)" fill="none" stroke="#231815" stroke-miterlimit="10" stroke-width="0.25"/>
      <path id="Path_9037" data-name="Path 9037" d="M3081.572,424.745c-3.394,4.614-.031,7.742-2.691,12.277" transform="translate(-3041.733 -256.927)" fill="none" stroke="#231815" stroke-miterlimit="10" stroke-width="0.25"/>
      <path id="Path_9038" data-name="Path 9038" d="M3093.017,430.924c2.4,6.24,11.2,7.553,10.614,16.34" transform="translate(-3037.125 -254.912)" fill="none" stroke="#231815" stroke-miterlimit="10" stroke-width="0.25"/>
      <path id="Path_9039" data-name="Path 9039" d="M3070.153,446.154c-5.753,2.819-1.418,8.689-7.343,11.86" transform="translate(-3046.973 -249.948)" fill="none" stroke="#231815" stroke-miterlimit="10" stroke-width="0.25"/>
      <path id="Path_9040" data-name="Path 9040" d="M3079.5,447.831s5.863,1.057,10.5-1.057" transform="translate(-3041.53 -249.745)" fill="none" stroke="#231815" stroke-miterlimit="10" stroke-width="0.25"/>
      <path id="Path_9041" data-name="Path 9041" d="M3068.508,456.456s8.231,4.3,13.754,4.188" transform="translate(-3045.115 -246.589)" fill="none" stroke="#231815" stroke-miterlimit="10" stroke-width="0.25"/>
      <path id="Path_9042" data-name="Path 9042" d="M3104.244,464.39s-16.4,4.585-24.739.711" transform="translate(-3041.53 -244.003)" fill="none" stroke="#231815" stroke-miterlimit="10" stroke-width="0.25"/>
      <path id="Path_9043" data-name="Path 9043" d="M3083.466,470.416a9.676,9.676,0,0,0,8.25,0" transform="translate(-3040.239 -242.039)" fill="none" stroke="#231815" stroke-miterlimit="10" stroke-width="0.25"/>
      <path id="Path_9044" data-name="Path 9044" d="M3082.909,460.035s2.1.847,3.564,0" transform="translate(-3040.42 -245.423)" fill="none" stroke="#231815" stroke-miterlimit="10" stroke-width="0.25"/>
    </g>
    <g id="Group_2770" data-name="Group 2770" transform="translate(2828.718 444.197)">
      <g id="Group_2766" data-name="Group 2766" transform="translate(0 26.904)">
        <path id="Path_9045" data-name="Path 9045" d="M3170.016,565.065s-14.987-7.024-26.877-12.585-30.11-12.275-45.069-18.219-40.465-16.685-54.082-25.316-64.468-33.538-85.316-43.963-32.417-12.374-59.876-26.57-48.172-25.365-57.712-29.322-12.654-6.284-12.346-8.445,4.734-3.912,13.587-.72,18.63,3.294,27.173,4.632,14.409,2.367,21.615,1.132,61.516,16.2,84.4,27.836,41.766,17.288,56.285,23.776,55.693,23.5,90.144,32.955,48.78,16.635,66.225,23.455Z" transform="translate(-2828.718 -392.99)" fill="#ecb36f" stroke="#000" stroke-linejoin="round" stroke-width="0.25"/>
        <path id="Path_9046" data-name="Path 9046" d="M3105.638,485.393c6.681,1.856,7.789,14.058,6.459,21.848s-1.709,19.187-13.109,26.786-17.288.57-17.1-8.549-.189-17.1,5.7-26.407S3098.8,483.492,3105.638,485.393Z" transform="translate(-2746.189 -364.67)" fill="#fff6eb" stroke="#000" stroke-miterlimit="10" stroke-width="0.25"/>
        <path id="Path_9047" data-name="Path 9047" d="M3101.176,490.058c4.853-1.078,7.408,8.169,6.079,14.819s-4.613,18.731-13.108,24.317-10.07-5.7-8.55-12.919,4.37-11.4,7.6-16.718S3096.046,491.2,3101.176,490.058Z" transform="translate(-2745.147 -363.066)" fill="#ecb36f" stroke="#000" stroke-linejoin="round" stroke-width="0.25"/>
        <path id="Path_9048" data-name="Path 9048" d="M3098.992,494.894c1.988-.729,5.247-2.011,5.859,1.924s-1.574,5.277-2.93,12.171-9.226,18.524-12.111,16.775-4.111-6.122-2.187-10.056,3.148-9.184,4.9-12.857S3096.188,495.923,3098.992,494.894Z" transform="translate(-2744.622 -361.721)" fill="#fff6eb" stroke="#000" stroke-miterlimit="10" stroke-width="0.25"/>
        <path id="Path_9049" data-name="Path 9049" d="M3064.381,485.1s2.782-7.681,8.878-10.992" transform="translate(-2751.896 -368.236)" fill="none" stroke="#231815" stroke-miterlimit="10" stroke-width="0.25"/>
        <path id="Path_9050" data-name="Path 9050" d="M3066.9,494.712A28.908,28.908,0,0,0,3062.858,508" transform="translate(-2752.392 -361.521)" fill="none" stroke="#231815" stroke-miterlimit="10" stroke-width="0.25"/>
        <path id="Path_9051" data-name="Path 9051" d="M3048.4,509.952a20.491,20.491,0,0,1,2.856-10.925" transform="translate(-2757.11 -360.114)" fill="none" stroke="#231815" stroke-miterlimit="10" stroke-width="0.25"/>
        <path id="Path_9052" data-name="Path 9052" d="M3048.386,495.029s2.867-7.52,6.737-11.612" transform="translate(-2757.11 -365.203)" fill="none" stroke="#231815" stroke-miterlimit="10" stroke-width="0.25"/>
        <path id="Path_9053" data-name="Path 9053" d="M3055.878,493.811s2.411,0,4.88-4.713c1.889-3.6,5.721-1.094,5.721-1.094" transform="translate(-2754.668 -363.985)" fill="none" stroke="#231815" stroke-miterlimit="10" stroke-width="0.25"/>
        <path id="Path_9054" data-name="Path 9054" d="M3077.579,489.146a18.491,18.491,0,0,1,7.067-8.013" transform="translate(-2747.593 -365.947)" fill="none" stroke="#231815" stroke-miterlimit="10" stroke-width="0.25"/>
        <path id="Path_9055" data-name="Path 9055" d="M3077.872,496.869s-1.346,3.871-1.178,6.058" transform="translate(-2747.887 -360.818)" fill="none" stroke="#231815" stroke-miterlimit="10" stroke-width="0.25"/>
        <path id="Path_9056" data-name="Path 9056" d="M3061.474,508.545c.168.505-.168,3.816,0,5.358" transform="translate(-2752.86 -357.012)" fill="none" stroke="#231815" stroke-miterlimit="10" stroke-width="0.25"/>
        <path id="Path_9057" data-name="Path 9057" d="M3062.689,479.528c-8.643-7.146-1.326-10.447-7.377-15.563" transform="translate(-2754.853 -371.544)" fill="none" stroke="#231815" stroke-miterlimit="10" stroke-width="0.25"/>
        <path id="Path_9058" data-name="Path 9058" d="M3087.524,474.544c2.585,4.923-4.181,7.371,1.265,12.322" transform="translate(-2744.652 -368.095)" fill="none" stroke="#231815" stroke-miterlimit="10" stroke-width="0.25"/>
        <path id="Path_9059" data-name="Path 9059" d="M3076.016,512.108c-8.218.634-3.538,9.836-12.144,10.779" transform="translate(-2752.061 -355.85)" fill="none" stroke="#231815" stroke-miterlimit="10" stroke-width="0.25"/>
        <path id="Path_9060" data-name="Path 9060" d="M3001.545,491.52s-2.126-4.642,5.285-16.5" transform="translate(-2772.471 -367.94)" fill="none" stroke="#231815" stroke-miterlimit="10" stroke-width="0.25"/>
        <path id="Path_9061" data-name="Path 9061" d="M2979.247,482.518c10.427,1.887,8.914-5.757,16.167-5.15" transform="translate(-2779.649 -367.186)" fill="none" stroke="#231815" stroke-miterlimit="10" stroke-width="0.25"/>
        <path id="Path_9062" data-name="Path 9062" d="M2969.882,474.232s1.2-9.66,6.5-16.4" transform="translate(-2782.701 -373.542)" fill="none" stroke="#231815" stroke-miterlimit="10" stroke-width="0.25"/>
        <path id="Path_9063" data-name="Path 9063" d="M2967.589,460.4c3.406,3.482,8.932.274,15.895,4.792" transform="translate(-2783.449 -372.705)" fill="none" stroke="#231815" stroke-miterlimit="10" stroke-width="0.25"/>
        <path id="Path_9064" data-name="Path 9064" d="M2963.685,447.661a21.589,21.589,0,0,0-3.271,11.2" transform="translate(-2785.787 -376.859)" fill="none" stroke="#231815" stroke-miterlimit="10" stroke-width="0.25"/>
        <path id="Path_9065" data-name="Path 9065" d="M2959.552,439.786s-6.165,6.164-7.3,13.839" transform="translate(-2788.447 -379.426)" fill="none" stroke="#231815" stroke-miterlimit="10" stroke-width="0.25"/>
        <path id="Path_9066" data-name="Path 9066" d="M2944.7,449.464s-3.318,5.661-2.792,8.806" transform="translate(-2791.838 -376.271)" fill="none" stroke="#231815" stroke-miterlimit="10" stroke-width="0.25"/>
        <path id="Path_9067" data-name="Path 9067" d="M2968.955,449.5a27.819,27.819,0,0,1,4.756-10.56" transform="translate(-2783.004 -379.702)" fill="none" stroke="#231815" stroke-miterlimit="10" stroke-width="0.25"/>
        <path id="Path_9068" data-name="Path 9068" d="M2982.455,464.28c-.037-.164,5.624-8.342,5.875-15.765" transform="translate(-2778.603 -376.58)" fill="none" stroke="#231815" stroke-miterlimit="10" stroke-width="0.25"/>
        <path id="Path_9069" data-name="Path 9069" d="M2991.556,464.018a29.508,29.508,0,0,0-2.013,8.2" transform="translate(-2776.292 -371.527)" fill="none" stroke="#231815" stroke-miterlimit="10" stroke-width="0.25"/>
        <path id="Path_9070" data-name="Path 9070" d="M2918,450.375c4.78,2.139,7.674-5.284,13.084-3.4" transform="translate(-2799.613 -377.182)" fill="none" stroke="#231815" stroke-miterlimit="10" stroke-width="0.25"/>
        <path id="Path_9071" data-name="Path 9071" d="M2927.4,441.363s.88-4.53,3.271-6.416" transform="translate(-2796.551 -381.003)" fill="none" stroke="#231815" stroke-miterlimit="10" stroke-width="0.25"/>
        <path id="Path_9072" data-name="Path 9072" d="M2937.073,452.217a26.53,26.53,0,0,1,5.032-11.2" transform="translate(-2793.396 -379.024)" fill="none" stroke="#231815" stroke-miterlimit="10" stroke-width="0.25"/>
        <path id="Path_9073" data-name="Path 9073" d="M2881.568,429.956a12.626,12.626,0,0,1,2.436-5.838" transform="translate(-2811.49 -384.533)" fill="none" stroke="#231815" stroke-miterlimit="10" stroke-width="0.25"/>
        <path id="Path_9074" data-name="Path 9074" d="M2878.094,422.109s1.862-9.066,8.985-13.438" transform="translate(-2812.622 -389.569)" fill="none" stroke="#231815" stroke-miterlimit="10" stroke-width="0.25"/>
        <path id="Path_9075" data-name="Path 9075" d="M2869.547,422.371a10.534,10.534,0,0,1,2.67-6.8" transform="translate(-2815.409 -387.32)" fill="none" stroke="#231815" stroke-miterlimit="10" stroke-width="0.25"/>
        <path id="Path_9076" data-name="Path 9076" d="M2858.646,415.172a12.88,12.88,0,0,1,.566-5.828" transform="translate(-2818.999 -389.35)" fill="none" stroke="#231815" stroke-miterlimit="10" stroke-width="0.25"/>
        <path id="Path_9077" data-name="Path 9077" d="M2852.821,408.633c.242-.162.081-2.672,3.965-7.042" transform="translate(-2820.862 -391.877)" fill="none" stroke="#231815" stroke-miterlimit="10" stroke-width="0.25"/>
        <path id="Path_9078" data-name="Path 9078" d="M2848.12,398.178c-.161,2.177,2.834,5.011,2.185,8.653" transform="translate(-2822.395 -392.989)" fill="none" stroke="#231815" stroke-miterlimit="10" stroke-width="0.25"/>
        <path id="Path_9079" data-name="Path 9079" d="M2838.107,411.469c3.966,2.185,8.487-4.047,13.269-2.753" transform="translate(-2825.658 -389.612)" fill="none" stroke="#231815" stroke-miterlimit="10" stroke-width="0.25"/>
        <path id="Path_9080" data-name="Path 9080" d="M2831.268,394.265c1.3,5.909,6.4,5.755,8.014,9.515" transform="translate(-2827.886 -394.265)" fill="none" stroke="#231815" stroke-miterlimit="10" stroke-width="0.25"/>
        <path id="Path_9081" data-name="Path 9081" d="M2842.323,404.713c-.081-.363.155-1.821,1.049-1.9" transform="translate(-2824.288 -391.479)" fill="none" stroke="#231815" stroke-miterlimit="10" stroke-width="0.25"/>
        <path id="Path_9082" data-name="Path 9082" d="M2943.418,465.779c9.051.879,6.593-6.942,14.639-7.164" transform="translate(-2791.328 -373.288)" fill="none" stroke="#231815" stroke-miterlimit="10" stroke-width="0.25"/>
        <path id="Path_9083" data-name="Path 9083" d="M3010.654,485c4.317.785,4.994-3.925,8.634-2.855" transform="translate(-2769.41 -365.67)" fill="none" stroke="#231815" stroke-miterlimit="10" stroke-width="0.25"/>
        <path id="Path_9084" data-name="Path 9084" d="M3022.834,496.06s.362-3.177,2.095-4.4" transform="translate(-2765.44 -362.517)" fill="none" stroke="#231815" stroke-miterlimit="10" stroke-width="0.25"/>
      </g>
      <g id="Group_2767" data-name="Group 2767" transform="translate(336.745 150.103)">
        <path id="Path_9085" data-name="Path 9085" d="M3095.033,487.176a9.668,9.668,0,0,0,.7,2.525" transform="translate(-3078.649 -487.176)" fill="none" stroke="#231815" stroke-miterlimit="10" stroke-width="0.25"/>
        <path id="Path_9086" data-name="Path 9086" d="M3099.8,489.7a4.775,4.775,0,0,0,.886-2.525" transform="translate(-3077.095 -487.176)" fill="none" stroke="#231815" stroke-miterlimit="10" stroke-width="0.25"/>
        <path id="Path_9087" data-name="Path 9087" d="M3102.8,493.858s.623.038,1.4-1.248" transform="translate(-3076.117 -485.405)" fill="none" stroke="#231815" stroke-miterlimit="10" stroke-width="0.25"/>
        <path id="Path_9088" data-name="Path 9088" d="M3089.032,493.551a7.012,7.012,0,0,0,1.561,2.5" transform="translate(-3080.605 -485.098)" fill="none" stroke="#231815" stroke-miterlimit="10" stroke-width="0.25"/>
        <path id="Path_9089" data-name="Path 9089" d="M3086.694,497.788a4.171,4.171,0,0,0,2.066,1.811" transform="translate(-3081.368 -483.717)" fill="none" stroke="#231815" stroke-miterlimit="10" stroke-width="0.25"/>
        <path id="Path_9090" data-name="Path 9090" d="M3083.795,504.737a5.3,5.3,0,0,0,2.263.784" transform="translate(-3082.313 -481.451)" fill="none" stroke="#231815" stroke-miterlimit="10" stroke-width="0.25"/>
        <path id="Path_9091" data-name="Path 9091" d="M3082.677,511.942a4.869,4.869,0,0,0,2.2-.854" transform="translate(-3082.677 -479.381)" fill="none" stroke="#231815" stroke-miterlimit="10" stroke-width="0.25"/>
        <path id="Path_9092" data-name="Path 9092" d="M3083.795,520.419a6.8,6.8,0,0,0,1.709-2.116" transform="translate(-3082.313 -477.029)" fill="none" stroke="#231815" stroke-miterlimit="10" stroke-width="0.25"/>
        <path id="Path_9093" data-name="Path 9093" d="M3094.689,518.835a3.947,3.947,0,0,0,1.411,1.859" transform="translate(-3078.761 -476.856)" fill="none" stroke="#231815" stroke-miterlimit="10" stroke-width="0.25"/>
        <path id="Path_9094" data-name="Path 9094" d="M3089.49,521.782a3.752,3.752,0,0,0,.487,1.466" transform="translate(-3080.456 -475.895)" fill="none" stroke="#231815" stroke-miterlimit="10" stroke-width="0.25"/>
        <path id="Path_9095" data-name="Path 9095" d="M3097.43,515.847a5.631,5.631,0,0,0,1.032,2.225" transform="translate(-3077.867 -477.83)" fill="none" stroke="#231815" stroke-miterlimit="10" stroke-width="0.25"/>
        <path id="Path_9096" data-name="Path 9096" d="M3100.467,509.747s.969.977,1.837.6" transform="translate(-3076.877 -479.818)" fill="none" stroke="#231815" stroke-miterlimit="10" stroke-width="0.25"/>
        <path id="Path_9097" data-name="Path 9097" d="M3102.8,502.992a1.712,1.712,0,0,0,1.4,0" transform="translate(-3076.117 -482.02)" fill="none" stroke="#231815" stroke-miterlimit="10" stroke-width="0.25"/>
        <ellipse id="Ellipse_1407" data-name="Ellipse 1407" cx="1.221" cy="2.568" rx="1.221" ry="2.568" transform="translate(12.234 18.215) rotate(-18.791)" fill="#c19165" stroke="#000" stroke-linejoin="round" stroke-width="0.25"/>
        <ellipse id="Ellipse_1408" data-name="Ellipse 1408" cx="2.568" cy="1.221" rx="2.568" ry="1.221" transform="matrix(0.832, -0.555, 0.555, 0.832, 8.802, 26.944)" fill="#c19165" stroke="#000" stroke-linejoin="round" stroke-width="0.25"/>
        <ellipse id="Ellipse_1409" data-name="Ellipse 1409" cx="1.221" cy="2.568" rx="1.221" ry="2.568" transform="translate(13.504 27.89)" fill="#c19165" stroke="#000" stroke-linejoin="round" stroke-width="0.25"/>
        <ellipse id="Ellipse_1410" data-name="Ellipse 1410" cx="2.568" cy="1.221" rx="2.568" ry="1.221" transform="translate(15.324 23.941) rotate(-38.752)" fill="#c19165" stroke="#000" stroke-linejoin="round" stroke-width="0.25"/>
      </g>
      <g id="Group_2769" data-name="Group 2769" transform="translate(129.15 0)">
        <g id="Group_2768" data-name="Group 2768">
          <path id="Path_9098" data-name="Path 9098" d="M3084.417,470.127c-.948-.424-37.81-23.922-54.528-33.384s-86.729-62.768-86.729-62.768l-17.043,11.354s35.032,48.392,52.044,63.084,27.31,26.313,40.425,37.793S3045.56,512.8,3054,518.743Z" transform="translate(-2926.118 -373.975)" fill="#c19165" stroke="#000" stroke-linejoin="round" stroke-width="0.25"/>
          <path id="Path_9099" data-name="Path 9099" d="M3023.632,494.61c-5.4-4.941-9.543-13.115-9.721-19.611-.221-8.07,4.552-17.577,9.721-22.5s12.015-7.72,16.485-8.977,17.537,1.676,22.877,11.735,5.761,21.514,1.711,28.918-9.356,17.041-23.47,17.7C3031.875,502.317,3026.023,496.8,3023.632,494.61Z" transform="translate(-2897.501 -351.394)" fill="#ecb36f" stroke="#000" stroke-linejoin="round" stroke-width="0.25"/>
          <path id="Path_9100" data-name="Path 9100" d="M2997.8,471.3c5.661.7,6.919-7.5,13.839-6.541" transform="translate(-2902.751 -344.406)" fill="none" stroke="#231815" stroke-miterlimit="10" stroke-width="0.25"/>
          <path id="Path_9101" data-name="Path 9101" d="M2963.186,438.777c7.277,2.671,11.869-6.325,17.24-3.552" transform="translate(-2914.034 -354.184)" fill="none" stroke="#231815" stroke-miterlimit="10" stroke-width="0.25"/>
          <path id="Path_9102" data-name="Path 9102" d="M2988.6,450.058c1.819,1.3,5.668-3.267,9.616-1.435" transform="translate(-2905.749 -349.784)" fill="none" stroke="#231815" stroke-miterlimit="10" stroke-width="0.25"/>
          <path id="Path_9103" data-name="Path 9103" d="M2992.228,443.265a5.1,5.1,0,0,1,2.121-2.945" transform="translate(-2904.567 -352.348)" fill="none" stroke="#231815" stroke-miterlimit="10" stroke-width="0.25"/>
          <path id="Path_9104" data-name="Path 9104" d="M2998.271,460.462c.174-.788-.26-6.465,3.118-10.687" transform="translate(-2902.597 -349.266)" fill="none" stroke="#231815" stroke-miterlimit="10" stroke-width="0.25"/>
          <path id="Path_9105" data-name="Path 9105" d="M3007.025,458.343a8.906,8.906,0,0,1,3.639-5.544" transform="translate(-2899.743 -348.28)" fill="none" stroke="#231815" stroke-miterlimit="10" stroke-width="0.25"/>
          <path id="Path_9106" data-name="Path 9106" d="M2985.809,433.467s1.01-4.945,6.964-8.285" transform="translate(-2906.659 -357.282)" fill="none" stroke="#231815" stroke-miterlimit="10" stroke-width="0.25"/>
          <path id="Path_9107" data-name="Path 9107" d="M3011.07,443.4a24.425,24.425,0,0,1,13.094-5.252" transform="translate(-2898.425 -353.055)" fill="none" stroke="#231815" stroke-miterlimit="10" stroke-width="0.25"/>
          <path id="Path_9108" data-name="Path 9108" d="M3016.007,434.1A10,10,0,0,1,3023,431.43" transform="translate(-2896.816 -355.246)" fill="none" stroke="#231815" stroke-miterlimit="10" stroke-width="0.25"/>
          <path id="Path_9109" data-name="Path 9109" d="M3028.931,441.154c.267-1.193.466-4.7-.927-5.565" transform="translate(-2892.904 -353.89)" fill="none" stroke="#231815" stroke-miterlimit="10" stroke-width="0.25"/>
          <path id="Path_9110" data-name="Path 9110" d="M2968.955,427.161s1.5-4.543,4.756-6.412" transform="translate(-2912.155 -358.727)" fill="none" stroke="#231815" stroke-miterlimit="10" stroke-width="0.25"/>
          <path id="Path_9111" data-name="Path 9111" d="M2968.144,414.008c.534-.534,3.511-4.142,5.83-4.142" transform="translate(-2912.418 -362.275)" fill="none" stroke="#231815" stroke-miterlimit="10" stroke-width="0.25"/>
          <path id="Path_9112" data-name="Path 9112" d="M2955.006,402.409c2.01,4.812,6.313,3.474,8.469,6.948" transform="translate(-2916.701 -364.706)" fill="none" stroke="#231815" stroke-miterlimit="10" stroke-width="0.25"/>
          <path id="Path_9113" data-name="Path 9113" d="M2953.714,398.051a9.871,9.871,0,0,1,4.386-3.558" transform="translate(-2917.122 -367.287)" fill="none" stroke="#231815" stroke-miterlimit="10" stroke-width="0.25"/>
        </g>
        <path id="Path_9114" data-name="Path 9114" d="M3019.353,465.584c.906-4.059,2.592-5.913,7.045-7.532s5.345-4.617,10.853-6.317,14.5-1.944,17.168,3.563.891,7.612,4.294,14.012-4.456,13.606-7.533,16.035-3.159,7.517-11.014,7.4-9.833-3.677-14.069-4.487-2.34-8.645-4.4-13.687C3020.138,470.745,3018.86,467.789,3019.353,465.584Z" transform="translate(-2895.76 -348.976)" fill="#c19165" stroke="#000" stroke-linejoin="round" stroke-width="0.25"/>
        <path id="Path_9115" data-name="Path 9115" d="M3022.13,464.822c1.187-3.3,3.05-2.745,7.075-5.185s5.918-5.124,11.956-6.526,10.431,2.013,10.613,4.453-1.524,5.063.793,10.308,1.342,8.173-3.416,12.2-3.476,9.761-9.332,9.212-5.673-1.342-8.6-3.417-6.1-1.037-5.612-5.124S3020.727,468.725,3022.13,464.822Z" transform="translate(-2894.896 -348.285)" fill="#ecb36f" stroke="#000" stroke-linejoin="round" stroke-width="0.25"/>
        <path id="Path_9116" data-name="Path 9116" d="M3021.352,453.41a5.462,5.462,0,0,1,2.913,1.5" transform="translate(-2895.073 -348.081)" fill="none" stroke="#231815" stroke-miterlimit="10" stroke-width="0.25"/>
        <path id="Path_9117" data-name="Path 9117" d="M3032.05,446.536a10.419,10.419,0,0,1,.755,3.759" transform="translate(-2891.586 -350.321)" fill="none" stroke="#231815" stroke-miterlimit="10" stroke-width="0.25"/>
        <path id="Path_9118" data-name="Path 9118" d="M3037.249,449.588a11.97,11.97,0,0,0,0-3.477" transform="translate(-2889.891 -350.46)" fill="none" stroke="#231815" stroke-miterlimit="10" stroke-width="0.25"/>
        <path id="Path_9119" data-name="Path 9119" d="M3048.849,459.146a7.859,7.859,0,0,0,3.29-.846" transform="translate(-2886.109 -346.486)" fill="none" stroke="#000" stroke-linejoin="round" stroke-width="0.25"/>
        <path id="Path_9120" data-name="Path 9120" d="M3016.008,466.7a5.127,5.127,0,0,0,3.238,0" transform="translate(-2896.815 -343.749)" fill="none" stroke="#231815" stroke-miterlimit="10" stroke-width="0.25"/>
        <path id="Path_9121" data-name="Path 9121" d="M3017.731,472.983a5.71,5.71,0,0,0,3.123-1.029" transform="translate(-2896.253 -342.035)" fill="none" stroke="#231815" stroke-miterlimit="10" stroke-width="0.25"/>
        <path id="Path_9122" data-name="Path 9122" d="M3030.9,483.417a9.321,9.321,0,0,0-.664,2.24" transform="translate(-2892.177 -338.299)" fill="none" stroke="#231815" stroke-miterlimit="10" stroke-width="0.25"/>
        <path id="Path_9123" data-name="Path 9123" d="M3038.257,483.153a6.509,6.509,0,0,1,1.3,2.855" transform="translate(-2889.563 -338.385)" fill="none" stroke="#231815" stroke-miterlimit="10" stroke-width="0.25"/>
        <path id="Path_9124" data-name="Path 9124" d="M3046.792,475.7a4.893,4.893,0,0,1,2.585,2.323" transform="translate(-2886.78 -340.814)" fill="none" stroke="#231815" stroke-miterlimit="10" stroke-width="0.25"/>
        <path id="Path_9125" data-name="Path 9125" d="M3034.078,466.279c.94-.252-.578-7.374-2.762-6.41S3032.921,466.589,3034.078,466.279Z" transform="translate(-2892.042 -346.004)" fill="#fff6eb" stroke="#000" stroke-miterlimit="10" stroke-width="0.25"/>
        <path id="Path_9126" data-name="Path 9126" d="M3037.384,465.579c.784,1.2,5.329-1.823,4.43-3.255S3036.42,464.1,3037.384,465.579Z" transform="translate(-2889.89 -345.292)" fill="#fff6eb" stroke="#000" stroke-miterlimit="10" stroke-width="0.25"/>
        <path id="Path_9127" data-name="Path 9127" d="M3028,471c-.04-2.632,6.742-4.3,7.22-2.953C3035.791,469.66,3028.047,473.808,3028,471Z" transform="translate(-2892.904 -343.463)" fill="#fff6eb" stroke="#000" stroke-miterlimit="10" stroke-width="0.25"/>
        <path id="Path_9128" data-name="Path 9128" d="M3037.348,468.716c1.25-.487,3.987,4.56,2.767,5.844S3035.865,469.294,3037.348,468.716Z" transform="translate(-2889.99 -343.102)" fill="#fff6eb" stroke="#000" stroke-miterlimit="10" stroke-width="0.25"/>
      </g>
    </g>
    <g id="Group_2774" data-name="Group 2774" transform="translate(2876.036 272.63)">
      <g id="Group_2771" data-name="Group 2771" transform="translate(148.025 140.745)">
        <path id="Path_9129" data-name="Path 9129" d="M2976.971,422.729c-1.99,3.649-.765,7.963,3.369,8.485s9.042-.4,8.655,3.432-4.637,5.081-2.912,9.595,13.871-.4,17.323,5.972,4.048,13.8,12.012,13.038,5.773-8.525,11.283-11.91,7.3-4.645,6.835-11.215-1.726-13.208,4.778-14.535,8.827,3.65,10.354,8.827,10.485,6.106,14.933,1.992,9.955-1.726,11.548,2.787,7.433,7.366,13.075,2.057.53-13.406,3.251-18.251,5.974-7.366,3.518-12.145-6.7-5.574-7.036-9.159-.4-7.964-7.365-10.685-13.739,5.574-16.658.729,7.566-10.5,14.269-10.191,11.614,1.83,12.145-4.475-4.115-12.145-9.225-11.348-12.476-1-20.042-5.11-7.1-7.433-11.813-6.637-5.375,3.45-8.761,9.357-14.468,1.062-14.733-2.787,1.062-14.269-11.746-7.7-9.444,30.787-9.444,30.787Z" transform="translate(-2976.038 -350.73)" fill="#cad226" stroke="#231815" stroke-miterlimit="10" stroke-width="0.25"/>
        <path id="Path_9130" data-name="Path 9130" d="M3061.613,406.508s-22.582-33.8-62.369-28.42" transform="translate(-2968.472 -342.001)" fill="none" stroke="#000" stroke-linejoin="round" stroke-width="0.25"/>
        <path id="Path_9131" data-name="Path 9131" d="M3046.626,374.085c-5.837-2.4-18.326,5.592-29.21,6.735" transform="translate(-2962.548 -343.263)" fill="none" stroke="#000" stroke-linejoin="round" stroke-width="0.25"/>
        <path id="Path_9132" data-name="Path 9132" d="M3044.157,406.69c-8.909-3.841-15-18.011-22.937-26.441" transform="translate(-2961.308 -341.108)" fill="none" stroke="#000" stroke-linejoin="round" stroke-width="0.25"/>
        <path id="Path_9133" data-name="Path 9133" d="M3028.04,406.408c-9.783-3.688-17.586-24-27.74-28.591" transform="translate(-2968.129 -341.9)" fill="none" stroke="#000" stroke-linejoin="round" stroke-width="0.25"/>
        <path id="Path_9134" data-name="Path 9134" d="M3021.6,367.1s-6.022.143-14.182,8.668" transform="translate(-2965.806 -345.394)" fill="none" stroke="#000" stroke-linejoin="round" stroke-width="0.25"/>
        <ellipse id="Ellipse_1411" data-name="Ellipse 1411" cx="3.823" cy="2.414" rx="3.823" ry="2.414" transform="translate(99.404 70.776)" fill="#dffffa" stroke="#231815" stroke-miterlimit="10" stroke-width="0.25"/>
        <ellipse id="Ellipse_1412" data-name="Ellipse 1412" cx="1.61" cy="2.683" rx="1.61" ry="2.683" transform="matrix(0.273, -0.962, 0.962, 0.273, 101.254, 60.478)" fill="#dffffa" stroke="#231815" stroke-miterlimit="10" stroke-width="0.25"/>
      </g>
      <g id="Group_2772" data-name="Group 2772" transform="translate(3.422 0)">
        <path id="Path_9135" data-name="Path 9135" d="M2881.376,347.424c-.123-.367-3.427-1.224-3.427-5.263s1.959-4.039,1.1-7.955-.611-5.017,2.325-7.221,6.364-2.448,3.793-7.709-9.669-5.752-10.647-10.158,6.976-10.035,3.794-17.011-7.955-4.9-10.157-13.1-1.1-10.28,1.59-12.483,6-4.039,6.243-8.078,1.957-11.259,11.626-13.463,15.052,5.141,17.746,10.4,9.3.489,15.052,1.835,11.5,7.1,16.033,12.115,8.078,4.528,13.217-1.59,10.28-8.2,19.46-5.263,12.361,9.668,12.361,17.624,5.018,11.014,10.4,10.77,9.546,3.672,10.525,8.811-5.385,12.116-9.424,18.113-1.468,12.85,7.1,11.872,13.217-6.241,24.109-1.224,4.9,15.053,6.731,19.7.367,5.629-.979,8.566-.734,4.284-.734,4.284l-23.742,14.809-69.434,14.164Z" transform="translate(-2866.984 -244.586)" fill="#cad226" stroke="#231815" stroke-miterlimit="10" stroke-width="0.25"/>
        <path id="Path_9136" data-name="Path 9136" d="M2892.6,269.6s73.99,29.967,77.906,97.592" transform="translate(-2858.633 -236.432)" fill="none" stroke="#000" stroke-linejoin="round" stroke-width="0.25"/>
        <path id="Path_9137" data-name="Path 9137" d="M2897.146,284.219s15.643-5.446,27.451,1.469" transform="translate(-2857.15 -232.331)" fill="none" stroke="#000" stroke-linejoin="round" stroke-width="0.25"/>
        <path id="Path_9138" data-name="Path 9138" d="M2911.874,299.063s22.62-.6,39.782,16.877" transform="translate(-2852.35 -226.829)" fill="none" stroke="#000" stroke-linejoin="round" stroke-width="0.25"/>
        <path id="Path_9139" data-name="Path 9139" d="M2927.831,276.625s-3.2,11.368-1.24,20.764" transform="translate(-2847.759 -234.142)" fill="none" stroke="#000" stroke-linejoin="round" stroke-width="0.25"/>
        <path id="Path_9140" data-name="Path 9140" d="M2949.683,290.966c-.1.306-7.335,11.2-7.335,28.714" transform="translate(-2842.417 -229.467)" fill="none" stroke="#000" stroke-linejoin="round" stroke-width="0.25"/>
        <path id="Path_9141" data-name="Path 9141" d="M2965.649,316.367s-12.225,14.159-14.774,28.849" transform="translate(-2839.636 -221.187)" fill="none" stroke="#000" stroke-linejoin="round" stroke-width="0.25"/>
        <path id="Path_9142" data-name="Path 9142" d="M2932.3,325.616c.459,0,19.117,2.525,23.587,10.308" transform="translate(-2845.691 -218.172)" fill="none" stroke="#000" stroke-linejoin="round" stroke-width="0.25"/>
        <ellipse id="Ellipse_1413" data-name="Ellipse 1413" cx="3.07" cy="1.953" rx="3.07" ry="1.953" transform="translate(13.788 23.534)" fill="#dffffa" stroke="#231815" stroke-miterlimit="10" stroke-width="0.25"/>
        <ellipse id="Ellipse_1414" data-name="Ellipse 1414" cx="2.968" cy="2.215" rx="2.968" ry="2.215" transform="translate(97.132 41.683)" fill="#dffffa" stroke="#231815" stroke-miterlimit="10" stroke-width="0.25"/>
      </g>
      <g id="Group_2773" data-name="Group 2773" transform="translate(0 77.042)">
        <path id="Path_9143" data-name="Path 9143" d="M2974.2,323.018c4.663,2.8,2.745,10.983-2.457,10.55s-7.659,2.457-5.925,6.5,6.069,2.746,8.381,9.393,16.329,7.224,21.53,5.2,8.67-4.913,5.636-8.237-1.445-9.393,4.913-8.526,10.982,7.081,16.184,4.48,10.26-4.336,15.318,1.01-1.012,9.827,2.746,13.728,10.115,2.024,12.572,6.5-3.469,12.139-1.879,17.486,7.37,4.768,7.658,11.271-5.779,7.37-7.8,12.138,1.445,9.249-2.022,13.872-10.982,3.035-15.028,3.035-6.214,3.332-4.481,7.88-1.3,7.148-5.057,11.049-6.947,3.613-11.854,0-10.978,2.457-15.819-2.456.044-8.671-8.033-14.884-14,.821-14.293,4.962-5.346,9.344,1.735,11.366,12.572,2.3,13.439,9.6.749,9.905-2.442,14.675,1.58,6.664-1.819,10.918-5.011,3.859-8.9,6.729-8.947,10.268-15.017,7.365-3.033-5.056-5.78-10.915-5.92-7.883-9.462-6-3.4,6.106-6.577,9.555-10.368,4.938-15.372,4.844-3.7,6.533-10.061,9.94-12.282,1.411-14.162-1.132a100.923,100.923,0,0,0-6.647-8.807c-3.467-4-4.19-9.967,0-13.412a6.938,6.938,0,0,0-.145-11.1c-3.178-2.457-5.179-5.163-3.673-9.229s-3.408-8.692-8.754-8.257-7.369,4.768-12.283,0-5.635-10.115-1.3-11.56,2.023-6.792,2.168-11.271,0-9.538,9.393-9.538,10.693,5.059,17.2,3.324,6.213-7.659,4.913-10.982-3.178-5.926-.867-8.815,2.746-5.057-1.733-7.081-4.336-4.047-13.439-3.324-10.261-3.9-10.116-8.525-2.889-5.059-5.78-8.671-2.891-10.55-.434-14.6,5.2-5.2,8.959-7.8,2.6-7.514,2.167-12.572,3.324-8.815,8.816-11.993,20.375-2.891,25.143-8.382,7.948-10.4,13.15-9.538,11.272,5.348,14.74,3.324,7.948-5.635,13.294-1.445,4.914,13.872,8.815,16.763S2969.137,319.984,2974.2,323.018Z" transform="translate(-2864.403 -302.688)" fill="#ddd658" stroke="#000" stroke-linejoin="round" stroke-width="0.25"/>
        <path id="Path_9144" data-name="Path 9144" d="M2894.1,326.2c23.12.764,28.661,18.373,40.889,20.284" transform="translate(-2854.723 -295.022)" fill="none" stroke="#000" stroke-linejoin="round" stroke-width="0.25"/>
        <path id="Path_9145" data-name="Path 9145" d="M2908.07,431.772c1.92-28.676,17.105-67.861,54.721-91.228-6.813,6.4-30.789-5.065-49.744,6.59" transform="translate(-2850.168 -290.347)" fill="none" stroke="#000" stroke-linejoin="round" stroke-width="0.25"/>
        <path id="Path_9146" data-name="Path 9146" d="M2897.5,388.856c4.355-.573,17.881-11,26.055-12.572" transform="translate(-2853.615 -278.697)" fill="none" stroke="#000" stroke-linejoin="round" stroke-width="0.25"/>
        <path id="Path_9147" data-name="Path 9147" d="M2922.055,419.083c3.4-10.673-8.794-20.071-8.269-35.083" transform="translate(-2848.31 -276.181)" fill="none" stroke="#000" stroke-linejoin="round" stroke-width="0.25"/>
        <path id="Path_9148" data-name="Path 9148" d="M2937.155,407.678c3.9-7.826-12.318-35.161-9.2-48.177" transform="translate(-2843.818 -284.168)" fill="none" stroke="#000" stroke-linejoin="round" stroke-width="0.25"/>
        <path id="Path_9149" data-name="Path 9149" d="M2901.615,371.863c16.117-15.133,28.783-11.72,39.5-16.477" transform="translate(-2852.272 -285.509)" fill="none" stroke="#000" stroke-linejoin="round" stroke-width="0.25"/>
        <path id="Path_9150" data-name="Path 9150" d="M2950.9,393.116c-4.029-13.211-15.916-11.154-21.959-22.31" transform="translate(-2843.366 -280.482)" fill="none" stroke="#000" stroke-linejoin="round" stroke-width="0.25"/>
        <path id="Path_9151" data-name="Path 9151" d="M2964.574,388.441c-.915-20.044-21.266-27.364-21.225-43.821" transform="translate(-2838.667 -289.019)" fill="none" stroke="#000" stroke-linejoin="round" stroke-width="0.25"/>
        <path id="Path_9152" data-name="Path 9152" d="M2999.073,375.976c-17.582-12.573-37.889-7.209-47.721-15.514" transform="translate(-2836.058 -283.854)" fill="none" stroke="#000" stroke-linejoin="round" stroke-width="0.25"/>
        <ellipse id="Ellipse_1415" data-name="Ellipse 1415" cx="3.965" cy="1.761" rx="3.965" ry="1.761" transform="translate(28.619 131.144)" fill="none" stroke="#000" stroke-linejoin="round" stroke-width="0.25"/>
        <ellipse id="Ellipse_1416" data-name="Ellipse 1416" cx="3.116" cy="2.401" rx="3.116" ry="2.401" transform="translate(20.049 124.292)" fill="none" stroke="#000" stroke-linejoin="round" stroke-width="0.25"/>
        <ellipse id="Ellipse_1417" data-name="Ellipse 1417" cx="5.961" cy="3.61" rx="5.961" ry="3.61" transform="translate(163.015 71.943)" fill="#dffffa" stroke="#231815" stroke-miterlimit="10" stroke-width="0.25"/>
        <ellipse id="Ellipse_1418" data-name="Ellipse 1418" cx="3.405" cy="1.839" rx="3.405" ry="1.839" transform="translate(153.553 60.366)" fill="#dffffa" stroke="#231815" stroke-miterlimit="10" stroke-width="0.25"/>
      </g>
    </g>
  </g>
</svg>
