<svg xmlns="http://www.w3.org/2000/svg" viewBox="0 0 95.81 79.14"><defs><style>.cls-1{fill:#fff;}</style></defs><title>0</title><g id="圖層_1" data-name="圖層 1"><path class="cls-1" d="M95.33,40.07a46.18,46.18,0,0,1-1.4-12.62,36.12,36.12,0,0,0-.88-9.36c-.65-2.4-1.85-3.92-3.55-4.51a3.87,3.87,0,0,0-.67-.17,8.73,8.73,0,0,0-6-3h-.23a7.26,7.26,0,0,0-4.31,1.45h-.18a17.21,17.21,0,0,0-2.53.2C64.18,13.76,64.18,26.4,64.18,37.55v1c0,1.13,0,2.25,0,3.34.14,1.52.17,3.07.18,4.66a24.23,24.23,0,0,0,1.16,6.21c1.51,4.21,4.54,6.4,9.28,6.68l.27,0h.19c.18,0,.36,0,.56,0A13.59,13.59,0,0,0,81,58.42a7,7,0,0,0,1.46.14A12.61,12.61,0,0,0,91,54.47C94.17,51.31,97,45.86,95.33,40.07ZM90,53.47a11.2,11.2,0,0,1-7.54,3.67,6.49,6.49,0,0,1-1.6-.2,12.15,12.15,0,0,1-5,1.12c-.26,0-.48,0-.73,0v0l0,0c-4.23-.2-6.86-2-8.2-5.75-1.27-3.54-1.26-8.49-1.26-13.74v-1c0-11.1,0-22.57,10.21-24.11a15.15,15.15,0,0,1,3-.17,5.88,5.88,0,0,1,3.82-1.47h.19c1.85.06,3.64,1,5.34,2.95a3,3,0,0,1,.88.16c1.24.43,2.13,1.62,2.66,3.54a35.62,35.62,0,0,1,.83,9,47,47,0,0,0,1.44,13C95.43,45.66,92.88,50.59,90,53.47Z"/><path class="cls-1" d="M28.23,32.43a5.09,5.09,0,0,0-2.91-2.78,3.46,3.46,0,0,0-.67-.18,8.72,8.72,0,0,0-6-3h-.23a7.25,7.25,0,0,0-4.31,1.46h-.2a16.8,16.8,0,0,0-2.51.19C0,29.83,0,42.46,0,53.61v1C0,60,0,65,1.34,68.81c1.52,4.22,4.55,6.41,9.28,6.68a1.33,1.33,0,0,0,.28,0h.19l.56,0a13.58,13.58,0,0,0,5.18-1.05,7.77,7.77,0,0,0,1.46.14,12.61,12.61,0,0,0,8.55-4.09c3.15-3.17,5.94-8.61,4.3-14.4A46.24,46.24,0,0,1,29.75,43.5v-.65c-.07-.17-.14-.32-.2-.49A32.15,32.15,0,0,1,28.23,32.43Zm1.55,24.09c1.47,5.21-1.08,10.14-4,13a11.24,11.24,0,0,1-7.54,3.67,6.05,6.05,0,0,1-1.6-.21,12.16,12.16,0,0,1-5,1.13c-.26,0-.48,0-.73,0v0l0,0c-4.23-.2-6.87-2-8.2-5.75-1.27-3.54-1.27-8.5-1.26-13.75v-1c0-11.1,0-22.57,10.21-24.12a15.74,15.74,0,0,1,3-.16,5.89,5.89,0,0,1,3.83-1.47h.19A7.72,7.72,0,0,1,24,30.82a3.4,3.4,0,0,1,.88.16c1.24.43,2.13,1.62,2.66,3.55a35.58,35.58,0,0,1,.83,9A46.94,46.94,0,0,0,29.78,56.52Z"/><path class="cls-1" d="M63.5,37.75c-.66-2.4-1.85-3.92-3.56-4.51l-.12,0a12.61,12.61,0,0,0-.47-3.52A45.71,45.71,0,0,1,58,17.05a36.53,36.53,0,0,0-.88-9.35c-.66-2.4-1.85-3.92-3.56-4.51A4.37,4.37,0,0,0,52.85,3a8.77,8.77,0,0,0-6-3h-.22a7.39,7.39,0,0,0-4.32,1.45h-.19a17.21,17.21,0,0,0-2.53.2C28.21,3.37,28.21,16,28.21,27.16v1c0,1.45,0,2.88,0,4.27a9.34,9.34,0,0,1,.64,1.72,33.84,33.84,0,0,1,.88,8.7,9.22,9.22,0,0,0,5.09,5.34c-.21,2.93-.21,6-.21,9v1c0,5.36,0,10.43,1.34,14.2,1.51,4.22,4.55,6.4,9.28,6.68a1.23,1.23,0,0,0,.27,0h.2a4.93,4.93,0,0,0,.55,0,13.68,13.68,0,0,0,5.19-1.06,7,7,0,0,0,1.45.14,12.61,12.61,0,0,0,8.55-4.09c3.15-3.16,5.94-8.6,4.31-14.4A45.75,45.75,0,0,1,64.38,47.1c0-.19,0-.37,0-.56-.11-1.48-.16-3-.18-4.66A23.28,23.28,0,0,0,63.5,37.75Zm-3,35.38a11.21,11.21,0,0,1-7.55,3.68,6,6,0,0,1-1.59-.21,12.23,12.23,0,0,1-5,1.12c-.25,0-.48,0-.72,0v0l0,0c-4.24-.2-6.87-2-8.21-5.75C36,68.39,36,63.44,36,58.19v-1c0-3.4,0-6.82.3-10a7.85,7.85,0,0,1-5.46-5.34c-1.27-3.54-1.26-8.49-1.26-13.74v-1c0-11.09,0-22.57,10.21-24.11a14.36,14.36,0,0,1,3-.16,5.89,5.89,0,0,1,4-1.47c1.85.06,3.64,1.06,5.34,3a3.15,3.15,0,0,1,.89.16c1.23.43,2.12,1.62,2.65,3.54a35.71,35.71,0,0,1,.83,9,47,47,0,0,0,1.44,13,11.38,11.38,0,0,1,.38,4.1,2.73,2.73,0,0,1,.23.25,3.09,3.09,0,0,1,.89.16c1.23.43,2.13,1.62,2.65,3.54a35.17,35.17,0,0,1,.83,9,47,47,0,0,0,1.45,13C65.87,65.32,63.33,70.25,60.46,73.13Z"/><path class="cls-1" d="M64.37,46.54c0-1.59,0-3.14-.18-4.66C64.21,43.5,64.26,45.06,64.37,46.54Z"/><path class="cls-1" d="M28.23,32.43a32.15,32.15,0,0,0,1.32,9.93c.06.17.13.32.2.49a33.84,33.84,0,0,0-.88-8.7A9.34,9.34,0,0,0,28.23,32.43Z"/></g></svg>