<svg xmlns="http://www.w3.org/2000/svg" viewBox="0 0 67.26 84.65"><defs><style>.cls-1{fill:#fff;}</style></defs><title>0</title><g id="圖層_1" data-name="圖層 1"><path class="cls-1" d="M31.37,44.47a7.63,7.63,0,0,0-2.27-.35c-1.81,0-6.25.74-8.42,7.57-.13.39-.24.79-.35,1.19A17.48,17.48,0,0,1,19,49.57C17.6,45,14.75,43.16,12.6,42.42a9.49,9.49,0,0,0-3.09-.51,8.85,8.85,0,0,0-5.09,1.54,10.15,10.15,0,0,0-3.1,13.33,14.25,14.25,0,0,0,3.27,4.16,5.82,5.82,0,0,1,2.32,4.74c.25,3.15,2,6.89,8.68,6.89h0a6.44,6.44,0,0,1,5.17,2.36,48,48,0,0,1,.37,8.24,1.42,1.42,0,0,0,1.36,1.47h.31a1.42,1.42,0,0,0,1-.38,1.44,1.44,0,0,0,.46-1,51.87,51.87,0,0,0-.4-8.75,1,1,0,0,1,0-.16,3.76,3.76,0,0,0,.35-.88c.39-1.5,1.52-2,3.48-2.77a9.09,9.09,0,0,0,4.53-3,5,5,0,0,0,1-4.18c-.16-1-.34-2.21,1.18-5,2-3.59,2.41-7.26,1.28-10.08A6.83,6.83,0,0,0,31.37,44.47Zm1.77,13.45c-1.74,3.21-1.52,4.69-1.34,5.88A3.57,3.57,0,0,1,31.1,67a7.9,7.9,0,0,1-3.89,2.45c-1.92.75-3.74,1.46-4.33,3.73a2.05,2.05,0,0,1-.26.62l-.23.61a49.19,49.19,0,0,1,.44,8.87h-.25a48.7,48.7,0,0,0-.44-8.83,7.76,7.76,0,0,0-6.52-3.24h0c-4.59,0-7-1.82-7.27-5.58a7.15,7.15,0,0,0-2.76-5.66,12.91,12.91,0,0,1-3-3.78A8.76,8.76,0,0,1,5.24,44.61a7.85,7.85,0,0,1,6.9-.85C14,44.39,16.42,46,17.63,50A15.88,15.88,0,0,0,21,56.3a32.63,32.63,0,0,1,1-4.18C24,46,28,44.9,30.94,45.82A5.42,5.42,0,0,1,34.35,49C35.33,51.47,34.89,54.7,33.14,57.92Z"/><path class="cls-1" d="M66.65,31a6.83,6.83,0,0,0-4.31-4,7.51,7.51,0,0,0-2.26-.35c-1.81,0-6.25.74-8.42,7.57-.13.39-.24.79-.35,1.19A17.48,17.48,0,0,1,50,32.08c-1.39-4.57-4.24-6.41-6.39-7.15a9.78,9.78,0,0,0-3.1-.51A8.82,8.82,0,0,0,35.4,26a10.16,10.16,0,0,0-3.11,13.33,14.42,14.42,0,0,0,3.28,4.16,5.83,5.83,0,0,1,2.32,4.74c.25,3.15,2,6.89,8.68,6.89h0a6.44,6.44,0,0,1,5.17,2.36,48,48,0,0,1,.37,8.24,1.42,1.42,0,0,0,1.36,1.47h.31a1.43,1.43,0,0,0,1.42-1.37A50.81,50.81,0,0,0,54.82,57l.06-.16a3.76,3.76,0,0,0,.35-.88c.39-1.5,1.52-2,3.48-2.77a9.09,9.09,0,0,0,4.53-2.95,5,5,0,0,0,.95-4.18c-.16-1-.34-2.21,1.18-5C67.32,37.51,67.78,33.84,66.65,31ZM62.78,46.31a3.57,3.57,0,0,1-.7,3.15,8,8,0,0,1-3.89,2.46c-1.92.74-3.74,1.45-4.33,3.72a2.05,2.05,0,0,1-.26.62l-.23.61a49.19,49.19,0,0,1,.44,8.87h-.25a48.74,48.74,0,0,0-.44-8.83,7.76,7.76,0,0,0-6.52-3.24h0c-4.59,0-7-1.82-7.27-5.58a7.14,7.14,0,0,0-2.76-5.66,12.91,12.91,0,0,1-3-3.78,8.76,8.76,0,0,1,2.67-11.52,7.85,7.85,0,0,1,6.9-.85c1.84.63,4.28,2.22,5.49,6.22A15.88,15.88,0,0,0,52,38.81a32.63,32.63,0,0,1,1-4.18c1.94-6.12,6-7.21,8.91-6.3a5.44,5.44,0,0,1,3.41,3.22c1,2.43.54,5.66-1.21,8.87S62.6,45.12,62.78,46.31Z"/><path class="cls-1" d="M5.14,19a5.8,5.8,0,0,1,2.32,4.74c.25,3.14,2,6.89,8.71,6.89A6.44,6.44,0,0,1,21.34,33a48,48,0,0,1,.37,8.24,1.42,1.42,0,0,0,1.36,1.46l.31,0a1.42,1.42,0,0,0,1-.38,1.44,1.44,0,0,0,.46-1,52,52,0,0,0-.4-8.76.88.88,0,0,1,.05-.15,3.67,3.67,0,0,0,.35-.89c.39-1.5,1.52-2,3.48-2.76a9.22,9.22,0,0,0,4.53-2.95,5,5,0,0,0,.95-4.18c-.16-1-.34-2.21,1.18-5,2-3.59,2.41-7.26,1.28-10.08a6.83,6.83,0,0,0-4.31-4,7.51,7.51,0,0,0-2.26-.35c-1.81,0-6.25.74-8.42,7.57-.13.39-.24.78-.35,1.18a17.09,17.09,0,0,1-1.34-3.3C18.15,3.08,15.3,1.25,13.15.51A9.49,9.49,0,0,0,10.06,0,8.85,8.85,0,0,0,5,1.54a10.14,10.14,0,0,0-3.1,13.33A14.39,14.39,0,0,0,5.14,19ZM5.79,2.69a7.88,7.88,0,0,1,6.9-.84c1.84.63,4.28,2.22,5.49,6.22a15.88,15.88,0,0,0,3.38,6.32,32.23,32.23,0,0,1,1-4.18c1.94-6.12,6-7.22,8.91-6.3A5.42,5.42,0,0,1,34.9,7.13c1,2.42.54,5.66-1.21,8.87s-1.52,4.7-1.34,5.89a3.57,3.57,0,0,1-.7,3.15,7.9,7.9,0,0,1-3.89,2.45c-1.92.75-3.74,1.45-4.33,3.72a2.05,2.05,0,0,1-.26.62l-.23.62a49.14,49.14,0,0,1,.44,8.87h-.25a48.7,48.7,0,0,0-.44-8.83,7.76,7.76,0,0,0-6.52-3.24h0c-4.59,0-7-1.83-7.27-5.58A7.18,7.18,0,0,0,6.11,18a12.85,12.85,0,0,1-3-3.77A8.77,8.77,0,0,1,5.79,2.69Z"/></g></svg>