<svg xmlns="http://www.w3.org/2000/svg" viewBox="0 0 140.93 106.75"><defs><style>.cls-1{fill:#fff;}</style></defs><title>0</title><g id="圖層_1" data-name="圖層 1"><path class="cls-1" d="M41.64,65.26a8.25,8.25,0,0,0,2.09-6.68,6.92,6.92,0,0,0-4.5-5.47,7.21,7.21,0,0,0-1-.28,8.77,8.77,0,0,0,1-15,9.32,9.32,0,0,0,.09-1,8.8,8.8,0,0,0-8.48-9,8.79,8.79,0,0,0-8-5.69h-.28a8.7,8.7,0,0,0-8,5.23,8.77,8.77,0,0,0-8.76,8.54,8.88,8.88,0,0,0,0,.89,8.79,8.79,0,0,0,.32,15.47,7.63,7.63,0,0,0-1.24.27A7,7,0,0,0,.16,57.71,8.27,8.27,0,0,0,2,64.47c1.51,1.91,5.19,5.15,12.87,5.26h.26a12.34,12.34,0,0,0,6.64-1.67A12.41,12.41,0,0,0,28.58,70h.7C36.5,70,40.12,67,41.64,65.26ZM29.28,68.59h-.66c-3.35-.08-5.67-1.1-6.84-2.36-1.18,1.18-3.45,2.09-6.67,2.09h-.25c-7.08-.1-10.41-3-11.76-4.72A6.87,6.87,0,0,1,1.54,58,5.49,5.49,0,0,1,5.3,53.77a5.45,5.45,0,0,1,5.17,1,13,13,0,0,1,2,2.51c1.23,1.84,2.5,3.74,6,4.57-.63-6.51-3.58-10.1-4.6-11.17a7.4,7.4,0,0,1-5.05.94A7.37,7.37,0,0,1,7.33,37.5a8,8,0,0,1-.15-1.67,7.41,7.41,0,0,1,7.59-7.16,6.64,6.64,0,0,1,.73.07,7.36,7.36,0,0,1,14.25.43,6.35,6.35,0,0,1,.95,0,7.36,7.36,0,0,1,7.15,7.58,6.91,6.91,0,0,1-.27,1.77A7.37,7.37,0,0,1,34.21,52.4H34a7.19,7.19,0,0,1-3.61-1.08,18.88,18.88,0,0,0-5.05,10.62c3.49-.7,4.83-2.53,6.12-4.31a13.21,13.21,0,0,1,2.09-2.43,5.55,5.55,0,0,1,8.8,3.65,6.86,6.86,0,0,1-1.78,5.5C39.18,66,35.91,68.59,29.28,68.59ZM10.65,53.09a9,9,0,0,0,2.88-.69,17.6,17.6,0,0,1,3.2,7.26,8.73,8.73,0,0,1-3.08-3.2,14.09,14.09,0,0,0-2.22-2.78A5.7,5.7,0,0,0,10.65,53.09Zm22.46.65-.48.36a14.5,14.5,0,0,0-2.33,2.69,8.82,8.82,0,0,1-3.06,3,17.18,17.18,0,0,1,3.44-6.73A8.52,8.52,0,0,0,33.11,53.74Z"/><path class="cls-1" d="M63.39,58.66h.26A12.31,12.31,0,0,0,70.29,57a12.42,12.42,0,0,0,6.84,1.94h.69c7.23,0,10.85-3,12.36-4.75a8.25,8.25,0,0,0,2.1-6.68A6.94,6.94,0,0,0,87.78,42a6.82,6.82,0,0,0-1-.28,8.82,8.82,0,0,0,4.74-7.55,8.83,8.83,0,0,0-3.82-7.49,9.15,9.15,0,0,0,.1-1,8.8,8.8,0,0,0-8.49-9,8.78,8.78,0,0,0-8-5.69h-.26a8.68,8.68,0,0,0-8,5.24,8.78,8.78,0,0,0-8.75,9.42,8.79,8.79,0,0,0,.33,15.47,8.55,8.55,0,0,0-1.24.27,7,7,0,0,0-4.72,5.29,8.31,8.31,0,0,0,1.83,6.76C52,55.32,55.72,58.55,63.39,58.66ZM50.09,47A5.56,5.56,0,0,1,59,43.66a13.44,13.44,0,0,1,2,2.51c1.23,1.85,2.49,3.74,6,4.57-.63-6.52-3.57-10.1-4.6-11.17a7.33,7.33,0,0,1-9.8-2.1,7.36,7.36,0,0,1,3.26-11,7,7,0,0,1-.15-1.68,7.38,7.38,0,0,1,7.36-7.16h.22a4.78,4.78,0,0,1,.73.06,7.36,7.36,0,0,1,7.07-5.3h.22a7.34,7.34,0,0,1,7,5.73,6.53,6.53,0,0,1,1,0,7.33,7.33,0,0,1,6.87,9.35,7.36,7.36,0,0,1,1.69,11.91,7.31,7.31,0,0,1-5,2h-.22a7.37,7.37,0,0,1-3.62-1.09,18.93,18.93,0,0,0-5,10.62c3.49-.7,4.82-2.53,6.11-4.31a13.27,13.27,0,0,1,2.1-2.43,5.55,5.55,0,0,1,8.79,3.65,6.82,6.82,0,0,1-1.77,5.5c-1.38,1.61-4.65,4.25-11.29,4.25h-.66c-3.35-.09-5.67-1.11-6.83-2.37-1.18,1.18-3.46,2.09-6.68,2.09h-.24c-7.08-.1-10.41-3-11.77-4.72A6.82,6.82,0,0,1,50.09,47ZM59.19,42a8.93,8.93,0,0,0,2.88-.69,17.34,17.34,0,0,1,3.2,7.26,8.62,8.62,0,0,1-3.07-3.2A14.86,14.86,0,0,0,60,42.61,5.24,5.24,0,0,0,59.19,42Zm22.46.66q-.24.16-.48.36a14.43,14.43,0,0,0-2.32,2.68,8.91,8.91,0,0,1-3.06,3A17.33,17.33,0,0,1,79.22,42,9.08,9.08,0,0,0,81.65,42.68Z"/><path class="cls-1" d="M74.3,89.84a6.85,6.85,0,0,0-1-.28,8.77,8.77,0,0,0,1-15,9.15,9.15,0,0,0,.09-1,8.78,8.78,0,0,0-8.48-9,8.79,8.79,0,0,0-8-5.69h-.26a8.72,8.72,0,0,0-8,5.24,8.85,8.85,0,0,0-8.76,8.53c0,.3,0,.6,0,.9a8.8,8.8,0,0,0,.33,15.47,6.8,6.8,0,0,0-1.25.27,6.94,6.94,0,0,0-4.71,5.29,8.22,8.22,0,0,0,1.83,6.75c1.5,1.92,5.18,5.15,12.86,5.26h.26a12.13,12.13,0,0,0,6.64-1.66,12.49,12.49,0,0,0,6.83,1.94h.7c7.22,0,10.84-3,12.36-4.76a8.23,8.23,0,0,0,2.09-6.68A6.92,6.92,0,0,0,74.3,89.84Zm1.33,11.23c-1.38,1.61-4.65,4.26-11.28,4.26h-.66c-3.35-.09-5.67-1.11-6.84-2.36-1.18,1.18-3.45,2.09-6.67,2.09h-.25c-7.08-.11-10.41-3-11.76-4.73a6.85,6.85,0,0,1-1.56-5.56,5.56,5.56,0,0,1,8.93-3.3,12.81,12.81,0,0,1,2,2.52c1.23,1.84,2.5,3.73,6,4.56C52.92,92,50,88.44,49,87.38A7.36,7.36,0,1,1,42.4,74.24a8.07,8.07,0,0,1-.15-1.68,7.38,7.38,0,0,1,7.37-7.15h.22l.73.06a7.35,7.35,0,0,1,7.06-5.3h.22a7.35,7.35,0,0,1,7,5.73,8,8,0,0,1,1,0,7.36,7.36,0,0,1,7.15,7.59,7.23,7.23,0,0,1-.27,1.76,7.37,7.37,0,0,1-3.37,13.92h-.22a7.4,7.4,0,0,1-3.61-1.08A18.88,18.88,0,0,0,60.4,98.66c3.49-.7,4.83-2.53,6.12-4.3a12.94,12.94,0,0,1,2.09-2.44,5.57,5.57,0,0,1,8.8,3.65A6.85,6.85,0,0,1,75.63,101.07ZM45.72,89.83a9,9,0,0,0,2.88-.69,17.34,17.34,0,0,1,3.2,7.26,8.63,8.63,0,0,1-3.08-3.22,14.38,14.38,0,0,0-2.22-2.76A5,5,0,0,0,45.72,89.83Zm22.46.65a4.29,4.29,0,0,0-.48.36,14.45,14.45,0,0,0-2.33,2.68,8.82,8.82,0,0,1-3.06,3,17.39,17.39,0,0,1,3.44-6.73A8.88,8.88,0,0,0,68.18,90.48Z"/><path class="cls-1" d="M122.85,78.77a8.89,8.89,0,0,0-1-.28,8.76,8.76,0,0,0,1-15,7.18,7.18,0,0,0,.1-1,8.78,8.78,0,0,0-8.49-9,8.76,8.76,0,0,0-8-5.69h-.26a8.7,8.7,0,0,0-8,5.24,8.79,8.79,0,0,0-8.75,9.43,8.71,8.71,0,0,0-4.32,6.1,8.82,8.82,0,0,0,4.66,9.37,6.63,6.63,0,0,0-1.25.27,6.94,6.94,0,0,0-4.72,5.29,8.29,8.29,0,0,0,1.83,6.75c1.51,1.92,5.19,5.16,12.86,5.26h.26a12.31,12.31,0,0,0,6.64-1.66,12.5,12.5,0,0,0,6.84,1.94h.69c7.23,0,10.85-3,12.37-4.76a8.26,8.26,0,0,0,2.09-6.67A7,7,0,0,0,122.85,78.77ZM124.18,90c-1.38,1.61-4.65,4.26-11.29,4.26h-.66c-3.35-.09-5.67-1.1-6.83-2.36-1.18,1.18-3.46,2.09-6.68,2.09h-.24c-7.08-.1-10.41-3-11.77-4.72a6.83,6.83,0,0,1-1.55-5.57,5.56,5.56,0,0,1,8.93-3.3,13.19,13.19,0,0,1,2,2.52c1.23,1.84,2.49,3.73,6,4.56-.63-6.51-3.57-10.1-4.6-11.16A7.36,7.36,0,1,1,91,63.17a6.91,6.91,0,0,1-.15-1.68,7.38,7.38,0,0,1,7.36-7.15h.22l.73.06a7.37,7.37,0,0,1,7.07-5.3h.22a7.34,7.34,0,0,1,7,5.73c.36,0,.66,0,1,0a7.33,7.33,0,0,1,6.87,9.35,7.37,7.37,0,0,1-3.37,13.92h-.21A7.47,7.47,0,0,1,114,77a18.89,18.89,0,0,0-5,10.61c3.49-.7,4.82-2.52,6.11-4.3a13.38,13.38,0,0,1,2.1-2.44A5.56,5.56,0,0,1,126,84.5,6.81,6.81,0,0,1,124.18,90ZM94.27,78.76a8.87,8.87,0,0,0,2.87-.69,17.21,17.21,0,0,1,3.2,7.26,8.68,8.68,0,0,1-3.08-3.21,14.05,14.05,0,0,0-2.21-2.77A5,5,0,0,0,94.27,78.76Zm22.45.65-.48.36a14.43,14.43,0,0,0-2.32,2.68,8.91,8.91,0,0,1-3.06,3,17.41,17.41,0,0,1,3.43-6.73A9.08,9.08,0,0,0,116.72,79.41Z"/><path class="cls-1" d="M140.82,36.44a6.92,6.92,0,0,0-4.5-5.47,7.56,7.56,0,0,0-1-.27,8.8,8.8,0,0,0,.91-15,9.12,9.12,0,0,0,.09-1,8.8,8.8,0,0,0-8.48-9,8.79,8.79,0,0,0-8-5.69h-.24a8.72,8.72,0,0,0-8,5.24,8.78,8.78,0,0,0-8.74,9.42A8.78,8.78,0,0,0,103.21,30a8.68,8.68,0,0,0-1.25.27,7,7,0,0,0-4.71,5.29,8.23,8.23,0,0,0,1.83,6.76c1.51,1.92,5.19,5.15,12.86,5.26h.26a12.31,12.31,0,0,0,6.64-1.67,12.41,12.41,0,0,0,6.83,1.94h.7c7.22,0,10.84-3,12.36-4.75A8.24,8.24,0,0,0,140.82,36.44Zm-3.17,5.76c-1.38,1.61-4.65,4.26-11.28,4.26h-.66c-3.35-.09-5.67-1.11-6.84-2.37-1.18,1.18-3.45,2.09-6.67,2.09H112c-7.08-.1-10.41-3-11.76-4.72a6.85,6.85,0,0,1-1.56-5.56,5.56,5.56,0,0,1,8.93-3.3,12.81,12.81,0,0,1,2,2.52c1.23,1.84,2.5,3.73,6,4.56-.63-6.51-3.58-10.1-4.6-11.17a7.4,7.4,0,0,1-5,.94,7.36,7.36,0,0,1-1.49-14.07,7.47,7.47,0,0,1-.16-1.68,7.39,7.39,0,0,1,7.37-7.16h.22a4.78,4.78,0,0,1,.73.06A7.36,7.36,0,0,1,126.84,7a6.3,6.3,0,0,1,1,0,7.33,7.33,0,0,1,6.88,9.35,7.37,7.37,0,0,1-3.37,13.92h-.22a7.34,7.34,0,0,1-3.61-1.09,18.86,18.86,0,0,0-5,10.62c3.48-.7,4.82-2.53,6.11-4.31a13.21,13.21,0,0,1,2.09-2.43,5.55,5.55,0,0,1,8.8,3.65A6.83,6.83,0,0,1,137.65,42.2ZM107.74,31a8.73,8.73,0,0,0,2.88-.69,17.46,17.46,0,0,1,3.2,7.27,8.83,8.83,0,0,1-3.08-3.21,14.09,14.09,0,0,0-2.22-2.78A6.64,6.64,0,0,0,107.74,31Zm22.46.66a4.29,4.29,0,0,0-.48.36,14.14,14.14,0,0,0-2.33,2.68,8.82,8.82,0,0,1-3.06,3,17.32,17.32,0,0,1,3.44-6.73A8.88,8.88,0,0,0,130.2,31.61Z"/></g></svg>