<svg xmlns="http://www.w3.org/2000/svg" viewBox="0 0 134.49 79.21"><defs><style>.cls-1{fill:#fff;}</style></defs><title>0</title><g id="圖層_1" data-name="圖層 1"><path class="cls-1" d="M36.49,35.15c0-4.61-2-6.22-4.41-8.08-.68-.53-1.45-1.14-2.25-1.87a23.5,23.5,0,0,1-3.42-3.91C23.89,17.72,20.91,17,18.85,17a10.19,10.19,0,0,0-5,1.39C3.71,20.43,2.1,27.57,1.91,30.84a33.44,33.44,0,0,0-1.65,6l0,.16c-1,5.09,1.05,11.42,9.79,13.9a32.83,32.83,0,0,0,8.77,1.42A13.84,13.84,0,0,0,25.14,51C32.57,48,36.49,42.58,36.49,35.15ZM18.79,50.89a31.13,31.13,0,0,1-8.38-1.36C.57,46.73,1.2,39.44,1.62,37.27l0-.16a30.81,30.81,0,0,1,1.67-6c.12-3.17,1.57-9.62,11-11.45a7.74,7.74,0,0,1,10.89,2.4,24.6,24.6,0,0,0,3.62,4.14c.84.77,1.63,1.39,2.33,1.94,2.34,1.84,3.88,3.05,3.88,7,0,6.92-3.54,11.8-10.53,14.5A12.2,12.2,0,0,1,18.79,50.89Z"/><path class="cls-1" d="M47.86,42.21a33,33,0,0,0,8.78,1.42A13.74,13.74,0,0,0,63,42.26c7.43-2.9,11.35-8.36,11.35-15.79,0-4.61-2-6.22-4.42-8.08-.68-.53-1.44-1.14-2.24-1.87a24,24,0,0,1-3.43-3.91C61.74,9,58.76,8.29,56.7,8.29a10.28,10.28,0,0,0-5,1.39C41.56,11.75,40,18.9,39.76,22.16a32.61,32.61,0,0,0-1.65,6l0,.16C37.08,33.4,39.13,39.73,47.86,42.21ZM39.47,28.59l0-.16a31.61,31.61,0,0,1,1.66-6c.13-3.16,1.58-9.62,11.05-11.45a7.74,7.74,0,0,1,10.89,2.4,24.54,24.54,0,0,0,3.62,4.14c.84.77,1.63,1.39,2.33,1.94,2.33,1.84,3.88,3.05,3.87,7,0,6.92-3.54,11.8-10.52,14.5a12.2,12.2,0,0,1-5.76,1.24,31.6,31.6,0,0,1-8.39-1.36C38.42,38.05,39,30.76,39.47,28.59Z"/><path class="cls-1" d="M84.68,33.92a33,33,0,0,0,8.77,1.42A13.84,13.84,0,0,0,99.8,34c7.43-2.91,11.36-8.37,11.36-15.8,0-4.61-2-6.22-4.43-8.09-.68-.53-1.44-1.13-2.24-1.86a23.64,23.64,0,0,1-3.42-3.92C98.55.75,95.57,0,93.51,0a10.19,10.19,0,0,0-5,1.39C78.37,3.46,76.77,10.6,76.58,13.87a32.61,32.61,0,0,0-1.65,6l0,.16C73.9,25.11,75.94,31.44,84.68,33.92ZM76.28,20.3l0-.16a30,30,0,0,1,1.66-6C78.1,11,79.56,4.56,89,2.73a7.74,7.74,0,0,1,10.89,2.4,25.05,25.05,0,0,0,3.62,4.14c.84.77,1.63,1.39,2.33,1.94,2.34,1.84,3.88,3,3.88,7,0,6.92-3.54,11.8-10.53,14.5a12.17,12.17,0,0,1-5.76,1.24,31.25,31.25,0,0,1-8.38-1.37C75.24,29.76,75.86,22.47,76.28,20.3Z"/><path class="cls-1" d="M55.41,54c-.68-.53-1.45-1.14-2.25-1.87a23.5,23.5,0,0,1-3.42-3.91c-2.52-3.57-5.5-4.32-7.56-4.32a10.3,10.3,0,0,0-5,1.39C27,47.33,25.44,54.48,25.24,57.74a32.44,32.44,0,0,0-1.64,6l0,.17c-1,5.09,1.05,11.41,9.79,13.89a33,33,0,0,0,8.77,1.42,13.81,13.81,0,0,0,6.35-1.36c7.43-2.9,11.36-8.36,11.36-15.8C59.83,57.44,57.78,55.83,55.41,54ZM47.89,76.55a12.24,12.24,0,0,1-5.77,1.24,31.19,31.19,0,0,1-8.38-1.36C23.91,73.64,24.53,66.34,25,64.17L25,64a29.91,29.91,0,0,1,1.66-6c.12-3.17,1.58-9.63,11-11.46A7.74,7.74,0,0,1,48.58,49a25.89,25.89,0,0,0,3.62,4.14c.84.76,1.63,1.39,2.33,1.93,2.34,1.84,3.88,3.05,3.88,7C58.41,69,54.87,73.85,47.89,76.55Z"/><path class="cls-1" d="M93.23,45.27c-.67-.53-1.42-1.12-2.22-1.85a23.5,23.5,0,0,1-3.42-3.91c-2.52-3.57-5.5-4.32-7.56-4.32a10.3,10.3,0,0,0-5,1.39C64.89,38.65,63.28,45.8,63.09,49.07a33.16,33.16,0,0,0-1.65,6l0,.17c-1,5.09,1.05,11.41,9.79,13.89A32.83,32.83,0,0,0,80,70.53a13.87,13.87,0,0,0,6.35-1.36c7.43-2.9,11.35-8.36,11.35-15.8C97.67,48.76,95.63,47.15,93.23,45.27Zm-7.5,22.61A12.32,12.32,0,0,1,80,69.11a31.2,31.2,0,0,1-8.39-1.36c-9.83-2.8-9.2-10.09-8.78-12.26l0-.16a31.34,31.34,0,0,1,1.66-5.95c.13-3.17,1.58-9.63,11.05-11.46a7.74,7.74,0,0,1,10.89,2.41,25.35,25.35,0,0,0,3.62,4.14h0c.83.76,1.62,1.38,2.31,1.93,2.33,1.83,3.88,3,3.88,7C96.26,60.3,92.71,65.17,85.73,67.88Z"/><path class="cls-1" d="M130.07,37c-.68-.53-1.44-1.14-2.25-1.87a24,24,0,0,1-3.42-3.91c-2.52-3.57-5.5-4.32-7.56-4.32a10.34,10.34,0,0,0-5,1.39c-10.12,2.07-11.73,9.22-11.92,12.48a32.61,32.61,0,0,0-1.65,6l0,.17c-1,5.09,1,11.41,9.78,13.89a33,33,0,0,0,8.77,1.42,13.81,13.81,0,0,0,6.35-1.36c7.43-2.9,11.36-8.36,11.36-15.8C134.49,40.47,132.44,38.86,130.07,37Zm-7.52,22.58a12.21,12.21,0,0,1-5.77,1.24,31.19,31.19,0,0,1-8.38-1.36c-9.83-2.8-9.21-10.09-8.78-12.26l0-.16a30.16,30.16,0,0,1,1.66-6c.13-3.16,1.58-9.62,11-11.45A7.73,7.73,0,0,1,123.24,32a24.65,24.65,0,0,0,3.63,4.14c.83.77,1.63,1.39,2.33,1.94,2.33,1.84,3.87,3,3.87,7C133.07,52,129.53,56.88,122.55,59.58Z"/></g></svg>