<svg xmlns="http://www.w3.org/2000/svg" viewBox="0 0 125.24 117.92"><defs><style>.cls-1{fill:#fff;}</style></defs><title>0</title><g id="圖層_1" data-name="圖層 1"><path class="cls-1" d="M31.25,62.63l-.14-.13a60.41,60.41,0,0,1-7.53-8l-.35-.45c-.19-.24-.39-.48-.58-.73a53.83,53.83,0,0,1-5.78-9.93v0c-.42-1-.75-1.73-1-2.46a54.42,54.42,0,0,1-2.43-8.32c-.37-1.76-.66-3.56-.86-5.35a73.21,73.21,0,0,1-.13-14.17v-.13a1.4,1.4,0,0,0-.35-1,1.34,1.34,0,0,0-.39-.32l1.17-9A1.42,1.42,0,0,0,11.62,1L9.43.68H9.25a1.63,1.63,0,0,0-.31,0A.9.9,0,0,0,8.79.51a1.45,1.45,0,0,0-1-.45L5.56,0a1.4,1.4,0,0,0-1,.39,1.61,1.61,0,0,0-.24.28A1.33,1.33,0,0,0,3.61.46H3.45L1.26.71a1.44,1.44,0,0,0-.95.52,1.44,1.44,0,0,0-.3,1l1,8.9a1.72,1.72,0,0,0-.32.23,1.38,1.38,0,0,0-.43,1v.14A85.63,85.63,0,0,0,1.68,27.69l.08.39c.05.3.11.6.17.9a67.47,67.47,0,0,0,3.2,10.74l.11.28c.65,1.64,1.35,3.21,2.07,4.66a60,60,0,0,0,4,6.89l.13.2a61.48,61.48,0,0,0,5.09,6.54A67,67,0,0,0,24.77,66l0,0a1.52,1.52,0,0,0,.94.31h.15a15.79,15.79,0,0,0,4.81-1.29l.18-.08a1.45,1.45,0,0,0,.58-.49c0-.58-.09-1.17-.13-1.76A.81.81,0,0,0,31.25,62.63Zm-1.12,1.14a14.56,14.56,0,0,1-4.38,1.17H25.7l0,0a65.74,65.74,0,0,1-8.06-7.57,62.11,62.11,0,0,1-5-6.39l-.13-.2h0l0,0A60.9,60.9,0,0,1,8.58,44c-.7-1.41-1.38-3-2-4.56l-.07-.16v0l0-.07A66,66,0,0,1,3.32,28.69c-.06-.29-.12-.58-.17-.88l-.08-.38A84.8,84.8,0,0,1,1.65,12.55v-.13l.91,0L1.42,2.12l2.19-.25L4.79,12.55l.44,0L5.56,1.42l2.2.06v.13L7.43,12.66h0l.45,0L9.25,2.08l2.19.28,0,.13L10.09,12.77l.92,0v.13a74.51,74.51,0,0,0,.13,14.45c.21,1.83.5,3.68.88,5.48h0a56.18,56.18,0,0,0,2.5,8.54c.29.76.63,1.57,1.06,2.53h0a54.9,54.9,0,0,0,5.94,10.22l.61.78.35.43,0,0h0l0,0a62,62,0,0,0,7.65,8.11l.14.13Z"/><path class="cls-1" d="M97.88,112.25A68.44,68.44,0,0,1,90.42,105a1.41,1.41,0,0,0,.41-.68l.06-.24a1.43,1.43,0,0,0-.14-1.07,1.38,1.38,0,0,0-.87-.66l-2.08-.56c-.23-.29-.46-.59-.68-.89a59.33,59.33,0,0,1-4.81-7.73,1.71,1.71,0,0,0,.38-.13,1.38,1.38,0,0,0,.71-.81l.08-.24a1.41,1.41,0,0,0-.88-1.8l-2-.68c-.32-.74-.59-1.41-.84-2A55.52,55.52,0,0,1,78,82a1.24,1.24,0,0,0,.46.08,1.42,1.42,0,0,0,1.21-.67l.13-.22a1.38,1.38,0,0,0,.17-1.07,1.41,1.41,0,0,0-.63-.88L77,77.79c-.33-1.68-.6-3.4-.79-5.13A77.9,77.9,0,0,1,76,58.34,66.92,66.92,0,0,0,84.18,66a1.55,1.55,0,0,0,.75.3,15.62,15.62,0,0,0,5.81-.4l.24-.06a1.44,1.44,0,0,0,1-1.06,1.41,1.41,0,0,0-.46-1.39l-.18-.16A61.16,61.16,0,0,1,83,54.56l-.4-.5L82,53.32a53.83,53.83,0,0,1-5.78-9.93v0c-.4-.9-.74-1.71-1-2.46a54.7,54.7,0,0,1-2.43-8.32v0c-.36-1.75-.65-3.54-.85-5.32a73.21,73.21,0,0,1-.13-14.17v-.13a1.36,1.36,0,0,0-.35-1,1.34,1.34,0,0,0-.39-.32l1.17-9A1.42,1.42,0,0,0,71,1L68.81.68h-.18a1.63,1.63,0,0,0-.31,0,.9.9,0,0,0-.15-.19,1.45,1.45,0,0,0-1-.45L64.94,0a1.4,1.4,0,0,0-1,.39,1.61,1.61,0,0,0-.24.28A1.33,1.33,0,0,0,63,.46h-.16L60.64.71a1.41,1.41,0,0,0-1.25,1.56l1,8.89a2,2,0,0,0-.33.24,1.38,1.38,0,0,0-.43,1v.14a85.63,85.63,0,0,0,1.44,15.12l.08.39c0,.3.11.6.17.9a67.16,67.16,0,0,0,3.2,10.74s.11.28.11.28c.54,1.35,1.11,2.65,1.7,3.89l-2.17.24a1.37,1.37,0,0,0-1,.53,1.39,1.39,0,0,0-.31,1L64,55.38a1.18,1.18,0,0,0-.4.27,1.38,1.38,0,0,0-.43,1v.13a91.92,91.92,0,0,0,1.45,15.64L63.45,73.8a1.41,1.41,0,0,0,.18,2l.19.16a1.43,1.43,0,0,0,1.51.2,71.14,71.14,0,0,0,2.79,9.15l-1.69,2a1.41,1.41,0,0,0,.18,2l.19.16a1.41,1.41,0,0,0,2-.18l.64-.76c.44,1,.88,2,1.33,2.87a67.9,67.9,0,0,0,3.86,6.74l-1.15,2.77a1.4,1.4,0,0,0,0,1.08,1.42,1.42,0,0,0,.77.77l.23.1A1.49,1.49,0,0,0,75,103a1.41,1.41,0,0,0,1.31-.88l.4-.94c1.25,1.71,2.59,3.36,4,4.94a73.21,73.21,0,0,0,13.12,11.5l.09.07a1.51,1.51,0,0,0,.81.25,1.4,1.4,0,0,0,1.13-.57l2.33-3.09a1.42,1.42,0,0,0-.22-1.94Zm-3.15,4.25-.1-.07a71.44,71.44,0,0,1-12.86-11.27,66.12,66.12,0,0,1-5.39-6.91L75,101.56l-.23-.1L76.22,98A64.73,64.73,0,0,1,72,90.78q-1.19-2.4-2.19-4.94l-2.13,2.55-.19-.16,2.22-2.65a70.39,70.39,0,0,1-3.38-11.36c-.08-.35-.13-.71-.2-1.06l-1.43,1.71-.19-.16,1.57-1.87a89.43,89.43,0,0,1-1.55-16v-.13h.14l.85,0L64.3,45.54l2.35-.26,1.27,11.53.5,0,.33-11.28c-.27-.5-.54-1-.79-1.52-.71-1.42-1.39-3-2-4.56l-.07-.17h0v0l0,0A67.1,67.1,0,0,1,62.7,28.69c-.06-.29-.12-.58-.17-.88l-.08-.38A84.8,84.8,0,0,1,61,12.55v-.13l.91,0L60.8,2.12,63,1.87l1.18,10.68.44,0,.33-11.15,2.2.06v.13l-.33,11.05h0l.45,0,1.37-10.6,2.19.28,0,.13L69.47,12.77l.92,0v.13a74.51,74.51,0,0,0,.13,14.45c.21,1.83.5,3.66.87,5.45v0h0v0a54.55,54.55,0,0,0,2.49,8.5c.3.77.64,1.59,1.06,2.53h0a54.9,54.9,0,0,0,5.94,10.22c.2.27.41.53.62.79l.34.42,0,0h0l0,0a62.48,62.48,0,0,0,8.55,8.92l.18.15-.23.06a14.46,14.46,0,0,1-3.63.47,13.37,13.37,0,0,1-1.67-.1h0l0,0a65.62,65.62,0,0,1-8-7.56c-1-1.13-2-2.32-2.91-3.54l-.42,3.24,1,0v.13a80,80,0,0,0,.14,15.6c.22,2,.54,3.94.93,5.86l2.86,1.75-.14.21L75.78,79A59.55,59.55,0,0,0,78.42,88c.34.9.72,1.79,1.11,2.68l2.61.89-.08.23L79.67,91A58.77,58.77,0,0,0,86,101.73c.32.43.65.87,1,1.3l2.55.68-.06.24-2.24-.59a68.36,68.36,0,0,0,9.75,10l.09.08Z"/><path class="cls-1" d="M71.89,50.78l0,0,0,0c-.29-.43-.57-.87-.84-1.3l-.22,7.52.5,0L72.05,51,72,51Z"/><path class="cls-1" d="M99.47,57.74l.45,0,1-7.94c-.41-.64-.81-1.28-1.19-1.92Z"/><path class="cls-1" d="M124.73,109l-.09-.08a60.28,60.28,0,0,1-6.81-6.65,1.49,1.49,0,0,0,.3-.57l.07-.24a1.41,1.41,0,0,0-1-1.73l-1.87-.5-.07-.09c-.19-.24-.38-.47-.56-.72a52.93,52.93,0,0,1-4.37-7,2,2,0,0,0,.22-.09,1.4,1.4,0,0,0,.71-.82l.09-.23a1.42,1.42,0,0,0-.89-1.8l-1.82-.62c-.29-.67-.54-1.27-.76-1.85-.58-1.52-1.11-3.15-1.58-4.86l.25,0a1.41,1.41,0,0,0,1.21-.68l.13-.21a1.39,1.39,0,0,0,.17-1.07,1.42,1.42,0,0,0-.63-.88L105.33,77c-.34-1.72-.59-3.26-.75-4.71a73.31,73.31,0,0,1-.13-14.18V58a1.4,1.4,0,0,0-.35-1,1.3,1.3,0,0,0-.39-.31l.06-.5c.6.74,1.21,1.46,1.83,2.15a67.29,67.29,0,0,0,7.74,7.33,2,2,0,0,0,.29.18l.29.11a15.83,15.83,0,0,0,6.67.33l.26,0a1.4,1.4,0,0,0,1.14-1,1.41,1.41,0,0,0-.44-1.46l-.21-.18a61.89,61.89,0,0,1-8.7-9l-.35-.45c-.19-.24-.39-.48-.58-.73A53.86,53.86,0,0,1,106,43.45h0a1.47,1.47,0,0,1-.06-.14c-.39-.88-.72-1.67-1-2.41a54.42,54.42,0,0,1-2.43-8.32c-.37-1.76-.66-3.56-.86-5.35a73.21,73.21,0,0,1-.13-14.17v-.13a1.4,1.4,0,0,0-.35-1,1.34,1.34,0,0,0-.39-.32l1.17-9A1.42,1.42,0,0,0,100.69,1L98.5.68h-.18A1.63,1.63,0,0,0,98,.7a.9.9,0,0,0-.15-.19,1.45,1.45,0,0,0-1-.45L94.63,0a1.4,1.4,0,0,0-1,.39,1.61,1.61,0,0,0-.24.28,1.33,1.33,0,0,0-.74-.21h-.16L90.33.71a1.41,1.41,0,0,0-1.25,1.56l1,8.9a1.72,1.72,0,0,0-.32.23,1.38,1.38,0,0,0-.43,1v.14a85.09,85.09,0,0,0,1.45,15.18l0,.26c.06.32.12.65.19,1a67.47,67.47,0,0,0,3.22,10.78s.09.24.09.24c.65,1.64,1.35,3.21,2.07,4.66.12.23.23.46.36.7a1.57,1.57,0,0,0-.35.38,1.45,1.45,0,0,0-.74-.21h-.16l-2.19.24a1.44,1.44,0,0,0-1,.52,1.42,1.42,0,0,0-.3,1.05l1,8.89a1.72,1.72,0,0,0-.32.23,1.45,1.45,0,0,0-.44,1v.14a85.57,85.57,0,0,0,1.33,14.45l-1,1.21a1.41,1.41,0,0,0,.18,2l.19.16a1.42,1.42,0,0,0,.91.33,1.5,1.5,0,0,0,.47-.08A68.09,68.09,0,0,0,96.87,84l-1.52,1.81a1.41,1.41,0,0,0,.18,2l.19.16a1.42,1.42,0,0,0,.91.33,1.39,1.39,0,0,0,1.08-.51l.48-.56c.38.86.77,1.7,1.16,2.49a60,60,0,0,0,3.55,6.2l-1.05,2.51a1.47,1.47,0,0,0,0,1.09,1.42,1.42,0,0,0,.77.77l.23.09a1.27,1.27,0,0,0,.54.11,1.43,1.43,0,0,0,1.31-.87l.28-.69c1.13,1.53,2.34,3,3.6,4.42A67.38,67.38,0,0,0,120.75,114l.09.07a1.44,1.44,0,0,0,2-.31l2.16-2.88A1.42,1.42,0,0,0,124.73,109Zm-3.08,4-.1-.06a66.39,66.39,0,0,1-11.91-10.45,59.89,59.89,0,0,1-5-6.39l-1.27,3-.23-.09,1.33-3.21a59.16,59.16,0,0,1-3.87-6.68c-.73-1.47-1.4-3-2-4.55l-2,2.34-.19-.16,2-2.45a65.65,65.65,0,0,1-3.13-10.52c-.07-.31-.11-.64-.17-1l-1.32,1.57-.19-.16,1.45-1.73a84.13,84.13,0,0,1-1.44-14.85v-.14h.13l.78,0L93.46,47.19,95.65,47l1.18,10.68h.44l.33-11.15,1.38,0c-.47-.83-.91-1.66-1.33-2.5-.7-1.41-1.38-3-2-4.56l-.07-.17h0v0l0,0a66,66,0,0,1-3.13-10.52c-.07-.32-.13-.65-.19-1l0-.23a84.32,84.32,0,0,1-1.44-14.94v-.13l.91,0L90.49,2.12l2.19-.25,1.18,10.68.44,0,.33-11.15,2.2.06v.13L96.5,12.66h0l.45,0,1.37-10.6,2.19.28,0,.13L99.16,12.77l.92,0v.13a74.51,74.51,0,0,0,.13,14.45c.21,1.83.5,3.68.88,5.48h0a56.18,56.18,0,0,0,2.5,8.54c.29.76.63,1.57,1,2.48l0,0h0l0,.09a55.26,55.26,0,0,0,5.91,10.13l.61.78.35.43,0,0a63.68,63.68,0,0,0,8.87,9.21l.21.17-.27,0a14.51,14.51,0,0,1-6.08-.3l-.05,0a65.92,65.92,0,0,1-7.57-7.16c-1.35-1.52-2.64-3.12-3.85-4.79l-.69,5.29.92,0V58a74.51,74.51,0,0,0,.13,14.45c.21,1.84.53,3.65.9,5.44l2.6,1.6-.13.21-2.4-1.48a55.56,55.56,0,0,0,2.41,8.24c.32.84.67,1.66,1,2.48l2.41.82-.08.24-2.19-.75a54.26,54.26,0,0,0,5.83,10c.3.42.64.81,1,1.22l2.33.61-.07.25-2-.54a62.26,62.26,0,0,0,9,9.21l.09.08Z"/><path class="cls-1" d="M38.72,56.93l.51,0,1.16-9c-.46-.79-.91-1.58-1.34-2.37Z"/><path class="cls-1" d="M65.82,112.25A68.34,68.34,0,0,1,58.37,105a1.5,1.5,0,0,0,.4-.68l.06-.24a1.4,1.4,0,0,0-1-1.73l-2.09-.56c-.23-.29-.45-.59-.68-.89a58.2,58.2,0,0,1-4.8-7.73,1.63,1.63,0,0,0,.37-.13,1.4,1.4,0,0,0,.72-.81l.08-.24a1.43,1.43,0,0,0-.89-1.8l-2-.68c-.32-.75-.6-1.42-.84-2A55.55,55.55,0,0,1,45.9,82a1.26,1.26,0,0,0,.47.08,1.44,1.44,0,0,0,1.21-.67l.13-.22a1.38,1.38,0,0,0,.17-1.07,1.46,1.46,0,0,0-.64-.88l-2.32-1.43c-.33-1.67-.6-3.39-.8-5.13A79.47,79.47,0,0,1,44,57.34v-.13a1.37,1.37,0,0,0-.35-1.06,1.41,1.41,0,0,0-.46-.34l.14-1c.93,1.21,1.9,2.39,2.91,3.52a66.45,66.45,0,0,0,8.38,7.85,1.55,1.55,0,0,0,.93.31h0a15.85,15.85,0,0,0,5.23-.91l.21-.07a1.42,1.42,0,0,0,.45-2.41l-.16-.14a61.14,61.14,0,0,1-8-8.39L52.87,54c-.18-.22-.36-.44-.53-.67a53.27,53.27,0,0,1-5.78-9.93v0c-.4-.9-.74-1.71-1-2.46a54.55,54.55,0,0,1-2.43-8.33c-.37-1.75-.66-3.55-.86-5.34a73.21,73.21,0,0,1-.13-14.17v-.13a1.4,1.4,0,0,0-.35-1,1.34,1.34,0,0,0-.39-.32l1.17-9A1.42,1.42,0,0,0,41.31,1L39.12.68h-.18a1.63,1.63,0,0,0-.31,0,.9.9,0,0,0-.15-.19,1.45,1.45,0,0,0-1-.45L35.25,0a1.4,1.4,0,0,0-1,.39A1.61,1.61,0,0,0,34,.67,1.33,1.33,0,0,0,33.3.46h-.16L31,.71a1.44,1.44,0,0,0-.95.52,1.4,1.4,0,0,0-.3,1l1,8.89a2,2,0,0,0-.33.24,1.38,1.38,0,0,0-.43,1v.14a85.54,85.54,0,0,0,1.44,15.12l.08.39c.05.3.11.6.17.9A67.55,67.55,0,0,0,34.85,39.8l.08.2c.47,1.18,1,2.32,1.47,3.41a1.4,1.4,0,0,0-.95.74,1.44,1.44,0,0,0-.86-.29h-.16l-2.34.26a1.43,1.43,0,0,0-1.25,1.57l1.07,9.68a1.14,1.14,0,0,0-.39.27,1.43,1.43,0,0,0-.44,1v.13c0,2,.12,4,.26,5.92a1.41,1.41,0,0,1,.37,1.17,1.34,1.34,0,0,1-.24.59c.24,2.72.59,5.38,1.06,8L31.4,73.8a1.42,1.42,0,0,0,.17,2l.19.16a1.45,1.45,0,0,0,1.52.2,72.72,72.72,0,0,0,2.78,9.15l-1.69,2a1.43,1.43,0,0,0,.18,2l.19.16a1.42,1.42,0,0,0,2-.18l.64-.76c.43,1,.88,2,1.33,2.87a64.92,64.92,0,0,0,3.86,6.74l-1.16,2.77a1.44,1.44,0,0,0,0,1.08,1.39,1.39,0,0,0,.77.77l.23.1A1.49,1.49,0,0,0,43,103a1.42,1.42,0,0,0,1.31-.88l.39-.94c1.26,1.71,2.6,3.36,4,4.94a73.56,73.56,0,0,0,13.12,11.5l.1.07a1.48,1.48,0,0,0,.8.25,1.42,1.42,0,0,0,1.14-.57l2.32-3.09a1.41,1.41,0,0,0-.22-1.94Zm-3.14,4.25-.1-.07a71.85,71.85,0,0,1-12.87-11.27,66,66,0,0,1-5.38-6.91L43,101.56l-.23-.1L44.16,98A63.13,63.13,0,0,1,40,90.78c-.8-1.6-1.52-3.25-2.19-4.94l-2.14,2.55-.19-.16,2.22-2.65A70.39,70.39,0,0,1,34.3,74.22c-.07-.35-.12-.71-.19-1.06l-1.44,1.71-.19-.16,1.57-1.87a90.35,90.35,0,0,1-1.55-16v-.13h.13l.86,0L32.25,45.54l2.34-.26,1.28,11.53.49,0,.36-12,2,.06L38.27,44c-.7-1.41-1.38-3-2-4.56l-.08-.18h0l0-.07A66,66,0,0,1,33,28.69c-.06-.29-.12-.58-.17-.88l-.08-.38a84.71,84.71,0,0,1-1.42-14.88v-.13l.91,0L31.11,2.12l2.19-.25,1.18,10.68.44,0,.33-11.15,2.2.06v.13l-.33,11.05h0l.45,0,1.37-10.6,2.19.28,0,.13L39.78,12.77l.92,0v.13a74.51,74.51,0,0,0,.13,14.45c.21,1.83.5,3.67.88,5.47h0a55.38,55.38,0,0,0,2.5,8.54c.29.76.64,1.59,1.06,2.53h0A54.9,54.9,0,0,0,51.2,54.16c.19.26.4.52.6.77l.38.47h0A62.69,62.69,0,0,0,60.34,64l.16.14-.2.07a14.11,14.11,0,0,1-4.76.83h0l0,0a65.22,65.22,0,0,1-8.17-7.66A61.66,61.66,0,0,1,42.37,51l-.78,6,1,0v.13a80.75,80.75,0,0,0,.14,15.6q.34,3,.94,5.86l2.85,1.75-.13.21L43.72,79A59.55,59.55,0,0,0,46.36,88c.35.9.73,1.79,1.12,2.68l2.61.89-.08.23L47.62,91a59.29,59.29,0,0,0,6.3,10.78l1,1.3,2.55.68-.06.24-2.23-.59a67.78,67.78,0,0,0,9.74,10l.09.08Z"/><path class="cls-1" d="M31.34,62.73c0,.59.08,1.18.13,1.76a1.34,1.34,0,0,0,.24-.59A1.41,1.41,0,0,0,31.34,62.73Z"/></g></svg>