<svg xmlns="http://www.w3.org/2000/svg" viewBox="0 0 99.27 111.66"><defs><style>.cls-1{fill:#fff;}</style></defs><title>0</title><g id="圖層_1" data-name="圖層 1"><path class="cls-1" d="M18.23,69a13.09,13.09,0,0,1,1.45-2.65,1.78,1.78,0,0,1,.95-.65,5.38,5.38,0,0,0-1.52-4.82C18.87,63.68,18.58,66.41,18.23,69Z"/><path class="cls-1" d="M20.94,45.85a8,8,0,0,1,.39-1.53c0-3,0-5.85-.11-8.65-.66-18.45,4-28.15,6.07-31.47A2.78,2.78,0,0,0,26.72.65,2.72,2.72,0,0,0,24.94,0a1.93,1.93,0,0,0-.42,0A2.77,2.77,0,0,0,22.6,1.29C20.59,4.48,17.14,11.59,16,24A7.9,7.9,0,0,0,9.39,27.7a3.4,3.4,0,0,0-1.17.55A15.35,15.35,0,0,0,3.57,34l-.07.14a1.43,1.43,0,0,0,1,2l.12,0A83.26,83.26,0,0,1,.2,55a3,3,0,0,0,1.14,3.55A3,3,0,0,0,3,59a2.9,2.9,0,0,0,2-.84,30.65,30.65,0,0,0,9.22-20l.22-.13A1.4,1.4,0,0,0,15,37v-.1a14.27,14.27,0,0,0-1.68-7.53l-.14-.22a3.7,3.7,0,0,1,2.57-1.28c-.12,2.63-.14,5.24,0,8,.23,6.43.12,13.4-.33,20.25a10.84,10.84,0,0,0-1.13-.06c-8,0-10.78,9.31-10.81,9.4l-.05.17a1.43,1.43,0,0,0,.24,1.26,1.45,1.45,0,0,0,1.12.55H5c4.66-.12,7.71-1.41,9.71-3-.3,2.77-.65,5.42-1,7.92-2.55,16-6.28,22.41-9,25l-.09.08a1.42,1.42,0,0,0-.09,2l1.76,2a1.41,1.41,0,0,0,1,.48h.07a1.41,1.41,0,0,0,1-.38l.09-.09c3.95-3.71,7.16-11,9.41-21.4a17.33,17.33,0,0,0,5.65,7.75,2.67,2.67,0,0,0,1.68.59,2.81,2.81,0,0,0,1.71-.59,2.72,2.72,0,0,0,.78-3.3,33.07,33.07,0,0,1-2.82-10.58,1.44,1.44,0,0,0,.89-.45,1.4,1.4,0,0,0,.35-1.2l0-.17a23.18,23.18,0,0,0-1.95-6,3.25,3.25,0,0,0-.82-1,8,8,0,0,0-2.53-6.06c.3-4,.5-7.94.58-11.86A1.57,1.57,0,0,1,20.94,45.85ZM19.8,35.72a212.16,212.16,0,0,1-.57,23.82,6.59,6.59,0,0,1,2.53,6.2,1.82,1.82,0,0,1,1,.91,21.86,21.86,0,0,1,1.83,5.66l0,.16h-.16a3.58,3.58,0,0,1-1.23-.36,35.25,35.25,0,0,0,3.09,13A1.29,1.29,0,0,1,26,86.64a1.34,1.34,0,0,1-.83.3,1.31,1.31,0,0,1-.8-.29A16,16,0,0,1,18.27,72a3.16,3.16,0,0,1-.47.06c0,.15-.05.32-.07.47C15.56,86.45,12,96.07,7.41,100.38l-.09.09-1.76-2,.09-.09C9.72,94.51,13,85.6,15,72.61c.64-4,1.14-8.3,1.51-12.73-1,2.3-3.8,5.93-11.61,6.14H4.76l0-.17c0-.1,3.09-10.29,11.89-8.06a207.18,207.18,0,0,0,.44-22c-.12-3.36-.06-6.42.11-9.25a3.71,3.71,0,0,0-.45-.06,5.34,5.34,0,0,0-5.44,2.83,2.07,2.07,0,0,1,.72.75,12.83,12.83,0,0,1,1.52,6.68v.14l-.14,0a4.74,4.74,0,0,1-.57-.17A29.36,29.36,0,0,1,4,57.15a1.48,1.48,0,0,1-1,.44,1.5,1.5,0,0,1-.85-.26,1.52,1.52,0,0,1-.6-1.85A87,87,0,0,0,6.16,34.9a4.59,4.59,0,0,1-1.24,0l-.15,0,.07-.14A13.92,13.92,0,0,1,9,29.4,2.09,2.09,0,0,1,10.27,29a6.56,6.56,0,0,1,6.62-3.61c.15,0,.29,0,.43.06C18.29,12.29,22,4.92,23.8,2a1.35,1.35,0,0,1,.94-.61,1.28,1.28,0,0,1,1.06.3,1.34,1.34,0,0,1,.28,1.73C24,6.88,19.13,16.89,19.8,35.72Z"/><path class="cls-1" d="M71.3,65a22.25,22.25,0,0,0-2.25-5c-2-3.26-4.26-4.5-6.1-4.88.44-3.56.95-6.94,1.51-10.07C68,25.22,64.28,13.86,62.51,9.9A2.76,2.76,0,0,0,60,8.26a2.67,2.67,0,0,0-1.46.42,2.78,2.78,0,0,0-1.07,3.44C59,15.69,62.29,26,59,44.13c-.12.67-.23,1.35-.34,2a10.2,10.2,0,0,0-3.2.59c-.09-.12-.19-.23-.29-.34A38.77,38.77,0,0,1,47.8,35.7a1.41,1.41,0,0,0,.81-2.07l-.08-.14a26.63,26.63,0,0,0-4.46-5.74,3.36,3.36,0,0,0-1.77-.91,8,8,0,0,0-5.61-4.49c.85-9.69,3.44-15.3,4.55-17.32A2.76,2.76,0,0,0,38.82.94a3.43,3.43,0,0,0-.56.05,2.82,2.82,0,0,0-1.85,1.36c-2.12,3.78-6.85,14.73-5.15,34.79-3,.61-8.31,2.38-9.93,7.18,0,.91,0,1.82,0,2.74a2.75,2.75,0,0,0,1.46.81,7.25,7.25,0,0,0,1.81.21,9.51,9.51,0,0,0,7.19-3.46A192.32,192.32,0,0,1,31,73.81c-1.75,16.13-5.16,22.7-7.71,25.38l-.08.09a1.42,1.42,0,0,0,0,2l1.86,1.92a1.41,1.41,0,0,0,2,0l.1-.1c3.39-3.52,6-9.81,7.75-18.71a8.09,8.09,0,0,0,7-1.38,3.07,3.07,0,0,0,2.82,1.83,3,3,0,0,0,2.21-1A32.81,32.81,0,0,0,55.72,62,1.45,1.45,0,0,0,56,61.8a1.43,1.43,0,0,0,.51-1v-.16a15.31,15.31,0,0,0-2.2-7.84l0-.06A5.32,5.32,0,0,1,58,50.44,210.76,210.76,0,0,0,55.9,77.19c-1.91.72-8,3.86-6.23,14.62l0,.2a1.44,1.44,0,0,0,.84,1.07,1.38,1.38,0,0,0,.56.12,1.45,1.45,0,0,0,.8-.25l.16-.11A23.24,23.24,0,0,0,56.24,89c.8,10.43,2.9,17.83,6.28,22l.08.1a1.44,1.44,0,0,0,1,.53h.13a1.39,1.39,0,0,0,.92-.35l2-1.74a1.42,1.42,0,0,0,.18-1.95l-.07-.1c-2.3-2.89-5.09-9.75-5.37-26a180,180,0,0,1,.68-18.17A13.06,13.06,0,0,0,69.55,67l.2,0A1,1,0,0,0,70,67a1.42,1.42,0,0,0,1.06-.46,1.45,1.45,0,0,0,.31-1.34Zm-1.5.55c-6.43-1.13-8.2-4.76-8.69-6.92A188.57,188.57,0,0,0,60,81.57c.23,13.16,2.19,22.43,5.68,26.83l.07.1-2,1.74-.08-.1C60,105.63,57.89,96.8,57.41,84.5c-1.75,4.13-6.08,7.13-6.14,7.17l-.17.11,0-.19C49.32,80.8,56,78.62,56.76,78.4a3,3,0,0,1,.55-.1A209.82,209.82,0,0,1,59.68,49l-.28,0a7,7,0,0,0-6.9,3.91,2.09,2.09,0,0,1,.59.63,13.92,13.92,0,0,1,2,7.06v.14l-.13,0a3.64,3.64,0,0,1-.63-.15,31.47,31.47,0,0,1-8.39,22.32,1.6,1.6,0,0,1-1.17.53,1.67,1.67,0,0,1-.84-.23,1.62,1.62,0,0,1-.73-1.94c.28-.87.55-1.75.79-2.63C41.63,82.33,39,83.2,37,83.2a6.81,6.81,0,0,1-2-.29,6.47,6.47,0,0,1-1.17-.51c-1.69,9.41-4.31,16.15-7.7,19.68l-.09.09-1.86-1.92.08-.09C28.19,96.1,31,87,32.41,74a198.63,198.63,0,0,0,.5-33.67c-2.7,5.49-6.33,6.37-8.36,6.37a6.29,6.29,0,0,1-1.45-.16q-.8-.21-.75-.45c.88-5.89,8-7.39,10.42-7.74l-.09-1.2C31,17.38,35.59,6.72,37.65,3A1.34,1.34,0,0,1,40,4.34c-1.42,2.58-4.11,8.77-4.83,19.25,0,0,0,0,.07,0a6.58,6.58,0,0,1,6.09,4.63,2,2,0,0,1,1.75.55A24.75,24.75,0,0,1,47.3,34.2l.08.14-.15,0a4.57,4.57,0,0,1-1.52.09A41.06,41.06,0,0,0,54.2,47.41a1.44,1.44,0,0,1,.42,1.31A8.56,8.56,0,0,1,59,47.58h.46a3.13,3.13,0,0,1,.44,0c.18-1.1.36-2.19.55-3.25,3.31-18.56-.08-29.14-1.69-32.83a1.35,1.35,0,0,1,.52-1.67,1.33,1.33,0,0,1,1.1-.15,1.32,1.32,0,0,1,.84.74c1.72,3.85,5.33,14.89,1.86,34.38-.68,3.77-1.24,7.67-1.7,11.59,2.41-.07,4.65,1.43,6.47,4.36a20.79,20.79,0,0,1,2.1,4.64l0,.19Z"/><path class="cls-1" d="M40.32,36.36a2.82,2.82,0,0,1-.91.4l-.13,0,0-.14a17.84,17.84,0,0,1,.37-7,2,2,0,0,1,.67-1,5.42,5.42,0,0,0-5.12-4H35.1a88.17,88.17,0,0,0,.24,12.19c.27,3.22.47,6.58.58,10,5.65.65,6.91,9.39,6.92,9.48l0,.18-.18,0c-4-1-5.89-3.39-6.66-5.55a196.14,196.14,0,0,1-.92,22.84c-.21,2-.47,4-.75,5.83,2.44-3.69,8.53-3.6,10.26-3.49A100.15,100.15,0,0,0,47,59a5.58,5.58,0,0,1-1.33,0l-.16,0,.06-.15a14.92,14.92,0,0,1,4.21-5.86,2.23,2.23,0,0,1,1.33-.48A9.33,9.33,0,0,1,53,50a1.81,1.81,0,0,1-.31-.05C48.17,48.41,42.55,44.83,40.32,36.36Zm9.92,14.82a3.7,3.7,0,0,0-1.3.65,16.19,16.19,0,0,0-4.62,6.4l-.07.15a1.41,1.41,0,0,0,0,1.25,1.44,1.44,0,0,0,1,.72l.2,0a99.27,99.27,0,0,1-2,14.29h-.06a16.3,16.3,0,0,0-7.17,1.48c.09-.74.17-1.48.25-2.22.59-5.64.92-12,1-18.48a11.81,11.81,0,0,0,4.87,2.41l.18,0a1.45,1.45,0,0,0,.35,0,1.37,1.37,0,0,0,.94-.36,1.4,1.4,0,0,0,.47-1.24l0-.2c-.05-.38-1.31-8.75-6.94-10.44-.12-3.1-.31-6.11-.55-9a87.72,87.72,0,0,1-.3-10.41,3.86,3.86,0,0,1,2.22,2,3.44,3.44,0,0,0-.41.89,19.26,19.26,0,0,0-.4,7.6l0,.14a1.43,1.43,0,0,0,1.4,1.18h.11A19.55,19.55,0,0,0,50.58,50.63C50.46,50.81,50.35,51,50.24,51.18Z"/><path class="cls-1" d="M20.94,45.85a1.57,1.57,0,0,0,.34,1.21c0-.92,0-1.83,0-2.74A8,8,0,0,0,20.94,45.85Z"/><path class="cls-1" d="M98.82,102.14l-.08-.09c-2.69-2.53-6.43-8.92-9-24.93a198.5,198.5,0,0,1-2.17-36.51c.68-20.19-4.64-30.89-7-34.56a2.76,2.76,0,0,0-1.94-1.26,2.56,2.56,0,0,0-.39,0,2.71,2.71,0,0,0-1.79.66A2.77,2.77,0,0,0,75.91,9a34.57,34.57,0,0,1,3.35,7.61,9,9,0,0,0-5.94,4.25,3.47,3.47,0,0,0-1.13.58,14.66,14.66,0,0,0-4.12,5.69l-.07.15a1.44,1.44,0,0,0,.06,1.25,1.4,1.4,0,0,0,1,.73h0a78.12,78.12,0,0,1-3.24,17.7,2.86,2.86,0,0,0,1.28,3.38,2.83,2.83,0,0,0,3.54-.52,28.93,28.93,0,0,0,7.75-19.2.66.66,0,0,0,.17-.12,1.43,1.43,0,0,0,.51-1v-.15a13.6,13.6,0,0,0-1.92-6.94,4.54,4.54,0,0,1,3.14-1.82,76.24,76.24,0,0,1,1.7,19.89L82,42.76a9.88,9.88,0,0,0-5.83,6.13,4.36,4.36,0,0,0-.65.48A13.64,13.64,0,0,0,72.21,55l0,.15a1.41,1.41,0,0,0,.17,1.23,1.44,1.44,0,0,0,1,.62A71.83,71.83,0,0,1,72,73.46a2.74,2.74,0,0,0,1.54,3.12,2.79,2.79,0,0,0,2.16.08,16.58,16.58,0,0,0,0,3.13l0,.15a1.44,1.44,0,0,0,.65,1,1.46,1.46,0,0,0,.76.22,1.42,1.42,0,0,0,.45-.08l.14,0a15,15,0,0,0,6.33-4.59c.05.35.1.69.16,1,2.24,14.2,6,24.09,10.8,28.59l.09.09a1.43,1.43,0,0,0,1,.39h.06a1.42,1.42,0,0,0,1-.49l1.76-2A1.41,1.41,0,0,0,98.82,102.14Zm-2.72,3-.1-.09c-4.59-4.29-8.18-13.9-10.37-27.78-.31-1.93-.58-3.93-.83-6-.9,6.11-7.43,8.41-7.5,8.43l-.15.05,0-.15c-1-8.67,5.5-11.33,7.28-11.57h0a219.36,219.36,0,0,1-1.07-22.83,7,7,0,0,0-4.66,4.9,1.84,1.84,0,0,1,.51.45,11.25,11.25,0,0,1,2.16,5.56v.14h-.14a2.53,2.53,0,0,1-.49-.06,25.55,25.55,0,0,1-5,18.67,1.29,1.29,0,0,1-1,.53,1.4,1.4,0,0,1-.58-.12,1.34,1.34,0,0,1-.75-1.54,75.09,75.09,0,0,0,1.37-18.24,4.33,4.33,0,0,1-1,.11H73.5l0-.15a12.2,12.2,0,0,1,3-5.08,1.78,1.78,0,0,1,.82-.44,8.62,8.62,0,0,1,6.07-6.17c0-1.11,0-2.22.08-3.31a75.75,75.75,0,0,0-2-21.4,6.2,6.2,0,0,0-6,3.41A2,2,0,0,1,76,23a12.24,12.24,0,0,1,1.74,6.21v.14l-.13,0a2.85,2.85,0,0,1-.54-.13,27.64,27.64,0,0,1-7.38,19.6,1.39,1.39,0,0,1-1.78.26,1.43,1.43,0,0,1-.65-1.72,81.83,81.83,0,0,0,3.4-19.53,4,4,0,0,1-1.16,0l-.16,0,.07-.15a13,13,0,0,1,3.7-5.15,1.93,1.93,0,0,1,1.17-.43,7.58,7.58,0,0,1,6.87-4.29,37.62,37.62,0,0,0-4-9.58,1.35,1.35,0,0,1,1.34-2,1.33,1.33,0,0,1,.94.62c2.25,3.55,7.4,14,6.74,33.75a198.93,198.93,0,0,0,2.18,36.79c2.1,13,5.37,21.88,9.44,25.73l.09.09ZM81,67.93a26.87,26.87,0,0,0,1.36-8.15c.15,2.43.34,4.85.57,7.23A11.42,11.42,0,0,0,81,67.93ZM82,52.83a12.39,12.39,0,0,0-1.69-3.09A5.49,5.49,0,0,1,82,47.58C82,49.31,82,51.07,82,52.83Z"/></g></svg>