<svg xmlns="http://www.w3.org/2000/svg" viewBox="0 0 107.04 122.37"><defs><style>.cls-1{fill:#fff;}</style></defs><title>0</title><g id="圖層_1" data-name="圖層 1"><path class="cls-1" d="M62.39,32.65c.26-.47.52-.92.77-1.36-.26,0-.52,0-.79,0A9.72,9.72,0,0,1,62.39,32.65Z"/><path class="cls-1" d="M20.55,47.19l.06-.15h0S20.56,47.13,20.55,47.19Z"/><path class="cls-1" d="M41.86,44.4a11.84,11.84,0,0,1-.16-3c-.22.06-.45.12-.68.16a7.14,7.14,0,0,1-1.37.13A7.32,7.32,0,0,1,36.54,41c1.33,6.84,3.56,12.78,8.3,13.67a3.94,3.94,0,0,0,.77.07A5.62,5.62,0,0,0,48.16,54C45.89,52.13,42.69,48.78,41.86,44.4Zm3.24,8.84c-3-.56-5.16-3.84-6.68-10.25a8.48,8.48,0,0,0,1.23.09l.62,0a14.45,14.45,0,0,0,.2,1.61,17.26,17.26,0,0,0,4.8,8.6Z"/><path class="cls-1" d="M79.78,29.91a.41.41,0,0,1,0-.09H79.7Z"/><path class="cls-1" d="M106.66,30l-.12-.12a29.33,29.33,0,0,0-7.6-6,20,20,0,0,0,4.57-6.17l.06-.14a1.42,1.42,0,0,0-.95-1.93l-.14,0a32.31,32.31,0,0,0-8-1.15,14.44,14.44,0,0,0-8.29,2.25,8.72,8.72,0,0,0-1.77-1.6,8.84,8.84,0,0,0-3.64-1.44,18.19,18.19,0,0,0-1.54-5.3A28,28,0,0,0,73.7.51L73.58.39a1.45,1.45,0,0,0-1-.39l-.26,0a1.44,1.44,0,0,0-1,.8L71.25,1C68,8,68,13.24,68.9,16.84a25.85,25.85,0,0,0-2.74.29,18.53,18.53,0,0,0-4.73,1.37c-.31-3.7-2.24-7.51-5.76-11.35L55.57,7a1.4,1.4,0,0,0-1-.46h-.1a1.41,1.41,0,0,0-1.07.62l-.09.12c-.07.1-6.21,9.19-3.62,16.85a8.79,8.79,0,0,0-3.84,3.72,8.58,8.58,0,0,0-1.15-.94,8.8,8.8,0,0,0-5-1.55,8.39,8.39,0,0,0-1.65.16,8.89,8.89,0,0,0-2.12.68c-.06-.45-.12-.86-.18-1.25a18.7,18.7,0,0,0,4.71-2.25,21.32,21.32,0,0,0,6.34-6.56l.07-.12a1.42,1.42,0,0,0-.69-2L46,14a28.76,28.76,0,0,0-10.8-2.42,16.29,16.29,0,0,0-7.08,1.52c-.27.13-.52.26-.78.41C23.63,7.78,17,5.54,16.66,5.43l-.14,0a1.23,1.23,0,0,0-.42-.07,1.43,1.43,0,0,0-1.4,1.2l0,.14a37.75,37.75,0,0,0-.42,9.26,15.82,15.82,0,0,0-6.55-1.3,27.06,27.06,0,0,0-6.17.78l-.16,0a1.4,1.4,0,0,0-.94,2l.07.14a28.55,28.55,0,0,0,6.87,8.48,22.53,22.53,0,0,0-7,7l-.09.13a1.43,1.43,0,0,0-.19,1.22,1.41,1.41,0,0,0,.85.9l.13.05a28.39,28.39,0,0,0,4.63,1.23,16.81,16.81,0,0,0-2.93,4.57l0,.11A1.41,1.41,0,0,0,3.41,43l.11.05a29.14,29.14,0,0,0,5,1.88c-2.5,2.88-3.85,7.15-4,12.71v.12a1.42,1.42,0,0,0,1.3,1.46h.18a4.92,4.92,0,0,0,.56,0,16.59,16.59,0,0,0,10.57-3.76,14.65,14.65,0,0,0,1.37-1.36,26.17,26.17,0,0,0,3.71,9.41l.09.13a1.43,1.43,0,0,0,1.05.62h.12a1.4,1.4,0,0,0,1-.43l.11-.11c3.56-3.68,5.67-7.4,6.3-11.09.28.72.55,1.42.82,2.09,2.52,6.37,4.52,11.4,2.61,17.94a201.28,201.28,0,0,1-11.61,29.8c-3.95,8.52-6.13,13.21-4.14,16.51,1.23,2,3.86,3.06,8.54,3.31.31,0,.6,0,.88,0,7.87,0,8.59-6,9.57-14.32,1.22-10.26,3.05-25.76,17.34-45.18q1.77-2.38,3.37-4.51a8.84,8.84,0,0,0,9,3.82,8.83,8.83,0,0,0,5.88-4,20.12,20.12,0,0,0,8.47,1.76,22.61,22.61,0,0,0,4.6-.44l.14,0a1.41,1.41,0,0,0,.93-.72,1.43,1.43,0,0,0,.06-1.18l-.06-.14a36.8,36.8,0,0,0-4.85-8.81c2.67,2.11,6.19,3.18,10.47,3.18a32,32,0,0,0,4.72-.38l.15,0a1.41,1.41,0,0,0,1.1-1.92l-.06-.16A31,31,0,0,0,93.7,41.2a17.81,17.81,0,0,0-1.28-1.32,8.2,8.2,0,0,0,1.1-1.32,8.76,8.76,0,0,0,1.49-4h.66l1,0a28,28,0,0,0,9.36-2.24l.16-.08a1.42,1.42,0,0,0,.79-1A1.45,1.45,0,0,0,106.66,30ZM105.47,31a26.76,26.76,0,0,1-8.83,2.11c-.31,0-.64,0-1,0a15.86,15.86,0,0,1-2-.13,7.43,7.43,0,0,1-3.42,6.79,18.62,18.62,0,0,1,2.43,2.31,30.08,30.08,0,0,1,4.82,7.66l.06.14-.16,0a30.22,30.22,0,0,1-4.5.36c-4.31,0-7.74-1.14-10.23-3.41a11.72,11.72,0,0,1-1.72-2c-.32.91-.68,1.85-1.1,2.82a31.68,31.68,0,0,1,6.12,10.17L86,58l-.14,0a20.74,20.74,0,0,1-4.27.41,18,18,0,0,1-9.09-2.27A7.39,7.39,0,0,1,67,60.78a7.14,7.14,0,0,1-1.37.13,7.43,7.43,0,0,1-7.09-5.26c-1.5,2-3.09,4.07-4.79,6.38C39.2,81.75,37.34,97.47,36.1,107.88c-1,8.34-1.54,13.08-8.16,13.08l-.8,0c-4.16-.22-6.44-1-7.4-2.62-1.6-2.66.58-7.37,4.21-15.18a202.79,202.79,0,0,0,11.68-30c2-7-.13-12.5-2.65-18.86-1-2.49-2.06-5.19-2.95-8.2a7.52,7.52,0,0,1-1,.83A11.43,11.43,0,0,1,29.6,50c.15,4.2-1.89,8.52-6.08,12.84l-.11.11-.08-.13c0-.08-4.88-7.34-3.4-13.78a13.73,13.73,0,0,1-3.79,5.45A15.27,15.27,0,0,1,6.5,57.87H5.88v-.12c.19-6.39,2-10.89,5.33-13.38.1-.08.21-.14.31-.21a24.45,24.45,0,0,1-7.39-2.33L4,41.76l0-.1a15.2,15.2,0,0,1,4.83-6.11A29.42,29.42,0,0,1,1.56,34L1.42,34l.09-.13c2.67-3.92,5.59-6.44,8.71-7.55C5,23.37,1.82,17.06,1.77,17l-.07-.14.15,0c6-1.41,10.73-.81,14,1.77l.24.21a31.45,31.45,0,0,1-.06-11.88l0-.14.13,0c.08,0,7.38,2.43,10.63,8.69a13.08,13.08,0,0,1,1.88-1.1c4.44-2.12,10.07-1.81,16.73.93l.13.06-.06.12a20.21,20.21,0,0,1-5.89,6.07A17.26,17.26,0,0,1,34.1,24c.26,1.37.48,2.95.69,4.68a7.43,7.43,0,0,1,9.06-.52,7.29,7.29,0,0,1,2.4,2.72,7.45,7.45,0,0,1,5.25-5.89c-3.58-7.09,2.85-16.71,2.93-16.83L54.52,8l.11.12c4.06,4.45,5.85,8.76,5.34,12.83a15.4,15.4,0,0,1,6.42-2.4,26.75,26.75,0,0,1,4.42-.31c-1.32-3.46-1.88-8.95,1.72-16.65l.07-.15.13.12A26.83,26.83,0,0,1,78,9a16.51,16.51,0,0,1,1.52,6,7.37,7.37,0,0,1,6.42,3.78,7.75,7.75,0,0,1,.92-.76c3.4-2.44,8.55-2.79,15.31-1l.15,0-.06.14a18.22,18.22,0,0,1-6,7,25.69,25.69,0,0,1,9.29,6.62l.12.13Z"/><path class="cls-1" d="M62.05,29.92a13,13,0,0,1-1.42-.09,8.1,8.1,0,0,1,.23.88,7.43,7.43,0,0,1-5.93,8.66,7.33,7.33,0,0,1-3.55-.2,16.22,16.22,0,0,1,1.18,11.16c3.8-4.27,7.62-11,11-16.8.86-1.51,1.69-3,2.48-4.31-.32.12-.65.22-1,.31A11.29,11.29,0,0,1,62.05,29.92Zm-7.6,15.71a16.73,16.73,0,0,0-.81-4.71,9,9,0,0,0,1.55-.16,8.68,8.68,0,0,0,3.24-1.31C57.13,41.62,55.79,43.73,54.45,45.63Zm7.94-13a9.72,9.72,0,0,0,0-1.32c.27,0,.53,0,.79,0C62.91,31.73,62.65,32.18,62.39,32.65Z"/><path class="cls-1" d="M72.13,37.35c-1.3,2.06-2.86,4.24-4.69,6.67a11,11,0,0,1,6.67,0,11.65,11.65,0,0,1,1.34.53,14.89,14.89,0,0,1-3.22-6.47C72.18,37.84,72.16,37.59,72.13,37.35Zm-1.31,4.74h-.19l.93-1.31c.18.46.39.93.62,1.38A12.39,12.39,0,0,0,70.82,42.09Z"/></g></svg>