<svg xmlns="http://www.w3.org/2000/svg" viewBox="0 0 126.2 79.09"><defs><style>.cls-1{fill:#fff;}</style></defs><title>0</title><g id="圖層_1" data-name="圖層 1"><path class="cls-1" d="M95.48,63.1A13.23,13.23,0,0,1,95.15,65a11.49,11.49,0,0,1,.65-1.55Z"/><path class="cls-1" d="M37.5,45.26a9,9,0,0,1-.72.82,11.44,11.44,0,0,1-.06,1.69,12.24,12.24,0,0,1,1.68.32,1.86,1.86,0,0,1-.11-.19A7.63,7.63,0,0,1,37.5,45.26Z"/><path class="cls-1" d="M43.71,51a9.24,9.24,0,0,1,2,3.5c0-.44.09-.87.15-1.28a6,6,0,0,1,.35-1.33,15.46,15.46,0,0,1-1.48-2A3.8,3.8,0,0,1,43.71,51Z"/><path class="cls-1" d="M125.75,39.37c-1.47-4.12-5.67-6.48-8.67-7.68a2.84,2.84,0,0,0,.53-1.39c.13-1.41-.8-2.67-2.78-3.76a10.81,10.81,0,0,0-5.28-1.23,20.41,20.41,0,0,0-6.1,1.05A3.58,3.58,0,0,0,102,25.18a6.2,6.2,0,0,0-2.69-.53,10.9,10.9,0,0,0-1.84.16,2.8,2.8,0,0,0-.89-1.07,3.25,3.25,0,0,0-1.3-.57c.29-1.71.42-3.94-.47-5.46a3,3,0,0,0-2.34-1.63h-.26l-.28,0a9.64,9.64,0,0,0-1.49-3.77,3.7,3.7,0,0,0-3.07-1.79,3.49,3.49,0,0,0-1.43.32A7.22,7.22,0,0,0,83.25,8a4.22,4.22,0,0,0-2-.54,4.77,4.77,0,0,0-2.71.9c-1.26-1.3-3.24-2.9-5.35-2.9h-.22a3.84,3.84,0,0,0-3.3,1.74,3.34,3.34,0,0,0-.46,1.21,8.14,8.14,0,0,0-1-.06,4.58,4.58,0,0,0-3.09,1c-1.46,1.3-.94,3.43-.1,5.17a5.41,5.41,0,0,0-3.7,3.8,4.73,4.73,0,0,0,1.39,4.24,6.82,6.82,0,0,0-1.09.87,4.11,4.11,0,0,0-.6.08,10.13,10.13,0,0,0-2.72,1,4.72,4.72,0,0,0-3.57-2.6c.35-4-.06-7.74-1.14-9.79a3.09,3.09,0,0,0-2.08-1.78,4.54,4.54,0,0,0-.81-.08,3.67,3.67,0,0,0-1.19.2,14.11,14.11,0,0,0-3.29-6A4.71,4.71,0,0,0,43,2.79a4.2,4.2,0,0,0-2.23.61C39.73,1.81,38.12,0,35.9,0a4.23,4.23,0,0,0-3.76,2.44,4.21,4.21,0,0,0-2.3-.72,4,4,0,0,0-1.58.33,4.06,4.06,0,0,0-2.41,3.38,4.52,4.52,0,0,0-1-.12,3.45,3.45,0,0,0-3.09,2c-1.06,2.05-.21,4.57.75,6.39a3.2,3.2,0,0,0-.84.6,3.11,3.11,0,0,0-.88,2.61,7.75,7.75,0,0,0,1.39,3.46,3.51,3.51,0,0,0-.5.45,4,4,0,0,0-.81,3.45A2.73,2.73,0,0,0,20,25.66a13.54,13.54,0,0,0-4.49-.95,4.89,4.89,0,0,0-2,.37,3.38,3.38,0,0,0-2,3.29h-.35c-2.4,0-4.12.66-5.14,2a4.5,4.5,0,0,0-.92,2.82A5.72,5.72,0,0,0,.66,35a3.49,3.49,0,0,0-.32,3.58A7.63,7.63,0,0,0,3,41.74a3.69,3.69,0,0,0-.29.4,3.13,3.13,0,0,0-.31,2.63A6,6,0,0,0,5.56,48a3.71,3.71,0,0,0,.54,5.19,7.24,7.24,0,0,0,4.39,2,3.08,3.08,0,0,0,.27,1.58C11.41,58.18,13,59,15,59a9.52,9.52,0,0,0,1.64-.15q.82-.15,1.59-.33a2.38,2.38,0,0,0,.18,1,2.31,2.31,0,0,0,2.27,1.37,5,5,0,0,0,1.35-.21,12,12,0,0,0,1.14-.4,26.75,26.75,0,0,0-.07,9.48c.5,2.42,1.51,3.9,3,4.39a7.66,7.66,0,0,0,2.44.38c5.37,0,12-4.55,15.4-8.83.29-.36.56-.71.81-1.07a15.1,15.1,0,0,0,2.44,6,5.12,5.12,0,0,0,3.51,2.16l.42,0c2.08,0,4.68-1.68,7-4.49L58.3,68a24.81,24.81,0,0,0,6.32,6.37,12.82,12.82,0,0,0,7,2.72,5.5,5.5,0,0,0,2.18-.42c3.09-1.34,4.5-6.74,4.54-11.41A20.58,20.58,0,0,0,86.24,70a9.87,9.87,0,0,0,2.85.46,5.47,5.47,0,0,0,3.69-1.27A7.69,7.69,0,0,0,95,65.67a6.87,6.87,0,0,0-.18,1.64,7,7,0,0,0,1.31,7.59c2.64,3.09,7.66,4.19,11.48,4.19.57,0,1.13,0,1.67-.07,3.34-.29,5.82-1.41,6.8-3.06,1.42-2.4.62-6.57-.6-9.68-1.71-4.35-4.36-7.33-7.27-8.19a9.14,9.14,0,0,0-2.63-.4,7.31,7.31,0,0,0-1.33.12,11.51,11.51,0,0,0-4.74,1.48A16.77,16.77,0,0,1,97.28,57l.2-.2a3.81,3.81,0,0,0,.67-1.05,10.14,10.14,0,0,0,5.45,1.87,6.81,6.81,0,0,0,1.43-.15,7.12,7.12,0,0,0,4.14-2.76,27.13,27.13,0,0,0,5.63.73h0c2.52,0,4.31-.66,5.32-2a4.51,4.51,0,0,0,.72-3.86,14.66,14.66,0,0,0,2.62-2C126,45.26,126.8,42.31,125.75,39.37Zm-6.63,9.55c.22.49.95,2.33-.11,3.68-1.33,1.68-4.86,1.85-10.49.48a6,6,0,0,1-3.79,3c-2.2.48-4.75-.48-7.57-2.83a3.76,3.76,0,0,1-.73,2.6,2.2,2.2,0,0,1-1.23.67,1.5,1.5,0,0,1,.19.25,17.64,17.64,0,0,0,4,4.33,9.54,9.54,0,0,1,5-1.87,7.17,7.17,0,0,1,3.37.24c2.45.72,4.83,3.47,6.35,7.35,1.36,3.46,1.64,6.85.7,8.43-.73,1.24-2.87,2.13-5.7,2.38-.5,0-1,.06-1.55.06-3.73,0-8.17-1.08-10.4-3.69a5.56,5.56,0,0,1-1-6.4,7.81,7.81,0,0,1,1.42-4.45,19,19,0,0,1-3.53-4.06l0,.28c.3,4.06-.53,7.28-2.27,8.81a4,4,0,0,1-2.76.92,8.87,8.87,0,0,1-2.45-.39c-4-1.21-8.47-4.78-10.15-8a21.16,21.16,0,0,1,.42,4c.08,5.14-1.5,9.72-3.68,10.67a4.18,4.18,0,0,1-1.62.31,11.49,11.49,0,0,1-6.17-2.47,22,22,0,0,1-7-7.85,17.22,17.22,0,0,1-1.42,2c-2,2.44-4.24,4-5.86,4h-.27a3.77,3.77,0,0,1-2.54-1.62c-1.61-2.08-2.48-5.87-2.72-9.75a15.69,15.69,0,0,1-2.75,4.78c-3.5,4.33-9.73,8.3-14.3,8.3a6.38,6.38,0,0,1-2-.3c-.95-.32-1.66-1.47-2.05-3.34a28.14,28.14,0,0,1,.73-11.92,12.85,12.85,0,0,1-3.56,1.76,3.72,3.72,0,0,1-1,.16.92.92,0,0,1-1-.5c-.29-.69.31-1.89,1.19-2.86a16.93,16.93,0,0,1-4.51,1.37c-2.2.38-3.83-.1-4.37-1.28a2.18,2.18,0,0,1,.6-2.42A6.77,6.77,0,0,1,7.1,52.14a2.45,2.45,0,0,1-.84-2.56,3.47,3.47,0,0,1,2.2-2c-1.16-.36-4.17-1.48-4.71-3.24a1.7,1.7,0,0,1,.15-1.47,3.21,3.21,0,0,1,1.87-1.18c-.92-.4-3.26-1.6-4.12-3.69a2.12,2.12,0,0,1,.14-2.18c.76-1,2.66-1.47,5-1.23a3.83,3.83,0,0,1,.38-3.42c1-1.24,3-1.67,6.07-1.27-.22-.66-.79-2.81.86-3.55s5.83.52,7.33,1.6c-.18-.74-.43-2.27.61-2.79a2.55,2.55,0,0,1,.55-.19c-.5-1.38-.45-2.55.2-3.28a1.93,1.93,0,0,1,1.95-.52c-.75-.81-2.33-2.7-2.49-4.46a1.74,1.74,0,0,1,.46-1.47,3,3,0,0,1,2.08-.65c-.63-.91-2.89-4.43-1.72-6.69a2,2,0,0,1,1.4-1.15,4.19,4.19,0,0,1,2.89.9c-.18-.92-.48-3.48,1.48-4.31s3.43.93,3.92,1.62c.19-.92.92-3.56,3.16-3.56h0c2.37,0,4,3.38,4.47,4.36A2.87,2.87,0,0,1,43,4.2h0a3.46,3.46,0,0,1,2.18,1.24,12.59,12.59,0,0,1,3.29,7.73,2.46,2.46,0,0,1,2.74-1.42,1.78,1.78,0,0,1,1.1,1.05c1,1.88,1.48,6.14.75,10.91a2.06,2.06,0,0,1,1.19-.39l.27,0c2.16.27,2.91,2.62,3.09,3.36a8.11,8.11,0,0,1,3.68-1.8,3.33,3.33,0,0,1,.94-.06,7.11,7.11,0,0,1,3.1-2c-.79-.46-3.11-2-2.65-4.24s3.61-3.06,4.44-3.2c-.49-.76-2.37-3.85-1.09-5s3.85-.47,4.68-.25A2.57,2.57,0,0,1,70.83,8,2.48,2.48,0,0,1,73,6.9h.14c2.29,0,4.7,2.83,5.22,3.46.43-.48,2.18-2.21,4.21-1.1a7,7,0,0,1,2.9,4A2.26,2.26,0,0,1,86.93,12a2.16,2.16,0,0,1,2.39,1.11,9.53,9.53,0,0,1,1.43,5.07,2.33,2.33,0,0,1,1.63-.69,1.66,1.66,0,0,1,1.25.93c1,1.77.16,5.29-.1,6.21a2.81,2.81,0,0,1,2.25.24,2,2,0,0,1,.71,1.61,7.58,7.58,0,0,1,4.93,0,2,2,0,0,1,1.21,1.71c1.09-.45,7.19-2.77,11.51-.39,1.44.79,2.13,1.6,2.06,2.39-.1,1-1.46,1.72-2.14,2,1.71.46,8.55,2.6,10.36,7.68.86,2.41.19,4.76-1.93,6.78A13.44,13.44,0,0,1,119.12,48.92Zm-24,16a13.23,13.23,0,0,0,.33-1.87l.32.32A11.49,11.49,0,0,0,95.15,65Z"/><path class="cls-1" d="M74.55,44.39A7.94,7.94,0,0,1,71,46a2.85,2.85,0,0,1,.91,2.67c-.51,1.61-4,3.33-7.65,2.42a6.39,6.39,0,0,1,.07,1.37,9.48,9.48,0,0,1,9.37,2.41l0,.07a9.69,9.69,0,0,1,1.94,3,7.94,7.94,0,0,1,0-2.12h0l0-.16,0-.14c0-.2.09-.4.14-.59a8.13,8.13,0,0,1,2.3-4.13c-.64-.89-2.39-3.32-3-4.55A3.46,3.46,0,0,1,74.55,44.39Zm.1,9.46a10.36,10.36,0,0,0-3.54-2.36,4.61,4.61,0,0,0,2.12-2.4,3.51,3.51,0,0,0-.07-2.26l.49-.21.17.34a42.51,42.51,0,0,0,2.47,3.77A9.79,9.79,0,0,0,74.65,53.85Z"/><path class="cls-1" d="M84.91,43.73a8.11,8.11,0,0,1-5.22,1.61c-.33,0-.67,0-1,0A11.54,11.54,0,0,1,76.9,45l.21.37a15.15,15.15,0,0,0,3,4A12.48,12.48,0,0,1,85,48h.1c.25,0,.49,0,.74-.06a14.22,14.22,0,0,1,0-4.13A8.8,8.8,0,0,1,84.91,43.73Zm-4.48,3.94c-.27-.3-.52-.6-.75-.91h0a10.67,10.67,0,0,0,4.61-1c0,.3,0,.58,0,.86A14.27,14.27,0,0,0,80.43,47.67Z"/></g></svg>