<svg xmlns="http://www.w3.org/2000/svg" viewBox="0 0 100.04 53.27"><defs><style>.cls-1{fill:#fff;}</style></defs><title>0</title><g id="圖層_1" data-name="圖層 1"><path class="cls-1" d="M98.68,15.63a1.59,1.59,0,0,0-.29-.15c.36-2.5-.24-4.23-1.75-5a3.49,3.49,0,0,0-1.49-.34,4.52,4.52,0,0,0-2.24.67,2.25,2.25,0,0,0-.36-.39,2.22,2.22,0,0,0-1.48-.55,2.86,2.86,0,0,0-.63.08l-.09,0,0-.26c.38-3.55-1.46-4.61-2-4.85a2.78,2.78,0,0,0-1.06-.21H87C86.14,1.73,84.45,0,82.29,0a5.11,5.11,0,0,0-4.6,3.12A3.63,3.63,0,0,0,77,3.06a3.48,3.48,0,0,0-2.11.68c-1.1.84-1.6,2.3-1.5,4.41h-.1a2.36,2.36,0,0,0-1.63.63,2.53,2.53,0,0,0-.29.32c-1.54-2.86-3.27-3.47-4.46-3.47h-.25a3.58,3.58,0,0,0-1.9.74A5.08,5.08,0,0,0,62.28,5a4,4,0,0,0-.68-.07,3.65,3.65,0,0,0-2.29.83c-2.1,1.62-2.23,4.54-2.05,6.42a3.79,3.79,0,0,0-1.63,1,3,3,0,0,0-.79,1.65A5.15,5.15,0,0,0,50.62,18a3.63,3.63,0,0,0-.67-.06,3.43,3.43,0,0,0-2.1.68c-1.11.84-1.61,2.29-1.51,4.41h-.1a2.36,2.36,0,0,0-1.63.63,2,2,0,0,0-.29.32c0-.06-.06-.11-.08-.16.17-.33.33-.67.47-1,1.39-3.34-.28-4.65-.82-5l-.29-.15c.36-2.49-.24-4.22-1.75-4.95a3.36,3.36,0,0,0-1.5-.34,4.45,4.45,0,0,0-2.23.66,2.72,2.72,0,0,0-.37-.39,2.24,2.24,0,0,0-1.47-.54,2.27,2.27,0,0,0-.63.08l-.09,0,0-.25c.38-3.56-1.46-4.61-2-4.85a2.54,2.54,0,0,0-1-.22l-.27,0c-.88-3-2.58-4.72-4.73-4.72a5.11,5.11,0,0,0-4.6,3.12,4.94,4.94,0,0,0-.68,0,3.39,3.39,0,0,0-2.1.68c-1.1.84-1.6,2.29-1.5,4.4h-.1a2.31,2.31,0,0,0-1.63.64,1.49,1.49,0,0,0-.29.31c-1.55-2.86-3.26-3.46-4.44-3.46h-.28A3.5,3.5,0,0,0,10,8.56,5,5,0,0,0,7.48,7.15a3.79,3.79,0,0,0-.67-.06,3.69,3.69,0,0,0-2.29.82c-2.1,1.62-2.23,4.54-2.06,6.42a3.91,3.91,0,0,0-1.63,1A3.33,3.33,0,0,0,0,18C.24,20,1.84,22.24,3.64,23.83a2.69,2.69,0,0,0-.58.84c-.57,1.26-.21,2.74,1.09,4.39,2.07,2.64,5.72,4.48,8.13,5.48a2.13,2.13,0,0,0-.08.66c.06,2,2.48,3.49,8.31,5.1a1.41,1.41,0,0,0,.89.32,1.5,1.5,0,0,0,.47-.08,1.52,1.52,0,0,0,.45-.16l.65,0A24.08,24.08,0,0,0,30.55,39a5.94,5.94,0,0,0,1.32,2.73c2.07,2.64,5.72,4.49,8.13,5.49a2.39,2.39,0,0,0-.08.66c.06,2,2.48,3.48,8.32,5.1a1.44,1.44,0,0,0,.89.31,1.55,1.55,0,0,0,.47-.08A1.76,1.76,0,0,0,50,53l.66,0a23,23,0,0,0,9.23-2.06c3.78-1.79,4.28-3.66,4.17-4.73A20.48,20.48,0,0,0,67,44.75c2.64-1.61,3.21-3.65,2.61-5A15.21,15.21,0,0,0,71.66,37c1,.38,2.24.77,3.65,1.16a1.44,1.44,0,0,0,.89.31,1.24,1.24,0,0,0,.46-.08,1.49,1.49,0,0,0,.45-.15c.17,0,.39,0,.66,0A23.19,23.19,0,0,0,87,36.11c3.78-1.78,4.27-3.65,4.17-4.73A20.48,20.48,0,0,0,94,29.92c2.64-1.61,3.21-3.65,2.61-5A14.14,14.14,0,0,0,99.5,20.6C100.89,17.26,99.23,16,98.68,15.63Zm-.49,4.42a12.81,12.81,0,0,1-3.66,4.88.87.87,0,0,1,.79.5c.38.75-.09,2.1-2,3.28a16,16,0,0,1-4.23,1.89,1.17,1.17,0,0,1,.66.7c.12.4.26,1.84-3.32,3.53a22,22,0,0,1-8.7,1.93,6.34,6.34,0,0,0-1.07.09l-.15.06V37l-.1,0L76.2,37l.06-.1A37.42,37.42,0,0,1,71,35.17a13,13,0,0,1-3.53,4.59.88.88,0,0,1,.79.49c.38.76-.09,2.11-2,3.29A16.15,16.15,0,0,1,62,45.43a1.19,1.19,0,0,1,.65.69c.12.4.26,1.84-3.32,3.53a21.87,21.87,0,0,1-8.7,1.94,6.5,6.5,0,0,0-1.08.09l-.13,0,0,.07-.1,0-.17.07.07-.1C44,50.36,41.38,49,41.34,47.82c0-.63.64-1,1-1.23-1.39-.47-6.83-2.48-9.4-5.75-1-1.2-1.25-2.19-.92-2.93a2.67,2.67,0,0,1,2-1.22,7.12,7.12,0,0,1-.91-.57,12.1,12.1,0,0,1-1.58.88,21.82,21.82,0,0,1-8.7,1.93,7.25,7.25,0,0,0-1.08.1l-.14,0v.07l-.1,0-.18.08.07-.11c-5.17-1.38-7.82-2.7-7.85-3.93,0-.62.63-1,1-1.23-1.38-.47-6.83-2.47-9.4-5.75C4.32,27,4,26,4.35,25.25a2.68,2.68,0,0,1,2-1.22C4.28,23,1.67,20,1.43,17.87a1.87,1.87,0,0,1,.45-1.55,3.32,3.32,0,0,1,2.18-.85c-.17-.83-.84-4.76,1.33-6.44a2.2,2.2,0,0,1,1.83-.48A5.06,5.06,0,0,1,10,10.78a2.55,2.55,0,0,1,2-1.55c.84-.07,2.12.37,3.42,2.85A15.64,15.64,0,0,1,17,17.47l.29.12c-.09-1-.36-4.75.54-5.6.72-.67,1.94.16,2.49.6C19.76,9.68,20,7.82,21,7a2.91,2.91,0,0,1,2.78,0c.18-.68,1.09-3.41,3.74-3.42h0c2.67,0,3.54,4.19,3.72,5.3A1.62,1.62,0,0,1,33,8.39c.71.3,1.39,1.35,1.17,3.4a10.76,10.76,0,0,1-.92,3.74,1.25,1.25,0,0,1,.29-.1A5.8,5.8,0,0,1,36,13.54a.9.9,0,0,1,.84.16,2.52,2.52,0,0,1,.5,1.79c.62-.67,2.32-2.28,3.91-1.51s.93,3.91.63,5a1.37,1.37,0,0,1,1.3,0c.38.23,1.15,1,.23,3.21a12.15,12.15,0,0,1-.81,1.57c.18.28.37.58.55.93a15.55,15.55,0,0,1,1.6,5.39,2.23,2.23,0,0,1,.3.13c-.09-1-.37-4.76.54-5.6.71-.67,1.93.15,2.49.59-.59-2.91-.38-4.77.64-5.54a2.86,2.86,0,0,1,2.77,0c.19-.69,1.1-3.42,3.75-3.42h0a2.31,2.31,0,0,1,1.21.33,3.7,3.7,0,0,1-.21-.89,1.9,1.9,0,0,1,.44-1.55,3.3,3.3,0,0,1,2.19-.84c-.18-.84-.85-4.76,1.32-6.44A2.21,2.21,0,0,1,62,6.37,5.21,5.21,0,0,1,64.79,8.6a2.49,2.49,0,0,1,2-1.54c.85-.06,2.13.37,3.42,2.84a15.55,15.55,0,0,1,1.6,5.39l.3.13c-.1-1-.37-4.76.54-5.6.72-.67,1.93.15,2.49.6-.59-2.91-.38-4.78.63-5.55a2.88,2.88,0,0,1,2.78,0c.18-.69,1.1-3.42,3.75-3.42h0C85,1.42,85.84,5.6,86,6.72a1.59,1.59,0,0,1,1.77-.5c.71.3,1.39,1.34,1.17,3.4a10.61,10.61,0,0,1-.92,3.73l.3-.1a5.83,5.83,0,0,1,2.43-1.88.9.9,0,0,1,.84.16,2.57,2.57,0,0,1,.51,1.79c.62-.68,2.32-2.28,3.9-1.52s.93,3.92.63,5a1.39,1.39,0,0,1,1.31,0C98.34,17.07,99.12,17.83,98.19,20.05Z"/></g></svg>