<svg id="圖層_1" data-name="圖層 1" xmlns="http://www.w3.org/2000/svg" viewBox="0 0 1087.4 607.71"><defs><style>.cls-1{opacity:0.32;}.cls-2{fill:#8dccc3;}.cls-10,.cls-2,.cls-3,.cls-4,.cls-5,.cls-6,.cls-7,.cls-9{stroke:#000;stroke-linejoin:round;stroke-width:0.45px;}.cls-3{fill:#006781;}.cls-4{fill:#1789a0;}.cls-5{fill:#ebebf2;}.cls-6{fill:#bad5dd;}.cls-7{fill:#fff;}.cls-8,.cls-9{fill:none;}.cls-10{fill:#ffb829;}</style></defs><title>all</title><g class="cls-1"><path class="cls-2" d="M130.62,439.25c-15.64,3.59-26.45,0-61.71,17.63S18.54,467,3.43,495.91s40.05,21.41,67.12,56.67,101.62,44.07,159.55,52.89S362.32,592.88,419,592.88s210.29,6.29,304.74-21.41,128.44-17.63,159.93-37.78,64.22-15.11,114.59-29,85.63-29,88.15-47.85-27.71-26.45-47.86-42.82-97-22.66-127.18-44.07S725,315.84,624.25,351.1s-180.08,10.07-275.78,35.26S175.63,428.91,130.62,439.25Z"/><line class="cls-3" x1="153.07" y1="82.58" x2="153.07" y2="479.57"/><path class="cls-3" d="M134.76,97.08,153,115.47l-3.74,4.26a4.84,4.84,0,0,1-8-1.18l-9-19.73A1.56,1.56,0,0,1,134.76,97.08Z"/><path class="cls-3" d="M172.81,96.37,153,115.47l5.38,5.12a4.84,4.84,0,0,0,7.77-1.57l9.14-20.92A1.55,1.55,0,0,0,172.81,96.37Z"/><path class="cls-3" d="M152.55,62.39l-3.33,8.79a10,10,0,0,0,2.88,11.3c.3.25.63.49,1,.73l.14-.09a10,10,0,0,0,3.71-11.94l-3.33-8.79A.56.56,0,0,0,152.55,62.39Z"/><path class="cls-3" d="M118.19,128s28.36,14.06,34.88,22.95a23.67,23.67,0,0,1-8.42,14.89,2,2,0,0,1-3.07-.71l-7-15.19a1,1,0,0,0-1.79-.19l-1.17,1.53a2,2,0,0,1-3.36-.3L117,129A.79.79,0,0,1,118.19,128Z"/><path class="cls-3" d="M188,128S164.63,139.4,153.07,151a23.67,23.67,0,0,0,8.42,14.89,2,2,0,0,0,3.07-.71l7-15.19a1,1,0,0,1,1.79-.19l1.17,1.53a2,2,0,0,0,3.36-.3l11.21-22A.79.79,0,0,0,188,128Z"/><path class="cls-3" d="M94.08,215.19s48.72,19.22,59,26c-2.07,7.67-8.64,18.27-12.93,23.45-.75.92-2.7.68-3-.46l-4.92-17.8-5.34,7.89a2.81,2.81,0,0,1-4.58.11l-13.71-23.47-2,2.91a2.81,2.81,0,0,1-4.79-.23l-9.2-16.8A1.16,1.16,0,0,1,94.08,215.19Z"/><path class="cls-3" d="M76.06,258.44s55.93,20.84,77,35.28C147.18,307.61,137,319.59,137,319.59a3.5,3.5,0,0,1-6-.06l-10-16.86-3.28,5.81a3.5,3.5,0,0,1-6,.15L95.4,283l-2,3.14a3.49,3.49,0,0,1-6-.28L74.2,260.4A1.43,1.43,0,0,1,76.06,258.44Z"/><path class="cls-3" d="M230.08,258.44s-55.93,20.84-77,35.28c5.89,13.89,16.11,25.87,16.11,25.87a3.5,3.5,0,0,0,6-.06l10.05-16.86,3.29,5.81a3.49,3.49,0,0,0,6,.15L210.74,283l2,3.14a3.49,3.49,0,0,0,6-.28l13.15-25.41A1.43,1.43,0,0,0,230.08,258.44Z"/><path class="cls-3" d="M212.06,215.19s-48.72,19.22-59,26c2.07,7.67,8.64,18.27,12.93,23.45.75.92,2.7.68,3-.46l4.92-17.8,5.34,7.89a2.81,2.81,0,0,0,4.58.11l13.71-23.47,2,2.91a2.81,2.81,0,0,0,4.79-.23l9.2-16.8A1.16,1.16,0,0,0,212.06,215.19Z"/><path class="cls-3" d="M110.45,169.72s27.11,11.12,42.62,24.24c-2.12,8.47-7.64,19.71-7.64,19.71a3.71,3.71,0,0,1-6.8-.16l-7.38-18.2-2,3.15a3.7,3.7,0,0,1-6.42-.27l-14-26.87A1.18,1.18,0,0,1,110.45,169.72Z"/><path class="cls-3" d="M195.64,169.72S168.53,180.84,153,194c2.12,8.47,7.64,19.71,7.64,19.71a3.71,3.71,0,0,0,6.8-.16l7.38-18.2,2,3.15a3.7,3.7,0,0,0,6.42-.27l14-26.87A1.18,1.18,0,0,0,195.64,169.72Z"/><line class="cls-4" x1="479.72" y1="6.9" x2="479.72" y2="167.87"/><path class="cls-4" d="M473.66,11.7l6,6.08-1.23,1.41a1.6,1.6,0,0,1-2.66-.39l-3-6.52A.51.51,0,0,1,473.66,11.7Z"/><path class="cls-4" d="M486.25,11.46l-6.55,6.32,1.78,1.7a1.61,1.61,0,0,0,2.57-.52l3-6.92A.51.51,0,0,0,486.25,11.46Z"/><path class="cls-4" d="M479.55.23l-1.1,2.9a3.31,3.31,0,0,0,.95,3.74,3.81,3.81,0,0,0,.32.24l0,0A3.32,3.32,0,0,0,481,3.13l-1.1-2.9A.18.18,0,0,0,479.55.23Z"/><path class="cls-4" d="M468.18,21.93s9.38,4.64,11.54,7.59a7.81,7.81,0,0,1-2.78,4.92.66.66,0,0,1-1-.24l-2.32-5a.34.34,0,0,0-.59-.06l-.39.51a.66.66,0,0,1-1.11-.1l-3.7-7.27A.25.25,0,0,1,468.18,21.93Z"/><path class="cls-4" d="M491.26,21.93s-7.72,3.76-11.54,7.59a7.81,7.81,0,0,0,2.78,4.92.66.66,0,0,0,1-.24l2.32-5a.34.34,0,0,1,.59-.06l.39.51a.66.66,0,0,0,1.11-.1l3.71-7.27A.26.26,0,0,0,491.26,21.93Z"/><path class="cls-4" d="M460.21,50.76s16.11,6.36,19.51,8.6a25.13,25.13,0,0,1-4.28,7.76.62.62,0,0,1-1-.15l-1.63-5.89-1.77,2.61a.93.93,0,0,1-1.51,0L465,56l-.65,1a.94.94,0,0,1-1.59-.08l-3-5.55A.38.38,0,0,1,460.21,50.76Z"/><path class="cls-4" d="M454.25,65.06s18.5,6.89,25.47,11.67a38.06,38.06,0,0,1-5.33,8.55,1.15,1.15,0,0,1-2,0l-3.32-5.57L468,81.61a1.15,1.15,0,0,1-2,0l-5.38-8.49-.66,1a1.16,1.16,0,0,1-2-.09l-4.35-8.41A.47.47,0,0,1,454.25,65.06Z"/><path class="cls-4" d="M505.19,65.06S486.69,72,479.72,76.73a38.06,38.06,0,0,0,5.33,8.55,1.15,1.15,0,0,0,2,0l3.32-5.57,1.09,1.92a1.15,1.15,0,0,0,2,0l5.38-8.49.67,1a1.15,1.15,0,0,0,2-.09l4.35-8.41A.47.47,0,0,0,505.19,65.06Z"/><path class="cls-4" d="M499.23,50.76s-16.11,6.36-19.51,8.6A25.13,25.13,0,0,0,484,67.12a.62.62,0,0,0,1-.15l1.63-5.89,1.77,2.61a.93.93,0,0,0,1.51,0L494.44,56l.65,1a.94.94,0,0,0,1.59-.08l3-5.55A.38.38,0,0,0,499.23,50.76Z"/><path class="cls-4" d="M465.63,35.72s9,3.68,14.09,8a41.06,41.06,0,0,1-2.53,6.52A1.22,1.22,0,0,1,475,50.2l-2.44-6-.66,1a1.23,1.23,0,0,1-2.13-.09l-4.62-8.89A.39.39,0,0,1,465.63,35.72Z"/><path class="cls-4" d="M493.8,35.72s-9,3.68-14.1,8a41.06,41.06,0,0,0,2.53,6.52,1.23,1.23,0,0,0,2.25-.06l2.44-6,.66,1a1.22,1.22,0,0,0,2.12-.09l4.62-8.89A.39.39,0,0,0,493.8,35.72Z"/><path class="cls-5" d="M116.78,435.51c7.36-20.4,20.18-24.57,24-39.95,3.27-13.06,11.62-37.57,14.06-44.66a18.69,18.69,0,0,1-4.69-4.74,7.55,7.55,0,0,1-1.45-4.06c-4.86,31.88-13.54,42.53-20.25,59.12-6.84,16.88-21.31,30.94-26.13,55.87-.08.43-.19.82-.28,1.24C106.38,454.48,112.37,447.69,116.78,435.51Z"/><path class="cls-5" d="M186.94,357.87c-1.74,0-3.36,0-4.74-.06s-2.56-.1-3.82-.19a58.24,58.24,0,0,1-5,18c-5.23,11.11-3.89,21.86-9.59,36.09a23.9,23.9,0,0,0-.81,16.81c8.05-12.84,15.16-28,17.49-36.19a43.12,43.12,0,0,1,2.25-6,67.18,67.18,0,0,1,4.8-8.55C184.61,370.93,185.82,362.63,186.94,357.87Z"/><path class="cls-6" d="M187.48,377.73c3.39-5.22,7-9.68,9.15-13.18,1.23-2,2.6-4.28,4.06-6.71-5.22,0-9.89,0-13.75,0C185.82,362.63,184.61,370.93,187.48,377.73Z"/><path class="cls-6" d="M125.58,488.58c16.21-26.8,13.58-31.73,25.56-44.26a102.57,102.57,0,0,0,11.8-15.82,23.9,23.9,0,0,1,.81-16.81c5.7-14.23,4.36-25,9.59-36.09a58.24,58.24,0,0,0,5-18c-2.69-.18-5.34-.48-7.89-.91a28.84,28.84,0,0,0-7,15c-1.77,11.82-6.7,31.72-11.62,30.54s1.07-18.37,2.16-30.34c.83-9,3.06-15,4.91-18.65a25.62,25.62,0,0,1-4.08-2.33c-2.44,7.09-10.79,31.6-14.06,44.66-3.84,15.38-16.66,19.55-24,39.95-4.41,12.18-10.4,19-14.72,22.82A112.8,112.8,0,0,1,88.88,492a12.63,12.63,0,0,0,2.25,15.66c1,.88,2,1.84,3.21,2.85a53.76,53.76,0,0,1,10.9-20.4c9.77-11.21,13.25-11.8,20.85-29.17s11.62-25.33,14.49-25.8-5.17,22.39-10.92,34.23S111.27,494.74,109,504.79a51.67,51.67,0,0,1-5.07,13.27q3.24,2.36,7.13,5a18.52,18.52,0,0,1,.7-4.81C113.6,511.75,117.5,502,125.58,488.58Z"/><path class="cls-5" d="M309.46,392.51a82.83,82.83,0,0,1-1,20.24c.81,1.34,1.67,2.68,2.58,4a46.44,46.44,0,0,1,3.29,5.81c2.42-4.39,5.43-11.31,5.31-18.5-.18-12,9.55-12.19,11.57-20.87,1.52-6.51,3.86-10.38,5.75-12.61-7.29.58-14.77,1.36-24.8,1.64C310.66,375.07,308.77,381.07,309.46,392.51Z"/><path class="cls-5" d="M154,371.88c-1.09,12-7.09,29.16-2.16,30.34s9.85-18.72,11.62-30.54a28.84,28.84,0,0,1,7-15,44.21,44.21,0,0,1-11.55-3.48C157.09,356.84,154.86,362.85,154,371.88Z"/><path class="cls-6" d="M380.06,372.31c-20.34-3.06-31.49-2.67-43.12-1.75-1.89,2.23-4.23,6.1-5.75,12.61-2,8.68-11.75,8.88-11.57,20.87.12,7.19-2.89,14.11-5.31,18.5l.2.38c.24.5.49,1,.73,1.53,6.47,13.86,13.19,36.19,18,44.26,4.89,8.28,24.14,31.4,33.51,45.89l22.34-2.86,8.29-48.63,9.79-94.64A49.58,49.58,0,0,1,380.06,372.31Z"/><path class="cls-5" d="M289.06,380.89c3.72-2.84,7.44-.92,8.81,4,1.12-6.94.72-10.71.07-12.74a86.42,86.42,0,0,1-25.09-4.2c.77,4.89,1.88,8.34,3.37,10.94C278.34,382.6,282.79,385.65,289.06,380.89Z"/><path class="cls-5" d="M129.66,469.4c5.75-11.84,13.79-34.71,10.92-34.23s-6.9,8.42-14.49,25.8-11.08,18-20.85,29.17a53.76,53.76,0,0,0-10.9,20.4c2.57,2.21,5.72,4.73,9.56,7.52A51.67,51.67,0,0,0,109,504.79C111.27,494.74,123.91,481.23,129.66,469.4Z"/><path class="cls-6" d="M297.87,384.93a17,17,0,0,1,.38,1.79c.78,5.52,4.19,16.09,10.19,26a82.83,82.83,0,0,0,1-20.24c-.69-11.44,1.2-17.44,2.68-20.31l-3.62.08c-4,.06-7.5,0-10.58-.09C298.59,374.22,299,378,297.87,384.93Z"/><path class="cls-4" d="M165.84,330.48c-7.09,2.66-15.25,5.33-16.84,9.91h0v.07a5,5,0,0,0-.25,1.64,7.55,7.55,0,0,0,1.45,4.06,18.69,18.69,0,0,0,4.69,4.74,25.62,25.62,0,0,0,4.08,2.33,44.21,44.21,0,0,0,11.55,3.48c2.55.43,5.2.73,7.89.91,1.26.09,2.54.15,3.82.19s3,.06,4.74.06c3.86,0,8.53,0,13.75,0,8.2-13.72,19.39-32.89,27.11-42.53,3.85-4.82,8-9.25,12.57-12-16.67,1.11-37.45,3.51-46,8.68C179.11,321.24,175.49,326.86,165.84,330.48Z"/><path class="cls-4" d="M434.15,326.27l-113.57-7L264.1,302.35s-2.14,0-5.65.11c10.21,5.07,13,17.87,13,38.4,0,12.24.44,20.87,1.43,27.13a86.42,86.42,0,0,0,25.09,4.2c3.08.11,6.55.15,10.58.09l3.62-.08c10-.28,17.51-1.06,24.8-1.64,11.63-.92,22.78-1.31,43.12,1.75a49.58,49.58,0,0,0,27.07-3.84c20.27-8.64,33.65-27.14,33.65-27.14Z"/><path class="cls-7" d="M185.54,336.37c.15-4.26,3.86-5.42,8.31-6s8.51,2.9,7,7.93S185.34,341.78,185.54,336.37Z"/><path class="cls-7" d="M300.13,360.8c.91-6.28,13.3-6.52,16.45-3.48s3.23,8.23-1.34,8.1S299.33,366.34,300.13,360.8Z"/><path class="cls-5" d="M314.51,422.92l-.2-.38c-.24.44-.48.86-.7,1.25A12.11,12.11,0,0,0,314.51,422.92Z"/><ellipse class="cls-7" cx="147.21" cy="419.28" rx="3.89" ry="1.63" transform="translate(-296.6 441.75) rotate(-73.55)"/><path class="cls-6" d="M638.14,291.9c3.58-7.16,23.73,17.68,35.36,38.15s19.54,27.92,24.2,40,3.72,17.68-7,5.12-21.87-21.41-34-30.25-13-16.9-15.58-28.92S634.88,298.41,638.14,291.9Z"/><path class="cls-6" d="M274.87,220.81c.81,15.3-2.87,29.35,1.31,29.35s5.22-13.31,5.74-25.32c.36-8.26.72-14.38.91-17.39-2.95-.55-5.76-1.16-8.4-1.86C274.43,209.06,274.52,214,274.87,220.81Z"/><path class="cls-6" d="M532,192.22a16.49,16.49,0,0,0-1.15-3.05c1,4.77-.06,9.75-3.65,14.77-15,21-40.2,25.31-90.28,28.46a170.64,170.64,0,0,1-22,.08c.31,7.32-3.81,14.8-7.78,20.72-4.7,7-1.58,18.77-1.81,35.63s2.88,19.82,2.88,19.82,2.28,12.62-5.57,5.4-4.48-14.52-4.48-32.33-2.91-21.18-5.15-31.56c-1.55-7.17-1.87-16.68-1.92-21.89-2-.59-3.95-1.22-5.86-1.88-.09,8.61-2.41,18.06.61,31.08,3.81,16.43,5.15,31.75,2,49.33-2.16,12.12-.76,28,.31,36.75a183.59,183.59,0,0,0,29.06-8c24.14-9.05,93.82.93,93.82.93S546,245.81,532,192.22Z"/><path class="cls-6" d="M397.47,248c1.57,9,4.48,2,7.1-3.89,1.71-3.87,1.69-9.27,1.47-12.53-3.05-.44-5.89-1-8.57-1.6C397,235,396.52,242.54,397.47,248Z"/><path class="cls-5" d="M253.05,223.54c-4.43-1.36-6.17,35.28-6.17,35.28l17.22,6.64C255.45,255.47,258.26,225.14,253.05,223.54Z"/><path class="cls-5" d="M281.92,224.84c-.52,12-1.57,25.31-5.74,25.32s-.5-14-1.31-29.35c-.35-6.77-.44-11.75-.44-15.22a60.64,60.64,0,0,1-9.64-3.35,78.3,78.3,0,0,0,2.87,22.66c2.25,8,2.68,27.28-1.45,38.93l24.59,3.92s-5-8.49-4.45-26.74c.5-17.33,3.58-23.89,3.44-32.43q-3.59-.51-7-1.13C282.64,210.46,282.28,216.58,281.92,224.84Z"/><path class="cls-5" d="M326.61,308.65l-6.6,1.54a65.73,65.73,0,0,1,0,17.67c-1.29,10.26.76,17.83,4.18,17.57s1-8.09,4.17-20.62S326.61,308.65,326.61,308.65Z"/><path class="cls-8" d="M326.61,308.65l-6.6,1.54a65.73,65.73,0,0,1,0,17.67c-1.29,10.26.76,17.83,4.18,17.57s1-8.09,4.17-20.62S326.61,308.65,326.61,308.65Z"/><path class="cls-8" d="M253.05,223.54c-4.43-1.36-6.17,35.28-6.17,35.28l17.22,6.64C255.45,255.47,258.26,225.14,253.05,223.54Z"/><path class="cls-8" d="M365.58,252.8c-4.42-.12-6.4,22.42-8,38.6s.26,34.46,4.43,33.41,2.82-18.27,3.53-32.89C366.3,276.81,371,253,365.58,252.8Z"/><path class="cls-6" d="M287.4,326c-3.67.43-2.42,8.87-1.2,14.41q2.71,1.13,5.55,2.09C290.29,335.18,291.42,325.51,287.4,326Z"/><path class="cls-6" d="M380.66,271.07c.23-13.89-6.5-22.86-3.14-33.84a29.32,29.32,0,0,0,1.21-13.18c-7.46-2.76-15-5.65-24.92-7.82,2.34,8.38,1.35,21.86-1.94,33.08-3.65,12.46,1.05,28.79,1.05,28.79s-4.72,5.94-6.76,0-3.16-17.5-1.88-25.3.81-15.17-3.22-12.82-5.63-.26-3.77-11.48a44.07,44.07,0,0,0,.12-14.89c-16.3-2-33.17-3-47.62-5,.14,8.54-2.94,15.1-3.44,32.43-.54,18.25,4.45,26.74,4.45,26.74l-24.59-3.92c4.13-11.65,3.7-30.9,1.45-38.93a78.3,78.3,0,0,1-2.87-22.66c-5.48-2.52-9.58-5.79-11.74-10.21a18.4,18.4,0,0,1-2.08-8.19h0s-8.28,41.57-8.16,79.42,2.37,52.41,0,62.81c0,0,16.22.83,36.54,11.14a33.07,33.07,0,0,1-1.56-10.83c.39-9.86-3.95-19.58-3.95-19.58l21.92,7.25c-1.73,11.31,2.06,24.57,4.18,30.8,15.36,3.77,31.83,4.45,44.25,3.9a47.66,47.66,0,0,1-1.7-17.53c1-14.74-2.52-22.57-2.52-22.57l6.2-3.68A78.78,78.78,0,0,1,349,331.08a67.17,67.17,0,0,0,.84,17.33c7.75-.56,17-1.41,27-2.9a75.83,75.83,0,0,1,.69-16.26C380.66,305,380.44,285,380.66,271.07ZM246.88,258.82s1.74-36.64,6.17-35.28c5.21,1.6,2.4,31.93,11.05,41.92Zm81.48,66c-3.15,12.53-.76,20.36-4.17,20.62s-5.47-7.31-4.18-17.57a65.73,65.73,0,0,0,0-17.67l6.6-1.54S331.51,312.28,328.36,324.81Zm37.22-32.89c-.71,14.62.65,31.85-3.53,32.89s-6-17.23-4.43-33.41,3.54-38.72,8-38.6C371,253,366.3,276.81,365.58,291.92Z"/><path class="cls-5" d="M295.75,314.05l-21.92-7.25s4.34,9.72,3.95,19.58a33.07,33.07,0,0,0,1.56,10.83l1,.51c1.88,1,3.84,1.85,5.84,2.68-1.22-5.54-2.47-14,1.2-14.41,4-.48,2.89,9.19,4.35,16.5,2.67.89,5.41,1.67,8.18,2.36C297.81,338.62,294,325.36,295.75,314.05Z"/><path class="cls-5" d="M349,331.08A78.78,78.78,0,0,0,346.16,305l-6.2,3.68s3.56,7.83,2.52,22.57a47.66,47.66,0,0,0,1.7,17.53c1.38-.06,2.71-.13,4-.22l1.68-.12A67.17,67.17,0,0,1,349,331.08Z"/><path class="cls-5" d="M337.41,213.61a44.07,44.07,0,0,1-.12,14.89c-1.86,11.22-.25,13.83,3.77,11.48s4.5,5,3.22,12.82-.17,19.36,1.88,25.3,6.76,0,6.76,0-4.7-16.33-1.05-28.79c3.29-11.22,4.28-24.7,1.94-33.08-3.23-.71-6.7-1.34-10.51-1.87C341.35,214.09,339.38,213.85,337.41,213.61Z"/><path class="cls-5" d="M365.58,252.8c-4.42-.12-6.4,22.42-8,38.6s.26,34.46,4.43,33.41,2.82-18.27,3.53-32.89C366.3,276.81,371,253,365.58,252.8Z"/><path class="cls-5" d="M387.83,306.8c3.14-17.58,1.8-32.9-2-49.33-3-13-.7-22.47-.61-31.08-2.19-.76-4.33-1.54-6.48-2.34a29.32,29.32,0,0,1-1.21,13.18c-3.36,11,3.37,20,3.14,33.84s0,33.88-3.14,58.18a75.83,75.83,0,0,0-.69,16.26c3.7-.56,7.48-1.21,11.31-2C387.07,334.83,385.67,318.92,387.83,306.8Z"/><path class="cls-5" d="M404.57,244.1C402,250,399,257,397.47,248c-1-5.45-.5-13,0-18-2.23-.52-4.35-1.09-6.4-1.7.05,5.21.37,14.72,1.92,21.89,2.24,10.38,5.15,13.74,5.15,31.56s-3.36,25.11,4.48,32.33,5.57-5.4,5.57-5.4-3.1-3-2.88-19.82-2.89-28.63,1.81-35.63c4-5.92,8.09-13.4,7.78-20.72-3.16-.21-6.11-.52-8.86-.91C406.26,234.83,406.28,240.23,404.57,244.1Z"/><path class="cls-3" d="M530.84,189.17C527.19,172,496.41,157.55,458,154.06c-54.91-5-145.62-3-190.44,12.65,0,0-16.48,4.7-16.54,17.13a18.4,18.4,0,0,0,2.08,8.19c2.16,4.42,6.26,7.69,11.74,10.21a60.64,60.64,0,0,0,9.64,3.35c2.64.7,5.45,1.31,8.4,1.86q3.38.62,7,1.13c14.45,2.08,31.32,3.08,47.62,5,2,.24,3.94.48,5.89.75,3.81.53,7.28,1.16,10.51,1.87,9.89,2.17,17.46,5.06,24.92,7.82,2.15.8,4.29,1.58,6.48,2.34,1.91.66,3.85,1.29,5.86,1.88s4.17,1.18,6.4,1.7c2.68.62,5.52,1.16,8.57,1.6,2.75.39,5.7.7,8.86.91a170.64,170.64,0,0,0,22-.08c50.08-3.15,75.24-7.44,90.28-28.46C530.78,198.92,531.85,193.94,530.84,189.17Z"/><path class="cls-6" d="M216.24,263.1s4.36,25.5,20.24,34.86,25.24,9.92,38.56,15,15.32,4.54,32.9,2,37.15,1.7,43.1-3.68,5.76-26.86,5.09-32.87-33.64-3.85-33.64-3.85Z"/><path class="cls-2" d="M354.75,274.51a4.13,4.13,0,0,1-.19,6.31c-4.22,3.33-14.72,6.92-32.64,5.52-26.85-2.1-39.43-9.65-56.21-9.65s-49.85.13-49.93-16.78c-.07-15.26,27.79-18.9,27.79-18.9s-2.2,10.66,15,16.46,31.57,3.58,54.32,6.33C331,266,347.92,268.36,354.75,274.51Z"/><path class="cls-6" d="M773.81,213.07,808,316.88,797.1,382.3S669,387.15,667.32,386.72s-46.69-124-47.66-131.66S631,234,631,234Z"/><path class="cls-5" d="M669.68,242.74s2.75,13.36-3.21,25.27l-22.32-31.39Z"/><path class="cls-5" d="M675.16,243.54s1.77,5.31,1.45,14.65,1.51,17,4.83,15.29c3.67-1.94-3.38-21.57.64-30.74"/><path class="cls-5" d="M686.91,244s2.42,7.24.65,17.86,2.73,18.35,2.25,31.06l7.73-2.31s-4.67-14.1-4.35-25.18A145,145,0,0,0,692.06,244Z"/><path class="cls-5" d="M706.73,252.31c2.47,0,1.61,11,4.19,20s2.57,10.73,2.57,10.73l-8.44,4.5s-2.12-2.39,0-17.12C706.41,261,703.61,252.29,706.73,252.31Z"/><path class="cls-5" d="M717.2,259.7c-2.75,0-2.41-11.91-3.86-15.13s3.86-11.26,3.86-10.46S721.23,259.72,717.2,259.7Z"/><path class="cls-4" d="M652.18,242.88s12,.9,25,3,31.61,1.21,46.66-6.32,44.78-10.9,50-26.5-18.06-10.84-27.7-12-17.91-.3-26.42,0-83.57,9.36-83.82,23.95S652.18,242.88,652.18,242.88Z"/><path class="cls-6" d="M929.9,355.55c-13-12.65-23.86-27.51-33-41.9h0c-16-7.27-33.12-25.46-45.59-26.63s-7.79,9.35-20.25,9S805.7,264.42,789,260.14s-19.09,17.92-30.39,19.48-14.8-8.19-24.93-10.52c-4.27-1-9.1-.52-13.34.35-4.15,7.51-8,12-14.27,14.4-8.79,3.39-50,21.65-50,21.65s-58.56,37-61,76.51,64.11,66.52,98.33,62.66,67.48,8.68,83.87,6.27,37.6,7.23,57.84,5.3,22.17-5.79,32.78-18.32,16.39-7.71,43.86-7.23,58.12-12.91,62.18-28.47S957.63,382.6,929.9,355.55Z"/><path class="cls-5" d="M733.63,269.1c10.13,2.33,13.63,12.07,24.93,10.52S772.2,255.85,789,260.14,818.56,295.59,831,296s7.79-10.13,20.25-9,29.62,19.36,45.59,26.63h0c-10.45-16.39-18.66-32.16-25.14-43.32-12.17-21-31.11-25-43.29-23.68s-15.55-2.7-23-16.91S792,197.66,773.66,195.92c-24-2.26-41.26,48.7-48,62.91-1.94,4.08-3.66,7.59-5.34,10.62C724.53,268.58,729.36,268.11,733.63,269.1Z"/><path class="cls-5" d="M734,290.64c5.2-.21,2.65,8.32.12,15.65s-4.8,10.85-6.56,24.74a191.29,191.29,0,0,1-4.29,23.22s-21.71-18.43-20.2-21.46,10.35-9.84,13.13-16.41S727.65,290.89,734,290.64Z"/><path class="cls-5" d="M769.76,286.37c4.7-3,1.06,24.24-2.1,33.2s-5.8,23.2-10,23.46,1.85-23.46,5-31.36S766.08,288.74,769.76,286.37Z"/><path class="cls-5" d="M824.58,311.4c1.58-7.49,14.24,1.85,19.24,14.5s8.7,19.28,12.92,28.35-.26,15.14-5.27,6.44S839.65,352,837.76,343C834.16,325.91,823.71,315.56,824.58,311.4Z"/><path class="cls-5" d="M881.92,335.54c5.27-9.17,20.84,16.38,27.16,25.22s12.63,14.53,9.79,20.22-17.41-9.57-22.6-18.68S878.45,341.58,881.92,335.54Z"/><path class="cls-5" d="M858.41,310.24c4.78-2.82,4.56,8.31,9.93,12.2s6.63,13.48,3.79,14.37-7.71-11.34-11.57-15.89C856,315.58,856.78,311.2,858.41,310.24Z"/><path class="cls-7" d="M634.14,545.57c-1.22-8.47,24.38-16.77,31.72-6.88,6.34,8.54-10.51,13.22-15.86,13.22S634.93,551.08,634.14,545.57Z"/><ellipse class="cls-7" cx="583.55" cy="545.1" rx="7.84" ry="4.41"/><ellipse class="cls-7" cx="555.93" cy="528.26" rx="6.48" ry="4.41"/><path class="cls-9" d="M45.58,404.33l-12.75,5.16s16.92,32.7,16,85.22"/><polyline class="cls-9" points="29.23 394.9 32.83 409.49 42.01 388.83"/><path class="cls-9" d="M17.86,407.92c0,.11,15,1.57,15,1.57L13.15,393.14"/><polyline class="cls-9" points="23.21 420.97 32.83 409.49 28.74 381.46"/><ellipse class="cls-10" cx="29.56" cy="391.71" rx="3.2" ry="5.11" transform="translate(-363.1 380.28) rotate(-84.02)"/><ellipse class="cls-10" cx="42.64" cy="385.36" rx="3.53" ry="5.51" transform="translate(-344.18 359.1) rotate(-79.8)"/><ellipse class="cls-10" cx="49.64" cy="403.29" rx="5.11" ry="3.2" transform="translate(-284.72 172.4) rotate(-48.36)"/><ellipse class="cls-10" cx="14.51" cy="408.66" rx="5.11" ry="3.2" transform="translate(-383.94 316.75) rotate(-74.98)"/><ellipse class="cls-10" cx="20.28" cy="422.27" rx="3.2" ry="5.11" transform="translate(-170.11 44.81) rotate(-24.02)"/><ellipse class="cls-10" cx="10.18" cy="391.94" rx="5.11" ry="3.2" transform="translate(-356.96 254.36) rotate(-67.97)"/><ellipse class="cls-10" cx="27.66" cy="378.55" rx="5.11" ry="3.2" transform="translate(-65.47 10.59) rotate(-10.02)"/><path class="cls-6" d="M25.15,435.17s4.41,21.31,21.71,25.8C46.86,461,44.15,444.54,25.15,435.17Z"/><path class="cls-6" d="M80.5,429.7c-.46-1.67.68-8.1.68-8.1"/><polyline class="cls-6" points="86.53 429.31 80.5 429.7 73.27 429.13"/><polyline class="cls-9" points="88.37 411.69 80.5 429.7 96.63 422.33"/><path class="cls-9" d="M74.84,417.74l5.66,12s1.62,25.24-5.66,39.7"/><ellipse class="cls-10" cx="82.29" cy="418.89" rx="4.21" ry="2.62" transform="translate(-92.99 29.64) rotate(-13.13)"/><ellipse class="cls-10" cx="89.64" cy="430.58" rx="2.62" ry="4.21" transform="translate(-208.36 107.12) rotate(-30.89)"/><ellipse class="cls-10" cx="99.2" cy="421.83" rx="2.62" ry="4.21" transform="translate(-79.27 26.95) rotate(-11.09)"/><ellipse class="cls-10" cx="88.6" cy="409.08" rx="2.62" ry="4.21" transform="translate(-326.67 461.5) rotate(-84.97)"/><ellipse class="cls-10" cx="73.49" cy="415.49" rx="4.21" ry="2.62" transform="translate(-202.9 96.68) rotate(-30.89)"/><ellipse class="cls-10" cx="70.71" cy="429.72" rx="2.62" ry="4.21" transform="matrix(0.97, -0.23, 0.23, 0.97, -95.76, 27.29)"/><path class="cls-9" d="M859.06,475.14c-1.91-52.75-29.44-78.64-29.44-78.64l-10.21-9.59"/><polyline class="cls-9" points="828.35 403.17 829.62 396.5 820.68 399.87"/><polyline class="cls-9" points="844.35 389.04 829.62 396.5 840.16 398.96"/><polyline class="cls-9" points="832.39 380.09 829.62 396.5 831.17 393.2"/><ellipse class="cls-10" cx="816.95" cy="384.59" rx="4.87" ry="3.39" transform="translate(-36.45 679.58) rotate(-44.28)"/><ellipse class="cls-10" cx="833.81" cy="376.77" rx="4.88" ry="3.38" transform="translate(-36.59 94.65) rotate(-6.36)"/><ellipse class="cls-10" cx="817.15" cy="401.18" rx="4.8" ry="3.44" transform="translate(215.36 1084.21) rotate(-74.77)"/><ellipse class="cls-10" cx="828.81" cy="406.63" rx="3.41" ry="4.84" transform="translate(283.37 1151.45) rotate(-79.92)"/><ellipse class="cls-10" cx="847.82" cy="388.08" rx="3.47" ry="4.75" transform="translate(-57.02 613.18) rotate(-38.57)"/><ellipse class="cls-10" cx="843.47" cy="399.87" rx="4.81" ry="3.43" transform="translate(193.22 1069.57) rotate(-71.21)"/><ellipse class="cls-10" cx="832.17" cy="389.93" rx="3.42" ry="4.83" transform="translate(258.77 1108.1) rotate(-76.5)"/><path class="cls-2" d="M863.27,419.13s4,17.68-8.81,23.79C854.46,442.92,852.16,428.8,863.27,419.13Z"/><path class="cls-9" d="M906.66,393.27s-16.32,23.23-16.32,66"/><polyline class="cls-9" points="904.35 417.51 897.27 413.38 890.34 412.31"/><path class="cls-9" d="M895.75,399.36c.16.05,1.52,14,1.52,14l12.08-6.73"/><line class="cls-9" x1="885.64" y1="399.36" x2="897.27" y2="413.38"/><path class="cls-10" d="M891.48,395.24c-.27,1.81,1.76,3.62,4.54,4s5.24-.7,5.52-2.51-1.75-3.6-4.52-4S891.75,393.43,891.48,395.24Z"/><ellipse class="cls-10" cx="911.94" cy="405.06" rx="3.05" ry="4.66" transform="translate(1.23 812.88) rotate(-48.07)"/><path class="cls-10" d="M883.46,410.85c.19,1.66,2.41,2.77,4.95,2.48s4.46-1.86,4.27-3.52-2.39-2.75-4.93-2.47S883.28,409.19,883.46,410.85Z"/><ellipse class="cls-10" cx="882.93" cy="396.89" rx="5.09" ry="3.31" transform="translate(310.8 1177.75) rotate(-77.97)"/><ellipse class="cls-10" cx="907.89" cy="390.46" rx="2.99" ry="4.68" transform="translate(148.62 1023.1) rotate(-63.07)"/><ellipse class="cls-10" cx="906.9" cy="419.13" rx="4.55" ry="2.96" transform="translate(90.47 994.97) rotate(-60)"/><path class="cls-5" d="M900.22,436.63s-1.34,11.34-9.42,13.86C890.8,450.49,892,440.44,900.22,436.63Z"/><path class="cls-10" d="M767.93,119.31s-13.9,2.13-11.3,14.26C756.63,133.57,768.72,135.37,767.93,119.31Z"/><path class="cls-9" d="M744.8,134.93s-.78,10.92,3.1,14.76"/><path class="cls-9" d="M742.91,164a24.77,24.77,0,0,0,11.78-3.71"/><path class="cls-9" d="M769.29,165.51s-21.39,13.06-24.55,43.18"/><path class="cls-10" d="M741.07,121.25s-5.21,11,3.78,13.68C744.85,134.93,749.83,127.88,741.07,121.25Z"/><path class="cls-10" d="M764.34,155.06s-8.58-1.92-10,5.41C754.31,160.47,761.13,163.47,764.34,155.06Z"/><path class="cls-9" d="M768,187.1A23.59,23.59,0,0,1,752,185"/><path class="cls-10" d="M769.18,165.56s-1.17-9.77,11-12.42C780.22,153.14,780.22,165.51,769.18,165.56Z"/><path class="cls-10" d="M781.47,183s-10.3-4.65-14.26,4.14C767.21,187.17,776.41,192.51,781.47,183Z"/><path class="cls-9" d="M756.76,133.44s-19.88,25.69-18.53,70.48"/><path class="cls-7" d="M248.93,576.57c-2-7.65,14.6-14.17,21.31-9.88s8.15,13.18.84,13.51S250.22,581.51,248.93,576.57Z"/><path class="cls-7" d="M154.7,571.21c-.45-4.46,6.81-6.65,11.24-4.26s3.41,6,1.54,6.13S155,574.61,154.7,571.21Z"/><path class="cls-9" d="M307.29,249.31s2.09,17.49-2.33,27.5"/><path class="cls-9" d="M322,252.8s-.93,17.7-9.08,26.79"/><path class="cls-9" d="M334.31,259.56a22.71,22.71,0,0,1-15.4,8.84"/><path class="cls-10" d="M307.38,250.16s-7.94-7.45.82-16.88C308.2,233.28,315.54,243.13,307.38,250.16Z"/><path class="cls-10" d="M322,253.2s-6.77-9.1,4.6-18.19C326.61,235,332.77,248.07,322,253.2Z"/><path class="cls-10" d="M333.85,259.82s-1.93-8.64,12.31-10.51C346.16,249.31,345.47,260.33,333.85,259.82Z"/><path class="cls-5" d="M415.13,111.34c-7.31,2.41,5.57,15.87,1.19,45.33-2,13.43-6.14,32.26-.12,33.12s3-13.55,4.95-25.81,5.16-16.13,4.09-30S419,110.06,415.13,111.34Z"/><path class="cls-5" d="M400.72,170.8c8.17-16.4,6.24-28.75,6.11-42.09s0-34.19,0-34.19l-6.1,1.07s-1.52,8.18-1.09,21.72,1.79,38.44-2.34,38.28-2.24-8.47-4.18-29c-2.08-21.93-4.66-31-4.66-31L382,96.88s3.5,11.36,5.59,37.11c2.62,32.27-1.59,57.94-1.18,68.46,2.6,0,5.25,0,7.93-.06C394.28,195.46,395,182.26,400.72,170.8Z"/><path class="cls-5" d="M365.37,167.56c-1.43-23.71-11.47-31.19-.94-74.22l-7.53-2s2.31,23.55-3.16,23.8S349.44,91,349.44,91h-4.63s-2.62,10.36,3.79,32.65-2.33,33.67-3.79,47.15c-.8,7.35-.16,17,.59,24.17,6.87,2.12,12.93,4.08,18,5.26A156.63,156.63,0,0,0,365.37,167.56Z"/><path class="cls-5" d="M371.31,122.54c-4.76.62-3.79,10.21,0,21.71s-2.68,35.15,2.85,35.26c4.6.1,4.27-17.84,5.46-30.41C381.16,132.76,376.2,121.91,371.31,122.54Z"/><path class="cls-5" d="M288.3,103.54c2.91,5.51,1.24,17.65,5.59,17.65s.82-23.13,4.33-32.63L286.81,88S283.83,95.09,288.3,103.54Z"/><path class="cls-5" d="M306,112.37c-3.71,1.66-2.12,11.55-3.77,22.92s.13,17.35,4.48,18c4.62.71,6.6-8.64,6.6-21.44S310.09,110.52,306,112.37Z"/><path class="cls-5" d="M329.31,104.6c-5.39.56-1.43,19-.57,34.42S328,170.77,332,170.8s6.63-10.71,5.49-30.06S333.2,104.2,329.31,104.6Z"/><path class="cls-5" d="M304.7,169.2c-6.07-4.52-5.51-24.86-10.8-24.95s-.17,13.2-4.17,13.07-2.63-18.3-6.3-18.8c-4.21-.59-5.69,10.58-7.64,18.8-1.91,8-3.77,18.08-4.74,23.52,4.59,2.6,12.68,5.12,26.86,5.27,3.84,0,7.59.29,11.26.68C307.74,180,308.66,172.15,304.7,169.2Z"/><path class="cls-8" d="M306,112.37c-3.71,1.66-2.12,11.55-3.76,22.92s.12,17.35,4.47,18c4.62.71,6.6-8.64,6.6-21.44S310.09,110.52,306,112.37Z"/><path class="cls-8" d="M329.31,104.6c-5.39.56-1.43,19-.57,34.42S328,170.77,332,170.8s6.63-10.71,5.49-30.06S333.2,104.2,329.31,104.6Z"/><path class="cls-8" d="M288.3,103.54c2.91,5.51,1.24,17.65,5.59,17.65s.82-23.13,4.33-32.63L286.81,88S283.83,95.09,288.3,103.54Z"/><path class="cls-8" d="M371.31,122.54c-4.76.62-3.79,10.21,0,21.71s-2.68,35.15,2.85,35.26c4.6.1,4.27-17.84,5.46-30.41C381.16,132.76,376.2,121.91,371.31,122.54Z"/><path class="cls-8" d="M415.13,111.34c-7.31,2.41,5.57,15.87,1.19,45.33-2,13.43-6.14,32.26-.12,33.12s3-13.55,4.95-25.81,5.16-16.13,4.09-30S419,110.06,415.13,111.34Z"/><path class="cls-5" d="M430.61,111.9c-1.15,9.25,1.79,8.51,5.11,4.36,4.44-5.54,2.85,9,3.8,21.22S440,175.79,445,174.6c4.8-1.14-2.61-34.84,3.94-48.23-.71-1.75-1.39-3.67-2-5.86-3.49-11.73-3-31.62-4.69-40.48l-7.38.3-7.17,13S431.6,103.88,430.61,111.9Z"/><path class="cls-6" d="M457.64,148.08c-2.32-9.79-5.68-14.13-8.73-21.71-6.55,13.39.86,47.09-3.94,48.23-5,1.19-4.51-24.9-5.45-37.12s.64-26.76-3.8-21.22c-3.32,4.15-6.26,4.89-5.11-4.36,1-8-3-18.56-3-18.56l7.17-13c-13.77.55-39.91,1.52-39.91,1.52L299.5,79,282,82.34a176.86,176.86,0,0,0-1.51,20.74c0,9.82-2.84,25.42-6.44,35.28-4.11,11.27-8.54,23-8.86,36.66,0,0,.82,3,5.87,5.82,1-5.44,2.83-15.52,4.74-23.52,1.95-8.22,3.43-19.39,7.64-18.8,3.67.5,2.3,18.67,6.3,18.8s-1.12-13.15,4.17-13.07,4.73,20.43,10.8,24.95c4,3,3,10.81,4.47,17.59,13.53,1.45,25.8,5,36.23,8.18-.75-7.21-1.39-16.82-.59-24.17,1.46-13.48,10.2-24.87,3.79-47.15S344.81,91,344.81,91h4.63s-1.17,24.35,4.3,24.09,3.16-23.8,3.16-23.8l7.53,2c-10.53,43-.49,50.51.94,74.22a156.63,156.63,0,0,1-1.95,32.67c1.36.31,2.68.59,3.9.78a148.1,148.1,0,0,0,19.1,1.44c-.41-10.52,3.8-36.19,1.18-68.46C385.51,108.24,382,96.88,382,96.88l6.45-1.29s2.58,9,4.66,31c1.94,20.56.07,28.88,4.18,29s2.77-24.73,2.34-38.28,1.09-21.72,1.09-21.72l6.1-1.07s-.12,20.86,0,34.19,2.06,25.69-6.11,42.09c-5.71,11.46-6.44,24.66-6.37,31.59C406,202,418,200.31,426,196.25c14.89-7.6,13-10.14,23.45-13.94s14-8.56,14.26-13.95S460.49,160.12,457.64,148.08ZM293.89,121.19c-4.35,0-2.68-12.14-5.59-17.65C283.83,95.09,286.81,88,286.81,88l11.41.55C294.71,98.06,298.24,121.19,293.89,121.19Zm12.79,32.13c-4.35-.68-6.12-6.66-4.47-18s.05-21.26,3.76-22.92c4.12-1.85,7.31,6.71,7.31,19.51S311.3,154,306.68,153.32ZM332,170.8c-4,0-2.39-16.38-3.26-31.78s-4.82-33.86.57-34.42c3.89-.4,7,16.79,8.18,36.14S336,170.84,332,170.8Zm47.62-21.7c-1.19,12.57-.86,30.51-5.46,30.41-5.53-.11.95-23.75-2.85-35.26s-4.76-21.09,0-21.71S381.16,132.76,379.62,149.1ZM421.15,164c-1.94,12.26,1.07,26.67-4.95,25.81s-1.88-19.69.12-33.12c4.38-29.46-8.5-42.92-1.19-45.33,3.89-1.28,9,8.79,10.11,22.65S423.08,151.72,421.15,164Z"/><path class="cls-2" d="M297.91,70.12s-17.43,4.75-15.84,13.94,15.84,5.07,24.4,9.51,18.38-1.27,37.4,0,24.72,5.07,39.3,5.71,37.71,1.26,51-7,8.56-19-2.22-19-33.87.63-42.92,0S319.15,64.1,297.91,70.12Z"/><path class="cls-6" d="M296.47,62.53s-1.36,7.52,1.49,10.36,10.2,4.85,21.4,4.52,35.79,2.68,53.19,7.86,24.92,3.51,24.75,0S392.45,73.44,393.12,68l-78.77-10.3Z"/><ellipse class="cls-7" cx="411.56" cy="82.88" rx="4.73" ry="3.31"/><ellipse class="cls-7" cx="427.63" cy="85.31" rx="5.04" ry="3.25"/><path class="cls-4" d="M296.62,64c-2.13-10.66,25.59-15.89,34.28-16.56s26.26-1,37.3,4.52,21.41,8.86,24.08,13.38-1,8.7-12.21,10-38.13-4.68-53-4.51S298.12,71.56,296.62,64Z"/><path class="cls-7" d="M339.62,53.1c1.06-3,8.29-1.61,9.66,2s-6,2.5-8,1.37A3,3,0,0,1,339.62,53.1Z"/><path class="cls-7" d="M350.75,64.87c-2-3,2.86-8.39,8.55-8.09,5.31.27,10.3,6.21,8.67,9.07S352,66.79,350.75,64.87Z"/><path class="cls-8" d="M700,166.53l-8.22,2.15s-1.23,5.55,2.9,12.1c3,4.82.22,17.4,4.8,17.42,3.81,0,2.16-15.91,0-21.7A11.69,11.69,0,0,1,700,166.53Z"/><path class="cls-8" d="M686.7,168.68l-15.57,5.55s4.78,5.6,7.29,16.27,4.43,21.34,8.1,21.17-2.8-12.77,0-13.3,3.5,9.39,7.17,8-4-13.27-6.29-22.54S686.7,168.68,686.7,168.68Z"/><path class="cls-8" d="M719.75,181.35c-5.33-.28,2.45,28.44,6.4,26S723,181.51,719.75,181.35Z"/><path class="cls-6" d="M730.71,184.28c0-13-2.86-24.8-4.68-28.72s-35.19,2.84-35.19,2.84l-71.18,3.73,5,45.33s10.51,17.3,11.17,17.52,11.6,9,11.6,9,1.29-4.5,13.73-7.49c-5.46-7.11-10.11-22.52-7.7-34.17,3-14.65,0-21.5,0-21.5l11.43,1.74a113.19,113.19,0,0,1,2.39,16.92c.67,9.77,5.78,15.22,7.6,27.37a46,46,0,0,0,1.58,7.24c14.91-1.88,21.48-2.43,29.89-2.81,3.49-.16,6.86,0,10.08.09a107.85,107.85,0,0,0-3.83-10.41c-3.71-8.85-7.61-22.26-4.07-23.29,3.18-.92,2.67,11,7.76,21a128.28,128.28,0,0,1,5.61,12.55A19.57,19.57,0,0,0,732,218c7.23-5,7.23-8.55,7.23-8.55S730.71,197.28,730.71,184.28Zm-37,22.11c-3.67,1.37-4.37-8.54-7.17-8s3.67,13.12,0,13.3-5.6-10.5-8.1-21.17-7.29-16.27-7.29-16.27l15.57-5.55s-1.58,5.9.7,15.17S697.37,205,693.69,206.39Zm5.78-8.19c-4.58,0-1.76-12.6-4.8-17.42-4.13-6.55-2.9-12.1-2.9-12.1l8.22-2.15a11.69,11.69,0,0,0-.52,10C701.63,182.29,703.28,198.21,699.47,198.2Zm26.68,9.18c-3.95,2.41-11.73-26.31-6.4-26C723,181.51,730.1,205,726.15,207.38Z"/><path class="cls-9" d="M679.45,228.42h0Z"/><path class="cls-9" d="M659.82,187.65c-3.3-.55-2,8.2.51,14,2.2,5.14,2.72,13.86,5.73,13.94,2.73.08,2.05-8.4-.45-13.29S663.18,188.22,659.82,187.65Z"/><path class="cls-5" d="M667.32,189.46a113.19,113.19,0,0,0-2.39-16.92L653.5,170.8s3,6.85,0,21.5c-2.41,11.65,2.24,27.06,7.7,34.17a78.58,78.58,0,0,1,8.18-1.49l7.12-.91a46,46,0,0,1-1.58-7.24C673.1,204.68,668,199.23,667.32,189.46Zm-1.26,26.12c-3-.08-3.53-8.8-5.73-13.94-2.48-5.79-3.81-14.54-.51-14s3.29,9.76,5.79,14.64S668.79,215.66,666.06,215.58Z"/><path class="cls-5" d="M719.75,181.35c-5.33-.28,2.45,28.44,6.4,26S723,181.51,719.75,181.35Z"/><path class="cls-5" d="M708.57,187.65c-3.54,1,.36,14.44,4.07,23.29a107.85,107.85,0,0,1,3.83,10.41c1.88,0,3.7,0,5.47-.11a128.28,128.28,0,0,0-5.61-12.55C711.24,198.7,711.75,186.73,708.57,187.65Z"/><path class="cls-6" d="M659.82,187.65c-3.3-.55-2,8.2.51,14,2.2,5.14,2.72,13.86,5.73,13.94,2.73.08,2.05-8.4-.45-13.29S663.18,188.22,659.82,187.65Z"/><path class="cls-5" d="M686.7,168.68l-15.57,5.55s4.78,5.6,7.29,16.27,4.43,21.34,8.1,21.17-2.8-12.77,0-13.3,3.5,9.39,7.17,8-4-13.27-6.29-22.54S686.7,168.68,686.7,168.68Z"/><path class="cls-5" d="M700,166.53l-8.22,2.15s-1.23,5.55,2.9,12.1c3,4.82.22,17.4,4.8,17.42,3.81,0,2.16-15.91,0-21.7A11.69,11.69,0,0,1,700,166.53Z"/><path class="cls-2" d="M724.22,151.63c-4.88-5.12-8.94-6.33-17.47-6.33-7.36,0-26.47,4.22-35,1.71,1.93.68,6.54,2.68,5.38,6.13-1.45,4.34-17.88,4.93-29.33,4s-26.11-4.48-32.23-1.34c-4.62,2.37-11.55-10.72-14.67-17.29-5.51-.33-9.8-.38-11.14.3-4.06,2-13.81,11.77-5.69,22.74s9.61,19.38,25.72,19.23c0,0,22.57-11,41.84-6.6s23.41.41,33.16-2.86,24,3.63,31.27-2.46S729.09,156.75,724.22,151.63Z"/><path class="cls-6" d="M671.15,146.81l-.2-.09v0Z"/><path class="cls-6" d="M671.15,146.81l.63.2Z"/><path class="cls-6" d="M677.32,151.74a32,32,0,0,0,.94,6.57,4,4,0,0,1-2.64,4.94,25.26,25.26,0,0,1-9,.74c-10.21-.7-15.39,1.52-24,1.52S620.88,164,620.88,164l-7.4-12.69,30.63-1.61Z"/><path class="cls-2" d="M615.6,155.79c6.12-3.14,20.79.4,32.23,1.34s27.88.35,29.33-4c1.16-3.45-3.45-5.45-5.38-6.13l-.63-.2-.2-.06v0a6.31,6.31,0,0,1-2.34-1.42c-5.31-5.69-22.78-5.06-33.34-4.56-7.06.33-23.2-1.56-34.34-2.24C604.05,145.07,611,158.16,615.6,155.79Z"/><path class="cls-3" d="M570.51,104.61c-1-10,11.54-9.9,14.1-8.61,0,0-5.56-41.29,30.18-34.88a25,25,0,0,1,24.7-11.54c17.18,2.05,23.4,18,14,36.93,0,0,18-3.34,18.3,7.69s-28.27,12.57-45.13,13.59C604.17,109.16,571.71,116.62,570.51,104.61Z"/><path class="cls-5" d="M606.69,81.25c6.07-1.48,1.93,17.06,3.86,22.21s7.12-.75,11-6.69,7.8-14.3,10.77-12.57c3.94,2.3-.83,12-13.83,23.08S606.69,145,606.69,145l-10.79-2.06s7.72-15.57,9.38-31.39C607,95,603.38,82.06,606.69,81.25Z"/><path class="cls-4" d="M624,126.19c-.78-6.7,9.3-10.39,14.77-9.57,0,0,1.83-20.08,25.09-24.7S696,105.36,696,105.36s12-4.84,19.39,2c7.07,6.53,3,13.4,3,13.4s14.22-.19,15,6.65-20.79,4.57-28.18,4.57-49.23.67-62.09.06S624.54,131.15,624,126.19Z"/><ellipse class="cls-7" cx="702.21" cy="155.79" rx="6.25" ry="4.49"/><ellipse class="cls-7" cx="715.44" cy="160.01" rx="2.76" ry="1.86"/><path class="cls-9" d="M317.42,143.62s1.84,41.78,6.12,56.88"/><path class="cls-10" d="M317.48,144.25s-10.24-4.11-4.59-17.93C312.89,126.32,323.54,136,317.48,144.25Z"/><path class="cls-6" d="M328.74,153.32s-.35,16-8.26,26.29"/><path class="cls-9" d="M296.57,162.51s1.84,24.27,14.16,34"/><path class="cls-9" d="M293.63,174.64a13.61,13.61,0,0,0,6.92,6"/><path class="cls-9" d="M354.85,180.67a36.37,36.37,0,0,1-12.5,24.67"/><path class="cls-9" d="M341.06,167.29s-1.1,22.24-7.54,37"/><path class="cls-10" d="M296.69,163.07s-7.76-3.3-3.06-16.95C293.63,146.12,301.43,156.18,296.69,163.07Z"/><path class="cls-10" d="M293.84,174.92s-9,.68-8.23-11.46C285.61,163.46,294.72,166.46,293.84,174.92Z"/><path class="cls-10" d="M328.62,154s-4.59-6.44,2.75-15C331.37,139,336.26,149.48,328.62,154Z"/><path class="cls-10" d="M354.86,181.07s-7.68-4.29-2.72-15.06C352.14,166,361,172.8,354.86,181.07Z"/><path class="cls-10" d="M340.94,167.91s-8-5,.39-16.28C341.33,151.63,348.6,162.51,340.94,167.91Z"/><path class="cls-6" d="M858.83,490.84c-1.94-4.14-20.68-19.47-28.71-24.34S791,434.22,779.6,415s-36.47-48.78-52-63.92-33.78-37.41-44.17-59.76c-4.69-10.08-10.43-20.06-16.14-30.45h0c-15.26-1.24-31.81-43.86-44.23-39.29s5.23,41.19-14.38,43.8-37.92-53-58.84-53-28.76,42.49-44.45,42.49-9.5-36.64-25.5-44.45c-12.11-5.91-39.14,15.37-39.14,15.37-11.95,21.31-22.87,30.66-26.5,45.21s-7,36.33-21.31,56.65c-19.89,28.24-42.09,46.77-59.76,72.23s-28.06,45.21-35.34,65-1.56,27.54,13,31.18c14.16,3.54,49.46,13.47,72.42,22.14,2.64-8.5,11.81-19.88,21.28-32.08,14-18,11.53-15.77,19-34.21S438,418.2,448.37,401c8.94-14.84,24.62-41.07,29.57-40.15,4.51.85-.36,24.6-5.66,43.69s-2.12,24.34-9.19,44.86-22.61,59.39-26.5,75.64a45.4,45.4,0,0,1-3.89,10.82c14.47,5.48,41.52,15.56,60.85,21.77,27.59,8.87,33.5,11.82,31.53-12.81-1-12.64,2.24-31.49,6.91-49.24,4.44-16.83,10.16-32.67,14.76-41.31,5.18-9.71,7.88-16.05,13.24-21.35,4.43-4.4,10.67-8.08,21.66-12.37,24.26-9.47,27.81-26,43.19-27.8,9-1.05,17.26-.45,27.3,8.26,7.05,6.11,15,16.21,24.76,32.55,23.66,39.64,33.72,75.13,65.07,85.78,22.91,7.78,40.13,5.14,55.13,1.3,5.53-1.41,10.76-3,15.86-4.26,18.93-4.73,27.14-3.35,32-5.78S860.78,495,858.83,490.84Z"/><path class="cls-5" d="M638.14,291.9c3.58-7.16,23.73,17.68,35.36,38.15s19.54,27.92,24.2,40,3.72,17.68-7,5.12-21.87-21.41-34-30.25-13-16.9-15.58-28.92S634.88,298.41,638.14,291.9Z"/><path class="cls-5" d="M360.58,449.32c3.28.95,21.54-28.4,35.69-41s19.7-21.89,26.47-45.85,12.69-38.12,18-58.43,12.73-28.31,7.19-31.38-9.23,11.07-14.15,20.92-15.39,28.47-16.62,41.93-19.7,25.77-25.85,39.31-10.12,21.14-16.75,37-9.31,9.74-12.88,25C360.17,443.48,357.57,448.46,360.58,449.32Z"/><path class="cls-5" d="M529.57,266.64c6.12,1.91-.41,16.35-2.45,27.37S523,315.14,517.32,314s-4.08-15.46,0-29.34S523.92,264.88,529.57,266.64Z"/><path class="cls-5" d="M463.09,449.35c7.07-20.52,3.89-25.78,9.19-44.86s10.17-42.84,5.66-43.69c-4.95-.92-20.63,25.31-29.57,40.15-10.39,17.25-17.43,32.52-24.85,51s-4.95,16.19-19,34.21c-9.47,12.2-18.64,23.58-21.28,32.08l1.89.72c22.87,8.84,37.44,13,37.44,13s3.9,1.51,10.09,3.85A45.4,45.4,0,0,0,436.59,525C440.48,508.74,456,469.86,463.09,449.35Z"/><path class="cls-5" d="M547.38,282.16c8,1.15-5.13,42.32-7.48,54.31-2.56,13.07-13.21,28.22-15.45,41.93s-9.23,28.42-12.47,25.18,2.74-8.54,2.49-16.86,2.35-27.77,8.41-35.49,10.79-18.7,12.79-31.17S542.15,281.42,547.38,282.16Z"/><path class="cls-5" d="M743.42,408.31c5.45-3.19,25,22.35,35.05,35.93s27,27.61,29.51,37.69-3.65,7-10.88,0c-4.84-4.7-11.94-7.62-19.92-13a58.48,58.48,0,0,1-17.29-18.24C747.55,430.33,738.76,411,743.42,408.31Z"/><path class="cls-5" d="M709.61,404.77c4.46-5.42,13.82,8.82,15.65,11.65s2.16,6.16,0,8.32-7.12-1.41-12.32-9.81C709.53,409.42,707.91,406.84,709.61,404.77Z"/><path class="cls-6" d="M644.15,414.46c0,29.89-51.37,67.77-86.93,21.52"/><path class="cls-6" d="M541,467.14s43,8.81,60.86-21.37"/><path class="cls-6" d="M655.11,432.78s3.54,23.71,24.64,50.85"/><path class="cls-6" d="M648.7,471.57s4.63,14.28,12.81,23.76"/><path class="cls-6" d="M641,448.21a84.8,84.8,0,0,0,3.19,11.53"/><path class="cls-6" d="M607.61,445.77c0,14,12.81,27.19,12,37.68"/><path class="cls-6" d="M628.65,464.61c-1.86,7.6,6.39,11,5.41,23.78"/><path class="cls-6" d="M685.69,492.9s3,5.29,5.49,7.12"/><path class="cls-5" d="M549.87,212.42c20.92,0,39.23,55.57,58.84,53s2-39.22,14.38-43.8,29,38.05,44.23,39.29h0c-6.94-12.65-13.83-25.91-18.68-40.74-8.83-27-16-52.32-29.62-67-23.12-25-34-14.82-48.68-25-13.49-9.34-12-29.14-20.35-41.57-9.71-14.44-24.87-14.21-35.94,3.16-8.14,12.78-29.1,51.45-36.38,73.79s-24.94,41.06-36.89,62.36c0,0,27-21.28,39.14-15.37,16,7.81,9.81,44.45,25.5,44.45S529,212.42,549.87,212.42Z"/><path class="cls-2" d="M742,519.29c-31.35-10.65-41.41-46.14-65.07-85.78-9.76-16.34-17.71-26.44-24.76-32.55-10-8.71-18.26-9.31-27.3-8.27-15.38,1.78-18.93,18.34-43.19,27.81-11,4.29-17.23,8-21.66,12.37-5.36,5.3-8.06,11.64-13.24,21.35-4.6,8.64-10.32,24.48-14.76,41.31a95.39,95.39,0,0,0,37.43,17.68c33.25,7.73,43.31-6.19,78.88-6.19s65.74,10.05,81.21,22.43,67.58-8.85,67.59-8.86C782.1,524.43,764.88,527.07,742,519.29Z"/><path class="cls-5" d="M564.66,439.2c.46,5.07,1,12.1,5.3,12,4.59-.11.1-17.6,6.93-20,5.77-2,7.41,8.18,12,8s2.2-15.56,6.59-15.56.82,15.52,3.19,20.15c2,3.94,5.58,2,5.78-6.88s2.15-22.42,8.18-24.24c7.2-2.17,11.92,7.59,11.38,28.93-.52,20.24,9,24.33,9.17,8.57s-.07-43.4,7.11-42.82c3.86.31,2.28,9.61,6.42,10.09s5.69-12.54,5.43-16.45c-10-8.71-18.26-9.31-27.3-8.26-15.38,1.77-18.93,18.33-43.19,27.8-11,4.29-17.23,8-21.66,12.37h0S564.19,433.88,564.66,439.2Z"/><path class="cls-3" d="M391.11,484.67a11.9,11.9,0,0,0,.07-1.34A13.21,13.21,0,0,0,378,470.12a12.82,12.82,0,0,0-3.41.47,13.19,13.19,0,0,0-23.5-7.39,10.8,10.8,0,0,0-8.77-5c-6.41,0-11.6,6.45-11.6,14.4S335.88,487,342.29,487a7.89,7.89,0,0,0,.84,0,13.18,13.18,0,0,0,12.37,17.81,13,13,0,0,0,3.82-.57,14.58,14.58,0,0,0-.13,1.76A13.21,13.21,0,0,0,385,510a13.05,13.05,0,0,0,5.06,1,13.2,13.2,0,0,0,1.08-26.36Z"/><path class="cls-9" d="M362.19,484.23s6.88-3.36,6.9,5.57c0,0,4.83.08,3.72,5.43"/><path class="cls-4" d="M811.28,534a10.56,10.56,0,0,0-4.19-8.39,10.55,10.55,0,0,0-7.25-15.7,10.61,10.61,0,0,0-9.78-14.72,10.87,10.87,0,0,0-1.28.12,11.05,11.05,0,0,0,.13-1.29,10.61,10.61,0,0,0-10.61-10.61,9.81,9.81,0,0,0-1.34.13c0-.05,0-.09,0-.13a10.58,10.58,0,0,0-20.66-3.26,10.51,10.51,0,0,0-14.9,12.08,10.54,10.54,0,0,0-5.71,18.91,10.5,10.5,0,0,0-8.83,15.32,10.58,10.58,0,0,0-7,10c0,5.86,4.83,9.6,10.61,10.61,18.67,3.25,48.6,2.86,72.21-2.6C808.54,543.09,811.28,539.21,811.28,534Z"/><path class="cls-9" d="M771.64,503.31s8.54-1,7.38,7.66c0,0,8.08-1.79,9,4.63.75,5-5,7.85-5,7.85"/><path class="cls-5" d="M651.53,119.31c3.31-.47,2.88,12.26,7.51,13,3.88.62,12.74-15.46,16.09-13,2.81,2.07-9.66,12-13.41,17.18s-7.27,15.6-10.16,13.2c-2.35-1.95,4.58-9.46,2.62-15.07C652,128.32,648.38,119.75,651.53,119.31Z"/><ellipse class="cls-7" cx="665.91" cy="151.71" rx="3.77" ry="2.03"/><ellipse class="cls-7" cx="657.6" cy="148.89" rx="1.6" ry="0.8"/><ellipse class="cls-7" cx="330.41" cy="278.1" rx="3.62" ry="6.23" transform="matrix(0.5, -0.87, 0.87, 0.5, -75.63, 425.2)"/><ellipse class="cls-7" cx="246.88" cy="266.2" rx="2.86" ry="4.08" transform="translate(-71.31 441.03) rotate(-75.94)"/><ellipse class="cls-7" cx="232.5" cy="258.82" rx="6.59" ry="4.24"/><path class="cls-5" d="M207.23,414.28a4,4,0,0,0-.38-1.15,1.88,1.88,0,0,0-.63-.73,2.53,2.53,0,0,0-1.49-.51c-1.16,0-2.37.95-4.08,2.85-.73.81-1.56,1.8-2.51,3s-2,2.5-3.29,4a87.2,87.2,0,0,0-5.62,7.92c-1,1.57-2.06,3.25-3.1,5-2.62,4.31-5.28,8.95-7.67,13.22-1,1.71-1.86,3.36-2.71,4.91-1.27,2.32-2.4,4.41-3.32,6.12-4.91,9.11-2.1,7.36-7,20.86a46.89,46.89,0,0,1-2.23,5.11c-.86,1.72-1.83,3.45-2.86,5.19s-2.15,3.48-3.29,5.22c-1.71,2.61-3.5,5.22-5.24,7.81-4.06,6-7.86,11.95-9.85,17.47a68.34,68.34,0,0,0-3.16,13.16c-.21,1.43-.38,2.81-.51,4.12-.11,1-.19,2-.26,3-.14,1.86-.21,3.49-.25,4.77,11.13,2.13,23.53,2,34.22,1.63a54.89,54.89,0,0,1,14.34,1.35,60.66,60.66,0,0,0,3.17-6c.66-1.42,1.3-2.89,1.91-4.38.15-.37.29-.75.44-1.12.26-.66.52-1.31.77-2,1.16-3.09,2.18-6.17,3-8.95.56-1.86,1-3.59,1.45-5.1s.72-2.82.94-3.84c.1-.44.19-.91.27-1.4a129.57,129.57,0,0,0,1.14-12.94c.32-5.54.61-11.34,1.29-15.9.18-1.14.33-2.25.47-3.33a77.51,77.51,0,0,0,.77-12.25,63.2,63.2,0,0,0-.93-9.36,33.37,33.37,0,0,1-.41-3.52c-.09-1.23-.13-2.52-.12-3.83,0-.66,0-1.33,0-2,0-1.35.13-2.71.25-4.08s.27-2.73.45-4.07c.36-2.68.84-5.27,1.38-7.59.13-.58.27-1.14.41-1.68.29-1.09.58-2.1.89-3A79.86,79.86,0,0,0,207,420.26,18.3,18.3,0,0,0,207.23,414.28Z"/><path class="cls-6" d="M370.84,521.81a60.07,60.07,0,0,0-4.13-7.21c-9.37-14.49-28.62-37.61-33.51-45.89-4.77-8.07-11.49-30.4-18-44.26-.24-.53-.49-1-.73-1.53a12.11,12.11,0,0,1-.9.87C307,429.69,299.3,421.34,291,410c-9.35-12.75-11.79.25-15.28,1.86-5.48,2.52-12.61-9.17-16.1-21.5s-7.68-20.48-12-20.48-8.5,8.84-12.69,20.94-10.24,11.87-14.51,5.35-3.41-18.15-16.68-17.92c-8.56.15-16.51,4.75-21.1,8a43.12,43.12,0,0,0-2.25,6c-2.33,8.18-9.44,23.35-17.49,36.19a102.57,102.57,0,0,1-11.8,15.82c-12,12.53-9.35,17.46-25.56,44.26-8.08,13.37-12,23.17-13.85,29.64A18.52,18.52,0,0,0,111,523a17.66,17.66,0,0,0,6.62,14.15c5.45,4.34,12.49,6.87,20.12,8.34,0-1.28.11-2.91.25-4.77.07-.93.15-1.93.26-3,.13-1.31.3-2.69.51-4.12A68.34,68.34,0,0,1,142,520.51c2-5.52,5.79-11.43,9.85-17.47,1.74-2.59,3.53-5.2,5.24-7.81,1.14-1.74,2.25-3.48,3.29-5.22s2-3.47,2.86-5.19a46.89,46.89,0,0,0,2.23-5.11c4.91-13.5,2.1-11.75,7-20.86.92-1.71,2-3.8,3.32-6.12.85-1.55,1.76-3.2,2.71-4.91,2.39-4.27,5-8.91,7.67-13.22,1-1.72,2.09-3.4,3.1-5a87.2,87.2,0,0,1,5.62-7.92c1.25-1.51,2.33-2.85,3.29-4s1.78-2.15,2.51-3c1.71-1.9,2.92-2.85,4.08-2.85a2.53,2.53,0,0,1,1.49.51,1.88,1.88,0,0,1,.63.73,4,4,0,0,1,.38,1.15,18.3,18.3,0,0,1-.21,6,79.86,79.86,0,0,1-3.08,11.94c-.31.91-.6,1.92-.89,3-.14.54-.28,1.1-.41,1.68-.54,2.32-1,4.91-1.38,7.59-.18,1.34-.33,2.71-.45,4.07s-.21,2.73-.25,4.08c0,.67,0,1.34,0,2,0,1.31,0,2.6.12,3.83a33.37,33.37,0,0,0,.41,3.52,63.2,63.2,0,0,1,.93,9.36,77.51,77.51,0,0,1-.77,12.25c-.14,1.08-.29,2.19-.47,3.33-.68,4.56-1,10.36-1.29,15.9a129.57,129.57,0,0,1-1.14,12.94c-.08.49-.17,1-.27,1.4-.22,1-.54,2.32-.94,3.84s-.89,3.24-1.45,5.1c-.85,2.78-1.87,5.86-3,8.95-.25.66-.51,1.31-.77,2-.15.37-.29.75-.44,1.12-.61,1.49-1.25,3-1.91,4.38a60.66,60.66,0,0,1-3.17,6c13.24,3.07,21.27,10.36,26.77,12.84,7.26,3.28,14.59,5.83,29.2-4S275,550.79,298,550.79c11.25,0,24.34-.44,36.26-1.23a14.79,14.79,0,0,1-.38-1.46,33.88,33.88,0,0,1-.55-5.17c-.09-1.89-.11-3.92-.15-6,0-1.41-.08-2.85-.16-4.31s-.21-2.93-.4-4.4c-.1-.74-.21-1.47-.35-2.2a29.87,29.87,0,0,0-2-6.7c-.26-.58-.53-1.17-.84-1.73-2.48-4.59-4.53-9.21-6.42-13.61q-1.18-2.76-2.32-5.39c-.76-1.75-1.52-3.45-2.29-5.08a65.91,65.91,0,0,0-3.68-6.81q-.66-1-1.35-2c-1.28-1.77-2.74-4-4.17-6.47-.47-.82-.95-1.66-1.41-2.51-.37-.68-.73-1.37-1.08-2.06-.7-1.37-1.35-2.76-1.93-4.12-1.45-3.38-2.41-6.55-2.39-8.86a4.66,4.66,0,0,1,.53-2.3,2.48,2.48,0,0,1,.68-.76,2.16,2.16,0,0,1,1.29-.48,3.44,3.44,0,0,1,2.41,1.65c.26.34.53.73.8,1.15s.55.87.83,1.36c.56,1,1.15,2.05,1.78,3.17s1.32,2.3,2.06,3.45c.56.86,1.15,1.72,1.79,2.53.21.28.43.54.65.81a16.17,16.17,0,0,0,5.55,4.39,33.19,33.19,0,0,1,10.64,8.11,97,97,0,0,1,8.89,11.52c3.1,4.58,6.39,9.88,10,15.94,1.08,1.77,2.08,3.49,3,5.15,6.2,10.91,9.73,19.57,10.43,25.6a14.91,14.91,0,0,1-.05,4.25l.53-.12C377,543.14,376.44,534.13,370.84,521.81ZM232.32,462.49c-2,3.18-2.58,3.86-2.78,9.08s-1.19,11-4.57,10.59-6.16-10.73-3.38-21.85,7.68-27.66,11.5-27.34C236.72,433.28,234.3,459.32,232.32,462.49Zm33.6,78.24c-3.29,2-4.17-5-5.5-12.5a53.72,53.72,0,0,0-2.51-10c-3.54-8.75-6.89-14.52-5.87-24.75s-1.64-17,1-17.79c2.92-.89,2.63,6.8,5.23,10.9s7,7.07,5.82,24.2a57.42,57.42,0,0,0,1.47,16.8C267.12,534.55,268.86,538.92,265.92,540.73ZM273,474.89c-5.48,3-11.84-18.51-15.67-27s-6.51-38.82-1.55-39.51c6-.85,7.36,16.41,12,30.92S278.44,471.88,273,474.89Zm16.14-33.13c-2.78-3.1-6.35-11.24-4.56-13.62,2.44-3.26,9.13,3.18,9.13,9.93S291.89,444.86,289.11,441.76Z"/><path class="cls-5" d="M311,416.73c-.91-1.3-1.77-2.64-2.58-4-6-9.94-9.41-20.51-10.19-26a17,17,0,0,0-.38-1.79c-1.37-5-5.09-6.88-8.81-4-6.27,4.76-10.72,1.71-12.84-2-1.49-2.6-2.6-6.05-3.37-10.94-1-6.26-1.43-14.89-1.43-27.13,0-20.53-2.76-33.33-13-38.4a18.48,18.48,0,0,0-2-.86,17.74,17.74,0,0,0-16.1,1.71c-4.59,2.75-8.72,7.18-12.57,12-7.72,9.64-18.91,28.81-27.11,42.53-1.46,2.43-2.83,4.71-4.06,6.71-2.15,3.5-5.76,8-9.15,13.18a67.18,67.18,0,0,0-4.8,8.55c4.59-3.25,12.54-7.85,21.1-8,13.27-.23,12.41,11.41,16.68,17.92S230.77,403,235,390.85s8.39-20.94,12.69-20.94,8.49,8.14,12,20.48,10.62,24,16.1,21.5c3.49-1.61,5.93-14.61,15.28-1.86,8.28,11.31,16,19.66,22.59,13.76.22-.39.46-.81.7-1.25A46.44,46.44,0,0,0,311,416.73Z"/><path class="cls-5" d="M255.75,408.38c-5,.69-2.28,31,1.55,39.51s10.19,30,15.67,27-.55-21.08-5.2-35.59S261.77,407.53,255.75,408.38Z"/><path class="cls-5" d="M284.55,428.14c-1.79,2.38,1.78,10.52,4.56,13.62s4.57,3.06,4.57-3.69S287,424.88,284.55,428.14Z"/><path class="cls-5" d="M233.09,433c-3.82-.32-8.72,16.22-11.5,27.34s0,21.45,3.38,21.85,4.37-5.37,4.57-10.59.79-5.9,2.78-9.08S236.72,433.28,233.09,433Z"/><path class="cls-5" d="M265.57,527.57a57.42,57.42,0,0,1-1.47-16.8c1.16-17.13-3.21-20.11-5.82-24.2s-2.31-11.79-5.23-10.9c-2.65.81,0,7.55-1,17.79s2.33,16,5.87,24.75a53.72,53.72,0,0,1,2.51,10c1.33,7.47,2.21,14.52,5.5,12.5C268.86,538.92,267.12,534.55,265.57,527.57Z"/><path class="cls-5" d="M363.73,541.92c-.7-6-4.23-14.69-10.43-25.6-.94-1.66-1.94-3.38-3-5.15-3.66-6.06-6.95-11.36-10-15.94a97,97,0,0,0-8.89-11.52,33.19,33.19,0,0,0-10.64-8.11,16.17,16.17,0,0,1-5.55-4.39c-.22-.27-.44-.53-.65-.81-.64-.81-1.23-1.67-1.79-2.53-.74-1.15-1.42-2.32-2.06-3.45s-1.22-2.2-1.78-3.17c-.28-.49-.56-.94-.83-1.36s-.54-.81-.8-1.15a3.44,3.44,0,0,0-2.41-1.65,2.16,2.16,0,0,0-1.29.48,2.48,2.48,0,0,0-.68.76,4.66,4.66,0,0,0-.53,2.3c0,2.31.94,5.48,2.39,8.86.58,1.36,1.23,2.75,1.93,4.12.35.69.71,1.38,1.08,2.06.46.85.94,1.69,1.41,2.51,1.43,2.44,2.89,4.7,4.17,6.47q.69,1,1.35,2a65.91,65.91,0,0,1,3.68,6.81c.77,1.63,1.53,3.33,2.29,5.08s1.53,3.55,2.32,5.39c1.89,4.4,3.94,9,6.42,13.61.31.56.58,1.15.84,1.73a29.87,29.87,0,0,1,2,6.7c.14.73.25,1.46.35,2.2.19,1.47.32,2.94.4,4.4s.13,2.9.16,4.31c0,2.12.06,4.15.15,6a33.88,33.88,0,0,0,.55,5.17,14.79,14.79,0,0,0,.38,1.46c12.06-.8,22.91-2,29.47-3.39A14.91,14.91,0,0,0,363.73,541.92Z"/><path class="cls-4" d="M452.12,530.71c4.8-17.68-13.14-15.5-13.14-15.5-.51-20-18.22-13.12-18.22-13.12-2.55-10.79-15.41-8.74-17.79-4.16-11.31-6.88-22.48,2.54-20.15,10.24-24.18,4.23-18,23.87-18,23.87s-7.84-1.11-12.14,4.41-1.52,14.21-1.52,14.21-4.55,2.53-3.54,6.58,2.78,5.06,49.58,5.06H457.7a9.32,9.32,0,0,0,8.38-4.81c1.42-2.78,1.1-6.32-5.85-9.36C460.23,548.13,464.94,535.54,452.12,530.71Z"/><path class="cls-9" d="M379.65,546.13s-1.89-5.18,1.34-7.08c3.62-2.14,7.44,3.14,7.44,3.14s-.44-9.1,8.44-4.57"/><path class="cls-9" d="M411.19,520.22s5.06-3.61,7.71-1.31-.69,7.14-.69,7.14,8.47-1.21,5.35,6.84"/></g></svg>