<svg id="圖層_1" data-name="圖層 1" xmlns="http://www.w3.org/2000/svg" viewBox="0 0 1008.23 517.34"><defs><style>.cls-1{fill:#ffb829;}.cls-1,.cls-2,.cls-3,.cls-4,.cls-5,.cls-6{stroke:#000;stroke-linejoin:round;stroke-width:0.4px;}.cls-2{fill:#f99128;}.cls-3{fill:none;}.cls-4{fill:#ffc05a;}.cls-5{fill:#fff6eb;}.cls-6{fill:#ef5b2e;}</style></defs><title>all</title><path class="cls-1" d="M200.12,469c59.12,21.76,53.75,32.51,131.68,43.26s159.89,2.69,200.2-6.72,80.62-24.18,177.36-36.27,214.33-43.73,279.48-90c41.1-29.21,4.36-67.59-11.56-81.32-32.26-27.82-49.79-25-94.68-47.39-34.55-17.23-86.47-28.32-270.55-47.52C438.68,184.88,282.11,235.33,201.94,265S22.57,296.47,33,343.11c12.18,54.52-18.59,60.05-4.08,85.86C51.64,469.37,141,447.19,200.12,469Z"/><path class="cls-2" d="M758.39,182.23c-1.79.31,26-12.89,50.16-13.25a367.39,367.39,0,0,0,1.18-38.06c-12.09,1.88-36.48,6.17-48.83,11.89,0,0,22-25.84,47.89-31.17C803.33,40.52,777.8,0,777.8,0c-191.08,180.63-46.12,387.38-46.12,387.38C779,309.9,800,241.24,807,184.06,794.78,181.57,776.29,179.18,758.39,182.23Z"/><path class="cls-1" d="M874,204.51A72,72,0,0,1,894.51,207c8.77-46.14,4-81.4,4-81.4C702.65,231.12,726.07,398.46,726.07,398.46c76.85-26.3,120.1-72.66,144.23-119.78-1.11-12.94-3.88-34.74-10.6-49a119.53,119.53,0,0,1,22.9,20.78,272.94,272.94,0,0,0,8.74-28.86A169,169,0,0,0,874,204.51Z"/><path class="cls-2" d="M932.51,293.1c19.63-36.18,27.21-68,27.21-68-202,42.39-215.16,167.43-215.16,167.43,70.37,14.22,119.63-13.21,153.07-49.74,0-11.8-.29-34.47-2.89-46.48,0,0,9.75,16.93,14.4,32.82a258.36,258.36,0,0,0,17.06-25c-2.05-9.15-5.61-21-11.33-29A96.05,96.05,0,0,1,932.51,293.1Z"/><path class="cls-2" d="M304.28,211.26c-5.56-6.32-31.07,2.83-44.43,22.69,0,0,16.91-33.83,7.57-51.24s-25.3,3.86-27.78,21.94c0,0,5.73-49.19-9.8-51.33s-20.46,34.14-16.09,52.29c0,0-13.42-23.72-22.81-16.94-9.56,6.91,8.88,36.7,8.88,36.7s-21.13-10-13.78,12c7.29,21.79,35,45.65,56.42,38.9C292.92,276.73,315.91,224.48,304.28,211.26Z"/><path class="cls-3" d="M280.13,239.11s-7.45,18.62-37.67,37.14c-13.61-44.17-13.32-76.76-13.32-76.76"/><path class="cls-3" d="M208.6,222s12.76,29.14,33.86,54.26c-3.34-30.55,10.2-64.27,10.2-64.27"/><path class="cls-2" d="M313.78,199.78s13-79.23,73.22-108.95c58.87-29.07,86.27-4.68,113.39-11.16s38.9-8.84,38.9-8.84,19.78,7,14,35.6S313.78,199.78,313.78,199.78Z"/><path class="cls-1" d="M539.29,70.83s15.07-9.07,40-11.35c0,0,3.4-6.78,13.23-12.55s17-2.71,20.7,3.73c0,0,10.18.49,7.46,11.1,0,0,8.15,1.07,6.79,9.07s-21.76,12.3-35.33,8.57c0,0-17.46,20-38.8,27C529.09,100.92,539.29,70.83,539.29,70.83Z"/><path class="cls-3" d="M590.59,64.31s11-13.65,22.59-13.65"/><path class="cls-3" d="M598.93,70.83s15.27-2,21.71-9.07"/><path class="cls-4" d="M168.62,315.44c-9.24-19.15,20.63-44.14,62.56-46.69S266,301,234.75,314.25C208.7,325.35,175.78,330.27,168.62,315.44Z"/><path class="cls-4" d="M209.29,358s-18.75-.92-19.65-24.2,24.12-104.73,92-125.62S328,146.67,427.42,114.05c93.89-30.8,183.57-6.25,229.64,61.62,0,0-3,53.58-14.65,61.62S395.22,383.21,395.22,383.21,255.32,438.8,209.29,358Z"/><path class="cls-1" d="M674,177.81c13-23.94,39.23-42.51,39.23-42.51s-5.79-12.22,4.12-22.23c8.72-8.8,19.92-2.37,19.92-2.37s14.11-6,17.1,7.26c0,0,12.29,5.36,6.51,22.47-5.38,15.92-24.46,11.31-24.46,11.31s-8.35,44.94-20.42,67.57S666.1,192.41,674,177.81Z"/><path class="cls-3" d="M737.29,110.7s-7.72,4.47-11.22,18"/><path class="cls-3" d="M754.39,118s-1.23,15-13.14,23.83"/><path class="cls-2" d="M382.51,379.85C363,338.2,397.13,269.49,453.18,237.66s85.91-24.78,113.12-34.8,50.9-25.18,112.89-32.42c26.52-3.09,54,22.4,23.73,104.11-42,113.39-180.82,152.38-224.15,151S397.24,411.23,382.51,379.85Z"/><path class="cls-4" d="M251.16,393.7c-1.19-18.65,27.06-37.59,66.55-39.7s68.67,2.44,103.07,24.66-59.35,40.11-98.85,42.22S252.54,415.5,251.16,393.7Z"/><path class="cls-3" d="M394.18,103.8a8.46,8.46,0,0,1,9.2-4.66s1.9-6.2,9.19-3.41"/><path class="cls-4" d="M701,255.82S698.1,296,673.09,320.45c-23.45,22.95-50.19,20.44-59.58,51.38s15,44.77,15,44.77,20.36,30.53,49.13,15.11c0,0,11,24.23,38.67,7.21,0,0,12.72,10.89,32,0,23.09-13,20.13-49.44,7-65.44-15.37-18.73-38-32.59-41.82-65.18s-2.21-52.48-2.21-52.48Z"/><path class="cls-4" d="M706.27,255.82s-6,28.74-5.93,45.17"/><path class="cls-4" d="M699.57,311.6s.56,25.69,6.7,32.39"/><path class="cls-4" d="M692,303.51s-8.65,20.38-25.68,32.38"/><path class="cls-4" d="M705.16,323.61s2,14,8.09,20.38"/><path class="cls-4" d="M687,323.61a67.13,67.13,0,0,1-7.82,12.28"/><path class="cls-4" d="M688.6,361.3s-23.5,36.95-11,70.41"/><path class="cls-4" d="M716.6,358c7.54,15.86,22.49,62.51-.34,80.92"/><path class="cls-4" d="M666.35,346.78c1.12-1-25.18,11-33.5,45.79"/><path class="cls-4" d="M713.25,407.28s2.48,13.12-5.27,21.61"/><path class="cls-4" d="M708,407.28s.71,10.12-1.71,13.8"/><path class="cls-4" d="M751.86,407.28s.48,12.39-5.58,16.52"/><path class="cls-4" d="M744.1,408.76s1.7,8.89-1.45,12.32"/><path class="cls-4" d="M652,412.89s.25,5.48,3.4,8.19"/><path class="cls-4" d="M657.06,414.92s.73,5.72,3.4,7.42"/><path class="cls-4" d="M286.54,256.63s13.29-19.33,37.22-20.42c0,0,14-43.28,74.83-63.75"/><path class="cls-2" d="M1.48,339.36c5.15-11,38.69-8.09,60.16,6.27,0,0-35.14-32.05-32-56.71S61,282,72.12,302.11c0,0-29-55.14-11.71-64.68s39.44,30.82,42.53,54.1c0,0,4.31-31.27,19.1-30.19s6.17,47.09,6.17,47.09,10.14-13.46,14.14,15.16-12.94,62-41.18,63.82C42.17,410.79-7.1,357.65,1.48,339.36Z"/><path class="cls-3" d="M40.17,360.87s17.16,18.48,61,26.54c-4-58-19.06-96.1-19.06-96.1"/><path class="cls-3" d="M116.39,308.43s-1.81,40-15.22,79c-9.89-37.35-41-70.81-41-70.81"/><path class="cls-5" d="M394.18,215.83s6.36-6.34,18.39-5.05C412.57,210.78,406.21,218.9,394.18,215.83Z"/><path class="cls-5" d="M400.07,196.25s3.78,8.49,17.22,6.37A26.53,26.53,0,0,0,400.07,196.25Z"/><path class="cls-5" d="M422.25,206.4a20.76,20.76,0,0,0-2.6,16.27S424.84,215.36,422.25,206.4Z"/><path class="cls-3" d="M412.57,210.78s9.68-4.38,19.34-17"/><path class="cls-3" d="M417.29,202.62s4.53,1.58,6,.34l-1.09,3.44"/><path class="cls-5" d="M438.86,133.25s1.81-10.27,14-12.91C452.88,120.34,450.74,129.78,438.86,133.25Z"/><path class="cls-5" d="M434.07,139s2.31,9.07,10.07,12.37C444.14,151.36,443.8,143.61,434.07,139Z"/><path class="cls-5" d="M431.91,125.62c0-.16-8.62,4.13-9.67,14.85C422.24,140.47,432.4,135.36,431.91,125.62Z"/><path class="cls-5" d="M439.85,140.47c-.81-.53,12.21-3.63,18.64,2.15A21,21,0,0,1,439.85,140.47Z"/><path class="cls-4" d="M409.49,142.29a50.77,50.77,0,0,0,29.37-9"/><path class="cls-4" d="M434.07,139s-1.19-1.75-5.42-.28"/><path class="cls-4" d="M439.85,140.47a17.39,17.39,0,0,0-9-2.7"/><path class="cls-6" d="M142.93,404s48,5.77,48-9.61c0-6.7-12.33-7.11-19.69-3.1,0,0,14.38-7,17.39-18.73s-11.08-19.5-23.19.64c0,0,2-58.28-19.72-54.87-15.14,2.39-8.61,35.76-4.91,47.55-3.7-11.79-17.78-36.47-29.57-29.64-13,7.53,15.53,45,15.53,45S95.16,359.91,88.26,375C81.79,389.18,114.64,407,142.93,404Z"/><path class="cls-3" d="M127.46,362.09S141.54,381,142.93,404a119.79,119.79,0,0,0,6.21-54"/><path class="cls-3" d="M168.4,380.26A102.86,102.86,0,0,0,142.93,404C131.56,391.3,114,389.48,114,389.48"/><path class="cls-3" d="M166,398.15s-13.45,0-23.07,5.87"/><path class="cls-4" d="M287.8,390.89s2.57-5.74,10.27-3.51c0,0,2.31-8,11.29-5.73"/><path class="cls-5" d="M264.87,279.77a23.25,23.25,0,0,1,20.82-3.07A20.39,20.39,0,0,1,264.87,279.77Z"/><path class="cls-5" d="M262.91,288.21c-1.66-.17,4.73,9.21,14.77,8.45C277.68,296.66,274.43,289.39,262.91,288.21Z"/><path class="cls-4" d="M247.56,286.74s9.52-6.26,17.31-7"/><path class="cls-4" d="M262.91,288.21a19.29,19.29,0,0,0-9.06-5"/><path class="cls-5" d="M305.76,286.74s-2.46,10.06,3.29,14.43C309.05,301.17,311.51,292.27,305.76,286.74Z"/><path class="cls-4" d="M325.46,285.73a6.79,6.79,0,0,1,8.48-2.48s1.92-7.58,9.58-4.81"/><path class="cls-5" d="M496.43,148.53s9.66,8.67,25.66,6.34C522.09,154.87,513.76,146.2,496.43,148.53Z"/><path class="cls-5" d="M529.09,181.87s13.34,0,19-14.67C548.09,167.2,534.09,171.53,529.09,181.87Z"/><path class="cls-5" d="M469.76,281.78s0-10.58,11.67-16.58A20.59,20.59,0,0,1,469.76,281.78Z"/><path class="cls-5" d="M464.43,289.53s7.25,7.4,19.35,2A25.54,25.54,0,0,0,464.43,289.53Z"/><path class="cls-5" d="M466.76,265.2s-10.85,6.31-8.33,16.58C458.43,281.78,466.31,278.62,466.76,265.2Z"/><path class="cls-3" d="M469.76,281.78a90,90,0,0,1-25,22.68"/><path class="cls-3" d="M458.43,281.78a21.74,21.74,0,0,0-2.14,14.29"/><path class="cls-5" d="M526,285.73s6.64-12.56,16.17-14.22C542.16,271.51,544.24,281.71,526,285.73Z"/><path class="cls-5" d="M534.11,288.92s14.31,7.93,23.83,2.21C557.94,291.13,548.61,285.07,534.11,288.92Z"/><path class="cls-3" d="M513.55,283.25s10.37,5.5,20.56,5.67"/><path class="cls-3" d="M520.05,253.79s0-6.49,9.09-6.28a8.19,8.19,0,0,1,9.53-4.11"/><path class="cls-5" d="M553.83,262.24a17.39,17.39,0,0,0,17.76,1.3A22.42,22.42,0,0,0,553.83,262.24Z"/><path class="cls-4" d="M453.18,374.48s2-5.76,9.42-5.12c0,0,0-6.4,7.16-6.4"/><path class="cls-5" d="M489.09,118.7s3.73,6.08,14,6.92C503.06,125.62,496.23,116.84,489.09,118.7Z"/><path class="cls-4" d="M230.8,264.34s.95-5.69,6-5.69c0,0,1.58-6.9,8.23-6.78"/><line class="cls-3" x1="525.99" y1="285.73" x2="523.09" y2="287.04"/><path class="cls-4" d="M522.79,447.13s5.74,7,14,8.2"/><path class="cls-6" d="M648.82,378.66s4.39,33.62-23.91,60.18c-27.79,26.09-113.34,46.22-139.9-19.57Z"/><path class="cls-6" d="M546.7,364.65c27.83-8.86,79.17-10.94,98.5,6.93s-43.41,47.07-78.44,56.55-90.26,9.18-82.19-20.42C489.26,390.53,516,374.42,546.7,364.65Z"/><path class="cls-4" d="M548.4,388.32s-40.33-4.36-43.54,6.41S548.4,388.32,548.4,388.32Z"/><path class="cls-4" d="M551.84,392.86S518.12,404.25,518,418.2a2.32,2.32,0,0,0,2.52,2.28C535.13,419.35,551.84,392.86,551.84,392.86Z"/><path class="cls-4" d="M558.49,395.83s-12.65,15.73-8.48,24.73a3,3,0,0,0,4.75.91C561,415.42,558.49,395.83,558.49,395.83Z"/><path class="cls-4" d="M577.28,387.44c13.5-8.78,52.93-17.37,53.16-8.78C630.64,386,589.88,388.54,577.28,387.44Z"/><path class="cls-4" d="M568.8,393.81s6.72,13.82,18.56,13.12a3.29,3.29,0,0,0,2.41-5.31C583.64,393.81,568.8,393.81,568.8,393.81Z"/><path class="cls-4" d="M570.22,383.21c6.16.72,20.42-11.82,16.17-15.85S569.74,377.1,570.22,383.21Z"/><path class="cls-4" d="M560.21,381.4c2.9-2.07,6.41-13,2.69-13.87C558.5,366.52,557.49,379.15,560.21,381.4Z"/><path class="cls-4" d="M538.9,376.73c2.14-3.21,14,2,15.18,6.78C548.81,384,536.18,380.81,538.9,376.73Z"/><path class="cls-3" d="M531.08,447.13a11,11,0,0,0,6.58,4.1"/><path class="cls-3" d="M620.11,412.89s-1.49,13.43-9.14,19.48"/><path class="cls-3" d="M611.76,417s-.5,5.64-4.4,9.19"/><path class="cls-3" d="M630.44,410a14.15,14.15,0,0,1-2,6.65"/><path class="cls-5" d="M922.15,354.66s7.46-14.91,18.42-18.41A35.13,35.13,0,0,1,922.15,354.66Z"/><path class="cls-5" d="M937.5,354.66s11.11-6.33,22.22-4.26C959.72,350.4,953.29,360.37,937.5,354.66Z"/><path class="cls-4" d="M906.8,356.43a195,195,0,0,0,30.7-1.77"/><line class="cls-4" x1="922.15" y1="354.66" x2="919.63" y2="356.43"/><path class="cls-5" d="M914,386.48s8,11,22.6,2.91C936.58,389.39,927.51,384.08,914,386.48Z"/><path class="cls-5" d="M204.72,425.54s-6.65,11,0,21.43C204.72,447,211.84,439.25,204.72,425.54Z"/><path class="cls-5" d="M339.67,473.57s10-10,21.84-5.69C361.51,467.88,358.22,475.44,339.67,473.57Z"/><path class="cls-6" d="M378.94,444.67s6.17,36,55.64,40.07,78-22.21,79.87-59.24Z"/><path class="cls-6" d="M378.94,444.67c-4.44-13.37,32.12-27.62,64.24-33.41s66.17-2.57,70.67,9.64S497.61,444.18,455,450.53,381.4,452.09,378.94,444.67Z"/><path class="cls-3" d="M401,462.2s6.12,9,13.7,11.37"/><path class="cls-3" d="M410.87,462.2s7.28,10.78,19.82,14"/><path class="cls-3" d="M482.56,455.33S482,465.41,475,472.11"/><path class="cls-3" d="M489.26,453.48s-.58,5.22-3.5,8.72"/><path class="cls-4" d="M395.37,435.87c-1.6-2.77,9.8-6.4,15.5-7.56,5.45-1.12,15.53-1.66,17.78-.8-1.23,4.2-7.87,6.89-15.62,8.22C404.4,437.22,396.1,437.14,395.37,435.87Z"/><path class="cls-4" d="M453.24,426.58c1.1-6.1,24.34-16.56,27.91-10.53C485.63,423.62,455.94,427.36,453.24,426.58Z"/><path class="cls-4" d="M446.51,432.54c3,1.12,11.62,9.74,9,12.35C451.77,448.51,445.32,435.28,446.51,432.54Z"/><path class="cls-4" d="M419.6,446.1c-1.89-3.24,9.77-13.56,15.85-13.56,1.88,2.61-1.62,7.93-4.76,10.91C426.83,447.12,420.58,447.78,419.6,446.1Z"/><path class="cls-4" d="M432.15,417.8c3.29-1,12,3.35,12.27,6.28s-5.13,3.9-9,0S432.15,417.8,432.15,417.8Z"/><path class="cls-4" d="M455.94,432.89c4.63-4.72,38.53-7.93,38.6-1.18C494.58,435.71,461.47,439,455.94,432.89Z"/><path class="cls-3" d="M216.75,401.85s45.45,60.35,100.07,51.44"/><path class="cls-3" d="M295.78,435s-15.14,9.66-34.27,6.12"/><path class="cls-3" d="M276.35,448.33a53.12,53.12,0,0,0,16.34,14.84"/><path class="cls-3" d="M241.52,427.09s3,13.61,8.8,21.24"/><path class="cls-6" d="M316.82,453.29c.39-9.48,11.05-14.82,13.7-12.85,3.58,2.66-3,9.4-3,9.4s10.08.2,10.36,3.64-8.59,2.27-8.59,2.27,8.72,2.87,7.5,6.45-8.86-1.05-8.86-1.05,3.11,5,1,6.34S316.38,464.31,316.82,453.29Z"/><path class="cls-6" d="M286,471.92c-2.23-2.86,1.92-8,9.77-9.4,10.13-1.85,16.38,4.58,14.16,7.89-1.69,2.51-6.87-.1-6.87-.1s10,7.77,5.67,11.2C305.16,484.31,301,477,301,477s-.8,7.54-4.34,6.44c-4-1.25-3.84-12.4-3.84-12.4S287.87,474.39,286,471.92Z"/><path class="cls-6" d="M295.84,434.94c-1.7-3.72,2.43-7.67,5.49-8s3,1.93,1.62,3.18c0,0,2.93,0,1.56,2.37,0,0,2.06.24,2.06,1.74C306.57,437.25,297.77,439.18,295.84,434.94Z"/><path class="cls-6" d="M249.34,448.59c5.9-2.79,11.13.75,13.57,4.19s1.72,7.33-2.38,4c0,0,2,6.63-1.36,7.49s-5-7.34-5-7.34,1.44,9.74-2.45,9.7-2.88-9.22-2.88-9.22-2.07,5.77-5,3.67C241.5,459.48,243.05,451.56,249.34,448.59Z"/><path class="cls-3" d="M757.64,445s68.42-50.83,92.07-127.52"/><path class="cls-6" d="M854.08,295.23c3.14.23,2.1,9.16,2.1,9.16s6.76-4.51,8.71-1.8-3.45,7.65-7.81,9.76c0,0,8.48-.45,8.22,3.15s-9.1,4.05-16.39,1.5-12.1-7.39-11-10.08,7.21,1.82,7.21,1.82-3.91-9.31-.15-10.66,4.65,6.91,4.65,6.91S850,294.93,854.08,295.23Z"/><path class="cls-6" d="M826.25,325.48c3-.23,4,6.75,4.64,11.5,0,0,4-5.75,6.83-3.87s-2.3,9.29-2.3,9.29,5.55-3.59,6.75-.66c1,2.4-3.36,7.35-13.71,8.07-8.66.6-14.27-4.42-12.83-7.19s6.64,1,6.64,1-7.93-9.12-4.1-11.39c3.17-1.88,6,5,6,5S822,325.81,826.25,325.48Z"/><path class="cls-6" d="M792.76,367.63c2.15-1.22,4.55.75,6.22,3.33,0,0-.71-12.28,3.18-13.5s4.1,10.32,4.1,10.32,2-7,5.3-6.22-1.06,10.16-1.06,10.16,3.5-2.3,4.91,0c1.53,2.51-4.81,9.5-13.4,8C795.24,378.61,789.27,369.6,792.76,367.63Z"/><path class="cls-3" d="M882.1,376.61s-46.21,40.79-101.3,48"/><path class="cls-6" d="M881.53,375.34c-1.51-4.65,4.72-14.66,7.93-14.08s.59,6.94.59,6.94,5.44-5.5,7.2-3.77-2.66,5.86-2.66,5.86,5.4-1.66,5.79.87-5.37,3-5.37,3,5.67-.57,5.13,2.12S884.07,383.12,881.53,375.34Z"/><path class="cls-6" d="M861.75,404.77c1.65,1.74-2.17,5.61-2.17,5.61s5.61-1,5.73,1.91-6.87,2.67-6.87,2.67,4.84,1.4,4.45,3.7-10.95,2.54-13.75-2.42S859.2,402.1,861.75,404.77Z"/><path class="cls-3" d="M802,379.76s-2.72,14.19.34,21.52"/><path class="cls-3" d="M828.46,349.81s1,6.8,3.34,9"/><path class="cls-3" d="M848.74,414.78s-14,3.07-23.41-3"/><path class="cls-6" d="M866.22,347.19a14.6,14.6,0,0,0,1.28-1.13c2.52-2.52,3.7-5.43,2.63-6.5s-4,.11-6.5,2.63c-.14.13-.25.27-.38.41-.29-2.83-1.36-4.93-2.65-4.93-1.51,0-2.73,2.89-2.73,6.46,0,5.73,2.23,7.85,7.41,8.45,3.54.41,6.55-.55,6.71-2.05S869.58,347.62,866.22,347.19Z"/><path class="cls-3" d="M859.76,350.4s-11.64,15.2-34.43,19.36"/><path class="cls-6" d="M858.53,368.81c-1.1-.55-2.79.54-4.2,2.51-.35-2.08-1.43-3.61-2.73-3.61-1.58,0-2.86,2.25-2.86,5a8.34,8.34,0,0,0,.25,2.05h0c-3.19-1-6.16-.6-6.61.88s1.76,3.47,5,4.46c2.76.86,8.33.84,11-4.64C859.79,372.47,859.91,369.5,858.53,368.81Z"/><path class="cls-3" d="M853.52,380s-.6,9.68,1.07,16.43"/><path class="cls-4" d="M630.44,453.48s8.25,10.94,21.53,6.14C652,459.62,644.92,451.18,630.44,453.48Z"/></svg>