<svg id="圖層_1" data-name="圖層 1" xmlns="http://www.w3.org/2000/svg" viewBox="0 0 1008.23 517.34"><defs><style>.cls-1{fill:#fff;}.cls-2{opacity:0.32;}.cls-3{fill:#ffb829;}.cls-3,.cls-4,.cls-5,.cls-6,.cls-7,.cls-8{stroke:#000;stroke-linejoin:round;stroke-width:0.45px;}.cls-4{fill:#f99128;}.cls-5{fill:none;}.cls-6{fill:#ffc05a;}.cls-7{fill:#fff6eb;}.cls-8{fill:#ef5b2e;}</style></defs><title>all</title><path class="cls-1" d="M977.31,297.87C963.87,286.27,953,280,941.6,275c12.95-28,18.16-49.87,18.16-49.87a437.49,437.49,0,0,0-76.3,23,271.19,271.19,0,0,0,7.92-26.48,170.09,170.09,0,0,0-17.31-17.11A71.87,71.87,0,0,1,894.54,207c8.77-46.14,4-81.4,4-81.4-39,21-69.35,44.52-92.89,68.65.51-3.44,1-6.85,1.38-10.21-12.22-2.49-30.71-4.88-48.61-1.83-1.8.31,26-12.89,50.15-13.25a367.5,367.5,0,0,0,1.19-38.06c-12.09,1.88-36.48,6.17-48.84,11.89,0,0,22-25.84,47.9-31.17C803.37,40.52,777.83,0,777.83,0c-57.44,54.3-84.5,111-94.27,163.66-1.76,2.21-3.45,4.5-5,6.87-8.22,1-15.75,2.09-22.71,3.31-24.25-34.7-60.06-57.79-102-67.57,21.12-7.16,38.34-26.87,38.34-26.87,13.57,3.73,34-.58,35.33-8.57s-6.79-9.07-6.79-9.07c2.71-10.61-7.46-11.1-7.46-11.1-3.74-6.44-10.86-9.5-20.7-3.73s-13.23,12.55-13.23,12.55c-24.9,2.28-40,11.35-40,11.35s-11.79,2.35-38.91,8.84S445.91,61.76,387,90.83c-48.7,24-66.52,80.46-71.56,101.15-8.47,6.15-19,11.64-33.82,16.2a105.54,105.54,0,0,0-14.17,5.54c2.86-10.4,4.47-22.61,0-31-9.33-17.41-25.3,3.86-27.79,21.94,0,0,5.74-49.19-9.79-51.33s-20.46,34.14-16.1,52.29c0,0-13.41-23.72-22.8-16.94-9.56,6.91,8.88,36.7,8.88,36.7s-21.13-10-13.78,12c3.14,9.38,10,19.13,18.62,26.67L202,265c-23.21,8.59-48,14.84-71.28,20.52.34-11.72-1.17-23.66-8.62-24.2C107.29,260.26,103,291.53,103,291.53c-3.08-23.28-25.27-63.63-42.53-54.1-16.16,8.93,8.21,57.85,11.38,64h0c-11.33-19.83-39.11-36.94-42.16-12.55-1.22,9.8,3.59,20.76,9.84,30.42a24.76,24.76,0,0,0-7,14.67c-14.68-2.81-27.84-1.2-30.91,5.35-4.88,10.4,9,32.05,32.63,44.51C29.72,403.56,19.29,411.77,29,429c22.72,40.4,112.08,18.22,171.2,40s53.74,32.51,131.68,43.26,159.89,2.69,200.2-6.72,80.61-24.18,177.36-36.27,214.33-43.73,279.47-90C1030,350,993.24,311.6,977.31,297.87Zm-96-48.89-1,.4c-4.86-2.33-10.09-4.56-16-6.71a81.73,81.73,0,0,0-4.64-13A120.69,120.69,0,0,1,881.34,249Z"/><g class="cls-2"><path class="cls-3" d="M200.16,469c59.12,21.76,53.74,32.51,131.68,43.26s159.89,2.69,200.2-6.72,80.62-24.18,177.36-36.27,214.33-43.73,279.47-90c41.1-29.21,4.37-67.59-11.56-81.32-32.25-27.82-49.78-25-94.68-47.39-34.54-17.23-86.46-28.32-270.54-47.52C438.71,184.88,282.15,235.33,202,265S22.61,296.47,33,343.11C45.22,397.63,14.45,403.16,29,429,51.68,469.37,141,447.19,200.16,469Z"/><path class="cls-4" d="M758.43,182.23c-1.8.31,26-12.89,50.15-13.25a367.5,367.5,0,0,0,1.19-38.06c-12.09,1.88-36.48,6.17-48.84,11.89,0,0,22-25.84,47.9-31.17C803.37,40.52,777.83,0,777.83,0c-191.07,180.63-46.11,387.38-46.11,387.38C779.05,309.9,800.08,241.24,807,184.06,794.82,181.57,776.33,179.18,758.43,182.23Z"/><path class="cls-3" d="M874.07,204.51A71.87,71.87,0,0,1,894.54,207c8.77-46.14,4-81.4,4-81.4C702.69,231.12,726.11,398.46,726.11,398.46c76.85-26.3,120.1-72.66,144.23-119.78-1.11-12.94-3.88-34.74-10.6-49a119.31,119.31,0,0,1,22.89,20.78,273.06,273.06,0,0,0,8.75-28.86A170.09,170.09,0,0,0,874.07,204.51Z"/><path class="cls-4" d="M932.55,293.1c19.63-36.18,27.21-68,27.21-68-202,42.39-215.17,167.43-215.17,167.43,70.38,14.22,119.63-13.21,153.08-49.74,0-11.8-.29-34.47-2.9-46.48,0,0,9.76,16.93,14.4,32.82a254.81,254.81,0,0,0,17.06-25c-2.05-9.15-5.6-21-11.32-29A96.05,96.05,0,0,1,932.55,293.1Z"/><path class="cls-4" d="M304.32,211.26c-5.56-6.32-31.07,2.83-44.43,22.69,0,0,16.9-33.83,7.57-51.24s-25.3,3.86-27.79,21.94c0,0,5.74-49.19-9.79-51.33s-20.46,34.14-16.1,52.29c0,0-13.42-23.72-22.8-16.94-9.56,6.91,8.88,36.7,8.88,36.7s-21.13-10-13.78,12c7.29,21.79,35,45.65,56.42,38.9C293,276.73,316,224.48,304.32,211.26Z"/><path class="cls-5" d="M280.17,239.11s-7.45,18.62-37.67,37.14c-13.61-44.17-13.33-76.76-13.33-76.76"/><path class="cls-5" d="M208.63,222s12.77,29.14,33.87,54.26C239.16,245.7,252.7,212,252.7,212"/><path class="cls-4" d="M313.81,199.78s13-79.23,73.23-108.95c58.87-29.07,86.27-4.68,113.38-11.16s38.9-8.84,38.9-8.84,19.78,7,14,35.6S313.81,199.78,313.81,199.78Z"/><path class="cls-3" d="M539.32,70.83s15.07-9.07,40-11.35c0,0,3.39-6.78,13.23-12.55s17-2.71,20.7,3.73c0,0,10.17.49,7.46,11.1,0,0,8.14,1.07,6.79,9.07s-21.76,12.3-35.33,8.57c0,0-17.47,20-38.8,27C529.13,100.92,539.32,70.83,539.32,70.83Z"/><path class="cls-5" d="M590.63,64.31s11-13.65,22.59-13.65"/><path class="cls-5" d="M599,70.83s15.26-2,21.71-9.07"/><path class="cls-6" d="M168.66,315.44c-9.25-19.15,20.63-44.14,62.55-46.69S266,301,234.78,314.25C208.74,325.35,175.82,330.27,168.66,315.44Z"/><path class="cls-6" d="M209.33,358s-18.76-.92-19.65-24.2,24.11-104.73,92-125.62,46.35-61.51,145.8-94.13C521.34,83.25,611,107.8,657.1,175.67c0,0-3,53.58-14.65,61.62s-247.2,145.92-247.2,145.92S255.35,438.8,209.33,358Z"/><path class="cls-3" d="M674.06,177.81c13-23.94,39.23-42.51,39.23-42.51s-5.79-12.22,4.12-22.23c8.72-8.8,19.92-2.37,19.92-2.37s14.11-6,17.1,7.26c0,0,12.29,5.36,6.5,22.47-5.38,15.92-24.46,11.31-24.46,11.31s-8.35,44.94-20.42,67.57S666.14,192.41,674.06,177.81Z"/><path class="cls-5" d="M737.33,110.7s-7.72,4.47-11.22,18"/><path class="cls-5" d="M754.43,118s-1.23,15-13.14,23.83"/><path class="cls-4" d="M382.54,379.85C363,338.2,397.17,269.49,453.22,237.66s85.9-24.78,113.12-34.8,50.9-25.18,112.89-32.42c26.51-3.09,54,22.4,23.73,104.11-42,113.38-180.83,152.38-224.15,151S397.28,411.23,382.54,379.85Z"/><path class="cls-6" d="M251.2,393.7c-1.19-18.65,27.05-37.59,66.55-39.7s68.67,2.44,103.06,24.66S361.46,418.77,322,420.88,252.58,415.5,251.2,393.7Z"/><path class="cls-5" d="M394.21,103.8a8.47,8.47,0,0,1,9.2-4.66s1.9-6.2,9.2-3.41"/><path class="cls-6" d="M701,255.82s-2.86,40.15-27.87,64.63c-23.45,22.95-50.19,20.44-59.58,51.38s15,44.76,15,44.76,20.36,30.54,49.13,15.12c0,0,11,24.23,38.67,7.21,0,0,12.71,10.89,32,0,23.08-13,20.13-49.44,7-65.44-15.37-18.73-38-32.59-41.81-65.18s-2.21-52.48-2.21-52.48Z"/><path class="cls-6" d="M706.31,255.82s-6,28.74-5.94,45.17"/><path class="cls-6" d="M699.61,311.6s.56,25.69,6.7,32.39"/><path class="cls-6" d="M692.07,303.51s-8.65,20.38-25.68,32.38"/><path class="cls-6" d="M705.19,323.61s2,14,8.1,20.38"/><path class="cls-6" d="M687.05,323.61a67.13,67.13,0,0,1-7.82,12.28"/><path class="cls-6" d="M688.63,361.3s-23.49,36.95-11,70.41"/><path class="cls-6" d="M716.64,358c7.54,15.86,22.49,62.51-.34,80.92"/><path class="cls-6" d="M666.39,346.78c1.11-1-25.18,11-33.51,45.79"/><path class="cls-6" d="M713.29,407.28s2.48,13.12-5.28,21.61"/><path class="cls-6" d="M708,407.28s.72,10.12-1.7,13.8"/><path class="cls-6" d="M751.9,407.28s.48,12.39-5.58,16.52"/><path class="cls-6" d="M744.14,408.76s1.69,8.89-1.46,12.32"/><path class="cls-6" d="M652,412.89s.24,5.48,3.39,8.19"/><path class="cls-6" d="M657.1,414.92s.73,5.72,3.39,7.42"/><path class="cls-6" d="M286.58,256.63s13.29-19.33,37.22-20.42c0,0,14-43.28,74.83-63.75"/><path class="cls-4" d="M1.52,339.36c5.15-11,38.69-8.09,60.16,6.27,0,0-35.14-32.05-32.06-56.71S61.06,282,72.15,302.11c0,0-29-55.14-11.71-64.68s39.45,30.82,42.53,54.1c0,0,4.32-31.27,19.11-30.19s6.17,47.09,6.17,47.09,10.14-13.46,14.13,15.16-12.94,62-41.17,63.82C42.2,410.79-7.06,357.65,1.52,339.36Z"/><path class="cls-5" d="M40.21,360.87s17.16,18.48,61,26.54c-4-58-19.07-96.1-19.07-96.1"/><path class="cls-5" d="M116.42,308.43s-1.81,40-15.21,79c-9.89-37.35-41-70.81-41-70.81"/><path class="cls-7" d="M394.21,215.83s6.37-6.34,18.4-5.05C412.61,210.78,406.24,218.9,394.21,215.83Z"/><path class="cls-7" d="M400.11,196.25s3.77,8.49,17.22,6.37A26.57,26.57,0,0,0,400.11,196.25Z"/><path class="cls-7" d="M422.28,206.4a20.78,20.78,0,0,0-2.59,16.27S424.88,215.36,422.28,206.4Z"/><path class="cls-5" d="M412.61,210.78s9.67-4.38,19.34-17"/><path class="cls-5" d="M417.33,202.62s4.53,1.58,6.05.34l-1.1,3.44"/><path class="cls-7" d="M438.89,133.25s1.82-10.27,14-12.91C452.92,120.34,450.77,129.78,438.89,133.25Z"/><path class="cls-7" d="M434.1,139s2.32,9.07,10.07,12.37C444.17,151.36,443.83,143.61,434.1,139Z"/><path class="cls-7" d="M432,125.62c0-.16-8.63,4.13-9.67,14.85C422.28,140.47,432.43,135.36,432,125.62Z"/><path class="cls-7" d="M439.88,140.47c-.8-.53,12.21-3.63,18.65,2.15A21.06,21.06,0,0,1,439.88,140.47Z"/><path class="cls-6" d="M409.52,142.29a50.77,50.77,0,0,0,29.37-9"/><path class="cls-6" d="M434.1,139s-1.18-1.75-5.41-.28"/><path class="cls-6" d="M439.88,140.47a17.34,17.34,0,0,0-9-2.7"/><path class="cls-8" d="M143,404s48,5.77,48-9.61c0-6.7-12.34-7.11-19.69-3.1,0,0,14.37-7,17.38-18.73s-11.07-19.5-23.18.64c0,0,1.95-58.28-19.73-54.87-15.14,2.39-8.6,35.76-4.9,47.55-3.7-11.79-17.79-36.47-29.58-29.64-13,7.53,15.53,45,15.53,45S95.2,359.91,88.3,375C81.82,389.18,114.67,407,143,404Z"/><path class="cls-5" d="M127.5,362.09S141.57,381,143,404a119.7,119.7,0,0,0,6.2-54"/><path class="cls-5" d="M168.44,380.26A102.67,102.67,0,0,0,143,404c-11.37-12.72-28.89-14.54-28.89-14.54"/><path class="cls-5" d="M166,398.15s-13.45,0-23.06,5.87"/><path class="cls-6" d="M287.84,390.89s2.56-5.74,10.27-3.51c0,0,2.31-8,11.29-5.73"/><path class="cls-7" d="M264.9,279.77a23.25,23.25,0,0,1,20.82-3.07A20.38,20.38,0,0,1,264.9,279.77Z"/><path class="cls-7" d="M263,288.21c-1.66-.17,4.73,9.21,14.77,8.45C277.72,296.66,274.47,289.39,263,288.21Z"/><path class="cls-6" d="M247.59,286.74s9.52-6.26,17.31-7"/><path class="cls-6" d="M263,288.21a19.28,19.28,0,0,0-9.07-5"/><path class="cls-7" d="M305.8,286.74s-2.46,10.06,3.28,14.43C309.08,301.17,311.54,292.27,305.8,286.74Z"/><path class="cls-6" d="M325.5,285.73a6.79,6.79,0,0,1,8.48-2.48s1.91-7.58,9.57-4.81"/><path class="cls-7" d="M496.46,148.54s9.67,8.66,25.67,6.33C522.13,154.87,513.8,146.2,496.46,148.54Z"/><path class="cls-7" d="M529.13,181.87s13.33,0,19-14.67C548.13,167.2,534.13,171.53,529.13,181.87Z"/><path class="cls-7" d="M469.8,281.78s0-10.58,11.67-16.58A20.59,20.59,0,0,1,469.8,281.78Z"/><path class="cls-7" d="M464.47,289.53s7.25,7.4,19.35,2A25.56,25.56,0,0,0,464.47,289.53Z"/><path class="cls-7" d="M466.8,265.2s-10.86,6.31-8.33,16.58C458.47,281.78,466.35,278.62,466.8,265.2Z"/><path class="cls-5" d="M469.8,281.78a90.17,90.17,0,0,1-25,22.68"/><path class="cls-5" d="M458.47,281.78a21.67,21.67,0,0,0-2.14,14.29"/><path class="cls-7" d="M526,285.73s6.63-12.56,16.17-14.22C542.2,271.51,544.27,281.71,526,285.73Z"/><path class="cls-7" d="M534.15,288.92s14.3,7.93,23.83,2.21C558,291.13,548.65,285.07,534.15,288.92Z"/><path class="cls-5" d="M513.59,283.25s10.37,5.5,20.56,5.67"/><path class="cls-5" d="M520.08,253.79s0-6.49,9.1-6.28a8.18,8.18,0,0,1,9.53-4.11"/><path class="cls-7" d="M553.87,262.24a17.38,17.38,0,0,0,17.75,1.3A22.4,22.4,0,0,0,553.87,262.24Z"/><path class="cls-6" d="M453.22,374.48s2-5.76,9.41-5.12c0,0,0-6.4,7.17-6.4"/><path class="cls-7" d="M489.13,118.7s3.72,6.08,14,6.92C503.1,125.62,496.27,116.84,489.13,118.7Z"/><path class="cls-6" d="M230.84,264.34s.95-5.69,6-5.69c0,0,1.59-6.9,8.23-6.78"/><line class="cls-5" x1="526.03" y1="285.73" x2="523.12" y2="287.04"/><path class="cls-6" d="M522.83,447.13s5.73,7,14,8.2"/><path class="cls-8" d="M648.86,378.66s4.38,33.62-23.91,60.18C597.15,464.93,511.6,485.06,485,419.27Z"/><path class="cls-8" d="M546.73,364.65c27.84-8.86,79.17-10.94,98.51,6.93s-43.42,47.07-78.44,56.55-90.26,9.18-82.19-20.42C489.3,390.53,516.06,374.42,546.73,364.65Z"/><path class="cls-6" d="M548.44,388.31s-40.33-4.35-43.54,6.42S548.44,388.31,548.44,388.31Z"/><path class="cls-6" d="M551.88,392.86S518.16,404.25,518,418.2a2.32,2.32,0,0,0,2.52,2.28C535.17,419.35,551.88,392.86,551.88,392.86Z"/><path class="cls-6" d="M558.52,395.83s-12.65,15.73-8.47,24.73a3,3,0,0,0,4.75.91C561,415.42,558.52,395.83,558.52,395.83Z"/><path class="cls-6" d="M577.31,387.44c13.5-8.78,52.93-17.37,53.17-8.78C630.68,386,589.92,388.54,577.31,387.44Z"/><path class="cls-6" d="M568.83,393.81s6.73,13.82,18.57,13.12a3.29,3.29,0,0,0,2.41-5.31C583.68,393.81,568.83,393.81,568.83,393.81Z"/><path class="cls-6" d="M570.25,383.21c6.16.72,20.42-11.82,16.17-15.85S569.78,377.1,570.25,383.21Z"/><path class="cls-6" d="M560.25,381.4c2.9-2.07,6.41-13,2.68-13.87C558.54,366.52,557.52,379.15,560.25,381.4Z"/><path class="cls-6" d="M538.94,376.73c2.14-3.21,14,2,15.17,6.78C548.84,384,536.22,380.81,538.94,376.73Z"/><path class="cls-5" d="M531.11,447.13a11,11,0,0,0,6.59,4.1"/><path class="cls-5" d="M620.14,412.89s-1.49,13.43-9.13,19.48"/><path class="cls-5" d="M611.8,417s-.5,5.65-4.4,9.2"/><path class="cls-5" d="M630.48,410a14.09,14.09,0,0,1-2,6.64"/><path class="cls-7" d="M922.19,354.66s7.45-14.91,18.42-18.41A35.13,35.13,0,0,1,922.19,354.66Z"/><path class="cls-7" d="M937.54,354.66s11.11-6.33,22.22-4.26C959.76,350.4,953.32,360.37,937.54,354.66Z"/><path class="cls-6" d="M906.84,356.43a195,195,0,0,0,30.7-1.77"/><line class="cls-6" x1="922.19" y1="354.66" x2="919.67" y2="356.43"/><path class="cls-7" d="M914,386.48s8,11,22.6,2.91C936.62,389.39,927.54,384.08,914,386.48Z"/><path class="cls-7" d="M204.76,425.54s-6.66,11,0,21.43C204.76,447,211.88,439.25,204.76,425.54Z"/><path class="cls-7" d="M339.71,473.57s10-10,21.83-5.69C361.54,467.88,358.26,475.44,339.71,473.57Z"/><path class="cls-8" d="M379,444.67s6.16,36,55.64,40.07,78-22.21,79.87-59.24Z"/><path class="cls-8" d="M379,444.67c-4.44-13.37,32.12-27.62,64.24-33.41s66.17-2.57,70.67,9.64-16.24,23.28-58.9,29.63S381.44,452.09,379,444.67Z"/><path class="cls-5" d="M401,462.2s6.12,9,13.69,11.37"/><path class="cls-5" d="M410.91,462.2s7.28,10.78,19.81,14"/><path class="cls-5" d="M482.59,455.33S482,465.41,475,472.11"/><path class="cls-5" d="M489.3,453.48s-.59,5.22-3.5,8.72"/><path class="cls-6" d="M395.41,435.87c-1.6-2.77,9.8-6.4,15.5-7.56,5.45-1.12,15.53-1.66,17.78-.8-1.23,4.2-7.88,6.89-15.63,8.22C404.44,437.22,396.14,437.14,395.41,435.87Z"/><path class="cls-6" d="M453.27,426.58c1.11-6.1,24.35-16.56,27.91-10.53C485.66,423.62,456,427.36,453.27,426.58Z"/><path class="cls-6" d="M446.55,432.54c3,1.12,11.61,9.74,8.95,12.35C451.81,448.51,445.36,435.28,446.55,432.54Z"/><path class="cls-6" d="M419.64,446.1c-1.89-3.24,9.77-13.56,15.84-13.56,1.89,2.61-1.62,7.93-4.76,10.91C426.87,447.12,420.62,447.77,419.64,446.1Z"/><path class="cls-6" d="M432.19,417.8c3.29-1,12,3.35,12.26,6.28s-5.12,3.9-9,0S432.19,417.8,432.19,417.8Z"/><path class="cls-6" d="M456,432.89c4.64-4.72,38.54-7.93,38.61-1.18C494.61,435.71,461.51,439,456,432.89Z"/><path class="cls-5" d="M216.78,401.85s45.46,60.35,100.08,51.44"/><path class="cls-5" d="M295.82,435s-15.14,9.66-34.27,6.12"/><path class="cls-5" d="M276.38,448.33a53.08,53.08,0,0,0,16.35,14.84"/><path class="cls-5" d="M241.55,427.09s3,13.61,8.81,21.24"/><path class="cls-8" d="M316.86,453.29c.38-9.48,11.05-14.82,13.7-12.85,3.58,2.66-3,9.4-3,9.4s10.08.2,10.35,3.64-8.58,2.27-8.58,2.27,8.72,2.87,7.49,6.45-8.85-1.05-8.85-1.05,3.11,5,1,6.34S316.42,464.31,316.86,453.29Z"/><path class="cls-8" d="M286,471.92c-2.22-2.86,1.93-8,9.77-9.4,10.14-1.85,16.39,4.58,14.17,7.89-1.69,2.51-6.87-.1-6.87-.1s10,7.77,5.67,11.2C305.2,484.31,301,477,301,477s-.81,7.54-4.34,6.44c-4.05-1.25-3.84-12.4-3.84-12.4S287.91,474.39,286,471.92Z"/><path class="cls-8" d="M295.88,434.94c-1.7-3.72,2.43-7.67,5.48-8s3,1.93,1.63,3.18c0,0,2.93,0,1.55,2.37,0,0,2.06.24,2.06,1.74C306.6,437.25,297.81,439.18,295.88,434.94Z"/><path class="cls-8" d="M249.38,448.59c5.9-2.79,11.12.75,13.57,4.19s1.72,7.33-2.38,4c0,0,1.95,6.63-1.36,7.49s-5-7.34-5-7.34,1.44,9.74-2.45,9.7-2.88-9.22-2.88-9.22-2.07,5.77-5,3.67C241.54,459.48,243.09,451.56,249.38,448.59Z"/><path class="cls-5" d="M757.68,445s68.41-50.83,92.06-127.52"/><path class="cls-8" d="M854.11,295.23c3.15.23,2.11,9.16,2.11,9.16s6.75-4.51,8.71-1.8-3.46,7.65-7.81,9.76c0,0,8.48-.45,8.22,3.15s-9.11,4.05-16.4,1.5-12.09-7.39-11-10.08,7.2,1.82,7.2,1.82-3.9-9.31-.15-10.66,4.66,6.91,4.66,6.91S850.06,294.93,854.11,295.23Z"/><path class="cls-8" d="M826.28,325.48c3-.23,4,6.75,4.65,11.5,0,0,4-5.75,6.82-3.87s-2.29,9.29-2.29,9.29,5.55-3.59,6.75-.66c1,2.4-3.37,7.35-13.72,8.07-8.65.6-14.26-4.42-12.82-7.19s6.63,1,6.63,1-7.92-9.12-4.09-11.39c3.17-1.88,6,5,6,5S822.08,325.81,826.28,325.48Z"/><path class="cls-8" d="M792.79,367.63c2.15-1.22,4.55.75,6.22,3.33,0,0-.7-12.28,3.19-13.5s4.09,10.32,4.09,10.32,2-7,5.31-6.22-1.06,10.16-1.06,10.16,3.5-2.3,4.9,0c1.53,2.51-4.8,9.5-13.39,8C795.27,378.61,789.31,369.6,792.79,367.63Z"/><path class="cls-5" d="M882.14,376.61s-46.22,40.79-101.3,48"/><path class="cls-8" d="M881.57,375.34c-1.51-4.65,4.71-14.66,7.92-14.09s.6,6.95.6,6.95,5.44-5.5,7.2-3.77-2.67,5.86-2.67,5.86,5.41-1.66,5.8.87-5.38,3-5.38,3,5.67-.57,5.14,2.12S884.1,383.12,881.57,375.34Z"/><path class="cls-8" d="M861.78,404.77c1.65,1.74-2.16,5.61-2.16,5.61s5.6-1,5.73,1.91-6.88,2.67-6.88,2.67,4.84,1.4,4.46,3.69-10.95,2.55-13.75-2.41S859.24,402.1,861.78,404.77Z"/><path class="cls-5" d="M802.05,379.76s-2.73,14.19.34,21.52"/><path class="cls-5" d="M828.49,349.81s1,6.8,3.35,9"/><path class="cls-5" d="M848.78,414.78s-14,3.07-23.41-3"/><path class="cls-8" d="M866.25,347.19a14.69,14.69,0,0,0,1.29-1.13c2.52-2.52,3.7-5.43,2.63-6.5s-4,.11-6.51,2.63c-.13.13-.24.27-.37.41-.29-2.83-1.36-4.93-2.65-4.93-1.51,0-2.74,2.89-2.74,6.46,0,5.73,2.24,7.85,7.42,8.45,3.54.41,6.55-.55,6.7-2.05S869.61,347.62,866.25,347.19Z"/><path class="cls-5" d="M859.79,350.4s-11.64,15.2-34.42,19.36"/><path class="cls-8" d="M858.57,368.81c-1.1-.55-2.8.54-4.2,2.51-.35-2.08-1.43-3.61-2.73-3.61-1.58,0-2.86,2.25-2.86,5a8.34,8.34,0,0,0,.25,2.05h0c-3.2-1-6.16-.6-6.62.88s1.77,3.47,5,4.46c2.76.86,8.33.84,11-4.64C859.83,372.47,860,369.5,858.57,368.81Z"/><path class="cls-5" d="M853.56,380s-.6,9.68,1.07,16.43"/><path class="cls-6" d="M630.48,453.48s8.25,10.94,21.53,6.14C652,459.62,645,451.18,630.48,453.48Z"/></g></svg>