<svg xmlns="http://www.w3.org/2000/svg" viewBox="0 0 1243.07 199.8"><defs><style>.cls-1{fill:#fff;}</style></defs><title>MAIN00</title><g id="圖層_2" data-name="圖層 2"><g id="圖層_1-2" data-name="圖層 1"><path class="cls-1" d="M568.16,76.38s8.15-11.76,18.5-9.45c5.93,1.32,3.52,9.63,3.52,9.63s12.38-1.22,12.38,3.06-11.31,3.82-23.39,3.82S556.08,85,556.08,80.08C556.08,75.91,568.16,76.38,568.16,76.38Z"/><path d="M566.22,83.77c-4.55,0-8-.33-9.45-1.78a2.54,2.54,0,0,1-.79-1.91,2.21,2.21,0,0,1,.74-1.63c1.08-1,3.34-1.73,6.71-2a43.39,43.39,0,0,1,4.68-.14c.57-.8,8.6-11.67,18.57-9.45a4.73,4.73,0,0,1,3.19,2.22c1.55,2.62.64,6.6.44,7.4a43.28,43.28,0,0,1,4.71-.14c3.45.11,5.77.67,6.89,1.68a2.14,2.14,0,0,1,.75,1.63,2.25,2.25,0,0,1-.7,1.64c-2.36,2.35-10.34,2.32-19.58,2.29h-3.21c-2.45,0-4.82.06-7.12.12C570,83.72,568,83.77,566.22,83.77Zm.93-7.31c-2.38,0-8.29.21-10.3,2.14a2,2,0,0,0-.67,1.48,2.36,2.36,0,0,0,.73,1.77c2,2,8.09,1.8,15.13,1.61,2.3-.06,4.68-.12,7.13-.12h3.21c9.19,0,17.14.06,19.44-2.24a2,2,0,0,0,.64-1.49,1.94,1.94,0,0,0-.69-1.48c-2.58-2.34-11.49-1.49-11.58-1.48a.1.1,0,0,1-.09,0,.1.1,0,0,1,0-.09s1.29-4.55-.38-7.38A4.59,4.59,0,0,0,586.64,67c-5.31-1.18-10,1.44-13,3.84a30,30,0,0,0-5.35,5.58.1.1,0,0,1-.09,0S567.76,76.46,567.15,76.46Z"/><path class="cls-1" d="M.12,154.77c-.49-3.68,11.11-6.2,15.25-4.6,0,0,4.15-9.19,16.09-15,14.41-7,26.36-3,23.88,3,0,0,15-5,24-1.16,9.23,4-1.16,9.79-1.16,9.79s9.34.2,9.33,3.94c0,4-17.69,10-44.65,4,0,0-14.76,10.64-26.86,1C16,155.78.78,159.74.12,154.77Z"/><path d="M27.63,159.9a18.32,18.32,0,0,1-11.62-4c-.91.23-11.47,2.86-14.93.54A2.29,2.29,0,0,1,0,154.78H0a2.55,2.55,0,0,1,1.23-2.3c3-2.35,10.69-3.67,14.07-2.43.46-1,4.87-9.51,16.09-15,10.47-5.07,19.7-4.42,23.06-1.24a3.7,3.7,0,0,1,1,4.16c1.82-.57,15.49-4.7,23.91-1.09,2.5,1.07,3.8,2.38,3.88,3.9.07,1.31-.76,2.73-2.46,4.22a17.08,17.08,0,0,1-2.28,1.67c1.72.08,9.1.61,9.09,4a2.94,2.94,0,0,1-1.34,2.09c-2.58,2.06-8.16,3.67-14.92,4.29a93,93,0,0,1-28.47-2.26A31.34,31.34,0,0,1,34,159,23.78,23.78,0,0,1,27.63,159.9ZM16,155.68a.07.07,0,0,1,.06,0c6.22,5,13.15,4.41,17.87,3.09a31.46,31.46,0,0,0,8.87-4.1.08.08,0,0,1,.08,0,92.93,92.93,0,0,0,28.45,2.26c10-.92,13.86-3.48,14.82-4.25a2.77,2.77,0,0,0,1.26-1.93c0-3.6-9.14-3.84-9.23-3.84a.11.11,0,0,1-.1-.08.1.1,0,0,1,0-.11s5.09-2.89,4.93-5.88c-.08-1.44-1.34-2.69-3.76-3.72-8.92-3.83-23.82,1.11-24,1.16a.11.11,0,0,1-.11,0,.12.12,0,0,1,0-.1,3.49,3.49,0,0,0-.91-4.15c-3.31-3.13-12.44-3.75-22.83,1.28-11.77,5.71-16,14.84-16,14.94a.1.1,0,0,1-.12.05c-3.29-1.28-11,0-14,2.37a2.38,2.38,0,0,0-1.17,2.11h0a2.16,2.16,0,0,0,1,1.51c3.47,2.33,14.71-.55,14.82-.58Z"/><path class="cls-1" d="M84.71,91.88c-.44-1.64,3.05-2.27,3.93-1.85a8.92,8.92,0,0,1,3.52-4.52c2.84-2,6.23-.81,5.75.95,0,0,5-2,8.4-.65,4,1.53,2.3,4.22,2.3,4.22s3.52,0,3.46,2.39-9.15,3.11-15.31.88c0,0-4.19,2.44-7.38-1C89.38,92.35,85.19,93.64,84.71,91.88Z"/><path d="M105.05,94.74a25.41,25.41,0,0,1-8.28-1.33c-.45.24-4.39,2.21-7.42-1-.43.13-3,.82-4.15.16a1.12,1.12,0,0,1-.58-.72,1.15,1.15,0,0,1,.46-1.25,4.62,4.62,0,0,1,3.5-.75,9.14,9.14,0,0,1,3.52-4.47,4.89,4.89,0,0,1,5.27-.49,1.46,1.46,0,0,1,.68,1.36c.9-.33,5.21-1.77,8.3-.58a4,4,0,0,1,2.58,2.21,2.75,2.75,0,0,1-.15,2,4.53,4.53,0,0,1,2.84,1,2,2,0,0,1,.55,1.45,1.42,1.42,0,0,1-.73,1.09C110.29,94.29,107.86,94.74,105.05,94.74ZM96.76,93.2h0c5.17,1.88,12.31,1.65,14.52.15a1.23,1.23,0,0,0,.65-.94,1.75,1.75,0,0,0-.49-1.3,4.71,4.71,0,0,0-2.87-1,.09.09,0,0,1-.08-.15,2.57,2.57,0,0,0,.21-2,3.78,3.78,0,0,0-2.47-2.09c-3.37-1.29-8.27.63-8.32.65a.08.08,0,0,1-.1,0,.09.09,0,0,1,0-.1,1.2,1.2,0,0,0-.57-1.32,4.68,4.68,0,0,0-5,.48,8.78,8.78,0,0,0-3.48,4.47.13.13,0,0,1-.06.07.08.08,0,0,1-.08,0,4.48,4.48,0,0,0-3.39.68,1,1,0,0,0-.4,1h0a1,1,0,0,0,.48.6c1.21.67,4-.19,4.06-.2a.11.11,0,0,1,.11,0c3.09,3.29,7.21,1,7.25.93Z"/><path class="cls-1" d="M513.7,58.29c-.78-4.3,13.2-8.8,12.41-3.72,0,0,10.56-.49,10.56,2.74S514.55,62.94,513.7,58.29Z"/><path d="M522.17,61a26.94,26.94,0,0,1-4.25-.29c-2.61-.4-4.11-1.23-4.32-2.39h0c-.21-1.18.64-2.48,2.4-3.67,2.8-1.89,7.54-3.15,9.44-1.94a1.69,1.69,0,0,1,.79,1.78c1,0,8-.23,10,1.67a1.57,1.57,0,0,1,.54,1.17c0,1.66-5.3,3-10.53,3.48C524.83,60.92,523.46,61,522.17,61Zm1.17-8.58a14.63,14.63,0,0,0-7.23,2.4c-1.69,1.13-2.51,2.37-2.31,3.47h0c.42,2.34,6.55,2.85,12.42,2.32s10.35-1.94,10.35-3.28a1.4,1.4,0,0,0-.48-1c-2.05-2-9.89-1.61-10-1.61a.1.1,0,0,1-.11-.11,1.58,1.58,0,0,0-.67-1.71A3.82,3.82,0,0,0,523.34,52.4Z"/><path class="cls-1" d="M772.51,43.43c-.31-6.29-18.83-10.16-18.83-10.16-1.4-13.54-22.66-17-22.66-17,7.91-12.86-7.3-21.31-23.3-12.76-12.44,6.65-16.3,15.91-16.3,15.91s-13.64-3.23-18.56,8.44c0,0-21.58-3.81-29.22,13.68-3.88-.8-22.5,1.44-22,6.93.3,3.53,17.36,2.75,25.53-.38a60,60,0,0,0,49.11,1.14s19.69,13.77,40.37.55C736.61,49.83,772.94,52.29,772.51,43.43Z"/><path d="M717.38,55.65a37.37,37.37,0,0,1-8.73-1,40.55,40.55,0,0,1-12.42-5.21A59.9,59.9,0,0,1,661.74,53a55.58,55.58,0,0,1-14.62-4.77c-7.42,2.82-21.28,3.64-24.76,1.46a1.6,1.6,0,0,1-.86-1.18A3.09,3.09,0,0,1,622.74,46c4-3.56,17.31-5.16,20.84-4.49,4-9,11.71-12.26,17.52-13.38a36.26,36.26,0,0,1,11.7-.3A14,14,0,0,1,684,19.22a21.53,21.53,0,0,1,7.39.14c.41-.91,4.58-9.61,16.32-15.89A27,27,0,0,1,721.37,0c4,.16,7.47,1.51,9.61,3.78,3,3.19,3.06,7.71.21,12.44a47.2,47.2,0,0,1,10.68,3.38c9.06,4.2,11.48,9.68,11.9,13.57,1.44.3,18.53,4.07,18.83,10.24A3.27,3.27,0,0,1,771.51,46c-5.88,5.77-33.29,4-34.87,3.93A35.32,35.32,0,0,1,717.38,55.65Zm-21.14-6.47,0,0a39.77,39.77,0,0,0,12.41,5.22,35.44,35.44,0,0,0,27.86-4.68.07.07,0,0,1,.06,0c.07,0,7.3.48,15.17.24,7.25-.22,16.53-1.11,19.58-4.11a3.11,3.11,0,0,0,1-2.42c-.16-3.2-5.24-5.77-9.47-7.36a71.79,71.79,0,0,0-9.28-2.71.12.12,0,0,1-.08-.09c-.4-3.84-2.77-9.29-11.79-13.47A47.17,47.17,0,0,0,731,16.41a.09.09,0,0,1-.08-.05.12.12,0,0,1,0-.1c2.88-4.69,2.85-9.18-.11-12.32-3.93-4.17-13.11-5.61-23.06-.29A41.26,41.26,0,0,0,695,14.07a25.75,25.75,0,0,0-3.48,5.44.09.09,0,0,1-.11.06,21.23,21.23,0,0,0-7.41-.16A13.83,13.83,0,0,0,673,28a.1.1,0,0,1-.11.06,36.24,36.24,0,0,0-11.72.28c-5.77,1.12-13.47,4.35-17.4,13.34a.1.1,0,0,1-.11.06c-3.39-.7-16.74.88-20.74,4.43a2.9,2.9,0,0,0-1.18,2.4,1.4,1.4,0,0,0,.76,1c3.38,2.12,17.42,1.27,24.63-1.49h.09a54.5,54.5,0,0,0,14.61,4.78,59.67,59.67,0,0,0,34.41-3.64Z"/><path d="M735.05,39.53l-.16-.12s2.36-3.28.86-5.22c-2.23-2.89-8.58,1.55-8.65,1.59a.08.08,0,0,1-.08,0,.09.09,0,0,1-.06-.06c-1-1.94-3.7-4-6.39-2.82a7.07,7.07,0,0,0-4.12,5.23l-.2,0a7.32,7.32,0,0,1,4.24-5.39c2.76-1.21,5.56.84,6.59,2.82.85-.58,6.61-4.36,8.83-1.49C737.5,36.12,735.15,39.39,735.05,39.53Z"/><path class="cls-1" d="M1077.1,189.56s-6,.48-5.72,4,5.92,2.36,5.92,2.36,6.53,8,18,.82a20.58,20.58,0,0,0,12.59,2.8c8.11-1,10.6-8.76.82-10,0,0-1.26-6.33-6.69-7.22s-9.38,3-9.38,3-2.41-6.39-9.31-3.33C1078.75,184,1077.1,189.56,1077.1,189.56Z"/><path d="M1086.09,199.8a12.12,12.12,0,0,1-4.12-.71,11.82,11.82,0,0,1-4.71-3.08c-.46.09-3.42.57-5-.63a2.45,2.45,0,0,1-1-1.84c-.12-1.48.86-2.65,2.82-3.4a12.19,12.19,0,0,1,2.92-.67c.21-.63,2-5.65,6.29-7.57a6.52,6.52,0,0,1,9.38,3.25c.68-.61,4.44-3.79,9.36-3,5.13.84,6.6,6.53,6.76,7.23,4,.54,6.39,2.26,6.38,4.62,0,2.7-3.14,5.1-7.27,5.59a20.83,20.83,0,0,1-12.6-2.77A18,18,0,0,1,1086.09,199.8Zm-8.79-4a.12.12,0,0,1,.08,0,11.53,11.53,0,0,0,4.67,3.06c5,1.8,10-.23,13.21-2.26a.11.11,0,0,1,.11,0,20.61,20.61,0,0,0,12.53,2.78c4.58-.55,7.07-3.19,7.09-5.4s-2.34-3.92-6.27-4.43c0,0-.08,0-.08-.08s-1.32-6.28-6.62-7.14-9.25,3-9.29,3a.16.16,0,0,1-.09,0,.11.11,0,0,1-.08-.07,6.33,6.33,0,0,0-9.16-3.27c-4.51,2-6.19,7.45-6.21,7.51a.09.09,0,0,1-.09.07s-5.88.51-5.62,3.87a2.2,2.2,0,0,0,.89,1.69c1.62,1.23,4.88.59,4.91.58Z"/><path class="cls-1" d="M1164.39,180.15s-6,.28-5.5,2.94,5.5.91,5.5.91,3.7,2.71,11.69,2.18,7.54-6.56,1.66-5.73c0,0,2-2.79-.15-4.9S1168.16,174.8,1164.39,180.15Z"/><path d="M1174.08,186.35a22.53,22.53,0,0,1-6.87-1,11,11,0,0,1-2.83-1.27c-.43.15-3.19,1.11-4.69.27a1.74,1.74,0,0,1-.9-1.27,1.57,1.57,0,0,1,.31-1.32c1.15-1.46,4.75-1.71,5.24-1.74a13.6,13.6,0,0,1,9.32-5.51,5.17,5.17,0,0,1,4,.94,3.31,3.31,0,0,1,.92,3.34,5.47,5.47,0,0,1-.64,1.51c1.76-.2,3.21.21,3.89,1.13a2,2,0,0,1,.18,2.07c-.7,1.53-2.92,2.56-5.92,2.75C1175.38,186.33,1174.71,186.35,1174.08,186.35Zm-9.69-2.45a.07.07,0,0,1,.06,0s3.77,2.68,11.62,2.17c2.93-.2,5.09-1.19,5.76-2.64a1.77,1.77,0,0,0-.16-1.87c-.66-.89-2.13-1.28-3.92-1a.09.09,0,0,1-.1-.05.09.09,0,0,1,0-.11c.08-.11,2-2.74-.14-4.77a5,5,0,0,0-3.84-.88,13.35,13.35,0,0,0-9.21,5.47.1.1,0,0,1-.07,0c-.05,0-4,.2-5.14,1.67a1.37,1.37,0,0,0-.28,1.15,1.61,1.61,0,0,0,.8,1.14c1.52.84,4.54-.29,4.57-.31Z"/><path class="cls-1" d="M1216.49,141.61c-47.84,15.63-65.47-2.5-65.47-2.5s-13.37,1.66-13.85-2.72c-.68-6.13,13.85-5.2,13.85-5.2s6.68-11,24.4-16.31,33.36-.11,27.26,12.91c5.81-7,25-8.67,25.31.67,0,0,12.29-3.38,14.57,1.94C1245.57,137.45,1231.61,147,1216.49,141.61Z"/><path d="M1181,148.05a63.48,63.48,0,0,1-15.23-1.73c-9.81-2.44-14.36-6.68-14.81-7.11-.83.1-10,1.14-13-1.23a2.28,2.28,0,0,1-.93-1.57,3.21,3.21,0,0,1,.91-2.7c1.29-1.35,3.88-2.2,7.7-2.53a41.46,41.46,0,0,1,5.28-.09c.53-.83,7.5-11.23,24.43-16.31a43.31,43.31,0,0,1,16.21-1.92c4.85.45,8.52,2,10.62,4.41s2.5,6,.81,10a18.6,18.6,0,0,1,9.08-4.67,21,21,0,0,1,11.11.1c3,1,4.73,3,4.86,5.66,1.36-.36,12.38-3.08,14.57,2,1,2.25.24,4.89-2,7.24-4.46,4.74-14.2,7.68-24.19,4.12C1206.75,144.9,1193.85,148.05,1181,148.05Zm-30-9a.11.11,0,0,1,.07,0s4.52,4.55,14.76,7.09c17.15,4.25,37-.16,50.61-4.62h.07c9.91,3.55,19.58.64,24-4.06,2.16-2.29,2.86-4.85,1.93-7-2.22-5.18-14.32-1.92-14.45-1.88a.08.08,0,0,1-.08,0,.09.09,0,0,1,0-.08c-.11-3.33-2.63-4.89-4.73-5.6-6.29-2.15-16.58.37-20.4,5a.11.11,0,0,1-.14,0,.09.09,0,0,1,0-.12c1.93-4.14,1.75-7.71-.52-10.35-4.2-4.87-15.15-5.87-26.62-2.43-17.48,5.25-24.28,16.16-24.35,16.27a.1.1,0,0,1-.08,0h0c-.1,0-9.88-.59-12.89,2.56a3,3,0,0,0-.85,2.53,2.07,2.07,0,0,0,.85,1.44c3,2.38,12.79,1.2,12.88,1.19Z"/><path class="cls-1" d="M1074.32,88.71s-8,.57-8,4.42,4.5,4.13,22.08,4.13,33.27,1.28,33.27-4.28-9.13-5-9.13-5-.57-6.63-10.26-8.25a22.75,22.75,0,0,0-13.88,2.58S1077.58,78.58,1074.32,88.71Z"/><path d="M1104.15,97.48c-2.29,0-4.74,0-7.31-.06-2.73,0-5.56-.06-8.45-.06-17.2,0-22.16-.18-22.18-4.23,0-1.62,1.4-2.92,4.07-3.75a19.88,19.88,0,0,1,4-.76,9.74,9.74,0,0,1,4.83-6c4-2,8.8-.59,9.3-.42.56-.32,6.81-3.76,13.9-2.58,2.79.47,6.58,1.67,8.84,4.77a8.11,8.11,0,0,1,1.5,3.48c.76,0,5.5-.14,7.85,2.08a4,4,0,0,1,1.29,3,2.67,2.67,0,0,1-.83,2C1118.74,97.09,1112.49,97.48,1104.15,97.48ZM1084,81.73a10.86,10.86,0,0,0-4.82,1,9.62,9.62,0,0,0-4.75,6,.1.1,0,0,1-.09.07c-.08,0-7.93.61-7.92,4.32s4.93,4,22,4c2.89,0,5.72,0,8.45.06,11.39.14,21.22.26,24-2.44a2.41,2.41,0,0,0,.77-1.8,3.84,3.84,0,0,0-1.22-2.9c-2.44-2.31-7.75-2-7.8-2h0a.1.1,0,0,1-.1-.09,7.65,7.65,0,0,0-1.48-3.48c-1.23-1.68-3.73-3.85-8.7-4.68-7.32-1.22-13.74,2.53-13.81,2.57a.08.08,0,0,1-.08,0A15.11,15.11,0,0,0,1084,81.73Z"/></g></g></svg>