<svg id="圖層_1" data-name="圖層 1" xmlns="http://www.w3.org/2000/svg" viewBox="0 0 2136 464"><defs><style>.cls-1{fill:#fff;}.cls-1,.cls-2{stroke:#000;stroke-linejoin:round;stroke-width:0.33px;}.cls-2{fill:none;}</style></defs><title>main00-cloud</title><path class="cls-1" d="M994,229.63s13.53-19.52,30.72-15.7c9.86,2.19,5.84,16,5.84,16s20.57-2,20.57,5.08-18.79,6.35-38.85,6.35S974,243.9,974,235.77C974,228.86,994,229.63,994,229.63Z"/><path class="cls-1" d="M50.7,359.8c-.81-6.1,18.45-10.29,25.34-7.62,0,0,6.88-15.27,26.71-24.88,23.93-11.6,43.78-4.95,39.65,5,0,0,24.89-8.38,39.93-1.93,15.33,6.57-1.92,16.25-1.92,16.25s15.5.34,15.48,6.54c0,6.72-29.36,16.67-74.14,6.67,0,0-24.51,17.68-44.61,1.68C77.14,361.48,51.8,368.07,50.7,359.8Z"/><path class="cls-1" d="M191.18,255.37c-.73-2.72,5.06-3.76,6.52-3.06a14.76,14.76,0,0,1,5.85-7.51c4.72-3.26,10.35-1.35,9.56,1.57,0,0,8.21-3.28,13.94-1.08,6.59,2.54,3.82,7,3.82,7s5.85,0,5.74,3.95-15.18,5.18-25.41,1.47c0,0-7,4-12.26-1.58C198.94,256.15,192,258.29,191.18,255.37Z"/><path class="cls-1" d="M903.57,199.58c-1.29-7.14,21.92-14.6,20.62-6.16,0,0,17.53-.82,17.53,4.54S905,207.31,903.57,199.58Z"/><path class="cls-1" d="M1333.35,174.91c-.51-10.45-31.26-16.87-31.26-16.87-2.33-22.49-37.62-28.15-37.62-28.15,13.13-21.35-12.13-35.38-38.7-21.18-20.67,11-27.07,26.42-27.07,26.42s-22.65-5.38-30.81,14c0,0-35.85-6.34-48.54,22.71-6.44-1.33-37.36,2.39-36.59,11.51.5,5.86,28.83,4.56,42.39-.63,0,0,37.62,20.55,81.55,1.89,0,0,32.71,22.87,67,.91C1273.75,185.54,1334.08,189.63,1333.35,174.91Z"/><path class="cls-2" d="M1240.11,166.12a11.78,11.78,0,0,1,6.94-8.82c4.71-2.07,9.28,1.64,10.81,4.78,0,0,10.75-7.59,14.59-2.62,2.59,3.36-1.43,8.88-1.43,8.88"/><path class="cls-1" d="M1839.17,417.58s-10,.79-9.5,6.6,9.84,3.93,9.84,3.93,10.84,13.24,29.91,1.37a34.14,34.14,0,0,0,20.91,4.63c13.47-1.61,17.61-14.53,1.37-16.65,0,0-2.1-10.51-11.11-12s-15.58,5.06-15.58,5.06-4-10.6-15.45-5.53C1841.92,408.4,1839.17,417.58,1839.17,417.58Z"/><path class="cls-1" d="M1984.13,402s-10,.46-9.14,4.88c.91,4.63,9.14,1.51,9.14,1.51s6.14,4.5,19.41,3.63,12.52-10.9,2.76-9.52c0,0,3.38-4.63-.25-8.14S1990.39,393.07,1984.13,402Z"/><path class="cls-1" d="M2070.66,338c-79.46,26-108.74-4.16-108.74-4.16s-22.2,2.76-23-4.51c-1.12-10.18,23-8.64,23-8.64s11.1-18.26,40.53-27.09,55.39-.18,45.26,21.44c9.66-11.67,41.52-14.39,42,1.12,0,0,20.41-5.62,24.19,3.23C2119,331.05,2095.75,346.94,2070.66,338Z"/><path class="cls-1" d="M1834.56,250.11s-13.33.94-13.3,7.34,7.47,6.85,36.67,6.85,55.24,2.13,55.24-7.1-15.15-8.35-15.15-8.35-1-11-17.06-13.7c-12.35-2.06-23,4.29-23,4.29S1840,233.29,1834.56,250.11Z"/></svg>