<svg xmlns="http://www.w3.org/2000/svg" width="2494.589" height="400.829" viewBox="0 0 2494.589 400.829">
  <g id="Group_2724" data-name="Group 2724" transform="translate(0.107 -228.834)">
    <path id="Path_2712" data-name="Path 2712" d="M593.518,271.188s16.351-23.592,37.13-18.972c11.907,2.649,7.058,19.333,7.058,19.333s24.856-2.454,24.856,6.137-22.708,7.673-46.95,7.673-46.336,3.069-46.336-6.751C569.276,270.25,593.518,271.188,593.518,271.188Z" transform="translate(546.536 110.838)" fill="#fff" stroke="#000" stroke-linejoin="round" stroke-width="0.2"/>
    <path id="Path_2713" data-name="Path 2713" d="M13.327,363.188c-.983-7.378,22.3-12.445,30.62-9.218,0,0,8.319-18.454,32.281-30.066,28.928-14.016,52.917-5.979,47.925,6,0,0,30.078-10.119,48.257-2.33,18.528,7.939-2.33,19.636-2.33,19.636s18.737.411,18.719,7.907c-.018,8.12-35.491,20.154-89.607,8.068,0,0-29.618,21.358-53.914,2.025C45.278,365.213,14.66,373.173,13.327,363.188Z" transform="translate(-13.297 176.156)" fill="#fff" stroke="#000" stroke-linejoin="round" stroke-width="0.2"/>
    <path id="Path_2714" data-name="Path 2714" d="M97.948,284.308c-.885-3.281,6.113-4.538,7.881-3.7a17.806,17.806,0,0,1,7.064-9.078c5.708-3.94,12.5-1.63,11.55,1.9,0,0,9.92-3.964,16.85-1.3,7.966,3.063,4.62,8.475,4.62,8.475s7.066.028,6.93,4.782-18.343,6.251-30.71,1.766c0,0-8.423,4.893-14.811-1.9C107.322,285.259,98.9,287.84,97.948,284.308Z" transform="translate(71.863 128.818)" fill="#fff" stroke="#000" stroke-linejoin="round" stroke-width="0.2"/>
    <path id="Path_2715" data-name="Path 2715" d="M526.929,249.286c-1.569-8.63,26.481-17.653,24.912-7.454,0,0,21.185-.981,21.185,5.493S528.627,258.623,526.929,249.286Z" transform="translate(503.831 96.425)" fill="#fff" stroke="#000" stroke-linejoin="round" stroke-width="0.2"/>
    <g id="Group_722" data-name="Group 722" transform="translate(1247.295 228.939)">
      <path id="Path_2716" data-name="Path 2716" d="M937.662,272.049c-.624-12.632-37.782-20.39-37.782-20.39-2.82-27.184-45.471-34.025-45.471-34.025,15.871-25.8-14.655-42.76-46.762-25.6-24.98,13.35-32.719,31.936-32.719,31.936s-27.381-6.5-37.243,16.939c0,0-43.318-7.654-58.652,27.453-7.785-1.61-45.158,2.888-44.225,13.91.6,7.078,34.838,5.505,51.227-.773,0,0,45.471,24.842,98.56,2.3,0,0,39.53,27.635,81.036,1.092C865.631,284.887,938.539,289.83,937.662,272.049Z" transform="translate(-634.791 -185.089)" fill="#fff" stroke="#000" stroke-linejoin="round" stroke-width="0.2"/>
      <path id="Path_2717" data-name="Path 2717" d="M729.55,228.833a14.242,14.242,0,0,1,8.389-10.657c5.7-2.5,11.219,1.983,13.069,5.77,0,0,12.989-9.164,17.627-3.159,3.139,4.062-1.73,10.723-1.73,10.723" transform="translate(-539.374 -152.502)" fill="none" stroke="#000" stroke-linejoin="round" stroke-width="0.2"/>
    </g>
    <path id="Path_2718" data-name="Path 2718" d="M1096.059,383.005s-12.017.957-11.474,7.977,11.887,4.75,11.887,4.75,13.105,16,36.153,1.65a41.279,41.279,0,0,0,25.269,5.6c16.279-1.949,21.28-17.565,1.658-20.126,0,0-2.543-12.706-13.437-14.484s-18.828,6.115-18.828,6.115-4.835-12.808-18.669-6.677C1099.38,371.909,1096.059,383.005,1096.059,383.005Z" transform="translate(1065.398 226.166)" fill="#fff" stroke="#000" stroke-linejoin="round" stroke-width="0.2"/>
    <path id="Path_2719" data-name="Path 2719" d="M1183.163,370.729s-12.108.552-11.048,5.9c1.108,5.589,11.048,1.816,11.048,1.816s7.415,5.447,23.459,4.389,15.134-13.167,3.33-11.5c0,0,4.086-5.6-.3-9.836S1190.731,359.984,1183.163,370.729Z" transform="translate(1153.487 219.561)" fill="#fff" stroke="#000" stroke-linejoin="round" stroke-width="0.2"/>
    <path id="Path_2720" data-name="Path 2720" d="M1309.592,355.593c-96.028,31.376-131.408-5.023-131.408-5.023s-26.833,3.332-27.8-5.445c-1.351-12.3,27.8-10.44,27.8-10.44s13.418-22.078,48.979-32.745,66.945-.221,54.7,25.914c11.67-14.109,50.179-17.394,50.793,1.349,0,0,24.664-6.783,29.239,3.9C1367.953,347.244,1339.925,366.448,1309.592,355.593Z" transform="translate(1131.628 157.346)" fill="#fff" stroke="#000" stroke-linejoin="round" stroke-width="0.2"/>
    <path id="Path_2721" data-name="Path 2721" d="M1095.588,283.019s-16.109,1.144-16.078,8.871,9.031,8.279,44.315,8.279,66.763,2.577,66.763-8.576-18.315-10.089-18.315-10.089-1.146-13.326-20.607-16.565c-14.928-2.485-27.84,5.184-27.84,5.184S1102.128,262.7,1095.588,283.019Z" transform="translate(1060.306 123.753)" fill="#fff" stroke="#000" stroke-linejoin="round" stroke-width="0.2"/>
  </g>
</svg>
