<svg xmlns="http://www.w3.org/2000/svg" width="1007.484" height="517.574" viewBox="0 0 1007.484 517.574">
  <g id="Group_719" data-name="Group 719" transform="translate(0.182 0.1)">
    <path id="Path_2575" data-name="Path 2575" d="M844.581,744.439C903.7,766.2,898.327,776.951,976.258,787.7s159.894,2.688,200.2-6.717S1257.08,756.8,1353.824,744.7s214.333-43.727,279.477-90.023c41.1-29.209,4.367-67.591-11.56-81.325-32.258-27.82-49.784-25.012-94.681-47.392-34.547-17.223-86.467-28.32-270.547-47.516C1083.139,460.368,926.574,510.818,846.4,540.5S667.032,571.953,677.456,618.6c12.186,54.524-18.586,60.053-4.076,85.856C696.1,744.858,785.461,722.674,844.581,744.439Z" transform="translate(-644.965 -275.485)" fill="#ffb829" stroke="#000" stroke-linejoin="round" stroke-width="0.2"/>
    <g id="Group_700" data-name="Group 700" transform="translate(678.516)">
      <path id="Path_2576" data-name="Path 2576" d="M1074.688,557.638c-1.8.307,26.006-12.9,50.151-13.252a368.527,368.527,0,0,0,1.188-38.06c-12.094,1.878-36.478,6.169-48.835,11.883,0,0,21.99-25.837,47.9-31.168-5.463-71.118-31-111.64-31-111.64-191.076,180.634-46.117,387.382-46.117,387.382,47.333-77.484,68.36-146.141,75.322-203.32C1111.08,556.974,1092.584,554.584,1074.688,557.638Z" transform="translate(-995.312 -375.403)" fill="#f99128" stroke="#000" stroke-linejoin="round" stroke-width="0.2"/>
    </g>
    <g id="Group_702" data-name="Group 702" transform="translate(724.698 125.618)">
      <g id="Group_701" data-name="Group 701">
        <path id="Path_2577" data-name="Path 2577" d="M1167.157,516.886a71.968,71.968,0,0,1,20.475,2.517c8.768-46.139,4.008-81.407,4.008-81.407C995.775,543.5,1019.2,710.843,1019.2,710.843c76.85-26.3,120.1-72.661,144.228-119.786-1.106-12.943-3.88-34.74-10.595-48.977a119.581,119.581,0,0,1,22.891,20.776,271.651,271.651,0,0,0,8.745-28.862A170.337,170.337,0,0,0,1167.157,516.886Z" transform="translate(-1018.323 -437.995)" fill="#ffb829" stroke="#000" stroke-linejoin="round" stroke-width="0.2"/>
      </g>
    </g>
    <g id="Group_703" data-name="Group 703" transform="translate(744.055 225.142)">
      <path id="Path_2578" data-name="Path 2578" d="M1215.921,555.55c19.631-36.181,27.214-67.965,27.214-67.965-201.984,42.388-215.167,167.428-215.167,167.428,70.379,14.219,119.631-13.208,153.076-49.734.028-11.8-.289-34.475-2.894-46.489,0,0,9.754,16.938,14.4,32.819a255.745,255.745,0,0,0,17.061-25c-2.051-9.156-5.6-21.037-11.323-28.958A96.1,96.1,0,0,1,1215.921,555.55Z" transform="translate(-1027.968 -487.585)" fill="#f99128" stroke="#000" stroke-linejoin="round" stroke-width="0.2"/>
    </g>
    <g id="Group_704" data-name="Group 704" transform="translate(183.985 153.227)">
      <path id="Path_2579" data-name="Path 2579" d="M868.693,509.787c-5.561-6.326-31.073,2.834-44.433,22.686,0,0,16.906-33.823,7.572-51.237s-25.3,3.857-27.786,21.94c0,0,5.734-49.192-9.8-51.333s-20.461,34.142-16.094,52.295c0,0-13.418-23.724-22.807-16.941-9.559,6.906,8.885,36.7,8.885,36.7s-21.131-10-13.782,11.979c7.287,21.791,34.959,45.648,56.417,38.9C857.33,575.253,880.32,523.006,868.693,509.787Z" transform="translate(-748.9 -451.752)" fill="#f99128" stroke="#000" stroke-linejoin="round" stroke-width="0.2"/>
      <path id="Path_2580" data-name="Path 2580" d="M822.142,514.429s-7.45,18.616-37.672,37.132c-13.611-44.168-13.324-76.757-13.324-76.757" transform="translate(-726.501 -428.54)" fill="none" stroke="#000" stroke-linejoin="round" stroke-width="0.2"/>
      <path id="Path_2581" data-name="Path 2581" d="M760.911,491.04s12.766,29.137,33.865,54.255c-3.337-30.543,10.2-64.268,10.2-64.268" transform="translate(-736.807 -422.274)" fill="none" stroke="#000" stroke-linejoin="round" stroke-width="0.2"/>
    </g>
    <g id="Group_711" data-name="Group 711" transform="translate(166.431 43.877)">
      <g id="Group_706" data-name="Group 706" transform="translate(146.84)">
        <path id="Path_2582" data-name="Path 2582" d="M813.32,539.647s13.029-79.226,73.231-108.95c58.865-29.066,86.266-4.678,113.38-11.16s38.9-8.842,38.9-8.842,19.778,6.954,14.014,35.6S813.32,539.647,813.32,539.647Z" transform="translate(-813.32 -383.745)" fill="#f99128" stroke="#000" stroke-linejoin="round" stroke-width="0.2"/>
        <g id="Group_705" data-name="Group 705" transform="translate(223.384)">
          <path id="Path_2583" data-name="Path 2583" d="M926.757,424.215s15.068-9.063,39.966-11.343c0,0,3.392-6.785,13.23-12.551s16.964-2.715,20.7,3.731c0,0,10.179.488,7.464,11.1,0,0,8.142,1.068,6.785,9.063s-21.759,12.3-35.33,8.574c0,0-17.462,20-38.8,27.027C916.562,454.313,926.757,424.215,926.757,424.215Z" transform="translate(-924.626 -397.266)" fill="#ffb829" stroke="#000" stroke-linejoin="round" stroke-width="0.2"/>
          <path id="Path_2584" data-name="Path 2584" d="M951.251,414.29s11.054-13.643,22.588-13.643" transform="translate(-897.817 -393.861)" fill="none" stroke="#000" stroke-linejoin="round" stroke-width="0.2"/>
          <path id="Path_2585" data-name="Path 2585" d="M955.406,415.241s15.267-2.033,21.713-9.063" transform="translate(-893.633 -388.292)" fill="none" stroke="#000" stroke-linejoin="round" stroke-width="0.2"/>
        </g>
      </g>
      <g id="Group_707" data-name="Group 707" transform="translate(0 57.046)">
        <path id="Path_2586" data-name="Path 2586" d="M741.84,556.075c-9.246-19.152,20.629-44.138,62.556-46.7s34.766,32.211,3.566,45.505C781.923,565.982,749,570.9,741.84,556.075Z" transform="translate(-740.154 -341.555)" fill="#ffc05a" stroke="#000" stroke-linejoin="round" stroke-width="0.2"/>
        <path id="Path_2587" data-name="Path 2587" d="M771.127,682.774s-18.755-.923-19.648-24.208,24.113-104.724,91.984-125.622,46.344-61.508,145.793-94.129c93.886-30.8,183.572-6.252,229.647,61.621,0,0-3.042,53.581-14.652,61.619s-247.2,145.928-247.2,145.928S817.152,763.565,771.127,682.774Z" transform="translate(-728.772 -425.69)" fill="#ffc05a" stroke="#000" stroke-linejoin="round" stroke-width="0.2"/>
      </g>
      <g id="Group_710" data-name="Group 710" transform="translate(210.026 64.557)">
        <g id="Group_709" data-name="Group 709" transform="translate(295.984)">
          <g id="Group_708" data-name="Group 708">
            <path id="Path_2588" data-name="Path 2588" d="M993.365,498.813c12.987-23.941,39.23-42.511,39.23-42.511s-5.794-12.226,4.118-22.229c8.722-8.8,19.921-2.378,19.921-2.378s14.109-5.985,17.1,7.267c0,0,12.288,5.361,6.506,22.466-5.382,15.917-24.462,11.307-24.462,11.307s-8.351,44.949-20.421,67.575S985.446,513.409,993.365,498.813Z" transform="translate(-992.285 -429.433)" fill="#ffb829" stroke="#000" stroke-linejoin="round" stroke-width="0.2"/>
            <path id="Path_2589" data-name="Path 2589" d="M1029.977,430.56s-7.716,4.477-11.219,18.02" transform="translate(-965.628 -428.298)" fill="none" stroke="#000" stroke-linejoin="round" stroke-width="0.2"/>
            <path id="Path_2590" data-name="Path 2590" d="M1039.464,434.181s-1.234,14.956-13.144,23.83" transform="translate(-958.014 -424.652)" fill="none" stroke="#000" stroke-linejoin="round" stroke-width="0.2"/>
          </g>
        </g>
        <path id="Path_2591" data-name="Path 2591" d="M850.351,669.861c-19.557-41.652,14.627-110.359,70.674-142.189s85.9-24.778,113.121-34.8,50.9-25.187,112.892-32.42c26.513-3.095,54.021,22.4,23.73,104.109-42.033,113.386-180.826,152.382-224.154,150.956S865.086,701.244,850.351,669.861Z" transform="translate(-844.804 -398.445)" fill="#f99128" stroke="#000" stroke-linejoin="round" stroke-width="0.2"/>
      </g>
      <path id="Path_2592" data-name="Path 2592" d="M782.137,591.728c-1.182-18.651,27.057-37.6,66.558-39.7s68.667,2.444,103.062,24.659-59.349,40.113-98.849,42.224S783.522,613.525,782.137,591.728Z" transform="translate(-697.915 -241.901)" fill="#ffc05a" stroke="#000" stroke-linejoin="round" stroke-width="0.2"/>
    </g>
    <path id="Path_2593" data-name="Path 2593" d="M853.382,431.536a8.463,8.463,0,0,1,9.2-4.656s1.9-6.21,9.2-3.414" transform="translate(-459.71 -327.735)" fill="none" stroke="#000" stroke-linejoin="round" stroke-width="0.2"/>
    <g id="Group_712" data-name="Group 712" transform="translate(610.854 255.817)">
      <path id="Path_2594" data-name="Path 2594" d="M1051.206,502.87s-2.86,40.153-27.875,64.635c-23.451,22.949-50.187,20.439-59.578,51.375S978.7,663.65,978.7,663.65s20.362,30.537,49.132,15.11c0,0,11,24.238,38.669,7.219,0,0,12.714,10.886,32.041,0,23.082-13,20.131-49.447,7.012-65.442-15.367-18.735-37.949-32.593-41.814-65.185s-2.212-52.481-2.212-52.481Z" transform="translate(-961.598 -502.87)" fill="#ffc05a" stroke="#000" stroke-linejoin="round" stroke-width="0.2"/>
      <path id="Path_2595" data-name="Path 2595" d="M1011.872,502.87s-6.009,28.745-5.936,45.178" transform="translate(-916.954 -502.87)" fill="#ffc05a" stroke="#000" stroke-linejoin="round" stroke-width="0.2"/>
      <path id="Path_2596" data-name="Path 2596" d="M1005.554,530.667s.558,25.685,6.7,32.386" transform="translate(-917.337 -474.88)" fill="#ffc05a" stroke="#000" stroke-linejoin="round" stroke-width="0.2"/>
      <path id="Path_2597" data-name="Path 2597" d="M1014.685,526.633s-8.656,20.38-25.685,32.386" transform="translate(-934.006 -478.942)" fill="#ffc05a" stroke="#000" stroke-linejoin="round" stroke-width="0.2"/>
      <path id="Path_2598" data-name="Path 2598" d="M1008.336,536.649s1.955,13.96,8.1,20.38" transform="translate(-914.536 -468.857)" fill="#ffc05a" stroke="#000" stroke-linejoin="round" stroke-width="0.2"/>
      <path id="Path_2599" data-name="Path 2599" d="M1003.216,536.649a67.3,67.3,0,0,1-7.817,12.284" transform="translate(-927.562 -468.857)" fill="#ffc05a" stroke="#000" stroke-linejoin="round" stroke-width="0.2"/>
      <path id="Path_2600" data-name="Path 2600" d="M1007.44,555.429s-23.491,36.958-11,70.407" transform="translate(-930.201 -449.947)" fill="#ffc05a" stroke="#000" stroke-linejoin="round" stroke-width="0.2"/>
      <path id="Path_2601" data-name="Path 2601" d="M1014.211,553.788c7.538,15.857,22.49,62.506-.341,80.919" transform="translate(-908.963 -451.599)" fill="#ffc05a" stroke="#000" stroke-linejoin="round" stroke-width="0.2"/>
      <path id="Path_2602" data-name="Path 2602" d="M1005.81,548.226c1.116-1.035-25.181,11.016-33.5,45.788" transform="translate(-950.816 -457.261)" fill="#ffc05a" stroke="#000" stroke-linejoin="round" stroke-width="0.2"/>
      <path id="Path_2603" data-name="Path 2603" d="M1015.017,578.343s2.483,13.117-5.276,21.6" transform="translate(-913.121 -426.874)" fill="#ffc05a" stroke="#000" stroke-linejoin="round" stroke-width="0.2"/>
      <path id="Path_2604" data-name="Path 2604" d="M1010.595,578.343s.717,10.119-1.7,13.8" transform="translate(-913.975 -426.874)" fill="#ffc05a" stroke="#000" stroke-linejoin="round" stroke-width="0.2"/>
      <path id="Path_2605" data-name="Path 2605" d="M1034.405,578.343s.484,12.389-5.577,16.511" transform="translate(-893.902 -426.874)" fill="#ffc05a" stroke="#000" stroke-linejoin="round" stroke-width="0.2"/>
      <path id="Path_2606" data-name="Path 2606" d="M1028.471,579.08s1.7,8.883-1.455,12.321" transform="translate(-895.727 -426.132)" fill="#ffc05a" stroke="#000" stroke-linejoin="round" stroke-width="0.2"/>
      <path id="Path_2607" data-name="Path 2607" d="M981.836,581.134s.243,5.489,3.394,8.2" transform="translate(-941.22 -424.064)" fill="#ffc05a" stroke="#000" stroke-linejoin="round" stroke-width="0.2"/>
      <path id="Path_2608" data-name="Path 2608" d="M984.373,582.15s.727,5.72,3.394,7.416" transform="translate(-938.665 -423.04)" fill="#ffc05a" stroke="#000" stroke-linejoin="round" stroke-width="0.2"/>
    </g>
    <path id="Path_2609" data-name="Path 2609" d="M799.749,545.508s13.292-19.337,37.224-20.424c0,0,13.992-43.277,74.826-63.746" transform="translate(-513.714 -288.873)" fill="#ffc05a" stroke="#000" stroke-linejoin="round" stroke-width="0.2"/>
    <g id="Group_713" data-name="Group 713" transform="translate(0 236.005)">
      <path id="Path_2610" data-name="Path 2610" d="M658.2,596.355c5.152-10.982,38.69-8.09,60.158,6.272,0,0-35.133-32.053-32.052-56.708s31.437-6.912,42.531,13.188c0,0-28.97-55.144-11.71-64.677s39.448,30.818,42.531,54.1c0,0,4.315-31.272,19.108-30.194s6.164,47.091,6.164,47.091,10.147-13.463,14.141,15.16-12.94,62.044-41.178,63.826C698.886,667.786,649.624,614.64,658.2,596.355Z" transform="translate(-657.226 -492.998)" fill="#f99128" stroke="#000" stroke-linejoin="round" stroke-width="0.2"/>
      <path id="Path_2611" data-name="Path 2611" d="M676.989,590.114s17.161,18.484,61,26.55c-3.994-57.99-19.064-96.11-19.064-96.11" transform="translate(-637.325 -465.251)" fill="none" stroke="#000" stroke-linejoin="round" stroke-width="0.2"/>
      <path id="Path_2612" data-name="Path 2612" d="M743.188,529.086s-1.81,39.966-15.217,78.987c-9.892-37.355-41.032-70.815-41.032-70.815" transform="translate(-627.306 -456.66)" fill="none" stroke="#000" stroke-linejoin="round" stroke-width="0.2"/>
    </g>
    <path id="Path_2613" data-name="Path 2613" d="M853.382,485.568s6.368-6.336,18.4-5.055C871.78,480.513,865.412,488.635,853.382,485.568Z" transform="translate(-459.71 -269.737)" fill="#fff6eb" stroke="#000" stroke-linejoin="round" stroke-width="0.2"/>
    <path id="Path_2614" data-name="Path 2614" d="M856.32,473.194s3.775,8.491,17.219,6.368A26.518,26.518,0,0,0,856.32,473.194Z" transform="translate(-456.751 -276.94)" fill="#fff6eb" stroke="#000" stroke-linejoin="round" stroke-width="0.2"/>
    <path id="Path_2615" data-name="Path 2615" d="M868.99,478.245a20.791,20.791,0,0,0-2.595,16.276S871.585,487.208,868.99,478.245Z" transform="translate(-447.248 -271.848)" fill="#fff6eb" stroke="#000" stroke-linejoin="round" stroke-width="0.2"/>
    <path id="Path_2616" data-name="Path 2616" d="M862.549,488.932s9.671-4.379,19.341-16.951" transform="translate(-450.479 -278.156)" fill="none" stroke="#000" stroke-linejoin="round" stroke-width="0.2"/>
    <path id="Path_2617" data-name="Path 2617" d="M864.9,476.364s4.53,1.575,6.051.341l-1.1,3.434" transform="translate(-448.112 -273.742)" fill="none" stroke="#000" stroke-linejoin="round" stroke-width="0.2"/>
    <path id="Path_2618" data-name="Path 2618" d="M875.645,448.27s1.816-10.263,14.026-12.9C889.672,435.367,887.526,444.806,875.645,448.27Z" transform="translate(-437.292 -315.023)" fill="#fff6eb" stroke="#000" stroke-linejoin="round" stroke-width="0.2"/>
    <path id="Path_2619" data-name="Path 2619" d="M873.258,444.657s2.316,9.075,10.071,12.375C883.329,457.032,882.988,449.277,873.258,444.657Z" transform="translate(-439.696 -305.669)" fill="#fff6eb" stroke="#000" stroke-linejoin="round" stroke-width="0.2"/>
    <path id="Path_2620" data-name="Path 2620" d="M877.037,438c-.008-.165-8.628,4.126-9.669,14.851C867.368,452.851,877.521,447.735,877.037,438Z" transform="translate(-445.627 -312.378)" fill="#fff6eb" stroke="#000" stroke-linejoin="round" stroke-width="0.2"/>
    <path id="Path_2621" data-name="Path 2621" d="M876.157,446.052c-.8-.53,12.21-3.631,18.644,2.145A21.055,21.055,0,0,1,876.157,446.052Z" transform="translate(-436.813 -305.579)" fill="#fff6eb" stroke="#000" stroke-linejoin="round" stroke-width="0.2"/>
    <path id="Path_2622" data-name="Path 2622" d="M861.011,450.837a50.758,50.758,0,0,0,29.37-9.041" transform="translate(-452.028 -308.55)" fill="#ffc05a" stroke="#000" stroke-linejoin="round" stroke-width="0.2"/>
    <path id="Path_2623" data-name="Path 2623" d="M875.976,445.091s-1.182-1.746-5.416-.277" transform="translate(-442.414 -306.103)" fill="#ffc05a" stroke="#000" stroke-linejoin="round" stroke-width="0.2"/>
    <path id="Path_2624" data-name="Path 2624" d="M880.642,446.753a17.384,17.384,0,0,0-8.975-2.7" transform="translate(-441.298 -306.28)" fill="#ffc05a" stroke="#000" stroke-linejoin="round" stroke-width="0.2"/>
    <g id="Group_714" data-name="Group 714" transform="translate(86.931 318.211)">
      <path id="Path_2625" data-name="Path 2625" d="M756.032,619.765s47.978,5.776,47.982-9.609c0-6.693-12.335-7.111-19.69-3.1,0,0,14.378-7.022,17.388-18.727s-11.08-19.505-23.188.632c0,0,1.957-58.275-19.724-54.861-15.138,2.382-8.6,35.755-4.907,47.542-3.695-11.787-17.781-36.464-29.574-29.636-13,7.528,15.53,45.018,15.53,45.018s-31.585-21.368-38.481-6.274C694.89,604.93,727.741,622.776,756.032,619.765Z" transform="translate(-700.541 -533.959)" fill="#ef5b2e" stroke="#000" stroke-linejoin="round" stroke-width="0.2"/>
      <path id="Path_2626" data-name="Path 2626" d="M720.484,561.9s14.077,18.891,15.467,41.927a119.6,119.6,0,0,0,6.207-54.031" transform="translate(-680.46 -518.016)" fill="none" stroke="#000" stroke-linejoin="round" stroke-width="0.2"/>
      <path id="Path_2627" data-name="Path 2627" d="M768.161,564.877a102.929,102.929,0,0,0-25.476,23.756c-11.369-12.714-28.888-14.538-28.888-14.538" transform="translate(-687.193 -502.827)" fill="none" stroke="#000" stroke-linejoin="round" stroke-width="0.2"/>
      <path id="Path_2628" data-name="Path 2628" d="M751.259,573.792s-13.448.032-23.068,5.864" transform="translate(-672.7 -493.85)" fill="none" stroke="#000" stroke-linejoin="round" stroke-width="0.2"/>
    </g>
    <path id="Path_2629" data-name="Path 2629" d="M800.377,575.02s2.569-5.742,10.269-3.512c0,0,2.31-8.038,11.295-5.728" transform="translate(-513.082 -184.126)" fill="#ffc05a" stroke="#000" stroke-linejoin="round" stroke-width="0.2"/>
    <path id="Path_2630" data-name="Path 2630" d="M788.95,516.93a23.245,23.245,0,0,1,20.82-3.075A20.364,20.364,0,0,1,788.95,516.93Z" transform="translate(-524.588 -237.16)" fill="#fff6eb" stroke="#000" stroke-linejoin="round" stroke-width="0.2"/>
    <path id="Path_2631" data-name="Path 2631" d="M788.109,519.014c-1.662-.17,4.724,9.208,14.767,8.443C802.876,527.457,799.627,520.195,788.109,519.014Z" transform="translate(-525.7 -230.799)" fill="#fff6eb" stroke="#000" stroke-linejoin="round" stroke-width="0.2"/>
    <path id="Path_2632" data-name="Path 2632" d="M780.324,521.773s9.521-6.258,17.312-6.968" transform="translate(-533.274 -235.035)" fill="#ffc05a" stroke="#000" stroke-linejoin="round" stroke-width="0.2"/>
    <path id="Path_2633" data-name="Path 2633" d="M792.526,521.5a19.261,19.261,0,0,0-9.067-4.961" transform="translate(-530.117 -233.287)" fill="#ffc05a" stroke="#000" stroke-linejoin="round" stroke-width="0.2"/>
    <path id="Path_2634" data-name="Path 2634" d="M809.591,518.277s-2.463,10.059,3.281,14.436C812.873,532.713,815.335,523.81,809.591,518.277Z" transform="translate(-504.332 -231.539)" fill="#fff6eb" stroke="#000" stroke-linejoin="round" stroke-width="0.2"/>
    <path id="Path_2635" data-name="Path 2635" d="M819.142,521.743a6.782,6.782,0,0,1,8.481-2.481s1.915-7.582,9.575-4.816" transform="translate(-494.187 -236.008)" fill="#ffc05a" stroke="#000" stroke-linejoin="round" stroke-width="0.2"/>
    <path id="Path_2636" data-name="Path 2636" d="M904.331,449.614S914,458.28,930,455.948C930,455.948,921.665,447.282,904.331,449.614Z" transform="translate(-408.407 -301.079)" fill="#fff6eb" stroke="#000" stroke-linejoin="round" stroke-width="0.2"/>
    <path id="Path_2637" data-name="Path 2637" d="M920.608,473.382s13.332,0,19-14.667C939.608,458.715,925.607,463.048,920.608,473.382Z" transform="translate(-392.018 -291.514)" fill="#fff6eb" stroke="#000" stroke-linejoin="round" stroke-width="0.2"/>
    <path id="Path_2638" data-name="Path 2638" d="M891.045,524.129s0-10.585,11.664-16.585A20.582,20.582,0,0,1,891.045,524.129Z" transform="translate(-421.785 -242.346)" fill="#fff6eb" stroke="#000" stroke-linejoin="round" stroke-width="0.2"/>
    <path id="Path_2639" data-name="Path 2639" d="M888.387,520.178s7.257,7.4,19.351,2A25.546,25.546,0,0,0,888.387,520.178Z" transform="translate(-424.462 -230.648)" fill="#fff6eb" stroke="#000" stroke-linejoin="round" stroke-width="0.2"/>
    <path id="Path_2640" data-name="Path 2640" d="M893.922,507.544s-10.857,6.314-8.333,16.585C885.589,524.129,893.468,520.968,893.922,507.544Z" transform="translate(-427.663 -242.346)" fill="#fff6eb" stroke="#000" stroke-linejoin="round" stroke-width="0.2"/>
    <path id="Path_2641" data-name="Path 2641" d="M903.57,515.808a90.155,90.155,0,0,1-24.964,22.674" transform="translate(-434.311 -234.025)" fill="none" stroke="#000" stroke-linejoin="round" stroke-width="0.2"/>
    <path id="Path_2642" data-name="Path 2642" d="M886.665,515.808a21.7,21.7,0,0,0-2.14,14.285" transform="translate(-428.739 -234.025)" fill="none" stroke="#000" stroke-linejoin="round" stroke-width="0.2"/>
    <path id="Path_2643" data-name="Path 2643" d="M919.061,524.913s6.637-12.565,16.176-14.223C935.237,510.69,937.31,520.889,919.061,524.913Z" transform="translate(-393.576 -239.178)" fill="#fff6eb" stroke="#000" stroke-linejoin="round" stroke-width="0.2"/>
    <path id="Path_2644" data-name="Path 2644" d="M923.109,520.01s14.3,7.923,23.832,2.206C946.941,522.216,937.609,516.159,923.109,520.01Z" transform="translate(-389.499 -231.084)" fill="#fff6eb" stroke="#000" stroke-linejoin="round" stroke-width="0.2"/>
    <path id="Path_2645" data-name="Path 2645" d="M912.863,516.538s10.374,5.507,20.563,5.678" transform="translate(-399.816 -233.29)" fill="none" stroke="#000" stroke-linejoin="round" stroke-width="0.2"/>
    <path id="Path_2646" data-name="Path 2646" d="M916.1,507.24s0-6.5,9.1-6.282a8.183,8.183,0,0,1,9.529-4.114" transform="translate(-396.557 -253.443)" fill="none" stroke="#000" stroke-linejoin="round" stroke-width="0.2"/>
    <path id="Path_2647" data-name="Path 2647" d="M932.934,506.7a17.374,17.374,0,0,0,17.757,1.3A22.4,22.4,0,0,0,932.934,506.7Z" transform="translate(-379.606 -244.463)" fill="#fff6eb" stroke="#000" stroke-linejoin="round" stroke-width="0.2"/>
    <path id="Path_2648" data-name="Path 2648" d="M882.783,567.775s2.043-5.758,9.414-5.118c0,0,0-6.4,7.167-6.4" transform="translate(-430.105 -193.294)" fill="#ffc05a" stroke="#000" stroke-linejoin="round" stroke-width="0.2"/>
    <path id="Path_2649" data-name="Path 2649" d="M900.677,434.678s3.725,6.075,13.968,6.918C914.645,441.6,907.816,432.816,900.677,434.678Z" transform="translate(-412.087 -315.978)" fill="#fff6eb" stroke="#000" stroke-linejoin="round" stroke-width="0.2"/>
    <path id="Path_2650" data-name="Path 2650" d="M771.977,513.376s.949-5.7,6.013-5.7c0,0,1.583-6.9,8.228-6.771" transform="translate(-541.679 -249.031)" fill="#ffc05a" stroke="#000" stroke-linejoin="round" stroke-width="0.2"/>
    <line id="Line_42" data-name="Line 42" x1="2.904" y2="1.307" transform="translate(522.582 285.735)" fill="none" stroke="#000" stroke-linejoin="round" stroke-width="0.2"/>
    <path id="Path_2651" data-name="Path 2651" d="M917.467,598.2s5.736,7.04,14.022,8.194" transform="translate(-395.181 -151.064)" fill="#ffc05a" stroke="#000" stroke-linejoin="round" stroke-width="0.2"/>
    <g id="Group_715" data-name="Group 715" transform="translate(483.276 358.007)">
      <path id="Path_2652" data-name="Path 2652" d="M1062.46,564.079s4.383,33.624-23.917,60.186c-27.792,26.086-113.341,46.22-139.9-19.576Z" transform="translate(-897.414 -543.426)" fill="#ef5b2e" stroke="#000" stroke-linejoin="round" stroke-width="0.2"/>
      <path id="Path_2653" data-name="Path 2653" d="M960.948,560.433c27.836-8.862,79.169-10.944,98.506,6.932s-43.416,47.065-78.441,56.551-90.26,9.18-82.19-20.419C903.51,586.31,930.274,570.2,960.948,560.433Z" transform="translate(-898.029 -553.788)" fill="#ef5b2e" stroke="#000" stroke-linejoin="round" stroke-width="0.2"/>
      <path id="Path_2654" data-name="Path 2654" d="M952.154,569.328s-40.331-4.355-43.54,6.416S952.154,569.328,952.154,569.328Z" transform="translate(-887.531 -539.017)" fill="#ffc05a" stroke="#000" stroke-linejoin="round" stroke-width="0.2"/>
      <path id="Path_2655" data-name="Path 2655" d="M948.945,571.157s-33.719,11.383-33.889,25.34a2.311,2.311,0,0,0,2.518,2.274C932.239,597.645,948.945,571.157,948.945,571.157Z" transform="translate(-880.884 -536.299)" fill="#ffc05a" stroke="#000" stroke-linejoin="round" stroke-width="0.2"/>
      <path id="Path_2656" data-name="Path 2656" d="M939.928,572.637s-12.65,15.73-8.471,24.727a2.968,2.968,0,0,0,4.75.905C942.436,592.219,939.928,572.637,939.928,572.637Z" transform="translate(-865.222 -534.809)" fill="#ffc05a" stroke="#000" stroke-linejoin="round" stroke-width="0.2"/>
      <path id="Path_2657" data-name="Path 2657" d="M944.617,574.648c13.5-8.786,52.931-17.376,53.165-8.786C997.983,573.227,957.221,575.748,944.617,574.648Z" transform="translate(-851.118 -545.209)" fill="#ffc05a" stroke="#000" stroke-linejoin="round" stroke-width="0.2"/>
      <path id="Path_2658" data-name="Path 2658" d="M940.392,571.631s6.727,13.818,18.562,13.113a3.291,3.291,0,0,0,2.414-5.308C955.235,571.631,940.392,571.631,940.392,571.631Z" transform="translate(-855.373 -535.822)" fill="#ffc05a" stroke="#000" stroke-linejoin="round" stroke-width="0.2"/>
      <path id="Path_2659" data-name="Path 2659" d="M941.106,574.679c6.16.712,20.421-11.825,16.17-15.849C952.923,554.706,940.626,568.562,941.106,574.679Z" transform="translate(-854.667 -549.47)" fill="#ffc05a" stroke="#000" stroke-linejoin="round" stroke-width="0.2"/>
      <path id="Path_2660" data-name="Path 2660" d="M936.87,572.429c2.9-2.071,6.412-13,2.685-13.864C935.162,557.553,934.145,570.183,936.87,572.429Z" transform="translate(-860.436 -549.036)" fill="#ffc05a" stroke="#000" stroke-linejoin="round" stroke-width="0.2"/>
      <path id="Path_2661" data-name="Path 2661" d="M925.686,563.616c2.139-3.211,14.024,1.975,15.174,6.785C935.592,570.861,922.962,567.7,925.686,563.616Z" transform="translate(-870.564 -544.894)" fill="#ffc05a" stroke="#000" stroke-linejoin="round" stroke-width="0.2"/>
      <path id="Path_2662" data-name="Path 2662" d="M921.6,598.2a11.012,11.012,0,0,0,6.587,4.1" transform="translate(-874.299 -509.07)" fill="none" stroke="#000" stroke-linejoin="round" stroke-width="0.2"/>
      <path id="Path_2663" data-name="Path 2663" d="M970.542,581.134s-1.487,13.436-9.138,19.485" transform="translate(-834.215 -526.253)" fill="none" stroke="#000" stroke-linejoin="round" stroke-width="0.2"/>
      <path id="Path_2664" data-name="Path 2664" d="M964.008,583.177s-.5,5.641-4.4,9.19" transform="translate(-836.024 -524.196)" fill="none" stroke="#000" stroke-linejoin="round" stroke-width="0.2"/>
    </g>
    <path id="Path_2665" data-name="Path 2665" d="M972.1,579.67a14.11,14.11,0,0,1-1.981,6.647" transform="translate(-342.161 -169.72)" fill="none" stroke="#000" stroke-linejoin="round" stroke-width="0.2"/>
    <path id="Path_2666" data-name="Path 2666" d="M1116.459,561.366s7.456-14.912,18.42-18.42A35.136,35.136,0,0,1,1116.459,561.366Z" transform="translate(-194.809 -206.699)" fill="#fff6eb" stroke="#000" stroke-linejoin="round" stroke-width="0.2"/>
    <path id="Path_2667" data-name="Path 2667" d="M1124.108,554.473s11.112-6.338,22.221-4.265C1146.329,550.208,1139.895,560.175,1124.108,554.473Z" transform="translate(-187.107 -199.806)" fill="#fff6eb" stroke="#000" stroke-linejoin="round" stroke-width="0.2"/>
    <path id="Path_2668" data-name="Path 2668" d="M1108.811,553.884a194.749,194.749,0,0,0,30.7-1.76" transform="translate(-202.51 -197.457)" fill="#ffc05a" stroke="#000" stroke-linejoin="round" stroke-width="0.2"/>
    <line id="Line_43" data-name="Line 43" x1="2.521" y2="1.761" transform="translate(919.129 354.667)" fill="#ffc05a" stroke="#000" stroke-linejoin="round" stroke-width="0.2"/>
    <path id="Path_2669" data-name="Path 2669" d="M1112.388,568.289s8.046,10.956,22.6,2.91C1134.986,571.2,1125.913,565.893,1112.388,568.289Z" transform="translate(-198.908 -181.806)" fill="#fff6eb" stroke="#000" stroke-linejoin="round" stroke-width="0.2"/>
    <path id="Path_2670" data-name="Path 2670" d="M760.462,587.44s-6.651,10.964,0,21.432C760.462,608.872,767.589,601.151,760.462,587.44Z" transform="translate(-556.25 -161.896)" fill="#fff6eb" stroke="#000" stroke-linejoin="round" stroke-width="0.2"/>
    <path id="Path_2671" data-name="Path 2671" d="M826.224,614.758s9.954-9.969,21.834-5.682C848.058,609.076,844.774,616.63,826.224,614.758Z" transform="translate(-487.056 -141.189)" fill="#fff6eb" stroke="#000" stroke-linejoin="round" stroke-width="0.2"/>
    <g id="Group_716" data-name="Group 716" transform="translate(378.068 408.479)">
      <path id="Path_2672" data-name="Path 2672" d="M845.79,606.588s6.165,36.028,55.64,40.066S979.4,624.442,981.3,587.422Z" transform="translate(-845.422 -570.393)" fill="#ef5b2e" stroke="#000" stroke-linejoin="round" stroke-width="0.2"/>
      <path id="Path_2673" data-name="Path 2673" d="M845.974,615.132c-4.435-13.374,32.123-27.625,64.244-33.407s66.17-2.569,70.666,9.637-16.24,23.277-58.891,29.628S848.437,622.553,845.974,615.132Z" transform="translate(-845.607 -578.937)" fill="#ef5b2e" stroke="#000" stroke-linejoin="round" stroke-width="0.2"/>
      <path id="Path_2674" data-name="Path 2674" d="M856.762,605.707s6.121,9.035,13.7,11.365" transform="translate(-834.374 -551.982)" fill="none" stroke="#000" stroke-linejoin="round" stroke-width="0.2"/>
      <path id="Path_2675" data-name="Path 2675" d="M861.7,605.707s7.287,10.783,19.817,13.989" transform="translate(-829.403 -551.982)" fill="none" stroke="#000" stroke-linejoin="round" stroke-width="0.2"/>
      <path id="Path_2676" data-name="Path 2676" d="M901.221,602.281s-.582,10.081-7.576,16.784" transform="translate(-797.236 -555.431)" fill="none" stroke="#000" stroke-linejoin="round" stroke-width="0.2"/>
      <path id="Path_2677" data-name="Path 2677" d="M902.514,601.364s-.582,5.22-3.5,8.716" transform="translate(-791.826 -556.355)" fill="none" stroke="#000" stroke-linejoin="round" stroke-width="0.2"/>
      <path id="Path_2678" data-name="Path 2678" d="M854.052,596.994c-1.594-2.77,9.806-6.4,15.5-7.566,5.453-1.116,15.534-1.654,17.781-.793-1.23,4.193-7.873,6.884-15.624,8.218C863.083,598.339,854.783,598.261,854.052,596.994Z" transform="translate(-837.256 -569.6)" fill="#ffc05a" stroke="#000" stroke-linejoin="round" stroke-width="0.2"/>
      <path id="Path_2679" data-name="Path 2679" d="M882.81,594.146c1.108-6.093,24.344-16.555,27.913-10.528C915.2,591.186,885.511,594.93,882.81,594.146Z" transform="translate(-808.146 -576.045)" fill="#ffc05a" stroke="#000" stroke-linejoin="round" stroke-width="0.2"/>
      <path id="Path_2680" data-name="Path 2680" d="M879.533,590.925c2.982,1.124,11.614,9.75,8.955,12.353C884.793,606.9,878.339,593.673,879.533,590.925Z" transform="translate(-811.592 -566.866)" fill="#ffc05a" stroke="#000" stroke-linejoin="round" stroke-width="0.2"/>
      <path id="Path_2681" data-name="Path 2681" d="M866.155,604.492c-1.892-3.243,9.768-13.567,15.843-13.567,1.885,2.619-1.622,7.934-4.762,10.918C873.38,605.507,867.131,606.166,866.155,604.492Z" transform="translate(-825.123 -566.866)" fill="#ffc05a" stroke="#000" stroke-linejoin="round" stroke-width="0.2"/>
      <path id="Path_2682" data-name="Path 2682" d="M872.317,583.655c3.294-.975,11.99,3.347,12.268,6.274s-5.126,3.9-8.975,0S872.317,583.655,872.317,583.655Z" transform="translate(-818.74 -574.328)" fill="#ffc05a" stroke="#000" stroke-linejoin="round" stroke-width="0.2"/>
      <path id="Path_2683" data-name="Path 2683" d="M884.156,593.638c4.634-4.728,38.535-7.939,38.6-1.19C922.8,596.458,889.691,599.767,884.156,593.638Z" transform="translate(-806.791 -569.22)" fill="#ffc05a" stroke="#000" stroke-linejoin="round" stroke-width="0.2"/>
    </g>
    <g id="Group_717" data-name="Group 717" transform="translate(216.242 401.856)">
      <path id="Path_2684" data-name="Path 2684" d="M764.973,575.637s45.459,60.348,100.078,51.438" transform="translate(-764.973 -575.637)" fill="none" stroke="#000" stroke-linejoin="round" stroke-width="0.2"/>
      <path id="Path_2685" data-name="Path 2685" d="M821.547,592.165s-15.138,9.657-34.268,6.111" transform="translate(-742.513 -558.995)" fill="none" stroke="#000" stroke-linejoin="round" stroke-width="0.2"/>
      <path id="Path_2686" data-name="Path 2686" d="M794.67,598.793a53.08,53.08,0,0,0,16.347,14.839" transform="translate(-735.07 -552.321)" fill="none" stroke="#000" stroke-linejoin="round" stroke-width="0.2"/>
      <path id="Path_2687" data-name="Path 2687" d="M777.316,588.21s3.036,13.613,8.8,21.239" transform="translate(-752.544 -562.977)" fill="none" stroke="#000" stroke-linejoin="round" stroke-width="0.2"/>
      <path id="Path_2688" data-name="Path 2688" d="M814.846,607.918c.383-9.485,11.05-14.821,13.7-12.85,3.581,2.663-3,9.4-3,9.4s10.083.2,10.356,3.645-8.584,2.26-8.584,2.26,8.718,2.878,7.494,6.456-8.854-1.054-8.854-1.054,3.106,4.987.985,6.342C824.7,623.549,814.4,618.94,814.846,607.918Z" transform="translate(-714.769 -556.481)" fill="#ef5b2e" stroke="#000" stroke-linejoin="round" stroke-width="0.2"/>
      <path id="Path_2689" data-name="Path 2689" d="M799.754,615.431c-2.228-2.856,1.921-7.961,9.77-9.4,10.135-1.855,16.387,4.578,14.165,7.885-1.688,2.513-6.868-.1-6.868-.1s9.958,7.779,5.665,11.2c-3.518,2.8-7.685-4.538-7.685-4.538s-.809,7.536-4.343,6.442c-4.044-1.253-3.837-12.4-3.837-12.4S801.679,617.9,799.754,615.431Z" transform="translate(-730.554 -545.363)" fill="#ef5b2e" stroke="#000" stroke-linejoin="round" stroke-width="0.2"/>
      <path id="Path_2690" data-name="Path 2690" d="M804.581,596.179c-1.694-3.717,2.432-7.668,5.487-8.044s2.994,1.933,1.622,3.181c0,0,2.932,0,1.56,2.37,0,0,2.057.247,2.057,1.746C815.306,598.485,806.514,600.42,804.581,596.179Z" transform="translate(-725.488 -563.093)" fill="#ef5b2e" stroke="#000" stroke-linejoin="round" stroke-width="0.2"/>
      <path id="Path_2691" data-name="Path 2691" d="M784.507,599.426c5.9-2.781,11.125.755,13.573,4.195s1.718,7.325-2.382,4.014c0,0,1.949,6.623-1.363,7.486s-5.039-7.343-5.039-7.343,1.441,9.748-2.446,9.7-2.88-9.22-2.88-9.22-2.073,5.78-5.039,3.671C776.665,610.317,778.215,602.4,784.507,599.426Z" transform="translate(-751.912 -552.692)" fill="#ef5b2e" stroke="#000" stroke-linejoin="round" stroke-width="0.2"/>
    </g>
    <g id="Group_718" data-name="Group 718" transform="translate(757.138 295.223)">
      <path id="Path_2692" data-name="Path 2692" d="M1034.487,661.111s68.418-50.83,92.068-127.526" transform="translate(-1034.487 -511.349)" fill="none" stroke="#000" stroke-linejoin="round" stroke-width="0.2"/>
      <path id="Path_2693" data-name="Path 2693" d="M1090.749,522.511c3.145.233,2.1,9.16,2.1,9.16s6.757-4.5,8.708-1.8-3.454,7.659-7.807,9.762c0,0,8.479-.452,8.218,3.153s-9.1,4.054-16.395,1.5-12.1-7.393-11.046-10.079,7.209,1.82,7.209,1.82-3.906-9.31-.151-10.661,4.654,6.908,4.654,6.908S1086.7,522.21,1090.749,522.511Z" transform="translate(-994.311 -522.505)" fill="#ef5b2e" stroke="#000" stroke-linejoin="round" stroke-width="0.2"/>
      <path id="Path_2694" data-name="Path 2694" d="M1074.11,537.586c3-.235,3.982,6.745,4.646,11.5,0,0,4.03-5.752,6.823-3.871s-2.29,9.288-2.29,9.288,5.543-3.592,6.746-.662c.985,2.4-3.366,7.353-13.713,8.072-8.654.6-14.263-4.424-12.826-7.187s6.635.993,6.635.993-7.925-9.115-4.091-11.389c3.165-1.876,5.972,4.977,5.972,4.977S1069.909,537.919,1074.11,537.586Z" transform="translate(-1005.503 -507.325)" fill="#ef5b2e" stroke="#000" stroke-linejoin="round" stroke-width="0.2"/>
      <path id="Path_2695" data-name="Path 2695" d="M1052.5,563.725c2.15-1.214,4.55.759,6.218,3.338,0,0-.707-12.284,3.185-13.5s4.1,10.312,4.1,10.312,1.971-6.976,5.308-6.217-1.062,10.161-1.062,10.161,3.5-2.3,4.9,0c1.53,2.5-4.806,9.5-13.4,8.04C1054.98,574.707,1049.014,565.7,1052.5,563.725Z" transform="translate(-1017.382 -491.321)" fill="#ef5b2e" stroke="#000" stroke-linejoin="round" stroke-width="0.2"/>
      <path id="Path_2696" data-name="Path 2696" d="M1147.328,563.059s-46.214,40.787-101.3,47.984" transform="translate(-1022.866 -481.669)" fill="none" stroke="#000" stroke-linejoin="round" stroke-width="0.2"/>
      <path id="Path_2697" data-name="Path 2697" d="M1096.337,569.5c-1.513-4.652,4.714-14.663,7.923-14.085s.6,6.948.6,6.948,5.439-5.505,7.2-3.777-2.665,5.862-2.665,5.862,5.406-1.66,5.8.867-5.375,3.025-5.375,3.025,5.67-.574,5.134,2.119S1098.872,577.29,1096.337,569.5Z" transform="translate(-972.444 -489.385)" fill="#ef5b2e" stroke="#000" stroke-linejoin="round" stroke-width="0.2"/>
      <path id="Path_2698" data-name="Path 2698" d="M1092.886,577.332c1.652,1.732-2.164,5.6-2.164,5.6s5.6-1.019,5.73,1.911-6.875,2.673-6.875,2.673,4.839,1.4,4.457,3.695-10.954,2.547-13.756-2.42S1090.339,574.657,1092.886,577.332Z" transform="translate(-988.778 -467.78)" fill="#ef5b2e" stroke="#000" stroke-linejoin="round" stroke-width="0.2"/>
      <path id="Path_2699" data-name="Path 2699" d="M1057.156,564.628s-2.723,14.189.342,21.52" transform="translate(-1012.785 -480.089)" fill="none" stroke="#000" stroke-linejoin="round" stroke-width="0.2"/>
      <path id="Path_2700" data-name="Path 2700" d="M1069.774,549.7s1.019,6.8,3.341,9.025" transform="translate(-998.956 -495.116)" fill="none" stroke="#000" stroke-linejoin="round" stroke-width="0.2"/>
      <path id="Path_2701" data-name="Path 2701" d="M1091.627,583.583s-13.983,3.069-23.411-3" transform="translate(-1000.524 -464.024)" fill="none" stroke="#000" stroke-linejoin="round" stroke-width="0.2"/>
      <path id="Path_2702" data-name="Path 2702" d="M1092.778,553.178a15.073,15.073,0,0,0,1.285-1.13c2.521-2.523,3.7-5.433,2.629-6.5s-3.979.108-6.5,2.631c-.134.132-.249.271-.373.406-.293-2.824-1.365-4.927-2.653-4.927-1.511,0-2.737,2.89-2.737,6.456,0,5.736,2.24,7.857,7.415,8.457,3.542.411,6.548-.55,6.705-2.055C1098.7,555.065,1096.139,553.612,1092.778,553.178Z" transform="translate(-984.201 -501.208)" fill="#ef5b2e" stroke="#000" stroke-linejoin="round" stroke-width="0.2"/>
      <path id="Path_2703" data-name="Path 2703" d="M1102.643,550s-11.641,15.2-34.427,19.359" transform="translate(-1000.524 -494.82)" fill="none" stroke="#000" stroke-linejoin="round" stroke-width="0.2"/>
      <path id="Path_2704" data-name="Path 2704" d="M1092.9,559.724c-1.1-.548-2.794.54-4.195,2.511-.351-2.083-1.435-3.612-2.731-3.612-1.579,0-2.862,2.255-2.862,5.037a8.353,8.353,0,0,0,.251,2.043l-.008,0c-3.2-.991-6.161-.6-6.618.875s1.766,3.472,4.963,4.466c2.762.855,8.333.833,11-4.64C1094.158,563.386,1094.279,560.414,1092.9,559.724Z" transform="translate(-992.007 -486.137)" fill="#ef5b2e" stroke="#000" stroke-linejoin="round" stroke-width="0.2"/>
      <path id="Path_2705" data-name="Path 2705" d="M1082.315,564.727s-.6,9.684,1.07,16.431" transform="translate(-986.433 -479.99)" fill="none" stroke="#000" stroke-linejoin="round" stroke-width="0.2"/>
    </g>
    <path id="Path_2706" data-name="Path 2706" d="M971.108,601.564s8.249,10.93,21.53,6.135C992.638,607.7,985.584,599.262,971.108,601.564Z" transform="translate(-341.168 -148.076)" fill="#ffc05a" stroke="#000" stroke-linejoin="round" stroke-width="0.2"/>
  </g>
</svg>
