<svg xmlns="http://www.w3.org/2000/svg" width="939.741" height="607.247" viewBox="0 0 939.741 607.247">
  <g id="Group_634" data-name="Group 634" transform="translate(0.125 0.1)">
    <g id="Group_633" data-name="Group 633">
      <path id="Path_2042" data-name="Path 2042" d="M649.385,428.545c6-14.239,32.258-13.589,54.135-27.445s57.611-24.065,96.262-26.253,68.551-35.332,102.825-31.888,292.159-32.514,403.726,8.877,150.167,40.3,188.6,55.554,80.825,32.679,89.04,45.75,1.677,26.652-28.822,44.371-68.089,42.495-108.229,53.461S1341.14,587.759,1290.2,578.725s-166.359,17.422-227.4,14.225-98.34-21.625-130.95-20.977c-44.568.885-98.48-35.157-154.53-47.046C712.476,511.172,635.194,462.2,649.385,428.545Z" transform="translate(-647.681 13.836)" fill="#ddd658" stroke="#000" stroke-linejoin="round" stroke-width="0.2"/>
      <g id="Group_579" data-name="Group 579" transform="translate(566.539 186.503)">
        <g id="Group_567" data-name="Group 567">
          <path id="Path_2043" data-name="Path 2043" d="M931.623,449.325c5.893-8.455,37.721-125.036,83.386-176.744s57.535,9.4,73.695,37.606,46.246,110.939,66.929,132.564,35.045,54.972,52.309,71.674,10.942,23.062,0,27.874-43.129,16.635-79.685,11.193-171.938-14.014-187.921-15.839S931.623,449.325,931.623,449.325Z" transform="translate(-929.973 -252.481)" fill="#b8bf30"/>
          <path id="Path_2044" data-name="Path 2044" d="M931.623,449.325c5.893-8.455,37.721-125.036,83.386-176.744s57.535,9.4,73.695,37.606,46.246,110.939,66.929,132.564,35.045,54.972,52.309,71.674,10.942,23.062,0,27.874-43.129,16.635-79.685,11.193-171.938-14.014-187.921-15.839S931.623,449.325,931.623,449.325Z" transform="translate(-929.973 -252.481)" fill="none" stroke="#000" stroke-linejoin="round" stroke-width="0.2"/>
        </g>
        <path id="Path_2045" data-name="Path 2045" d="M990.8,266.249c.37,8.491,10.866,15.136,13.081,24.735" transform="translate(-868.724 -238.618)" fill="none" stroke="#000" stroke-linejoin="round" stroke-width="0.2"/>
        <path id="Path_2046" data-name="Path 2046" d="M1001.917,284.277c-.953,7.753,11.97,12.551,14.554,28.8" transform="translate(-857.58 -220.465)" fill="none" stroke="#000" stroke-linejoin="round" stroke-width="0.2"/>
        <path id="Path_2047" data-name="Path 2047" d="M998.106,272.411s5.274,6.356,6.382,11.154" transform="translate(-861.367 -232.413)" fill="none" stroke="#000" stroke-linejoin="round" stroke-width="0.2"/>
        <path id="Path_2048" data-name="Path 2048" d="M1030.115,353.629s5.168,16.983,15.136,21.781" transform="translate(-829.137 -150.632)" fill="none" stroke="#000" stroke-linejoin="round" stroke-width="0.2"/>
        <path id="Path_2049" data-name="Path 2049" d="M1040.049,359.056s9.969,20.489,22.889,29.349" transform="translate(-819.134 -145.167)" fill="none" stroke="#000" stroke-linejoin="round" stroke-width="0.2"/>
        <path id="Path_2050" data-name="Path 2050" d="M1054.03,378.28s4.06,6.276,8.86,7.753" transform="translate(-805.056 -125.81)" fill="none" stroke="#000" stroke-linejoin="round" stroke-width="0.2"/>
        <g id="Group_573" data-name="Group 573" transform="translate(55.841 50.197)">
          <g id="Group_571" data-name="Group 571" transform="translate(16.965)">
            <g id="Group_568" data-name="Group 568" transform="translate(61.021)">
              <path id="Path_2051" data-name="Path 2051" d="M1016.279,297.943a17.187,17.187,0,0,0,9.481-5.166c4.333-4.554,7.759-3.065,8.844-.06s-2.394,6.733-2.28,11.3-5.995,11.134-10.271,8.911-8.439-5.535-7.107-10.261Z" transform="translate(-978.493 -265.013)" fill="#5b9348" stroke="#000" stroke-linejoin="round" stroke-width="0.2"/>
              <path id="Path_2052" data-name="Path 2052" d="M1006.791,286.791c2.912-1.222,7.223-1.415,8.56,2.511s.13,5.451,3.255,7.414,5.417,4.168,5.7,8.929-1.613,8.279-5.447,6.7-9.382.438-11.58-4.487-2.683-10.3-3.739-13.384S1005.006,287.542,1006.791,286.791Z" transform="translate(-989.977 -268.913)" fill="#5b9348" stroke="#000" stroke-linejoin="round" stroke-width="0.2"/>
              <path id="Path_2053" data-name="Path 2053" d="M1002.172,302.175c3.408-4.811,8.474-1.736,9.523,1.07s3.528,3.344,7.474,6.326a10.145,10.145,0,0,1,3.691,10.635c-.721,3.315-2.159,8.7-10.942,6.031s-3.958-11.441-8.094-14.313S999.92,305.354,1002.172,302.175Z" transform="translate(-992.711 -255.173)" fill="#5b9348" stroke="#000" stroke-linejoin="round" stroke-width="0.2"/>
              <path id="Path_2054" data-name="Path 2054" d="M999.808,317.919c1.717-3.946,6.7-5.429,9.149-3.358s6.346,8.094,9.226,12.331,2.4,17.517-1.419,17.462-5.085,2.292-11.379-3.534S992.635,334.406,999.808,317.919Z" transform="translate(-996.655 -241.108)" fill="#5b9348" stroke="#000" stroke-linejoin="round" stroke-width="0.2"/>
              <path id="Path_2055" data-name="Path 2055" d="M1010.325,320.937s-.757-6.169,6.155-11.213,15.7-4.5,16.511-.249.636,6.079-2.451,10.344-12.421,12.395-16.363,9.5S1010.325,320.937,1010.325,320.937Z" transform="translate(-982.915 -248.673)" fill="#5b9348" stroke="#000" stroke-linejoin="round" stroke-width="0.2"/>
              <path id="Path_2056" data-name="Path 2056" d="M1027.4,288.177c4.652,1.373-1.651,18.283-5.258,43.031-4.919,33.759-13.118,52.6-13.118,52.6l-4.881-2.619s3.233-25.611,8.921-41.251C1020.68,318.978,1021.078,286.315,1027.4,288.177Z" transform="translate(-989.12 -266.811)" fill="#ecb36f" stroke="#000" stroke-linejoin="round" stroke-width="0.2"/>
              <path id="Path_2057" data-name="Path 2057" d="M1018.792,300.948c-2.1-.247-5.81-2.069-6.354-9.5s1.284-12.21,3.937-13.294c2.976-1.216,8.877-1.2,9,3.918s5.68,8.61,3.649,13.154A10.208,10.208,0,0,1,1018.792,300.948Z" transform="translate(-980.86 -277.493)" fill="#5b9348" stroke="#000" stroke-linejoin="round" stroke-width="0.2"/>
            </g>
            <g id="Group_569" data-name="Group 569" transform="translate(71.157 40.307)">
              <path id="Path_2058" data-name="Path 2058" d="M1034.749,297.6c4.235.4,7.887.514,7.7,5.591s-2.661,9.926-1.843,13.908-5.2,4.211-9.691,1.339-5.467-9.18-2.3-13.731S1031.592,297.3,1034.749,297.6Z" transform="translate(-976.473 -297.577)" fill="#5b9348" stroke="#000" stroke-linejoin="round" stroke-width="0.2"/>
              <path id="Path_2059" data-name="Path 2059" d="M1033.634,314.429c.032-5.18,8.214-5.463,12.08-4.636s8.911,2.82,8.5,7.642-2.051,7.825-6.932,7.392S1033.574,323.709,1033.634,314.429Z" transform="translate(-969.556 -285.631)" fill="#5b9348" stroke="#000" stroke-linejoin="round" stroke-width="0.2"/>
              <path id="Path_2060" data-name="Path 2060" d="M1018.241,310.859c2.587-5.816,4.6-7.727,8.7-7.835s1.224,6.894,2.326,9.411,5.6,2.278,6.209,5.922-.6,8.951-3.474,9.808-8.048,1.353-12.168-5.294C1017.276,318.742,1016.689,314.347,1018.241,310.859Z" transform="translate(-985.915 -292.093)" fill="#5b9348" stroke="#000" stroke-linejoin="round" stroke-width="0.2"/>
              <path id="Path_2061" data-name="Path 2061" d="M1026.6,319.1c2.212-5.084,13.218-4.464,14.813-.991s2.132,6.472,6.035,8.339,3.291,8.146-1.168,9.388-10.968,2.491-15.859-1.758S1024.121,324.807,1026.6,319.1Z" transform="translate(-977.845 -279.634)" fill="#5b9348" stroke="#000" stroke-linejoin="round" stroke-width="0.2"/>
              <path id="Path_2062" data-name="Path 2062" d="M1025.609,334.643c1.834-2.782,2.533-5.427,1.048-8.774s-3.387-4.6-3.514-10.324-3.665-6.667-7.623-5.4-9.96,6.808-6.749,13.669,3.452,7.129,9.435,10.057S1025.609,334.643,1025.609,334.643Z" transform="translate(-995.509 -285.42)" fill="#5b9348" stroke="#000" stroke-linejoin="round" stroke-width="0.2"/>
              <path id="Path_2063" data-name="Path 2063" d="M1017.15,327.754c1.26-6.047,9.922-4.867,13.944-2.464s2.3,6.555,6.677,10.1,3.149,8.257-1.7,8.505-12.2-1.319-15.421-7.783S1016.363,331.529,1017.15,327.754Z" transform="translate(-986.403 -271.64)" fill="#5b9348" stroke="#000" stroke-linejoin="round" stroke-width="0.2"/>
              <path id="Path_2064" data-name="Path 2064" d="M1012.965,332.819c1.489-3.049,10.813-3.893,13.418.672s1.075,5.824,4.277,9.36,3.378,5.573.253,9.278-9.39-1.8-15.574-4.487-4.449-4.925-4.138-8.77A13.833,13.833,0,0,1,1012.965,332.819Z" transform="translate(-992.608 -264.627)" fill="#5b9348" stroke="#000" stroke-linejoin="round" stroke-width="0.2"/>
              <path id="Path_2065" data-name="Path 2065" d="M1003.455,322.033c1.778-2.673,7.578-2.94,8.559.9s7.9,4.311,8.606,7.7,2.968,9.836-1.881,12.654-10.207-.52-12.961-6.017S999.547,327.9,1003.455,322.033Z" transform="translate(-1001.706 -274.964)" fill="#5b9348" stroke="#000" stroke-linejoin="round" stroke-width="0.2"/>
              <path id="Path_2066" data-name="Path 2066" d="M1067.117,306.537c3.783,5.391-16.684,16.549-28.178,28.4s-20.188,20.768-24.753,30.144l-6.41-4.682s13.418-19.212,26.772-31.533C1046.883,317.489,1064.183,302.356,1067.117,306.537Z" transform="translate(-995.593 -289.27)" fill="#ecb36f" stroke="#000" stroke-linejoin="round" stroke-width="0.2"/>
              <path id="Path_2067" data-name="Path 2067" d="M1036.809,316.142s-2.107-2.7,1.431-10.827,3.683-7.522,9.854-7.57,10.695.869,8.814,7.548-4.927,10.854-10.392,11.159S1039.051,317.5,1036.809,316.142Z" transform="translate(-966.986 -297.409)" fill="#5b9348" stroke="#000" stroke-linejoin="round" stroke-width="0.2"/>
            </g>
            <g id="Group_570" data-name="Group 570" transform="translate(87.693 78.738)">
              <path id="Path_2068" data-name="Path 2068" d="M1049.409,342.828c-1.889-2.468-.713-6.159-3.871-10.7s-.793-10.587,5.192-11.933,13.507-5.645,15.255-1.591-2.318,7.341-2.344,10.807-3.123,12-8.678,12.706Z" transform="translate(-975.518 -316.545)" fill="#5b9348" stroke="#000" stroke-linejoin="round" stroke-width="0.2"/>
              <path id="Path_2069" data-name="Path 2069" d="M1036.4,326.905c1.684-3.7,4.668-11.361,7.859-10.025s6.444,2.26,6.141,8.216.261,9.495-1.9,14.315-2.156,7.456-6.338,7.61-9.706.8-10.185-6.444S1035.345,329.241,1036.4,326.905Z" transform="translate(-987.797 -316.726)" fill="#5b9348" stroke="#000" stroke-linejoin="round" stroke-width="0.2"/>
              <path id="Path_2070" data-name="Path 2070" d="M1035.585,334.139c4.477-1.911,4.748,1.764,11.443,5.666s3.339,8.638,6.093,12.854,4.181,11.2.135,13.308-8.457-6.284-15.025-8.208-8.271-7.745-6.551-13.264S1031.036,336.084,1035.585,334.139Z" transform="translate(-988.691 -299.716)" fill="#5b9348" stroke="#000" stroke-linejoin="round" stroke-width="0.2"/>
              <path id="Path_2071" data-name="Path 2071" d="M1025.2,337.9c3.871-1.949,11.53,2,13.468,6.818s-.943,9.437,1.927,14.247.564,9.238-4.435,10.189-5.677-5.433-9.31-7.671-12.608-6.529-10.322-17.551S1025.2,337.9,1025.2,337.9Z" transform="translate(-1003.685 -296.539)" fill="#5b9348" stroke="#000" stroke-linejoin="round" stroke-width="0.2"/>
              <path id="Path_2072" data-name="Path 2072" d="M1048.3,332.959l-3.016,11.072c-1.473,5.417.9,9.479,5.728,10.97s3.261,4.985,7.6,5.228,9.922-1.621,8.387-7.55-7.515-15.112-12.917-19.6S1048.3,332.959,1048.3,332.959Z" transform="translate(-974.793 -302.303)" fill="#5b9348" stroke="#000" stroke-linejoin="round" stroke-width="0.2"/>
              <path id="Path_2073" data-name="Path 2073" d="M1100.751,331.062c.295,6.854-31.667,5.282-57.033,13.061s-31.571,14.667-31.571,14.667-5.242-2.557.452-10.171,32.962-14.532,48.855-16.7c6.739-.919,14.793-2.063,21.847-2.715C1092.887,328.316,1100.635,328.34,1100.751,331.062Z" transform="translate(-1009.945 -304.686)" fill="#ecb36f" stroke="#000" stroke-linejoin="round" stroke-width="0.2"/>
              <path id="Path_2074" data-name="Path 2074" d="M1053.714,337.616s-.784-2.786,4.01-7.717,6.736-9.057,11.5-6.484,10.982,5.868,6.607,15.586-3.735,13.97-9.071,12.385-11.788-3.839-12.5-8.032A24.809,24.809,0,0,1,1053.714,337.616Z" transform="translate(-965.921 -310.785)" fill="#5b9348" stroke="#000" stroke-linejoin="round" stroke-width="0.2"/>
            </g>
            <path id="Path_2075" data-name="Path 2075" d="M992.328,405.42c8.008,4.1,8.381,10.992,15.859,13.838,5.333,2.027,10.5-1.923,19.845-1.688,19.11-31.041,40.446-71.009,26.409-83.587-20.914-18.741-58.759,23.044-74.515,43.043a208.589,208.589,0,0,0-13.675,19.688C975.819,402.113,984.321,401.326,992.328,405.42Z" transform="translate(-966.25 -225.363)" fill="#fff6eb" stroke="#000" stroke-linejoin="round" stroke-width="0.2"/>
            <path id="Path_2076" data-name="Path 2076" d="M996.871,335.933s4.843,1.505,6.557,3.938" transform="translate(-935.417 -218.648)" fill="#ddd658" stroke="#000" stroke-linejoin="round" stroke-width="0.2"/>
          </g>
          <path id="Path_2077" data-name="Path 2077" d="M994.5,339.59s8.182,3.8,11.654,8.562" transform="translate(-920.839 -214.965)" fill="#ddd658" stroke="#000" stroke-linejoin="round" stroke-width="0.2"/>
          <path id="Path_2078" data-name="Path 2078" d="M994.818,343.359a14.114,14.114,0,0,1,4.722,2.719" transform="translate(-920.519 -211.17)" fill="#ddd658" stroke="#000" stroke-linejoin="round" stroke-width="0.2"/>
          <path id="Path_2079" data-name="Path 2079" d="M996.352,352.947a30.553,30.553,0,0,1,7.761,9.043" transform="translate(-918.975 -201.516)" fill="#ddd658" stroke="#000" stroke-linejoin="round" stroke-width="0.2"/>
          <path id="Path_2080" data-name="Path 2080" d="M983.536,355.481s6.613,2.812,9.442,6" transform="translate(-931.88 -198.964)" fill="#ddd658" stroke="#000" stroke-linejoin="round" stroke-width="0.2"/>
          <path id="Path_2081" data-name="Path 2081" d="M991.116,360.7a11.717,11.717,0,0,1,2.734,3.707" transform="translate(-924.247 -193.708)" fill="#ddd658" stroke="#000" stroke-linejoin="round" stroke-width="0.2"/>
          <g id="Group_572" data-name="Group 572" transform="translate(0 168.267)">
            <path id="Path_2082" data-name="Path 2082" d="M957.8,362.356s7.39-3.338,16.961,2.063,18.073,4.612,26.082,8.708,8.381,10.992,15.859,13.838,14.624-6.081,33.445,1.293" transform="translate(-957.797 -361.336)" fill="#ddd658" stroke="#000" stroke-linejoin="round" stroke-width="0.2"/>
          </g>
        </g>
        <g id="Group_578" data-name="Group 578" transform="translate(22.577 12.559)">
          <g id="Group_574" data-name="Group 574" transform="translate(57.826 36.227)">
            <path id="Path_2083" data-name="Path 2083" d="M989.007,310.547s-3.219-.632-7.145-1.682-2.982-4.682-2.33-7.247-2.446-2.645-2.358-7.67,2.7-8.483,5.549-7.839,4.024,1.467,4.618,6.412,5.491,8.351,5.67,13.244Z" transform="translate(-962.849 -267.484)" fill="#5b9348" stroke="#000" stroke-linejoin="round" stroke-width="0.2"/>
            <path id="Path_2084" data-name="Path 2084" d="M995.172,300.828a19.164,19.164,0,0,1-6.837-1.7c-4.433-1.882-2.539-5.892-3.89-9.26s.648-8.937,4.2-8.592,7.965.387,8.261,4.63,4.62,6.944,3.713,11.018S995.172,300.828,995.172,300.828Z" transform="translate(-955.953 -272.288)" fill="#5b9348" stroke="#000" stroke-linejoin="round" stroke-width="0.2"/>
            <path id="Path_2085" data-name="Path 2085" d="M999.257,297.193a10.665,10.665,0,0,1-5.7-5.228c-1.533-3.562,1.22-6.99,1.23-9.974s2.27-6.059,6.217-4.979,7.568,1.337,6.808,5.352a42.37,42.37,0,0,0-.293,11.283C1007.794,295.776,1002.97,298.945,999.257,297.193Z" transform="translate(-946.82 -276.79)" fill="#5b9348" stroke="#000" stroke-linejoin="round" stroke-width="0.2"/>
            <path id="Path_2086" data-name="Path 2086" d="M995.425,292.692s6.211-.751,8.67,3.095,2.657,6.139,5.7,6.912,5.208,5.238,2.665,7.821-8.244,4.239-11.929.267-5.9-4-7.891-7.285S990,294.5,995.425,292.692Z" transform="translate(-948.73 -260.838)" fill="#5b9348" stroke="#000" stroke-linejoin="round" stroke-width="0.2"/>
            <path id="Path_2087" data-name="Path 2087" d="M988.436,299.788s6.759-.586,10.219,2,4.453,6.009,6.336,8.108,1.3,6.167-3.371,6.2-5.621-1.252-9.467-2.083-6.081-5.049-7.815-7.313S988.436,299.788,988.436,299.788Z" transform="translate(-955.958 -253.69)" fill="#5b9348" stroke="#000" stroke-linejoin="round" stroke-width="0.2"/>
            <path id="Path_2088" data-name="Path 2088" d="M984.254,306.5s6.912-.359,10.283,3.482,6.771,3.875,6.424,7.937-1.226,5.756-6.779,3.893-8.579.066-11.439-.528S977.527,309.658,984.254,306.5Z" transform="translate(-960.107 -246.888)" fill="#5b9348" stroke="#000" stroke-linejoin="round" stroke-width="0.2"/>
            <path id="Path_2089" data-name="Path 2089" d="M988.162,316.189c.03-5.515,1.268-9.545-3.352-11.279s-4.766-10.482-8.311-9.868-6.826,2.426-6.384,6.31S968.6,306.59,972.8,313.5s10.651,9.28,14.418,8.423S988.162,316.189,988.162,316.189Z" transform="translate(-970.035 -258.442)" fill="#5b9348" stroke="#000" stroke-linejoin="round" stroke-width="0.2"/>
            <path id="Path_2090" data-name="Path 2090" d="M997.722,292.265a26.579,26.579,0,0,1,3.988,7.062c1.036,3.35,6.511,6.872,12.672,3.394s3.976-10.681-.265-11.767-7.879-3.721-10.518-4.148S997.722,292.265,997.722,292.265Z" transform="translate(-942.156 -266.727)" fill="#5b9348" stroke="#000" stroke-linejoin="round" stroke-width="0.2"/>
            <path id="Path_2091" data-name="Path 2091" d="M977.566,331.433s4.708-13.426,19.539-28.053,29.378-22.53,32.928-18.713-22.857,13.94-33.772,29.343-14.574,25.853-14.574,25.853Z" transform="translate(-962.452 -269.82)" fill="#ecb36f" stroke="#000" stroke-linejoin="round" stroke-width="0.2"/>
          </g>
          <g id="Group_575" data-name="Group 575" transform="translate(40.296)">
            <path id="Path_2092" data-name="Path 2092" d="M965.1,273.122c-3.119-5.854,4.048-7.976,7.127-5.029,1.979,1.895,5.009,6.256,9.8,8.146s3.955,11.4,1.937,12.19-3.947-1.66-5.941-1.489-7.686,2.42-10.659-2.133S967.747,278.1,965.1,273.122Z" transform="translate(-958.253 -250.649)" fill="#5b9348" stroke="#000" stroke-linejoin="round" stroke-width="0.2"/>
            <path id="Path_2093" data-name="Path 2093" d="M963.867,280.552c2.615-2.24,6.077-1.758,7.275,1.585s5.619-.032,8.022,1.443,7.4,3.578,7.057,6.707-6.314,9.629-10.035,10.713-7.47-1.581-8.538-6.175-2.332-5.316-3.609-6.537S961.172,282.86,963.867,280.552Z" transform="translate(-960.197 -238.158)" fill="#5b9348" stroke="#000" stroke-linejoin="round" stroke-width="0.2"/>
            <path id="Path_2094" data-name="Path 2094" d="M963.042,298.994c-.883-3.657-.155-6.916,3.2-7.366s8.05,2.619,13.683,3.34,8.8,8.279,6.8,13.553-3.011,9.681-7.528,9.033-6.139-3.109-9.725-3.153-9.527-1.724-7.893-8.311C962.329,303.062,963.533,301.031,963.042,298.994Z" transform="translate(-961.3 -225.667)" fill="#5b9348" stroke="#000" stroke-linejoin="round" stroke-width="0.2"/>
            <path id="Path_2095" data-name="Path 2095" d="M975.871,277.6a50.376,50.376,0,0,0,3.719-4.343c2.487-3.147,6.99-6.657,10.675-3.863s4.955,7.135,1.622,10.512-2.6,6.45-6.784,8.144-9.134-.329-9.134-.329Z" transform="translate(-946.629 -249.041)" fill="#5b9348" stroke="#000" stroke-linejoin="round" stroke-width="0.2"/>
            <path id="Path_2096" data-name="Path 2096" d="M976.5,289.254s1.913-4.291,5.453-5.5,6.46-5.009,8.947-4.255,4.933,1.511,5.043,6.372-.578,8.728-5.638,11.7-11.532,7.343-14.147,4.478S976.5,289.254,976.5,289.254Z" transform="translate(-947.423 -237.939)" fill="#5b9348" stroke="#000" stroke-linejoin="round" stroke-width="0.2"/>
            <path id="Path_2097" data-name="Path 2097" d="M976.919,268.563c5.274-1.017-.464,55.213,2.262,77.726l-4.807.757s-3.193-21.954-.917-40.841S972.026,269.508,976.919,268.563Z" transform="translate(-949.884 -248.861)" fill="#ecb36f" stroke="#000" stroke-linejoin="round" stroke-width="0.2"/>
            <path id="Path_2098" data-name="Path 2098" d="M970.135,263.74c-.076-3.472,6.894-6.541,10.059-4.156s7.574,9.164,7.305,11.789-5.19,6.924-6.739,8.467-10.049-2.994-10.434-6.6S970.2,266.522,970.135,263.74Z" transform="translate(-952.432 -258.739)" fill="#5b9348" stroke="#000" stroke-linejoin="round" stroke-width="0.2"/>
          </g>
          <g id="Group_576" data-name="Group 576" transform="translate(83.4 61.101)">
            <path id="Path_2099" data-name="Path 2099" d="M998.256,309.259a27.622,27.622,0,0,1,.151,6.683c-.384,3.452,2.1,4.931,5.962,9.146s.933,6.585,7.817,7.351,7.815-5.724,6.517-8.835-3.679-6.436-6.089-11.145a11.8,11.8,0,0,0-7.5-5.754Z" transform="translate(-967.193 -271.541)" fill="#5b9348" stroke="#000" stroke-linejoin="round" stroke-width="0.2"/>
            <path id="Path_2100" data-name="Path 2100" d="M998.758,311.471a6.889,6.889,0,0,0,4.548,4.371c3.554.993,6.269,4.773,5.087,10.637s3.221,10.908-1.647,12.634-8.614-.574-12.319-8.172-7.355-5.158-8.226-13.99S998.758,311.471,998.758,311.471Z" transform="translate(-979.373 -267.373)" fill="#5b9348" stroke="#000" stroke-linejoin="round" stroke-width="0.2"/>
            <path id="Path_2101" data-name="Path 2101" d="M1007.422,304.166a19.154,19.154,0,0,1,.183,8.108c-.811,4.925,4.544,4,8.477,8.154s6.3,3.283,10.671,1.29-2.372-6.675-2.729-10.245-2.82-7.889-7.9-8.138A28.567,28.567,0,0,0,1007.422,304.166Z" transform="translate(-957.963 -274.973)" fill="#5b9348" stroke="#000" stroke-linejoin="round" stroke-width="0.2"/>
            <path id="Path_2102" data-name="Path 2102" d="M996.5,319.941c-.2-1.01,1.722-8.513.619-15.048s3.217-11.568,9.571-11.064,8.423,7.568,6.356,10.707.259,9.461-2.079,10.789S996.5,319.941,996.5,319.941Z" transform="translate(-968.973 -284.543)" fill="#5b9348" stroke="#000" stroke-linejoin="round" stroke-width="0.2"/>
            <path id="Path_2103" data-name="Path 2103" d="M1009.7,315.178c-.419-1.993,2.264-7.771-.287-12.742s-.973-7.514,2.2-9.738,6.974-5.585,9.22-1.812-.188,11.265-1.1,14.034,1.254,7.819-4.389,9.037Z" transform="translate(-957.242 -289.184)" fill="#5b9348" stroke="#000" stroke-linejoin="round" stroke-width="0.2"/>
            <path id="Path_2104" data-name="Path 2104" d="M1046.761,301.59c1.9,4.568-21.851,8.694-33.006,15.913s-21.966,9.734-29.618,13.709l-1.359-4.9s9.3-7.594,24.758-13.884S1044.77,296.791,1046.761,301.59Z" transform="translate(-982.778 -278.023)" fill="#ecb36f" stroke="#000" stroke-linejoin="round" stroke-width="0.2"/>
            <path id="Path_2105" data-name="Path 2105" d="M1015.845,312.725c-3-2.282-2.625-4.646-.221-9.872s4.9-9.836,9.962-6.936,6.3,6.826,3.127,11.447S1021.96,317.367,1015.845,312.725Z" transform="translate(-951.636 -283.308)" fill="#5b9348" stroke="#000" stroke-linejoin="round" stroke-width="0.2"/>
          </g>
          <g id="Group_577" data-name="Group 577" transform="translate(0 97.415)">
            <path id="Path_2106" data-name="Path 2106" d="M1010.816,307.292c-19.854.716-44.821,40.345-54.119,57.486a209.088,209.088,0,0,0-15.475,36.474,12.5,12.5,0,0,1,5.973.548c8.461,2.98,8.164,8.959,19.435,6.84s13.5-2.356,24.428,2.25a17.168,17.168,0,0,0,10.354.616,272.532,272.532,0,0,0,16.746-32.235C1031.68,348.364,1035.243,306.413,1010.816,307.292Z" transform="translate(-941.222 -307.278)" fill="#fff6eb" stroke="#000" stroke-linejoin="round" stroke-width="0.2"/>
          </g>
          <path id="Path_2107" data-name="Path 2107" d="M953.361,334.589s10.018,2.788,13.98,8.283" transform="translate(-928.999 -182.363)" fill="none" stroke="#000" stroke-linejoin="round" stroke-width="0.2"/>
          <path id="Path_2108" data-name="Path 2108" d="M968.451,326.187a29.736,29.736,0,0,1,15.905,14.127" transform="translate(-913.804 -190.824)" fill="none" stroke="#000" stroke-linejoin="round" stroke-width="0.2"/>
          <path id="Path_2109" data-name="Path 2109" d="M971.1,314.895a12.058,12.058,0,0,1,5.2,2.029" transform="translate(-911.142 -202.194)" fill="none" stroke="#000" stroke-linejoin="round" stroke-width="0.2"/>
          <path id="Path_2110" data-name="Path 2110" d="M968.039,329.8s4.082,2.438,5.447,5.2" transform="translate(-914.219 -187.182)" fill="none" stroke="#000" stroke-linejoin="round" stroke-width="0.2"/>
          <path id="Path_2111" data-name="Path 2111" d="M959.493,348.038s9.9,5.884,12.158,12.989" transform="translate(-922.824 -168.821)" fill="none" stroke="#000" stroke-linejoin="round" stroke-width="0.2"/>
          <path id="Path_2112" data-name="Path 2112" d="M961.944,341.046s2.123,1.311,2.5,2.7" transform="translate(-920.357 -175.862)" fill="none" stroke="#000" stroke-linejoin="round" stroke-width="0.2"/>
        </g>
      </g>
      <g id="Group_581" data-name="Group 581" transform="translate(362.371 56.543)">
        <g id="Group_580" data-name="Group 580">
          <path id="Path_2113" data-name="Path 2113" d="M926.268,187.8c51.058-3.853,129.036,149.655,135.432,335.974l-233.458,8.9S858.169,192.936,926.268,187.8Z" transform="translate(-828.241 -187.726)" fill="#b8bf30"/>
          <path id="Path_2114" data-name="Path 2114" d="M926.268,187.8c51.058-3.853,129.036,149.655,135.432,335.974l-233.458,8.9S858.169,192.936,926.268,187.8Z" transform="translate(-828.241 -187.726)" fill="none" stroke="#000" stroke-linejoin="round" stroke-width="0.2"/>
        </g>
        <path id="Path_2115" data-name="Path 2115" d="M872.917,238.99c-5.521,13.8-4.415,40.3-10.488,53.547" transform="translate(-793.816 -136.106)" fill="none" stroke="#000" stroke-linejoin="round" stroke-width="0.2"/>
        <path id="Path_2116" data-name="Path 2116" d="M873.457,256.044s-.554,19.321-7.177,29.257" transform="translate(-789.938 -118.934)" fill="none" stroke="#000" stroke-linejoin="round" stroke-width="0.2"/>
        <path id="Path_2117" data-name="Path 2117" d="M890.456,262.095s-.486,33.122,6.139,43.059" transform="translate(-765.603 -112.841)" fill="none" stroke="#000" stroke-linejoin="round" stroke-width="0.2"/>
        <path id="Path_2118" data-name="Path 2118" d="M895.436,270.622s.552,9.936,4.415,18.217" transform="translate(-760.58 -104.255)" fill="none" stroke="#000" stroke-linejoin="round" stroke-width="0.2"/>
      </g>
      <g id="Group_601" data-name="Group 601" transform="translate(418.386)">
        <path id="Path_2119" data-name="Path 2119" d="M958.39,244.763c20.212.9,29.658,125.214,34.694,210.94,0,0,5.575,45.646-34.321,48.73s-42.342-54.075-42.342-54.075S925.647,243.3,958.39,244.763Z" transform="translate(-795.465 -73.757)" fill="#ecb36f" stroke="#000" stroke-linejoin="round" stroke-width="0.2"/>
        <path id="Path_2120" data-name="Path 2120" d="M934.947,302.554s14.653,1.323,20.9-3.753" transform="translate(-776.81 -19.337)" fill="none" stroke="#000" stroke-linejoin="round" stroke-width="0.2"/>
        <path id="Path_2121" data-name="Path 2121" d="M928.161,294.355s1.778,1.22,7.179,1.013" transform="translate(-783.643 -23.814)" fill="none" stroke="#000" stroke-linejoin="round" stroke-width="0.2"/>
        <path id="Path_2122" data-name="Path 2122" d="M922.908,308.879a46.777,46.777,0,0,0,26.658,2.372" transform="translate(-788.933 -9.189)" fill="none" stroke="#000" stroke-linejoin="round" stroke-width="0.2"/>
        <path id="Path_2123" data-name="Path 2123" d="M943.234,322.7a16.821,16.821,0,0,0,10.95-2.266" transform="translate(-768.466 2.442)" fill="none" stroke="#000" stroke-linejoin="round" stroke-width="0.2"/>
        <path id="Path_2124" data-name="Path 2124" d="M949.363,254.623c14.753-2.794,26.795,14.137,26.461,36.92s-8.224,29.49-13.031,41.263-16.427,17.057-22.985,4.347-21.237-25.012-17.591-50.109S941.417,256.129,949.363,254.623Z" transform="translate(-790.206 -64.125)" fill="#d3e296" stroke="#000" stroke-linejoin="round" stroke-width="0.2"/>
        <g id="Group_600" data-name="Group 600">
          <g id="Group_587" data-name="Group 587" transform="translate(171.506 31.498)">
            <g id="Group_582" data-name="Group 582" transform="translate(36.845)">
              <path id="Path_2125" data-name="Path 2125" d="M978.089,175.246c6.4,0,4.977,11.6,5.3,17.763s4.45,4.349,8.086.624,4.4-6.723,7.405-4.16-4.518,12.417-1.264,16.383,7.106-2.121,8.166,4.9-16.306,38.138-16.306,38.138-28.926-6.956-29.494-17.928,13.475.791,14.926-4.17-14.576-6.183-13.649-13.593,9.918-3.783,11.082-8.5-13.984-2.147-11.532-9.7,11.616,1.7,12.985-2.2S971.147,175.244,978.089,175.246Z" transform="translate(-959.968 -175.246)" fill="#ddd658" stroke="#000" stroke-linejoin="round" stroke-width="0.2"/>
              <path id="Path_2126" data-name="Path 2126" d="M969.523,185.663s8.917,33.247,10.334,52.742" transform="translate(-950.346 -164.757)" fill="#ddd658" stroke="#000" stroke-linejoin="round" stroke-width="0.2"/>
            </g>
            <g id="Group_583" data-name="Group 583" transform="translate(61.965 16.856)">
              <path id="Path_2127" data-name="Path 2127" d="M976.169,239.56s-7.646-30.5-.909-34.78,4.835,13.456,11.187,10.743.149-26.154,6.621-26.989,1.236,14.484,6.589,16.381,14.739-26.335,22.562-20.465-11.122,18.879-7.787,24.448,16.836-3.326,17.832,4.524-28.6,7.4-27.26,14.2,12.521-1.284,12.322,6.376S997.849,243.9,976.169,239.56Z" transform="translate(-972.484 -183.645)" fill="#ddd658" stroke="#000" stroke-linejoin="round" stroke-width="0.2"/>
              <path id="Path_2128" data-name="Path 2128" d="M974.32,225.648c18.867-7.622,29.554-28.187,29.554-28.187" transform="translate(-970.635 -169.733)" fill="#ddd658" stroke="#000" stroke-linejoin="round" stroke-width="0.2"/>
            </g>
            <g id="Group_584" data-name="Group 584" transform="translate(65.844 64.197)">
              <path id="Path_2129" data-name="Path 2129" d="M1038.539,249.815c-2.613,4.628-14.39-2.956-19.8-5.8s3.219,10.149-1.776,13.1-14.767-17.041-18.5-16.985,2.94,9.421-1.923,12.455-19.812-25.938-22.127-37c0,0,39.113-14.388,42.5-5.4s-13.763,4.927-12.7,10.237,26.734-8.959,30.678.261-16.714,6.665-15.562,11.1S1043.3,241.376,1038.539,249.815Z" transform="translate(-974.417 -207.234)" fill="#ddd658" stroke="#000" stroke-linejoin="round" stroke-width="0.2"/>
              <path id="Path_2130" data-name="Path 2130" d="M1010.144,229.023S988.813,220,974.417,211.4" transform="translate(-974.417 -203.043)" fill="#ddd658" stroke="#000" stroke-linejoin="round" stroke-width="0.2"/>
            </g>
            <g id="Group_585" data-name="Group 585" transform="translate(38.478 72.557)">
              <path id="Path_2131" data-name="Path 2131" d="M972.742,275.183c-4.929-1.1-1.565-10.257-.516-15.941s-8.784.861-10.8-3.689,12.513-11.165,11.2-15-10.561,7.3-11.8,1.674,24.549-17.2,27.389-30.83c0,0,13.009,14.428,17.061,26.827,3.4,10.4-3.877,11.04-5.8,7.127-1.555-3.177-6.286-3.584-4.967,1.7s4.092,16.352-.164,17.31-5.178-10.121-9.878-7.424S982.931,277.451,972.742,275.183Z" transform="translate(-960.781 -211.399)" fill="#ddd658" stroke="#000" stroke-linejoin="round" stroke-width="0.2"/>
              <path id="Path_2132" data-name="Path 2132" d="M972.174,251.979a56.75,56.75,0,0,0,4.568-40.58" transform="translate(-949.31 -211.399)" fill="#ddd658" stroke="#000" stroke-linejoin="round" stroke-width="0.2"/>
            </g>
            <g id="Group_586" data-name="Group 586" transform="translate(0 53.757)">
              <path id="Path_2133" data-name="Path 2133" d="M941.612,222.176c-.2-5.045,9.519-4.128,15.283-4.564s-3.073-8.273.813-11.383,13.986,9.252,17.358,7.008-9.749-8.349-4.628-10.986,22.887,19.353,36.8,18.622c0,0-10.635,16.258-21.591,23.337-9.188,5.936-11.664-.935-8.369-3.789,2.675-2.314,1.862-6.992-2.91-4.369s-14.769,8.124-16.78,4.253,8.467-7.586,4.66-11.444S942.017,232.608,941.612,222.176Z" transform="translate(-941.609 -202.032)" fill="#ddd658" stroke="#000" stroke-linejoin="round" stroke-width="0.2"/>
              <path id="Path_2134" data-name="Path 2134" d="M954.175,217.35a56.756,56.756,0,0,0,40.4-5.93" transform="translate(-928.955 -192.578)" fill="#ddd658" stroke="#000" stroke-linejoin="round" stroke-width="0.2"/>
            </g>
          </g>
          <g id="Group_593" data-name="Group 593" transform="translate(84.714)">
            <g id="Group_588" data-name="Group 588" transform="translate(76.232 44.986)">
              <path id="Path_2135" data-name="Path 2135" d="M936.347,210.2s16.828,14.117,22.524,24.489,11.1,6.657,10.095,1.852-6.831-10.962-2.36-12.782S973.184,241,981.09,235.311s-7.783-11.626-3.522-15.825,21.378,8.738,25.763-2.147-24.9-6.45-24.75-10.968,14.817-5.746,12.529-11.831-18.52,5.266-23.85,2.886,10.92-8.806,6.193-13.9S951.65,185.391,936.347,210.2Z" transform="translate(-936.347 -181.967)" fill="#ddd658" stroke="#000" stroke-linejoin="round" stroke-width="0.2"/>
              <path id="Path_2136" data-name="Path 2136" d="M977.967,198.306s-24.707-9.683-41.62-.173" transform="translate(-936.347 -169.9)" fill="#ddd658" stroke="#000" stroke-linejoin="round" stroke-width="0.2"/>
            </g>
            <g id="Group_589" data-name="Group 589" transform="translate(32.729 72.381)">
              <path id="Path_2137" data-name="Path 2137" d="M919.767,252.792c-6.669-5.015,8.519-10.683,6.948-15.473s-8.981,3.861-11.754-2.366,15.283-10.484,14.536-15.6-7.544-1.373-7.924-6.37,23.9-16.772,37.2-17.364c0,0,6.416,14.815,6.926,24.346s-.036,16.726-4.979,18.675-4.319-6.123-9.184-5.051.078,15.853-6.553,17.181c-6.3,1.262-4.13-7.257-8.148-7.787S923.376,255.506,919.767,252.792Z" transform="translate(-914.67 -195.617)" fill="#ddd658" stroke="#000" stroke-linejoin="round" stroke-width="0.2"/>
              <path id="Path_2138" data-name="Path 2138" d="M948.746,195.617c-2.683,14.544-24.113,35.171-24.113,35.171" transform="translate(-904.639 -195.617)" fill="#ddd658" stroke="#000" stroke-linejoin="round" stroke-width="0.2"/>
            </g>
            <g id="Group_590" data-name="Group 590" transform="translate(0 32.49)">
              <path id="Path_2139" data-name="Path 2139" d="M975.454,215.559s-5.8-11.562-13.228-19.174-9.577-8.156-11.953-5.726,1.947,6.368-.173,9.065-10.406-7.47-14.024-13.418-8.479-12.182-12.349-10.185,3.629,8.18.5,11.526-7.4-.913-13.5-5.2-10.557-3.181-11.849-.524c-4.405,9.063,20.882,14.428,17.763,20.31-1.581,2.984-5.246,5.461-1.762,9.326s12.676-1.893,19.022.749-5.8,6.328-3.083,10.8S954.688,229.672,975.454,215.559Z" transform="translate(-898.362 -175.741)" fill="#ddd658" stroke="#000" stroke-linejoin="round" stroke-width="0.2"/>
              <path id="Path_2140" data-name="Path 2140" d="M911.425,186.037c.339.542,21.607,15.724,50.876,19.154" transform="translate(-885.21 -165.373)" fill="#ddd658" stroke="#000" stroke-linejoin="round" stroke-width="0.2"/>
            </g>
            <g id="Group_591" data-name="Group 591" transform="translate(76.572 73.198)">
              <path id="Path_2141" data-name="Path 2141" d="M966.275,246.159c-3.811,2.362-7.361-5.547-10.221-9.812s-5.047,6-9.153,4.361,1.021-14.861-2.19-16.485-2.18,11.193-6.462,8.391,4.927-26.164-1.732-36.59c0,0,17.222,1.094,27.493,6.458,8.612,4.5,4.387,9.423.739,8.126-2.961-1.052-6.22,1.624-2.1,4.162s12.75,7.853,10.638,11.1-9.571-3.217-10.884,1.413S974.158,241.274,966.275,246.159Z" transform="translate(-936.516 -196.024)" fill="#ddd658" stroke="#000" stroke-linejoin="round" stroke-width="0.2"/>
              <path id="Path_2142" data-name="Path 2142" d="M958.8,224.645a50.4,50.4,0,0,0-22.285-28.621" transform="translate(-936.516 -196.024)" fill="#ddd658" stroke="#000" stroke-linejoin="round" stroke-width="0.2"/>
            </g>
            <g id="Group_592" data-name="Group 592" transform="translate(51.818)">
              <path id="Path_2143" data-name="Path 2143" d="M950.052,159.554c5.312.159,4.084,14.113,4.082,20.228s7.484-7.576,12.423-4.53-8.206,21-6.421,24.276,6.966-6.986,11.918-4.1-13.732,29.61-22.44,36.807c0,0-30.943-27.916-24.567-35.1s10.769,9.888,14.972,6.472-20.374-19.491-14.053-27.272,13.679,11.688,17.069,8.6S940.364,159.265,950.052,159.554Z" transform="translate(-924.182 -159.552)" fill="#ddd658" stroke="#000" stroke-linejoin="round" stroke-width="0.2"/>
              <path id="Path_2144" data-name="Path 2144" d="M936.339,175.926s1.945,23.08,1.034,39.826" transform="translate(-911.94 -143.064)" fill="#ddd658" stroke="#000" stroke-linejoin="round" stroke-width="0.2"/>
            </g>
          </g>
          <g id="Group_594" data-name="Group 594" transform="translate(85.401 79.547)">
            <path id="Path_2145" data-name="Path 2145" d="M948.174,245.988c5.726-5.439-9.892-11.335-9.7-16.409s9.806-2.768,10.825-8.365-18.425-2.491-19.712-7.243,8.487-2.043,8.652-6.727-20.746-15.235-39.539-.51c0,0,11.622,17.868,19.569,24.4s10.292,6.29,15.464,7.745S943.363,250.556,948.174,245.988Z" transform="translate(-898.705 -199.188)" fill="#ddd658" stroke="#000" stroke-linejoin="round" stroke-width="0.2"/>
            <path id="Path_2146" data-name="Path 2146" d="M932.658,224.442a49.836,49.836,0,0,0-33.953-21.494" transform="translate(-898.705 -195.402)" fill="#ddd658" stroke="#000" stroke-linejoin="round" stroke-width="0.2"/>
          </g>
          <path id="Path_2147" data-name="Path 2147" d="M941.723,194.782c8.973-.2,5.876,90.926,15.355,107.457l-25.067.279s8.548-32.741,8.544-57.844C940.549,216.991,936.278,194.9,941.723,194.782Z" transform="translate(-779.767 -124.077)" fill="#ecb36f" stroke="#000" stroke-linejoin="round" stroke-width="0.2"/>
          <path id="Path_2148" data-name="Path 2148" d="M1010.169,212.32c3.406,6.547-48.506,40.974-53.089,76.279l-17.26-2.715C952.042,249.156,1005.374,203.107,1010.169,212.32Z" transform="translate(-771.904 -107.618)" fill="#ecb36f" stroke="#000" stroke-linejoin="round" stroke-width="0.2"/>
          <g id="Group_595" data-name="Group 595" transform="translate(37.463 19.2)">
            <path id="Path_2149" data-name="Path 2149" d="M885.306,169.77c8.337-4.271,6.6,13.844,12.208,14.61s.512-10.962,8.16-10.7,3.079,20.573,8.612,22.335,5.089-6.942,10.319-4.871,5.2,32.36-.737,46.081c0,0-18.106-.8-27.976-4.961s-16.866-8.248-16.407-14.2,8.3-1.353,9.607-6.789-16.039-7.7-14.127-15.05c1.821-6.982,9.354-.606,11.861-4.4S880.8,172.078,885.306,169.77Z" transform="translate(-874.819 -169.119)" fill="#ddd658" stroke="#000" stroke-linejoin="round" stroke-width="0.2"/>
            <path id="Path_2150" data-name="Path 2150" d="M912.342,225.139c-13.364-9.85-23.666-41.612-23.666-41.612" transform="translate(-860.865 -154.611)" fill="#ddd658" stroke="#000" stroke-linejoin="round" stroke-width="0.2"/>
          </g>
          <g id="Group_596" data-name="Group 596" transform="translate(85.684 40.892)">
            <path id="Path_2151" data-name="Path 2151" d="M949.855,184.432c3.283,3.833-4.9,9.146-9.154,13.063s7.544,4.582,6.43,9.431-16.712,1.425-17.962,5.278,12.826.5,10.448,5.742-29.957-.971-40.41,8.232c0,0-1.75-19.349,2.446-31.7,3.52-10.358,9.726-6.506,8.913-2.224-.66,3.476,2.88,6.639,5,1.62s6.539-15.536,10.516-13.747-1.929,11.2,3.448,11.865S943.063,176.505,949.855,184.432Z" transform="translate(-898.846 -179.927)" fill="#ddd658" stroke="#000" stroke-linejoin="round" stroke-width="0.2"/>
            <path id="Path_2152" data-name="Path 2152" d="M927.027,188.162a56.744,56.744,0,0,0-28,29.725" transform="translate(-898.664 -171.635)" fill="#ddd658" stroke="#000" stroke-linejoin="round" stroke-width="0.2"/>
          </g>
          <g id="Group_597" data-name="Group 597" transform="translate(0 76.294)">
            <path id="Path_2153" data-name="Path 2153" d="M856.875,239.3c-2.8-4.461,3-8.971,9.493-10.9,5.433-1.616,8.447-2.324,7.155-5.5s-8.287-4.447-6.262-8.56c3.516-7.139,22.265,4.026,24.79-2.316,1.911-4.8-6.731-4.941-5.158-10.4s31.08-7.61,56.949,7.947c0,0-10.976,16.174-26.122,22.118s-13.713-4.71-18.054-3.508-10.847,18.283-17.721,17.637c-8.7-.817-.393-10-5.2-11.138S861.336,246.408,856.875,239.3Z" transform="translate(-856.152 -197.567)" fill="#ddd658" stroke="#000" stroke-linejoin="round" stroke-width="0.2"/>
            <path id="Path_2154" data-name="Path 2154" d="M923.374,204.036c-24.484-4.885-46.9,10.31-46.9,10.31" transform="translate(-835.685 -192.027)" fill="#ddd658" stroke="#000" stroke-linejoin="round" stroke-width="0.2"/>
          </g>
          <g id="Group_598" data-name="Group 598" transform="translate(19.8 87.146)">
            <path id="Path_2155" data-name="Path 2155" d="M932.293,202.974s-61.362,14.137-49.333,31.485c2.6,3.743,11.909.148,11.747,4.75s-23.188,6.478-25.865,13.77,3.952,8.574,6.6,9.162a3.387,3.387,0,0,1,2.085,5.374c-1.485,1.786-12.937,7.632-11.359,14.867s8.782,3.562,13.826-2.009,9.073-5.451,10.7-1.672-.456,10.874,5.977,9.762,8.951-9.378,11.319-23.618,6.045-12.029,8.485-8.766,7.789,6.177,9.085-.644S933.016,208.712,932.293,202.974Z" transform="translate(-866.018 -202.974)" fill="#ddd658" stroke="#000" stroke-linejoin="round" stroke-width="0.2"/>
            <path id="Path_2156" data-name="Path 2156" d="M884.785,245s3.442-20.039,28.611-42.025" transform="translate(-847.121 -202.974)" fill="#ddd658" stroke="#000" stroke-linejoin="round" stroke-width="0.2"/>
          </g>
          <g id="Group_599" data-name="Group 599" transform="translate(75.596 87.094)">
            <path id="Path_2157" data-name="Path 2157" d="M903.617,202.948s-6.376,11.253-8.557,21.665-1.441,12.5,1.9,13.117,4.2-5.164,7.624-4.907-.41,12.8-3.334,19.122-5.395,13.828-1.581,15.931,4.772-7.57,9.3-6.836,3.362,6.655,3.2,14.107,3.237,10.54,6.163,10.133c9.981-1.389.353-25.38,6.974-26.064,3.36-.349,7.458,1.314,8.728-3.731s-8.632-9.475-9.974-16.216,8.489,1.3,10.685-3.454S926.9,212.334,903.617,202.948Z" transform="translate(-893.819 -202.948)" fill="#ddd658" stroke="#000" stroke-linejoin="round" stroke-width="0.2"/>
            <path id="Path_2158" data-name="Path 2158" d="M911.128,255.869c.261-.584,1.025-26.7-12.427-52.921" transform="translate(-888.904 -202.948)" fill="#ddd658" stroke="#000" stroke-linejoin="round" stroke-width="0.2"/>
          </g>
          <path id="Path_2159" data-name="Path 2159" d="M898.878,203.608c1.618-7.638,53.322,35.143,66.793,85.03l-19.054,2.737s1.4-29.4-23.168-58.586S898.377,205.969,898.878,203.608Z" transform="translate(-813.228 -116.083)" fill="#ecb36f" stroke="#000" stroke-linejoin="round" stroke-width="0.2"/>
        </g>
        <path id="Path_2160" data-name="Path 2160" d="M900.648,319.1c-6.416-5.858.69-16.22.654-26.839-.109-31.3,34.4-56.756,64.264-52.718a13.49,13.49,0,0,1,11.391,10.51c3.516,16.417-6.448,40.281-19.188,52.142C942.522,316.39,906.163,324.135,900.648,319.1Z" transform="translate(-814.05 -79.429)" fill="#d3e296" stroke="#000" stroke-linejoin="round" stroke-width="0.2"/>
        <path id="Path_2161" data-name="Path 2161" d="M939.981,247.042s-23.3,10.059-35.1,40.6" transform="translate(-807.08 -71.455)" fill="none" stroke="#000" stroke-linejoin="round" stroke-width="0.2"/>
        <path id="Path_2162" data-name="Path 2162" d="M910.7,289.939c.472-.646,28.232-12.644,39.163-38.049" transform="translate(-801.228 -66.573)" fill="none" stroke="#000" stroke-linejoin="round" stroke-width="0.2"/>
        <path id="Path_2163" data-name="Path 2163" d="M941.833,242.553c8.79-7.026,22.8-1.748,30.076,7.173s25.173,21.1,28.838,45.29,3.139,25.325.626,28.5-12.623-.431-19.9-3.759-24.3-7.879-34.27-25.392S929.619,252.313,941.833,242.553Z" transform="translate(-776.221 -79.247)" fill="#d3e296" stroke="#000" stroke-linejoin="round" stroke-width="0.2"/>
        <path id="Path_2164" data-name="Path 2164" d="M943.561,254.138s8.138,26.644,28.978,37.766" transform="translate(-768.137 -64.31)" fill="none" stroke="#000" stroke-linejoin="round" stroke-width="0.2"/>
        <path id="Path_2165" data-name="Path 2165" d="M951.285,252.222s15.534,9.858,21.783,36.213" transform="translate(-760.359 -66.239)" fill="none" stroke="#000" stroke-linejoin="round" stroke-width="0.2"/>
      </g>
      <g id="Group_608" data-name="Group 608" transform="translate(55.02 267.496)">
        <g id="Group_604" data-name="Group 604" transform="translate(107.402)">
          <g id="Group_603" data-name="Group 603">
            <g id="Group_602" data-name="Group 602" transform="translate(3.548)">
              <path id="Path_2166" data-name="Path 2166" d="M784.5,324.708l-16.71,8.911-16.162-9.872-6.954,9.2s14.514,12.238,13.7,39.986l8.256.241,8.255.241c.811-27.748,16.017-39.117,16.017-39.117Z" transform="translate(-715.989 -261.714)" fill="#d3e296" stroke="#000" stroke-linejoin="round" stroke-width="0.2"/>
              <line id="Line_33" data-name="Line 33" y1="12.26" x2="0.245" transform="translate(51.148 73.83)" fill="#ddd658" stroke="#000" stroke-linejoin="round" stroke-width="0.2"/>
              <path id="Path_2167" data-name="Path 2167" d="M822.818,332.913a19.263,19.263,0,0,0-20.81-24.707,19.359,19.359,0,0,0-37.606-1.152,19.311,19.311,0,0,0-21.7,23.288,19.368,19.368,0,1,0,22.847,29.245,19.376,19.376,0,0,0,32.225.955,19.376,19.376,0,1,0,25.043-27.629Z" transform="translate(-730.38 -292.838)" fill="#5b9348" stroke="#000" stroke-linejoin="round" stroke-width="0.2"/>
            </g>
            <path id="Path_2168" data-name="Path 2168" d="M728.929,344.735c2.936-12.961,17.157-14.3,23.345-8.644,7.434,6.8,7.642,17.681,26.209,19.818,11.77,1.353,7.622,16.238-14.243,15.929C736.806,371.452,726.615,354.954,728.929,344.735Z" transform="translate(-728.612 -252.48)" fill="#ecb36f" stroke="#000" stroke-linejoin="round" stroke-width="0.2"/>
            <path id="Path_2169" data-name="Path 2169" d="M811.221,346.1c-2.416-13.067-16.571-14.974-22.979-9.567-7.7,6.494-8.343,17.362-26.977,18.757-11.817.883-8.266,15.923,13.6,16.485C802.286,372.484,813.128,356.406,811.221,346.1Z" transform="translate(-702.435 -251.684)" fill="#ecb36f" stroke="#000" stroke-linejoin="round" stroke-width="0.2"/>
          </g>
          <path id="Path_2170" data-name="Path 2170" d="M757.63,314.346s-4.863-2.131-7.43,1.652a6.317,6.317,0,0,0,0,6.755s-7.837-1.648-6.079,6.741" transform="translate(-713.254 -271.783)" fill="none" stroke="#000" stroke-linejoin="round" stroke-width="0.2"/>
        </g>
        <g id="Group_607" data-name="Group 607" transform="translate(0 34.728)">
          <g id="Group_606" data-name="Group 606">
            <g id="Group_605" data-name="Group 605" transform="translate(3.601)">
              <path id="Path_2171" data-name="Path 2171" d="M731.822,342.49l-16.961,9.045-16.4-10.021-7.058,9.334s14.733,12.423,13.91,40.588l8.379.245,8.379.245c.823-28.165,16.258-39.705,16.258-39.705Z" transform="translate(-662.283 -278.551)" fill="#d3e296" stroke="#000" stroke-linejoin="round" stroke-width="0.2"/>
              <line id="Line_34" data-name="Line 34" y1="12.445" x2="0.248" transform="translate(51.918 74.94)" fill="#ddd658" stroke="#000" stroke-linejoin="round" stroke-width="0.2"/>
              <path id="Path_2172" data-name="Path 2172" d="M770.718,350.819A19.551,19.551,0,0,0,749.6,325.74a19.65,19.65,0,0,0-38.172-1.17A19.6,19.6,0,0,0,689.4,348.21a19.659,19.659,0,1,0,23.19,29.685,19.666,19.666,0,0,0,32.709.969,19.668,19.668,0,1,0,25.42-28.045Z" transform="translate(-676.891 -310.142)" fill="#5b9348" stroke="#000" stroke-linejoin="round" stroke-width="0.2"/>
            </g>
            <path id="Path_2173" data-name="Path 2173" d="M675.419,362.819c2.978-13.155,17.414-14.516,23.694-8.774,7.546,6.9,7.759,17.948,26.6,20.116,11.949,1.375,7.739,16.485-14.456,16.17C683.415,389.937,673.069,373.193,675.419,362.819Z" transform="translate(-675.096 -269.177)" fill="#ecb36f" stroke="#000" stroke-linejoin="round" stroke-width="0.2"/>
            <path id="Path_2174" data-name="Path 2174" d="M758.95,364.207c-2.453-13.264-16.822-15.2-23.327-9.712-7.815,6.593-8.467,17.623-27.385,19.04-11.994.9-8.389,16.162,13.8,16.734C749.878,390.986,760.882,374.667,758.95,364.207Z" transform="translate(-648.527 -268.37)" fill="#ecb36f" stroke="#000" stroke-linejoin="round" stroke-width="0.2"/>
          </g>
          <path id="Path_2175" data-name="Path 2175" d="M691.89,342.536s-2.208-4.283,0-6.444,4.985-.307,6.374,1.545c0,0,1.389-3.335,4.321-2.517a4.177,4.177,0,0,1,3.087,3.643" transform="translate(-659.174 -285.121)" fill="none" stroke="#000" stroke-linejoin="round" stroke-width="0.2"/>
          <path id="Path_2176" data-name="Path 2176" d="M702.822,332.316s2.583-3.223,5.947-2.1,2.523,4.9,2.523,4.9,3.643-2.942,6.585-.979,0,6.866,0,6.866" transform="translate(-647.179 -290.168)" fill="none" stroke="#000" stroke-linejoin="round" stroke-width="0.2"/>
        </g>
      </g>
      <g id="Group_610" data-name="Group 610" transform="translate(112.395 380.803)">
        <g id="Group_609" data-name="Group 609">
          <path id="Path_2177" data-name="Path 2177" d="M705.849,360.259c6.806-8.156,23.216-4.184,31.3,4.064s16.178,1.172,27.8,6.733,4.55-8.734,14.155-13.972,6.948-8.186,14.026-7.745,4.424,8.184,11.943,12.828,7.743,17.474,14.157,21.235,26.7,34.756,26.7,34.756-78.7,34.122-88.977,32.771-13.484-2.543-18.546.038-7.482,4.02-11.662,0-13.641.6-17.382-5.778,5.5-9.9,5.941-17.6,3.3-8.361,10.562-10.121,4.841-12.323-4.4-18.484-2.86-14.3-11-19.8S702.5,364.271,705.849,360.259Z" transform="translate(-703.685 -349.295)" fill="#b8bf30"/>
          <path id="Path_2178" data-name="Path 2178" d="M705.849,360.259c6.806-8.156,23.216-4.184,31.3,4.064s16.178,1.172,27.8,6.733,4.55-8.734,14.155-13.972,6.948-8.186,14.026-7.745,4.424,8.184,11.943,12.828,7.743,17.474,14.157,21.235,26.7,34.756,26.7,34.756-78.7,34.122-88.977,32.771-13.484-2.543-18.546.038-7.482,4.02-11.662,0-13.641.6-17.382-5.778,5.5-9.9,5.941-17.6,3.3-8.361,10.562-10.121,4.841-12.323-4.4-18.484-2.86-14.3-11-19.8S702.5,364.271,705.849,360.259Z" transform="translate(-703.685 -349.295)" fill="none" stroke="#000" stroke-linejoin="round" stroke-width="0.2"/>
        </g>
        <path id="Path_2179" data-name="Path 2179" d="M715.727,362.577s40.335,14.56,62.36,63.682" transform="translate(-691.559 -335.922)" fill="none" stroke="#000" stroke-linejoin="round" stroke-width="0.2"/>
      </g>
      <g id="Group_612" data-name="Group 612" transform="translate(150.543 413.925)">
        <g id="Group_611" data-name="Group 611">
          <path id="Path_2180" data-name="Path 2180" d="M729.641,395.385c1.232-9.24,11.626-2.023,19.716-8.088s4.55-18.7,20.726-21.233,14.661,14.155,43.982,5.055,52.07,29.827,47.016,51.564-11.122,24.806-12.64,34.9-1.011,23.236-11.626,20.2-17.189,2.023-19.716-13.649-12.2-19.716-18.235-11.628-10.581,16.178-26.253,11.122-28.31,8.594-39.432,7.076-12.638-10.2-8.088-21.781-2.529-15.122,8.088-21.189,14.155-15.335,8.088-20.053S728.63,402.967,729.641,395.385Z" transform="translate(-722.693 -365.8)" fill="#b8bf30"/>
          <path id="Path_2181" data-name="Path 2181" d="M729.641,395.385c1.232-9.24,11.626-2.023,19.716-8.088s4.55-18.7,20.726-21.233,14.661,14.155,43.982,5.055,52.07,29.827,47.016,51.564-11.122,24.806-12.64,34.9-1.011,23.236-11.626,20.2-17.189,2.023-19.716-13.649-12.2-19.716-18.235-11.628-10.581,16.178-26.253,11.122-28.31,8.594-39.432,7.076-12.638-10.2-8.088-21.781-2.529-15.122,8.088-21.189,14.155-15.335,8.088-20.053S728.63,402.967,729.641,395.385Z" transform="translate(-722.693 -365.8)" fill="none" stroke="#000" stroke-linejoin="round" stroke-width="0.2"/>
        </g>
        <path id="Path_2182" data-name="Path 2182" d="M739,414.156s18.6-36.568,106.363-26.626" transform="translate(-706.272 -345.644)" fill="none" stroke="#000" stroke-linejoin="round" stroke-width="0.2"/>
      </g>
      <g id="Group_614" data-name="Group 614" transform="translate(272.006 463.512)">
        <g id="Group_613" data-name="Group 613">
          <path id="Path_2183" data-name="Path 2183" d="M783.715,418.749s-3.492,21.7,7.982,26.688,21.95-2.625,26.439,7.915-2.995,19.154,7.482,24.826,16.184,6.149,19.066,14.141,13.358,9.986,22.337-3.482,14.964-22.181,11.971-33.04,4.49-13.352,10.974-11.357,16.463-3.135,12.471-16.782-19.953-43.077-51.379-36.095S792.694,392.058,783.715,418.749Z" transform="translate(-783.215 -390.507)" fill="#b8bf30"/>
          <path id="Path_2184" data-name="Path 2184" d="M783.715,418.749s-3.492,21.7,7.982,26.688,21.95-2.625,26.439,7.915-2.995,19.154,7.482,24.826,16.184,6.149,19.066,14.141,13.358,9.986,22.337-3.482,14.964-22.181,11.971-33.04,4.49-13.352,10.974-11.357,16.463-3.135,12.471-16.782-19.953-43.077-51.379-36.095S792.694,392.058,783.715,418.749Z" transform="translate(-783.215 -390.507)" fill="none" stroke="#000" stroke-linejoin="round" stroke-width="0.2"/>
        </g>
        <path id="Path_2185" data-name="Path 2185" d="M820.531,465.6s7.934-23.214,0-43.735a271,271,0,0,1-9.477-29.191" transform="translate(-755.183 -388.324)" fill="none" stroke="#000" stroke-linejoin="round" stroke-width="0.2"/>
      </g>
      <g id="Group_616" data-name="Group 616" transform="translate(209.148 271.792)">
        <g id="Group_615" data-name="Group 615">
          <path id="Path_2186" data-name="Path 2186" d="M805.842,296.8c4.586-3.956,13.585-1.668,21.075,8.885s23.489,2.382,37.447,24.852,11.752,66.759-10.464,74.74-57.238,21.219-69.346,7.963-20.617-23.81-28.446-31.3-3.745-11.737,4.084-16.252,9.192-10.3,16.34-9.96,11.915,10.081,20.768,2.145-1.363-19.849.68-27.678,7.073-12.019,4.425-21.294C800.532,302.331,802.988,299.261,805.842,296.8Z" transform="translate(-751.895 -294.978)" fill="#b8bf30"/>
          <path id="Path_2187" data-name="Path 2187" d="M805.842,296.8c4.586-3.956,13.585-1.668,21.075,8.885s23.489,2.382,37.447,24.852,11.752,66.759-10.464,74.74-57.238,21.219-69.346,7.963-20.617-23.81-28.446-31.3-3.745-11.737,4.084-16.252,9.192-10.3,16.34-9.96,11.915,10.081,20.768,2.145-1.363-19.849.68-27.678,7.073-12.019,4.425-21.294C800.532,302.331,802.988,299.261,805.842,296.8Z" transform="translate(-751.895 -294.978)" fill="none" stroke="#000" stroke-linejoin="round" stroke-width="0.2"/>
        </g>
        <path id="Path_2188" data-name="Path 2188" d="M785.865,309.572c0,21.952,25.143,22.458,25.046,84.159" transform="translate(-717.688 -280.283)" fill="none" stroke="#000" stroke-linejoin="round" stroke-width="0.2"/>
      </g>
      <g id="Group_617" data-name="Group 617" transform="translate(356.385 237.657)">
        <path id="Path_2189" data-name="Path 2189" d="M826.767,345.582c4.132-27.264,38.007-44.269,55.357-36.006s32.2,4.325,54.516-5.033,47.189-1.941,58.119,6.888c20.155,16.28,64.174,15.148,68.306,82.073s-34.7,101.842-104.93,84.795S813.7,431.848,826.767,345.582Z" transform="translate(-825.258 -255.579)" fill="#ddd658" stroke="#000" stroke-linejoin="round" stroke-width="0.2"/>
        <path id="Path_2190" data-name="Path 2190" d="M890.2,348.982c-9.705-1.874-10.492-12.126-3.171-13.7,5.617-1.21,12.778-3.809,20.4-23.618s20.95-32,37.331-33.52c15.632-1.455,23.284,6.806,31.565,7.562a1.015,1.015,0,0,1,.883,1.267l-2.613,10.163a1.022,1.022,0,0,1-1.768.409c-3.9-4.516-16.288-16.987-29.972-11.022-14.877,6.486-25.287,24.087-22.855,39.617,2.543,16.248,17.8,12.945,15.682,20.872-2.017,7.536-16.132-1.013-21.777-1.445C905.727,344.938,902.976,351.45,890.2,348.982Z" transform="translate(-767.978 -277.97)" fill="#5b9348" stroke="#000" stroke-linejoin="round" stroke-width="0.2"/>
        <ellipse id="Ellipse_399" data-name="Ellipse 399" cx="5.41" cy="3.328" rx="5.41" ry="3.328" transform="matrix(0.558, -0.83, 0.83, 0.558, 127.829, 96.483)" fill="#fff6eb" stroke="#000" stroke-linejoin="round" stroke-width="0.2"/>
        <path id="Path_2191" data-name="Path 2191" d="M909.574,327.26s22.074,20.408-7.313,91.865" transform="translate(-747.722 -228.337)" fill="none" stroke="#000" stroke-linejoin="round" stroke-width="0.2"/>
        <path id="Path_2192" data-name="Path 2192" d="M883.559,321.949s-24.669,36.3-11.66,89.1" transform="translate(-782.109 -233.685)" fill="none" stroke="#000" stroke-linejoin="round" stroke-width="0.2"/>
        <ellipse id="Ellipse_400" data-name="Ellipse 400" cx="3.363" cy="5.441" rx="3.363" ry="5.441" transform="matrix(0.925, -0.381, 0.381, 0.925, 201.415, 96.847)" fill="#fff6eb" stroke="#000" stroke-linejoin="round" stroke-width="0.2"/>
        <path id="Path_2193" data-name="Path 2193" d="M883.775,404.337c-.243-6.157-1.13-15.367,3.335-36.53s2.824-35.2,10.215-35.2c8.622,0,4.311,35.681.821,43.482s1.642,37.72-6.159,39.567S883.9,407.626,883.775,404.337Z" transform="translate(-766.573 -222.951)" fill="#fff6eb" stroke="#000" stroke-linejoin="round" stroke-width="0.2"/>
        <path id="Path_2194" data-name="Path 2194" d="M890.818,328.074c3.805,2.894-3.1,9.587-5.23,22.8-1.86,11.554-4.953,20.6-8.2,19.774-3.566-.905-4.2-14.787-1.353-25.652S886.365,324.691,890.818,328.074Z" transform="translate(-775.934 -228.221)" fill="#fff6eb" stroke="#000" stroke-linejoin="round" stroke-width="0.2"/>
        <ellipse id="Ellipse_401" data-name="Ellipse 401" cx="2.904" cy="5.433" rx="2.904" ry="5.433" transform="translate(97.807 152.941)" fill="#fff6eb" stroke="#000" stroke-linejoin="round" stroke-width="0.2"/>
        <path id="Path_2195" data-name="Path 2195" d="M906.836,340.587c5.752-.881,6.488,15.078,1.256,28.021-4.253,10.516-9.866,8.4-10.346,1.325a14.718,14.718,0,0,1,1.722-7.691C905.618,350.3,903.436,341.106,906.836,340.587Z" transform="translate(-752.297 -214.954)" fill="#fff6eb" stroke="#000" stroke-linejoin="round" stroke-width="0.2"/>
        <path id="Path_2196" data-name="Path 2196" d="M919.788,331.367c6.1-2.585,8.2,6.4,11.494,20.071s9.87,40.3,1.435,45.435-5.864-14.335-7.189-25.584S912.5,334.455,919.788,331.367Z" transform="translate(-732.461 -224.649)" fill="#fff6eb" stroke="#000" stroke-linejoin="round" stroke-width="0.2"/>
        <path id="Path_2197" data-name="Path 2197" d="M932.717,336.953c3.739-4.056,12.587,2.145,13.37,25.42s.937,26.5-2.577,25.4-5.942-17.352-7.927-24.778S929.5,340.441,932.717,336.953Z" transform="translate(-718.255 -219.74)" fill="#fff6eb" stroke="#000" stroke-linejoin="round" stroke-width="0.2"/>
      </g>
      <g id="Group_618" data-name="Group 618" transform="translate(221.723 331.977)">
        <path id="Path_2198" data-name="Path 2198" d="M832.515,327.221c21.6,1.872,52.925,11.749,79.388,0s78.481,22.652,82.242,98.071-77.612,39.693-89.519,42.34-10.587,13.059-35.063,12.483-23.818-13.145-41.68-13.145-43.643,7.48-60.2-19.184c-22.166-35.691-1.208-86.005,17.976-103.206S820.706,326.2,832.515,327.221Z" transform="translate(-758.16 -324.967)" fill="#ddd658" stroke="#000" stroke-linejoin="round" stroke-width="0.2"/>
        <path id="Path_2199" data-name="Path 2199" d="M849.41,345.55c2.766,2.324,6.8,5.045,9.194,13.254s7.721,9.487,8.519,3.522-3.39-18.121-11.448-23.23C848.673,334.654,845,341.841,849.41,345.55Z" transform="translate(-668.206 -312.154)" fill="#fff6eb" stroke="#000" stroke-linejoin="round" stroke-width="0.2"/>
        <path id="Path_2200" data-name="Path 2200" d="M858.38,358.279c3.944-5.962,14.133,8.106,10.1,39.2C865.98,416.725,855.084,363.262,858.38,358.279Z" transform="translate(-657.865 -292.774)" fill="#fff6eb" stroke="#000" stroke-linejoin="round" stroke-width="0.2"/>
        <path id="Path_2201" data-name="Path 2201" d="M803.471,356.064s-4.319,9.119,0,20.88-4.144,25.438,2.489,30,7.113-14.159,6.872-29.279,4.08-14.324,1.921-17.6S812.193,353.549,803.471,356.064Z" transform="translate(-714.467 -294.557)" fill="#fff6eb" stroke="#000" stroke-linejoin="round" stroke-width="0.2"/>
        <path id="Path_2202" data-name="Path 2202" d="M803.524,348.8a11.351,11.351,0,0,0-10.749,2.892c-3.741,3.607-8.469,10.35-9.643,21.958-2.013,19.919,4.646,21.223,7.247,14.54,3.41-8.764-.6-25.829,11.379-32.968C808.248,351.351,806.494,349.6,803.524,348.8Z" transform="translate(-733.391 -301.34)" fill="#fff6eb" stroke="#000" stroke-linejoin="round" stroke-width="0.2"/>
        <ellipse id="Ellipse_402" data-name="Ellipse 402" cx="6.499" cy="3.917" rx="6.499" ry="3.917" transform="matrix(0.327, -0.945, 0.945, 0.327, 45.815, 33.188)" fill="#fff6eb" stroke="#000" stroke-linejoin="round" stroke-width="0.2"/>
        <path id="Path_2203" data-name="Path 2203" d="M813.218,364.354a59.215,59.215,0,0,1,4.849,23.895c0,14-3.329,18.219,2.025,21.382s8.409-14.7,8.023-23.824S825.318,355.76,813.218,364.354Z" transform="translate(-702.72 -287.349)" fill="#fff6eb" stroke="#000" stroke-linejoin="round" stroke-width="0.2"/>
        <path id="Path_2204" data-name="Path 2204" d="M839.658,356.151s9.31,5.943,9.31,42.119" transform="translate(-676.097 -293.566)" fill="none" stroke="#000" stroke-linejoin="round" stroke-width="0.2"/>
        <path id="Path_2205" data-name="Path 2205" d="M776.3,408.028c6.384.385,5.019-22.761,5.019-32.326s12.126-21.522,5.469-25.827c-6.161-3.984-16.294,9.093-15.594,29.076S770.186,407.661,776.3,408.028Z" transform="translate(-745.075 -300.605)" fill="#fff6eb" stroke="#000" stroke-linejoin="round" stroke-width="0.2"/>
      </g>
      <path id="Path_2206" data-name="Path 2206" d="M925.82,250.1" transform="translate(-367.615 -68.38)" fill="#ddd658" stroke="#000" stroke-linejoin="round" stroke-width="0.2"/>
      <g id="Group_626" data-name="Group 626" transform="translate(355.852 366.862)">
        <g id="Group_625" data-name="Group 625">
          <g id="Group_619" data-name="Group 619" transform="translate(254.912 92.034)">
            <path id="Path_2207" data-name="Path 2207" d="M956.668,412.053c-6.143-10.071-4.472-23.288-4.4-23.846l7.215.951c-.014.112-1.389,11.263,3.4,19.108Z" transform="translate(-952.008 -388.207)" fill="#ecb36f" stroke="#000" stroke-linejoin="round" stroke-width="0.2"/>
          </g>
          <path id="Path_2208" data-name="Path 2208" d="M988.163,342.349c10.075,0,13.063,7.486,14.283,17.23,2.041,16.3,16.73,14.8,15.413,36.147-.865,14-1.772,16.806-19.991,31.186s-44.52,13.282-51.183,0-12.274-36.753,0-49.939,18.247-10.707,24.549-21.954C976.369,345.855,982.167,342.349,988.163,342.349Z" transform="translate(-709.757 -342.349)" fill="#5b9348" stroke="#000" stroke-linejoin="round" stroke-width="0.2"/>
          <path id="Path_2209" data-name="Path 2209" d="M973.138,358.056s-21.3,15.921-20.344,56.108" transform="translate(-696.337 -326.533)" fill="none" stroke="#000" stroke-linejoin="round" stroke-width="0.2"/>
          <g id="Group_620" data-name="Group 620" transform="translate(217.429 104.435)">
            <path id="Path_2210" data-name="Path 2210" d="M956.63,424.97c-8.525-.662-15.283-6.183-19.543-15.971a51.916,51.916,0,0,1-3.755-13.862l7.239-.751c.024.223,2.517,22.233,16.623,23.327Z" transform="translate(-933.332 -394.386)" fill="#ecb36f" stroke="#000" stroke-linejoin="round" stroke-width="0.2"/>
          </g>
          <g id="Group_621" data-name="Group 621" transform="translate(237.784 128.096)">
            <path id="Path_2211" data-name="Path 2211" d="M981.287,413.893c-6.053,6.041-14.644,7.578-24.846,4.441a51.832,51.832,0,0,1-12.967-6.173l4.14-5.985c.185.128,18.516,12.563,28.53,2.567Z" transform="translate(-943.474 -406.176)" fill="#237a50" stroke="#000" stroke-linejoin="round" stroke-width="0.2"/>
          </g>
          <g id="Group_622" data-name="Group 622" transform="translate(167.84 97.27)">
            <path id="Path_2212" data-name="Path 2212" d="M945.077,439.077a98.9,98.9,0,0,1-36.454-7.231l2.928-6.661c.576.249,41.042,17.446,70.971-5.23,32.159-24.37,52.369-29.139,76.406-29.139v7.277c-22.488,0-41.481,4.526-72.011,27.66C973.423,435.98,958.359,439.077,945.077,439.077Zm-34.991-10.562,1.461-3.334,0,0Z" transform="translate(-908.623 -390.816)" fill="#ecb36f" stroke="#000" stroke-linejoin="round" stroke-width="0.2"/>
          </g>
          <path id="Path_2213" data-name="Path 2213" d="M863.882,368.651c10.88-11.763,29.285-.353,40.307,1.212s27.182-6.846,43.711-3.309c23.557,5.041,27.144,27.549,28.719,35.422s-24.878,39.48-48.812,31.077S908.9,416.1,886.531,416.1C862.207,416.1,849.272,384.443,863.882,368.651Z" transform="translate(-792.032 -321.163)" fill="#5b9348" stroke="#000" stroke-linejoin="round" stroke-width="0.2"/>
          <path id="Path_2214" data-name="Path 2214" d="M875.364,375.486c.674-.315,41.644-3.265,70.443,34.581" transform="translate(-774.272 -309.159)" fill="none" stroke="#000" stroke-linejoin="round" stroke-width="0.2"/>
          <g id="Group_623" data-name="Group 623" transform="translate(73.27 114.419)">
            <path id="Path_2215" data-name="Path 2215" d="M894.758,414.728c-20.99,0-32.667-9.224-33.257-9.7l4.568-5.664a38.4,38.4,0,0,0,11.118,5.409c6.629,2.141,17.518,4.094,31.766,1.2l1.445,7.133A78.649,78.649,0,0,1,894.758,414.728Z" transform="translate(-861.501 -399.361)" fill="#ecb36f" stroke="#000" stroke-linejoin="round" stroke-width="0.2"/>
          </g>
          <g id="Group_624" data-name="Group 624" transform="translate(84.82 109.259)">
            <path id="Path_2216" data-name="Path 2216" d="M895.261,413.466c-10.874,17.956-24.812,23.166-25.526,23.423l-2.479-6.842a38.442,38.442,0,0,0,10.386-6.707c5.264-4.562,12.575-12.866,17.484-26.55l6.85,2.458A78.6,78.6,0,0,1,895.261,413.466Z" transform="translate(-867.256 -396.79)" fill="#ecb36f" stroke="#000" stroke-linejoin="round" stroke-width="0.2"/>
          </g>
          <path id="Path_2217" data-name="Path 2217" d="M995.865,389.736c18.881-15.4,52.515-17.563,66.545-2.424s4.044,28.611,34.7,41.626c0,0,2.224,19.359-21.591,19.14s-14.213-5.565-43.749-5.661S984.879,434.567,995.865,389.736Z" transform="translate(-656.282 -307.448)" fill="#5b9348" stroke="#000" stroke-linejoin="round" stroke-width="0.2"/>
          <path id="Path_2218" data-name="Path 2218" d="M1059.68,413.231c-.9-1.71-31.623-29.263-67.285-25.269" transform="translate(-656.43 -296.818)" fill="none" stroke="#000" stroke-linejoin="round" stroke-width="0.2"/>
          <circle id="Ellipse_403" data-name="Ellipse 403" cx="43.014" cy="43.014" r="43.014" transform="translate(283.39 34.623)" fill="#d3e296" stroke="#000" stroke-linejoin="round" stroke-width="0.2"/>
          <circle id="Ellipse_404" data-name="Ellipse 404" cx="43.014" cy="43.014" r="43.014" transform="translate(0 68.876)" fill="#d3e296" stroke="#000" stroke-linejoin="round" stroke-width="0.2"/>
          <circle id="Ellipse_405" data-name="Ellipse 405" cx="43.014" cy="43.014" r="43.014" transform="translate(155.868 29.097)" fill="#d3e296" stroke="#000" stroke-linejoin="round" stroke-width="0.2"/>
          <circle id="Ellipse_406" data-name="Ellipse 406" cx="43.014" cy="43.014" r="43.014" transform="translate(106.756 81.584)" fill="#d3e296" stroke="#000" stroke-linejoin="round" stroke-width="0.2"/>
          <ellipse id="Ellipse_407" data-name="Ellipse 407" cx="7.955" cy="5.796" rx="7.955" ry="5.796" transform="matrix(0.256, -0.967, 0.967, 0.256, 10.799, 102.701)" fill="#fff6eb" stroke="#000" stroke-linejoin="round" stroke-width="0.2"/>
          <ellipse id="Ellipse_408" data-name="Ellipse 408" cx="2.167" cy="1.624" rx="2.167" ry="1.624" transform="matrix(0.256, -0.967, 0.967, 0.256, 15.846, 97.407)" fill="#ddd658" stroke="#000" stroke-linejoin="round" stroke-width="0.2"/>
          <path id="Path_2219" data-name="Path 2219" d="M861.858,415.724c12.411-8.076,37.006-9.455,46.184,0s13.2,26.17-5.515,42.872-52.132,21.3-61.127,14.932-7.354-14.155,0-20.932C854.392,440.618,846.762,425.546,861.858,415.724Z" transform="translate(-814.662 -275.095)" fill="#5b9348" stroke="#000" stroke-linejoin="round" stroke-width="0.2"/>
          <path id="Path_2220" data-name="Path 2220" d="M894.8,412.421c-11.136,11.983-32.538,10.414-46.406,40.927" transform="translate(-801.425 -271.791)" fill="none" stroke="#000" stroke-linejoin="round" stroke-width="0.2"/>
          <ellipse id="Ellipse_409" data-name="Ellipse 409" cx="9.269" cy="7.387" rx="9.269" ry="7.387" transform="translate(187.583 40.056)" fill="#fff6eb" stroke="#000" stroke-linejoin="round" stroke-width="0.2"/>
          <circle id="Ellipse_410" data-name="Ellipse 410" cx="7.387" cy="7.387" r="7.387" transform="translate(138.738 147.518)" fill="#fff6eb" stroke="#000" stroke-linejoin="round" stroke-width="0.2"/>
          <circle id="Ellipse_411" data-name="Ellipse 411" cx="3.121" cy="3.121" r="3.121" transform="translate(143.004 151.784)" fill="#ddd658" stroke="#000" stroke-linejoin="round" stroke-width="0.2"/>
          <circle id="Ellipse_412" data-name="Ellipse 412" cx="2.236" cy="2.236" r="2.236" transform="translate(194.411 44.229)" fill="#ddd658" stroke="#000" stroke-linejoin="round" stroke-width="0.2"/>
          <path id="Path_2221" data-name="Path 2221" d="M946.069,440.514s14.2,23.5,45.12,16.631c20.069-4.457,22.843,3.492,38.292,3.4,17.236-.1,22.66-13.432,17.191-21.641-5.049-7.578-12.477-3.994-19.716-22.231-6.8-17.117-38.892-18.574-51.122-9.463S946.069,440.514,946.069,440.514Z" transform="translate(-703.077 -282.613)" fill="#5b9348" stroke="#000" stroke-linejoin="round" stroke-width="0.2"/>
          <path id="Path_2222" data-name="Path 2222" d="M1011.747,436.562S995,405.95,958.993,408.868" transform="translate(-690.064 -275.566)" fill="none" stroke="#000" stroke-linejoin="round" stroke-width="0.2"/>
          <ellipse id="Ellipse_413" data-name="Ellipse 413" cx="7.525" cy="5.648" rx="7.525" ry="5.648" transform="matrix(0.663, -0.749, 0.749, 0.663, 342.383, 93.908)" fill="#fff6eb" stroke="#000" stroke-linejoin="round" stroke-width="0.2"/>
          <ellipse id="Ellipse_414" data-name="Ellipse 414" cx="2.246" cy="1.591" rx="2.246" ry="1.591" transform="matrix(0.663, -0.749, 0.749, 0.663, 349.386, 93.195)" fill="#ddd658" stroke="#000" stroke-linejoin="round" stroke-width="0.2"/>
        </g>
      </g>
      <g id="Group_632" data-name="Group 632" transform="translate(261.41 126.883)">
        <path id="Path_2223" data-name="Path 2223" d="M796.936,331.181s-14.956,10.934-13.4,42.473l28.936,14.293,52.254,25.811s16.579-24.864,22.11-41.289C893.3,353.285,796.936,331.181,796.936,331.181Z" transform="translate(-772.41 -113.616)" fill="#fff6eb" stroke="#000" stroke-linejoin="round" stroke-width="0.2"/>
        <path id="Path_2224" data-name="Path 2224" d="M832.015,306.684s-37.684,16.068-41.859,49.164L881.6,397.662s4.158-14.033,18.606-20.447c13.86-6.151,20.419-27.674,16.176-42.282S832.015,306.684,832.015,306.684Z" transform="translate(-765.63 -138.283)" fill="#ecb36f" stroke="#000" stroke-linejoin="round" stroke-width="0.2"/>
        <g id="Group_627" data-name="Group 627" transform="translate(62.236 84.162)">
          <path id="Path_2225" data-name="Path 2225" d="M827.7,264.71a40.109,40.109,0,0,0-12.314,19.925c-3.125,12.563,21.6,0,21.6,0Z" transform="translate(-802.74 -264.71)" fill="#ecb36f" stroke="#000" stroke-linejoin="round" stroke-width="0.2"/>
          <path id="Path_2226" data-name="Path 2226" d="M813.426,279.127c1.415-6.215,12.046-6.059,16.14-3.031s4.1,9.82,0,9.9S811.871,285.955,813.426,279.127Z" transform="translate(-804.559 -255.295)" fill="#c19165" stroke="#000" stroke-linejoin="round" stroke-width="0.2"/>
          <path id="Path_2227" data-name="Path 2227" d="M820.253,278.817s-15.12,35.254-10.392,60.565c4.1,21.924,19.58,17.308,21.013,9.84s-9.685-15.58-9.688-36.56,9.728-32.623,9.728-32.623Z" transform="translate(-808.946 -250.505)" fill="#fff" stroke="#000" stroke-linejoin="round" stroke-width="0.2"/>
        </g>
        <g id="Group_628" data-name="Group 628" transform="translate(74.13 50.879)">
          <path id="Path_2228" data-name="Path 2228" d="M833.14,283.5c10.713.7,9.579-18.781,18.149-24.639a125.759,125.759,0,0,0-7.52-10.735H832.5a177.875,177.875,0,0,0-8.566,19.026C824.685,273.871,826.86,283.089,833.14,283.5Z" transform="translate(-805.747 -248.126)" fill="#fff" stroke="#000" stroke-linejoin="round" stroke-width="0.2"/>
          <path id="Path_2229" data-name="Path 2229" d="M860.413,253.475c-8.57,5.858-7.436,25.34-18.149,24.639-6.279-.412-8.455-9.629-9.206-16.348-8.951,22.795-20.7,54.841-17.711,103.991l76.221,19.977S894.541,307.841,860.413,253.475Z" transform="translate(-814.872 -242.74)" fill="#ecb36f" stroke="#000" stroke-linejoin="round" stroke-width="0.2"/>
        </g>
        <path id="Path_2230" data-name="Path 2230" d="M840.632,265.784c6.119-.821,9.326,9.523,9.051,20.7s-14.331,1.854-14.331,1.854S832.952,266.816,840.632,265.784Z" transform="translate(-720.478 -179.512)" fill="#ecb36f" stroke="#000" stroke-linejoin="round" stroke-width="0.2"/>
        <path id="Path_2231" data-name="Path 2231" d="M834.919,279.251c2.848-4.233,14.845-5,18.022-.815a8.1,8.1,0,0,1-.528,10.049c-2.42,2.487-12.816,3.637-16.762-.122A7.076,7.076,0,0,1,834.919,279.251Z" transform="translate(-721.883 -169.523)" fill="#c19165" stroke="#000" stroke-linejoin="round" stroke-width="0.2"/>
        <path id="Path_2232" data-name="Path 2232" d="M846.6,282.659s-4.158,36.572-11.182,50.215c-4.319,8.393-14.546,14.59-8.985,22.785,4.748,7,20.822,4.664,27.447-10.091,7.416-16.517,5.985-49.027,4.142-62.909Z" transform="translate(-730.727 -162.474)" fill="#fff" stroke="#000" stroke-linejoin="round" stroke-width="0.2"/>
        <path id="Path_2233" data-name="Path 2233" d="M820.5,282.659s10.093,4.419,23.886,1.074c0,0,1.574,33.971-14.611,32.661C816.332,315.306,820.5,282.659,820.5,282.659Z" transform="translate(-735.687 -162.474)" fill="#fff6eb" stroke="#000" stroke-linejoin="round" stroke-width="0.2"/>
        <path id="Path_2234" data-name="Path 2234" d="M797.978,398.279s-2.651-31.609,13.541-43.623c5.545-26.772,25.143-33.736,25.143-33.736" transform="translate(-757.916 -123.948)" fill="none" stroke="#000" stroke-linejoin="round" stroke-width="0.2"/>
        <path id="Path_2235" data-name="Path 2235" d="M778.152,354.1c2.446-7.343,31.806,4.843,37.355,9.716s-3.023,10.366-18.679,4.75S776.855,357.987,778.152,354.1Z" transform="translate(-777.935 -92.85)" fill="#c19165" stroke="#000" stroke-linejoin="round" stroke-width="0.2"/>
        <rect id="Rectangle_13" data-name="Rectangle 13" width="5.142" height="123.146" transform="matrix(0.256, -0.967, 0.967, 0.256, 34.148, 164.791)" fill="#ddd658" stroke="#000" stroke-linejoin="round" stroke-width="0.2"/>
        <path id="Path_2236" data-name="Path 2236" d="M864.727,315.761a3.885,3.885,0,0,1,5.433,1.913l12.38,33.981-7.319,4.927s-13.878-9.176-25.141-27.372a4.55,4.55,0,0,1,1.714-6.364Z" transform="translate(-705.963 -129.616)" fill="#5b9348" stroke="#000" stroke-linejoin="round" stroke-width="0.2"/>
        <circle id="Ellipse_415" data-name="Ellipse 415" cx="1.92" cy="1.92" r="1.92" transform="translate(153.453 196.549)" fill="#fff6eb" stroke="#000" stroke-linejoin="round" stroke-width="0.2"/>
        <path id="Path_2237" data-name="Path 2237" d="M787.349,360.157" transform="translate(-768.456 -84.439)" fill="#fff6eb" stroke="#000" stroke-linejoin="round" stroke-width="0.2"/>
        <g id="Group_631" data-name="Group 631" transform="translate(83.032)">
          <path id="Path_2238" data-name="Path 2238" d="M840.16,222.983c13.246-1.923,16,9.89,18.915,17.749s9.174,12.056,17.4,17.4c6.966,4.526,5.668,14.43-7.628,18.536-9.218,2.848-36.1,6.591-44.61-1.513-8.224-7.831-4.51-17.779-.727-26.481S829.277,224.562,840.16,222.983Z" transform="translate(-819.308 -222.774)" fill="#fff" stroke="#000" stroke-linejoin="round" stroke-width="0.2"/>
          <g id="Group_629" data-name="Group 629" transform="translate(15.562 27.634)">
            <ellipse id="Ellipse_416" data-name="Ellipse 416" cx="1.144" cy="2.774" rx="1.144" ry="2.774"/>
          </g>
          <g id="Group_630" data-name="Group 630" transform="translate(22.697 27.634)">
            <ellipse id="Ellipse_417" data-name="Ellipse 417" cx="1.144" cy="2.774" rx="1.144" ry="2.774"/>
          </g>
        </g>
        <path id="Path_2239" data-name="Path 2239" d="M793.043,360.939c2.9-8.21,27.423,3.115,33.684,5.923s27.918,13.627,28.619,19.889-15.283,6.934-30.265,0S790.02,369.484,793.043,360.939Z" transform="translate(-763.03 -86.608)" fill="#c19165" stroke="#000" stroke-linejoin="round" stroke-width="0.2"/>
      </g>
    </g>
  </g>
</svg>
