<svg id="圖層_1" data-name="圖層 1" xmlns="http://www.w3.org/2000/svg" viewBox="0 0 354.46 281.29"><defs><style>.cls-1{fill:#fff;}.cls-1,.cls-2{stroke:#000;stroke-linejoin:round;stroke-width:0.4px;}.cls-2{fill:#e0d0b1;}</style></defs><title>all</title><path class="cls-1" d="M246.31,208.59c-5-10.26,26-25.8,45.15-25.2,14.28.44,19.08-5.75,24.17-2.88s3.82,12.29-7.15,16.12-27.83-.48-37.05,8.13S248.85,213.85,246.31,208.59Z"/><path class="cls-1" d="M69.26,210.55c2.91-7.08,16.74,1.94,27.26.83s20.9-4.86,34.74,1.53,47.89,6.08,50.1,16-26.16-.05-34.46,6.48-31.69,4-45.12-2.23S66.63,216.94,69.26,210.55Z"/><path class="cls-1" d="M303.57,232.16c.78-5.78,13.76-5.6,24.26-14.26S348.27,205,350,208s-5.44,9.16-14.25,13.39-8.61,11.5-18.06,13.34C306.91,236.81,303.27,234.4,303.57,232.16Z"/><path class="cls-1" d="M352.21,166c4.59.67,1.06,21.67-5.53,20.48S345,165,352.21,166Z"/><ellipse class="cls-1" cx="282.11" cy="120.43" rx="3.92" ry="5.65" transform="translate(-22.57 155.96) rotate(-29.77)"/><path class="cls-1" d="M1.9,140c3.45,1.17,8-8.61,20.61-19s33.13-13,30.58-19.31S37.59,103,23.36,109.8C6.89,117.72-4.28,137.92,1.9,140Z"/><path class="cls-1" d="M33.75,134c3.26,1.64-.7,8-4.91,15.25s-1.7,14.11,3,17.81,6.14,7.86,3,10.26-9-2.08-10.45-10.1-4.67-9-2.41-18.14S30.23,132.2,33.75,134Z"/><path class="cls-1" d="M67.51,187.79c1.58-2.14,4.28,1.32,9.49,1.13s4.93,6.44-.47,6.34S65.47,190.57,67.51,187.79Z"/><path class="cls-1" d="M134.06,268c2.28-4,8.33-3.17,17.77,2.7s17.69.67,27.13,0,14.9.4,14.9,4.14-9.44,3.87-16.76,3.6-21.13,5.43-32.9,1.38S132.85,270.14,134.06,268Z"/><path class="cls-1" d="M311,121.7c5.33-.79,5.92,8,13.43,12.87s8.16,26.55,2.76,25.89-3.51-11.74-10.27-15.46C306.13,139.06,302.44,123,311,121.7Z"/><path class="cls-2" d="M267.14,122c-5.33,5.65-16.46,7-22.63,0-7.38-8.34-8.64-10.07-21.79-8.67-15.25,1.63-17.21-54.2-26.07-54.1s-8.74,29.68-23.54,31.56S154.74,74.91,140,63.88c-9.26-6.94-20.4-6.22-27.4-4.72a281.12,281.12,0,0,0-31,57.22c-6.66,17.3-21.58,25.86-15.86,42,3.45,9.71,29.9,8.56,56.89,9.26s54.85,19.68,70,12.65S233.66,166,257.72,165.5s24.07-14.76,24.07-14.76A187.34,187.34,0,0,0,267.14,122Z"/><path class="cls-1" d="M140,63.88c14.74,11,18.3,28.78,33.11,26.9s14.68-31.45,23.54-31.56,10.82,55.73,26.07,54.1c13.15-1.4,14.41.33,21.79,8.67,6.17,7,17.3,5.66,22.63,0-6.48-10.34-14.07-19.76-21.28-23.09-14.44-6.67-17.11-6.32-22.19-24.49s-5.93-29-17.35-47.15S167.31-18,144.73,17c-7.59,11.75-23.4,30-32.13,42.21C119.6,57.66,130.74,56.94,140,63.88Z"/><path class="cls-1" d="M116.78,77.4c6.48,3.11-2,17.92-9.84,27.34s-11.48,29.54-18,26.61,8.6-19.62,12.3-32.47C104.8,86.4,112.25,75.22,116.78,77.4Z"/><path class="cls-1" d="M188,101.8c3.42-1.84,10,4.54,9.13,24.1s.46,29.12-4.52,30.37-7.12-14.92-5.29-31.18S183.9,104,188,101.8Z"/><path class="cls-1" d="M218.15,127.27c4.94-1.47,7.24,3.93,9.16,12.08s10.2,16.47,5.92,19.64-6.66-9.37-12.86-16.92S214.6,128.33,218.15,127.27Z"/></svg>