<svg xmlns="http://www.w3.org/2000/svg" width="1086.195" height="607.885" viewBox="0 0 1086.195 607.885">
  <g id="Group_672" data-name="Group 672" transform="translate(0.018 0.1)">
    <path id="Path_2240" data-name="Path 2240" d="M237.936,438.378c-15.642,3.592-26.453,0-61.725,17.637s-50.39,10.077-65.506,39.051,40.062,21.414,67.146,56.688,101.657,44.09,159.6,52.907,132.271-12.6,188.959-12.6,210.375,6.3,304.853-21.416,128.492-17.637,159.985-37.793,64.246-15.116,114.636-28.972,85.66-28.974,88.18-47.869-27.714-26.455-47.869-42.832-97-22.674-127.234-44.09-186.438-54.167-287.216-18.9-180.14,10.077-275.879,35.272S282.964,428.038,237.936,438.378Z" transform="translate(-108.128 0.918)" fill="#8dccc3" stroke="#000" stroke-linejoin="round" stroke-width="0.2"/>
    <g id="Group_635" data-name="Group 635" transform="translate(73.202 61.947)">
      <line id="Line_35" data-name="Line 35" y2="397.143" transform="translate(79.068 20.546)" fill="#006781" stroke="#000" stroke-linejoin="round" stroke-width="0.2"/>
      <path id="Path_2241" data-name="Path 2241" d="M176.207,216.008,194.477,234.4l-3.735,4.259a4.841,4.841,0,0,1-8.044-1.182l-9-19.732A1.552,1.552,0,0,1,176.207,216.008Z" transform="translate(-115.461 -180.949)" fill="#006781" stroke="#000" stroke-linejoin="round" stroke-width="0.2"/>
      <path id="Path_2242" data-name="Path 2242" d="M203.77,215.639l-19.8,19.11,5.383,5.124a4.84,4.84,0,0,0,7.771-1.569l9.144-20.926A1.552,1.552,0,0,0,203.77,215.639Z" transform="translate(-104.958 -181.297)" fill="#006781" stroke="#000" stroke-linejoin="round" stroke-width="0.2"/>
      <path id="Path_2243" data-name="Path 2243" d="M185.754,198.66l-3.337,8.786a10.044,10.044,0,0,0,2.882,11.305q.457.379.971.732l.139-.09a10.032,10.032,0,0,0,3.715-11.945l-3.337-8.788A.551.551,0,0,0,185.754,198.66Z" transform="translate(-107.202 -198.303)" fill="#006781" stroke="#000" stroke-linejoin="round" stroke-width="0.2"/>
      <path id="Path_2244" data-name="Path 2244" d="M167.23,231.251s28.378,14.065,34.9,22.959a23.685,23.685,0,0,1-8.421,14.9,2.008,2.008,0,0,1-3.073-.715l-7.01-15.192a1.051,1.051,0,0,0-1.79-.2l-1.17,1.537a1.994,1.994,0,0,1-3.362-.3l-11.215-21.968A.793.793,0,0,1,167.23,231.251Z" transform="translate(-123.06 -165.264)" fill="#006781" stroke="#000" stroke-linejoin="round" stroke-width="0.2"/>
      <path id="Path_2245" data-name="Path 2245" d="M218.9,231.251S195.56,242.65,184,254.21a23.685,23.685,0,0,0,8.421,14.9,2.008,2.008,0,0,0,3.073-.715L202.5,253.2a1.049,1.049,0,0,1,1.788-.2l1.172,1.537a1.994,1.994,0,0,0,3.362-.3l11.215-21.968A.794.794,0,0,0,218.9,231.251Z" transform="translate(-104.932 -165.264)" fill="#006781" stroke="#000" stroke-linejoin="round" stroke-width="0.2"/>
      <path id="Path_2246" data-name="Path 2246" d="M155.42,274.693s48.736,19.23,59.01,26.034c-2.067,7.668-8.644,18.277-12.937,23.463-.753.911-2.7.674-3.016-.468l-4.929-17.806-5.332,7.9a2.813,2.813,0,0,1-4.586.106l-13.721-23.473-1.985,2.912a2.812,2.812,0,0,1-4.791-.233l-9.206-16.8A1.166,1.166,0,0,1,155.42,274.693Z" transform="translate(-135.362 -121.488)" fill="#006781" stroke="#000" stroke-linejoin="round" stroke-width="0.2"/>
      <path id="Path_2247" data-name="Path 2247" d="M146.635,296.269s55.945,20.846,77.036,35.294c-5.892,13.9-16.114,25.875-16.114,25.875a3.492,3.492,0,0,1-5.965-.058l-10.057-16.862-3.283,5.806a3.494,3.494,0,0,1-5.991.151l-16.286-25.689-2,3.143a3.494,3.494,0,0,1-6.047-.273l-13.157-25.43A1.43,1.43,0,0,1,146.635,296.269Z" transform="translate(-144.603 -99.795)" fill="#006781" stroke="#000" stroke-linejoin="round" stroke-width="0.2"/>
      <path id="Path_2248" data-name="Path 2248" d="M261.036,296.269S205.091,317.115,184,331.563c5.892,13.9,16.114,25.875,16.114,25.875a3.492,3.492,0,0,0,5.965-.058l10.055-16.862,3.285,5.806a3.492,3.492,0,0,0,5.989.151l16.286-25.689,2,3.143a3.493,3.493,0,0,0,6.047-.273l13.155-25.43A1.429,1.429,0,0,0,261.036,296.269Z" transform="translate(-104.932 -99.795)" fill="#006781" stroke="#000" stroke-linejoin="round" stroke-width="0.2"/>
      <path id="Path_2249" data-name="Path 2249" d="M243.008,274.693S194.271,293.923,184,300.727c2.065,7.668,8.644,18.277,12.935,23.463.755.911,2.7.674,3.016-.468l4.929-17.806,5.334,7.9a2.813,2.813,0,0,0,4.586.106l13.719-23.473,1.985,2.912a2.814,2.814,0,0,0,4.793-.233l9.2-16.8A1.166,1.166,0,0,0,243.008,274.693Z" transform="translate(-104.932 -121.488)" fill="#006781" stroke="#000" stroke-linejoin="round" stroke-width="0.2"/>
      <path id="Path_2250" data-name="Path 2250" d="M163.621,252.045s27.122,11.126,42.637,24.252c-2.119,8.477-7.646,19.714-7.646,19.714a3.7,3.7,0,0,1-6.8-.159l-7.381-18.2-2,3.153a3.706,3.706,0,0,1-6.418-.273l-13.984-26.887A1.183,1.183,0,0,1,163.621,252.045Z" transform="translate(-127.19 -144.325)" fill="#006781" stroke="#000" stroke-linejoin="round" stroke-width="0.2"/>
      <path id="Path_2251" data-name="Path 2251" d="M226.611,252.045s-27.124,11.126-42.637,24.252c2.117,8.477,7.644,19.714,7.644,19.714a3.706,3.706,0,0,0,6.8-.159l7.381-18.2,2,3.153a3.7,3.7,0,0,0,6.416-.273L228.2,253.644A1.182,1.182,0,0,0,226.611,252.045Z" transform="translate(-104.958 -144.325)" fill="#006781" stroke="#000" stroke-linejoin="round" stroke-width="0.2"/>
    </g>
    <g id="Group_636" data-name="Group 636" transform="translate(452.891)">
      <line id="Line_36" data-name="Line 36" y2="161.021" transform="translate(26.148 6.794)" fill="#1789a0" stroke="#000" stroke-linejoin="round" stroke-width="0.2"/>
      <path id="Path_2252" data-name="Path 2252" d="M344.244,173.291l6.041,6.083-1.236,1.409a1.6,1.6,0,0,1-2.659-.391l-2.976-6.525A.514.514,0,0,1,344.244,173.291Z" transform="translate(-324.154 -161.698)" fill="#1789a0" stroke="#000" stroke-linejoin="round" stroke-width="0.2"/>
      <path id="Path_2253" data-name="Path 2253" d="M353.359,173.169l-6.547,6.32,1.78,1.694a1.6,1.6,0,0,0,2.571-.518l3.022-6.922A.513.513,0,0,0,353.359,173.169Z" transform="translate(-320.681 -161.813)" fill="#1789a0" stroke="#000" stroke-linejoin="round" stroke-width="0.2"/>
      <path id="Path_2254" data-name="Path 2254" d="M347.4,167.554l-1.1,2.906a3.318,3.318,0,0,0,.953,3.739c.1.082.207.163.321.241l.044-.03a3.315,3.315,0,0,0,1.23-3.95l-1.1-2.906A.183.183,0,0,0,347.4,167.554Z" transform="translate(-321.423 -167.437)" fill="#1789a0" stroke="#000" stroke-linejoin="round" stroke-width="0.2"/>
      <path id="Path_2255" data-name="Path 2255" d="M341.275,178.333s9.384,4.65,11.542,7.592a7.839,7.839,0,0,1-2.785,4.927.663.663,0,0,1-1.016-.237l-2.318-5.023a.348.348,0,0,0-.592-.066l-.387.51a.659.659,0,0,1-1.112-.1L340.9,178.67A.262.262,0,0,1,341.275,178.333Z" transform="translate(-326.667 -156.51)" fill="#1789a0" stroke="#000" stroke-linejoin="round" stroke-width="0.2"/>
      <path id="Path_2256" data-name="Path 2256" d="M358.361,178.333s-7.719,3.769-11.54,7.592a7.831,7.831,0,0,0,2.784,4.927.663.663,0,0,0,1.015-.237l2.32-5.023a.348.348,0,0,1,.592-.066l.387.51a.658.658,0,0,0,1.11-.1l3.709-7.265A.262.262,0,0,0,358.361,178.333Z" transform="translate(-320.672 -156.51)" fill="#1789a0" stroke="#000" stroke-linejoin="round" stroke-width="0.2"/>
      <path id="Path_2257" data-name="Path 2257" d="M337.369,192.7s16.118,6.36,19.515,8.61a25.318,25.318,0,0,1-4.279,7.759.619.619,0,0,1-1-.153l-1.63-5.888-1.764,2.609a.93.93,0,0,1-1.517.036l-4.538-7.763-.656.963a.93.93,0,0,1-1.584-.076l-3.044-5.557A.387.387,0,0,1,337.369,192.7Z" transform="translate(-330.736 -142.034)" fill="#1789a0" stroke="#000" stroke-linejoin="round" stroke-width="0.2"/>
      <path id="Path_2258" data-name="Path 2258" d="M334.465,199.833s18.5,6.894,25.476,11.672a37.988,37.988,0,0,1-5.33,8.558,1.155,1.155,0,0,1-1.973-.02l-3.323-5.575-1.088,1.919a1.155,1.155,0,0,1-1.981.05l-5.385-8.5-.664,1.04a1.154,1.154,0,0,1-2-.09l-4.351-8.409A.474.474,0,0,1,334.465,199.833Z" transform="translate(-333.792 -134.86)" fill="#1789a0" stroke="#000" stroke-linejoin="round" stroke-width="0.2"/>
      <path id="Path_2259" data-name="Path 2259" d="M372.3,199.833s-18.5,6.894-25.476,11.672a37.934,37.934,0,0,0,5.328,8.558,1.154,1.154,0,0,0,1.973-.02l3.325-5.575,1.086,1.919a1.155,1.155,0,0,0,1.981.05l5.385-8.5.664,1.04a1.154,1.154,0,0,0,2-.09l4.351-8.409A.473.473,0,0,0,372.3,199.833Z" transform="translate(-320.672 -134.86)" fill="#1789a0" stroke="#000" stroke-linejoin="round" stroke-width="0.2"/>
      <path id="Path_2260" data-name="Path 2260" d="M366.334,192.7s-16.118,6.36-19.513,8.61a25.273,25.273,0,0,0,4.277,7.759.619.619,0,0,0,1-.153l1.63-5.888,1.764,2.609a.93.93,0,0,0,1.517.036l4.538-7.763.656.963a.93.93,0,0,0,1.584-.076l3.044-5.557A.387.387,0,0,0,366.334,192.7Z" transform="translate(-320.672 -142.034)" fill="#1789a0" stroke="#000" stroke-linejoin="round" stroke-width="0.2"/>
      <path id="Path_2261" data-name="Path 2261" d="M340.082,185.208s8.969,3.681,14.1,8.022a41.061,41.061,0,0,1-2.529,6.519,1.226,1.226,0,0,1-2.248-.052l-2.442-6.019-.66,1.042a1.224,1.224,0,0,1-2.121-.09l-4.626-8.891A.392.392,0,0,1,340.082,185.208Z" transform="translate(-328.033 -149.586)" fill="#1789a0" stroke="#000" stroke-linejoin="round" stroke-width="0.2"/>
      <path id="Path_2262" data-name="Path 2262" d="M360.913,185.208s-8.971,3.681-14.1,8.022a41.044,41.044,0,0,0,2.529,6.519,1.225,1.225,0,0,0,2.248-.052l2.44-6.019.66,1.042a1.226,1.226,0,0,0,2.123-.09l4.624-8.891A.391.391,0,0,0,360.913,185.208Z" transform="translate(-320.681 -149.586)" fill="#1789a0" stroke="#000" stroke-linejoin="round" stroke-width="0.2"/>
    </g>
    <g id="Group_639" data-name="Group 639" transform="translate(86.297 302.345)">
      <g id="Group_638" data-name="Group 638">
        <path id="Path_2263" data-name="Path 2263" d="M173.292,431.342c7.373-20.406,20.194-24.573,24.039-39.958,3.267-13.067,11.618-37.586,14.061-44.678a18.63,18.63,0,0,1-4.694-4.746,7.533,7.533,0,0,1-1.447-4.056c-4.863,31.886-13.549,42.547-20.264,59.136-6.834,16.886-21.308,30.959-26.132,55.9-.082.423-.191.823-.279,1.24C162.894,450.325,168.889,443.534,173.292,431.342Z" transform="translate(-143.629 -298.134)" fill="#ebebf2" stroke="#000" stroke-linejoin="round" stroke-width="0.2"/>
        <path id="Path_2264" data-name="Path 2264" d="M213.508,345.887c-1.744,0-3.364-.018-4.744-.06q-1.921-.057-3.821-.187a58.349,58.349,0,0,1-5.037,17.982c-5.238,11.12-3.9,21.874-9.6,36.109a23.924,23.924,0,0,0-.813,16.814c8.058-12.848,15.164-28.021,17.5-36.2a42.85,42.85,0,0,1,2.254-6.035,66.188,66.188,0,0,1,4.8-8.549C211.18,358.956,212.39,350.653,213.508,345.887Z" transform="translate(-113.652 -290.343)" fill="#ebebf2" stroke="#000" stroke-linejoin="round" stroke-width="0.2"/>
        <path id="Path_2265" data-name="Path 2265" d="M202.041,365.65c3.392-5.22,7.008-9.691,9.158-13.19,1.23-2,2.6-4.283,4.056-6.713-5.222-.006-9.89.042-13.752.032C200.385,350.546,199.175,358.849,202.041,365.65Z" transform="translate(-101.647 -290.236)" fill="#bad5dd" stroke="#000" stroke-linejoin="round" stroke-width="0.2"/>
        <path id="Path_2266" data-name="Path 2266" d="M189.6,480.015c16.21-26.809,13.587-31.734,25.562-44.267a102.464,102.464,0,0,0,11.807-15.829,23.924,23.924,0,0,1,.813-16.814c5.7-14.235,4.359-24.988,9.6-36.109a58.351,58.351,0,0,0,5.037-17.982,77.855,77.855,0,0,1-7.887-.915,28.775,28.775,0,0,0-7,14.978c-1.776,11.827-6.7,31.735-11.63,30.551s1.068-18.379,2.168-30.355c.829-9.027,3.059-15.044,4.907-18.65a26.224,26.224,0,0,1-4.08-2.334c-2.442,7.092-10.793,31.611-14.061,44.678-3.845,15.385-16.666,19.552-24.039,39.958-4.4,12.192-10.4,18.983-14.717,22.835a112.878,112.878,0,0,1-13.188,33.708,12.639,12.639,0,0,0,2.252,15.67c.945.879,2.027,1.84,3.205,2.852a53.816,53.816,0,0,1,10.908-20.412c9.772-11.209,13.256-11.8,20.856-29.183s11.622-25.331,14.5-25.811-5.174,22.405-10.922,34.244-18.4,25.348-20.693,35.408a51.466,51.466,0,0,1-5.08,13.27c2.161,1.575,4.532,3.235,7.139,4.979a18.162,18.162,0,0,1,.694-4.821C177.616,503.2,181.513,493.391,189.6,480.015Z" transform="translate(-151.128 -293.717)" fill="#bad5dd" stroke="#000" stroke-linejoin="round" stroke-width="0.2"/>
        <path id="Path_2267" data-name="Path 2267" d="M262.461,374.044a83.107,83.107,0,0,1-1.015,20.25c.811,1.343,1.668,2.677,2.575,3.984a47.051,47.051,0,0,1,3.3,5.8c2.42-4.389,5.423-11.305,5.31-18.508-.187-11.987,9.549-12.186,11.572-20.868,1.519-6.515,3.863-10.39,5.748-12.616-7.285.578-14.771,1.361-24.8,1.64C263.662,356.6,261.775,362.6,262.461,374.044Z" transform="translate(-40.044 -283.848)" fill="#ebebf2" stroke="#000" stroke-linejoin="round" stroke-width="0.2"/>
        <path id="Path_2268" data-name="Path 2268" d="M186.53,362.1c-1.1,11.975-7.1,29.173-2.167,30.355s9.854-18.725,11.63-30.552a28.775,28.775,0,0,1,7-14.978,44.432,44.432,0,0,1-11.56-3.476C189.589,347.058,187.359,353.075,186.53,362.1Z" transform="translate(-119.594 -292.546)" fill="#ebebf2" stroke="#000" stroke-linejoin="round" stroke-width="0.2"/>
        <path id="Path_2269" data-name="Path 2269" d="M330.144,354.887c-20.346-3.059-31.5-2.665-43.141-1.744-1.884,2.226-4.229,6.1-5.748,12.616-2.023,8.682-11.759,8.881-11.572,20.868.112,7.2-2.89,14.119-5.31,18.508.064.132.128.253.195.387.245.5.49,1,.735,1.527,6.464,13.862,13.188,36.205,17.96,44.279,4.893,8.281,24.156,31.407,33.53,45.909l22.343-2.864,8.3-48.648,9.794-94.681A49.6,49.6,0,0,1,330.144,354.887Z" transform="translate(-37.097 -284.902)" fill="#bad5dd" stroke="#000" stroke-linejoin="round" stroke-width="0.2"/>
        <path id="Path_2270" data-name="Path 2270" d="M259.92,363.711c3.727-2.834,7.44-.917,8.81,4.04,1.124-6.938.722-10.7.072-12.738a86.526,86.526,0,0,1-25.1-4.207c.773,4.9,1.878,8.351,3.374,10.944C249.2,365.427,253.652,368.479,259.92,363.711Z" transform="translate(-57.91 -285.141)" fill="#ebebf2" stroke="#000" stroke-linejoin="round" stroke-width="0.2"/>
        <path id="Path_2271" data-name="Path 2271" d="M190.061,418.539c5.748-11.839,13.8-34.722,10.922-34.244s-6.9,8.431-14.5,25.811S175.4,428.08,165.631,439.289A53.817,53.817,0,0,0,154.723,459.7c2.573,2.208,5.732,4.724,9.565,7.516a51.462,51.462,0,0,0,5.08-13.27C171.666,443.887,184.313,430.378,190.061,418.539Z" transform="translate(-147.507 -251.428)" fill="#ebebf2" stroke="#000" stroke-linejoin="round" stroke-width="0.2"/>
        <path id="Path_2272" data-name="Path 2272" d="M256.174,365.64a14.348,14.348,0,0,1,.379,1.794c.791,5.523,4.193,16.094,10.2,26.042a83.1,83.1,0,0,0,1.016-20.25c-.686-11.442,1.2-17.44,2.685-20.314-1.176.032-2.372.06-3.623.076-4.032.056-7.5.024-10.587-.086C256.9,354.935,257.3,358.7,256.174,365.64Z" transform="translate(-45.353 -283.031)" fill="#bad5dd" stroke="#000" stroke-linejoin="round" stroke-width="0.2"/>
        <g id="Group_637" data-name="Group 637" transform="translate(61.621)">
          <path id="Path_2273" data-name="Path 2273" d="M198.962,345.751c-7.1,2.661-15.263,5.33-16.852,9.914h-.018l-.01.066a4.927,4.927,0,0,0-.249,1.644,7.534,7.534,0,0,0,1.447,4.056,18.636,18.636,0,0,0,4.694,4.746,26.227,26.227,0,0,0,4.08,2.334,44.43,44.43,0,0,0,11.56,3.476,77.872,77.872,0,0,0,7.887.915q1.9.13,3.821.187c1.381.042,3,.056,4.744.06,3.861.01,8.529-.038,13.752-.032,8.208-13.721,19.4-32.9,27.118-42.543,3.859-4.823,7.984-9.25,12.575-12.009-16.674,1.116-37.461,3.52-46,8.69C212.227,336.5,208.609,342.132,198.962,345.751Z" transform="translate(-181.832 -317.606)" fill="#1789a0" stroke="#000" stroke-linejoin="round" stroke-width="0.2"/>
          <path id="Path_2274" data-name="Path 2274" d="M412.289,342.014l-113.61-7.04-56.5-16.886s-2.137.018-5.65.112c10.211,5.072,12.981,17.874,12.981,38.419,0,12.242.439,20.872,1.425,27.134a86.525,86.525,0,0,0,25.1,4.207c3.085.11,6.555.142,10.587.086,1.25-.016,2.446-.044,3.623-.076,10.033-.279,17.518-1.062,24.8-1.64,11.636-.921,22.795-1.315,43.141,1.744a49.6,49.6,0,0,0,27.082-3.843c20.272-8.64,33.658-27.142,33.658-27.142Z" transform="translate(-126.758 -318.087)" fill="#1789a0" stroke="#000" stroke-linejoin="round" stroke-width="0.2"/>
        </g>
        <path id="Path_2275" data-name="Path 2275" d="M200.184,338.083c.153-4.257,3.867-5.415,8.317-5.995s8.509,2.9,6.962,7.929S199.991,343.5,200.184,338.083Z" transform="translate(-101.733 -304.052)" fill="#fff" stroke="#000" stroke-linejoin="round" stroke-width="0.2"/>
        <path id="Path_2276" data-name="Path 2276" d="M257.323,349.922c.913-6.282,13.3-6.518,16.451-3.48s3.237,8.236-1.333,8.1S256.519,355.461,257.323,349.922Z" transform="translate(-44.237 -291.446)" fill="#fff" stroke="#000" stroke-linejoin="round" stroke-width="0.2"/>
        <path id="Path_2277" data-name="Path 2277" d="M264.924,378.383c-.066-.134-.13-.255-.195-.387-.245.446-.482.861-.71,1.25A11.242,11.242,0,0,0,264.924,378.383Z" transform="translate(-37.454 -257.763)" fill="#ebebf2" stroke="#000" stroke-linejoin="round" stroke-width="0.2"/>
      </g>
      <ellipse id="Ellipse_418" data-name="Ellipse 418" cx="3.894" cy="1.628" rx="3.894" ry="1.628" transform="translate(57.442 120.249) rotate(-73.553)" fill="#fff" stroke="#000" stroke-linejoin="round" stroke-width="0.2"/>
    </g>
    <path id="Path_2278" data-name="Path 2278" d="M426.424,313.511c3.58-7.163,23.74,17.687,35.376,38.168s19.55,27.928,24.2,40.03,3.725,17.689-6.982,5.122-21.876-21.412-33.979-30.256-13.017-16.915-15.586-28.938S423.165,320.028,426.424,313.511Z" transform="translate(211.091 -21.616)" fill="#bad5dd" stroke="#000" stroke-linejoin="round" stroke-width="0.2"/>
    <g id="Group_641" data-name="Group 641" transform="translate(242.032 151.577)">
      <path id="Path_2279" data-name="Path 2279" d="M245.08,285.079c.8,15.309-2.872,29.365,1.307,29.361s5.222-13.312,5.744-25.323c.359-8.26.719-14.382.907-17.4-2.948-.544-5.756-1.156-8.4-1.856C244.634,273.326,244.725,278.315,245.08,285.079Z" transform="translate(-212.995 -215.882)" fill="#bad5dd" stroke="#000" stroke-linejoin="round" stroke-width="0.2"/>
      <path id="Path_2280" data-name="Path 2280" d="M447.019,264.722a17.114,17.114,0,0,0-1.156-3.047c1.014,4.772-.06,9.754-3.651,14.771C427.171,297.473,402,301.77,351.9,304.914a169.961,169.961,0,0,1-22.02.086c.3,7.319-3.817,14.8-7.787,20.723-4.694,7-1.58,18.777-1.8,35.641s2.882,19.826,2.882,19.826,2.274,12.63-5.573,5.409-4.484-14.524-4.484-32.348-2.914-21.185-5.156-31.573c-1.547-7.167-1.866-16.678-1.917-21.89-2.011-.6-3.956-1.228-5.864-1.887-.092,8.612-2.414,18.068.606,31.093,3.811,16.433,5.158,31.766,2.019,49.348-2.164,12.12-.767,28.041.311,36.767a183.953,183.953,0,0,0,29.064-8.018c24.149-9.057,93.85.931,93.85.931S461.024,318.335,447.019,264.722Z" transform="translate(-157.72 -224.122)" fill="#bad5dd" stroke="#000" stroke-linejoin="round" stroke-width="0.2"/>
      <path id="Path_2281" data-name="Path 2281" d="M306.1,300.036c1.569,8.969,4.483,2.019,7.1-3.888,1.714-3.871,1.694-9.272,1.477-12.539-3.057-.44-5.894-.979-8.572-1.6C305.6,287.071,305.148,294.583,306.1,300.036Z" transform="translate(-151.375 -203.646)" fill="#bad5dd" stroke="#000" stroke-linejoin="round" stroke-width="0.2"/>
      <path id="Path_2282" data-name="Path 2282" d="M236.928,278.823c-4.431-1.357-6.169,35.29-6.169,35.29l17.223,6.651C239.331,310.768,242.14,280.421,236.928,278.823Z" transform="translate(-226.679 -206.891)" fill="#ebebf2" stroke="#000" stroke-linejoin="round" stroke-width="0.2"/>
      <path id="Path_2283" data-name="Path 2283" d="M256.834,290.8c-.522,12.011-1.567,25.32-5.744,25.323s-.5-14.052-1.307-29.361c-.355-6.763-.446-11.753-.439-15.221a60.259,60.259,0,0,1-9.649-3.356,78.571,78.571,0,0,0,2.87,22.67c2.258,8.038,2.685,27.292-1.445,38.947l24.593,3.923s-4.985-8.491-4.451-26.752c.508-17.34,3.586-23.9,3.45-32.438q-3.594-.518-6.97-1.138C257.553,276.418,257.193,282.54,256.834,290.8Z" transform="translate(-217.699 -217.565)" fill="#ebebf2" stroke="#000" stroke-linejoin="round" stroke-width="0.2"/>
      <path id="Path_2284" data-name="Path 2284" d="M274.007,321.227l-6.6,1.549a65.947,65.947,0,0,1,0,17.675c-1.286,10.263.765,17.836,4.178,17.575s1.023-8.094,4.176-20.627S274.007,321.227,274.007,321.227Z" transform="translate(-190.168 -164.157)" fill="#ebebf2" stroke="#000" stroke-linejoin="round" stroke-width="0.2"/>
      <g id="Group_640" data-name="Group 640" transform="translate(0 32.215)">
        <path id="Path_2285" data-name="Path 2285" d="M274.007,321.227l-6.6,1.549a65.947,65.947,0,0,1,0,17.675c-1.286,10.263.765,17.836,4.178,17.575s1.023-8.094,4.176-20.627S274.007,321.227,274.007,321.227Z" transform="translate(-190.168 -196.372)" fill="none"/>
        <path id="Path_2286" data-name="Path 2286" d="M236.928,278.823c-4.431-1.357-6.169,35.29-6.169,35.29l17.223,6.651C239.331,310.768,242.14,280.421,236.928,278.823Z" transform="translate(-226.679 -239.106)" fill="none"/>
        <path id="Path_2287" data-name="Path 2287" d="M294.2,293.391c-4.413-.12-6.4,22.423-7.963,38.613s.261,34.467,4.439,33.424,2.82-18.281,3.524-32.9C294.926,317.4,299.6,293.542,294.2,293.391Z" transform="translate(-171.377 -224.401)" fill="none"/>
        <path id="Path_2288" data-name="Path 2288" d="M252.181,329.879c-3.671.438-2.426,8.875-1.2,14.416,1.816.751,3.661,1.459,5.553,2.093C255.067,339.072,256.2,329.4,252.181,329.879Z" transform="translate(-207.563 -187.678)" fill="#bad5dd" stroke="#000" stroke-linejoin="round" stroke-width="0.2"/>
        <path id="Path_2289" data-name="Path 2289" d="M366.638,346.282c.225-13.9-6.5-22.867-3.139-33.851a29.43,29.43,0,0,0,1.208-13.186c-7.462-2.766-15.042-5.66-24.928-7.827,2.342,8.381,1.351,21.873-1.941,33.092-3.655,12.465,1.046,28.8,1.046,28.8s-4.718,5.943-6.765,0-3.157-17.5-1.875-25.3.807-15.176-3.221-12.826-5.633-.261-3.769-11.488a43.94,43.94,0,0,0,.114-14.889c-16.306-1.951-33.181-2.948-47.63-5.031.137,8.54-2.942,15.1-3.45,32.438-.534,18.261,4.451,26.752,4.451,26.752l-24.593-3.923c4.13-11.654,3.7-30.909,1.445-38.947a78.57,78.57,0,0,1-2.87-22.67c-5.481-2.513-9.583-5.79-11.747-10.211a18.409,18.409,0,0,1-2.079-8.194l-.008,0s-8.281,41.582-8.16,79.45,2.372,52.431,0,62.833c0,0,16.228.827,36.556,11.147a33.019,33.019,0,0,1-1.561-10.839c.383-9.858-3.954-19.584-3.954-19.584l21.934,7.255c-1.732,11.307,2.057,24.581,4.176,30.8,15.369,3.777,31.84,4.46,44.271,3.91a47.8,47.8,0,0,1-1.708-17.545c1.044-14.741-2.519-22.578-2.519-22.578l6.2-3.675a78.86,78.86,0,0,1,2.848,26.12,67.233,67.233,0,0,0,.835,17.334c7.755-.564,17.043-1.413,27.005-2.906a75.758,75.758,0,0,1,.692-16.264C366.638,380.175,366.416,360.182,366.638,346.282Zm-133.832-12.26s1.738-36.647,6.169-35.29c5.212,1.6,2.4,31.944,11.054,41.941Zm81.514,66.02c-3.153,12.533-.763,20.366-4.176,20.627s-5.465-7.311-4.178-17.575a65.953,65.953,0,0,0,0-17.675l6.6-1.549S317.472,387.507,314.32,400.042Zm37.228-32.9c-.7,14.621.652,31.856-3.524,32.9s-6.007-17.233-4.439-33.423,3.55-38.734,7.963-38.613C356.951,328.156,352.275,352.018,351.548,367.14Z" transform="translate(-228.726 -259.015)" fill="#bad5dd" stroke="#000" stroke-linejoin="round" stroke-width="0.2"/>
        <path id="Path_2290" data-name="Path 2290" d="M266.127,327.562l-21.934-7.255s4.337,9.726,3.954,19.584a33.019,33.019,0,0,0,1.561,10.839c.341.173.672.327,1.016.506,1.881.977,3.843,1.852,5.844,2.679-1.224-5.541-2.469-13.978,1.2-14.416,4.024-.48,2.886,9.194,4.351,16.509,2.671.9,5.409,1.676,8.182,2.358C268.184,352.143,264.395,338.869,266.127,327.562Z" transform="translate(-213.152 -197.298)" fill="#ebebf2" stroke="#000" stroke-linejoin="round" stroke-width="0.2"/>
      </g>
      <path id="Path_2291" data-name="Path 2291" d="M286.2,345.516a78.862,78.862,0,0,0-2.848-26.12l-6.2,3.675s3.562,7.837,2.519,22.578a47.8,47.8,0,0,0,1.708,17.545c1.373-.062,2.709-.132,3.978-.221.542-.038,1.118-.082,1.676-.122A67.225,67.225,0,0,1,286.2,345.516Z" transform="translate(-179.96 -166)" fill="#ebebf2" stroke="#000" stroke-linejoin="round" stroke-width="0.2"/>
      <path id="Path_2292" data-name="Path 2292" d="M276.329,273.857a43.94,43.94,0,0,1-.114,14.889c-1.864,11.227-.257,13.838,3.769,11.488s4.5,5.025,3.221,12.826-.171,19.361,1.875,25.3,6.765,0,6.765,0-4.7-16.332-1.046-28.8c3.291-11.219,4.283-24.711,1.941-33.092-3.235-.708-6.707-1.345-10.518-1.866Q279.3,274.2,276.329,273.857Z" transform="translate(-181.686 -211.855)" fill="#ebebf2" stroke="#000" stroke-linejoin="round" stroke-width="0.2"/>
      <path id="Path_2293" data-name="Path 2293" d="M294.2,293.391c-4.413-.12-6.4,22.423-7.963,38.613s.261,34.467,4.439,33.424,2.82-18.281,3.524-32.9C294.926,317.4,299.6,293.542,294.2,293.391Z" transform="translate(-171.377 -192.186)" fill="#ebebf2" stroke="#000" stroke-linejoin="round" stroke-width="0.2"/>
      <path id="Path_2294" data-name="Path 2294" d="M306.667,361.839c3.139-17.583,1.792-32.916-2.019-49.348-3.02-13.025-.7-22.482-.606-31.093-2.186-.755-4.329-1.539-6.48-2.336a29.43,29.43,0,0,1-1.208,13.186c-3.362,10.984,3.364,19.951,3.139,33.851s0,33.893-3.139,58.2a75.76,75.76,0,0,0-.692,16.264c3.7-.554,7.484-1.2,11.317-1.953C305.9,389.88,304.5,373.959,306.667,361.839Z" transform="translate(-161.58 -206.615)" fill="#ebebf2" stroke="#000" stroke-linejoin="round" stroke-width="0.2"/>
      <path id="Path_2295" data-name="Path 2295" d="M316.132,297c-2.615,5.906-5.529,12.856-7.1,3.887-.953-5.453-.5-12.965,0-18.026-2.232-.516-4.353-1.086-6.4-1.7.05,5.212.369,14.723,1.917,21.89,2.242,10.388,5.156,13.75,5.156,31.573s-3.362,25.127,4.484,32.348,5.573-5.409,5.573-5.409-3.107-2.96-2.882-19.827-2.89-28.637,1.8-35.641c3.97-5.92,8.09-13.4,7.787-20.724-3.161-.213-6.109-.52-8.863-.915C317.826,287.728,317.846,293.128,316.132,297Z" transform="translate(-154.307 -204.497)" fill="#ebebf2" stroke="#000" stroke-linejoin="round" stroke-width="0.2"/>
      <path id="Path_2296" data-name="Path 2296" d="M512.77,280.517c-3.651-17.183-34.443-31.629-72.914-35.127-54.932-4.993-145.671-2.978-190.508,12.662,0,0-16.485,4.7-16.551,17.127a18.41,18.41,0,0,0,2.079,8.194c2.164,4.421,6.266,7.7,11.747,10.211a60.264,60.264,0,0,0,9.649,3.355c2.641.7,5.449,1.313,8.4,1.856q3.375.623,6.97,1.138c14.45,2.083,31.324,3.081,47.631,5.031q2.962.352,5.892.751c3.811.522,7.283,1.158,10.518,1.866,9.886,2.167,17.466,5.062,24.928,7.827,2.151.8,4.295,1.581,6.48,2.336,1.909.658,3.853,1.29,5.864,1.887,2.051.61,4.172,1.18,6.4,1.7,2.677.62,5.515,1.16,8.572,1.6,2.754.4,5.7.7,8.863.915a169.942,169.942,0,0,0,22.02-.086c50.091-3.145,75.266-7.442,90.308-28.468C512.71,290.27,513.784,285.289,512.77,280.517Z" transform="translate(-224.627 -242.963)" fill="#006781" stroke="#000" stroke-linejoin="round" stroke-width="0.2"/>
    </g>
    <g id="Group_642" data-name="Group 642" transform="translate(215.004 240.985)">
      <path id="Path_2297" data-name="Path 2297" d="M215.485,298.522s4.363,25.514,20.25,34.877,25.247,9.928,38.579,15.034,15.319,4.54,32.908,1.987,37.16,1.7,43.119-3.689,5.762-26.871,5.086-32.88S321.78,310,321.78,310Z" transform="translate(-215.031 -276.428)" fill="#bad5dd" stroke="#000" stroke-linejoin="round" stroke-width="0.2"/>
      <path id="Path_2298" data-name="Path 2298" d="M354.279,321.023a4.134,4.134,0,0,1-.191,6.318c-4.221,3.328-14.725,6.92-32.651,5.519-26.859-2.1-39.45-9.653-56.236-9.653s-49.864.13-49.942-16.786c-.072-15.269,27.8-18.907,27.8-18.907s-2.2,10.669,15.012,16.467,31.579,3.58,54.338,6.332C330.559,312.505,347.448,314.878,354.279,321.023Z" transform="translate(-215.259 -287.513)" fill="#8dccc3" stroke="#000" stroke-linejoin="round" stroke-width="0.2"/>
    </g>
    <g id="Group_643" data-name="Group 643" transform="translate(618.974 200.383)">
      <path id="Path_2299" data-name="Path 2299" d="M570.812,273.588l34.18,103.843L594.1,442.877S465.932,447.723,464.28,447.3,417.577,323.2,416.6,315.591s11.291-21.107,11.291-21.107Z" transform="translate(-416.546 -260.932)" fill="#bad5dd" stroke="#000" stroke-linejoin="round" stroke-width="0.2"/>
      <path id="Path_2300" data-name="Path 2300" d="M454.321,291.445s2.75,13.364-3.209,25.277l-22.331-31.4Z" transform="translate(-404.227 -249.113)" fill="#ebebf2" stroke="#000" stroke-linejoin="round" stroke-width="0.2"/>
      <path id="Path_2301" data-name="Path 2301" d="M444.24,289.18s1.772,5.312,1.449,14.651,1.505,17.049,4.831,15.3c3.673-1.937-3.382-21.575.644-30.752" transform="translate(-388.661 -246.042)" fill="#ebebf2" stroke="#000" stroke-linejoin="round" stroke-width="0.2"/>
      <path id="Path_2302" data-name="Path 2302" d="M450.1,289.017s2.414,7.245.644,17.872,2.738,18.353,2.254,31.073l7.729-2.316s-4.67-14.107-4.347-25.183a145.256,145.256,0,0,0-1.128-21.446Z" transform="translate(-382.763 -245.396)" fill="#ebebf2" stroke="#000" stroke-linejoin="round" stroke-width="0.2"/>
      <path id="Path_2303" data-name="Path 2303" d="M461.295,293.148c2.466.02,1.61,11.03,4.186,20.045s2.575,10.727,2.575,10.727l-8.447,4.506s-2.117-2.39,0-17.121C460.966,301.876,458.172,293.124,461.295,293.148Z" transform="translate(-374.133 -241.236)" fill="#ebebf2" stroke="#000" stroke-linejoin="round" stroke-width="0.2"/>
      <path id="Path_2304" data-name="Path 2304" d="M467.261,309.7c-2.752-.012-2.416-11.915-3.866-15.134s3.866-11.271,3.866-10.466S471.285,309.721,467.261,309.7Z" transform="translate(-369.625 -250.401)" fill="#ebebf2" stroke="#000" stroke-linejoin="round" stroke-width="0.2"/>
      <path id="Path_2305" data-name="Path 2305" d="M440.97,309.757s12.048.9,25,3.01,31.625,1.206,46.685-6.324,44.789-10.9,50-26.506-18.07-10.843-27.71-12.048-17.924-.3-26.431,0-83.607,9.368-83.858,23.961S440.97,309.757,440.97,309.757Z" transform="translate(-408.386 -267.282)" fill="#1789a0" stroke="#000" stroke-linejoin="round" stroke-width="0.2"/>
    </g>
    <g id="Group_645" data-name="Group 645" transform="translate(594.299 195.81)">
      <g id="Group_644" data-name="Group 644">
        <path id="Path_2306" data-name="Path 2306" d="M739.334,392.77c-12.969-12.652-23.867-27.523-33.04-41.915h0c-15.977-7.267-33.131-25.472-45.6-26.64s-7.795,9.352-20.266,8.963-25.334-31.569-42.094-35.856-19.1,17.928-30.4,19.487-14.809-8.184-24.942-10.522c-4.275-.987-9.1-.516-13.34.357-4.15,7.508-8.013,11.993-14.279,14.4-8.8,3.384-50.071,21.653-50.071,21.653s-58.576,37-60.987,76.538,64.131,66.542,98.366,62.682,67.505,8.68,83.9,6.27,37.612,7.233,57.862,5.3,22.18-5.786,32.789-18.323,16.395-7.715,43.88-7.233,58.145-12.921,62.205-28.482S767.076,419.835,739.334,392.77Z" transform="translate(-404.251 -233.013)" fill="#bad5dd" stroke="#000" stroke-linejoin="round" stroke-width="0.2"/>
        <path id="Path_2307" data-name="Path 2307" d="M480.075,338.278c10.133,2.338,13.639,12.082,24.942,10.522s13.641-23.774,30.4-19.487,29.62,35.466,42.093,35.856,7.793-10.133,20.266-8.963,29.624,19.373,45.6,26.64h0c-10.45-16.395-18.665-32.169-25.149-43.34-12.18-20.975-31.126-25.034-43.3-23.682s-15.564-2.705-23.005-16.914-13.414-32.1-31.8-33.833c-24.021-2.264-41.275,48.718-48.04,62.927-1.947,4.086-3.667,7.6-5.342,10.631C470.976,337.762,475.8,337.29,480.075,338.278Z" transform="translate(-341.334 -265.004)" fill="#ebebf2" stroke="#000" stroke-linejoin="round" stroke-width="0.2"/>
      </g>
      <path id="Path_2308" data-name="Path 2308" d="M489.111,312.254c5.2-.207,2.647,8.327.12,15.65s-4.8,10.86-6.567,24.75a190.134,190.134,0,0,1-4.293,23.234s-21.719-18.436-20.2-21.466,10.356-9.85,13.133-16.415S482.8,312.507,489.111,312.254Z" transform="translate(-350.037 -217.43)" fill="#ebebf2" stroke="#000" stroke-linejoin="round" stroke-width="0.2"/>
      <path id="Path_2309" data-name="Path 2309" d="M498.2,310.238c4.7-3.02,1.054,24.256-2.109,33.221s-5.8,23.2-10.019,23.465,1.844-23.465,5.009-31.374S494.513,312.61,498.2,310.238Z" transform="translate(-323.312 -219.69)" fill="#ebebf2" stroke="#000" stroke-linejoin="round" stroke-width="0.2"/>
      <path id="Path_2310" data-name="Path 2310" d="M518.746,323.945c1.574-7.5,14.237,1.846,19.246,14.5s8.7,19.287,12.919,28.362-.263,15.14-5.272,6.44-11.821-8.686-13.709-17.663C528.323,338.455,517.873,328.107,518.746,323.945Z" transform="translate(-289.015 -208.351)" fill="#ebebf2" stroke="#000" stroke-linejoin="round" stroke-width="0.2"/>
      <path id="Path_2311" data-name="Path 2311" d="M547.6,335.614c5.276-9.174,20.85,16.389,27.168,25.235s12.638,14.532,9.794,20.218-17.41-9.567-22.606-18.685S544.122,341.657,547.6,335.614Z" transform="translate(-260.511 -195.875)" fill="#ebebf2" stroke="#000" stroke-linejoin="round" stroke-width="0.2"/>
      <path id="Path_2312" data-name="Path 2312" d="M536.22,322.246c4.779-2.816,4.558,8.313,9.928,12.212s6.635,13.477,3.791,14.376-7.717-11.351-11.574-15.9C533.832,327.593,534.587,323.21,536.22,322.246Z" transform="translate(-272.646 -207.818)" fill="#ebebf2" stroke="#000" stroke-linejoin="round" stroke-width="0.2"/>
    </g>
    <path id="Path_2313" data-name="Path 2313" d="M423.813,445.039c-1.218-8.477,24.39-16.782,31.729-6.892,6.34,8.545-10.508,13.23-15.865,13.23S424.6,450.55,423.813,445.039Z" transform="translate(209.702 100.623)" fill="#fff" stroke="#000" stroke-linejoin="round" stroke-width="0.2"/>
    <ellipse id="Ellipse_419" data-name="Ellipse 419" cx="7.843" cy="4.41" rx="7.843" ry="4.41" transform="translate(575.069 540.774)" fill="#fff" stroke="#000" stroke-linejoin="round" stroke-width="0.2"/>
    <ellipse id="Ellipse_420" data-name="Ellipse 420" cx="6.481" cy="4.41" rx="6.481" ry="4.41" transform="translate(548.8 523.931)" fill="#fff" stroke="#000" stroke-linejoin="round" stroke-width="0.2"/>
    <g id="Group_648" data-name="Group 648" transform="translate(4.44 374.536)">
      <g id="Group_646" data-name="Group 646" transform="translate(7.858 6.954)">
        <path id="Path_2314" data-name="Path 2314" d="M136.815,368.924l-12.748,5.16s16.924,32.707,16.037,85.25" transform="translate(-104.377 -346.043)" fill="none" stroke="#000" stroke-linejoin="round" stroke-width="0.2"/>
        <path id="Path_2315" data-name="Path 2315" d="M122.269,367.265l3.609,14.6,9.182-20.67" transform="translate(-106.188 -353.825)" fill="none" stroke="#000" stroke-linejoin="round" stroke-width="0.2"/>
        <path id="Path_2316" data-name="Path 2316" d="M118.968,378.131c-.006.1,14.978,1.569,14.978,1.569l-19.69-16.354" transform="translate(-114.256 -351.66)" fill="none" stroke="#000" stroke-linejoin="round" stroke-width="0.2"/>
        <path id="Path_2317" data-name="Path 2317" d="M119.27,397.043l9.627-11.48-4.092-28.041" transform="translate(-109.207 -357.523)" fill="none" stroke="#000" stroke-linejoin="round" stroke-width="0.2"/>
      </g>
      <g id="Group_647" data-name="Group 647" transform="translate(0 0)">
        <ellipse id="Ellipse_421" data-name="Ellipse 421" cx="3.204" cy="5.112" rx="3.204" ry="5.112" transform="translate(18.855 19.861) rotate(-84.016)" fill="#ffb829" stroke="#000" stroke-linejoin="round" stroke-width="0.2"/>
        <ellipse id="Ellipse_422" data-name="Ellipse 422" cx="3.53" cy="5.511" rx="3.53" ry="5.511" transform="translate(31.305 13.349) rotate(-79.803)" fill="#ffb829" stroke="#000" stroke-linejoin="round" stroke-width="0.2"/>
        <ellipse id="Ellipse_423" data-name="Ellipse 423" cx="5.112" cy="3.204" rx="5.112" ry="3.204" transform="matrix(0.664, -0.747, 0.747, 0.664, 38.567, 30.482)" fill="#ffb829" stroke="#000" stroke-linejoin="round" stroke-width="0.2"/>
        <ellipse id="Ellipse_424" data-name="Ellipse 424" cx="5.112" cy="3.204" rx="5.112" ry="3.204" transform="matrix(0.259, -0.966, 0.966, 0.259, 4.801, 38.27)" fill="#ffb829" stroke="#000" stroke-linejoin="round" stroke-width="0.2"/>
        <ellipse id="Ellipse_425" data-name="Ellipse 425" cx="3.204" cy="5.112" rx="3.204" ry="5.112" transform="translate(9.987 44.414) rotate(-24.016)" fill="#ffb829" stroke="#000" stroke-linejoin="round" stroke-width="0.2"/>
        <ellipse id="Ellipse_426" data-name="Ellipse 426" cx="5.112" cy="3.204" rx="5.112" ry="3.204" transform="translate(0 20.975) rotate(-67.969)" fill="#ffb829" stroke="#000" stroke-linejoin="round" stroke-width="0.2"/>
        <ellipse id="Ellipse_427" data-name="Ellipse 427" cx="5.112" cy="3.204" rx="5.112" ry="3.204" transform="translate(16.777 1.779) rotate(-10.024)" fill="#ffb829" stroke="#000" stroke-linejoin="round" stroke-width="0.2"/>
      </g>
      <path id="Path_2318" data-name="Path 2318" d="M120.237,384.291s4.411,21.324,21.723,25.811C141.96,410.1,139.247,393.665,120.237,384.291Z" transform="translate(-100.376 -323.615)" fill="#bad5dd" stroke="#000" stroke-linejoin="round" stroke-width="0.2"/>
    </g>
    <g id="Group_651" data-name="Group 651" transform="translate(66.373 406.138)">
      <g id="Group_649" data-name="Group 649" transform="translate(6.065 5.595)">
        <path id="Path_2319" data-name="Path 2319" d="M147.879,385.626c-.458-1.67.688-8.094.688-8.094" transform="translate(-140.648 -367.617)" fill="#bad5dd" stroke="#000" stroke-linejoin="round" stroke-width="0.2"/>
        <path id="Path_2320" data-name="Path 2320" d="M157.491,381.467l-6.037.384-7.232-.569" transform="translate(-144.222 -363.842)" fill="#bad5dd" stroke="#000" stroke-linejoin="round" stroke-width="0.2"/>
        <path id="Path_2321" data-name="Path 2321" d="M155.7,372.592,147.825,390.6l16.139-7.366" transform="translate(-140.593 -372.592)" fill="none" stroke="#000" stroke-linejoin="round" stroke-width="0.2"/>
        <path id="Path_2322" data-name="Path 2322" d="M145.006,375.6l5.658,11.961s1.624,25.255-5.658,39.715" transform="translate(-143.432 -369.558)" fill="none" stroke="#000" stroke-linejoin="round" stroke-width="0.2"/>
      </g>
      <g id="Group_650" data-name="Group 650" transform="translate(0 0)">
        <ellipse id="Ellipse_428" data-name="Ellipse 428" cx="4.207" cy="2.623" rx="4.207" ry="2.623" transform="matrix(0.974, -0.227, 0.227, 0.974, 10.402, 11.19)" fill="#ffb829" stroke="#000" stroke-linejoin="round" stroke-width="0.2"/>
        <ellipse id="Ellipse_429" data-name="Ellipse 429" cx="2.623" cy="4.207" rx="2.623" ry="4.207" transform="matrix(0.858, -0.513, 0.513, 0.858, 18.034, 22.23)" fill="#ffb829" stroke="#000" stroke-linejoin="round" stroke-width="0.2"/>
        <ellipse id="Ellipse_430" data-name="Ellipse 430" cx="2.623" cy="4.207" rx="2.623" ry="4.207" transform="matrix(0.981, -0.192, 0.192, 0.981, 28.627, 12.109)" fill="#ffb829" stroke="#000" stroke-linejoin="round" stroke-width="0.2"/>
        <ellipse id="Ellipse_431" data-name="Ellipse 431" cx="2.623" cy="4.207" rx="2.623" ry="4.207" transform="translate(16.985 5.226) rotate(-84.973)" fill="#ffb829" stroke="#000" stroke-linejoin="round" stroke-width="0.2"/>
        <ellipse id="Ellipse_432" data-name="Ellipse 432" cx="4.207" cy="2.623" rx="4.207" ry="2.623" transform="matrix(0.858, -0.513, 0.513, 0.858, 1.335, 9.3)" fill="#ffb829" stroke="#000" stroke-linejoin="round" stroke-width="0.2"/>
        <ellipse id="Ellipse_433" data-name="Ellipse 433" cx="2.623" cy="4.207" rx="2.623" ry="4.207" transform="matrix(0.974, -0.227, 0.227, 0.974, 0, 20.13)" fill="#ffb829" stroke="#000" stroke-linejoin="round" stroke-width="0.2"/>
      </g>
    </g>
    <g id="Group_653" data-name="Group 653" transform="translate(810.535 372.889)">
      <g id="Group_652" data-name="Group 652" transform="translate(8.322 7.233)">
        <path id="Path_2323" data-name="Path 2323" d="M555.808,448.5c-1.921-52.778-29.458-78.676-29.458-78.676l-10.207-9.587" transform="translate(-516.143 -353.418)" fill="none" stroke="#000" stroke-linejoin="round" stroke-width="0.2"/>
        <path id="Path_2324" data-name="Path 2324" d="M524.44,371.69l1.274-6.672-8.94,3.372" transform="translate(-515.507 -348.607)" fill="none" stroke="#000" stroke-linejoin="round" stroke-width="0.2"/>
        <path id="Path_2325" data-name="Path 2325" d="M535.969,361.3l-14.74,7.458,10.543,2.465" transform="translate(-511.022 -352.349)" fill="none" stroke="#000" stroke-linejoin="round" stroke-width="0.2"/>
        <path id="Path_2326" data-name="Path 2326" d="M524,356.841l-2.772,16.41,1.552-3.3" transform="translate(-511.022 -356.841)" fill="none" stroke="#000" stroke-linejoin="round" stroke-width="0.2"/>
      </g>
      <ellipse id="Ellipse_434" data-name="Ellipse 434" cx="4.876" cy="3.389" rx="4.876" ry="3.389" transform="translate(0 12.706) rotate(-44.278)" fill="#ffb829" stroke="#000" stroke-linejoin="round" stroke-width="0.2"/>
      <ellipse id="Ellipse_435" data-name="Ellipse 435" cx="4.88" cy="3.386" rx="4.88" ry="3.386" transform="translate(17.497 1.081) rotate(-6.358)" fill="#ffb829" stroke="#000" stroke-linejoin="round" stroke-width="0.2"/>
      <ellipse id="Ellipse_436" data-name="Ellipse 436" cx="4.803" cy="3.44" rx="4.803" ry="3.44" transform="translate(1.48 32.055) rotate(-74.766)" fill="#ffb829" stroke="#000" stroke-linejoin="round" stroke-width="0.2"/>
      <ellipse id="Ellipse_437" data-name="Ellipse 437" cx="3.411" cy="4.844" rx="3.411" ry="4.844" transform="translate(12.359 36.284) rotate(-79.917)" fill="#ffb829" stroke="#000" stroke-linejoin="round" stroke-width="0.2"/>
      <ellipse id="Ellipse_438" data-name="Ellipse 438" cx="3.475" cy="4.755" rx="3.475" ry="4.755" transform="translate(31.06 13.667) rotate(-38.566)" fill="#ffb829" stroke="#000" stroke-linejoin="round" stroke-width="0.2"/>
      <ellipse id="Ellipse_439" data-name="Ellipse 439" cx="4.812" cy="3.434" rx="4.812" ry="3.434" transform="translate(27.588 30.46) rotate(-71.208)" fill="#ffb829" stroke="#000" stroke-linejoin="round" stroke-width="0.2"/>
      <ellipse id="Ellipse_440" data-name="Ellipse 440" cx="3.417" cy="4.836" rx="3.417" ry="4.836" transform="translate(15.58 19.267) rotate(-76.502)" fill="#ffb829" stroke="#000" stroke-linejoin="round" stroke-width="0.2"/>
      <path id="Path_2327" data-name="Path 2327" d="M542.524,376.3s4.018,17.677-8.815,23.8C533.71,400.1,531.414,385.966,542.524,376.3Z" transform="translate(-490.33 -330.013)" fill="#8dccc3" stroke="#000" stroke-linejoin="round" stroke-width="0.2"/>
    </g>
    <g id="Group_656" data-name="Group 656" transform="translate(878.096 385.706)">
      <g id="Group_654" data-name="Group 654" transform="translate(7.013 7.601)">
        <path id="Path_2328" data-name="Path 2328" d="M567.823,363.411S551.5,386.641,551.5,429.429" transform="translate(-546.797 -363.411)" fill="none" stroke="#000" stroke-linejoin="round" stroke-width="0.2"/>
        <path id="Path_2329" data-name="Path 2329" d="M565.516,378.1l-7.084-4.129L551.5,372.9" transform="translate(-546.797 -353.858)" fill="none" stroke="#000" stroke-linejoin="round" stroke-width="0.2"/>
        <path id="Path_2330" data-name="Path 2330" d="M554.191,366.445c.169.046,1.525,14.022,1.525,14.022l12.08-6.735" transform="translate(-544.083 -360.356)" fill="none" stroke="#000" stroke-linejoin="round" stroke-width="0.2"/>
        <line id="Line_37" data-name="Line 37" x2="11.635" y2="14.022" transform="translate(0 6.089)" fill="none" stroke="#000" stroke-linejoin="round" stroke-width="0.2"/>
      </g>
      <g id="Group_655" data-name="Group 655" transform="translate(0 0)">
        <path id="Path_2331" data-name="Path 2331" d="M552.077,365.69c-.273,1.808,1.758,3.614,4.536,4.034s5.252-.706,5.525-2.515-1.744-3.6-4.522-4.02S552.35,363.882,552.077,365.69Z" transform="translate(-539.223 -356.122)" fill="#ffb829" stroke="#000" stroke-linejoin="round" stroke-width="0.2"/>
        <ellipse id="Ellipse_441" data-name="Ellipse 441" cx="3.052" cy="4.661" rx="3.052" ry="4.661" transform="matrix(0.668, -0.744, 0.744, 0.668, 27.814, 18.544)" fill="#ffb829" stroke="#000" stroke-linejoin="round" stroke-width="0.2"/>
        <path id="Path_2332" data-name="Path 2332" d="M548.074,373.955c.187,1.66,2.4,2.77,4.951,2.483s4.461-1.863,4.275-3.522-2.392-2.756-4.939-2.469S547.888,372.3,548.074,373.955Z" transform="translate(-543.242 -348.771)" fill="#ffb829" stroke="#000" stroke-linejoin="round" stroke-width="0.2"/>
        <ellipse id="Ellipse_442" data-name="Ellipse 442" cx="5.087" cy="3.311" rx="5.087" ry="3.311" transform="translate(0 15.502) rotate(-77.975)" fill="#ffb829" stroke="#000" stroke-linejoin="round" stroke-width="0.2"/>
        <ellipse id="Ellipse_443" data-name="Ellipse 443" cx="2.988" cy="4.684" rx="2.988" ry="4.684" transform="translate(23.74 5.329) rotate(-63.073)" fill="#ffb829" stroke="#000" stroke-linejoin="round" stroke-width="0.2"/>
        <ellipse id="Ellipse_444" data-name="Ellipse 444" cx="4.547" cy="2.96" rx="4.547" ry="2.96" transform="translate(23.442 35.927) rotate(-60)" fill="#ffb829" stroke="#000" stroke-linejoin="round" stroke-width="0.2"/>
      </g>
      <path id="Path_2333" data-name="Path 2333" d="M561.15,385.021s-1.339,11.349-9.426,13.864C551.724,398.885,552.882,388.832,561.15,385.021Z" transform="translate(-539.554 -334.05)" fill="#ebebf2" stroke="#000" stroke-linejoin="round" stroke-width="0.2"/>
    </g>
    <path id="Path_2334" data-name="Path 2334" d="M496.318,226.852s-13.914,2.131-11.305,14.259C485.013,241.111,497.1,242.913,496.318,226.852Z" transform="translate(271.04 -107.609)" fill="#ffb829" stroke="#000" stroke-linejoin="round" stroke-width="0.2"/>
    <path id="Path_2335" data-name="Path 2335" d="M478.983,234.635s-.781,10.93,3.1,14.767" transform="translate(265.233 -99.772)" fill="none" stroke="#000" stroke-linejoin="round" stroke-width="0.2"/>
    <path id="Path_2336" data-name="Path 2336" d="M478.311,227.082" transform="translate(264.62 -107.378)" fill="#bad5dd" stroke="#000" stroke-linejoin="round" stroke-width="0.2"/>
    <path id="Path_2337" data-name="Path 2337" d="M478.01,250.98a24.811,24.811,0,0,0,11.785-3.7" transform="translate(264.317 -87.045)" fill="none" stroke="#000" stroke-linejoin="round" stroke-width="0.2"/>
    <path id="Path_2338" data-name="Path 2338" d="M503.486,249.879s-21.406,13.069-24.567,43.2" transform="translate(265.233 -84.423)" fill="none" stroke="#000" stroke-linejoin="round" stroke-width="0.2"/>
    <path id="Path_2339" data-name="Path 2339" d="M477.843,227.819s-5.212,11.016,3.789,13.679C481.632,241.5,486.607,234.45,477.843,227.819Z" transform="translate(262.638 -106.636)" fill="#ffb829" stroke="#000" stroke-linejoin="round" stroke-width="0.2"/>
    <path id="Path_2340" data-name="Path 2340" d="M493.722,244.783s-8.58-1.915-10.031,5.411C483.691,250.194,490.511,253.2,493.722,244.783Z" transform="translate(270.038 -89.781)" fill="#ffb829" stroke="#000" stroke-linejoin="round" stroke-width="0.2"/>
    <path id="Path_2341" data-name="Path 2341" d="M498.543,261.707a23.568,23.568,0,0,1-15.991-2.123" transform="translate(268.891 -74.65)" fill="none" stroke="#000" stroke-linejoin="round" stroke-width="0.2"/>
    <path id="Path_2342" data-name="Path 2342" d="M491.118,256.137s-1.17-9.774,11.046-12.421C502.164,243.716,502.164,256.085,491.118,256.137Z" transform="translate(277.486 -90.628)" fill="#ffb829" stroke="#000" stroke-linejoin="round" stroke-width="0.2"/>
    <path id="Path_2343" data-name="Path 2343" d="M504.386,259.229s-10.308-4.65-14.263,4.146C490.123,263.375,499.327,268.708,504.386,259.229Z" transform="translate(276.514 -76.244)" fill="#ffb829" stroke="#000" stroke-linejoin="round" stroke-width="0.2"/>
    <path id="Path_2344" data-name="Path 2344" d="M494.248,233.9s-19.885,25.695-18.54,70.5" transform="translate(261.934 -100.515)" fill="none" stroke="#000" stroke-linejoin="round" stroke-width="0.2"/>
    <path id="Path_2345" data-name="Path 2345" d="M231.864,460.421c-2.009-7.658,14.607-14.173,21.322-9.888s8.148,13.186.841,13.515S233.16,465.366,231.864,460.421Z" transform="translate(16.297 116.25)" fill="#fff" stroke="#000" stroke-linejoin="round" stroke-width="0.2"/>
    <path id="Path_2346" data-name="Path 2346" d="M184.822,454.73c-.447-4.462,6.818-6.647,11.249-4.261s3.408,5.965,1.533,6.135S185.163,458.14,184.822,454.73Z" transform="translate(-30.923 116.572)" fill="#fff" stroke="#000" stroke-linejoin="round" stroke-width="0.2"/>
    <g id="Group_657" data-name="Group 657" transform="translate(303.336 233.253)">
      <path id="Path_2347" data-name="Path 2347" d="M262.038,291.65s2.1,17.5-2.33,27.507" transform="translate(-258.834 -275.615)" fill="none" stroke="#000" stroke-linejoin="round" stroke-width="0.2"/>
      <path id="Path_2348" data-name="Path 2348" d="M272.743,293.391s-.933,17.709-9.087,26.8" transform="translate(-254.858 -273.862)" fill="none" stroke="#000" stroke-linejoin="round" stroke-width="0.2"/>
      <path id="Path_2349" data-name="Path 2349" d="M282.062,296.758a22.678,22.678,0,0,1-15.4,8.849" transform="translate(-251.829 -270.471)" fill="none" stroke="#000" stroke-linejoin="round" stroke-width="0.2"/>
      <path id="Path_2350" data-name="Path 2350" d="M262.573,300.542s-7.945-7.452.819-16.882C263.392,283.66,270.733,293.514,262.573,300.542Z" transform="translate(-259.272 -283.66)" fill="#ffb829" stroke="#000" stroke-linejoin="round" stroke-width="0.2"/>
      <path id="Path_2351" data-name="Path 2351" d="M269.211,302.719s-6.767-9.1,4.6-18.2C273.813,284.522,279.972,297.589,269.211,302.719Z" transform="translate(-251.278 -282.792)" fill="#ffb829" stroke="#000" stroke-linejoin="round" stroke-width="0.2"/>
      <path id="Path_2352" data-name="Path 2352" d="M274.156,302.168s-1.935-8.648,12.306-10.518C286.463,291.65,285.783,302.67,274.156,302.168Z" transform="translate(-244.374 -275.615)" fill="#ffb829" stroke="#000" stroke-linejoin="round" stroke-width="0.2"/>
    </g>
    <g id="Group_660" data-name="Group 660" transform="translate(264.421 47.016)">
      <g id="Group_659" data-name="Group 659" transform="translate(0 31.894)">
        <path id="Path_2353" data-name="Path 2353" d="M315.777,222.932c-7.315,2.41,5.571,15.877,1.19,45.349-2,13.434-6.139,32.269-.114,33.13s3.013-13.553,4.947-25.815,5.164-16.136,4.088-30S319.666,221.65,315.777,222.932Z" transform="translate(-165.775 -190.576)" fill="#ebebf2" stroke="#000" stroke-linejoin="round" stroke-width="0.2"/>
        <path id="Path_2354" data-name="Path 2354" d="M316.833,290.8c8.174-16.411,6.24-28.765,6.115-42.1s0-34.206,0-34.206l-6.109,1.076s-1.511,8.176-1.082,21.729,1.788,38.447-2.342,38.292-2.242-8.481-4.188-29.042c-2.077-21.936-4.654-30.979-4.654-30.979l-6.456,1.29s3.5,11.355,5.593,37.118c2.621,32.279-1.6,57.964-1.178,68.488,2.595.04,5.248.022,7.929-.066C310.386,315.471,311.123,302.265,316.833,290.8Z" transform="translate(-181.244 -198.962)" fill="#ebebf2" stroke="#000" stroke-linejoin="round" stroke-width="0.2"/>
        <path id="Path_2355" data-name="Path 2355" d="M300.41,289.333c-1.431-23.716-11.474-31.206-.941-74.25l-7.534-2.051s2.308,23.555-3.163,23.814-4.3-24.107-4.3-24.107h-4.636s-2.619,10.37,3.793,32.663-2.328,33.684-3.793,47.171c-.8,7.355-.155,16.962.594,24.18,6.868,2.117,12.929,4.082,18.02,5.258A156.451,156.451,0,0,0,300.41,289.333Z" transform="translate(-200.182 -200.731)" fill="#ebebf2" stroke="#000" stroke-linejoin="round" stroke-width="0.2"/>
        <path id="Path_2356" data-name="Path 2356" d="M294.4,228.476c-4.761.618-3.8,10.209,0,21.719s-2.687,35.161,2.85,35.272c4.6.092,4.275-17.852,5.461-30.423C304.254,238.7,299.292,227.84,294.4,228.476Z" transform="translate(-188.229 -184.91)" fill="#ebebf2" stroke="#000" stroke-linejoin="round" stroke-width="0.2"/>
        <path id="Path_2357" data-name="Path 2357" d="M252.644,226.789c2.914,5.507,1.242,17.653,5.593,17.653s.819-23.14,4.331-32.643l-11.417-.55S248.167,218.336,252.644,226.789Z" transform="translate(-229.516 -202.23)" fill="#ebebf2" stroke="#000" stroke-linejoin="round" stroke-width="0.2"/>
        <path id="Path_2358" data-name="Path 2358" d="M262.414,223.516c-3.719,1.67-2.121,11.562-3.771,22.931s.12,17.356,4.477,18.034c4.618.719,6.6-8.642,6.6-21.448S266.526,221.669,262.414,223.516Z" transform="translate(-221.605 -190.13)" fill="#ebebf2" stroke="#000" stroke-linejoin="round" stroke-width="0.2"/>
        <path id="Path_2359" data-name="Path 2359" d="M273.24,219.523c-5.389.558-1.429,19.04-.564,34.437s-.722,31.754,3.255,31.788,6.633-10.717,5.5-30.072S277.132,219.119,273.24,219.523Z" transform="translate(-209.089 -193.906)" fill="#ebebf2" stroke="#000" stroke-linejoin="round" stroke-width="0.2"/>
        <path id="Path_2360" data-name="Path 2360" d="M276.47,267.128c-6.069-4.522-5.509-24.87-10.8-24.952s-.173,13.2-4.17,13.073-2.635-18.305-6.3-18.813c-4.213-.584-5.69,10.589-7.648,18.813-1.9,8-3.771,18.08-4.74,23.523,4.594,2.6,12.688,5.126,26.877,5.276,3.837.04,7.592.287,11.259.68C279.511,277.939,280.438,270.082,276.47,267.128Z" transform="translate(-236.938 -176.89)" fill="#ebebf2" stroke="#000" stroke-linejoin="round" stroke-width="0.2"/>
        <g id="Group_658" data-name="Group 658">
          <path id="Path_2361" data-name="Path 2361" d="M262.414,223.516c-3.719,1.67-2.121,11.562-3.771,22.931s.12,17.356,4.477,18.034c4.618.719,6.6-8.642,6.6-21.448S266.526,221.669,262.414,223.516Z" transform="translate(-221.605 -190.13)" fill="none"/>
          <path id="Path_2362" data-name="Path 2362" d="M273.24,219.523c-5.389.558-1.429,19.04-.564,34.437s-.722,31.754,3.255,31.788,6.633-10.717,5.5-30.072S277.132,219.119,273.24,219.523Z" transform="translate(-209.089 -193.906)" fill="none"/>
          <path id="Path_2363" data-name="Path 2363" d="M252.644,226.789c2.914,5.507,1.242,17.653,5.593,17.653s.819-23.14,4.331-32.643l-11.417-.55S248.167,218.336,252.644,226.789Z" transform="translate(-229.516 -202.23)" fill="none"/>
          <path id="Path_2364" data-name="Path 2364" d="M294.4,228.476c-4.761.618-3.8,10.209,0,21.719s-2.687,35.161,2.85,35.272c4.6.092,4.275-17.852,5.461-30.423C304.254,238.7,299.292,227.84,294.4,228.476Z" transform="translate(-188.229 -184.91)" fill="none"/>
          <path id="Path_2365" data-name="Path 2365" d="M315.777,222.932c-7.315,2.41,5.571,15.877,1.19,45.349-2,13.434-6.139,32.269-.114,33.13s3.013-13.553,4.947-25.815,5.164-16.136,4.088-30S319.666,221.65,315.777,222.932Z" transform="translate(-165.775 -190.576)" fill="none"/>
          <path id="Path_2366" data-name="Path 2366" d="M323.834,239.151c-1.144,9.258,1.794,8.511,5.118,4.361,4.435-5.541,2.846,9.015,3.8,21.233s.474,38.316,5.457,37.13c4.8-1.144-2.611-34.852,3.938-48.253-.7-1.746-1.389-3.663-2.041-5.858-3.488-11.731-3-31.625-4.692-40.492-1.313.06-3.974.169-7.377.3l-7.177,13.009S324.828,231.133,323.834,239.151Z" transform="translate(-158.349 -206.233)" fill="#ebebf2" stroke="#000" stroke-linejoin="round" stroke-width="0.2"/>
          <path id="Path_2367" data-name="Path 2367" d="M432.413,275.868c-2.32-9.792-5.686-14.139-8.738-21.723-6.549,13.4.861,47.109-3.938,48.253-4.983,1.186-4.508-24.912-5.457-37.13s.64-26.774-3.8-21.233c-3.323,4.15-6.262,4.9-5.118-4.361.993-8.018-2.98-18.566-2.98-18.566l7.177-13.009c-13.78.544-39.924,1.515-39.924,1.515l-95.427-2.858L256.7,210.1a177.5,177.5,0,0,0-1.507,20.75c0,9.828-2.848,25.432-6.444,35.292-4.11,11.275-8.548,23.042-8.865,36.675,0,0,.815,2.958,5.868,5.82.969-5.443,2.838-15.522,4.74-23.523,1.959-8.224,3.436-19.4,7.648-18.813,3.667.508,2.3,18.685,6.3,18.813s-1.122-13.155,4.17-13.073,4.734,20.431,10.8,24.952c3.968,2.954,3.041,10.811,4.472,17.6,13.531,1.449,25.807,4.963,36.247,8.182-.749-7.217-1.391-16.824-.594-24.18,1.465-13.487,10.2-24.878,3.793-47.171s-3.793-32.663-3.793-32.663h4.636s-1.174,24.366,4.3,24.107,3.163-23.814,3.163-23.814l7.534,2.051c-10.532,43.045-.49,50.535.941,74.25a156.444,156.444,0,0,1-1.957,32.677c1.363.315,2.683.594,3.906.779a148.163,148.163,0,0,0,19.11,1.447c-.417-10.524,3.8-36.209,1.178-68.489-2.091-25.763-5.593-37.118-5.593-37.118l6.456-1.29s2.577,9.043,4.654,30.979c1.947,20.561.07,28.89,4.188,29.042s2.772-24.74,2.342-38.292,1.082-21.729,1.082-21.729l6.109-1.076s-.125,20.868,0,34.206,2.059,25.693-6.115,42.1c-5.71,11.462-6.446,24.667-6.372,31.6,11.678-.379,23.67-2.079,31.611-6.135,14.9-7.608,13-10.145,23.461-13.95s13.948-8.56,14.267-13.948S435.267,287.915,432.413,275.868Zm-163.81-26.9c-4.351,0-2.679-12.146-5.593-17.653-4.477-8.453-1.493-15.54-1.493-15.54l11.417.55C269.422,225.827,272.954,248.967,268.6,248.967ZM281.4,281.106c-4.357-.678-6.127-6.663-4.478-18.034s.052-21.261,3.771-22.931c4.112-1.846,7.305,6.713,7.305,19.517S286.015,281.824,281.4,281.106Zm25.327,17.49c-3.978-.034-2.392-16.391-3.255-31.788s-4.825-33.879.564-34.437c3.892-.4,7.048,16.8,8.186,36.153S310.7,298.632,306.725,298.6Zm47.639-21.707c-1.186,12.571-.863,30.515-5.461,30.423-5.537-.11.949-23.76-2.85-35.272s-4.76-21.1,0-21.719C350.946,249.685,355.907,260.545,354.363,276.889Zm41.544,14.885c-1.935,12.262,1.076,26.676-4.947,25.815s-1.882-19.7.114-33.13c4.381-29.472-8.505-42.938-1.19-45.349,3.89-1.282,9.035,8.792,10.111,22.66S397.844,279.512,395.907,291.775Z" transform="translate(-239.882 -206.755)" fill="#bad5dd" stroke="#000" stroke-linejoin="round" stroke-width="0.2"/>
        </g>
      </g>
      <path id="Path_2368" data-name="Path 2368" d="M264.2,203.4s-17.436,4.754-15.851,13.948,15.851,5.073,24.41,9.513,18.39-1.268,37.411,0,24.727,5.072,39.312,5.706,37.728,1.268,51.042-6.974,8.56-19.022-2.218-19.022-33.881.632-42.938,0S285.443,197.379,264.2,203.4Z" transform="translate(-231.457 -180.387)" fill="#8dccc3" stroke="#000" stroke-linejoin="round" stroke-width="0.2"/>
      <path id="Path_2369" data-name="Path 2369" d="M255.642,200.988s-1.359,7.522,1.487,10.366,10.205,4.853,21.414,4.518,35.8,2.677,53.2,7.863,24.936,3.506,24.761,0-4.855-11.835-4.184-17.294l-78.8-10.312Z" transform="translate(-224.34 -185.561)" fill="#bad5dd" stroke="#000" stroke-linejoin="round" stroke-width="0.2"/>
      <ellipse id="Ellipse_445" data-name="Ellipse 445" cx="4.728" cy="3.31" rx="4.728" ry="3.31" transform="translate(141.703 32.47)" fill="#fff" stroke="#000" stroke-linejoin="round" stroke-width="0.2"/>
      <ellipse id="Ellipse_446" data-name="Ellipse 446" cx="5.04" cy="3.249" rx="5.04" ry="3.249" transform="translate(157.465 34.965)" fill="#fff" stroke="#000" stroke-linejoin="round" stroke-width="0.2"/>
      <path id="Path_2370" data-name="Path 2370" d="M255.611,207.789c-2.133-10.665,25.6-15.893,34.3-16.563s26.267-1,37.309,4.518,21.416,8.867,24.091,13.384-1,8.7-12.212,10.039-38.146-4.684-53.035-4.518S257.117,215.319,255.611,207.789Z" transform="translate(-224.161 -190.863)" fill="#1789a0" stroke="#000" stroke-linejoin="round" stroke-width="0.2"/>
      <path id="Path_2371" data-name="Path 2371" d="M277.042,194.661c1.062-2.954,8.291-1.61,9.659,2.011s-6,2.5-8.05,1.369A3.019,3.019,0,0,1,277.042,194.661Z" transform="translate(-202.575 -188.667)" fill="#fff" stroke="#000" stroke-linejoin="round" stroke-width="0.2"/>
      <path id="Path_2372" data-name="Path 2372" d="M282.761,203.782c-1.973-2.958,2.862-8.391,8.554-8.094,5.306.275,10.3,6.217,8.668,9.079S284.044,205.706,282.761,203.782Z" transform="translate(-197.158 -186.017)" fill="#fff" stroke="#000" stroke-linejoin="round" stroke-width="0.2"/>
    </g>
    <g id="Group_665" data-name="Group 665" transform="translate(569.804 49.277)">
      <g id="Group_662" data-name="Group 662" transform="translate(49.226 105)">
        <g id="Group_661" data-name="Group 661">
          <path id="Path_2373" data-name="Path 2373" d="M460.827,250.39l-8.224,2.149s-1.224,5.551,2.9,12.1c3.045,4.827.217,17.41,4.8,17.424,3.815.014,2.165-15.915,0-21.7A11.7,11.7,0,0,1,460.827,250.39Z" transform="translate(-380.467 -238.185)" fill="none"/>
          <path id="Path_2374" data-name="Path 2374" d="M457.8,251.461l-15.576,5.551s4.786,5.6,7.293,16.274,4.431,21.35,8.106,21.175-2.8-12.776,0-13.3,3.5,9.39,7.177,8.02-4.026-13.27-6.3-22.546S457.8,251.461,457.8,251.461Z" transform="translate(-390.742 -237.107)" fill="none"/>
          <path id="Path_2375" data-name="Path 2375" d="M467.371,257.774c-5.328-.273,2.446,28.458,6.4,26.04S470.58,257.941,467.371,257.774Z" transform="translate(-367.243 -230.752)" fill="none"/>
          <path id="Path_2376" data-name="Path 2376" d="M527.67,274.271c0-13-2.866-24.814-4.684-28.739s-35.208,2.848-35.208,2.848l-71.2,3.725,5.039,45.352s10.516,17.308,11.173,17.526,11.612,8.983,11.612,8.983,1.29-4.5,13.727-7.494c-5.461-7.114-10.1-22.526-7.7-34.182,3.024-14.659,0-21.508,0-21.508l11.431,1.738a113.373,113.373,0,0,1,2.394,16.928c.674,9.772,5.788,15.227,7.6,27.383a46.333,46.333,0,0,0,1.575,7.237c14.915-1.879,21.5-2.426,29.9-2.81,3.488-.159,6.862.026,10.089.088a110.515,110.515,0,0,0-3.833-10.414c-3.711-8.851-7.61-22.259-4.068-23.292,3.179-.925,2.669,11.048,7.757,21.049a129.731,129.731,0,0,1,5.617,12.547,19.63,19.63,0,0,0,10.073-3.263c7.229-5.04,7.233-8.556,7.233-8.556S527.67,287.272,527.67,274.271Zm-37.034,22.112c-3.677,1.371-4.375-8.546-7.177-8.02s3.677,13.123,0,13.3-5.6-10.5-8.106-21.175-7.293-16.274-7.293-16.274l15.576-5.551s-1.575,5.9.7,15.174S494.311,295.012,490.636,296.383Zm5.774-8.2c-4.58-.014-1.752-12.6-4.8-17.424-4.128-6.549-2.9-12.1-2.9-12.1l8.224-2.149a11.7,11.7,0,0,0-.524,9.974C498.575,272.272,500.225,288.2,496.41,288.187Zm26.69,9.184c-3.952,2.418-11.727-26.313-6.4-26.04C519.911,271.5,527.052,294.954,523.1,297.371Z" transform="translate(-416.574 -244.309)" fill="#bad5dd" stroke="#000" stroke-linejoin="round" stroke-width="0.2"/>
          <path id="Path_2377" data-name="Path 2377" d="M446.4,281.237l-.054,0Z" transform="translate(-386.592 -207.124)" fill="none" stroke="#000" stroke-linejoin="round" stroke-width="0.2"/>
          <path id="Path_2378" data-name="Path 2378" d="M437.575,260.93c-3.3-.558-1.971,8.2.51,13.99,2.2,5.14,2.722,13.87,5.74,13.952,2.725.072,2.045-8.409-.456-13.294S440.943,261.5,437.575,260.93Z" transform="translate(-397.405 -227.598)" fill="none" stroke="#000" stroke-linejoin="round" stroke-width="0.2"/>
          <path id="Path_2379" data-name="Path 2379" d="M447.593,271.183a113.363,113.363,0,0,0-2.394-16.928l-11.431-1.738s3.024,6.85,0,21.508c-2.4,11.656,2.24,27.068,7.7,34.182a77.419,77.419,0,0,1,8.182-1.489c2.577-.335,4.937-.638,7.123-.915a46.365,46.365,0,0,1-1.575-7.237C453.381,286.41,448.267,280.955,447.593,271.183Zm-1.256,26.134c-3.018-.082-3.536-8.812-5.74-13.952-2.481-5.788-3.805-14.548-.51-13.99,3.368.572,3.3,9.762,5.794,14.648S449.062,297.39,446.337,297.318Z" transform="translate(-399.916 -236.043)" fill="#ebebf2" stroke="#000" stroke-linejoin="round" stroke-width="0.2"/>
        </g>
        <path id="Path_2380" data-name="Path 2380" d="M467.371,257.774c-5.328-.273,2.446,28.458,6.4,26.04S470.58,257.941,467.371,257.774Z" transform="translate(-367.243 -230.752)" fill="#ebebf2" stroke="#000" stroke-linejoin="round" stroke-width="0.2"/>
        <path id="Path_2381" data-name="Path 2381" d="M461.593,260.942c-3.542,1.034.357,14.442,4.068,23.293a110.511,110.511,0,0,1,3.833,10.414c1.875.036,3.7.028,5.473-.11a129.724,129.724,0,0,0-5.618-12.547C464.262,271.991,464.772,260.017,461.593,260.942Z" transform="translate(-372.646 -227.61)" fill="#ebebf2" stroke="#000" stroke-linejoin="round" stroke-width="0.2"/>
        <path id="Path_2382" data-name="Path 2382" d="M437.575,260.93c-3.3-.558-1.971,8.2.51,13.99,2.2,5.14,2.722,13.87,5.74,13.952,2.725.072,2.045-8.409-.456-13.294S440.943,261.5,437.575,260.93Z" transform="translate(-397.405 -227.598)" fill="#bad5dd" stroke="#000" stroke-linejoin="round" stroke-width="0.2"/>
        <path id="Path_2383" data-name="Path 2383" d="M457.8,251.461l-15.576,5.551s4.786,5.6,7.293,16.274,4.431,21.35,8.106,21.175-2.8-12.776,0-13.3,3.5,9.39,7.177,8.02-4.026-13.27-6.3-22.546S457.8,251.461,457.8,251.461Z" transform="translate(-390.742 -237.107)" fill="#ebebf2" stroke="#000" stroke-linejoin="round" stroke-width="0.2"/>
        <path id="Path_2384" data-name="Path 2384" d="M460.827,250.39l-8.224,2.149s-1.224,5.551,2.9,12.1c3.045,4.827.217,17.41,4.8,17.424,3.815.014,2.165-15.915,0-21.7A11.7,11.7,0,0,1,460.827,250.39Z" transform="translate(-380.467 -238.185)" fill="#ebebf2" stroke="#000" stroke-linejoin="round" stroke-width="0.2"/>
      </g>
      <g id="Group_663" data-name="Group 663" transform="translate(10.516 88.928)">
        <path id="Path_2385" data-name="Path 2385" d="M540.591,249.672c-4.877-5.122-8.939-6.34-17.47-6.34-7.37,0-26.478,4.227-34.985,1.72,1.935.676,6.541,2.681,5.387,6.133-1.451,4.337-17.9,4.921-29.343,3.986s-26.118-4.484-32.244-1.341c-4.626,2.374-11.556-10.727-14.675-17.294-5.513-.335-9.8-.377-11.149.3-4.064,2.031-13.814,11.781-5.687,22.751s9.615,19.387,25.731,19.243c0,0,22.576-11.014,41.847-6.609s23.429.413,33.179-2.86,23.971,3.635,31.284-2.46S545.466,254.794,540.591,249.672Z" transform="translate(-397.286 -236.3)" fill="#8dccc3" stroke="#000" stroke-linejoin="round" stroke-width="0.2"/>
        <path id="Path_2386" data-name="Path 2386" d="M442.338,240.6c-.07-.026-.13-.06-.2-.086l.006.03S442.225,240.566,442.338,240.6Z" transform="translate(-352.122 -232.057)" fill="#bad5dd" stroke="#000" stroke-linejoin="round" stroke-width="0.2"/>
        <path id="Path_2387" data-name="Path 2387" d="M442.238,240.557c.2.074.415.144.634.209C442.6,240.669,442.38,240.6,442.238,240.557Z" transform="translate(-352.023 -232.014)" fill="#bad5dd" stroke="#000" stroke-linejoin="round" stroke-width="0.2"/>
        <path id="Path_2388" data-name="Path 2388" d="M477.361,244.048a31.629,31.629,0,0,0,.939,6.575,4,4,0,0,1-2.639,4.939,25.278,25.278,0,0,1-9.019.737c-10.215-.7-15.4,1.521-23.983,1.521S420.9,256.3,420.9,256.3l-7.4-12.694,30.646-1.612Z" transform="translate(-380.967 -230.568)" fill="#bad5dd" stroke="#000" stroke-linejoin="round" stroke-width="0.2"/>
        <path id="Path_2389" data-name="Path 2389" d="M421.914,253.712c6.125-3.143,20.8.4,32.243,1.341s27.892.351,29.343-3.986c1.154-3.452-3.452-5.457-5.387-6.133-.219-.064-.429-.134-.634-.209-.112-.034-.193-.056-.193-.056l-.006-.03a6.246,6.246,0,0,1-2.338-1.425c-5.316-5.688-22.787-5.053-33.349-4.558-7.066.331-23.216-1.557-34.355-2.238C410.358,242.985,417.288,256.086,421.914,253.712Z" transform="translate(-387.264 -236.182)" fill="#8dccc3" stroke="#000" stroke-linejoin="round" stroke-width="0.2"/>
      </g>
      <g id="Group_664" data-name="Group 664">
        <path id="Path_2390" data-name="Path 2390" d="M392.1,247.249c-1-9.958,11.544-9.9,14.111-8.616,0,0-5.561-41.3,30.182-34.889A25.042,25.042,0,0,1,461.111,192.2c17.187,2.051,23.409,17.956,14.012,36.94,0,0,18.052-3.335,18.309,7.7s-28.278,12.567-45.15,13.595C425.774,251.8,393.3,259.265,392.1,247.249Z" transform="translate(-392.046 -191.99)" fill="#006781" stroke="#000" stroke-linejoin="round" stroke-width="0.2"/>
        <path id="Path_2391" data-name="Path 2391" d="M415.526,207.922c6.075-1.479,1.933,17.069,3.865,22.223s7.123-.753,10.99-6.7c3.847-5.918,7.805-14.3,10.775-12.569,3.944,2.3-.833,12.056-13.832,23.088s-11.8,37.71-11.8,37.71l-10.8-2.053s7.727-15.582,9.384-31.4C415.849,221.663,412.213,208.729,415.526,207.922Z" transform="translate(-379.275 -176.031)" fill="#ebebf2" stroke="#000" stroke-linejoin="round" stroke-width="0.2"/>
        <path id="Path_2392" data-name="Path 2392" d="M418.744,247.862c-.777-6.709,9.3-10.4,14.777-9.577,0,0,1.826-20.091,25.095-24.711,23.118-4.59,32.137,13.446,32.137,13.446s12.013-4.845,19.391,1.961c7.078,6.529,3.008,13.408,3.008,13.408s14.231-.193,15.052,6.649-20.8,4.57-28.187,4.57-49.256.676-62.116.064S419.318,252.819,418.744,247.862Z" transform="translate(-365.205 -171.01)" fill="#1789a0" stroke="#000" stroke-linejoin="round" stroke-width="0.2"/>
      </g>
      <ellipse id="Ellipse_447" data-name="Ellipse 447" cx="6.254" cy="4.494" rx="6.254" ry="4.494" transform="translate(125.548 101.964)" fill="#fff" stroke="#000" stroke-linejoin="round" stroke-width="0.2"/>
      <ellipse id="Ellipse_448" data-name="Ellipse 448" cx="2.763" cy="1.866" rx="2.763" ry="1.866" transform="translate(142.274 108.812)" fill="#fff" stroke="#000" stroke-linejoin="round" stroke-width="0.2"/>
    </g>
    <g id="Group_666" data-name="Group 666" transform="translate(284.809 126.259)">
      <path id="Path_2393" data-name="Path 2393" d="M265.92,238.969s1.842,41.794,6.121,56.9" transform="translate(-234.051 -221.667)" fill="none" stroke="#000" stroke-linejoin="round" stroke-width="0.2"/>
      <path id="Path_2394" data-name="Path 2394" d="M269.1,248.284s-10.241-4.12-4.588-17.936C264.517,230.348,275.168,240.005,269.1,248.284Z" transform="translate(-237.178 -230.348)" fill="#ffb829" stroke="#000" stroke-linejoin="round" stroke-width="0.2"/>
      <path id="Path_2395" data-name="Path 2395" d="M275.716,243.8s-.355,16-8.271,26.3" transform="translate(-232.516 -216.801)" fill="#bad5dd" stroke="#000" stroke-linejoin="round" stroke-width="0.2"/>
      <path id="Path_2396" data-name="Path 2396" d="M255.529,248.384s1.84,24.276,14.161,34.024" transform="translate(-244.514 -212.187)" fill="none" stroke="#000" stroke-linejoin="round" stroke-width="0.2"/>
      <path id="Path_2397" data-name="Path 2397" d="M254.063,254.432a13.629,13.629,0,0,0,6.918,6.029" transform="translate(-245.99 -206.097)" fill="none" stroke="#000" stroke-linejoin="round" stroke-width="0.2"/>
      <path id="Path_2398" data-name="Path 2398" d="M290.852,257.436a36.378,36.378,0,0,1-12.505,24.683" transform="translate(-221.538 -203.072)" fill="none" stroke="#000" stroke-linejoin="round" stroke-width="0.2"/>
      <path id="Path_2399" data-name="Path 2399" d="M281.488,250.766s-1.1,22.255-7.54,36.968" transform="translate(-225.968 -209.789)" fill="none" stroke="#000" stroke-linejoin="round" stroke-width="0.2"/>
      <path id="Path_2400" data-name="Path 2400" d="M257.887,257.171s-7.771-3.3-3.065-16.957C254.822,240.214,262.625,250.283,257.887,257.171Z" transform="translate(-246.75 -220.414)" fill="#ffb829" stroke="#000" stroke-linejoin="round" stroke-width="0.2"/>
      <path id="Path_2401" data-name="Path 2401" d="M258.324,260.324s-9.039.674-8.232-11.464C250.092,248.86,259.2,251.858,258.324,260.324Z" transform="translate(-250.041 -211.708)" fill="#ffb829" stroke="#000" stroke-linejoin="round" stroke-width="0.2"/>
      <path id="Path_2402" data-name="Path 2402" d="M272.213,251.694s-4.59-6.45,2.751-15.016C274.964,236.678,279.859,247.134,272.213,251.694Z" transform="translate(-229.141 -223.974)" fill="#ffb829" stroke="#000" stroke-linejoin="round" stroke-width="0.2"/>
      <path id="Path_2403" data-name="Path 2403" d="M286.789,265.193s-7.686-4.287-2.725-15.062C284.064,250.131,292.876,256.925,286.789,265.193Z" transform="translate(-217.461 -210.428)" fill="#ffb829" stroke="#000" stroke-linejoin="round" stroke-width="0.2"/>
      <path id="Path_2404" data-name="Path 2404" d="M279.37,259.251s-8-4.969.391-16.288C279.761,242.963,287.039,253.843,279.37,259.251Z" transform="translate(-223.976 -217.646)" fill="#ffb829" stroke="#000" stroke-linejoin="round" stroke-width="0.2"/>
    </g>
    <g id="Group_670" data-name="Group 670" transform="translate(293.969 76.054)">
      <path id="Path_2405" data-name="Path 2405" d="M818.928,553.288c-1.947-4.138-20.691-19.473-28.723-24.342s-39.107-32.3-50.542-51.534-36.476-48.8-51.985-63.941-33.791-37.429-44.187-59.782c-4.69-10.085-10.438-20.067-16.146-30.465l0,0c-15.269-1.246-31.816-43.879-44.243-39.3s5.232,41.2-14.388,43.817-37.931-52.973-58.857-52.973-28.775,42.509-44.472,42.509-9.5-36.657-25.5-44.47c-12.116-5.916-39.159,15.379-39.159,15.379-11.957,21.314-22.875,30.672-26.514,45.226s-7,36.337-21.313,56.666c-19.9,28.25-42.108,46.786-59.783,72.258s-28.073,45.228-35.35,64.982-1.559,27.551,12.995,31.192c14.163,3.54,49.481,13.477,72.448,22.151,2.639-8.5,11.809-19.889,21.29-32.093,14.008-18.03,11.534-15.774,18.957-34.224s14.468-33.716,24.862-50.974c8.945-14.851,24.631-41.092,29.58-40.167,4.518.847-.355,24.613-5.658,43.7s-2.121,24.348-9.192,44.875-22.624,59.413-26.514,75.673a45.252,45.252,0,0,1-3.893,10.821c14.478,5.483,41.538,15.562,60.874,21.777,27.6,8.871,33.512,11.827,31.541-12.814-1.011-12.648,2.236-31.5,6.916-49.254,4.435-16.836,10.157-32.691,14.765-41.331,5.178-9.71,7.885-16.051,13.238-21.36,4.435-4.4,10.683-8.082,21.677-12.371,24.264-9.469,27.814-26.04,43.2-27.814,9.039-1.044,17.266-.442,27.312,8.266,7.052,6.113,15,16.214,24.763,32.566,23.672,39.649,33.732,75.156,65.1,85.808,22.915,7.783,40.143,5.138,55.146,1.3,5.533-1.415,10.765-2.988,15.867-4.265,18.937-4.734,27.152-3.35,32.021-5.784S820.877,557.426,818.928,553.288Z" transform="translate(-254.605 -138.435)" fill="#bad5dd" stroke="#000" stroke-linejoin="round" stroke-width="0.2"/>
      <path id="Path_2406" data-name="Path 2406" d="M426.424,313.511c3.58-7.163,23.74,17.687,35.376,38.168s19.55,27.928,24.2,40.03,3.725,17.689-6.982,5.122-21.876-21.412-33.979-30.256-13.017-16.915-15.586-28.938S423.165,320.028,426.424,313.511Z" transform="translate(-82.877 -97.67)" fill="#ebebf2" stroke="#000" stroke-linejoin="round" stroke-width="0.2"/>
      <path id="Path_2407" data-name="Path 2407" d="M288.128,480.221c3.279.945,21.548-28.416,35.709-40.992s19.7-21.9,26.475-45.864,12.7-38.13,18.046-58.448,12.738-28.322,7.2-31.4-9.236,11.082-14.161,20.932S346,352.925,344.771,366.393s-19.7,25.783-25.859,39.328-10.119,21.147-16.758,37.048-9.316,9.75-12.885,24.988C287.719,474.377,285.121,479.354,288.128,480.221Z" transform="translate(-222.244 -106.897)" fill="#ebebf2" stroke="#000" stroke-linejoin="round" stroke-width="0.2"/>
      <path id="Path_2408" data-name="Path 2408" d="M379.67,300.442c6.121,1.911-.409,16.353-2.45,27.375s-4.082,21.141-9.8,19.963-4.084-15.472,0-29.354S374.019,298.678,379.67,300.442Z" transform="translate(-144.732 -109.87)" fill="#ebebf2" stroke="#000" stroke-linejoin="round" stroke-width="0.2"/>
      <g id="Group_667" data-name="Group 667" transform="translate(88.598 284.743)">
        <path id="Path_2409" data-name="Path 2409" d="M378.591,435.814c7.07-20.527,3.889-25.785,9.192-44.875s10.175-42.856,5.658-43.7c-4.949-.925-20.635,25.315-29.58,40.167C353.466,404.66,346.422,419.927,339,438.377s-4.949,16.194-18.958,34.224c-9.481,12.2-18.65,23.594-21.289,32.093.638.243,1.272.484,1.893.722,22.873,8.837,37.447,13.041,37.447,13.041s3.906,1.509,10.093,3.851a45.245,45.245,0,0,0,3.894-10.822C355.967,495.227,371.52,456.339,378.591,435.814Z" transform="translate(-298.751 -347.212)" fill="#ebebf2" stroke="#000" stroke-linejoin="round" stroke-width="0.2"/>
      </g>
      <path id="Path_2410" data-name="Path 2410" d="M398.8,308.035c8,1.142-5.132,42.33-7.482,54.326-2.561,13.075-13.218,28.229-15.463,41.947s-9.228,28.432-12.471,25.189,2.743-8.546,2.495-16.868,2.346-27.776,8.405-35.507,10.8-18.707,12.794-31.176S393.564,307.286,398.8,308.035Z" transform="translate(-146.043 -101.933)" fill="#ebebf2" stroke="#000" stroke-linejoin="round" stroke-width="0.2"/>
      <path id="Path_2411" data-name="Path 2411" d="M478.9,371.041c5.461-3.185,24.986,22.357,35.069,35.946s27.041,27.617,29.52,37.7-3.655,7.014-10.889,0c-4.843-4.7-11.945-7.622-19.925-12.991a58.425,58.425,0,0,1-17.292-18.247C483.034,393.069,474.242,373.756,478.9,371.041Z" transform="translate(-30.033 -38.749)" fill="#ebebf2" stroke="#000" stroke-linejoin="round" stroke-width="0.2"/>
      <path id="Path_2412" data-name="Path 2412" d="M461.752,369.756c4.465-5.425,13.82,8.822,15.65,11.652s2.163,6.161,0,8.325-7.119-1.419-12.318-9.822C461.676,374.4,460.054,371.817,461.752,369.756Z" transform="translate(-46.706 -40.998)" fill="#ebebf2" stroke="#000" stroke-linejoin="round" stroke-width="0.2"/>
      <path id="Path_2413" data-name="Path 2413" d="M472.411,373.97c0,29.905-51.393,67.794-86.96,21.524" transform="translate(-122.852 -35.525)" fill="#bad5dd" stroke="#000" stroke-linejoin="round" stroke-width="0.2"/>
      <path id="Path_2414" data-name="Path 2414" d="M377.385,410.957s42.994,8.808,60.882-21.38" transform="translate(-130.974 -19.81)" fill="#bad5dd" stroke="#000" stroke-linejoin="round" stroke-width="0.2"/>
      <path id="Path_2415" data-name="Path 2415" d="M434.243,383.1s3.54,23.724,24.651,50.87" transform="translate(-73.721 -26.33)" fill="#bad5dd" stroke="#000" stroke-linejoin="round" stroke-width="0.2"/>
      <path id="Path_2416" data-name="Path 2416" d="M431.05,402.437s4.63,14.285,12.816,23.768" transform="translate(-76.937 -6.861)" fill="#bad5dd" stroke="#000" stroke-linejoin="round" stroke-width="0.2"/>
      <path id="Path_2417" data-name="Path 2417" d="M427.189,390.794a85.773,85.773,0,0,0,3.2,11.536" transform="translate(-80.824 -18.585)" fill="#bad5dd" stroke="#000" stroke-linejoin="round" stroke-width="0.2"/>
      <path id="Path_2418" data-name="Path 2418" d="M410.569,389.577c-.006,13.978,12.816,27.2,12,37.692" transform="translate(-97.56 -19.81)" fill="#bad5dd" stroke="#000" stroke-linejoin="round" stroke-width="0.2"/>
      <path id="Path_2419" data-name="Path 2419" d="M421.194,398.968c-1.862,7.6,6.39,10.982,5.409,23.786" transform="translate(-87.138 -10.354)" fill="#bad5dd" stroke="#000" stroke-linejoin="round" stroke-width="0.2"/>
      <path id="Path_2420" data-name="Path 2420" d="M449.487,413.069s3.052,5.29,5.5,7.121" transform="translate(-58.372 3.845)" fill="#bad5dd" stroke="#000" stroke-linejoin="round" stroke-width="0.2"/>
      <g id="Group_668" data-name="Group 668" transform="translate(146.115)">
        <path id="Path_2421" data-name="Path 2421" d="M436.545,341.665c20.926,0,39.238,55.59,58.857,52.973s1.963-39.24,14.388-43.817,28.974,38.055,44.243,39.3v0c-6.944-12.65-13.832-25.917-18.683-40.755-8.839-27.033-16-52.333-29.632-67.062-23.134-25-34-14.823-48.7-25-13.495-9.346-12-29.151-20.356-41.584-9.711-14.448-24.87-14.211-35.95,3.165-8.148,12.778-29.111,51.464-36.388,73.819s-24.954,41.068-36.91,62.381c0,0,27.043-21.3,39.159-15.379,16,7.813,9.808,44.47,25.5,44.47S415.617,341.665,436.545,341.665Z" transform="translate(-327.41 -205.332)" fill="#ebebf2" stroke="#000" stroke-linejoin="round" stroke-width="0.2"/>
        <path id="Path_2422" data-name="Path 2422" d="M582.929,489.954c-31.364-10.653-41.425-46.159-65.1-85.808-9.762-16.352-17.711-26.453-24.763-32.566-10.047-8.708-18.271-9.31-27.312-8.266-15.387,1.774-18.937,18.345-43.2,27.814-10.994,4.289-17.241,7.976-21.677,12.371-5.353,5.308-8.06,11.65-13.238,21.36-4.608,8.64-10.33,24.495-14.765,41.331a95.32,95.32,0,0,0,37.437,17.681c33.267,7.737,43.326-6.189,78.913-6.189s65.761,10.057,81.234,22.435,67.611-8.855,67.615-8.857C623.072,495.092,605.845,497.737,582.929,489.954Z" transform="translate(-281.629 -46.64)" fill="#8dccc3" stroke="#000" stroke-linejoin="round" stroke-width="0.2"/>
        <path id="Path_2423" data-name="Path 2423" d="M391.509,409.836c.454,5.071.993,12.108,5.3,12,4.588-.112.1-17.607,6.932-20.017,5.774-2.037,7.415,8.182,12.005,7.984s2.2-15.566,6.587-15.566.823,15.524,3.193,20.156c2.017,3.944,5.587,2,5.788-6.886s2.145-22.425,8.182-24.248c7.195-2.169,11.921,7.6,11.375,28.938-.518,20.25,8.981,24.348,9.18,8.582s-.072-43.422,7.109-42.84c3.863.315,2.284,9.617,6.43,10.1,4.249.5,5.688-12.547,5.429-16.461-10.047-8.708-18.273-9.31-27.312-8.266-15.387,1.774-18.938,18.345-43.2,27.814-10.994,4.289-17.241,7.976-21.677,12.371h0S391.034,404.512,391.509,409.836Z" transform="translate(-267.579 -46.64)" fill="#ebebf2" stroke="#000" stroke-linejoin="round" stroke-width="0.2"/>
      </g>
      <g id="Group_669" data-name="Group 669" transform="translate(35.985 382.208)">
        <path id="Path_2424" data-name="Path 2424" d="M332.98,422.251a12.921,12.921,0,0,0,.068-1.342,13.166,13.166,0,0,0-16.629-12.748,13.192,13.192,0,0,0-23.5-7.389,10.8,10.8,0,0,0-8.774-5c-6.41,0-11.606,6.452-11.606,14.414s5.2,14.416,11.606,14.416c.283,0,.562-.028.841-.054a13.2,13.2,0,0,0,16.2,17.245,13.068,13.068,0,0,0-.13,1.76,13.208,13.208,0,0,0,25.781,4.052,13.207,13.207,0,1,0,6.149-25.358Z" transform="translate(-272.535 -395.776)" fill="#006781" stroke="#000" stroke-linejoin="round" stroke-width="0.2"/>
      </g>
      <path id="Path_2425" data-name="Path 2425" d="M288.236,409.054s6.88-3.354,6.9,5.581c0,0,4.833.074,3.723,5.431" transform="translate(-220.74 -0.819)" fill="none" stroke="#000" stroke-linejoin="round" stroke-width="0.2"/>
    </g>
    <path id="Path_2426" data-name="Path 2426" d="M557.987,464.293a10.563,10.563,0,0,0-4.19-8.4,10.561,10.561,0,0,0-7.253-15.7,10.615,10.615,0,0,0-9.786-14.727,10.285,10.285,0,0,0-1.278.128,10.272,10.272,0,0,0-11.831-11.779c0-.046.014-.088.014-.134A10.586,10.586,0,0,0,503,410.417a10.514,10.514,0,0,0-14.9,12.088,10.544,10.544,0,0,0-5.712,18.917,10.5,10.5,0,0,0-8.838,15.325,10.583,10.583,0,0,0-7.034,9.95c0,5.864,4.841,9.611,10.617,10.617,18.676,3.249,48.62,2.862,72.242-2.6C555.246,473.359,557.987,469.473,557.987,464.293Z" transform="translate(252.735 69.822)" fill="#1789a0" stroke="#000" stroke-linejoin="round" stroke-width="0.2"/>
    <path id="Path_2427" data-name="Path 2427" d="M492.33,418.275s8.547-.993,7.382,7.661c0,0,8.08-1.79,9.039,4.63.757,5.053-4.971,7.855-4.971,7.855" transform="translate(278.737 85.106)" fill="none" stroke="#000" stroke-linejoin="round" stroke-width="0.2"/>
    <path id="Path_2428" data-name="Path 2428" d="M433.08,226.982c3.314-.47,2.882,12.26,7.508,12.995,3.883.614,12.75-15.465,16.1-12.995,2.808,2.067-9.663,12.007-13.416,17.185s-7.273,15.606-10.167,13.2c-2.344-1.949,4.59-9.459,2.625-15.074C433.528,236,429.934,227.425,433.08,226.982Z" transform="translate(217.831 -107.739)" fill="#ebebf2" stroke="#000" stroke-linejoin="round" stroke-width="0.2"/>
    <ellipse id="Ellipse_449" data-name="Ellipse 449" cx="3.767" cy="2.028" rx="3.767" ry="2.028" transform="translate(661.534 149.629)" fill="#fff" stroke="#000" stroke-linejoin="round" stroke-width="0.2"/>
    <ellipse id="Ellipse_450" data-name="Ellipse 450" cx="1.602" cy="0.796" rx="1.602" ry="0.796" transform="translate(655.379 148.037)" fill="#fff" stroke="#000" stroke-linejoin="round" stroke-width="0.2"/>
    <ellipse id="Ellipse_451" data-name="Ellipse 451" cx="3.623" cy="6.23" rx="3.623" ry="6.23" transform="translate(322.471 278.108) rotate(-60)" fill="#fff" stroke="#000" stroke-linejoin="round" stroke-width="0.2"/>
    <ellipse id="Ellipse_452" data-name="Ellipse 452" cx="2.857" cy="4.079" rx="2.857" ry="4.079" transform="translate(241.46 267.962) rotate(-75.944)" fill="#fff" stroke="#000" stroke-linejoin="round" stroke-width="0.2"/>
    <ellipse id="Ellipse_453" data-name="Ellipse 453" cx="6.592" cy="4.243" rx="6.592" ry="4.243" transform="translate(225.134 254.555)" fill="#fff" stroke="#000" stroke-linejoin="round" stroke-width="0.2"/>
    <path id="Path_2429" data-name="Path 2429" d="M245.862,375.08a4.2,4.2,0,0,0-.379-1.146,1.965,1.965,0,0,0-.634-.737,2.633,2.633,0,0,0-1.5-.51c-1.158.008-2.362.957-4.074,2.854-.733.813-1.559,1.8-2.515,2.962s-2.039,2.5-3.287,4.01a87.572,87.572,0,0,0-5.625,7.923c-1.016,1.575-2.057,3.247-3.1,4.971-2.621,4.311-5.28,8.951-7.666,13.226-.955,1.71-1.866,3.362-2.713,4.911-1.272,2.322-2.4,4.413-3.321,6.121-4.907,9.113-2.1,7.359-7.01,20.872a48.066,48.066,0,0,1-2.232,5.114c-.861,1.72-1.83,3.452-2.868,5.188s-2.145,3.48-3.285,5.222c-1.712,2.613-3.5,5.224-5.24,7.815-4.06,6.039-7.865,11.957-9.858,17.476a68.774,68.774,0,0,0-3.159,13.163c-.209,1.427-.377,2.808-.512,4.116-.108,1.038-.195,2.031-.263,2.962-.138,1.866-.211,3.492-.245,4.77,11.132,2.139,23.539,1.981,34.226,1.63a55.141,55.141,0,0,1,14.346,1.354,60.621,60.621,0,0,0,3.173-5.977c.668-1.425,1.307-2.9,1.915-4.387.153-.373.291-.749.44-1.124.259-.654.522-1.311.769-1.967,1.164-3.093,2.184-6.169,3.03-8.955.566-1.856,1.054-3.584,1.455-5.1s.718-2.824.939-3.837c.094-.441.185-.909.267-1.4a129.821,129.821,0,0,0,1.146-12.945c.313-5.541.606-11.339,1.292-15.9.171-1.14.327-2.248.468-3.331a79.248,79.248,0,0,0,.769-12.254,63.276,63.276,0,0,0-.933-9.366,35.114,35.114,0,0,1-.411-3.514c-.088-1.234-.126-2.521-.12-3.841,0-.658.016-1.327.038-2,.046-1.345.132-2.711.251-4.078s.275-2.73.456-4.07c.363-2.683.839-5.272,1.377-7.592.135-.58.273-1.144.416-1.686.285-1.088.582-2.1.887-3.006a80.1,80.1,0,0,0,3.081-11.947A18.555,18.555,0,0,0,245.862,375.08Z" transform="translate(-39.409 39.237)" fill="#ebebf2" stroke="#000" stroke-linejoin="round" stroke-width="0.2"/>
    <path id="Path_2430" data-name="Path 2430" d="M422.947,503.725a59.969,59.969,0,0,0-4.124-7.211c-9.374-14.5-28.637-37.628-33.53-45.909-4.772-8.074-11.5-30.417-17.96-44.279-.245-.528-.49-1.026-.735-1.527a11.24,11.24,0,0,1-.905.863c-6.6,5.906-14.307-2.442-22.6-13.76-9.346-12.758-11.793.253-15.281,1.856-5.483,2.521-12.616-9.17-16.108-21.508s-7.685-20.489-11.983-20.489-8.505,8.847-12.7,20.954-10.243,11.873-14.514,5.355-3.412-18.161-16.684-17.928c-8.56.151-16.519,4.748-21.1,8a42.826,42.826,0,0,0-2.254,6.035c-2.334,8.182-9.441,23.355-17.5,36.2a102.473,102.473,0,0,1-11.807,15.829c-11.975,12.533-9.352,17.458-25.562,44.267-8.088,13.376-11.985,23.182-13.86,29.65a18.158,18.158,0,0,0-.694,4.821,17.669,17.669,0,0,0,6.619,14.153c5.455,4.335,12.5,6.872,20.13,8.337.034-1.278.106-2.9.245-4.77.068-.931.155-1.925.263-2.962.134-1.309.3-2.689.512-4.116a68.775,68.775,0,0,1,3.159-13.164c1.993-5.519,5.8-11.438,9.858-17.476,1.74-2.591,3.528-5.2,5.24-7.815,1.14-1.742,2.248-3.484,3.285-5.222s2.007-3.468,2.868-5.188a48.063,48.063,0,0,0,2.232-5.114c4.907-13.513,2.1-11.759,7.01-20.872.919-1.708,2.049-3.8,3.321-6.121.847-1.549,1.758-3.2,2.713-4.911,2.386-4.275,5.045-8.915,7.667-13.226,1.048-1.724,2.089-3.4,3.1-4.971a87.564,87.564,0,0,1,5.625-7.923c1.248-1.511,2.332-2.848,3.287-4.01s1.78-2.149,2.515-2.962c1.712-1.9,2.916-2.846,4.074-2.854a2.633,2.633,0,0,1,1.5.51,1.966,1.966,0,0,1,.634.737,4.194,4.194,0,0,1,.379,1.146,18.556,18.556,0,0,1-.215,5.983,80.1,80.1,0,0,1-3.081,11.947c-.305.909-.6,1.919-.887,3.006-.142.542-.281,1.106-.415,1.686-.538,2.32-1.013,4.909-1.377,7.592-.181,1.341-.335,2.705-.456,4.07s-.2,2.733-.251,4.078c-.022.672-.036,1.341-.038,2-.006,1.321.032,2.607.12,3.841a35.108,35.108,0,0,0,.411,3.514,63.29,63.29,0,0,1,.933,9.366,79.247,79.247,0,0,1-.769,12.254c-.14,1.084-.3,2.192-.468,3.332-.686,4.566-.979,10.364-1.292,15.9a129.822,129.822,0,0,1-1.146,12.945c-.082.494-.173.961-.267,1.4-.221,1.014-.538,2.32-.939,3.837s-.889,3.245-1.455,5.1c-.847,2.786-1.866,5.862-3.031,8.955-.247.656-.51,1.313-.769,1.967-.148.375-.287.751-.439,1.124-.608,1.489-1.246,2.962-1.915,4.387a60.649,60.649,0,0,1-3.173,5.977c13.246,3.069,21.281,10.364,26.786,12.85,7.263,3.277,14.59,5.826,29.207-4.008s32.729-6.555,55.674-6.555c11.255,0,24.346-.44,36.271-1.23a14.873,14.873,0,0,1-.377-1.459,33.633,33.633,0,0,1-.558-5.17c-.084-1.889-.1-3.926-.149-6.039-.03-1.409-.072-2.854-.156-4.313s-.209-2.934-.4-4.405q-.145-1.1-.345-2.2a30.1,30.1,0,0,0-2.013-6.7c-.259-.586-.53-1.17-.837-1.738-2.487-4.592-4.532-9.206-6.428-13.615-.791-1.836-1.557-3.639-2.318-5.389s-1.519-3.448-2.294-5.078a65.769,65.769,0,0,0-3.677-6.816q-.656-1.042-1.355-2.011c-1.28-1.774-2.739-4.028-4.168-6.476-.476-.817-.947-1.656-1.409-2.5-.369-.68-.73-1.369-1.08-2.059-.7-1.379-1.357-2.766-1.935-4.12-1.445-3.386-2.408-6.561-2.388-8.865a4.593,4.593,0,0,1,.528-2.3,2.572,2.572,0,0,1,.678-.761,2.135,2.135,0,0,1,1.292-.478,3.432,3.432,0,0,1,2.408,1.652c.265.341.532.725.8,1.146s.548.875.829,1.361c.562.967,1.152,2.047,1.786,3.173s1.312,2.3,2.057,3.45c.558.865,1.152,1.718,1.79,2.535q.319.409.652.8a16,16,0,0,0,5.553,4.4,33.313,33.313,0,0,1,10.641,8.108,97.144,97.144,0,0,1,8.893,11.532c3.1,4.574,6.392,9.886,10.059,15.943,1.072,1.774,2.073,3.486,3.022,5.156,6.2,10.91,9.73,19.572,10.426,25.6a14.787,14.787,0,0,1-.048,4.251c.176-.038.363-.076.534-.114C429.066,525.061,428.55,516.051,422.947,503.725ZM284.376,444.386c-1.987,3.179-2.583,3.851-2.782,9.077s-1.192,10.988-4.57,10.591-6.157-10.729-3.376-21.853,7.681-27.672,11.5-27.348C288.783,415.159,286.363,441.207,284.376,444.386Zm33.61,78.266c-3.281,2.019-4.168-5.031-5.5-12.509a53.355,53.355,0,0,0-2.5-10.021c-3.538-8.752-6.9-14.524-5.87-24.766s-1.646-16.981,1-17.789c2.924-.893,2.633,6.8,5.24,10.9s6.974,7.074,5.814,24.206a57.593,57.593,0,0,0,1.475,16.808C319.194,516.469,320.928,520.842,317.986,522.652Zm7.056-65.867c-5.477,3.012-11.839-18.518-15.672-27.007s-6.519-38.832-1.553-39.529c6.023-.843,7.367,16.421,12.022,30.935S330.519,453.772,325.042,456.785Zm16.15-33.138c-2.78-3.1-6.356-11.245-4.568-13.629,2.445-3.261,9.138,3.179,9.138,9.932S343.974,426.745,341.192,423.646Z" transform="translate(-52.831 18.167)" fill="#bad5dd" stroke="#000" stroke-linejoin="round" stroke-width="0.2"/>
    <path id="Path_2431" data-name="Path 2431" d="M327.141,433.491c-.907-1.307-1.764-2.641-2.575-3.984-6.009-9.948-9.411-20.519-10.2-26.042a14.329,14.329,0,0,0-.379-1.794c-1.371-4.957-5.084-6.874-8.81-4.04-6.268,4.768-10.723,1.716-12.842-1.961-1.5-2.593-2.6-6.045-3.374-10.944-.985-6.262-1.425-14.892-1.425-27.134,0-20.545-2.77-33.347-12.981-38.419a19.833,19.833,0,0,0-1.983-.861,17.778,17.778,0,0,0-16.106,1.708c-4.592,2.76-8.716,7.187-12.575,12.01-7.719,9.645-18.909,28.822-27.118,42.543-1.455,2.43-2.826,4.71-4.056,6.713-2.149,3.5-5.766,7.97-9.158,13.19a66.184,66.184,0,0,0-4.8,8.55c4.586-3.251,12.545-7.849,21.1-8,13.272-.233,12.411,11.409,16.684,17.928s10.322,6.751,14.514-5.355,8.4-20.954,12.7-20.954,8.491,8.148,11.983,20.489,10.625,24.029,16.108,21.508c3.488-1.6,5.935-14.614,15.281-1.856,8.291,11.317,15.993,19.666,22.6,13.759.229-.389.466-.8.71-1.25A47.059,47.059,0,0,0,327.141,433.491Z" transform="translate(-16.868 -16.716)" fill="#ebebf2" stroke="#000" stroke-linejoin="round" stroke-width="0.2"/>
    <path id="Path_2432" data-name="Path 2432" d="M236.538,370.954c-4.965.7-2.28,31.039,1.553,39.528s10.2,30.02,15.672,27.007-.548-21.087-5.2-35.6S242.561,370.111,236.538,370.954Z" transform="translate(18.449 37.462)" fill="#ebebf2" stroke="#000" stroke-linejoin="round" stroke-width="0.2"/>
    <path id="Path_2433" data-name="Path 2433" d="M249.776,381.227c-1.788,2.384,1.788,10.528,4.568,13.629s4.57,3.059,4.57-3.7S252.221,377.966,249.776,381.227Z" transform="translate(34.018 46.956)" fill="#ebebf2" stroke="#000" stroke-linejoin="round" stroke-width="0.2"/>
    <path id="Path_2434" data-name="Path 2434" d="M230.227,383.2c-3.819-.323-8.72,16.222-11.5,27.348s0,21.456,3.376,21.853,4.371-5.365,4.57-10.591.795-5.9,2.782-9.077S233.861,383.507,230.227,383.2Z" transform="translate(2.091 49.818)" fill="#ebebf2" stroke="#000" stroke-linejoin="round" stroke-width="0.2"/>
    <path id="Path_2435" data-name="Path 2435" d="M246.97,456.433a57.594,57.594,0,0,1-1.475-16.808c1.16-17.131-3.207-20.109-5.814-24.206s-2.316-11.795-5.24-10.9c-2.647.809.026,7.55-1,17.789s2.332,16.013,5.87,24.766a53.356,53.356,0,0,1,2.5,10.021c1.333,7.478,2.22,14.528,5.5,12.509C250.257,467.792,248.523,463.419,246.97,456.433Z" transform="translate(17.84 71.216)" fill="#ebebf2" stroke="#000" stroke-linejoin="round" stroke-width="0.2"/>
    <path id="Path_2436" data-name="Path 2436" d="M319.818,480.078c-.7-6.033-4.227-14.695-10.426-25.6-.949-1.67-1.951-3.382-3.023-5.156-3.667-6.057-6.962-11.369-10.059-15.943a97.1,97.1,0,0,0-8.893-11.532,33.309,33.309,0,0,0-10.641-8.108,16,16,0,0,1-5.553-4.4q-.334-.394-.652-.8c-.638-.817-1.232-1.67-1.79-2.535-.745-1.154-1.423-2.326-2.057-3.45s-1.224-2.206-1.786-3.173c-.281-.486-.558-.941-.829-1.361s-.538-.8-.8-1.146a3.432,3.432,0,0,0-2.408-1.652,2.135,2.135,0,0,0-1.292.478,2.57,2.57,0,0,0-.678.761,4.591,4.591,0,0,0-.528,2.3c-.02,2.3.943,5.479,2.388,8.865.578,1.355,1.234,2.742,1.935,4.12.349.69.71,1.379,1.08,2.059.462.849.933,1.688,1.409,2.5,1.429,2.448,2.888,4.7,4.168,6.476q.7.969,1.355,2.011a65.75,65.75,0,0,1,3.677,6.816c.775,1.63,1.533,3.327,2.294,5.077s1.527,3.552,2.318,5.389c1.9,4.409,3.942,9.023,6.428,13.615.307.568.578,1.152.837,1.738a30.1,30.1,0,0,1,2.013,6.7q.2,1.1.345,2.2c.195,1.471.319,2.946.4,4.405s.126,2.9.156,4.313c.046,2.113.064,4.15.149,6.039a33.638,33.638,0,0,0,.558,5.17,14.9,14.9,0,0,0,.377,1.459c12.064-.8,22.921-1.959,29.48-3.39A14.787,14.787,0,0,0,319.818,480.078Z" transform="translate(43.185 61.927)" fill="#ebebf2" stroke="#000" stroke-linejoin="round" stroke-width="0.2"/>
    <g id="Group_671" data-name="Group 671" transform="translate(346.783 494.289)">
      <path id="Path_2437" data-name="Path 2437" d="M385.569,450.227c4.8-17.687-13.149-15.506-13.149-15.506C371.914,414.688,354.2,421.6,354.2,421.6c-2.559-10.793-15.425-8.75-17.805-4.16-11.309-6.884-22.488,2.535-20.154,10.233-24.188,4.233-17.966,23.889-17.966,23.889s-7.845-1.114-12.146,4.409-1.519,14.215-1.519,14.215-4.556,2.531-3.542,6.581,2.784,5.059,49.6,5.059h60.481a9.319,9.319,0,0,0,8.381-4.807c1.425-2.784,1.108-6.326-5.852-9.364C393.675,467.659,398.391,455.061,385.569,450.227Z" transform="translate(-280.921 -413.727)" fill="#1789a0" stroke="#000" stroke-linejoin="round" stroke-width="0.2"/>
      <path id="Path_2438" data-name="Path 2438" d="M297.216,444.512s-1.893-5.18,1.343-7.088c3.62-2.137,7.444,3.149,7.444,3.149s-.445-9.105,8.443-4.582" transform="translate(-265.066 -392.579)" fill="none" stroke="#000" stroke-linejoin="round" stroke-width="0.2"/>
      <path id="Path_2439" data-name="Path 2439" d="M312.663,427.736s5.06-3.622,7.707-1.319c2.577,2.242-.69,7.147-.69,7.147s8.475-1.212,5.35,6.836" transform="translate(-248.958 -401.721)" fill="none" stroke="#000" stroke-linejoin="round" stroke-width="0.2"/>
    </g>
  </g>
</svg>
