<svg id="圖層_1" data-name="圖層 1" xmlns="http://www.w3.org/2000/svg" viewBox="0 0 541.17 305.8"><defs><style>.cls-1,.cls-8{fill:#fff;}.cls-2{opacity:0.32;}.cls-3{fill:#8dccc3;}.cls-10,.cls-11,.cls-3,.cls-4,.cls-5,.cls-6,.cls-7,.cls-8{stroke:#000;stroke-linejoin:round;stroke-width:0.23px;}.cls-4{fill:#006781;}.cls-5{fill:#1789a0;}.cls-6{fill:#ebebf2;}.cls-7{fill:#bad5dd;}.cls-10,.cls-9{fill:none;}.cls-11{fill:#ffb829;}</style></defs><title>04</title><path class="cls-1" d="M517.24,207.84c-5.41-4.4-19-7.34-32.8-10.79-2.56-4.53-10.89-8.17-21.35-18.38a116.17,116.17,0,0,1-16.47-20.89c-5.2-8.16-9.3-16-12.53-21.59-6.07-10.45-15.51-12.47-21.58-11.8S404.76,123,401.05,116s-6.68-16-15.84-16.86a10.25,10.25,0,0,0-7.4,2.65c-1.73,0-3.46,0-4.9,0L377,94.6a11.77,11.77,0,0,0,5.1.18c.57.3,4.69,2.29,7-2.1,0,0-5.06-2.28-7.06,2L377.3,94,383,84c5.46-.07,5.46-6.19,5.46-6.19C382.39,79.1,383,84,383,84h0a27.63,27.63,0,0,0-8.56,9.68h0a30.6,30.6,0,0,0-3,8c-1.18-.14-2.31-.23-3.42-.27l4.92-18.73a10.29,10.29,0,0,0,2.67-1.2c.28.11,3.44,1.3,5-2.71,0,0-4.24-.94-5,2.67l-2.53.79L376.77,68c.47,0,6,.54,5.58-7.11,0,0-6.93,1.06-5.63,7.1h0c-.45.6-4.27,5.9-6.85,15.16h0a66,66,0,0,0-2.37,18.19c-.63,0-1.26,0-1.87,0a20.94,20.94,0,0,1-1.85-8c0-6.48-1.43-12.36-2.33-14.32h0a2.92,2.92,0,0,0-.9-1.94c-2.43-2.56-4.45-3.16-8.7-3.16-3.67,0-13.2,2.1-17.43.85l-.32-.1-.1,0a3.22,3.22,0,0,1-1.16-.71c-1-1-2.75-1.65-4.87-2a20.12,20.12,0,0,1,1.43-2.39,21.9,21.9,0,0,1,1.87-2.11c8.12,0,17.46-.16,19.81-.16,3.68,0,14.45,1.13,14.05-2.28s-7.5-3.31-7.5-3.31,2-3.43-1.5-6.68c-3.68-3.39-9.66-1-9.66-1A14.07,14.07,0,0,0,334.1,46.9c-1.62-3.65-8.79-2.34-8.79-2.34,4.68-9.45,1.58-17.38-7-18.4A12.48,12.48,0,0,0,306,31.91c-17.81-3.2-15,17.38-15,17.38-1.28-.64-7.53-.66-7,4.3.42,4.23,8.65,3.61,17.4,2.64,0,.27,0,.54-.07.81a49.82,49.82,0,0,1-3.45,12.85c-5.3-2.27-9.24-1.32-14-4.6-6.72-4.66-6-14.52-10.14-20.72-4.84-7.2-12.4-7.08-17.92,1.58-3.71,5.82-12.75,22.43-17.05,33.74a89.28,89.28,0,0,0-10.2-1.58c-.29-.87-.58-1.87-.86-3-1.16-4.88-2.84-7.05-4.36-10.83a30.68,30.68,0,0,1-1-2.92c-1.74-5.84-1.5-15.76-2.34-20.17h0c-.36-1.94-2.32-3.36-5.08-3.36-4.61,0-13.72.23-19.07.09a8.34,8.34,0,0,1-.32-2.39.38.38,0,0,0,0-.1,2.09,2.09,0,0,1,0-.25h0a2.7,2.7,0,0,0-.41-1.3c-1.34-2.25-6.5-3.92-12-6.67s-14.25-2.59-18.59-2.25c-4.12.31-16.81,2.69-17.13,7.5h0a10.38,10.38,0,0,0,.09,4c-1.81.59-7,2.58-7.3,5.9h0a88.47,88.47,0,0,0-.75,10.33,60.9,60.9,0,0,1-3.21,17.59c-1.65,4.52-3.39,9.22-4.09,14.42-2.08.79-7.38,3.27-7.41,8.25h0a249.92,249.92,0,0,0-3.73,29.13,4.23,4.23,0,0,1,0-.63s-13.88,1.81-13.85,9.42a5.82,5.82,0,0,0,.23,1.59h0l.06.32c-9,3.56-24.34,10-31.55,14.94a57.46,57.46,0,0,0,8,12.89,1.74,1.74,0,0,0,3,0l5-8.4,1.64,2.9a1.74,1.74,0,0,0,3,.07l8.12-12.8,1,1.57a1.74,1.74,0,0,0,3-.14l1.47-2.85c1.57,3.35,3.92,6.88,7.35,8.9,1.24.74,2.4,1.35,3.5,1.89a10.81,10.81,0,0,0-1.56.78c-8.31.55-18.67,1.75-22.93,4.33-7.61,4.61-9.41,7.41-14.22,9.21-3.54,1.33-7.61,2.66-8.4,4.94h0v0a2.47,2.47,0,0,0-.13.82c-2.42,15.88-6.75,21.2-10.09,29.46-2.71,6.68-7.8,12.48-11,20.8a63.61,63.61,0,0,0-13.34,4.42,63.55,63.55,0,0,0,.42-11l3-.19-2.52,0L47.74,212l-4.12-5.3-1.19,2.73A2.24,2.24,0,0,0,40.3,209c-1.13.26-1.91,1-1.75,1.75s1.21,1.06,2.34.79a3.06,3.06,0,0,0,.72-.26L39.8,215.4h-.08l.32-3.8a21.45,21.45,0,0,0-.38,3.79h-.07l-2.71-5.72v5.69h-.79l.79.06v12.34c-1,.44-1.93.91-3,1.43a84.86,84.86,0,0,1-10.52,4.39l-1.08-29.68a1.26,1.26,0,0,0,.3.48c.66.59,1.95.21,2.89-.84s1.16-2.38.5-3-2-.21-2.89.85a3.4,3.4,0,0,0-.83,1.59h0l-6.35,2.57s5.4,10.45,7.33,28.06c-10.38,3.57-16.19,3.9-22,15-7.53,14.43,20,10.67,33.46,28.24s50.65,22,79.53,26.36,65.9-6.27,94.15-6.27,104.82,3.14,151.9-10.67,64-8.79,79.72-18.83,32-7.54,57.12-14.44,42.68-14.44,43.93-23.85S527.28,216,517.24,207.84ZM328.31,67.37a1,1,0,0,1-.24,0l-.06,0ZM96.7,211.65l1.64-2Zm5.66-4.64a.87.87,0,0,1,.32.36A.87.87,0,0,0,102.36,207ZM140.85,70.49h0a.67.67,0,0,1,.45.29A.67.67,0,0,0,140.85,70.49Zm34,66.69q-.09-.5-.18-1.05.09.56.18,1.05Zm91.54-26h0l.51-.54Zm24.88,13.57c.89,1.21,1.79,2.37,2.68,3.43C293.06,127.12,292.16,126,291.27,124.75Zm11.72,9a5.62,5.62,0,0,1-2.53-.27,5.62,5.62,0,0,0,2.53.27,6.18,6.18,0,0,0,1.62-.43A6.18,6.18,0,0,1,303,133.72Zm13.75-18.12c-.31-.36-.62-.71-.93-1,.31.33.62.68.93,1Zm8.73-44a76.49,76.49,0,0,0-9.24,0c-2.94.13-9-.5-14.2-.91.22-4,1.18-11.09,5.12-15.1,1.65-.17,3.27-.32,4.79-.42,2.28-.14,5-.29,7.73-.56a13.67,13.67,0,0,0-1.71,5c-2.73-.4-7.75,1.43-7.37,4.78.29,2.47,3.14,2.59,9.55,2.89,1.23.06,3,.1,5.09.11.14.41.29.81.42,1.2A4.72,4.72,0,0,1,325.47,71.57Z"/><path class="cls-1" d="M70,60.53a2.4,2.4,0,0,0,4,.59L75.85,59l-9.11-9.16a.77.77,0,0,0-1.25.86Z"/><path class="cls-1" d="M82.4,60.77,87,50.34a.77.77,0,0,0-1.25-.86L75.85,59l2.68,2.55A2.4,2.4,0,0,0,82.4,60.77Z"/><path class="cls-1" d="M75.39,42.56l.48.36.07,0a5,5,0,0,0,1.85-6l-1.66-4.38a.28.28,0,0,0-.52,0L74,36.92A5,5,0,0,0,75.39,42.56Z"/><path class="cls-1" d="M63.5,76.7a1,1,0,0,0,1.68.15l.58-.76a.52.52,0,0,1,.89.09l3.49,7.57a1,1,0,0,0,1.54.36,11.78,11.78,0,0,0,4.19-7.42c-3.25-4.44-17.39-11.44-17.39-11.44a.4.4,0,0,0-.57.51Z"/><path class="cls-1" d="M80.07,84.11a1,1,0,0,0,1.53-.36l3.49-7.57a.52.52,0,0,1,.89-.09l.59.76a1,1,0,0,0,1.67-.15l5.59-10.94a.4.4,0,0,0-.57-.51S81.63,70.93,75.87,76.69A11.77,11.77,0,0,0,80.07,84.11Z"/><path class="cls-1" d="M50.31,117.89a1.4,1.4,0,0,0,2.39.11l1-1.45,6.83,11.7a1.41,1.41,0,0,0,2.29-.05l2.66-3.94,2.45,8.87a.94.94,0,0,0,1.51.24c2.13-2.59,5.41-7.87,6.44-11.69-5.12-3.39-29.4-13-29.4-13a.58.58,0,0,0-.74.82Z"/><path class="cls-1" d="M36.56,131.24l6.55,12.67a1.75,1.75,0,0,0,3,.14l1-1.57,8.12,12.8a1.74,1.74,0,0,0,3-.07l1.64-2.9,5,8.4a1.74,1.74,0,0,0,3,0,57.06,57.06,0,0,0,8-12.89c-10.51-7.2-38.38-17.59-38.38-17.59A.72.72,0,0,0,36.56,131.24Z"/><path class="cls-1" d="M83.82,133.13l2.46-8.87,2.65,3.94a1.41,1.41,0,0,0,2.29.05l6.84-11.7L99,118a1.4,1.4,0,0,0,2.39-.11l4.59-8.37a.59.59,0,0,0-.75-.82s-24.28,9.59-29.4,13c1,3.82,4.31,9.1,6.45,11.69A.93.93,0,0,0,83.82,133.13Z"/><path class="cls-1" d="M60.8,100.23a1.85,1.85,0,0,0,3.2.14l1-1.57,3.67,9.07a1.85,1.85,0,0,0,3.39.08,62.64,62.64,0,0,0,3.8-9.78,61.57,61.57,0,0,0,3.8,9.78,1.84,1.84,0,0,0,3.38-.08l3.68-9.07,1,1.57a1.84,1.84,0,0,0,3.19-.14l7-13.39a.59.59,0,0,0-.79-.8s-13.5,5.54-21.23,12.07C68.13,91.58,54.63,86,54.63,86a.59.59,0,0,0-.79.8Z"/><path class="cls-1" d="M236.74,10.81a.8.8,0,0,0,1.33.2l.61-.7-3-3a.25.25,0,0,0-.41.28Z"/><path class="cls-1" d="M240.85,10.89l1.51-3.45a.25.25,0,0,0-.41-.28l-3.27,3.15.89.84A.8.8,0,0,0,240.85,10.89Z"/><path class="cls-1" d="M238.69,5l0,0a1.65,1.65,0,0,0,.61-2l-.55-1.45a.09.09,0,0,0-.17,0L238.06,3a1.65,1.65,0,0,0,.47,1.86Z"/><path class="cls-1" d="M234.6,16.16a.33.33,0,0,0,.56.05l.19-.25a.17.17,0,0,1,.29,0l1.16,2.5a.32.32,0,0,0,.5.12,3.86,3.86,0,0,0,1.39-2.45c-1.07-1.47-5.75-3.79-5.75-3.79a.13.13,0,0,0-.19.17Z"/><path class="cls-1" d="M240.08,18.61a.33.33,0,0,0,.51-.12l1.15-2.5a.17.17,0,0,1,.3,0l.19.25a.32.32,0,0,0,.55-.05l1.85-3.62a.13.13,0,0,0-.19-.17,26.79,26.79,0,0,0-5.75,3.79A3.92,3.92,0,0,0,240.08,18.61Z"/><path class="cls-1" d="M230.24,29.78a.46.46,0,0,0,.79,0l.33-.48,2.26,3.87a.46.46,0,0,0,.75,0l.88-1.3.81,2.93a.31.31,0,0,0,.5.08A12.44,12.44,0,0,0,238.69,31C237,29.91,229,26.74,229,26.74a.2.2,0,0,0-.25.27Z"/><path class="cls-1" d="M227.86,38.39a.58.58,0,0,0,1,0l.33-.52,2.68,4.24a.58.58,0,0,0,1,0l.54-.95,1.65,2.77a.58.58,0,0,0,1,0,18.9,18.9,0,0,0,2.65-4.26C235.22,37.31,226,33.87,226,33.87a.24.24,0,0,0-.31.33Z"/><path class="cls-1" d="M242.33,43.94,244,41.17l.54.95a.58.58,0,0,0,1,0l2.68-4.24.33.52a.58.58,0,0,0,1,0l2.16-4.19a.24.24,0,0,0-.3-.33s-9.22,3.44-12.7,5.82A18.75,18.75,0,0,0,241.35,44,.57.57,0,0,0,242.33,43.94Z"/><path class="cls-1" d="M241.32,34.82l.81-2.93.88,1.3a.47.47,0,0,0,.76,0L246,29.34l.33.48a.46.46,0,0,0,.79,0L248.66,27a.19.19,0,0,0-.24-.27s-8,3.17-9.73,4.29a12.64,12.64,0,0,0,2.13,3.87A.31.31,0,0,0,241.32,34.82Z"/><path class="cls-1" d="M233.71,23.94a.61.61,0,0,0,1.06,0l.33-.52,1.21,3a.61.61,0,0,0,1.12,0,19.87,19.87,0,0,0,1.26-3.23,20.25,20.25,0,0,0,1.25,3.23.61.61,0,0,0,1.12,0l1.22-3,.33.52a.61.61,0,0,0,1.06,0l2.3-4.43a.19.19,0,0,0-.26-.26,32.28,32.28,0,0,0-7,4,32.28,32.28,0,0,0-7-4,.19.19,0,0,0-.26.26Z"/><path class="cls-1" d="M16.83,197s0,0,0,0c.09-.88-1-1.71-2.37-1.85h-.06l-.5-3.47c1.24-.31,2.1-1.14,2-1.95s-1.4-1.37-2.79-1.13-2.38,1.15-2.23,2,1.4,1.37,2.79,1.13l.25-.06-.49,3.5c-.89.16-1.56.64-1.63,1.28s.45,1.2,1.23,1.55l-.64,4.61-6.23-5.18,1.76,5.51a1.47,1.47,0,0,0-.42-.24c-.85-.22-1.84.69-2.21,2s0,2.65.89,2.87,1.83-.68,2.2-2a3.88,3.88,0,0,0,.12-.8v0s1.72.2,3.52.39l-.86,6.11,4.8-5.72,4.57-10.3Z"/><path class="cls-1" d="M23.53,194c.17-.95-.9-1.95-2.39-2.21s-2.85.29-3,1.24.9,2,2.39,2.22S23.36,195,23.53,194Z"/><path class="cls-1" d="M8.65,209.6c-.81.36-1,1.69-.42,3s1.69,2,2.49,1.67,1-1.69.42-3S9.45,209.24,8.65,209.6Z"/><path class="cls-1" d="M5.6,194.45c-.81-.33-1.9.46-2.43,1.76s-.29,2.63.52,3,1.91-.46,2.44-1.76S6.42,194.78,5.6,194.45Z"/><path class="cls-1" d="M12.11,218.35s2.2,10.63,10.82,12.87C22.93,231.22,21.58,223,12.11,218.35Z"/><path class="cls-1" d="M43.18,214.27c-.62.37-.64,1.48,0,2.47s1.58,1.5,2.2,1.13.64-1.48.05-2.47S43.8,213.9,43.18,214.27Z"/><path class="cls-1" d="M49.42,213.76c.71-.13,1.11-1.17.88-2.3s-1-2-1.68-1.81-1.1,1.17-.88,2.31S48.72,213.9,49.42,213.76Z"/><path class="cls-1" d="M45.83,205.54c.06-.72-.82-1.39-2-1.49s-2.14.4-2.2,1.12.82,1.38,2,1.49S45.76,206.26,45.83,205.54Z"/><path class="cls-1" d="M38,207.47c-.37-.62-1.48-.64-2.47,0S34,209,34.41,209.62s1.47.64,2.47,0S38.38,208.09,38,207.47Z"/><path class="cls-1" d="M34.34,213.6c-.7.16-1.06,1.21-.79,2.34s1,1.91,1.75,1.74,1.06-1.21.79-2.33S35.05,213.44,34.34,213.6Z"/><path class="cls-1" d="M372.37,76.06l-1.55-7.36S370.43,74.14,372.37,76.06Z"/><path class="cls-1" d="M370.85,68.7s2.48-3.51-1.89-6.82C369,61.88,366.37,67.37,370.85,68.7Z"/><g class="cls-2"><path class="cls-3" d="M64.68,220.39c-7.79,1.79-13.18,0-30.76,8.79s-25.1,5-32.64,19.46,20,10.67,33.46,28.24,50.65,22,79.53,26.36,65.9-6.27,94.15-6.27,104.82,3.14,151.9-10.67,64-8.79,79.72-18.83,32-7.54,57.12-14.44,42.68-14.44,43.93-23.85S527.28,216,517.24,207.84s-48.33-11.3-63.39-22-92.9-27-143.12-9.42S221,181.47,173.27,194,87.12,215.24,64.68,220.39Z"/><line class="cls-4" x1="75.87" y1="42.6" x2="75.87" y2="240.49"/><path class="cls-4" d="M66.74,49.84,75.85,59,74,61.12a2.4,2.4,0,0,1-4-.59L65.49,50.7A.77.77,0,0,1,66.74,49.84Z"/><path class="cls-4" d="M85.71,49.48,75.85,59l2.68,2.55a2.4,2.4,0,0,0,3.87-.78L87,50.34A.77.77,0,0,0,85.71,49.48Z"/><path class="cls-4" d="M75.61,32.54,74,36.92a5,5,0,0,0,1.44,5.64l.48.36.07,0a5,5,0,0,0,1.85-6l-1.66-4.38A.28.28,0,0,0,75.61,32.54Z"/><path class="cls-4" d="M58.48,65.25s14.14,7,17.39,11.44a11.78,11.78,0,0,1-4.19,7.42,1,1,0,0,1-1.54-.36l-3.49-7.57a.52.52,0,0,0-.89-.09l-.58.76a1,1,0,0,1-1.68-.15L57.91,65.76A.4.4,0,0,1,58.48,65.25Z"/><path class="cls-4" d="M93.26,65.25S81.63,70.93,75.87,76.69a11.77,11.77,0,0,0,4.2,7.42,1,1,0,0,0,1.53-.36l3.49-7.57a.52.52,0,0,1,.89-.09l.59.76a1,1,0,0,0,1.67-.15l5.59-10.94A.4.4,0,0,0,93.26,65.25Z"/><path class="cls-4" d="M46.47,108.7s24.28,9.59,29.4,13c-1,3.82-4.31,9.1-6.44,11.69a.94.94,0,0,1-1.51-.24l-2.45-8.87-2.66,3.94a1.41,1.41,0,0,1-2.29.05l-6.83-11.7-1,1.45a1.4,1.4,0,0,1-2.39-.11l-4.58-8.37A.58.58,0,0,1,46.47,108.7Z"/><path class="cls-4" d="M37.49,130.26s27.87,10.39,38.38,17.59a57.06,57.06,0,0,1-8,12.89,1.74,1.74,0,0,1-3,0l-5-8.4-1.64,2.9a1.74,1.74,0,0,1-3,.07l-8.12-12.8-1,1.57a1.75,1.75,0,0,1-3-.14l-6.55-12.67A.72.72,0,0,1,37.49,130.26Z"/><path class="cls-4" d="M114.26,130.26s-27.88,10.39-38.39,17.59a57.46,57.46,0,0,0,8,12.89,1.74,1.74,0,0,0,3,0l5-8.4,1.64,2.9a1.74,1.74,0,0,0,3,.07l8.12-12.8,1,1.57a1.74,1.74,0,0,0,3-.14l6.56-12.67A.72.72,0,0,0,114.26,130.26Z"/><path class="cls-4" d="M105.27,108.7s-24.28,9.59-29.4,13c1,3.82,4.31,9.1,6.45,11.69a.93.93,0,0,0,1.5-.24l2.46-8.87,2.65,3.94a1.41,1.41,0,0,0,2.29.05l6.84-11.7L99,118a1.4,1.4,0,0,0,2.39-.11l4.59-8.37A.59.59,0,0,0,105.27,108.7Z"/><path class="cls-4" d="M54.63,86s13.51,5.54,21.24,12.08A61.15,61.15,0,0,1,72.06,108a1.85,1.85,0,0,1-3.39-.08L65,98.8l-1,1.57a1.85,1.85,0,0,1-3.2-.14l-7-13.39A.59.59,0,0,1,54.63,86Z"/><path class="cls-4" d="M97.09,86S83.58,91.58,75.85,98.12A61.15,61.15,0,0,0,79.66,108a1.84,1.84,0,0,0,3.38-.08l3.68-9.07,1,1.57a1.84,1.84,0,0,0,3.19-.14l7-13.39A.59.59,0,0,0,97.09,86Z"/><line class="cls-5" x1="238.69" y1="4.89" x2="238.69" y2="85.12"/><path class="cls-5" d="M235.67,7.28l3,3-.61.7a.8.8,0,0,1-1.33-.2l-1.48-3.25A.25.25,0,0,1,235.67,7.28Z"/><path class="cls-5" d="M242,7.16l-3.27,3.15.89.84a.8.8,0,0,0,1.28-.26l1.51-3.45A.25.25,0,0,0,242,7.16Z"/><path class="cls-5" d="M238.61,1.56,238.06,3a1.65,1.65,0,0,0,.47,1.86l.16.12,0,0a1.65,1.65,0,0,0,.61-2l-.55-1.45A.09.09,0,0,0,238.61,1.56Z"/><path class="cls-5" d="M232.94,12.37s4.68,2.32,5.75,3.79a3.86,3.86,0,0,1-1.39,2.45.32.32,0,0,1-.5-.12L235.64,16a.17.17,0,0,0-.29,0l-.19.25a.33.33,0,0,1-.56-.05l-1.85-3.62A.13.13,0,0,1,232.94,12.37Z"/><path class="cls-5" d="M244.44,12.37a26.79,26.79,0,0,0-5.75,3.79,3.92,3.92,0,0,0,1.39,2.45.33.33,0,0,0,.51-.12l1.15-2.5a.17.17,0,0,1,.3,0l.19.25a.32.32,0,0,0,.55-.05l1.85-3.62A.13.13,0,0,0,244.44,12.37Z"/><path class="cls-5" d="M229,26.74s8,3.17,9.72,4.29a12.44,12.44,0,0,1-2.13,3.87.31.31,0,0,1-.5-.08l-.81-2.93-.88,1.3a.46.46,0,0,1-.75,0l-2.26-3.87-.33.48a.46.46,0,0,1-.79,0L228.72,27A.2.2,0,0,1,229,26.74Z"/><path class="cls-5" d="M226,33.87s9.22,3.44,12.69,5.82A18.9,18.9,0,0,1,236,44a.58.58,0,0,1-1,0l-1.65-2.77-.54.95a.58.58,0,0,1-1,0l-2.68-4.24-.33.52a.58.58,0,0,1-1,0l-2.17-4.19A.24.24,0,0,1,226,33.87Z"/><path class="cls-5" d="M251.39,33.87s-9.22,3.44-12.7,5.82A18.75,18.75,0,0,0,241.35,44a.57.57,0,0,0,1,0L244,41.17l.54.95a.58.58,0,0,0,1,0l2.68-4.24.33.52a.58.58,0,0,0,1,0l2.16-4.19A.24.24,0,0,0,251.39,33.87Z"/><path class="cls-5" d="M248.42,26.74s-8,3.17-9.73,4.29a12.64,12.64,0,0,0,2.13,3.87.31.31,0,0,0,.5-.08l.81-2.93.88,1.3a.47.47,0,0,0,.76,0L246,29.34l.33.48a.46.46,0,0,0,.79,0L248.66,27A.19.19,0,0,0,248.42,26.74Z"/><path class="cls-5" d="M231.67,19.25a31.81,31.81,0,0,1,7,4,20.59,20.59,0,0,1-1.26,3.24.61.61,0,0,1-1.12,0l-1.21-3-.33.52a.61.61,0,0,1-1.06,0l-2.3-4.43A.19.19,0,0,1,231.67,19.25Z"/><path class="cls-5" d="M245.71,19.25a32,32,0,0,0-7,4,20.59,20.59,0,0,0,1.26,3.24.61.61,0,0,0,1.12,0l1.22-3,.33.52a.61.61,0,0,0,1.06,0l2.3-4.43A.19.19,0,0,0,245.71,19.25Z"/><path class="cls-6" d="M57.78,218.52c3.67-10.16,10.06-12.24,12-19.91,1.63-6.51,5.79-18.72,7-22.26A9.33,9.33,0,0,1,74.43,174a3.79,3.79,0,0,1-.73-2c-2.42,15.88-6.75,21.2-10.09,29.46-3.41,8.42-10.62,15.43-13,27.85-.05.22-.1.41-.14.62A26.93,26.93,0,0,0,57.78,218.52Z"/><path class="cls-6" d="M92.76,179.83c-.87,0-1.68,0-2.37,0s-1.27-.05-1.9-.1a29.3,29.3,0,0,1-2.51,9c-2.61,5.54-2,10.9-4.78,18a11.83,11.83,0,0,0-.41,8.37c4-6.4,7.56-14,8.72-18a21.19,21.19,0,0,1,1.12-3A32.35,32.35,0,0,1,93,189.73C91.6,186.34,92.2,182.2,92.76,179.83Z"/><path class="cls-7" d="M93,189.73c1.69-2.6,3.5-4.83,4.57-6.57.61-1,1.29-2.14,2-3.35l-6.85,0C92.2,182.2,91.6,186.34,93,189.73Z"/><path class="cls-7" d="M62.17,245c8.08-13.36,6.77-15.81,12.74-22.06A50.71,50.71,0,0,0,80.79,215a11.83,11.83,0,0,1,.41-8.37c2.83-7.1,2.17-12.46,4.78-18a29.3,29.3,0,0,0,2.51-9q-2-.13-3.93-.45a14.24,14.24,0,0,0-3.49,7.46c-.89,5.89-3.34,15.81-5.8,15.22s.53-9.15,1.08-15.12a25.24,25.24,0,0,1,2.45-9.29,13.05,13.05,0,0,1-2-1.17c-1.21,3.54-5.37,15.75-7,22.26-1.92,7.67-8.31,9.75-12,19.91a26.93,26.93,0,0,1-7.33,11.38,56.44,56.44,0,0,1-6.57,16.8A6.3,6.3,0,0,0,45,254.51c.47.43,1,.91,1.6,1.42A26.74,26.74,0,0,1,52,245.76c4.87-5.59,6.61-5.89,10.39-14.54s5.79-12.63,7.23-12.87-2.58,11.17-5.45,17.07S55,248.05,53.89,253.06a25.44,25.44,0,0,1-2.53,6.61c1.08.79,2.26,1.61,3.56,2.48a9,9,0,0,1,.34-2.4A63.62,63.62,0,0,1,62.17,245Z"/><path class="cls-6" d="M153.82,197.09a41.51,41.51,0,0,1-.5,10.09c.4.67.83,1.34,1.28,2a22.36,22.36,0,0,1,1.64,2.89,19.28,19.28,0,0,0,2.65-9.22c-.09-6,4.76-6.07,5.77-10.4a14.63,14.63,0,0,1,2.86-6.29c-3.63.29-7.36.68-12.36.82C154.42,188.4,153.48,191.39,153.82,197.09Z"/><path class="cls-6" d="M76.35,186.81c-.55,6-3.53,14.53-1.08,15.12s4.91-9.33,5.8-15.22a14.24,14.24,0,0,1,3.49-7.46,22.31,22.31,0,0,1-5.76-1.73A25.24,25.24,0,0,0,76.35,186.81Z"/><path class="cls-7" d="M189,187a83.93,83.93,0,0,0-21.5-.87,14.63,14.63,0,0,0-2.86,6.29c-1,4.33-5.86,4.42-5.77,10.4a19.28,19.28,0,0,1-2.65,9.22l.1.19c.12.25.25.5.37.76,3.22,6.91,6.57,18,8.95,22.07s12,15.65,16.7,22.87l11.14-1.43,4.13-24.24,4.88-47.17A24.73,24.73,0,0,1,189,187Z"/><path class="cls-6" d="M143.66,191.3c1.85-1.41,3.7-.46,4.39,2,.56-3.45.36-5.33,0-6.34a43.45,43.45,0,0,1-12.5-2.1,15.53,15.53,0,0,0,1.68,5.45C138.31,192.15,140.53,193.68,143.66,191.3Z"/><path class="cls-6" d="M64.2,235.42c2.87-5.9,6.88-17.3,5.45-17.07s-3.44,4.21-7.23,12.87S56.9,240.17,52,245.76a26.74,26.74,0,0,0-5.43,10.17c1.28,1.1,2.85,2.35,4.76,3.74a25.44,25.44,0,0,0,2.53-6.61C55,248.05,61.34,241.32,64.2,235.42Z"/><path class="cls-7" d="M148.05,193.31c.07.28.14.58.19.9a39,39,0,0,0,5.08,13,41.51,41.51,0,0,0,.5-10.09c-.34-5.7.6-8.69,1.34-10.12l-1.8,0c-2,0-3.74,0-5.28,0C148.41,188,148.61,189.86,148.05,193.31Z"/><path class="cls-5" d="M82.24,166.17c-3.54,1.33-7.61,2.66-8.4,4.94h0v0a2.47,2.47,0,0,0-.13.82,3.79,3.79,0,0,0,.73,2,9.33,9.33,0,0,0,2.33,2.36,13.05,13.05,0,0,0,2,1.17,22.31,22.31,0,0,0,5.76,1.73q1.91.31,3.93.45c.63.05,1.26.08,1.9.1s1.5,0,2.37,0l6.85,0c4.09-6.84,9.66-16.39,13.51-21.2a25.16,25.16,0,0,1,6.27-6c-8.31.55-18.67,1.75-22.93,4.33C88.85,161.57,87.05,164.37,82.24,166.17Z"/><path class="cls-5" d="M216,164.07l-56.61-3.51-28.16-8.41s-1.06,0-2.81.06c5.09,2.52,6.47,8.9,6.47,19.14a90.84,90.84,0,0,0,.71,13.52,43.45,43.45,0,0,0,12.5,2.1c1.54.05,3.27.07,5.28,0l1.8,0c5-.14,8.73-.53,12.36-.82A83.93,83.93,0,0,1,189,187a24.73,24.73,0,0,0,13.49-1.91c10.1-4.31,16.77-13.53,16.77-13.53Z"/><path class="cls-8" d="M92.05,169.11c.08-2.12,1.93-2.7,4.15-3a3,3,0,0,1,3.47,3.95C98.9,172.58,92,171.81,92.05,169.11Z"/><path class="cls-8" d="M149.17,181.29c.46-3.13,6.63-3.25,8.2-1.74s1.62,4.11-.66,4S148.77,184.05,149.17,181.29Z"/><path class="cls-6" d="M156.34,212.25l-.1-.19c-.12.22-.23.43-.35.62A4.47,4.47,0,0,0,156.34,212.25Z"/><ellipse class="cls-8" cx="72.95" cy="210.44" rx="1.94" ry="0.81" transform="translate(-149.53 220.82) rotate(-73.55)"/><path class="cls-7" d="M317.66,146.94c1.78-3.57,11.83,8.82,17.62,19s9.74,13.92,12.06,19.95,1.86,8.81-3.47,2.55S333,177.79,326.93,173.38,320.45,165,319.17,159,316,150.19,317.66,146.94Z"/><path class="cls-7" d="M136.59,111.51c.39,7.62-1.44,14.63.65,14.63s2.6-6.64,2.86-12.62c.18-4.12.36-7.17.45-8.67-1.47-.27-2.87-.58-4.18-.93C136.36,105.65,136.41,108.14,136.59,111.51Z"/><path class="cls-7" d="M264.75,97.26a8.21,8.21,0,0,0-.58-1.52,9.07,9.07,0,0,1-1.82,7.36c-7.49,10.48-20,12.62-45,14.18a84.07,84.07,0,0,1-11,0c.15,3.64-1.9,7.37-3.88,10.32-2.34,3.49-.78,9.36-.9,17.76s1.44,9.88,1.44,9.88,1.13,6.29-2.78,2.7S198,150.75,198,141.87s-1.45-10.56-2.57-15.73a61.21,61.21,0,0,1-1-10.91c-1-.3-2-.61-2.92-.94,0,4.29-1.2,9,.31,15.49,1.89,8.19,2.56,15.83,1,24.59-1.08,6-.38,14,.16,18.32a92,92,0,0,0,14.48-4c12-4.52,46.76.46,46.76.46S271.73,124,264.75,97.26Z"/><path class="cls-7" d="M197.69,125.06c.79,4.46,2.24,1,3.54-1.94a14.68,14.68,0,0,0,.74-6.25c-1.53-.22-2.94-.49-4.27-.8A37.53,37.53,0,0,0,197.69,125.06Z"/><path class="cls-6" d="M125.71,112.87c-2.21-.68-3.08,17.58-3.08,17.58l8.58,3.32C126.9,128.79,128.3,113.66,125.71,112.87Z"/><path class="cls-6" d="M140.1,113.52c-.26,6-.78,12.61-2.86,12.62s-.26-7-.65-14.63c-.18-3.37-.23-5.86-.22-7.59a30.34,30.34,0,0,1-4.81-1.67,38.91,38.91,0,0,0,1.43,11.3c1.12,4,1.34,13.59-.72,19.4l12.25,2s-2.48-4.23-2.22-13.33c.26-8.64,1.79-11.91,1.72-16.17-1.19-.17-2.35-.36-3.47-.56C140.46,106.35,140.28,109.4,140.1,113.52Z"/><path class="cls-6" d="M162.37,155.29l-3.29.77a32.45,32.45,0,0,1,0,8.81c-.64,5.11.38,8.89,2.09,8.76s.51-4,2.08-10.28S162.37,155.29,162.37,155.29Z"/><path class="cls-9" d="M162.37,155.29l-3.29.77a32.45,32.45,0,0,1,0,8.81c-.64,5.11.38,8.89,2.09,8.76s.51-4,2.08-10.28S162.37,155.29,162.37,155.29Z"/><path class="cls-9" d="M125.71,112.87c-2.21-.68-3.08,17.58-3.08,17.58l8.58,3.32C126.9,128.79,128.3,113.66,125.71,112.87Z"/><path class="cls-9" d="M181.8,127.45c-2.2-.06-3.19,11.18-4,19.24s.13,17.18,2.21,16.66,1.41-9.11,1.76-16.4C182.16,139.42,184.49,127.53,181.8,127.45Z"/><path class="cls-7" d="M142.83,163.93c-1.83.22-1.21,4.43-.6,7.19.91.37,1.82.72,2.77,1C144.27,168.51,144.83,163.69,142.83,163.93Z"/><path class="cls-7" d="M189.32,136.56c.11-6.92-3.24-11.39-1.57-16.87a14.55,14.55,0,0,0,.6-6.57,87.75,87.75,0,0,0-12.42-3.9c1.17,4.18.68,10.9-1,16.49-1.83,6.21.52,14.35.52,14.35s-2.35,3-3.37,0a31.16,31.16,0,0,1-.94-12.61c.64-3.88.4-7.56-1.6-6.39s-2.81-.13-1.88-5.72a21.89,21.89,0,0,0,.06-7.42c-8.13-1-16.54-1.47-23.74-2.51.07,4.26-1.46,7.53-1.72,16.17-.26,9.1,2.22,13.33,2.22,13.33l-12.25-2c2.06-5.81,1.84-15.4.72-19.4a38.91,38.91,0,0,1-1.43-11.3c-2.73-1.25-4.78-2.89-5.85-5.09a9,9,0,0,1-1-4.08h0s-4.13,20.72-4.07,39.59,1.18,26.12,0,31.31c0,0,8.08.41,18.21,5.55a16.58,16.58,0,0,1-.78-5.4,24.93,24.93,0,0,0-2-9.76L147,158c-.86,5.63,1,12.24,2.08,15.34a80.58,80.58,0,0,0,22.06,1.95,23.93,23.93,0,0,1-.85-8.74c.52-7.34-1.25-11.25-1.25-11.25l3.09-1.83a39.31,39.31,0,0,1,1.42,13,33.48,33.48,0,0,0,.41,8.64c3.87-.28,8.49-.7,13.46-1.45a37.9,37.9,0,0,1,.34-8.1A236.55,236.55,0,0,0,189.32,136.56Zm-66.69-6.11s.87-18.26,3.08-17.58c2.59.79,1.19,15.92,5.5,20.9Zm40.62,32.9c-1.57,6.24-.38,10.15-2.08,10.28s-2.73-3.65-2.09-8.76a32.45,32.45,0,0,0,0-8.81l3.29-.77S164.82,157.1,163.25,163.35ZM181.8,147c-.35,7.29.32,15.88-1.76,16.4s-3-8.59-2.21-16.66,1.77-19.3,4-19.24C184.49,127.53,182.16,139.42,181.8,147Z"/><path class="cls-6" d="M147,158l-10.93-3.62a24.93,24.93,0,0,1,2,9.76,16.58,16.58,0,0,0,.78,5.4l.51.25c.94.49,1.91.92,2.91,1.34-.61-2.76-1.23-7,.6-7.19,2-.24,1.44,4.58,2.17,8.23,1.33.45,2.69.83,4.07,1.17C148,170.23,146.13,163.62,147,158Z"/><path class="cls-6" d="M173.54,166.47a39.31,39.31,0,0,0-1.42-13L169,155.29s1.77,3.91,1.25,11.25a23.93,23.93,0,0,0,.85,8.74c.69,0,1.35-.06,2-.11l.83-.06A33.48,33.48,0,0,1,173.54,166.47Z"/><path class="cls-6" d="M167.76,107.92a21.89,21.89,0,0,1-.06,7.42c-.93,5.59-.13,6.89,1.88,5.72s2.24,2.51,1.6,6.39a31.16,31.16,0,0,0,.94,12.61c1,3,3.37,0,3.37,0s-2.35-8.14-.52-14.35c1.64-5.59,2.13-12.31,1-16.49-1.61-.35-3.34-.67-5.24-.93Z"/><path class="cls-6" d="M181.8,127.45c-2.2-.06-3.19,11.18-4,19.24s.13,17.18,2.21,16.66,1.41-9.11,1.76-16.4C182.16,139.42,184.49,127.53,181.8,127.45Z"/><path class="cls-6" d="M192.89,154.37c1.56-8.76.89-16.4-1-24.59-1.51-6.49-.35-11.2-.31-15.49-1.09-.38-2.15-.77-3.23-1.17a14.55,14.55,0,0,1-.6,6.57c-1.67,5.48,1.68,9.95,1.57,16.87a236.55,236.55,0,0,1-1.57,29,37.9,37.9,0,0,0-.34,8.1c1.84-.27,3.73-.6,5.64-1C192.51,168.34,191.81,160.41,192.89,154.37Z"/><path class="cls-6" d="M201.23,123.12c-1.3,2.94-2.75,6.4-3.54,1.94a37.53,37.53,0,0,1,0-9c-1.12-.25-2.17-.54-3.2-.84a61.21,61.21,0,0,0,1,10.91c1.12,5.17,2.57,6.85,2.57,15.73s-1.68,12.52,2.23,16.12,2.78-2.7,2.78-2.7-1.55-1.47-1.44-9.88-1.44-14.27.9-17.76c2-3,4-6.68,3.88-10.32-1.57-.11-3-.26-4.41-.46A14.68,14.68,0,0,1,201.23,123.12Z"/><path class="cls-4" d="M264.17,95.74C262.35,87.18,247,80,227.84,78.24c-27.37-2.49-72.58-1.49-94.92,6.3,0,0-8.22,2.34-8.25,8.54a9,9,0,0,0,1,4.08c1.07,2.2,3.12,3.84,5.85,5.09a30.34,30.34,0,0,0,4.81,1.67c1.31.35,2.71.66,4.18.93,1.12.2,2.28.39,3.47.56,7.2,1,15.61,1.54,23.74,2.51l2.93.37c1.9.26,3.63.58,5.24.93a87.75,87.75,0,0,1,12.42,3.9c1.08.4,2.14.79,3.23,1.17s1.92.64,2.92.94,2.08.59,3.2.84c1.33.31,2.74.58,4.27.8,1.37.2,2.84.35,4.41.46a84.07,84.07,0,0,0,11,0c25-1.56,37.51-3.7,45-14.18A9.07,9.07,0,0,0,264.17,95.74Z"/><path class="cls-7" d="M107.36,132.59s2.17,12.71,10.09,17.37,12.58,4.95,19.22,7.49,7.63,2.27,16.4,1,18.51.85,21.48-1.83,2.87-13.39,2.54-16.39-16.77-1.92-16.77-1.92Z"/><path class="cls-3" d="M176.4,138.27a2.06,2.06,0,0,1-.09,3.15c-2.11,1.66-7.34,3.45-16.27,2.75-13.39-1-19.66-4.81-28-4.81s-24.85.07-24.89-8.36c0-7.61,13.85-9.42,13.85-9.42s-1.09,5.31,7.48,8.2,15.74,1.79,27.08,3.16C164.58,134,173,135.21,176.4,138.27Z"/><path class="cls-7" d="M385.29,107.65l17,51.74L396.89,192s-63.86,2.42-64.69,2.21-23.27-61.84-23.75-65.63,5.62-10.52,5.62-10.52Z"/><path class="cls-6" d="M333.38,122.44s1.37,6.66-1.6,12.59l-11.13-15.64Z"/><path class="cls-6" d="M336.11,122.84a22.84,22.84,0,0,1,.72,7.3c-.16,4.65.75,8.49,2.41,7.62,1.83-1-1.68-10.75.32-15.32"/><path class="cls-6" d="M342,123.08a20.21,20.21,0,0,1,.32,8.91c-.88,5.29,1.36,9.14,1.12,15.48l3.85-1.16s-2.32-7-2.16-12.54a72.61,72.61,0,0,0-.56-10.69Z"/><path class="cls-6" d="M351.85,127.21c1.23,0,.8,5.5,2.08,10a30,30,0,0,1,1.29,5.34L351,144.79s-1.06-1.19,0-8.53C351.68,131.56,350.29,127.2,351.85,127.21Z"/><path class="cls-6" d="M357.07,130.89c-1.37,0-1.21-5.93-1.93-7.54s1.93-5.61,1.93-5.21S359.07,130.9,357.07,130.89Z"/><path class="cls-5" d="M324.65,122.51s6,.45,12.46,1.5,15.76.6,23.26-3.15,22.32-5.43,24.92-13.21-9-5.4-13.81-6-8.93-.15-13.17,0-41.66,4.67-41.79,11.94S324.65,122.51,324.65,122.51Z"/><path class="cls-7" d="M463.09,178.67a116.17,116.17,0,0,1-16.47-20.89h0c-8-3.62-16.51-12.69-22.72-13.27S420,149.17,413.8,149s-12.62-15.73-21-17.87-9.52,8.93-15.15,9.71-7.38-4.08-12.43-5.24a16,16,0,0,0-6.64.18c-2.07,3.74-4,6-7.12,7.17-4.38,1.69-24.95,10.79-24.95,10.79s-29.18,18.44-30.39,38.14,32,33.15,49,31.23,33.63,4.33,41.8,3.13,18.74,3.6,28.83,2.64,11.06-2.88,16.34-9.13,8.17-3.85,21.87-3.61,29-6.43,31-14.19S476.91,192.16,463.09,178.67Z"/><path class="cls-6" d="M365.25,135.58c5.05,1.16,6.8,6,12.43,5.24s6.8-11.85,15.15-9.71,14.76,17.67,21,17.87,3.89-5,10.1-4.47,14.76,9.65,22.72,13.27h0c-5.2-8.16-9.3-16-12.53-21.59-6.07-10.45-15.51-12.47-21.58-11.8S404.76,123,401.05,116s-6.68-16-15.84-16.86c-12-1.12-20.57,24.28-23.94,31.36-1,2-1.83,3.78-2.66,5.3A16,16,0,0,1,365.25,135.58Z"/><path class="cls-6" d="M365.42,146.32c2.59-.11,1.32,4.14.06,7.79s-2.39,5.41-3.27,12.34A94.33,94.33,0,0,1,360.07,178s-10.82-9.18-10.07-10.69,5.16-4.91,6.55-8.18S362.27,146.44,365.42,146.32Z"/><path class="cls-6" d="M383.27,144.18c2.34-1.5.52,12.09-1,16.56s-2.89,11.56-5,11.69.92-11.69,2.5-15.63S381.43,145.37,383.27,144.18Z"/><path class="cls-6" d="M410.59,156.66c.79-3.73,7.1.92,9.59,7.23s4.34,9.61,6.44,14.13-.13,7.55-2.63,3.21-5.89-4.33-6.83-8.8C415.36,163.89,410.16,158.74,410.59,156.66Z"/><path class="cls-6" d="M439.17,168.7c2.63-4.58,10.39,8.16,13.54,12.57s6.29,7.24,4.88,10.07-8.68-4.76-11.27-9.31S437.44,171.71,439.17,168.7Z"/><path class="cls-6" d="M427.45,156.08c2.39-1.4,2.28,4.15,4.95,6.09s3.31,6.71,1.89,7.16-3.84-5.65-5.77-7.92C426.27,158.75,426.64,156.56,427.45,156.08Z"/><path class="cls-8" d="M315.66,273.39c-.6-4.23,12.16-8.36,15.81-3.44,3.16,4.26-5.23,6.6-7.9,6.6S316.06,276.13,315.66,273.39Z"/><ellipse class="cls-8" cx="290.45" cy="273.15" rx="3.91" ry="2.2"/><ellipse class="cls-8" cx="276.68" cy="264.76" rx="3.23" ry="2.2"/><path class="cls-10" d="M22.29,203l-6.35,2.57s8.43,16.3,8,42.48"/><polyline class="cls-10" points="14.14 198.28 15.94 205.56 20.51 195.26"/><path class="cls-10" d="M8.48,204.78c0,.05,7.46.78,7.46.78l-9.81-8.15"/><polyline class="cls-10" points="11.14 211.28 15.94 205.56 13.9 191.59"/><ellipse class="cls-11" cx="14.31" cy="196.7" rx="1.6" ry="2.55" transform="translate(-182.81 190.42) rotate(-84.02)"/><ellipse class="cls-11" cx="20.83" cy="193.53" rx="1.76" ry="2.75" transform="translate(-173.33 179.76) rotate(-79.8)"/><ellipse class="cls-11" cx="24.32" cy="202.47" rx="2.55" ry="1.6" transform="translate(-143.14 86.1) rotate(-48.36)"/><ellipse class="cls-11" cx="6.81" cy="205.14" rx="2.55" ry="1.6" transform="translate(-193.09 158.54) rotate(-74.98)"/><ellipse class="cls-11" cx="9.68" cy="211.93" rx="1.6" ry="2.55" transform="translate(-85.42 22.29) rotate(-24.02)"/><ellipse class="cls-11" cx="4.65" cy="196.81" rx="2.55" ry="1.6" transform="translate(-179.53 127.29) rotate(-67.97)"/><ellipse class="cls-11" cx="13.36" cy="190.14" rx="2.55" ry="1.6" transform="translate(-32.89 5.23) rotate(-10.02)"/><path class="cls-7" d="M12.11,218.35s2.2,10.63,10.82,12.87C22.93,231.22,21.58,223,12.11,218.35Z"/><path class="cls-7" d="M39.7,215.63a17.89,17.89,0,0,1,.34-4"/><polyline class="cls-7" points="42.7 215.44 39.7 215.63 36.09 215.34"/><polyline class="cls-10" points="43.62 206.66 39.7 215.63 47.74 211.96"/><path class="cls-10" d="M36.88,209.67l2.82,6s.81,12.58-2.82,19.79"/><ellipse class="cls-11" cx="40.59" cy="210.24" rx="2.1" ry="1.31" transform="translate(-46.69 14.71) rotate(-13.13)"/><ellipse class="cls-11" cx="44.26" cy="216.07" rx="1.31" ry="2.1" transform="translate(-104.66 53.38) rotate(-30.89)"/><ellipse class="cls-11" cx="49.02" cy="211.71" rx="1.31" ry="2.1" transform="translate(-39.8 13.38) rotate(-11.09)"/><ellipse class="cls-11" cx="43.74" cy="205.35" rx="1.31" ry="2.1" transform="translate(-164.66 230.93) rotate(-84.97)"/><ellipse class="cls-11" cx="36.21" cy="208.55" rx="2.1" ry="1.31" transform="translate(-101.94 48.18) rotate(-30.89)"/><ellipse class="cls-11" cx="34.82" cy="215.64" rx="1.31" ry="2.1" transform="translate(-48.07 13.54) rotate(-13.13)"/><path class="cls-10" d="M427.78,238.28c-1-26.3-14.68-39.2-14.68-39.2L408,194.3"/><polyline class="cls-10" points="412.47 202.41 413.1 199.08 408.65 200.76"/><polyline class="cls-10" points="420.45 195.37 413.1 199.08 418.35 200.31"/><polyline class="cls-10" points="414.48 190.9 413.1 199.08 413.87 197.44"/><ellipse class="cls-11" cx="406.79" cy="193.14" rx="2.43" ry="1.69" transform="translate(-19.3 338.85) rotate(-44.28)"/><ellipse class="cls-11" cx="415.19" cy="189.25" rx="2.43" ry="1.69" transform="translate(-18.4 47.14) rotate(-6.36)"/><ellipse class="cls-11" cx="406.89" cy="201.41" rx="2.39" ry="1.71" transform="translate(105.64 541.08) rotate(-74.77)"/><ellipse class="cls-11" cx="412.7" cy="204.13" rx="1.7" ry="2.41" transform="translate(139.47 574.72) rotate(-79.92)"/><ellipse class="cls-11" cx="422.18" cy="194.88" rx="1.73" ry="2.37" transform="translate(-29.41 305.69) rotate(-38.57)"/><ellipse class="cls-11" cx="420.01" cy="200.76" rx="2.4" ry="1.71" transform="matrix(0.32, -0.95, 0.95, 0.32, 94.65, 533.71)"/><ellipse class="cls-11" cx="414.37" cy="195.81" rx="1.7" ry="2.41" transform="translate(127.25 553.03) rotate(-76.5)"/><path class="cls-3" d="M429.87,210.36s2,8.81-4.39,11.86C425.48,222.22,424.34,215.18,429.87,210.36Z"/><path class="cls-10" d="M451.5,197.47s-8.13,11.58-8.13,32.9"/><polyline class="cls-10" points="450.35 209.55 446.82 207.5 443.37 206.96"/><path class="cls-10" d="M446.06,200.51c.09,0,.76,7,.76,7l6-3.36"/><line class="cls-10" x1="441.03" y1="200.51" x2="446.82" y2="207.5"/><path class="cls-11" d="M443.94,198.45c-.14.91.87,1.81,2.26,2s2.61-.35,2.75-1.25-.87-1.79-2.25-2S444.07,197.55,443.94,198.45Z"/><ellipse class="cls-11" cx="454.13" cy="203.35" rx="1.52" ry="2.32" transform="translate(-0.6 405.34) rotate(-48.07)"/><path class="cls-11" d="M439.94,206.24c.09.82,1.2,1.38,2.47,1.23s2.22-.93,2.13-1.75-1.19-1.38-2.46-1.23S439.85,205.41,439.94,206.24Z"/><ellipse class="cls-11" cx="439.67" cy="199.28" rx="2.53" ry="1.65" transform="matrix(0.21, -0.98, 0.98, 0.21, 153.17, 587.78)"/><ellipse class="cls-11" cx="452.12" cy="196.07" rx="1.49" ry="2.33" transform="translate(72.56 510.38) rotate(-63.07)"/><ellipse class="cls-11" cx="451.62" cy="210.36" rx="2.27" ry="1.47" transform="translate(43.63 496.3) rotate(-60)"/><path class="cls-6" d="M448.29,219.08s-.66,5.66-4.69,6.91C443.6,226,444.17,221,448.29,219.08Z"/><path class="cls-11" d="M382.35,60.92S375.42,62,376.72,68C376.72,68,382.74,68.92,382.35,60.92Z"/><path class="cls-10" d="M370.82,68.7s-.39,5.44,1.55,7.36"/><path class="cls-10" d="M369.88,83.18a12.33,12.33,0,0,0,5.87-1.84"/><path class="cls-10" d="M383,83.94s-10.66,6.51-12.24,21.53"/><path class="cls-11" d="M369,61.88s-2.59,5.49,1.89,6.82C370.85,68.7,373.33,65.19,369,61.88Z"/><path class="cls-11" d="M380.56,78.73s-4.27-1-5,2.7C375.56,81.43,379,82.93,380.56,78.73Z"/><path class="cls-10" d="M382.39,94.71a11.79,11.79,0,0,1-8-1.06"/><path class="cls-11" d="M383,84s-.58-4.87,5.51-6.19C388.48,77.78,388.48,83.94,383,84Z"/><path class="cls-11" d="M389.1,92.68S384,90.36,382,94.74C382,94.74,386.58,97.4,389.1,92.68Z"/><path class="cls-10" d="M376.78,68s-9.9,12.8-9.23,35.13"/><path class="cls-8" d="M123.65,288.84c-1-3.82,7.28-7.06,10.63-4.93s4.06,6.57.41,6.74S124.3,291.3,123.65,288.84Z"/><path class="cls-8" d="M76.68,286.16c-.22-2.22,3.4-3.31,5.61-2.12s1.7,3,.76,3.06S76.85,287.86,76.68,286.16Z"/><path class="cls-10" d="M152.74,125.71s1,8.72-1.16,13.71"/><path class="cls-10" d="M160.06,127.45s-.47,8.83-4.53,13.36"/><path class="cls-10" d="M166.21,130.82a11.28,11.28,0,0,1-7.67,4.41"/><path class="cls-11" d="M152.79,126.14s-4-3.72.41-8.42C153.2,117.72,156.85,122.63,152.79,126.14Z"/><path class="cls-11" d="M160.08,127.65s-3.37-4.53,2.29-9.06C162.37,118.59,165.44,125.1,160.08,127.65Z"/><path class="cls-11" d="M166,131s-1-4.3,6.14-5.24A5.61,5.61,0,0,1,166,131Z"/><path class="cls-6" d="M206.5,56.94c-3.65,1.2,2.77,7.91.59,22.6-1,6.69-3.06,16.08-.06,16.5s1.5-6.75,2.47-12.86,2.57-8,2-15S208.43,56.3,206.5,56.94Z"/><path class="cls-6" d="M199.31,86.58c4.08-8.18,3.11-14.33,3.05-21s0-17,0-17l-3,.53a55.39,55.39,0,0,0-.54,10.83c.21,6.75.89,19.16-1.17,19.08s-1.12-4.23-2.09-14.47c-1-10.93-2.31-15.44-2.31-15.44l-3.22.65s1.74,5.65,2.78,18.49c1.31,16.09-.79,28.88-.58,34.13,1.29,0,2.61,0,3.95,0C196.1,98.87,196.47,92.29,199.31,86.58Z"/><path class="cls-6" d="M181.7,85c-.72-11.82-5.72-15.55-.47-37l-3.76-1s1.15,11.73-1.57,11.86-2.14-12-2.14-12h-2.31s-1.31,5.17,1.88,16.28-1.16,16.78-1.88,23.5a62.92,62.92,0,0,0,.29,12c3.42,1.05,6.44,2,9,2.62A78.44,78.44,0,0,0,181.7,85Z"/><path class="cls-6" d="M184.66,62.53c-2.38.3-1.9,5.08,0,10.82s-1.34,17.52,1.42,17.57c2.29,0,2.13-8.89,2.72-15.16C189.57,67.62,187.09,62.21,184.66,62.53Z"/><path class="cls-6" d="M143.28,53.06c1.45,2.74.62,8.79,2.78,8.79s.41-11.53,2.16-16.26l-5.69-.28A9.61,9.61,0,0,0,143.28,53.06Z"/><path class="cls-6" d="M152.09,57.45c-1.85.84-1.06,5.76-1.88,11.43s.06,8.65,2.23,9,3.29-4.31,3.29-10.69S154.14,56.53,152.09,57.45Z"/><path class="cls-6" d="M163.72,53.58c-2.69.28-.71,9.49-.28,17.16s-.36,15.82,1.62,15.84,3.3-5.34,2.74-15S165.66,53.38,163.72,53.58Z"/><path class="cls-6" d="M151.45,85.78c-3-2.25-2.74-12.39-5.38-12.43S146,79.93,144,79.86s-1.31-9.12-3.14-9.37c-2.1-.29-2.83,5.27-3.81,9.37s-1.88,9-2.36,11.72c2.29,1.3,6.32,2.56,13.39,2.63,1.91,0,3.78.15,5.61.34C153,91.17,153.43,87.25,151.45,85.78Z"/><path class="cls-9" d="M152.09,57.45c-1.85.84-1.06,5.76-1.88,11.43s.06,8.65,2.23,9,3.29-4.31,3.29-10.69S154.14,56.53,152.09,57.45Z"/><path class="cls-9" d="M163.72,53.58c-2.69.28-.71,9.49-.28,17.16s-.36,15.82,1.62,15.84,3.3-5.34,2.74-15S165.66,53.38,163.72,53.58Z"/><path class="cls-9" d="M143.28,53.06c1.45,2.74.62,8.79,2.78,8.79s.41-11.53,2.16-16.26l-5.69-.28A9.61,9.61,0,0,0,143.28,53.06Z"/><path class="cls-9" d="M184.66,62.53c-2.38.3-1.9,5.08,0,10.82s-1.34,17.52,1.42,17.57c2.29,0,2.13-8.89,2.72-15.16C189.57,67.62,187.09,62.21,184.66,62.53Z"/><path class="cls-9" d="M206.5,56.94c-3.65,1.2,2.77,7.91.59,22.6-1,6.69-3.06,16.08-.06,16.5s1.5-6.75,2.47-12.86,2.57-8,2-15S208.43,56.3,206.5,56.94Z"/><path class="cls-6" d="M214.21,57.22c-.57,4.61.89,4.24,2.55,2.17,2.21-2.76,1.42,4.5,1.89,10.58s.24,19.1,2.72,18.5-1.3-17.36,2-24a30.68,30.68,0,0,1-1-2.92c-1.74-5.84-1.5-15.76-2.34-20.17l-3.68.15L212.73,48S214.71,53.23,214.21,57.22Z"/><path class="cls-7" d="M227.69,75.26c-1.16-4.88-2.84-7.05-4.36-10.83-3.26,6.68.43,23.47-2,24s-2.25-12.41-2.72-18.5.32-13.34-1.89-10.58c-1.66,2.07-3.12,2.44-2.55-2.17.5-4-1.48-9.25-1.48-9.25l3.57-6.48c-6.86.27-19.89.75-19.89.75l-47.55-1.42-8.73,1.67a88.47,88.47,0,0,0-.75,10.33,60.9,60.9,0,0,1-3.21,17.59c-2,5.62-4.26,11.48-4.42,18.27,0,0,.41,1.48,2.93,2.9.48-2.71,1.41-7.73,2.36-11.72s1.71-9.66,3.81-9.37c1.83.25,1.15,9.31,3.14,9.37s-.56-6.55,2.08-6.51,2.36,10.18,5.38,12.43c2,1.47,1.52,5.39,2.23,8.77a94.6,94.6,0,0,1,18.06,4.08,62.92,62.92,0,0,1-.29-12c.72-6.72,5.08-12.4,1.88-23.5s-1.88-16.28-1.88-16.28h2.31s-.59,12.14,2.14,12S177.47,47,177.47,47l3.76,1c-5.25,21.45-.25,25.18.47,37a78.44,78.44,0,0,1-1,16.28c.68.16,1.34.29,1.95.39a74.51,74.51,0,0,0,9.52.72c-.21-5.25,1.89-18,.58-34.13-1-12.84-2.78-18.49-2.78-18.49l3.22-.65s1.28,4.51,2.31,15.44c1,10.24,0,14.39,2.09,14.47s1.38-12.33,1.17-19.08a55.39,55.39,0,0,1,.54-10.83l3-.53s-.06,10.4,0,17,1,12.8-3.05,21c-2.84,5.71-3.21,12.29-3.17,15.74,5.82-.18,11.79-1,15.75-3,7.42-3.79,6.48-5.06,11.69-7s6.95-4.27,7.11-6.95S229.11,81.26,227.69,75.26ZM146.06,61.85c-2.16,0-1.33-6.05-2.78-8.79a9.61,9.61,0,0,1-.75-7.75l5.69.28C146.47,50.32,148.23,61.85,146.06,61.85Zm6.38,16c-2.17-.34-3.05-3.32-2.23-9s0-10.59,1.88-11.43c2-.92,3.64,3.35,3.64,9.73S154.74,78.22,152.44,77.87Zm12.62,8.71c-2,0-1.19-8.17-1.62-15.84s-2.41-16.88.28-17.16c1.94-.2,3.51,8.37,4.08,18S167,86.6,165.06,86.58ZM188.8,75.76c-.59,6.27-.43,15.21-2.72,15.16-2.76,0,.47-11.84-1.42-17.57s-2.38-10.52,0-10.82S189.57,67.62,188.8,75.76Zm20.7,7.42c-1,6.11.53,13.29-2.47,12.86s-.94-9.81.06-16.5c2.18-14.69-4.24-21.4-.59-22.6,1.93-.64,4.5,4.38,5,11.29S210.46,77.07,209.5,83.18Z"/><path class="cls-3" d="M148.07,36.4s-8.69,2.36-7.9,7,7.9,2.52,12.17,4.74,9.16-.64,18.64,0,12.32,2.52,19.58,2.84,18.8.63,25.44-3.48S220.26,38,214.89,38s-16.88.31-21.39,0S158.65,33.39,148.07,36.4Z"/><path class="cls-7" d="M147.35,32.61s-.68,3.75.74,5.17,5.09,2.42,10.67,2.25S176.6,41.36,185.27,44s12.43,1.74,12.34,0-2.42-5.9-2.09-8.62l-39.26-5.14Z"/><ellipse class="cls-8" cx="204.72" cy="42.76" rx="2.36" ry="1.65"/><ellipse class="cls-8" cx="212.73" cy="43.97" rx="2.51" ry="1.62"/><path class="cls-5" d="M147.42,33.36c-1.06-5.31,12.76-7.92,17.09-8.25s13.09-.5,18.59,2.25,10.67,4.42,12,6.67-.5,4.33-6.09,5-19-2.33-26.42-2.25S148.17,37.11,147.42,33.36Z"/><path class="cls-8" d="M168.86,27.91c.53-1.47,4.13-.8,4.81,1s-3,1.24-4,.68A1.51,1.51,0,0,1,168.86,27.91Z"/><path class="cls-8" d="M174.41,33.78c-1-1.48,1.42-4.18,4.26-4,2.64.13,5.13,3.09,4.32,4.52S175.05,34.74,174.41,33.78Z"/><path class="cls-9" d="M348.49,84.45l-4.1,1.07a8.66,8.66,0,0,0,1.45,6c1.51,2.41.1,8.68,2.39,8.69,1.9,0,1.08-7.93,0-10.82A5.83,5.83,0,0,1,348.49,84.45Z"/><path class="cls-9" d="M341.86,85.52l-7.76,2.77a20.55,20.55,0,0,1,3.63,8.11c1.25,5.32,2.21,10.64,4,10.55s-1.39-6.37,0-6.63,1.75,4.68,3.58,4-2-6.61-3.14-11.23A16.7,16.7,0,0,1,341.86,85.52Z"/><path class="cls-9" d="M358.34,91.84c-2.66-.14,1.22,14.18,3.18,13S359.94,91.92,358.34,91.84Z"/><path class="cls-7" d="M363.8,93.3c0-6.48-1.43-12.36-2.33-14.32s-17.54,1.42-17.54,1.42l-35.48,1.86L311,104.85s5.24,8.63,5.56,8.74,5.79,4.47,5.79,4.47.64-2.24,6.84-3.73c-2.72-3.55-5-11.22-3.84-17,1.51-7.31,0-10.72,0-10.72l5.7.87a55.8,55.8,0,0,1,1.19,8.43c.34,4.87,2.89,7.59,3.79,13.65a22.8,22.8,0,0,0,.79,3.6c7.43-.93,10.71-1.21,14.9-1.4,1.73-.08,3.41,0,5,0a54.54,54.54,0,0,0-1.91-5.19c-1.85-4.41-3.79-11.09-2-11.61,1.58-.46,1.33,5.51,3.86,10.49a66,66,0,0,1,2.8,6.25,9.74,9.74,0,0,0,5-1.63c3.6-2.51,3.6-4.26,3.6-4.26S363.8,99.78,363.8,93.3Zm-18.45,11c-1.83.68-2.18-4.26-3.58-4s1.83,6.54,0,6.63-2.79-5.23-4-10.55a20.55,20.55,0,0,0-3.63-8.11l7.76-2.77a16.7,16.7,0,0,0,.35,7.57C343.34,97.71,347.18,103.64,345.35,104.32Zm2.88-4.08c-2.29,0-.88-6.28-2.39-8.69a8.66,8.66,0,0,1-1.45-6l4.1-1.07a5.83,5.83,0,0,0-.26,5C349.31,92.31,350.13,100.24,348.23,100.24Zm13.29,4.57c-2,1.21-5.84-13.11-3.18-13C359.94,91.92,363.49,103.61,361.52,104.81Z"/><path class="cls-10" d="M338.25,115.3h0Z"/><path class="cls-10" d="M328.46,95c-1.64-.28-1,4.09.26,7,1.09,2.56,1.35,6.91,2.86,7,1.35,0,1-4.19-.23-6.62S330.14,95.27,328.46,95Z"/><path class="cls-6" d="M332.2,95.88A55.8,55.8,0,0,0,331,87.45l-5.7-.87s1.51,3.41,0,10.72c-1.2,5.81,1.12,13.48,3.84,17a36.7,36.7,0,0,1,4.08-.74l3.55-.46a22.8,22.8,0,0,1-.79-3.6C335.09,103.47,332.54,100.75,332.2,95.88Zm-.62,13c-1.51,0-1.77-4.39-2.86-7-1.24-2.88-1.9-7.25-.26-7s1.64,4.86,2.89,7.3S332.93,108.94,331.58,108.9Z"/><path class="cls-6" d="M358.34,91.84c-2.66-.14,1.22,14.18,3.18,13S359.94,91.92,358.34,91.84Z"/><path class="cls-6" d="M352.77,95c-1.77.52.17,7.2,2,11.61a54.54,54.54,0,0,1,1.91,5.19c.94,0,1.85,0,2.73-.06a66,66,0,0,0-2.8-6.25C354.1,100.49,354.35,94.52,352.77,95Z"/><path class="cls-7" d="M328.46,95c-1.64-.28-1,4.09.26,7,1.09,2.56,1.35,6.91,2.86,7,1.35,0,1-4.19-.23-6.62S330.14,95.27,328.46,95Z"/><path class="cls-6" d="M341.86,85.52l-7.76,2.77a20.55,20.55,0,0,1,3.63,8.11c1.25,5.32,2.21,10.64,4,10.55s-1.39-6.37,0-6.63,1.75,4.68,3.58,4-2-6.61-3.14-11.23A16.7,16.7,0,0,1,341.86,85.52Z"/><path class="cls-6" d="M348.49,84.45l-4.1,1.07a8.66,8.66,0,0,0,1.45,6c1.51,2.41.1,8.68,2.39,8.69,1.9,0,1.08-7.93,0-10.82A5.83,5.83,0,0,1,348.49,84.45Z"/><path class="cls-3" d="M360.56,77c-2.43-2.56-4.45-3.16-8.7-3.16-3.67,0-13.2,2.1-17.43.85,1,.34,3.25,1.34,2.68,3.06-.72,2.16-8.92,2.45-14.62,2s-13-2.24-16.07-.67c-2.3,1.18-5.75-5.35-7.31-8.62-2.75-.17-4.88-.19-5.55.15-2,1-6.89,5.87-2.84,11.33s4.79,9.66,12.82,9.59c0,0,11.25-5.49,20.85-3.29s11.68.21,16.54-1.43,11.94,1.82,15.58-1.22S363,79.58,360.56,77Z"/><path class="cls-7" d="M334.11,74.62l-.1,0h0Z"/><path class="cls-7" d="M334.11,74.62l.32.1Z"/><path class="cls-7" d="M337.19,77.08a16,16,0,0,0,.47,3.28,2,2,0,0,1-1.32,2.46,12.37,12.37,0,0,1-4.49.36c-5.09-.34-7.67.76-12,.76s-10.85-.76-10.85-.76l-3.68-6.32,15.27-.8Z"/><path class="cls-3" d="M306.42,79.1c3.06-1.57,10.37.2,16.07.67s13.9.17,14.62-2c.57-1.72-1.72-2.72-2.68-3.06l-.32-.1-.1,0h0a3.22,3.22,0,0,1-1.16-.71c-2.65-2.84-11.36-2.52-16.62-2.27-3.52.16-11.57-.78-17.12-1.12C300.67,73.75,304.12,80.28,306.42,79.1Z"/><path class="cls-4" d="M284,53.59c-.5-5,5.75-4.94,7-4.3,0,0-2.77-20.58,15-17.38a12.48,12.48,0,0,1,12.31-5.75c8.56,1,11.66,9,7,18.4,0,0,9-1.66,9.13,3.84s-14.09,6.26-22.5,6.77C300.72,55.86,284.54,59.57,284,53.59Z"/><path class="cls-6" d="M302,41.94c3-.73,1,8.51,1.93,11.08s3.55-.38,5.47-3.34,3.89-7.13,5.37-6.27c2,1.15-.41,6-6.89,11.51S302,73.71,302,73.71l-5.38-1A53.4,53.4,0,0,0,301.28,57C302.14,48.79,300.33,42.35,302,41.94Z"/><path class="cls-5" d="M310.59,64.35c-.38-3.35,4.64-5.18,7.37-4.78,0,0,.91-10,12.5-12.31s16,6.7,16,6.7,6-2.41,9.66,1c3.52,3.25,1.5,6.68,1.5,6.68s7.09-.1,7.5,3.31-10.37,2.28-14.05,2.28-24.54.34-30.95,0S310.88,66.82,310.59,64.35Z"/><ellipse class="cls-8" cx="349.59" cy="79.1" rx="3.12" ry="2.24"/><ellipse class="cls-8" cx="356.19" cy="81.2" rx="1.38" ry="0.93"/><path class="cls-10" d="M157.79,73s.92,20.83,3.05,28.35"/><path class="cls-11" d="M157.82,73.35s-5.1-2-2.28-8.94C155.54,64.41,160.84,69.22,157.82,73.35Z"/><path class="cls-7" d="M163.44,77.87s-.18,8-4.12,13.1"/><path class="cls-10" d="M147.4,82.45s.92,12.09,7.06,17"/><path class="cls-10" d="M145.93,88.5a6.82,6.82,0,0,0,3.45,3"/><path class="cls-10" d="M176.45,91.5a18.11,18.11,0,0,1-6.23,12.3"/><path class="cls-10" d="M169.58,84.83s-.55,11.09-3.76,18.42"/><path class="cls-11" d="M147.46,82.73s-3.87-1.65-1.53-8.45C145.93,74.28,149.82,79.29,147.46,82.73Z"/><path class="cls-11" d="M146,88.64s-4.5.33-4.1-5.72C141.94,82.92,146.48,84.42,146,88.64Z"/><path class="cls-11" d="M163.37,78.22s-2.28-3.21,1.37-7.48C164.74,70.74,167.18,76,163.37,78.22Z"/><path class="cls-11" d="M176.46,91.7s-3.83-2.14-1.36-7.51C175.1,84.19,179.49,87.58,176.46,91.7Z"/><path class="cls-11" d="M169.51,85.14s-4-2.47.2-8.11C169.71,77,173.33,82.45,169.51,85.14Z"/><path class="cls-7" d="M427.66,246.11c-1-2.07-10.31-9.71-14.31-12.13s-19.48-16.1-25.18-25.68S370,184,362.26,176.44s-16.83-18.65-22-29.79c-2.34-5-5.2-10-8.05-15.18h0c-7.61-.62-15.85-21.86-22-19.58s2.6,20.53-7.17,21.83-18.9-26.39-29.33-26.39-14.34,21.18-22.16,21.18-4.73-18.27-12.71-22.16c-6-2.95-19.51,7.66-19.51,7.66-6,10.62-11.4,15.29-13.21,22.54s-3.49,18.1-10.62,28.23c-9.91,14.08-21,23.31-29.79,36s-14,22.53-17.61,32.38-.78,13.72,6.47,15.54c7.06,1.76,24.66,6.71,36.1,11,1.32-4.23,5.89-9.91,10.61-16,7-9,5.75-7.86,9.45-17.05a168.75,168.75,0,0,1,12.38-25.4c4.46-7.4,12.28-20.47,14.74-20,2.26.42-.17,12.26-2.81,21.77s-1.06,12.14-4.58,22.36S219.13,255,217.19,263.13a22.3,22.3,0,0,1-1.94,5.39c7.22,2.73,20.7,7.76,30.34,10.85,13.75,4.42,16.69,5.9,15.71-6.38-.5-6.3,1.12-15.7,3.45-24.54,2.21-8.39,5.06-16.29,7.35-20.6,2.59-4.84,3.93-8,6.6-10.64,2.21-2.19,5.32-4,10.8-6.17,12.09-4.71,13.86-13,21.53-13.85,4.5-.52,8.6-.22,13.61,4.11,3.51,3,7.47,8.08,12.34,16.23,11.79,19.76,16.8,37.45,32.43,42.76,11.42,3.88,20,2.56,27.48.65,2.76-.71,5.36-1.49,7.91-2.13,9.43-2.36,13.52-1.67,15.95-2.88S428.63,248.17,427.66,246.11Z"/><path class="cls-6" d="M317.66,146.94c1.78-3.57,11.83,8.82,17.62,19s9.74,13.92,12.06,19.95,1.86,8.81-3.47,2.55S333,177.79,326.93,173.38,320.45,165,319.17,159,316,150.19,317.66,146.94Z"/><path class="cls-6" d="M179.3,225.41c1.64.47,10.74-14.16,17.8-20.42s9.81-10.91,13.19-22.86,6.33-19,9-29.12,6.35-14.11,3.59-15.64-4.6,5.52-7.06,10.43-7.67,14.18-8.28,20.9-9.82,12.84-12.89,19.59-5,10.54-8.35,18.46-4.64,4.86-6.42,12.45C179.1,222.5,177.81,225,179.3,225.41Z"/><path class="cls-6" d="M263.54,134.35c3,1-.2,8.15-1.22,13.64s-2,10.54-4.88,9.95-2-7.71,0-14.63S260.72,133.47,263.54,134.35Z"/><path class="cls-6" d="M230.41,225.42c3.52-10.22,1.93-12.84,4.58-22.36s5.07-21.35,2.81-21.77c-2.46-.46-10.28,12.61-14.74,20a168.75,168.75,0,0,0-12.38,25.4c-3.7,9.19-2.47,8.07-9.45,17.05-4.72,6.08-9.29,11.76-10.61,16l.95.36c11.39,4.41,18.65,6.5,18.65,6.5l5,1.92a22.3,22.3,0,0,0,1.94-5.39C219.13,255,226.88,235.65,230.41,225.42Z"/><path class="cls-6" d="M272.42,142.09c4,.57-2.56,21.09-3.73,27.07-1.28,6.51-6.59,14.07-7.7,20.9s-4.6,14.17-6.22,12.55,1.37-4.26,1.25-8.4,1.16-13.84,4.18-17.7A34.37,34.37,0,0,0,266.58,161C267.57,154.77,269.81,141.72,272.42,142.09Z"/><path class="cls-6" d="M370.13,205c2.72-1.59,12.45,11.14,17.48,17.91s13.47,13.76,14.71,18.78-1.83,3.5-5.43,0c-2.41-2.34-5.95-3.79-9.93-6.47a29.08,29.08,0,0,1-8.61-9.09C372.2,215.94,367.81,206.32,370.13,205Z"/><path class="cls-6" d="M353.28,203.21c2.23-2.71,6.89,4.39,7.8,5.8s1.08,3.07,0,4.15-3.55-.71-6.14-4.89C353.24,205.52,352.44,204.23,353.28,203.21Z"/><path class="cls-7" d="M320.65,208c0,14.9-25.6,33.78-43.33,10.73"/><path class="cls-7" d="M269.26,234.29s21.42,4.39,30.33-10.65"/><path class="cls-7" d="M326.11,217.17s1.77,11.82,12.29,25.34"/><path class="cls-7" d="M322.92,236.5s2.31,7.12,6.39,11.84"/><path class="cls-7" d="M319.06,224.86a43.94,43.94,0,0,0,1.59,5.75"/><path class="cls-7" d="M302.44,223.64c0,7,6.39,13.55,6,18.78"/><path class="cls-7" d="M312.93,233c-.93,3.79,3.18,5.47,2.69,11.85"/><path class="cls-7" d="M341.36,247.13a15.46,15.46,0,0,0,2.74,3.55"/><path class="cls-6" d="M273.66,107.33c10.43,0,19.55,27.7,29.33,26.39s1-19.55,7.17-21.83,14.43,19,22,19.58h0a118.75,118.75,0,0,1-9.31-20.31c-4.4-13.47-8-26.07-14.76-33.41-11.53-12.46-16.95-7.39-24.27-12.46-6.72-4.66-6-14.52-10.14-20.72-4.84-7.2-12.4-7.08-17.92,1.58-4.06,6.36-14.5,25.64-18.13,36.78S225.24,103.39,219.28,114c0,0,13.48-10.61,19.51-7.66,8,3.89,4.89,22.16,12.71,22.16S263.23,107.33,273.66,107.33Z"/><path class="cls-3" d="M369.41,260.29c-15.63-5.31-20.64-23-32.43-42.76-4.87-8.15-8.83-13.18-12.34-16.23-5-4.33-9.11-4.63-13.61-4.11-7.67.88-9.44,9.14-21.53,13.85-5.48,2.14-8.59,4-10.8,6.17-2.67,2.64-4,5.8-6.59,10.64-2.3,4.31-5.15,12.21-7.36,20.6a47.57,47.57,0,0,0,18.65,8.81c16.58,3.85,21.59-3.09,39.32-3.09s32.77,5,40.48,11.18,33.69-4.41,33.69-4.41C389.41,262.85,380.83,264.17,369.41,260.29Z"/><path class="cls-6" d="M281,220.37c.23,2.52.5,6,2.64,6s.05-8.78,3.46-10c2.88-1,3.69,4.08,6,4s1.09-7.75,3.28-7.75.41,7.73,1.59,10c1,2,2.79,1,2.89-3.43s1.07-11.18,4.07-12.08c3.59-1.09,5.94,3.78,5.67,14.41-.26,10.09,4.48,12.14,4.58,4.28s0-21.64,3.54-21.35c1.92.16,1.14,4.8,3.2,5s2.84-6.26,2.71-8.21c-5-4.33-9.11-4.63-13.61-4.11-7.67.88-9.44,9.14-21.53,13.85-5.48,2.14-8.59,4-10.8,6.17h0A3.36,3.36,0,0,1,281,220.37Z"/><path class="cls-4" d="M194.53,243c0-.22,0-.44,0-.67a6.59,6.59,0,0,0-6.58-6.58,6.47,6.47,0,0,0-1.71.23,6.57,6.57,0,0,0-11.71-3.68,5.38,5.38,0,0,0-4.37-2.49c-3.19,0-5.78,3.21-5.78,7.18s2.59,7.18,5.78,7.18l.42,0a6.42,6.42,0,0,0-.42,2.29,6.59,6.59,0,0,0,8.49,6.3,6.4,6.4,0,0,0-.07.88,6.58,6.58,0,0,0,12.85,2A6.58,6.58,0,1,0,194.53,243Z"/><path class="cls-10" d="M180.11,242.81s3.43-1.67,3.44,2.78c0,0,2.4,0,1.85,2.71"/><path class="cls-5" d="M404,267.64a5.27,5.27,0,0,0-2.09-4.19,5.28,5.28,0,0,0-.82-6.37,5.21,5.21,0,0,0-2.79-1.45,5.39,5.39,0,0,0,.41-2,5.29,5.29,0,0,0-5.29-5.29c-.22,0-.42,0-.63.06,0-.21.06-.42.06-.65a5.28,5.28,0,0,0-5.29-5.28,4.91,4.91,0,0,0-.67.06s0,0,0-.06a5.28,5.28,0,0,0-10.3-1.63,5.26,5.26,0,0,0-7.6,4.74,5.41,5.41,0,0,0,.17,1.28,5.25,5.25,0,0,0-2.84,9.43,5.25,5.25,0,0,0-4.41,7.64,5.27,5.27,0,0,0-3.5,4.95c0,2.93,2.41,4.79,5.29,5.29,9.31,1.62,24.22,1.43,36-1.29A5,5,0,0,0,404,267.64Z"/><path class="cls-10" d="M384.2,252.32s4.26-.49,3.68,3.82c0,0,4-.89,4.5,2.31.38,2.51-2.47,3.91-2.47,3.91"/><path class="cls-6" d="M324.33,60.92c1.65-.24,1.44,6.1,3.74,6.47,1.94.31,6.36-7.71,8-6.47,1.39,1-4.82,6-6.69,8.56s-3.62,7.77-5.07,6.58c-1.16-1,2.29-4.72,1.31-7.51C324.56,65.41,322.76,61.14,324.33,60.92Z"/><ellipse class="cls-8" cx="331.5" cy="77.07" rx="1.88" ry="1.01"/><ellipse class="cls-8" cx="327.36" cy="75.66" rx="0.8" ry="0.4"/><ellipse class="cls-8" cx="164.27" cy="140.06" rx="1.81" ry="3.1" transform="matrix(0.5, -0.87, 0.87, 0.5, -39.16, 212.29)"/><ellipse class="cls-8" cx="122.63" cy="134.13" rx="1.42" ry="2.03" transform="translate(-37.27 220.51) rotate(-75.94)"/><ellipse class="cls-8" cx="115.46" cy="130.45" rx="3.28" ry="2.11"/><path class="cls-6" d="M102.87,207.94a2.12,2.12,0,0,0-.19-.57.87.87,0,0,0-.32-.36,1.24,1.24,0,0,0-.74-.26c-.58,0-1.18.48-2,1.42-.37.41-.78.9-1.25,1.48l-1.64,2a42.45,42.45,0,0,0-2.8,3.95c-.51.78-1,1.61-1.55,2.47-1.31,2.15-2.63,4.46-3.82,6.59-.48.85-.93,1.68-1.35,2.45-.64,1.16-1.2,2.2-1.66,3-2.44,4.54-1,3.67-3.49,10.4a25.28,25.28,0,0,1-1.11,2.55c-.43.85-.91,1.72-1.43,2.58s-1.07,1.74-1.64,2.6c-.85,1.31-1.74,2.61-2.61,3.9a43.32,43.32,0,0,0-4.91,8.71,33.81,33.81,0,0,0-1.58,6.56c-.1.71-.18,1.39-.25,2.05s-.1,1-.13,1.47c-.07.93-.11,1.74-.12,2.38,5.54,1.07,11.72,1,17,.81a27.28,27.28,0,0,1,7.15.68,33.14,33.14,0,0,0,1.58-3c.33-.71.65-1.45,1-2.19.08-.18.15-.37.22-.56l.39-1c.57-1.54,1.08-3.07,1.51-4.46.28-.92.52-1.79.72-2.54s.36-1.41.47-1.91c0-.22.09-.46.13-.7a63.15,63.15,0,0,0,.57-6.45c.16-2.76.3-5.65.65-7.93.08-.57.16-1.12.23-1.66a39,39,0,0,0,.38-6.1,31.38,31.38,0,0,0-.46-4.67,15.53,15.53,0,0,1-.21-1.75q-.06-.93-.06-1.92c0-.32,0-.66,0-1,0-.67.07-1.35.13-2s.13-1.36.22-2c.18-1.34.42-2.63.69-3.78q.11-.43.21-.84c.14-.55.29-1,.44-1.5a40.07,40.07,0,0,0,1.53-6A9.11,9.11,0,0,0,102.87,207.94Z"/><path class="cls-7" d="M184.42,261.54a29.58,29.58,0,0,0-2.06-3.59c-4.67-7.22-14.27-18.75-16.7-22.87s-5.73-15.16-8.95-22.07c-.12-.26-.25-.51-.37-.76a4.47,4.47,0,0,1-.45.43c-3.29,2.95-7.13-1.21-11.26-6.85-4.66-6.36-5.88.12-7.61.92-2.73,1.26-6.29-4.57-8-10.72s-3.83-10.2-6-10.2-4.24,4.4-6.33,10.44-5.1,5.91-7.23,2.66-1.7-9-8.31-8.93c-4.27.08-8.23,2.37-10.52,4a21.19,21.19,0,0,0-1.12,3c-1.16,4.08-4.71,11.64-8.72,18a50.71,50.71,0,0,1-5.88,7.89c-6,6.25-4.66,8.7-12.74,22.06a63.62,63.62,0,0,0-6.91,14.77,9,9,0,0,0-.34,2.4,8.83,8.83,0,0,0,3.3,7.06,22.85,22.85,0,0,0,10,4.15c0-.64,0-1.45.12-2.38,0-.46.08-1,.13-1.47s.15-1.34.25-2.05a33.81,33.81,0,0,1,1.58-6.56,43.32,43.32,0,0,1,4.91-8.71c.87-1.29,1.76-2.59,2.61-3.9.57-.86,1.12-1.73,1.64-2.6s1-1.73,1.43-2.58A25.28,25.28,0,0,0,82,240.56c2.44-6.73,1-5.86,3.49-10.4.46-.85,1-1.89,1.66-3,.42-.77.87-1.6,1.35-2.45,1.19-2.13,2.51-4.44,3.82-6.59.52-.86,1-1.69,1.55-2.47a42.45,42.45,0,0,1,2.8-3.95l1.64-2c.47-.58.88-1.07,1.25-1.48.85-.94,1.45-1.41,2-1.42a1.24,1.24,0,0,1,.74.26.87.87,0,0,1,.32.36,2.12,2.12,0,0,1,.19.57,9.11,9.11,0,0,1-.11,3,40.07,40.07,0,0,1-1.53,6c-.15.45-.3,1-.44,1.5q-.11.41-.21.84c-.27,1.15-.51,2.44-.69,3.78-.09.67-.16,1.35-.22,2s-.11,1.36-.13,2c0,.33,0,.67,0,1q0,1,.06,1.92a15.53,15.53,0,0,0,.21,1.75,31.38,31.38,0,0,1,.46,4.67,39,39,0,0,1-.38,6.1c-.07.54-.15,1.09-.23,1.66-.35,2.28-.49,5.17-.65,7.93a63.15,63.15,0,0,1-.57,6.45c0,.24-.08.48-.13.7-.11.5-.27,1.15-.47,1.91s-.44,1.62-.72,2.54c-.43,1.39-.94,2.92-1.51,4.46l-.39,1c-.07.19-.14.38-.22.56-.3.74-.62,1.48-1,2.19a33.14,33.14,0,0,1-1.58,3c6.6,1.53,10.6,5.16,13.35,6.4,3.61,1.63,7.27,2.9,14.55-2S136.66,276,148.09,276c5.61,0,12.13-.22,18.07-.62-.07-.23-.13-.47-.19-.72a17.64,17.64,0,0,1-.27-2.58c0-.94-.06-2-.08-3,0-.7,0-1.42-.08-2.15s-.1-1.46-.2-2.19c0-.37-.1-.73-.17-1.1a15.1,15.1,0,0,0-1-3.34c-.13-.29-.27-.58-.42-.86-1.24-2.29-2.26-4.59-3.2-6.79-.4-.91-.78-1.81-1.16-2.68s-.75-1.72-1.14-2.53a33.83,33.83,0,0,0-1.83-3.4c-.22-.34-.44-.68-.68-1-.63-.88-1.36-2-2.07-3.23-.24-.4-.48-.82-.71-1.24l-.53-1c-.35-.69-.68-1.38-1-2.05a12.31,12.31,0,0,1-1.19-4.42,2.33,2.33,0,0,1,.27-1.15,1.21,1.21,0,0,1,.33-.38,1.14,1.14,0,0,1,.65-.24,1.75,1.75,0,0,1,1.2.83c.13.17.26.36.4.57s.27.43.41.68c.28.48.57,1,.89,1.58s.65,1.14,1,1.72.58.85.9,1.26c.1.14.21.27.32.4a8,8,0,0,0,2.77,2.19,16.6,16.6,0,0,1,5.3,4,47.8,47.8,0,0,1,4.43,5.75c1.55,2.27,3.19,4.92,5,7.94.54.88,1,1.74,1.51,2.57,3.09,5.43,4.85,9.75,5.19,12.76a7,7,0,0,1,0,2.11l.27-.05C187.47,272.18,187.21,267.69,184.42,261.54Zm-69-29.56A6.62,6.62,0,0,0,114,236.5c-.1,2.6-.6,5.47-2.28,5.28s-3.07-5.35-1.68-10.89,3.83-13.79,5.73-13.63S116.36,230.39,115.37,232Zm16.75,39c-1.64,1-2.08-2.51-2.74-6.24a26.55,26.55,0,0,0-1.25-5c-1.76-4.36-3.44-7.24-2.92-12.34s-.82-8.46.5-8.86,1.31,3.39,2.61,5.43,3.47,3.52,2.89,12.06a28.78,28.78,0,0,0,.74,8.37C132.72,267.89,133.59,270.07,132.12,271Zm3.52-32.82c-2.73,1.5-5.9-9.23-7.81-13.46s-3.25-19.35-.78-19.7c3-.42,3.67,8.18,6,15.42S138.37,236.65,135.64,238.16Zm8-16.52c-1.38-1.54-3.16-5.6-2.27-6.79,1.22-1.62,4.55,1.59,4.55,5S145.07,223.19,143.68,221.64Z"/><path class="cls-6" d="M154.6,209.17c-.45-.65-.88-1.32-1.28-2a39,39,0,0,1-5.08-13c-.05-.32-.12-.62-.19-.9-.69-2.47-2.54-3.42-4.39-2-3.13,2.38-5.35.85-6.4-1a15.53,15.53,0,0,1-1.68-5.45,90.84,90.84,0,0,1-.71-13.52c0-10.24-1.38-16.62-6.47-19.14a8.7,8.7,0,0,0-1-.43,8.84,8.84,0,0,0-8,.85,25.16,25.16,0,0,0-6.27,6c-3.85,4.81-9.42,14.36-13.51,21.2-.73,1.21-1.41,2.35-2,3.35-1.07,1.74-2.88,4-4.57,6.57A32.35,32.35,0,0,0,90.63,194c2.29-1.62,6.25-3.91,10.52-4,6.61-.11,6.18,5.69,8.31,8.93s5.14,3.37,7.23-2.66,4.19-10.44,6.33-10.44,4.23,4.06,6,10.2,5.3,12,8,10.72c1.73-.8,2.95-7.28,7.61-.92,4.13,5.64,8,9.8,11.26,6.85.12-.19.23-.4.35-.62A22.36,22.36,0,0,0,154.6,209.17Z"/><path class="cls-6" d="M127.05,205c-2.47.35-1.13,15.47.78,19.7s5.08,15,7.81,13.46-.28-10.51-2.6-17.74S130.05,204.58,127.05,205Z"/><path class="cls-6" d="M141.41,214.85c-.89,1.19.89,5.25,2.27,6.79s2.28,1.53,2.28-1.84S142.63,213.23,141.41,214.85Z"/><path class="cls-6" d="M115.76,217.26c-1.9-.16-4.35,8.08-5.73,13.63s0,10.69,1.68,10.89,2.18-2.68,2.28-5.28a6.62,6.62,0,0,1,1.38-4.52C116.36,230.39,117.57,217.41,115.76,217.26Z"/><path class="cls-6" d="M132,264.41a28.78,28.78,0,0,1-.74-8.37c.58-8.54-1.6-10-2.89-12.06s-1.16-5.88-2.61-5.43,0,3.76-.5,8.86,1.16,8,2.92,12.34a26.55,26.55,0,0,1,1.25,5c.66,3.73,1.1,7.24,2.74,6.24C133.59,270.07,132.72,267.89,132,264.41Z"/><path class="cls-6" d="M180.87,271.57c-.34-3-2.1-7.33-5.19-12.76-.47-.83-1-1.69-1.51-2.57-1.82-3-3.46-5.67-5-7.94a47.8,47.8,0,0,0-4.43-5.75,16.6,16.6,0,0,0-5.3-4,8,8,0,0,1-2.77-2.19c-.11-.13-.22-.26-.32-.4q-.48-.61-.9-1.26c-.37-.58-.7-1.16-1-1.72s-.61-1.1-.89-1.58c-.14-.25-.28-.47-.41-.68s-.27-.4-.4-.57a1.75,1.75,0,0,0-1.2-.83,1.14,1.14,0,0,0-.65.24,1.21,1.21,0,0,0-.33.38,2.33,2.33,0,0,0-.27,1.15,12.31,12.31,0,0,0,1.19,4.42c.29.67.62,1.36,1,2.05l.53,1c.23.42.47.84.71,1.24.71,1.22,1.44,2.35,2.07,3.23.24.32.46.66.68,1a33.83,33.83,0,0,1,1.83,3.4c.39.81.76,1.66,1.14,2.53s.76,1.77,1.16,2.68c.94,2.2,2,4.5,3.2,6.79.15.28.29.57.42.86a15.1,15.1,0,0,1,1,3.34c.07.37.13.73.17,1.1.1.73.16,1.47.2,2.19s.07,1.45.08,2.15c0,1.05,0,2.07.08,3a17.64,17.64,0,0,0,.27,2.58c.06.25.12.49.19.72a111.72,111.72,0,0,0,14.69-1.69A7,7,0,0,0,180.87,271.57Z"/><path class="cls-5" d="M224.94,266c2.39-8.82-6.56-7.73-6.56-7.73-.25-10-9.07-6.53-9.07-6.53-1.28-5.38-7.69-4.36-8.88-2.08-5.63-3.43-11.2,1.27-10,5.1-12,2.11-8.95,11.9-8.95,11.9s-3.91-.55-6.05,2.2-.76,7.08-.76,7.08-2.27,1.27-1.76,3.28,1.38,2.52,24.71,2.52h30.13a4.64,4.64,0,0,0,4.18-2.39c.71-1.39.55-3.15-2.91-4.67C229,274.66,231.33,268.39,224.94,266Z"/><path class="cls-10" d="M188.81,273.67s-.94-2.58.67-3.54c1.8-1.06,3.71,1.57,3.71,1.57s-.22-4.53,4.21-2.28"/><path class="cls-10" d="M204.54,260.75s2.52-1.8,3.83-.65-.34,3.56-.34,3.56,4.22-.61,2.67,3.4"/></g></svg>