<svg xmlns="http://www.w3.org/2000/svg" width="354.337" height="281.379" viewBox="0 0 354.337 281.379">
  <g id="Group_2723" data-name="Group 2723" transform="translate(-1102.903 -620.877)">
    <g id="Group_566" data-name="Group 566" transform="translate(1103.013 720.39)">
      <path id="Path_2033" data-name="Path 2033" d="M685.807,498.867c-4.955-10.256,25.976-25.8,45.158-25.205,14.271.444,19.08-5.744,24.167-2.872s3.817,12.284-7.155,16.112-27.826-.478-37.048,8.136S688.352,504.131,685.807,498.867Z" transform="translate(-439.672 -389.628)" fill="#fff" stroke="#000" stroke-linejoin="round" stroke-width="0.2"/>
      <path id="Path_2034" data-name="Path 2034" d="M597.432,486.747c2.914-7.078,16.748,1.943,27.264.833s20.9-4.861,34.738,1.527,47.885,6.079,50.1,16.023-26.158-.056-34.461,6.47-31.693,4.026-45.118-2.222S594.8,493.133,597.432,486.747Z" transform="translate(-528.346 -375.547)" fill="#fff" stroke="#000" stroke-linejoin="round" stroke-width="0.2"/>
      <path id="Path_2035" data-name="Path 2035" d="M714.085,508.76c.779-5.786,13.758-5.6,24.26-14.263s20.439-12.929,22.14-9.928-5.445,9.158-14.257,13.388-8.61,11.5-18.052,13.342C717.416,513.4,713.784,511,714.085,508.76Z" transform="translate(-410.682 -375.947)" fill="#fff" stroke="#000" stroke-linejoin="round" stroke-width="0.2"/>
      <path id="Path_2036" data-name="Path 2036" d="M742.644,463.2c4.59.67,1.054,21.667-5.531,20.479S735.4,462.144,742.644,463.2Z" transform="translate(-390.601 -396.542)" fill="#fff" stroke="#000" stroke-linejoin="round" stroke-width="0.2"/>
      <ellipse id="Ellipse_398" data-name="Ellipse 398" cx="3.915" cy="5.646" rx="3.915" ry="5.646" transform="matrix(0.868, -0.496, 0.496, 0.868, 275.738, 18.12)" fill="#fff" stroke="#000" stroke-linejoin="round" stroke-width="0.2"/>
      <path id="Path_2037" data-name="Path 2037" d="M564.623,470.628c3.45,1.17,8.046-8.616,20.615-18.975s33.126-12.993,30.578-19.315-15.5,1.238-29.727,8.078C569.62,448.335,558.446,468.533,564.623,470.628Z" transform="translate(-562.899 -429.966)" fill="#fff" stroke="#000" stroke-linejoin="round" stroke-width="0.2"/>
      <path id="Path_2038" data-name="Path 2038" d="M585.884,447.338c3.265,1.638-.7,8.024-4.907,15.245s-1.7,14.119,3.042,17.809,6.135,7.863,3.041,10.27-9.013-2.087-10.452-10.109-4.672-8.985-2.416-18.131S582.366,445.574,585.884,447.338Z" transform="translate(-552.31 -412.729)" fill="#fff" stroke="#000" stroke-linejoin="round" stroke-width="0.2"/>
      <path id="Path_2039" data-name="Path 2039" d="M596.668,474.383c1.572-2.139,4.277,1.319,9.485,1.132s4.929,6.438-.464,6.344S594.621,477.168,596.668,474.383Z" transform="translate(-529.326 -385.947)" fill="#fff" stroke="#000" stroke-linejoin="round" stroke-width="0.2"/>
      <path id="Path_2040" data-name="Path 2040" d="M629.906,515.24c2.276-3.994,8.327-3.165,17.769,2.705s17.689.668,27.134,0,14.9.4,14.9,4.136-9.443,3.872-16.758,3.6-21.135,5.425-32.906,1.381S628.692,517.371,629.906,515.24Z" transform="translate(-496.017 -346.583)" fill="#fff" stroke="#000" stroke-linejoin="round" stroke-width="0.2"/>
      <path id="Path_2041" data-name="Path 2041" d="M720.151,441.124c5.328-.787,5.924,7.986,13.43,12.872s8.164,26.556,2.766,25.893-3.514-11.737-10.271-15.455C715.278,458.488,711.591,442.388,720.151,441.124Z" transform="translate(-409.324 -418.781)" fill="#fff" stroke="#000" stroke-linejoin="round" stroke-width="0.2"/>
    </g>
    <g id="Group_721" data-name="Group 721" transform="translate(1167.261 621.037)">
      <g id="Group_720" data-name="Group 720">
        <path id="Path_2707" data-name="Path 2707" d="M797.632,473.275c-5.326,5.655-16.463,6.966-22.634-.01-7.376-8.341-8.642-10.067-21.781-8.666-15.257,1.628-17.22-54.2-26.078-54.1S718.4,440.176,703.6,442.059s-18.361-15.871-33.1-26.9c-9.266-6.934-20.4-6.212-27.4-4.718a281.533,281.533,0,0,0-31.049,57.222c-6.653,17.3-21.579,25.863-15.855,41.961,3.452,9.708,29.9,8.564,56.892,9.266s54.843,19.676,69.972,12.648,41.09-14.229,65.159-14.757,24.069-14.757,24.069-14.757A188.122,188.122,0,0,0,797.632,473.275Z" transform="translate(-594.912 -351.278)" fill="#e0d0b1" stroke="#000" stroke-linejoin="round" stroke-width="0.2"/>
        <path id="Path_2708" data-name="Path 2708" d="M646.318,444.337c14.743,11.034,18.3,28.787,33.1,26.9s14.683-31.455,23.541-31.559,10.821,55.726,26.078,54.1c13.139-1.4,14.406.325,21.781,8.666,6.171,6.976,17.308,5.666,22.634.01-6.48-10.34-14.073-19.752-21.28-23.084-14.44-6.677-17.109-6.326-22.191-24.495s-5.927-28.982-17.356-47.151-39-45.292-61.589-10.318c-7.59,11.75-23.391,30.014-32.121,42.208C625.917,438.126,637.052,437.4,646.318,444.337Z" transform="translate(-570.736 -380.462)" fill="#fff" stroke="#000" stroke-linejoin="round" stroke-width="0.2"/>
      </g>
      <path id="Path_2709" data-name="Path 2709" d="M635.808,419.164c6.476,3.111-2.051,17.918-9.84,27.344s-11.482,29.538-18.042,26.606,8.6-19.62,12.3-32.472C623.823,428.161,631.276,416.988,635.808,419.164Z" transform="translate(-583.445 -341.766)" fill="#fff" stroke="#000" stroke-linejoin="round" stroke-width="0.2"/>
      <path id="Path_2710" data-name="Path 2710" d="M657.271,431.336c3.416-1.84,10.04,4.54,9.122,24.105s.463,29.114-4.518,30.367-7.125-14.922-5.286-31.176S653.2,433.527,657.271,431.336Z" transform="translate(-533.726 -329.539)" fill="#fff" stroke="#000" stroke-linejoin="round" stroke-width="0.2"/>
      <path id="Path_2711" data-name="Path 2711" d="M672.806,444c4.937-1.471,7.243,3.927,9.166,12.084s10.2,16.465,5.912,19.636-6.653-9.364-12.86-16.916S669.257,445.055,672.806,444Z" transform="translate(-519.076 -316.729)" fill="#fff" stroke="#000" stroke-linejoin="round" stroke-width="0.2"/>
    </g>
  </g>
</svg>
