<svg id="圖層_1" data-name="圖層 1" xmlns="http://www.w3.org/2000/svg" viewBox="0 0 572.17 216.53"><defs><style>.cls-1,.cls-10,.cls-4{fill:#fff;}.cls-2{opacity:0.32;}.cls-3{fill:#fbc6a6;}.cls-10,.cls-3,.cls-4,.cls-5,.cls-6,.cls-7,.cls-8,.cls-9{stroke:#000;stroke-linejoin:round;}.cls-3,.cls-4,.cls-5,.cls-6,.cls-7,.cls-8,.cls-9{stroke-width:0.23px;}.cls-5{fill:#e5aeae;}.cls-6{fill:#b25269;}.cls-7{fill:#fff6eb;}.cls-8{fill:none;}.cls-9{fill:#ea6157;}.cls-10{stroke-width:0.16px;}</style></defs><title>03</title><path class="cls-1" d="M569.73,130.57c-.68-5.22-7.78-8.54-17.86-11.18.93-3.78-1.5-7.52-5.44-9.76-7.66-4.35-14.91-6.18-22.18-15.06s-19.06-23-33.48-12.69C482.13,88,476.34,91,471.19,92.66c-7.4-7.91-11.47-17.13-24.56-27.86,11.37,1.13,22.18.55,25.08-.88,4-2,5.61-8.24-1.83-13.19s-12.27-9.31-14.63-20.09S443.54,16.54,435,23.82s-16.18,12.06-21.66,12.47c-3.75.27-8,.77-10.37,3.2-26.16-18.84-46.32-15.2-61-12.38-15,2.87-37.42-9.73-65.65-11-20.23-.9-39.9-.19-59.52,5.8a123.57,123.57,0,0,0-23.29,9.79,137.79,137.79,0,0,0-39.79,33q-4.86.34-9.65.78A28.35,28.35,0,0,1,140.44,60c-1.84-4.64-4.72-9.81-9.45-9.12-2.76.41-3.92,2.56-4.35,5.23-1.31-8.38-15.19-31-26.87-28.87C94.09,28.29,90.61,33.51,88.69,40c-5-3.12-12.15-4.77-16.44-4.52-6.53.38-11.93-3.14-10.8-5.9s5.28.38,11.8,2.26,6.53-5.27,4.77-8.41-8.38-6-15.31-6.15-9.29.25-10.42-1.38-.38-3.27,2-7-.25-7.83-3.39-8.7S44,1.57,43.9,6.46,42,12.57,36.82,11.31s-9.61,2.43-8.15,6.48c1,2.7,3.39,3.87,6.64,3.44,3.52-.46,6.61-4,8.59-2s-1.91,7-6.13,14.59S37.48,47,43.4,47.67s3.15-16.08,7.72-15.43.89,14.68-1.8,20.07c-.89,1.77-1.89,3.76-2.76,5.8-2.49-.94-5.65.29-7.09,4.31-2.08,5.81-7.08,5.43-6.45,0s-1.87-7.7-4.63-7.68c-2.55,0-5.21,2.7-4.33,7.68,1.1,6.14-2,4.32-6.66,6.24-5.83,2.4-6.56,10.2-2.29,12.67s7-2.52,9.86-5.44c2-2.1,5.92-1.06,3.85,5.12-1,2.95-1.13,10.83,2.28,14.1A43.18,43.18,0,0,0,25,100c-9.13,9-10.06,17.46-12.65,25.54s-17.14,14.56-8.09,26.53,34,20.06,49.82,23.5,62.44,14.35,85.78,18.56,31.66,9.38,54.63,18.44,34.29.64,73.76-5.18,70.85-5.17,123.58-3.88,96.15-7.66,115.14-9.38c31.46-2.85,45.64-22.65,52.11-30.56S571.67,145.58,569.73,130.57ZM124.31,67.76A11.55,11.55,0,0,0,126.65,64a26.62,26.62,0,0,1,.1,2.93c0,.18,0,.36-.07.54ZM83.05,52.41a19.76,19.76,0,0,0,3.74.44c-.06,1.88,0,3.71.08,5.45-3.24.09-5.94,0-7.46-.74C74.51,55,77.9,51.28,83.05,52.41Zm-24.86,10c1-3.15,4-6.19,6.94-5.25l2.72,5.5c-.5,2.8-2.1,6.25-2.67,9.79-6.53,1-13.72,4-15.9,1.59a3.74,3.74,0,0,1-.87-1.53C53,73.55,57.16,65.64,58.19,62.42ZM39,86.66l.15-.06,2,2.87c-1.56.75-3,1.51-4.44,2.27C37.11,89.59,37.54,87.37,39,86.66Z"/><g class="cls-2"><path class="cls-3" d="M25,100C44.46,80.85,115.51,63.6,185.38,63.63S379.51,27,423.91,50.19s35.81,40.52,62.3,53.3,81.57,12.07,83.52,27.08-4.21,25.06-10.68,33-20.65,27.71-52.11,30.56c-19,1.72-62.41,10.67-115.14,9.38s-84.12-1.94-123.58,3.88-50.79,14.24-73.76,5.18-31.29-14.24-54.63-18.44S69.91,179,54.05,175.55,13.29,164,4.23,152.05s5.5-18.44,8.09-26.53S15.84,109,25,100Z"/><ellipse class="cls-4" cx="369.28" cy="127.06" rx="6.1" ry="2.89"/><path class="cls-5" d="M132.39,78.73a11.11,11.11,0,0,1-.59,8.7c-2.28,4.9-3.72,9.21-1.19,15.38L135,100a33.63,33.63,0,0,1,1.5-13.71c1.62-4.72.59-8.45,0-9.3Z"/><path class="cls-6" d="M126.78,73.29c.59,1.09,2.67,1.59,4.72.12,3.21-2.3,5.08,1.06,8.94-.57,2.57-1.09,1.95-4.37,4.93-5.22-1.46-2.53-3.94-5.11-4.93-7.62-1.84-4.64-4.72-9.81-9.45-9.12-6.65,1-4,12.06-4.24,16a41,41,0,0,1-1.08,5.38A2.09,2.09,0,0,1,126.78,73.29Z"/><path class="cls-7" d="M145.37,67.62c-3,.85-2.36,4.13-4.93,5.22-3.86,1.63-5.73-1.73-8.94.57-2.05,1.47-4.13,1-4.72-.12a2.09,2.09,0,0,0-1.11-1,6.74,6.74,0,0,0,1.08,5.62c2.71,3.82,13.67,1.52,18.6-4C147.12,71.88,146.62,69.77,145.37,67.62Z"/><path class="cls-8" d="M135,58.34c-.06,3.32,2.89,5,3.12,7.31"/><path class="cls-8" d="M127.33,73.88a7.3,7.3,0,0,0,1.94,5.62"/><path class="cls-8" d="M142.35,70.91a9.77,9.77,0,0,1,0,5.52"/><path class="cls-8" d="M130.71,73.88s.39,4.25,2.75,5.82"/><path class="cls-8" d="M137.65,73.27s1.51,3.82.5,5.28"/><path class="cls-9" d="M28.67,17.79c-1.46-4,2.93-7.73,8.15-6.48s7,0,7.08-4.85,3.87-7.15,7-6.27,5.77,5,3.39,8.7-3.14,5.36-2,7,3.49,1.2,10.42,1.38,13.56,3,15.31,6.15,1.76,10.29-4.77,8.41-10.67-5-11.8-2.26,4.27,6.28,10.8,5.9S91.83,39.1,94.22,46s-6,7.53-11.17,6.4S74.51,55,79.41,57.56s22-2.45,29.8,3.87S108.46,72.28,99.47,73s-12.19.47-12,3.27,9.79,1.8,16,5.19,9.19,9.67,5,11.33-9.79-2.46-11.39,0,11.19,17.24,10.59,20.84-14.88,13-18.93,11S67.9,110,68.3,101s2.2-10,7-14.38,5.26-7.89.8-8.59-11.78,1-11-5.07,5-12.06,1.58-14.92-7.3.7-8.49,4.39-6.48,13.57-11.83,9c-4.7-4-.16-12.9,3-19.13,2.69-5.39,6.36-19.43,1.8-20.07s-1.8,16.12-7.72,15.43-9.84-6.25-5.63-13.81,8.11-12.51,6.13-14.59-5.07,1.5-8.59,2C32.06,21.66,29.65,20.49,28.67,17.79Z"/><path class="cls-8" d="M44.54,15.52C66.61,37,89.47,79.08,97.61,122.85"/><path class="cls-5" d="M129.93,115s-11.83-7.08-13.74-21.14S109.85,73,109.85,73l4.63-2s4.42,6.83,6.33,20.89S134.56,113,134.56,113Z"/><path class="cls-7" d="M88.34,67.14a18.2,18.2,0,0,0,2.4,4.12,11.29,11.29,0,0,0,8.34,4.29c5.22.29,14.81-.19,23.36-6.16A11.32,11.32,0,0,0,126.94,57a6.4,6.4,0,0,0-.2-.62C125.31,52.27,88.34,67.14,88.34,67.14Z"/><path class="cls-8" d="M94,69.19a14.25,14.25,0,0,0,6.44,6.41"/><path class="cls-8" d="M108.92,74.93a12.72,12.72,0,0,1-4.13-6.63"/><path class="cls-8" d="M111.28,68.3s.32,4,1.91,5.58"/><path class="cls-8" d="M119.19,62.73s1.74,5.37.54,8.36"/><path class="cls-8" d="M123.53,62a11.89,11.89,0,0,1-.23,6.72"/><path class="cls-8" d="M114.91,66.49s.65,4.75,2.55,5.76"/><path class="cls-8" d="M99.38,68.3s1.71,6,5.41,7.18"/><path class="cls-6" d="M99.77,27.24c12.46-2.31,27.43,23.65,27,30.35s-6.58,3.41-8.93,6-4.9,6-12.23,4.82c-8.69-1.37-12.06,3-17.23-1.27C85.12,57.45,85.84,29.82,99.77,27.24Z"/><path class="cls-8" d="M110.51,40.23s1.73,7.21,6.27,10"/><path class="cls-8" d="M105.38,37s.71,5,2.48,6.84"/><path class="cls-5" d="M446.38,60.94s-3.54,13.33,1.35,23.68c6.22,13.17-8.4,15.31-16.58,9-6.47-5-2.37-11.41-.67-19.72a42.32,42.32,0,0,0,.29-15.43S443.4,53.59,446.38,60.94Z"/><path class="cls-7" d="M434.89,89.46c1-1.4,3.69,1.3,3.77,2.79s-1.28,1-2.61-.1C435.23,91.47,434.44,90.12,434.89,89.46Z"/><path class="cls-6" d="M401.2,44.27c0-6.71,6.63-7.58,12.11-8S426.4,31.1,435,23.82s17.94-3.9,20.28,6.82,7.18,15.14,14.63,20.09,5.86,11.2,1.83,13.19-23.48,2.34-38.34-1.32S401.2,51,401.2,44.27Z"/><path class="cls-8" d="M434.05,31.18s-3,5.91-9.58,6.9"/><path class="cls-8" d="M434.05,36.29a10,10,0,0,1-6.87,4"/><path class="cls-8" d="M431.15,31.18a9.35,9.35,0,0,1-3.53,2.7"/><path class="cls-8" d="M456.11,40.29s-.25,4.87,3.36,7.34"/><path class="cls-8" d="M460,45.13a10.57,10.57,0,0,0,2.74,2.77"/><ellipse class="cls-3" cx="466.82" cy="58.87" rx="3.57" ry="1.45"/><ellipse class="cls-3" cx="453.19" cy="61.19" rx="1.72" ry="2.96" transform="translate(214.12 451.02) rotate(-66.17)"/><ellipse class="cls-3" cx="461.88" cy="54.62" rx="1.78" ry="1.11"/><ellipse class="cls-3" cx="412.64" cy="45.09" rx="2.75" ry="6.29" transform="translate(137.98 356.33) rotate(-54.81)"/><ellipse class="cls-3" cx="424.08" cy="54.04" rx="1.61" ry="2.66" transform="translate(135.51 369.47) rotate(-54.81)"/><ellipse class="cls-3" cx="421.6" cy="46.52" rx="1.28" ry="2" transform="translate(119.86 344.62) rotate(-50.95)"/><path class="cls-3" d="M418.71,88.31c1.75,2.29,3.47,4.56,5.2,6.8C422.18,92.87,420.46,90.59,418.71,88.31Z"/><path class="cls-3" d="M376,48.47l-1.42-.65,1.42.65Z"/><path class="cls-3" d="M408.86,75.93l.63.74h0Z"/><path class="cls-3" d="M409.49,76.67h0l.09.1Z"/><path class="cls-7" d="M229.35,61.5c19.73-2.61,24.27,2.23,41,3.35s24.91-6.33,36.08-18.62c2.89-3.18,5.21-5.51,7-7.22-5.34-2.14-10.87-4.5-27.53-4.69C253.54,34,226.37,46.23,204.4,60l-.43.28A67.07,67.07,0,0,0,229.35,61.5Z"/><path class="cls-9" d="M228.75,126.45c-2.89,2.71-7.3,5.56-13.9,2.68a230.85,230.85,0,0,1-36,32.48c8.48,2.91,16.74,3.86,24.4,0,16.44-8.22,29-26.15,38.48-39.66-1.88-.56-3.73-1-5.51-1.43C233.72,123.14,231.09,124.26,228.75,126.45Z"/><path class="cls-3" d="M228.75,126.45c2.34-2.19,5-3.31,7.51-5.9a90.6,90.6,0,0,0-12.9-2l-1.91,2.51c-2.11,2.76-4.33,5.44-6.6,8C221.45,132,225.86,129.16,228.75,126.45Z"/><path class="cls-9" d="M320.32,127.85c-19.92,6.18-42.15,3.66-66-7.5a79,79,0,0,0-8.88-3.48c-1.86-.6-3.69-1.12-5.47-1.57A95.51,95.51,0,0,0,227.59,113c-1.37,1.79-2.77,3.65-4.23,5.57a90.6,90.6,0,0,1,12.9,2c1.78.4,3.63.87,5.51,1.43a72,72,0,0,1,10,3.76c16.21,7.56,31.76,11.36,46.46,11.36a80.14,80.14,0,0,0,23.87-3.57c18.16-5.64,32.3-14.43,42.33-26.23q-2.91-1.29-5.58-2.67C349.58,115,336.71,122.77,320.32,127.85Z"/><path class="cls-9" d="M371.6,88.77c-.61-.36-1.23-.72-1.86-1.06a65.11,65.11,0,0,1-7.06,12.18q2.64,1.32,5.49,2.55a70.86,70.86,0,0,0,6.66-11.59C373.78,90.13,372.7,89.43,371.6,88.77Z"/><polygon class="cls-3" points="425.59 97.27 425.59 97.27 425.59 97.27 425.59 97.27"/><path class="cls-7" d="M376.3,48.62l1.21.61.57.3L379,50l.61.34.93.54.58.34,1.13.71.36.23c.49.31,1,.63,1.47,1l.51.34,1,.71.59.42,1,.72.57.43,1.09.83.46.36c.51.4,1,.81,1.54,1.24l.37.3,1.22,1L393,60l1.08.93.59.51,1.13,1,.53.47c.55.5,1.11,1,1.67,1.54s1.3,1.22,1.94,1.83l.63.62,1.25,1.25.73.75,1.1,1.15.75.81,1,1.11.75.84,1,1.11c.24.29.49.57.74.85l1,1.13.63.74h0l.09.1.95,1.15.69.83,1,1.23.62.76,1.51,1.91.89,1.14.64.82,1,1.35.45.59,1.28,1.66.07.1c1.75,2.28,3.47,4.56,5.2,6.8l.13.16,1.55,2h0a61.65,61.65,0,0,1-.58-11c.34-9.8-3.23-12.52-5.45-16-5.72-8.84-10.7-6.46-15.28-11.82s-10.15-11.6-18.23-14.43c-5.32-1.86-8.5,1.71-10.05,4.36h0Z"/><polygon class="cls-3" points="425.59 97.27 425.59 97.27 425.59 97.26 425.59 97.27"/><path class="cls-3" d="M129.34,138.73c-1.51-8.66,5.85-18.62,6.5-25.11s1.08-9.31,3.25-15.37A12.73,12.73,0,0,0,138,87.43c-.68,1.19-1.33,2.38-2,3.56-11.23,21.21-22.49,23-26.2,36.18-2.16,7.7.37,12.92,19,15.39A6.28,6.28,0,0,0,129.34,138.73Z"/><path class="cls-7" d="M165.5,150.43c6.71-13.43,1.3-21.22,3.68-32.05s8.23-9.31,9.71-17.75S175.8,85,175.76,84.89c-12.3,13.26-22.88,27.84-27.57,37.66-5.11,10.67-7,18-7.75,22,7.11,2.14,14.51,6,21.95,9.7A10.82,10.82,0,0,0,165.5,150.43Z"/><path class="cls-9" d="M480.38,127.17c-21.83-19.34-49.28-66.74-76.1-86.71S356.87,24.25,341.9,27.11s-37.42-9.73-65.65-11c-20.23-.9-39.9-.19-59.52,5.8-1,5.84-4.81,19.59-17.67,23.41-16.48,4.9-21.38,6.91-25.39,12.48s-5.72,12.55-12,14c-7.43,1.71-11.84,1.1-13.93.52A154.12,154.12,0,0,0,138,87.43a12.73,12.73,0,0,1,1.08,10.82c-2.17,6.06-2.6,8.87-3.25,15.37s-8,16.45-6.5,25.11a6.28,6.28,0,0,1-.46,3.83c1.27.17,2.62.33,4,.47a37,37,0,0,1,6,1.13c.51.14,1,.27,1.54.43.72-4,2.64-11.37,7.75-22,4.69-9.82,15.27-24.4,27.57-37.66,9-9.71,19-18.72,28.21-24.6l.43-.28c22-13.78,49.14-26.06,81.53-25.69,16.66.19,22.19,2.55,27.53,4.69,5.05,2,9.93,3.86,23.85,3.5l2.38,0h.41c.75,0,1.49,0,2.21,0h.43c.74,0,1.47,0,2.18,0h.14l2,0h.36l2,.07.42,0,1.94.1.23,0,1.77.13.32,0,1.79.17.4.05c.58.06,1.17.13,1.74.21l.29,0,1.58.23.27,0,1.64.29.38.07,1.58.33.32.07,1.47.35.2.05c.52.13,1,.27,1.54.42l.36.1,1.47.45.34.11,1.4.49.16,0,1.44.55.35.14c.47.19.93.38,1.39.59l.35.15,1.42.65c1.55-2.65,4.73-6.22,10.05-4.36,8.08,2.83,13.66,9.07,18.23,14.43s9.56,3,15.28,11.82c2.22,3.43,5.79,6.15,5.45,16a61.65,61.65,0,0,0,.58,11h0l.86,1.08.5.63.76,1,.6.74.73.89.64.78.71.84.69.81.69.8.74.85.66.74.88,1,.54.6c.47.5.94,1,1.42,1.49l.49.5,1,1,.6.58.92.88.64.6.91.83.67.59.93.8.67.56,1,.81.64.51,1.12.85.56.42c.57.41,1.15.82,1.73,1.21s1.1.77,1.65,1.17c3.12-.64,8.23-.69,14.78,2.79,11.21,6,14.89,12.79,20.15,18.75,4.57,5.18,7.68,15.53,4.38,20.21a89,89,0,0,0,7.38,7.17c1.85-.39,3.66-.83,5.37-1.32C514.69,164.6,502.22,146.51,480.38,127.17Z"/><path class="cls-3" d="M161.64,71.83c6.31-1.45,8-8.44,12-14s8.91-7.58,25.39-12.48c12.86-3.82,16.63-17.57,17.67-23.41a123.57,123.57,0,0,0-23.29,9.79,140.08,140.08,0,0,0-45.73,40.62C149.8,72.93,154.21,73.54,161.64,71.83Z"/><path class="cls-7" d="M310.21,84.31c-3-4-7-4.62-11.12-4.22-4.56.45-10.11-1.76-16.4,3a16.75,16.75,0,0,0-6.22,10.46A99.77,99.77,0,0,1,293,88.67C298.79,87.55,304.42,85.88,310.21,84.31Z"/><path class="cls-3" d="M245,92.46a71.11,71.11,0,0,1,13.35-10.18c-1.75,0-3.71-.09-5.85-.2-9.79-.53-15,.4-18.52,7.51a18.33,18.33,0,0,0-1.7,7.92,35.92,35.92,0,0,0,.92,8.23A132.16,132.16,0,0,1,245,92.46Z"/><path class="cls-3" d="M393.89,109.85c0-.13.06-.28.09-.42l-.45-.05Z"/><path class="cls-3" d="M325.51,71.69l3.66.79.35.08c17.34,3.81,25.13,2.42,40.37,14.79l1.71,1.42h0c1.1.66,2.18,1.36,3.23,2.08a84.67,84.67,0,0,1,18.7,18.53l.45.05c1.52-7,2.23-20-8.49-26.86-12.2-7.85-16.35-23-34.21-24a31.9,31.9,0,0,0-27.92,12.63l2.15.46Z"/><path class="cls-9" d="M246.91,103c-1.53,7.22-3.48,5.27-7,12.27h0c1.78.45,3.61,1,5.47,1.57,1.57-2.18,3.05-4.17,4.43-5.86,6.36-7.77,16.59-13.6,26.65-17.5a16.75,16.75,0,0,1,6.22-10.46c6.29-4.72,11.84-2.51,16.4-3,4.07-.4,8.08.19,11.12,4.22a119.17,119.17,0,0,1,18-3.75q3.17-.36,6.48-.45h1.17C351.05,80,365,85.38,365,85.38a52.43,52.43,0,0,1,4.76,2.33c.63.34,1.25.7,1.86,1.06h0l-1.71-1.42c-15.24-12.37-23-11-40.37-14.79l-.35-.08-3.66-.79-.13.08.13-.08-2.15-.46c-14.94-3-25.78-3.55-48.9,4a80.38,80.38,0,0,0-16.07,7.1A71.11,71.11,0,0,0,245,92.46C246.4,95.06,247.78,98.94,246.91,103Z"/><path class="cls-3" d="M239.92,115.3c3.51-7,5.46-5,7-12.27.87-4.09-.51-8-1.87-10.57a132.16,132.16,0,0,0-11.8,13.28c-1.84,2.31-3.7,4.74-5.65,7.29a95.51,95.51,0,0,1,12.33,2.27Z"/><polygon class="cls-3" points="325.38 71.77 325.51 71.69 325.51 71.69 325.38 71.77"/><path class="cls-9" d="M393.53,109.38a85,85,0,0,1-16.11-3.5c-3.25-1-6.33-2.19-9.25-3.44q-2.85-1.23-5.49-2.55A97.16,97.16,0,0,1,335.86,80.1h-1.17q-3.31.09-6.48.45a100.15,100.15,0,0,0,30.62,24.07q2.67,1.38,5.58,2.67a111.51,111.51,0,0,0,11.21,4.25,89.68,89.68,0,0,0,22.51,4.22c-1.37-2-2.78-4-4.24-5.92Z"/><path class="cls-7" d="M470.34,141.05c6.46,7.44,12.63,15.15,18.5,21.44,3.3-4.68.19-15-4.38-20.21-5.26-6-8.94-12.79-20.15-18.75-6.55-3.48-11.66-3.43-14.78-2.79C456.77,126,463.71,133.39,470.34,141.05Z"/><path class="cls-3" d="M449.53,120.74q-.82-.6-1.65-1.17c-.58-.39-1.16-.8-1.73-1.21l-.56-.42-1.12-.85-.64-.51-1-.81-.67-.56-.93-.8-.67-.59-.91-.83-.64-.6-.92-.88-.6-.58-1-1-.49-.5c-.48-.49-.95-1-1.42-1.49l-.54-.6-.88-1-.66-.74-.74-.85-.69-.8-.69-.81-.71-.84-.64-.78-.73-.89-.6-.74L427,99l-.5-.63-.86-1.08h0l-1.55-2-.13-.16c-1.73-2.24-3.45-4.51-5.2-6.8l-.07-.1-1.28-1.66-.45-.59-1-1.35-.64-.82-.89-1.14-1.51-1.91-.62-.76-1-1.23-.69-.83-.95-1.15-.09-.1a48.78,48.78,0,0,0,2.14,30.08c.36.85.72,1.63,1.09,2.38a30.42,30.42,0,0,0,3.39,5.46C422,122,428.94,122.22,435,128c7.73,7.32,8.54,13.22,17.7,14.64a37.68,37.68,0,0,0,10.32.27,28.15,28.15,0,0,0,7.3-1.85C463.71,133.39,456.77,126,449.53,120.74Z"/><path class="cls-9" d="M488.84,162.49c-5.87-6.29-12-14-18.5-21.44a28.15,28.15,0,0,1-7.3,1.85,37.68,37.68,0,0,1-10.32-.27c-9.16-1.42-10-7.32-17.7-14.64-6.08-5.77-13-6-18.91-13.4a30.42,30.42,0,0,1-3.39-5.46c-.37-.75-.73-1.53-1.09-2.38a48.78,48.78,0,0,1-2.14-30.08l-.63-.74-1-1.13c-.25-.28-.5-.56-.74-.85l-1-1.11-.75-.84-1-1.11-.75-.81-1.1-1.15-.73-.75-1.25-1.25-.63-.62c-.64-.61-1.28-1.23-1.94-1.83s-1.12-1-1.67-1.54l-.53-.47-1.13-1-.59-.51L393,60l-.56-.48-1.22-1-.37-.3c-.52-.43-1-.84-1.54-1.24l-.46-.36-1.09-.83-.57-.43-1-.72-.59-.42-1-.71-.51-.34c-.49-.34-1-.66-1.47-1l-.36-.23-1.13-.71-.58-.34-.93-.54L379,50l-.94-.51-.57-.3-1.21-.61-.3-.15-1.42-.65-.35-.15c-.46-.21-.92-.4-1.39-.59l-.35-.14-1.44-.55-.16,0-1.4-.49-.34-.11-1.47-.45-.36-.1c-.51-.15-1-.29-1.54-.42l-.2-.05-1.47-.35-.32-.07L362.21,44l-.38-.07-1.64-.29-.27,0-1.58-.23-.29,0c-.57-.08-1.16-.15-1.74-.21l-.4-.05-1.79-.17-.32,0L352,42.71l-.23,0-1.94-.1-.42,0-2-.07h-.36l-2,0h-.14c-.71,0-1.44,0-2.18,0h-.43c-.72,0-1.46,0-2.21,0h-.41l-2.38,0c-13.92.36-18.8-1.47-23.85-3.5-1.84,1.71-4.16,4-7,7.22C295.24,58.52,287.05,66,270.33,64.85s-21.25-6-41-3.35A67.07,67.07,0,0,1,204,60.29c-9.25,5.88-19.19,14.89-28.21,24.6,0,.06,4.61,7.33,3.13,15.74s-7.33,6.93-9.71,17.75,3,18.62-3.68,32.05a10.82,10.82,0,0,1-3.11,3.86,140.06,140.06,0,0,0,16.5,7.32,230.85,230.85,0,0,0,36-32.48c2.27-2.58,4.49-5.26,6.6-8l1.91-2.51c1.46-1.92,2.86-3.78,4.23-5.57,1.95-2.55,3.81-5,5.65-7.29a35.92,35.92,0,0,1-.92-8.23,18.33,18.33,0,0,1,1.7-7.92c3.55-7.11,8.73-8,18.52-7.51,2.14.11,4.1.17,5.85.2a80.38,80.38,0,0,1,16.07-7.1c23.12-7.5,34-7,48.9-4A31.9,31.9,0,0,1,351.28,58.6c17.86,1,22,16.12,34.21,24,10.72,6.89,10,19.83,8.49,26.86,0,.14-.06.29-.09.42,1.46,1.93,2.87,3.91,4.24,5.92,10.35,15.18,18.27,32,26.74,43.21,15.59,20.59,28.07,15,36.8,14.35,7.59-.54,22.24-1.08,34.55-3.67A89,89,0,0,1,488.84,162.49Z"/><path class="cls-9" d="M260.11,179.93a3.6,3.6,0,0,0,.51-7h0L264,171.4a3.6,3.6,0,0,0-.71-6.76l-3.61-.85,3.1-1.84a3.6,3.6,0,0,0-1.38-6.66l-3.57-.46,2.71-2.05a3.6,3.6,0,0,0-2.15-6.47H255l2.2-2.21a3.59,3.59,0,0,0-3.09-6.09l-3.07.46,1.58-2.25a3.6,3.6,0,0,0-4.16-5.45l-2.58.92,1-2.27a3.6,3.6,0,0,0-5.25-4.44l-2.08,1.32.42-2.44a3.6,3.6,0,0,0-6.12-3.12l-1.73,1.78-.14-2.77a3.6,3.6,0,0,0-6.64-1.73l-1.48,2.34-.76-3.06a3.6,3.6,0,0,0-6.81-.53L215,119.68l-1.22-2.91a3.6,3.6,0,0,0-6.81.52l-.75,3.06L204.74,118a3.6,3.6,0,0,0-6.63,1.74L198,122.5l-1.73-1.77a3.6,3.6,0,0,0-6.12,3.12l.42,2.44L188.45,125a3.6,3.6,0,0,0-5.24,4.44l1,2.28-2.57-.93a3.6,3.6,0,0,0-4.16,5.46l1.57,2.24L176,138a3.59,3.59,0,0,0-3.09,6.09l2.2,2.21h-3.4a3.59,3.59,0,0,0-2.16,6.46l2.72,2.06-3.58.46a3.6,3.6,0,0,0-1.38,6.66l3.11,1.84-3.63.85a3.6,3.6,0,0,0-.71,6.76L169.4,173h0a3.6,3.6,0,0,0,.51,7A207.32,207.32,0,0,0,215,184.7C236.28,184.7,260.11,179.93,260.11,179.93Z"/><path class="cls-8" d="M227.4,142.43s1.88-5,4.71-3.28,0,6,0,6"/><path class="cls-6" d="M162.14,180.79c17.15,0,29.06-5.2,29.06-5.2a2.32,2.32,0,0,0,.33-4.48h0l2.16-1a2.31,2.31,0,0,0-.45-4.35l-2.33-.55,2-1.18a2.32,2.32,0,0,0-.89-4.3l-2.3-.29,1.75-1.33a2.31,2.31,0,0,0-1.39-4.16h-2.19l1.42-1.42a2.32,2.32,0,0,0-2-3.93l-2,.3,1-1.45a2.32,2.32,0,0,0-2.68-3.51l-1.66.59.62-1.46a2.32,2.32,0,0,0-3.38-2.87l-1.34.86.27-1.57a2.33,2.33,0,0,0-3.95-2l-1.11,1.15-.1-1.78a2.31,2.31,0,0,0-4.27-1.12l-1,1.51-.48-2a2.32,2.32,0,0,0-4.39-.34l-.79,1.88-.78-1.88a2.32,2.32,0,0,0-4.39.34l-.49,2-1-1.51a2.32,2.32,0,0,0-4.27,1.11l-.09,1.79L150,137.44a2.32,2.32,0,0,0-3.94,2l.27,1.57-1.34-.86a2.32,2.32,0,0,0-3.38,2.86l.62,1.47-1.66-.6a2.32,2.32,0,0,0-2.68,3.52l1,1.45-2-.31a2.32,2.32,0,0,0-2,3.93l1.41,1.42H134.2a2.32,2.32,0,0,0-1.39,4.17l1.75,1.32-2.3.3a2.32,2.32,0,0,0-.89,4.29l2,1.19-2.33.55a2.31,2.31,0,0,0-.46,4.35l2.17,1h0a2.32,2.32,0,0,0,.33,4.48S144.87,180.79,162.14,180.79Z"/><path class="cls-3" d="M147.53,148.36s-3,5.88,6.56,5.31a27.4,27.4,0,0,0,16-6.78s5-6.34,3.6-17.16-7.93-12.56-10.24-6.78c0,0-4.18-4.37-8.08-2.4s-3,6.5-2.5,7.91a6.89,6.89,0,0,0-5.82,3.57c-1.67,3.26.45,6.78.45,6.78a5.5,5.5,0,0,0-3.52,4.91A4.66,4.66,0,0,0,147.53,148.36Z"/><circle class="cls-6" cx="155.9" cy="133.84" r="1.2"/><circle class="cls-6" cx="161.01" cy="132.64" r="1.2"/><circle class="cls-6" cx="155.24" cy="139.3" r="1.21"/><line class="cls-3" x1="156.45" y1="139.3" x2="162.39" y2="140.95"/><line class="cls-3" x1="161.01" y1="133.84" x2="163.79" y2="140.12"/><line class="cls-3" x1="156.81" y1="134.6" x2="163.14" y2="140.51"/><path class="cls-8" d="M170.12,146.89s10.52,6.82,11.61,37.49"/><path class="cls-7" d="M175.92,141.51a19,19,0,0,0,.38,14.29S180.88,147.72,175.92,141.51Z"/><path class="cls-7" d="M165.75,157.88a11.85,11.85,0,0,1,5.22,3.68,9.08,9.08,0,0,0,8.22,2.91,11.89,11.89,0,0,0-5.53-6.59A8.58,8.58,0,0,0,165.75,157.88Z"/><path class="cls-3" d="M161,146.89s-3.61,1.2-4.26-1.49,2.3-3,2.3-3-1.41-2.61,0-4a3.38,3.38,0,0,1,4.47,0,5.82,5.82,0,0,1,.93-5.57A3.71,3.71,0,0,1,171,135.3"/><path class="cls-3" d="M186.64,125.58c6.58-1.25,8.42,5.57,8.42,5.57s1.81-5.9,7-5.92c4.28,0,6.16,5.5,6,7.41,0,0,5.32-1,8.39,2,3.23,3.13.72,9.13.72,9.13s5.88.77,6.14,4.92c.31,5.06-5.8,10.15-18.13,8.86s-20.08-6.08-22.9-15.75S182.78,126.31,186.64,125.58Z"/><polyline class="cls-3" points="202.79 135.3 201.77 145.79 211.93 141.51"/><line class="cls-3" x1="208.76" y1="136.7" x2="201.77" y2="145.79"/><circle class="cls-6" cx="202.84" cy="133.97" r="1.33"/><circle class="cls-6" cx="213.48" cy="140.81" r="1.52"/><circle class="cls-6" cx="209.63" cy="135.3" r="1.52"/><path class="cls-3" d="M189.36,142.56s1.11-5.69,6.36-5.85,5.95,7.45,5.95,7.45,4.5-3.61,7.09-1.6,0,6.09,0,6.09,3.93-.74,4.35,1.71-2.11,3.57-5.07,3.35"/><path class="cls-4" d="M277.1,163.27c-.68-2.72,4.66-5.21,10-5.19s8.92,1.6,9.18,3.6-7.18,3.33-11.83,3.53S277.63,165.4,277.1,163.27Z"/><path class="cls-6" d="M370.86,121.84s0,35.32,27.27,43.45c0,0,1.06-19.56-12.16-30.28S370.86,121.84,370.86,121.84Z"/><path class="cls-8" d="M375.38,131.15C383,149.29,392,151.5,398.13,165.29"/><path class="cls-4" d="M268.1,154.9c-.47-2.17,4.06-3.7,6.41-2.34s1.35,3.68-1.24,3.87S268.47,156.63,268.1,154.9Z"/><path class="cls-9" d="M15.11,81.33c-4.27-2.47-3.54-10.27,2.29-12.67,4.66-1.92,7.76-.1,6.66-6.24-.88-5,1.78-7.67,4.33-7.68,2.76,0,5.25,2.25,4.63,7.68s4.37,5.81,6.45,0,7.75-5.8,9.81-1.82c2.88,5.56-3.37,9.75,0,13.45s18.66-5.38,25-.34,1,9.76-5.21,12.45-6.89,7.23-2.52,7.39S86,90.83,90.31,98.77c3.73,6.86-2.47,8.47-6.39,9.75-4.78,1.56-5.89,7.06.84,8.07s16.35-2.13,28.89,4c9.65,4.68-.91,14.48-13.59,14.48-10.27,0,.83,15.89-4.87,33.21,0,0-8.24-10.17-9.55-15-1.94-7.09.59-10.72-2.2-11.77C79.5,140,80.72,156,73.32,154.29s-2.65-18.67-2.25-25.83S70,118,67.27,119.59s-2.22,8.79-4.37,11.85c-3.3,4.68-9.87,1.61-10.36-4.18-.73-8.57,5.29-15.92,4.83-22.44-.34-4.86-6.73-5.92-7.07-.2s-2.2,14.16-7.08,12,1.13-17.32,1.32-22.53-2-9.08-5.52-7.4-1.1,12-6.56,9.42C27.66,93.8,27.71,84.31,28.82,81,30.89,74.83,27,73.79,25,75.89,22.14,78.81,19.47,83.84,15.11,81.33Z"/><path class="cls-8" d="M27.19,69.14s55,19,68,99.1"/><path class="cls-6" d="M408.06,105.85s18.29,43.18-11.2,61.84C396.86,167.69,391.1,125.4,408.06,105.85Z"/><path class="cls-8" d="M405.84,132.2a76.68,76.68,0,0,1-9,35.49"/><path class="cls-6" d="M435.59,141.45s-10.45,26.23-34.23,20.07C401.36,161.52,405.55,140.42,435.59,141.45Z"/><path class="cls-8" d="M422.62,149.29a73,73,0,0,1-21.26,12.23"/><path class="cls-6" d="M104.29,108.8c4.8-1.23,6.87-3.7,7.76-5.6C110,96,103.63,86.28,98.67,87.54c-5.36,1.36-6.76,13.15-5.21,20.08C95.27,108.79,98.82,110.2,104.29,108.8Z"/><path class="cls-7" d="M112.05,103.2c-.89,1.9-3,4.37-7.76,5.6-5.47,1.4-9,0-10.83-1.18a10.23,10.23,0,0,0,1.6,3.93c3.61,4.62,18.17,2.17,17.65-4.9A17.45,17.45,0,0,0,112.05,103.2Z"/><path class="cls-8" d="M103.28,109a40,40,0,0,1,.61,4.73"/><path class="cls-8" d="M110.08,105.87a11.73,11.73,0,0,1,.76,5"/><path class="cls-8" d="M107,107.87a10.53,10.53,0,0,1,.71,4.91"/><path class="cls-8" d="M99.43,109.35s0,3,1.24,4.52"/><path class="cls-8" d="M96.24,108.88a6.74,6.74,0,0,0,1.54,4.44"/><path class="cls-4" d="M298.42,110.86c-2.15-2,1-5.77,6.41-6.23s6.71,1.6,5.38,3.12C307.07,111.3,300.15,112.46,298.42,110.86Z"/><ellipse class="cls-4" cx="317.6" cy="111.57" rx="3.68" ry="2.01" transform="translate(-10.08 34.46) rotate(-6.11)"/><path class="cls-4" d="M323.36,103.91c.14-3,10.81-4.41,12.5-1.47.82,1.43-1,2.68-3.85,3.41S323.24,106.35,323.36,103.91Z"/><path class="cls-7" d="M510.52,132.6s-1.79,9.06,3.88,22.79,2.85,20.74-6.56,23.59c-8.84,2.67-31.82,4.12-34.79-9.33-2.38-10.82,11.22-20.16,12.1-39.38S509.83,120.05,510.52,132.6Z"/><path class="cls-8" d="M507.23,164.87s1.32,5.73,0,9.24"/><path class="cls-8" d="M510.81,164.87s.8,4.12,0,6.51"/><path class="cls-8" d="M504.32,168.12a11.18,11.18,0,0,1,0,4.45"/><path class="cls-5" d="M440.36,105.47c.16-9.53,11.92-10,20.69-10.9s15.29-2.4,29.72-12.69S517,85.7,524.25,94.57s14.52,10.71,22.18,15.06S556.1,124,538.55,129s-47.54,5.86-74.49-4.84C448.27,117.92,440.23,113.26,440.36,105.47Z"/><path class="cls-8" d="M512.13,92.52a23.34,23.34,0,0,0,10.31,12.92"/><path class="cls-8" d="M518.83,98.06s2.71,4.77,6.71,6.71"/><path class="cls-8" d="M484,94.45a25.13,25.13,0,0,1-11.25,6.06"/><path class="cls-8" d="M484,90.46s-2.19,2.58-3.48,3.09"/><path class="cls-8" d="M525.54,101.08a10.66,10.66,0,0,0,1.68,1.63"/><path class="cls-3" d="M530.16,116.81c-.31-2.42,4.64-4,8.23-3.26s5.13,2.53,4,3.75-3.75,2.09-6.76,1.86S530.32,118.12,530.16,116.81Z"/><path class="cls-3" d="M517.28,123c.06-2,4.32-3,6.68-1.88s.66,3.59-2.36,4S517.25,124.29,517.28,123Z"/><path class="cls-3" d="M455.27,101.9c.49-1.39,4.58-.75,7.35.81,2.34,1.32,6.78,2.05,6.85,4.71s-3,2.13-5.49,1.22S454.18,105,455.27,101.9Z"/><ellipse class="cls-3" cx="539.73" cy="124.2" rx="2.11" ry="1.22" transform="translate(-13.59 100.37) rotate(-10.49)"/><path class="cls-5" d="M232,177.57s-3.28.94-9.12,6.06-24,9.7-34,.75,4.86-17.77,18.13-19C219.78,164.17,226.86,169.76,232,177.57Z"/><path class="cls-8" d="M186.64,181.86s15.92-7.73,38.37-4"/><path class="cls-8" d="M208.76,169.66a15.85,15.85,0,0,1-8.44,8.25,20.31,20.31,0,0,1,8.44,5.93"/><path class="cls-8" d="M216.71,172.56a10.88,10.88,0,0,1-6.38,4.34s4.94,2.84,6.89,6.94"/><path class="cls-8" d="M222.76,174.8a5.36,5.36,0,0,1-3.49,2.37,8.07,8.07,0,0,1,2.77,3.9"/><path class="cls-5" d="M136.89,166c4.13,5,8.3,17.84,20.39,21,14.57,3.78,19.25-2.7,27.87-1.49,0,0-1.44-14.53-17.24-21.31S136.89,166,136.89,166Z"/><path class="cls-8" d="M148.72,169.66a60.24,60.24,0,0,1,36.43,15.82"/><path class="cls-8" d="M163.58,184.38c-.14-.53,4.46-5.25,12.53-5.82a13,13,0,0,1-2.56-7.13"/><path class="cls-8" d="M155.28,179.77s4.48-5.28,13.72-5c0,0-2.76-1.48-3.26-6.56"/><path class="cls-8" d="M148.72,175.55c.6-.38,4.9-4.37,10.75-4.12a7,7,0,0,1-3.06-6.06"/><path class="cls-5" d="M203.05,148.36s7.31,31-17.73,37.12c0,0-7.62-9.33-3.42-20.11S203.05,148.36,203.05,148.36Z"/><path class="cls-8" d="M198,156.45s-1.59,13.55-12.67,29"/><path class="cls-8" d="M186.64,168.24s3.47,5.28,2.91,10.68c0,0,3.62-3.29,7.4-2.76"/><path class="cls-8" d="M190.69,162.58s3,3.5,2.17,10c0,0,3.11-4.09,6.57-4.32"/><path class="cls-8" d="M194.34,157.88c.78.27,2.07,2,2.28,4.7,0,0,1.77-2.22,3.59-2.35"/><path class="cls-5" d="M312.79,158.69a71.36,71.36,0,0,0,9.15,12.6c8.07,9,15.12,14.8,39.05,14.8,0,0-3.32-13.62-16.75-19.14S319.26,162.76,312.79,158.69Z"/><path class="cls-8" d="M361,186.09c-13.81-14.36-33.5-15.82-33.5-15.82"/><path class="cls-5" d="M349.55,126.78s.72,1.95-2.44,13.68c-3.89,14.38,1.07,33.29,13.88,45.63,0,0,1.52-4.11,3.42-9.93C366.89,168.52,372.43,146.71,349.55,126.78Z"/><path class="cls-8" d="M354.56,142s6.54,10.23,6.43,44.07"/><path class="cls-5" d="M406.42,156.18s-18.73,8.5-26.5,17.19-19.22,12.76-19.22,12.76,6.74,1,14.91,2.46C387.53,190.75,408.26,191.18,406.42,156.18Z"/><path class="cls-8" d="M399.66,168.27s-8.53,15.49-33.35,14.89"/><path class="cls-5" d="M383.17,128.22c6.11,7.15,16.39,42.39-22.18,57.87,0,0-.49-20.28,8.38-33.22A155.64,155.64,0,0,0,383.17,128.22Z"/><path class="cls-8" d="M381.78,149.29s-1.57,11.49-20.79,36.8"/><path class="cls-5" d="M86.8,142.08s-4.48,7.48,3.86,10.94,23.71.44,23.71.44a10.5,10.5,0,0,0,12.82-2.07c10.21,3.66,21.53-7,14.65-19.95,0,0,5.72-10.58-4-13.44,0,0-2.58-11.86-13.4-6.21,0,0-1.65-6.16-8.88-5.42-6.9.7-8,5.8-8,5.8s-6.91-2.69-11.81,1c-5.71,4.24-3.53,11-3.1,14.08,0,0-7,0-8.37,5.82A9,9,0,0,0,86.8,142.08Z"/><path class="cls-8" d="M100.8,139.36s7.18,8.67,8,32.86"/><path class="cls-8" d="M97.76,142.82c.27.7,1.68,14.31,10.16,18.55"/><path class="cls-8" d="M101.31,130.09s-1.11-2.18,0-2.89,2,.86,2,.86-.31-3.42,1.46-3.32,2,3.41,2,3.41"/><path class="cls-8" d="M124.06,123.74s2.8-3.13,4.16-1.94c.95.84-.84,4.07-.84,4.07s1.67-2.68,3.14-1.76-1.47,5.08-1.47,5.08"/><path class="cls-8" d="M111.73,139.36s3.6,10.73,3.18,34.32"/><path class="cls-8" d="M107.92,140.42s1.79,21.86,7,23.18"/><path class="cls-8" d="M118,140.42s-.81,14,2.59,15.37"/><path class="cls-8" d="M122.22,141.14s-2.81,19.29-2.35,31.08"/><path class="cls-8" d="M126.74,175.26s3.51-26.26,0-35.44"/><path class="cls-10" d="M465.29,182.79c-.33-1.56,2.91-2.64,4.58-1.68s1,2.63-.88,2.77S465.56,184,465.29,182.79Z"/><ellipse class="cls-4" cx="32.62" cy="120.73" rx="4.23" ry="2.12"/></g></svg>