<svg xmlns="http://www.w3.org/2000/svg" width="1141.687" height="434.807" viewBox="0 0 1141.687 434.807">
  <g id="Group_699" data-name="Group 699" transform="translate(0.072 0.147)">
    <path id="Path_2440" data-name="Path 2440" d="M150.008,579.289c39.111-38.395,181.7-73.024,321.918-72.952s389.615-73.544,478.727-26.989,71.852,81.329,125.02,106.987,163.719,24.206,167.615,54.336-8.439,50.3-21.424,66.182-41.437,55.618-104.589,61.338c-38.1,3.45-125.249,21.424-231.078,18.827s-168.807-3.9-248.016,7.791S536.247,823.378,490.148,805.2s-62.791-28.569-109.631-37.008-140.333-30.347-172.147-37.249-81.806-23.134-99.985-47.155,11.038-37.008,16.232-53.24S131.67,597.289,150.008,579.289Z" transform="translate(-102.495 -378.63)" fill="#fbc6a6" stroke="#000" stroke-linejoin="round" stroke-width="0.2"/>
    <ellipse id="Ellipse_454" data-name="Ellipse 454" cx="12.25" cy="5.81" rx="12.25" ry="5.81" transform="translate(726.253 249.197)" fill="#fff" stroke="#000" stroke-linejoin="round" stroke-width="0.2"/>
    <g id="Group_675" data-name="Group 675" transform="translate(249.233 101.988)">
      <path id="Path_2441" data-name="Path 2441" d="M236.721,501.933s3.392,7.61-1.186,17.458-7.464,18.5-2.374,30.879l8.859-5.728a67.387,67.387,0,0,1,3.012-27.515c3.243-9.471,1.188-16.959,0-18.656Z" transform="translate(-222.867 -445.921)" fill="#e5aeae" stroke="#000" stroke-linejoin="round" stroke-width="0.2"/>
      <g id="Group_674" data-name="Group 674" transform="translate(0)">
        <g id="Group_673" data-name="Group 673">
          <path id="Path_2442" data-name="Path 2442" d="M229.081,517.329c1.2,2.2,5.369,3.2,9.489.247,6.428-4.61,10.193,2.131,17.926-1.14,5.168-2.186,3.916-8.772,9.908-10.472-2.936-5.075-7.913-10.257-9.908-15.295-3.689-9.318-9.473-19.7-18.949-18.305-13.352,1.969-8.048,24.192-8.526,32.169-.231,3.853-1.505,7.349-2.151,10.8A4.176,4.176,0,0,1,229.081,517.329Z" transform="translate(-226.491 -472.237)" fill="#b25269" stroke="#000" stroke-linejoin="round" stroke-width="0.2"/>
          <path id="Path_2443" data-name="Path 2443" d="M266.593,489.042c-5.993,1.7-4.74,8.287-9.908,10.472-7.733,3.271-11.5-3.47-17.926,1.14-4.12,2.954-8.293,1.951-9.489-.247a4.176,4.176,0,0,0-2.212-2c-.694,3.691-.668,7.325,2.151,11.283,5.453,7.654,27.453,3.042,37.341-8.092C270.109,497.594,269.088,493.357,266.593,489.042Z" transform="translate(-226.681 -455.315)" fill="#fff6eb" stroke="#000" stroke-linejoin="round" stroke-width="0.2"/>
        </g>
        <path id="Path_2444" data-name="Path 2444" d="M236.226,479.757c-.112,6.675,5.8,10.1,6.27,14.675" transform="translate(-217.071 -464.664)" fill="none" stroke="#000" stroke-linejoin="round" stroke-width="0.2"/>
        <path id="Path_2445" data-name="Path 2445" d="M228.549,495.3s-.779,6.8,3.9,11.269" transform="translate(-224.848 -449.015)" fill="none" stroke="#000" stroke-linejoin="round" stroke-width="0.2"/>
        <path id="Path_2446" data-name="Path 2446" d="M243.548,492.327a19.709,19.709,0,0,1,0,11.09" transform="translate(-209.697 -452.007)" fill="none" stroke="#000" stroke-linejoin="round" stroke-width="0.2"/>
        <path id="Path_2447" data-name="Path 2447" d="M231.91,495.3s.769,8.533,5.513,11.67" transform="translate(-221.415 -449.015)" fill="none" stroke="#000" stroke-linejoin="round" stroke-width="0.2"/>
        <path id="Path_2448" data-name="Path 2448" d="M238.847,494.691s3.028,7.67,1.007,10.59" transform="translate(-214.43 -449.627)" fill="none" stroke="#000" stroke-linejoin="round" stroke-width="0.2"/>
      </g>
    </g>
    <g id="Group_676" data-name="Group 676" transform="translate(54.369)">
      <path id="Path_2449" data-name="Path 2449" d="M130.157,457.114c-2.934-8.124,5.868-15.508,16.346-12.993s13.992.092,14.205-9.732,7.773-14.362,14.071-12.6,11.59,10.007,6.8,17.474-6.3,10.743-4.032,14.019,7.008,2.408,20.91,2.771S225.671,462.1,229.2,468.4s3.526,20.659-9.575,16.88-21.414-10.079-23.682-4.536,8.566,12.6,21.667,11.841,39.3,7.307,44.09,21.163-12.094,15.116-22.423,12.848-17.131,5.292-7.305,10.33,44.263-4.905,59.807,7.783-1.5,21.769-19.539,23.114-24.46.943-24.059,6.557,19.648,3.609,32.079,10.426,18.444,19.4,10.023,22.73-19.648-4.935-22.855,0,22.456,34.608,21.251,41.825-29.869,26.064-37.989,22.054-41.8-29.271-41-47.314,4.411-20.049,14.035-28.871,10.542-15.835,1.6-17.242-23.658,2.123-22.054-10.165,10.081-24.212,3.153-29.951-14.649,1.411-17.025,8.82-13.013,27.23-23.754,18.106c-9.417-8-.323-25.889,5.943-38.4,5.411-10.8,12.768-38.983,3.61-40.279s-3.615,32.358-15.492,30.971-19.738-12.541-11.285-27.714,16.264-25.109,12.288-29.281-10.171,3.016-17.238,3.944C136.95,464.891,132.112,462.533,130.157,457.114Z" transform="translate(-129.585 -421.419)" fill="#ea6157" stroke="#000" stroke-linejoin="round" stroke-width="0.2"/>
      <path id="Path_2450" data-name="Path 2450" d="M145.738,436.942c44.289,43.029,90.169,127.559,106.492,215.4" transform="translate(-113.32 -405.788)" fill="none" stroke="#000" stroke-linejoin="round" stroke-width="0.2"/>
    </g>
    <path id="Path_2451" data-name="Path 2451" d="M251.336,580.8s-23.726-14.215-27.575-42.441-12.714-41.939-12.714-41.939l9.288-4.1s8.865,13.711,12.714,41.937,27.577,42.443,27.577,42.443Z" transform="translate(6.81 -350.02)" fill="#e5aeae" stroke="#000" stroke-linejoin="round" stroke-width="0.2"/>
    <g id="Group_679" data-name="Group 679" transform="translate(171.511 54.376)">
      <g id="Group_678" data-name="Group 678">
        <path id="Path_2452" data-name="Path 2452" d="M189.539,500.1a36.315,36.315,0,0,0,4.815,8.255,22.68,22.68,0,0,0,16.74,8.612c10.47.586,29.711-.383,46.88-12.353A22.72,22.72,0,0,0,267,479.825c-.12-.419-.253-.839-.4-1.254C263.731,470.248,189.539,500.1,189.539,500.1Z" transform="translate(-186.358 -419.722)" fill="#fff6eb" stroke="#000" stroke-linejoin="round" stroke-width="0.2"/>
        <path id="Path_2453" data-name="Path 2453" d="M195.233,490.606a28.654,28.654,0,0,0,12.927,12.874" transform="translate(-180.625 -406.128)" fill="none" stroke="#000" stroke-linejoin="round" stroke-width="0.2"/>
        <path id="Path_2454" data-name="Path 2454" d="M214.276,503.027c-6.36-4.757-8.291-13.308-8.291-13.308" transform="translate(-169.798 -407.021)" fill="none" stroke="#000" stroke-linejoin="round" stroke-width="0.2"/>
        <path id="Path_2455" data-name="Path 2455" d="M212.473,489.719s.642,7.941,3.841,11.2" transform="translate(-163.265 -407.021)" fill="none" stroke="#000" stroke-linejoin="round" stroke-width="0.2"/>
        <path id="Path_2456" data-name="Path 2456" d="M220.388,484.149s3.486,10.777,1.078,16.778" transform="translate(-155.295 -412.63)" fill="none" stroke="#000" stroke-linejoin="round" stroke-width="0.2"/>
        <path id="Path_2457" data-name="Path 2457" d="M224.956,483.431s2.041,7.412-.462,13.487" transform="translate(-151.161 -413.353)" fill="none" stroke="#000" stroke-linejoin="round" stroke-width="0.2"/>
        <path id="Path_2458" data-name="Path 2458" d="M216.109,487.907s1.3,9.531,5.11,11.558" transform="translate(-159.604 -408.846)" fill="none" stroke="#000" stroke-linejoin="round" stroke-width="0.2"/>
        <path id="Path_2459" data-name="Path 2459" d="M200.58,489.719s3.412,11.943,10.847,14.4" transform="translate(-175.241 -407.021)" fill="none" stroke="#000" stroke-linejoin="round" stroke-width="0.2"/>
        <g id="Group_677" data-name="Group 677">
          <path id="Path_2460" data-name="Path 2460" d="M214.07,448.8c25.012-4.636,55.056,47.468,54.113,60.916s-13.214,6.844-17.932,12.034-9.826,11.994-24.541,9.676c-17.436-2.747-24.2,6.121-34.575-2.537C184.675,509.44,186.1,453.988,214.07,448.8Z" transform="translate(-187.954 -448.513)" fill="#b25269" stroke="#000" stroke-linejoin="round" stroke-width="0.2"/>
          <path id="Path_2461" data-name="Path 2461" d="M211.708,461.65s3.464,14.474,12.579,19.977" transform="translate(-164.036 -435.285)" fill="none" stroke="#000" stroke-linejoin="round" stroke-width="0.2"/>
          <path id="Path_2462" data-name="Path 2462" d="M206.579,458.382S208,468.519,211.542,472.1" transform="translate(-169.2 -438.576)" fill="none" stroke="#000" stroke-linejoin="round" stroke-width="0.2"/>
        </g>
      </g>
    </g>
    <g id="Group_681" data-name="Group 681" transform="translate(802.577 40.03)">
      <path id="Path_2463" data-name="Path 2463" d="M566.461,486.46s-7.1,26.748,2.7,47.514c12.481,26.435-16.858,30.734-33.269,18.026-12.985-10.057-4.766-22.887-1.357-39.568a85.006,85.006,0,0,0,.6-30.981S560.478,471.7,566.461,486.46Z" transform="translate(-475.787 -404.183)" fill="#e5aeae" stroke="#000" stroke-linejoin="round" stroke-width="0.2"/>
      <path id="Path_2464" data-name="Path 2464" d="M536.212,511.277c1.929-2.822,7.42,2.6,7.578,5.6s-2.581,1.995-5.248-.213C536.911,515.315,535.313,512.59,536.212,511.277Z" transform="translate(-468.609 -371.763)" fill="#fff6eb" stroke="#000" stroke-linejoin="round" stroke-width="0.2"/>
      <g id="Group_680" data-name="Group 680">
        <path id="Path_2465" data-name="Path 2465" d="M502.4,490.172c0-13.464,13.3-15.2,24.3-16.009s26.261-10.414,43.466-25.024,36.01-7.833,40.711,13.7c4.722,21.625,14.41,30.387,29.348,40.323S652,525.62,643.9,529.622s-47.117,4.694-76.932-2.645S502.4,503.636,502.4,490.172Z" transform="translate(-502.397 -441.365)" fill="#b25269" stroke="#000" stroke-linejoin="round" stroke-width="0.2"/>
        <path id="Path_2466" data-name="Path 2466" d="M544.882,452.6s-5.935,11.867-19.214,13.844" transform="translate(-478.965 -430.054)" fill="none" stroke="#000" stroke-linejoin="round" stroke-width="0.2"/>
        <path id="Path_2467" data-name="Path 2467" d="M542.153,457.707s-4.04,6.559-13.773,8.032" transform="translate(-476.235 -424.909)" fill="none" stroke="#000" stroke-linejoin="round" stroke-width="0.2"/>
        <path id="Path_2468" data-name="Path 2468" d="M535.9,452.6s-3.538,4.361-7.079,5.423" transform="translate(-475.791 -430.054)" fill="none" stroke="#000" stroke-linejoin="round" stroke-width="0.2"/>
        <path id="Path_2469" data-name="Path 2469" d="M557.311,461.709s-.51,9.774,6.747,14.731" transform="translate(-447.11 -420.879)" fill="none" stroke="#000" stroke-linejoin="round" stroke-width="0.2"/>
        <path id="Path_2470" data-name="Path 2470" d="M561.188,466.545s3.009,4.337,5.487,5.577" transform="translate(-443.199 -416.01)" fill="none" stroke="#000" stroke-linejoin="round" stroke-width="0.2"/>
        <ellipse id="Ellipse_455" data-name="Ellipse 455" cx="7.174" cy="2.901" rx="7.174" ry="2.901" transform="translate(124.518 75.209)" fill="#fbc6a6" stroke="#000" stroke-linejoin="round" stroke-width="0.2"/>
        <ellipse id="Ellipse_456" data-name="Ellipse 456" cx="3.451" cy="5.941" rx="3.451" ry="5.941" transform="matrix(0.404, -0.915, 0.915, 0.404, 97.517, 83.525)" fill="#fbc6a6" stroke="#000" stroke-linejoin="round" stroke-width="0.2"/>
        <ellipse id="Ellipse_457" data-name="Ellipse 457" cx="3.564" cy="2.236" rx="3.564" ry="2.236" transform="translate(118.21 67.352)" fill="#fbc6a6" stroke="#000" stroke-linejoin="round" stroke-width="0.2"/>
        <ellipse id="Ellipse_458" data-name="Ellipse 458" cx="5.519" cy="12.619" rx="5.519" ry="12.619" transform="translate(9.469 47.706) rotate(-54.809)" fill="#fbc6a6" stroke="#000" stroke-linejoin="round" stroke-width="0.2"/>
        <ellipse id="Ellipse_459" data-name="Ellipse 459" cx="3.234" cy="5.344" rx="3.234" ry="5.344" transform="translate(39.681 67.99) rotate(-54.809)" fill="#fbc6a6" stroke="#000" stroke-linejoin="round" stroke-width="0.2"/>
        <ellipse id="Ellipse_460" data-name="Ellipse 460" cx="2.56" cy="4.009" rx="2.56" ry="4.009" transform="translate(36.22 52.786) rotate(-50.949)" fill="#fbc6a6" stroke="#000" stroke-linejoin="round" stroke-width="0.2"/>
      </g>
    </g>
    <g id="Group_683" data-name="Group 683" transform="translate(216.56 31.747)">
      <path id="Path_2471" data-name="Path 2471" d="M519.907,509.726c3.506,4.592,6.968,9.156,10.44,13.649C526.877,518.882,523.413,514.316,519.907,509.726Z" transform="translate(101.251 -364.247)" fill="#fbc6a6" stroke="#000" stroke-linejoin="round" stroke-width="0.2"/>
      <path id="Path_2472" data-name="Path 2472" d="M478.63,470.552c-.949-.454-1.9-.889-2.858-1.315.955.425,1.909.861,2.858,1.315Z" transform="translate(56.81 -405.017)" fill="#fbc6a6" stroke="#000" stroke-linejoin="round" stroke-width="0.2"/>
      <path id="Path_2473" data-name="Path 2473" d="M510.055,497.345c.421.5.845.993,1.264,1.491v0C510.9,498.336,510.476,497.841,510.055,497.345Z" transform="translate(91.33 -376.714)" fill="#fbc6a6" stroke="#000" stroke-linejoin="round" stroke-width="0.2"/>
      <path id="Path_2474" data-name="Path 2474" d="M510.685,498.086v0c.058.07.118.141.179.211C510.8,498.231,510.745,498.158,510.685,498.086Z" transform="translate(91.965 -375.968)" fill="#fbc6a6" stroke="#000" stroke-linejoin="round" stroke-width="0.2"/>
      <path id="Path_2475" data-name="Path 2475" d="M356.095,510.29c39.6-5.23,48.708,4.483,82.26,6.725s49.987-12.7,72.4-37.359c5.8-6.384,10.448-11.056,14.157-14.49-10.721-4.3-21.819-9.033-55.251-9.418-65-.747-119.545,23.908-163.627,51.554-.289.183-.584.381-.873.566C316.012,510.661,333.493,513.276,356.095,510.29Z" transform="translate(-114.982 -418.617)" fill="#fff6eb" stroke="#000" stroke-linejoin="round" stroke-width="0.2"/>
      <path id="Path_2476" data-name="Path 2476" d="M380.143,553.816c-5.792,5.431-14.655,11.149-27.888,5.369-33.333,37.937-72.163,65.191-72.165,65.191,17.007,5.848,33.59,7.749,48.953.068,33-16.5,58.191-52.481,77.241-79.6-3.781-1.126-7.486-2.073-11.06-2.878C390.127,547.161,384.841,549.411,380.143,553.816Z" transform="translate(-140.23 -331.785)" fill="#ea6157" stroke="#000" stroke-linejoin="round" stroke-width="0.2"/>
      <path id="Path_2477" data-name="Path 2477" d="M343.935,555.773c4.7-4.405,9.985-6.655,15.08-11.851a183.849,183.849,0,0,0-25.9-3.9c-1.26,1.656-2.533,3.326-3.833,5.027-4.233,5.535-8.682,10.912-13.234,16.092C329.281,566.921,338.143,561.2,343.935,555.773Z" transform="translate(-104.022 -333.741)" fill="#fbc6a6" stroke="#000" stroke-linejoin="round" stroke-width="0.2"/>
      <path id="Path_2478" data-name="Path 2478" d="M519.155,572.654c-39.982,12.409-84.586,7.345-132.57-15.046a156.448,156.448,0,0,0-17.814-6.982c-3.737-1.212-7.4-2.248-10.978-3.157a191.9,191.9,0,0,0-24.74-4.564q-4.121,5.41-8.5,11.191a183.825,183.825,0,0,1,25.9,3.9c3.574.8,7.279,1.752,11.06,2.878a145.681,145.681,0,0,1,20.029,7.544c32.536,15.182,63.732,22.793,93.236,22.793a160.847,160.847,0,0,0,47.913-7.165c36.43-11.3,64.826-28.944,84.937-52.644q-5.822-2.58-11.2-5.357C577.868,546.839,552.037,562.451,519.155,572.654Z" transform="translate(-95.459 -347.815)" fill="#ea6157" stroke="#000" stroke-linejoin="round" stroke-width="0.2"/>
      <path id="Path_2479" data-name="Path 2479" d="M481.787,511.267c-1.232-.739-2.485-1.449-3.745-2.143a130.206,130.206,0,0,1-14.171,24.447q5.3,2.658,11.032,5.126a142.444,142.444,0,0,0,13.36-23.25Q485.093,513.254,481.787,511.267Z" transform="translate(44.826 -364.854)" fill="#ea6157" stroke="#000" stroke-linejoin="round" stroke-width="0.2"/>
      <path id="Path_2480" data-name="Path 2480" d="M526.79,518.687l0,0h0Z" transform="translate(108.179 -355.227)" fill="#fbc6a6" stroke="#000" stroke-linejoin="round" stroke-width="0.2"/>
      <path id="Path_2481" data-name="Path 2481" d="M477.794,475.1q1.216.593,2.428,1.216c.381.2.763.4,1.146.606.63.335,1.262.674,1.891,1.024q.611.337,1.218.684.939.536,1.879,1.092c.383.227.765.452,1.148.684.757.458,1.511.929,2.268,1.409.247.155.492.3.737.462q1.472.945,2.948,1.947c.335.227.674.464,1.009.7.678.468,1.359.939,2.039,1.423.391.279.783.562,1.174.845q.969.7,1.947,1.431c.385.287.773.574,1.16.869.722.546,1.449,1.108,2.177,1.676.305.237.608.47.915.71q1.538,1.213,3.095,2.485c.245.2.494.409.739.612q1.222,1.005,2.455,2.047c.373.315.751.638,1.128.961q1.072.915,2.157,1.862.59.512,1.184,1.034,1.132,1,2.28,2.029c.351.313.7.622,1.052.941q1.667,1.505,3.365,3.075,1.975,1.824,3.888,3.687c.423.411.839.831,1.258,1.246.843.831,1.686,1.664,2.513,2.5.494.5.975,1.006,1.463,1.509.741.765,1.479,1.529,2.206,2.3.51.54,1.012,1.082,1.515,1.624q1.035,1.114,2.057,2.236.762.84,1.517,1.684.993,1.114,1.975,2.232.747.849,1.485,1.7.972,1.126,1.933,2.258c.422.5.847.991,1.264,1.487h0c.06.072.118.145.179.215.644.767,1.28,1.537,1.919,2.308.457.556.921,1.11,1.377,1.668q1,1.228,1.993,2.463c.411.508.827,1.016,1.234,1.525q1.529,1.912,3.035,3.829c.6.761,1.188,1.519,1.78,2.28.431.554.867,1.108,1.3,1.662q1.048,1.352,2.087,2.705.452.584.9,1.172,1.286,1.674,2.561,3.346l.144.189c3.506,4.59,6.97,9.156,10.44,13.649l.249.321q1.551,2.005,3.109,3.992l.012.016a122.92,122.92,0,0,1-1.16-21.994c.668-19.658-6.483-25.121-10.94-32.009-11.477-17.741-21.472-12.965-30.664-23.718s-20.386-23.28-36.592-28.954c-10.677-3.737-17.059,3.428-20.172,8.752h0C477.395,474.9,477.6,475,477.794,475.1Z" transform="translate(58.244 -409.269)" fill="#fff6eb" stroke="#000" stroke-linejoin="round" stroke-width="0.2"/>
      <path id="Path_2482" data-name="Path 2482" d="M526.794,518.693h0l-.012-.016Z" transform="translate(108.173 -355.235)" fill="#fbc6a6" stroke="#000" stroke-linejoin="round" stroke-width="0.2"/>
      <path id="Path_2483" data-name="Path 2483" d="M250.815,611.817c-3.041-17.382,11.733-37.369,13.037-50.406s2.172-18.685,6.517-30.851a25.486,25.486,0,0,0-2.167-21.715q-2.026,3.592-3.92,7.157c-22.534,42.565-45.132,46.155-52.58,72.611-4.351,15.451.737,25.934,38.188,30.887A12.665,12.665,0,0,0,250.815,611.817Z" transform="translate(-210.401 -365.134)" fill="#fbc6a6" stroke="#000" stroke-linejoin="round" stroke-width="0.2"/>
      <path id="Path_2484" data-name="Path 2484" d="M291.935,637.835c13.47-26.939,2.607-42.583,7.388-64.306s16.511-18.686,19.491-35.633c2.968-16.874-6.205-31.465-6.284-31.589-24.7,26.608-45.917,55.883-55.341,75.591-10.241,21.414-14.1,36.153-15.558,44.225,14.271,4.295,29.131,12.005,44.06,19.465A21.692,21.692,0,0,0,291.935,637.835Z" transform="translate(-178.954 -367.69)" fill="#fff6eb" stroke="#000" stroke-linejoin="round" stroke-width="0.2"/>
      <path id="Path_2485" data-name="Path 2485" d="M935.517,660.716c-43.815-38.81-98.9-133.954-152.725-174.015s-95.151-32.55-125.2-26.8-75.113-19.519-131.761-22.024c-40.6-1.794-80.069-.369-119.451,11.636-2.081,11.739-9.651,39.324-35.47,47-33.076,9.832-42.91,13.856-50.956,25.03s-11.47,25.191-24.137,28.105c-14.9,3.43-23.758,2.209-27.949,1.052a308.409,308.409,0,0,0-19.483,30.248,25.486,25.486,0,0,1,2.167,21.715c-4.345,12.166-5.214,17.816-6.517,30.851S227.962,666.538,231,683.92a12.664,12.664,0,0,1-.925,7.682c2.553.337,5.25.65,8.112.935a76.241,76.241,0,0,1,12,2.272c1.024.273,2.047.552,3.077.861,1.457-8.072,5.316-22.811,15.558-44.224,9.424-19.708,30.646-48.983,55.341-75.591,18.092-19.493,38.043-37.558,56.606-49.367.289-.185.584-.383.873-.566,44.082-27.645,98.625-52.3,163.627-51.554,33.431.385,44.53,5.116,55.251,9.418,10.125,4.064,19.913,7.745,47.855,7.02,1.622-.042,3.207-.074,4.778-.1.277-.006.558-.01.833-.014q2.249-.033,4.427-.038c.287,0,.57,0,.855,0,1.485,0,2.952,0,4.391.02l.279.006q2.074.024,4.088.08c.241.006.484.01.725.018q2.017.057,3.974.145c.281.012.558.024.835.038,1.315.062,2.617.13,3.9.213l.464.032q1.8.12,3.56.269c.209.016.421.032.628.05,1.218.107,2.414.225,3.6.351.267.028.532.056.8.086,1.178.132,2.344.271,3.494.425l.58.08q1.607.22,3.177.47l.534.082q1.665.271,3.291.578c.259.048.516.1.771.147q1.6.31,3.179.654c.213.046.423.1.634.142q1.49.337,2.956.7c.133.034.267.064.4.1,1.038.265,2.061.546,3.079.835.243.07.488.139.733.211q1.484.434,2.948.9c.225.072.447.148.672.221q1.424.47,2.828.971c.1.038.207.072.309.111.971.353,1.937.724,2.9,1.106.231.09.464.181.692.275q1.409.569,2.8,1.178c.229.1.457.2.686.305.955.426,1.909.861,2.858,1.315,3.113-5.324,9.495-12.489,20.172-8.752,16.206,5.674,27.4,18.2,36.592,28.954s19.186,5.977,30.664,23.718c4.457,6.888,11.608,12.351,10.94,32.009a122.917,122.917,0,0,0,1.16,21.994l0,0q.858,1.093,1.718,2.174.5.63,1,1.256c.508.638,1.019,1.271,1.531,1.9q.6.747,1.2,1.489.725.9,1.459,1.782.647.786,1.3,1.569.711.852,1.423,1.7.689.816,1.383,1.624c.462.538.923,1.078,1.387,1.611.492.566.988,1.126,1.483,1.688.442.5.883,1,1.327,1.5.582.646,1.168,1.285,1.756,1.925.365.4.728.8,1.1,1.2q1.411,1.514,2.844,3c.323.335.652.66.977.992.664.676,1.327,1.349,2,2.013.4.4.8.783,1.208,1.174.608.59,1.218,1.18,1.834,1.76.427.405.863.8,1.294,1.2.6.558,1.212,1.114,1.824,1.661q.665.6,1.337,1.182.93.813,1.874,1.614c.448.377.893.755,1.345,1.128.658.544,1.325,1.08,1.993,1.612.432.345.861.692,1.3,1.031.743.576,1.5,1.14,2.25,1.7.375.279.746.564,1.126.841q1.707,1.246,3.462,2.441c1.106.753,2.21,1.537,3.31,2.338,6.267-1.285,16.523-1.379,29.662,5.6,22.508,11.957,29.893,25.673,40.443,37.63,9.174,10.4,15.415,31.16,8.8,40.564a180.943,180.943,0,0,0,14.8,14.382c3.723-.785,7.341-1.658,10.785-2.641C1004.373,735.829,979.335,699.524,935.517,660.716Z" transform="translate(-190.588 -437.238)" fill="#ea6157" stroke="#000" stroke-linejoin="round" stroke-width="0.2"/>
      <path id="Path_2486" data-name="Path 2486" d="M276.858,543.49c12.668-2.914,16.092-16.93,24.137-28.105s17.88-15.2,50.956-25.03c25.819-7.677,33.389-35.262,35.47-47a248.371,248.371,0,0,0-46.741,19.662c-39.145,21.352-69.432,50.924-91.771,81.526C253.1,545.7,261.954,546.92,276.858,543.49Z" transform="translate(-171.626 -431.079)" fill="#fbc6a6" stroke="#000" stroke-linejoin="round" stroke-width="0.2"/>
      <path id="Path_2487" data-name="Path 2487" d="M445.372,510.108c-6.093-8.078-14.141-9.264-22.3-8.459-9.16.9-20.292-3.532-32.914,5.935-8.734,6.551-11.572,15.869-12.491,20.988a199.1,199.1,0,0,1,33.217-9.7C422.465,516.618,433.762,513.263,445.372,510.108Z" transform="translate(-41.978 -372.653)" fill="#fff6eb" stroke="#000" stroke-linejoin="round" stroke-width="0.2"/>
      <path id="Path_2488" data-name="Path 2488" d="M359.052,524.463a142.48,142.48,0,0,1,26.785-20.447c-3.514-.046-7.444-.167-11.743-.4-19.634-1.052-30.032.813-37.164,15.076a36.962,36.962,0,0,0-3.41,15.893,71.8,71.8,0,0,0,1.846,16.517A264.064,264.064,0,0,1,359.052,524.463Z" transform="translate(-86.436 -370.643)" fill="#fbc6a6" stroke="#000" stroke-linejoin="round" stroke-width="0.2"/>
      <path id="Path_2489" data-name="Path 2489" d="M495.45,531.743c.062-.273.122-.56.183-.841-.3-.034-.6-.066-.905-.1C494.968,531.115,495.211,531.426,495.45,531.743Z" transform="translate(75.896 -343.027)" fill="#fbc6a6" stroke="#000" stroke-linejoin="round" stroke-width="0.2"/>
      <path id="Path_2490" data-name="Path 2490" d="M428.879,506.343c2.382.508,4.815,1.04,7.331,1.6.239.054.466.1.7.152,34.8,7.648,50.444,4.853,81.024,29.687,1.128.917,2.272,1.862,3.444,2.856h0q3.308,1.984,6.476,4.178c14.357,9.922,26.628,22.9,37.534,37.181.3.036.6.068.905.1,3.039-14.115,4.477-40.08-17.039-53.914-24.492-15.744-32.813-46.139-68.665-48.108-33.333-1.832-51.131,18.653-56.037,25.362q2.131.437,4.327.907Z" transform="translate(5.235 -394.221)" fill="#fbc6a6" stroke="#000" stroke-linejoin="round" stroke-width="0.2"/>
      <path id="Path_2491" data-name="Path 2491" d="M355.154,558.574c-3.075,14.5-6.984,10.581-14.034,24.619l0,.006c3.576.909,7.241,1.945,10.978,3.157,3.153-4.385,6.119-8.373,8.895-11.765,12.762-15.6,33.3-27.3,53.479-35.127.919-5.12,3.757-14.438,12.491-20.988,12.621-9.467,23.754-5.031,32.914-5.935,8.162-.8,16.21.381,22.3,8.459,11.538-3.135,23.387-6.071,36.141-7.518,4.229-.482,8.556-.8,13.005-.905h.02c.775-.018,1.545-.024,2.316-.028,30.5-.163,58.452,10.6,58.452,10.6,3.277,1.4,6.452,2.97,9.541,4.67,1.26.694,2.513,1.4,3.745,2.143h0c-1.172-.993-2.316-1.939-3.444-2.856-30.58-24.834-46.224-22.038-81.024-29.687-.237-.052-.464-.1-.7-.152-2.517-.558-4.949-1.09-7.331-1.6l-.269.16.269-.16q-2.191-.467-4.327-.907c-29.974-6.123-51.735-7.137-98.129,7.927a161.333,161.333,0,0,0-32.257,14.231A142.474,142.474,0,0,0,351.4,537.365C354.126,542.575,356.9,550.362,355.154,558.574Z" transform="translate(-78.781 -383.546)" fill="#ea6157" stroke="#000" stroke-linejoin="round" stroke-width="0.2"/>
      <path id="Path_2492" data-name="Path 2492" d="M353.531,559.71c7.05-14.038,10.96-10.123,14.034-24.619,1.742-8.212-1.028-16-3.757-21.209a264.061,264.061,0,0,0-23.686,26.642c-3.687,4.642-7.434,9.509-11.335,14.629a191.859,191.859,0,0,1,24.739,4.564Z" transform="translate(-91.193 -360.063)" fill="#fbc6a6" stroke="#000" stroke-linejoin="round" stroke-width="0.2"/>
      <path id="Path_2493" data-name="Path 2493" d="M426.574,493.265l.269-.16h0Z" transform="translate(7.27 -380.984)" fill="#fbc6a6" stroke="#000" stroke-linejoin="round" stroke-width="0.2"/>
      <path id="Path_2494" data-name="Path 2494" d="M560.5,560.286a171.15,171.15,0,0,1-32.328-7.018c-6.534-2.081-12.72-4.407-18.566-6.912q-5.732-2.456-11.032-5.126a194.987,194.987,0,0,1-53.822-39.713c-.771,0-1.541.01-2.316.028h-.02c-4.449.106-8.776.423-13,.905a200.834,200.834,0,0,0,61.438,48.293q5.38,2.767,11.2,5.357a220.78,220.78,0,0,0,22.506,8.533,180.107,180.107,0,0,0,45.176,8.467c-2.746-4.026-5.575-8-8.505-11.871C560.981,560.912,560.739,560.6,560.5,560.286Z" transform="translate(10.125 -372.513)" fill="#ea6157" stroke="#000" stroke-linejoin="round" stroke-width="0.2"/>
      <path id="Path_2495" data-name="Path 2495" d="M592.5,583.252c12.957,14.946,25.33,30.407,37.126,43.041,6.619-9.4.377-30.166-8.8-40.564-10.55-11.957-17.936-25.673-40.444-37.63-13.14-6.98-23.395-6.886-29.663-5.6C565.262,553.094,579.188,567.891,592.5,583.252Z" transform="translate(132.281 -331.93)" fill="#fff6eb" stroke="#000" stroke-linejoin="round" stroke-width="0.2"/>
      <path id="Path_2496" data-name="Path 2496" d="M592.483,586.534c-1.1-.8-2.2-1.586-3.309-2.338q-1.758-1.192-3.462-2.44c-.379-.277-.751-.562-1.126-.841-.755-.564-1.507-1.128-2.25-1.7-.438-.339-.867-.687-1.3-1.032q-1-.8-1.993-1.612c-.451-.373-.9-.751-1.344-1.128q-.942-.8-1.874-1.614-.671-.587-1.337-1.182-.918-.822-1.824-1.662c-.431-.4-.867-.8-1.294-1.2-.616-.58-1.226-1.17-1.835-1.76-.4-.392-.808-.779-1.208-1.174-.67-.664-1.333-1.337-2-2.013-.325-.331-.654-.656-.977-.991q-1.433-1.481-2.844-3c-.369-.4-.732-.8-1.1-1.2-.588-.64-1.174-1.278-1.756-1.925-.443-.5-.885-1-1.327-1.5-.5-.562-.992-1.122-1.483-1.688-.463-.534-.925-1.074-1.386-1.612s-.923-1.08-1.383-1.623q-.714-.843-1.423-1.7-.65-.783-1.3-1.569c-.488-.592-.976-1.184-1.459-1.782q-.605-.74-1.2-1.489c-.512-.634-1.024-1.266-1.531-1.9q-.5-.626-1-1.256-.861-1.083-1.718-2.173l0,0-.012-.016q-1.559-1.984-3.109-3.992l-.249-.321c-3.472-4.493-6.934-9.057-10.44-13.649l-.144-.189q-1.277-1.671-2.561-3.346-.452-.587-.9-1.172-1.042-1.355-2.087-2.705c-.43-.554-.865-1.108-1.3-1.662-.592-.761-1.182-1.519-1.78-2.28q-1.505-1.914-3.035-3.829c-.407-.51-.823-1.018-1.234-1.525q-.993-1.234-1.993-2.463c-.456-.558-.919-1.112-1.377-1.668-.638-.771-1.275-1.541-1.919-2.308-.06-.07-.12-.141-.179-.211-.03.1-8.738,29.245,4.3,60.379.709,1.692,1.435,3.263,2.173,4.761a61.056,61.056,0,0,0,6.806,10.958c11.77,14.879,25.751,15.327,37.961,26.895,15.511,14.7,17.143,26.532,35.513,29.39a75.488,75.488,0,0,0,20.722.546,57.086,57.086,0,0,0,14.656-3.727C620.948,611.927,607.021,597.13,592.483,586.534Z" transform="translate(90.522 -375.966)" fill="#fbc6a6" stroke="#000" stroke-linejoin="round" stroke-width="0.2"/>
      <path id="Path_2497" data-name="Path 2497" d="M918.756,708.246c-11.8-12.634-24.17-28.1-37.126-43.041a57.1,57.1,0,0,1-14.656,3.727,75.492,75.492,0,0,1-20.722-.546c-18.369-2.858-20-14.695-35.512-29.39-12.21-11.568-26.191-12.015-37.961-26.9a61.053,61.053,0,0,1-6.806-10.958c-.739-1.5-1.465-3.069-2.173-4.76-13.039-31.134-4.331-60.28-4.3-60.378-.419-.5-.843-1-1.264-1.491q-.96-1.132-1.933-2.258-.738-.855-1.485-1.7-.981-1.12-1.975-2.232-.755-.843-1.517-1.684-1.021-1.123-2.057-2.236c-.5-.542-1.006-1.084-1.515-1.624-.727-.771-1.465-1.535-2.206-2.3-.488-.5-.969-1.01-1.463-1.509-.827-.839-1.67-1.672-2.513-2.5-.42-.415-.835-.835-1.258-1.246q-1.918-1.861-3.888-3.687-1.7-1.575-3.365-3.075c-.353-.319-.7-.628-1.052-.941q-1.147-1.03-2.28-2.029-.593-.521-1.184-1.034-1.084-.948-2.157-1.863c-.377-.323-.755-.646-1.128-.961q-1.234-1.045-2.454-2.047c-.245-.2-.494-.411-.739-.612q-1.556-1.273-3.095-2.485c-.307-.241-.61-.474-.915-.71-.729-.568-1.455-1.13-2.177-1.676-.387-.295-.775-.582-1.16-.869q-.975-.728-1.947-1.431c-.391-.283-.783-.566-1.174-.845-.68-.484-1.361-.955-2.039-1.423-.335-.233-.674-.47-1.009-.7q-1.478-1-2.948-1.947c-.245-.159-.49-.307-.737-.462q-1.135-.719-2.268-1.409c-.383-.233-.765-.457-1.148-.684q-.939-.554-1.878-1.092-.608-.346-1.218-.684c-.628-.349-1.26-.688-1.891-1.024-.383-.2-.765-.409-1.146-.606-.809-.417-1.618-.821-2.428-1.216-.2-.1-.4-.2-.6-.3-.949-.454-1.9-.889-2.858-1.315q-.343-.154-.686-.305-1.4-.608-2.8-1.178c-.229-.094-.462-.185-.692-.275-.961-.381-1.927-.753-2.9-1.106-.1-.038-.207-.072-.309-.11q-1.4-.5-2.828-.971c-.225-.072-.448-.149-.672-.221q-1.463-.47-2.948-.9c-.245-.072-.49-.14-.732-.211-1.018-.289-2.041-.57-3.079-.835-.132-.034-.267-.064-.4-.1q-1.466-.367-2.956-.7c-.211-.046-.421-.1-.634-.142q-1.572-.346-3.179-.654c-.255-.05-.512-.1-.771-.147q-1.629-.3-3.291-.578l-.534-.082q-1.571-.25-3.177-.47l-.58-.08c-1.15-.155-2.316-.293-3.494-.425-.265-.03-.53-.058-.8-.086-1.186-.126-2.382-.245-3.6-.351-.207-.018-.42-.034-.628-.05q-1.758-.148-3.56-.269l-.464-.032c-1.278-.082-2.581-.151-3.9-.213-.277-.014-.554-.026-.835-.038q-1.96-.087-3.974-.145c-.241-.008-.484-.012-.724-.018q-2.017-.054-4.088-.08l-.279-.006c-1.439-.016-2.906-.02-4.391-.02-.285,0-.568,0-.855,0q-2.18.006-4.427.038c-.275,0-.556.008-.833.014-1.571.024-3.157.056-4.779.1-27.943.725-37.73-2.956-47.855-7.02-3.709,3.434-8.353,8.106-14.157,14.49-22.415,24.657-38.852,39.6-72.4,37.359s-42.659-11.955-82.26-6.725c-22.6,2.986-40.082.371-50.932-2.422-18.562,11.809-38.513,29.873-56.606,49.366.078.125,9.252,14.715,6.284,31.589-2.98,16.947-14.713,13.91-19.491,35.633s6.083,37.367-7.387,64.306a21.7,21.7,0,0,1-6.244,7.753c11.074,5.533,22.187,10.932,33.122,14.693,0,0,38.832-27.254,72.165-65.191,4.552-5.18,9-10.556,13.234-16.091,1.3-1.7,2.573-3.372,3.833-5.027q4.4-5.777,8.5-11.191c3.9-5.119,7.648-9.986,11.335-14.628a71.8,71.8,0,0,1-1.846-16.517,36.96,36.96,0,0,1,3.41-15.893c7.133-14.263,17.531-16.128,37.164-15.076,4.3.231,8.228.351,11.743.4a161.33,161.33,0,0,1,32.258-14.231c46.394-15.064,68.155-14.05,98.129-7.927,4.907-6.709,22.7-27.194,56.038-25.362,35.852,1.969,44.173,32.364,68.665,48.108,21.516,13.834,20.078,39.8,17.039,53.914-.06.281-.12.568-.183.841,2.93,3.873,5.76,7.845,8.505,11.871,20.78,30.473,36.673,64.314,53.659,86.737,31.3,41.313,56.336,30.046,73.863,28.794,15.231-1.088,44.638-2.177,69.336-7.373A180.855,180.855,0,0,1,918.756,708.246Z" transform="translate(-156.848 -413.883)" fill="#ea6157" stroke="#000" stroke-linejoin="round" stroke-width="0.2"/>
      <g id="Group_682" data-name="Group 682" transform="translate(109.9 198.145)">
        <path id="Path_2498" data-name="Path 2498" d="M458.11,667.177a7.221,7.221,0,0,0,1.026-13.954h0l6.741-3.169a7.222,7.222,0,0,0-1.425-13.567l-7.247-1.694,6.221-3.689a7.221,7.221,0,0,0-2.763-13.374l-7.167-.919,5.453-4.124a7.221,7.221,0,0,0-4.327-12.981l-6.824-.026,4.409-4.417a7.221,7.221,0,0,0-6.2-12.24l-6.151.937,3.167-4.522a7.22,7.22,0,0,0-8.345-10.942l-5.178,1.85,1.933-4.558a7.221,7.221,0,0,0-10.526-8.911l-4.168,2.653.841-4.895a7.22,7.22,0,0,0-12.284-6.261l-3.474,3.56-.291-5.543a7.22,7.22,0,0,0-13.308-3.488l-2.982,4.7-1.515-6.147a7.22,7.22,0,0,0-13.671-1.056l-2.452,5.86-2.44-5.844a7.221,7.221,0,0,0-13.673,1.056l-1.509,6.129-2.988-4.71a7.22,7.22,0,0,0-13.308,3.484l-.293,5.553-3.472-3.56a7.22,7.22,0,0,0-12.284,6.264l.839,4.891-4.17-2.657a7.22,7.22,0,0,0-10.526,8.909l1.935,4.562-5.168-1.85a7.221,7.221,0,0,0-8.347,10.942l3.163,4.512-6.149-.937a7.22,7.22,0,0,0-6.2,12.238l4.409,4.415-6.826.026a7.22,7.22,0,0,0-4.331,12.977l5.455,4.127-7.183.921a7.221,7.221,0,0,0-2.764,13.372l6.234,3.7-7.271,1.7a7.221,7.221,0,0,0-1.423,13.565l6.761,3.179h0a7.22,7.22,0,0,0,1.026,13.952s38.631,9.577,90.5,9.577C410.29,676.756,458.11,667.177,458.11,667.177Z" transform="translate(-265.161 -535.968)" fill="#ea6157" stroke="#000" stroke-linejoin="round" stroke-width="0.2"/>
        <path id="Path_2499" data-name="Path 2499" d="M328.6,567.514s3.765-10.059,9.443-6.577,0,11.994,0,11.994" transform="translate(-201.282 -511.564)" fill="none" stroke="#000" stroke-linejoin="round" stroke-width="0.2"/>
      </g>
      <path id="Path_2500" data-name="Path 2500" d="M296.457,649.874c34.417,0,58.321-10.444,58.321-10.444a4.652,4.652,0,0,0,.66-8.991h0l4.345-2.041a4.653,4.653,0,0,0-.919-8.742l-4.668-1.094,4.008-2.376a4.653,4.653,0,0,0-1.78-8.618l-4.618-.592,3.514-2.657a4.653,4.653,0,0,0-2.79-8.365l-4.4-.018,2.842-2.846a4.652,4.652,0,0,0-3.994-7.887l-3.964.6,2.041-2.912a4.653,4.653,0,0,0-5.377-7.052l-3.338,1.194,1.246-2.938a4.653,4.653,0,0,0-6.783-5.742l-2.685,1.71.54-3.155a4.652,4.652,0,0,0-7.915-4.036l-2.238,2.3-.189-3.572a4.653,4.653,0,0,0-8.576-2.248l-1.921,3.033-.977-3.962a4.653,4.653,0,0,0-8.811-.68l-1.579,3.777-1.573-3.767a4.653,4.653,0,0,0-8.81.68l-.973,3.95-1.925-3.037a4.653,4.653,0,0,0-8.575,2.246l-.189,3.578-2.238-2.294a4.652,4.652,0,0,0-7.915,4.036l.54,3.151-2.687-1.712a4.654,4.654,0,0,0-6.784,5.742l1.248,2.94-3.331-1.192a4.653,4.653,0,0,0-5.379,7.05L249.9,585.8l-3.962-.606a4.653,4.653,0,0,0-3.994,7.887l2.84,2.845-4.4.016A4.653,4.653,0,0,0,237.6,604.3l3.514,2.659-4.626.592a4.654,4.654,0,0,0-1.782,8.618l4.016,2.382-4.684,1.1a4.652,4.652,0,0,0-.917,8.74l4.357,2.049h0a4.653,4.653,0,0,0,.66,8.991S261.8,649.874,296.457,649.874Z" transform="translate(-190.219 -318.78)" fill="#b25269" stroke="#000" stroke-linejoin="round" stroke-width="0.2"/>
    </g>
    <g id="Group_684" data-name="Group 684" transform="translate(286.394 240.232)">
      <path id="Path_2501" data-name="Path 2501" d="M252.278,598.637s-6.083,11.8,13.17,10.663,32.163-13.607,32.163-13.607,10.133-12.74,7.237-34.455-15.923-25.189-20.555-13.607c0,0-8.4-8.762-16.214-4.814s-5.977,13.057-5.015,15.885c0,0-8.03,0-11.7,7.171-3.348,6.545.911,13.607.911,13.607a11.033,11.033,0,0,0-7.072,9.844C244.916,596.851,252.278,598.637,252.278,598.637Z" transform="translate(-245.197 -541.12)" fill="#fbc6a6" stroke="#000" stroke-linejoin="round" stroke-width="0.2"/>
      <circle id="Ellipse_461" data-name="Ellipse 461" cx="2.4" cy="2.4" r="2.4" transform="translate(21.484 25.969)" fill="#b25269" stroke="#000" stroke-linejoin="round" stroke-width="0.2"/>
      <circle id="Ellipse_462" data-name="Ellipse 462" cx="2.4" cy="2.4" r="2.4" transform="translate(31.731 23.569)" fill="#b25269" stroke="#000" stroke-linejoin="round" stroke-width="0.2"/>
      <circle id="Ellipse_463" data-name="Ellipse 463" cx="2.426" cy="2.426" r="2.426" transform="translate(20.125 36.902)" fill="#b25269" stroke="#000" stroke-linejoin="round" stroke-width="0.2"/>
      <line id="Line_38" data-name="Line 38" x2="11.928" y2="3.308" transform="translate(24.976 39.328)" fill="#fbc6a6" stroke="#000" stroke-linejoin="round" stroke-width="0.2"/>
      <line id="Line_39" data-name="Line 39" x2="5.575" y2="12.613" transform="translate(34.131 28.369)" fill="#fbc6a6" stroke="#000" stroke-linejoin="round" stroke-width="0.2"/>
      <line id="Line_40" data-name="Line 40" x2="12.709" y2="11.843" transform="translate(25.709 29.911)" fill="#fbc6a6" stroke="#000" stroke-linejoin="round" stroke-width="0.2"/>
      <path id="Path_2502" data-name="Path 2502" d="M271.313,568.312S292.422,582,294.624,643.544" transform="translate(-218.9 -513.74)" fill="none" stroke="#000" stroke-linejoin="round" stroke-width="0.2"/>
      <path id="Path_2503" data-name="Path 2503" d="M278.353,562.928a38.072,38.072,0,0,0,.743,28.682S288.293,575.4,278.353,562.928Z" transform="translate(-214.285 -519.161)" fill="#fff6eb" stroke="#000" stroke-linejoin="round" stroke-width="0.2"/>
      <path id="Path_2504" data-name="Path 2504" d="M266.941,580.28c.719.062,5.651,1.945,10.492,7.384A18.23,18.23,0,0,0,293.92,593.5s-2.583-8.844-11.092-13.222A17.23,17.23,0,0,0,266.941,580.28Z" transform="translate(-223.302 -503.649)" fill="#fff6eb" stroke="#000" stroke-linejoin="round" stroke-width="0.2"/>
      <path id="Path_2505" data-name="Path 2505" d="M266.526,583.863s-7.243,2.42-8.545-2.976,4.618-6.117,4.618-6.117-2.828-5.236,0-8.028,7.48-1.674,8.967,0a11.631,11.631,0,0,1,1.862-11.167c4.279-5.21,13.4-2.6,13.212,5.025" transform="translate(-232.513 -529.302)" fill="#fbc6a6" stroke="#000" stroke-linejoin="round" stroke-width="0.2"/>
    </g>
    <g id="Group_685" data-name="Group 685" transform="translate(361.166 251.336)">
      <path id="Path_2506" data-name="Path 2506" d="M293.253,547.347c13.216-2.5,16.894,11.173,16.894,11.173s3.643-11.845,14.135-11.867c8.588-.018,12.367,11.03,12.054,14.873,0,0,10.681-2.019,16.838,3.933,6.49,6.276,1.457,18.315,1.457,18.315s11.789,1.543,12.308,9.88c.632,10.151-11.624,20.362-36.374,17.771s-40.3-12.19-45.969-31.6C278.9,560.324,285.513,548.812,293.253,547.347Z" transform="translate(-282.454 -546.653)" fill="#fbc6a6" stroke="#000" stroke-linejoin="round" stroke-width="0.2"/>
      <path id="Path_2507" data-name="Path 2507" d="M305.007,556.72l-2.038,21.058,20.379-8.6" transform="translate(-261.796 -536.516)" fill="#fbc6a6" stroke="#000" stroke-linejoin="round" stroke-width="0.2"/>
      <line id="Line_41" data-name="Line 41" x1="14.023" y2="18.243" transform="translate(41.173 23.019)" fill="#fbc6a6" stroke="#000" stroke-linejoin="round" stroke-width="0.2"/>
      <circle id="Ellipse_464" data-name="Ellipse 464" cx="2.666" cy="2.666" r="2.666" transform="translate(40.642 14.873)" fill="#b25269" stroke="#000" stroke-linejoin="round" stroke-width="0.2"/>
      <circle id="Ellipse_465" data-name="Ellipse 465" cx="3.053" cy="3.053" r="3.053" transform="translate(61.622 28.211)" fill="#b25269" stroke="#000" stroke-linejoin="round" stroke-width="0.2"/>
      <circle id="Ellipse_466" data-name="Ellipse 466" cx="3.053" cy="3.053" r="3.053" transform="translate(53.882 17.152)" fill="#b25269" stroke="#000" stroke-linejoin="round" stroke-width="0.2"/>
      <path id="Path_2508" data-name="Path 2508" d="M290.554,569.88s2.222-11.432,12.772-11.753,11.939,14.952,11.939,14.952,9.021-7.231,14.229-3.2,0,12.226,0,12.226,7.883-1.5,8.732,3.43-4.245,7.159-10.189,6.721" transform="translate(-274.298 -535.104)" fill="#fbc6a6" stroke="#000" stroke-linejoin="round" stroke-width="0.2"/>
    </g>
    <path id="Path_2509" data-name="Path 2509" d="M378.355,589.925c-1.367-5.461,9.342-10.452,20.017-10.43s17.884,3.225,18.418,7.227-14.414,6.687-23.756,7.08S379.423,594.2,378.355,589.925Z" transform="translate(175.159 -262.248)" fill="#fff" stroke="#000" stroke-linejoin="round" stroke-width="0.2"/>
    <path id="Path_2510" data-name="Path 2510" d="M472.051,543.256s0,70.883,54.737,87.2c0,0,2.129-39.254-24.406-60.77S472.051,543.256,472.051,543.256Z" transform="translate(269.623 -298.738)" fill="#b25269" stroke="#000" stroke-linejoin="round" stroke-width="0.2"/>
    <path id="Path_2511" data-name="Path 2511" d="M476.574,552.566c15.269,36.42,33.285,40.853,45.66,68.515" transform="translate(274.178 -289.363)" fill="none" stroke="#000" stroke-linejoin="round" stroke-width="0.2"/>
    <path id="Path_2512" data-name="Path 2512" d="M369.325,579.2c-.935-4.361,8.166-7.424,12.869-4.7s2.721,7.392-2.475,7.779S370.065,582.661,369.325,579.2Z" transform="translate(166.117 -268.319)" fill="#fff" stroke="#000" stroke-linejoin="round" stroke-width="0.2"/>
    <g id="Group_686" data-name="Group 686" transform="translate(22.246 109.855)">
      <path id="Path_2513" data-name="Path 2513" d="M119.056,529.515c-8.58-4.939-7.1-20.605,4.6-25.426,9.342-3.851,15.566-.183,13.37-12.513-1.784-10,3.556-15.389,8.68-15.419,5.533-.034,10.538,4.518,9.284,15.419s8.774,11.66,12.953,0,15.556-11.65,19.684-3.665c5.776,11.171-6.749,19.574,0,27s37.461-10.8,50.286-.676,2.025,19.575-10.462,24.974-13.836,14.512-5.061,14.851,38.918-5.479,47.586,10.462c7.49,13.774-4.959,17.009-12.826,19.574-9.587,3.125-11.811,14.175,1.688,16.2s32.821-4.285,57.974,7.933c19.371,9.408-1.82,29.072-27.262,29.072-20.607,0,1.664,31.888-9.788,66.648,0,0-16.525-20.412-19.164-30.036-3.9-14.217,1.2-21.5-4.405-23.614-7.907-2.984-5.455,29.074-20.3,25.646s-5.322-37.465-4.518-51.833-2.232-20.908-7.632-17.807-4.455,17.641-8.774,23.78c-6.611,9.4-19.814,3.231-20.794-8.379-1.453-17.2,10.613-31.962,9.7-45.038-.684-9.759-13.509-11.875-14.183-.4s-4.417,28.412-14.205,24.025,2.256-34.762,2.647-45.224-4-18.225-11.084-14.849-2.214,24.093-13.161,18.9c-9.645-4.576-9.529-23.613-7.3-30.246,4.156-12.391-3.667-14.482-7.743-10.271C133.152,524.468,127.806,534.553,119.056,529.515Z" transform="translate(-113.579 -476.157)" fill="#ea6157" stroke="#000" stroke-linejoin="round" stroke-width="0.2"/>
      <path id="Path_2514" data-name="Path 2514" d="M128.388,490.56s110.445,38.182,136.457,198.887" transform="translate(-98.668 -461.654)" fill="none" stroke="#000" stroke-linejoin="round" stroke-width="0.2"/>
    </g>
    <path id="Path_2515" data-name="Path 2515" d="M521.474,527.274s36.709,86.657-22.466,124.1C499.009,651.377,487.441,566.506,521.474,527.274Z" transform="translate(294.86 -314.83)" fill="#b25269" stroke="#000" stroke-linejoin="round" stroke-width="0.2"/>
    <path id="Path_2516" data-name="Path 2516" d="M516.066,553.616s1.511,34.154-18.008,71.236" transform="translate(295.811 -288.306)" fill="none" stroke="#000" stroke-linejoin="round" stroke-width="0.2"/>
    <path id="Path_2517" data-name="Path 2517" d="M571.266,562.9s-20.987,52.652-68.715,40.285C502.551,603.188,510.968,560.847,571.266,562.9Z" transform="translate(300.335 -279.028)" fill="#b25269" stroke="#000" stroke-linejoin="round" stroke-width="0.2"/>
    <path id="Path_2518" data-name="Path 2518" d="M545.23,570.713a146.757,146.757,0,0,1-42.679,24.537" transform="translate(300.335 -271.09)" fill="none" stroke="#000" stroke-linejoin="round" stroke-width="0.2"/>
    <g id="Group_687" data-name="Group 687" transform="translate(183.764 175.457)">
      <path id="Path_2519" data-name="Path 2519" d="M216.984,551.746c9.645-2.466,13.8-7.428,15.582-11.239-4.154-14.56-16.9-33.965-26.855-31.438-10.747,2.729-13.575,26.4-10.462,40.307C198.9,551.714,206.014,554.549,216.984,551.746Z" transform="translate(-194.059 -508.845)" fill="#b25269" stroke="#000" stroke-linejoin="round" stroke-width="0.2"/>
      <path id="Path_2520" data-name="Path 2520" d="M231.969,524.621c-1.786,3.811-5.937,8.773-15.582,11.239-10.97,2.8-18.086-.032-21.735-2.37a20.4,20.4,0,0,0,3.223,7.893c7.239,9.268,36.456,4.345,35.422-9.846A35.1,35.1,0,0,0,231.969,524.621Z" transform="translate(-193.462 -492.959)" fill="#fff6eb" stroke="#000" stroke-linejoin="round" stroke-width="0.2"/>
      <path id="Path_2521" data-name="Path 2521" d="M204.479,530.451a82.164,82.164,0,0,1,1.226,9.493" transform="translate(-183.567 -487.089)" fill="none" stroke="#000" stroke-linejoin="round" stroke-width="0.2"/>
      <path id="Path_2522" data-name="Path 2522" d="M211.271,527.29s2.131,5.258,1.537,10.091" transform="translate(-176.728 -490.272)" fill="none" stroke="#000" stroke-linejoin="round" stroke-width="0.2"/>
      <path id="Path_2523" data-name="Path 2523" d="M208.185,529.285s2.172,5.178,1.433,9.866" transform="translate(-179.835 -488.263)" fill="none" stroke="#000" stroke-linejoin="round" stroke-width="0.2"/>
      <path id="Path_2524" data-name="Path 2524" d="M200.628,530.769s-.03,6.073,2.483,9.077" transform="translate(-187.445 -486.768)" fill="none" stroke="#000" stroke-linejoin="round" stroke-width="0.2"/>
      <path id="Path_2525" data-name="Path 2525" d="M197.438,530.294s-.219,5.487,3.095,8.925" transform="translate(-190.66 -487.247)" fill="none" stroke="#000" stroke-linejoin="round" stroke-width="0.2"/>
    </g>
    <path id="Path_2526" data-name="Path 2526" d="M400.312,538.63c-4.325-4.006,1.921-11.6,12.864-12.519s13.461,3.227,10.783,6.26C417.666,539.5,403.776,541.837,400.312,538.63Z" transform="translate(195.995 -316.134)" fill="#fff" stroke="#000" stroke-linejoin="round" stroke-width="0.2"/>
    <ellipse id="Ellipse_467" data-name="Ellipse 467" cx="7.376" cy="4.042" rx="7.376" ry="4.042" transform="translate(627.039 220.673) rotate(-6.114)" fill="#fff" stroke="#000" stroke-linejoin="round" stroke-width="0.2"/>
    <path id="Path_2527" data-name="Path 2527" d="M424.554,528.444c.295-6,21.693-8.865,25.089-2.958,1.654,2.872-2.027,5.369-7.733,6.854S424.313,533.333,424.554,528.444Z" transform="translate(221.793 -319.896)" fill="#fff" stroke="#000" stroke-linejoin="round" stroke-width="0.2"/>
    <g id="Group_690" data-name="Group 690" transform="translate(881.163 157.104)">
      <g id="Group_688" data-name="Group 688" transform="translate(65.054 82.044)">
        <path id="Path_2528" data-name="Path 2528" d="M649.729,567.555s-3.6,18.177,7.789,45.738,5.706,41.628-13.182,47.335c-17.727,5.357-63.846,8.267-69.8-18.727-4.794-21.717,22.5-40.458,24.282-79.021S648.34,542.356,649.729,567.555Z" transform="translate(-573.969 -540.58)" fill="#fff6eb" stroke="#000" stroke-linejoin="round" stroke-width="0.2"/>
        <path id="Path_2529" data-name="Path 2529" d="M608.422,586.29s2.665,11.5,0,18.542" transform="translate(-539.277 -494.554)" fill="none" stroke="#000" stroke-linejoin="round" stroke-width="0.2"/>
        <path id="Path_2530" data-name="Path 2530" d="M612.008,586.29s1.6,8.263,0,13.061" transform="translate(-535.666 -494.554)" fill="none" stroke="#000" stroke-linejoin="round" stroke-width="0.2"/>
        <path id="Path_2531" data-name="Path 2531" d="M605.517,589.544a22.38,22.38,0,0,1,0,8.929" transform="translate(-542.202 -491.277)" fill="none" stroke="#000" stroke-linejoin="round" stroke-width="0.2"/>
      </g>
      <g id="Group_689" data-name="Group 689">
        <path id="Path_2532" data-name="Path 2532" d="M541.558,554.275c.317-19.136,23.914-20.063,41.529-21.876s30.678-4.831,59.63-25.466,52.61,7.648,67.2,25.466,29.128,21.494,44.511,30.224,19.409,28.866-15.823,38.93-95.411,11.754-149.482-9.711C557.44,579.261,541.3,569.908,541.558,554.275Z" transform="translate(-541.555 -499.7)" fill="#e5aeae" stroke="#000" stroke-linejoin="round" stroke-width="0.2"/>
        <path id="Path_2533" data-name="Path 2533" d="M613.322,513.939s4.658,16.934,20.7,25.933" transform="translate(-469.289 -485.362)" fill="none" stroke="#000" stroke-linejoin="round" stroke-width="0.2"/>
        <path id="Path_2534" data-name="Path 2534" d="M620.026,519.483s5.435,9.573,13.457,13.455" transform="translate(-462.539 -479.78)" fill="none" stroke="#000" stroke-linejoin="round" stroke-width="0.2"/>
        <path id="Path_2535" data-name="Path 2535" d="M596.541,515.873s-9.7,9.573-22.572,12.16" transform="translate(-508.915 -483.415)" fill="none" stroke="#000" stroke-linejoin="round" stroke-width="0.2"/>
        <path id="Path_2536" data-name="Path 2536" d="M588.721,511.876s-4.4,5.176-6.986,6.209" transform="translate(-501.095 -487.439)" fill="none" stroke="#000" stroke-linejoin="round" stroke-width="0.2"/>
        <path id="Path_2537" data-name="Path 2537" d="M626.731,522.5a21.434,21.434,0,0,0,3.388,3.271" transform="translate(-455.788 -476.739)" fill="none" stroke="#000" stroke-linejoin="round" stroke-width="0.2"/>
        <path id="Path_2538" data-name="Path 2538" d="M631.367,541.7c-.61-4.869,9.322-8.014,16.519-6.543s10.305,5.072,8.016,7.524-7.524,4.193-13.577,3.731S631.694,544.314,631.367,541.7Z" transform="translate(-451.147 -464.366)" fill="#fbc6a6" stroke="#000" stroke-linejoin="round" stroke-width="0.2"/>
        <path id="Path_2539" data-name="Path 2539" d="M618.48,546.789c.116-3.956,8.662-6.051,13.406-3.761s1.308,7.2-4.745,8.014S618.406,549.368,618.48,546.789Z" transform="translate(-464.098 -457.026)" fill="#fbc6a6" stroke="#000" stroke-linejoin="round" stroke-width="0.2"/>
        <path id="Path_2540" data-name="Path 2540" d="M556.572,524.09c.994-2.8,9.2-1.5,14.763,1.636,4.692,2.647,13.6,4.11,13.751,9.44.152,5.429-6.045,4.271-11.018,2.461S554.385,530.237,556.572,524.09Z" transform="translate(-526.654 -476.69)" fill="#fbc6a6" stroke="#000" stroke-linejoin="round" stroke-width="0.2"/>
        <ellipse id="Ellipse_468" data-name="Ellipse 468" cx="4.229" cy="2.456" rx="4.229" ry="2.456" transform="translate(194.821 90.504) rotate(-10.493)" fill="#fbc6a6" stroke="#000" stroke-linejoin="round" stroke-width="0.2"/>
      </g>
    </g>
    <g id="Group_694" data-name="Group 694" transform="translate(272.121 297.748)">
      <g id="Group_691" data-name="Group 691" transform="translate(97.638 33.808)">
        <path id="Path_2541" data-name="Path 2541" d="M379.943,611.435s-6.583,1.883-18.307,12.168-48.1,19.459-68.282,1.5,9.768-35.659,36.394-38.154C355.462,584.54,369.657,595.771,379.943,611.435Z" transform="translate(-286.735 -586.625)" fill="#e5aeae" stroke="#000" stroke-linejoin="round" stroke-width="0.2"/>
        <path id="Path_2542" data-name="Path 2542" d="M287.835,608.307s31.96-15.516,77.012-7.935" transform="translate(-285.628 -574.883)" fill="none" stroke="#000" stroke-linejoin="round" stroke-width="0.2"/>
        <path id="Path_2543" data-name="Path 2543" d="M318.462,591.077a31.858,31.858,0,0,1-16.951,16.553,40.944,40.944,0,0,1,16.951,11.9" transform="translate(-271.857 -582.141)" fill="none" stroke="#000" stroke-linejoin="round" stroke-width="0.2"/>
        <path id="Path_2544" data-name="Path 2544" d="M324.325,593.976a21.816,21.816,0,0,1-12.8,8.722s9.916,5.686,13.826,13.914" transform="translate(-261.77 -579.222)" fill="none" stroke="#000" stroke-linejoin="round" stroke-width="0.2"/>
        <path id="Path_2545" data-name="Path 2545" d="M327.462,596.217s-2.466,4.124-6.994,4.754a16.193,16.193,0,0,1,5.553,7.829" transform="translate(-252.769 -576.966)" fill="none" stroke="#000" stroke-linejoin="round" stroke-width="0.2"/>
      </g>
      <g id="Group_692" data-name="Group 692" transform="translate(0 26.498)">
        <path id="Path_2546" data-name="Path 2546" d="M238.085,591.887c8.289,9.96,16.658,35.8,40.931,42.085,29.239,7.578,38.625-5.412,55.921-2.994,0,0-2.882-29.153-34.589-42.77S238.085,591.887,238.085,591.887Z" transform="translate(-238.085 -582.982)" fill="#e5aeae" stroke="#000" stroke-linejoin="round" stroke-width="0.2"/>
        <path id="Path_2547" data-name="Path 2547" d="M249.914,591.077s40.168.857,73.112,31.75" transform="translate(-226.174 -574.832)" fill="none" stroke="#000" stroke-linejoin="round" stroke-width="0.2"/>
        <path id="Path_2548" data-name="Path 2548" d="M264.777,618.834c-.283-1.068,8.961-10.526,25.159-11.67a26.1,26.1,0,0,1-5.156-14.311" transform="translate(-211.214 -573.044)" fill="none" stroke="#000" stroke-linejoin="round" stroke-width="0.2"/>
        <path id="Path_2549" data-name="Path 2549" d="M256.475,612.794s9-10.585,27.527-9.975c0,0-5.533-2.968-6.529-13.16" transform="translate(-219.568 -576.258)" fill="none" stroke="#000" stroke-linejoin="round" stroke-width="0.2"/>
        <path id="Path_2550" data-name="Path 2550" d="M249.914,607.23c1.2-.776,9.842-8.776,21.568-8.27a14.127,14.127,0,0,1-6.131-12.172" transform="translate(-226.174 -579.151)" fill="none" stroke="#000" stroke-linejoin="round" stroke-width="0.2"/>
      </g>
      <g id="Group_693" data-name="Group 693" transform="translate(87.794)">
        <path id="Path_2551" data-name="Path 2551" d="M326.817,569.779s14.671,62.211-35.585,74.493c0,0-15.295-18.713-6.868-40.359S326.817,569.779,326.817,569.779Z" transform="translate(-281.831 -569.779)" fill="#e5aeae" stroke="#000" stroke-linejoin="round" stroke-width="0.2"/>
        <path id="Path_2552" data-name="Path 2552" d="M311.953,577.867s-3.205,27.206-25.438,58.261" transform="translate(-277.114 -561.635)" fill="none" stroke="#000" stroke-linejoin="round" stroke-width="0.2"/>
        <path id="Path_2553" data-name="Path 2553" d="M287.835,589.66s6.972,10.6,5.846,21.432c0,0,7.251-6.6,14.847-5.549" transform="translate(-275.784 -549.76)" fill="none" stroke="#000" stroke-linejoin="round" stroke-width="0.2"/>
        <path id="Path_2554" data-name="Path 2554" d="M291.881,584s6.109,7.012,4.369,20.019c0,0,6.246-8.2,13.179-8.662" transform="translate(-271.71 -555.458)" fill="none" stroke="#000" stroke-linejoin="round" stroke-width="0.2"/>
        <path id="Path_2555" data-name="Path 2555" d="M295.535,579.3c1.571.524,4.16,3.93,4.57,9.429,0,0,3.55-4.451,7.217-4.714" transform="translate(-268.031 -560.189)" fill="none" stroke="#000" stroke-linejoin="round" stroke-width="0.2"/>
      </g>
    </g>
    <g id="Group_697" data-name="Group 697" transform="translate(625.138 254.439)">
      <g id="Group_695" data-name="Group 695" transform="translate(0 64.035)">
        <path id="Path_2556" data-name="Path 2556" d="M413.984,580.106a144.391,144.391,0,0,0,18.357,25.3c16.2,18.04,30.349,29.694,78.373,29.694,0,0-6.649-27.338-33.616-38.421S426.973,588.284,413.984,580.106Z" transform="translate(-413.984 -580.106)" fill="#e5aeae" stroke="#000" stroke-linejoin="round" stroke-width="0.2"/>
        <path id="Path_2557" data-name="Path 2557" d="M495.915,623.439c-27.706-28.815-67.234-31.749-67.234-31.749" transform="translate(-399.185 -568.443)" fill="none" stroke="#000" stroke-linejoin="round" stroke-width="0.2"/>
      </g>
      <path id="Path_2558" data-name="Path 2558" d="M454.515,548.2s1.435,3.922-4.915,27.447c-7.793,28.866,2.155,66.813,27.856,91.584,0,0,3.065-8.246,6.864-19.935C489.3,631.962,500.417,588.189,454.515,548.2Z" transform="translate(-380.728 -548.199)" fill="#e5aeae" stroke="#000" stroke-linejoin="round" stroke-width="0.2"/>
      <path id="Path_2559" data-name="Path 2559" d="M455.755,563.443s13.119,20.525,12.9,88.437" transform="translate(-371.924 -532.849)" fill="none" stroke="#000" stroke-linejoin="round" stroke-width="0.2"/>
      <path id="Path_2560" data-name="Path 2560" d="M553.644,577.6s-37.59,17.043-53.169,34.489S461.895,637.7,461.895,637.7s13.533,1.981,29.923,4.945C515.733,646.969,557.355,647.838,553.644,577.6Z" transform="translate(-365.741 -518.591)" fill="#e5aeae" stroke="#000" stroke-linejoin="round" stroke-width="0.2"/>
      <path id="Path_2561" data-name="Path 2561" d="M534.432,589.69s-17.117,31.083-66.923,29.885" transform="translate(-360.088 -506.42)" fill="none" stroke="#000" stroke-linejoin="round" stroke-width="0.2"/>
      <g id="Group_696" data-name="Group 696" transform="translate(96.73 2.896)">
        <path id="Path_2562" data-name="Path 2562" d="M506.708,549.642c12.25,14.343,32.89,85.072-44.516,116.135,0,0-.99-40.709,16.818-66.674A312.168,312.168,0,0,0,506.708,549.642Z" transform="translate(-462.182 -549.642)" fill="#e5aeae" stroke="#000" stroke-linejoin="round" stroke-width="0.2"/>
        <path id="Path_2563" data-name="Path 2563" d="M503.907,570.713s-3.141,23.054-41.72,73.847" transform="translate(-462.177 -528.425)" fill="none" stroke="#000" stroke-linejoin="round" stroke-width="0.2"/>
      </g>
    </g>
    <g id="Group_698" data-name="Group 698" transform="translate(165.916 213.352)">
      <path id="Path_2564" data-name="Path 2564" d="M190.841,599.527s-9,15.014,7.759,21.948,47.584.887,47.584.887,13.336,8.187,25.729-4.152c20.479,7.337,43.2-13.976,29.389-40.034,0,0,11.476-21.241-7.947-26.985,0,0-5.17-23.8-26.893-12.455,0,0-3.307-12.367-17.813-10.885-13.85,1.415-16.136,11.64-16.136,11.64s-13.872-5.395-23.7,1.9c-11.464,8.511-7.1,22.026-6.228,28.266,0,0-13.952-.074-16.8,11.679S190.841,599.527,190.841,599.527Z" transform="translate(-185.166 -527.727)" fill="#e5aeae" stroke="#000" stroke-linejoin="round" stroke-width="0.2"/>
      <path id="Path_2565" data-name="Path 2565" d="M201.992,560.775s14.412,17.4,16.074,65.946" transform="translate(-168.224 -494.449)" fill="none" stroke="#000" stroke-linejoin="round" stroke-width="0.2"/>
      <path id="Path_2566" data-name="Path 2566" d="M198.954,564.244c.554,1.385,3.378,28.7,20.4,37.214" transform="translate(-171.283 -490.956)" fill="none" stroke="#000" stroke-linejoin="round" stroke-width="0.2"/>
      <path id="Path_2567" data-name="Path 2567" d="M203,556.9s-2.224-4.371,0-5.8,4.076,1.722,4.076,1.722-.634-6.856,2.924-6.669,4.116,6.855,4.116,6.855" transform="translate(-168.2 -509.173)" fill="none" stroke="#000" stroke-linejoin="round" stroke-width="0.2"/>
      <path id="Path_2568" data-name="Path 2568" d="M225.256,547.387s5.617-6.284,8.339-3.891c1.919,1.686-1.668,8.162-1.668,8.162s3.336-5.383,6.3-3.53-2.964,10.191-2.964,10.191" transform="translate(-144.799 -512.395)" fill="none" stroke="#000" stroke-linejoin="round" stroke-width="0.2"/>
      <path id="Path_2569" data-name="Path 2569" d="M212.922,560.775s7.231,21.551,6.4,68.888" transform="translate(-157.218 -494.449)" fill="none" stroke="#000" stroke-linejoin="round" stroke-width="0.2"/>
      <path id="Path_2570" data-name="Path 2570" d="M209.117,561.839s3.594,43.88,14.1,46.513" transform="translate(-161.05 -493.378)" fill="none" stroke="#000" stroke-linejoin="round" stroke-width="0.2"/>
      <path id="Path_2571" data-name="Path 2571" d="M219.275,561.839s-1.628,28.033,5.182,30.836" transform="translate(-150.992 -493.378)" fill="none" stroke="#000" stroke-linejoin="round" stroke-width="0.2"/>
      <path id="Path_2572" data-name="Path 2572" d="M225.837,562.562s-5.641,38.7-4.722,62.359" transform="translate(-149.071 -492.65)" fill="none" stroke="#000" stroke-linejoin="round" stroke-width="0.2"/>
      <path id="Path_2573" data-name="Path 2573" d="M227.94,632.354s7.028-52.7,0-71.11" transform="translate(-142.096 -493.977)" fill="none" stroke="#000" stroke-linejoin="round" stroke-width="0.2"/>
    </g>
    <path id="Path_2574" data-name="Path 2574" d="M566.514,606.255c-.666-3.111,5.824-5.294,9.178-3.353s1.943,5.272-1.764,5.549S567.044,608.727,566.514,606.255Z" transform="translate(364.693 -239.418)" fill="#fff" stroke="#000" stroke-linejoin="round" stroke-width="0.2"/>
    <ellipse id="Ellipse_469" data-name="Ellipse 469" cx="8.495" cy="4.264" rx="8.495" ry="4.264" transform="translate(54.369 238.027)" fill="#fff" stroke="#000" stroke-linejoin="round" stroke-width="0.2"/>
  </g>
</svg>
