<svg id="圖層_1" data-name="圖層 1" xmlns="http://www.w3.org/2000/svg" viewBox="0 0 472.2 312.99"><defs><style>.cls-1,.cls-12{fill:#fff;}.cls-2{opacity:0.32;}.cls-3{fill:#ddd658;}.cls-10,.cls-11,.cls-12,.cls-3,.cls-5,.cls-6,.cls-7,.cls-8,.cls-9{stroke:#000;stroke-linejoin:round;stroke-width:0.23px;}.cls-4{fill:#b8bf30;}.cls-5{fill:none;}.cls-6{fill:#5b9348;}.cls-7{fill:#ecb36f;}.cls-8{fill:#fff6eb;}.cls-9{fill:#d3e296;}.cls-10{fill:#237a50;}.cls-11{fill:#c19165;}</style></defs><title>01</title><path class="cls-1" d="M470.58,236.94c-4.1-6.51-25.22-15.2-44.37-22.79a114.5,114.5,0,0,0-14.48-4.52c-3.71-5.82-7.62-11.79-12.11-16.71a7.28,7.28,0,0,0-1.2-5.11c-1.38-2.1.3-4.46-3-6.4a19,19,0,0,1-3.13-2.38c3.73-.63,7.36-1,10.45-1.45-.28,1-.78,2.87-1.26,4.65-.74,2.7.45,4.72,2.85,5.46s1.63,2.49,3.79,2.61,4.94-.81,4.18-3.76a23.2,23.2,0,0,0-6.1-9.46,18.73,18.73,0,0,0,3.95-1c0,.42.11.92.22,1.57.35,2.09,3.57,3.21,6.23,4s2.34-1.32,4.52-6.17-.92-6.48-3.29-7.76-3.35.77-5.74,3.23a7.78,7.78,0,0,0-1.82,2.65,13.45,13.45,0,0,0-2.63-.22,8.59,8.59,0,0,0,2.62-5.54c0-1.73,2-3.37,1.17-5.39s-4.62.12-7.6.79a3.82,3.82,0,0,0-2.59,5.95c1.24,1.78,1.15,3.3,1.51,4.46-2.2.21-4.57.51-6.86.82.2-.5.41-1.07.71-1.74,1.08-2.4.8-4.17.95-7.13s-1.47-3.43-3.06-4.1h0c.84.17,1.67.24,2.35.31,2.43.21,3.25-1.28,3.46-3.69s-2.31-3.39-4.24-3.81a9.3,9.3,0,0,0-3.78.05,5.7,5.7,0,0,0,1.65-2.4,28.22,28.22,0,0,0,3.81-.2c2.72-.15,4.24-2.23,5.18-5.56s-1.32-3.78-4.39-3.76-3.15-.28-4.91,3.77a9.31,9.31,0,0,0-1,4.37,8,8,0,0,0-2.57,1.14c-.25-1.93.86-4.24.95-6.65s-1.73-2.59-3.84-2.78c-1.57-.15-1.48,1.27-3.06,3.54a4.85,4.85,0,0,0,1.15,6.84,6.33,6.33,0,0,0,2.15.87c-1.44,1.08-3,2.37-4.58,3.73a6.78,6.78,0,0,0,0-1.91c-.31-1.81-2.55-1.69-3.1-3s.89-4.74-1.16-4.69a3.57,3.57,0,0,0-2.41.86l-.22-.5a19.67,19.67,0,0,0,1.67-2.21c.13-.19.22-.37.32-.55a5.22,5.22,0,0,0,2-3.69c0-2.28,1.68-4.14,1.14-5.63s-2.25-2.24-4.41,0a8.77,8.77,0,0,1-4.11,2.44,14.36,14.36,0,0,0,.37-4.59A5,5,0,0,0,377,131c1-2.27-1.75-4-1.82-6.56s-3-2.55-4.48-2c-1.32.54-2.24,2.92-2,6.63.19,2.61,1.17,3.83,2.09,4.36a6.64,6.64,0,0,0-.39.76,1.31,1.31,0,0,0-1-.38c-1.48-3.13-2.84-5.85-4.05-8-7.69-13.41-13.43-41.77-33.73-21.89l-.2-.18c-1.58-1.19-5.05.34-5,2.07,0,1.15-.05,2.44,0,3.87-.62.77-1.23,1.57-1.84,2.38a.12.12,0,0,1-.05,0l-.21-.16,0-.21c-1.82-12-10.74-18.12-14.37-22.56a14.4,14.4,0,0,0-2.79-2.6c2.47-5.16,6.38-10.1,10.34-14.46,1.3.87,4.91-3.19,5.48-1.51.65,1.9-6.59,5.2-5.58,7.47s5.9-1,5.38,1.84-2.2,7.39.26,7.94c5.07,1.13,3.5-7.75,5.84-9.09s2.8,4.17,4.92,3.7.74-6,.08-8.63,1.7-2.43,2.48-.84a1.68,1.68,0,0,0,3,.28c1,1.06,1.8,1.58,2.37,1.23,2.42-1.51-.9-6.18,1-6.21s6.72,9.94,9.21,8.47-1.81-8,.89-6.53,8.56,5.19,9.86,2.89c2.38-4.21-9-6.77-9.56-9s9.72-.94,7.75-5.53-14.75,2.51-15.29-.13,8-.63,6.33-5.11a1.87,1.87,0,0,0-.94-1c-.94-2-5.37.84-6-2.17-.67-3.38,14.08-3.16,13.59-7.07s-7.23.52-8.89-2.25,7.78-9.26,3.88-12.19S345.06,39.9,342.39,39s-.06-8.58-3.28-8.16c-1.39.18-1.61,2.45-1.66,5.08a2.21,2.21,0,0,1-2.36-.66c-1.62-2,2.13-6.89.63-8.17s-1.87.22-3.69,2.08-3.86,2.76-4-.31.54-8.85-2.65-8.86c-3.46,0-1.45,6.81-2.14,8.75S318,26,316.75,29.8a1.75,1.75,0,0,0,.91,2.31c-2.93.45-7.63,3.12-9.54,2.27-2.66-1.19,5.44-4.39,3.08-6.93-1.45-1.55-5.22-.83-9.68,2.81,2.47-3.86,4.09-7.42,2.88-8.12-2.47-1.44-5,3.67-5.94,2s5.66-10.58,3.2-12.1-6.19,5.31-6.19,2.26.62-10-2-10.08c-4.83-.14-1.81,11.11-3.5,12.65s-5.35-8.16-8.5-4.29,9.09,11.89,7,13.59S284.16,19.41,281,23c-.8.9-.42,2.46.6,4.28a1.49,1.49,0,0,0-.61.29,1.56,1.56,0,0,0-.34-.68c-1.82-2.13-3.84-.78-5.73.87-.53-.72-1-1.42-1.38-2-1.8-3-4.22-6.07-6.15-5.07-1.39.71.15,2.51.54,4.08a5,5,0,0,0-2.11,2.19c-1.31-.32-2.91-1.71-4.91-3.12-3-2.14-5.26-1.59-5.9-.26a2.26,2.26,0,0,0-.25,1.21c-1.38.54-1.68,3.19-3.89,2.49-2.76-.88-.48-11-4.29-11.13s-1.27,5.71-4.07,5.33-1.93-9.41-6.08-7.28c-2.25,1.15,2,9.1.76,11s-5-1.29-5.91,2.19c-.66,2.54,3.28,3.86,5.55,5.33a13.66,13.66,0,0,0-3.36-.19c-12.29.93-22.08,23.73-29.58,52.44-4-2.57-7-4.66-8.38-8.48s-2.83-9.8-9.43-8.84c-5.42.78-6.4,8.46-8.29,12.8s-3.74,9.29.36,13.19a9.66,9.66,0,0,0,5,2.09c-.75,1.6-1.75,3.83-2.85,6.64-.87,2.23-1.8,4.64-2.71,7.25a20,20,0,0,0-5.94,9.65,3,3,0,0,0-1.92,2.08,2,2,0,0,0,1.17,2.34c-.54,1.29-6.31,15.4-5.5,27L152,147.12l-.33,1.26c-2.44-.68-4.54-1.31-6-3.36-3.73-5.26-8.21-6.4-10.5-4.43-1.42,1.23-2.64,2.76-1.71,6a8.5,8.5,0,0,1-.45,6.14,9.65,9.65,0,0,0-9.15-7.63,10.61,10.61,0,0,0-1.39.07,9.65,9.65,0,0,0-18.74-.57,10,10,0,0,0-1.1-.1,9.66,9.66,0,0,0-9.94,9.37,9.45,9.45,0,0,0,.23,2.33,9.65,9.65,0,1,0,8.56,17.2c1.3,1.31,5.34,6,6.25,14.81l-.66.32c-6.52-1.75-7-6.35-10.27-9.35a7.21,7.21,0,0,0-11.39,3.49A9.83,9.83,0,0,0,80,175.12a9.67,9.67,0,0,0,.4-2.48,9.8,9.8,0,0,0-9.51-10.09,11.16,11.16,0,0,0-1.42.07,9.79,9.79,0,0,0-19-.58,10.13,10.13,0,0,0-1.12-.1,9.76,9.76,0,0,0-9.85,11.88,9.79,9.79,0,1,0,8.69,17.46A23.1,23.1,0,0,1,53.78,202c-1.83.49-3.6,1-5.33,1.57-2-2.06-3-4.56-5-6.44a7.35,7.35,0,0,0-11.81,4.37c-.54,2.38.29,5.44,2.68,8.06-.84.47-1.66,1-2.43,1.44-10.9,6.91-24,6.58-27,13.68-7.07,16.77,31.43,41.17,63.74,48,27.93,5.93,54.79,23.88,77,23.44,16.25-.32,34.83,8.86,65.25,10.46S298.82,295,324.2,299.52s58.09-8.37,78.09-13.83,38.73-17.81,53.93-26.64S474.67,243.45,470.58,236.94ZM83.29,197.57a7.36,7.36,0,0,0-8.43.19c-.23.2-.45.41-.66.62-.6.06-1.21.11-1.81.18a14.41,14.41,0,0,0-5.75-1.32,20.94,20.94,0,0,1,3.8-5.06,9.77,9.77,0,0,0,14.68-5.8c.57,3.1,3,6.53,7.7,8.64A48.36,48.36,0,0,1,83.29,197.57Zm78.76-43.25a17.63,17.63,0,0,0-2.79-2.62l5,1.31C163.56,153.38,162.83,153.82,162.05,154.32Zm9.37-14.09a31.43,31.43,0,0,1,.32-4.39C171.61,137.26,171.5,138.73,171.42,140.23Zm27.3-33.13a77.23,77.23,0,0,0-4.79-8.92c-.51-.81-1-1.6-1.58-2.39a45.17,45.17,0,0,0,8-1.45c.46-.14.88-.3,1.29-.47C200.62,98.2,199.65,102.63,198.72,107.1Zm59-77.42q-.09-.83-.21-1.56c.36.25.73.49,1.12.73A3.26,3.26,0,0,0,257.71,29.68Zm3.34,1.1a1.86,1.86,0,0,0,0-.47A12.5,12.5,0,0,1,263.36,32C262.3,33.91,260.74,32.41,261.05,30.78Zm19.27-1.33c.24,1,.86,2.1.19,2.95-.41.52-1.29.07-2.31-.84A14.1,14.1,0,0,0,280.32,29.45Zm-1.9,22.7a1.39,1.39,0,0,1-.35,1.07c-2.77-.54-7.18-.39-7.61-2-.56-2.06,3.07-1.3,4.07-2.62a.83.83,0,0,0,0,.34C274.67,51.47,278.05,49.6,278.42,52.15ZM277,61.92a11.36,11.36,0,0,1-1.52-1.49c.71-.17,1.29-.12,1.55.67A1.28,1.28,0,0,1,277,61.92Zm.73-16.23a9.94,9.94,0,0,0-3,2.53,1.44,1.44,0,0,0,0-.31c0-.9-1.51-2.24-3.95-3.12l.9,0A12.25,12.25,0,0,0,277.74,45.69Zm-7.42-5c.24-.73,1.51-.94,3-1-.09.61-1,1.29-1.72,2C270.74,41.59,270.12,41.35,270.32,40.72Zm7,44.21a205.74,205.74,0,0,0-9.63-20.3,5.79,5.79,0,0,0,1.62.18,48.88,48.88,0,0,1,9,19.86Zm12.9-.16A6.86,6.86,0,0,0,288,84c-.55-.07-1.12-.12-1.68-.16a78.74,78.74,0,0,0-9.28-16.5.2.2,0,0,1,.07-.06,1.88,1.88,0,0,0,2.6-.1,1.7,1.7,0,0,0,.29-2.34,3.38,3.38,0,0,1,2.07-.95c2,.26.92,4.5,4.06,3.88,3.31-.67.84-8,3.27-8.57,1.84-.4,2.1,1.81,3.2,2.48,0,.86,0,1.74,0,2.63A113.43,113.43,0,0,1,290.25,84.77ZM320,32.94l0,0c1.46.37,2.79.7,2.53,1.73-.58,2.35-5.06.55-5.52,4.24a2.2,2.2,0,0,0,.16,1.15c-1.94-.2-3.41-.47-3.38-1.18C313.83,36.59,321.14,36,320,32.94Zm-6.75,12.43c.75-.73,2.27-.42,4,.06-.62.26-1,.92-.94,2.29a3.68,3.68,0,0,0,.19.92A9.18,9.18,0,0,0,313,46.76,1.14,1.14,0,0,1,313.25,45.37ZM307.12,48a1.68,1.68,0,0,0,1.55-.36,9.33,9.33,0,0,1,1.72,2.71A9.27,9.27,0,0,0,307,48.6,1.2,1.2,0,0,1,307.12,48Zm1.3,13.74a20.74,20.74,0,0,0-1.32-2.18,2.18,2.18,0,0,1,1.16.51A1.23,1.23,0,0,1,308.42,61.78ZM298.66,84.1c-1.05-7.8-1.52-18.71-2.15-27.79,0-.49,0-1,0-1.55a.5.5,0,0,1,.43,0c1.6.81-1,7.4,1.09,8.22s3.13-4.3,4.56-2.18c.94,1.4,2,3.58,3.2,4.57a1.09,1.09,0,0,0,.11.42c1,1.93,6-.81,8.37-2.12,1.84-1,2.49.16,2.07,1.28A95.3,95.3,0,0,0,300.52,84,8.86,8.86,0,0,0,298.66,84.1Zm8.49,59.36c-.74-7.42-1.56-14.56-2.49-21.09.13-1,.23-2,.28-3.1,3.83,2.64,7.69,3.85,9.85,4.83.54.25,1.12.5,1.71.75C313.15,130.74,310,137.08,307.15,143.46Zm81.37,32.1c-.83-1.65-1.67-3.36-2.52-5.11a7,7,0,0,0,2.5.43,8.59,8.59,0,0,0-.17,2.44,3.82,3.82,0,0,0,.69,2.15Zm1.23-14.1c-.48-1-2.65-1.56-4.55-1.27,1.7-1.35,3.39-2.64,4.83-3.83a2.48,2.48,0,0,0,0,.27c0,3.17,2,4.32,4.11,4.81-1,0-2,1.59-2.72,3.17A11.84,11.84,0,0,1,389.75,161.46Z"/><g class="cls-2"><path class="cls-3" d="M4.9,224.69c3-7.1,16.07-6.77,27-13.68s28.71-12,48-13.08S114,180.33,131.07,182s145.57-16.2,201.17,4.42,74.82,20.09,94,27.69,40.27,16.28,44.37,22.79.83,13.28-14.36,22.11-33.93,21.17-53.93,26.64S349.58,304,324.2,299.52s-82.9,8.68-113.31,7.09-49-10.78-65.25-10.46c-22.21.44-49.07-17.51-77-23.44C36.33,265.86-2.17,241.46,4.9,224.69Z"/><path class="cls-4" d="M287.16,195.27c2.94-4.21,18.8-62.3,41.55-88.07s28.67,4.69,36.72,18.74,23,55.28,33.35,66.06,17.46,27.39,26.06,35.71,5.46,11.49,0,13.89-21.49,8.29-39.7,5.57-85.67-7-93.64-7.89S287.16,195.27,287.16,195.27Z"/><path class="cls-5" d="M287.16,195.27c2.94-4.21,18.8-62.3,41.55-88.07s28.67,4.69,36.72,18.74,23,55.28,33.35,66.06,17.46,27.39,26.06,35.71,5.46,11.49,0,13.89-21.49,8.29-39.7,5.57-85.67-7-93.64-7.89S287.16,195.27,287.16,195.27Z"/><path class="cls-5" d="M347.17,111c.18,4.23,5.41,7.54,6.51,12.32"/><path class="cls-5" d="M358.26,129c-.48,3.87,6,6.26,7.25,14.35"/><path class="cls-5" d="M354.47,117.12s2.63,3.17,3.18,5.56"/><path class="cls-5" d="M386.48,198.34s2.58,8.46,7.54,10.85"/><path class="cls-5" d="M396.42,203.76s5,10.21,11.4,14.63"/><path class="cls-5" d="M410.4,223s2,3.13,4.41,3.86"/><path class="cls-6" d="M371.85,138.61a8.54,8.54,0,0,0,4.72-2.57c2.16-2.27,3.87-1.53,4.41,0s-1.19,3.35-1.14,5.63-3,5.55-5.11,4.44-4.21-2.76-3.54-5.12Z"/><path class="cls-6" d="M361.4,131.11c1.45-.61,3.6-.71,4.26,1.25s.07,2.72,1.63,3.69a5.12,5.12,0,0,1,2.83,4.45c.14,2.37-.8,4.13-2.71,3.34s-4.67.22-5.77-2.23-1.34-5.14-1.86-6.67A3.58,3.58,0,0,1,361.4,131.11Z"/><path class="cls-6" d="M357.74,145.62a2.66,2.66,0,0,1,4.74.53c.52,1.4,1.76,1.67,3.72,3.16a5,5,0,0,1,1.84,5.3c-.36,1.65-1.07,4.33-5.45,3s-2-5.7-4-7.13S356.61,147.21,357.74,145.62Z"/><path class="cls-6" d="M354.59,160.47c.86-2,3.34-2.7,4.56-1.67s3.16,4,4.6,6.15,1.2,8.72-.71,8.7-2.53,1.14-5.67-1.76S351,168.69,354.59,160.47Z"/><path class="cls-6" d="M366.68,158.21s-.38-3.08,3.07-5.59,7.82-2.24,8.22-.12.32,3-1.22,5.15-6.19,6.18-8.15,4.74A5.5,5.5,0,0,1,366.68,158.21Z"/><path class="cls-7" d="M372.09,132.85c2.32.68-.82,9.11-2.62,21.44-2.45,16.82-6.53,26.21-6.53,26.21l-2.43-1.31s1.61-12.76,4.44-20.55C368.75,148.19,369,131.92,372.09,132.85Z"/><path class="cls-6" d="M371.92,133.89c-1.05-.12-2.89-1-3.16-4.73s.64-6.09,2-6.63c1.48-.6,4.42-.6,4.48,2S378,128.77,377,131A5.09,5.09,0,0,1,371.92,133.89Z"/><path class="cls-6" d="M387.11,142.3c2.11.19,3.93.25,3.84,2.78S389.62,150,390,152s-2.59,2.1-4.83.67a4.85,4.85,0,0,1-1.15-6.84C385.63,143.57,385.54,142.15,387.11,142.3Z"/><path class="cls-6" d="M390,156.63c0-2.58,4.09-2.72,6-2.31s4.44,1.41,4.24,3.81-1,3.9-3.46,3.69S390,161.26,390,156.63Z"/><path class="cls-6" d="M374.18,151.64c1.29-2.9,2.29-3.85,4.33-3.91s.61,3.44,1.16,4.69,2.79,1.14,3.1,3-.3,4.46-1.73,4.89-4,.67-6.07-2.64A6.47,6.47,0,0,1,374.18,151.64Z"/><path class="cls-6" d="M382.37,162c1.1-2.53,6.58-2.22,7.38-.49s1.06,3.22,3,4.15a2.56,2.56,0,0,1-.59,4.68c-2.22.62-5.46,1.24-7.9-.88S381.13,164.79,382.37,162Z"/><path class="cls-6" d="M373.07,166.81a4.17,4.17,0,0,0,.52-4.37c-.74-1.67-1.69-2.29-1.75-5.14S370,154,368,154.61s-5,3.39-3.36,6.81,1.72,3.55,4.7,5S373.07,166.81,373.07,166.81Z"/><path class="cls-6" d="M373.39,170.25c.63-3,4.95-2.43,6.95-1.23s1.14,3.26,3.33,5,1.57,4.11-.85,4.24-6.08-.66-7.68-3.88S373,172.13,373.39,170.25Z"/><path class="cls-6" d="M368.21,176.26c.75-1.52,5.39-1.94,6.69.34s.54,2.9,2.13,4.66,1.69,2.78.13,4.63-4.68-.9-7.76-2.24-2.22-2.45-2.06-4.37A6.89,6.89,0,0,1,368.21,176.26Z"/><path class="cls-6" d="M358.94,165.74c.89-1.33,3.78-1.47,4.27.44s3.93,2.15,4.29,3.84,1.48,4.9-.94,6.3-5.09-.25-6.46-3S357,168.66,358.94,165.74Z"/><path class="cls-7" d="M393.71,150.89c1.88,2.68-8.31,8.24-14,14.15s-10.06,10.35-12.33,15l-3.2-2.33s6.69-9.58,13.34-15.71C383.63,156.35,392.25,148.81,393.71,150.89Z"/><path class="cls-6" d="M392.86,151.62s-1.05-1.34.72-5.4,1.83-3.74,4.91-3.77,5.33.44,4.39,3.76-2.46,5.41-5.18,5.56S394,152.29,392.86,151.62Z"/><path class="cls-6" d="M403.13,174.53c-.94-1.23-.36-3.07-1.93-5.33a3.82,3.82,0,0,1,2.59-5.95c3-.67,6.73-2.81,7.6-.79s-1.16,3.66-1.17,5.39-1.56,6-4.32,6.33Z"/><path class="cls-6" d="M390.53,166.51c.84-1.85,2.33-5.67,3.92-5s3.21,1.13,3.06,4.1.13,4.73-.95,7.13-1.07,3.71-3.16,3.79-4.83.4-5.07-3.21S390,167.67,390.53,166.51Z"/><path class="cls-6" d="M389.68,178.59c2.23-1,2.36.88,5.7,2.82s1.66,4.3,3,6.4,2.08,5.58.06,6.64-4.21-3.14-7.48-4.1-4.13-3.85-3.27-6.6S387.41,179.56,389.68,178.59Z"/><path class="cls-6" d="M377,182c1.93-1,5.75,1,6.71,3.4s-.47,4.7,1,7.1.28,4.6-2.21,5.08-2.83-2.71-4.64-3.83-6.28-3.25-5.14-8.74S377,182,377,182Z"/><path class="cls-6" d="M402.94,176.71l-1.5,5.52c-.74,2.7.45,4.72,2.85,5.46s1.63,2.49,3.79,2.61,4.94-.81,4.18-3.76a23.18,23.18,0,0,0-6.44-9.77C403.13,174.53,402.94,176.71,402.94,176.71Z"/><path class="cls-7" d="M411.56,174.58c.14,3.41-15.78,2.63-28.42,6.5s-15.73,7.31-15.73,7.31-2.61-1.27.22-5.07S384.06,176.08,392,175c3.35-.46,7.37-1,10.88-1.35C407.64,173.21,411.5,173.22,411.56,174.58Z"/><path class="cls-6" d="M410.06,174.8s-.39-1.38,2-3.84,3.36-4.51,5.74-3.23,5.47,2.92,3.29,7.76-1.86,7-4.52,6.17-5.88-1.91-6.23-4A11.86,11.86,0,0,1,410.06,174.8Z"/><path class="cls-8" d="M335.61,211.92c4,2,4.18,5.48,7.9,6.89,2.66,1,5.23-.95,9.89-.84,9.52-15.46,20.15-35.38,13.16-41.65-10.42-9.33-29.28,11.49-37.13,21.45a102,102,0,0,0-6.81,9.81C327.38,210.27,331.62,209.88,335.61,211.92Z"/><path class="cls-3" d="M353.24,180.64s2.41.75,3.26,2"/><path class="cls-3" d="M350.87,184.3s4.07,1.89,5.8,4.26"/><path class="cls-3" d="M351.18,188.07a7.08,7.08,0,0,1,2.36,1.35"/><path class="cls-3" d="M352.72,197.66a15.11,15.11,0,0,1,3.86,4.5"/><path class="cls-3" d="M339.9,200.19a16.48,16.48,0,0,1,4.71,3"/><path class="cls-3" d="M347.48,205.41a5.71,5.71,0,0,1,1.36,1.85"/><path class="cls-3" d="M314.16,206.55s3.69-1.66,8.45,1,9,2.3,13,4.34,4.18,5.48,7.9,6.89,7.29-3,16.67.65"/><path class="cls-6" d="M339.44,143s-1.61-.32-3.56-.84-1.49-2.34-1.17-3.61-1.21-1.32-1.17-3.83,1.35-4.22,2.76-3.9,2,.73,2.31,3.19,2.73,4.16,2.82,6.6Z"/><path class="cls-6" d="M345.94,135.72a9.69,9.69,0,0,1-3.4-.85c-2.21-.94-1.27-2.93-1.94-4.61s.32-4.45,2.09-4.28,4,.19,4.12,2.3,2.3,3.46,1.85,5.49A2.7,2.7,0,0,1,345.94,135.72Z"/><path class="cls-6" d="M352.53,131.66a5.27,5.27,0,0,1-2.84-2.6c-.77-1.78.61-3.48.61-5a2.39,2.39,0,0,1,3.1-2.48c2,.54,3.77.66,3.39,2.67a21,21,0,0,0-.14,5.62C356.78,131,354.38,132.54,352.53,131.66Z"/><path class="cls-6" d="M349.67,137.37s3.09-.37,4.32,1.54,1.32,3.06,2.84,3.45,2.59,2.61,1.33,3.89-4.11,2.12-6,.14-2.94-2-3.93-3.63S347,138.27,349.67,137.37Z"/><path class="cls-6" d="M342.58,144.47s3.37-.29,5.1,1,2.22,3,3.15,4,.65,3.07-1.68,3.08-2.8-.62-4.71-1-3-2.52-3.9-3.65S342.58,144.47,342.58,144.47Z"/><path class="cls-6" d="M338.43,151.2s3.45-.18,5.13,1.73,3.37,1.94,3.2,4-.61,2.87-3.38,1.94-4.27,0-5.7-.26S335.08,152.78,338.43,151.2Z"/><path class="cls-6" d="M335.43,150.27c0-2.75.64-4.75-1.67-5.62s-2.37-5.22-4.14-4.91-3.4,1.2-3.18,3.14-.75,2.61,1.34,6.05,5.31,4.62,7.18,4.2S335.43,150.27,335.43,150.27Z"/><path class="cls-6" d="M354.09,134.22a13.36,13.36,0,0,1,2,3.52c.51,1.67,3.24,3.43,6.31,1.69s2-5.32-.13-5.86-3.93-1.85-5.24-2.07S354.09,134.22,354.09,134.22Z"/><path class="cls-7" d="M333.93,152.2s2.35-6.69,9.74-14,14.64-11.23,16.41-9.32-11.39,6.94-16.83,14.62S336,156.4,336,156.4Z"/><path class="cls-6" d="M321.08,114.65c-1.56-2.92,2-4,3.55-2.51,1,.94,2.49,3.12,4.88,4.06s2,5.68,1,6.07-2-.82-3-.74-3.83,1.21-5.31-1.06S322.4,117.13,321.08,114.65Z"/><path class="cls-6" d="M319.49,124.57c1.31-1.11,3-.87,3.63.79s2.8,0,4,.72,3.68,1.78,3.51,3.34-3.14,4.8-5,5.34-3.72-.79-4.25-3.08a4.81,4.81,0,0,0-1.8-3.25C319,127.82,318.15,125.72,319.49,124.57Z"/><path class="cls-6" d="M318.53,140c-.44-1.82-.07-3.44,1.6-3.67s4,1.31,6.82,1.67,4.39,4.12,3.39,6.75-1.51,4.83-3.76,4.5-3.05-1.55-4.84-1.57-4.75-.86-3.93-4.14C318.18,142,318.78,141,318.53,140Z"/><path class="cls-6" d="M332.24,117.68a26.19,26.19,0,0,0,1.85-2.17c1.24-1.57,3.48-3.32,5.32-1.92s2.47,3.55.81,5.23-1.3,3.22-3.38,4.06a6.84,6.84,0,0,1-4.55-.16Z"/><path class="cls-6" d="M332.16,129a5.58,5.58,0,0,1,2.71-2.75c1.77-.6,3.22-2.49,4.46-2.12s2.46.76,2.51,3.18-.28,4.35-2.8,5.83-5.75,3.66-7.05,2.23S332.16,129,332.16,129Z"/><path class="cls-7" d="M331.14,113.26c2.62-.5-.23,27.52,1.12,38.73l-2.39.38s-1.59-10.94-.46-20.35S328.7,113.74,331.14,113.26Z"/><path class="cls-6" d="M326.49,105.94c0-1.73,3.43-3.26,5-2.07s3.77,4.56,3.64,5.87-2.59,3.45-3.36,4.22-5-1.49-5.2-3.29S326.52,107.33,326.49,105.94Z"/><path class="cls-6" d="M354.62,152.69a13.67,13.67,0,0,1,.08,3.33c-.19,1.72,1,2.45,3,4.55s.46,3.28,3.89,3.67,3.9-2.86,3.25-4.41-1.83-3.2-3-5.55a5.92,5.92,0,0,0-3.74-2.87Z"/><path class="cls-6" d="M348.8,155.87a3.44,3.44,0,0,0,2.27,2.17c1.77.5,3.12,2.38,2.53,5.3s1.61,5.44-.82,6.3-4.29-.29-6.13-4.07-3.67-2.57-4.1-7S348.8,155.87,348.8,155.87Z"/><path class="cls-6" d="M363.79,148.44a9.62,9.62,0,0,1,.09,4c-.4,2.45,2.26,2,4.22,4.06s3.14,1.64,5.32.64-1.18-3.32-1.36-5.1a4.27,4.27,0,0,0-3.93-4.06A14.31,14.31,0,0,0,363.79,148.44Z"/><path class="cls-6" d="M352.86,151.53c-.1-.5.86-4.24.31-7.5s1.6-5.76,4.77-5.51,4.2,3.77,3.17,5.33.13,4.72-1,5.38A68,68,0,0,1,352.86,151.53Z"/><path class="cls-6" d="M365.28,146.84c-.21-1,1.13-3.87-.14-6.34s-.49-3.75,1.09-4.86,3.48-2.78,4.6-.9-.1,5.61-.55,7,.62,3.9-2.19,4.51Z"/><path class="cls-7" d="M371,145.64c.94,2.27-10.89,4.33-16.45,7.92s-10.95,4.85-14.76,6.84l-.68-2.45A52.58,52.58,0,0,1,351.48,151C359.18,147.9,370,143.24,371,145.64Z"/><path class="cls-6" d="M371.14,148.55c-1.5-1.14-1.31-2.31-.11-4.92s2.44-4.9,5-3.45,3.14,3.4,1.56,5.7S374.18,150.86,371.14,148.55Z"/><path class="cls-8" d="M332.26,152c-9.89.36-22.33,20.11-27,28.65a103.48,103.48,0,0,0-7.71,18.17,6.25,6.25,0,0,1,3,.27c4.22,1.49,4.07,4.47,9.69,3.41s6.73-1.17,12.17,1.12a8.52,8.52,0,0,0,5.16.31,135,135,0,0,0,8.34-16.06C342.66,172.46,344.44,151.56,332.26,152Z"/><path class="cls-5" d="M309.73,179.3s5,1.39,7,4.12"/><path class="cls-5" d="M324.82,170.9a14.75,14.75,0,0,1,7.92,7"/><path class="cls-5" d="M327.46,159.6a6.1,6.1,0,0,1,2.59,1"/><path class="cls-5" d="M324.41,174.51a8.37,8.37,0,0,1,2.71,2.59"/><path class="cls-5" d="M315.86,192.75s4.93,2.93,6.06,6.47"/><path class="cls-5" d="M318.31,185.75s1.06.66,1.25,1.35"/><path class="cls-4" d="M233.45,32.47c25.44-1.92,64.3,74.57,67.48,167.41l-116.32,4.43S199.52,35,233.45,32.47Z"/><path class="cls-5" d="M233.45,32.47c25.44-1.92,64.3,74.57,67.48,167.41l-116.32,4.43S199.52,35,233.45,32.47Z"/><path class="cls-5" d="M224,83.7c-2.75,6.88-2.2,20.08-5.22,26.68"/><path class="cls-5" d="M226.22,100.75s-.27,9.63-3.57,14.58"/><path class="cls-5" d="M246.82,106.8s-.24,16.51,3.06,21.46"/><path class="cls-5" d="M251.8,115.33a28.6,28.6,0,0,0,2.2,9.08"/><path class="cls-7" d="M293.7,89.47c10.07.45,14.78,62.39,17.29,105.1,0,0,2.77,22.75-17.1,24.28s-21.1-26.94-21.1-26.94S277.38,88.74,293.7,89.47Z"/><path class="cls-5" d="M291.31,145.38s7.3.66,10.42-1.87"/><path class="cls-5" d="M284.53,139.06s.88.61,3.57.51"/><path class="cls-5" d="M279.27,153.59a23.35,23.35,0,0,0,13.29,1.18"/><path class="cls-5" d="M299.6,166.27a8.37,8.37,0,0,0,5.46-1.13"/><path class="cls-9" d="M291.82,99.18c7.35-1.39,13.35,7,13.19,18.4s-4.1,14.69-6.5,20.56-8.18,8.5-11.45,2.16-10.58-12.46-8.76-25S287.86,99.93,291.82,99.18Z"/><path class="cls-3" d="M325.36,20c3.19,0,2.48,5.78,2.65,8.86s2.21,2.16,4,.31,2.2-3.35,3.69-2.08-2.25,6.19-.63,8.17,3.54-1.06,4.07,2.44-8.12,19-8.12,19-14.41-3.46-14.7-8.93,6.72.39,7.44-2.08-7.26-3.08-6.8-6.77,4.94-1.89,5.52-4.24-7-1.07-5.75-4.83,5.79.85,6.47-1.1S321.9,20,325.36,20Z"/><path class="cls-3" d="M325.89,30.37s4.44,16.57,5.15,26.28"/><path class="cls-3" d="M330.69,56.21s-3.81-15.19-.46-17.33,2.41,6.71,5.58,5.36.07-13,3.3-13.45.61,7.22,3.28,8.16,7.34-13.12,11.24-10.2-5.54,9.41-3.88,12.19,8.39-1.66,8.89,2.25-14.26,3.69-13.59,7.07,6.24-.64,6.14,3.18S341.49,58.38,330.69,56.21Z"/><path class="cls-3" d="M330.69,56.21c9.4-3.79,14.72-14,14.72-14"/><path class="cls-3" d="M362.73,73.16c-1.3,2.31-7.17-1.47-9.86-2.89s1.6,5-.89,6.53-7.36-8.5-9.21-8.47,1.46,4.7-1,6.21-9.87-12.93-11-18.44c0,0,19.49-7.16,21.18-2.69s-6.86,2.46-6.33,5.11,13.33-4.47,15.29.13-8.33,3.32-7.75,5.53S365.11,69,362.73,73.16Z"/><path class="cls-3" d="M348.58,64.89a177.45,177.45,0,0,1-17.8-8.79"/><path class="cls-3" d="M323.11,87.89c-2.46-.55-.78-5.11-.26-7.94s-4.38.42-5.38-1.84,6.23-5.57,5.58-7.47-5.26,3.63-5.88.83,12.23-8.57,13.65-15.36c0,0,6.48,7.19,8.5,13.36C341,74.66,337.38,75,336.43,73c-.78-1.59-3.13-1.79-2.48.84s2,8.15-.08,8.63-2.58-5-4.92-3.7S328.18,89,323.11,87.89Z"/><path class="cls-3" d="M328.54,76.33a28.3,28.3,0,0,0,2.28-20.22"/><path class="cls-3" d="M298,56.78c-.1-2.52,4.74-2.06,7.61-2.28s-1.53-4.12.41-5.67,7,4.61,8.65,3.49-4.86-4.16-2.31-5.47,11.4,9.64,18.33,9.28c0,0-5.3,8.1-10.75,11.63-4.58,2.95-5.82-.47-4.17-1.89,1.33-1.15.92-3.49-1.45-2.18s-7.36,4-8.37,2.12,4.22-3.78,2.33-5.7S298.18,62,298,56.78Z"/><path class="cls-3" d="M310.54,59.08a28.29,28.29,0,0,0,20.13-2.95"/><path class="cls-3" d="M292.71,40.74s8.39,7,11.23,12.21,5.53,3.31,5,.92-3.41-5.46-1.18-6.37,3.28,8.59,7.22,5.76-3.88-5.8-1.76-7.89,10.65,4.35,12.84-1.07-12.41-3.21-12.33-5.46,7.38-2.87,6.24-5.9-9.23,2.62-11.88,1.44,5.44-4.39,3.08-6.93S300.34,28.38,292.71,40.74Z"/><path class="cls-3" d="M313.45,40.83s-12.31-4.83-20.74-.09"/><path class="cls-3" d="M273.58,68.81c-3.33-2.49,4.24-5.32,3.46-7.71s-4.48,1.93-5.86-1.17,7.62-5.23,7.24-7.78-3.75-.68-3.94-3.17,11.91-8.36,18.53-8.65c0,0,3.2,7.38,3.46,12.13s0,8.33-2.49,9.3-2.15-3-4.57-2.52,0,7.9-3.27,8.57c-3.14.62-2.05-3.62-4.06-3.88S275.37,70.17,273.58,68.81Z"/><path class="cls-3" d="M293,40.33c-1.33,7.24-12,17.52-12,17.52"/><path class="cls-3" d="M293.14,40.29a44.75,44.75,0,0,0-6.59-9.55c-3.7-3.8-4.77-4.07-6-2.86s1,3.17-.08,4.52-5.19-3.72-7-6.69-4.22-6.07-6.15-5.07,1.8,4.07.24,5.74-3.68-.45-6.72-2.59-5.26-1.59-5.9-.26c-2.2,4.51,10.4,7.19,8.85,10.12-.79,1.49-2.62,2.72-.88,4.65s6.32-.95,9.48.37-2.89,3.15-1.54,5.38S282.79,47.32,293.14,40.29Z"/><path class="cls-3" d="M267.79,30.75c.17.27,10.77,7.83,25.35,9.54"/><path class="cls-3" d="M307.71,65.71c-1.9,1.18-3.67-2.76-5.09-4.89s-2.52,3-4.56,2.18.51-7.41-1.09-8.22-1.09,5.58-3.22,4.18,2.45-13-.87-18.23c0,0,8.58.55,13.7,3.22,4.29,2.24,2.19,4.7.37,4-1.48-.52-3.1.81-1.05,2.07s6.36,3.92,5.3,5.54-4.77-1.61-5.42.7S311.64,63.28,307.71,65.71Z"/><path class="cls-3" d="M304,55a25.17,25.17,0,0,0-11.11-14.26"/><path class="cls-3" d="M293.44,4.26c2.65.08,2,7,2,10.08s3.73-3.77,6.19-2.26-4.09,10.47-3.2,12.1,3.47-3.48,5.94-2-6.84,14.75-11.18,18.34c0,0-15.42-13.91-12.24-17.49s5.37,4.92,7.46,3.22-10.15-9.71-7-13.59,6.81,5.83,8.5,4.29S288.61,4.12,293.44,4.26Z"/><path class="cls-3" d="M292.71,20.63a178.38,178.38,0,0,1,.51,19.85"/><path class="cls-3" d="M279.72,67.22c2.85-2.71-4.93-5.65-4.83-8.18s4.88-1.38,5.39-4.17-9.18-1.24-9.82-3.61,4.23-1,4.31-3.35-10.33-7.59-19.7-.25c0,0,5.79,8.9,9.75,12.15S270,63,272.53,63.67,277.32,69.49,279.72,67.22Z"/><path class="cls-3" d="M272,58.37a24.82,24.82,0,0,0-16.92-10.71"/><path class="cls-7" d="M293.22,39.49c4.47-.1,2.92,45.31,7.65,53.54l-12.49.14s4.26-16.31,4.25-28.82C292.63,50.56,290.5,39.55,293.22,39.49Z"/><path class="cls-7" d="M331.24,56.43c1.7,3.26-24.17,20.42-26.45,38l-8.6-1.35C302.28,74.78,328.85,51.84,331.24,56.43Z"/><path class="cls-3" d="M236.41,14.15c4.15-2.13,3.29,6.9,6.08,7.28s.26-5.46,4.07-5.33,1.53,10.25,4.29,11.13,2.54-3.46,5.14-2.43,2.59,16.12-.36,23c0,0-9-.4-13.94-2.47s-8.41-4.11-8.18-7.08,4.14-.67,4.79-3.38-8-3.84-7-7.5c.91-3.48,4.66-.3,5.91-2.19S234.16,15.3,236.41,14.15Z"/><path class="cls-3" d="M256.83,49C250.17,44.06,245,28.24,245,28.24"/><path class="cls-3" d="M280.63,26.88c1.63,1.91-2.44,4.56-4.56,6.51s3.76,2.28,3.2,4.7-8.33.71-8.95,2.63,6.39.25,5.21,2.86-14.93-.48-20.14,4.1c0,0-.87-9.64,1.22-15.79,1.76-5.16,4.85-3.24,4.44-1.11-.33,1.73,1.44,3.31,2.49.81s3.26-7.74,5.24-6.85-1,5.58,1.72,5.91S277.24,22.93,280.63,26.88Z"/><path class="cls-3" d="M269.34,32.87a28.31,28.31,0,0,0-13.95,14.81"/><path class="cls-3" d="M212.88,63.07c-1.4-2.22,1.49-4.47,4.73-5.43,2.7-.81,4.21-1.16,3.56-2.74s-4.13-2.22-3.12-4.27c1.76-3.56,11.1,2,12.36-1.15,1-2.39-3.36-2.46-2.57-5.18s15.48-3.79,28.37,4c0,0-5.47,8.06-13,11s-6.84-2.35-9-1.75-5.41,9.11-8.83,8.79c-4.33-.41-.2-5-2.59-5.55S215.1,66.61,212.88,63.07Z"/><path class="cls-3" d="M256.21,48.26c-12.2-2.44-23.37,5.14-23.37,5.14"/><path class="cls-3" d="M255.41,47.68s-30.58,7-24.58,15.69c1.29,1.87,5.93.07,5.85,2.37S225.13,69,223.79,72.6s2,4.27,3.29,4.56a1.69,1.69,0,0,1,1,2.68c-.74.89-6.45,3.8-5.66,7.41s4.37,1.77,6.89-1,4.52-2.72,5.33-.83-.23,5.41,3,4.86,4.46-4.67,5.64-11.77,3-6,4.23-4.37,3.88,3.08,4.52-.32S255.77,50.54,255.41,47.68Z"/><path class="cls-3" d="M241.15,68.62s1.72-10,14.26-20.94"/><path class="cls-3" d="M255.07,47.66a44.58,44.58,0,0,0-4.27,10.79c-1.08,5.19-.71,6.23.95,6.54s2.1-2.58,3.8-2.45-.2,6.38-1.66,9.53S251.2,79,253.1,80s2.38-3.77,4.63-3.41,1.68,3.32,1.6,7,1.61,5.25,3.07,5.05c5-.69.17-12.65,3.47-13,1.68-.17,3.72.66,4.35-1.86s-4.3-4.72-5-8.08,4.23.65,5.33-1.72S266.67,52.33,255.07,47.66Z"/><path class="cls-3" d="M261.26,74c.13-.3.51-13.31-6.19-26.37"/><path class="cls-7" d="M255.19,47.87c.81-3.8,26.57,17.51,33.29,42.37L279,91.6s.7-14.65-11.54-29.19S255,49.05,255.19,47.87Z"/><path class="cls-9" d="M255.67,123.68c-3.2-2.92.34-8.08.32-13.37C255.94,94.72,273.14,82,288,84a6.71,6.71,0,0,1,5.68,5.24c1.75,8.18-3.21,20.07-9.56,26C276.53,122.33,258.41,126.19,255.67,123.68Z"/><path class="cls-5" d="M278.74,91.75s-11.61,5-17.49,20.23"/><path class="cls-5" d="M267.06,115.56c.24-.32,14.07-6.3,19.52-19"/><path class="cls-9" d="M295,85.63c4.38-3.5,11.36-.87,15,3.58s12.55,10.51,14.37,22.56,1.57,12.62.32,14.2-6.29-.21-9.92-1.87-12.11-3.92-17.08-12.65S289,90.49,295,85.63Z"/><path class="cls-5" d="M299.93,98.85s4.05,13.27,14.44,18.81"/><path class="cls-5" d="M307.65,96.93s7.74,4.91,10.85,18"/><path class="cls-9" d="M120.88,168.93l-8.32,4.44-8.06-4.91L101,173s7.23,6.1,6.83,19.92l4.11.12,4.11.12c.41-13.82,8-19.49,8-19.49Z"/><line class="cls-3" x1="112.23" y1="180.44" x2="112.35" y2="174.33"/><path class="cls-6" d="M132.81,157.51a9.8,9.8,0,0,0,.39-2.44,9.66,9.66,0,0,0-9.37-9.94,10.61,10.61,0,0,0-1.39.07,9.65,9.65,0,0,0-18.74-.57,10,10,0,0,0-1.1-.1,9.66,9.66,0,0,0-9.94,9.37,9.45,9.45,0,0,0,.23,2.33,9.65,9.65,0,1,0,11.38,14.58,9.66,9.66,0,0,0,16.06.47,9.65,9.65,0,1,0,12.48-13.77Z"/><path class="cls-7" d="M85.14,183.51a7.24,7.24,0,0,1,11.63-4.3c3.7,3.38,3.81,8.81,13.06,9.87,5.86.68,3.8,8.09-7.1,7.94C89.06,196.83,84,188.61,85.14,183.51Z"/><path class="cls-7" d="M139.18,184.59a7.24,7.24,0,0,0-11.45-4.77c-3.83,3.24-4.15,8.66-13.44,9.35-5.89.44-4.12,7.93,6.78,8.22C134.73,197.74,140.13,189.73,139.18,184.59Z"/><path class="cls-5" d="M107.09,158.75s-2.42-1.06-3.7.83a3.12,3.12,0,0,0,0,3.36s-3.91-.82-3,3.36"/><path class="cls-9" d="M67.91,186.71l-8.45,4.51-8.18-5-3.52,4.65s7.35,6.19,6.94,20.23l4.17.12,4.18.12c.41-14,8.1-19.78,8.1-19.78Z"/><line class="cls-3" x1="59.13" y1="198.39" x2="59.25" y2="192.19"/><path class="cls-6" d="M80,175.12a9.67,9.67,0,0,0,.4-2.48,9.8,9.8,0,0,0-9.51-10.09,11.16,11.16,0,0,0-1.42.07,9.79,9.79,0,0,0-19-.58,10.13,10.13,0,0,0-1.12-.1,9.76,9.76,0,0,0-9.85,11.88A9.79,9.79,0,1,0,51,188.61a9.8,9.8,0,0,0,16.3.48,9.8,9.8,0,1,0,12.67-14Z"/><path class="cls-7" d="M31.62,201.51a7.35,7.35,0,0,1,11.81-4.37c3.76,3.43,3.86,8.94,13.25,10,6,.69,3.86,8.21-7.2,8.06C35.61,215,30.45,206.68,31.62,201.51Z"/><path class="cls-7" d="M86.48,202.6a7.35,7.35,0,0,0-11.62-4.84c-3.89,3.29-4.22,8.79-13.64,9.49-6,.45-4.18,8.05,6.87,8.34C82,216,87.45,207.82,86.48,202.6Z"/><path class="cls-5" d="M47.76,183.46s-1.1-2.14,0-3.21,2.49-.16,3.18.77c0,0,.69-1.66,2.15-1.26a2.09,2.09,0,0,1,1.54,1.82"/><path class="cls-5" d="M59.19,175.85a3,3,0,0,1,3-1,2.09,2.09,0,0,1,1.26,2.45s1.81-1.47,3.28-.49,0,3.42,0,3.42"/><path class="cls-4" d="M61.13,199.47c3.39-4.07,11.57-2.09,15.6,2s8.06.59,13.85,3.36,2.27-4.36,7-7,3.47-4.08,7-3.85,2.21,4.07,5.95,6.39,3.86,8.7,7.06,10.58,13.3,17.32,13.3,17.32-39.21,17-44.33,16.33-6.72-1.27-9.24,0-3.73,2-5.82,0-6.79.3-8.66-2.87,2.74-4.94,3-8.78,1.65-4.16,5.27-5,2.41-6.14-2.2-9.21-1.42-7.12-5.48-9.87S59.46,201.47,61.13,199.47Z"/><path class="cls-5" d="M61.13,199.47c3.39-4.07,11.57-2.09,15.6,2s8.06.59,13.85,3.36,2.27-4.36,7-7,3.47-4.08,7-3.85,2.21,4.07,5.95,6.39,3.86,8.7,7.06,10.58,13.3,17.32,13.3,17.32-39.21,17-44.33,16.33-6.72-1.27-9.24,0-3.73,2-5.82,0-6.79.3-8.66-2.87,2.74-4.94,3-8.78,1.65-4.16,5.27-5,2.41-6.14-2.2-9.21-1.42-7.12-5.48-9.87S59.46,201.47,61.13,199.47Z"/><path class="cls-5" d="M72.09,207.29s20.1,7.25,31.08,31.73"/><path class="cls-4" d="M82.52,225.25c.61-4.6,5.79-1,9.83-4s2.26-9.32,10.32-10.58,7.31,7.05,21.92,2.52S150.53,228,148,238.85s-5.54,12.36-6.29,17.39-.51,11.58-5.8,10.07-8.56,1-9.82-6.8-6.08-9.83-9.09-5.8-5.27,8.06-13.08,5.55-14.1,4.28-19.65,3.52-6.29-5.08-4-10.85-1.26-7.54,4-10.56,7.06-7.64,4-10S82,229,82.52,225.25Z"/><path class="cls-5" d="M82.52,225.25c.61-4.6,5.79-1,9.83-4s2.26-9.32,10.32-10.58,7.31,7.05,21.92,2.52S150.53,228,148,238.85s-5.54,12.36-6.29,17.39-.51,11.58-5.8,10.07-8.56,1-9.82-6.8-6.08-9.83-9.09-5.8-5.27,8.06-13.08,5.55-14.1,4.28-19.65,3.52-6.29-5.08-4-10.85-1.26-7.54,4-10.56,7.06-7.64,4-10S82,229,82.52,225.25Z"/><path class="cls-5" d="M95.37,244.65s9.27-18.23,53-13.27"/><path class="cls-4" d="M139.83,249.29s-1.74,10.81,4,13.3,10.93-1.31,13.17,3.94-1.49,9.54,3.73,12.37,8.06,3.06,9.5,7,6.66,5,11.13-1.73,7.46-11,6-16.46,2.24-6.66,5.47-5.66,8.2-1.56,6.22-8.36-10-21.47-25.6-18S144.3,236,139.83,249.29Z"/><path class="cls-5" d="M139.83,249.29s-1.74,10.81,4,13.3,10.93-1.31,13.17,3.94-1.49,9.54,3.73,12.37,8.06,3.06,9.5,7,6.66,5,11.13-1.73,7.46-11,6-16.46,2.24-6.66,5.47-5.66,8.2-1.56,6.22-8.36-10-21.47-25.6-18S144.3,236,139.83,249.29Z"/><path class="cls-5" d="M172.14,273.72s4-11.57,0-21.79a136,136,0,0,1-4.72-14.55"/><path class="cls-4" d="M135.14,140.59c2.29-2,6.77-.83,10.5,4.43s11.71,1.19,18.66,12.38,5.86,33.27-5.21,37.24-28.52,10.58-34.56,4S114.26,186.75,110.36,183s-1.87-5.85,2-8.1,4.58-5.13,8.14-5,5.93,5,10.34,1.06-.67-9.89.34-13.79,3.53-6,2.21-10.61C132.5,143.35,133.72,141.82,135.14,140.59Z"/><path class="cls-5" d="M135.14,140.59c2.29-2,6.77-.83,10.5,4.43s11.71,1.19,18.66,12.38,5.86,33.27-5.21,37.24-28.52,10.58-34.56,4S114.26,186.75,110.36,183s-1.87-5.85,2-8.1,4.58-5.13,8.14-5,5.93,5,10.34,1.06-.67-9.89.34-13.79,3.53-6,2.21-10.61C132.5,143.35,133.72,141.82,135.14,140.59Z"/><path class="cls-5" d="M142.23,154.28c0,10.94,12.53,11.19,12.48,41.93"/><path class="cls-3" d="M182.38,167.52c2.06-13.58,18.93-22.05,27.58-17.94s16,2.16,27.16-2.5,23.52-1,29,3.43c10.05,8.11,32,7.55,34,40.89s-17.29,50.75-52.29,42.25S175.86,210.51,182.38,167.52Z"/><path class="cls-6" d="M242.53,158.06c-4.84-.93-5.23-6-1.58-6.83,2.79-.6,6.36-1.89,10.16-11.76s10.44-16,18.6-16.71c7.79-.72,11.6,3.39,15.73,3.77a.51.51,0,0,1,.44.63l-1.31,5.07a.51.51,0,0,1-.88.2c-1.94-2.25-8.11-8.46-14.93-5.49-7.41,3.23-12.6,12-11.39,19.74,1.27,8.09,8.87,6.45,7.82,10.4-1,3.75-8-.51-10.85-.72C250.26,156.05,248.89,159.29,242.53,158.06Z"/><ellipse class="cls-8" cx="248.2" cy="169.44" rx="2.7" ry="1.66" transform="translate(-30.89 280.9) rotate(-56.09)"/><path class="cls-5" d="M262.27,172s11,10.17-3.64,45.77"/><path class="cls-5" d="M232.17,166.66s-12.29,18.08-5.81,44.39"/><ellipse class="cls-8" cx="284.57" cy="172.8" rx="1.68" ry="2.71" transform="translate(-44.38 121.49) rotate(-22.4)"/><path class="cls-8" d="M240,213.06c-.12-3.07-.56-7.66,1.67-18.2s1.4-17.54,5.08-17.54c4.3,0,2.15,17.78.41,21.66s.82,18.8-3.06,19.72S240.09,214.7,240,213.06Z"/><path class="cls-8" d="M238.87,172.43c1.89,1.44-1.55,4.78-2.61,11.36-.92,5.76-2.47,10.27-4.09,9.86s-2.09-7.37-.67-12.78S236.65,170.75,238.87,172.43Z"/><ellipse class="cls-8" cx="231.81" cy="201.59" rx="1.45" ry="2.71"/><path class="cls-8" d="M258.63,185.28c2.86-.44,3.23,7.51.62,14-2.12,5.24-4.91,4.18-5.15.66a7.31,7.31,0,0,1,.86-3.83C258,190.12,256.93,185.54,258.63,185.28Z"/><path class="cls-8" d="M275,175.85c3-1.29,4.09,3.19,5.73,10s4.92,20.08.72,22.64-2.93-7.14-3.59-12.75S271.33,177.39,275,175.85Z"/><path class="cls-8" d="M288.48,181.08c1.87-2,6.28,1.07,6.67,12.67s.46,13.2-1.29,12.65-3-8.64-3.95-12.34S286.88,182.82,288.48,181.08Z"/><path class="cls-3" d="M151.57,170.8c10.77.93,26.38,5.85,39.56,0s39.11,11.29,41,48.86-38.67,19.78-44.6,21.1S182.23,247.27,170,247s-11.86-6.55-20.76-6.55-21.75,3.73-30-9.56c-11-17.78-.6-42.85,9-51.42S145.69,170.29,151.57,170.8Z"/><path class="cls-8" d="M204.81,186.32a11.62,11.62,0,0,1,4.59,6.6c1.19,4.09,3.84,4.73,4.24,1.75s-1.69-9-5.7-11.57C204.45,180.89,202.62,184.47,204.81,186.32Z"/><path class="cls-8" d="M214.44,202.31c2-3,7,4,5,19.54C218.22,231.44,212.8,204.8,214.44,202.31Z"/><path class="cls-8" d="M158.87,200.32a14.38,14.38,0,0,0,0,10.41c2.16,5.86-2.06,12.67,1.24,14.94s3.55-7,3.43-14.59,2-7.13,1-8.77S163.22,199.07,158.87,200.32Z"/><path class="cls-8" d="M149.47,193.32a5.68,5.68,0,0,0-5.36,1.44c-1.86,1.8-4.21,5.16-4.8,10.94-1,9.93,2.32,10.58,3.61,7.25,1.7-4.37-.3-12.87,5.67-16.43C151.82,194.59,151,193.72,149.47,193.32Z"/><ellipse class="cls-8" cx="140.26" cy="183.79" rx="3.24" ry="1.95" transform="translate(-79.28 256.27) rotate(-70.92)"/><path class="cls-8" d="M169.58,208A29.48,29.48,0,0,1,172,220c0,7-1.66,9.08,1,10.65s4.19-7.32,4-11.87S175.61,203.76,169.58,208Z"/><path class="cls-5" d="M196,200.86s4.64,3,4.64,21"/><path class="cls-8" d="M130.08,223.2c3.18.19,2.5-11.34,2.5-16.11s6-10.72,2.73-12.86c-3.07-2-8.12,4.53-7.77,14.48S127,223,130.08,223.2Z"/><path class="cls-7" d="M310.7,244.8c-3.06-5-2.23-11.61-2.19-11.88l3.59.47c0,.06-.69,5.61,1.69,9.52Z"/><path class="cls-6" d="M320.08,187.06c5,0,6.51,3.73,7.12,8.58,1,8.12,8.33,7.38,7.68,18-.43,7-.88,8.38-10,15.54s-22.19,6.62-25.51,0-6.11-18.31,0-24.88,9.1-5.34,12.24-10.94C314.2,188.8,317.09,187.06,320.08,187.06Z"/><path class="cls-5" d="M319.28,202.76s-10.61,7.94-10.14,28"/><path class="cls-7" d="M301.31,254.33c-4.25-.33-7.62-3.08-9.74-8a25.72,25.72,0,0,1-1.87-6.91l3.61-.38c0,.11,1.25,11.08,8.28,11.63Z"/><path class="cls-10" d="M318.68,254.73c-3,3-7.3,3.78-12.38,2.21a25.94,25.94,0,0,1-6.46-3.07l2.06-3c.1.07,9.23,6.26,14.22,1.28Z"/><path class="cls-7" d="M283.15,259.57A49.22,49.22,0,0,1,265,256l1.46-3.32c.29.12,20.45,8.69,35.36-2.61,16-12.14,26.09-14.52,38.07-14.52v3.63c-11.2,0-20.67,2.26-35.88,13.78A33.86,33.86,0,0,1,283.15,259.57Zm-17.43-5.26.73-1.66h0Z"/><path class="cls-6" d="M217.16,210.72c5.42-5.86,14.59-.18,20.08.6s13.55-3.41,21.78-1.65c11.74,2.52,13.53,13.73,14.31,17.65S260.94,247,249,242.81s-9.42-8.45-20.56-8.45C216.33,234.36,209.88,218.59,217.16,210.72Z"/><path class="cls-5" d="M231.73,220.11c.34-.16,20.75-1.63,35.1,17.23"/><path class="cls-7" d="M234.44,251.73c-10.46,0-16.28-4.6-16.57-4.84l2.27-2.82a19.18,19.18,0,0,0,5.54,2.69,31.11,31.11,0,0,0,15.83.6l.72,3.56A39.44,39.44,0,0,1,234.44,251.73Z"/><path class="cls-7" d="M237.58,249.81c-5.42,8.94-12.37,11.54-12.72,11.67l-1.24-3.41a19.17,19.17,0,0,0,5.18-3.34,31.25,31.25,0,0,0,8.71-13.23l3.41,1.22A39,39,0,0,1,237.58,249.81Z"/><path class="cls-6" d="M350.56,228.06c9.41-7.67,26.17-8.75,33.16-1.21s2,14.26,17.29,20.74c0,0,1.11,9.65-10.76,9.54s-7.08-2.77-21.8-2.82S345.09,250.4,350.56,228.06Z"/><path class="cls-5" d="M382.29,245.06c-.45-.85-15.76-14.58-33.53-12.59"/><circle class="cls-9" cx="344" cy="225.74" r="21.43"/><circle class="cls-9" cx="202.79" cy="242.81" r="21.43"/><circle class="cls-9" cx="280.46" cy="222.99" r="21.43"/><circle class="cls-9" cx="255.99" cy="249.14" r="21.43"/><ellipse class="cls-8" cx="190.55" cy="235.14" rx="3.96" ry="2.89" transform="translate(-85.55 359.12) rotate(-75.16)"/><ellipse class="cls-3" cx="190.31" cy="234.76" rx="1.08" ry="0.81" transform="translate(-85.35 358.61) rotate(-75.16)"/><path class="cls-6" d="M204.88,257.13c6.18-4,18.43-4.71,23,0s6.58,13-2.75,21.36-26,10.61-30.46,7.44-3.66-7.05,0-10.43C201.15,269.53,197.35,262,204.88,257.13Z"/><path class="cls-5" d="M227.89,257.13c-5.55,6-16.22,5.19-23.13,20.39"/><ellipse class="cls-8" cx="279.45" cy="210.7" rx="4.62" ry="3.68"/><circle class="cls-8" cx="254.17" cy="264.24" r="3.68"/><circle class="cls-3" cx="254.17" cy="264.24" r="1.56"/><circle class="cls-3" cx="279.34" cy="210.21" r="1.11"/><path class="cls-6" d="M302.44,265.74s7.07,11.71,22.48,8.28c10-2.22,11.38,1.74,19.08,1.7,8.59-.06,11.29-6.7,8.56-10.79-2.51-3.77-6.21-2-9.82-11.07-3.39-8.53-19.38-9.26-25.47-4.72S302.44,265.74,302.44,265.74Z"/><path class="cls-5" d="M341.64,267.28s-8.34-15.26-26.28-13.8"/><ellipse class="cls-8" cx="356.55" cy="232.91" rx="3.75" ry="2.81" transform="translate(-54.12 345.68) rotate(-48.51)"/><ellipse class="cls-3" cx="356.78" cy="233.18" rx="1.12" ry="0.79" transform="translate(-54.25 345.95) rotate(-48.51)"/><path class="cls-8" d="M146.52,175.89s-7.45,5.45-6.68,21.16l14.42,7.12,26,12.87s8.26-12.39,11-20.58C194.54,186.9,146.52,175.89,146.52,175.89Z"/><path class="cls-7" d="M167.38,151.39s-18.78,8-20.86,24.5l45.57,20.83a17.63,17.63,0,0,1,9.27-10.18c6.91-3.07,10.17-13.79,8.06-21.07S167.38,151.39,167.38,151.39Z"/><path class="cls-7" d="M177.75,109.42a20,20,0,0,0-6.14,9.93c-1.56,6.26,10.76,0,10.76,0Z"/><path class="cls-11" d="M169.73,121.29c.71-3.09,6-3,8-1.51s2,4.9,0,4.94S169,124.7,169.73,121.29Z"/><path class="cls-12" d="M171,123.53s-7.54,17.56-5.18,30.17c2,10.93,9.75,8.63,10.47,4.91s-4.83-7.77-4.83-18.22,4.85-16.26,4.85-16.26Z"/><path class="cls-12" d="M184.89,110.46c5.33.35,4.77-9.36,9-12.28a62.52,62.52,0,0,0-3.75-5.35h-5.61a90.75,90.75,0,0,0-4.27,9.48C180.67,105.66,181.76,110.26,184.89,110.46Z"/><path class="cls-7" d="M193.93,98.18c-4.27,2.92-3.71,12.63-9,12.28-3.13-.2-4.22-4.8-4.59-8.15-4.46,11.36-10.32,27.33-8.82,51.82l38,10S210.93,125.27,193.93,98.18Z"/><path class="cls-7" d="M194.17,110.47c3.05-.41,4.65,4.74,4.51,10.32s-7.14.92-7.14.92S190.34,111,194.17,110.47Z"/><path class="cls-11" d="M190.62,122.16c1.42-2.11,7.4-2.49,9-.41a4,4,0,0,1-.26,5c-1.2,1.24-6.38,1.81-8.35-.06A3.53,3.53,0,0,1,190.62,122.16Z"/><path class="cls-12" d="M192,127.37s-2.07,18.22-5.57,25c-2.15,4.18-7.25,7.27-4.48,11.35,2.37,3.49,10.38,2.33,13.68-5,3.69-8.23,3-24.43,2.06-31.34Z"/><path class="cls-8" d="M176.56,127.37a20.14,20.14,0,0,0,11.91.53s.78,16.93-7.28,16.28C174.48,143.63,176.56,127.37,176.56,127.37Z"/><path class="cls-5" d="M154.26,204.17s-1.32-15.75,6.75-21.73c2.76-13.34,12.53-16.81,12.53-16.81"/><path class="cls-11" d="M134.41,197.66c1.22-3.66,15.85,2.41,18.61,4.84s-1.5,5.16-9.3,2.37S133.76,199.59,134.41,197.66Z"/><rect class="cls-3" x="180.02" y="125.53" width="2.56" height="61.36" transform="translate(-16.13 291.47) rotate(-75.16)"/><path class="cls-6" d="M213.41,160.23a1.94,1.94,0,0,1,2.71,1l6.17,16.93-3.65,2.45a47.32,47.32,0,0,1-12.53-13.64,2.27,2.27,0,0,1,.85-3.17Z"/><circle class="cls-8" cx="211.72" cy="166.37" r="0.96"/><path class="cls-12" d="M186.06,67.59c6.6-1,8,4.92,9.43,8.84s4.57,6,8.67,8.67c3.47,2.26,2.83,7.19-3.8,9.24-4.59,1.42-18,3.28-22.23-.76s-2.24-8.86-.36-13.19S180.64,68.37,186.06,67.59Z"/><ellipse cx="184" cy="82.63" rx="0.57" ry="1.38"/><ellipse cx="187.55" cy="82.63" rx="0.57" ry="1.38"/><path class="cls-11" d="M149.26,204.17c1.44-4.09,13.66,1.56,16.78,3S180,213.92,180.3,217s-7.61,3.45-15.08,0S147.75,208.43,149.26,204.17Z"/></g></svg>