<svg id="圖層_1" data-name="圖層 1" xmlns="http://www.w3.org/2000/svg" viewBox="0 0 501.82 257.78"><defs><style>.cls-1{fill:#fff;}.cls-2{opacity:0.32;}.cls-3{fill:#ffb829;}.cls-3,.cls-4,.cls-5,.cls-6,.cls-7,.cls-8{stroke:#000;stroke-linejoin:round;stroke-width:0.23px;}.cls-4{fill:#f99128;}.cls-5{fill:none;}.cls-6{fill:#ffc05a;}.cls-7{fill:#fff6eb;}.cls-8{fill:#ef5b2e;}</style></defs><title>02</title><path class="cls-1" d="M486.37,148.42A67,67,0,0,0,468.58,137a148.39,148.39,0,0,0,9.05-24.85,218.55,218.55,0,0,0-38,11.44,134.51,134.51,0,0,0,3.94-13.19,83.75,83.75,0,0,0-8.62-8.53,35.59,35.59,0,0,1,10.2,1.26c4.37-23,2-40.57,2-40.57-19.46,10.48-34.56,22.19-46.29,34.21.25-1.71.49-3.41.69-5.09-6.09-1.24-15.3-2.43-24.22-.91-.9.16,13-6.42,25-6.6a182.37,182.37,0,0,0,.59-19c-6,.93-18.18,3.07-24.33,5.92,0,0,10.95-12.88,23.86-15.53C399.7,20.19,387,0,387,0c-28.62,27.06-42.11,55.29-47,81.55-.87,1.1-1.72,2.24-2.52,3.42-4.09.49-7.84,1-11.31,1.65C314.09,69.33,296.24,57.83,275.35,53c10.52-3.57,19.1-13.39,19.1-13.39,6.76,1.86,16.93-.28,17.6-4.27s-3.38-4.51-3.38-4.51C310,25.49,305,25.24,305,25.24c-1.86-3.21-5.41-4.73-10.31-1.86s-6.59,6.26-6.59,6.26c-12.41,1.14-19.92,5.65-19.92,5.65s-5.87,1.18-19.38,4.41-27.16-8.92-56.5,5.56c-24.26,12-33.14,40.09-35.65,50.4a56.07,56.07,0,0,1-16.85,8.07,53.48,53.48,0,0,0-7.07,2.76c1.43-5.18,2.23-11.26,0-15.45C128,82.36,120.06,93,118.82,102c0,0,2.86-24.51-4.88-25.58s-10.19,17-8,26.06c0,0-6.68-11.82-11.36-8.44S99,112.3,99,112.3s-10.53-5-6.87,6a32.27,32.27,0,0,0,9.28,13.29l-1.36.5c-11.56,4.28-23.92,7.4-35.51,10.23.16-5.84-.59-11.79-4.3-12.06-7.37-.54-9.52,15-9.52,15-1.54-11.6-12.59-31.7-21.19-26.95-8,4.45,4.09,28.82,5.67,31.9h0c-5.65-9.88-19.49-18.41-21-6.26-.61,4.89,1.79,10.35,4.9,15.16a12.29,12.29,0,0,0-3.5,7.31c-7.31-1.4-13.87-.6-15.4,2.67-2.43,5.18,4.46,16,16.26,22.17-2.21,9.81-7.41,13.9-2.59,22.47,11.32,20.14,55.85,9.08,85.31,19.93s26.78,16.2,65.61,21.55,79.67,1.34,99.75-3.34,40.17-12,88.38-18.08S459.67,212,492.13,188.94C512.61,174.39,494.31,155.26,486.37,148.42Zm-47.82-24.36-.48.2a86.4,86.4,0,0,0-8-3.34,40.37,40.37,0,0,0-2.31-6.46A59.87,59.87,0,0,1,438.55,124.06Z"/><g class="cls-2"><path class="cls-3" d="M99.14,233.67c29.45,10.84,26.78,16.2,65.61,21.55s79.67,1.34,99.75-3.34,40.17-12,88.38-18.08S459.67,212,492.13,188.94c20.48-14.55,2.18-33.68-5.76-40.52-16.07-13.86-24.8-12.46-47.17-23.61-17.22-8.58-43.09-14.11-134.81-23.68C218,92.12,140,117.26,100,132.05S10.67,147.72,15.86,171c6.07,27.17-9.26,29.93-2,42.78C25.15,233.88,69.68,222.82,99.14,233.67Z"/><path class="cls-4" d="M377.31,90.8c-.9.16,13-6.42,25-6.6a182.37,182.37,0,0,0,.59-19c-6,.93-18.18,3.07-24.33,5.92,0,0,10.95-12.88,23.86-15.53C399.7,20.19,387,0,387,0c-95.21,90-23,193-23,193,23.58-38.61,34.06-72.82,37.53-101.31C395.44,90.47,386.23,89.28,377.31,90.8Z"/><path class="cls-3" d="M434.93,101.9a35.59,35.59,0,0,1,10.2,1.26c4.37-23,2-40.57,2-40.57-97.6,52.57-85.93,136-85.93,136,38.3-13.11,59.85-36.21,71.87-59.69-.55-6.45-1.93-17.31-5.28-24.4a59.69,59.69,0,0,1,11.41,10.35,138.57,138.57,0,0,0,4.35-14.38A83.75,83.75,0,0,0,434.93,101.9Z"/><path class="cls-4" d="M464.07,146.05a154.48,154.48,0,0,0,13.56-33.87C377,133.3,370.41,195.61,370.41,195.61c35.07,7.08,59.61-6.58,76.28-24.78,0-5.88-.15-17.18-1.44-23.17A88.46,88.46,0,0,1,452.42,164a128,128,0,0,0,8.5-12.46c-1-4.56-2.79-10.48-5.64-14.43A47.81,47.81,0,0,1,464.07,146.05Z"/><path class="cls-4" d="M151,105.27c-2.78-3.16-15.49,1.41-22.14,11.3,0,0,8.42-16.85,3.77-25.53S120.06,93,118.82,102c0,0,2.86-24.51-4.88-25.58s-10.19,17-8,26.06c0,0-6.68-11.82-11.36-8.44S99,112.3,99,112.3s-10.53-5-6.87,6,17.42,22.75,28.11,19.39C145.37,137.89,156.83,111.85,151,105.27Z"/><path class="cls-5" d="M139,119.14s-3.71,9.28-18.77,18.51c-6.78-22-6.64-38.25-6.64-38.25"/><path class="cls-5" d="M103.36,110.61a127,127,0,0,0,16.87,27c-1.66-15.22,5.09-32,5.09-32"/><path class="cls-4" d="M155.77,99.55s6.49-39.48,36.48-54.29c29.34-14.48,43-2.33,56.5-5.56s19.38-4.41,19.38-4.41,9.86,3.47,7,17.74S155.77,99.55,155.77,99.55Z"/><path class="cls-3" d="M268.13,35.29s7.51-4.51,19.92-5.65c0,0,1.69-3.38,6.59-6.26S303.09,22,305,25.24c0,0,5.07.25,3.72,5.54,0,0,4.06.53,3.38,4.51s-10.84,6.13-17.6,4.27c0,0-8.7,10-19.33,13.47C263.05,50.29,268.13,35.29,268.13,35.29Z"/><path class="cls-5" d="M293.7,32s5.5-6.8,11.25-6.8"/><path class="cls-5" d="M297.85,35.29s7.61-1,10.82-4.51"/><path class="cls-6" d="M83.44,157.18c-4.61-9.55,10.28-22,31.17-23.27s17.32,16.05,1.78,22.67C103.41,162.11,87,164.56,83.44,157.18Z"/><path class="cls-6" d="M103.7,178.39s-9.34-.46-9.79-12.07,12-52.18,45.84-62.59,23.09-30.65,72.64-46.9c46.78-15.35,91.47-3.12,114.43,30.7,0,0-1.52,26.7-7.3,30.7S196.35,191,196.35,191,126.64,218.64,103.7,178.39Z"/><path class="cls-3" d="M335.27,88.6c6.47-11.93,19.55-21.18,19.55-21.18a10.09,10.09,0,0,1,2.05-11.08c4.34-4.38,9.92-1.18,9.92-1.18s7-3,8.52,3.62c0,0,6.13,2.67,3.25,11.19-2.68,7.93-12.19,5.64-12.19,5.64S362.21,98,356.19,109.28,331.32,95.87,335.27,88.6Z"/><path class="cls-5" d="M366.79,55.16s-3.84,2.23-5.59,9"/><path class="cls-5" d="M375.31,58.78s-.61,7.45-6.54,11.87"/><path class="cls-4" d="M190,189.27c-9.74-20.75,7.29-55,35.22-70.85s42.8-12.35,56.36-17.34S307,88.53,337.84,84.93c13.22-1.54,26.92,11.16,11.83,51.87C328.73,193.3,259.57,212.73,238,212S197.36,204.91,190,189.27Z"/><path class="cls-6" d="M124.57,196.17c-.59-9.29,13.48-18.73,33.16-19.78s34.21,1.22,51.35,12.29-29.57,20-49.25,21S125.25,207,124.57,196.17Z"/><path class="cls-5" d="M195.83,51.72a4.22,4.22,0,0,1,4.58-2.32s1-3.09,4.59-1.7"/><path class="cls-6" d="M348.69,127.47s-1.42,20-13.89,32.2c-11.68,11.44-25,10.19-29.68,25.6s7.45,22.31,7.45,22.31,10.14,15.21,24.48,7.53c0,0,5.48,12.08,19.27,3.6,0,0,6.33,5.42,16,0,11.5-6.48,10-24.64,3.49-32.61-7.65-9.34-18.9-16.24-20.83-32.48s-1.1-26.15-1.1-26.15Z"/><path class="cls-6" d="M351.34,127.47s-3,14.32-3,22.51"/><path class="cls-6" d="M348,155.26s.28,12.8,3.34,16.14"/><path class="cls-6" d="M344.24,151.23s-4.31,10.16-12.79,16.14"/><path class="cls-6" d="M350.78,161.25s1,6.95,4,10.15"/><path class="cls-6" d="M341.74,161.25a33.73,33.73,0,0,1-3.9,6.12"/><path class="cls-6" d="M342.53,180s-11.7,18.41-5.48,35.08"/><path class="cls-6" d="M356.49,178.39c3.75,7.9,11.2,31.14-.17,40.32"/><path class="cls-6" d="M331.45,172.79c.55-.51-12.55,5.49-16.7,22.82"/><path class="cls-6" d="M354.82,202.94s1.23,6.54-2.63,10.76"/><path class="cls-6" d="M352.19,202.94s.35,5-.85,6.88"/><path class="cls-6" d="M374.05,202.94s.24,6.17-2.78,8.23"/><path class="cls-6" d="M370.19,203.68s.84,4.42-.73,6.14"/><path class="cls-6" d="M324.28,205.73s.12,2.74,1.69,4.09"/><path class="cls-6" d="M326.82,206.75s.36,2.85,1.69,3.69"/><path class="cls-6" d="M142.19,127.87s6.63-9.63,18.55-10.17c0,0,7-21.57,37.29-31.77"/><path class="cls-4" d="M.16,169.1c2.56-5.48,19.27-4,30,3.12,0,0-17.5-16-16-28.26s15.66-3.44,21.19,6.57c0,0-14.43-27.47-5.83-32.22s19.65,15.35,21.19,26.95c0,0,2.15-15.58,9.52-15s3.07,23.46,3.07,23.46,5.06-6.7,7,7.56S63.9,192.15,49.83,193C20.43,204.69-4.12,178.21.16,169.1Z"/><path class="cls-5" d="M19.43,179.81S28,189,49.83,193c-2-28.9-9.5-47.89-9.5-47.89"/><path class="cls-5" d="M57.41,153.68A159.53,159.53,0,0,1,49.83,193c-4.93-18.61-20.44-35.29-20.44-35.29"/><path class="cls-7" d="M195.83,107.54S199,104.39,205,105A8.88,8.88,0,0,1,195.83,107.54Z"/><path class="cls-7" d="M198.77,97.79s1.88,4.23,8.58,3.17A13.22,13.22,0,0,0,198.77,97.79Z"/><path class="cls-7" d="M209.81,102.84a10.39,10.39,0,0,0-1.29,8.11A10.14,10.14,0,0,0,209.81,102.84Z"/><path class="cls-5" d="M205,105s4.81-2.18,9.63-8.44"/><path class="cls-5" d="M207.35,101s2.25.79,3,.17l-.55,1.71"/><path class="cls-7" d="M218.09,66.39a8.67,8.67,0,0,1,7-6.43S224,64.67,218.09,66.39Z"/><path class="cls-7" d="M215.7,69.25s1.16,4.53,5,6.17C220.72,75.42,220.55,71.56,215.7,69.25Z"/><path class="cls-7" d="M214.63,62.59a9.23,9.23,0,0,0-4.82,7.4S214.87,67.45,214.63,62.59Z"/><path class="cls-7" d="M218.58,70c-.4-.26,6.09-1.8,9.29,1.07A10.46,10.46,0,0,1,218.58,70Z"/><path class="cls-6" d="M203.46,70.9a25.3,25.3,0,0,0,14.63-4.51"/><path class="cls-6" d="M215.7,69.25s-.59-.87-2.7-.13"/><path class="cls-6" d="M218.58,70a8.57,8.57,0,0,0-4.47-1.34"/><path class="cls-8" d="M70.64,201.31s23.9,2.88,23.91-4.79c0-3.33-6.15-3.54-9.82-1.54,0,0,7.17-3.5,8.67-9.33s-5.52-9.72-11.56.31c0,0,1-29-9.82-27.33-7.55,1.19-4.29,17.81-2.45,23.69-1.84-5.88-8.86-18.17-14.73-14.77C48.36,171.3,62.57,190,62.57,190s-15.73-10.65-19.17-3.12C40.17,193.92,56.54,202.81,70.64,201.31Z"/><path class="cls-5" d="M62.93,180.42s7,9.41,7.71,20.89a59.66,59.66,0,0,0,3.09-26.92"/><path class="cls-5" d="M83.33,189.47a51.48,51.48,0,0,0-12.69,11.84c-5.67-6.33-14.4-7.24-14.4-7.24"/><path class="cls-5" d="M82.13,198.39s-6.7,0-11.49,2.92"/><path class="cls-6" d="M142.82,194.77s1.28-2.86,5.12-1.75a4.38,4.38,0,0,1,5.63-2.85"/><path class="cls-7" d="M131.4,139.4a11.59,11.59,0,0,1,10.37-1.53A10.13,10.13,0,0,1,131.4,139.4Z"/><path class="cls-7" d="M130.42,143.61c-.83-.08,2.36,4.59,7.36,4.21C137.78,147.82,136.16,144.2,130.42,143.61Z"/><path class="cls-6" d="M122.77,142.87s4.74-3.11,8.63-3.47"/><path class="cls-6" d="M130.42,143.61a9.6,9.6,0,0,0-4.51-2.47"/><path class="cls-7" d="M151.77,142.87s-1.22,5,1.64,7.2C153.41,150.07,154.64,145.63,151.77,142.87Z"/><path class="cls-6" d="M161.59,142.37a3.37,3.37,0,0,1,4.22-1.23,3.45,3.45,0,0,1,4.77-2.4"/><path class="cls-7" d="M246.78,74a16.4,16.4,0,0,0,12.79,3.16S255.41,72.85,246.78,74Z"/><path class="cls-7" d="M263.05,90.62a10.73,10.73,0,0,0,9.47-7.31S265.54,85.47,263.05,90.62Z"/><path class="cls-7" d="M233.49,140.4s0-5.27,5.81-8.26A10.23,10.23,0,0,1,233.49,140.4Z"/><path class="cls-7" d="M230.83,144.27s3.62,3.68,9.64,1A12.7,12.7,0,0,0,230.83,144.27Z"/><path class="cls-7" d="M232,132.14s-5.41,3.15-4.16,8.26C227.84,140.4,231.77,138.83,232,132.14Z"/><path class="cls-5" d="M233.49,140.4a44.87,44.87,0,0,1-12.44,11.3"/><path class="cls-5" d="M227.84,140.4a10.84,10.84,0,0,0-1.06,7.12"/><path class="cls-7" d="M261.51,142.37s3.3-6.26,8.06-7.08C269.57,135.29,270.6,140.37,261.51,142.37Z"/><path class="cls-7" d="M265.55,144s7.13,3.95,11.88,1.1C277.43,145.06,272.78,142.05,265.55,144Z"/><path class="cls-5" d="M255.31,141.14A26.37,26.37,0,0,0,265.55,144"/><path class="cls-5" d="M258.55,126.46s0-3.24,4.53-3.13a4.08,4.08,0,0,1,4.75-2"/><path class="cls-7" d="M275.38,130.67a8.67,8.67,0,0,0,8.85.65A11.14,11.14,0,0,0,275.38,130.67Z"/><path class="cls-6" d="M225.23,186.59a4.35,4.35,0,0,1,4.69-2.55,3.25,3.25,0,0,1,3.57-3.18"/><path class="cls-7" d="M243.12,59.15s1.86,3,7,3.44C250.08,62.59,246.68,58.22,243.12,59.15Z"/><path class="cls-6" d="M114.42,131.72s.48-2.84,3-2.84c0,0,.79-3.44,4.1-3.38"/><line class="cls-5" x1="261.51" y1="142.37" x2="260.06" y2="143.03"/><path class="cls-6" d="M259.91,222.79a12.41,12.41,0,0,0,7,4.09"/><path class="cls-8" d="M322.71,188.68a37.36,37.36,0,0,1-11.91,30c-13.85,13-56.48,23-69.71-9.76Z"/><path class="cls-8" d="M271.83,181.7c13.87-4.42,39.44-5.46,49.08,3.45s-21.63,23.45-39.09,28.18-45,4.57-40.95-10.18C243.21,194.59,256.54,186.56,271.83,181.7Z"/><path class="cls-6" d="M272.68,193.49s-20.1-2.17-21.7,3.2S272.68,193.49,272.68,193.49Z"/><path class="cls-6" d="M274.39,195.75s-16.8,5.68-16.89,12.63a1.15,1.15,0,0,0,1.26,1.13C266.06,209,274.39,195.75,274.39,195.75Z"/><path class="cls-6" d="M277.7,197.23s-6.3,7.84-4.22,12.33a1.48,1.48,0,0,0,2.36.45C279,207,277.7,197.23,277.7,197.23Z"/><path class="cls-6" d="M287.06,193.05c6.73-4.37,26.38-8.65,26.49-4.37C313.65,192.35,293.34,193.6,287.06,193.05Z"/><path class="cls-6" d="M282.84,196.23s3.35,6.88,9.25,6.53a1.63,1.63,0,0,0,1.2-2.64C290.23,196.23,282.84,196.23,282.84,196.23Z"/><path class="cls-6" d="M283.54,191c3.07.35,10.18-5.9,8.06-7.9S283.31,187.9,283.54,191Z"/><path class="cls-6" d="M278.56,190c1.44-1,3.19-6.48,1.34-6.91C277.71,182.63,277.2,188.92,278.56,190Z"/><path class="cls-6" d="M267.94,187.71c1.07-1.6,7,1,7.56,3.39C272.88,191.32,266.58,189.75,267.94,187.71Z"/><path class="cls-5" d="M264,222.79a5.49,5.49,0,0,0,3.28,2.05"/><path class="cls-5" d="M308.4,205.73s-.74,6.7-4.55,9.71"/><path class="cls-5" d="M304.25,207.77a7.77,7.77,0,0,1-2.2,4.58"/><path class="cls-5" d="M313.55,204.27a7.06,7.06,0,0,1-1,3.31"/><path class="cls-7" d="M458.91,176.72s3.71-7.43,9.17-9.18A17.49,17.49,0,0,1,458.91,176.72Z"/><path class="cls-7" d="M466.55,176.72s5.54-3.16,11.08-2.12C477.63,174.6,474.42,179.56,466.55,176.72Z"/><path class="cls-6" d="M451.26,177.6a97,97,0,0,0,15.29-.88"/><line class="cls-6" x1="458.91" y1="176.72" x2="457.65" y2="177.6"/><path class="cls-7" d="M454.83,192.57s4,5.46,11.26,1.45A17.68,17.68,0,0,0,454.83,192.57Z"/><path class="cls-7" d="M101.43,212s-3.32,5.46,0,10.68C101.43,222.72,105,218.87,101.43,212Z"/><path class="cls-7" d="M168.67,236s5-5,10.88-2.83C179.55,233.14,177.91,236.9,168.67,236Z"/><path class="cls-8" d="M188.24,221.57s3.07,18,27.72,20,38.85-11.06,39.8-29.51Z"/><path class="cls-8" d="M188.24,221.57c-2.21-6.66,16-13.77,32-16.65s33-1.28,35.21,4.81-8.09,11.59-29.35,14.76S189.46,225.27,188.24,221.57Z"/><path class="cls-5" d="M199.21,230.3s3,4.51,6.82,5.67"/><path class="cls-5" d="M204.15,230.3a18.77,18.77,0,0,0,9.87,7"/><path class="cls-5" d="M239.87,226.88a13.91,13.91,0,0,1-3.78,8.36"/><path class="cls-5" d="M243.21,226a9.3,9.3,0,0,1-1.75,4.34"/><path class="cls-6" d="M196.42,217.18c-.79-1.38,4.89-3.18,7.73-3.77s7.73-.82,8.85-.39c-.61,2.09-3.92,3.43-7.78,4.09C200.92,217.85,196.79,217.82,196.42,217.18Z"/><path class="cls-6" d="M225.26,212.55c.55-3,12.13-8.25,13.9-5.24C241.4,211.08,226.6,212.94,225.26,212.55Z"/><path class="cls-6" d="M221.91,215.52c1.48.56,5.78,4.86,4.46,6.16C224.53,223.48,221.31,216.89,221.91,215.52Z"/><path class="cls-6" d="M208.5,222.28c-.95-1.61,4.86-6.76,7.89-6.76.94,1.31-.81,4-2.37,5.44C212.1,222.79,209,223.12,208.5,222.28Z"/><path class="cls-6" d="M214.75,208.18c1.64-.49,6,1.67,6.11,3.13s-2.55,1.94-4.47,0S214.75,208.18,214.75,208.18Z"/><path class="cls-6" d="M226.6,215.7c2.31-2.36,19.2-3.95,19.24-.59C245.86,217.11,229.36,218.76,226.6,215.7Z"/><path class="cls-5" d="M107.42,200.23s22.65,30.07,49.87,25.63"/><path class="cls-5" d="M146.8,216.76a25.74,25.74,0,0,1-17.07,3.05"/><path class="cls-5" d="M137.12,223.39a26.36,26.36,0,0,0,8.14,7.39"/><path class="cls-5" d="M119.76,212.81s1.51,6.78,4.39,10.58"/><path class="cls-8" d="M157.29,225.86c.19-4.72,5.5-7.38,6.82-6.4,1.78,1.33-1.49,4.68-1.49,4.68s5,.11,5.15,1.82-4.27,1.13-4.27,1.13,4.34,1.43,3.73,3.21-4.41-.52-4.41-.52,1.55,2.48.49,3.16S157.06,231.36,157.29,225.86Z"/><path class="cls-8" d="M141.9,235.15c-1.11-1.43,1-4,4.87-4.69,5-.92,8.16,2.29,7.06,3.93-.85,1.25-3.43,0-3.43,0s5,3.88,2.83,5.58c-1.76,1.4-3.83-2.26-3.83-2.26s-.4,3.76-2.17,3.21c-2-.62-1.91-6.18-1.91-6.18S142.86,236.38,141.9,235.15Z"/><path class="cls-8" d="M146.83,216.72c-.85-1.85,1.21-3.82,2.73-4s1.49,1,.81,1.59c0,0,1.46,0,.78,1.18,0,0,1,.12,1,.87C152.17,217.87,147.79,218.83,146.83,216.72Z"/><path class="cls-8" d="M123.66,223.52c2.94-1.39,5.54.38,6.76,2.09s.86,3.65-1.18,2c0,0,1,3.3-.68,3.73s-2.51-3.66-2.51-3.66.71,4.86-1.22,4.83-1.44-4.59-1.44-4.59-1,2.88-2.51,1.83C119.75,229,120.52,225,123.66,223.52Z"/><path class="cls-5" d="M376.93,221.72S411,196.4,422.81,158.18"/><path class="cls-8" d="M425,147.11c1.56.11,1,4.56,1,4.56s3.37-2.25,4.34-.9-1.72,3.82-3.89,4.87c0,0,4.23-.23,4.1,1.57s-4.54,2-8.17.74-6-3.68-5.5-5,3.59.91,3.59.91-1.95-4.64-.08-5.31,2.32,3.44,2.32,3.44S423,147,425,147.11Z"/><path class="cls-8" d="M411.12,162.18c1.49-.12,2,3.36,2.31,5.73,0,0,2-2.86,3.4-1.93s-1.14,4.63-1.14,4.63,2.76-1.79,3.36-.33c.49,1.2-1.67,3.66-6.83,4-4.31.3-7.11-2.2-6.39-3.58s3.3.5,3.3.5-3.94-4.55-2-5.68c1.57-.93,3,2.48,3,2.48S409,162.35,411.12,162.18Z"/><path class="cls-8" d="M394.43,183.18c1.07-.61,2.27.38,3.1,1.66,0,0-.35-6.12,1.59-6.72s2,5.13,2,5.13,1-3.47,2.64-3.09-.53,5.06-.53,5.06,1.75-1.15,2.45,0-2.4,4.73-6.68,4C395.67,188.65,392.69,184.16,394.43,183.18Z"/><path class="cls-5" d="M439,187.66s-23,20.32-50.48,23.9"/><path class="cls-8" d="M438.67,187c-.76-2.31,2.34-7.3,3.94-7s.3,3.47.3,3.47,2.71-2.75,3.59-1.89-1.33,2.93-1.33,2.93,2.69-.83,2.89.43-2.68,1.51-2.68,1.51,2.83-.29,2.56,1.05S439.93,190.9,438.67,187Z"/><path class="cls-8" d="M428.81,201.69c.82.86-1.08,2.79-1.08,2.79s2.79-.51,2.85,1-3.42,1.34-3.42,1.34,2.41.69,2.22,1.84-5.46,1.27-6.85-1.21S427.54,200.36,428.81,201.69Z"/><path class="cls-5" d="M399,189.22s-1.35,7.07.17,10.73"/><path class="cls-5" d="M412.22,174.3s.51,3.39,1.67,4.5"/><path class="cls-5" d="M422.33,206.67s-7,1.53-11.67-1.49"/><path class="cls-8" d="M431,173a6.71,6.71,0,0,0,.64-.57c1.26-1.25,1.85-2.7,1.31-3.24s-2,.06-3.24,1.31l-.18.21c-.15-1.41-.68-2.46-1.32-2.46s-1.37,1.44-1.37,3.22c0,2.86,1.12,3.91,3.7,4.21,1.76.21,3.26-.27,3.34-1S432.71,173.21,431,173Z"/><path class="cls-5" d="M427.82,174.6a29.4,29.4,0,0,1-17.16,9.64"/><path class="cls-8" d="M427.2,183.77c-.54-.27-1.39.27-2.09,1.25-.17-1-.71-1.8-1.36-1.8s-1.42,1.12-1.42,2.51a4.13,4.13,0,0,0,.12,1h0c-1.6-.5-3.07-.3-3.3.43s.88,1.73,2.47,2.23a4.52,4.52,0,0,0,5.48-2.32C427.83,185.59,427.89,184.11,427.2,183.77Z"/><path class="cls-5" d="M424.71,189.32a33.31,33.31,0,0,0,.53,8.19"/><path class="cls-6" d="M313.55,226s4.11,5.45,10.73,3.06C324.28,229,320.77,224.81,313.55,226Z"/></g></svg>