<svg id="圖層_1" data-name="圖層 1" xmlns="http://www.w3.org/2000/svg" viewBox="0 0 940.52 607.06"><defs><style>.cls-1{fill:#ddd658;}.cls-1,.cls-10,.cls-3,.cls-4,.cls-5,.cls-6,.cls-7,.cls-8,.cls-9{stroke:#000;stroke-linejoin:round;stroke-width:0.4px;}.cls-2{fill:#b8bf30;}.cls-3{fill:none;}.cls-4{fill:#5b9348;}.cls-5{fill:#ecb36f;}.cls-6{fill:#fff6eb;}.cls-7{fill:#d3e296;}.cls-8{fill:#237a50;}.cls-9{fill:#c19165;}.cls-10{fill:#fff;}</style></defs><title>all</title><path class="cls-1" d="M2.19,442.38c6-14.24,32.25-13.59,54.13-27.44s57.61-24.07,96.27-26.26,68.55-35.33,102.82-31.88,292.16-32.52,403.73,8.87S809.31,406,847.74,421.23s80.83,32.68,89,45.75,1.68,26.65-28.82,44.37-68.09,42.49-108.23,53.46S694,601.6,643,592.57,476.65,610,415.6,606.79s-98.34-21.62-131-21c-44.56.89-98.48-35.15-154.53-47C65.28,525-12,476,2.19,442.38Z"/><path class="cls-2" d="M568.68,383.35c5.89-8.46,37.72-125,83.39-176.75s57.53,9.4,73.69,37.61S772,355.15,792.69,376.77s35,55,52.31,71.68,10.94,23.06,0,27.87-43.13,16.64-79.69,11.2-171.94-14-187.92-15.84S568.68,383.35,568.68,383.35Z"/><path class="cls-3" d="M568.68,383.35c5.89-8.46,37.72-125,83.39-176.75s57.53,9.4,73.69,37.61S772,355.15,792.69,376.77s35,55,52.31,71.68,10.94,23.06,0,27.87-43.13,16.64-79.69,11.2-171.94-14-187.92-15.84S568.68,383.35,568.68,383.35Z"/><path class="cls-3" d="M689.11,214.13c.36,8.5,10.86,15.14,13.08,24.74"/><path class="cls-3" d="M711.37,250.32c-1,7.75,12,12.55,14.55,28.79"/><path class="cls-3" d="M703.77,226.5s5.27,6.36,6.38,11.16"/><path class="cls-3" d="M768,389.5s5.17,17,15.13,21.78"/><path class="cls-3" d="M787.94,400.39s10,20.49,22.89,29.35"/><path class="cls-3" d="M816,439s4.06,6.27,8.86,7.75"/><path class="cls-4" d="M738.64,269.63a17.19,17.19,0,0,0,9.48-5.16c4.34-4.56,7.76-3.07,8.85-.06s-2.4,6.73-2.28,11.3-6,11.13-10.27,8.91-8.44-5.54-7.11-10.26Z"/><path class="cls-4" d="M717.67,254.58c2.91-1.22,7.22-1.41,8.56,2.51s.13,5.45,3.25,7.41,5.42,4.17,5.7,8.93-1.61,8.28-5.45,6.7-9.38.44-11.57-4.49-2.69-10.29-3.74-13.38S715.89,255.33,717.67,254.58Z"/><path class="cls-4" d="M710.32,283.7c3.4-4.81,8.47-1.73,9.52,1.07s3.53,3.35,7.47,6.33A10.13,10.13,0,0,1,731,301.73c-.72,3.32-2.15,8.7-10.94,6s-4-11.45-8.09-14.32S708.06,286.88,710.32,283.7Z"/><path class="cls-4" d="M704,313.51c1.72-3.94,6.7-5.43,9.15-3.35s6.34,8.09,9.22,12.33S724.79,340,721,340s-5.08,2.29-11.37-3.54S696.84,330,704,313.51Z"/><path class="cls-4" d="M728.27,309s-.76-6.17,6.15-11.22,15.7-4.5,16.51-.25.64,6.08-2.45,10.35-12.42,12.39-16.36,9.5S728.27,309,728.27,309Z"/><path class="cls-5" d="M739.13,258.07c4.65,1.37-1.65,18.28-5.26,43-4.92,33.76-13.11,52.6-13.11,52.6l-4.88-2.62s3.23-25.61,8.92-41.25C732.42,288.87,732.81,256.21,739.13,258.07Z"/><path class="cls-4" d="M738.79,260.16c-2.1-.25-5.81-2.07-6.36-9.5s1.29-12.21,3.94-13.3c3-1.21,8.88-1.2,9,3.92s5.68,8.61,3.65,13.16A10.21,10.21,0,0,1,738.79,260.16Z"/><path class="cls-4" d="M769.27,277c4.23.39,7.88.51,7.7,5.59s-2.66,9.93-1.84,13.91-5.2,4.21-9.69,1.34-5.47-9.18-2.3-13.73S766.11,276.73,769.27,277Z"/><path class="cls-4" d="M775.07,305.81c0-5.18,8.22-5.47,12.08-4.64s8.91,2.82,8.5,7.64-2,7.83-6.93,7.39S775,315.09,775.07,305.81Z"/><path class="cls-4" d="M743.32,295.77c2.59-5.81,4.6-7.72,8.7-7.83s1.22,6.89,2.32,9.41,5.6,2.28,6.21,5.92-.59,9-3.47,9.81-8.05,1.35-12.17-5.29C742.35,303.66,741.77,299.26,743.32,295.77Z"/><path class="cls-4" d="M759.75,316.48c2.21-5.09,13.22-4.47,14.81-1s2.14,6.48,6,8.34,3.29,8.15-1.17,9.39-11,2.49-15.86-1.76S757.27,322.18,759.75,316.48Z"/><path class="cls-4" d="M741.09,326.23c1.84-2.78,2.54-5.43,1-8.77s-3.39-4.6-3.51-10.33-3.67-6.66-7.63-5.4-10,6.81-6.75,13.67,3.46,7.13,9.44,10.06S741.09,326.23,741.09,326.23Z"/><path class="cls-4" d="M741.74,333.12c1.26-6,9.92-4.86,13.94-2.46s2.3,6.55,6.68,10.1,3.15,8.25-1.7,8.5-12.2-1.32-15.42-7.78S741,336.9,741.74,333.12Z"/><path class="cls-4" d="M731.35,345.2c1.49-3.05,10.81-3.89,13.42.67s1.07,5.83,4.27,9.36,3.38,5.58.26,9.28-9.39-1.8-15.58-4.49-4.45-4.92-4.13-8.77A13.85,13.85,0,0,1,731.35,345.2Z"/><path class="cls-4" d="M712.74,324.08c1.78-2.68,7.58-2.94,8.56.89s7.89,4.31,8.61,7.7,3,9.84-1.89,12.65-10.2-.52-13-6S708.83,330,712.74,324.08Z"/><path class="cls-5" d="M782.52,294.27c3.78,5.4-16.69,16.55-28.18,28.41s-20.19,20.76-24.76,30.14l-6.41-4.68s13.42-19.21,26.78-31.53C762.28,305.23,779.58,290.09,782.52,294.27Z"/><path class="cls-4" d="M780.82,295.74s-2.11-2.7,1.43-10.83,3.68-7.52,9.85-7.57,10.7.87,8.82,7.55-4.93,10.86-10.4,11.16S783.06,297.09,780.82,295.74Z"/><path class="cls-4" d="M801.42,341.72c-1.89-2.47-.71-6.16-3.87-10.7s-.79-10.58,5.19-11.93,13.51-5.64,15.25-1.59-2.31,7.34-2.34,10.81-3.12,12-8.68,12.7Z"/><path class="cls-4" d="M776.14,325.62c1.68-3.71,4.66-11.36,7.86-10s6.44,2.26,6.14,8.22.26,9.5-1.9,14.32-2.16,7.45-6.34,7.61-9.71.8-10.19-6.45S775.08,328,776.14,325.62Z"/><path class="cls-4" d="M774.42,349.86c4.48-1.91,4.75,1.77,11.45,5.67s3.34,8.64,6.09,12.85,4.18,11.2.13,13.31-8.45-6.28-15-8.21-8.27-7.74-6.55-13.26S769.87,351.81,774.42,349.86Z"/><path class="cls-4" d="M749,356.8c3.87-1.95,11.53,2,13.47,6.82s-.94,9.44,1.93,14.25.56,9.23-4.44,10.19-5.67-5.44-9.31-7.68-12.6-6.52-10.32-17.55S749,356.8,749,356.8Z"/><path class="cls-4" d="M801,346.1l-3,11.07c-1.47,5.41.9,9.48,5.73,11s3.26,5,7.6,5.23,9.92-1.62,8.39-7.55-7.52-15.12-12.92-19.61S801,346.1,801,346.1Z"/><path class="cls-5" d="M818.33,341.81c.3,6.86-31.66,5.29-57,13.07s-31.57,14.66-31.57,14.66-5.24-2.55.45-10.17,33-14.53,48.86-16.7c6.74-.92,14.79-2.06,21.84-2.71C810.47,339.07,818.22,339.09,818.33,341.81Z"/><path class="cls-4" d="M815.32,342.27s-.78-2.78,4-7.72,6.74-9.05,11.5-6.48,11,5.87,6.61,15.59-3.73,14-9.07,12.38-11.79-3.84-12.5-8A24.44,24.44,0,0,1,815.32,342.27Z"/><path class="cls-6" d="M665.91,416.76c8,4.1,8.38,11,15.86,13.84,5.33,2,10.5-1.92,19.85-1.69,19.11-31,40.44-71,26.4-83.59-20.91-18.74-58.75,23.05-74.51,43.05a208.79,208.79,0,0,0-13.68,19.68C649.4,413.45,657.9,412.67,665.91,416.76Z"/><path class="cls-1" d="M701.29,354s4.84,1.5,6.56,3.94"/><path class="cls-1" d="M696.53,361.33s8.18,3.79,11.66,8.56"/><path class="cls-1" d="M697.17,368.89a14.08,14.08,0,0,1,4.72,2.72"/><path class="cls-1" d="M700.25,388.13a30.61,30.61,0,0,1,7.76,9.05"/><path class="cls-1" d="M674.53,393.22s6.61,2.81,9.44,6"/><path class="cls-1" d="M689.74,403.7a11.69,11.69,0,0,1,2.73,3.7"/><path class="cls-1" d="M622.87,406s7.39-3.34,17,2.06,18.07,4.62,26.08,8.71,8.38,11,15.86,13.84,14.63-6.08,33.45,1.29"/><path class="cls-4" d="M673.59,278.35s-3.22-.63-7.15-1.68-3-4.68-2.33-7.25-2.44-2.64-2.35-7.67,2.7-8.48,5.55-7.84,4,1.47,4.61,6.42,5.5,8.35,5.67,13.24Z"/><path class="cls-4" d="M686.65,263.83a19,19,0,0,1-6.84-1.7c-4.43-1.88-2.54-5.89-3.89-9.26s.65-8.94,4.2-8.59,8,.39,8.26,4.63,4.62,6.94,3.71,11S686.65,263.83,686.65,263.83Z"/><path class="cls-4" d="M699.87,255.69a10.6,10.6,0,0,1-5.7-5.23c-1.54-3.56,1.22-7,1.23-10s2.27-6.06,6.21-5,7.57,1.34,6.81,5.35a42.39,42.39,0,0,0-.29,11.29C708.41,254.28,703.58,257.45,699.87,255.69Z"/><path class="cls-4" d="M694.13,267.14s6.21-.75,8.67,3.1,2.65,6.14,5.7,6.91,5.2,5.24,2.66,7.82-8.24,4.24-11.93.27-5.9-4-7.89-7.29S688.7,269,694.13,267.14Z"/><path class="cls-4" d="M679.91,281.39s6.76-.59,10.22,2,4.45,6,6.33,8.11,1.31,6.17-3.37,6.2-5.62-1.26-9.46-2.09-6.08-5.05-7.82-7.31S679.91,281.39,679.91,281.39Z"/><path class="cls-4" d="M671.58,294.9s6.91-.36,10.28,3.48,6.77,3.88,6.43,7.94-1.23,5.75-6.78,3.89-8.58.07-11.44-.53S664.85,298.06,671.58,294.9Z"/><path class="cls-4" d="M665.56,293c0-5.52,1.27-9.55-3.35-11.28s-4.77-10.48-8.32-9.87-6.82,2.43-6.38,6.31-1.51,5.24,2.68,12.14,10.65,9.29,14.42,8.43S665.56,293,665.56,293Z"/><path class="cls-4" d="M703,260.83a26.51,26.51,0,0,1,4,7.06c1,3.35,6.51,6.87,12.68,3.4s4-10.69-.27-11.77-7.88-3.72-10.52-4.15S703,260.83,703,260.83Z"/><path class="cls-5" d="M662.55,296.9s4.7-13.42,19.53-28,29.38-22.53,32.93-18.71-22.85,13.94-33.77,29.34-14.57,25.85-14.57,25.85Z"/><path class="cls-4" d="M636.74,221.54c-3.12-5.86,4-8,7.13-5,2,1.89,5,6.25,9.8,8.14s4,11.4,1.93,12.19-3.94-1.66-5.94-1.49S642,237.77,639,233.22,639.4,226.52,636.74,221.54Z"/><path class="cls-4" d="M633.57,241.46c2.61-2.24,6.08-1.76,7.28,1.58s5.62,0,8,1.45,7.4,3.57,7,6.7-6.31,9.63-10,10.72-7.47-1.58-8.54-6.18-2.33-5.32-3.61-6.54S630.87,243.77,633.57,241.46Z"/><path class="cls-4" d="M631.64,272.39c-.88-3.65-.15-6.91,3.21-7.36s8,2.61,13.68,3.34,8.8,8.27,6.8,13.55-3,9.68-7.53,9-6.14-3.11-9.73-3.15-9.52-1.73-7.89-8.31C630.93,276.46,632.13,274.43,631.64,272.39Z"/><path class="cls-4" d="M659.14,227.62a48.75,48.75,0,0,0,3.72-4.35c2.49-3.14,7-6.65,10.68-3.86s5,7.14,1.62,10.51-2.6,6.46-6.79,8.15-9.13-.33-9.13-.33Z"/><path class="cls-4" d="M659,250.38s1.91-4.29,5.45-5.51,6.46-5,9-4.25,4.93,1.51,5,6.37-.57,8.73-5.63,11.7-11.54,7.34-14.15,4.48S659,250.38,659,250.38Z"/><path class="cls-5" d="M656.93,218.77c5.28-1-.46,55.21,2.27,77.72l-4.81.76s-3.19-21.95-.92-40.84S652,219.71,656.93,218.77Z"/><path class="cls-4" d="M647.6,204.06c-.07-3.47,6.9-6.54,10.06-4.15s7.58,9.16,7.31,11.79-5.19,6.92-6.74,8.46-10.05-3-10.44-6.59S647.67,206.85,647.6,204.06Z"/><path class="cls-4" d="M704.07,297.88a27.91,27.91,0,0,1,.15,6.69c-.38,3.45,2.1,4.93,6,9.14s.93,6.59,7.82,7.35,7.81-5.72,6.51-8.83-3.67-6.44-6.08-11.15a11.83,11.83,0,0,0-7.51-5.75Z"/><path class="cls-4" d="M692.39,304.26a6.88,6.88,0,0,0,4.55,4.37c3.55,1,6.27,4.78,5.08,10.64s3.23,10.91-1.64,12.63-8.62-.57-12.32-8.17-7.36-5.16-8.23-14S692.39,304.26,692.39,304.26Z"/><path class="cls-4" d="M722.46,289.36a19.09,19.09,0,0,1,.19,8.11c-.81,4.92,4.54,4,8.47,8.15s6.31,3.28,10.67,1.29-2.37-6.67-2.72-10.25-2.82-7.88-7.9-8.13A28.68,28.68,0,0,0,722.46,289.36Z"/><path class="cls-4" d="M700.54,295.56c-.21-1,1.72-8.51.61-15s3.22-11.57,9.58-11.07,8.42,7.57,6.35,10.71.26,9.46-2.08,10.79S700.54,295.56,700.54,295.56Z"/><path class="cls-4" d="M725.46,286.16c-.42-2,2.26-7.77-.29-12.74s-1-7.52,2.2-9.74,7-5.59,9.22-1.81-.19,11.26-1.1,14,1.26,7.82-4.39,9Z"/><path class="cls-5" d="M737,283.73c1.89,4.57-21.85,8.7-33,15.91s-22,9.74-29.62,13.71l-1.36-4.9s9.31-7.59,24.76-13.88S735,278.93,737,283.73Z"/><path class="cls-4" d="M737.22,289.58c-3-2.28-2.63-4.64-.23-9.87s4.91-9.83,10-6.94,6.29,6.83,3.12,11.45S743.33,294.22,737.22,289.58Z"/><path class="cls-6" d="M659.2,296.49c-19.85.72-44.82,40.35-54.12,57.49a209.29,209.29,0,0,0-15.48,36.47,12.67,12.67,0,0,1,6,.55c8.46,3,8.16,9,19.43,6.84s13.51-2.35,24.43,2.25a17.14,17.14,0,0,0,10.35.62,272.25,272.25,0,0,0,16.75-32.24C680.06,337.56,683.63,295.61,659.2,296.49Z"/><path class="cls-3" d="M614,351.29s10,2.79,14,8.28"/><path class="cls-3" d="M644.25,334.43a29.78,29.78,0,0,1,15.91,14.12"/><path class="cls-3" d="M649.56,311.77a12,12,0,0,1,5.2,2"/><path class="cls-3" d="M643.42,341.69s4.09,2.44,5.45,5.2"/><path class="cls-3" d="M626.27,378.28s9.91,5.89,12.16,13"/><path class="cls-3" d="M631.19,364.25s2.13,1.31,2.51,2.7"/><path class="cls-2" d="M460.89,56.61c51.05-3.85,129,149.66,135.43,336l-233.46,8.9S392.79,61.75,460.89,56.61Z"/><path class="cls-3" d="M460.89,56.61c51.05-3.85,129,149.66,135.43,336l-233.46,8.9S392.79,61.75,460.89,56.61Z"/><path class="cls-3" d="M442,159.43c-5.52,13.8-4.42,40.3-10.49,53.55"/><path class="cls-3" d="M446.38,193.65s-.56,19.33-7.18,29.26"/><path class="cls-3" d="M487.71,205.8s-.48,33.12,6.14,43.06"/><path class="cls-3" d="M497.71,222.91s.56,9.94,4.42,18.22"/><path class="cls-5" d="M581.8,171c20.21.9,29.66,125.21,34.69,210.94,0,0,5.58,45.64-34.32,48.73s-42.34-54.08-42.34-54.08S549.06,169.55,581.8,171Z"/><path class="cls-3" d="M577,283.22s14.65,1.32,20.9-3.75"/><path class="cls-3" d="M563.39,270.54s1.78,1.22,7.18,1"/><path class="cls-3" d="M552.85,299.69a46.79,46.79,0,0,0,26.66,2.37"/><path class="cls-3" d="M593.64,325.14a16.81,16.81,0,0,0,11-2.27"/><path class="cls-7" d="M578,190.5c14.75-2.79,26.79,14.14,26.46,36.92s-8.22,29.49-13,41.26-16.43,17.06-23,4.35-21.24-25-17.59-50.11S570.08,192,578,190.5Z"/><path class="cls-1" d="M645.35,31.5c6.4,0,5,11.59,5.3,17.76s4.45,4.35,8.08.63,4.41-6.73,7.41-4.17-4.52,12.42-1.26,16.39S672,60,673,67s-16.3,38.14-16.3,38.14-28.93-7-29.5-17.93,13.48.79,14.93-4.17-14.58-6.19-13.65-13.59,9.92-3.79,11.08-8.5-14-2.15-11.53-9.7,11.62,1.69,13-2.21S638.4,31.49,645.35,31.5Z"/><path class="cls-1" d="M646.4,52.4s8.92,33.25,10.34,52.75"/><path class="cls-1" d="M656,104.27s-7.65-30.5-.91-34.78S660,82.94,666.31,80.23s.15-26.15,6.62-27,1.24,14.49,6.59,16.38,14.74-26.33,22.56-20.46S691,68,694.29,73.61s16.84-3.33,17.84,4.52-28.61,7.4-27.27,14.2S697.38,91,697.19,98.7,677.71,108.61,656,104.27Z"/><path class="cls-1" d="M656,104.27c18.87-7.62,29.55-28.19,29.55-28.19"/><path class="cls-1" d="M720.35,138.28c-2.62,4.62-14.39-3-19.8-5.81s3.22,10.15-1.78,13.1-14.77-17-18.5-17,2.94,9.42-1.92,12.45-19.81-25.93-22.13-37c0,0,39.12-14.39,42.51-5.4S685,103.58,686,108.89s26.74-9,30.68.26-16.71,6.66-15.56,11.1S725.11,129.84,720.35,138.28Z"/><path class="cls-1" d="M692,121.68s-21.33-9-35.73-17.63"/><path class="cls-1" d="M640.82,167.84c-4.93-1.1-1.57-10.26-.52-15.94s-8.78.86-10.8-3.69,12.52-11.17,11.21-15-10.56,7.3-11.81,1.68,24.55-17.2,27.39-30.84c0,0,13,14.43,17.06,26.83,3.4,10.4-3.88,11-5.8,7.13-1.55-3.18-6.28-3.59-5,1.7s4.09,16.35-.17,17.31-5.18-10.12-9.88-7.43S651,170.11,640.82,167.84Z"/><path class="cls-1" d="M651.72,144.64a56.78,56.78,0,0,0,4.57-40.59"/><path class="cls-1" d="M590.38,105.4c-.19-5.05,9.52-4.13,15.29-4.56s-3.08-8.28.81-11.39,14,9.25,17.36,7-9.75-8.35-4.63-11S642.1,104.83,656,104.1c0,0-10.63,16.25-21.59,23.33-9.18,5.94-11.66-.93-8.36-3.79,2.67-2.31,1.86-7-2.92-4.36s-14.77,8.12-16.78,4.25,8.47-7.59,4.66-11.45S590.79,115.83,590.38,105.4Z"/><path class="cls-1" d="M615.6,110A56.75,56.75,0,0,0,656,104.1"/><path class="cls-1" d="M579.82,73.22s16.83,14.12,22.52,24.49,11.11,6.65,10.1,1.85-6.83-11-2.36-12.78,6.58,17.24,14.48,11.55S616.78,86.7,621,82.51s21.38,8.73,25.76-2.15-24.9-6.45-24.75-11,14.82-5.75,12.53-11.83-18.52,5.26-23.85,2.88,10.92-8.8,6.2-13.89S595.12,48.41,579.82,73.22Z"/><path class="cls-1" d="M621.44,73.39s-24.71-9.68-41.62-.17"/><path class="cls-1" d="M541.41,129.56c-6.66-5,8.52-10.69,7-15.48s-9,3.86-11.75-2.36,15.28-10.49,14.53-15.6-7.54-1.38-7.92-6.37S567.12,73,580.43,72.38c0,0,6.41,14.82,6.92,24.35s0,16.72-5,18.67-4.32-6.12-9.18-5.05.08,15.85-6.55,17.18c-6.31,1.26-4.14-7.25-8.15-7.79S545,132.27,541.41,129.56Z"/><path class="cls-1" d="M580.43,72.38c-2.69,14.54-24.12,35.17-24.12,35.17"/><path class="cls-1" d="M580.68,72.31s-5.8-11.56-13.23-19.18-9.58-8.15-12-5.72,1.94,6.37-.17,9.06-10.41-7.47-14-13.41S532.82,30.87,529,32.87s3.63,8.18.5,11.53-7.4-.92-13.5-5.21S505.4,36,504.1,38.67C499.7,47.73,525,53.1,521.87,59c-1.58,3-5.25,5.46-1.76,9.33s12.67-1.9,19,.74-5.81,6.33-3.08,10.8S559.91,86.42,580.68,72.31Z"/><path class="cls-1" d="M529.8,53.15c.34.55,21.61,15.73,50.88,19.16"/><path class="cls-1" d="M609.92,123.33c-3.81,2.36-7.36-5.54-10.22-9.81s-5.05,6-9.16,4.36,1-14.86-2.19-16.48-2.18,11.19-6.46,8.39,4.93-26.17-1.73-36.59c0,0,17.22,1.09,27.49,6.46,8.61,4.49,4.39,9.42.74,8.12-3-1-6.22,1.63-2.1,4.17s12.75,7.85,10.64,11.1-9.57-3.22-10.89,1.41S617.8,118.45,609.92,123.33Z"/><path class="cls-1" d="M602.45,101.82A50.43,50.43,0,0,0,580.16,73.2"/><path class="cls-1" d="M581.28,0c5.31.16,4.08,14.12,4.08,20.23s7.48-7.58,12.42-4.53-8.21,21-6.42,24.28,7-7,11.92-4.1-13.73,29.61-22.44,36.81c0,0-31-27.92-24.57-35.11s10.77,9.89,15,6.48-20.37-19.49-14-27.28,13.68,11.69,17.07,8.61S571.59-.29,581.28,0Z"/><path class="cls-1" d="M579.8,32.86s2,23.08,1,39.83"/><path class="cls-1" d="M553.74,126.35c5.73-5.44-9.89-11.34-9.69-16.41s9.8-2.77,10.82-8.37-18.42-2.49-19.71-7.24,8.49-2,8.65-6.73-20.74-15.23-39.53-.51c0,0,11.62,17.87,19.57,24.4s10.29,6.29,15.46,7.75S548.93,130.91,553.74,126.35Z"/><path class="cls-1" d="M538.23,108.59a49.85,49.85,0,0,0-34-21.5"/><path class="cls-5" d="M580.83,70.71c9-.2,5.88,90.92,15.36,107.45l-25.07.28s8.55-32.74,8.54-57.84C579.66,92.91,575.39,70.83,580.83,70.71Z"/><path class="cls-5" d="M657.14,104.7c3.41,6.55-48.51,41-53.09,76.28l-17.26-2.71C599,141.54,652.35,95.49,657.14,104.7Z"/><path class="cls-1" d="M466.82,19.85c8.34-4.27,6.6,13.84,12.21,14.61s.51-11,8.16-10.7,3.08,20.57,8.61,22.33,5.09-6.94,10.32-4.87,5.2,32.36-.73,46.08c0,0-18.11-.8-28-5S460.54,74.09,461,68.15s8.3-1.36,9.61-6.8-16-7.7-14.13-15.05c1.82-7,9.36-.6,11.87-4.4S462.31,22.16,466.82,19.85Z"/><path class="cls-1" d="M507.81,89.73c-13.36-9.85-23.66-41.61-23.66-41.61"/><path class="cls-1" d="M555.57,45.4c3.28,3.83-4.91,9.14-9.16,13.06S554,63,552.84,67.89s-16.71,1.43-18,5.28,12.83.5,10.45,5.74-30-1-40.41,8.23c0,0-1.75-19.34,2.45-31.69,3.52-10.36,9.72-6.51,8.91-2.23-.66,3.48,2.88,6.64,5,1.62s6.54-15.53,10.52-13.75S529.86,52.3,535.24,53,548.77,37.47,555.57,45.4Z"/><path class="cls-1" d="M532.92,57.42a56.75,56.75,0,0,0-28,29.72"/><path class="cls-1" d="M419.6,118c-2.81-4.46,3-9,9.49-10.9,5.43-1.62,8.45-2.33,7.15-5.5S428,97.18,430,93.07c3.52-7.14,22.27,4,24.79-2.32,1.91-4.8-6.73-4.94-5.16-10.4s31.08-7.61,56.95,8c0,0-11,16.18-26.12,22.12s-13.71-4.71-18.05-3.51-10.85,18.29-17.73,17.64c-8.69-.82-.39-10-5.2-11.14S424.06,125.14,419.6,118Z"/><path class="cls-1" d="M506.56,88.3c-24.48-4.88-46.89,10.31-46.89,10.31"/><path class="cls-1" d="M505,87.15s-61.36,14.13-49.33,31.48c2.59,3.74,11.91.15,11.74,4.75s-23.18,6.48-25.86,13.77,3.95,8.57,6.6,9.16a3.39,3.39,0,0,1,2.08,5.38c-1.48,1.78-12.93,7.63-11.36,14.87s8.78,3.56,13.83-2,9.07-5.46,10.7-1.68-.45,10.88,6,9.77,8.95-9.38,11.32-23.62,6-12,8.48-8.77,7.79,6.18,9.09-.64S505.67,92.88,505,87.15Z"/><path class="cls-1" d="M476.34,129.17s3.44-20,28.61-42"/><path class="cls-1" d="M504.27,87.09s-6.38,11.26-8.56,21.67-1.44,12.5,1.9,13.12,4.2-5.17,7.63-4.91-.41,12.8-3.34,19.12-5.39,13.83-1.58,15.93,4.77-7.57,9.3-6.83,3.36,6.65,3.19,14.1,3.24,10.54,6.17,10.14c10-1.39.35-25.38,7-26.07,3.36-.35,7.46,1.32,8.73-3.73s-8.63-9.47-10-16.21,8.49,1.29,10.68-3.46S527.55,96.48,504.27,87.09Z"/><path class="cls-1" d="M516.69,140c.27-.59,1-26.71-12.42-52.93"/><path class="cls-5" d="M504.52,87.53c1.62-7.64,53.33,35.14,66.8,85l-19.06,2.73s1.41-29.4-23.17-58.58S504,89.89,504.52,87.53Z"/><path class="cls-7" d="M505.47,239.67c-6.42-5.86.69-16.22.66-26.83-.11-31.3,34.4-56.76,64.26-52.72a13.48,13.48,0,0,1,11.39,10.51c3.52,16.41-6.45,40.28-19.19,52.14C547.35,237,511,244.71,505.47,239.67Z"/><path class="cls-3" d="M551.78,175.59s-23.31,10.06-35.1,40.6"/><path class="cls-3" d="M528.34,223.37c.48-.65,28.24-12.65,39.17-38.05"/><path class="cls-7" d="M584.49,163.31c8.79-7,22.79-1.75,30.07,7.17s25.18,21.1,28.84,45.29,3.14,25.33.63,28.5-12.63-.43-19.91-3.76-24.3-7.87-34.27-25.39S572.27,173.07,584.49,163.31Z"/><path class="cls-3" d="M594.3,189.83s8.14,26.64,29,37.77"/><path class="cls-3" d="M609.8,186s15.53,9.86,21.78,36.22"/><path class="cls-7" d="M235,330.49l-16.72,8.91-16.16-9.87-7,9.2s14.51,12.23,13.7,40l8.26.24,8.25.24c.82-27.74,16-39.11,16-39.11Z"/><line class="cls-1" x1="217.6" y1="353.59" x2="217.85" y2="341.33"/><path class="cls-4" d="M258.89,307.57a18.89,18.89,0,0,0,.8-4.91,19.38,19.38,0,0,0-18.8-19.94,18.69,18.69,0,0,0-2.81.15,19.36,19.36,0,0,0-37.6-1.16,20.16,20.16,0,0,0-2.21-.2,19.38,19.38,0,0,0-19.94,18.81,19.07,19.07,0,0,0,.45,4.68,19.37,19.37,0,1,0,22.85,29.25,19.37,19.37,0,0,0,32.22.95,19.38,19.38,0,1,0,25-27.63Z"/><path class="cls-5" d="M163.23,359.75c2.93-13,17.15-14.3,23.34-8.64,7.43,6.8,7.64,17.68,26.21,19.82,11.77,1.35,7.62,16.24-14.25,15.93C171.1,386.47,160.91,370,163.23,359.75Z"/><path class="cls-5" d="M271.7,361.92c-2.42-13.07-16.58-15-23-9.57-7.69,6.49-8.34,17.36-27,18.76-11.82.88-8.27,15.92,13.59,16.48C262.76,388.3,273.6,372.22,271.7,361.92Z"/><path class="cls-3" d="M207.28,310.06s-4.86-2.13-7.43,1.65a6.33,6.33,0,0,0,0,6.76s-7.83-1.65-6.08,6.74"/><path class="cls-7" d="M128.65,366.17l-17,9-16.4-10-7.06,9.33S103,387,102.13,415.11l8.38.25,8.38.24c.82-28.16,16.26-39.7,16.26-39.7Z"/><line class="cls-1" x1="111.02" y1="389.61" x2="111.27" y2="377.17"/><path class="cls-4" d="M152.93,342.9a19.58,19.58,0,0,0-18.27-25.22,20.61,20.61,0,0,0-2.85.14,19.65,19.65,0,0,0-38.17-1.17,20.67,20.67,0,0,0-2.25-.2,19.67,19.67,0,0,0-20.24,19.09,20.1,20.1,0,0,0,.46,4.75A19.66,19.66,0,1,0,94.8,370a19.68,19.68,0,0,0,32.71,1,19.67,19.67,0,1,0,25.42-28.05Z"/><path class="cls-5" d="M55.83,395.87c3-13.16,17.41-14.52,23.69-8.78,7.55,6.9,7.76,18,26.6,20.12,11.95,1.37,7.74,16.48-14.45,16.17C63.82,423,53.48,406.24,55.83,395.87Z"/><path class="cls-5" d="M165.93,398.06c-2.46-13.26-16.82-15.19-23.33-9.71-7.81,6.59-8.47,17.63-27.38,19-12,.9-8.39,16.16,13.8,16.74C156.86,424.84,167.86,408.52,165.93,398.06Z"/><path class="cls-3" d="M88.22,359.64s-2.21-4.28,0-6.44,5-.31,6.38,1.54c0,0,1.38-3.33,4.32-2.52a4.18,4.18,0,0,1,3.08,3.65"/><path class="cls-3" d="M111.15,344.37s2.58-3.22,5.95-2.1,2.52,4.91,2.52,4.91,3.64-2.95,6.58-1,0,6.86,0,6.86"/><path class="cls-2" d="M115,391.77c6.81-8.16,23.22-4.19,31.31,4.06s16.18,1.17,27.8,6.73,4.55-8.73,14.16-14,6.95-8.18,14-7.74,4.43,8.18,11.95,12.83,7.74,17.47,14.15,21.23,26.7,34.76,26.7,34.76-78.69,34.12-89,32.77-13.48-2.54-18.54,0-7.48,4-11.66,0-13.64.6-17.39-5.78,5.51-9.9,6-17.6,3.3-8.36,10.56-10.12,4.84-12.33-4.4-18.49-2.86-14.3-11-19.8S111.7,395.78,115,391.77Z"/><path class="cls-3" d="M115,391.77c6.81-8.16,23.22-4.19,31.31,4.06s16.18,1.17,27.8,6.73,4.55-8.73,14.16-14,6.95-8.18,14-7.74,4.43,8.18,11.95,12.83,7.74,17.47,14.15,21.23,26.7,34.76,26.7,34.76-78.69,34.12-89,32.77-13.48-2.54-18.54,0-7.48,4-11.66,0-13.64.6-17.39-5.78,5.51-9.9,6-17.6,3.3-8.36,10.56-10.12,4.84-12.33-4.4-18.49-2.86-14.3-11-19.8S111.7,395.78,115,391.77Z"/><path class="cls-3" d="M137.05,407.46s40.33,14.56,62.36,63.68"/><path class="cls-2" d="M158,443.51c1.23-9.24,11.62-2,19.71-8.09s4.55-18.7,20.73-21.23,14.66,14.16,44,5.06,52.07,29.82,47,51.56-11.13,24.81-12.64,34.9-1,23.24-11.63,20.21-17.19,2-19.72-13.65-12.2-19.72-18.23-11.63S216.62,516.82,201,511.76s-28.31,8.6-39.44,7.08-12.63-10.2-8.08-21.78-2.53-15.13,8.08-21.19,14.16-15.34,8.09-20.06S157,451.1,158,443.51Z"/><path class="cls-3" d="M158,443.51c1.23-9.24,11.62-2,19.71-8.09s4.55-18.7,20.73-21.23,14.66,14.16,44,5.06,52.07,29.82,47,51.56-11.13,24.81-12.64,34.9-1,23.24-11.63,20.21-17.19,2-19.72-13.65-12.2-19.72-18.23-11.63S216.62,516.82,201,511.76s-28.31,8.6-39.44,7.08-12.63-10.2-8.08-21.78-2.53-15.13,8.08-21.19,14.16-15.34,8.09-20.06S157,451.1,158,443.51Z"/><path class="cls-3" d="M183.76,482.44s18.6-36.57,106.36-26.63"/><path class="cls-2" d="M273,491.76s-3.49,21.7,8,26.69,21.95-2.63,26.44,7.91-3,19.15,7.49,24.83,16.18,6.14,19.06,14.14,13.36,10,22.34-3.49,15-22.18,12-33,4.49-13.35,11-11.35,16.46-3.14,12.47-16.78-20-43.08-51.38-36.1S282,465.07,273,491.76Z"/><path class="cls-3" d="M273,491.76s-3.49,21.7,8,26.69,21.95-2.63,26.44,7.91-3,19.15,7.49,24.83,16.18,6.14,19.06,14.14,13.36,10,22.34-3.49,15-22.18,12-33,4.49-13.35,11-11.35,16.46-3.14,12.47-16.78-20-43.08-51.38-36.1S282,465.07,273,491.76Z"/><path class="cls-3" d="M337.84,540.79s7.94-23.21,0-43.73a272.54,272.54,0,0,1-9.48-29.19"/><path class="cls-2" d="M263.58,273.61c4.59-3.95,13.59-1.67,21.08,8.89s23.49,2.38,37.44,24.85,11.76,66.76-10.46,74.74-57.24,21.22-69.34,8-20.62-23.81-28.45-31.3S210.1,347,217.93,342.5s9.19-10.3,16.34-10,11.92,10.08,20.77,2.15-1.36-19.85.68-27.68,7.07-12,4.43-21.3C258.27,279.15,260.73,276.08,263.58,273.61Z"/><path class="cls-3" d="M263.58,273.61c4.59-3.95,13.59-1.67,21.08,8.89s23.49,2.38,37.44,24.85,11.76,66.76-10.46,74.74-57.24,21.22-69.34,8-20.62-23.81-28.45-31.3S210.1,347,217.93,342.5s9.19-10.3,16.34-10,11.92,10.08,20.77,2.15-1.36-19.85.68-27.68,7.07-12,4.43-21.3C258.27,279.15,260.73,276.08,263.58,273.61Z"/><path class="cls-3" d="M277.81,301.08c0,21.95,25.15,22.46,25.05,84.16"/><path class="cls-1" d="M358.38,327.66c4.13-27.26,38-44.27,55.36-36s32.19,4.32,54.51-5,47.19-1.94,58.12,6.89c20.16,16.28,64.18,15.15,68.31,82.07S560,477.43,489.75,460.38,345.31,413.93,358.38,327.66Z"/><path class="cls-4" d="M479.1,308.67c-9.71-1.87-10.5-12.12-3.17-13.7,5.61-1.21,12.77-3.81,20.39-23.62s20.95-32,37.33-33.52c15.63-1.46,23.29,6.81,31.57,7.56a1,1,0,0,1,.88,1.27l-2.61,10.16a1,1,0,0,1-1.77.41c-3.89-4.51-16.29-17-30-11-14.88,6.48-25.29,24.09-22.86,39.62,2.55,16.24,17.8,12.94,15.68,20.87-2,7.53-16.13-1-21.77-1.45C494.62,304.63,491.87,311.14,479.1,308.67Z"/><ellipse class="cls-6" cx="490.48" cy="331.51" rx="5.41" ry="3.33" transform="translate(-58.27 553.63) rotate(-56.09)"/><path class="cls-3" d="M518.73,336.58s22.07,20.41-7.32,91.87"/><path class="cls-3" d="M458.32,325.92s-24.67,36.3-11.66,89.1"/><ellipse class="cls-6" cx="563.47" cy="338.25" rx="3.36" ry="5.44" transform="translate(-86.39 240.28) rotate(-22.4)"/><path class="cls-6" d="M474.07,419.05c-.24-6.16-1.12-15.37,3.34-36.54s2.82-35.19,10.21-35.19c8.63,0,4.32,35.68.83,43.48s1.64,37.72-6.16,39.57S474.2,422.33,474.07,419.05Z"/><path class="cls-6" d="M471.76,337.51c3.8,2.9-3.1,9.59-5.23,22.81-1.86,11.55-5,20.59-8.21,19.77-3.56-.91-4.2-14.79-1.35-25.65S467.3,334.13,471.76,337.51Z"/><ellipse class="cls-6" cx="457.58" cy="396.03" rx="2.9" ry="5.43"/><path class="cls-6" d="M511.41,363.29c5.75-.88,6.49,15.08,1.26,28-4.25,10.52-9.87,8.4-10.35,1.33a14.64,14.64,0,0,1,1.73-7.69C510.19,373,508,363.81,511.41,363.29Z"/><path class="cls-6" d="M544.2,344.38c6.1-2.59,8.2,6.39,11.49,20.07s9.87,40.3,1.44,45.43-5.87-14.33-7.19-25.58S536.92,347.46,544.2,344.38Z"/><path class="cls-6" d="M571.33,354.87c3.74-4.05,12.59,2.15,13.37,25.42s.94,26.51-2.57,25.4-5.94-17.35-7.93-24.78S568.12,358.36,571.33,354.87Z"/><path class="cls-1" d="M296.56,334.23c21.6,1.88,52.93,11.75,79.39,0s78.48,22.65,82.25,98.07-77.62,39.7-89.53,42.34-10.58,13.06-35.06,12.49S309.79,474,291.93,474s-43.64,7.48-60.2-19.18c-22.17-35.69-1.21-86,18-103.21S284.76,333.21,296.56,334.23Z"/><path class="cls-6" d="M403.41,365.37c2.77,2.33,6.8,5.05,9.2,13.26s7.72,9.49,8.52,3.52-3.39-18.12-11.45-23.23C402.68,354.48,399,361.67,403.41,365.37Z"/><path class="cls-6" d="M422.73,397.48c3.94-6,14.13,8.11,10.09,39.2C430.32,455.93,419.43,402.47,422.73,397.48Z"/><path class="cls-6" d="M311.21,393.49s-4.32,9.12,0,20.88-4.14,25.43,2.49,30,7.11-14.16,6.87-29.27,4.08-14.33,1.92-17.61S319.94,391,311.21,393.49Z"/><path class="cls-6" d="M292.34,379.44a11.35,11.35,0,0,0-10.75,2.89c-3.74,3.6-8.47,10.35-9.64,22-2,19.91,4.65,21.22,7.25,14.54,3.41-8.77-.61-25.83,11.37-33C297.07,382,295.31,380.23,292.34,379.44Z"/><ellipse class="cls-6" cx="273.85" cy="360.31" rx="6.5" ry="3.92" transform="translate(-156.18 501.34) rotate(-70.92)"/><path class="cls-6" d="M332.71,409a59.21,59.21,0,0,1,4.85,23.9c0,14-3.33,18.22,2,21.38s8.41-14.7,8-23.82S344.81,400.39,332.71,409Z"/><path class="cls-3" d="M385.77,394.56s9.31,5.95,9.31,42.12"/><path class="cls-6" d="M253.43,439.4c6.38.39,5-22.76,5-32.32s12.13-21.53,5.47-25.83c-6.16-4-16.3,9.09-15.6,29.08S247.32,439,253.43,439.4Z"/><path class="cls-5" d="M615.91,482.75c-6.14-10.08-4.47-23.29-4.39-23.85l7.21,1c0,.11-1.39,11.26,3.39,19.11Z"/><path class="cls-4" d="M634.75,366.86c10.07,0,13.06,7.49,14.28,17.23,2,16.3,16.73,14.81,15.41,36.15-.86,14-1.77,16.81-20,31.19s-44.52,13.28-51.18,0-12.27-36.76,0-49.94,18.25-10.71,24.55-22C623,370.37,628.75,366.86,634.75,366.86Z"/><path class="cls-3" d="M633.14,398.39s-21.3,15.92-20.34,56.11"/><path class="cls-5" d="M597.07,501.88c-8.53-.66-15.29-6.18-19.55-16a51.86,51.86,0,0,1-3.75-13.86l7.24-.75c0,.22,2.51,22.23,16.62,23.33Z"/><path class="cls-8" d="M631.94,502.68c-6.06,6-14.65,7.58-24.85,4.44a52,52,0,0,1-13-6.17l4.14-6c.19.13,18.52,12.56,28.53,2.57Z"/><path class="cls-5" d="M560.63,512.4a98.66,98.66,0,0,1-36.45-7.24l2.93-6.66c.57.25,41,17.45,71-5.23,32.16-24.37,52.37-29.14,76.41-29.14v7.28c-22.49,0-41.49,4.53-72,27.66C589,509.3,573.92,512.4,560.63,512.4Zm-35-10.57,1.46-3.33h0Z"/><path class="cls-4" d="M428.19,414.35c10.88-11.76,29.29-.35,40.31,1.21s27.18-6.84,43.71-3.3c23.56,5,27.14,27.55,28.72,35.42s-24.88,39.48-48.81,31.08-18.91-17-41.28-17C426.51,461.8,413.58,430.15,428.19,414.35Z"/><path class="cls-3" d="M457.43,433.19c.68-.31,41.64-3.26,70.44,34.58"/><path class="cls-5" d="M462.87,496.65c-21,0-32.67-9.22-33.26-9.7l4.57-5.67a38.15,38.15,0,0,0,11.11,5.41c6.63,2.14,17.52,4.1,31.77,1.21l1.45,7.13A78.71,78.71,0,0,1,462.87,496.65Z"/><path class="cls-5" d="M469.16,492.8c-10.87,18-24.81,23.16-25.52,23.42l-2.48-6.84a38.48,38.48,0,0,0,10.38-6.71c5.27-4.56,12.58-12.86,17.49-26.55l6.85,2.46A78.83,78.83,0,0,1,469.16,492.8Z"/><path class="cls-4" d="M695.92,449.15c18.88-15.39,52.52-17.56,66.55-2.42s4,28.61,34.7,41.62c0,0,2.22,19.36-21.59,19.14s-14.22-5.56-43.75-5.66S684.94,494,695.92,449.15Z"/><path class="cls-3" d="M759.59,483.28C758.69,481.57,728,454,692.3,458"/><circle class="cls-7" cx="682.75" cy="444.5" r="43.01"/><circle class="cls-7" cx="399.35" cy="478.76" r="43.01"/><circle class="cls-7" cx="555.22" cy="438.98" r="43.01"/><circle class="cls-7" cx="506.11" cy="491.46" r="43.01"/><ellipse class="cls-6" cx="374.78" cy="463.36" rx="7.96" ry="5.8" transform="translate(-169.1 706.99) rotate(-75.16)"/><ellipse class="cls-1" cx="374.31" cy="462.59" rx="2.17" ry="1.62" transform="translate(-168.71 705.97) rotate(-75.16)"/><path class="cls-4" d="M403.53,507.49c12.41-8.07,37-9.45,46.19,0s13.2,26.17-5.52,42.88-52.13,21.3-61.13,14.93-7.35-14.16,0-20.93C396.07,532.39,388.44,517.32,403.53,507.49Z"/><path class="cls-3" d="M449.72,507.49c-11.14,12-32.54,10.42-46.41,40.93"/><ellipse class="cls-6" cx="553.19" cy="414.31" rx="9.27" ry="7.39"/><circle class="cls-6" cx="502.46" cy="521.77" r="7.39"/><circle class="cls-1" cx="502.46" cy="521.77" r="3.12"/><circle class="cls-1" cx="552.99" cy="413.33" r="2.24"/><path class="cls-4" d="M599.33,524.77s14.2,23.5,45.12,16.63c20.07-4.46,22.84,3.49,38.3,3.4,17.23-.11,22.66-13.43,17.19-21.64-5.05-7.58-12.48-4-19.72-22.23-6.8-17.12-38.89-18.58-51.12-9.47S599.33,524.77,599.33,524.77Z"/><path class="cls-3" d="M678,527.86s-16.74-30.61-52.75-27.69"/><ellipse class="cls-6" cx="707.94" cy="458.88" rx="7.53" ry="5.65" transform="translate(-104.8 685.16) rotate(-48.51)"/><ellipse class="cls-1" cx="708.41" cy="459.43" rx="2.25" ry="1.59" transform="translate(-105.06 685.69) rotate(-48.51)"/><path class="cls-6" d="M286.42,344.45s-14.95,10.93-13.4,42.47L302,401.22,354.21,427s16.58-24.87,22.11-41.29C382.79,366.56,286.42,344.45,286.42,344.45Z"/><path class="cls-5" d="M328.28,295.29s-37.68,16.06-41.86,49.16l91.45,41.82s4.16-14,18.61-20.45c13.86-6.15,20.42-27.67,16.17-42.28S328.28,295.29,328.28,295.29Z"/><path class="cls-5" d="M349.09,211.05A40.08,40.08,0,0,0,336.78,231c-3.13,12.57,21.59,0,21.59,0Z"/><path class="cls-9" d="M333,234.88c1.41-6.22,12.05-6.06,16.14-3s4.1,9.82,0,9.9S331.44,241.71,333,234.88Z"/><path class="cls-10" d="M335.44,239.36s-15.12,35.25-10.39,60.57c4.09,21.92,19.58,17.3,21,9.83s-9.68-15.58-9.69-36.56,9.73-32.62,9.73-32.62Z"/><path class="cls-10" d="M363.42,213.14c10.71.7,9.58-18.78,18.15-24.64a127.48,127.48,0,0,0-7.52-10.74H362.78a178.54,178.54,0,0,0-8.57,19C355,203.51,357.14,212.73,363.42,213.14Z"/><path class="cls-5" d="M381.57,188.5c-8.57,5.86-7.44,25.34-18.15,24.64-6.28-.41-8.45-9.63-9.21-16.35-8.95,22.79-20.7,54.84-17.71,104l76.22,20S415.7,242.87,381.57,188.5Z"/><path class="cls-5" d="M382.05,213.16c6.12-.83,9.33,9.52,9.05,20.7s-14.33,1.85-14.33,1.85S374.37,214.19,382.05,213.16Z"/><path class="cls-9" d="M374.93,236.61c2.85-4.23,14.85-5,18-.81a8.12,8.12,0,0,1-.53,10c-2.42,2.48-12.82,3.63-16.76-.12A7.09,7.09,0,0,1,374.93,236.61Z"/><path class="cls-10" d="M377.77,247.07s-4.16,36.57-11.18,50.22c-4.32,8.39-14.55,14.59-9,22.78,4.74,7,20.82,4.66,27.44-10.09,7.42-16.52,6-49,4.15-62.91Z"/><path class="cls-6" d="M346.71,247.07s10.1,4.42,23.89,1.07c0,0,1.57,34-14.61,32.67C342.54,279.72,346.71,247.07,346.71,247.07Z"/><path class="cls-3" d="M302,401.22s-2.65-31.61,13.54-43.63c5.55-26.77,25.14-33.73,25.14-33.73"/><path class="cls-9" d="M262.11,388.14c2.45-7.35,31.81,4.84,37.36,9.71s-3,10.37-18.68,4.75S260.82,392,262.11,388.14Z"/><rect class="cls-1" x="353.65" y="243.38" width="5.14" height="123.15" transform="matrix(0.26, -0.97, 0.97, 0.26, -29.79, 571.21)"/><path class="cls-4" d="M420.66,313a3.88,3.88,0,0,1,5.43,1.91l12.39,34-7.32,4.93s-13.88-9.17-25.14-27.37a4.55,4.55,0,0,1,1.71-6.37Z"/><circle class="cls-6" cx="417.27" cy="325.35" r="1.92"/><path class="cls-10" d="M365.78,127.09c13.25-1.92,16,9.89,18.92,17.75s9.17,12.06,17.4,17.4c7,4.53,5.67,14.44-7.63,18.54-9.22,2.85-36.1,6.59-44.61-1.51-8.22-7.83-4.51-17.78-.72-26.48S354.9,128.67,365.78,127.09Z"/><ellipse cx="361.64" cy="157.29" rx="1.14" ry="2.77"/><ellipse cx="368.77" cy="157.29" rx="1.14" ry="2.77"/><path class="cls-9" d="M291.91,401.22c2.9-8.21,27.42,3.11,33.69,5.92s27.91,13.63,28.61,19.89S338.93,434,324,427,288.89,409.76,291.91,401.22Z"/></svg>