<svg xmlns="http://www.w3.org/2000/svg" viewBox="0 0 502.04 257.97"><defs><style>.cls-1{fill:#ffb829;}.cls-2{fill:#f99128;}.cls-3{fill:#ffc05a;}.cls-4{fill:#fff6eb;}.cls-5{fill:#ef5b2e;}</style></defs><title>MAIN02</title><g id="圖層_2" data-name="圖層 2"><g id="圖層_1-2" data-name="圖層 1"><path class="cls-1" d="M99.57,233.77c29.46,10.84,26.78,16.2,65.61,21.55s79.67,1.34,99.75-3.34,40.17-12,88.38-18.08S460.1,212.11,492.56,189c20.48-14.55,2.18-33.68-5.75-40.52-16.08-13.86-24.81-12.46-47.18-23.61-17.22-8.58-43.09-14.11-134.81-23.68-86.39-9-164.4,16.13-204.35,30.92S11.1,147.82,16.29,171.06c6.07,27.17-9.26,29.93-2,42.78C25.58,234,70.11,222.92,99.57,233.77Z"/><path d="M204.65,258a291.35,291.35,0,0,1-39.49-2.55c-25.91-3.57-33.18-7.07-44.18-12.35a218.41,218.41,0,0,0-21.45-9.21c-12-4.42-26.36-5.19-40.25-5.94-19.74-1.06-38.37-2.06-45.1-14-3.37-6-1.85-9.88.07-14.83,2.32-6,5.21-13.38,1.95-28-1.65-7.39,2-13,11.45-17.63,8.52-4.18,21.14-7.25,34.51-10.5,12.09-3,25.79-6.28,38.28-10.9a551.47,551.47,0,0,1,84.77-24.39c41.66-8.27,81.9-10.47,119.62-6.54,93.91,9.79,118.3,15.44,134.84,23.69a194.83,194.83,0,0,0,20.43,8.68c9.32,3.49,16.68,6.24,26.77,14.94,4.73,4.08,15.67,14.76,15.15,25.83-.26,5.61-3.43,10.61-9.4,14.85-15.05,10.7-37.09,20.67-63.75,28.84a462.07,462.07,0,0,1-75.55,16c-36.93,4.61-57.43,10-73.91,14.4-5,1.32-9.75,2.58-14.45,3.67C250.59,255.43,228.47,258,204.65,258ZM267.74,99.44a424.28,424.28,0,0,0-82.49,8.42,552.28,552.28,0,0,0-84.74,24.39c-12.5,4.62-26.21,8-38.3,10.9-13.36,3.25-26,6.32-34.48,10.49-9.36,4.6-13,10.13-11.34,17.4,3.28,14.66.38,22.11-2,28.1-2,5.08-3.4,8.76-.09,14.66,6.68,11.87,25.26,12.87,44.94,13.92,13.9.75,28.28,1.52,40.31,5.95a222.36,222.36,0,0,1,21.47,9.22c11,5.28,18.24,8.76,44.12,12.33,36.87,5.09,77.54,1.84,99.72-3.34,4.7-1.1,9.43-2.35,14.45-3.67,16.48-4.37,37-9.79,73.94-14.41a461.8,461.8,0,0,0,75.51-16c26.64-8.16,48.66-18.13,63.7-28.81,5.92-4.2,9.05-9.15,9.31-14.7.51-11-10.37-21.6-15.08-25.66-10.06-8.68-17.41-11.43-26.71-14.91A198.38,198.38,0,0,1,439.58,125c-16.51-8.24-40.89-13.88-134.77-23.67A358.22,358.22,0,0,0,267.74,99.44Z"/><path class="cls-2" d="M377.74,90.9c-.89.16,13-6.42,25-6.6a182.37,182.37,0,0,0,.59-19c-6,.93-18.17,3.07-24.33,5.92,0,0,11-12.88,23.86-15.53C400.13,20.29,387.41.1,387.41.1c-95.21,90-23,193-23,193C388,154.51,398.49,120.3,402,91.81,395.87,90.57,386.66,89.38,377.74,90.9Z"/><path d="M364.43,193.22a.09.09,0,0,1-.08,0,134.17,134.17,0,0,1-9.81-17.52,172.91,172.91,0,0,1-14.42-45.28,137.52,137.52,0,0,1,3.44-62.18C350.88,43.51,365.61,20.57,387.34,0a.11.11,0,0,1,.08,0,.08.08,0,0,1,.07.05,86,86,0,0,1,6.72,14.54A152.55,152.55,0,0,1,403,55.72a.1.1,0,0,1-.08.11C391.33,58.2,381.24,68.9,379.37,71c6.19-2.72,17.59-4.76,23.94-5.74a.08.08,0,0,1,.08,0,.09.09,0,0,1,0,.07,186.37,186.37,0,0,1-.59,19,.1.1,0,0,1-.1.09c-10.62.16-22.27,5.18-24.55,6.33,8.76-1.4,17.75-.25,23.8,1a.09.09,0,0,1,.08.11c-4,33.05-16.66,67.15-37.54,101.34C364.5,193.2,364.46,193.23,364.43,193.22Zm23-193c-21.65,20.49-36.34,43.37-43.64,68a137.36,137.36,0,0,0-3.44,62.08c5.87,35.25,22.75,60.59,24.12,62.6,20.8-34.09,33.39-68.09,37.42-101-6.13-1.24-15.26-2.39-24.09-.89h0a.12.12,0,0,1-.14,0,.11.11,0,0,1,0-.11,45.4,45.4,0,0,1,8.28-3.4,59.55,59.55,0,0,1,16.75-3.25,184.64,184.64,0,0,0,.58-18.75c-6.5,1-18.17,3.12-24.19,5.9a.1.1,0,0,1-.12,0,.11.11,0,0,1,0-.13c.11-.13,11.08-12.87,23.84-15.54a154.22,154.22,0,0,0-8.73-41A88.39,88.39,0,0,0,387.39.26Zm-9.67,90.55h0v.07h0l0-.07Z"/><path class="cls-1" d="M435.36,102a35.59,35.59,0,0,1,10.2,1.26c4.37-23,2-40.57,2-40.57-97.59,52.57-85.92,136-85.92,136,38.29-13.11,59.84-36.21,71.86-59.69-.55-6.45-1.93-17.31-5.28-24.4a59.69,59.69,0,0,1,11.41,10.35A135.59,135.59,0,0,0,444,110.53,84,84,0,0,0,435.36,102Z"/><path d="M361.64,198.75l-.06,0a.08.08,0,0,1,0-.07c0-.21-2.82-21.18,6.37-48.31a138.93,138.93,0,0,1,25-44.3c14-16.83,32.36-31.45,54.63-43.45h.09a.16.16,0,0,1,.06.08,141.5,141.5,0,0,1-2,40.59.08.08,0,0,1,0,.07.12.12,0,0,1-.08,0,36.86,36.86,0,0,0-9.92-1.26,85.8,85.8,0,0,1,8.44,8.37.1.1,0,0,1,0,.09,135,135,0,0,1-4.36,14.39.1.1,0,0,1-.07.07.12.12,0,0,1-.1,0,60,60,0,0,0-11.09-10.13c3.29,7.22,4.63,18.17,5.14,24.11a.13.13,0,0,1,0,.06c-14.47,28.25-38.67,48.35-71.92,59.73Zm85.84-135.9C425.29,74.82,407,89.4,393,106.18a138.85,138.85,0,0,0-25,44.23c-8.8,26-6.59,46.35-6.37,48.1,33.14-11.37,57.25-31.41,71.68-59.57-.52-6-1.89-17.17-5.27-24.34a.1.1,0,0,1,0-.12.1.1,0,0,1,.12,0,60.65,60.65,0,0,1,11.31,10.24,136,136,0,0,0,4.29-14.16,85.5,85.5,0,0,0-8.59-8.47.09.09,0,0,1,0-.11.1.1,0,0,1,.09-.07,36.23,36.23,0,0,1,10.12,1.23A141.86,141.86,0,0,0,447.48,62.85Z"/><path class="cls-2" d="M464.5,146.15a154.48,154.48,0,0,0,13.56-33.87c-100.65,21.12-107.21,83.43-107.21,83.43,35.06,7.08,59.61-6.58,76.27-24.78,0-5.88-.14-17.18-1.44-23.17a88.46,88.46,0,0,1,7.17,16.36,128,128,0,0,0,8.5-12.46c-1-4.56-2.79-10.48-5.64-14.43A47.81,47.81,0,0,1,464.5,146.15Z"/><path d="M389.11,197.7a91.88,91.88,0,0,1-18.28-1.9.08.08,0,0,1-.08-.1c0-.16,1.8-15.82,15.88-33.85a115.42,115.42,0,0,1,32.17-27.71c16.34-9.75,36.27-17.14,59.24-22a.14.14,0,0,1,.09,0,.17.17,0,0,1,0,.1,156.79,156.79,0,0,1-13.57,33.89.11.11,0,0,1-.09.05.12.12,0,0,1-.08,0,47.87,47.87,0,0,0-8.25-8.49c2.68,4,4.34,9.73,5.28,13.92a.09.09,0,0,1,0,.07,128.58,128.58,0,0,1-8.51,12.47.12.12,0,0,1-.1,0,.11.11,0,0,1-.07-.08,87.4,87.4,0,0,0-6.86-15.77c1.18,6.08,1.33,16.66,1.32,22.56a.07.07,0,0,1,0,.06c-9.31,10.17-19.83,17.54-31.27,21.9A74.59,74.59,0,0,1,389.11,197.7ZM371,195.63c16.17,3.25,31.28,2.27,44.89-2.92,11.4-4.35,21.89-11.69,31.17-21.82,0-6.11-.16-17.19-1.44-23.11a.11.11,0,0,1,.06-.11.09.09,0,0,1,.12,0,89.93,89.93,0,0,1,7.13,16.19,128.49,128.49,0,0,0,8.36-12.26c-1-4.36-2.75-10.38-5.62-14.35a.1.1,0,0,1,0-.13.09.09,0,0,1,.13,0,48.16,48.16,0,0,1,8.72,8.81,156.57,156.57,0,0,0,13.43-33.55c-22.88,4.82-42.73,12.19-59,21.9C405.84,142.1,395,151.41,386.79,162,373.3,179.25,371.12,194.32,371,195.63Z"/><path class="cls-2" d="M151.47,105.37c-2.77-3.16-15.49,1.41-22.14,11.3,0,0,8.42-16.85,3.77-25.53s-12.6,1.92-13.84,10.93c0,0,2.85-24.51-4.89-25.58s-10.19,17-8,26.06c0,0-6.69-11.82-11.37-8.44s4.43,18.29,4.43,18.29-10.53-5-6.87,6,17.42,22.74,28.11,19.38C145.81,138,157.26,112,151.47,105.37Z"/><path d="M116.74,138.43c-4,0-8.46-1.69-12.84-5-5.26-3.93-9.65-9.7-11.44-15.07-1.09-3.26-1-5.45.16-6.51,1.78-1.58,5.47-.18,6.55.28-1.27-2.1-8.72-14.9-4.24-18.14a3.23,3.23,0,0,1,2.68-.54c3.62.79,7.39,6.61,8.51,8.46-1.54-7.33-.24-19.25,3.82-23.74a4.89,4.89,0,0,1,4.45-1.81c6.47.89,5.68,17.52,5.17,23.55,1.36-5.55,5-11.4,8.7-12.07,1.91-.35,3.62.77,4.93,3.21,4,7.39-1.57,20.79-3.29,24.59,5-6.73,12.93-11.05,18-11.38,1.68-.11,2.92.24,3.59,1h0c2.22,2.52,2,7.81-.63,13.48a33.51,33.51,0,0,1-10.83,13,32.5,32.5,0,0,1-19.08,6h-.32A13.18,13.18,0,0,1,116.74,138.43ZM94.92,111.37a3.24,3.24,0,0,0-2.17.67c-1.13,1-1.16,3.12-.1,6.29,1.78,5.34,6.14,11.08,11.37,15,5.73,4.28,11.79,5.86,16.61,4.34h0a32.34,32.34,0,0,0,19.31-6,33.27,33.27,0,0,0,10.76-13c2.56-5.6,2.82-10.8.66-13.26-.63-.71-1.81-1-3.43-.93-5.3.34-13.69,5-18.55,12.23a.1.1,0,0,1-.13,0,.09.09,0,0,1,0-.13c.08-.17,8.35-16.91,3.77-25.44-1.28-2.4-2.86-3.44-4.71-3.12s-3.86,2.08-5.62,4.91a24.24,24.24,0,0,0-3.33,9.11s0,.08-.11.08a.09.09,0,0,1-.08-.11c0-.24,2.75-24.43-4.8-25.47a4.75,4.75,0,0,0-4.27,1.76c-4.14,4.57-5.37,17-3.64,24.18a.09.09,0,0,1-.06.11.1.1,0,0,1-.12,0c0-.08-4.58-8-8.7-8.91a3,3,0,0,0-2.52.5c-1.33,1-2.33,3.53.46,10.31a61.44,61.44,0,0,0,4,7.84.09.09,0,0,1,0,.12.09.09,0,0,1-.11,0A12.5,12.5,0,0,0,94.92,111.37Z"/><path d="M120.66,137.85h0a.09.09,0,0,1-.06-.06c-6.71-21.77-6.65-38.12-6.65-38.28h.2c0,5.6,1.27,20.75,6.6,38.09A58.05,58.05,0,0,0,135.61,125a26,26,0,0,0,3.73-5.77l.19.07c0,.1-3.9,9.42-18.82,18.55Z"/><path d="M120.66,137.85a.08.08,0,0,1-.07,0,127.3,127.3,0,0,1-16.89-27.06l.18-.08a127.63,127.63,0,0,0,16.65,26.76c-1.52-15,5.06-31.58,5.12-31.74l.19.07c-.07.17-6.72,17-5.08,32a.1.1,0,0,1-.06.1Z"/><path class="cls-2" d="M156.2,99.65s6.49-39.48,36.49-54.29c29.33-14.48,43-2.33,56.49-5.56s19.39-4.41,19.39-4.41,9.85,3.47,7,17.74S156.2,99.65,156.2,99.65Z"/><path d="M156.2,99.75a.09.09,0,0,1-.07,0,.1.1,0,0,1,0-.09,96,96,0,0,1,7-21.62c4.91-10.7,14-25.08,29.54-32.74,19.21-9.49,31.76-7.55,41.84-6,5.38.83,10,1.54,14.68.43,13.36-3.19,19.33-4.39,19.39-4.41h.05a11.52,11.52,0,0,1,4.61,3.55c1.94,2.43,3.93,6.89,2.44,14.3-1.2,6-21.66,15.61-60.82,28.69-29.15,9.73-58.31,17.82-58.61,17.9Zm64.88-61.57c-7.65,0-16.79,1.56-28.35,7.27-15.47,7.64-24.55,22-29.44,32.65a96.33,96.33,0,0,0-7,21.41c2.33-.65,30.4-8.5,58.45-17.86,26.87-9,59.21-21.21,60.68-28.54.82-4,1.06-9.78-2.39-14.13a11.41,11.41,0,0,0-4.5-3.48c-.46.09-6.47,1.31-19.36,4.39-4.69,1.13-9.35.41-14.75-.42A83.76,83.76,0,0,0,221.08,38.18Z"/><path class="cls-1" d="M268.57,35.39s7.5-4.51,19.91-5.65c0,0,1.69-3.38,6.59-6.25s8.45-1.36,10.31,1.85c0,0,5.08.25,3.72,5.54,0,0,4.06.53,3.38,4.51s-10.84,6.13-17.6,4.27c0,0-8.7,10-19.33,13.47C263.49,50.39,268.57,35.39,268.57,35.39Z"/><path d="M275.55,53.23h0a9.67,9.67,0,0,1-6.67-4.66c-3-5.35-.42-13.13-.39-13.21a.1.1,0,0,1,0,0,35.5,35.5,0,0,1,5.33-2.41,57.78,57.78,0,0,1,14.58-3.26A17.8,17.8,0,0,1,295,23.4c2.38-1.39,4.56-1.85,6.48-1.34a6.55,6.55,0,0,1,3.94,3.19,4.79,4.79,0,0,1,3.3,1.66,4.54,4.54,0,0,1,.49,3.88A4.61,4.61,0,0,1,312,32.41a3.75,3.75,0,0,1,.58,3,4.15,4.15,0,0,1-2.12,2.67c-3.59,2.29-10.55,3.05-15.55,1.7-.67.75-9.17,10.1-19.33,13.45Zm-6.9-17.77c-.19.57-2.47,7.92.39,13a9.46,9.46,0,0,0,6.5,4.56C286,49.57,294.72,39.7,294.8,39.6a.11.11,0,0,1,.11,0c4.86,1.33,11.94.58,15.45-1.66a4,4,0,0,0,2-2.53,3.61,3.61,0,0,0-.55-2.85A4.56,4.56,0,0,0,309.09,31a.09.09,0,0,1-.08-.12,4.44,4.44,0,0,0-.43-3.82,4.73,4.73,0,0,0-3.2-1.59.09.09,0,0,1-.08,0,6.36,6.36,0,0,0-3.85-3.14c-1.87-.5-4-.05-6.33,1.31a17.51,17.51,0,0,0-6.55,6.21s-.05.06-.08.06a57.49,57.49,0,0,0-14.58,3.24A36.4,36.4,0,0,0,268.65,35.46Z"/><path d="M294.21,32.2l-.16-.12c.06-.07,5.61-6.84,11.33-6.84v.2C299.75,25.44,294.26,32.14,294.21,32.2Z"/><path d="M298.3,35.49l0-.2c.08,0,7.61-1,10.76-4.48l.15.13C306,34.43,298.37,35.48,298.3,35.49Z"/><path class="cls-3" d="M83.87,157.28c-4.61-9.55,10.28-22,31.17-23.27s17.33,16.05,1.78,22.67C103.84,162.21,87.44,164.67,83.87,157.28Z"/><path d="M94.8,162c-5.3,0-9.43-1.38-11-4.66-1.35-2.8-1.09-5.94.76-9.08,2.08-3.56,6.1-6.92,11.3-9.48a51,51,0,0,1,19.2-4.85c8.11-.5,13.39,1.84,14.47,6.4,1.33,5.64-4.23,12.88-12.65,16.47C109.48,159.92,101.27,162,94.8,162Zm22.32-27.93q-1,0-2.07.06a50.79,50.79,0,0,0-19.12,4.83c-5.17,2.54-9.16,5.88-11.22,9.4-1.81,3.08-2.07,6.16-.75,8.89h0c3.47,7.19,19.5,5,32.82-.64,8.34-3.55,13.84-10.68,12.53-16.23C128.35,136.3,124,134.05,117.12,134.05Z"/><path class="cls-3" d="M104.14,178.49s-9.35-.46-9.79-12.07,12-52.18,45.83-62.59,23.09-30.65,72.64-46.9c46.79-15.35,91.47-3.12,114.43,30.7,0,0-1.52,26.7-7.3,30.7s-123.17,72.72-123.17,72.72S127.07,218.74,104.14,178.49Z"/><path d="M149.27,200.43a70.39,70.39,0,0,1-21-2.9c-10.81-3.4-18.94-9.77-24.18-18.95a10.77,10.77,0,0,1-4.73-1.69c-4-2.61-5-7.13-5.1-10.46-.25-6.34,3.2-19.63,10.08-31.8,6.2-11,17.44-25.24,35.82-30.9,15.38-4.73,21.39-11.35,28.35-19,8.1-8.92,17.29-19,44.29-27.89,22.93-7.52,45.82-8.58,66.21-3.08s37,17.18,48.33,33.82a.08.08,0,0,1,0,.07c-.06,1.09-1.58,26.79-7.34,30.78s-122,72-123.18,72.71A154.45,154.45,0,0,1,159.07,200C155.68,200.28,152.41,200.43,149.27,200.43Zm102.88-150A126.32,126.32,0,0,0,212.86,57c-27,8.84-36.12,18.93-44.21,27.83-6.69,7.37-13,14.32-28.44,19.07-18.32,5.64-29.53,19.87-35.71,30.81-5.12,9.06-10.38,23.24-10,31.69.12,3.28,1.09,7.73,5,10.3a10.76,10.76,0,0,0,4.69,1.67.09.09,0,0,1,.08.05c5.22,9.16,13.33,15.51,24.1,18.9,8.62,2.7,19,3.52,30.73,2.42A154.41,154.41,0,0,0,196.74,191c1.16-.68,117.44-68.74,123.15-72.7s7.19-29.5,7.26-30.59C315.87,71.07,299.21,59.41,279,53.94A102.73,102.73,0,0,0,252.15,50.48Z"/><path class="cls-1" d="M335.7,88.7c6.47-11.93,19.55-21.18,19.55-21.18a10.09,10.09,0,0,1,2.05-11.08c4.35-4.38,9.93-1.18,9.93-1.18s7-3,8.52,3.62c0,0,6.12,2.67,3.24,11.19-2.68,7.93-12.19,5.64-12.19,5.64s-4.16,22.39-10.17,33.67S331.75,96,335.7,88.7Z"/><path d="M352.3,112.38c-2,0-4.44-1.17-7-3.39a35.19,35.19,0,0,1-6.62-7.94c-3.21-5.2-4.38-10-3.05-12.4h0c6.17-11.37,18.49-20.43,19.51-21.17a10.24,10.24,0,0,1,2.11-11.11c4.15-4.18,9.47-1.51,10-1.22.42-.17,3.57-1.34,6-.1a5.29,5.29,0,0,1,2.61,3.76c.57.28,6,3.18,3.25,11.29-2.53,7.49-11.16,5.94-12.2,5.73-.15.79-1.17,6.09-2.82,12.51s-4.24,15.25-7.35,21.08a4.88,4.88,0,0,1-4.24,3ZM335.79,88.75h0c-1.3,2.38-.13,7.06,3,12.2,4.78,7.75,10.31,11.23,13.5,11.23h.13a4.69,4.69,0,0,0,4.08-2.85c3.1-5.82,5.7-14.65,7.33-21,1.77-6.92,2.82-12.55,2.83-12.6a.12.12,0,0,1,.05-.07.09.09,0,0,1,.07,0c.1,0,9.45,2.18,12.07-5.57,2.82-8.34-3.12-11-3.18-11.07a.11.11,0,0,1-.06-.07,5.08,5.08,0,0,0-2.53-3.67c-2.49-1.28-5.82.11-5.85.12a.09.09,0,0,1-.09,0c-.06,0-5.57-3.1-9.81,1.17-4.83,4.88-2.06,10.91-2,11a.1.1,0,0,1,0,.12c-.14.09-13.14,9.38-19.52,21.15Z"/><path d="M361.73,64.26l-.19-.05A17.92,17.92,0,0,1,365,57.15a9.18,9.18,0,0,1,2.17-2l.1.17S363.45,57.64,361.73,64.26Z"/><path d="M369.26,70.83l-.12-.16c5.83-4.34,6.5-11.73,6.51-11.8l.2,0C375.84,59,375.16,66.44,369.26,70.83Z"/><path class="cls-2" d="M190.45,189.37c-9.75-20.75,7.28-55,35.21-70.85s42.81-12.35,56.37-17.34S307.39,88.63,338.28,85c13.21-1.54,26.91,11.16,11.82,51.87-20.94,56.5-90.1,75.93-111.69,75.22S197.79,205,190.45,189.37Z"/><path d="M239.6,212.24l-1.19,0c-11.54-.38-21.41-2.33-29.36-5.79-8.93-3.88-15.21-9.61-18.7-17-4.65-9.92-3.38-23.53,3.49-37.34a81.08,81.08,0,0,1,31.77-33.64c18.62-10.57,31.55-12.56,41.93-14.15,5.33-.82,9.93-1.53,14.45-3.19,2.93-1.08,5.76-2.27,8.75-3.53,10.92-4.6,23.3-9.8,47.52-12.63a15,15,0,0,1,14,5.53c3.07,3.91,4.58,9.49,4.52,16.6-.08,8.21-2.31,18.26-6.61,29.88-11.41,30.75-36.56,49.12-55.66,59.11a159,159,0,0,1-32.49,12.66C253.49,211,245.41,212.24,239.6,212.24Zm-49.06-22.91c3.45,7.36,9.71,13.06,18.58,16.92,7.93,3.45,17.79,5.39,29.29,5.77l1.22,0c12.1,0,34.3-5.42,54.82-16.16,19.07-10,44.18-28.32,55.56-59,4.3-11.6,6.52-21.63,6.6-29.81.06-7.07-1.44-12.61-4.48-16.47a14.75,14.75,0,0,0-13.84-5.46c-24.2,2.82-36.56,8-47.47,12.61-3,1.26-5.83,2.45-8.76,3.53-4.54,1.68-9.15,2.38-14.48,3.2-10.38,1.6-23.29,3.58-41.87,14.14A80.89,80.89,0,0,0,194,152.15C187.17,165.92,185.91,179.47,190.54,189.33Z"/><path class="cls-3" d="M125,196.27c-.59-9.29,13.48-18.73,33.16-19.78s34.22,1.22,51.35,12.29-29.57,20-49.25,21S125.69,207.13,125,196.27Z"/><path d="M154,210.09c-7.54,0-13.76-.83-18.56-2.48-6.68-2.31-10.24-6.12-10.57-11.33h0c-.18-2.84,1-5.77,3.42-8.49,5.65-6.35,17.08-10.72,29.84-11.4,18.45-1,33.49.73,51.41,12.3,2.93,1.9,4.15,3.84,3.64,5.78-2.21,8.28-36.13,14.55-53,15.45Q157,210.09,154,210.09ZM125.1,196.27c.32,5.12,3.84,8.87,10.44,11.15,6,2.05,14.49,2.84,24.71,2.3,16.77-.9,50.59-7.11,52.77-15.3.49-1.85-.71-3.72-3.56-5.56-17.87-11.54-32.88-13.25-51.29-12.27-12.71.68-24.08,5-29.7,11.33-2.38,2.68-3.55,5.56-3.37,8.35Z"/><path d="M196.35,51.86l-.18-.08a4.35,4.35,0,0,1,4.61-2.39,3.26,3.26,0,0,1,1.55-1.75,3.84,3.84,0,0,1,3.13.07l-.07.18a3.67,3.67,0,0,0-3-.07,3.1,3.1,0,0,0-1.48,1.71.09.09,0,0,1-.11.07A4.14,4.14,0,0,0,196.35,51.86Z"/><path class="cls-3" d="M349.12,127.57s-1.42,20-13.88,32.2c-11.69,11.44-25,10.19-29.69,25.6S313,207.68,313,207.68s10.14,15.21,24.48,7.53c0,0,5.48,12.08,19.27,3.6,0,0,6.33,5.42,16,0,11.5-6.48,10-24.64,3.5-32.61-7.66-9.34-18.91-16.24-20.84-32.48s-1.1-26.15-1.1-26.15Z"/><path d="M347.64,221.93a10.81,10.81,0,0,1-3.17-.47,12.56,12.56,0,0,1-7-6.11,16.53,16.53,0,0,1-17.62-.94,27.17,27.17,0,0,1-6.88-6.65,18.9,18.9,0,0,1-5.49-5.4c-2.25-3.35-4.41-9-2-17,2.87-9.44,8.93-12.63,15.94-16.33,4.54-2.39,9.23-4.86,13.77-9.31,12.3-12,13.85-31.94,13.87-32.14a.09.09,0,0,1,.09-.09h5.15a.08.08,0,0,1,.07,0,.11.11,0,0,1,0,.08c0,.09-.8,10.08,1.1,26.13,1.45,12.23,8.21,19.15,14.74,25.84,2.16,2.21,4.2,4.3,6.07,6.58,4.07,5,6,13.42,4.64,20.58-.73,3.87-2.73,9.13-8.16,12.18-5,2.82-9.1,2.67-11.66,2.05a12,12,0,0,1-4.36-2A17.77,17.77,0,0,1,347.64,221.93Zm-10.16-6.82h0a.09.09,0,0,1,.06.06,12.4,12.4,0,0,0,7,6.1c3.56,1.09,7.65.23,12.17-2.55a.09.09,0,0,1,.11,0,11.49,11.49,0,0,0,4.34,2c2.53.62,6.57.76,11.51-2,5.36-3,7.34-8.22,8.06-12.05,1.33-7.1-.56-15.49-4.59-20.41-1.87-2.28-3.91-4.37-6.07-6.58-6.55-6.71-13.33-13.65-14.79-26a148.27,148.27,0,0,1-1.11-26.06h-4.94c-.13,1.5-2,20.51-13.91,32.17-4.57,4.47-9.27,6.95-13.83,9.35-7,3.67-13,6.84-15.83,16.21-2.41,7.92-.27,13.53,2,16.84a18.12,18.12,0,0,0,5.45,5.35l0,0a26.89,26.89,0,0,0,6.84,6.63,16.36,16.36,0,0,0,17.51.87Z"/><path class="cls-3" d="M351.77,127.57s-3,14.32-3,22.51"/><path d="M348.71,150.08c0-8.11,2.93-22.39,3-22.53l.2,0c0,.14-3,14.4-3,22.49Z"/><path class="cls-3" d="M348.43,155.36s.28,12.8,3.34,16.14"/><path d="M351.7,171.57c-3.05-3.33-3.36-15.68-3.37-16.2h.2c0,.13.31,12.8,3.31,16.07Z"/><path class="cls-3" d="M344.68,151.33s-4.32,10.16-12.8,16.14"/><path d="M331.94,167.55l-.12-.17c8.37-5.89,12.72-16,12.76-16.09l.19.08C344.72,151.47,340.35,161.62,331.94,167.55Z"/><path class="cls-3" d="M351.21,161.35s1,7,4,10.15"/><path d="M355.18,171.57c-3.05-3.19-4.06-10.14-4.06-10.21l.19,0c0,.07,1,7,4,10.1Z"/><path class="cls-3" d="M342.17,161.35a34,34,0,0,1-3.89,6.12"/><path d="M338.35,167.53l-.15-.13a33.07,33.07,0,0,0,3.88-6.1l.18.09A34.19,34.19,0,0,1,338.35,167.53Z"/><path class="cls-3" d="M343,180.13s-11.7,18.41-5.48,35.08"/><path d="M337.39,215.24c-3.23-8.63-1.56-17.74.4-23.85a54.5,54.5,0,0,1,5.09-11.32l.17.11A54.17,54.17,0,0,0,338,191.45c-2,6.09-3.61,15.14-.41,23.72Z"/><path class="cls-3" d="M356.92,178.49c3.75,7.9,11.2,31.14-.17,40.32"/><path d="M356.81,218.88l-.12-.15c6.11-4.93,6.48-13.9,5.72-20.55a68,68,0,0,0-5.58-19.65l.18-.09a68.26,68.26,0,0,1,5.6,19.72C363.71,207.77,361.7,214.94,356.81,218.88Z"/><path class="cls-3" d="M331.88,172.89c.55-.51-12.55,5.49-16.7,22.82"/><path d="M315.28,195.73l-.19,0A37.12,37.12,0,0,1,324.74,178c3.64-3.67,6.81-5.23,7.13-5.26l.12.07a.13.13,0,0,1,0,.14l-.06-.06V173a24.08,24.08,0,0,0-7,5.21A36.89,36.89,0,0,0,315.28,195.73Zm16.59-22.84h0Zm-.06-.07.06.06Z"/><path class="cls-3" d="M355.25,203s1.23,6.54-2.63,10.76"/><path d="M352.69,213.87l-.15-.13c3.79-4.14,2.62-10.62,2.61-10.68l.2,0C355.36,203.09,356.55,209.66,352.69,213.87Z"/><path class="cls-3" d="M352.62,203s.36,5-.85,6.88"/><path d="M351.85,210l-.16-.11c1.17-1.78.83-6.76.83-6.81l.2,0C352.73,203.24,353.06,208.13,351.85,210Z"/><path class="cls-3" d="M374.48,203s.25,6.17-2.77,8.23"/><path d="M371.76,211.35l-.11-.17c2.94-2,2.74-8.07,2.73-8.14h.2C374.59,203.29,374.79,209.29,371.76,211.35Z"/><path class="cls-3" d="M370.62,203.78s.84,4.42-.73,6.14"/><path d="M370,210l-.15-.13c1.52-1.66.71-6,.7-6l.2,0C370.75,203.94,371.55,208.25,370,210Z"/><path class="cls-3" d="M324.71,205.83s.12,2.74,1.69,4.09"/><path d="M326.34,210c-1.59-1.36-1.72-4-1.73-4.15h.2s.14,2.71,1.66,4Z"/><path class="cls-3" d="M327.25,206.85s.36,2.85,1.69,3.69"/><path d="M328.89,210.63c-1.35-.86-1.72-3.65-1.74-3.77l.2,0s.37,2.82,1.64,3.63Z"/><path class="cls-3" d="M142.63,128s6.62-9.63,18.55-10.17c0,0,7-21.57,37.28-31.77"/><path d="M142.71,128l-.17-.11c.07-.1,6.77-9.65,18.56-10.22a42.07,42.07,0,0,1,7.27-12c5.06-6.1,14.38-14.46,30.06-19.74l.06.19c-15.63,5.26-24.92,13.6-30,19.67a41,41,0,0,0-7.26,12,.11.11,0,0,1-.09.07C149.44,118.43,142.78,127.93,142.71,128Z"/><path class="cls-2" d="M.59,169.2c2.57-5.48,19.28-4,30,3.12,0,0-17.5-16-16-28.26s15.67-3.44,21.2,6.57c0,0-14.44-27.47-5.84-32.22s19.66,15.35,21.19,27c0,0,2.15-15.58,9.52-15s3.07,23.46,3.07,23.46,5.06-6.7,7.05,7.56-6.45,30.91-20.52,31.8C20.86,204.79-3.68,178.31.59,169.2Z"/><path d="M35.38,196.16A40.91,40.91,0,0,1,6.16,183.45c-5-5.33-7.24-10.94-5.66-14.3l.09,0-.09,0c.6-1.28,2-2.22,4-2.79,5.68-1.59,16.75,0,25.23,5.3-3.37-3.28-16.57-16.9-15.24-27.61.44-3.45,1.92-5.52,4.31-6,4.74-.92,11.8,4.53,15.87,10.56a112.63,112.63,0,0,1-5.12-12.29c-3.38-10-3.26-16,.35-18a6.13,6.13,0,0,1,6,.13c6.82,3.44,13.76,17,15.23,26.25A40.88,40.88,0,0,1,53,137.6c1.93-5,4.57-7.6,7.63-7.38a3.34,3.34,0,0,1,2.48,1.4c1.62,2.1,2.23,6.47,1.8,13a87.8,87.8,0,0,1-1.05,8.82c.49-.54,1.66-1.61,3-1.27,1.87.49,3.21,3.57,4,9.15a32.4,32.4,0,0,1-6.53,24.25c-3.82,4.67-8.68,7.32-14.07,7.67A40.34,40.34,0,0,1,35.38,196.16ZM9.5,166a19,19,0,0,0-4.95.58c-2,.55-3.3,1.48-3.87,2.69h0c-1.54,3.28.67,8.81,5.63,14.08,8.57,9.11,25.22,17.14,43.91,9.73h0c5.33-.34,10.15-3,13.93-7.6a32.12,32.12,0,0,0,6.49-24.09c-.53-3.78-1.62-8.41-3.84-9-1.58-.41-3,1.45-3,1.47a.09.09,0,0,1-.17-.08c0-.17,3.15-17.09-.65-22a3.17,3.17,0,0,0-2.33-1.32c-7.2-.53-9.4,14.8-9.42,15a.1.1,0,0,1-.1.08h0a.1.1,0,0,1-.1-.08c-1.22-9.26-8.28-23.26-15.21-26.76A6,6,0,0,0,30,118.5c-4.38,2.42-2.56,11-.26,17.77a116.1,116.1,0,0,0,6.13,14.32.1.1,0,1,1-.17.09,30.45,30.45,0,0,0-8-9.19c-3.35-2.53-6.49-3.67-8.84-3.22s-3.72,2.4-4.15,5.81c-1.51,12.09,15.77,28,15.94,28.17a.09.09,0,0,1,0,.13.09.09,0,0,1-.13,0A40.22,40.22,0,0,0,9.5,166Z"/><path d="M50.26,193.24h0c-21.62-4-30.36-13.17-30.45-13.26l.15-.14c.09.09,8.75,9.2,30.21,13.18-2-28.48-9.41-47.54-9.48-47.73l.19-.08c.07.19,7.53,19.34,9.5,47.92a.11.11,0,0,1,0,.08A.09.09,0,0,1,50.26,193.24Z"/><path d="M50.26,193.24h0a.11.11,0,0,1-.1-.07c-4.86-18.38-20.26-35.08-20.42-35.25l.15-.13c.15.16,15.41,16.71,20.38,35a160.18,160.18,0,0,0,7.47-39h.2c0,.2-1,20.15-7.58,39.38A.12.12,0,0,1,50.26,193.24Z"/><path class="cls-4" d="M196.26,107.64s3.17-3.15,9.17-2.52A8.88,8.88,0,0,1,196.26,107.64Z"/><path d="M198.88,108.09a10.79,10.79,0,0,1-2.64-.35.1.1,0,0,1-.05-.17,8.7,8.7,0,0,1,2.36-1.52,13.11,13.11,0,0,1,6.89-1,.11.11,0,0,1,.08.07.12.12,0,0,1,0,.1A8.87,8.87,0,0,1,198.88,108.09Zm-2.41-.5a8.91,8.91,0,0,0,8.76-2.39,12.85,12.85,0,0,0-6.58,1A9,9,0,0,0,196.47,107.59Z"/><path class="cls-4" d="M199.2,97.89s1.88,4.23,8.58,3.17A13.22,13.22,0,0,0,199.2,97.89Z"/><path d="M205.74,101.33c-5.06,0-6.62-3.36-6.63-3.4a.12.12,0,0,1,0-.1.13.13,0,0,1,.09,0h.26a13.52,13.52,0,0,1,8.39,3.2.11.11,0,0,1,0,.1.1.1,0,0,1-.08.07A12.76,12.76,0,0,1,205.74,101.33ZM199.36,98c.4.7,2.51,3.82,8.19,3a13.22,13.22,0,0,0-8.09-3Z"/><path class="cls-4" d="M210.25,102.94a10.37,10.37,0,0,0-1.3,8.11A10.17,10.17,0,0,0,210.25,102.94Z"/><path d="M209,111.15h0a.12.12,0,0,1-.07-.07,10.58,10.58,0,0,1,1.3-8.2.14.14,0,0,1,.1,0,.11.11,0,0,1,.08.07,10.41,10.41,0,0,1-1.3,8.2A.1.1,0,0,1,209,111.15Zm1.26-8A10.36,10.36,0,0,0,209,110.8,10.21,10.21,0,0,0,210.21,103.18Z"/><path d="M205.47,105.22l-.08-.19s4.85-2.24,9.6-8.41l.15.12A29.26,29.26,0,0,1,205.47,105.22Z"/><path d="M210.34,103l-.19-.06.47-1.46c-.92.37-2.79-.27-2.88-.29l.07-.19s2.21.76,2.92.18a.13.13,0,0,1,.12,0,.09.09,0,0,1,0,.11Z"/><path class="cls-4" d="M218.52,66.49a8.67,8.67,0,0,1,7-6.43S224.44,64.77,218.52,66.49Z"/><path d="M218.52,66.59a.07.07,0,0,1-.06,0,.11.11,0,0,1,0-.09A8.81,8.81,0,0,1,225.49,60a.09.09,0,0,1,.09,0,.1.1,0,0,1,0,.1s-1.15,4.78-7.06,6.5Zm6.85-6.39a8.63,8.63,0,0,0-6.71,6.15A9.73,9.73,0,0,0,225.37,60.2Z"/><path class="cls-4" d="M216.14,69.35s1.15,4.53,5,6.17C221.15,75.52,221,71.66,216.14,69.35Z"/><path d="M221.15,75.62h0c-3.87-1.64-5.07-6.19-5.08-6.23a.09.09,0,0,1,0-.1.11.11,0,0,1,.11,0,9.18,9.18,0,0,1,4.37,4,5.87,5.87,0,0,1,.7,2.26.07.07,0,0,1,0,.08Zm-4.85-6.08c.28.9,1.56,4.37,4.74,5.82a6.43,6.43,0,0,0-.67-2A8.93,8.93,0,0,0,216.3,69.54Z"/><path class="cls-4" d="M215.06,62.69a9.23,9.23,0,0,0-4.81,7.4S215.3,67.55,215.06,62.69Z"/><path d="M210.25,70.19h-.06a.1.1,0,0,1,0-.1,9.23,9.23,0,0,1,4.91-7.49h0a.11.11,0,0,1,.1.1h0c.25,4.86-4.82,7.47-4.87,7.49ZM215,62.83a9.27,9.27,0,0,0-4.6,7.08C211.22,69.43,215.09,67,215,62.83Z"/><path class="cls-4" d="M219,70.09c-.4-.26,6.08-1.8,9.29,1.07A10.46,10.46,0,0,1,219,70.09Z"/><path d="M224.68,71.88a10.26,10.26,0,0,1-5.72-1.7h0a.14.14,0,0,1-.06-.13c0-.08.09-.14.29-.22,1.16-.44,6.39-1.25,9.18,1.26a.11.11,0,0,1,0,.09.16.16,0,0,1-.06.08A10.7,10.7,0,0,1,224.68,71.88Zm-5.53-1.82a10.48,10.48,0,0,0,9,1.07c-1.85-1.56-4.65-1.65-6.18-1.56A9.26,9.26,0,0,0,219.15,70.06Z"/><path class="cls-3" d="M203.89,71a25.3,25.3,0,0,0,14.63-4.51"/><path d="M204.33,71.1h-.44v-.2h.44a25.49,25.49,0,0,0,14.13-4.48l.12.15A25.61,25.61,0,0,1,204.33,71.1Z"/><path class="cls-3" d="M216.14,69.35s-.59-.87-2.7-.13"/><path d="M216.05,69.41s-.58-.79-2.58-.1l-.07-.19c2.16-.75,2.79.14,2.82.18l-.17.11.09-.06Z"/><path class="cls-3" d="M219,70.09a8.73,8.73,0,0,0-4.48-1.34"/><path d="M219,70.18a8.6,8.6,0,0,0-4.31-1.33h-.1v-.2h.11A9,9,0,0,1,219.07,70Z"/><path class="cls-5" d="M71.07,201.41S95,204.29,95,196.62c0-3.33-6.15-3.54-9.81-1.54,0,0,7.16-3.5,8.66-9.33s-5.52-9.72-11.55.31c0,0,1-29-9.83-27.33-7.55,1.19-4.29,17.81-2.45,23.69-1.84-5.88-8.86-18.17-14.73-14.77C48.79,171.4,63,190.08,63,190.08S47.27,179.43,43.83,187C40.6,194,57,202.91,71.07,201.41Z"/><path d="M80.49,202a89.27,89.27,0,0,1-9.42-.53,36,36,0,0,1-15.7-2.06c-4.87-1.75-8.77-4.3-10.71-7-1.38-1.92-1.7-3.84-.92-5.55a4.42,4.42,0,0,1,2.92-2.51c2.39-.67,5.88.07,10.37,2.2a53.11,53.11,0,0,1,5.56,3.09c-.79-1.07-2.85-4-4.8-7.28-3.32-5.67-4.73-9.86-4.21-12.47a3.36,3.36,0,0,1,1.64-2.38,4.45,4.45,0,0,1,4-.23c2.7,1,5.13,4.12,6.7,6.51a39.31,39.31,0,0,1,3.35,6.31c-1.3-5.21-2.9-14.83-.16-19.25a4.64,4.64,0,0,1,3.32-2.27,5.15,5.15,0,0,1,4.38,1.29c2.6,2.3,4.33,7.4,5.13,15.16a90.08,90.08,0,0,1,.44,10.61c3.45-5.54,7-6.54,9.29-5.6,2,.83,2.9,3.17,2.26,5.68-1.07,4.15-5,7.15-7.22,8.54,2.5-.84,5.43-.83,7.05.14a2.46,2.46,0,0,1,1.32,2.17,3.46,3.46,0,0,1-1.27,2.67c-2,1.82-6.5,2.74-13.23,2.75Zm-9.42-.73h0c.18,0,17.8,2.09,22.6-2.17a3.28,3.28,0,0,0,1.2-2.52,2.23,2.23,0,0,0-1.22-2c-1.86-1.11-5.54-.91-8.17.41l-.28.14a.1.1,0,0,1-.13,0,.1.1,0,0,1,0-.14l.27-.14c1.33-.71,7-4,8.34-9.13.63-2.41-.26-4.66-2.14-5.44-3.38-1.42-7.08,2.26-9.23,5.84a.09.09,0,0,1-.11,0,.08.08,0,0,1-.07-.1,91.74,91.74,0,0,0-.44-11c-.79-7.6-2.54-12.8-5.06-15a5,5,0,0,0-4.22-1.24A4.46,4.46,0,0,0,69.28,161c-3.19,5.15-.41,17.48.82,21.39v0a.1.1,0,0,1-.19,0,36.5,36.5,0,0,0-4.16-8.5c-1.55-2.37-4-5.4-6.6-6.43a4.25,4.25,0,0,0-3.83.22A3.17,3.17,0,0,0,53.78,170c-1.23,6.11,9.2,19.9,9.3,20a.09.09,0,0,1,0,.13.11.11,0,0,1-.13,0c-.11-.08-10.64-7.14-16.23-5.57a4.18,4.18,0,0,0-2.8,2.4c-.75,1.64-.44,3.48.9,5.34,3.72,5.17,15.41,10.13,26.24,9Z"/><path d="M71.07,201.51h0a.1.1,0,0,1-.08-.09c-.68-11.32-7.62-20.75-7.69-20.84l.16-.12c.07.09,6.85,9.3,7.7,20.47a60,60,0,0,0,2.92-26.42l.2,0a60.24,60.24,0,0,1-3.1,27A.09.09,0,0,1,71.07,201.51Z"/><path d="M71.07,201.51a.11.11,0,0,1-.08,0c-5.57-6.23-14.24-7.2-14.33-7.21l0-.2c.08,0,8.74,1,14.37,7.19a51.85,51.85,0,0,1,12.65-11.77l.1.17a51.58,51.58,0,0,0-12.66,11.81A.1.1,0,0,1,71.07,201.51Z"/><path d="M71.12,201.5l-.1-.17c4.76-2.89,11.47-2.94,11.54-2.94v.2C82.5,198.59,75.83,198.64,71.12,201.5Z"/><path class="cls-3" d="M143.26,194.87s1.27-2.86,5.11-1.75a4.38,4.38,0,0,1,5.63-2.85"/><path d="M143.35,194.91l-.19-.08a3.76,3.76,0,0,1,1.16-1.33,4.48,4.48,0,0,1,4-.5,4.46,4.46,0,0,1,5.72-2.83l-.05.19a4.31,4.31,0,0,0-5.5,2.79.15.15,0,0,1-.05.06.11.11,0,0,1-.08,0C144.64,192.15,143.4,194.8,143.35,194.91Z"/><path class="cls-4" d="M131.83,139.5A11.59,11.59,0,0,1,142.2,138,10.13,10.13,0,0,1,131.83,139.5Z"/><path d="M135.77,140.38a10.73,10.73,0,0,1-4-.79.09.09,0,0,1-.06-.07.12.12,0,0,1,0-.1,11.83,11.83,0,0,1,10.47-1.54.08.08,0,0,1,.07.07.08.08,0,0,1,0,.09A10.27,10.27,0,0,1,135.77,140.38Zm-3.74-.91A10.14,10.14,0,0,0,142,138,11.64,11.64,0,0,0,132,139.47Z"/><path class="cls-4" d="M130.85,143.71c-.82-.08,2.36,4.59,7.36,4.21C138.21,147.92,136.59,144.3,130.85,143.71Z"/><path d="M137.62,148a8.47,8.47,0,0,1-6.78-3.64c-.2-.34-.26-.57-.18-.7a.19.19,0,0,1,.2-.09,10.37,10.37,0,0,1,5.89,2.35,5.93,5.93,0,0,1,1.55,1.92.08.08,0,0,1,0,.09.14.14,0,0,1-.08.05Zm-6.79-4.23h0s0,.19.25.58a8.21,8.21,0,0,0,7,3.44,6.33,6.33,0,0,0-1.44-1.73,10.15,10.15,0,0,0-5.77-2.29Z"/><path class="cls-3" d="M123.2,143s4.75-3.11,8.63-3.47"/><path d="M123.26,143.06l-.11-.17s4.81-3.13,8.67-3.49l0,.2C128,140,123.3,143,123.26,143.06Z"/><path class="cls-3" d="M130.85,143.71a9.49,9.49,0,0,0-4.51-2.47"/><path d="M130.78,143.78a9.5,9.5,0,0,0-4.47-2.44l0-.2a9.84,9.84,0,0,1,4.56,2.5Z"/><path class="cls-4" d="M152.21,143s-1.23,5,1.63,7.2C153.84,150.17,155.07,145.73,152.21,143Z"/><path d="M153.84,150.27l-.06,0a5.66,5.66,0,0,1-1.93-4.49,11.78,11.78,0,0,1,.26-2.81.1.1,0,0,1,.07-.07.12.12,0,0,1,.1,0c2.87,2.77,1.67,7.25,1.66,7.29a.08.08,0,0,1-.07.07Zm-1.57-7.1c-.18.89-.82,4.89,1.51,6.82C154,149.22,154.61,145.58,152.27,143.17Z"/><path class="cls-3" d="M162,142.47a3.38,3.38,0,0,1,4.23-1.23,3.44,3.44,0,0,1,4.77-2.4"/><path d="M162.11,142.53l-.17-.11a3.51,3.51,0,0,1,4.24-1.32,4.07,4.07,0,0,1,1.8-2.31,3.7,3.7,0,0,1,3.07,0l-.07.18a3.52,3.52,0,0,0-2.91,0,4,4,0,0,0-1.73,2.29s0,.05-.05.07h-.08A3.27,3.27,0,0,0,162.11,142.53Z"/><path class="cls-4" d="M247.21,74.11A16.42,16.42,0,0,0,260,77.27S255.85,73,247.21,74.11Z"/><path d="M257.32,77.56a16.32,16.32,0,0,1-10.18-3.37.11.11,0,0,1,0-.11.13.13,0,0,1,.09-.07c8.59-1.16,12.83,3.15,12.87,3.19a.09.09,0,0,1,0,.1.1.1,0,0,1-.08.07A19.55,19.55,0,0,1,257.32,77.56Zm-9.87-3.38a16.67,16.67,0,0,0,12.33,3C259,76.48,254.91,73.26,247.45,74.18Z"/><path class="cls-4" d="M263.49,90.72s6.64,0,9.46-7.31C273,83.41,266,85.57,263.49,90.72Z"/><path d="M263.49,90.82a.11.11,0,0,1-.09,0,.07.07,0,0,1,0-.09,14,14,0,0,1,5.7-5.63,20.44,20.44,0,0,1,3.82-1.73.1.1,0,0,1,.13.13,11.21,11.21,0,0,1-5.85,6.45A10,10,0,0,1,263.49,90.82Zm9.29-7.24c-1.15.39-6.87,2.57-9.13,7A10.72,10.72,0,0,0,272.78,83.58Z"/><path class="cls-4" d="M233.92,140.51s0-5.28,5.82-8.27A10.28,10.28,0,0,1,233.92,140.51Z"/><path d="M233.92,140.6h0a.1.1,0,0,1-.05-.08,10.15,10.15,0,0,1,5.87-8.36.09.09,0,0,1,.1,0,.07.07,0,0,1,0,.08,10.41,10.41,0,0,1-5.86,8.35Zm5.7-8.19a10,10,0,0,0-5.59,7.93A10.27,10.27,0,0,0,239.62,132.41Z"/><path class="cls-4" d="M231.26,144.37s3.62,3.68,9.65,1A12.74,12.74,0,0,0,231.26,144.37Z"/><path d="M236.64,146.44a8.15,8.15,0,0,1-5.45-2,.12.12,0,0,1,0-.1.1.1,0,0,1,.07-.07,12.91,12.91,0,0,1,9.72,1,.11.11,0,0,1,0,.09.1.1,0,0,1-.06.08A10.53,10.53,0,0,1,236.64,146.44Zm-5.17-2c.68.6,4.05,3.15,9.21.94A12.88,12.88,0,0,0,231.47,144.41Z"/><path class="cls-4" d="M232.43,132.24s-5.41,3.15-4.15,8.27C228.28,140.51,232.2,138.93,232.43,132.24Z"/><path d="M228.28,140.6h-.05s0,0,0-.06c-1.26-5.13,4.14-8.34,4.2-8.38a.12.12,0,0,1,.1,0,.09.09,0,0,1,.05.08c-.23,6.68-4.18,8.34-4.22,8.36Zm4-8.17c-.87.56-5,3.51-4,7.93C229,140.05,232.06,138.2,232.32,132.43Z"/><path d="M221.54,151.89l-.11-.17a45.31,45.31,0,0,0,12.41-11.27l.16.11A45.27,45.27,0,0,1,221.54,151.89Z"/><path d="M227.11,147.64a11,11,0,0,1,1.08-7.19l.17.11a10.75,10.75,0,0,0-1.05,7.05Z"/><path class="cls-4" d="M261.94,142.47s3.31-6.26,8.06-7.08C270,135.39,271,140.47,261.94,142.47Z"/><path d="M261.94,142.57a.11.11,0,0,1-.08,0,.11.11,0,0,1,0-.11,20,20,0,0,1,2.26-3.25c1.31-1.54,3.39-3.46,5.87-3.89a.1.1,0,0,1,.12.08s.94,5.2-8.14,7.2Zm8-7.07c-2.38.46-4.38,2.32-5.65,3.81a19.62,19.62,0,0,0-2.12,3c4.49-1,6.36-2.84,7.15-4.19A4.4,4.4,0,0,0,269.91,135.5Z"/><path class="cls-4" d="M266,144.06s7.12,3.95,11.87,1.1C277.86,145.16,273.21,142.15,266,144.06Z"/><path d="M273.78,146.29a18.71,18.71,0,0,1-7.84-2.14.09.09,0,0,1-.05-.1A.08.08,0,0,1,266,144c7.19-1.91,11.91,1.08,12,1.11a.13.13,0,0,1,0,.09.1.1,0,0,1,0,.08A7.91,7.91,0,0,1,273.78,146.29Zm-7.52-2.19c1.24.62,7.24,3.41,11.4,1.06A15.8,15.8,0,0,0,266.26,144.1Z"/><path d="M266,144.16c-5-.08-10.24-2.81-10.29-2.84l.1-.17c.05,0,5.2,2.73,10.2,2.82Z"/><path d="M259.08,126.56h-.2a3.14,3.14,0,0,1,.95-2.09,4.86,4.86,0,0,1,3.62-1.14,4.19,4.19,0,0,1,4.83-2l0,.2a3.85,3.85,0,0,0-3.54.68,4.39,4.39,0,0,0-1.09,1.31.1.1,0,0,1-.09.06h-.22a4.59,4.59,0,0,0-3.32,1.08A3,3,0,0,0,259.08,126.56Z"/><path class="cls-4" d="M275.81,130.77a8.67,8.67,0,0,0,8.85.65A11.14,11.14,0,0,0,275.81,130.77Z"/><path d="M280.75,132.42a8.7,8.7,0,0,1-5-1.57.13.13,0,0,1,0-.1.13.13,0,0,1,.07-.08,11.37,11.37,0,0,1,8.93.66.11.11,0,0,1,.05.09.1.1,0,0,1-.06.09A9.24,9.24,0,0,1,280.75,132.42ZM276,130.8a8.66,8.66,0,0,0,8.41.61A11.23,11.23,0,0,0,276,130.8Z"/><path class="cls-3" d="M225.66,186.69a4.35,4.35,0,0,1,4.69-2.55,3.25,3.25,0,0,1,3.57-3.18"/><path d="M225.75,186.73l-.18-.07a4,4,0,0,1,1-1.43,4.66,4.66,0,0,1,3.7-1.19,3.69,3.69,0,0,1,.45-1.54,3.38,3.38,0,0,1,3.21-1.64v.2a3.13,3.13,0,0,0-3.47,3.08.11.11,0,0,1,0,.08.11.11,0,0,1-.08,0A4.28,4.28,0,0,0,225.75,186.73Z"/><path class="cls-4" d="M243.55,59.25s1.86,3,7,3.44C250.51,62.69,247.11,58.32,243.55,59.25Z"/><path d="M250.51,62.79h0a10.54,10.54,0,0,1-5.45-1.9,6.47,6.47,0,0,1-1.59-1.59.1.1,0,0,1,0-.09.11.11,0,0,1,.07-.06,5.78,5.78,0,0,1,4.9,1.39,13.18,13.18,0,0,1,2.16,2.09.09.09,0,0,1,0,.11A.11.11,0,0,1,250.51,62.79Zm-6.79-3.48a9.11,9.11,0,0,0,6.56,3.26C249.6,61.77,246.7,58.65,243.72,59.31Z"/><path class="cls-3" d="M114.85,131.82s.48-2.84,3-2.84c0,0,.79-3.44,4.1-3.38"/><path d="M115,131.83l-.19,0s.5-2.86,3-2.92c.15-.51,1.09-3.38,4.09-3.38H122v.2c-3.18-.07-4,3.27-4,3.3a.1.1,0,0,1-.1.08C115.44,129.08,115,131.81,115,131.83Z"/><polygon points="260.53 143.22 260.45 143.03 261.9 142.38 261.98 142.57 260.53 143.22"/><path class="cls-3" d="M260.34,222.89a12.41,12.41,0,0,0,7,4.09"/><path d="M267.32,227.08c-4.12-.58-7-4.09-7.05-4.12l.15-.13s2.88,3.49,6.93,4Z"/><path class="cls-5" d="M323.14,188.78a37.36,37.36,0,0,1-11.91,30c-13.85,13-56.48,23-69.71-9.76Z"/><path d="M276,231.15a45.91,45.91,0,0,1-9.82-1c-11.64-2.57-20.19-9.85-24.73-21.08a.08.08,0,0,1,0-.08.12.12,0,0,1,.06-.06l81.63-20.23a.11.11,0,0,1,.08,0,.13.13,0,0,1,0,.07,33.26,33.26,0,0,1-.67,10.07,38,38,0,0,1-11.27,20C304.18,225.52,289.92,231.15,276,231.15Zm-34.32-22.07c4.52,11.1,13,18.31,24.54,20.85,16.52,3.63,36.2-3,45-11.24a37.67,37.67,0,0,0,11.21-19.89,34.08,34.08,0,0,0,.69-9.9Z"/><path class="cls-5" d="M272.26,181.8c13.87-4.42,39.45-5.46,49.08,3.45s-21.63,23.45-39.08,28.18-45,4.57-41-10.18C243.64,194.69,257,186.66,272.26,181.8Z"/><path d="M261.61,216.28H260.1c-5.69-.14-13.27-1.09-17.05-4.88-2.12-2.12-2.74-4.87-1.84-8.16,2.14-7.87,14-16.12,31-21.53l0,.1,0-.1c14.1-4.49,39.64-5.34,49.18,3.48a4.87,4.87,0,0,1,1.68,5c-2.08,8.49-25.45,19.21-40.81,23.36A81.58,81.58,0,0,1,261.61,216.28Zm34.1-37.69a81.72,81.72,0,0,0-23.42,3.3c-16.93,5.39-28.76,13.59-30.89,21.39-.88,3.22-.28,5.9,1.79,8s6.67,4.58,16.91,4.82a80.87,80.87,0,0,0,22.13-2.74,132.71,132.71,0,0,0,25-9.88c6.49-3.4,14.47-8.48,15.67-13.34a4.7,4.7,0,0,0-1.63-4.79C316.06,180.5,306,178.59,295.71,178.59Z"/><path class="cls-3" d="M273.11,193.59s-20.1-2.17-21.7,3.2S273.11,193.59,273.11,193.59Z"/><path d="M253.88,198.65a3.45,3.45,0,0,1-2.3-.57,1.2,1.2,0,0,1-.26-1.32c1.6-5.39,21-3.36,21.8-3.27a.11.11,0,0,1,.09.09.1.1,0,0,1-.07.1C272.49,193.92,259.55,198.65,253.88,198.65Zm10.61-5.39h-1.63c-6.79.17-10.71,1.4-11.35,3.54a1,1,0,0,0,.2,1.13c2.36,2.22,18.17-3.3,21-4.3C271.49,193.53,268.16,193.26,264.49,193.26Z"/><path class="cls-3" d="M274.82,195.85s-16.8,5.68-16.89,12.63a1.16,1.16,0,0,0,1.26,1.13C266.5,209.05,274.82,195.85,274.82,195.85Z"/><path d="M259.1,209.72a1.3,1.3,0,0,1-.88-.35,1.22,1.22,0,0,1-.39-.89c0-2.92,2.91-5.95,8.53-9a61.14,61.14,0,0,1,8.43-3.71.09.09,0,0,1,.11,0,.13.13,0,0,1,0,.12,59.83,59.83,0,0,1-5.09,6.68c-2.74,3.09-6.82,6.83-10.62,7.12Zm15.48-13.67c-2.18.77-16.47,6.11-16.55,12.43a1,1,0,0,0,.32.74,1.08,1.08,0,0,0,.83.29c3.74-.28,7.77-4,10.49-7A60.14,60.14,0,0,0,274.58,196.05Z"/><path class="cls-3" d="M278.13,197.33s-6.3,7.84-4.22,12.33a1.49,1.49,0,0,0,2.37.45C279.38,207.09,278.13,197.33,278.13,197.33Z"/><path d="M275.27,210.62a1.53,1.53,0,0,1-.3,0,1.61,1.61,0,0,1-1.15-.89c-.88-1.89-.43-4.56,1.33-7.93a32.36,32.36,0,0,1,2.9-4.5.11.11,0,0,1,.11,0,.1.1,0,0,1,.07.08c0,.4,1.22,9.84-1.88,12.86A1.54,1.54,0,0,1,275.27,210.62Zm2.79-13c-.94,1.23-5.91,8-4.06,12a1.38,1.38,0,0,0,2.21.43C279,207.35,278.22,199.11,278.06,197.59Z"/><path class="cls-3" d="M287.49,193.15c6.73-4.37,26.38-8.65,26.5-4.37C314.09,192.45,293.77,193.7,287.49,193.15Z"/><path d="M291.07,193.38c-1.42,0-2.65,0-3.58-.13a.09.09,0,0,1-.09-.07.09.09,0,0,1,0-.11c2.81-1.83,8-3.75,13.61-5,5.79-1.3,10.32-1.52,12.12-.57a1.46,1.46,0,0,1,.91,1.28,1.35,1.35,0,0,1-.51,1C311,192.26,298.46,193.38,291.07,193.38Zm-3.27-.3c6,.44,22.64-.58,25.64-3.41a1.26,1.26,0,0,0,.45-.89,1.32,1.32,0,0,0-.81-1.12C309.27,185.66,293.7,189.42,287.8,193.08Z"/><path class="cls-3" d="M283.27,196.33s3.35,6.88,9.25,6.53a1.63,1.63,0,0,0,1.2-2.64C290.67,196.33,283.27,196.33,283.27,196.33Z"/><path d="M292.09,203c-5.63,0-8.88-6.54-8.91-6.61a.1.1,0,0,1,0-.09.12.12,0,0,1,.09-.05c.07,0,7.48,0,10.53,3.93a1.7,1.7,0,0,1,.22,1.77,1.73,1.73,0,0,1-1.5,1Zm-8.65-6.55c.51,1,3.61,6.34,8.65,6.35l.42,0a1.54,1.54,0,0,0,1.13-2.48c-1.56-2-4.29-2.93-6.31-3.37A23.17,23.17,0,0,0,283.44,196.43Z"/><path class="cls-3" d="M284,191.05c3.07.35,10.17-5.9,8-7.9S283.74,188,284,191.05Z"/><path d="M284.24,191.16H284a.11.11,0,0,1-.08-.1c-.19-2.38,3.33-6.82,5.85-8a2,2,0,0,1,2.37.06c.52.48.56,1.24.12,2.19C291.07,187.73,286.73,191.16,284.24,191.16Zm-.17-.2h.17c2.38,0,6.69-3.41,7.8-5.78.4-.87.38-1.53-.08-2a1.9,1.9,0,0,0-2.14,0C287.16,184.47,284,188.77,284.07,191Z"/><path class="cls-3" d="M279,190.14c1.45-1,3.2-6.48,1.34-6.91C278.14,182.73,277.63,189,279,190.14Z"/><path d="M279,190.24l-.06,0c-.9-.75-1.15-4.06-.17-6.05.41-.82,1-1.17,1.59-1a1.15,1.15,0,0,1,.83,1c.36,1.81-1,5.27-2.13,6.07A.07.07,0,0,1,279,190.24Zm1.1-6.93c-.55,0-.92.5-1.15.95-.84,1.71-.8,4.91.06,5.75a8.3,8.3,0,0,0,2-5.82c-.1-.49-.32-.78-.67-.86A.86.86,0,0,0,280.09,183.31Z"/><path class="cls-3" d="M268.37,187.81c1.07-1.6,7,1,7.56,3.39C273.31,191.42,267,189.85,268.37,187.81Z"/><path d="M275.41,191.32c-2.22,0-6.3-.93-7.17-2.38a1,1,0,0,1,.05-1.18c.33-.49,1.07-.65,2.15-.46,2.74.49,5.26,2.48,5.59,3.87a.08.08,0,0,1,0,.08s0,0-.07.05Zm-5.77-3.9a1.32,1.32,0,0,0-1.18.45h0a.83.83,0,0,0,0,1c.81,1.38,5.2,2.42,7.38,2.27-.48-1.56-3.3-3.23-5.4-3.61A4.29,4.29,0,0,0,269.64,187.42Z"/><path d="M267.74,225a5.52,5.52,0,0,1-3.35-2.09l.16-.11a5.55,5.55,0,0,0,3.22,2Z"/><path d="M304.34,215.62l-.12-.16c3.74-3,4.51-9.57,4.52-9.64l.19,0a20.79,20.79,0,0,1-.85,3.75A12.78,12.78,0,0,1,304.34,215.62Z"/><path d="M302.55,212.53l-.13-.15a7.76,7.76,0,0,0,2.16-4.51h.2A8.07,8.07,0,0,1,302.55,212.53Z"/><path d="M313.08,207.73l-.17-.1a7.08,7.08,0,0,0,1-3.26h.2A7,7,0,0,1,313.08,207.73Z"/><path class="cls-4" d="M459.34,176.82s3.71-7.43,9.17-9.18A17.49,17.49,0,0,1,459.34,176.82Z"/><path d="M459.34,176.92a.11.11,0,0,1-.08,0,.11.11,0,0,1,0-.11c0-.08,3.79-7.49,9.23-9.23a.1.1,0,0,1,.13.13,17.76,17.76,0,0,1-9.23,9.23Zm9-9.11c-4.68,1.63-8.08,7.5-8.78,8.8A17.66,17.66,0,0,0,468.34,167.81Z"/><path class="cls-4" d="M467,176.82s5.53-3.16,11.07-2.12C478.06,174.7,474.85,179.66,467,176.82Z"/><path d="M471.55,177.79a13.72,13.72,0,0,1-4.6-.87.1.1,0,0,1-.06-.09.09.09,0,0,1,.05-.1c.05,0,5.62-3.16,11.14-2.13a.09.09,0,0,1,.07.06.1.1,0,0,1,0,.09,6.85,6.85,0,0,1-2.62,2.16A8.77,8.77,0,0,1,471.55,177.79Zm-4.32-1c3.92,1.36,6.62.72,8.2-.07a7.07,7.07,0,0,0,2.45-2C473.08,173.94,468.25,176.27,467.23,176.8Z"/><path class="cls-3" d="M451.69,177.7a97.18,97.18,0,0,0,15.3-.88"/><path d="M453.62,177.83c-1.22,0-1.91,0-1.93,0v-.2a97.8,97.8,0,0,0,15.28-.88l0,.2A104,104,0,0,1,453.62,177.83Z"/><line class="cls-3" x1="459.34" y1="176.82" x2="458.08" y2="177.7"/><polygon points="458.14 177.78 458.02 177.62 459.28 176.74 459.39 176.9 458.14 177.78"/><path class="cls-4" d="M455.27,192.67s4,5.46,11.26,1.45A17.7,17.7,0,0,0,455.27,192.67Z"/><path d="M461.43,195.68a8.2,8.2,0,0,1-6.25-3,.09.09,0,0,1,0-.09s0-.06.08-.06a19.37,19.37,0,0,1,8.2.27,13.3,13.3,0,0,1,3.13,1.19.11.11,0,0,1,.05.09.1.1,0,0,1-.05.08A10.63,10.63,0,0,1,461.43,195.68Zm-6-2.94c.67.79,4.51,4.8,10.87,1.39A18,18,0,0,0,455.45,192.74Z"/><path class="cls-4" d="M101.86,212.14s-3.32,5.46,0,10.68C101.86,222.82,105.41,219,101.86,212.14Z"/><path d="M101.86,222.92h0a.14.14,0,0,1-.08,0c-3.31-5.21,0-10.73,0-10.78s0,0,.09-.05a.11.11,0,0,1,.09.05c3.54,6.82,0,10.76,0,10.79A.09.09,0,0,1,101.86,222.92Zm0-10.57c-.49.93-2.8,5.72,0,10.3C102.38,222,104.88,218.33,101.85,212.35Z"/><path class="cls-4" d="M169.1,236.07s5-5,10.88-2.83C180,233.24,178.35,237,169.1,236.07Z"/><path d="M171.92,236.32c-.85,0-1.79,0-2.83-.15a.1.1,0,0,1-.08-.07.08.08,0,0,1,0-.1c.05-.05,5.08-5,11-2.86a.09.09,0,0,1,.06.06.11.11,0,0,1,0,.08C180,233.42,178.66,236.32,171.92,236.32Zm-2.59-.33c8,.76,10.17-2.13,10.51-2.7C174.67,231.51,170.22,235.19,169.33,236Z"/><path class="cls-5" d="M188.67,221.67s3.07,18,27.72,20,38.85-11.06,39.8-29.51Z"/><path d="M221.29,241.94c-1.6,0-3.23-.07-4.91-.21-7-.57-16.79-2.91-23.17-10.77a22.63,22.63,0,0,1-4.64-9.27.08.08,0,0,1,0-.08.08.08,0,0,1,.06,0L256.18,212a.13.13,0,0,1,.08,0,.09.09,0,0,1,0,.07c-.46,8.83-3.89,16.29-9.92,21.57C240.16,239.12,231.56,241.94,221.29,241.94Zm-32.5-20.19a22.42,22.42,0,0,0,4.58,9.09c6.34,7.8,16,10.12,23,10.69,12.39,1,22.7-1.75,29.83-8,6-5.22,9.38-12.59,9.85-21.3Z"/><path class="cls-5" d="M188.67,221.67c-2.21-6.66,16-13.77,32-16.65s33-1.28,35.21,4.81-8.09,11.59-29.34,14.76S189.9,225.37,188.67,221.67Z"/><path d="M207.94,226.15c-11.07,0-18.5-1.84-19.37-4.45h0a4.08,4.08,0,0,1,.5-3.43c3.35-5.63,18.43-11,31.59-13.35a80.84,80.84,0,0,1,22.8-1c7,.86,11.46,2.93,12.52,5.83a4.62,4.62,0,0,1-.41,4.13c-2.7,4.56-13,8.38-29,10.77A128,128,0,0,1,207.94,226.15Zm-19.18-4.51c.61,1.83,4.85,3.32,11.35,4a112,112,0,0,0,26.42-1.11c15.95-2.38,26.2-6.17,28.87-10.67a4.46,4.46,0,0,0,.4-4c-1-2.82-5.43-4.85-12.37-5.7a80.36,80.36,0,0,0-22.73,1c-13.12,2.36-28.14,7.67-31.45,13.25a3.87,3.87,0,0,0-.49,3.27Z"/><path d="M206.44,236.16c-3.77-1.15-6.85-5.65-6.88-5.7l.16-.11s3.08,4.49,6.77,5.62Z"/><path d="M214.43,237.47c-6.21-1.59-9.9-7-9.94-7l.17-.11c0,.05,3.68,5.36,9.82,6.93Z"/><path d="M236.59,235.41l-.14-.14a13.9,13.9,0,0,0,3.75-8.3h.2C240.39,227,240.07,232.09,236.59,235.41Z"/><path d="M242,230.47l-.15-.13a9.35,9.35,0,0,0,1.72-4.29l.2,0A9.61,9.61,0,0,1,242,230.47Z"/><path class="cls-3" d="M196.85,217.28c-.79-1.38,4.89-3.18,7.73-3.77s7.74-.82,8.86-.39c-.62,2.09-3.93,3.43-7.79,4.09C201.35,218,197.22,217.92,196.85,217.28Z"/><path d="M199.73,217.87c-1.62,0-2.76-.18-3-.53h0a.65.65,0,0,1,0-.62c.63-1.4,5.62-2.86,7.81-3.3,2.67-.55,7.73-.84,8.91-.39a.09.09,0,0,1,.06.12c-.75,2.57-5.25,3.71-7.86,4.16A36.81,36.81,0,0,1,199.73,217.87Zm-2.79-.63c.29.5,4.07.67,8.7-.12,4.29-.74,7.08-2.17,7.67-3.94-1.21-.36-6-.13-8.71.43-2.4.49-7.1,1.93-7.67,3.19a.46.46,0,0,0,0,.44Z"/><path class="cls-3" d="M225.69,212.65c.55-3,12.13-8.25,13.91-5.24C241.83,211.18,227,213,225.69,212.65Z"/><path d="M226.28,212.8a2.78,2.78,0,0,1-.62-.05.09.09,0,0,1-.07-.11c.34-1.88,5.45-5.23,10.22-6.08,2-.36,3.35-.09,3.87.8a1.46,1.46,0,0,1-.12,1.77C237.65,211.59,228.86,212.8,226.28,212.8Zm-.47-.22c1.46.22,11.62-1,13.59-3.57a1.27,1.27,0,0,0,.11-1.55c-.6-1-2.33-.94-3.67-.7C231.66,207.51,226.31,210.62,225.81,212.58Z"/><path class="cls-3" d="M222.34,215.62c1.48.56,5.78,4.86,4.46,6.16C225,223.58,221.74,217,222.34,215.62Z"/><path d="M226.09,222.19a1.61,1.61,0,0,1-.89-.33c-1.67-1.15-3.42-5.21-2.95-6.28a.09.09,0,0,1,.12-.05c1.21.45,4.35,3.42,4.74,5.25a1.08,1.08,0,0,1-.24,1.07A1.11,1.11,0,0,1,226.09,222.19Zm-3.69-6.43c-.37,1.26,1.6,5,2.92,5.94a1,1,0,0,0,1.41,0,.91.91,0,0,0,.18-.89C226.56,219.12,223.61,216.3,222.4,215.76Z"/><path class="cls-3" d="M208.93,222.38c-.94-1.61,4.87-6.76,7.89-6.76.94,1.31-.8,4-2.37,5.44C212.53,222.89,209.42,223.22,208.93,222.38Z"/><path d="M210.21,222.92a3.64,3.64,0,0,1-.48,0,1.19,1.19,0,0,1-.89-.46h0c-.22-.37-.13-.91.27-1.6,1.3-2.27,5.35-5.31,7.71-5.31a.13.13,0,0,1,.09,0c.44.62.36,1.58-.24,2.76a11.2,11.2,0,0,1-2.15,2.81A6.69,6.69,0,0,1,210.21,222.92Zm6.56-7.2c-2.27.05-6.25,3.05-7.49,5.21-.35.61-.44,1.1-.26,1.4h0a1,1,0,0,0,.74.36,6.39,6.39,0,0,0,4.62-1.7C215.89,219.56,217.61,217,216.77,215.72Z"/><path class="cls-3" d="M215.18,208.28c1.64-.48,6,1.67,6.11,3.13s-2.55,1.94-4.47,0S215.18,208.28,215.18,208.28Z"/><path d="M219.63,212.79a4.15,4.15,0,0,1-2.88-1.31c-1.93-2-1.68-3.17-1.67-3.22a.1.1,0,0,1,.07-.07c1.11-.34,3.33.49,4.74,1.45.53.36,1.44,1.06,1.5,1.76a1.17,1.17,0,0,1-.74,1.19A2.51,2.51,0,0,1,219.63,212.79Zm-4.36-4.43c0,.25,0,1.34,1.62,3a3.51,3.51,0,0,0,3.67,1.07,1,1,0,0,0,.63-1c0-.45-.55-1-1.41-1.62C218.43,208.89,216.34,208.1,215.27,208.36Z"/><path class="cls-3" d="M227,215.8c2.31-2.35,19.2-4,19.24-.59C246.29,217.21,229.79,218.86,227,215.8Z"/><path d="M235,217.57c-3.59,0-6.92-.47-8-1.7a.11.11,0,0,1,0-.14c.92-.93,4.19-1.83,8.34-2.28,3.34-.37,7.67-.45,9.81.41.83.33,1.25.79,1.26,1.35,0,.36-.4.69-1.23,1C243.14,217,238.91,217.57,235,217.57Zm-7.82-1.77c2.44,2.44,14.14,1.71,17.9.24.71-.28,1.1-.57,1.1-.83,0-.47-.39-.86-1.14-1.16C241.1,212.46,229.24,214,227.17,215.8Z"/><path d="M152.19,226.51a39.73,39.73,0,0,1-13.78-2.58,61.27,61.27,0,0,1-15.89-9,86.85,86.85,0,0,1-14.75-14.49l.16-.13a86,86,0,0,0,14.71,14.47c8.26,6.34,21,13.41,35.06,11.13l0,.19A34,34,0,0,1,152.19,226.51Z"/><path d="M134.39,220.39a23.46,23.46,0,0,1-4.25-.38l0-.2a25.84,25.84,0,0,0,17-3l.11.17A26.5,26.5,0,0,1,134.39,220.39Z"/><path d="M145.64,231a27,27,0,0,1-8.18-7.42l.17-.12a26.47,26.47,0,0,0,8.11,7.37Z"/><path d="M124.5,223.55c-2.85-3.77-4.39-10.55-4.4-10.62l.19,0c0,.06,1.54,6.8,4.37,10.54Z"/><path class="cls-5" d="M157.72,226c.19-4.72,5.5-7.38,6.82-6.4,1.78,1.33-1.49,4.69-1.49,4.69s5,.1,5.16,1.81-4.28,1.13-4.28,1.13,4.34,1.43,3.73,3.21-4.41-.52-4.41-.52,1.55,2.48.49,3.16S157.5,231.46,157.72,226Z"/><path d="M163.2,233.26a4.44,4.44,0,0,1-2-.65,7.16,7.16,0,0,1-3.55-6.65h0a7.42,7.42,0,0,1,4.32-6.2c1.14-.55,2.16-.65,2.66-.28a1.4,1.4,0,0,1,.57,1c.1,1.34-1.4,3.11-1.9,3.65,1,0,4.91.31,5,1.9a.91.91,0,0,1-.29.75c-.66.63-2.36.62-3.35.56.93.38,2.53,1.15,3,2.12a1.25,1.25,0,0,1,.08,1,1,1,0,0,1-.64.65c-1,.37-2.85-.53-3.6-.94.39.72,1.17,2.4.28,3A1.09,1.09,0,0,1,163.2,233.26Zm.59-13.8a4.21,4.21,0,0,0-1.76.48,7.24,7.24,0,0,0-4.21,6h0a7,7,0,0,0,3.45,6.47,2.91,2.91,0,0,0,2.42.52c1-.62-.51-3-.52-3a.09.09,0,0,1,0-.12.11.11,0,0,1,.12,0s2.56,1.55,3.75,1.11a.79.79,0,0,0,.52-.53,1,1,0,0,0-.07-.8c-.65-1.3-3.57-2.28-3.6-2.29a.09.09,0,0,1-.07-.11.1.1,0,0,1,.11-.08s3.07.4,3.94-.44a.71.71,0,0,0,.23-.58c-.13-1.61-5-1.72-5.07-1.73a.1.1,0,0,1-.09-.06.12.12,0,0,1,0-.11s2.1-2.17,2-3.65a1.1,1.1,0,0,0-1.18-1.06Z"/><path class="cls-5" d="M142.33,235.25c-1.11-1.43,1-4,4.87-4.69,5.05-.92,8.16,2.29,7.06,3.93-.84,1.26-3.42-.05-3.42-.05s5,3.88,2.82,5.58c-1.75,1.4-3.83-2.26-3.83-2.26s-.4,3.76-2.16,3.21c-2-.62-1.92-6.18-1.92-6.18S143.29,236.48,142.33,235.25Z"/><path d="M148,241.13a1.19,1.19,0,0,1-.37-.06c-1.88-.58-2-5.1-2-6.09-.57.36-2.52,1.45-3.4.33a1.6,1.6,0,0,1-.18-1.62c.46-1.22,2.23-2.7,5.11-3.22,3.45-.63,6,.65,7,2.1a1.76,1.76,0,0,1,.15,2c-.62.92-2.07.56-2.92.25,1,.83,2.87,2.68,2.87,4.14a1.39,1.39,0,0,1-.57,1.16,1.41,1.41,0,0,1-1.21.31c-1.17-.22-2.24-1.75-2.62-2.35-.1.67-.44,2.33-1.28,2.88A1.12,1.12,0,0,1,148,241.13Zm-2.26-6.43h.05a.09.09,0,0,1,0,.09s-.08,5.48,1.85,6.08a.91.91,0,0,0,.8-.11c1-.63,1.23-3,1.23-3s0-.08.08-.08a.11.11,0,0,1,.11,0s1.28,2.25,2.63,2.51a1.27,1.27,0,0,0,1-.27,1.21,1.21,0,0,0,.49-1c0-1.81-3.28-4.39-3.32-4.42a.09.09,0,0,1,0-.13.1.1,0,0,1,.13,0s2.51,1.25,3.29.09a1.56,1.56,0,0,0-.15-1.76c-.92-1.4-3.44-2.63-6.8-2-2.81.52-4.52,1.93-5,3.1a1.39,1.39,0,0,0,.15,1.43h0c.89,1.14,3.26-.46,3.29-.48Z"/><path class="cls-5" d="M147.26,216.82c-.84-1.85,1.21-3.82,2.74-4s1.49,1,.8,1.59c0,0,1.46,0,.78,1.18,0,0,1,.12,1,.87C152.61,218,148.22,218.93,147.26,216.82Z"/><path d="M149.66,218.14a2.56,2.56,0,0,1-2.49-1.28h0a2.41,2.41,0,0,1,.16-2.24,3.92,3.92,0,0,1,2.65-1.91c.89-.1,1.2.24,1.3.46a1.09,1.09,0,0,1-.26,1.14,1,1,0,0,1,.76.41.79.79,0,0,1-.05.78c.4.09,1,.36,1,.95,0,.79-1,1.36-2,1.58A5,5,0,0,1,149.66,218.14Zm.65-5.25-.3,0a3.75,3.75,0,0,0-2.51,1.81,2.25,2.25,0,0,0-.15,2.06h0c.51,1.11,2,1.33,3.29,1.06,1.1-.24,1.87-.81,1.87-1.39s-.93-.77-.94-.77a.16.16,0,0,1-.08-.06.14.14,0,0,1,0-.09c.18-.3.22-.54.12-.71s-.8-.32-.81-.32a.1.1,0,0,1-.09-.07.08.08,0,0,1,0-.11,1,1,0,0,0,.36-1.07A.81.81,0,0,0,150.31,212.89Z"/><path class="cls-5" d="M124.09,223.62c2.94-1.39,5.54.38,6.76,2.09s.86,3.65-1.18,2c0,0,1,3.3-.68,3.73s-2.51-3.66-2.51-3.66.72,4.86-1.22,4.83-1.44-4.59-1.44-4.59-1,2.88-2.51,1.83C120.18,229.05,121,225.1,124.09,223.62Z"/><path d="M125.27,232.71h0a1.13,1.13,0,0,1-.88-.41c-.74-.83-.75-2.73-.7-3.7a2.91,2.91,0,0,1-1.4,1.53,1.13,1.13,0,0,1-1-.2,1.88,1.88,0,0,1-.51-1.75,5.92,5.92,0,0,1,3.31-4.65h0c3.18-1.5,5.82.63,6.89,2.12.73,1,.93,2.18.47,2.62-.2.18-.65.36-1.57-.3a4.73,4.73,0,0,1-.06,3,1.22,1.22,0,0,1-.77.6,1.05,1.05,0,0,1-.84-.14,4.84,4.84,0,0,1-1.48-2.47c.06,1.1,0,2.69-.6,3.41A1,1,0,0,1,125.27,232.71Zm-1.45-4.79h0a.09.09,0,0,1,.07.11s-.32,3.09.61,4.14a.92.92,0,0,0,.73.34h0a.86.86,0,0,0,.67-.3c.92-1.06.44-4.38.44-4.41a.1.1,0,0,1,.08-.12.12.12,0,0,1,.12.08s.59,2.79,1.69,3.47a.82.82,0,0,0,.69.11,1,1,0,0,0,.64-.5c.58-1,0-3.08,0-3.1a.11.11,0,0,1,0-.11.09.09,0,0,1,.12,0c.71.57,1.27.75,1.54.49s.22-1.34-.5-2.35c-1-1.44-3.58-3.5-6.63-2.06l0-.09,0,.09a5.69,5.69,0,0,0-3.2,4.49,1.73,1.73,0,0,0,.43,1.57.94.94,0,0,0,.85.17c.9-.28,1.5-1.94,1.51-1.95A.1.1,0,0,1,123.82,227.92Z"/><path d="M377.42,221.9l-.11-.16a142.33,142.33,0,0,0,18.5-17.43c9.11-10.12,21.25-26.34,27.33-46.06l.19.06c-6.09,19.76-18.25,36-27.37,46.14A142,142,0,0,1,377.42,221.9Z"/><path class="cls-5" d="M425.42,147.21c1.56.11,1.05,4.56,1.05,4.56s3.36-2.24,4.34-.9-1.73,3.82-3.9,4.87c0,0,4.23-.23,4.1,1.57s-4.54,2-8.17.74-6-3.68-5.5-5,3.59.91,3.59.91-1.95-4.64-.08-5.31,2.32,3.44,2.32,3.44S423.4,147.06,425.42,147.21Z"/><path d="M427.46,159a14.51,14.51,0,0,1-4.65-.81c-2.6-.91-4.79-2.49-5.45-3.94a1.56,1.56,0,0,1-.12-1.21.69.69,0,0,1,.49-.45c.84-.24,2.36.7,3,1.12-.32-.86-1.13-3.24-.59-4.46a1.2,1.2,0,0,1,.7-.68,1.11,1.11,0,0,1,1,.1,4.32,4.32,0,0,1,1.3,2.63c.13-1.11.46-3,1.34-3.82a1.23,1.23,0,0,1,.95-.33h0a.89.89,0,0,1,.64.34c.75.91.58,3.38.52,4.12.72-.45,3.4-2,4.3-.76a1.32,1.32,0,0,1,.17,1.11c-.32,1.27-2.07,2.82-3.71,3.71h0c.87,0,2.69.09,3.42.84a1,1,0,0,1,.32.84,1.28,1.28,0,0,1-.66,1A5.7,5.7,0,0,1,427.46,159ZM418,152.71a1,1,0,0,0-.25,0,.52.52,0,0,0-.36.33,1.34,1.34,0,0,0,.11,1.05c.53,1.17,2.39,2.81,5.33,3.84s6.15,1.06,7.47.2a1.13,1.13,0,0,0,.57-.86.85.85,0,0,0-.26-.69c-.89-.91-3.7-.77-3.73-.77h0a.11.11,0,0,1-.09-.08.09.09,0,0,1,.05-.11c1.67-.81,3.67-2.48,4-3.78a1,1,0,0,0-.14-.94c-.9-1.25-4.17.9-4.2.92a.08.08,0,0,1-.11,0,.08.08,0,0,1,0-.09s.36-3.19-.46-4.18a.71.71,0,0,0-.5-.28,1.12,1.12,0,0,0-.8.29c-1.17,1-1.33,4.45-1.34,4.48a.09.09,0,0,1-.09.1.12.12,0,0,1-.11-.09s-.29-2.64-1.34-3.28a.89.89,0,0,0-.84-.08,1,1,0,0,0-.59.57c-.61,1.4.71,4.58.72,4.61a.1.1,0,0,1,0,.12.09.09,0,0,1-.12,0A7.29,7.29,0,0,0,418,152.71Z"/><path class="cls-5" d="M411.55,162.28c1.49-.12,2,3.36,2.31,5.73,0,0,2-2.86,3.41-1.93s-1.15,4.63-1.15,4.63,2.77-1.79,3.36-.33c.5,1.2-1.67,3.66-6.83,4-4.31.3-7.11-2.2-6.39-3.58s3.31.5,3.31.5-3.95-4.55-2-5.68c1.58-.93,3,2.48,3,2.48S409.46,162.45,411.55,162.28Z"/><path d="M411.94,174.53c-2.79,0-4.82-1.15-5.57-2.3a1.44,1.44,0,0,1-.2-1.45,1,1,0,0,1,.67-.53,3.59,3.59,0,0,1,2.24.64c-.77-1-2.37-3.18-2.15-4.52a1.07,1.07,0,0,1,.55-.81,1.16,1.16,0,0,1,1-.12,4.14,4.14,0,0,1,1.83,2c-.17-1.23-.39-3.77.41-4.81a1.13,1.13,0,0,1,.83-.47h.08c1.48,0,2,3.26,2.31,5.58.5-.66,2.14-2.6,3.39-1.76a1,1,0,0,1,.43.69c.22,1.11-.82,2.94-1.31,3.72a3.89,3.89,0,0,1,2.52-.64,1,1,0,0,1,.62.57,1.48,1.48,0,0,1-.23,1.32c-.75,1.2-2.9,2.58-6.69,2.84Zm-4.78-4.11a.77.77,0,0,0-.27,0,.74.74,0,0,0-.54.42,1.24,1.24,0,0,0,.19,1.25c.81,1.24,3.17,2.38,6.11,2.18,3.72-.26,5.84-1.64,6.53-2.74a1.29,1.29,0,0,0,.21-1.14.75.75,0,0,0-.49-.46c-.95-.3-2.7.82-2.72.84a.11.11,0,0,1-.13,0,.1.1,0,0,1,0-.13s1.77-2.6,1.52-3.92a.79.79,0,0,0-.35-.56c-1.3-.87-3.24,1.87-3.26,1.9a.12.12,0,0,1-.11,0,.09.09,0,0,1-.07-.09c-.32-2.25-.79-5.64-2.15-5.64h-.06a.91.91,0,0,0-.69.39c-1,1.3-.28,5.29-.27,5.33a.11.11,0,0,1-.07.12.1.1,0,0,1-.12-.06s-.89-2.15-2-2.53a1,1,0,0,0-.83.1.9.9,0,0,0-.46.68c-.26,1.62,2.49,4.81,2.52,4.84a.1.1,0,0,1,0,.13.09.09,0,0,1-.13,0A5.4,5.4,0,0,0,407.16,170.42Z"/><path class="cls-5" d="M394.86,183.28c1.07-.61,2.27.38,3.1,1.66,0,0-.35-6.12,1.59-6.72s2,5.13,2,5.13,1-3.47,2.64-3.09-.52,5.06-.52,5.06,1.74-1.15,2.44,0-2.4,4.73-6.68,4C396.1,188.75,393.13,184.26,394.86,183.28Z"/><path d="M400.63,189.52a6.77,6.77,0,0,1-1.17-.1,7.08,7.08,0,0,1-5.17-4.79,1.25,1.25,0,0,1,.53-1.44c.91-.52,2,0,3,1.4-.05-1.33-.07-5.93,1.67-6.47a.92.92,0,0,1,.84.13c1,.71,1.24,3.38,1.31,4.55.35-1,1.24-3,2.59-2.64a.82.82,0,0,1,.56.45c.51,1-.52,3.61-.9,4.47a2.53,2.53,0,0,1,1.59-.34,1.1,1.1,0,0,1,.72.53,1.6,1.6,0,0,1-.31,1.68A6.61,6.61,0,0,1,400.63,189.52Zm-5.08-6.33a1.32,1.32,0,0,0-.64.18h0a1.09,1.09,0,0,0-.43,1.22,6.86,6.86,0,0,0,5,4.64,6.45,6.45,0,0,0,6.26-2.39c.4-.59.52-1.14.31-1.47a.88.88,0,0,0-.59-.43,2.83,2.83,0,0,0-1.71.46.09.09,0,0,1-.12,0,.09.09,0,0,1,0-.11s1.58-3.43,1-4.59a.62.62,0,0,0-.43-.34c-1.55-.36-2.51,3-2.52,3a.1.1,0,0,1-.11.07.09.09,0,0,1-.09-.09s-.09-4.11-1.24-5a.73.73,0,0,0-.67-.1c-1.84.58-1.52,6.57-1.52,6.63a.1.1,0,0,1-.07.1.11.11,0,0,1-.11,0C397.57,184.52,396.62,183.19,395.55,183.19Z"/><path d="M388.92,211.76l0-.19c14.16-1.85,27.12-8.25,35.49-13.29a111.83,111.83,0,0,0,14.93-10.6l.14.15a113.55,113.55,0,0,1-15,10.62C416.1,203.5,403.12,209.91,388.92,211.76Z"/><path class="cls-5" d="M439.1,187.12c-.76-2.31,2.35-7.3,3.95-7s.29,3.46.29,3.46,2.71-2.75,3.59-1.89-1.33,2.93-1.33,2.93,2.7-.83,2.89.43-2.68,1.51-2.68,1.51,2.83-.29,2.56,1S440.36,191,439.1,187.12Z"/><path d="M443.18,189.46c-3,0-3.89-1.42-4.18-2.31h0c-.5-1.55.69-4.35,2.12-6,.73-.84,1.43-1.25,1.94-1.15a.91.91,0,0,1,.7.49,4,4,0,0,1-.17,2.69c.77-.72,2.64-2.33,3.41-1.58a.81.81,0,0,1,.24.6,4.26,4.26,0,0,1-1.3,2.2,3.53,3.53,0,0,1,2.27,0,.81.81,0,0,1,.38.57.89.89,0,0,1-.18.67,2.76,2.76,0,0,1-1.45.75,2.18,2.18,0,0,1,1.33.48.79.79,0,0,1,.18.7c-.16.79-2.49,1.7-4.7,1.83Zm-4-2.37c.68,2.07,3.15,2.24,4.57,2.16,2.24-.14,4.39-1,4.51-1.67a.58.58,0,0,0-.12-.52c-.51-.55-2.11-.43-2.31-.42h0a.1.1,0,0,1,0-.19h0c.21,0,1.9-.21,2.43-.87a.66.66,0,0,0,.14-.52.58.58,0,0,0-.28-.43c-.72-.45-2.46.08-2.48.08a.08.08,0,0,1-.11,0,.11.11,0,0,1,0-.13s1.5-1.4,1.51-2.32a.58.58,0,0,0-.18-.45c-.66-.65-2.71,1.13-3.45,1.88a.09.09,0,0,1-.12,0,.1.1,0,0,1,0-.12s.83-2,.34-2.94a.77.77,0,0,0-.56-.39c-.45-.08-1.09.32-1.76,1.09-1.4,1.6-2.56,4.31-2.08,5.8Z"/><path class="cls-5" d="M429.24,201.79c.82.86-1.08,2.79-1.08,2.79s2.79-.51,2.86.95-3.43,1.34-3.43,1.34,2.41.69,2.22,1.84S424.35,210,423,207.5,428,200.46,429.24,201.79Z"/><path d="M427.52,209.59a7.83,7.83,0,0,1-2-.27,4.2,4.2,0,0,1-2.61-1.77c-.78-1.38.72-3.35,2.54-4.7,1.41-1,3.23-1.84,3.9-1.13s-.41,2.18-.88,2.72a3.55,3.55,0,0,1,2.31.34,1,1,0,0,1,.38.75.93.93,0,0,1-.28.7,4.49,4.49,0,0,1-2.67.73c.72.29,1.88.9,1.74,1.76-.06.37-.53.65-1.31.78A6.21,6.21,0,0,1,427.52,209.59Zm1.05-7.93a6,6,0,0,0-3,1.35c-1.75,1.3-3.2,3.17-2.49,4.44.95,1.68,3.82,2.16,5.52,1.86.68-.12,1.11-.35,1.15-.62.18-1-2.13-1.72-2.15-1.73a.09.09,0,0,1-.07-.11.1.1,0,0,1,.1-.08h0s2.36.07,3.11-.68a.73.73,0,0,0,.22-.55.77.77,0,0,0-.3-.6c-.71-.57-2.42-.26-2.44-.26a.1.1,0,0,1-.11-.05.11.11,0,0,1,0-.12s1.82-1.87,1.08-2.65h0A.79.79,0,0,0,428.57,201.66Z"/><path d="M399.55,200.09c-1.52-3.64-.19-10.71-.18-10.78l.2,0c0,.07-1.33,7.09.17,10.67Z"/><path d="M414.25,179c-1.17-1.12-1.68-4.41-1.7-4.55l.2,0s.52,3.36,1.64,4.44Z"/><path d="M418.65,207.26a14.33,14.33,0,0,1-7.61-1.9l.11-.16a14.16,14.16,0,0,0,7.5,1.86h0a21.55,21.55,0,0,0,4.05-.38l0,.19a20.53,20.53,0,0,1-4.09.39Z"/><path class="cls-5" d="M431.47,173.1a8.2,8.2,0,0,0,.64-.57c1.25-1.25,1.84-2.7,1.31-3.24s-2,.06-3.24,1.32a1.8,1.8,0,0,0-.19.2c-.15-1.41-.68-2.46-1.32-2.46s-1.36,1.44-1.36,3.22c0,2.86,1.11,3.91,3.69,4.21,1.76.21,3.26-.27,3.34-1S433.14,173.31,431.47,173.1Z"/><path d="M431.81,175.93a5.73,5.73,0,0,1-.82-.05c-2.72-.31-3.78-1.52-3.78-4.31,0-1.86.64-3.32,1.46-3.32.66,0,1.21.93,1.39,2.33l.05,0a6,6,0,0,1,1.92-1.35c.65-.27,1.17-.25,1.46,0s.3.81,0,1.46a6.1,6.1,0,0,1-1.34,1.92c-.15.15-.3.28-.47.43,1.65.26,2.81,1,2.73,1.74a.82.82,0,0,1-.36.58A3.81,3.81,0,0,1,431.81,175.93Zm-3.14-7.48c-.69,0-1.26,1.43-1.26,3.12,0,2.69,1,3.81,3.6,4.11a4.41,4.41,0,0,0,2.95-.48.7.7,0,0,0,.28-.45c.07-.65-1.18-1.35-2.79-1.55a.11.11,0,0,1-.08-.08.1.1,0,0,1,0-.1,7.53,7.53,0,0,0,.64-.56,5.87,5.87,0,0,0,1.3-1.85c.23-.57.23-1,0-1.24s-.68-.23-1.25,0a5.86,5.86,0,0,0-1.85,1.31l-.12.12-.07.08a.09.09,0,0,1-.1,0,.1.1,0,0,1-.07-.08C429.75,169.45,429.23,168.45,428.67,168.45Z"/><path d="M411.11,184.44l0-.2a29.61,29.61,0,0,0,17.09-9.6l.16.12A29.81,29.81,0,0,1,411.11,184.44Z"/><path class="cls-5" d="M427.64,183.87c-.55-.27-1.4.27-2.09,1.25-.18-1-.72-1.8-1.36-1.8-.79,0-1.43,1.12-1.43,2.51a4.13,4.13,0,0,0,.12,1h0c-1.59-.5-3.07-.3-3.3.43s.88,1.73,2.48,2.23a4.51,4.51,0,0,0,5.47-2.32C428.26,185.69,428.32,184.21,427.64,183.87Z"/><path d="M423.47,189.81a4.87,4.87,0,0,1-1.44-.21c-1.68-.52-2.79-1.55-2.54-2.35.12-.39.55-.66,1.21-.75a5.35,5.35,0,0,1,2.05.2,4.14,4.14,0,0,1-.09-.87c0-1.44.68-2.61,1.53-2.61.63,0,1.18.66,1.41,1.66.73-.95,1.53-1.37,2.08-1.1h0c.73.37.71,1.89-.06,3.46A4.42,4.42,0,0,1,423.47,189.81Zm-2.27-3.14a3.59,3.59,0,0,0-.47,0c-.57.08-1,.3-1.05.61-.21.67.89,1.63,2.4,2.1a4.42,4.42,0,0,0,5.36-2.26c.71-1.45.77-2.88.15-3.19h0c-.48-.24-1.28.26-2,1.22a.12.12,0,0,1-.11,0,.08.08,0,0,1-.07-.08c-.17-1-.69-1.72-1.26-1.72-.74,0-1.33,1.08-1.33,2.41a4,4,0,0,0,.12,1,.1.1,0,0,1,0,.09.1.1,0,0,1-.1,0h0A5.57,5.57,0,0,0,421.2,186.67Z"/><path d="M425.58,197.64a33.66,33.66,0,0,1-.54-8.22h.2a33.48,33.48,0,0,0,.53,8.16Z"/><path class="cls-3" d="M314,226.06s4.11,5.45,10.72,3.06C324.71,229.12,321.2,224.91,314,226.06Z"/><path d="M321.42,229.82a10.15,10.15,0,0,1-7.51-3.7.12.12,0,0,1,0-.1A.16.16,0,0,1,314,226c7.18-1.14,10.79,3,10.82,3.09a.1.1,0,0,1,0,.09.09.09,0,0,1-.06.07A9.78,9.78,0,0,1,321.42,229.82Zm-7.25-3.69a9.53,9.53,0,0,0,10.37,2.94C323.93,228.43,320.48,225.2,314.17,226.13Z"/></g></g></svg>