<svg id="圖層_1" data-name="圖層 1" xmlns="http://www.w3.org/2000/svg" viewBox="0 0 1110 738"><defs><style>.cls-1{fill:#8dccc3;}.cls-1,.cls-2,.cls-3,.cls-4,.cls-5,.cls-6,.cls-8,.cls-9{stroke:#000;stroke-linejoin:round;stroke-width:0.33px;}.cls-2{fill:#006781;}.cls-3{fill:#1789a0;}.cls-4{fill:#ebebf2;}.cls-5{fill:#bad5dd;}.cls-6{fill:#fff;}.cls-7,.cls-8{fill:none;}.cls-9{fill:#ffb829;}</style></defs><title>main02</title><path class="cls-1" d="M238.56,475.14c-12.94,3-21.89,0-51.07,14.59s-41.7,8.34-54.2,32.32,33.15,17.72,55.56,46.9S273,605.43,320.91,612.73s109.45-10.42,156.35-10.42,174.08,5.21,252.25-17.72S835.83,570,861.89,553.32s53.16-12.51,94.86-24,70.88-24,73-39.61-22.93-21.89-39.61-35.44-80.26-18.76-105.28-36.48S730.55,373,647.17,402.18s-149.06,8.33-228.28,29.18S275.82,466.58,238.56,475.14Z"/><line class="cls-2" x1="257.15" y1="179.9" x2="257.15" y2="508.52"/><path class="cls-2" d="M242,191.91l15.12,15.22-3.1,3.53a4,4,0,0,1-6.65-1l-7.45-16.33A1.29,1.29,0,0,1,242,191.91Z"/><path class="cls-2" d="M273.49,191.32l-16.38,15.81,4.45,4.24a4,4,0,0,0,6.43-1.3l7.57-17.31A1.29,1.29,0,0,0,273.49,191.32Z"/><path class="cls-2" d="M256.72,163.2,254,170.47a8.29,8.29,0,0,0,2.39,9.35c.25.21.51.41.8.61l.11-.08a8.29,8.29,0,0,0,3.08-9.88l-2.76-7.27A.46.46,0,0,0,256.72,163.2Z"/><path class="cls-2" d="M228.27,217.51s23.48,11.63,28.88,19a19.61,19.61,0,0,1-7,12.33,1.65,1.65,0,0,1-2.54-.59l-5.8-12.57a.86.86,0,0,0-1.48-.16l-1,1.27a1.65,1.65,0,0,1-2.78-.25l-9.28-18.18A.65.65,0,0,1,228.27,217.51Z"/><path class="cls-2" d="M286,217.51s-19.31,9.43-28.87,19a19.56,19.56,0,0,0,7,12.33,1.65,1.65,0,0,0,2.54-.59l5.8-12.57a.86.86,0,0,1,1.48-.16l1,1.27a1.65,1.65,0,0,0,2.78-.25L287,218.35A.65.65,0,0,0,286,217.51Z"/><path class="cls-2" d="M208.32,289.67s40.33,15.91,48.83,21.54c-1.71,6.35-7.15,15.13-10.7,19.42a1.55,1.55,0,0,1-2.5-.39l-4.08-14.73L235.46,322a2.33,2.33,0,0,1-3.8.09l-11.35-19.42-1.64,2.41a2.33,2.33,0,0,1-4-.2L207.09,291A1,1,0,0,1,208.32,289.67Z"/><path class="cls-2" d="M193.41,325.48s46.29,17.24,63.74,29.2a95.27,95.27,0,0,1-13.33,21.41,2.89,2.89,0,0,1-4.94,0l-8.32-14-2.72,4.8a2.89,2.89,0,0,1-5,.13l-13.48-21.26-1.66,2.6a2.89,2.89,0,0,1-5-.22l-10.89-21A1.19,1.19,0,0,1,193.41,325.48Z"/><path class="cls-2" d="M320.89,325.48s-46.29,17.24-63.74,29.2a94.87,94.87,0,0,0,13.33,21.41,2.89,2.89,0,0,0,4.94,0l8.32-14,2.72,4.8a2.89,2.89,0,0,0,5,.13l13.48-21.26,1.66,2.6a2.89,2.89,0,0,0,5-.22l10.89-21A1.19,1.19,0,0,0,320.89,325.48Z"/><path class="cls-2" d="M306,289.67s-40.33,15.91-48.83,21.54c1.71,6.35,7.15,15.13,10.7,19.42a1.55,1.55,0,0,0,2.5-.39l4.08-14.73,4.41,6.53a2.32,2.32,0,0,0,3.79.09L294,302.71l1.64,2.41a2.32,2.32,0,0,0,4-.2l7.62-13.9A1,1,0,0,0,306,289.67Z"/><path class="cls-2" d="M221.87,252s22.44,9.2,35.28,20.06c-1.75,7-6.33,16.31-6.33,16.31a3.06,3.06,0,0,1-5.62-.13l-6.11-15.06-1.65,2.61a3.07,3.07,0,0,1-5.31-.22l-11.57-22.25A1,1,0,0,1,221.87,252Z"/><path class="cls-2" d="M292.39,252s-22.45,9.2-35.28,20.06c1.75,7,6.32,16.31,6.32,16.31a3.07,3.07,0,0,0,5.63-.13l6.11-15.06,1.65,2.61a3.07,3.07,0,0,0,5.31-.22l11.57-22.25A1,1,0,0,0,292.39,252Z"/><line class="cls-3" x1="527.53" y1="117.27" x2="527.53" y2="250.5"/><path class="cls-3" d="M522.52,121.24l5,5-1,1.17a1.32,1.32,0,0,1-2.2-.33l-2.47-5.4A.42.42,0,0,1,522.52,121.24Z"/><path class="cls-3" d="M532.94,121l-5.42,5.23,1.47,1.4a1.32,1.32,0,0,0,2.13-.43l2.5-5.72A.42.42,0,0,0,532.94,121Z"/><path class="cls-3" d="M527.39,111.74l-.91,2.41a2.74,2.74,0,0,0,.79,3.09l.26.2,0,0a2.75,2.75,0,0,0,1-3.27l-.92-2.41A.15.15,0,0,0,527.39,111.74Z"/><path class="cls-3" d="M518,129.7s7.77,3.85,9.55,6.28a6.47,6.47,0,0,1-2.3,4.08.55.55,0,0,1-.84-.19l-1.92-4.16a.29.29,0,0,0-.49-.06l-.32.43a.55.55,0,0,1-.92-.09l-3.07-6A.22.22,0,0,1,518,129.7Z"/><path class="cls-3" d="M537.08,129.7s-6.38,3.12-9.55,6.28a6.51,6.51,0,0,0,2.31,4.08.55.55,0,0,0,.84-.19l1.92-4.16a.29.29,0,0,1,.49-.06l.32.43a.55.55,0,0,0,.92-.09l3.07-6A.22.22,0,0,0,537.08,129.7Z"/><path class="cls-3" d="M511.39,153.57s13.33,5.26,16.14,7.12a20.71,20.71,0,0,1-3.54,6.42.5.5,0,0,1-.82-.13l-1.35-4.87-1.46,2.16a.76.76,0,0,1-1.25,0l-3.76-6.42-.54.8a.77.77,0,0,1-1.31-.07L511,154A.32.32,0,0,1,511.39,153.57Z"/><path class="cls-3" d="M506.45,165.41s15.31,5.7,21.08,9.66a31.4,31.4,0,0,1-4.41,7.08,1,1,0,0,1-1.63,0l-2.75-4.61-.9,1.59a1,1,0,0,1-1.64,0l-4.45-7-.55.86a1,1,0,0,1-1.66-.08l-3.6-7A.39.39,0,0,1,506.45,165.41Z"/><path class="cls-3" d="M548.61,165.41s-15.3,5.7-21.08,9.66a31.81,31.81,0,0,0,4.41,7.08,1,1,0,0,0,1.64,0l2.75-4.61.9,1.59a1,1,0,0,0,1.63,0l4.46-7,.55.86a1,1,0,0,0,1.65-.08l3.6-7A.39.39,0,0,0,548.61,165.41Z"/><path class="cls-3" d="M543.68,153.57s-13.34,5.26-16.15,7.12a21.12,21.12,0,0,0,3.54,6.42.51.51,0,0,0,.83-.13l1.35-4.87,1.46,2.16a.76.76,0,0,0,1.25,0l3.76-6.42.54.8a.77.77,0,0,0,1.31-.07l2.52-4.6A.32.32,0,0,0,543.68,153.57Z"/><path class="cls-3" d="M515.87,141.12s7.42,3,11.66,6.64a33.91,33.91,0,0,1-2.09,5.39,1,1,0,0,1-1.86,0l-2-5L521,149a1,1,0,0,1-1.76-.07l-3.83-7.36A.33.33,0,0,1,515.87,141.12Z"/><path class="cls-3" d="M539.19,141.12s-7.43,3-11.67,6.64a33.91,33.91,0,0,0,2.09,5.39,1,1,0,0,0,1.86,0l2-5,.55.86a1,1,0,0,0,1.75-.07l3.83-7.36A.32.32,0,0,0,539.19,141.12Z"/><path class="cls-4" d="M227.11,472c6.1-16.88,16.7-20.33,19.89-33.06,2.7-10.81,9.61-31.1,11.63-37a15.25,15.25,0,0,1-3.88-3.93,6.15,6.15,0,0,1-1.2-3.35c-4,26.38-11.21,35.2-16.77,48.93-5.65,14-17.63,25.62-21.62,46.25-.07.35-.16.68-.23,1C218.5,487.75,223.46,482.13,227.11,472Z"/><path class="cls-4" d="M285.19,407.78c-1.45,0-2.79,0-3.93,0s-2.11-.08-3.16-.15a48.36,48.36,0,0,1-4.17,14.87c-4.33,9.21-3.23,18.1-7.94,29.88a19.77,19.77,0,0,0-.67,13.92c6.66-10.64,12.54-23.19,14.47-30a36.81,36.81,0,0,1,1.87-5,55.55,55.55,0,0,1,4-7.08C283.26,418.59,284.26,411.72,285.19,407.78Z"/><path class="cls-5" d="M285.63,424.22c2.81-4.32,5.8-8,7.58-10.91,1-1.66,2.15-3.55,3.35-5.56-4.32,0-8.18,0-11.37,0C284.26,411.72,283.26,418.59,285.63,424.22Z"/><path class="cls-5" d="M234.4,516c13.41-22.18,11.24-26.26,21.15-36.63a85.79,85.79,0,0,0,9.77-13.09,19.77,19.77,0,0,1,.67-13.92c4.71-11.78,3.61-20.67,7.94-29.88a48.36,48.36,0,0,0,4.17-14.87,64.79,64.79,0,0,1-6.53-.76,23.8,23.8,0,0,0-5.79,12.39c-1.47,9.79-5.55,26.26-9.63,25.28s.89-15.21,1.8-25.12A42,42,0,0,1,262,403.94a20.92,20.92,0,0,1-3.38-1.93c-2,5.87-8.93,26.16-11.63,37-3.19,12.73-13.79,16.18-19.89,33.06-3.65,10.09-8.61,15.71-12.18,18.9A93.73,93.73,0,0,1,204,518.83a10.45,10.45,0,0,0,1.86,13c.78.72,1.68,1.52,2.65,2.36a44.57,44.57,0,0,1,9-16.9c8.08-9.27,11-9.76,17.25-24.14s9.62-21,12-21.36-4.28,18.54-9,28.34-15.22,21-17.12,29.29a42.18,42.18,0,0,1-4.21,11c1.79,1.31,3.75,2.68,5.91,4.12a14.68,14.68,0,0,1,.58-4C224.48,535.15,227.7,527,234.4,516Z"/><path class="cls-4" d="M386.6,436.45a68.67,68.67,0,0,1-.84,16.76c.67,1.11,1.38,2.21,2.13,3.29a39,39,0,0,1,2.73,4.81c2-3.64,4.49-9.36,4.39-15.32-.15-9.92,7.9-10.08,9.58-17.26,1.26-5.39,3.2-8.6,4.75-10.44-6,.48-12.22,1.12-20.52,1.35C387.59,422,386,427,386.6,436.45Z"/><path class="cls-4" d="M258,419.37c-.91,9.91-5.88,24.14-1.8,25.12s8.16-15.49,9.63-25.28a23.8,23.8,0,0,1,5.79-12.39,36.74,36.74,0,0,1-9.56-2.88A42,42,0,0,0,258,419.37Z"/><path class="cls-5" d="M445,419.73c-16.83-2.53-26.07-2.21-35.7-1.44-1.55,1.84-3.49,5-4.75,10.44-1.68,7.18-9.73,7.34-9.58,17.26.1,6-2.39,11.68-4.39,15.32.05.11.11.21.16.32.2.41.41.82.61,1.26,5.35,11.47,10.91,30,14.86,36.64,4.05,6.85,20,26,27.74,38l18.49-2.37,6.87-40.26,8.1-78.34A41,41,0,0,1,445,419.73Z"/><path class="cls-4" d="M369.71,426.83c3.09-2.34,6.16-.76,7.29,3.35.93-5.75.6-8.86.06-10.54a71.59,71.59,0,0,1-20.76-3.49,25.94,25.94,0,0,0,2.79,9.06C360.84,428.25,364.53,430.78,369.71,426.83Z"/><path class="cls-4" d="M237.77,500.1c4.76-9.8,11.42-28.73,9-28.34s-5.71,7-12,21.36-9.17,14.87-17.25,24.14a44.57,44.57,0,0,0-9,16.9c2.13,1.82,4.74,3.9,7.91,6.21a42.18,42.18,0,0,0,4.21-11C222.55,521.07,233,509.89,237.77,500.1Z"/><path class="cls-5" d="M377,430.18a12,12,0,0,1,.32,1.48c.65,4.57,3.47,13.32,8.44,21.55a68.67,68.67,0,0,0,.84-16.76c-.57-9.47,1-14.43,2.22-16.81l-3,.07c-3.33,0-6.2,0-8.76-.07C377.6,421.32,377.93,424.43,377,430.18Z"/><path class="cls-3" d="M267.72,385.11c-5.87,2.2-12.63,4.41-13.94,8.2h0v.06a4.07,4.07,0,0,0-.2,1.36,6.15,6.15,0,0,0,1.2,3.35,15.25,15.25,0,0,0,3.88,3.93,20.92,20.92,0,0,0,3.38,1.93,36.74,36.74,0,0,0,9.56,2.88,64.79,64.79,0,0,0,6.53.76c1,.07,2.1.12,3.16.15s2.48,0,3.93,0c3.19,0,7.05,0,11.37,0,6.8-11.35,16.06-27.22,22.44-35.2,3.2-4,6.61-7.65,10.41-9.94-13.8.93-31,2.92-38.07,7.19C278.7,377.46,275.71,382.11,267.72,385.11Z"/><path class="cls-3" d="M489.81,381.62l-94-5.83-46.75-14s-1.77,0-4.67.09c8.44,4.2,10.74,14.79,10.74,31.79,0,10.13.36,17.27,1.18,22.45a71.59,71.59,0,0,0,20.76,3.49c2.56.09,5.43.11,8.76.07l3-.07c8.3-.23,14.5-.87,20.52-1.35,9.63-.77,18.87-1.09,35.7,1.44a41,41,0,0,0,22.41-3.18c16.77-7.15,27.85-22.46,27.85-22.46Z"/><path class="cls-6" d="M284,390c.13-3.52,3.2-4.48,6.88-5s7.05,2.4,5.77,6.56S283.86,394.46,284,390Z"/><path class="cls-6" d="M378.88,410.21c.75-5.2,11-5.4,13.61-2.88s2.68,6.81-1.1,6.7S378.21,414.79,378.88,410.21Z"/><path class="cls-4" d="M390.78,461.63c0-.11-.11-.21-.16-.32-.2.37-.4.71-.59,1A9.79,9.79,0,0,0,390.78,461.63Z"/><ellipse class="cls-6" cx="252.29" cy="458.61" rx="3.22" ry="1.35" transform="translate(-258.98 570.74) rotate(-73.55)"/><path class="cls-5" d="M658.66,353.17c3-5.92,19.65,14.64,29.28,31.59s16.17,23.1,20,33.12,3.09,14.63-5.77,4.24-18.11-17.72-28.12-25-10.77-14-12.9-23.94S656,358.56,658.66,353.17Z"/><path class="cls-5" d="M358,294.32c.67,12.67-2.38,24.3,1.08,24.3s4.32-11,4.75-20.95c.3-6.84.6-11.91.76-14.4-2.44-.45-4.77-1-6.95-1.54C357.6,284.6,357.68,288.73,358,294.32Z"/><path class="cls-5" d="M570.8,270.66a15,15,0,0,0-.95-2.52c.83,3.95-.05,8.07-3,12.22-12.45,17.4-33.28,21-74.73,23.56a140.68,140.68,0,0,1-18.22.07c.25,6.06-3.16,12.25-6.44,17.15-3.89,5.79-1.31,15.53-1.5,29.49s2.39,16.4,2.39,16.4,1.88,10.46-4.61,4.48-3.71-12-3.71-26.77-2.41-17.53-4.27-26.12c-1.28-5.93-1.54-13.8-1.59-18.11-1.66-.5-3.27-1-4.85-1.56-.07,7.12-2,14.95.5,25.72,3.16,13.6,4.27,26.29,1.67,40.84-1.79,10-.63,23.2.26,30.42a153.32,153.32,0,0,0,24-6.63c20-7.5,77.66.77,77.66.77S582.39,315,570.8,270.66Z"/><path class="cls-5" d="M459.45,316.83c1.3,7.42,3.71,1.67,5.87-3.22,1.42-3.21,1.41-7.67,1.23-10.38-2.53-.36-4.88-.81-7.1-1.32C459,306.1,458.66,312.31,459.45,316.83Z"/><path class="cls-4" d="M339.9,296.59c-3.66-1.13-5.1,29.2-5.1,29.2l14.25,5.5C341.89,323,344.22,297.91,339.9,296.59Z"/><path class="cls-4" d="M363.8,297.67c-.43,9.93-1.29,20.95-4.75,20.95s-.41-11.63-1.08-24.3c-.29-5.59-.37-9.72-.36-12.59a49.71,49.71,0,0,1-8-2.78A65.24,65.24,0,0,0,352,297.71c1.87,6.65,2.22,22.58-1.2,32.23l20.35,3.24s-4.12-7-3.68-22.13c.42-14.35,3-19.78,2.85-26.84q-3-.43-5.76-.94C364.4,285.76,364.1,290.83,363.8,297.67Z"/><path class="cls-4" d="M400.8,367l-5.47,1.29a54.25,54.25,0,0,1,0,14.62c-1.06,8.49.64,14.76,3.46,14.54s.85-6.69,3.46-17.06S400.8,367,400.8,367Z"/><path class="cls-7" d="M400.8,367l-5.47,1.29a54.25,54.25,0,0,1,0,14.62c-1.06,8.49.64,14.76,3.46,14.54s.85-6.69,3.46-17.06S400.8,367,400.8,367Z"/><path class="cls-7" d="M339.9,296.59c-3.66-1.13-5.1,29.2-5.1,29.2l14.25,5.5C341.89,323,344.22,297.91,339.9,296.59Z"/><path class="cls-7" d="M433.05,320.81c-3.65-.1-5.29,18.55-6.59,31.95s.22,28.52,3.67,27.66,2.34-15.13,2.92-27.23C433.65,340.68,437.52,320.93,433.05,320.81Z"/><path class="cls-5" d="M368.34,381.39c-3,.36-2,7.34-1,11.93q2.25.93,4.59,1.73C370.73,389,371.67,381,368.34,381.39Z"/><path class="cls-5" d="M445.54,335.93c.18-11.5-5.38-18.92-2.6-28a24.37,24.37,0,0,0,1-10.91,144.13,144.13,0,0,0-20.63-6.47c1.94,6.93,1.12,18.1-1.6,27.38-3,10.31.86,23.83.86,23.83s-3.9,4.91-5.59,0-2.62-14.49-1.56-20.94.67-12.56-2.66-10.61-4.66-.22-3.12-9.51a36,36,0,0,0,.09-12.32c-13.49-1.61-27.45-2.44-39.41-4.16.12,7.06-2.43,12.49-2.85,26.84-.44,15.11,3.68,22.13,3.68,22.13l-20.35-3.24c3.42-9.65,3.07-25.58,1.2-32.23A65.24,65.24,0,0,1,349.62,279c-4.53-2.08-7.93-4.79-9.72-8.45a15.24,15.24,0,0,1-1.72-6.78h0s-6.86,34.41-6.76,65.75,2,43.38,0,52c0,0,13.43.68,30.25,9.22a27.35,27.35,0,0,1-1.29-9c.32-8.16-3.27-16.2-3.27-16.2l18.15,6c-1.44,9.36,1.7,20.34,3.45,25.49a134.68,134.68,0,0,0,36.63,3.23,39.53,39.53,0,0,1-1.41-14.51c.86-12.2-2.08-18.69-2.08-18.69l5.13-3a65.26,65.26,0,0,1,2.35,21.62A55.91,55.91,0,0,0,420,400c6.42-.47,14.1-1.17,22.35-2.41a62.54,62.54,0,0,1,.57-13.45C445.54,364,445.35,347.43,445.54,335.93ZM334.8,325.79s1.44-30.33,5.1-29.2c4.32,1.32,2,26.43,9.15,34.7Zm67.45,54.63c-2.61,10.37-.64,16.85-3.46,17.06s-4.52-6.05-3.46-14.54a54.25,54.25,0,0,0,0-14.62L400.8,367S404.86,370,402.25,380.42Zm30.8-27.23c-.58,12.1.54,26.36-2.92,27.23s-5-14.26-3.67-27.66,2.94-32.05,6.59-31.95C437.52,320.93,433.65,340.68,433.05,353.19Z"/><path class="cls-4" d="M375.26,371.51l-18.15-6s3.59,8,3.27,16.2a27.35,27.35,0,0,0,1.29,9c.28.14.56.27.84.42,1.56.81,3.18,1.53,4.84,2.22-1-4.59-2.05-11.57,1-11.93,3.33-.4,2.39,7.6,3.6,13.66,2.21.74,4.48,1.38,6.77,1.95C377,391.85,373.82,380.87,375.26,371.51Z"/><path class="cls-4" d="M419.33,385.61A65.26,65.26,0,0,0,417,364l-5.13,3s2.94,6.49,2.08,18.69a39.53,39.53,0,0,0,1.41,14.51c1.14-.05,2.25-.11,3.3-.18L420,400A55.91,55.91,0,0,1,419.33,385.61Z"/><path class="cls-4" d="M409.73,288.37a36,36,0,0,1-.09,12.32c-1.54,9.29-.21,11.45,3.12,9.51s3.72,4.15,2.66,10.61-.14,16,1.56,20.94,5.59,0,5.59,0-3.89-13.52-.86-23.83c2.72-9.28,3.54-20.45,1.6-27.38-2.67-.59-5.55-1.12-8.7-1.55C413,288.77,411.37,288.57,409.73,288.37Z"/><path class="cls-4" d="M433.05,320.81c-3.65-.1-5.29,18.55-6.59,31.95s.22,28.52,3.67,27.66,2.34-15.13,2.92-27.23C433.65,340.68,437.52,320.93,433.05,320.81Z"/><path class="cls-4" d="M451.47,365.51c2.6-14.55,1.49-27.24-1.67-40.84-2.49-10.77-.57-18.6-.5-25.72-1.81-.63-3.58-1.28-5.36-1.94a24.37,24.37,0,0,1-1,10.91c-2.78,9.09,2.78,16.51,2.6,28s0,28.05-2.6,48.16a62.54,62.54,0,0,0-.57,13.45c3.06-.45,6.19-1,9.36-1.61C450.84,388.71,449.68,375.54,451.47,365.51Z"/><path class="cls-4" d="M465.32,313.61c-2.16,4.89-4.57,10.64-5.87,3.22-.79-4.52-.41-10.73,0-14.92-1.84-.43-3.6-.9-5.3-1.4.05,4.31.31,12.18,1.59,18.11C457.6,327.21,460,330,460,344.74s-2.79,20.8,3.71,26.77,4.61-4.48,4.61-4.48-2.57-2.45-2.39-16.4-2.39-23.7,1.5-29.49c3.28-4.9,6.69-11.09,6.44-17.15q-3.93-.27-7.33-.76C466.73,305.94,466.74,310.4,465.32,313.61Z"/><path class="cls-2" d="M569.85,268.14c-3-14.22-28.5-26.17-60.34-29.07-45.45-4.13-120.53-2.46-157.63,10.48,0,0-13.64,3.89-13.7,14.17a15.24,15.24,0,0,0,1.72,6.78c1.79,3.66,5.19,6.37,9.72,8.45a49.71,49.71,0,0,0,8,2.78c2.18.58,4.51,1.09,6.95,1.54q2.79.51,5.76.94c12,1.72,25.92,2.55,39.41,4.16,1.64.2,3.27.4,4.88.62,3.15.43,6,1,8.7,1.55A144.13,144.13,0,0,1,443.94,297c1.78.66,3.55,1.31,5.36,1.94,1.58.54,3.19,1.06,4.85,1.56s3.46,1,5.3,1.4c2.22.51,4.57,1,7.1,1.32q3.4.5,7.33.76a140.68,140.68,0,0,0,18.22-.07c41.45-2.6,62.28-6.16,74.73-23.56C569.8,276.21,570.68,272.09,569.85,268.14Z"/><path class="cls-5" d="M309.43,329.33s3.61,21.11,16.76,28.86,20.89,8.21,31.92,12.44,12.68,3.75,27.23,1.64,30.75,1.41,35.68-3S425.79,347,425.23,342s-27.84-3.18-27.84-3.18Z"/><path class="cls-1" d="M424.09,338.78a3.41,3.41,0,0,1-.16,5.22c-3.49,2.76-12.18,5.73-27,4.57-22.23-1.74-32.65-8-46.54-8s-41.26.11-41.32-13.89c-.06-12.63,23-15.64,23-15.64s-1.82,8.83,12.42,13.62,26.13,3,45,5.24C404.46,331.73,418.44,333.69,424.09,338.78Z"/><path class="cls-5" d="M771,287.92l28.28,85.93-9,54.15s-106,4-107.42,3.66-38.64-102.68-39.45-109,9.34-17.47,9.34-17.47Z"/><path class="cls-4" d="M684.77,312.48s2.28,11.06-2.65,20.92l-18.48-26Z"/><path class="cls-4" d="M689.31,313.15s1.47,4.39,1.2,12.12,1.25,14.11,4,12.65c3-1.6-2.8-17.85.53-25.44"/><path class="cls-4" d="M699,313.55s2,6,.53,14.78,2.27,15.19,1.87,25.71l6.39-1.91s-3.86-11.67-3.6-20.84a119.72,119.72,0,0,0-.93-17.74Z"/><path class="cls-4" d="M715.44,320.41c2,0,1.34,9.12,3.47,16.58s2.13,8.88,2.13,8.88l-7,3.73s-1.75-2,0-14.17C715.17,327.63,712.86,320.39,715.44,320.41Z"/><path class="cls-4" d="M724.11,326.52c-2.28,0-2-9.86-3.2-12.52s3.2-9.33,3.2-8.66S727.44,326.54,724.11,326.52Z"/><path class="cls-3" d="M670.28,312.6s10,.74,20.69,2.49,26.17,1,38.63-5.23,37.06-9,41.37-21.94-15-9-22.93-10-14.83-.25-21.87,0-69.18,7.75-69.39,19.82S670.28,312.6,670.28,312.6Z"/><path class="cls-5" d="M900.17,405.86c-10.73-10.47-19.75-22.77-27.34-34.68h0c-13.22-6-27.41-21.08-37.73-22.05s-6.45,7.74-16.77,7.42-21-26.12-34.83-29.67S767.7,341.72,758.34,343s-12.25-6.78-20.64-8.71a26.64,26.64,0,0,0-11,.29c-3.44,6.22-6.63,9.93-11.82,11.92-7.28,2.8-41.43,17.92-41.43,17.92S625,395,623,427.76s53.06,55.06,81.39,51.87,55.86,7.18,69.42,5.18,31.12,6,47.88,4.39S840,484.42,848.78,474s13.57-6.38,36.31-6,48.11-10.69,51.47-23.57S923.12,428.25,900.17,405.86Z"/><path class="cls-4" d="M737.7,334.3c8.39,1.93,11.29,10,20.64,8.71s11.29-19.68,25.16-16.13,24.51,29.35,34.83,29.67,6.45-8.39,16.77-7.42,24.51,16,37.73,22.05h0c-8.65-13.57-15.44-26.62-20.81-35.86-10.08-17.36-25.75-20.72-35.83-19.6s-12.88-2.24-19-14-11.1-26.56-26.31-28C751,271.86,736.69,314,731.09,325.8c-1.61,3.38-3,6.28-4.42,8.79A26.64,26.64,0,0,1,737.7,334.3Z"/><path class="cls-4" d="M738,352.13c4.3-.17,2.19,6.89.1,12.95s-4,9-5.43,20.48a157.21,157.21,0,0,1-3.55,19.22s-18-15.25-16.72-17.76,8.57-8.15,10.86-13.58S732.76,352.34,738,352.13Z"/><path class="cls-4" d="M767.62,348.59c3.89-2.5.87,20.07-1.75,27.49s-4.8,19.2-8.29,19.42,1.53-19.42,4.15-26S764.56,350.56,767.62,348.59Z"/><path class="cls-4" d="M813,369.32c1.3-6.21,11.78,1.52,15.92,12s7.2,15.95,10.69,23.46-.22,12.53-4.36,5.33-9.78-7.18-11.35-14.61C820.92,381.32,812.27,372.76,813,369.32Z"/><path class="cls-4" d="M860.45,389.3c4.37-7.59,17.26,13.56,22.48,20.88s10.46,12,8.11,16.73-14.41-7.92-18.71-15.46S857.58,394.29,860.45,389.3Z"/><path class="cls-4" d="M841,368.35c4-2.33,3.77,6.88,8.21,10.11s5.49,11.15,3.14,11.89S846,381,842.77,377.2C839,372.78,839.65,369.15,841,368.35Z"/><path class="cls-6" d="M655.35,563.15c-1-7,20.19-13.89,26.26-5.7,5.25,7.07-8.7,10.95-13.13,10.95S656,567.71,655.35,563.15Z"/><ellipse class="cls-6" cx="613.48" cy="562.76" rx="6.49" ry="3.65"/><ellipse class="cls-6" cx="590.62" cy="548.82" rx="5.36" ry="3.65"/><path class="cls-8" d="M168.17,446.24l-10.55,4.27s14,27.07,13.27,70.54"/><polyline class="cls-8" points="154.64 438.43 157.62 450.51 165.22 433.41"/><path class="cls-8" d="M145.23,449.21c0,.09,12.39,1.3,12.39,1.3L141.33,437"/><polyline class="cls-8" points="149.66 460.01 157.62 450.51 154.24 427.31"/><ellipse class="cls-9" cx="154.91" cy="435.79" rx="2.65" ry="4.23" transform="translate(-294.66 544.43) rotate(-84.02)"/><ellipse class="cls-9" cx="165.74" cy="430.53" rx="2.92" ry="4.56" transform="translate(-287.34 517.43) rotate(-79.8)"/><ellipse class="cls-9" cx="171.53" cy="445.38" rx="4.23" ry="2.65" transform="translate(-275.28 277.61) rotate(-48.36)"/><ellipse class="cls-9" cx="142.46" cy="449.82" rx="4.23" ry="2.65" transform="translate(-328.92 470.82) rotate(-74.98)"/><ellipse class="cls-9" cx="147.24" cy="461.09" rx="2.65" ry="4.23" transform="translate(-174.91 99.84) rotate(-24.02)"/><ellipse class="cls-9" cx="138.87" cy="435.98" rx="4.23" ry="2.65" transform="translate(-317.37 401.17) rotate(-67.97)"/><ellipse class="cls-9" cx="153.34" cy="424.9" rx="4.23" ry="2.65" transform="translate(-71.62 33.18) rotate(-10.02)"/><path class="cls-5" d="M151.26,471.76s3.65,17.64,18,21.36C169.24,493.12,167,479.52,151.26,471.76Z"/><path class="cls-5" d="M197.08,467.23c-.38-1.38.57-6.69.57-6.69"/><polyline class="cls-5" points="202.07 466.92 197.08 467.23 191.09 466.76"/><polyline class="cls-8" points="203.6 452.33 197.08 467.23 210.43 461.14"/><path class="cls-8" d="M192.39,457.34l4.69,9.89s1.34,20.9-4.69,32.87"/><ellipse class="cls-9" cx="198.56" cy="458.29" rx="3.48" ry="2.17" transform="translate(-98.9 57.08) rotate(-13.13)"/><ellipse class="cls-9" cx="204.65" cy="467.97" rx="2.17" ry="3.48" transform="translate(-211.24 171.47) rotate(-30.89)"/><ellipse class="cls-9" cx="212.56" cy="460.72" rx="2.17" ry="3.48" transform="translate(-84.64 49.48) rotate(-11.09)"/><ellipse class="cls-9" cx="203.79" cy="450.17" rx="2.17" ry="3.48" transform="translate(-262.51 613.73) rotate(-84.97)"/><ellipse class="cls-9" cx="191.28" cy="455.47" rx="3.48" ry="2.17" transform="translate(-206.72 162.83) rotate(-30.89)"/><ellipse class="cls-9" cx="188.98" cy="467.26" rx="2.17" ry="3.48" transform="translate(-101.19 55.14) rotate(-13.13)"/><path class="cls-8" d="M841.54,504.85c-1.59-43.67-24.38-65.1-24.38-65.1l-8.44-7.93"/><polyline class="cls-8" points="816.11 445.27 817.16 439.75 809.76 442.54"/><polyline class="cls-8" points="829.36 433.58 817.16 439.75 825.89 441.79"/><polyline class="cls-8" points="819.46 426.18 817.16 439.75 818.45 437.02"/><ellipse class="cls-9" cx="806.68" cy="429.9" rx="4.03" ry="2.8" transform="translate(-71 685.28) rotate(-44.28)"/><ellipse class="cls-9" cx="820.63" cy="423.42" rx="4.04" ry="2.8" transform="translate(-41.84 93.48) rotate(-6.36)"/><ellipse class="cls-9" cx="806.85" cy="443.63" rx="3.97" ry="2.85" transform="translate(166.8 1105.56) rotate(-74.77)"/><ellipse class="cls-9" cx="816.5" cy="448.14" rx="2.82" ry="4.01" transform="translate(232.34 1173.57) rotate(-79.92)"/><ellipse class="cls-9" cx="832.23" cy="432.78" rx="2.88" ry="3.93" transform="translate(-88.29 613.22) rotate(-38.57)"/><ellipse class="cls-9" cx="828.63" cy="442.54" rx="3.98" ry="2.84" transform="translate(142.75 1084.45) rotate(-71.21)"/><ellipse class="cls-9" cx="819.27" cy="434.32" rx="2.83" ry="4" transform="translate(205.72 1129.59) rotate(-76.5)"/><path class="cls-1" d="M845,458.49s3.32,14.63-7.3,19.69C837.72,478.18,835.82,466.49,845,458.49Z"/><path class="cls-8" d="M880.93,437.09s-13.51,19.22-13.51,54.62"/><polyline class="cls-8" points="879.02 457.14 873.16 453.73 867.42 452.84"/><path class="cls-8" d="M871.9,442.13c.14,0,1.26,11.6,1.26,11.6l10-5.57"/><line class="cls-8" x1="863.54" y1="442.13" x2="873.16" y2="453.73"/><path class="cls-9" d="M868.37,438.71c-.23,1.5,1.45,3,3.75,3.34s4.35-.58,4.57-2.08-1.44-3-3.74-3.32S868.6,437.22,868.37,438.71Z"/><ellipse class="cls-9" cx="885.3" cy="446.84" rx="2.53" ry="3.86" transform="translate(-38.69 806.92) rotate(-48.07)"/><path class="cls-9" d="M861.73,451.64c.16,1.37,2,2.29,4.1,2.05s3.69-1.54,3.53-2.91-2-2.29-4.08-2S861.58,450.26,861.73,451.64Z"/><ellipse class="cls-9" cx="861.29" cy="440.08" rx="4.21" ry="2.74" transform="translate(251.42 1190.78) rotate(-77.97)"/><ellipse class="cls-9" cx="881.95" cy="434.76" rx="2.47" ry="3.88" transform="translate(94.94 1024.21) rotate(-63.07)"/><ellipse class="cls-9" cx="881.13" cy="458.49" rx="3.76" ry="2.45" transform="translate(43.5 992.33) rotate(-60)"/><path class="cls-4" d="M875.6,473s-1.11,9.39-7.8,11.47C867.8,484.44,868.76,476.13,875.6,473Z"/><path class="cls-9" d="M766.1,210.31s-11.51,1.77-9.35,11.8C756.75,222.11,766.75,223.6,766.1,210.31Z"/><path class="cls-8" d="M747,223.24s-.64,9,2.57,12.22"/><path class="cls-8" d="M745.39,247.29a20.55,20.55,0,0,0,9.75-3.06"/><path class="cls-8" d="M767.23,248.55s-17.71,10.82-20.33,35.75"/><path class="cls-9" d="M743.86,211.92S739.55,221,747,223.24C747,223.24,751.11,217.41,743.86,211.92Z"/><path class="cls-9" d="M763.12,239.9s-7.09-1.58-8.29,4.48C754.83,244.38,760.47,246.87,763.12,239.9Z"/><path class="cls-8" d="M766.16,266.43a19.52,19.52,0,0,1-13.23-1.76"/><path class="cls-9" d="M767.13,248.6s-1-8.09,9.14-10.28C776.27,238.32,776.27,248.55,767.13,248.6Z"/><path class="cls-9" d="M777.31,263.06s-8.53-3.85-11.8,3.43C765.51,266.49,773.12,270.9,777.31,263.06Z"/><path class="cls-8" d="M756.85,222s-16.45,21.26-15.34,58.34"/><path class="cls-6" d="M336.49,588.81c-1.66-6.34,12.09-11.73,17.65-8.18s6.74,10.91.69,11.18S337.57,592.9,336.49,588.81Z"/><path class="cls-6" d="M258.5,584.37c-.37-3.69,5.64-5.5,9.31-3.53s2.82,4.94,1.26,5.08S258.78,587.19,258.5,584.37Z"/><path class="cls-8" d="M384.8,317.92s1.74,14.48-1.93,22.76"/><path class="cls-8" d="M397,320.81s-.77,14.65-7.52,22.17"/><path class="cls-8" d="M407.17,326.4a18.8,18.8,0,0,1-12.74,7.32"/><path class="cls-9" d="M384.88,318.62s-6.57-6.17.68-14C385.56,304.65,391.63,312.8,384.88,318.62Z"/><path class="cls-9" d="M397,321.14s-5.6-7.53,3.81-15.06C400.8,306.08,405.89,316.89,397,321.14Z"/><path class="cls-9" d="M406.79,326.62s-1.6-7.15,10.19-8.7C417,317.92,416.41,327,406.79,326.62Z"/><path class="cls-4" d="M474.07,203.71c-6.06,2,4.61,13.14,1,37.53-1.65,11.11-5.08,26.7-.09,27.41s2.49-11.22,4.09-21.36,4.27-13.35,3.38-24.83S477.29,202.65,474.07,203.71Z"/><path class="cls-4" d="M462.14,252.93c6.76-13.58,5.16-23.8,5.06-34.84s0-28.3,0-28.3l-5.05.89a92.23,92.23,0,0,0-.9,18c.36,11.21,1.48,31.81-1.94,31.69s-1.85-7-3.46-24c-1.72-18.15-3.85-25.63-3.85-25.63l-5.35,1.07s2.9,9.39,4.63,30.71c2.17,26.71-1.32,48-1,56.67,2.14,0,4.34,0,6.56-.05C456.81,273.34,457.42,262.42,462.14,252.93Z"/><path class="cls-4" d="M432.88,250.25c-1.18-19.62-9.49-25.82-.78-61.44l-6.23-1.69s1.91,19.49-2.62,19.7-3.55-19.95-3.55-19.95h-3.84s-2.17,8.58,3.14,27-1.93,27.87-3.14,39c-.66,6.09-.13,14,.49,20,5.68,1.75,10.7,3.38,14.91,4.35A129,129,0,0,0,432.88,250.25Z"/><path class="cls-4" d="M437.8,213c-3.94.51-3.14,8.45,0,18s-2.22,29.09,2.36,29.19c3.8.07,3.53-14.78,4.52-25.18C446,221.45,441.85,212.46,437.8,213Z"/><path class="cls-4" d="M369.08,197.26c2.42,4.56,1,14.61,4.63,14.61s.68-19.15,3.59-27l-9.45-.46A15.92,15.92,0,0,0,369.08,197.26Z"/><path class="cls-4" d="M383.72,204.56c-3.08,1.38-1.76,9.57-3.12,19s.1,14.36,3.7,14.92c3.82.59,5.46-7.15,5.46-17.75S387.12,203,383.72,204.56Z"/><path class="cls-4" d="M403,198.13c-4.46.47-1.18,15.76-.47,28.5s-.59,26.27,2.7,26.3,5.49-8.87,4.54-24.88S406.25,197.8,403,198.13Z"/><path class="cls-4" d="M382.66,251.61c-5-3.75-4.56-20.58-8.94-20.65s-.14,10.92-3.45,10.82-2.18-15.15-5.22-15.57c-3.48-.48-4.7,8.76-6.32,15.57-1.58,6.62-3.12,15-3.93,19.46,3.81,2.15,10.5,4.24,22.24,4.37,3.18,0,6.28.23,9.32.56C385.17,260.55,385.94,254.05,382.66,251.61Z"/><path class="cls-7" d="M383.72,204.56c-3.08,1.38-1.76,9.57-3.12,19s.1,14.36,3.7,14.92c3.82.59,5.46-7.15,5.46-17.75S387.12,203,383.72,204.56Z"/><path class="cls-7" d="M403,198.13c-4.46.47-1.18,15.76-.47,28.5s-.59,26.27,2.7,26.3,5.49-8.87,4.54-24.88S406.25,197.8,403,198.13Z"/><path class="cls-7" d="M369.08,197.26c2.42,4.56,1,14.61,4.63,14.61s.68-19.15,3.59-27l-9.45-.46A15.92,15.92,0,0,0,369.08,197.26Z"/><path class="cls-7" d="M437.8,213c-3.94.51-3.14,8.45,0,18s-2.22,29.09,2.36,29.19c3.8.07,3.53-14.78,4.52-25.18C446,221.45,441.85,212.46,437.8,213Z"/><path class="cls-7" d="M474.07,203.71c-6.06,2,4.61,13.14,1,37.53-1.65,11.11-5.08,26.7-.09,27.41s2.49-11.22,4.09-21.36,4.27-13.35,3.38-24.83S477.29,202.65,474.07,203.71Z"/><path class="cls-4" d="M486.88,204.18c-.95,7.66,1.48,7,4.23,3.6,3.67-4.58,2.36,7.46,3.14,17.57s.4,31.71,4.52,30.73-2.16-28.84,3.26-39.93c-.58-1.44-1.15-3-1.69-4.85-2.89-9.7-2.49-26.16-3.88-33.5l-6.11.25-5.94,10.76S487.7,197.54,486.88,204.18Z"/><path class="cls-5" d="M509.26,234.13c-1.92-8.11-4.71-11.7-7.23-18-5.42,11.09.71,39-3.26,39.93s-3.73-20.62-4.52-30.73.53-22.15-3.14-17.57c-2.75,3.44-5.18,4.06-4.23-3.6.82-6.64-2.47-15.37-2.47-15.37l5.94-10.76c-11.4.45-33,1.25-33,1.25l-79-2.36-14.5,2.77a147.54,147.54,0,0,0-1.24,17.17c0,8.13-2.36,21-5.34,29.2-3.4,9.33-7.07,19.06-7.33,30.34,0,0,.67,2.45,4.85,4.82.81-4.5,2.35-12.84,3.93-19.46,1.62-6.81,2.84-16.05,6.32-15.57,3,.42,1.91,15.46,5.22,15.57s-.93-10.89,3.45-10.82,3.92,16.9,8.94,20.65c3.28,2.44,2.51,8.94,3.7,14.56,11.2,1.2,21.35,4.11,30,6.77-.62-6-1.15-13.92-.49-20,1.21-11.16,8.44-20.58,3.14-39s-3.14-27-3.14-27h3.84s-1,20.17,3.55,19.95,2.62-19.7,2.62-19.7l6.23,1.69c-8.71,35.62-.4,41.82.78,61.44a129,129,0,0,1-1.62,27c1.13.26,2.22.49,3.23.65a122.52,122.52,0,0,0,15.82,1.19c-.35-8.71,3.14-30,1-56.67-1.73-21.32-4.63-30.71-4.63-30.71l5.35-1.07s2.13,7.48,3.85,25.63c1.61,17,0,23.91,3.46,24s2.3-20.48,1.94-31.69a92.23,92.23,0,0,1,.9-18l5.05-.89s-.1,17.27,0,28.3,1.7,21.26-5.06,34.84c-4.72,9.49-5.33,20.41-5.27,26.15,9.66-.32,19.58-1.72,26.15-5.08,12.33-6.29,10.76-8.39,19.42-11.54s11.54-7.08,11.8-11.54S511.62,244.1,509.26,234.13ZM373.71,211.87c-3.6,0-2.21-10.05-4.63-14.61a15.92,15.92,0,0,1-1.23-12.86l9.45.46C374.39,192.72,377.31,211.87,373.71,211.87Zm10.59,26.59c-3.6-.56-5.07-5.51-3.7-14.92s0-17.6,3.12-19c3.4-1.52,6,5.56,6,16.15S388.12,239.05,384.3,238.46Zm21,14.47c-3.29,0-2-13.56-2.7-26.3s-4-28,.47-28.5c3.22-.33,5.83,13.9,6.77,29.92S408.55,253,405.26,252.93Zm39.42-18c-1,10.4-.72,25.25-4.52,25.18-4.58-.1.78-19.67-2.36-29.19s-3.94-17.46,0-18S446,221.45,444.68,235Zm34.37,12.32c-1.6,10.14.89,22.07-4.09,21.36s-1.56-16.3.09-27.41c3.63-24.39-7-35.53-1-37.53,3.22-1.06,7.47,7.28,8.36,18.75S480.65,237.14,479.05,247.29Z"/><path class="cls-1" d="M377,169.59s-14.42,3.94-13.11,11.55,13.11,4.19,20.2,7.87,15.21-1,30.95,0,20.46,4.19,32.53,4.72,31.22,1.05,42.24-5.77,7.08-15.74-1.84-15.74-28,.52-35.53,0S394.62,164.61,377,169.59Z"/><path class="cls-5" d="M375.85,163.31s-1.12,6.23,1.23,8.58,8.44,4,17.72,3.74,29.62,2.21,44,6.51,20.63,2.9,20.49,0-4-9.8-3.46-14.31l-65.2-8.54Z"/><ellipse class="cls-6" cx="471.11" cy="180.15" rx="3.91" ry="2.74"/><ellipse class="cls-6" cx="484.41" cy="182.17" rx="4.17" ry="2.69"/><path class="cls-3" d="M376,164.55c-1.76-8.82,21.18-13.15,28.38-13.7s21.74-.83,30.87,3.74,17.72,7.33,19.94,11.07-.83,7.2-10.11,8.31-31.56-3.88-43.88-3.74S377.22,170.78,376,164.55Z"/><path class="cls-6" d="M411.57,155.51c.87-2.45,6.86-1.33,8,1.66s-5,2.07-6.66,1.14A2.51,2.51,0,0,1,411.57,155.51Z"/><path class="cls-6" d="M420.78,165.25c-1.63-2.45,2.37-6.94,7.08-6.7,4.39.23,8.52,5.15,7.17,7.51S421.84,166.84,420.78,165.25Z"/><path class="cls-7" d="M709.86,249.4l-6.8,1.78s-1,4.59,2.4,10c2.52,4,.18,14.41,4,14.42,3.16,0,1.79-13.17,0-18A9.7,9.7,0,0,1,709.86,249.4Z"/><path class="cls-7" d="M698.86,251.18,686,255.77s4,4.64,6,13.47,3.66,17.66,6.7,17.52-2.31-10.57,0-11,2.9,7.78,5.94,6.64-3.33-11-5.21-18.65S698.86,251.18,698.86,251.18Z"/><path class="cls-7" d="M726.22,261.66c-4.41-.23,2,23.55,5.29,21.55S728.87,261.8,726.22,261.66Z"/><path class="cls-5" d="M735.29,264.09c0-10.75-2.37-20.53-3.87-23.78s-29.13,2.36-29.13,2.36l-58.92,3.08,4.17,37.53s8.7,14.32,9.24,14.5,9.61,7.43,9.61,7.43,1.07-3.72,11.36-6.2c-4.52-5.88-8.36-18.63-6.37-28.28,2.5-12.13,0-17.8,0-17.8l9.46,1.44a94.45,94.45,0,0,1,2,14c.56,8.08,4.79,12.6,6.29,22.66a39,39,0,0,0,1.3,6c12.35-1.55,17.79-2,24.75-2.32,2.88-.13,5.67,0,8.35.07-.58-1.9-1.57-4.78-3.18-8.62-3.07-7.32-6.29-18.41-3.36-19.27,2.63-.76,2.21,9.14,6.42,17.42A107.55,107.55,0,0,1,728,294.68a16.24,16.24,0,0,0,8.34-2.7c6-4.17,6-7.08,6-7.08S735.29,274.85,735.29,264.09Zm-30.64,18.3c-3,1.14-3.62-7.07-5.94-6.64s3,10.86,0,11-4.63-8.69-6.7-17.52-6-13.47-6-13.47l12.89-4.59s-1.31,4.88.58,12.56S707.69,281.26,704.65,282.39Zm4.78-6.78c-3.79,0-1.45-10.42-4-14.42-3.42-5.42-2.4-10-2.4-10l6.8-1.78a9.7,9.7,0,0,0-.43,8.25C711.22,262.44,712.59,275.62,709.43,275.61Zm22.08,7.6c-3.27,2-9.7-21.78-5.29-21.55C728.87,261.8,734.78,281.21,731.51,283.21Z"/><path class="cls-8" d="M692.86,300.63h0Z"/><path class="cls-8" d="M676.61,266.88c-2.73-.46-1.63,6.79.42,11.58,1.82,4.25,2.25,11.47,4.75,11.54,2.25.06,1.69-6.95-.38-11S679.39,267.35,676.61,266.88Z"/><path class="cls-4" d="M682.82,268.38a94.45,94.45,0,0,0-2-14l-9.46-1.44s2.5,5.67,0,17.8c-2,9.65,1.85,22.4,6.37,28.28a64.6,64.6,0,0,1,6.77-1.23l5.89-.76a39,39,0,0,1-1.3-6C687.61,281,683.38,276.46,682.82,268.38Zm-1,21.62c-2.5-.07-2.93-7.29-4.75-11.54-2-4.79-3.15-12-.42-11.58S679.33,275,681.4,279,684,290.06,681.78,290Z"/><path class="cls-4" d="M726.22,261.66c-4.41-.23,2,23.55,5.29,21.55S728.87,261.8,726.22,261.66Z"/><path class="cls-4" d="M717,266.88c-2.93.86.29,11.95,3.36,19.27,1.61,3.84,2.6,6.72,3.18,8.62a44.91,44.91,0,0,0,4.52-.09,107.55,107.55,0,0,0-4.64-10.38C719.18,276,719.6,266.12,717,266.88Z"/><path class="cls-5" d="M676.61,266.88c-2.73-.46-1.63,6.79.42,11.58,1.82,4.25,2.25,11.47,4.75,11.54,2.25.06,1.69-6.95-.38-11S679.39,267.35,676.61,266.88Z"/><path class="cls-4" d="M698.86,251.18,686,255.77s4,4.64,6,13.47,3.66,17.66,6.7,17.52-2.31-10.57,0-11,2.9,7.78,5.94,6.64-3.33-11-5.21-18.65S698.86,251.18,698.86,251.18Z"/><path class="cls-4" d="M709.86,249.4l-6.8,1.78s-1,4.59,2.4,10c2.52,4,.18,14.41,4,14.42,3.16,0,1.79-13.17,0-18A9.7,9.7,0,0,1,709.86,249.4Z"/><path class="cls-1" d="M729.91,237.07c-4-4.24-7.39-5.25-14.45-5.25-6.1,0-21.91,3.5-29,1.42,1.6.56,5.41,2.22,4.46,5.08-1.2,3.59-14.81,4.07-24.28,3.3s-21.61-3.71-26.68-1.11c-3.83,2-9.56-8.88-12.14-14.31-4.56-.28-8.12-.31-9.23.24-3.36,1.68-11.43,9.75-4.7,18.83s7.95,16,21.29,15.92c0,0,18.68-9.11,34.62-5.47s19.39.34,27.46-2.37,19.83,3,25.88-2S734,241.3,729.91,237.07Z"/><path class="cls-5" d="M686,233.07l-.17-.07v0Z"/><path class="cls-5" d="M686,233.07l.52.17Z"/><path class="cls-5" d="M691.1,237.16a26.27,26.27,0,0,0,.78,5.44,3.31,3.31,0,0,1-2.19,4.08,20.66,20.66,0,0,1-7.46.61c-8.45-.58-12.74,1.26-19.84,1.26s-18-1.26-18-1.26l-6.13-10.5,25.36-1.33Z"/><path class="cls-1" d="M640,240.51c5.07-2.6,17.21.33,26.68,1.11s23.08.29,24.28-3.3c.95-2.86-2.86-4.52-4.46-5.08l-.52-.17-.16,0v0a5.1,5.1,0,0,1-1.93-1.18c-4.4-4.71-18.86-4.18-27.6-3.77-5.84.27-19.21-1.29-28.42-1.85C630.45,231.63,636.18,242.47,640,240.51Z"/><path class="cls-2" d="M602.68,198.14c-.82-8.24,9.56-8.19,11.68-7.13,0,0-4.6-34.17,25-28.86a20.74,20.74,0,0,1,20.45-9.56c14.23,1.7,19.37,14.86,11.6,30.57,0,0,14.94-2.76,15.15,6.37s-23.4,10.4-37.36,11.25C630.55,201.91,603.68,208.09,602.68,198.14Z"/><path class="cls-4" d="M632.63,178.81c5-1.23,1.6,14.12,3.2,18.38s5.89-.62,9.09-5.54,6.46-11.84,8.92-10.4c3.26,1.9-.69,10-11.44,19.1s-9.77,31.21-9.77,31.21l-8.93-1.7s6.39-12.9,7.76-26C632.9,190.18,629.89,179.48,632.63,178.81Z"/><path class="cls-3" d="M646.94,216c-.65-5.55,7.7-8.6,12.22-7.92,0,0,1.52-16.63,20.77-20.45s26.59,11.12,26.59,11.12,9.94-4,16.05,1.63c5.85,5.4,2.49,11.09,2.49,11.09s11.77-.16,12.45,5.5-17.21,3.79-23.32,3.79-40.76.55-51.4,0S647.41,220.11,646.94,216Z"/><ellipse class="cls-6" cx="711.7" cy="240.51" rx="5.17" ry="3.72"/><ellipse class="cls-6" cx="722.65" cy="244" rx="2.29" ry="1.54"/><path class="cls-8" d="M393.19,230.43s1.52,34.59,5.06,47.09"/><path class="cls-9" d="M393.24,231s-8.48-3.41-3.8-14.84C389.44,216.12,398.25,224.11,393.24,231Z"/><path class="cls-5" d="M402.56,238.46s-.29,13.24-6.84,21.76"/><path class="cls-8" d="M375.93,246.07s1.52,20.09,11.72,28.15"/><path class="cls-8" d="M373.5,256.11a11.26,11.26,0,0,0,5.72,5"/><path class="cls-8" d="M424.17,261.1a30.1,30.1,0,0,1-10.35,20.43"/><path class="cls-8" d="M412.76,250s-.91,18.41-6.24,30.58"/><path class="cls-9" d="M376,246.53s-6.43-2.72-2.53-14C373.5,232.5,380,240.83,376,246.53Z"/><path class="cls-9" d="M373.67,256.35s-7.48.55-6.81-9.49C366.86,246.86,374.4,249.34,373.67,256.35Z"/><path class="cls-9" d="M402.46,239.05s-3.8-5.33,2.27-12.42C404.73,226.63,408.78,235.28,402.46,239.05Z"/><path class="cls-9" d="M424.18,261.43s-6.36-3.54-2.25-12.46C421.93,249,429.22,254.59,424.18,261.43Z"/><path class="cls-9" d="M412.65,250.54s-6.62-4.11.33-13.47C413,237.07,419,246.07,412.65,250.54Z"/><path class="cls-5" d="M841.35,517.84c-1.62-3.42-17.12-16.11-23.77-20.14S785.22,471,775.76,455.06s-30.18-40.38-43-52.91-28-31-36.56-49.46c-3.88-8.35-8.64-16.61-13.36-25.21h0c-12.64-1-26.33-36.31-36.61-32.52s4.33,34.09-11.9,36.26-31.39-43.84-48.71-43.84-23.81,35.18-36.79,35.18-7.87-30.33-21.11-36.8c-10-4.89-32.4,12.73-32.4,12.73-9.89,17.63-18.93,25.38-21.94,37.42S467.57,366,455.73,382.8c-16.47,23.37-34.85,38.71-49.47,59.79S383,480,377,496.36s-1.29,22.79,10.75,25.81c11.72,2.92,40.94,11.15,59.95,18.32,2.18-7,9.77-16.45,17.61-26.55,11.59-14.92,9.55-13.05,15.69-28.32s12-27.9,20.57-42.18c7.4-12.29,20.38-34,24.48-33.23,3.74.7-.29,20.36-4.68,36.16s-1.76,20.15-7.61,37.13-18.72,49.16-21.94,62.62a37,37,0,0,1-3.22,9c12,4.54,34.37,12.88,50.37,18,22.84,7.34,27.73,9.79,26.1-10.6-.84-10.47,1.85-26.07,5.72-40.76,3.67-13.93,8.41-27.05,12.22-34.2,4.28-8,6.52-13.28,11-17.67,3.67-3.64,8.84-6.69,17.94-10.24,20.08-7.83,23-21.54,35.75-23,7.48-.87,14.28-.37,22.6,6.84,5.83,5.05,12.41,13.41,20.49,26.94,19.58,32.81,27.91,62.19,53.86,71,19,6.43,33.22,4.25,45.63,1.07,4.58-1.17,8.91-2.47,13.13-3.52,15.67-3.92,22.47-2.78,26.49-4.79S843,521.27,841.35,517.84Z"/><path class="cls-4" d="M658.66,353.17c3-5.92,19.65,14.64,29.28,31.59s16.17,23.1,20,33.12,3.09,14.63-5.77,4.24-18.11-17.72-28.12-25-10.77-14-12.9-23.94S656,358.56,658.66,353.17Z"/><path class="cls-4" d="M428.91,483.48c2.72.78,17.83-23.51,29.55-33.92s16.3-18.12,21.91-37.95,10.5-31.55,14.93-48.36,10.54-23.43,5.95-26-7.64,9.17-11.71,17.32-12.74,23.56-13.76,34.71-16.3,21.33-21.39,32.54-8.38,17.49-13.87,30.65-7.71,8.07-10.66,20.68C428.57,478.65,426.43,482.76,428.91,483.48Z"/><path class="cls-4" d="M568.8,332.26c5.06,1.59-.34,13.53-2,22.66s-3.38,17.49-8.11,16.51-3.38-12.8,0-24.28S564.12,330.8,568.8,332.26Z"/><path class="cls-4" d="M513.77,483.5c5.85-17,3.22-21.34,7.61-37.13s8.42-35.46,4.68-36.16c-4.1-.77-17.08,20.94-24.48,33.23-8.6,14.28-14.43,26.91-20.57,42.18s-4.1,13.4-15.69,28.32c-7.84,10.1-15.43,19.52-17.61,26.55l1.56.6c18.93,7.31,31,10.79,31,10.79s3.23,1.25,8.35,3.19a37,37,0,0,0,3.22-9C495.05,532.66,507.92,500.48,513.77,483.5Z"/><path class="cls-4" d="M583.54,345.11c6.62.95-4.24,35-6.19,45-2.12,10.81-10.94,23.35-12.79,34.7s-7.64,23.53-10.32,20.85,2.27-7.07,2.06-14,1.94-23,7-29.38,8.93-15.48,10.58-25.8S579.21,344.5,583.54,345.11Z"/><path class="cls-4" d="M745.81,449.53c4.52-2.64,20.67,18.5,29,29.74s22.37,22.86,24.42,31.2-3,5.8-9,0c-4-3.89-9.88-6.31-16.49-10.75a48.3,48.3,0,0,1-14.3-15.1C749.23,467.76,742,451.78,745.81,449.53Z"/><path class="cls-4" d="M717.83,446.6c3.69-4.48,11.43,7.31,12.95,9.65s1.79,5.09,0,6.89-5.89-1.18-10.2-8.13C717.76,450.45,716.42,448.31,717.83,446.6Z"/><path class="cls-5" d="M663.64,454.62c0,24.75-42.53,56.1-72,17.81"/><path class="cls-5" d="M578.29,498.23s35.58,7.29,50.38-17.69"/><path class="cls-5" d="M672.71,469.79s2.93,19.63,20.4,42.09"/><path class="cls-5" d="M667.41,501.89s3.83,11.83,10.6,19.67"/><path class="cls-5" d="M661,482.56a71.11,71.11,0,0,0,2.64,9.55"/><path class="cls-5" d="M633.4,480.54c0,11.57,10.6,22.51,9.92,31.19"/><path class="cls-5" d="M650.81,496.13c-1.54,6.3,5.29,9.09,4.48,19.68"/><path class="cls-5" d="M698,519.55s2.52,4.38,4.54,5.89"/><path class="cls-4" d="M585.6,287.38c17.32,0,32.47,46,48.71,43.84s1.62-32.47,11.9-36.26,24,31.49,36.61,32.52h0C677.07,317,671.37,306,667.36,293.76c-7.31-22.37-13.24-43.31-24.52-55.49-19.14-20.69-28.14-12.27-40.3-20.69-11.17-7.74-9.93-24.12-16.84-34.41-8-12-20.58-11.76-29.75,2.62-6.74,10.57-24.09,42.58-30.11,61.08s-20.65,34-30.54,51.62c0,0,22.38-17.62,32.4-12.73,13.24,6.47,8.12,36.8,21.11,36.8S568.29,287.38,585.6,287.38Z"/><path class="cls-1" d="M744.61,541.4c-26-8.82-34.28-38.2-53.86-71-8.08-13.53-14.66-21.89-20.49-26.94-8.32-7.21-15.12-7.71-22.6-6.84-12.74,1.47-15.67,15.18-35.75,23-9.1,3.55-14.27,6.6-17.94,10.24-4.43,4.39-6.67,9.64-11,17.67-3.81,7.15-8.55,20.27-12.22,34.2a78.83,78.83,0,0,0,31,14.63c27.53,6.4,35.85-5.12,65.3-5.12s54.41,8.32,67.21,18.56,56-7.32,56-7.33C777.83,545.65,763.57,547.83,744.61,541.4Z"/><path class="cls-4" d="M597.85,475.1c.37,4.2.82,10,4.38,9.93,3.8-.09.08-14.56,5.74-16.56,4.78-1.68,6.13,6.77,9.93,6.61s1.82-12.88,5.45-12.88S624,475,626,478.87c1.67,3.27,4.63,1.66,4.79-5.69s1.78-18.56,6.77-20.07c6-1.79,9.87,6.29,9.42,23.95-.43,16.75,7.43,20.15,7.59,7.1s-.06-35.93,5.88-35.45c3.2.26,1.89,8,5.32,8.36s4.71-10.38,4.5-13.62c-8.32-7.21-15.12-7.71-22.6-6.84-12.74,1.47-15.67,15.18-35.75,23-9.1,3.55-14.27,6.6-17.94,10.24h0A5.62,5.62,0,0,1,597.85,475.1Z"/><path class="cls-2" d="M454.19,512.74a10.31,10.31,0,0,0,.05-1.11,10.93,10.93,0,0,0-10.93-10.93,11,11,0,0,0-2.83.38A10.91,10.91,0,0,0,421,495a9,9,0,0,0-7.26-4.14c-5.31,0-9.61,5.34-9.61,11.93s4.3,11.93,9.61,11.93c.23,0,.46,0,.69-.05a10.92,10.92,0,0,0,10.24,14.74,10.65,10.65,0,0,0,3.16-.47,11.67,11.67,0,0,0-.1,1.46,10.93,10.93,0,0,0,21.33,3.35,10.93,10.93,0,1,0,5.09-21Z"/><path class="cls-8" d="M430.25,512.37s5.69-2.78,5.71,4.62c0,0,4,.06,3.08,4.49"/><path class="cls-3" d="M802,553.6a8.73,8.73,0,0,0-3.46-7,8.76,8.76,0,0,0-6-13,8.54,8.54,0,0,0,.69-3.4,8.78,8.78,0,0,0-8.78-8.78,9.07,9.07,0,0,0-1.06.1,9.23,9.23,0,0,0,.11-1.07,8.78,8.78,0,0,0-8.79-8.78,8.18,8.18,0,0,0-1.11.11s0-.08,0-.11a8.76,8.76,0,0,0-17.1-2.7,8.72,8.72,0,0,0-12.62,7.86,8.91,8.91,0,0,0,.29,2.14,8.73,8.73,0,0,0-4.73,15.65,8.68,8.68,0,0,0-7.31,12.68,8.76,8.76,0,0,0-5.82,8.24c0,4.85,4,7.95,8.78,8.78,15.46,2.69,40.23,2.37,59.78-2.15C799.72,561.1,802,557.88,802,553.6Z"/><path class="cls-8" d="M769.17,528.17s7.07-.82,6.11,6.34c0,0,6.69-1.49,7.48,3.83.62,4.18-4.11,6.5-4.11,6.5"/><path class="cls-4" d="M669.75,210.31c2.74-.39,2.38,10.15,6.21,10.75,3.21.51,10.55-12.79,13.33-10.75,2.32,1.71-8,9.94-11.11,14.22s-6,12.92-8.41,10.93c-1.94-1.62,3.8-7.83,2.17-12.48C670.12,217.77,667.15,210.68,669.75,210.31Z"/><ellipse class="cls-6" cx="681.66" cy="237.13" rx="3.12" ry="1.68"/><ellipse class="cls-6" cx="674.77" cy="234.8" rx="1.33" ry="0.66"/><ellipse class="cls-6" cx="403.95" cy="341.75" rx="3" ry="5.16" transform="translate(-93.99 520.7) rotate(-60)"/><ellipse class="cls-6" cx="334.8" cy="331.9" rx="2.36" ry="3.38" transform="translate(-68.47 576.06) rotate(-75.94)"/><ellipse class="cls-6" cx="322.9" cy="325.79" rx="5.45" ry="3.51"/><path class="cls-4" d="M302,454.47a3.53,3.53,0,0,0-.31-1,1.67,1.67,0,0,0-.53-.61,2.19,2.19,0,0,0-1.23-.42c-1,0-2,.79-3.37,2.36-.61.68-1.29,1.49-2.08,2.45s-1.69,2.07-2.73,3.32a73.62,73.62,0,0,0-4.65,6.56c-.84,1.3-1.7,2.69-2.57,4.11-2.17,3.57-4.37,7.41-6.34,10.95-.79,1.41-1.55,2.78-2.25,4.06-1.05,1.92-2,3.65-2.75,5.06-4.06,7.54-1.74,6.09-5.8,17.27a39.43,39.43,0,0,1-1.84,4.24c-.72,1.42-1.52,2.85-2.38,4.29s-1.77,2.88-2.72,4.32c-1.41,2.16-2.89,4.32-4.33,6.47-3.36,5-6.51,9.89-8.16,14.46a57,57,0,0,0-2.61,10.89c-.17,1.18-.31,2.32-.43,3.41-.08.85-.16,1.68-.21,2.45-.12,1.54-.18,2.89-.21,3.94,9.22,1.77,19.48,1.64,28.33,1.35a45.89,45.89,0,0,1,11.87,1.12,50.59,50.59,0,0,0,2.62-4.94c.55-1.18,1.08-2.4,1.59-3.63l.36-.93.64-1.63c1-2.56,1.8-5.1,2.5-7.41.47-1.54.87-3,1.21-4.22s.59-2.34.77-3.18c.08-.36.16-.75.23-1.16a106.3,106.3,0,0,0,.94-10.71c.26-4.58.51-9.38,1.07-13.16.14-.94.27-1.86.39-2.75a67.36,67.36,0,0,0,.64-10.14,51.38,51.38,0,0,0-.78-7.75c-.15-.92-.27-1.89-.34-2.91s-.1-2.09-.1-3.18c0-.55,0-1.1,0-1.66,0-1.11.11-2.24.21-3.37s.23-2.26.38-3.37c.3-2.22.69-4.36,1.14-6.28.11-.48.23-.95.34-1.4.24-.89.48-1.73.74-2.48a66.73,66.73,0,0,0,2.54-9.89A15,15,0,0,0,302,454.47Z"/><path class="cls-5" d="M437.4,543.48a49.5,49.5,0,0,0-3.41-6c-7.75-12-23.69-31.14-27.74-38-3.95-6.68-9.51-25.17-14.86-36.64-.2-.44-.41-.85-.61-1.26a9.79,9.79,0,0,1-.75.71c-5.46,4.89-11.84-2-18.7-11.38-7.73-10.56-9.76.21-12.64,1.53-4.54,2.09-10.44-7.58-13.33-17.8s-6.36-16.95-9.92-16.95-7,7.32-10.5,17.34-8.48,9.83-12,4.43-2.83-15-13.81-14.83c-7.08.12-13.66,3.93-17.46,6.62a36.81,36.81,0,0,0-1.87,5c-1.93,6.77-7.81,19.32-14.47,30a85.79,85.79,0,0,1-9.77,13.09c-9.91,10.37-7.74,14.45-21.15,36.63-6.7,11.07-9.92,19.18-11.47,24.54a15,15,0,0,0,4.9,15.7c4.51,3.58,10.34,5.68,16.65,6.89,0-1.05.09-2.4.21-3.94.05-.77.13-1.6.21-2.45.12-1.09.26-2.23.43-3.41a57,57,0,0,1,2.61-10.89c1.65-4.57,4.8-9.47,8.16-14.46,1.44-2.15,2.92-4.31,4.33-6.47.95-1.44,1.87-2.88,2.72-4.32s1.66-2.87,2.38-4.29a39.43,39.43,0,0,0,1.84-4.24c4.06-11.18,1.74-9.73,5.8-17.27.76-1.41,1.7-3.14,2.75-5.06.7-1.28,1.46-2.65,2.25-4.06,2-3.54,4.17-7.38,6.34-10.95.87-1.42,1.73-2.81,2.57-4.11a73.62,73.62,0,0,1,4.65-6.56c1-1.25,1.93-2.35,2.73-3.32s1.47-1.77,2.08-2.45c1.41-1.57,2.41-2.35,3.37-2.36a2.19,2.19,0,0,1,1.23.42,1.67,1.67,0,0,1,.53.61,3.53,3.53,0,0,1,.31,1,15,15,0,0,1-.18,4.95,66.73,66.73,0,0,1-2.54,9.89c-.26.75-.5,1.59-.74,2.48-.11.45-.23.92-.34,1.4-.45,1.92-.84,4.06-1.14,6.28-.15,1.11-.28,2.24-.38,3.37s-.17,2.26-.21,3.37c0,.56,0,1.11,0,1.66,0,1.09,0,2.16.1,3.18s.19,2,.34,2.91a51.38,51.38,0,0,1,.78,7.75,67.36,67.36,0,0,1-.64,10.14c-.12.89-.25,1.81-.39,2.75-.56,3.78-.81,8.58-1.07,13.16a106.3,106.3,0,0,1-.94,10.71c-.07.41-.15.8-.23,1.16-.18.84-.44,1.92-.77,3.18s-.74,2.68-1.21,4.22c-.7,2.31-1.54,4.85-2.5,7.41l-.64,1.63-.36.93c-.51,1.23-1,2.45-1.59,3.63a50.59,50.59,0,0,1-2.62,4.94c11,2.54,17.6,8.58,22.16,10.64,6,2.71,12.07,4.82,24.17-3.32s27.08-5.42,46.06-5.42c9.32,0,20.15-.37,30-1a10.69,10.69,0,0,1-.31-1.21,27.86,27.86,0,0,1-.47-4.28c-.07-1.56-.08-3.24-.12-5,0-1.17-.06-2.37-.13-3.57s-.17-2.43-.33-3.65c-.08-.61-.18-1.21-.29-1.82a25.06,25.06,0,0,0-1.66-5.54c-.22-.49-.44-1-.7-1.44-2.05-3.8-3.75-7.62-5.32-11.26-.65-1.52-1.28-3-1.91-4.46s-1.26-2.86-1.9-4.2a54.16,54.16,0,0,0-3-5.64c-.37-.58-.74-1.13-1.12-1.67-1.06-1.47-2.27-3.33-3.45-5.36-.4-.67-.79-1.37-1.17-2.07s-.6-1.13-.89-1.7c-.58-1.14-1.13-2.29-1.6-3.41a20.27,20.27,0,0,1-2-7.34,3.74,3.74,0,0,1,.44-1.9,2,2,0,0,1,.56-.63,1.74,1.74,0,0,1,1.07-.4,2.83,2.83,0,0,1,2,1.37c.22.28.44.6.67,1s.45.72.68,1.12c.47.8.95,1.7,1.48,2.63s1.08,1.9,1.7,2.85c.46.72.95,1.42,1.48,2.1l.54.66a13.18,13.18,0,0,0,4.6,3.64,27.78,27.78,0,0,1,8.8,6.71,80.87,80.87,0,0,1,7.36,9.54c2.56,3.79,5.29,8.18,8.32,13.19q1.33,2.21,2.5,4.27c5.13,9,8.05,16.19,8.63,21.19a12.33,12.33,0,0,1,0,3.51l.44-.09C442.47,561.14,442,553.68,437.4,543.48Zm-114.65-49.1c-1.65,2.63-2.14,3.19-2.31,7.51s-1,9.1-3.78,8.77-5.09-8.88-2.79-18.09,6.36-22.89,9.51-22.62S324.39,491.75,322.75,494.38Zm27.81,64.76c-2.72,1.68-3.45-4.16-4.56-10.35a43.85,43.85,0,0,0-2.07-8.29c-2.93-7.24-5.71-12-4.86-20.49s-1.36-14.05.83-14.72c2.42-.74,2.18,5.63,4.34,9s5.77,5.85,4.81,20a47.46,47.46,0,0,0,1.22,13.91C351.56,554,353,557.65,350.56,559.14Zm5.83-54.5c-4.53,2.5-9.79-15.32-13-22.34s-5.4-32.14-1.29-32.71c5-.7,6.1,13.59,9.95,25.6S360.93,502.15,356.39,504.64Zm13.37-27.42c-2.3-2.56-5.26-9.3-3.78-11.28,2-2.69,7.56,2.63,7.56,8.22S372.06,479.79,369.76,477.22Z"/><path class="cls-4" d="M387.89,456.5c-.75-1.08-1.46-2.18-2.13-3.29-5-8.23-7.79-17-8.44-21.55a12,12,0,0,0-.32-1.48c-1.13-4.11-4.2-5.69-7.29-3.35-5.18,3.95-8.87,1.42-10.62-1.62a25.94,25.94,0,0,1-2.79-9.06c-.82-5.18-1.18-12.32-1.18-22.45,0-17-2.3-27.59-10.74-31.79a16.38,16.38,0,0,0-1.65-.71,14.71,14.71,0,0,0-13.32,1.41c-3.8,2.29-7.21,5.95-10.41,9.94-6.38,8-15.64,23.85-22.44,35.2-1.2,2-2.33,3.9-3.35,5.56-1.78,2.89-4.77,6.59-7.58,10.91a55.55,55.55,0,0,0-4,7.08c3.8-2.69,10.38-6.5,17.46-6.62,11-.2,10.27,9.44,13.81,14.83s8.54,5.59,12-4.43,6.95-17.34,10.5-17.34,7,6.74,9.92,16.95,8.79,19.89,13.33,17.8c2.88-1.32,4.91-12.09,12.64-1.53,6.86,9.36,13.24,16.27,18.7,11.38.19-.32.39-.66.59-1A39,39,0,0,0,387.89,456.5Z"/><path class="cls-4" d="M342.14,449.59c-4.11.57-1.89,25.68,1.29,32.71s8.43,24.84,13,22.34-.45-17.45-4.3-29.45S347.13,448.89,342.14,449.59Z"/><path class="cls-4" d="M366,465.94c-1.48,2,1.48,8.72,3.78,11.28s3.78,2.53,3.78-3.06S368,463.25,366,465.94Z"/><path class="cls-4" d="M323.38,470c-3.15-.27-7.21,13.42-9.51,22.62s0,17.76,2.79,18.09,3.62-4.44,3.78-8.77.66-4.88,2.31-7.51S326.39,470.2,323.38,470Z"/><path class="cls-4" d="M350.27,548.25a47.46,47.46,0,0,1-1.22-13.91c1-14.18-2.65-16.64-4.81-20s-1.92-9.76-4.34-9c-2.19.67,0,6.25-.83,14.72s1.93,13.25,4.86,20.49a43.85,43.85,0,0,1,2.07,8.29c1.11,6.19,1.84,12,4.56,10.35C353,557.65,351.56,554,350.27,548.25Z"/><path class="cls-4" d="M431.52,560.13c-.58-5-3.5-12.16-8.63-21.19q-1.17-2.07-2.5-4.27c-3-5-5.76-9.4-8.32-13.19a80.87,80.87,0,0,0-7.36-9.54,27.78,27.78,0,0,0-8.8-6.71,13.18,13.18,0,0,1-4.6-3.64l-.54-.66c-.53-.68-1-1.38-1.48-2.1-.62-.95-1.18-1.92-1.7-2.85s-1-1.83-1.48-2.63c-.23-.4-.46-.78-.68-1.12s-.45-.67-.67-1a2.83,2.83,0,0,0-2-1.37,1.74,1.74,0,0,0-1.07.4,2,2,0,0,0-.56.63,3.74,3.74,0,0,0-.44,1.9,20.27,20.27,0,0,0,2,7.34c.47,1.12,1,2.27,1.6,3.41.29.57.59,1.14.89,1.7s.77,1.4,1.17,2.07c1.18,2,2.39,3.89,3.45,5.36.38.54.75,1.09,1.12,1.67a54.16,54.16,0,0,1,3,5.64c.64,1.34,1.27,2.75,1.9,4.2s1.26,2.94,1.91,4.46c1.57,3.64,3.27,7.46,5.32,11.26.26.47.48.95.7,1.44a25.06,25.06,0,0,1,1.66,5.54c.11.61.21,1.21.29,1.82.16,1.22.26,2.44.33,3.65s.11,2.4.13,3.57c0,1.75.05,3.43.12,5a27.86,27.86,0,0,0,.47,4.28,10.69,10.69,0,0,0,.31,1.21c10-.66,19-1.62,24.39-2.81A12.33,12.33,0,0,0,431.52,560.13Z"/><path class="cls-3" d="M504.69,550.84c4-14.63-10.88-12.82-10.88-12.82-.42-16.58-15.08-10.86-15.08-10.86-2.11-8.93-12.76-7.24-14.73-3.44-9.36-5.7-18.61,2.1-16.68,8.47-20,3.5-14.86,19.76-14.86,19.76s-6.49-.92-10,3.65-1.26,11.76-1.26,11.76-3.77,2.1-2.93,5.45,2.3,4.19,41,4.19h50a7.72,7.72,0,0,0,6.94-4c1.18-2.31.92-5.24-4.84-7.75C511.4,565.27,515.3,554.85,504.69,550.84Z"/><path class="cls-8" d="M444.7,563.62s-1.57-4.29,1.11-5.87c3-1.77,6.16,2.6,6.16,2.6s-.37-7.53,7-3.79"/><path class="cls-8" d="M470.81,542.17s4.19-3,6.38-1.09-.57,5.91-.57,5.91,7-1,4.42,5.66"/></svg>