<svg xmlns="http://www.w3.org/2000/svg" viewBox="0 0 568.99 216.73"><defs><style>.cls-1{fill:#fbc6a6;}.cls-1,.cls-2,.cls-3,.cls-4,.cls-5,.cls-6,.cls-7{stroke:#000;stroke-linejoin:round;stroke-width:0.2px;}.cls-2{fill:#fff;}.cls-3{fill:#e5aeae;}.cls-4{fill:#b25269;}.cls-5{fill:#fff6eb;}.cls-6{fill:none;}.cls-7{fill:#ea6157;}</style></defs><title>MAIIN01</title><g id="圖層_2" data-name="圖層 2"><g id="圖層_1-2" data-name="圖層 1"><path class="cls-1" d="M23.77,100.08C43.26,81,114.31,63.7,184.18,63.73S378.31,27.09,422.71,50.29s35.81,40.52,62.3,53.3,81.58,12.07,83.52,27.08-4.21,25.06-10.68,33-20.65,27.71-52.11,30.56c-19,1.72-62.41,10.67-115.14,9.38s-84.11-1.94-123.58,3.88-50.79,14.24-73.76,5.18S162,198.41,138.63,194.21s-69.92-15.12-85.77-18.56S12.09,164.12,3,152.15s5.5-18.44,8.08-26.53S14.64,109.05,23.77,100.08Z"/><ellipse class="cls-2" cx="368.08" cy="127.16" rx="6.1" ry="2.89"/><path class="cls-3" d="M131.19,78.83a11.11,11.11,0,0,1-.59,8.7c-2.28,4.9-3.72,9.21-1.18,15.38l4.41-2.85a33.63,33.63,0,0,1,1.5-13.71c1.62-4.72.59-8.45,0-9.3Z"/><path class="cls-4" d="M125.58,73.39c.59,1.09,2.67,1.59,4.73.12,3.2-2.3,5.07,1.06,8.93-.57,2.57-1.09,1.95-4.37,4.93-5.22-1.46-2.53-3.94-5.11-4.93-7.62-1.84-4.64-4.72-9.81-9.45-9.12-6.65,1-4,12.06-4.24,16a41,41,0,0,1-1.08,5.38A2.06,2.06,0,0,1,125.58,73.39Z"/><path class="cls-5" d="M144.17,67.72c-3,.85-2.36,4.13-4.93,5.22-3.86,1.63-5.73-1.73-8.93.57-2.06,1.47-4.14,1-4.73-.12a2.06,2.06,0,0,0-1.11-1A6.74,6.74,0,0,0,125.55,78c2.71,3.82,13.68,1.52,18.6-4C145.93,72,145.42,69.87,144.17,67.72Z"/><path class="cls-6" d="M133.83,58.44c-.06,3.32,2.89,5,3.12,7.31"/><path class="cls-6" d="M126.13,74a7.3,7.3,0,0,0,1.94,5.62"/><path class="cls-6" d="M141.15,71a9.77,9.77,0,0,1,0,5.52"/><path class="cls-6" d="M129.52,74s.38,4.25,2.74,5.82"/><path class="cls-6" d="M136.45,73.37s1.51,3.82.5,5.28"/><path class="cls-7" d="M27.48,17.89c-1.47-4.05,2.92-7.73,8.14-6.48s7,.05,7.08-4.85,3.87-7.15,7-6.27,5.77,5,3.39,8.7-3.14,5.36-2,7,3.49,1.2,10.42,1.38,13.56,3,15.32,6.15,1.75,10.29-4.77,8.41-10.68-5-11.81-2.26,4.27,6.28,10.8,5.9S90.63,39.2,93,46.11s-6,7.53-11.17,6.4-8.54,2.63-3.64,5.15,22.05-2.45,29.8,3.87-.75,10.85-9.74,11.52-12.19.47-12,3.27,9.79,1.8,16,5.19,9.19,9.67,5,11.33-9.79-2.46-11.39,0,11.19,17.24,10.59,20.84-14.88,13-18.93,11S66.7,110.08,67.1,101.09s2.2-10,7-14.38,5.25-7.89.79-8.59-11.78,1-11-5.07,5-12.06,1.57-14.92-7.3.7-8.49,4.39-6.48,13.57-11.83,9c-4.69-4-.16-12.9,3-19.13C50.81,47,54.48,33,49.92,32.34s-1.8,16.12-7.72,15.43S32.36,41.52,36.58,34s8.1-12.51,6.12-14.59-5.07,1.5-8.59,2C30.86,21.76,28.45,20.59,27.48,17.89Z"/><path class="cls-6" d="M43.34,15.62C65.41,37.06,88.27,79.18,96.41,123"/><path class="cls-3" d="M128.73,115.09S116.91,108,115,94s-6.34-20.9-6.34-20.9l4.63-2s4.42,6.83,6.34,20.89,13.74,21.15,13.74,21.15Z"/><path class="cls-5" d="M87.15,67.24a17.9,17.9,0,0,0,2.39,4.12,11.29,11.29,0,0,0,8.34,4.29c5.22.29,14.81-.19,23.36-6.16a11.32,11.32,0,0,0,4.5-12.35,6.4,6.4,0,0,0-.2-.62C124.11,52.37,87.15,67.24,87.15,67.24Z"/><path class="cls-6" d="M92.84,69.29a14.25,14.25,0,0,0,6.44,6.41"/><path class="cls-6" d="M107.72,75a12.72,12.72,0,0,1-4.13-6.63"/><path class="cls-6" d="M110.08,68.4s.32,4,1.91,5.58"/><path class="cls-6" d="M118,62.83s1.74,5.37.54,8.36"/><path class="cls-6" d="M122.33,62.11a11.89,11.89,0,0,1-.23,6.72"/><path class="cls-6" d="M113.71,66.59s.65,4.75,2.55,5.76"/><path class="cls-6" d="M98.19,68.4s1.7,5.95,5.4,7.18"/><path class="cls-4" d="M98.57,27.34C111,25,126,51,125.54,57.69s-6.59,3.41-8.94,6-4.9,6-12.23,4.82c-8.68-1.37-12.06,3-17.22-1.27C83.93,57.55,84.64,29.92,98.57,27.34Z"/><path class="cls-6" d="M109.31,40.33s1.73,7.21,6.27,10"/><path class="cls-6" d="M104.18,37.06s.71,5,2.48,6.84"/><path class="cls-3" d="M445.18,61s-3.53,13.33,1.35,23.68c6.22,13.17-8.4,15.31-16.58,9-6.47-5-2.37-11.41-.67-19.72a42.32,42.32,0,0,0,.29-15.43S442.2,53.69,445.18,61Z"/><path class="cls-5" d="M433.69,89.56c1-1.4,3.69,1.3,3.77,2.79s-1.28,1-2.61-.1C434,91.57,433.24,90.22,433.69,89.56Z"/><path class="cls-4" d="M400,44.37c0-6.71,6.63-7.58,12.11-8s13.09-5.19,21.66-12.47,17.94-3.9,20.29,6.82,7.17,15.14,14.62,20.09S474.54,62,470.51,64,447,66.36,432.18,62.7,400,51.07,400,44.37Z"/><path class="cls-6" d="M432.85,31.28s-3,5.91-9.58,6.9"/><path class="cls-6" d="M432.85,36.39a9.94,9.94,0,0,1-6.87,4"/><path class="cls-6" d="M430,31.28a9.38,9.38,0,0,1-3.52,2.7"/><path class="cls-6" d="M454.91,40.39s-.25,4.87,3.36,7.34"/><path class="cls-6" d="M458.79,45.23A10.57,10.57,0,0,0,461.53,48"/><ellipse class="cls-1" cx="465.62" cy="58.97" rx="3.57" ry="1.45"/><ellipse class="cls-1" cx="452" cy="61.29" rx="1.72" ry="2.96" transform="translate(213.31 449.99) rotate(-66.17)"/><ellipse class="cls-1" cx="460.68" cy="54.72" rx="1.78" ry="1.11"/><ellipse class="cls-1" cx="411.44" cy="45.19" rx="2.75" ry="6.29" transform="translate(137.39 355.39) rotate(-54.81)"/><ellipse class="cls-1" cx="422.88" cy="54.14" rx="1.61" ry="2.66" transform="translate(134.93 368.53) rotate(-54.81)"/><ellipse class="cls-1" cx="420.4" cy="46.62" rx="1.28" ry="2" transform="translate(119.34 343.73) rotate(-50.95)"/><path class="cls-1" d="M417.51,88.41c1.75,2.29,3.47,4.56,5.2,6.8Z"/><path class="cls-1" d="M374.8,48.57l-1.42-.65,1.42.65Z"/><path class="cls-1" d="M407.66,76l.63.74h0Z"/><path class="cls-1" d="M408.29,76.77h0l.09.1Z"/><path class="cls-5" d="M228.15,61.6c19.73-2.61,24.27,2.23,41,3.35S294,58.62,305.21,46.33c2.89-3.18,5.21-5.51,7.05-7.22-5.34-2.14-10.87-4.5-27.53-4.69-32.38-.37-59.56,11.91-81.53,25.69l-.43.28A67.09,67.09,0,0,0,228.15,61.6Z"/><path class="cls-7" d="M227.55,126.55c-2.89,2.71-7.3,5.56-13.9,2.68a231,231,0,0,1-36,32.48c8.47,2.91,16.73,3.86,24.39,0,16.44-8.22,29-26.15,38.48-39.66-1.88-.56-3.73-1-5.51-1.43C232.52,123.24,229.89,124.36,227.55,126.55Z"/><path class="cls-1" d="M227.55,126.55c2.34-2.19,5-3.31,7.51-5.9a90.39,90.39,0,0,0-12.9-2l-1.91,2.51c-2.11,2.76-4.33,5.44-6.6,8C220.25,132.11,224.66,129.26,227.55,126.55Z"/><path class="cls-7" d="M319.12,128c-19.92,6.18-42.14,3.66-66.05-7.5a78.24,78.24,0,0,0-8.88-3.48c-1.86-.6-3.69-1.12-5.47-1.57a95.2,95.2,0,0,0-12.33-2.27c-1.37,1.79-2.77,3.65-4.23,5.57a90.39,90.39,0,0,1,12.9,2c1.78.4,3.63.87,5.51,1.43a72,72,0,0,1,10,3.76c16.22,7.56,31.76,11.36,46.46,11.36a80.14,80.14,0,0,0,23.87-3.57C339,128,353.19,119.2,363.21,107.4c-1.94-.86-3.79-1.75-5.58-2.67C348.38,115.09,335.51,122.87,319.12,128Z"/><path class="cls-7" d="M370.4,88.87c-.61-.36-1.23-.72-1.86-1.06A65.11,65.11,0,0,1,361.48,100q2.64,1.32,5.49,2.55A70.86,70.86,0,0,0,373.63,91C372.58,90.23,371.5,89.53,370.4,88.87Z"/><polygon class="cls-1" points="424.39 97.37 424.39 97.37 424.39 97.37 424.39 97.37"/><path class="cls-5" d="M375.1,48.72l1.21.61.57.3.94.51.61.34.94.54.57.34,1.13.71.36.23c.49.31,1,.63,1.47,1l.51.34,1,.71.59.42,1,.72.58.43,1.08.83.46.36c.51.4,1,.81,1.54,1.24l.37.3,1.22,1,.56.48,1.08.93.59.51,1.13,1,.53.47c.55.5,1.11,1,1.67,1.54s1.3,1.22,1.94,1.83l.63.62,1.25,1.25.73.75,1.1,1.15.75.81,1,1.11.75.84,1,1.11.74.85,1,1.13.63.74h0l.09.1,1,1.15c.22.28.45.56.68.83s.66.82,1,1.23l.62.76,1.51,1.91.89,1.14.64.82,1,1.35.45.59,1.28,1.66.07.1,5.2,6.8.13.16,1.55,2h0a60.85,60.85,0,0,1-.57-11c.33-9.8-3.23-12.52-5.45-16-5.72-8.84-10.7-6.46-15.28-11.82S392.93,47,384.85,44.21c-5.32-1.86-8.5,1.71-10.05,4.36h0Z"/><polygon class="cls-1" points="424.39 97.37 424.39 97.37 424.39 97.36 424.39 97.37"/><path class="cls-1" d="M128.14,138.83c-1.51-8.66,5.85-18.62,6.5-25.11s1.08-9.31,3.25-15.37a12.69,12.69,0,0,0-1.08-10.82c-.68,1.19-1.33,2.38-2,3.56-11.22,21.21-22.48,23-26.2,36.18-2.16,7.7.37,12.92,19,15.39A6.28,6.28,0,0,0,128.14,138.83Z"/><path class="cls-5" d="M164.3,150.53c6.71-13.43,1.3-21.22,3.68-32s8.23-9.31,9.72-17.75S174.6,85.05,174.56,85c-12.3,13.26-22.88,27.84-27.57,37.66-5.1,10.67-7,18-7.75,22,7.11,2.14,14.51,6,21.95,9.7A10.82,10.82,0,0,0,164.3,150.53Z"/><path class="cls-7" d="M479.18,127.27c-21.83-19.34-49.27-66.74-76.09-86.71S355.67,24.35,340.7,27.21s-37.42-9.73-65.65-11c-20.23-.9-39.9-.19-59.52,5.8-1,5.84-4.81,19.59-17.67,23.41-16.48,4.9-21.38,6.91-25.39,12.48s-5.72,12.55-12,14c-7.43,1.71-11.84,1.1-13.93.52a154.12,154.12,0,0,0-9.7,15.08,12.69,12.69,0,0,1,1.08,10.82c-2.17,6.06-2.6,8.87-3.25,15.37s-8,16.45-6.5,25.11a6.28,6.28,0,0,1-.46,3.83c1.27.17,2.62.33,4,.47a37,37,0,0,1,6,1.13c.51.14,1,.27,1.54.43.72-4,2.65-11.37,7.75-22,4.69-9.82,15.27-24.4,27.57-37.66,9-9.71,19-18.72,28.21-24.6l.43-.28c22-13.78,49.15-26.06,81.53-25.69,16.66.19,22.19,2.55,27.53,4.69,5.05,2,9.93,3.86,23.85,3.5l2.38,0h.42c.74,0,1.48,0,2.2,0h.43c.74,0,1.47,0,2.19,0h.13l2,0h.36l2,.07.42,0,1.94.1.23,0,1.77.13.32,0,1.79.17.4,0q.88.09,1.74.21l.29,0,1.58.23.27,0,1.64.29.38.07,1.59.33.31.07,1.47.35.2,0c.52.13,1,.27,1.54.42l.36.1,1.47.45.34.11,1.41.49.15.05,1.44.55.35.14c.47.19.93.38,1.4.59l.34.15,1.42.65c1.55-2.65,4.73-6.22,10.05-4.36,8.08,2.83,13.66,9.07,18.24,14.43s9.56,3,15.28,11.82c2.22,3.43,5.78,6.15,5.45,16a60.85,60.85,0,0,0,.57,11h0l.86,1.08.5.63.76,1,.6.74.73.89.64.78.71.84.69.81.69.8.74.85.66.74.88,1,.55.6c.46.5.94,1,1.41,1.49l.49.5,1,1,.61.58.91.88.65.6.9.83.67.59.93.8.67.56,1,.81.64.51,1.12.85.57.42c.56.41,1.14.82,1.72,1.21s1.1.77,1.65,1.17c3.12-.64,8.23-.69,14.78,2.79,11.21,6,14.89,12.79,20.15,18.75,4.57,5.18,7.68,15.53,4.38,20.21a90.53,90.53,0,0,0,7.38,7.17c1.85-.39,3.66-.83,5.37-1.32C513.49,164.7,501,146.61,479.18,127.27Z"/><path class="cls-1" d="M160.44,71.93c6.31-1.45,8-8.44,12-14s8.91-7.58,25.39-12.48C210.72,41.63,214.5,27.88,215.53,22a123.57,123.57,0,0,0-23.29,9.79,140.18,140.18,0,0,0-45.73,40.62C148.6,73,153,73.64,160.44,71.93Z"/><path class="cls-5" d="M309,84.41c-3-4-7.05-4.62-11.12-4.22-4.56.45-10.11-1.76-16.4,3a16.75,16.75,0,0,0-6.22,10.46,99.77,99.77,0,0,1,16.55-4.84C297.59,87.65,303.22,86,309,84.41Z"/><path class="cls-1" d="M243.84,92.56a71.11,71.11,0,0,1,13.35-10.18c-1.75,0-3.71-.09-5.85-.2-9.78-.53-15,.4-18.52,7.51a18.47,18.47,0,0,0-1.7,7.92,35.92,35.92,0,0,0,.92,8.23A132.16,132.16,0,0,1,243.84,92.56Z"/><path class="cls-1" d="M392.69,110c0-.13.06-.28.09-.42l-.45,0Z"/><path class="cls-1" d="M324.31,71.79l3.66.79.35.08c17.34,3.81,25.13,2.42,40.37,14.79l1.71,1.42h0c1.1.66,2.18,1.36,3.23,2.08a84.67,84.67,0,0,1,18.7,18.53l.45,0c1.52-7,2.23-20-8.49-26.86-12.2-7.85-16.35-23-34.21-24a31.9,31.9,0,0,0-27.92,12.63l2.15.46Z"/><path class="cls-7" d="M245.72,103.13c-1.54,7.22-3.48,5.27-7,12.27h0c1.78.45,3.61,1,5.47,1.57,1.57-2.18,3.05-4.17,4.43-5.86,6.36-7.77,16.59-13.6,26.65-17.5a16.75,16.75,0,0,1,6.22-10.46c6.29-4.72,11.84-2.51,16.4-3,4.07-.4,8.08.19,11.12,4.22a119.42,119.42,0,0,1,18-3.75q3.17-.36,6.48-.45h1.17c15.19-.08,29.12,5.28,29.12,5.28a52.43,52.43,0,0,1,4.76,2.33c.63.34,1.25.7,1.86,1.06h0l-1.71-1.42c-15.24-12.37-23-11-40.37-14.79l-.35-.08-3.66-.79-.13.08.13-.08-2.15-.46c-14.94-3-25.78-3.55-48.9,4a80.38,80.38,0,0,0-16.07,7.1,71.11,71.11,0,0,0-13.35,10.18A16.08,16.08,0,0,1,245.72,103.13Z"/><path class="cls-1" d="M238.72,115.4c3.52-7,5.46-5.05,7-12.27a16.08,16.08,0,0,0-1.88-10.57A132.16,132.16,0,0,0,232,105.84c-1.84,2.31-3.7,4.74-5.65,7.29a95.2,95.2,0,0,1,12.33,2.27Z"/><polygon class="cls-1" points="324.18 71.87 324.31 71.79 324.31 71.79 324.18 71.87"/><path class="cls-7" d="M392.33,109.48a85,85,0,0,1-16.11-3.5c-3.25-1-6.33-2.19-9.25-3.44q-2.85-1.23-5.49-2.55A97.16,97.16,0,0,1,334.66,80.2h-1.17q-3.32.09-6.48.45a100.27,100.27,0,0,0,30.62,24.07c1.79.92,3.64,1.81,5.58,2.67a112.44,112.44,0,0,0,11.21,4.25,89.68,89.68,0,0,0,22.51,4.22c-1.37-2-2.78-4-4.24-5.92Z"/><path class="cls-5" d="M469.15,141.15c6.45,7.44,12.62,15.15,18.49,21.44,3.3-4.68.19-15-4.38-20.21-5.26-6-8.94-12.79-20.15-18.75-6.55-3.48-11.66-3.43-14.78-2.79C455.57,126.12,462.51,133.49,469.15,141.15Z"/><path class="cls-1" d="M448.33,120.84q-.82-.6-1.65-1.17c-.58-.39-1.16-.8-1.72-1.21l-.57-.42-1.12-.85-.64-.51-1-.81-.67-.56-.93-.8-.67-.59-.9-.83-.65-.6-.91-.88-.61-.58-1-1-.49-.5c-.47-.49-.95-1-1.41-1.49l-.55-.6-.88-1-.66-.74-.74-.85-.69-.8-.69-.81-.71-.84-.64-.78-.73-.89-.6-.74-.76-1-.5-.63-.86-1.08h0l-1.55-2-.13-.16c-1.73-2.24-3.45-4.51-5.2-6.8l-.07-.1-1.28-1.66-.45-.59-1-1.35-.64-.82-.89-1.14-1.51-1.91-.62-.76c-.33-.41-.65-.82-1-1.23s-.46-.55-.68-.83l-1-1.15-.09-.1a48.87,48.87,0,0,0,2.14,30.08c.36.85.72,1.63,1.09,2.38a30.42,30.42,0,0,0,3.39,5.46c5.86,7.41,12.83,7.63,18.91,13.4,7.73,7.32,8.55,13.22,17.7,14.64a37.68,37.68,0,0,0,10.32.27,28.34,28.34,0,0,0,7.31-1.85C462.51,133.49,455.57,126.12,448.33,120.84Z"/><path class="cls-7" d="M487.64,162.59c-5.87-6.29-12-14-18.49-21.44a28.34,28.34,0,0,1-7.31,1.85,37.68,37.68,0,0,1-10.32-.27c-9.15-1.42-10-7.32-17.7-14.64-6.08-5.77-13.05-6-18.91-13.4a30.42,30.42,0,0,1-3.39-5.46c-.37-.75-.73-1.53-1.09-2.38a48.87,48.87,0,0,1-2.14-30.08l-.63-.74-1-1.13-.74-.85-1-1.11-.75-.84-1-1.11-.75-.81L401.34,69l-.73-.75L399.36,67l-.63-.62c-.64-.61-1.28-1.23-1.94-1.83s-1.12-1-1.67-1.54l-.53-.47-1.13-1-.59-.51-1.08-.93-.56-.48-1.22-1-.37-.3c-.52-.43-1-.84-1.54-1.24l-.46-.36-1.08-.83-.58-.43-1-.72-.59-.42-1-.71-.51-.34c-.49-.34-1-.66-1.47-1l-.36-.23-1.13-.71-.57-.34-.94-.54-.61-.34-.94-.51-.57-.3-1.21-.61-.3-.15-1.42-.65-.34-.15c-.47-.21-.93-.4-1.4-.59l-.35-.14-1.44-.55-.15-.05L368.29,46l-.34-.11-1.47-.45-.36-.1c-.51-.15-1-.29-1.54-.42l-.2,0-1.47-.35-.31-.07L361,44.07l-.38-.07L359,43.71l-.27,0-1.58-.23-.29,0q-.86-.12-1.74-.21l-.4,0L352.92,43l-.32,0-1.77-.13-.23,0-1.94-.1-.42,0-2-.07h-.36l-2,0h-.13c-.72,0-1.45,0-2.19,0h-.43c-.72,0-1.46,0-2.2,0h-.42l-2.38,0c-13.92.36-18.8-1.47-23.85-3.5-1.84,1.71-4.16,4-7.05,7.22C294,58.62,285.85,66.06,269.13,65s-21.25-6-41-3.35a67.09,67.09,0,0,1-25.38-1.21c-9.25,5.88-19.19,14.89-28.21,24.6,0,.06,4.61,7.33,3.14,15.74s-7.34,6.93-9.72,17.75,3,18.62-3.68,32.05a10.82,10.82,0,0,1-3.11,3.86,140.19,140.19,0,0,0,16.51,7.32,231,231,0,0,0,36-32.48c2.27-2.58,4.49-5.26,6.6-8l1.91-2.51c1.46-1.92,2.86-3.78,4.23-5.57,2-2.55,3.81-5,5.65-7.29a35.92,35.92,0,0,1-.92-8.23,18.47,18.47,0,0,1,1.7-7.92c3.55-7.11,8.74-8,18.52-7.51,2.14.11,4.1.17,5.85.2a80.38,80.38,0,0,1,16.07-7.1c23.12-7.5,34-7,48.9-4A31.9,31.9,0,0,1,350.08,58.7c17.86,1,22,16.12,34.21,24,10.72,6.89,10,19.83,8.49,26.86,0,.14-.06.29-.09.42,1.46,1.93,2.87,3.91,4.24,5.92,10.36,15.18,18.27,32,26.74,43.21,15.59,20.59,28.07,15,36.8,14.35,7.59-.54,22.24-1.08,34.55-3.67A90.53,90.53,0,0,1,487.64,162.59Z"/><path class="cls-7" d="M258.91,180a3.6,3.6,0,0,0,.51-7h0l3.36-1.57a3.6,3.6,0,0,0-.71-6.76l-3.61-.85,3.1-1.84a3.6,3.6,0,0,0-1.38-6.66l-3.57-.46,2.72-2.05a3.6,3.6,0,0,0-2.16-6.47h-3.4l2.2-2.21a3.59,3.59,0,0,0-3.09-6.09l-3.07.46,1.58-2.25a3.6,3.6,0,0,0-4.16-5.45l-2.58.92,1-2.27a3.6,3.6,0,0,0-5.25-4.44l-2.08,1.32.42-2.44a3.6,3.6,0,0,0-6.12-3.12l-1.73,1.78-.14-2.77a3.6,3.6,0,0,0-6.63-1.73l-1.49,2.34-.76-3.06a3.6,3.6,0,0,0-6.81-.53l-1.22,2.92-1.22-2.91a3.6,3.6,0,0,0-6.81.52l-.75,3.06-1.49-2.35a3.6,3.6,0,0,0-6.63,1.74l-.15,2.76L195,120.83a3.6,3.6,0,0,0-6.12,3.12l.42,2.44-2.08-1.33A3.6,3.6,0,0,0,182,129.5l1,2.28-2.57-.93a3.6,3.6,0,0,0-4.16,5.46l1.57,2.24-3.06-.46a3.59,3.59,0,0,0-3.09,6.09l2.2,2.21h-3.4a3.59,3.59,0,0,0-2.16,6.46l2.72,2.06-3.58.46a3.6,3.6,0,0,0-1.38,6.66l3.11,1.84-3.63.85a3.6,3.6,0,0,0-.71,6.76l3.37,1.59h0a3.6,3.6,0,0,0,.51,6.95,207.32,207.32,0,0,0,45.1,4.77C235.08,184.8,258.91,180,258.91,180Z"/><path class="cls-6" d="M226.21,142.53s1.87-5,4.7-3.28,0,6,0,6"/><path class="cls-4" d="M160.94,180.89c17.15,0,29.06-5.2,29.06-5.2a2.32,2.32,0,0,0,.33-4.48h0l2.17-1a2.31,2.31,0,0,0-.46-4.35l-2.33-.55,2-1.18a2.32,2.32,0,0,0-.89-4.3l-2.3-.29,1.75-1.33a2.31,2.31,0,0,0-1.39-4.16h-2.19l1.42-1.42a2.32,2.32,0,0,0-2-3.93l-2,.3,1-1.45a2.32,2.32,0,0,0-2.68-3.51l-1.66.59.62-1.46a2.32,2.32,0,0,0-3.38-2.87l-1.34.86.27-1.57a2.33,2.33,0,0,0-4-2l-1.11,1.15-.09-1.78a2.32,2.32,0,0,0-4.28-1.12l-.95,1.51-.49-2a2.32,2.32,0,0,0-4.39-.34l-.79,1.88-.78-1.88a2.32,2.32,0,0,0-4.39.34l-.49,2-1-1.51a2.32,2.32,0,0,0-4.27,1.11l-.09,1.79-1.12-1.15a2.32,2.32,0,0,0-3.94,2l.27,1.57-1.34-.86a2.32,2.32,0,0,0-3.38,2.86l.62,1.47-1.66-.6a2.32,2.32,0,0,0-2.68,3.52l1,1.45-2-.31a2.32,2.32,0,0,0-2,3.93L135.2,154H133a2.32,2.32,0,0,0-1.39,4.17l1.76,1.32-2.31.3a2.32,2.32,0,0,0-.89,4.29l2,1.19-2.33.55a2.31,2.31,0,0,0-.46,4.35l2.17,1h0a2.32,2.32,0,0,0,.33,4.48S143.67,180.89,160.94,180.89Z"/><path class="cls-1" d="M146.33,148.46s-3,5.88,6.56,5.31a27.4,27.4,0,0,0,16-6.78s5.05-6.34,3.61-17.16-7.94-12.56-10.25-6.78c0,0-4.18-4.37-8.08-2.4s-3,6.5-2.5,7.91a6.89,6.89,0,0,0-5.82,3.57c-1.67,3.26.45,6.78.45,6.78a5.5,5.5,0,0,0-3.52,4.91A4.66,4.66,0,0,0,146.33,148.46Z"/><circle class="cls-4" cx="154.7" cy="133.94" r="1.2"/><circle class="cls-4" cx="159.81" cy="132.74" r="1.2"/><circle class="cls-4" cx="154.04" cy="139.4" r="1.21"/><line class="cls-1" x1="155.25" y1="139.4" x2="161.19" y2="141.05"/><line class="cls-1" x1="159.81" y1="133.94" x2="162.59" y2="140.22"/><line class="cls-1" x1="155.61" y1="134.7" x2="161.94" y2="140.61"/><path class="cls-6" d="M168.92,147s10.52,6.82,11.61,37.49"/><path class="cls-5" d="M174.73,141.61a19,19,0,0,0,.37,14.29S179.68,147.82,174.73,141.61Z"/><path class="cls-5" d="M164.55,158a11.8,11.8,0,0,1,5.22,3.68,9.08,9.08,0,0,0,8.22,2.91,11.89,11.89,0,0,0-5.53-6.59A8.58,8.58,0,0,0,164.55,158Z"/><path class="cls-1" d="M159.75,147s-3.61,1.2-4.26-1.49,2.3-3,2.3-3-1.41-2.61,0-4a3.38,3.38,0,0,1,4.47,0,5.82,5.82,0,0,1,.93-5.57,3.71,3.71,0,0,1,6.58,2.51"/><path class="cls-1" d="M185.44,125.68c6.59-1.25,8.42,5.57,8.42,5.57s1.81-5.9,7-5.92c4.28,0,6.16,5.5,6,7.41,0,0,5.32-1,8.39,2,3.23,3.13.72,9.13.72,9.13s5.88.77,6.14,4.92c.31,5.06-5.8,10.15-18.13,8.86s-20.08-6.08-22.9-15.75S181.58,126.41,185.44,125.68Z"/><polyline class="cls-1" points="201.59 135.4 200.57 145.89 210.73 141.61"/><line class="cls-1" x1="207.56" y1="136.8" x2="200.58" y2="145.89"/><circle class="cls-4" cx="201.64" cy="134.07" r="1.33"/><circle class="cls-4" cx="212.29" cy="140.91" r="1.52"/><circle class="cls-4" cx="208.43" cy="135.4" r="1.52"/><path class="cls-1" d="M188.16,142.66s1.11-5.69,6.36-5.85,5.95,7.45,5.95,7.45,4.5-3.61,7.09-1.6,0,6.09,0,6.09,3.93-.74,4.35,1.71-2.11,3.57-5.07,3.35"/><path class="cls-2" d="M275.9,163.37c-.68-2.72,4.66-5.21,10-5.19s8.91,1.6,9.17,3.6-7.18,3.33-11.83,3.53S276.43,165.5,275.9,163.37Z"/><path class="cls-4" d="M369.66,121.94s0,35.32,27.27,43.45c0,0,1.06-19.56-12.16-30.28S369.66,121.94,369.66,121.94Z"/><path class="cls-6" d="M374.18,131.25c7.61,18.14,16.58,20.35,22.75,34.14"/><path class="cls-2" d="M266.9,155c-.47-2.17,4.07-3.7,6.41-2.34s1.35,3.68-1.23,3.87S267.27,156.73,266.9,155Z"/><path class="cls-7" d="M13.91,81.43C9.64,79,10.38,71.16,16.2,68.76c4.66-1.92,7.76-.1,6.67-6.24-.89-5,1.77-7.67,4.32-7.68,2.76,0,5.25,2.25,4.63,7.68s4.37,5.81,6.45,0,7.75-5.8,9.81-1.82c2.88,5.56-3.36,9.75,0,13.45s18.66-5.38,25-.34,1,9.76-5.21,12.45S61,93.49,65.4,93.65s19.39-2.72,23.71,5.22c3.73,6.86-2.47,8.47-6.39,9.75-4.78,1.56-5.89,7.06.84,8.07s16.36-2.13,28.89,4c9.65,4.68-.91,14.48-13.59,14.48-10.26,0,.83,15.89-4.87,33.21,0,0-8.24-10.17-9.55-15-1.94-7.09.59-10.72-2.2-11.77-3.94-1.49-2.71,14.49-10.11,12.78s-2.66-18.67-2.26-25.83-1.11-10.42-3.8-8.87-2.22,8.79-4.37,11.85c-3.29,4.68-9.87,1.61-10.36-4.18-.73-8.57,5.29-15.92,4.83-22.44-.34-4.86-6.73-5.92-7.07-.2s-2.2,14.16-7.08,12,1.13-17.32,1.32-22.53-2-9.08-5.52-7.4-1.1,12-6.56,9.42c-4.8-2.28-4.74-11.77-3.64-15.07,2.08-6.18-1.82-7.22-3.85-5.12C20.94,78.91,18.27,83.94,13.91,81.43Z"/><path class="cls-6" d="M26,69.24s55,19,68,99.1"/><path class="cls-4" d="M406.86,106s18.29,43.18-11.2,61.84C395.66,167.79,389.9,125.5,406.86,106Z"/><path class="cls-6" d="M404.64,132.3a76.68,76.68,0,0,1-9,35.49"/><path class="cls-4" d="M434.4,141.55s-10.46,26.23-34.24,20.07C400.16,161.62,404.35,140.52,434.4,141.55Z"/><path class="cls-6" d="M421.42,149.39a73,73,0,0,1-21.26,12.23"/><path class="cls-4" d="M103.09,108.9c4.8-1.23,6.87-3.7,7.76-5.6-2.07-7.25-8.42-16.92-13.38-15.66-5.35,1.36-6.76,13.15-5.21,20.08C94.08,108.89,97.62,110.3,103.09,108.9Z"/><path class="cls-5" d="M110.85,103.3c-.89,1.9-3,4.37-7.76,5.6-5.47,1.4-9,0-10.83-1.18a10.23,10.23,0,0,0,1.6,3.93c3.61,4.62,18.17,2.17,17.65-4.9A16.76,16.76,0,0,0,110.85,103.3Z"/><path class="cls-6" d="M102.09,109.13a42.3,42.3,0,0,1,.61,4.73"/><path class="cls-6" d="M108.88,106a11.73,11.73,0,0,1,.76,5"/><path class="cls-6" d="M105.79,108a10.53,10.53,0,0,1,.71,4.91"/><path class="cls-6" d="M98.23,109.45s0,3,1.24,4.52"/><path class="cls-6" d="M95,109a6.74,6.74,0,0,0,1.54,4.44"/><path class="cls-2" d="M297.22,111c-2.15-2,1-5.77,6.41-6.23s6.71,1.6,5.38,3.12C305.87,111.4,299,112.56,297.22,111Z"/><ellipse class="cls-2" cx="316.41" cy="111.67" rx="3.68" ry="2.01" transform="translate(-10.09 34.33) rotate(-6.11)"/><path class="cls-2" d="M322.16,104c.14-3,10.81-4.41,12.5-1.47.82,1.43-1,2.68-3.85,3.41S322,106.45,322.16,104Z"/><path class="cls-5" d="M509.32,132.7s-1.79,9.06,3.88,22.79,2.85,20.74-6.56,23.59c-8.84,2.67-31.82,4.12-34.78-9.33-2.39-10.82,11.21-20.16,12.09-39.38S508.63,120.15,509.32,132.7Z"/><path class="cls-6" d="M506,165s1.33,5.73,0,9.24"/><path class="cls-6" d="M509.61,165s.8,4.12,0,6.51"/><path class="cls-6" d="M503.12,168.22a11.18,11.18,0,0,1,0,4.45"/><path class="cls-3" d="M439.16,105.57c.16-9.53,11.92-10,20.69-10.9s15.29-2.4,29.72-12.69,26.21,3.82,33.48,12.69,14.52,10.71,22.18,15.06,9.67,14.39-7.88,19.4-47.54,5.86-74.49-4.84C447.08,118,439,113.36,439.16,105.57Z"/><path class="cls-6" d="M510.93,92.62a23.34,23.34,0,0,0,10.31,12.92"/><path class="cls-6" d="M517.63,98.16s2.71,4.77,6.71,6.71"/><path class="cls-6" d="M482.82,94.55a25.13,25.13,0,0,1-11.25,6.06"/><path class="cls-6" d="M482.82,90.56s-2.19,2.58-3.48,3.09"/><path class="cls-6" d="M524.34,101.18a10.66,10.66,0,0,0,1.68,1.63"/><path class="cls-1" d="M529,116.91c-.3-2.42,4.64-4,8.23-3.26s5.13,2.53,4,3.75-3.75,2.09-6.76,1.86S529.12,118.22,529,116.91Z"/><path class="cls-1" d="M516.09,123.11c0-2,4.31-3,6.67-1.88s.66,3.59-2.36,4S516.05,124.39,516.09,123.11Z"/><path class="cls-1" d="M454.07,102c.49-1.39,4.58-.75,7.35.81,2.34,1.32,6.78,2,6.86,4.71s-3,2.13-5.49,1.22S453,105.06,454.07,102Z"/><ellipse class="cls-1" cx="538.53" cy="124.3" rx="2.11" ry="1.22" transform="translate(-13.63 100.15) rotate(-10.49)"/><path class="cls-3" d="M230.78,177.67s-3.28.94-9.12,6.06-24,9.7-34,.75,4.87-17.77,18.13-19C218.59,164.27,225.66,169.86,230.78,177.67Z"/><path class="cls-6" d="M185.44,182s15.93-7.73,38.37-4"/><path class="cls-6" d="M207.56,169.76a15.85,15.85,0,0,1-8.44,8.25,20.31,20.31,0,0,1,8.44,5.93"/><path class="cls-6" d="M215.51,172.66a10.88,10.88,0,0,1-6.38,4.34s5,2.84,6.89,6.94"/><path class="cls-6" d="M221.56,174.9a5.36,5.36,0,0,1-3.49,2.37,8.07,8.07,0,0,1,2.77,3.9"/><path class="cls-3" d="M135.69,166.1c4.13,5,8.3,17.84,20.4,21,14.56,3.78,19.24-2.7,27.86-1.49,0,0-1.44-14.53-17.24-21.31S135.69,166.1,135.69,166.1Z"/><path class="cls-6" d="M147.52,169.76A60.24,60.24,0,0,1,184,185.58"/><path class="cls-6" d="M162.38,184.48c-.14-.53,4.46-5.25,12.54-5.82a13,13,0,0,1-2.57-7.13"/><path class="cls-6" d="M154.08,179.87s4.48-5.28,13.72-5c0,0-2.76-1.48-3.26-6.56"/><path class="cls-6" d="M147.52,175.65c.6-.38,4.9-4.37,10.75-4.12a7,7,0,0,1-3.06-6.06"/><path class="cls-3" d="M201.85,148.46s7.31,31-17.73,37.12c0,0-7.62-9.33-3.42-20.11S201.85,148.46,201.85,148.46Z"/><path class="cls-6" d="M196.8,156.55s-1.6,13.55-12.68,29"/><path class="cls-6" d="M185.44,168.34s3.47,5.28,2.91,10.68c0,0,3.62-3.29,7.4-2.76"/><path class="cls-6" d="M189.49,162.68s3,3.5,2.17,10c0,0,3.12-4.09,6.57-4.32"/><path class="cls-6" d="M193.14,158c.78.27,2.07,2,2.28,4.7,0,0,1.77-2.22,3.59-2.35"/><path class="cls-3" d="M311.59,158.79a71.36,71.36,0,0,0,9.15,12.6c8.07,9,15.12,14.8,39.05,14.8,0,0-3.32-13.62-16.75-19.14S318.06,162.86,311.59,158.79Z"/><path class="cls-6" d="M359.79,186.19c-13.81-14.36-33.5-15.82-33.5-15.82"/><path class="cls-3" d="M348.36,126.88s.71,2-2.45,13.68c-3.89,14.38,1.07,33.29,13.88,45.63,0,0,1.52-4.11,3.42-9.93C365.69,168.62,371.23,146.81,348.36,126.88Z"/><path class="cls-6" d="M353.36,142.12s6.54,10.23,6.43,44.07"/><path class="cls-3" d="M405.22,156.28s-18.73,8.5-26.5,17.19-19.22,12.76-19.22,12.76,6.74,1,14.91,2.46C386.33,190.85,407.07,191.28,405.22,156.28Z"/><path class="cls-6" d="M398.46,168.37s-8.53,15.49-33.34,14.89"/><path class="cls-3" d="M382,128.32c6.11,7.15,16.39,42.39-22.18,57.87,0,0-.49-20.28,8.38-33.22A155.64,155.64,0,0,0,382,128.32Z"/><path class="cls-6" d="M380.58,149.39s-1.56,11.49-20.79,36.8"/><path class="cls-3" d="M85.6,142.18s-4.48,7.48,3.87,10.94,23.71.44,23.71.44A10.5,10.5,0,0,0,126,151.49c10.2,3.66,21.52-7,14.64-20,0,0,5.72-10.58-4-13.44,0,0-2.58-11.86-13.4-6.21,0,0-1.65-6.16-8.88-5.42-6.9.7-8,5.8-8,5.8s-6.91-2.69-11.81,1c-5.71,4.24-3.53,11-3.1,14.08,0,0-7,0-8.37,5.82A9,9,0,0,0,85.6,142.18Z"/><path class="cls-6" d="M99.6,139.46s7.18,8.67,8,32.86"/><path class="cls-6" d="M96.56,142.92c.28.7,1.68,14.31,10.16,18.55"/><path class="cls-6" d="M100.11,130.19s-1.1-2.18,0-2.89,2,.86,2,.86-.31-3.42,1.46-3.32,2.05,3.41,2.05,3.41"/><path class="cls-6" d="M122.86,123.84s2.8-3.13,4.16-1.94c1,.84-.83,4.07-.83,4.07s1.66-2.68,3.13-1.76-1.47,5.08-1.47,5.08"/><path class="cls-6" d="M110.53,139.46s3.6,10.73,3.18,34.32"/><path class="cls-6" d="M106.72,140.52s1.79,21.86,7,23.18"/><path class="cls-6" d="M116.8,140.52s-.82,14,2.58,15.37"/><path class="cls-6" d="M121,141.24s-2.81,19.29-2.35,31.08"/><path class="cls-6" d="M125.55,175.36s3.5-26.26,0-35.44"/><path class="cls-2" d="M464.1,182.89c-.34-1.56,2.9-2.64,4.57-1.68s1,2.63-.88,2.77S464.36,184.12,464.1,182.89Z"/><ellipse class="cls-2" cx="31.42" cy="120.83" rx="4.23" ry="2.12"/></g></g></svg>