<svg id="圖層_1" data-name="圖層 1" xmlns="http://www.w3.org/2000/svg" viewBox="0 0 1110 738"><defs><style>.cls-1{fill:#ddd658;}.cls-1,.cls-10,.cls-3,.cls-4,.cls-5,.cls-6,.cls-7,.cls-8,.cls-9{stroke:#000;stroke-linejoin:round;stroke-width:0.33px;}.cls-2{fill:#b8bf30;}.cls-3{fill:none;}.cls-4{fill:#5b9348;}.cls-5{fill:#ecb36f;}.cls-6{fill:#fff6eb;}.cls-7{fill:#d3e296;}.cls-8{fill:#237a50;}.cls-9{fill:#c19165;}.cls-10{fill:#fff;}</style></defs><title>main03</title><path class="cls-1" d="M181.56,483.6c5-11.78,26.69-11.25,44.8-22.71S274,441,306,439.17s56.72-29.24,85.08-26.39,241.75-26.9,334.06,7.35,124.26,33.35,156.06,46,66.88,27,73.67,37.86S956.27,526,931,540.66s-56.35,35.17-89.56,44.24-87.53,30.44-129.68,23-137.65,14.42-188.16,11.78-81.37-17.9-108.35-17.36c-36.88.73-81.49-29.09-127.87-38.93C233.77,552,169.82,511.45,181.56,483.6Z"/><path class="cls-2" d="M650.3,434.75c4.87-7,31.21-103.46,69-146.25s47.6,7.78,61,31.12,38.26,91.8,55.38,109.69,29,45.49,43.28,59.31,9,19.08,0,23.06-35.69,13.77-65.94,9.26-142.27-11.59-155.49-13.1S650.3,434.75,650.3,434.75Z"/><path class="cls-3" d="M650.3,434.75c4.87-7,31.21-103.46,69-146.25s47.6,7.78,61,31.12,38.26,91.8,55.38,109.69,29,45.49,43.28,59.31,9,19.08,0,23.06-35.69,13.77-65.94,9.26-142.27-11.59-155.49-13.1S650.3,434.75,650.3,434.75Z"/><path class="cls-3" d="M750,294.74c.3,7,9,12.52,10.82,20.46"/><path class="cls-3" d="M768.37,324.67c-.79,6.42,9.9,10.39,12,23.83"/><path class="cls-3" d="M762.08,305s4.36,5.26,5.28,9.23"/><path class="cls-3" d="M815.23,439.84s4.28,14.05,12.53,18"/><path class="cls-3" d="M831.73,448.85s8.25,17,18.94,24.29"/><path class="cls-3" d="M855,480.78s3.36,5.19,7.33,6.41"/><path class="cls-4" d="M790.94,340.66a14.26,14.26,0,0,0,7.84-4.28c3.58-3.77,6.42-2.53,7.32-.05s-2,5.57-1.89,9.36-5,9.21-8.5,7.37-7-4.58-5.88-8.49Z"/><path class="cls-4" d="M773.58,328.2c2.41-1,6-1.17,7.08,2.08s.11,4.51,2.7,6.13,4.48,3.45,4.71,7.39-1.33,6.85-4.51,5.54-7.76.37-9.58-3.71-2.22-8.52-3.09-11.07S772.11,328.82,773.58,328.2Z"/><path class="cls-4" d="M767.5,352.3c2.82-4,7-1.44,7.88.89s2.92,2.76,6.18,5.23a8.38,8.38,0,0,1,3.05,8.8c-.59,2.74-1.78,7.2-9.05,5s-3.27-9.47-6.7-11.84S765.63,354.93,767.5,352.3Z"/><path class="cls-4" d="M762.28,377c1.42-3.27,5.54-4.5,7.57-2.78s5.25,6.7,7.63,10.2,2,14.49-1.17,14.45-4.21,1.9-9.42-2.92S756.34,390.61,762.28,377Z"/><path class="cls-4" d="M782.35,373.2s-.63-5.1,5.09-9.27,13-3.73,13.67-.21.52,5-2,8.56-10.28,10.25-13.54,7.86S782.35,373.2,782.35,373.2Z"/><path class="cls-5" d="M791.34,331.09c3.85,1.13-1.37,15.13-4.35,35.6-4.07,27.94-10.85,43.53-10.85,43.53l-4-2.17s2.67-21.19,7.38-34.14C785.78,356.57,786.11,329.55,791.34,331.09Z"/><path class="cls-4" d="M791.06,332.82c-1.74-.21-4.81-1.72-5.26-7.86s1.06-10.11,3.26-11c2.46-1,7.34-1,7.44,3.24s4.71,7.12,3,10.88A8.45,8.45,0,0,1,791.06,332.82Z"/><path class="cls-4" d="M816.28,346.78c3.5.32,6.52.42,6.37,4.62s-2.2,8.22-1.52,11.51-4.3,3.49-8,1.11a8,8,0,0,1-1.91-11.36C813.82,348.89,813.66,346.53,816.28,346.78Z"/><path class="cls-4" d="M821.08,370.59c0-4.29,6.79-4.52,10-3.84s7.38,2.34,7,6.33-1.7,6.47-5.74,6.11S821,378.27,821.08,370.59Z"/><path class="cls-4" d="M794.8,362.29c2.14-4.82,3.81-6.4,7.2-6.49s1,5.71,1.93,7.79,4.63,1.89,5.14,4.9-.5,7.41-2.88,8.12-6.66,1.12-10.07-4.38C794,368.81,793.52,365.17,794.8,362.29Z"/><path class="cls-4" d="M808.4,379.42c1.83-4.21,10.94-3.7,12.26-.82s1.76,5.35,5,6.9,2.73,6.74-1,7.76-9.08,2.07-13.13-1.45S806.35,384.14,808.4,379.42Z"/><path class="cls-4" d="M793,387.49c1.52-2.3,2.1-4.49.87-7.26s-2.8-3.8-2.91-8.54-3-5.52-6.31-4.47-8.24,5.63-5.58,11.31,2.86,5.9,7.81,8.32S793,387.49,793,387.49Z"/><path class="cls-4" d="M793.5,393.19c1-5,8.21-4,11.53-2s1.9,5.43,5.53,8.36,2.61,6.83-1.4,7-10.1-1.1-12.76-6.45S792.85,396.31,793.5,393.19Z"/><path class="cls-4" d="M784.9,403.19c1.23-2.53,9-3.23,11.1.55s.89,4.82,3.54,7.75,2.8,4.61.21,7.67-7.77-1.48-12.89-3.71-3.68-4.07-3.42-7.26A11.42,11.42,0,0,1,784.9,403.19Z"/><path class="cls-4" d="M769.5,385.71c1.47-2.21,6.27-2.44,7.09.74s6.53,3.56,7.12,6.37,2.45,8.14-1.56,10.47-8.45-.43-10.72-5S766.27,390.56,769.5,385.71Z"/><path class="cls-5" d="M827.24,361.05c3.13,4.46-13.81,13.69-23.32,23.5s-16.7,17.18-20.48,24.94l-5.3-3.87s11.1-15.9,22.15-26.1C810.5,370.11,824.81,357.59,827.24,361.05Z"/><path class="cls-4" d="M825.83,362.26s-1.74-2.23,1.19-9,3-6.22,8.15-6.26,8.85.72,7.29,6.24-4.07,9-8.6,9.24S827.69,363.38,825.83,362.26Z"/><path class="cls-4" d="M842.88,400.31c-1.56-2-.59-5.1-3.2-8.85s-.66-8.77,4.29-9.88,11.18-4.67,12.62-1.32-1.91,6.08-1.93,8.95-2.59,9.92-7.18,10.51Z"/><path class="cls-4" d="M822,387c1.39-3.06,3.86-9.4,6.5-8.29s5.33,1.87,5.08,6.8.22,7.85-1.57,11.84-1.78,6.17-5.24,6.3-8,.66-8.43-5.33S821.08,388.92,822,387Z"/><path class="cls-4" d="M820.54,407c3.7-1.58,3.93,1.46,9.47,4.69s2.76,7.15,5,10.64,3.46,9.26.11,11-7-5.2-12.43-6.79-6.84-6.41-5.42-11S816.78,408.65,820.54,407Z"/><path class="cls-4" d="M799.54,412.78c3.2-1.61,9.54,1.66,11.15,5.64s-.78,7.81,1.59,11.79.47,7.65-3.67,8.44-4.7-4.5-7.7-6.35-10.44-5.4-8.54-14.52S799.54,412.78,799.54,412.78Z"/><path class="cls-4" d="M842.57,403.93l-2.5,9.16c-1.22,4.48.74,7.84,4.74,9.08s2.7,4.12,6.29,4.32,8.21-1.34,6.94-6.25-6.22-12.5-10.69-16.22S842.57,403.93,842.57,403.93Z"/><path class="cls-5" d="M856.88,400.38c.24,5.68-26.21,4.37-47.2,10.81s-26.12,12.14-26.12,12.14-4.34-2.12.37-8.42,27.28-12,40.43-13.82c5.58-.76,12.24-1.71,18.08-2.24C850.37,398.11,856.78,398.13,856.88,400.38Z"/><path class="cls-4" d="M854.38,400.76s-.65-2.3,3.32-6.38,5.57-7.5,9.52-5.37,9.09,4.86,5.46,12.9-3.09,11.56-7.5,10.24-9.76-3.17-10.35-6.64A20.38,20.38,0,0,1,854.38,400.76Z"/><path class="cls-6" d="M730.75,462.4c6.63,3.39,6.94,9.09,13.13,11.45,4.41,1.67,8.68-1.59,16.42-1.4,15.81-25.68,33.46-58.76,21.85-69.16-17.3-15.51-48.62,19.06-61.66,35.61a172,172,0,0,0-11.31,16.29C717.1,459.66,724.13,459,730.75,462.4Z"/><path class="cls-1" d="M760,410.46s4,1.24,5.42,3.25"/><path class="cls-1" d="M756.09,416.53s6.77,3.14,9.64,7.08"/><path class="cls-1" d="M756.62,422.79a11.66,11.66,0,0,1,3.91,2.25"/><path class="cls-1" d="M759.17,438.71a25.42,25.42,0,0,1,6.42,7.48"/><path class="cls-1" d="M737.88,442.92s5.48,2.32,7.82,5"/><path class="cls-1" d="M750.47,451.59a9.68,9.68,0,0,1,2.26,3.06"/><path class="cls-1" d="M695.14,453.48s6.11-2.76,14,1.71,15,3.82,21.58,7.21,6.94,9.09,13.13,11.45,12.1-5,27.67,1.07"/><path class="cls-4" d="M737.11,347.87s-2.67-.52-5.91-1.39-2.47-3.87-1.93-6-2-2.19-1.95-6.35,2.23-7,4.59-6.49,3.33,1.22,3.82,5.31,4.54,6.91,4.69,11Z"/><path class="cls-4" d="M747.91,335.86a16,16,0,0,1-5.65-1.41c-3.67-1.56-2.1-4.88-3.22-7.66s.54-7.4,3.47-7.11,6.59.32,6.84,3.83,3.82,5.75,3.07,9.12S747.91,335.86,747.91,335.86Z"/><path class="cls-4" d="M758.85,329.12a8.83,8.83,0,0,1-4.72-4.32c-1.27-2.95,1-5.79,1-8.26s1.88-5,5.15-4.12,6.26,1.11,5.63,4.43a35.09,35.09,0,0,0-.24,9.34C765.92,328,761.92,330.57,758.85,329.12Z"/><path class="cls-4" d="M754.1,338.6s5.14-.62,7.17,2.56,2.2,5.08,4.72,5.72,4.31,4.33,2.21,6.47-6.83,3.51-9.88.22-4.88-3.31-6.52-6S749.61,340.09,754.1,338.6Z"/><path class="cls-4" d="M742.34,350.38s5.59-.48,8.45,1.66,3.69,5,5.25,6.71,1.07,5.1-2.79,5.13-4.66-1-7.84-1.73-5-4.17-6.46-6S742.34,350.38,742.34,350.38Z"/><path class="cls-4" d="M735.44,361.56s5.72-.29,8.51,2.88,5.6,3.21,5.32,6.57-1,4.77-5.61,3.22-7.1.06-9.47-.43S729.88,364.18,735.44,361.56Z"/><path class="cls-4" d="M730.46,360c0-4.56,1-7.89-2.77-9.33s-4-8.67-6.88-8.16-5.65,2-5.28,5.22-1.25,4.33,2.22,10,8.81,7.68,11.93,7S730.46,360,730.46,360Z"/><path class="cls-4" d="M761.44,333.37a22.25,22.25,0,0,1,3.3,5.85c.86,2.77,5.39,5.68,10.49,2.8s3.29-8.83-.22-9.73-6.52-3.08-8.71-3.43S761.44,333.37,761.44,333.37Z"/><path class="cls-5" d="M728,363.22s3.9-11.11,16.17-23.21,24.31-18.64,27.24-15.48-18.91,11.53-27.94,24.28-12.06,21.39-12.06,21.39Z"/><path class="cls-4" d="M706.62,300.86c-2.58-4.84,3.35-6.6,5.9-4.16,1.63,1.57,4.14,5.18,8.1,6.74s3.28,9.43,1.6,10.09-3.26-1.38-4.91-1.24-6.36,2-8.82-1.76S708.81,305,706.62,300.86Z"/><path class="cls-4" d="M704,317.34c2.17-1.85,5-1.45,6,1.32s4.65,0,6.64,1.19,6.13,3,5.84,5.55-5.22,8-8.3,8.86-6.18-1.3-7.07-5.11-1.93-4.39-3-5.4S701.76,319.25,704,317.34Z"/><path class="cls-4" d="M702.4,342.94c-.73-3-.13-5.72,2.65-6.1s6.66,2.17,11.32,2.77,7.29,6.85,5.63,11.21-2.5,8-6.23,7.48-5.08-2.57-8-2.61-7.88-1.43-6.53-6.88C701.81,346.3,702.81,344.62,702.4,342.94Z"/><path class="cls-4" d="M725.15,305.89a41.72,41.72,0,0,0,3.08-3.59c2.06-2.6,5.78-5.51,8.83-3.2s4.1,5.91,1.35,8.7-2.16,5.34-5.62,6.74-7.55-.27-7.55-.27Z"/><path class="cls-4" d="M725,324.73s1.58-3.55,4.51-4.56,5.35-4.14,7.4-3.52,4.09,1.25,4.18,5.27-.48,7.22-4.67,9.68-9.54,6.08-11.7,3.71S725,324.73,725,324.73Z"/><path class="cls-5" d="M723.33,298.57c4.36-.84-.39,45.68,1.87,64.31l-4,.63s-2.64-18.17-.76-33.8S719.28,299.35,723.33,298.57Z"/><path class="cls-4" d="M715.61,286.4c-.07-2.87,5.7-5.41,8.32-3.44s6.27,7.59,6,9.76-4.29,5.73-5.57,7-8.32-2.47-8.64-5.45S715.66,288.7,715.61,286.4Z"/><path class="cls-4" d="M762.33,364a22.84,22.84,0,0,1,.12,5.53c-.32,2.86,1.74,4.08,4.94,7.57s.77,5.45,6.46,6.08,6.47-4.73,5.4-7.31-3-5.32-5-9.22a9.81,9.81,0,0,0-6.21-4.76Z"/><path class="cls-4" d="M752.66,369.31a5.7,5.7,0,0,0,3.77,3.62c2.94.82,5.19,3.95,4.21,8.8s2.66,9-1.37,10.45-7.12-.47-10.19-6.76-6.09-4.27-6.81-11.57S752.66,369.31,752.66,369.31Z"/><path class="cls-4" d="M777.55,357a15.88,15.88,0,0,1,.15,6.71c-.67,4.07,3.76,3.31,7,6.74s5.22,2.72,8.83,1.07-2-5.52-2.26-8.48-2.33-6.52-6.53-6.73A23.44,23.44,0,0,0,777.55,357Z"/><path class="cls-4" d="M759.4,362.11c-.17-.83,1.43-7,.52-12.45s2.66-9.57,7.92-9.15,7,6.26,5.25,8.86.22,7.83-1.72,8.92S759.4,362.11,759.4,362.11Z"/><path class="cls-4" d="M780,354.33c-.35-1.65,1.87-6.43-.24-10.54s-.81-6.22,1.82-8.06,5.77-4.62,7.63-1.5-.16,9.32-.91,11.61,1,6.47-3.63,7.48Z"/><path class="cls-5" d="M789.57,352.32c1.57,3.78-18.08,7.2-27.31,13.17s-18.18,8.06-24.51,11.34l-1.13-4.05a87.38,87.38,0,0,1,20.49-11.49C769.9,356.09,787.92,348.35,789.57,352.32Z"/><path class="cls-4" d="M789.75,357.16c-2.48-1.88-2.17-3.84-.18-8.16s4.06-8.14,8.25-5.74,5.2,5.64,2.58,9.47S794.81,361,789.75,357.16Z"/><path class="cls-6" d="M725.2,362.88c-16.43.59-37.09,33.39-44.78,47.57a173,173,0,0,0-12.81,30.18,10.37,10.37,0,0,1,4.95.45c7,2.47,6.75,7.42,16.08,5.66s11.17-1.95,20.21,1.86a14.2,14.2,0,0,0,8.57.51,224.41,224.41,0,0,0,13.85-26.67C742.46,396.87,745.41,362.15,725.2,362.88Z"/><path class="cls-3" d="M687.77,408.22s8.29,2.31,11.57,6.86"/><path class="cls-3" d="M712.83,394.27A24.61,24.61,0,0,1,726,406"/><path class="cls-3" d="M717.22,375.52a9.93,9.93,0,0,1,4.31,1.68"/><path class="cls-3" d="M712.15,400.28s3.38,2,4.5,4.3"/><path class="cls-3" d="M698,430.56s8.19,4.87,10.06,10.74"/><path class="cls-3" d="M702,419s1.75,1.08,2.07,2.23"/><path class="cls-2" d="M561.11,164.4c42.24-3.19,106.77,123.83,112.06,278L480,449.76S504.76,168.65,561.11,164.4Z"/><path class="cls-3" d="M561.11,164.4c42.24-3.19,106.77,123.83,112.06,278L480,449.76S504.76,168.65,561.11,164.4Z"/><path class="cls-3" d="M545.45,249.47c-4.57,11.42-3.66,33.34-8.68,44.31"/><path class="cls-3" d="M549.1,277.79s-.46,16-5.94,24.21"/><path class="cls-3" d="M583.3,287.84s-.4,27.4,5.08,35.63"/><path class="cls-3" d="M591.58,302a47.16,47.16,0,0,0,3.66,15.07"/><path class="cls-5" d="M661.16,259.05c16.72.75,24.54,103.61,28.7,174.54,0,0,4.62,37.77-28.39,40.32s-35-44.74-35-44.74S634.06,257.84,661.16,259.05Z"/><path class="cls-3" d="M657.2,351.9s12.12,1.09,17.29-3.11"/><path class="cls-3" d="M645.93,341.41s1.47,1,5.93.84"/><path class="cls-3" d="M637.2,365.53a38.69,38.69,0,0,0,22.06,2"/><path class="cls-3" d="M671,386.59a13.91,13.91,0,0,0,9.06-1.88"/><path class="cls-7" d="M658,275.18c12.21-2.31,22.17,11.7,21.89,30.55s-6.8,24.4-10.78,34.14-13.59,14.11-19,3.6-17.57-20.7-14.55-41.46S651.46,276.42,658,275.18Z"/><path class="cls-1" d="M713.74,143.61c5.29,0,4.12,9.6,4.39,14.7s3.68,3.6,6.69.52,3.64-5.56,6.13-3.44-3.74,10.27-1.05,13.55,5.88-1.75,6.76,4.06-13.5,31.55-13.5,31.55-23.93-5.75-24.4-14.83,11.15.65,12.35-3.45-12.06-5.12-11.3-11.25,8.21-3.13,9.17-7-11.57-1.78-9.54-8,9.61,1.41,10.75-1.82S708,143.61,713.74,143.61Z"/><path class="cls-1" d="M714.61,160.91s7.38,27.51,8.55,43.64"/><path class="cls-1" d="M722.58,203.83s-6.33-25.23-.75-28.78,4,11.13,9.25,8.89.13-21.64,5.48-22.33,1,12,5.45,13.55,12.2-21.79,18.67-16.93-9.2,15.62-6.44,20.23,13.93-2.75,14.75,3.74-23.67,6.12-22.55,11.75,10.36-1.07,10.19,5.27S740.52,207.42,722.58,203.83Z"/><path class="cls-1" d="M722.58,203.83c15.61-6.31,24.45-23.32,24.45-23.32"/><path class="cls-1" d="M775.8,232c-2.17,3.83-11.91-2.45-16.39-4.8s2.67,8.39-1.47,10.84-12.22-14.1-15.3-14.06,2.43,7.8-1.59,10.31-16.4-21.46-18.31-30.61c0,0,32.36-11.91,35.17-4.47s-11.39,4.08-10.51,8.47,22.12-7.41,25.39.21-13.83,5.52-12.88,9.19S779.74,225,775.8,232Z"/><path class="cls-1" d="M752.3,218.23s-17.65-7.47-29.56-14.58"/><path class="cls-1" d="M710,256.43c-4.08-.91-1.29-8.49-.42-13.19s-7.27.71-8.94-3.05S711,231,709.9,227.78s-8.74,6-9.77,1.38,20.31-14.23,22.67-25.51c0,0,10.76,11.94,14.11,22.2,2.81,8.6-3.21,9.13-4.8,5.9-1.28-2.63-5.2-3-4.11,1.4s3.39,13.53-.13,14.33-4.29-8.38-8.18-6.15S718.42,258.31,710,256.43Z"/><path class="cls-1" d="M719,237.23a47,47,0,0,0,3.78-33.58"/><path class="cls-1" d="M668.26,204.76c-.16-4.17,7.87-3.41,12.65-3.77s-2.55-6.85.67-9.42,11.57,7.65,14.36,5.8-8.07-6.91-3.83-9.09,18.94,16,30.45,15.41c0,0-8.8,13.45-17.87,19.31-7.6,4.91-9.65-.78-6.92-3.14,2.21-1.92,1.54-5.79-2.41-3.61s-12.22,6.72-13.89,3.51,7-6.27,3.86-9.46S668.59,213.4,668.26,204.76Z"/><path class="cls-1" d="M689.12,208.59a47,47,0,0,0,33.44-4.9"/><path class="cls-1" d="M659.52,178.14s13.92,11.68,18.64,20.26,9.18,5.51,8.35,1.53-5.65-9.07-2-10.57,5.44,14.26,12,9.56-6.44-9.63-2.91-13.1,17.69,7.23,21.31-1.78-20.6-5.33-20.47-9.07,12.26-4.76,10.36-9.79-15.32,4.36-19.73,2.39,9-7.29,5.12-11.5S672.18,157.61,659.52,178.14Z"/><path class="cls-1" d="M694,178.28s-20.45-8-34.44-.14"/><path class="cls-1" d="M627.74,224.75c-5.52-4.15,7-8.84,5.75-12.8s-7.43,3.19-9.73-2,12.65-8.67,12-12.91-6.24-1.13-6.55-5.27S649,177.93,660,177.44c0,0,5.31,12.26,5.73,20.15s0,13.84-4.12,15.45-3.57-5.07-7.6-4.18.07,13.12-5.42,14.22c-5.22,1-3.42-6-6.74-6.45S630.72,227,627.74,224.75Z"/><path class="cls-1" d="M660,177.44c-2.22,12-19.95,29.11-19.95,29.11"/><path class="cls-1" d="M660.23,177.38s-4.8-9.56-11-15.86-7.92-6.75-9.89-4.74,1.61,5.27-.14,7.5-8.61-6.18-11.6-11.1-7-10.08-10.22-8.43,3,6.77.41,9.54-6.12-.76-11.17-4.31-8.73-2.63-9.8-.43c-3.65,7.5,17.28,11.94,14.7,16.8-1.31,2.47-4.34,4.52-1.46,7.72s10.49-1.56,15.74.62-4.8,5.24-2.55,8.93S643.05,189.06,660.23,177.38Z"/><path class="cls-1" d="M618.13,161.53c.28.45,17.88,13,42.1,15.85"/><path class="cls-1" d="M684.42,219.6c-3.15,2-6.09-4.59-8.45-8.12s-4.18,5-7.58,3.61.85-12.29-1.81-13.64-1.8,9.26-5.35,7,4.08-21.65-1.43-30.28c0,0,14.25.9,22.75,5.34,7.12,3.72,3.63,7.8.61,6.73-2.45-.87-5.15,1.34-1.74,3.44s10.55,6.5,8.8,9.19-7.92-2.66-9,1.17S691,215.56,684.42,219.6Z"/><path class="cls-1" d="M678.24,201.8a41.74,41.74,0,0,0-18.44-23.68"/><path class="cls-1" d="M660.72,117.55c4.4.14,3.38,11.68,3.38,16.74s6.19-6.27,10.28-3.75-6.79,17.38-5.31,20.09,5.76-5.78,9.86-3.39-11.36,24.5-18.57,30.46c0,0-25.6-23.1-20.33-29s8.91,8.18,12.39,5.36-16.86-16.13-11.63-22.57,11.32,9.67,14.13,7.12S652.71,117.31,660.72,117.55Z"/><path class="cls-1" d="M659.51,144.74s1.61,19.1.85,33"/><path class="cls-1" d="M637.94,222.1c4.74-4.5-8.18-9.38-8-13.58s8.11-2.29,9-6.92-15.25-2.06-16.31-6,7-1.68,7.16-5.56-17.17-12.61-32.72-.42c0,0,9.62,14.78,16.19,20.19s8.52,5.2,12.8,6.4S634,225.88,637.94,222.1Z"/><path class="cls-1" d="M625.1,207.4A41.21,41.21,0,0,0,597,189.62"/><path class="cls-5" d="M660.36,176.06c7.42-.17,4.86,75.23,12.7,88.91l-20.74.23s7.07-27.09,7.07-47.86C659.38,194.43,655.85,176.16,660.36,176.06Z"/><path class="cls-5" d="M723.5,204.19c2.81,5.41-40.14,33.9-43.93,63.12l-14.28-2.25C675.4,234.67,719.53,196.56,723.5,204.19Z"/><path class="cls-1" d="M566,134c6.9-3.54,5.46,11.45,10.1,12.09s.43-9.07,6.75-8.86,2.55,17,7.13,18.48,4.21-5.74,8.54-4,4.3,26.78-.61,38.13c0,0-15-.66-23.15-4.11s-14-6.82-13.58-11.74,6.87-1.12,7.95-5.62-13.27-6.37-11.68-12.45c1.5-5.78,7.73-.51,9.81-3.65S562.29,135.89,566,134Z"/><path class="cls-1" d="M599.94,191.8c-11.06-8.15-19.59-34.43-19.59-34.43"/><path class="cls-1" d="M639.45,155.12c2.72,3.17-4.06,7.56-7.57,10.8s6.24,3.8,5.32,7.81-13.83,1.18-14.87,4.36,10.62.42,8.65,4.76-24.79-.81-33.44,6.81c0,0-1.45-16,2-26.23,2.91-8.57,8-5.38,7.37-1.84-.54,2.88,2.38,5.49,4.14,1.34s5.41-12.85,8.7-11.38-1.6,9.27,2.85,9.82S633.83,148.56,639.45,155.12Z"/><path class="cls-1" d="M620.71,165.06a47,47,0,0,0-23.17,24.6"/><path class="cls-1" d="M526.94,215.21c-2.32-3.69,2.49-7.42,7.86-9,4.49-1.34,7-1.92,5.92-4.55s-6.86-3.68-5.18-7.08c2.91-5.91,18.42,3.33,20.51-1.92,1.58-4-5.57-4.09-4.27-8.6s25.72-6.3,47.12,6.58c0,0-9.08,13.38-21.61,18.3s-11.35-3.9-14.94-2.9-9,15.12-14.66,14.59c-7.2-.68-.33-8.27-4.31-9.22S530.63,221.09,526.94,215.21Z"/><path class="cls-1" d="M598.9,190.62c-20.26-4.05-38.8,8.53-38.8,8.53"/><path class="cls-1" d="M597.57,189.66s-50.78,11.7-40.82,26.05c2.15,3.1,9.85.13,9.72,3.93S547.28,225,545.06,231s3.28,7.09,5.47,7.58a2.8,2.8,0,0,1,1.72,4.44c-1.23,1.48-10.7,6.32-9.4,12.31s7.27,2.94,11.44-1.67,7.51-4.51,8.86-1.38-.38,9,4.94,8.08,7.41-7.76,9.37-19.54,5-10,7-7.26,6.45,5.11,7.52-.53S598.17,194.41,597.57,189.66Z"/><path class="cls-1" d="M573.89,224.43s2.85-16.58,23.68-34.77"/><path class="cls-1" d="M597,189.62s-5.27,9.31-7.08,17.92-1.19,10.34,1.58,10.86,3.47-4.28,6.31-4.06-.34,10.59-2.76,15.82-4.47,11.44-1.31,13.18,4-6.26,7.69-5.65,2.78,5.5,2.65,11.67,2.67,8.72,5.1,8.38c8.25-1.15.29-21,5.77-21.56,2.78-.29,6.17,1.08,7.22-3.09s-7.14-7.84-8.25-13.42,7,1.07,8.84-2.86S616.27,197.38,597,189.62Z"/><path class="cls-1" d="M607.29,233.41c.21-.49.84-22.1-10.29-43.79"/><path class="cls-5" d="M597.22,190c1.33-6.32,44.12,29.08,55.26,70.36l-15.76,2.27s1.16-24.33-19.17-48.48S596.8,191.93,597.22,190Z"/><path class="cls-7" d="M598,315.87c-5.31-4.85.57-13.42.54-22.21-.09-25.9,28.47-47,53.18-43.62a11.15,11.15,0,0,1,9.42,8.7c2.91,13.58-5.33,33.33-15.88,43.14C632.65,313.62,602.56,320,598,315.87Z"/><path class="cls-3" d="M636.31,262.84s-19.28,8.32-29,33.6"/><path class="cls-3" d="M616.93,302.37c.39-.53,23.36-10.46,32.4-31.48"/><path class="cls-7" d="M663.38,252.68c7.27-5.81,18.86-1.45,24.89,5.93s20.83,17.47,23.86,37.48,2.6,21,.52,23.58-10.45-.35-16.47-3.11-20.11-6.52-28.36-21S653.27,260.76,663.38,252.68Z"/><path class="cls-3" d="M671.5,274.62s6.73,22.05,24,31.25"/><path class="cls-3" d="M684.33,271.44s12.85,8.16,18,30"/><path class="cls-7" d="M374.17,391l-13.83,7.38L347,390.22l-5.75,7.61s12,10.12,11.34,33.08l6.83.2,6.83.2c.67-23,13.25-32.36,13.25-32.36Z"/><line class="cls-1" x1="359.81" y1="410.13" x2="360.01" y2="399.98"/><path class="cls-4" d="M394,372.05a16,16,0,0,0-14.9-20.56,16.17,16.17,0,0,0-2.32.12,16,16,0,0,0-31.11-1,18.24,18.24,0,0,0-1.84-.16,16,16,0,0,0-16.12,19.43,16,16,0,1,0,18.9,24.2,16,16,0,0,0,26.67.79A16,16,0,1,0,394,372.05Z"/><path class="cls-5" d="M314.81,415.23c2.43-10.73,14.2-11.84,19.32-7.16,6.15,5.63,6.32,14.63,21.68,16.4,9.74,1.12,6.31,13.44-11.78,13.18C321.33,437.33,312.9,423.68,314.81,415.23Z"/><path class="cls-5" d="M404.56,417c-2-10.82-13.71-12.39-19-7.92-6.37,5.37-6.9,14.37-22.32,15.52-9.78.73-6.84,13.18,11.25,13.64C397.17,438.85,406.14,425.54,404.56,417Z"/><path class="cls-3" d="M351.27,374.11s-4-1.76-6.15,1.37a5.23,5.23,0,0,0,0,5.59s-6.49-1.37-5,5.57"/><path class="cls-7" d="M286.2,420.53l-14,7.49-13.57-8.29-5.84,7.72s12.19,10.28,11.51,33.58l6.93.21,6.94.2c.68-23.31,13.45-32.86,13.45-32.86Z"/><line class="cls-1" x1="271.62" y1="439.93" x2="271.82" y2="429.63"/><path class="cls-4" d="M306.3,401.28a16.18,16.18,0,0,0-17.48-20.75,16.26,16.26,0,0,0-31.59-1,16.06,16.06,0,0,0-1.86-.17,16.27,16.27,0,0,0-16.74,15.79,16,16,0,0,0,.38,3.94,16.27,16.27,0,1,0,19.19,24.56,16.27,16.27,0,0,0,27.06.8,16.28,16.28,0,1,0,21-23.21Z"/><path class="cls-5" d="M225.94,445.11c2.47-10.89,14.41-12,19.61-7.26,6.24,5.71,6.42,14.85,22,16.64,9.89,1.14,6.41,13.64-12,13.38C232.56,467.55,224,453.69,225.94,445.11Z"/><path class="cls-5" d="M317.05,446.93c-2-11-13.92-12.58-19.3-8-6.47,5.46-7,14.58-22.66,15.75-9.93.75-6.94,13.38,11.42,13.85C309.54,469.08,318.65,455.58,317.05,446.93Z"/><path class="cls-3" d="M252.75,415.13s-1.83-3.54,0-5.33,4.12-.25,5.27,1.28c0,0,1.15-2.76,3.58-2.08a3.44,3.44,0,0,1,2.55,3"/><path class="cls-3" d="M271.72,402.5s2.14-2.67,4.92-1.74,2.09,4.06,2.09,4.06,3-2.43,5.45-.81,0,5.68,0,5.68"/><path class="cls-2" d="M274.94,441.72c5.63-6.75,19.21-3.47,25.91,3.36s13.38,1,23,5.57,3.77-7.23,11.72-11.56,5.74-6.77,11.6-6.41,3.66,6.77,9.88,10.62,6.41,14.46,11.72,17.57,22.09,28.76,22.09,28.76-65.12,28.23-73.63,27.11-11.15-2.1-15.34,0-6.19,3.32-9.65,0-11.29.49-14.38-4.79,4.55-8.19,4.91-14.56,2.73-6.92,8.74-8.38,4-10.19-3.64-15.29-2.37-11.83-9.1-16.39S272.17,445,274.94,441.72Z"/><path class="cls-3" d="M274.94,441.72c5.63-6.75,19.21-3.47,25.91,3.36s13.38,1,23,5.57,3.77-7.23,11.72-11.56,5.74-6.77,11.6-6.41,3.66,6.77,9.88,10.62,6.41,14.46,11.72,17.57,22.09,28.76,22.09,28.76-65.12,28.23-73.63,27.11-11.15-2.1-15.34,0-6.19,3.32-9.65,0-11.29.49-14.38-4.79,4.55-8.19,4.91-14.56,2.73-6.92,8.74-8.38,4-10.19-3.64-15.29-2.37-11.83-9.1-16.39S272.17,445,274.94,441.72Z"/><path class="cls-3" d="M293.15,454.7s33.38,12.05,51.6,52.7"/><path class="cls-2" d="M310.47,484.53c1-7.64,9.62-1.67,16.31-6.69s3.77-15.48,17.15-17.57,12.13,11.71,36.39,4.18,43.09,24.68,38.91,42.67S410,527.65,408.77,536s-.84,19.23-9.62,16.72-14.22,1.67-16.32-11.3-10.09-16.31-15.08-9.62S359,545.19,346,541s-23.42,7.12-32.62,5.86-10.46-8.44-6.7-18-2.09-12.52,6.7-17.54,11.71-12.68,6.69-16.59S309.63,490.81,310.47,484.53Z"/><path class="cls-3" d="M310.47,484.53c1-7.64,9.62-1.67,16.31-6.69s3.77-15.48,17.15-17.57,12.13,11.71,36.39,4.18,43.09,24.68,38.91,42.67S410,527.65,408.77,536s-.84,19.23-9.62,16.72-14.22,1.67-16.32-11.3-10.09-16.31-15.08-9.62S359,545.19,346,541s-23.42,7.12-32.62,5.86-10.46-8.44-6.7-18-2.09-12.52,6.7-17.54,11.71-12.68,6.69-16.59S309.63,490.81,310.47,484.53Z"/><path class="cls-3" d="M331.8,516.74s15.39-30.25,88-22"/><path class="cls-2" d="M405.64,524.45s-2.89,18,6.6,22.09,18.16-2.18,21.88,6.54-2.48,15.85,6.19,20.55,13.39,5.08,15.78,11.7,11.05,8.26,18.48-2.89,12.38-18.35,9.9-27.33,3.72-11.05,9.08-9.4,13.63-2.59,10.32-13.89S487.36,496.18,461.36,502,413.07,502.37,405.64,524.45Z"/><path class="cls-3" d="M405.64,524.45s-2.89,18,6.6,22.09,18.16-2.18,21.88,6.54-2.48,15.85,6.19,20.55,13.39,5.08,15.78,11.7,11.05,8.26,18.48-2.89,12.38-18.35,9.9-27.33,3.72-11.05,9.08-9.4,13.63-2.59,10.32-13.89S487.36,496.18,461.36,502,413.07,502.37,405.64,524.45Z"/><path class="cls-3" d="M459.3,565s6.56-19.21,0-36.19a224.08,224.08,0,0,1-7.85-24.16"/><path class="cls-2" d="M397.85,344c3.79-3.27,11.24-1.38,17.44,7.35s19.44,2,31,20.57,9.73,55.23-8.65,61.84-47.37,17.56-57.38,6.59-17.06-19.7-23.54-25.9-3.1-9.71,3.38-13.45,7.6-8.52,13.52-8.24,9.86,8.34,17.18,1.78-1.12-16.43.57-22.91S397.2,361.64,395,354C393.46,348.53,395.49,346,397.85,344Z"/><path class="cls-3" d="M397.85,344c3.79-3.27,11.24-1.38,17.44,7.35s19.44,2,31,20.57,9.73,55.23-8.65,61.84-47.37,17.56-57.38,6.59-17.06-19.7-23.54-25.9-3.1-9.71,3.38-13.45,7.6-8.52,13.52-8.24,9.86,8.34,17.18,1.78-1.12-16.43.57-22.91S397.2,361.64,395,354C393.46,348.53,395.49,346,397.85,344Z"/><path class="cls-3" d="M409.62,366.68c0,18.16,20.81,18.58,20.73,69.64"/><path class="cls-1" d="M476.29,388.67c3.42-22.56,31.45-36.63,45.81-29.79s26.64,3.58,45.11-4.17,39-1.6,48.08,5.7C632,373.89,668.4,373,671.81,428.33S643.1,512.59,585,498.49,465.48,460.05,476.29,388.67Z"/><path class="cls-4" d="M576.18,373c-8-1.55-8.69-10-2.63-11.34,4.65-1,10.58-3.15,16.88-19.54s17.33-26.48,30.89-27.74c12.93-1.2,19.26,5.63,26.12,6.26a.84.84,0,0,1,.73,1L646,330.06a.85.85,0,0,1-1.46.34c-3.22-3.74-13.48-14.06-24.8-9.12-12.31,5.36-20.92,19.93-18.91,32.78,2.11,13.44,14.73,10.71,13,17.27-1.67,6.23-13.35-.84-18-1.2C589,369.61,586.75,375,576.18,373Z"/><ellipse class="cls-6" cx="585.6" cy="391.86" rx="4.48" ry="2.75" transform="translate(-66.31 659.25) rotate(-56.09)"/><path class="cls-3" d="M609,396.05s18.26,16.89-6.05,76"/><path class="cls-3" d="M559,387.23s-20.42,30-9.65,73.73"/><ellipse class="cls-6" cx="645.99" cy="397.44" rx="2.78" ry="4.5" transform="translate(-102.71 276.19) rotate(-22.4)"/><path class="cls-6" d="M572,464.29c-.2-5.1-.93-12.72,2.76-30.23s2.34-29.12,8.45-29.12c7.14,0,3.57,29.52.68,36s1.36,31.21-5.09,32.73S572.13,467,572,464.29Z"/><path class="cls-6" d="M570.1,396.82c3.15,2.4-2.56,7.94-4.32,18.87-1.54,9.56-4.1,17.05-6.79,16.36-3-.75-3.48-12.23-1.12-21.22S566.42,394,570.1,396.82Z"/><ellipse class="cls-6" cx="558.37" cy="445.25" rx="2.4" ry="4.5"/><path class="cls-6" d="M602.92,418.15c4.75-.73,5.36,12.48,1,23.19-3.51,8.7-8.16,7-8.56,1.1a12.32,12.32,0,0,1,1.43-6.37C601.91,426.19,600.1,418.58,602.92,418.15Z"/><path class="cls-6" d="M630,402.5c5.05-2.14,6.79,5.3,9.52,16.61s8.16,33.35,1.18,37.6-4.85-11.87-6-21.17S624,405.06,630,402.5Z"/><path class="cls-6" d="M652.5,411.19c3.09-3.36,10.41,1.77,11.06,21s.78,21.93-2.13,21-4.92-14.36-6.56-20.5S649.84,414.07,652.5,411.19Z"/><path class="cls-1" d="M425.14,394.11c17.87,1.55,43.79,9.72,65.69,0s64.94,18.74,68.05,81.15-64.22,32.84-74.07,35-8.76,10.81-29,10.33-19.71-10.87-34.49-10.87-36.11,6.18-49.82-15.88c-18.34-29.53-1-71.16,14.88-85.4S415.37,393.26,425.14,394.11Z"/><path class="cls-6" d="M513.55,419.88c2.29,1.92,5.63,4.17,7.61,11s6.39,7.84,7.05,2.91-2.8-15-9.47-19.22C512.94,410.86,509.9,416.81,513.55,419.88Z"/><path class="cls-6" d="M529.53,446.45c3.27-4.94,11.7,6.7,8.36,32.43C535.82,494.81,526.8,450.57,529.53,446.45Z"/><path class="cls-6" d="M437.26,443.14a23.85,23.85,0,0,0,0,17.28c3.58,9.73-3.43,21,2.06,24.82S445.21,473.52,445,461s3.37-11.85,1.59-14.56S444.48,441.06,437.26,443.14Z"/><path class="cls-6" d="M421.65,431.51a9.4,9.4,0,0,0-8.9,2.4c-3.09,3-7,8.56-8,18.16-1.66,16.49,3.85,17.57,6,12,2.82-7.26-.5-21.38,9.42-27.28C425.56,433.63,424.11,432.17,421.65,431.51Z"/><ellipse class="cls-6" cx="406.35" cy="415.68" rx="5.38" ry="3.24" transform="translate(-119.32 663.84) rotate(-70.92)"/><path class="cls-6" d="M455.05,456a49.05,49.05,0,0,1,4,19.77c0,11.59-2.76,15.08,1.67,17.7s7-12.17,6.64-19.72S465.06,448.85,455.05,456Z"/><path class="cls-3" d="M499,444s7.7,4.92,7.7,34.85"/><path class="cls-6" d="M389.45,481.13c5.28.32,4.15-18.83,4.15-26.75s10-17.8,4.53-21.37c-5.1-3.29-13.49,7.53-12.91,24.06S384.39,480.83,389.45,481.13Z"/><path class="cls-5" d="M689.38,517c-5.08-8.34-3.7-19.28-3.64-19.74l6,.79c0,.09-1.15,9.32,2.81,15.81Z"/><path class="cls-4" d="M705,421.11c8.33,0,10.81,6.19,11.82,14.26,1.69,13.48,13.84,12.25,12.75,29.91-.72,11.58-1.47,13.9-16.54,25.8s-36.84,11-42.35,0-10.16-30.41,0-41.32,15.1-8.86,20.31-18.17C695.21,424,700,421.11,705,421.11Z"/><path class="cls-3" d="M703.64,447.19S686,460.37,686.8,493.62"/><path class="cls-5" d="M673.79,532.83c-7-.55-12.65-5.12-16.17-13.21a43.38,43.38,0,0,1-3.11-11.47l6-.63c0,.19,2.08,18.4,13.76,19.31Z"/><path class="cls-8" d="M702.64,533.49c-5,5-12.11,6.27-20.56,3.67a43.39,43.39,0,0,1-10.73-5.1l3.43-5c.15.11,15.32,10.4,23.61,2.13Z"/><path class="cls-5" d="M643.64,541.53a82,82,0,0,1-30.16-6L615.9,530c.48.21,34,14.44,58.73-4.32,26.61-20.17,43.33-24.11,63.22-24.11v6c-18.61,0-34.32,3.74-59.59,22.89C667.1,539,654.63,541.53,643.64,541.53Zm-28.95-8.74L615.9,530h0Z"/><path class="cls-4" d="M534.05,460.4c9-9.73,24.24-.29,33.36,1s22.49-5.67,36.16-2.74c19.5,4.17,22.46,22.8,23.77,29.31S606.75,520.65,587,513.69s-15.65-14-34.16-14C532.67,499.67,522,473.47,534.05,460.4Z"/><path class="cls-3" d="M558.25,476c.56-.26,34.46-2.7,58.29,28.62"/><path class="cls-5" d="M562.75,528.5c-17.37,0-27-7.63-27.52-8l3.78-4.68a31.87,31.87,0,0,0,9.2,4.47c5.48,1.77,14.49,3.39,26.28,1l1.2,5.9A65.24,65.24,0,0,1,562.75,528.5Z"/><path class="cls-5" d="M568,525.32c-9,14.85-20.53,19.16-21.12,19.38L544.78,539a31.38,31.38,0,0,0,8.6-5.55c4.35-3.77,10.4-10.64,14.47-22l5.66,2A64.86,64.86,0,0,1,568,525.32Z"/><path class="cls-4" d="M755.59,489.2c15.62-12.74,43.45-14.53,55.06-2s3.35,23.68,28.71,34.45c0,0,1.84,16-17.86,15.83s-11.77-4.6-36.2-4.68S746.5,526.3,755.59,489.2Z"/><path class="cls-3" d="M808.27,517.44c-.75-1.42-26.17-24.22-55.68-20.91"/><circle class="cls-7" cx="744.68" cy="485.35" r="35.59"/><circle class="cls-7" cx="510.19" cy="513.69" r="35.59"/><circle class="cls-7" cx="639.17" cy="480.78" r="35.59"/><circle class="cls-7" cx="598.53" cy="524.21" r="35.59"/><ellipse class="cls-6" cx="489.86" cy="500.95" rx="6.58" ry="4.8" transform="translate(-119.83 846.2) rotate(-75.16)"/><ellipse class="cls-1" cx="489.47" cy="500.32" rx="1.79" ry="1.34" transform="translate(-119.51 845.35) rotate(-75.16)"/><path class="cls-4" d="M513.65,537.47c10.27-6.68,30.62-7.82,38.22,0s10.92,21.66-4.57,35.48-43.13,17.62-50.58,12.35-6.08-11.71,0-17.32C507.47,558.07,501.16,545.6,513.65,537.47Z"/><path class="cls-3" d="M551.87,537.47c-9.22,9.92-26.93,8.62-38.4,33.87"/><ellipse class="cls-6" cx="637.49" cy="460.37" rx="7.67" ry="6.11"/><circle class="cls-6" cx="595.51" cy="549.29" r="6.11"/><circle class="cls-1" cx="595.51" cy="549.29" r="2.58"/><circle class="cls-1" cx="637.32" cy="459.56" r="1.85"/><path class="cls-4" d="M675.66,551.77s11.75,19.44,37.34,13.76c16.61-3.69,18.9,2.89,31.68,2.81,14.26-.09,18.75-11.11,14.23-17.91-4.18-6.27-10.33-3.3-16.32-18.39-5.62-14.16-32.18-15.37-42.3-7.83S675.66,551.77,675.66,551.77Z"/><path class="cls-3" d="M740.78,554.33S726.92,529,697.13,531.41"/><ellipse class="cls-6" cx="765.53" cy="497.25" rx="6.23" ry="4.67" transform="translate(-114.1 741.25) rotate(-48.51)"/><ellipse class="cls-1" cx="765.92" cy="497.7" rx="1.86" ry="1.32" transform="translate(-114.32 741.69) rotate(-48.51)"/><path class="cls-6" d="M416.75,402.56s-12.38,9.05-11.09,35.15l23.95,11.83,43.23,21.35s13.72-20.57,18.3-34.16C496.49,420.85,416.75,402.56,416.75,402.56Z"/><path class="cls-5" d="M451.39,361.88s-31.19,13.3-34.64,40.68l75.67,34.6a29.31,29.31,0,0,1,15.39-16.91c11.47-5.1,16.9-22.9,13.39-35S451.39,361.88,451.39,361.88Z"/><path class="cls-5" d="M468.6,292.18a33.22,33.22,0,0,0-10.19,16.49c-2.58,10.39,17.87,0,17.87,0Z"/><path class="cls-9" d="M455.29,311.9c1.17-5.14,10-5,13.36-2.51s3.38,8.13,0,8.19S454,317.55,455.29,311.9Z"/><path class="cls-10" d="M457.31,315.61s-12.51,29.17-8.6,50.11c3.39,18.14,16.2,14.32,17.39,8.14s-8-12.89-8-30.25,8.05-27,8.05-27Z"/><path class="cls-10" d="M480.46,293.91c8.86.58,7.93-15.54,15-20.39a103.92,103.92,0,0,0-6.23-8.88h-9.32a148.76,148.76,0,0,0-7.09,15.74C473.46,285.94,475.26,293.57,480.46,293.91Z"/><path class="cls-5" d="M495.48,273.52c-7.09,4.85-6.16,21-15,20.39-5.2-.34-7-8-7.62-13.53-7.4,18.87-17.13,45.38-14.65,86.05L521.26,383S523.72,318.51,495.48,273.52Z"/><path class="cls-5" d="M495.88,293.93c5.06-.68,7.71,7.88,7.49,17.13s-11.86,1.53-11.86,1.53S489.52,294.78,495.88,293.93Z"/><path class="cls-9" d="M490,313.34c2.35-3.51,12.28-4.14,14.91-.68a6.71,6.71,0,0,1-.44,8.32c-2,2-10.6,3-13.87-.1A5.85,5.85,0,0,1,490,313.34Z"/><path class="cls-10" d="M492.34,322s-3.44,30.26-9.26,41.55c-3.57,6.94-12,12.07-7.43,18.85,3.93,5.79,17.23,3.86,22.71-8.35,6.14-13.67,4.95-40.57,3.43-52.05Z"/><path class="cls-6" d="M466.64,322s8.35,3.65,19.76.89c0,0,1.3,28.11-12.09,27C463.18,349,466.64,322,466.64,322Z"/><path class="cls-3" d="M429.61,449.54s-2.2-26.16,11.2-36.1c4.59-22.15,20.8-27.92,20.8-27.92"/><path class="cls-9" d="M396.63,438.71c2-6.07,26.32,4,30.91,8s-2.5,8.58-15.45,3.93S395.56,441.93,396.63,438.71Z"/><rect class="cls-1" x="472.38" y="318.94" width="4.25" height="101.9" transform="translate(-4.56 733.85) rotate(-75.16)"/><path class="cls-4" d="M527.83,376.57a3.21,3.21,0,0,1,4.49,1.58l10.24,28.12-6,4.07a78.55,78.55,0,0,1-20.8-22.65,3.76,3.76,0,0,1,1.41-5.26Z"/><circle class="cls-6" cx="525.02" cy="386.76" r="1.59"/><path class="cls-10" d="M482.41,222.71c11-1.59,13.24,8.19,15.66,14.69s7.59,10,14.4,14.4c5.76,3.75,4.69,11.94-6.31,15.34-7.63,2.35-29.88,5.45-36.92-1.25-6.8-6.48-3.73-14.72-.6-21.92S473.41,224,482.41,222.71Z"/><ellipse cx="478.98" cy="247.7" rx="0.95" ry="2.3"/><ellipse cx="484.89" cy="247.7" rx="0.95" ry="2.3"/><path class="cls-9" d="M421.29,449.54c2.4-6.8,22.69,2.57,27.87,4.9s23.1,11.27,23.68,16.45-12.64,5.74-25,0S418.79,456.61,421.29,449.54Z"/></svg>