<svg id="圖層_1" data-name="圖層 1" xmlns="http://www.w3.org/2000/svg" viewBox="0 0 1110 738"><defs><style>.cls-1{fill:#fbc6a6;}.cls-1,.cls-2,.cls-3,.cls-4,.cls-5,.cls-6,.cls-7{stroke:#000;stroke-linejoin:round;stroke-width:0.33px;}.cls-2{fill:#fff;}.cls-3{fill:#e5aeae;}.cls-4{fill:#b25269;}.cls-5{fill:#fff6eb;}.cls-6{fill:none;}.cls-7{fill:#ea6157;}</style></defs><title>main01</title><path class="cls-1" d="M139.11,367.45c32.37-31.77,150.35-60.42,266.37-60.36s322.39-60.86,396.13-22.33,59.45,67.29,103.44,88.52,135.47,20,138.7,45-7,41.62-17.73,54.77-34.29,46-86.54,50.75c-31.53,2.85-103.64,17.73-191.21,15.58s-139.68-3.23-205.22,6.44-84.34,23.64-122.49,8.6-51.95-23.64-90.71-30.62-116.12-25.11-142.44-30.82-67.69-19.14-82.74-39,9.14-30.62,13.43-44.05S123.94,382.35,139.11,367.45Z"/><ellipse class="cls-2" cx="710.87" cy="412.42" rx="10.14" ry="4.81"/><path class="cls-3" d="M317.49,332.15s2.81,6.3-1,14.45-6.18,15.3-2,25.55l7.33-4.74a55.73,55.73,0,0,1,2.5-22.77c2.68-7.83,1-14,0-15.43Z"/><path class="cls-4" d="M308.17,323.12c1,1.81,4.44,2.65,7.85.2,5.32-3.81,8.43,1.77,14.83-.94,4.28-1.81,3.24-7.26,8.2-8.67-2.43-4.2-6.55-8.48-8.2-12.65-3.05-7.71-7.84-16.3-15.68-15.15-11,1.63-6.66,20-7.05,26.62-.19,3.19-1.25,6.08-1.78,8.93A3.46,3.46,0,0,1,308.17,323.12Z"/><path class="cls-5" d="M339.05,313.71c-5,1.41-3.92,6.86-8.2,8.67-6.4,2.71-9.51-2.87-14.83.94-3.41,2.45-6.86,1.61-7.85-.2a3.46,3.46,0,0,0-1.83-1.66,11.19,11.19,0,0,0,1.78,9.34c4.51,6.33,22.72,2.52,30.9-6.7C342,320.79,341.12,317.28,339.05,313.71Z"/><path class="cls-6" d="M321.87,298.29c-.09,5.53,4.8,8.36,5.19,12.15"/><path class="cls-6" d="M309.09,324.1s-.64,5.63,3.23,9.33"/><path class="cls-6" d="M334,319.17a16.32,16.32,0,0,1,0,9.17"/><path class="cls-6" d="M314.71,324.1s.64,7.07,4.56,9.66"/><path class="cls-6" d="M326.23,323.09s2.51,6.35.83,8.77"/><path class="cls-7" d="M145.26,231c-2.43-6.72,4.85-12.83,13.52-10.75s11.58.08,11.76-8,6.43-11.88,11.64-10.43,9.59,8.29,5.63,14.46-5.21,8.89-3.33,11.6,5.79,2,17.3,2.3,22.51,5,25.43,10.21,2.92,17.1-7.92,14-17.72-8.34-19.6-3.75,7.09,10.42,17.93,9.79,32.52,6.05,36.48,17.52-10,12.5-18.55,10.63-14.18,4.38-6.05,8.54,36.63-4.06,49.49,6.44-1.24,18-16.17,19.13-20.24.78-19.9,5.43,16.25,3,26.54,8.62,15.26,16.05,8.29,18.81-16.25-4.08-18.91,0,18.58,28.64,17.59,34.61S251.71,411.59,245,408.28s-34.59-24.22-33.93-39.15,3.65-16.59,11.62-23.89S231.4,332.13,224,331s-19.57,1.76-18.24-8.41,8.34-20,2.6-24.78-12.12,1.16-14.08,7.3-10.77,22.53-19.66,15c-7.79-6.62-.27-21.42,4.92-31.78,4.48-8.94,10.56-32.26,3-33.33s-3,26.77-12.82,25.63-16.33-10.38-9.34-22.93,13.46-20.78,10.17-24.23-8.42,2.49-14.26,3.26C150.88,237.39,146.88,235.44,145.26,231Z"/><path class="cls-6" d="M171.61,227.19c36.65,35.61,74.61,105.55,88.12,178.24"/><path class="cls-3" d="M313.4,392.38s-19.63-11.76-22.82-35.12-10.52-34.7-10.52-34.7l7.69-3.39s7.33,11.34,10.52,34.7S321.09,389,321.09,389Z"/><path class="cls-5" d="M244.35,312.92a30.12,30.12,0,0,0,4,6.83,18.74,18.74,0,0,0,13.85,7.12c8.67.49,24.59-.31,38.79-10.22a18.78,18.78,0,0,0,7.47-20.51c-.1-.35-.21-.69-.32-1C305.74,288.22,244.35,312.92,244.35,312.92Z"/><path class="cls-6" d="M253.8,316.31A23.71,23.71,0,0,0,264.5,327"/><path class="cls-6" d="M278.52,325.85c-5.26-3.94-6.86-11-6.86-11"/><path class="cls-6" d="M282.43,314.84s.53,6.57,3.18,9.26"/><path class="cls-6" d="M295.58,305.59s2.88,8.91.89,13.88"/><path class="cls-6" d="M302.78,304.4s1.69,6.13-.39,11.15"/><path class="cls-6" d="M288.47,311.83s1.08,7.88,4.23,9.56"/><path class="cls-6" d="M262.68,314.84s2.83,9.88,9,11.91"/><path class="cls-4" d="M263.32,246.65c20.7-3.84,45.56,39.28,44.78,50.41s-10.93,5.66-14.84,9.95-8.13,9.93-20.3,8c-14.43-2.28-20,5.06-28.61-2.1C239,296.82,240.18,250.94,263.32,246.65Z"/><path class="cls-6" d="M281.16,268.23s2.87,12,10.41,16.53"/><path class="cls-6" d="M272.64,262.8s1.18,8.39,4.11,11.35"/><path class="cls-3" d="M838.92,302.62s-5.88,22.13,2.23,39.31c10.33,21.88-13.95,25.44-27.52,14.92-10.75-8.32-4-18.94-1.13-32.74a70.45,70.45,0,0,0,.5-25.64S834,290.41,838.92,302.62Z"/><path class="cls-5" d="M819.83,350c1.59-2.34,6.14,2.15,6.27,4.63s-2.14,1.65-4.35-.17C820.4,353.32,819.08,351.07,819.83,350Z"/><path class="cls-4" d="M763.89,274.92c0-11.14,11-12.57,20.11-13.24s21.73-8.62,36-20.71,29.8-6.48,33.69,11.33,11.92,25.15,24.28,33.37,9.74,18.59,3,21.9-39,3.88-63.65-2.19S763.89,286.07,763.89,274.92Z"/><path class="cls-6" d="M818.43,253.19s-4.91,9.82-15.9,11.46"/><path class="cls-6" d="M818.43,261.68s-3.34,5.42-11.4,6.64"/><path class="cls-6" d="M813.63,253.19s-2.93,3.61-5.86,4.49"/><path class="cls-6" d="M855.07,268.32s-.42,8.09,5.59,12.19"/><path class="cls-6" d="M861.52,276.35s2.49,3.59,4.54,4.62"/><ellipse class="cls-1" cx="872.86" cy="299.17" rx="5.94" ry="2.4"/><ellipse class="cls-1" cx="850.23" cy="303.03" rx="2.86" ry="4.92" transform="translate(229.52 958.34) rotate(-66.17)"/><ellipse class="cls-1" cx="864.65" cy="292.12" rx="2.95" ry="1.85"/><ellipse class="cls-1" cx="782.89" cy="276.3" rx="4.57" ry="10.44" transform="translate(105.9 756.87) rotate(-54.81)"/><ellipse class="cls-1" cx="801.88" cy="291.16" rx="2.68" ry="4.42" transform="translate(101.81 778.68) rotate(-54.81)"/><ellipse class="cls-1" cx="797.77" cy="278.66" rx="2.12" ry="3.32" transform="translate(78.76 722.64) rotate(-50.95)"/><path class="cls-1" d="M793,348.06c2.9,3.8,5.76,7.58,8.64,11.3C798.73,355.64,795.87,351.86,793,348.06Z"/><path class="cls-1" d="M722,281.91l-2.36-1.09,2.36,1.09Z"/><path class="cls-1" d="M776.61,327.5c.35.41.7.82,1,1.24h0Z"/><path class="cls-1" d="M777.65,328.73h0l.15.17Z"/><path class="cls-5" d="M478.5,303.54c32.77-4.33,40.3,3.71,68.06,5.56s41.37-10.51,59.91-30.91c4.81-5.28,8.65-9.15,11.72-12-8.87-3.56-18.06-7.47-45.72-7.79-53.78-.62-98.92,19.78-135.39,42.66l-.72.47C445.33,303.85,459.8,306,478.5,303.54Z"/><path class="cls-7" d="M477.51,411.4c-4.8,4.5-12.13,9.23-23.08,4.45-27.58,31.39-59.71,53.94-59.71,53.94,14.07,4.84,27.79,6.41,40.5.06,27.31-13.66,48.15-43.43,63.92-65.87-3.13-.93-6.2-1.72-9.16-2.38C485.77,405.9,481.39,407.76,477.51,411.4Z"/><path class="cls-1" d="M477.51,411.4c3.88-3.64,8.26-5.5,12.47-9.8a152.78,152.78,0,0,0-21.43-3.23l-3.17,4.16c-3.5,4.58-7.18,9-10.95,13.32C465.38,420.63,472.71,415.9,477.51,411.4Z"/><path class="cls-7" d="M629.58,413.73c-33.09,10.26-70,6.08-109.7-12.45a128.16,128.16,0,0,0-14.74-5.78c-3.09-1-6.12-1.86-9.08-2.61a158.2,158.2,0,0,0-20.47-3.78l-7,9.26A152.78,152.78,0,0,1,490,401.6c3,.66,6,1.45,9.16,2.38a120.54,120.54,0,0,1,16.57,6.24c26.92,12.57,52.73,18.86,77.15,18.86a132.85,132.85,0,0,0,39.64-5.93c30.15-9.35,53.64-23.95,70.28-43.56q-4.81-2.13-9.26-4.43C678.16,392.37,656.78,405.29,629.58,413.73Z"/><path class="cls-7" d="M714.74,348.84c-1-.62-2.06-1.2-3.1-1.78a108.23,108.23,0,0,1-11.73,20.23q4.38,2.2,9.13,4.24a117.31,117.31,0,0,0,11.05-19.24C718.35,351.08,716.56,349.93,714.74,348.84Z"/><polygon class="cls-1" points="804.39 362.94 804.39 362.94 804.39 362.94 804.39 362.94"/><path class="cls-5" d="M722.53,282.16c.68.33,1.35.66,2,1l1,.51c.52.27,1,.55,1.57.84l1,.57c.52.29,1,.6,1.56.9l1,.57,1.88,1.16.6.39c.82.52,1.63,1.06,2.44,1.61l.84.57,1.69,1.18,1,.7,1.61,1.18,1,.72,1.8,1.39.76.59c.85.67,1.7,1.35,2.56,2l.61.51,2,1.69.93.8,1.79,1.54,1,.86,1.89,1.67.86.78q1.38,1.24,2.79,2.55,1.63,1.5,3.22,3.05l1,1,2.08,2.07,1.21,1.25c.61.63,1.22,1.26,1.82,1.9l1.26,1.35,1.7,1.84c.42.47.84.93,1.25,1.4l1.64,1.84,1.23,1.41,1.6,1.87,1,1.23h0l.15.18,1.59,1.91,1.14,1.38,1.65,2,1,1.26c.84,1.05,1.68,2.11,2.51,3.17l1.47,1.88,1.07,1.38c.58.74,1.16,1.49,1.73,2.24l.75,1,2.12,2.77.12.15c2.9,3.8,5.76,7.58,8.64,11.3l.2.26,2.57,3.31h0a102.71,102.71,0,0,1-1-18.2c.56-16.27-5.36-20.79-9-26.49-9.5-14.68-17.77-10.72-25.37-19.62s-16.87-19.27-30.28-24c-8.83-3.09-14.12,2.84-16.69,7.24h0Z"/><path class="cls-1" d="M804.39,362.94Z"/><path class="cls-1" d="M312.43,431.8c-2.51-14.38,9.71-30.92,10.79-41.71s1.8-15.46,5.39-25.52a21.09,21.09,0,0,0-1.79-18c-1.12,2-2.21,4-3.25,5.92-18.64,35.22-37.34,38.19-43.5,60.08-3.6,12.79.61,21.46,31.6,25.56A10.49,10.49,0,0,0,312.43,431.8Z"/><path class="cls-5" d="M372.48,451.22c11.14-22.29,2.15-35.24,6.11-53.21s13.66-15.47,16.13-29.49-5.14-26-5.2-26.14c-20.44,22-38,46.24-45.79,62.55-8.48,17.72-11.67,29.92-12.88,36.6,11.81,3.55,24.11,9.93,36.46,16.1A18,18,0,0,0,372.48,451.22Z"/><path class="cls-7" d="M895.38,412.6c-36.25-32.11-81.83-110.84-126.37-144s-78.73-26.93-103.59-22.17-62.16-16.15-109-18.23c-33.59-1.48-66.25-.3-98.84,9.63-1.72,9.72-8,32.54-29.35,38.89-27.37,8.14-35.5,11.47-42.16,20.71s-9.49,20.85-20,23.26c-12.34,2.84-19.66,1.83-23.13.87a253.47,253.47,0,0,0-16.12,25,21.09,21.09,0,0,1,1.79,18c-3.59,10.06-4.31,14.74-5.39,25.52s-13.3,27.33-10.79,41.71a10.49,10.49,0,0,1-.76,6.36c2.11.28,4.34.54,6.71.77a64.13,64.13,0,0,1,9.93,1.88c.84.23,1.69.46,2.54.72,1.21-6.68,4.4-18.88,12.88-36.6,7.79-16.31,25.35-40.53,45.79-62.55,15-16.13,31.48-31.07,46.84-40.84l.72-.47c36.47-22.88,81.61-43.28,135.39-42.66,27.66.32,36.85,4.23,45.72,7.79,8.38,3.37,16.47,6.41,39.6,5.81l4-.08h.69l3.66,0h.71c1.23,0,2.44,0,3.63,0h.23c1.15,0,2.27,0,3.39.06l.6,0c1.11,0,2.2.07,3.29.12l.69,0c1.08.05,2.16.11,3.22.18l.38,0,2.95.22.52.05c1,.08,2,.18,3,.29l.66.07c1,.11,1.94.22,2.89.35l.48.07,2.63.38.44.07c.92.15,1.82.31,2.72.48l.64.12c.89.17,1.76.35,2.63.54l.53.12,2.44.58.33.08c.86.22,1.71.46,2.55.7l.6.17c.82.24,1.64.49,2.44.75l.56.18c.79.26,1.57.53,2.34.8l.26.09c.8.3,1.6.6,2.39.92l.58.23c.77.31,1.55.64,2.32,1l.57.25,2.36,1.09c2.57-4.4,7.86-10.33,16.69-7.24,13.41,4.69,22.67,15.06,30.28,24s15.87,4.94,25.37,19.62c3.69,5.7,9.61,10.22,9,26.49a102.71,102.71,0,0,0,1,18.2h0l1.43,1.8.82,1,1.27,1.58,1,1.23,1.21,1.47,1.08,1.3,1.17,1.4,1.15,1.35,1.14,1.33,1.23,1.4,1.1,1.24,1.45,1.59.91,1c.78.84,1.56,1.66,2.35,2.48l.81.82c.55.56,1.1,1.12,1.66,1.67l1,1,1.52,1.46,1.07,1,1.51,1.38,1.11,1,1.55,1.34,1.11.93,1.65,1.34c.36.28.71.57,1.08.85.61.48,1.23.94,1.86,1.41l.93.7c.94.68,1.89,1.36,2.86,2s1.83,1.27,2.74,1.93c5.19-1.06,13.67-1.14,24.55,4.63,18.62,9.9,24.73,21.25,33.46,31.14,7.59,8.6,12.76,25.78,7.28,33.57a149.7,149.7,0,0,0,12.25,11.9c3.08-.65,6.07-1.38,8.92-2.19C952.35,474.75,931.64,444.71,895.38,412.6Z"/><path class="cls-1" d="M366.07,320.7c10.48-2.41,13.31-14,20-23.26s14.79-12.57,42.16-20.71c21.36-6.35,27.63-29.17,29.35-38.89a205.66,205.66,0,0,0-38.67,16.27c-32.4,17.67-57.46,42.14-75.94,67.46C346.41,322.53,353.73,323.54,366.07,320.7Z"/><path class="cls-5" d="M612.78,341.42c-5-6.68-11.7-7.66-18.46-7-7.58.75-16.79-2.92-27.23,4.91a27.75,27.75,0,0,0-10.34,17.37,164.57,164.57,0,0,1,27.49-8C593.82,346.81,603.17,344,612.78,341.42Z"/><path class="cls-1" d="M504.57,355A117.68,117.68,0,0,1,526.73,338c-2.91,0-6.16-.13-9.72-.32-16.24-.87-24.85.67-30.75,12.47a30.57,30.57,0,0,0-2.82,13.15A59.27,59.27,0,0,0,485,377,218,218,0,0,1,504.57,355Z"/><path class="cls-1" d="M751.75,383.84l.15-.7-.75-.08Z"/><path class="cls-1" d="M638.2,320.46l6.06,1.32.59.13c28.79,6.33,41.73,4,67,24.56.93.76,1.88,1.54,2.85,2.37h0c1.82,1.09,3.61,2.24,5.35,3.45,11.88,8.21,22,18.95,31.06,30.77l.75.08c2.52-11.68,3.71-33.16-14.1-44.61-20.26-13-27.15-38.18-56.82-39.81-27.58-1.51-42.3,15.44-46.36,21l3.58.75Z"/><path class="cls-7" d="M507.67,372.51c-2.54,12-5.77,8.76-11.61,20.37h0c3,.75,6,1.61,9.08,2.61,2.61-3.63,5.07-6.93,7.36-9.73,10.56-12.91,27.55-22.6,44.25-29.07a27.75,27.75,0,0,1,10.34-17.37c10.44-7.83,19.65-4.16,27.23-4.91,6.76-.66,13.42.32,18.46,7a199,199,0,0,1,29.9-6.22c3.5-.4,7.08-.66,10.76-.75h0l1.92,0c25.23-.14,48.36,8.77,48.36,8.77,2.71,1.16,5.34,2.46,7.9,3.86,1,.58,2.08,1.16,3.1,1.78h0c-1-.83-1.92-1.61-2.85-2.37-25.31-20.55-38.25-18.23-67-24.56l-.59-.13-6.06-1.32-.23.13.23-.13-3.58-.75c-24.8-5.07-42.81-5.91-81.2,6.56A133.2,133.2,0,0,0,526.73,338,117.68,117.68,0,0,0,504.57,355C506.82,359.27,509.12,365.72,507.67,372.51Z"/><path class="cls-1" d="M496.06,392.88c5.84-11.61,9.07-8.37,11.61-20.37,1.45-6.79-.85-13.24-3.1-17.55A218,218,0,0,0,485,377c-3.05,3.84-6.15,7.87-9.38,12.1a158.2,158.2,0,0,1,20.47,3.78Z"/><polygon class="cls-1" points="637.98 320.59 638.2 320.46 638.2 320.46 637.98 320.59"/><path class="cls-7" d="M751.15,383.06a142,142,0,0,1-26.75-5.81c-5.41-1.72-10.52-3.65-15.36-5.72q-4.74-2-9.13-4.24a161.1,161.1,0,0,1-44.53-32.86l-1.92,0h0c-3.68.09-7.26.35-10.76.75a166.19,166.19,0,0,0,50.84,40q4.46,2.29,9.26,4.43a182.15,182.15,0,0,0,18.63,7.07,149.1,149.1,0,0,0,37.38,7c-2.28-3.33-4.62-6.62-7-9.82Z"/><path class="cls-5" d="M878.71,435.64c10.72,12.37,21,25.16,30.72,35.62,5.48-7.79.31-25-7.28-33.57-8.73-9.89-14.84-21.24-33.46-31.14-10.88-5.77-19.36-5.69-24.55-4.63C856.17,410.69,867.69,422.93,878.71,435.64Z"/><path class="cls-1" d="M844.14,401.92c-.91-.66-1.82-1.31-2.74-1.93s-1.92-1.34-2.86-2l-.93-.7c-.63-.47-1.25-.93-1.86-1.41-.37-.28-.72-.57-1.08-.85L833,393.67l-1.11-.93-1.55-1.34-1.11-1-1.51-1.38-1.07-1-1.52-1.46-1-1c-.56-.55-1.11-1.11-1.66-1.67l-.81-.82c-.79-.82-1.57-1.64-2.35-2.48l-.91-1L817,378.08l-1.1-1.24-1.23-1.4-1.14-1.33-1.15-1.35-1.17-1.4-1.08-1.3-1.21-1.47-1-1.23-1.27-1.58-.82-1-1.43-1.8h0l-2.57-3.31-.2-.26c-2.88-3.72-5.74-7.5-8.64-11.3l-.12-.15-2.12-2.77-.75-1c-.57-.75-1.15-1.5-1.73-2.24l-1.07-1.38-1.47-1.88c-.83-1.06-1.67-2.12-2.51-3.17l-1-1.26-1.65-2-1.14-1.38-1.59-1.91-.15-.17c0,.08-7.23,24.19,3.56,49.95.59,1.4,1.19,2.71,1.8,3.94a50.89,50.89,0,0,0,5.63,9.07C798.38,404,810,404.38,820.05,414c12.84,12.15,14.19,22,29.39,24.31a61.85,61.85,0,0,0,17.14.45,46.86,46.86,0,0,0,12.13-3.08C867.69,422.93,856.17,410.69,844.14,401.92Z"/><path class="cls-7" d="M909.43,471.26c-9.76-10.46-20-23.25-30.72-35.62a46.86,46.86,0,0,1-12.13,3.08,61.85,61.85,0,0,1-17.14-.45c-15.2-2.36-16.55-12.16-29.39-24.31-10.1-9.58-21.67-9.95-31.41-22.26a50.89,50.89,0,0,1-5.63-9.07c-.61-1.23-1.21-2.54-1.8-3.94-10.79-25.76-3.58-49.87-3.56-49.95-.34-.42-.69-.83-1-1.24l-1.6-1.87-1.23-1.41-1.64-1.84c-.41-.47-.83-.93-1.25-1.4l-1.7-1.84-1.26-1.35c-.6-.64-1.21-1.27-1.82-1.9l-1.21-1.25-2.08-2.07-1-1q-1.59-1.55-3.22-3.05-1.41-1.31-2.79-2.55l-.86-.78L753,303.49l-1-.86-1.79-1.54-.93-.8-2-1.69-.61-.51c-.86-.7-1.71-1.38-2.56-2l-.76-.59-1.8-1.39-1-.72L739,292.16l-1-.7-1.69-1.18-.84-.57c-.81-.55-1.62-1.09-2.44-1.61l-.6-.39-1.88-1.16-1-.57c-.52-.3-1-.61-1.56-.9l-1-.57c-.52-.29-1-.57-1.57-.84l-1-.51c-.66-.34-1.33-.67-2-1l-.49-.25-2.36-1.09-.57-.25c-.77-.33-1.55-.66-2.32-1l-.58-.23c-.79-.32-1.59-.62-2.39-.92l-.26-.09c-.77-.27-1.55-.54-2.34-.8l-.56-.18c-.8-.26-1.62-.51-2.44-.75l-.6-.17c-.84-.24-1.69-.48-2.55-.7l-.33-.08-2.44-.58-.53-.12c-.87-.19-1.74-.37-2.63-.54l-.64-.12c-.9-.17-1.8-.33-2.72-.48l-.44-.07-2.63-.38-.48-.07c-1-.13-1.92-.24-2.89-.35l-.66-.07c-1-.11-2-.21-3-.29l-.52-.05-2.95-.22-.38,0c-1.06-.07-2.14-.13-3.22-.18l-.69,0c-1.09-.05-2.18-.09-3.29-.12l-.6,0c-1.12,0-2.24-.05-3.39-.06h-.23c-1.19,0-2.4,0-3.63,0h-.71l-3.66,0h-.69l-4,.08c-23.13.6-31.22-2.44-39.6-5.81-3.07,2.84-6.91,6.71-11.72,12-18.54,20.4-32.14,32.77-59.91,30.91s-35.29-9.89-68.06-5.56c-18.7,2.47-33.17.31-42.14-2-15.36,9.77-31.87,24.71-46.84,40.84.06.11,7.65,12.18,5.2,26.14S382.54,380,378.59,398s5,30.92-6.11,53.21a18,18,0,0,1-5.17,6.41c9.16,4.58,18.36,9.05,27.41,12.16,0,0,32.13-22.55,59.71-53.94,3.77-4.29,7.45-8.74,10.95-13.32l3.17-4.16,7-9.26c3.23-4.23,6.33-8.26,9.38-12.1a59.27,59.27,0,0,1-1.53-13.67,30.57,30.57,0,0,1,2.82-13.15c5.9-11.8,14.51-13.34,30.75-12.47,3.56.19,6.81.29,9.72.32a133.2,133.2,0,0,1,26.69-11.77c38.39-12.47,56.4-11.63,81.2-6.56,4.06-5.55,18.78-22.5,46.36-21,29.67,1.63,36.56,26.78,56.82,39.81,17.81,11.45,16.62,32.93,14.1,44.61l-.15.7c2.42,3.2,4.76,6.49,7,9.82,17.19,25.22,30.34,53.22,44.4,71.77,25.89,34.19,46.61,24.86,61.11,23.83,12.61-.9,36.94-1.81,57.38-6.1A149.7,149.7,0,0,1,909.43,471.26Z"/><path class="cls-7" d="M529.58,500.21a6,6,0,0,0,.85-11.55h0L536,486a6,6,0,0,0-1.18-11.22l-6-1.41,5.15-3.05a6,6,0,0,0-2.29-11.07l-5.93-.76,4.52-3.41a6,6,0,0,0-3.58-10.74l-5.65,0,3.65-3.66a6,6,0,0,0-5.13-10.13l-5.09.78,2.62-3.74a6,6,0,0,0-6.9-9.06l-4.29,1.54,1.6-3.78a6,6,0,0,0-8.71-7.37l-3.45,2.2.7-4.05a6,6,0,0,0-10.17-5.18L483,404.85l-.24-4.58a6,6,0,0,0-11-2.89l-2.47,3.89L468,396.19a6,6,0,0,0-11.31-.88l-2,4.85-2-4.83a6,6,0,0,0-11.31.87l-1.25,5.07-2.47-3.9a6,6,0,0,0-11,2.89l-.25,4.59-2.87-3a6,6,0,0,0-10.16,5.19l.69,4-3.45-2.19a6,6,0,0,0-8.71,7.37l1.6,3.77-4.28-1.53a6,6,0,0,0-6.9,9.05l2.61,3.74-5.08-.78a6,6,0,0,0-5.13,10.13l3.64,3.65-5.64,0a6,6,0,0,0-3.59,10.74l4.52,3.42-5.94.76a6,6,0,0,0-2.29,11.06l5.16,3.06-6,1.41A6,6,0,0,0,373.36,486l5.6,2.64h0a6,6,0,0,0,.84,11.54s32,7.92,74.89,7.92C490,508.13,529.58,500.21,529.58,500.21Z"/><path class="cls-6" d="M475.28,437.94s3.11-8.33,7.81-5.44,0,9.92,0,9.92"/><path class="cls-4" d="M366.9,501.65c28.47,0,48.26-8.64,48.26-8.64a3.85,3.85,0,0,0,.54-7.44h0l3.6-1.69a3.86,3.86,0,0,0-.76-7.24l-3.87-.9,3.32-2a3.85,3.85,0,0,0-1.47-7.13l-3.82-.49,2.9-2.2a3.85,3.85,0,0,0-2.31-6.92h-3.63l2.35-2.36a3.85,3.85,0,0,0-3.31-6.52l-3.28.5,1.69-2.42a3.85,3.85,0,0,0-4.45-5.83l-2.76,1,1-2.43a3.85,3.85,0,0,0-5.61-4.76l-2.22,1.42.45-2.61a3.85,3.85,0,0,0-6.55-3.34l-1.86,1.9-.15-3a3.85,3.85,0,0,0-7.1-1.86l-1.59,2.51-.81-3.27a3.85,3.85,0,0,0-7.29-.57l-1.3,3.13-1.3-3.12a3.85,3.85,0,0,0-7.29.56l-.81,3.27-1.59-2.51a3.85,3.85,0,0,0-7.1,1.86l-.16,3-1.85-1.9a3.85,3.85,0,0,0-6.55,3.34l.45,2.61-2.22-1.42a3.85,3.85,0,0,0-5.62,4.75l1,2.43-2.76-1a3.85,3.85,0,0,0-4.45,5.83l1.69,2.41-3.28-.5a3.85,3.85,0,0,0-3.31,6.52l2.35,2.36H320.5a3.85,3.85,0,0,0-2.31,6.92l2.91,2.2-3.83.49a3.85,3.85,0,0,0-1.47,7.13l3.32,2-3.87.91a3.85,3.85,0,0,0-.76,7.23l3.6,1.7h0a3.85,3.85,0,0,0,.55,7.44S338.22,501.65,366.9,501.65Z"/><path class="cls-1" d="M342.63,447.79s-5,9.76,10.9,8.82,26.61-11.26,26.61-11.26,8.39-10.54,6-28.51S373,396,369.12,405.58c0,0-6.94-7.25-13.41-4s-4.95,10.8-4.15,13.14c0,0-6.65,0-9.68,5.94-2.77,5.41.75,11.26.75,11.26a9.12,9.12,0,0,0-5.85,8.14C336.54,446.31,342.63,447.79,342.63,447.79Z"/><circle class="cls-4" cx="356.54" cy="423.67" r="1.99"/><circle class="cls-4" cx="365.02" cy="421.68" r="1.99"/><circle class="cls-4" cx="355.43" cy="432.74" r="2.01"/><line class="cls-1" x1="357.44" y1="432.74" x2="367.31" y2="435.47"/><line class="cls-1" x1="365.02" y1="423.67" x2="369.63" y2="434.11"/><line class="cls-1" x1="358.05" y1="424.95" x2="368.56" y2="434.74"/><path class="cls-6" d="M380.14,445.35s17.47,11.32,19.29,62.25"/><path class="cls-5" d="M389.79,436.41a31.52,31.52,0,0,0,.61,23.73S398,446.73,389.79,436.41Z"/><path class="cls-5" d="M372.88,463.6c.6,0,4.68,1.61,8.69,6.11a15,15,0,0,0,13.64,4.83A19.71,19.71,0,0,0,386,463.6,14.28,14.28,0,0,0,372.88,463.6Z"/><path class="cls-1" d="M364.92,445.34s-6,2-7.07-2.46,3.82-5.06,3.82-5.06-2.34-4.34,0-6.65a5.62,5.62,0,0,1,7.42,0,9.61,9.61,0,0,1,1.54-9.23,6.16,6.16,0,0,1,10.93,4.15"/><path class="cls-1" d="M407.58,410c10.94-2.07,14,9.24,14,9.24s3-9.8,11.7-9.82c7.1,0,10.23,9.13,10,12.31,0,0,8.84-1.67,13.93,3.26,5.37,5.19,1.21,15.15,1.21,15.15s9.75,1.28,10.18,8.18c.53,8.39-9.62,16.84-30.09,14.7s-33.35-10.09-38-26.15S401.18,411.17,407.58,410Z"/><polyline class="cls-1" points="434.4 426.1 432.71 443.53 449.57 436.41"/><line class="cls-1" x1="444.32" y1="428.43" x2="432.71" y2="443.53"/><circle class="cls-4" cx="434.48" cy="423.9" r="2.21"/><circle class="cls-4" cx="452.16" cy="435.25" r="2.53"/><circle class="cls-4" cx="445.76" cy="426.1" r="2.53"/><path class="cls-1" d="M412.1,438.16s1.83-9.46,10.56-9.72,9.88,12.37,9.88,12.37,7.47-6,11.78-2.65,0,10.12,0,10.12,6.52-1.24,7.22,2.83-3.51,5.93-8.43,5.56"/><path class="cls-2" d="M557.8,472.55c-1.13-4.52,7.73-8.65,16.57-8.63s14.79,2.67,15.24,6-11.93,5.54-19.66,5.86S558.69,476.09,557.8,472.55Z"/><path class="cls-4" d="M713.5,403.74s0,58.65,45.29,72.16c0,0,1.76-32.49-20.2-50.29S713.5,403.74,713.5,403.74Z"/><path class="cls-6" d="M721,419.2c12.63,30.14,27.54,33.81,37.78,56.7"/><path class="cls-2" d="M542.85,458.65c-.78-3.61,6.76-6.14,10.65-3.89s2.25,6.12-2,6.44S543.46,461.52,542.85,458.65Z"/><path class="cls-7" d="M122.74,336.47c-7.1-4.09-5.88-17.05,3.8-21,7.73-3.19,12.88-.15,11.06-10.35-1.47-8.28,3-12.74,7.19-12.76,4.57,0,8.72,3.73,7.68,12.76s7.26,9.64,10.72,0,12.87-9.65,16.28-3c4.78,9.24-5.58,16.2,0,22.34s31-8.93,41.61-.56,1.68,16.2-8.65,20.67-11.45,12-4.19,12.29,32.2-4.54,39.37,8.65c6.2,11.4-4.1,14.08-10.61,16.2-7.93,2.59-9.77,11.73,1.4,13.4s27.15-3.54,48,6.57c16,7.78-1.51,24.06-22.56,24.06-17.05,0,1.37,26.38-8.1,55.14,0,0-13.67-16.89-15.86-24.85-3.22-11.76,1-17.79-3.64-19.54-6.55-2.47-4.52,24.06-16.8,21.22s-4.41-31-3.74-42.89-1.85-17.3-6.32-14.73-3.68,14.6-7.26,19.68c-5.47,7.77-16.39,2.67-17.2-6.94-1.21-14.23,8.78-26.45,8-37.26-.57-8.08-11.18-9.83-11.74-.34s-3.65,23.51-11.75,19.88,1.87-28.76,2.19-37.42-3.31-15.08-9.17-12.28-1.83,19.93-10.89,15.63c-8-3.78-7.89-19.53-6-25,3.44-10.25-3-12-6.41-8.5C134.4,332.29,130,340.64,122.74,336.47Z"/><path class="cls-6" d="M142.8,316.23s91.39,31.6,112.91,164.57"/><path class="cls-4" d="M775.27,377.2s30.38,71.71-18.59,102.69C756.68,479.89,747.11,409.66,775.27,377.2Z"/><path class="cls-6" d="M771.58,421s1.26,28.26-14.9,58.94"/><path class="cls-4" d="M821,436.31s-17.36,43.56-56.85,33.33C764.15,469.64,771.11,434.61,821,436.31Z"/><path class="cls-6" d="M799.46,449.34a121.51,121.51,0,0,1-35.31,20.3"/><path class="cls-4" d="M270.82,382.1c8-2,11.42-6.15,12.9-9.3-3.44-12.05-14-28.11-22.22-26-8.9,2.26-11.24,21.85-8.66,33.35C255.86,382.07,261.75,384.42,270.82,382.1Z"/><path class="cls-5" d="M283.72,372.8c-1.48,3.15-4.92,7.26-12.9,9.3-9.07,2.32-15,0-18-2a16.76,16.76,0,0,0,2.67,6.54c6,7.67,30.16,3.59,29.31-8.15A29.93,29.93,0,0,0,283.72,372.8Z"/><path class="cls-6" d="M269.16,382.48a67.16,67.16,0,0,1,1,7.85"/><path class="cls-6" d="M280.44,377.23a19.55,19.55,0,0,1,1.27,8.35"/><path class="cls-6" d="M275.31,380.54a17.54,17.54,0,0,1,1.19,8.17"/><path class="cls-6" d="M262.76,383s0,5,2.06,7.51"/><path class="cls-6" d="M257.46,382.22s-.18,4.54,2.56,7.38"/><path class="cls-2" d="M593.21,385.52c-3.58-3.31,1.59-9.59,10.65-10.36s11.13,2.67,8.92,5.18C607.57,386.24,596.08,388.17,593.21,385.52Z"/><ellipse class="cls-2" cx="625.07" cy="386.69" rx="6.1" ry="3.34" transform="translate(-37.63 68.77) rotate(-6.11)"/><path class="cls-2" d="M634.62,374c.24-5,18-7.34,20.76-2.45,1.36,2.38-1.68,4.44-6.4,5.67S634.42,378,634.62,374Z"/><path class="cls-5" d="M945.43,421.62s-3,15,6.45,37.85,4.72,34.44-10.91,39.16c-14.67,4.44-52.83,6.84-57.76-15.49-4-18,18.62-33.48,20.09-65.39S944.28,400.77,945.43,421.62Z"/><path class="cls-6" d="M940,475.21s2.2,9.51,0,15.34"/><path class="cls-6" d="M945.91,475.21s1.33,6.83,0,10.8"/><path class="cls-6" d="M935.13,480.61a18.35,18.35,0,0,1,0,7.39"/><path class="cls-3" d="M828.92,376.57c.26-15.84,19.79-16.6,34.36-18.1s25.39-4,49.34-21.07,43.53,6.33,55.61,21.07,24.1,17.78,36.83,25,16.06,23.88-13.09,32.21-79,9.73-123.69-8C842.06,397.25,828.7,389.51,828.92,376.57Z"/><path class="cls-6" d="M948.09,355.06s3.86,14,17.13,21.46"/><path class="cls-6" d="M959.23,364.26s4.49,7.93,11.13,11.14"/><path class="cls-6" d="M901.42,358.27s-8,7.92-18.68,10.06"/><path class="cls-6" d="M901.42,351.63s-3.64,4.28-5.78,5.14"/><path class="cls-6" d="M970.36,369.28a17.86,17.86,0,0,0,2.8,2.71"/><path class="cls-1" d="M978,395.4c-.51-4,7.71-6.63,13.67-5.41s8.52,4.19,6.63,6.22-6.23,3.47-11.24,3.09S978.31,397.57,978,395.4Z"/><path class="cls-1" d="M956.66,405.69c.09-3.28,7.17-5,11.09-3.12s1.08,6-3.92,6.63S956.6,407.82,956.66,405.69Z"/><path class="cls-1" d="M853.67,370.63c.82-2.31,7.62-1.24,12.22,1.36,3.88,2.19,11.25,3.4,11.37,7.81s-5,3.53-9.11,2S851.86,375.72,853.67,370.63Z"/><ellipse class="cls-1" cx="993.93" cy="407.66" rx="3.5" ry="2.03" transform="matrix(0.98, -0.18, 0.18, 0.98, -57.62, 187.82)"/><path class="cls-3" d="M482.88,496.29s-5.45,1.56-15.15,10.07-39.8,16.1-56.5,1.24,8.08-29.5,30.12-31.57C462.62,474,474.37,483.33,482.88,496.29Z"/><path class="cls-6" d="M407.58,503.42s26.45-12.84,63.72-6.57"/><path class="cls-6" d="M444.32,483.16a26.35,26.35,0,0,1-14,13.69,33.91,33.91,0,0,1,14,9.85"/><path class="cls-6" d="M457.52,488a18.07,18.07,0,0,1-10.59,7.22s8.2,4.7,11.44,11.51"/><path class="cls-6" d="M467.56,491.69a8.86,8.86,0,0,1-5.79,3.93,13.42,13.42,0,0,1,4.6,6.48"/><path class="cls-3" d="M325,477.08c6.86,8.24,13.79,29.62,33.87,34.83,24.2,6.27,32-4.48,46.28-2.48,0,0-2.39-24.13-28.63-35.39S325,477.08,325,477.08Z"/><path class="cls-6" d="M344.61,483.16s33.24.71,60.5,26.27"/><path class="cls-6" d="M369.28,507.6c-.23-.88,7.42-8.71,20.82-9.65a21.63,21.63,0,0,1-4.26-11.85"/><path class="cls-6" d="M355.5,499.94s7.45-8.75,22.78-8.25c0,0-4.58-2.45-5.4-10.89"/><path class="cls-6" d="M344.61,493c1-.65,8.14-7.27,17.84-6.85A11.69,11.69,0,0,1,357.38,476"/><path class="cls-3" d="M434.83,447.79s12.14,51.47-29.44,61.64c0,0-12.66-15.49-5.68-33.4S434.83,447.79,434.83,447.79Z"/><path class="cls-6" d="M426.44,461.22s-2.65,22.51-21.05,48.21"/><path class="cls-6" d="M407.58,480.8s5.77,8.77,4.84,17.74c0,0,6-5.46,12.28-4.59"/><path class="cls-6" d="M414.3,471.41s5.05,5.8,3.61,16.56c0,0,5.17-6.78,10.91-7.17"/><path class="cls-6" d="M420.37,463.6c1.3.44,3.44,3.25,3.78,7.81,0,0,2.94-3.69,6-3.91"/><path class="cls-3" d="M617.07,464.94a119.45,119.45,0,0,0,15.19,20.93c13.4,14.93,25.11,24.57,64.85,24.57,0,0-5.5-22.62-27.82-31.79S627.82,471.7,617.07,464.94Z"/><path class="cls-6" d="M697.11,510.44c-22.93-23.84-55.64-26.27-55.64-26.27"/><path class="cls-3" d="M678.12,412s1.19,3.25-4.07,22.71c-6.44,23.89,1.79,55.29,23.05,75.78,0,0,2.54-6.82,5.68-16.49C706.91,481.26,716.1,445,678.12,412Z"/><path class="cls-6" d="M686.43,437.27s10.86,17,10.67,73.17"/><path class="cls-3" d="M772.55,460.78s-31.11,14.1-44,28.54-31.92,21.19-31.92,21.19,11.2,1.64,24.76,4.09C741.18,518.18,775.62,518.9,772.55,460.78Z"/><path class="cls-6" d="M761.33,480.85S747.16,506.57,706,505.58"/><path class="cls-3" d="M734,414.35c10.14,11.87,27.21,70.39-36.83,96.09,0,0-.82-33.68,13.91-55.17A258.47,258.47,0,0,0,734,414.35Z"/><path class="cls-6" d="M731.64,449.34s-2.6,19.07-34.52,61.1"/><path class="cls-3" d="M241.78,437.37s-7.44,12.42,6.42,18.16,39.37.73,39.37.73,11,6.77,21.3-3.44c16.94,6.08,35.74-11.56,24.31-33.12,0,0,9.5-17.58-6.57-22.33,0,0-4.28-19.69-22.26-10.31,0,0-2.73-10.23-14.74-9-11.45,1.17-13.35,9.63-13.35,9.63s-11.47-4.47-19.61,1.57c-9.48,7.05-5.87,18.23-5.15,23.39,0,0-11.54-.06-13.9,9.66S241.78,437.37,241.78,437.37Z"/><path class="cls-6" d="M265,432.83s11.92,14.4,13.3,54.57"/><path class="cls-6" d="M260,438.6c.46,1.14,2.8,23.75,16.88,30.79"/><path class="cls-6" d="M265.88,417.45s-1.84-3.62,0-4.8,3.38,1.43,3.38,1.43-.53-5.68,2.42-5.52,3.4,5.67,3.4,5.67"/><path class="cls-6" d="M303.66,406.91s4.65-5.2,6.9-3.22c1.59,1.39-1.38,6.75-1.38,6.75s2.76-4.45,5.21-2.92-2.45,8.43-2.45,8.43"/><path class="cls-6" d="M283.18,432.83s6,17.84,5.29,57"/><path class="cls-6" d="M276.86,434.6s3,36.31,11.67,38.49"/><path class="cls-6" d="M293.59,434.6s-1.35,23.2,4.29,25.52"/><path class="cls-6" d="M300.61,435.8s-4.67,32-3.91,51.6"/><path class="cls-6" d="M308.12,492.45s5.81-43.61,0-58.84"/><path class="cls-2" d="M870.32,505c-.55-2.58,4.82-4.39,7.6-2.78s1.61,4.36-1.46,4.59S870.76,507,870.32,505Z"/><ellipse class="cls-2" cx="151.82" cy="401.9" rx="7.03" ry="3.53"/></svg>