<svg id="圖層_1" data-name="圖層 1" xmlns="http://www.w3.org/2000/svg" viewBox="0 0 1110 738"><defs><style>.cls-1{fill:#ffb829;}.cls-1,.cls-2,.cls-3,.cls-4,.cls-5,.cls-6{stroke:#000;stroke-linejoin:round;stroke-width:0.33px;}.cls-2{fill:#f99128;}.cls-3{fill:none;}.cls-4{fill:#ffc05a;}.cls-5{fill:#fff6eb;}.cls-6{fill:#ef5b2e;}</style></defs><title>main04</title><path class="cls-1" d="M294.17,530.36c48.92,18,44.48,26.9,109,35.8s132.3,2.22,165.66-5.56,66.71-20,146.75-30S892.89,494.4,946.8,456.09c34-24.17,3.61-55.93-9.57-67.29-26.69-23-41.19-20.7-78.34-39.22C830.3,335.33,787.34,326.15,635,310.26c-143.46-15-273,26.79-339.35,51.35s-148.42,26-139.79,64.62c10.08,45.12-15.38,49.69-3.38,71C171.32,530.71,245.26,512.35,294.17,530.36Z"/><path class="cls-2" d="M756.12,293.11c-1.49.26,21.52-10.67,41.5-11a305.52,305.52,0,0,0,1-31.49c-10,1.55-30.19,5.1-40.41,9.83,0,0,18.2-21.38,39.63-25.79-4.52-58.85-25.65-92.38-25.65-92.38C614.07,291.79,734,462.86,734,462.86c39.16-64.11,56.56-120.92,62.32-168.24C786.23,292.56,770.93,290.59,756.12,293.11Z"/><path class="cls-1" d="M851.8,311.54a59.66,59.66,0,0,1,16.94,2.09c7.26-38.18,3.32-67.36,3.32-67.36C710,333.56,729.37,472,729.37,472c63.59-21.76,99.38-60.12,119.34-99.11-.91-10.71-3.21-28.75-8.76-40.53a99,99,0,0,1,18.94,17.19,226.52,226.52,0,0,0,7.24-23.88A141.47,141.47,0,0,0,851.8,311.54Z"/><path class="cls-2" d="M900.19,384.85a256.48,256.48,0,0,0,22.52-56.23c-167.13,35.07-178,138.53-178,138.53,58.23,11.77,99-10.92,126.66-41.15,0-9.76-.24-28.52-2.39-38.46,0,0,8.07,14,11.91,27.15A211.37,211.37,0,0,0,895,394c-1.7-7.57-4.64-17.4-9.37-24A79.39,79.39,0,0,1,900.19,384.85Z"/><path class="cls-2" d="M380.36,317.13c-4.6-5.23-25.71,2.35-36.76,18.77,0,0,14-28,6.26-42.39s-20.93,3.19-23,18.15c0,0,4.74-40.7-8.11-42.47s-16.93,28.25-13.31,43.27c0,0-11.11-19.63-18.87-14s7.35,30.37,7.35,30.37-17.49-8.28-11.41,9.91c6,18,28.93,37.77,46.69,32.18C371,371.3,390,328.07,380.36,317.13Z"/><path class="cls-3" d="M360.38,340.18s-6.17,15.4-31.17,30.72c-11.27-36.54-11-63.51-11-63.51"/><path class="cls-3" d="M301.19,326s10.56,24.11,28,44.89c-2.76-25.27,8.44-53.17,8.44-53.17"/><path class="cls-2" d="M388.22,307.63s10.78-65.55,60.59-90.15c48.71-24,71.38-3.87,93.82-9.23s32.19-7.32,32.19-7.32,16.36,5.75,11.6,29.46S388.22,307.63,388.22,307.63Z"/><path class="cls-1" d="M574.82,200.93s12.47-7.5,33.07-9.39c0,0,2.81-5.61,11-10.38s14-2.25,17.12,3.09c0,0,8.42.4,6.18,9.18,0,0,6.73.88,5.61,7.5s-18,10.18-29.23,7.09c0,0-14.45,16.56-32.1,22.37C566.38,225.83,574.82,200.93,574.82,200.93Z"/><path class="cls-3" d="M617.27,195.53s9.15-11.28,18.69-11.28"/><path class="cls-3" d="M624.17,200.93s12.63-1.68,18-7.5"/><path class="cls-4" d="M268.11,403.34c-7.65-15.85,17.07-36.53,51.76-38.64s28.77,26.65,2.95,37.65C301.28,411.53,274,415.61,268.11,403.34Z"/><path class="cls-4" d="M301.76,438.56s-15.52-.77-16.26-20,20-86.66,76.12-103.95,38.34-50.9,120.63-77.89c77.69-25.48,151.9-5.17,190,51,0,0-2.51,44.34-12.12,51S455.61,459.41,455.61,459.41,339.84,505.41,301.76,438.56Z"/><path class="cls-1" d="M686.3,289.46c10.75-19.81,32.47-35.18,32.47-35.18s-4.8-10.12,3.4-18.39c7.22-7.29,16.49-2,16.49-2s11.67-4.95,14.15,6c0,0,10.16,4.44,5.38,18.59-4.45,13.17-20.24,9.36-20.24,9.36s-6.91,37.19-16.9,55.91S679.75,301.53,686.3,289.46Z"/><path class="cls-3" d="M738.66,233.92s-6.39,3.7-9.29,14.91"/><path class="cls-3" d="M752.81,239.93s-1,12.38-10.88,19.72"/><path class="cls-2" d="M445.09,456.63c-16.18-34.46,12.1-91.32,58.48-117.65s71.08-20.51,93.6-28.8,42.12-20.84,93.41-26.82c21.94-2.56,44.7,18.53,19.64,86.14-34.78,93.82-149.63,126.09-185.48,124.91S457.28,482.6,445.09,456.63Z"/><path class="cls-4" d="M336.4,468.09c-1-15.43,22.39-31.11,55.08-32.85s56.81,2,85.28,20.41-49.11,33.19-81.8,34.93S337.55,486.13,336.4,468.09Z"/><path class="cls-3" d="M454.74,228.21a7,7,0,0,1,7.62-3.85s1.57-5.14,7.61-2.82"/><path class="cls-4" d="M708.6,354s-2.37,33.22-23.07,53.48c-19.4,19-41.52,16.91-49.3,42.51S648.6,487,648.6,487s16.85,25.26,40.66,12.5c0,0,9.1,20.05,32,6,0,0,10.52,9,26.51,0,19.1-10.75,16.66-40.91,5.8-54.15-12.72-15.5-31.4-27-34.6-53.94S717.14,354,717.14,354Z"/><path class="cls-4" d="M713,354s-5,23.79-4.91,37.38"/><path class="cls-4" d="M707.45,400.16s.46,21.25,5.54,26.8"/><path class="cls-4" d="M701.21,393.46s-7.16,16.86-21.25,26.8"/><path class="cls-4" d="M712.07,410.09s1.61,11.55,6.7,16.87"/><path class="cls-4" d="M697.05,410.09a55.53,55.53,0,0,1-6.47,10.17"/><path class="cls-4" d="M698.36,441.28s-19.43,30.58-9.1,58.26"/><path class="cls-4" d="M721.54,438.56c6.24,13.12,18.61,51.72-.28,66.95"/><path class="cls-4" d="M680,429.27c.92-.86-20.84,9.11-27.73,37.88"/><path class="cls-4" d="M718.77,479.33s2.05,10.86-4.37,17.88"/><path class="cls-4" d="M714.4,479.33s.59,8.38-1.41,11.42"/><path class="cls-4" d="M750.71,479.33s.4,10.25-4.61,13.66"/><path class="cls-4" d="M744.29,480.56s1.41,7.35-1.2,10.19"/><path class="cls-4" d="M668.06,484s.2,4.54,2.81,6.78"/><path class="cls-4" d="M672.27,485.65s.6,4.74,2.81,6.14"/><path class="cls-4" d="M365.68,354.67s11-16,30.8-16.9c0,0,11.58-35.81,61.92-52.74"/><path class="cls-2" d="M129.81,423.13c4.26-9.09,32-6.7,49.78,5.19,0,0-29.08-26.52-26.53-46.93s26-5.71,35.2,10.92c0,0-24-45.63-9.69-53.52s32.64,25.5,35.19,44.76c0,0,3.57-25.87,15.81-25s5.1,39,5.1,39,8.39-11.13,11.7,12.55-10.71,51.34-34.07,52.81C163.47,482.23,122.71,438.26,129.81,423.13Z"/><path class="cls-3" d="M161.82,440.92s14.2,15.3,50.48,22c-3.31-48-15.78-79.52-15.78-79.52"/><path class="cls-3" d="M224.89,397.53s-1.5,33.08-12.59,65.36c-8.19-30.91-34-58.59-34-58.59"/><path class="cls-5" d="M454.74,320.91s5.27-5.24,15.23-4.18C470,316.73,464.7,323.45,454.74,320.91Z"/><path class="cls-5" d="M459.62,304.71s3.13,7,14.25,5.27A22,22,0,0,0,459.62,304.71Z"/><path class="cls-5" d="M478,313.11a17.19,17.19,0,0,0-2.15,13.46A16.86,16.86,0,0,0,478,313.11Z"/><path class="cls-3" d="M470,316.73s8-3.62,16-14"/><path class="cls-3" d="M473.87,310s3.75,1.31,5,.28l-.91,2.85"/><path class="cls-5" d="M491.72,252.58s1.5-8.49,11.6-10.68C503.32,241.9,501.55,249.71,491.72,252.58Z"/><path class="cls-5" d="M487.75,257.33s1.92,7.51,8.34,10.24C496.09,267.57,495.8,261.15,487.75,257.33Z"/><path class="cls-5" d="M486,246.27c0-.14-7.14,3.41-8,12.29C478,258.56,486.37,254.33,486,246.27Z"/><path class="cls-5" d="M492.54,258.56c-.67-.44,10.1-3,15.42,1.77A17.4,17.4,0,0,1,492.54,258.56Z"/><path class="cls-4" d="M467.41,260.06a42.07,42.07,0,0,0,24.31-7.48"/><path class="cls-4" d="M487.75,257.33s-1-1.45-4.48-.23"/><path class="cls-4" d="M492.54,258.56a14.42,14.42,0,0,0-7.43-2.24"/><path class="cls-6" d="M246.85,476.63s39.7,4.78,39.7-7.95c0-5.54-10.2-5.89-16.29-2.57,0,0,11.9-5.81,14.39-15.49s-9.17-16.14-19.19.52c0,0,1.62-48.22-16.32-45.39-12.53,2-7.12,29.58-4.06,39.33-3.06-9.75-14.71-30.17-24.47-24.52-10.76,6.23,12.85,37.25,12.85,37.25s-26.14-17.68-31.84-5.19C196.26,464.35,223.44,479.12,246.85,476.63Z"/><path class="cls-3" d="M234.05,441.94s11.65,15.63,12.8,34.69A99,99,0,0,0,252,431.92"/><path class="cls-3" d="M267.93,457a85,85,0,0,0-21.08,19.66c-9.41-10.52-23.9-12-23.9-12"/><path class="cls-3" d="M265.94,471.77s-11.13,0-19.09,4.86"/><path class="cls-4" d="M366.72,465.77s2.13-4.75,8.5-2.91c0,0,1.91-6.65,9.35-4.74"/><path class="cls-5" d="M347.75,373.82A19.23,19.23,0,0,1,365,371.28,16.86,16.86,0,0,1,347.75,373.82Z"/><path class="cls-5" d="M346.13,380.81c-1.37-.14,3.91,7.62,12.22,7C358.35,387.79,355.66,381.78,346.13,380.81Z"/><path class="cls-4" d="M333.42,379.58s7.88-5.17,14.33-5.76"/><path class="cls-4" d="M346.13,380.81a15.92,15.92,0,0,0-7.5-4.11"/><path class="cls-5" d="M381.59,379.58s-2,8.33,2.71,11.95C384.3,391.53,386.34,384.16,381.59,379.58Z"/><path class="cls-4" d="M397.89,378.75a5.61,5.61,0,0,1,7-2.05s1.59-6.27,7.93-4"/><path class="cls-5" d="M539.35,265.23s8,7.17,21.24,5.24C560.59,270.47,553.7,263.3,539.35,265.23Z"/><path class="cls-5" d="M566.38,292.81s11,0,15.72-12.14C582.1,280.67,570.52,284.26,566.38,292.81Z"/><path class="cls-5" d="M517.29,375.48s0-8.75,9.65-13.72A17,17,0,0,1,517.29,375.48Z"/><path class="cls-5" d="M512.88,381.9s6,6.12,16,1.65A21.14,21.14,0,0,0,512.88,381.9Z"/><path class="cls-5" d="M514.81,361.76s-9,5.23-6.9,13.72C507.91,375.48,514.43,372.87,514.81,361.76Z"/><path class="cls-3" d="M517.29,375.48a74.59,74.59,0,0,1-20.66,18.77"/><path class="cls-3" d="M507.91,375.48a18,18,0,0,0-1.77,11.83"/><path class="cls-5" d="M563.81,378.75s5.5-10.39,13.39-11.76C577.2,367,578.91,375.42,563.81,378.75Z"/><path class="cls-5" d="M570.54,381.39s11.83,6.56,19.72,1.83C590.26,383.22,582.53,378.21,570.54,381.39Z"/><path class="cls-3" d="M553.52,376.7s8.58,4.55,17,4.69"/><path class="cls-3" d="M558.9,352.33s0-5.38,7.52-5.2a6.77,6.77,0,0,1,7.89-3.4"/><path class="cls-5" d="M586.85,359.32a14.38,14.38,0,0,0,14.69,1.07A18.52,18.52,0,0,0,586.85,359.32Z"/><path class="cls-4" d="M503.57,452.19s1.69-4.77,7.79-4.24c0,0,0-5.29,5.93-5.29"/><path class="cls-5" d="M533.28,240.54s3.09,5,11.56,5.73C544.84,246.27,539.19,239,533.28,240.54Z"/><path class="cls-4" d="M319.56,361.06s.79-4.72,5-4.72c0,0,1.31-5.71,6.81-5.6"/><line class="cls-3" x1="563.81" y1="378.75" x2="561.41" y2="379.84"/><path class="cls-4" d="M561.17,512.3s4.74,5.83,11.6,6.78"/><path class="cls-6" d="M665.45,455.65s3.63,27.82-19.79,49.8c-23,21.58-93.78,38.24-115.76-16.2Z"/><path class="cls-6" d="M581,444.05c23-7.33,65.51-9.05,81.51,5.74s-35.93,38.94-64.91,46.79-74.68,7.6-68-16.89C533.42,465.47,555.57,452.14,581,444.05Z"/><path class="cls-4" d="M582.36,463.64S549,460,546.33,469,582.36,463.64,582.36,463.64Z"/><path class="cls-4" d="M585.2,467.4s-27.9,9.42-28,21a1.92,1.92,0,0,0,2.09,1.88C571.38,489.32,585.2,467.4,585.2,467.4Z"/><path class="cls-4" d="M590.7,469.86s-10.46,13-7,20.46a2.46,2.46,0,0,0,3.93.75C592.78,486.06,590.7,469.86,590.7,469.86Z"/><path class="cls-4" d="M606.25,462.92c11.17-7.27,43.8-14.38,44-7.27C650.41,461.74,616.68,463.83,606.25,462.92Z"/><path class="cls-4" d="M599.24,468.19S604.8,479.62,614.6,479a2.73,2.73,0,0,0,2-4.4C611.52,468.19,599.24,468.19,599.24,468.19Z"/><path class="cls-4" d="M600.41,459.41c5.1.59,16.9-9.78,13.38-13.11S600,454.35,600.41,459.41Z"/><path class="cls-4" d="M592.13,457.91c2.4-1.71,5.31-10.76,2.22-11.47C590.72,445.6,589.88,456.05,592.13,457.91Z"/><path class="cls-4" d="M574.5,454.05c1.77-2.66,11.6,1.63,12.55,5.61C582.69,460,572.25,457.43,574.5,454.05Z"/><path class="cls-3" d="M568,512.3a9.08,9.08,0,0,0,5.45,3.39"/><path class="cls-3" d="M641.69,484s-1.23,11.11-7.56,16.12"/><path class="cls-3" d="M634.79,487.36a13,13,0,0,1-3.64,7.6"/><path class="cls-3" d="M650.24,481.54a11.69,11.69,0,0,1-1.64,5.5"/><path class="cls-5" d="M891.62,435.79s6.17-12.34,15.24-15.24A29.08,29.08,0,0,1,891.62,435.79Z"/><path class="cls-5" d="M904.32,435.79s9.2-5.24,18.39-3.53C922.71,432.26,917.38,440.51,904.32,435.79Z"/><path class="cls-4" d="M878.92,437.25a160.64,160.64,0,0,0,25.4-1.46"/><line class="cls-4" x1="891.62" y1="435.79" x2="889.53" y2="437.25"/><path class="cls-5" d="M884.86,462.12s6.66,9.06,18.7,2.41C903.56,464.53,896.05,460.13,884.86,462.12Z"/><path class="cls-5" d="M298,494.44s-5.51,9.07,0,17.73C298,512.17,303.87,505.78,298,494.44Z"/><path class="cls-5" d="M409.65,534.18s8.23-8.25,18.06-4.7C427.71,529.48,425,535.73,409.65,534.18Z"/><path class="cls-6" d="M442.14,510.27s5.1,29.81,46,33.15,64.51-18.38,66.09-49Z"/><path class="cls-6" d="M442.14,510.27c-3.67-11.07,26.58-22.86,53.16-27.64s54.75-2.13,58.47,8S540.33,509.86,505,515.12,444.18,516.41,442.14,510.27Z"/><path class="cls-3" d="M460.36,524.77s5.06,7.48,11.33,9.41"/><path class="cls-3" d="M468.56,524.77s6,8.93,16.39,11.58"/><path class="cls-3" d="M527.88,519.08s-.49,8.35-6.27,13.89"/><path class="cls-3" d="M533.42,517.56a15.52,15.52,0,0,1-2.89,7.21"/><path class="cls-4" d="M455.73,503c-1.32-2.29,8.12-5.3,12.83-6.26,4.51-.93,12.85-1.37,14.71-.66-1,3.47-6.51,5.7-12.93,6.8C463.2,504.1,456.34,504,455.73,503Z"/><path class="cls-4" d="M503.61,495.3c.92-5.05,20.15-13.7,23.1-8.72C530.42,492.85,505.85,496,503.61,495.3Z"/><path class="cls-4" d="M498.05,500.23c2.47.93,9.61,8.06,7.41,10.22C502.4,513.44,497.06,502.5,498.05,500.23Z"/><path class="cls-4" d="M475.78,511.45c-1.56-2.68,8.09-11.22,13.11-11.22,1.56,2.16-1.34,6.56-3.94,9C481.76,512.29,476.59,512.84,475.78,511.45Z"/><path class="cls-4" d="M486.17,488c2.72-.81,9.92,2.76,10.15,5.19s-4.24,3.23-7.43,0S486.17,488,486.17,488Z"/><path class="cls-4" d="M505.85,500.52c3.83-3.91,31.89-6.57,31.94-1C537.82,502.86,510.43,505.59,505.85,500.52Z"/><path class="cls-3" d="M307.93,474.84s37.61,49.93,82.81,42.56"/><path class="cls-3" d="M373.33,502.29a42.71,42.71,0,0,1-28.36,5"/><path class="cls-3" d="M357.25,513.29a43.86,43.86,0,0,0,13.52,12.28"/><path class="cls-3" d="M328.43,495.72s2.51,11.26,7.28,17.57"/><path class="cls-6" d="M390.74,517.4c.32-7.85,9.14-12.26,11.33-10.63,3,2.2-2.48,7.78-2.48,7.78s8.34.16,8.57,3-7.1,1.87-7.1,1.87,7.21,2.38,6.2,5.34-7.33-.87-7.33-.87,2.57,4.13.82,5.25S390.37,526.52,390.74,517.4Z"/><path class="cls-6" d="M365.19,532.82c-1.84-2.37,1.59-6.59,8.08-7.78,8.39-1.54,13.56,3.79,11.73,6.52-1.4,2.08-5.69-.08-5.69-.08s8.24,6.44,4.69,9.27c-2.91,2.32-6.36-3.75-6.36-3.75s-.67,6.23-3.59,5.32c-3.35-1-3.18-10.26-3.18-10.26S366.78,534.86,365.19,532.82Z"/><path class="cls-6" d="M373.38,502.22c-1.41-3.08,2-6.35,4.54-6.66s2.47,1.6,1.34,2.63c0,0,2.42,0,1.29,2,0,0,1.7.21,1.7,1.45C382.25,504.12,375,505.73,373.38,502.22Z"/><path class="cls-6" d="M334.9,513.51c4.88-2.3,9.21.62,11.23,3.47s1.42,6.06-2,3.32c0,0,1.61,5.48-1.13,6.19s-4.17-6.07-4.17-6.07,1.19,8.06-2,8-2.38-7.63-2.38-7.63-1.72,4.79-4.17,3C328.41,522.52,329.69,516,334.9,513.51Z"/><path class="cls-3" d="M755.49,510.53S812.11,468.47,831.67,405"/><path class="cls-6" d="M835.29,386.61c2.6.19,1.74,7.58,1.74,7.58s5.59-3.73,7.21-1.49-2.86,6.34-6.46,8.08c0,0,7-.38,6.8,2.61s-7.53,3.35-13.57,1.24-10-6.12-9.14-8.34,6,1.5,6,1.5-3.23-7.7-.13-8.82,3.85,5.72,3.85,5.72S831.94,386.36,835.29,386.61Z"/><path class="cls-6" d="M812.26,411.65c2.48-.2,3.3,5.58,3.85,9.51,0,0,3.33-4.76,5.64-3.2s-1.89,7.68-1.89,7.68,4.59-3,5.58-.54c.81,2-2.79,6.08-11.35,6.68-7.16.49-11.8-3.66-10.61-5.95s5.49.82,5.49.82-6.56-7.54-3.39-9.42c2.62-1.56,4.94,4.11,4.94,4.11S808.79,411.92,812.26,411.65Z"/><path class="cls-6" d="M784.55,446.52c1.78-1,3.77.62,5.15,2.76,0,0-.59-10.17,2.63-11.17s3.39,8.53,3.39,8.53,1.63-5.77,4.39-5.14-.87,8.4-.87,8.4,2.89-1.9,4,0c1.27,2.08-4,7.87-11.08,6.66C786.6,455.6,781.67,448.15,784.55,446.52Z"/><path class="cls-3" d="M858.48,454s-38.24,33.75-83.82,39.7"/><path class="cls-6" d="M858,452.9c-1.25-3.85,3.9-12.13,6.56-11.65s.49,5.74.49,5.74,4.5-4.55,6-3.12-2.21,4.85-2.21,4.85,4.47-1.37,4.8.72-4.45,2.5-4.45,2.5,4.69-.47,4.25,1.75S860.11,459.34,858,452.9Z"/><path class="cls-6" d="M841.64,477.25c1.36,1.44-1.79,4.64-1.79,4.64s4.63-.84,4.74,1.58-5.69,2.21-5.69,2.21,4,1.16,3.69,3.06-9.07,2.11-11.38-2S839.53,475,841.64,477.25Z"/><path class="cls-3" d="M792.21,456.56s-2.25,11.74.28,17.8"/><path class="cls-3" d="M814.09,431.78s.85,5.62,2.77,7.46"/><path class="cls-3" d="M830.88,485.53s-11.57,2.54-19.38-2.48"/><path class="cls-6" d="M845.34,429.61a12.78,12.78,0,0,0,1.06-.94c2.08-2.08,3.06-4.49,2.17-5.38s-3.29.09-5.38,2.18c-.11.11-.2.22-.3.34-.25-2.34-1.13-4.08-2.2-4.08-1.25,0-2.26,2.39-2.26,5.34,0,4.75,1.85,6.5,6.13,7,2.93.34,5.42-.46,5.55-1.7S848.12,430,845.34,429.61Z"/><path class="cls-3" d="M840,432.26s-9.63,12.58-28.49,16"/><path class="cls-6" d="M839,447.5c-.9-.46-2.31.44-3.47,2.07-.29-1.72-1.18-3-2.26-3-1.3,0-2.36,1.87-2.36,4.17a7,7,0,0,0,.2,1.69h0c-2.65-.82-5.1-.5-5.48.72s1.46,2.88,4.11,3.7a7.49,7.49,0,0,0,9.1-3.84C840,450.53,840.12,448.07,839,447.5Z"/><path class="cls-3" d="M834.83,456.72s-.49,8,.89,13.6"/><path class="cls-4" d="M650.24,517.56s6.83,9.05,17.82,5.08C668.06,522.64,662.22,515.66,650.24,517.56Z"/></svg>