<svg xmlns="http://www.w3.org/2000/svg" viewBox="0 0 176.64 140.36"><defs><style>.cls-1{fill:#fff;}.cls-2{fill:#e0d0b1;}</style></defs><title>MAIN05</title><g id="圖層_2" data-name="圖層 2"><g id="圖層_1-2" data-name="圖層 1"><path class="cls-1" d="M122.74,104c-2.47-5.11,12.94-12.86,22.5-12.56,7.11.22,9.51-2.86,12-1.43s1.9,6.12-3.57,8-13.86-.23-18.46,4.06S124,106.66,122.74,104Z"/><path d="M126.63,105.83a7.5,7.5,0,0,1-1.39-.12,3.42,3.42,0,0,1-2.59-1.63h0a3.33,3.33,0,0,1,.48-3.39c3-4.56,14.08-9.32,21.59-9.32h.53a22,22,0,0,0,7.83-1.21c1.73-.54,3-.93,4.25-.21a3,3,0,0,1,1.47,3c-.15,1.72-1.56,4-5.05,5.21a27.31,27.31,0,0,1-7.32,1c-4.09.2-8.31.42-11.1,3A13.26,13.26,0,0,1,126.63,105.83Zm18.09-14.26c-7.46,0-18.49,4.71-21.42,9.23a3.15,3.15,0,0,0-.47,3.19h0a3.24,3.24,0,0,0,2.45,1.53c2.49.47,6.65-.42,9.91-3.47C138,99.4,142.3,99.19,146.42,99a27.28,27.28,0,0,0,7.27-1c3.39-1.19,4.76-3.38,4.91-5a2.83,2.83,0,0,0-1.36-2.81c-1.2-.67-2.36-.31-4.1.23a21.84,21.84,0,0,1-7.9,1.22Z"/><path class="cls-1" d="M34.52,105c1.46-3.52,8.35,1,13.59.42s10.41-2.42,17.31.76,23.86,3,25,8-13,0-17.17,3.23-15.79,2-22.48-1.11S33.21,108.19,34.52,105Z"/><path d="M65.21,119.41c-.73,0-1.5,0-2.29-.08a36.55,36.55,0,0,1-12.23-3l-.3-.14c-6.88-3.2-17.29-8-16-11.27.89-2.15,3.67-1.44,6.9-.61a20.19,20.19,0,0,0,6.77,1c1-.11,2.1-.28,3.13-.44,4.27-.67,8.68-1.35,14.23,1.21,2.7,1.24,7,2,11.19,2.71,6.76,1.16,13.14,2.27,13.83,5.34a1.68,1.68,0,0,1-.28,1.52c-1,1.18-4,1-7.44.79s-7.62-.45-9.49,1C71.66,118.74,68.84,119.41,65.21,119.41ZM34.62,105.05c-1.26,3,9.45,8,15.85,11l.3.14a36.43,36.43,0,0,0,12.16,2.93c4.69.32,8.32-.32,10.22-1.81s6-1.27,9.63-1.06c3.25.2,6.33.38,7.27-.72a1.48,1.48,0,0,0,.23-1.35c-.65-2.94-7.27-4.08-13.67-5.19-4.18-.72-8.51-1.46-11.23-2.72-5.5-2.54-9.88-1.85-14.11-1.19-1,.16-2.1.33-3.15.44a20.82,20.82,0,0,1-6.84-1c-3.14-.81-5.84-1.51-6.66.49Z"/><path class="cls-1" d="M151.28,115.78c.38-2.88,6.85-2.79,12.08-7.1s10.19-6.45,11-5-2.72,4.56-7.11,6.67-4.29,5.73-9,6.65C152.94,118.09,151.13,116.9,151.28,115.78Z"/><path d="M154.68,117.55a4.64,4.64,0,0,1-3.12-.81,1.09,1.09,0,0,1-.38-1h0c.21-1.56,2-2.25,4.56-3.2a25.39,25.39,0,0,0,7.56-4c4.28-3.53,8.56-5.76,10.42-5.41a1,1,0,0,1,.76.49,1.19,1.19,0,0,1,.06,1c-.5,1.61-3.47,4-7.2,5.79a11.51,11.51,0,0,0-4,3.34,8,8,0,0,1-5,3.31A19.36,19.36,0,0,1,154.68,117.55Zm18.63-14.2c-2,0-6,2.18-9.88,5.4a25.33,25.33,0,0,1-7.62,4c-2.46.93-4.24,1.61-4.43,3h0a.93.93,0,0,0,.32.81c.43.4,1.94,1.26,6.58.35a7.87,7.87,0,0,0,4.9-3.25,11.58,11.58,0,0,1,4.07-3.39c3.69-1.77,6.61-4.1,7.1-5.67a1,1,0,0,0,0-.86.87.87,0,0,0-.63-.4A2.13,2.13,0,0,0,173.31,103.35Z"/><path class="cls-1" d="M175.51,82.82c2.29.33.53,10.79-2.75,10.2S171.9,82.29,175.51,82.82Z"/><path d="M173,93.15a1.43,1.43,0,0,1-.29,0c-1.33-.24-1.92-2.06-1.5-4.64.48-2.92,2.09-5.78,4-5.78l.29,0h0c.37,0,.65.33.84.83.72,1.86-.05,6.66-1.72,8.67A2.14,2.14,0,0,1,173,93.15Zm2.21-10.25c-1.81,0-3.33,2.77-3.8,5.61-.3,1.87-.14,4.15,1.33,4.41a1.81,1.81,0,0,0,1.73-.83c1.63-2,2.38-6.65,1.69-8.46-.17-.43-.4-.67-.69-.71h0Z"/><ellipse class="cls-1" cx="140.58" cy="60.11" rx="1.95" ry="2.81" transform="translate(-11.29 77.73) rotate(-29.77)"/><path d="M141.26,62.83a1.79,1.79,0,0,1-.51-.07,3.34,3.34,0,0,1-1.94-1.63c-.8-1.39-.66-3,.32-3.55a1.67,1.67,0,0,1,1.29-.13,3.44,3.44,0,0,1,1.94,1.63h0c.8,1.39.65,3-.32,3.55A1.51,1.51,0,0,1,141.26,62.83Zm-1.35-5.25a1.3,1.3,0,0,0-.68.18c-.88.51-1,2-.25,3.28a3.21,3.21,0,0,0,1.82,1.53,1.48,1.48,0,0,0,1.14-.11c.88-.51,1-2,.24-3.28h0a3.17,3.17,0,0,0-1.82-1.54A1.74,1.74,0,0,0,139.91,57.58Z"/><path class="cls-1" d="M1,69.87c1.72.58,4-4.3,10.27-9.46s16.51-6.47,15.24-9.62-7.73.61-14.82,4C3.45,58.76-2.12,68.82,1,69.87Z"/><path d="M1.25,70A.86.86,0,0,1,.93,70h0A1.41,1.41,0,0,1,0,68.57c-.2-3.17,4.93-10.64,11.6-13.85l2.79-1.36c4.85-2.4,9-4.46,11.09-3.69a1.84,1.84,0,0,1,1.07,1.08c.73,1.82-2,3-5.8,4.59-3,1.26-6.65,2.83-9.47,5.15A54.34,54.34,0,0,0,4.76,67C3.17,68.84,2.14,70,1.25,70ZM24.45,49.7c-2.19,0-5.84,1.8-10,3.84L11.7,54.9C5.09,58.08,0,65.44.2,68.56A1.22,1.22,0,0,0,1,69.77H1c.84.28,2-1,3.62-2.88a54.12,54.12,0,0,1,6.56-6.56C14,58,17.71,56.42,20.69,55.16c3.54-1.51,6.34-2.7,5.68-4.34a1.6,1.6,0,0,0-1-1A2.58,2.58,0,0,0,24.45,49.7Z"/><path class="cls-1" d="M16.83,66.85c1.63.82-.35,4-2.45,7.6a6.62,6.62,0,0,0,1.52,8.87c2.36,1.84,3.06,3.92,1.51,5.12s-4.49-1-5.2-5-2.33-4.48-1.21-9S15.08,66,16.83,66.85Z"/><path d="M16.45,88.86a2.48,2.48,0,0,1-.82-.16c-1.38-.53-3-2.37-3.52-5.28a17,17,0,0,0-.9-3.14,8.4,8.4,0,0,1-.3-5.94c.85-3.48,2.83-6.71,4.6-7.53a1.52,1.52,0,0,1,1.36,0h0a1.12,1.12,0,0,1,.6.7c.37,1.27-1,3.68-2.68,6.48l-.32.56A6.51,6.51,0,0,0,16,83.24c1.51,1.18,2.38,2.49,2.38,3.6a2.09,2.09,0,0,1-.86,1.68A1.72,1.72,0,0,1,16.45,88.86Zm-.16-22a1.62,1.62,0,0,0-.7.18c-1.71.79-3.64,4-4.49,7.39a8.17,8.17,0,0,0,.3,5.82,17.6,17.6,0,0,1,.91,3.17c.5,2.83,2.11,4.64,3.39,5.13a1.64,1.64,0,0,0,1.65-.15,1.88,1.88,0,0,0,.79-1.52c0-1-.84-2.3-2.3-3.44a6.72,6.72,0,0,1-1.54-9l.32-.55c1.55-2.64,3-5.14,2.66-6.32a.9.9,0,0,0-.5-.58h0A1,1,0,0,0,16.29,66.82Z"/><path class="cls-1" d="M33.65,93.67c.79-1.07,2.14.66,4.73.56s2.46,3.21-.23,3.17S32.63,95.06,33.65,93.67Z"/><path d="M38.2,97.5h-.05A5.7,5.7,0,0,1,33.52,95a1.3,1.3,0,0,1,0-1.41h0c.46-.62,1.11-.38,1.94-.07a6.86,6.86,0,0,0,2.87.59h.11a1.77,1.77,0,0,1,1.64.8,1.58,1.58,0,0,1,0,1.6A2.13,2.13,0,0,1,38.2,97.5Zm-3.89-4.08a.69.69,0,0,0-.58.31h0a1.15,1.15,0,0,0,0,1.2,5.48,5.48,0,0,0,4.45,2.37h.05A1.93,1.93,0,0,0,40,96.43,1.36,1.36,0,0,0,40,95a1.6,1.6,0,0,0-1.47-.71h-.11a7,7,0,0,1-2.94-.6A3.8,3.8,0,0,0,34.31,93.42Z"/><path class="cls-1" d="M66.81,133.64c1.14-2,4.15-1.58,8.86,1.35s8.81.33,13.52,0,7.42.2,7.42,2.06-4.71,1.93-8.35,1.8-10.53,2.7-16.4.68S66.21,134.7,66.81,133.64Z"/><path d="M76.64,140.36a14.9,14.9,0,0,1-4.81-.73c-3.59-1.23-4.82-2.75-5.22-3.8a2.62,2.62,0,0,1,.12-2.24h0a2.39,2.39,0,0,1,1.55-1.18c1.61-.4,4.12.43,7.44,2.5s6.24,1.37,9.37.67a28.38,28.38,0,0,1,4.09-.69c3.75-.26,6,0,7,.93a1.63,1.63,0,0,1,.53,1.23,1.13,1.13,0,0,1-.38.84c-1.21,1.17-5.19,1.17-8.08,1.06a23.59,23.59,0,0,0-4.61.57A38.89,38.89,0,0,1,76.64,140.36Zm-9.74-6.67h0a2.44,2.44,0,0,0-.1,2.06c.38,1,1.58,2.48,5.1,3.69,3.85,1.33,8.21.53,11.71-.11a22.43,22.43,0,0,1,4.65-.58c2.86.1,6.78.11,7.93-1a.92.92,0,0,0,.32-.7A1.39,1.39,0,0,0,96,136c-.91-.85-3.15-1.14-6.85-.88a28.06,28.06,0,0,0-4,.69c-3.18.71-6.19,1.37-9.52-.7s-5.73-2.87-7.29-2.47a2.21,2.21,0,0,0-1.43,1.08Z"/><path class="cls-1" d="M155,60.74c2.65-.39,3,4,6.69,6.41s4.07,13.23,1.38,12.9-1.76-5.84-5.12-7.7C152.55,69.39,150.71,61.37,155,60.74Z"/><path d="M163.16,80.16H163c-1.38-.17-1.83-1.6-2.36-3.26s-1.11-3.53-2.79-4.45a10.84,10.84,0,0,1-4.24-4.4,8.13,8.13,0,0,1-1-5A2.74,2.74,0,0,1,155,60.64h0c1.49-.22,2.26,1,3.23,2.49a12.3,12.3,0,0,0,3.53,3.94c1.32.86,2.38,2.88,2.89,5.55a13.13,13.13,0,0,1-.13,6.26C164.1,79.91,163.58,80.16,163.16,80.16ZM155.3,60.81l-.31,0h0a2.53,2.53,0,0,0-2.2,2.26c-.49,2.72,1.52,7.15,5.19,9.16,1.75,1,2.35,2.88,2.89,4.57s.93,3,2.19,3.12c.65.1,1-.58,1.23-1.14,1.07-2.92.14-9.74-2.68-11.57a12.55,12.55,0,0,1-3.59-4C157.13,61.85,156.46,60.81,155.3,60.81Z"/><path class="cls-2" d="M133.12,60.89c-2.65,2.82-8.2,3.47-11.27,0-3.68-4.15-4.31-5-10.86-4.32-7.6.82-8.58-27-13-26.95S93.65,44.4,86.27,45.33s-9.15-7.9-16.5-13.4c-4.61-3.46-10.16-3.1-13.65-2.35A140.5,140.5,0,0,0,40.65,58.09C37.34,66.71,29.9,71,32.75,79c1.72,4.83,14.9,4.26,28.35,4.61S88.43,93.42,96,89.92a89.36,89.36,0,0,1,32.47-7.36c12-.26,12-7.35,12-7.35A92.57,92.57,0,0,0,133.12,60.89Z"/><path d="M92,90.8c-3.67,0-8.13-1.46-13.07-3.08-5.52-1.8-11.77-3.85-17.83-4-1.9,0-3.8-.08-5.64-.11C44,83.41,34.16,83.25,32.66,79c-1.86-5.22.61-8.87,3.46-13.1a38.59,38.59,0,0,0,4.44-7.88A139.56,139.56,0,0,1,56,29.52a.08.08,0,0,1,.06,0c3.75-.8,9.18-1,13.73,2.37a34.88,34.88,0,0,1,6.64,7.07c3,3.85,5.29,6.89,9.79,6.31,4.06-.51,5.83-5.26,7.39-9.45C94.9,32.43,96,29.53,98,29.51h0c2,0,3.22,5.08,4.67,11,1.85,7.52,3.94,16,8,16a1.67,1.67,0,0,0,.31,0c6.48-.69,7.22.14,10.74,4.13l.2.23a7.05,7.05,0,0,0,5.27,2.33h.13a8.07,8.07,0,0,0,5.73-2.33.11.11,0,0,1,.08,0,.12.12,0,0,1,.08,0,95,95,0,0,1,7.31,14.34v0c0,.07-.13,7.19-12.09,7.45A89.26,89.26,0,0,0,96,90,9.51,9.51,0,0,1,92,90.8ZM56.18,29.67A139.79,139.79,0,0,0,40.74,58.12a38.77,38.77,0,0,1-4.45,7.93C33.46,70.23,31,73.84,32.85,79c1.45,4.09,11.26,4.26,22.62,4.44,1.84,0,3.74.06,5.63.11,6.09.16,12.36,2.21,17.89,4,6.89,2.25,12.83,4.2,16.93,2.3a89.5,89.5,0,0,1,32.51-7.37c11.47-.25,11.88-6.84,11.89-7.23a94.88,94.88,0,0,0-7.21-14.18,8.3,8.3,0,0,1-5.79,2.3h-.13a7.28,7.28,0,0,1-5.42-2.4l-.2-.22C118.1,56.8,117.38,56,111,56.66a1.83,1.83,0,0,1-.33,0c-4.2,0-6.31-8.57-8.18-16.16C101.12,35,99.82,29.71,98,29.71h0c-1.88,0-2.94,2.86-4.16,6.14-1.59,4.24-3.38,9-7.56,9.58-4.6.58-7.09-2.64-10-6.39a34.75,34.75,0,0,0-6.6-7C65.23,28.66,59.89,28.88,56.18,29.67Z"/><path class="cls-1" d="M69.77,31.93c7.35,5.5,9.12,14.34,16.5,13.4S93.58,29.66,98,29.61s5.39,27.77,13,27c6.55-.69,7.18.17,10.86,4.32,3.07,3.48,8.62,2.83,11.27,0-3.23-5.15-7-9.84-10.6-11.5-7.2-3.33-8.53-3.16-11.06-12.21s-2.95-14.44-8.64-23.49S83.38-8.88,72.13,8.55c-3.78,5.85-11.66,15-16,21C59.61,28.83,65.16,28.47,69.77,31.93Z"/><path d="M127.32,63.35h-.13a7.28,7.28,0,0,1-5.42-2.4l-.2-.22C118.1,56.8,117.38,56,111,56.66a1.83,1.83,0,0,1-.33,0c-4.2,0-6.31-8.57-8.18-16.16C101.12,35,99.82,29.71,98,29.71h0c-1.88,0-2.94,2.86-4.16,6.14-1.59,4.24-3.38,9-7.56,9.58-4.6.58-7.09-2.64-10-6.39a34.75,34.75,0,0,0-6.6-7h0c-4.49-3.36-9.86-3.13-13.57-2.34a.07.07,0,0,1-.1,0,.11.11,0,0,1,0-.11c1.85-2.59,4.29-5.66,6.88-8.92,3.42-4.3,7-8.75,9.12-12.11C75.68,2.86,79.87,0,84.5,0h.07c3.43,0,7,1.58,10.64,4.64a40.31,40.31,0,0,1,7.69,9c4.48,7.13,5.7,12,7.25,18.14.43,1.69.87,3.44,1.41,5.38,2.29,8.2,3.62,8.8,9.21,11.33l1.79.81c4,1.84,8,7.29,10.65,11.54a.12.12,0,0,1,0,.13A8.27,8.27,0,0,1,127.32,63.35Zm-13-7.1c3.57,0,4.61,1.17,7.41,4.34l.2.23a7.05,7.05,0,0,0,5.27,2.33h.13A8.1,8.1,0,0,0,133,60.88c-2.65-4.22-6.62-9.6-10.52-11.4l-1.79-.82c-5.66-2.55-7-3.16-9.32-11.45-.55-2-1-3.7-1.41-5.4-1.55-6.13-2.76-11-7.23-18.07C96.48,3.8,89.25.23,84.57.2H84.5C80,.2,75.81,3,72.21,8.6,70,12,66.5,16.42,63.08,20.73c-2.52,3.16-4.9,6.16-6.73,8.7,3.74-.76,9-.92,13.48,2.42h0a34.88,34.88,0,0,1,6.64,7.07c3,3.85,5.29,6.89,9.79,6.31,4.06-.51,5.83-5.26,7.39-9.45C94.9,32.43,96,29.53,98,29.51h0c2,0,3.22,5.08,4.67,11,1.85,7.52,3.94,16,8,16a1.67,1.67,0,0,0,.31,0A32.31,32.31,0,0,1,114.31,56.25Z"/><path class="cls-1" d="M58.2,38.67c3.23,1.55-1,8.92-4.9,13.62s-5.72,14.72-9,13.26,4.29-9.78,6.13-16.18C52.23,43.15,56,37.58,58.2,38.67Z"/><path d="M45,65.79a1.75,1.75,0,0,1-.68-.15,1.34,1.34,0,0,1-.78-.85c-.48-1.46,1.11-4.21,2.95-7.4a39.59,39.59,0,0,0,3.9-8c1.48-5.13,4.24-9.74,6.42-10.71a1.7,1.7,0,0,1,1.49-.05h0A2,2,0,0,1,59.37,40c.61,2.75-2.68,8.32-6,12.32a32.34,32.34,0,0,0-3.91,7.15C48,62.85,46.65,65.79,45,65.79ZM57.6,38.63a1.87,1.87,0,0,0-.76.18c-2.13,1-4.84,5.51-6.3,10.59a41.37,41.37,0,0,1-3.92,8.09c-1.82,3.15-3.39,5.87-2.94,7.24a1.15,1.15,0,0,0,.67.73c1.86.82,3.29-2.36,4.94-6a33.08,33.08,0,0,1,3.93-7.18c3.28-4,6.55-9.47,6-12.15a1.81,1.81,0,0,0-1-1.32h0A1.18,1.18,0,0,0,57.6,38.63Z"/><path class="cls-1" d="M93.67,50.82c1.7-.91,5,2.26,4.55,12S98.45,77.34,96,78s-3.55-7.43-2.64-15.53S91.65,51.91,93.67,50.82Z"/><path d="M95.7,78.1a1.21,1.21,0,0,1-.82-.34c-1.73-1.51-2.45-8.25-1.65-15.34A28.33,28.33,0,0,0,93,54c-.29-1.73-.44-2.69.63-3.27a1.61,1.61,0,0,1,1.65.16c1.7,1.07,3.38,4.76,3,12-.11,2.36-.16,4.41-.2,6.22-.12,5.67-.17,8.51-2.13,9A1,1,0,0,1,95.7,78.1Zm-2-27.28,0,.09c-1,.51-.82,1.31-.54,3.06a28.56,28.56,0,0,1,.25,8.47c-.79,7-.1,13.7,1.58,15.17a1,1,0,0,0,.93.26c1.81-.46,1.87-3.25,2-8.82,0-1.81.09-3.86.2-6.22.22-4.66-.44-10.19-3-11.77a1.44,1.44,0,0,0-1.45-.15Z"/><path class="cls-1" d="M108.71,63.51c2.46-.73,3.61,2,4.57,6s5.08,8.2,2.94,9.78-3.31-4.67-6.4-8.43S106.94,64,108.71,63.51Z"/><path d="M115.56,79.67a.85.85,0,0,1-.23,0c-.93-.22-1.69-1.77-2.66-3.72a25.62,25.62,0,0,0-2.93-5c-2.84-3.45-2.47-5.65-2.29-6.24a1.84,1.84,0,0,1,1.23-1.29,2.36,2.36,0,0,1,1.89.16c1.44.84,2.23,3.47,2.81,5.93a20.21,20.21,0,0,0,2,4.61c1.23,2.29,2.29,4.26.91,5.28A1.2,1.2,0,0,1,115.56,79.67Zm-6.08-16.18a2.54,2.54,0,0,0-.74.12h0a1.62,1.62,0,0,0-1.09,1.16c-.36,1.17,0,3.38,2.24,6.06a25.49,25.49,0,0,1,3,5c.9,1.83,1.69,3.42,2.52,3.62a.94.94,0,0,0,.79-.21c1.24-.91.22-2.82-1-5a20.48,20.48,0,0,1-2-4.66c-.57-2.42-1.34-5-2.71-5.8A1.91,1.91,0,0,0,109.48,63.49Z"/></g></g></svg>