<svg id="圖層_1" data-name="圖層 1" xmlns="http://www.w3.org/2000/svg" viewBox="0 0 1141.53 434.57"><defs><style>.cls-1{fill:#fbc6a6;}.cls-1,.cls-2,.cls-3,.cls-4,.cls-5,.cls-6,.cls-7{stroke:#000;stroke-linejoin:round;stroke-width:0.4px;}.cls-2{fill:#fff;}.cls-3{fill:#e5aeae;}.cls-4{fill:#b25269;}.cls-5{fill:#fff6eb;}.cls-6{fill:none;}.cls-7{fill:#ea6157;}</style></defs><title>all</title><path class="cls-1" d="M47.51,200.66c39.12-38.4,181.7-73,321.92-72.95s389.62-73.55,478.73-27,71.85,81.33,125,107S1136.9,231.91,1140.79,262s-8.44,50.3-21.42,66.18-41.44,55.62-104.59,61.34C976.68,393,889.53,411,783.7,408.39s-168.8-3.9-248,7.79-101.94,28.57-148,10.39S324.86,398,278,389.56s-140.33-30.35-172.14-37.25-81.81-23.13-100-47.15,11-37,16.23-53.24S29.18,218.66,47.51,200.66Z"/><ellipse class="cls-2" cx="738.5" cy="255.01" rx="12.25" ry="5.81"/><path class="cls-3" d="M263.09,158s3.39,7.61-1.19,17.46-7.46,18.5-2.37,30.88l8.86-5.73a67.38,67.38,0,0,1,3-27.51c3.24-9.48,1.19-17,0-18.66Z"/><path class="cls-4" d="M251.82,147.08c1.2,2.2,5.37,3.2,9.49.25,6.43-4.61,10.19,2.13,17.93-1.14,5.17-2.19,3.91-8.77,9.91-10.48-2.94-5.07-7.92-10.25-9.91-15.29-3.69-9.32-9.48-19.7-18.95-18.3-13.35,2-8.05,24.19-8.53,32.16-.23,3.86-1.5,7.35-2.15,10.8A4.18,4.18,0,0,1,251.82,147.08Z"/><path class="cls-5" d="M289.15,135.71c-6,1.71-4.74,8.29-9.91,10.48-7.74,3.27-11.5-3.47-17.93,1.14-4.12,2.95-8.29,1.95-9.49-.25a4.18,4.18,0,0,0-2.21-2c-.69,3.69-.67,7.33,2.15,11.28,5.46,7.66,27.46,3,37.34-8.09C292.66,144.27,291.64,140,289.15,135.71Z"/><path class="cls-6" d="M268.39,117.08c-.11,6.68,5.79,10.1,6.27,14.68"/><path class="cls-6" d="M252.94,148.27s-.78,6.81,3.89,11.27"/><path class="cls-6" d="M283.09,142.31a19.7,19.7,0,0,1,0,11.09"/><path class="cls-6" d="M259.73,148.27s.77,8.54,5.51,11.67"/><path class="cls-6" d="M273.65,147.05s3,7.67,1,10.59"/><path class="cls-7" d="M54.94,35.7c-2.93-8.13,5.87-15.51,16.35-13s14,.1,14.2-9.73S93.27-1.39,99.56.37s11.59,10,6.81,17.48-6.3,10.74-4,14,7,2.4,20.92,2.77S150.46,40.68,154,47s3.53,20.66-9.57,16.88S123,53.78,120.73,59.33s8.56,12.59,21.66,11.84,39.31,7.3,44.09,21.16-12.09,15.12-22.42,12.85-17.13,5.29-7.31,10.33,44.27-4.91,59.81,7.78-1.5,21.77-19.54,23.12-24.46.94-24.06,6.55,19.65,3.61,32.08,10.43,18.45,19.4,10,22.73-19.64-4.94-22.85,0,22.45,34.61,21.25,41.82S183.59,254,175.47,250s-41.8-29.27-41-47.32,4.41-20.05,14-28.87,10.55-15.83,1.61-17.24-23.66,2.12-22.06-10.16,10.08-24.21,3.16-30-14.65,1.41-17,8.83-13,27.22-23.75,18.1c-9.42-8-.33-25.89,5.94-38.4,5.41-10.81,12.77-39,3.61-40.28s-3.61,32.35-15.49,31S64.75,83.13,73.2,68,89.47,42.85,85.49,38.67s-10.17,3-17.23,3.95C61.73,43.47,56.9,41.11,54.94,35.7Z"/><path class="cls-6" d="M86.79,31.15c44.29,43,90.17,127.56,106.49,215.41"/><path class="cls-3" d="M258.15,230.79s-23.73-14.22-27.58-42.45-12.71-41.93-12.71-41.93l9.29-4.1S236,156,239.86,184.25s27.58,42.44,27.58,42.44Z"/><path class="cls-5" d="M174.69,134.76a36.46,36.46,0,0,0,4.82,8.25,22.7,22.7,0,0,0,16.74,8.61c10.47.59,29.71-.38,46.88-12.35a22.72,22.72,0,0,0,9-24.79c-.12-.42-.26-.84-.4-1.26C248.89,104.9,174.69,134.76,174.69,134.76Z"/><path class="cls-6" d="M186.12,138.85a28.66,28.66,0,0,0,12.93,12.88"/><path class="cls-6" d="M216,150.38c-6.36-4.75-8.29-13.31-8.29-13.31"/><path class="cls-6" d="M220.72,137.07s.64,8,3.84,11.2"/><path class="cls-6" d="M236.6,125.9s3.49,10.77,1.08,16.77"/><path class="cls-6" d="M245.31,124.46s2,7.41-.47,13.48"/><path class="cls-6" d="M228,133.44s1.3,9.53,5.11,11.55"/><path class="cls-6" d="M196.85,137.07s3.41,12,10.85,14.41"/><path class="cls-4" d="M197.63,54.67c25-4.64,55.05,47.46,54.11,60.91s-13.21,6.85-17.93,12-9.83,12-24.54,9.67c-17.44-2.75-24.2,6.12-34.58-2.53C168.23,115.3,169.66,59.85,197.63,54.67Z"/><path class="cls-6" d="M219.19,80.74s3.46,14.47,12.57,20"/><path class="cls-6" d="M208.89,74.18s1.42,10.14,5,13.72"/><path class="cls-3" d="M893.25,122.31s-7.1,26.74,2.7,47.51c12.48,26.44-16.86,30.74-33.26,18-13-10.06-4.77-22.89-1.36-39.57a84.91,84.91,0,0,0,.59-31S887.27,107.55,893.25,122.31Z"/><path class="cls-5" d="M870.18,179.54c1.93-2.82,7.42,2.61,7.58,5.61s-2.58,2-5.25-.22C870.88,183.58,869.28,180.86,870.18,179.54Z"/><path class="cls-4" d="M802.58,88.84c0-13.47,13.3-15.2,24.3-16s26.26-10.42,43.47-25,36-7.83,40.71,13.7,14.41,30.39,29.34,40.32,11.78,22.47,3.68,26.47S897,133,867.15,125.64,802.58,102.3,802.58,88.84Z"/><path class="cls-6" d="M868.49,62.57s-5.93,11.87-19.21,13.85"/><path class="cls-6" d="M868.49,72.83s-4,6.56-13.77,8"/><path class="cls-6" d="M862.69,62.57s-3.54,4.37-7.08,5.43"/><path class="cls-6" d="M912.78,80.86s-.51,9.77,6.74,14.73"/><path class="cls-6" d="M920.57,90.57s3,4.33,5.48,5.57"/><ellipse class="cls-1" cx="934.27" cy="118.14" rx="7.17" ry="2.9"/><ellipse class="cls-1" cx="906.92" cy="122.8" rx="3.45" ry="5.94" transform="translate(428.17 902.79) rotate(-66.17)"/><ellipse class="cls-1" cx="924.35" cy="109.62" rx="3.56" ry="2.24"/><ellipse class="cls-1" cx="825.54" cy="90.5" rx="5.52" ry="12.62" transform="translate(275.82 713) rotate(-54.81)"/><ellipse class="cls-1" cx="848.49" cy="108.46" rx="3.23" ry="5.34" transform="translate(270.86 739.37) rotate(-54.81)"/><ellipse class="cls-1" cx="843.52" cy="93.35" rx="2.56" ry="4.01" transform="translate(239.6 689.61) rotate(-50.95)"/><path class="cls-1" d="M837.72,177.23c3.51,4.59,7,9.15,10.44,13.65Q843,184.13,837.72,177.23Z"/><path class="cls-1" d="M752,97.28c-1-.45-1.9-.89-2.86-1.31,1,.42,1.91.86,2.86,1.31Z"/><path class="cls-1" d="M818,152.38l1.26,1.49h0Z"/><path class="cls-1" d="M819.21,153.87h0l.18.21Z"/><path class="cls-5" d="M457.67,123.42c39.6-5.23,48.71,4.48,82.26,6.73s50-12.71,72.41-37.36c5.8-6.39,10.44-11.06,14.15-14.49-10.72-4.31-21.82-9-55.25-9.42-65-.75-119.54,23.91-163.62,51.55l-.88.57C417.59,123.79,435.07,126.41,457.67,123.42Z"/><path class="cls-7" d="M456.47,253.78c-5.79,5.43-14.65,11.15-27.88,5.37-33.34,37.94-72.17,65.19-72.17,65.19,17,5.85,33.59,7.75,48.95.07,33-16.5,58.19-52.48,77.25-79.6-3.79-1.13-7.49-2.08-11.07-2.88C466.46,247.12,461.17,249.37,456.47,253.78Z"/><path class="cls-1" d="M456.47,253.78c4.7-4.41,10-6.66,15.08-11.85a183.53,183.53,0,0,0-25.9-3.9l-3.83,5c-4.23,5.53-8.68,10.91-13.23,16.09C441.82,264.93,450.68,259.21,456.47,253.78Z"/><path class="cls-7" d="M640.26,256.59c-40,12.4-84.59,7.34-132.57-15a156.37,156.37,0,0,0-17.82-7c-3.73-1.21-7.4-2.25-11-3.16a190.53,190.53,0,0,0-24.73-4.56q-4.12,5.4-8.51,11.19a183.53,183.53,0,0,1,25.9,3.9c3.58.8,7.28,1.75,11.07,2.88a146.21,146.21,0,0,1,20,7.54c32.54,15.18,63.73,22.79,93.24,22.79A160.77,160.77,0,0,0,643.79,268c36.43-11.31,64.83-29,84.94-52.65q-5.82-2.58-11.2-5.35C699,230.77,673.14,246.38,640.26,256.59Z"/><path class="cls-7" d="M743.17,178.16c-1.23-.74-2.48-1.45-3.74-2.14a130.45,130.45,0,0,1-14.17,24.44q5.29,2.67,11,5.13a142.16,142.16,0,0,0,13.36-23.25C747.54,180.88,745.38,179.48,743.17,178.16Z"/><polygon class="cls-1" points="851.53 195.21 851.53 195.21 851.53 195.21 851.53 195.21"/><path class="cls-5" d="M752.6,97.58c.81.4,1.62.8,2.43,1.22.38.19.76.4,1.14.6l1.89,1,1.22.68,1.88,1.09,1.15.68,2.27,1.41.73.47c1,.63,2,1.28,3,1.94l1,.7,2,1.42,1.17.85c.65.47,1.3.94,1.95,1.43l1.16.87c.72.54,1.45,1.1,2.18,1.67l.91.71c1,.81,2.06,1.64,3.1,2.49l.74.61c.81.67,1.63,1.35,2.45,2l1.13,1,2.16,1.86,1.18,1,2.28,2,1,.94,3.37,3.08c1.31,1.22,2.61,2.45,3.88,3.69.43.41.84.83,1.26,1.24.85.83,1.69,1.67,2.52,2.51l1.46,1.5c.74.77,1.48,1.53,2.2,2.3l1.52,1.63c.69.74,1.38,1.48,2.06,2.23.5.56,1,1.12,1.51,1.69.67.74,1.32,1.48,2,2.23l1.48,1.7c.65.75,1.3,1.5,1.94,2.26l1.26,1.49h0l.18.21,1.92,2.31c.46.55.92,1.11,1.37,1.67.67.81,1.34,1.64,2,2.46l1.23,1.52,3,3.83,1.78,2.28,1.29,1.66,2.09,2.71.9,1.17,2.56,3.35.15.19q5.25,6.89,10.44,13.65l.25.32c1,1.33,2.07,2.67,3.11,4v0a122.26,122.26,0,0,1-1.16-22c.67-19.66-6.48-25.12-10.94-32-11.48-17.74-21.47-13-30.66-23.72s-20.39-23.28-36.6-28.95C761.5,84.79,755.11,92,752,97.28h0Z"/><path class="cls-1" d="M851.53,195.21h0v0Z"/><path class="cls-1" d="M257,278.43c-3.05-17.38,11.73-37.37,13-50.41s2.17-18.68,6.52-30.85a25.48,25.48,0,0,0-2.17-21.71c-1.35,2.39-2.66,4.78-3.92,7.15-22.53,42.57-45.13,46.16-52.58,72.61-4.35,15.46.74,25.94,38.19,30.89A12.7,12.7,0,0,0,257,278.43Z"/><path class="cls-5" d="M329.54,301.89c13.47-26.94,2.61-42.58,7.39-64.3S353.44,218.9,356.42,202s-6.2-31.46-6.28-31.59C325.44,197,304.22,226.25,294.79,246c-10.24,21.42-14.1,36.16-15.55,44.23,14.27,4.3,29.13,12,44.06,19.47A21.75,21.75,0,0,0,329.54,301.89Z"/><path class="cls-7" d="M961.49,255.22c-43.82-38.8-98.9-133.95-152.72-174s-95.16-32.55-125.2-26.8-75.12-19.52-131.76-22C511.21,30.59,471.74,32,432.36,44c-2.08,11.74-9.66,39.33-35.47,47-33.08,9.84-42.91,13.86-51,25s-11.47,25.19-24.14,28.11c-14.9,3.43-23.76,2.21-28,1.05a309.2,309.2,0,0,0-19.48,30.25,25.48,25.48,0,0,1,2.17,21.71C272.18,209.34,271.32,215,270,228s-16.08,33-13,50.41a12.7,12.7,0,0,1-.93,7.68q3.82.51,8.11.94a75.72,75.72,0,0,1,12,2.27c1,.27,2,.55,3.08.86,1.45-8.07,5.31-22.81,15.55-44.23,9.43-19.7,30.65-49,55.35-75.59,18.09-19.49,38-37.55,56.6-49.36l.88-.57c44.08-27.64,98.62-52.3,163.62-51.55,33.43.38,44.53,5.11,55.25,9.42,10.13,4.06,19.92,7.74,47.86,7,1.62,0,3.21-.08,4.78-.1l.83,0,4.43,0h.85c1.49,0,3,0,4.39,0h.28l4.09.08.72,0,4,.14.83,0q2,.09,3.9.21l.46,0,3.56.26.63.06c1.22.1,2.42.22,3.6.35l.8.08c1.18.13,2.34.27,3.49.43l.58.08c1.07.15,2.13.3,3.18.47l.53.08c1.11.18,2.21.38,3.3.58l.77.14c1.07.21,2.13.43,3.17.66l.64.14,3,.7.4.1c1,.27,2.06.55,3.08.84l.73.21c1,.29,2,.59,3,.9l.67.22c1,.32,1.9.64,2.83,1l.31.11c1,.36,1.94.73,2.9,1.11l.69.27c.94.38,1.88.78,2.81,1.18l.68.31c1,.42,1.91.86,2.86,1.31,3.11-5.32,9.5-12.49,20.17-8.75,16.21,5.67,27.4,18.2,36.6,29s19.18,6,30.66,23.72c4.46,6.89,11.61,12.35,10.94,32a122.26,122.26,0,0,0,1.16,22h0c.57.73,1.15,1.45,1.72,2.17l1,1.26,1.53,1.9L857,202c.48.6,1,1.19,1.46,1.78s.86,1.05,1.3,1.57.94,1.14,1.42,1.7l1.38,1.62c.46.54.92,1.08,1.39,1.61s1,1.13,1.48,1.69l1.33,1.5c.58.65,1.17,1.28,1.75,1.92l1.1,1.21c.94,1,1.89,2,2.85,3,.32.34.65.66,1,1l2,2,1.21,1.17,1.83,1.76,1.3,1.2,1.82,1.67,1.34,1.18c.62.54,1.24,1.08,1.87,1.61l1.35,1.13c.66.54,1.32,1.08,2,1.61l1.3,1c.74.58,1.49,1.14,2.25,1.7l1.12.85c1.14.83,2.3,1.64,3.47,2.44s2.21,1.53,3.31,2.34c6.26-1.29,16.52-1.38,29.66,5.6,22.51,12,29.89,25.67,40.44,37.63,9.18,10.39,15.42,31.16,8.8,40.56a180.46,180.46,0,0,0,14.8,14.38c3.72-.78,7.34-1.66,10.79-2.64C1030.35,330.34,1005.31,294,961.49,255.22Z"/><path class="cls-1" d="M321.79,144.16c12.67-2.92,16.1-16.93,24.14-28.11s17.88-15.19,51-25c25.81-7.67,33.39-35.26,35.47-47a248.37,248.37,0,0,0-46.74,19.66c-39.15,21.36-69.44,50.93-91.78,81.53C298,146.37,306.89,147.59,321.79,144.16Z"/><path class="cls-5" d="M620,169.2c-6.09-8.08-14.14-9.26-22.3-8.46-9.16.91-20.29-3.53-32.91,5.94-8.74,6.55-11.57,15.87-12.49,21A199.21,199.21,0,0,1,585.46,178C597.05,175.71,608.34,172.36,620,169.2Z"/><path class="cls-1" d="M489.18,185.57A142.22,142.22,0,0,1,516,165.12c-3.51-.05-7.44-.17-11.74-.4-19.63-1.05-30,.82-37.16,15.08a36.89,36.89,0,0,0-3.42,15.89,71.66,71.66,0,0,0,1.85,16.52A262.46,262.46,0,0,1,489.18,185.57Z"/><path class="cls-1" d="M787.91,220.46c.06-.27.12-.56.18-.84l-.91-.1C787.42,219.84,787.67,220.15,787.91,220.46Z"/><path class="cls-1" d="M650.67,143.87c2.39.51,4.82,1,7.34,1.6l.7.15c34.8,7.65,50.44,4.85,81,29.69,1.13.91,2.27,1.86,3.45,2.85h0c2.21,1.32,4.37,2.72,6.48,4.18,14.36,9.92,26.63,22.9,37.53,37.18l.91.1c3-14.11,4.48-40.08-17-53.91-24.49-15.75-32.81-46.14-68.67-48.11-33.33-1.83-51.13,18.65-56,25.36l4.32.91Z"/><path class="cls-7" d="M492.93,206.78c-3.07,14.49-7,10.58-14,24.61h0c3.58.91,7.25,1.95,11,3.16,3.16-4.39,6.12-8.37,8.9-11.77,12.76-15.59,33.29-27.3,53.48-35.12.92-5.12,3.75-14.44,12.49-21,12.62-9.47,23.75-5,32.91-5.94,8.16-.8,16.21.38,22.3,8.46,11.54-3.13,23.39-6.07,36.15-7.52,4.22-.48,8.55-.79,13-.9h0c.77,0,1.55,0,2.32,0,30.49-.16,58.45,10.6,58.45,10.6,3.28,1.4,6.45,3,9.54,4.67,1.26.69,2.51,1.4,3.74,2.14h0c-1.18-1-2.32-1.94-3.45-2.85-30.58-24.84-46.22-22-81-29.69l-.7-.15c-2.52-.56-5-1.09-7.34-1.6l-.26.16.26-.16-4.32-.91c-30-6.12-51.74-7.13-98.13,7.93A161.7,161.7,0,0,0,516,165.12a142.22,142.22,0,0,0-26.78,20.45C491.91,190.78,494.68,198.56,492.93,206.78Z"/><path class="cls-1" d="M478.9,231.39c7.05-14,11-10.12,14-24.61,1.75-8.22-1-16-3.75-21.21a262.46,262.46,0,0,0-23.69,26.64c-3.69,4.64-7.43,9.51-11.33,14.63a190.53,190.53,0,0,1,24.73,4.56Z"/><polygon class="cls-1" points="650.4 144.03 650.67 143.87 650.67 143.87 650.4 144.03"/><path class="cls-7" d="M787.18,219.52a171.14,171.14,0,0,1-32.32-7c-6.54-2.08-12.72-4.41-18.57-6.91q-5.73-2.46-11-5.13a194.78,194.78,0,0,1-53.82-39.71c-.77,0-1.55,0-2.32,0h0c-4.45.11-8.78.42-13,.9A200.79,200.79,0,0,0,717.53,210q5.38,2.76,11.2,5.35a220.92,220.92,0,0,0,22.51,8.54,180.65,180.65,0,0,0,45.17,8.47q-4.11-6-8.5-11.88C787.67,220.15,787.42,219.84,787.18,219.52Z"/><path class="cls-5" d="M941.34,283.07c13,14.95,25.33,30.41,37.13,43,6.62-9.4.38-30.17-8.8-40.56-10.55-12-17.93-25.68-40.44-37.63-13.14-7-23.4-6.89-29.66-5.6C914.1,252.91,928,267.71,941.34,283.07Z"/><path class="cls-1" d="M899.57,242.32c-1.1-.81-2.21-1.59-3.31-2.34s-2.33-1.61-3.47-2.44l-1.12-.85c-.76-.56-1.51-1.12-2.25-1.7l-1.3-1c-.67-.53-1.33-1.07-2-1.61l-1.35-1.13c-.63-.53-1.25-1.07-1.87-1.61l-1.34-1.18-1.82-1.67-1.3-1.2-1.83-1.76-1.21-1.17-2-2c-.32-.33-.65-.65-1-1-1-1-1.91-2-2.85-3l-1.1-1.21c-.58-.64-1.17-1.27-1.75-1.92l-1.33-1.5c-.49-.56-1-1.12-1.48-1.69s-.93-1.07-1.39-1.61l-1.38-1.62c-.48-.56-.95-1.13-1.42-1.7s-.87-1-1.3-1.57-1-1.18-1.46-1.78l-1.21-1.49-1.53-1.9-1-1.26c-.57-.72-1.15-1.44-1.72-2.17h0v0c-1-1.32-2.08-2.66-3.11-4l-.25-.32c-3.47-4.5-6.93-9.06-10.44-13.65l-.15-.19L835,173.69l-.9-1.17L832,169.81l-1.29-1.66L829,165.87l-3-3.83-1.23-1.52c-.66-.82-1.33-1.65-2-2.46-.45-.56-.91-1.12-1.37-1.67l-1.92-2.31-.18-.21c0,.1-8.74,29.24,4.3,60.38.71,1.69,1.44,3.26,2.18,4.76a60.94,60.94,0,0,0,6.8,11c11.77,14.88,25.75,15.32,38,26.89C886,271.56,887.6,283.39,906,286.25a75.67,75.67,0,0,0,20.73.55,57.58,57.58,0,0,0,14.65-3.73C928,267.71,914.1,252.91,899.57,242.32Z"/><path class="cls-7" d="M978.47,326.11c-11.8-12.63-24.17-28.09-37.13-43a57.58,57.58,0,0,1-14.65,3.73,75.67,75.67,0,0,1-20.73-.55c-18.36-2.86-20-14.69-35.51-29.39-12.21-11.57-26.19-12-38-26.89a60.94,60.94,0,0,1-6.8-11c-.74-1.5-1.47-3.07-2.18-4.76-13-31.14-4.33-60.28-4.3-60.38L818,152.38c-.64-.76-1.29-1.51-1.94-2.26l-1.48-1.7c-.66-.75-1.31-1.49-2-2.23-.5-.57-1-1.13-1.51-1.69-.68-.75-1.37-1.49-2.06-2.23l-1.52-1.63c-.72-.77-1.46-1.53-2.2-2.3l-1.46-1.5c-.83-.84-1.67-1.68-2.52-2.51-.42-.41-.83-.83-1.26-1.24-1.27-1.24-2.57-2.47-3.88-3.69l-3.37-3.08-1-.94-2.28-2-1.18-1-2.16-1.86-1.13-1c-.82-.7-1.64-1.38-2.45-2l-.74-.61c-1-.85-2.07-1.68-3.1-2.49l-.91-.71c-.73-.57-1.46-1.13-2.18-1.67l-1.16-.87c-.65-.49-1.3-1-1.95-1.43l-1.17-.85-2-1.42-1-.7c-1-.66-2-1.31-3-1.94l-.73-.47-2.27-1.41-1.15-.68-1.88-1.09-1.22-.68-1.89-1c-.38-.2-.76-.41-1.14-.6-.81-.42-1.62-.82-2.43-1.22l-.6-.3c-1-.45-1.9-.89-2.86-1.31l-.68-.31c-.93-.4-1.87-.8-2.81-1.18l-.69-.27c-1-.38-1.93-.75-2.9-1.11l-.31-.11c-.93-.33-1.88-.65-2.83-1l-.67-.22c-1-.31-2-.61-3-.9l-.73-.21c-1-.29-2-.57-3.08-.84l-.4-.1-3-.7-.64-.14c-1-.23-2.1-.45-3.17-.66l-.77-.14c-1.09-.2-2.19-.4-3.3-.58l-.53-.08c-1.05-.17-2.11-.32-3.18-.47L716,86.9c-1.15-.16-2.31-.3-3.49-.43l-.8-.08c-1.18-.13-2.38-.25-3.6-.35l-.63-.06-3.56-.26-.46,0q-1.92-.12-3.9-.21l-.83,0-4-.14-.72,0-4.09-.08h-.28c-1.44,0-2.9,0-4.39,0h-.85l-4.43,0-.83,0c-1.57,0-3.16,0-4.78.1-27.94.72-37.73-3-47.86-7-3.71,3.43-8.35,8.1-14.15,14.49-22.42,24.65-38.86,39.6-72.41,37.36s-42.66-12-82.26-6.73c-22.6,3-40.08.37-50.93-2.42-18.56,11.81-38.51,29.87-56.6,49.36.08.13,9.25,14.72,6.28,31.59s-14.71,13.91-19.49,35.64,6.08,37.36-7.39,64.3a21.75,21.75,0,0,1-6.24,7.76c11.07,5.53,22.18,10.93,33.12,14.69,0,0,38.83-27.25,72.17-65.19,4.55-5.18,9-10.56,13.23-16.09l3.83-5q4.39-5.78,8.51-11.19c3.9-5.12,7.64-10,11.33-14.63a71.66,71.66,0,0,1-1.85-16.52,36.89,36.89,0,0,1,3.42-15.89c7.13-14.26,17.53-16.13,37.16-15.08,4.3.23,8.23.35,11.74.4a161.7,161.7,0,0,1,32.26-14.23c46.39-15.06,68.15-14,98.13-7.93,4.9-6.71,22.7-27.19,56-25.36,35.86,2,44.18,32.36,68.67,48.11,21.52,13.83,20.08,39.8,17,53.91-.06.28-.12.57-.18.84q4.4,5.82,8.5,11.88c20.78,30.47,36.67,64.31,53.66,86.73,31.3,41.31,56.34,30.05,73.86,28.8,15.23-1.09,44.64-2.18,69.34-7.38A180.46,180.46,0,0,1,978.47,326.11Z"/><path class="cls-7" d="M519.41,361.1a7.22,7.22,0,0,0,1-14h0l6.75-3.17a7.22,7.22,0,0,0-1.43-13.57l-7.25-1.69,6.23-3.69A7.23,7.23,0,0,0,522,311.65l-7.16-.91,5.45-4.13a7.22,7.22,0,0,0-4.33-13l-6.82,0,4.41-4.42a7.22,7.22,0,0,0-6.2-12.24l-6.15.93,3.17-4.52A7.22,7.22,0,0,0,496,262.42l-5.18,1.85,1.94-4.56a7.22,7.22,0,0,0-10.53-8.91L478,253.46l.84-4.9a7.22,7.22,0,0,0-12.28-6.26l-3.48,3.56-.29-5.54a7.22,7.22,0,0,0-13.31-3.49l-3,4.7L445,235.39a7.23,7.23,0,0,0-13.68-1.06l-2.45,5.86-2.44-5.84a7.22,7.22,0,0,0-13.67,1.05l-1.51,6.13-3-4.71A7.22,7.22,0,0,0,395,240.3l-.29,5.56-3.47-3.56a7.22,7.22,0,0,0-12.29,6.26l.84,4.89-4.17-2.66a7.22,7.22,0,0,0-10.52,8.91l1.93,4.56-5.17-1.84a7.22,7.22,0,0,0-8.34,10.94l3.16,4.51-6.15-.94a7.22,7.22,0,0,0-6.2,12.24l4.41,4.41-6.83,0a7.22,7.22,0,0,0-4.33,13l5.46,4.12-7.18.93A7.22,7.22,0,0,0,333.07,325l6.23,3.69L332,330.41A7.22,7.22,0,0,0,330.61,344l6.76,3.18h0a7.22,7.22,0,0,0,1,14s38.63,9.58,90.49,9.58C471.59,370.68,519.41,361.1,519.41,361.1Z"/><path class="cls-6" d="M453.78,285.84s3.76-10,9.44-6.57,0,12,0,12"/><path class="cls-4" d="M322.8,362.84c34.41,0,58.32-10.44,58.32-10.44a4.65,4.65,0,0,0,.66-9h0l4.35-2.05a4.65,4.65,0,0,0-.92-8.74l-4.67-1.09,4-2.38a4.65,4.65,0,0,0-1.79-8.61l-4.61-.6,3.51-2.65a4.66,4.66,0,0,0-2.79-8.37l-4.4,0,2.85-2.84a4.66,4.66,0,0,0-4-7.89l-4,.6,2-2.91a4.65,4.65,0,0,0-5.38-7.05L362.69,290l1.24-2.94a4.65,4.65,0,0,0-6.78-5.74L354.46,283l.54-3.15a4.65,4.65,0,0,0-7.91-4l-2.24,2.3-.19-3.57a4.65,4.65,0,0,0-8.57-2.25l-1.93,3-1-4a4.65,4.65,0,0,0-8.81-.68l-1.58,3.77-1.57-3.76a4.65,4.65,0,0,0-8.81.68l-1,4-1.92-3a4.66,4.66,0,0,0-8.58,2.25l-.19,3.57-2.24-2.29a4.65,4.65,0,0,0-7.91,4l.54,3.15-2.69-1.71a4.65,4.65,0,0,0-6.78,5.74l1.25,2.94-3.34-1.19a4.65,4.65,0,0,0-5.37,7.05l2,2.9-4-.6a4.65,4.65,0,0,0-4,7.88l2.84,2.85-4.4,0a4.65,4.65,0,0,0-2.79,8.36l3.51,2.66-4.62.59a4.66,4.66,0,0,0-1.79,8.62l4,2.38-4.68,1.1a4.65,4.65,0,0,0-.92,8.74l4.36,2.05h0a4.65,4.65,0,0,0,.66,9S288.14,362.84,322.8,362.84Z"/><path class="cls-1" d="M293.48,297.75s-6.09,11.8,13.16,10.66,32.17-13.61,32.17-13.61,10.13-12.74,7.24-34.45-15.93-25.19-20.56-13.61c0,0-8.4-8.76-16.21-4.81s-6,13-5,15.88c0,0-8,0-11.7,7.17-3.34,6.55.92,13.61.92,13.61a11,11,0,0,0-7.08,9.84C286.11,296,293.48,297.75,293.48,297.75Z"/><circle class="cls-4" cx="310.28" cy="268.6" r="2.4"/><circle class="cls-4" cx="320.53" cy="266.2" r="2.4"/><circle class="cls-4" cx="308.94" cy="279.56" r="2.43"/><line class="cls-1" x1="311.37" y1="279.56" x2="323.3" y2="282.87"/><line class="cls-1" x1="320.53" y1="268.6" x2="326.1" y2="281.21"/><line class="cls-1" x1="312.1" y1="270.14" x2="324.81" y2="281.99"/><path class="cls-6" d="M338.81,294.8s21.11,13.69,23.31,75.24"/><path class="cls-5" d="M350.46,284a38.07,38.07,0,0,0,.75,28.68S360.4,296.47,350.46,284Z"/><path class="cls-5" d="M330,316.86c.72.06,5.65,1.95,10.5,7.39A18.22,18.22,0,0,0,357,330.08s-2.58-8.84-11.09-13.22A17.23,17.23,0,0,0,330,316.86Z"/><path class="cls-1" d="M320.41,294.79s-7.24,2.42-8.55-3,4.62-6.12,4.62-6.12-2.83-5.24,0-8,7.48-1.67,9,0a11.62,11.62,0,0,1,1.86-11.16c4.28-5.22,13.4-2.61,13.21,5"/><path class="cls-1" d="M372,252c13.21-2.5,16.89,11.17,16.89,11.17s3.64-11.84,14.14-11.86c8.58,0,12.36,11,12.05,14.87,0,0,10.68-2,16.84,3.93,6.49,6.28,1.45,18.32,1.45,18.32s11.79,1.54,12.31,9.88c.64,10.15-11.62,20.36-36.37,17.77s-40.3-12.19-46-31.6S364.23,253.5,372,252Z"/><polyline class="cls-1" points="404.38 271.54 402.34 292.6 422.72 284"/><line class="cls-1" x1="416.36" y1="274.36" x2="402.34" y2="292.6"/><circle class="cls-4" cx="404.47" cy="268.88" r="2.67"/><circle class="cls-4" cx="425.84" cy="282.6" r="3.05"/><circle class="cls-4" cx="418.1" cy="271.54" r="3.05"/><path class="cls-1" d="M377.42,286.11s2.22-11.43,12.77-11.75,11.94,14.95,11.94,14.95,9-7.23,14.23-3.2,0,12.23,0,12.23,7.89-1.5,8.74,3.43-4.25,7.16-10.19,6.72"/><path class="cls-2" d="M553.51,327.68c-1.36-5.46,9.35-10.45,20-10.43s17.89,3.22,18.42,7.23-14.41,6.68-23.76,7.08S554.58,332,553.51,327.68Z"/><path class="cls-4" d="M741.68,244.52s0,70.88,54.73,87.2c0,0,2.13-39.26-24.4-60.77S741.68,244.52,741.68,244.52Z"/><path class="cls-6" d="M750.75,263.2C766,299.62,784,304.06,796.41,331.72"/><path class="cls-2" d="M535.44,310.88c-.93-4.37,8.17-7.43,12.87-4.71s2.72,7.4-2.47,7.78S536.18,314.34,535.44,310.88Z"/><path class="cls-7" d="M27.72,163.21c-8.58-4.94-7.1-20.6,4.6-25.42,9.34-3.85,15.57-.18,13.37-12.51-1.78-10,3.56-15.39,8.68-15.42,5.53,0,10.54,4.51,9.28,15.42s8.78,11.66,13,0,15.55-11.66,19.68-3.67c5.78,11.17-6.75,19.57,0,27s37.46-10.8,50.29-.68,2,19.58-10.47,25-13.83,14.51-5.06,14.85,38.92-5.48,47.59,10.46c7.49,13.78-5,17-12.83,19.57C156.23,220.92,154,232,167.5,234s32.82-4.28,58,7.94c19.37,9.41-1.82,29.07-27.26,29.07-20.6,0,1.67,31.89-9.79,66.65,0,0-16.52-20.41-19.16-30-3.9-14.21,1.2-21.5-4.41-23.61-7.9-3-5.45,29.07-20.3,25.65s-5.32-37.47-4.52-51.84S137.8,236.9,132.4,240s-4.46,17.65-8.77,23.79c-6.62,9.4-19.82,3.23-20.8-8.38-1.45-17.2,10.61-32,9.7-45-.69-9.76-13.51-11.88-14.18-.4s-4.42,28.41-14.21,24,2.26-34.76,2.65-45.22-4-18.22-11.09-14.85S73.49,198,62.54,192.82c-9.64-4.58-9.53-23.61-7.3-30.25,4.16-12.39-3.67-14.48-7.74-10.27C41.82,158.17,36.47,168.25,27.72,163.21Z"/><path class="cls-6" d="M52,138.76s110.44,38.18,136.45,198.89"/><path class="cls-4" d="M816.34,212.44S853,299.1,793.87,336.55C793.87,336.55,782.3,251.68,816.34,212.44Z"/><path class="cls-6" d="M811.88,265.31s1.51,34.15-18,71.24"/><path class="cls-4" d="M871.6,283.87s-21,52.66-68.71,40.29C802.89,324.16,811.3,281.82,871.6,283.87Z"/><path class="cls-6" d="M845.57,299.62a146.64,146.64,0,0,1-42.68,24.54"/><path class="cls-4" d="M206.69,218.36c9.65-2.47,13.79-7.43,15.58-11.24-4.15-14.56-16.9-34-26.85-31.44-10.75,2.73-13.58,26.4-10.47,40.31C188.6,218.33,195.72,221.16,206.69,218.36Z"/><path class="cls-5" d="M222.27,207.12c-1.79,3.81-5.93,8.77-15.58,11.24-11,2.8-18.09,0-21.74-2.37a20.45,20.45,0,0,0,3.23,7.89c7.24,9.27,36.45,4.35,35.42-9.84A35,35,0,0,0,222.27,207.12Z"/><path class="cls-6" d="M204.68,218.82a82.69,82.69,0,0,1,1.22,9.49"/><path class="cls-6" d="M218.31,212.48s2.13,5.25,1.53,10.09"/><path class="cls-6" d="M212.11,216.48s2.18,5.18,1.44,9.87"/><path class="cls-6" d="M197,219.46s0,6.07,2.48,9.08"/><path class="cls-6" d="M190.54,218.51s-.22,5.48,3.1,8.92"/><path class="cls-2" d="M596.31,222.5c-4.33-4,1.92-11.6,12.86-12.52s13.46,3.23,10.78,6.26C613.66,223.37,599.77,225.7,596.31,222.5Z"/><ellipse class="cls-2" cx="634.8" cy="223.91" rx="7.38" ry="4.04" transform="translate(-20.24 68.88) rotate(-6.11)"/><path class="cls-2" d="M646.35,208.55c.29-6,21.69-8.87,25.09-3,1.65,2.87-2,5.37-7.74,6.85S646.11,213.44,646.35,208.55Z"/><path class="cls-5" d="M1022,266.12s-3.6,18.18,7.79,45.74,5.7,41.63-13.19,47.34c-17.72,5.35-63.84,8.26-69.8-18.73-4.79-21.72,22.5-40.46,24.28-79S1020.59,240.93,1022,266.12Z"/><path class="cls-6" d="M1015.36,330.88s2.67,11.5,0,18.55"/><path class="cls-6" d="M1022.56,330.88s1.6,8.27,0,13.07"/><path class="cls-6" d="M1009.53,337.42a22.25,22.25,0,0,1,0,8.92"/><path class="cls-3" d="M881.17,211.68c.31-19.14,23.91-20.06,41.53-21.88s30.67-4.83,59.63-25.46,52.61,7.65,67.2,25.46S1078.66,211.3,1094,220s19.41,28.86-15.82,38.93-95.41,11.75-149.48-9.71C897.05,236.67,880.91,227.31,881.17,211.68Z"/><path class="cls-6" d="M1025.2,185.68s4.65,16.94,20.7,25.93"/><path class="cls-6" d="M1038.65,196.81s5.44,9.57,13.46,13.45"/><path class="cls-6" d="M968.79,189.56s-9.7,9.58-22.57,12.16"/><path class="cls-6" d="M968.79,181.54s-4.4,5.18-7,6.21"/><path class="cls-6" d="M1052.11,202.87a21.72,21.72,0,0,0,3.38,3.27"/><path class="cls-1" d="M1061.38,234.44c-.61-4.87,9.33-8,16.52-6.55s10.31,5.07,8,7.53-7.53,4.19-13.58,3.73S1061.71,237.05,1061.38,234.44Z"/><path class="cls-1" d="M1035.55,246.87c.11-4,8.66-6.05,13.4-3.76s1.31,7.19-4.74,8S1035.47,249.45,1035.55,246.87Z"/><path class="cls-1" d="M911.08,204.5c1-2.79,9.21-1.5,14.76,1.64,4.7,2.65,13.61,4.11,13.76,9.44s-6.05,4.27-11,2.46S908.89,210.65,911.08,204.5Z"/><ellipse class="cls-1" cx="1080.59" cy="249.25" rx="4.23" ry="2.46" transform="translate(-27.32 200.95) rotate(-10.49)"/><path class="cls-3" d="M463,356.37s-6.59,1.88-18.31,12.16S396.56,388,376.38,370s9.77-35.66,36.39-38.16C438.49,329.47,452.68,340.7,463,356.37Z"/><path class="cls-6" d="M372,365s32-15.52,77-7.93"/><path class="cls-6" d="M416.36,340.49a31.84,31.84,0,0,1-16.95,16.56A40.9,40.9,0,0,1,416.36,369"/><path class="cls-6" d="M432.32,346.31a21.81,21.81,0,0,1-12.8,8.72s9.92,5.69,13.82,13.92"/><path class="cls-6" d="M444.45,350.81s-2.46,4.12-7,4.75a16.18,16.18,0,0,1,5.55,7.83"/><path class="cls-3" d="M272.12,333.15c8.29,10,16.66,35.8,40.93,42.09,29.24,7.58,38.63-5.42,55.92-3,0,0-2.88-29.15-34.59-42.77S272.12,333.15,272.12,333.15Z"/><path class="cls-6" d="M295.86,340.49s40.17.86,73.11,31.75"/><path class="cls-6" d="M325.68,370c-.28-1.07,9-10.53,25.16-11.67a26.1,26.1,0,0,1-5.15-14.31"/><path class="cls-6" d="M309,360.78s9-10.58,27.53-10c0,0-5.54-3-6.53-13.16"/><path class="cls-6" d="M295.86,352.33c1.21-.78,9.84-8.78,21.57-8.27a14.14,14.14,0,0,1-6.13-12.18"/><path class="cls-3" d="M404.9,297.75s14.67,62.21-35.58,74.49c0,0-15.3-18.71-6.87-40.36S404.9,297.75,404.9,297.75Z"/><path class="cls-6" d="M394.75,314s-3.2,27.21-25.43,58.26"/><path class="cls-6" d="M372,337.65s7,10.6,5.84,21.43c0,0,7.25-6.6,14.85-5.55"/><path class="cls-6" d="M380.09,326.29s6.1,7,4.36,20c0,0,6.25-8.2,13.19-8.66"/><path class="cls-6" d="M387.42,316.86c1.57.53,4.16,3.93,4.57,9.43,0,0,3.55-4.45,7.22-4.71"/><path class="cls-3" d="M625.14,318.48a144.6,144.6,0,0,0,18.36,25.3c16.19,18,30.34,29.69,78.37,29.69,0,0-6.65-27.34-33.62-38.42S638.13,326.65,625.14,318.48Z"/><path class="cls-6" d="M721.87,373.47c-27.71-28.82-67.24-31.75-67.24-31.75"/><path class="cls-3" d="M698.93,254.44s1.43,3.92-4.92,27.45c-7.79,28.86,2.16,66.81,27.86,91.58,0,0,3.06-8.25,6.86-19.93C733.71,338.2,744.83,294.43,698.93,254.44Z"/><path class="cls-6" d="M709,285s13.12,20.53,12.9,88.44"/><path class="cls-3" d="M813,313.45s-37.59,17-53.17,34.49-38.58,25.61-38.58,25.61,13.53,2,29.93,4.94C775.13,382.82,816.75,383.69,813,313.45Z"/><path class="cls-6" d="M799.48,337.71s-17.11,31.08-66.92,29.88"/><path class="cls-3" d="M766.39,257.33c12.26,14.35,32.89,85.08-44.51,116.14,0,0-1-40.71,16.82-66.67A312.21,312.21,0,0,0,766.39,257.33Z"/><path class="cls-6" d="M763.6,299.62s-3.14,23.06-41.72,73.85"/><path class="cls-3" d="M171.59,285.15s-9,15,7.76,22,47.58.89,47.58.89,13.34,8.18,25.73-4.16c20.48,7.34,43.2-14,29.39-40,0,0,11.48-21.24-7.94-27,0,0-5.17-23.8-26.9-12.46,0,0-3.3-12.36-17.81-10.88-13.85,1.41-16.14,11.64-16.14,11.64s-13.87-5.4-23.7,1.9c-11.46,8.51-7.1,22-6.22,28.26,0,0-14-.07-16.8,11.68S171.59,285.15,171.59,285.15Z"/><path class="cls-6" d="M199.68,279.68s14.42,17.4,16.08,65.94"/><path class="cls-6" d="M193.59,286.64c.55,1.39,3.38,28.7,20.39,37.22"/><path class="cls-6" d="M200.72,261.08s-2.22-4.37,0-5.8S204.8,257,204.8,257s-.64-6.86,2.92-6.67,4.12,6.85,4.12,6.85"/><path class="cls-6" d="M246.37,248.34s5.62-6.28,8.34-3.89c1.92,1.69-1.67,8.16-1.67,8.16s3.34-5.38,6.3-3.52-3,10.19-3,10.19"/><path class="cls-6" d="M221.62,279.68s7.23,21.55,6.4,68.89"/><path class="cls-6" d="M214,281.81s3.6,43.88,14.1,46.52"/><path class="cls-6" d="M234.2,281.81s-1.63,28,5.18,30.84"/><path class="cls-6" d="M242.68,283.26S237,322,238,345.62"/><path class="cls-6" d="M251.76,351.73s7-52.71,0-71.11"/><path class="cls-2" d="M931.21,366.84c-.67-3.11,5.82-5.3,9.18-3.36s1.94,5.28-1.77,5.55S931.74,369.31,931.21,366.84Z"/><ellipse class="cls-2" cx="62.86" cy="242.29" rx="8.5" ry="4.26"/></svg>