<svg id="圖層_1" data-name="圖層 1" xmlns="http://www.w3.org/2000/svg" viewBox="0 0 940.52 607.06"><defs><style>.cls-1{fill:#ddd658;}.cls-1,.cls-10,.cls-3,.cls-4,.cls-5,.cls-6,.cls-7,.cls-8,.cls-9{stroke:#000;stroke-linejoin:round;stroke-width:0.4px;}.cls-2{fill:#b8bf30;}.cls-3{fill:none;}.cls-4{fill:#5b9348;}.cls-5{fill:#ecb36f;}.cls-6{fill:#fff6eb;}.cls-7{fill:#d3e296;}.cls-8{fill:#237a50;}.cls-9{fill:#c19165;}.cls-10{fill:#fff;}</style></defs><title>all</title><path class="cls-1" d="M1.7,442.38c6-14.24,32.26-13.59,54.14-27.44s57.61-24.07,96.26-26.26,68.55-35.33,102.83-31.88,292.16-32.52,403.73,8.87S808.82,406,847.26,421.23s80.82,32.68,89,45.75,1.67,26.65-28.83,44.37-68.09,42.49-108.22,53.46S693.46,601.6,642.52,592.57,476.16,610,415.12,606.79s-98.34-21.62-130.95-21c-44.57.89-98.48-35.15-154.53-47C64.79,525-12.49,476,1.7,442.38Z"/><path class="cls-2" d="M568.19,383.35c5.89-8.46,37.72-125,83.39-176.75s57.53,9.4,73.69,37.61,46.25,110.94,66.93,132.56,35,55,52.31,71.68,11,23.06,0,27.87-43.13,16.64-79.68,11.2-171.94-14-187.93-15.84S568.19,383.35,568.19,383.35Z"/><path class="cls-3" d="M568.19,383.35c5.89-8.46,37.72-125,83.39-176.75s57.53,9.4,73.69,37.61,46.25,110.94,66.93,132.56,35,55,52.31,71.68,11,23.06,0,27.87-43.13,16.64-79.68,11.2-171.94-14-187.93-15.84S568.19,383.35,568.19,383.35Z"/><path class="cls-3" d="M688.62,214.13c.37,8.5,10.87,15.14,13.08,24.74"/><path class="cls-3" d="M710.88,250.32c-1,7.75,12,12.55,14.55,28.79"/><path class="cls-3" d="M703.28,226.5s5.28,6.36,6.38,11.16"/><path class="cls-3" d="M767.52,389.5s5.17,17,15.14,21.78"/><path class="cls-3" d="M787.46,400.39s10,20.49,22.89,29.35"/><path class="cls-3" d="M815.52,439s4.06,6.27,8.86,7.75"/><path class="cls-4" d="M738.16,269.63a17.22,17.22,0,0,0,9.48-5.16c4.33-4.56,7.76-3.07,8.84-.06s-2.39,6.73-2.28,11.3-6,11.13-10.27,8.91-8.44-5.54-7.11-10.26Z"/><path class="cls-4" d="M717.19,254.58c2.91-1.22,7.22-1.41,8.55,2.51s.13,5.45,3.26,7.41,5.42,4.17,5.7,8.93-1.62,8.28-5.45,6.7-9.38.44-11.58-4.49-2.68-10.29-3.74-13.38S715.4,255.33,717.19,254.58Z"/><path class="cls-4" d="M709.83,283.7c3.41-4.81,8.47-1.73,9.52,1.07s3.53,3.35,7.48,6.33a10.15,10.15,0,0,1,3.69,10.63c-.72,3.32-2.16,8.7-10.94,6s-4-11.45-8.1-14.32S707.58,286.88,709.83,283.7Z"/><path class="cls-4" d="M703.52,313.51c1.72-3.94,6.7-5.43,9.15-3.35s6.35,8.09,9.23,12.33S724.3,340,720.48,340s-5.09,2.29-11.38-3.54S696.35,330,703.52,313.51Z"/><path class="cls-4" d="M727.78,309s-.76-6.17,6.16-11.22,15.69-4.5,16.51-.25.63,6.08-2.45,10.35-12.42,12.39-16.37,9.5S727.78,309,727.78,309Z"/><path class="cls-5" d="M738.65,258.07c4.65,1.37-1.65,18.28-5.26,43-4.92,33.76-13.12,52.6-13.12,52.6l-4.88-2.62s3.23-25.61,8.92-41.25C731.93,288.87,732.33,256.21,738.65,258.07Z"/><path class="cls-4" d="M738.3,260.16c-2.1-.25-5.81-2.07-6.35-9.5s1.28-12.21,3.94-13.3c3-1.21,8.87-1.2,9,3.92s5.68,8.61,3.65,13.16A10.23,10.23,0,0,1,738.3,260.16Z"/><path class="cls-4" d="M768.78,277c4.24.39,7.89.51,7.71,5.59s-2.66,9.93-1.85,13.91-5.19,4.21-9.69,1.34-5.46-9.18-2.3-13.73S765.63,276.73,768.78,277Z"/><path class="cls-4" d="M774.58,305.81c0-5.18,8.22-5.47,12.08-4.64s8.92,2.82,8.51,7.64-2.06,7.83-6.94,7.39S774.52,315.09,774.58,305.81Z"/><path class="cls-4" d="M742.83,295.77c2.59-5.81,4.6-7.72,8.7-7.83s1.23,6.89,2.33,9.41,5.6,2.28,6.21,5.92-.6,9-3.48,9.81-8,1.35-12.16-5.29C741.87,303.66,741.28,299.26,742.83,295.77Z"/><path class="cls-4" d="M759.27,316.48c2.21-5.09,13.21-4.47,14.81-1s2.13,6.48,6,8.34,3.3,8.15-1.16,9.39-11,2.49-15.86-1.76S756.78,322.18,759.27,316.48Z"/><path class="cls-4" d="M740.61,326.23c1.83-2.78,2.53-5.43,1-8.77s-3.38-4.6-3.51-10.33-3.66-6.66-7.62-5.4-10,6.81-6.75,13.67,3.45,7.13,9.43,10.06S740.61,326.23,740.61,326.23Z"/><path class="cls-4" d="M741.25,333.12c1.26-6,9.93-4.86,14-2.46s2.29,6.55,6.68,10.1,3.14,8.25-1.7,8.5-12.21-1.32-15.42-7.78S740.47,336.9,741.25,333.12Z"/><path class="cls-4" d="M730.86,345.2c1.49-3.05,10.82-3.89,13.42.67s1.08,5.83,4.28,9.36,3.38,5.58.25,9.28-9.39-1.8-15.57-4.49-4.45-4.92-4.14-8.77A13.85,13.85,0,0,1,730.86,345.2Z"/><path class="cls-4" d="M712.25,324.08c1.78-2.68,7.58-2.94,8.57.89s7.89,4.31,8.6,7.7,3,9.84-1.88,12.65-10.21-.52-13-6S708.35,330,712.25,324.08Z"/><path class="cls-5" d="M782,294.27c3.78,5.4-16.68,16.55-28.18,28.41s-20.18,20.76-24.75,30.14l-6.41-4.68s13.42-19.21,26.77-31.53C761.8,305.23,779.1,290.09,782,294.27Z"/><path class="cls-4" d="M780.33,295.74s-2.11-2.7,1.43-10.83,3.68-7.52,9.86-7.57,10.69.87,8.81,7.55S795.5,295.75,790,296.05,782.57,297.09,780.33,295.74Z"/><path class="cls-4" d="M800.93,341.72c-1.88-2.47-.71-6.16-3.87-10.7s-.79-10.58,5.2-11.93,13.5-5.64,15.25-1.59-2.32,7.34-2.34,10.81-3.13,12-8.68,12.7Z"/><path class="cls-4" d="M775.65,325.62c1.68-3.71,4.67-11.36,7.86-10s6.44,2.26,6.14,8.22.26,9.5-1.9,14.32-2.16,7.45-6.34,7.61-9.7.8-10.18-6.45S774.59,328,775.65,325.62Z"/><path class="cls-4" d="M773.94,349.86c4.47-1.91,4.74,1.77,11.44,5.67s3.34,8.64,6.09,12.85,4.18,11.2.14,13.31-8.46-6.28-15-8.21-8.27-7.74-6.55-13.26S769.39,351.81,773.94,349.86Z"/><path class="cls-4" d="M748.56,356.8c3.87-1.95,11.53,2,13.47,6.82s-.94,9.44,1.92,14.25.57,9.23-4.43,10.19-5.68-5.44-9.31-7.68-12.61-6.52-10.32-17.55S748.56,356.8,748.56,356.8Z"/><path class="cls-4" d="M800.55,346.1l-3,11.07c-1.48,5.41.9,9.48,5.73,11s3.26,5,7.6,5.23,9.92-1.62,8.38-7.55-7.51-15.12-12.91-19.61S800.55,346.1,800.55,346.1Z"/><path class="cls-5" d="M817.85,341.81c.29,6.86-31.67,5.29-57,13.07s-31.58,14.66-31.58,14.66-5.24-2.55.46-10.17,33-14.53,48.85-16.7c6.74-.92,14.79-2.06,21.85-2.71C810,339.07,817.73,339.09,817.85,341.81Z"/><path class="cls-4" d="M814.84,342.27s-.79-2.78,4-7.72,6.73-9.05,11.5-6.48,11,5.87,6.6,15.59-3.73,14-9.07,12.38-11.78-3.84-12.5-8A24.64,24.64,0,0,1,814.84,342.27Z"/><path class="cls-6" d="M665.43,416.76c8,4.1,8.38,11,15.86,13.84,5.33,2,10.49-1.92,19.84-1.69,19.11-31,40.45-71,26.41-83.59-20.91-18.74-58.76,23.05-74.52,43.05a208.85,208.85,0,0,0-13.67,19.68C648.92,413.45,657.42,412.67,665.43,416.76Z"/><path class="cls-1" d="M700.8,354s4.85,1.5,6.56,3.94"/><path class="cls-1" d="M696.05,361.33s8.18,3.79,11.65,8.56"/><path class="cls-1" d="M696.68,368.89a14.18,14.18,0,0,1,4.73,2.72"/><path class="cls-1" d="M699.76,388.13a30.61,30.61,0,0,1,7.76,9.05"/><path class="cls-1" d="M674,393.22s6.61,2.81,9.44,6"/><path class="cls-1" d="M689.25,403.7a11.65,11.65,0,0,1,2.74,3.7"/><path class="cls-1" d="M622.38,406s7.39-3.34,17,2.06,18.07,4.62,26.08,8.71,8.38,11,15.86,13.84,14.62-6.08,33.44,1.29"/><path class="cls-4" d="M673.1,278.35s-3.21-.63-7.14-1.68-3-4.68-2.33-7.25-2.45-2.64-2.36-7.67,2.7-8.48,5.55-7.84,4,1.47,4.62,6.42,5.49,8.35,5.67,13.24Z"/><path class="cls-4" d="M686.16,263.83a19,19,0,0,1-6.83-1.7c-4.44-1.88-2.54-5.89-3.89-9.26s.65-8.94,4.2-8.59,8,.39,8.26,4.63,4.62,6.94,3.71,11S686.16,263.83,686.16,263.83Z"/><path class="cls-4" d="M699.38,255.69a10.6,10.6,0,0,1-5.7-5.23c-1.53-3.56,1.22-7,1.23-10s2.27-6.06,6.22-5,7.57,1.34,6.81,5.35a42.47,42.47,0,0,0-.3,11.29C707.92,254.28,703.1,257.45,699.38,255.69Z"/><path class="cls-4" d="M693.64,267.14s6.21-.75,8.67,3.1,2.66,6.14,5.7,6.91,5.21,5.24,2.67,7.82-8.25,4.24-11.93.27-5.91-4-7.89-7.29S688.22,269,693.64,267.14Z"/><path class="cls-4" d="M679.42,281.39s6.76-.59,10.22,2,4.46,6,6.34,8.11,1.3,6.17-3.37,6.2-5.62-1.26-9.47-2.09-6.08-5.05-7.81-7.31S679.42,281.39,679.42,281.39Z"/><path class="cls-4" d="M671.09,294.9s6.91-.36,10.29,3.48,6.77,3.88,6.42,7.94-1.23,5.75-6.78,3.89-8.58.07-11.44-.53S664.37,298.06,671.09,294.9Z"/><path class="cls-4" d="M665.07,293c0-5.52,1.27-9.55-3.35-11.28s-4.77-10.48-8.31-9.87-6.83,2.43-6.38,6.31-1.52,5.24,2.68,12.14,10.65,9.29,14.42,8.43S665.07,293,665.07,293Z"/><path class="cls-4" d="M702.51,260.83a26.71,26.71,0,0,1,4,7.06c1,3.35,6.51,6.87,12.67,3.4s4-10.69-.26-11.77-7.88-3.72-10.52-4.15S702.51,260.83,702.51,260.83Z"/><path class="cls-5" d="M662.06,296.9s4.71-13.42,19.54-28,29.38-22.53,32.93-18.71-22.86,13.94-33.77,29.34-14.58,25.85-14.58,25.85Z"/><path class="cls-4" d="M636.26,221.54c-3.12-5.86,4-8,7.13-5,2,1.89,5,6.25,9.79,8.14s4,11.4,1.94,12.19-4-1.66-5.94-1.49-7.69,2.42-10.66-2.13S638.91,226.52,636.26,221.54Z"/><path class="cls-4" d="M633.08,241.46c2.62-2.24,6.08-1.76,7.28,1.58s5.62,0,8,1.45,7.4,3.57,7.06,6.7-6.32,9.63-10,10.72-7.47-1.58-8.53-6.18-2.34-5.32-3.61-6.54S630.39,243.77,633.08,241.46Z"/><path class="cls-4" d="M631.16,272.39c-.89-3.65-.16-6.91,3.2-7.36s8,2.61,13.69,3.34,8.8,8.27,6.79,13.55-3,9.68-7.53,9-6.14-3.11-9.72-3.15-9.53-1.73-7.9-8.31C630.44,276.46,631.65,274.43,631.16,272.39Z"/><path class="cls-4" d="M658.66,227.62a51.07,51.07,0,0,0,3.72-4.35c2.48-3.14,7-6.65,10.67-3.86s5,7.14,1.62,10.51-2.6,6.46-6.78,8.15-9.13-.33-9.13-.33Z"/><path class="cls-4" d="M658.49,250.38s1.92-4.29,5.46-5.51,6.46-5,8.94-4.25,4.94,1.51,5.05,6.37-.58,8.73-5.64,11.7-11.53,7.34-14.15,4.48S658.49,250.38,658.49,250.38Z"/><path class="cls-5" d="M656.45,218.77c5.27-1-.46,55.21,2.26,77.72l-4.81.76s-3.19-21.95-.91-40.84S651.56,219.71,656.45,218.77Z"/><path class="cls-4" d="M647.12,204.06c-.08-3.47,6.89-6.54,10.06-4.15s7.57,9.16,7.3,11.79-5.19,6.92-6.74,8.46-10-3-10.43-6.59S647.18,206.85,647.12,204.06Z"/><path class="cls-4" d="M703.58,297.88a27.31,27.31,0,0,1,.15,6.69c-.38,3.45,2.11,4.93,6,9.14s.93,6.59,7.81,7.35,7.82-5.72,6.52-8.83-3.68-6.44-6.09-11.15a11.83,11.83,0,0,0-7.5-5.75Z"/><path class="cls-4" d="M691.9,304.26a6.91,6.91,0,0,0,4.55,4.37c3.56,1,6.27,4.78,5.09,10.64s3.22,10.91-1.65,12.63-8.61-.57-12.32-8.17-7.35-5.16-8.22-14S691.9,304.26,691.9,304.26Z"/><path class="cls-4" d="M722,289.36a19.2,19.2,0,0,1,.18,8.11c-.81,4.92,4.55,4,8.48,8.15s6.3,3.28,10.67,1.29-2.37-6.67-2.73-10.25-2.82-7.88-7.89-8.13A28.62,28.62,0,0,0,722,289.36Z"/><path class="cls-4" d="M700.05,295.56c-.2-1,1.72-8.51.62-15s3.22-11.57,9.57-11.07,8.42,7.57,6.36,10.71.26,9.46-2.08,10.79S700.05,295.56,700.05,295.56Z"/><path class="cls-4" d="M725,286.16c-.42-2,2.27-7.77-.28-12.74s-1-7.52,2.2-9.74,7-5.59,9.22-1.81-.19,11.26-1.1,14,1.25,7.82-4.39,9Z"/><path class="cls-5" d="M736.5,283.73c1.9,4.57-21.85,8.7-33,15.91s-22,9.74-29.62,13.71l-1.36-4.9s9.3-7.59,24.76-13.88S734.51,278.93,736.5,283.73Z"/><path class="cls-4" d="M736.73,289.58c-3-2.28-2.62-4.64-.22-9.87s4.9-9.83,10-6.94,6.3,6.83,3.13,11.45S742.84,294.22,736.73,289.58Z"/><path class="cls-6" d="M658.71,296.49c-19.85.72-44.82,40.35-54.12,57.49a209.36,209.36,0,0,0-15.47,36.47,12.63,12.63,0,0,1,6,.55c8.46,3,8.17,9,19.44,6.84s13.5-2.35,24.43,2.25a17.13,17.13,0,0,0,10.35.62,272.07,272.07,0,0,0,16.74-32.24C679.58,337.56,683.14,295.61,658.71,296.49Z"/><path class="cls-3" d="M613.48,351.29s10,2.79,14,8.28"/><path class="cls-3" d="M643.77,334.43a29.74,29.74,0,0,1,15.9,14.12"/><path class="cls-3" d="M649.07,311.77a12.07,12.07,0,0,1,5.21,2"/><path class="cls-3" d="M642.94,341.69s4.08,2.44,5.45,5.2"/><path class="cls-3" d="M625.79,378.28s9.9,5.89,12.16,13"/><path class="cls-3" d="M630.71,364.25s2.12,1.31,2.5,2.7"/><path class="cls-2" d="M460.4,56.61c51.06-3.85,129,149.66,135.43,336l-233.46,8.9S392.3,61.75,460.4,56.61Z"/><path class="cls-3" d="M460.4,56.61c51.06-3.85,129,149.66,135.43,336l-233.46,8.9S392.3,61.75,460.4,56.61Z"/><path class="cls-3" d="M441.47,159.43C436,173.23,437.06,199.73,431,213"/><path class="cls-3" d="M445.89,193.65s-.55,19.33-7.18,29.26"/><path class="cls-3" d="M487.23,205.8s-.49,33.12,6.14,43.06"/><path class="cls-3" d="M497.23,222.91s.55,9.94,4.42,18.22"/><path class="cls-5" d="M581.31,171C601.53,171.91,611,296.22,616,382c0,0,5.57,45.64-34.32,48.73s-42.34-54.08-42.34-54.08S548.57,169.55,581.31,171Z"/><path class="cls-3" d="M576.53,283.22s14.65,1.32,20.9-3.75"/><path class="cls-3" d="M562.91,270.54s1.78,1.22,7.17,1"/><path class="cls-3" d="M552.36,299.69A46.81,46.81,0,0,0,579,302.06"/><path class="cls-3" d="M593.16,325.14a16.81,16.81,0,0,0,11-2.27"/><path class="cls-7" d="M577.55,190.5c14.75-2.79,26.79,14.14,26.46,36.92s-8.23,29.49-13,41.26-16.43,17.06-23,4.35-21.24-25-17.59-50.11S569.6,192,577.55,190.5Z"/><path class="cls-1" d="M644.86,31.5c6.4,0,5,11.59,5.3,17.76s4.45,4.35,8.09.63,4.4-6.73,7.41-4.17-4.52,12.42-1.27,16.39S671.5,60,672.56,67s-16.31,38.14-16.31,38.14-28.92-7-29.49-17.93,13.47.79,14.92-4.17S627.11,76.86,628,69.46,638,65.67,639.12,61s-14-2.15-11.54-9.7,11.62,1.69,13-2.21S637.92,31.49,644.86,31.5Z"/><path class="cls-1" d="M645.92,52.4s8.91,33.25,10.33,52.75"/><path class="cls-1" d="M655.55,104.27s-7.65-30.5-.91-34.78,4.83,13.45,11.18,10.74.15-26.15,6.62-27,1.24,14.49,6.59,16.38,14.74-26.33,22.57-20.46S690.47,68,693.81,73.61s16.83-3.33,17.83,4.52-28.61,7.4-27.26,14.2S696.9,91,696.7,98.7,677.23,108.61,655.55,104.27Z"/><path class="cls-1" d="M655.55,104.27c18.86-7.62,29.55-28.19,29.55-28.19"/><path class="cls-1" d="M719.86,138.28c-2.61,4.62-14.39-3-19.8-5.81s3.22,10.15-1.78,13.1-14.76-17-18.49-17,2.94,9.42-1.92,12.45-19.82-25.93-22.13-37c0,0,39.11-14.39,42.5-5.4s-13.76,4.93-12.69,10.24,26.73-9,30.67.26-16.71,6.66-15.56,11.1S724.63,129.84,719.86,138.28Z"/><path class="cls-1" d="M691.47,121.68s-21.33-9-35.73-17.63"/><path class="cls-1" d="M640.33,167.84c-4.92-1.1-1.56-10.26-.51-15.94s-8.78.86-10.8-3.69,12.51-11.17,11.2-15-10.56,7.3-11.8,1.68,24.55-17.2,27.39-30.84c0,0,13,14.43,17.06,26.83,3.39,10.4-3.88,11-5.8,7.13-1.56-3.18-6.29-3.59-5,1.7s4.09,16.35-.16,17.31-5.18-10.12-9.88-7.43S650.52,170.11,640.33,167.84Z"/><path class="cls-1" d="M651.24,144.64a56.78,56.78,0,0,0,4.57-40.59"/><path class="cls-1" d="M589.9,105.4c-.2-5.05,9.52-4.13,15.28-4.56s-3.07-8.28.81-11.39,14,9.25,17.36,7-9.75-8.35-4.63-11,22.89,19.36,36.8,18.63c0,0-10.64,16.25-21.59,23.33-9.19,5.94-11.67-.93-8.37-3.79,2.67-2.31,1.86-7-2.91-4.36s-14.77,8.12-16.78,4.25,8.47-7.59,4.66-11.45S590.3,115.83,589.9,105.4Z"/><path class="cls-1" d="M615.11,110a56.77,56.77,0,0,0,40.41-5.93"/><path class="cls-1" d="M579.33,73.22s16.83,14.12,22.53,24.49,11.1,6.65,10.1,1.85-6.84-11-2.37-12.78,6.58,17.24,14.49,11.55-7.79-11.63-3.52-15.82,21.37,8.73,25.76-2.15-24.9-6.45-24.75-11,14.82-5.75,12.53-11.83-18.52,5.26-23.85,2.88,10.92-8.8,6.19-13.89S594.64,48.41,579.33,73.22Z"/><path class="cls-1" d="M621,73.39s-24.7-9.68-41.62-.17"/><path class="cls-1" d="M540.93,129.56c-6.67-5,8.52-10.69,7-15.48s-9,3.86-11.76-2.36,15.28-10.49,14.54-15.6-7.55-1.38-7.92-6.37,23.9-16.78,37.2-17.37c0,0,6.42,14.82,6.93,24.35s0,16.72-5,18.67-4.32-6.12-9.19-5.05.08,15.85-6.55,17.18c-6.3,1.26-4.13-7.25-8.15-7.79S544.54,132.27,540.93,129.56Z"/><path class="cls-1" d="M579.94,72.38c-2.68,14.54-24.11,35.17-24.11,35.17"/><path class="cls-1" d="M580.19,72.31S574.4,60.75,567,53.13s-9.58-8.15-12-5.72,2,6.37-.17,9.06-10.41-7.47-14-13.41-8.48-12.19-12.35-10.19,3.63,8.18.49,11.53-7.39-.92-13.49-5.21-10.56-3.18-11.85-.52C499.21,47.73,524.5,53.1,521.38,59c-1.58,3-5.24,5.46-1.76,9.33s12.68-1.9,19,.74-5.8,6.33-3.08,10.8S559.43,86.42,580.19,72.31Z"/><path class="cls-1" d="M529.32,53.15c.34.55,21.6,15.73,50.87,19.16"/><path class="cls-1" d="M609.43,123.33c-3.81,2.36-7.36-5.54-10.22-9.81s-5.05,6-9.15,4.36,1-14.86-2.19-16.48-2.18,11.19-6.46,8.39,4.92-26.17-1.74-36.59c0,0,17.23,1.09,27.5,6.46,8.61,4.49,4.39,9.42.74,8.12-3-1-6.22,1.63-2.1,4.17s12.74,7.85,10.63,11.1-9.57-3.22-10.88,1.41S617.32,118.45,609.43,123.33Z"/><path class="cls-1" d="M602,101.82A50.38,50.38,0,0,0,579.67,73.2"/><path class="cls-1" d="M580.79,0c5.31.16,4.09,14.12,4.08,20.23s7.49-7.58,12.43-4.53-8.21,21-6.43,24.28,7-7,11.92-4.1-13.73,29.61-22.44,36.81c0,0-30.94-27.92-24.56-35.11s10.77,9.89,15,6.48S550.38,24.57,556.7,16.78s13.68,11.69,17.07,8.61S571.1-.29,580.79,0Z"/><path class="cls-1" d="M579.32,32.86s1.94,23.08,1,39.83"/><path class="cls-1" d="M553.26,126.35c5.73-5.44-9.89-11.34-9.7-16.41s9.81-2.77,10.83-8.37S536,99.08,534.68,94.33s8.48-2,8.65-6.73-20.75-15.23-39.54-.51c0,0,11.62,17.87,19.57,24.4s10.29,6.29,15.46,7.75S548.45,130.91,553.26,126.35Z"/><path class="cls-1" d="M537.74,108.59a49.82,49.82,0,0,0-33.95-21.5"/><path class="cls-5" d="M580.35,70.71c9-.2,5.87,90.92,15.35,107.45l-25.07.28s8.55-32.74,8.55-57.84C579.17,92.91,574.9,70.83,580.35,70.71Z"/><path class="cls-5" d="M656.65,104.7c3.41,6.55-48.5,41-53.08,76.28l-17.26-2.71C598.53,141.54,651.86,95.49,656.65,104.7Z"/><path class="cls-1" d="M466.34,19.85c8.34-4.27,6.6,13.84,12.21,14.61s.51-11,8.16-10.7,3.08,20.57,8.61,22.33,5.09-6.94,10.32-4.87,5.2,32.36-.74,46.08c0,0-18.1-.8-28-5s-16.86-8.25-16.4-14.19,8.3-1.36,9.61-6.8-16-7.7-14.13-15.05c1.82-7,9.35-.6,11.86-4.4S461.83,22.16,466.34,19.85Z"/><path class="cls-1" d="M507.33,89.73C494,79.88,483.66,48.12,483.66,48.12"/><path class="cls-1" d="M555.08,45.4c3.29,3.83-4.9,9.14-9.15,13.06s7.54,4.58,6.43,9.43-16.71,1.43-18,5.28,12.82.5,10.44,5.74-30-1-40.41,8.23c0,0-1.75-19.34,2.45-31.69,3.52-10.36,9.73-6.51,8.91-2.23-.66,3.48,2.88,6.64,5,1.62s6.54-15.53,10.52-13.75S529.38,52.3,534.75,53,548.29,37.47,555.08,45.4Z"/><path class="cls-1" d="M532.44,57.42a56.78,56.78,0,0,0-28,29.72"/><path class="cls-1" d="M419.11,118c-2.8-4.46,3-9,9.49-10.9,5.44-1.62,8.45-2.33,7.16-5.5s-8.29-4.45-6.26-8.56c3.51-7.14,22.26,4,24.79-2.32,1.91-4.8-6.74-4.94-5.16-10.4s31.08-7.61,56.95,8c0,0-11,16.18-26.12,22.12s-13.72-4.71-18.06-3.51-10.85,18.29-17.72,17.64c-8.7-.82-.39-10-5.2-11.14S423.57,125.14,419.11,118Z"/><path class="cls-1" d="M506.08,88.3c-24.49-4.88-46.9,10.31-46.9,10.31"/><path class="cls-1" d="M504.46,87.15s-61.36,14.13-49.33,31.48c2.6,3.74,11.91.15,11.75,4.75s-23.19,6.48-25.87,13.77,3.95,8.57,6.6,9.16a3.39,3.39,0,0,1,2.09,5.38c-1.49,1.78-12.94,7.63-11.36,14.87s8.78,3.56,13.82-2,9.08-5.46,10.71-1.68-.46,10.88,6,9.77,9-9.38,11.32-23.62,6-12,8.49-8.77,7.79,6.18,9.09-.64S505.19,92.88,504.46,87.15Z"/><path class="cls-1" d="M475.85,129.17s3.45-20,28.61-42"/><path class="cls-1" d="M503.78,87.09s-6.37,11.26-8.56,21.67-1.44,12.5,1.91,13.12,4.2-5.17,7.62-4.91-.41,12.8-3.33,19.12S496,149.92,499.84,152s4.77-7.57,9.29-6.83,3.36,6.65,3.2,14.1,3.24,10.54,6.16,10.14c10-1.39.36-25.38,7-26.07,3.36-.35,7.46,1.32,8.73-3.73s-8.64-9.47-10-16.21,8.49,1.29,10.69-3.46S527.07,96.48,503.78,87.09Z"/><path class="cls-1" d="M516.21,140c.26-.59,1-26.71-12.43-52.93"/><path class="cls-5" d="M504,87.53c1.62-7.64,53.32,35.14,66.79,85l-19.05,2.73s1.4-29.4-23.17-58.58S503.54,89.89,504,87.53Z"/><path class="cls-7" d="M505,239.67c-6.42-5.86.69-16.22.65-26.83-.11-31.3,34.4-56.76,64.27-52.72a13.49,13.49,0,0,1,11.39,10.51c3.51,16.41-6.45,40.28-19.19,52.14C546.86,237,510.5,244.71,505,239.67Z"/><path class="cls-3" d="M551.29,175.59s-23.3,10.06-35.1,40.6"/><path class="cls-3" d="M527.86,223.37c.47-.65,28.23-12.65,39.16-38.05"/><path class="cls-7" d="M584,163.31c8.79-7,22.8-1.75,30.08,7.17s25.17,21.1,28.84,45.29,3.13,25.33.62,28.5-12.62-.43-19.9-3.76-24.31-7.87-34.27-25.39S571.79,173.07,584,163.31Z"/><path class="cls-3" d="M593.81,189.83s8.14,26.64,29,37.77"/><path class="cls-3" d="M609.31,186s15.54,9.86,21.79,36.22"/><path class="cls-7" d="M234.48,330.49l-16.71,8.91-16.16-9.87-7,9.2s14.52,12.23,13.71,40l8.25.24,8.26.24c.81-27.74,16-39.11,16-39.11Z"/><line class="cls-1" x1="217.12" y1="353.59" x2="217.36" y2="341.33"/><path class="cls-4" d="M258.41,307.57a19.32,19.32,0,0,0-18-24.85,18.56,18.56,0,0,0-2.8.15A19.36,19.36,0,0,0,200,281.71a19.94,19.94,0,0,0-2.21-.2A19.32,19.32,0,0,0,178.29,305a19.37,19.37,0,1,0,22.85,29.25,19.38,19.38,0,0,0,32.23.95,19.37,19.37,0,1,0,25-27.63Z"/><path class="cls-5" d="M162.74,359.75c2.94-13,17.16-14.3,23.34-8.64,7.44,6.8,7.65,17.68,26.21,19.82,11.77,1.35,7.63,16.24-14.24,15.93C170.62,386.47,160.43,370,162.74,359.75Z"/><path class="cls-5" d="M271.21,361.92c-2.42-13.07-16.57-15-23-9.57-7.7,6.49-8.34,17.36-27,18.76-11.81.88-8.26,15.92,13.6,16.48C262.27,388.3,273.12,372.22,271.21,361.92Z"/><path class="cls-3" d="M206.8,310.06s-4.86-2.13-7.43,1.65a6.31,6.31,0,0,0,0,6.76s-7.84-1.65-6.08,6.74"/><path class="cls-7" d="M128.16,366.17l-17,9-16.41-10-7.05,9.33s14.73,12.43,13.91,40.59l8.38.25,8.37.24c.83-28.16,16.26-39.7,16.26-39.7Z"/><line class="cls-1" x1="110.54" y1="389.61" x2="110.79" y2="377.17"/><path class="cls-4" d="M152.45,342.9a19.61,19.61,0,0,0-18.28-25.22,20.47,20.47,0,0,0-2.84.14,19.66,19.66,0,0,0-38.18-1.17,20.49,20.49,0,0,0-2.24-.2,19.6,19.6,0,0,0-19.78,23.84A19.66,19.66,0,1,0,94.32,370,19.67,19.67,0,0,0,127,371a19.67,19.67,0,1,0,25.42-28.05Z"/><path class="cls-5" d="M55.34,395.87c3-13.16,17.42-14.52,23.7-8.78,7.54,6.9,7.75,18,26.6,20.12,12,1.37,7.74,16.48-14.46,16.17C63.34,423,53,406.24,55.34,395.87Z"/><path class="cls-5" d="M165.44,398.06c-2.45-13.26-16.82-15.19-23.32-9.71-7.82,6.59-8.47,17.63-27.39,19-12,.9-8.39,16.16,13.8,16.74C156.37,424.84,167.38,408.52,165.44,398.06Z"/><path class="cls-3" d="M87.74,359.64s-2.21-4.28,0-6.44,5-.31,6.37,1.54c0,0,1.39-3.33,4.32-2.52a4.2,4.2,0,0,1,3.09,3.65"/><path class="cls-3" d="M110.66,344.37s2.59-3.22,6-2.1,2.52,4.91,2.52,4.91,3.65-2.95,6.59-1,0,6.86,0,6.86"/><path class="cls-2" d="M114.56,391.77c6.8-8.16,23.22-4.19,31.3,4.06S162,397,173.67,402.56s4.55-8.73,14.15-14,7-8.18,14-7.74,4.42,8.18,11.94,12.83,7.74,17.47,14.16,21.23,26.7,34.76,26.7,34.76-78.7,34.12-89,32.77-13.49-2.54-18.55,0-7.48,4-11.66,0-13.64.6-17.38-5.78,5.5-9.9,5.94-17.6,3.3-8.36,10.56-10.12,4.84-12.33-4.4-18.49-2.86-14.3-11-19.8S111.21,395.78,114.56,391.77Z"/><path class="cls-3" d="M114.56,391.77c6.8-8.16,23.22-4.19,31.3,4.06S162,397,173.67,402.56s4.55-8.73,14.15-14,7-8.18,14-7.74,4.42,8.18,11.94,12.83,7.74,17.47,14.16,21.23,26.7,34.76,26.7,34.76-78.7,34.12-89,32.77-13.49-2.54-18.55,0-7.48,4-11.66,0-13.64.6-17.38-5.78,5.5-9.9,5.94-17.6,3.3-8.36,10.56-10.12,4.84-12.33-4.4-18.49-2.86-14.3-11-19.8S111.21,395.78,114.56,391.77Z"/><path class="cls-3" d="M136.56,407.46S176.9,422,198.92,471.14"/><path class="cls-2" d="M157.49,443.51c1.23-9.24,11.63-2,19.72-8.09s4.55-18.7,20.72-21.23,14.66,14.16,44,5.06,52.07,29.82,47,51.56-11.12,24.81-12.64,34.9-1,23.24-11.62,20.21-17.19,2-19.72-13.65-12.2-19.72-18.23-11.63-10.59,16.18-26.26,11.12-28.31,8.6-39.43,7.08-12.64-10.2-8.09-21.78-2.53-15.13,8.09-21.19,14.15-15.34,8.09-20.06S156.48,451.1,157.49,443.51Z"/><path class="cls-3" d="M157.49,443.51c1.23-9.24,11.63-2,19.72-8.09s4.55-18.7,20.72-21.23,14.66,14.16,44,5.06,52.07,29.82,47,51.56-11.12,24.81-12.64,34.9-1,23.24-11.62,20.21-17.19,2-19.72-13.65-12.2-19.72-18.23-11.63-10.59,16.18-26.26,11.12-28.31,8.6-39.43,7.08-12.64-10.2-8.09-21.78-2.53-15.13,8.09-21.19,14.15-15.34,8.09-20.06S156.48,451.1,157.49,443.51Z"/><path class="cls-3" d="M183.27,482.44s18.6-36.57,106.37-26.63"/><path class="cls-2" d="M272.51,491.76s-3.49,21.7,8,26.69,21.95-2.63,26.44,7.91-3,19.15,7.48,24.83,16.18,6.14,19.07,14.14,13.35,10,22.33-3.49,15-22.18,12-33,4.49-13.35,11-11.35,16.46-3.14,12.47-16.78-20-43.08-51.38-36.1S281.49,465.07,272.51,491.76Z"/><path class="cls-3" d="M272.51,491.76s-3.49,21.7,8,26.69,21.95-2.63,26.44,7.91-3,19.15,7.48,24.83,16.18,6.14,19.07,14.14,13.35,10,22.33-3.49,15-22.18,12-33,4.49-13.35,11-11.35,16.46-3.14,12.47-16.78-20-43.08-51.38-36.1S281.49,465.07,272.51,491.76Z"/><path class="cls-3" d="M337.36,540.79s7.93-23.21,0-43.73a269.81,269.81,0,0,1-9.48-29.19"/><path class="cls-2" d="M263.1,273.61c4.58-3.95,13.58-1.67,21.07,8.89s23.49,2.38,37.45,24.85,11.75,66.76-10.46,74.74-57.24,21.22-69.35,8-20.62-23.81-28.45-31.3-3.74-11.73,4.09-16.25,9.19-10.3,16.34-10,11.91,10.08,20.76,2.15-1.36-19.85.69-27.68,7.07-12,4.42-21.3C257.79,279.15,260.24,276.08,263.1,273.61Z"/><path class="cls-3" d="M263.1,273.61c4.58-3.95,13.58-1.67,21.07,8.89s23.49,2.38,37.45,24.85,11.75,66.76-10.46,74.74-57.24,21.22-69.35,8-20.62-23.81-28.45-31.3-3.74-11.73,4.09-16.25,9.19-10.3,16.34-10,11.91,10.08,20.76,2.15-1.36-19.85.69-27.68,7.07-12,4.42-21.3C257.79,279.15,260.24,276.08,263.1,273.61Z"/><path class="cls-3" d="M277.33,301.08c0,21.95,25.14,22.46,25,84.16"/><path class="cls-1" d="M357.9,327.66c4.13-27.26,38-44.27,55.35-36s32.2,4.32,54.52-5,47.19-1.94,58.12,6.89c20.15,16.28,64.17,15.15,68.3,82.07s-34.7,101.85-104.93,84.8S344.83,413.93,357.9,327.66Z"/><path class="cls-4" d="M478.61,308.67c-9.7-1.87-10.49-12.12-3.17-13.7,5.62-1.21,12.78-3.81,20.4-23.62s20.95-32,37.33-33.52c15.63-1.46,23.28,6.81,31.56,7.56a1,1,0,0,1,.89,1.27L563,256.82a1,1,0,0,1-1.76.41c-3.9-4.51-16.29-17-30-11-14.87,6.48-25.28,24.09-22.85,39.62,2.54,16.24,17.8,12.94,15.68,20.87-2,7.53-16.13-1-21.78-1.45C494.14,304.63,491.39,311.14,478.61,308.67Z"/><ellipse class="cls-6" cx="490" cy="331.51" rx="5.41" ry="3.33" transform="translate(-58.49 553.23) rotate(-56.09)"/><path class="cls-3" d="M518.24,336.58s22.08,20.41-7.31,91.87"/><path class="cls-3" d="M457.84,325.92s-24.67,36.3-11.66,89.1"/><ellipse class="cls-6" cx="562.99" cy="338.25" rx="3.36" ry="5.44" transform="translate(-86.42 240.09) rotate(-22.4)"/><path class="cls-6" d="M473.59,419.05c-.24-6.16-1.13-15.37,3.34-36.54s2.82-35.19,10.21-35.19c8.62,0,4.31,35.68.82,43.48s1.64,37.72-6.16,39.57S473.72,422.33,473.59,419.05Z"/><path class="cls-6" d="M471.27,337.51c3.81,2.9-3.1,9.59-5.23,22.81-1.86,11.55-5,20.59-8.2,19.77-3.57-.91-4.21-14.79-1.36-25.65S466.82,334.13,471.27,337.51Z"/><ellipse class="cls-6" cx="457.1" cy="396.03" rx="2.9" ry="5.43"/><path class="cls-6" d="M510.93,363.29c5.75-.88,6.48,15.08,1.25,28-4.25,10.52-9.86,8.4-10.34,1.33a14.73,14.73,0,0,1,1.72-7.69C509.71,373,507.53,363.81,510.93,363.29Z"/><path class="cls-6" d="M543.71,344.38c6.1-2.59,8.21,6.39,11.5,20.07s9.87,40.3,1.43,45.43-5.86-14.33-7.19-25.58S536.43,347.46,543.71,344.38Z"/><path class="cls-6" d="M570.85,354.87c3.74-4.05,12.59,2.15,13.37,25.42s.94,26.51-2.58,25.4-5.94-17.35-7.92-24.78S567.63,358.36,570.85,354.87Z"/><path class="cls-1" d="M296.08,334.23c21.6,1.88,52.92,11.75,79.39,0S454,356.88,457.71,432.3,380.1,472,368.19,474.64s-10.59,13.06-35.06,12.49S309.31,474,291.45,474s-43.65,7.48-60.21-19.18c-22.16-35.69-1.2-86,18-103.21S284.27,333.21,296.08,334.23Z"/><path class="cls-6" d="M402.93,365.37c2.76,2.33,6.8,5.05,9.19,13.26s7.72,9.49,8.52,3.52-3.39-18.12-11.45-23.23C402.19,354.48,398.52,361.67,402.93,365.37Z"/><path class="cls-6" d="M422.24,397.48c3.94-6,14.13,8.11,10.1,39.2C429.84,455.93,418.94,402.47,422.24,397.48Z"/><path class="cls-6" d="M310.73,393.49s-4.32,9.12,0,20.88-4.15,25.43,2.49,30,7.11-14.16,6.87-29.27,4.08-14.33,1.92-17.61S319.45,391,310.73,393.49Z"/><path class="cls-6" d="M291.86,379.44a11.33,11.33,0,0,0-10.75,2.89c-3.74,3.6-8.47,10.35-9.65,22-2,19.91,4.65,21.22,7.25,14.54,3.41-8.77-.6-25.83,11.38-33C296.58,382,294.83,380.23,291.86,379.44Z"/><ellipse class="cls-6" cx="273.37" cy="360.31" rx="6.5" ry="3.92" transform="translate(-156.5 500.88) rotate(-70.92)"/><path class="cls-6" d="M332.22,409a59.21,59.21,0,0,1,4.85,23.9c0,14-3.33,18.22,2,21.38s8.4-14.7,8-23.82S344.32,400.39,332.22,409Z"/><path class="cls-3" d="M385.29,394.56s9.31,5.95,9.31,42.12"/><path class="cls-6" d="M252.94,439.4c6.39.39,5-22.76,5-32.32s12.13-21.53,5.47-25.83c-6.16-4-16.29,9.09-15.59,29.08S246.84,439,252.94,439.4Z"/><path class="cls-5" d="M615.43,482.75c-6.15-10.08-4.47-23.29-4.4-23.85l7.21,1c0,.11-1.38,11.26,3.4,19.11Z"/><path class="cls-4" d="M634.26,366.86c10.08,0,13.07,7.49,14.29,17.23,2,16.3,16.73,14.81,15.41,36.15-.87,14-1.77,16.81-20,31.19s-44.52,13.28-51.19,0-12.27-36.76,0-49.94,18.25-10.71,24.55-22C622.47,370.37,628.27,366.86,634.26,366.86Z"/><path class="cls-3" d="M632.66,398.39s-21.31,15.92-20.35,56.11"/><path class="cls-5" d="M596.58,501.88c-8.52-.66-15.28-6.18-19.54-16a51.43,51.43,0,0,1-3.75-13.86l7.23-.75c0,.22,2.52,22.23,16.63,23.33Z"/><path class="cls-8" d="M631.45,502.68c-6.05,6-14.64,7.58-24.84,4.44a51.79,51.79,0,0,1-13-6.17l4.14-6c.18.13,18.52,12.56,28.53,2.57Z"/><path class="cls-5" d="M560.15,512.4a98.8,98.8,0,0,1-36.46-7.24l2.93-6.66c.58.25,41,17.45,71-5.23C629.75,468.9,650,464.13,674,464.13v7.28c-22.49,0-41.48,4.53-72,27.66C588.5,509.3,573.43,512.4,560.15,512.4Zm-35-10.57,1.46-3.33h0Z"/><path class="cls-4" d="M427.7,414.35C438.58,402.59,457,414,468,415.56s27.19-6.84,43.71-3.3c23.56,5,27.15,27.55,28.72,35.42s-24.88,39.48-48.81,31.08-18.91-17-41.28-17C426,461.8,413.09,430.15,427.7,414.35Z"/><path class="cls-3" d="M456.94,433.19c.68-.31,41.65-3.26,70.45,34.58"/><path class="cls-5" d="M462.38,496.65c-21,0-32.67-9.22-33.26-9.7l4.57-5.67a38.31,38.31,0,0,0,11.12,5.41c6.63,2.14,17.52,4.1,31.77,1.21L478,495A78.63,78.63,0,0,1,462.38,496.65Z"/><path class="cls-5" d="M468.68,492.8c-10.87,18-24.81,23.16-25.53,23.42l-2.48-6.84a38.26,38.26,0,0,0,10.39-6.71c5.26-4.56,12.58-12.86,17.48-26.55l6.85,2.46A78.17,78.17,0,0,1,468.68,492.8Z"/><path class="cls-4" d="M695.44,449.15c18.88-15.39,52.52-17.56,66.54-2.42s4,28.61,34.7,41.62c0,0,2.22,19.36-21.59,19.14s-14.21-5.56-43.75-5.66S684.45,494,695.44,449.15Z"/><path class="cls-3" d="M759.11,483.28c-.91-1.71-31.63-29.27-67.29-25.27"/><circle class="cls-7" cx="682.26" cy="444.5" r="43.01"/><circle class="cls-7" cx="398.87" cy="478.76" r="43.01"/><circle class="cls-7" cx="554.74" cy="438.98" r="43.01"/><circle class="cls-7" cx="505.62" cy="491.46" r="43.01"/><ellipse class="cls-6" cx="374.29" cy="463.36" rx="7.96" ry="5.8" transform="translate(-169.46 706.52) rotate(-75.16)"/><ellipse class="cls-1" cx="373.82" cy="462.59" rx="2.17" ry="1.62" transform="translate(-169.07 705.5) rotate(-75.16)"/><path class="cls-4" d="M403.05,507.49c12.41-8.07,37-9.45,46.18,0s13.21,26.17-5.51,42.88-52.13,21.3-61.13,14.93-7.35-14.16,0-20.93C395.58,532.39,388,517.32,403.05,507.49Z"/><path class="cls-3" d="M449.23,507.49c-11.13,12-32.54,10.42-46.4,40.93"/><ellipse class="cls-6" cx="552.71" cy="414.31" rx="9.27" ry="7.39"/><circle class="cls-6" cx="501.98" cy="521.77" r="7.39"/><circle class="cls-1" cx="501.98" cy="521.77" r="3.12"/><circle class="cls-1" cx="552.5" cy="413.33" r="2.24"/><path class="cls-4" d="M598.85,524.77s14.2,23.5,45.12,16.63c20.07-4.46,22.84,3.49,38.29,3.4,17.24-.11,22.66-13.43,17.19-21.64-5.05-7.58-12.48-4-19.72-22.23-6.79-17.12-38.89-18.58-51.12-9.47S598.85,524.77,598.85,524.77Z"/><path class="cls-3" d="M677.54,527.86s-16.75-30.61-52.75-27.69"/><ellipse class="cls-6" cx="707.45" cy="458.88" rx="7.53" ry="5.65" transform="translate(-104.96 684.79) rotate(-48.51)"/><ellipse class="cls-1" cx="707.92" cy="459.43" rx="2.25" ry="1.59" transform="translate(-105.22 685.33) rotate(-48.51)"/><path class="cls-6" d="M285.94,344.45s-15,10.93-13.4,42.47l28.93,14.3L353.73,427s16.58-24.87,22.11-41.29C382.3,366.56,285.94,344.45,285.94,344.45Z"/><path class="cls-5" d="M327.8,295.29s-37.69,16.06-41.86,49.16l91.45,41.82s4.16-14,18.6-20.45c13.86-6.15,20.42-27.67,16.18-42.28S327.8,295.29,327.8,295.29Z"/><path class="cls-5" d="M348.61,211.05A40.06,40.06,0,0,0,336.29,231c-3.12,12.57,21.6,0,21.6,0Z"/><path class="cls-9" d="M332.51,234.88c1.42-6.22,12.05-6.06,16.15-3s4.09,9.82,0,9.9S331,241.71,332.51,234.88Z"/><path class="cls-10" d="M335,239.36s-15.12,35.25-10.4,60.57c4.1,21.92,19.58,17.3,21,9.83s-9.69-15.58-9.69-36.56,9.73-32.62,9.73-32.62Z"/><path class="cls-10" d="M362.93,213.14c10.72.7,9.58-18.78,18.15-24.64a127.48,127.48,0,0,0-7.52-10.74H362.3a176,176,0,0,0-8.57,19C354.48,203.51,356.65,212.73,362.93,213.14Z"/><path class="cls-5" d="M381.08,188.5c-8.57,5.86-7.43,25.34-18.15,24.64-6.28-.41-8.45-9.63-9.2-16.35-9,22.79-20.7,54.84-17.71,104l76.22,20S415.21,242.87,381.08,188.5Z"/><path class="cls-5" d="M381.57,213.16c6.12-.83,9.32,9.52,9.05,20.7s-14.33,1.85-14.33,1.85S373.89,214.19,381.57,213.16Z"/><path class="cls-9" d="M374.45,236.61c2.85-4.23,14.84-5,18-.81a8.11,8.11,0,0,1-.53,10c-2.42,2.48-12.81,3.63-16.76-.12A7.08,7.08,0,0,1,374.45,236.61Z"/><path class="cls-10" d="M377.29,247.07s-4.16,36.57-11.18,50.22c-4.32,8.39-14.55,14.59-9,22.78,4.75,7,20.82,4.66,27.45-10.09,7.41-16.52,6-49,4.14-62.91Z"/><path class="cls-6" d="M346.23,247.07s10.09,4.42,23.89,1.07c0,0,1.57,34-14.62,32.67C342.06,279.72,346.23,247.07,346.23,247.07Z"/><path class="cls-3" d="M301.47,401.22s-2.65-31.61,13.54-43.63c5.55-26.77,25.15-33.73,25.15-33.73"/><path class="cls-9" d="M261.63,388.14c2.45-7.35,31.8,4.84,37.35,9.71s-3,10.37-18.67,4.75S260.33,392,261.63,388.14Z"/><rect class="cls-1" x="353.17" y="243.38" width="5.14" height="123.15" transform="translate(-30.15 570.74) rotate(-75.16)"/><path class="cls-4" d="M420.18,313a3.88,3.88,0,0,1,5.43,1.91l12.38,34-7.32,4.93s-13.88-9.17-25.14-27.37a4.56,4.56,0,0,1,1.71-6.37Z"/><circle class="cls-6" cx="416.79" cy="325.35" r="1.92"/><path class="cls-10" d="M365.3,127.09c13.24-1.92,16,9.89,18.91,17.75s9.18,12.06,17.41,17.4c7,4.53,5.66,14.44-7.63,18.54-9.22,2.85-36.1,6.59-44.61-1.51-8.23-7.83-4.51-17.78-.73-26.48S354.41,128.67,365.3,127.09Z"/><ellipse cx="361.15" cy="157.29" rx="1.14" ry="2.77"/><ellipse cx="368.29" cy="157.29" rx="1.14" ry="2.77"/><path class="cls-9" d="M291.43,401.22c2.9-8.21,27.42,3.11,33.68,5.92S353,420.77,353.73,427s-15.28,6.93-30.27,0S288.4,409.76,291.43,401.22Z"/></svg>