<svg id="圖層_1" data-name="圖層 1" xmlns="http://www.w3.org/2000/svg" viewBox="0 0 91.38 88.94"><defs><style>.cls-1{fill:#fff;}</style></defs><title>0</title><path class="cls-1" d="M90.82,35a55.11,55.11,0,0,1-1.65-15,42.94,42.94,0,0,0-1-11c-.75-2.75-2.1-4.48-4-5.15a4.46,4.46,0,0,0-.82-.2C81.12,1.29,78.79.09,76.37,0h-.3a8.28,8.28,0,0,0-5,1.73h-.31A20.14,20.14,0,0,0,67.84,2C54.6,4,54.6,18.8,54.6,31.89v1.5a9.11,9.11,0,0,0-5.23-2h-.28a8.24,8.24,0,0,0-5,1.73h-.32a19.9,19.9,0,0,0-2.93.23,13.76,13.76,0,0,0-6.28,2.52,38.23,38.23,0,0,0-1-9.74c-.75-2.75-2.1-4.48-4-5.15a5.3,5.3,0,0,0-.83-.21,10.11,10.11,0,0,0-6.92-3.55H21.5a8.37,8.37,0,0,0-5,1.72h-.31a20,20,0,0,0-2.94.23C0,21.14,0,36,0,49.07v1.18C0,56.58,0,62.56,1.57,67c1.76,4.94,5.31,7.47,10.89,7.76h.15l.86,0a15.81,15.81,0,0,0,6.09-1.26,9.19,9.19,0,0,0,1.75.17,12.38,12.38,0,0,0,6.38-2,33,33,0,0,0,1.48,9.46c1.76,4.93,5.31,7.46,10.89,7.75h.15l.86,0a15.81,15.81,0,0,0,6.09-1.26,9.19,9.19,0,0,0,1.75.17c3.27,0,6.86-1.72,9.86-4.72,3.69-3.7,6.95-10,5-16.82a45,45,0,0,1-1.52-9.73,14.35,14.35,0,0,0,4.76,1h.15l.86,0a15.81,15.81,0,0,0,6.09-1.26,8.45,8.45,0,0,0,1.75.18c3.27,0,6.86-1.73,9.86-4.73C89.46,48.08,92.72,41.72,90.82,35Zm-6,15.81c-2.76,2.76-6,4.31-8.86,4.31A6.88,6.88,0,0,1,74,54.83a14.24,14.24,0,0,1-6,1.33l-.85,0h0a11.05,11.05,0,0,1-6.42-2,49.31,49.31,0,0,0,1.67,12.6c1.73,6.17-1.29,12-4.69,15.42-2.76,2.77-6,4.32-8.86,4.32A7.29,7.29,0,0,1,47,86.19a14.24,14.24,0,0,1-6,1.33l-.86,0h0c-5-.22-8.13-2.4-9.71-6.82C29.38,77.54,29.1,73.45,29,69a12.43,12.43,0,0,1-7.73,3.28A7.29,7.29,0,0,1,19.43,72a14.4,14.4,0,0,1-6,1.33l-.85,0h0c-5-.22-8.13-2.4-9.71-6.82C1.41,62.31,1.41,56.44,1.42,50.23V49.07c0-13.13,0-26.71,12-28.54A17.72,17.72,0,0,1,17,20.34a6.92,6.92,0,0,1,4.73-1.74c2.16.08,4.28,1.25,6.28,3.48a3.89,3.89,0,0,1,1.05.2c1.45.51,2.51,1.91,3.12,4.18a41.63,41.63,0,0,1,1,10.66c0,.67,0,1.35,0,2.05a11.65,11.65,0,0,1,7.87-4.46,18.44,18.44,0,0,1,3.53-.19,6.9,6.9,0,0,1,4.51-1.74h.22c2.17.08,4.29,1.25,6.29,3.48l.43.05c0-1.07,0-2.16,0-3.26V31.89c0-13.13,0-26.71,12-28.53a17.78,17.78,0,0,1,3.54-.2,6.86,6.86,0,0,1,4.72-1.74c2.17.08,4.29,1.25,6.29,3.49a3.87,3.87,0,0,1,1.05.19c1.46.51,2.51,1.92,3.12,4.19a41.51,41.51,0,0,1,1,10.65,56,56,0,0,0,1.71,15.4C91.19,41.51,88.17,47.36,84.77,50.77Z"/></svg>