<svg id="圖層_1" data-name="圖層 1" xmlns="http://www.w3.org/2000/svg" viewBox="0 0 98.39 44.84"><defs><style>.cls-1{fill:#fff;}</style></defs><title>0</title><path class="cls-1" d="M34,31.57a5.63,5.63,0,0,1,1.84-1l.1,0a7.08,7.08,0,0,1-1.56-1.48A6.08,6.08,0,0,1,34,31.57Z"/><path class="cls-1" d="M65.67,35.82A7.3,7.3,0,0,1,64.11,32a5.87,5.87,0,0,0-1.62-.92,7.49,7.49,0,0,0,.89-.71,7.08,7.08,0,0,0,2.22-5,7.18,7.18,0,0,0-2.9-6c0-.21,0-.41,0-.62a7.12,7.12,0,0,0-6.62-7.32,7.14,7.14,0,0,0-6.37-4.41h-.19a7.06,7.06,0,0,0-6.42,4,7.13,7.13,0,0,0-6.86,6.92,4.34,4.34,0,0,0,0,.51A7.1,7.1,0,0,0,33,23.43a7.2,7.2,0,0,0,0,2.12,6,6,0,0,1,1.4,2.94,3.68,3.68,0,0,1,.07.58A7.08,7.08,0,0,0,36,30.55l-.1,0a5.63,5.63,0,0,0-1.84,1,7.76,7.76,0,0,1-1.39,2.37c-.15.17-.32.36-.52.56s-.09.28-.13.43a6.74,6.74,0,0,0,1.48,5.51c1.21,1.53,4.12,4.1,10.15,4.18h.21a9.87,9.87,0,0,0,5.1-1.22,9.87,9.87,0,0,0,5.25,1.43h.55c5.68,0,8.55-2.37,9.76-3.78a7,7,0,0,0,1.77-4.59C66,36.24,65.83,36,65.67,35.82Zm-2.28,4.32c-1.06,1.24-3.58,3.28-8.68,3.28H54.2c-2.58-.07-4.35-.86-5.25-1.84a7.25,7.25,0,0,1-5.14,1.63h-.19c-5.44-.08-8-2.32-9-3.65a5.28,5.28,0,0,1-1.21-4.32,4.3,4.3,0,0,1,6.91-2.56,9.71,9.71,0,0,1,1.54,2,6.89,6.89,0,0,0,4.56,3.49,14.41,14.41,0,0,0-3.51-8.54A5.64,5.64,0,0,1,39,30.3a5.71,5.71,0,0,1-4.61-6.62A5.66,5.66,0,0,1,37.8,19.4a6.21,6.21,0,0,1-.11-1.28,5.72,5.72,0,0,1,5.86-5.54l.54,0a5.69,5.69,0,0,1,11,.34,4.4,4.4,0,0,1,.71,0,5.68,5.68,0,0,1,5.32,7.22,5.72,5.72,0,0,1,1.28,9.23,5.65,5.65,0,0,1-3.9,1.55h-.17a5.55,5.55,0,0,1-2.77-.83,14.55,14.55,0,0,0-3.85,8.12,6.88,6.88,0,0,0,4.64-3.3A9.9,9.9,0,0,1,58,33a4.29,4.29,0,0,1,6.8,2.84A5.28,5.28,0,0,1,63.39,40.14ZM41.28,31.68a7.41,7.41,0,0,0,1.2-.34,12.85,12.85,0,0,1,2,4.37A8.29,8.29,0,0,1,43,33.84,12,12,0,0,0,41.28,31.68Zm15.55.47a12.25,12.25,0,0,0-1.63,1.94,9,9,0,0,1-1.43,1.67,12.77,12.77,0,0,1,2.12-3.91A7.89,7.89,0,0,0,56.83,32.15Z"/><path class="cls-1" d="M98.39,31a5.69,5.69,0,0,0-3.67-4.48,7.1,7.1,0,0,0,3.11-5.7,7.19,7.19,0,0,0-2.91-5.95c0-.21,0-.42,0-.63a7.13,7.13,0,0,0-6.63-7.32A7.12,7.12,0,0,0,82,2.51h-.2a7,7,0,0,0-6.41,4.05,7.12,7.12,0,0,0-6.86,6.92,4.17,4.17,0,0,0,0,.5,7.14,7.14,0,0,0-.33,12l-.1,0a5.7,5.7,0,0,0-3.88,4.34A5.54,5.54,0,0,0,64.11,32a6,6,0,0,1,2.06,3.57,4.91,4.91,0,0,1,.07.86C67.7,38,70.59,39.93,75.82,40H76a9.77,9.77,0,0,0,5.1-1.23,9.87,9.87,0,0,0,5.25,1.43h.55c5.68,0,8.55-2.37,9.76-3.78A6.73,6.73,0,0,0,98.39,31Zm-2.78,4.53C94.55,36.77,92,38.8,86.93,38.8h-.51c-2.58-.07-4.35-.86-5.25-1.84A7.25,7.25,0,0,1,76,38.59h-.18c-5.45-.08-8-2.32-9.06-3.65a5.27,5.27,0,0,1-1.21-4.32,4.3,4.3,0,0,1,6.91-2.56A9.71,9.71,0,0,1,74,30a7,7,0,0,0,4.57,3.5A14.29,14.29,0,0,0,75.08,25a5.7,5.7,0,1,1-5-10.19,5.57,5.57,0,0,1-.12-1.27,5.68,5.68,0,0,1,1.79-4A5.61,5.61,0,0,1,75.77,8a5.35,5.35,0,0,1,.55,0,5.68,5.68,0,0,1,5.45-4.09h.17a5.68,5.68,0,0,1,5.37,4.42,4.4,4.4,0,0,1,.71,0,5.72,5.72,0,0,1,5.53,5.88,5.41,5.41,0,0,1-.21,1.35,5.71,5.71,0,0,1-2.62,10.77h-.17a5.58,5.58,0,0,1-2.77-.83,14.55,14.55,0,0,0-3.85,8.12,6.88,6.88,0,0,0,4.64-3.3,9.85,9.85,0,0,1,1.62-1.88A4.29,4.29,0,0,1,97,31.25,5.32,5.32,0,0,1,95.61,35.52ZM73.5,27.06a7.14,7.14,0,0,0,1.2-.34,12.85,12.85,0,0,1,2,4.37,8.29,8.29,0,0,1-1.52-1.87A12,12,0,0,0,73.5,27.06Zm15.55.47a12.72,12.72,0,0,0-1.63,1.94A8.67,8.67,0,0,1,86,31.14a12.77,12.77,0,0,1,2.12-3.91A7.89,7.89,0,0,0,89.05,27.53Z"/><path class="cls-1" d="M66.17,35.61A6,6,0,0,0,64.11,32a7.3,7.3,0,0,0,1.56,3.78c.16.2.35.42.57.65A4.91,4.91,0,0,0,66.17,35.61Z"/><path class="cls-1" d="M34,31.57a6.08,6.08,0,0,0,.38-2.5,7.13,7.13,0,0,1-1.47-3.52A5.58,5.58,0,0,0,30.64,24a6.68,6.68,0,0,0,.89-.72,7.1,7.1,0,0,0,2.23-5,7.18,7.18,0,0,0-2.91-6c0-.21,0-.42,0-.62A7.14,7.14,0,0,0,24.27,4.4,7.13,7.13,0,0,0,17.91,0H17.7a7.16,7.16,0,0,0-6.4,4A7,7,0,0,0,6.66,6a7.14,7.14,0,0,0-2.23,5v.51a7.14,7.14,0,0,0-.33,12l-.1,0A5.69,5.69,0,0,0,.13,27.8a6.73,6.73,0,0,0,1.48,5.52c1.2,1.52,4.12,4.09,10.15,4.18H12a9.76,9.76,0,0,0,5.09-1.23,9.91,9.91,0,0,0,5.26,1.44h.54c5,0,7.8-1.82,9.24-3.22A5.77,5.77,0,0,1,34,31.57ZM31.55,33C30.48,34.26,28,36.3,22.86,36.3h-.51c-2.58-.06-4.35-.85-5.25-1.83-.92.92-2.65,1.62-5.13,1.62h-.19c-5.45-.07-8-2.31-9.06-3.64a5.32,5.32,0,0,1-1.21-4.32,4.29,4.29,0,0,1,6.92-2.56A10.42,10.42,0,0,1,10,27.5,6.85,6.85,0,0,0,14.53,31,14.36,14.36,0,0,0,11,22.46,5.7,5.7,0,1,1,6,12.28,5.59,5.59,0,0,1,5.85,11a5.69,5.69,0,0,1,5.86-5.54,5.29,5.29,0,0,1,.54,0,5.68,5.68,0,0,1,11,.34,4.52,4.52,0,0,1,.72,0,5.71,5.71,0,0,1,5.52,5.87A5.27,5.27,0,0,1,29.27,13a5.73,5.73,0,0,1,3.07,5.23,5.7,5.7,0,0,1-5.69,5.55h-.17A5.71,5.71,0,0,1,23.71,23a14.54,14.54,0,0,0-3.85,8.11,6.85,6.85,0,0,0,4.64-3.3,10.56,10.56,0,0,1,1.62-1.88,4.3,4.3,0,0,1,6.81,2.83A5.36,5.36,0,0,1,31.55,33ZM9.43,24.56a7.17,7.17,0,0,0,1.2-.35,13,13,0,0,1,2,4.37,7.93,7.93,0,0,1-1.51-1.86A11.62,11.62,0,0,0,9.43,24.56ZM25,25A12.57,12.57,0,0,0,23.36,27a9.51,9.51,0,0,1-1.43,1.68A12.77,12.77,0,0,1,24,24.72,6.46,6.46,0,0,0,25,25Z"/><path class="cls-1" d="M34,31.57A5.77,5.77,0,0,0,32.1,34.5c.2-.2.37-.39.52-.56A7.76,7.76,0,0,0,34,31.57Z"/><path class="cls-1" d="M34.32,28.49a6,6,0,0,0-1.4-2.94,7.13,7.13,0,0,0,1.47,3.52A3.68,3.68,0,0,0,34.32,28.49Z"/></svg>