<svg id="圖層_1" data-name="圖層 1" xmlns="http://www.w3.org/2000/svg" viewBox="0 0 107.39 65.52"><defs><style>.cls-1{fill:#fff;}</style></defs><title>0</title><path class="cls-1" d="M102,30.2c-.86-.68-1.82-1.44-2.83-2.37a29.55,29.55,0,0,1-4.35-5c-3.06-4.35-6.67-5.26-9.16-5.26a12.49,12.49,0,0,0-6.15,1.72,22.79,22.79,0,0,0-6.5,2.3c-.24-4.94-2.52-6.74-5.38-9-.86-.68-1.82-1.44-2.83-2.37a30,30,0,0,1-4.35-5C57.38.91,53.77,0,51.28,0a12.52,12.52,0,0,0-6.15,1.72C40.25,2.72,34,5.31,31.46,12a17.06,17.06,0,0,0-1.06,5.17,37.5,37.5,0,0,0-1.79,6.19,10,10,0,0,0-5.36-1.54,12.74,12.74,0,0,0-6.15,1.72c-4.87,1-11.1,3.59-13.67,10.3A16.75,16.75,0,0,0,2.38,39,40.28,40.28,0,0,0,.32,46.52l0,.2A14.21,14.21,0,0,0,1.5,55.93c1.93,3.7,5.56,6.33,10.78,7.82a40.85,40.85,0,0,0,10.89,1.77A16.93,16.93,0,0,0,31,63.84c9.3-3.64,14-10.2,14-19.52,0-.46,0-.89,0-1.31a32.68,32.68,0,0,0,6.25.67A16.89,16.89,0,0,0,59,42a28.56,28.56,0,0,0,4.19-2c-.2.9-.35,1.68-.47,2.29l0,.2a14.14,14.14,0,0,0,1.22,9.21c1.93,3.7,5.56,6.33,10.78,7.82a40.39,40.39,0,0,0,10.89,1.77,16.76,16.76,0,0,0,7.8-1.68c9.31-3.63,14-10.2,14-19.52C107.39,34.46,105,32.58,102,30.2ZM92.78,58.29a15.22,15.22,0,0,1-7.21,1.55,39.09,39.09,0,0,1-10.5-1.71c-4.83-1.38-8.17-3.77-9.92-7.12a12.77,12.77,0,0,1-1.08-8.27l0-.2a42.49,42.49,0,0,1,1.55-6.09,24.09,24.09,0,0,1-7.24,4.26,15.41,15.41,0,0,1-7.22,1.55,35.09,35.09,0,0,1-8-1.06,12.2,12.2,0,0,1,.35,3.12c0,8.7-4.44,14.83-13.19,18.23a15.41,15.41,0,0,1-7.22,1.55,38.75,38.75,0,0,1-10.5-1.72C7.84,61,4.5,58.61,2.75,55.27A12.79,12.79,0,0,1,1.67,47l0-.2a39.26,39.26,0,0,1,2.07-7.46,15.11,15.11,0,0,1,1-5c2.37-6.22,8.31-8.58,12.87-9.47.42-.27,6.59-4.13,11.94,1,0-.28.08-.55.13-.78l0-.2a37.82,37.82,0,0,1,2.07-7.46,15.33,15.33,0,0,1,1-5C35.16,6.31,41.09,4,45.66,3.06c.47-.3,8-5,13.62,3a31.45,31.45,0,0,0,4.55,5.22c1,1,2,1.75,2.92,2.44,2.92,2.3,4.85,3.82,4.85,8.74,0,.61,0,1.2-.07,1.78A20.21,20.21,0,0,1,80,20.65c.47-.31,8-5,13.62,3a31.51,31.51,0,0,0,4.55,5.22c1,1,2,1.75,2.92,2.44,2.93,2.3,4.86,3.83,4.86,8.74C106,48.77,101.54,54.9,92.78,58.29Z"/></svg>