<svg id="圖層_1" data-name="圖層 1" xmlns="http://www.w3.org/2000/svg" viewBox="0 0 95.78 127.1"><defs><style>.cls-1{fill:#fff;}</style></defs><title>0</title><path class="cls-1" d="M19.41,27.19l-.25.12c-.89.43-2,1-1.59,4.4a3.3,3.3,0,0,1,0,1.07,3,3,0,0,1,1.4.67,2.94,2.94,0,0,1,.39.4,14.87,14.87,0,0,0,3.91-7.49.22.22,0,0,1,.05-.08.14.14,0,0,1,.09,0c-.56-.6-1.1-1.18-1.65-1.75A6.69,6.69,0,0,1,19.41,27.19Zm-.23,4.71L19,31.8l0-.25c-.29-2.44.21-2.68.8-2.95l.28-.14a5.87,5.87,0,0,0,1.45-1.17A14.21,14.21,0,0,1,19.18,31.9Z"/><path class="cls-1" d="M48.94,31.63a5,5,0,0,1-2.16-4.21,7.65,7.65,0,0,1-4.08,1.29q-.3,0-.6,0a3.42,3.42,0,0,1-2.52-1.37,3.53,3.53,0,0,0-2.2-1.69c0,.66.11,3.75-1.21,5.12L36,30.57c1.26-1.31,1.17-4.4,1.14-5a10.09,10.09,0,0,1-3.56-.92,6.44,6.44,0,0,1-3.45,1.75c5.81,5.33,12.74,8.16,16.39,8.73a5.27,5.27,0,0,0,4.35-1.31A2.93,2.93,0,0,1,48.94,31.63ZM35.4,28.76c-.84-.56-1.69-1.18-2.52-1.84.3-.18.6-.39.91-.61a12.15,12.15,0,0,0,1.92.52A8.29,8.29,0,0,1,35.4,28.76Zm11.94,5a3.2,3.2,0,0,1-.61,0,28.71,28.71,0,0,1-8.67-3.35,7.94,7.94,0,0,0,.58-2A4.82,4.82,0,0,0,42,30.09a6.28,6.28,0,0,0,.75,0,8.67,8.67,0,0,0,3-.57,5.87,5.87,0,0,0,2,2.95,4.68,4.68,0,0,0,.6,1.15A3.23,3.23,0,0,1,47.34,33.8Z"/><path class="cls-1" d="M56.85,34.08l0,0c-.16.27-.33.53-.51.79l.32-.14c1-.42,2-.85,2.08-1.11v0C58.55,33.31,57.57,33.76,56.85,34.08Z"/><path class="cls-1" d="M55.25,50.19a19.31,19.31,0,0,0-.51,2.62c.27-.33.55-.67.86-1,.54-.58.75-1,.6-1.27S55.72,50.22,55.25,50.19Z"/><path class="cls-1" d="M12.88,18.48l-.73-.17a2.82,2.82,0,0,1,.24,1,2.2,2.2,0,0,0,.77,1.64,4.75,4.75,0,0,0,1.15-2A12.6,12.6,0,0,0,12.88,18.48Z"/><path class="cls-1" d="M38.16,37.85c-.72.86-1.76,2.77-1.86,6.49a24,24,0,0,1,5.48,2.59A10.28,10.28,0,0,1,44.7,49.7C43.39,44.49,41.34,40.74,38.16,37.85Zm-.39,5.49a11.18,11.18,0,0,1,.69-3.19,19.52,19.52,0,0,1,3.24,5.09A28.1,28.1,0,0,0,37.77,43.34Z"/><path class="cls-1" d="M58.94,28.75c-.08.29-.17.57-.25.86a1.58,1.58,0,0,0,.48.16c.25,0,.43,0,.47-.1S59.69,29.39,58.94,28.75Z"/><path class="cls-1" d="M13.73,20.63l.33-.26a10,10,0,0,1,1.31-.93,8.76,8.76,0,0,0-.82-.39A4.84,4.84,0,0,1,13.73,20.63Z"/><path class="cls-1" d="M61.41,38.53l.35-.16,0,0A.74.74,0,0,0,61.41,38.53Z"/><path class="cls-1" d="M81.65,47.72s-.36,0-1,1.29a3.73,3.73,0,0,1-.16.35c-.08.19-.17.38-.26.61a1.85,1.85,0,0,1-.13.29,2.8,2.8,0,0,1,.28.89,5.53,5.53,0,0,0,1.43-3C81.82,47.91,81.74,47.73,81.65,47.72Z"/><path class="cls-1" d="M78.51,54.32c0-.07,0-.14,0-.22l-.21.07Z"/><path class="cls-1" d="M68.47,41.6a10.26,10.26,0,0,1-2.65,2,6.67,6.67,0,0,1,2.19,4,2,2,0,0,1,.43,0,2.74,2.74,0,0,1,1.25-1.67,2.7,2.7,0,0,1,1.88-.33c-.16-3.1-1.06-4.71-1.69-5.47C69.33,40.69,68.85,41.19,68.47,41.6Zm.5,3.1a2.25,2.25,0,0,0-.36.24,7.84,7.84,0,0,0-.61-1,12.53,12.53,0,0,0,1.5-1.35.3.3,0,0,1,.08-.08A9.29,9.29,0,0,1,70,44.26,4,4,0,0,0,69,44.7Z"/><path class="cls-1" d="M71,39c.84,1,2,2.87,2.16,6.42l.09-.07a2.67,2.67,0,0,1,2.08-.3l.12,0a7.75,7.75,0,0,1,3.7-2,15.55,15.55,0,0,1-4.42-.57.1.1,0,0,1-.07-.07.09.09,0,0,1,0-.1,7.28,7.28,0,0,1,4.18-3.54,3.37,3.37,0,0,1,2.84.31,5.08,5.08,0,0,0,1.45.66,2.67,2.67,0,0,1-.09-.69,3.27,3.27,0,0,1,0-.44,2.3,2.3,0,0,1-.26,0,2.83,2.83,0,0,1,0-5.66,2.76,2.76,0,0,1,.77.12,2.85,2.85,0,0,1,1-1.39,7.07,7.07,0,0,0-1.07-4.25A138,138,0,0,0,71,39Zm11.77-7.41a4.24,4.24,0,0,0-4.18,4.25,4.16,4.16,0,0,0,.27,1.5l-.42.1A8.82,8.82,0,0,0,73.74,41a11.15,11.15,0,0,0-.91-1.92c2.85-2.88,6.59-6.5,10.08-9.38a7.9,7.9,0,0,1,.19,1.4A4.82,4.82,0,0,0,82.75,31.58Z"/><path class="cls-1" d="M95.67,46.61c-.33-1.15-1.54-1.9-2.87-2.56a2,2,0,0,0,.52-.9,2.53,2.53,0,0,0,.09-.7,5.06,5.06,0,0,0,0-.68,4.26,4.26,0,0,0-.48-2,4.2,4.2,0,0,0,.94-2.65,4.15,4.15,0,0,0-.82-2.49,4.18,4.18,0,0,0,.82-2.5,4.23,4.23,0,0,0-6.87-3.32,9.24,9.24,0,0,0-.6-1.82,12,12,0,0,1,3.84-2c2.8-.58,3.71-1.87,4-2.86a3,3,0,0,0-.93-3,3.88,3.88,0,0,0-3.9-.79,40.2,40.2,0,0,0-5.68,2.55A5.9,5.9,0,0,0,83,16.08a3.73,3.73,0,0,0-2.6-1.63c-2.4-.46-2.47-1-2.56-1.65l0-.31c-.27-1.67-2.23-4.57-4.26-5a3,3,0,0,0-.59-.07,2.54,2.54,0,0,0-2.13,1.18l0,.08a2.94,2.94,0,0,0-.91-.14l-.46,0c-2,.26-5.1,2.32-8.19,5.51a33.9,33.9,0,0,0-5,6.65,1.17,1.17,0,0,0-.32,0,1.63,1.63,0,0,0-.61.13A1.49,1.49,0,0,0,54.32,22a8.53,8.53,0,0,0-.07,1.93A6,6,0,0,0,52,23.42a4.62,4.62,0,0,0-1.8.35l-.16.07a10.83,10.83,0,0,0,1.19-3.5A6.44,6.44,0,0,1,52,18.08a1.55,1.55,0,0,0-.56-2.54,9.91,9.91,0,0,0-1.86-.43,5.39,5.39,0,0,0,.87-4,6.37,6.37,0,0,0-.94-2.07c-.4-.63-.5-.78-.33-1.33A1.52,1.52,0,0,0,49,6.51a1.69,1.69,0,0,0-1-.75,7.14,7.14,0,0,0-1.59-.17A6.08,6.08,0,0,0,42.3,7.08a4.06,4.06,0,0,0-3.48,3.14,7.68,7.68,0,0,0-.18,1,2.68,2.68,0,0,0-2.11-1.58h-.32a3.9,3.9,0,0,0-1.91.54,17,17,0,0,0-.09-3.75,1.53,1.53,0,0,0-.84-1.13,1.45,1.45,0,0,0-.68-.16,1.72,1.72,0,0,0-.71.17,5.53,5.53,0,0,1-2.38.77A.82.82,0,0,1,29.21,6h0A5.45,5.45,0,0,0,26,2.9c-.7-.29-1.09-.45-1.66-1.92a1.56,1.56,0,0,0-1.18-1l-.26,0a1.54,1.54,0,0,0-1.17.54,6.68,6.68,0,0,0-1.54,4.68,6.24,6.24,0,0,0-2.1-.37,4.92,4.92,0,0,0-2.19.46,1.53,1.53,0,0,0-.8,1.08,4.72,4.72,0,0,0,.61,3.88A1.75,1.75,0,0,1,16,11.38a3.85,3.85,0,0,0,1,2.74,12.32,12.32,0,0,0-2.37-.55c-1-.11-2.19-.34-3.47-.59a34.56,34.56,0,0,0-5.67-.78A4.1,4.1,0,0,0,3,12.87a2.26,2.26,0,0,0-.89,1.67c-.13,1.82,1.19,2.79,2.67,3.37-1.44,2.41-.92,5.63-.27,7.36,0,.05-.09.1-.15.15a5.05,5.05,0,0,0-1.49,3.89,1.56,1.56,0,0,0,.53,1.14,1.52,1.52,0,0,0,1,.38h.25a1.94,1.94,0,0,1,.67.23,4.39,4.39,0,0,0,1.92.52h.14A5.44,5.44,0,0,1,7,32.75c-1.29,2.81.14,4.76,1.32,5.32a1.66,1.66,0,0,0,.69.16h.13a4.29,4.29,0,0,0,.42.79,4.45,4.45,0,0,0,.7,3.76c-.07.11-.14.22-.2.33A9.54,9.54,0,0,0,8.66,43a6.13,6.13,0,0,0-4.23,1.46,4.4,4.4,0,0,0-1.59,3.92,2.23,2.23,0,0,0,.6,1.08c-1.5.66-2.89,1.41-3.29,2.64a2.53,2.53,0,0,0,.17,2.1,3.23,3.23,0,0,0,1.21,1.2c.1,1.8,1,4.28,3.06,5a2.54,2.54,0,0,0,.77.13,3.52,3.52,0,0,0,2.25-1,9.09,9.09,0,0,0-.43,1.49,4.29,4.29,0,0,0,2,4.55,7.07,7.07,0,0,0,5,3.86,1.45,1.45,0,0,0,.3,0,1.51,1.51,0,0,0,.9-.29,1.65,1.65,0,0,0,.63-1c.09-.71.28-.83,1-1.28a6.57,6.57,0,0,0,1.82-1.58,5.77,5.77,0,0,0,.88-4.42,10.32,10.32,0,0,0,2.15.49H22a1.54,1.54,0,0,0,1.44-2.07,6.82,6.82,0,0,1,.29-2.65c.42-1.94.9-4.14-.36-5.93a4.94,4.94,0,0,0-.59-.71,4.37,4.37,0,0,0,.52-.13,1.54,1.54,0,0,0,1-2.07,7.06,7.06,0,0,0-.69-1.24,4.38,4.38,0,0,0,1.84-1.29,4.47,4.47,0,0,0,1-2.34,4.77,4.77,0,0,0,1.14-1,4.5,4.5,0,0,0-3-7.4,4.28,4.28,0,0,0-.87-1l-.1-.08a19.29,19.29,0,0,0,1.62-3.17,25.25,25.25,0,0,0,6.58,5,27.54,27.54,0,0,1,3.09,1.79,14.4,14.4,0,0,0-1.7,6.47,4.58,4.58,0,0,0-.53,0,4.5,4.5,0,0,0-1.2.16,4.4,4.4,0,0,0-2.64,2.1,4.33,4.33,0,0,0-.53,2.56,4.41,4.41,0,0,0-1.4,6,10,10,0,0,0-2.17,5.48,1.56,1.56,0,0,0,.74,1.32,1.6,1.6,0,0,0,.8.22,1.72,1.72,0,0,0,.67-.15,11,11,0,0,1,1.72-.64A3.81,3.81,0,0,0,28.51,64a3.46,3.46,0,0,1,.07,1.76,6.38,6.38,0,0,0,.85,4.53,1.54,1.54,0,0,0,1.31.73,1.83,1.83,0,0,0,.52-.09,9,9,0,0,0,3.38-2.44,6.51,6.51,0,0,0,3,3.61,1.52,1.52,0,0,0,.75.19,1.73,1.73,0,0,0,.77-.2,1.57,1.57,0,0,0,.77-1.33c0-1.57.32-1.86.88-2.38a5.49,5.49,0,0,0,1.93-4.07v-.09s0,.08,0,.08l0,0c.06-.06.46-.36,1.69-.36h.19a132.74,132.74,0,0,1-1.86,16l-.21,1.33c-1.46,9.27-.82,18.34-.26,26.35.49,6.9.91,12.86,0,17.73a1.55,1.55,0,0,0,.33,1.29,1.58,1.58,0,0,0,1.18.54h8.58A1.54,1.54,0,0,0,54,125.41c0-.27-2.6-28,.38-40.66C56,77.76,56,70.69,55.9,64.36l.32.37c.52.57.8.88.68,2.46a1.52,1.52,0,0,0,.65,1.36,1.49,1.49,0,0,0,.89.28,1.79,1.79,0,0,0,.61-.12,6.7,6.7,0,0,0,3.42-3.55,5.73,5.73,0,0,0,3.91,1.77h0a1.53,1.53,0,0,0,1.18-.62,4.78,4.78,0,0,0,1.13-3.76,1.7,1.7,0,0,1,.16-1.16,4.34,4.34,0,0,0,.44-1.61,4.19,4.19,0,0,0,1.57,1.14A4.22,4.22,0,0,0,74,64.46a4.47,4.47,0,0,0,1,.13A4.16,4.16,0,0,0,79,59.51l0,0,.36.26c.61.43.76.53.81,1.13A1.6,1.6,0,0,0,80.83,62a1.73,1.73,0,0,0,1,.33l.19,0a6.71,6.71,0,0,0,4.85-3.42,4.06,4.06,0,0,0,2-4.22,9.24,9.24,0,0,0-.23-1,3,3,0,0,0,1.89.77h0a2.18,2.18,0,0,0,.67-.1c2-.6,2.89-2.86,3.08-4.54a3,3,0,0,0,1.15-1.08A2.49,2.49,0,0,0,95.67,46.61Zm-1.46,1.3a2.3,2.3,0,0,1-1.35.86c.15.93-.41,3.62-2.08,4.14-1.08.32-2.41-1.58-3.57-3.27-.6-.87-1.23-1.78-1.5-1.81,0,0,0,0,0,0-.25.21.38,1.08.85,1.72s1,1.34.89,1.72a.37.37,0,0,1-.17.25c-.26.15-.53,0-.75-.19s-.26-.18-.3-.16l0,0c-.06.12.12.48.31.86a8.8,8.8,0,0,1,1,2.77,2.8,2.8,0,0,1-1.74,3c-.9,2.57-3.89,3-3.92,3h0a.11.11,0,0,1-.08,0,.11.11,0,0,1,0-.09,2.6,2.6,0,0,0-1.4-2.16A4.64,4.64,0,0,1,79,57.4a2.81,2.81,0,0,1-1.07,1.17,3.05,3.05,0,0,1-.68.28,2.75,2.75,0,0,1,.41,2.24,2.67,2.67,0,0,1-1.26,1.69,2.65,2.65,0,0,1-2.07.3,2.74,2.74,0,0,1-2-3.28,3.45,3.45,0,0,1-.55-.07,2.76,2.76,0,0,1-2-2.91,4,4,0,0,0-2.24-.39.83.83,0,0,0-.53.41c-.17.32,0,.6.3,1.06a2.58,2.58,0,0,1,.33,2.88,3,3,0,0,0-.3,1.9,3.39,3.39,0,0,1-.86,2.79.11.11,0,0,1-.09,0h0c-.23,0-2.71-.09-4.23-3.43,0,.08,0,.16-.07.23-.66,2-1.34,4.14-3.52,5.09h-.05a.09.09,0,0,1-.07,0,.11.11,0,0,1-.06-.11c.17-2.17-.42-2.82-1-3.5a4.11,4.11,0,0,1-1.21-3.27,1.4,1.4,0,0,0-.42-1,2.67,2.67,0,0,0-1.21-.7c0,1.46,0,3,0,4.57.09,6.5.19,13.86-1.5,21.05-3.07,13-.44,40.85-.42,41.13a.08.08,0,0,1,0,.09.11.11,0,0,1-.09,0H43.85a.14.14,0,0,1-.1,0,.12.12,0,0,1,0-.1c1-5.06.52-11.1,0-18.1-.56-7.93-1.2-16.92.24-26l.21-1.33c1.26-8,2.68-17,1.42-25.63-1.61-.4-3.36-.65-3.68-.17-.14.22,0,.65.57,1.24,3.95,4.53,3.39,6.83,3.36,6.92a.13.13,0,0,1-.13.1c-2.34-.27-3.43.21-3.92.65a1.41,1.41,0,0,0-.5,1,4.14,4.14,0,0,1-1.48,3.17c-.67.63-1.31,1.22-1.33,3.4a.11.11,0,0,1-.06.11l-.06,0-.06,0c-2.1-1.13-2.6-3.28-3.08-5.36l-.06-.23a9.09,9.09,0,0,1-4.42,4.32.11.11,0,0,1-.14,0A5,5,0,0,1,30,65.88a4.91,4.91,0,0,0-.15-2.42,2.57,2.57,0,0,1,.56-2.84c.34-.44.53-.7.39-1a.81.81,0,0,0-.49-.45c-1.24-.47-3.93.83-3.95.84a.1.1,0,0,1-.12,0,.11.11,0,0,1-.06-.1c0-.12,0-2.54,2.57-5.5a3,3,0,0,1,1.12-5.16l.12,0a3,3,0,0,1,.1-2.69,3,3,0,0,1,4.06-1.16,3.28,3.28,0,0,1,.47.33c-.14-5,1.2-7.64,2.26-8.9a26.6,26.6,0,0,0-4.41-2.72,28.2,28.2,0,0,1-7.81-6.4A17.57,17.57,0,0,1,21.53,34a3,3,0,0,1,1.27.64A3.09,3.09,0,0,1,23.72,36l.21,0a3,3,0,0,1,2.24.73A3.08,3.08,0,0,1,25.05,42a3.07,3.07,0,0,1-2.8,3.42H22a3.26,3.26,0,0,1-.69-.09,3.39,3.39,0,0,1,.23.95A7.17,7.17,0,0,1,23,48.35a.21.21,0,0,1,0,.11.16.16,0,0,1-.08.06,13.74,13.74,0,0,1-2.48.38,3.15,3.15,0,0,1-1,.55,6.64,6.64,0,0,1,2.82,2.08c.9,1.29.51,3.08.13,4.82a7,7,0,0,0-.23,3.43.16.16,0,0,1,0,.12A.13.13,0,0,1,22,60s-4.28-.36-5.39-3.58c-.86-2.48-1.35-2.51-1.41-2.51s-.2.2-.24.48c-.1.77.68,2.58,2.12,4.18s1.76,4.4.61,5.91a5.19,5.19,0,0,1-1.46,1.25A2.84,2.84,0,0,0,14.56,68a.11.11,0,0,1-.05.09l-.07,0h0s-3.24-.62-4.1-3.44a3,3,0,0,1-1.76-3.3,9.81,9.81,0,0,1,1.19-2.95c.24-.43.44-.79.38-.93l0,0a1,1,0,0,0-.35.16c-.24.15-.54.34-.8.17a.37.37,0,0,1-.18-.26c-.06-.42.45-1.07,1-1.82s1.26-1.59,1-1.84l0,0c-.31,0-1,1-1.72,1.91-1.33,1.77-2.84,3.77-4,3.37C3.27,58.45,2.78,55.51,3,54.52a2.61,2.61,0,0,1-1.43-1,1.19,1.19,0,0,1-.07-1c.28-.83,1.89-1.52,3.31-2.12.83-.35,1.77-.75,1.85-1v0c-.15-.26-.59-.36-1.05-.47s-1.25-.28-1.38-.86a3.08,3.08,0,0,1,1.15-2.54c.91-.81,2.59-1.53,5.57-.8a3.07,3.07,0,0,1,.66-1.4,3,3,0,0,1,.66-.57,3.28,3.28,0,0,1-.38-.27,3.1,3.1,0,0,1-.74-3.74,3.06,3.06,0,0,1-.83-3,3.44,3.44,0,0,0-1.22,1,.12.12,0,0,1-.1,0l-.05,0s-1.83-.94-.67-3.46a8.06,8.06,0,0,0,.6-3.82,2.5,2.5,0,0,1-3,.25,2.67,2.67,0,0,0-1.51-.36.1.1,0,0,1-.1,0,.1.1,0,0,1,0-.09,3.64,3.64,0,0,1,1.12-2.91c.44-.48.73-.8.43-1.59-.71-1.88-1.28-5.85,1.59-7.57-2.48-.6-4-1.2-3.91-2.58A.89.89,0,0,1,3.82,14c1-.77,4.1-.18,7.1.39,1.3.24,2.53.48,3.56.6a12.15,12.15,0,0,1,3.13.87,3.41,3.41,0,0,0,1.78-.59.81.81,0,0,0,.31-.6c0-.36-.26-.54-.73-.82a2.58,2.58,0,0,1-1.54-2.46,3.09,3.09,0,0,0-.55-1.84,3.37,3.37,0,0,1-.43-2.88.15.15,0,0,1,.06-.09s2.37-1.22,5.31,1.24l0-.24c-.29-2.11-.58-4.3,1-6.11a.11.11,0,0,1,.11,0,.14.14,0,0,1,.1.08c.79,2,1.59,2.36,2.45,2.71a4.07,4.07,0,0,1,2.5,2.42,1.37,1.37,0,0,0,.82.73c.61.24,1.79.29,3.88-.79a.13.13,0,0,1,.12,0,.11.11,0,0,1,.06.09,18.07,18.07,0,0,1-.66,7.42,3.54,3.54,0,0,1,.75,0A4.82,4.82,0,0,1,34,12.29a3,3,0,0,1,2.43-1.23c1.13.11,1.63,2.38,2.06,4.38a6.11,6.11,0,0,0,.71,2.25h0c.31-.1.06-1.15-.13-1.92s-.39-1.61-.17-1.93a.38.38,0,0,1,.26-.16c.29,0,.47.23.61.46s.17.25.23.26l0,0c.1-.08.07-.48,0-.91a9.11,9.11,0,0,1,.15-2.94,2.79,2.79,0,0,1,2.74-2.1c1.81-2,4.74-1.31,4.77-1.3a.16.16,0,0,1,.08.06.16.16,0,0,1,0,.1,2.59,2.59,0,0,0,.48,2.53A5.12,5.12,0,0,1,49,11.44c.39,1.73-.92,3.94-2.79,4.74s-3.17,2-3.38,2.69c-.07.24-.06.43,0,.48s.46.2,2.13-1.56c2.18-2.28,5.87-.94,5.91-.92A.12.12,0,0,1,51,17a.1.1,0,0,1,0,.11,6.42,6.42,0,0,0-1.11,3c-.35,1.61-.72,3.27-2,4a7.32,7.32,0,0,1-4.44.56,16.06,16.06,0,0,1,3.87,2.22.11.11,0,0,1,0,.09.1.1,0,0,1,0,.1l-.07.06a2.6,2.6,0,0,0,2.08-1,4.86,4.86,0,0,1,1.44-1,4.49,4.49,0,0,1,4.54,1.15c.09-.25.17-.5.26-.77s.16-.44.24-.66a8.36,8.36,0,0,1-.08-2.59.14.14,0,0,1,.08-.09.13.13,0,0,1,.12,0,2.74,2.74,0,0,0,.91.35,31.91,31.91,0,0,1,5.4-7.41C65,12.18,67.89,10.18,69.57,10a1.19,1.19,0,0,1,1.28.46,1.82,1.82,0,0,1,.15.27,16.36,16.36,0,0,0,1-1.31,1.1,1.1,0,0,1,1.23-.53c1.33.29,3,2.65,3.17,3.85,0,.09,0,.18,0,.28.13,1,.29,2.2,3.69,2.85a2.32,2.32,0,0,1,1.7,1,4.58,4.58,0,0,1,.34,4.39,5,5,0,0,0-.38,2.52,38,38,0,0,1,8.15-4.06,2.43,2.43,0,0,1,2.46.49,1.59,1.59,0,0,1,.52,1.6c-.24.86-1.27,1.52-2.91,1.86a16.33,16.33,0,0,0-5.42,2.95,8.06,8.06,0,0,1,1.34,4.52c.11,0,.22,0,.34,0a2.82,2.82,0,0,1,.77.12,2.82,2.82,0,1,1,4,3.44,2.81,2.81,0,0,1,.06,5,2.83,2.83,0,0,1,1,2.14,3.68,3.68,0,0,1-.06.58,1.33,1.33,0,0,1,0,.42.72.72,0,0,1-.3.4,2.79,2.79,0,0,1-1.38,1.22c.31.17.69.36,1,.53,1.29.61,2.76,1.3,3,2.09A1.08,1.08,0,0,1,94.21,47.91Z"/><path class="cls-1" d="M67.81,34.69a2.67,2.67,0,0,1-.16-.69c-.4.07-.69.13-.83.17,0,.41.06.81.06,1.17C67.2,35.13,67.5,34.91,67.81,34.69Z"/><path class="cls-1" d="M68.29,15.76c-.06-.16-.13-.33-.19-.5l-.23.2a6.26,6.26,0,0,1,.57.69Q68.37,16,68.29,15.76Z"/><path class="cls-1" d="M68.52,16.78a4.91,4.91,0,0,0-.84-1.15c-.37.32-.74.66-1.13,1a4.87,4.87,0,0,1,.52.44A2,2,0,0,0,68.52,16.78Z"/><path class="cls-1" d="M63.25,21.13a4,4,0,0,1-.08-1.06,24.38,24.38,0,0,0-2,2.76,3.46,3.46,0,0,1,2.12,1,3.78,3.78,0,0,1,.4.56,2.67,2.67,0,0,1,1-.78l.09,0-.08-.14A4.24,4.24,0,0,1,63.25,21.13Z"/><path class="cls-1" d="M67.07,32.8a2.73,2.73,0,0,0-.27,1.11l.84-.17a2.84,2.84,0,0,1,.12-.81A2.4,2.4,0,0,1,67.07,32.8Z"/><path class="cls-1" d="M79.25,25.56l-.4-.33a7.83,7.83,0,0,0-3.22-1.68A2.79,2.79,0,0,1,76,26.07a2.74,2.74,0,0,1-1.43,1.56,4.75,4.75,0,0,1-.49.17,2.77,2.77,0,0,1,.72,1.36C76.24,27.92,77.71,26.71,79.25,25.56Z"/></svg>