<svg id="圖層_1" data-name="圖層 1" xmlns="http://www.w3.org/2000/svg" viewBox="0 0 95.69 75.27"><defs><style>.cls-1{fill:#fff;}</style></defs><title>0</title><path class="cls-1" d="M95.14,31.61a8,8,0,0,0-5-4.73,8.88,8.88,0,0,0-2.65-.41,8.68,8.68,0,0,0-4,1c-2.66,1.37-4.71,4.15-5.94,8q-.33,1.08-.63,2.22a21,21,0,0,1-2.06-4.81c-1.65-5.45-5-7.63-7.57-8.5a11,11,0,0,0-3.19-.59,12.9,12.9,0,0,1,1.52-3.94c2.32-4.3,2.88-8.68,1.53-12a8,8,0,0,0-5-4.72,8.62,8.62,0,0,0-6.65.56c-2.66,1.38-4.71,4.15-5.94,8-.22.71-.43,1.45-.62,2.22A20.43,20.43,0,0,1,46.85,9.1c-1.64-5.45-5-7.63-7.57-8.5A11.12,11.12,0,0,0,35.64,0a10.43,10.43,0,0,0-6,1.81A12.09,12.09,0,0,0,26,17.65a17.06,17.06,0,0,0,3.92,5h0a14,14,0,0,0-4.76,7.31c-.23.71-.44,1.45-.63,2.21a20.6,20.6,0,0,1-2.06-4.81c-1.65-5.45-5-7.63-7.57-8.5a11.18,11.18,0,0,0-3.65-.6,10.37,10.37,0,0,0-6,1.81A12.08,12.08,0,0,0,1.56,35.89a17.15,17.15,0,0,0,3.91,5c1.6,1.5,2.65,2.49,2.93,6C8.69,50.57,10.71,55,18.67,55a8.09,8.09,0,0,1,6.59,3.08,59.29,59.29,0,0,1,.47,10.2,1.43,1.43,0,0,0,1.37,1.47h.3a1.41,1.41,0,0,0,1-.38,1.45,1.45,0,0,0,.45-1,62.22,62.22,0,0,0-.5-10.71l.11-.29a4,4,0,0,0,.4-1c.52-2,2-2.64,4.44-3.6,1.86-.73,4-1.55,5.35-3.49a5.7,5.7,0,0,0,1.1-4.85c-.2-1.31-.42-2.81,1.47-6.32a13.83,13.83,0,0,0,.68-1.39c.39,0,.79,0,1.21,0a8.12,8.12,0,0,1,6.6,3.08A59.4,59.4,0,0,1,50.15,50a1.42,1.42,0,0,0,1.37,1.46h.3a1.4,1.4,0,0,0,1.41-1.36,62.32,62.32,0,0,0-.49-10.72c0-.08.06-.18.11-.29l.1-.2a14.29,14.29,0,0,0,1,2.5,17.08,17.08,0,0,0,3.91,5c1.6,1.5,2.65,2.49,2.93,6,.3,3.69,2.31,8.09,10.27,8.09a8.12,8.12,0,0,1,6.6,3.09,59.24,59.24,0,0,1,.47,10.2,1.42,1.42,0,0,0,1.36,1.47h.3a1.44,1.44,0,0,0,1-.38,1.41,1.41,0,0,0,.45-1,61.24,61.24,0,0,0-.5-10.71,2.45,2.45,0,0,0,.11-.3,3.94,3.94,0,0,0,.41-1c.51-2,1.94-2.64,4.43-3.6,1.86-.73,4-1.55,5.36-3.49a5.73,5.73,0,0,0,1.09-4.85c-.2-1.32-.42-2.81,1.48-6.32C95.93,39.33,96.49,35,95.14,31.61ZM90.73,50.15A4.35,4.35,0,0,1,89.88,54c-1.13,1.59-3,2.3-4.72,3-2.34.91-4.56,1.77-5.29,4.56a2.34,2.34,0,0,1-.31.75c-.15.44-.25.69-.28.76a59.46,59.46,0,0,1,.53,10.82h-.25A59,59,0,0,0,79,63.06a9.44,9.44,0,0,0-8-4h0c-5.57,0-8.45-2.22-8.82-6.79-.32-4.07-1.66-5.33-3.36-6.93a15.42,15.42,0,0,1-3.63-4.6,11.27,11.27,0,0,1-1.36-6,5.11,5.11,0,0,0-2,3,2.23,2.23,0,0,1-.32.75c-.15.44-.25.7-.28.76a60.41,60.41,0,0,1,.54,10.83h-.25A60,60,0,0,0,51,39.28a9.44,9.44,0,0,0-8-4h0A17,17,0,0,1,41,35.19a18.17,18.17,0,0,1-1,2.22c-2.13,3.93-1.85,5.74-1.63,7.2a4.39,4.39,0,0,1-.85,3.82c-1.14,1.59-3,2.3-4.72,3-2.35.91-4.56,1.77-5.29,4.56a2.34,2.34,0,0,1-.31.75l-.28.76a60.37,60.37,0,0,1,.53,10.82h-.25a59.92,59.92,0,0,0-.53-10.78,9.44,9.44,0,0,0-7.95-4h-.05c-5.56,0-8.44-2.22-8.81-6.79-.32-4.07-1.67-5.33-3.37-6.93a15.65,15.65,0,0,1-3.62-4.59,10.68,10.68,0,0,1,3.23-14,9.5,9.5,0,0,1,8.36-1c2.23.76,5.2,2.7,6.67,7.57a19.33,19.33,0,0,0,4.15,7.76,41.11,41.11,0,0,1,1.25-5.15c1.11-3.5,2.92-6,5.24-7.19a5.24,5.24,0,0,1,.48-.23c-.41-.47-.86-.89-1.34-1.35A15.66,15.66,0,0,1,27.23,17,10.7,10.7,0,0,1,30.46,3a9.51,9.51,0,0,1,8.36-1c2.23.76,5.2,2.7,6.68,7.57a19.47,19.47,0,0,0,4.14,7.76,39.47,39.47,0,0,1,1.26-5.15c1.1-3.5,2.92-6,5.23-7.19a7.24,7.24,0,0,1,5.57-.47,6.57,6.57,0,0,1,4.13,3.9c1.19,3,.65,6.89-1.47,10.81-1.62,3-1.84,4.77-1.76,6.09a9.79,9.79,0,0,1,4.22.46c2.23.76,5.2,2.69,6.67,7.57a19.58,19.58,0,0,0,4.15,7.76,41.11,41.11,0,0,1,1.25-5.15c1.11-3.51,2.92-6,5.24-7.2a7.26,7.26,0,0,1,5.56-.47,6.6,6.6,0,0,1,4.14,3.91C95,35.09,94.48,39,92.36,43S90.51,48.69,90.73,50.15Z"/></svg>