<svg id="圖層_1" data-name="圖層 1" xmlns="http://www.w3.org/2000/svg" viewBox="0 0 125.81 68.75"><defs><style>.cls-1{fill:#fff;}</style></defs><title>0</title><path class="cls-1" d="M53.83,28.8c0-.16.06-.32.11-.49s.15-.49.23-.73a11.26,11.26,0,0,0-1-.73A6.93,6.93,0,0,1,50,22.42c0-.15-.05-.3-.07-.45l-.2.13a11,11,0,0,1-2.41,1A17.06,17.06,0,0,1,48.91,25,9.13,9.13,0,0,0,53.83,28.8Z"/><path class="cls-1" d="M49.23,28.9A14.32,14.32,0,0,1,47,26.38a13.41,13.41,0,0,0-2.71-2.81h0a11.34,11.34,0,0,1-2.88-.38l-.5-.17c-1.16,1.42-3.71,5-3.89,8.9a10.63,10.63,0,0,1,3.63,3.22,9.27,9.27,0,0,1,2.63-1.58,13,13,0,0,1,2.49-.7A15.84,15.84,0,0,1,49.23,28.9Zm-4.38,2.69a13.73,13.73,0,0,0-2.14.65,11.74,11.74,0,0,0-1.86.95,12.24,12.24,0,0,0-2.39-2,15.16,15.16,0,0,1,2.93-6.5,12.73,12.73,0,0,0,2.38.32,12,12,0,0,1,2.06,2.22,19.49,19.49,0,0,0,1.33,1.65A16.72,16.72,0,0,0,44.85,31.59Z"/><path class="cls-1" d="M37.16,21a9.91,9.91,0,0,0-6.59,2.35,18.3,18.3,0,0,1-8.2,3.93,12.34,12.34,0,0,1,3,5.65,10.06,10.06,0,0,1,1.26-.87,10.51,10.51,0,0,1,8-1l.27.09a18.4,18.4,0,0,1,3.93-8.91A11.53,11.53,0,0,1,37.16,21Zm-3.35,8.38a11.72,11.72,0,0,0-7.63,1.32,13.66,13.66,0,0,0-1.35-2.6,19.33,19.33,0,0,0,6.66-3.67,8.46,8.46,0,0,1,5.19-2l.18.14A20,20,0,0,0,33.81,29.37Z"/><path class="cls-1" d="M75.62,51.43q.38.23.78.42a11.71,11.71,0,0,1,4.41-5.8,13.24,13.24,0,0,1-3.92-1.88A16,16,0,0,0,75.62,51.43Zm2-5.16.47.24c-.26.26-.5.54-.74.82C77.42,47,77.5,46.62,77.61,46.27Z"/><path class="cls-1" d="M64.21,41.74a11,11,0,0,1-2.78-.37,10.67,10.67,0,0,1-7.85-10.15A12.91,12.91,0,0,1,50.67,30a13.61,13.61,0,0,0-4,4.72,8.47,8.47,0,0,0,1.9,2.41,5.64,5.64,0,0,1,1.92,4,5.91,5.91,0,0,1,0,.84,10.52,10.52,0,0,1,3.41-.57H54a10.59,10.59,0,0,1,8.18,3.92,12.52,12.52,0,0,0,5.53-2.43c-.19-.51-.4-1-.62-1.51A10.11,10.11,0,0,1,64.21,41.74ZM54,39.93h-.05a11.83,11.83,0,0,0-2,.18,7.08,7.08,0,0,0-2.28-4,8.24,8.24,0,0,1-1.24-1.41,12.34,12.34,0,0,1,2.5-3,13.92,13.92,0,0,0,1.38.59,12.16,12.16,0,0,0,4.07,7.91A11.3,11.3,0,0,0,54,39.93Zm8.69,3.77a10.07,10.07,0,0,0-.82-.78,12.71,12.71,0,0,0,2.38.23h.15A11.81,11.81,0,0,1,62.65,43.7Z"/><path class="cls-1" d="M124.79,29a13.88,13.88,0,0,0-18.14-7.71A14,14,0,0,0,99,39.45a12,12,0,0,0,.71,1.49,23.38,23.38,0,0,0-4.1,4.54,13,13,0,0,0-4.26-2.3,20.14,20.14,0,0,0,2.9-7,7.16,7.16,0,0,1,1.37-2.33c1.09-1.44,2.57-3.41,1.55-5.86A6.19,6.19,0,0,0,93,24.39a6.41,6.41,0,0,0-1.64-.21,9.3,9.3,0,0,0-5.7,2.26,9.65,9.65,0,0,1-5.44,1.87,11.68,11.68,0,0,0-4.15,1,12,12,0,0,0-8.77-9.9,8.25,8.25,0,0,0-.89-.2,12.05,12.05,0,0,0-.93-2.3,8,8,0,0,1-1-4.39c.14-3.26-.86-6-2.76-7.56A5.27,5.27,0,0,0,57,3.92a5.85,5.85,0,0,0-2.63,1.39A12.45,12.45,0,0,0,47.46.43,12.86,12.86,0,0,0,44.2,0,12.45,12.45,0,0,0,32.82,7.47a10,10,0,0,0-7.08-2.56h-1a8.12,8.12,0,0,1-4.28-1A11.62,11.62,0,0,0,15.07,2.4,7.24,7.24,0,0,0,12,3.07a5.53,5.53,0,0,0-3.14,4c-.79,3.92,1.82,6,3.91,7.7a13.23,13.23,0,0,1,3.33,3.39,12.36,12.36,0,0,0,5.81,5.35,14.77,14.77,0,0,1-1.68.27A13.54,13.54,0,0,0,.47,32.09,13.62,13.62,0,0,0,10,48.75l.72.17A47.36,47.36,0,0,0,9,54.55a34.48,34.48,0,0,1-1.73,5.23c-1.39,3-1.32,5.53.2,7a4.25,4.25,0,0,0,3.05,1.13A10.64,10.64,0,0,0,15,66.7l1.6-.78c4.31-2.11,4.4-2.15,10.37-4,3.35-1,5.71-4,6.82-8.69a11.61,11.61,0,0,0,3.87-1.28,5.83,5.83,0,0,0,1,1.58,4.53,4.53,0,0,0,3.46,1.59h.24a12,12,0,0,0,23.66-3,12.22,12.22,0,0,0-.71-4.12,16.15,16.15,0,0,0,2.46-1.07c1.18,2.93,2.93,6.3,6.65,8.22,0,.3,0,.58,0,.85a13.07,13.07,0,0,0,13,12.82h.28A13.08,13.08,0,0,0,99,49.73a16.41,16.41,0,0,1,3.93-4.81,13.77,13.77,0,0,0,3.52,2.16,13.93,13.93,0,0,0,5.42,1.1,13.7,13.7,0,0,0,5.23-1A14,14,0,0,0,124.79,29Zm-8.21,16.88a12.42,12.42,0,0,1-4.7.93,12.56,12.56,0,0,1-4.87-1,12.42,12.42,0,0,1-4-2.72,18.45,18.45,0,0,0-5.57,6.73,11.67,11.67,0,0,1-9.8,17.55h-.25a11.53,11.53,0,0,1-8-3.25,11.65,11.65,0,0,1-3.58-8.18,13.3,13.3,0,0,1,.1-1.68c-4.38-1.81-6-5.65-7.45-9.48A14.31,14.31,0,0,1,63.29,47a10.51,10.51,0,0,1,1.24,5A10.64,10.64,0,0,1,53.91,62.65h0A10.64,10.64,0,0,1,43.4,53.41a3.62,3.62,0,0,1-1.11.26h-.24a3.1,3.1,0,0,1-2.38-1.11,5.05,5.05,0,0,1-1.11-3,11.79,11.79,0,0,1-1.34.93A10.62,10.62,0,0,1,32.6,51.9c-.06.29-.11.59-.18.88-.69,2.91-2.27,6.62-5.9,7.76-6.07,1.91-6.24,2-10.56,4.11l-1.6.77a9.15,9.15,0,0,1-3.88,1.1,2.83,2.83,0,0,1-2.05-.72c-1-1-1-3.07.08-5.42a35,35,0,0,0,1.82-5.46,37.94,37.94,0,0,1,2.51-7.17,11.91,11.91,0,0,1-2.43-.37,12.2,12.2,0,0,1-2.9-22.32,12.09,12.09,0,0,1,12.34.15,16.27,16.27,0,0,0,9.2-3.69h0a7.71,7.71,0,0,1-4,1.17,6.67,6.67,0,0,1-1.66-.2c-2.35-.56-4.47-2.32-6.13-5.08a14.62,14.62,0,0,0-3.66-3.77c-2.07-1.66-4-3.23-3.41-6.31a4.15,4.15,0,0,1,2.36-3c1.93-.92,4.57-.63,7.23.79a10,10,0,0,0,5.48,1.19c2.06,0,4,0,7.18,2.68a7.82,7.82,0,0,1,1,1.07c0-.15.06-.31.1-.46A11,11,0,0,1,54.28,8a4.35,4.35,0,0,1,3.11-2.67,3.84,3.84,0,0,1,3.42.79c1.54,1.26,2.36,3.59,2.23,6.4a9.42,9.42,0,0,0,1.19,5.07,9.28,9.28,0,0,1,1,2.94,11,11,0,0,1,1.7.3,10.67,10.67,0,0,1,7.79,11.4c1.71-2,3.64-2.24,5.67-2.47a10.85,10.85,0,0,0,6.14-2.16c2.69-2.1,4.8-2.14,6.11-1.8a4.77,4.77,0,0,1,3.17,2.75c.71,1.69-.35,3.09-1.37,4.45a8.06,8.06,0,0,0-1.62,2.88,16.17,16.17,0,0,1-4.12,8.24,11.44,11.44,0,0,1,6.71,3.16c.16.15.3.32.45.47a21.36,21.36,0,0,1,5.65-6.45,13.11,13.11,0,0,1-1.25-2.34,12.59,12.59,0,0,1,6.9-16.36,12.5,12.5,0,0,1,16.3,6.93A12.58,12.58,0,0,1,116.58,45.84Z"/><path class="cls-1" d="M69.48,40.32l-.23.11c.41,1,.78,1.93,1.15,2.9a20.29,20.29,0,0,0,3.31,6.48A16.29,16.29,0,0,1,75.36,43a7.8,7.8,0,0,1-2.63-5.57A10.69,10.69,0,0,1,69.48,40.32Zm3.37,5.36c-.4-.9-.76-1.86-1.13-2.85-.22-.59-.45-1.19-.7-1.81q.45-.32.87-.66a9.76,9.76,0,0,0,1.77,2.91A15.52,15.52,0,0,0,72.85,45.68Z"/></svg>