<svg id="圖層_1" data-name="圖層 1" xmlns="http://www.w3.org/2000/svg" viewBox="0 0 87.96 102.85"><defs><style>.cls-1{fill:#fff;}.cls-2{fill:none;}</style></defs><title>0</title><path class="cls-1" d="M23.8,27.76l-.13,0,.08.1Z"/><path class="cls-1" d="M21.06,27a12.34,12.34,0,0,1,2.81,3.8,9.91,9.91,0,0,1,1.76-3.08,8.65,8.65,0,0,1,1.07-1,21.1,21.1,0,0,1-5.79-1.09C21,26,21,26.49,21.06,27Zm2.74.79-.05.08-.08-.1Z"/><path class="cls-1" d="M50.39,19.55A15.36,15.36,0,0,1,54,23.35a17.71,17.71,0,0,0-.67-4.6A10.42,10.42,0,0,1,50.39,19.55Z"/><path class="cls-2" d="M86.54,9.55a.11.11,0,0,0-.07-.08c-6.56-2.64-10.7-1.85-13-.73A19.93,19.93,0,0,0,72,1.49a.18.18,0,0,0-.08-.07.14.14,0,0,0-.11,0c-4.38,3.44-6.69,7-6.88,10.46A8.47,8.47,0,0,0,65.06,14a15.45,15.45,0,0,0-5.38-3,17.19,17.19,0,0,0,.73-3.2.11.11,0,0,0,0-.1.13.13,0,0,0-.1,0C50.49,8,46.92,13,45.62,16.22a6.77,6.77,0,0,0-6.31-3.69l-.39,0a17,17,0,0,0,.24-7.62s0-.06-.06-.08a.12.12,0,0,0-.1,0c-9.27,3.33-10,10.3-9.68,13.73-4.13.58-7.31,3.58-8.8,5.26a18.85,18.85,0,0,0-2.26-5,.14.14,0,0,0-.1-.05.12.12,0,0,0-.1,0,18.78,18.78,0,0,0-3.62,6c-2.82-4-8-5.81-8-5.84a.12.12,0,0,0-.1,0,.15.15,0,0,0-.06.09c-.68,4.12,0,7.39,1.9,9.73A9.19,9.19,0,0,0,11,31.12a9.8,9.8,0,0,0-3.14.63c-2.83,1.1-5,3.58-6.46,7.38a.09.09,0,0,0,0,.1.16.16,0,0,0,.08.06,17.15,17.15,0,0,0,3.9.43A13.19,13.19,0,0,0,12,38.11a25.88,25.88,0,0,1,5.83,2.42,8.86,8.86,0,0,0-5,.07C7.77,42.18,5,48,5,48.08a.1.1,0,0,0,0,.09.12.12,0,0,0,.07.07,16.88,16.88,0,0,0,6.18,1.34c.36,0,.71,0,1.06-.06A6.77,6.77,0,0,0,19,55.45h.29a6.73,6.73,0,0,0,6.35-8.18,31.59,31.59,0,0,0,4.13,3.49A6.81,6.81,0,0,0,25,54.89c-5,1.46-6.4,5.4-6.71,8.47a19,19,0,0,0,.52,6.36.11.11,0,0,0,.06.07l.06,0h0a11.6,11.6,0,0,0,6-5,13.53,13.53,0,0,0,3.53,6.42.11.11,0,0,0,.08,0h0a.13.13,0,0,0,.09,0c2-2.41,3-4.78,3-7.05A6.74,6.74,0,0,0,36.29,62c.1-.11.18-.22.27-.33,1.31,2.34,3.7,3.94,7.12,4.76h0l.07,0a.1.1,0,0,0,0-.08,15.4,15.4,0,0,0-1.32-8.59,23.46,23.46,0,0,1,6.15,4.21c5.28,5.5,5.15,20.61,5.06,31.64v.14c0,3.46.56,5.59,1.84,6.71a5.07,5.07,0,0,0,3.49,1,34,34,0,0,0,4.41-.45c.7-.1,1.43-.21,2.18-.3,1.37-.17,2.18-.56,2.55-1.21.67-1.18-.15-3-1.4-5.87a50.68,50.68,0,0,1-3.35-9.44,86.34,86.34,0,0,0-2.6-8.27C58.28,68.59,55.28,60,55.46,50a11.84,11.84,0,0,0,6.35,3.31h0l.08,0a.2.2,0,0,0,.05-.09,14.06,14.06,0,0,0-1.48-7.77,7,7,0,0,0,.91.07h.29a6.78,6.78,0,0,0,6.5-7.06l0-.28a12.7,12.7,0,0,0,4.55,3.7h.1a.16.16,0,0,0,.07-.07,17.7,17.7,0,0,0,1.3-5.83c.14.08.27.18.42.26a11,11,0,0,0,5.31,1.29A11.44,11.44,0,0,0,83,37.09a.16.16,0,0,0,.08-.06.17.17,0,0,0,0-.1,17.24,17.24,0,0,0-4.35-7.54,6.76,6.76,0,0,0,2.14-5.23,6.59,6.59,0,0,0-.59-2.49c2.94-.92,5.22-3,5.41-3.72a.23.23,0,0,0-.06-.26,14.53,14.53,0,0,0-4.93-3,14.32,14.32,0,0,0,5.83-5A.12.12,0,0,0,86.54,9.55ZM25.63,27.69a9.91,9.91,0,0,0-1.76,3.08A12.34,12.34,0,0,0,21.06,27c0-.48-.08-.94-.15-1.4a21.1,21.1,0,0,0,5.79,1.09A8.65,8.65,0,0,0,25.63,27.69Zm7.56,2.23a11.24,11.24,0,0,0,.28-2A36.25,36.25,0,0,1,38.91,36,8.79,8.79,0,0,0,38,35.6c-.29-.12-.59-.22-.88-.31A6.71,6.71,0,0,0,35,31.12,6.58,6.58,0,0,0,33.19,29.92ZM45.88,50.5A1.74,1.74,0,0,1,45,51.59c-1.69,1-5.28-.33-9.32-3.06A14.73,14.73,0,0,0,36,43.36a11.24,11.24,0,0,0,4,.72,14.59,14.59,0,0,0,2.77-.27c.28.46.57.92.84,1.35C45,47.35,46.19,49.25,45.88,50.5Zm2.73-7.06c-1.11.12-2.28-1.14-3.5-3.73a13.36,13.36,0,0,0,2,.19A10.41,10.41,0,0,0,51,39.21c.28-.11.55-.23.82-.36C51,41.33,49.88,43.31,48.61,43.44ZM53.25,32.1a10.32,10.32,0,0,0-8.36,1.61,14.56,14.56,0,0,0-1.82,1.47c-.26-.55-.53-1.09-.8-1.6,1.61-3.26,2.09-6.25,1.45-8.91a6.28,6.28,0,0,0,.67-.59,13,13,0,0,0,9.33,4.67C53.59,29.88,53.43,31,53.25,32.1ZM50.39,19.55a10.42,10.42,0,0,0,2.92-.8,17.71,17.71,0,0,1,.67,4.6A15.36,15.36,0,0,0,50.39,19.55Zm7.66-2.84a10.14,10.14,0,0,0,3.72,4.76,8,8,0,0,0,1.08.57,54.26,54.26,0,0,0-4.14,5.33A56.62,56.62,0,0,0,58.05,16.71Zm9.49,9.46a13.2,13.2,0,0,0-1.2,7.89c-.11-.12-.23-.24-.35-.35a6.75,6.75,0,0,0-4.87-1.79,6.84,6.84,0,0,0-2,.4,62.13,62.13,0,0,1,7.61-9.65,8.19,8.19,0,0,0,.87-.11,6.88,6.88,0,0,0-.27,2.17A6.19,6.19,0,0,0,67.54,26.17Z"/><path class="cls-1" d="M87.73,10.4a1.59,1.59,0,0,0,.15-1.3A1.55,1.55,0,0,0,87,8.15a23.32,23.32,0,0,0-8.57-1.87,13.9,13.9,0,0,0-3.66.46A21.1,21.1,0,0,0,73.27.92a1.47,1.47,0,0,0-1-.85A1.41,1.41,0,0,0,71.87,0a1.66,1.66,0,0,0-1,.33c-4.43,3.48-6.9,7.11-7.35,10.8a18.07,18.07,0,0,0-2.16-1.06,16.75,16.75,0,0,0,.42-2.18,1.55,1.55,0,0,0-.4-1.22,1.61,1.61,0,0,0-.9-.47l-.24,0h-.05c-8.65.36-12.83,4.13-14.83,7.34a8.19,8.19,0,0,0-4.73-2.35,18.9,18.9,0,0,0-.13-6.58,1.55,1.55,0,0,0-2-1.07C29.29,6.83,27.87,13.63,27.86,17.43a16.19,16.19,0,0,0-6.75,3.8A18.35,18.35,0,0,0,19.41,18a1.51,1.51,0,0,0-1.09-.65h-.18a1.67,1.67,0,0,0-1.16.54A22.81,22.81,0,0,0,14,22.18a20.74,20.74,0,0,0-7.21-4.53,1.49,1.49,0,0,0-.47-.07,1.78,1.78,0,0,0-.78.21,1.56,1.56,0,0,0-.74,1.08c-.75,4.54,0,8.19,2.21,10.87.17.21.36.41.55.61l-.22.08c-3.23,1.25-5.67,4-7.28,8.19a1.54,1.54,0,0,0,1,2,17.82,17.82,0,0,0,4.26.48,16.55,16.55,0,0,0,4.12-.51,18.42,18.42,0,0,0-5.81,6.84,1.55,1.55,0,0,0,0,1.23,1.64,1.64,0,0,0,.86.86A18.31,18.31,0,0,0,11.17,51,8.18,8.18,0,0,0,19,56.87h.35a11.64,11.64,0,0,0-2.5,6.35,20.33,20.33,0,0,0,.57,6.9,1.53,1.53,0,0,0,1.48,1.11,1.71,1.71,0,0,0,.59-.11,14.79,14.79,0,0,0,5-3.28,15.8,15.8,0,0,0,3,4.38,1.55,1.55,0,0,0,1.14.43h0a1.56,1.56,0,0,0,1.1-.56A13.25,13.25,0,0,0,33,65.38a8.1,8.1,0,0,0,3.33-1.56,12.75,12.75,0,0,0,7,4,1.63,1.63,0,0,0,.31,0,1.54,1.54,0,0,0,.87-.27,1.65,1.65,0,0,0,.65-1,17.25,17.25,0,0,0-.17-5.71,15.07,15.07,0,0,1,2.57,2.08C52.51,68,52.38,83.36,52.3,93.54v.14c0,3.9.7,6.37,2.32,7.79A6.38,6.38,0,0,0,59,102.85a34.15,34.15,0,0,0,4.62-.46c.69-.1,1.4-.2,2.15-.29a4.58,4.58,0,0,0,3.61-1.93c1-1.79.08-3.92-1.35-7.15a49.85,49.85,0,0,1-3.26-9.17c-.59-2.53-1.59-5.39-2.64-8.42C60,69.17,57.31,61.53,56.92,53a14.1,14.1,0,0,0,4.78,1.76h.13a1.65,1.65,0,0,0,1-.36,1.51,1.51,0,0,0,.55-1.1,17.5,17.5,0,0,0-.73-6.45,8.15,8.15,0,0,0,6.55-5.55,13.19,13.19,0,0,0,3,1.89,1.66,1.66,0,0,0,.58.11,1.43,1.43,0,0,0,.6-.12,1.68,1.68,0,0,0,.84-.86,21.6,21.6,0,0,0,1.18-4.17,12.69,12.69,0,0,0,4.53.8,13,13,0,0,0,3.54-.46,1.55,1.55,0,0,0,.88-.74,1.71,1.71,0,0,0,.11-1.2,20.39,20.39,0,0,0-3.78-7.15,8.19,8.19,0,0,0,1.63-5.24,7.91,7.91,0,0,0-.23-1.61c2.54-1.12,4.66-3,5-4.17a1.64,1.64,0,0,0-.47-1.69,19,19,0,0,0-2.82-2.11A16.33,16.33,0,0,0,87.73,10.4Zm-7,4.25a14.53,14.53,0,0,1,4.93,3,.23.23,0,0,1,.06.26c-.19.68-2.47,2.8-5.41,3.72a6.59,6.59,0,0,1,.59,2.49,6.76,6.76,0,0,1-2.14,5.23,17.24,17.24,0,0,1,4.35,7.54.17.17,0,0,1,0,.1.16.16,0,0,1-.08.06,11.44,11.44,0,0,1-3.09.39,11,11,0,0,1-5.31-1.29c-.15-.08-.28-.18-.42-.26a17.7,17.7,0,0,1-1.3,5.83.16.16,0,0,1-.07.07h-.1a12.7,12.7,0,0,1-4.55-3.7l0,.28a6.78,6.78,0,0,1-6.5,7.06h-.29a7,7,0,0,1-.91-.07A14.06,14.06,0,0,1,62,53.18a.2.2,0,0,1-.05.09l-.08,0h0A11.84,11.84,0,0,1,55.46,50c-.18,10,2.82,18.61,5.37,25.92a86.34,86.34,0,0,1,2.6,8.27,50.68,50.68,0,0,0,3.35,9.44c1.25,2.82,2.07,4.69,1.4,5.87-.37.65-1.18,1-2.55,1.21-.75.09-1.48.2-2.18.3a34,34,0,0,1-4.41.45,5.07,5.07,0,0,1-3.49-1c-1.28-1.12-1.86-3.25-1.84-6.71v-.14c.09-11,.22-26.14-5.06-31.64a23.46,23.46,0,0,0-6.15-4.21,15.4,15.4,0,0,1,1.32,8.59.1.1,0,0,1,0,.08l-.07,0h0c-3.42-.82-5.81-2.42-7.12-4.76-.09.11-.17.22-.27.33a6.74,6.74,0,0,1-4.6,2.17c0,2.27-1,4.64-3,7.05a.13.13,0,0,1-.09,0h0a.11.11,0,0,1-.08,0A13.53,13.53,0,0,1,25,64.77a11.6,11.6,0,0,1-6,5h0l-.06,0a.11.11,0,0,1-.06-.07,19,19,0,0,1-.52-6.36c.31-3.07,1.74-7,6.71-8.47a6.81,6.81,0,0,1,4.8-4.13,31.59,31.59,0,0,1-4.13-3.49,6.73,6.73,0,0,1-6.35,8.18H19a6.77,6.77,0,0,1-6.71-5.93c-.35,0-.7.06-1.06.06a16.88,16.88,0,0,1-6.18-1.34A.12.12,0,0,1,5,48.17a.1.1,0,0,1,0-.09c0-.06,2.76-5.9,7.81-7.48a8.86,8.86,0,0,1,5-.07A25.88,25.88,0,0,0,12,38.11a13.19,13.19,0,0,1-6.61,1.61,17.15,17.15,0,0,1-3.9-.43.16.16,0,0,1-.08-.06.09.09,0,0,1,0-.1c1.45-3.8,3.63-6.28,6.46-7.38A9.8,9.8,0,0,1,11,31.12a9.19,9.19,0,0,1-2.89-2.29c-1.94-2.34-2.58-5.61-1.9-9.73A.15.15,0,0,1,6.3,19a.12.12,0,0,1,.1,0c.08,0,5.22,1.81,8,5.84a18.78,18.78,0,0,1,3.62-6,.12.12,0,0,1,.1,0,.14.14,0,0,1,.1.05,18.85,18.85,0,0,1,2.26,5c1.49-1.68,4.67-4.68,8.8-5.26C29,15.15,29.73,8.18,39,4.85a.12.12,0,0,1,.1,0s.06,0,.06.08a17,17,0,0,1-.24,7.62l.39,0a6.77,6.77,0,0,1,6.31,3.69C46.92,13,50.49,8,60.28,7.6a.13.13,0,0,1,.1,0,.11.11,0,0,1,0,.1,17.19,17.19,0,0,1-.73,3.2,15.45,15.45,0,0,1,5.38,3,8.47,8.47,0,0,1-.15-2.06c.19-3.5,2.5-7,6.88-10.46a.14.14,0,0,1,.11,0,.18.18,0,0,1,.08.07,19.93,19.93,0,0,1,1.47,7.25c2.32-1.12,6.46-1.91,13,.73a.11.11,0,0,1,.07.08.12.12,0,0,1,0,.1A14.32,14.32,0,0,1,80.69,14.65Z"/><path class="cls-1" d="M50.39,19.55A15.36,15.36,0,0,1,54,23.35a17.71,17.71,0,0,0-.67-4.6A10.42,10.42,0,0,1,50.39,19.55Z"/><path class="cls-1" d="M21.06,27a12.34,12.34,0,0,1,2.81,3.8,9.91,9.91,0,0,1,1.76-3.08,8.65,8.65,0,0,1,1.07-1,21.1,21.1,0,0,1-5.79-1.09C21,26,21,26.49,21.06,27Z"/><path class="cls-1" d="M42.79,43.81a14.59,14.59,0,0,1-2.77.27,11.24,11.24,0,0,1-4-.72,14.73,14.73,0,0,1-.32,5.17c4,2.73,7.63,4,9.32,3.06a1.74,1.74,0,0,0,.89-1.09c.31-1.25-.88-3.15-2.25-5.34C43.36,44.73,43.07,44.27,42.79,43.81Zm1.49,6.55a1.41,1.41,0,0,1-.69.13c-1.41,0-3.74-1-6.34-2.62a17,17,0,0,0,.26-2.61A13,13,0,0,0,40,45.5a16.21,16.21,0,0,0,2.06-.14l.35.56c1,1.5,2.24,3.57,2.07,4.24C44.49,50.23,44.32,50.33,44.28,50.36Z"/><path class="cls-1" d="M38,35.6a8.79,8.79,0,0,1,.87.43A36.25,36.25,0,0,0,33.47,28a11.24,11.24,0,0,1-.28,2A6.58,6.58,0,0,1,35,31.12a6.71,6.71,0,0,1,2.14,4.17C37.45,35.38,37.75,35.48,38,35.6Z"/><path class="cls-1" d="M66.71,22.67a62.13,62.13,0,0,0-7.61,9.65,6.84,6.84,0,0,1,2-.4A6.75,6.75,0,0,1,66,33.71c.12.11.24.23.35.35a13.2,13.2,0,0,1,1.2-7.89,6.19,6.19,0,0,1-.23-1.44,6.88,6.88,0,0,1,.27-2.17A8.19,8.19,0,0,1,66.71,22.67Zm-1.95,8.55a8.32,8.32,0,0,0-2.75-.7Q63.8,28,66,25.57c0,.16,0,.31.08.47A16.2,16.2,0,0,0,64.76,31.22Z"/><path class="cls-1" d="M62.85,22a8,8,0,0,1-1.08-.57,10.14,10.14,0,0,1-3.72-4.76,56.62,56.62,0,0,1,.66,10.66A54.26,54.26,0,0,1,62.85,22Zm-2.19.38-.56.69c0-.4,0-.79-.06-1.16A6.74,6.74,0,0,0,60.66,22.42Z"/><path class="cls-1" d="M47.16,39.9a13.36,13.36,0,0,1-2-.19c1.22,2.59,2.39,3.85,3.5,3.73,1.27-.13,2.35-2.11,3.16-4.59-.27.13-.54.25-.82.36A10.41,10.41,0,0,1,47.16,39.9ZM48.47,42s-.29-.06-.8-.72a11.6,11.6,0,0,0,1.57-.17C48.87,41.77,48.58,42,48.47,42Z"/><path class="cls-1" d="M44.39,24.08a6.28,6.28,0,0,1-.67.59c.64,2.66.16,5.65-1.45,8.91.27.51.54,1.05.8,1.6a14.56,14.56,0,0,1,1.82-1.47,10.32,10.32,0,0,1,8.36-1.61c.18-1.1.34-2.22.47-3.35A13,13,0,0,1,44.39,24.08ZM52.13,30l-.06.45q-.63-.06-1.26-.06a11.71,11.71,0,0,0-6.46,2,15.06,15.06,0,0,0,1.06-5.31A14.24,14.24,0,0,0,52.13,30Z"/></svg>