<svg id="圖層_1" data-name="圖層 1" xmlns="http://www.w3.org/2000/svg" viewBox="0 0 81.33 81.2"><defs><style>.cls-1{fill:#fff;}</style></defs><title>0</title><path class="cls-1" d="M16.7,37.76a7.34,7.34,0,0,1,.75-2.58c-.08-1.94-.19-3.85-.34-5.7-1.22-14.94,2.21-23,3.74-25.71A2.54,2.54,0,0,0,18.63,0a2.72,2.72,0,0,0-.49.05,2.51,2.51,0,0,0-1.71,1.24C14.91,4,12.37,9.86,11.88,19.88A6.74,6.74,0,0,0,6.7,23.22a3.26,3.26,0,0,0-.92.49,12.87,12.87,0,0,0-3.66,5,1.56,1.56,0,0,0,0,1.35,1.53,1.53,0,0,0,.82.7A67.06,67.06,0,0,1,.14,45.93a2.71,2.71,0,0,0,2.57,3.56,2.63,2.63,0,0,0,1.94-.86,25.33,25.33,0,0,0,6.84-16.72l0,0a1.57,1.57,0,0,0,.56-1.13c0-.06,0-.23,0-.48.39,5,.55,10.47.45,15.83h-.27c-7,0-9.09,8.21-9.11,8.28a1.58,1.58,0,0,0,.33,1.38,1.54,1.54,0,0,0,1.18.53h.1a13.94,13.94,0,0,0,7.46-2.43c-.14,2-.31,4-.52,5.83-1,8.77-2.76,15.33-5.11,19a1.55,1.55,0,0,0,1,2.35,12.45,12.45,0,0,0,2.18.2h.31a1.54,1.54,0,0,0,1.31-.78c1.86-3.31,3.32-7.89,4.36-13.67a14.56,14.56,0,0,0,4.61,5.37,2.47,2.47,0,0,0,1.45.48A2.55,2.55,0,0,0,23.52,72a2.52,2.52,0,0,0,.58-3.07,26.44,26.44,0,0,1-2.64-8.22,1.57,1.57,0,0,0,.57-.42,1.53,1.53,0,0,0,.32-1.33A19.06,19.06,0,0,0,20.51,54a3.05,3.05,0,0,0-.68-.83,6.69,6.69,0,0,0-2.28-4.83c.09-3,.1-6,0-9A1.57,1.57,0,0,1,16.7,37.76ZM10.4,24.55h0a2.73,2.73,0,0,1,1.4-.83c0,1.87.08,3.72.22,5.61A12.05,12.05,0,0,0,10.4,24.55ZM18.4,54a1.52,1.52,0,0,1,.87.7A18.08,18.08,0,0,1,21,59.24a.11.11,0,0,1,0,.11.11.11,0,0,1-.09,0h0a3.41,3.41,0,0,1-1-.24,28.51,28.51,0,0,0,3,10.41,1.09,1.09,0,0,1-.25,1.34,1.15,1.15,0,0,1-.73.27,1.08,1.08,0,0,1-.63-.21,13.07,13.07,0,0,1-5.48-11.71,1.86,1.86,0,0,1-.34.06v.15l0,.25c-1,8.91-2.71,15.64-5.17,20a.11.11,0,0,1-.1.06H9.82a11.44,11.44,0,0,1-1.93-.17.16.16,0,0,1-.1-.08.14.14,0,0,1,0-.11c2.47-3.83,4.32-10.6,5.33-19.58.36-3.19.61-6.65.75-10.28-.77,1.91-3,4.85-9.2,5.31h0a.11.11,0,0,1-.09,0,.11.11,0,0,1,0-.11c0-.08,2.14-8.51,9.39-7a169.91,169.91,0,0,0-.46-17.9c-.21-2.57-.29-5-.25-7.53l-.35,0H12.6a4.34,4.34,0,0,0-4,2.5,1.73,1.73,0,0,1,.6.57,10.6,10.6,0,0,1,1.49,5.41.15.15,0,0,1,0,.09.13.13,0,0,1-.08,0h0a3.81,3.81,0,0,1-.45-.13,24,24,0,0,1-6.47,17,1.25,1.25,0,0,1-.91.41,1.33,1.33,0,0,1-.66-.18,1.25,1.25,0,0,1-.56-1.51,70,70,0,0,0,3-16.93,4.62,4.62,0,0,1-1,0,.13.13,0,0,1-.09-.07.11.11,0,0,1,0-.11,11.3,11.3,0,0,1,3.23-4.46,1.72,1.72,0,0,1,1-.35,5.43,5.43,0,0,1,5-3.22h.33l.32,0C13.55,10.75,16.14,4.68,17.66,2a1.1,1.1,0,0,1,.75-.55,1.14,1.14,0,0,1,.91.21,1.13,1.13,0,0,1,.29,1.43C18,6,14.45,14.27,15.7,29.6A172.27,172.27,0,0,1,16.11,49,5.4,5.4,0,0,1,18.4,54Z"/><path class="cls-1" d="M32.4,29.38a2.27,2.27,0,0,1-.69.36h0l-.06,0s-.06-.05-.06-.08a14.66,14.66,0,0,1,0-5.72,1.63,1.63,0,0,1,.52-.83,4.44,4.44,0,0,0-4.31-3h0A72.59,72.59,0,0,0,28.4,30c.33,2.5.61,5.23.84,8.1,4.63.34,6,7.42,6,7.49a.11.11,0,0,1,0,.11.09.09,0,0,1-.08,0h0c-3.39-.71-4.93-2.54-5.62-4.23a159,159,0,0,1,.11,18.59c-.1,1.6-.23,3.19-.4,4.74,1.9-3.13,6.92-3.24,8.2-3.22a81.43,81.43,0,0,0,1.34-14,4.14,4.14,0,0,1-1.07.06.11.11,0,0,1-.09,0,.11.11,0,0,1,0-.11,12.28,12.28,0,0,1,3.21-5,2,2,0,0,1,1.07-.43A7.85,7.85,0,0,1,43.21,40L43,40A15.09,15.09,0,0,1,32.4,29.38Zm3.79,30.81a13.63,13.63,0,0,0-5.28,1.26c0-.44.06-.88.08-1.31.27-4.43.3-9.39.11-14.54a10.36,10.36,0,0,0,3.68,1.48,1.86,1.86,0,0,0,.34,0,1.68,1.68,0,0,0,1.07-.44,1.6,1.6,0,0,0,.32-.45c-.09.22-.19.45-.28.68a1.54,1.54,0,0,0,1,2.07A79.13,79.13,0,0,1,36.19,60.19Zm4.68-19.35a3.26,3.26,0,0,0-1,.59,13.14,13.14,0,0,0-3.28,4.72,1.49,1.49,0,0,0,.08-.86c-.06-.31-1.39-7.08-6.07-8.43-.21-2.5-.46-4.88-.75-7.08a72.53,72.53,0,0,1-.62-8,3,3,0,0,1,1.27,1.17,2.87,2.87,0,0,0-.25.67A16,16,0,0,0,30.16,30a1.61,1.61,0,0,0,.74,1,1.51,1.51,0,0,0,.62.2,16.23,16.23,0,0,0,9.39,9.6Z"/><path class="cls-1" d="M51.87,43.61c.22-2.81.5-5.49.83-8C54.87,19.21,51.38,10,49.78,6.84a2.54,2.54,0,0,0-1.64-1.33,2.72,2.72,0,0,0-.63-.08,2.52,2.52,0,0,0-1.45.46,2.55,2.55,0,0,0-.83,3.2c1.39,2.83,4.42,11,2.46,25.87l-.18,1.44a8.82,8.82,0,0,0-2.24.53l-.15-.14a31.31,31.31,0,0,1-6.26-8.15,1.45,1.45,0,0,0,.53-.7,1.57,1.57,0,0,0-.14-1.38A22.06,22.06,0,0,0,35.35,22a3.11,3.11,0,0,0-1.5-.73,6.69,6.69,0,0,0-4.61-3.43c.37-7.73,2.21-12.28,3-13.92a2.56,2.56,0,0,0-.82-3.2A2.52,2.52,0,0,0,30,.25a2.72,2.72,0,0,0-.63.08,2.56,2.56,0,0,0-1.64,1.32c-1.59,3.17-5,12.25-3,28.46-2.2.59-5.73,2-7.3,5.07.06,1.38.11,2.77.14,4.18a3.1,3.1,0,0,0,.7.27,5.73,5.73,0,0,0,1.44.17,7.16,7.16,0,0,0,3.12-.72,8.52,8.52,0,0,0,2.66-2,157.17,157.17,0,0,1,.42,23.11c-.42,6.66-1.32,12-2.7,15.94a1.56,1.56,0,0,0,.09,1.2,1.68,1.68,0,0,0,.93.77,9,9,0,0,1,1.56.65,1.5,1.5,0,0,0,.69.17,1.61,1.61,0,0,0,1.46-1A50.57,50.57,0,0,0,30.07,69a7,7,0,0,0,1.17.09,6.6,6.6,0,0,0,1.87-.26,7,7,0,0,0,2.27-1.13,2.73,2.73,0,0,0,1,.93,2.82,2.82,0,0,0,1.3.33,2.7,2.7,0,0,0,2.1-1A27,27,0,0,0,46.2,49.76l.09-.08a1.1,1.1,0,0,0,.15-.16c-.18,4.22-.21,8.41-.08,12.35a7.87,7.87,0,0,0-1.66,1c-3.91,3.17-3.48,8.49-2.88,11.37a1.56,1.56,0,0,0,1,1.13,1.58,1.58,0,0,0,.52.09,1.71,1.71,0,0,0,.93-.3,19.76,19.76,0,0,0,2.9-2.83c.24,1.81.52,3.5.84,5.06a1.57,1.57,0,0,0,.89,1.11,9.18,9.18,0,0,1,1.29.69,5.47,5.47,0,0,0,.68.38l.21.12a1.81,1.81,0,0,0,.72.17,1.65,1.65,0,0,0,.93-.31A1.53,1.53,0,0,0,53.29,78a74.74,74.74,0,0,1-1.73-12.6c-.27-4.34-.31-9.2-.13-14.22a12.25,12.25,0,0,0,5.82,2.33,1.45,1.45,0,0,0,.3,0,1.54,1.54,0,0,0,1.46-2C58.91,51.19,56.62,44.6,51.87,43.61Zm-7.12-1.43a4.15,4.15,0,0,1,2.31-1.63q-.29,3.08-.48,6.21A12.8,12.8,0,0,0,44.75,42.18Zm12.89,9.89a.12.12,0,0,1-.09,0h0C56.05,51.92,51.4,51,50.21,47a154.88,154.88,0,0,0-.06,18.51,75.58,75.58,0,0,0,1.76,12.84.12.12,0,0,1,0,.13.11.11,0,0,1-.08,0l-.06,0-.22-.12A4.4,4.4,0,0,1,51,78a10.93,10.93,0,0,0-1.49-.8.13.13,0,0,1-.07-.09,76.49,76.49,0,0,1-1.26-9.06,16,16,0,0,1-4.72,6,.11.11,0,0,1-.08,0h0a.14.14,0,0,1-.08-.09c-.54-2.57-.94-7.28,2.38-10a5,5,0,0,1,2.22-1.1A171.65,171.65,0,0,1,48.64,39h-.2A5.76,5.76,0,0,0,43,42.37a1.86,1.86,0,0,1,.49.48,11.31,11.31,0,0,1,1.88,5.69.13.13,0,0,1,0,.1.11.11,0,0,1-.08,0h0a4.48,4.48,0,0,1-.5-.11,25.78,25.78,0,0,1-6,18.51,1.33,1.33,0,0,1-1,.48,1.38,1.38,0,0,1-.64-.16,1.36,1.36,0,0,1-.68-1.58q.27-1,.51-2a7.31,7.31,0,0,1-4.19,3.68,5.22,5.22,0,0,1-1.47.21,5.11,5.11,0,0,1-2.33-.54,52.64,52.64,0,0,1-2.29,10.29.12.12,0,0,1-.07.07H26.5l-.06,0a10.93,10.93,0,0,0-1.78-.74.16.16,0,0,1-.08-.06.17.17,0,0,1,0-.1c1.41-4,2.34-9.51,2.77-16.3a161.41,161.41,0,0,0-.84-27.38,9.16,9.16,0,0,1-4.26,4.88,5.88,5.88,0,0,1-2.52.58,5,5,0,0,1-1.1-.12c-.54-.14-.53-.28-.52-.34.5-4.89,6.26-6.36,8.2-6.71,0-.11,0-.22,0-.33s-.05-.42-.07-.62c-2.12-16,1.24-24.9,2.79-28a1.11,1.11,0,0,1,.72-.58,1.08,1.08,0,0,1,.91.16A1.12,1.12,0,0,1,31,3.28c-.9,1.83-3,7-3.21,15.83h0A5.39,5.39,0,0,1,33,22.67a1.68,1.68,0,0,1,1.46.38,20.52,20.52,0,0,1,3.64,4.28.11.11,0,0,1,0,.11.11.11,0,0,1-.08.07,3.78,3.78,0,0,1-1.21.13,33,33,0,0,0,7.39,10.19,1.18,1.18,0,0,1,.39,1.05,7.05,7.05,0,0,1,3.88-1.11l.35,0c.1-.89.2-1.79.31-2.65C51.1,19.91,48,11.41,46.5,8.46a1.13,1.13,0,0,1,.37-1.41,1.09,1.09,0,0,1,.91-.16,1.12,1.12,0,0,1,.73.58c1.54,3.07,4.9,12,2.79,28-.39,3-.71,6.14-.95,9.48l.31,0c4.58,0,7,7,7,7.05A.11.11,0,0,1,57.64,52.07Z"/><path class="cls-1" d="M16.7,37.76a1.57,1.57,0,0,0,.89,1.6c0-1.41-.08-2.8-.14-4.18A7.34,7.34,0,0,0,16.7,37.76Z"/><path class="cls-1" d="M81,78.71c-2.55-3.48-4.82-9.71-6.55-18a161.79,161.79,0,0,1-3.12-29.63c-.2-16.55-5-25.14-7-28.07a2.59,2.59,0,0,0-1.82-1.07l-.26,0a2.55,2.55,0,0,0-2.1,4,27.48,27.48,0,0,1,2.87,5.73,7.53,7.53,0,0,0-4.5,3.65,2.77,2.77,0,0,0-.89.53,12,12,0,0,0-3.22,4.88,1.55,1.55,0,0,0,.12,1.39,1.58,1.58,0,0,0,.78.64,63.29,63.29,0,0,1-2,14.26,2.62,2.62,0,0,0,1.3,3,2.67,2.67,0,0,0,1.24.3,2.56,2.56,0,0,0,2-.93,23.91,23.91,0,0,0,5.67-16h0a1.56,1.56,0,0,0,.51-1.15,11.37,11.37,0,0,0-1.75-5.59,3.3,3.3,0,0,1,1.93-1.27,62.07,62.07,0,0,1,2,15.81c0,.56,0,1.14,0,1.73a8.41,8.41,0,0,0-4.47,5.21,3.17,3.17,0,0,0-.49.4,11.45,11.45,0,0,0-2.54,4.84,1.52,1.52,0,0,0,1,1.89,58.26,58.26,0,0,1-.54,13.18,2.55,2.55,0,0,0,1.55,2.81,2.65,2.65,0,0,0,1,.18,2.48,2.48,0,0,0,.61-.07,13.32,13.32,0,0,0,.17,2.2,1.55,1.55,0,0,0,.78,1.11,1.48,1.48,0,0,0,.74.19,1.74,1.74,0,0,0,.56-.1,12.69,12.69,0,0,0,4.72-3.57c0,.07,0,.15,0,.22,1.65,8,3.79,14.3,6.35,18.6a1.69,1.69,0,0,0,.84.65,12.16,12.16,0,0,0,3.13.58h0a1.52,1.52,0,0,0,1.35-.8A1.54,1.54,0,0,0,81,78.71Zm-1.24,1h0a11.23,11.23,0,0,1-2.69-.5.13.13,0,0,1-.07-.06C74.54,75,72.47,68.94,70.85,61.06c-.3-1.44-.59-3-.88-4.78-.56,5-5.73,7.06-5.79,7.09h-.05l-.06,0a.15.15,0,0,1-.06-.09c-.6-3.81.68-6.16,1.85-7.46a7.35,7.35,0,0,1,3.68-2.26A177.34,177.34,0,0,1,67.82,35a5.68,5.68,0,0,0-3.56,4.12,1.7,1.7,0,0,1,.42.34,9.1,9.1,0,0,1,2,4.46.17.17,0,0,1,0,.1.11.11,0,0,1-.09,0,2.58,2.58,0,0,1-.39,0,20.9,20.9,0,0,1-3.41,15.4,1.08,1.08,0,0,1-1.34.4,1.1,1.1,0,0,1-.68-1.24,60.7,60.7,0,0,0,.44-14.9,4,4,0,0,1-.83.13.12.12,0,0,1-.1-.05.14.14,0,0,1,0-.11,10,10,0,0,1,2.21-4.25,1.44,1.44,0,0,1,.66-.39,7.05,7.05,0,0,1,4.72-5.25v-.06c0-.87-.06-1.77-.07-2.63a62.68,62.68,0,0,0-2.44-17.35,5,5,0,0,0-4.71,3,1.53,1.53,0,0,1,.43.41,10,10,0,0,1,1.66,5,.15.15,0,0,1,0,.09.16.16,0,0,1-.09,0h0a2.1,2.1,0,0,1-.42-.09,22.66,22.66,0,0,1-5.29,16.25,1.19,1.19,0,0,1-.9.43,1.25,1.25,0,0,1-.58-.15,1.19,1.19,0,0,1-.6-1.4,65.73,65.73,0,0,0,2.05-16,3.25,3.25,0,0,1-.92.05.12.12,0,0,1-.1-.05.17.17,0,0,1,0-.12,10.7,10.7,0,0,1,2.83-4.34,1.63,1.63,0,0,1,.94-.38A6.18,6.18,0,0,1,65,12.72a31.15,31.15,0,0,0-3.6-7.65,1.12,1.12,0,0,1,.17-1.45,1.11,1.11,0,0,1,.87-.29,1.14,1.14,0,0,1,.81.47c2,2.82,6.55,11.12,6.74,27.28A163.08,163.08,0,0,0,73.09,61c1.78,8.5,4.13,14.93,6.8,18.57a.12.12,0,0,1,0,.13A.11.11,0,0,1,79.79,79.75ZM67.2,53a22.65,22.65,0,0,0,.47-2.6l.3,2.21C67.73,52.69,67.47,52.82,67.2,53Zm-.54-13.11a9.46,9.46,0,0,0-.78-1.12,4.15,4.15,0,0,1,.65-1.1C66.57,38.38,66.61,39.12,66.66,39.86Z"/></svg>