<svg id="圖層_1" data-name="圖層 1" xmlns="http://www.w3.org/2000/svg" viewBox="0 0 95.2 110.71"><defs><style>.cls-1{fill:#fff;}</style></defs><title>0</title><path class="cls-1" d="M94.73,25.09a26.24,26.24,0,0,0-6.79-4.91,17.92,17.92,0,0,0,3.66-5.55,1.53,1.53,0,0,0-1.12-2.05,30.3,30.3,0,0,0-6.21-.73,13.58,13.58,0,0,0-8.17,2.3,7.67,7.67,0,0,0-1.56-1.27,8.07,8.07,0,0,0-3.24-1.14C70.12,5.34,64.75.59,64.5.37a1.55,1.55,0,0,0-1-.37,2,2,0,0,0-.35,0A1.57,1.57,0,0,0,62.07,1C59.9,6.22,59.4,11,60.59,15a21.43,21.43,0,0,0-2.24.35,17,17,0,0,0-4,1.31c-.48-3.23-2.34-6.48-5.55-9.69a1.51,1.51,0,0,0-1.1-.46h-.17a1.54,1.54,0,0,0-1.14.73c0,.09-5.08,8.37-2.59,15.1a8.1,8.1,0,0,0-3.08,3.25,8.44,8.44,0,0,0-.91-.66,8,8,0,0,0-4.19-1.2,8.28,8.28,0,0,0-1.85.22,7.94,7.94,0,0,0-2.52,1.08c-.07-.31-.14-.61-.22-.91a18.94,18.94,0,0,0,10.3-8.6,1.56,1.56,0,0,0-.86-2.14,26.73,26.73,0,0,0-8.89-1.74,14.84,14.84,0,0,0-7.09,1.67c-.19.1-.37.21-.55.32A19.68,19.68,0,0,0,14.2,7a1.37,1.37,0,0,0-.4,0,1.63,1.63,0,0,0-.88.27,1.54,1.54,0,0,0-.66,1.1,35,35,0,0,0,0,8,13.71,13.71,0,0,0-4.81-.81,23.19,23.19,0,0,0-6.28,1,1.54,1.54,0,0,0-1,.9A1.51,1.51,0,0,0,.2,18.72a26.75,26.75,0,0,0,2.84,4,20.75,20.75,0,0,0,4.1,3.69,20.71,20.71,0,0,0-5.67,6.3A1.56,1.56,0,0,0,1.33,34a1.53,1.53,0,0,0,1,.93,25.46,25.46,0,0,0,2.86.71,14.54,14.54,0,0,0-2,3.72A1.55,1.55,0,0,0,4,41.29,26.54,26.54,0,0,0,8.21,42.7c-2,2.69-3,6.49-2.9,11.34A1.53,1.53,0,0,0,6.8,55.56h.12a14.87,14.87,0,0,0,9.72-3.8,11.69,11.69,0,0,0,1-1,24.36,24.36,0,0,0,3.6,7.91,1.57,1.57,0,0,0,1.25.63,1.51,1.51,0,0,0,1.15-.53C27,54.88,28.78,51,28.86,47.31c.39,1,.78,2,1.14,2.89,2.11,5.24,3.92,9.77,3.65,15.74-.25,5.44-2.66,13.24-5,20.78C25.09,98.32,23,105.6,25.16,109a3.69,3.69,0,0,0,2.74,1.69,6.35,6.35,0,0,0,1,.07,4.73,4.73,0,0,0,3-.95C34,108.1,34.36,104.71,35,99.57c1.06-9,2.84-24,15.42-42.88q1.38-2.07,2.65-3.93a8,8,0,0,0,6.31,3.1,7.71,7.71,0,0,0,1.84-.22,8,8,0,0,0,5.07-3.76,17.23,17.23,0,0,0,6.51,1.19,20.41,20.41,0,0,0,5.06-.61,1.53,1.53,0,0,0,1-.82,1.55,1.55,0,0,0,0-1.3,34.65,34.65,0,0,0-4-6.81,14.74,14.74,0,0,0,7.57,1.85,26.48,26.48,0,0,0,5.18-.56,1.53,1.53,0,0,0,1.1-2.15,27.4,27.4,0,0,0-5.92-8,8,8,0,0,0,2-4.66,24.38,24.38,0,0,0,9.6-2.44,1.52,1.52,0,0,0,.81-1.14A1.54,1.54,0,0,0,94.73,25.09Zm-1,1.21a22.91,22.91,0,0,1-9.36,2.29c-.34,0-.68,0-1,0a6.62,6.62,0,0,1-2.75,6.18c4.27,3.07,6.79,8.46,6.82,8.53a.14.14,0,0,1,0,.11s0,.05-.08.06A25.33,25.33,0,0,1,82.4,44a12.43,12.43,0,0,1-8.23-2.63,10.3,10.3,0,0,1-1.62-1.7q-.36,1.21-.84,2.52a28.23,28.23,0,0,1,5.82,8.77.21.21,0,0,1,0,.11.18.18,0,0,1-.08.07,19.41,19.41,0,0,1-4.68.55A15.47,15.47,0,0,1,65.57,50a6.61,6.61,0,0,1-6.23,4.44,6.45,6.45,0,0,1-3.44-1,6.52,6.52,0,0,1-2.73-3.37c-1.24,1.79-2.55,3.72-4,5.82C36.44,75.1,34.64,90.31,33.56,99.4c-.56,4.79-.94,7.95-2.59,9.24a3.31,3.31,0,0,1-2.12.65,7.43,7.43,0,0,1-.78-.05,2.3,2.3,0,0,1-1.72-1.06c-1.91-3,.8-11.75,3.67-21.05,2.35-7.62,4.78-15.51,5-21.13.29-6.27-1.58-10.93-3.74-16.33-.9-2.24-1.87-4.67-2.75-7.39A6.59,6.59,0,0,1,27,44a10.4,10.4,0,0,1,.42,2.18c.3,3.73-1.33,7.64-4.86,11.65a.11.11,0,0,1-.09,0h0a.14.14,0,0,1-.1,0c0-.06-4.52-6.2-3.58-11.93a12.23,12.23,0,0,1-3.1,4.85,13.56,13.56,0,0,1-8.75,3.42H6.84A.12.12,0,0,1,6.72,54C6.63,48.34,8,44.26,10.91,41.91l.23-.16A21.82,21.82,0,0,1,4.53,40a.13.13,0,0,1-.07-.16A14,14,0,0,1,8,34.62l-.79-.07a26.51,26.51,0,0,1-4.48-.93.16.16,0,0,1-.08-.08.14.14,0,0,1,0-.11c2.22-3.6,4.71-5.95,7.43-7.06a16.93,16.93,0,0,1-6-4.61A24.77,24.77,0,0,1,1.43,18a.14.14,0,0,1,0-.11.11.11,0,0,1,.08-.07c5.25-1.49,9.44-1.16,12.48,1l.2.17A28.11,28.11,0,0,1,13.67,8.5a.24.24,0,0,1,.06-.09.11.11,0,0,1,.1,0c.07,0,6.62,1.85,9.75,7.26a12.22,12.22,0,0,1,1.62-1.05c3.84-2,8.83-2,14.83.16a.1.1,0,0,1,.07.07.12.12,0,0,1,0,.1c-.05.09-3.43,6.63-10.75,8.22.37,1.33.72,2.9,1.08,4.62a6.58,6.58,0,0,1,10.9.69,6.6,6.6,0,0,1,4.39-5.39c-3.44-6.16,1.85-14.94,1.92-15A.15.15,0,0,1,47.73,8a.12.12,0,0,1,.1,0c3.77,3.77,5.52,7.52,5.24,11.15a13.73,13.73,0,0,1,5.57-2.39,23.71,23.71,0,0,1,3.91-.45c-1.41-3.23-2-8,.83-14.82a.11.11,0,0,1,.08-.08.11.11,0,0,1,.11,0c.09.07,5.89,5.2,6.49,11.66a6.5,6.5,0,0,1,3.73,1,6.61,6.61,0,0,1,2.11,2.1,7.59,7.59,0,0,1,.78-.7c2.91-2.3,7.46-2.82,13.5-1.53a.13.13,0,0,1,.09.07.12.12,0,0,1,0,.1,16.11,16.11,0,0,1-5,6.49,22.47,22.47,0,0,1,8.47,5.48.15.15,0,0,1,0,.11A.13.13,0,0,1,93.71,26.3Z"/><path class="cls-1" d="M38,40.75a10.09,10.09,0,0,1-.27-2.68,5.54,5.54,0,0,1-.58.17,6.38,6.38,0,0,1-4.47-.55c1.67,6.07,4.08,11.35,8.38,12a7.1,7.1,0,0,0,3.38-.31C42.36,47.88,39,44.91,38,40.75Zm-3.2-1a7.56,7.56,0,0,0,.83,0c.26,0,.51,0,.76,0a11.07,11.07,0,0,0,.23,1.28,15.25,15.25,0,0,0,4.24,7.12C38.47,47.6,36.48,44.83,34.8,39.79Z"/><path class="cls-1" d="M64.48,33.29c-1.06,1.87-2.34,3.84-3.84,6a9.8,9.8,0,0,1,5.86-.26,12.23,12.23,0,0,1,1.16.4,13.41,13.41,0,0,1-3.07-5.56A6.17,6.17,0,0,1,64.48,33.29Zm-.47,4h-.33l.41-.65c.1.22.21.44.33.65Z"/><path class="cls-1" d="M54.79,27.1c-.26,0-.51,0-.75,0,.08.25.16.5.22.75a6.61,6.61,0,0,1-4.9,8,6.5,6.5,0,0,1-1.52.17,6.39,6.39,0,0,1-1.63-.21c1.59,2.78,2.54,6.74,1,12.1,4.58-3.63,8-11.69,10.83-18.55.48-1.15,1-2.26,1.4-3.3a10.15,10.15,0,0,1-4.65,1.13ZM49.4,43.35a15.5,15.5,0,0,0-.89-6,7.82,7.82,0,0,0,1.18-.18,8,8,0,0,0,5-3.71A56.54,56.54,0,0,1,49.4,43.35Zm7.33-14.62c-.38.91-.78,1.86-1.19,2.82a7.93,7.93,0,0,0,.27-3.08,9.85,9.85,0,0,0,1.09-.15C56.85,28.46,56.79,28.59,56.73,28.73Z"/></svg>