<svg id="圖層_1" data-name="圖層 1" xmlns="http://www.w3.org/2000/svg" viewBox="0 0 107.98 112.16"><defs><style>.cls-1{fill:#fff;}</style></defs><title>0</title><path class="cls-1" d="M15.14,31.45h-1l1.67.53C15.56,31.8,15.33,31.61,15.14,31.45Z"/><path class="cls-1" d="M88.62,30.38q.24-.22.45-.45l0-.06Z"/><path class="cls-1" d="M47.12,47.55a4,4,0,0,1-.23,1.13,6.91,6.91,0,0,1,1.86,1.18c-.25-.41-.52-.84-.83-1.28S47.39,47.87,47.12,47.55Z"/><path class="cls-1" d="M102.4,23.29a9.52,9.52,0,0,0-3.44-.7,7.32,7.32,0,0,0-3.2.73,8,8,0,0,0-1.11.67A11.21,11.21,0,0,0,93,25c5.51-6.72,7.93-9.89,7.63-12.07a2.34,2.34,0,0,0-1-1.6,2.67,2.67,0,0,0-1.54-.47c-1.73,0-3.87,1.49-7.2,5.13-.16-2.86-1.28-6.38-4.29-10.47a1.58,1.58,0,0,0-1.24-.63,1.56,1.56,0,0,0-1.23.61c-.08.1-7.18,9.71.32,18.25l-1.46,1.86a101,101,0,0,1-6.48-10.29c-1.14-2.17-2-4.23-2.67-5.88-1.39-3.36-2.3-5.58-4.48-5.58h-.26A2.36,2.36,0,0,0,67.28,5c-.78,1.41-.55,3.73,3,10.94.51,1,1.07,2.14,1.66,3.27a12.34,12.34,0,0,0-6.08-1.62,14.23,14.23,0,0,0-6.37,1.62,1.61,1.61,0,0,0-.81,1.05A1.58,1.58,0,0,0,59,21.56a23.87,23.87,0,0,0,1.84,2,19.87,19.87,0,0,0-2.14.17,12.43,12.43,0,0,0-3.39-4c3.39-7.74,3-9,2-9.76a2.31,2.31,0,0,0-1.5-.58,2,2,0,0,0-.44,0c-1.57.32-2.57,2.08-4.85,6.63a12.74,12.74,0,0,0-5.89-6.27,1.52,1.52,0,0,0-1.33-.07,1.52,1.52,0,0,0-.89,1c0,.1-2.44,9,4.36,13.43C46,26,45.3,27.65,44.73,29c-3-3.64-6.47-7.55-9.9-11.12,2.66-2,6.79-6.76,3.74-16.81a1.54,1.54,0,0,0-.91-1A1.56,1.56,0,0,0,37.09,0a1.65,1.65,0,0,0-.76.2c-.09,0-7.25,4.24-6.79,12.44-9.28-8.79-12-8.79-12.95-8.79h-.3A2.66,2.66,0,0,0,14.1,5.31c-1.18,2.29,1,5.21,5.63,10a8.2,8.2,0,0,1-.54,1.83,28.61,28.61,0,0,1-3.64-.44l-.27,0a1.52,1.52,0,0,0-1.44,1,7.33,7.33,0,0,0-3.48,1.43,7.11,7.11,0,0,0-2.5,8.24,6.1,6.1,0,0,0,2.27,2.83,18.5,18.5,0,0,0-4.6-.92A2.45,2.45,0,0,0,3.05,30.6a2.84,2.84,0,0,0,.12,2.55,6.63,6.63,0,0,0,2.25,2.24A9.73,9.73,0,0,0,1,40.94a18.25,18.25,0,0,0-1,6,1.54,1.54,0,0,0,.73,1.27,1.58,1.58,0,0,0,.81.23,1.53,1.53,0,0,0,.64-.14A20.72,20.72,0,0,0,7.47,45l-.35.51C4.91,49,5,54.37,8.9,57.14A7,7,0,0,0,13,58.41a9.63,9.63,0,0,0,3.42-.67,10.38,10.38,0,0,0,4.69,1.15,8.61,8.61,0,0,0,7-3.4,7.9,7.9,0,0,0,1.33-6.78A8.65,8.65,0,0,0,24.65,43a9.14,9.14,0,0,0-3.75-.89h0c0-.33-.08-.65-.14-1,2.81.71,5.67,1.32,8.25,1.75,1.28.22,2.47.41,3.58.58,5.57.89,8.88,1.41,11.37,3.11,0,.19-.06.37-.08.53v0a2.64,2.64,0,0,1-.51,0,4.86,4.86,0,0,1-.7,0,7.65,7.65,0,0,1-3.41-1.77,1.52,1.52,0,0,0-1.06-.42,1.67,1.67,0,0,0-.65.15,1.55,1.55,0,0,0-.89,1.48c0,.2,0,.4.06.59l-.15.06a8.06,8.06,0,0,0-5.3,7.4A5.87,5.87,0,0,0,32.67,59a7.31,7.31,0,0,0,5.11,2A9.53,9.53,0,0,0,45,64.72a8.13,8.13,0,0,0,3-.61A8.65,8.65,0,0,0,52,60.88a44.16,44.16,0,0,0,3.05,5c6.36,9.17,10.83,38.74,10.87,39,.63,4.49,2.17,7.28,7.91,7.28.37,0,.75,0,1.16,0a4.57,4.57,0,0,0,3.75-2c2.11-3.11.72-9.14-2-17.24C72.32,80,71.14,68,73.18,57.7A7.7,7.7,0,0,0,76,60.36a8.47,8.47,0,0,0,4.06,1,9.76,9.76,0,0,0,7.51-3.8A8,8,0,0,0,94.22,54c2.45-4.14.33-9-3.15-11.37a7.09,7.09,0,0,0-4-1.18,9.45,9.45,0,0,0-5.38,1.77l-.06-.59a15.74,15.74,0,0,0-.35-2.54c1.39-2,2.87-4,4.35-5.92a1.14,1.14,0,0,0,.11.11,6.2,6.2,0,0,0,1.17.82,6.94,6.94,0,0,0,0,.79,7.83,7.83,0,0,0,5.52,7.07,7.67,7.67,0,0,0,2.34.37c3.73,0,6-2.77,6.9-4.11a8.47,8.47,0,0,0,6.26-7.31C108.35,28.1,106.23,24.81,102.4,23.29Zm4.12,8.43a7,7,0,0,1-5.73,6.21c-.28.49-2.34,4-6,4a6.59,6.59,0,0,1-1.93-.3,6.41,6.41,0,0,1-4.51-5.79,6.12,6.12,0,0,1,.14-1.61,4.73,4.73,0,0,1-1.74-1,.15.15,0,0,1,0-.12.15.15,0,0,1,.09-.1,7.78,7.78,0,0,0,4.15-3.15,7.93,7.93,0,0,1-1.78-2.39c-3.08,3.78-6.49,8.05-9.44,12.39a8.74,8.74,0,0,1,.52,2.86c0,.28,0,.58.08.88a5.8,5.8,0,0,0,.51,1.81l.47,0c2.59-2.58,6.43-3.32,9-1.6,2.93,2,4.75,6.06,2.72,9.48-1.79,3-5.55,3-6.12,3A8.46,8.46,0,0,1,80.1,60a7.13,7.13,0,0,1-3.39-.87,6.5,6.5,0,0,1-3.27-4.63,7.23,7.23,0,0,1,1.68-6A6.6,6.6,0,0,1,79,46.05a11.61,11.61,0,0,1-1-3.58,44.92,44.92,0,0,0-4.89,9.87c-3.72,11.55-2.94,25.74,2.23,41,2.26,6.66,4.09,13.2,2.2,16a3.2,3.2,0,0,1-2.65,1.36l-1.09,0c-4.81,0-5.93-1.95-6.5-6.06,0-.3-4.57-30.2-11.12-39.65a37.85,37.85,0,0,1-4.35-7.83,7,7,0,0,1-4.32,5.6,6.57,6.57,0,0,1-2.51.5c-2.35,0-4.67-1.29-6.52-3.73H38.2c-.94,0-3.15-.08-4.49-1.53a4.4,4.4,0,0,1-1-3.36,6.67,6.67,0,0,1,4.38-6.15,6.89,6.89,0,0,1,1.32-.33,6.68,6.68,0,0,1-.31-1.72.14.14,0,0,1,.07-.12.14.14,0,0,1,.14,0,9.22,9.22,0,0,0,4.2,2.15,5.3,5.3,0,0,0,1.86,0,5.05,5.05,0,0,1,.72-.09,5.3,5.3,0,0,0,.23-1.16,2.2,2.2,0,0,1,.36-1.18c-2.86-2.42-6.5-3-12.83-4l-3.57-.57c-3.21-.54-7-1.38-10.59-2.38a10.7,10.7,0,0,1,.9,4.58,6.58,6.58,0,0,1,4.52.59,7.28,7.28,0,0,1,4,4.8A6.51,6.51,0,0,1,27,54.63a7.19,7.19,0,0,1-5.86,2.84,8.84,8.84,0,0,1-4.61-1.32C16,56.42,12.59,58,9.72,56c-3.25-2.28-3.26-6.76-1.39-9.76C10,43.6,13.76,42.7,17.18,44l.45-.16A6,6,0,0,0,17.35,42l-.28-.83a9.46,9.46,0,0,1-.7-2.71,64.51,64.51,0,0,1-6.5-2.31c.25,1.4.59,6.85-8.27,10.86H1.48a.13.13,0,0,1-.06-.11,16.74,16.74,0,0,1,.89-5.45C3.53,38,5.86,36.08,9.05,35.75,6.7,34.67,5,33.55,4.43,32.49a1.41,1.41,0,0,1-.09-1.3c.54-1.18,4.14-.08,10.46,2,8.07,2.61,19.12,6.18,20.94,1.85,1.66-4-5.49-11.12-11.8-17.42l-1-1a14.84,14.84,0,0,1-.8,2.58,15.06,15.06,0,0,1,2.67,2.55,5.46,5.46,0,0,1,2.45,2.7,5.68,5.68,0,0,1-2.14,6.82,6.43,6.43,0,0,1-3.82,1.3,7,7,0,0,1-2.77-.6A9.74,9.74,0,0,1,15.64,30c-3.14.34-5.55-.83-6.46-3.13a5.68,5.68,0,0,1,2-6.58A5.93,5.93,0,0,1,15,19.06a4,4,0,0,1,.16-.85.13.13,0,0,1,.15-.08,31.61,31.61,0,0,0,4.74.5,10.32,10.32,0,0,0,1.19-3.78c-3.89-4-6.72-7.25-5.88-8.89a1.27,1.27,0,0,1,1.06-.69C19.21,5,26,11.15,29.76,14.82c.72.7,1.44,1.42,2.18,2.16C28,6.7,36.94,1.49,37,1.43a.14.14,0,0,1,.11,0,.11.11,0,0,1,.07.08C40.76,13.2,33.87,17,32.57,17.63c4.39,4.48,8.93,9.6,12.57,14.18.74-1.84,2-5,3.41-8.21-7.19-3.59-4.83-12.35-4.8-12.44a.11.11,0,0,1,.07-.08.11.11,0,0,1,.11,0c4.43,2.49,5.66,5.82,5.91,8.17a10.84,10.84,0,0,1,0,1.37c.41-.91.82-1.77,1.22-2.56,2.48-5,3.53-7,4.52-7.19a.81.81,0,0,1,.74.23c.7.59-.82,4.62-2.91,9.27,1.16.48,2.87,1.86,4.46,5A16.64,16.64,0,0,1,61.74,25a6,6,0,0,1,2.56-.34c-.52-.36-1-.73-1.41-1.08A20.66,20.66,0,0,1,60.1,20.7a.12.12,0,0,1,0-.1.13.13,0,0,1,.07-.09c9.7-4.88,15.67,4,15.73,4.11a.14.14,0,0,1,0,.17,8.13,8.13,0,0,1-5.37,2.12,7.89,7.89,0,0,1-.84-.05,8.34,8.34,0,0,1-1.73-.38,6.21,6.21,0,0,1,1.49,4.79,6.74,6.74,0,0,1-4,5.66,10.16,10.16,0,0,1-3.45,1C60.53,40,58.66,41.1,56.76,41.1a5,5,0,0,1-1.64-.28,5.91,5.91,0,0,1-3.75-6.11A6.19,6.19,0,0,1,53,30.9a4,4,0,0,1-.56-.72.12.12,0,0,1,0-.16,32,32,0,0,0,3.65-3.4,11.69,11.69,0,0,0-3.36-4.73h0c-2.09,4.56-4.55,9.4-5.94,12.09l1.33,1.72c5.29,6.94,9.47,12.41,14.21,12.52h.14c2.83,0,5.83-1.94,9.18-5.93,2.77-3.31,5.73-7.12,8.63-10.87C78.9,29,74.38,21.07,71.56,15.36c-2.69-5.46-3.66-8.52-3-9.63a.94.94,0,0,1,.78-.48c1.29-.12,2,1.69,3.29,4.69.69,1.68,1.55,3.78,2.73,6A109.86,109.86,0,0,0,83,28q1.74-2.25,3.38-4.32c-8-7.88-1.14-17.21-1.06-17.3a.12.12,0,0,1,.1,0h0a.14.14,0,0,1,.1,0c4.76,6.48,4.47,11.29,3.35,14.22,4.66-5.64,8.32-9.25,10-8.08a.88.88,0,0,1,.37.63c.25,1.77-3.29,6.08-8.21,12l-1.11,1.36a4.29,4.29,0,0,1,.68.89,7,7,0,0,0,1,1.28,8.19,8.19,0,0,1,3.77-3.47,6.36,6.36,0,0,1,1-.61,6.62,6.62,0,0,1,5.5,0C105.14,25.9,106.88,28.56,106.52,31.72Zm-17.9-1.34.41-.51,0,.06Q88.86,30.15,88.62,30.38ZM8.79,43.65a10,10,0,0,0,2.53-5.43c1.15.43,2.41.86,3.76,1.29.15.63.39,1.33.65,2.08l.19.57A9.92,9.92,0,0,0,14,42,8.56,8.56,0,0,0,8.79,43.65Zm5.37-12.19h1c.19.16.42.35.69.54ZM28.8,24.64c3.55,3.89,6.46,7.81,5.63,9.81-.32.77-1.41,1.16-3.23,1.16a37.55,37.55,0,0,1-9.28-1.73,8.11,8.11,0,0,0,4-1.53A7.11,7.11,0,0,0,28.8,24.64Zm41.72,3.68a9.21,9.21,0,0,0,5.39-1.79C77,28.48,78,30.17,78.61,31.3c-2.78,3.6-5.48,7.06-8,10.08-3,3.6-5.74,5.42-8.09,5.42H62.4c-2.3,0-4.58-1.76-7-4.44a6.1,6.1,0,0,0,1.41.16,7.71,7.71,0,0,0,6-3.3,11.81,11.81,0,0,0,3.28-1,8.2,8.2,0,0,0,4.76-6.8A7.75,7.75,0,0,0,70.52,28.32ZM51.23,30.88A7.56,7.56,0,0,0,50,34.61a8.09,8.09,0,0,0,0,1.1l-1.44-1.88c1.17-2.3,3-5.88,4.69-9.49a9.18,9.18,0,0,1,1.27,2,28.26,28.26,0,0,1-2.85,2.59A1.54,1.54,0,0,0,51.23,30.88Z"/><path class="cls-1" d="M89.78,26.7l-.45.55a7.25,7.25,0,0,0,1.74,2.39,5.21,5.21,0,0,0,.39-.68l0-.05a6.84,6.84,0,0,1-1.08-1.37A5.15,5.15,0,0,0,89.78,26.7Z"/><path class="cls-1" d="M46.89,48.68a4,4,0,0,0,.23-1.13c.27.32.53.65.8,1s.58.87.83,1.28A6.91,6.91,0,0,0,46.89,48.68ZM91.46,29a5.21,5.21,0,0,1-.39.68,7.25,7.25,0,0,1-1.74-2.39l.45-.55a5.15,5.15,0,0,1,.63.84,6.84,6.84,0,0,0,1.08,1.37Z"/></svg>