<svg id="圖層_1" data-name="圖層 1" xmlns="http://www.w3.org/2000/svg" viewBox="0 0 93.91 55.72"><defs><style>.cls-1{fill:#fff;}</style></defs><title>0</title><path class="cls-1" d="M91.77,20.46a3.46,3.46,0,0,0-.83-.2c0-2.43-.47-5.61-3.06-6.38a4.16,4.16,0,0,0-1.2-.18,5.58,5.58,0,0,0-3.77,1.75,2.89,2.89,0,0,0-.85-.82,2.43,2.43,0,0,0-1.31-.37,2.83,2.83,0,0,0-1.13.24,4.14,4.14,0,0,0-.94.57c0-.44,0-.91-.05-1.41C78.39,9.08,76,8.14,75.21,8a3.19,3.19,0,0,0-2.06.19,16.71,16.71,0,0,0-.91-1.78c-1.93-3.23-4-3.91-5.47-3.91a4.74,4.74,0,0,0-.75.06c-3,.5-4.68,2.89-5.3,5.36l-.39,0A4.42,4.42,0,0,0,57,9.16a4.37,4.37,0,0,0-1.13,2.35,3.11,3.11,0,0,0-.69-.07A5.27,5.27,0,0,0,51.82,13a3.25,3.25,0,0,0-.62-.61,3.35,3.35,0,0,0-2.09-.72,4.17,4.17,0,0,0-1.65.36,11.84,11.84,0,0,0,.16-1.92c0-2.28-1-4.1-2.57-4.75a3.17,3.17,0,0,0-1.25-.25,3.4,3.4,0,0,0-.45,0C42.46,2.41,40.62,0,37.64,0l-.48,0c-2.47.21-4.33,1.9-5.25,4.65a3.25,3.25,0,0,0-1.11-.2,3.53,3.53,0,0,0-1.33.28c-1.88.79-2.5,3.67-2.65,6.41a3.53,3.53,0,0,0-.84.25c-1.28.56-2.18,1.85-2.67,3.83,0,.11,0,.22-.08.33a23.37,23.37,0,0,0-4.18-7.49,6.36,6.36,0,0,0-4.51-2.15,5,5,0,0,0-1.66.29A5.15,5.15,0,0,0,10,8.78a6.12,6.12,0,0,0-2.21-.45A4.7,4.7,0,0,0,4.58,9.62c-2.08,2-1.85,5.48-1.46,7.64a4.9,4.9,0,0,0-2.06,1.53c-1.15,1.5-1.37,3.62-.65,6.3A12.93,12.93,0,0,0,11,34.27a5.88,5.88,0,0,0,.2,3.69c1.76,4.58,9.18,7.81,22.07,9.57l0,0a1.72,1.72,0,0,0,.73.19h.28c4.42-.12,7-1,8.43-1.9a35.25,35.25,0,0,0,10,3.78,2.68,2.68,0,0,0-.08,1.29c.34,1.75,2.15,3.7,13,4.8h.18a1.66,1.66,0,0,0,.92-.31h0c.21-.07.79-.19,1.15-.27a31.85,31.85,0,0,0,12.06-4.82c5.09-3.5,4.77-6.13,4.3-7.23a27.82,27.82,0,0,0,4-2.85c3.07-2.64,3.34-5.4,2.28-6.85,0-.06-.1-.13-.16-.19a19.41,19.41,0,0,0,3.16-6.75C94.65,22.11,92.67,20.82,91.77,20.46Zm.48,5.65a18,18,0,0,1-4.06,7.65,1.22,1.22,0,0,1,1.3.46c.7,1,.22,3-2.07,4.93a21.69,21.69,0,0,1-5.54,3.61,1.59,1.59,0,0,1,1.17.82c.27.52.77,2.45-3.77,5.56a30.39,30.39,0,0,1-11.54,4.61,8.87,8.87,0,0,0-1.48.37l-.24.14h0l-.08,0h0c-7.49-.76-11.45-2-11.77-3.66-.17-.9.75-1.63,1.25-2-1.57-.26-8.16-1.5-12.68-4.57-.82.74-3,2.06-8.41,2.2h0a.09.09,0,0,1-.07,0l-.16,0h0l-.06,0-.26-.14c-8.68-1.17-19.24-3.62-21.2-8.71a4.86,4.86,0,0,1,.6-4.45h-.22c-4.41,0-9.68-2.82-11.15-8.28-.6-2.23-.46-3.94.41-5.06a3.71,3.71,0,0,1,2.62-1.35c-.25-.93-1.4-5.65.74-7.65s4.62-.32,5.32.17a4,4,0,0,1,2.49-3.28c1.52-.54,3.22,0,4.67,1.52,2.65,2.74,4.57,8.8,5.14,10.79.21-1.24.8-1.56,1.19-1.63a11.69,11.69,0,0,1,.32-2.65c.38-1.53,1-2.49,1.87-2.87a2.2,2.2,0,0,1,1.65,0c0-1,.08-5.9,1.82-6.63a1.86,1.86,0,0,1,1.46,0,3,3,0,0,1,1.31,1.26c.16-1.37.94-5.54,4.49-5.85,3.78-.32,4.91,4.51,5.12,5.63a2,2,0,0,1,2.11-.42c1.05.43,1.69,1.75,1.69,3.44a12.74,12.74,0,0,1-1.34,5.39,1.78,1.78,0,0,1,.88-.33,7.18,7.18,0,0,1,1.67-1.52,2.47,2.47,0,0,1,2.93-.14,2.8,2.8,0,0,1,1,2.14c.75-1,2.76-3.42,4.7-2.6a1.28,1.28,0,0,1,.71.78,6.3,6.3,0,0,1-.25,3.44,6.59,6.59,0,0,1,2,.79c-1.5-4-1.63-6.6-.41-7.89s3.25-.79,3.82-.63c.09-.87.68-5,4.38-5.58C68,3.65,69.62,4.75,71,7.11a18.81,18.81,0,0,1,1.53,3.38,2.23,2.23,0,0,1,2.33-1.15c1,.25,2.18,1.54,2.34,4.4a14.65,14.65,0,0,1-.49,5.5,2.49,2.49,0,0,1,.52-.3,8.12,8.12,0,0,1,2.92-3.14,1.2,1.2,0,0,1,1.14,0c.75.46,1,1.8,1.1,2.46.62-1,2.66-3.78,5.06-3.06s2.1,5.41,1.93,6.87a1.88,1.88,0,0,1,1.85-.32C91.81,22,93,22.86,92.25,26.11Z"/></svg>