<svg id="圖層_1" data-name="圖層 1" xmlns="http://www.w3.org/2000/svg" viewBox="0 0 161.08 161.32"><defs><style>.cls-1{fill:#fff;}</style></defs><title>0</title><path class="cls-1" d="M96.52,129.91a.77.77,0,0,1,0-.15,2.73,2.73,0,0,1-1.37.34,3.73,3.73,0,0,1-1.59-.37,3.06,3.06,0,0,0-.79-.23c4.4,4.39,8.82,10.26,8.83,16.24,0,4.23-2.18,8-6.52,11.32a15.06,15.06,0,0,1-8.55,2.84,13.91,13.91,0,0,1-9.23-3.69,11.05,11.05,0,0,1-3.63,3.35l-.11-.22a11.06,11.06,0,0,0,3.56-3.3,21.25,21.25,0,0,1-2-2A23.73,23.73,0,0,1,71,147.27a12.08,12.08,0,0,1-3.27,2l-.08-.23a12,12,0,0,0,3.24-2c-2.52-6.35-2.1-13-1.46-18.34-.19.18-.38.37-.6.6-1.88,1.93-3.13,2.22-3.71,2.22a1,1,0,0,1-.36-.05l.09-.23s1.33.43,3.8-2.12c.3-.31.58-.57.83-.8.1-.75.19-1.48.28-2.17.22-1.64.42-3.05.48-4.22a22.39,22.39,0,0,0-.13-3.87h0a30.35,30.35,0,0,0-1.76-6.7c-.82-2.31-1.37-3.83-.19-4.4,1.49-.72,4.75,3.34,7.91,7.26a51.35,51.35,0,0,0,3.84,4.45,74.84,74.84,0,0,0,6.17,5,65.59,65.59,0,0,1,6.44,5.51,3.52,3.52,0,0,1,1.18.29,2.8,2.8,0,0,0,2.94-.08,1.43,1.43,0,0,1,1.14-.88l0,0a1.39,1.39,0,0,0-.94-.55h-.15a1.29,1.29,0,0,0-.87.32,1.24,1.24,0,0,1-.6.14,2.24,2.24,0,0,1-.92-.22,4.48,4.48,0,0,0-1.11-.34,69.05,69.05,0,0,0-6.24-5.3,73.85,73.85,0,0,1-6.06-4.95,52,52,0,0,1-3.72-4.33c-3.91-4.86-6.43-7.84-8.61-7.84a2.25,2.25,0,0,0-1,.22c-2.32,1.13-1.41,3.69-.53,6.16a29.17,29.17,0,0,1,1.7,6.4,20.56,20.56,0,0,1,.11,3.62c-.06,1.1-.24,2.48-.46,4.11-.07.54-.15,1.1-.22,1.67l-.51.51c-1.5,1.55-2.36,1.69-2.5,1.71l-.28,0a1.41,1.41,0,0,0-1.33.92l-.09.24a1.42,1.42,0,0,0,.83,1.82,2.56,2.56,0,0,0,.86.14,4.88,4.88,0,0,0,2.55-.85,35.27,35.27,0,0,0,1.53,14.47,10.84,10.84,0,0,1-2,1.16,1.41,1.41,0,0,0-.84,1.81l.08.23a1.42,1.42,0,0,0,1.78.87,12.61,12.61,0,0,0,2.25-1.17A25.26,25.26,0,0,0,74.12,155c.36.41.73.81,1.11,1.19a9.85,9.85,0,0,1-2.32,1.89,1.43,1.43,0,0,0-.59,1.91l.12.22a1.41,1.41,0,0,0,1.26.76,1.35,1.35,0,0,0,.64-.16,12.56,12.56,0,0,0,3.22-2.61,14.9,14.9,0,0,0,9,3.11A16.57,16.57,0,0,0,96,158.19c4.71-3.56,7.09-7.75,7.08-12.46,0-4.5-2.23-9.34-6.6-14.4a4.24,4.24,0,0,0,.47-.17,1.43,1.43,0,0,1-.39-1Z"/><path class="cls-1" d="M160.81,138a6.42,6.42,0,0,0-1.36-1.39c-.29-9.94-3.28-18.1-8.89-24.28A50.91,50.91,0,0,0,141,104l0,0a1.43,1.43,0,0,0-.49-1.94,4,4,0,0,0-3.23-.39,20.83,20.83,0,0,1-4.22-3.35,14.21,14.21,0,0,1-2.13-3c-1-1.85-1.79-3.49-2.52-4.94-2.39-4.8-3.59-7.21-5.85-7.21a3,3,0,0,0-.78.11,2.88,2.88,0,0,0-1.91,1.75c-.85,2.11.3,5.87,3.41,11.16a22,22,0,0,1,3.38,9.94,27.46,27.46,0,0,1-.45,7.07c-1.5.65-2.84,1.89-2.88,3.23a1.41,1.41,0,0,0,1.37,1.46h.3a1.53,1.53,0,0,0,.3,0,49.08,49.08,0,0,0-.54,5.93,76.13,76.13,0,0,0-9.4-9c-1.8-1.54-3.66-3.12-5.38-4.78-.62-.59-1.22-1.19-1.81-1.79a76,76,0,0,1-5.54-6.46C100.86,99.33,99.85,98,98.29,98a2.9,2.9,0,0,0-.6.07,3.12,3.12,0,0,0-2,1.41c-1,1.62-.37,3.89.63,7.66a88.32,88.32,0,0,1,2.18,10,67.27,67.27,0,0,1,.73,8.13c0,.64.06,1.28.1,1.91l-.24.41a1.41,1.41,0,0,1-1.14.85h-.18l.14.17a1.46,1.46,0,0,1,.31,1,1.15,1.15,0,0,1-.06.17,2.81,2.81,0,0,0,2.18-1.58,5.48,5.48,0,0,1,.44-.69c-.06-.77-.11-1.55-.13-2.35a68.09,68.09,0,0,0-.75-8.29,88.63,88.63,0,0,0-2.21-10.2c-.87-3.29-1.44-5.46-.78-6.57A1.69,1.69,0,0,1,98,99.49c1-.24,1.85.87,3.57,3.08a77.57,77.57,0,0,0,5.64,6.56c.59.61,1.21,1.22,1.84,1.83,1.75,1.68,3.63,3.28,5.44,4.83,4.15,3.53,8.38,7.14,11.76,12.17a47.5,47.5,0,0,1,1-12.41c.08-.38.14-.73.22-1.1-1.38.41-2.39,1.42-2.4,1.94h-.25c0-.7,1.22-1.82,2.7-2.21a30.36,30.36,0,0,0,.63-8.25,23.45,23.45,0,0,0-3.57-10.55c-2.76-4.69-4-8.3-3.33-9.92a1.5,1.5,0,0,1,1-.91c1.57-.45,2.71,1.83,5,6.37.73,1.46,1.55,3.11,2.54,5a15.84,15.84,0,0,0,2.33,3.33,25.06,25.06,0,0,0,5.13,4,2.62,2.62,0,0,1,2.64,0l-.13.22a2.36,2.36,0,0,0-2.28-.08l.29.18a51.65,51.65,0,0,1,11.78,9.71c7,7.64,8.43,16.95,8.54,24.1a4.83,4.83,0,0,1,1.61,1.44l-.2.15a4.57,4.57,0,0,0-1.41-1.3c0,2.73-.14,5.14-.27,7v.08c-.21,3-1.22,10.4-6,12.89a7.53,7.53,0,0,1-3.6.85c-2.39,0-5.19-.93-8.35-2.79a24.81,24.81,0,0,1-9.79-11.08,14,14,0,0,1-5.23,6A13.81,13.81,0,0,1,117.4,153a8.52,8.52,0,0,1-6-2.24,34.23,34.23,0,0,1-10.57-22.65c-.09.13-.17.25-.26.4a3.07,3.07,0,0,1-2.48,1.72,1.4,1.4,0,0,1-.38.52,3.33,3.33,0,0,1-.78.45l0,0a1.4,1.4,0,0,0,1,.43,4.11,4.11,0,0,0,1.81-.45,35,35,0,0,0,10.64,20.58,9.94,9.94,0,0,0,7,2.64,15.27,15.27,0,0,0,8.23-2.61,15.9,15.9,0,0,0,4.4-4.24,25.36,25.36,0,0,0,9.12,9.35c3.37,2,6.42,3,9.07,3a9,9,0,0,0,4.26-1c5.37-2.83,6.48-10.77,6.72-14.13.08-1.19.19-2.69.24-4.37h0a1.41,1.41,0,0,0,.84-.28l.21-.14A1.43,1.43,0,0,0,160.81,138Z"/><path class="cls-1" d="M98.07,130.19h-.14v-.25h.21a1.15,1.15,0,0,0,.06-.17,1.46,1.46,0,0,0-.31-1l-.14-.17a1.43,1.43,0,0,0-1.14.88h0l.16.2a2,2,0,0,1-.26.15.77.77,0,0,0,0,.15v.25a1.43,1.43,0,0,0,.39,1,3.33,3.33,0,0,0,.78-.45A1.4,1.4,0,0,0,98.07,130.19Z"/><path class="cls-1" d="M96.8,129.61l-.16-.2h0a1.4,1.4,0,0,0-.08.34A2,2,0,0,0,96.8,129.61Z"/><path class="cls-1" d="M97.93,130.19h.14a1.12,1.12,0,0,0,.08-.26h-.21Z"/><path class="cls-1" d="M64.86,103.15a2.2,2.2,0,0,0,1.5-.59,2.34,2.34,0,0,0,.71-2c-.16-1.65-1.64-3.54-4.19-5.43.33-.34.68-.68,1-1A14.49,14.49,0,0,0,68,88.42,12.82,12.82,0,0,0,72.59,93,11.2,11.2,0,0,0,78,94.51c3.83,0,6.64-2.28,8.48-4,.15.31.28.68.43,1.06.66,1.71,1.65,4.29,4.27,4.82a4.09,4.09,0,0,0,.85.09,3.16,3.16,0,0,0,3-1.85c.46-1.09.31-2.81-1.59-4.1a4.85,4.85,0,0,1-1.21-1.82c-.12-.25-.25-.51-.4-.78a10.22,10.22,0,0,0,6-3.82c2.3-3.08,1.62-6.24.83-9.89a32.79,32.79,0,0,1-1-7c0-.14,0-.26,0-.4a21.34,21.34,0,0,1-1.52-2c.07.77.12,1.58.12,2.42a33,33,0,0,0,1,7.27c.74,3.45,1.33,6.18-.58,8.74s-4.33,3.11-6.47,3.62l-.75.19A7.15,7.15,0,0,1,91,89.36a5.85,5.85,0,0,0,1.68,2.37c1.2.8,1.34,1.75,1.08,2.37a1.74,1.74,0,0,1-1.68,1,2.31,2.31,0,0,1-.57-.06c-1.86-.37-2.62-2.35-3.23-3.94-.16-.42-.31-.83-.48-1.18a3.18,3.18,0,0,0-1.23-1.36l-.37.35c-1.68,1.6-4.41,4.2-8.15,4.2a9.62,9.62,0,0,1-4.75-1.35c-2.79-1.55-4.27-4.31-5.69-7-.1-.18-.2-.36-.29-.55a11.14,11.14,0,0,1-.37,3c-.74,2.7-2.39,4.29-4,5.83a21.88,21.88,0,0,0-2.18,2.31c3.43,2.21,4.79,4.17,4.9,5.31a.94.94,0,0,1-.26.83.76.76,0,0,1-.54.22h-.07c-.74,0-1.72-1.07-3.15-2.82a4.31,4.31,0,0,0-2.15-1.53c-.28.58-.56,1.23-.86,1.91-1.65,3.84-3.92,9.11-10.55,10.44a10.2,10.2,0,0,1-2,.2c-3.27,0-5.09-1.92-7-4s-3.86-4.09-7.45-4.26c-4.27-.21-7.08-3.17-10.06-6.3-2.63-2.76-5.34-5.62-9.4-7.26C1.36,83.77.93,78.83,1.64,76.28c1.72-6.2,7.46-7.07,13.41-7.1,5.19,0,6.73-1.1,11.6-6.12a7.62,7.62,0,0,1,6-2.7c3.63.24,6.84,3.58,8.9,6.34A8,8,0,0,0,44,68.92a26.41,26.41,0,0,1-2.5-9.61c-.32-3-.37-5.16-.4-6.71-.07-3.26-.1-4.48-2.4-7.72-3.46-4.89-5-8.48-2.34-12.37,3-4.51,8.76-4.93,12.62-3,4.34,2.14,9.87,2.44,17.39.94a8.6,8.6,0,0,1,6.92,1.42c2.44,1.74,5.61,6.06,6.49,12.53C80.56,50,83,51,88.19,53.08a12,12,0,0,1,5.57,4.43,11.31,11.31,0,0,1,.19-2.1,13.75,13.75,0,0,0-5.23-3.64c-5.14-2.09-6.87-2.8-7.53-7.6-1-6.91-4.41-11.58-7.08-13.48A9.84,9.84,0,0,0,68.3,28.8a11.29,11.29,0,0,0-2.21.23,41.69,41.69,0,0,1-8.12.91,18.63,18.63,0,0,1-8.37-1.73A12.08,12.08,0,0,0,44.3,27a10.77,10.77,0,0,0-9.12,4.72c-3.38,5-.68,9.67,2.37,14,2.05,2.89,2.06,3.74,2.13,6.94,0,1.57.08,3.73.41,6.82.15,1.46.35,2.79.59,4-2.12-2.27-4.86-4.31-8-4.51l-.51,0a9.15,9.15,0,0,0-6.59,3.15c-4.67,4.8-5.88,5.66-10.58,5.68-6.2,0-12.8,1-14.78,8.14-.83,3-.46,8.77,11.4,13.57,3.78,1.53,6.38,4.27,8.9,6.93,3,3.2,6.19,6.5,11,6.74,3,.14,4.61,1.84,6.48,3.82s4.15,4.39,8,4.39a11.91,11.91,0,0,0,2.24-.23c7.37-1.47,9.91-7.37,11.58-11.27l.21-.48a4.28,4.28,0,0,1,.4.44c1.8,2.18,2.87,3.24,4.19,3.34Z"/><path class="cls-1" d="M98,49.29c2.72-4.4,3.18-5.79,1.95-10.52C99.09,35.29,98.3,28.6,103.2,23a24.29,24.29,0,0,1,6.21-4.8c2.52-1.53,4.9-3,6.58-5.83a24.34,24.34,0,0,1,9.24-9c3-1.57,7.46-3,12.18-.93a9.62,9.62,0,0,1,5.38,5.91c2.72,7.85-2.07,19.66-4.15,23.55L138.06,33c-2.94,5.45-4.41,8.19-.68,13.43a15.81,15.81,0,0,1,2.35,12A9.85,9.85,0,0,1,135.31,65c-3,1.77-6,1.62-8.84,1.48a20.45,20.45,0,0,0-6,.33c1.33,4.92,1.08,8.68.12,9.78a.92.92,0,0,1-.7.35h-.12c-1.5-.22-1.31-2.65-1.18-4.43,0-.21,0-.42,0-.61a9.46,9.46,0,0,0-.74-4.14c-3.11,1.34-6.61,2.84-10.11,2.84a10.89,10.89,0,0,1-8.46-4,22,22,0,0,1-1.77-2.27c.09.81.14,1.66.15,2.54.19.23.36.45.56.67A12.39,12.39,0,0,0,107.77,72,24.51,24.51,0,0,0,117,69.69a7.35,7.35,0,0,1,.2,2.15l0,.58c-.16,2.07-.42,5.52,2.4,6l.31,0a2.34,2.34,0,0,0,1.77-.84c1.32-1.51,1.51-5.19.54-9.59a17,17,0,0,1,2-.1c.75,0,1.5,0,2.24.07s1.62.08,2.43.08A13.74,13.74,0,0,0,136,66.26a11.28,11.28,0,0,0,5.1-7.56,17.29,17.29,0,0,0-2.59-13.09c-3.21-4.52-2.13-6.54.78-11.93l.58-1.1c.08-.14,7.72-14.65,4.24-24.69A11,11,0,0,0,138,1.15,13.6,13.6,0,0,0,132.5,0a16.93,16.93,0,0,0-7.94,2.13,25.93,25.93,0,0,0-9.8,9.55c-1.49,2.54-3.62,3.83-6.1,5.33a26.08,26.08,0,0,0-6.53,5.07c-5.33,6.08-4.49,13.29-3.51,17.05,1.11,4.27.78,5.25-1.79,9.42A19.84,19.84,0,0,0,94,55.41a13.56,13.56,0,0,1,1.23,1.67A16.15,16.15,0,0,1,98,49.29Z"/><path class="cls-1" d="M93.76,57.51a15.61,15.61,0,0,1,2.41,7.34,21.34,21.34,0,0,0,1.52,2c0-.88-.06-1.73-.15-2.54a12.06,12.06,0,0,1-2.36-7.25A13.56,13.56,0,0,0,94,55.41,11.31,11.31,0,0,0,93.76,57.51Z"/><path class="cls-1" d="M96.17,64.85a15.61,15.61,0,0,0-2.41-7.34A13.16,13.16,0,0,0,96.17,64.85Z"/><path class="cls-1" d="M97.54,64.33a16.79,16.79,0,0,0-2.36-7.25A12.06,12.06,0,0,0,97.54,64.33Z"/></svg>