<svg id="圖層_1" data-name="圖層 1" xmlns="http://www.w3.org/2000/svg" viewBox="0 0 183.65 130.75"><defs><style>.cls-1{fill:#fff;}</style></defs><title>0</title><path class="cls-1" d="M131.21,62.45h.06s0,0,0,0Z"/><path class="cls-1" d="M55.57,61.81l.56.07c0-.13-.08-.25-.12-.39Z"/><path class="cls-1" d="M92.79,47.86l-.5,0a5,5,0,0,1,.57.46C92.84,48.15,92.81,48,92.79,47.86Z"/><path class="cls-1" d="M120.78,39.35a10.61,10.61,0,0,1,.51-1,7.56,7.56,0,0,1-.73.77Z"/><path class="cls-1" d="M112,15.39a2,2,0,0,1-.88-.89,3,3,0,0,1,.41-2.64c2.27-4.22,4.77-4.6,6.47-4.18a3.29,3.29,0,0,1,2.18,2,6.18,6.18,0,0,1-.46,5.33,3.34,3.34,0,0,1-2.13,1.85,2.71,2.71,0,0,1-.69.08,3.35,3.35,0,0,1-.92-.13,4.51,4.51,0,0,1,.07,1.47,4.63,4.63,0,0,0,.85.08,4.31,4.31,0,0,0,1-.12,4.68,4.68,0,0,0,3-2.56,7.61,7.61,0,0,0,.5-6.58,4.64,4.64,0,0,0-3.13-2.74,5.62,5.62,0,0,0-1.41-.18c-1.79,0-4.4.88-6.65,5.06a4.28,4.28,0,0,0-.45,3.91,3.32,3.32,0,0,0,1.27,1.4A5.45,5.45,0,0,1,112,15.39Z"/><path class="cls-1" d="M117.19,57.61a4.56,4.56,0,0,1-1.34,1c0,1.46.19,2.8.31,3.78v0l1.73.76h0a2.53,2.53,0,0,1,.67-1.83,11.37,11.37,0,0,0,1.16-1.6,10.87,10.87,0,0,1,2.85-3.27c1.87-1.33,5.12-1.18,6.07-1.1l-.63-1a31.6,31.6,0,0,0-5.18-5.75l0,.09a5.63,5.63,0,0,1-.78,4.56,7.09,7.09,0,0,1-2.3,2.19A16,16,0,0,0,117.19,57.61Zm1.37,1.33a10.28,10.28,0,0,1-1,1.39c-.06.07-.12.13-.17.2l-.09-1.17a6,6,0,0,0,.9-.76,13.43,13.43,0,0,1,1.52-1.33C119.26,57.85,118.89,58.43,118.56,58.94Zm4.76-4.9a7.94,7.94,0,0,0,.93-2.1c.64.68,1.22,1.34,1.73,2a10.51,10.51,0,0,0-3.12.74A6.58,6.58,0,0,0,123.32,54Z"/><path class="cls-1" d="M42.58,40.52c.29-.27.58-.56.9-.84.84-.76,2.79-.69,4.73.17.24.11.49.24.73.37l-1.11-2.06c-.74-1.36-1.45-2.68-2.08-3.92l0,0a5.37,5.37,0,0,1-5.31,3.63,9.69,9.69,0,0,1-1.2-.09c.8.8,1,2.67,1.1,4.48A9.28,9.28,0,0,0,42.58,40.52Zm3.07-3.42.36.68a6.78,6.78,0,0,0-.77-.05H45A7.84,7.84,0,0,0,45.65,37.1Zm-3.74,2.1-.44.43c0-.12,0-.24-.07-.35Z"/><path class="cls-1" d="M183.6,123.12a132.32,132.32,0,0,0-8.94-22.8A151,151,0,0,0,161,78.39c-5.38-7-10.38-11.57-14.9-13.63a13.68,13.68,0,0,0,1.24-1.38,4.41,4.41,0,0,0,.52,0l.61,0a11.39,11.39,0,0,0,3.62-1.12,4.78,4.78,0,0,1,2.19-.64c1.4,0,4-.28,5.53-2.18a5.24,5.24,0,0,0,.9-4.64c-.14-.62-.31-1.18-.46-1.71a4.35,4.35,0,0,1-.34-1.91,5.93,5.93,0,0,0-.39-4.79,3.79,3.79,0,0,0-2.67-1.68,4.15,4.15,0,0,0-.79-.07A8.11,8.11,0,0,0,154,45a6.93,6.93,0,0,0,2.77-4.07c.53-2,1-2.42,1.6-3l.25-.22a5.68,5.68,0,0,0,1.58-3.87,4.2,4.2,0,0,0-1.35-3.13,4.71,4.71,0,0,0-3.15-1.3,4.06,4.06,0,0,0-.92.11,4.13,4.13,0,0,0-2.83,2.54,6,6,0,0,1-.92-.15,8.43,8.43,0,0,0-1.66-.22,3.37,3.37,0,0,0-1.69.43l-.81.43-.15.08c0-1,0-1.88.07-2.74l.39-.19a3.42,3.42,0,0,1,.76-.3c.17,0,.39.07.66.13a11.78,11.78,0,0,0,2.75.39,5.24,5.24,0,0,0,4.56-2.31A6.4,6.4,0,0,0,157,23.14a4.24,4.24,0,0,1,.52-2.73c1.14-2,.89-4.05-.66-5.28a4.59,4.59,0,0,0-2.86-1,4.71,4.71,0,0,0-3,1,2.53,2.53,0,0,0,.07-.38,35.24,35.24,0,0,0,.25-4.27c0-.58,0-1.13,0-1.66.07-1.49-.94-3-2.69-3.92a7,7,0,0,0-3.26-.87,4.34,4.34,0,0,0-2.55.76c-2.16,1.55-5.45,6-5.27,8.45.13,1.76,1.85,3.66,3.78,5.61,0,.09,0,.18,0,.27-.93-1.2-3.1-3.54-5.81-3.54a4.4,4.4,0,0,0-2.62.86A6.56,6.56,0,0,0,130,21.05a5.24,5.24,0,0,0,1.49,4.15,7.35,7.35,0,0,1,1.3,2.05,8.09,8.09,0,0,0,1.11,1.86,2.88,2.88,0,0,0-.78.11,5.45,5.45,0,0,0-3.4,2.07h-.46l-.49,0c-2.13.14-5.68.36-6,4.06a4,4,0,0,1-.56,1.54,6.79,6.79,0,0,0-.13-4.93,6.45,6.45,0,0,1-.36-1.68,5.2,5.2,0,0,0-.46-2.24,5.37,5.37,0,0,1,.94-.9A3.26,3.26,0,0,0,123.55,25c.22-1.74-1.09-3.34-2-4.51-.22-.27-.44-.54-.6-.77-.64-.92-1.81-1.37-3.57-1.37a11.6,11.6,0,0,0-1.28.07.66.66,0,0,1,0-.14,5.91,5.91,0,0,1-1.4-.45,10,10,0,0,1-.47,2.34,10.76,10.76,0,0,1,1.13-.23c1.35-.21,3.71-.42,4.42.59.17.26.42.55.67.87.84,1,1.87,2.28,1.73,3.42a1.82,1.82,0,0,1-.8,1.25,8.37,8.37,0,0,0-1.59,1.63l-.24.29a3.61,3.61,0,0,1,.77,2.33,7.5,7.5,0,0,0,.42,2.13c.39,1.3.8,2.64.16,4a6,6,0,0,1-2.72,2.72c1.15.81,2.34,1.73,3.55,2.75a5.41,5.41,0,0,1,1.19-3.39,6.87,6.87,0,0,0,1.28-3c.24-2.49,2.62-2.64,4.71-2.77l.51,0a2.12,2.12,0,0,1,1.13.26c.53-1.69,1.78-2,3-2.38.95-.26,2,.49,3,1.27A10.55,10.55,0,0,0,139,33.33a6.35,6.35,0,0,1,3.06,3c0-2.48,0-4.84,0-7a9.68,9.68,0,0,1-2.94.48,6.27,6.27,0,0,1-2.54-.49,4.57,4.57,0,0,1-2.5-2.7,8.8,8.8,0,0,0-1.54-2.41,3.83,3.83,0,0,1-1.12-3,5.19,5.19,0,0,1,2.29-3.54c2.26-1.62,5,.37,6.61,2.56,1,1.38,1.69,2.16,2,2.49a19.82,19.82,0,0,1,.64-4.2l-.45-.46c-1.27-1.28-3.39-3.42-3.5-4.85-.13-1.68,2.73-5.79,4.69-7.19,1.17-.83,3-.5,4.3.21A3.15,3.15,0,0,1,150,8.81c0,.55,0,1.12,0,1.73a33.89,33.89,0,0,1-.23,4.08c-.21,1.61-2.87,3.33-4.66,3.92a8.47,8.47,0,0,1,.48,2.76c.09,0,.16-.1.26-.14a13.76,13.76,0,0,0,5.09-3.82c.36-.38.68-.71,1-1a3.37,3.37,0,0,1,4.15-.14c1,.8,1.1,2.06.3,3.48a5.66,5.66,0,0,0-.7,3.51,5,5,0,0,1-.87,3.6c-1.6,2.32-4.25,1.7-5.83,1.34a8.1,8.1,0,0,0-.81-.16,3.06,3.06,0,0,0-1.55.44,4.77,4.77,0,0,1-1.15.44c-.07,1.94-.12,4.06-.09,6.27a15.52,15.52,0,0,1,2.22-1.33c.32-.17.61-.32.86-.47a3.46,3.46,0,0,1,2.36,0c1.11.23,2.08.43,2.49-.64a2.69,2.69,0,0,1,1.87-1.76,3.1,3.1,0,0,1,2.79.86,2.74,2.74,0,0,1,.88,2.08,4.26,4.26,0,0,1-1.11,2.82l-.26.23c-.71.62-1.37,1.19-2,3.64A5.37,5.37,0,0,1,152.88,44a3.8,3.8,0,0,1-1.84.48,3.67,3.67,0,0,1-1.14-.18,11.32,11.32,0,0,1-4.37-3.61A74.35,74.35,0,0,1,145.8,49a4.53,4.53,0,0,1,2.41-1,20.94,20.94,0,0,0,4.41-1.07,9.41,9.41,0,0,1,4-.75,2.4,2.4,0,0,1,1.72,1.06,4.63,4.63,0,0,1,.22,3.65,5,5,0,0,0,.34,2.69c.14.47.3,1,.43,1.61a3.9,3.9,0,0,1-.6,3.44c-1.29,1.58-3.74,1.65-4.46,1.65a6.17,6.17,0,0,0-2.77.77,9.85,9.85,0,0,1-3.18,1l-.45,0a2.65,2.65,0,0,1-1.09-.24,12.44,12.44,0,0,1-2.26,2.53l-.2,1.28c4.6,1.62,9.82,6.21,15.57,13.69a149.13,149.13,0,0,1,13.5,21.7,129.74,129.74,0,0,1,8.84,22.54.14.14,0,0,1,0,.12.15.15,0,0,1-.11,0,7.41,7.41,0,0,0-3.58.23,13.86,13.86,0,0,0-4.14,2.26c-1.86,1.37-3.48,2.55-7.87,1.6-6.82-1.47-8.14-1.64-14.83,1a8.94,8.94,0,0,1-3.29.6,13.54,13.54,0,0,1-3.09-.39.16.16,0,0,1-.08-.06,168,168,0,0,1-9.68-20A79.64,79.64,0,0,1,130,86.32a39.68,39.68,0,0,1,.53-11.74c-.64-.32-1.32-.63-2-.94a6,6,0,0,1-2.35,4.17,10.41,10.41,0,0,0-2.76,3.45l-.22.4a78.33,78.33,0,0,1,3.65,11.21,72.35,72.35,0,0,1,1.67,10,.14.14,0,0,1,0,.09.11.11,0,0,1-.09,0c-.51,0-1,.06-1.41.11a18.55,18.55,0,0,0-6.24,1.93,11.57,11.57,0,0,1-5.19,1.45,11.41,11.41,0,0,1-2.57-.31,30.1,30.1,0,0,1-4.56-1.5c-3.13-1.23-5.6-2.21-10.7.07A14,14,0,0,1,92.44,106c.42,1.47.78,2.78,1.06,3.85a128.36,128.36,0,0,1,2.87,14.33.16.16,0,0,1,0,.09.1.1,0,0,1-.08,0,30.7,30.7,0,0,1-9.48-.73,28.24,28.24,0,0,0-7.16-.73,13.89,13.89,0,0,0-6.14,2.08,11.07,11.07,0,0,1-5.63,1.82h-.41c-1.91-.08-3.31-1.12-5.1-2.43a24.52,24.52,0,0,0-5.59-3.33.12.12,0,0,1-.08-.1c-2-14.15-2.85-25.1-2.51-33.45a59.82,59.82,0,0,1,.73-7.48A29.75,29.75,0,0,0,51.39,75l-.22,0c-1.46,5.84-6.55,6.5-9.32,6.86l-.65.08a7,7,0,0,0-2.68,1.28,5.58,5.58,0,0,1-2.9,1.24A2.67,2.67,0,0,1,34.07,84a4.32,4.32,0,0,1-2-3.42,4.36,4.36,0,0,1,2-3.55,7.52,7.52,0,0,0,2.54-4,8.94,8.94,0,0,1,2-3.52,8.11,8.11,0,0,1,5.62-1.91c-.88-.8-1.81-1.63-2.83-2.5-1.57-1.35-3.26-2.64-5-3.88a7.35,7.35,0,0,1-.45,1.58,11.26,11.26,0,0,0-.77,3,6.94,6.94,0,0,1-2.42,4.8,6,6,0,0,1-4.57,1.13,13.32,13.32,0,0,0-5.45.91,12.16,12.16,0,0,1-3.26.73,2.08,2.08,0,0,1-1.73-.74,2.82,2.82,0,0,1-.56-2.32C17.46,68.21,19.38,66.1,21,65A6.2,6.2,0,0,0,23,62.63c.82-1.47,1.66-3,4.63-3.35a18.26,18.26,0,0,0,3.9-.92l.47-.15c-2.88-1.86-5.75-3.57-8.31-5.09l-2.28-1.36-.81,5.63c-.48,3.35-2.77,5.2-6,4.85a3.87,3.87,0,0,0-2.84.71,2.88,2.88,0,0,1-1.6.59,3.13,3.13,0,0,1-1.09-.23C7.57,62.77,5.82,61.6,5.36,60a3.41,3.41,0,0,1,.79-3.12c2.18-2.81,7.23-6.21,11.2-7.61a22.62,22.62,0,0,1-3.61-2.78c-.24.42-.54.92-.93,1.52-.9,1.38-2.8,1.81-5.08,1.81a34.35,34.35,0,0,1-3.94-.29c-2.57-.31-2.48-1.74-2.3-4.87.06-1.17.15-2.62.12-4.37-.09-6.58,4.31-7,7.51-7.23h.05c2.74-.24,3.33,1.59,4.23,4.34.21.65.45,1.39.74,2.15a9.8,9.8,0,0,1,.77,3.82,14.48,14.48,0,0,1,2.67.89,11,11,0,0,1-.11-7.31,6,6,0,0,0,.24-2.58c-.06-1.44-.12-2.93,1.09-4.07,1.5-1.41,3.59.47,5.79,2.47.82.74,1.66,1.5,2.48,2.1a5.15,5.15,0,0,1,2.25,4.36A4.58,4.58,0,0,1,27.07,43a9.37,9.37,0,0,0-3,3.13,11.72,11.72,0,0,1-.72,1c2.26,1.25,4.65,2.67,7,4.07,0-.12,0-.22,0-.34,0-.51,0-1.09,0-1.74a14.69,14.69,0,0,1,1.55-6.35c.27-.67.56-1.36.85-2.16,1.08-2.9,2.77-3.19,4.48-3.2-.61-.17-1.19-.35-1.68-.51l-.09,0a3.7,3.7,0,0,1-2.33-1.78c-.51-1-.45-2.34.17-4.19.95-2.83,4.18-2.81,6.73-2.29A11.4,11.4,0,0,1,44,30.27a7,7,0,0,1-.55-3.07,12.17,12.17,0,0,1-2.13-1c-.55-.3-1.18-.65-2-1-2.78-1.4-3.79-4.22-3.16-8.88.21-1.55.72-2.54,1.57-3,1.35-.75,3.36,0,5.34.83l.67.3c2.83,1.23,3.06,1.33,3.06,6.43a11.78,11.78,0,0,1-.94,5.33A10.27,10.27,0,0,1,48,28.49a13.17,13.17,0,0,0,1.1-3.86A20.52,20.52,0,0,1,50,20.77c1.13-2.87,3.16-2.2,5.5-1.42l.3.09c1.3.43,1.36,1.33,1.46,2.82A19.94,19.94,0,0,0,57.62,25a6.4,6.4,0,0,1-1,4.88,5.61,5.61,0,0,1-3.71,2.38,7.64,7.64,0,0,1-1.26.1,7.34,7.34,0,0,1-1.34-.12c1,1.78,2,3.8,3,5.88a7.88,7.88,0,0,1,.85-1.85A3.28,3.28,0,0,1,57.12,35a3.1,3.1,0,0,0,2-.57,5.6,5.6,0,0,0,1-2.11c.39-1.15.8-2.35,1.58-2.68a1.34,1.34,0,0,1,1.13.08c2,.95,2.82,2.3,3,5.45a11.38,11.38,0,0,1,4.35,4.13c1-3.93,1.77-7.57,2.41-10.68A9.81,9.81,0,0,1,67.82,30h-.18A3.29,3.29,0,0,1,65,28.32a6.74,6.74,0,0,1-.88-6,9.67,9.67,0,0,0,.65-3.64c0-1.34.1-2.49.83-3.27A2.59,2.59,0,0,1,68,14.53c.79.16,1.9.83,2.73,3.09A10.8,10.8,0,0,0,74,22.19a18.51,18.51,0,0,1,1.7-5.07,6.18,6.18,0,0,1-3.24-5.27c0-1.77,1.25-2.73,2.59-3.75a7.79,7.79,0,0,0,2.63-2.78,2.71,2.71,0,0,1,2-1.66,5.2,5.2,0,0,1,4.14,1.62c1.37,1.41,1,4.75-1,8.53-1.51,2.89-3.2,3.75-4.44,3.93a18.39,18.39,0,0,1-.53,5.38,8.09,8.09,0,0,1,3.14-1,2.76,2.76,0,0,0,2.31-1.65,10.35,10.35,0,0,1,1.22-1.66,2.84,2.84,0,0,1,2.14-1h0a5,5,0,0,1,3.38,1.69c.81.84,1.36,3.71,0,5.25a25.8,25.8,0,0,0-1.6,2.09,28.08,28.08,0,0,1-3.72,4.49,3.37,3.37,0,0,1-2.37.95,8.78,8.78,0,0,1-2.7-.61A8.77,8.77,0,0,0,77.07,31a2.69,2.69,0,0,1-1-.2c-.57,2.32-1.14,4.73-1.66,7.17a6.31,6.31,0,0,1,1.35-.5c1-.23,1.74-.35,2.44-.46,1.43-.22,2.37-.37,3.19-1.23a3.83,3.83,0,0,1,3-1,2.25,2.25,0,0,1,.16-.31c1.66-2.66,4-3.16,7.33-1.52a6.17,6.17,0,0,1,2.38,2.16c-.46-3.71-1-7-1.52-9.94C92,21,91.46,18,91.68,16.08a4.24,4.24,0,0,1-1.47.27,4.28,4.28,0,0,1-1.44-.25,7.48,7.48,0,0,1-4.22-4.58c-.32-1.19.21-2.19.83-3.35a7.85,7.85,0,0,0,1.24-3.93,2.73,2.73,0,0,1,.94-2.42c1.15-.82,3.23-.23,4.9.37a6.25,6.25,0,0,1,4.26,7.65,9.77,9.77,0,0,1-2.57,4.57,8.14,8.14,0,0,1,1.74,3.48,8.88,8.88,0,0,1,1.86-1.78l.86-.63c2.19-1.63,3.77-2.81,5.37-3a2.83,2.83,0,0,1,2.18.58,3.76,3.76,0,0,1,1.21,2.78,3.94,3.94,0,0,1,0,.84,4.49,4.49,0,0,1,1.32,1.09,25.87,25.87,0,0,1,2,2.78,18.14,18.14,0,0,1,1.73-3.43,5.68,5.68,0,0,1-1.3-.6,12.43,12.43,0,0,0-.69,1.18c-.21-.28-.44-.57-.67-.84a5.88,5.88,0,0,0-1-.92c0-.07,0-.14,0-.21a5.13,5.13,0,0,0-1.72-3.77A4.17,4.17,0,0,0,104.4,11a4.12,4.12,0,0,0-.6,0c-2,.25-3.67,1.52-6.11,3.33l-.78.58-.47.36a6.9,6.9,0,0,0-.45-.86,11,11,0,0,0,2.1-4.29A7.68,7.68,0,0,0,92.94.85,12.36,12.36,0,0,0,89.07,0a4,4,0,0,0-2.33.66,4.08,4.08,0,0,0-1.53,3.58,4.07,4.07,0,0,1,0,.5,4,4,0,0,0-.37-.45A7,7,0,0,0,80.17,2.2a3.84,3.84,0,0,0-.76.07,4.06,4.06,0,0,0-3.07,2.46A6.56,6.56,0,0,1,74.15,7C72.73,8,71,9.38,71,11.86a7.48,7.48,0,0,0,2.84,5.73c-.2.5-.4,1.07-.6,1.75a9.26,9.26,0,0,1-1.17-2.2c-1-2.88-2.63-3.77-3.78-4a3.54,3.54,0,0,0-.73-.07,4.1,4.1,0,0,0-3,1.36c-1.09,1.16-1.15,2.69-1.22,4.18a8.15,8.15,0,0,1-.52,3.1,8,8,0,0,0,.58,6.73,3,3,0,0,0-1.27-.3,2.46,2.46,0,0,0-1,.21c-1.37.58-1.9,2.14-2.37,3.53a7.46,7.46,0,0,1-.63,1.53,3,3,0,0,1-1.13.18A4.9,4.9,0,0,0,53.4,35c-.23-.44-.45-.87-.67-1.28l.42-.06a7,7,0,0,0,4.64-3,7.81,7.81,0,0,0,1.22-6,18.78,18.78,0,0,1-.3-2.55c-.1-1.57-.22-3.34-2.43-4.07L56,18a11,11,0,0,0-3.34-.74c-1.83,0-3.15,1-3.93,3a14.41,14.41,0,0,0-.53,1.7c0-.36,0-.74,0-1.14,0-5.47-.37-6.19-3.92-7.73l-.66-.29a11.76,11.76,0,0,0-4.55-1.27,4,4,0,0,0-2,.5c-1.26.7-2,2-2.28,4-.71,5.27.57,8.65,3.92,10.34.54.27,1,.52,1.42.74a14,14,0,0,0-2.47-.25c-3.89,0-5.21,2.21-5.65,3.53-.75,2.23-.78,3.91-.1,5.27a4.41,4.41,0,0,0,1.35,1.58,7,7,0,0,0-1.79,2.82c-.29.78-.56,1.46-.84,2.12a16.57,16.57,0,0,0-1.65,6.48c-1.3-.77-2.46-1.45-3.52-2.05a7.45,7.45,0,0,1,2.4-2.47,6,6,0,0,0,2.92-4.93,6.56,6.56,0,0,0-2.83-5.55c-.76-.56-1.57-1.29-2.37-2C23.65,30,21.87,28.37,20,28.37a3.09,3.09,0,0,0-2.16.88c-1.68,1.58-1.6,3.56-1.54,5.15a5,5,0,0,1-.13,2,9.87,9.87,0,0,0-.62,2.85c0-.07,0-.13-.07-.2-.28-.73-.51-1.44-.73-2.1C13.89,34.31,13,31.6,9.63,31.6l-.63,0C5.88,31.9.09,32.4.2,40.3c0,1.7-.06,3.12-.13,4.27-.17,3-.34,5.88,3.55,6.35a33.49,33.49,0,0,0,4.11.3,11.82,11.82,0,0,0,3.42-.43A25.13,25.13,0,0,0,5,56a4.77,4.77,0,0,0-1,4.38c.76,2.67,3.68,3.94,4.56,4.26a4.47,4.47,0,0,0,1.58.31,4.21,4.21,0,0,0,2.35-.8A2.56,2.56,0,0,1,14,63.63l.4,0c.31,0,.61.05.91.05,3.54,0,6.08-2.34,6.63-6.1l.5-3.53.45.26c1.95,1.16,3.77,2.25,5.59,3.38-.34.06-.7.12-1.09.16a6.76,6.76,0,0,0-5.7,4.07,4.93,4.93,0,0,1-1.46,1.89c-2,1.3-4.12,3.73-4.51,6.22a4.25,4.25,0,0,0,.87,3.43,3.43,3.43,0,0,0,2.83,1.27,13,13,0,0,0,3.68-.8,15.16,15.16,0,0,1,4.2-.89,4.73,4.73,0,0,1,.65,0,8.68,8.68,0,0,0,1.13.07,7.15,7.15,0,0,0,4.5-1.5,8.34,8.34,0,0,0,2.95-5.76,9.54,9.54,0,0,1,.59-2.37c1.21.91,2.3,1.78,3.29,2.63l.51.43a8.13,8.13,0,0,0-3.38,1.89,10.26,10.26,0,0,0-2.29,4,6.24,6.24,0,0,1-2,3.3,5.4,5.4,0,0,0,0,9.29,4.08,4.08,0,0,0,2.35.76A6.71,6.71,0,0,0,39.3,84.4a6.29,6.29,0,0,1,2.1-1.06l.63-.08c2.5-.32,7.35-.93,9.68-5.61a27.82,27.82,0,0,1,1.71,2.52,59.4,59.4,0,0,0-.67,7.16c-.35,8.44.48,19.47,2.52,33.7a1.56,1.56,0,0,0,.95,1.23,23.28,23.28,0,0,1,5.28,3.15c1.9,1.4,3.54,2.6,5.87,2.71h.48a12.48,12.48,0,0,0,6.32-2,12.41,12.41,0,0,1,5.55-1.91c.33,0,.65,0,1,0a31.33,31.33,0,0,1,5.83.74,38,38,0,0,0,7.34.87,23,23,0,0,0,2.51-.13,1.6,1.6,0,0,0,1.1-.61,1.71,1.71,0,0,0,.29-1.14,126.77,126.77,0,0,0-2.9-14.49c-.17-.66-.37-1.41-.6-2.23a15.5,15.5,0,0,0,4-1.18,12,12,0,0,1,4.88-1.25,12.35,12.35,0,0,1,4.72,1.21,31.27,31.27,0,0,0,4.76,1.56,13.16,13.16,0,0,0,2.89.35,12.87,12.87,0,0,0,5.78-1.59,17.31,17.31,0,0,1,5.82-1.8c.4-.05.84-.08,1.32-.11a1.51,1.51,0,0,0,1.07-.52,1.65,1.65,0,0,0,.38-1.17,73.34,73.34,0,0,0-1.7-10.17,78.17,78.17,0,0,0-3.47-10.79,9,9,0,0,1,2.35-2.87,9,9,0,0,0,1.56-1.65,46,46,0,0,0-.06,9.21,81,81,0,0,0,5.64,23A169.11,169.11,0,0,0,144,129.58a1.65,1.65,0,0,0,1,.74,14.8,14.8,0,0,0,3.41.43,10.27,10.27,0,0,0,3.81-.7c3.75-1.47,5.56-1.94,7.45-1.94a33,33,0,0,1,6.56,1,15,15,0,0,0,3.14.37,8.91,8.91,0,0,0,5.87-2.21,12.07,12.07,0,0,1,3.73-2.06,5.7,5.7,0,0,1,1.8-.28,7.2,7.2,0,0,1,1.17.1h.2a1.57,1.57,0,0,0,1.15-.51A1.54,1.54,0,0,0,183.6,123.12ZM120.78,39.35l-.22-.18a7.56,7.56,0,0,0,.73-.77A10.61,10.61,0,0,0,120.78,39.35Zm18.35-8.1a9.87,9.87,0,0,0,1.5-.11c0,.48,0,1,0,1.46a5.45,5.45,0,0,0-1.15-.6,6.43,6.43,0,0,1-1.44-.82A7.92,7.92,0,0,0,139.13,31.25Zm8.94,15.26a6.17,6.17,0,0,0-.84.15c0-.8,0-1.58,0-2.34a7.69,7.69,0,0,0,2.29,1.29,4.91,4.91,0,0,0,1.57.25h0A15.6,15.6,0,0,1,148.07,46.51ZM14,48.77l.07-.11.37.29c-.33.15-.65.32-1,.49A4.88,4.88,0,0,0,14,48.77ZM67.64,31.38h.28A17,17,0,0,0,70.64,31c-.35,1.67-.73,3.4-1.16,5.19a12.62,12.62,0,0,0-2.31-1.84,8.86,8.86,0,0,0-.78-3.14A3.86,3.86,0,0,0,67.64,31.38ZM80.35,34.8c-.47.49-1,.59-2.38.81-.5.08-1,.16-1.68.29.27-1.18.55-2.35.82-3.48a8.24,8.24,0,0,1,2.06.53,10.22,10.22,0,0,0,3.06.69A4.75,4.75,0,0,0,80.35,34.8Zm10.94-9.43v0c.29,1.71.66,3.83,1,6.19a8.88,8.88,0,0,0-3.86-1,5.86,5.86,0,0,0-1.26.13c.91-1,1.68-2.12,2.39-3.12.57-.79,1.06-1.48,1.49-2Zm-5-9a4.3,4.3,0,0,0-2.88,1.47,11.52,11.52,0,0,0-1.36,1.86c-.51.8-.56.88-1.33,1-.39.06-.75.13-1.09.21a17.47,17.47,0,0,0,.17-2.1,8.57,8.57,0,0,0,4.22-4.32l.19-.37A9.56,9.56,0,0,0,86.32,16.35Z"/><path class="cls-1" d="M50.4,52.7a9.21,9.21,0,0,1,4.26.55c-.5-1.36-1-2.74-1.57-4.19L53,48.73c-.4-1.07-.88-2.18-1.4-3.29-.47,3-2.38,5-5.7,6a7.11,7.11,0,0,1-2.18.34,8.17,8.17,0,0,1-3.22-.7,10.53,10.53,0,0,1-1,2.71,5,5,0,0,1-1.69,2c1.26.84,2.54,1.74,3.82,2.66a4.16,4.16,0,0,1,2.58-1.78,6.37,6.37,0,0,0,3.2-2.18A4.62,4.62,0,0,1,50.4,52.7Zm1.21-3.55.81,2.13a10,10,0,0,0-1.08-.06,10.23,10.23,0,0,0-1.13.07,5.56,5.56,0,0,0-1.17.29A8.56,8.56,0,0,0,51.61,49.15Zm-5.24,4.44a5,5,0,0,1-2.53,1.77,6.25,6.25,0,0,0-2.42,1.25l-1.37-1a7.87,7.87,0,0,0,.72-1.18,11.39,11.39,0,0,0,.66-1.53,9.28,9.28,0,0,0,2.26.29,8.37,8.37,0,0,0,2.61-.41,12.62,12.62,0,0,0,1.5-.57A9.31,9.31,0,0,0,46.37,53.59Z"/><path class="cls-1" d="M56.41,59.59a15.33,15.33,0,0,0-2.71,1.9,8.53,8.53,0,0,1-5.51,1.91l-.3,0,.91.77c.63.54,1.28,1.12,1.93,1.72a9.84,9.84,0,0,1,2-2c1.43-1.07,3.54-.7,5,0l.48.25c-.4-1.52-.89-3.12-1.44-4.77Zm-.84,2.22.44-.32c0,.14.08.26.12.39Z"/><path class="cls-1" d="M62.24,47.68a24.13,24.13,0,0,1-1.87-4,6.58,6.58,0,0,1-2.65.6,5.54,5.54,0,0,1-1.61-.24c.35.77.68,1.52,1,2.26.8,1.83,1.56,3.79,2.25,5.77a4.81,4.81,0,0,1,1.69-3.44A13.14,13.14,0,0,1,62.24,47.68ZM60.1,47.6c-.23.21-.44.43-.64.65-.35-.88-.7-1.72-1.05-2.51l0-.06a8.1,8.1,0,0,0,1.16-.21c.26.63.56,1.25.87,1.84Z"/><path class="cls-1" d="M63.27,55.39a6,6,0,0,1-3-.59c.87,2.7,1.62,5.35,2.24,7.68a19.47,19.47,0,0,1,1.19-1.71l.47-.65a2.42,2.42,0,0,1,1.55-.88c.21-1.28.44-2.63.71-4.05-.66.09-1.46.13-2.51.18Zm1.44,1.36q-.12.72-.24,1.41a3.48,3.48,0,0,0-1.38,1.05c-.23-.83-.47-1.64-.71-2.43.29,0,.58,0,.89,0l.72,0Z"/><path class="cls-1" d="M136.92,59.9c.15.26.27.5.4.75,0-2.23.06-4,2.33-4.77a4.6,4.6,0,0,0,2.28-2.39c.07-2.75.09-5.63.1-8.51a2,2,0,0,1-1.24.39,4.37,4.37,0,0,1-.59-.06,4.47,4.47,0,0,1-.87,1.61,1.63,1.63,0,0,0-.48,1.49c.35,1.58.88,3.93-1.63,4.54-2,.47-3.67.78-4.2.88A55,55,0,0,1,136.92,59.9Zm.63-5.57c3.87-.93,3-4.78,2.66-6.19a3.9,3.9,0,0,1,.26-.37l.13-.18c0,2.07,0,3.87-.08,5.52-.48.83-.9,1.28-1.34,1.43a4.54,4.54,0,0,0-2.58,2c-.34-.55-.73-1.15-1.16-1.77C136.07,54.67,136.79,54.51,137.55,54.33Z"/><path class="cls-1" d="M94,59.66a4.68,4.68,0,0,1-2.72,1,3,3,0,0,1-.6-.05c-1.94-.37-3.32-2.52-4.54-4.41l-.06-.09a4.83,4.83,0,0,1-.89-3.84,5.53,5.53,0,0,1,3-3.28,3.18,3.18,0,0,1,2.62-.37c1.57.54,2.55,2.6,3.51,4.83.27.65.49,1.21.66,1.74.11,0,.25,0,.37-.06V55a7,7,0,0,1-.17-2,5.79,5.79,0,0,0-.12-1.66,24.7,24.7,0,0,1-1-4.89,6.32,6.32,0,0,1-.9.07A15.67,15.67,0,0,1,86,44.34a4.42,4.42,0,0,1-1.46-1.8,5.19,5.19,0,0,1-.73.21c-1.15.23-1.77,1.34-2.43,2.52-.93,1.68-2,3.56-4.77,3.56a7.51,7.51,0,0,1-.8,0,10.3,10.3,0,0,1-2.19-.49,5.32,5.32,0,0,1-1,2.73c-.15,1.45-.36,3-.61,4.49,2.55-1.63,5.42-3.47,7.06-4a3,3,0,0,1,2.62.6,4.59,4.59,0,0,1,1.82,3.62c0,9.2-2.66,9.9-6.36,10.87-.76.19-1.54.4-2.36.69a11,11,0,0,1-3.52.77,4.14,4.14,0,0,1-.74-.07c.32.14.63.29,1,.46,4.93,2.66,9.67,8.87,14.08,18.45.56,1.23,1.1,2.47,1.62,3.71-.91-13,.46-21.54,4.15-26.11a10.61,10.61,0,0,1,1.43-1.48,5.67,5.67,0,0,1,2.63-3.57c0-.44,0-.93,0-1.49l-.06,0A3.16,3.16,0,0,1,94,59.66Zm-1.2-11.8c0,.14,0,.29.07.43a5,5,0,0,0-.57-.46ZM82.48,51a4.66,4.66,0,0,0-2.78-1,4.12,4.12,0,0,0-1.1.16,24.56,24.56,0,0,0-4.79,2.48c0-.38.09-.76.13-1.14a6,6,0,0,0,.72-1.48,9.43,9.43,0,0,0,1,.14,8.24,8.24,0,0,0,1,.06c3.62,0,5.06-2.58,6-4.29a5.1,5.1,0,0,1,1.27-1.74,5.11,5.11,0,0,0,1.33,1.3,15.46,15.46,0,0,0,3.88,1.68,5.72,5.72,0,0,0-1.53.59A6.82,6.82,0,0,0,83.81,52c0,.11-.06.23-.08.34A5.84,5.84,0,0,0,82.48,51Zm9,11.26a12,12,0,0,0-1.29,1.38C87,67.59,85.43,74.13,85.44,83.53,82,76.73,78.38,71.82,74.59,68.87l.62-.21c.77-.26,1.52-.46,2.24-.65,4.31-1.13,7.2-2.54,7.41-11.11a.76.76,0,0,1,.08.11c1.3,2,2.93,4.55,5.47,5a4.91,4.91,0,0,0,.86.08h.24C91.49,62.17,91.48,62.22,91.46,62.27Z"/><path class="cls-1" d="M113.9,66.54A39.36,39.36,0,0,1,118,71.76l.12,0a3.8,3.8,0,0,0,2.29-1.65,49.45,49.45,0,0,1-6.46-3.72C113.91,66.41,113.91,66.47,113.9,66.54Z"/><path class="cls-1" d="M131.4,59.85l-.62.81c-1,1.43-2.35,3.2-4.33,3.57a14.93,14.93,0,0,0-2,.55,10.63,10.63,0,0,1-2.07.51c1.22.64,2.34,1.27,3.37,1.88a10.12,10.12,0,0,0,1.64-1.43c1.87-2,5.28-2,6.19-2-.6-1.17-1.32-2.49-2.14-3.92C131.41,59.83,131.41,59.84,131.4,59.85Zm-.19,2.6,0-.05s0,0,0,0Z"/><path class="cls-1" d="M127.89,47.71c.89.94,1.71,1.86,2.47,2.76a9.29,9.29,0,0,1,1.82-3.91A9.64,9.64,0,0,0,134,42.74c0-.19.05-.38.08-.55l-.53-.34a7.39,7.39,0,0,1-2-1.8l0,.24c-.13,1.39-.27,2.82-2.16,3.56a10.12,10.12,0,0,1-3.66.88,3.69,3.69,0,0,0-.54.05h-.2C125.91,45.71,126.91,46.69,127.89,47.71Zm2-2.54a4.28,4.28,0,0,0,2.54-2.38l.13.09A9.65,9.65,0,0,1,131,45.77a20.09,20.09,0,0,0-1.19,1.93l-.9-1-.91-.94A19.14,19.14,0,0,0,129.86,45.17Z"/><path class="cls-1" d="M112.29,47.77A5.28,5.28,0,0,1,114.57,49c.15-.25.31-.51.5-.79,1.34-2,4.21-1.92,5.14-1.83-1.69-1.34-3.4-2.57-5-3.68a15.94,15.94,0,0,0-2.45,4.12A3.56,3.56,0,0,1,112.29,47.77Zm3.25-3.08,1,.74A5.36,5.36,0,0,0,114.24,47,12.24,12.24,0,0,1,115.54,44.69Z"/><path class="cls-1" d="M112.1,30.31a2,2,0,0,1,1-2.33,4.54,4.54,0,0,1-.91-1.69c-.78,2.36-1.69,5.26-2.69,8.8,0,0,0,.06,0,.1h.16a7.61,7.61,0,0,1,2.61.59A24.21,24.21,0,0,0,112.1,30.31Z"/><path class="cls-1" d="M105.06,41.43a148.26,148.26,0,0,1,3.75-15.56,18.75,18.75,0,0,1-6.19-1.53,2.42,2.42,0,0,1-1.87.88h-.14a6.09,6.09,0,0,1-3.45-1.77c.32,1.76.61,3.7.89,5.74a7.43,7.43,0,0,0,3-1.6c1.36-1,2.64-1.91,3.57-1.36A4.11,4.11,0,0,1,106.16,29a10.09,10.09,0,0,1-1.34,7.44c-1.57,2.21-2.59,3.24-4.14,3.24a5,5,0,0,1-1.43-.24c.12,1.26.22,2.51.31,3.74l.24.19.6.45c1.69,1.25,3,2.86,1.22,6.14-1.09,2-.75,4.24-.49,5.89l.06.4,1.64.56c.29-2.95.67-5.87,1.09-8.71a4.06,4.06,0,0,1-1.33-3.65A3.68,3.68,0,0,1,105.06,41.43ZM99.19,27.15l-.12-.83a5.25,5.25,0,0,0,.94.26C99.75,26.77,99.47,27,99.19,27.15Zm2.38,15.77-.64-.49c0-.44-.07-.89-.11-1.34A4.71,4.71,0,0,0,104,39.71c0,.23-.1.47-.14.7A5.05,5.05,0,0,0,101.57,42.92Z"/><path class="cls-1" d="M105.89,53.4c-.22,1.73-.36,3.22-.46,4.38l1.22.49c0-.17,0-.35,0-.52a6.62,6.62,0,0,0-.46-3.55A3,3,0,0,1,105.89,53.4Z"/><path class="cls-1" d="M108.16,40.34l.74-.32c.56-.25,1.07-.48,1.55-.66a18.09,18.09,0,0,1-1.71-1.42C108.53,38.75,108.34,39.55,108.16,40.34Z"/><path class="cls-1" d="M106.31,50.24l0-.1a4.15,4.15,0,0,1,.35-.57l-.29-.08C106.39,49.75,106.35,50,106.31,50.24Z"/><path class="cls-1" d="M113.3,16.2a.66.66,0,0,1,.67,0,1.56,1.56,0,0,1,.69,1.59,5.91,5.91,0,0,0,1.4.45,4.51,4.51,0,0,0-.07-1.47,4,4,0,0,1-1.24-.55l-.5-.1a7.83,7.83,0,0,1-2.24-.72,5.45,5.45,0,0,0-.9,1.11,5.68,5.68,0,0,0,1.3.6A2.69,2.69,0,0,1,113.3,16.2Z"/><path class="cls-1" d="M114.7,15a2.05,2.05,0,0,0-1-.29,2.12,2.12,0,0,0-1,.25,2.61,2.61,0,0,0-.64.45,7.83,7.83,0,0,0,2.24.72l.5.1a4,4,0,0,0,1.24.55A2.68,2.68,0,0,0,114.7,15Z"/></svg>