<svg xmlns="http://www.w3.org/2000/svg" width="387.663" height="508.627" viewBox="0 0 387.663 508.627">
  <g id="Group_2838" data-name="Group 2838" transform="translate(-2056.385 -171.927)">
    <ellipse id="Ellipse_1541" data-name="Ellipse 1541" cx="3.892" cy="2.058" rx="3.892" ry="2.058" transform="translate(2287.969 676.312)" fill="#c19165" stroke="#000" stroke-linejoin="round" stroke-width="0.25"/>
    <g id="Group_2847" data-name="Group 2847" transform="translate(2056.51 172.06)">
      <g id="Group_2838-2" data-name="Group 2838" transform="translate(101.392)">
        <path id="Path_9551" data-name="Path 9551" d="M2136.6,200.7c.173-.866-2.647-6.836,2.944-13.332,6.406-7.444,12.986-1.9,22.508-5.021s9.1-8.536,18.18-10.043a14.485,14.485,0,0,1,16.449,9.177c2.356,5.8,6.406,8.138,9.868,8.138s-7.271,34.455-7.271,34.455-16.8,13.332-19.392,12.467-28.743-18.526-28.743-18.526Z" transform="translate(-2136.036 -172.06)" fill="#ddd658" stroke="#000" stroke-linejoin="round" stroke-width="0.25"/>
      </g>
      <ellipse id="Ellipse_1542" data-name="Ellipse 1542" cx="2.684" cy="4.282" rx="2.684" ry="4.282" transform="translate(132.203 16.261) rotate(-76.596)" fill="#dffffa" stroke="#231815" stroke-miterlimit="10" stroke-width="0.25"/>
      <g id="Group_2839" data-name="Group 2839" transform="translate(143.045 14.449)">
        <path id="Path_9552" data-name="Path 9552" d="M2177.743,233.462a22.586,22.586,0,0,1-3.085-11.75c0-7.163-6.06-7.493-5.95-13s8.155-4.738,11.24-10.909,3.967-11.129,15.205-12.672,18.292-4.408,22.479,4.077,3.2,7.714,13,10.467,11.349,7.666,13.883,15.4,6.061,4.211,6.943,14.017-28.561,40.871-28.561,40.871l-39.309,14.44-14.884-27.877Z" transform="translate(-2168.706 -183.394)" fill="#ddd658" stroke="#000" stroke-linejoin="round" stroke-width="0.25"/>
        <path id="Path_9553" data-name="Path 9553" d="M2185.062,215.046c2.552-1.322,5.068,6.17,15.99,11.7a150.088,150.088,0,0,1,15.936,8.995l-8.611,5.783s-6.168-7.711-12.337-12.337S2183.079,216.075,2185.062,215.046Z" transform="translate(-2164.305 -174.733)" fill="#fff6eb" stroke="#000" stroke-miterlimit="10" stroke-width="0.25"/>
        <path id="Path_9554" data-name="Path 9554" d="M2196.083,197.465c1.407-1.1,3.855,2.593,10.795,13.794s11.309,19.683,11.694,24.824c0,0-4.369,2.442-4.625,1.67s-3.929-4.855-7.453-17.348C2202.65,206.781,2194.027,199.071,2196.083,197.465Z" transform="translate(-2161.264 -179.575)" fill="#fff6eb" stroke="#000" stroke-miterlimit="10" stroke-width="0.25"/>
        <path id="Path_9555" data-name="Path 9555" d="M2219.888,203.424c3.066.418,1.927,20.408,1.028,27.938,0,0-9.51,2-8.867,1.49s4.163-1.414,4.909-10.281S2217.06,203.039,2219.888,203.424Z" transform="translate(-2156.797 -177.889)" fill="#fff6eb" stroke="#000" stroke-miterlimit="10" stroke-width="0.25"/>
        <ellipse id="Ellipse_1543" data-name="Ellipse 1543" cx="5.265" cy="3.258" rx="5.265" ry="3.258" transform="translate(12.913 28.425)" fill="#dffffa" stroke="#231815" stroke-miterlimit="10" stroke-width="0.25"/>
        <ellipse id="Ellipse_1544" data-name="Ellipse 1544" cx="3.089" cy="2.374" rx="3.089" ry="2.374" transform="translate(15.14 17.704)" fill="#dffffa" stroke="#231815" stroke-miterlimit="10" stroke-width="0.25"/>
      </g>
      <g id="Group_2840" data-name="Group 2840" transform="translate(27.575 21.808)">
        <path id="Path_9556" data-name="Path 9556" d="M2118.653,494.832s-8.494-2.123-12.1-8.281-.529-11.146-8.28-18.9c-3.61-3.609-11.254-13.8-10.829-25.692s-7.006-11.04-8.917-23.779,4.034-13.8,1.7-26.754,0-16.056,1.7-22.04-3.611-11.294-1.275-21.273,4.672-13.377,2.124-21.02,1.559-12.1,2.69-27.815-4.315-16.986,0-22.507,3.68-11.253,5.165-21.232,7.856-4.247,12.952-22.719,14.862-12.526,19.534-24.417,14.862-14.226,22.294-12.952,10.828-11.253,26.541-4.034,4.245,23.143,17.623,29.937,19.322,8.705,18.26,17.623-11.041,16.35-7.432,22.294,11.041-.636,13.8,11.466-29.737,187.917-29.737,187.917-27.924,24.693-32.714,32.843S2118.653,494.832,2118.653,494.832Z" transform="translate(-2078.139 -189.165)" fill="#bfc632" stroke="#231815" stroke-miterlimit="10" stroke-width="0.25"/>
        <path id="Path_9557" data-name="Path 9557" d="M2149.767,196.66c2.668,1.721-8.048,26.732-9.773,48.865,0,0,6.324-9.774,13.51-21.271s9.325-17.462,11.174-17.051-1.233,5.341-4.211,12.118-10.269,24.75-14.171,31.322-6.3,10.68-6.3,10.68-.887,24.544.55,24.544,8.319-10.989,12.734-19.307,9.345-15.713,13.043-23.928,8.112-18.486,9.653-18.279-4.108,19.512-9.756,30.4-14.069,27.009-16.842,32.143-6.88,10.578-7.085,14.274,1.026,10.373.616,13.864,3.184,1.028,7.188-5.238,9.756-19.717,15.1-27.111,17.458-30.6,19.819-30.5-2.875,14.274-6.778,21.566-10.577,19.307-14.685,26.495-15.2,26.084-16.637,29.68a70.36,70.36,0,0,0,.41,10.063c.617,4.827-.41,8.935,1.13,9.243s4.725-3.8,10.681-14.276,9.345-17.56,17.151-28.754,10.886-18.486,12.939-17.663-.309,8.523-4.519,16.534-7.907,19.307-11.194,23.517-9.756,18.486-14.377,25.367-9.139,12.529-9.551,15.609,1.86,12.359,3.139,19.072-5.332,110.1-7.343,110.962-9.766,6.894-19.247,3.159-10.053-5.332-14.075-20.332-2.809-35.807-6.269-41.264-12.11-10.779-15.968-17.565a40.732,40.732,0,0,1-5.457-20.093c-.265-7.318-.93-12.242,0-12.108s3.46,5.722,7.186,16.9,11.444,25.416,16.634,26.347c0,0-.134-18.1.4-25.948s1.464-9.98-4.125-14.239-9.049-15.569-12.509-25.017-7.318-30.605-4.524-31.4,5.323,16.5,12.375,31.138,7.452,17.964,11.843,18.895c0,0,2.129-13.706,2.129-20.226s-1.33-6.255-5.189-11.045-7.984-15.569-10.779-23.153-5.988-23.287-6.92-29.809,0-11.044,1.73-7.052a115.355,115.355,0,0,1,6.255,17.7c2.927,10.247,8.916,25.683,15.436,31.8a150.708,150.708,0,0,0,2.395-19.3c.267-8.25-1.065-5.988-5.056-12.641s-9.58-22.756-11.709-31.4-3.327-17.166-1.6-17.3,3.593,14.638,8.649,23.287,6.786,19.961,11.578,23.287,1.863-5.056,3.593-13.84-2.263-8.517-4.392-14.237-7.85-15.171-9.979-27.945-2-20.36-.533-20.759,3.859,21.024,7.452,30.339,6.787,17.433,10.38,17.433,1.6-5.722,3.859-12.509,3.194-10.379.133-14.9-5.455-15.569-6.52-23.951-2-10.247-.134-9.98,1.331,5.988,4.657,13.439,4.393,10.779,6.121,11.578c0,0,1.064-7.452,3.194-11.843s2.263-9.98,4.657-15.7S2148.24,195.675,2149.767,196.66Z" transform="translate(-2076.56 -187.115)" fill="#fff6eb" stroke="#000" stroke-miterlimit="10" stroke-width="0.25"/>
        <ellipse id="Ellipse_1545" data-name="Ellipse 1545" cx="2.92" cy="1.926" rx="2.92" ry="1.926" transform="translate(36.5 46.098)" fill="#dffffa" stroke="#231815" stroke-miterlimit="10" stroke-width="0.25"/>
        <ellipse id="Ellipse_1546" data-name="Ellipse 1546" cx="2.725" cy="1.429" rx="2.725" ry="1.429" transform="translate(109.1 49.6) rotate(-24.228)" fill="#dffffa" stroke="#231815" stroke-miterlimit="10" stroke-width="0.25"/>
        <ellipse id="Ellipse_1547" data-name="Ellipse 1547" cx="3.149" cy="1.681" rx="3.149" ry="1.681" transform="translate(116.62 57.901) rotate(-41.149)" fill="#dffffa" stroke="#231815" stroke-miterlimit="10" stroke-width="0.25"/>
      </g>
      <g id="Group_2842" data-name="Group 2842" transform="translate(81.023 54.36)">
        <g id="Group_2841" data-name="Group 2841" transform="translate(120.004)">
          <path id="Path_9558" data-name="Path 9558" d="M2301.8,499.536l75.644-88.068-2.884-49.011s.553-14.151-3.214-26.71c-1.113-3.709-2.075-6.606-2.852-9.192-3.311-3.232-8.488-7.682-14.254-10.381-9.844-4.608-14.241-6.074-26.493-16.546s-24.19-19.163-20.84-21.467c2.332-1.6,9.529,9.634,19.793,15.5s10.891,9.843,23.561,14.765c8.176,3.176,12.857,6.177,16.307,9.116a54.432,54.432,0,0,1,.174-10.68c1.159-11.981-6.24-16.838-12.216-26.843a103.954,103.954,0,0,0-17.657-9.589c-13.739-5.92-20.922-4.915-34.365-16.2s-11.1-12.176-11.1-12.176c1.788-2.345,7.708,6.59,18.877,13.516s19.771,8.155,28.482,9.941c5.836,1.2,9.362,2.748,12,4.578-1.011-7.953,2.36-14.249-5.236-22.822-9.769-11.025-20.933-4.465-32.935-15.63s-16.747-11.862-27.492-13.4-12.978,3.629-23.863-1.256-21.91-1.256-28.469,4.326c-3.8,3.235-11.228,4.086-18.587,5.908,5.554,4.652,9.032,7.966,16.1,4.137,8.691-4.711,21.222-11.137,36.406-.991,16.2,10.824,14,27.459,23.432,37.124s20.254,15.651,18.643,28.309-3.682,14.73,3.683,30.15,6.214,28.77,6.214,28.77S2308.855,434.333,2301.8,499.536Zm17.568-183.991c1.951-1.745,3.456,2.618,10.786,7.434s6.492,8.482,20.106,14.871,11.1,12.251,11.1,12.251-14.661-6.178-14.87-6.492-4.293-4.084-9.53-8.8-5.341-6.807-8.9-9.949S2317.381,317.325,2319.37,315.545Z" transform="translate(-2214.183 -214.697)" fill="#bfc632" stroke="#231815" stroke-miterlimit="10" stroke-width="0.25"/>
          <path id="Path_9559" data-name="Path 9559" d="M2293.665,249.754c-11.17-6.926-17.09-15.861-18.877-13.516,0,0-2.346.894,11.1,12.176s20.626,10.276,34.365,16.2a103.95,103.95,0,0,1,17.657,9.589c-.5-.834-.99-1.691-1.461-2.6a21.448,21.448,0,0,1-2.3-7.322c-2.635-1.831-6.162-3.381-12-4.578C2313.435,257.909,2304.835,256.68,2293.665,249.754Z" transform="translate(-2197.562 -208.879)" fill="#ddd658" stroke="#000" stroke-linejoin="round" stroke-width="0.25"/>
          <path id="Path_9560" data-name="Path 9560" d="M2306.827,280.006c-10.264-5.865-17.461-17.1-19.793-15.5-3.351,2.3,8.587,11,20.84,21.467s16.649,11.939,26.493,16.546c5.767,2.7,10.943,7.149,14.254,10.381a45.563,45.563,0,0,1-1.927-9.014c-3.45-2.939-8.13-5.94-16.307-9.116C2317.718,289.849,2317.089,285.869,2306.827,280.006Z" transform="translate(-2194.309 -201.043)" fill="#ddd658" stroke="#000" stroke-linejoin="round" stroke-width="0.25"/>
          <path id="Path_9561" data-name="Path 9561" d="M2305.45,303.2c3.561,3.142,3.666,5.236,8.9,9.949s9.32,8.482,9.529,8.8,14.87,6.492,14.87,6.492,2.514-5.864-11.1-12.251-12.775-10.053-20.106-14.871-8.835-9.18-10.786-7.434C2294.77,295.66,2301.891,300.059,2305.45,303.2Z" transform="translate(-2191.572 -193.032)" fill="#ddd658" stroke="#000" stroke-linejoin="round" stroke-width="0.25"/>
        </g>
        <path id="Path_9562" data-name="Path 9562" d="M2210.784,253.986c-11.722,8.093-14.235,10.884-16.885,15.769s-.14,8.095-5.025,15.352a329.421,329.421,0,0,1-24,30.7c-7.816,8.513.558,13.4-6,23.166s-14.653,19.676-14.235,27.213.14,9.071-7.256,18.282-1.257,20.793-5.583,34.331-8.093,14.792-11.024,29.027,4.052,18.365,5.3,29.445-1.675,10.187-3.908,24.84,3.288,15.77,7.156,19.119,2.472,7.815.658,12.839.558,9.351,6,10.606-.279,6.419,8.652,10.745,9.212,8.373,9.212,8.373,19.074.175,20.193,0,27.294-6.872,27.294-6.872l68.244,8.049,58.1-67.651c7.053-65.2,16.859-144.815,16.859-144.815s1.15-13.349-6.214-28.769-5.293-17.491-3.683-30.15-9.205-18.642-18.643-28.309-7.234-26.3-23.432-37.124c-15.185-10.146-27.715-3.719-36.406.991-7.067,3.829-10.545.515-16.1-4.137-5.346,1.322-10.659,3.152-14.52,6.792C2216.365,240.448,2222.506,245.891,2210.784,253.986Z" transform="translate(-2120.06 -212.48)" fill="#ddd658" stroke="#000" stroke-linejoin="round" stroke-width="0.25"/>
      </g>
      <g id="Group_2843" data-name="Group 2843" transform="translate(90.287 79.192)">
        <path id="Path_9563" data-name="Path 9563" d="M2326.263,353.095s1.159-3.478-3.6-9.771.681-11.4-2.551-27.043-13.435-11.394-15.648-27.382,1.191-19.219-3.742-27.723-18.368-7.994-28.573-18.71-18.2-8.923-24.152-6.247-9.65,13.562-22,15.263-18.985,18.028-21.367,26.7-7.484,12.075-16.667,18.709-9.695,16.327-12.927,26.532-9.695,3.913-12.925,23.642-10.886,17.518-15.307,28.744,1.53,16.632-4.763,25.154-5.1,13.284-5.272,21.449-8.335,17.518-5.272,29.934-6.436,29.366-3.644,39.77,7.725,13.466,7.725,13.466-4.762,6.632,4.423,18.028,0,19.73,9.865,26.362,11.055,1.021,19.729,15.307l34.844,2.83,81.083-14.415,37.767-159.818Z" transform="translate(-2127.326 -234.173)" fill="#fff6eb" stroke="#000" stroke-miterlimit="10" stroke-width="0.25"/>
        <path id="Path_9564" data-name="Path 9564" d="M2305.735,370.44s3.456-8.711,1.972-16.929-9.7-12.9-8.1-23.626,5.022-19.632-4.223-30.361-.571-26.594-10.957-32.986-11.187-1.6-18.491-7.534-9.473-7.3-15.979-6.848-9.7,3.425-13.012,8.9-4.565,6.278-9.473,7.532-13.026,2.253-20.217,14.237-8.047,17.138-15.923,22.045-10.19,9.934-12.026,15.308c-1.721,5.037-1.484,10.386-7.647,17.463s-11.89,9.608-10.621,25.478l-18.725,51.417-1.9,67.285,22.535,61.833,13.593,10.663,52.269,7.534s41.485,3.145,40.939,2.291S2305.735,370.44,2305.735,370.44Z" transform="translate(-2123.73 -229.251)" fill="#ddd658" stroke="#000" stroke-linejoin="round" stroke-width="0.25"/>
        <path id="Path_9565" data-name="Path 9565" d="M2223.283,563.023s15.15,1.707,28.167-14.724,16.883-103.517,23.675-122.347,3.463-32.541-.717-41.61-6.043-13.232-2.169-22.849,8.756-16.076.144-27.415-3.158-20.239-2.727-32.584-13.349-18.659-22.536-13.2-15.071,9.76-19.952,6.172-11.771,3.876-17.8,16.22-11.626,31.435-22.392,35.167-15.5,9.617-16.794,22.679.574,22.536-10.91,39.186-4.592,29.569-2.87,41.77-4.02,11.339-5.311,23.828,7.321,11.34,9.186,28.851,1.436,18.374,7.608,27.7,5.742,15.041,5.742,15.041Z" transform="translate(-2120.827 -219.837)" fill="#fff6eb" stroke="#000" stroke-miterlimit="10" stroke-width="0.25"/>
        <path id="Path_9566" data-name="Path 9566" d="M2242.072,269.28c2.981-1.855,4.074.33,6.385,4.293s5.944,14.211,9.137,26.755,8.089,21.836,8.563,45.449,0,30.252,0,30.252-9.784.444-9.063-.658.382-15.269,0-33.844-5.864-35.084-7.938-45.651C2245.85,279.033,2237.508,272.121,2242.072,269.28Z" transform="translate(-2096.142 -224.704)" fill="#fff6eb" stroke="#000" stroke-miterlimit="10" stroke-width="0.25"/>
        <path id="Path_9567" data-name="Path 9567" d="M2240.808,267.9c2.982,1.035-5.765,7.193-18.33,19.316s-27.765,32.477-34.578,41.147-20.709,33.209-25.144,43.706-14.783,36.512-16.41,60.756,3.548,48.784,7.836,67.853,15.965,41.1,21.435,46.27l-3.548,3.06s-7.834-2.764-15.374-13.407-14.191-30.6-16.852-41.244-4.288-43.166-2.661-58.392,4.388-22.94,9.209-43.3,15.836-38.321,24.408-53.14,23.032-29.941,30.532-39.967S2234.757,265.8,2240.808,267.9Z" transform="translate(-2124.794 -224.935)" fill="#fff6eb" stroke="#000" stroke-miterlimit="10" stroke-width="0.25"/>
        <path id="Path_9568" data-name="Path 9568" d="M2232.3,308.72c2.661-2.4,5.2,6.2,6.939,14.376s4.71,38.913,2.974,70.887S2236.449,455.949,2234,479s-6.167,32.469-7.157,39.906-6.6,16.668-15.472,19.518l-1.956-2.866s6.469-4.363,10.08-16.7,7.371-26.629,9.025-43.177,3.009-28.433,4.965-46.486,3.023-56.56,3.638-71.444C2238.425,326.241,2228.528,312.122,2232.3,308.72Z" transform="translate(-2104.754 -213.789)" fill="#ddd658" stroke="#000" stroke-linejoin="round" stroke-width="0.25"/>
        <path id="Path_9569" data-name="Path 9569" d="M2174.921,415.333c2.944-8.537,12.445-34.706,21.432-53.095s18.8-28.9,27.239-39.683,15.734-13.994,14.657-16.453c-.76-1.731-9.456,1.453-16.317,9.293s-19.476,24.745-26.826,38.587a476.107,476.107,0,0,0-21.07,44.494c-6.737,16.511-12.494,39.418-13.352,50.2s-1.224,33.687,1.1,44.956.612,14.578,4.165,23.521,7.35,11.269,8.452,16.414c0,0,4.043-2.939,3.92-3.307s-6.125-8.943-8.084-19.6a183.493,183.493,0,0,1-2.573-33.565C2167.91,468.273,2167.582,436.62,2174.921,415.333Z" transform="translate(-2118.335 -214.522)" fill="#ddd658" stroke="#000" stroke-linejoin="round" stroke-width="0.25"/>
        <path id="Path_9570" data-name="Path 9570" d="M2229.026,335.1c8.673-1.2,15.1,7.01,10.135,22.107s-3.667,22.105-1.51,26.851,3.207,5.823-.769,14.125-.525,20.6.877,27.929-.262,11.107-2.18,16.822-3.751,11.969.67,18.009-1.386,8.518-4.089,18.762,1.717,11.215.854,16.175-4.637,7.428-4.744,13.311,2.7,8.472.862,12.354-3.99,7.344-11.539,9.98-37.865-13.675-37.865-13.675a18.809,18.809,0,0,1-5.1-7.548c-1.506-4.518-.3-5.725-1.808-14.462s-3.616-12.5-2.26-27.568-1.808-15.238.3-23.889,5.123-11.966,5.123-24.016.451-17.476,8.285-26.665,9.793-10.094,13.257-18.681,3.189-12.414,7.975-19.039,13.935-4.683,15.756-10.971C2222.637,340.25,2224.373,335.745,2229.026,335.1Z" transform="translate(-2115.561 -206.455)" fill="#ddd658" stroke="#000" stroke-linejoin="round" stroke-width="0.25"/>
        <path id="Path_9571" data-name="Path 9571" d="M2224,350.724c4.668.782,3.432,9.409.664,16.16s.664,10.294,3.21,14.832-.333,9.187,1.218,14.389-2.546,7.638-.553,14.722-4.6,11.03-4.428,16.381c.678,20.944-5.812,89.348-5.812,89.348s-27.715,1.4-31.563-2.526c-13.145-13.393-10.976-48.375-10.976-48.375s5.116-48.021,4.372-53.389-.638-10.6,7.091-19.1,7.837-11.846,13.2-16.665,4.724-6.108,7.193-11.155,7.193-5.976,10.092-10.127S2221.912,350.376,2224,350.724Z" transform="translate(-2114.046 -202.148)" fill="#fff6eb" stroke="#000" stroke-miterlimit="10" stroke-width="0.25"/>
        <path id="Path_9572" data-name="Path 9572" d="M2209.432,383.595c-.431-3.085,1.718-3.757,3.005-1.61s2.363,4.831,3.543,14.6,2.684,14.815,2.47,25.873.751,27.911-1.4,39.613-.429,24.585-2.147,33.924-1.029,13.943-4.368,17.4c0,0-5.935-2.907-5.132-4.088a27.592,27.592,0,0,0,4.239-11.7c.967-6.655,3.22-21.148,3.113-33.709s-.3-27.269-.85-36.287.314-16.1-.653-25.764S2210.076,388.211,2209.432,383.595Z" transform="translate(-2105.877 -193.875)" fill="#ddd658" stroke="#000" stroke-linejoin="round" stroke-width="0.25"/>
        <path id="Path_9573" data-name="Path 9573" d="M2195.338,380.753c1.355.9.05,2.86-1.883,6.187s-4.723,8.911-7.407,19.968-4.9,20.4-5.778,33.817-.556,33.28.626,43.479,3.747,18.447,6.275,21.57l-5.2-1.708a39.29,39.29,0,0,1-4.939-10.844c-1.718-6.227-.751-12.024-2.147-22.544s-.858-19.432,0-31.777,1.826-19.968,4.939-30.919S2193.141,379.288,2195.338,380.753Z" transform="translate(-2114.485 -193.893)" fill="#ddd658" stroke="#000" stroke-linejoin="round" stroke-width="0.25"/>
        <path id="Path_9574" data-name="Path 9574" d="M2203.6,381.225c2.99.629,2.147,4.508,1.717,13.526s4.08,8.053,5.9,13.527-.323,8.159,2.147,16.748-.528,10.359,1.5,18.061,1.717,9.422,1.5,15.433-4.562,50.672-4.562,50.672l-24.781-5.967a5.923,5.923,0,0,0-2.241-4.712c-2.457-2.023-1.752-5.929-.538-11.654s-2.088-9.7-2.224-17.852,4.917-15.832,3.032-22.434.066-17.448,3.57-23.578,5.928-9.97,5.592-18.728S2197.821,380.009,2203.6,381.225Z" transform="translate(-2112.285 -193.759)" fill="#ddd658" stroke="#000" stroke-linejoin="round" stroke-width="0.25"/>
        <path id="Path_9575" data-name="Path 9575" d="M2196.536,434c1.927-1.415,3.543,2.2,2.528,6.992s-2.953,7.473-1.477,10.7-.923,5.535-.553,9.778-2.474,7.381-.5,10.149-2.067,7.841,0,13.93v3.875s-4.022-.462-3.929-1.015,1.287-3.229,0-12.915-.093-13.838,0-21.126-1.3-6.714,1.754-13.562C2196.276,436.508,2194.746,435.317,2196.536,434Z" transform="translate(-2109.54 -179.313)" fill="#fff6eb" stroke="#000" stroke-miterlimit="10" stroke-width="0.25"/>
        <path id="Path_9576" data-name="Path 9576" d="M2200.333,411.887c1.865,1.633-.438,2.335-2.638,6.755s-4.451,6-5.7,13.675-2.834,20.347-2,27.352-1.085,17.936,2,25.1,2.018,10.712,2.018,10.712-5.853-.955-5.771-1.289-.5-4-2.668-11.091.584-11.674,0-19.345.667-9.507.5-14.26.667-16.01,3.5-22.764S2198.332,410.137,2200.333,411.887Z" transform="translate(-2111.542 -185.365)" fill="#fff6eb" stroke="#000" stroke-miterlimit="10" stroke-width="0.25"/>
        <path id="Path_9577" data-name="Path 9577" d="M2202.036,413.638c2.021-.878,3,2.668,4,6.338s1.418,6.838,1.335,15.26a239.119,239.119,0,0,1-1.418,25.433c-1.168,11.758-.917,13.926-2,21.431s-3.335,12.926-3.335,15.176-6.92-2.3-6.92-2.3a35.107,35.107,0,0,0,4.854-12.63c1.567-8.006,3.568-13.258,3.9-20.013s.784-12.33.784-24.683C2203.237,421.227,2200.118,414.472,2202.036,413.638Z" transform="translate(-2109.075 -184.865)" fill="#fff6eb" stroke="#000" stroke-miterlimit="10" stroke-width="0.25"/>
      </g>
      <g id="Group_2844" data-name="Group 2844" transform="translate(208.864 178.495)">
        <path id="Path_9578" data-name="Path 9578" d="M2292.524,469.326s.762,1.909-3.052,6.3-3.052,6.1-3.052,6.1a83.579,83.579,0,0,0,12.923.338c3.6-4.382,8.091-8.589,13.442-10.546a14.011,14.011,0,0,0,8.161-6.688,71.931,71.931,0,0,1-17.358,3.543C2296.339,468.755,2292.524,469.326,2292.524,469.326Z" transform="translate(-2202.175 -270.056)" fill="#cad226" stroke="#231815" stroke-miterlimit="10" stroke-width="0.25"/>
        <path id="Path_9579" data-name="Path 9579" d="M2281.171,487.833c.111,1.341,5.4,2.551,11.1,3.17a25.852,25.852,0,0,1,2.375-4.748c.878-1.365,1.895-2.909,3.031-4.515-5.415,0-9.167-.107-11.741-.965C2285.939,480.775,2280.98,485.543,2281.171,487.833Z" transform="translate(-2203.603 -265.671)" fill="#cad226" stroke="#231815" stroke-miterlimit="10" stroke-width="0.25"/>
        <path id="Path_9580" data-name="Path 9580" d="M2271.771,503.273c-6.876,6.751-11.948,10.46-16.775,12.759l.032.014c6.815,3.3,8.792-2.638,12.529-3.078s7.254-3.516,12.09-8.132,4.836-4.836,12.528-8.352c3.33-1.522,4.845-2.921,5.816-4.517a30.311,30.311,0,0,1-12.676-2.829S2282.262,492.973,2271.771,503.273Z" transform="translate(-2210.798 -263.371)" fill="#cad226" stroke="#231815" stroke-miterlimit="10" stroke-width="0.25"/>
        <path id="Path_9581" data-name="Path 9581" d="M2299.543,454.331s-3.052,9.347-6.1,14.5c0,0,9.835,2.123,27.235-2.753,1.063-2.95,1.989-6.515,3.353-10.85a46.543,46.543,0,0,1,3.679-8.7,91.8,91.8,0,0,1-9.468,3.992C2310.607,453.186,2303.548,455.285,2299.543,454.331Z" transform="translate(-2200.228 -275.089)" fill="#cad226" stroke="#231815" stroke-miterlimit="10" stroke-width="0.25"/>
        <path id="Path_9582" data-name="Path 9582" d="M2389.458,343.737c-4.256-12.464-13.578-13.984-18.645-14.49s-7.8-2.736-8.817-8.918-7.094-6.484-15.2-5.978-8.816-3.648-17.125-1.824-7.9,5.269-12.059,10.742-9.627,5.067-16.922,8.411-4.46,6.08-9.121,11.856-13.579,7.8-18.949,8.918-6.688,2.533-10.741,6.789-6.283,8.309-6.486,16.72-3.142,11.045-9.525,18.342-6.688,14.592-2.027,22.8,6.891,19.659,4.864,27.562-10.234,12.566-10.133,17.328,5.472,10.336,4.459,15.708-9.829,7.3-10.943,11.754,1.823,6.688,1.012,12.363-12.97,9.829-12.767,19.456,8.208,14.187,5.877,18.342-1.52,7.4,2.229,10.133a8.235,8.235,0,0,1,2.858,4.112c1.151-4.97,5.53-9.78,10.71-13.535,7.629-5.532,10.873-9.347,11.063-12.208s-3.052-10.683-2.67-17.931-1.717-19.267-1.907-24.417-1.145-21.366,1.716-21.556,0,13.353,2.48,27.469,3.816,26.9,6.867,29.185a71.4,71.4,0,0,0,4.77-5.341c.19-.572-4.387-11.637-4.578-25.37s-2.48-20.411-1.907-28.042-.572-21.746,1.907-21.173,1.145,18.312,2.861,36.625,4.579,25.943,7.822,29.949c0,0,5.532-5.722,5.913-7.248s-3.625-13.925-4.006-21.556-2.29-9.919-2.862-16.4-1.716-43.684,1.145-44.065-.573,20.411,2.29,44.255,8.2,29.759,8.583,30.9,8.394-13.353,8.394-13.353-3.816-11.064-6.868-20.792-6.867-28.8-4.577-29.186,4.006,21.365,8.393,31.094,4.006,12.4,6.676,15.07l4.77-9.157s-5.341-19.648-9.347-29.185-8.394-37.961-6.1-38.152,5.149,22.128,8.965,36.816,7.687,21.937,10.138,24.417a106.142,106.142,0,0,0,8.746-24.8s-5.151-2.289-9.729-18.693-6.676-45.019-3.242-45.019.191,22.509,8.965,41.775,10.683,14.879,11.636,10.873,7.439-21.934,7.439-31.092c0,0-9.538-11.064-12.209-24.608s-2.67-18.695-.762-18.885,1.335,21.173,15.07,33.764c0,0,2.03-14.236,4.768-23.272,3.815-12.59,2.1-26.325,4.768-25.37,2.344.836,1.909,14.688.764,25.56s-3.243,21.937-2.671,23.846,6.486-4.578,11.445-11.828,7.822-10.11,11.255-14.688,4.2-7.249,5.341-6.1-6.486,13.925-10.492,20.22a175.8,175.8,0,0,1-17.646,21.937s1.887,22.133-.593,35.3c0,0,3.17.376,11.181-5.537s12.25-8.012,17.666-13.544,8.087-8.513,9.041-7.023-2.424,11.212-19.36,23.28c-12.261,8.737-19.269,11.857-19.269,11.857s-2.765,17.477-5.436,27.778c0,0,7.821-1.526,16.023-9.157s14.5-13.78,20.6-18.621,6.687-5.415,7.54-4.461-4.107,8.584-8.876,14.689-16.405,13.544-21.937,17.55-11.254,8.012-15.451,8.774l-3.815,12.018a137.28,137.28,0,0,0,18.884-5.341c4.3-1.595,7.366-2.839,9.528-3.6a38.483,38.483,0,0,1,9.5-8.323c6.813-4.4,10-9.4,13.141-18.237s10.8-11.583,12.367-19.239-1.323-9.562-2.134-19.8,3.952-13.781,5.371-19.456-3.344-8.106-4.054-18.139S2393.715,356.2,2389.458,343.737Z" transform="translate(-2220.33 -312.061)" fill="#bfc632" stroke="#231815" stroke-miterlimit="10" stroke-width="0.25"/>
        <ellipse id="Ellipse_1548" data-name="Ellipse 1548" cx="4.066" cy="2.507" rx="4.066" ry="2.507" transform="translate(42.373 72.547)" fill="#dffffa" stroke="#231815" stroke-miterlimit="10" stroke-width="0.25"/>
        <ellipse id="Ellipse_1549" data-name="Ellipse 1549" cx="2.507" cy="4.066" rx="2.507" ry="4.066" transform="matrix(0.251, -0.968, 0.968, 0.251, 136.067, 27.451)" fill="#dffffa" stroke="#231815" stroke-miterlimit="10" stroke-width="0.25"/>
        <ellipse id="Ellipse_1550" data-name="Ellipse 1550" cx="1.83" cy="3.253" rx="1.83" ry="3.253" transform="translate(52.572 68.278) rotate(-72.881)" fill="#dffffa" stroke="#231815" stroke-miterlimit="10" stroke-width="0.25"/>
        <ellipse id="Ellipse_1551" data-name="Ellipse 1551" cx="3.463" cy="6.206" rx="3.463" ry="6.206" transform="translate(151.183 45.115) rotate(-71.461)" fill="#dffffa" stroke="#231815" stroke-miterlimit="10" stroke-width="0.25"/>
        <path id="Path_9583" data-name="Path 9583" d="M2370.474,429.38c-.853-.954-1.437-.381-7.54,4.461s-12.4,10.991-20.6,18.621-16.023,9.157-16.023,9.157c2.671-10.3,5.437-27.778,5.437-27.778s7.007-3.12,19.268-11.857c16.937-12.068,20.314-21.789,19.361-23.28s-3.625,1.49-9.041,7.022-9.654,7.631-17.666,13.544-11.181,5.537-11.181,5.537c2.48-13.163.593-35.3.593-35.3a175.786,175.786,0,0,0,17.647-21.937c4.006-6.294,11.636-19.075,10.492-20.22s-1.907,1.526-5.341,6.1-6.3,7.439-11.255,14.688-10.873,13.735-11.445,11.828,1.526-12.973,2.671-23.846,1.58-24.724-.764-25.56c-2.67-.955-.954,12.78-4.769,25.37-2.738,9.036-4.768,23.272-4.768,23.272-13.735-12.59-13.163-33.955-15.07-33.764s-1.907,5.341.762,18.885,12.209,24.608,12.209,24.608c0,9.158-6.486,27.087-7.44,31.092s-2.862,8.393-11.636-10.873-5.532-41.775-8.965-41.775-1.335,28.613,3.242,45.019,9.729,18.694,9.729,18.694a106.136,106.136,0,0,1-8.747,24.8c-2.452-2.48-6.323-9.728-10.138-24.417s-6.677-37.007-8.966-36.816,2.1,28.614,6.1,38.152S2295.979,462,2295.979,462l-4.769,9.157c-2.67-2.671-2.289-5.341-6.676-15.07s-6.1-31.475-8.393-31.094,1.525,19.457,4.577,29.186,6.869,20.792,6.869,20.792-8.012,14.5-8.395,13.353-5.722-7.057-8.583-30.9.573-44.636-2.29-44.255-1.716,37.58-1.145,44.065,2.481,8.774,2.863,16.4,4.387,20.03,4.006,21.556-5.914,7.248-5.914,7.248c-3.243-4.006-6.1-11.637-7.822-29.949s-.382-36.053-2.861-36.624-1.335,13.543-1.907,21.173,1.716,14.306,1.907,28.042,4.769,24.8,4.578,25.37-4.77,5.341-4.77,5.341c-3.051-2.289-4.387-15.069-6.867-29.185s.381-27.66-2.48-27.469-1.907,16.4-1.716,21.556,2.289,17.167,1.907,24.417,2.861,15.07,2.67,17.931-3.434,6.676-11.062,12.208c-5.18,3.755-9.559,8.565-10.71,13.535a10.219,10.219,0,0,0,.791,7.067c3.623,7.25,17.167,8.393,24.8,6.486a39.826,39.826,0,0,0,7.642-2.693c4.827-2.3,9.9-6.008,16.775-12.758,10.492-10.3,13.543-14.135,13.543-14.135a30.312,30.312,0,0,0,12.676,2.829,21.308,21.308,0,0,0,1.48-3.264c-5.7-.618-10.992-1.828-11.1-3.17-.191-2.29,4.768-7.058,4.768-7.058,2.574.858,6.327.965,11.741.965.942-1.331,1.973-2.7,3.089-4.061a83.586,83.586,0,0,1-12.923-.338s-.762-1.717,3.053-6.1,3.052-6.3,3.052-6.3,3.814-.571,11.064-.954a71.935,71.935,0,0,0,17.358-3.543,25.957,25.957,0,0,0,1.674-3.787c-17.4,4.875-27.235,2.753-27.235,2.753,3.052-5.151,6.1-14.5,6.1-14.5,4.006.954,11.064-1.145,18.694-3.816a91.786,91.786,0,0,0,9.468-3.992,35.441,35.441,0,0,1,3.3-4.949c-2.162.761-5.225,2.005-9.528,3.6a137.291,137.291,0,0,1-18.885,5.341l3.814-12.018c4.2-.762,9.919-4.768,15.451-8.774s17.169-11.445,21.937-17.55S2371.328,430.335,2370.474,429.38Z" transform="translate(-2218.029 -306.985)" fill="#fff6eb" stroke="#000" stroke-miterlimit="10" stroke-width="0.25"/>
      </g>
      <ellipse id="Ellipse_1552" data-name="Ellipse 1552" cx="2.84" cy="2.061" rx="2.84" ry="2.061" transform="translate(276.335 72.882)" fill="#dffffa" stroke="#231815" stroke-miterlimit="10" stroke-width="0.25"/>
      <ellipse id="Ellipse_1553" data-name="Ellipse 1553" cx="3.018" cy="4.916" rx="3.018" ry="4.916" transform="translate(295.875 87.194) rotate(-63.236)" fill="#dffffa" stroke="#231815" stroke-miterlimit="10" stroke-width="0.25"/>
      <g id="Group_2845" data-name="Group 2845" transform="translate(267.946 324.065)">
        <path id="Path_9584" data-name="Path 9584" d="M2266.671,526.969s6.612-3.746,14.1-2.2,12.342,1.763,18.512-3.3,22.455-1.814,34.159-7.493c8.837-4.288,5.925-9.329,18.024-14.819s18.483-3.249,26.381-15.8.393-15.685,2.073-25.879,10.644-18.933,3.473-25.543-15.236-8.514-28.9,0-29.24,25.43-29.24,25.43l-21.733,25.1-12.343,22.8Z" transform="translate(-2266.671 -426.237)" fill="#ddd658" stroke="#000" stroke-linejoin="round" stroke-width="0.25"/>
        <path id="Path_9585" data-name="Path 9585" d="M2281.955,495.893c.784-.224,3.585.345,9.747,2.47s9.633-.992,6.273-2.516-6.834-.179-11.426-3.988Z" transform="translate(-2262.468 -408.193)" fill="#cad226" stroke="#231815" stroke-miterlimit="10" stroke-width="0.25"/>
        <path id="Path_9586" data-name="Path 9586" d="M2292.675,480.527s2.24,5.938,10.307,8.065,19.605,6.611,21.623,4.93-3.81-2.689-10.307-4.482-8.738-3.361-13-5.153a20.781,20.781,0,0,1-6.786-4.594Z" transform="translate(-2259.521 -411.648)" fill="#cad226" stroke="#231815" stroke-miterlimit="10" stroke-width="0.25"/>
        <path id="Path_9587" data-name="Path 9587" d="M2298.562,475.242s3.922,3.7,13.892,4.257,14.9.9,22.182,1.9,10.643-3.585,6.274-3.808-15.437.7-26.551-1.9-11.54-4.071-11.54-4.071Z" transform="translate(-2257.902 -413.758)" fill="#cad226" stroke="#231815" stroke-miterlimit="10" stroke-width="0.25"/>
        <path id="Path_9588" data-name="Path 9588" d="M2306.877,470.326c.49.111,7.015.672,14.227,1.344a52.519,52.519,0,0,0,22.336-2.577c8.067-2.689,8.626-1.286,10.082-2.94s.449-2.69-3.585-1.163-13.331,2.535-22.629,2.647a37.678,37.678,0,0,1-16.132-3.391Z" transform="translate(-2255.616 -415.786)" fill="#bfc632" stroke="#231815" stroke-miterlimit="10" stroke-width="0.25"/>
        <path id="Path_9589" data-name="Path 9589" d="M2313.524,468.569a49.366,49.366,0,0,0,7.924-3.81s7.953.819,19.718-3.736,13.443-6.682,12.771-8.252-15.237,8.067-29.352,7.9a114.825,114.825,0,0,1,14.16-9.018c7.8-4.145,7.575-7.506,12.167-10.195s3.839-6.274,3.152-6.274-4.272,3.473-10.21,7.058-20.389,13.443-26.662,15.8Z" transform="translate(-2253.788 -423.777)" fill="#cad226" stroke="#231815" stroke-miterlimit="10" stroke-width="0.25"/>
        <ellipse id="Ellipse_1554" data-name="Ellipse 1554" cx="2.107" cy="1.445" rx="2.107" ry="1.445" transform="translate(106.309 11.407)" fill="none" stroke="#231815" stroke-miterlimit="10" stroke-width="0.25"/>
      </g>
      <g id="Group_2846" data-name="Group 2846" transform="translate(151.996 470.775)">
        <path id="Path_9590" data-name="Path 9590" d="M2181.1,550.079s.152-4.738,3.824-7.353c3.631-2.587,7.212-1.179,10.386.6,4.491,2.513,11.1.156,18.48.467s10.793,4.687,13.9,9.254,8.93,3.169,9.317,7.207-4.193,7.92-9.861,5.823-12.715.7-18.083.233-11.268-.7-16.859,1.864-5.745-1.01-5.978-3.806-1.319-4.969-6.91-4.27-3.8-7.377-.311-8.309S2181.1,550.079,2181.1,550.079Z" transform="translate(-2175.727 -541.307)" fill="#bfc632" stroke="#231815" stroke-miterlimit="10" stroke-width="0.25"/>
        <path id="Path_9591" data-name="Path 9591" d="M2177.453,550.588c-.844-3.093,8.389-4.467,17.213-2.941s27.456,3.486,28,7.189-10.895-3.268-25.494-3.159S2178.105,552.985,2177.453,550.588Z" transform="translate(-2175.267 -539.736)" fill="#fff6eb" stroke="#000" stroke-miterlimit="10" stroke-width="0.25"/>
      </g>
      <ellipse id="Ellipse_1555" data-name="Ellipse 1555" cx="5.734" cy="3.044" rx="5.734" ry="3.044" transform="translate(185.285 458.15)" fill="#c19165" stroke="#000" stroke-linejoin="round" stroke-width="0.25"/>
      <path id="Path_9592" data-name="Path 9592" d="M2255.429,561.569s2.844-3.218,8.085-.524a19.158,19.158,0,0,0,16.166.524" transform="translate(-2001.816 -65.4)" fill="none" stroke="#231815" stroke-miterlimit="10" stroke-width="0.25"/>
      <path id="Path_9593" data-name="Path 9593" d="M2227.662,529.409s5.987-3.892,12.274-2.4,7.574,6.215,17.514,4.341c13.1-2.47,21.631,5.314,26.5,4.042" transform="translate(-2009.45 -74.556)" fill="none" stroke="#231815" stroke-miterlimit="10" stroke-width="0.25"/>
      <ellipse id="Ellipse_1556" data-name="Ellipse 1556" cx="3.203" cy="1.945" rx="3.203" ry="1.945" transform="translate(305.014 473.228)" fill="#ecb36f" stroke="#000" stroke-linejoin="round" stroke-width="0.25"/>
      <path id="Path_9594" data-name="Path 9594" d="M2282,526.84c7.68-2.753,15.632,2.82,18.079.578" transform="translate(-1994.51 -74.725)" fill="none" stroke="#231815" stroke-miterlimit="10" stroke-width="0.25"/>
      <path id="Path_9595" data-name="Path 9595" d="M2310.357,532.17a21.668,21.668,0,0,0,6.389-.408" transform="translate(-1986.713 -73.156)" fill="none" stroke="#231815" stroke-miterlimit="10" stroke-width="0.25"/>
      <ellipse id="Ellipse_1557" data-name="Ellipse 1557" cx="4.723" cy="2.379" rx="4.723" ry="2.379" transform="translate(327.111 441.682)" fill="#ecb36f" stroke="#000" stroke-linejoin="round" stroke-width="0.25"/>
      <ellipse id="Ellipse_1558" data-name="Ellipse 1558" cx="2.685" cy="1.359" rx="2.685" ry="1.359" transform="translate(341.383 445.964)" fill="#ecb36f" stroke="#000" stroke-linejoin="round" stroke-width="0.25"/>
      <path id="Path_9596" data-name="Path 9596" d="M2293.426,561.2c2.3-.014,5.953.546,8.535,0" transform="translate(-1991.368 -65.062)" fill="none" stroke="#231815" stroke-miterlimit="10" stroke-width="0.25"/>
      <ellipse id="Ellipse_1559" data-name="Ellipse 1559" cx="6.274" cy="2.893" rx="6.274" ry="2.893" transform="translate(13.975 468.309)" fill="#c19165" stroke="#000" stroke-linejoin="round" stroke-width="0.25"/>
      <ellipse id="Ellipse_1560" data-name="Ellipse 1560" cx="4.389" cy="2.292" rx="4.389" ry="2.292" transform="translate(0 478.035)" fill="#c19165" stroke="#000" stroke-linejoin="round" stroke-width="0.25"/>
      <path id="Path_9597" data-name="Path 9597" d="M2071.284,558.85c6.894-6.4,16.355.291,21.516-2.109" transform="translate(-2052.448 -66.494)" fill="none" stroke="#231815" stroke-miterlimit="10" stroke-width="0.25"/>
      <path id="Path_9598" data-name="Path 9598" d="M2093.463,557.868a7.2,7.2,0,0,1,4.944,0,7.2,7.2,0,0,0,4.943,0" transform="translate(-2046.35 -66.094)" fill="none" stroke="#231815" stroke-miterlimit="10" stroke-width="0.25"/>
      <path id="Path_9599" data-name="Path 9599" d="M2063.55,448.908c8.685-5.319,17.262-2.6,28.444.978s18.153-5.258,32.242-.978" transform="translate(-2054.575 -96.759)" fill="none" stroke="#231815" stroke-miterlimit="10" stroke-width="0.25"/>
      <ellipse id="Ellipse_1561" data-name="Ellipse 1561" cx="3.268" cy="1.801" rx="3.268" ry="1.801" transform="translate(29.2 335.721)" fill="#ecb36f" stroke="#000" stroke-linejoin="round" stroke-width="0.25"/>
      <ellipse id="Ellipse_1562" data-name="Ellipse 1562" cx="4.207" cy="2.398" rx="4.207" ry="2.398" transform="translate(46.822 332.118)" fill="#ecb36f" stroke="#000" stroke-linejoin="round" stroke-width="0.25"/>
      <path id="Path_9600" data-name="Path 9600" d="M2114.082,448.782c1.721,0,4.263-1.122,5.685-.374" transform="translate(-2040.681 -96.146)" fill="none" stroke="#231815" stroke-miterlimit="10" stroke-width="0.25"/>
      <ellipse id="Ellipse_1563" data-name="Ellipse 1563" cx="3.664" cy="2.089" rx="3.664" ry="2.089" transform="translate(12.584 365.662)" fill="#c19165" stroke="#000" stroke-linejoin="round" stroke-width="0.25"/>
      <path id="Path_9601" data-name="Path 9601" d="M2089.987,467.7c3.27-2.18,8.417,1.453,13.383-.909" transform="translate(-2047.306 -91.02)" fill="none" stroke="#231815" stroke-miterlimit="10" stroke-width="0.25"/>
      <path id="Path_9602" data-name="Path 9602" d="M2106.374,466.242c1.392.363,4.6-1.332,5.995,0" transform="translate(-2042.8 -91.314)" fill="none" stroke="#231815" stroke-miterlimit="10" stroke-width="0.25"/>
      <ellipse id="Ellipse_1564" data-name="Ellipse 1564" cx="3.833" cy="2.131" rx="3.833" ry="2.131" transform="translate(73.713 386.32) rotate(-11.18)" fill="#ecb36f" stroke="#000" stroke-linejoin="round" stroke-width="0.25"/>
    </g>
    <g id="Group_2849" data-name="Group 2849" transform="translate(2184.855 558.097)">
      <g id="Group_2848" data-name="Group 2848">
        <path id="Path_9603" data-name="Path 9603" d="M2234.449,504.651c-.932-4.965-1.863-9.154-11.638-19.55s-25.846-14.245-41.893-5.12c-15.826,9-21.877,20.946-23.584,30.1-1.576,8.449,8.973,10.569,17.445,11.533l-11.249-19.28a8.427,8.427,0,0,0,6.727-4.877c2.354-4.708,3.615-6.306,10.427-6.39s9.753-7.652,17.742-8.913,10.427,2.018,14.883,5.129,7.653,2.522,10.26,7.316,1.513,7.147,3.867,12.192.088,7.655,1.01,10.846a8.334,8.334,0,0,1,.2,3.389c3.239-.847,4.589-2.816,4.719-5.67C2233.517,511.944,2235.38,509.616,2234.449,504.651Z" transform="translate(-2157.176 -474.844)" fill="#cad226" stroke="#231815" stroke-miterlimit="10" stroke-width="0.25"/>
        <path id="Path_9604" data-name="Path 9604" d="M2227.074,516.121c-.922-3.191,1.345-5.8-1.01-10.846s-1.261-7.4-3.867-12.192-5.8-4.2-10.26-7.316-6.895-6.39-14.883-5.129-10.931,8.829-17.742,8.913-8.072,1.682-10.427,6.39a8.427,8.427,0,0,1-6.727,4.877l11.249,19.28c1.109.126,2.186.233,3.191.331,8.689.848,14.74-1.469,22.343-.538s21.412.465,26.222,0a13.284,13.284,0,0,0,2.109-.381A8.334,8.334,0,0,0,2227.074,516.121Z" transform="translate(-2155.806 -473.327)" fill="#fff6eb" stroke="#000" stroke-miterlimit="10" stroke-width="0.25"/>
      </g>
      <ellipse id="Ellipse_1565" data-name="Ellipse 1565" cx="0.937" cy="1.163" rx="0.937" ry="1.163" transform="translate(28.536 39.115)" fill="#ddd658" stroke="#000" stroke-linejoin="round" stroke-width="0.25"/>
      <ellipse id="Ellipse_1566" data-name="Ellipse 1566" cx="0.937" cy="1.454" rx="0.937" ry="1.454" transform="translate(34.676 40.795)" fill="#ddd658" stroke="#000" stroke-linejoin="round" stroke-width="0.25"/>
      <ellipse id="Ellipse_1567" data-name="Ellipse 1567" cx="1.131" cy="1.616" rx="1.131" ry="1.616" transform="translate(41.785 39.955)" fill="#ddd658" stroke="#000" stroke-linejoin="round" stroke-width="0.25"/>
      <ellipse id="Ellipse_1568" data-name="Ellipse 1568" cx="0.975" cy="1.365" rx="0.975" ry="1.365" transform="translate(54.802 39.955)" fill="#ddd658" stroke="#000" stroke-linejoin="round" stroke-width="0.25"/>
      <ellipse id="Ellipse_1569" data-name="Ellipse 1569" cx="0.975" cy="1.365" rx="0.975" ry="1.365" transform="matrix(0.906, -0.423, 0.423, 0.906, 47.964, 40.495)" fill="#ddd658" stroke="#000" stroke-linejoin="round" stroke-width="0.25"/>
      <ellipse id="Ellipse_1570" data-name="Ellipse 1570" cx="0.975" cy="1.365" rx="0.975" ry="1.365" transform="matrix(0.906, -0.423, 0.423, 0.906, 60.892, 40.24)" fill="#ddd658" stroke="#000" stroke-linejoin="round" stroke-width="0.25"/>
    </g>
    <g id="Group_2850" data-name="Group 2850" transform="translate(2082.24 565.431)">
      <path id="Path_9605" data-name="Path 9605" d="M2081.34,521.128c1.383-5.952-1.689-8.079-.45-11.475s3.718-2.044,5.181-6.437,6.76.921,10.815-2.864,1.689-7.276,7.436-11.556,8.562-6.648,12.166-2.592,7.661-2.059,12.844-3.226,5.971,1.163,10.589-1.128,7.435-1.643,11.717,3.608,9.463.634,19.263,2.436,8.111,9.125,14.646,11.6,8.225,2.816,10.252,9.125,3.154,6.422,8.563,7.21,8.224,3.718,8.224,8.787-6.084,6.872-5.971,12.055,1.577,11.378-5.408,16.56-7.772-.113-14.645,2.365-6.084,6.872-6.31,9.351-3.154,7.548-8.449,6.534-8.449-5.519-15.771-5.858-6.646,2.478-13.969-1.239-14.532.789-23.995.564-6.76-10.7-14.083-11.6-17.574,4.957-16.673-4.506-2.529-9.65-8-13.068C2073,531.83,2079.876,527.437,2081.34,521.128Z" transform="translate(-2076.691 -480.596)" fill="#bfc632" stroke="#231815" stroke-miterlimit="10" stroke-width="0.25"/>
      <path id="Path_9606" data-name="Path 9606" d="M2079.559,518.554c-.074-2.581,2.72-3.326,6.549-2.721s9.674.377,13.5,1.2,3.426-3.312,6.954-6.738,3.527-6.279,8.968-11.5,8.666-9.76,11.488-8.147-4.737,5.441-11.084,12.394-9.069,11.487-9.675,13.906,9.271,2.721,10.782.6a41.311,41.311,0,0,1,11.185-12.293c7.659-5.844,17.736-14.51,20.052-12.7s-14.006,10.984-19.245,16.224-7.357,5.945-8.163,8.162-.1,2.821,4.937,2.721,8.263,1.41,10.48-1.714,8.464-7.456,16.828-11.689,14.309-7.355,16.325-5.744-8.867,3.83-19.65,10.782-10.078,8.642-10.078,8.642,13.676,2.241,17.419,1.738,4.649-3.427,14.928-6.651,13-1.612,13.1-.1-5.34.2-13.3,3.426-7.558,5.085-7.558,5.085a75.058,75.058,0,0,1,9.371,1.567c8.026,2.025,16.983,1.13,15.7,4.306-.624,1.539-12.809-2.836-25.934-2.625,0,0-3.554.046,5.366,8.675,8.307,8.032,11.013,11.065,9.858,11.9s-9.661-5.04-15.96-11.969-5.26-8.085-10.5-9.659-14.7-3.046-13.015-.946a60.453,60.453,0,0,0,17.324,15.33c9.871,5.67,16.17,10.71,15.541,12.075s-5.775-1.365-16.8-8.925-17.912-14.388-20.771-17.73c-1.785-2.086-15.011-4-14.928-2,.11,2.616,4.935,5.558,11.969,11.857s27.089,16.065,26.25,18.27-13.612-5.986-23.291-12.495-18.5-18.052-23.224-18.948-7.14-1.414-5.985,0a118.922,118.922,0,0,0,11.761,11.494c5.249,4.409,14.174,9.029,13.229,10.71s-12.18-6.2-17.43-11.13-10.6-9.757-14.909-11.073S2079.7,523.308,2079.559,518.554Z" transform="translate(-2075.904 -477.924)" fill="#fff6eb" stroke="#000" stroke-miterlimit="10" stroke-width="0.25"/>
      <ellipse id="Ellipse_1571" data-name="Ellipse 1571" cx="4.72" cy="2.739" rx="4.72" ry="2.739" transform="translate(84.568 10.891)" fill="#dffffa" stroke="#231815" stroke-miterlimit="10" stroke-width="0.25"/>
      <ellipse id="Ellipse_1572" data-name="Ellipse 1572" cx="2.306" cy="4.099" rx="2.306" ry="4.099" transform="matrix(0.286, -0.958, 0.958, 0.286, 124.715, 42.96)" fill="#dffffa" stroke="#231815" stroke-miterlimit="10" stroke-width="0.25"/>
      <ellipse id="Ellipse_1573" data-name="Ellipse 1573" cx="2.915" cy="1.932" rx="2.915" ry="1.932" transform="translate(115.536 42.661) rotate(-9.566)" fill="#dffffa" stroke="#231815" stroke-miterlimit="10" stroke-width="0.25"/>
    </g>
  </g>
</svg>
