<svg xmlns="http://www.w3.org/2000/svg" width="391.413" height="533.443" viewBox="0 0 391.413 533.443">
  <g id="Group_2874" data-name="Group 2874" transform="translate(-509.553 -159.264)">
    <g id="Group_2874-2" data-name="Group 2874" transform="translate(586.391 227.038)">
      <path id="Path_9737" data-name="Path 9737" d="M663.082,251.157a26.171,26.171,0,0,0,15.212-14.519c4.61-11.293,13.92-19.051,32.127-19.642s20.571-3.31,30.03-6.384,32.985-4,43.035,16.15-3.908,34.082-8.378,46.748,2.83,14.006-7.451,34.418-39.327,16.772-48.5,32.223-66.363,22.462-63.843-28.726S652.638,263.082,663.082,251.157Z" transform="translate(-533.179 -208.935)" fill="#518937" stroke="#000" stroke-linejoin="round" stroke-width="0.25"/>
      <path id="Path_9738" data-name="Path 9738" d="M790.381,222.757c1.143,2.1-5.441,5.138-16.775,13.449s-28.411,24.784-42.313,40.8a204.765,204.765,0,0,0-23.121,33.247S636.706,448.992,621.8,464.225s-44.84,70.108-45.105,69.992-10.857-19.986-10.857-19.986,17.548-26.162,33.113-44.376,20.2-22.519,36.759-51.66,47.357-77.712,61.6-103.93,17.882-30.191,30.467-42.112S750.134,248,766.267,237.167,788.683,219.64,790.381,222.757Z" transform="translate(-565.84 -204.165)" fill="#a5b63d" stroke="#231815" stroke-miterlimit="10" stroke-width="0.25"/>
      <path id="Path_9739" data-name="Path 9739" d="M722.453,217.577s-7.44,9.453-5.449,17.171" transform="translate(-510.732 -205.777)" fill="none" stroke="#231815" stroke-miterlimit="10" stroke-width="0.25"/>
      <path id="Path_9740" data-name="Path 9740" d="M710.425,220.277S699.464,234.862,699.759,252" transform="translate(-516.912 -204.791)" fill="none" stroke="#231815" stroke-miterlimit="10" stroke-width="0.25"/>
      <path id="Path_9741" data-name="Path 9741" d="M693.364,227.029s-14.725,19.839-11.4,46.679" transform="translate(-523.589 -202.324)" fill="none" stroke="#231815" stroke-miterlimit="10" stroke-width="0.25"/>
      <path id="Path_9742" data-name="Path 9742" d="M673.151,240.6s-14.332,20.735-10.881,66.858" transform="translate(-530.803 -197.363)" fill="none" stroke="#231815" stroke-miterlimit="10" stroke-width="0.25"/>
      <path id="Path_9743" data-name="Path 9743" d="M684.662,265.088s29.433,10.481,60.777,0" transform="translate(-522.426 -188.418)" fill="none" stroke="#231815" stroke-miterlimit="10" stroke-width="0.25"/>
      <path id="Path_9744" data-name="Path 9744" d="M743.39,280.369c-11.293,7.082-61.058,12.553-73.306,8.557" transform="translate(-527.752 -182.835)" fill="none" stroke="#231815" stroke-miterlimit="10" stroke-width="0.25"/>
      <path id="Path_9745" data-name="Path 9745" d="M718.008,232.4s11.3,6.633,27.672,3.3" transform="translate(-510.242 -200.361)" fill="none" stroke="#231815" stroke-miterlimit="10" stroke-width="0.25"/>
      <path id="Path_9746" data-name="Path 9746" d="M701.625,246.779s21.636,9.9,45.838,1.5" transform="translate(-516.228 -195.108)" fill="none" stroke="#231815" stroke-miterlimit="10" stroke-width="0.25"/>
      <ellipse id="Ellipse_1612" data-name="Ellipse 1612" cx="4.117" cy="2.687" rx="4.117" ry="2.687" transform="matrix(0.826, -0.564, 0.564, 0.826, 230.523, 22.169)" fill="#dffffa" stroke="#231815" stroke-miterlimit="10" stroke-width="0.25"/>
    </g>
    <g id="Group_2876" data-name="Group 2876" transform="translate(534.338 296.559)">
      <path id="Path_9747" data-name="Path 9747" d="M601.114,466.071s-3.331,2.089-10.982,13.2-5.486,4.186-13.136,22.664-3.753,17.467-11.693,30.314-8.661,12.993-12.847,22.376-3.9,7.65-9.96,17.323-11.4,14-14.291,11.259,7.795-2.021,12.126-15.878,8.661-12.993,12.847-23.964,4.626-13.714,8.16-20.066,5.554-10.44,7.43-19.654,7.114-13.341,7.6-26.469,13.049-20.715,13.049-20.715Z" transform="translate(-527.716 -188.015)" fill="#ecb36f" stroke="#000" stroke-linejoin="round" stroke-width="0.25"/>
      <g id="Group_2875" data-name="Group 2875" transform="translate(61.686)">
        <path id="Path_9748" data-name="Path 9748" d="M766.22,261.6s8.99,3.437,21.977-.541,35.845,1.868,41,17.78c6.136,18.935-10.624,35.677-7.7,49.836,3.566,17.3-2.245,42.081-28.971,48.256-31.01,7.167-32.632,17.212-41.29,27.765s-22.975,15.549-41.624,14.218-53.729,5.24-46.406-36.1-7.7-44.444,19.351-67.217,36.419-18.2,52.08-40.012S766.22,261.6,766.22,261.6Z" transform="translate(-540.26 -259.852)" fill="#62a542" stroke="#000" stroke-linejoin="round" stroke-width="0.25"/>
        <path id="Path_9749" data-name="Path 9749" d="M827.709,280.482c1.24,3.273-9.749,6.461-30.8,18.868s-50.822,32.713-59.418,44.271c0,0-66.421,57.75-75.485,71.871s-18.54,19.331-33.281,42.784-16.722,27.137-24.154,45.825-13.981,30.213-27.131,25.468,5.9-38.958,10.819-44.992,25.347-23.116,31.143-35.67,25.117-25.867,34.779-38.956,82.482-78.355,101.7-90.6,36.268-22.445,44.947-26.845S826.719,277.868,827.709,280.482Z" transform="translate(-572.895 -252.469)" fill="#a5b63d" stroke="#231815" stroke-miterlimit="10" stroke-width="0.25"/>
        <path id="Path_9750" data-name="Path 9750" d="M752.9,271.392s-10.878,8.988-12.288,23.737" transform="translate(-511.615 -255.636)" fill="none" stroke="#231815" stroke-miterlimit="10" stroke-width="0.25"/>
        <path id="Path_9751" data-name="Path 9751" d="M773.6,295.8s-24.5,3.039-31.791-4.388" transform="translate(-511.177 -248.322)" fill="none" stroke="#231815" stroke-miterlimit="10" stroke-width="0.25"/>
        <path id="Path_9752" data-name="Path 9752" d="M724.345,305.9s2.146-18.656,10.806-29.48" transform="translate(-517.559 -253.799)" fill="none" stroke="#231815" stroke-miterlimit="10" stroke-width="0.25"/>
        <path id="Path_9753" data-name="Path 9753" d="M785.225,315.7s-39.989,6.092-59.435-14.611" transform="translate(-517.031 -244.784)" fill="none" stroke="#231815" stroke-miterlimit="10" stroke-width="0.25"/>
        <path id="Path_9754" data-name="Path 9754" d="M706.933,318.944s-1.525-18.016,11.464-37.77" transform="translate(-523.941 -252.062)" fill="none" stroke="#231815" stroke-miterlimit="10" stroke-width="0.25"/>
        <path id="Path_9755" data-name="Path 9755" d="M708.8,312.828s25.529,24.305,70.042,18.82" transform="translate(-523.237 -240.496)" fill="none" stroke="#231815" stroke-miterlimit="10" stroke-width="0.25"/>
        <path id="Path_9756" data-name="Path 9756" d="M694.887,324.862s20.855,24.913,61.58,20.313" transform="translate(-528.323 -236.099)" fill="none" stroke="#231815" stroke-miterlimit="10" stroke-width="0.25"/>
        <path id="Path_9757" data-name="Path 9757" d="M731.775,364.4s-34.959,1.974-53.581-24.018" transform="translate(-534.422 -230.429)" fill="none" stroke="#231815" stroke-miterlimit="10" stroke-width="0.25"/>
        <ellipse id="Ellipse_1613" data-name="Ellipse 1613" cx="5.635" cy="3.374" rx="5.635" ry="3.374" transform="matrix(0.913, -0.408, 0.408, 0.913, 268.09, 30.123)" fill="#dffffa" stroke="#231815" stroke-miterlimit="10" stroke-width="0.25"/>
        <ellipse id="Ellipse_1614" data-name="Ellipse 1614" cx="3.337" cy="2.103" rx="3.337" ry="2.103" transform="translate(264.028 21.551) rotate(-11.07)" fill="#dffffa" stroke="#231815" stroke-miterlimit="10" stroke-width="0.25"/>
      </g>
      <path id="Path_9758" data-name="Path 9758" d="M573.18,469.515c-4.178,18.138,5.494,16.252,2.606,25.635" transform="translate(-511.494 -183.247)" fill="none" stroke="#231815" stroke-miterlimit="10" stroke-width="0.25"/>
      <path id="Path_9759" data-name="Path 9759" d="M567.218,479.832s-10.254,4.041-10.819,8.661" transform="translate(-517.237 -179.477)" fill="none" stroke="#231815" stroke-miterlimit="10" stroke-width="0.25"/>
      <path id="Path_9760" data-name="Path 9760" d="M559.807,496.325c-.688,6.7,4.857,13.8,6.188,18.478" transform="translate(-516.013 -173.451)" fill="none" stroke="#231815" stroke-miterlimit="10" stroke-width="0.25"/>
      <path id="Path_9761" data-name="Path 9761" d="M558.026,505.523s-12.97,5.629-12.825,16.6" transform="translate(-521.328 -170.091)" fill="none" stroke="#231815" stroke-miterlimit="10" stroke-width="0.25"/>
      <path id="Path_9762" data-name="Path 9762" d="M550.8,514.805s-1.251,7.825,4.091,11.723" transform="translate(-519.328 -166.699)" fill="none" stroke="#231815" stroke-miterlimit="10" stroke-width="0.25"/>
      <path id="Path_9763" data-name="Path 9763" d="M544.038,528.36s.867,7.217,4.043,9.383" transform="translate(-521.753 -161.746)" fill="none" stroke="#231815" stroke-miterlimit="10" stroke-width="0.25"/>
      <path id="Path_9764" data-name="Path 9764" d="M540.971,537.558a14.607,14.607,0,0,1-10.27,4.331" transform="translate(-526.626 -158.386)" fill="none" stroke="#231815" stroke-miterlimit="10" stroke-width="0.25"/>
    </g>
    <g id="Group_2877" data-name="Group 2877" transform="translate(584.548 159.389)">
      <path id="Path_9765" data-name="Path 9765" d="M567.563,286.311c1.252-.991,4.556-14.868,1.582-25.113s-1.656-16.5,9.848-25.38S593.622,212.151,594.444,199s13.641-39.939,45.362-39.611,50.265,25.642,49.964,43.39c-.366,21.6,19.283,25.919,8,53.226s-34.844,59.784-34.844,59.784-60.616,26.9-58.82,26.1S567.563,286.311,567.563,286.311Z" transform="translate(-563.367 -159.389)" fill="#62a542" stroke="#000" stroke-linejoin="round" stroke-width="0.25"/>
      <path id="Path_9766" data-name="Path 9766" d="M623.365,167.916c3.027.223,1.828,8.614,1.312,16.195s-2.451,16.367-1.312,21.536-3.685,17.4-3.512,27.566l-4.136,2.511a95.213,95.213,0,0,0,3.618-19.567c.517-9.476,2.413-27.393,2.929-33.251S621.02,167.744,623.365,167.916Z" transform="translate(-545.773 -156.274)" fill="#a5b63d" stroke="#231815" stroke-miterlimit="10" stroke-width="0.25"/>
      <path id="Path_9767" data-name="Path 9767" d="M610.3,171.574s-.878,23.949,12.224,29.634" transform="translate(-547.758 -154.937)" fill="none" stroke="#231815" stroke-miterlimit="10" stroke-width="0.25"/>
      <path id="Path_9768" data-name="Path 9768" d="M642.27,173.972s-4.862,22.4-20.952,26.36" transform="translate(-543.727 -154.061)" fill="none" stroke="#231815" stroke-miterlimit="10" stroke-width="0.25"/>
      <path id="Path_9769" data-name="Path 9769" d="M596.1,185.454s3.529,35.146,26.787,45.311" transform="translate(-552.941 -149.865)" fill="none" stroke="#231815" stroke-miterlimit="10" stroke-width="0.25"/>
      <path id="Path_9770" data-name="Path 9770" d="M653.375,192.745s-7.408,28.637-34.629,35.356" transform="translate(-544.666 -147.201)" fill="none" stroke="#231815" stroke-miterlimit="10" stroke-width="0.25"/>
      <path id="Path_9771" data-name="Path 9771" d="M585.939,211.2s8.422,39.11,39.357,45.829" transform="translate(-556.653 -140.46)" fill="none" stroke="#231815" stroke-miterlimit="10" stroke-width="0.25"/>
      <path id="Path_9772" data-name="Path 9772" d="M578.872,231.894s12.75,40.037,45.829,47.652" transform="translate(-559.235 -132.897)" fill="none" stroke="#231815" stroke-miterlimit="10" stroke-width="0.25"/>
      <ellipse id="Ellipse_1615" data-name="Ellipse 1615" cx="2.952" cy="2.02" rx="2.952" ry="2.02" transform="translate(105.959 33.891) rotate(-30)" fill="#dffffa" stroke="#231815" stroke-miterlimit="10" stroke-width="0.25"/>
      <path id="Path_9773" data-name="Path 9773" d="M604.258,345.992s-4.276,74.125-39.768,144.386l11.876-.218S621.384,355.318,618,317.617Z" transform="translate(-564.49 -101.576)" fill="#a5b63d" stroke="#231815" stroke-miterlimit="10" stroke-width="0.25"/>
    </g>
    <g id="Group_2879" data-name="Group 2879" transform="translate(509.593 269.277)">
      <path id="Path_9774" data-name="Path 9774" d="M572.678,453.545a18.467,18.467,0,0,1-7.333,9.416c-5.744,3.778-6.8,12.092-16.779,18.742s-20.834,14.11-24.588,18.09-5.685,6.027-7.505,10.917-8.3,7.96-6.6,10.348,7.62-.8,12.51-8.3,9.365-9.028,16.148-12.055,14.1-13.419,25.133-23.654,20.926-18.423,19.106-26.383Z" transform="translate(-509.593 -162.852)" fill="#ecb36f" stroke="#000" stroke-linejoin="round" stroke-width="0.25"/>
      <g id="Group_2878" data-name="Group 2878" transform="translate(17.609)">
        <path id="Path_9775" data-name="Path 9775" d="M596,421.288c-.253-.76-3.778-5.879-13.524-6.678s-10.706-5.112-15.019-14.54-26.043-12.622-33.712-23.486,7.19-23.647,2.236-43.62-14.38-25.244-13.422-45.7,4.648-29.492,14.22-38.506c14.675-13.816,32.435-9.267,45.057-1.6s17.351,15.841,23.326,25.883,8.468,12.144,12.942,14.859,37.848,63.5,20.609,97.015l-11.386,23.966a26.662,26.662,0,0,0-19.653,12.4Z" transform="translate(-522.489 -239.871)" fill="#518937" stroke="#000" stroke-linejoin="round" stroke-width="0.25"/>
        <ellipse id="Ellipse_1616" data-name="Ellipse 1616" cx="6.363" cy="3.068" rx="6.363" ry="3.068" transform="matrix(0.602, -0.799, 0.799, 0.602, 13.078, 39.002)" fill="#dffffa" stroke="#231815" stroke-miterlimit="10" stroke-width="0.25"/>
        <path id="Path_9776" data-name="Path 9776" d="M548.21,264.692c2.194-1.5,12.7,18.938,19.211,38.221s12.506,27.891,14.233,38.521,6.776,15.841,10.231,28.45,4.252,24.7,5.714,35.6-.665,31.757,0,40.261-4.271,30.16-8.708,45.519-17.919,37.716-28.329,31.573-7.171-18.773,1.961-31.744S580.7,459.86,584.965,441.6s.853-38.569,2.219-51.709-9.444-45.4-13.426-56.66-10.3-33.62-15.927-45.567S546.61,265.784,548.21,264.692Z" transform="translate(-513.193 -230.83)" fill="#a5b63d" stroke="#231815" stroke-miterlimit="10" stroke-width="0.25"/>
        <path id="Path_9777" data-name="Path 9777" d="M538.183,271.37s8.655,17.048,25.318,18.678" transform="translate(-516.755 -228.362)" fill="none" stroke="#000" stroke-linejoin="round" stroke-width="0.25"/>
        <path id="Path_9778" data-name="Path 9778" d="M562.588,260.246s6.024,22.71-3.388,33.2" transform="translate(-509.076 -232.426)" fill="none" stroke="#000" stroke-linejoin="round" stroke-width="0.25"/>
        <path id="Path_9779" data-name="Path 9779" d="M531.558,288.869s15.863,23.95,44.964,25.8" transform="translate(-519.176 -221.968)" fill="none" stroke="#000" stroke-linejoin="round" stroke-width="0.25"/>
        <path id="Path_9780" data-name="Path 9780" d="M574.551,266.87s6.333,36.357-6.988,54.017" transform="translate(-506.02 -230.006)" fill="none" stroke="#000" stroke-linejoin="round" stroke-width="0.25"/>
        <path id="Path_9781" data-name="Path 9781" d="M537.933,317.617s21.281,25.007,49.38,28.375" transform="translate(-516.846 -211.464)" fill="none" stroke="#000" stroke-linejoin="round" stroke-width="0.25"/>
        <path id="Path_9782" data-name="Path 9782" d="M549.432,342.809s16.77,19.029,36.886,24.144" transform="translate(-512.645 -202.26)" fill="none" stroke="#000" stroke-linejoin="round" stroke-width="0.25"/>
        <path id="Path_9783" data-name="Path 9783" d="M611.033,330.741c-3.243,29.354-27.48,42.134-27.48,42.134" transform="translate(-500.178 -206.669)" fill="none" stroke="#000" stroke-linejoin="round" stroke-width="0.25"/>
        <ellipse id="Ellipse_1617" data-name="Ellipse 1617" cx="3.443" cy="2.203" rx="3.443" ry="2.203" transform="translate(12.575 23.056) rotate(-60)" fill="#dffffa" stroke="#231815" stroke-miterlimit="10" stroke-width="0.25"/>
      </g>
      <path id="Path_9784" data-name="Path 9784" d="M544.949,455.829s.8,6.027,10.576,6.936" transform="translate(-496.675 -160.965)" fill="none" stroke="#000" stroke-linejoin="round" stroke-width="0.25"/>
      <path id="Path_9785" data-name="Path 9785" d="M534.7,471.536s5.118,1.365,13.988-3.3" transform="translate(-500.418 -156.431)" fill="none" stroke="#000" stroke-linejoin="round" stroke-width="0.25"/>
      <path id="Path_9786" data-name="Path 9786" d="M531.579,484.4c-5.117,4.321-1.195,14.215-7.619,20.956" transform="translate(-504.343 -150.527)" fill="none" stroke="#000" stroke-linejoin="round" stroke-width="0.25"/>
      <path id="Path_9787" data-name="Path 9787" d="M526.476,485.9s-11.259.8-13.76,7.392" transform="translate(-508.452 -149.979)" fill="none" stroke="#000" stroke-linejoin="round" stroke-width="0.25"/>
    </g>
    <g id="Group_2880" data-name="Group 2880" transform="translate(533.469 228.391)">
      <path id="Path_9788" data-name="Path 9788" d="M572.629,453.472a43.76,43.76,0,0,1-14.668,18.345c-11.021,8.135-18.753,14.859-20.957,32.149s-10.849,31.7-7.628,33.394,8.984-16.782,12.713-26.1,5.255-13.053,16.613-22.884,22.885-19.664,21.868-35.6Z" transform="translate(-526.501 -121.195)" fill="#ecb36f" stroke="#000" stroke-linejoin="round" stroke-width="0.25"/>
      <path id="Path_9789" data-name="Path 9789" d="M606.061,424.97s-.726-11.793-17.6-18.005-17.134-20.277-11-28.972,12.531-21.735,4.6-38.614-.385-32.475,7.862-42.449,11.573-10.74,12.851-27.107,9.4-39.3,27.874-51.91c19.2-13.1,46.8-10.229,60.094,9.717s-.767,32.22,7.672,51.655,5.113,28.385,0,42.194,14.67,57.774-27,76.506-34.787,22.937-34.787,22.937-16.438-.382-23.7,6.5Z" transform="translate(-510.012 -209.926)" fill="#62a542" stroke="#000" stroke-linejoin="round" stroke-width="0.25"/>
      <path id="Path_9790" data-name="Path 9790" d="M660.213,228.2c1.86.931-.19,14.941-1.135,26.1A279.574,279.574,0,0,1,653.4,293.64c-3.594,16.454-6.438,25.911-9.177,42.742s-11.248,39.906-15.031,54.089-14.373,40.662-18.722,49.361-17.589,38.581-23.263,50.307-7.754,25.531-8.7,32.718-7,17.4-13.239,15.13-8.7-10.78-4.728-23.262,14.373-20.048,21.181-36.879,18.535-34.988,24.208-49.361,10.591-23.641,15.886-36.5S632.6,360.4,634.87,351.7s7.935-28.558,9.357-40.094,5.583-23.64,8.042-36.879,4.35-22.884,4.917-31.394S658.32,227.259,660.213,228.2Z" transform="translate(-515.557 -203.277)" fill="#ddd658" stroke="#000" stroke-linejoin="round" stroke-width="0.25"/>
      <path id="Path_9791" data-name="Path 9791" d="M623.057,230.588s-2.153,20.315,8.857,26.017" transform="translate(-492.075 -202.376)" fill="none" stroke="#231815" stroke-miterlimit="10" stroke-width="0.25"/>
      <path id="Path_9792" data-name="Path 9792" d="M646.776,231.566c0,7.193-5.844,22.205-14.784,24.682" transform="translate(-488.748 -202.019)" fill="none" stroke="#231815" stroke-miterlimit="10" stroke-width="0.25"/>
      <ellipse id="Ellipse_1618" data-name="Ellipse 1618" cx="3.327" cy="1.503" rx="3.327" ry="1.503" transform="translate(127.179 11.365) rotate(-30)" fill="#dffffa" stroke="#231815" stroke-miterlimit="10" stroke-width="0.25"/>
      <ellipse id="Ellipse_1619" data-name="Ellipse 1619" cx="5.989" cy="3.993" rx="5.989" ry="3.993" transform="translate(110.603 26.881) rotate(-32.317)" fill="#dffffa" stroke="#231815" stroke-miterlimit="10" stroke-width="0.25"/>
      <path id="Path_9793" data-name="Path 9793" d="M607.783,240.116s-3.289,51.559,18.958,64.208" transform="translate(-497.656 -198.895)" fill="none" stroke="#231815" stroke-miterlimit="10" stroke-width="0.25"/>
      <path id="Path_9794" data-name="Path 9794" d="M594.326,272.222s3.928,36.876,30.173,53.34" transform="translate(-502.51 -187.164)" fill="none" stroke="#020202" stroke-miterlimit="10" stroke-width="0.25"/>
      <path id="Path_9795" data-name="Path 9795" d="M587.214,306.432S592.85,346.2,614.175,356.1" transform="translate(-505.108 -174.665)" fill="none" stroke="#020202" stroke-miterlimit="10" stroke-width="0.25"/>
      <path id="Path_9796" data-name="Path 9796" d="M664.247,248.259s-8.905,42.058-39.017,54.661" transform="translate(-491.218 -195.92)" fill="none" stroke="#020202" stroke-miterlimit="10" stroke-width="0.25"/>
      <path id="Path_9797" data-name="Path 9797" d="M673,275.822s-13.87,42.616-52.611,49.685" transform="translate(-492.988 -185.849)" fill="none" stroke="#020202" stroke-miterlimit="10" stroke-width="0.25"/>
      <path id="Path_9798" data-name="Path 9798" d="M552.347,471.08s4.287,2.766,11.065.83" transform="translate(-517.848 -114.507)" fill="none" stroke="#020202" stroke-miterlimit="10" stroke-width="0.25"/>
      <path id="Path_9799" data-name="Path 9799" d="M547.741,475.132s-6.223,3.733-12.309,3.18" transform="translate(-524.028 -113.026)" fill="none" stroke="#020202" stroke-miterlimit="10" stroke-width="0.25"/>
      <path id="Path_9800" data-name="Path 9800" d="M543.021,483.032c-1.106,4.287,2.074,12.724-1.106,17.149" transform="translate(-521.659 -110.14)" fill="none" stroke="#020202" stroke-miterlimit="10" stroke-width="0.25"/>
      <path id="Path_9801" data-name="Path 9801" d="M539.867,493.06s-13.83,9.128-12.724,18.255" transform="translate(-527.08 -106.476)" fill="none" stroke="#020202" stroke-miterlimit="10" stroke-width="0.25"/>
    </g>
    <path id="Path_9802" data-name="Path 9802" d="M522.627,406.756s7.484,8.214,20.6,4.048c15.137-4.807,19.01,1.585,23.236-.527" transform="translate(4.762 90.382)" fill="none" stroke="#020202" stroke-miterlimit="10" stroke-width="0.25"/>
    <path id="Path_9803" data-name="Path 9803" d="M557.987,409.182c4.615-1.774,7.757,1.6,10.722,0" transform="translate(17.682 91.074)" fill="none" stroke="#020202" stroke-miterlimit="10" stroke-width="0.25"/>
    <ellipse id="Ellipse_1620" data-name="Ellipse 1620" cx="6.064" cy="2.818" rx="6.064" ry="2.818" transform="translate(555.664 479.022)" fill="#ecb36f" stroke="#000" stroke-linejoin="round" stroke-width="0.25"/>
    <ellipse id="Ellipse_1621" data-name="Ellipse 1621" cx="4.043" cy="2.021" rx="4.043" ry="2.021" transform="translate(574.039 474.489)" fill="#ecb36f" stroke="#000" stroke-linejoin="round" stroke-width="0.25"/>
    <ellipse id="Ellipse_1622" data-name="Ellipse 1622" cx="5.179" cy="2.483" rx="5.179" ry="2.483" transform="translate(520.335 554.606)" fill="#ecb36f" stroke="#000" stroke-linejoin="round" stroke-width="0.25"/>
    <ellipse id="Ellipse_1623" data-name="Ellipse 1623" cx="4.031" cy="2.245" rx="4.031" ry="2.245" transform="translate(696.07 198.291) rotate(-30)" fill="#dffffa" stroke="#231815" stroke-miterlimit="10" stroke-width="0.25"/>
    <g id="Group_2881" data-name="Group 2881" transform="translate(538.414 320.002)">
      <path id="Path_9804" data-name="Path 9804" d="M577.79,457.691s-1.027,8.2-11.068,18.281-14.489,18.087-16.567,26.215-1.6,15.419-9.371,25.1-13.267,21.516-8.008,23.428,5.378-16.256,11.593-22.114,5.408-11.432,9.876-19.163,12.6-15.261,15.943-23.389,8.367-8.591,13.865-15.591,5.737-12.769,5.737-12.769Z" transform="translate(-530.701 -211.01)" fill="#ecb36f" stroke="#000" stroke-linejoin="round" stroke-width="0.25"/>
      <path id="Path_9805" data-name="Path 9805" d="M624.958,409.037s-1.055-9.112-13.371-14.735S601,372.65,610.6,365.351s15.7-14.7,14.353-26.9,10.642-29.8,27.949-31.4,17.918-16.04,35.46-25.452,36.2-2.542,42.926,4.954,9.732,20.5,6.532,32.1-6.4,13-5.2,28.4-4.4,22.4-14.6,31.606-2.283,12.617-12.2,20.6c-12.871,10.363-12.966,22.123-31.036,23.1s-25.3-11.955-43.509-6.951Z" transform="translate(-504.331 -277.022)" fill="#518937" stroke="#000" stroke-linejoin="round" stroke-width="0.25"/>
      <path id="Path_9806" data-name="Path 9806" d="M726.072,296.587c3.281,1.491-6.872,16.731-15.864,26.925a275,275,0,0,0-17.318,21.977c-2.911,3.93-5.291,5.014-9.9,12.079a156.659,156.659,0,0,1-14.7,19.066c-6.55,7.568-12.516,19.066-17.464,24.6S633.1,425.041,628.334,430.34s-12.728,19.066-16.513,25.033-24.305,44.657-27.216,54.493-9.751,12.019-15.283,9.982-7.422-10.044-.728-19.212,14.118-17.174,18.631-25.033,12.807-19.358,18.629-26.925,17.464-24.386,24.16-32.714,23.562-36.454,32.157-45.169,27.078-32,39.158-43.209S722.87,295.132,726.072,296.587Z" transform="translate(-518.417 -269.899)" fill="#ddd658" stroke="#000" stroke-linejoin="round" stroke-width="0.25"/>
      <path id="Path_9807" data-name="Path 9807" d="M676.016,290.6s-4.97,17.258-1.1,22.31" transform="translate(-478.548 -272.061)" fill="none" stroke="#231815" stroke-miterlimit="10" stroke-width="0.25"/>
      <path id="Path_9808" data-name="Path 9808" d="M665.578,290.6s-10.807,24.992-4.749,45.025" transform="translate(-483.83 -272.061)" fill="none" stroke="#231815" stroke-miterlimit="10" stroke-width="0.25"/>
      <path id="Path_9809" data-name="Path 9809" d="M677.113,312.23s11.824-1.034,20.848-12.678" transform="translate(-477.206 -268.79)" fill="none" stroke="#231815" stroke-miterlimit="10" stroke-width="0.25"/>
      <path id="Path_9810" data-name="Path 9810" d="M704.595,313.327s-21.456,21.166-41.655,17.77" transform="translate(-482.385 -263.757)" fill="none" stroke="#231815" stroke-miterlimit="10" stroke-width="0.25"/>
      <path id="Path_9811" data-name="Path 9811" d="M700.527,333.343S670.487,353,649.776,347.1" transform="translate(-487.195 -256.443)" fill="none" stroke="#231815" stroke-miterlimit="10" stroke-width="0.25"/>
      <path id="Path_9812" data-name="Path 9812" d="M645.6,302.963s-13.77,28.245,1.775,51.091" transform="translate(-490.776 -267.543)" fill="none" stroke="#231815" stroke-miterlimit="10" stroke-width="0.25"/>
      <path id="Path_9813" data-name="Path 9813" d="M697.364,351.784s-24.514,21.9-62.833,15.841" transform="translate(-492.765 -249.705)" fill="none" stroke="#231815" stroke-miterlimit="10" stroke-width="0.25"/>
      <path id="Path_9814" data-name="Path 9814" d="M628.992,314.9s-10.191,40.33,1.526,61.281" transform="translate(-496.29 -263.181)" fill="none" stroke="#231815" stroke-miterlimit="10" stroke-width="0.25"/>
      <ellipse id="Ellipse_1624" data-name="Ellipse 1624" cx="2.525" cy="1.929" rx="2.525" ry="1.929" transform="translate(211.97 11.531)" fill="#dffffa" stroke="#231815" stroke-miterlimit="10" stroke-width="0.25"/>
      <path id="Path_9815" data-name="Path 9815" d="M553.4,483.789s-5.917,12.934,0,19.75" transform="translate(-523.369 -201.474)" fill="none" stroke="#231815" stroke-miterlimit="10" stroke-width="0.25"/>
    </g>
    <g id="Group_2882" data-name="Group 2882" transform="translate(688.175 428.597)">
      <path id="Path_9816" data-name="Path 9816" d="M766.663,457.473s.233-2.972,3.951-4.962,11.088-8.771,6.058-16.023-7.953-5.965-12.748-18.012-16.726-23.861-27.369-17.194-8.071,21.053-.819,31.931,1.019,27.273,27.645,25.976Z" transform="translate(-607.857 -340.921)" fill="#62a542" stroke="#000" stroke-linejoin="round" stroke-width="0.25"/>
      <path id="Path_9817" data-name="Path 9817" d="M646.073,364.736c9.25-10.455,27.761-11.345,45.935,0s18.352,19.387,32.111,24.39,21.443,8.756,25.2,19.656.627,15.546,5.049,24.3-4.155,16.976,2.635,23.945l-2.635,6.253s-2.369-1.251-10.946,5.718-19.119-1.43-31.985-1.608-28.768,1.966-40.026-12.329S663.9,432.012,654.43,417,633.173,379.314,646.073,364.736Z" transform="translate(-640.387 -356.557)" fill="#518937" stroke="#000" stroke-linejoin="round" stroke-width="0.25"/>
      <path id="Path_9818" data-name="Path 9818" d="M656.44,372.157c2.365-1.2,5.909,8.736,16.061,17.779s34.7,29.16,48.168,39.863,34.142,23.808,53.151,35.434,25.468,15.5,25.468,15.5-6.091-5.721-15.687-22.331-20.067-37.243-18.785-38.458,6.344,11.2,9.986,17.542,17.97,30.861,25.332,38.116,17.254,10.99,20.552,15.056,3.407,11.649-2.307,14.4-3.188-2.993-11.76-8.035-42.7-31.675-57.891-39.4-47.209-38.91-54.051-42.56-16.856-16.195-24.622-23.949S653.33,373.734,656.44,372.157Z" transform="translate(-634.753 -350.893)" fill="#ddd658" stroke="#000" stroke-linejoin="round" stroke-width="0.25"/>
      <path id="Path_9819" data-name="Path 9819" d="M648.114,379.2s12.74,7.7,21.374,5.871" transform="translate(-637.563 -348.284)" fill="none" stroke="#231815" stroke-miterlimit="10" stroke-width="0.25"/>
      <path id="Path_9820" data-name="Path 9820" d="M663.768,367.888s4.39,12.441,2.037,19.862" transform="translate(-631.844 -352.417)" fill="none" stroke="#231815" stroke-miterlimit="10" stroke-width="0.25"/>
      <path id="Path_9821" data-name="Path 9821" d="M652.763,393.474a65.711,65.711,0,0,0,37.129,9.335" transform="translate(-635.865 -343.069)" fill="none" stroke="#231815" stroke-miterlimit="10" stroke-width="0.25"/>
      <path id="Path_9822" data-name="Path 9822" d="M686.5,408.2s-.083-24.317-12.153-37.938" transform="translate(-627.978 -351.551)" fill="none" stroke="#231815" stroke-miterlimit="10" stroke-width="0.25"/>
      <path id="Path_9823" data-name="Path 9823" d="M662.9,412.61s23.86,11.72,47.874,2.9" transform="translate(-632.16 -336.077)" fill="none" stroke="#231815" stroke-miterlimit="10" stroke-width="0.25"/>
      <path id="Path_9824" data-name="Path 9824" d="M703,422.872s2.529-24.958-9.018-39.971" transform="translate(-620.803 -346.932)" fill="none" stroke="#231815" stroke-miterlimit="10" stroke-width="0.25"/>
      <path id="Path_9825" data-name="Path 9825" d="M708.047,392.734s14.54,20.792,11.6,42.589" transform="translate(-615.665 -343.339)" fill="none" stroke="#231815" stroke-miterlimit="10" stroke-width="0.25"/>
      <path id="Path_9826" data-name="Path 9826" d="M725.233,427.494s-19.368,8.259-44.8,4.073" transform="translate(-625.755 -330.639)" fill="none" stroke="#231815" stroke-miterlimit="10" stroke-width="0.25"/>
      <ellipse id="Ellipse_1625" data-name="Ellipse 1625" cx="2.003" cy="1.563" rx="2.003" ry="1.563" transform="matrix(0.928, -0.373, 0.373, 0.928, 13.791, 9.681)" fill="#dffffa" stroke="#231815" stroke-miterlimit="10" stroke-width="0.25"/>
      <ellipse id="Ellipse_1626" data-name="Ellipse 1626" cx="4.563" cy="2.214" rx="4.563" ry="2.214" transform="matrix(0.928, -0.373, 0.373, 0.928, 22.357, 9.681)" fill="#dffffa" stroke="#231815" stroke-miterlimit="10" stroke-width="0.25"/>
      <path id="Path_9827" data-name="Path 9827" d="M732.932,411.217s3.144,7.844,9.115,8.075" transform="translate(-606.573 -336.586)" fill="none" stroke="#231815" stroke-miterlimit="10" stroke-width="0.25"/>
      <path id="Path_9828" data-name="Path 9828" d="M743.5,407.277s2.264,7.639-2.377,12.591" transform="translate(-603.579 -338.026)" fill="none" stroke="#231815" stroke-miterlimit="10" stroke-width="0.25"/>
      <path id="Path_9829" data-name="Path 9829" d="M734.3,421.024s8.557,11.109,15.04,9.562" transform="translate(-606.073 -333.003)" fill="none" stroke="#231815" stroke-miterlimit="10" stroke-width="0.25"/>
      <path id="Path_9830" data-name="Path 9830" d="M749.19,415.414s2.669,10.352-2.175,15.644" transform="translate(-601.428 -335.053)" fill="none" stroke="#231815" stroke-miterlimit="10" stroke-width="0.25"/>
      <path id="Path_9831" data-name="Path 9831" d="M741.127,433.147s7.056,9.574,14.717,8.646" transform="translate(-603.579 -328.573)" fill="none" stroke="#231815" stroke-miterlimit="10" stroke-width="0.25"/>
      <path id="Path_9832" data-name="Path 9832" d="M754.205,443.464s6.042-5.042,2.066-19.312" transform="translate(-598.801 -331.86)" fill="none" stroke="#231815" stroke-miterlimit="10" stroke-width="0.25"/>
      <path id="Path_9833" data-name="Path 9833" d="M760.893,451.654s3.782,2.635,6.866,4.726" transform="translate(-596.357 -321.811)" fill="none" stroke="#231815" stroke-miterlimit="10" stroke-width="0.25"/>
    </g>
    <g id="Group_2884" data-name="Group 2884" transform="translate(668.921 560.228)">
      <path id="Path_9834" data-name="Path 9834" d="M630.218,456.159c4.8-5.519,19.616-6.38,20.459,18.244,0,0-9.069,4.857-19.229-3.2C624.307,465.539,627.9,458.826,630.218,456.159Z" transform="translate(-625.938 -452.964)" fill="#ffb829" stroke="#000" stroke-linejoin="round" stroke-width="0.25"/>
      <path id="Path_9835" data-name="Path 9835" d="M651.023,469.183s1.591,11.591-9.8,15.414-17.865-3.669-13.648-11.141S647.4,466.212,651.023,469.183Z" transform="translate(-626.285 -447.743)" fill="#ffb829" stroke="#000" stroke-linejoin="round" stroke-width="0.25"/>
      <path id="Path_9836" data-name="Path 9836" d="M643.186,474.229s-1.8-8.248,1.826-15.208c4.193-8.052,18.424-6.438,16.716,5.007C659.8,476.938,643.186,474.229,643.186,474.229Z" transform="translate(-620.273 -452.584)" fill="#ffb829" stroke="#000" stroke-linejoin="round" stroke-width="0.25"/>
      <path id="Path_9837" data-name="Path 9837" d="M644.468,468.8s-2.475,10.453,8.422,15.169,14.149-6.831,7.643-12.2C654.166,466.515,644.468,468.8,644.468,468.8Z" transform="translate(-619.729 -447.358)" fill="#ffb829" stroke="#000" stroke-linejoin="round" stroke-width="0.25"/>
      <g id="Group_2883" data-name="Group 2883" transform="translate(8.818 8.377)">
        <ellipse id="Ellipse_1627" data-name="Ellipse 1627" cx="5.718" cy="2.054" rx="5.718" ry="2.054" transform="translate(11.801 13.661) rotate(-33.011)" fill="#518937" stroke="#000" stroke-linejoin="round" stroke-width="0.25"/>
        <ellipse id="Ellipse_1628" data-name="Ellipse 1628" cx="7.752" cy="2.331" rx="7.752" ry="2.331" transform="matrix(0.306, -0.952, 0.952, 0.306, 11.329, 15.047)" fill="#518937" stroke="#000" stroke-linejoin="round" stroke-width="0.25"/>
        <ellipse id="Ellipse_1629" data-name="Ellipse 1629" cx="2.857" cy="7.206" rx="2.857" ry="7.206" transform="matrix(0.629, -0.777, 0.777, 0.629, 0, 8.536)" fill="#518937" stroke="#000" stroke-linejoin="round" stroke-width="0.25"/>
        <ellipse id="Ellipse_1630" data-name="Ellipse 1630" cx="2.504" cy="7.749" rx="2.504" ry="7.749" transform="translate(7.781 0.757) rotate(-8.692)" fill="#518937" stroke="#000" stroke-linejoin="round" stroke-width="0.25"/>
      </g>
    </g>
    <g id="Group_2885" data-name="Group 2885" transform="translate(731.295 603.958)">
      <path id="Path_9838" data-name="Path 9838" d="M672.393,522.6c-2.1-13.685,3.833-17.63,11.882-23.187s10.922-9.2,24.144-11.113,20.76-5.567,31.18-1.367S756.7,497.5,762.925,501.393l2.489,4.043a17.585,17.585,0,0,1,.932,10.421c-1.244,5.909.467,13.218-7.931,18.506s-17.107,7.464-30.326,4.354-17.262-3.733-30.636-1.4S673.618,530.581,672.393,522.6Z" transform="translate(-671.968 -484.991)" fill="#62a542" stroke="#000" stroke-linejoin="round" stroke-width="0.25"/>
      <path id="Path_9839" data-name="Path 9839" d="M688.07,514.948c-.2-2.732,12.966-1.024,24.682-3.185s24.342-4.663,30.6-8.644,15.128-8.3,16.72-5.687-2.283,5.232-10.07,8.986-23.327,8.723-31.1,9.668C710.039,517.161,688.3,518.019,688.07,514.948Z" transform="translate(-666.085 -480.737)" fill="#ddd658" stroke="#000" stroke-linejoin="round" stroke-width="0.25"/>
      <path id="Path_9840" data-name="Path 9840" d="M685.986,503.216s12.606,1.383,17.622,7.231" transform="translate(-666.846 -478.332)" fill="#63a04b" stroke="#000" stroke-linejoin="round" stroke-width="0.25"/>
      <path id="Path_9841" data-name="Path 9841" d="M690.818,518.02s9.188-1.892,12.512-6.446" transform="translate(-665.08 -475.279)" fill="#63a04b" stroke="#000" stroke-linejoin="round" stroke-width="0.25"/>
      <path id="Path_9842" data-name="Path 9842" d="M689.818,496.634s20.37-.314,33.786,12.867" transform="translate(-665.446 -480.738)" fill="#63a04b" stroke="#000" stroke-linejoin="round" stroke-width="0.25"/>
      <path id="Path_9843" data-name="Path 9843" d="M701.4,523.509s16.939-2.971,20.982-13.884" transform="translate(-661.214 -475.991)" fill="#63a04b" stroke="#000" stroke-linejoin="round" stroke-width="0.25"/>
      <path id="Path_9844" data-name="Path 9844" d="M704.73,491.887s21.664-.479,34.207,11.931" transform="translate(-659.997 -482.473)" fill="#63a04b" stroke="#000" stroke-linejoin="round" stroke-width="0.25"/>
      <path id="Path_9845" data-name="Path 9845" d="M718.642,528.47s19.989-5.156,18.241-24.018" transform="translate(-654.914 -477.881)" fill="#63a04b" stroke="#000" stroke-linejoin="round" stroke-width="0.25"/>
    </g>
    <ellipse id="Ellipse_1631" data-name="Ellipse 1631" cx="5.37" cy="2.725" rx="5.37" ry="2.725" transform="translate(854.956 621.219)" fill="#c19165" stroke="#000" stroke-linejoin="round" stroke-width="0.25"/>
    <ellipse id="Ellipse_1632" data-name="Ellipse 1632" cx="5.325" cy="2.856" rx="5.325" ry="2.856" transform="translate(795.661 555.585)" fill="#ecb36f" stroke="#000" stroke-linejoin="round" stroke-width="0.25"/>
    <ellipse id="Ellipse_1633" data-name="Ellipse 1633" cx="3.389" cy="2.42" rx="3.389" ry="2.42" transform="translate(811.635 571.172)" fill="#c19165" stroke="#000" stroke-linejoin="round" stroke-width="0.25"/>
    <path id="Path_9846" data-name="Path 9846" d="M691.242,465.939s6.776-4.743,13.651,0,12.839.494,19.653,1.259c5.228.586,13.566,5.422,20.145,4.357" transform="translate(66.37 111.235)" fill="none" stroke="#231815" stroke-miterlimit="10" stroke-width="0.25"/>
    <path id="Path_9847" data-name="Path 9847" d="M735.772,471.261s4.454.677,6.39,0" transform="translate(82.64 113.95)" fill="none" stroke="#231815" stroke-miterlimit="10" stroke-width="0.25"/>
    <path id="Path_9848" data-name="Path 9848" d="M677.413,456.508s4.022-.922,10.979,1.341,10.979,0,10.979,0" transform="translate(61.317 108.492)" fill="none" stroke="#231815" stroke-miterlimit="10" stroke-width="0.25"/>
    <ellipse id="Ellipse_1634" data-name="Ellipse 1634" cx="9.14" cy="4.428" rx="9.14" ry="4.428" transform="translate(622.265 598.113)" fill="#c19165" stroke="#000" stroke-linejoin="round" stroke-width="0.25"/>
    <ellipse id="Ellipse_1635" data-name="Ellipse 1635" cx="7.684" cy="4.691" rx="7.684" ry="4.691" transform="translate(711.396 652.263)" fill="#ecb36f" stroke="#000" stroke-linejoin="round" stroke-width="0.25"/>
    <ellipse id="Ellipse_1636" data-name="Ellipse 1636" cx="4.61" cy="2.831" rx="4.61" ry="2.831" transform="translate(697.808 662.293)" fill="#ecb36f" stroke="#000" stroke-linejoin="round" stroke-width="0.25"/>
    <path id="Path_9849" data-name="Path 9849" d="M615.767,533.485s6.977-3.345,18.159,1.243,18.733,3.441,25.089,1.338" transform="translate(38.793 136.255)" fill="none" stroke="#231815" stroke-miterlimit="10" stroke-width="0.25"/>
    <path id="Path_9850" data-name="Path 9850" d="M587.627,498.007s8.99-1.678,16.821,1.529c17.968,7.359,26.857-4.014,42.245,3.058" transform="translate(28.512 123.562)" fill="none" stroke="#231815" stroke-miterlimit="10" stroke-width="0.25"/>
    <g id="Group_2887" data-name="Group 2887" transform="translate(783.805 434.834)">
      <path id="Path_9851" data-name="Path 9851" d="M718.2,364.24c3.087-3.371,11.181-5.856,16.214,2.766s2.624,18.71,2.624,18.71-14.945.582-19.67-7.891C713.736,371.318,715.664,367.006,718.2,364.24Z" transform="translate(-708.623 -361.125)" fill="#ffb829" stroke="#000" stroke-linejoin="round" stroke-width="0.25"/>
      <path id="Path_9852" data-name="Path 9852" d="M711.932,395.858c-3.172-5.816-1.52-13.838,6.73-17.123s20.625,0,20.625,0,1.3,11.587-5.971,18.318S715.188,401.829,711.932,395.858Z" transform="translate(-710.426 -355.224)" fill="#ffb829" stroke="#000" stroke-linejoin="round" stroke-width="0.25"/>
      <path id="Path_9853" data-name="Path 9853" d="M732.158,377.845s11.173-2.123,18.643,6.981c7.527,9.175-1.152,23.277-12.571,15.677S732.158,377.845,732.158,377.845Z" transform="translate(-702.942 -355.094)" fill="#ffb829" stroke="#000" stroke-linejoin="round" stroke-width="0.25"/>
      <path id="Path_9854" data-name="Path 9854" d="M729.312,384.429s.922-13.842,8.2-18.33c8.053-4.962,21.069,2.2,14.073,13.4C747.517,386.014,729.312,384.429,729.312,384.429Z" transform="translate(-703.525 -359.892)" fill="#ffb829" stroke="#000" stroke-linejoin="round" stroke-width="0.25"/>
      <g id="Group_2886" data-name="Group 2886" transform="translate(22.171 11.905)">
        <ellipse id="Ellipse_1637" data-name="Ellipse 1637" cx="6.615" cy="2.346" rx="6.615" ry="2.346" transform="translate(3.377 12.472) rotate(-26.61)" fill="#ddd658" stroke="#000" stroke-linejoin="round" stroke-width="0.25"/>
        <ellipse id="Ellipse_1638" data-name="Ellipse 1638" cx="6.615" cy="2.005" rx="6.615" ry="2.005" transform="translate(3.27 13.567) rotate(-60)" fill="#ddd658" stroke="#000" stroke-linejoin="round" stroke-width="0.25"/>
        <ellipse id="Ellipse_1639" data-name="Ellipse 1639" cx="6.615" cy="2.005" rx="6.615" ry="2.005" transform="matrix(0.15, -0.989, 0.989, 0.15, 3.269, 13.937)" fill="#ddd658" stroke="#000" stroke-linejoin="round" stroke-width="0.25"/>
        <ellipse id="Ellipse_1640" data-name="Ellipse 1640" cx="2.226" cy="7.406" rx="2.226" ry="7.406" transform="matrix(0.981, -0.193, 0.193, 0.981, 0, 0.86)" fill="#ddd658" stroke="#000" stroke-linejoin="round" stroke-width="0.25"/>
      </g>
    </g>
    <g id="Group_2893" data-name="Group 2893" transform="translate(807.704 406.818)">
      <path id="Path_9855" data-name="Path 9855" d="M733.444,342.78c5.083-4.5,20.229-3.545,18.2,17.792,0,0-4.857,2.223-6.319,3.225C738.289,368.621,721.03,353.767,733.444,342.78Z" transform="translate(-727.512 -340.606)" fill="#ffb829" stroke="#000" stroke-linejoin="round" stroke-width="0.25"/>
      <path id="Path_9856" data-name="Path 9856" d="M746,362.013s-3.12-7.963,1.845-15.3,17.574-8.521,18.009,3-15.84,14.249-15.84,14.249Z" transform="translate(-721.681 -340.414)" fill="#ffb829" stroke="#000" stroke-linejoin="round" stroke-width="0.25"/>
      <path id="Path_9857" data-name="Path 9857" d="M749.457,360.718s-10.7-7.389-18.17,0c-7.082,7.007-2.232,17.441,7.779,17.544S749.457,360.718,749.457,360.718Z" transform="translate(-727.93 -334.457)" fill="#ffb829" stroke="#000" stroke-linejoin="round" stroke-width="0.25"/>
      <path id="Path_9858" data-name="Path 9858" d="M749.887,358.275s14.715-10.291,20.74-2.219-5.954,17.434-20.045,15.09S749.887,358.275,749.887,358.275Z" transform="translate(-722.008 -336.09)" fill="#ffb829" stroke="#000" stroke-linejoin="round" stroke-width="0.25"/>
      <g id="Group_2888" data-name="Group 2888" transform="translate(25.678 12.042)">
        <ellipse id="Ellipse_1641" data-name="Ellipse 1641" cx="4.32" cy="9.269" rx="4.32" ry="9.269" fill="#62a542" stroke="#000" stroke-linejoin="round" stroke-width="0.25"/>
        <path id="Path_9859" data-name="Path 9859" d="M749.335,352.834a12.007,12.007,0,0,0,.311,4.615" transform="translate(-745.822 -348.18)" fill="none" stroke="#000" stroke-linejoin="round" stroke-width="0.25"/>
        <path id="Path_9860" data-name="Path 9860" d="M751.031,353.008a13.7,13.7,0,0,1,0,3.033" transform="translate(-745.167 -348.116)" fill="none" stroke="#000" stroke-linejoin="round" stroke-width="0.25"/>
      </g>
      <g id="Group_2889" data-name="Group 2889" transform="translate(14.954 12.13)">
        <ellipse id="Ellipse_1642" data-name="Ellipse 1642" cx="4.999" cy="12.617" rx="4.999" ry="12.617" transform="translate(0 1.363) rotate(-7.834)" fill="#ddd658" stroke="#000" stroke-linejoin="round" stroke-width="0.25"/>
        <path id="Path_9861" data-name="Path 9861" d="M743.082,354.237a41.4,41.4,0,0,1,1.678,10.709" transform="translate(-737.347 -347.756)" fill="none" stroke="#000" stroke-linejoin="round" stroke-width="0.25"/>
        <path id="Path_9862" data-name="Path 9862" d="M741.647,356.854a15.485,15.485,0,0,1,1.328,5.83" transform="translate(-737.872 -346.799)" fill="none" stroke="#000" stroke-linejoin="round" stroke-width="0.25"/>
      </g>
      <g id="Group_2890" data-name="Group 2890" transform="translate(42.144 19.93)">
        <ellipse id="Ellipse_1643" data-name="Ellipse 1643" cx="10.859" cy="5.298" rx="10.859" ry="5.298" transform="translate(0 10.859) rotate(-30)" fill="#ffb829" stroke="#000" stroke-linejoin="round" stroke-width="0.25"/>
        <path id="Path_9863" data-name="Path 9863" d="M765.908,363.534a11.813,11.813,0,0,0,6.569-3.718" transform="translate(-756.198 -353.517)" fill="#ffb829" stroke="#000" stroke-linejoin="round" stroke-width="0.25"/>
      </g>
      <g id="Group_2891" data-name="Group 2891" transform="translate(33.783 20.568)">
        <ellipse id="Ellipse_1644" data-name="Ellipse 1644" cx="12.079" cy="5.095" rx="12.079" ry="5.095" transform="matrix(0.246, -0.969, 0.969, 0.246, 0, 23.413)" fill="#62a542" stroke="#000" stroke-linejoin="round" stroke-width="0.25"/>
        <path id="Path_9864" data-name="Path 9864" d="M759.3,360.222a10.863,10.863,0,0,0-1.408,5.837" transform="translate(-750.773 -354.007)" fill="none" stroke="#000" stroke-linejoin="round" stroke-width="0.25"/>
        <path id="Path_9865" data-name="Path 9865" d="M761.033,361.124s-.357,2.717-1.189,3.753" transform="translate(-750.052 -353.677)" fill="none" stroke="#000" stroke-linejoin="round" stroke-width="0.25"/>
      </g>
      <g id="Group_2892" data-name="Group 2892" transform="translate(20.811 19.664)">
        <ellipse id="Ellipse_1645" data-name="Ellipse 1645" cx="15.366" cy="6.513" rx="15.366" ry="6.513" transform="matrix(0.246, -0.969, 0.969, 0.246, 0, 29.786)" fill="#ddd658" stroke="#000" stroke-linejoin="round" stroke-width="0.25"/>
        <path id="Path_9866" data-name="Path 9866" d="M751.566,361.875s.28,7.765-2.029,11.613" transform="translate(-740.846 -352.498)" fill="none" stroke="#000" stroke-linejoin="round" stroke-width="0.25"/>
        <path id="Path_9867" data-name="Path 9867" d="M753.619,363.873s-.07,4.9-1.469,6.576" transform="translate(-739.891 -351.768)" fill="none" stroke="#000" stroke-linejoin="round" stroke-width="0.25"/>
      </g>
    </g>
    <g id="Group_2895" data-name="Group 2895" transform="translate(830.958 440.814)">
      <path id="Path_9868" data-name="Path 9868" d="M745.057,378.578c.967-5.209,11.5-6.255,21.415,2.343s1.133,7.44-.586,8.149C760.7,391.209,743.527,386.8,745.057,378.578Z" transform="translate(-744.961 -362.196)" fill="#ffb829" stroke="#000" stroke-linejoin="round" stroke-width="0.25"/>
      <path id="Path_9869" data-name="Path 9869" d="M775.754,382.55s-12.951-3.239-21.871,2.323-3.874,15.7,7.116,15.471a22.678,22.678,0,0,0,20.227-13.1Z" transform="translate(-743.373 -359.62)" fill="#ffb829" stroke="#000" stroke-linejoin="round" stroke-width="0.25"/>
      <path id="Path_9870" data-name="Path 9870" d="M773.488,384.233s9.567-4.27,15.535,6.107-.113,19.787-10.247,14.857S768.988,387.454,773.488,384.233Z" transform="translate(-735.635 -358.98)" fill="#ffb829" stroke="#000" stroke-linejoin="round" stroke-width="0.25"/>
      <path id="Path_9871" data-name="Path 9871" d="M770.285,388.436s-11.185.763-13.849-7.915,3.514-17.891,13.849-14.167c9.709,3.5,7.116,22.1,7.116,22.1Z" transform="translate(-740.994 -365.505)" fill="#ffb829" stroke="#000" stroke-linejoin="round" stroke-width="0.25"/>
      <path id="Path_9872" data-name="Path 9872" d="M770.978,382.224s1.029-7.7,7.882-11.547a8.474,8.474,0,0,1,12.379,9.407c-1.775,6.977-9.074,9.944-15.306,9.189S770.978,382.224,770.978,382.224Z" transform="translate(-735.494 -364.021)" fill="#ffb829" stroke="#000" stroke-linejoin="round" stroke-width="0.25"/>
      <g id="Group_2894" data-name="Group 2894" transform="translate(27.922 12.476)">
        <ellipse id="Ellipse_1646" data-name="Ellipse 1646" cx="7.639" cy="2.063" rx="7.639" ry="2.063" transform="translate(4.14 14.113) rotate(-61.995)" fill="#62a542" stroke="#000" stroke-linejoin="round" stroke-width="0.25"/>
        <ellipse id="Ellipse_1647" data-name="Ellipse 1647" cx="6.274" cy="2.522" rx="6.274" ry="2.522" transform="translate(5.041 13.57) rotate(-40.229)" fill="#62a542" stroke="#000" stroke-linejoin="round" stroke-width="0.25"/>
        <ellipse id="Ellipse_1648" data-name="Ellipse 1648" cx="7.639" cy="2.063" rx="7.639" ry="2.063" transform="translate(4.389 15.268) rotate(-87.881)" fill="#62a542" stroke="#000" stroke-linejoin="round" stroke-width="0.25"/>
        <ellipse id="Ellipse_1649" data-name="Ellipse 1649" cx="2.063" cy="7.639" rx="2.063" ry="7.639" transform="translate(0 1.843) rotate(-17.727)" fill="#62a542" stroke="#000" stroke-linejoin="round" stroke-width="0.25"/>
      </g>
    </g>
    <g id="Group_2896" data-name="Group 2896" transform="translate(854.411 408.6)">
      <path id="Path_9873" data-name="Path 9873" d="M779.5,358.7s2.323,10.18,13.183,11.008,14.063-12.792.974-15.385A15.58,15.58,0,0,0,779.5,358.7Z" transform="translate(-755.795 -337.491)" fill="#ffb829" stroke="#000" stroke-linejoin="round" stroke-width="0.25"/>
      <path id="Path_9874" data-name="Path 9874" d="M781.334,355.688s-9.738,4.794-7.565,16.028,16.8,10.037,19.3,1.948S788.3,356.885,781.334,355.688Z" transform="translate(-758.004 -336.878)" fill="#ffb829" stroke="#000" stroke-linejoin="round" stroke-width="0.25"/>
      <path id="Path_9875" data-name="Path 9875" d="M780.917,363.118s-8.389-3.3-8.164-12.134,12.283-12.209,17.421-5.617C795.457,352.143,791.856,359.879,780.917,363.118Z" transform="translate(-758.261 -341.911)" fill="#ffb829" stroke="#000" stroke-linejoin="round" stroke-width="0.25"/>
      <path id="Path_9876" data-name="Path 9876" d="M762.623,352.652c1.834-5.018,14.756-8.9,24.268,8.655a15.6,15.6,0,0,1-11.161,3.854C768.989,364.712,759.936,360.007,762.623,352.652Z" transform="translate(-762.138 -339.535)" fill="#ffb829" stroke="#000" stroke-linejoin="round" stroke-width="0.25"/>
      <ellipse id="Ellipse_1650" data-name="Ellipse 1650" cx="6.124" cy="2.013" rx="6.124" ry="2.013" transform="translate(21.509 19.176) rotate(-11.827)" fill="#ddd658" stroke="#000" stroke-linejoin="round" stroke-width="0.25"/>
      <ellipse id="Ellipse_1651" data-name="Ellipse 1651" cx="6.124" cy="2.013" rx="6.124" ry="2.013" transform="translate(21.648 19.868) rotate(-41.961)" fill="#ddd658" stroke="#000" stroke-linejoin="round" stroke-width="0.25"/>
      <ellipse id="Ellipse_1652" data-name="Ellipse 1652" cx="6.124" cy="2.013" rx="6.124" ry="2.013" transform="translate(19.948 20.313) rotate(-60)" fill="#ddd658" stroke="#000" stroke-linejoin="round" stroke-width="0.25"/>
      <ellipse id="Ellipse_1653" data-name="Ellipse 1653" cx="2.013" cy="6.124" rx="2.013" ry="6.124" transform="matrix(0.246, -0.969, 0.969, 0.246, 21.116, 22.978)" fill="#ddd658" stroke="#000" stroke-linejoin="round" stroke-width="0.25"/>
    </g>
    <path id="Path_9877" data-name="Path 9877" d="M527.564,442.576a5.169,5.169,0,0,1,5.445-.3,4.766,4.766,0,0,0,5.386-.64" transform="translate(6.566 103.127)" fill="none" stroke="#231815" stroke-miterlimit="10" stroke-width="0.25"/>
    <path id="Path_9878" data-name="Path 9878" d="M538.792,442.1a11.754,11.754,0,0,1,5.209.608" transform="translate(10.669 103.272)" fill="none" stroke="#231815" stroke-miterlimit="10" stroke-width="0.25"/>
    <path id="Path_9879" data-name="Path 9879" d="M607.379,441.08s6.394-7.135,21.129-2.5,17.738-5.838,36.715,2.966" transform="translate(35.728 101.437)" fill="none" stroke="#231815" stroke-miterlimit="10" stroke-width="0.25"/>
    <path id="Path_9880" data-name="Path 9880" d="M655.431,441.519s4.093-.834,10.2,1.76" transform="translate(53.285 103.036)" fill="none" stroke="#231815" stroke-miterlimit="10" stroke-width="0.25"/>
    <ellipse id="Ellipse_1654" data-name="Ellipse 1654" cx="4.606" cy="2.498" rx="4.606" ry="2.498" transform="translate(676.698 514.825)" fill="#c19165" stroke="#000" stroke-linejoin="round" stroke-width="0.25"/>
    <path id="Path_9881" data-name="Path 9881" d="M627.864,400.271s5.377-3.282,12.022.628c9.291,5.467,12.492-1.981,20.041,2.112" transform="translate(43.213 87.541)" fill="none" stroke="#231815" stroke-miterlimit="10" stroke-width="0.25"/>
    <path id="Path_9882" data-name="Path 9882" d="M637.053,504.791a14.628,14.628,0,0,1,7.38,0" transform="translate(46.571 126.022)" fill="none" stroke="#231815" stroke-miterlimit="10" stroke-width="0.25"/>
    <ellipse id="Ellipse_1655" data-name="Ellipse 1655" cx="6.906" cy="4.241" rx="6.906" ry="4.241" transform="translate(856.145 500.478)" fill="#c19165" stroke="#000" stroke-linejoin="round" stroke-width="0.25"/>
    <ellipse id="Ellipse_1656" data-name="Ellipse 1656" cx="2.696" cy="3.172" rx="2.696" ry="3.172" transform="translate(877.175 498.961) rotate(-77.919)" fill="#c19165" stroke="#000" stroke-linejoin="round" stroke-width="0.25"/>
  </g>
</svg>
