<svg xmlns="http://www.w3.org/2000/svg" width="445.772" height="439.117" viewBox="0 0 445.772 439.117">
  <g id="Group_2777" data-name="Group 2777" transform="translate(-1655.454 -186.641)">
    <path id="Path_9153" data-name="Path 9153" d="M1788.11,460.175c8.083,7.739,14.783-1.47,21.84,1.848" transform="translate(50.396 103.958)" fill="none" stroke="#231815" stroke-miterlimit="10" stroke-width="0.25"/>
    <ellipse id="Ellipse_1419" data-name="Ellipse 1419" cx="7.148" cy="4.379" rx="7.148" ry="4.379" transform="translate(1678.706 492.285)" fill="#c19165" stroke="#000" stroke-linejoin="round" stroke-width="0.25"/>
    <ellipse id="Ellipse_1420" data-name="Ellipse 1420" cx="5.152" cy="3.623" rx="5.152" ry="3.623" transform="translate(1701.661 501.908) rotate(-34.121)" fill="#c19165" stroke="#000" stroke-linejoin="round" stroke-width="0.25"/>
    <ellipse id="Ellipse_1421" data-name="Ellipse 1421" cx="3.519" cy="5.554" rx="3.519" ry="5.554" transform="translate(2025.964 404.02) rotate(-81.689)" fill="#ecb36f" stroke="#000" stroke-linejoin="round" stroke-width="0.25"/>
    <g id="Group_2783" data-name="Group 2783" transform="translate(1655.587 186.805)">
      <g id="Group_2777-2" data-name="Group 2777" transform="translate(213.676 2.216)">
        <path id="Path_9154" data-name="Path 9154" d="M1810.393,203.581c1.148-.986,4.1-10.182,12.645-13.63s12.951-.657,19.778,3.941,12.95-3.119,29.842-.986,33.806,11.825,40.374,24.141,4.6,18.886,12.973,29.724,7.719,19.379,0,27.426-11.495,8.376-13.794,17.735-35.965-25.125-35.965-25.125-35.964-19.051-36.622-19.543-15.437-.328-15.6-2.3S1810.393,203.581,1810.393,203.581Z" transform="translate(-1810.393 -188.41)" fill="#cad226" stroke="#231815" stroke-miterlimit="10" stroke-width="0.25"/>
        <path id="Path_9155" data-name="Path 9155" d="M1833.883,198.092s16.844,17.376,16.844,40.466" transform="translate(-1801.46 -184.728)" fill="none" stroke="#231815" stroke-miterlimit="10" stroke-width="0.25"/>
        <path id="Path_9156" data-name="Path 9156" d="M1856.356,240.762c.051-26.933,25-42.161,25-42.161" transform="translate(-1792.914 -184.534)" fill="none" stroke="#231815" stroke-miterlimit="10" stroke-width="0.25"/>
        <path id="Path_9157" data-name="Path 9157" d="M1853.582,196.006a33.952,33.952,0,0,1,10.18,23.113" transform="translate(-1793.969 -185.521)" fill="none" stroke="#231815" stroke-miterlimit="10" stroke-width="0.25"/>
        <path id="Path_9158" data-name="Path 9158" d="M1901.9,222.26c-10.12,5.844-33.261-1.445-44.681,6.9" transform="translate(-1792.587 -175.537)" fill="none" stroke="#231815" stroke-miterlimit="10" stroke-width="0.25"/>
        <path id="Path_9159" data-name="Path 9159" d="M1864.025,209.3c6.277-4.5,18.735,1.5,25.233-3.8" transform="translate(-1789.998 -181.91)" fill="none" stroke="#231815" stroke-miterlimit="10" stroke-width="0.25"/>
        <ellipse id="Ellipse_1422" data-name="Ellipse 1422" cx="3.396" cy="4.386" rx="3.396" ry="4.386" transform="translate(86.859 37.843) rotate(-45)" fill="#dffffa" stroke="#231815" stroke-miterlimit="10" stroke-width="0.25"/>
        <path id="Path_9160" data-name="Path 9160" d="M1871.666,246.185c8.7-3.449,20.281,5.231,36.416-1.819" transform="translate(-1787.092 -167.131)" fill="none" stroke="#231815" stroke-miterlimit="10" stroke-width="0.25"/>
      </g>
      <g id="Group_2778" data-name="Group 2778" transform="translate(298.249 76.646)">
        <path id="Path_9161" data-name="Path 9161" d="M1897.863,250.321c1.039-.692,14.02-11.6,23.71-6.75s15.577,11.077,15.4,21.807,0,15.6,5.884,23.55,8.827,17.986,4.846,27.158-8.48,11.249-7.961,20.769-.346,12.98-6.75,16.787-52.212-18.345-51.374-18.864-9.845-43.094-9.956-44.133S1897.863,250.321,1897.863,250.321Z" transform="translate(-1871.666 -242.333)" fill="#a5b63d" stroke="#231815" stroke-miterlimit="10" stroke-width="0.25"/>
        <path id="Path_9162" data-name="Path 9162" d="M1931.96,259.029s-30.979,13.5-47.1,48.805" transform="translate(-1866.649 -235.984)" fill="none" stroke="#231815" stroke-miterlimit="10" stroke-width="0.25"/>
        <path id="Path_9163" data-name="Path 9163" d="M1912.448,244.7c-5.4,7.843-.051,19.071-7.139,32.061" transform="translate(-1858.872 -241.435)" fill="none" stroke="#231815" stroke-miterlimit="10" stroke-width="0.25"/>
        <path id="Path_9164" data-name="Path 9164" d="M1888.839,251.214c-3.528,15.409,4,27.611,3.258,44.723" transform="translate(-1865.495 -238.956)" fill="none" stroke="#231815" stroke-miterlimit="10" stroke-width="0.25"/>
        <path id="Path_9165" data-name="Path 9165" d="M1895.417,278.869c13.654-7.622,29.292-.565,37.054-4.181" transform="translate(-1862.634 -230.03)" fill="none" stroke="#231815" stroke-miterlimit="10" stroke-width="0.25"/>
        <path id="Path_9166" data-name="Path 9166" d="M1884.125,296.659c3.634-1.729,18.748-3.161,27.519,0,11.687,4.213,21.65,8.395,29,4.112" transform="translate(-1866.928 -222.386)" fill="none" stroke="#231815" stroke-miterlimit="10" stroke-width="0.25"/>
      </g>
      <g id="Group_2779" data-name="Group 2779" transform="translate(51.401 20.474)">
        <path id="Path_9167" data-name="Path 9167" d="M1692.827,286.76c.727-1.7-.81-3.81,1.022-8.307s-.667-10.493,1.5-18.986,6.828-12.659,19.153-16.489,13.658-11.327,19.487-22.318,9.327-19.654,23.317-18.987,20.319,36.474,20.319,36.474l-20.152,36.2-19.32,17.259Z" transform="translate(-1692.827 -201.638)" fill="#a5b63d" stroke="#231815" stroke-miterlimit="10" stroke-width="0.25"/>
        <path id="Path_9168" data-name="Path 9168" d="M1703.4,240.281c12.369,12.373,27.847,5.8,34.031,11.825" transform="translate(-1688.808 -186.943)" fill="none" stroke="#231815" stroke-miterlimit="10" stroke-width="0.25"/>
        <path id="Path_9169" data-name="Path 9169" d="M1716.927,226.021s5.9,24.92,23.5,40.144" transform="translate(-1683.662 -192.365)" fill="none" stroke="#231815" stroke-miterlimit="10" stroke-width="0.25"/>
        <path id="Path_9170" data-name="Path 9170" d="M1732.907,218.8c5.765,8.4-6.6,33.109,2.593,43.828" transform="translate(-1677.941 -195.111)" fill="none" stroke="#231815" stroke-miterlimit="10" stroke-width="0.25"/>
      </g>
      <g id="Group_2780" data-name="Group 2780" transform="translate(110.602)">
        <path id="Path_9171" data-name="Path 9171" d="M1753.791,241.862s-5.186-3.211-5.063-11.978,2.08-12.639-5.063-17.535-10.25-11.238-6.051-17.784,16.054-10.373,26.8-5.68,9.755,10.5,28.4,5.31,34.083-6.545,45.938,4.075,4.939,19.883,13.955,25.44,7.285,14.942,4.569,23.339-24.7,29.233-24.7,29.233l-53.347-21.454Z" transform="translate(-1735.717 -186.805)" fill="#a5b63d" stroke="#231815" stroke-miterlimit="10" stroke-width="0.25"/>
        <path id="Path_9172" data-name="Path 9172" d="M1758.474,197.706s15.436,15.436,16.054,33.836" transform="translate(-1727.063 -182.659)" fill="none" stroke="#231815" stroke-miterlimit="10" stroke-width="0.25"/>
        <path id="Path_9173" data-name="Path 9173" d="M1783.9,190.682s5.732,24.144-3.364,46.248" transform="translate(-1718.672 -185.33)" fill="none" stroke="#231815" stroke-miterlimit="10" stroke-width="0.25"/>
        <path id="Path_9174" data-name="Path 9174" d="M1786.388,234.888c4.816-10,21.981-9.509,32.107-22.6" transform="translate(-1716.448 -177.113)" fill="none" stroke="#231815" stroke-miterlimit="10" stroke-width="0.25"/>
        <path id="Path_9175" data-name="Path 9175" d="M1816.931,227.409c-.15.494-4.719,8.4-16.944,12.349" transform="translate(-1711.277 -171.363)" fill="none" stroke="#231815" stroke-miterlimit="10" stroke-width="0.25"/>
        <ellipse id="Ellipse_1423" data-name="Ellipse 1423" cx="4.94" cy="3.581" rx="4.94" ry="3.581" transform="translate(80.436 12.701)" fill="#dffffa" stroke="#231815" stroke-miterlimit="10" stroke-width="0.25"/>
      </g>
      <g id="Group_2781" data-name="Group 2781" transform="translate(33.481 235.565)">
        <path id="Path_9176" data-name="Path 9176" d="M1695.948,366.344s-18.274,5.63-15.89,27.745,15.165,22.91,32.476,23.175,33.411,23.081,44.854,30.819c9.938,6.722,21.662,4.388,28.707-10.3s2.871-65.8,2.707-65.8-57.2-14.509-57.2-14.509Z" transform="translate(-1679.844 -357.469)" fill="#a5b63d" stroke="#231815" stroke-miterlimit="10" stroke-width="0.25"/>
        <path id="Path_9177" data-name="Path 9177" d="M1690.4,389.416s22.1-11.847,47.076-9.7" transform="translate(-1675.829 -349.107)" fill="none" stroke="#231815" stroke-miterlimit="10" stroke-width="0.25"/>
        <path id="Path_9178" data-name="Path 9178" d="M1706.423,410.063s10.74-25.375,31.337-32.438" transform="translate(-1669.736 -349.804)" fill="none" stroke="#231815" stroke-miterlimit="10" stroke-width="0.25"/>
        <path id="Path_9179" data-name="Path 9179" d="M1736.453,422.225a31.944,31.944,0,0,0-6.16-15.808c-5.543-6.98-10.665-15.652-12.518-21.582" transform="translate(-1665.419 -347.063)" fill="none" stroke="#231815" stroke-miterlimit="10" stroke-width="0.25"/>
        <path id="Path_9180" data-name="Path 9180" d="M1732.646,375.778a177.06,177.06,0,0,1,5.132,19.528" transform="translate(-1659.764 -350.506)" fill="none" stroke="#231815" stroke-miterlimit="10" stroke-width="0.25"/>
      </g>
      <g id="Group_2782" data-name="Group 2782" transform="translate(0 93.189)">
        <path id="Path_9181" data-name="Path 9181" d="M1733.625,415.656s-4.956,11.044-14.643,7.861-11.186-15.16-23.538-21.149-23.958.186-32.568-10.294-9.733-29.386-2.62-45.3,10.107-25.07,5.615-41.639-3.369-28.126,6.363-36.2,16.845-9.569,24.52-6.95,13.663,0,17.969-3.743,14.6-6.551,21.336,0,11.979.188,22.46,8.236-6.363,49.675-6.363,49.675l-4.6,77.094Z" transform="translate(-1655.587 -254.319)" fill="#cad226" stroke="#231815" stroke-miterlimit="10" stroke-width="0.25"/>
        <path id="Path_9182" data-name="Path 9182" d="M1664.486,339.781c13.7,15.19,53.545,6.319,57.885,22.174" transform="translate(-1652.203 -221.819)" fill="none" stroke="#231815" stroke-miterlimit="10" stroke-width="0.25"/>
        <path id="Path_9183" data-name="Path 9183" d="M1665.879,315.819c11.772,13.728,35.556,10.287,41.561,22.316" transform="translate(-1651.674 -230.932)" fill="none" stroke="#231815" stroke-miterlimit="10" stroke-width="0.25"/>
        <path id="Path_9184" data-name="Path 9184" d="M1670.752,271.6c1.443,1.2,28.227,19.22,32.252,50.212" transform="translate(-1649.821 -247.746)" fill="none" stroke="#231815" stroke-miterlimit="10" stroke-width="0.25"/>
        <path id="Path_9185" data-name="Path 9185" d="M1665.879,285.883c9.111,10.523,30.184,8.018,34.649,14.507" transform="translate(-1651.674 -242.316)" fill="none" stroke="#231815" stroke-miterlimit="10" stroke-width="0.25"/>
        <path id="Path_9186" data-name="Path 9186" d="M1686.2,268.279c4.134,5.811-3.781,16.1-1.277,23.807" transform="translate(-1644.621 -249.01)" fill="none" stroke="#231815" stroke-miterlimit="10" stroke-width="0.25"/>
        <ellipse id="Ellipse_1424" data-name="Ellipse 1424" cx="4.705" cy="3.055" rx="4.705" ry="3.055" transform="translate(7.932 103.211)" fill="#dffffa" stroke="#231815" stroke-miterlimit="10" stroke-width="0.25"/>
      </g>
    </g>
    <g id="Group_2785" data-name="Group 2785" transform="translate(1694.57 519.664)">
      <g id="Group_2784" data-name="Group 2784" transform="translate(88.649 18.004)">
        <path id="Path_9187" data-name="Path 9187" d="M1748.055,450.376c1.165-.777,9.066-11.186,22.049-9.1s15.611,16.714,26.786,18.849,15.941,8.71,15.448,16.926-6.574,16.269-17.913,17.749-17.992,13.146-25.923,12.982-11.216-7.723-15-15.118S1748.055,450.376,1748.055,450.376Z" transform="translate(-1748.055 -441.002)" fill="#a5b63d" stroke="#231815" stroke-miterlimit="10" stroke-width="0.25"/>
        <path id="Path_9188" data-name="Path 9188" d="M1755.456,459.383s37,3.741,49.393,21.838" transform="translate(-1745.241 -434.012)" fill="none" stroke="#231815" stroke-miterlimit="10" stroke-width="0.25"/>
        <path id="Path_9189" data-name="Path 9189" d="M1774.505,443.9s-4.569,12.1-16.072,18.211" transform="translate(-1744.109 -439.898)" fill="none" stroke="#231815" stroke-miterlimit="10" stroke-width="0.25"/>
        <path id="Path_9190" data-name="Path 9190" d="M1789.057,455.081s-6.555,10.209-16.65,11.122" transform="translate(-1738.794 -435.648)" fill="none" stroke="#231815" stroke-miterlimit="10" stroke-width="0.25"/>
        <path id="Path_9191" data-name="Path 9191" d="M1776.679,491.466s.355-18.726-9.84-29.952" transform="translate(-1740.912 -433.201)" fill="none" stroke="#231815" stroke-miterlimit="10" stroke-width="0.25"/>
        <path id="Path_9192" data-name="Path 9192" d="M1768.427,494.234s-2.669-12.048-12.659-18.729" transform="translate(-1745.122 -427.881)" fill="none" stroke="#231815" stroke-miterlimit="10" stroke-width="0.25"/>
        <path id="Path_9193" data-name="Path 9193" d="M1785.476,484.476s.858-12.286-5.1-18.064" transform="translate(-1735.765 -431.339)" fill="none" stroke="#231815" stroke-miterlimit="10" stroke-width="0.25"/>
      </g>
      <path id="Path_9194" data-name="Path 9194" d="M1697.477,427.958s7.765,14.815,19.833,21.506,31.183,2.987,31.183,2.987l3.7,8.907s-14.353,5.322-26.42,4.726c0,0,13.636,5.244,16.743,12.532l-3.466,3.585s-4.42-7.647-16.487-12.187a76.293,76.293,0,0,1,2.63,14.935c.239,6.572-13.5,4.9-13.382,4.3a32.991,32.991,0,0,0-11.111-29.631c-14.218-12.305-16.369-7.527-16.846-14.576S1689.353,429.153,1697.477,427.958Z" transform="translate(-1683.83 -427.958)" fill="#cad226" stroke="#231815" stroke-miterlimit="10" stroke-width="0.25"/>
      <path id="Path_9195" data-name="Path 9195" d="M1785.919,478.419a7.411,7.411,0,0,0-.6-12.365,7.41,7.41,0,0,0-8.672-7.833,7.423,7.423,0,0,0-2.794-9.052,9.132,9.132,0,0,0-7.961-12.483,8.177,8.177,0,0,0-6.421-5.013,7.9,7.9,0,0,0-5.771,1.6,7.66,7.66,0,0,0-10.846,6.356,7.551,7.551,0,0,0-2.646.921,8.082,8.082,0,0,0-2.7,11.1,8.5,8.5,0,0,0,3.275,3.212,4.513,4.513,0,0,0-.168,4.856,4.632,4.632,0,0,0,1.063,1.249,4.149,4.149,0,0,0-.895,1.384,4.306,4.306,0,0,0,1.233,4.769,7.62,7.62,0,0,0-5.612,4.672,7.483,7.483,0,0,0-.007,5.354,6.321,6.321,0,0,0-4.333-1.1,6.717,6.717,0,0,0-5.658,5.692,7.648,7.648,0,0,0-13.15,1.832,7.327,7.327,0,0,0-6.854-.592,7.247,7.247,0,0,0-4.58,6.265,6.648,6.648,0,0,0-3.912,12.514,6.742,6.742,0,0,0-3.638,6.171c0,3.691,2.642,6.683,5.9,6.683a5.332,5.332,0,0,0,2.845-.861v0c1.444,3.495,5.782,5.02,9.688,3.407a8.353,8.353,0,0,0,2.722-1.814,5.932,5.932,0,0,0,.248.736c1.443,3.495,5.781,5.02,9.688,3.406a8.283,8.283,0,0,0,3.47-2.667,7.111,7.111,0,0,0,11.658-3.56,6.677,6.677,0,0,0,8.377,3.165,6.371,6.371,0,0,0,2.21-1.529,4.6,4.6,0,0,0,7.433-.8,6.4,6.4,0,0,0,8.261-5.226,6.474,6.474,0,0,0,7.643-7.586,7.424,7.424,0,0,0,7.585-10.225c-.087-.213-.186-.415-.29-.614a7.561,7.561,0,0,0,1.346-.409,7.43,7.43,0,0,0,2.868-11.625Z" transform="translate(-1679.862 -426.568)" fill="#fff6eb" stroke="#000" stroke-miterlimit="10" stroke-width="0.25"/>
      <circle id="Ellipse_1425" data-name="Ellipse 1425" cx="3.226" cy="3.226" r="3.226" transform="translate(71.353 15.054)" fill="none" stroke="#231815" stroke-miterlimit="10" stroke-width="0.25"/>
      <path id="Path_9196" data-name="Path 9196" d="M1713,478.628a3.915,3.915,0,1,1-7.442,1.7" transform="translate(-1675.566 -408.689)" fill="none" stroke="#231815" stroke-miterlimit="10" stroke-width="0.25"/>
      <path id="Path_9197" data-name="Path 9197" d="M1717.346,486.247s3.3,3.194,6.722,1.513a3.881,3.881,0,0,0,2.073-4.986s2.857,1.233,4.649-.449,0-5.433,0-5.433" transform="translate(-1671.084 -409.349)" fill="none" stroke="#231815" stroke-miterlimit="10" stroke-width="0.25"/>
      <path id="Path_9198" data-name="Path 9198" d="M1725.2,469.819s-2.7,2.751-.861,5.379,7.884,1.139,7.884,1.139,1.663,4.578,5.43,4.83a6.93,6.93,0,0,0,5.869-2.99s3.854,4.992,11.124,2.189,3.942-9.2,3.942-9.2,5.079-.088,5.694-6.57-2.8-8.933-2.8-8.933a9.257,9.257,0,0,0,3.975-4.774" transform="translate(-1668.67 -419.237)" fill="none" stroke="#231815" stroke-miterlimit="10" stroke-width="0.25"/>
      <path id="Path_9199" data-name="Path 9199" d="M1747.988,450.391s3.154,1.785,2.541,4.588-4.293,2.1-4.293,2.1,2.716,5.431-.875,7.707-6.745-1.05-6.745-1.05,1.663,3.861-1.139,5c-2.365.959-4.116-2.49-4.116-2.49" transform="translate(-1664.994 -419.427)" fill="none" stroke="#231815" stroke-miterlimit="10" stroke-width="0.25"/>
      <path id="Path_9200" data-name="Path 9200" d="M1751.234,473.832s2.453,4.116-2.453,3.765" transform="translate(-1659.13 -410.513)" fill="none" stroke="#231815" stroke-miterlimit="10" stroke-width="0.25"/>
      <path id="Path_9201" data-name="Path 9201" d="M1744.885,472.825s3.546,8.046-4.161,9.8c0,0,4.817,9.109-4.117,9.985a7.172,7.172,0,0,1-1.184,6.624" transform="translate(-1664.21 -410.896)" fill="none" stroke="#231815" stroke-miterlimit="10" stroke-width="0.25"/>
    </g>
    <ellipse id="Ellipse_1426" data-name="Ellipse 1426" cx="6.406" cy="4.643" rx="6.406" ry="4.643" transform="translate(1836.615 533.006)" fill="#ecb36f" stroke="#000" stroke-linejoin="round" stroke-width="0.25"/>
    <ellipse id="Ellipse_1427" data-name="Ellipse 1427" cx="3.529" cy="2.322" rx="3.529" ry="2.322" transform="translate(1853.29 529.739)" fill="#c19165" stroke="#000" stroke-linejoin="round" stroke-width="0.25"/>
    <ellipse id="Ellipse_1428" data-name="Ellipse 1428" cx="5.761" cy="3.955" rx="5.761" ry="3.955" transform="translate(1895.773 612.973)" fill="#ecb36f" stroke="#000" stroke-linejoin="round" stroke-width="0.25"/>
    <ellipse id="Ellipse_1429" data-name="Ellipse 1429" cx="3.783" cy="2.494" rx="3.783" ry="2.494" transform="translate(1880.812 603.515)" fill="#ecb36f" stroke="#000" stroke-linejoin="round" stroke-width="0.25"/>
    <path id="Path_9202" data-name="Path 9202" d="M1767.428,503.626c16.51-9.712,26.827,7.4,40.818,1.376" transform="translate(42.531 119.321)" fill="none" stroke="#231815" stroke-miterlimit="10" stroke-width="0.25"/>
    <path id="Path_9203" data-name="Path 9203" d="M1811.383,462.916c9.422-5.455,19.165,5.467,25.911,1.184" transform="translate(59.246 104.406)" fill="none" stroke="#231815" stroke-miterlimit="10" stroke-width="0.25"/>
    <path id="Path_9204" data-name="Path 9204" d="M1809.327,441.025c11.731,6.091,17.828,1.767,28.749-1.241,10.053-2.767,15.354,5.673,25.393,3.908" transform="translate(58.465 95.99)" fill="none" stroke="#231815" stroke-miterlimit="10" stroke-width="0.25"/>
    <path id="Path_9205" data-name="Path 9205" d="M1852.8,442.848c3.516-1.238,4.174,1.434,8.46,1.434" transform="translate(74.997 97.244)" fill="none" stroke="#231815" stroke-miterlimit="10" stroke-width="0.25"/>
    <ellipse id="Ellipse_1430" data-name="Ellipse 1430" cx="6.632" cy="4.833" rx="6.632" ry="4.833" transform="translate(2053.046 561.83)" fill="#c19165" stroke="#000" stroke-linejoin="round" stroke-width="0.25"/>
    <ellipse id="Ellipse_1431" data-name="Ellipse 1431" cx="4.145" cy="2.211" rx="4.145" ry="2.211" transform="translate(2079.953 560.985)" fill="#ecb36f" stroke="#000" stroke-linejoin="round" stroke-width="0.25"/>
    <path id="Path_9206" data-name="Path 9206" d="M1921.91,431.936s9.764-5.158,20.266-1.658,19.16,5.712,25.425,2.395" transform="translate(101.278 92.126)" fill="none" stroke="#231815" stroke-miterlimit="10" stroke-width="0.25"/>
    <path id="Path_9207" data-name="Path 9207" d="M1958.482,432.922s5.711-1.1,8.106,1.582" transform="translate(115.186 93.51)" fill="none" stroke="#231815" stroke-miterlimit="10" stroke-width="0.25"/>
    <g id="Group_2786" data-name="Group 2786" transform="translate(2001.792 426.592)">
      <path id="Path_9208" data-name="Path 9208" d="M1934.266,383.176c1.407-.527,18.561-.345,29.98-21.6,0,0,8.185-4.362,12.561,4.716,0,0-8.878,21.092,2.784,40.775l-14.054,8.607s-6.675-15.986-4.919-28.634c0,0-3.865,10.013-8.255,13.7,0,0-3.339-2.108-2.636-2.284s5.974-7.553,7.2-15.283c0,0-4.981,0-15.843,6.85S1934.266,383.176,1934.266,383.176Z" transform="translate(-1896.095 -360.528)" fill="#cad226" stroke="#231815" stroke-miterlimit="10" stroke-width="0.25"/>
      <path id="Path_9209" data-name="Path 9209" d="M1988.791,400.993c-.108-2.868-2.323-5.745-5.735-7.041-4.037-1.534-8.265-.284-9.854,2.752a9.141,9.141,0,0,0-5.172-4.67c-4.292-1.63-8.84-.142-10.158,3.327-.025.068-.04.137-.063.206a8.843,8.843,0,0,0-7.75-.455,8.534,8.534,0,0,0-5.669,6.6c-3.9.555-6.864,3.3-6.864,6.607,0,3.709,3.723,6.716,8.315,6.716a9.584,9.584,0,0,0,5.133-1.44c-.075.16-.152.319-.217.487a8.054,8.054,0,0,0,5.016,10.21,8.505,8.505,0,0,0,7.3-.538,5.935,5.935,0,1,0,11.7,1.967,10.344,10.344,0,0,0,2.683,1.507,9.617,9.617,0,0,0,12.55-5.216,9.032,9.032,0,0,0-.275-7,7.429,7.429,0,0,0,3.654-4A8.01,8.01,0,0,0,1988.791,400.993Z" transform="translate(-1894.576 -348.798)" fill="#fff6eb" stroke="#000" stroke-miterlimit="10" stroke-width="0.25"/>
      <path id="Path_9210" data-name="Path 9210" d="M1966.012,390.344a8.615,8.615,0,0,0-6.224-2.529,5.728,5.728,0,0,0-1.346-5.59c-2.183-2.184-5.869-2.04-8.465.217a10.853,10.853,0,0,0-3.234-7c-3.738-3.738-9.312-4.3-12.864-1.444a8.923,8.923,0,0,0-15.581,5.952c0,.2.017.393.03.589a8.355,8.355,0,0,0-6.319,2.366,8.756,8.756,0,0,0-1.937,8.843,6.908,6.908,0,0,0-1.672,1.211c-2.456,2.456-2.672,6.222-.481,8.413a5.149,5.149,0,0,0,2.851,1.427c-.566,3.151-1.209,7.183-1.209,7.183l6.007,7.393h5.455a12.743,12.743,0,0,1,15.615,7.089,8.644,8.644,0,0,0,12.138.081,4.672,4.672,0,0,0,.521.636,4.6,4.6,0,0,0,6.749-6.249c2.79-2.424,6.25-5.52,6.341-6.053.076-.439-.454-4.127-1.046-7.9a8.638,8.638,0,0,0,4.669-14.632Z" transform="translate(-1906.409 -356.541)" fill="#fff6eb" stroke="#000" stroke-miterlimit="10" stroke-width="0.25"/>
      <path id="Path_9211" data-name="Path 9211" d="M1920.7,380.317s-3.016,2.348-2.356,5.084,3.769,3.585,3.769,3.585-2.7,3.211-.941,6.48c1.883,3.507,6.689,2.565,6.689,2.565" transform="translate(-1901.905 -353.003)" fill="none" stroke="#231815" stroke-miterlimit="10" stroke-width="0.25"/>
      <path id="Path_9212" data-name="Path 9212" d="M1932.073,390.9s-1.224,6.126,4.429,3.676c0,0,.094,4.051,3.768,1.7" transform="translate(-1896.693 -348.979)" fill="none" stroke="#231815" stroke-miterlimit="10" stroke-width="0.25"/>
      <path id="Path_9213" data-name="Path 9213" d="M1957.947,401.64s-.907,6.54,5.218,3.84c0,0,1.66,4.525,5.19.654" transform="translate(-1886.828 -344.894)" fill="none" stroke="#231815" stroke-miterlimit="10" stroke-width="0.25"/>
    </g>
    <path id="Path_9214" data-name="Path 9214" d="M1900.716,361c1.212-.758,7.425-5.607,13.941-2.727s9.244,4.091,19.092,1.666" transform="translate(93.218 64.862)" fill="none" stroke="#231815" stroke-miterlimit="10" stroke-width="0.25"/>
    <path id="Path_9215" data-name="Path 9215" d="M1933.532,360.169s3.894.669,5.513,2.262" transform="translate(105.698 65.927)" fill="none" stroke="#231815" stroke-miterlimit="10" stroke-width="0.25"/>
    <g id="Group_2787" data-name="Group 2787" transform="translate(1702.468 229.177)">
      <path id="Path_9216" data-name="Path 9216" d="M1963.259,322.955a8.813,8.813,0,0,0-.037-1.662c-.571-4.664-4.7-8.09-9.633-8.322a9.772,9.772,0,0,0,6.469-10.1,8.988,8.988,0,0,0-2.254-4.907,7.837,7.837,0,0,0,4.271-7.593,7.25,7.25,0,0,0-3.329-5.137,7.25,7.25,0,0,0,1.99-5.79,7.751,7.751,0,0,0-5.56-6.214,4.968,4.968,0,0,0,.624-3c-.432-3.531-4.835-5.9-9.875-5.346a10.58,10.58,0,0,0,1.052-6.1,10.178,10.178,0,0,0-5.828-8.156,8.343,8.343,0,0,0-9.282-11.869,7.135,7.135,0,0,0-10.892-7.792,9.126,9.126,0,0,0-4-6c-3.727-2.384-8.632-1.612-11.992,1.557a8.816,8.816,0,0,0-1.7-2.389c-3.756-3.757-10.156-3.448-14.294.69a11.569,11.569,0,0,0-1.877,2.461,10.5,10.5,0,0,0-12.071,2.3,11.033,11.033,0,0,0-3.307,8.079,8.77,8.77,0,0,0-2.818-.574c-5.309-.195-9.786,4.389-10,10.236-.012.32-.005.636.008.95a8.055,8.055,0,0,0-8.736-.117,8.422,8.422,0,0,0-3.629-6.382c-3.683-2.6-8.584-2-10.947,1.339a6.785,6.785,0,0,0-.86,1.691,11.764,11.764,0,0,0-1.775-1.545c-.193-.137-.393-.254-.592-.378a3.813,3.813,0,0,0-3.255-5.6,6.939,6.939,0,0,0-8.853-6.073,7.993,7.993,0,0,0-10.409-7.22,7.994,7.994,0,0,0-11.682-3.271,11.239,11.239,0,0,0-18.394,4,11.264,11.264,0,0,0-13.229,13.641,10.227,10.227,0,0,0-9.552,4.1,10.079,10.079,0,0,0-1.186,9.14,12.506,12.506,0,0,0-8.239,8.349,13.017,13.017,0,0,0,.491,9.754,8.6,8.6,0,0,0-5.4,3.411c-2.094,2.962-1.952,6.926.007,10.291a14.276,14.276,0,0,0-8.661,5.719,14.441,14.441,0,0,0-1.424,2.515,13.446,13.446,0,0,0-13.749,5.151,12.685,12.685,0,0,0-2.3,6.961,13.828,13.828,0,0,0-12.474,5.7,13.664,13.664,0,0,0-2.044,11.212,11.967,11.967,0,0,0-5.14,15.376,13.407,13.407,0,0,0-3.808,3.6,14.074,14.074,0,0,0,.865,17.037,13.393,13.393,0,0,0-1.932,2.181c-4.454,6.3-2.726,15.183,3.862,19.84a15.108,15.108,0,0,0,4.7,2.221,11.615,11.615,0,0,0,15.122,13.006,11.494,11.494,0,0,0,.987,4.48,11.07,11.07,0,0,0-6.672,4.416,11.389,11.389,0,0,0,2.9,15.843,11.8,11.8,0,0,0,2.157,1.2,11.595,11.595,0,0,0,13.688,14.732,6.685,6.685,0,0,0,.675,4.819c2.066,3.579,7.218,4.473,11.5,2a10.363,10.363,0,0,0,3.234-2.9c2.068,2.457,5.985,3,9.277,1.1a7.706,7.706,0,0,0,4.051-6.941l54.782-9.186,83.51,18.441,35.668-40.456,32.245-53.4-1.118-3.495a14.02,14.02,0,0,0,5.024-5.967C1970.443,332.355,1968.491,325.362,1963.259,322.955Z" transform="translate(-1689.552 -217.503)" fill="#fff6eb" stroke="#000" stroke-miterlimit="10" stroke-width="0.25"/>
      <path id="Path_9217" data-name="Path 9217" d="M1863.037,375.559a9.923,9.923,0,0,0-2.725-19.07c2.108-3.234,2.352-7.219.268-10.191-2.867-4.087-9.035-4.7-13.778-1.378,0,0-.359-9.179-7.694-10.184a12.244,12.244,0,0,0-.385-7.59c-2.167-5.742-8-8.889-13.244-7.291-.12-9.771-8.468-17.659-18.761-17.659a19.279,19.279,0,0,0-11.414,3.706,8.066,8.066,0,0,0-14.819.233A10.394,10.394,0,0,0,1765.225,314a7.175,7.175,0,0,0-1.175-.117,7.042,7.042,0,0,0-6.574,9.647,15.835,15.835,0,0,0-12.17,20.554,11.591,11.591,0,0,0-6.218,6.323c-1.5,3.858-.624,8.146,1.942,11.7a8.883,8.883,0,0,0-5.328,4.94c-1.348,3.47-.018,7.5,3.108,10.792a8.529,8.529,0,0,0-3.739,4.25c-1.445,3.723.077,8.011,3.495,11.12a5.975,5.975,0,0,0-.9,3.308c.2,5,7.182,8.783,15.589,8.445.795-.033,1.568-.112,2.327-.213,4.037,9.146,26.208,15.405,52.668,14.337,29.022-1.172,52.2-10.714,51.774-21.314a8.192,8.192,0,0,0-1.728-4.556,9.926,9.926,0,0,0,4.745-17.651Z" transform="translate(-1672.448 -185.698)" fill="#fff6eb" stroke="#000" stroke-miterlimit="10" stroke-width="0.25"/>
      <path id="Path_9218" data-name="Path 9218" d="M1751.153,317.391a7.967,7.967,0,0,1,6.371,1.619" transform="translate(-1666.126 -179.562)" fill="none" stroke="#231815" stroke-miterlimit="10" stroke-width="0.25"/>
      <path id="Path_9219" data-name="Path 9219" d="M1776.3,332.79s-.543-7.275,4.56-9.556,7.927,2.715,7.927,2.715,1.845-6.3,7.709-5.429,4.451,7.274,4.451,7.274,4.018-2.389,6.841-.651,1.736,7.709,1.736,7.709,9.663,1.629,3.367,14.333" transform="translate(-1656.568 -178.358)" fill="none" stroke="#231815" stroke-miterlimit="10" stroke-width="0.25"/>
      <path id="Path_9220" data-name="Path 9220" d="M1814.908,375.156c.326-.109,9.989-3.692,6.406-11.4,0,0,6.624-8.686-1.845-11.075,0,0,4.311-3.583,2.823-8.142-1.434-4.4-6.623-2.932-6.623-2.932s-3.342-7.412-11.552-3.543" transform="translate(-1645.984 -172.082)" fill="none" stroke="#231815" stroke-miterlimit="10" stroke-width="0.25"/>
      <path id="Path_9221" data-name="Path 9221" d="M1817.156,332.858s.6,5.543-4.669,10.3" transform="translate(-1642.802 -173.635)" fill="none" stroke="#231815" stroke-miterlimit="10" stroke-width="0.25"/>
      <path id="Path_9222" data-name="Path 9222" d="M1760.067,362.339a6.073,6.073,0,0,1-2.647-5.808c.6-3.759,5.21-2.733,5.21-2.733s-1.847-5.173,1.281-8.954c2.819-3.407,8.115-1.778,8.8,0,0,0,3.161-4.457,8.456-3.176s5.467,7.517,5.467,7.517,8.627-2.563,8.541,9.139" transform="translate(-1663.771 -170.373)" fill="none" stroke="#231815" stroke-miterlimit="10" stroke-width="0.25"/>
      <ellipse id="Ellipse_1432" data-name="Ellipse 1432" cx="5.351" cy="4.06" rx="5.351" ry="4.06" transform="translate(81.289 152.277)" fill="#dffffa" stroke="#231815" stroke-miterlimit="10" stroke-width="0.25"/>
      <ellipse id="Ellipse_1433" data-name="Ellipse 1433" cx="2.706" cy="1.907" rx="2.706" ry="1.907" transform="translate(92.852 146.987)" fill="#dffffa" stroke="#231815" stroke-miterlimit="10" stroke-width="0.25"/>
      <path id="Path_9223" data-name="Path 9223" d="M1772.614,269.509c-6.236-8.641-14.305-2.962-14.305-2.962a11.134,11.134,0,0,0-11.323-4.261c-7.735,1.346-10,5.942-10,5.942-2.935-3.476-8.939-1.764-8.939-1.764" transform="translate(-1674.911 -200.552)" fill="none" stroke="#231815" stroke-miterlimit="10" stroke-width="0.25"/>
      <path id="Path_9224" data-name="Path 9224" d="M1708.5,347.428s-.287-6.224,11.719-7.647" transform="translate(-1682.346 -171.003)" fill="none" stroke="#231815" stroke-miterlimit="10" stroke-width="0.25"/>
      <path id="Path_9225" data-name="Path 9225" d="M1722.73,368.79a5.241,5.241,0,0,1-1.839-5.514c1-3.426,4.785-2.925,4.785-2.925a7.731,7.731,0,0,1-.446-6.1c.861-2.534,3.264-3.593,6.022-3.092" transform="translate(-1677.715 -166.722)" fill="none" stroke="#231815" stroke-miterlimit="10" stroke-width="0.25"/>
      <path id="Path_9226" data-name="Path 9226" d="M1702.661,324.358s-3.453-5.852,1.631-7.674" transform="translate(-1685.002 -179.786)" fill="none" stroke="#231815" stroke-miterlimit="10" stroke-width="0.25"/>
      <path id="Path_9227" data-name="Path 9227" d="M1718.805,325.851s-2.859-4.823-.576-7.674,5.469-.959,5.469-.959a5.371,5.371,0,0,1,4.7-4.414,5.3,5.3,0,0,1,5.565,3.07s3.453-3.357,7.579-2.494,5.373,6.479,5.373,6.479" transform="translate(-1678.982 -181.279)" fill="none" stroke="#231815" stroke-miterlimit="10" stroke-width="0.25"/>
      <path id="Path_9228" data-name="Path 9228" d="M1709.117,280a11.086,11.086,0,0,1,9.622,5.937s2.69-5.136,6.726-4.769,5.87,5.259,5.87,5.259a7.918,7.918,0,0,1,7.46-3.215c4.769.769,6.482,5.538,6.482,9.7" transform="translate(-1682.111 -193.738)" fill="none" stroke="#231815" stroke-miterlimit="10" stroke-width="0.25"/>
      <path id="Path_9229" data-name="Path 9229" d="M1725.494,316.895s-3.18-4.77-.734-9.295,8.072-4.12,8.072-4.12a12.7,12.7,0,0,1,2.324-9.089c3.179-4.157,8.316-4.28,10.272-1.834,0,0,1.223-4.769,4.77-4.892s5.015,5.137,5.015,5.137" transform="translate(-1676.514 -190.823)" fill="none" stroke="#231815" stroke-miterlimit="10" stroke-width="0.25"/>
      <path id="Path_9230" data-name="Path 9230" d="M1753.814,324.126s-2.307-5.415,2.616-7.436c0,0-5.8-.879-6.592-5.626s2.106-8.527,5.052-9.318c0,0-4.261-9.142,3.913-11.252,0,0-2.725-5.1,0-9.142s8.439-2.813,8.439-2.813" transform="translate(-1666.676 -194.359)" fill="none" stroke="#231815" stroke-miterlimit="10" stroke-width="0.25"/>
      <path id="Path_9231" data-name="Path 9231" d="M1795.641,280.592s-1.709,4.594-5.66,2.671c0,0-2.457,5.02-7.157,4.166a6.678,6.678,0,0,1-5.448-5.126,10.178,10.178,0,0,1-6.247,8.2c-5.8,2.334-8.265-1.325-7.885-4.606,0,0-5.238-.243-4.479-6.624.8-6.683,6.244-7.442,6.244-7.442s-3-3.6-1.183-6.624,7.554-1.892,7.554-1.892a9.219,9.219,0,0,1,.189-8.516c2.461-4.479,7.507-4.415,9.463-1.7,0,0,3.51-4,8.516-2.965,6.092,1.262,6.092,10.031,6.092,10.031" transform="translate(-1663.26 -205.161)" fill="none" stroke="#231815" stroke-miterlimit="10" stroke-width="0.25"/>
      <path id="Path_9232" data-name="Path 9232" d="M1808.939,324.8a12.65,12.65,0,0,1,2.238-7.854c2.615-3.487,7.969-1.743,7.969-1.743s-1.869-7.6,3.485-11.7,12.078-.622,12.7,1.246c0,0,1.992-4.981,6.972-4.856s8.841,5.1,8.717,8.093c0,0,10.957-2.242,10.831,12.7,0,0,7.346-3.113,4.359,11.329" transform="translate(-1644.158 -186.172)" fill="none" stroke="#231815" stroke-miterlimit="10" stroke-width="0.25"/>
      <path id="Path_9233" data-name="Path 9233" d="M1824.911,328.147s-1.725-3.643.671-6.326,5.56,0,5.56,0a6.071,6.071,0,0,1,3.95-3.546c2.95-.767,5.059,2.012,5.251,3.93" transform="translate(-1638.306 -179.231)" fill="none" stroke="#231815" stroke-miterlimit="10" stroke-width="0.25"/>
      <path id="Path_9234" data-name="Path 9234" d="M1840.936,336.719s-1.725-5.846,3.162-9.583,9.106-1.246,9.106-1.246a6.336,6.336,0,0,1,5.558-6.231c5.655-.958,7.476,4.313,7.476,4.313s1.533-4.7,5.655-3.833,3.451,10.159,3.451,10.159" transform="translate(-1632.095 -178.699)" fill="none" stroke="#231815" stroke-miterlimit="10" stroke-width="0.25"/>
      <path id="Path_9235" data-name="Path 9235" d="M1842.031,314.949c.008-.516-.566-10.1,6.91-10.772,0,0-.863-7.571,3.738-12.747s12.46-4.984,14.567-2.683a8.923,8.923,0,0,1,8.148-6.8c6.9-.576,12.268,2.3,12.555,9.68a10.368,10.368,0,0,1,7.658-3.129" transform="translate(-1631.569 -193.025)" fill="none" stroke="#231815" stroke-miterlimit="10" stroke-width="0.25"/>
      <ellipse id="Ellipse_1434" data-name="Ellipse 1434" cx="3.426" cy="5.302" rx="3.426" ry="5.302" transform="translate(144.832 48.065) rotate(-79.916)" fill="#dffffa" stroke="#231815" stroke-miterlimit="10" stroke-width="0.25"/>
      <ellipse id="Ellipse_1435" data-name="Ellipse 1435" cx="3.833" cy="6.036" rx="3.833" ry="6.036" transform="translate(162.368 54.894) rotate(-82.323)" fill="#dffffa" stroke="#231815" stroke-miterlimit="10" stroke-width="0.25"/>
      <path id="Path_9236" data-name="Path 9236" d="M1777.014,257.3s-3.609-2.551-2.736-8.186,6.607-6.122,8.454-4.761c0,0,.681-5.344,5.15-7.774a12.724,12.724,0,0,1,12.34-.28" transform="translate(-1657.384 -210.911)" fill="none" stroke="#231815" stroke-miterlimit="10" stroke-width="0.25"/>
      <path id="Path_9237" data-name="Path 9237" d="M1755.941,245.875s-.469-4.957,3.8-5.539,5.434,3.661,5.434,3.661a4.686,4.686,0,0,1,5.052-2.785c3.694.582,3.6,5.927,3.6,5.927" transform="translate(-1664.311 -208.841)" fill="none" stroke="#231815" stroke-miterlimit="10" stroke-width="0.25"/>
      <path id="Path_9238" data-name="Path 9238" d="M1805.57,270.16s-.388-6.607,3.79-8.065,6.607,2.2,7,4.017c0,0,3.013-4.7,6.705-3.531s3.594,6.316,3.594,6.316,4.762-.291,5.83,3.79a8.318,8.318,0,0,1-.972,6.8" transform="translate(-1645.435 -200.673)" fill="none" stroke="#231815" stroke-miterlimit="10" stroke-width="0.25"/>
      <path id="Path_9239" data-name="Path 9239" d="M1831.051,287.765a12.676,12.676,0,0,1,4.664-8.551,9.2,9.2,0,0,1,12.923.584s2.817-5.344,7.579-6.705,7.774,1.166,8.453,2.235c0,0,5.295-1.677,8.318,1.652,3.44,3.79,1.157,10.679,1.157,10.679" transform="translate(-1635.742 -196.512)" fill="none" stroke="#231815" stroke-miterlimit="10" stroke-width="0.25"/>
      <path id="Path_9240" data-name="Path 9240" d="M1812.263,239.8s5.59,3.753,8.476,13.012c0,0,4.342-4.209,9.507-2.525s5.766,10.636,5.766,10.636a16,16,0,0,1,15.031-4.384c8.537,2.044,9.071,13.571,9.071,13.571s4.518-2.664,8.966,0,3,11.7.476,15.9" transform="translate(-1642.887 -209.023)" fill="none" stroke="#231815" stroke-miterlimit="10" stroke-width="0.25"/>
      <path id="Path_9241" data-name="Path 9241" d="M1836.541,238.15s1.728-4.373,6.2-3.966,3.558,6.2,3.558,6.2,2.745-4.094,6.812-3.115,3.152,6.164,3.152,6.164" transform="translate(-1633.654 -211.169)" fill="none" stroke="#231815" stroke-miterlimit="10" stroke-width="0.25"/>
      <path id="Path_9242" data-name="Path 9242" d="M1856.356,253.875a9.19,9.19,0,0,1,8.337-4.371c5.491.305,6.812,5.9,6.812,5.9a33.955,33.955,0,0,1,10.988-2.679" transform="translate(-1626.119 -205.34)" fill="none" stroke="#231815" stroke-miterlimit="10" stroke-width="0.25"/>
      <path id="Path_9243" data-name="Path 9243" d="M1864.679,267s2.745-.712,4.17,1.016,0,3.966,0,3.966,2.954-.257,3.659,2.135c.5,1.7-.508,3.863-2.236,5.491" transform="translate(-1622.954 -198.736)" fill="none" stroke="#231815" stroke-miterlimit="10" stroke-width="0.25"/>
      <path id="Path_9244" data-name="Path 9244" d="M1787.1,300.39s-2.687-2.687-.672-5.375,5.51-.672,5.51-.672a6.926,6.926,0,0,1,2.823-7.661c3.139-2.116,7.525.269,7.928,3.629,0,0,1.612-4.3,5.375-3.224s2.554,6.128,2.554,6.128" transform="translate(-1652.995 -191.499)" fill="none" stroke="#231815" stroke-miterlimit="10" stroke-width="0.25"/>
      <path id="Path_9245" data-name="Path 9245" d="M1861.434,307s-.122-4.358,3.676-5.767a4.674,4.674,0,0,1,6.363,3.413s2.878-2.878,5.405-1.745,2.616,3.314,2.268,5.318c0,0,2.616-.958,3.923.523s.349,5.494-1.307,8.109" transform="translate(-1624.188 -185.795)" fill="none" stroke="#231815" stroke-miterlimit="10" stroke-width="0.25"/>
      <path id="Path_9246" data-name="Path 9246" d="M1837.66,351.917a4.3,4.3,0,0,1,0-4.536c1.436-2.156,4.787-1.68,4.787-1.68" transform="translate(-1633.483 -168.768)" fill="none" stroke="#231815" stroke-miterlimit="10" stroke-width="0.25"/>
    </g>
    <g id="Group_2788" data-name="Group 2788" transform="translate(1902.9 347.273)">
      <path id="Path_9247" data-name="Path 9247" d="M1847.69,388.886s-4.167-4.671,1.666-20.772,23.541-15.685,37.083-29.851,6.2-15.957,13.4-23.517,14.061-4.886,21.034-9.3a15.754,15.754,0,0,1,17.721.779c3.329,2.588,3.977,10.634,10.45,16s5.224,25.607-6.658,40.176-14.428,21.643-16.975,36.213-16.267,25.205-32.392,30.78-26.453,18.369-26.453,18.369-31.806-6.32-31.806-6.932S1847.69,388.886,1847.69,388.886Z" transform="translate(-1834.763 -303.063)" fill="#cad226" stroke="#231815" stroke-miterlimit="10" stroke-width="0.25"/>
      <path id="Path_9248" data-name="Path 9248" d="M1885.322,331.987s1.556,26.947-5.55,52.372c-3.292,11.777-8.745,26.864-7.919,37.084" transform="translate(-1820.69 -292.063)" fill="none" stroke="#231815" stroke-miterlimit="10" stroke-width="0.25"/>
      <path id="Path_9249" data-name="Path 9249" d="M1861.433,345.657c3.957,17.8,20.341,16.216,24.081,26.185" transform="translate(-1824.621 -286.865)" fill="none" stroke="#231815" stroke-miterlimit="10" stroke-width="0.25"/>
      <path id="Path_9250" data-name="Path 9250" d="M1917.137,318.144c-12.029,3.586-9.175,31.519-36.278,47.081" transform="translate(-1817.234 -297.327)" fill="none" stroke="#231815" stroke-miterlimit="10" stroke-width="0.25"/>
      <path id="Path_9251" data-name="Path 9251" d="M1914.8,344.671c-2.152,7.62-6.075,17.666-19.981,23.04-15.1,5.833-13.093,19.151-19.6,22.829" transform="translate(-1819.378 -287.24)" fill="none" stroke="#231815" stroke-miterlimit="10" stroke-width="0.25"/>
      <path id="Path_9252" data-name="Path 9252" d="M1872.666,393.316c7.645-5.132,15.635-1.444,26.61-12.8A29.362,29.362,0,0,1,1910.807,373" transform="translate(-1820.349 -276.468)" fill="none" stroke="#231815" stroke-miterlimit="10" stroke-width="0.25"/>
      <path id="Path_9253" data-name="Path 9253" d="M1859.714,373.411c-.667,19.748,13.547,21.189,14.421,33.541" transform="translate(-1825.283 -276.31)" fill="none" stroke="#231815" stroke-miterlimit="10" stroke-width="0.25"/>
      <ellipse id="Ellipse_1436" data-name="Ellipse 1436" cx="4.591" cy="2.884" rx="4.591" ry="2.884" transform="matrix(0.809, -0.587, 0.587, 0.809, 81.472, 12.03)" fill="#dffffa" stroke="#231815" stroke-miterlimit="10" stroke-width="0.25"/>
    </g>
    <g id="Group_2789" data-name="Group 2789" transform="translate(1762.909 429.46)">
      <path id="Path_9254" data-name="Path 9254" d="M1813.874,446.683c18.786-2.726,35.987,5.273,52.79-2.635s14.167-23.2,25.24-33.216,21.353-17.662,22.144-30.579-7.148-18.73-15.23-17.142-23.53-3.368-35.367,2.286-21.654,21.1-34.212,23.7-20.468-.433-26.907-6.207-24.051-1.444-30.98-4.043-16.889-2.6-21.365,5.053-13.136,7.073-15.879,16.167,2.021,18.044,11.983,22.809,13.424,9.96,18.044,17.034,12.559,11.115,21.8,10.97S1804,448.119,1813.874,446.683Z" transform="translate(-1733.341 -362.606)" fill="#a5b63d" stroke="#231815" stroke-miterlimit="10" stroke-width="0.25"/>
      <path id="Path_9255" data-name="Path 9255" d="M1798.167,391.323s-6.55,31.513,3.235,43.886" transform="translate(-1709.505 -351.685)" fill="none" stroke="#231815" stroke-miterlimit="10" stroke-width="0.25"/>
      <path id="Path_9256" data-name="Path 9256" d="M1766.715,382.705c10.287,21.7,35.523,11.092,40.711,26.332" transform="translate(-1720.65 -354.962)" fill="none" stroke="#231815" stroke-miterlimit="10" stroke-width="0.25"/>
      <path id="Path_9257" data-name="Path 9257" d="M1754.487,388.528c13.02,41.31,46.776,22.664,58.4,37.442" transform="translate(-1725.299 -352.748)" fill="none" stroke="#231815" stroke-miterlimit="10" stroke-width="0.25"/>
      <ellipse id="Ellipse_1437" data-name="Ellipse 1437" cx="2.505" cy="1.929" rx="2.505" ry="1.929" transform="translate(11.137 35.78)" fill="#dffffa" stroke="#231815" stroke-miterlimit="10" stroke-width="0.25"/>
      <ellipse id="Ellipse_1438" data-name="Ellipse 1438" cx="3.995" cy="6.635" rx="3.995" ry="6.635" transform="matrix(0.177, -0.984, 0.984, 0.177, 18.93, 30.859)" fill="#dffffa" stroke="#231815" stroke-miterlimit="10" stroke-width="0.25"/>
      <path id="Path_9258" data-name="Path 9258" d="M1752.79,404.3c8.8,17.062,26.271,21.125,29.114,30.722" transform="translate(-1725.945 -346.749)" fill="none" stroke="#231815" stroke-miterlimit="10" stroke-width="0.25"/>
      <path id="Path_9259" data-name="Path 9259" d="M1797,405.336c7.89-7.419,23.784-.472,46.634-25.251" transform="translate(-1709.132 -355.959)" fill="none" stroke="#231815" stroke-miterlimit="10" stroke-width="0.25"/>
      <path id="Path_9260" data-name="Path 9260" d="M1798.82,436.7c24.833-30.542,45.965-19.646,67.121-55.32" transform="translate(-1708.44 -355.468)" fill="none" stroke="#231815" stroke-miterlimit="10" stroke-width="0.25"/>
      <path id="Path_9261" data-name="Path 9261" d="M1841.908,405.024c-1.334,10.09-19.132,16.544-20.471,26.151" transform="translate(-1699.839 -346.475)" fill="none" stroke="#231815" stroke-miterlimit="10" stroke-width="0.25"/>
    </g>
    <g id="Group_2792" data-name="Group 2792" transform="translate(1897.412 463.454)">
      <g id="Group_2790" data-name="Group 2790" transform="translate(35.545 50.706)">
        <path id="Path_9262" data-name="Path 9262" d="M1856.539,438.43s14.942,9.3,12.771,24.142-7.858,21.3-7.858,21.3,21.443,17.057,21.8,16.152,3.268-8.893,14.661-19.825,30.825-15.456,41.562-9.844c0,0-2.113-17.766-3.019-17.481s-16.983,1.553-23.243,5.354c0,0,3.841-7.665,8.219-11.643,0,0-3.257-3.4-3.62-2.393s-8.145,6.976-10.317,14.4c0,0-8.869.9-12.852,3.438a41.4,41.4,0,0,1,21.534-22.639c0-1.711-4.881-11.841-4.881-11.841l-20.043-3.578s2.279,15.456-6.849,26.486c0,0-1.42-13.767-9.075-20.283,0,0-6.75,1.81-6.207,1.99s4.163,4.538,5.068,12.859c0,0-7.42-10.867-15.2-13.945Z" transform="translate(-1856.539 -423.97)" fill="#cad226" stroke="#231815" stroke-miterlimit="10" stroke-width="0.25"/>
        <ellipse id="Ellipse_1439" data-name="Ellipse 1439" cx="4.949" cy="13.568" rx="4.949" ry="13.568" transform="translate(1.966 63.88) rotate(-53.469)" fill="#a5b63d" stroke="#231815" stroke-miterlimit="10" stroke-width="0.25"/>
      </g>
      <path id="Path_9263" data-name="Path 9263" d="M1950.792,442.61a10.987,10.987,0,0,0,.661-3.02c.406-5.79-3.758-10.921-9.641-12.395a9.01,9.01,0,1,0-17.632-.787c-4.74,2.331-10.554,5.2-14.663,7.252a10.135,10.135,0,1,0-1.5,18.177,9.581,9.581,0,0,0-1.516,5.148c0,5.6,4.854,10.133,10.843,10.133a11.578,11.578,0,0,0,2.935-.385,8.382,8.382,0,0,0,11.066,11.574c3.818,4.618,9.8,6.3,14.306,3.7,5.144-2.97,6.417-10.4,2.842-16.59a15.528,15.528,0,0,0-1.357-1.971A11.962,11.962,0,0,0,1956,453,11.7,11.7,0,0,0,1950.792,442.61Z" transform="translate(-1806.652 -376.294)" fill="#fff6eb" stroke="#000" stroke-miterlimit="10" stroke-width="0.25"/>
      <path id="Path_9264" data-name="Path 9264" d="M1922.624,434.016s4.032-.323,4.839,2.9-2.42,5.081-2.42,5.081,4.193,1.211,3.629,3.872-4.033,3.63-4.033,3.63" transform="translate(-1795.863 -369.447)" fill="none" stroke="#231815" stroke-miterlimit="10" stroke-width="0.25"/>
      <path id="Path_9265" data-name="Path 9265" d="M1917.949,448.259c.251-1.355,4.08-4.509,8-2.9,3.765,1.543,1.506,5.565,1.506,5.565s2.906.12,3.563,2.258a4.633,4.633,0,0,1-3.064,6.05" transform="translate(-1797.64 -365.3)" fill="none" stroke="#231815" stroke-miterlimit="10" stroke-width="0.25"/>
      <path id="Path_9266" data-name="Path 9266" d="M1889.326,414.748c0-1.565-7.47-5.277-9.764-6.38a17.353,17.353,0,0,0-32.533,1.18,10.537,10.537,0,0,0-11.223,13.118c-4.291,3.143-6.2,7.941-4.262,11.295,1.408,2.438,4.491,3.493,7.937,3.072a6.55,6.55,0,0,0,.247,5.619c2.139,3.707,8.155,4.242,13.434,1.194a15.328,15.328,0,0,0,2.759-2.032,8.437,8.437,0,0,0,15.74,2.571,5.918,5.918,0,0,0,2.9,2.11c2.878.915,6.112-.642,8.42-3.673.125.1.237.208.374.3a4.9,4.9,0,0,0,5.967-7.734c.94-.679,1.716-1.23,1.855-1.3C1891.571,433.88,1889.326,416.6,1889.326,414.748Z" transform="translate(-1830.787 -383.378)" fill="#fff6eb" stroke="#000" stroke-miterlimit="10" stroke-width="0.25"/>
      <path id="Path_9267" data-name="Path 9267" d="M1846.288,418.509s-.65-4.214,1.634-7.2,5.581-1.959,5.89,0c0,0,2.577-2.164,5.051-1.442s3.093,4.359,2.268,6.559" transform="translate(-1824.925 -378.793)" fill="none" stroke="#231815" stroke-miterlimit="10" stroke-width="0.25"/>
      <g id="Group_2791" data-name="Group 2791" transform="translate(42.403)">
        <path id="Path_9268" data-name="Path 9268" d="M1942.532,441.29a9.274,9.274,0,0,0-4.334-6.156,6.43,6.43,0,0,0-.9-11.57,8.729,8.729,0,0,0,3.673-9.423,8.912,8.912,0,0,0-6.276-6.95c1.286-3.423-.257-7.634-3.876-9.963a9.079,9.079,0,0,0-8.519-.87,13.021,13.021,0,0,0-12.243-7.865,13.656,13.656,0,0,0-8.784,3.135,9.36,9.36,0,0,0-16.022.254,8.081,8.081,0,0,0-14.013,5.5v.046A8.081,8.081,0,0,0,1867.2,411.9a7.427,7.427,0,0,0,1.728,14.648,11.256,11.256,0,0,0-.429,3.032c0,6.594,5.685,11.938,12.7,11.938a13.215,13.215,0,0,0,6.878-1.912c.689,6.068,6.915,10.82,14.5,10.82a16.642,16.642,0,0,0,8.835-2.461,12.928,12.928,0,0,0,12.516,8.614,13.937,13.937,0,0,0,6.005-1.35,3.67,3.67,0,1,0,6.188-3.608c.232-.025.464-.058.7-.106C1940.987,450.626,1943.546,446.049,1942.532,441.29Z" transform="translate(-1861.507 -387.234)" fill="#fff6eb" stroke="#000" stroke-miterlimit="10" stroke-width="0.25"/>
        <ellipse id="Ellipse_1440" data-name="Ellipse 1440" cx="3.575" cy="2.459" rx="3.575" ry="2.459" transform="translate(23.514 8.28)" fill="#dffffa" stroke="#231815" stroke-miterlimit="10" stroke-width="0.25"/>
        <ellipse id="Ellipse_1441" data-name="Ellipse 1441" cx="5.456" cy="3.528" rx="5.456" ry="3.528" transform="translate(34.521 12.42)" fill="#dffffa" stroke="#231815" stroke-miterlimit="10" stroke-width="0.25"/>
        <path id="Path_9269" data-name="Path 9269" d="M1878.148,411.771s-.754-5.173,3.575-6.867,6.773,4.24,6.773,4.24,3.363-4.146,7.325-3.017,4.058,6.4,4.058,6.4,4.14-1.788,6.962,1.317-.471,11.1-.471,11.1" transform="translate(-1855.198 -380.63)" fill="none" stroke="#231815" stroke-miterlimit="10" stroke-width="0.25"/>
        <path id="Path_9270" data-name="Path 9270" d="M1912.218,425.426s4.233-1.223,4.61-4.61a4.343,4.343,0,0,0-4.046-4.8s2.446-4.516.094-6.679-5.738,0-5.738,0-1.412-4.7-4.893-3.952-4.584,5.148-4.643,6.855" transform="translate(-1847.781 -380.362)" fill="none" stroke="#231815" stroke-miterlimit="10" stroke-width="0.25"/>
      </g>
    </g>
    <path id="Path_9271" data-name="Path 9271" d="M1916.628,473.612c15.894-5.325,20.18,7.4,34.465,4.416" transform="translate(99.269 108.567)" fill="none" stroke="#231815" stroke-miterlimit="10" stroke-width="0.25"/>
    <path id="Path_9272" data-name="Path 9272" d="M1947.117,477.854c.733.092,5.4,2.563,9.608,2.014" transform="translate(110.864 110.681)" fill="none" stroke="#231815" stroke-miterlimit="10" stroke-width="0.25"/>
  </g>
</svg>
