<svg id="圖層_1" data-name="圖層 1" xmlns="http://www.w3.org/2000/svg" viewBox="0 0 144.91 83.74"><defs><style>.cls-1{fill:#fff;opacity:0.8;}</style></defs><title>new</title><path class="cls-1" d="M138.44,14.59c-1-.76-2.07-1.62-3.21-2.66a33.66,33.66,0,0,1-4.87-5.57C126.65,1.1,122.26,0,119.23,0a15,15,0,0,0-7.32,2C97,5.1,94.8,15.72,94.55,20.25c-.39,1-.75,2-1.08,3.16a12.39,12.39,0,0,0-3.39-.47,14.85,14.85,0,0,0-6.18,1.44,17.4,17.4,0,0,0-5.08-5.31c-1-.76-2-1.61-3.18-2.65a33.66,33.66,0,0,1-4.87-5.57c-3.71-5.26-8.1-6.36-11.13-6.36a15,15,0,0,0-7.32,2C37.42,9.59,35.21,20.21,35,24.74a48.52,48.52,0,0,0-2.35,8.6l0,.12a12.18,12.18,0,0,0-5.2-1.14,15.09,15.09,0,0,0-7.31,2C5.18,37.42,3,48,2.72,52.56A47.81,47.81,0,0,0,.37,61.18l0,.18C-.38,65-1.44,77.14,14.63,81.71c1.06.3,2.12.57,3.15.81a42.43,42.43,0,0,0,9.5,1.22,20.23,20.23,0,0,0,9.09-1.88C47.3,77.65,53.09,69.67,53.09,58.78a17.09,17.09,0,0,0-.33-3.51,39.13,39.13,0,0,0,6.75.65,25,25,0,0,0,3.18-.19c.07,5,2.23,13.08,14.62,16.61,1.07.3,2.13.57,3.15.81A42.5,42.5,0,0,0,90,74.37a20.23,20.23,0,0,0,9.09-1.88c10.28-4,16-11.29,16.66-21.24a33.74,33.74,0,0,0,3.4.18,20.15,20.15,0,0,0,9.08-1.88c10.94-4.21,16.72-12.19,16.72-23.08C144.91,19.68,141.77,17.21,138.44,14.59Zm-11,32.66A17.56,17.56,0,0,1,119.14,49a35.52,35.52,0,0,1-5.82-.53c0,.29,0,.6,0,.92,0,9.92-5.08,16.91-15.09,20.78A17.59,17.59,0,0,1,90,72a44.59,44.59,0,0,1-12-2c-5.53-1.57-9.34-4.29-11.34-8.1a14.45,14.45,0,0,1-1.28-9.2,19.61,19.61,0,0,1-5.81.81,43.38,43.38,0,0,1-11.08-1.7c1.38,1.61,2.19,3.58,2.19,7,0,9.92-5.08,16.91-15.09,20.78a17.59,17.59,0,0,1-8.25,1.77,44.6,44.6,0,0,1-12-2C9.77,77.8,6,75.08,4,71.27a14.51,14.51,0,0,1-1.24-9.44l0-.23a44.54,44.54,0,0,1,2.37-8.51,17.38,17.38,0,0,1,1.12-5.66C9,40.34,15.75,37.65,21,36.64c.46-.3,7.57-4.76,13.71,1.23A15.76,15.76,0,0,1,35,34l0-.23a44.54,44.54,0,0,1,2.37-8.51,17.6,17.6,0,0,1,1.11-5.66C41.21,12.52,48,9.83,53.22,8.82c.5-.33,9.11-5.73,15.57,3.43a36.15,36.15,0,0,0,5.21,6h0c1.21,1.1,2.34,2,3.35,2.78,2.53,2,4.41,3.48,5.17,6.52l1.14-.24c.4-.27,6-3.74,11.45-.51a38.48,38.48,0,0,1,1.85-6,17.6,17.6,0,0,1,1.11-5.66c2.72-7.09,9.51-9.79,14.74-10.79.5-.33,9.11-5.73,15.57,3.43a36.15,36.15,0,0,0,5.21,6c1.2,1.1,2.34,2,3.35,2.78,3.34,2.63,5.55,4.36,5.55,10C142.49,36.39,137.4,43.38,127.39,47.25Z"/></svg>