<svg xmlns="http://www.w3.org/2000/svg" width="452.94" height="489.102" viewBox="0 0 452.94 489.102">
  <g id="Group_2715" data-name="Group 2715" transform="translate(0.065 0.133)">
    <path id="Path_8878" data-name="Path 8878" d="M0,0S9.261,4.609,22.826,1.388c16.884-4.01,23.636,4.677,33.5,3.054" transform="matrix(0.996, -0.087, 0.087, 0.996, 0, 310.193)" fill="none" stroke="#000" stroke-miterlimit="10" stroke-width="0.25"/>
    <path id="Path_8767" data-name="Path 8767" d="M1144.74,464.278s13.387-1.148,18.158,7.775c3.434,6.424,10.015,9.5,12.383-1.208a61.965,61.965,0,0,1,12.645-25.757S1151.125,456.1,1144.74,464.278Z" transform="translate(-744.25 -72.141)" fill="#dffffa" stroke="#231815" stroke-miterlimit="10" stroke-width="0.25"/>
    <circle id="Ellipse_1363" data-name="Ellipse 1363" cx="3.08" cy="3.08" r="3.08" transform="translate(423.608 413.937)" fill="#dffffa" stroke="#231815" stroke-miterlimit="10" stroke-width="0.25"/>
    <path id="Path_8768" data-name="Path 8768" d="M893.637,433.253s6.588,3.161,16.421-2.634,11.589,3.143,23.354,1.747" transform="translate(-847.207 -78.883)" fill="none" stroke="#000" stroke-miterlimit="10" stroke-width="0.25"/>
    <g id="Group_2704" data-name="Group 2704" transform="translate(34.559 0)">
      <path id="Path_8769" data-name="Path 8769" d="M1026.81,194.828s3.555.457,11.755-.993a23.91,23.91,0,0,1,14.486,2.005" transform="translate(-827.162 -175.305)" fill="none" stroke="#000" stroke-miterlimit="10" stroke-width="0.25"/>
      <g id="Group_2694" data-name="Group 2694">
        <g id="Group_2690" data-name="Group 2690" transform="translate(94.591 12.525)">
          <path id="Path_8770" data-name="Path 8770" d="M962.543,230.509l34.647-33.025,53.827-8.01,34.4,30.47,31.463,44.5,24.5,69.366,6.648,22.924L1012.1,363.251s-60.188-36.343-59.8-36.527S962.543,230.509,962.543,230.509Z" transform="translate(-952.303 -189.473)" fill="#a5b63d" stroke="#231815" stroke-miterlimit="10" stroke-width="0.25"/>
          <path id="Path_8771" data-name="Path 8771" d="M985.822,211.483a28.5,28.5,0,0,1,16.8,9.3c7.484,8.377,7.128,8.519,14.613,14.953s15.148,27.818,20.138,51.165,4.635,38.681.714,52.4l27.089,4.987s3.414-20.815-3.03-46.481c-5.672-22.584-12.119-40.489-26.376-59.023s-28.337-35.644-48.832-34.575Z" transform="translate(-938.559 -183.449)" fill="#ddd658" stroke="#000" stroke-linejoin="round" stroke-width="0.25"/>
          <path id="Path_8772" data-name="Path 8772" d="M982.656,232.445c13.705,13.532,37.884-.6,49.389,18" transform="translate(-939.857 -171.854)" fill="none" stroke="#231815" stroke-miterlimit="10" stroke-width="0.25"/>
          <path id="Path_8773" data-name="Path 8773" d="M975.028,246.225c22.9,23.939,57.25,3.469,70.456,52.047" transform="translate(-942.984 -166.204)" fill="none" stroke="#231815" stroke-miterlimit="10" stroke-width="0.25"/>
          <path id="Path_8774" data-name="Path 8774" d="M976.505,264.065c10.235,15.44,58.062,15.613,66.6,45.94" transform="translate(-942.379 -158.889)" fill="none" stroke="#231815" stroke-miterlimit="10" stroke-width="0.25"/>
          <path id="Path_8775" data-name="Path 8775" d="M1010.855,203.321c6.736,9.621.842,16.356,4.832,23.539" transform="translate(-928.295 -183.795)" fill="none" stroke="#231815" stroke-miterlimit="10" stroke-width="0.25"/>
          <path id="Path_8776" data-name="Path 8776" d="M1029.364,211.083c9.519,24.33,2.189,39.122,8.291,61.4" transform="translate(-920.706 -180.613)" fill="none" stroke="#231815" stroke-miterlimit="10" stroke-width="0.25"/>
          <path id="Path_8777" data-name="Path 8777" d="M1057.625,237.365c1.233,24.342-15.607,28.66-16.945,51.254" transform="translate(-916.066 -169.836)" fill="none" stroke="#231815" stroke-miterlimit="10" stroke-width="0.25"/>
          <path id="Path_8778" data-name="Path 8778" d="M1042.41,298.671c11.922-21.487,26.387-21.889,32.333-45.4" transform="translate(-915.356 -163.315)" fill="none" stroke="#231815" stroke-miterlimit="10" stroke-width="0.25"/>
        </g>
        <g id="Group_2693" data-name="Group 2693">
          <g id="Group_2691" data-name="Group 2691" transform="translate(0 15.3)">
            <path id="Path_8779" data-name="Path 8779" d="M888.043,254.41s6.249,9.281,5.455,18.507c-.723,8.425-2.293,16.383,3.028,16.431,5,.045,4.574-7.648,3.171-12.539-1.242-4.33-.288-7.773,2.126-8.824C901.823,267.984,904.536,253.89,888.043,254.41Z" transform="translate(-884.059 -165.628)" fill="#dffffa" stroke="#231815" stroke-miterlimit="10" stroke-width="0.25"/>
            <path id="Path_8780" data-name="Path 8780" d="M934.491,347.987s-2.6.58-7.679-3.466S915.706,343.768,912,333.9s.96-21.118-4.114-33.323-22.879-12.79-22.669-36.81,33.292-19.175,41.93-42.353,26.339-23.6,43.406-25.073,40-10.238,58.583,0c0,0,8.724,20.774-9.8,40.3-16.277,17.157-24.918,21.573-29.837,33.089-8.016,18.763,1.235,23.217-.84,31-1.686,6.327-6.785,10.273,2.107,18.8,0,0-19.254,19.492-20.523,20.252S934.491,347.987,934.491,347.987Z" transform="translate(-885.218 -191.441)" fill="#cad226" stroke="#231815" stroke-miterlimit="10" stroke-width="0.25"/>
            <path id="Path_8781" data-name="Path 8781" d="M948.6,215.358c2.878,4.155-10.024,7.108-15.491,21.324s-9.113,26.061-5.1,56.862,9.816,33.415,17.209,36.755l-14.293,6.987s-12.133-3.649-16.4-22.782c-4.557-20.413.729-28.979,2.733-51.213s4.722-24.969,13.3-36.268S946.963,212.988,948.6,215.358Z" transform="translate(-873.941 -181.957)" fill="#a5b63d" stroke="#231815" stroke-miterlimit="10" stroke-width="0.25"/>
            <ellipse id="Ellipse_1364" data-name="Ellipse 1364" cx="4.671" cy="3.858" rx="4.671" ry="3.858" transform="translate(65.734 13.918)" fill="#dffffa" stroke="#231815" stroke-miterlimit="10" stroke-width="0.25"/>
            <path id="Path_8782" data-name="Path 8782" d="M897.094,254.793s17.353-1.1,24.343,8.394" transform="translate(-880.348 -165.481)" fill="none" stroke="#231815" stroke-miterlimit="10" stroke-width="0.25"/>
            <path id="Path_8783" data-name="Path 8783" d="M895.782,237.022s18.914,3.814,28.317,18.14" transform="translate(-880.886 -172.751)" fill="none" stroke="#231815" stroke-miterlimit="10" stroke-width="0.25"/>
            <path id="Path_8784" data-name="Path 8784" d="M906.192,275.6s6.251,1.65,11.514,15.936" transform="translate(-876.618 -156.933)" fill="none" stroke="#231815" stroke-miterlimit="10" stroke-width="0.25"/>
            <path id="Path_8785" data-name="Path 8785" d="M923.564,288.628c1.778-37.082,36.44-27.611,50.762-62.07" transform="translate(-869.495 -177.042)" fill="none" stroke="#231815" stroke-miterlimit="10" stroke-width="0.25"/>
            <path id="Path_8786" data-name="Path 8786" d="M931.181,310.5c0-28.314,23.886-32.946,28.722-56.929" transform="translate(-866.372 -165.966)" fill="none" stroke="#231815" stroke-miterlimit="10" stroke-width="0.25"/>
            <path id="Path_8787" data-name="Path 8787" d="M915.372,266.217a5.688,5.688,0,0,1,5.062,3.078" transform="translate(-872.854 -160.782)" fill="none" stroke="#231815" stroke-miterlimit="10" stroke-width="0.25"/>
            <path id="Path_8788" data-name="Path 8788" d="M920.187,218.576s3.713,3.11,4.762,10.152" transform="translate(-870.88 -180.315)" fill="none" stroke="#231815" stroke-miterlimit="10" stroke-width="0.25"/>
            <path id="Path_8789" data-name="Path 8789" d="M967.135,221.048c-11.851,14.616-35.087,10.689-43.571,29.231" transform="translate(-869.495 -179.301)" fill="none" stroke="#231815" stroke-miterlimit="10" stroke-width="0.25"/>
          </g>
          <g id="Group_2692" data-name="Group 2692" transform="translate(86.075)">
            <path id="Path_8790" data-name="Path 8790" d="M948.182,236.27a58.738,58.738,0,0,0-1.289-11.359c-1.393-7.177-1.076-19.1,7.284-28.279,11.062-12.15,27.323-17.016,42.394-15.882s20.092,6.968,45.7,3.4,30.463,13.611,48.451,18.635,27.385,17.986,37.269,27.71,22.524,15.393,29.005,37.594,13.137,51.481-3.866,90.654c0,0-11.021-6.172-19.208-23.176s-11.651-22.357-13.855-30.86.4-15.482-5.9-21.638-6.449-4.836-9.527-14.364-7.182-5.278-16.122-12.605-14.657-8.941-13.192-19.495.733-18.76-5.423-24.038-8.291-8.7-10.065-12.456a23.718,23.718,0,0,0-8.593,1.657c-15.523,5.907-18.7,3.973-32.013,8.573-10.115,3.5-17.357,5.818-26.93,11.586-12.374,7.458-23.8,4.279-30.9,6.994S952.088,234.677,948.182,236.27Z" transform="translate(-946.264 -180.59)" fill="#ddd658" stroke="#000" stroke-linejoin="round" stroke-width="0.25"/>
            <path id="Path_8791" data-name="Path 8791" d="M955.691,214.676s8.514-3.918,17.3-15.2c8.236-10.577,20.733-17.309,29.306-17.751" transform="translate(-942.398 -180.123)" fill="none" stroke="#231815" stroke-miterlimit="10" stroke-width="0.25"/>
            <path id="Path_8792" data-name="Path 8792" d="M982.718,203.671s8.514-1.622,19.189-10.271,14.867-9.551,14.867-9.551" transform="translate(-931.317 -179.254)" fill="none" stroke="#231815" stroke-miterlimit="10" stroke-width="0.25"/>
            <path id="Path_8793" data-name="Path 8793" d="M1012.141,191.722a30.39,30.39,0,0,1,20.684-7.734" transform="translate(-919.252 -179.196)" fill="none" stroke="#231815" stroke-miterlimit="10" stroke-width="0.25"/>
            <ellipse id="Ellipse_1365" data-name="Ellipse 1365" cx="3.111" cy="4.405" rx="3.111" ry="4.405" transform="matrix(0.037, -0.999, 0.999, 0.037, 139.795, 35.396)" fill="#dffffa" stroke="#231815" stroke-miterlimit="10" stroke-width="0.25"/>
            <ellipse id="Ellipse_1366" data-name="Ellipse 1366" cx="3.755" cy="7.186" rx="3.755" ry="7.186" transform="translate(152.775 47.007) rotate(-76.601)" fill="#dffffa" stroke="#231815" stroke-miterlimit="10" stroke-width="0.25"/>
            <path id="Path_8794" data-name="Path 8794" d="M1054.37,219.508c13.647,14.89,40.944,8.841,58.754,34.2" transform="translate(-901.938 -164.633)" fill="none" stroke="#231815" stroke-miterlimit="10" stroke-width="0.25"/>
            <path id="Path_8795" data-name="Path 8795" d="M1067.679,236.227c9.663,12.787,38.618,11.478,46.072,41.576" transform="translate(-896.481 -157.778)" fill="none" stroke="#231815" stroke-miterlimit="10" stroke-width="0.25"/>
          </g>
        </g>
      </g>
      <g id="Group_2703" data-name="Group 2703" transform="translate(247.838 34.993)">
        <g id="Group_2695" data-name="Group 2695" transform="translate(31.727)">
          <path id="Path_8796" data-name="Path 8796" d="M1116.317,238.7l-2.2-9.134c.083-13.612-6.142-20.313-8.976-19.447s-3.622,4.645-1.417,11.338a17.532,17.532,0,0,0,7.085,9.447s3.9,9.668,3.844,9.936Z" transform="translate(-1075.714 -203.505)" fill="#fbc6a6" stroke="#000" stroke-linejoin="round" stroke-width="0.25"/>
          <path id="Path_8797" data-name="Path 8797" d="M1119.521,225.366l6.126-2.549a10.589,10.589,0,0,1,7.006-5.953c6.99-2.126,10.345,4.473,3.859,7.867a13.428,13.428,0,0,1-10.158,1.108l-7.873,2.441Z" transform="translate(-1069.14 -200.879)" fill="#fbc6a6" stroke="#000" stroke-linejoin="round" stroke-width="0.25"/>
          <path id="Path_8798" data-name="Path 8798" d="M1094.241,357.017l9-43.556s-8.491-16.83-19.753-20.688l10.953-6.8s2.275,16.1,10.791,22.422c0,0,7.859-36.945,14.272-62.12,0,0-2.91-5.465-6.864-7.714-4.584-2.609-9.132-2.575-11.79-8.968s4.416-10.369,9.632-2.989c3.952,5.595,1.959,9.145,10.627,15.942,0,0,1.744-3.737,2.325-11.126s3.4-11.54,7.141-14.2,10.129.581,6.559,6.643-10.144,9.936-13.8,20.149c0,0,9.4-5.619,18.2-6.865a13.839,13.839,0,0,1,7.472-5.4c4.734-1.162,8.469,1.079,8.3,4.4s-4.817,6.559-15.028,4.4c0,0-8.387,0-14.2,6.31,0,0-7.239,18.289-12.022,35.607s-7.834,40.672-7.834,40.672,5.457-1.747,7.015-2.816a13.314,13.314,0,0,1,9.56-5.45c5.56-.6,9.283,2.264,8.969,6.1-.33,4.01-9.8,7.723-18.165,3.115,0,0-5.03.364-7.972,3.759,0,0-3.835,17.886-5.125,26.789Z" transform="translate(-1083.488 -200.945)" fill="#ea6157" stroke="#000" stroke-linejoin="round" stroke-width="0.25"/>
          <path id="Path_8799" data-name="Path 8799" d="M1110.093,247.542l2.2-5.926s-1.922-4.016,1.27-8.913c3.224-4.949,9.422-4.829,9.4,0s-5.079,8.659-7.449,9.76l-3.387,5.757" transform="translate(-1072.579 -195.719)" fill="#ea6157" stroke="#000" stroke-linejoin="round" stroke-width="0.25"/>
          <path id="Path_8800" data-name="Path 8800" d="M1116.5,226.893a45.245,45.245,0,0,0-.829-4.873c-.116-.235-2.714-1.338-3.345-6.85s1-9.75,4.174-9.763c3.385-.011,6.508,8.707,2.309,16.281l-.341,4.819" transform="translate(-1071.72 -205.407)" fill="#ea6157" stroke="#000" stroke-linejoin="round" stroke-width="0.25"/>
        </g>
        <g id="Group_2697" data-name="Group 2697" transform="translate(55.024 59.882)">
          <path id="Path_8801" data-name="Path 8801" d="M1117.815,262.1s2.478,13.9,12.021,18.054,12.365-7.136,7.3-13.526C1132.633,260.941,1125.143,259.1,1117.815,262.1Z" transform="translate(-1092.711 -242.628)" fill="#fbc6a6" stroke="#000" stroke-linejoin="round" stroke-width="0.25"/>
          <path id="Path_8802" data-name="Path 8802" d="M1115.916,268.545c-.562-.11.5-10.135,5.468-16.307s15.926-6.087,18.083,2.128S1131.2,271.521,1115.916,268.545Z" transform="translate(-1093.545 -247.876)" fill="#fbc6a6" stroke="#000" stroke-linejoin="round" stroke-width="0.25"/>
          <path id="Path_8803" data-name="Path 8803" d="M1101.9,275.632a46.449,46.449,0,0,0,11.414-12.006l8.288,1.689-.137,6.081-7.084,6.05s-4.289-2.689-11.2,3.017" transform="translate(-1099.235 -241.418)" fill="#ea6157" stroke="#000" stroke-linejoin="round" stroke-width="0.25"/>
          <path id="Path_8804" data-name="Path 8804" d="M1102.531,252.947c4.231-5.726,14.024-5.312,18.5.912a23.072,23.072,0,0,1,4.079,16.516s-10.386,5.062-20.1-1.74C1097.752,263.545,1099.764,256.69,1102.531,252.947Z" transform="translate(-1100.01 -247.453)" fill="#fbc6a6" stroke="#000" stroke-linejoin="round" stroke-width="0.25"/>
          <path id="Path_8805" data-name="Path 8805" d="M1123.508,263.626s8.173,8.009,3.776,19.386c-4.842,12.531-19.876,9.793-20.705-1.493C1105.884,272.061,1112.738,266.115,1123.508,263.626Z" transform="translate(-1097.337 -241.418)" fill="#fbc6a6" stroke="#000" stroke-linejoin="round" stroke-width="0.25"/>
          <g id="Group_2696" data-name="Group 2696" transform="translate(22.37 15.911)">
            <circle id="Ellipse_1367" data-name="Ellipse 1367" cx="2.735" cy="2.735" r="2.735" transform="translate(0 3.562)" fill="#cad226" stroke="#231815" stroke-miterlimit="10" stroke-width="0.25"/>
            <circle id="Ellipse_1368" data-name="Ellipse 1368" cx="2.051" cy="2.051" r="2.051" transform="translate(7.007 1.169)" fill="#cad226" stroke="#231815" stroke-miterlimit="10" stroke-width="0.25"/>
            <circle id="Ellipse_1369" data-name="Ellipse 1369" cx="2.849" cy="2.849" r="2.849" transform="translate(4.729 4.758)" fill="#cad226" stroke="#231815" stroke-miterlimit="10" stroke-width="0.25"/>
            <circle id="Ellipse_1370" data-name="Ellipse 1370" cx="2.081" cy="2.081" r="2.081" transform="translate(0.795)" fill="#cad226" stroke="#231815" stroke-miterlimit="10" stroke-width="0.25"/>
            <circle id="Ellipse_1371" data-name="Ellipse 1371" cx="2.108" cy="2.108" r="2.108" transform="translate(3.361 2.081)" fill="#cad226" stroke="#231815" stroke-miterlimit="10" stroke-width="0.25"/>
          </g>
        </g>
        <g id="Group_2698" data-name="Group 2698" transform="translate(74.007 102.272)">
          <path id="Path_8806" data-name="Path 8806" d="M1122.037,325.3s.454-9.392-2.022-13.7a13.066,13.066,0,0,1-6.307-8.418c-1.678-6.275,6.175-8.346,8.363-2.682a15.577,15.577,0,0,1,.26,10.712,26.909,26.909,0,0,1,1.245,11.265S1127.573,326.071,1122.037,325.3Z" transform="translate(-1113.474 -270.047)" fill="#fbc6a6" stroke="#000" stroke-linejoin="round" stroke-width="0.25"/>
          <path id="Path_8807" data-name="Path 8807" d="M1113.474,351.423s12.263-29.555,18.222-37.4c0,0-1.34-5.784-3.026-7.229,0,0-7.056-2.757-8.55-8.65s3.728-9.35,7.907-5.492,3.052,12.776,3.052,12.776,1.287,4.1,3.3,5.787a56.882,56.882,0,0,0,8.758-11.974s.563-3.938,0-5.785c0,0-3.937-2.411-3.937-9.4s7.795-8.6,9.24-1.607-2.008,10.688-2.008,10.688-.643,3.374.161,5.464c0,0,7.393-2.974,14.945-2.009s7.473,10.526-3.133,8.92-14.464,2.57-14.464,2.57l-4.584,5.1s5.182,3.411,8.235,3.706c0,0,6.595.1,9.942,3.742s1.575,9.488-3.052,8.731-7.929-5.768-8.946-9.362c0,0-4.972-3.222-8.124-3.765a66.262,66.262,0,0,0-10.549,15.56c-5.036,9.98-11.462,19.953-11.462,19.953Z" transform="translate(-1113.474 -277.939)" fill="#ea6157" stroke="#000" stroke-linejoin="round" stroke-width="0.25"/>
          <path id="Path_8808" data-name="Path 8808" d="M1135.59,301.415s1.458-3.57,3.085-4.994a11.92,11.92,0,0,1,4.612-7.6c4-2.779,9.221-2.373,10.646,0s-.438,9.3-13.477,9.3a8.73,8.73,0,0,0-2.392,4.2" transform="translate(-1104.406 -274.269)" fill="#fbc6a6" stroke="#000" stroke-linejoin="round" stroke-width="0.25"/>
          <path id="Path_8809" data-name="Path 8809" d="M1130.085,303.195l3.323-1.357a9.172,9.172,0,0,1,5.492-5.221c4.137-1.356,6.985.272,7.392,2.305s-2.239,6.507-12,4.949l-3.662,1.426" transform="translate(-1106.663 -270.485)" fill="#ea6157" stroke="#000" stroke-linejoin="round" stroke-width="0.25"/>
        </g>
        <g id="Group_2699" data-name="Group 2699" transform="translate(78.295 148.159)">
          <path id="Path_8810" data-name="Path 8810" d="M1141.166,325.118s6.331-2.875,10.09-1.4a5.955,5.955,0,0,1,3.827,7.318c-.671,2.483-4.3,5.438-10.2,3.222S1141.166,325.118,1141.166,325.118Z" transform="translate(-1106.571 -305.229)" fill="#fbc6a6" stroke="#000" stroke-linejoin="round" stroke-width="0.25"/>
          <path id="Path_8811" data-name="Path 8811" d="M1131.827,328.193s15.86-20.668,23.834-14.233c6.982,5.634-4.3,17.448-13.294,19.3,0,0-10.07-2.111-10.07-2.312S1131.827,328.193,1131.827,328.193Z" transform="translate(-1110.237 -309.567)" fill="#fbc6a6" stroke="#000" stroke-linejoin="round" stroke-width="0.25"/>
          <path id="Path_8812" data-name="Path 8812" d="M1128.638,327.818s5.533-2.593,7.332-10.24c1.517-6.447,6.53-8.081,9.733-6.574,4.3,2.023,4.9,12.961-12.593,19.534Z" transform="translate(-1111.544 -310.483)" fill="#fbc6a6" stroke="#000" stroke-linejoin="round" stroke-width="0.25"/>
          <path id="Path_8813" data-name="Path 8813" d="M1131.188,325.205s11.682-2.693,18.4,3.185,4.1,15.211-3.156,13.33c-7.917-2.053-7.648-8.728-17.789-11.682Z" transform="translate(-1111.544 -304.7)" fill="#fbc6a6" stroke="#000" stroke-linejoin="round" stroke-width="0.25"/>
          <path id="Path_8814" data-name="Path 8814" d="M1116.515,327.934c.22.162,5.124.563,11.026-3.36,6.524-4.336,12.641-3.666,13.725.606,1.049,4.136-3.642,8.357-12.036,6.5s-11.41-.233-11.41-.233Z" transform="translate(-1116.515 -305.913)" fill="#ea6157" stroke="#000" stroke-linejoin="round" stroke-width="0.25"/>
        </g>
        <g id="Group_2700" data-name="Group 2700" transform="translate(8.328 105.35)">
          <path id="Path_8815" data-name="Path 8815" d="M1069.947,299.591s-3.8-3.579-2.92-8.092a8.679,8.679,0,0,1,6.424-6.693L1083.6,295.35Z" transform="translate(-1066.894 -278.202)" fill="#fbc6a6" stroke="#000" stroke-linejoin="round" stroke-width="0.25"/>
          <path id="Path_8816" data-name="Path 8816" d="M1084.173,301.6a8.247,8.247,0,0,1,7.741-5.482s3.686,11.435,8.445,14.111l-3.041,2.775S1090.638,304.045,1084.173,301.6Z" transform="translate(-1059.809 -273.563)" fill="#ea6157" stroke="#000" stroke-linejoin="round" stroke-width="0.25"/>
          <path id="Path_8817" data-name="Path 8817" d="M1071.81,294.193a9.343,9.343,0,0,1,.935-9.609c3.174-4.32,9.22-2.719,9.22-2.719s11.421,11.545,8.36,19.051C1090.325,300.916,1075.88,299.585,1071.81,294.193Z" transform="translate(-1065.255 -279.526)" fill="#fbc6a6" stroke="#000" stroke-linejoin="round" stroke-width="0.25"/>
          <path id="Path_8818" data-name="Path 8818" d="M1089.962,305.879a51.841,51.841,0,0,1-10.793-13.832c-4.842-8.859,3.435-15.107,9.124-10.2s6.27,20.833,6.27,20.833Z" transform="translate(-1062.459 -280.122)" fill="#fbc6a6" stroke="#000" stroke-linejoin="round" stroke-width="0.25"/>
          <path id="Path_8819" data-name="Path 8819" d="M1069.488,302.184c-.1-.2-1.555-5.176,1.275-9.238,3.334-4.79,14.42-8.027,22.759,9.238l-2.747,4.316Z" transform="translate(-1066.02 -276.427)" fill="#fbc6a6" stroke="#000" stroke-linejoin="round" stroke-width="0.25"/>
        </g>
        <g id="Group_2702" data-name="Group 2702" transform="translate(0 45.445)">
          <path id="Path_8820" data-name="Path 8820" d="M1060.99,256.659c.139-6.9,8.288-9.687,14.378-8.213,6.7,1.621,14.912,10.161,18.091,23.991C1093.459,272.437,1060.653,273.4,1060.99,256.659Z" transform="translate(-1060.987 -233.363)" fill="#fbc6a6" stroke="#000" stroke-linejoin="round" stroke-width="0.25"/>
          <path id="Path_8821" data-name="Path 8821" d="M1087.631,277.674c-.432-.431-12.772-13.054-12.425-26.792.386-15.234,17.46-18.072,19.189-4.605S1087.631,277.674,1087.631,277.674Z" transform="translate(-1055.16 -237.637)" fill="#fbc6a6" stroke="#000" stroke-linejoin="round" stroke-width="0.25"/>
          <g id="Group_2701" data-name="Group 2701" transform="translate(15.711 17.964)">
            <ellipse id="Ellipse_1372" data-name="Ellipse 1372" cx="2.978" cy="10.606" rx="2.978" ry="10.606" transform="translate(10.456 2.141) rotate(-21.073)" fill="#cad226" stroke="#231815" stroke-miterlimit="10" stroke-width="0.25"/>
            <ellipse id="Ellipse_1373" data-name="Ellipse 1373" cx="3.013" cy="10.482" rx="3.013" ry="10.482" transform="translate(0 12.459) rotate(-50.071)" fill="#cad226" stroke="#231815" stroke-miterlimit="10" stroke-width="0.25"/>
            <ellipse id="Ellipse_1374" data-name="Ellipse 1374" cx="2.993" cy="10.551" rx="2.993" ry="10.551" transform="matrix(0.818, -0.575, 0.575, 0.818, 2.877, 4.581)" fill="#cad226" stroke="#231815" stroke-miterlimit="10" stroke-width="0.25"/>
          </g>
          <path id="Path_8822" data-name="Path 8822" d="M1096.121,274.175s-3.017-10.158-11.868-12.773-16.194.6-16.194,7.4c0,4.326,4.251,8.473,13.761,8.092C1091.9,276.489,1096.121,274.175,1096.121,274.175Z" transform="translate(-1058.087 -228.265)" fill="#fbc6a6" stroke="#000" stroke-linejoin="round" stroke-width="0.25"/>
          <path id="Path_8823" data-name="Path 8823" d="M1086.877,279.853s-3.583-9.035-1.63-18.243c1.37-6.464,5.495-14.418,11.359-12.346,4.143,1.462,3.959,7.209-.956,15.737a13.9,13.9,0,0,0-1.423,9.759A12.488,12.488,0,0,1,1086.877,279.853Z" transform="translate(-1051.28 -233.007)" fill="#fbc6a6" stroke="#000" stroke-linejoin="round" stroke-width="0.25"/>
        </g>
      </g>
    </g>
    <g id="Group_2705" data-name="Group 2705" transform="translate(188.952 156.861)">
      <path id="Path_8824" data-name="Path 8824" d="M994.715,305.58s1.2,10.258,11.049,11.208c0,0,51.557,2.242,52.2,2.4s64.208,35.547,64.848,35.867,16.813,18.657,16.813,18.657l35.706-6.648,3.842-8.646a34.631,34.631,0,0,0-16.652-20.816c-13.77-7.685-19.2-23.067-31.383-31.063s-28.82-5.444-44.193-8.646-22.029-8.8-44.193-4.484C1023.857,297.093,1023.376,306.7,994.715,305.58Z" transform="translate(-994.715 -291.837)" fill="#a5b63d" stroke="#231815" stroke-miterlimit="10" stroke-width="0.25"/>
      <path id="Path_8825" data-name="Path 8825" d="M1041.629,291.923s5.561.691,18.672,17.206" transform="translate(-975.48 -291.802)" fill="none" stroke="#231815" stroke-miterlimit="10" stroke-width="0.25"/>
      <path id="Path_8826" data-name="Path 8826" d="M1075.559,297.822s2.344,1.141,3.58,11.069,5.4,15.365,5.4,15.365" transform="translate(-961.568 -289.383)" fill="none" stroke="#231815" stroke-miterlimit="10" stroke-width="0.25"/>
      <path id="Path_8827" data-name="Path 8827" d="M1099.015,308.1c.419,18.234-4.742,26.046-3.731,37.138" transform="translate(-953.534 -285.171)" fill="none" stroke="#231815" stroke-miterlimit="10" stroke-width="0.25"/>
      <path id="Path_8828" data-name="Path 8828" d="M1115.373,329.7c-1.643,10.18-8.75,12.47-11.8,22.181" transform="translate(-950.08 -276.312)" fill="none" stroke="#231815" stroke-miterlimit="10" stroke-width="0.25"/>
    </g>
    <g id="Group_2706" data-name="Group 2706" transform="translate(43.419 129.442)">
      <path id="Path_8829" data-name="Path 8829" d="M1047.717,507.389A32.779,32.779,0,0,1,1023.8,514.3c-14.461-1.555-16.593-8.157-34.031-9.365s-29.412,7.033-41.852,5.478-12.6-15.395-31.566-21.148-27.834-8.553-23.946-27.679,16.793-30.322,14.151-47.427-9.642-24.1-10.109-35.142,3.888-16.975,5.133-30.957,6.672-18.161,17.882-25.8c10.192-6.946,18.976-10.656,35.925-19.362s22.68-9.362,32.805-16.558c12.642-8.985,18.164-14.822,28.456-13.839,9.728.929,13.372,14.773,28.145,20.214s19.9,10.108,20.526,24.57S1047.717,507.389,1047.717,507.389Z" transform="translate(-891.502 -272.392)" fill="#ddd658" stroke="#000" stroke-linejoin="round" stroke-width="0.25"/>
      <path id="Path_8830" data-name="Path 8830" d="M910.243,344.551c15.595,7.028,31.876-4.769,47.331,0" transform="translate(-883.818 -243.286)" fill="none" stroke="#231815" stroke-miterlimit="10" stroke-width="0.25"/>
      <path id="Path_8831" data-name="Path 8831" d="M915.545,328.067c1.867-5.744,51.271,12.5,71.234,28.15l-2.155,23.265s-4.165-9.622-16.947-19.388-28.209-19.8-39.495-23.984C919.455,332.872,914.506,331.265,915.545,328.067Z" transform="translate(-881.7 -250.008)" fill="#cad226" stroke="#231815" stroke-miterlimit="10" stroke-width="0.25"/>
      <path id="Path_8832" data-name="Path 8832" d="M923.192,314.794c8.412,5.608,6.229,13.515,21.969,25.894" transform="translate(-878.508 -255.006)" fill="none" stroke="#231815" stroke-miterlimit="10" stroke-width="0.25"/>
      <path id="Path_8833" data-name="Path 8833" d="M954.312,300.675c12.9,18.365,10.035,45.078,16.022,57.586" transform="translate(-865.749 -260.795)" fill="none" stroke="#231815" stroke-miterlimit="10" stroke-width="0.25"/>
      <ellipse id="Ellipse_1375" data-name="Ellipse 1375" cx="6.255" cy="3.715" rx="6.255" ry="3.715" transform="translate(74.404 47.591)" fill="#dffffa" stroke="#231815" stroke-miterlimit="10" stroke-width="0.25"/>
      <ellipse id="Ellipse_1376" data-name="Ellipse 1376" cx="3.435" cy="2.593" rx="3.435" ry="2.593" transform="translate(58.983 42.404)" fill="#dffffa" stroke="#231815" stroke-miterlimit="10" stroke-width="0.25"/>
      <path id="Path_8834" data-name="Path 8834" d="M977.676,296.1c5.468,7.29-.358,19.35,4.8,30.562" transform="translate(-856.169 -262.67)" fill="none" stroke="#231815" stroke-miterlimit="10" stroke-width="0.25"/>
      <path id="Path_8835" data-name="Path 8835" d="M910.243,368.347c18.25,11.461,55.686-6.093,72.761,2.52" transform="translate(-883.818 -233.048)" fill="none" stroke="#231815" stroke-miterlimit="10" stroke-width="0.25"/>
      <path id="Path_8836" data-name="Path 8836" d="M907.445,409.78c27.493,5.3,55.324-18.3,71.478-13.3" transform="translate(-884.965 -221.802)" fill="none" stroke="#231815" stroke-miterlimit="10" stroke-width="0.25"/>
      <path id="Path_8837" data-name="Path 8837" d="M940.348,429.983c20.046,1,34.837-15.53,43.336-10.629" transform="translate(-871.474 -212.508)" fill="none" stroke="#231815" stroke-miterlimit="10" stroke-width="0.25"/>
      <ellipse id="Ellipse_1377" data-name="Ellipse 1377" cx="5.67" cy="2.937" rx="5.67" ry="2.937" transform="translate(58.648 116.493)" fill="#dffffa" stroke="#231815" stroke-miterlimit="10" stroke-width="0.25"/>
    </g>
    <g id="Group_2708" data-name="Group 2708" transform="translate(137.099 163.642)">
      <g id="Group_2707" data-name="Group 2707">
        <path id="Path_8838" data-name="Path 8838" d="M1155.3,424.259c-3.174-21.288.662-47.791,0-58.129s-4.9-21.871-13.254-32.739-17.364-12.724-32.606-18.291-15.774-11.533-27.437-13.256-14.182-6.892-28.5-4.639-27.568,12.592-33.8,15.9-14.608,2.786-27.228,11.884-18.525,21.332-23.01,33.12-3.33,30.236-6.021,42.151-7.175,26.009-4.869,39.462,7.816,17.3,14.478,25.241,11.658,16.783,16.527,24.216,13.325,7.943,18.322,9.224,7.816,3.587,15.375,4.484c3.67.436,8.55,1.193,13.364,1.733a24.9,24.9,0,0,1-.4-5.864c.571-15.445,4.575-38.613,7.437-55.2s5.434-31.462,9.152-42.616,7.36-18.9,10.894-18.02c3.871.966,2.55,6.293,6.268,16.589s.573,34.036,0,70.075c-.261,16.4-.169,27.16-1.175,34.031,6.165.134,11.392.594,20.324-.766,15.981-2.432,26.435-5.017,45.532-15.976S1158.474,445.549,1155.3,424.259Z" transform="translate(-957.94 -296.646)" fill="#a5b63d" stroke="#231815" stroke-miterlimit="10" stroke-width="0.25"/>
      </g>
      <path id="Path_8839" data-name="Path 8839" d="M1045,349.217c1.678-1.516,3.9,1.129,5.237,5.338s5.235,8.009,4.106,14.272-8.007,7.906-13.141,8.11-13.451-.1-18.071-6.981-2.967-13.106.336-17.058c3.977-4.762,11.837-6.679,13.752-5.017,1.792,1.554.595,3.594-1.767,3.8s-5.647-.616-8.009,1.951-3.594,7.084-1.232,9.24,3.9,1.849,5.134,4.518,4.415,2.875,8.112,2.772,8.932-.307,9.035-6.365-.529-6.572-2.267-9.241S1044.068,350.057,1045,349.217Z" transform="translate(-932.379 -275.881)" fill="none" stroke="#000" stroke-miterlimit="10" stroke-width="0.25"/>
      <path id="Path_8840" data-name="Path 8840" d="M1043.143,498.975s-14.788,2.425-24-2.909S998.775,494.55,992.99,483.7s-13.741-17.5-21.695-30.084-12.15-25.456-9.113-38.185,5.785-18.659,6.8-32.254,2.514-32.884,17.318-45.924c13-11.454,20.289-16.994,33.741-19.307s24.877-18.224,39.919-17.935,25.168,7.232,33.123,14.32,15.839,9.206,29.361,10.847,24.155,20.973,25.89,38.908-1.772,40.307,0,59.259,2.6,40.1-15.8,54.107-30.487,15.657-43.671,18.677-17.692-.67-28.839,3.4S1043.143,498.975,1043.143,498.975Z" transform="translate(-956.608 -295.268)" fill="#cad226" stroke="#231815" stroke-miterlimit="10" stroke-width="0.25"/>
      <path id="Path_8841" data-name="Path 8841" d="M1068.937,322.148c1.258-2.762-1.578-4.732-8.02-5.916s-20.9-.657-32.079,2.1-11.569,5.522-20.247,9.334-16.96,6.18-24.585,18.538-10.123,21.3-11.7,36.944.526,24.585-.657,33.657.657,16.3,4.732,24.98,4.47,16.96,16.04,25.111,14.987,9.2,24.059,14.066,18.714,4.144,34.574,5.9,23.591-3.865,39.052-6.325,31.625-12.649,39-23.543,12.3-60.9,5.974-81.931-20.029-28.4-31.626-39.65-19.868-18.578-23.258-15.427,6.364,7.551,11.239,11.951,11.891,11.238,16.589,16.47,15.042,16.63,18.031,29.736,6.834,51.261-11.767,73.287-39.63,23.251-56.036,23.74-31.337-2.692-47.735-17.621-25.943-30.348-28.88-50.173.98-40.383,13.705-57.515,26.434-23.251,38.915-25.943,16.128-3.182,23.238-1.713S1067.827,324.586,1068.937,322.148Z" transform="translate(-952.465 -288.86)" fill="#a5b63d" stroke="#231815" stroke-miterlimit="10" stroke-width="0.25"/>
      <path id="Path_8842" data-name="Path 8842" d="M1057.654,331.071c1.984-3.305-5-4.794-11.151-5s-16.463,2.084-26.362,6.045-16.465,7.294-23.759,17.505-10.316,35.324-8.647,47.1,8.336,30.009,19.589,38.137,22.079,12.81,37.171,14.666,31.051-4.083,43.3-15.959,16.143-14.66,18-31.545-3.154-32.659-7.793-44.535-8.75-17.38-18.842-23.212c-8.605-4.972-14.906-5.341-15.691-2.561-.747,2.652,5.7,5.038,13.626,8.175s14.616,11.313,19.158,23.864,5.062,21.377,2.868,33.4-8.446,18.5-17.771,24.31a51.473,51.473,0,0,1-29.651,8.117c-10.608-.33-23.661-4.826-30.681-10.75s-12.067-8.666-18.649-23.585-3.181-25.778.33-35.541,9.213-18.429,18.757-22.487,12.176-5.485,21.61-5.375S1056.336,333.265,1057.654,331.071Z" transform="translate(-945.907 -284.588)" fill="#a5b63d" stroke="#231815" stroke-miterlimit="10" stroke-width="0.25"/>
      <path id="Path_8843" data-name="Path 8843" d="M1046.881,337.195c.921,3.039-3.971,3.1-6.977,3.777s-12.18,3.237-17.307,6.205-4.047,7.826-7.015,12.277-2.159,21.046,5.127,29.005,9.443,5.936,16.053,11.063,16.844,3.508,24.476-1.349,7.094-10.658,9.386-18.887-1.214-17.538-3.913-24.823-7.338-8.758-11.221-10.864-4.409-4.935-3.686-5.725,1.974-.461,6.121,3.027,10.808,5.708,14.5,13.625,2.955,10.555,5.49,16.889,5.7,20.251-1.689,32.186-25.334,10.458-35.679,8.98-14.567-.949-19.844-10.028-10.028-11.4-14.04-19.423-3.694-19.95,1.795-27.866,8.656-7.917,14.039-12.668,10.94-3.273,15.709-4.223S1046.141,334.747,1046.881,337.195Z" transform="translate(-939.073 -280.432)" fill="#a5b63d" stroke="#231815" stroke-miterlimit="10" stroke-width="0.25"/>
      <path id="Path_8844" data-name="Path 8844" d="M1047.234,374.443c-3.719-10.3-2.4-15.623-6.267-16.589-3.534-.881-7.176,6.865-10.894,18.02s-6.293,26.028-9.152,42.616-6.866,39.757-7.437,55.2a24.907,24.907,0,0,0,.4,5.864c5.1.572,10.128.9,13.556.344a94.443,94.443,0,0,1,18.623-1.352c1.005-6.871.914-17.631,1.175-34.031C1047.807,408.479,1050.953,384.74,1047.234,374.443Z" transform="translate(-935.176 -271.578)" fill="#ddd658" stroke="#000" stroke-linejoin="round" stroke-width="0.25"/>
    </g>
    <g id="Group_2711" data-name="Group 2711" transform="translate(276.301 218.09)">
      <g id="Group_2709" data-name="Group 2709" transform="translate(30.221)">
        <path id="Path_8845" data-name="Path 8845" d="M1080.973,403.984s2.167-6.337-1.858-17.835,4.923-19,9.141-26.321,6.72-14.09,19.01-11.345,17.964,1.1,25.466-5.856,12.152-7.845,16.213-7.184,5.383,4.911,10.672,7.084,4.344,6.423,1.889,10.106-39.84,29.28-39.84,29.28l-33.41,23.349Z" transform="translate(-1078.098 -335.262)" fill="#ddd658" stroke="#000" stroke-linejoin="round" stroke-width="0.25"/>
        <path id="Path_8846" data-name="Path 8846" d="M1090.412,361.515a12.028,12.028,0,0,1,3.688,8.507" transform="translate(-1073.049 -324.498)" fill="none" stroke="#231815" stroke-miterlimit="10" stroke-width="0.25"/>
        <path id="Path_8847" data-name="Path 8847" d="M1096.574,353.472s4.389,5.4,4.756,14.817" transform="translate(-1070.522 -327.795)" fill="none" stroke="#231815" stroke-miterlimit="10" stroke-width="0.25"/>
        <path id="Path_8848" data-name="Path 8848" d="M1110.308,349.9s2.744,8.689-1.28,15" transform="translate(-1065.416 -329.258)" fill="none" stroke="#231815" stroke-miterlimit="10" stroke-width="0.25"/>
      </g>
      <g id="Group_2710" data-name="Group 2710" transform="translate(0 15.433)">
        <path id="Path_8849" data-name="Path 8849" d="M1232.7,438.012c-1.744-20.923-7.248-23.842-19.788-39.557s-12.064-33.653-26.668-45.4-27.621-6.509-39.05,1.746-16.576,10.543-31.458,15.949-19.031,15.261-24.118,24.9-5.086,15.685-10.915,27.236-2.9,17.725-2.958,23.528-4.99,13.247-8.594,18.016-3.5,7.312-6.252,13.034-7.675,6.063-5.829,9.433c2.506,4.571,19.724,2.837,19.724,2.837a114.4,114.4,0,0,0,37.409-26.41c17.851-18.858,16.846-18.1,25.394-27.406s21.419-21.579,26.652-29.182,7.984-16.036,10.47-15.578c3.1.571.564,8.412-6.232,19.94-6.3,10.7-7.867,15.251-19.443,29.337-10.651,12.964-17.821,24.5-30.41,35.721s-15.547,13.4-24.661,18.227c17.146,2.47,12.933,9.444,34.727,14.093s39.52-2.469,53.905-4.213,31.239-8.137,38.5-17.367S1234.442,458.933,1232.7,438.012Z" transform="translate(-1056.665 -346.208)" fill="#a5b63d" stroke="#231815" stroke-miterlimit="10" stroke-width="0.25"/>
        <path id="Path_8850" data-name="Path 8850" d="M1145.19,427.372c11.576-14.086,13.139-18.642,19.443-29.337,6.8-11.528,9.336-19.369,6.232-19.94-2.486-.458-5.235,7.977-10.469,15.578s-18.1,19.878-26.652,29.182-7.544,8.549-25.394,27.406a114.4,114.4,0,0,1-37.41,26.41c7.265,8.428,19.179,4.65,19.179,4.65,9.114-4.829,12.074-7.011,24.661-18.227S1134.539,440.335,1145.19,427.372Z" transform="translate(-1050.811 -333.141)" fill="#ddd658" stroke="#000" stroke-linejoin="round" stroke-width="0.25"/>
      </g>
      <path id="Path_8851" data-name="Path 8851" d="M1135.611,365.935s-4.086,4.43-3.838,19.911.08,15.306-2.933,22.2" transform="translate(-1027.071 -322.685)" fill="none" stroke="#231815" stroke-miterlimit="10" stroke-width="0.25"/>
      <path id="Path_8852" data-name="Path 8852" d="M1123.946,365.037s-10.4,15.327-8.545,33.561c1.465,14.365,1.114,22.786-4.623,36.889" transform="translate(-1034.477 -323.054)" fill="none" stroke="#231815" stroke-miterlimit="10" stroke-width="0.25"/>
      <path id="Path_8853" data-name="Path 8853" d="M1120.117,423.855s7.8-4.673,21.353-6.878c14.156-2.3,24.384-7.852,31.524-15.309" transform="translate(-1030.648 -308.034)" fill="none" stroke="#231815" stroke-miterlimit="10" stroke-width="0.25"/>
      <path id="Path_8854" data-name="Path 8854" d="M1158.893,379.6c-5.956,11.372-14.4,8.773-22.388,19.946" transform="translate(-1023.928 -317.082)" fill="none" stroke="#231815" stroke-miterlimit="10" stroke-width="0.25"/>
      <path id="Path_8855" data-name="Path 8855" d="M1109.262,379.6c-17.744,35.638,0,42.207-16.234,76.158" transform="translate(-1041.754 -317.082)" fill="none" stroke="#231815" stroke-miterlimit="10" stroke-width="0.25"/>
      <path id="Path_8856" data-name="Path 8856" d="M1105.33,440.853c15.85-11.641,43.957,3.956,73.727-19.245" transform="translate(-1036.711 -299.859)" fill="none" stroke="#231815" stroke-miterlimit="10" stroke-width="0.25"/>
      <ellipse id="Ellipse_1378" data-name="Ellipse 1378" cx="4.163" cy="3.343" rx="4.163" ry="3.343" transform="translate(157.574 91.378)" fill="#dffffa" stroke="#231815" stroke-miterlimit="10" stroke-width="0.25"/>
      <circle id="Ellipse_1379" data-name="Ellipse 1379" cx="2.24" cy="2.24" r="2.24" transform="translate(150.387 85.231)" fill="#dffffa" stroke="#231815" stroke-miterlimit="10" stroke-width="0.25"/>
      <path id="Path_8857" data-name="Path 8857" d="M1089.741,400.069c-9.9,22.309,0,37.4-6.879,58.427" transform="translate(-1045.923 -308.69)" fill="none" stroke="#231815" stroke-miterlimit="10" stroke-width="0.25"/>
      <path id="Path_8858" data-name="Path 8858" d="M1089.515,450.288c27.067-11.5,48.448,13.446,82.514-6.224" transform="translate(-1043.196 -290.651)" fill="none" stroke="#231815" stroke-miterlimit="10" stroke-width="0.25"/>
      <ellipse id="Ellipse_1380" data-name="Ellipse 1380" cx="2.227" cy="3.329" rx="2.227" ry="3.329" transform="translate(50.605 55.433) rotate(-60)" fill="#dffffa" stroke="#231815" stroke-miterlimit="10" stroke-width="0.25"/>
    </g>
    <ellipse id="Ellipse_1381" data-name="Ellipse 1381" cx="5.542" cy="3.325" rx="5.542" ry="3.325" transform="translate(254.98 387.571)" fill="#ecb36f" stroke="#000" stroke-linejoin="round" stroke-width="0.25"/>
    <path id="Path_8859" data-name="Path 8859" d="M1055.353,460.176s5.687,4,14.017,1.206c10.368-3.484,14.515,4.064,20.569,2.654" transform="translate(-780.9 -65.955)" fill="none" stroke="#000" stroke-miterlimit="10" stroke-width="0.25"/>
    <path id="Path_8860" data-name="Path 8860" d="M1083.764,463.736a9.381,9.381,0,0,0,6.552,1c3.9-.746,7.631,2.157,7.631,2.157" transform="translate(-769.252 -64.495)" fill="none" stroke="#000" stroke-miterlimit="10" stroke-width="0.25"/>
    <ellipse id="Ellipse_1382" data-name="Ellipse 1382" cx="5.258" cy="3.059" rx="5.258" ry="3.059" transform="translate(35.913 390.941)" fill="#c19165" stroke="#000" stroke-linejoin="round" stroke-width="0.25"/>
    <ellipse id="Ellipse_1383" data-name="Ellipse 1383" cx="3.653" cy="6.794" rx="3.653" ry="6.794" transform="matrix(0.138, -0.99, 0.99, 0.138, 70.902, 368.941)" fill="#c19165" stroke="#000" stroke-linejoin="round" stroke-width="0.25"/>
    <path id="Path_8861" data-name="Path 8861" d="M916.866,457.312s6.461,7.754,21.32,3.748,24.293-2.1,35.405,1.149,17.445-1.8,25.585.788" transform="translate(-837.683 -67.129)" fill="none" stroke="#000" stroke-miterlimit="10" stroke-width="0.25"/>
    <path id="Path_8862" data-name="Path 8862" d="M984.5,462.018s2.972-2.666,8.14-.857,8.142.114,8.142.114" transform="translate(-809.953 -65.809)" fill="none" stroke="#000" stroke-miterlimit="10" stroke-width="0.25"/>
    <ellipse id="Ellipse_1384" data-name="Ellipse 1384" cx="10.026" cy="5.26" rx="10.026" ry="5.26" transform="translate(129.815 420.683)" fill="#c19165" stroke="#000" stroke-linejoin="round" stroke-width="0.25"/>
    <ellipse id="Ellipse_1385" data-name="Ellipse 1385" cx="5.26" cy="3.013" rx="5.26" ry="3.013" transform="translate(115.68 431.202)" fill="#ecb36f" stroke="#000" stroke-linejoin="round" stroke-width="0.25"/>
    <path id="Path_8863" data-name="Path 8863" d="M900.72,493.55s6.17-5.976,17.56,0c10.678,5.6,22.094-4.422,35.817,4.361" transform="translate(-844.303 -53.359)" fill="none" stroke="#000" stroke-miterlimit="10" stroke-width="0.25"/>
    <path id="Path_8864" data-name="Path 8864" d="M990.206,518.384s4,3.353,11.489,1.141,10.2-1.059,14.128.756" transform="translate(-807.612 -42.118)" fill="none" stroke="#000" stroke-miterlimit="10" stroke-width="0.25"/>
    <path id="Path_8865" data-name="Path 8865" d="M1013.03,519.708a5.265,5.265,0,0,0,4.21.6" transform="translate(-798.254 -41.545)" fill="none" stroke="#000" stroke-miterlimit="10" stroke-width="0.25"/>
    <ellipse id="Ellipse_1386" data-name="Ellipse 1386" cx="5.715" cy="3.215" rx="5.715" ry="3.215" transform="translate(286.232 482.415)" fill="#ecb36f" stroke="#000" stroke-linejoin="round" stroke-width="0.25"/>
    <g id="Group_2712" data-name="Group 2712" transform="translate(208.827 405.444)">
      <path id="Path_8866" data-name="Path 8866" d="M1086.145,477.382s-7.243-11.769-20.1-8.752-13.54,8.312-32.2,8.752-19.08,10.708-23.187,20.747c-3.438,8.4-1.784,11.8,2.47,17.287s2.744,15.366,15.366,18.11,14.131-1.235,23.186.96,15.314.96,24.6-10.7,23.58-8.225,26.246-18.893c2.507-10.024-9.763-12.607-11.994-22.154Z" transform="translate(-1008.81 -468.135)" fill="#cad226" stroke="#231815" stroke-miterlimit="10" stroke-width="0.25"/>
      <path id="Path_8867" data-name="Path 8867" d="M1020.361,511.292c.24-4.024,6.18,3.225,19.212-6.987s17.6-19.616,28.887-26.066,20.266-3.694,18.533,2.414c-1,3.517-7.254-1.722-14.447,3.043s-16.115,17.329-26.686,23.654S1020.074,516.1,1020.361,511.292Z" transform="translate(-1004.076 -465.507)" fill="#ddd658" stroke="#000" stroke-linejoin="round" stroke-width="0.25"/>
      <path id="Path_8868" data-name="Path 8868" d="M1025.493,485.849c10.54,2.84,17.828-7.473,35.658-6.165" transform="translate(-1001.97 -463.447)" fill="none" stroke="#231815" stroke-miterlimit="10" stroke-width="0.25"/>
      <path id="Path_8869" data-name="Path 8869" d="M1021.552,491.562s6.609,8.274,15.576,7.205" transform="translate(-1003.586 -458.53)" fill="none" stroke="#231815" stroke-miterlimit="10" stroke-width="0.25"/>
      <path id="Path_8870" data-name="Path 8870" d="M1065.47,479.885s-5.486,5.235-10,22.254c-4.313,16.262-10.187,18.869-10.187,18.869" transform="translate(-993.857 -463.317)" fill="none" stroke="#231815" stroke-miterlimit="10" stroke-width="0.25"/>
      <path id="Path_8871" data-name="Path 8871" d="M1030.547,515.331c9.017-3.878,8.822-13.38,15.526-19.664" transform="translate(-999.898 -456.847)" fill="none" stroke="#231815" stroke-miterlimit="10" stroke-width="0.25"/>
      <path id="Path_8872" data-name="Path 8872" d="M1061.695,503.114c3.715-5.72,1.293-15.139,7.631-23.52" transform="translate(-987.127 -463.437)" fill="none" stroke="#231815" stroke-miterlimit="10" stroke-width="0.25"/>
      <path id="Path_8873" data-name="Path 8873" d="M1052.44,471.658s8.593-.133,13.05,4.174" transform="translate(-990.921 -466.691)" fill="none" stroke="#231815" stroke-miterlimit="10" stroke-width="0.25"/>
    </g>
    <g id="Group_2714" data-name="Group 2714" transform="translate(328.94 407.099)">
      <path id="Path_8874" data-name="Path 8874" d="M1095.251,474.236c3.49-6.332,20.569-10.211,27.263,12.04a34.329,34.329,0,0,1-18.7,2.537C1093.064,487.319,1092.824,478.642,1095.251,474.236Z" transform="translate(-1093.996 -469.309)" fill="#fbc6a6" stroke="#000" stroke-linejoin="round" stroke-width="0.25"/>
      <path id="Path_8875" data-name="Path 8875" d="M1121.214,481.943s-12.821-.983-20.886,6.585c-8.577,8.048,1.792,23.6,13.343,16.827C1126.871,497.617,1121.214,481.943,1121.214,481.943Z" transform="translate(-1092.697 -464.146)" fill="#fbc6a6" stroke="#000" stroke-linejoin="round" stroke-width="0.25"/>
      <path id="Path_8876" data-name="Path 8876" d="M1114.616,486.768s-5.037-4.7-1.495-10.884c2.814-4.914,14.836-7.269,17.724,3.087s-10.489,12.548-12.745,10.554A29.942,29.942,0,0,0,1114.616,486.768Z" transform="translate(-1086.672 -468.329)" fill="#fbc6a6" stroke="#000" stroke-linejoin="round" stroke-width="0.25"/>
      <path id="Path_8877" data-name="Path 8877" d="M1113.649,483.506s11.2-1.93,17.721,6.827,2.531,17.9-5.156,16.1S1113.166,497.826,1113.649,483.506Z" transform="translate(-1085.951 -463.562)" fill="#fbc6a6" stroke="#000" stroke-linejoin="round" stroke-width="0.25"/>
      <g id="Group_2713" data-name="Group 2713" transform="translate(21.505 12.011)">
        <ellipse id="Ellipse_1387" data-name="Ellipse 1387" cx="2.58" cy="3.186" rx="2.58" ry="3.186" transform="translate(4.956 8.137) rotate(-24.372)" fill="#cad226" stroke="#231815" stroke-miterlimit="10" stroke-width="0.25"/>
        <ellipse id="Ellipse_1388" data-name="Ellipse 1388" cx="2.23" cy="3.025" rx="2.23" ry="3.025" transform="translate(0.658 3.862) rotate(-60)" fill="#cad226" stroke="#231815" stroke-miterlimit="10" stroke-width="0.25"/>
        <ellipse id="Ellipse_1389" data-name="Ellipse 1389" cx="2.993" cy="2.314" rx="2.993" ry="2.314" transform="translate(0 7.072) rotate(-24.372)" fill="#cad226" stroke="#231815" stroke-miterlimit="10" stroke-width="0.25"/>
        <ellipse id="Ellipse_1390" data-name="Ellipse 1390" cx="2.177" cy="3.402" rx="2.177" ry="3.402" transform="translate(6.94 6.488) rotate(-67.378)" fill="#cad226" stroke="#231815" stroke-miterlimit="10" stroke-width="0.25"/>
        <ellipse id="Ellipse_1391" data-name="Ellipse 1391" cx="1.737" cy="2.584" rx="1.737" ry="2.584" transform="translate(3.954 6.641) rotate(-60)" fill="#cad226" stroke="#231815" stroke-miterlimit="10" stroke-width="0.25"/>
      </g>
    </g>
  </g>
</svg>
