<svg xmlns="http://www.w3.org/2000/svg" width="427.631" height="474.19" viewBox="0 0 427.631 474.19">
  <g id="Group_3705" data-name="Group 3705" transform="translate(-3193.517 -786.038)">
    <path id="Path_12657" data-name="Path 12657" d="M3489.128,1003.735s-16.15-4.806-53.259-3.913-99.034-22.355-99.034-22.355,54.545-14.308,95.68-2.236S3489.128,1003.735,3489.128,1003.735Z" transform="translate(48.897 62.712)" fill="#518937" stroke="#000" stroke-linejoin="round" stroke-width="0.25"/>
    <g id="Group_3643" data-name="Group 3643" transform="translate(3299.112 914.36)">
      <path id="Path_12658" data-name="Path 12658" d="M3336.488,882.431c-6.021-2.75-13.383,5.4-18.112,5.825s-10.583-1.367-15.614,4.546-5.493,5.379-9.512,6.382-9.382,3.72-11.153,12.306.235,8.881-3.431,17.087-4.8,5.714-6.167,13.776,3.419,8.487,5.437,16.063,4.664,4.308,8.424,10.831,7.689,5.525,15.578,5.623,6.586,3.131,14.344,1.714,25.106-9.4,31.759-21.471,13.632-22.61,15.247-30.108,3.176-15.33-1.454-21.224-9.279-7.008-15.318-10.335S3342.945,885.381,3336.488,882.431Z" transform="translate(-3272.257 -881.865)" fill="#fff8eb" stroke="#000" stroke-linecap="round" stroke-linejoin="round" stroke-width="0.25"/>
      <path id="Path_12659" data-name="Path 12659" d="M3325.141,882.287s-20.3,16.645-19.624,47.686l4.1,5.487A128.555,128.555,0,0,1,3325.141,882.287Z" transform="translate(-3260.91 -881.721)" fill="#e5aeae" stroke="#000" stroke-linejoin="round" stroke-width="0.25"/>
      <path id="Path_12660" data-name="Path 12660" d="M3351.035,914.565s-20.433-9.144-42.318,10.6l-.567,3.05S3324.427,914.729,3351.035,914.565Z" transform="translate(-3260.006 -871.425)" fill="#e5aeae" stroke="#000" stroke-linejoin="round" stroke-width="0.25"/>
      <path id="Path_12661" data-name="Path 12661" d="M3306.221,962.18s-2.28-16.139,4.121-37.929l-2.184-.189S3295.089,946.684,3306.221,962.18Z" transform="translate(-3262.197 -867.462)" fill="#e5aeae" stroke="#000" stroke-linejoin="round" stroke-width="0.25"/>
      <path id="Path_12662" data-name="Path 12662" d="M3276.49,944.582s11.3-15.137,40.283-19.95l-.871-2.241S3285.589,924.516,3276.49,944.582Z" transform="translate(-3270.812 -868.032)" fill="#e5aeae" stroke="#000" stroke-linejoin="round" stroke-width="0.25"/>
      <path id="Path_12663" data-name="Path 12663" d="M3312.4,926.875a71.124,71.124,0,0,1-24.486-32.1s-1.745,22.017,22.938,37.152Z" transform="translate(-3266.922 -877.458)" fill="#e5aeae" stroke="#000" stroke-linejoin="round" stroke-width="0.25"/>
      <path id="Path_12664" data-name="Path 12664" d="M3302.836,891.657a18.193,18.193,0,0,0-.463,11.269" transform="translate(-3262.205 -878.523)" fill="none" stroke="#252f33" stroke-linecap="round" stroke-linejoin="round" stroke-width="0.25"/>
      <path id="Path_12665" data-name="Path 12665" d="M3298.21,895.119s-.54,1.01,1.155,3.683" transform="translate(-3263.426 -877.341)" fill="none" stroke="#252f33" stroke-linecap="round" stroke-linejoin="round" stroke-width="0.25"/>
      <path id="Path_12666" data-name="Path 12666" d="M3320.632,901.764a14.828,14.828,0,0,1,11.211-4.983" transform="translate(-3255.745 -876.774)" fill="none" stroke="#252f33" stroke-linecap="round" stroke-linejoin="round" stroke-width="0.25"/>
      <path id="Path_12667" data-name="Path 12667" d="M3322.863,903.861s4.8-3.829,10.066-2.11" transform="translate(-3254.984 -875.229)" fill="none" stroke="#252f33" stroke-linecap="round" stroke-linejoin="round" stroke-width="0.25"/>
      <path id="Path_12668" data-name="Path 12668" d="M3283.641,913.137a9.28,9.28,0,0,0,5.794,6.188" transform="translate(-3268.372 -871.191)" fill="none" stroke="#252f33" stroke-linecap="round" stroke-linejoin="round" stroke-width="0.25"/>
      <path id="Path_12669" data-name="Path 12669" d="M3282.459,918.647s2.672,2.915,6.343,2.541" transform="translate(-3268.775 -869.31)" fill="none" stroke="#252f33" stroke-linecap="round" stroke-linejoin="round" stroke-width="0.25"/>
      <path id="Path_12670" data-name="Path 12670" d="M3293.2,934.059s-6.583,3.965-8.01,11.312" transform="translate(-3267.843 -864.049)" fill="none" stroke="#252f33" stroke-linecap="round" stroke-linejoin="round" stroke-width="0.25"/>
      <path id="Path_12671" data-name="Path 12671" d="M3293.386,936.744a13.921,13.921,0,0,0-4.288,7.627" transform="translate(-3266.509 -863.133)" fill="none" stroke="#252f33" stroke-linecap="round" stroke-linejoin="round" stroke-width="0.25"/>
      <path id="Path_12672" data-name="Path 12672" d="M3294.63,939.038a8.663,8.663,0,0,0-1.456,5.251" transform="translate(-3265.125 -862.35)" fill="none" stroke="#252f33" stroke-linecap="round" stroke-linejoin="round" stroke-width="0.25"/>
      <path id="Path_12673" data-name="Path 12673" d="M3315.41,930.569a5.37,5.37,0,0,1,3.99,3.8" transform="translate(-3257.528 -865.241)" fill="none" stroke="#252f33" stroke-linecap="round" stroke-linejoin="round" stroke-width="0.25"/>
      <path id="Path_12674" data-name="Path 12674" d="M3318.658,929.145s3.58.891,4.188,3.408" transform="translate(-3256.419 -865.727)" fill="none" stroke="#252f33" stroke-linecap="round" stroke-linejoin="round" stroke-width="0.25"/>
      <path id="Path_12675" data-name="Path 12675" d="M3296.555,915.926s6.063,4.9,8.942,7.9,4.613,5.744,5.885,5.342,2.1-1.593,1.293-3.411a40.155,40.155,0,0,0-12.766-15.051Z" transform="translate(-3263.964 -872.02)" fill="#b25269" stroke="#000" stroke-linejoin="round" stroke-width="0.25"/>
      <ellipse id="Ellipse_2072" data-name="Ellipse 2072" cx="3.102" cy="1.425" rx="3.102" ry="1.425" transform="matrix(0.541, -0.841, 0.841, 0.541, 31.392, 43.136)" fill="#f7dec6" stroke="#000" stroke-linecap="round" stroke-linejoin="round" stroke-width="0.25"/>
    </g>
    <g id="Group_3644" data-name="Group 3644" transform="translate(3373.607 804.551)">
      <path id="Path_12676" data-name="Path 12676" d="M3329.411,913.092s-5.589-23,4.024-47.143,13.86-38.676,19.449-65.95c0,0,1.565,24.144,10.731,41.582s2.458,53.018,2.458,53.018l-32.639,29.474Z" transform="translate(-3327.795 -800)" fill="#518937" stroke="#000" stroke-linejoin="round" stroke-width="0.25"/>
      <path id="Path_12677" data-name="Path 12677" d="M3350.388,800s-4.625,87.131-15.278,113.092l8.795-11.375S3350.388,849.183,3350.388,800Z" transform="translate(-3325.298 -800)" fill="#cad226" stroke="#231815" stroke-miterlimit="10" stroke-width="0.25"/>
    </g>
    <path id="Path_12678" data-name="Path 12678" d="M3333.681,950.5s-28.56-.315-67.235,16.274-38.15,18.154-38.413,22.624,2.42,7.153,6.444,7.153,54.324-26.471,79.81-29.778Z" transform="translate(11.754 55.922)" fill="#cad226" stroke="#231815" stroke-miterlimit="10" stroke-width="0.25"/>
    <g id="Group_3645" data-name="Group 3645" transform="translate(3229.674 786.667)">
      <path id="Path_12679" data-name="Path 12679" d="M3367,937.679s14.754-51.977,49.629-79.139,63.431-44.488,79-71.873c0,0,6.512,43.7-10.925,68.184s-40.911,22.132-59.019,48.288Z" transform="translate(-3170.48 -786.667)" fill="#518937" stroke="#000" stroke-linejoin="round" stroke-width="0.25"/>
      <path id="Path_12680" data-name="Path 12680" d="M3342.677,944.833s-31.857,28.616-65.167,44.264-52.312,16.767-55.666,23.362-.8,12.693,11.178,11.863,43.817-10.186,93.671-47.968l18.05-20.641Z" transform="translate(-3220.49 -732.679)" fill="#cad226" stroke="#231815" stroke-miterlimit="10" stroke-width="0.25"/>
      <path id="Path_12681" data-name="Path 12681" d="M3497.59,786.667s-17.3,44.711-61.561,81.374-62.426,46.177-74.78,82.913l8.607-4.472s13.16-37.307,59.562-67.263S3497.9,798.739,3497.59,786.667Z" transform="translate(-3172.442 -786.667)" fill="#cad226" stroke="#231815" stroke-miterlimit="10" stroke-width="0.25"/>
    </g>
    <g id="Group_3646" data-name="Group 3646" transform="translate(3343.547 800.862)">
      <path id="Path_12682" data-name="Path 12682" d="M3417.962,797.25s-13.973,39.569-49.854,80.145-62.792,117.088-59.019,134.638c0,0,39.908-15.259,88.362-93.057S3417.962,797.25,3417.962,797.25Z" transform="translate(-3304.241 -797.25)" fill="#62a542" stroke="#000" stroke-linejoin="round" stroke-width="0.25"/>
      <path id="Path_12683" data-name="Path 12683" d="M3419.106,797.25s-4.216,41.987-34.245,98.288-69.214,94.729-79.477,120.61l9.8-4.115s13.206-26.481,38.924-57.256C3378.978,925.012,3407.481,876.389,3419.106,797.25Z" transform="translate(-3305.385 -797.25)" fill="#cad226" stroke="#231815" stroke-miterlimit="10" stroke-width="0.25"/>
    </g>
    <g id="Group_3647" data-name="Group 3647" transform="translate(3512.732 903.139)">
      <path id="Path_12684" data-name="Path 12684" d="M3539.808,873.5s-48.959,8.1-74.612,22.16-33.679,32.406-33.679,32.406S3511.3,939.226,3539.808,873.5Z" transform="translate(-3431.516 -873.5)" fill="#518937" stroke="#000" stroke-linejoin="round" stroke-width="0.25"/>
      <path id="Path_12685" data-name="Path 12685" d="M3539.808,873.5s-55.624,34.35-108.292,54.566C3431.516,928.066,3468.046,927.154,3539.808,873.5Z" transform="translate(-3431.516 -873.5)" fill="#cad226" stroke="#231815" stroke-miterlimit="10" stroke-width="0.25"/>
    </g>
    <g id="Group_3648" data-name="Group 3648" transform="translate(3220.222 901.049)">
      <path id="Path_12686" data-name="Path 12686" d="M3416.9,896.192s31.745-25.849,88.417-24.172c0,0-26.932,35.042-55.666,51.054s-51.693,6.208-51.693,6.208S3402.093,910.439,3416.9,896.192Z" transform="translate(-3150.46 -871.942)" fill="#62a542" stroke="#000" stroke-linejoin="round" stroke-width="0.25"/>
      <path id="Path_12687" data-name="Path 12687" d="M3568.3,872s-147.185,73.724-179.069,83.685-82.046,60.956-118.708,81.635-51.539,15.314-55.278,21.126-1.5,14.308,5.2,14.979,35.443-3.782,86.8-43.147C3355.366,993.391,3492.518,916.6,3568.3,872Z" transform="translate(-3213.443 -871.922)" fill="#cad226" stroke="#231815" stroke-miterlimit="10" stroke-width="0.25"/>
    </g>
    <g id="Group_3649" data-name="Group 3649" transform="translate(3266.115 945.224)">
      <path id="Path_12688" data-name="Path 12688" d="M3372.336,933.211s58.348-27.3,93.726-28.235,58.516,4.929,80.48,6.858a259.738,259.738,0,0,1-62.875,29.677c-35.881,11.149-120.511,22.372-120.511,22.372Z" transform="translate(-3208.233 -904.875)" fill="#62a542" stroke="#000" stroke-linejoin="round" stroke-width="0.25"/>
      <path id="Path_12689" data-name="Path 12689" d="M3585.967,910.063s-100.1,5.057-179.4,35.126-160.057,111.563-158.892,123.2,16.375.758,37.921-22.94,74.3-86.61,170.88-111.043S3585.967,910.063,3585.967,910.063Z" transform="translate(-3247.658 -903.104)" fill="#cad226" stroke="#231815" stroke-miterlimit="10" stroke-width="0.25"/>
    </g>
    <ellipse id="Ellipse_2073" data-name="Ellipse 2073" cx="5.449" cy="3.27" rx="5.449" ry="3.27" transform="translate(3582.795 1113.73)" fill="#ecb36f" stroke="#000" stroke-linejoin="round" stroke-width="0.25"/>
    <ellipse id="Ellipse_2074" data-name="Ellipse 2074" cx="4.108" cy="2.347" rx="4.108" ry="2.347" transform="translate(3596.209 1123.957)" fill="#c19165" stroke="#000" stroke-linejoin="round" stroke-width="0.25"/>
    <path id="Path_12690" data-name="Path 12690" d="M3498.6,1063.925s-6.707-3.521-18.108,0-19.617-5.108-19.617-5.108" transform="translate(91.237 92.895)" fill="none" stroke="#252f33" stroke-miterlimit="10" stroke-width="0.25"/>
    <path id="Path_12691" data-name="Path 12691" d="M3477.625,1070.9a21.959,21.959,0,0,1,11.9,0c6.371,1.844,9.725-1.565,9.725-1.565" transform="translate(96.955 96.485)" fill="none" stroke="#252f33" stroke-miterlimit="10" stroke-width="0.25"/>
    <ellipse id="Ellipse_2075" data-name="Ellipse 2075" cx="4.779" cy="2.934" rx="4.779" ry="2.934" transform="translate(3441.787 1066.448)" fill="#ecb36f" stroke="#000" stroke-linejoin="round" stroke-width="0.25"/>
    <path id="Path_12692" data-name="Path 12692" d="M3418.947,1003.191a47.281,47.281,0,0,1-12.965-.447c-7.377-1.23-8.161,1.677-13.973,1.9a25.637,25.637,0,0,1-10.842-2.2" transform="translate(64.03 73.652)" fill="none" stroke="#252f33" stroke-miterlimit="10" stroke-width="0.25"/>
    <path id="Path_12693" data-name="Path 12693" d="M3405.667,1007.747s3.018-1.453,8.5,0,8.718-.645,8.718-.645" transform="translate(72.393 75.243)" fill="none" stroke="#252f33" stroke-miterlimit="10" stroke-width="0.25"/>
    <path id="Path_12694" data-name="Path 12694" d="M3250.375,1061.833s7.88,6.036,18.611.838,13.917,3.788,25.653.636" transform="translate(19.385 93.646)" fill="none" stroke="#252f33" stroke-miterlimit="10" stroke-width="0.25"/>
    <path id="Path_12695" data-name="Path 12695" d="M3215.5,1084.486s7.377,4.024,20.456,0,20.623,1.788,20.623,1.788" transform="translate(7.481 101.173)" fill="none" stroke="#252f33" stroke-miterlimit="10" stroke-width="0.25"/>
    <path id="Path_12696" data-name="Path 12696" d="M3243.5,1089.141a7.292,7.292,0,0,1,7.545,0c4.191,2.347,8.048-.522,8.048-.522" transform="translate(17.039 102.89)" fill="none" stroke="#252f33" stroke-miterlimit="10" stroke-width="0.25"/>
    <path id="Path_12697" data-name="Path 12697" d="M3280.125,1068.627s4.779-2.012,8.719.586,8.719-.665,8.719-.665" transform="translate(29.54 95.99)" fill="none" stroke="#252f33" stroke-miterlimit="10" stroke-width="0.25"/>
    <ellipse id="Ellipse_2076" data-name="Ellipse 2076" cx="5.03" cy="2.599" rx="5.03" ry="2.599" transform="translate(3298.767 1137.203)" fill="#ecb36f" stroke="#000" stroke-linejoin="round" stroke-width="0.25"/>
    <ellipse id="Ellipse_2077" data-name="Ellipse 2077" cx="3.577" cy="2.124" rx="3.577" ry="2.124" transform="translate(3285.8 1146.481)" fill="#c19165" stroke="#000" stroke-linejoin="round" stroke-width="0.25"/>
    <ellipse id="Ellipse_2078" data-name="Ellipse 2078" cx="4.946" cy="3.479" rx="4.946" ry="3.479" transform="translate(3321.234 1201.923)" fill="#c19165" stroke="#000" stroke-linejoin="round" stroke-width="0.25"/>
    <ellipse id="Ellipse_2079" data-name="Ellipse 2079" cx="4.779" cy="2.683" rx="4.779" ry="2.683" transform="translate(3304.048 1212.402)" fill="#ecb36f" stroke="#000" stroke-linejoin="round" stroke-width="0.25"/>
    <ellipse id="Ellipse_2080" data-name="Ellipse 2080" cx="4.248" cy="2.627" rx="4.248" ry="2.627" transform="translate(3202.861 1074.719)" fill="#c19165" stroke="#000" stroke-linejoin="round" stroke-width="0.25"/>
    <path id="Path_12698" data-name="Path 12698" d="M3193.583,1012.333a10.4,10.4,0,0,0,8.161.671,8.865,8.865,0,0,1,7.935,1.119" transform="translate(0 77.029)" fill="none" stroke="#252f33" stroke-miterlimit="10" stroke-width="0.25"/>
    <g id="Group_3650" data-name="Group 3650" transform="translate(3222.027 984.812)">
      <path id="Path_12699" data-name="Path 12699" d="M3473.962,963.8s-10.429,10.45-41.28,12.909-52.079,12.743-74.216,24.368-58.8,15.983-58.8,15.983,4.917-23.361,41.8-43.258,52.312-30.906,79.587-34.875S3473.962,963.8,3473.962,963.8Z" transform="translate(-3185.816 -932.967)" fill="#518937" stroke="#000" stroke-linejoin="round" stroke-width="0.25"/>
      <path id="Path_12700" data-name="Path 12700" d="M3498.206,950.052s-32.974-8.383-99.035,19.449-90.205,56.336-123.4,73.774-56.671,20.573-60.025,25.88,1.341,15.2,26.827,5.725,80.927-46.024,93.447-57.928S3412.808,954.075,3498.206,950.052Z" transform="translate(-3214.788 -929.447)" fill="#cad226" stroke="#231815" stroke-miterlimit="10" stroke-width="0.25"/>
      <path id="Path_12701" data-name="Path 12701" d="M3390.167,940.35s54.379-13.413,75.03,0,22.522,63.938,22.522,63.938-32.286-22.356-45.805-33.31S3424.594,938.562,3390.167,940.35Z" transform="translate(-3154.925 -934.389)" fill="#62a542" stroke="#000" stroke-linejoin="round" stroke-width="0.25"/>
    </g>
    <g id="Group_3651" data-name="Group 3651" transform="translate(3239.788 876.482)">
      <path id="Path_12702" data-name="Path 12702" d="M3317.013,1024.645s-2.683-42.923,31.521-75.366,55.33-65.307,93.894-77.379,77.351-20.455,78.915-17.773-39.234,26.827-63.266,58.684-122.286,107.2-137.376,112.784Z" transform="translate(-3197.673 -853.626)" fill="#518937" stroke="#000" stroke-linejoin="round" stroke-width="0.25"/>
      <path id="Path_12703" data-name="Path 12703" d="M3231.763,1120.256c-6.93,3.422-3.1,10.731,2.487,11.066s67.514-36.719,105.071-84.588,36.831-67.543,72.517-100.182S3495.811,880.827,3551.7,854c0,0-79.586,31.689-124.856,69.5s-47.45,49.656-77.545,95.262S3279.631,1096.615,3231.763,1120.256Z" transform="translate(-3228.029 -853.498)" fill="#cad226" stroke="#231815" stroke-miterlimit="10" stroke-width="0.25"/>
    </g>
    <g id="Group_3652" data-name="Group 3652" transform="translate(3325.332 1048.451)">
      <path id="Path_12704" data-name="Path 12704" d="M3373.37,1024.409s4.825,17.113,21.591,24.155l-4.247,19.672s-10.731-3.353-24.2,6.092C3366.514,1074.328,3360.16,1039.6,3373.37,1024.409Z" transform="translate(-3266.825 -967.3)" fill="#62a542" stroke="#000" stroke-linejoin="round" stroke-width="0.25"/>
      <path id="Path_12705" data-name="Path 12705" d="M3344.155,988.093c-6.178,1.026-9.6-.111-13.128,4.024s-7.886,1.677-14.257,6.483-5.7,17.1-11.066,23.921-6.82,4.806-7.937,11.4-.67,13.1-3.856,19.349-2.4,10.048,0,14.8,1.063,10.228.95,16.823,4.137,11.177,12.855,18.555,2.683,9.165,11.289,17.1,10.62,8.159,15.649,8.886,10.62-4.751,21.8-6.65,11.625-13.413,18-16.655,13.636-3.689,17.046-17.27,8.1-13.692,11.01-27.106-3.8-14.867-4.247-23.921,2.905-21.8-1.565-29.621-4.359-7.042-10.731-11.737-4.918-1.788-12.183-5.03-6.819-9.613-13.414-9.613S3354.849,986.317,3344.155,988.093Z" transform="translate(-3291.805 -981.833)" fill="#fff8eb" stroke="#000" stroke-linecap="round" stroke-linejoin="round" stroke-width="0.25"/>
      <path id="Path_12706" data-name="Path 12706" d="M3331.412,986.5s-9.836,28.373,11.4,59.9l4.807.9S3331.412,1018.468,3331.412,986.5Z" transform="translate(-3279.061 -980.24)" fill="#e5aeae" stroke="#000" stroke-linejoin="round" stroke-width="0.25"/>
      <path id="Path_12707" data-name="Path 12707" d="M3379.657,1001.5s-32.308,11.066-37.951,37.557v5.03h2.409S3351.322,1021.62,3379.657,1001.5Z" transform="translate(-3274.771 -975.12)" fill="#e5aeae" stroke="#000" stroke-linejoin="round" stroke-width="0.25"/>
      <path id="Path_12708" data-name="Path 12708" d="M3374.46,1071.311s-24.125-24.623-30.344-38.061l-2.409,2.471S3347.019,1060.636,3374.46,1071.311Z" transform="translate(-3274.771 -964.282)" fill="#e5aeae" stroke="#000" stroke-linejoin="round" stroke-width="0.25"/>
      <path id="Path_12709" data-name="Path 12709" d="M3345.353,1033.667a78.345,78.345,0,0,0-20.68,34.148c-6.371,21.629-3.018,35.21,0,43.929,0,0-3.018-25.318,6.372-46.612s17.715-29.554,17.715-29.554Z" transform="translate(-3281.823 -964.14)" fill="#e5aeae" stroke="#000" stroke-linejoin="round" stroke-width="0.25"/>
      <path id="Path_12710" data-name="Path 12710" d="M3293.375,1051.3s25.713-23.044,58.295-20.073l3.128,3.363S3317.016,1036.713,3293.375,1051.3Z" transform="translate(-3291.269 -965.063)" fill="#e5aeae" stroke="#000" stroke-linejoin="round" stroke-width="0.25"/>
      <path id="Path_12711" data-name="Path 12711" d="M3310.417,1011s1.611,11.238,16.208,16.991" transform="translate(-3285.452 -971.877)" fill="none" stroke="#252f33" stroke-linecap="round" stroke-linejoin="round" stroke-width="0.25"/>
      <path id="Path_12712" data-name="Path 12712" d="M3306.833,1015.75a7.737,7.737,0,0,0,5.589,4.695" transform="translate(-3286.675 -970.256)" fill="none" stroke="#252f33" stroke-linecap="round" stroke-linejoin="round" stroke-width="0.25"/>
      <path id="Path_12713" data-name="Path 12713" d="M3316.271,1010.083s.531,4.583,4.22,6.819" transform="translate(-3283.453 -972.19)" fill="none" stroke="#252f33" stroke-linecap="round" stroke-linejoin="round" stroke-width="0.25"/>
      <path id="Path_12714" data-name="Path 12714" d="M3351.747,997.083a29.424,29.424,0,0,0-8.83,18" transform="translate(-3274.358 -976.628)" fill="none" stroke="#252f33" stroke-linecap="round" stroke-linejoin="round" stroke-width="0.25"/>
      <path id="Path_12715" data-name="Path 12715" d="M3343.7,997.5s-.786.895-.786,5.7" transform="translate(-3274.358 -976.485)" fill="none" stroke="#252f33" stroke-linecap="round" stroke-linejoin="round" stroke-width="0.25"/>
      <path id="Path_12716" data-name="Path 12716" d="M3353.388,1002.167s-2.683.447-4.471,4.471" transform="translate(-3272.31 -974.892)" fill="none" stroke="#252f33" stroke-linecap="round" stroke-linejoin="round" stroke-width="0.25"/>
      <path id="Path_12717" data-name="Path 12717" d="M3361.25,1032.46s3.27-.81,5.115,1.117" transform="translate(-3268.1 -964.61)" fill="none" stroke="#252f33" stroke-linecap="round" stroke-linejoin="round" stroke-width="0.25"/>
      <path id="Path_12718" data-name="Path 12718" d="M3360,1035.172s4.192-1.3,6.2,1.385" transform="translate(-3268.527 -963.734)" fill="none" stroke="#252f33" stroke-linecap="round" stroke-linejoin="round" stroke-width="0.25"/>
      <path id="Path_12719" data-name="Path 12719" d="M3342.9,1063.063a13.646,13.646,0,0,0,2.18,9.054" transform="translate(-3274.394 -954.106)" fill="none" stroke="#252f33" stroke-linecap="round" stroke-linejoin="round" stroke-width="0.25"/>
      <path id="Path_12720" data-name="Path 12720" d="M3345.5,1063.938s.42,4.192,2.347,5.784" transform="translate(-3273.476 -953.807)" fill="none" stroke="#252f33" stroke-linecap="round" stroke-linejoin="round" stroke-width="0.25"/>
      <path id="Path_12721" data-name="Path 12721" d="M3308.417,1069.163s1.229-9.054,9.612-13.413" transform="translate(-3286.134 -956.602)" fill="none" stroke="#252f33" stroke-linecap="round" stroke-linejoin="round" stroke-width="0.25"/>
      <path id="Path_12722" data-name="Path 12722" d="M3305.167,1057.49a6.11,6.11,0,0,1,4.917-2.907" transform="translate(-3287.244 -957.001)" fill="none" stroke="#252f33" stroke-linecap="round" stroke-linejoin="round" stroke-width="0.25"/>
      <path id="Path_12723" data-name="Path 12723" d="M3317.485,1065a8.348,8.348,0,0,0-1.9,5.7" transform="translate(-3283.689 -953.445)" fill="none" stroke="#252f33" stroke-linecap="round" stroke-linejoin="round" stroke-width="0.25"/>
      <path id="Path_12724" data-name="Path 12724" d="M3347.269,1033.405c-5.631-3.758-16.6-6.178-16.6-6.178l-.5,6.178a65.038,65.038,0,0,1,9.585,2.362c3.521,1.341,5.951,2.683,7.083,1.635S3348.688,1034.354,3347.269,1033.405Z" transform="translate(-3278.71 -966.338)" fill="#b25269" stroke="#000" stroke-linejoin="round" stroke-width="0.25"/>
      <ellipse id="Ellipse_2081" data-name="Ellipse 2081" cx="2.236" cy="3.13" rx="2.236" ry="3.13" transform="translate(49.221 60.808)" fill="#f7dec6" stroke="#000" stroke-linecap="round" stroke-linejoin="round" stroke-width="0.25"/>
    </g>
    <g id="Group_3658" data-name="Group 3658" transform="translate(3353.762 1018.159)">
      <g id="Group_3653" data-name="Group 3653" transform="translate(155.254)">
        <path id="Path_12725" data-name="Path 12725" d="M3486.764,959.25s-21.126,28.168-42.587,47.618-14.274,55.5-14.274,55.5,43.926-9.222,51.4-39.737S3483.411,981.047,3486.764,959.25Z" transform="translate(-3428.746 -959.25)" fill="#518937" stroke="#000" stroke-linejoin="round" stroke-width="0.25"/>
        <path id="Path_12726" data-name="Path 12726" d="M3486.47,959.25s-8.048,37.39-23.809,55.33-20.167,21.8-33.053,47.785" transform="translate(-3428.452 -959.25)" fill="#518937" stroke="#000" stroke-linejoin="round" stroke-width="0.25"/>
      </g>
      <g id="Group_3654" data-name="Group 3654" transform="translate(170.182 58.684)">
        <path id="Path_12727" data-name="Path 12727" d="M3505.768,1003s-31.354,7.377-45.605,16.431-20.288,40.24-20.288,40.24,37.725,5.03,50.3-18.443S3498.894,1016.581,3505.768,1003Z" transform="translate(-3439.875 -1003)" fill="#62a542" stroke="#000" stroke-linejoin="round" stroke-width="0.25"/>
        <path id="Path_12728" data-name="Path 12728" d="M3500.051,1003s-21.964,26.827-43.426,35.042" transform="translate(-3434.157 -1003)" fill="#62a542" stroke="#000" stroke-linejoin="round" stroke-width="0.25"/>
      </g>
      <path id="Path_12729" data-name="Path 12729" d="M3441,1103.287s-4.639,24.479-24.2,36.216-27.609,14.922-30.794,18.611c0,0,5.03-26.491,5.868-40.911s11.234-25.6,32.024-31.745Z" transform="translate(-3288.082 -916.17)" fill="#518937" stroke="#000" stroke-linejoin="round" stroke-width="0.25"/>
      <path id="Path_12730" data-name="Path 12730" d="M3386,1155.682s12.8-38,47.061-63.1" transform="translate(-3288.082 -913.738)" fill="none" stroke="#252f33" stroke-miterlimit="10" stroke-width="0.25"/>
      <path id="Path_12731" data-name="Path 12731" d="M3407.229,1074.25s-20.958,23.306-50.636,33.366S3313,1139.3,3313,1139.3s29.677,8.886,61.2-.838,47.953-11.9,64.217-35.21Z" transform="translate(-3313 -919.996)" fill="#62a542" stroke="#000" stroke-linejoin="round" stroke-width="0.25"/>
      <path id="Path_12732" data-name="Path 12732" d="M3313,1137.029s29.677-15.258,63.881-21.8,49.462-34.315,49.462-34.315" transform="translate(-3313 -917.72)" fill="none" stroke="#252f33" stroke-miterlimit="10" stroke-width="0.25"/>
      <g id="Group_3657" data-name="Group 3657" transform="translate(86.437 72.784)">
        <g id="Group_3656" data-name="Group 3656">
          <path id="Path_12733" data-name="Path 12733" d="M3418.263,1014.334c-10.622,1.827-14.308,10.339-21.405,14.811s-7.322,9.836-9.389,19.393-2.739,19.282-8.1,27.665,2.18,13.078,2.348,19.114,2.291,8.551,5.757,11.066,7.913,3.82,10.383,12.305,8.842,5.635,17.226,8.15,11.4,7.377,19.785,8.048,8.216-1.006,15.928,0,6.372-4.527,13.917-9.054,13.749-7.21,16.264-15.09,1.9-11.458,9.333-17.213,4.583-14.2,5.589-23.138,6.818-25.709-1.453-34.093-12.3-5.533-22.021-11.737-9.39-10.731-22.8-9.389S3433.856,1011.651,3418.263,1014.334Z" transform="translate(-3377.441 -1013.513)" fill="#fff8eb" stroke="#000" stroke-linecap="round" stroke-linejoin="round" stroke-width="0.25"/>
          <path id="Path_12734" data-name="Path 12734" d="M3477.339,1030.5s-41.318,2.33-49.8,29.453l3.368,3.577S3446.489,1038.213,3477.339,1030.5Z" transform="translate(-3360.34 -1007.714)" fill="#e5aeae" stroke="#000" stroke-linejoin="round" stroke-width="0.25"/>
          <path id="Path_12735" data-name="Path 12735" d="M3473.11,1079.781s-15.2-29.733-43.258-25.6l-2.039,4.5S3452.654,1061.449,3473.11,1079.781Z" transform="translate(-3360.247 -999.765)" fill="#e5aeae" stroke="#000" stroke-linejoin="round" stroke-width="0.25"/>
          <path id="Path_12736" data-name="Path 12736" d="M3434.187,1120.241s11.259-41.8-4.933-63.821l-3.171,1.113S3434.355,1089.893,3434.187,1120.241Z" transform="translate(-3360.838 -998.866)" fill="#e5aeae" stroke="#000" stroke-linejoin="round" stroke-width="0.25"/>
          <path id="Path_12737" data-name="Path 12737" d="M3384.917,1091.909s16.495-28.728,54.691-35.992l.526,1.788S3402.019,1072.348,3384.917,1091.909Z" transform="translate(-3374.889 -999.038)" fill="#e5aeae" stroke="#000" stroke-linejoin="round" stroke-width="0.25"/>
          <path id="Path_12738" data-name="Path 12738" d="M3439.7,1061.774s-7.993-25.318-47.785-36.607c0,0,31.362,17.325,45.3,41.246Z" transform="translate(-3372.5 -1009.534)" fill="#e5aeae" stroke="#000" stroke-linejoin="round" stroke-width="0.25"/>
          <path id="Path_12739" data-name="Path 12739" d="M3429.215,1044.927s-.228,5.628-2.3,9.51-1.75,5.359-.543,6.7,4.1-.608,5.4-6.724a75.115,75.115,0,0,0,1.481-8.587Z" transform="translate(-3361.067 -1002.79)" fill="#b25269" stroke="#000" stroke-linejoin="round" stroke-width="0.25"/>
          <path id="Path_12740" data-name="Path 12740" d="M3392.75,1047.931a9.309,9.309,0,0,1,5.589,1.229" transform="translate(-3372.216 -1001.783)" fill="#fff8eb" stroke="#000" stroke-linecap="round" stroke-linejoin="round" stroke-width="0.25"/>
          <path id="Path_12741" data-name="Path 12741" d="M3393.417,1050.468a7.321,7.321,0,0,1,4.695.447" transform="translate(-3371.988 -1000.966)" fill="#fff8eb" stroke="#000" stroke-linecap="round" stroke-linejoin="round" stroke-width="0.25"/>
          <path id="Path_12742" data-name="Path 12742" d="M3408.567,1080.917s-1.006,4.582-6.484,7.824" transform="translate(-3369.03 -990.505)" fill="#fff8eb" stroke="#000" stroke-linecap="round" stroke-linejoin="round" stroke-width="0.25"/>
          <path id="Path_12743" data-name="Path 12743" d="M3410.711,1083.167s-.111,4.247-2.794,6.147" transform="translate(-3367.038 -989.737)" fill="#fff8eb" stroke="#000" stroke-linecap="round" stroke-linejoin="round" stroke-width="0.25"/>
          <path id="Path_12744" data-name="Path 12744" d="M3417.55,1084.5a19.019,19.019,0,0,0-.671,10.842" transform="translate(-3364.153 -989.282)" fill="#fff8eb" stroke="#000" stroke-linecap="round" stroke-linejoin="round" stroke-width="0.25"/>
          <path id="Path_12745" data-name="Path 12745" d="M3442.75,1080.21a4.327,4.327,0,0,1,1.9,3.407" transform="translate(-3355.149 -990.746)" fill="#fff8eb" stroke="#000" stroke-linecap="round" stroke-linejoin="round" stroke-width="0.25"/>
          <path id="Path_12746" data-name="Path 12746" d="M3444.7,1078.25a5.181,5.181,0,0,1,1.886,4.333" transform="translate(-3354.484 -991.415)" fill="#fff8eb" stroke="#000" stroke-linecap="round" stroke-linejoin="round" stroke-width="0.25"/>
          <path id="Path_12747" data-name="Path 12747" d="M3451.917,1049.59s8.495-.782,11.066,6.036" transform="translate(-3352.02 -1001.207)" fill="#fff8eb" stroke="#000" stroke-linecap="round" stroke-linejoin="round" stroke-width="0.25"/>
          <path id="Path_12748" data-name="Path 12748" d="M3451.917,1047.5s4.806-1.9,8.271.728" transform="translate(-3352.02 -1002.137)" fill="#fff8eb" stroke="#000" stroke-linecap="round" stroke-linejoin="round" stroke-width="0.25"/>
          <path id="Path_12749" data-name="Path 12749" d="M3422.167,1022.167a14.032,14.032,0,0,1,2.347,7.824" transform="translate(-3362.175 -1010.558)" fill="#fff8eb" stroke="#000" stroke-linecap="round" stroke-linejoin="round" stroke-width="0.25"/>
          <path id="Path_12750" data-name="Path 12750" d="M3426.083,1022.583s1.23,1.565.9,5.365" transform="translate(-3360.838 -1010.416)" fill="#fff8eb" stroke="#000" stroke-linecap="round" stroke-linejoin="round" stroke-width="0.25"/>
          <path id="Path_12751" data-name="Path 12751" d="M3443.506,1026.6s-6.353-.893-8.542,4.137" transform="translate(-3357.806 -1009.067)" fill="#fff8eb" stroke="#000" stroke-linecap="round" stroke-linejoin="round" stroke-width="0.25"/>
          <g id="Group_3655" data-name="Group 3655" transform="translate(67.845 40.774)">
            <ellipse id="Ellipse_2082" data-name="Ellipse 2082" cx="1.397" cy="2.068" rx="1.397" ry="2.068" transform="translate(0 2.728) rotate(-77.482)" fill="#f7dec6"/>
            <ellipse id="Ellipse_2083" data-name="Ellipse 2083" cx="1.397" cy="2.068" rx="1.397" ry="2.068" transform="translate(0 2.728) rotate(-77.482)" fill="none" stroke="#000" stroke-linecap="round" stroke-linejoin="round" stroke-width="0.25"/>
          </g>
        </g>
      </g>
    </g>
  </g>
</svg>
