<svg xmlns="http://www.w3.org/2000/svg" width="415.526" height="487.184" viewBox="0 0 415.526 487.184">
  <g id="Group_3704" data-name="Group 3704" transform="translate(-2046.12 -1269.871)">
    <g id="Group_3678" data-name="Group 3678" transform="translate(2067.446 1567.562)">
      <path id="Path_12900" data-name="Path 12900" d="M2242.884,1600.142s3.085,15.128-2.733,22.774-1.259,8.811-4.536,15.959-7.433,4.987-11.589,10.307-1.274,5.486-3.6,9.253-5.541,5.542-5.763,9.421c0,0-5.124-7.314-12.2-10.086s-10.072-8.644-11.07-13.852-5.54-16.291-9.752-20.06-5.1-15.4-1.885-20.281,1.707-10.527-.808-11.193-4.844-.112-5.952,4.543-.443,7.094-4.432,10.639.776,11.526-5.1,18.619-7.535,5.431-10.084,12.081-9.974,8.644-18.951,8.865-19.394-2.548-31.363,3.436-26.155,3.325-26.155,3.325.333-31.807,5.985-42.668,19.616-14.355,21.168-22.083,5.43-16.484,12.855-18.146,21.5-2.587,22.055-8.607-14.408-8.682-22.609-4.8-16.624,4.212-23.938,1.33-11.194-19.9-15.516-23.86-8.755-8.612-9.531-18.032-5.208-18.508-5.208-18.508,4.765-5.984,15.847-4.543,137.534,17.066,137.534,17.066Z" transform="translate(-2062.167 -1493.749)" fill="#cad226" stroke="#231815" stroke-miterlimit="10" stroke-width="0.25"/>
      <path id="Path_12901" data-name="Path 12901" d="M2073.25,1646.412s47.472-49.223,67.825-73.943,74.764-56.044,74.764-56.044" transform="translate(-2058.511 -1486.268)" fill="none" stroke="#000" stroke-miterlimit="10" stroke-width="0.25"/>
      <path id="Path_12902" data-name="Path 12902" d="M2181.891,1650.366s-9-25.739-4.1-44.108-16.291-59.492-16.291-59.492" transform="translate(-2029.398 -1476.258)" fill="none" stroke="#000" stroke-miterlimit="10" stroke-width="0.25"/>
      <path id="Path_12903" data-name="Path 12903" d="M2062.167,1497.333s39.342,17.6,58.293,30.855,53.2,17.582,70.318,12.591" transform="translate(-2062.167 -1492.566)" fill="none" stroke="#000" stroke-miterlimit="10" stroke-width="0.25"/>
      <path id="Path_12904" data-name="Path 12904" d="M2091.5,1611.008s4.8-9.9,1.693-17.416" transform="translate(-2052.49 -1460.811)" fill="none" stroke="#000" stroke-miterlimit="10" stroke-width="0.25"/>
      <path id="Path_12905" data-name="Path 12905" d="M2079.375,1595.4s10.768-4.684,17.818-1.54" transform="translate(-2056.49 -1461.08)" fill="none" stroke="#000" stroke-miterlimit="10" stroke-width="0.25"/>
      <path id="Path_12906" data-name="Path 12906" d="M2084.063,1584.159s16.876-7.213,30.671-6.059" transform="translate(-2054.944 -1465.963)" fill="none" stroke="#000" stroke-miterlimit="10" stroke-width="0.25"/>
      <path id="Path_12907" data-name="Path 12907" d="M2104.813,1613.219a43.994,43.994,0,0,0,3.076-35.151" transform="translate(-2048.098 -1465.932)" fill="none" stroke="#000" stroke-miterlimit="10" stroke-width="0.25"/>
      <path id="Path_12908" data-name="Path 12908" d="M2093.559,1572.972s13.427-10.582,35.184-9.364" transform="translate(-2051.811 -1470.734)" fill="none" stroke="#000" stroke-miterlimit="10" stroke-width="0.25"/>
      <path id="Path_12909" data-name="Path 12909" d="M2117.938,1613.177s13.049-23.439,2.762-49.593" transform="translate(-2043.768 -1470.71)" fill="none" stroke="#000" stroke-miterlimit="10" stroke-width="0.25"/>
      <path id="Path_12910" data-name="Path 12910" d="M2110,1556.877s13.007-6.752,24.955-2.948" transform="translate(-2046.387 -1474.279)" fill="none" stroke="#000" stroke-miterlimit="10" stroke-width="0.25"/>
      <path id="Path_12911" data-name="Path 12911" d="M2130.241,1602.992s7.148-23.938-1.476-49.352" transform="translate(-2040.197 -1473.991)" fill="none" stroke="#000" stroke-miterlimit="10" stroke-width="0.25"/>
      <path id="Path_12912" data-name="Path 12912" d="M2124,1545.536s10.127-2.261,17.033,1.306" transform="translate(-2041.768 -1476.897)" fill="none" stroke="#000" stroke-miterlimit="10" stroke-width="0.25"/>
      <path id="Path_12913" data-name="Path 12913" d="M2139.073,1584.5s4.427-19.079-2.265-38.157" transform="translate(-2037.543 -1476.398)" fill="none" stroke="#000" stroke-miterlimit="10" stroke-width="0.25"/>
      <path id="Path_12914" data-name="Path 12914" d="M2067.375,1506.753s7.418,1.932,13.85-2.027" transform="translate(-2060.449 -1490.127)" fill="none" stroke="#000" stroke-miterlimit="10" stroke-width="0.25"/>
      <path id="Path_12915" data-name="Path 12915" d="M2072.582,1516.355s12.685,1.544,22.911-5.462" transform="translate(-2058.731 -1488.093)" fill="none" stroke="#000" stroke-miterlimit="10" stroke-width="0.25"/>
      <path id="Path_12916" data-name="Path 12916" d="M2075.75,1523.576s21.732,4.084,33.473-6.353" transform="translate(-2057.686 -1486.004)" fill="none" stroke="#000" stroke-miterlimit="10" stroke-width="0.25"/>
      <path id="Path_12917" data-name="Path 12917" d="M2099,1505.665s5.882,11.53,2.553,15.371" transform="translate(-2050.016 -1489.817)" fill="none" stroke="#000" stroke-miterlimit="10" stroke-width="0.25"/>
      <path id="Path_12918" data-name="Path 12918" d="M2083.333,1537.053s29.562,2.338,44.372-10.966" transform="translate(-2055.184 -1483.08)" fill="none" stroke="#000" stroke-miterlimit="10" stroke-width="0.25"/>
      <path id="Path_12919" data-name="Path 12919" d="M2112,1507.083s9.244,16.4,6.248,25.273" transform="translate(-2045.727 -1489.349)" fill="none" stroke="#000" stroke-miterlimit="10" stroke-width="0.25"/>
      <path id="Path_12920" data-name="Path 12920" d="M2116.167,1539.11s15.514.052,20.281-8.84" transform="translate(-2044.353 -1481.7)" fill="none" stroke="#000" stroke-miterlimit="10" stroke-width="0.25"/>
      <path id="Path_12921" data-name="Path 12921" d="M2124.917,1513.75s11.679,15.259,8.644,21.97" transform="translate(-2041.466 -1487.15)" fill="none" stroke="#000" stroke-miterlimit="10" stroke-width="0.25"/>
      <path id="Path_12922" data-name="Path 12922" d="M2167.657,1614.283s.764-8.233,6.677-11.722" transform="translate(-2027.367 -1457.852)" fill="none" stroke="#000" stroke-miterlimit="10" stroke-width="0.25"/>
      <path id="Path_12923" data-name="Path 12923" d="M2181.585,1611.707s-2.313-8.063-8.907-9.146" transform="translate(-2025.71 -1457.852)" fill="none" stroke="#000" stroke-miterlimit="10" stroke-width="0.25"/>
      <path id="Path_12924" data-name="Path 12924" d="M2162.875,1605.08s7.3-12.575,14.789-14.683" transform="translate(-2028.944 -1461.865)" fill="none" stroke="#000" stroke-miterlimit="10" stroke-width="0.25"/>
      <path id="Path_12925" data-name="Path 12925" d="M2189.628,1606.574s-6.988-14.929-15.633-16.177" transform="translate(-2025.276 -1461.865)" fill="none" stroke="#000" stroke-miterlimit="10" stroke-width="0.25"/>
      <path id="Path_12926" data-name="Path 12926" d="M2158.875,1595.925s8.824-13.592,19.83-15.066" transform="translate(-2030.264 -1465.011)" fill="none" stroke="#000" stroke-miterlimit="10" stroke-width="0.25"/>
      <path id="Path_12927" data-name="Path 12927" d="M2192.357,1597.837s-7.064-15.154-18.571-16.977" transform="translate(-2025.345 -1465.011)" fill="none" stroke="#000" stroke-miterlimit="10" stroke-width="0.25"/>
      <path id="Path_12928" data-name="Path 12928" d="M2156.563,1587.316s6.805-11.327,19.819-16.137" transform="translate(-2031.026 -1468.205)" fill="none" stroke="#000" stroke-miterlimit="10" stroke-width="0.25"/>
      <path id="Path_12929" data-name="Path 12929" d="M2196.7,1594.464s-10.307-20.531-25.232-23.285" transform="translate(-2026.11 -1468.205)" fill="none" stroke="#000" stroke-miterlimit="10" stroke-width="0.25"/>
    </g>
    <g id="Group_3679" data-name="Group 3679" transform="translate(2175.167 1270)">
      <path id="Path_12930" data-name="Path 12930" d="M2241.8,1270s-4.21,1.773-4.432,10.861-10.88,16.4-15.082,27.928-1.1,14.629-2.871,25.268-3.214,25.6,6.76,32.471,7.314,12.081,12.413,18.508,10.306,9.642,7.425,13.631-8.316,3.768-13.522-3.767-17.4-14.076-26.264-14.961-11.415-8.312-19.283-7.314-16.734,9.642-24.6,11.525-15.626,2.992-19.172,7.536c0,0,2.77,10.085,11.082,15.737s5.43,13.3,14.629,16.291,11.526,5.1,13.854,11.748,97.1,0,97.1,0,64.3-30.989,72.535-35.166,12-9.164,13.665-14.372,11.414-10.086,11.636-17.178-3.435-15.737-2.66-21.943,1-13.742-.333-18.064c0,0-14.186-4.987-24.271.775s-8.2,7.536-17.621,9.642-18.841,4.765-21.611,13.521-3.215,21.832-10.529,27.928-13.409,6.76-14.517-1.442,1.662-15.4,6.87-18.174,10.086-12.634,8.644-19.283,3.214-14.408-3.325-22.055-23.163-15.279-27.816-18.4C2258.756,1293.384,2257.759,1272.217,2241.8,1270Z" transform="translate(-2143.167 -1270)" fill="#cad226" stroke="#231815" stroke-miterlimit="10" stroke-width="0.25"/>
      <path id="Path_12931" data-name="Path 12931" d="M2217.333,1270s6.649,35.907,9.754,64.278,13.19,62.449,27.305,78.647" transform="translate(-2118.7 -1270)" fill="none" stroke="#000" stroke-miterlimit="10" stroke-width="0.25"/>
      <path id="Path_12932" data-name="Path 12932" d="M2333.663,1314.167s-55.97,28.615-66.163,92.883" transform="translate(-2102.151 -1255.43)" fill="none" stroke="#000" stroke-miterlimit="10" stroke-width="0.25"/>
      <path id="Path_12933" data-name="Path 12933" d="M2143.167,1361.5s36.8-2.3,120.357,44.795" transform="translate(-2143.167 -1239.819)" fill="none" stroke="#000" stroke-miterlimit="10" stroke-width="0.25"/>
      <path id="Path_12934" data-name="Path 12934" d="M2213.833,1286.083s4.351,8.588,9.713,8.506" transform="translate(-2119.855 -1264.694)" fill="none" stroke="#000" stroke-miterlimit="10" stroke-width="0.25"/>
      <path id="Path_12935" data-name="Path 12935" d="M2227.272,1283.917s-.722,9.727-6.136,11.387" transform="translate(-2117.446 -1265.409)" fill="none" stroke="#000" stroke-miterlimit="10" stroke-width="0.25"/>
      <path id="Path_12936" data-name="Path 12936" d="M2210.167,1298.083s9.307,10.892,17.287,10.877" transform="translate(-2121.064 -1260.736)" fill="none" stroke="#000" stroke-miterlimit="10" stroke-width="0.25"/>
      <path id="Path_12937" data-name="Path 12937" d="M2234.582,1292s-1.166,16.806-11.416,18.967" transform="translate(-2116.776 -1262.742)" fill="none" stroke="#000" stroke-miterlimit="10" stroke-width="0.25"/>
      <path id="Path_12938" data-name="Path 12938" d="M2207.125,1308.75s11.747,12.856,23.329,12.744" transform="translate(-2122.068 -1257.217)" fill="none" stroke="#000" stroke-miterlimit="10" stroke-width="0.25"/>
      <path id="Path_12939" data-name="Path 12939" d="M2248.882,1301.438s-9.448,19.144-24.215,22.469" transform="translate(-2116.281 -1259.629)" fill="none" stroke="#000" stroke-miterlimit="10" stroke-width="0.25"/>
      <path id="Path_12940" data-name="Path 12940" d="M2205.833,1322.333s10.639,13.022,28.206,14.61" transform="translate(-2122.494 -1252.736)" fill="none" stroke="#000" stroke-miterlimit="10" stroke-width="0.25"/>
      <path id="Path_12941" data-name="Path 12941" d="M2258.128,1309.417s-8.367,21.555-31.086,31.787" transform="translate(-2115.497 -1256.997)" fill="none" stroke="#000" stroke-miterlimit="10" stroke-width="0.25"/>
      <path id="Path_12942" data-name="Path 12942" d="M2207.125,1334.25s14.737,14.792,30.005,13.349" transform="translate(-2122.068 -1248.804)" fill="none" stroke="#000" stroke-miterlimit="10" stroke-width="0.25"/>
      <path id="Path_12943" data-name="Path 12943" d="M2262.5,1321.368s-15.288,25.594-32.808,30.481" transform="translate(-2114.625 -1253.054)" fill="none" stroke="#000" stroke-miterlimit="10" stroke-width="0.25"/>
      <path id="Path_12944" data-name="Path 12944" d="M2217.333,1349.088s13.578,12.963,22.443,11.743" transform="translate(-2118.7 -1243.909)" fill="none" stroke="#000" stroke-miterlimit="10" stroke-width="0.25"/>
      <path id="Path_12945" data-name="Path 12945" d="M2249.8,1342.375s-4.232,17.7-15.592,20.67" transform="translate(-2113.133 -1246.124)" fill="none" stroke="#000" stroke-miterlimit="10" stroke-width="0.25"/>
      <path id="Path_12946" data-name="Path 12946" d="M2154.333,1369.252s9.668-.1,13.091-4.373" transform="translate(-2139.484 -1238.7)" fill="none" stroke="#000" stroke-miterlimit="10" stroke-width="0.25"/>
      <path id="Path_12947" data-name="Path 12947" d="M2157.833,1357.979s9.616,6.391,8.437,9.176" transform="translate(-2138.329 -1240.976)" fill="none" stroke="#000" stroke-miterlimit="10" stroke-width="0.25"/>
      <path id="Path_12948" data-name="Path 12948" d="M2160,1377.919s19.9-.594,25.134-8.438" transform="translate(-2137.614 -1237.182)" fill="none" stroke="#000" stroke-miterlimit="10" stroke-width="0.25"/>
      <path id="Path_12949" data-name="Path 12949" d="M2168.833,1354.917s13.208,8.813,13.387,19.368" transform="translate(-2134.7 -1241.987)" fill="none" stroke="#000" stroke-miterlimit="10" stroke-width="0.25"/>
      <path id="Path_12950" data-name="Path 12950" d="M2168.833,1384.327s24.426-.261,31-9.716" transform="translate(-2134.7 -1235.49)" fill="none" stroke="#000" stroke-miterlimit="10" stroke-width="0.25"/>
      <path id="Path_12951" data-name="Path 12951" d="M2183.25,1355.583s14.39,14.514,11.826,25.305" transform="translate(-2129.944 -1241.767)" fill="none" stroke="#000" stroke-miterlimit="10" stroke-width="0.25"/>
      <path id="Path_12952" data-name="Path 12952" d="M2199.833,1360.583s6.812,12.161,5.567,25.64" transform="translate(-2124.473 -1240.117)" fill="none" stroke="#000" stroke-miterlimit="10" stroke-width="0.25"/>
      <path id="Path_12953" data-name="Path 12953" d="M2306.615,1315.938s-4.4,4.749-3.654,10.727" transform="translate(-2090.48 -1254.845)" fill="none" stroke="#000" stroke-miterlimit="10" stroke-width="0.25"/>
      <path id="Path_12954" data-name="Path 12954" d="M2317.149,1324.415s-5.554,3.841-14.209-.411" transform="translate(-2090.458 -1252.185)" fill="none" stroke="#000" stroke-miterlimit="10" stroke-width="0.25"/>
      <path id="Path_12955" data-name="Path 12955" d="M2298.764,1318.313s-9.312,11.469-6.236,20.778" transform="translate(-2094.099 -1254.062)" fill="none" stroke="#000" stroke-miterlimit="10" stroke-width="0.25"/>
      <path id="Path_12956" data-name="Path 12956" d="M2319.8,1332.563s-15.757,6.184-27.43,1.827" transform="translate(-2093.945 -1249.361)" fill="none" stroke="#000" stroke-miterlimit="10" stroke-width="0.25"/>
      <path id="Path_12957" data-name="Path 12957" d="M2283.882,1327.063s-2.2,15.535,2.35,19.986" transform="translate(-2096.921 -1251.175)" fill="none" stroke="#000" stroke-miterlimit="10" stroke-width="0.25"/>
      <path id="Path_12958" data-name="Path 12958" d="M2319.158,1343.134s-18.64,6.757-33.641-1.043" transform="translate(-2096.207 -1246.218)" fill="none" stroke="#000" stroke-miterlimit="10" stroke-width="0.25"/>
      <path id="Path_12959" data-name="Path 12959" d="M2274.336,1334.577s-3.666,20.091,4.235,26.991" transform="translate(-2100.176 -1248.697)" fill="none" stroke="#000" stroke-miterlimit="10" stroke-width="0.25"/>
      <path id="Path_12960" data-name="Path 12960" d="M2316.628,1351.438s-21.361,11.054-39.318,4.568" transform="translate(-2098.914 -1243.134)" fill="none" stroke="#000" stroke-miterlimit="10" stroke-width="0.25"/>
      <path id="Path_12961" data-name="Path 12961" d="M2267.56,1348.25a35.146,35.146,0,0,0,6.131,24.127" transform="translate(-2102.211 -1244.186)" fill="none" stroke="#000" stroke-miterlimit="10" stroke-width="0.25"/>
      <path id="Path_12962" data-name="Path 12962" d="M2312.859,1360.375s-26.831,14.7-40.75,8" transform="translate(-2100.63 -1240.186)" fill="none" stroke="#000" stroke-miterlimit="10" stroke-width="0.25"/>
    </g>
    <path id="Path_12963" data-name="Path 12963" d="M2128,1337.968s5.763-29.12,38.124-20.032,7.627,52.46-2.282,70.116-7.019,31.65,16.911,33.327" transform="translate(26.996 15.234)" fill="none" stroke="#000" stroke-miterlimit="10" stroke-width="0.25"/>
    <path id="Path_12964" data-name="Path 12964" d="M2120.839,1384.068s-5.542-2.549-2.438-7.2,14.185,2.882,19.727,7.2,32.8,21.611,53.085,16.624" transform="translate(23.518 34.77)" fill="none" stroke="#000" stroke-miterlimit="10" stroke-width="0.25"/>
    <g id="Group_3681" data-name="Group 3681" transform="translate(2079.359 1345.271)">
      <path id="Path_12965" data-name="Path 12965" d="M2365.739,1327.132c-1.526-1.8-3.1.887-5.1,8.866s-.443,17.066-8.866,27.928-31.03,33.912-44.107,34.133l5.1,15.073s8.422-9.754,11.969-16.4,12.744-13.52,18.176-16.956,14.406-16.069,16.844-25.933S2367.623,1329.349,2365.739,1327.132Z" transform="translate(-1993.092 -1326.599)" fill="#a2c427" stroke="#231815" stroke-miterlimit="10" stroke-width="0.25"/>
      <ellipse id="Ellipse_2101" data-name="Ellipse 2101" cx="2.992" cy="4.554" rx="2.992" ry="4.554" transform="matrix(0.133, -0.991, 0.991, 0.133, 273.304, 59.304)" fill="none" stroke="#000" stroke-miterlimit="10" stroke-width="0.25"/>
      <g id="Group_3680" data-name="Group 3680" transform="translate(0 46.732)">
        <path id="Path_12966" data-name="Path 12966" d="M2125.358,1463.711c-.245-3.822-19.283-6.539-30.145-4.544s-15.848,9.2-19.061,16.181-4.877,16.609.665,18.666S2126.023,1474.128,2125.358,1463.711Z" transform="translate(-2070.444 -1329.819)" fill="#ffe3ca" stroke="#000" stroke-miterlimit="10" stroke-width="0.25"/>
        <path id="Path_12967" data-name="Path 12967" d="M2147.174,1461.507c-2.615-4.266-13.267-6.982-20.582-2.216s-8.532,9.53-12.854,11.3-19.284,2.216-29.812,12.855-15.963,25.225-10.862,33.725,23.939-6.24,30.7-15.771,15.514-6.87,30.808-16.844S2150.911,1467.6,2147.174,1461.507Z" transform="translate(-2071.125 -1330.386)" fill="#ffefde" stroke="#000" stroke-miterlimit="10" stroke-width="0.25"/>
        <path id="Path_12968" data-name="Path 12968" d="M2136.428,1449.717c-.92-5.137-9.8-10.21-17.333-11.761a28.306,28.306,0,0,0-23.663,6.539c-6.814,5.984-13.8,15.737-5.6,23.828s22.164,4.433,32.028,0S2137.758,1457.143,2136.428,1449.717Z" transform="translate(-2066.177 -1336.757)" fill="#ffefde" stroke="#000" stroke-miterlimit="10" stroke-width="0.25"/>
        <path id="Path_12969" data-name="Path 12969" d="M2109.469,1489.993c-2.275-5.373-18.343,3.3-27.156,12.746s-9.865,15.875-1.995,17.4,17.178-4.765,22.941-13.742S2111.159,1493.982,2109.469,1489.993Z" transform="translate(-2069.845 -1319.972)" fill="#ffefde" stroke="#000" stroke-miterlimit="10" stroke-width="0.25"/>
        <path id="Path_12970" data-name="Path 12970" d="M2224.667,1375.826" transform="translate(-2020.473 -1357.091)" fill="#ffefde" stroke="#000" stroke-miterlimit="10" stroke-width="0.25"/>
        <path id="Path_12971" data-name="Path 12971" d="M2283.955,1455.61c2.314,3.75,6.539,16.608-4.433,20.722s-24.83,4.208-25.271-2.822,8.64-22.212,13.632-23.32S2279.3,1448.061,2283.955,1455.61Z" transform="translate(-2010.718 -1332.812)" fill="#ffefde" stroke="#000" stroke-miterlimit="10" stroke-width="0.25"/>
        <path id="Path_12972" data-name="Path 12972" d="M2199.573,1468.01c-3.456-5.151-20.06-9.974-31.364-3.99s-14.961,17.261-19.172,17.94-15.738-7.966-28.593-3.2-26.044,10.86-27.263,22.719,17.68,14.83,26.043,12.745,15.072-10.089,24.271-9.755,30.587,2.33,41.227-4.874S2206.751,1478.712,2199.573,1468.01Z" transform="translate(-2063.867 -1328.91)" fill="#ffe3ca" stroke="#000" stroke-miterlimit="10" stroke-width="0.25"/>
        <path id="Path_12973" data-name="Path 12973" d="M2157.2,1461.873c-2.966-4.45-19.5-2.66-27.484,2.77s-11.416,11.637-7.869,18.841,18.747,4.765,24.889,0S2161.632,1468.523,2157.2,1461.873Z" transform="translate(-2054.853 -1329.533)" fill="#ffefde" stroke="#000" stroke-miterlimit="10" stroke-width="0.25"/>
        <path id="Path_12974" data-name="Path 12974" d="M2164.367,1496.807c.165-4.712-13.409-6.211-29.7-2.552s-33.209,1.443-40.488,8.536-8.608,13.948,3.583,15.785,17.511,11.589,36.683,8.6S2163.591,1519.083,2164.367,1496.807Z" transform="translate(-2065.345 -1318.696)" fill="#ffefde" stroke="#000" stroke-miterlimit="10" stroke-width="0.25"/>
        <path id="Path_12975" data-name="Path 12975" d="M2151.711,1425.886c-2.593-5.659-13.964-10.141-21.611-7.148s-5.652,7.148-11.8,9.974-14.463,5.652-14.3,16.458,20.447,15.128,32.582,9.642S2157.2,1437.855,2151.711,1425.886Z" transform="translate(-2060.281 -1343.25)" fill="#ffefde" stroke="#000" stroke-miterlimit="10" stroke-width="0.25"/>
        <path id="Path_12976" data-name="Path 12976" d="M2193.641,1428.721c-3.575-6.876-18.12-4.821-33.58,0s-39.838,15.294-42.694,29.257,1.135,21.777,12.6,22.775a27.241,27.241,0,0,0,22.608-8.977c3.158-3.657,3.158-10.14,10.972-12.8s18.951-5.486,26.432-15.792S2195.8,1432.877,2193.641,1428.721Z" transform="translate(-2056.164 -1341.099)" fill="#ffefde" stroke="#000" stroke-miterlimit="10" stroke-width="0.25"/>
        <path id="Path_12977" data-name="Path 12977" d="M2183.04,1450.128c-1.737-3.909-13.521-7.654-25.823-2s-20.2,17.071-15.75,25.272,31.486,1.44,38.025-6.65S2185.256,1455.115,2183.04,1450.128Z" transform="translate(-2048.333 -1334.19)" fill="#ffe3ca" stroke="#000" stroke-miterlimit="10" stroke-width="0.25"/>
        <path id="Path_12978" data-name="Path 12978" d="M2208.376,1468.276c-1.738-3.6-20.874.015-30.227,3.45s-19.9,9.531-18.062,19.394,18.684,10.2,34.089.665S2210.828,1473.359,2208.376,1468.276Z" transform="translate(-2041.847 -1327.084)" fill="#ffefde" stroke="#000" stroke-miterlimit="10" stroke-width="0.25"/>
        <path id="Path_12979" data-name="Path 12979" d="M2199.49,1493.577c-.972-4.539-13.52-9.642-25.212-8.09s-16.68,6.317-25.212,9.863-21.773,3.99-20.695,14.851,13.934,6.7,21.138,9.167,31.437,1.694,41.264-5.067S2202.15,1505.989,2199.49,1493.577Z" transform="translate(-2052.26 -1321.008)" fill="#ffefde" stroke="#000" stroke-miterlimit="10" stroke-width="0.25"/>
        <path id="Path_12980" data-name="Path 12980" d="M2205.494,1401.732c-2.915-4.9-12.5-11.194-22.206-8.423s-15.251,10.086-22.345,13.964-23.383,3.1-30.587,14.629-.665,24.271,11.526,26.155,16.951-4.187,24.544-2.979,31.754-11.54,37.406-22.732S2207.933,1405.832,2205.494,1401.732Z" transform="translate(-2052.575 -1351.547)" fill="#ffe3ca" stroke="#000" stroke-miterlimit="10" stroke-width="0.25"/>
        <path id="Path_12981" data-name="Path 12981" d="M2222.494,1434.456c-.832-4.264-15.46-6.406-30.421-4.245s-29.257,8.644-31.418,19.283.519,18.619,21.205,15.626S2224.655,1445.516,2222.494,1434.456Z" transform="translate(-2041.795 -1339.431)" fill="#ffefde" stroke="#000" stroke-miterlimit="10" stroke-width="0.25"/>
        <path id="Path_12982" data-name="Path 12982" d="M2234.695,1455.688c-2.072-5.144-18.282.11-31.416,5.6s-24.913,9.143-19.357,19.616,35.146-4.631,41.464-11.625S2236.7,1460.675,2234.695,1455.688Z" transform="translate(-2034.38 -1331.437)" fill="#ffefde" stroke="#000" stroke-miterlimit="10" stroke-width="0.25"/>
        <path id="Path_12983" data-name="Path 12983" d="M2245.726,1471.688c-3.644-2.357-18.841-5.818-32.472-2.245s-17.954,14.1-23.051,16.1-12.856,3.213-14.739,12.634,10.986,12.938,22.837,10.307,23.6-.3,36.343.847S2258.581,1480,2245.726,1471.688Z" transform="translate(-2036.766 -1326.714)" fill="#ffe3ca" stroke="#000" stroke-miterlimit="10" stroke-width="0.25"/>
        <path id="Path_12984" data-name="Path 12984" d="M2278.92,1371.743c-2.129-4.379-11.969-8.867-25.158-6.872s-20.724,10.085-26.819,10.972-25.047-.332-31.585,8.09-12.967,6.207-16.846,11.969-4.1,26.377,15.626,30.588,61.175-19.5,71.7-26.708S2282.8,1379.722,2278.92,1371.743Z" transform="translate(-2036.381 -1360.866)" fill="#ffefde" stroke="#000" stroke-miterlimit="10" stroke-width="0.25"/>
        <path id="Path_12985" data-name="Path 12985" d="M2253.73,1399.742c-8.756-1.218-27.263-1-38.567,3.325s-11.194,8.977-16.624,10.529-14.74,0-24.271,8.977-10.639,18.619.775,22.5,19.948-1.552,24.6-1.442,14.186,8.424,36.572-1.551,46.879-30.7,44.552-36.351S2253.73,1399.742,2253.73,1399.742Z" transform="translate(-2039.562 -1349.412)" fill="#ffefde" stroke="#000" stroke-miterlimit="10" stroke-width="0.25"/>
        <path id="Path_12986" data-name="Path 12986" d="M2247.266,1431.772c-1.468-2.95-33.468.332-42.777,6.539s-11.636,16.069-16.071,18.286-19.948,5.652-23.051,16.844,9.752,14.076,18.286,11.526,4.765-6.427,12.744-7.425,21.5-3.1,38.014-18.619S2249.375,1436.008,2247.266,1431.772Z" transform="translate(-2040.192 -1338.996)" fill="#ffefde" stroke="#000" stroke-miterlimit="10" stroke-width="0.25"/>
        <path id="Path_12987" data-name="Path 12987" d="M2290.207,1428.069c-3.09-2.039-17.731-2.992-32.471,2.327s-20.17,12.634-30.92,16.18-15.626,20.946-19.506,25.933,1.219,13.272,15.737,11.4,47.771-12.541,63.614-30.907S2293.864,1430.48,2290.207,1428.069Z" transform="translate(-2026.612 -1340.391)" fill="#ffefde" stroke="#000" stroke-miterlimit="10" stroke-width="0.25"/>
        <path id="Path_12988" data-name="Path 12988" d="M2278.378,1452.126c-3.078-3.672-13.964-3.995-21.721,0s-9.616,8.538-13.674,9.758-24.117,6.824-23.563,17.819,14.85,8.224,25.268,3.349,18.729-2.771,23.716-7.979S2282.368,1456.886,2278.378,1452.126Z" transform="translate(-2022.208 -1332.869)" fill="#ffefde" stroke="#000" stroke-miterlimit="10" stroke-width="0.25"/>
        <path id="Path_12989" data-name="Path 12989" d="M2308.7,1388.248c.139-3.9-19.173-12.746-33.137-12.413s-22.164,2.54-26.708,6.2-6.095,4.881-14.074,6.764-28.815,14.629-26.488,24.382,18.619,10.639,28.26,6.205,21.58-3.928,31.735-3.349S2308.037,1406.977,2308.7,1388.248Z" transform="translate(-2025.933 -1357.091)" fill="#ffefde" stroke="#000" stroke-miterlimit="10" stroke-width="0.25"/>
        <path id="Path_12990" data-name="Path 12990" d="M2288.117,1404.968c-1.34-4.22-19.879-3.159-35.505,5.652s-14.743,15.959-19.259,19.283-18.74,6.151-17.944,14.462,17.975,9.424,27.172,5.627,7.038-7.788,12.69-9.284,17.172-4.655,25.626-14.13S2290.07,1411.119,2288.117,1404.968Z" transform="translate(-2023.538 -1348.266)" fill="#ffe3ca" stroke="#000" stroke-miterlimit="10" stroke-width="0.25"/>
        <path id="Path_12991" data-name="Path 12991" d="M2306.41,1396.9c-.167-3.518-25.6-2.77-32.8.887s-18.286,6.65-21.943,16.846,2.992,15.959,16.734,12.412S2306.854,1406.208,2306.41,1396.9Z" transform="translate(-2011.894 -1350.892)" fill="#ffefde" stroke="#000" stroke-miterlimit="10" stroke-width="0.25"/>
        <path id="Path_12992" data-name="Path 12992" d="M2331.816,1395.738c4,1.8,5.32,17.953-1.164,29.923s-3.491,16.125-13.8,25.767-14.629,11.969-18.619,21.611-17.455,14.795-25.268,7.647,2.66-19.782,2.66-19.782S2316.689,1388.922,2331.816,1395.738Z" transform="translate(-2005.494 -1350.672)" fill="#ffefde" stroke="#000" stroke-miterlimit="10" stroke-width="0.25"/>
        <path id="Path_12993" data-name="Path 12993" d="M2313.636,1416.417c5.316,3.353-2.438,17.954-10.529,24.381s-16.4,9.753-19.394,15.516-8.534,8.534-13.742,9.974-13.189-.443-7.094-9.974,14.961-16.069,20.5-20.391S2306.432,1411.873,2313.636,1416.417Z" transform="translate(-2008.592 -1343.922)" fill="#ffefde" stroke="#000" stroke-miterlimit="10" stroke-width="0.25"/>
        <path id="Path_12994" data-name="Path 12994" d="M2329.16,1383.587c3.088-6-14.184-18.4-28.813-20.835s-19.616.333-27.042,0-19.394-3.657-26.154,4.655,5.208,15.294,18.064,14.518,16.069,8.09,39.01,8.2S2327.166,1387.465,2329.16,1383.587Z" transform="translate(-2013.7 -1361.738)" fill="#ffefde" stroke="#000" stroke-miterlimit="10" stroke-width="0.25"/>
        <path id="Path_12995" data-name="Path 12995" d="M2327.18,1381.827c3.718,4.035,2.659,10.639-7.759,16.624s-24.049,5.43-33.135,7.537-21.058,2.216-21.611-3.657,6.427-18.951,17.177-21.168S2321.97,1376.175,2327.18,1381.827Z" transform="translate(-2007.285 -1356.211)" fill="#ffe3ca" stroke="#000" stroke-miterlimit="10" stroke-width="0.25"/>
        <path id="Path_12996" data-name="Path 12996" d="M2333.348,1390.669c3.845,3.73-10.324,29.091-22.459,35.242s-13.631,17.122-27.429,23.107-31.585,8.977-31.585-1.33,10.14-16.457,16.125-18.785,12.634-22.109,31.585-29.424S2328.378,1385.848,2333.348,1390.669Z" transform="translate(-2011.497 -1352.751)" fill="#ffefde" stroke="#000" stroke-miterlimit="10" stroke-width="0.25"/>
      </g>
      <ellipse id="Ellipse_2102" data-name="Ellipse 2102" cx="4.765" cy="2.829" rx="4.765" ry="2.829" transform="matrix(0.954, -0.301, 0.301, 0.954, 204.42, 61.147)" fill="#dffffa" stroke="#231815" stroke-miterlimit="10" stroke-width="0.25"/>
      <ellipse id="Ellipse_2103" data-name="Ellipse 2103" cx="3.099" cy="1.666" rx="3.099" ry="1.666" transform="matrix(0.947, -0.321, 0.321, 0.947, 91.511, 109.337)" fill="#dffffa" stroke="#231815" stroke-miterlimit="10" stroke-width="0.25"/>
      <ellipse id="Ellipse_2104" data-name="Ellipse 2104" cx="7.398" cy="3.657" rx="7.398" ry="3.657" transform="translate(101.896 113.441) rotate(-30)" fill="#dffffa" stroke="#231815" stroke-miterlimit="10" stroke-width="0.25"/>
      <ellipse id="Ellipse_2105" data-name="Ellipse 2105" cx="7.398" cy="3.657" rx="7.398" ry="3.657" transform="translate(216.444 121.961) rotate(-30)" fill="#dffffa" stroke="#231815" stroke-miterlimit="10" stroke-width="0.25"/>
      <ellipse id="Ellipse_2106" data-name="Ellipse 2106" cx="8.894" cy="4.364" rx="8.894" ry="4.364" transform="translate(148.406 119.737) rotate(-16.299)" fill="#dffffa" stroke="#231815" stroke-miterlimit="10" stroke-width="0.25"/>
      <ellipse id="Ellipse_2107" data-name="Ellipse 2107" cx="4.738" cy="4.156" rx="4.738" ry="4.156" transform="matrix(0.781, -0.625, 0.625, 0.781, 104.75, 194.997)" fill="#dffffa" stroke="#231815" stroke-miterlimit="10" stroke-width="0.25"/>
      <ellipse id="Ellipse_2108" data-name="Ellipse 2108" cx="5.424" cy="2.995" rx="5.424" ry="2.995" transform="translate(37.34 161.976) rotate(-41.056)" fill="#dffffa" stroke="#231815" stroke-miterlimit="10" stroke-width="0.25"/>
      <ellipse id="Ellipse_2109" data-name="Ellipse 2109" cx="3.076" cy="1.745" rx="3.076" ry="1.745" transform="matrix(0.844, -0.537, 0.537, 0.844, 28.8, 161.545)" fill="#dffffa" stroke="#231815" stroke-miterlimit="10" stroke-width="0.25"/>
    </g>
    <g id="Group_3683" data-name="Group 3683" transform="translate(2167.797 1567.577)">
      <g id="Group_3682" data-name="Group 3682" transform="translate(0 39.451)">
        <path id="Path_12997" data-name="Path 12997" d="M2274.055,1565.256s.25,15.71-8.56,17.7-10.307-5.055-10.307-5.055l1.662-11.708,7.772-6.51Z" transform="translate(-2098.842 -1511.462)" fill="#ffe3ca" stroke="#000" stroke-miterlimit="10" stroke-width="0.25"/>
        <path id="Path_12998" data-name="Path 12998" d="M2263.7,1567.236s2.077,13.3-5.57,19.117-17.87,2.576-21.194-1.746l3.657-19.366,14.545-3.741Z" transform="translate(-2104.863 -1510.865)" fill="#ffe3ca" stroke="#000" stroke-miterlimit="10" stroke-width="0.25"/>
        <path id="Path_12999" data-name="Path 12999" d="M2270.015,1564.075s-2.908,11.3-13.381,12.468-12.884-8.062-12.884-8.062l7.167-20.254,14.362-3.6Z" transform="translate(-2102.615 -1516.431)" fill="#ffe3ca" stroke="#000" stroke-miterlimit="10" stroke-width="0.25"/>
        <path id="Path_13000" data-name="Path 13000" d="M2198.039,1563.268s-12.053,9.558-11.47,19.033,9.226,15.294,17.7,14.38,12.135-8.562,12.135-8.562l.748-17.2-7.979-8.977Z" transform="translate(-2121.486 -1510.72)" fill="#ffe3ca" stroke="#000" stroke-miterlimit="10" stroke-width="0.25"/>
        <path id="Path_13001" data-name="Path 13001" d="M2208.75,1569.236s-5.9,16.448,2.493,22.6,15.46-.166,19.367-5.237l-1.995-18.535Z" transform="translate(-2114.827 -1508.699)" fill="#ffe3ca" stroke="#000" stroke-miterlimit="10" stroke-width="0.25"/>
        <path id="Path_13002" data-name="Path 13002" d="M2260.689,1547.333s1.866,12.122-2.142,18.39a18.914,18.914,0,0,1-10.242,7.849s-2.434,22.418-14.879,23.688-13.465-15.21-12.55-19.948l15.32-26.764Z" transform="translate(-2110.245 -1515.538)" fill="#ffe3ca" stroke="#000" stroke-miterlimit="10" stroke-width="0.25"/>
        <path id="Path_13003" data-name="Path 13003" d="M2242.443,1549.75s3.381,5.985-4.6,18.2-19.366,14.3-27.013,10.307-9.143-14.126-9.143-14.126l5.957-12.167Z" transform="translate(-2116.491 -1514.74)" fill="#ffe3ca" stroke="#000" stroke-miterlimit="10" stroke-width="0.25"/>
        <path id="Path_13004" data-name="Path 13004" d="M2145.3,1545.361s-6.067,5.089-3.657,18.388,14.13,16.54,21.943,12.218l1.164-25.018Z" transform="translate(-2136.488 -1516.189)" fill="#ffe3ca" stroke="#000" stroke-miterlimit="10" stroke-width="0.25"/>
        <path id="Path_13005" data-name="Path 13005" d="M2139.032,1523.425a32.05,32.05,0,0,0,0,18.8c3.165,10.057,8.65,15.958,18.874,15.46l6.235-18.037Z" transform="translate(-2137.625 -1523.425)" fill="#ffe3ca" stroke="#000" stroke-miterlimit="10" stroke-width="0.25"/>
        <path id="Path_13006" data-name="Path 13006" d="M2157.557,1552.246s-5.4,18.869,1.579,26.265,13.881,5.154,15.876,3.242c0,0,3.824,10.722,12.717,6.233l-6.233-26.764-11.376-9.968Z" transform="translate(-2131.707 -1514.244)" fill="#ffe3ca" stroke="#000" stroke-miterlimit="10" stroke-width="0.25"/>
        <path id="Path_13007" data-name="Path 13007" d="M2157.1,1536.563a16.161,16.161,0,0,0-5.4,15.542c1.829,10.141,13.631,8.229,17.7,6.4s4.156-14.463,4.156-14.463Z" transform="translate(-2133.081 -1519.091)" fill="#ffe3ca" stroke="#000" stroke-miterlimit="10" stroke-width="0.25"/>
        <path id="Path_13008" data-name="Path 13008" d="M2211.067,1552.482s5.015,9.694-3.546,18.7-13.977,2.689-14.511-1.051l-1.7-21.943Z" transform="translate(-2119.914 -1515.256)" fill="#ffe3ca" stroke="#000" stroke-miterlimit="10" stroke-width="0.25"/>
        <path id="Path_13009" data-name="Path 13009" d="M2169.219,1542.188a19.034,19.034,0,0,0-3.491,18.951c3.99,11.138,10.972,8.478,12.135,7.4,0,0-2.079,13.632,3.823,20.863s13.381,2.41,16.706-2.743,7.675-16.374,3.214-34.078Z" transform="translate(-2128.741 -1517.236)" fill="#ffe3ca" stroke="#000" stroke-miterlimit="10" stroke-width="0.25"/>
      </g>
      <path id="Path_13010" data-name="Path 13010" d="M2263.284,1497.736s-12.911-7.979-23.217-1.33c0,0-8.228-5.652-17.788.915a29.6,29.6,0,0,0-19.033-.5c-9.892,3.324-12.468,7.979-12.468,7.979s-10.723-5.237-25.1,1.33-14.13,13.968-14.13,13.968-17.954,6.646-11.72,21.607,21.528,8.977,21.528,8.977-2.411,6.483,4.239,9.309,12.219-1.828,12.219-1.828a17.639,17.639,0,0,0,13.325,14.268c11.969,2.992,19.063-3.879,19.063-3.879a7.591,7.591,0,0,0,7.594,5.542,17.1,17.1,0,0,0,10.692-3.657s6.427,6.982,19.061,5.763,15.737-7.98,15.737-7.98,10.529,3.768,19.063-1.995Z" transform="translate(-2137.333 -1493.76)" fill="#fff2e3" stroke="#000" stroke-miterlimit="10" stroke-width="0.25"/>
      <path id="Path_13011" data-name="Path 13011" d="M2165.75,1531.023c0-8.485,22.941-24.769,47.876-26.1s44.385,4.1,49.539,14.685,3.44,23.716-12.411,26.708-41.284,4.156-56.578,1.662S2165.75,1538.67,2165.75,1531.023Z" transform="translate(-2128.347 -1490.143)" fill="#fcfcfc" stroke="#000" stroke-miterlimit="10" stroke-width="0.25"/>
      <path id="Path_13012" data-name="Path 13012" d="M2191.672,1519.681c2.513-3.714,23.107,1.339,17.289,7.823S2187.516,1525.824,2191.672,1519.681Z" transform="translate(-2120.024 -1485.625)" fill="#d6a47b" stroke="#000" stroke-miterlimit="10" stroke-width="0.25"/>
      <path id="Path_13013" data-name="Path 13013" d="M2204.251,1516.71c-.328-3.4,17.289-4.915,17.455,0S2204.916,1523.6,2204.251,1516.71Z" transform="translate(-2115.647 -1487.227)" fill="#d6a47b" stroke="#000" stroke-miterlimit="10" stroke-width="0.25"/>
      <path id="Path_13014" data-name="Path 13014" d="M2212.706,1529.964c-2.79-3.559,13.133-12.8,18.452-8.147S2217.527,1536.115,2212.706,1529.964Z" transform="translate(-2112.964 -1484.928)" fill="#d6a47b" stroke="#000" stroke-miterlimit="10" stroke-width="0.25"/>
      <ellipse id="Ellipse_2110" data-name="Ellipse 2110" cx="5.32" cy="2.538" rx="5.32" ry="2.538" transform="translate(33.579 21.264)" fill="#dffffa" stroke="#231815" stroke-miterlimit="10" stroke-width="0.25"/>
      <ellipse id="Ellipse_2111" data-name="Ellipse 2111" cx="3.075" cy="1.52" rx="3.075" ry="1.52" transform="translate(22.608 21.264)" fill="#dffffa" stroke="#231815" stroke-miterlimit="10" stroke-width="0.25"/>
    </g>
    <path id="Path_13015" data-name="Path 13015" d="M2383.786,1500.231s-3.823-10.757-15.46-12.444-12.967,8.288-1.164,5.462,16.457-14.961,16.624-27.1-17.787-17.787-33.746-8.811-32.669,17.649-55.024,18.1S2268.75,1462,2268.75,1462" transform="translate(73.429 60.35)" fill="none" stroke="#000" stroke-miterlimit="10" stroke-width="0.25"/>
    <path id="Path_13016" data-name="Path 13016" d="M2284.75,1446.479s18.785-3.321,30.587,8.729,9.974,28.341,2.826,30.668-7.813-8.021-3.491-8.166" transform="translate(78.707 58.081)" fill="none" stroke="#000" stroke-miterlimit="10" stroke-width="0.25"/>
    <g id="Group_3684" data-name="Group 3684" transform="translate(2046.167 1620.537)">
      <ellipse id="Ellipse_2112" data-name="Ellipse 2112" cx="4.973" cy="2.64" rx="4.973" ry="2.64" transform="translate(387.026 65.126)" fill="#c19165" stroke="#000" stroke-linejoin="round" stroke-width="0.25"/>
      <ellipse id="Ellipse_2113" data-name="Ellipse 2113" cx="3.717" cy="1.995" rx="3.717" ry="1.995" transform="translate(375.453 55.745)" fill="#ecb36f" stroke="#000" stroke-linejoin="round" stroke-width="0.25"/>
      <ellipse id="Ellipse_2114" data-name="Ellipse 2114" cx="6.428" cy="3.546" rx="6.428" ry="3.546" transform="translate(348.653 120.688)" fill="#c19165" stroke="#000" stroke-linejoin="round" stroke-width="0.25"/>
      <ellipse id="Ellipse_2115" data-name="Ellipse 2115" cx="5.541" cy="2.591" rx="5.541" ry="2.591" transform="translate(233.839 100.878)" fill="#ecb36f" stroke="#000" stroke-linejoin="round" stroke-width="0.25"/>
      <ellipse id="Ellipse_2116" data-name="Ellipse 2116" cx="4.211" cy="1.973" rx="4.211" ry="1.973" transform="translate(221.87 93.647)" fill="#ecb36f" stroke="#000" stroke-linejoin="round" stroke-width="0.25"/>
      <ellipse id="Ellipse_2117" data-name="Ellipse 2117" cx="4.969" cy="2.438" rx="4.969" ry="2.438" transform="translate(139.951 121.132)" fill="#c19165" stroke="#000" stroke-linejoin="round" stroke-width="0.25"/>
      <ellipse id="Ellipse_2118" data-name="Ellipse 2118" cx="4.987" cy="2.549" rx="4.987" ry="2.549" transform="translate(76.912 112.709)" fill="#ecb36f" stroke="#000" stroke-linejoin="round" stroke-width="0.25"/>
      <ellipse id="Ellipse_2119" data-name="Ellipse 2119" cx="9.531" cy="3.546" rx="9.531" ry="3.546" transform="translate(54.747 123.57)" fill="#c19165" stroke="#000" stroke-linejoin="round" stroke-width="0.25"/>
      <ellipse id="Ellipse_2120" data-name="Ellipse 2120" cx="6.144" cy="2.766" rx="6.144" ry="2.766" transform="translate(40.783 36.884)" fill="#c19165" stroke="#000" stroke-linejoin="round" stroke-width="0.25"/>
      <ellipse id="Ellipse_2121" data-name="Ellipse 2121" cx="4.738" cy="2.149" rx="4.738" ry="2.149" transform="translate(28.204 27.567)" fill="#ecb36f" stroke="#000" stroke-linejoin="round" stroke-width="0.25"/>
      <path id="Path_13017" data-name="Path 13017" d="M2046.167,1564.855a22.87,22.87,0,0,1,15.072,0c7.979,2.882,10.972.492,13.133-.64s4.378-1.5,7.813,2.008" transform="translate(-2046.167 -1523.739)" fill="none" stroke="#000" stroke-miterlimit="10" stroke-width="0.25"/>
      <path id="Path_13018" data-name="Path 13018" d="M2058.667,1571.3s7.757,4.156,15.072,0,10.329-3.235,15.233.737,11.522.878,16.1-3.449" transform="translate(-2042.043 -1522.036)" fill="none" stroke="#000" stroke-miterlimit="10" stroke-width="0.25"/>
      <path id="Path_13019" data-name="Path 13019" d="M2133.75,1606s1.193,3.658,6.332,2,8.131-2.126,11.955.434" transform="translate(-2017.274 -1509.694)" fill="none" stroke="#000" stroke-miterlimit="10" stroke-width="0.25"/>
      <path id="Path_13020" data-name="Path 13020" d="M2130.366,1611.375s7.493,5.652,18.132,1.662,9.475,1.662,19.782.5" transform="translate(-2018.39 -1507.92)" fill="none" stroke="#000" stroke-miterlimit="10" stroke-width="0.25"/>
      <path id="Path_13021" data-name="Path 13021" d="M2203.25,1625.453s7.647-3.27,15.294,0,12.8,1.139,17.289-1.453,11.3-2.592,17.122,2.4" transform="translate(-1994.347 -1504.322)" fill="none" stroke="#000" stroke-miterlimit="10" stroke-width="0.25"/>
      <path id="Path_13022" data-name="Path 13022" d="M2190.438,1632.125s7.655,5.984,16.253,2.327,14.314-1.623,17.358,1.184,10.525,2.307,14.681-1.017" transform="translate(-1998.573 -1501.075)" fill="none" stroke="#000" stroke-miterlimit="10" stroke-width="0.25"/>
      <path id="Path_13023" data-name="Path 13023" d="M2268.25,1595.071s6.483-4.987,13.133-1.662,12.634,5.486,20.447,1.662,16.291-2.6,19.117-.387" transform="translate(-1972.903 -1514.224)" fill="none" stroke="#000" stroke-miterlimit="10" stroke-width="0.25"/>
      <path id="Path_13024" data-name="Path 13024" d="M2302.25,1588.221s4.248,3.48,11.018,1.153,8.6-1.887,12.255.8,8.771,1.317,11.617-1.156" transform="translate(-1961.687 -1515.676)" fill="none" stroke="#000" stroke-miterlimit="10" stroke-width="0.25"/>
      <path id="Path_13025" data-name="Path 13025" d="M2299.875,1617.04a9.889,9.889,0,0,1,8.478,0c4.488,2.161,7.295-3.491,12.126,0" transform="translate(-1962.47 -1506.437)" fill="none" stroke="#000" stroke-miterlimit="10" stroke-width="0.25"/>
      <path id="Path_13026" data-name="Path 13026" d="M2336.25,1537.952s4.322-1.829,7.813,0,11.636-1.5,16.956,1.828" transform="translate(-1950.47 -1532.41)" fill="none" stroke="#000" stroke-miterlimit="10" stroke-width="0.25"/>
      <path id="Path_13027" data-name="Path 13027" d="M2344,1534.47s4.821-1.995,8.977,0,9.309.887,10.306-.887" transform="translate(-1947.914 -1533.583)" fill="none" stroke="#000" stroke-miterlimit="10" stroke-width="0.25"/>
    </g>
    <g id="Group_3688" data-name="Group 3688" transform="translate(2272.706 1528.495)">
      <g id="Group_3687" data-name="Group 3687">
        <g id="Group_3685" data-name="Group 3685" transform="translate(0 7.028)">
          <path id="Path_13028" data-name="Path 13028" d="M2320.982,1572.36s-6.317,7.849-14.851,7.849-12.162-4.308-13.632-8.865l6.428-6.761,18.618.583Z" transform="translate(-2191.442 -1438.342)" fill="#ffefde" stroke="#000" stroke-miterlimit="10" stroke-width="0.25"/>
          <path id="Path_13029" data-name="Path 13029" d="M2342.792,1541.667s2.337,14.3-2.54,21.943-8.089,8.533-10.972,5.652,2.992-16.416,2.992-16.416Z" transform="translate(-2179.571 -1445.901)" fill="#ffefde" stroke="#000" stroke-miterlimit="10" stroke-width="0.25"/>
          <path id="Path_13030" data-name="Path 13030" d="M2338.749,1552.5s1.452,10.2-6.532,20.059-18.293,12.413-21.063,4.766,4.66-20.736,4.66-20.736l13.294-4.089Z" transform="translate(-2185.493 -1442.328)" fill="#ffefde" stroke="#000" stroke-miterlimit="10" stroke-width="0.25"/>
          <path id="Path_13031" data-name="Path 13031" d="M2257.7,1546.766a7.871,7.871,0,0,0-4.1,7.771c.332,5.764,8.311,7.98,13.631,2.328l-1.552-9.642Z" transform="translate(-2204.282 -1444.219)" fill="#ffefde" stroke="#000" stroke-miterlimit="10" stroke-width="0.25"/>
          <path id="Path_13032" data-name="Path 13032" d="M2303.164,1571.437s-5.32,8.866-17.953,6.871-11.969-10.529-11.3-14.518l9.421-6.207,18.729,7.869Z" transform="translate(-2197.674 -1440.651)" fill="#ffefde" stroke="#000" stroke-miterlimit="10" stroke-width="0.25"/>
          <path id="Path_13033" data-name="Path 13033" d="M2235.609,1496.794a11.857,11.857,0,0,0-15.185-.775c-8.424,5.873-2.327,23.938,9.53,21.167S2235.609,1496.794,2235.609,1496.794Z" transform="translate(-2216.51 -1461.76)" fill="#ffefde" stroke="#000" stroke-miterlimit="10" stroke-width="0.25"/>
          <path id="Path_13034" data-name="Path 13034" d="M2239.369,1469.657s-13.432,7-15.427,20.515,2.993,16.07,11.3,15.516l4.655-14.739Z" transform="translate(-2214.203 -1469.657)" fill="#ffefde" stroke="#000" stroke-miterlimit="10" stroke-width="0.25"/>
          <path id="Path_13035" data-name="Path 13035" d="M2268.405,1535.125s-10.529,13.355-9.642,23.107,6.095,17.178,16.956,16.624,19.062-15.072,20.447-22.442Z" transform="translate(-2202.589 -1448.06)" fill="#ffefde" stroke="#000" stroke-miterlimit="10" stroke-width="0.25"/>
          <path id="Path_13036" data-name="Path 13036" d="M2243.009,1540.322s-14.619-2.882-19.057-14.3-.333-19.838,8.2-22.276l18.073,18.286-2.893,15.183Z" transform="translate(-2214.652 -1458.41)" fill="#ffefde" stroke="#000" stroke-miterlimit="10" stroke-width="0.25"/>
          <path id="Path_13037" data-name="Path 13037" d="M2326.083,1555.375s-1.552,13.465-12.634,18.12-19.838-.053-19.948-5.29l5.43-11.273Z" transform="translate(-2191.112 -1441.379)" fill="#ffefde" stroke="#000" stroke-miterlimit="10" stroke-width="0.25"/>
          <path id="Path_13038" data-name="Path 13038" d="M2338.777,1526a22.163,22.163,0,0,1-2.484,14.515l-4.875-8.534Z" transform="translate(-2178.604 -1451.069)" fill="#ffefde" stroke="#000" stroke-miterlimit="10" stroke-width="0.25"/>
          <path id="Path_13039" data-name="Path 13039" d="M2307.277,1563.132s-4.91,13.2-20.037,8.715-1.073-25.08-1.073-25.08l8.554,2.14Z" transform="translate(-2195.492 -1444.219)" fill="#ffefde" stroke="#000" stroke-miterlimit="10" stroke-width="0.25"/>
          <path id="Path_13040" data-name="Path 13040" d="M2235.14,1489.875s-5.113,1.606-7.448,13.355,5.313,20.281,15.177,21.278c0,0,8.2.791,10.639-8.416Z" transform="translate(-2212.961 -1462.987)" fill="#ffefde" stroke="#000" stroke-miterlimit="10" stroke-width="0.25"/>
          <path id="Path_13041" data-name="Path 13041" d="M2246.363,1509.75a16.622,16.622,0,0,0-7.092,10.085c-1.662,6.982,1.773,13.631,7.867,12.524a9.6,9.6,0,0,0,7.537-6.483Z" transform="translate(-2209.14 -1456.431)" fill="#ffefde" stroke="#000" stroke-miterlimit="10" stroke-width="0.25"/>
          <path id="Path_13042" data-name="Path 13042" d="M2247.838,1520.83s-12.54,4.809-13.869,18.108,3.878,20.613,11.082,21.611a12.861,12.861,0,0,0,11.3-3.99s.731,5.382,5.762,5.431c5.209.051,13.411-3.214,14.519-21.667l-17.511-20.955Z" transform="translate(-2210.82 -1453.258)" fill="#ffefde" stroke="#000" stroke-miterlimit="10" stroke-width="0.25"/>
        </g>
        <path id="Path_13043" data-name="Path 13043" d="M2250.245,1470.609s2.327-6.4,7.48-6.233,6.151,6.982,6.151,6.982.665-2.66,2.992-2.494,4.322,3.657,4.322,3.657,4.987-5.987,14.13-4.075a18.112,18.112,0,0,1,12.468,9.893s5.486-5.486,16.125,0,16.125,18.286,17.954,26.432c0,0,10.639-2.161,17.787,4.322s6.649,13.964,2.826,16.79c0,0,12.967.332,17.954,11.47s1.995,13.964-2.161,15.128c0,0,6.649,2.327,7.647,13.3s-2.826,17.621-9.808,15.792c0,0-3.158,5.985-9.309,6.65s-8.977-2.826-8.977-2.826-.5,7.813-14.13,6.816-23.605-9.808-27.263-16.457c0,0-7.314,3.99-17.289-1.164s-10.473-16.125-10.473-16.125-7.813,2.494-14.629-4.821-5.652-12.8-5.652-12.8-7.813,2.66-9.642-4.322a15.517,15.517,0,0,1,1.33-11.8,13.425,13.425,0,0,1-10.389-.415c-5.486-2.577-13.216-13.631-4.655-26.016,0,0-10.639-2.576-6.483-14.3S2246.089,1464.126,2250.245,1470.609Z" transform="translate(-2212.856 -1464.373)" fill="#fff6eb" stroke="#000" stroke-miterlimit="10" stroke-width="0.25"/>
        <g id="Group_3686" data-name="Group 3686" transform="translate(43.392 19.643)">
          <path id="Path_13044" data-name="Path 13044" d="M2259.261,1480.5c7.315-2.144,20.724-4.873,50.2,18.843s48.319,39.011,41.67,57.407-41.447,7.757-60.288-4.877-35.021-27.705-40.119-46.767S2253.975,1482.05,2259.261,1480.5Z" transform="translate(-2249.139 -1479.143)" fill="#fcfcfc"/>
          <path id="Path_13045" data-name="Path 13045" d="M2259.261,1480.5c7.315-2.144,20.724-4.873,50.2,18.843s48.319,39.011,41.67,57.407-41.447,7.757-60.288-4.877-35.021-27.705-40.119-46.767S2253.975,1482.05,2259.261,1480.5Z" transform="translate(-2249.139 -1479.143)" fill="none" stroke="#000" stroke-miterlimit="10" stroke-width="0.25"/>
        </g>
        <ellipse id="Ellipse_2122" data-name="Ellipse 2122" cx="1.718" cy="3.158" rx="1.718" ry="3.158" transform="matrix(0.561, -0.828, 0.828, 0.561, 89.593, 21.565)" fill="#dffffa" stroke="#231815" stroke-miterlimit="10" stroke-width="0.25"/>
        <ellipse id="Ellipse_2123" data-name="Ellipse 2123" cx="2.616" cy="5.874" rx="2.616" ry="5.874" transform="matrix(0.561, -0.828, 0.828, 0.561, 98.448, 25.604)" fill="#dffffa" stroke="#231815" stroke-miterlimit="10" stroke-width="0.25"/>
        <path id="Path_13046" data-name="Path 13046" d="M2275.105,1503.341c4.48-.94,16.624,19.616,9.087,23.052S2266.128,1505.225,2275.105,1503.341Z" transform="translate(-2198.318 -1451.528)" fill="#d6a47b" stroke="#000" stroke-miterlimit="10" stroke-width="0.25"/>
        <path id="Path_13047" data-name="Path 13047" d="M2284.619,1506.539c1.327-5.232,20.5,1.692,18.841,8.493S2282.625,1514.408,2284.619,1506.539Z" transform="translate(-2194.09 -1451.068)" fill="#d6a47b" stroke="#000" stroke-miterlimit="10" stroke-width="0.25"/>
        <path id="Path_13048" data-name="Path 13048" d="M2287.136,1526.083c-2.35-6.13,15.516-9.754,17.733-3.325S2290.24,1534.172,2287.136,1526.083Z" transform="translate(-2193.282 -1446.23)" fill="#d6a47b" stroke="#000" stroke-miterlimit="10" stroke-width="0.25"/>
      </g>
    </g>
  </g>
</svg>
