<svg xmlns="http://www.w3.org/2000/svg" width="390.768" height="441.795" viewBox="0 0 390.768 441.795">
  <g id="Group_4706" data-name="Group 4706" transform="translate(-1655.924 -1278.929)">
    <g id="Group_4699" data-name="Group 4699" transform="translate(1689.333 1279.028)">
      <path id="Path_16742" data-name="Path 16742" d="M1752.5,1357.043s5.763-3.589,10.161-12.385,14.1-10.767,20.473-17.136,25.629-32.6,39.277-36.244,19.715-.635,27.6-5.776,12.587-7.873,18.5-5.75,11.675,7.6,23.961,5.787l-44.86,45.167-64.176,28.065Z" transform="translate(-1668.787 -1279.028)" fill="#a5b63d" stroke="#231815" stroke-miterlimit="10" stroke-width="0.25"/>
      <path id="Path_16743" data-name="Path 16743" d="M1771.691,1323.48s-.373,15.948,3.414,25.577" transform="translate(-1664.698 -1269.551)" fill="none" stroke="#000" stroke-miterlimit="10" stroke-width="0.25"/>
      <path id="Path_16744" data-name="Path 16744" d="M1788.428,1307.712s-8.269,21.481-2.688,41.018" transform="translate(-1662.113 -1272.913)" fill="none" stroke="#000" stroke-miterlimit="10" stroke-width="0.25"/>
      <path id="Path_16745" data-name="Path 16745" d="M1833.933,1286.837s-31.458,17.941-42.7,63.247" transform="translate(-1660.529 -1277.363)" fill="none" stroke="#000" stroke-miterlimit="10" stroke-width="0.25"/>
      <path id="Path_16746" data-name="Path 16746" d="M1810.685,1289.125s-5.638,10.72-1.91,17.34" transform="translate(-1657.062 -1276.875)" fill="none" stroke="#000" stroke-miterlimit="10" stroke-width="0.25"/>
      <path id="Path_16747" data-name="Path 16747" d="M1857.884,1282.08c-.778.965-19.426,5.435-25.569,20.564" transform="translate(-1651.771 -1278.377)" fill="none" stroke="#000" stroke-miterlimit="10" stroke-width="0.25"/>
      <path id="Path_16748" data-name="Path 16748" d="M1915.708,1289.072c-7.2-8.124-13.275-4.278-19.219,1.062-9.626,8.644-19.028-.152-25.852,5.308s-16.682,21.231-28.207,24.416-22.293-1.82-32.908,6.824-9.857,18.8-23.506,24.416-22.293.6-33.515,6.517-11.677,16.382-23.809,19.718-12.435-.3-20.928,5.763-6.47,8.189-13.952,10.818-14.356,10.109-7.482,19.208,23.657,13.143,46.911,12.536,95.384,5.24,95.384,5.24l63.393-68.047s-7.527-27.828,6.322-42.69S1921.351,1295.442,1915.708,1289.072Z" transform="translate(-1683.498 -1277.884)" fill="#bfc632" stroke="#231815" stroke-miterlimit="10" stroke-width="0.25"/>
      <path id="Path_16749" data-name="Path 16749" d="M1816.321,1313.625s-13.952,23.23-9.479,45.736" transform="translate(-1657.39 -1271.652)" fill="none" stroke="#000" stroke-miterlimit="10" stroke-width="0.25"/>
      <path id="Path_16750" data-name="Path 16750" d="M1794.554,1315.574s3.956,22,14.3,26.8" transform="translate(-1659.822 -1271.236)" fill="none" stroke="#000" stroke-miterlimit="10" stroke-width="0.25"/>
      <path id="Path_16751" data-name="Path 16751" d="M1882.61,1288.25s-34.174,15.242-43.869,51.068" transform="translate(-1650.401 -1277.062)" fill="none" stroke="#000" stroke-miterlimit="10" stroke-width="0.25"/>
      <path id="Path_16752" data-name="Path 16752" d="M1851.973,1292.391s-2.464,9.333-.767,17.7" transform="translate(-1647.871 -1276.179)" fill="none" stroke="#000" stroke-miterlimit="10" stroke-width="0.25"/>
      <path id="Path_16753" data-name="Path 16753" d="M1849.359,1292.075s-18.291,28.072-22.234,58.121" transform="translate(-1652.878 -1276.246)" fill="none" stroke="#000" stroke-miterlimit="10" stroke-width="0.25"/>
      <path id="Path_16754" data-name="Path 16754" d="M1829.591,1302.082s0,11.881,5.933,14" transform="translate(-1652.352 -1274.113)" fill="none" stroke="#000" stroke-miterlimit="10" stroke-width="0.25"/>
      <path id="Path_16755" data-name="Path 16755" d="M1773.862,1335.886s6.385,8.471,13.361,10.75c0,0,10.037,18.362,13.813,39.513" transform="translate(-1664.233 -1266.906)" fill="none" stroke="#000" stroke-miterlimit="10" stroke-width="0.25"/>
      <path id="Path_16756" data-name="Path 16756" d="M1782.375,1324.566s6.218,13.712,3.033,24.484" transform="translate(-1662.418 -1269.319)" fill="none" stroke="#000" stroke-miterlimit="10" stroke-width="0.25"/>
      <path id="Path_16757" data-name="Path 16757" d="M1740.375,1344.747s12.89,16.651,29.875,16.82c0,0,16.855,41.015,50.284,52.135" transform="translate(-1671.372 -1265.017)" fill="none" stroke="#000" stroke-miterlimit="10" stroke-width="0.25"/>
      <path id="Path_16758" data-name="Path 16758" d="M1765.256,1340.375A24.362,24.362,0,0,1,1765,1362.5" transform="translate(-1666.123 -1265.949)" fill="none" stroke="#000" stroke-miterlimit="10" stroke-width="0.25"/>
      <path id="Path_16759" data-name="Path 16759" d="M1711.881,1362.456s13.338,15.218,23.953,14.157c0,0,20.776,19.411,76.346,36.831" transform="translate(-1677.448 -1261.241)" fill="none" stroke="#000" stroke-miterlimit="10" stroke-width="0.25"/>
      <path id="Path_16760" data-name="Path 16760" d="M1729.568,1355.2s5.225,12.5,2.5,22.96" transform="translate(-1673.677 -1262.788)" fill="none" stroke="#000" stroke-miterlimit="10" stroke-width="0.25"/>
      <path id="Path_16761" data-name="Path 16761" d="M1687.242,1377.316s23.212,17.815,33.751,14.478c0,0,23.734,14.964,57.56,15.786" transform="translate(-1682.7 -1258.073)" fill="none" stroke="#000" stroke-miterlimit="10" stroke-width="0.25"/>
      <path id="Path_16762" data-name="Path 16762" d="M1703.5,1365.75a54.555,54.555,0,0,0,14.027,28.51" transform="translate(-1679.234 -1260.539)" fill="none" stroke="#000" stroke-miterlimit="10" stroke-width="0.25"/>
    </g>
    <g id="Group_4700" data-name="Group 4700" transform="translate(1822.606 1322.637)">
      <path id="Path_16763" data-name="Path 16763" d="M1808.141,1426.013c-7.937-6.673-17.642-21.231-14-29.723s7.683-12.536,10.515-26.084,10.513-16.782,21.635-20.827,16.176-15.165,27.094-17.591,20.423,2.225,30.937-3.64,26.69-17.186,44.888-11.727,19.21,14.153,24.264,21.432,21.434,6.269,26.084,16.378-3.841,15.974-1.011,25.882,11.122,10.26,12.536,20.5-7.885,23.785-17.186,28.435l-104.52,17.819-44.562-3.261Z" transform="translate(-1793.351 -1314.973)" fill="#a5b63d" stroke="#231815" stroke-miterlimit="10" stroke-width="0.25"/>
      <path id="Path_16764" data-name="Path 16764" d="M1845.452,1328.407s43.33,56.527,46.564,109.568" transform="translate(-1782.242 -1312.109)" fill="none" stroke="#000" stroke-miterlimit="10" stroke-width="0.25"/>
      <path id="Path_16765" data-name="Path 16765" d="M1879.762,1411.025c31.255-30.825,47.788-86.867,47.788-86.867" transform="translate(-1774.928 -1313.015)" fill="none" stroke="#000" stroke-miterlimit="10" stroke-width="0.25"/>
      <path id="Path_16766" data-name="Path 16766" d="M1803.122,1358.611s24.52,11.391,40.7,28.578,43.691,25.714,54.4,24.887" transform="translate(-1791.267 -1305.67)" fill="none" stroke="#000" stroke-miterlimit="10" stroke-width="0.25"/>
      <path id="Path_16767" data-name="Path 16767" d="M1797,1375.913s20.018,13.653,48.124,7.587" transform="translate(-1792.573 -1301.981)" fill="none" stroke="#000" stroke-miterlimit="10" stroke-width="0.25"/>
      <path id="Path_16768" data-name="Path 16768" d="M1799.271,1399.665s30.422,17.076,80.046,0" transform="translate(-1792.089 -1296.917)" fill="none" stroke="#000" stroke-miterlimit="10" stroke-width="0.25"/>
      <path id="Path_16769" data-name="Path 16769" d="M1820.5,1343.333s8.242,12.537,18.983,11.931c0,0,19.022,21.327,41.571,21.28" transform="translate(-1787.562 -1308.927)" fill="none" stroke="#000" stroke-miterlimit="10" stroke-width="0.25"/>
      <path id="Path_16770" data-name="Path 16770" d="M1830.9,1336.326s7.356,10.523,6.368,20.432" transform="translate(-1785.345 -1310.421)" fill="none" stroke="#000" stroke-miterlimit="10" stroke-width="0.25"/>
      <path id="Path_16771" data-name="Path 16771" d="M1860.807,1328.407s5.4,12.4-1.748,25.06" transform="translate(-1779.341 -1312.109)" fill="none" stroke="#000" stroke-miterlimit="10" stroke-width="0.25"/>
      <path id="Path_16772" data-name="Path 16772" d="M1880.842,1319.02s1.4,13.118,11.11,22.623c0,0-2.971,30.893,9.432,41.934" transform="translate(-1774.698 -1314.11)" fill="none" stroke="#000" stroke-miterlimit="10" stroke-width="0.25"/>
      <path id="Path_16773" data-name="Path 16773" d="M1900.489,1314.973s.43,23.084-10.489,27.532" transform="translate(-1772.745 -1314.973)" fill="none" stroke="#000" stroke-miterlimit="10" stroke-width="0.25"/>
      <path id="Path_16774" data-name="Path 16774" d="M1943.227,1339.982s-17.777,16.174-35.748,16.994" transform="translate(-1769.018 -1309.641)" fill="none" stroke="#000" stroke-miterlimit="10" stroke-width="0.25"/>
      <path id="Path_16775" data-name="Path 16775" d="M1956.991,1343.333s-9.5,10.111-8.018,27.1c0,0-14.334,18.846-68.443,39.974" transform="translate(-1774.764 -1308.927)" fill="none" stroke="#000" stroke-miterlimit="10" stroke-width="0.25"/>
      <path id="Path_16776" data-name="Path 16776" d="M1949.275,1347.975s-4.613,12.566-12.33,21.464" transform="translate(-1762.736 -1307.937)" fill="none" stroke="#000" stroke-miterlimit="10" stroke-width="0.25"/>
      <path id="Path_16777" data-name="Path 16777" d="M1957.01,1376.621s-18.416,7.629-32.994,0" transform="translate(-1765.493 -1301.83)" fill="none" stroke="#000" stroke-miterlimit="10" stroke-width="0.25"/>
      <path id="Path_16778" data-name="Path 16778" d="M1967.41,1381.694s-29.476.462-69.456,42.273" transform="translate(-1771.049 -1300.748)" fill="none" stroke="#000" stroke-miterlimit="10" stroke-width="0.25"/>
      <path id="Path_16779" data-name="Path 16779" d="M1961.514,1393.332s-11.136,6.633-34.935-.611" transform="translate(-1764.946 -1298.397)" fill="none" stroke="#000" stroke-miterlimit="10" stroke-width="0.25"/>
    </g>
    <g id="Group_4701" data-name="Group 4701" transform="translate(1656.13 1567.938)">
      <path id="Path_16780" data-name="Path 16780" d="M1735.134,1526.063c-19.411,1.82-35.755,5.763-39.109,11.829s-.32,16.075-16.092,24.264-29.723,24.871-21.231,37.306,25.68,13.952,33.464,24.567,27.5,12.132,44.484,5.156,45.192,19.108,64.906,17.592,38.822-25.477,55.2-25.781,43.186,5.763,58.293-11.525,22.233-7.2,18.365-44.7-33.543-47.6-33.543-47.6Z" transform="translate(-1656.13 -1517.167)" fill="#bfc632" stroke="#231815" stroke-miterlimit="10" stroke-width="0.25"/>
      <path id="Path_16781" data-name="Path 16781" d="M1699.111,1632.467s53.879-80.666,153.045-113.583" transform="translate(-1646.967 -1516.801)" fill="none" stroke="#000" stroke-miterlimit="10" stroke-width="0.25"/>
      <path id="Path_16782" data-name="Path 16782" d="M1660.831,1570.816s67.537-30.406,130.624-24.035" transform="translate(-1655.128 -1511.041)" fill="none" stroke="#000" stroke-miterlimit="10" stroke-width="0.25"/>
      <path id="Path_16783" data-name="Path 16783" d="M1688.174,1536.708s49.53-5.825,79.709,1" transform="translate(-1649.298 -1513.495)" fill="none" stroke="#000" stroke-miterlimit="10" stroke-width="0.25"/>
      <path id="Path_16784" data-name="Path 16784" d="M1685.616,1545.008s27.713-1.151,34.486,6.175" transform="translate(-1649.844 -1511.246)" fill="none" stroke="#000" stroke-miterlimit="10" stroke-width="0.25"/>
      <path id="Path_16785" data-name="Path 16785" d="M1658.25,1590.688s20.127-6.047,29.55-32.367" transform="translate(-1655.678 -1508.393)" fill="none" stroke="#000" stroke-miterlimit="10" stroke-width="0.25"/>
      <path id="Path_16786" data-name="Path 16786" d="M1656.357,1575.973s8.037-3.924,17.072,1.908" transform="translate(-1656.082 -1504.905)" fill="none" stroke="#000" stroke-miterlimit="10" stroke-width="0.25"/>
      <path id="Path_16787" data-name="Path 16787" d="M1663.393,1592.984s43.177-21.527,77.84-12.949" transform="translate(-1654.582 -1504.194)" fill="none" stroke="#000" stroke-miterlimit="10" stroke-width="0.25"/>
      <path id="Path_16788" data-name="Path 16788" d="M1680.929,1604.621s9.318-10.015,7.432-22.886" transform="translate(-1650.843 -1503.401)" fill="none" stroke="#000" stroke-miterlimit="10" stroke-width="0.25"/>
      <path id="Path_16789" data-name="Path 16789" d="M1745.315,1564.067a35.475,35.475,0,0,1-2.19,24.407s6.824,23.526,0,34.549" transform="translate(-1637.583 -1507.168)" fill="none" stroke="#000" stroke-miterlimit="10" stroke-width="0.25"/>
      <path id="Path_16790" data-name="Path 16790" d="M1727.554,1613.714s6.3-19.144,18.891-29.529" transform="translate(-1640.903 -1502.879)" fill="none" stroke="#000" stroke-miterlimit="10" stroke-width="0.25"/>
      <path id="Path_16791" data-name="Path 16791" d="M1777.416,1541.163s16.985,29.761-1.416,100.5" transform="translate(-1630.574 -1512.051)" fill="none" stroke="#000" stroke-miterlimit="10" stroke-width="0.25"/>
      <path id="Path_16792" data-name="Path 16792" d="M1749.743,1619.958s8.069-13.947,38.666-24.277" transform="translate(-1636.172 -1500.428)" fill="none" stroke="#000" stroke-miterlimit="10" stroke-width="0.25"/>
      <path id="Path_16793" data-name="Path 16793" d="M1797.851,1601.326c-7.128-16.681-14.8-25.325-14.8-25.325" transform="translate(-1629.071 -1504.624)" fill="none" stroke="#000" stroke-miterlimit="10" stroke-width="0.25"/>
      <path id="Path_16794" data-name="Path 16794" d="M1795.672,1596.875c-4.55,9.3-1.238,23.972-1.238,23.972" transform="translate(-1626.892 -1500.173)" fill="none" stroke="#000" stroke-miterlimit="10" stroke-width="0.25"/>
      <path id="Path_16795" data-name="Path 16795" d="M1808,1611.66a21.665,21.665,0,0,0-12.749-14.785" transform="translate(-1626.47 -1500.173)" fill="none" stroke="#000" stroke-miterlimit="10" stroke-width="0.25"/>
      <path id="Path_16796" data-name="Path 16796" d="M1841.6,1613.83s-20.874-49.519-52.448-60.859" transform="translate(-1627.77 -1509.534)" fill="none" stroke="#000" stroke-miterlimit="10" stroke-width="0.25"/>
      <path id="Path_16797" data-name="Path 16797" d="M1822.01,1610.413s-14.568-20.126-12.321-42.826" transform="translate(-1623.442 -1506.418)" fill="none" stroke="#000" stroke-miterlimit="10" stroke-width="0.25"/>
      <path id="Path_16798" data-name="Path 16798" d="M1848.1,1605.721s-4.507-11.135-21.2-13.6" transform="translate(-1619.72 -1501.187)" fill="none" stroke="#000" stroke-miterlimit="10" stroke-width="0.25"/>
      <path id="Path_16799" data-name="Path 16799" d="M1878.64,1600.781s-19.392-34.907-51.732-42.855" transform="translate(-1619.72 -1508.477)" fill="none" stroke="#000" stroke-miterlimit="10" stroke-width="0.25"/>
      <path id="Path_16800" data-name="Path 16800" d="M1856.995,1607.85s-8.762-18.364-4.314-35.555" transform="translate(-1614.494 -1505.414)" fill="none" stroke="#000" stroke-miterlimit="10" stroke-width="0.25"/>
      <path id="Path_16801" data-name="Path 16801" d="M1849.785,1560.916s-4-1.135-11.831,1.48" transform="translate(-1617.365 -1507.892)" fill="none" stroke="#000" stroke-miterlimit="10" stroke-width="0.25"/>
    </g>
    <g id="Group_4702" data-name="Group 4702" transform="translate(1686.177 1408.275)">
      <path id="Path_16802" data-name="Path 16802" d="M1955.375,1418.615s12.284-3.185,15.468-1.668,3.033,11.477,5,16.506.3,20.649-3.791,25.047-13.952,5.459-16.681,9.251Z" transform="translate(-1622.378 -1378.958)" fill="#7a5d49" stroke="#0a0503" stroke-miterlimit="10" stroke-width="0.25"/>
      <path id="Path_16803" data-name="Path 16803" d="M1825.961,1417.848s10.689-4.449,16.388,0l8.327,37.609-17.925,3.033Z" transform="translate(-1649.969 -1379.101)" fill="#7a5d49" stroke="#0a0503" stroke-miterlimit="10" stroke-width="0.25"/>
      <path id="Path_16804" data-name="Path 16804" d="M1688.6,1426.279c9.372-10.392,32.25-21.433,45.8-29.522s49.135-11.12,73.2-4.448,39.228,14.356,47.72,24.061,4.251,31.913,8.29,39.724-165.772,36.674-165.772,36.674-18.635-8.155-16.815-20.54,4.246-21.737,2.426-31.519C1682.535,1435.8,1687.239,1427.793,1688.6,1426.279Z" transform="translate(-1680.897 -1384.904)" fill="#f4d6b3" stroke="#000" stroke-miterlimit="10" stroke-width="0.25"/>
      <path id="Path_16805" data-name="Path 16805" d="M1845.872,1405.808c-6.859,6.332-8.947,20.51-5.384,31.563s6.286,26.229,6.294,35.77,14.1,45.848,29.572,49.235,40.49,2.8,49.438-1.911,33.515-6.227,45.95-24.577,13.648-40.036,11.374-54.746,1.365-27.9-14.862-39.884-42.007-20.018-72.337-13.194S1851.787,1400.349,1845.872,1405.808Z" transform="translate(-1647.237 -1385.562)" fill="#f4d6b3" stroke="#000" stroke-miterlimit="10" stroke-width="0.25"/>
      <path id="Path_16806" data-name="Path 16806" d="M1705.625,1416.567s11.98-5.914,22.9-4.4" transform="translate(-1675.625 -1379.943)" fill="none" stroke="#000" stroke-miterlimit="10" stroke-width="0.25"/>
      <path id="Path_16807" data-name="Path 16807" d="M1703.5,1420.779s3.488-2.578,6.824-2.275" transform="translate(-1676.078 -1378.544)" fill="none" stroke="#000" stroke-miterlimit="10" stroke-width="0.25"/>
      <path id="Path_16808" data-name="Path 16808" d="M1763.875,1416.375s21.231.607,40.187,11.222" transform="translate(-1663.206 -1378.993)" fill="none" stroke="#000" stroke-miterlimit="10" stroke-width="0.25"/>
      <path id="Path_16809" data-name="Path 16809" d="M1794,1421s5.308.607,8.8,4.094" transform="translate(-1656.783 -1378.007)" fill="none" stroke="#000" stroke-miterlimit="10" stroke-width="0.25"/>
      <path id="Path_16810" data-name="Path 16810" d="M1816.615,1423.375s7.291,3.488,10.173,10.767" transform="translate(-1651.962 -1377.501)" fill="none" stroke="#000" stroke-miterlimit="10" stroke-width="0.25"/>
      <path id="Path_16811" data-name="Path 16811" d="M1815,1427s7.6,3.185,10.395,10.464" transform="translate(-1652.306 -1376.728)" fill="none" stroke="#000" stroke-miterlimit="10" stroke-width="0.25"/>
      <ellipse id="Ellipse_2664" data-name="Ellipse 2664" cx="5.637" cy="9.453" rx="5.637" ry="9.453" transform="translate(139.734 26.919) rotate(-60)" fill="#dffffa" stroke="#231815" stroke-miterlimit="10" stroke-width="0.25"/>
      <ellipse id="Ellipse_2665" data-name="Ellipse 2665" cx="2.806" cy="4.246" rx="2.806" ry="4.246" transform="translate(118.15 16.898) rotate(-69.325)" fill="#dffffa" stroke="#231815" stroke-miterlimit="10" stroke-width="0.25"/>
      <path id="Path_16812" data-name="Path 16812" d="M1829,1404.125s.758,14.862,5.611,18.956" transform="translate(-1649.321 -1381.605)" fill="none" stroke="#000" stroke-miterlimit="10" stroke-width="0.25"/>
      <path id="Path_16813" data-name="Path 16813" d="M1827.437,1422.375a10.009,10.009,0,0,0,7.318,1.213" transform="translate(-1649.655 -1377.714)" fill="none" stroke="#000" stroke-miterlimit="10" stroke-width="0.25"/>
      <path id="Path_16814" data-name="Path 16814" d="M1833.7,1422.063s-1.564,4.795,1.213,18.577" transform="translate(-1648.412 -1377.781)" fill="none" stroke="#000" stroke-miterlimit="10" stroke-width="0.25"/>
      <path id="Path_16815" data-name="Path 16815" d="M1828.781,1429.626s2.493-.683,3.369-2.312" transform="translate(-1649.368 -1376.661)" fill="none" stroke="#000" stroke-miterlimit="10" stroke-width="0.25"/>
      <path id="Path_16816" data-name="Path 16816" d="M1830.908,1438.019s-.354-4.767,3.254-7.046" transform="translate(-1648.917 -1375.881)" fill="none" stroke="#000" stroke-miterlimit="10" stroke-width="0.25"/>
      <path id="Path_16817" data-name="Path 16817" d="M1834.315,1434.652a6.988,6.988,0,0,0-1.037,5.123" transform="translate(-1648.427 -1375.097)" fill="none" stroke="#000" stroke-miterlimit="10" stroke-width="0.25"/>
      <path id="Path_16818" data-name="Path 16818" d="M1834.437,1426.781s.039,10.2,3.072,15.582" transform="translate(-1648.162 -1376.775)" fill="none" stroke="#000" stroke-miterlimit="10" stroke-width="0.25"/>
      <path id="Path_16819" data-name="Path 16819" d="M1838.187,1433.78a3.828,3.828,0,0,0,2.351-.344" transform="translate(-1647.363 -1375.356)" fill="none" stroke="#000" stroke-miterlimit="10" stroke-width="0.25"/>
      <path id="Path_16820" data-name="Path 16820" d="M1839.156,1436.567a3.535,3.535,0,0,0,2.5-.379" transform="translate(-1647.156 -1374.769)" fill="none" stroke="#000" stroke-miterlimit="10" stroke-width="0.25"/>
      <path id="Path_16821" data-name="Path 16821" d="M1836.667,1423.56a4.568,4.568,0,0,1,2.6.179" transform="translate(-1647.687 -1377.486)" fill="none" stroke="#000" stroke-miterlimit="10" stroke-width="0.25"/>
      <path id="Path_16822" data-name="Path 16822" d="M1837.208,1420.417a1.868,1.868,0,0,1,1.491.581" transform="translate(-1647.571 -1378.132)" fill="none" stroke="#000" stroke-miterlimit="10" stroke-width="0.25"/>
      <path id="Path_16823" data-name="Path 16823" d="M1837.74,1441.125a7.762,7.762,0,0,0,2.894,3.41" transform="translate(-1647.458 -1373.716)" fill="none" stroke="#000" stroke-miterlimit="10" stroke-width="0.25"/>
      <ellipse id="Ellipse_2666" data-name="Ellipse 2666" cx="4.625" cy="6.293" rx="4.625" ry="6.293" transform="matrix(0.192, -0.981, 0.981, 0.192, 285.262, 18.274)" fill="#dffffa" stroke="#231815" stroke-miterlimit="10" stroke-width="0.25"/>
      <ellipse id="Ellipse_2667" data-name="Ellipse 2667" cx="1.971" cy="2.881" rx="1.971" ry="2.881" transform="translate(304.354 18.364) rotate(-62.088)" fill="#dffffa" stroke="#231815" stroke-miterlimit="10" stroke-width="0.25"/>
      <ellipse id="Ellipse_2668" data-name="Ellipse 2668" cx="5.308" cy="6.597" rx="5.308" ry="6.597" transform="translate(307.121 33.292) rotate(-65.376)" fill="#dffffa" stroke="#231815" stroke-miterlimit="10" stroke-width="0.25"/>
      <path id="Path_16824" data-name="Path 16824" d="M1854.375,1408.677s8.038-6.822,22.293-5.912" transform="translate(-1643.911 -1381.913)" fill="none" stroke="#000" stroke-miterlimit="10" stroke-width="0.25"/>
      <path id="Path_16825" data-name="Path 16825" d="M1855.375,1410.248a14.019,14.019,0,0,1,7.431-2.123" transform="translate(-1643.698 -1380.752)" fill="none" stroke="#000" stroke-miterlimit="10" stroke-width="0.25"/>
      <path id="Path_16826" data-name="Path 16826" d="M1905.125,1429.219s14.255,2.312,18.8,1.251" transform="translate(-1633.092 -1376.255)" fill="none" stroke="#000" stroke-miterlimit="10" stroke-width="0.25"/>
      <path id="Path_16827" data-name="Path 16827" d="M1900.875,1431.562a72.171,72.171,0,0,0,19.411,1.991" transform="translate(-1633.998 -1375.755)" fill="none" stroke="#000" stroke-miterlimit="10" stroke-width="0.25"/>
      <path id="Path_16828" data-name="Path 16828" d="M1868.75,1464.785a69.978,69.978,0,0,0,41.249-.91" transform="translate(-1640.847 -1368.866)" fill="none" stroke="#000" stroke-miterlimit="10" stroke-width="0.25"/>
      <path id="Path_16829" data-name="Path 16829" d="M1895,1485.875s12.283,2.881,21.231,0" transform="translate(-1635.25 -1364.176)" fill="none" stroke="#000" stroke-miterlimit="10" stroke-width="0.25"/>
      <path id="Path_16830" data-name="Path 16830" d="M1934.42,1483.125s-9.1,9.857-29.42,10.464" transform="translate(-1633.118 -1364.762)" fill="none" stroke="#000" stroke-miterlimit="10" stroke-width="0.25"/>
      <path id="Path_16831" data-name="Path 16831" d="M1961,1423s5.308,21.686,2.123,35.941" transform="translate(-1621.179 -1377.581)" fill="none" stroke="#000" stroke-miterlimit="10" stroke-width="0.25"/>
      <path id="Path_16832" data-name="Path 16832" d="M1965.875,1438.75s1.365,6.976,0,10.919" transform="translate(-1620.14 -1374.223)" fill="none" stroke="#000" stroke-miterlimit="10" stroke-width="0.25"/>
      <path id="Path_16833" data-name="Path 16833" d="M1964.875,1444.875a12.84,12.84,0,0,1,5.308,5.763c1.743,3.943,6.218,4.853,9.478,3.64" transform="translate(-1620.353 -1372.917)" fill="none" stroke="#000" stroke-miterlimit="10" stroke-width="0.25"/>
      <path id="Path_16834" data-name="Path 16834" d="M1963.589,1450.438s1.774,13.269,11.335,16.15" transform="translate(-1620.627 -1371.731)" fill="none" stroke="#000" stroke-miterlimit="10" stroke-width="0.25"/>
      <path id="Path_16835" data-name="Path 16835" d="M1964.875,1451.5a8.687,8.687,0,0,0,3.715-1.062" transform="translate(-1620.353 -1371.731)" fill="none" stroke="#000" stroke-miterlimit="10" stroke-width="0.25"/>
      <path id="Path_16836" data-name="Path 16836" d="M1967.937,1446.39a4.771,4.771,0,0,0,2.048-.557" transform="translate(-1619.7 -1372.713)" fill="none" stroke="#000" stroke-miterlimit="10" stroke-width="0.25"/>
      <path id="Path_16837" data-name="Path 16837" d="M1968.26,1443.806a2.664,2.664,0,0,0,1.656-.556" transform="translate(-1619.631 -1373.263)" fill="none" stroke="#000" stroke-miterlimit="10" stroke-width="0.25"/>
      <path id="Path_16838" data-name="Path 16838" d="M1965.083,1436.792a19.469,19.469,0,0,0,15.722,4.7" transform="translate(-1620.309 -1374.64)" fill="none" stroke="#000" stroke-miterlimit="10" stroke-width="0.25"/>
      <path id="Path_16839" data-name="Path 16839" d="M1965.583,1431.917a15.685,15.685,0,0,0,13.144,5.661" transform="translate(-1620.202 -1375.679)" fill="none" stroke="#000" stroke-miterlimit="10" stroke-width="0.25"/>
      <path id="Path_16840" data-name="Path 16840" d="M1964.583,1428.083s5.5,3.286,10.129,1.315" transform="translate(-1620.415 -1376.497)" fill="none" stroke="#000" stroke-miterlimit="10" stroke-width="0.25"/>
      <path id="Path_16841" data-name="Path 16841" d="M1961.293,1422.867a17.979,17.979,0,0,1,5.611-16.075" transform="translate(-1621.168 -1381.036)" fill="none" stroke="#000" stroke-miterlimit="10" stroke-width="0.25"/>
      <path id="Path_16842" data-name="Path 16842" d="M1968.685,1412.75a15.751,15.751,0,0,0-5.56,9.5" transform="translate(-1620.726 -1379.766)" fill="none" stroke="#000" stroke-miterlimit="10" stroke-width="0.25"/>
      <path id="Path_16843" data-name="Path 16843" d="M1965.083,1419.179a4.349,4.349,0,0,1,3.185-.708" transform="translate(-1620.309 -1378.562)" fill="none" stroke="#000" stroke-miterlimit="10" stroke-width="0.25"/>
      <path id="Path_16844" data-name="Path 16844" d="M1965.583,1420.7a2.126,2.126,0,0,1,1.922-.656" transform="translate(-1620.202 -1378.217)" fill="none" stroke="#000" stroke-miterlimit="10" stroke-width="0.25"/>
    </g>
    <g id="Group_4703" data-name="Group 4703" transform="translate(1666.689 1547.098)">
      <path id="Path_16845" data-name="Path 16845" d="M1941.474,1560.806s5.111-2.275,8.069-.986a19.755,19.755,0,0,0,13.724.3" transform="translate(-1605.854 -1487.317)" fill="none" stroke="#000" stroke-miterlimit="10" stroke-width="0.25"/>
      <ellipse id="Ellipse_2669" data-name="Ellipse 2669" cx="5.276" cy="3.191" rx="5.276" ry="3.191" transform="translate(335.964)" fill="#ecb36f" stroke="#000" stroke-linejoin="round" stroke-width="0.25"/>
      <ellipse id="Ellipse_2670" data-name="Ellipse 2670" cx="6.47" cy="3.124" rx="6.47" ry="3.124" transform="translate(351.221 8.121)" fill="#c19165" stroke="#000" stroke-linejoin="round" stroke-width="0.25"/>
      <ellipse id="Ellipse_2671" data-name="Ellipse 2671" cx="3.943" cy="1.766" rx="3.943" ry="1.766" transform="translate(343.335 56.004)" fill="#ecb36f" stroke="#000" stroke-linejoin="round" stroke-width="0.25"/>
      <ellipse id="Ellipse_2672" data-name="Ellipse 2672" cx="7.24" cy="3.64" rx="7.24" ry="3.64" transform="translate(265.744 133.263)" fill="#c19165" stroke="#000" stroke-linejoin="round" stroke-width="0.25"/>
      <ellipse id="Ellipse_2673" data-name="Ellipse 2673" cx="3.788" cy="2.022" rx="3.788" ry="2.022" transform="translate(251.17 131.039)" fill="#c19165" stroke="#000" stroke-linejoin="round" stroke-width="0.25"/>
      <ellipse id="Ellipse_2674" data-name="Ellipse 2674" cx="4.954" cy="2.426" rx="4.954" ry="2.426" transform="translate(168.635 168.648)" fill="#c19165" stroke="#000" stroke-linejoin="round" stroke-width="0.25"/>
      <ellipse id="Ellipse_2675" data-name="Ellipse 2675" cx="7.818" cy="3.235" rx="7.818" ry="3.235" transform="translate(41.586 151.461)" fill="#ecb36f" stroke="#000" stroke-linejoin="round" stroke-width="0.25"/>
      <ellipse id="Ellipse_2676" data-name="Ellipse 2676" cx="3.741" cy="2.123" rx="3.741" ry="2.123" transform="translate(60.456 143.98)" fill="#ecb36f" stroke="#000" stroke-linejoin="round" stroke-width="0.25"/>
      <ellipse id="Ellipse_2677" data-name="Ellipse 2677" cx="3.394" cy="1.82" rx="3.394" ry="1.82" transform="translate(0 37.218)" fill="#c19165" stroke="#000" stroke-linejoin="round" stroke-width="0.25"/>
      <path id="Path_16846" data-name="Path 16846" d="M1669.667,1519.151s9.806,2.966,17.389,0,12.511-1.223,16.757,1.962,11.222,2.2,15.468-1.743" transform="translate(-1663.803 -1496.229)" fill="none" stroke="#000" stroke-miterlimit="10" stroke-width="0.25"/>
      <path id="Path_16847" data-name="Path 16847" d="M1677.562,1525.119a7.145,7.145,0,0,0,6.9,0c3.488-2.048,8.644-.758,10.919,1.44" transform="translate(-1662.12 -1494.851)" fill="none" stroke="#000" stroke-miterlimit="10" stroke-width="0.25"/>
      <path id="Path_16848" data-name="Path 16848" d="M1732.5,1625.186s7.279-3.74,12.89-1.011,14.558-1.972,20.321,1.668" transform="translate(-1650.407 -1473.725)" fill="none" stroke="#000" stroke-miterlimit="10" stroke-width="0.25"/>
      <path id="Path_16849" data-name="Path 16849" d="M1752.5,1634.94a21,21,0,0,1,13.345,0c7.279,2.426,7.279.589,11.829-.539s9.4,4.6,21.079.6" transform="translate(-1646.143 -1471.448)" fill="none" stroke="#000" stroke-miterlimit="10" stroke-width="0.25"/>
      <path id="Path_16850" data-name="Path 16850" d="M1816.615,1623.018s8.656-5.156,17.3-2.881,12.686,3.088,21.053-.58,11.1,5.129,20.5,2.7" transform="translate(-1632.474 -1474.691)" fill="none" stroke="#000" stroke-miterlimit="10" stroke-width="0.25"/>
      <path id="Path_16851" data-name="Path 16851" d="M1861.875,1616.008a9.72,9.72,0,0,0,7.431,0c4.246-1.617,5.579-1.19,8.477.719" transform="translate(-1622.824 -1475.466)" fill="none" stroke="#000" stroke-miterlimit="10" stroke-width="0.25"/>
      <path id="Path_16852" data-name="Path 16852" d="M1885.542,1598.647s9.2-3.488,16.327,0,15.316-3.033,23.657.91" transform="translate(-1617.779 -1479.286)" fill="none" stroke="#000" stroke-miterlimit="10" stroke-width="0.25"/>
      <path id="Path_16853" data-name="Path 16853" d="M1895,1518.335s8.492,3.4,15.468,0,9.857-.706,13.345,1.512,14.255,2.5,19.563-1.512" transform="translate(-1615.762 -1496.422)" fill="none" stroke="#000" stroke-miterlimit="10" stroke-width="0.25"/>
      <path id="Path_16854" data-name="Path 16854" d="M1930.25,1511.929s6.672,2.073,11.525,0,7.438,2.55,13.749.922" transform="translate(-1608.247 -1497.56)" fill="none" stroke="#000" stroke-miterlimit="10" stroke-width="0.25"/>
    </g>
    <g id="Group_4704" data-name="Group 4704" transform="translate(1690.548 1468.189)">
      <path id="Path_16855" data-name="Path 16855" d="M1701.469,1462.882s-9.251-.758-11.07,4.55.3,16.833-1.062,23.657-2.426,12.284,1.82,18.046,7.886,3.943,10.312,4.549Z" transform="translate(-1683.726 -1428.999)" fill="#7a5d49" stroke="#0a0503" stroke-miterlimit="10" stroke-width="0.25"/>
      <path id="Path_16856" data-name="Path 16856" d="M1688.133,1459s5.4,6.773,4.894,14.558" transform="translate(-1683.726 -1429.819)" fill="none" stroke="#000" stroke-miterlimit="10" stroke-width="0.25"/>
      <path id="Path_16857" data-name="Path 16857" d="M1686.667,1470.167s4.55,1.921,5.864,5.763" transform="translate(-1684.038 -1427.438)" fill="none" stroke="#000" stroke-miterlimit="10" stroke-width="0.25"/>
      <path id="Path_16858" data-name="Path 16858" d="M1684.5,1473.083a21.152,21.152,0,0,1,9.334,9.2" transform="translate(-1684.5 -1426.816)" fill="none" stroke="#000" stroke-miterlimit="10" stroke-width="0.25"/>
      <path id="Path_16859" data-name="Path 16859" d="M1685.833,1480.667s5.829.91,7.717,4.853" transform="translate(-1684.216 -1425.199)" fill="none" stroke="#000" stroke-miterlimit="10" stroke-width="0.25"/>
      <path id="Path_16860" data-name="Path 16860" d="M1687.25,1487.75s2.326,2.629,5.156,1.314" transform="translate(-1683.914 -1423.689)" fill="none" stroke="#000" stroke-miterlimit="10" stroke-width="0.25"/>
      <path id="Path_16861" data-name="Path 16861" d="M1686.667,1493.167s4.818,2.427,6.706,0" transform="translate(-1684.038 -1422.534)" fill="none" stroke="#000" stroke-miterlimit="10" stroke-width="0.25"/>
      <path id="Path_16862" data-name="Path 16862" d="M1685.833,1499.883s5.425-.2,7.717-4.55" transform="translate(-1684.216 -1422.072)" fill="none" stroke="#000" stroke-miterlimit="10" stroke-width="0.25"/>
      <path id="Path_16863" data-name="Path 16863" d="M1688.347,1508.413s.63-7.158,4.667-10.413" transform="translate(-1683.68 -1421.504)" fill="none" stroke="#000" stroke-miterlimit="10" stroke-width="0.25"/>
      <path id="Path_16864" data-name="Path 16864" d="M1878.627,1447.75s-62.277-16.985-104.739-11.829-64.6,9.4-74.005,29.42-2.427,28.808-3.943,39.881,1.516,31.394,22.141,44.739,56.042,19.715,68.663,26.084,69.195,10.283,85.493,6.81Z" transform="translate(-1682.291 -1434.947)" fill="#f4d6b3" stroke="#000" stroke-miterlimit="10" stroke-width="0.25"/>
      <ellipse id="Ellipse_2678" data-name="Ellipse 2678" cx="2.904" cy="3.772" rx="2.904" ry="3.772" transform="matrix(0.649, -0.761, 0.761, 0.649, 162.229, 14.899)" fill="#dffffa" stroke="#231815" stroke-miterlimit="10" stroke-width="0.25"/>
      <ellipse id="Ellipse_2679" data-name="Ellipse 2679" cx="7.582" cy="4.474" rx="7.582" ry="4.474" transform="translate(60.854 22.415) rotate(-24.402)" fill="#dffffa" stroke="#231815" stroke-miterlimit="10" stroke-width="0.25"/>
      <ellipse id="Ellipse_2680" data-name="Ellipse 2680" cx="3.64" cy="2.047" rx="3.64" ry="2.047" transform="matrix(0.799, -0.601, 0.601, 0.799, 48.769, 19.227)" fill="#dffffa" stroke="#231815" stroke-miterlimit="10" stroke-width="0.25"/>
      <path id="Path_16865" data-name="Path 16865" d="M1705.167,1505.25a21.459,21.459,0,0,0,7.683,4.853" transform="translate(-1680.094 -1419.958)" fill="none" stroke="#000" stroke-miterlimit="10" stroke-width="0.25"/>
      <path id="Path_16866" data-name="Path 16866" d="M1713.25,1475.107s15.671-2.427,23.557,0" transform="translate(-1678.371 -1426.615)" fill="none" stroke="#000" stroke-miterlimit="10" stroke-width="0.25"/>
      <path id="Path_16867" data-name="Path 16867" d="M1708.583,1470.665s17.087-4.549,41.654-2.123" transform="translate(-1679.366 -1427.936)" fill="none" stroke="#000" stroke-miterlimit="10" stroke-width="0.25"/>
      <path id="Path_16868" data-name="Path 16868" d="M1704.917,1461.048s3.639-5.156,7.683-5.965" transform="translate(-1680.147 -1430.654)" fill="none" stroke="#000" stroke-miterlimit="10" stroke-width="0.25"/>
      <path id="Path_16869" data-name="Path 16869" d="M1725.75,1518.052s39.732,25.212,77.544,24.6" transform="translate(-1675.705 -1417.229)" fill="none" stroke="#000" stroke-miterlimit="10" stroke-width="0.25"/>
      <path id="Path_16870" data-name="Path 16870" d="M1768.5,1530.667s6.875,3.033,10.515,2.021" transform="translate(-1666.591 -1414.539)" fill="none" stroke="#000" stroke-miterlimit="10" stroke-width="0.25"/>
      <path id="Path_16871" data-name="Path 16871" d="M1785.333,1488.443a65.95,65.95,0,0,0,19.816,4.69" transform="translate(-1663.002 -1423.541)" fill="none" stroke="#000" stroke-miterlimit="10" stroke-width="0.25"/>
      <path id="Path_16872" data-name="Path 16872" d="M1794.667,1487s1.295,1.5,5.257,1.751" transform="translate(-1661.012 -1423.849)" fill="none" stroke="#000" stroke-miterlimit="10" stroke-width="0.25"/>
      <path id="Path_16873" data-name="Path 16873" d="M1793.5,1469s5.965.1,9.4,1.418" transform="translate(-1661.261 -1427.687)" fill="none" stroke="#000" stroke-miterlimit="10" stroke-width="0.25"/>
      <path id="Path_16874" data-name="Path 16874" d="M1782.25,1442.556s20.018-2.123,33.464,4.55" transform="translate(-1663.66 -1433.393)" fill="none" stroke="#000" stroke-miterlimit="10" stroke-width="0.25"/>
      <path id="Path_16875" data-name="Path 16875" d="M1797.75,1446.917s11.93.607,18.905,6.268" transform="translate(-1660.355 -1432.395)" fill="none" stroke="#000" stroke-miterlimit="10" stroke-width="0.25"/>
      <path id="Path_16876" data-name="Path 16876" d="M1853.926,1445.512c12.785,1.206,25.882,27.5,26.489,48.528s-3.438,29.521-2.023,43.878-14.962,43.876-34.373,42.663-30.533-27.5-32.756-41.855,2.426-45.546,13.546-64.628S1843.209,1444.5,1853.926,1445.512Z" transform="translate(-1657.59 -1432.708)" fill="#fff6eb" stroke="#000" stroke-miterlimit="10" stroke-width="0.25"/>
      <path id="Path_16877" data-name="Path 16877" d="M1846.262,1451.668c6.064-.258,7.987,9.706,8.089,18.1s-3.842,16.783-8.089,16.783-7.279-7.886-7.179-16.581S1841.51,1451.869,1846.262,1451.668Z" transform="translate(-1651.543 -1431.383)" fill="#d6a47b" stroke="#000" stroke-miterlimit="10" stroke-width="0.25"/>
      <path id="Path_16878" data-name="Path 16878" d="M1866.218,1474.62c2.554,2.459.38,7.918-2.35,12.468s-8.088,8.9-10.009,5.459,1.01-11.019,3.74-14.458S1864.03,1472.514,1866.218,1474.62Z" transform="translate(-1648.525 -1426.667)" fill="#d6a47b" stroke="#000" stroke-miterlimit="10" stroke-width="0.25"/>
      <path id="Path_16879" data-name="Path 16879" d="M1866.469,1495.554c.089-2.929-3.031-3.361-6.14-1.769s-3.59,3.692-2.2,5.536S1866.316,1500.661,1866.469,1495.554Z" transform="translate(-1647.64 -1422.597)" fill="#d6a47b" stroke="#000" stroke-miterlimit="10" stroke-width="0.25"/>
      <path id="Path_16880" data-name="Path 16880" d="M1866.546,1507.406c.551-1.873-1.752-4.095-4.541-4.2s-5.064,1.012-4.962,3.438,3.841,3.285,5.763,2.982S1866.04,1509.124,1866.546,1507.406Z" transform="translate(-1647.715 -1420.395)" fill="#d6a47b" stroke="#000" stroke-miterlimit="10" stroke-width="0.25"/>
      <path id="Path_16881" data-name="Path 16881" d="M1863.082,1525.184c2.9-.645,3.64-4.449.656-8.24s-8.492-4.853-10.21-3.185.353,6.875,2.73,8.8S1861.262,1525.588,1863.082,1525.184Z" transform="translate(-1648.598 -1418.307)" fill="#d6a47b" stroke="#000" stroke-miterlimit="10" stroke-width="0.25"/>
      <path id="Path_16882" data-name="Path 16882" d="M1847.614,1522.629c2.531-.488,6.673,2.382,8.948,11.026s3.386,13.144-.405,14.154-7.177-5.105-8.694-10.515S1844.53,1523.224,1847.614,1522.629Z" transform="translate(-1650.115 -1416.264)" fill="#d6a47b" stroke="#000" stroke-miterlimit="10" stroke-width="0.25"/>
      <path id="Path_16883" data-name="Path 16883" d="M1842.5,1523.28c-4.507-2.587-10.174.069-14.42,7.146s-4.144,17.188,3.438,21.231,13.446-4.347,14.76-12.233S1846.606,1525.638,1842.5,1523.28Z" transform="translate(-1654.49 -1416.321)" fill="#d6a47b" stroke="#000" stroke-miterlimit="10" stroke-width="0.25"/>
      <path id="Path_16884" data-name="Path 16884" d="M1837.35,1508.946c-.871-3.2-7.2-2.823-12.512,0s-10.411,8.107-8.125,11.53,9.945.772,15.329-2.49S1837.88,1510.9,1837.35,1508.946Z" transform="translate(-1656.432 -1419.653)" fill="#d6a47b" stroke="#000" stroke-miterlimit="10" stroke-width="0.25"/>
      <path id="Path_16885" data-name="Path 16885" d="M1845.256,1502.567c2.884.438,4.17,7.051,0,7.734S1841.768,1502.036,1845.256,1502.567Z" transform="translate(-1650.841 -1420.535)" fill="#d6a47b" stroke="#000" stroke-miterlimit="10" stroke-width="0.25"/>
      <path id="Path_16886" data-name="Path 16886" d="M1841.934,1496.3c1.228-.758,4.866,1.872,2.692,4.512C1842.658,1503.205,1839.538,1497.786,1841.934,1496.3Z" transform="translate(-1651.12 -1421.894)" fill="#d6a47b" stroke="#000" stroke-miterlimit="10" stroke-width="0.25"/>
      <path id="Path_16887" data-name="Path 16887" d="M1849.747,1500.325a1.619,1.619,0,1,1-1.592-1.91A1.772,1.772,0,0,1,1849.747,1500.325Z" transform="translate(-1649.948 -1421.415)" fill="#d6a47b" stroke="#000" stroke-miterlimit="10" stroke-width="0.25"/>
      <path id="Path_16888" data-name="Path 16888" d="M1819.274,1490.784c2.195-4.078,8.417-3.512,13.345-.631s4.626,7.431,0,8.341S1816.241,1496.418,1819.274,1490.784Z" transform="translate(-1655.872 -1423.666)" fill="#d6a47b" stroke="#000" stroke-miterlimit="10" stroke-width="0.25"/>
      <path id="Path_16889" data-name="Path 16889" d="M1824.167,1473c2.122-3.228,6.941-1.668,11.015,1.972s5.364,9.629,2.482,11.3-7.431-1.516-10.161-4.246S1822.424,1475.65,1824.167,1473Z" transform="translate(-1654.851 -1427.209)" fill="#d6a47b" stroke="#000" stroke-miterlimit="10" stroke-width="0.25"/>
    </g>
    <g id="Group_4705" data-name="Group 4705" transform="translate(1888.288 1591.621)">
      <path id="Path_16890" data-name="Path 16890" d="M1847.706,1548.427s-.81,14.5.706,18.742,8.341,11.07,23.506,14.1,38.519,1.213,44.585,1.971,32.6-6.37,38.216-8.341,7.279-4.4,7.127-7.431-1.213-13.194-1.365-17.44Z" transform="translate(-1847.49 -1534.185)" fill="#f4d6b3" stroke="#000" stroke-miterlimit="10" stroke-width="0.25"/>
      <path id="Path_16891" data-name="Path 16891" d="M1849.436,1547.53c4.78-4.156,21.989-8.037,30.178-9.251s39.125-3.336,54.442,1.062,26.539,8.037,26.387,13.193-12.132,13.345-43.979,12.587-51.6-4.143-58.226-6.748S1844.2,1552.08,1849.436,1547.53Z" transform="translate(-1847.452 -1536.688)" fill="#fff6eb" stroke="#000" stroke-miterlimit="10" stroke-width="0.25"/>
      <ellipse id="Ellipse_2681" data-name="Ellipse 2681" cx="8.834" cy="4.17" rx="8.834" ry="4.17" transform="translate(11.993 9.326)" fill="#d6a47b" stroke="#000" stroke-miterlimit="10" stroke-width="0.25"/>
      <path id="Path_16892" data-name="Path 16892" d="M1874.5,1541.425c2.007-1.792,12.057-1.517,12.739,3.791S1868.812,1546.506,1874.5,1541.425Z" transform="translate(-1841.957 -1535.89)" fill="#d6a47b" stroke="#000" stroke-miterlimit="10" stroke-width="0.25"/>
      <circle id="Ellipse_2682" data-name="Ellipse 2682" cx="1.573" cy="1.573" r="1.573" transform="translate(49.602 3.942)" fill="#d6a47b" stroke="#000" stroke-miterlimit="10" stroke-width="0.25"/>
      <ellipse id="Ellipse_2683" data-name="Ellipse 2683" cx="2.099" cy="1.205" rx="2.099" ry="1.205" transform="translate(52.408 11.831)" fill="#d6a47b" stroke="#000" stroke-miterlimit="10" stroke-width="0.25"/>
      <path id="Path_16893" data-name="Path 16893" d="M1893.625,1550.389a1.327,1.327,0,1,1,1.327,1.327A1.327,1.327,0,0,1,1893.625,1550.389Z" transform="translate(-1837.654 -1534.05)" fill="#d6a47b" stroke="#000" stroke-miterlimit="10" stroke-width="0.25"/>
      <path id="Path_16894" data-name="Path 16894" d="M1897.593,1538.678c1.875-1.423,5.536-.38,7.2,1.668s-.683,5.149-3.943,4.243S1895.394,1540.346,1897.593,1538.678Z" transform="translate(-1836.997 -1536.404)" fill="#d6a47b" stroke="#000" stroke-miterlimit="10" stroke-width="0.25"/>
      <path id="Path_16895" data-name="Path 16895" d="M1915,1540.063c-1.952-1.76-5.081.113-7.128,1.572s-1.668,2.826,0,3.811S1918.46,1543.184,1915,1540.063Z" transform="translate(-1834.915 -1536.121)" fill="#d6a47b" stroke="#000" stroke-miterlimit="10" stroke-width="0.25"/>
      <path id="Path_16896" data-name="Path 16896" d="M1938.245,1548.649c1.328-3.157-2.615-4.957-11.487-4.578s-12.512,1.213-13.5,3.715,8.871,5.469,14.634,5.384C1933.172,1553.092,1937.032,1551.531,1938.245,1548.649Z" transform="translate(-1833.482 -1535.125)" fill="#d6a47b" stroke="#000" stroke-miterlimit="10" stroke-width="0.25"/>
      <path id="Path_16897" data-name="Path 16897" d="M1896.188,1546.5c.977-.935,6.641.047,5.026,2.411S1894.443,1548.172,1896.188,1546.5Z" transform="translate(-1837.183 -1534.671)" fill="#d6a47b" stroke="#000" stroke-miterlimit="10" stroke-width="0.25"/>
      <path id="Path_16898" data-name="Path 16898" d="M1911.731,1551.954c1.062-.607,4.463,2.047,2.99,2.881S1910.669,1552.56,1911.731,1551.954Z" transform="translate(-1833.847 -1533.453)" fill="#d6a47b" stroke="#000" stroke-miterlimit="10" stroke-width="0.25"/>
      <path id="Path_16899" data-name="Path 16899" d="M1898.341,1552.641c1.507-1.49,7.238-1.007,10.076,2.34s-1.561,6.229-6.262,4.409S1896.271,1554.689,1898.341,1552.641Z" transform="translate(-1836.857 -1533.458)" fill="#d6a47b" stroke="#000" stroke-miterlimit="10" stroke-width="0.25"/>
      <path id="Path_16900" data-name="Path 16900" d="M1889.334,1552.189c2.279.089,4.55,2.275,3.3,4.321s-5.422,2.389-7.773.8S1884.519,1552,1889.334,1552.189Z" transform="translate(-1839.732 -1533.385)" fill="#d6a47b" stroke="#000" stroke-miterlimit="10" stroke-width="0.25"/>
      <path id="Path_16901" data-name="Path 16901" d="M1877.867,1550.84c2.418.547,2.01,4.359-.948,5.117s-5.573-.075-4.967-2.2S1875.024,1550.2,1877.867,1550.84Z" transform="translate(-1842.293 -1533.704)" fill="#d6a47b" stroke="#000" stroke-miterlimit="10" stroke-width="0.25"/>
      <path id="Path_16902" data-name="Path 16902" d="M1867.136,1563.625s-.508,7.129,1.326,11" transform="translate(-1843.315 -1530.945)" fill="none" stroke="#000" stroke-miterlimit="10" stroke-width="0.25"/>
      <path id="Path_16903" data-name="Path 16903" d="M1864.683,1566.438a14.928,14.928,0,0,0,0,4.095" transform="translate(-1843.857 -1530.346)" fill="none" stroke="#000" stroke-miterlimit="10" stroke-width="0.25"/>
      <path id="Path_16904" data-name="Path 16904" d="M1869.717,1568.125a14.71,14.71,0,0,0,0,4.246" transform="translate(-1842.787 -1529.986)" fill="none" stroke="#000" stroke-miterlimit="10" stroke-width="0.25"/>
      <line id="Line_594" data-name="Line 594" y2="3.791" transform="translate(59.459 36.926)" fill="none" stroke="#000" stroke-miterlimit="10" stroke-width="0.25"/>
      <path id="Path_16905" data-name="Path 16905" d="M1897.937,1568.125a16.148,16.148,0,0,1,0,3.868" transform="translate(-1836.734 -1529.986)" fill="none" stroke="#000" stroke-miterlimit="10" stroke-width="0.25"/>
      <path id="Path_16906" data-name="Path 16906" d="M1914.452,1568.688a6.226,6.226,0,0,1,0,3.563" transform="translate(-1833.213 -1529.866)" fill="none" stroke="#000" stroke-miterlimit="10" stroke-width="0.25"/>
      <path id="Path_16907" data-name="Path 16907" d="M1916.25,1565.813a29.077,29.077,0,0,1,0,11.694" transform="translate(-1832.83 -1530.479)" fill="none" stroke="#000" stroke-miterlimit="10" stroke-width="0.25"/>
      <path id="Path_16908" data-name="Path 16908" d="M1921.437,1569.188a4.377,4.377,0,0,1,0,2.957" transform="translate(-1831.724 -1529.759)" fill="none" stroke="#000" stroke-miterlimit="10" stroke-width="0.25"/>
      <path id="Path_16909" data-name="Path 16909" d="M1934.05,1563.063a5.533,5.533,0,0,1,.318,2.805" transform="translate(-1829.035 -1531.065)" fill="none" stroke="#000" stroke-miterlimit="10" stroke-width="0.25"/>
      <path id="Path_16910" data-name="Path 16910" d="M1936.562,1560.563a18.714,18.714,0,0,1,0,7.355" transform="translate(-1828.5 -1531.598)" fill="none" stroke="#000" stroke-miterlimit="10" stroke-width="0.25"/>
    </g>
  </g>
</svg>
