<svg xmlns="http://www.w3.org/2000/svg" width="437.352" height="408.037" viewBox="0 0 437.352 408.037">
  <g id="Group_4316" data-name="Group 4316" transform="translate(-1264.179 -826.302)">
    <g id="Group_4301" data-name="Group 4301" transform="translate(1273.045 1087.218)">
      <ellipse id="Ellipse_2383" data-name="Ellipse 2383" cx="3.775" cy="6.911" rx="3.775" ry="6.911" transform="translate(295.499 143.55) rotate(-75.681)" fill="#c19165" stroke="#000" stroke-linejoin="round" stroke-width="0.25"/>
      <ellipse id="Ellipse_2384" data-name="Ellipse 2384" cx="5.375" cy="3.135" rx="5.375" ry="3.135" transform="translate(283.805 127.46)" fill="#c19165" stroke="#000" stroke-linejoin="round" stroke-width="0.25"/>
      <ellipse id="Ellipse_2385" data-name="Ellipse 2385" cx="3.722" cy="6.591" rx="3.722" ry="6.591" transform="matrix(0.363, -0.932, 0.932, 0.363, 353.418, 76.971)" fill="#ecb36f" stroke="#000" stroke-linejoin="round" stroke-width="0.25"/>
      <ellipse id="Ellipse_2386" data-name="Ellipse 2386" cx="2.687" cy="4.543" rx="2.687" ry="4.543" transform="matrix(0.269, -0.963, 0.963, 0.269, 378.129, 46.882)" fill="#c19165" stroke="#000" stroke-linejoin="round" stroke-width="0.25"/>
      <ellipse id="Ellipse_2387" data-name="Ellipse 2387" cx="2.687" cy="5.183" rx="2.687" ry="5.183" transform="matrix(0.138, -0.99, 0.99, 0.138, 399.899, 54.455)" fill="#ecb36f" stroke="#000" stroke-linejoin="round" stroke-width="0.25"/>
      <path id="Path_15553" data-name="Path 15553" d="M1527.083,1056.328c4.479-2.431,9.643,5.352,16.381,2.432,11.519-4.991,16,.384,18.813-1.92" transform="translate(-1169.948 -997.208)" fill="none" stroke="#000" stroke-miterlimit="10" stroke-width="0.25"/>
      <path id="Path_15554" data-name="Path 15554" d="M1518.259,1051.824c1.792-1.962,5.248-1.622,7.935,0s4.607.744,9.086-.674,8.958,1.547,8.958,1.547" transform="translate(-1173.41 -999.316)" fill="none" stroke="#000" stroke-miterlimit="10" stroke-width="0.25"/>
      <path id="Path_15555" data-name="Path 15555" d="M1498.5,1091.882c4.734,3.84,11,3.2,16.892-.512s12.8,1.792,17.405-1.536" transform="translate(-1181.163 -983.875)" fill="none" stroke="#000" stroke-miterlimit="10" stroke-width="0.25"/>
      <path id="Path_15556" data-name="Path 15556" d="M1448.592,1072.248c3.449,2.561,6.137-4.735,11.384-1.791s10.11-.713,10.11-.713" transform="translate(-1200.743 -991.757)" fill="none" stroke="#000" stroke-miterlimit="10" stroke-width="0.25"/>
      <path id="Path_15557" data-name="Path 15557" d="M1409.891,1079.676c3.2,3.328,11.554,3.072,17.87-.512s9.006-.641,17.2.769,13.706-5.5,18.819-3.2a14.182,14.182,0,0,0,9.081,1.152" transform="translate(-1215.926 -989.201)" fill="none" stroke="#000" stroke-miterlimit="10" stroke-width="0.25"/>
      <path id="Path_15558" data-name="Path 15558" d="M1397.483,1113.4c2.687,5.375,10.494,4.99,19.836,1.28s16.509-.551,21.755.748,12.158-2.494,12.158-2.494" transform="translate(-1220.794 -974.811)" fill="none" stroke="#000" stroke-miterlimit="10" stroke-width="0.25"/>
      <path id="Path_15559" data-name="Path 15559" d="M1384.982,1103.365c3.712,4.607,7.551.769,13.439-.512s8.189,3.791,14.076,2.048" transform="translate(-1225.699 -978.849)" fill="none" stroke="#000" stroke-miterlimit="10" stroke-width="0.25"/>
      <ellipse id="Ellipse_2388" data-name="Ellipse 2388" cx="3.519" cy="7.039" rx="3.519" ry="7.039" transform="translate(118.594 121.003) rotate(-82.846)" fill="#ecb36f" stroke="#000" stroke-linejoin="round" stroke-width="0.25"/>
      <ellipse id="Ellipse_2389" data-name="Ellipse 2389" cx="4.479" cy="3.005" rx="4.479" ry="3.005" transform="translate(231.718 121.45)" fill="#ecb36f" stroke="#000" stroke-linejoin="round" stroke-width="0.25"/>
      <ellipse id="Ellipse_2390" data-name="Ellipse 2390" cx="3.883" cy="2.095" rx="3.883" ry="2.095" transform="translate(0 43.245)" fill="#c19165" stroke="#000" stroke-linejoin="round" stroke-width="0.25"/>
      <ellipse id="Ellipse_2391" data-name="Ellipse 2391" cx="5.572" cy="2.799" rx="5.572" ry="2.799" transform="translate(17.559 49.63)" fill="#ecb36f" stroke="#000" stroke-linejoin="round" stroke-width="0.25"/>
      <ellipse id="Ellipse_2392" data-name="Ellipse 2392" cx="7.26" cy="3.035" rx="7.26" ry="3.035" transform="translate(24.988)" fill="#ecb36f" stroke="#000" stroke-linejoin="round" stroke-width="0.25"/>
      <path id="Path_15560" data-name="Path 15560" d="M1283.193,1029.455c4.052,5.842,14.351-1.169,22.624,0a74.516,74.516,0,0,1,15.026,3.816" transform="translate(-1265.634 -1007.616)" fill="none" stroke="#000" stroke-miterlimit="10" stroke-width="0.25"/>
      <path id="Path_15561" data-name="Path 15561" d="M1283.193,1063.188c2.363-3.207,6.584-3.038,9.117-1.351s7.091-1.187,7.091-1.187" transform="translate(-1265.634 -995.325)" fill="none" stroke="#000" stroke-miterlimit="10" stroke-width="0.25"/>
      <path id="Path_15562" data-name="Path 15562" d="M1300.048,1059.01c4.9,5.572,11.652,7.422,19.839,3.627s17.62-5.665,24.722-1.27" transform="translate(-1259.021 -996.042)" fill="none" stroke="#000" stroke-miterlimit="10" stroke-width="0.25"/>
    </g>
    <g id="Group_4309" data-name="Group 4309" transform="translate(1264.301 826.425)">
      <g id="Group_4303" data-name="Group 4303" transform="translate(44.637 223.012)">
        <g id="Group_4302" data-name="Group 4302" transform="translate(0 2.82)">
          <path id="Path_15563" data-name="Path 15563" d="M1464.128,1078.812s-2.136,16.372-27.752,31.547-46.505,10.274-67.815,22.219-54.24,19.695-69.092,2.261c-9.375-11,4.067-11.946,18.823-26.152s54.721-68.81,77.988-77.291l11.467-15.761a52.8,52.8,0,0,1,26.774-18.221c17.582-5.061,56.077-8.791,56.077-8.791l17.716,1.653-29.838,51.629Z" transform="translate(-1296.361 -988.622)" fill="#a5b63d" stroke="#231815" stroke-miterlimit="10" stroke-width="0.25"/>
          <path id="Path_15564" data-name="Path 15564" d="M1309.68,1082.019s17.857-1.823,28.273,4.272c0,0-3.016,13.248-12.506,19.234" transform="translate(-1291.135 -952.08)" fill="none" stroke="#000" stroke-miterlimit="10" stroke-width="0.25"/>
          <path id="Path_15565" data-name="Path 15565" d="M1320.48,1072.644s30.942-6.558,46.2-1.6c0,0,1.246,15.13-14.667,29.9" transform="translate(-1286.898 -957.013)" fill="none" stroke="#000" stroke-miterlimit="10" stroke-width="0.25"/>
          <path id="Path_15566" data-name="Path 15566" d="M1332.958,1059.546c.876-.146,30.33-8.215,48.744.71,0,0,1.916,14.766-5.531,33.307" transform="translate(-1282.003 -962.164)" fill="none" stroke="#000" stroke-miterlimit="10" stroke-width="0.25"/>
          <path id="Path_15567" data-name="Path 15567" d="M1380.353,1078.487" transform="translate(-1263.408 -953.365)" fill="none" stroke="#000" stroke-miterlimit="10" stroke-width="0.25"/>
          <path id="Path_15568" data-name="Path 15568" d="M1412.976,1091.471s13.827-22.1,2.689-46.079c-11.292,10.312-23.544,25.725-58.379,47.346S1297.2,1109.9,1297.2,1109.9" transform="translate(-1296.031 -966.349)" fill="none" stroke="#000" stroke-miterlimit="10" stroke-width="0.25"/>
          <path id="Path_15569" data-name="Path 15569" d="M1402.291,1077.746s6.139-18.734-3.449-37.253" transform="translate(-1256.155 -968.271)" fill="none" stroke="#000" stroke-miterlimit="10" stroke-width="0.25"/>
        </g>
        <path id="Path_15570" data-name="Path 15570" d="M1397.582,1031.55a327.2,327.2,0,0,1,26.84-19.366c13.506-8.547,22.394-15.785,28.548-25.587" transform="translate(-1256.649 -986.597)" fill="none" stroke="#000" stroke-miterlimit="10" stroke-width="0.25"/>
        <path id="Path_15571" data-name="Path 15571" d="M1386.532,1004.042s25.711-2.24,34.651,6.417c0,0,2.264,19.658-3.372,29.8" transform="translate(-1260.984 -979.855)" fill="none" stroke="#000" stroke-miterlimit="10" stroke-width="0.25"/>
        <path id="Path_15572" data-name="Path 15572" d="M1410.474,993.555s11.984,3.741,18.271,9.609a37.01,37.01,0,0,1,2.1,19.795" transform="translate(-1251.591 -983.867)" fill="none" stroke="#000" stroke-miterlimit="10" stroke-width="0.25"/>
      </g>
      <g id="Group_4304" data-name="Group 4304" transform="translate(274.728)">
        <path id="Path_15573" data-name="Path 15573" d="M1461.617,938.385s3.69-21.527,12.984-37.494,17.872-26.452,33.6-41.941,20.494-28.6,35.269-32.17,16.682,20.732,18.588,33.362,2.622,30.979,4.052,42.657.25,49.2-19.3,67.677-67.486-2.428-68.178-2.762S1461.617,938.385,1461.617,938.385Z" transform="translate(-1461.617 -826.425)" fill="#a5b63d" stroke="#231815" stroke-miterlimit="10" stroke-width="0.25"/>
        <path id="Path_15574" data-name="Path 15574" d="M1545.518,827.091s-10.193,18.576-21.956,52.688-17.705,78.3-49.729,87.672" transform="translate(-1456.824 -826.164)" fill="none" stroke="#000" stroke-miterlimit="10" stroke-width="0.25"/>
        <path id="Path_15575" data-name="Path 15575" d="M1512.381,835.786s-3.388,15.437,1.983,25.363c0,0,13.433-5.072,18.958-19.186" transform="translate(-1442.114 -822.752)" fill="none" stroke="#000" stroke-miterlimit="10" stroke-width="0.25"/>
        <path id="Path_15576" data-name="Path 15576" d="M1501.594,847.825s-.911,18.84,8.763,30.887c0,0,21.209-3.246,30.439-17.655" transform="translate(-1445.942 -818.029)" fill="none" stroke="#000" stroke-miterlimit="10" stroke-width="0.25"/>
        <path id="Path_15577" data-name="Path 15577" d="M1491.175,860.286s.223,28.611,14.962,41.067c0,0,28.99-2.647,41.126-20.534" transform="translate(-1450.02 -813.14)" fill="none" stroke="#000" stroke-miterlimit="10" stroke-width="0.25"/>
        <path id="Path_15578" data-name="Path 15578" d="M1480.4,873.17s.444,33.125,19.043,50.674c0,0,32.262-2.647,52.044-25.336" transform="translate(-1454.247 -808.086)" fill="none" stroke="#000" stroke-miterlimit="10" stroke-width="0.25"/>
        <path id="Path_15579" data-name="Path 15579" d="M1471.744,889.781s3.318,35.11,15.186,47.013c0,0,28.476,5.33,63.4-19.468" transform="translate(-1457.644 -801.569)" fill="none" stroke="#000" stroke-miterlimit="10" stroke-width="0.25"/>
      </g>
      <g id="Group_4305" data-name="Group 4305" transform="translate(355.099 65.41)">
        <path id="Path_15580" data-name="Path 15580" d="M1536.213,891.219a58.983,58.983,0,0,1,28.261-15.547c17.191-3.644,33.757-5.912,36.547,17.965s-15.409,66.461-43.054,91.681l-38.627-36.036Z" transform="translate(-1519.341 -873.404)" fill="#cad226" stroke="#231815" stroke-miterlimit="10" stroke-width="0.25"/>
        <path id="Path_15581" data-name="Path 15581" d="M1595.06,877.5s-13.069,5.853-26.02,25.079-30.652,45.1-48.191,47.059" transform="translate(-1518.749 -871.799)" fill="none" stroke="#000" stroke-miterlimit="10" stroke-width="0.25"/>
        <path id="Path_15582" data-name="Path 15582" d="M1565.284,876.682s-4.426,7.615-2.916,14.221a25.944,25.944,0,0,0,15.693-.8" transform="translate(-1502.583 -872.118)" fill="none" stroke="#000" stroke-miterlimit="10" stroke-width="0.25"/>
        <path id="Path_15583" data-name="Path 15583" d="M1554.73,879.343s-9.717,20.4-5.944,36.461c1.089.085,19.105,1.618,34.822-9.5" transform="translate(-1508.13 -871.074)" fill="none" stroke="#000" stroke-miterlimit="10" stroke-width="0.25"/>
        <path id="Path_15584" data-name="Path 15584" d="M1542.448,883.932S1528.7,902.965,1538.385,933c0,0,23.706,5.625,42.316-2.808" transform="translate(-1513.225 -869.274)" fill="none" stroke="#000" stroke-miterlimit="10" stroke-width="0.25"/>
        <path id="Path_15585" data-name="Path 15585" d="M1572.633,934.523s-30.866,11.867-48.528-5.949" transform="translate(-1517.472 -851.76)" fill="none" stroke="#000" stroke-miterlimit="10" stroke-width="0.25"/>
      </g>
      <g id="Group_4306" data-name="Group 4306" transform="translate(0 140.24)">
        <path id="Path_15586" data-name="Path 15586" d="M1264.327,967.174c-.5-6,6.323-4.867,15.683-11.375,14.71-10.228,29.126-6.073,53.275-12.784s107.046-36.695,107.046,8.974c0,2.988-18.774,45.06-18.774,45.06s-22.138,17.372-48.016,18.07-35.3,3.089-54.7-12.1S1265.572,982.111,1264.327,967.174Z" transform="translate(-1264.301 -927.149)" fill="#cad226" stroke="#231815" stroke-miterlimit="10" stroke-width="0.25"/>
        <path id="Path_15587" data-name="Path 15587" d="M1264.32,957.6s29.872-8.713,63.231-5.228,40.578,2.49,63.731,8.215,43.906-4.518,43.906-4.518" transform="translate(-1264.294 -917.575)" fill="none" stroke="#000" stroke-miterlimit="10" stroke-width="0.25"/>
        <path id="Path_15588" data-name="Path 15588" d="M1301.046,944.665c.484,0,9.031,3.048,11.449,9.586,0,0-8.869,14-32.9,15.431" transform="translate(-1258.299 -920.276)" fill="none" stroke="#000" stroke-miterlimit="10" stroke-width="0.25"/>
        <path id="Path_15589" data-name="Path 15589" d="M1329.563,940.38c1.451.161,14.706,9.785,14.529,19.163,0,0-7.6,16.8-43.876,23.568" transform="translate(-1250.212 -921.958)" fill="none" stroke="#000" stroke-miterlimit="10" stroke-width="0.25"/>
        <path id="Path_15590" data-name="Path 15590" d="M1350.147,940.38s16.088,9.352,16.832,23.622c0,0-16.812,28.644-51.006,32.5" transform="translate(-1244.03 -921.958)" fill="none" stroke="#000" stroke-miterlimit="10" stroke-width="0.25"/>
        <path id="Path_15591" data-name="Path 15591" d="M1362.349,939.917s14.78,7.719,22.879,26.6c0,0-9.057,24.355-41.468,32.739" transform="translate(-1233.127 -922.139)" fill="none" stroke="#000" stroke-miterlimit="10" stroke-width="0.25"/>
      </g>
      <g id="Group_4307" data-name="Group 4307" transform="translate(90.572 86.624)">
        <path id="Path_15592" data-name="Path 15592" d="M1365.006,928.208c.55.366,5.678,12.637,19.779,16.116l1.1-4.029s-10.1-3.489-14.986-16.482Z" transform="translate(-1315.364 -874.841)" fill="#a5b63d" stroke="#231815" stroke-miterlimit="10" stroke-width="0.25"/>
        <path id="Path_15593" data-name="Path 15593" d="M1352.531,917.877s-3.648-6.313,0-16.553,12.906-15.85,19.078-10.8,2.1,19.358-6.033,26.652S1352.318,921.68,1352.531,917.877Z" transform="translate(-1320.894 -888.64)" fill="#fff6eb" stroke="#000" stroke-miterlimit="10" stroke-width="0.25"/>
        <path id="Path_15594" data-name="Path 15594" d="M1367.105,911.251s6.452,12.765-6.313,27.494-31.844,11.661-27.916-1.745S1350.693,912.373,1367.105,911.251Z" transform="translate(-1328.174 -879.769)" fill="#fff6eb" stroke="#000" stroke-miterlimit="10" stroke-width="0.25"/>
        <path id="Path_15595" data-name="Path 15595" d="M1369.316,916.216s-4.223-11.5-16.279-11.922-20.474,5.189-23,11.922,1.683,12.626,16.552,10.1S1369.316,916.216,1369.316,916.216Z" transform="translate(-1329.352 -882.508)" fill="#fff6eb" stroke="#000" stroke-miterlimit="10" stroke-width="0.25"/>
        <path id="Path_15596" data-name="Path 15596" d="M1363.788,912.722c1.694.1,15.291,4.131,15.431,11.987s-13.046,16.272-21.463,12.765S1351.163,911.957,1363.788,912.722Z" transform="translate(-1320.229 -879.2)" fill="#fff6eb" stroke="#000" stroke-miterlimit="10" stroke-width="0.25"/>
        <path id="Path_15597" data-name="Path 15597" d="M1356.507,914.566s1.823-6.874,10.1-12.485,18.937-5.47,23.846,2.105-2.943,18.359-12.763,21.8S1359.593,924.666,1356.507,914.566Z" transform="translate(-1318.698 -884.908)" fill="#fff6eb" stroke="#000" stroke-miterlimit="10" stroke-width="0.25"/>
      </g>
      <g id="Group_4308" data-name="Group 4308" transform="translate(56.685 59.571)">
        <ellipse id="Ellipse_2393" data-name="Ellipse 2393" cx="3.342" cy="2.121" rx="3.342" ry="2.121" transform="translate(98.634 21.459)" fill="#fff6eb" stroke="#000" stroke-miterlimit="10" stroke-width="0.25"/>
        <ellipse id="Ellipse_2394" data-name="Ellipse 2394" cx="3.213" cy="2.314" rx="3.213" ry="2.314" transform="translate(88.737 2.95)" fill="#fff6eb" stroke="#000" stroke-miterlimit="10" stroke-width="0.25"/>
        <ellipse id="Ellipse_2395" data-name="Ellipse 2395" cx="3.272" cy="2.306" rx="3.272" ry="2.306" transform="matrix(0.904, -0.428, 0.428, 0.904, 70.869, 5.358)" fill="#fff6eb" stroke="#000" stroke-miterlimit="10" stroke-width="0.25"/>
        <ellipse id="Ellipse_2396" data-name="Ellipse 2396" cx="2.577" cy="1.841" rx="2.577" ry="1.841" transform="translate(64.976 14.514) rotate(-45)" fill="#fff6eb" stroke="#000" stroke-miterlimit="10" stroke-width="0.25"/>
        <ellipse id="Ellipse_2397" data-name="Ellipse 2397" cx="2.577" cy="1.841" rx="2.577" ry="1.841" transform="translate(64.323 26.747) rotate(-30)" fill="#fff6eb" stroke="#000" stroke-miterlimit="10" stroke-width="0.25"/>
        <ellipse id="Ellipse_2398" data-name="Ellipse 2398" cx="2.205" cy="1.725" rx="2.205" ry="1.725" transform="translate(54.775 30.514) rotate(-30)" fill="#fff6eb" stroke="#000" stroke-miterlimit="10" stroke-width="0.25"/>
        <ellipse id="Ellipse_2399" data-name="Ellipse 2399" cx="3.067" cy="2.198" rx="3.067" ry="2.198" transform="translate(45.284 3.067) rotate(-30)" fill="#fff6eb" stroke="#000" stroke-miterlimit="10" stroke-width="0.25"/>
        <ellipse id="Ellipse_2400" data-name="Ellipse 2400" cx="2.779" cy="2.181" rx="2.779" ry="2.181" transform="translate(45.036 38.405) rotate(-45)" fill="#fff6eb" stroke="#000" stroke-miterlimit="10" stroke-width="0.25"/>
        <ellipse id="Ellipse_2401" data-name="Ellipse 2401" cx="3.549" cy="1.862" rx="3.549" ry="1.862" transform="translate(18.168 83.186) rotate(-77.512)" fill="#fff6eb" stroke="#000" stroke-miterlimit="10" stroke-width="0.25"/>
        <ellipse id="Ellipse_2402" data-name="Ellipse 2402" cx="3.549" cy="1.862" rx="3.549" ry="1.862" transform="translate(28.746 15.186) rotate(-45)" fill="#fff6eb" stroke="#000" stroke-miterlimit="10" stroke-width="0.25"/>
        <ellipse id="Ellipse_2403" data-name="Ellipse 2403" cx="3.108" cy="2.053" rx="3.108" ry="2.053" transform="translate(31.431 32.567) rotate(-20.466)" fill="#fff6eb" stroke="#000" stroke-miterlimit="10" stroke-width="0.25"/>
        <ellipse id="Ellipse_2404" data-name="Ellipse 2404" cx="3.108" cy="2.053" rx="3.108" ry="2.053" transform="translate(14.346 29.316) rotate(-45)" fill="#fff6eb" stroke="#000" stroke-miterlimit="10" stroke-width="0.25"/>
        <ellipse id="Ellipse_2405" data-name="Ellipse 2405" cx="2.823" cy="1.679" rx="2.823" ry="1.679" transform="matrix(0.613, -0.79, 0.79, 0.613, 16.56, 45.603)" fill="#fff6eb" stroke="#000" stroke-miterlimit="10" stroke-width="0.25"/>
        <ellipse id="Ellipse_2406" data-name="Ellipse 2406" cx="2.823" cy="1.679" rx="2.823" ry="1.679" transform="matrix(0.613, -0.79, 0.79, 0.613, 0, 52.91)" fill="#fff6eb" stroke="#000" stroke-miterlimit="10" stroke-width="0.25"/>
        <path id="Path_15598" data-name="Path 15598" d="M1308.162,907.089s36.568,27.827,69.468,8.894c0,0-10.213,19.243-51.28,18.891" transform="translate(-1303.779 -854.349)" fill="none" stroke="#000" stroke-miterlimit="10" stroke-width="0.25"/>
        <path id="Path_15599" data-name="Path 15599" d="M1392.862,893.406s-5.674,20.853-28.125,35.933c0,0,.466-27.111-23.713-56.293" transform="translate(-1290.886 -867.705)" fill="none" stroke="#000" stroke-miterlimit="10" stroke-width="0.25"/>
        <path id="Path_15600" data-name="Path 15600" d="M1333,880.206s28.292,22.084,39.961,46.324c0,0-24.3,3.917-52.908-16.2" transform="translate(-1299.113 -864.896)" fill="none" stroke="#000" stroke-miterlimit="10" stroke-width="0.25"/>
        <path id="Path_15601" data-name="Path 15601" d="M1366.7,875.046s9.607,24-1.949,53.509c0,0-12.035-17.447-23.764-22.109" transform="translate(-1290.901 -866.92)" fill="none" stroke="#000" stroke-miterlimit="10" stroke-width="0.25"/>
        <path id="Path_15602" data-name="Path 15602" d="M1318.981,897.1s25.651,24.2,54.4,31.613c0,0,19.643-17.553,18.1-54.057" transform="translate(-1299.534 -867.075)" fill="none" stroke="#000" stroke-miterlimit="10" stroke-width="0.25"/>
        <path id="Path_15603" data-name="Path 15603" d="M1330.711,895.408s21.038,20.263,38.072,26.307c0,0-4.279-20.069-15.441-29.235" transform="translate(-1294.932 -860.081)" fill="none" stroke="#000" stroke-miterlimit="10" stroke-width="0.25"/>
        <path id="Path_15604" data-name="Path 15604" d="M1354.137,893.547s9.816,15.714,5.455,32.987c0,0,10.164-22.954-4.45-46.339" transform="translate(-1285.742 -864.9)" fill="none" stroke="#000" stroke-miterlimit="10" stroke-width="0.25"/>
      </g>
    </g>
    <g id="Group_4311" data-name="Group 4311" transform="translate(1401.448 859.265)">
      <path id="Path_15605" data-name="Path 15605" d="M1444.086,853.689s10.9-3.829,21.464,0,21.68,15.911,27.752,35.3,9.6,33.292,22.914,46.806,27.807,36.713,15.309,72.255-25.743,47.206-44.686,44.424-19.738-7.286-28.214-2.782-13.114,4.238-22.387,1.987-10.463,1.324-19.736,3.443-32.851,3.048-47.421-15.763-1.287-48.388,14.554-70.846,13.081-37.468,15.327-60.256S1410.9,850.8,1444.086,853.689Z" transform="translate(-1362.803 -849.236)" fill="#ea6157" stroke="#000" stroke-linejoin="round" stroke-width="0.25"/>
      <path id="Path_15606" data-name="Path 15606" d="M1422.135,900.469s4.173,52.637-11.233,81.524" transform="translate(-1343.932 -830.215)" fill="none" stroke="#000" stroke-miterlimit="10" stroke-width="0.25"/>
      <path id="Path_15607" data-name="Path 15607" d="M1409.676,915.914s-.642,34.663-21.826,57.131" transform="translate(-1352.976 -824.156)" fill="none" stroke="#000" stroke-miterlimit="10" stroke-width="0.25"/>
      <path id="Path_15608" data-name="Path 15608" d="M1440.409,908.076s1.605,44.935,29.528,55.206" transform="translate(-1332.356 -827.231)" fill="none" stroke="#000" stroke-miterlimit="10" stroke-width="0.25"/>
      <path id="Path_15609" data-name="Path 15609" d="M1455.623,922.829s4.173,14.444,25.356,22.788" transform="translate(-1326.387 -821.443)" fill="none" stroke="#000" stroke-miterlimit="10" stroke-width="0.25"/>
      <path id="Path_15610" data-name="Path 15610" d="M1407.293,979.768s-4.217,9.677,3.853,15.728" transform="translate(-1345.78 -799.104)" fill="none" stroke="#000" stroke-miterlimit="10" stroke-width="0.25"/>
      <path id="Path_15611" data-name="Path 15611" d="M1373.564,980.69s-.642,6.1,5.135,8.346" transform="translate(-1358.589 -798.742)" fill="none" stroke="#000" stroke-miterlimit="10" stroke-width="0.25"/>
      <ellipse id="Ellipse_2407" data-name="Ellipse 2407" cx="2.947" cy="1.858" rx="2.947" ry="1.858" transform="matrix(0.758, -0.652, 0.652, 0.758, 52.784, 21.578)" fill="#dffffa" stroke="#231815" stroke-miterlimit="10" stroke-width="0.25"/>
      <ellipse id="Ellipse_2408" data-name="Ellipse 2408" cx="2.797" cy="3.68" rx="2.797" ry="3.68" transform="translate(98.128 12.263) rotate(-45)" fill="#dffffa" stroke="#231815" stroke-miterlimit="10" stroke-width="0.25"/>
      <ellipse id="Ellipse_2409" data-name="Ellipse 2409" cx="4.092" cy="6.062" rx="4.092" ry="6.062" transform="translate(105.007 23.401) rotate(-45)" fill="#dffffa" stroke="#231815" stroke-miterlimit="10" stroke-width="0.25"/>
      <g id="Group_4310" data-name="Group 4310" transform="translate(75.235)">
        <path id="Path_15612" data-name="Path 15612" d="M1428.72,856.619a1.708,1.708,0,0,0,.046-.531,1.641,1.641,0,0,0-.118-.4l-.27-3.485-11.321,1.131.388,3.887c.169,1.683,2.839,2.8,5.965,2.483,2.773-.276,4.964-1.58,5.307-3.046h.006Z" transform="translate(-1416.752 -849.152)" fill="#ea6157" stroke="#000" stroke-linejoin="round" stroke-width="0.25"/>
        <ellipse id="Ellipse_2410" data-name="Ellipse 2410" cx="5.689" cy="3.063" rx="5.689" ry="3.063" transform="translate(0 1.13) rotate(-5.698)" fill="#fbc6a6" stroke="#000" stroke-linejoin="round" stroke-width="0.25"/>
      </g>
    </g>
    <g id="Group_4313" data-name="Group 4313" transform="translate(1480.696 954.131)">
      <path id="Path_15613" data-name="Path 15613" d="M1553.694,1084.286c15.42.22,26.216-2.974,38.222-11.015s17.294-21.589,14.1-35.138-15.2-16.3-24.894-19.057-14.76-9.363-16.633-15.861-3.415-2.424-7.6-6.719-9.919-18.652-5.182-33.087,6.316-26.163,0-35.263a27.011,27.011,0,0,0-9.961-8.571c-12.066-2.864-25.627-2.083-40.689,8.571-24.926,17.634-28.081,39.475-37.766,62.507s-20.92,37.862-33.224,49.22-13.485,27.291-4.334,48.115c0,0,13.266,18.478,34.112,11.371,2.109-.72,4.329-1.325,6.6-1.873,11.3-4.922,30.815-8.124,46.137-11.214C1530.446,1082.668,1538.272,1084.066,1553.694,1084.286Z" transform="translate(-1419.72 -918.146)" fill="#fff6eb" stroke="#000" stroke-miterlimit="10" stroke-width="0.25"/>
      <path id="Path_15614" data-name="Path 15614" d="M1519.945,953.8a21.954,21.954,0,0,1,19.992,11.749" transform="translate(-1380.399 -904.164)" fill="none" stroke="#000" stroke-miterlimit="10" stroke-width="0.25"/>
      <path id="Path_15615" data-name="Path 15615" d="M1537.026,969.095a7.894,7.894,0,0,1,3.315,6.554,15.573,15.573,0,0,0,2.05,7.516" transform="translate(-1373.698 -898.157)" fill="none" stroke="#000" stroke-miterlimit="10" stroke-width="0.25"/>
      <path id="Path_15616" data-name="Path 15616" d="M1517.767,960a8.58,8.58,0,0,1,7.865,3.684" transform="translate(-1381.254 -901.745)" fill="none" stroke="#000" stroke-miterlimit="10" stroke-width="0.25"/>
      <path id="Path_15617" data-name="Path 15617" d="M1536.274,977.068s2.843,2.833-.473,10.327" transform="translate(-1374.179 -895.029)" fill="none" stroke="#000" stroke-miterlimit="10" stroke-width="0.25"/>
      <path id="Path_15618" data-name="Path 15618" d="M1524.694,964.131c6.625-1.278,14.76-2.093,18.014,3.486,3.007,5.156,9.79,12.784,18.966,9.049.788-1.1,6.474-9.692,1.944-21.967-4.856-13.162-17.752-18.717-34.474-26.957-6.618-3.261-13.88-6.7-21.783-8.571a27.011,27.011,0,0,1,9.961,8.571c5.935,8.554,4.9,19.431.816,32.7C1518.789,962.389,1520.453,964.949,1524.694,964.131Z" transform="translate(-1385.336 -917.744)" fill="#ea6157" stroke="#000" stroke-linejoin="round" stroke-width="0.25"/>
      <path id="Path_15619" data-name="Path 15619" d="M1603.953,981.808c-4.745-12.282-13.337-12.754-15.161-12.711-10.351,2.477-13.709,9.124-13.709,16.936a51.586,51.586,0,0,0,3.188,16.325c6.561,2.643,12.478,6.874,14.578,15.785,3.2,13.549-2.093,27.1-14.1,35.138s-22.8,11.235-38.222,11.014-23.248-1.618-41.111,1.986c-15.323,3.09-34.833,6.292-46.138,11.214,20.18-4.869,45.891-3.531,61.861-5.235,17.766-1.9,34.112,1.895,54.958-2.132s34.35-21.321,36.482-36.482S1609.281,995.6,1603.953,981.808Z" transform="translate(-1406.554 -898.157)" fill="#ea6157" stroke="#000" stroke-linejoin="round" stroke-width="0.25"/>
      <path id="Path_15620" data-name="Path 15620" d="M1565.27,977.056c-.223.006-.351.018-.351.018-8.618-3.918-5.642-11.91-5.642-11.91s.036-.047.093-.127c-9.177,3.736-15.959-3.893-18.966-9.049-3.254-5.579-11.389-4.765-18.014-3.486-4.241.819-5.905-1.742-6.557-3.692q-.39,1.27-.816,2.567c-4.737,14.436,1,28.791,5.182,33.087a10.013,10.013,0,0,0,1.537,1.309,4.633,4.633,0,0,1,3.773-1.88,4.412,4.412,0,0,1,4.55,4.26,4.2,4.2,0,0,1-2.086,3.574c1.994,6.32,7.035,12.641,16.458,15.317a101.765,101.765,0,0,1,10.316,3.272,51.586,51.586,0,0,1-3.188-16.325C1551.561,986.18,1554.919,979.533,1565.27,977.056Z" transform="translate(-1383.032 -906.116)" fill="#fbc6a6" stroke="#000" stroke-linejoin="round" stroke-width="0.25"/>
      <path id="Path_15621" data-name="Path 15621" d="M1527.665,978.268a4.412,4.412,0,0,0-4.55-4.26,4.633,4.633,0,0,0-3.773,1.88c3.063,2.08,4.44-.223,6.064,5.411.052.181.115.363.174.544A4.2,4.2,0,0,0,1527.665,978.268Z" transform="translate(-1380.636 -896.23)" fill="none" stroke="#000" stroke-miterlimit="10" stroke-width="0.25"/>
      <path id="Path_15622" data-name="Path 15622" d="M1529.744,931.973s4.894,10.785.667,18.546" transform="translate(-1376.555 -912.721)" fill="none" stroke="#000" stroke-miterlimit="10" stroke-width="0.25"/>
      <path id="Path_15623" data-name="Path 15623" d="M1536.524,953.223s5.108-3.109,5.108-8.329" transform="translate(-1373.895 -907.652)" fill="none" stroke="#000" stroke-miterlimit="10" stroke-width="0.25"/>
      <path id="Path_15624" data-name="Path 15624" d="M1551.168,976.825s8.456-.947,11.955,12.758" transform="translate(-1368.149 -895.13)" fill="none" stroke="#000" stroke-miterlimit="10" stroke-width="0.25"/>
      <path id="Path_15625" data-name="Path 15625" d="M1547.084,983.891s4.373-1.339,7,1.576" transform="translate(-1369.752 -892.473)" fill="none" stroke="#000" stroke-miterlimit="10" stroke-width="0.25"/>
      <path id="Path_15626" data-name="Path 15626" d="M1538.716,963.965a6.4,6.4,0,0,1,4.712-.858" transform="translate(-1373.035 -900.569)" fill="none" stroke="#000" stroke-miterlimit="10" stroke-width="0.25"/>
      <path id="Path_15627" data-name="Path 15627" d="M1541.434,971.98a8.894,8.894,0,0,0,4.283-3.842" transform="translate(-1371.969 -898.532)" fill="none" stroke="#000" stroke-miterlimit="10" stroke-width="0.25"/>
      <path id="Path_15628" data-name="Path 15628" d="M1540.879,968.662a5,5,0,0,1,2.914-1.857" transform="translate(-1372.186 -899.056)" fill="none" stroke="#000" stroke-miterlimit="10" stroke-width="0.25"/>
      <path id="Path_15629" data-name="Path 15629" d="M1540.193,965.714a4.008,4.008,0,0,1,2.942-1" transform="translate(-1372.455 -899.892)" fill="none" stroke="#000" stroke-miterlimit="10" stroke-width="0.25"/>
      <path id="Path_15630" data-name="Path 15630" d="M1501.588,933.209c9.66,2.444,3.842,14.8,6.4,20.434" transform="translate(-1387.601 -912.236)" fill="none" stroke="#000" stroke-miterlimit="10" stroke-width="0.25"/>
      <path id="Path_15631" data-name="Path 15631" d="M1508.444,935.2a21.417,21.417,0,0,1,.436,11.075" transform="translate(-1384.911 -911.454)" fill="none" stroke="#000" stroke-miterlimit="10" stroke-width="0.25"/>
      <ellipse id="Ellipse_2411" data-name="Ellipse 2411" cx="3.514" cy="2.492" rx="3.514" ry="2.492" transform="translate(86.022 20.9) rotate(-45)" fill="#dffffa" stroke="#231815" stroke-miterlimit="10" stroke-width="0.25"/>
      <ellipse id="Ellipse_2412" data-name="Ellipse 2412" cx="5.887" cy="3.851" rx="5.887" ry="3.851" transform="translate(71.706 34.212) rotate(-37.777)" fill="#dffffa" stroke="#231815" stroke-miterlimit="10" stroke-width="0.25"/>
      <path id="Path_15632" data-name="Path 15632" d="M1537.9,1003.728s8.559,3.106,4.155,18.138" transform="translate(-1373.357 -884.57)" fill="none" stroke="#000" stroke-miterlimit="10" stroke-width="0.25"/>
      <path id="Path_15633" data-name="Path 15633" d="M1546.16,1007.3a16.889,16.889,0,0,1-2.733,16.772" transform="translate(-1371.186 -883.169)" fill="none" stroke="#000" stroke-miterlimit="10" stroke-width="0.25"/>
      <path id="Path_15634" data-name="Path 15634" d="M1507.361,986.142c.15-.164,10.338.333,15.555-5.88" transform="translate(-1385.336 -893.776)" fill="none" stroke="#000" stroke-miterlimit="10" stroke-width="0.25"/>
      <path id="Path_15635" data-name="Path 15635" d="M1513.234,987.426a18.259,18.259,0,0,1,6.312-2.941" transform="translate(-1383.032 -892.119)" fill="none" stroke="#000" stroke-miterlimit="10" stroke-width="0.25"/>
      <path id="Path_15636" data-name="Path 15636" d="M1521.9,989.809c-2.733,1.118-5.341,4.348-5.838,9.938s-5.342,13.045-14.66,18.511-22.361,5.217-29.442,9.068" transform="translate(-1399.226 -890.031)" fill="none" stroke="#000" stroke-miterlimit="10" stroke-width="0.25"/>
      <path id="Path_15637" data-name="Path 15637" d="M1464.017,1024.251c5.342-2.236,6.7-11.978,8.688-20.054s12.431-26.73,39.762-19.986" transform="translate(-1402.341 -892.792)" fill="none" stroke="#000" stroke-miterlimit="10" stroke-width="0.25"/>
      <path id="Path_15638" data-name="Path 15638" d="M1476.241,1015.176s23.231,1.752,31.43-17.511" transform="translate(-1397.546 -886.948)" fill="none" stroke="#000" stroke-miterlimit="10" stroke-width="0.25"/>
      <g id="Group_4312" data-name="Group 4312" transform="translate(81.987 103.382)">
        <path id="Path_15639" data-name="Path 15639" d="M1503.416,1005.5c.012-.228.035-.453.035-.684a12.423,12.423,0,1,0-17.4,11.381C1491.776,1014.864,1498.595,1011.912,1503.416,1005.5Z" transform="translate(-1478.605 -992.397)" fill="#c19165" stroke="#000" stroke-linejoin="round" stroke-width="0.25"/>
      </g>
      <path id="Path_15640" data-name="Path 15640" d="M1428.82,1024.324s.628-8.841,5.828-11.762" transform="translate(-1416.15 -881.104)" fill="none" stroke="#000" stroke-miterlimit="10" stroke-width="0.25"/>
      <path id="Path_15641" data-name="Path 15641" d="M1433.006,1022.679a8.25,8.25,0,0,1,3.073-5.924" transform="translate(-1414.508 -879.459)" fill="none" stroke="#000" stroke-miterlimit="10" stroke-width="0.25"/>
      <path id="Path_15642" data-name="Path 15642" d="M1451.593,1027.262a19.334,19.334,0,0,0,10.99-7.208" transform="translate(-1407.216 -878.164)" fill="none" stroke="#000" stroke-miterlimit="10" stroke-width="0.25"/>
      <path id="Path_15643" data-name="Path 15643" d="M1447.6,1036.429a39.83,39.83,0,0,1,20.917-13.235" transform="translate(-1408.781 -876.933)" fill="none" stroke="#000" stroke-miterlimit="10" stroke-width="0.25"/>
    </g>
    <g id="Group_4314" data-name="Group 4314" transform="translate(1318.837 1048.306)">
      <path id="Path_15644" data-name="Path 15644" d="M1312.113,996.015s2.164-2.573,9.227-3.471,16.179,1.736,16.179,1.736l-3.853,20.661-15.793-4.163Z" transform="translate(-1300.08 -983.206)" fill="#ea6157" stroke="#000" stroke-linejoin="round" stroke-width="0.25"/>
      <path id="Path_15645" data-name="Path 15645" d="M1512.053,1058.479s4.525,19.09-16.072,24.783-32.486-.167-47.558-7.033-41.529-7.537-67.485-6.7-49.4.334-66.646-17.751-8.708-43.2-8.708-43.2l99.3,12.225,58.107,22.439,36.338,16.578Z" transform="translate(-1303.47 -976.842)" fill="#ea6157" stroke="#000" stroke-linejoin="round" stroke-width="0.25"/>
      <path id="Path_15646" data-name="Path 15646" d="M1305.027,1015.448a41.506,41.506,0,0,1,3.581-12.368c3.05-6.743,5.863-7.4,8.041-5.908s-.817,6.669,5.715,7.214,10.479-5.308,11.7-11.977l29.123-1.345s.544,8.83,14.561,13.322,122.331,62.166,122.331,62.166l8.4-2.043a2.577,2.577,0,0,1,3.008.841s-2.845,8.692-14.579,11.382-23.987.264-32.146-4.357-24.536-14.021-47.18-15.445-53.265,2.421-68.931,1.282-27.76-4.638-35.889-15.808A40.43,40.43,0,0,1,1305.027,1015.448Z" transform="translate(-1302.913 -983.713)" fill="#fbc6a6" stroke="#000" stroke-linejoin="round" stroke-width="0.25"/>
      <path id="Path_15647" data-name="Path 15647" d="M1309.989,1000.8c1.838-3.758,4.915-4.549,5.275-1.637s-3.241,6.873,1.681,8.433,9.362-.84,16.8-2.52,31.72-6.756,51.963-2.354,24.293,12.833,40.151,15.788c0,0,9.8,8.463,19.156,10.431s16.609,8.549,25.212,13.778,16.027,6.073,21.932,9.954,4.639,8.393,15.409,9.349c0,0-4.167,7.6-11.821,8.978s-15.03,2.757-25.45-1.111-14.107-10.586-30.943-15.439-49.6-3.567-62.339-3-37.161,2.391-53.39-6.256S1304,1013.044,1309.989,1000.8Z" transform="translate(-1301.996 -981.228)" fill="#fff6eb" stroke="#000" stroke-miterlimit="10" stroke-width="0.25"/>
      <path id="Path_15648" data-name="Path 15648" d="M1314.3,1013.732s.84,19.878,19.6,24.639" transform="translate(-1299.223 -974.82)" fill="none" stroke="#000" stroke-miterlimit="10" stroke-width="0.25"/>
      <path id="Path_15649" data-name="Path 15649" d="M1325.759,1025.194s3.219,4.62,7.839,5.88" transform="translate(-1294.726 -970.323)" fill="none" stroke="#000" stroke-miterlimit="10" stroke-width="0.25"/>
      <path id="Path_15650" data-name="Path 15650" d="M1330.786,1023.887s8.539,6.859,17.638,6.3" transform="translate(-1292.754 -970.836)" fill="none" stroke="#000" stroke-miterlimit="10" stroke-width="0.25"/>
      <path id="Path_15651" data-name="Path 15651" d="M1331.389,997.4a4.3,4.3,0,0,0,1.847,2.927" transform="translate(-1292.517 -981.227)" fill="none" stroke="#000" stroke-miterlimit="10" stroke-width="0.25"/>
      <path id="Path_15652" data-name="Path 15652" d="M1334.187,997.634a9.35,9.35,0,0,1,3.209,2.6" transform="translate(-1291.419 -981.136)" fill="none" stroke="#000" stroke-miterlimit="10" stroke-width="0.25"/>
      <path id="Path_15653" data-name="Path 15653" d="M1337.923,996.919s1.384,2.38,3.542,2.767" transform="translate(-1289.954 -981.416)" fill="none" stroke="#000" stroke-miterlimit="10" stroke-width="0.25"/>
      <path id="Path_15654" data-name="Path 15654" d="M1390.811,1048.7s8.844-.654,14.631,4.041" transform="translate(-1269.204 -961.112)" fill="none" stroke="#000" stroke-miterlimit="10" stroke-width="0.25"/>
      <path id="Path_15655" data-name="Path 15655" d="M1422.726,1045.635s4.476,4.632,10.154,4.227" transform="translate(-1256.683 -962.303)" fill="none" stroke="#000" stroke-miterlimit="10" stroke-width="0.25"/>
      <path id="Path_15656" data-name="Path 15656" d="M1427.2,1045.635a4.448,4.448,0,0,0,3.931,1.092" transform="translate(-1254.929 -962.303)" fill="none" stroke="#000" stroke-miterlimit="10" stroke-width="0.25"/>
      <ellipse id="Ellipse_2413" data-name="Ellipse 2413" cx="3.099" cy="5.682" rx="3.099" ry="5.682" transform="translate(91.74 29.272) rotate(-57.184)" fill="#dffffa" stroke="#231815" stroke-miterlimit="10" stroke-width="0.25"/>
      <ellipse id="Ellipse_2414" data-name="Ellipse 2414" cx="14.846" cy="6.732" rx="14.846" ry="6.732" transform="translate(30.431 1.286) rotate(-2.483)" fill="#ea6157" stroke="#000" stroke-linejoin="round" stroke-width="0.25"/>
    </g>
    <path id="Path_15657" data-name="Path 15657" d="M1558.959,932.847" transform="translate(115.603 41.752)" fill="none" stroke="#000" stroke-miterlimit="10" stroke-width="0.25"/>
    <g id="Group_4315" data-name="Group 4315" transform="translate(1547.446 1133.656)">
      <ellipse id="Ellipse_2415" data-name="Ellipse 2415" cx="1.703" cy="3.324" rx="1.703" ry="3.324" transform="translate(26.166 26.533)" fill="#fff6eb" stroke="#000" stroke-miterlimit="10" stroke-width="0.25"/>
      <ellipse id="Ellipse_2416" data-name="Ellipse 2416" cx="1.552" cy="2.917" rx="1.552" ry="2.917" transform="translate(31.228 14.551) rotate(-23.734)" fill="#fff6eb" stroke="#000" stroke-miterlimit="10" stroke-width="0.25"/>
      <ellipse id="Ellipse_2417" data-name="Ellipse 2417" cx="1.788" cy="3.34" rx="1.788" ry="3.34" transform="translate(33.872 2.094) rotate(-35.847)" fill="#fff6eb" stroke="#000" stroke-miterlimit="10" stroke-width="0.25"/>
      <path id="Path_15658" data-name="Path 15658" d="M1479.352,1059.129s13.23-2.328,19.552-8.6" transform="translate(-1463.076 -1045.732)" fill="none" stroke="#000" stroke-miterlimit="10" stroke-width="0.25"/>
      <path id="Path_15659" data-name="Path 15659" d="M1467.662,1057.383s13.623,8.871,32.4,2.882" transform="translate(-1467.662 -1043.044)" fill="none" stroke="#000" stroke-miterlimit="10" stroke-width="0.25"/>
      <path id="Path_15660" data-name="Path 15660" d="M1492.343,1072.2s-16.1-2.75-20.9-13.039" transform="translate(-1466.177 -1042.346)" fill="none" stroke="#000" stroke-miterlimit="10" stroke-width="0.25"/>
    </g>
  </g>
</svg>
