<svg xmlns="http://www.w3.org/2000/svg" width="365.417" height="476.577" viewBox="0 0 365.417 476.577">
  <g id="Group_4326" data-name="Group 4326" transform="translate(-1306.913 -1279.687)">
    <g id="Group_4317" data-name="Group 4317" transform="translate(1412.462 1279.812)">
      <path id="Path_15661" data-name="Path 15661" d="M1426.267,1369.583a4.935,4.935,0,0,0-1.849,2.991" transform="translate(-1376.536 -1252.331)" fill="none" stroke="#000" stroke-miterlimit="10" stroke-width="0.25"/>
      <path id="Path_15662" data-name="Path 15662" d="M1416.278,1279.813c.87.068,4.53,6.734,5.592,6.571s2.245-5.021,3.265-4.938,2,7.958,3.919,8.244,3.225-3.266,4.041-2.9,1.551,8,3.346,8.409,2.816-2.612,4.164-1.959,2.077,11.306,3.072,11.632,3.608-2.067,4.533-1.741,1.415,10.176,2.721,10.666,3.429-2.939,4.9-2.231.762,12.626,2.721,13.5,2.286-3.047,3.647-2.231.653,12.516,1.8,12.953,3.1-1.089,4.79,0-.381,6.747.653,7.51,2.776-.6,3.755,0,9.741,66.72-31.811,89.9c0,0-16.3,5.116-27.727,2.122s-22.421-31.292-21.333-32.6,4.245.653,4.79-.327-7.837-9.361-6.967-10.994,4.681-.545,5.661-1.306-9.143-11.755-7.947-13.5,6.967-.979,7.62-2.177-6.749-11.864-5.334-12.734,5.769.653,6.857-.545-5.768-17.414-4.9-18.612,4.571,1.416,5.551.545-4.462-11.1-3.809-12.843,3.918,2.5,4.68,1.2-4.245-10.122-3.483-10.884,5.008,1.414,5.987.327-3.81-9.9-2.722-10.449,4.79,2.068,5.551,1.633-2.829-8.163-1.849-8.925,4.135,2.176,5.333.979-2.939-10.558-1.525-11.212,4.245,1.089,5.116.218-1.633-8.272.218-8.708,3.7,1.851,4.571,1.524S1414.9,1279.7,1416.278,1279.813Z" transform="translate(-1387.758 -1279.812)" fill="#a5b63d" stroke="#231815" stroke-miterlimit="10" stroke-width="0.25"/>
      <path id="Path_15663" data-name="Path 15663" d="M1409.594,1279.813s22.734,71.536,18.381,113.061" transform="translate(-1381.073 -1279.811)" fill="none" stroke="#000" stroke-miterlimit="10" stroke-width="0.25"/>
      <path id="Path_15664" data-name="Path 15664" d="M1407.667,1301.5s5.657,13.862,14.093,16.074" transform="translate(-1381.663 -1273.173)" fill="none" stroke="#000" stroke-miterlimit="10" stroke-width="0.25"/>
      <path id="Path_15665" data-name="Path 15665" d="M1423.519,1299.667s.432,13.427-5.062,18.469" transform="translate(-1378.36 -1273.734)" fill="none" stroke="#000" stroke-miterlimit="10" stroke-width="0.25"/>
      <path id="Path_15666" data-name="Path 15666" d="M1403.083,1319.833s11.057,20.571,25.417,22.2" transform="translate(-1383.066 -1267.561)" fill="none" stroke="#000" stroke-miterlimit="10" stroke-width="0.25"/>
      <path id="Path_15667" data-name="Path 15667" d="M1438.16,1314.167s-.1,22.318-15.617,29.6" transform="translate(-1377.109 -1269.295)" fill="none" stroke="#000" stroke-miterlimit="10" stroke-width="0.25"/>
      <path id="Path_15668" data-name="Path 15668" d="M1399.312,1342.688s13.492,18.536,32.338,22.043" transform="translate(-1384.221 -1260.564)" fill="none" stroke="#000" stroke-miterlimit="10" stroke-width="0.25"/>
      <path id="Path_15669" data-name="Path 15669" d="M1444.3,1333.75s-3,25.147-20.233,33.717" transform="translate(-1376.642 -1263.3)" fill="none" stroke="#000" stroke-miterlimit="10" stroke-width="0.25"/>
      <path id="Path_15670" data-name="Path 15670" d="M1399.312,1364.583s9.675,15.891,28.579,17.742" transform="translate(-1384.221 -1253.862)" fill="none" stroke="#000" stroke-miterlimit="10" stroke-width="0.25"/>
    </g>
    <g id="Group_4318" data-name="Group 4318" transform="translate(1326.734 1345.795)">
      <path id="Path_15671" data-name="Path 15671" d="M1330.492,1330.405c.893-.845,7.83,5.743,8.868,5.3s-.982-4.428.217-4.605,7.97,8.62,8.883,8.444-.574-3.059.453-3.291,6.913,7.551,8.123,7.168-.35-3.746.94-3.854,6.579,9.152,8.088,9.134.093-4.341,1.11-4.084,6.857,9.928,8.078,9.625,1.177-4.747,2.674-4.56,7.385,12.668,9.132,12.613,3.4-4.872,4.353-4.522,4.133,11.106,6.331,12.169,1.482-5.253,3.58-4.822,5.9,16.771,7.654,17.288,2.691-3.337,3.8-2.726,2.218,11.962,4.566,13.206,2.9-3.042,4.045-2.19,3.869,13.187,5.1,13.82,1.948-3.676,3.448-2.918,1.84,14.384,3.329,15.063,2.236-2.821,3.577-2.04,1.055,14.869,2.077,15.983,2.427-1.257,3.116-.461-1.742,12.792.013,14.166,1.6-3.012,3.316-1.593,1.924,44.535-26.756,59.8a110.407,110.407,0,0,1-46.1-17.715c-22.352-15.313-28.274-20.989-27.562-22.382s4.287-.456,4.785-1.415-8.454-8.878-8.017-10.9,4.645-.076,5.22-1.57-12.306-14.471-11.495-16.857,4.852.508,5.684-.9-10.51-11.858-9.889-14.277,4.526.372,4.948-.916-10.824-16.465-9.687-18.715,5.062,1.516,5.684-.9-8.8-15.167-7.471-16.959,3.965.7,5-.559-6.942-10.915-6.077-12.941,4.082.682,4.914-.727-7.544-14.99-6.3-16.951,3.66,1.97,4.783.457-3.246-12.014-1.71-13.22,5.486,3.965,6.563,3.378S1328.7,1332.1,1330.492,1330.405Z" transform="translate(-1322.123 -1330.33)" fill="#cad226" stroke="#231815" stroke-miterlimit="10" stroke-width="0.25"/>
      <path id="Path_15672" data-name="Path 15672" d="M1328.53,1330.388s55.233,75.929,88.124,172.119" transform="translate(-1320.162 -1330.313)" fill="none" stroke="#000" stroke-miterlimit="10" stroke-width="0.25"/>
      <path id="Path_15673" data-name="Path 15673" d="M1348.635,1345.3s5.163,15.173-.084,20.9" transform="translate(-1314.032 -1325.748)" fill="none" stroke="#000" stroke-miterlimit="10" stroke-width="0.25"/>
      <path id="Path_15674" data-name="Path 15674" d="M1334.873,1350.457s5.739,12.66,17.865,14.165" transform="translate(-1318.22 -1324.169)" fill="none" stroke="#000" stroke-miterlimit="10" stroke-width="0.25"/>
      <path id="Path_15675" data-name="Path 15675" d="M1365.869,1356.2s6.894,21.243-4.051,37.778" transform="translate(-1309.972 -1322.41)" fill="none" stroke="#000" stroke-miterlimit="10" stroke-width="0.25"/>
      <path id="Path_15676" data-name="Path 15676" d="M1336.169,1368.52s16.558,22.195,33.5,21.692" transform="translate(-1317.823 -1318.64)" fill="none" stroke="#000" stroke-miterlimit="10" stroke-width="0.25"/>
      <path id="Path_15677" data-name="Path 15677" d="M1386.362,1371.873s2.436,35.742-11.453,52.284" transform="translate(-1305.964 -1317.614)" fill="none" stroke="#000" stroke-miterlimit="10" stroke-width="0.25"/>
      <path id="Path_15678" data-name="Path 15678" d="M1337.67,1391.148s25.642,31.7,48.639,27.108" transform="translate(-1317.363 -1311.713)" fill="none" stroke="#000" stroke-miterlimit="10" stroke-width="0.25"/>
      <path id="Path_15679" data-name="Path 15679" d="M1400.885,1394.248s10.9,26.871-13.687,61.543" transform="translate(-1302.202 -1310.764)" fill="none" stroke="#000" stroke-miterlimit="10" stroke-width="0.25"/>
      <path id="Path_15680" data-name="Path 15680" d="M1342.935,1414.283s28.649,42.128,57.813,35.375" transform="translate(-1315.752 -1304.631)" fill="none" stroke="#000" stroke-miterlimit="10" stroke-width="0.25"/>
    </g>
    <g id="Group_4319" data-name="Group 4319" transform="translate(1326.631 1439.373)">
      <path id="Path_15681" data-name="Path 15681" d="M1369.752,1448.975s-8.334-12.02-18.288-17.225l-2.255,1.974a58.215,58.215,0,0,1,17.7,16.011Z" transform="translate(-1313.729 -1392.862)" fill="#cad226" stroke="#231815" stroke-miterlimit="10" stroke-width="0.25"/>
      <path id="Path_15682" data-name="Path 15682" d="M1360.258,1403.313c-6.227-3.059-18.042-1.633-19.592,12.408s7.488,22.69,10.288,23.02,15.915-10.53,17.548-19.836S1364.911,1405.6,1360.258,1403.313Z" transform="translate(-1316.398 -1401.976)" fill="#fff6eb" stroke="#000" stroke-miterlimit="10" stroke-width="0.25"/>
      <path id="Path_15683" data-name="Path 15683" d="M1383.118,1433.757c1.825-7.507-.9-18.13-14.694-14.865s-18.6,12.859-18.611,15.837,3.02,7.184,15.1,9.306S1381.648,1439.8,1383.118,1433.757Z" transform="translate(-1313.544 -1396.984)" fill="#fff6eb" stroke="#000" stroke-miterlimit="10" stroke-width="0.25"/>
      <path id="Path_15684" data-name="Path 15684" d="M1323.984,1417.2c-7.125,10.629,6.968,20.991,16.581,21.753s11.2-.978,12.212-2.394,4.5-7.228-4.608-16.436C1338.708,1410.565,1328.833,1409.968,1323.984,1417.2Z" transform="translate(-1322.044 -1398.817)" fill="#fff6eb" stroke="#000" stroke-miterlimit="10" stroke-width="0.25"/>
      <path id="Path_15685" data-name="Path 15685" d="M1322.753,1450.053c5.4,12.56,23.4,6.941,29.192-2.377s4.863-11.83,3.963-13.6-4.954-8.33-19.024-3.93C1322.274,1434.717,1320.948,1445.853,1322.753,1450.053Z" transform="translate(-1322.02 -1393.809)" fill="#fff6eb" stroke="#000" stroke-miterlimit="10" stroke-width="0.25"/>
      <path id="Path_15686" data-name="Path 15686" d="M1352.9,1466.333c13.671-.017,15.591-17.213,9.306-25.458s-8.96-8.367-10.939-8.245-9.608,1.168-11.1,14.613C1338.612,1461.2,1348.327,1466.338,1352.9,1466.333Z" transform="translate(-1316.548 -1392.599)" fill="#fff6eb" stroke="#000" stroke-miterlimit="10" stroke-width="0.25"/>
      <path id="Path_15687" data-name="Path 15687" d="M1352.706,1434.887c1.813-1.813-1.661-6.842-5.32-9.381l-3.829,6.079S1349.85,1437.743,1352.706,1434.887Z" transform="translate(-1315.459 -1394.773)" fill="#ffc064" stroke="#000" stroke-linejoin="round" stroke-width="0.25"/>
      <ellipse id="Ellipse_2418" data-name="Ellipse 2418" cx="3.592" cy="2.041" rx="3.592" ry="2.041" transform="translate(26.372 35.723) rotate(-57.787)" fill="#ffc064" stroke="#000" stroke-linejoin="round" stroke-width="0.25"/>
      <path id="Path_15688" data-name="Path 15688" d="M1331.417,1424.793s9.74-.36,17.771,5.278" transform="translate(-1319.175 -1394.993)" fill="none" stroke="#000" stroke-miterlimit="10" stroke-width="0.25"/>
      <path id="Path_15689" data-name="Path 15689" d="M1337.917,1436.937s2.836-6.284,9.281-7.551" transform="translate(-1317.185 -1393.586)" fill="none" stroke="#000" stroke-miterlimit="10" stroke-width="0.25"/>
      <path id="Path_15690" data-name="Path 15690" d="M1334.083,1416.542s10.4,7.813,14.8,15.825" transform="translate(-1318.359 -1397.517)" fill="none" stroke="#000" stroke-miterlimit="10" stroke-width="0.25"/>
      <path id="Path_15691" data-name="Path 15691" d="M1350.152,1416.542a15.247,15.247,0,0,0-3.7,13.659" transform="translate(-1314.673 -1397.517)" fill="none" stroke="#000" stroke-miterlimit="10" stroke-width="0.25"/>
      <path id="Path_15692" data-name="Path 15692" d="M1342.135,1412.152s-.816,12.428,4.735,20.047" transform="translate(-1315.907 -1398.861)" fill="none" stroke="#000" stroke-miterlimit="10" stroke-width="0.25"/>
    </g>
    <g id="Group_4320" data-name="Group 4320" transform="translate(1430.334 1299.893)">
      <path id="Path_15693" data-name="Path 15693" d="M1484.393,1301.31c-.665-1.792,2.939-6.041,8.49-6.122s3.183,3.346,7.021,5.388,13.061,5.632,15.673,22.122-.49,27.266-4.735,30.2l-2.286-1.633s4.19-7.673,2.667-21.932-8.926-24.272-14.8-24.054-6.857-.436-8.49-2.4S1485.1,1303.215,1484.393,1301.31Z" transform="translate(-1376.072 -1295.187)" fill="#cad226" stroke="#231815" stroke-miterlimit="10" stroke-width="0.25"/>
      <path id="Path_15694" data-name="Path 15694" d="M1536.92,1339.359c8.085,2.318,25.686-10.884,45.714,4.571s43.537,59.431,35.7,107.756-18.939,57.9-48.326,71.727-72.6,44.616-110.694,9.736-60.178-41.229-57.681-94.98,37.436-101.423,73.681-107.953,44.571-1.143,50.449,2.776S1533.218,1338.3,1536.92,1339.359Z" transform="translate(-1401.442 -1285.399)" fill="#93485c" stroke="#000" stroke-miterlimit="10" stroke-width="0.25"/>
      <ellipse id="Ellipse_2419" data-name="Ellipse 2419" cx="5.116" cy="2.83" rx="5.116" ry="2.83" transform="translate(59.029 65.721) rotate(-35.426)" fill="#dffffa" stroke="#231815" stroke-miterlimit="10" stroke-width="0.25"/>
      <ellipse id="Ellipse_2420" data-name="Ellipse 2420" cx="6.531" cy="3.81" rx="6.531" ry="3.81" transform="translate(51.346 82.083) rotate(-30)" fill="#dffffa" stroke="#231815" stroke-miterlimit="10" stroke-width="0.25"/>
      <path id="Path_15695" data-name="Path 15695" d="M1514.9,1350.457s37.008,70.374-.037,150.913" transform="translate(-1366.721 -1278.267)" fill="none" stroke="#000" stroke-miterlimit="10" stroke-width="0.25"/>
      <path id="Path_15696" data-name="Path 15696" d="M1465.652,1340.667a2.514,2.514,0,0,0-2.069,1.959" transform="translate(-1382.419 -1281.265)" fill="none" stroke="#000" stroke-miterlimit="10" stroke-width="0.25"/>
      <path id="Path_15697" data-name="Path 15697" d="M1480.833,1348s.871,2.612,0,3.918" transform="translate(-1377.138 -1279.02)" fill="none" stroke="#000" stroke-miterlimit="10" stroke-width="0.25"/>
      <path id="Path_15698" data-name="Path 15698" d="M1468.641,1354.917s-1.415,1.633-1.306,2.612" transform="translate(-1381.272 -1276.902)" fill="none" stroke="#000" stroke-miterlimit="10" stroke-width="0.25"/>
      <path id="Path_15699" data-name="Path 15699" d="M1489.9,1362.833s.545,2.4-.653,3.7" transform="translate(-1374.562 -1274.479)" fill="none" stroke="#000" stroke-miterlimit="10" stroke-width="0.25"/>
      <path id="Path_15700" data-name="Path 15700" d="M1498.667,1375.333a4.4,4.4,0,0,1,0,3.049" transform="translate(-1371.679 -1270.653)" fill="none" stroke="#000" stroke-miterlimit="10" stroke-width="0.25"/>
      <path id="Path_15701" data-name="Path 15701" d="M1479.741,1371.25a5.476,5.476,0,0,1-1.741,4.027" transform="translate(-1378.005 -1271.903)" fill="none" stroke="#000" stroke-miterlimit="10" stroke-width="0.25"/>
      <path id="Path_15702" data-name="Path 15702" d="M1442.511,1365.25a3.1,3.1,0,0,0-1.088,2.939" transform="translate(-1389.21 -1273.739)" fill="none" stroke="#000" stroke-miterlimit="10" stroke-width="0.25"/>
      <path id="Path_15703" data-name="Path 15703" d="M1430.848,1382.583a3.1,3.1,0,0,0-1.181,2.612" transform="translate(-1392.801 -1268.433)" fill="none" stroke="#000" stroke-miterlimit="10" stroke-width="0.25"/>
      <path id="Path_15704" data-name="Path 15704" d="M1455.6,1386.75a7.358,7.358,0,0,1-.435,4.353" transform="translate(-1384.995 -1267.158)" fill="none" stroke="#000" stroke-miterlimit="10" stroke-width="0.25"/>
      <path id="Path_15705" data-name="Path 15705" d="M1474.333,1404.583s1.524,2.831,0,5.224" transform="translate(-1379.128 -1261.698)" fill="none" stroke="#000" stroke-miterlimit="10" stroke-width="0.25"/>
      <path id="Path_15706" data-name="Path 15706" d="M1490.568,1389.5a5.483,5.483,0,0,0,0,3.483" transform="translate(-1374.247 -1266.316)" fill="none" stroke="#000" stroke-miterlimit="10" stroke-width="0.25"/>
      <path id="Path_15707" data-name="Path 15707" d="M1499.505,1407a8.4,8.4,0,0,1-1.088,4.027" transform="translate(-1371.755 -1260.959)" fill="none" stroke="#000" stroke-miterlimit="10" stroke-width="0.25"/>
      <path id="Path_15708" data-name="Path 15708" d="M1452.356,1442a5.541,5.541,0,0,0,0,4.027" transform="translate(-1385.971 -1250.245)" fill="none" stroke="#000" stroke-miterlimit="10" stroke-width="0.25"/>
      <path id="Path_15709" data-name="Path 15709" d="M1415.714,1422.848a2.734,2.734,0,0,0,0,3.355" transform="translate(-1397.244 -1256.108)" fill="none" stroke="#000" stroke-miterlimit="10" stroke-width="0.25"/>
      <path id="Path_15710" data-name="Path 15710" d="M1484.583,1445.083s1.2,2.286,0,3.81" transform="translate(-1375.99 -1249.301)" fill="none" stroke="#000" stroke-miterlimit="10" stroke-width="0.25"/>
      <path id="Path_15711" data-name="Path 15711" d="M1540.417,1419.75a6.4,6.4,0,0,1,.653,2.831" transform="translate(-1358.898 -1257.056)" fill="none" stroke="#000" stroke-miterlimit="10" stroke-width="0.25"/>
      <path id="Path_15712" data-name="Path 15712" d="M1549.25,1405.75a3.436,3.436,0,0,1,.571,3.237" transform="translate(-1356.194 -1261.342)" fill="none" stroke="#000" stroke-miterlimit="10" stroke-width="0.25"/>
      <path id="Path_15713" data-name="Path 15713" d="M1558.687,1399.688a2.09,2.09,0,0,1,0,2.2" transform="translate(-1353.305 -1263.197)" fill="none" stroke="#000" stroke-miterlimit="10" stroke-width="0.25"/>
      <path id="Path_15714" data-name="Path 15714" d="M1539.25,1385.313a5.165,5.165,0,0,0,1.061,3.02" transform="translate(-1359.255 -1267.598)" fill="none" stroke="#000" stroke-miterlimit="10" stroke-width="0.25"/>
      <path id="Path_15715" data-name="Path 15715" d="M1548.062,1380.625a4.694,4.694,0,0,1,.735,2.776" transform="translate(-1356.558 -1269.033)" fill="none" stroke="#000" stroke-miterlimit="10" stroke-width="0.25"/>
      <path id="Path_15716" data-name="Path 15716" d="M1555.937,1378.625a4.589,4.589,0,0,1,.816,3.266" transform="translate(-1354.147 -1269.645)" fill="none" stroke="#000" stroke-miterlimit="10" stroke-width="0.25"/>
      <path id="Path_15717" data-name="Path 15717" d="M1536.187,1361.875s.163,2.612,1.225,3.674" transform="translate(-1360.193 -1274.772)" fill="none" stroke="#000" stroke-miterlimit="10" stroke-width="0.25"/>
      <path id="Path_15718" data-name="Path 15718" d="M1544.062,1360.188a4.715,4.715,0,0,1,1.469,3.455" transform="translate(-1357.783 -1275.289)" fill="none" stroke="#000" stroke-miterlimit="10" stroke-width="0.25"/>
      <path id="Path_15719" data-name="Path 15719" d="M1524.437,1344a2.719,2.719,0,0,1,1.306,2.286" transform="translate(-1363.79 -1280.244)" fill="none" stroke="#000" stroke-miterlimit="10" stroke-width="0.25"/>
      <path id="Path_15720" data-name="Path 15720" d="M1529.937,1341.5s1.715.817,1.878,2.042" transform="translate(-1362.107 -1281.01)" fill="none" stroke="#000" stroke-miterlimit="10" stroke-width="0.25"/>
      <path id="Path_15721" data-name="Path 15721" d="M1549.834,1441.5a4.224,4.224,0,0,1,0,2.177" transform="translate(-1356.016 -1250.398)" fill="none" stroke="#000" stroke-miterlimit="10" stroke-width="0.25"/>
    </g>
    <g id="Group_4321" data-name="Group 4321" transform="translate(1313.295 1604.955)">
      <path id="Path_15722" data-name="Path 15722" d="M1571.869,1605.73c5.357-7.6,1.809-19.015-11.472-20.747-8.449-1.1-13.577-.261-17.16,2.892-2.188,1.925-5.27,9.516,5.687,17.448C1558.041,1611.922,1568.478,1610.536,1571.869,1605.73Z" transform="translate(-1241.65 -1511.677)" fill="#fff6eb" stroke="#000" stroke-miterlimit="10" stroke-width="0.25"/>
      <path id="Path_15723" data-name="Path 15723" d="M1564.488,1576.883c-7.964,3.421-10.719,14.226-1.01,22.087,6.175,5,10.661,6.834,15.048,6.077,2.677-.462,8.833-4.99,4-16.641C1578.5,1578.712,1569.528,1574.718,1564.488,1576.883Z" transform="translate(-1236.697 -1514.191)" fill="#fff6eb" stroke="#000" stroke-miterlimit="10" stroke-width="0.25"/>
      <path id="Path_15724" data-name="Path 15724" d="M1546.5,1570.318s6.041,3.919,12.572.571,16.408-1.061,20.163,1.878,11.592,2.449,15.347-1.062" transform="translate(-1239.997 -1516.358)" fill="none" stroke="#000" stroke-miterlimit="10" stroke-width="0.25"/>
      <path id="Path_15725" data-name="Path 15725" d="M1521.562,1546.62s6.613,5.231,16.572,1.639,12.082.486,19.265,1.631,9.306-3.687,19.1,1.667" transform="translate(-1247.631 -1523.28)" fill="none" stroke="#000" stroke-miterlimit="10" stroke-width="0.25"/>
      <path id="Path_15726" data-name="Path 15726" d="M1542.594,1535.381a14.332,14.332,0,0,0,11.142.772c6.368-2.078,10.286.208,13.224,3.31" transform="translate(-1241.193 -1526.729)" fill="none" stroke="#000" stroke-miterlimit="10" stroke-width="0.25"/>
      <path id="Path_15727" data-name="Path 15727" d="M1565.625,1538.789s2.939-2.776,8.163,0" transform="translate(-1234.143 -1526.055)" fill="none" stroke="#000" stroke-miterlimit="10" stroke-width="0.25"/>
      <ellipse id="Ellipse_2421" data-name="Ellipse 2421" cx="5.796" cy="2.818" rx="5.796" ry="2.818" transform="translate(338.339)" fill="#ecb36f" stroke="#000" stroke-linejoin="round" stroke-width="0.25"/>
      <ellipse id="Ellipse_2422" data-name="Ellipse 2422" cx="4.49" cy="1.748" rx="4.49" ry="1.748" transform="translate(349.931 7.184)" fill="#c19165" stroke="#000" stroke-linejoin="round" stroke-width="0.25"/>
      <ellipse id="Ellipse_2423" data-name="Ellipse 2423" cx="6.204" cy="2.887" rx="6.204" ry="2.887" transform="translate(278.258 40.532)" fill="#c19165" stroke="#000" stroke-linejoin="round" stroke-width="0.25"/>
      <ellipse id="Ellipse_2424" data-name="Ellipse 2424" cx="3.787" cy="2.776" rx="3.787" ry="2.776" transform="translate(276.889 94.367)" fill="#ecb36f" stroke="#000" stroke-linejoin="round" stroke-width="0.25"/>
      <path id="Path_15728" data-name="Path 15728" d="M1489.625,1612.682s4.655,3.755,14.981,0,13.59-2.739,18.488.835,12.408-3.284,20.082-.018" transform="translate(-1257.408 -1503.784)" fill="none" stroke="#000" stroke-miterlimit="10" stroke-width="0.25"/>
      <path id="Path_15729" data-name="Path 15729" d="M1539.375,1613.84s3.265-2.512,8,0" transform="translate(-1242.178 -1503.044)" fill="none" stroke="#000" stroke-miterlimit="10" stroke-width="0.25"/>
      <ellipse id="Ellipse_2425" data-name="Ellipse 2425" cx="5.796" cy="3.02" rx="5.796" ry="3.02" transform="translate(254.748 117.387)" fill="#c19165" stroke="#000" stroke-linejoin="round" stroke-width="0.25"/>
      <ellipse id="Ellipse_2426" data-name="Ellipse 2426" cx="8.272" cy="3.701" rx="8.272" ry="3.701" transform="translate(176.761 143.782)" fill="#c19165" stroke="#000" stroke-linejoin="round" stroke-width="0.25"/>
      <ellipse id="Ellipse_2427" data-name="Ellipse 2427" cx="5.551" cy="3.265" rx="5.551" ry="3.265" transform="translate(128 93.932)" fill="#ecb36f" stroke="#000" stroke-linejoin="round" stroke-width="0.25"/>
      <ellipse id="Ellipse_2428" data-name="Ellipse 2428" cx="4.599" cy="2.068" rx="4.599" ry="2.068" transform="translate(82.013 135.728)" fill="#ecb36f" stroke="#000" stroke-linejoin="round" stroke-width="0.25"/>
      <ellipse id="Ellipse_2429" data-name="Ellipse 2429" cx="5.442" cy="3.048" rx="5.442" ry="3.048" transform="translate(0 120.272)" fill="#ecb36f" stroke="#000" stroke-linejoin="round" stroke-width="0.25"/>
      <ellipse id="Ellipse_2430" data-name="Ellipse 2430" cx="5.442" cy="2.721" rx="5.442" ry="2.721" transform="translate(17.415 116.136)" fill="#ecb36f" stroke="#000" stroke-linejoin="round" stroke-width="0.25"/>
      <ellipse id="Ellipse_2431" data-name="Ellipse 2431" cx="5.986" cy="2.694" rx="5.986" ry="2.694" transform="translate(2.83 62.585)" fill="#ecb36f" stroke="#000" stroke-linejoin="round" stroke-width="0.25"/>
      <path id="Path_15730" data-name="Path 15730" d="M1314,1598.167a18.646,18.646,0,0,0,13.279,1.523c7.4-1.959,13.278-.981,15.89.6s9.361.435,10.885-1.061" transform="translate(-1311.17 -1507.5)" fill="none" stroke="#000" stroke-miterlimit="10" stroke-width="0.25"/>
      <path id="Path_15731" data-name="Path 15731" d="M1429.833,1586.5s9.361,5.878,16.763,2.177,12.408-.82,16.326,1.223,10.642,2.747,14.464,0" transform="translate(-1275.712 -1511.072)" fill="none" stroke="#000" stroke-miterlimit="10" stroke-width="0.25"/>
      <path id="Path_15732" data-name="Path 15732" d="M1418.333,1609.2a18.455,18.455,0,0,0,13.279,0c6.749-2.83,7.837,2.564,15.455.628" transform="translate(-1279.232 -1504.381)" fill="none" stroke="#000" stroke-miterlimit="10" stroke-width="0.25"/>
      <path id="Path_15733" data-name="Path 15733" d="M1372.833,1620.833s7.765,4.789,16.618,2.177,12.117-1.088,18.648.871,15.457-4.136,24.163,0" transform="translate(-1293.16 -1500.562)" fill="none" stroke="#000" stroke-miterlimit="10" stroke-width="0.25"/>
      <path id="Path_15734" data-name="Path 15734" d="M1427.749,1623.394s7.73-2.177,12.3,0" transform="translate(-1276.349 -1500.074)" fill="none" stroke="#000" stroke-miterlimit="10" stroke-width="0.25"/>
    </g>
    <g id="Group_4322" data-name="Group 4322" transform="translate(1496.718 1511.672)">
      <path id="Path_15735" data-name="Path 15735" d="M1614.53,1471.048c-.2-1.154-9.251-.053-9.8-.979s3.266-2.829,2.449-3.645-10.994,2.068-11.592,1.415,2.177-2.014,1.524-2.776-9.579,1.851-10.286.871,2.394-2.667,1.47-3.483-10.232,3.265-11.375,2.394,2.4-3.373,1.469-3.755-10.884,3.7-11.645,2.776,1.8-4.3.543-5.006-12.843,5.5-14.149,4.463.163-5.66-.762-5.932-9.469,6.149-11.755,5.714,1.849-4.86,0-5.722-14.041,9.477-15.674,8.879-.163-4.082-1.361-4.245-8.49,7.89-10.994,7.51-.49-3.974-1.849-3.974-10.449,7.892-11.755,7.674.6-3.918-.979-4.19-9.579,9.959-11.1,9.633-.11-3.429-1.579-3.592-9.251,10.775-10.666,11.047-1.143-2.341-2.122-2.123-5.932,10.776-8.055,10.831.49-3.212-1.633-3.1-18.776,29.5-5.507,57.464c0,0,11.548,15.134,37.343,16.114s33.55,0,33.8-1.469-3.021-2.783-2.858-3.8,11.511-1.992,12.327-3.79-3.511-2.7-3.1-4.165,17.632-4.082,18.367-6.368-4-2.367-3.836-3.919,14.775-3.1,15.673-5.305-3.674-2.286-3.266-3.511,17.633-6.448,18.04-8.816-4.735-1.714-3.836-3.918,15.347-6.6,15.347-8.73-3.429-1.719-3.511-3.269,11.511-4.408,12-6.449-3.511-1.8-3.348-3.346,14.286-7.184,14.45-9.389-3.918-.571-3.918-2.367,9.306-7.347,8.816-9.143-6.45-.082-6.939-1.143S1614.938,1473.361,1614.53,1471.048Z" transform="translate(-1452.267 -1457.33)" fill="#a5b63d" stroke="#231815" stroke-miterlimit="10" stroke-width="0.25"/>
      <path id="Path_15736" data-name="Path 15736" d="M1613.339,1467.833s-77.387,23.239-157.18,78.145" transform="translate(-1451.075 -1454.115)" fill="none" stroke="#000" stroke-miterlimit="10" stroke-width="0.25"/>
      <path id="Path_15737" data-name="Path 15737" d="M1555.442,1467.833s-12.569,8.675-11.809,16.039" transform="translate(-1424.307 -1454.115)" fill="none" stroke="#000" stroke-miterlimit="10" stroke-width="0.25"/>
      <path id="Path_15738" data-name="Path 15738" d="M1565.339,1479.583s-11.581,6.428-21.713.693" transform="translate(-1424.3 -1450.518)" fill="none" stroke="#000" stroke-miterlimit="10" stroke-width="0.25"/>
      <path id="Path_15739" data-name="Path 15739" d="M1538.3,1466.917s-17.338,12.335-18.356,31.2" transform="translate(-1431.548 -1454.395)" fill="none" stroke="#000" stroke-miterlimit="10" stroke-width="0.25"/>
      <path id="Path_15740" data-name="Path 15740" d="M1557.894,1493.237s-25.273,7.576-37.948-2.43" transform="translate(-1431.548 -1447.082)" fill="none" stroke="#000" stroke-miterlimit="10" stroke-width="0.25"/>
      <path id="Path_15741" data-name="Path 15741" d="M1515.668,1468.25s-22.162,25.959-20.932,46.5" transform="translate(-1439.281 -1453.987)" fill="none" stroke="#000" stroke-miterlimit="10" stroke-width="0.25"/>
      <path id="Path_15742" data-name="Path 15742" d="M1547.329,1510.739s-37.618,9.686-52.605-6.885" transform="translate(-1439.27 -1443.088)" fill="none" stroke="#000" stroke-miterlimit="10" stroke-width="0.25"/>
      <path id="Path_15743" data-name="Path 15743" d="M1493.071,1477.417s-23.6,14.363-24.482,54.854" transform="translate(-1447.27 -1451.181)" fill="none" stroke="#000" stroke-miterlimit="10" stroke-width="0.25"/>
      <path id="Path_15744" data-name="Path 15744" d="M1532.907,1525.185s-45.841,15.959-64.318-5.77" transform="translate(-1447.27 -1438.324)" fill="none" stroke="#000" stroke-miterlimit="10" stroke-width="0.25"/>
    </g>
    <g id="Group_4323" data-name="Group 4323" transform="translate(1464.695 1579.322)">
      <path id="Path_15745" data-name="Path 15745" d="M1464.975,1509.125s11.265,2.122,11.918,3.592-.708,1.8-.6,2.557,8.925,1.2,9.033,2.722-1.523,1.523-1.306,2.5,10.123,1.306,10.232,2.722-1.524.87-1.416,1.959,12.626,4.788,12.844,6.094-1.2.972-1.2,2.064,12.626,6.426,12.626,7.842-2.722,1.2-2.722,1.959,13.279,6.421,13.606,7.292-2.612,2.068-2.5,2.939,10.994,5.443,11.1,7.292-2.938,1.2-3.265,2.4,9.469,6.966,9.469,8.272-2.721.109-2.829.871,8.38,8.49,7.727,9.9-3.266-.109-3.482.979,8.163,8.49,7.4,9.8-3.156-1.088-3.592,0,6.1,10.612,5.116,11.918-3.674-.816-4.164,0,1.959,4.735,1.306,5.388-8.407-1.143-9.224-.49.817,2.858,0,3.674-11.265-3.184-12.245-2.531.9,1.69,0,2.641-12.98-3.621-13.877-2.8.327,2.123-.653,2.531-12-4.327-12.817-3.755,1.062,2.856.245,3.265-12-6.367-12.817-5.878.327,3.266-.734,3.592-11.348-6.041-12.082-5.714-.326,2.122-1.388,2.693-11.428-6.938-12.571-6.285,1.143,2.856,0,3.183-10.939-7.837-11.836-7.591-.245,1.633-.816,1.877-6.45-6.041-7.184-5.632-.082,2.2-.735,2.2-16.952-20.9-13.251-50.72C1428.3,1544.445,1442.662,1519.737,1464.975,1509.125Z" transform="translate(-1427.749 -1509.125)" fill="#a5b63d" stroke="#231815" stroke-miterlimit="10" stroke-width="0.25"/>
      <path id="Path_15746" data-name="Path 15746" d="M1549.416,1602.858s-60.63-57.954-118.845-69.794" transform="translate(-1426.885 -1501.797)" fill="none" stroke="#000" stroke-miterlimit="10" stroke-width="0.25"/>
      <path id="Path_15747" data-name="Path 15747" d="M1494.689,1564.659c10.044-1.891,16.733,2.708,16.733,2.708" transform="translate(-1407.257 -1492.265)" fill="none" stroke="#000" stroke-miterlimit="10" stroke-width="0.25"/>
      <path id="Path_15748" data-name="Path 15748" d="M1505.764,1582.443s-11.435-9.536-11.073-17.891" transform="translate(-1407.259 -1492.157)" fill="none" stroke="#000" stroke-miterlimit="10" stroke-width="0.25"/>
      <path id="Path_15749" data-name="Path 15749" d="M1508.048,1557.212s-22.777-14.019-41.807-10.456" transform="translate(-1415.966 -1497.783)" fill="none" stroke="#000" stroke-miterlimit="10" stroke-width="0.25"/>
      <path id="Path_15750" data-name="Path 15750" d="M1493.518,1584.586s-27.277-14.567-27.277-37.966" transform="translate(-1415.966 -1497.647)" fill="none" stroke="#000" stroke-miterlimit="10" stroke-width="0.25"/>
      <path id="Path_15751" data-name="Path 15751" d="M1495.792,1537.874s-24.887-11.319-47.11,2.177" transform="translate(-1421.341 -1501.684)" fill="none" stroke="#000" stroke-miterlimit="10" stroke-width="0.25"/>
      <path id="Path_15752" data-name="Path 15752" d="M1463.447,1577.357s-19.7-14.122-14.566-38.857" transform="translate(-1421.541 -1500.133)" fill="none" stroke="#000" stroke-miterlimit="10" stroke-width="0.25"/>
    </g>
    <g id="Group_4324" data-name="Group 4324" transform="translate(1310.377 1428.413)">
      <path id="Path_15753" data-name="Path 15753" d="M1421.051,1400.821c0-3.409,8-8.327,10.612-7.02s.49,2.368,2.856,4.571,5.578,9.361,4.056,23.292-5.841,37.82-23.655,48.244c0,0-3.716.686-4.753-1.224,0,0,12.19-8.707,17.523-20.353s6.967-22.1,6.2-31.892-4.462-12.734-6.313-12.408-2.994.218-3.755-.98S1421.051,1403,1421.051,1400.821Z" transform="translate(-1278.814 -1393.585)" fill="#cad226" stroke="#231815" stroke-miterlimit="10" stroke-width="0.25"/>
      <path id="Path_15754" data-name="Path 15754" d="M1423,1399.5s3.436-.562,4.843-2.667" transform="translate(-1274.885 -1392.591)" fill="none" stroke="#000" stroke-miterlimit="10" stroke-width="0.25"/>
      <path id="Path_15755" data-name="Path 15755" d="M1425.833,1400.073a3.7,3.7,0,0,0,2.449-1.2" transform="translate(-1274.018 -1391.966)" fill="none" stroke="#000" stroke-miterlimit="10" stroke-width="0.25"/>
      <path id="Path_15756" data-name="Path 15756" d="M1312.892,1567.418s8.631,35.683,55.978,56.163c41.434,17.922,95.02-1.8,116.245-36.979s25.905-89.606-.871-124.435Z" transform="translate(-1308.591 -1372.591)" fill="#93485c" stroke="#000" stroke-miterlimit="10" stroke-width="0.25"/>
      <path id="Path_15757" data-name="Path 15757" d="M1443.755,1455.423c-4.579-1.294-6.368-8-14.775-11.51s-43.429-15.756-82.286,22.122-52.9,106.122-14.041,132.245,92.843,5.413,121.578-26.9,41.8-66.408,37.007-86.584-12.3-23.877-24.273-26.38S1453.959,1458.307,1443.755,1455.423Z" transform="translate(-1309.599 -1379.616)" fill="#ffc064" stroke="#000" stroke-linejoin="round" stroke-width="0.25"/>
      <ellipse id="Ellipse_2432" data-name="Ellipse 2432" cx="3.156" cy="4.027" rx="3.156" ry="4.027" transform="translate(136.577 84.351)" fill="#dffffa" stroke="#231815" stroke-miterlimit="10" stroke-width="0.25"/>
      <ellipse id="Ellipse_2433" data-name="Ellipse 2433" cx="2.612" cy="3.265" rx="2.612" ry="3.265" transform="translate(136.577 99.59)" fill="#dffffa" stroke="#231815" stroke-miterlimit="10" stroke-width="0.25"/>
      <path id="Path_15758" data-name="Path 15758" d="M1379.5,1453.333a16.656,16.656,0,0,1,3.7,10.34" transform="translate(-1288.2 -1375.295)" fill="none" stroke="#000" stroke-miterlimit="10" stroke-width="0.25"/>
      <path id="Path_15759" data-name="Path 15759" d="M1375.5,1458.167s1.306,3.918,3.047,5.225" transform="translate(-1289.426 -1373.815)" fill="none" stroke="#000" stroke-miterlimit="10" stroke-width="0.25"/>
      <path id="Path_15760" data-name="Path 15760" d="M1335.833,1497.659a5.026,5.026,0,0,1,5.007,0" transform="translate(-1301.569 -1361.933)" fill="none" stroke="#000" stroke-miterlimit="10" stroke-width="0.25"/>
      <path id="Path_15761" data-name="Path 15761" d="M1332.167,1502.037s4.353-1.959,5.659,0" transform="translate(-1302.691 -1360.652)" fill="none" stroke="#000" stroke-miterlimit="10" stroke-width="0.25"/>
      <path id="Path_15762" data-name="Path 15762" d="M1320.667,1530.087s4.571-4.136,9.8-3.918" transform="translate(-1306.211 -1353.001)" fill="none" stroke="#000" stroke-miterlimit="10" stroke-width="0.25"/>
      <path id="Path_15763" data-name="Path 15763" d="M1424.833,1474.292a15.5,15.5,0,0,0,6.314-1.959" transform="translate(-1274.324 -1369.479)" fill="none" stroke="#000" stroke-miterlimit="10" stroke-width="0.25"/>
      <path id="Path_15764" data-name="Path 15764" d="M1420.5,1478.833s8.271,2.612,16.326,0" transform="translate(-1275.65 -1367.489)" fill="none" stroke="#000" stroke-miterlimit="10" stroke-width="0.25"/>
      <path id="Path_15765" data-name="Path 15765" d="M1427.25,1505.333s4.463.871,5.333,2.4" transform="translate(-1273.584 -1359.377)" fill="none" stroke="#000" stroke-miterlimit="10" stroke-width="0.25"/>
      <path id="Path_15766" data-name="Path 15766" d="M1420.5,1507.167s9.088,3.7,11.483,9.741" transform="translate(-1275.65 -1358.815)" fill="none" stroke="#000" stroke-miterlimit="10" stroke-width="0.25"/>
      <path id="Path_15767" data-name="Path 15767" d="M1417.5,1509.125s6.857,2.939,8.816,7.184" transform="translate(-1276.569 -1358.216)" fill="none" stroke="#000" stroke-miterlimit="10" stroke-width="0.25"/>
      <path id="Path_15768" data-name="Path 15768" d="M1402.375,1526.16s3.429,5.505,7.02,6.811" transform="translate(-1281.199 -1353.001)" fill="none" stroke="#000" stroke-miterlimit="10" stroke-width="0.25"/>
      <path id="Path_15769" data-name="Path 15769" d="M1373.875,1538.5s4.735,11.428,3.918,22.694" transform="translate(-1289.923 -1349.224)" fill="none" stroke="#000" stroke-miterlimit="10" stroke-width="0.25"/>
      <path id="Path_15770" data-name="Path 15770" d="M1379.5,1542.75a12.366,12.366,0,0,1,2.444,7.347" transform="translate(-1288.2 -1347.922)" fill="none" stroke="#000" stroke-miterlimit="10" stroke-width="0.25"/>
      <path id="Path_15771" data-name="Path 15771" d="M1367,1544.25a13.559,13.559,0,0,1,0,6.857" transform="translate(-1292.028 -1347.464)" fill="none" stroke="#000" stroke-miterlimit="10" stroke-width="0.25"/>
      <path id="Path_15772" data-name="Path 15772" d="M1356,1553.375a13.848,13.848,0,0,0-2.123,8.326" transform="translate(-1296.052 -1344.67)" fill="none" stroke="#000" stroke-miterlimit="10" stroke-width="0.25"/>
      <path id="Path_15773" data-name="Path 15773" d="M1353.421,1554.438a6.194,6.194,0,0,0-1.8,3.918" transform="translate(-1296.734 -1344.345)" fill="none" stroke="#000" stroke-miterlimit="10" stroke-width="0.25"/>
      <path id="Path_15774" data-name="Path 15774" d="M1341.333,1550.706s-.505-30.1,18.5-53.333c18.346-22.422,45.714-24.163,58.34-22.422,0,0,11.622,20.424-23.293,51.973C1363.266,1555.495,1341.333,1550.706,1341.333,1550.706Z" transform="translate(-1299.885 -1368.831)" fill="#d38718" stroke="#000" stroke-linejoin="round" stroke-width="0.25"/>
      <path id="Path_15775" data-name="Path 15775" d="M1392.962,1490.125s0,7.129-7.837,14.422" transform="translate(-1286.479 -1364.032)" fill="none" stroke="#000" stroke-miterlimit="10" stroke-width="0.25"/>
      <path id="Path_15776" data-name="Path 15776" d="M1393.352,1493.75a14.207,14.207,0,0,1-3.1,7.837" transform="translate(-1284.911 -1362.923)" fill="none" stroke="#000" stroke-miterlimit="10" stroke-width="0.25"/>
      <path id="Path_15777" data-name="Path 15777" d="M1355.75,1528.638s13.224-3.755,23.673-13.388" transform="translate(-1295.471 -1356.341)" fill="none" stroke="#000" stroke-miterlimit="10" stroke-width="0.25"/>
      <path id="Path_15778" data-name="Path 15778" d="M1372.5,1519.842a12.861,12.861,0,0,0,5.443-3.592" transform="translate(-1290.344 -1356.035)" fill="none" stroke="#000" stroke-miterlimit="10" stroke-width="0.25"/>
      <path id="Path_15779" data-name="Path 15779" d="M1374.625,1580.625s3.592.98,5.714,0" transform="translate(-1289.694 -1336.328)" fill="none" stroke="#000" stroke-miterlimit="10" stroke-width="0.25"/>
      <path id="Path_15780" data-name="Path 15780" d="M1396.75,1573.268a10.3,10.3,0,0,0,5.061-1.143" transform="translate(-1282.921 -1338.931)" fill="none" stroke="#000" stroke-miterlimit="10" stroke-width="0.25"/>
      <path id="Path_15781" data-name="Path 15781" d="M1406.25,1581.046a9.187,9.187,0,0,0,3.429-1.8" transform="translate(-1280.012 -1336.749)" fill="none" stroke="#000" stroke-miterlimit="10" stroke-width="0.25"/>
      <path id="Path_15782" data-name="Path 15782" d="M1423.625,1568.748s3.1-.98,3.755-2.122" transform="translate(-1274.694 -1340.614)" fill="none" stroke="#000" stroke-miterlimit="10" stroke-width="0.25"/>
      <path id="Path_15783" data-name="Path 15783" d="M1418.875,1562.883s3.265.163,5.061-1.633" transform="translate(-1276.148 -1342.26)" fill="none" stroke="#000" stroke-miterlimit="10" stroke-width="0.25"/>
      <path id="Path_15784" data-name="Path 15784" d="M1432.25,1556.64a6.579,6.579,0,0,0,2.123-3.265" transform="translate(-1272.053 -1344.67)" fill="none" stroke="#000" stroke-miterlimit="10" stroke-width="0.25"/>
      <path id="Path_15785" data-name="Path 15785" d="M1433.062,1545.015s4-1.469,4.817-3.265" transform="translate(-1271.805 -1348.229)" fill="none" stroke="#000" stroke-miterlimit="10" stroke-width="0.25"/>
      <path id="Path_15786" data-name="Path 15786" d="M1444.625,1540.459a2.777,2.777,0,0,0,1.8-1.959" transform="translate(-1268.265 -1349.224)" fill="none" stroke="#000" stroke-miterlimit="10" stroke-width="0.25"/>
      <path id="Path_15787" data-name="Path 15787" d="M1442.625,1531.042a7.145,7.145,0,0,0,1.959-3.379" transform="translate(-1268.877 -1352.541)" fill="none" stroke="#000" stroke-miterlimit="10" stroke-width="0.25"/>
    </g>
    <g id="Group_4325" data-name="Group 4325" transform="translate(1307.058 1496.999)">
      <path id="Path_15788" data-name="Path 15788" d="M1330.27,1495.838c7.864-.085,12.844-10.884,9.8-19.374s-4.788-10.722-6.965-10.585-9.333,8.734-10.721,16.9S1322.814,1495.92,1330.27,1495.838Z" transform="translate(-1302.499 -1440.042)" fill="#fff6eb" stroke="#000" stroke-miterlimit="10" stroke-width="0.25"/>
      <path id="Path_15789" data-name="Path 15789" d="M1307.347,1480.177c-1.8-6.776,5.061-13.634,12.979-15.756s17.831-.932,15.7,4.735-3.892,14.135-13.456,17.249C1314.367,1489.074,1308.676,1485.194,1307.347,1480.177Z" transform="translate(-1307.058 -1440.788)" fill="#fff6eb" stroke="#000" stroke-miterlimit="10" stroke-width="0.25"/>
      <path id="Path_15790" data-name="Path 15790" d="M1321.852,1450.1c6.166-3.285,14-1.47,15.224,9.55s-.082,10.2-5.96,10.776-14.243-.908-15.428-8.49C1314.873,1456.709,1317.485,1452.424,1321.852,1450.1Z" transform="translate(-1304.462 -1445.322)" fill="#fff6eb" stroke="#000" stroke-miterlimit="10" stroke-width="0.25"/>
      <path id="Path_15791" data-name="Path 15791" d="M1353.894,1447.836c-3.644-3.854-15.563-.909-20.516,4.969s-3.537,15.618-.6,17.469,14.5,1.024,19.482-5.659S1357.378,1451.521,1353.894,1447.836Z" transform="translate(-1300.001 -1446.096)" fill="#fff6eb" stroke="#000" stroke-miterlimit="10" stroke-width="0.25"/>
      <path id="Path_15792" data-name="Path 15792" d="M1355.294,1482.791c3.36-3.656,7.183-12.735-.9-17.469s-18.748-5.36-21.661.218,3.782,16.517,8.844,18.966S1352.518,1485.812,1355.294,1482.791Z" transform="translate(-1299.414 -1441.362)" fill="#fff6eb" stroke="#000" stroke-miterlimit="10" stroke-width="0.25"/>
      <ellipse id="Ellipse_2434" data-name="Ellipse 2434" cx="5.306" cy="4" rx="5.306" ry="4" transform="translate(25.803 27.443) rotate(-56.617)" fill="#ffc064" stroke="#000" stroke-linejoin="round" stroke-width="0.25"/>
      <path id="Path_15793" data-name="Path 15793" d="M1313.07,1461.2s16.436-.759,23.62,5.5" transform="translate(-1305.218 -1441.483)" fill="none" stroke="#000" stroke-miterlimit="10" stroke-width="0.25"/>
      <path id="Path_15794" data-name="Path 15794" d="M1318.258,1454.94s12.638,4.137,17.434,13.061" transform="translate(-1303.629 -1443.389)" fill="none" stroke="#000" stroke-miterlimit="10" stroke-width="0.25"/>
      <path id="Path_15795" data-name="Path 15795" d="M1325.654,1454.357s7.107,5.048,8.327,13.551" transform="translate(-1301.365 -1443.567)" fill="none" stroke="#000" stroke-miterlimit="10" stroke-width="0.25"/>
      <path id="Path_15796" data-name="Path 15796" d="M1323.529,1469.917a14.3,14.3,0,0,1,9.672-3.81" transform="translate(-1302.016 -1439.971)" fill="none" stroke="#000" stroke-miterlimit="10" stroke-width="0.25"/>
    </g>
  </g>
</svg>
