<svg xmlns="http://www.w3.org/2000/svg" width="429.456" height="515.079" viewBox="0 0 429.456 515.079">
  <g id="Group_3677" data-name="Group 3677" transform="translate(-1662.958 -775.826)">
    <path id="Path_12752" data-name="Path 12752" d="M1809.949,1040.676s1.285-8.9,8.9-13.673l2.661,1.928s-6.882,5.231-7.25,13.857Z" transform="translate(61.668 105.398)" fill="#a2c427" stroke="#231815" stroke-miterlimit="10" stroke-width="0.25"/>
    <g id="Group_3665" data-name="Group 3665" transform="translate(1789.63 915.156)">
      <g id="Group_3660" data-name="Group 3660" transform="translate(0 125.278)">
        <path id="Path_12753" data-name="Path 12753" d="M1772.536,962.8s17.985-4.8,37.773,13.473c0,0,3.677,1.115,14.708-3.437s21.714-8.878,38-6.8l-2.009,8.191s-26.823.007-34.642,6.548-12.934,8.553-21.806,8.975-19.4,7.341-26.466,18.018-12.932,23.158-21.654,29.474l-4.232-3.308s4.819-2.106,10.165-14.136,19.332-35.639,42.339-40c0,0-9.611-15.489-32.174-12.331l-4.541-4.325Z" transform="translate(-1752.206 -962.231)" fill="#62a542" stroke="#000" stroke-linejoin="round" stroke-width="0.25"/>
        <path id="Path_12754" data-name="Path 12754" d="M1789.184,974.6a19.748,19.748,0,0,1,2.378,4.928" transform="translate(-1736.681 -957.038)" fill="none" stroke="#000" stroke-linejoin="round" stroke-width="0.25"/>
        <path id="Path_12755" data-name="Path 12755" d="M1793.127,972.122a20.16,20.16,0,0,1,2.48,4.095" transform="translate(-1735.025 -958.079)" fill="none" stroke="#000" stroke-linejoin="round" stroke-width="0.25"/>
      </g>
      <g id="Group_3661" data-name="Group 3661" transform="translate(171.934 28.729)">
        <path id="Path_12756" data-name="Path 12756" d="M1876.852,906.442c1.014.567,6.761-2.086,18.253.862s12.377,15.471,22.543,19.743c0,0-28.733,7.662-44.351,25.932l4.715,3.389s5.746-6.188,17.46-8.988,29.837-15.029,47.371-19.008,41.517-7.088,58.259-23.656l-5.942-9.174s-18.574,16.77-62.187,25.758a21.828,21.828,0,0,0-8.252-1.915c-4.714-.148-10.018-3.537-13.849-8.4s-19.513-13.844-33.479-8.837Z" transform="translate(-1873.298 -893.682)" fill="#a2c427" stroke="#231815" stroke-miterlimit="10" stroke-width="0.25"/>
        <path id="Path_12757" data-name="Path 12757" d="M1904.534,917.731a17.4,17.4,0,0,0,6.942,1.362" transform="translate(-1860.183 -884.366)" fill="#cad226" stroke="#231815" stroke-miterlimit="10" stroke-width="0.25"/>
        <path id="Path_12758" data-name="Path 12758" d="M1915.327,913.684a7.25,7.25,0,0,1,2.522,2.145" transform="translate(-1855.652 -886.066)" fill="#a2c427" stroke="#231815" stroke-miterlimit="10" stroke-width="0.25"/>
        <ellipse id="Ellipse_2084" data-name="Ellipse 2084" cx="3.424" cy="5.465" rx="3.424" ry="5.465" transform="translate(118.989 3.723) rotate(-32.933)" fill="#62a542" stroke="#000" stroke-linejoin="round" stroke-width="0.25"/>
      </g>
      <g id="Group_3662" data-name="Group 3662" transform="translate(166.75)">
        <path id="Path_12759" data-name="Path 12759" d="M1965.929,876.456s-3.7,24.609-12.4,37.542-16.482,41.6-39.5,72.378-44.385,46.09-44.385,46.09l14.478,4.863s21.858-23.758,38.526-50.953,27.771-39.59,37.709-64.083,16.5-45.837,16.5-45.837Z" transform="translate(-1869.647 -872.967)" fill="#62a542" stroke="#000" stroke-linejoin="round" stroke-width="0.25"/>
        <ellipse id="Ellipse_2085" data-name="Ellipse 2085" cx="5.465" cy="3.49" rx="5.465" ry="3.49" transform="translate(96.283)" fill="#62a542" stroke="#000" stroke-linejoin="round" stroke-width="0.25"/>
      </g>
      <path id="Path_12760" data-name="Path 12760" d="M1775.27,1031.107s6.646-4.924,23.526-3.944c17.389,1.01,27.545-1.237,34-7.49l1.391,8.454s-6.658,4.707-21.461,4.291-20.753-3.557-32.383,4.254Z" transform="translate(-1742.522 -812.836)" fill="#a2c427" stroke="#231815" stroke-miterlimit="10" stroke-width="0.25"/>
      <path id="Path_12761" data-name="Path 12761" d="M1762.477,1020.367s16.093-11.008,35.014-13.065,40.892-1.3,49.968,7.466l-15.131,6.144s-27.236-10.163-63.824,2.806Z" transform="translate(-1747.894 -818.43)" fill="#a2c427" stroke="#231815" stroke-miterlimit="10" stroke-width="0.25"/>
      <path id="Path_12762" data-name="Path 12762" d="M1763.852,992.371s4.221,6.33,18.268,11.451,26.232,7.511,40.713,13.379,32.668,3.4,44.146,13.2l3.709-24.094s-23.839,4.578-36.025,2.1c0,0-9.005-6.932-10.418-22.184s-17.588-27.582-17.588-27.582l-5.648,5.09s7.166,4.032,12.639,20.029,2.3,18.319,7.241,22.543a289.023,289.023,0,0,0-28.685-5.067c-13.344-1.481-25.352-17.476-25.352-17.476Z" transform="translate(-1747.316 -838.458)" fill="#62a542" stroke="#000" stroke-linejoin="round" stroke-width="0.25"/>
      <g id="Group_3663" data-name="Group 3663" transform="translate(186.676 106.548)">
        <path id="Path_12763" data-name="Path 12763" d="M1883.681,955.9s12.35-6.042,28.538,10.3,38.718,44.432,74.6,42.651l-4.439-13.719s-7.455,4.667-28.272-5.356c-30.206-14.542-42.722-45.907-70.425-40.006Z" transform="translate(-1883.681 -949.04)" fill="#a2c427" stroke="#231815" stroke-miterlimit="10" stroke-width="0.25"/>
        <ellipse id="Ellipse_2086" data-name="Ellipse 2086" cx="3.636" cy="7.209" rx="3.636" ry="7.209" transform="matrix(0.951, -0.308, 0.308, 0.951, 95.238, 47.212)" fill="#62a542" stroke="#000" stroke-linejoin="round" stroke-width="0.25"/>
      </g>
      <g id="Group_3664" data-name="Group 3664" transform="translate(185.61 106.814)">
        <path id="Path_12764" data-name="Path 12764" d="M1897.7,994.394s12.438,2.549,30.125-12.662,44.458-21.477,64.026-19.486l-.615-12.864s-20.32-2.05-46.867,9.96c-26.691,12.076-36.013,29.273-61.437,29.275Z" transform="translate(-1882.93 -949.218)" fill="#62a542" stroke="#000" stroke-linejoin="round" stroke-width="0.25"/>
        <ellipse id="Ellipse_2087" data-name="Ellipse 2087" cx="3.425" cy="6.439" rx="3.425" ry="6.439" transform="matrix(0.999, -0.048, 0.048, 0.999, 104.883, 0.327)" fill="#62a542" stroke="#000" stroke-linejoin="round" stroke-width="0.25"/>
      </g>
    </g>
    <g id="Group_3666" data-name="Group 3666" transform="translate(1850.247 824.145)">
      <path id="Path_12765" data-name="Path 12765" d="M1802.457,830.562s-1.224-10.31,2.8-15.377,8.912-5.942,11.883-4.893v3.494a8.306,8.306,0,0,0-9.436,3.865c-3.494,5.746-.175,13.784-.175,13.784Z" transform="translate(-1791.798 -809.9)" fill="#62a542" stroke="#000" stroke-linejoin="round" stroke-width="0.25"/>
      <path id="Path_12766" data-name="Path 12766" d="M1822.83,848.451c4.2,2.971,7.7,14.679,9.617,30.056s2.972,23.328,6.117,27.479" transform="translate(-1783.171 -793.714)" fill="none" stroke="#000" stroke-linejoin="round" stroke-width="0.25"/>
      <path id="Path_12767" data-name="Path 12767" d="M1799.354,825.354s9.872-7.051,19.483.812c0,0,6.466-8.562,19.571,1.573s12.085,24.639,21.595,33.9,7.064,11.183,13.179,17.474,10.486,11.008,9.262,18.347-38.85,27.728-39.521,28.106-17.97,1.6-17.97,1.6L1794.9,856.4Z" transform="translate(-1794.898 -804.632)" fill="#cad226" stroke="#231815" stroke-miterlimit="10" stroke-width="0.25"/>
      <ellipse id="Ellipse_2088" data-name="Ellipse 2088" cx="1.48" cy="3.151" rx="1.48" ry="3.151" transform="translate(39.349 36.149) rotate(-23.307)" fill="#dffffa" stroke="#231815" stroke-miterlimit="10" stroke-width="0.25"/>
      <ellipse id="Ellipse_2089" data-name="Ellipse 2089" cx="2.913" cy="6.351" rx="2.913" ry="6.351" transform="translate(47.112 42.053) rotate(-23.307)" fill="#dffffa" stroke="#231815" stroke-miterlimit="10" stroke-width="0.25"/>
      <path id="Path_12768" data-name="Path 12768" d="M1811.758,825.067s9.066,7.76,11.2,24.446" transform="translate(-1787.819 -803.532)" fill="none" stroke="#000" stroke-linejoin="round" stroke-width="0.25"/>
    </g>
    <g id="Group_3667" data-name="Group 3667" transform="translate(1727.05 775.972)">
      <path id="Path_12769" data-name="Path 12769" d="M1758.185,778.819a2.278,2.278,0,0,1,2.884-2.709c1.485.612.349,3.758,3.757,10.923s4.2,16.167,1.88,22.458l-4.763-1.78a16.022,16.022,0,0,0,2.01-13.074C1761.855,787.121,1758.971,782.14,1758.185,778.819Z" transform="translate(-1687.142 -775.972)" fill="#62a542" stroke="#000" stroke-linejoin="round" stroke-width="0.25"/>
      <path id="Path_12770" data-name="Path 12770" d="M1787.019,799.832s3.5-7.5,14.5-2.5c0,0,6.832-5.5,13-.5s16.495,19.495,20.493,36.823,12.141,48.966,20.378,69.238,11.862,31.091,8.235,39.562-90.954,73.472-90.954,73.472-27.518,11.773-47.475-9.449-18.759-40.23-14.448-58.287-4.241-24.248,4.945-48.236,14.254-22.721,18.69-51.547,17.1-59.87,41.5-50.683C1775.872,797.727,1782.96,794.02,1787.019,799.832Z" transform="translate(-1708.131 -768.095)" fill="#cad226" stroke="#231815" stroke-miterlimit="10" stroke-width="0.25"/>
      <path id="Path_12771" data-name="Path 12771" d="M1738.662,886.488s6.652-79.509,24.392-89.646" transform="translate(-1695.313 -767.21)" fill="none" stroke="#000" stroke-linejoin="round" stroke-width="0.25"/>
      <path id="Path_12772" data-name="Path 12772" d="M1773.9,796.565s9.994,5.461,16.726,26.685" transform="translate(-1680.518 -767.327)" fill="none" stroke="#000" stroke-linejoin="round" stroke-width="0.25"/>
      <path id="Path_12773" data-name="Path 12773" d="M1767.576,806.607s8.7,13.8,8.979,35.647,1.156,23.94,3.777,28.135-1.068,13.8,1.475,21.667.448,19.571-1.824,23.94" transform="translate(-1683.173 -763.11)" fill="none" stroke="#000" stroke-linejoin="round" stroke-width="0.25"/>
      <path id="Path_12774" data-name="Path 12774" d="M1776.02,892.414a14.05,14.05,0,0,1-1.921,6.6" transform="translate(-1680.434 -727.083)" fill="none" stroke="#000" stroke-linejoin="round" stroke-width="0.25"/>
      <path id="Path_12775" data-name="Path 12775" d="M1791.821,849.312c.524,6.117-.524,16.141,3.32,27.73s1.224,27,0,36.77" transform="translate(-1672.993 -745.18)" fill="none" stroke="#000" stroke-linejoin="round" stroke-width="0.25"/>
      <ellipse id="Ellipse_2090" data-name="Ellipse 2090" cx="2.939" cy="2.149" rx="2.939" ry="2.149" transform="translate(41.08 47.478) rotate(-52.809)" fill="#dffffa" stroke="#231815" stroke-miterlimit="10" stroke-width="0.25"/>
      <ellipse id="Ellipse_2091" data-name="Ellipse 2091" cx="6.241" cy="3.719" rx="6.241" ry="3.719" transform="translate(37.17 63.975) rotate(-62.513)" fill="#dffffa" stroke="#231815" stroke-miterlimit="10" stroke-width="0.25"/>
      <path id="Path_12776" data-name="Path 12776" d="M1739.244,870.419s-2.652,35.43,14.013,67.858" transform="translate(-1695.133 -736.318)" fill="none" stroke="#000" stroke-linejoin="round" stroke-width="0.25"/>
      <path id="Path_12777" data-name="Path 12777" d="M1726.362,885.413s-.664,6.308,1.463,9.94" transform="translate(-1700.518 -730.023)" fill="none" stroke="#000" stroke-linejoin="round" stroke-width="0.25"/>
      <path id="Path_12778" data-name="Path 12778" d="M1728.156,908.269a22.073,22.073,0,0,0,3.192,14.116c4.387,7.025,1.595,11.014,5.982,14.6" transform="translate(-1699.786 -720.426)" fill="none" stroke="#000" stroke-linejoin="round" stroke-width="0.25"/>
      <path id="Path_12779" data-name="Path 12779" d="M1763.691,798.325s.661,1.17,1.35,2.777" transform="translate(-1684.804 -766.588)" fill="none" stroke="#000" stroke-linejoin="round" stroke-width="0.25"/>
    </g>
    <g id="Group_3668" data-name="Group 3668" transform="translate(1783.265 931.363)">
      <path id="Path_12780" data-name="Path 12780" d="M1750.672,885.413s4.335,7.63,3.815,24.625,3.641,33.469,9.017,38.5c0,0,2.253,10.231-13.873,12.313,0,0,10.231,9.225-1.908,20.48l35.724,15.938,19.422,5.9s7.63-2.6,9.539-10.4c0,0,19.6,4.51,34.336-9.364l36.431-24s-41.595-44.288-45.784-43.39-38.3,7.779-38.3,7.779S1788.438,902.7,1750.672,885.413Z" transform="translate(-1747.723 -885.413)" fill="#a2c427" stroke="#231815" stroke-miterlimit="10" stroke-width="0.25"/>
      <path id="Path_12781" data-name="Path 12781" d="M1750.108,885.413s15.2,12.64,32.556,47.352c13.96,27.92,14.071,45.173,29.18,59.992,0,0-30.952-29.381-62.776-31.909" transform="translate(-1747.159 -885.413)" fill="none" stroke="#000" stroke-linejoin="round" stroke-width="0.25"/>
      <path id="Path_12782" data-name="Path 12782" d="M1753.139,914.375s13.734,18.535,35.573,23.837" transform="translate(-1745.449 -873.253)" fill="none" stroke="#000" stroke-linejoin="round" stroke-width="0.25"/>
      <path id="Path_12783" data-name="Path 12783" d="M1771.533,898.159s3.1,12.1-2.231,19.975" transform="translate(-1738.663 -880.061)" fill="none" stroke="#000" stroke-linejoin="round" stroke-width="0.25"/>
      <path id="Path_12784" data-name="Path 12784" d="M1762.477,932.216s8.351,5.968,12.347,18.876" transform="translate(-1741.528 -865.762)" fill="none" stroke="#000" stroke-linejoin="round" stroke-width="0.25"/>
      <path id="Path_12785" data-name="Path 12785" d="M1772.005,951.686s7.555,2.317,13.384,0" transform="translate(-1737.528 -857.588)" fill="none" stroke="#000" stroke-linejoin="round" stroke-width="0.25"/>
      <path id="Path_12786" data-name="Path 12786" d="M1785.8,922.769s-2.06,17.545,11.1,25.988" transform="translate(-1731.786 -869.729)" fill="none" stroke="#000" stroke-linejoin="round" stroke-width="0.25"/>
      <path id="Path_12787" data-name="Path 12787" d="M1805.984,908.739c-15.242,16.659-12.655,74.225-12.655,74.225s11.89-13.354,26.793-20.805,25.945-19.276,29.041-28.112" transform="translate(-1728.645 -875.619)" fill="none" stroke="#000" stroke-linejoin="round" stroke-width="0.25"/>
      <path id="Path_12788" data-name="Path 12788" d="M1829.122,926.135s-15.5,9.32-20.788,31.75" transform="translate(-1722.275 -868.315)" fill="none" stroke="#000" stroke-linejoin="round" stroke-width="0.25"/>
      <path id="Path_12789" data-name="Path 12789" d="M1814.833,958.257a12.725,12.725,0,0,1-11.66-6.208" transform="translate(-1724.442 -857.435)" fill="none" stroke="#000" stroke-linejoin="round" stroke-width="0.25"/>
      <path id="Path_12790" data-name="Path 12790" d="M1767.746,959.634s19-4.359,36.255,2.532" transform="translate(-1739.316 -854.821)" fill="none" stroke="#000" stroke-linejoin="round" stroke-width="0.25"/>
      <path id="Path_12791" data-name="Path 12791" d="M1777.6,966.53s6.31-2.24,8.835-7.884" transform="translate(-1735.179 -854.665)" fill="none" stroke="#000" stroke-linejoin="round" stroke-width="0.25"/>
    </g>
    <g id="Group_3669" data-name="Group 3669" transform="translate(1825.685 907.834)">
      <path id="Path_12792" data-name="Path 12792" d="M1777.6,932.692c.3,0,18.656-2.441,43.639,14.809s26.726,31.387,26.726,31.387,16.578-13.483,36.029-6.189c0,0,.663-20.483,23.209-22.509,0,0-1.326-10.646,6.852-15.068s8.154-12.966,6.144-18.247,5.029-9.306,1.634-20.119-10.689-11.569-11.191-21c0,0-18.737,7.168-31.938-6.915-8.048,24.771-29.048,19.238-29.048,19.238s-.126,14.586-24.771,20.5S1777.6,932.692,1777.6,932.692Z" transform="translate(-1777.599 -868.842)" fill="#62a542" stroke="#000" stroke-linejoin="round" stroke-width="0.25"/>
      <path id="Path_12793" data-name="Path 12793" d="M1830.609,891.705c.767.192,9.82,2.651,14.4,9.57" transform="translate(-1755.342 -859.243)" fill="none" stroke="#000" stroke-linejoin="round" stroke-width="0.25"/>
      <path id="Path_12794" data-name="Path 12794" d="M1814,929.855s21.005-11.335,25.073-29.921" transform="translate(-1762.316 -855.788)" fill="none" stroke="#000" stroke-linejoin="round" stroke-width="0.25"/>
      <path id="Path_12795" data-name="Path 12795" d="M1840.751,919.076s11.288-9.674,12.248-21.325" transform="translate(-1751.084 -856.704)" fill="none" stroke="#000" stroke-linejoin="round" stroke-width="0.25"/>
      <path id="Path_12796" data-name="Path 12796" d="M1847.965,966.783s32.818-56.573,71.872-63.818c-27.318-9.282-62.206-5.493-89.011,4.742-25.261,9.646-53.227,12.879-53.227,12.879" transform="translate(-1777.599 -856.736)" fill="none" stroke="#000" stroke-linejoin="round" stroke-width="0.25"/>
      <path id="Path_12797" data-name="Path 12797" d="M1827.688,934.413s11.2-11.934,27.327-13.828" transform="translate(-1756.569 -847.117)" fill="none" stroke="#000" stroke-linejoin="round" stroke-width="0.25"/>
      <path id="Path_12798" data-name="Path 12798" d="M1852.079,938.66s10.111-7.68,8.985-28.19" transform="translate(-1746.328 -851.364)" fill="none" stroke="#000" stroke-linejoin="round" stroke-width="0.25"/>
      <path id="Path_12799" data-name="Path 12799" d="M1857.345,905.495s6.683-2.26,11.778.846" transform="translate(-1744.117 -853.786)" fill="none" stroke="#000" stroke-linejoin="round" stroke-width="0.25"/>
      <path id="Path_12800" data-name="Path 12800" d="M1828.348,882.391s41.1,4.328,70.181,26.99c-17.579,14.724-12.634,35.12-12.634,35.12" transform="translate(-1756.292 -863.153)" fill="none" stroke="#000" stroke-linejoin="round" stroke-width="0.25"/>
      <path id="Path_12801" data-name="Path 12801" d="M1848.806,868.842c7.33,16.74,29.689,19.347,41.133,46.228" transform="translate(-1747.702 -868.842)" fill="none" stroke="#000" stroke-linejoin="round" stroke-width="0.25"/>
      <path id="Path_12802" data-name="Path 12802" d="M1841.263,891.079s10.7,1.61,19.2-2.107" transform="translate(-1750.869 -860.39)" fill="none" stroke="#000" stroke-linejoin="round" stroke-width="0.25"/>
      <path id="Path_12803" data-name="Path 12803" d="M1860.458,884.341a31.1,31.1,0,0,1,3.554,11.462" transform="translate(-1742.81 -862.335)" fill="none" stroke="#000" stroke-linejoin="round" stroke-width="0.25"/>
      <path id="Path_12804" data-name="Path 12804" d="M1870.36,881.013s1.371,6.188-1.292,10.457" transform="translate(-1739.195 -863.732)" fill="none" stroke="#000" stroke-linejoin="round" stroke-width="0.25"/>
    </g>
    <g id="Group_3670" data-name="Group 3670" transform="translate(1717.559 1079.716)">
      <path id="Path_12805" data-name="Path 12805" d="M1729.965,989.9s3.613,13.107-14.355,20.717c0,0,7.014,9.723-5.583,20.928,0,0,7.312,6.553,0,18.6a65.155,65.155,0,0,0-8.58,24.309s26-17.334,43.334-11.2,55.6-24.309,55.6-24.309-1.9-16.912-14.586-15.644-12.9-4.438-11.414-9.935.422-11.2-9.513-15.643S1729.965,989.9,1729.965,989.9Z" transform="translate(-1701.447 -989.897)" fill="#a2c427" stroke="#231815" stroke-miterlimit="10" stroke-width="0.25"/>
      <path id="Path_12806" data-name="Path 12806" d="M1701.447,1065.188s24.221-43.882,73.625-53.223c0,0-3,16.479-11.386,22.354" transform="translate(-1701.447 -980.632)" fill="none" stroke="#000" stroke-linejoin="round" stroke-width="0.25"/>
      <path id="Path_12807" data-name="Path 12807" d="M1723.335,1044.451a36.323,36.323,0,0,0,5.126-21.612" transform="translate(-1692.257 -976.066)" fill="none" stroke="#000" stroke-linejoin="round" stroke-width="0.25"/>
      <path id="Path_12808" data-name="Path 12808" d="M1722.753,1016.2s13.146-3.944,22.1,1.177" transform="translate(-1692.502 -979.46)" fill="none" stroke="#000" stroke-linejoin="round" stroke-width="0.25"/>
      <path id="Path_12809" data-name="Path 12809" d="M1707.49,1023.444s34.529-19.915,63.872-12.677" transform="translate(-1698.91 -981.799)" fill="none" stroke="#000" stroke-linejoin="round" stroke-width="0.25"/>
      <path id="Path_12810" data-name="Path 12810" d="M1721.307,1006.453a16.337,16.337,0,0,1,11.15,6.29" transform="translate(-1693.109 -982.946)" fill="none" stroke="#000" stroke-linejoin="round" stroke-width="0.25"/>
      <path id="Path_12811" data-name="Path 12811" d="M1711.422,1005.1s29.942-7.872,58.156,7.091" transform="translate(-1697.259 -984.383)" fill="none" stroke="#000" stroke-linejoin="round" stroke-width="0.25"/>
      <path id="Path_12812" data-name="Path 12812" d="M1742.24,994.024c.535.162,3.994,9.793,3.9,17.647" transform="translate(-1684.32 -988.164)" fill="none" stroke="#000" stroke-linejoin="round" stroke-width="0.25"/>
      <path id="Path_12813" data-name="Path 12813" d="M1735.174,1033.025s8.346-14.342,24.183-16.8" transform="translate(-1687.286 -978.844)" fill="none" stroke="#000" stroke-linejoin="round" stroke-width="0.25"/>
      <path id="Path_12814" data-name="Path 12814" d="M1761.469,1026.322s-2.417-9.223-6.276-13.213" transform="translate(-1678.881 -980.151)" fill="none" stroke="#000" stroke-linejoin="round" stroke-width="0.25"/>
    </g>
    <path id="Path_12815" data-name="Path 12815" d="M1854.05,929.843a44.3,44.3,0,0,1,30.619,9.045" transform="translate(80.184 64.524)" fill="none" stroke="#000" stroke-linejoin="round" stroke-width="0.25"/>
    <g id="Group_3671" data-name="Group 3671" transform="translate(1858.468 978.543)">
      <path id="Path_12816" data-name="Path 12816" d="M1800.688,1009.167s9.181-7.933,18.336-28.064,12.718-32.38,41.913-43.608,26.6-19.706,28.17-18.785,10.866-.1,13.546,9.6-.7,14.25,9.09,17.513,11.422,13.286,9.907,21.21-10.6,10.372-10.139,19.695-15.657,22.9-37.853,18.553C1839.876,998.671,1812.786,1008.566,1800.688,1009.167Z" transform="translate(-1800.688 -918.642)" fill="#62a542" stroke="#000" stroke-linejoin="round" stroke-width="0.25"/>
      <path id="Path_12817" data-name="Path 12817" d="M1800.688,1001.813c14.938-3.743,28.583-10.936,52-32.306s54.386-33.35,54.386-33.35-1.682,21.241-24.345,43.388" transform="translate(-1800.688 -911.288)" fill="none" stroke="#000" stroke-linejoin="round" stroke-width="0.25"/>
      <path id="Path_12818" data-name="Path 12818" d="M1837.311,986.018s13.5-18.594,11.008-32.739" transform="translate(-1785.311 -904.099)" fill="none" stroke="#000" stroke-linejoin="round" stroke-width="0.25"/>
      <path id="Path_12819" data-name="Path 12819" d="M1813.6,963.9a114.154,114.154,0,0,1,33.663-4.242" transform="translate(-1795.266 -901.437)" fill="none" stroke="#000" stroke-linejoin="round" stroke-width="0.25"/>
      <path id="Path_12820" data-name="Path 12820" d="M1834.422,946.831s15.563-4.38,27.869,1.2" transform="translate(-1786.524 -907.493)" fill="none" stroke="#000" stroke-linejoin="round" stroke-width="0.25"/>
      <path id="Path_12821" data-name="Path 12821" d="M1854.05,961.077s10.493-11.721,25.132-12.581" transform="translate(-1778.283 -906.107)" fill="none" stroke="#000" stroke-linejoin="round" stroke-width="0.25"/>
      <path id="Path_12822" data-name="Path 12822" d="M1892.542,969.109s3.754-23.34-6-32.827a110.64,110.64,0,0,0-36.938,3.159" transform="translate(-1780.152 -911.413)" fill="none" stroke="#000" stroke-linejoin="round" stroke-width="0.25"/>
      <path id="Path_12823" data-name="Path 12823" d="M1874.361,958.714s3.844-6.8,8.495-9.159" transform="translate(-1769.756 -905.663)" fill="none" stroke="#000" stroke-linejoin="round" stroke-width="0.25"/>
      <path id="Path_12824" data-name="Path 12824" d="M1864.833,922.011c-.063.7,1.992,8.988,1.556,12.969" transform="translate(-1773.756 -917.227)" fill="none" stroke="#000" stroke-linejoin="round" stroke-width="0.25"/>
    </g>
    <path id="Path_12825" data-name="Path 12825" d="M1816.962,1106.673s-3.162-12.246-12.9-13.122" transform="translate(59.198 133.339)" fill="none" stroke="#000" stroke-linejoin="round" stroke-width="0.25"/>
    <g id="Group_3672" data-name="Group 3672" transform="translate(1866.75 1088.719)">
      <path id="Path_12826" data-name="Path 12826" d="M1806.521,1023.22s13.125-.909,11.612,18.3c0,0,7.571-.038,7.571,8.772l27.85-29.606,1.318-20.044s-7.96,3.95-14.66,0-5.549-5.559-11.245-3.511-12.878,1.224-15.448-.892C1813.518,996.238,1820.8,1009.91,1806.521,1023.22Z" transform="translate(-1806.521 -996.238)" fill="#62a542" stroke="#000" stroke-linejoin="round" stroke-width="0.25"/>
      <path id="Path_12827" data-name="Path 12827" d="M1806.521,1023.009s6.808-3.327,13.026-12.625,11.356-12.513,15.21-13.642c2.473,10.339-9.283,31.4-6.722,50.861" transform="translate(-1806.521 -996.027)" fill="none" stroke="#000" stroke-linejoin="round" stroke-width="0.25"/>
      <path id="Path_12828" data-name="Path 12828" d="M1833.161,1028.85s1.742-23.438-6.754-32.109" transform="translate(-1798.172 -996.027)" fill="none" stroke="#000" stroke-linejoin="round" stroke-width="0.25"/>
      <path id="Path_12829" data-name="Path 12829" d="M1818.555,1016.825c.415-.581,4.471-9.451,3.562-16.909" transform="translate(-1801.469 -994.694)" fill="none" stroke="#000" stroke-linejoin="round" stroke-width="0.25"/>
      <path id="Path_12830" data-name="Path 12830" d="M1812.693,1004.2s2.023-1.376,8.323-1.677" transform="translate(-1803.93 -993.6)" fill="none" stroke="#000" stroke-linejoin="round" stroke-width="0.25"/>
      <path id="Path_12831" data-name="Path 12831" d="M1814.7,1035.157s5.2-17.419,13.543-23.766a35.638,35.638,0,0,1,3.081,19.6" transform="translate(-1803.087 -989.876)" fill="none" stroke="#000" stroke-linejoin="round" stroke-width="0.25"/>
      <path id="Path_12832" data-name="Path 12832" d="M1838.368,1012.615c-.829-.912-2.481-7.4-8.369-8.592" transform="translate(-1796.664 -992.969)" fill="none" stroke="#000" stroke-linejoin="round" stroke-width="0.25"/>
    </g>
    <path id="Path_12833" data-name="Path 12833" d="M1848.352,1042.527c.547-.109,9.2-1.424,13.477,11.945s9.425,39.12,23.232,43.5,20.382,1.644,27.4,12.494,20.492,13.588,27.834,7.779,3.068-13.149-.548-8.109-1.315,15.269,5.37,11.086,5.15-9.661,3.4-9.333-3.068,8.987,2.848,9.424,7.451-8.766,5.151-8.546-3.179,8.657,1.752,8.437,3.288-8,8.22-10.081,7.89,6.575,13.479,3.177,3.287-9.2,1.643-8.986-2.082,7.342,3.179,5.261,4.163-9.1,0-9.753" transform="translate(77.792 111.881)" fill="none" stroke="#000" stroke-linejoin="round" stroke-width="0.25"/>
    <path id="Path_12834" data-name="Path 12834" d="M1847.061,1045.26a41.991,41.991,0,0,0,23.607,15.66c15.544,3.642,25.99-3.54,23.628-6.727s-8.332,2.535-4.477,13.851,14.426,6.094,22.261-1.866,16.166-6.963,18.4,1.494,5.6,11.191,9.327,5.6-1.866-10.322-3.108-5.6,1.865,9.956,7.213,8.522,6.341-11.135,2.984-10.636-3.2,9.568,1.942,10.877,7.882-9.013,7.882-9.013-.636,8.509,4.6,7.461c3.73-.745,2.363-8.207,5.6-8.954s5.347,5.969,10.322-.745" transform="translate(77.25 113.064)" fill="none" stroke="#000" stroke-linejoin="round" stroke-width="0.25"/>
    <path id="Path_12835" data-name="Path 12835" d="M1887.35,1043.725s18.011,11.455,35.173,7.6,18.031-17.782,18.031-17.782" transform="translate(94.166 108.144)" fill="none" stroke="#000" stroke-linejoin="round" stroke-width="0.25"/>
    <path id="Path_12836" data-name="Path 12836" d="M1890.885,1037.2s9.012-2.391,19.085,7.186,18.405,14.3,31.836,10.818,12.468-21.844,7.089-20.145c-4.727,1.492-7.5,11.81-5.224,15.793,1.677,2.931,7.213,2.487,11.441-2.985s6.591-11.068,3.731-10.571-4.6,9.2,0,10.322,5.471-6.094,9.576-8.208,2.984,9.576,13.306,0" transform="translate(95.65 108.736)" fill="none" stroke="#000" stroke-linejoin="round" stroke-width="0.25"/>
    <path id="Path_12837" data-name="Path 12837" d="M1843.622,1062.407s16.466-8.472,32.589,6.064,12.026,23.92,4.1,37.8-10.968,22.995-5.55,28.413,13.348-6.344,10.176-8.194-9.515,8.326-6.078,14.14,17.179-5.021,14.008-9.118-8.458,8.722-4.758,12.026,12.29-4.228,9.382-6.211-5.154,8.789,1.058,7.037,6.872-7.831,5.154-7.963-5.286,9.515-.4,10.572,10.043-10.572,6.607-10.7-2.658,8.194,1.116,6.872,3.246-7.268,6.682-8.986,4.36,4.228,8.722.132,5.286,1.586,11.1-3.172" transform="translate(75.806 119.232)" fill="none" stroke="#000" stroke-linejoin="round" stroke-width="0.25"/>
    <path id="Path_12838" data-name="Path 12838" d="M1663.072,1004.04c2.936,6.489,6.49,13.568,12.053,14.433s4.789-9.644,1.545-9.489-.906,12.988,4.921,13.883,5.752-11,2.465-11.1-1.2,14.836,4.633,15.061,5.976-14.121,2.614-13.374-.9,13.165,4.781,12.783,6.949-11.511,3.811-10.8-2.776,11.542,1.676,12.962,4.076-4.035,8.111-5.006,4.556,8.816,9.562,11.281,9.787-.074,14.045-3.585" transform="translate(0 95.757)" fill="none" stroke="#000" stroke-linejoin="round" stroke-width="0.25"/>
    <path id="Path_12839" data-name="Path 12839" d="M1727.024,1012.465c-1.271.781-11.441-.305-16.642,10.234s-3.121,25.912-14.795,38.974-13.523,7.859-12.6,5.547,6.547-4.16,6.913,4.508.714,15.14,8.227,16.99,8.462-3.237,6.774-4.393-5.85,1.156-7.12,9.246,6.24,6.127,8.552,3.93,1.413-6.125-1.431-4.738-4.809,7.627-2.151,12.135,10.633-1.965,8.785-4.277-7.861,4.507-3.815,9.13,8.785,2.66,12.83,1.156,3.351,5.317,6.472,6.935,4.854-.693,3.93-1.964" transform="translate(8.276 99.294)" fill="none" stroke="#000" stroke-linejoin="round" stroke-width="0.25"/>
    <ellipse id="Ellipse_2092" data-name="Ellipse 2092" cx="5.085" cy="2.694" rx="5.085" ry="2.694" transform="translate(1756.336 1197.836)" fill="#ecb36f" stroke="#000" stroke-linejoin="round" stroke-width="0.25"/>
    <ellipse id="Ellipse_2093" data-name="Ellipse 2093" cx="4.276" cy="1.907" rx="4.276" ry="1.907" transform="translate(1761.999 1189.977)" fill="#ecb36f" stroke="#000" stroke-linejoin="round" stroke-width="0.25"/>
    <ellipse id="Ellipse_2094" data-name="Ellipse 2094" cx="6.26" cy="3.595" rx="6.26" ry="3.595" transform="translate(1751.274 1262.218)" fill="#c19165" stroke="#000" stroke-linejoin="round" stroke-width="0.25"/>
    <ellipse id="Ellipse_2095" data-name="Ellipse 2095" cx="5.634" cy="3.067" rx="5.634" ry="3.067" transform="translate(1766.047 1273.109)" fill="#ecb36f" stroke="#000" stroke-linejoin="round" stroke-width="0.25"/>
    <path id="Path_12840" data-name="Path 12840" d="M1737.536,1104.837c2,4.005,10.893,7.568,15.275,1.78s1.877-7.916,0-7.289-.5,6.885,4.882,5.884,4.381-8.514,8.388-8.389,3.88,8.514,12.644,4.383,3.882-14.4,1.127-13.773,2.293,10.767,6.718,7.388,2.962-11.77,0-11.643.92,10.354,6.929,7.68,2.254-10.31,0-9.808,1.752,11.643,6.009,7.135,2.128-11.115,0-10,1.252,13.507,7.386,5.245" transform="translate(31.265 126.834)" fill="none" stroke="#000" stroke-linejoin="round" stroke-width="0.25"/>
    <ellipse id="Ellipse_2096" data-name="Ellipse 2096" cx="3.83" cy="2.327" rx="3.83" ry="2.327" transform="translate(1908.479 1253.581)" fill="#ecb36f" stroke="#000" stroke-linejoin="round" stroke-width="0.25"/>
    <ellipse id="Ellipse_2097" data-name="Ellipse 2097" cx="5.729" cy="2.667" rx="5.729" ry="2.667" transform="translate(1914.686 1260.466)" fill="#c19165" stroke="#000" stroke-linejoin="round" stroke-width="0.25"/>
    <path id="Path_12841" data-name="Path 12841" d="M1816.935,1106.969c6-4.924,11.234-1.573,17.44,0s13.334-3.567,13.334-3.567" transform="translate(64.601 137.475)" fill="none" stroke="#000" stroke-linejoin="round" stroke-width="0.25"/>
    <path id="Path_12842" data-name="Path 12842" d="M1828.33,1130.149c4.267-4.848,8.728-2.52,13.77-1.066s5.266-2.618,14.659-1.066" transform="translate(69.385 147.48)" fill="none" stroke="#000" stroke-linejoin="round" stroke-width="0.25"/>
    <path id="Path_12843" data-name="Path 12843" d="M1840.965,1139.262c3.588-4.072,10.666-3.006,17.454-1.066s10.376-1.745,19.2.484,12.315-1.357,12.315-1.357" transform="translate(74.69 151.361)" fill="none" stroke="#000" stroke-linejoin="round" stroke-width="0.25"/>
    <ellipse id="Ellipse_2098" data-name="Ellipse 2098" cx="4.644" cy="2.732" rx="4.644" ry="2.732" transform="translate(1999.627 1201.796)" fill="#ecb36f" stroke="#000" stroke-linejoin="round" stroke-width="0.25"/>
    <ellipse id="Ellipse_2099" data-name="Ellipse 2099" cx="4.699" cy="2.404" rx="4.699" ry="2.404" transform="translate(2048.583 1108.145)" fill="#c19165" stroke="#000" stroke-linejoin="round" stroke-width="0.25"/>
    <ellipse id="Ellipse_2100" data-name="Ellipse 2100" cx="6.447" cy="3.06" rx="6.447" ry="3.06" transform="translate(2059.729 1116.013)" fill="#ecb36f" stroke="#000" stroke-linejoin="round" stroke-width="0.25"/>
    <path id="Path_12844" data-name="Path 12844" d="M1909.908,1003.983c3.13-3.195,8.375-2.976,12.418.63s6.993-.219,12.02.655,6.993,3.169,11.255,1.531" transform="translate(103.637 94.79)" fill="none" stroke="#000" stroke-linejoin="round" stroke-width="0.25"/>
    <path id="Path_12845" data-name="Path 12845" d="M1908.738,1012.7c3.151-2.286,10.145-.755,15.171,2.086s12.021.547,12.021.547" transform="translate(103.146 98.93)" fill="none" stroke="#000" stroke-linejoin="round" stroke-width="0.25"/>
    <path id="Path_12846" data-name="Path 12846" d="M1743.124,1078.423c1.389-1.495,7.477,2.03,13.351-2.669" transform="translate(33.611 125.867)" fill="none" stroke="#000" stroke-linejoin="round" stroke-width="0.25"/>
    <path id="Path_12847" data-name="Path 12847" d="M1752.076,1072.619c2.669-4.273,7.477-.213,13.457-2.884s9.079.71,13.672-1.781" transform="translate(37.369 122.592)" fill="none" stroke="#000" stroke-linejoin="round" stroke-width="0.25"/>
    <path id="Path_12848" data-name="Path 12848" d="M1683.57,1113.008c2.864-3.581,8.491-3.273,11.97-1.227s8.184,1.637,11.867-1.024" transform="translate(8.606 140.359)" fill="none" stroke="#000" stroke-linejoin="round" stroke-width="0.25"/>
    <path id="Path_12849" data-name="Path 12849" d="M1684.218,1120.977c2.763-3.99,10.231-5.627,16.983-2.353s9.617,3.17,14.733,1.022,10.947.717,10.947.717" transform="translate(8.878 143.133)" fill="none" stroke="#000" stroke-linejoin="round" stroke-width="0.25"/>
    <path id="Path_12850" data-name="Path 12850" d="M1743.87,1120.72c2.589-2.7,7.985-3.777,12.841,0,6.425,5,9.495-.432,17.372-.971s15.431,7.23,23.848,1.187" transform="translate(33.924 143.72)" fill="none" stroke="#000" stroke-linejoin="round" stroke-width="0.25"/>
    <path id="Path_12851" data-name="Path 12851" d="M1692.416,931.946c-1.322,3.821,3.967,6.259,5,2.909s-1.745-9.963-5.208-8.788-6.695,8.677-1.846,18.225,14.107,8.225,18.663,11.458,2.5,12.049,11.461,13.812,18.369-2.057,18.369-2.057" transform="translate(10.423 62.961)" fill="none" stroke="#000" stroke-linejoin="round" stroke-width="0.25"/>
    <path id="Path_12852" data-name="Path 12852" d="M1703.4,938.27c-2.5-3.161-5.291-10-2.057-11.357s9.294,9.666,7,12.31-3.582-7.788,0-7.64,1.377,12.5,7.256,12.347,3.233-6.763,9.7-7.351,27.48,2.938,26.451,24.687" transform="translate(15.456 63.325)" fill="none" stroke="#000" stroke-linejoin="round" stroke-width="0.25"/>
    <g id="Group_3673" data-name="Group 3673" transform="translate(1685.663 1009.617)">
      <path id="Path_12853" data-name="Path 12853" d="M1678.983,1013.915s70.33-12.422,78.93,21.023c0,0,13.38-14.907,25.037-10.129,0,0,3.058-19.875,17.583-19.111,0,0-.574-8.982,7.453-11.658s6.307-8.027,0-11.657-5.733-11.085-1.911-17.2,1.147-8.79-3.631-11.085-7.836-3.249-7.836-6.115c0,0-16.626,3.44-21.978-7.453,0,0-7.645,19.111-34.018,12.231,0,0,6.942,12.627-11.106,19.936C1704.562,981.986,1696.067,1005.836,1678.983,1013.915Z" transform="translate(-1678.983 -940.527)" fill="#62a542" stroke="#000" stroke-linejoin="round" stroke-width="0.25"/>
      <path id="Path_12854" data-name="Path 12854" d="M1738.612,949.141c14.871,8.938,50.739,11.511,64.668,22.388-30.791-11.2-56.053,1.529-82.79,17.457a415.044,415.044,0,0,1-41.507,21.312" transform="translate(-1678.983 -936.91)" fill="none" stroke="#000" stroke-linejoin="round" stroke-width="0.25"/>
      <path id="Path_12855" data-name="Path 12855" d="M1705.011,993.379s7.065-7.312,7.04-17.214" transform="translate(-1668.055 -925.564)" fill="none" stroke="#000" stroke-linejoin="round" stroke-width="0.25"/>
      <path id="Path_12856" data-name="Path 12856" d="M1715.961,964.962a25.88,25.88,0,0,1,15.819,3.232" transform="translate(-1663.458 -930.343)" fill="none" stroke="#000" stroke-linejoin="round" stroke-width="0.25"/>
      <path id="Path_12857" data-name="Path 12857" d="M1745.7,962.633s1.139,12.346-16.117,26.946" transform="translate(-1657.738 -931.245)" fill="none" stroke="#000" stroke-linejoin="round" stroke-width="0.25"/>
      <path id="Path_12858" data-name="Path 12858" d="M1739.2,950.1s4.461,4.173,4.507,8.154" transform="translate(-1653.701 -936.51)" fill="none" stroke="#000" stroke-linejoin="round" stroke-width="0.25"/>
      <path id="Path_12859" data-name="Path 12859" d="M1749.29,940.527s3.271,16.213,30.649,34.619c0,0-31.075,19.644-45.366,59.792" transform="translate(-1655.643 -940.527)" fill="none" stroke="#000" stroke-linejoin="round" stroke-width="0.25"/>
      <path id="Path_12860" data-name="Path 12860" d="M1757.109,950.1s2.576,6.02,0,10.666" transform="translate(-1646.181 -936.51)" fill="none" stroke="#000" stroke-linejoin="round" stroke-width="0.25"/>
      <path id="Path_12861" data-name="Path 12861" d="M1772.536,964.909s-17.432,17.109-20.329,49.662" transform="translate(-1648.24 -930.29)" fill="none" stroke="#000" stroke-linejoin="round" stroke-width="0.25"/>
      <path id="Path_12862" data-name="Path 12862" d="M1742.75,977.458s5.776-4.158,15.379-.958" transform="translate(-1652.21 -925.931)" fill="none" stroke="#000" stroke-linejoin="round" stroke-width="0.25"/>
      <path id="Path_12863" data-name="Path 12863" d="M1761.627,971.308c.53.541,3.891,3.961,1.65,14.629" transform="translate(-1644.284 -927.603)" fill="none" stroke="#000" stroke-linejoin="round" stroke-width="0.25"/>
    </g>
    <g id="Group_3674" data-name="Group 3674" transform="translate(1732.145 1121.399)">
      <path id="Path_12864" data-name="Path 12864" d="M1711.72,1093.836c15.431-46.929,39.529-49.255,43.334-64.051,0,0,10.569,6.553,17.545-6.764a24.959,24.959,0,0,0,16.935-1.691c9.277-4.228,16.043-1.9,16.464,6.129s3.382,7.4,8.245,8.879,5.285,4.017,3.8,14.375-5.495,11.414-12.471,11.414-14.586-4.862-21.35,10.359c0,0-15.854-9.09-27.693,2.959C1756.534,1075.445,1728.842,1079.883,1711.72,1093.836Z" transform="translate(-1711.72 -1019.254)" fill="#a2c427" stroke="#231815" stroke-miterlimit="10" stroke-width="0.25"/>
      <path id="Path_12865" data-name="Path 12865" d="M1741.463,1062.34s10.07-8.16,9.281-21.789" transform="translate(-1699.232 -1010.313)" fill="none" stroke="#000" stroke-linejoin="round" stroke-width="0.25"/>
      <path id="Path_12866" data-name="Path 12866" d="M1742.543,1037.309s9.511-3.222,15.5-1.075" transform="translate(-1698.779 -1012.435)" fill="none" stroke="#000" stroke-linejoin="round" stroke-width="0.25"/>
      <path id="Path_12867" data-name="Path 12867" d="M1784.227,1068.541c.71-1.521,4.847-27.648,22.8-39.892,0,0-46.787,4.477-95.308,61.243" transform="translate(-1711.72 -1015.31)" fill="none" stroke="#000" stroke-linejoin="round" stroke-width="0.25"/>
      <path id="Path_12868" data-name="Path 12868" d="M1757.886,1052.252s6.034-12.124,18.129-15.107" transform="translate(-1692.337 -1011.743)" fill="none" stroke="#000" stroke-linejoin="round" stroke-width="0.25"/>
      <path id="Path_12869" data-name="Path 12869" d="M1783.029,1041.547c-.462-.778-1.809-6.436-5.37-8.448" transform="translate(-1684.035 -1013.441)" fill="none" stroke="#000" stroke-linejoin="round" stroke-width="0.25"/>
      <path id="Path_12870" data-name="Path 12870" d="M1742.24,1026.671c10.206,10.507,25.986,4.832,51.974,2.808-6.141,17.155-2.144,28.257-1.451,29.533" transform="translate(-1698.906 -1016.141)" fill="none" stroke="#000" stroke-linejoin="round" stroke-width="0.25"/>
      <path id="Path_12871" data-name="Path 12871" d="M1755.879,1025.365a16.666,16.666,0,0,1,5.3,7.64" transform="translate(-1693.179 -1016.689)" fill="none" stroke="#000" stroke-linejoin="round" stroke-width="0.25"/>
      <path id="Path_12872" data-name="Path 12872" d="M1754.6,1021.907s6.766,6.764,21.187,6.764c12.441,0,13.241,2.808,13.241,2.808" transform="translate(-1693.718 -1018.141)" fill="none" stroke="#000" stroke-linejoin="round" stroke-width="0.25"/>
    </g>
    <g id="Group_3675" data-name="Group 3675" transform="translate(1817.834 1137.039)">
      <path id="Path_12873" data-name="Path 12873" d="M1821.3,1162.638c4.433-16.1,21-27.062,26.6-51.325s14.195-17.731,19.346-15.4c0,0-3.481-20.764,19.15-29.628,0,0-9.8-11.64-8.866-23.551l-22.846-10.512s-14.483,9.543-26.148,6.288-7.466-10.474-19.83-7.565-15.164,19.811-36.628,24.193c0,0,12.365,7.88,5.6,32.144,0,0,11.765-.923,13.3,16.564C1793.463,1132.31,1819.9,1140.709,1821.3,1162.638Z" transform="translate(-1772.07 -1030.27)" fill="#62a542" stroke="#000" stroke-linejoin="round" stroke-width="0.25"/>
      <path id="Path_12874" data-name="Path 12874" d="M1776.013,1084.846s30.563-21.021,50.859-48.772c0,0-12.364,18.566-13.064,50.7s6.016,37.492,5.833,73.427" transform="translate(-1770.414 -1027.833)" fill="none" stroke="#000" stroke-linejoin="round" stroke-width="0.25"/>
      <path id="Path_12875" data-name="Path 12875" d="M1772.07,1052.7s24.5,9.956,56.458-16.628c0,0,5.8,28.008,38.71,57.4" transform="translate(-1772.07 -1027.833)" fill="none" stroke="#000" stroke-linejoin="round" stroke-width="0.25"/>
      <path id="Path_12876" data-name="Path 12876" d="M1869.693,1063.849s-25.9-2.357-57.859-27.775" transform="translate(-1755.375 -1027.833)" fill="none" stroke="#000" stroke-linejoin="round" stroke-width="0.25"/>
      <path id="Path_12877" data-name="Path 12877" d="M1822.1,1086.7s-3.4-24.054-18.035-28.941" transform="translate(-1758.636 -1018.726)" fill="none" stroke="#000" stroke-linejoin="round" stroke-width="0.25"/>
      <path id="Path_12878" data-name="Path 12878" d="M1791.228,1082.453s10.93-18.769,8.2-29.566" transform="translate(-1764.026 -1020.773)" fill="none" stroke="#000" stroke-linejoin="round" stroke-width="0.25"/>
      <path id="Path_12879" data-name="Path 12879" d="M1793.923,1096.175a27.032,27.032,0,0,1,12.334-19.292" transform="translate(-1762.895 -1010.698)" fill="none" stroke="#000" stroke-linejoin="round" stroke-width="0.25"/>
      <path id="Path_12880" data-name="Path 12880" d="M1787.137,1051.444s11.366-6.585,20.883-3.178" transform="translate(-1765.744 -1023.124)" fill="none" stroke="#000" stroke-linejoin="round" stroke-width="0.25"/>
      <path id="Path_12881" data-name="Path 12881" d="M1796.018,1036.074c.058.246,6.614,2.737,9.635,9.074" transform="translate(-1762.015 -1027.833)" fill="none" stroke="#000" stroke-linejoin="round" stroke-width="0.25"/>
      <path id="Path_12882" data-name="Path 12882" d="M1823.437,1079.869s-5.867-14.152-2.919-25.274" transform="translate(-1752.076 -1020.056)" fill="none" stroke="#000" stroke-linejoin="round" stroke-width="0.25"/>
      <path id="Path_12883" data-name="Path 12883" d="M1840.5,1068.329s-6.263-2.591-10.247-.359" transform="translate(-1747.643 -1014.822)" fill="none" stroke="#000" stroke-linejoin="round" stroke-width="0.25"/>
      <path id="Path_12884" data-name="Path 12884" d="M1834.815,1050.215s-.663,10.263,7.5,16.8" transform="translate(-1745.731 -1021.895)" fill="none" stroke="#000" stroke-linejoin="round" stroke-width="0.25"/>
      <path id="Path_12885" data-name="Path 12885" d="M1847.412,1050.215s-4.232.825-5.85,3.794" transform="translate(-1742.893 -1021.895)" fill="none" stroke="#000" stroke-linejoin="round" stroke-width="0.25"/>
    </g>
    <g id="Group_3676" data-name="Group 3676" transform="translate(1868.898 1033.513)">
      <path id="Path_12886" data-name="Path 12886" d="M1917.118,985.26c5.247,4.005,13.411-.309,24.02,7.652s13.609,23.573,11.008,31.978-1,19.015,4.6,25.42c0,0-16.812.2-27.221,14.412s-16.012,17.613-16.012,17.613-6.805-12.41-22.018-11.609-22.217,16.612-83.464,15.212c0,0,4.183-3,12.4-17.815s13.22-21.816,22.827-34.226,2.911-20.537-1.947-25.38c0,0,25.765-18.047,24.165-43.669,0,0,18.214,3.236,28.622-7.491,0,0,.98,2.736,8.109,5.35C1915.873,967.718,1906.11,976.853,1917.118,985.26Z" transform="translate(-1808.034 -957.357)" fill="#a2c427" stroke="#231815" stroke-miterlimit="10" stroke-width="0.25"/>
      <path id="Path_12887" data-name="Path 12887" d="M1808.034,1077.687s30.085-2.671,62.538-40.1c26.681-30.774,27.236-45.832,46.546-60.577,0,0,12.576,34.586-6.413,93.349" transform="translate(-1808.034 -949.106)" fill="none" stroke="#000" stroke-linejoin="round" stroke-width="0.25"/>
      <path id="Path_12888" data-name="Path 12888" d="M1843.121,1008.3s17.147-8.846,31.622-6.066" transform="translate(-1793.302 -938.741)" fill="none" stroke="#000" stroke-linejoin="round" stroke-width="0.25"/>
      <path id="Path_12889" data-name="Path 12889" d="M1855.162,1047.563s6.835-20.45,2.059-33.336" transform="translate(-1788.247 -933.479)" fill="none" stroke="#000" stroke-linejoin="round" stroke-width="0.25"/>
      <path id="Path_12890" data-name="Path 12890" d="M1843.149,1053.348s7.639-8.468,6.864-23.3c-13.271-2.838-26.605,2.615-26.605,2.615" transform="translate(-1801.58 -927.182)" fill="none" stroke="#000" stroke-linejoin="round" stroke-width="0.25"/>
      <path id="Path_12891" data-name="Path 12891" d="M1831.473,1000.266s18.549,4.268,41.077-6.736,34.727-16.522,34.727-16.522,12,9.805,20.766,35.052c7.541,21.727,18.865,30,18.865,30" transform="translate(-1798.193 -949.106)" fill="none" stroke="#000" stroke-linejoin="round" stroke-width="0.25"/>
      <path id="Path_12892" data-name="Path 12892" d="M1843.121,981.044s13.349,2.374,20.851,12.475" transform="translate(-1793.302 -947.412)" fill="none" stroke="#000" stroke-linejoin="round" stroke-width="0.25"/>
      <path id="Path_12893" data-name="Path 12893" d="M1878.122,1022.879s1.688-16.676,13.652-29.259" transform="translate(-1778.607 -942.132)" fill="none" stroke="#000" stroke-linejoin="round" stroke-width="0.25"/>
      <path id="Path_12894" data-name="Path 12894" d="M1898.038,995.091a26.042,26.042,0,0,0-3.506,18.359" transform="translate(-1771.873 -941.514)" fill="none" stroke="#000" stroke-linejoin="round" stroke-width="0.25"/>
      <path id="Path_12895" data-name="Path 12895" d="M1890.54,1040.429s1.271-14.1-4.532-20.756" transform="translate(-1775.296 -931.193)" fill="none" stroke="#000" stroke-linejoin="round" stroke-width="0.25"/>
      <path id="Path_12896" data-name="Path 12896" d="M1848.492,962.633s24.582,20.642,51.639,20.412" transform="translate(-1791.047 -955.142)" fill="none" stroke="#000" stroke-linejoin="round" stroke-width="0.25"/>
      <path id="Path_12897" data-name="Path 12897" d="M1863.009,961.125s6.273,9.321,7.463,18.068" transform="translate(-1784.952 -955.775)" fill="none" stroke="#000" stroke-linejoin="round" stroke-width="0.25"/>
      <path id="Path_12898" data-name="Path 12898" d="M1864.972,980.8s7.4,1.193,15.112-4.788" transform="translate(-1784.128 -949.525)" fill="none" stroke="#000" stroke-linejoin="round" stroke-width="0.25"/>
      <path id="Path_12899" data-name="Path 12899" d="M1863.009,994.614s6.273-3.162,7.463-9.782" transform="translate(-1784.952 -945.821)" fill="none" stroke="#000" stroke-linejoin="round" stroke-width="0.25"/>
    </g>
  </g>
</svg>
