<svg xmlns="http://www.w3.org/2000/svg" width="437.242" height="444.129" viewBox="0 0 437.242 444.129">
  <g id="Group_3632" data-name="Group 3632" transform="translate(-114.165 -1829.927)">
    <g id="Group_3618" data-name="Group 3618" transform="translate(134.455 1934.919)">
      <path id="Path_12266" data-name="Path 12266" d="M131.794,1915.9s42.336,26.9,70.438,88.187" transform="translate(-129.871 -1912.431)" fill="none" stroke="#252f33" stroke-miterlimit="10" stroke-width="0.25"/>
      <path id="Path_12267" data-name="Path 12267" d="M130.27,1920.205s11.826,9.983,20.57,9.759" transform="translate(-130.27 -1911.302)" fill="none" stroke="#252f33" stroke-miterlimit="10" stroke-width="0.25"/>
      <path id="Path_12268" data-name="Path 12268" d="M139.15,1913.15s7.47,5.181,9.364,18.662" transform="translate(-127.944 -1913.15)" fill="none" stroke="#252f33" stroke-miterlimit="10" stroke-width="0.25"/>
      <path id="Path_12269" data-name="Path 12269" d="M157.226,1923.319s5.4,12.2,1.976,21.954" transform="translate(-123.208 -1910.486)" fill="none" stroke="#252f33" stroke-miterlimit="10" stroke-width="0.25"/>
      <path id="Path_12270" data-name="Path 12270" d="M132.649,1940.879s12.639,6.708,32.992-.163" transform="translate(-129.647 -1905.929)" fill="none" stroke="#252f33" stroke-miterlimit="10" stroke-width="0.25"/>
      <path id="Path_12271" data-name="Path 12271" d="M131.505,1954.086s24.2,6.339,34.436-13.37" transform="translate(-129.946 -1905.929)" fill="none" stroke="#252f33" stroke-miterlimit="10" stroke-width="0.25"/>
      <path id="Path_12272" data-name="Path 12272" d="M167.342,1917.029s4.476,21.708-8.55,29.892" transform="translate(-122.798 -1912.134)" fill="none" stroke="#252f33" stroke-miterlimit="10" stroke-width="0.25"/>
      <path id="Path_12273" data-name="Path 12273" d="M160.431,1958.939a30.619,30.619,0,0,0,20.035,7.2" transform="translate(-122.369 -1901.155)" fill="none" stroke="#252f33" stroke-miterlimit="10" stroke-width="0.25"/>
      <path id="Path_12274" data-name="Path 12274" d="M177.978,1949.224s4.061,13.278-1.671,19.461" transform="translate(-118.209 -1903.7)" fill="none" stroke="#252f33" stroke-miterlimit="10" stroke-width="0.25"/>
      <path id="Path_12275" data-name="Path 12275" d="M147.708,1967.892s15.11,9.313,36.091-3.247" transform="translate(-125.702 -1899.66)" fill="none" stroke="#252f33" stroke-miterlimit="10" stroke-width="0.25"/>
      <path id="Path_12276" data-name="Path 12276" d="M187.706,1947.992s4.086,15.009-11.4,21.016" transform="translate(-118.209 -1904.023)" fill="none" stroke="#252f33" stroke-miterlimit="10" stroke-width="0.25"/>
      <path id="Path_12277" data-name="Path 12277" d="M149.693,1983.556s24.5,1.573,33.586-18.911" transform="translate(-125.182 -1899.66)" fill="none" stroke="#252f33" stroke-miterlimit="10" stroke-width="0.25"/>
    </g>
    <g id="Group_3619" data-name="Group 3619" transform="translate(428.24 2061.01)">
      <path id="Path_12278" data-name="Path 12278" d="M364.893,2013.066a6.065,6.065,0,0,1,5.524,3.526" transform="translate(-362.59 -2013.066)" fill="none" stroke="#252f33" stroke-miterlimit="10" stroke-width="0.25"/>
      <ellipse id="Ellipse_2027" data-name="Ellipse 2027" cx="8.117" cy="6.622" rx="8.117" ry="6.622" transform="matrix(0.964, -0.265, 0.265, 0.964, 0, 5.679)" fill="#e86a58" stroke="#000" stroke-linejoin="round" stroke-width="0.25"/>
      <path id="Path_12279" data-name="Path 12279" d="M375.015,2018.656s-.686-2.38-5.348-2.893" transform="translate(-361.339 -2012.359)" fill="none" stroke="#252f33" stroke-miterlimit="10" stroke-width="0.25"/>
      <path id="Path_12280" data-name="Path 12280" d="M366.7,2021.088a5.172,5.172,0,0,1,2.592-5.064" transform="translate(-362.124 -2012.291)" fill="none" stroke="#252f33" stroke-miterlimit="10" stroke-width="0.25"/>
      <path id="Path_12281" data-name="Path 12281" d="M372.136,2019.165a5.026,5.026,0,0,0-2.866-3.305" transform="translate(-361.443 -2012.333)" fill="none" stroke="#252f33" stroke-miterlimit="10" stroke-width="0.25"/>
      <path id="Path_12282" data-name="Path 12282" d="M368.8,2020.133a4.676,4.676,0,0,1,.657-4.273" transform="translate(-361.631 -2012.333)" fill="none" stroke="#252f33" stroke-miterlimit="10" stroke-width="0.25"/>
    </g>
    <path id="Path_12283" data-name="Path 12283" d="M142.995,2058.569s4.536,5.242,12.619,1.748,12.778.11,14.525,2.73" transform="translate(7.518 59.865)" fill="none" stroke="#252f33" stroke-miterlimit="10" stroke-width="0.25"/>
    <path id="Path_12284" data-name="Path 12284" d="M133,2065.319a12.359,12.359,0,0,0,13.106,2.074c7.537-3.276,11.031-1.638,13.98,1.856s10.7,2.294,12.669-3.058" transform="translate(4.9 61.634)" fill="none" stroke="#252f33" stroke-miterlimit="10" stroke-width="0.25"/>
    <path id="Path_12285" data-name="Path 12285" d="M154.465,2112.807s12.232,14.9,31.017,6.165L204.266,1973.5S168.444,2046.793,154.465,2112.807Z" transform="translate(10.523 37.578)" fill="#ddd658" stroke="#000" stroke-linejoin="round" stroke-width="0.25"/>
    <g id="Group_3620" data-name="Group 3620" transform="translate(225.454 1887.855)">
      <path id="Path_12286" data-name="Path 12286" d="M208.109,2140.509s10.867,7.865,27.276,0c0,0-2.582-101.787,5.385-159.89s-5.577-103.536-11.256-102.663-28.044,57.465-26.248,130.622C205.124,2084.253,202.212,2099.062,208.109,2140.509Z" transform="translate(-202.172 -1875.31)" fill="#cad226" stroke="#231815" stroke-miterlimit="10" stroke-width="0.25"/>
      <path id="Path_12287" data-name="Path 12287" d="M218.406,2019.289c2.417.034,5.085,10.972,3.8,13.913s-8.43,2.35-9.534.1C211.339,2030.6,215.811,2019.254,218.406,2019.289Z" transform="translate(-199.745 -1838.281)" fill="#a5b63d" stroke="#231815" stroke-miterlimit="10" stroke-width="0.25"/>
      <path id="Path_12288" data-name="Path 12288" d="M225.425,2046.2c3.171-.331,8.348,13.958,7.12,18.111s-10.679,4.471-12.472,1.624C217.909,2062.5,222.021,2046.553,225.425,2046.2Z" transform="translate(-197.9 -1831.233)" fill="#a5b63d" stroke="#231815" stroke-miterlimit="10" stroke-width="0.25"/>
      <path id="Path_12289" data-name="Path 12289" d="M207.676,2039.6c2.635-.138,6.177,13.2,4.949,16.94s-7.848,4.2-9.272-1.225C202.419,2051.751,204.845,2039.743,207.676,2039.6Z" transform="translate(-202.176 -1832.961)" fill="#a5b63d" stroke="#231815" stroke-miterlimit="10" stroke-width="0.25"/>
      <path id="Path_12290" data-name="Path 12290" d="M207.571,1994.208c3.043-.141,7.16,14.123,5.751,18.112s-9.048,4.471-10.7-1.33C201.532,2007.185,204.3,1994.36,207.571,1994.208Z" transform="translate(-202.378 -1844.851)" fill="#a5b63d" stroke="#231815" stroke-miterlimit="10" stroke-width="0.25"/>
      <path id="Path_12291" data-name="Path 12291" d="M228.525,1875.906c2.516.863.6,15.062-2.015,18.2s-9.84-.014-10.029-3.118C216.252,1887.239,225.825,1874.979,228.525,1875.906Z" transform="translate(-198.685 -1875.857)" fill="#a5b63d" stroke="#231815" stroke-miterlimit="10" stroke-width="0.25"/>
      <path id="Path_12292" data-name="Path 12292" d="M228.916,1880.527c3.033.4,4.912,14.081,2.9,17.468s-10.909,1.623-12-1.268C218.511,1893.238,225.658,1880.1,228.916,1880.527Z" transform="translate(-197.85 -1874.636)" fill="#a5b63d" stroke="#231815" stroke-miterlimit="10" stroke-width="0.25"/>
      <path id="Path_12293" data-name="Path 12293" d="M221.75,1887.064c3.386.419,5.217,17.022,2.9,21.178s-12.244,2.191-13.4-1.3C209.85,1902.723,218.113,1886.614,221.75,1887.064Z" transform="translate(-200.096 -1872.923)" fill="#a5b63d" stroke="#231815" stroke-miterlimit="10" stroke-width="0.25"/>
      <path id="Path_12294" data-name="Path 12294" d="M226.741,1893.021c3.469.454,5.656,15.935,3.368,19.759s-12.473,1.806-13.724-1.468C214.876,1907.363,223.016,1892.532,226.741,1893.021Z" transform="translate(-198.757 -1871.363)" fill="#a5b63d" stroke="#231815" stroke-miterlimit="10" stroke-width="0.25"/>
      <path id="Path_12295" data-name="Path 12295" d="M227.577,1900.621c3.033.395,4.913,14.081,2.9,17.468s-10.91,1.623-12-1.268C217.174,1913.332,224.322,1900.2,227.577,1900.621Z" transform="translate(-198.2 -1869.372)" fill="#a5b63d" stroke="#231815" stroke-miterlimit="10" stroke-width="0.25"/>
      <path id="Path_12296" data-name="Path 12296" d="M217.378,1902.513c3.975.4,7.881,13.956,5.64,17.3s-12.436,2.943-14.3-1.467C207.2,1914.757,213.11,1902.082,217.378,1902.513Z" transform="translate(-200.782 -1868.876)" fill="#a5b63d" stroke="#231815" stroke-miterlimit="10" stroke-width="0.25"/>
    </g>
    <g id="Group_3621" data-name="Group 3621" transform="translate(252.345 1830.055)">
      <path id="Path_12297" data-name="Path 12297" d="M235.1,1839.553c8.392-1.381,14.559,8.651,19.761,66.36s25.776,193.206,25.776,193.206L251.6,2106.1s-18.145-88.313-24.26-170.006S227.133,1840.864,235.1,1839.553Z" transform="translate(-223.393 -1827.598)" fill="#ddd658" stroke="#000" stroke-linejoin="round" stroke-width="0.25"/>
      <path id="Path_12298" data-name="Path 12298" d="M242.2,1884.384c3.051-.2,7.562,12.856,6.251,16.568s-10.385,3.717-12.014,1.093C234.469,1898.877,238.922,1884.6,242.2,1884.384Z" transform="translate(-220.474 -1815.823)" fill="#a5b63d" stroke="#231815" stroke-miterlimit="10" stroke-width="0.25"/>
      <path id="Path_12299" data-name="Path 12299" d="M232.634,1830.067c2.871-.478,8.419,14.25,7.539,18.647s-9.477,5.125-11.277,2.222C226.724,1847.434,229.551,1830.581,232.634,1830.067Z" transform="translate(-222.523 -1830.055)" fill="#a5b63d" stroke="#231815" stroke-miterlimit="10" stroke-width="0.25"/>
      <path id="Path_12300" data-name="Path 12300" d="M232.352,1840.242c2.8.433,3.541,15.367,1.422,19.062s-9.383,3.282-10.053-1.576C223.175,1853.772,229.351,1839.778,232.352,1840.242Z" transform="translate(-223.687 -1827.39)" fill="#a5b63d" stroke="#231815" stroke-miterlimit="10" stroke-width="0.25"/>
      <path id="Path_12301" data-name="Path 12301" d="M248.058,1910.829c3-.6,7.47,11.848,6.651,15.7s-8.122,4.951-10.078,2.559C242.271,1926.2,244.838,1911.47,248.058,1910.829Z" transform="translate(-218.441 -1808.899)" fill="#a5b63d" stroke="#231815" stroke-miterlimit="10" stroke-width="0.25"/>
      <path id="Path_12302" data-name="Path 12302" d="M236.533,1837.548c2.779-1.046,9.361,11.657,9.278,15.887s-6.919,6.4-9.24,4.108C233.769,1854.778,233.547,1838.672,236.533,1837.548Z" transform="translate(-220.886 -1828.108)" fill="#a5b63d" stroke="#231815" stroke-miterlimit="10" stroke-width="0.25"/>
      <path id="Path_12303" data-name="Path 12303" d="M231.235,1945.764c-3.011.108-4.215,14.5-2.485,18.4s8.976,3.262,10.254.226C240.546,1960.726,234.468,1945.648,231.235,1945.764Z" transform="translate(-222.569 -1799.742)" fill="#a5b63d" stroke="#231815" stroke-miterlimit="10" stroke-width="0.25"/>
      <path id="Path_12304" data-name="Path 12304" d="M232.964,1839.528" transform="translate(-221.257 -1827.573)" fill="#a5b63d" stroke="#231815" stroke-miterlimit="10" stroke-width="0.25"/>
      <path id="Path_12305" data-name="Path 12305" d="M234.094,1844.826c3.022-.459,8.615,12.173,7.621,15.983s-10.034,4.577-11.879,2.1C227.611,1859.918,230.846,1845.319,234.094,1844.826Z" transform="translate(-222.269 -1826.189)" fill="#a5b63d" stroke="#231815" stroke-miterlimit="10" stroke-width="0.25"/>
      <path id="Path_12306" data-name="Path 12306" d="M240.01,1848.449c3.123-1.149,10.03,11.479,9.8,15.758s-7.9,6.692-10.4,4.451C236.38,1865.954,236.654,1849.681,240.01,1848.449Z" transform="translate(-220.12 -1825.256)" fill="#a5b63d" stroke="#231815" stroke-miterlimit="10" stroke-width="0.25"/>
      <path id="Path_12307" data-name="Path 12307" d="M228.7,1852.554c3.043-.3,7.963,12.61,6.77,16.363s-8.9,5.153-10.953,1.058C222.854,1866.64,225.435,1852.876,228.7,1852.554Z" transform="translate(-223.605 -1824.162)" fill="#a5b63d" stroke="#231815" stroke-miterlimit="10" stroke-width="0.25"/>
      <path id="Path_12308" data-name="Path 12308" d="M235.052,1855.75c2.959-.774,9.846,11.2,9.258,15.1s-9.5,5.6-11.594,3.334C230.189,1871.44,231.876,1856.582,235.052,1855.75Z" transform="translate(-221.642 -1823.333)" fill="#a5b63d" stroke="#231815" stroke-miterlimit="10" stroke-width="0.25"/>
      <path id="Path_12309" data-name="Path 12309" d="M243.933,1860.988c3.045-.289,6.227,12.546,5.02,16.295s-8.584,4.1-10.286,1.521C236.613,1875.693,240.664,1861.3,243.933,1860.988Z" transform="translate(-219.909 -1821.953)" fill="#a5b63d" stroke="#231815" stroke-miterlimit="10" stroke-width="0.25"/>
    </g>
    <g id="Group_3622" data-name="Group 3622" transform="translate(336.647 1985.301)">
      <path id="Path_12310" data-name="Path 12310" d="M336.607,2086.834s-9.96,12.68-33.615,9.721c0,0-8.161-56.983-12.5-75.333l10.517-68.149S330.486,2044.819,336.607,2086.834Z" transform="translate(-290.489 -1953.073)" fill="#cad226" stroke="#231815" stroke-miterlimit="10" stroke-width="0.25"/>
      <path id="Path_12311" data-name="Path 12311" d="M302.093,2011.287c2.367-.641,8.058,9.591,7.635,12.9s-7.566,4.711-9.278,2.765C298.382,2024.606,299.548,2011.975,302.093,2011.287Z" transform="translate(-288.158 -1937.83)" fill="#a5b63d" stroke="#231815" stroke-miterlimit="10" stroke-width="0.25"/>
      <path id="Path_12312" data-name="Path 12312" d="M307.1,1983.336c2.042-.81,7.578,10.813,7.711,14.583s-4.905,5.4-6.755,3.256C305.824,1998.585,304.911,1984.207,307.1,1983.336Z" transform="translate(-286.465 -1945.155)" fill="#a5b63d" stroke="#231815" stroke-miterlimit="10" stroke-width="0.25"/>
      <path id="Path_12313" data-name="Path 12313" d="M315.837,2029.517c2.663-1.006,8.976,11.121,8.9,15.166s-6.627,6.129-8.852,3.943C313.2,2045.989,312.978,2030.6,315.837,2029.517Z" transform="translate(-284.387 -1933.062)" fill="#a5b63d" stroke="#231815" stroke-miterlimit="10" stroke-width="0.25"/>
    </g>
    <path id="Path_12314" data-name="Path 12314" d="M265.142,2055.941c2.415-1.1,8.727,8.71,8.817,12.179s-5.867,5.847-8.007,4.176C263.37,2070.28,262.547,2057.123,265.142,2055.941Z" transform="translate(39.103 59.155)" fill="none" stroke="#252f33" stroke-miterlimit="10" stroke-width="0.25"/>
    <path id="Path_12315" data-name="Path 12315" d="M195.664,1939.991c-2.978.645-2.106,13.837.177,17.045s9.392,1.309,10.226-1.662C207.073,1951.789,198.861,1939.3,195.664,1939.991Z" transform="translate(20.818 28.793)" fill="none" stroke="#252f33" stroke-miterlimit="10" stroke-width="0.25"/>
    <path id="Path_12316" data-name="Path 12316" d="M427.767,2043.837s-43.686,33.553-77.542,43.6" transform="translate(61.808 56.006)" fill="none" stroke="#252f33" stroke-miterlimit="10" stroke-width="0.25"/>
    <path id="Path_12317" data-name="Path 12317" d="M377.4,2046.928s12.649,4.872,17.581,13.873" transform="translate(68.927 56.816)" fill="none" stroke="#252f33" stroke-miterlimit="10" stroke-width="0.25"/>
    <path id="Path_12318" data-name="Path 12318" d="M392.892,2078.7a33.855,33.855,0,0,0-1.562-20.776" transform="translate(72.576 59.695)" fill="none" stroke="#252f33" stroke-miterlimit="10" stroke-width="0.25"/>
    <path id="Path_12319" data-name="Path 12319" d="M383.436,2080.253a23.58,23.58,0,0,0,9.962-22.332" transform="translate(70.508 59.695)" fill="none" stroke="#252f33" stroke-miterlimit="10" stroke-width="0.25"/>
    <path id="Path_12320" data-name="Path 12320" d="M370.779,2051.342s18.5,1.328,25.935,8.3" transform="translate(67.192 57.972)" fill="none" stroke="#252f33" stroke-miterlimit="10" stroke-width="0.25"/>
    <path id="Path_12321" data-name="Path 12321" d="M376.231,2059.558s9.093-4.177,19.055-1.445" transform="translate(68.621 59.503)" fill="none" stroke="#252f33" stroke-miterlimit="10" stroke-width="0.25"/>
    <path id="Path_12322" data-name="Path 12322" d="M422.989,2038.7s-24.9,99.011-139.573,143.57" transform="translate(44.305 54.66)" fill="none" stroke="#252f33" stroke-miterlimit="10" stroke-width="0.25"/>
    <path id="Path_12323" data-name="Path 12323" d="M362.863,2134.061s7.881-22.65-2.2-35.776" transform="translate(64.542 70.27)" fill="none" stroke="#252f33" stroke-miterlimit="10" stroke-width="0.25"/>
    <path id="Path_12324" data-name="Path 12324" d="M338.716,2093.429s16.321-2.927,27.693,6.244" transform="translate(58.793 68.881)" fill="none" stroke="#252f33" stroke-miterlimit="10" stroke-width="0.25"/>
    <path id="Path_12325" data-name="Path 12325" d="M354.1,2121.2s11.84-9.124,8.282-22.917" transform="translate(62.822 70.27)" fill="none" stroke="#252f33" stroke-miterlimit="10" stroke-width="0.25"/>
    <path id="Path_12326" data-name="Path 12326" d="M345.14,2101.349s10.067-5.392,19.586-2.93" transform="translate(60.476 70.136)" fill="none" stroke="#252f33" stroke-miterlimit="10" stroke-width="0.25"/>
    <path id="Path_12327" data-name="Path 12327" d="M328.968,2128.049c8.716,19.479-2.326,32.29-2.326,32.29" transform="translate(55.63 78.067)" fill="none" stroke="#252f33" stroke-miterlimit="10" stroke-width="0.25"/>
    <path id="Path_12328" data-name="Path 12328" d="M321.19,2147.725s12.162-7.739,9.206-19.676" transform="translate(54.201 78.067)" fill="none" stroke="#252f33" stroke-miterlimit="10" stroke-width="0.25"/>
    <path id="Path_12329" data-name="Path 12329" d="M305.417,2115.405s18.795,1.66,29.111,15.957" transform="translate(50.069 74.755)" fill="none" stroke="#252f33" stroke-miterlimit="10" stroke-width="0.25"/>
    <path id="Path_12330" data-name="Path 12330" d="M305.936,2128.66s15.993-6.62,28.456,0" transform="translate(50.205 77.456)" fill="none" stroke="#252f33" stroke-miterlimit="10" stroke-width="0.25"/>
    <path id="Path_12331" data-name="Path 12331" d="M287.243,2128.711s16.526,2.5,26.938,15.135" transform="translate(45.308 78.241)" fill="none" stroke="#252f33" stroke-miterlimit="10" stroke-width="0.25"/>
    <path id="Path_12332" data-name="Path 12332" d="M302.172,2174.389s11.794-6.635,8.1-33.684" transform="translate(49.219 81.382)" fill="none" stroke="#252f33" stroke-miterlimit="10" stroke-width="0.25"/>
    <path id="Path_12333" data-name="Path 12333" d="M290.489,2135.909s13.825-2.386,22.842,6.132" transform="translate(46.158 80.046)" fill="none" stroke="#252f33" stroke-miterlimit="10" stroke-width="0.25"/>
    <path id="Path_12334" data-name="Path 12334" d="M300.744,2165.707s12.526-10,9.9-25" transform="translate(48.845 81.382)" fill="none" stroke="#252f33" stroke-miterlimit="10" stroke-width="0.25"/>
    <path id="Path_12335" data-name="Path 12335" d="M281.856,2148.012s12.482-4.561,23.186-2.855" transform="translate(43.897 82.449)" fill="none" stroke="#252f33" stroke-miterlimit="10" stroke-width="0.25"/>
    <path id="Path_12336" data-name="Path 12336" d="M285.3,2159.809s16.71-4.588,18.845-14.731" transform="translate(44.798 82.529)" fill="none" stroke="#252f33" stroke-miterlimit="10" stroke-width="0.25"/>
    <path id="Path_12337" data-name="Path 12337" d="M336.205,2141.8s89.338-1.786,125.815-66.258" transform="translate(58.135 64.313)" fill="none" stroke="#252f33" stroke-miterlimit="10" stroke-width="0.25"/>
    <path id="Path_12338" data-name="Path 12338" d="M336.88,2124.84s7.331-.982,13.1,2.867" transform="translate(58.312 77.198)" fill="none" stroke="#252f33" stroke-miterlimit="10" stroke-width="0.25"/>
    <path id="Path_12339" data-name="Path 12339" d="M337.546,2133.887s10.945-.654,12.255-6.8" transform="translate(58.486 77.816)" fill="none" stroke="#252f33" stroke-miterlimit="10" stroke-width="0.25"/>
    <path id="Path_12340" data-name="Path 12340" d="M352.9,2111.186s10.565.379,18.858,15.015" transform="translate(62.509 73.65)" fill="none" stroke="#252f33" stroke-miterlimit="10" stroke-width="0.25"/>
    <path id="Path_12341" data-name="Path 12341" d="M356.5,2120.536s10.511-2.821,14.316,3.384" transform="translate(63.451 75.931)" fill="none" stroke="#252f33" stroke-miterlimit="10" stroke-width="0.25"/>
    <path id="Path_12342" data-name="Path 12342" d="M360.66,2142.718s8.806-2.808,9.065-19.634" transform="translate(64.542 76.767)" fill="none" stroke="#252f33" stroke-miterlimit="10" stroke-width="0.25"/>
    <path id="Path_12343" data-name="Path 12343" d="M373.505,2100.607s15.318,5.9,19.577,19.168" transform="translate(67.907 70.878)" fill="none" stroke="#252f33" stroke-miterlimit="10" stroke-width="0.25"/>
    <path id="Path_12344" data-name="Path 12344" d="M380.515,2151.59s16.074-6.59,10.731-35.793" transform="translate(69.743 74.857)" fill="none" stroke="#252f33" stroke-miterlimit="10" stroke-width="0.25"/>
    <path id="Path_12345" data-name="Path 12345" d="M367.209,2108.947s19.785-2.025,27.522,8.683" transform="translate(66.257 73.023)" fill="none" stroke="#252f33" stroke-miterlimit="10" stroke-width="0.25"/>
    <path id="Path_12346" data-name="Path 12346" d="M376.88,2140.04s17.447-8.19,15.318-24.244" transform="translate(68.791 74.857)" fill="none" stroke="#252f33" stroke-miterlimit="10" stroke-width="0.25"/>
    <path id="Path_12347" data-name="Path 12347" d="M358.966,2132.9s7.535-.64,11.2-9.817" transform="translate(64.098 76.767)" fill="none" stroke="#252f33" stroke-miterlimit="10" stroke-width="0.25"/>
    <path id="Path_12348" data-name="Path 12348" d="M379.32,2120.006s-5.6,3.707-5.815,8.793" transform="translate(67.907 75.96)" fill="none" stroke="#252f33" stroke-miterlimit="10" stroke-width="0.25"/>
    <ellipse id="Ellipse_2028" data-name="Ellipse 2028" cx="10.951" cy="9.564" rx="10.951" ry="9.564" transform="translate(430.461 2204.76)" fill="#e86a58" stroke="#000" stroke-linejoin="round" stroke-width="0.25"/>
    <path id="Path_12349" data-name="Path 12349" d="M368.529,2133.282A8.407,8.407,0,0,1,373.9,2127" transform="translate(66.603 77.793)" fill="none" stroke="#252f33" stroke-miterlimit="10" stroke-width="0.25"/>
    <path id="Path_12350" data-name="Path 12350" d="M378.585,2133.118a6.09,6.09,0,0,0-4.359-6.118" transform="translate(68.095 77.793)" fill="none" stroke="#252f33" stroke-miterlimit="10" stroke-width="0.25"/>
    <path id="Path_12351" data-name="Path 12351" d="M371.317,2133.288a6.518,6.518,0,0,1,2.429-6.31" transform="translate(67.309 77.786)" fill="none" stroke="#252f33" stroke-miterlimit="10" stroke-width="0.25"/>
    <path id="Path_12352" data-name="Path 12352" d="M375.478,2133.124s.6-3.719-1.691-6.146" transform="translate(67.981 77.786)" fill="none" stroke="#252f33" stroke-miterlimit="10" stroke-width="0.25"/>
    <path id="Path_12353" data-name="Path 12353" d="M424,2102.737c-12.078-19.054-32.67-21.408-32.67-21.408" transform="translate(72.576 65.828)" fill="none" stroke="#252f33" stroke-miterlimit="10" stroke-width="0.25"/>
    <path id="Path_12354" data-name="Path 12354" d="M393.326,2093.3s11.446-6.241,30.151,6.7" transform="translate(73.099 68.569)" fill="none" stroke="#252f33" stroke-miterlimit="10" stroke-width="0.25"/>
    <path id="Path_12355" data-name="Path 12355" d="M212.449,2124.333s105.293,14.745,218-43" transform="translate(25.714 65.828)" fill="none" stroke="#252f33" stroke-miterlimit="10" stroke-width="0.25"/>
    <path id="Path_12356" data-name="Path 12356" d="M211.756,2110.8s10.979,1.581,14.91,7.016" transform="translate(25.532 73.547)" fill="none" stroke="#252f33" stroke-miterlimit="10" stroke-width="0.25"/>
    <path id="Path_12357" data-name="Path 12357" d="M211.756,2119.5s8.768,1.835,14.91-3.139" transform="translate(25.532 75.004)" fill="none" stroke="#252f33" stroke-miterlimit="10" stroke-width="0.25"/>
    <path id="Path_12358" data-name="Path 12358" d="M219.934,2103.982s14.663,3.777,22.116,16.1" transform="translate(27.675 71.762)" fill="none" stroke="#252f33" stroke-miterlimit="10" stroke-width="0.25"/>
    <path id="Path_12359" data-name="Path 12359" d="M215.91,2127.179s15.809.256,27.194-10.439" transform="translate(26.62 75.104)" fill="none" stroke="#252f33" stroke-miterlimit="10" stroke-width="0.25"/>
    <path id="Path_12360" data-name="Path 12360" d="M240.835,2105.28a39.254,39.254,0,0,1,16.314,13.946" transform="translate(33.15 72.103)" fill="none" stroke="#252f33" stroke-miterlimit="10" stroke-width="0.25"/>
    <path id="Path_12361" data-name="Path 12361" d="M241.224,2129.744s9.187-1.187,15.823-13.412" transform="translate(33.252 74.997)" fill="none" stroke="#252f33" stroke-miterlimit="10" stroke-width="0.25"/>
    <path id="Path_12362" data-name="Path 12362" d="M240.25,2099.035s12.548,3.918,17.052,21.827" transform="translate(32.997 70.466)" fill="none" stroke="#252f33" stroke-miterlimit="10" stroke-width="0.25"/>
    <path id="Path_12363" data-name="Path 12363" d="M240.835,2137.689s12.2-1.065,16.314-21.357" transform="translate(33.15 74.997)" fill="none" stroke="#252f33" stroke-miterlimit="10" stroke-width="0.25"/>
    <path id="Path_12364" data-name="Path 12364" d="M262.514,2099.035s14.534,6.282,18.407,19.245" transform="translate(38.83 70.466)" fill="none" stroke="#252f33" stroke-miterlimit="10" stroke-width="0.25"/>
    <path id="Path_12365" data-name="Path 12365" d="M272.769,2098.465a23.492,23.492,0,0,1,5.466,19.965" transform="translate(41.516 70.317)" fill="none" stroke="#252f33" stroke-miterlimit="10" stroke-width="0.25"/>
    <path id="Path_12366" data-name="Path 12366" d="M263.682,2131.655a21,21,0,0,0,16.933-17.37" transform="translate(39.136 74.461)" fill="none" stroke="#252f33" stroke-miterlimit="10" stroke-width="0.25"/>
    <path id="Path_12367" data-name="Path 12367" d="M267.382,2137.078s12.664-3.03,12.264-22.792" transform="translate(40.105 74.461)" fill="none" stroke="#252f33" stroke-miterlimit="10" stroke-width="0.25"/>
    <path id="Path_12368" data-name="Path 12368" d="M278.05,2114.166s4.557.418,6.2,3.775" transform="translate(42.9 74.43)" fill="none" stroke="#252f33" stroke-miterlimit="10" stroke-width="0.25"/>
    <ellipse id="Ellipse_2029" data-name="Ellipse 2029" cx="10.134" cy="9.256" rx="10.134" ry="9.256" transform="matrix(0.766, -0.642, 0.642, 0.766, 319.366, 2198.86)" fill="#e86a58" stroke="#000" stroke-linejoin="round" stroke-width="0.25"/>
    <path id="Path_12369" data-name="Path 12369" d="M282.692,2117.574s-1.817,2.813-.732,7.687" transform="translate(43.833 75.323)" fill="none" stroke="#252f33" stroke-miterlimit="10" stroke-width="0.25"/>
    <path id="Path_12370" data-name="Path 12370" d="M283.649,2116.721a9.2,9.2,0,0,1,7.669.691" transform="translate(44.366 74.959)" fill="none" stroke="#252f33" stroke-miterlimit="10" stroke-width="0.25"/>
    <path id="Path_12371" data-name="Path 12371" d="M285.075,2123.922s-2.3-1.618-2.3-6.635" transform="translate(44.138 75.248)" fill="none" stroke="#252f33" stroke-miterlimit="10" stroke-width="0.25"/>
    <path id="Path_12372" data-name="Path 12372" d="M289.152,2120.7a7.429,7.429,0,0,0-5.911-3.8" transform="translate(44.26 75.148)" fill="none" stroke="#252f33" stroke-miterlimit="10" stroke-width="0.25"/>
    <ellipse id="Ellipse_2030" data-name="Ellipse 2030" cx="9.256" cy="10.134" rx="9.256" ry="10.134" transform="matrix(0.403, -0.915, 0.915, 0.403, 375.881, 2165.467)" fill="#ea6157" stroke="#000" stroke-linejoin="round" stroke-width="0.25"/>
    <path id="Path_12373" data-name="Path 12373" d="M329.531,2099.882s3.325.384,7.215-2.747" transform="translate(56.386 69.968)" fill="none" stroke="#252f33" stroke-miterlimit="10" stroke-width="0.25"/>
    <path id="Path_12374" data-name="Path 12374" d="M328.725,2100.17a9.2,9.2,0,0,1-2.776-7.182" transform="translate(55.441 68.882)" fill="none" stroke="#252f33" stroke-miterlimit="10" stroke-width="0.25"/>
    <path id="Path_12375" data-name="Path 12375" d="M334.068,2095.2s-.43,2.783-4.932,5" transform="translate(56.283 69.462)" fill="none" stroke="#252f33" stroke-miterlimit="10" stroke-width="0.25"/>
    <path id="Path_12376" data-name="Path 12376" d="M329.487,2093.382a7.429,7.429,0,0,0-.789,6.981" transform="translate(56.03 68.985)" fill="none" stroke="#252f33" stroke-miterlimit="10" stroke-width="0.25"/>
    <path id="Path_12377" data-name="Path 12377" d="M298.823,2091.325s14,.616,21.156,20.049" transform="translate(48.342 68.446)" fill="none" stroke="#252f33" stroke-miterlimit="10" stroke-width="0.25"/>
    <path id="Path_12378" data-name="Path 12378" d="M304.444,2130.807s16.112-7.195,14.062-23.6" transform="translate(49.814 72.609)" fill="none" stroke="#252f33" stroke-miterlimit="10" stroke-width="0.25"/>
    <path id="Path_12379" data-name="Path 12379" d="M301,2098.285s13.059-.208,18.4,11.265" transform="translate(48.913 70.269)" fill="none" stroke="#252f33" stroke-miterlimit="10" stroke-width="0.25"/>
    <path id="Path_12380" data-name="Path 12380" d="M305.158,2121.345s10.741-1.274,13.161-14.133" transform="translate(50.001 72.609)" fill="none" stroke="#252f33" stroke-miterlimit="10" stroke-width="0.25"/>
    <path id="Path_12381" data-name="Path 12381" d="M327.132,2105.5a9.166,9.166,0,0,1,2.255-6.461" transform="translate(55.752 70.466)" fill="none" stroke="#252f33" stroke-miterlimit="10" stroke-width="0.25"/>
    <g id="Group_3623" data-name="Group 3623" transform="translate(125.959 2078.01)">
      <ellipse id="Ellipse_2031" data-name="Ellipse 2031" cx="6.564" cy="7.186" rx="6.564" ry="7.186" transform="translate(0 14.752) rotate(-71.672)" fill="#e86a58" stroke="#000" stroke-linejoin="round" stroke-width="0.25"/>
      <path id="Path_12382" data-name="Path 12382" d="M132.645,2030.3a7.5,7.5,0,0,1,2.492,4.875" transform="translate(-121.152 -2025.551)" fill="none" stroke="#252f33" stroke-miterlimit="10" stroke-width="0.25"/>
      <path id="Path_12383" data-name="Path 12383" d="M132.626,2029.976a6.525,6.525,0,0,0-4.874,2.462" transform="translate(-122.434 -2025.636)" fill="none" stroke="#252f33" stroke-miterlimit="10" stroke-width="0.25"/>
      <path id="Path_12384" data-name="Path 12384" d="M132.587,2035.17s1.1-1.669-.222-4.975" transform="translate(-121.226 -2025.579)" fill="none" stroke="#252f33" stroke-miterlimit="10" stroke-width="0.25"/>
      <path id="Path_12385" data-name="Path 12385" d="M129.661,2034.115a5.268,5.268,0,0,1,2.9-4.05" transform="translate(-121.934 -2025.613)" fill="none" stroke="#252f33" stroke-miterlimit="10" stroke-width="0.25"/>
      <path id="Path_12386" data-name="Path 12386" d="M134.168,2026.537a6.726,6.726,0,0,0-1.979,4.566" transform="translate(-121.272 -2026.537)" fill="none" stroke="#252f33" stroke-miterlimit="10" stroke-width="0.25"/>
    </g>
    <g id="Group_3624" data-name="Group 3624" transform="translate(215.674 1898.715)">
      <path id="Path_12387" data-name="Path 12387" d="M310.985,2122.478s-3.935,13.707-27.525,12.97c0,0-32.328-53.161-52.86-106.894s-41.065-135.865-30.58-138.486,35.616,60.287,54.067,111.4S310.985,2122.478,310.985,2122.478Z" transform="translate(-193.958 -1883.014)" fill="#ddd658" stroke="#000" stroke-linejoin="round" stroke-width="0.25"/>
      <path id="Path_12388" data-name="Path 12388" d="M221.208,1923.771c2.455-.887,9.614,10.577,9.518,14.426s-7.554,5.914-9.586,3.773C218.687,1939.388,218.573,1924.725,221.208,1923.771Z" transform="translate(-188.174 -1874.177)" fill="#a5b63d" stroke="#231815" stroke-miterlimit="10" stroke-width="0.25"/>
      <path id="Path_12389" data-name="Path 12389" d="M223.583,1960.252c2.214-1,9.287,7.746,9.368,10.952s-6.676,5.719-8.636,4.161C221.95,1973.486,221.2,1961.326,223.583,1960.252Z" transform="translate(-187.424 -1864.627)" fill="#a5b63d" stroke="#231815" stroke-miterlimit="10" stroke-width="0.25"/>
      <path id="Path_12390" data-name="Path 12390" d="M197.045,1884.538c2.662-1.18,11.709,11.7,11.953,16.175s-7.9,7.328-10.365,4.967C195.657,1902.83,194.188,1885.806,197.045,1884.538Z" transform="translate(-194.398 -1884.462)" fill="#a5b63d" stroke="#231815" stroke-miterlimit="10" stroke-width="0.25"/>
      <path id="Path_12391" data-name="Path 12391" d="M232.854,1993.973c-2.3.461-.981,12.823.955,15.929s7.4,1.672,7.909-1.062C242.332,2005.539,235.318,1993.48,232.854,1993.973Z" transform="translate(-184.933 -1855.776)" fill="#a5b63d" stroke="#231815" stroke-miterlimit="10" stroke-width="0.25"/>
      <path id="Path_12392" data-name="Path 12392" d="M199.08,1894.662c2.814-.279,7.264,14,6.134,18.1s-8.267,5.519-10.129.982C193.57,1910.054,196.058,1894.962,199.08,1894.662Z" transform="translate(-194.629 -1881.791)" fill="#a5b63d" stroke="#231815" stroke-miterlimit="10" stroke-width="0.25"/>
      <path id="Path_12393" data-name="Path 12393" d="M203.006,1890.7c2.432-1.707,11.975,8.951,12.95,13.069s-5.1,7.924-7.923,6.283C204.632,1908.074,200.4,1892.534,203.006,1890.7Z" transform="translate(-192.646 -1882.876)" fill="#a5b63d" stroke="#231815" stroke-miterlimit="10" stroke-width="0.25"/>
      <path id="Path_12394" data-name="Path 12394" d="M202.147,1898.494c2.813-1.2,11.381,9.638,11.37,13.575s-8.576,6.937-10.98,5C199.636,1914.726,199.126,1899.781,202.147,1898.494Z" transform="translate(-193.193 -1880.81)" fill="#a5b63d" stroke="#231815" stroke-miterlimit="10" stroke-width="0.25"/>
      <path id="Path_12395" data-name="Path 12395" d="M198.9,1907.306c2.872-1.05,10.858,10.223,10.64,14.154s-7.337,7.212-10.342,3.757C196.748,1922.4,195.813,1908.432,198.9,1907.306Z" transform="translate(-194.021 -1878.495)" fill="#a5b63d" stroke="#231815" stroke-miterlimit="10" stroke-width="0.25"/>
      <path id="Path_12396" data-name="Path 12396" d="M209.032,1900.428c2.738-1.891,11.945,7.482,11.887,13.767-.058,6.375-4.443,7.5-7.429,5.954C209.886,1918.284,206.092,1902.459,209.032,1900.428Z" transform="translate(-191.13 -1880.344)" fill="#a5b63d" stroke="#231815" stroke-miterlimit="10" stroke-width="0.25"/>
      <path id="Path_12397" data-name="Path 12397" d="M205.949,1908.768c2.672-1.488,12.33,8.391,12.732,12.308s-7.8,7.8-10.395,6.122C205.156,1925.173,203.081,1910.365,205.949,1908.768Z" transform="translate(-192.02 -1878.134)" fill="#a5b63d" stroke="#231815" stroke-miterlimit="10" stroke-width="0.25"/>
    </g>
    <g id="Group_3625" data-name="Group 3625" transform="translate(187.186 1838.04)">
      <path id="Path_12398" data-name="Path 12398" d="M180.452,2159.292s16.322,11.951,35.247,1.319c0,0,4.071-47.809,3.2-119.41s-11.672-148.532-19.161-167.316-18.408-32.328-21.9-31.017-1.31,30.58,2.621,68.149,5.242,117.515,3.5,161.639S180.452,2159.292,180.452,2159.292Z" transform="translate(-171 -1834.707)" fill="#cad226" stroke="#231815" stroke-miterlimit="10" stroke-width="0.25"/>
      <path id="Path_12399" data-name="Path 12399" d="M198.354,1947.366c2.61-.018,5.531,13.178,4.157,16.774s-9.094,3.053-10.3.357C190.765,1961.244,195.552,1947.385,198.354,1947.366Z" transform="translate(-166.843 -1807.307)" fill="#a5b63d" stroke="#231815" stroke-miterlimit="10" stroke-width="0.25"/>
      <path id="Path_12400" data-name="Path 12400" d="M201.562,1978.238c2.177-.212,5.7,8.67,4.849,11.258s-7.34,2.805-8.564,1.037C196.367,1988.4,199.225,1978.466,201.562,1978.238Z" transform="translate(-165.404 -1799.22)" fill="#a5b63d" stroke="#231815" stroke-miterlimit="10" stroke-width="0.25"/>
      <path id="Path_12401" data-name="Path 12401" d="M192.577,2015.088c2.6-.256,6.815,10.448,5.8,13.566s-8.769,3.379-10.233,1.247C186.374,2027.33,189.784,2015.362,192.577,2015.088Z" transform="translate(-167.968 -1789.567)" fill="#a5b63d" stroke="#231815" stroke-miterlimit="10" stroke-width="0.25"/>
      <path id="Path_12402" data-name="Path 12402" d="M183.627,1925.406c3.044-.3,7.925,13.657,6.72,17.694s-8.844,4.918-10.809-.759C178.248,1938.618,180.357,1925.728,183.627,1925.406Z" transform="translate(-170.195 -1813.062)" fill="#a5b63d" stroke="#231815" stroke-miterlimit="10" stroke-width="0.25"/>
      <path id="Path_12403" data-name="Path 12403" d="M184.182,1967.007c3.044-.3,7.924,13.657,6.72,17.694s-8.844,4.918-10.809-.76C178.8,1980.219,180.912,1967.329,184.182,1967.007Z" transform="translate(-170.049 -1802.163)" fill="#a5b63d" stroke="#231815" stroke-miterlimit="10" stroke-width="0.25"/>
      <path id="Path_12404" data-name="Path 12404" d="M183.517,2040.746c3.665-.341,9.505,15.171,8.046,19.663s-10.656,5.491-13.008-.818C177.013,2055.453,179.582,2041.113,183.517,2040.746Z" transform="translate(-170.47 -1782.845)" fill="#a5b63d" stroke="#231815" stroke-miterlimit="10" stroke-width="0.25"/>
      <path id="Path_12405" data-name="Path 12405" d="M176,1836.427c2.665-.917,10.355,12.455,10.228,16.846s-8.223,6.458-10.414,3.933C173.175,1854.162,173.141,1837.413,176,1836.427Z" transform="translate(-171.585 -1836.382)" fill="#a5b63d" stroke="#231815" stroke-miterlimit="10" stroke-width="0.25"/>
      <path id="Path_12406" data-name="Path 12406" d="M175.695,1844.911c3.01-.541,8.944,11.934,8.055,15.771s-8.467,5.845-10.834,1.927C170.988,1859.418,172.463,1845.493,175.695,1844.911Z" transform="translate(-172.055 -1834.153)" fill="#a5b63d" stroke="#231815" stroke-miterlimit="10" stroke-width="0.25"/>
      <path id="Path_12407" data-name="Path 12407" d="M180.643,1840.478c2.747-1.276,10.1,10.1,10.249,14.126s-6.627,6.776-9.1,4.837C178.814,1857.1,177.693,1841.847,180.643,1840.478Z" transform="translate(-170.257 -1835.336)" fill="#a5b63d" stroke="#231815" stroke-miterlimit="10" stroke-width="0.25"/>
      <path id="Path_12408" data-name="Path 12408" d="M178.088,1846.3c2.845-1.13,11.619,11.928,11.638,16.409s-8.646,7.176-11.1,4.765C175.665,1864.565,175.033,1847.51,178.088,1846.3Z" transform="translate(-171 -1833.803)" fill="#a5b63d" stroke="#231815" stroke-miterlimit="10" stroke-width="0.25"/>
      <path id="Path_12409" data-name="Path 12409" d="M175.695,1858.411c3.01-.541,8.944,11.934,8.055,15.771s-8.467,5.847-10.834,1.927C170.988,1872.918,172.463,1858.993,175.695,1858.411Z" transform="translate(-172.055 -1830.616)" fill="#a5b63d" stroke="#231815" stroke-miterlimit="10" stroke-width="0.25"/>
      <path id="Path_12410" data-name="Path 12410" d="M185.127,1848.745c2.737-1.3,10.664,11.586,10.98,16.042s-6.455,7.223-9.042,4.98C183.945,1867.06,182.187,1850.141,185.127,1848.745Z" transform="translate(-169.024 -1833.168)" fill="#a5b63d" stroke="#231815" stroke-miterlimit="10" stroke-width="0.25"/>
      <path id="Path_12411" data-name="Path 12411" d="M203.21,1899.941c3.01-.354,6.4,14.389,5.274,18.711s-8.427,4.781-10.16,1.827C196.231,1916.915,199.978,1900.322,203.21,1899.941Z" transform="translate(-165.331 -1819.733)" fill="#a5b63d" stroke="#231815" stroke-miterlimit="10" stroke-width="0.25"/>
      <path id="Path_12412" data-name="Path 12412" d="M206.155,1931.6c1.9-.276,4.171,12.3,3.5,15.961s-5.283,3.992-6.4,1.464C201.9,1945.975,204.116,1931.895,206.155,1931.6Z" transform="translate(-163.991 -1811.439)" fill="#a5b63d" stroke="#231815" stroke-miterlimit="10" stroke-width="0.25"/>
      <path id="Path_12413" data-name="Path 12413" d="M209.272,2021.508c2.5-.285,5.247,12.279,4.3,15.95s-7.005,4.021-8.43,1.5C203.419,2035.912,206.592,2021.815,209.272,2021.508Z" transform="translate(-163.515 -1787.885)" fill="#a5b63d" stroke="#231815" stroke-miterlimit="10" stroke-width="0.25"/>
      <path id="Path_12414" data-name="Path 12414" d="M182.685,1857.271c2.958-.775,9.846,11.2,9.258,15.1s-9.5,5.6-11.594,3.334C177.822,1872.961,179.508,1858.1,182.685,1857.271Z" transform="translate(-170.202 -1830.919)" fill="#a5b63d" stroke="#231815" stroke-miterlimit="10" stroke-width="0.25"/>
      <path id="Path_12415" data-name="Path 12415" d="M177.139,1868.231c2.958-.774,9.843,11.2,9.254,15.1s-7.986,6.485-10.651,2.762C173.572,1883.059,173.962,1869.061,177.139,1868.231Z" transform="translate(-171.445 -1828.048)" fill="#a5b63d" stroke="#231815" stroke-miterlimit="10" stroke-width="0.25"/>
      <path id="Path_12416" data-name="Path 12416" d="M191.18,1861.528c3.356-1.15,9.987,10.411,9.523,14.4s-8.681,6.431-11.208,4.413C186.445,1877.9,187.577,1862.762,191.18,1861.528Z" transform="translate(-167.947 -1829.816)" fill="#a5b63d" stroke="#231815" stroke-miterlimit="10" stroke-width="0.25"/>
      <path id="Path_12417" data-name="Path 12417" d="M184.837,1867.429c3.6-.833,10.693,11.866,10.291,16.317s-8.96,7.01-11.652,4.7C180.227,1885.651,178.778,1868.83,184.837,1867.429Z" transform="translate(-169.799 -1828.259)" fill="#a5b63d" stroke="#231815" stroke-miterlimit="10" stroke-width="0.25"/>
    </g>
    <path id="Path_12418" data-name="Path 12418" d="M135.555,2000.2s28.935,5.156,47.314,28.381" transform="translate(5.569 44.573)" fill="none" stroke="#252f33" stroke-miterlimit="10" stroke-width="0.25"/>
    <path id="Path_12419" data-name="Path 12419" d="M134.647,2003.96s12.654,4.493,21.071,2.192" transform="translate(5.331 45.559)" fill="none" stroke="#252f33" stroke-miterlimit="10" stroke-width="0.25"/>
    <path id="Path_12420" data-name="Path 12420" d="M141.483,1995.219s9.065,4.822,12.444,13.223" transform="translate(7.122 43.269)" fill="none" stroke="#252f33" stroke-miterlimit="10" stroke-width="0.25"/>
    <path id="Path_12421" data-name="Path 12421" d="M164.071,2001.1s7.317,5.028,4.13,19.453" transform="translate(13.04 44.811)" fill="none" stroke="#252f33" stroke-miterlimit="10" stroke-width="0.25"/>
    <path id="Path_12422" data-name="Path 12422" d="M148.753,2022.731s10.8,3.976,23.461-6.211" transform="translate(9.027 48.849)" fill="none" stroke="#252f33" stroke-miterlimit="10" stroke-width="0.25"/>
    <path id="Path_12423" data-name="Path 12423" d="M166.321,1991.844s11.189,15.236,1.291,31.139" transform="translate(13.629 42.385)" fill="none" stroke="#252f33" stroke-miterlimit="10" stroke-width="0.25"/>
    <path id="Path_12424" data-name="Path 12424" d="M144.685,2032.56s16.165,5.68,28.6-16.041" transform="translate(7.961 48.849)" fill="none" stroke="#252f33" stroke-miterlimit="10" stroke-width="0.25"/>
    <path id="Path_12425" data-name="Path 12425" d="M360.126,1925.916s-43.726,21.393-53.112,67.81" transform="translate(50.488 25.113)" fill="none" stroke="#252f33" stroke-miterlimit="10" stroke-width="0.25"/>
    <path id="Path_12426" data-name="Path 12426" d="M345,1921.658s-8.246,6.811-8.382,15.692" transform="translate(58.243 23.998)" fill="none" stroke="#252f33" stroke-miterlimit="10" stroke-width="0.25"/>
    <path id="Path_12427" data-name="Path 12427" d="M356.138,1930.824a27.47,27.47,0,0,1-19.522,4.124" transform="translate(58.243 26.399)" fill="none" stroke="#252f33" stroke-miterlimit="10" stroke-width="0.25"/>
    <path id="Path_12428" data-name="Path 12428" d="M335.984,1913.609s-10.805,12.652-5.293,32.593" transform="translate(56.28 21.889)" fill="none" stroke="#252f33" stroke-miterlimit="10" stroke-width="0.25"/>
    <path id="Path_12429" data-name="Path 12429" d="M326.508,1914.3s-6.147,17.748,5.3,31.72" transform="translate(55.163 22.07)" fill="none" stroke="#252f33" stroke-miterlimit="10" stroke-width="0.25"/>
    <path id="Path_12430" data-name="Path 12430" d="M363.946,1943.649s-19.727,5.717-33.58-4.213" transform="translate(56.605 28.655)" fill="none" stroke="#252f33" stroke-miterlimit="10" stroke-width="0.25"/>
    <path id="Path_12431" data-name="Path 12431" d="M354.008,1957.955s-18.132-2.046-23.642-18.519" transform="translate(56.605 28.655)" fill="none" stroke="#252f33" stroke-miterlimit="10" stroke-width="0.25"/>
    <path id="Path_12432" data-name="Path 12432" d="M318.569,1933.081s-7.23,16.57-2.851,31.275" transform="translate(52.399 26.99)" fill="none" stroke="#252f33" stroke-miterlimit="10" stroke-width="0.25"/>
    <path id="Path_12433" data-name="Path 12433" d="M307.911,1937.818s-1.05,19.257,9.491,25.3" transform="translate(50.715 28.231)" fill="none" stroke="#252f33" stroke-miterlimit="10" stroke-width="0.25"/>
    <path id="Path_12434" data-name="Path 12434" d="M340.994,1957.14s-15.792,8.7-25.568.912" transform="translate(52.691 33.293)" fill="none" stroke="#252f33" stroke-miterlimit="10" stroke-width="0.25"/>
    <path id="Path_12435" data-name="Path 12435" d="M351.929,1966.431s-27.687,5.96-36.5-8.568" transform="translate(52.691 33.482)" fill="none" stroke="#252f33" stroke-miterlimit="10" stroke-width="0.25"/>
    <path id="Path_12436" data-name="Path 12436" d="M336.733,1974.862s-20.02.087-21.307-17" transform="translate(52.691 33.482)" fill="none" stroke="#252f33" stroke-miterlimit="10" stroke-width="0.25"/>
    <path id="Path_12437" data-name="Path 12437" d="M380.459,1994.639s-45.319-7.991-66.018,13.868" transform="translate(52.433 42.744)" fill="none" stroke="#252f33" stroke-miterlimit="10" stroke-width="0.25"/>
    <path id="Path_12438" data-name="Path 12438" d="M370.427,1989.287s-11.686-1.677-17.693,5" transform="translate(62.465 41.666)" fill="none" stroke="#252f33" stroke-miterlimit="10" stroke-width="0.25"/>
    <path id="Path_12439" data-name="Path 12439" d="M369.007,1999.534a19.673,19.673,0,0,1-16.273-6.321" transform="translate(62.465 42.743)" fill="none" stroke="#252f33" stroke-miterlimit="10" stroke-width="0.25"/>
    <path id="Path_12440" data-name="Path 12440" d="M359.317,1969.948s-20.094,10.006-21.7,30.786" transform="translate(58.504 36.649)" fill="none" stroke="#252f33" stroke-miterlimit="10" stroke-width="0.25"/>
    <path id="Path_12441" data-name="Path 12441" d="M358.117,2026.684s-16.142-9.108-20.5-32.341" transform="translate(58.504 43.039)" fill="none" stroke="#252f33" stroke-miterlimit="10" stroke-width="0.25"/>
    <path id="Path_12442" data-name="Path 12442" d="M372.969,2014.226s-27.361-.175-35.357-19.882" transform="translate(58.504 43.039)" fill="none" stroke="#252f33" stroke-miterlimit="10" stroke-width="0.25"/>
    <path id="Path_12443" data-name="Path 12443" d="M356.15,1981.286s-14.77,4.149-18.538,16.478" transform="translate(58.504 39.619)" fill="none" stroke="#252f33" stroke-miterlimit="10" stroke-width="0.25"/>
    <path id="Path_12444" data-name="Path 12444" d="M332.362,1974.622s-21.5,17.89-14.137,34.829" transform="translate(53.022 37.873)" fill="none" stroke="#252f33" stroke-miterlimit="10" stroke-width="0.25"/>
    <path id="Path_12445" data-name="Path 12445" d="M345.8,2021.917s-25.24-3.377-27.9-19.7" transform="translate(53.341 45.103)" fill="none" stroke="#252f33" stroke-miterlimit="10" stroke-width="0.25"/>
    <path id="Path_12446" data-name="Path 12446" d="M330.8,1984.489s-15.858,11.907-12.81,22.377" transform="translate(53.26 40.458)" fill="none" stroke="#252f33" stroke-miterlimit="10" stroke-width="0.25"/>
    <path id="Path_12447" data-name="Path 12447" d="M341.654,2009.876s-16.124,3.136-23.748-7.655" transform="translate(53.341 45.103)" fill="none" stroke="#252f33" stroke-miterlimit="10" stroke-width="0.25"/>
    <path id="Path_12448" data-name="Path 12448" d="M158.186,2129.966a9.809,9.809,0,0,0,10.048,3.386c6.772-1.365,8.285-1.767,13.106.874" transform="translate(11.498 78.57)" fill="none" stroke="#252f33" stroke-miterlimit="10" stroke-width="0.25"/>
    <path id="Path_12449" data-name="Path 12449" d="M140.618,2137.842a11.518,11.518,0,0,0,12.014,2.4c6.989-2.731,9.72-1.093,14.089,1.528s10.539,2.621,15.727-1.966" transform="translate(6.896 80.633)" fill="none" stroke="#252f33" stroke-miterlimit="10" stroke-width="0.25"/>
    <path id="Path_12450" data-name="Path 12450" d="M233.112,2140.1a9.657,9.657,0,0,0-6.99,7.742" transform="translate(29.296 81.225)" fill="none" stroke="#252f33" stroke-miterlimit="10" stroke-width="0.25"/>
    <ellipse id="Ellipse_2032" data-name="Ellipse 2032" cx="12.919" cy="10.539" rx="12.919" ry="10.539" transform="translate(242.499 2229.068)" fill="#e86a58" stroke="#000" stroke-linejoin="round" stroke-width="0.25"/>
    <path id="Path_12451" data-name="Path 12451" d="M219.934,2152.949s.052-3.942,6.989-6.695" transform="translate(27.675 82.837)" fill="none" stroke="#252f33" stroke-miterlimit="10" stroke-width="0.25"/>
    <path id="Path_12452" data-name="Path 12452" d="M233.1,2152.946a8.232,8.232,0,0,0-6.114-6.678" transform="translate(29.523 82.84)" fill="none" stroke="#252f33" stroke-miterlimit="10" stroke-width="0.25"/>
    <path id="Path_12453" data-name="Path 12453" d="M223.742,2152.516a7.994,7.994,0,0,1,3-6.28" transform="translate(28.672 82.832)" fill="none" stroke="#252f33" stroke-miterlimit="10" stroke-width="0.25"/>
    <path id="Path_12454" data-name="Path 12454" d="M228.935,2152.516a7.444,7.444,0,0,0-2.813-6.28" transform="translate(29.296 82.832)" fill="none" stroke="#252f33" stroke-miterlimit="10" stroke-width="0.25"/>
    <path id="Path_12455" data-name="Path 12455" d="M245.508,2168.855c.328,0,4.369,5.68,12.559,1.529s13.215-1.334,16.82,1.517a8.783,8.783,0,0,0,12.669-1.807" transform="translate(34.374 88.609)" fill="none" stroke="#252f33" stroke-miterlimit="10" stroke-width="0.25"/>
    <path id="Path_12456" data-name="Path 12456" d="M233.046,2177.132s4.7,5.679,12.341,1.966,11.686-1.311,15.727,2.075,10.922,1.638,13.215-2.02" transform="translate(31.11 90.926)" fill="none" stroke="#252f33" stroke-miterlimit="10" stroke-width="0.25"/>
    <path id="Path_12457" data-name="Path 12457" d="M350.225,2043.017s6.526-4.669,12.587-.819,10.649,1.426,13.352-.352,8.518-2.843,12.287,1.416" transform="translate(61.808 55.076)" fill="none" stroke="#252f33" stroke-miterlimit="10" stroke-width="0.25"/>
    <path id="Path_12458" data-name="Path 12458" d="M368.961,2033.621s6.717,3.931,11.468.491a9.721,9.721,0,0,1,13.434,1.412" transform="translate(66.716 52.922)" fill="none" stroke="#252f33" stroke-miterlimit="10" stroke-width="0.25"/>
    <path id="Path_12459" data-name="Path 12459" d="M411.67,2063.478s4.7-3.494,10.921,0,10.158,1.311,12.56,0a8.124,8.124,0,0,1,10.156,1.888" transform="translate(77.905 60.744)" fill="none" stroke="#252f33" stroke-miterlimit="10" stroke-width="0.25"/>
    <path id="Path_12460" data-name="Path 12460" d="M405.439,2162.6s6.662-4.806,12.559,0,14.417-1.068,14.417-1.068" transform="translate(76.273 86.56)" fill="none" stroke="#252f33" stroke-miterlimit="10" stroke-width="0.25"/>
    <path id="Path_12461" data-name="Path 12461" d="M387.7,2170.669s6.662,3.385,13.434.546,11.468-1.225,15.29,1.135,10.921,2.033,13.432-.479" transform="translate(71.625 88.98)" fill="none" stroke="#252f33" stroke-miterlimit="10" stroke-width="0.25"/>
    <g id="Group_3626" data-name="Group 3626" transform="translate(249.302 1922.763)">
      <path id="Path_12462" data-name="Path 12462" d="M252.526,2141.376s-22.95,6.643-31.25-5.453c0,0,10.045-69.323,24.885-126.99s45.449-103.973,50.692-100.477,4.8,37.775-7.427,70.874S256.254,2084.221,252.526,2141.376Z" transform="translate(-221.276 -1902.273)" fill="#cad226" stroke="#231815" stroke-miterlimit="10" stroke-width="0.25"/>
      <path id="Path_12463" data-name="Path 12463" d="M286.608,1903.576c3.4,1.034,2.337,18.351-.774,22.193s-12.943.058-13.513-3.724C271.633,1917.481,282.958,1902.467,286.608,1903.576Z" transform="translate(-207.911 -1903.518)" fill="#a5b63d" stroke="#231815" stroke-miterlimit="10" stroke-width="0.25"/>
      <path id="Path_12464" data-name="Path 12464" d="M280.959,1913.112c3.763,1.586,1.468,19.621-2.282,23.2s-14.587-1.844-14.988-5.9C263.2,1925.514,276.918,1911.409,280.959,1913.112Z" transform="translate(-210.168 -1901.042)" fill="#a5b63d" stroke="#231815" stroke-miterlimit="10" stroke-width="0.25"/>
      <path id="Path_12465" data-name="Path 12465" d="M283.569,1916.368c3.106.053,4.354,16.4,2.571,20.885s-9.255,3.921-10.575.495C273.971,1933.612,280.233,1916.31,283.569,1916.368Z" transform="translate(-207.121 -1900.152)" fill="#a5b63d" stroke="#231815" stroke-miterlimit="10" stroke-width="0.25"/>
      <path id="Path_12466" data-name="Path 12466" d="M251.935,2045.6c2.784.469,3.786,13.962,1.745,17.232s-10.177,1.3-11.026-1.572C241.63,2057.794,248.946,2045.091,251.935,2045.6Z" transform="translate(-215.701 -1866.301)" fill="#a5b63d" stroke="#231815" stroke-miterlimit="10" stroke-width="0.25"/>
      <path id="Path_12467" data-name="Path 12467" d="M240.547,2012.009c-3.154-.93-8.734,9.486-8.116,13.006s8.323,5.47,10.563,3.615C245.7,2026.391,243.934,2013.007,240.547,2012.009Z" transform="translate(-218.366 -1875.111)" fill="#a5b63d" stroke="#231815" stroke-miterlimit="10" stroke-width="0.25"/>
      <path id="Path_12468" data-name="Path 12468" d="M280.173,1925.309c3.4,1.033,2.338,18.351-.772,22.193s-12.944.058-13.513-3.724C265.2,1939.214,276.524,1924.2,280.173,1925.309Z" transform="translate(-209.597 -1897.824)" fill="#a5b63d" stroke="#231815" stroke-miterlimit="10" stroke-width="0.25"/>
      <path id="Path_12469" data-name="Path 12469" d="M283.094,1930.827c3.1.2,3.717,15.988,1.764,20.22s-9.394,3.334-10.58-.027C272.847,1946.965,279.766,1930.614,283.094,1930.827Z" transform="translate(-207.441 -1896.364)" fill="#a5b63d" stroke="#231815" stroke-miterlimit="10" stroke-width="0.25"/>
    </g>
    <g id="Group_3627" data-name="Group 3627" transform="translate(306.227 1882.024)">
      <path id="Path_12470" data-name="Path 12470" d="M330.842,1874.2c3.9.964,5.8,23.154-17.351,97.858s-11.128,143.79-11.128,143.79-9.909,15.233-30.626,8.9c0,0-12.047-69.246,0-120.359S320.233,1871.576,330.842,1874.2Z" transform="translate(-266.383 -1870.475)" fill="#ddd658" stroke="#000" stroke-linejoin="round" stroke-width="0.25"/>
      <path id="Path_12471" data-name="Path 12471" d="M320.717,1871.27c3.14.788,2.7,17.213-.032,21.018s-11.836.776-12.472-2.767C307.445,1885.245,317.345,1870.425,320.717,1871.27Z" transform="translate(-255.436 -1871.235)" fill="#a5b63d" stroke="#231815" stroke-miterlimit="10" stroke-width="0.25"/>
      <path id="Path_12472" data-name="Path 12472" d="M316.677,1874.875c3.349,1.767-.058,18.021-3.766,20.964s-11.006.334-10.963-4.427C302,1885.491,313.079,1872.978,316.677,1874.875Z" transform="translate(-257.066 -1870.333)" fill="#a5b63d" stroke="#231815" stroke-miterlimit="10" stroke-width="0.25"/>
      <path id="Path_12473" data-name="Path 12473" d="M320.789,1880.317c2.927.321,3.193,13.987,1.261,17.549s-8.95,2.432-10-.528C310.772,1893.769,317.645,1879.976,320.789,1880.317Z" transform="translate(-254.462 -1868.858)" fill="#a5b63d" stroke="#231815" stroke-miterlimit="10" stroke-width="0.25"/>
      <path id="Path_12474" data-name="Path 12474" d="M302.295,1925.839c2.438.417,3.358,12.048,1.583,14.86s-8.907,1.077-9.659-1.4C293.31,1936.311,299.676,1925.392,302.295,1925.839Z" transform="translate(-259.114 -1856.934)" fill="#a5b63d" stroke="#231815" stroke-miterlimit="10" stroke-width="0.25"/>
      <path id="Path_12475" data-name="Path 12475" d="M283.465,1972.379c2.446.39,2.956,13.7,1.063,16.994s-9.022,1.556-9.693-1.258C274.026,1984.718,280.841,1971.96,283.465,1972.379Z" transform="translate(-264.187 -1844.741)" fill="#a5b63d" stroke="#231815" stroke-miterlimit="10" stroke-width="0.25"/>
      <path id="Path_12476" data-name="Path 12476" d="M284.312,2031.8c3.376.078,7.018,15.031,5.2,19.025s-11.791,3.093-13.318.015C274.356,2047.125,280.689,2031.714,284.312,2031.8Z" transform="translate(-263.898 -1829.172)" fill="#a5b63d" stroke="#231815" stroke-miterlimit="10" stroke-width="0.25"/>
      <path id="Path_12477" data-name="Path 12477" d="M306.843,1888.455c3.563,1.285,2.439,17.854-.825,21.283s-10.853,1.855-11.47-2.866C293.781,1901,303.018,1887.073,306.843,1888.455Z" transform="translate(-259.017 -1866.75)" fill="#a5b63d" stroke="#231815" stroke-miterlimit="10" stroke-width="0.25"/>
      <path id="Path_12478" data-name="Path 12478" d="M306.31,1947.217c3.115.511,2.361,15.935.019,19.852s-9.78,2.283-10.685-1.108C294.551,1961.87,302.967,1946.67,306.31,1947.217Z" transform="translate(-258.743 -1851.334)" fill="#a5b63d" stroke="#231815" stroke-miterlimit="10" stroke-width="0.25"/>
      <path id="Path_12479" data-name="Path 12479" d="M296.216,1986.194c3.113.51,2.361,15.934.019,19.851s-9.782,2.284-10.686-1.107C284.455,2000.847,292.871,1985.646,296.216,1986.194Z" transform="translate(-261.388 -1841.123)" fill="#a5b63d" stroke="#231815" stroke-miterlimit="10" stroke-width="0.25"/>
      <path id="Path_12480" data-name="Path 12480" d="M320.285,1890.071c3.316.578,3.011,14.991.654,18.583s-10.293,1.825-11.36-1.378C308.29,1903.412,316.724,1889.452,320.285,1890.071Z" transform="translate(-255.102 -1866.306)" fill="#a5b63d" stroke="#231815" stroke-miterlimit="10" stroke-width="0.25"/>
      <path id="Path_12481" data-name="Path 12481" d="M315.645,1883.264c3.522.894,3.241,18.7.237,22.789s-13.233.688-13.99-3.161C300.977,1898.245,311.862,1882.3,315.645,1883.264Z" transform="translate(-257.095 -1868.095)" fill="#a5b63d" stroke="#231815" stroke-miterlimit="10" stroke-width="0.25"/>
      <path id="Path_12482" data-name="Path 12482" d="M311.295,1894.733c3.335.569,4.594,16.481,2.164,20.327s-12.183,1.473-13.213-1.915C299,1909.057,307.713,1894.121,311.295,1894.733Z" transform="translate(-257.544 -1865.084)" fill="#a5b63d" stroke="#231815" stroke-miterlimit="10" stroke-width="0.25"/>
      <path id="Path_12483" data-name="Path 12483" d="M302.775,1901.85c3.308,1.2,2.487,16.092-.483,19.133s-10,1.526-10.635-2.729C290.872,1912.963,299.222,1900.558,302.775,1901.85Z" transform="translate(-259.776 -1863.24)" fill="#a5b63d" stroke="#231815" stroke-miterlimit="10" stroke-width="0.25"/>
      <path id="Path_12484" data-name="Path 12484" d="M317.335,1899.591c3.676.65,3.486,16.029.914,19.838s-11.374,1.843-12.588-1.586C304.194,1913.7,313.388,1898.893,317.335,1899.591Z" transform="translate(-256.135 -1863.813)" fill="#a5b63d" stroke="#231815" stroke-miterlimit="10" stroke-width="0.25"/>
    </g>
    <ellipse id="Ellipse_2033" data-name="Ellipse 2033" cx="4.23" cy="2.656" rx="4.23" ry="2.656" transform="translate(142.053 2107.333)" fill="#c19165" stroke="#000" stroke-linejoin="round" stroke-width="0.25"/>
    <ellipse id="Ellipse_2034" data-name="Ellipse 2034" cx="7.7" cy="3.877" rx="7.7" ry="3.877" transform="translate(118.79 2143.007)" fill="#c19165" stroke="#000" stroke-linejoin="round" stroke-width="0.25"/>
    <ellipse id="Ellipse_2035" data-name="Ellipse 2035" cx="3.986" cy="2.702" rx="3.986" ry="2.702" transform="translate(173.616 2194.832)" fill="#ecb36f" stroke="#000" stroke-linejoin="round" stroke-width="0.25"/>
    <ellipse id="Ellipse_2036" data-name="Ellipse 2036" cx="8.027" cy="5.297" rx="8.027" ry="5.297" transform="translate(186.503 2205.259)" fill="#ecb36f" stroke="#000" stroke-linejoin="round" stroke-width="0.25"/>
    <ellipse id="Ellipse_2037" data-name="Ellipse 2037" cx="4.15" cy="2.457" rx="4.15" ry="2.457" transform="translate(295.063 2241.082)" fill="#c19165" stroke="#000" stroke-linejoin="round" stroke-width="0.25"/>
    <ellipse id="Ellipse_2038" data-name="Ellipse 2038" cx="5.245" cy="3.386" rx="5.245" ry="3.386" transform="translate(309.261 2247.853)" fill="#c19165" stroke="#000" stroke-linejoin="round" stroke-width="0.25"/>
    <ellipse id="Ellipse_2039" data-name="Ellipse 2039" cx="2.049" cy="1.256" rx="2.049" ry="1.256" transform="translate(322.379 2244.577)" fill="#ecb36f" stroke="#000" stroke-linejoin="round" stroke-width="0.25"/>
    <ellipse id="Ellipse_2040" data-name="Ellipse 2040" cx="4.505" cy="2.538" rx="4.505" ry="2.538" transform="translate(399.145 2091.722)" fill="#ecb36f" stroke="#000" stroke-linejoin="round" stroke-width="0.25"/>
    <ellipse id="Ellipse_2041" data-name="Ellipse 2041" cx="3.195" cy="2.219" rx="3.195" ry="2.219" transform="translate(413.07 2101.748)" fill="#c19165" stroke="#000" stroke-linejoin="round" stroke-width="0.25"/>
    <ellipse id="Ellipse_2042" data-name="Ellipse 2042" cx="3.386" cy="2.116" rx="3.386" ry="2.116" transform="translate(515.241 2114.829)" fill="#c19165" stroke="#000" stroke-linejoin="round" stroke-width="0.25"/>
    <ellipse id="Ellipse_2043" data-name="Ellipse 2043" cx="4.369" cy="2.397" rx="4.369" ry="2.397" transform="translate(528.128 2117.875)" fill="#ecb36f" stroke="#000" stroke-linejoin="round" stroke-width="0.25"/>
    <ellipse id="Ellipse_2044" data-name="Ellipse 2044" cx="5.297" cy="3.167" rx="5.297" ry="3.167" transform="translate(480.401 2234.201)" fill="#c19165" stroke="#000" stroke-linejoin="round" stroke-width="0.25"/>
    <ellipse id="Ellipse_2045" data-name="Ellipse 2045" cx="3.222" cy="2.02" rx="3.222" ry="2.02" transform="translate(498.858 2240.536)" fill="#ecb36f" stroke="#000" stroke-linejoin="round" stroke-width="0.25"/>
    <ellipse id="Ellipse_2046" data-name="Ellipse 2046" cx="3.713" cy="1.911" rx="3.713" ry="1.911" transform="translate(471.118 2239.225)" fill="#ecb36f" stroke="#000" stroke-linejoin="round" stroke-width="0.25"/>
    <g id="Group_3628" data-name="Group 3628" transform="translate(281.173 1849.306)">
      <path id="Path_12485" data-name="Path 12485" d="M302.113,2137.2s-21.874-58.093-22.805-110.751.931-85.839,7.921-123.537-5.573-52.146-8.145-52.612-27.271,44.736-27.737,103.919,2.7,127.59,16.776,194.062C268.122,2148.284,291.947,2158.224,302.113,2137.2Z" transform="translate(-245.28 -1844.003)" fill="#ddd658" stroke="#000" stroke-linejoin="round" stroke-width="0.25"/>
      <path id="Path_12486" data-name="Path 12486" d="M276.853,1845.31c3.786.116,7.773,16.757,5.71,21.176s-13.248,3.33-14.941-.1C265.581,1862.245,272.788,1845.185,276.853,1845.31Z" transform="translate(-241.098 -1845.31)" fill="#a5b63d" stroke="#231815" stroke-miterlimit="10" stroke-width="0.25"/>
      <path id="Path_12487" data-name="Path 12487" d="M271.754,1851.435c3.674.558,5.661,17.048,3.149,21.06s-12.041,4.043-13.509-.469C259.565,1866.412,267.809,1850.837,271.754,1851.435Z" transform="translate(-242.705 -1843.71)" fill="#a5b63d" stroke="#231815" stroke-miterlimit="10" stroke-width="0.25"/>
      <path id="Path_12488" data-name="Path 12488" d="M282.176,1854.433c3.508.192,4.774,16.1,2.721,20.37s-10.491,3.383-11.952,0C271.183,1870.72,278.409,1854.226,282.176,1854.433Z" transform="translate(-239.682 -1842.92)" fill="#a5b63d" stroke="#231815" stroke-miterlimit="10" stroke-width="0.25"/>
      <path id="Path_12489" data-name="Path 12489" d="M275.093,1859.3c3.786.117,7.773,16.756,5.71,21.176s-13.248,3.332-14.941-.1C263.821,1876.238,271.028,1859.177,275.093,1859.3Z" transform="translate(-241.559 -1841.644)" fill="#a5b63d" stroke="#231815" stroke-miterlimit="10" stroke-width="0.25"/>
      <path id="Path_12490" data-name="Path 12490" d="M253.8,2000.184c2.641-.684,8.513,8.122,7.911,11.08s-8.546,4.553-10.36,2.91C249.162,2012.19,250.961,2000.92,253.8,2000.184Z" transform="translate(-245.523 -1804.746)" fill="#a5b63d" stroke="#231815" stroke-miterlimit="10" stroke-width="0.25"/>
      <path id="Path_12491" data-name="Path 12491" d="M268.95,1865.673c3.71.577,5.92,16.329,3.439,20.123s-12.087,3.705-13.626-.617C256.851,1879.8,264.966,1865.052,268.95,1865.673Z" transform="translate(-243.401 -1839.98)" fill="#a5b63d" stroke="#231815" stroke-miterlimit="10" stroke-width="0.25"/>
      <path id="Path_12492" data-name="Path 12492" d="M261.467,1887.459c3.71.578,5.92,16.329,3.438,20.125s-10.154,3.658-11.692-.664C251.3,1901.544,257.483,1886.84,261.467,1887.459Z" transform="translate(-244.874 -1834.272)" fill="#a5b63d" stroke="#231815" stroke-miterlimit="10" stroke-width="0.25"/>
      <path id="Path_12493" data-name="Path 12493" d="M251.227,1941.614c2.529-.276,6.712,11.253,5.746,14.611s-8.51,3.642-9.951,1.348C245.283,1954.8,248.51,1941.911,251.227,1941.614Z" transform="translate(-246.531 -1820.081)" fill="#a5b63d" stroke="#231815" stroke-miterlimit="10" stroke-width="0.25"/>
      <path id="Path_12494" data-name="Path 12494" d="M276.532,1885.337c3.294-.353,6.81,16.132,5.525,20.933s-9.268,5.209-11.126,1.893C268.691,1904.161,272.995,1885.717,276.532,1885.337Z" transform="translate(-240.3 -1834.825)" fill="#a5b63d" stroke="#231815" stroke-miterlimit="10" stroke-width="0.25"/>
      <path id="Path_12495" data-name="Path 12495" d="M279.2,1865.766c3.074-.3,6.3,13.179,5.087,17.112s-8.663,4.293-10.385,1.585C271.825,1881.195,275.9,1866.088,279.2,1865.766Z" transform="translate(-239.508 -1839.952)" fill="#a5b63d" stroke="#231815" stroke-miterlimit="10" stroke-width="0.25"/>
      <path id="Path_12496" data-name="Path 12496" d="M268.69,1970.531c3.482-.721,8.9,15.451,8.014,20.417s-9.373,6.262-11.69,3.136C262.216,1990.312,264.952,1971.3,268.69,1970.531Z" transform="translate(-241.989 -1812.511)" fill="#a5b63d" stroke="#231815" stroke-miterlimit="10" stroke-width="0.25"/>
      <path id="Path_12497" data-name="Path 12497" d="M269.054,2028.175c3.12-.579,7.415,9.7,6.466,12.937s-8.536,4.35-10.5,2.4C262.658,2041.168,265.7,2028.8,269.054,2028.175Z" transform="translate(-241.906 -1797.41)" fill="#a5b63d" stroke="#231815" stroke-miterlimit="10" stroke-width="0.25"/>
    </g>
    <ellipse id="Ellipse_2047" data-name="Ellipse 2047" cx="5.543" cy="3.137" rx="5.543" ry="3.137" transform="translate(495.937 2174.246)" fill="#dffffa" stroke="#231815" stroke-miterlimit="10" stroke-width="0.25"/>
    <ellipse id="Ellipse_2048" data-name="Ellipse 2048" cx="2.048" cy="1.42" rx="2.048" ry="1.42" transform="translate(513.574 2181.817)" fill="#dffffa" stroke="#231815" stroke-miterlimit="10" stroke-width="0.25"/>
    <ellipse id="Ellipse_2049" data-name="Ellipse 2049" cx="1.265" cy="3.364" rx="1.265" ry="3.364" transform="matrix(0.837, -0.548, 0.548, 0.837, 194.935, 1853.479)" fill="#dffffa" stroke="#231815" stroke-miterlimit="10" stroke-width="0.25"/>
    <ellipse id="Ellipse_2050" data-name="Ellipse 2050" cx="0.998" cy="2.621" rx="0.998" ry="2.621" transform="translate(189.122 1868.371)" fill="#dffffa" stroke="#231815" stroke-miterlimit="10" stroke-width="0.25"/>
    <circle id="Ellipse_2051" data-name="Ellipse 2051" cx="1.569" cy="1.569" r="1.569" transform="translate(234.429 1920.965)" fill="#dffffa" stroke="#231815" stroke-miterlimit="10" stroke-width="0.25"/>
    <ellipse id="Ellipse_2052" data-name="Ellipse 2052" cx="1.195" cy="1.623" rx="1.195" ry="1.623" transform="translate(231.95 1931.862)" fill="#dffffa" stroke="#231815" stroke-miterlimit="10" stroke-width="0.25"/>
    <ellipse id="Ellipse_2053" data-name="Ellipse 2053" cx="1.106" cy="2.034" rx="1.106" ry="2.034" transform="matrix(0.999, -0.036, 0.036, 0.999, 322.976, 1864.179)" fill="#dffffa" stroke="#231815" stroke-miterlimit="10" stroke-width="0.25"/>
    <ellipse id="Ellipse_2054" data-name="Ellipse 2054" cx="1.72" cy="0.89" rx="1.72" ry="0.89" transform="matrix(0.586, -0.81, 0.81, 0.586, 358.841, 1891.631)" fill="#dffffa" stroke="#231815" stroke-miterlimit="10" stroke-width="0.25"/>
    <ellipse id="Ellipse_2055" data-name="Ellipse 2055" cx="1.065" cy="0.737" rx="1.065" ry="0.737" transform="translate(363.49 1890.189) rotate(-49.496)" fill="#dffffa" stroke="#231815" stroke-miterlimit="10" stroke-width="0.25"/>
    <g id="Group_3629" data-name="Group 3629" transform="translate(114.296 2081.78)">
      <path id="Path_12498" data-name="Path 12498" d="M117.179,2029.524a6.382,6.382,0,0,1,4.888,4.861" transform="translate(-113.541 -2029.524)" fill="none" stroke="#252f33" stroke-miterlimit="10" stroke-width="0.25"/>
      <ellipse id="Ellipse_2056" data-name="Ellipse 2056" cx="8.538" cy="6.965" rx="8.538" ry="6.965" transform="translate(0 5.32) rotate(-3.077)" fill="#e86a58" stroke="#000" stroke-linejoin="round" stroke-width="0.25"/>
      <path id="Path_12499" data-name="Path 12499" d="M126.331,2037.535s-.174-2.6-4.849-4.17" transform="translate(-112.414 -2028.518)" fill="none" stroke="#252f33" stroke-miterlimit="10" stroke-width="0.25"/>
      <path id="Path_12500" data-name="Path 12500" d="M117.471,2038.051a5.442,5.442,0,0,1,3.8-4.624" transform="translate(-113.464 -2028.502)" fill="none" stroke="#252f33" stroke-miterlimit="10" stroke-width="0.25"/>
      <path id="Path_12501" data-name="Path 12501" d="M123.257,2037.415a5.287,5.287,0,0,0-2.2-4.038" transform="translate(-112.526 -2028.515)" fill="none" stroke="#252f33" stroke-miterlimit="10" stroke-width="0.25"/>
      <path id="Path_12502" data-name="Path 12502" d="M119.766,2037.62a4.917,4.917,0,0,1,1.633-4.244" transform="translate(-112.874 -2028.515)" fill="none" stroke="#252f33" stroke-miterlimit="10" stroke-width="0.25"/>
    </g>
    <g id="Group_3630" data-name="Group 3630" transform="translate(290.617 2139.318)">
      <path id="Path_12503" data-name="Path 12503" d="M498.817,2081.563s-44.033,10.705-83.838,10.068-119.132-16.434-132.515-15.9-25.246,2.77-25.839,5.645,25.619,22.986,69.765,30.652,125.228,12,179.828,4.087Z" transform="translate(-253.333 -2074.96)" fill="#ddd658" stroke="#000" stroke-linejoin="round" stroke-width="0.25"/>
      <path id="Path_12504" data-name="Path 12504" d="M387.837,2090.5c.659-3.3,12.033-5.559,14.573-3.434s.112,11.811-2.369,13.037C397.049,2101.58,387.129,2094.037,387.837,2090.5Z" transform="translate(-218.965 -2072.205)" fill="#a5b63d" stroke="#231815" stroke-miterlimit="10" stroke-width="0.25"/>
      <path id="Path_12505" data-name="Path 12505" d="M308.957,2086.241c.435-2.523,13.258-3.2,16.377-1.282s1.272,9.278-1.453,10C320.593,2095.83,308.489,2088.949,308.957,2086.241Z" transform="translate(-239.624 -2072.828)" fill="#a5b63d" stroke="#231815" stroke-miterlimit="10" stroke-width="0.25"/>
      <path id="Path_12506" data-name="Path 12506" d="M344.258,2095.113c.44-2.542,13.315-3.229,16.445-1.305s1.27,9.345-1.466,10.074C355.935,2104.761,343.785,2097.842,344.258,2095.113Z" transform="translate(-230.376 -2070.511)" fill="#a5b63d" stroke="#231815" stroke-miterlimit="10" stroke-width="0.25"/>
      <path id="Path_12507" data-name="Path 12507" d="M355.388,2108.223c.211-3.288,15.849-6.052,19.918-4.072s2.972,8.571-2.436,10.9C368.98,2116.73,355.16,2111.754,355.388,2108.223Z" transform="translate(-227.457 -2067.686)" fill="#a5b63d" stroke="#231815" stroke-miterlimit="10" stroke-width="0.25"/>
      <path id="Path_12508" data-name="Path 12508" d="M320.674,2104.744c.487-2.91,14.882-3.885,18.386-1.732s1.917,7.923-3.186,9.485C332.205,2113.621,320.151,2107.868,320.674,2104.744Z" transform="translate(-236.555 -2068.115)" fill="#a5b63d" stroke="#231815" stroke-miterlimit="10" stroke-width="0.25"/>
      <path id="Path_12509" data-name="Path 12509" d="M328.244,2083.432c-.594,2.612,13.852,8.565,18.267,8.011s4.956-5.952.294-9.082C343.452,2080.11,328.882,2080.628,328.244,2083.432Z" transform="translate(-234.572 -2073.589)" fill="#a5b63d" stroke="#231815" stroke-miterlimit="10" stroke-width="0.25"/>
      <path id="Path_12510" data-name="Path 12510" d="M254.039,2079.339c-.734,3.49,14.826,10.923,19.66,10.042s5.6-8.077.622-12.082C270.739,2074.42,254.828,2075.59,254.039,2079.339Z" transform="translate(-254.014 -2074.968)" fill="#a5b63d" stroke="#231815" stroke-miterlimit="10" stroke-width="0.25"/>
      <ellipse id="Ellipse_2057" data-name="Ellipse 2057" cx="7.933" cy="17.669" rx="7.933" ry="17.669" transform="translate(237.728 8.263) rotate(-12.087)" fill="#a5b63d" stroke="#231815" stroke-miterlimit="10" stroke-width="0.25"/>
      <path id="Path_12511" data-name="Path 12511" d="M257.341,2082.27c.593-3.312,16.223-4.508,19.973-2.078s1.323,12.115-2.013,13.125C271.277,2094.538,256.7,2085.828,257.341,2082.27Z" transform="translate(-253.148 -2074.125)" fill="#a5b63d" stroke="#231815" stroke-miterlimit="10" stroke-width="0.25"/>
      <path id="Path_12512" data-name="Path 12512" d="M262.787,2087.267c.573-2.9,16.416-2.928,20.24-.532s2.005,8.1-3.627,9.335C275.352,2096.958,262.17,2090.376,262.787,2087.267Z" transform="translate(-251.721 -2072.526)" fill="#a5b63d" stroke="#231815" stroke-miterlimit="10" stroke-width="0.25"/>
      <path id="Path_12513" data-name="Path 12513" d="M267.358,2078.248c-.655,3.06,13.7,9.676,18.142,8.93s5.107-7.056.5-10.6C282.689,2074.029,268.062,2074.963,267.358,2078.248Z" transform="translate(-250.524 -2075.118)" fill="#a5b63d" stroke="#231815" stroke-miterlimit="10" stroke-width="0.25"/>
      <path id="Path_12514" data-name="Path 12514" d="M268.334,2083.687c.593-3.314,16.224-4.508,19.973-2.08s1.323,12.115-2.013,13.127C282.27,2095.954,267.7,2087.244,268.334,2083.687Z" transform="translate(-250.268 -2073.754)" fill="#a5b63d" stroke="#231815" stroke-miterlimit="10" stroke-width="0.25"/>
      <path id="Path_12515" data-name="Path 12515" d="M271.76,2091.322c.78-3.622,16.9-4.739,20.621-2.032s1.489,9.886-4.324,11.8C283.88,2102.462,270.922,2095.212,271.76,2091.322Z" transform="translate(-249.375 -2071.798)" fill="#a5b63d" stroke="#231815" stroke-miterlimit="10" stroke-width="0.25"/>
      <path id="Path_12516" data-name="Path 12516" d="M277.514,2078.652c-.655,3.06,13.7,9.676,18.142,8.93s5.107-7.057.5-10.6C292.845,2074.432,278.218,2075.367,277.514,2078.652Z" transform="translate(-247.863 -2075.012)" fill="#a5b63d" stroke="#231815" stroke-miterlimit="10" stroke-width="0.25"/>
      <path id="Path_12517" data-name="Path 12517" d="M281.837,2085.241c.592-3.314,16.223-4.508,19.973-2.08s1.323,12.117-2.013,13.127C295.773,2097.509,281.2,2088.8,281.837,2085.241Z" transform="translate(-246.73 -2073.346)" fill="#a5b63d" stroke="#231815" stroke-miterlimit="10" stroke-width="0.25"/>
    </g>
    <g id="Group_3631" data-name="Group 3631" transform="translate(354.031 2084.447)">
      <path id="Path_12518" data-name="Path 12518" d="M493.62,2130.656a287.222,287.222,0,0,1-63.034-23.417c-32.113-16.651-90.226-61.643-101.327-66.631s-21.654-7.978-23.3-5.881,11.519,29.075,44.314,53.2,87.752,58.142,135.362,73.83Z" transform="translate(-303.856 -2031.006)" fill="#ddd658" stroke="#000" stroke-linejoin="round" stroke-width="0.25"/>
      <path id="Path_12519" data-name="Path 12519" d="M397.859,2091.155c1.873-2.414,12.039.356,13.244,3.113s-4.7,9.65-7.21,9.643C400.861,2103.9,395.849,2093.747,397.859,2091.155Z" transform="translate(-279.866 -2016.287)" fill="#a5b63d" stroke="#231815" stroke-miterlimit="10" stroke-width="0.25"/>
      <path id="Path_12520" data-name="Path 12520" d="M353.592,2071.441c1.377-1.875,12.078,2.775,13.839,5.594s-2.726,8.062-5.233,7.544C359.171,2083.956,352.114,2073.455,353.592,2071.441Z" transform="translate(-291.394 -2021.323)" fill="#a5b63d" stroke="#231815" stroke-miterlimit="10" stroke-width="0.25"/>
      <path id="Path_12521" data-name="Path 12521" d="M372.6,2096.268c1.5-2.588,15.342,1.5,17.848,4.759s-1.055,8.175-6.4,7.88C380.206,2108.694,370.984,2099.047,372.6,2096.268Z" transform="translate(-286.411 -2014.92)" fill="#a5b63d" stroke="#231815" stroke-miterlimit="10" stroke-width="0.25"/>
      <path id="Path_12522" data-name="Path 12522" d="M334.535,2069.482c1.575-2.168,13.677,2.874,15.654,6.044s-1.651,7.22-6.434,6.422C340.316,2081.375,332.843,2071.812,334.535,2069.482Z" transform="translate(-296.398 -2021.861)" fill="#a5b63d" stroke="#231815" stroke-miterlimit="10" stroke-width="0.25"/>
      <path id="Path_12523" data-name="Path 12523" d="M369.816,2071.8c-1.541,1.883,7.8,12.58,11.61,13.917s6.444-2.832,3.92-7.268C383.531,2075.26,371.472,2069.776,369.816,2071.8Z" transform="translate(-287.136 -2021.23)" fill="#a5b63d" stroke="#231815" stroke-miterlimit="10" stroke-width="0.25"/>
      <path id="Path_12524" data-name="Path 12524" d="M304.537,2032.37c-2.012,2.542,7.631,14.893,11.919,16.134s7.831-4.3,5.4-9.573C320.112,2035.138,306.7,2029.642,304.537,2032.37Z" transform="translate(-304.264 -2031.638)" fill="#a5b63d" stroke="#231815" stroke-miterlimit="10" stroke-width="0.25"/>
      <ellipse id="Ellipse_2058" data-name="Ellipse 2058" cx="16.055" cy="7.208" rx="16.055" ry="7.208" transform="translate(174.796 128.958) rotate(-75.6)" fill="#a5b63d" stroke="#231815" stroke-miterlimit="10" stroke-width="0.25"/>
      <path id="Path_12525" data-name="Path 12525" d="M306.015,2036.12c1.825-2.455,15.02,2.907,17.086,6.4s-3.834,10.388-6.956,9.86C312.377,2051.744,304.055,2038.754,306.015,2036.12Z" transform="translate(-303.882 -2030.626)" fill="#a5b63d" stroke="#231815" stroke-miterlimit="10" stroke-width="0.25"/>
      <path id="Path_12526" data-name="Path 12526" d="M308.317,2042.534c1.641-2.123,14.538,4.273,16.676,7.771s-1.651,7.4-6.731,6.121C314.608,2055.508,306.555,2044.813,308.317,2042.534Z" transform="translate(-303.268 -2028.894)" fill="#a5b63d" stroke="#231815" stroke-miterlimit="10" stroke-width="0.25"/>
      <path id="Path_12527" data-name="Path 12527" d="M315.758,2036.943c-1.773,2.222,7.221,13.42,11.136,14.613s7.013-3.668,4.7-8.417C329.936,2039.725,317.662,2034.557,315.758,2036.943Z" transform="translate(-301.313 -2030.407)" fill="#a5b63d" stroke="#231815" stroke-miterlimit="10" stroke-width="0.25"/>
      <path id="Path_12528" data-name="Path 12528" d="M314.382,2041.725c1.825-2.454,15.02,2.909,17.086,6.4s-3.834,10.389-6.956,9.86C320.744,2057.35,312.422,2044.36,314.382,2041.725Z" transform="translate(-301.691 -2029.157)" fill="#a5b63d" stroke="#231815" stroke-miterlimit="10" stroke-width="0.25"/>
      <path id="Path_12529" data-name="Path 12529" d="M313.5,2049.881c1.639-2.122,14.537,4.272,16.676,7.771s-1.651,7.4-6.733,6.121C319.794,2062.854,311.741,2052.16,313.5,2049.881Z" transform="translate(-301.909 -2026.969)" fill="#a5b63d" stroke="#231815" stroke-miterlimit="10" stroke-width="0.25"/>
      <path id="Path_12530" data-name="Path 12530" d="M324.843,2041.441c-1.773,2.222,7.221,13.421,11.136,14.614s7.013-3.668,4.7-8.417C339.021,2044.222,326.746,2039.054,324.843,2041.441Z" transform="translate(-298.933 -2029.229)" fill="#a5b63d" stroke="#231815" stroke-miterlimit="10" stroke-width="0.25"/>
      <path id="Path_12531" data-name="Path 12531" d="M323.4,2048.742c1.825-2.455,15.02,2.909,17.086,6.4s-3.834,10.389-6.956,9.86C329.763,2064.367,321.441,2051.378,323.4,2048.742Z" transform="translate(-299.328 -2027.319)" fill="#a5b63d" stroke="#231815" stroke-miterlimit="10" stroke-width="0.25"/>
    </g>
  </g>
</svg>
