<svg xmlns="http://www.w3.org/2000/svg" width="450.098" height="422.425" viewBox="0 0 450.098 422.425">
  <g id="Group_4768" data-name="Group 4768" transform="translate(-3194.197 -1318.818)">
    <g id="Group_4768-2" data-name="Group 4768" transform="translate(3233.216 1410.483)">
      <path id="Path_17466" data-name="Path 17466" d="M3225.168,1392.353c3.565-3.727,4.454-1,9.685-2.449s6.568-3.673,11.577-2.672,6.9,3.089,11.243,2.434,4.786.015,7.234,2.687,4.453,1.336,8.349,2.448,6.457,5.455,6.457,5.455l40.456,50.412s-66.358,62.061-70.733,62.34-5.788-1.215-6.568-3.776-5.995-2.672-6.17-6.679,2.275-3.172.716-8.821,3.563-5.761,5.009-9.99-1.446-8.238-3.673-12.579.891-7.347-.557-12.356-3.339-3.45-5.01-7.347,1.782-5.343.223-9.016-4.9-5.009-4.341-9.127.668-7.013-1.335-9.573-1.447-6.234-1.447-9.8-2.338-3.786-2.561-7.347,2.337-4.453.891-6.791S3222.719,1394.914,3225.168,1392.353Z" transform="translate(-3223.428 -1386.982)" fill="#cad226" stroke="#231815" stroke-miterlimit="10" stroke-width="0.25"/>
      <path id="Path_17467" data-name="Path 17467" d="M3292.911,1462.411S3266.6,1414.3,3224.731,1391" transform="translate(-3222.991 -1385.632)" fill="none" stroke="#000" stroke-linejoin="round" stroke-width="0.25"/>
      <path id="Path_17468" data-name="Path 17468" d="M3236.922,1387.295s2.974,4.256,2.362,17.572" transform="translate(-3218.898 -1386.877)" fill="none" stroke="#000" stroke-linejoin="round" stroke-width="0.25"/>
      <path id="Path_17469" data-name="Path 17469" d="M3223.847,1399.959s11.954,3.692,19.827.656" transform="translate(-3223.288 -1382.625)" fill="none" stroke="#000" stroke-linejoin="round" stroke-width="0.25"/>
      <path id="Path_17470" data-name="Path 17470" d="M3248.5,1389.069a43.254,43.254,0,0,1-.748,25.877" transform="translate(-3215.263 -1386.281)" fill="none" stroke="#000" stroke-linejoin="round" stroke-width="0.25"/>
      <path id="Path_17471" data-name="Path 17471" d="M3225.515,1410.972s19.1,4.007,29.7-2.531" transform="translate(-3222.729 -1379.777)" fill="none" stroke="#000" stroke-linejoin="round" stroke-width="0.25"/>
      <path id="Path_17472" data-name="Path 17472" d="M3256.393,1392.115a69.985,69.985,0,0,1-1.266,32.045" transform="translate(-3212.786 -1385.259)" fill="none" stroke="#000" stroke-linejoin="round" stroke-width="0.25"/>
      <path id="Path_17473" data-name="Path 17473" d="M3227.647,1423.539s22.374,3.828,36.706-7.434" transform="translate(-3222.012 -1377.204)" fill="none" stroke="#000" stroke-linejoin="round" stroke-width="0.25"/>
      <path id="Path_17474" data-name="Path 17474" d="M3231.165,1430.033s14.83,5.1,39.127-2.456" transform="translate(-3220.831 -1373.352)" fill="none" stroke="#000" stroke-linejoin="round" stroke-width="0.25"/>
      <path id="Path_17475" data-name="Path 17475" d="M3234.481,1443.247s17.982,5.088,45.725-9.923" transform="translate(-3219.718 -1371.422)" fill="none" stroke="#000" stroke-linejoin="round" stroke-width="0.25"/>
      <path id="Path_17476" data-name="Path 17476" d="M3234.9,1453.658s30.267-.692,50.309-14.539" transform="translate(-3219.578 -1369.476)" fill="none" stroke="#000" stroke-linejoin="round" stroke-width="0.25"/>
      <path id="Path_17477" data-name="Path 17477" d="M3237.923,1458.23s16.933,3.156,30.1-3.544" transform="translate(-3218.562 -1364.249)" fill="none" stroke="#000" stroke-linejoin="round" stroke-width="0.25"/>
      <path id="Path_17478" data-name="Path 17478" d="M3233.71,1465.089s9.507,4.3,23.023-.352" transform="translate(-3219.977 -1360.874)" fill="none" stroke="#000" stroke-linejoin="round" stroke-width="0.25"/>
      <path id="Path_17479" data-name="Path 17479" d="M3272.561,1445.309s16.127-9.391,16.127-24.626" transform="translate(-3206.931 -1375.667)" fill="none" stroke="#000" stroke-linejoin="round" stroke-width="0.25"/>
    </g>
    <g id="Group_4769" data-name="Group 4769" transform="translate(3276.606 1329.921)">
      <path id="Path_17480" data-name="Path 17480" d="M3281.223,1327.577c2.831-1.266,8.906.385,12.245,3.947s6.344,3.229,10.463,3.005,6.791,2.672,8.906,6.345,7.347,3.9,10.575,3.116,6.233,3.229,8.125,6.123,4.9.89,7.124,2.671.891,6.9,2.561,9.461,3.116.334,5.566,2.561.222,6.567,3.116,9.35,4.341.111,7.124,1.113,1.893,3.9,6.9,6.011l-8.83,83.685-56.313,10.269s-5.764,1-8.993-.895-4.564-1.782-7.68-1.114-6.9-.668-8.349-3.339a6.692,6.692,0,0,0-6.122-4.007c-3.005-.222-12.913-.779-13.469-6.011s-3.227-8.349,0-10.24.112-6.345,3.9-8.795,7.347-6.9,4.786-12.022,1.336-6.345.334-9.684-3.34-7.347-2.449-11.354-.223-7.013-1.113-10.129,1.224-4.452.668-7.792-3.339-8.906-3.339-12.8,5.343-9.906,6.233-13.579-2-8.015.223-10.909,5.454-4.007,6.122-8.015,2.895-5.343,5.566-7.013S3276.994,1329.469,3281.223,1327.577Z" transform="translate(-3252.608 -1327.154)" fill="#a5b63d" stroke="#231815" stroke-miterlimit="10" stroke-width="0.25"/>
      <path id="Path_17481" data-name="Path 17481" d="M3274.03,1327.471s48,55.9,67.7,136.371" transform="translate(-3245.414 -1327.048)" fill="none" stroke="#000" stroke-linejoin="round" stroke-width="0.25"/>
      <path id="Path_17482" data-name="Path 17482" d="M3266.673,1337.04s14.2,8.208,25.149,7.813" transform="translate(-3247.885 -1323.835)" fill="none" stroke="#000" stroke-linejoin="round" stroke-width="0.25"/>
      <path id="Path_17483" data-name="Path 17483" d="M3285.5,1332.163s2.367,8.783,0,14.328" transform="translate(-3241.563 -1325.472)" fill="none" stroke="#000" stroke-linejoin="round" stroke-width="0.25"/>
      <path id="Path_17484" data-name="Path 17484" d="M3260.3,1346.9s22.462,13.527,45.281,12.849" transform="translate(-3250.025 -1320.525)" fill="none" stroke="#000" stroke-linejoin="round" stroke-width="0.25"/>
      <path id="Path_17485" data-name="Path 17485" d="M3302.082,1339.457s-1.133,19.248-7.885,22.788" transform="translate(-3238.643 -1323.023)" fill="none" stroke="#000" stroke-linejoin="round" stroke-width="0.25"/>
      <path id="Path_17486" data-name="Path 17486" d="M3257.268,1360.549s32.473,18.456,59.212,12.151" transform="translate(-3251.042 -1315.941)" fill="none" stroke="#000" stroke-linejoin="round" stroke-width="0.25"/>
      <path id="Path_17487" data-name="Path 17487" d="M3313.735,1342.889s-1.019,29.239-12.14,35.741" transform="translate(-3236.159 -1321.871)" fill="none" stroke="#000" stroke-linejoin="round" stroke-width="0.25"/>
      <path id="Path_17488" data-name="Path 17488" d="M3323.185,1353.426s-.991,19.755-16.859,34.144" transform="translate(-3234.571 -1318.333)" fill="none" stroke="#000" stroke-linejoin="round" stroke-width="0.25"/>
      <path id="Path_17489" data-name="Path 17489" d="M3258.078,1376.882s37.628,18.113,64.449,2.812" transform="translate(-3250.771 -1310.457)" fill="none" stroke="#000" stroke-linejoin="round" stroke-width="0.25"/>
      <path id="Path_17490" data-name="Path 17490" d="M3330.8,1362.957s-5.555,30.711-18.163,40.157" transform="translate(-3232.451 -1315.133)" fill="none" stroke="#000" stroke-linejoin="round" stroke-width="0.25"/>
      <path id="Path_17491" data-name="Path 17491" d="M3258.553,1388.677s38.6,17.921,72.244,5.8" transform="translate(-3250.611 -1306.497)" fill="none" stroke="#000" stroke-linejoin="round" stroke-width="0.25"/>
      <path id="Path_17492" data-name="Path 17492" d="M3259.64,1400.383s41.262,16.531,75.955,3.3" transform="translate(-3250.247 -1302.566)" fill="none" stroke="#000" stroke-linejoin="round" stroke-width="0.25"/>
      <path id="Path_17493" data-name="Path 17493" d="M3318.34,1400.673a4.853,4.853,0,0,1-1.838,2.912" transform="translate(-3231.154 -1302.469)" fill="none" stroke="#000" stroke-linejoin="round" stroke-width="0.25"/>
      <path id="Path_17494" data-name="Path 17494" d="M3258.553,1410.781s32.685,12.716,78.941,1.362" transform="translate(-3250.611 -1299.075)" fill="none" stroke="#000" stroke-linejoin="round" stroke-width="0.25"/>
      <path id="Path_17495" data-name="Path 17495" d="M3252.958,1423.919s43.827,12.456,88.666-4.742" transform="translate(-3252.49 -1296.255)" fill="none" stroke="#000" stroke-linejoin="round" stroke-width="0.25"/>
      <path id="Path_17496" data-name="Path 17496" d="M3267.387,1433.586s20.5,4.232,53.09-4.284" transform="translate(-3247.645 -1292.856)" fill="none" stroke="#000" stroke-linejoin="round" stroke-width="0.25"/>
    </g>
    <g id="Group_4770" data-name="Group 4770" transform="translate(3370.614 1318.913)">
      <path id="Path_17497" data-name="Path 17497" d="M3394.324,1340.986c9.846-2.9,37.931-6.628,63.31,10.808s30.946,38.362,32.5,57.731L3385.5,1489.053s-51.494-6.544-62.146-32.35-5.31-52.3,7.157-69.441S3363.964,1349.923,3394.324,1340.986Z" transform="translate(-3317.651 -1312.331)" fill="#e7ef92" stroke="#000" stroke-linejoin="round" stroke-width="0.25"/>
      <path id="Path_17498" data-name="Path 17498" d="M3373.889,1374.365c.681,1.556,2.561.445,5.566,1.447s8.682.223,10.24-2.782,0-3.9-1.891-5.566-1.893-5.788-2.672-11.688-5.677-10.574-4.23-16.7,9.907-15.249,16.7-14.136,11.021,5.343,10.463,11.02,2.784,4.9,3.563,2.227-.334-3.562-.668-6.345-2.672-9.463-8.683-11.8-12.579-1.224-20.37,5.009-8.349,9.573-9.24,16.252-.779,12.356,1.225,18.812,1.225,8.238.557,10.131S3373.11,1372.584,3373.889,1374.365Z" transform="translate(-3299.359 -1318.913)" fill="#ddb458" stroke="#000" stroke-linejoin="round" stroke-width="0.25"/>
      <path id="Path_17499" data-name="Path 17499" d="M3362.17,1353.37s8.412-1.754,12.669,3.589" transform="translate(-3302.703 -1307.436)" fill="none" stroke="#252f33" stroke-miterlimit="10" stroke-width="0.25"/>
      <path id="Path_17500" data-name="Path 17500" d="M3384.174,1343.113s-2.116.724-2.31,4.536" transform="translate(-3296.09 -1310.788)" fill="none" stroke="#252f33" stroke-miterlimit="10" stroke-width="0.25"/>
      <path id="Path_17501" data-name="Path 17501" d="M3394.321,1343.113s-9.509,4.589-11.35,14.275" transform="translate(-3295.719 -1310.788)" fill="none" stroke="#252f33" stroke-miterlimit="10" stroke-width="0.25"/>
      <path id="Path_17502" data-name="Path 17502" d="M3349.343,1369.822s10.957-12.607,30.441-7.18" transform="translate(-3307.01 -1304.686)" fill="none" stroke="#252f33" stroke-miterlimit="10" stroke-width="0.25"/>
      <path id="Path_17503" data-name="Path 17503" d="M3379.746,1363.988s-22.458,8.043-26.466,38.989" transform="translate(-3305.688 -1303.779)" fill="none" stroke="#252f33" stroke-miterlimit="10" stroke-width="0.25"/>
      <path id="Path_17504" data-name="Path 17504" d="M3378.359,1365.426s-5.732,3.45-5.259,13.915" transform="translate(-3299.042 -1303.296)" fill="none" stroke="#252f33" stroke-miterlimit="10" stroke-width="0.25"/>
      <path id="Path_17505" data-name="Path 17505" d="M3381.2,1365.843a14.1,14.1,0,0,1,1.781,8.793" transform="translate(-3296.314 -1303.156)" fill="none" stroke="#252f33" stroke-miterlimit="10" stroke-width="0.25"/>
      <path id="Path_17506" data-name="Path 17506" d="M3387.016,1362.593s10.149-.112,12.708,6.79" transform="translate(-3294.361 -1304.247)" fill="none" stroke="#252f33" stroke-miterlimit="10" stroke-width="0.25"/>
      <path id="Path_17507" data-name="Path 17507" d="M3388.614,1360.794s11.909-2,18.254,9.24" transform="translate(-3293.824 -1304.898)" fill="none" stroke="#252f33" stroke-miterlimit="10" stroke-width="0.25"/>
      <path id="Path_17508" data-name="Path 17508" d="M3389.53,1356.532s25.714-9.509,41.743,11.345" transform="translate(-3293.517 -1307.009)" fill="none" stroke="#252f33" stroke-miterlimit="10" stroke-width="0.25"/>
    </g>
    <g id="Group_4772" data-name="Group 4772" transform="translate(3436.698 1398.271)">
      <ellipse id="Ellipse_2816" data-name="Ellipse 2816" cx="101.983" cy="104.996" rx="101.983" ry="104.996" fill="#e7ef92" stroke="#000" stroke-linejoin="round" stroke-width="0.25"/>
      <g id="Group_4771" data-name="Group 4771" transform="translate(130.884 32.142)">
        <path id="Path_17509" data-name="Path 17509" d="M3481.027,1403.471s-5.343,2.5-11.688-1.67a10.243,10.243,0,0,1-7.848,4.675s2.5,7.346-1.335,10.185c0,0,5.677,9.016,4.007,14.526,0,0,9.851,7.18,11.855,15.027,0,0,10.019,1.5,12.69,9.017,0,0,7.34-2.839,12.352,0,0,0,.338-7.514,6.349-9.017,0,0-4.174-8.516-2.171-12.523,0,0-5.343-6.011-5.844-12.356,0,0-6.345-2.839-7.681-9.183C3491.712,1412.153,3484.032,1410.15,3481.027,1403.471Z" transform="translate(-3460.155 -1401.801)" fill="#ddb458" stroke="#000" stroke-linejoin="round" stroke-width="0.25"/>
        <path id="Path_17510" data-name="Path 17510" d="M3466.875,1406.715c7.539-4.071,25.88,11.688,30.889,24.044s.668,25.547-13.692,14.193S3458.526,1411.224,3466.875,1406.715Z" transform="translate(-3458.86 -1400.371)" fill="#e7ef92" stroke="#000" stroke-linejoin="round" stroke-width="0.25"/>
        <ellipse id="Ellipse_2817" data-name="Ellipse 2817" cx="2.588" cy="3.423" rx="2.588" ry="3.423" transform="translate(21.324 25.853) rotate(-30)" fill="#ddb458" stroke="#000" stroke-linejoin="round" stroke-width="0.25"/>
      </g>
      <path id="Path_17511" data-name="Path 17511" d="M3452.2,1387.759s21.7,3.588,27.05,21.163" transform="translate(-3331.942 -1374.374)" fill="none" stroke="#252f33" stroke-miterlimit="10" stroke-width="0.25"/>
      <path id="Path_17512" data-name="Path 17512" d="M3484.337,1403.6s1.669,4.217-.557,7.946" transform="translate(-3321.338 -1369.054)" fill="none" stroke="#252f33" stroke-miterlimit="10" stroke-width="0.25"/>
      <path id="Path_17513" data-name="Path 17513" d="M3499.158,1418.39s-3.231-1.625-9.129.858" transform="translate(-3319.24 -1364.264)" fill="none" stroke="#252f33" stroke-miterlimit="10" stroke-width="0.25"/>
      <path id="Path_17514" data-name="Path 17514" d="M3413.864,1410.243s36.083-21.191,67.744-4.417" transform="translate(-3344.814 -1370.477)" fill="none" stroke="#252f33" stroke-miterlimit="10" stroke-width="0.25"/>
      <path id="Path_17515" data-name="Path 17515" d="M3420.28,1442.21s27.733-29.152,55.887-25.318" transform="translate(-3342.659 -1364.708)" fill="none" stroke="#252f33" stroke-miterlimit="10" stroke-width="0.25"/>
      <path id="Path_17516" data-name="Path 17516" d="M3446.78,1456.429s23.317-12.548,29.8-26.866" transform="translate(-3333.761 -1360.337)" fill="none" stroke="#252f33" stroke-miterlimit="10" stroke-width="0.25"/>
      <path id="Path_17517" data-name="Path 17517" d="M3471.569,1439.619A45.431,45.431,0,0,1,3450.2,1458.4" transform="translate(-3332.614 -1356.961)" fill="none" stroke="#252f33" stroke-miterlimit="10" stroke-width="0.25"/>
      <path id="Path_17518" data-name="Path 17518" d="M3488.105,1441.8s3.118,26.438-26.158,52.373" transform="translate(-3328.669 -1356.228)" fill="none" stroke="#252f33" stroke-miterlimit="10" stroke-width="0.25"/>
      <path id="Path_17519" data-name="Path 17519" d="M3491.916,1437.919s12.174,8.135,7.722,49.21" transform="translate(-3318.606 -1357.531)" fill="none" stroke="#252f33" stroke-miterlimit="10" stroke-width="0.25"/>
      <path id="Path_17520" data-name="Path 17520" d="M3493.79,1430.1s10.228-1.484,16.129,12.729" transform="translate(-3317.977 -1360.172)" fill="none" stroke="#252f33" stroke-miterlimit="10" stroke-width="0.25"/>
      <path id="Path_17521" data-name="Path 17521" d="M3405.28,1409.4s16.2-10.053,32.56-11.222" transform="translate(-3347.696 -1370.876)" fill="none" stroke="#252f33" stroke-miterlimit="10" stroke-width="0.25"/>
      <path id="Path_17522" data-name="Path 17522" d="M3491.4,1448.3a26.03,26.03,0,0,1,1.67,10.741" transform="translate(-3318.778 -1354.046)" fill="none" stroke="#252f33" stroke-miterlimit="10" stroke-width="0.25"/>
    </g>
    <ellipse id="Ellipse_2818" data-name="Ellipse 2818" cx="5.343" cy="3.506" rx="5.343" ry="3.506" transform="translate(3623.518 1582.4)" fill="#c19165" stroke="#000" stroke-linejoin="round" stroke-width="0.25"/>
    <ellipse id="Ellipse_2819" data-name="Ellipse 2819" cx="3.59" cy="2.254" rx="3.59" ry="2.254" transform="translate(3610.829 1590.615)" fill="#ecb36f" stroke="#000" stroke-linejoin="round" stroke-width="0.25"/>
    <path id="Path_17523" data-name="Path 17523" d="M3483.114,1530.279s5.343,3.9,10.908,1.336,7.9-1.262,9.907.872,7.791,2.036,9.8-1.143" transform="translate(115.137 72.36)" fill="none" stroke="#252f33" stroke-miterlimit="10" stroke-width="0.25"/>
    <path id="Path_17524" data-name="Path 17524" d="M3499.114,1539.162s6.456-2.561,11.465.779,10.241,1.177,13.135-.858" transform="translate(120.509 75.106)" fill="none" stroke="#252f33" stroke-miterlimit="10" stroke-width="0.25"/>
    <g id="Group_4773" data-name="Group 4773" transform="translate(3436.862 1560.808)">
      <path id="Path_17525" data-name="Path 17525" d="M3380.791,1577.666a24.8,24.8,0,0,0,16.181.409c8.934-2.8,14.694-1.774,22.125-.409s11.938-6.4,20.2-6.565,10.853,3.589,17.532,2.587,9.184-2.849,14.276-2.593,7.347,3.171,16.28,4.051,10.13-.948,17.378.258l-3.938-13.32-32.225-18.033-67.957,4.007Z" transform="translate(-3356.083 -1483.667)" fill="#cad226" stroke="#231815" stroke-miterlimit="10" stroke-width="0.25"/>
      <path id="Path_17526" data-name="Path 17526" d="M3534.59,1565.741c-1.988-4.55-8.683-3.673-13.191-7.848s-2-5.844-6.178-8.849-8.57.445-13.023-2.672-1.781-5.12-4.676-8.238-11.354.668-16.808-3.673-4.007-8.682-8.682-12.243-12.022-.113-18.256-3.674-4.9-8.572-8.9-11.354-9.463.89-13.47-1.67-2.893-5.9-9.016-6.568-6.679,2.895-10.908,2.671-3.34-3.061-7.57-2.755-33.617,13.072-39.85,45.594,5.565,48.551,12.022,46.769,6.345-1.447,10.24,1.225,8.905-1.893,11.688-6.122,9.129-2.671,12.134-4.23,3.785-8.793,9.017-9.461,7.347,1,12.022-.112,10.129-6.345,16.14-6.679,7.236,3.786,14.693,4.454,9.8-3.34,15.806-2.561,5.009,4.675,9.463,6.122,5.343-.222,8.069,2.06.835,4.4,3.4,5.788,4.063.39,6.679,3.34,2.561,5.956,6.9,5.51,10.129,1.726,12.967-1.169,1.67-4.953,2.839-6.957,5.955-1.726,6.011-5.566C3534.2,1573.119,3537.094,1571.475,3534.59,1565.741Z" transform="translate(-3362.293 -1498.846)" fill="#a5b63d" stroke="#231815" stroke-miterlimit="10" stroke-width="0.25"/>
      <path id="Path_17527" data-name="Path 17527" d="M3535.437,1559.938s-32.712-1.512-64.436-17.541-67.976-15.253-108.29-.7" transform="translate(-3362.153 -1488.191)" fill="none" stroke="#000" stroke-linejoin="round" stroke-width="0.25"/>
      <path id="Path_17528" data-name="Path 17528" d="M3409.266,1558.613s1.084,5.606-3.675,13.281" transform="translate(-3347.755 -1478.778)" fill="none" stroke="#000" stroke-linejoin="round" stroke-width="0.25"/>
      <path id="Path_17529" data-name="Path 17529" d="M3419.642,1555.926a20.579,20.579,0,0,1-2.437,14.725" transform="translate(-3343.856 -1479.68)" fill="none" stroke="#000" stroke-linejoin="round" stroke-width="0.25"/>
      <path id="Path_17530" data-name="Path 17530" d="M3429.453,1553.363s1.675,8.337-3.421,14.647" transform="translate(-3340.892 -1480.541)" fill="none" stroke="#000" stroke-linejoin="round" stroke-width="0.25"/>
      <path id="Path_17531" data-name="Path 17531" d="M3439.369,1554.363s1.937,9.359-4.082,15.992" transform="translate(-3337.785 -1480.205)" fill="none" stroke="#000" stroke-linejoin="round" stroke-width="0.25"/>
      <path id="Path_17532" data-name="Path 17532" d="M3448.229,1554.363s1.623,7.6-3.03,13.569" transform="translate(-3334.456 -1480.205)" fill="none" stroke="#000" stroke-linejoin="round" stroke-width="0.25"/>
      <path id="Path_17533" data-name="Path 17533" d="M3454.353,1557.216s1.863,5.915-1.781,10.82" transform="translate(-3331.981 -1479.247)" fill="none" stroke="#000" stroke-linejoin="round" stroke-width="0.25"/>
      <path id="Path_17534" data-name="Path 17534" d="M3460.3,1559.8s1.95,5.417-1.822,9.679" transform="translate(-3329.998 -1478.379)" fill="none" stroke="#000" stroke-linejoin="round" stroke-width="0.25"/>
      <path id="Path_17535" data-name="Path 17535" d="M3490.779,1566.152s-13.893-7-18.243-16.565" transform="translate(-3325.277 -1481.808)" fill="none" stroke="#000" stroke-linejoin="round" stroke-width="0.25"/>
      <path id="Path_17536" data-name="Path 17536" d="M3486.142,1544.051s-10.048,1.185-13.606,7.395" transform="translate(-3325.277 -1483.667)" fill="none" stroke="#000" stroke-linejoin="round" stroke-width="0.25"/>
      <path id="Path_17537" data-name="Path 17537" d="M3478.856,1535.516s-13.136,4.055-17.144,14.884" transform="translate(-3328.912 -1486.533)" fill="none" stroke="#000" stroke-linejoin="round" stroke-width="0.25"/>
      <path id="Path_17538" data-name="Path 17538" d="M3481.168,1574.469s-16.742-10.825-19.456-27.811" transform="translate(-3328.912 -1482.791)" fill="none" stroke="#000" stroke-linejoin="round" stroke-width="0.25"/>
      <path id="Path_17539" data-name="Path 17539" d="M3469.875,1533.283s-13.521,6.1-16.458,13.956" transform="translate(-3331.697 -1487.283)" fill="none" stroke="#000" stroke-linejoin="round" stroke-width="0.25"/>
      <path id="Path_17540" data-name="Path 17540" d="M3459.656,1559.426a25.511,25.511,0,0,1-6.239-15.7" transform="translate(-3331.697 -1483.775)" fill="none" stroke="#000" stroke-linejoin="round" stroke-width="0.25"/>
      <path id="Path_17541" data-name="Path 17541" d="M3465.369,1527.22s-14.382,5.124-23.042,15.348" transform="translate(-3335.421 -1489.318)" fill="none" stroke="#000" stroke-linejoin="round" stroke-width="0.25"/>
      <path id="Path_17542" data-name="Path 17542" d="M3448.431,1554.309a19.35,19.35,0,0,1-6.1-15.6" transform="translate(-3335.428 -1485.461)" fill="none" stroke="#000" stroke-linejoin="round" stroke-width="0.25"/>
      <path id="Path_17543" data-name="Path 17543" d="M3453.8,1522.345s-15.774,5.68-22.026,16.251" transform="translate(-3338.964 -1490.956)" fill="none" stroke="#000" stroke-linejoin="round" stroke-width="0.25"/>
      <path id="Path_17544" data-name="Path 17544" d="M3443.344,1558.126s-12.8-12.416-11.549-23.615" transform="translate(-3338.986 -1486.871)" fill="none" stroke="#000" stroke-linejoin="round" stroke-width="0.25"/>
      <path id="Path_17545" data-name="Path 17545" d="M3421.4,1537.666c3.5-13.332,19.124-22.763,19.124-22.763" transform="translate(-3342.447 -1493.454)" fill="none" stroke="#000" stroke-linejoin="round" stroke-width="0.25"/>
      <path id="Path_17546" data-name="Path 17546" d="M3432.991,1555.921a33.18,33.18,0,0,1-11.589-23.977" transform="translate(-3342.447 -1487.732)" fill="none" stroke="#000" stroke-linejoin="round" stroke-width="0.25"/>
      <path id="Path_17547" data-name="Path 17547" d="M3434.888,1510.575s-23.594,11.378-29.024,26.721" transform="translate(-3347.664 -1494.908)" fill="none" stroke="#000" stroke-linejoin="round" stroke-width="0.25"/>
      <path id="Path_17548" data-name="Path 17548" d="M3426.435,1557.039s-16.008-7.8-20.571-26.46" transform="translate(-3347.664 -1488.191)" fill="none" stroke="#000" stroke-linejoin="round" stroke-width="0.25"/>
      <path id="Path_17549" data-name="Path 17549" d="M3420.625,1503.843s-18.749,14.591-26.238,36.571" transform="translate(-3351.518 -1497.168)" fill="none" stroke="#000" stroke-linejoin="round" stroke-width="0.25"/>
      <path id="Path_17550" data-name="Path 17550" d="M3414.37,1561.858s-18.067-13.487-19.983-30.637" transform="translate(-3351.518 -1487.975)" fill="none" stroke="#000" stroke-linejoin="round" stroke-width="0.25"/>
      <path id="Path_17551" data-name="Path 17551" d="M3405.871,1567.207s-16.214-8.461-22.672-34.188" transform="translate(-3355.274 -1487.371)" fill="none" stroke="#000" stroke-linejoin="round" stroke-width="0.25"/>
      <path id="Path_17552" data-name="Path 17552" d="M3406.968,1500.644s-22.585,19.682-23.769,43.245" transform="translate(-3355.274 -1498.242)" fill="none" stroke="#000" stroke-linejoin="round" stroke-width="0.25"/>
      <path id="Path_17553" data-name="Path 17553" d="M3398.983,1571.154a56.041,56.041,0,0,1-25.976-35.6" transform="translate(-3358.696 -1486.52)" fill="none" stroke="#000" stroke-linejoin="round" stroke-width="0.25"/>
      <path id="Path_17554" data-name="Path 17554" d="M3391.627,1578.81a53.927,53.927,0,0,1-26.4-40.792" transform="translate(-3361.309 -1485.693)" fill="none" stroke="#000" stroke-linejoin="round" stroke-width="0.25"/>
    </g>
    <g id="Group_4776" data-name="Group 4776" transform="translate(3239.609 1465.215)">
      <path id="Path_17555" data-name="Path 17555" d="M3395.26,1435.093s30.173,17.989,41.691,54.577,5.952,66.918-7.406,93.273-48.785,51.514-91.515,55.521-74.565-20.26-88.369-36.066-19.415-39.758-19.415-39.758Z" transform="translate(-3227.532 -1424.117)" fill="#e7ef92" stroke="#000" stroke-linejoin="round" stroke-width="0.25"/>
      <path id="Path_17556" data-name="Path 17556" d="M3382.876,1439.382c5.8,1,13.065-1.529,13.065-1.529s20.889,17.708,25.684,53.765-5.424,79.979-30.136,105.553-83.93,42.94-126.008,13.553-44.08-70.128-27.829-104.412,52.542-61.128,78.143-70.749,53.14-11.708,60.11-3.943Z" transform="translate(-3228.214 -1426.876)" fill="#fffed4" stroke="#000" stroke-linejoin="round" stroke-width="0.25"/>
      <path id="Path_17557" data-name="Path 17557" d="M3360.565,1447.537c4.225-1.327,19.254,9.35,19.7,23.6s-2.942,30.055-2.583,40.3-7.824,19.65-13.863,29.639-5.594,28.4-23.849,37.781-24.044,5.721-35.844,6.107-24.044-2.252-20.7-10.284,17.143-18.941,20.483-27.845,11.354-23.908,15.583-28.317,16.475-18.881,18.479-25.56,7.791-21.594,12.243-27.6S3354.89,1449.319,3360.565,1447.537Z" transform="translate(-3209.865 -1419.976)" fill="#eded9d" stroke="#000" stroke-linejoin="round" stroke-width="0.25"/>
      <path id="Path_17558" data-name="Path 17558" d="M3359.553,1443.2c-.656-4.432-18.033-3.116-26.269,1.336s-22.264,15.808-26.494,23.376-18.033,14.249-26.937,21.6-26.047,18.754-30.278,32.419-2.672,29.026,1.559,35.928,11.8,7.347,16.919,11.131,6.679,6.679,11.577,4.452,11.8-21.757,18.478-30.024,16.475-18.064,17.365-27.859,10.91-21.372,17.144-27.828,12.689-23.154,17.365-28.5S3360.444,1449.208,3359.553,1443.2Z" transform="translate(-3221.881 -1422.314)" fill="#eded9d" stroke="#000" stroke-linejoin="round" stroke-width="0.25"/>
      <g id="Group_4774" data-name="Group 4774" transform="translate(37.443 24.399)">
        <path id="Path_17559" data-name="Path 17559" d="M3334.932,1463.31c-.755-2.877,15.916-7.821,17.016-3.621S3335.714,1466.3,3334.932,1463.31Z" transform="translate(-3229.833 -1440.802)" fill="#ddb458" stroke="#000" stroke-linejoin="round" stroke-width="0.25"/>
        <path id="Path_17560" data-name="Path 17560" d="M3324.232,1458.54c-2.29,1.9-13.094-10.262-9.751-13.033S3326.607,1456.571,3324.232,1458.54Z" transform="translate(-3236.906 -1445.141)" fill="#ddb458" stroke="#000" stroke-linejoin="round" stroke-width="0.25"/>
        <path id="Path_17561" data-name="Path 17561" d="M3322.389,1463.569c-2.009,2.895-17.829-7.28-14.9-11.505S3324.473,1460.566,3322.389,1463.569Z" transform="translate(-3239.159 -1443.103)" fill="#ddb458" stroke="#000" stroke-linejoin="round" stroke-width="0.25"/>
        <path id="Path_17562" data-name="Path 17562" d="M3315.711,1472.269c-2.009,2.895-19.68-8.565-16.748-12.79S3317.795,1469.266,3315.711,1472.269Z" transform="translate(-3242.012 -1440.592)" fill="#ddb458" stroke="#000" stroke-linejoin="round" stroke-width="0.25"/>
        <path id="Path_17563" data-name="Path 17563" d="M3312.056,1479.175c-1.74,3.842-23.852-5.3-21.314-10.907S3313.86,1475.189,3312.056,1479.175Z" transform="translate(-3244.73 -1437.853)" fill="#ddb458" stroke="#000" stroke-linejoin="round" stroke-width="0.25"/>
        <path id="Path_17564" data-name="Path 17564" d="M3304.361,1485.617c-1.293,2.86-18.929-4.476-17.041-8.651S3305.7,1482.65,3304.361,1485.617Z" transform="translate(-3245.859 -1434.797)" fill="#ddb458" stroke="#000" stroke-linejoin="round" stroke-width="0.25"/>
        <path id="Path_17565" data-name="Path 17565" d="M3302.571,1492.933c-1.742,3.848-26.218-6.361-23.677-11.977S3304.377,1488.942,3302.571,1492.933Z" transform="translate(-3248.703 -1433.566)" fill="#ddb458" stroke="#000" stroke-linejoin="round" stroke-width="0.25"/>
        <path id="Path_17566" data-name="Path 17566" d="M3300.705,1500.529c-1.82,4.268-31.047-7.256-28.391-13.485S3302.594,1496.1,3300.705,1500.529Z" transform="translate(-3250.907 -1431.566)" fill="#ddb458" stroke="#000" stroke-linejoin="round" stroke-width="0.25"/>
        <path id="Path_17567" data-name="Path 17567" d="M3300.869,1507.5c-1.294,4.456-37.793-5.25-35.9-11.752S3302.213,1502.88,3300.869,1507.5Z" transform="translate(-3253.341 -1428.728)" fill="#ddb458" stroke="#000" stroke-linejoin="round" stroke-width="0.25"/>
        <path id="Path_17568" data-name="Path 17568" d="M3297.292,1514.531c-1.018,5.772-42.493-.437-41.007-8.861S3298.35,1508.545,3297.292,1514.531Z" transform="translate(-3256.246 -1425.829)" fill="#ddb458" stroke="#000" stroke-linejoin="round" stroke-width="0.25"/>
        <path id="Path_17569" data-name="Path 17569" d="M3288.758,1519.908c-.252,4.413-32.477,3.406-32.109-3.035S3289.018,1515.33,3288.758,1519.908Z" transform="translate(-3256.111 -1422.096)" fill="#ddb458" stroke="#000" stroke-linejoin="round" stroke-width="0.25"/>
        <path id="Path_17570" data-name="Path 17570" d="M3282.677,1526.325c.132,3.095-24.221,4.714-24.414.2S3282.538,1523.114,3282.677,1526.325Z" transform="translate(-3255.568 -1418.826)" fill="#ddb458" stroke="#000" stroke-linejoin="round" stroke-width="0.25"/>
        <path id="Path_17571" data-name="Path 17571" d="M3333.541,1467.854c.259-3.532,17.639-2.92,17.261,2.235S3333.272,1471.518,3333.541,1467.854Z" transform="translate(-3230.293 -1438.263)" fill="#ddb458" stroke="#000" stroke-linejoin="round" stroke-width="0.25"/>
        <path id="Path_17572" data-name="Path 17572" d="M3331.4,1474c1.185-3.716,22.2,2.22,20.471,7.646S3330.173,1477.857,3331.4,1474Z" transform="translate(-3231.028 -1435.841)" fill="#ddb458" stroke="#000" stroke-linejoin="round" stroke-width="0.25"/>
        <path id="Path_17573" data-name="Path 17573" d="M3324.915,1488.7c2.455-3.4,27.184,13.519,23.6,18.476S3322.368,1492.226,3324.915,1488.7Z" transform="translate(-3233.255 -1430.665)" fill="#ddb458" stroke="#000" stroke-linejoin="round" stroke-width="0.25"/>
        <path id="Path_17574" data-name="Path 17574" d="M3320.766,1496.459c2.406-3.057,26.39,14.894,22.879,19.357S3318.269,1499.631,3320.766,1496.459Z" transform="translate(-3234.648 -1428.027)" fill="#ddb458" stroke="#000" stroke-linejoin="round" stroke-width="0.25"/>
        <path id="Path_17575" data-name="Path 17575" d="M3315.726,1503.751c2.518-2.967,25.821,15.864,22.146,20.193S3313.113,1506.829,3315.726,1503.751Z" transform="translate(-3236.349 -1425.568)" fill="#ddb458" stroke="#000" stroke-linejoin="round" stroke-width="0.25"/>
        <path id="Path_17576" data-name="Path 17576" d="M3306.855,1518.584c2.853-2.645,23.75,18.822,19.585,22.684S3303.9,1521.329,3306.855,1518.584Z" transform="translate(-3239.36 -1420.557)" fill="#ddb458" stroke="#000" stroke-linejoin="round" stroke-width="0.25"/>
        <path id="Path_17577" data-name="Path 17577" d="M3299.75,1525.33c3.484-2.852,25.241,22.391,20.157,26.554S3296.137,1528.289,3299.75,1525.33Z" transform="translate(-3241.792 -1418.292)" fill="#ddb458" stroke="#000" stroke-linejoin="round" stroke-width="0.25"/>
        <path id="Path_17578" data-name="Path 17578" d="M3295.945,1531.459c2.536-1.32,13.335,18.275,9.633,20.2S3293.315,1532.828,3295.945,1531.459Z" transform="translate(-3243.081 -1416.18)" fill="#ddb458" stroke="#000" stroke-linejoin="round" stroke-width="0.25"/>
        <path id="Path_17579" data-name="Path 17579" d="M3290.791,1536.007c2.281-1.186,9.265,11.194,5.938,12.925S3288.427,1537.237,3290.791,1536.007Z" transform="translate(-3244.852 -1414.658)" fill="#ddb458" stroke="#000" stroke-linejoin="round" stroke-width="0.25"/>
        <path id="Path_17580" data-name="Path 17580" d="M3311.25,1513.678c3.231-3.805,30.605,18.211,25.889,23.765S3307.9,1517.627,3311.25,1513.678Z" transform="translate(-3237.882 -1422.276)" fill="#ddb458" stroke="#000" stroke-linejoin="round" stroke-width="0.25"/>
        <path id="Path_17581" data-name="Path 17581" d="M3329.549,1481.925c1.583-3.4,25.394,6.9,23.083,11.87S3327.906,1485.454,3329.549,1481.925Z" transform="translate(-3231.662 -1433.017)" fill="#ddb458" stroke="#000" stroke-linejoin="round" stroke-width="0.25"/>
      </g>
      <g id="Group_4775" data-name="Group 4775" transform="translate(146.759 4.607)">
        <path id="Path_17582" data-name="Path 17582" d="M3339.014,1430.46c-2.414.689,0,7.9,5.677,9.574s15.473-.668,14.359-3.339-2.672-.112-6.011.445-8.349-.557-10.24-3.562S3340.573,1430.015,3339.014,1430.46Z" transform="translate(-3338.083 -1430.325)" fill="#ddb458" stroke="#000" stroke-linejoin="round" stroke-width="0.25"/>
        <line id="Line_676" data-name="Line 676" y1="2.324" x2="3.237" transform="translate(0.525 1.755)" fill="#ddb458" stroke="#000" stroke-linejoin="round" stroke-width="0.25"/>
        <line id="Line_677" data-name="Line 677" y1="3.062" x2="2.835" transform="translate(2.523 4.079)" fill="#ddb458" stroke="#000" stroke-linejoin="round" stroke-width="0.25"/>
        <line id="Line_678" data-name="Line 678" y1="3.747" x2="1.555" transform="translate(5.638 5.61)" fill="#ddb458" stroke="#000" stroke-linejoin="round" stroke-width="0.25"/>
        <line id="Line_679" data-name="Line 679" x1="0.53" y2="3.847" transform="translate(8.946 6.422)" fill="#ddb458" stroke="#000" stroke-linejoin="round" stroke-width="0.25"/>
        <line id="Line_680" data-name="Line 680" x2="0.538" y2="3.299" transform="translate(12.166 6.91)" fill="#ddb458" stroke="#000" stroke-linejoin="round" stroke-width="0.25"/>
        <line id="Line_681" data-name="Line 681" x2="0.948" y2="2.948" transform="translate(14.957 6.814)" fill="#ddb458" stroke="#000" stroke-linejoin="round" stroke-width="0.25"/>
        <line id="Line_682" data-name="Line 682" x2="1.242" y2="2.925" transform="translate(17.385 6.028)" fill="#ddb458" stroke="#000" stroke-linejoin="round" stroke-width="0.25"/>
      </g>
    </g>
    <ellipse id="Ellipse_2820" data-name="Ellipse 2820" cx="4.007" cy="2.775" rx="4.007" ry="2.775" transform="translate(3213.426 1596.507)" fill="#ecb36f" stroke="#000" stroke-linejoin="round" stroke-width="0.25"/>
    <ellipse id="Ellipse_2821" data-name="Ellipse 2821" cx="5.232" cy="3.228" rx="5.232" ry="3.228" transform="translate(3227.007 1676)" fill="#c19165" stroke="#000" stroke-linejoin="round" stroke-width="0.25"/>
    <ellipse id="Ellipse_2822" data-name="Ellipse 2822" cx="6.814" cy="3.228" rx="6.814" ry="3.228" transform="translate(3242.321 1667.985)" fill="#c19165" stroke="#000" stroke-linejoin="round" stroke-width="0.25"/>
    <path id="Path_17583" data-name="Path 17583" d="M3194.28,1535.927s4.341,3.839,9.017,1.5,7.57-1,10.131.755,7.568.836,9.405-1.129" transform="translate(0 74.319)" fill="none" stroke="#252f33" stroke-miterlimit="10" stroke-width="0.25"/>
    <path id="Path_17584" data-name="Path 17584" d="M3204.4,1542.969s5.844,3.005,10.853,0a10.536,10.536,0,0,1,13.581,1.837c2.949,3.506,10.17,2.722,12.8-.835s11.187-1.312,13.525,3.1" transform="translate(3.4 76.17)" fill="none" stroke="#252f33" stroke-miterlimit="10" stroke-width="0.25"/>
    <path id="Path_17585" data-name="Path 17585" d="M3245.655,1589.515s6.846,4.647,14.611,1.559,13.023-1.169,17.365,1.586,11.771,2.255,17.532-.5,13.024-1.919,20.2,1.42" transform="translate(20.691 92.94)" fill="none" stroke="#252f33" stroke-miterlimit="10" stroke-width="0.25"/>
    <path id="Path_17586" data-name="Path 17586" d="M3233.78,1597.3a7.234,7.234,0,0,0,7.681,2c4.842-1.5,7.514-2.425,12.356.374s10.519.668,12.523-1.189" transform="translate(13.263 95.563)" fill="none" stroke="#252f33" stroke-miterlimit="10" stroke-width="0.25"/>
    <path id="Path_17587" data-name="Path 17587" d="M3292.655,1613.042s7.013,5.844,18.033,1.67,21.039-3.505,25.714,1.5,16.864,3.507,21.373-1.336,17.7-4.341,23.209,1.5,20.037,4.007,24.044.5" transform="translate(40.5 100.36)" fill="none" stroke="#252f33" stroke-miterlimit="10" stroke-width="0.25"/>
    <ellipse id="Ellipse_2823" data-name="Ellipse 2823" cx="7.43" cy="4.007" rx="7.43" ry="4.007" transform="translate(3410.34 1728.763)" fill="#ecb36f" stroke="#000" stroke-linejoin="round" stroke-width="0.25"/>
    <ellipse id="Ellipse_2824" data-name="Ellipse 2824" cx="4.508" cy="2.171" rx="4.508" ry="2.171" transform="translate(3397.155 1736.777)" fill="#c19165" stroke="#000" stroke-linejoin="round" stroke-width="0.25"/>
    <ellipse id="Ellipse_2825" data-name="Ellipse 2825" cx="6.345" cy="3.673" rx="6.345" ry="3.673" transform="translate(3447.573 1668.82)" fill="#c19165" stroke="#000" stroke-linejoin="round" stroke-width="0.25"/>
    <ellipse id="Ellipse_2826" data-name="Ellipse 2826" cx="3.59" cy="1.918" rx="3.59" ry="1.918" transform="translate(3465.719 1676.167)" fill="#ecb36f" stroke="#000" stroke-linejoin="round" stroke-width="0.25"/>
    <ellipse id="Ellipse_2827" data-name="Ellipse 2827" cx="4.425" cy="3.065" rx="4.425" ry="3.065" transform="translate(3550.045 1711.947)" fill="#c19165" stroke="#000" stroke-linejoin="round" stroke-width="0.25"/>
    <ellipse id="Ellipse_2828" data-name="Ellipse 2828" cx="3.92" cy="2.505" rx="3.92" ry="2.505" transform="translate(3584.121 1665.313)" fill="#ecb36f" stroke="#000" stroke-linejoin="round" stroke-width="0.25"/>
    <path id="Path_17588" data-name="Path 17588" d="M3390.405,1592.472s10.684-6.011,20.286,0,16.948,2.171,21.29,0,16.457-5.009,22.755,1.67,19.489,3.389,23.663-1.395" transform="translate(79.687 93.045)" fill="none" stroke="#252f33" stroke-miterlimit="10" stroke-width="0.25"/>
    <path id="Path_17589" data-name="Path 17589" d="M3450.4,1584.287a13.592,13.592,0,0,1,11.948,1c6.085,3.673,12.93.231,14.6-.97" transform="translate(104.154 90.878)" fill="none" stroke="#252f33" stroke-miterlimit="10" stroke-width="0.25"/>
    <path id="Path_17590" data-name="Path 17590" d="M3373.87,1607.414a21.627,21.627,0,0,0,13.571,0c6.846-2.5,10.686-1.67,15.194,1.837s11.459,1.726,15.5-1.642" transform="translate(71.539 98.473)" fill="none" stroke="#252f33" stroke-miterlimit="10" stroke-width="0.25"/>
  </g>
</svg>
