<svg xmlns="http://www.w3.org/2000/svg" width="397.935" height="507.95" viewBox="0 0 397.935 507.95">
  <g id="Group_3226" data-name="Group 3226" transform="translate(-2057.719 -786.803)">
    <g id="Group_3218" data-name="Group 3218" transform="translate(2130.322 786.882)">
      <path id="Path_11067" data-name="Path 11067" d="M2109.414,787.409c2.725-1.844,2.738,3.792,11.377,4.214s12.643-.842,36.453-3.792,43.194.211,65.319,20.65,20.516,33.924,31.013,37.084,7.152,14.253,7.152,14.253h-2.2s1.221-7.965-4.948-10.785-7.166-2.654-9.821-7.8-7.633-2.987-10.867-1.161-23.146,12.941-51.518,6.637-48.451-25.221-58.738-36.835S2106.814,789.168,2109.414,787.409Z" transform="translate(-2108.776 -786.882)" fill="#cad226" stroke="#231815" stroke-miterlimit="10" stroke-width="0.25"/>
      <path id="Path_11068" data-name="Path 11068" d="M2110,788.7s9.622,14.767,46.291,24.888,63.224,8.182,83.627,22.068" transform="translate(-2108.257 -786.114)" fill="none" stroke="#000" stroke-miterlimit="10" stroke-width="0.25"/>
      <path id="Path_11069" data-name="Path 11069" d="M2123.352,790.243c.483-.02,4.783,3.977,7.369,14.08,0,0-8.584.922-16.19-2.618" transform="translate(-2106.341 -785.46)" fill="none" stroke="#000" stroke-miterlimit="10" stroke-width="0.25"/>
      <path id="Path_11070" data-name="Path 11070" d="M2132.054,789.41s9.2,6.307,11.908,21.562c0,0-13.351,3.792-22.991,1.642" transform="translate(-2103.617 -785.813)" fill="none" stroke="#000" stroke-miterlimit="10" stroke-width="0.25"/>
      <path id="Path_11071" data-name="Path 11071" d="M2141.814,788.181c.588-.077,12.995,10.435,18.034,28.482,0,0-14.933,8.766-31.33,6.6" transform="translate(-2100.424 -786.333)" fill="none" stroke="#000" stroke-miterlimit="10" stroke-width="0.25"/>
      <path id="Path_11072" data-name="Path 11072" d="M2137.127,832.8s21.917,0,34.466-12.607c0,0-3.549-21.089-21.3-33.024" transform="translate(-2096.782 -786.759)" fill="none" stroke="#000" stroke-miterlimit="10" stroke-width="0.25"/>
      <path id="Path_11073" data-name="Path 11073" d="M2159.611,787.007s18.288,12.745,22.5,35.947c0,0-5.908,15.255-32.872,18.981" transform="translate(-2091.659 -786.829)" fill="none" stroke="#000" stroke-miterlimit="10" stroke-width="0.25"/>
      <path id="Path_11074" data-name="Path 11074" d="M2171.368,789.41s17.212,14.195,21.771,35.794c0,0-8.244,20.55-30.8,21.156" transform="translate(-2086.115 -785.813)" fill="none" stroke="#000" stroke-miterlimit="10" stroke-width="0.25"/>
      <path id="Path_11075" data-name="Path 11075" d="M2185.379,799.123s11.843,14.751,13.017,26.837c0,0-2.152,8.753-13.017,14.983" transform="translate(-2076.37 -781.704)" fill="none" stroke="#000" stroke-miterlimit="10" stroke-width="0.25"/>
    </g>
    <g id="Group_3219" data-name="Group 3219" transform="translate(2068.078 873.886)">
      <path id="Path_11076" data-name="Path 11076" d="M2065.541,848.782c1.35-1.91,3.886.195,7.229,1.732,3.875,1.78,11.094,2.957,18.65,6.12s21.3,8.7,36.293,19.063,25.728,18.881,33.15,30.786,12.651,80.75,12.651,80.75l-56.6,31.717s-11.431-3.743-22.863-19.635S2078.159,951.3,2076.486,930s1.673-33.844-1.952-50.016S2062.96,852.432,2065.541,848.782Z" transform="translate(-2065.035 -848.022)" fill="#cad226" stroke="#231815" stroke-miterlimit="10" stroke-width="0.25"/>
      <path id="Path_11077" data-name="Path 11077" d="M2066.509,849.669s61.131,47.658,81.5,160.752" transform="translate(-2064.412 -847.325)" fill="none" stroke="#000" stroke-miterlimit="10" stroke-width="0.25"/>
      <path id="Path_11078" data-name="Path 11078" d="M2069.347,862.492" transform="translate(-2063.211 -841.9)" fill="none" stroke="#000" stroke-miterlimit="10" stroke-width="0.25"/>
      <path id="Path_11079" data-name="Path 11079" d="M2069.347,866.57s8.413,5.763,18.426,5.321c0,0,1.281-11.3-2.836-19.039" transform="translate(-2063.212 -845.978)" fill="none" stroke="#000" stroke-miterlimit="10" stroke-width="0.25"/>
      <path id="Path_11080" data-name="Path 11080" d="M2072.426,881.848s12.507,6.626,25.536,3.935c0,0,3.266-14.71,0-28.791" transform="translate(-2061.909 -844.227)" fill="none" stroke="#000" stroke-miterlimit="10" stroke-width="0.25"/>
      <path id="Path_11081" data-name="Path 11081" d="M2072.954,892.51a64.678,64.678,0,0,0,37,11s7.883-21.462,2.341-41.342" transform="translate(-2061.685 -842.038)" fill="none" stroke="#000" stroke-miterlimit="10" stroke-width="0.25"/>
      <path id="Path_11082" data-name="Path 11082" d="M2072.743,904.689s25.259,16.668,46.866,14.784c0,0,12.676-23.7,7.655-50.627" transform="translate(-2061.775 -839.213)" fill="none" stroke="#000" stroke-miterlimit="10" stroke-width="0.25"/>
      <path id="Path_11083" data-name="Path 11083" d="M2072.954,914.349s22.724,19.521,54.293,19.029c0,0,16.291-17.345,18.039-54.562" transform="translate(-2061.685 -834.994)" fill="none" stroke="#000" stroke-miterlimit="10" stroke-width="0.25"/>
      <path id="Path_11084" data-name="Path 11084" d="M2074.272,928.137s27.118,17.108,59.112,18.891c0,0,21.155-22.016,24.995-55.8" transform="translate(-2061.128 -829.743)" fill="none" stroke="#000" stroke-miterlimit="10" stroke-width="0.25"/>
      <path id="Path_11085" data-name="Path 11085" d="M2075.887,936.753s31.02,18.793,61.886,19.81c0,0,16.474-14.017,25.578-46.716" transform="translate(-2060.445 -821.866)" fill="none" stroke="#000" stroke-miterlimit="10" stroke-width="0.25"/>
      <path id="Path_11086" data-name="Path 11086" d="M2078.891,945.018s34.046,16.745,60.583,15.978c0,0,16.509-8.164,25.833-32.911" transform="translate(-2059.174 -814.151)" fill="none" stroke="#000" stroke-miterlimit="10" stroke-width="0.25"/>
      <path id="Path_11087" data-name="Path 11087" d="M2083.473,951.23s28,15.13,55.879,8.462" transform="translate(-2057.236 -804.36)" fill="none" stroke="#000" stroke-miterlimit="10" stroke-width="0.25"/>
    </g>
    <g id="Group_3220" data-name="Group 3220" transform="translate(2151.677 843.608)">
      <ellipse id="Ellipse_1865" data-name="Ellipse 1865" cx="102.755" cy="110.782" rx="102.755" ry="110.782" transform="translate(0 14.827)" fill="#ffae2c" stroke="#000" stroke-linejoin="round" stroke-width="0.25"/>
      <path id="Path_11088" data-name="Path 11088" d="M2202.588,857.551s6.451,5.038,5.478,13.015c0,0,6.616-3.112,10.313,0,0,0,.388-7.978,6.809-9.339,0,0-6.892-4.468-10.2-11.472C2214.989,849.754,2210.156,856.267,2202.588,857.551Z" transform="translate(-2090.445 -817.01)" fill="#c19165" stroke="#000" stroke-linejoin="round" stroke-width="0.25"/>
      <path id="Path_11089" data-name="Path 11089" d="M2209.851,868.628c-1.046,1.92-3.466,3.047-1.68,5.358s5.778.946,5.988-.63-1.577-1.891,0-4.727,3.572-6.513,4.519-14.289.646-14.078,4.42-16.495,7.143-1.323,7.248-4.9-.019-5.674-2.225-6.093-2.854.4-4.019,1.656-2.729,1.359-5.04,4.931a35.384,35.384,0,0,0-5.113,18.132A33.779,33.779,0,0,1,2209.851,868.628Z" transform="translate(-2088.354 -826.745)" fill="#a5b63d" stroke="#231815" stroke-miterlimit="10" stroke-width="0.25"/>
      <ellipse id="Ellipse_1866" data-name="Ellipse 1866" cx="4.854" cy="3.055" rx="4.854" ry="3.055" transform="translate(71.469 44.34) rotate(-33.214)" fill="#dffffa" stroke="#231815" stroke-miterlimit="10" stroke-width="0.25"/>
      <ellipse id="Ellipse_1867" data-name="Ellipse 1867" cx="8.564" cy="5.101" rx="8.564" ry="5.101" transform="translate(50.501 53.495) rotate(-15.081)" fill="#dffffa" stroke="#231815" stroke-miterlimit="10" stroke-width="0.25"/>
      <line id="Line_508" data-name="Line 508" x2="1.669" y2="4.531" transform="translate(34.192 69.569)" fill="none" stroke="#000" stroke-miterlimit="10" stroke-width="0.25"/>
      <line id="Line_509" data-name="Line 509" x2="2.146" y2="4.054" transform="translate(29.899 112.733)" fill="none" stroke="#000" stroke-miterlimit="10" stroke-width="0.25"/>
      <line id="Line_510" data-name="Line 510" x2="2.981" y2="4.531" transform="translate(32.046 137.773)" fill="none" stroke="#000" stroke-miterlimit="10" stroke-width="0.25"/>
      <line id="Line_511" data-name="Line 511" x2="1.908" y2="4.531" transform="translate(54.94 99.378)" fill="none" stroke="#000" stroke-miterlimit="10" stroke-width="0.25"/>
      <line id="Line_512" data-name="Line 512" x2="1.669" y2="2.862" transform="translate(87.372 119.649)" fill="none" stroke="#000" stroke-miterlimit="10" stroke-width="0.25"/>
      <line id="Line_513" data-name="Line 513" x2="1.585" y2="3.577" transform="translate(77.203 132.765)" fill="none" stroke="#000" stroke-miterlimit="10" stroke-width="0.25"/>
      <line id="Line_514" data-name="Line 514" x2="2.146" y2="2.623" transform="translate(72.826 74.1)" fill="none" stroke="#000" stroke-miterlimit="10" stroke-width="0.25"/>
      <line id="Line_515" data-name="Line 515" x2="3.577" y2="2.623" transform="translate(92.142 91.747)" fill="none" stroke="#000" stroke-miterlimit="10" stroke-width="0.25"/>
      <line id="Line_516" data-name="Line 516" x2="2.654" y2="4.889" transform="translate(112.144 96.755)" fill="none" stroke="#000" stroke-miterlimit="10" stroke-width="0.25"/>
      <line id="Line_517" data-name="Line 517" x2="2.862" y2="2.444" transform="translate(128.867 99.199)" fill="none" stroke="#000" stroke-miterlimit="10" stroke-width="0.25"/>
      <line id="Line_518" data-name="Line 518" x2="3.339" transform="translate(100.489 69.569)" fill="none" stroke="#000" stroke-miterlimit="10" stroke-width="0.25"/>
      <line id="Line_519" data-name="Line 519" x2="4.266" transform="translate(119.178 65.991)" fill="none" stroke="#000" stroke-miterlimit="10" stroke-width="0.25"/>
      <line id="Line_520" data-name="Line 520" x2="2.385" y2="2.385" transform="translate(122.667 76.723)" fill="none" stroke="#000" stroke-miterlimit="10" stroke-width="0.25"/>
      <line id="Line_521" data-name="Line 521" x2="1.995" y2="2.862" transform="translate(134.743 67.899)" fill="none" stroke="#000" stroke-miterlimit="10" stroke-width="0.25"/>
      <line id="Line_522" data-name="Line 522" x1="1.669" y2="2.504" transform="translate(144.607 75.411)" fill="none" stroke="#000" stroke-miterlimit="10" stroke-width="0.25"/>
      <line id="Line_523" data-name="Line 523" x1="1.192" y2="2.146" transform="translate(150.331 58.837)" fill="none" stroke="#000" stroke-miterlimit="10" stroke-width="0.25"/>
      <line id="Line_524" data-name="Line 524" x2="3.219" transform="translate(147.707 97.947)" fill="none" stroke="#000" stroke-miterlimit="10" stroke-width="0.25"/>
      <line id="Line_525" data-name="Line 525" y1="1.312" x2="3.339" transform="translate(161.777 75.411)" fill="none" stroke="#000" stroke-miterlimit="10" stroke-width="0.25"/>
      <path id="Path_11090" data-name="Path 11090" d="M2239.813,872.615a31.558,31.558,0,0,0,3.1.716" transform="translate(-2074.698 -807.339)" fill="none" stroke="#000" stroke-miterlimit="10" stroke-width="0.25"/>
      <line id="Line_526" data-name="Line 526" x2="2.146" y2="1.312" transform="translate(171.794 93.059)" fill="none" stroke="#000" stroke-miterlimit="10" stroke-width="0.25"/>
      <line id="Line_527" data-name="Line 527" x2="3.219" y2="2.146" transform="translate(163.447 112.256)" fill="none" stroke="#000" stroke-miterlimit="10" stroke-width="0.25"/>
      <line id="Line_528" data-name="Line 528" x2="2.178" y2="2.385" transform="translate(139.838 121.08)" fill="none" stroke="#000" stroke-miterlimit="10" stroke-width="0.25"/>
      <line id="Line_529" data-name="Line 529" x2="2.133" y2="1.669" transform="translate(119.178 138.488)" fill="none" stroke="#000" stroke-miterlimit="10" stroke-width="0.25"/>
      <path id="Path_11091" data-name="Path 11091" d="M2198.588,939.984a18.5,18.5,0,0,0,3.074,2.146" transform="translate(-2092.137 -778.84)" fill="none" stroke="#000" stroke-miterlimit="10" stroke-width="0.25"/>
      <line id="Line_530" data-name="Line 530" x2="1.669" y2="2.623" transform="translate(125.052 172.114)" fill="none" stroke="#000" stroke-miterlimit="10" stroke-width="0.25"/>
      <line id="Line_531" data-name="Line 531" x2="3.1" transform="translate(144.607 169.49)" fill="none" stroke="#000" stroke-miterlimit="10" stroke-width="0.25"/>
      <line id="Line_532" data-name="Line 532" x2="3.339" y2="1.908" transform="translate(158.439 143.258)" fill="none" stroke="#000" stroke-miterlimit="10" stroke-width="0.25"/>
      <line id="Line_533" data-name="Line 533" x2="3.1" y2="0.954" transform="translate(181.333 122.51)" fill="none" stroke="#000" stroke-miterlimit="10" stroke-width="0.25"/>
      <line id="Line_534" data-name="Line 534" x2="3.458" y2="4.054" transform="translate(179.425 154.466)" fill="none" stroke="#000" stroke-miterlimit="10" stroke-width="0.25"/>
      <line id="Line_535" data-name="Line 535" x2="1.669" y2="2.385" transform="translate(163.447 174.737)" fill="none" stroke="#000" stroke-miterlimit="10" stroke-width="0.25"/>
      <line id="Line_536" data-name="Line 536" x2="5.008" transform="translate(126.721 201.208)" fill="none" stroke="#000" stroke-miterlimit="10" stroke-width="0.25"/>
    </g>
    <g id="Group_3222" data-name="Group 3222" transform="translate(2057.844 987.221)">
      <path id="Path_11092" data-name="Path 11092" d="M2184.21,936.348a29.929,29.929,0,0,0-2.175-2.3c-.073-.068-.155-.127-.229-.195Q2183.025,935.085,2184.21,936.348Z" transform="translate(-2005.404 -925.045)" fill="none" stroke="#000" stroke-miterlimit="10" stroke-width="0.25"/>
      <path id="Path_11093" data-name="Path 11093" d="M2063.918,1056.044l-.29-.346C2063.726,1055.812,2063.82,1055.93,2063.918,1056.044Z" transform="translate(-2055.397 -873.501)" fill="none" stroke="#000" stroke-miterlimit="10" stroke-width="0.25"/>
      <path id="Path_11094" data-name="Path 11094" d="M2234.117,935.608c20.432,23.929,2.246,79.342-42.142,126.274-45.869,48.5-102.345,69.57-126.143,47.063-.7-.667-1.367-1.37-2-2.1,21.455,25.505,52.622,41.56,87.315,41.56,64.714,0,117.175-55.843,117.175-124.728C2268.322,989.3,2255.254,958.17,2234.117,935.608Z" transform="translate(-2055.311 -924.304)" fill="#ffae2c" stroke="#000" stroke-linejoin="round" stroke-width="0.25"/>
      <path id="Path_11095" data-name="Path 11095" d="M2194.509,1065.242c44.387-46.932,62.574-102.345,42.142-126.274q-1.185-1.264-2.4-2.49c-23.924-22.169-80.184-1.09-125.914,47.259-44.3,46.838-62.492,102.118-42.257,126.124l.289.346c.634.727,1.3,1.43,2,2.1C2092.163,1134.812,2148.64,1113.741,2194.509,1065.242Z" transform="translate(-2057.844 -927.665)" fill="#fff6eb" stroke="#000" stroke-miterlimit="10" stroke-width="0.25"/>
      <g id="Group_3221" data-name="Group 3221" transform="translate(14.319 12.185)">
        <path id="Path_11096" data-name="Path 11096" d="M2077.018,1047.373s-2.061-1.11-.793-5.548,6.341-23.2,11.891-28.8,10.146-6.868,13.792-6.552c0,0-3.646-4.438,1.11-11.414s14.586-13.317,21.165-19.023,10.225-7.935,12.92-6.029a23.661,23.661,0,0,1,8.4-11.147c6.66-5.019,17.44-10.782,25.843-12.736s9.354.31,9.67,3.935c0,0,3.012-7.565,6.183-10.135s7.293-3.84,12.524-3.68,15.979,1.227,22.337,12.5-2.2,25.07-2.2,25.07,3.011-.317,1.743,4.756-5.39,17.439-9.987,24.891-7.611,10.146-11.891,10.462c0,0,2.378,3.805-1.9,12.208s-11.731,25.524-17.6,24.414c0,0,.952,2.537-1.586,6.341s-4.6,5.708-8.243,10.306-22.829,19.34-30.6,11.889c0,0,.634,4.44-9.512,10.306s-35.2,16.328-36.464,4.281c0,0-2.853,5.706-9.671,2.06s-11.889-9.671-14.426-18.39S2065.6,1051.5,2077.018,1047.373Z" transform="translate(-2067.906 -936.228)" fill="#ffc952" stroke="#000" stroke-linejoin="round" stroke-width="0.25"/>
        <path id="Path_11097" data-name="Path 11097" d="M2074.309,1022.532s28.536-14.585,38.842-19.975a92.849,92.849,0,0,1,20.133-7.609" transform="translate(-2065.198 -911.387)" fill="none" stroke="#000" stroke-miterlimit="10" stroke-width="0.25"/>
        <path id="Path_11098" data-name="Path 11098" d="M2120.231,991.493c3.351-3.748,4.461-3.6,6.693-6.005s4.291-4.976,8.151-2.231,1.716,6.95-.773,8.752-4.633,7.465-8.751,10.639-9.987-.1-9.8-3.013S2117.919,994.082,2120.231,991.493Z" transform="translate(-2047.668 -916.833)" fill="#fff6eb" stroke="#000" stroke-miterlimit="10" stroke-width="0.25"/>
        <path id="Path_11099" data-name="Path 11099" d="M2091.8,985.589s23.934,8.01,34.084,11.251" transform="translate(-2057.799 -915.346)" fill="none" stroke="#000" stroke-miterlimit="10" stroke-width="0.25"/>
        <path id="Path_11100" data-name="Path 11100" d="M2116.54,959.963s-.468,3.189,2.657,14.159c2.795,9.806,2.8,18.067,4.846,22.942" transform="translate(-2047.343 -926.187)" fill="none" stroke="#000" stroke-miterlimit="10" stroke-width="0.25"/>
        <path id="Path_11101" data-name="Path 11101" d="M2155.873,945.945c-1.233,3.721-5.247,8.709-10.6,18.535-7,12.85-15.8,24.821-17.93,32.878" transform="translate(-2042.763 -932.117)" fill="none" stroke="#000" stroke-miterlimit="10" stroke-width="0.25"/>
        <path id="Path_11102" data-name="Path 11102" d="M2130.814,994.153s3.367-2.137,10.767-5.92,19.565-8.221,28.115-13.646a136.9,136.9,0,0,1,23.55-11.948" transform="translate(-2041.293 -925.054)" fill="none" stroke="#000" stroke-miterlimit="10" stroke-width="0.25"/>
        <path id="Path_11103" data-name="Path 11103" d="M2127.688,990.218s5.314-.033,16.76,0,24.031-.534,29.986.9" transform="translate(-2042.616 -913.423)" fill="none" stroke="#000" stroke-miterlimit="10" stroke-width="0.25"/>
        <path id="Path_11104" data-name="Path 11104" d="M2125.725,993.04c.069-.094,3.7,3.872,10.609,11.929s14.855,14.145,19.43,21.541" transform="translate(-2043.447 -912.194)" fill="none" stroke="#000" stroke-miterlimit="10" stroke-width="0.25"/>
        <path id="Path_11105" data-name="Path 11105" d="M2118.426,1053.257a95.908,95.908,0,0,0,2.581-18.838c.329-10.193,2.655-14.337,2.479-22.295a137.319,137.319,0,0,0-1.178-14.855" transform="translate(-2046.535 -910.405)" fill="none" stroke="#000" stroke-miterlimit="10" stroke-width="0.25"/>
        <path id="Path_11106" data-name="Path 11106" d="M2129.373,996.074a103.521,103.521,0,0,0-12.948,19.122c-5.59,10.851-8.057,13.153-13.811,23.675s-13.754,21.96-16.5,29.479" transform="translate(-2060.202 -910.91)" fill="none" stroke="#000" stroke-miterlimit="10" stroke-width="0.25"/>
        <ellipse id="Ellipse_1868" data-name="Ellipse 1868" cx="8.374" cy="4.411" rx="8.374" ry="4.411" transform="translate(45.395 74.6) rotate(-37.258)" fill="#dffffa" stroke="#231815" stroke-miterlimit="10" stroke-width="0.25"/>
        <ellipse id="Ellipse_1869" data-name="Ellipse 1869" cx="5.249" cy="3.471" rx="5.249" ry="3.471" transform="translate(46.055 58.861) rotate(-37.258)" fill="#dffffa" stroke="#231815" stroke-miterlimit="10" stroke-width="0.25"/>
        <path id="Path_11107" data-name="Path 11107" d="M2090.185,995.651s-4.952-.107-5.59,2.3,4.711,1.211,4.711,1.211" transform="translate(-2060.869 -911.089)" fill="none" stroke="#000" stroke-miterlimit="10" stroke-width="0.25"/>
        <path id="Path_11108" data-name="Path 11108" d="M2094.13,1010.018s-3.984,2.015-3.594,4.552c.32,2.076,3.594.719,3.594.719" transform="translate(-2058.345 -905.011)" fill="none" stroke="#000" stroke-miterlimit="10" stroke-width="0.25"/>
        <path id="Path_11109" data-name="Path 11109" d="M2111.1,1012.6c-.161.241-2.827,3.647-2.556,6.179.205,1.918,2.076,1.82,3.114-.542" transform="translate(-2050.721 -903.92)" fill="none" stroke="#000" stroke-miterlimit="10" stroke-width="0.25"/>
        <path id="Path_11110" data-name="Path 11110" d="M2106.807,1025s-2.006,2.782-1.036,4.853,3.107-2.071,3.107-2.071" transform="translate(-2052 -898.674)" fill="none" stroke="#000" stroke-miterlimit="10" stroke-width="0.25"/>
        <path id="Path_11111" data-name="Path 11111" d="M2111.4,1032.813s-.583,4.918,1.488,4.593,1.165-5.177,1.165-5.177" transform="translate(-2049.539 -895.615)" fill="none" stroke="#000" stroke-miterlimit="10" stroke-width="0.25"/>
        <path id="Path_11112" data-name="Path 11112" d="M2128.26,1020.679s-.518,5.888,2.135,5.823.906-4.7.906-4.7" transform="translate(-2042.391 -900.501)" fill="none" stroke="#000" stroke-miterlimit="10" stroke-width="0.25"/>
        <path id="Path_11113" data-name="Path 11113" d="M2127.838,1006.491s1.036,5.694,3.172,4.982,1.017-4.271,1.017-4.271" transform="translate(-2042.553 -906.504)" fill="none" stroke="#000" stroke-miterlimit="10" stroke-width="0.25"/>
        <path id="Path_11114" data-name="Path 11114" d="M2138.525,994.225s3.948-1.166,4.207.776-3.624,2.718-3.624,2.718" transform="translate(-2038.032 -911.839)" fill="none" stroke="#000" stroke-miterlimit="10" stroke-width="0.25"/>
        <path id="Path_11115" data-name="Path 11115" d="M2145.71,1004.521s2.588,3.689,4.4,2.136-2.2-4.077-2.2-4.077" transform="translate(-2034.992 -908.158)" fill="none" stroke="#000" stroke-miterlimit="10" stroke-width="0.25"/>
        <path id="Path_11116" data-name="Path 11116" d="M2143.891,984.276c.1.023,3.17-2.455,4.98-1.295,1.9,1.218-1.228,3.559-1.228,3.559" transform="translate(-2035.762 -916.58)" fill="none" stroke="#000" stroke-miterlimit="10" stroke-width="0.25"/>
        <path id="Path_11117" data-name="Path 11117" d="M2157.852,977.54a4.073,4.073,0,0,1,4.331-1.184c1.91.742.717,2.8-3.425,4.161" transform="translate(-2029.856 -919.357)" fill="none" stroke="#000" stroke-miterlimit="10" stroke-width="0.25"/>
        <path id="Path_11118" data-name="Path 11118" d="M2133.056,958.606s.558-4.887,2.374-4.678.768,3.491.768,3.491" transform="translate(-2040.345 -928.743)" fill="none" stroke="#000" stroke-miterlimit="10" stroke-width="0.25"/>
        <path id="Path_11119" data-name="Path 11119" d="M2129.612,962.065s-.769-2.862-2.654-1.675-1.117,6.422-1.117,6.422" transform="translate(-2043.463 -926.128)" fill="none" stroke="#000" stroke-miterlimit="10" stroke-width="0.25"/>
        <path id="Path_11120" data-name="Path 11120" d="M2125.305,979.125s.543-4.868,2.506-4.938.391,3.839.391,3.839" transform="translate(-2043.625 -920.17)" fill="none" stroke="#000" stroke-miterlimit="10" stroke-width="0.25"/>
        <path id="Path_11121" data-name="Path 11121" d="M2137.569,974s3.384-7.04,6.648-7.569-1.272,4.427-1.272,4.427" transform="translate(-2038.436 -923.469)" fill="none" stroke="#000" stroke-miterlimit="10" stroke-width="0.25"/>
        <path id="Path_11122" data-name="Path 11122" d="M2150.57,965.261s5.654-3.909,6.98-2.233-3.878,3.839-3.878,3.839" transform="translate(-2032.936 -925.067)" fill="none" stroke="#000" stroke-miterlimit="10" stroke-width="0.25"/>
        <path id="Path_11123" data-name="Path 11123" d="M2164.11,957.192s3.071-1.746,3.979-.42-3.212,2.933-3.212,2.933" transform="translate(-2027.208 -927.747)" fill="none" stroke="#000" stroke-miterlimit="10" stroke-width="0.25"/>
        <path id="Path_11124" data-name="Path 11124" d="M2152.59,955.755a5.091,5.091,0,0,1,1.466-5.166c2.443-2.164,2.3.628,2.3.628" transform="translate(-2032.164 -930.5)" fill="none" stroke="#000" stroke-miterlimit="10" stroke-width="0.25"/>
        <path id="Path_11125" data-name="Path 11125" d="M2113.177,972.262s-1.234-3.457,0-4.28,2.058,1.608,2.058,1.608" transform="translate(-2048.987 -922.867)" fill="none" stroke="#000" stroke-miterlimit="10" stroke-width="0.25"/>
        <path id="Path_11126" data-name="Path 11126" d="M2100.777,995.8s-2.715-.962-1.151-1.921" transform="translate(-2054.693 -911.839)" fill="none" stroke="#000" stroke-miterlimit="10" stroke-width="0.25"/>
        <path id="Path_11127" data-name="Path 11127" d="M2087.082,1026.908s-4.723,5.8-1.349,7.572,3.963-4.465,3.963-4.465" transform="translate(-2060.879 -897.866)" fill="none" stroke="#000" stroke-miterlimit="10" stroke-width="0.25"/>
      </g>
      <path id="Path_11128" data-name="Path 11128" d="M2103.725,1068.983a10.377,10.377,0,0,0,3.577,2.22" transform="translate(-2038.435 -867.881)" fill="none" stroke="#000" stroke-miterlimit="10" stroke-width="0.25"/>
      <path id="Path_11129" data-name="Path 11129" d="M2116.034,1064.649a5.5,5.5,0,0,0,3.246,1.974" transform="translate(-2033.228 -869.715)" fill="none" stroke="#000" stroke-miterlimit="10" stroke-width="0.25"/>
      <path id="Path_11130" data-name="Path 11130" d="M2119.675,1078.171a10.15,10.15,0,0,0,4.194,1.48" transform="translate(-2031.687 -863.995)" fill="none" stroke="#000" stroke-miterlimit="10" stroke-width="0.25"/>
      <path id="Path_11131" data-name="Path 11131" d="M2133.8,1064.649a5,5,0,0,1,2.672,2.714" transform="translate(-2025.71 -869.715)" fill="none" stroke="#000" stroke-miterlimit="10" stroke-width="0.25"/>
      <path id="Path_11132" data-name="Path 11132" d="M2136.059,1072.277a9,9,0,0,0,3.947,0" transform="translate(-2024.757 -866.488)" fill="none" stroke="#000" stroke-miterlimit="10" stroke-width="0.25"/>
      <path id="Path_11133" data-name="Path 11133" d="M2156.06,1063.01c.691.432,2.073,1.815,3.8,1.556" transform="translate(-2016.295 -870.408)" fill="none" stroke="#000" stroke-miterlimit="10" stroke-width="0.25"/>
      <path id="Path_11134" data-name="Path 11134" d="M2149.444,1048.2a2.91,2.91,0,0,0,2.678,1.986" transform="translate(-2019.094 -876.674)" fill="none" stroke="#000" stroke-miterlimit="10" stroke-width="0.25"/>
      <path id="Path_11135" data-name="Path 11135" d="M2165.652,1055.483a6.253,6.253,0,0,1,1.123,3.024" transform="translate(-2012.237 -873.592)" fill="none" stroke="#000" stroke-miterlimit="10" stroke-width="0.25"/>
      <path id="Path_11136" data-name="Path 11136" d="M2161.463,1029.745s.6,2.159,2.16,2.763" transform="translate(-2014.01 -884.481)" fill="none" stroke="#000" stroke-miterlimit="10" stroke-width="0.25"/>
      <path id="Path_11137" data-name="Path 11137" d="M2174.453,1020.882a4.72,4.72,0,0,1,1.037,3.283" transform="translate(-2008.514 -888.23)" fill="none" stroke="#000" stroke-miterlimit="10" stroke-width="0.25"/>
      <path id="Path_11138" data-name="Path 11138" d="M2189.365,977.907a4.106,4.106,0,0,1,2.386,1.777" transform="translate(-2002.206 -906.41)" fill="none" stroke="#000" stroke-miterlimit="10" stroke-width="0.25"/>
      <path id="Path_11139" data-name="Path 11139" d="M2192.512,969.384A4.924,4.924,0,0,1,2194.08,972" transform="translate(-2000.874 -910.016)" fill="none" stroke="#000" stroke-miterlimit="10" stroke-width="0.25"/>
      <path id="Path_11140" data-name="Path 11140" d="M2196.626,971.221a3.61,3.61,0,0,1,.731,1.881" transform="translate(-1999.134 -909.238)" fill="none" stroke="#000" stroke-miterlimit="10" stroke-width="0.25"/>
      <path id="Path_11141" data-name="Path 11141" d="M2198.757,978.531a5.512,5.512,0,0,1,1.358,2.554" transform="translate(-1998.233 -906.146)" fill="none" stroke="#000" stroke-miterlimit="10" stroke-width="0.25"/>
    </g>
    <g id="Group_3223" data-name="Group 3223" transform="translate(2286.448 996.267)">
      <path id="Path_11142" data-name="Path 11142" d="M2364.238,934.367c3.023,1.977-2.465,5.809-4.576,14.434s-5.809,27.812-16.371,48.936-30.277,44.711-40.662,53.336-57.384-3.432-57.384-3.432l-26.756-23.324s15.075-36.8,35.106-51.719,51.157-23.825,68.864-27.532,27.156-4.017,33.9-7.824C2361.3,934.456,2362.78,933.413,2364.238,934.367Z" transform="translate(-2218.489 -934.022)" fill="#a5b63d" stroke="#231815" stroke-miterlimit="10" stroke-width="0.25"/>
      <path id="Path_11143" data-name="Path 11143" d="M2357.267,934.264s-7.4,9.386-26.662,27.486-38.519,37.358-59.171,51.049-30.7,25.171-36.466,36.138" transform="translate(-2211.518 -933.919)" fill="none" stroke="#000" stroke-miterlimit="10" stroke-width="0.25"/>
      <path id="Path_11144" data-name="Path 11144" d="M2308.3,938.9s-5.413,10.946-3.173,17.122c0,0,12.513-.569,17.014-4.622" transform="translate(-2182.067 -931.96)" fill="none" stroke="#000" stroke-miterlimit="10" stroke-width="0.25"/>
      <path id="Path_11145" data-name="Path 11145" d="M2300.575,940.367s-7.159,15.063-5.264,28.166c0,0,18.236.756,27.761-5.393" transform="translate(-2186.126 -931.337)" fill="none" stroke="#000" stroke-miterlimit="10" stroke-width="0.25"/>
      <path id="Path_11146" data-name="Path 11146" d="M2292.359,942.062s-9.112,19.693-6.707,38.677c0,0,24.611,2.537,37.524-5.593" transform="translate(-2190.247 -930.62)" fill="none" stroke="#000" stroke-miterlimit="10" stroke-width="0.25"/>
      <path id="Path_11147" data-name="Path 11147" d="M2284.81,944.006s-11.3,26.931-7.9,47.074c0,0,23.475,4.838,45.435-5.047" transform="translate(-2194.044 -929.798)" fill="none" stroke="#000" stroke-miterlimit="10" stroke-width="0.25"/>
      <path id="Path_11148" data-name="Path 11148" d="M2274.8,946.853s-11.329,29.854-5.143,51.883c0,0,19.716,6.89,47.237,3.558" transform="translate(-2197.625 -928.593)" fill="none" stroke="#000" stroke-miterlimit="10" stroke-width="0.25"/>
      <path id="Path_11149" data-name="Path 11149" d="M2262.312,951.212s-7.669,27.1-2.139,55.385c0,0,16.14,7.444,51.677,7.592" transform="translate(-2201.703 -926.749)" fill="none" stroke="#000" stroke-miterlimit="10" stroke-width="0.25"/>
      <path id="Path_11150" data-name="Path 11150" d="M2253.474,955.439s-8.3,32.623-1.6,58.217c0,0,27.9,14.05,55.853,9.079" transform="translate(-2205.473 -924.961)" fill="none" stroke="#000" stroke-miterlimit="10" stroke-width="0.25"/>
      <path id="Path_11151" data-name="Path 11151" d="M2242.7,961.933s-5.96,33.033,3.037,57.672c0,0,23.333,14.027,56.139,11.276" transform="translate(-2209.065 -922.214)" fill="none" stroke="#000" stroke-miterlimit="10" stroke-width="0.25"/>
      <path id="Path_11152" data-name="Path 11152" d="M2234.684,970.3s-6.553,25.541,4.113,58.481" transform="translate(-2212.48 -918.675)" fill="none" stroke="#000" stroke-miterlimit="10" stroke-width="0.25"/>
      <path id="Path_11153" data-name="Path 11153" d="M2225.5,983.312s.3,27.022,11.2,41.746" transform="translate(-2215.522 -913.17)" fill="none" stroke="#000" stroke-miterlimit="10" stroke-width="0.25"/>
    </g>
    <g id="Group_3224" data-name="Group 3224" transform="translate(2311.37 1085.084)">
      <path id="Path_11154" data-name="Path 11154" d="M2361.765,997.077c2.216,2.216-4.257,4.865-6.843,12.925s-13.657,45.459-34.658,53.9-65.4-34.591-65.4-34.591L2236,1015.144a159.178,159.178,0,0,1,43.8-14.57c25.091-4.41,61.893-1.52,71.168-2.129S2359.939,995.251,2361.765,997.077Z" transform="translate(-2236.002 -996.435)" fill="#cad226" stroke="#231815" stroke-miterlimit="10" stroke-width="0.25"/>
      <path id="Path_11155" data-name="Path 11155" d="M2253.207,1041.17s3.629-7.908,33.9-14.9,50.194-17.792,65.857-28.741" transform="translate(-2228.724 -995.973)" fill="none" stroke="#000" stroke-miterlimit="10" stroke-width="0.25"/>
      <path id="Path_11156" data-name="Path 11156" d="M2314.853,997.9s-6.646,6.1-7.5,13.049a63.875,63.875,0,0,0,16.661.726" transform="translate(-2205.819 -995.815)" fill="none" stroke="#000" stroke-miterlimit="10" stroke-width="0.25"/>
      <path id="Path_11157" data-name="Path 11157" d="M2308.016,997.739s-7.528,8.608-10.254,19.36c0,0,16.309,4.669,27.778,2.16" transform="translate(-2209.876 -995.883)" fill="none" stroke="#000" stroke-miterlimit="10" stroke-width="0.25"/>
      <path id="Path_11158" data-name="Path 11158" d="M2299.12,997.527a58.478,58.478,0,0,0-10.862,24.428s19.225,10.163,36.986,8.3" transform="translate(-2213.896 -995.973)" fill="none" stroke="#000" stroke-miterlimit="10" stroke-width="0.25"/>
      <path id="Path_11159" data-name="Path 11159" d="M2290.3,997.658a81.374,81.374,0,0,0-11.9,28.094s17.858,15.972,45.6,15.363" transform="translate(-2218.066 -995.917)" fill="none" stroke="#000" stroke-miterlimit="10" stroke-width="0.25"/>
      <path id="Path_11160" data-name="Path 11160" d="M2281.69,998.021s-8.79,10.684-11.067,30.386c0,0,22.81,21.426,49.273,23.528" transform="translate(-2221.356 -995.764)" fill="none" stroke="#000" stroke-miterlimit="10" stroke-width="0.25"/>
      <path id="Path_11161" data-name="Path 11161" d="M2272.767,998.9s-9.678,14.532-10.529,33.255c0,0,23.624,28.565,50.551,28.921" transform="translate(-2224.903 -995.394)" fill="none" stroke="#000" stroke-miterlimit="10" stroke-width="0.25"/>
      <path id="Path_11162" data-name="Path 11162" d="M2263.353,1000.544a74.949,74.949,0,0,0-8.056,36.326" transform="translate(-2227.866 -994.697)" fill="none" stroke="#000" stroke-miterlimit="10" stroke-width="0.25"/>
      <path id="Path_11163" data-name="Path 11163" d="M2253.942,1002.838s-6.385,17.111-3.84,36.1" transform="translate(-2230.291 -993.726)" fill="none" stroke="#000" stroke-miterlimit="10" stroke-width="0.25"/>
    </g>
    <path id="Path_11164" data-name="Path 11164" d="M2099.979,1130.431c0-2.835,6.6-.754,10.369-4.715s18.4-25.151,37.766-36.427,29.548-16.178,49.723-12.974,19.279,9.428,29.343,9.24c0,0-3.133,4.148-12.75,18.478s-22.814,23.568-38.465,29.037-34.4,6.222-51.514,3.582S2099.979,1135.144,2099.979,1130.431Z" transform="translate(17.824 122.034)" fill="#a5b63d" stroke="#231815" stroke-miterlimit="10" stroke-width="0.25"/>
    <path id="Path_11165" data-name="Path 11165" d="M2099.979,1126.942s10.836,4.518,36.39-12.068c16.9-10.966,47.218-32.268,87.608-31.239" transform="translate(17.824 125.524)" fill="none" stroke="#000" stroke-miterlimit="10" stroke-width="0.25"/>
    <path id="Path_11166" data-name="Path 11166" d="M2109.711,1107.834s8.694-.717,14.179,1.817c0,0-1,8.679-8.179,12.641" transform="translate(21.942 135.736)" fill="none" stroke="#000" stroke-miterlimit="10" stroke-width="0.25"/>
    <path id="Path_11167" data-name="Path 11167" d="M2115.594,1100.844s11.817-1.258,19.372,3.407c0,0,0,14.982-8.185,22.736" transform="translate(24.43 132.753)" fill="none" stroke="#000" stroke-miterlimit="10" stroke-width="0.25"/>
    <path id="Path_11168" data-name="Path 11168" d="M2121.662,1094.551s17.011-1.227,26.456,2.746c0,0,5.681,16.223-6.5,32.555" transform="translate(26.998 130.081)" fill="none" stroke="#000" stroke-miterlimit="10" stroke-width="0.25"/>
    <path id="Path_11169" data-name="Path 11169" d="M2130.172,1087.485s17.169-.892,28.712,5.516c0,0,6.722,19.826-5.561,37.711" transform="translate(30.598 127.149)" fill="none" stroke="#000" stroke-miterlimit="10" stroke-width="0.25"/>
    <path id="Path_11170" data-name="Path 11170" d="M2141.183,1081s15.05-.2,27.06,9.372c0,0,6.176,18.01-4.95,38.49" transform="translate(35.256 124.425)" fill="none" stroke="#000" stroke-miterlimit="10" stroke-width="0.25"/>
    <path id="Path_11171" data-name="Path 11171" d="M2154.507,1075.933s14.6,3.814,22.306,12.953c0,0,5.31,11.432-2.953,33.132" transform="translate(40.892 122.28)" fill="none" stroke="#000" stroke-miterlimit="10" stroke-width="0.25"/>
    <path id="Path_11172" data-name="Path 11172" d="M2168.745,1076.029s8.992,3.676,14.218,11.148c0,0,2.985,13.886-5.327,26.207" transform="translate(46.916 122.321)" fill="none" stroke="#000" stroke-miterlimit="10" stroke-width="0.25"/>
    <path id="Path_11173" data-name="Path 11173" d="M2186.143,1099.685c10.734-5.278,22.893,6.432,30.437,1.134" transform="translate(54.275 131.735)" fill="none" stroke="#000" stroke-miterlimit="10" stroke-width="0.25"/>
    <ellipse id="Ellipse_1870" data-name="Ellipse 1870" cx="5.7" cy="3.231" rx="5.7" ry="3.231" transform="translate(2230.4 1261.469)" fill="#ecb36f" stroke="#000" stroke-linejoin="round" stroke-width="0.25"/>
    <ellipse id="Ellipse_1871" data-name="Ellipse 1871" cx="6.774" cy="2.887" rx="6.774" ry="2.887" transform="translate(2390.013 1272.994)" fill="#ecb36f" stroke="#000" stroke-linejoin="round" stroke-width="0.25"/>
    <ellipse id="Ellipse_1872" data-name="Ellipse 1872" cx="4.331" cy="2.443" rx="4.331" ry="2.443" transform="translate(2363.807 1252.34)" fill="#ecb36f" stroke="#000" stroke-linejoin="round" stroke-width="0.25"/>
    <ellipse id="Ellipse_1873" data-name="Ellipse 1873" cx="5.108" cy="2.81" rx="5.108" ry="2.81" transform="translate(2428.878 1198.595)" fill="#c19165" stroke="#000" stroke-linejoin="round" stroke-width="0.25"/>
    <ellipse id="Ellipse_1874" data-name="Ellipse 1874" cx="5.996" cy="2.957" rx="5.996" ry="2.957" transform="translate(2443.536 1211.698)" fill="#c19165" stroke="#000" stroke-linejoin="round" stroke-width="0.25"/>
    <ellipse id="Ellipse_1875" data-name="Ellipse 1875" cx="6.167" cy="2.948" rx="6.167" ry="2.948" transform="translate(2066.365 1205.427)" fill="#ecb36f" stroke="#000" stroke-linejoin="round" stroke-width="0.25"/>
    <ellipse id="Ellipse_1876" data-name="Ellipse 1876" cx="3.389" cy="2.364" rx="3.389" ry="2.364" transform="translate(2081.063 1199.998)" fill="#c19165" stroke="#000" stroke-linejoin="round" stroke-width="0.25"/>
    <ellipse id="Ellipse_1877" data-name="Ellipse 1877" cx="5.836" cy="3.231" rx="5.836" ry="3.231" transform="translate(2138.743 1283.536)" fill="#c19165" stroke="#000" stroke-linejoin="round" stroke-width="0.25"/>
    <path id="Path_11174" data-name="Path 11174" d="M2064.413,1096.99c3.153,2.68,9.043,3.465,20.944-1.867,16.57-7.427,29.265,4.23,36.787,1.078" transform="translate(2.779 129.331)" fill="none" stroke="#000" stroke-miterlimit="10" stroke-width="0.25"/>
    <path id="Path_11175" data-name="Path 11175" d="M2090.664,1107.622c5.673-5.968,15.581.992,18.586-2.633" transform="translate(13.884 134.572)" fill="none" stroke="#000" stroke-miterlimit="10" stroke-width="0.25"/>
    <path id="Path_11176" data-name="Path 11176" d="M2108.053,1095.818s5.2-1.988,7.094-.835" transform="translate(21.24 130.187)" fill="none" stroke="#000" stroke-miterlimit="10" stroke-width="0.25"/>
    <path id="Path_11177" data-name="Path 11177" d="M2162.934,1139.069c5.913-3.468,8.5-4.1,15.639,0s10.291-5.211,18.172-2.843,11.348,1.753,11.348,1.753" transform="translate(44.457 147.621)" fill="none" stroke="#000" stroke-miterlimit="10" stroke-width="0.25"/>
    <path id="Path_11178" data-name="Path 11178" d="M2194.669,1144.366c4.571-2.838,10.4.63,13.24,0s6.778-3.626,12.924-1.893" transform="translate(57.882 150.204)" fill="none" stroke="#000" stroke-miterlimit="10" stroke-width="0.25"/>
    <path id="Path_11179" data-name="Path 11179" d="M2219.147,1126.451c8.355-4.413,13.556,1.419,23.169.946s10.246-3.683,17.655-1.289a12.761,12.761,0,0,0,12.294-2.179" transform="translate(68.237 142.584)" fill="none" stroke="#000" stroke-miterlimit="10" stroke-width="0.25"/>
    <path id="Path_11180" data-name="Path 11180" d="M2296.026,1093.47s7.078-4.894,14.329-1.7,10.718,5.234,18.757,3.111,10.875.871,10.875.871" transform="translate(100.76 128.522)" fill="none" stroke="#000" stroke-miterlimit="10" stroke-width="0.25"/>
    <path id="Path_11181" data-name="Path 11181" d="M2304.968,1083.565a9.88,9.88,0,0,1,6.334,1.655c2.68,2.05,8.038-.842,8.038-.842" transform="translate(104.542 125.496)" fill="none" stroke="#000" stroke-miterlimit="10" stroke-width="0.25"/>
    <g id="Group_3225" data-name="Group 3225" transform="translate(2230.976 1066.41)">
      <path id="Path_11182" data-name="Path 11182" d="M2179.958,1031.373s-8.362,61.6,46.972,92.452,146.717,10.526,143.444-61.062Z" transform="translate(-2179.507 -962.98)" fill="#ffae2c" stroke="#000" stroke-linejoin="round" stroke-width="0.25"/>
      <path id="Path_11183" data-name="Path 11183" d="M2357.875,1072.975c1.009,7.679-12.2,17.646-18.442,23.335s-12.846.734-12.846.734c5.873,18.9-29.177,25.874-39.637,26.241s-11.194-5.322-11.194-5.322c-7.157,17.434-45.325,2.2-53.4-3.854s0-12.662,0-12.662c-13.58,7.709-23.49-17.616-26.976-26.057s2.019-10.826,2.019-10.826c-9.359-1.285-7.707-19.086-5.322-29.545s9.91-11.745,9.91-11.745c-11.928-9.176,2.385-28.627,5.481-32.114,2.9-3.262,7.05-2.132,7.575-1.971a134.164,134.164,0,0,0-14.463-5.877s-37.863,61.484-11.44,113.413,119.817,68.8,181.123-13.631C2370.262,1083.094,2367.442,1079.6,2357.875,1072.975Z" transform="translate(-2179.396 -983.312)" fill="#fff6eb" stroke="#000" stroke-miterlimit="10" stroke-width="0.25"/>
      <path id="Path_11184" data-name="Path 11184" d="M2204.361,989.508c-3.1,3.486-17.409,22.938-5.481,32.114,0,0-7.525,1.285-9.91,11.744s-4.037,28.26,5.322,29.545c0,0-5.506,2.385-2.019,10.826s13.4,33.766,26.976,26.057c0,0-8.076,6.607,0,12.662s46.243,21.287,53.4,3.854c0,0,.735,5.689,11.194,5.322s45.51-7.34,39.637-26.241c0,0,6.607,4.954,12.846-.734s19.452-15.657,18.443-23.335c-10.941-7.581-30.706-19.269-65.2-34.557.211,2.792-2.24,3.142-4.816,3.454s-2.967,3.123-4.606,3.748-2.578-1.8-5.544-1.874-2.109-3.2-3.842-6.013-4.669-2.109-3.888-4.763-.313-3.513.78-5.466,3.108-.475,3.108-.475-29.282-23.977-58.82-37.84C2211.411,987.376,2207.257,986.246,2204.361,989.508Z" transform="translate(-2176.29 -981.66)" fill="#ffc952" stroke="#000" stroke-linejoin="round" stroke-width="0.25"/>
      <path id="Path_11185" data-name="Path 11185" d="M2243.978,1014.668c-1.093,1.953,0,2.811-.78,5.466s2.154,1.953,3.888,4.763.875,5.934,3.842,6.012,3.9,2.5,5.544,1.874,2.03-3.435,4.606-3.748,5.027-.662,4.816-3.454c0,0-9.938-8.01-18.809-11.388C2247.086,1014.193,2245.071,1012.715,2243.978,1014.668Z" transform="translate(-2152.62 -970.475)" fill="#fff6eb" stroke="#000" stroke-miterlimit="10" stroke-width="0.25"/>
      <path id="Path_11186" data-name="Path 11186" d="M2195.382,1011.394s32.24,11.148,67.988,9.7" transform="translate(-2172.792 -971.432)" fill="none" stroke="#000" stroke-miterlimit="10" stroke-width="0.25"/>
      <path id="Path_11187" data-name="Path 11187" d="M2192.158,1047.694s13.8-.921,34.429-6.138,33.544-14.77,43.012-18.367" transform="translate(-2174.156 -966.442)" fill="none" stroke="#000" stroke-miterlimit="10" stroke-width="0.25"/>
      <path id="Path_11188" data-name="Path 11188" d="M2209.7,1083.612s4.291-.475,15.547-15.433,14.552-16.057,24.438-26.49,13.933-16.217,13.933-16.217" transform="translate(-2166.737 -965.477)" fill="none" stroke="#000" stroke-miterlimit="10" stroke-width="0.25"/>
      <path id="Path_11189" data-name="Path 11189" d="M2251.057,1026.071s-.2,14.649,0,30.243-3.439,37.173-3.836,43.56" transform="translate(-2150.862 -965.223)" fill="none" stroke="#000" stroke-miterlimit="10" stroke-width="0.25"/>
      <path id="Path_11190" data-name="Path 11190" d="M2255.725,1024.463s3.984,3.879,12.731,14.528,20.812,27.028,26,40.645" transform="translate(-2147.265 -965.904)" fill="none" stroke="#000" stroke-miterlimit="10" stroke-width="0.25"/>
      <line id="Line_537" data-name="Line 537" x2="1.237" y2="2.267" transform="translate(84.346 165.01)" fill="none" stroke="#000" stroke-miterlimit="10" stroke-width="0.25"/>
      <line id="Line_538" data-name="Line 538" y2="3.194" transform="translate(108.459 162.949)" fill="none" stroke="#000" stroke-miterlimit="10" stroke-width="0.25"/>
      <line id="Line_539" data-name="Line 539" x2="1.03" y2="2.267" transform="translate(123.916 165.01)" fill="none" stroke="#000" stroke-miterlimit="10" stroke-width="0.25"/>
      <line id="Line_540" data-name="Line 540" x2="0.824" y2="2.679" transform="translate(137.93 151.202)" fill="none" stroke="#000" stroke-miterlimit="10" stroke-width="0.25"/>
      <line id="Line_541" data-name="Line 541" y2="3.485" transform="translate(145.35 156.991)" fill="none" stroke="#000" stroke-miterlimit="10" stroke-width="0.25"/>
      <line id="Line_542" data-name="Line 542" y2="2.471" transform="translate(162.868 140.279)" fill="none" stroke="#000" stroke-miterlimit="10" stroke-width="0.25"/>
      <line id="Line_543" data-name="Line 543" y2="3.709" transform="translate(174.203 137.806)" fill="none" stroke="#000" stroke-miterlimit="10" stroke-width="0.25"/>
      <line id="Line_544" data-name="Line 544" x2="1.03" y2="1.855" transform="translate(170.081 127.707)" fill="none" stroke="#000" stroke-miterlimit="10" stroke-width="0.25"/>
      <line id="Line_545" data-name="Line 545" y2="2.061" transform="translate(176.264 123.791)" fill="none" stroke="#000" stroke-miterlimit="10" stroke-width="0.25"/>
      <ellipse id="Ellipse_1878" data-name="Ellipse 1878" cx="2.596" cy="4.458" rx="2.596" ry="4.458" transform="matrix(0.815, -0.579, 0.579, 0.815, 123.559, 68.574)" fill="#dffffa" stroke="#231815" stroke-miterlimit="10" stroke-width="0.25"/>
      <ellipse id="Ellipse_1879" data-name="Ellipse 1879" cx="2.104" cy="3.975" rx="2.104" ry="3.975" transform="translate(160.159 89.687) rotate(-63.494)" fill="#dffffa" stroke="#231815" stroke-miterlimit="10" stroke-width="0.25"/>
      <ellipse id="Ellipse_1880" data-name="Ellipse 1880" cx="4.223" cy="6.656" rx="4.223" ry="6.656" transform="translate(131.387 92.075) rotate(-81.532)" fill="#dffffa" stroke="#231815" stroke-miterlimit="10" stroke-width="0.25"/>
      <path id="Path_11191" data-name="Path 11191" d="M2254.158,1037.777c-1.321,2.641,1.006,10.193,2.641,3.746" transform="translate(-2148.093 -960.271)" fill="none" stroke="#000" stroke-miterlimit="10" stroke-width="0.25"/>
      <path id="Path_11192" data-name="Path 11192" d="M2261.908,1054.746c.692,4.905,3.4,7.546,5.218,6.666s-.5-3.9-2.137-4.087" transform="translate(-2144.649 -953.093)" fill="none" stroke="#000" stroke-miterlimit="10" stroke-width="0.25"/>
      <path id="Path_11193" data-name="Path 11193" d="M2271.541,1058.812c.377,2.2,2.7,7.3,4.843,6.293s-1.258-4.847-1.258-4.847" transform="translate(-2140.574 -951.373)" fill="none" stroke="#000" stroke-miterlimit="10" stroke-width="0.25"/>
      <path id="Path_11194" data-name="Path 11194" d="M2241.075,1042.193s-2.216,4.325-.924,5.275,2.862-2.187,2.862-2.187" transform="translate(-2154.024 -958.403)" fill="none" stroke="#000" stroke-miterlimit="10" stroke-width="0.25"/>
      <path id="Path_11195" data-name="Path 11195" d="M2234.171,1055.908s-8.4,6.328-6.37,9.137c1.328,1.834,4.707-2.492,4.707-2.492" transform="translate(-2159.212 -952.601)" fill="none" stroke="#000" stroke-miterlimit="10" stroke-width="0.25"/>
      <path id="Path_11196" data-name="Path 11196" d="M2241.671,1067.682c1.826,2.384.406,9.84-2.182,9.334s-2.435-3.754-1.318-5.174" transform="translate(-2155.014 -947.62)" fill="none" stroke="#000" stroke-miterlimit="10" stroke-width="0.25"/>
      <path id="Path_11197" data-name="Path 11197" d="M2255.229,1069.143c-1.471,2.182-1.218,6.8.659,7.051s1.826-4.21,1.826-4.21" transform="translate(-2147.876 -947.002)" fill="none" stroke="#000" stroke-miterlimit="10" stroke-width="0.25"/>
      <path id="Path_11198" data-name="Path 11198" d="M2209.092,1029.013c-2.644.722-6.973,2.525-6.371,4.93s5.289,0,5.289,0" transform="translate(-2169.711 -963.979)" fill="none" stroke="#000" stroke-miterlimit="10" stroke-width="0.25"/>
      <path id="Path_11199" data-name="Path 11199" d="M2206.422,1054.746s-3.846,4.016,0,2.813" transform="translate(-2168.845 -953.093)" fill="none" stroke="#000" stroke-miterlimit="10" stroke-width="0.25"/>
      <path id="Path_11200" data-name="Path 11200" d="M2214.039,1042.42c-2.579.645-5.157,3.495-3.949,5.131s4.352-1.424,4.352-1.424" transform="translate(-2166.7 -958.307)" fill="none" stroke="#000" stroke-miterlimit="10" stroke-width="0.25"/>
      <path id="Path_11201" data-name="Path 11201" d="M2229.037,1022.645c-2.337-.4-7.492-1.369-7.655,0s1.612,1.074,1.612,1.074" transform="translate(-2161.798 -966.973)" fill="none" stroke="#000" stroke-miterlimit="10" stroke-width="0.25"/>
      <path id="Path_11202" data-name="Path 11202" d="M2231.49,1012.022c-2.579-1.129-12.649-.645-12.489,1.531s5.076,1.044,5.076,1.044" transform="translate(-2162.801 -971.416)" fill="none" stroke="#000" stroke-miterlimit="10" stroke-width="0.25"/>
      <path id="Path_11203" data-name="Path 11203" d="M2219.461,1005.641c-.644-1.289-6.442-4.826-7.493-2.981-.831,1.46,2.176,4.35,2.176,4.35" transform="translate(-2165.837 -975.348)" fill="none" stroke="#000" stroke-miterlimit="10" stroke-width="0.25"/>
      <path id="Path_11204" data-name="Path 11204" d="M2237.211,1011.2c-.241-.161-4.243-6.849-7.091-5.156-1.749,1.039,2.094,5.156,2.094,5.156" transform="translate(-2158.289 -973.813)" fill="none" stroke="#000" stroke-miterlimit="10" stroke-width="0.25"/>
    </g>
  </g>
</svg>
