<svg xmlns="http://www.w3.org/2000/svg" xmlns:xlink="http://www.w3.org/1999/xlink" width="386.83" height="426.174" viewBox="0 0 386.83 426.174">
  <defs>
    <clipPath id="clip-path">
      <path id="Path_17334" data-name="Path 17334" d="M2674.471,843.713c5.762,2.064-1.205,20.491-14.866,67.9s-18.282,94.32-43.595,123.249-35.859,33.449-47.311,44.9-14.766,13.259-22.3,10.246-2.712-18.984-4.52-47.009,4.054-62.459,39.175-98.539C2636.2,887.809,2662.417,839.393,2674.471,843.713Z" transform="translate(-2541.589 -843.444)" fill="none"/>
    </clipPath>
  </defs>
  <g id="Group_4741" data-name="Group 4741" transform="translate(-2428.293 -790.858)">
    <g id="Group_4741-2" data-name="Group 4741" transform="translate(2481.634 799.435)">
      <path id="Path_17255" data-name="Path 17255" d="M2604.071,901.664s1.534-18.985,4.585-29.833-4.708-32.545-10.283-43.619-5.5-9.87-6.328-5.952-4.747,13.208-4.647,25.463-4.921,32.746-11.551,33.047-5.324-15.67-2.411-24.51,1.708-26.919-3.516-35.86-10.044-19.1-12.455-18.74-6.328,12.513-7.332,20.849-5.725,9.04-9.844-.8-23.3-24.209-24.911-23.706-2.812,8.94,0,21.3,7.032,22.2,2.712,23.2-17.8-8.036-25.262-7.81-4.369,2.561-1.205,7.307,1.356,15.444,25.539,23.731,32.282,25.237,24.955,27.045-25.558-3.917-39.5-12.506-28.627-10.019-29.908-8.512,5.5,21.546,23.354,29.456,21.346,12.254,30.285,22.6,23.88,11.754,23.88,11.754-17.93-.3-26.593-5.727-19.338-5.5-25.038-7.684-5.4-1.055-2.761,4.369,3.917,8.374,16.047,12.022,57.662,6.95,57.662,6.95Z" transform="translate(-2472.563 -797.99)" fill="#bfc632" stroke="#231815" stroke-miterlimit="10" stroke-width="0.25"/>
      <path id="Path_17256" data-name="Path 17256" d="M2508.083,798s51.73,87.024,65.994,140.545" transform="translate(-2465.268 -797.987)" fill="none" stroke="#000" stroke-miterlimit="10" stroke-width="0.25"/>
      <path id="Path_17257" data-name="Path 17257" d="M2537.784,863.7c15.987-28.513,6.287-62.662,6.287-62.662" transform="translate(-2459.168 -797.364)" fill="none" stroke="#000" stroke-miterlimit="10" stroke-width="0.25"/>
      <path id="Path_17258" data-name="Path 17258" d="M2485.589,829.538s30.027,25.668,62.914,28.307" transform="translate(-2469.887 -791.51)" fill="none" stroke="#000" stroke-miterlimit="10" stroke-width="0.25"/>
      <path id="Path_17259" data-name="Path 17259" d="M2576.053,815.948s12.528,64.123-18.762,98.187" transform="translate(-2455.162 -794.301)" fill="none" stroke="#000" stroke-miterlimit="10" stroke-width="0.25"/>
      <path id="Path_17260" data-name="Path 17260" d="M2472.688,859.188s48.39,44.523,101.978,46.067" transform="translate(-2472.537 -785.421)" fill="none" stroke="#000" stroke-miterlimit="10" stroke-width="0.25"/>
      <path id="Path_17261" data-name="Path 17261" d="M2490.469,900.375s16.31,18.711,50.261,19.074" transform="translate(-2468.885 -776.963)" fill="none" stroke="#000" stroke-miterlimit="10" stroke-width="0.25"/>
    </g>
    <g id="Group_4742" data-name="Group 4742" transform="translate(2432.289 883.861)">
      <path id="Path_17262" data-name="Path 17262" d="M2459.5,951.632s-14.765,2.154-22-4.13-9.14-9.5,2.11-12.108,22.1-2.009,23.2-6.731-8.337-7.031-15.067-18.281S2435.793,892,2439.209,891.1c2.524-.669,14.866-1.708,27.321,6.127s10.748,15.871,16.374,14.866-3.416-26.518,6.428-38.772,4.747-.8,13.221,10.044,16.009,20.792,17.012,33.65S2506.107,946.124,2459.5,951.632Z" transform="translate(-2431.625 -868.031)" fill="#bfc632" stroke="#231815" stroke-miterlimit="10" stroke-width="0.25"/>
      <path id="Path_17263" data-name="Path 17263" d="M2437.158,887.735s41.8,23.824,67.41,50.845" transform="translate(-2430.489 -863.984)" fill="none" stroke="#000" stroke-miterlimit="10" stroke-width="0.25"/>
      <path id="Path_17264" data-name="Path 17264" d="M2431.645,927.581s36.086,8.34,65.819,4.925" transform="translate(-2431.621 -855.801)" fill="none" stroke="#000" stroke-miterlimit="10" stroke-width="0.25"/>
      <path id="Path_17265" data-name="Path 17265" d="M2484.54,868.1s-1.223,15.023,3.448,35.325.9,29.069-1.356,38.472" transform="translate(-2420.788 -868.016)" fill="none" stroke="#000" stroke-miterlimit="10" stroke-width="0.25"/>
    </g>
    <g id="Group_4743" data-name="Group 4743" transform="translate(2428.391 929.973)">
      <path id="Path_17266" data-name="Path 17266" d="M2586.957,909.824c-15.6-3.883-27.652-7.1-72.251,4.756s-56.953,11.176-68.4,16.638-8.136,6.364-12.807,11.035-6.629,5.424-3.767,14.916,0,9.191,1.507,15.82S2437.412,987,2459.711,998s21.4,6.328,36.764,20.792,31.942,22.149,49.872,22.149Z" transform="translate(-2428.392 -906.286)" fill="#518937" stroke="#000" stroke-linejoin="round" stroke-width="0.25"/>
      <path id="Path_17267" data-name="Path 17267" d="M2466.833,933.61s45.6-18.9,98.439-8.042" transform="translate(-2420.497 -903.017)" fill="none" stroke="#000" stroke-linejoin="round" stroke-width="0.25"/>
      <path id="Path_17268" data-name="Path 17268" d="M2457.167,962.143s36.563,21.123,79.956,23.534" transform="translate(-2422.482 -894.815)" fill="none" stroke="#000" stroke-linejoin="round" stroke-width="0.25"/>
      <path id="Path_17269" data-name="Path 17269" d="M2437.463,943.208c3.076.09,6.178,10.9,1.305,11.451S2434.047,943.108,2437.463,943.208Z" transform="translate(-2427.036 -898.704)" fill="#fff6eb" stroke="#000" stroke-miterlimit="10" stroke-width="0.25"/>
      <path id="Path_17270" data-name="Path 17270" d="M2446.4,935.338c-1.03-1.829,3.013-3.917,3.993-1.883S2447.76,937.749,2446.4,935.338Z" transform="translate(-2424.727 -900.879)" fill="#3a6026" stroke="#000" stroke-linejoin="round" stroke-width="0.25"/>
      <path id="Path_17271" data-name="Path 17271" d="M2440.39,964.006c1.594-.407,3.338,2.788,1.831,3.541S2438.032,964.609,2440.39,964.006Z" transform="translate(-2426.118 -894.44)" fill="#3a6026" stroke="#000" stroke-linejoin="round" stroke-width="0.25"/>
      <path id="Path_17272" data-name="Path 17272" d="M2445.051,964.995c1.039-1.285,5.952,1.431,3.917,3.616S2443.771,966.576,2445.051,964.995Z" transform="translate(-2425.031 -894.298)" fill="#3a6026" stroke="#000" stroke-linejoin="round" stroke-width="0.25"/>
      <path id="Path_17273" data-name="Path 17273" d="M2488.958,987.315c.673-.932,5.047-.075,4.821,1.657S2487.978,988.671,2488.958,987.315Z" transform="translate(-2415.977 -889.724)" fill="#3a6026" stroke="#000" stroke-linejoin="round" stroke-width="0.25"/>
      <path id="Path_17274" data-name="Path 17274" d="M2490.011,992.687c1.28-.557,7.784.953,6.428,3.315S2487.349,993.841,2490.011,992.687Z" transform="translate(-2415.851 -888.566)" fill="#3a6026" stroke="#000" stroke-linejoin="round" stroke-width="0.25"/>
      <path id="Path_17275" data-name="Path 17275" d="M2500.513,996.024c.636-1.213,7.885,1.637,6.931,4.249S2499.659,997.65,2500.513,996.024Z" transform="translate(-2413.596 -887.916)" fill="#3a6026" stroke="#000" stroke-linejoin="round" stroke-width="0.25"/>
      <path id="Path_17276" data-name="Path 17276" d="M2494.862,1000.124c.752-.82,5.876,1.543,5.375,3.2S2493.607,1001.5,2494.862,1000.124Z" transform="translate(-2414.775 -887.05)" fill="#3a6026" stroke="#000" stroke-linejoin="round" stroke-width="0.25"/>
      <path id="Path_17277" data-name="Path 17277" d="M2507.1,1004.929c.752-1.682,6.882.753,6.479,2.712S2506.047,1007.29,2507.1,1004.929Z" transform="translate(-2412.249 -886.144)" fill="#3a6026" stroke="#000" stroke-linejoin="round" stroke-width="0.25"/>
      <path id="Path_17278" data-name="Path 17278" d="M2499.25,934.243c.111-2.209,5.876-1.657,5.976.352S2499.15,936.252,2499.25,934.243Z" transform="translate(-2413.84 -900.838)" fill="#3a6026" stroke="#000" stroke-linejoin="round" stroke-width="0.25"/>
      <path id="Path_17279" data-name="Path 17279" d="M2508.917,931.854c.115-1.912,8.387-1.241,7.784,1.388S2508.767,934.364,2508.917,931.854Z" transform="translate(-2411.855 -901.261)" fill="#3a6026" stroke="#000" stroke-linejoin="round" stroke-width="0.25"/>
      <path id="Path_17280" data-name="Path 17280" d="M2517.865,938.075c1.355-1.918,6.328.6,5.073,2.361S2516.659,939.783,2517.865,938.075Z" transform="translate(-2410.055 -899.899)" fill="#3a6026" stroke="#000" stroke-linejoin="round" stroke-width="0.25"/>
      <path id="Path_17281" data-name="Path 17281" d="M2518.467,929.838c.305-1.219,4.772-.1,4.521,1.557S2517.864,932.249,2518.467,929.838Z" transform="translate(-2409.903 -901.556)" fill="#3a6026" stroke="#000" stroke-linejoin="round" stroke-width="0.25"/>
      <path id="Path_17282" data-name="Path 17282" d="M2517.7,914.779c.689-1.715,4.6-1.507,4,.6S2516.813,916.989,2517.7,914.779Z" transform="translate(-2410.075 -904.778)" fill="#3a6026" stroke="#000" stroke-linejoin="round" stroke-width="0.25"/>
      <path id="Path_17283" data-name="Path 17283" d="M2525.235,910.511c2.207-1.293,8.79-1.155,6.831,1.456S2522.322,912.219,2525.235,910.511Z" transform="translate(-2408.636 -905.583)" fill="#3a6026" stroke="#000" stroke-linejoin="round" stroke-width="0.25"/>
      <path id="Path_17284" data-name="Path 17284" d="M2534.534,914.243c2.048-1.653,7.634-1.009,5.826,1S2531.672,916.554,2534.534,914.243Z" transform="translate(-2406.735 -904.846)" fill="#3a6026" stroke="#000" stroke-linejoin="round" stroke-width="0.25"/>
      <path id="Path_17285" data-name="Path 17285" d="M2544.362,910.658c1.5-1.415,11.8.831,10.4,3.277S2541.649,913.219,2544.362,910.658Z" transform="translate(-2404.659 -905.479)" fill="#3a6026" stroke="#000" stroke-linejoin="round" stroke-width="0.25"/>
      <path id="Path_17286" data-name="Path 17286" d="M2497.27,955.588c.772-1.883,5.876-.9,4.369,1.205S2496.465,957.547,2497.27,955.588Z" transform="translate(-2414.27 -896.367)" fill="#3a6026" stroke="#000" stroke-linejoin="round" stroke-width="0.25"/>
      <path id="Path_17287" data-name="Path 17287" d="M2506.889,958.806c1.155-2.712,5.876-.7,4.62,1.507S2506.191,960.445,2506.889,958.806Z" transform="translate(-2412.287 -895.769)" fill="#3a6026" stroke="#000" stroke-linejoin="round" stroke-width="0.25"/>
    </g>
    <g id="Group_4744" data-name="Group 4744" transform="translate(2709.594 957.639)">
      <path id="Path_17288" data-name="Path 17288" d="M2708.27,1021.793s-6.227-12.158-.8-15.235,14.865,8.777,32.142,4.559,22.5-22.9,21.7-24.911-13.189-.835-27.99.888-15.4-4.606-5.761-9.376,15.469-13.811,15.469-29.882-.6-18.182-1.808-18.583-15.771,8.192-24.911,19.564-11.149,19.51-16.573,16.4-4.119-16.472-14.365-24.307-12.254,26.417-4.62,38.471,8.639,15.189,3.716,15.681-14.966-3.124-20.993-2.019S2665.28,1040.507,2708.27,1021.793Z" transform="translate(-2661.684 -929.239)" fill="#bfc632" stroke="#231815" stroke-miterlimit="10" stroke-width="0.25"/>
      <path id="Path_17289" data-name="Path 17289" d="M2740.778,929.25s-36.988,77.043-76.954,94.521" transform="translate(-2661.244 -929.237)" fill="none" stroke="#000" stroke-miterlimit="10" stroke-width="0.25"/>
      <path id="Path_17290" data-name="Path 17290" d="M2678.1,938.122s.458,37.116,19.114,53.246" transform="translate(-2658.313 -927.414)" fill="none" stroke="#000" stroke-miterlimit="10" stroke-width="0.25"/>
      <path id="Path_17291" data-name="Path 17291" d="M2754.679,976.5s-31.741,17.478-60.724,6.986" transform="translate(-2655.056 -919.533)" fill="none" stroke="#000" stroke-miterlimit="10" stroke-width="0.25"/>
    </g>
    <g id="Group_4745" data-name="Group 4745" transform="translate(2702.177 1044.313)">
      <path id="Path_17292" data-name="Path 17292" d="M2664.8,1005.224s24.309-4.455,36.161-4.052,12.956.611,12.907,2.013-12.1,2.707-22.349,5.822-19.588,14.564-5.726,17.277,19.738-4.219,32.544-6.328,29.532,1.808,30.135,4.52-12.807,6.987-18.532,14.192-4.068,11.723,15.368,18.8,24.107,28.627,22,30.134-31.641,6.479-40.079-2.109-7.835-18.382-15.82-17.478-2.863,21.4-4.37,30.285-8.287,8.136-19.738-5.876-14.917-32.394-29.08-46.708Z" transform="translate(-2654.978 -1001.146)" fill="#bfc632" stroke="#231815" stroke-miterlimit="10" stroke-width="0.25"/>
      <path id="Path_17293" data-name="Path 17293" d="M2767.858,1082.887s-78.354-50.475-112.328-58.762" transform="translate(-2655.53 -996.427)" fill="none" stroke="#000" stroke-miterlimit="10" stroke-width="0.25"/>
      <path id="Path_17294" data-name="Path 17294" d="M2679.195,1035.933c23.624-9.879,64.97-15.433,64.97-15.433" transform="translate(-2650.671 -997.171)" fill="none" stroke="#000" stroke-miterlimit="10" stroke-width="0.25"/>
      <path id="Path_17295" data-name="Path 17295" d="M2698.844,1097.445s-21.94-33.9-19.621-64.141" transform="translate(-2650.7 -994.542)" fill="none" stroke="#000" stroke-miterlimit="10" stroke-width="0.25"/>
    </g>
    <g id="Group_4746" data-name="Group 4746" transform="translate(2641.51 1080.6)">
      <path id="Path_17296" data-name="Path 17296" d="M2640.614,1049.25c2.716.094-2.26,10.4-5.375,8.187S2637.7,1049.15,2640.614,1049.25Z" transform="translate(-2599.219 -1027.554)" fill="none" stroke="#000" stroke-miterlimit="10" stroke-width="0.25"/>
      <path id="Path_17297" data-name="Path 17297" d="M2642.175,1031.25a222.924,222.924,0,0,1,30.436,8.287c15.067,5.424,13.511-2.109,29.884,14.464s18.783,22.751,17.126,23.2-15.472-1.657-27.022-4.219-26.327-1.959-30.841,1.808,3.019,11.451,25.921,11.9,40.079,12.656,39.325,15.519-23.2.3-26.819,4.369-1.5,6.78,12.206,15.368,16.319,26.82,14.637,28.176-15.091,5.123-26.843-1.356-16.273-20.34-22.9-20.491,6.328,30.887.151,31.792-17.628-9.944-20.341-31.189-8.437-32.244-14.917-32.093-5.725,15.82,0,34.8,7.986,26.066,6.177,26.97-17.929-7.684-22.6-18.382l-4.671-10.7s-9.04-8.287-12.506-16.574-3.375-44.749-3.375-44.749Z" transform="translate(-2605.2 -1031.25)" fill="#bfc632" stroke="#231815" stroke-miterlimit="10" stroke-width="0.25"/>
      <path id="Path_17298" data-name="Path 17298" d="M2724.569,1148.463s-69.232-45.038-107.4-109.1" transform="translate(-2602.742 -1029.584)" fill="none" stroke="#000" stroke-miterlimit="10" stroke-width="0.25"/>
      <path id="Path_17299" data-name="Path 17299" d="M2715.474,1072.934s-23.722-20.43-90.085-20.888" transform="translate(-2601.053 -1026.979)" fill="none" stroke="#000" stroke-miterlimit="10" stroke-width="0.25"/>
      <path id="Path_17300" data-name="Path 17300" d="M2645.287,1154.722s-38.081-58.782-20.546-104.751" transform="translate(-2602.135 -1027.406)" fill="none" stroke="#000" stroke-miterlimit="10" stroke-width="0.25"/>
      <path id="Path_17301" data-name="Path 17301" d="M2666.783,1147.675s-16.281-23.51-6.722-56.053" transform="translate(-2594.551 -1018.852)" fill="none" stroke="#000" stroke-miterlimit="10" stroke-width="0.25"/>
      <path id="Path_17302" data-name="Path 17302" d="M2715.841,1090.9s-16.973-11.294-56.293,1.8" transform="translate(-2594.038 -1019.93)" fill="none" stroke="#000" stroke-miterlimit="10" stroke-width="0.25"/>
    </g>
    <g id="Group_4750" data-name="Group 4750" transform="translate(2531.589 790.948)">
      <path id="Path_17303" data-name="Path 17303" d="M2724.154,801.036c9.5,11.408,12.913,20.5,12.913,44.782s-14.665,50.6-18.081,76.716-1.306,71.044-9.441,98.905-21.7,78.786-61.172,102.291-63.984,15.854-84.677,17.821-22.663,2.925-33.43-3.481Z" transform="translate(-2510.667 -788.876)" fill="#518937" stroke="#000" stroke-linejoin="round" stroke-width="0.25"/>
      <path id="Path_17304" data-name="Path 17304" d="M2713.231,798.33c6.311,1.931,12.158-1.1,17.583,9.6s3.465,25.162-4.972,45.352A526.034,526.034,0,0,0,2694,964.071c-8.839,51.027-10.044,110.09-45.4,135s-56.652,26.919-72.725,30.536-17.578,4.369-26.919,10.848-10.7,1.055-18.08-1.657-4.068-7.684-4.972-19.135-14.916-36.864-11.3-72.222,9.944-69.409,60.569-128.17,53.94-60.067,75.436-86.184,37.468-42,48.642-41.592C2705.427,791.721,2703.819,795.451,2713.231,798.33Z" transform="translate(-2514.007 -790.837)" fill="#ff9536" stroke="#000" stroke-linejoin="round" stroke-width="0.25"/>
      <path id="Path_17305" data-name="Path 17305" d="M2674.64,843.713c5.761,2.064-1.206,20.491-14.866,67.9s-18.282,94.32-43.594,123.249-35.86,33.449-47.311,44.9-14.766,13.259-22.3,10.246-2.712-18.984-4.52-47.009,4.054-62.459,39.174-98.539C2636.37,887.809,2662.586,839.393,2674.64,843.713Z" transform="translate(-2508.307 -780.166)" fill="#ffc064" stroke="#000" stroke-linejoin="round" stroke-width="0.25"/>
      <path id="Path_17306" data-name="Path 17306" d="M2622.6,844.6c5.176-.644,7.333,1.812,3.114,6.132s-10.546,3.315-10.546-.5C2615.167,846.51,2619.892,844.934,2622.6,844.6Z" transform="translate(-2493.232 -779.95)" fill="#dffffa" stroke="#231815" stroke-miterlimit="10" stroke-width="0.25"/>
      <path id="Path_17307" data-name="Path 17307" d="M2633.163,831.789c2.112,2.112-1.91,7.232-4.923,5.323S2630.349,828.976,2633.163,831.789Z" transform="translate(-2490.735 -782.707)" fill="#dffffa" stroke="#231815" stroke-miterlimit="10" stroke-width="0.25"/>
      <path id="Path_17308" data-name="Path 17308" d="M2651.25,820.125a16.347,16.347,0,0,1,0,4.068" transform="translate(-2485.821 -784.955)" fill="none" stroke="#252f33" stroke-miterlimit="10" stroke-width="0.25"/>
      <path id="Path_17309" data-name="Path 17309" d="M2653.125,821.063a9.6,9.6,0,0,1,0,4.143" transform="translate(-2485.436 -784.763)" fill="none" stroke="#252f33" stroke-miterlimit="10" stroke-width="0.25"/>
      <path id="Path_17310" data-name="Path 17310" d="M2677.033,838.188a2.151,2.151,0,0,1-1.657,1.356" transform="translate(-2480.867 -781.246)" fill="none" stroke="#252f33" stroke-miterlimit="10" stroke-width="0.25"/>
      <path id="Path_17311" data-name="Path 17311" d="M2677.786,840.688a3.769,3.769,0,0,1-2.41,1.205" transform="translate(-2480.867 -780.733)" fill="none" stroke="#252f33" stroke-miterlimit="10" stroke-width="0.25"/>
      <path id="Path_17312" data-name="Path 17312" d="M2633.559,1006.628c3.816,2.582-1.205,9.644-6.429,6.715S2629.741,1004.045,2633.559,1006.628Z" transform="translate(-2491.132 -746.778)" fill="#dffffa" stroke="#231815" stroke-miterlimit="10" stroke-width="0.25"/>
      <path id="Path_17313" data-name="Path 17313" d="M2644.5,932.644s3.415-1.356,5.223,0" transform="translate(-2487.208 -761.972)" fill="none" stroke="#252f33" stroke-miterlimit="10" stroke-width="0.25"/>
      <path id="Path_17314" data-name="Path 17314" d="M2645,937.167a4.719,4.719,0,0,0,3.415,1.14" transform="translate(-2487.104 -760.919)" fill="none" stroke="#252f33" stroke-miterlimit="10" stroke-width="0.25"/>
      <path id="Path_17315" data-name="Path 17315" d="M2641.583,962.633s1.507,3.857,4.019,4.561" transform="translate(-2487.806 -755.689)" fill="none" stroke="#252f33" stroke-miterlimit="10" stroke-width="0.25"/>
      <path id="Path_17316" data-name="Path 17316" d="M2584.125,898.688s1.055,3.088,3.24,4.068" transform="translate(-2499.606 -768.821)" fill="none" stroke="#252f33" stroke-miterlimit="10" stroke-width="0.25"/>
      <path id="Path_17317" data-name="Path 17317" d="M2587.313,896.125a6.947,6.947,0,0,1,1.356,3.089" transform="translate(-2498.951 -769.348)" fill="none" stroke="#252f33" stroke-miterlimit="10" stroke-width="0.25"/>
      <path id="Path_17318" data-name="Path 17318" d="M2639.417,866.024s.6-1.356,1.356-1.607" transform="translate(-2488.251 -775.859)" fill="none" stroke="#252f33" stroke-miterlimit="10" stroke-width="0.25"/>
      <path id="Path_17319" data-name="Path 17319" d="M2693.029,849.632c1.442.462,1.507,7.76-1.582,8.89S2690.519,848.828,2693.029,849.632Z" transform="translate(-2477.879 -778.904)" fill="#3a6026" stroke="#000" stroke-linejoin="round" stroke-width="0.25"/>
      <path id="Path_17320" data-name="Path 17320" d="M2694,860.084c1.543.214-.146,6.379-2.158,6.731S2692.19,859.833,2694,860.084Z" transform="translate(-2477.643 -776.75)" fill="#3a6026" stroke="#000" stroke-linejoin="round" stroke-width="0.25"/>
      <path id="Path_17321" data-name="Path 17321" d="M2668.583,936.67c1.288.265,1.556,5.575-.5,5.624S2666.875,936.318,2668.583,936.67Z" transform="translate(-2482.613 -761.024)" fill="#3a6026" stroke="#000" stroke-linejoin="round" stroke-width="0.25"/>
      <path id="Path_17322" data-name="Path 17322" d="M2669.974,945.555c1.987-1.115,1.86,10.9-.6,10.446S2667.916,946.709,2669.974,945.555Z" transform="translate(-2482.396 -759.211)" fill="#3a6026" stroke="#000" stroke-linejoin="round" stroke-width="0.25"/>
      <path id="Path_17323" data-name="Path 17323" d="M2664.635,959.168c1.348.158,1.255,8.136-.9,7.734S2662.927,958.966,2664.635,959.168Z" transform="translate(-2483.486 -756.402)" fill="#3a6026" stroke="#000" stroke-linejoin="round" stroke-width="0.25"/>
      <path id="Path_17324" data-name="Path 17324" d="M2672.493,963.3c1.972,2.479.253,11.8-3.563,10.848S2669.181,959.129,2672.493,963.3Z" transform="translate(-2482.507 -755.711)" fill="#3a6026" stroke="#000" stroke-linejoin="round" stroke-width="0.25"/>
      <path id="Path_17325" data-name="Path 17325" d="M2671.943,979.733c1.561-3.215,3.364-.3,1.858,4.017C2672.925,986.26,2669.449,984.869,2671.943,979.733Z" transform="translate(-2481.754 -752.458)" fill="#3a6026" stroke="#000" stroke-linejoin="round" stroke-width="0.25"/>
      <path id="Path_17326" data-name="Path 17326" d="M2654.572,1028.783c2.065,1.234-1.631,9.944-4.343,8.538S2651.883,1027.177,2654.572,1028.783Z" transform="translate(-2486.207 -742.144)" fill="#3a6026" stroke="#000" stroke-linejoin="round" stroke-width="0.25"/>
      <path id="Path_17327" data-name="Path 17327" d="M2652.621,1039.528c1.374.919-.889,7.735-3.953,7.433S2650.448,1038.072,2652.621,1039.528Z" transform="translate(-2486.554 -739.932)" fill="#3a6026" stroke="#000" stroke-linejoin="round" stroke-width="0.25"/>
      <path id="Path_17328" data-name="Path 17328" d="M2577.723,1075.622c-.828-1.735,4.721-4.168,5.375-2.16S2578.777,1077.831,2577.723,1075.622Z" transform="translate(-2500.939 -733.084)" fill="#3a6026" stroke="#000" stroke-linejoin="round" stroke-width="0.25"/>
      <path id="Path_17329" data-name="Path 17329" d="M2588,1077.731c1.448,1.9-5.072,3.767-7.031,1.255S2586.547,1075.821,2588,1077.731Z" transform="translate(-2500.32 -732.279)" fill="#3a6026" stroke="#000" stroke-linejoin="round" stroke-width="0.25"/>
      <path id="Path_17330" data-name="Path 17330" d="M2569.169,1079.929c.2-1.4,9.24-3.423,8.939-.461S2568.817,1082.348,2569.169,1079.929Z" transform="translate(-2502.68 -732.009)" fill="#3a6026" stroke="#000" stroke-linejoin="round" stroke-width="0.25"/>
      <path id="Path_17331" data-name="Path 17331" d="M2673.82,791.061c3.076-.8,3.365,2.812,7.282,4.168s6.88-1.507,8.688,1.959-1.356,9.04-11.752,6.479S2669.752,792.116,2673.82,791.061Z" transform="translate(-2481.873 -790.948)" fill="#fff6eb" stroke="#000" stroke-miterlimit="10" stroke-width="0.25"/>
      <g id="Group_4749" data-name="Group 4749" transform="translate(33.248 63.278)">
        <g id="Group_4748" data-name="Group 4748" clip-path="url(#clip-path)">
          <g id="Group_4747" data-name="Group 4747" transform="translate(3.467 37.198)">
            <circle id="Ellipse_2732" data-name="Ellipse 2732" cx="6.716" cy="6.716" r="6.716" transform="translate(102.674)" fill="#6d4a32" stroke="#000" stroke-linejoin="round" stroke-width="0.25"/>
            <circle id="Ellipse_2733" data-name="Ellipse 2733" cx="6.716" cy="6.716" r="6.716" transform="translate(104.273 16.522)" fill="#6d4a32" stroke="#000" stroke-linejoin="round" stroke-width="0.25"/>
            <circle id="Ellipse_2734" data-name="Ellipse 2734" cx="6.716" cy="6.716" r="6.716" transform="translate(81.541 21.939)" fill="#6d4a32" stroke="#000" stroke-linejoin="round" stroke-width="0.25"/>
            <circle id="Ellipse_2735" data-name="Ellipse 2735" cx="6.716" cy="6.716" r="6.716" transform="translate(88.257 43.332)" fill="#6d4a32" stroke="#000" stroke-linejoin="round" stroke-width="0.25"/>
            <circle id="Ellipse_2736" data-name="Ellipse 2736" cx="6.716" cy="6.716" r="6.716" transform="translate(98.985 42.087)" fill="#6d4a32" stroke="#000" stroke-linejoin="round" stroke-width="0.25"/>
            <circle id="Ellipse_2737" data-name="Ellipse 2737" cx="6.716" cy="6.716" r="6.716" transform="translate(57.692 40.961)" fill="#6d4a32" stroke="#000" stroke-linejoin="round" stroke-width="0.25"/>
            <circle id="Ellipse_2738" data-name="Ellipse 2738" cx="6.716" cy="6.716" r="6.716" transform="translate(54.959 52.411)" fill="#6d4a32" stroke="#000" stroke-linejoin="round" stroke-width="0.25"/>
            <circle id="Ellipse_2739" data-name="Ellipse 2739" cx="6.716" cy="6.716" r="6.716" transform="translate(86.951 63.48)" fill="#6d4a32" stroke="#000" stroke-linejoin="round" stroke-width="0.25"/>
            <circle id="Ellipse_2740" data-name="Ellipse 2740" cx="6.716" cy="6.716" r="6.716" transform="translate(58.876 82.258)" fill="#6d4a32" stroke="#000" stroke-linejoin="round" stroke-width="0.25"/>
            <circle id="Ellipse_2741" data-name="Ellipse 2741" cx="6.716" cy="6.716" r="6.716" transform="translate(75.998 80.014)" fill="#6d4a32" stroke="#000" stroke-linejoin="round" stroke-width="0.25"/>
            <circle id="Ellipse_2742" data-name="Ellipse 2742" cx="6.716" cy="6.716" r="6.716" transform="translate(68.554 86.73)" fill="#6d4a32" stroke="#000" stroke-linejoin="round" stroke-width="0.25"/>
            <circle id="Ellipse_2743" data-name="Ellipse 2743" cx="6.716" cy="6.716" r="6.716" transform="translate(70.016 103.874)" fill="#6d4a32" stroke="#000" stroke-linejoin="round" stroke-width="0.25"/>
            <circle id="Ellipse_2744" data-name="Ellipse 2744" cx="6.716" cy="6.716" r="6.716" transform="translate(59.774 107.172)" fill="#6d4a32" stroke="#000" stroke-linejoin="round" stroke-width="0.25"/>
            <circle id="Ellipse_2745" data-name="Ellipse 2745" cx="6.716" cy="6.716" r="6.716" transform="translate(80.235 101.262)" fill="#6d4a32" stroke="#000" stroke-linejoin="round" stroke-width="0.25"/>
            <circle id="Ellipse_2746" data-name="Ellipse 2746" cx="6.716" cy="6.716" r="6.716" transform="translate(80.235 88.974)" fill="#6d4a32" stroke="#000" stroke-linejoin="round" stroke-width="0.25"/>
            <circle id="Ellipse_2747" data-name="Ellipse 2747" cx="6.716" cy="6.716" r="6.716" transform="translate(36.698 61.331)" fill="#6d4a32" stroke="#000" stroke-linejoin="round" stroke-width="0.25"/>
            <circle id="Ellipse_2748" data-name="Ellipse 2748" cx="6.716" cy="6.716" r="6.716" transform="translate(38.122 78.552)" fill="#6d4a32" stroke="#000" stroke-linejoin="round" stroke-width="0.25"/>
            <circle id="Ellipse_2749" data-name="Ellipse 2749" cx="6.716" cy="6.716" r="6.716" transform="translate(5.842 104.606)" fill="#6d4a32" stroke="#000" stroke-linejoin="round" stroke-width="0.25"/>
            <circle id="Ellipse_2750" data-name="Ellipse 2750" cx="6.716" cy="6.716" r="6.716" transform="translate(31.406 97.158)" fill="#6d4a32" stroke="#000" stroke-linejoin="round" stroke-width="0.25"/>
            <circle id="Ellipse_2751" data-name="Ellipse 2751" cx="6.716" cy="6.716" r="6.716" transform="translate(15.2 122.914)" fill="#6d4a32" stroke="#000" stroke-linejoin="round" stroke-width="0.25"/>
            <circle id="Ellipse_2752" data-name="Ellipse 2752" cx="6.716" cy="6.716" r="6.716" transform="translate(10.863 133.518)" fill="#6d4a32" stroke="#000" stroke-linejoin="round" stroke-width="0.25"/>
            <circle id="Ellipse_2753" data-name="Ellipse 2753" cx="6.716" cy="6.716" r="6.716" transform="translate(0 138.659)" fill="#6d4a32" stroke="#000" stroke-linejoin="round" stroke-width="0.25"/>
            <circle id="Ellipse_2754" data-name="Ellipse 2754" cx="6.716" cy="6.716" r="6.716" transform="translate(21.554 143.535)" fill="#6d4a32" stroke="#000" stroke-linejoin="round" stroke-width="0.25"/>
            <circle id="Ellipse_2755" data-name="Ellipse 2755" cx="6.716" cy="6.716" r="6.716" transform="translate(31.406 134.674)" fill="#6d4a32" stroke="#000" stroke-linejoin="round" stroke-width="0.25"/>
            <circle id="Ellipse_2756" data-name="Ellipse 2756" cx="6.716" cy="6.716" r="6.716" transform="translate(40.204 141.391)" fill="#6d4a32" stroke="#000" stroke-linejoin="round" stroke-width="0.25"/>
            <circle id="Ellipse_2757" data-name="Ellipse 2757" cx="6.716" cy="6.716" r="6.716" transform="translate(31.406 154.226)" fill="#6d4a32" stroke="#000" stroke-linejoin="round" stroke-width="0.25"/>
            <circle id="Ellipse_2758" data-name="Ellipse 2758" cx="6.716" cy="6.716" r="6.716" transform="translate(34.986 164.745)" fill="#6d4a32" stroke="#000" stroke-linejoin="round" stroke-width="0.25"/>
            <circle id="Ellipse_2759" data-name="Ellipse 2759" cx="6.716" cy="6.716" r="6.716" transform="translate(24.69 168.582)" fill="#6d4a32" stroke="#000" stroke-linejoin="round" stroke-width="0.25"/>
            <circle id="Ellipse_2760" data-name="Ellipse 2760" cx="6.716" cy="6.716" r="6.716" transform="translate(26.05 179.284)" fill="#6d4a32" stroke="#000" stroke-linejoin="round" stroke-width="0.25"/>
            <circle id="Ellipse_2761" data-name="Ellipse 2761" cx="6.716" cy="6.716" r="6.716" transform="translate(12.618 189.714)" fill="#6d4a32" stroke="#000" stroke-linejoin="round" stroke-width="0.25"/>
            <circle id="Ellipse_2762" data-name="Ellipse 2762" cx="6.716" cy="6.716" r="6.716" transform="translate(8.121 179.284)" fill="#6d4a32" stroke="#000" stroke-linejoin="round" stroke-width="0.25"/>
            <circle id="Ellipse_2763" data-name="Ellipse 2763" cx="6.716" cy="6.716" r="6.716" transform="translate(10.798 156.987)" fill="#6d4a32" stroke="#000" stroke-linejoin="round" stroke-width="0.25"/>
            <circle id="Ellipse_2764" data-name="Ellipse 2764" cx="6.716" cy="6.716" r="6.716" transform="translate(0.885 161.759)" fill="#6d4a32" stroke="#000" stroke-linejoin="round" stroke-width="0.25"/>
            <circle id="Ellipse_2765" data-name="Ellipse 2765" cx="6.716" cy="6.716" r="6.716" transform="translate(42.116 159.373)" fill="#6d4a32" stroke="#000" stroke-linejoin="round" stroke-width="0.25"/>
            <circle id="Ellipse_2766" data-name="Ellipse 2766" cx="6.716" cy="6.716" r="6.716" transform="translate(50.558 135.93)" fill="#6d4a32" stroke="#000" stroke-linejoin="round" stroke-width="0.25"/>
            <circle id="Ellipse_2767" data-name="Ellipse 2767" cx="6.716" cy="6.716" r="6.716" transform="translate(46.342 121.242)" fill="#6d4a32" stroke="#000" stroke-linejoin="round" stroke-width="0.25"/>
            <circle id="Ellipse_2768" data-name="Ellipse 2768" cx="6.716" cy="6.716" r="6.716" transform="translate(57.274 125.777)" fill="#6d4a32" stroke="#000" stroke-linejoin="round" stroke-width="0.25"/>
            <circle id="Ellipse_2769" data-name="Ellipse 2769" cx="6.716" cy="6.716" r="6.716" transform="translate(66.49 132.086)" fill="#6d4a32" stroke="#000" stroke-linejoin="round" stroke-width="0.25"/>
            <circle id="Ellipse_2770" data-name="Ellipse 2770" cx="6.716" cy="6.716" r="6.716" transform="translate(61.838 143.535)" fill="#6d4a32" stroke="#000" stroke-linejoin="round" stroke-width="0.25"/>
            <circle id="Ellipse_2771" data-name="Ellipse 2771" cx="6.716" cy="6.716" r="6.716" transform="translate(68.554 124.071)" fill="#6d4a32" stroke="#000" stroke-linejoin="round" stroke-width="0.25"/>
            <path id="Path_17332" data-name="Path 17332" d="M2610.506,913.167s-1.306,6.382-4.923,9.921" transform="translate(-2531.915 -866.324)" fill="none" stroke="#252f33" stroke-miterlimit="10" stroke-width="0.25"/>
            <path id="Path_17333" data-name="Path 17333" d="M2611.237,914.793a6.42,6.42,0,0,1-.9,3.227" transform="translate(-2530.939 -865.99)" fill="none" stroke="#252f33" stroke-miterlimit="10" stroke-width="0.25"/>
          </g>
        </g>
      </g>
    </g>
    <g id="Group_4751" data-name="Group 4751" transform="translate(2451.123 1084.496)">
      <ellipse id="Ellipse_2772" data-name="Ellipse 2772" cx="7.383" cy="3.358" rx="7.383" ry="3.358" transform="translate(17.058)" fill="#ecb36f" stroke="#000" stroke-linejoin="round" stroke-width="0.25"/>
      <path id="Path_17335" data-name="Path 17335" d="M2524.447,1048.307s-3.422,3.415-18.489,0-16.272-1.294-25.313.759a35.279,35.279,0,0,1-17.478-.9" transform="translate(-2443.981 -1032.012)" fill="none" stroke="#252f33" stroke-miterlimit="10" stroke-width="0.25"/>
      <path id="Path_17336" data-name="Path 17336" d="M2447.25,1048.151s4.119-3.558,10.246,0" transform="translate(-2447.25 -1031.999)" fill="none" stroke="#252f33" stroke-miterlimit="10" stroke-width="0.25"/>
      <ellipse id="Ellipse_2773" data-name="Ellipse 2773" cx="6.178" cy="3.516" rx="6.178" ry="3.516" transform="translate(44.096 34.777)" fill="#c19165" stroke="#000" stroke-linejoin="round" stroke-width="0.25"/>
      <ellipse id="Ellipse_2774" data-name="Ellipse 2774" cx="10.145" cy="4.922" rx="10.145" ry="4.922" transform="translate(69.51 62.299)" fill="#c19165" stroke="#000" stroke-linejoin="round" stroke-width="0.25"/>
      <ellipse id="Ellipse_2775" data-name="Ellipse 2775" cx="4.068" cy="2.712" rx="4.068" ry="2.712" transform="translate(41.685 72.143)" fill="#ecb36f" stroke="#000" stroke-linejoin="round" stroke-width="0.25"/>
      <path id="Path_17337" data-name="Path 17337" d="M2483,1108.1s7.434,5.424,17.679,1.1,18.281-1.607,25.211,3.315,17.779.353,19.588-2.736" transform="translate(-2439.908 -1019.58)" fill="none" stroke="#252f33" stroke-miterlimit="10" stroke-width="0.25"/>
      <path id="Path_17338" data-name="Path 17338" d="M2553.083,1098.223s4.118,3.415,11.652.7,10.343.6,12.2,2.109" transform="translate(-2425.516 -1021.459)" fill="none" stroke="#252f33" stroke-miterlimit="10" stroke-width="0.25"/>
      <path id="Path_17339" data-name="Path 17339" d="M2580.649,1106.025s4.943-4.721,12.577,0,14.766,0,14.766,0" transform="translate(-2419.854 -1020.22)" fill="none" stroke="#252f33" stroke-miterlimit="10" stroke-width="0.25"/>
      <ellipse id="Ellipse_2776" data-name="Ellipse 2776" cx="5.349" cy="3.315" rx="5.349" ry="3.315" transform="translate(153.819 112.218)" fill="#c19165" stroke="#000" stroke-linejoin="round" stroke-width="0.25"/>
      <path id="Path_17340" data-name="Path 17340" d="M2530.5,1139.648s5.223,4.42,14.263.4,9.543,2.712,24.308,3.315" transform="translate(-2430.153 -1013.063)" fill="none" stroke="#252f33" stroke-miterlimit="10" stroke-width="0.25"/>
      <path id="Path_17341" data-name="Path 17341" d="M2615.167,1140.5s4.921-3.716,10.948.7,12.958-1.082,12.958-1.082" transform="translate(-2412.766 -1013.009)" fill="none" stroke="#252f33" stroke-miterlimit="10" stroke-width="0.25"/>
      <path id="Path_17342" data-name="Path 17342" d="M2708.583,1095.389s3.766,3.315,12.2.351a15.336,15.336,0,0,1,14.464,2.16" transform="translate(-2393.581 -1022.091)" fill="none" stroke="#252f33" stroke-miterlimit="10" stroke-width="0.25"/>
      <ellipse id="Ellipse_2777" data-name="Ellipse 2777" cx="6.077" cy="3.461" rx="6.077" ry="3.461" transform="translate(337.754 60.6)" fill="#c19165" stroke="#000" stroke-linejoin="round" stroke-width="0.25"/>
      <ellipse id="Ellipse_2778" data-name="Ellipse 2778" cx="3.917" cy="1.908" rx="3.917" ry="1.908" transform="translate(319.271 62.149)" fill="#ecb36f" stroke="#000" stroke-linejoin="round" stroke-width="0.25"/>
      <ellipse id="Ellipse_2779" data-name="Ellipse 2779" cx="5.911" cy="3.348" rx="5.911" ry="3.348" transform="translate(24.44 125.715)" fill="#ecb36f" stroke="#000" stroke-linejoin="round" stroke-width="0.25"/>
    </g>
  </g>
</svg>
