<svg xmlns="http://www.w3.org/2000/svg" xmlns:xlink="http://www.w3.org/1999/xlink" width="429.211" height="457.102" viewBox="0 0 429.211 457.102">
  <defs>
    <clipPath id="clip-path">
      <path id="Path_17071" data-name="Path 17071" d="M774.264,1438.017c-10.217-10.677-41.424-8.2-67.564,3.323s-58.425,32.453-71.328,49.62c-8.87,11.8-21.487,38.883,4.873,42.48s55.38-5.93,73.1-14.791,34.336-30.63,43.86-35.694S794.187,1458.84,774.264,1438.017Z" transform="translate(-624.445 -1431.214)" fill="none"/>
    </clipPath>
  </defs>
  <g id="Group_4730" data-name="Group 4730" transform="translate(-499.938 -1300.799)">
    <g id="Group_4708" data-name="Group 4708" transform="translate(500 1576.323)">
      <ellipse id="Ellipse_2684" data-name="Ellipse 2684" cx="4.818" cy="2.99" rx="4.818" ry="2.99" transform="translate(350.218 13.786)" fill="#ecb36f" stroke="#000" stroke-linejoin="round" stroke-width="0.25"/>
      <ellipse id="Ellipse_2685" data-name="Ellipse 2685" cx="3.821" cy="1.994" rx="3.821" ry="1.994" transform="translate(361.1 22.757)" fill="#c19165" stroke="#000" stroke-linejoin="round" stroke-width="0.25"/>
      <path id="Path_16911" data-name="Path 16911" d="M744.072,1536.3a13.765,13.765,0,0,1,9.042,1.728c4.237,2.658,8.805,2.908,13.79,0s12.793-2.99,17.112.665" transform="translate(-419.676 -1498.989)" fill="none" stroke="#252f33" stroke-miterlimit="10" stroke-width="0.25"/>
      <path id="Path_16912" data-name="Path 16912" d="M783.188,1541.718s4.652-3.9,9.552-1.744,7.31,1.106,8.805-.651" transform="translate(-406.803 -1497.861)" fill="none" stroke="#252f33" stroke-miterlimit="10" stroke-width="0.25"/>
      <path id="Path_16913" data-name="Path 16913" d="M714.25,1575.514a13.265,13.265,0,0,1,12.793,0c7.144,3.655,16.448,2.824,22.1,0s13.789-2.84,21.266.408,17.777,4.908,25.419-1.239" transform="translate(-429.49 -1486.634)" fill="none" stroke="#252f33" stroke-miterlimit="10" stroke-width="0.25"/>
      <ellipse id="Ellipse_2686" data-name="Ellipse 2686" cx="7.725" cy="3.678" rx="7.725" ry="3.678" transform="translate(234.42 89.499)" fill="#c19165" stroke="#000" stroke-linejoin="round" stroke-width="0.25"/>
      <path id="Path_16914" data-name="Path 16914" d="M697.75,1591.887s8.307-4.652,16.946,0,17.943,2.326,21.432,0" transform="translate(-434.92 -1481.243)" fill="none" stroke="#252f33" stroke-miterlimit="10" stroke-width="0.25"/>
      <ellipse id="Ellipse_2687" data-name="Ellipse 2687" cx="6.064" cy="3.572" rx="6.064" ry="3.572" transform="translate(349.72 119.449)" fill="#ecb36f" stroke="#000" stroke-linejoin="round" stroke-width="0.25"/>
      <ellipse id="Ellipse_2688" data-name="Ellipse 2688" cx="4.652" cy="2.741" rx="4.652" ry="2.741" transform="translate(365.17 132.907)" fill="#ecb36f" stroke="#000" stroke-linejoin="round" stroke-width="0.25"/>
      <path id="Path_16915" data-name="Path 16915" d="M760.75,1624.6s8.141-3.157,15.285,0,11.131,1.587,14.288-.7" transform="translate(-414.187 -1470.259)" fill="none" stroke="#252f33" stroke-miterlimit="10" stroke-width="0.25"/>
      <path id="Path_16916" data-name="Path 16916" d="M633.531,1618.327a14.38,14.38,0,0,1,15.077,0c8.141,4.818,19.937,4.486,26.25,0s12.46-1.661,15.617,1.5" transform="translate(-456.055 -1472.628)" fill="none" stroke="#252f33" stroke-miterlimit="10" stroke-width="0.25"/>
      <ellipse id="Ellipse_2689" data-name="Ellipse 2689" cx="4.735" cy="3.406" rx="4.735" ry="3.406" transform="translate(205.905 174.641)" fill="#c19165" stroke="#000" stroke-linejoin="round" stroke-width="0.25"/>
      <path id="Path_16917" data-name="Path 16917" d="M682.188,1618.469s5.9-2.577,10.051,0,10.633-1.144,10.633-1.144" transform="translate(-440.042 -1472.191)" fill="none" stroke="#252f33" stroke-miterlimit="10" stroke-width="0.25"/>
      <ellipse id="Ellipse_2690" data-name="Ellipse 2690" cx="11.048" cy="5.566" rx="11.048" ry="5.566" transform="translate(63.797 131.411)" fill="#c19165" stroke="#000" stroke-linejoin="round" stroke-width="0.25"/>
      <ellipse id="Ellipse_2691" data-name="Ellipse 2691" cx="6.147" cy="3.323" rx="6.147" ry="3.323" transform="translate(49.011 146.198)" fill="#c19165" stroke="#000" stroke-linejoin="round" stroke-width="0.25"/>
      <path id="Path_16918" data-name="Path 16918" d="M543.652,1581.826s10.265,5.15,17.907,0,16.448-2.363,19.438,1.145,13.789,5,18.441-.48" transform="translate(-485.634 -1484.805)" fill="none" stroke="#252f33" stroke-miterlimit="10" stroke-width="0.25"/>
      <ellipse id="Ellipse_2692" data-name="Ellipse 2692" cx="3.904" cy="2.49" rx="3.904" ry="2.49" transform="translate(27.579)" fill="#ecb36f" stroke="#000" stroke-linejoin="round" stroke-width="0.25"/>
      <path id="Path_16919" data-name="Path 16919" d="M506,1521.766s7.808,5.358,14.62,0,14.312-.569,17.444,1.191c6.978,3.918,13.692,1.925,17.313-2.229" transform="translate(-498.025 -1504.45)" fill="none" stroke="#252f33" stroke-miterlimit="10" stroke-width="0.25"/>
      <path id="Path_16920" data-name="Path 16920" d="M500,1531.971a11.226,11.226,0,0,0,9.8,0,8.574,8.574,0,0,1,9.3,1.11" transform="translate(-500 -1500.57)" fill="none" stroke="#252f33" stroke-miterlimit="10" stroke-width="0.25"/>
    </g>
    <path id="Path_16921" data-name="Path 16921" d="M735.291,1350.808s-5.483-13.457-13.79-11.464-7.31,9.968-3.156,11.464,11.962-4.32,6.147-15.451-21.93-6.978-26.748,5.15,9.3,25.087,15.617,31.234,7.642,18.773,5.815,25.751-5.815,19.272,1.661,28.576" transform="translate(64.754 9.201)" fill="none" stroke="#252f33" stroke-miterlimit="10" stroke-width="0.25"/>
    <g id="Group_4709" data-name="Group 4709" transform="translate(737.278 1349.922)">
      <path id="Path_16922" data-name="Path 16922" d="M819.376,1337.9c-1.978-1.2-11.63,7.144-13.79,7.476s-1.827-2.658-3.987-2.492-6.479,5.649-8.473,5.981-2.16-2.824-3.655-2.492-4.652,3.655-5.649,3.655-1.163-2.326-2.326-1.994-5.815,8.639-7.808,8.971-1.5-2.824-2.492-2.99-15.659,17.038-18.463,17.49-1.806-2.371-3.468-2.205-5.316,14.122-6.978,15.285-2.326-1.329-3.323-1-2.658,15.118-4.154,16.115-1.033-1.828-2.593-.831-1.727,8.971-3.056,9.137-2.326-1.329-2.99-.83,2.073,14.62-2.036,17.112-9.825-3.156-10.374-8.639-1.712-5.649-2.377-5.649-1.163,1.329-1.91,1.329-1.247-12.294-2.742-13.125-1.994.443-2.99.332-3.433-13.623-5.206-13.734-3.211,1-4.54,1-3.877-11.474-5.206-11.275-1.219,1.639-2.216,1.639-1.882-4.32-3.1-4.209-1.107,3.877-1.994,3.987-14.316,62.468,24.463,97.246,69.792,66.842,82.64,69.307,14.842.249,15.285-.748-1.772-4.451-1.107-5.161,10.411,1.6,11.3,0-1.329-5.5-.665-6.426,12.627.529,13.291-.643-2.88-4.326-2.216-5.739,14.4.258,15.729-1.131-2.658-5.283-1.773-7.1,15.729-4.116,16.614-5.515-1.882-4.5-1.439-5.165,8.529-1.661,9.082-3.1-2.768-3.545-2.326-5.206,6.646.775,7.31-.775-3.1-3.157-2.935-4.209,5.593-3.877,5.538-5.094-5.815-2.6-6.535-3.711,1.938-4.762.941-5.593-8.473-1.329-9.138-2.548,2.16-5.759.554-6.147-10.689-.222-11.63-1.5.664-3.433-.941-4.209-8.917,1.385-10.134,1-1.5-4.208-2.77-4.706-4.818,2.214-6.257,1.828-2.326-3.6-3.267-3.877-6.147,2.824-7.864,2.27-.554-2.824-1.5-3.211-7.919,2.99-9.138,2.547.388-3.267-.887-3.6-8.749,4.874-10.3,1.883,8.141-7.2,7.7-8.639-3.711-1.607-3.655-2.88,15.727-11.3,15.229-12.682-3.821-2.27-3.821-3.6,13.679-12.848,13.623-14.232-4.374-1.883-4.374-3.156,10.411-9.914,10.079-11.907-4.652-2.048-4.818-2.99,6.424-10.854,6.424-12.183-4.6-2.16-5.039-4.265,8.694-10.577,7.7-11.85-9.58-2.271-10.411-3.711,6.091-13.734,5.15-15.783-4.542-.554-5.759-1.053S820.927,1338.845,819.376,1337.9Z" transform="translate(-678.525 -1337.786)" fill="#a5b63d" stroke="#231815" stroke-miterlimit="10" stroke-width="0.25"/>
      <path id="Path_16923" data-name="Path 16923" d="M809.374,1337.875s-49.013,98.652-100.457,145.729" transform="translate(-668.523 -1337.757)" fill="none" stroke="#000" stroke-miterlimit="10" stroke-width="0.25"/>
      <path id="Path_16924" data-name="Path 16924" d="M766.109,1350.333s-1.249,16.974,3.535,21.889" transform="translate(-649.749 -1333.657)" fill="none" stroke="#000" stroke-miterlimit="10" stroke-width="0.25"/>
      <path id="Path_16925" data-name="Path 16925" d="M787.253,1360.5s-9.476,8.621-18.52,8.376" transform="translate(-648.837 -1330.31)" fill="none" stroke="#000" stroke-miterlimit="10" stroke-width="0.25"/>
      <path id="Path_16926" data-name="Path 16926" d="M754.863,1357.833s-3.389,21.029,3.842,36.542" transform="translate(-653.663 -1331.189)" fill="none" stroke="#000" stroke-miterlimit="10" stroke-width="0.25"/>
      <path id="Path_16927" data-name="Path 16927" d="M788.548,1380.25s-14.519,9.255-30.991,6.748" transform="translate(-652.515 -1323.811)" fill="none" stroke="#000" stroke-miterlimit="10" stroke-width="0.25"/>
      <path id="Path_16928" data-name="Path 16928" d="M747.155,1414.987s-10.242-12.519-10.9-39.651" transform="translate(-659.526 -1325.428)" fill="none" stroke="#000" stroke-miterlimit="10" stroke-width="0.25"/>
      <path id="Path_16929" data-name="Path 16929" d="M779.4,1401.333s-17.95,9.2-34.947,5.1" transform="translate(-656.827 -1316.873)" fill="none" stroke="#000" stroke-miterlimit="10" stroke-width="0.25"/>
      <path id="Path_16930" data-name="Path 16930" d="M733.967,1431.372c-10.634-11.276-12.325-32.063-12.325-32.063" transform="translate(-664.335 -1317.539)" fill="none" stroke="#000" stroke-miterlimit="10" stroke-width="0.25"/>
      <path id="Path_16931" data-name="Path 16931" d="M770.236,1418.25s-17.716,12.964-39.321,6.889" transform="translate(-661.283 -1311.305)" fill="none" stroke="#000" stroke-miterlimit="10" stroke-width="0.25"/>
      <line id="Line_595" data-name="Line 595" x2="15.371" y2="18.406" transform="translate(20.642 93.986)" fill="none" stroke="#000" stroke-miterlimit="10" stroke-width="0.25"/>
      <path id="Path_16932" data-name="Path 16932" d="M702.1,1399.75s3.026,12.014-2.944,19.753" transform="translate(-671.734 -1317.394)" fill="none" stroke="#000" stroke-miterlimit="10" stroke-width="0.25"/>
      <path id="Path_16933" data-name="Path 16933" d="M689.323,1416.623s7.379,2.824,13.074-2.011" transform="translate(-674.971 -1312.502)" fill="none" stroke="#000" stroke-miterlimit="10" stroke-width="0.25"/>
      <path id="Path_16934" data-name="Path 16934" d="M714.072,1411s.1,8.364-3.066,14.108" transform="translate(-667.835 -1313.691)" fill="none" stroke="#000" stroke-miterlimit="10" stroke-width="0.25"/>
      <path id="Path_16935" data-name="Path 16935" d="M842.587,1449.667s-53.133,2.769-79.945,4.293" transform="translate(-650.842 -1300.965)" fill="none" stroke="#000" stroke-miterlimit="10" stroke-width="0.25"/>
      <path id="Path_16936" data-name="Path 16936" d="M811.558,1443.906s-10.23,4.9-11.719,9.262" transform="translate(-638.601 -1302.862)" fill="none" stroke="#000" stroke-miterlimit="10" stroke-width="0.25"/>
      <path id="Path_16937" data-name="Path 16937" d="M814.923,1460.843s-10.516-1.412-15.084-9.968" transform="translate(-638.601 -1300.568)" fill="none" stroke="#000" stroke-miterlimit="10" stroke-width="0.25"/>
      <path id="Path_16938" data-name="Path 16938" d="M807.141,1440.188s-14.372,3.478-21.266,15.2" transform="translate(-643.196 -1304.085)" fill="none" stroke="#000" stroke-miterlimit="10" stroke-width="0.25"/>
      <path id="Path_16939" data-name="Path 16939" d="M804.068,1469.985s-11.464-2.492-18.193-18.364" transform="translate(-643.196 -1300.323)" fill="none" stroke="#000" stroke-miterlimit="10" stroke-width="0.25"/>
      <path id="Path_16940" data-name="Path 16940" d="M790.084,1436.188s-15.379,8.009-20.026,21.657" transform="translate(-648.401 -1305.401)" fill="none" stroke="#000" stroke-miterlimit="10" stroke-width="0.25"/>
      <path id="Path_16941" data-name="Path 16941" d="M797.227,1476.015s-21.1-4.486-27.17-23.533" transform="translate(-648.401 -1300.039)" fill="none" stroke="#000" stroke-miterlimit="10" stroke-width="0.25"/>
      <path id="Path_16942" data-name="Path 16942" d="M770.3,1432.746s-7.642,6.295-9.8,15.4" transform="translate(-651.547 -1306.535)" fill="none" stroke="#000" stroke-miterlimit="10" stroke-width="0.25"/>
      <path id="Path_16943" data-name="Path 16943" d="M785.234,1479.758s-13.9-2.523-20.01-11.644" transform="translate(-649.992 -1294.895)" fill="none" stroke="#000" stroke-miterlimit="10" stroke-width="0.25"/>
    </g>
    <g id="Group_4710" data-name="Group 4710" transform="translate(752.861 1319.868)">
      <path id="Path_16944" data-name="Path 16944" d="M766.761,1316.244s-1.832,1.669-3.909,15.542-16.946,62.716-25.419,74.014-38.876,42.271-47.183,58.018l10.865-.866s12.56-20.435,27.014-32.729,21.93-30.911,28.243-48.6,12.793-36.462,13.125-42.776,0-12.709,5.316-18.774Z" transform="translate(-690.25 -1314.822)" fill="#ddd658" stroke="#000" stroke-linejoin="round" stroke-width="0.25"/>
      <path id="Path_16945" data-name="Path 16945" d="M748.434,1315.94c3.069-2.3,9.47,1,7.476,4.486S745.111,1318.432,748.434,1315.94Z" transform="translate(-671.346 -1315.174)" fill="#a5b63d" stroke="#231815" stroke-miterlimit="10" stroke-width="0.25"/>
    </g>
    <g id="Group_4711" data-name="Group 4711" transform="translate(555.651 1300.91)">
      <path id="Path_16946" data-name="Path 16946" d="M681.155,1345.624c-6.4.112-24.7-12.4-54.545-4.762-35.289,9.038-57.377,29.781-77.007,78.527-16.759,41.616-9.34,113.86,52.91,139.113s128.261-42.089,138.007-91.708-2.768-74.762-14.73-94.7S693.836,1345.4,681.155,1345.624Z" transform="translate(-541.871 -1288.575)" fill="#aa506a" stroke="#000" stroke-linejoin="round" stroke-width="0.25"/>
      <path id="Path_16947" data-name="Path 16947" d="M662.243,1363.113c3.269-2.335,9.8,4.984,7.144,6.479S659.917,1364.774,662.243,1363.113Z" transform="translate(-502.413 -1280.589)" fill="#dffffa" stroke="#231815" stroke-miterlimit="10" stroke-width="0.25"/>
      <path id="Path_16948" data-name="Path 16948" d="M671.616,1371.734c3.821-2.326,14.454,5.15,9.47,8.805S667.8,1374.06,671.616,1371.734Z" transform="translate(-499.492 -1277.746)" fill="#dffffa" stroke="#231815" stroke-miterlimit="10" stroke-width="0.25"/>
      <path id="Path_16949" data-name="Path 16949" d="M647.625,1355.25a6.334,6.334,0,0,1,3.545,4.818" transform="translate(-507.067 -1283.026)" fill="none" stroke="#252f33" stroke-miterlimit="10" stroke-width="0.25"/>
      <path id="Path_16950" data-name="Path 16950" d="M650.292,1353.253s5.925-.332,7.919,2.658" transform="translate(-506.19 -1283.688)" fill="none" stroke="#252f33" stroke-miterlimit="10" stroke-width="0.25"/>
      <path id="Path_16951" data-name="Path 16951" d="M644.25,1355.25a8.456,8.456,0,0,1,0,4.818" transform="translate(-508.178 -1283.026)" fill="none" stroke="#252f33" stroke-miterlimit="10" stroke-width="0.25"/>
      <path id="Path_16952" data-name="Path 16952" d="M637.525,1351.024s-3.489-.665-5.15,1.5" transform="translate(-512.086 -1284.449)" fill="none" stroke="#252f33" stroke-miterlimit="10" stroke-width="0.25"/>
      <path id="Path_16953" data-name="Path 16953" d="M639.783,1354.2s-2.16.9-2.658,2.392" transform="translate(-510.523 -1283.372)" fill="none" stroke="#252f33" stroke-miterlimit="10" stroke-width="0.25"/>
      <path id="Path_16954" data-name="Path 16954" d="M632.375,1348.026a6.746,6.746,0,0,1,5.15,1.163" transform="translate(-512.086 -1285.439)" fill="none" stroke="#252f33" stroke-miterlimit="10" stroke-width="0.25"/>
      <path id="Path_16955" data-name="Path 16955" d="M633.873,1368.046s-1.661,1.49-1.5,2.819" transform="translate(-512.089 -1278.815)" fill="none" stroke="#252f33" stroke-miterlimit="10" stroke-width="0.25"/>
      <path id="Path_16956" data-name="Path 16956" d="M618.8,1350.927s-2.326.1-2.879,1.592" transform="translate(-517.502 -1284.449)" fill="none" stroke="#252f33" stroke-miterlimit="10" stroke-width="0.25"/>
      <path id="Path_16957" data-name="Path 16957" d="M598.957,1353.294a4.663,4.663,0,0,0-4.874,1.334" transform="translate(-524.688 -1283.74)" fill="none" stroke="#252f33" stroke-miterlimit="10" stroke-width="0.25"/>
      <path id="Path_16958" data-name="Path 16958" d="M593.515,1363.917s-2.991,1-3.765,3.543" transform="translate(-526.114 -1280.174)" fill="none" stroke="#252f33" stroke-miterlimit="10" stroke-width="0.25"/>
      <path id="Path_16959" data-name="Path 16959" d="M614.8,1366a3.677,3.677,0,0,0-2.548,3.433" transform="translate(-518.709 -1279.489)" fill="none" stroke="#252f33" stroke-miterlimit="10" stroke-width="0.25"/>
      <path id="Path_16960" data-name="Path 16960" d="M596.077,1382.583s-1.882,1-1.994,4.32" transform="translate(-524.688 -1274.031)" fill="none" stroke="#252f33" stroke-miterlimit="10" stroke-width="0.25"/>
      <path id="Path_16961" data-name="Path 16961" d="M576.575,1380.917s-2.658,1.107-2.658,3.655" transform="translate(-531.324 -1274.58)" fill="none" stroke="#252f33" stroke-miterlimit="10" stroke-width="0.25"/>
      <path id="Path_16962" data-name="Path 16962" d="M580.106,1393a6.829,6.829,0,0,0-2.436,5.871" transform="translate(-530.094 -1270.603)" fill="none" stroke="#252f33" stroke-miterlimit="10" stroke-width="0.25"/>
      <path id="Path_16963" data-name="Path 16963" d="M619.994,1382.292s-1.883,1.163-1.994,5.925" transform="translate(-516.817 -1274.127)" fill="none" stroke="#252f33" stroke-miterlimit="10" stroke-width="0.25"/>
      <path id="Path_16964" data-name="Path 16964" d="M642.606,1383.667a6.384,6.384,0,0,0-1.439,4.1" transform="translate(-509.192 -1273.674)" fill="none" stroke="#252f33" stroke-miterlimit="10" stroke-width="0.25"/>
      <path id="Path_16965" data-name="Path 16965" d="M615.98,1398.167s-1.551.665-1.219,3.544" transform="translate(-517.898 -1268.902)" fill="none" stroke="#252f33" stroke-miterlimit="10" stroke-width="0.25"/>
      <path id="Path_16966" data-name="Path 16966" d="M603.75,1402.667s-2.658,1.772-2.326,5.981" transform="translate(-522.281 -1267.422)" fill="none" stroke="#252f33" stroke-miterlimit="10" stroke-width="0.25"/>
      <path id="Path_16967" data-name="Path 16967" d="M590.139,1404.917a6.257,6.257,0,0,0-1.551,4.652" transform="translate(-526.502 -1266.681)" fill="none" stroke="#252f33" stroke-miterlimit="10" stroke-width="0.25"/>
      <path id="Path_16968" data-name="Path 16968" d="M578.066,1415.667s-1.76,1.55-1.648,3.323" transform="translate(-530.503 -1263.143)" fill="none" stroke="#252f33" stroke-miterlimit="10" stroke-width="0.25"/>
      <path id="Path_16969" data-name="Path 16969" d="M554.311,1426.583a5.315,5.315,0,0,0-2.216,5.1" transform="translate(-538.522 -1259.55)" fill="none" stroke="#252f33" stroke-miterlimit="10" stroke-width="0.25"/>
      <path id="Path_16970" data-name="Path 16970" d="M563.83,1440.167a4.808,4.808,0,0,0-1.661,3.655" transform="translate(-535.193 -1255.08)" fill="none" stroke="#252f33" stroke-miterlimit="10" stroke-width="0.25"/>
      <path id="Path_16971" data-name="Path 16971" d="M588.363,1428.083s-1.994,2.326-1.329,4.32" transform="translate(-527.052 -1259.057)" fill="none" stroke="#252f33" stroke-miterlimit="10" stroke-width="0.25"/>
      <path id="Path_16972" data-name="Path 16972" d="M611.022,1411.833s-1.661,1-1.772,4.431" transform="translate(-519.696 -1264.405)" fill="none" stroke="#252f33" stroke-miterlimit="10" stroke-width="0.25"/>
      <path id="Path_16973" data-name="Path 16973" d="M617.59,1434.25a6.309,6.309,0,0,0-1.551,5.981" transform="translate(-517.514 -1257.028)" fill="none" stroke="#252f33" stroke-miterlimit="10" stroke-width="0.25"/>
      <path id="Path_16974" data-name="Path 16974" d="M599.22,1444.333s-2.879,2.326-2.547,5.649" transform="translate(-523.844 -1253.709)" fill="none" stroke="#252f33" stroke-miterlimit="10" stroke-width="0.25"/>
      <path id="Path_16975" data-name="Path 16975" d="M581.387,1455.167a5.978,5.978,0,0,0-1.883,4.762" transform="translate(-529.491 -1250.144)" fill="none" stroke="#252f33" stroke-miterlimit="10" stroke-width="0.25"/>
      <path id="Path_16976" data-name="Path 16976" d="M561.5,1471.667s.443,3.8,2.548,5.61" transform="translate(-535.411 -1244.713)" fill="none" stroke="#252f33" stroke-miterlimit="10" stroke-width="0.25"/>
      <path id="Path_16977" data-name="Path 16977" d="M576.683,1475.333s-2.216,1.883-1.661,4.431" transform="translate(-530.99 -1243.507)" fill="none" stroke="#252f33" stroke-miterlimit="10" stroke-width="0.25"/>
      <path id="Path_16978" data-name="Path 16978" d="M593.057,1472.667s-1.439.885-1.219,3.543" transform="translate(-525.434 -1244.384)" fill="none" stroke="#252f33" stroke-miterlimit="10" stroke-width="0.25"/>
      <path id="Path_16979" data-name="Path 16979" d="M588.092,1491.25a8.39,8.39,0,0,0,1.356,5.426" transform="translate(-526.672 -1238.269)" fill="none" stroke="#252f33" stroke-miterlimit="10" stroke-width="0.25"/>
      <path id="Path_16980" data-name="Path 16980" d="M599.154,1488.083s-.885,2.548.444,4.209" transform="translate(-523.114 -1239.311)" fill="none" stroke="#252f33" stroke-miterlimit="10" stroke-width="0.25"/>
      <path id="Path_16981" data-name="Path 16981" d="M613.411,1472.667s-.222,3.876-1.661,5.317" transform="translate(-518.874 -1244.384)" fill="none" stroke="#252f33" stroke-miterlimit="10" stroke-width="0.25"/>
      <path id="Path_16982" data-name="Path 16982" d="M610.848,1458.25a7.116,7.116,0,0,0-.664,3.987" transform="translate(-519.411 -1249.129)" fill="none" stroke="#252f33" stroke-miterlimit="10" stroke-width="0.25"/>
      <path id="Path_16983" data-name="Path 16983" d="M623.05,1455.833s-1.994,1.329-1.882,3.212" transform="translate(-515.775 -1249.924)" fill="none" stroke="#252f33" stroke-miterlimit="10" stroke-width="0.25"/>
      <path id="Path_16984" data-name="Path 16984" d="M637.5,1432.746s.665,1.889,0,2.885" transform="translate(-510.399 -1257.522)" fill="none" stroke="#252f33" stroke-miterlimit="10" stroke-width="0.25"/>
      <path id="Path_16985" data-name="Path 16985" d="M634.833,1406.667a5.773,5.773,0,0,1,0,5.2" transform="translate(-511.277 -1266.105)" fill="none" stroke="#252f33" stroke-miterlimit="10" stroke-width="0.25"/>
      <path id="Path_16986" data-name="Path 16986" d="M655.25,1423.594a9.009,9.009,0,0,1,0,6.631" transform="translate(-504.558 -1260.534)" fill="none" stroke="#252f33" stroke-miterlimit="10" stroke-width="0.25"/>
      <path id="Path_16987" data-name="Path 16987" d="M650.333,1422.75a4.477,4.477,0,0,1,0,3.1" transform="translate(-506.176 -1260.812)" fill="none" stroke="#252f33" stroke-miterlimit="10" stroke-width="0.25"/>
      <path id="Path_16988" data-name="Path 16988" d="M665.024,1425.083a6.565,6.565,0,0,0,.554,3.987" transform="translate(-501.373 -1260.045)" fill="none" stroke="#252f33" stroke-miterlimit="10" stroke-width="0.25"/>
      <path id="Path_16989" data-name="Path 16989" d="M675.333,1404.917s1.441,1.217.776,4.928" transform="translate(-497.948 -1266.681)" fill="none" stroke="#252f33" stroke-miterlimit="10" stroke-width="0.25"/>
      <path id="Path_16990" data-name="Path 16990" d="M664.167,1397.75a6.551,6.551,0,0,1,1.009,5.649" transform="translate(-501.623 -1269.04)" fill="none" stroke="#252f33" stroke-miterlimit="10" stroke-width="0.25"/>
      <path id="Path_16991" data-name="Path 16991" d="M656.333,1396.833s1.108,2.658,0,4.542" transform="translate(-504.201 -1269.341)" fill="none" stroke="#252f33" stroke-miterlimit="10" stroke-width="0.25"/>
      <path id="Path_16992" data-name="Path 16992" d="M657.583,1376.583a4.834,4.834,0,0,1,1.2,3.767" transform="translate(-503.79 -1276.006)" fill="none" stroke="#252f33" stroke-miterlimit="10" stroke-width="0.25"/>
      <path id="Path_16993" data-name="Path 16993" d="M669,1376.583s2.26,1,2.182,4.431" transform="translate(-500.032 -1276.006)" fill="none" stroke="#252f33" stroke-miterlimit="10" stroke-width="0.25"/>
      <path id="Path_16994" data-name="Path 16994" d="M644.8,1301.633c4.211-2.2,4.209.947,9.968,5.155,7.673,5.608,2.216,50.95-.553,57.928s-4.209,7.531-7.31,6.756-7.2-.886-8.751-3.433,3.545-2.437,8.529-22.595,4.762-30.127,0-35.443C644.405,1307.46,641.423,1303.4,644.8,1301.633Z" transform="translate(-510.277 -1300.91)" fill="#ddd658" stroke="#000" stroke-linejoin="round" stroke-width="0.25"/>
      <path id="Path_16995" data-name="Path 16995" d="M655.861,1319.61c-3.258-1.19-3.7-2.417-7.113-1.43s-.417,4.974-2.965,13.834-4.652,15.063-1.772,16.171,5.077-.1,7.753,1.55,4.531-.443,5.367-10.3S660.647,1321.357,655.861,1319.61Z" transform="translate(-508.713 -1295.345)" fill="#996656" stroke="#000" stroke-miterlimit="10" stroke-width="0.25"/>
      <path id="Path_16996" data-name="Path 16996" d="M651.466,1334.5s-.11,4.542-1.883,7.642" transform="translate(-506.423 -1289.855)" fill="none" stroke="#252f33" stroke-miterlimit="10" stroke-width="0.25"/>
      <path id="Path_16997" data-name="Path 16997" d="M649.67,1336.667a13.445,13.445,0,0,1-1.023,4.762" transform="translate(-506.731 -1289.142)" fill="none" stroke="#252f33" stroke-miterlimit="10" stroke-width="0.25"/>
      <path id="Path_16998" data-name="Path 16998" d="M650.75,1341.584a13.156,13.156,0,0,0,1.606-4.209" transform="translate(-506.039 -1288.909)" fill="none" stroke="#252f33" stroke-miterlimit="10" stroke-width="0.25"/>
    </g>
    <path id="Path_16999" data-name="Path 16999" d="M604.1,1525.307c-12.182,7.31-39.406,10.739-45.632-9.082-5.649-17.984,6.867-35.664,17.5-67.735s-8.861-50.333-24.61-52.106-35.2,7.975-32.986,24.818,26.5,11.853,24.368-1.78c-1.385-8.861-9.215-9.525-13.191-3.545" transform="translate(5.99 31.353)" fill="none" stroke="#252f33" stroke-miterlimit="10" stroke-width="0.25"/>
    <g id="Group_4712" data-name="Group 4712" transform="translate(520.267 1557.354)">
      <path id="Path_17000" data-name="Path 17000" d="M593.335,1495.044s-13.949-.242-15.507,1.5,3.767,4.7,1.773,6.031-12.406.22-13.845,1.994,2.436,5.316.886,5.98-12.738,2.547-13.4,4.541,2.88,5.428,1.219,6.425-9.526,1.217-10.19,2.326,3.434,4.208,2.658,5.427-14.952,3.323-15.505,5.539,4.208,4.208,2.99,5.427-6.425,1.661-7.089,2.88,3.323,7.2,2.658,7.863-5.759-.442-6.756.776,2.216,7.642,1.661,8.528-6.313,1.551-6.756,2.438,1.661,2.546,1.439,3.543-4.43,2.438-4.32,4.1,9.858,2.326,9.746,3.876-1.439,2.326-1.217,3.434,4.717.11,5.348,1.107-.918,2.436-.476,3.212,8.307-1.773,9.194-.776-1.152,1.441-.8,2.326,10.655-3.876,11.43-2.879-.222,2.991.443,3.543,13.513-7.2,14.62-6.313-.221,2.99.665,3.434,10.744-5.1,11.852-4.652,1.219,3.571,2.326,3.945,10.411-7.047,11.63-6.493,1.107,4.209,1.883,4.541,10.521-6.425,11.962-5.76.665,3.877,2.547,4.209,7.31-6.978,8.2-6.646.443,3.323,1.551,3.213,7.642-8.861,9.3-8.2,1.217,4.209,2.768,4.984,8.639-10.965,12.294-8.639-2.326,8.085-2.326,9.414,4.32-1.107,4.32-.11-7.393,8.639-7.351,10.078,3.7,1.219,3.918,2.105-8.418,9.968-8.086,11.74,4.874.886,5.1,2.1-7.532,13.4-6.425,15.4,4.681-.444,5.5.775-5.275,9.3-4.5,11.187,4.984-1.994,5.981,0-3.544,10.411-2.547,12.4,3.987.665,4.54,1.662-2.547,9.081-1.439,10.411,6.091-.885,7.2,0,.221,4.541,1.882,4.874,8.418-10.633,10.19-10.633,3.212,1.661,4.542,1.551,6.091-11.741,7.2-12.073,6.2.665,7.422.222,3.655-9.858,4.984-9.968,2.991,2.216,4.652,1.551,4.208-11.187,5.316-11.3,2.769,1.661,3.543,1.107,3.212-13.623,4.542-13.845,2.548,1.661,3.877,1.109,1-11.187,2.436-11.63,2.326,1.329,3.433,1,3.545-11.856,3.1-16.506S702.764,1482.75,593.335,1495.044Z" transform="translate(-515.248 -1493.856)" fill="#a5b63d" stroke="#231815" stroke-miterlimit="10" stroke-width="0.25"/>
      <path id="Path_17001" data-name="Path 17001" d="M515.25,1565.275s109.821-30.418,138.337-55.966" transform="translate(-515.248 -1488.77)" fill="none" stroke="#252f33" stroke-miterlimit="10" stroke-width="0.25"/>
      <path id="Path_17002" data-name="Path 17002" d="M531.65,1537.5s14.12.425,19.919,5.751" transform="translate(-509.85 -1479.492)" fill="none" stroke="#252f33" stroke-miterlimit="10" stroke-width="0.25"/>
      <path id="Path_17003" data-name="Path 17003" d="M540.667,1558.893s7.964-6.676,7.935-17.065" transform="translate(-506.883 -1478.069)" fill="none" stroke="#252f33" stroke-miterlimit="10" stroke-width="0.25"/>
      <path id="Path_17004" data-name="Path 17004" d="M541.667,1528.086s23.953-2.317,44.594,4.988" transform="translate(-506.554 -1482.705)" fill="none" stroke="#252f33" stroke-miterlimit="10" stroke-width="0.25"/>
      <path id="Path_17005" data-name="Path 17005" d="M558.443,1557.888s22.491-17.238,22.3-26.135" transform="translate(-501.033 -1481.384)" fill="none" stroke="#252f33" stroke-miterlimit="10" stroke-width="0.25"/>
      <path id="Path_17006" data-name="Path 17006" d="M560.917,1513.583s34.244.084,52.066,10.065" transform="translate(-500.219 -1487.364)" fill="none" stroke="#252f33" stroke-miterlimit="10" stroke-width="0.25"/>
      <path id="Path_17007" data-name="Path 17007" d="M590,1550.853s13.768-11.3,13.412-29.7" transform="translate(-490.647 -1484.871)" fill="none" stroke="#252f33" stroke-miterlimit="10" stroke-width="0.25"/>
      <path id="Path_17008" data-name="Path 17008" d="M610.667,1541.778s10.884-13.425,9.872-31.412" transform="translate(-483.846 -1488.422)" fill="none" stroke="#252f33" stroke-miterlimit="10" stroke-width="0.25"/>
      <path id="Path_17009" data-name="Path 17009" d="M643.177,1539.663c-5.489,53.6-29.344,99.134-29.344,99.134" transform="translate(-482.804 -1478.781)" fill="none" stroke="#252f33" stroke-miterlimit="10" stroke-width="0.25"/>
      <path id="Path_17010" data-name="Path 17010" d="M630.747,1580.543c-6.065.8-14.122,9.413-14.122,9.413" transform="translate(-481.885 -1465.327)" fill="none" stroke="#252f33" stroke-miterlimit="10" stroke-width="0.25"/>
      <path id="Path_17011" data-name="Path 17011" d="M631.986,1595.106s-.234-11.153-4.736-14.563" transform="translate(-478.389 -1465.327)" fill="none" stroke="#252f33" stroke-miterlimit="10" stroke-width="0.25"/>
      <path id="Path_17012" data-name="Path 17012" d="M616,1571.032s9.717-12.112,23.3-15.277" transform="translate(-482.091 -1473.484)" fill="none" stroke="#252f33" stroke-miterlimit="10" stroke-width="0.25"/>
      <path id="Path_17013" data-name="Path 17013" d="M643.708,1581s-1.435-18.779-10.177-25.245" transform="translate(-476.322 -1473.484)" fill="none" stroke="#252f33" stroke-miterlimit="10" stroke-width="0.25"/>
      <path id="Path_17014" data-name="Path 17014" d="M620.25,1548.053s4.25-6.313,20.815-9.554" transform="translate(-480.692 -1479.164)" fill="none" stroke="#252f33" stroke-miterlimit="10" stroke-width="0.25"/>
      <path id="Path_17015" data-name="Path 17015" d="M651.84,1559.175s-4.54-13.365-15.173-20.676" transform="translate(-475.289 -1479.164)" fill="none" stroke="#252f33" stroke-miterlimit="10" stroke-width="0.25"/>
    </g>
    <g id="Group_4729" data-name="Group 4729" transform="translate(648 1459.901)">
      <path id="Path_17016" data-name="Path 17016" d="M612.573,1530s32.173,67.255,92.327,70.553c60.685,3.327,85.879-26.914,101.727-56.155s11.071-74.108-2.323-111.65Z" transform="translate(-610.952 -1416.514)" fill="#aa506a" stroke="#000" stroke-linejoin="round" stroke-width="0.25"/>
      <path id="Path_17017" data-name="Path 17017" d="M797.954,1427.8c-15.912-14.639-85.764-5.723-123.961,13.956-33.537,17.278-65.436,62.8-62.445,87.056s50.838,31.566,86.392,20.269,93.7-55.158,103.67-78.749S806.261,1435.441,797.954,1427.8Z" transform="translate(-611.353 -1420.533)" fill="#e5aeae" stroke="#000" stroke-linejoin="round" stroke-width="0.25"/>
      <path id="Path_17018" data-name="Path 17018" d="M774.264,1438.017c-10.217-10.677-41.424-8.2-67.564,3.323s-58.425,32.453-71.328,49.62c-8.87,11.8-21.487,38.883,4.873,42.48s55.38-5.93,73.1-14.791,34.336-30.63,43.86-35.694S794.187,1458.84,774.264,1438.017Z" transform="translate(-607.045 -1417.018)" fill="#ffc064" stroke="#000" stroke-linejoin="round" stroke-width="0.25"/>
      <path id="Path_17019" data-name="Path 17019" d="M645.833,1529.25a3.672,3.672,0,0,0,2.99,2.436" transform="translate(-600.006 -1384.755)" fill="none" stroke="#000" stroke-miterlimit="10" stroke-width="0.25"/>
      <path id="Path_17020" data-name="Path 17020" d="M650.167,1536.5a5.064,5.064,0,0,0,3.655,2.658" transform="translate(-598.58 -1382.368)" fill="none" stroke="#000" stroke-miterlimit="10" stroke-width="0.25"/>
      <path id="Path_17021" data-name="Path 17021" d="M658.833,1532.583s2.548,1.329,2.88,3.323" transform="translate(-595.728 -1383.657)" fill="none" stroke="#000" stroke-miterlimit="10" stroke-width="0.25"/>
      <path id="Path_17022" data-name="Path 17022" d="M667.25,1526.917s2.658,1.55,2.436,4.32" transform="translate(-592.958 -1385.522)" fill="none" stroke="#000" stroke-miterlimit="10" stroke-width="0.25"/>
      <path id="Path_17023" data-name="Path 17023" d="M682.039,1530.382s2.384-.483,3.381.957" transform="translate(-588.091 -1384.407)" fill="none" stroke="#000" stroke-miterlimit="10" stroke-width="0.25"/>
      <path id="Path_17024" data-name="Path 17024" d="M680.5,1540.917a4.1,4.1,0,0,0,3.947,1.564" transform="translate(-588.597 -1380.914)" fill="none" stroke="#000" stroke-miterlimit="10" stroke-width="0.25"/>
      <path id="Path_17025" data-name="Path 17025" d="M687.417,1548.917a7.254,7.254,0,0,0,3.987,1.772" transform="translate(-586.321 -1378.282)" fill="none" stroke="#000" stroke-miterlimit="10" stroke-width="0.25"/>
      <path id="Path_17026" data-name="Path 17026" d="M700.667,1543.25s2.658,2.1,5.094,1.551" transform="translate(-581.96 -1380.147)" fill="none" stroke="#000" stroke-miterlimit="10" stroke-width="0.25"/>
      <path id="Path_17027" data-name="Path 17027" d="M699.333,1522.333a3.339,3.339,0,0,1,1.773,3.1" transform="translate(-582.399 -1387.031)" fill="none" stroke="#000" stroke-miterlimit="10" stroke-width="0.25"/>
      <path id="Path_17028" data-name="Path 17028" d="M716.917,1530.694a3.4,3.4,0,0,1,.664,3.619" transform="translate(-576.612 -1384.279)" fill="none" stroke="#000" stroke-miterlimit="10" stroke-width="0.25"/>
      <path id="Path_17029" data-name="Path 17029" d="M712.333,1512.75a4.088,4.088,0,0,1,2.326,4.209" transform="translate(-578.121 -1390.184)" fill="none" stroke="#000" stroke-miterlimit="10" stroke-width="0.25"/>
      <path id="Path_17030" data-name="Path 17030" d="M727.719,1535.083a6.025,6.025,0,0,1-.886,5.3" transform="translate(-573.349 -1382.835)" fill="none" stroke="#000" stroke-miterlimit="10" stroke-width="0.25"/>
      <path id="Path_17031" data-name="Path 17031" d="M736.667,1511.167a4.38,4.38,0,0,1,.775,4.208" transform="translate(-570.112 -1390.705)" fill="none" stroke="#000" stroke-miterlimit="10" stroke-width="0.25"/>
      <path id="Path_17032" data-name="Path 17032" d="M729.75,1497.833a7.1,7.1,0,0,1,.665,5.1" transform="translate(-572.389 -1395.094)" fill="none" stroke="#000" stroke-miterlimit="10" stroke-width="0.25"/>
      <path id="Path_17033" data-name="Path 17033" d="M746.25,1487.75a4.717,4.717,0,0,1,.554,5.538" transform="translate(-566.959 -1398.412)" fill="none" stroke="#000" stroke-miterlimit="10" stroke-width="0.25"/>
      <path id="Path_17034" data-name="Path 17034" d="M738.667,1489.009a3.5,3.5,0,0,1,0,2.979" transform="translate(-569.454 -1397.997)" fill="none" stroke="#000" stroke-miterlimit="10" stroke-width="0.25"/>
      <path id="Path_17035" data-name="Path 17035" d="M751.334,1505.917a5.194,5.194,0,0,1-.675,4.508" transform="translate(-565.508 -1392.433)" fill="none" stroke="#000" stroke-miterlimit="10" stroke-width="0.25"/>
      <path id="Path_17036" data-name="Path 17036" d="M752.667,1474.571a3.184,3.184,0,0,1,1.329,3.067" transform="translate(-564.847 -1402.749)" fill="none" stroke="#000" stroke-miterlimit="10" stroke-width="0.25"/>
      <path id="Path_17037" data-name="Path 17037" d="M756.75,1471.045s1.883,1.457,1,4.686" transform="translate(-563.503 -1403.91)" fill="none" stroke="#000" stroke-miterlimit="10" stroke-width="0.25"/>
      <path id="Path_17038" data-name="Path 17038" d="M728.254,1478.311c2.214,2.214-3.1,7.753-5.76,5.094S726.039,1476.1,728.254,1478.311Z" transform="translate(-574.991 -1401.709)" fill="#dffffa" stroke="#231815" stroke-miterlimit="10" stroke-width="0.25"/>
      <path id="Path_17039" data-name="Path 17039" d="M715.544,1490.518c-1.489-2.046,6.756-8.085,9.526-4.872S718.2,1494.173,715.544,1490.518Z" transform="translate(-577.123 -1399.408)" fill="#dffffa" stroke="#231815" stroke-miterlimit="10" stroke-width="0.25"/>
      <g id="Group_4728" data-name="Group 4728" transform="translate(17.4 14.197)">
        <g id="Group_4727" data-name="Group 4727" clip-path="url(#clip-path)">
          <g id="Group_4713" data-name="Group 4713" transform="translate(92.394 56.826)">
            <path id="Path_17040" data-name="Path 17040" d="M694.3,1487.961c.99,4.471,9.232,8.633,20.049,3.914s14.877-10.023,11.606-14.232-12.391-5.226-22.62-.805S693.557,1484.6,694.3,1487.961Z" transform="translate(-693.961 -1473.969)" fill="#ffc91f" stroke="#000" stroke-linejoin="round" stroke-width="0.25"/>
            <circle id="Ellipse_2693" data-name="Ellipse 2693" cx="3.62" cy="3.62" r="3.62" transform="translate(6.421 7.931)" fill="#6d4a32" stroke="#000" stroke-linejoin="round" stroke-width="0.25"/>
          </g>
          <g id="Group_4714" data-name="Group 4714" transform="translate(51.746 78.148)">
            <path id="Path_17041" data-name="Path 17041" d="M663.72,1504c.99,4.469,9.232,8.631,20.048,3.913s14.878-10.023,11.607-14.231-12.393-5.227-22.62-.805S662.974,1500.641,663.72,1504Z" transform="translate(-663.378 -1490.012)" fill="#ffc91f" stroke="#000" stroke-linejoin="round" stroke-width="0.25"/>
            <circle id="Ellipse_2694" data-name="Ellipse 2694" cx="3.62" cy="3.62" r="3.62" transform="translate(6.421 7.931)" fill="#6d4a32" stroke="#000" stroke-linejoin="round" stroke-width="0.25"/>
          </g>
          <g id="Group_4715" data-name="Group 4715" transform="translate(45.24 53.511)">
            <path id="Path_17042" data-name="Path 17042" d="M658.825,1485.468c.99,4.471,9.232,8.633,20.05,3.914s14.877-10.023,11.606-14.232-12.393-5.226-22.62-.805S658.079,1482.1,658.825,1485.468Z" transform="translate(-658.483 -1471.475)" fill="#ffc91f" stroke="#000" stroke-linejoin="round" stroke-width="0.25"/>
            <circle id="Ellipse_2695" data-name="Ellipse 2695" cx="3.62" cy="3.62" r="3.62" transform="translate(6.421 7.931)" fill="#6d4a32" stroke="#000" stroke-linejoin="round" stroke-width="0.25"/>
          </g>
          <g id="Group_4716" data-name="Group 4716" transform="translate(-1.057 72.45)">
            <path id="Path_17043" data-name="Path 17043" d="M623.992,1499.717c.99,4.471,9.231,8.633,20.048,3.914s14.878-10.022,11.607-14.232-12.393-5.226-22.62-.805S623.246,1496.355,623.992,1499.717Z" transform="translate(-623.65 -1485.725)" fill="#ffc91f" stroke="#000" stroke-linejoin="round" stroke-width="0.25"/>
            <circle id="Ellipse_2696" data-name="Ellipse 2696" cx="3.62" cy="3.62" r="3.62" transform="translate(6.421 7.931)" fill="#6d4a32" stroke="#000" stroke-linejoin="round" stroke-width="0.25"/>
          </g>
          <g id="Group_4717" data-name="Group 4717" transform="translate(31.394 29.272)">
            <path id="Path_17044" data-name="Path 17044" d="M649.782,1455.639c-3.263,3.211-2.419,12.4,7.319,19.071S673.491,1482,675.322,1477s-2.144-13.276-11.317-19.6S652.238,1453.223,649.782,1455.639Z" transform="translate(-648.065 -1453.239)" fill="#ffc91f" stroke="#000" stroke-linejoin="round" stroke-width="0.25"/>
            <circle id="Ellipse_2697" data-name="Ellipse 2697" cx="3.62" cy="3.62" r="3.62" transform="translate(5.312 5.708)" fill="#6d4a32" stroke="#000" stroke-linejoin="round" stroke-width="0.25"/>
          </g>
          <g id="Group_4718" data-name="Group 4718" transform="translate(9.132 48.293)">
            <path id="Path_17045" data-name="Path 17045" d="M633.032,1469.949c-3.263,3.211-2.419,12.406,7.319,19.073s16.389,7.294,18.221,2.288-2.144-13.276-11.317-19.6S635.488,1467.534,633.032,1469.949Z" transform="translate(-631.315 -1467.55)" fill="#ffc91f" stroke="#000" stroke-linejoin="round" stroke-width="0.25"/>
            <circle id="Ellipse_2698" data-name="Ellipse 2698" cx="3.62" cy="3.62" r="3.62" transform="translate(5.312 5.707)" fill="#6d4a32" stroke="#000" stroke-linejoin="round" stroke-width="0.25"/>
          </g>
          <g id="Group_4719" data-name="Group 4719" transform="translate(66.769 24.055)">
            <path id="Path_17046" data-name="Path 17046" d="M677,1474.957c3.153,3.32,12.361,2.637,19.2-6.983s7.58-16.257,2.608-18.177-13.312,1.909-19.8,10.97S674.627,1472.458,677,1474.957Z" transform="translate(-674.681 -1449.313)" fill="#ffc91f" stroke="#000" stroke-linejoin="round" stroke-width="0.25"/>
            <circle id="Ellipse_2699" data-name="Ellipse 2699" cx="3.62" cy="3.62" r="3.62" transform="translate(5.751 14.93)" fill="#6d4a32" stroke="#000" stroke-linejoin="round" stroke-width="0.25"/>
          </g>
          <g id="Group_4720" data-name="Group 4720" transform="translate(104.123 15.082)">
            <path id="Path_17047" data-name="Path 17047" d="M707.938,1474.945c4.322,1.51,12.2-3.309,13.877-14.991s-.7-17.925-6-17.357-10.965,7.787-12.587,18.811S704.685,1473.809,707.938,1474.945Z" transform="translate(-702.786 -1442.562)" fill="#ffc91f" stroke="#000" stroke-linejoin="round" stroke-width="0.25"/>
            <circle id="Ellipse_2700" data-name="Ellipse 2700" cx="3.62" cy="3.62" r="3.62" transform="translate(4.559 19.229)" fill="#6d4a32" stroke="#000" stroke-linejoin="round" stroke-width="0.25"/>
          </g>
          <g id="Group_4721" data-name="Group 4721" transform="translate(82.613 -14.291)">
            <path id="Path_17048" data-name="Path 17048" d="M691.754,1452.845c4.322,1.51,12.2-3.308,13.877-14.99s-.695-17.926-6-17.358-10.964,7.787-12.587,18.812S688.5,1451.709,691.754,1452.845Z" transform="translate(-686.602 -1420.462)" fill="#ffc91f" stroke="#000" stroke-linejoin="round" stroke-width="0.25"/>
            <circle id="Ellipse_2701" data-name="Ellipse 2701" cx="3.62" cy="3.62" r="3.62" transform="translate(4.56 19.23)" fill="#6d4a32" stroke="#000" stroke-linejoin="round" stroke-width="0.25"/>
          </g>
          <g id="Group_4722" data-name="Group 4722" transform="translate(112.272 -14.942)">
            <path id="Path_17049" data-name="Path 17049" d="M714.069,1452.355c4.322,1.51,12.2-3.308,13.877-14.99s-.7-17.925-6-17.358-10.965,7.787-12.587,18.812S710.816,1451.219,714.069,1452.355Z" transform="translate(-708.917 -1419.972)" fill="#ffc91f" stroke="#000" stroke-linejoin="round" stroke-width="0.25"/>
            <circle id="Ellipse_2702" data-name="Ellipse 2702" cx="3.62" cy="3.62" r="3.62" transform="translate(4.559 19.23)" fill="#6d4a32" stroke="#000" stroke-linejoin="round" stroke-width="0.25"/>
          </g>
          <g id="Group_4723" data-name="Group 4723" transform="translate(131.042 33.985)">
            <path id="Path_17050" data-name="Path 17050" d="M723.279,1462.085c-1.433,4.348,3.525,12.137,15.234,13.609s17.91-1.013,17.248-6.3-7.98-10.826-19.031-12.252S724.357,1458.813,723.279,1462.085Z" transform="translate(-723.039 -1456.785)" fill="#ffc91f" stroke="#000" stroke-linejoin="round" stroke-width="0.25"/>
            <circle id="Ellipse_2703" data-name="Ellipse 2703" cx="3.62" cy="3.62" r="3.62" transform="translate(6.205 4.539)" fill="#6d4a32" stroke="#000" stroke-linejoin="round" stroke-width="0.25"/>
          </g>
          <g id="Group_4726" data-name="Group 4726" transform="translate(1.912 -13.129)">
            <g id="Group_4724" data-name="Group 4724">
              <path id="Path_17051" data-name="Path 17051" d="M708.426,1444.052c3.864-2.6,12.835-3.157,22.035,4.818s11.3,15.783,8.258,18.773-16.061,3.711-25.087-5.26S705.048,1446.322,708.426,1444.052Z" transform="translate(-599.451 -1414.428)" fill="#ffc91f" stroke="#000" stroke-linejoin="round" stroke-width="0.25"/>
              <path id="Path_17052" data-name="Path 17052" d="M736.494,1432.973c-4.734,1.392-12.072,11.93-7.753,26.178s10.411,13.695,12.847,12.034,7.864-10.08,6.978-21.155S742.143,1431.312,736.494,1432.973Z" transform="translate(-592.464 -1417.582)" fill="#ffc91f" stroke="#000" stroke-linejoin="round" stroke-width="0.25"/>
              <path id="Path_17053" data-name="Path 17053" d="M716.9,1429.345c2.323,6.069,3.646,17.95-2.6,25.576-5.532,6.751-12.681,7.541-16.224,5.438s-4.77-14.519,4.43-25.812C708.925,1426.66,715.478,1425.631,716.9,1429.345Z" transform="translate(-602.996 -1419.382)" fill="#ffc91f" stroke="#000" stroke-linejoin="round" stroke-width="0.25"/>
              <path id="Path_17054" data-name="Path 17054" d="M733.786,1475.807c-1-5.4-.747-11.131-9.885-16.281s-12.71,2.908-12.46,11.381,5.221,17.195,5.221,17.195Z" transform="translate(-597.73 -1409.301)" fill="#ffc91f" stroke="#000" stroke-linejoin="round" stroke-width="0.25"/>
              <path id="Path_17055" data-name="Path 17055" d="M713.535,1461.72c-3.234-4.62-13.956-2.16-22.511,3.821s-10.467,13.209-8.971,17.03,13.54,4.07,22.927-2.41S716.443,1465.874,713.535,1461.72Z" transform="translate(-607.55 -1408.838)" fill="#ffc91f" stroke="#000" stroke-linejoin="round" stroke-width="0.25"/>
              <path id="Path_17056" data-name="Path 17056" d="M724.724,1459.078c5.63.307,10.313-9.648,10.887-20.072s-3.933-16.386-7.862-17.568-11.561,8.142-12.254,19.526S719.661,1458.8,724.724,1459.078Z" transform="translate(-596.414 -1421.337)" fill="#ffc91f" stroke="#000" stroke-linejoin="round" stroke-width="0.25"/>
              <path id="Path_17057" data-name="Path 17057" d="M720.109,1466.586c-6.179-3.068-13.457-3.364-18.856-.54s-4.32,14.288,4.486,20.767,20.453,4.7,20.453,4.7l5.1-9.293S729.7,1471.348,720.109,1466.586Z" transform="translate(-602.162 -1407.265)" fill="#ffc91f" stroke="#000" stroke-linejoin="round" stroke-width="0.25"/>
              <path id="Path_17058" data-name="Path 17058" d="M706.035,1459.6c2.569-3.7-3.162-12.2-12.466-16.51s-18.5-3.316-19.825-1.765,1.259,11.842,13.425,17.043C697.115,1462.622,703.882,1462.7,706.035,1459.6Z" transform="translate(-610.235 -1415.194)" fill="#ffc91f" stroke="#000" stroke-linejoin="round" stroke-width="0.25"/>
              <path id="Path_17059" data-name="Path 17059" d="M706.719,1465.019c1.075-5.524-2.424-16.014-8.286-16.226-5.778-.208-11.535,4.264-12.09,13.013s4.133,13.472,8.639,14.2C700.726,1476.933,705.274,1472.44,706.719,1465.019Z" transform="translate(-606 -1412.303)" fill="#ffc91f" stroke="#000" stroke-linejoin="round" stroke-width="0.25"/>
              <path id="Path_17060" data-name="Path 17060" d="M677.606,1478.5c2-2.15,10.079-3.34,20.933,4.3s11.408,14.953,9.524,16.946-14.176,3.244-22.927-5.411S675.945,1480.284,677.606,1478.5Z" transform="translate(-609.113 -1403.058)" fill="#ffc91f" stroke="#000" stroke-linejoin="round" stroke-width="0.25"/>
              <path id="Path_17061" data-name="Path 17061" d="M678.42,1463.331c-1.946-2.964-8.418-5.145-19.161.419s-12.4,13.869-10.411,17.746,18.275,5.538,25.031-1.329S680.746,1466.876,678.42,1463.331Z" transform="translate(-618.566 -1408.511)" fill="#ffc91f" stroke="#000" stroke-linejoin="round" stroke-width="0.25"/>
              <path id="Path_17062" data-name="Path 17062" d="M655.25,1455.556s3.212,7.532,9.746,11.3,11.82,1.883,12.444-.886.194-10.517-5.017-18.715Z" transform="translate(-616.219 -1412.808)" fill="#ffc91f" stroke="#000" stroke-linejoin="round" stroke-width="0.25"/>
              <path id="Path_17063" data-name="Path 17063" d="M668.156,1467.205c3.8-2.225,11.075-1.163,15.949,2.354s7.58,12.154,5.673,14.813-9.77,3.877-17.524-.775S663.852,1469.724,668.156,1467.205Z" transform="translate(-612.843 -1406.625)" fill="#ffc91f" stroke="#000" stroke-linejoin="round" stroke-width="0.25"/>
              <path id="Path_17064" data-name="Path 17064" d="M695.565,1489.626c-.235-3.6-10.412-8.085-17.39-7.532s-14.029,3.988-14.49,8.639,8.4,11.3,18.145,9.526S695.9,1494.721,695.565,1489.626Z" transform="translate(-613.448 -1401.357)" fill="#ffc91f" stroke="#000" stroke-linejoin="round" stroke-width="0.25"/>
              <path id="Path_17065" data-name="Path 17065" d="M669.523,1482.559c-3.635-.9-11.186,3.723-16.17,15.8s1.661,20.711,6.756,19.715,10.965-5.206,13.069-16.614S674.175,1483.708,669.523,1482.559Z" transform="translate(-617.423 -1401.224)" fill="#ffc91f" stroke="#000" stroke-linejoin="round" stroke-width="0.25"/>
              <path id="Path_17066" data-name="Path 17066" d="M675.068,1511.482c-1.761-9.193,4.32-22.3,11.268-22.472s8.863,9.624,7.22,15.715S675.068,1511.482,675.068,1511.482Z" transform="translate(-609.798 -1399.066)" fill="#ffc91f" stroke="#000" stroke-linejoin="round" stroke-width="0.25"/>
              <path id="Path_17067" data-name="Path 17067" d="M647.533,1459.872c3.493-.662,10.633,4.886,12.516,18.6s-1.9,20.467-8.815,22.128-14-11.251-12.341-24.256S644.432,1460.461,647.533,1459.872Z" transform="translate(-621.682 -1408.672)" fill="#ffc91f" stroke="#000" stroke-linejoin="round" stroke-width="0.25"/>
              <path id="Path_17068" data-name="Path 17068" d="M664.392,1484.543c-3.323-2.51-11.519.554-22.042,9.193s-14.288,17.625-11.075,23.211,19.4,4.922,27.366-6.487S669.377,1488.309,664.392,1484.543Z" transform="translate(-624.475 -1400.815)" fill="#ffc91f" stroke="#000" stroke-linejoin="round" stroke-width="0.25"/>
              <path id="Path_17069" data-name="Path 17069" d="M627.035,1477.205c3.155-2.407,15.063-2.258,22.04,6.87s10.095,19.961,4.716,21.966-10.475-2.315-19.224-11.619S624.487,1479.148,627.035,1477.205Z" transform="translate(-625.883 -1403.384)" fill="#ffc91f" stroke="#000" stroke-linejoin="round" stroke-width="0.25"/>
            </g>
            <g id="Group_4725" data-name="Group 4725" transform="translate(14.443 23.39)">
              <circle id="Ellipse_2704" data-name="Ellipse 2704" cx="4.25" cy="4.25" r="4.25" transform="translate(108.986 15.537)" fill="#6d4a32" stroke="#000" stroke-linejoin="round" stroke-width="0.25"/>
              <circle id="Ellipse_2705" data-name="Ellipse 2705" cx="4.32" cy="4.32" r="4.32" transform="translate(128.385 7.091)" fill="#6d4a32" stroke="#000" stroke-linejoin="round" stroke-width="0.25"/>
              <circle id="Ellipse_2706" data-name="Ellipse 2706" cx="4.486" cy="4.486" r="4.486" transform="translate(86.276 0.973)" fill="#6d4a32" stroke="#000" stroke-linejoin="round" stroke-width="0.25"/>
              <circle id="Ellipse_2707" data-name="Ellipse 2707" cx="3.717" cy="3.717" r="3.717" transform="translate(109.381 33.259)" fill="#6d4a32" stroke="#000" stroke-linejoin="round" stroke-width="0.25"/>
              <circle id="Ellipse_2708" data-name="Ellipse 2708" cx="3.613" cy="3.613" r="3.613" transform="translate(65.098 41.407)" fill="#6d4a32" stroke="#000" stroke-linejoin="round" stroke-width="0.25"/>
              <circle id="Ellipse_2709" data-name="Ellipse 2709" cx="3.613" cy="3.613" r="3.613" transform="translate(110.494)" fill="#6d4a32" stroke="#000" stroke-linejoin="round" stroke-width="0.25"/>
              <circle id="Ellipse_2710" data-name="Ellipse 2710" cx="4.685" cy="4.685" r="4.685" transform="translate(92.761 42.678)" fill="#6d4a32" stroke="#000" stroke-linejoin="round" stroke-width="0.25"/>
              <circle id="Ellipse_2711" data-name="Ellipse 2711" cx="3.157" cy="3.157" r="3.157" transform="translate(63.575 9.944)" fill="#6d4a32" stroke="#000" stroke-linejoin="round" stroke-width="0.25"/>
              <circle id="Ellipse_2712" data-name="Ellipse 2712" cx="3.503" cy="3.503" r="3.503" transform="translate(72.325 20.688)" fill="#6d4a32" stroke="#000" stroke-linejoin="round" stroke-width="0.25"/>
              <path id="Path_17070" data-name="Path 17070" d="M674.93,1475.709c4.563.368,10.965-6.286,9.636-18.012s-5.206-17.167-10.19-15.278-8.348,10.279-7.42,21.384C667.685,1472.55,671.5,1475.433,674.93,1475.709Z" transform="translate(-626.86 -1437.909)" fill="#ffc91f" stroke="#000" stroke-linejoin="round" stroke-width="0.25"/>
              <circle id="Ellipse_2713" data-name="Ellipse 2713" cx="3.62" cy="3.62" r="3.62" transform="translate(44.968 24.19)" fill="#6d4a32" stroke="#000" stroke-linejoin="round" stroke-width="0.25"/>
              <circle id="Ellipse_2714" data-name="Ellipse 2714" cx="3.35" cy="3.35" r="3.35" transform="translate(67.673 60.339)" fill="#6d4a32" stroke="#000" stroke-linejoin="round" stroke-width="0.25"/>
              <circle id="Ellipse_2715" data-name="Ellipse 2715" cx="3.859" cy="3.859" r="3.859" transform="translate(28.243 37.814)" fill="#6d4a32" stroke="#000" stroke-linejoin="round" stroke-width="0.25"/>
              <circle id="Ellipse_2716" data-name="Ellipse 2716" cx="3.078" cy="3.078" r="3.078" transform="translate(48.588 43.329)" fill="#6d4a32" stroke="#000" stroke-linejoin="round" stroke-width="0.25"/>
              <circle id="Ellipse_2717" data-name="Ellipse 2717" cx="3.157" cy="3.157" r="3.157" transform="translate(48.871 63.219)" fill="#6d4a32" stroke="#000" stroke-linejoin="round" stroke-width="0.25"/>
              <circle id="Ellipse_2718" data-name="Ellipse 2718" cx="3.904" cy="3.904" r="3.904" transform="translate(30.237 66.376)" fill="#6d4a32" stroke="#000" stroke-linejoin="round" stroke-width="0.25"/>
              <circle id="Ellipse_2719" data-name="Ellipse 2719" cx="3.582" cy="3.582" r="3.582" transform="translate(59.596 75.685)" fill="#6d4a32" stroke="#000" stroke-linejoin="round" stroke-width="0.25"/>
              <circle id="Ellipse_2720" data-name="Ellipse 2720" cx="4.507" cy="4.507" r="4.507" transform="translate(9.636 43.947)" fill="#6d4a32" stroke="#000" stroke-linejoin="round" stroke-width="0.25"/>
              <circle id="Ellipse_2721" data-name="Ellipse 2721" cx="4.375" cy="4.375" r="4.375" transform="translate(0 80.276)" fill="#6d4a32" stroke="#000" stroke-linejoin="round" stroke-width="0.25"/>
              <circle id="Ellipse_2722" data-name="Ellipse 2722" cx="4.098" cy="4.098" r="4.098" transform="translate(2.524 65.434)" fill="#6d4a32" stroke="#000" stroke-linejoin="round" stroke-width="0.25"/>
            </g>
          </g>
        </g>
      </g>
      <path id="Path_17072" data-name="Path 17072" d="M774.264,1438.017c-10.217-10.677-41.424-8.2-67.564,3.323s-58.425,32.453-71.328,49.62c-8.87,11.8-21.487,38.883,4.873,42.48s55.38-5.93,73.1-14.791,34.336-30.63,43.86-35.694S794.187,1458.84,774.264,1438.017Z" transform="translate(-607.045 -1417.018)" fill="none" stroke="#000" stroke-miterlimit="10" stroke-width="0.25"/>
    </g>
  </g>
</svg>
