<svg xmlns="http://www.w3.org/2000/svg" xmlns:xlink="http://www.w3.org/1999/xlink" width="479.083" height="508.369" viewBox="0 0 479.083 508.369">
  <defs>
    <clipPath id="clip-path">
      <path id="Intersection_1" data-name="Intersection 1" d="M0,93.926a9.6,9.6,0,0,1,2.526-6.443S6.1,81.235,33.463,71.122s67.229-25.285,94-35.4,46.4-13.193,80.911-26.378S249.46.787,249.46.787a10.807,10.807,0,0,1,.941,4.641c.012,6.531-4.82,18.7-36.673,28.212A1059.3,1059.3,0,0,0,95.039,77.07c-35.4,15.219-56.13,26.958-71.665,30.641a21.7,21.7,0,0,1-5.007.589C8.247,108.3.02,101.1,0,93.926Z" fill="none"/>
    </clipPath>
  </defs>
  <g id="Group_2812" data-name="Group 2812" transform="translate(-94.287 -200.194)">
    <g id="Group_2817" data-name="Group 2817" transform="translate(154.153 200.328)">
      <g id="Group_2812-2" data-name="Group 2812">
        <path id="Path_9453" data-name="Path 9453" d="M141.951,207.406c8.308-8.156,26.842-10.066,38.612-1.453s9.164,12.505,32.19,20.133c20.271,6.714,25.56,43.626,2.833,61.97-9.809,7.918-29.507,14.119-45.768,4.74-20.8-12-8.147-25.8-27.867-49.236C132.047,231.789,133.2,216,141.951,207.406Z" transform="translate(-134.948 -200.328)" fill="#a5b63d" stroke="#231815" stroke-miterlimit="10" stroke-width="0.25"/>
        <path id="Path_9454" data-name="Path 9454" d="M148.855,214.12S208.132,250.6,218.1,309.958" transform="translate(-128.365 -193.801)" fill="none" stroke="#000" stroke-miterlimit="10" stroke-width="0.25"/>
        <path id="Path_9455" data-name="Path 9455" d="M146.1,225.825A25.391,25.391,0,0,0,166,228.134s3.923-3.808-1.379-18.82" transform="translate(-129.668 -196.075)" fill="none" stroke="#000" stroke-miterlimit="10" stroke-width="0.25"/>
        <path id="Path_9456" data-name="Path 9456" d="M150.292,238.869s18.625,9.644,33.548,5.534c0,0,6.208-12.636-1.045-29.246" transform="translate(-127.685 -193.31)" fill="none" stroke="#000" stroke-miterlimit="10" stroke-width="0.25"/>
        <path id="Path_9457" data-name="Path 9457" d="M155.609,256.687s14.807,11.686,42.368,4.787c0,0,9.394-14.46,4.939-36.047" transform="translate(-125.168 -188.449)" fill="none" stroke="#000" stroke-miterlimit="10" stroke-width="0.25"/>
      </g>
      <path id="Path_9458" data-name="Path 9458" d="M158.928,273.951c.666,0,12.221-3.178,47.072,5.534s44.829,7.253,59.922,10.416,21.906,5.112,44.787,3.652,41.624,9.469,56.228,18.73,19.52,11.175,27.042,9.853" transform="translate(-123.598 -165.75)" fill="none" stroke="#000" stroke-miterlimit="10" stroke-width="0.25"/>
      <g id="Group_2813" data-name="Group 2813" transform="translate(138.645 42.961)">
        <path id="Path_9459" data-name="Path 9459" d="M246.879,305.6c-11-4.953-19.216-14.393-17.629-28.681,1.487-13.381,13.21-21.47,26.913-23.617s22.456-11.228,31.7-18.493,26.253-8.255,34.014,4.458-12.508,26.15-16.346,36.821C297.276,299.038,279.162,320.131,246.879,305.6Z" transform="translate(-229.053 -229.488)" fill="#a5b63d" stroke="#231815" stroke-miterlimit="10" stroke-width="0.25"/>
        <path id="Path_9460" data-name="Path 9460" d="M305.671,239.657s-24.312,6.533-41.136,34.321c-10.584,17.482-19.751,29.534-30.163,32.766" transform="translate(-226.535 -224.675)" fill="none" stroke="#000" stroke-miterlimit="10" stroke-width="0.25"/>
        <path id="Path_9461" data-name="Path 9461" d="M278.933,236.143a21.5,21.5,0,0,0-4.321,10.569,20.8,20.8,0,0,0,15.764,4.056" transform="translate(-207.489 -226.339)" fill="none" stroke="#000" stroke-miterlimit="10" stroke-width="0.25"/>
        <path id="Path_9462" data-name="Path 9462" d="M267.79,241.174s-3.455,5.137-4.352,15.854c0,0,10.373,5.641,26.721-.9" transform="translate(-212.778 -223.957)" fill="none" stroke="#000" stroke-miterlimit="10" stroke-width="0.25"/>
        <path id="Path_9463" data-name="Path 9463" d="M253.823,250.158s-6.416,14.658-.628,24.622c0,0,20.415,1.619,35.558-10.34" transform="translate(-218.771 -219.705)" fill="none" stroke="#000" stroke-miterlimit="10" stroke-width="0.25"/>
        <path id="Path_9464" data-name="Path 9464" d="M242.1,256.942s-4.373,18.786,6.116,28.142c0,0,16.941,5.182,33.375-3.916" transform="translate(-223.306 -216.494)" fill="none" stroke="#000" stroke-miterlimit="10" stroke-width="0.25"/>
      </g>
      <g id="Group_2814" data-name="Group 2814" transform="translate(233.373 86.857)">
        <path id="Path_9465" data-name="Path 9465" d="M394.139,281.134c-.04-18.617-20.893-24.74-39.384-20.632s-37.765-6.926-51.048,3.411-14.325,34.618,0,47.741,36.5,11.4,50.527-2.1S394.183,301.732,394.139,281.134Z" transform="translate(-293.349 -259.283)" fill="#a5b63d" stroke="#231815" stroke-miterlimit="10" stroke-width="0.25"/>
        <path id="Path_9466" data-name="Path 9466" d="M372.764,273.544c-45.432-5.065-51.613,30.391-78.4,34.223" transform="translate(-292.867 -252.766)" fill="none" stroke="#000" stroke-miterlimit="10" stroke-width="0.25"/>
        <path id="Path_9467" data-name="Path 9467" d="M347.836,267.115s-6.5,2.222-8.974,8.744c0,0,2.272,8.068,12.843,11.782" transform="translate(-271.808 -255.575)" fill="none" stroke="#000" stroke-miterlimit="10" stroke-width="0.25"/>
        <path id="Path_9468" data-name="Path 9468" d="M336.943,265.294s-9.111,5.93-10.59,16.065A26.446,26.446,0,0,0,342.2,291.8" transform="translate(-277.729 -256.437)" fill="none" stroke="#000" stroke-miterlimit="10" stroke-width="0.25"/>
        <path id="Path_9469" data-name="Path 9469" d="M322.225,267.115s-11,11.929-7.769,25.459a40.242,40.242,0,0,0,26.232,7.238" transform="translate(-283.64 -255.575)" fill="none" stroke="#000" stroke-miterlimit="10" stroke-width="0.25"/>
        <path id="Path_9470" data-name="Path 9470" d="M307.052,270.685s-8.164,16.684,0,30.664c0,0,8.871,9.565,25.89,8.533" transform="translate(-288.581 -253.886)" fill="none" stroke="#000" stroke-miterlimit="10" stroke-width="0.25"/>
      </g>
      <g id="Group_2815" data-name="Group 2815" transform="translate(170.65 128.097)">
        <path id="Path_9471" data-name="Path 9471" d="M250.776,310.466s.773-13.71,16.706-16.754,28.913,5.908,34.105,12.264,8.592,11.636,18.886,14.948l-47.172,9.22Z" transform="translate(-250.776 -284.517)" fill="#a5b63d" stroke="#231815" stroke-miterlimit="10" stroke-width="0.25"/>
        <path id="Path_9472" data-name="Path 9472" d="M258.288,287.274a130.67,130.67,0,0,1,8.324,14.833c5.728,11.459,14.712,22.733,30.854,25.376" transform="translate(-247.221 -287.274)" fill="none" stroke="#000" stroke-miterlimit="10" stroke-width="0.25"/>
        <path id="Path_9473" data-name="Path 9473" d="M265.745,300.672a79.147,79.147,0,0,1,31.514,5.174" transform="translate(-243.691 -280.973)" fill="none" stroke="#000" stroke-miterlimit="10" stroke-width="0.25"/>
        <path id="Path_9474" data-name="Path 9474" d="M266.922,299.614a34.1,34.1,0,0,0-5.531,16.249" transform="translate(-245.752 -281.434)" fill="none" stroke="#000" stroke-miterlimit="10" stroke-width="0.25"/>
        <path id="Path_9475" data-name="Path 9475" d="M270.867,306.448a21.629,21.629,0,0,0-2.123,15.3" transform="translate(-242.52 -278.199)" fill="none" stroke="#000" stroke-miterlimit="10" stroke-width="0.25"/>
        <path id="Path_9476" data-name="Path 9476" d="M270.634,307.262a29.752,29.752,0,0,1,21.413,4.208" transform="translate(-241.377 -278.048)" fill="none" stroke="#000" stroke-miterlimit="10" stroke-width="0.25"/>
      </g>
      <g id="Group_2816" data-name="Group 2816" transform="translate(350.556 109.134)">
        <path id="Path_9477" data-name="Path 9477" d="M390.188,278c-.39-2.863,5.853-5.594,7.676-1.562s-2.429,6.531-10.777,7.754-13.419,5.385-14.2,9.808" transform="translate(-372.887 -274.403)" fill="none" stroke="#000" stroke-miterlimit="10" stroke-width="0.25"/>
        <path id="Path_9478" data-name="Path 9478" d="M374.653,307s6.764,1.459,13.4-8.3,13.139-12.6,18.992-9.291,5.2,11.61-2.732,11.231" transform="translate(-372.051 -267.923)" fill="none" stroke="#000" stroke-miterlimit="10" stroke-width="0.25"/>
        <path id="Path_9479" data-name="Path 9479" d="M413.077,320.241s-4.455-3.552-.258-6.264c3.462-2.236,8.832,3.036,7.4,7.069s-5.333,8.195-14.569,3.9c-8.469-3.937-12.224-24.678-23.658-27.433" transform="translate(-368.577 -263.464)" fill="none" stroke="#000" stroke-miterlimit="10" stroke-width="0.25"/>
      </g>
    </g>
    <g id="Group_2818" data-name="Group 2818" transform="translate(205.758 288.405)">
      <path id="Path_9480" data-name="Path 9480" d="M170.048,262.424c.729-4.137,10.456-2.341,17.79,2.341A254.149,254.149,0,0,0,225.916,284.9c18.259,7.8,34.957,19.82,52.747,30.589s38.7,30.119,38.7,30.119-39.484,10.553-39.962,10.739-39-22.911-52.268-33.055-19.975-20.536-27.154-28.682S182.7,276.315,177,271.476,169.579,265.078,170.048,262.424Z" transform="translate(-169.974 -260.11)" fill="#62a542" stroke="#000" stroke-linejoin="round" stroke-width="0.25"/>
      <path id="Path_9481" data-name="Path 9481" d="M170.024,261.681a63.857,63.857,0,0,1,16.855,11.862c8.583,8.271,13.42,9.363,25.749,23.252s40.03,35.766,54.972,42.228" transform="translate(-169.951 -259.367)" fill="none" stroke="#000" stroke-miterlimit="10" stroke-width="0.25"/>
    </g>
    <g id="Group_2820" data-name="Group 2820" transform="translate(165.002 321.507)">
      <path id="Path_9482" data-name="Path 9482" d="M181.23,298.3s11.053,1.858,32.071,7.814,38.232,13.058,56.713,15.577,33.339,5.846,39.5,9.528l-79.543,29.774a114.578,114.578,0,0,1-25.911-12.5c-13.408-8.7-27.807-19.387-34.2-28.99l-4.941-19.932Z" transform="translate(-131.61 -275.138)" fill="#62a542" stroke="#000" stroke-linejoin="round" stroke-width="0.25"/>
      <path id="Path_9483" data-name="Path 9483" d="M186.135,321.209a9.809,9.809,0,0,0,4.653,4.5" transform="translate(-121.57 -264.294)" fill="none" stroke="#000" stroke-miterlimit="10" stroke-width="0.25"/>
      <path id="Path_9484" data-name="Path 9484" d="M191.489,322.735a7.4,7.4,0,0,0,4.18,2.248" transform="translate(-119.036 -263.572)" fill="none" stroke="#000" stroke-miterlimit="10" stroke-width="0.25"/>
      <path id="Path_9485" data-name="Path 9485" d="M210.977,331.971a9.4,9.4,0,0,0,5.759,1.578" transform="translate(-109.812 -259.201)" fill="none" stroke="#000" stroke-miterlimit="10" stroke-width="0.25"/>
      <path id="Path_9486" data-name="Path 9486" d="M214.886,330.472a8.14,8.14,0,0,0,3.864,0" transform="translate(-107.962 -259.91)" fill="none" stroke="#000" stroke-miterlimit="10" stroke-width="0.25"/>
      <g id="Group_2819" data-name="Group 2819" transform="translate(0 0)">
        <path id="Path_9487" data-name="Path 9487" d="M148.307,283.524s4.532,2.17,11.8,9.625c6.17,6.326,15.661,8.2,21.693,5.1s14.238-5.761,22.988-3.642,12.281,5.272,12.281,5.272a43.677,43.677,0,0,0-12.118,5.162,28.215,28.215,0,0,1-18.042,4.293s14.519,3.137,15.864,18.55c0,0-.978-1.467-10.154-3.181S178.8,314.92,178.8,314.92s5.637,8.44,4.043,15.291-1.84,4.772-3.063,12.479a31.153,31.153,0,0,0-7.387-14.007s2.2,9.576-8.4,14.007c0,0,.408-4.871-2.609-11.723s.245-14.275-2.53-21.289-11.3-18.648-15.641-21.6Z" transform="translate(-141.886 -282.131)" fill="#ddd658" stroke="#000" stroke-linejoin="round" stroke-width="0.25"/>
        <path id="Path_9488" data-name="Path 9488" d="M159.073,306.344c-.52,4.944,2.892,8.25,5.834,11.539" transform="translate(-134.403 -271.33)" fill="none" stroke="#000" stroke-miterlimit="10" stroke-width="0.25"/>
        <path id="Path_9489" data-name="Path 9489" d="M169.382,300.263a25.444,25.444,0,0,0,5.142,1.151" transform="translate(-129.499 -274.208)" fill="none" stroke="#000" stroke-miterlimit="10" stroke-width="0.25"/>
        <ellipse id="Ellipse_1493" data-name="Ellipse 1493" cx="3.445" cy="2.129" rx="3.445" ry="2.129" transform="translate(0 4.278) rotate(-38.383)" fill="#62a542" stroke="#000" stroke-linejoin="round" stroke-width="0.25"/>
      </g>
    </g>
    <g id="Group_2825" data-name="Group 2825" transform="translate(208.847 298.038)">
      <path id="Path_9490" data-name="Path 9490" d="M172.071,396.782s4.788-18.108,72.48-42.254S321.3,320.9,368.728,314s60.794-15.091,76.747-25.008l10.348,33.2s-26.3,44.41-83.647,74.592-125.039,32.186-125.039,32.186S188.84,423.945,172.071,396.782Z" transform="translate(-172.071 -256.074)" fill="#62a542" stroke="#000" stroke-linejoin="round" stroke-width="0.25"/>
      <path id="Path_9491" data-name="Path 9491" d="M190.31,389.009s3.57-6.247,30.936-16.361,67.228-25.285,94-35.4,46.4-13.193,80.911-26.378,41.086-8.557,41.086-8.557,10.079,19.169-35.732,32.853A1059.016,1059.016,0,0,0,282.822,378.6c-35.4,15.219-56.13,26.958-71.666,30.64S181.981,398.528,190.31,389.009Z" transform="translate(-164.634 -250.141)" fill="#a5b63d" stroke="#231815" stroke-miterlimit="10" stroke-width="0.25"/>
      <g id="Group_2823" data-name="Group 2823" transform="translate(23.148 51.386)">
        <g id="Group_2822" data-name="Group 2822" transform="translate(0 0)" clip-path="url(#clip-path)">
          <g id="Group_2821" data-name="Group 2821" transform="translate(17.495 7.291)">
            <ellipse id="Ellipse_1494" data-name="Ellipse 1494" cx="17.158" cy="18.163" rx="17.158" ry="18.163" transform="translate(0 61.448)" fill="#ddd658" stroke="#000" stroke-linejoin="round" stroke-width="0.25"/>
            <circle id="Ellipse_1495" data-name="Ellipse 1495" cx="21.503" cy="21.503" r="21.503" transform="translate(27.226 46.859)" fill="#ddd658" stroke="#000" stroke-linejoin="round" stroke-width="0.25"/>
            <circle id="Ellipse_1496" data-name="Ellipse 1496" cx="19.472" cy="19.472" r="19.472" transform="translate(65.627 33.449)" fill="#ddd658" stroke="#000" stroke-linejoin="round" stroke-width="0.25"/>
            <ellipse id="Ellipse_1497" data-name="Ellipse 1497" cx="17.842" cy="19.472" rx="17.842" ry="19.472" transform="translate(99.528 20.874)" fill="#ddd658" stroke="#000" stroke-linejoin="round" stroke-width="0.25"/>
            <ellipse id="Ellipse_1498" data-name="Ellipse 1498" cx="19.334" cy="18.749" rx="19.334" ry="18.749" transform="translate(130.775 11.92)" fill="#ddd658" stroke="#000" stroke-linejoin="round" stroke-width="0.25"/>
            <ellipse id="Ellipse_1499" data-name="Ellipse 1499" cx="19.334" cy="18.749" rx="19.334" ry="18.749" transform="translate(166.319)" fill="#ddd658" stroke="#000" stroke-linejoin="round" stroke-width="0.25"/>
          </g>
        </g>
        <path id="Path_9494" data-name="Path 9494" d="M190.31,389.009s3.57-6.247,30.936-16.361,67.228-25.285,94-35.4,46.4-13.193,80.911-26.378,41.086-8.557,41.086-8.557,10.079,19.169-35.732,32.853A1059.016,1059.016,0,0,0,282.822,378.6c-35.4,15.219-56.13,26.958-71.666,30.64S181.981,398.528,190.31,389.009Z" transform="translate(-187.783 -301.526)" fill="none" stroke="#000" stroke-linejoin="round" stroke-width="0.25"/>
      </g>
      <path id="Path_9495" data-name="Path 9495" d="M265.316,361.572a18.222,18.222,0,0,1,4.5-2.083" transform="translate(-127.938 -222.707)" fill="none" stroke="#000" stroke-miterlimit="10" stroke-width="0.25"/>
      <path id="Path_9496" data-name="Path 9496" d="M266.843,364.212a16.22,16.22,0,0,0,4.981-3.309" transform="translate(-127.216 -222.038)" fill="none" stroke="#000" stroke-miterlimit="10" stroke-width="0.25"/>
      <path id="Path_9497" data-name="Path 9497" d="M293.029,361.882s3.456-1.513,4.415-3.048" transform="translate(-114.822 -223.017)" fill="none" stroke="#000" stroke-miterlimit="10" stroke-width="0.25"/>
      <path id="Path_9498" data-name="Path 9498" d="M296.743,362.279a16.346,16.346,0,0,0,3.455-2.41" transform="translate(-113.064 -222.527)" fill="none" stroke="#000" stroke-miterlimit="10" stroke-width="0.25"/>
      <path id="Path_9499" data-name="Path 9499" d="M313.941,344.875a12.6,12.6,0,0,0,4.127-2.783" transform="translate(-104.924 -230.941)" fill="none" stroke="#000" stroke-miterlimit="10" stroke-width="0.25"/>
      <path id="Path_9500" data-name="Path 9500" d="M317.068,347.316a11.979,11.979,0,0,1,4.127-2.879" transform="translate(-103.444 -229.831)" fill="none" stroke="#000" stroke-miterlimit="10" stroke-width="0.25"/>
      <path id="Path_9501" data-name="Path 9501" d="M271.189,320.846a9.407,9.407,0,0,1,3.683-1.806" transform="translate(-125.159 -241.852)" fill="none" stroke="#000" stroke-miterlimit="10" stroke-width="0.25"/>
      <path id="Path_9502" data-name="Path 9502" d="M271.853,317.653a10.254,10.254,0,0,1,2.961-1.242" transform="translate(-124.844 -243.096)" fill="none" stroke="#000" stroke-miterlimit="10" stroke-width="0.25"/>
      <g id="Group_2824" data-name="Group 2824" transform="translate(222.315 0)">
        <path id="Path_9503" data-name="Path 9503" d="M398.966,268.148s-4.074,5.47-7.648,10.737-5.927,4.608-11.57,8.371-11.194,8.183-22.951,5.173-23.107-.756-33.83,9.4a40.581,40.581,0,0,0,15.112,8.186c9.1,2.586,18.107-1.133,18.107-1.133A56.965,56.965,0,0,0,344,321.683c-4.986,7.526-6.867,7.713-6.867,7.713s17.83,6.061,33.392-2.727a42.438,42.438,0,0,0,.94,19.377c3.01,10.44,3.2,15.331,3.2,15.331s9.407-10.628,14.391-19.564c0,0,5.634,11.524,18.332,11.336a55.793,55.793,0,0,1-3.188-10.3c-.947-5.3.753-10.347.941-16.65s-1.694-14.861-9.877-20.034a17.107,17.107,0,0,0,4.608-10.253c.659-6.584.941-9.407,4.986-15.238s4.455-7.222,4.455-7.222Z" transform="translate(-322.967 -265.939)" fill="#ddd658" stroke="#000" stroke-linejoin="round" stroke-width="0.25"/>
        <path id="Path_9504" data-name="Path 9504" d="M368.735,296.614s10.81,9.741-.908,31.726" transform="translate(-301.735 -252.466)" fill="#ddd658" stroke="#000" stroke-linejoin="round" stroke-width="0.25"/>
        <path id="Path_9505" data-name="Path 9505" d="M345.514,298.065s3.392-1.218,7.931-2.44c5.161-1.389,7.036-4.613,7.036-4.613" transform="translate(-312.296 -255.117)" fill="#ddd658" stroke="#000" stroke-linejoin="round" stroke-width="0.25"/>
        <path id="Path_9506" data-name="Path 9506" d="M363.468,296.254s-5.619,5.076-8.218,17.112" transform="translate(-307.688 -252.636)" fill="#ddd658" stroke="#000" stroke-linejoin="round" stroke-width="0.25"/>
        <ellipse id="Ellipse_1500" data-name="Ellipse 1500" cx="2.482" cy="5.815" rx="2.482" ry="5.815" transform="translate(74.867 4.418) rotate(-62.876)" fill="#62a542" stroke="#000" stroke-linejoin="round" stroke-width="0.25"/>
      </g>
    </g>
    <path id="Path_9507" data-name="Path 9507" d="M194.632,461.483c-5.109-2.5-14.248,8.137-5.677,14.646,8.759,6.652,27.529-7.325,33.223-13.856,22.883-26.237,45.127-17.218,55.658-34.888" transform="translate(43.101 107.466)" fill="none" stroke="#000" stroke-miterlimit="10" stroke-width="0.25"/>
    <path id="Path_9508" data-name="Path 9508" d="M187.539,433.979c1.787,1.652,1.513,7.567-5.09,6.466s-8.941-10.454-3.3-14.444,17.883-.275,29.576,9.354,14.437,18.463,23.589,22.506" transform="translate(38.62 106.062)" fill="none" stroke="#000" stroke-miterlimit="10" stroke-width="0.25"/>
    <path id="Path_9509" data-name="Path 9509" d="M217.167,424.963c2.96-1.65-3.5-8.941-7.907-5.09-4.308,3.77,2.614,12.794,14.032,12.519s27.845-7.333,36.62,6.72" transform="translate(53.766 103.386)" fill="none" stroke="#000" stroke-miterlimit="10" stroke-width="0.25"/>
    <path id="Path_9510" data-name="Path 9510" d="M212.761,448.575s-1.744,20.125,4.832,36.075,18.049,16.085,23.1,13.878c6.982-3.048,6.043-13.731.393-15.144-6.294-1.573-8.555,6.589-6.2,8.653" transform="translate(55.935 117.495)" fill="none" stroke="#000" stroke-miterlimit="10" stroke-width="0.25"/>
    <path id="Path_9511" data-name="Path 9511" d="M253.007,427.842a42.907,42.907,0,0,1,3.923,25.084c-2.074,14.4-7.966,18.11-12.446,16.106-4.458-1.995-2.562-10.007,2.562-8.908" transform="translate(69.864 107.682)" fill="none" stroke="#000" stroke-miterlimit="10" stroke-width="0.25"/>
    <g id="Group_2826" data-name="Group 2826" transform="translate(369.833 596.662)">
      <ellipse id="Ellipse_1501" data-name="Ellipse 1501" cx="15.545" cy="14.768" rx="15.545" ry="14.768" transform="translate(0 9.213) rotate(-17.237)" fill="#ddd658" stroke="#000" stroke-linejoin="round" stroke-width="0.25"/>
      <ellipse id="Ellipse_1502" data-name="Ellipse 1502" cx="1.716" cy="4.321" rx="1.716" ry="4.321" transform="translate(20.428 10.826) rotate(-45)" fill="#62a542" stroke="#000" stroke-linejoin="round" stroke-width="0.25"/>
    </g>
    <g id="Group_2827" data-name="Group 2827" transform="translate(426.741 590.076)">
      <ellipse id="Ellipse_1503" data-name="Ellipse 1503" cx="15.99" cy="15.545" rx="15.99" ry="15.545" transform="matrix(0.909, -0.416, 0.416, 0.909, 0, 13.297)" fill="#ddd658" stroke="#000" stroke-linejoin="round" stroke-width="0.25"/>
      <ellipse id="Ellipse_1504" data-name="Ellipse 1504" cx="4.321" cy="1.716" rx="4.321" ry="1.716" transform="matrix(0.611, -0.792, 0.792, 0.611, 7.803, 18.006)" fill="#62a542" stroke="#000" stroke-linejoin="round" stroke-width="0.25"/>
    </g>
    <g id="Group_2828" data-name="Group 2828" transform="translate(457.556 584.092)">
      <ellipse id="Ellipse_1505" data-name="Ellipse 1505" cx="16.561" cy="16.1" rx="16.561" ry="16.1" transform="matrix(0.909, -0.416, 0.416, 0.909, 0, 13.772)" fill="#ddd658" stroke="#000" stroke-linejoin="round" stroke-width="0.25"/>
      <ellipse id="Ellipse_1506" data-name="Ellipse 1506" cx="4.204" cy="1.728" rx="4.204" ry="1.728" transform="translate(26.98 30.269) rotate(-45)" fill="#62a542" stroke="#000" stroke-linejoin="round" stroke-width="0.25"/>
    </g>
    <g id="Group_2829" data-name="Group 2829" transform="translate(427.327 564.941)">
      <ellipse id="Ellipse_1507" data-name="Ellipse 1507" cx="15.837" cy="15.396" rx="15.837" ry="15.396" transform="matrix(0.909, -0.416, 0.416, 0.909, 0, 13.17)" fill="#ddd658" stroke="#000" stroke-linejoin="round" stroke-width="0.25"/>
      <ellipse id="Ellipse_1508" data-name="Ellipse 1508" cx="4.042" cy="1.937" rx="4.042" ry="1.937" transform="translate(26.496 25.837) rotate(-63.599)" fill="#62a542" stroke="#000" stroke-linejoin="round" stroke-width="0.25"/>
    </g>
    <g id="Group_2830" data-name="Group 2830" transform="translate(431.779 635.449)">
      <ellipse id="Ellipse_1509" data-name="Ellipse 1509" cx="14.234" cy="15.31" rx="14.234" ry="15.31" transform="translate(0 23.408) rotate(-55.309)" fill="#ddd658" stroke="#000" stroke-linejoin="round" stroke-width="0.25"/>
      <ellipse id="Ellipse_1510" data-name="Ellipse 1510" cx="1.558" cy="3.811" rx="1.558" ry="3.811" transform="matrix(0.747, -0.664, 0.664, 0.747, 22.151, 13.394)" fill="#62a542" stroke="#000" stroke-linejoin="round" stroke-width="0.25"/>
    </g>
    <ellipse id="Ellipse_1511" data-name="Ellipse 1511" cx="9.679" cy="4.675" rx="9.679" ry="4.675" transform="translate(434.932 699.088)" fill="#c19165" stroke="#000" stroke-linejoin="round" stroke-width="0.25"/>
    <ellipse id="Ellipse_1512" data-name="Ellipse 1512" cx="5.376" cy="3.292" rx="5.376" ry="3.292" transform="translate(457.626 681.575)" fill="#c19165" stroke="#000" stroke-linejoin="round" stroke-width="0.25"/>
    <path id="Path_9512" data-name="Path 9512" d="M292.277,540.876c9.744-6.188,25.283,5.794,33.711.659" transform="translate(93.669 160.318)" fill="none" stroke="#000" stroke-miterlimit="10" stroke-width="0.25"/>
    <path id="Path_9513" data-name="Path 9513" d="M255.9,517.792c16.987-5.662,44.376,7.374,55.175.79" transform="translate(76.452 149.561)" fill="none" stroke="#000" stroke-miterlimit="10" stroke-width="0.25"/>
    <ellipse id="Ellipse_1513" data-name="Ellipse 1513" cx="6.569" cy="3.621" rx="6.569" ry="3.621" transform="translate(315.891 647.469)" fill="#c19165" stroke="#000" stroke-linejoin="round" stroke-width="0.25"/>
    <ellipse id="Ellipse_1514" data-name="Ellipse 1514" cx="9.218" cy="4.741" rx="9.218" ry="4.741" transform="translate(336.96 634.564)" fill="#ecb36f" stroke="#000" stroke-linejoin="round" stroke-width="0.25"/>
    <ellipse id="Ellipse_1515" data-name="Ellipse 1515" cx="8.303" cy="3.947" rx="8.303" ry="3.947" transform="translate(238.288 617.033)" fill="#ecb36f" stroke="#000" stroke-linejoin="round" stroke-width="0.25"/>
    <ellipse id="Ellipse_1516" data-name="Ellipse 1516" cx="8.303" cy="3.947" rx="8.303" ry="3.947" transform="translate(219.423 606.983)" fill="#ecb36f" stroke="#000" stroke-linejoin="round" stroke-width="0.25"/>
    <path id="Path_9514" data-name="Path 9514" d="M297.729,519.555s6.189,1.45,8.824,0" transform="translate(96.249 151.089)" fill="none" stroke="#000" stroke-miterlimit="10" stroke-width="0.25"/>
    <ellipse id="Ellipse_1517" data-name="Ellipse 1517" cx="5.21" cy="3.098" rx="5.21" ry="3.098" transform="translate(380.191 565.153)" fill="#c19165" stroke="#000" stroke-linejoin="round" stroke-width="0.25"/>
    <path id="Path_9515" data-name="Path 9515" d="M270.183,454.936c5.734-3.477,15.776,1.339,19.213-.573" transform="translate(83.212 119.89)" fill="none" stroke="#000" stroke-miterlimit="10" stroke-width="0.25"/>
    <ellipse id="Ellipse_1518" data-name="Ellipse 1518" cx="6.547" cy="3.297" rx="6.547" ry="3.297" transform="translate(525.626 615.447)" fill="#ecb36f" stroke="#000" stroke-linejoin="round" stroke-width="0.25"/>
    <path id="Path_9516" data-name="Path 9516" d="M366.52,497.531c2.486-5.353,11.661-6.978,22.652-2.294s15.389-1.243,21.7,1.338" transform="translate(128.808 138.275)" fill="none" stroke="#000" stroke-miterlimit="10" stroke-width="0.25"/>
    <path id="Path_9517" data-name="Path 9517" d="M400.9,497.01a14.118,14.118,0,0,0,8.028,0" transform="translate(145.081 140.419)" fill="none" stroke="#000" stroke-miterlimit="10" stroke-width="0.25"/>
    <g id="Group_2831" data-name="Group 2831" transform="translate(540.616 456.724)">
      <ellipse id="Ellipse_1519" data-name="Ellipse 1519" cx="5.902" cy="3.41" rx="5.902" ry="3.41" transform="translate(20.824)" fill="#ecb36f" stroke="#000" stroke-linejoin="round" stroke-width="0.25"/>
      <ellipse id="Ellipse_1520" data-name="Ellipse 1520" cx="2.978" cy="2.095" rx="2.978" ry="2.095" transform="translate(10.408 11.992)" fill="#c19165" stroke="#000" stroke-linejoin="round" stroke-width="0.25"/>
      <path id="Path_9518" data-name="Path 9518" d="M397.259,392.769c7-2.226,15.514.654,18.132,0" transform="translate(-397.259 -366.049)" fill="none" stroke="#000" stroke-miterlimit="10" stroke-width="0.25"/>
      <path id="Path_9519" data-name="Path 9519" d="M414.364,391.91s4.32,1.843,7.069.958" transform="translate(-389.163 -366.049)" fill="none" stroke="#000" stroke-miterlimit="10" stroke-width="0.25"/>
    </g>
    <ellipse id="Ellipse_1521" data-name="Ellipse 1521" cx="15.741" cy="17.148" rx="15.741" ry="17.148" transform="matrix(0.893, -0.449, 0.449, 0.893, 131.813, 509.089)" fill="#ddd658" stroke="#000" stroke-linejoin="round" stroke-width="0.25"/>
    <ellipse id="Ellipse_1522" data-name="Ellipse 1522" cx="4.785" cy="1.816" rx="4.785" ry="1.816" transform="matrix(0.586, -0.81, 0.81, 0.586, 140.283, 515.25)" fill="#62a542" stroke="#000" stroke-linejoin="round" stroke-width="0.25"/>
    <ellipse id="Ellipse_1523" data-name="Ellipse 1523" cx="17.403" cy="16.91" rx="17.403" ry="16.91" transform="matrix(0.695, -0.719, 0.719, 0.695, 170.072, 498.95)" fill="#ddd658" stroke="#000" stroke-linejoin="round" stroke-width="0.25"/>
    <ellipse id="Ellipse_1524" data-name="Ellipse 1524" cx="4.964" cy="1.915" rx="4.964" ry="1.915" transform="translate(200.225 505.953) rotate(-68.446)" fill="#62a542" stroke="#000" stroke-linejoin="round" stroke-width="0.25"/>
    <ellipse id="Ellipse_1525" data-name="Ellipse 1525" cx="5.804" cy="2.45" rx="5.804" ry="2.45" transform="translate(164.87 471.529)" fill="none" stroke="#000" stroke-miterlimit="10" stroke-width="0.25"/>
    <ellipse id="Ellipse_1526" data-name="Ellipse 1526" cx="17.257" cy="15.112" rx="17.257" ry="15.112" transform="translate(157.54 467.466)" fill="#ddd658" stroke="#000" stroke-linejoin="round" stroke-width="0.25"/>
    <ellipse id="Ellipse_1527" data-name="Ellipse 1527" cx="7.169" cy="3.782" rx="7.169" ry="3.782" transform="translate(125.3 467.149)" fill="#c19165" stroke="#000" stroke-linejoin="round" stroke-width="0.25"/>
    <ellipse id="Ellipse_1528" data-name="Ellipse 1528" cx="4.932" cy="2.653" rx="4.932" ry="2.653" transform="translate(111.639 475.341)" fill="#c19165" stroke="#000" stroke-linejoin="round" stroke-width="0.25"/>
    <path id="Path_9520" data-name="Path 9520" d="M94.37,381.9c20.171-18.064,39.5-1,58.539-9.883" transform="translate(0 81.259)" fill="none" stroke="#000" stroke-miterlimit="10" stroke-width="0.25"/>
    <ellipse id="Ellipse_1529" data-name="Ellipse 1529" cx="8.916" cy="3.295" rx="8.916" ry="3.295" transform="translate(192.154 398.551)" fill="#ecb36f" stroke="#000" stroke-linejoin="round" stroke-width="0.25"/>
    <ellipse id="Ellipse_1530" data-name="Ellipse 1530" cx="3.926" cy="2.462" rx="3.926" ry="2.462" transform="translate(176.412 392.191)" fill="#ecb36f" stroke="#000" stroke-linejoin="round" stroke-width="0.25"/>
    <path id="Path_9521" data-name="Path 9521" d="M133.064,489.234c3.069,6.248,13.591,7.344,29.046,2.083s23.9,5.068,32.116,3.356" transform="translate(18.314 136.739)" fill="none" stroke="#000" stroke-miterlimit="10" stroke-width="0.25"/>
    <path id="Path_9522" data-name="Path 9522" d="M178.446,495.1c5.7-4.965,11.509,2.192,15.017-1.316" transform="translate(39.793 138.654)" fill="none" stroke="#000" stroke-miterlimit="10" stroke-width="0.25"/>
    <g id="Group_2833" data-name="Group 2833" transform="translate(443.524 352.286)">
      <g id="Group_2832" data-name="Group 2832" transform="translate(0.873)">
        <path id="Path_9523" data-name="Path 9523" d="M350.943,304.546c11.067-3.938,19.165,3.33,23.552,15.272s9.288,17.08,21.261,25.578,18.4,34.988-5.5,49.32-53.383,9.354-57.641-13.426c-3.383-18.089,7.256-29.21,5.261-46.808S343.4,307.232,350.943,304.546Z" transform="translate(-331.951 -303.469)" fill="#a5b63d" stroke="#231815" stroke-miterlimit="10" stroke-width="0.25"/>
        <path id="Path_9524" data-name="Path 9524" d="M347.579,314.566c0,56.362,31.573,68.922,47.221,84.252" transform="translate(-324.554 -298.217)" fill="none" stroke="#000" stroke-miterlimit="10" stroke-width="0.25"/>
        <path id="Path_9525" data-name="Path 9525" d="M339.778,320.589s3.3,12.866,13.61,15.975c0,0,6.922-3.776,7.767-19.235" transform="translate(-328.246 -296.91)" fill="none" stroke="#000" stroke-miterlimit="10" stroke-width="0.25"/>
        <path id="Path_9526" data-name="Path 9526" d="M338.792,340.678s5.385,15.066,25.582,18.114c0,0,10.413-10.119,9.688-31.134" transform="translate(-328.713 -292.021)" fill="none" stroke="#000" stroke-miterlimit="10" stroke-width="0.25"/>
        <path id="Path_9527" data-name="Path 9527" d="M338.384,361.233s14.841,17.83,38.724,7.322c0,0,13.106-7.078,13.211-29.666" transform="translate(-328.906 -286.705)" fill="none" stroke="#000" stroke-miterlimit="10" stroke-width="0.25"/>
      </g>
      <path id="Path_9528" data-name="Path 9528" d="M447.977,353.169c-23.433,41.376-97.531,22.711-116.619,45.423" transform="translate(-331.358 -279.947)" fill="none" stroke="#000" stroke-miterlimit="10" stroke-width="0.25"/>
      <path id="Path_9529" data-name="Path 9529" d="M339.275,390.612s7.265-15.8,33.423-10.129c26.032,5.641,23.3,32.648,23.3,32.648Z" transform="translate(-327.611 -267.6)" fill="#a5b63d" stroke="#231815" stroke-miterlimit="10" stroke-width="0.25"/>
      <path id="Path_9530" data-name="Path 9530" d="M369.094,374.019s-2.979,15.7-13.777,23.29" transform="translate(-320.018 -270.078)" fill="none" stroke="#000" stroke-miterlimit="10" stroke-width="0.25"/>
    </g>
    <ellipse id="Ellipse_1531" data-name="Ellipse 1531" cx="5.297" cy="2.852" rx="5.297" ry="2.852" transform="translate(146.318 575.238)" fill="#c19165" stroke="#000" stroke-linejoin="round" stroke-width="0.25"/>
    <path id="Path_9531" data-name="Path 9531" d="M280.627,379.009a5.468,5.468,0,0,1,2.752,2.262" transform="translate(88.155 84.569)" fill="none" stroke="#000" stroke-miterlimit="10" stroke-width="0.25"/>
    <path id="Path_9532" data-name="Path 9532" d="M282.005,377.55a5.393,5.393,0,0,1,2.124,2.519" transform="translate(88.807 83.879)" fill="none" stroke="#000" stroke-miterlimit="10" stroke-width="0.25"/>
    <g id="Group_2837" data-name="Group 2837" transform="translate(125.112 397.816)">
      <g id="Group_2835" data-name="Group 2835" transform="translate(60.903 26.047)">
        <path id="Path_9533" data-name="Path 9533" d="M168.873,382.677c1.126-.133,25.389,6.559,25.389,6.559s22.011,2.779,54.154,13.492,55.16,11.623,105.957,24.321,61.218,12.009,96.563,15.056c22.229,1.917,35.66,4.013,53.655,4.983,13.593.731,21.666,1.09,24.451,4.413,2.211-1.684-.995-4.6-6.95-6.712-8.139-2.882-11.022-4.749-17.974-10.175s-12.717-10.173-29.5-16.956-30.185-12.888-46.8-15.6S374.9,387.983,349.47,383.573s-87.044-14.3-120.585-17.923-43.966-13.6-43.966-13.6-16.875,1.286-24.877,14.5c-4.576,7.561-5.218,19.11,1.716,29.509C164.844,389.63,168.276,382.748,168.873,382.677Z" transform="translate(-156.574 -352.052)" fill="#62a542" stroke="#000" stroke-linejoin="round" stroke-width="0.25"/>
        <path id="Path_9534" data-name="Path 9534" d="M188.429,364.959s14.043,6.446,25.786,8.566l-3.257,16.022-33.095-6.419L168.9,368.787Z" transform="translate(-150.741 -345.943)" fill="#a5b63d" stroke="#231815" stroke-miterlimit="10" stroke-width="0.25"/>
        <path id="Path_9535" data-name="Path 9535" d="M386.188,411.353s17.076,5.432,23.266,10.72H386.188Z" transform="translate(-47.898 -323.985)" fill="#a5b63d" stroke="#231815" stroke-miterlimit="10" stroke-width="0.25"/>
        <g id="Group_2834" data-name="Group 2834" transform="translate(50.95 20.57)">
          <path id="Path_9536" data-name="Path 9536" d="M230.907,389.048c.877-11.3-4.79-20.887-16.741-22.838-10.024-1.637-22.063,7.2-22.939,18.506s6.621,21.1,16.745,21.889S230.03,400.351,230.907,389.048Z" transform="translate(-191.157 -366.014)" fill="#ddd658" stroke="#000" stroke-linejoin="round" stroke-width="0.25"/>
          <ellipse id="Ellipse_1532" data-name="Ellipse 1532" cx="21.098" cy="19.919" rx="21.098" ry="19.919" transform="translate(32.961 42.527) rotate(-85.563)" fill="#ddd658" stroke="#000" stroke-linejoin="round" stroke-width="0.25"/>
          <ellipse id="Ellipse_1533" data-name="Ellipse 1533" cx="21.098" cy="19.919" rx="21.098" ry="19.919" transform="translate(64.924 55.096) rotate(-85.563)" fill="#ddd658" stroke="#000" stroke-linejoin="round" stroke-width="0.25"/>
          <ellipse id="Ellipse_1534" data-name="Ellipse 1534" cx="21.098" cy="19.919" rx="21.098" ry="19.919" transform="translate(97.986 60.602) rotate(-85.563)" fill="#ddd658" stroke="#000" stroke-linejoin="round" stroke-width="0.25"/>
          <ellipse id="Ellipse_1535" data-name="Ellipse 1535" cx="20.316" cy="19.249" rx="20.316" ry="19.249" transform="translate(129.627 65.743) rotate(-85.563)" fill="#ddd658" stroke="#000" stroke-linejoin="round" stroke-width="0.25"/>
          <circle id="Ellipse_1536" data-name="Ellipse 1536" cx="19.9" cy="19.9" r="19.9" transform="translate(163.968 33.485)" fill="#ddd658" stroke="#000" stroke-linejoin="round" stroke-width="0.25"/>
          <circle id="Ellipse_1537" data-name="Ellipse 1537" cx="19.9" cy="19.9" r="19.9" transform="translate(199.434 38.851)" fill="#ddd658" stroke="#000" stroke-linejoin="round" stroke-width="0.25"/>
          <ellipse id="Ellipse_1538" data-name="Ellipse 1538" cx="18.717" cy="17.183" rx="18.717" ry="17.183" transform="translate(233.065 81.697) rotate(-85.563)" fill="#ddd658" stroke="#000" stroke-linejoin="round" stroke-width="0.25"/>
          <circle id="Ellipse_1539" data-name="Ellipse 1539" cx="14.28" cy="14.28" r="14.28" transform="translate(264.306 55.794)" fill="#ddd658" stroke="#000" stroke-linejoin="round" stroke-width="0.25"/>
        </g>
        <path id="Path_9537" data-name="Path 9537" d="M168.868,395.444s15.953,10.1,49.778,26.8,64.756,31.328,115.533,44.214a361.64,361.64,0,0,0,116.554,9.7c27.131-2.374,40.7-11.361,50.023-18.652s12.889-13.9,21.876-14.583c2.413-.183,3.934-.639,4.744-1.258-2.785-3.322-10.858-3.682-24.451-4.412-17.995-.969-31.426-3.066-53.655-4.983-35.344-3.047-45.768-2.356-96.563-15.056S278.9,403.606,246.751,392.891,192.6,379.4,192.6,379.4s-24.264-6.692-25.389-6.559c-.6.071-4.029,6.953-7.115,13.388A38.628,38.628,0,0,0,168.868,395.444Z" transform="translate(-154.909 -342.214)" fill="#62a542" stroke="#000" stroke-linejoin="round" stroke-width="0.25"/>
      </g>
      <path id="Path_9538" data-name="Path 9538" d="M200.748,399.3a11.229,11.229,0,0,0,5.108,4.589" transform="translate(-74.764 -303.645)" fill="none" stroke="#000" stroke-miterlimit="10" stroke-width="0.25"/>
      <path id="Path_9539" data-name="Path 9539" d="M203.306,398.81a7.949,7.949,0,0,0,5.109,3.378" transform="translate(-73.553 -303.875)" fill="none" stroke="#000" stroke-miterlimit="10" stroke-width="0.25"/>
      <path id="Path_9540" data-name="Path 9540" d="M245.6,411.75s2.292,2.733,5.2,3.173" transform="translate(-53.537 -297.75)" fill="none" stroke="#000" stroke-miterlimit="10" stroke-width="0.25"/>
      <path id="Path_9541" data-name="Path 9541" d="M249.127,410.782a7.363,7.363,0,0,0,5.074,2.5" transform="translate(-51.866 -298.209)" fill="none" stroke="#000" stroke-miterlimit="10" stroke-width="0.25"/>
      <path id="Path_9542" data-name="Path 9542" d="M299.818,429.114a6.783,6.783,0,0,0,6.279.6" transform="translate(-27.874 -289.532)" fill="none" stroke="#000" stroke-miterlimit="10" stroke-width="0.25"/>
      <path id="Path_9543" data-name="Path 9543" d="M300.968,427.22s2.292,1.1,3.887,0" transform="translate(-27.33 -290.428)" fill="none" stroke="#000" stroke-miterlimit="10" stroke-width="0.25"/>
      <path id="Path_9544" data-name="Path 9544" d="M336.255,422.1a7.289,7.289,0,0,0,5.56-1.383" transform="translate(-10.629 -293.506)" fill="none" stroke="#000" stroke-miterlimit="10" stroke-width="0.25"/>
      <path id="Path_9545" data-name="Path 9545" d="M334.376,420.091s3.716.23,5.548-1.462" transform="translate(-11.518 -294.495)" fill="none" stroke="#000" stroke-miterlimit="10" stroke-width="0.25"/>
      <path id="Path_9546" data-name="Path 9546" d="M364.336,434.485s3.614.461,5.382-2.077" transform="translate(2.662 -287.973)" fill="none" stroke="#000" stroke-miterlimit="10" stroke-width="0.25"/>
      <g id="Group_2836" data-name="Group 2836" transform="translate(0 0)">
        <path id="Path_9547" data-name="Path 9547" d="M123.97,335.655a35.323,35.323,0,0,0,9.2,5.8c6.094,2.789,6.92,5.784,13.842,6.714s12.7,2.076,16.94,5.273a25.126,25.126,0,0,0,22.829,3.508c10.123-3.306,23.736-13.937,44.183-1.095,0,0-6.7,1.023-17.466,9.556,0,0,15.411,2.979,21.884,11.3a62.776,62.776,0,0,0-14.282,4.828c-6.061,3.185-12.329,6.577-19.315,5.856,0,0,4.137,1.8,12.124,4.418,8.924,2.922,12.225,6.678,14.9,12.124,0,0-6.061-.616-17.363,1.13s-19.6-.613-25.789-5.239c0,0,7.294,5.856,6.678,17.569s.411,12.021.411,12.021-7.705-9.556-16.85-14.59-12.432-19.932-13.871-29.487-7.705-12.432-14.178-15.412-3.7-9.177-12.741-14.795c-7.33-4.555-17.466-11.2-19.333-15.9Z" transform="translate(-114.982 -333.766)" fill="#ddd658" stroke="#000" stroke-linejoin="round" stroke-width="0.25"/>
        <path id="Path_9548" data-name="Path 9548" d="M189.778,355.85s-7.9,7.016-23.729,2.74" transform="translate(-91.187 -324.208)" fill="none" stroke="#000" stroke-miterlimit="10" stroke-width="0.25"/>
        <path id="Path_9549" data-name="Path 9549" d="M161.576,364.341a21.38,21.38,0,0,1,8.868,4.946,18.982,18.982,0,0,0,9.738,4.53" transform="translate(-93.304 -320.189)" fill="none" stroke="#000" stroke-miterlimit="10" stroke-width="0.25"/>
        <path id="Path_9550" data-name="Path 9550" d="M154.55,368.464A45.084,45.084,0,0,0,167.3,384.3" transform="translate(-96.629 -318.238)" fill="none" stroke="#000" stroke-miterlimit="10" stroke-width="0.25"/>
        <ellipse id="Ellipse_1540" data-name="Ellipse 1540" cx="4.51" cy="2.479" rx="4.51" ry="2.479" transform="matrix(0.937, -0.349, 0.349, 0.937, 0, 3.147)" fill="#62a542" stroke="#000" stroke-linejoin="round" stroke-width="0.25"/>
      </g>
    </g>
  </g>
</svg>
