<svg xmlns="http://www.w3.org/2000/svg" xmlns:xlink="http://www.w3.org/1999/xlink" width="411.577" height="428.51" viewBox="0 0 411.577 428.51">
  <defs>
    <clipPath id="clip-path">
      <path id="Path_15418" data-name="Path 15418" d="M2655.218,1334.333c30.233,0,59.76,9.279,79.82,42.168s28.175,58.136,26.822,93.3-22.314,78.89-48.01,91.963-93.315,11.045-120.814-4.733-52.744-60.408-50.941-102.332,17.131-75.282,40.572-95.118S2630.62,1334.333,2655.218,1334.333Z" transform="translate(-2542.003 -1334.333)" fill="none"/>
    </clipPath>
  </defs>
  <g id="Group_4300" data-name="Group 4300" transform="translate(-2428.696 -1334.208)">
    <g id="Group_4288" data-name="Group 4288" transform="translate(2529.652 1351.888)">
      <path id="Path_15373" data-name="Path 15373" d="M2509.185,1347.34c-2.693.347.676,2.7-2.7,14.876s-6.537,32.007,4.958,45.531,49.363,37.867,49.363,37.867,19.61-39.9,3.606-61.76-38.373-24.746-47.334-32.739C2513.947,1348.327,2510.931,1347.115,2509.185,1347.34Z" transform="translate(-2503.359 -1347.313)" fill="#a5b63d" stroke="#231815" stroke-miterlimit="10" stroke-width="0.25"/>
      <path id="Path_15374" data-name="Path 15374" d="M2507.667,1347.333s32.728,38.123,49.048,96.6" transform="translate(-2501.842 -1347.307)" fill="none" stroke="#000" stroke-miterlimit="10" stroke-width="0.25"/>
      <path id="Path_15375" data-name="Path 15375" d="M2505.667,1358.333s14.295,9.987,19.712,9.221" transform="translate(-2502.547 -1343.43)" fill="none" stroke="#000" stroke-miterlimit="10" stroke-width="0.25"/>
      <path id="Path_15376" data-name="Path 15376" d="M2520.687,1354.352s3.146,9.195-.444,14.6" transform="translate(-2497.409 -1344.833)" fill="none" stroke="#000" stroke-miterlimit="10" stroke-width="0.25"/>
      <path id="Path_15377" data-name="Path 15377" d="M2503.527,1369.809s20.315,10.942,30.594,7.418" transform="translate(-2503.3 -1339.386)" fill="none" stroke="#000" stroke-miterlimit="10" stroke-width="0.25"/>
      <path id="Path_15378" data-name="Path 15378" d="M2532.392,1359.285s2.6,15.083-6.243,21.651" transform="translate(-2495.328 -1343.094)" fill="none" stroke="#000" stroke-miterlimit="10" stroke-width="0.25"/>
      <path id="Path_15379" data-name="Path 15379" d="M2504.461,1382.556s20.56,11.44,37.82,6.992" transform="translate(-2502.972 -1334.894)" fill="none" stroke="#000" stroke-miterlimit="10" stroke-width="0.25"/>
      <path id="Path_15380" data-name="Path 15380" d="M2543.9,1366.138s-1.228,23.655-11.471,29.2" transform="translate(-2493.116 -1340.68)" fill="none" stroke="#000" stroke-miterlimit="10" stroke-width="0.25"/>
      <path id="Path_15381" data-name="Path 15381" d="M2552.879,1374.333s-2.085,18.233-16.806,29.346" transform="translate(-2491.831 -1337.792)" fill="none" stroke="#000" stroke-miterlimit="10" stroke-width="0.25"/>
      <path id="Path_15382" data-name="Path 15382" d="M2510.693,1393.5s25,7.716,34.324,3.428" transform="translate(-2500.775 -1331.038)" fill="none" stroke="#000" stroke-miterlimit="10" stroke-width="0.25"/>
      <path id="Path_15383" data-name="Path 15383" d="M2557.821,1385.879s-7.535,17.193-19.089,22.879" transform="translate(-2490.895 -1333.723)" fill="none" stroke="#000" stroke-miterlimit="10" stroke-width="0.25"/>
      <path id="Path_15384" data-name="Path 15384" d="M2517.876,1399.985s17.3,8.653,28.206,3.8" transform="translate(-2498.244 -1328.752)" fill="none" stroke="#000" stroke-miterlimit="10" stroke-width="0.25"/>
    </g>
    <g id="Group_4289" data-name="Group 4289" transform="translate(2657.475 1618.215)">
      <path id="Path_15385" data-name="Path 15385" d="M2722.465,1640.273c2.269-.63,3.888-22.991-7.438-43.277s-30.372-41.343-52.631-49.137-37.867-.564-37.867-.564l-26.653,35.838s14.313,28.231,34.881,38.712,38.359,16.018,54.208,14.369,22.231-2.029,31.274,1.86C2720.96,1639.245,2720.943,1640.7,2722.465,1640.273Z" transform="translate(-2597.875 -1544.242)" fill="#cad226" stroke="#231815" stroke-miterlimit="10" stroke-width="0.25"/>
      <path id="Path_15386" data-name="Path 15386" d="M2717.987,1636.159s-38.834-61.929-107.407-80.242" transform="translate(-2593.397 -1540.128)" fill="none" stroke="#000" stroke-miterlimit="10" stroke-width="0.25"/>
      <path id="Path_15387" data-name="Path 15387" d="M2673.248,1617.214s-3.835-10.975,1.122-22.107" transform="translate(-2571.812 -1526.318)" fill="none" stroke="#000" stroke-miterlimit="10" stroke-width="0.25"/>
      <path id="Path_15388" data-name="Path 15388" d="M2696.844,1605.522s-11.078-10.976-23.135-10.409" transform="translate(-2571.151 -1526.323)" fill="none" stroke="#000" stroke-miterlimit="10" stroke-width="0.25"/>
      <path id="Path_15389" data-name="Path 15389" d="M2658.286,1623.787s-8.446-26.408,0-43.692" transform="translate(-2577.908 -1531.608)" fill="none" stroke="#000" stroke-miterlimit="10" stroke-width="0.25"/>
      <path id="Path_15390" data-name="Path 15390" d="M2696.759,1590.084s-21.187-15.827-39.451-9.613" transform="translate(-2576.93 -1531.985)" fill="none" stroke="#000" stroke-miterlimit="10" stroke-width="0.25"/>
      <path id="Path_15391" data-name="Path 15391" d="M2691.368,1575.988s-21.9-16.351-50.268-6.233" transform="translate(-2582.642 -1536.416)" fill="none" stroke="#000" stroke-miterlimit="10" stroke-width="0.25"/>
      <path id="Path_15392" data-name="Path 15392" d="M2642.025,1623.109s-11.529-29.165.5-54.215" transform="translate(-2584.071 -1535.555)" fill="none" stroke="#000" stroke-miterlimit="10" stroke-width="0.25"/>
      <path id="Path_15393" data-name="Path 15393" d="M2676.543,1558.436s-30.526-8.4-48.6,5.8" transform="translate(-2587.278 -1540.11)" fill="none" stroke="#000" stroke-miterlimit="10" stroke-width="0.25"/>
      <path id="Path_15394" data-name="Path 15394" d="M2626.794,1617.154s-8.146-32.643,2.6-55.071" transform="translate(-2588.726 -1537.955)" fill="none" stroke="#000" stroke-miterlimit="10" stroke-width="0.25"/>
      <path id="Path_15395" data-name="Path 15395" d="M2611.479,1603.947s-3.541-27.9,8.427-45.916" transform="translate(-2593.253 -1539.383)" fill="none" stroke="#000" stroke-miterlimit="10" stroke-width="0.25"/>
    </g>
    <g id="Group_4290" data-name="Group 4290" transform="translate(2695.398 1402.855)">
      <path id="Path_15396" data-name="Path 15396" d="M2693.75,1385s20.793,3.719,26.033,17.412,6.255,16.4,5.241,27.893,5.774,23.667.352,34.486-6.438,26.71-10.326,30.429a46.251,46.251,0,0,0,.169-21.976c-2.874-11.834-8.78-16.536-8.869-21.115S2705.921,1397,2693.75,1385Z" transform="translate(-2602.013 -1385)" fill="#ffe8cf" stroke="#000" stroke-miterlimit="10" stroke-width="0.25"/>
      <path id="Path_15397" data-name="Path 15397" d="M2636.284,1577.35a26.234,26.234,0,0,1,15.44,2.254c7.438,3.832,13.524,7.551,20.06,4.564s9.693.395,16.343-9.072,10.931-5.185,14.538-12.4,6.086-23.329,12.622-27.893,9.467-11.544,11.27-18.2,7.045-20.911,12.4-28.292,3.945-22.427,6.874-27.724-1.69-33.246,0-41.924a56.09,56.09,0,0,0,1.223-14.081,124.207,124.207,0,0,1,6.554,25.239,167.881,167.881,0,0,0,9.016,33.584c2.141,5.3,1.127,18.483-2.479,27.724s-7.776,22.2-8.228,31.443-11.833,20.42-14.086,27.171-10.819,14.077-17.356,33.575-11.847,16.567-20.462,21.976-10.867,9.017-24.167,9.017-20.869-4.959-31.509-5.072-18.417-11.383-18.417-11.383Z" transform="translate(-2625.917 -1378.097)" fill="#f2b370" stroke="#000" stroke-linejoin="round" stroke-width="0.25"/>
      <path id="Path_15398" data-name="Path 15398" d="M2639.236,1546.083s.583,1.128,1.259,1.128" transform="translate(-2621.223 -1328.234)" fill="none" stroke="#000" stroke-miterlimit="10" stroke-width="0.25"/>
      <path id="Path_15399" data-name="Path 15399" d="M2637.917,1538s1.67,0,2.188.789" transform="translate(-2621.688 -1331.082)" fill="none" stroke="#000" stroke-miterlimit="10" stroke-width="0.25"/>
      <path id="Path_15400" data-name="Path 15400" d="M2654.5,1544.625s2.931.845,3.831,0" transform="translate(-2615.844 -1328.748)" fill="none" stroke="#000" stroke-miterlimit="10" stroke-width="0.25"/>
      <path id="Path_15401" data-name="Path 15401" d="M2643.167,1551.678a4.252,4.252,0,0,1,3.268.9" transform="translate(-2619.838 -1326.277)" fill="none" stroke="#000" stroke-miterlimit="10" stroke-width="0.25"/>
      <path id="Path_15402" data-name="Path 15402" d="M2653.708,1549.833a6.152,6.152,0,0,0,2.535,0" transform="translate(-2616.124 -1326.912)" fill="none" stroke="#000" stroke-miterlimit="10" stroke-width="0.25"/>
      <path id="Path_15403" data-name="Path 15403" d="M2659.75,1553.424a6.757,6.757,0,0,1,4.17,0" transform="translate(-2613.994 -1325.771)" fill="none" stroke="#000" stroke-miterlimit="10" stroke-width="0.25"/>
      <path id="Path_15404" data-name="Path 15404" d="M2674.833,1547.063s3.381.3,4.847-2.16" transform="translate(-2608.679 -1328.65)" fill="none" stroke="#000" stroke-miterlimit="10" stroke-width="0.25"/>
      <path id="Path_15405" data-name="Path 15405" d="M2671.833,1538.065a3.078,3.078,0,0,1,2.48,0" transform="translate(-2609.736 -1331.148)" fill="none" stroke="#000" stroke-miterlimit="10" stroke-width="0.25"/>
      <path id="Path_15406" data-name="Path 15406" d="M2684,1532.731s2.029-1.24,3.381-.789" transform="translate(-2605.448 -1333.252)" fill="none" stroke="#000" stroke-miterlimit="10" stroke-width="0.25"/>
      <path id="Path_15407" data-name="Path 15407" d="M2689.75,1537.1s1.917-.45,2.479-1.352" transform="translate(-2603.422 -1331.875)" fill="none" stroke="#000" stroke-miterlimit="10" stroke-width="0.25"/>
      <path id="Path_15408" data-name="Path 15408" d="M2705.833,1499.038a3.057,3.057,0,0,1,2.262-.788" transform="translate(-2597.754 -1345.091)" fill="none" stroke="#000" stroke-miterlimit="10" stroke-width="0.25"/>
      <path id="Path_15409" data-name="Path 15409" d="M2703.583,1492.8a2.959,2.959,0,0,1,2.366-.788" transform="translate(-2598.548 -1347.302)" fill="none" stroke="#000" stroke-miterlimit="10" stroke-width="0.25"/>
      <path id="Path_15410" data-name="Path 15410" d="M2711.88,1487.735a4.154,4.154,0,0,0,2.979-.9" transform="translate(-2595.624 -1349.114)" fill="none" stroke="#000" stroke-miterlimit="10" stroke-width="0.25"/>
      <path id="Path_15411" data-name="Path 15411" d="M2709.667,1481.385a5.163,5.163,0,0,1,2.993,0" transform="translate(-2596.403 -1351.104)" fill="none" stroke="#000" stroke-miterlimit="10" stroke-width="0.25"/>
      <path id="Path_15412" data-name="Path 15412" d="M2716,1476.343s1.916.224,2.7-.676" transform="translate(-2594.172 -1353.049)" fill="none" stroke="#000" stroke-miterlimit="10" stroke-width="0.25"/>
      <path id="Path_15413" data-name="Path 15413" d="M2714.083,1467.261s2.367-.338,3.269.9" transform="translate(-2594.847 -1356.026)" fill="none" stroke="#000" stroke-miterlimit="10" stroke-width="0.25"/>
      <path id="Path_15414" data-name="Path 15414" d="M2719.417,1444.5a6.72,6.72,0,0,1,1.8,2.029" transform="translate(-2592.968 -1364.032)" fill="none" stroke="#000" stroke-miterlimit="10" stroke-width="0.25"/>
      <path id="Path_15415" data-name="Path 15415" d="M2720.75,1457.667s.226,1.691,1.24,2.141" transform="translate(-2592.497 -1359.392)" fill="none" stroke="#000" stroke-miterlimit="10" stroke-width="0.25"/>
    </g>
    <g id="Group_4293" data-name="Group 4293" transform="translate(2581.914 1334.333)">
      <path id="Path_15416" data-name="Path 15416" d="M2655.479,1334.333c30.233,0,59.76,9.279,79.82,42.168s28.174,58.136,26.822,93.3-22.315,78.89-48.01,91.963-93.316,11.045-120.814-4.733-52.743-60.408-50.941-102.332,17.131-75.282,40.572-95.118S2630.882,1334.333,2655.479,1334.333Z" transform="translate(-2541.911 -1334.333)" fill="#fff6eb" stroke="#000" stroke-miterlimit="10" stroke-width="0.25"/>
      <g id="Group_4292" data-name="Group 4292">
        <g id="Group_4291" data-name="Group 4291" clip-path="url(#clip-path)">
          <path id="Path_15417" data-name="Path 15417" d="M2551.5,1389.958s23.046,13.13,29.584,24.4,6.536,19.61,16.453,24.793,30.543,9.693,46.715,18.709,32.063-2.028,52.405,3.155,27.33-4.508,43.108-2.931,27.048-13.974,27.048-13.974,1.592,66.606-39.438,97.035-103.578,16.229-124.878,7.1-45.982-32.458-56.463-66.268S2536.854,1403.426,2551.5,1389.958Z" transform="translate(-2543 -1314.731)" fill="#f2b370" stroke="#000" stroke-linejoin="round" stroke-width="0.25"/>
        </g>
      </g>
      <path id="Path_15419" data-name="Path 15419" d="M2616.875,1353s9.016,7.719,23.61.338" transform="translate(-2515.619 -1327.755)" fill="none" stroke="#000" stroke-miterlimit="10" stroke-width="0.25"/>
      <path id="Path_15420" data-name="Path 15420" d="M2660.808,1353.38s-7.777-1.133-10.933-5.638-8.677.229-16.679-1.687-15.441,1.69-18.258,5.184-4.733,5.3-4.283,8.678a13.929,13.929,0,0,1-1.239,6.874s12.169-1.465,17.411,3.269,17.413,2.253,21.245-3.381S2655.961,1354.508,2660.808,1353.38Z" transform="translate(-2518.247 -1330.39)" fill="#f2b370" stroke="#000" stroke-linejoin="round" stroke-width="0.25"/>
      <circle id="Ellipse_2364" data-name="Ellipse 2364" cx="3.099" cy="3.099" r="3.099" transform="translate(150.562 43.165)" fill="#dffffa" stroke="#231815" stroke-miterlimit="10" stroke-width="0.25"/>
      <ellipse id="Ellipse_2365" data-name="Ellipse 2365" cx="5.973" cy="7.607" rx="5.973" ry="7.607" transform="translate(164.169 47.351) rotate(-26.062)" fill="#dffffa" stroke="#231815" stroke-miterlimit="10" stroke-width="0.25"/>
      <ellipse id="Ellipse_2366" data-name="Ellipse 2366" cx="4.733" cy="3.268" rx="4.733" ry="3.268" transform="translate(59.301 46.325) rotate(-51.769)" fill="#dffffa" stroke="#231815" stroke-miterlimit="10" stroke-width="0.25"/>
      <path id="Path_15421" data-name="Path 15421" d="M2659.25,1389.083a3.7,3.7,0,0,1,.676,2.367" transform="translate(-2500.686 -1315.039)" fill="none" stroke="#000" stroke-miterlimit="10" stroke-width="0.25"/>
      <path id="Path_15422" data-name="Path 15422" d="M2660.583,1387.833a6.363,6.363,0,0,1,2.142,4.057" transform="translate(-2500.216 -1315.48)" fill="none" stroke="#000" stroke-miterlimit="10" stroke-width="0.25"/>
      <path id="Path_15423" data-name="Path 15423" d="M2676,1414.25a10.569,10.569,0,0,1,.45,5.748" transform="translate(-2494.783 -1306.17)" fill="none" stroke="#000" stroke-miterlimit="10" stroke-width="0.25"/>
      <path id="Path_15424" data-name="Path 15424" d="M2677.417,1411.667s3.155,3.155,2.367,10.481" transform="translate(-2494.284 -1307.08)" fill="none" stroke="#000" stroke-miterlimit="10" stroke-width="0.25"/>
      <path id="Path_15425" data-name="Path 15425" d="M2605.914,1408s-3.043,2.7-2.479,8.678" transform="translate(-2520.379 -1308.373)" fill="none" stroke="#000" stroke-miterlimit="10" stroke-width="0.25"/>
      <path id="Path_15426" data-name="Path 15426" d="M2607.593,1410.417s-1.69,1.239-1.24,4.846" transform="translate(-2519.354 -1307.521)" fill="none" stroke="#000" stroke-miterlimit="10" stroke-width="0.25"/>
      <path id="Path_15427" data-name="Path 15427" d="M2580.08,1387.5a29.6,29.6,0,0,0-7.663,17.469" transform="translate(-2531.286 -1315.597)" fill="none" stroke="#000" stroke-miterlimit="10" stroke-width="0.25"/>
      <path id="Path_15428" data-name="Path 15428" d="M2579.41,1392.667s-3.043,2.028-3.493,8.339" transform="translate(-2530.052 -1313.776)" fill="none" stroke="#000" stroke-miterlimit="10" stroke-width="0.25"/>
      <path id="Path_15429" data-name="Path 15429" d="M2552.625,1405.625a4.524,4.524,0,0,0,1.859,2.085" transform="translate(-2538.26 -1309.21)" fill="none" stroke="#000" stroke-miterlimit="10" stroke-width="0.25"/>
      <path id="Path_15430" data-name="Path 15430" d="M2552.625,1414.833s.733,2.142,1.859,2.142" transform="translate(-2538.26 -1305.965)" fill="none" stroke="#000" stroke-miterlimit="10" stroke-width="0.25"/>
      <path id="Path_15431" data-name="Path 15431" d="M2565.583,1415.625a12.7,12.7,0,0,1,1.128,2.424" transform="translate(-2533.694 -1305.686)" fill="none" stroke="#000" stroke-miterlimit="10" stroke-width="0.25"/>
      <path id="Path_15432" data-name="Path 15432" d="M2566.917,1422.333s1.014,2.254,1.915,2.7" transform="translate(-2533.224 -1303.322)" fill="none" stroke="#000" stroke-miterlimit="10" stroke-width="0.25"/>
      <path id="Path_15433" data-name="Path 15433" d="M2573.75,1428.75a13.963,13.963,0,0,1,.789,3.043" transform="translate(-2530.816 -1301.06)" fill="none" stroke="#000" stroke-miterlimit="10" stroke-width="0.25"/>
      <path id="Path_15434" data-name="Path 15434" d="M2600,1442.194s1.916-1.014,3.155-.676" transform="translate(-2521.566 -1296.585)" fill="none" stroke="#000" stroke-miterlimit="10" stroke-width="0.25"/>
      <path id="Path_15435" data-name="Path 15435" d="M2612.25,1442.667a7.682,7.682,0,0,1,1.014,2.7" transform="translate(-2517.249 -1296.156)" fill="none" stroke="#000" stroke-miterlimit="10" stroke-width="0.25"/>
      <path id="Path_15436" data-name="Path 15436" d="M2616.083,1453.5a6.326,6.326,0,0,0,3.043,1.353" transform="translate(-2515.898 -1292.338)" fill="none" stroke="#000" stroke-miterlimit="10" stroke-width="0.25"/>
      <path id="Path_15437" data-name="Path 15437" d="M2633.417,1449.083s2.367.564,2.929,1.578" transform="translate(-2509.789 -1293.895)" fill="none" stroke="#000" stroke-miterlimit="10" stroke-width="0.25"/>
      <path id="Path_15438" data-name="Path 15438" d="M2647.083,1459.25a5.088,5.088,0,0,1,3.156,2.592" transform="translate(-2504.973 -1290.312)" fill="none" stroke="#000" stroke-miterlimit="10" stroke-width="0.25"/>
      <path id="Path_15439" data-name="Path 15439" d="M2637.917,1467.417a3.617,3.617,0,0,0,2.478,2.225" transform="translate(-2508.204 -1287.434)" fill="none" stroke="#000" stroke-miterlimit="10" stroke-width="0.25"/>
      <path id="Path_15440" data-name="Path 15440" d="M2634.833,1477.667a6.529,6.529,0,0,1,2.931,2.141" transform="translate(-2509.29 -1283.822)" fill="none" stroke="#000" stroke-miterlimit="10" stroke-width="0.25"/>
      <path id="Path_15441" data-name="Path 15441" d="M2645,1492.583a4.7,4.7,0,0,0,3.493.79" transform="translate(-2505.708 -1278.566)" fill="none" stroke="#000" stroke-miterlimit="10" stroke-width="0.25"/>
      <path id="Path_15442" data-name="Path 15442" d="M2651.5,1482.083s2.254-.112,3.043,1.352" transform="translate(-2503.417 -1282.266)" fill="none" stroke="#000" stroke-miterlimit="10" stroke-width="0.25"/>
      <path id="Path_15443" data-name="Path 15443" d="M2650.5,1474.333s1.8.338,2.141,1.8" transform="translate(-2503.769 -1284.997)" fill="none" stroke="#000" stroke-miterlimit="10" stroke-width="0.25"/>
      <path id="Path_15444" data-name="Path 15444" d="M2659.333,1468.667s2.7-.114,3.607,1.465" transform="translate(-2500.657 -1286.994)" fill="none" stroke="#000" stroke-miterlimit="10" stroke-width="0.25"/>
      <path id="Path_15445" data-name="Path 15445" d="M2670.333,1482.082s2.367,1.918,4.283,1.354" transform="translate(-2496.781 -1282.266)" fill="none" stroke="#000" stroke-miterlimit="10" stroke-width="0.25"/>
      <path id="Path_15446" data-name="Path 15446" d="M2663.667,1491.373a5.208,5.208,0,0,0,2.817-.79" transform="translate(-2499.13 -1279.271)" fill="none" stroke="#000" stroke-miterlimit="10" stroke-width="0.25"/>
      <path id="Path_15447" data-name="Path 15447" d="M2675,1471.425s2.479-.338,3.493,1.239" transform="translate(-2495.136 -1286.032)" fill="none" stroke="#000" stroke-miterlimit="10" stroke-width="0.25"/>
      <path id="Path_15448" data-name="Path 15448" d="M2671.583,1454.117a3.924,3.924,0,0,1,3.607,0" transform="translate(-2496.34 -1292.28)" fill="none" stroke="#000" stroke-miterlimit="10" stroke-width="0.25"/>
      <path id="Path_15449" data-name="Path 15449" d="M2656.5,1448.417s1.578,1.465,2.367.9" transform="translate(-2501.655 -1294.13)" fill="none" stroke="#000" stroke-miterlimit="10" stroke-width="0.25"/>
      <path id="Path_15450" data-name="Path 15450" d="M2685.25,1455.2s2.029-1.8,3.945-1.353" transform="translate(-2491.524 -1292.24)" fill="none" stroke="#000" stroke-miterlimit="10" stroke-width="0.25"/>
      <path id="Path_15451" data-name="Path 15451" d="M2694.75,1447.8s2.141-.563,2.817-1.8" transform="translate(-2488.176 -1294.982)" fill="none" stroke="#000" stroke-miterlimit="10" stroke-width="0.25"/>
      <path id="Path_15452" data-name="Path 15452" d="M2687.5,1465.969s2.93-.338,3.831-1.8" transform="translate(-2490.73 -1288.579)" fill="none" stroke="#000" stroke-miterlimit="10" stroke-width="0.25"/>
      <path id="Path_15453" data-name="Path 15453" d="M2655.5,1334.333c30.235,0,59.761,9.279,79.822,42.168s28.174,58.136,26.822,93.3-22.315,78.89-48.01,91.963-93.316,11.045-120.814-4.733-52.743-60.408-50.94-102.332,17.131-75.282,40.572-95.118S2630.9,1334.333,2655.5,1334.333Z" transform="translate(-2541.904 -1334.333)" fill="none" stroke="#000" stroke-miterlimit="10" stroke-width="0.25"/>
      <path id="Path_15454" data-name="Path 15454" d="M2629.448,1361.206a31.413,31.413,0,0,1-.2-11.048c.86-4.19,3.015-8.448,3.015-11.491h-7.214s-.439,3.273-.534,5.9c-.169,4.691-.169,5.734-1.521,8.889s-.564,7.185.707,7.971A13.4,13.4,0,0,0,2629.448,1361.206Z" transform="translate(-2513.71 -1332.806)" fill="#7a5d49" stroke="#0a0503" stroke-miterlimit="10" stroke-width="0.25"/>
      <ellipse id="Ellipse_2367" data-name="Ellipse 2367" cx="3.606" cy="1.803" rx="3.606" ry="1.803" transform="translate(111.343 4.058)" fill="#ad7955" stroke="#000" stroke-linejoin="round" stroke-width="0.25"/>
    </g>
    <g id="Group_4294" data-name="Group 4294" transform="translate(2482.961 1388.419)">
      <path id="Path_15455" data-name="Path 15455" d="M2469.65,1374.79c2.705-1.919,38.837,1.626,66.275,19.832s32.354,28.176,34.474,48.236l-44.955,34.486s-22.8,3.607-40.383-26.372-10.932-50.719-14.482-70.156C2469.936,1377.292,2467.622,1376.23,2469.65,1374.79Z" transform="translate(-2468.834 -1374.326)" fill="#cad226" stroke="#231815" stroke-miterlimit="10" stroke-width="0.25"/>
      <path id="Path_15456" data-name="Path 15456" d="M2469.438,1374.669s42.017,68.146,79.541,84.336" transform="translate(-2468.622 -1374.205)" fill="none" stroke="#000" stroke-miterlimit="10" stroke-width="0.25"/>
      <path id="Path_15457" data-name="Path 15457" d="M2482.888,1375.553s6.025,20.133,1.906,27.7" transform="translate(-2463.882 -1373.893)" fill="none" stroke="#000" stroke-miterlimit="10" stroke-width="0.25"/>
      <path id="Path_15458" data-name="Path 15458" d="M2471.04,1389s11.36,10.639,17.929,9.506" transform="translate(-2468.057 -1369.153)" fill="none" stroke="#000" stroke-miterlimit="10" stroke-width="0.25"/>
      <path id="Path_15459" data-name="Path 15459" d="M2471.357,1398.748s11.125,10.822,27.558,9.008" transform="translate(-2467.946 -1365.719)" fill="none" stroke="#000" stroke-miterlimit="10" stroke-width="0.25"/>
      <path id="Path_15460" data-name="Path 15460" d="M2491.734,1377.59s8.21,28.217,0,37.622" transform="translate(-2460.765 -1373.175)" fill="none" stroke="#000" stroke-miterlimit="10" stroke-width="0.25"/>
      <path id="Path_15461" data-name="Path 15461" d="M2473.076,1411.854s16.615,9.341,35.448,2.977" transform="translate(-2467.34 -1361.101)" fill="none" stroke="#000" stroke-miterlimit="10" stroke-width="0.25"/>
      <path id="Path_15462" data-name="Path 15462" d="M2505.021,1381.57s5.871,31.991-5.734,43.933" transform="translate(-2458.103 -1371.773)" fill="none" stroke="#000" stroke-miterlimit="10" stroke-width="0.25"/>
      <path id="Path_15463" data-name="Path 15463" d="M2477.362,1424.652s21.905,7.422,42.489-1.1" transform="translate(-2465.829 -1356.979)" fill="none" stroke="#000" stroke-miterlimit="10" stroke-width="0.25"/>
      <path id="Path_15464" data-name="Path 15464" d="M2521.849,1389.333s2.669,27.386-13.07,46.276" transform="translate(-2454.758 -1369.037)" fill="none" stroke="#000" stroke-miterlimit="10" stroke-width="0.25"/>
      <path id="Path_15465" data-name="Path 15465" d="M2484.3,1438.244s19.268,8.1,44.539-7.717" transform="translate(-2463.385 -1354.52)" fill="none" stroke="#000" stroke-miterlimit="10" stroke-width="0.25"/>
      <path id="Path_15466" data-name="Path 15466" d="M2529.211,1394.715s2.926,37.351-11.981,48.432" transform="translate(-2451.78 -1367.14)" fill="none" stroke="#000" stroke-miterlimit="10" stroke-width="0.25"/>
      <path id="Path_15467" data-name="Path 15467" d="M2538.045,1402.206s4.226,28.867-13.124,44.917" transform="translate(-2449.07 -1364.501)" fill="none" stroke="#000" stroke-miterlimit="10" stroke-width="0.25"/>
    </g>
    <g id="Group_4295" data-name="Group 4295" transform="translate(2455.417 1624.09)">
      <path id="Path_15468" data-name="Path 15468" d="M2448.511,1559.088c.468-1.778,4.734.876,12.848-3.068s24.793-11.382,40.122-4.846,48.208,9.129,57.745,29.865c0,0-22.92,16-42.868,18.6s-35.952-5.41-43.615-12.622-12.961-15.665-17.243-20.85S2448.061,1560.8,2448.511,1559.088Z" transform="translate(-2448.468 -1548.587)" fill="#a5b63d" stroke="#231815" stroke-miterlimit="10" stroke-width="0.25"/>
      <path id="Path_15469" data-name="Path 15469" d="M2448.5,1556.352s23.583,11.362,48.01,13.217c27.048,2.054,46.291-1.3,62.7,8.734" transform="translate(-2448.457 -1545.85)" fill="none" stroke="#000" stroke-miterlimit="10" stroke-width="0.25"/>
      <path id="Path_15470" data-name="Path 15470" d="M2464.066,1551.425s15.128,7.849,18.339,18.852" transform="translate(-2442.971 -1547.587)" fill="none" stroke="#000" stroke-miterlimit="10" stroke-width="0.25"/>
      <path id="Path_15471" data-name="Path 15471" d="M2459.465,1570.543s18.048,1.788,24.562-5.178" transform="translate(-2444.593 -1542.674)" fill="none" stroke="#000" stroke-miterlimit="10" stroke-width="0.25"/>
      <path id="Path_15472" data-name="Path 15472" d="M2468.545,1583.075s23.955-2.318,36.234-16.407" transform="translate(-2441.392 -1542.215)" fill="none" stroke="#000" stroke-miterlimit="10" stroke-width="0.25"/>
      <path id="Path_15473" data-name="Path 15473" d="M2483.323,1549.134s17.94,14.812,16.249,23.713" transform="translate(-2436.185 -1548.393)" fill="none" stroke="#000" stroke-miterlimit="10" stroke-width="0.25"/>
      <path id="Path_15474" data-name="Path 15474" d="M2479.948,1590.879s27.343-2.243,37.26-23.88" transform="translate(-2437.374 -1542.098)" fill="none" stroke="#000" stroke-miterlimit="10" stroke-width="0.25"/>
      <path id="Path_15475" data-name="Path 15475" d="M2503.806,1591.5s14.012-8.646,16.66-23.75" transform="translate(-2428.967 -1541.833)" fill="none" stroke="#000" stroke-miterlimit="10" stroke-width="0.25"/>
    </g>
    <g id="Group_4296" data-name="Group 4296" transform="translate(2707.119 1554.084)">
      <path id="Path_15476" data-name="Path 15476" d="M2739.056,1517.348c1.175-2.478-14.144-13.355-26.822-15.045s-13.581-5.748-27.16-3.719-11.383-2.874-24.569-1.521-19.225,5.036-25.583,10.022l-.338,29.2s12.9-7.1,21.526-7.269,17.412,4.4,25.188,3.719,13.693-1.519,18.088,1.438,12.848,4.986,15.722,2.112,5.41-10.481,10.988-11.833S2736.972,1521.744,2739.056,1517.348Z" transform="translate(-2634.583 -1496.823)" fill="#f2b370" stroke="#000" stroke-linejoin="round" stroke-width="0.25"/>
      <path id="Path_15477" data-name="Path 15477" d="M2691.125,1509.635a4.179,4.179,0,0,1,2.423,0" transform="translate(-2614.657 -1492.378)" fill="none" stroke="#000" stroke-miterlimit="10" stroke-width="0.25"/>
      <path id="Path_15478" data-name="Path 15478" d="M2692.021,1518.167a3.885,3.885,0,0,0,2.338,0" transform="translate(-2614.341 -1489.301)" fill="none" stroke="#000" stroke-miterlimit="10" stroke-width="0.25"/>
      <path id="Path_15479" data-name="Path 15479" d="M2676.25,1505.5a5.528,5.528,0,0,1,2.931.788" transform="translate(-2619.899 -1493.765)" fill="none" stroke="#000" stroke-miterlimit="10" stroke-width="0.25"/>
      <path id="Path_15480" data-name="Path 15480" d="M2679.583,1513a3.946,3.946,0,0,0,2.7,0" transform="translate(-2618.725 -1491.121)" fill="none" stroke="#000" stroke-miterlimit="10" stroke-width="0.25"/>
      <path id="Path_15481" data-name="Path 15481" d="M2662.833,1516.667a7.375,7.375,0,0,1,3.269.9" transform="translate(-2624.627 -1489.829)" fill="none" stroke="#000" stroke-miterlimit="10" stroke-width="0.25"/>
      <path id="Path_15482" data-name="Path 15482" d="M2651.833,1504.715s3.269-.676,5.072.563" transform="translate(-2628.504 -1494.106)" fill="none" stroke="#000" stroke-miterlimit="10" stroke-width="0.25"/>
      <path id="Path_15483" data-name="Path 15483" d="M2648.333,1512.191a12.511,12.511,0,0,0,3.269-1.024" transform="translate(-2629.738 -1491.768)" fill="none" stroke="#000" stroke-miterlimit="10" stroke-width="0.25"/>
    </g>
    <g id="Group_4297" data-name="Group 4297" transform="translate(2428.75 1627.128)">
      <ellipse id="Ellipse_2368" data-name="Ellipse 2368" cx="5.184" cy="3.043" rx="5.184" ry="3.043" transform="translate(369.994)" fill="#ecb36f" stroke="#000" stroke-linejoin="round" stroke-width="0.25"/>
      <ellipse id="Ellipse_2369" data-name="Ellipse 2369" cx="3.437" cy="2.192" rx="3.437" ry="2.192" transform="translate(352.976 6.48)" fill="#ecb36f" stroke="#000" stroke-linejoin="round" stroke-width="0.25"/>
      <path id="Path_15484" data-name="Path 15484" d="M2729.758,1567.444a19.568,19.568,0,0,1-12.622,1.961c-6.762-1.435-7.438-2.4-13.974,0s-13.412-1.961-13.412-1.961" transform="translate(-2336.773 -1544.98)" fill="none" stroke="#000" stroke-miterlimit="10" stroke-width="0.25"/>
      <path id="Path_15485" data-name="Path 15485" d="M2678.27,1576.667a17.458,17.458,0,0,0,12.933,1.352c7.438-2.029,9.017-.607,13.3,1.838s11.044-3.121,18.031,0" transform="translate(-2340.819 -1541.73)" fill="none" stroke="#000" stroke-miterlimit="10" stroke-width="0.25"/>
      <path id="Path_15486" data-name="Path 15486" d="M2739.05,1600.838a14.723,14.723,0,0,1-11.27,0c-6.312-2.48-11.947,2.89-11.947,2.89" transform="translate(-2327.582 -1533.442)" fill="none" stroke="#000" stroke-miterlimit="10" stroke-width="0.25"/>
      <ellipse id="Ellipse_2370" data-name="Ellipse 2370" cx="5.522" cy="3.043" rx="5.522" ry="3.043" transform="translate(370.67 106.84)" fill="#c19165" stroke="#000" stroke-linejoin="round" stroke-width="0.25"/>
      <ellipse id="Ellipse_2371" data-name="Ellipse 2371" cx="4.283" cy="2.479" rx="4.283" ry="2.479" transform="translate(387.35 116.757)" fill="#ecb36f" stroke="#000" stroke-linejoin="round" stroke-width="0.25"/>
      <path id="Path_15487" data-name="Path 15487" d="M2681.363,1640.984s-4.283,2.254-12.848,0-8.565,2.9-17.131,1-13.073-2.193-19.384.43" transform="translate(-2357.124 -1519.269)" fill="none" stroke="#000" stroke-miterlimit="10" stroke-width="0.25"/>
      <path id="Path_15488" data-name="Path 15488" d="M2584.25,1597.152s6.65,1.509,11.158-.63,7.355-.656,11.5,1.3c4.959,2.348,10.566,1.84,13.51-1.367" transform="translate(-2373.951 -1535.103)" fill="none" stroke="#000" stroke-miterlimit="10" stroke-width="0.25"/>
      <ellipse id="Ellipse_2372" data-name="Ellipse 2372" cx="4.198" cy="2.367" rx="4.198" ry="2.367" transform="translate(231.598 112.925)" fill="#ecb36f" stroke="#000" stroke-linejoin="round" stroke-width="0.25"/>
      <ellipse id="Ellipse_2373" data-name="Ellipse 2373" cx="7.382" cy="2.605" rx="7.382" ry="2.605" transform="translate(218.187 122.141)" fill="#c19165" stroke="#000" stroke-linejoin="round" stroke-width="0.25"/>
      <ellipse id="Ellipse_2374" data-name="Ellipse 2374" cx="5.297" cy="3.156" rx="5.297" ry="3.156" transform="translate(174.572 92.189)" fill="#c19165" stroke="#000" stroke-linejoin="round" stroke-width="0.25"/>
      <path id="Path_15489" data-name="Path 15489" d="M2562.625,1603.784a14.709,14.709,0,0,0,11.664.487c6.086-2.513,9.3,3.5,18.427,1s17.581,3.577,21.808.623" transform="translate(-2381.573 -1532.223)" fill="none" stroke="#000" stroke-miterlimit="10" stroke-width="0.25"/>
      <ellipse id="Ellipse_2375" data-name="Ellipse 2375" cx="3.55" cy="2.031" rx="3.55" ry="2.031" transform="translate(10.819 15.778)" fill="#ecb36f" stroke="#000" stroke-linejoin="round" stroke-width="0.25"/>
      <ellipse id="Ellipse_2376" data-name="Ellipse 2376" cx="5.494" cy="2.592" rx="5.494" ry="2.592" transform="translate(21.751 23.441)" fill="#c19165" stroke="#000" stroke-linejoin="round" stroke-width="0.25"/>
      <ellipse id="Ellipse_2377" data-name="Ellipse 2377" cx="4.057" cy="2.367" rx="4.057" ry="2.367" transform="translate(34.599 118.56)" fill="#ecb36f" stroke="#000" stroke-linejoin="round" stroke-width="0.25"/>
      <ellipse id="Ellipse_2378" data-name="Ellipse 2378" cx="6.424" cy="3.494" rx="6.424" ry="3.494" transform="translate(21.751 128.478)" fill="#c19165" stroke="#000" stroke-linejoin="round" stroke-width="0.25"/>
      <path id="Path_15490" data-name="Path 15490" d="M2485.167,1635.363a6.491,6.491,0,0,1,5.972,0c2.931,1.69,7.123-.752,7.123-.752" transform="translate(-2408.868 -1521.31)" fill="none" stroke="#000" stroke-miterlimit="10" stroke-width="0.25"/>
      <path id="Path_15491" data-name="Path 15491" d="M2500.083,1635.959s8.269-5.783,15.968-1.95,18.518-4.1,28.662.319" transform="translate(-2403.613 -1521.985)" fill="none" stroke="#000" stroke-miterlimit="10" stroke-width="0.25"/>
      <path id="Path_15492" data-name="Path 15492" d="M2469.417,1621.167s4.716,3.267,9.966,1.577,6.826-1.622,10.883.486,10.819-3.121,16.567,0" transform="translate(-2414.418 -1526.048)" fill="none" stroke="#000" stroke-miterlimit="10" stroke-width="0.25"/>
      <path id="Path_15493" data-name="Path 15493" d="M2440,1580.77a18.478,18.478,0,0,0,14.764.788c8.115-3.043,13.636,3.043,20.849,1.691s14.389-2.532,19.48.2" transform="translate(-2424.785 -1540.31)" fill="none" stroke="#000" stroke-miterlimit="10" stroke-width="0.25"/>
      <path id="Path_15494" data-name="Path 15494" d="M2428.75,1576.524a14.378,14.378,0,0,1,10.819,0c5.86,2.367,11.157-3.155,17.243,0" transform="translate(-2428.75 -1542.151)" fill="none" stroke="#000" stroke-miterlimit="10" stroke-width="0.25"/>
    </g>
    <g id="Group_4298" data-name="Group 4298" transform="translate(2478.987 1452.049)">
      <path id="Path_15495" data-name="Path 15495" d="M2495.876,1452.324s-3.972-.591-5.41-.76-3.043,3.381-1.86,4.733,2.536,2.7,2.959,4.479C2491.566,1460.777,2497.145,1457.988,2495.876,1452.324Z" transform="translate(-2458.039 -1410.739)" fill="#7a5d49" stroke="#0a0503" stroke-miterlimit="10" stroke-width="0.25"/>
      <path id="Path_15496" data-name="Path 15496" d="M2474.342,1468.417s-14.391,30.316-5.6,68.409,39.445,73.03,73.029,84.075,69.761,11.044,107.234-7.438,50.056-57.562,51.316-88.287Z" transform="translate(-2465.897 -1404.798)" fill="#f2b370" stroke="#000" stroke-linejoin="round" stroke-width="0.25"/>
      <path id="Path_15497" data-name="Path 15497" d="M2499.894,1467.976c3.643-5.093-4.508-8.79-1.127-21.187s20.472-22.749,44.629-25.115,61.083,9.787,82.271,21.058,46.432,31.781,56.8,51.165,19.948,39.558,14.876,51.053-9.917,11.608-13.862,11.27-7.776-1.352-8.226,1.578,5.072,5.3,3.605,15.553-8.677,21.188-21.75,27.95-49.475,8-76.749,2.817-65.817-26.6-85.2-52.068-27.274-58.153-22.089-68.972,10.255-12,15.243-12.341S2497.274,1471.64,2499.894,1467.976Z" transform="translate(-2463.916 -1421.376)" fill="#fff6eb" stroke="#000" stroke-miterlimit="10" stroke-width="0.25"/>
      <path id="Path_15498" data-name="Path 15498" d="M2499.917,1460.583s6.874,6.988,11.5,8" transform="translate(-2453.908 -1407.559)" fill="none" stroke="#000" stroke-miterlimit="10" stroke-width="0.25"/>
      <path id="Path_15499" data-name="Path 15499" d="M2504.167,1461.583s3.155,4.847,7.776,6.65" transform="translate(-2452.41 -1407.206)" fill="none" stroke="#000" stroke-miterlimit="10" stroke-width="0.25"/>
      <path id="Path_15500" data-name="Path 15500" d="M2506.667,1461.25s11.72,3.269,17.919,9.693" transform="translate(-2451.529 -1407.324)" fill="none" stroke="#000" stroke-miterlimit="10" stroke-width="0.25"/>
      <path id="Path_15501" data-name="Path 15501" d="M2532,1477.667a193.359,193.359,0,0,1,27.386,16.843c13.524,10.092,30.993,12.008,41.022,12.234" transform="translate(-2442.602 -1401.538)" fill="none" stroke="#000" stroke-miterlimit="10" stroke-width="0.25"/>
      <path id="Path_15502" data-name="Path 15502" d="M2541.667,1477.167s26.146-.676,51.165,19.834" transform="translate(-2439.195 -1401.715)" fill="none" stroke="#000" stroke-miterlimit="10" stroke-width="0.25"/>
      <path id="Path_15503" data-name="Path 15503" d="M2557.833,1482.583s21.075,8.9,27.273,15.666" transform="translate(-2433.498 -1399.806)" fill="none" stroke="#000" stroke-miterlimit="10" stroke-width="0.25"/>
      <path id="Path_15504" data-name="Path 15504" d="M2550.333,1485.167c.338.224,13.8,8.549,20.738,9.015" transform="translate(-2436.141 -1398.895)" fill="none" stroke="#000" stroke-miterlimit="10" stroke-width="0.25"/>
      <path id="Path_15505" data-name="Path 15505" d="M2572.087,1480.962c.215-1.156,13.976-1.465,20.286,1.691s4.4,7.479,0,7.326C2584.939,1489.719,2571.525,1484.005,2572.087,1480.962Z" transform="translate(-2428.481 -1400.664)" fill="#7a5d49" stroke="#0a0503" stroke-miterlimit="10" stroke-width="0.25"/>
      <path id="Path_15506" data-name="Path 15506" d="M2596.333,1502.667s9.8,3.043,13.411,7.324" transform="translate(-2419.931 -1392.729)" fill="none" stroke="#000" stroke-miterlimit="10" stroke-width="0.25"/>
      <path id="Path_15507" data-name="Path 15507" d="M2593.25,1503.417s11.157,6.762,15.665,8.339" transform="translate(-2421.017 -1392.464)" fill="none" stroke="#000" stroke-miterlimit="10" stroke-width="0.25"/>
      <path id="Path_15508" data-name="Path 15508" d="M2614,1488.917a19.733,19.733,0,0,1,2.593,8.339" transform="translate(-2413.705 -1397.574)" fill="none" stroke="#000" stroke-miterlimit="10" stroke-width="0.25"/>
      <path id="Path_15509" data-name="Path 15509" d="M2615.917,1490.121a10.839,10.839,0,0,1,1.69,6.711" transform="translate(-2413.03 -1397.15)" fill="none" stroke="#000" stroke-miterlimit="10" stroke-width="0.25"/>
      <path id="Path_15510" data-name="Path 15510" d="M2542.381,1491.51c1.7-.69,11.362,7.664,14.291,13.75s3.719,10.706-.788,12.622-7.889-4.733-9.805-8.565S2540.713,1492.187,2542.381,1491.51Z" transform="translate(-2439.1 -1396.674)" fill="#7a5d49" stroke="#0a0503" stroke-miterlimit="10" stroke-width="0.25"/>
      <ellipse id="Ellipse_2379" data-name="Ellipse 2379" cx="3.043" cy="4.483" rx="3.043" ry="4.483" transform="translate(41.783 94.921) rotate(-27.958)" fill="#dffffa" stroke="#231815" stroke-miterlimit="10" stroke-width="0.25"/>
      <ellipse id="Ellipse_2380" data-name="Ellipse 2380" cx="6.368" cy="3.381" rx="6.368" ry="3.381" transform="translate(146.65 157.723)" fill="#dffffa" stroke="#231815" stroke-miterlimit="10" stroke-width="0.25"/>
      <path id="Path_15511" data-name="Path 15511" d="M2527.875,1529.75s2.7,4.9,7.1,4.9" transform="translate(-2444.055 -1383.184)" fill="none" stroke="#000" stroke-miterlimit="10" stroke-width="0.25"/>
      <path id="Path_15512" data-name="Path 15512" d="M2530.5,1529.75a4.164,4.164,0,0,0,3.55,2.114" transform="translate(-2443.13 -1383.184)" fill="none" stroke="#000" stroke-miterlimit="10" stroke-width="0.25"/>
      <path id="Path_15513" data-name="Path 15513" d="M2531.917,1439.148a3.764,3.764,0,0,1,2.7,0" transform="translate(-2442.631 -1415.201)" fill="none" stroke="#000" stroke-miterlimit="10" stroke-width="0.25"/>
      <path id="Path_15514" data-name="Path 15514" d="M2530.792,1440.818a6.393,6.393,0,0,1,5.184-.563" transform="translate(-2443.028 -1414.842)" fill="none" stroke="#000" stroke-miterlimit="10" stroke-width="0.25"/>
      <ellipse id="Ellipse_2381" data-name="Ellipse 2381" cx="1.55" cy="2.282" rx="1.55" ry="2.282" transform="matrix(0.199, -0.98, 0.98, 0.199, 122.664, 28.422)" fill="#dffffa" stroke="#231815" stroke-miterlimit="10" stroke-width="0.25"/>
      <ellipse id="Ellipse_2382" data-name="Ellipse 2382" cx="3.578" cy="5.579" rx="3.578" ry="5.579" transform="matrix(0.244, -0.97, 0.97, 0.244, 135.432, 36.605)" fill="#dffffa" stroke="#231815" stroke-miterlimit="10" stroke-width="0.25"/>
      <path id="Path_15515" data-name="Path 15515" d="M2481.25,1520.417a4.636,4.636,0,0,0,2.254,0" transform="translate(-2460.486 -1386.473)" fill="none" stroke="#000" stroke-miterlimit="10" stroke-width="0.25"/>
      <path id="Path_15516" data-name="Path 15516" d="M2479.583,1529.985s3.156-.338,3.381-.9" transform="translate(-2461.074 -1383.419)" fill="none" stroke="#000" stroke-miterlimit="10" stroke-width="0.25"/>
      <path id="Path_15517" data-name="Path 15517" d="M2493.75,1531.314a4.76,4.76,0,0,0,2.141,0" transform="translate(-2456.081 -1382.633)" fill="none" stroke="#000" stroke-miterlimit="10" stroke-width="0.25"/>
      <path id="Path_15518" data-name="Path 15518" d="M2494.542,1550.5a6.176,6.176,0,0,0,3.775,0" transform="translate(-2455.802 -1375.872)" fill="none" stroke="#000" stroke-miterlimit="10" stroke-width="0.25"/>
      <path id="Path_15519" data-name="Path 15519" d="M2510.917,1550.8a4.461,4.461,0,0,0,2.817-.3" transform="translate(-2450.031 -1375.872)" fill="none" stroke="#000" stroke-miterlimit="10" stroke-width="0.25"/>
      <path id="Path_15520" data-name="Path 15520" d="M2522.417,1556.167a5.416,5.416,0,0,0,3.155,0" transform="translate(-2445.979 -1373.875)" fill="none" stroke="#000" stroke-miterlimit="10" stroke-width="0.25"/>
      <path id="Path_15521" data-name="Path 15521" d="M2514.583,1564.343s2.818.112,4.171-.676" transform="translate(-2448.739 -1371.232)" fill="none" stroke="#000" stroke-miterlimit="10" stroke-width="0.25"/>
      <path id="Path_15522" data-name="Path 15522" d="M2528.917,1568.167s2.76.676,3.917,0" transform="translate(-2443.688 -1369.646)" fill="none" stroke="#000" stroke-miterlimit="10" stroke-width="0.25"/>
      <path id="Path_15523" data-name="Path 15523" d="M2543.167,1564.078a7.482,7.482,0,0,0,2.367-1.578" transform="translate(-2438.667 -1371.643)" fill="none" stroke="#000" stroke-miterlimit="10" stroke-width="0.25"/>
      <path id="Path_15524" data-name="Path 15524" d="M2557.833,1565.785a5.392,5.392,0,0,0,2.593-.452" transform="translate(-2433.498 -1370.645)" fill="none" stroke="#000" stroke-miterlimit="10" stroke-width="0.25"/>
      <path id="Path_15525" data-name="Path 15525" d="M2551.5,1575.314a3.793,3.793,0,0,0,2.817-.564" transform="translate(-2435.73 -1367.327)" fill="none" stroke="#000" stroke-miterlimit="10" stroke-width="0.25"/>
      <path id="Path_15526" data-name="Path 15526" d="M2563.583,1572.064a9.18,9.18,0,0,0,2.818-.564" transform="translate(-2431.472 -1368.472)" fill="none" stroke="#000" stroke-miterlimit="10" stroke-width="0.25"/>
      <path id="Path_15527" data-name="Path 15527" d="M2584.25,1569.055a4.236,4.236,0,0,0,1.691-2.555" transform="translate(-2424.189 -1370.234)" fill="none" stroke="#000" stroke-miterlimit="10" stroke-width="0.25"/>
      <path id="Path_15528" data-name="Path 15528" d="M2587.75,1575.043s2.367-.112,3.156-1.127" transform="translate(-2422.955 -1367.62)" fill="none" stroke="#000" stroke-miterlimit="10" stroke-width="0.25"/>
      <path id="Path_15529" data-name="Path 15529" d="M2600,1564.225s2.366-.79,2.7-2.142" transform="translate(-2418.639 -1371.79)" fill="none" stroke="#000" stroke-miterlimit="10" stroke-width="0.25"/>
      <path id="Path_15530" data-name="Path 15530" d="M2604.667,1566.582s2.929,0,4.17-1.915" transform="translate(-2416.994 -1370.88)" fill="none" stroke="#000" stroke-miterlimit="10" stroke-width="0.25"/>
      <path id="Path_15531" data-name="Path 15531" d="M2615.667,1556.123a5.35,5.35,0,0,0,2.591-.79" transform="translate(-2413.118 -1374.169)" fill="none" stroke="#000" stroke-miterlimit="10" stroke-width="0.25"/>
      <path id="Path_15532" data-name="Path 15532" d="M2622.75,1545.69a3.381,3.381,0,0,0,2.479-1.69" transform="translate(-2410.622 -1378.163)" fill="none" stroke="#000" stroke-miterlimit="10" stroke-width="0.25"/>
      <path id="Path_15533" data-name="Path 15533" d="M2628.167,1538.44a3.337,3.337,0,0,0,1.915-1.691" transform="translate(-2408.712 -1380.717)" fill="none" stroke="#000" stroke-miterlimit="10" stroke-width="0.25"/>
      <path id="Path_15534" data-name="Path 15534" d="M2631.75,1531.107s2.479,0,2.479-1.691" transform="translate(-2407.45 -1383.302)" fill="none" stroke="#000" stroke-miterlimit="10" stroke-width="0.25"/>
      <path id="Path_15535" data-name="Path 15535" d="M2632.667,1525.111s1.465-1.353,2.591-1.014" transform="translate(-2407.127 -1385.195)" fill="none" stroke="#000" stroke-miterlimit="10" stroke-width="0.25"/>
      <path id="Path_15536" data-name="Path 15536" d="M2625.917,1526a2.814,2.814,0,0,1,1.69,1.578" transform="translate(-2409.505 -1384.506)" fill="none" stroke="#000" stroke-miterlimit="10" stroke-width="0.25"/>
    </g>
    <g id="Group_4299" data-name="Group 4299" transform="translate(2461.489 1663.213)">
      <path id="Path_15537" data-name="Path 15537" d="M2582.395,1577.832c-.756-1.4-8.34,2.367-19.159,1.42-13.689-1.2-30.655-.406-44.629,6.244s-30.2,22.653-41.136,24.682a141.387,141.387,0,0,1-20.4,2.7c-6.424.45-4.169,3.381-1.014,3.493s10.143,1.916,24.681,9.917,45.193,5.185,67.056-7.325,24.343-27.724,29.528-33.134S2583.183,1579.3,2582.395,1577.832Z" transform="translate(-2452.958 -1577.516)" fill="#cad226" stroke="#231815" stroke-miterlimit="10" stroke-width="0.25"/>
      <path id="Path_15538" data-name="Path 15538" d="M2582.395,1577.75s-27.048,25.132-56.238,33.134-58.041,1.578-73.2,3.719" transform="translate(-2452.958 -1577.433)" fill="none" stroke="#000" stroke-miterlimit="10" stroke-width="0.25"/>
      <path id="Path_15539" data-name="Path 15539" d="M2539.918,1578.889s-7.068,8.519-5.772,13.759" transform="translate(-2424.403 -1577.031)" fill="none" stroke="#000" stroke-miterlimit="10" stroke-width="0.25"/>
      <path id="Path_15540" data-name="Path 15540" d="M2543.757,1589.74s-3.507,1.1-9.652-.677" transform="translate(-2424.362 -1573.446)" fill="none" stroke="#000" stroke-miterlimit="10" stroke-width="0.25"/>
      <path id="Path_15541" data-name="Path 15541" d="M2533.067,1578.552s-9.2,11.344-8.651,22.246" transform="translate(-2427.784 -1577.151)" fill="none" stroke="#000" stroke-miterlimit="10" stroke-width="0.25"/>
      <path id="Path_15542" data-name="Path 15542" d="M2539.041,1599.623s-11.212.448-14.632-4.622" transform="translate(-2427.778 -1571.354)" fill="none" stroke="#000" stroke-miterlimit="10" stroke-width="0.25"/>
      <path id="Path_15543" data-name="Path 15543" d="M2524.97,1578.622s-14.256,17.035-13,29.862" transform="translate(-2432.191 -1577.126)" fill="none" stroke="#000" stroke-miterlimit="10" stroke-width="0.25"/>
      <path id="Path_15544" data-name="Path 15544" d="M2530.083,1608.94s-13.67,0-18.135-8.237" transform="translate(-2432.17 -1569.344)" fill="none" stroke="#000" stroke-miterlimit="10" stroke-width="0.25"/>
      <path id="Path_15545" data-name="Path 15545" d="M2517.71,1579.783s-19.179,17.088-19.348,32.9" transform="translate(-2436.958 -1576.716)" fill="none" stroke="#000" stroke-miterlimit="10" stroke-width="0.25"/>
      <path id="Path_15546" data-name="Path 15546" d="M2519.547,1615.3s-16.207-.767-21.185-11.2" transform="translate(-2436.958 -1568.144)" fill="none" stroke="#000" stroke-miterlimit="10" stroke-width="0.25"/>
      <path id="Path_15547" data-name="Path 15547" d="M2501.451,1585.312s-13.881,13.508-13.381,26.829" transform="translate(-2440.589 -1574.768)" fill="none" stroke="#000" stroke-miterlimit="10" stroke-width="0.25"/>
      <path id="Path_15548" data-name="Path 15548" d="M2506.413,1619.543s-14.633,0-18.347-14.394" transform="translate(-2440.585 -1567.777)" fill="none" stroke="#000" stroke-miterlimit="10" stroke-width="0.25"/>
      <path id="Path_15549" data-name="Path 15549" d="M2486.682,1594.686s-7.912,6.16-9.433,14.323" transform="translate(-2444.398 -1571.465)" fill="none" stroke="#000" stroke-miterlimit="10" stroke-width="0.25"/>
      <path id="Path_15550" data-name="Path 15550" d="M2491.879,1620.971s-12.346-3.812-14.63-15.695" transform="translate(-2444.398 -1567.732)" fill="none" stroke="#000" stroke-miterlimit="10" stroke-width="0.25"/>
      <path id="Path_15551" data-name="Path 15551" d="M2467.938,1606.233c.929-2.964,6.475-4.992,6.475-4.992" transform="translate(-2447.679 -1569.155)" fill="none" stroke="#000" stroke-miterlimit="10" stroke-width="0.25"/>
      <path id="Path_15552" data-name="Path 15552" d="M2479.9,1618.579s-10.191-4.384-11.966-13.647" transform="translate(-2447.679 -1567.854)" fill="none" stroke="#000" stroke-miterlimit="10" stroke-width="0.25"/>
    </g>
  </g>
</svg>
