<svg xmlns="http://www.w3.org/2000/svg" width="401.855" height="454.854" viewBox="0 0 401.855 454.854">
  <g id="Group_3617" data-name="Group 3617" transform="translate(-116.097 -1285.909)">
    <g id="Group_3608" data-name="Group 3608" transform="translate(127.945 1599.875)">
      <ellipse id="Ellipse_2014" data-name="Ellipse 2014" cx="5.973" cy="3.031" rx="5.973" ry="3.031" transform="translate(342.335)" fill="#ecb36f" stroke="#000" stroke-linejoin="round" stroke-width="0.25"/>
      <ellipse id="Ellipse_2015" data-name="Ellipse 2015" cx="3.222" cy="2.083" rx="3.222" ry="2.083" transform="translate(356.796 10.149)" fill="#c19165" stroke="#000" stroke-linejoin="round" stroke-width="0.25"/>
      <ellipse id="Ellipse_2016" data-name="Ellipse 2016" cx="5.658" cy="2.784" rx="5.658" ry="2.784" transform="translate(0 45.042)" fill="#c19165" stroke="#000" stroke-linejoin="round" stroke-width="0.25"/>
      <ellipse id="Ellipse_2017" data-name="Ellipse 2017" cx="3.458" cy="2.639" rx="3.458" ry="2.639" transform="translate(15.246 50.61)" fill="#ecb36f" stroke="#000" stroke-linejoin="round" stroke-width="0.25"/>
      <ellipse id="Ellipse_2018" data-name="Ellipse 2018" cx="4.951" cy="3.196" rx="4.951" ry="3.196" transform="translate(84.877 103.198)" fill="#c19165" stroke="#000" stroke-linejoin="round" stroke-width="0.25"/>
      <ellipse id="Ellipse_2019" data-name="Ellipse 2019" cx="7.387" cy="4.715" rx="7.387" ry="4.715" transform="translate(206.533 114.201)" fill="#ecb36f" stroke="#000" stroke-linejoin="round" stroke-width="0.25"/>
      <ellipse id="Ellipse_2020" data-name="Ellipse 2020" cx="5.816" cy="2.751" rx="5.816" ry="2.751" transform="translate(263.117 66.576)" fill="#c19165" stroke="#000" stroke-linejoin="round" stroke-width="0.25"/>
      <ellipse id="Ellipse_2021" data-name="Ellipse 2021" cx="5.108" cy="3.065" rx="5.108" ry="3.065" transform="translate(275.691 76.164)" fill="#c19165" stroke="#000" stroke-linejoin="round" stroke-width="0.25"/>
      <ellipse id="Ellipse_2022" data-name="Ellipse 2022" cx="6.602" cy="3.222" rx="6.602" ry="3.222" transform="translate(292.824 134.32)" fill="#ecb36f" stroke="#000" stroke-linejoin="round" stroke-width="0.25"/>
      <ellipse id="Ellipse_2023" data-name="Ellipse 2023" cx="3.851" cy="2.24" rx="3.851" ry="2.24" transform="translate(342.807 69.326)" fill="#ecb36f" stroke="#000" stroke-linejoin="round" stroke-width="0.25"/>
      <path id="Path_12179" data-name="Path 12179" d="M381.878,1552.2s3.249,4.3,10.479,2.2,9.745-.21,13.517,1.572,9.011.314,10.478-1.886" transform="translate(-59.558 -1531.359)" fill="none" stroke="#252f33" stroke-miterlimit="10" stroke-width="0.25"/>
      <path id="Path_12180" data-name="Path 12180" d="M407.878,1559.034s4.4-1.886,8.226,0,8.331-.419,8.331-.419" transform="translate(-52.864 -1529.814)" fill="none" stroke="#252f33" stroke-miterlimit="10" stroke-width="0.25"/>
      <path id="Path_12181" data-name="Path 12181" d="M360.8,1576.606s5.554-2.829,13.622,0,12.574,1.466,16.557-.629,11.317-1.992,16.818,1.676" transform="translate(-64.985 -1525.591)" fill="none" stroke="#252f33" stroke-miterlimit="10" stroke-width="0.25"/>
      <path id="Path_12182" data-name="Path 12182" d="M278.045,1604.854a24.994,24.994,0,0,1,17.29,0c9.326,3.458,15.3.978,21.062-.768s13.622-3.213,20.852,1.817" transform="translate(-86.287 -1518.422)" fill="none" stroke="#252f33" stroke-miterlimit="10" stroke-width="0.25"/>
      <path id="Path_12183" data-name="Path 12183" d="M320.8,1615.762s5.448-3.772,14.042-.838a19,19,0,0,0,15.194-1.118" transform="translate(-75.282 -1515.498)" fill="none" stroke="#252f33" stroke-miterlimit="10" stroke-width="0.25"/>
      <path id="Path_12184" data-name="Path 12184" d="M350.212,1621.305a7.725,7.725,0,0,1,6.81,0c3.668,1.782,4.4,1.257,7.23,0s5.344-1.32,7.755.179" transform="translate(-67.709 -1513.811)" fill="none" stroke="#252f33" stroke-miterlimit="10" stroke-width="0.25"/>
      <path id="Path_12185" data-name="Path 12185" d="M213.962,1625.553s3.667-4.256,10.583-1.394,10.059,2.378,14.566,0,10.9-.81,13.832,1.969" transform="translate(-102.784 -1513.133)" fill="none" stroke="#252f33" stroke-miterlimit="10" stroke-width="0.25"/>
      <path id="Path_12186" data-name="Path 12186" d="M134.545,1586.85s3.562-3.144,8.906-.524,12.574-.259,12.574-.259" transform="translate(-123.228 -1522.841)" fill="none" stroke="#252f33" stroke-miterlimit="10" stroke-width="0.25"/>
    </g>
    <g id="Group_3609" data-name="Group 3609" transform="translate(116.221 1544.008)">
      <path id="Path_12187" data-name="Path 12187" d="M165.564,1491.2c-6.823-.1-6.078,8.592-.892,13,5.114,4.344,3.929,9.321,7.073,11.941s7.859,6.913,5.03,10.32-7.02-2.042-18.233-.575-16.241,5.868-23.157,7.44-9.431,2.409-11.317,6.077-2.515,6.916-5.344,11-4.507,7.335,1.991,12.679,5.03,6.183,13.307,7.965,4.087,2.515,18.128,1.466,14.25,7.65,10.688,12.68-5.973,7.439-5.763,15.612,0,10.269-5.135,16.557-4.087,16.242.106,20.014-.106,13.412,10.164,19.28,17.6-7.964,26.51-11,14.042-1.467,19.8-4.82,5.344-6.183,10.269-8.279,7.44-.733,14.565-6.077,13.309,1.991,15.823,5.448,6.706.42,12.889,3.982,8.592,3.248,15.193,2.515,12.993,1.886,17.185-1.467,2.515-7.125,4.087-12.889-1.363-10.583-7.23-14.25-8.069-10.059-8.383-16.032-5.371-8.357-12.181-12.129-10.6-9.653-6.194-12.9,8.315,1.139,15.86,1.558,8.056-5.953,4.82-10.582c-13.622-19.49-18.023-44.22-18.023-44.22S224.453,1492.034,165.564,1491.2Z" transform="translate(-116.221 -1491.195)" fill="#a5b63d" stroke="#231815" stroke-miterlimit="10" stroke-width="0.25"/>
      <path id="Path_12188" data-name="Path 12188" d="M152.795,1652.279s33.6-90.668,99-144.1" transform="translate(-106.806 -1486.822)" fill="none" stroke="#000" stroke-linejoin="round" stroke-width="0.25"/>
      <path id="Path_12189" data-name="Path 12189" d="M116.423,1545.61s32,8.406,121.07-19.763" transform="translate(-116.169 -1482.275)" fill="none" stroke="#000" stroke-linejoin="round" stroke-width="0.25"/>
      <path id="Path_12190" data-name="Path 12190" d="M152.795,1491.992s22.49,40.654,75.335,42.571" transform="translate(-106.806 -1490.99)" fill="none" stroke="#000" stroke-linejoin="round" stroke-width="0.25"/>
      <path id="Path_12191" data-name="Path 12191" d="M261.673,1558.817s-26.651-5.211-48.966-32.97" transform="translate(-91.383 -1482.275)" fill="none" stroke="#000" stroke-linejoin="round" stroke-width="0.25"/>
      <path id="Path_12192" data-name="Path 12192" d="M269.7,1628.032s-63.291-29.654-56.9-102.185" transform="translate(-91.476 -1482.275)" fill="none" stroke="#000" stroke-linejoin="round" stroke-width="0.25"/>
    </g>
    <g id="Group_3610" data-name="Group 3610" transform="translate(134.385 1305.411)">
      <path id="Path_12193" data-name="Path 12193" d="M280.148,1328.5c-14.472,3.366-17.918-4.715-52.5,7.545s-88.02,49.563-96.4,125.847,75.385,120.82,158.436,104.367c88.859-17.6,123.228-28.082,141.671-91.792,17.529-60.554-15.753-133.154-71.255-143.818S305.821,1322.531,280.148,1328.5Z" transform="translate(-130.666 -1295.81)" fill="#518937" stroke="#000" stroke-linejoin="round" stroke-width="0.25"/>
      <path id="Path_12194" data-name="Path 12194" d="M247.336,1342.7s-27.793-12.4-60.159,11.195-45.117,49.794-53.2,83.062c0,0,20.573-41.578,40.64-61.354C196.306,1354.222,213.6,1340.6,247.336,1342.7Z" transform="translate(-129.814 -1291.665)" fill="#ddd658" stroke="#000" stroke-linejoin="round" stroke-width="0.25"/>
      <path id="Path_12195" data-name="Path 12195" d="M240.654,1349.946s-51.869,22.634-65.7,74.188,8.173,85.819,18.233,94.621c0,0-21.9-58.261-5.134-98.079S212.991,1371.008,240.654,1349.946Z" transform="translate(-120.408 -1288.96)" fill="#ddd658" stroke="#000" stroke-linejoin="round" stroke-width="0.25"/>
      <path id="Path_12196" data-name="Path 12196" d="M158.911,1403.594c-4.39-2.759-11.737,12.993-11.946,24.73s1.676,12.993,1.047,20.328,3.127,10.9,4.917,6.916,2.612-8.592,0-19.07-.908-17.133,3.257-23.184S159.828,1404.17,158.911,1403.594Z" transform="translate(-126.474 -1275.232)" fill="#ddd658" stroke="#000" stroke-linejoin="round" stroke-width="0.25"/>
      <path id="Path_12197" data-name="Path 12197" d="M218.232,1369.554c-3.181-1.06-2.935,5.03-6.287,10.06s-9.641,14.879-6.287,18.443,3.772-8.8,10.268-15.509S220.747,1370.392,218.232,1369.554Z" transform="translate(-111.607 -1283.944)" fill="#ddd658" stroke="#000" stroke-linejoin="round" stroke-width="0.25"/>
      <path id="Path_12198" data-name="Path 12198" d="M208.654,1432.875c-3.287-.913-3.772,7.965-3.144,14.252s0,20.328,5.03,20.328.629-8.173.837-17.29S212.426,1433.924,208.654,1432.875Z" transform="translate(-111.46 -1267.629)" fill="#ddd658" stroke="#000" stroke-linejoin="round" stroke-width="0.25"/>
      <path id="Path_12199" data-name="Path 12199" d="M223.825,1471.333c-3.112-1.112-.472,13.36,3.458,13.046S226.026,1472.12,223.825,1471.333Z" transform="translate(-107.036 -1257.727)" fill="#ddd658" stroke="#000" stroke-linejoin="round" stroke-width="0.25"/>
      <path id="Path_12200" data-name="Path 12200" d="M251.454,1356.7s-20.433,24.6-17.6,85.543,17.6,78.866,17.6,78.866-11.18-59.414-8.577-98.708S251.454,1356.7,251.454,1356.7Z" transform="translate(-104.173 -1287.222)" fill="#ddd658" stroke="#000" stroke-linejoin="round" stroke-width="0.25"/>
      <path id="Path_12201" data-name="Path 12201" d="M264.93,1352.7s29.38,6.916,44.469,43.067l-13.2,3.458S291.82,1374.072,264.93,1352.7Z" transform="translate(-96.103 -1288.252)" fill="#ddd658" stroke="#000" stroke-linejoin="round" stroke-width="0.25"/>
      <path id="Path_12202" data-name="Path 12202" d="M278.545,1344.77s40.238-6.007,74.817,31.1l-5.658,13.221S328.842,1352.943,278.545,1344.77Z" transform="translate(-92.598 -1290.385)" fill="#ddd658" stroke="#000" stroke-linejoin="round" stroke-width="0.25"/>
      <path id="Path_12203" data-name="Path 12203" d="M282.613,1333.944a47.671,47.671,0,0,1,21.306-7.317s13.023,2.356,16.293,3.029C320.211,1329.656,296.529,1328.286,282.613,1333.944Z" transform="translate(-91.55 -1294.963)" fill="#ddd658" stroke="#000" stroke-linejoin="round" stroke-width="0.25"/>
      <path id="Path_12204" data-name="Path 12204" d="M302.864,1359.4c2.755-.768,4.821.943,7.126,4.821s1.572,6.81,0,6.6S298.358,1360.656,302.864,1359.4Z" transform="translate(-86.634 -1286.573)" fill="#ddd658" stroke="#000" stroke-linejoin="round" stroke-width="0.25"/>
      <path id="Path_12205" data-name="Path 12205" d="M274.29,1398.891c2.847.712,7.755,11.317,7.126,25.359s-.992,20.119-3.535,19.7-1.076-7.545-3.591-10.688,2.1-6.287,0-18.443S270.1,1397.843,274.29,1398.891Z" transform="translate(-94.316 -1276.396)" fill="#ddd658" stroke="#000" stroke-linejoin="round" stroke-width="0.25"/>
      <path id="Path_12206" data-name="Path 12206" d="M255.352,1452.2c1.845.445,1.572,5.344,2.724,9.535s-.733,7.335-2.724,5.448S252.313,1451.467,255.352,1452.2Z" transform="translate(-99.059 -1262.644)" fill="#ddd658" stroke="#000" stroke-linejoin="round" stroke-width="0.25"/>
      <path id="Path_12207" data-name="Path 12207" d="M276.773,1350.648c3.455-3.072,6.3-24.94-4.943-45.557L231.087,1318.7s3.877,9.471,3.405,16.23-.157,11.474-1.572,15.718,6.13,2.358,13.36,4.558,13.2,5.344,21.219,1.258S273.944,1353.163,276.773,1350.648Z" transform="translate(-104.815 -1300.507)" fill="#ffae2c" stroke="#000" stroke-linejoin="round" stroke-width="0.25"/>
      <path id="Path_12208" data-name="Path 12208" d="M259.212,1314.779s7.125,16.242,3.772,31.854" transform="translate(-97.574 -1298.013)" fill="none" stroke="#252f33" stroke-miterlimit="10" stroke-width="0.25"/>
      <path id="Path_12209" data-name="Path 12209" d="M264.128,1319.7s2.621,5.763,1.886,14.775" transform="translate(-96.309 -1296.747)" fill="none" stroke="#252f33" stroke-miterlimit="10" stroke-width="0.25"/>
      <path id="Path_12210" data-name="Path 12210" d="M253.128,1320.779s3.982,7.963,2.62,21.062" transform="translate(-99.141 -1296.469)" fill="none" stroke="#252f33" stroke-miterlimit="10" stroke-width="0.25"/>
      <path id="Path_12211" data-name="Path 12211" d="M243.628,1320.779a56.082,56.082,0,0,1,2.935,26.72" transform="translate(-101.586 -1296.469)" fill="none" stroke="#252f33" stroke-miterlimit="10" stroke-width="0.25"/>
      <path id="Path_12212" data-name="Path 12212" d="M239.7,1324.362a35.564,35.564,0,0,1,1.379,15.089" transform="translate(-102.598 -1295.547)" fill="none" stroke="#252f33" stroke-miterlimit="10" stroke-width="0.25"/>
      <path id="Path_12213" data-name="Path 12213" d="M231.175,1317.9c3.112-7.186,6.916-5.448,15.718-11.107s20.748-7.544,24.311-2.1-3.953,8.922-15.089,11.527c-8.069,1.886-9.483,5.187-15.3,5.5S229.781,1321.116,231.175,1317.9Z" transform="translate(-104.851 -1301.446)" fill="#a5b63d" stroke="#231815" stroke-miterlimit="10" stroke-width="0.25"/>
    </g>
    <path id="Path_12214" data-name="Path 12214" d="M302.462,1286.654s11.107-3.144,14.04,4.82-1.466,18.39-7.02,18.521,4.715-12.023,11.212-8.67-4.715,21.376-9.745,19.07,9.079-13.832,11.717-9.85.229,10.9-4.906,12.993,6.5-12.783,9.851-7.859-.734,14.566-5.344,16.242,1.991-10.688,8.068-7.963-5.553,13.2-11.211,22.109-1.363,20.852,13.832,19.595,16.975,3.353,15.927,11.422,7.022,10.374,7.022,10.374" transform="translate(47.944)" fill="none" stroke="#252f33" stroke-miterlimit="10" stroke-width="0.25"/>
    <g id="Group_3611" data-name="Group 3611" transform="translate(314.406 1343.437)">
      <path id="Path_12215" data-name="Path 12215" d="M397.328,1331.819c-7.25-1.156-7.23,5.538-12.05,8.89s-12.994,7.545-17.4,18.861-14.46,7.985-19.28,18.348,1.572,18.641-7.335,21.681-8.488.209-13.1-.943-5.554,2.095-12.993-.734-8.383-7.545-18.338-5.03-13.307,3.564-14.565,8.069,1.362,7.963,5.344,11.213,6.392,11.317,3.982,17.708.733,14.67,5.03,19.7,5.134,4.505,5.238,11,3.039,9.849-1.047,13.517-6.706.733-10.793,2.934-5.135,7.126-11,10.688-6.078,9.641-3.982,14.356,11.421,1.781,17.708,6.916,8.54,13.832,21.586,14.3,22.162-6.916,36.623-5.658,42.281,9.8,68.268-.053,33.322-12.993,38.352-17.6,17.394-1.833,18.966-7.335.629-12.417-4.558-16.5-6.444-8.959-11.946-11.631-12.417-.471-13.832-3.929,2.2-5.03,3.144-11.474,3.3-10.217,8.488-15.089,2.043-8.253,4.637-12.182,5.344-8.88,4.873-14.618,9.431-7.465,6.208-14.538-12.26-7.387-16.661-7.467-7.545-2.986-12.1-2.2-10.688,7.938-15.718,5.895-2.986-5.187-8.251-8.488.078-12.339-3.852-20.433-5.972-7.232-9.272-12.025C403.685,1342.131,405.213,1333.077,397.328,1331.819Z" transform="translate(-273.832 -1331.687)" fill="#a5b63d" stroke="#231815" stroke-miterlimit="10" stroke-width="0.25"/>
      <path id="Path_12216" data-name="Path 12216" d="M379.381,1331.792s-39.391,95.042-35.57,187.35" transform="translate(-255.885 -1331.659)" fill="none" stroke="#000" stroke-linejoin="round" stroke-width="0.25"/>
      <path id="Path_12217" data-name="Path 12217" d="M360.724,1466.537c-16.538-47.346-80.179-79.758-80.179-79.758" transform="translate(-272.104 -1317.504)" fill="none" stroke="#000" stroke-linejoin="round" stroke-width="0.25"/>
      <path id="Path_12218" data-name="Path 12218" d="M274.131,1469.849s51.875-33.342,88.244-18.9" transform="translate(-273.755 -1301.919)" fill="none" stroke="#000" stroke-linejoin="round" stroke-width="0.25"/>
      <path id="Path_12219" data-name="Path 12219" d="M455.417,1380.2s-76.4,26.432-111.108,88.035" transform="translate(-255.689 -1319.199)" fill="none" stroke="#000" stroke-linejoin="round" stroke-width="0.25"/>
      <path id="Path_12220" data-name="Path 12220" d="M458.4,1463.491s-30-31.977-114.094-11.931" transform="translate(-255.689 -1302.528)" fill="none" stroke="#000" stroke-linejoin="round" stroke-width="0.25"/>
    </g>
    <path id="Path_12221" data-name="Path 12221" d="M168.545,1551.519s1.1-7.073,9.274-7.073,9.761,7.931,9.9,15.561-10.059,8.016-6.811,3.405,12.889-4.9,14.566,3,.314,22.674,10.268,26.026,16.557-8.8,14.985-12.05-5.973,2.515-2.3,8.7,10.217,2.043,9.9-2.672-3.354-4.454-2.778-.157,2.62,7.91,5.973,7.178,5.344-5.973,4.3-9.116-4.348-1.991-3.354,2.725,5.868,7.073,11.92,2.515,15.348-9.9,28.657-4.716,27.22,1.729,32.249-11.159" transform="translate(13.47 66.521)" fill="none" stroke="#252f33" stroke-miterlimit="10" stroke-width="0.25"/>
    <g id="Group_3615" data-name="Group 3615" transform="translate(261.921 1432.098)">
      <path id="Path_12222" data-name="Path 12222" d="M256.985,1502.841c-.482-3.807,14.7,4.5,26.514,3.073s27.109,7.377,36.54,3.606,34.112-29.439,40.029-32.64,12.154-23.105,16.555-28.135,2.1-14.25,4.4-18.023,2.008-8.249,3.564-10.478,12.95,11.735,18.944,29.55,21.083,77.332-31.729,105.467S261.3,1537.028,256.985,1502.841Z" transform="translate(-225.687 -1397.61)" fill="#f98435" stroke="#000" stroke-linejoin="round" stroke-width="0.25"/>
      <g id="Group_3612" data-name="Group 3612" transform="translate(41.455 35.147)">
        <path id="Path_12223" data-name="Path 12223" d="M325.086,1497.713c5.056-1.084,11.631,8.331,15.561,21.691s2.672,24.991-1.729,25.935-11-8.016-15.089-21.376S320.685,1498.657,325.086,1497.713Z" transform="translate(-250.604 -1412.776)" fill="#ffc064" stroke="#000" stroke-linejoin="round" stroke-width="0.25"/>
        <path id="Path_12224" data-name="Path 12224" d="M331.272,1489.257c4.886-1.69,12.558,6.854,18.083,19.639s5.69,24.481,1.436,25.952-11.9-6.619-17.576-19.383S327.019,1490.729,331.272,1489.257Z" transform="translate(-248.74 -1414.985)" fill="#ffc064" stroke="#000" stroke-linejoin="round" stroke-width="0.25"/>
        <path id="Path_12225" data-name="Path 12225" d="M336.55,1487.264c3.706-2.418,11.851,3.082,19.094,12.547s9.812,19.144,6.586,21.25-11.251-3.024-18.621-12.441S333.324,1489.37,336.55,1487.264Z" transform="translate(-246.993 -1415.59)" fill="#ffc064" stroke="#000" stroke-linejoin="round" stroke-width="0.25"/>
        <path id="Path_12226" data-name="Path 12226" d="M315.433,1483.515c4.894.009,9.1,10.032,10.059,23.176s-2.525,23.653-6.785,23.646-8.576-9.616-9.685-22.791S311.174,1483.507,315.433,1483.515Z" transform="translate(-253.8 -1416.409)" fill="#ffc064" stroke="#000" stroke-linejoin="round" stroke-width="0.25"/>
        <path id="Path_12227" data-name="Path 12227" d="M321.785,1502.094c4.871.459,8.133,10.825,7.884,24s-4.688,23.32-8.929,22.922-7.655-10.364-7.548-23.586S317.543,1501.7,321.785,1502.094Z" transform="translate(-252.671 -1411.629)" fill="#ffc064" stroke="#000" stroke-linejoin="round" stroke-width="0.25"/>
        <path id="Path_12228" data-name="Path 12228" d="M308.179,1498.055c4.893-.111,9.335,9.808,10.617,22.925s-1.95,23.708-6.209,23.8-8.806-9.4-10.234-22.55S303.92,1498.151,308.179,1498.055Z" transform="translate(-255.554 -1412.666)" fill="#ffc064" stroke="#000" stroke-linejoin="round" stroke-width="0.25"/>
        <path id="Path_12229" data-name="Path 12229" d="M289.484,1487.738c4.855-.61,10.289,8.8,12.908,21.718s.487,23.782-3.741,24.314-9.722-8.454-12.489-21.384S285.258,1488.269,289.484,1487.738Z" transform="translate(-259.966 -1415.329)" fill="#ffc064" stroke="#000" stroke-linejoin="round" stroke-width="0.25"/>
        <path id="Path_12230" data-name="Path 12230" d="M304.848,1486.741c4.388.884,6.361,10.63,4.869,22.6s-6.506,20.768-10.326,20-5.969-10.164-4.6-22.184S301.028,1485.971,304.848,1486.741Z" transform="translate(-257.515 -1415.59)" fill="#ffc064" stroke="#000" stroke-linejoin="round" stroke-width="0.25"/>
        <path id="Path_12231" data-name="Path 12231" d="M283.867,1478.734c3.146,2.041,1.68,10.238-3.168,19.1s-11.463,14.17-14.2,12.394-1.519-9.754,3.248-18.694S281.13,1476.957,283.867,1478.734Z" transform="translate(-265.061 -1417.724)" fill="#ffc064" stroke="#000" stroke-linejoin="round" stroke-width="0.25"/>
        <path id="Path_12232" data-name="Path 12232" d="M285.03,1484.828c3.913,1.194,4.845,10.232,2.428,20.984s-7.756,18.314-11.163,17.276-4.529-9.774-2.222-20.585S281.624,1483.788,285.03,1484.828Z" transform="translate(-263.053 -1416.094)" fill="#ffc064" stroke="#000" stroke-linejoin="round" stroke-width="0.25"/>
        <path id="Path_12233" data-name="Path 12233" d="M299.96,1476.014c3.376.721,4.812,8.25,3.559,17.462s-5.2,15.955-8.134,15.327-4.514-7.887-3.356-17.141S297.021,1475.387,299.96,1476.014Z" transform="translate(-258.217 -1418.35)" fill="#ffc064" stroke="#000" stroke-linejoin="round" stroke-width="0.25"/>
        <path id="Path_12234" data-name="Path 12234" d="M309.32,1478.042c3.447.184,6.043,7.4,6.247,16.69s-2.634,16.57-5.636,16.412-5.692-7.084-6-16.406S306.319,1477.882,309.32,1478.042Z" transform="translate(-255.06 -1417.819)" fill="#ffc064" stroke="#000" stroke-linejoin="round" stroke-width="0.25"/>
        <path id="Path_12235" data-name="Path 12235" d="M317.105,1473.488c3.844-1.31,9.841,5.428,14.136,15.488s4.386,19.25,1.04,20.392-9.321-5.241-13.74-15.287S313.759,1474.63,317.105,1473.488Z" transform="translate(-252.238 -1419.032)" fill="#ffc064" stroke="#000" stroke-linejoin="round" stroke-width="0.25"/>
        <path id="Path_12236" data-name="Path 12236" d="M343.8,1483.474c3.269-2.409,11.019,2.205,18.15,10.5s9.988,17.03,7.142,19.127-10.468-2.184-17.711-10.429S340.952,1485.571,343.8,1483.474Z" transform="translate(-245.058 -1416.584)" fill="#ffc064" stroke="#000" stroke-linejoin="round" stroke-width="0.25"/>
        <path id="Path_12237" data-name="Path 12237" d="M330.411,1473.649c3-2.736,11.189,1.046,19.144,8.555s11.708,15.9,9.095,18.279-10.638-1.083-18.7-8.529S327.8,1476.032,330.411,1473.649Z" transform="translate(-248.44 -1419.178)" fill="#ffc064" stroke="#000" stroke-linejoin="round" stroke-width="0.25"/>
        <path id="Path_12238" data-name="Path 12238" d="M322.11,1466.5c4.305-2.082,12.281,4.935,18.744,16.081s7.884,21.877,4.136,23.69-11.648-4.792-18.252-15.9S318.362,1468.313,322.11,1466.5Z" transform="translate(-250.873 -1420.883)" fill="#ffc064" stroke="#000" stroke-linejoin="round" stroke-width="0.25"/>
        <path id="Path_12239" data-name="Path 12239" d="M352.442,1481.788c2.824-2.984,11.366.225,19.95,7.21s12.992,15.17,10.534,17.768-10.814-.3-19.5-7.216S349.983,1484.385,352.442,1481.788Z" transform="translate(-242.733 -1417.14)" fill="#ffc064" stroke="#000" stroke-linejoin="round" stroke-width="0.25"/>
        <path id="Path_12240" data-name="Path 12240" d="M333.148,1464.6c2.824-2.984,11.367.225,19.95,7.21s12.993,15.17,10.534,17.768-10.814-.3-19.5-7.217S330.689,1467.193,333.148,1464.6Z" transform="translate(-247.7 -1421.566)" fill="#ffc064" stroke="#000" stroke-linejoin="round" stroke-width="0.25"/>
        <path id="Path_12241" data-name="Path 12241" d="M355.366,1472.011c3.1-2.7,11.292,1.325,19.159,9.107s11.463,16.357,8.764,18.7-10.733-1.348-18.71-9.07S352.668,1474.359,355.366,1472.011Z" transform="translate(-242.032 -1419.586)" fill="#ffc064" stroke="#000" stroke-linejoin="round" stroke-width="0.25"/>
        <path id="Path_12242" data-name="Path 12242" d="M350.913,1455.526c1.559-3.8,10.684-3.888,21.209-.468s17.588,9.466,16.231,12.776-10.2,3.616-20.792.3S349.556,1458.836,350.913,1455.526Z" transform="translate(-243.001 -1424.373)" fill="#ffc064" stroke="#000" stroke-linejoin="round" stroke-width="0.25"/>
        <path id="Path_12243" data-name="Path 12243" d="M346.192,1471.442c.791-3.77,9.187-5.4,19.469-4.04s17.823,5.731,17.135,9.012-8.782,5.069-19.113,3.815S345.5,1474.723,346.192,1471.442Z" transform="translate(-244.186 -1420.679)" fill="#ffc064" stroke="#000" stroke-linejoin="round" stroke-width="0.25"/>
        <path id="Path_12244" data-name="Path 12244" d="M349.245,1455.086c-.069-3.581,7.2-6.81,16.808-7.717s17.351,1.485,17.41,4.6-6.906,6.424-16.533,7.439S349.3,1458.2,349.245,1455.086Z" transform="translate(-243.39 -1425.764)" fill="#ffc064" stroke="#000" stroke-linejoin="round" stroke-width="0.25"/>
        <path id="Path_12245" data-name="Path 12245" d="M327.929,1460.05c-.069-3.581,7.2-6.81,16.808-7.717s17.351,1.485,17.412,4.6-6.906,6.424-16.533,7.439S327.988,1463.168,327.929,1460.05Z" transform="translate(-248.877 -1424.486)" fill="#ffc064" stroke="#000" stroke-linejoin="round" stroke-width="0.25"/>
        <path id="Path_12246" data-name="Path 12246" d="M357.81,1448.074c-.337-3.352,6.233-6.933,15.17-8.515s16.378.069,16.672,2.988-5.985,6.549-14.932,8.232S358.1,1450.992,357.81,1448.074Z" transform="translate(-241.188 -1427.883)" fill="#ffc064" stroke="#000" stroke-linejoin="round" stroke-width="0.25"/>
        <path id="Path_12247" data-name="Path 12247" d="M351.276,1440.775c-.392-3.9,7.258-8.071,17.662-9.914s19.069.082,19.411,3.479-6.967,7.624-17.385,9.585S351.618,1444.173,351.276,1440.775Z" transform="translate(-242.87 -1430.147)" fill="#ffc064" stroke="#000" stroke-linejoin="round" stroke-width="0.25"/>
        <path id="Path_12248" data-name="Path 12248" d="M338.737,1450.52c-.362-3.61,6.713-7.467,16.337-9.17s17.638.075,17.955,3.219-6.444,7.052-16.08,8.865S339.054,1453.662,338.737,1450.52Z" transform="translate(-246.098 -1427.434)" fill="#ffc064" stroke="#000" stroke-linejoin="round" stroke-width="0.25"/>
        <path id="Path_12249" data-name="Path 12249" d="M337.178,1462.547c.79-3.77,9.186-5.4,19.469-4.042s17.822,5.733,17.134,9.013-8.781,5.069-19.112,3.815S336.49,1465.827,337.178,1462.547Z" transform="translate(-246.507 -1422.969)" fill="#ffc064" stroke="#000" stroke-linejoin="round" stroke-width="0.25"/>
        <path id="Path_12250" data-name="Path 12250" d="M360.781,1466.942c.79-3.77,9.186-5.4,19.469-4.04s17.822,5.731,17.135,9.012-8.782,5.069-19.113,3.815S360.093,1470.223,360.781,1466.942Z" transform="translate(-240.431 -1421.838)" fill="#ffc064" stroke="#000" stroke-linejoin="round" stroke-width="0.25"/>
      </g>
      <g id="Group_3614" data-name="Group 3614">
        <path id="Path_12251" data-name="Path 12251" d="M232.2,1498.7s-8.025,113.8,115.518,94.936C347.716,1593.632,267.869,1583.93,232.2,1498.7Z" transform="translate(-232.093 -1377.354)" fill="#518937" stroke="#000" stroke-linejoin="round" stroke-width="0.25"/>
        <g id="Group_3613" data-name="Group 3613" transform="translate(0.106)">
          <path id="Path_12252" data-name="Path 12252" d="M232.177,1523.538s14.923-5.109,17.91-7.7,11.317-8.8,13.282-8.41,10.923,11.082,15.324,18.7,16.347,8.881,21.533,14.54,7.387,11.946,12.26,14.618,7.752-.009,13.1,2.409c4.4,1.992,4.715,6.183,10.059,6.287s10.688-3.562,16.765-2.3,9.466,3.174,13.936-.943c3.982-3.668,5.973-6.812,13.832-9.849s6.183-14.775,14.356-17.709,9.955-11.736,9.012-17.5,6.977-12.731,6.37-20.433-2.912-13.1-.712-19.176-1-12.255-4.454-17.13.472-9.9-2.253-16.088-12.889-14.146-11.526-18.023,9.849-7.126,14.879-11.317,11.946-5.03,18.233-11.317c0,0,40.238,46.105,26.825,116.1s-58.26,95.146-103.214,100.176S241.775,1570.063,232.177,1523.538Z" transform="translate(-232.177 -1402.196)" fill="#ffae2c" stroke="#000" stroke-linejoin="round" stroke-width="0.25"/>
          <path id="Path_12253" data-name="Path 12253" d="M271.224,1527.571s-2.2,3.144-3.929,4.087" transform="translate(-223.137 -1369.921)" fill="none" stroke="#252f33" stroke-miterlimit="10" stroke-width="0.25"/>
          <path id="Path_12254" data-name="Path 12254" d="M297.317,1538.957s0,10.193-3.772,16.485" transform="translate(-216.379 -1366.99)" fill="none" stroke="#252f33" stroke-miterlimit="10" stroke-width="0.25"/>
          <path id="Path_12255" data-name="Path 12255" d="M303.863,1548.071s.157,5.816-.943,8.645" transform="translate(-213.966 -1364.644)" fill="none" stroke="#252f33" stroke-miterlimit="10" stroke-width="0.25"/>
          <path id="Path_12256" data-name="Path 12256" d="M337.3,1546.446s6.444,11.788,5.5,18.862" transform="translate(-205.117 -1365.062)" fill="none" stroke="#252f33" stroke-miterlimit="10" stroke-width="0.25"/>
          <path id="Path_12257" data-name="Path 12257" d="M353.42,1544.446s2.829,3.3,3.3,6.444" transform="translate(-200.965 -1365.576)" fill="none" stroke="#252f33" stroke-miterlimit="10" stroke-width="0.25"/>
          <path id="Path_12258" data-name="Path 12258" d="M372.42,1519.236s6.759,5.451,8.488,10.8" transform="translate(-196.074 -1372.067)" fill="none" stroke="#252f33" stroke-miterlimit="10" stroke-width="0.25"/>
          <path id="Path_12259" data-name="Path 12259" d="M377.17,1521.446s3.458,3.3,4.558,6.13" transform="translate(-194.851 -1371.497)" fill="none" stroke="#252f33" stroke-miterlimit="10" stroke-width="0.25"/>
          <path id="Path_12260" data-name="Path 12260" d="M382.3,1488.327s10.845.307,15.561,4.394" transform="translate(-193.532 -1380.023)" fill="none" stroke="#252f33" stroke-miterlimit="10" stroke-width="0.25"/>
          <path id="Path_12261" data-name="Path 12261" d="M388.483,1486.7a16.236,16.236,0,0,1,6.365,2.051" transform="translate(-191.939 -1380.443)" fill="none" stroke="#252f33" stroke-miterlimit="10" stroke-width="0.25"/>
          <path id="Path_12262" data-name="Path 12262" d="M385.67,1460.681s5.344-1.729,9.274-.943" transform="translate(-192.663 -1387.436)" fill="none" stroke="#252f33" stroke-miterlimit="10" stroke-width="0.25"/>
          <path id="Path_12263" data-name="Path 12263" d="M385.67,1448.421s4.323,0,6.72-1.1" transform="translate(-192.663 -1390.579)" fill="none" stroke="#252f33" stroke-miterlimit="10" stroke-width="0.25"/>
        </g>
      </g>
    </g>
    <g id="Group_3616" data-name="Group 3616" transform="translate(137.396 1394.195)">
      <path id="Path_12264" data-name="Path 12264" d="M350.092,1372.311c-2.351-1.607-7.937,4.715-5.894,7.781S354.807,1375.533,350.092,1372.311Z" transform="translate(-78.822 -1372.053)" fill="#dffffa" stroke="#231815" stroke-miterlimit="10" stroke-width="0.25"/>
      <path id="Path_12265" data-name="Path 12265" d="M339.216,1386.509c1.648,1.472-1.257,6.811-4.611,4.715S336.283,1383.89,339.216,1386.509Z" transform="translate(-81.463 -1368.517)" fill="#dffffa" stroke="#231815" stroke-miterlimit="10" stroke-width="0.25"/>
      <ellipse id="Ellipse_2024" data-name="Ellipse 2024" cx="4.401" cy="2.815" rx="4.401" ry="2.815" transform="matrix(0.934, -0.356, 0.356, 0.934, 0, 199.975)" fill="#dffffa" stroke="#231815" stroke-miterlimit="10" stroke-width="0.25"/>
      <ellipse id="Ellipse_2025" data-name="Ellipse 2025" cx="4.784" cy="2.413" rx="4.784" ry="2.413" transform="translate(17.936 201.798) rotate(-9.626)" fill="#dffffa" stroke="#231815" stroke-miterlimit="10" stroke-width="0.25"/>
      <ellipse id="Ellipse_2026" data-name="Ellipse 2026" cx="3.465" cy="2.28" rx="3.465" ry="2.28" transform="translate(58.758 288.037) rotate(-45)" fill="#dffffa" stroke="#231815" stroke-miterlimit="10" stroke-width="0.25"/>
    </g>
  </g>
</svg>
