<svg xmlns="http://www.w3.org/2000/svg" width="379.82" height="423.451" viewBox="0 0 379.82 423.451">
  <g id="Group_4767" data-name="Group 4767" transform="translate(-880.473 -789.944)">
    <g id="Group_4752" data-name="Group 4752" transform="translate(892.697 1044.21)">
      <path id="Path_17343" data-name="Path 17343" d="M1149.662,1040.974s5.767,2.768,14.378-2.307,10.149,2.752,20.452,1.53" transform="translate(-829.541 -986.262)" fill="none" stroke="#000" stroke-miterlimit="10" stroke-width="0.25"/>
      <ellipse id="Ellipse_2780" data-name="Ellipse 2780" cx="4.853" cy="2.912" rx="4.853" ry="2.912" transform="translate(103.815 163.236)" fill="#ecb36f" stroke="#000" stroke-linejoin="round" stroke-width="0.25"/>
      <path id="Path_17344" data-name="Path 17344" d="M1012.477,1115.008s5.345,2.919,12.314-.342c8.675-4.06,13.032,2.1,18.16.268" transform="translate(-861.742 -968.349)" fill="none" stroke="#000" stroke-miterlimit="10" stroke-width="0.25"/>
      <path id="Path_17345" data-name="Path 17345" d="M1024.492,1108.26a8.215,8.215,0,0,0,5.8.216c3.318-1.036,6.853,1.119,6.853,1.119" transform="translate(-858.922 -969.536)" fill="none" stroke="#000" stroke-miterlimit="10" stroke-width="0.25"/>
      <ellipse id="Ellipse_2781" data-name="Ellipse 2781" cx="4.605" cy="2.679" rx="4.605" ry="2.679" transform="translate(24.6 47.645)" fill="#c19165" stroke="#000" stroke-linejoin="round" stroke-width="0.25"/>
      <ellipse id="Ellipse_2782" data-name="Ellipse 2782" cx="3.199" cy="5.949" rx="3.199" ry="5.949" transform="matrix(0.138, -0.99, 0.99, 0.138, 55.634, 118.364)" fill="#c19165" stroke="#000" stroke-linejoin="round" stroke-width="0.25"/>
      <path id="Path_17346" data-name="Path 17346" d="M973.765,1098.515s4.922,5.9,16.239,2.854,18.5-1.6,26.966.875,13.287-1.367,19.488.6" transform="translate(-870.828 -971.808)" fill="none" stroke="#000" stroke-miterlimit="10" stroke-width="0.25"/>
      <path id="Path_17347" data-name="Path 17347" d="M1176.515,1030.564s2.6-2.335,7.128-.751,7.129.1,7.129.1" transform="translate(-823.238 -988.063)" fill="none" stroke="#000" stroke-miterlimit="10" stroke-width="0.25"/>
      <ellipse id="Ellipse_2783" data-name="Ellipse 2783" cx="6.25" cy="3.279" rx="6.25" ry="3.279" transform="translate(243.941 145.909)" fill="#c19165" stroke="#000" stroke-linejoin="round" stroke-width="0.25"/>
      <ellipse id="Ellipse_2784" data-name="Ellipse 2784" cx="3.687" cy="2.112" rx="3.687" ry="2.112" transform="translate(42.557 121.32)" fill="#ecb36f" stroke="#000" stroke-linejoin="round" stroke-width="0.25"/>
      <path id="Path_17348" data-name="Path 17348" d="M1088.251,1091.589s4.961-5.653,15.327-1.244c9.716,4.132,18.97-5.426,31.569,1.268" transform="translate(-843.956 -974.121)" fill="none" stroke="#000" stroke-miterlimit="10" stroke-width="0.25"/>
      <path id="Path_17349" data-name="Path 17349" d="M1151.677,1016.845s3.5,2.936,10.06,1,8.936-.928,12.372.661" transform="translate(-829.068 -990.993)" fill="none" stroke="#000" stroke-miterlimit="10" stroke-width="0.25"/>
      <ellipse id="Ellipse_2785" data-name="Ellipse 2785" cx="5.005" cy="2.815" rx="5.005" ry="2.815" transform="translate(326.633 86.217)" fill="#ecb36f" stroke="#000" stroke-linejoin="round" stroke-width="0.25"/>
      <path id="Path_17350" data-name="Path 17350" d="M898.18,1053.16c3.9-2.4,17.766-.451,24.2-4.5s15.743,1.8,21.148,0,10.962-2.214,16.067,1.521" transform="translate(-888.57 -983.854)" fill="none" stroke="#000" stroke-linejoin="round" stroke-width="0.25"/>
      <path id="Path_17351" data-name="Path 17351" d="M890.4,1046.549c2.4,1.8,8.259-.451,12.313-2.1s6.706,2.1,12.288,0" transform="translate(-890.397 -984.601)" fill="none" stroke="#000" stroke-linejoin="round" stroke-width="0.25"/>
      <path id="Path_17352" data-name="Path 17352" d="M937.646,1109.731a6.514,6.514,0,0,1,6.924-1.4,12.311,12.311,0,0,0,10.017-.489c2.5-1.1,6.335,2.229,10.165.489" transform="translate(-879.306 -969.672)" fill="none" stroke="#000" stroke-linejoin="round" stroke-width="0.25"/>
      <path id="Path_17353" data-name="Path 17353" d="M1144.337,1078.216c6.362-2.579,10.146,3.784,22.356,1.72s15.477,1.375,15.477,1.375" transform="translate(-830.792 -976.719)" fill="none" stroke="#000" stroke-linejoin="round" stroke-width="0.25"/>
      <path id="Path_17354" data-name="Path 17354" d="M1147.622,1013.252s2.159-2.16,6.368-.682a11.5,11.5,0,0,0,8.186-.517" transform="translate(-830.02 -992.103)" fill="none" stroke="#000" stroke-linejoin="round" stroke-width="0.25"/>
      <ellipse id="Ellipse_2786" data-name="Ellipse 2786" cx="4.321" cy="2.786" rx="4.321" ry="2.786" transform="translate(334.43)" fill="#ecb36f" stroke="#000" stroke-linejoin="round" stroke-width="0.25"/>
      <ellipse id="Ellipse_2787" data-name="Ellipse 2787" cx="3.779" cy="2.566" rx="3.779" ry="2.566" transform="translate(347.393 7.96)" fill="#ecb36f" stroke="#000" stroke-linejoin="round" stroke-width="0.25"/>
      <ellipse id="Ellipse_2788" data-name="Ellipse 2788" cx="2.769" cy="1.561" rx="2.769" ry="1.561" transform="translate(293.725 104.592)" fill="#ecb36f" stroke="#000" stroke-linejoin="round" stroke-width="0.25"/>
      <ellipse id="Ellipse_2789" data-name="Ellipse 2789" cx="2.677" cy="1.667" rx="2.677" ry="1.667" transform="translate(235.967 137.727)" fill="#ecb36f" stroke="#000" stroke-linejoin="round" stroke-width="0.25"/>
    </g>
    <g id="Group_4757" data-name="Group 4757" transform="translate(936.412 790.06)">
      <g id="Group_4753" data-name="Group 4753" transform="translate(42.165)">
        <path id="Path_17355" data-name="Path 17355" d="M986.575,790.305c3.9-1.793,4.614,6.6,8.733,13.317s14.956,13.872,27.745,30.779,18.207,27.963,16.907,50.722S1035,935.068,1006.485,930.9s-42.39-27.9-45.425-43.886,0-35.06,11.056-57.6,11.387-23.561,12.651-28.386S983.911,791.53,986.575,790.305Z" transform="translate(-959.951 -790.06)" fill="#a2c427" stroke="#231815" stroke-miterlimit="10" stroke-width="0.25"/>
        <path id="Path_17356" data-name="Path 17356" d="M981.514,790.259s30.233,93.908,23.871,140.986" transform="translate(-954.889 -790.013)" fill="none" stroke="#000" stroke-miterlimit="10" stroke-width="0.25"/>
        <path id="Path_17357" data-name="Path 17357" d="M978.057,819.821s1.378,52.468,25.388,88.558" transform="translate(-955.701 -783.074)" fill="none" stroke="#000" stroke-miterlimit="10" stroke-width="0.25"/>
        <path id="Path_17358" data-name="Path 17358" d="M969.311,842.537s-.975,40.132,22.309,58.425" transform="translate(-957.755 -777.742)" fill="none" stroke="#000" stroke-miterlimit="10" stroke-width="0.25"/>
        <path id="Path_17359" data-name="Path 17359" d="M998.619,818.674s18.344,46.743,13.387,85.342" transform="translate(-950.875 -783.344)" fill="none" stroke="#000" stroke-miterlimit="10" stroke-width="0.25"/>
        <path id="Path_17360" data-name="Path 17360" d="M1014.44,839.9s5.759,23.741,2.108,41.085" transform="translate(-947.161 -778.362)" fill="none" stroke="#000" stroke-miterlimit="10" stroke-width="0.25"/>
      </g>
      <g id="Group_4754" data-name="Group 4754" transform="translate(217.117 148.394)">
        <path id="Path_17361" data-name="Path 17361" d="M1104.47,957.342s4.355-10.906,24.888-22.52,47.5-14.312,58.073-18.667,11.521-7.408,13.785-5.144-4.388,8.495-6.654,21.236-11.452,60.813-52.6,72.479S1097.6,972.237,1104.47,957.342Z" transform="translate(-1101.644 -910.244)" fill="#a2c427" stroke="#231815" stroke-miterlimit="10" stroke-width="0.25"/>
        <path id="Path_17362" data-name="Path 17362" d="M1118.541,978.166s48.322-18.2,78.71-67.3" transform="translate(-1097.678 -910.098)" fill="none" stroke="#000" stroke-miterlimit="10" stroke-width="0.25"/>
        <path id="Path_17363" data-name="Path 17363" d="M1124.834,973.972c1.035.215,35.4-12.026,53.007-32.429" transform="translate(-1096.201 -902.898)" fill="none" stroke="#000" stroke-miterlimit="10" stroke-width="0.25"/>
        <path id="Path_17364" data-name="Path 17364" d="M1158.64,922.8a204.57,204.57,0,0,0-36.628,49.179" transform="translate(-1096.864 -907.296)" fill="none" stroke="#000" stroke-miterlimit="10" stroke-width="0.25"/>
        <path id="Path_17365" data-name="Path 17365" d="M1138,929.194s-13.446,14.6-19.459,40.161" transform="translate(-1097.678 -905.796)" fill="none" stroke="#000" stroke-miterlimit="10" stroke-width="0.25"/>
        <path id="Path_17366" data-name="Path 17366" d="M1118.452,941.543a36.552,36.552,0,0,0-4.081,18.081" transform="translate(-1098.663 -902.898)" fill="none" stroke="#000" stroke-miterlimit="10" stroke-width="0.25"/>
        <path id="Path_17367" data-name="Path 17367" d="M1129.423,974.82s15.408.67,33.166-13.1" transform="translate(-1095.124 -898.162)" fill="none" stroke="#000" stroke-miterlimit="10" stroke-width="0.25"/>
        <path id="Path_17368" data-name="Path 17368" d="M1148.846,976.33s-6.422,3.866-17.6,1.934" transform="translate(-1094.696 -894.732)" fill="none" stroke="#000" stroke-miterlimit="10" stroke-width="0.25"/>
      </g>
      <g id="Group_4755" data-name="Group 4755" transform="translate(0 290.882)">
        <path id="Path_17369" data-name="Path 17369" d="M959.406,1039.058s-5.792-.891-14.85,15.592-11.583,27.917-16.484,32.818-1.484,8.762,6.534,8.762,18.711,3.563,37.422,1.782,35.787-8.464,48.41-24.5,11.285-49.3-23.166-47.816S959.406,1039.058,959.406,1039.058Z" transform="translate(-925.802 -1025.645)" fill="#a2c427" stroke="#231815" stroke-miterlimit="10" stroke-width="0.25"/>
        <path id="Path_17370" data-name="Path 17370" d="M1011.019,1031.336s-30.442,50.193-82.415,59.844" transform="translate(-925.144 -1024.309)" fill="none" stroke="#000" stroke-miterlimit="10" stroke-width="0.25"/>
        <path id="Path_17371" data-name="Path 17371" d="M992.747,1035.907s-24.767,8.239-47.668,31.926" transform="translate(-921.277 -1023.236)" fill="none" stroke="#000" stroke-miterlimit="10" stroke-width="0.25"/>
        <path id="Path_17372" data-name="Path 17372" d="M949.771,1049.794s10.394-11.433,29.1-14.85" transform="translate(-920.175 -1023.462)" fill="none" stroke="#000" stroke-miterlimit="10" stroke-width="0.25"/>
        <path id="Path_17373" data-name="Path 17373" d="M956.281,1090.141s35.917-12.771,52.549-58.8" transform="translate(-918.647 -1024.309)" fill="none" stroke="#000" stroke-miterlimit="10" stroke-width="0.25"/>
        <path id="Path_17374" data-name="Path 17374" d="M1000.169,1043.724s-.3,22.126-16.484,36.827" transform="translate(-912.215 -1021.401)" fill="none" stroke="#000" stroke-miterlimit="10" stroke-width="0.25"/>
      </g>
      <g id="Group_4756" data-name="Group 4756" transform="translate(84.663 268.154)">
        <path id="Path_17375" data-name="Path 17375" d="M995.582,1026.944s-6.2,35.2,9.428,59.871,30.476,25.671,37.363,32.792,10.04,7.589,14.827-.816,19.144-19.467,14.941-44.7-26.589-67.576-54.665-66.847S995.582,1026.944,995.582,1026.944Z" transform="translate(-994.37 -1007.237)" fill="#a2c427" stroke="#231815" stroke-miterlimit="10" stroke-width="0.25"/>
        <path id="Path_17376" data-name="Path 17376" d="M1028.388,1029.79s-10.891,37.274-6.051,64.623" transform="translate(-988.097 -1001.944)" fill="none" stroke="#000" stroke-miterlimit="10" stroke-width="0.25"/>
        <path id="Path_17377" data-name="Path 17377" d="M1023.6,1010.472s-14.492,38.858-13.04,72.259" transform="translate(-990.595 -1006.478)" fill="none" stroke="#000" stroke-miterlimit="10" stroke-width="0.25"/>
        <path id="Path_17378" data-name="Path 17378" d="M1011.96,1016.859s-8.611,17.217-7.885,33.171" transform="translate(-992.102 -1004.979)" fill="none" stroke="#000" stroke-miterlimit="10" stroke-width="0.25"/>
        <path id="Path_17379" data-name="Path 17379" d="M1030.727,1036.653s15.707,41.492,10.394,81.374" transform="translate(-985.836 -1000.333)" fill="none" stroke="#000" stroke-miterlimit="10" stroke-width="0.25"/>
        <path id="Path_17380" data-name="Path 17380" d="M1040.155,1048.835s11.836,20.535,10.626,39.9" transform="translate(-983.624 -997.474)" fill="none" stroke="#000" stroke-miterlimit="10" stroke-width="0.25"/>
      </g>
    </g>
    <path id="Path_17381" data-name="Path 17381" d="M1065.381,949.254a5.88,5.88,0,0,1,2.677,2.9" transform="translate(43.373 37.367)" fill="none" stroke="#000" stroke-miterlimit="10" stroke-width="0.25"/>
    <g id="Group_4763" data-name="Group 4763" transform="translate(1010.685 822.147)">
      <ellipse id="Ellipse_2790" data-name="Ellipse 2790" cx="79.079" cy="89.455" rx="79.079" ry="89.455" transform="translate(0 145.977) rotate(-67.366)" fill="#f98435" stroke="#000" stroke-linejoin="round" stroke-width="0.25"/>
      <g id="Group_4762" data-name="Group 4762" transform="translate(104.765 26.935)">
        <g id="Group_4758" data-name="Group 4758" transform="translate(24.981 4.728)">
          <path id="Path_17382" data-name="Path 17382" d="M1091.036,844.889s3.519-4.7,11.589-2.7c6.1,1.509,4.377,5.408,14.035,6.568s12.764,7.953,10.558,12.232-9.27,6.051-9.27,6.051L1091.036,854.3Z" transform="translate(-1091.036 -841.691)" fill="#62a542" stroke="#000" stroke-linejoin="round" stroke-width="0.25"/>
          <path id="Path_17383" data-name="Path 17383" d="M1099.782,846.609s-.746,2.984,0,3.917" transform="translate(-1089.061 -840.536)" fill="none" stroke="#000" stroke-miterlimit="10" stroke-width="0.25"/>
          <path id="Path_17384" data-name="Path 17384" d="M1104.955,848.182a10.313,10.313,0,0,0-.932,3.652" transform="translate(-1087.987 -840.167)" fill="none" stroke="#000" stroke-miterlimit="10" stroke-width="0.25"/>
          <path id="Path_17385" data-name="Path 17385" d="M1111.088,849.856s-.932,3.356-2.61,4.009" transform="translate(-1086.942 -839.774)" fill="none" stroke="#000" stroke-miterlimit="10" stroke-width="0.25"/>
          <path id="Path_17386" data-name="Path 17386" d="M1112.932,855.229a5.775,5.775,0,0,0,3.636-2.73" transform="translate(-1085.896 -839.154)" fill="none" stroke="#000" stroke-miterlimit="10" stroke-width="0.25"/>
        </g>
        <g id="Group_4759" data-name="Group 4759">
          <path id="Path_17387" data-name="Path 17387" d="M1099,855.316c0-.386,2.789-10.285-6.911-15.443s-15.236,1.279-21.288.893c0,0-.13,1.931,2.7,4.12s-1.177,3.734,5.528,6.309,8.249,7.469,8.249,7.469Z" transform="translate(-1070.804 -837.862)" fill="#62a542" stroke="#000" stroke-linejoin="round" stroke-width="0.25"/>
          <path id="Path_17388" data-name="Path 17388" d="M1080.781,841.027s3.551.31,5.414,1.864" transform="translate(-1068.462 -837.119)" fill="none" stroke="#000" stroke-miterlimit="10" stroke-width="0.25"/>
          <path id="Path_17389" data-name="Path 17389" d="M1081.121,845a6.445,6.445,0,0,1,3.619,0" transform="translate(-1068.383 -836.252)" fill="none" stroke="#000" stroke-miterlimit="10" stroke-width="0.25"/>
          <path id="Path_17390" data-name="Path 17390" d="M1082.374,847.839a4.582,4.582,0,0,1,2.561-1.23" transform="translate(-1068.089 -835.809)" fill="none" stroke="#000" stroke-miterlimit="10" stroke-width="0.25"/>
        </g>
        <g id="Group_4760" data-name="Group 4760" transform="translate(52.669 23.644)">
          <path id="Path_17391" data-name="Path 17391" d="M1113.461,860.3a13.393,13.393,0,0,1,10.535-3.17c6.433.838,7.738,3.542,12.772,8.2s4.775,8.788,4.775,8.788a15.144,15.144,0,0,0-9.716-.77c-5.313,1.4-10.814-3.729-12.586-5.872S1113.461,860.3,1113.461,860.3Z" transform="translate(-1113.461 -857.011)" fill="#62a542" stroke="#000" stroke-linejoin="round" stroke-width="0.25"/>
          <path id="Path_17392" data-name="Path 17392" d="M1123.725,859.755s2.31.242,3.223,1.424" transform="translate(-1111.052 -856.367)" fill="none" stroke="#000" stroke-miterlimit="10" stroke-width="0.25"/>
          <path id="Path_17393" data-name="Path 17393" d="M1124.834,862.431a3.926,3.926,0,0,1,2.5,1.862" transform="translate(-1110.792 -855.739)" fill="none" stroke="#000" stroke-miterlimit="10" stroke-width="0.25"/>
        </g>
        <g id="Group_4761" data-name="Group 4761" transform="translate(12.738 12.742)">
          <path id="Path_17394" data-name="Path 17394" d="M1081.906,851.591c2.04-3.563,13.493-5.433,18.575,0s8.937,8.762,18.05,9.288,14.719,7.01,14.545,12.793-16.15-.3-24,3.817c0,0-5.536-7.984-13.392-11.718S1078.3,857.884,1081.906,851.591Z" transform="translate(-1081.121 -848.182)" fill="#62a542" stroke="#000" stroke-linejoin="round" stroke-width="0.25"/>
          <path id="Path_17395" data-name="Path 17395" d="M1088.869,856.221s1.021-3.273,5.371-3.723" transform="translate(-1079.302 -847.168)" fill="none" stroke="#000" stroke-miterlimit="10" stroke-width="0.25"/>
          <path id="Path_17396" data-name="Path 17396" d="M1094.549,858.6a10.645,10.645,0,0,1,2.352-3.373" transform="translate(-1077.969 -846.528)" fill="none" stroke="#000" stroke-miterlimit="10" stroke-width="0.25"/>
          <path id="Path_17397" data-name="Path 17397" d="M1100.574,857.958a8.214,8.214,0,0,0-.851,3.684" transform="translate(-1076.76 -845.887)" fill="none" stroke="#000" stroke-miterlimit="10" stroke-width="0.25"/>
          <path id="Path_17398" data-name="Path 17398" d="M1104.628,859.755a15.957,15.957,0,0,1-1.2,7.369" transform="translate(-1075.885 -845.465)" fill="none" stroke="#000" stroke-miterlimit="10" stroke-width="0.25"/>
          <path id="Path_17399" data-name="Path 17399" d="M1109.343,860.295s.621,3.817-.488,5.991" transform="translate(-1074.61 -845.338)" fill="none" stroke="#000" stroke-miterlimit="10" stroke-width="0.25"/>
          <path id="Path_17400" data-name="Path 17400" d="M1112.774,861.193s1.82,2.264,1.642,4.305" transform="translate(-1073.691 -845.128)" fill="none" stroke="#000" stroke-miterlimit="10" stroke-width="0.25"/>
        </g>
      </g>
      <ellipse id="Ellipse_2791" data-name="Ellipse 2791" cx="4.502" cy="2.836" rx="4.502" ry="2.836" transform="matrix(0.75, -0.662, 0.662, 0.75, 83.819, 56.68)" fill="#dffffa" stroke="#231815" stroke-miterlimit="10" stroke-width="0.25"/>
      <ellipse id="Ellipse_2792" data-name="Ellipse 2792" cx="6.781" cy="4.489" rx="6.781" ry="4.489" transform="translate(78.43 74.16) rotate(-60)" fill="#dffffa" stroke="#231815" stroke-miterlimit="10" stroke-width="0.25"/>
      <path id="Path_17401" data-name="Path 17401" d="M1037.255,864.147s8.583-15.14,30.163-17.04" transform="translate(-973.914 -808.757)" fill="none" stroke="#000" stroke-miterlimit="10" stroke-width="0.25"/>
      <path id="Path_17402" data-name="Path 17402" d="M1052.926,846.311a25.2,25.2,0,0,1,8.457-1.361" transform="translate(-970.235 -809.27)" fill="none" stroke="#000" stroke-miterlimit="10" stroke-width="0.25"/>
      <path id="Path_17403" data-name="Path 17403" d="M1129.423,881.6s3.823,11,1.505,20.387" transform="translate(-952.28 -800.661)" fill="none" stroke="#000" stroke-miterlimit="10" stroke-width="0.25"/>
      <path id="Path_17404" data-name="Path 17404" d="M1135.112,878.41c.579,1.738,8.8,20.271-.811,44.249" transform="translate(-951.135 -801.409)" fill="none" stroke="#000" stroke-miterlimit="10" stroke-width="0.25"/>
      <path id="Path_17405" data-name="Path 17405" d="M1140.117,881.6a23.117,23.117,0,0,1,2.318,12.278" transform="translate(-949.77 -800.661)" fill="none" stroke="#000" stroke-miterlimit="10" stroke-width="0.25"/>
      <path id="Path_17406" data-name="Path 17406" d="M1121.579,880.38c0,.579-.7,5.213.579,7.646" transform="translate(-954.166 -800.947)" fill="none" stroke="#000" stroke-miterlimit="10" stroke-width="0.25"/>
      <path id="Path_17407" data-name="Path 17407" d="M1084.871,866.309a10.463,10.463,0,0,0-3.011,5.627" transform="translate(-963.444 -804.25)" fill="none" stroke="#000" stroke-miterlimit="10" stroke-width="0.25"/>
      <ellipse id="Ellipse_2793" data-name="Ellipse 2793" cx="4.054" cy="2.954" rx="4.054" ry="2.954" transform="translate(147.808 133.674) rotate(-57.845)" fill="#dffffa" stroke="#231815" stroke-miterlimit="10" stroke-width="0.25"/>
    </g>
    <g id="Group_4765" data-name="Group 4765" transform="translate(880.598 903.086)">
      <path id="Path_17408" data-name="Path 17408" d="M1067.053,978.4c0,53.463-23.231,103.676-90.582,96.8-56.338-5.749-90.583-43.34-90.583-96.8s27.223-96.8,90.583-96.8C1036.494,881.6,1067.053,924.94,1067.053,978.4Z" transform="translate(-879.356 -881.6)" fill="#f98435" stroke="#000" stroke-linejoin="round" stroke-width="0.25"/>
      <path id="Path_17409" data-name="Path 17409" d="M918.415,956.87c2.871-1.819,2.457-6.363-4.322-9.845-7.007-3.6-10.493-15.309,0-23.025s20.679-5.248,26.543-11.574a4.352,4.352,0,0,0,5.093,1.852c3.394-1.08,5.709-2.624,10.031,2.469s12.5,3.24,17.284,10.956-9.414,18.055-4.167,32.253-2.161,47.684-2.161,47.684,8.026,10.648.617,18.518-18.671,8.333-23.765,15.741c0,0-9.414-7.562-20.216-8.333s-14.351-15.9-8.333-21.3,7.836-5.811,6.642-7.8-4.377,1.434-6.764,3.5-6.606,5.65-12.335,1.591S898.1,984.257,880.6,975.9c0,0,5.755-2.666,8.557-11.3s4.724-12.506,10.647-13C906.526,951.044,911.7,961.126,918.415,956.87Z" transform="translate(-880.598 -874.364)" fill="#62a542" stroke="#000" stroke-linejoin="round" stroke-width="0.25"/>
      <path id="Path_17410" data-name="Path 17410" d="M923.8,908.294a19.129,19.129,0,0,1,11.773-10.285" transform="translate(-870.456 -877.748)" fill="none" stroke="#000" stroke-miterlimit="10" stroke-width="0.25"/>
      <path id="Path_17411" data-name="Path 17411" d="M927.418,909.119s4.709-8.675,26.893-14.623" transform="translate(-869.608 -878.573)" fill="none" stroke="#000" stroke-miterlimit="10" stroke-width="0.25"/>
      <path id="Path_17412" data-name="Path 17412" d="M975.4,941.864a11.732,11.732,0,0,1,7.435-2.6" transform="translate(-858.347 -868.065)" fill="none" stroke="#000" stroke-miterlimit="10" stroke-width="0.25"/>
      <path id="Path_17413" data-name="Path 17413" d="M1010.727,946.99a9.987,9.987,0,0,1,4.585,6.816" transform="translate(-850.054 -866.251)" fill="none" stroke="#000" stroke-miterlimit="10" stroke-width="0.25"/>
      <path id="Path_17414" data-name="Path 17414" d="M1015.243,946.086a5.626,5.626,0,0,1,2.231,4.524" transform="translate(-848.993 -866.463)" fill="none" stroke="#000" stroke-miterlimit="10" stroke-width="0.25"/>
      <ellipse id="Ellipse_2794" data-name="Ellipse 2794" cx="3.79" cy="4.725" rx="3.79" ry="4.725" transform="translate(127.367 20.788) rotate(-51.269)" fill="#dffffa" stroke="#231815" stroke-miterlimit="10" stroke-width="0.25"/>
      <ellipse id="Ellipse_2795" data-name="Ellipse 2795" cx="4.533" cy="9.458" rx="4.533" ry="9.458" transform="translate(142.026 28.566) rotate(-46.562)" fill="#dffffa" stroke="#231815" stroke-miterlimit="10" stroke-width="0.25"/>
      <path id="Path_17415" data-name="Path 17415" d="M962.553,1007.245s24.125,12.287,49.926,4.812" transform="translate(-861.361 -852.108)" fill="none" stroke="#000" stroke-miterlimit="10" stroke-width="0.25"/>
      <path id="Path_17416" data-name="Path 17416" d="M952.648,1015.466a20.135,20.135,0,0,0,15.839,5.829" transform="translate(-863.686 -850.179)" fill="none" stroke="#000" stroke-miterlimit="10" stroke-width="0.25"/>
      <path id="Path_17417" data-name="Path 17417" d="M971.16,996.241a19.469,19.469,0,0,0,10.426,0" transform="translate(-859.341 -854.691)" fill="none" stroke="#000" stroke-miterlimit="10" stroke-width="0.25"/>
      <path id="Path_17418" data-name="Path 17418" d="M950.807,952.561c2.455-5.256,12.341-5.8,19.514-1.687s9.072,11.919,9.389,20.884,5.7,10.443,5.7,10.443a14.543,14.543,0,0,0-10.443,7.7c-3.9,7.068-8.965,19.936-22.151,13.5s-.421-15.3-2.636-22.788-1.477-12.047.738-17.518S949.058,956.309,950.807,952.561Z" transform="translate(-865.071 -865.978)" fill="#62a542" stroke="#000" stroke-linejoin="round" stroke-width="0.25"/>
      <path id="Path_17419" data-name="Path 17419" d="M956.281,955.97s7.484-1.361,11.49,2.419" transform="translate(-862.833 -864.199)" fill="none" stroke="#000" stroke-miterlimit="10" stroke-width="0.25"/>
      <path id="Path_17420" data-name="Path 17420" d="M954.628,962.447s10.129-2.57,14.74,4.007" transform="translate(-863.221 -862.739)" fill="none" stroke="#000" stroke-miterlimit="10" stroke-width="0.25"/>
      <path id="Path_17421" data-name="Path 17421" d="M955.118,970.836s6.5-2.252,11.263.688" transform="translate(-863.106 -860.848)" fill="none" stroke="#000" stroke-miterlimit="10" stroke-width="0.25"/>
      <path id="Path_17422" data-name="Path 17422" d="M955.118,977.316s4.913,2.267,9.525-.454" transform="translate(-863.106 -859.24)" fill="none" stroke="#000" stroke-miterlimit="10" stroke-width="0.25"/>
      <path id="Path_17423" data-name="Path 17423" d="M952.853,983.046s5.215,2.645,9.562,0" transform="translate(-863.638 -857.788)" fill="none" stroke="#000" stroke-miterlimit="10" stroke-width="0.25"/>
      <path id="Path_17424" data-name="Path 17424" d="M916.857,952.51s-10.614,15.571,0,32.082" transform="translate(-873.194 -864.956)" fill="none" stroke="#000" stroke-miterlimit="10" stroke-width="0.25"/>
      <path id="Path_17425" data-name="Path 17425" d="M916.506,945.621s18.532-9.1,34.706,1.431" transform="translate(-872.169 -867.43)" fill="none" stroke="#000" stroke-miterlimit="10" stroke-width="0.25"/>
      <path id="Path_17426" data-name="Path 17426" d="M920.054,986.934c.505.337,13.428,7.422,26.618-1.34" transform="translate(-871.337 -857.19)" fill="none" stroke="#000" stroke-miterlimit="10" stroke-width="0.25"/>
      <path id="Path_17427" data-name="Path 17427" d="M933.425,954.888s12.3.02,13.815,12.308-6.907,16.838-6.907,16.838" transform="translate(-868.198 -864.397)" fill="none" stroke="#000" stroke-miterlimit="10" stroke-width="0.25"/>
      <path id="Path_17428" data-name="Path 17428" d="M923.437,960.257s-5.391,7.691-1.011,18.642,13.983,8.76,13.983,8.76" transform="translate(-871.182 -863.137)" fill="none" stroke="#000" stroke-miterlimit="10" stroke-width="0.25"/>
      <g id="Group_4764" data-name="Group 4764" transform="translate(52.872 78.014)">
        <path id="Path_17429" data-name="Path 17429" d="M924.4,946.964s-1.645,10.464,2.886,19.347,4.126,11.376,7.849,10.857a6.017,6.017,0,0,0,4.774-7.639s-4.612-1.214-6.716-8.333-1.3-10.8-1.3-10.8Z" transform="translate(-923.257 -944.271)" fill="#ddd658" stroke="#000" stroke-linejoin="round" stroke-width="0.25"/>
        <ellipse id="Ellipse_2796" data-name="Ellipse 2796" cx="2.369" cy="4.32" rx="2.369" ry="4.32" transform="matrix(0.595, -0.804, 0.804, 0.595, 0, 3.809)" fill="#62a542" stroke="#000" stroke-linejoin="round" stroke-width="0.25"/>
      </g>
      <path id="Path_17430" data-name="Path 17430" d="M927.378,970.011s-.451,3.331,2.3,4.87" transform="translate(-869.624 -860.848)" fill="none" stroke="#000" stroke-miterlimit="10" stroke-width="0.25"/>
      <path id="Path_17431" data-name="Path 17431" d="M935.961,961.176c.405.081,5.017,0,6.23,5.825,1.248,5.993-2.427,10.2-6.8,11.894" transform="translate(-867.736 -862.922)" fill="none" stroke="#000" stroke-miterlimit="10" stroke-width="0.25"/>
      <path id="Path_17432" data-name="Path 17432" d="M919.278,994.318s-3.373,2.767-1.509,8.27" transform="translate(-872.005 -855.142)" fill="none" stroke="#000" stroke-miterlimit="10" stroke-width="0.25"/>
      <path id="Path_17433" data-name="Path 17433" d="M924.9,994.318s-3.2,9.512,1.6,14.66" transform="translate(-870.443 -855.142)" fill="none" stroke="#000" stroke-miterlimit="10" stroke-width="0.25"/>
      <path id="Path_17434" data-name="Path 17434" d="M931.319,995.625a15.721,15.721,0,0,1,.8,13.58" transform="translate(-868.693 -854.836)" fill="none" stroke="#000" stroke-miterlimit="10" stroke-width="0.25"/>
      <path id="Path_17435" data-name="Path 17435" d="M937.716,994.318c0,.1,4.26,3.389,2.663,10.222" transform="translate(-867.191 -855.142)" fill="none" stroke="#000" stroke-miterlimit="10" stroke-width="0.25"/>
      <path id="Path_17436" data-name="Path 17436" d="M942.963,993.612a9.941,9.941,0,0,1,2.93,5.984" transform="translate(-865.959 -855.308)" fill="none" stroke="#000" stroke-miterlimit="10" stroke-width="0.25"/>
      <path id="Path_17437" data-name="Path 17437" d="M908.737,980.1s-.354,3.949-5.237,4.814" transform="translate(-875.222 -858.48)" fill="none" stroke="#000" stroke-miterlimit="10" stroke-width="0.25"/>
      <path id="Path_17438" data-name="Path 17438" d="M899.332,979.823a8.3,8.3,0,0,0,7.766-3.462" transform="translate(-876.201 -859.357)" fill="none" stroke="#000" stroke-miterlimit="10" stroke-width="0.25"/>
      <path id="Path_17439" data-name="Path 17439" d="M894.588,972.861s7.366,1.632,11.361-1.625" transform="translate(-877.314 -860.56)" fill="none" stroke="#000" stroke-miterlimit="10" stroke-width="0.25"/>
      <path id="Path_17440" data-name="Path 17440" d="M891.066,964.07s8.61,4.572,16.242,1.887" transform="translate(-878.141 -862.242)" fill="none" stroke="#000" stroke-miterlimit="10" stroke-width="0.25"/>
      <path id="Path_17441" data-name="Path 17441" d="M893.726,955.732s4.082,4.082,9.407,3.018" transform="translate(-877.516 -864.199)" fill="none" stroke="#000" stroke-miterlimit="10" stroke-width="0.25"/>
      <path id="Path_17442" data-name="Path 17442" d="M894.588,950.706s5.681-.621,9.231,3.373" transform="translate(-877.314 -865.387)" fill="none" stroke="#000" stroke-miterlimit="10" stroke-width="0.25"/>
      <path id="Path_17443" data-name="Path 17443" d="M910.171,926.272s-3.012,8.733,3.111,13.451" transform="translate(-873.83 -871.114)" fill="none" stroke="#000" stroke-miterlimit="10" stroke-width="0.25"/>
      <path id="Path_17444" data-name="Path 17444" d="M916.615,935.855s-2.474-8.533,2.846-12.348" transform="translate(-872.279 -871.763)" fill="none" stroke="#000" stroke-miterlimit="10" stroke-width="0.25"/>
      <path id="Path_17445" data-name="Path 17445" d="M929.492,919.361s-6.424,7.027-3.011,16.464" transform="translate(-870.063 -872.736)" fill="none" stroke="#000" stroke-miterlimit="10" stroke-width="0.25"/>
      <path id="Path_17446" data-name="Path 17446" d="M934.153,917.9a19.716,19.716,0,0,1-.729,18.271" transform="translate(-868.198 -873.08)" fill="none" stroke="#000" stroke-miterlimit="10" stroke-width="0.25"/>
      <path id="Path_17447" data-name="Path 17447" d="M942.058,922.532s2.9,9.737-2.965,14.556" transform="translate(-866.867 -871.992)" fill="none" stroke="#000" stroke-miterlimit="10" stroke-width="0.25"/>
      <path id="Path_17448" data-name="Path 17448" d="M949.6,927.491c0,.3,2.334,6.625-2.849,11.243" transform="translate(-865.071 -870.828)" fill="none" stroke="#000" stroke-miterlimit="10" stroke-width="0.25"/>
    </g>
    <g id="Group_4766" data-name="Group 4766" transform="translate(1050.064 969.834)">
      <path id="Path_17449" data-name="Path 17449" d="M1071.218,1042.8c-30.012-37.637-23.749-88.764-2.18-102.356-30.339,14.1-51.189,43.3-51.189,77.048,0,47.529,41.325,86.059,92.3,86.059a96.742,96.742,0,0,0,49.594-13.494C1133.835,1100.626,1096.112,1074.023,1071.218,1042.8Z" transform="translate(-1017.848 -934.535)" fill="#f98435" stroke="#000" stroke-linejoin="round" stroke-width="0.25"/>
      <path id="Path_17450" data-name="Path 17450" d="M1155.952,984.613C1134,950.7,1102.48,932.2,1077.329,936.2a39.077,39.077,0,0,0-14.149,5.105c-.136.083-.264.184-.4.269-21.568,13.592-27.832,64.719,2.18,102.356,24.894,31.219,62.618,57.822,88.527,47.257a30.265,30.265,0,0,0,5.031-2.626,35.055,35.055,0,0,0,6.663-5.611C1183.732,1062.948,1179.754,1021.376,1155.952,984.613Z" transform="translate(-1011.592 -935.659)" fill="#ffc064" stroke="#000" stroke-linejoin="round" stroke-width="0.25"/>
      <path id="Path_17451" data-name="Path 17451" d="M1026.037,1000.748s-.037-14.975,9.714-26.3" transform="translate(-1015.926 -926.555)" fill="none" stroke="#000" stroke-miterlimit="10" stroke-width="0.25"/>
      <path id="Path_17452" data-name="Path 17452" d="M1034.894,985.595a11.468,11.468,0,0,0-2.151,5.88" transform="translate(-1014.352 -923.938)" fill="none" stroke="#000" stroke-miterlimit="10" stroke-width="0.25"/>
      <ellipse id="Ellipse_2797" data-name="Ellipse 2797" cx="3.05" cy="11.181" rx="3.05" ry="11.181" transform="translate(76.512 47.403) rotate(-34.486)" fill="#f98435" stroke="#000" stroke-linejoin="round" stroke-width="0.25"/>
      <ellipse id="Ellipse_2798" data-name="Ellipse 2798" cx="11.181" cy="3.05" rx="11.181" ry="3.05" transform="translate(67.514 74.803)" fill="#f98435" stroke="#000" stroke-linejoin="round" stroke-width="0.25"/>
      <ellipse id="Ellipse_2799" data-name="Ellipse 2799" cx="11.181" cy="3.05" rx="11.181" ry="3.05" transform="matrix(0.574, -0.819, 0.819, 0.574, 82.083, 104.781)" fill="#f98435" stroke="#000" stroke-linejoin="round" stroke-width="0.25"/>
      <ellipse id="Ellipse_2800" data-name="Ellipse 2800" cx="2.603" cy="9.546" rx="2.603" ry="9.546" transform="translate(103.806 91.361)" fill="#f98435" stroke="#000" stroke-linejoin="round" stroke-width="0.25"/>
      <ellipse id="Ellipse_2801" data-name="Ellipse 2801" cx="10.722" cy="2.51" rx="10.722" ry="2.51" transform="translate(99.128 65.493) rotate(-84.546)" fill="#f98435" stroke="#000" stroke-linejoin="round" stroke-width="0.25"/>
      <ellipse id="Ellipse_2802" data-name="Ellipse 2802" cx="2.668" cy="12.071" rx="2.668" ry="12.071" transform="translate(110.365 91.891) rotate(-45)" fill="#f98435" stroke="#000" stroke-linejoin="round" stroke-width="0.25"/>
      <ellipse id="Ellipse_2803" data-name="Ellipse 2803" cx="9.583" cy="2.836" rx="9.583" ry="2.836" transform="translate(108.689 69.288) rotate(-39.225)" fill="#f98435" stroke="#000" stroke-linejoin="round" stroke-width="0.25"/>
      <ellipse id="Ellipse_2804" data-name="Ellipse 2804" cx="2.951" cy="11.261" rx="2.951" ry="11.261" transform="matrix(0.219, -0.976, 0.976, 0.219, 113.708, 84.206)" fill="#f98435" stroke="#000" stroke-linejoin="round" stroke-width="0.25"/>
      <path id="Path_17453" data-name="Path 17453" d="M1094.2,997.1a4.325,4.325,0,0,1,4.351-4.482c2.013.2,3.831-.91,5.844,2.6s4.481,8.442,2.663,9.936-2.224,3.052-6.112,1.883-4.019-2.728-4.8-4.74S1094.265,998.723,1094.2,997.1Z" transform="translate(-999.927 -922.294)" fill="#fff6eb" stroke="#000" stroke-miterlimit="10" stroke-width="0.25"/>
      <ellipse id="Ellipse_2805" data-name="Ellipse 2805" cx="0.427" cy="0.698" rx="0.427" ry="0.698" transform="translate(97.559 73.447) rotate(-60)" fill="#f98435" stroke="#000" stroke-linejoin="round" stroke-width="0.25"/>
      <ellipse id="Ellipse_2806" data-name="Ellipse 2806" cx="0.698" cy="0.427" rx="0.698" ry="0.427" transform="translate(97.116 76.022) rotate(-2.389)" fill="#f98435" stroke="#000" stroke-linejoin="round" stroke-width="0.25"/>
      <ellipse id="Ellipse_2807" data-name="Ellipse 2807" cx="0.698" cy="0.427" rx="0.698" ry="0.427" transform="matrix(0.816, -0.579, 0.579, 0.816, 98.258, 79.142)" fill="#f98435" stroke="#000" stroke-linejoin="round" stroke-width="0.25"/>
      <ellipse id="Ellipse_2808" data-name="Ellipse 2808" cx="0.698" cy="0.427" rx="0.698" ry="0.427" transform="translate(100.101 82.436) rotate(-67.366)" fill="#f98435" stroke="#000" stroke-linejoin="round" stroke-width="0.25"/>
      <ellipse id="Ellipse_2809" data-name="Ellipse 2809" cx="0.698" cy="0.427" rx="0.698" ry="0.427" transform="matrix(0.674, -0.738, 0.738, 0.674, 102.327, 74.482)" fill="#f98435" stroke="#000" stroke-linejoin="round" stroke-width="0.25"/>
      <ellipse id="Ellipse_2810" data-name="Ellipse 2810" cx="0.698" cy="0.427" rx="0.698" ry="0.427" transform="translate(103.212 76.799) rotate(-24.855)" fill="#f98435" stroke="#000" stroke-linejoin="round" stroke-width="0.25"/>
      <ellipse id="Ellipse_2811" data-name="Ellipse 2811" cx="0.427" cy="0.698" rx="0.427" ry="0.698" transform="translate(104.617 80.466) rotate(-81.677)" fill="#f98435" stroke="#000" stroke-linejoin="round" stroke-width="0.25"/>
      <ellipse id="Ellipse_2812" data-name="Ellipse 2812" cx="0.427" cy="0.698" rx="0.427" ry="0.698" transform="translate(103.203 82.072) rotate(-16.027)" fill="#f98435" stroke="#000" stroke-linejoin="round" stroke-width="0.25"/>
      <ellipse id="Ellipse_2813" data-name="Ellipse 2813" cx="0.698" cy="0.427" rx="0.698" ry="0.427" transform="translate(100.494 73.547) rotate(-81.677)" fill="#f98435" stroke="#000" stroke-linejoin="round" stroke-width="0.25"/>
      <path id="Path_17454" data-name="Path 17454" d="M1071.465,1062.368c.422,0,12.058,4.216,24.8-.984" transform="translate(-1005.263 -906.148)" fill="none" stroke="#000" stroke-miterlimit="10" stroke-width="0.25"/>
      <path id="Path_17455" data-name="Path 17455" d="M1073.742,1057.4a9.721,9.721,0,0,0,7.31.984" transform="translate(-1004.728 -907.083)" fill="none" stroke="#000" stroke-miterlimit="10" stroke-width="0.25"/>
      <path id="Path_17456" data-name="Path 17456" d="M1088.542,1066.487s4.218.28,6.888-1.687" transform="translate(-1001.254 -905.347)" fill="none" stroke="#000" stroke-miterlimit="10" stroke-width="0.25"/>
      <path id="Path_17457" data-name="Path 17457" d="M1104.5,1038.878s.384,5.493-.476,8.711" transform="translate(-997.619 -911.431)" fill="none" stroke="#000" stroke-miterlimit="10" stroke-width="0.25"/>
      <path id="Path_17458" data-name="Path 17458" d="M1101.616,1036.653a13.927,13.927,0,0,1,0,4.317" transform="translate(-998.186 -911.953)" fill="none" stroke="#000" stroke-miterlimit="10" stroke-width="0.25"/>
      <path id="Path_17459" data-name="Path 17459" d="M1123.927,1040.848s1.492,1.492,2.276,6.279" transform="translate(-992.949 -910.968)" fill="none" stroke="#000" stroke-miterlimit="10" stroke-width="0.25"/>
      <path id="Path_17460" data-name="Path 17460" d="M1126.045,1038.922a18.444,18.444,0,0,1,3.584,10.462" transform="translate(-992.452 -911.421)" fill="none" stroke="#000" stroke-miterlimit="10" stroke-width="0.25"/>
      <path id="Path_17461" data-name="Path 17461" d="M1139.042,1014.836a11.962,11.962,0,0,1,3.293,1.306" transform="translate(-989.401 -917.074)" fill="none" stroke="#000" stroke-miterlimit="10" stroke-width="0.25"/>
      <path id="Path_17462" data-name="Path 17462" d="M1139.777,1016.859a5.723,5.723,0,0,1,3.123,1.534" transform="translate(-989.228 -916.599)" fill="none" stroke="#000" stroke-miterlimit="10" stroke-width="0.25"/>
      <path id="Path_17463" data-name="Path 17463" d="M1074.1,1022.365a6.843,6.843,0,0,1,2.531-2.178" transform="translate(-1004.643 -915.818)" fill="none" stroke="#000" stroke-miterlimit="10" stroke-width="0.25"/>
      <path id="Path_17464" data-name="Path 17464" d="M1055.487,983.351a11.613,11.613,0,0,0,4.57,0" transform="translate(-1009.013 -924.464)" fill="none" stroke="#000" stroke-miterlimit="10" stroke-width="0.25"/>
      <path id="Path_17465" data-name="Path 17465" d="M1063.036,950.679a8.044,8.044,0,0,0,3.225,2.676" transform="translate(-1007.241 -932.133)" fill="none" stroke="#000" stroke-miterlimit="10" stroke-width="0.25"/>
      <ellipse id="Ellipse_2814" data-name="Ellipse 2814" cx="3.418" cy="5.99" rx="3.418" ry="5.99" transform="matrix(0.754, -0.657, 0.657, 0.754, 88.842, 13.445)" fill="#dffffa" stroke="#231815" stroke-miterlimit="10" stroke-width="0.25"/>
      <ellipse id="Ellipse_2815" data-name="Ellipse 2815" cx="4.016" cy="8.732" rx="4.016" ry="8.732" transform="matrix(0.754, -0.657, 0.657, 0.754, 103.364, 21.4)" fill="#dffffa" stroke="#231815" stroke-miterlimit="10" stroke-width="0.25"/>
    </g>
  </g>
</svg>
