<svg xmlns="http://www.w3.org/2000/svg" width="425.209" height="460.199" viewBox="0 0 425.209 460.199">
  <g id="Group_2793" data-name="Group 2793" transform="translate(-3213.167 -192.171)">
    <path id="Path_9273" data-name="Path 9273" d="M3297.669,469.668s26.146-9.212,52.292-56.622h3.327s-16.376,42.165-54.913,59.558Z" transform="translate(32.85 85.945)" fill="#ecb36f" stroke="#000" stroke-linejoin="round" stroke-width="0.25"/>
    <g id="Group_2793-2" data-name="Group 2793" transform="translate(3451.979 192.352)">
      <path id="Path_9274" data-name="Path 9274" d="M3385.454,278.916s-1.329-8.927,1.9-15.955c0,0,2.09,3.989,5.509,5.128,0,0-3.224-8.191,1.152-21.571a13.955,13.955,0,0,0,7.333,6.047s-.128-13.509,7.076-23.545c0,0,4.89,6.819,9.393,7.463,0,0,1.673-15.182,8.878-21.486,0,0,2.7,6.047,6.818,7.977,0,0,2.832-13.382,13.252-20.844,0,0,1.286,5.662,5.018,8.235a25.405,25.405,0,0,1,12.48-14.41s.386,6.433,3.346,9.134c0,0,6.561-10.036,11.836-12.737,0,0,2.444,8.877,0,14.41,0,0,8.236-2.187,13-8.234,0,0,2.83,7.59,0,14.924,0,0,6.433,0,14.8-5.274,0,0,3.217,6.69-1.544,19.428a29.247,29.247,0,0,0,11.451-2.316,44.744,44.744,0,0,1-7.333,24.7s6.3,1.287,14.539-2.573c0,0,.128,11.452-6.69,20.458,0,0,6.818.9,11.837-.643a37.11,37.11,0,0,1-9.907,17.883s7.076,1.287,11.836-1.673c0,0-.643,9.265-9.907,16.212,0,0,5.018,1.544,8.877,0,0,0,.257,13.509-12.866,23.545s-60.983,56.18-99.636,28.676S3385.454,278.916,3385.454,278.916Z" transform="translate(-3385.086 -192.352)" fill="#a5b63d" stroke="#231815" stroke-miterlimit="10" stroke-width="0.25"/>
      <path id="Path_9275" data-name="Path 9275" d="M3459.015,209.531s-40.53,60.21-35.959,143.759" transform="translate(-3370.44 -185.662)" fill="none" stroke="#000" stroke-linejoin="round" stroke-width="0.25"/>
      <path id="Path_9276" data-name="Path 9276" d="M3433.855,213.042s-.724,14.545,6.417,22.642c0,0,16.545-.582,28.661-10.166" transform="translate(-3366.103 -184.295)" fill="none" stroke="#000" stroke-linejoin="round" stroke-width="0.25"/>
      <path id="Path_9277" data-name="Path 9277" d="M3422.7,222.282s1.4,18.447,14.236,29.475c0,0,18.257,2.348,38.147-9.947" transform="translate(-3370.44 -180.696)" fill="none" stroke="#000" stroke-linejoin="round" stroke-width="0.25"/>
      <path id="Path_9278" data-name="Path 9278" d="M3410.423,233.6s3.859,25.867,24.262,37.706c0,0,22.208,3.16,50.417-12.391" transform="translate(-3375.22 -176.287)" fill="none" stroke="#000" stroke-linejoin="round" stroke-width="0.25"/>
      <path id="Path_9279" data-name="Path 9279" d="M3400.272,245.707s8.149,44.708,32.915,51.014c0,0,37.091,4.159,64.186-21.721" transform="translate(-3379.173 -171.574)" fill="none" stroke="#000" stroke-linejoin="round" stroke-width="0.25"/>
      <ellipse id="Ellipse_1442" data-name="Ellipse 1442" cx="3.824" cy="2.552" rx="3.824" ry="2.552" transform="translate(121.563 78.975)" fill="#dffffa" stroke="#231815" stroke-miterlimit="10" stroke-width="0.25"/>
      <ellipse id="Ellipse_1443" data-name="Ellipse 1443" cx="2.447" cy="1.759" rx="2.447" ry="1.759" transform="translate(114.374 69.797)" fill="#dffffa" stroke="#231815" stroke-miterlimit="10" stroke-width="0.25"/>
    </g>
    <g id="Group_2795" data-name="Group 2795" transform="translate(3480.901 308.186)">
      <g id="Group_2794" data-name="Group 2794">
        <path id="Path_9280" data-name="Path 9280" d="M3511.994,406.95c1.235-.249,9.019.2,15.306-6.237a18.152,18.152,0,0,0-5.538-3.407s9.73-4.165,14.52-11.381a27.406,27.406,0,0,1-8.831-4.074s11.525-2.844,16.017-9.131c0,0-6.587-2.844-9.88-6.287,0,0,11.227-3.442,16.765-11.227,0,0-7.934-1.5-10.778-5.987,0,0,10.928-4.342,15.867-13.922,0,0-11.825-.149-17.065-3.892,0,0,12.125-6.437,16.168-20.208,0,0-7.185,1.646-11.676-1.048,0,0,8.831-6.587,8.831-13.323,0,0-11.526,2.245-14.819,0,0,0,6.587-5.39,6.886-13.472,0,0-9.131.3-15.568,4.341a42.686,42.686,0,0,1-1.346-10.628,24.413,24.413,0,0,0-14.857,8.532s-1.984-5.688,0-9.88c0,0-11.938,2.1-17.028,9.431a16.244,16.244,0,0,1-2.095-9.431s-11.377,2.844-15.419,11.677c0,0-1.8-7.635,0-11.677a28.6,28.6,0,0,0-17.964,13.472c-6.287,11.228-48.709,35.071-48.709,35.071L3405.9,389l81.859,28.487Z" transform="translate(-3405.902 -275.72)" fill="#ddd658" stroke="#000" stroke-linejoin="round" stroke-width="0.25"/>
        <path id="Path_9281" data-name="Path 9281" d="M3521.739,292.866s-47,52.113-103.313,76.965" transform="translate(-3401.026 -269.043)" fill="none" stroke="#000" stroke-linejoin="round" stroke-width="0.25"/>
        <path id="Path_9282" data-name="Path 9282" d="M3481.326,289.782s-7.993,13.668-5.316,27.28a47.688,47.688,0,0,0,29.706-5.987" transform="translate(-3378.814 -270.244)" fill="none" stroke="#000" stroke-linejoin="round" stroke-width="0.25"/>
        <path id="Path_9283" data-name="Path 9283" d="M3467.175,288.7s-10.45,23.73-3.058,43.522c0,0,22.843,8.47,42.254.753" transform="translate(-3384.261 -270.666)" fill="none" stroke="#000" stroke-linejoin="round" stroke-width="0.25"/>
        <path id="Path_9284" data-name="Path 9284" d="M3450.991,296.97s-5.825,26.093,1.674,44.442c0,0,26.437,11.9,57.23,8.132" transform="translate(-3389.183 -267.445)" fill="none" stroke="#000" stroke-linejoin="round" stroke-width="0.25"/>
        <path id="Path_9285" data-name="Path 9285" d="M3505.944,363.556s-45.919,3.8-65.656-13.012c0,0-7.3-23.4-2.778-47.336" transform="translate(-3394.169 -265.015)" fill="none" stroke="#000" stroke-linejoin="round" stroke-width="0.25"/>
      </g>
      <ellipse id="Ellipse_1444" data-name="Ellipse 1444" cx="3.63" cy="2.124" rx="3.63" ry="2.124" transform="translate(114.168 69.973)" fill="#dffffa" stroke="#231815" stroke-miterlimit="10" stroke-width="0.25"/>
      <ellipse id="Ellipse_1445" data-name="Ellipse 1445" cx="2.51" cy="1.583" rx="2.51" ry="1.583" transform="translate(124.826 64.026)" fill="#dffffa" stroke="#231815" stroke-miterlimit="10" stroke-width="0.25"/>
    </g>
    <g id="Group_2796" data-name="Group 2796" transform="translate(3390.904 260.287)">
      <path id="Path_9286" data-name="Path 9286" d="M3342.209,282.217s-1.231-7.974,1.366-13.58c0,0,3.318,3.482,9.809,3.337,0,0-5.77-10.964-1.01-21.351,0,0,5.771,7.55,10.677,6.805a26.676,26.676,0,0,0,1.731-14.018,22.211,22.211,0,0,1,13.012,10.386,20.922,20.922,0,0,0,5.741-12.551s10.1,4.9,8.946,19.765c0,0,6.925-4.039,8.223-9.954a24.935,24.935,0,0,1,4.473,21.062s7.357-4.762,9.088-12.119a26.4,26.4,0,0,1,3.894,24.525,14.49,14.49,0,0,0,10.387-8.512s5.483,10.1,1.3,24.525c0,0,6.208-1.189,8.944-6.347,0,0,4.507,11.685-1.5,22.071,0,0,5.825-1.009,9.719-4.9,0,0,6.678,19.128-3.216,35.917,0,0,7.047,1.089,11.711-1.909,0,0,1.135,7.842-8.446,15.532,0,0,4.356.734,7.284-.831a19.292,19.292,0,0,1-9.552,13.437s3.733,1.387,6.845,0c0,0-3.915,13.029-21.631,23.331a8.084,8.084,0,0,0,5.3,2.552s-13.1,17.193-33.349,14.333-58.112-66.409-60.043-69.448S3342.209,282.217,3342.209,282.217Z" transform="translate(-3341.129 -241.246)" fill="#a5b63d" stroke="#231815" stroke-miterlimit="10" stroke-width="0.25"/>
      <path id="Path_9287" data-name="Path 9287" d="M3363.123,257.4s26.146,31.259,27.866,110.458" transform="translate(-3332.564 -234.956)" fill="none" stroke="#000" stroke-linejoin="round" stroke-width="0.25"/>
      <path id="Path_9288" data-name="Path 9288" d="M3355.815,271.441s13.25,24.029,29.624,27.593c0,0,10.5-10.183,8.4-32.907" transform="translate(-3335.411 -231.557)" fill="none" stroke="#000" stroke-linejoin="round" stroke-width="0.25"/>
      <path id="Path_9289" data-name="Path 9289" d="M3353.836,289.571s10.6,22.236,37.19,26.421c0,0,17.973-10.986,22.738-33.364" transform="translate(-3336.181 -225.131)" fill="none" stroke="#000" stroke-linejoin="round" stroke-width="0.25"/>
      <path id="Path_9290" data-name="Path 9290" d="M3422.307,297.851s-7.759,21.162-29.353,30.691c0,0-26-3.121-38-19.612" transform="translate(-3335.745 -219.202)" fill="none" stroke="#000" stroke-linejoin="round" stroke-width="0.25"/>
      <path id="Path_9291" data-name="Path 9291" d="M3421.213,317.171s-9.911,27.216-38.034,39.447" transform="translate(-3324.754 -211.679)" fill="none" stroke="#000" stroke-linejoin="round" stroke-width="0.25"/>
    </g>
    <g id="Group_2797" data-name="Group 2797" transform="translate(3230.437 235.095)">
      <path id="Path_9292" data-name="Path 9292" d="M3251.76,384.4s-7.673-2.058-12.349-13.659a17.359,17.359,0,0,1,10.1-2.432s-11.116-6.633-14.821-18.706c0,0,5.487-3.7,14.679-3.567,0,0-17.012-3.293-21.812-22.91a88.511,88.511,0,0,0,17.833-1.646s-15.364-9.053-18.795-27.986c0,0,8.917.275,13.582-2.331,0,0-12.073-4.116-14.542-29.5,0,0,7.738,0,13.061,2.2,0,0-8.67-7.271-6.063-23.6a49.153,49.153,0,0,1,13.032,5.213s-5.9-9.466-4.939-19.481a27.608,27.608,0,0,1,15.914,9.6s-2.057-6.86-1.1-11.8c0,0,13.169,1.646,21.95,11.935a39.1,39.1,0,0,0,1.782-11.935,29.346,29.346,0,0,1,16.875,12.073s3.156-6.86,2.058-12.758a27.973,27.973,0,0,1,17.971,15.638s3.842-6.447,3.293-11.523a28.294,28.294,0,0,1,16.05,22.5s6.585-5.762,8.506-11.386a36.624,36.624,0,0,1,14.953,27.986s5.213-4.8,6.036-9.877c0,0,12.346,10.564,9.877,30.456,0,0,5.762-4.115,8.095-10.153,0,0,12.071,11.8,6.309,31.416,0,0,7.273-5.213,7.684-9.191,0,0,8.368,12.484,4.116,26.066,0,0,6.31-2.47,8.642-6.037,0,0,3.431,12.759-.822,21.813,0,0,6.31-.823,8.917-4.389,0,0,2.469,12.209-3.019,20.989,0,0,5.213-.685,6.586-2.88,0,0,6.686,15.984-8.342,39.713l-67.76,27.593s-68.735-17.675-70.7-18.657S3251.76,384.4,3251.76,384.4Z" transform="translate(-3225.638 -223.115)" fill="#ddd658" stroke="#000" stroke-linejoin="round" stroke-width="0.25"/>
      <path id="Path_9293" data-name="Path 9293" d="M3250.279,241.41s89.356,72.467,95.739,156.765" transform="translate(-3216.042 -215.99)" fill="none" stroke="#000" stroke-linejoin="round" stroke-width="0.25"/>
      <path id="Path_9294" data-name="Path 9294" d="M3244.024,264.126s19.563,14.5,39.281,9.868c0,0,4.011-15.506-7.265-40.474" transform="translate(-3218.478 -219.063)" fill="none" stroke="#000" stroke-linejoin="round" stroke-width="0.25"/>
      <path id="Path_9295" data-name="Path 9295" d="M3244.024,283.6s28.795,21.343,61.682,13.037c0,0,6.334-26.327-5.123-52.1" transform="translate(-3218.478 -214.774)" fill="none" stroke="#000" stroke-linejoin="round" stroke-width="0.25"/>
      <path id="Path_9296" data-name="Path 9296" d="M3243.01,301.52s45.279,31.494,83.248,19.976c0,0,16.826-26.016,6.557-61.454" transform="translate(-3218.873 -208.735)" fill="none" stroke="#000" stroke-linejoin="round" stroke-width="0.25"/>
      <path id="Path_9297" data-name="Path 9297" d="M3249.531,326.18c.6.2,50.611,21.24,86.921,13.44,0,0,21.208-20.129,25.235-56.553" transform="translate(-3216.333 -199.768)" fill="none" stroke="#000" stroke-linejoin="round" stroke-width="0.25"/>
      <path id="Path_9298" data-name="Path 9298" d="M3255.183,341.778s37.627,25.192,87.074,20.247c0,0,33.338-12.251,33.539-64.2" transform="translate(-3214.132 -194.022)" fill="none" stroke="#000" stroke-linejoin="round" stroke-width="0.25"/>
      <ellipse id="Ellipse_1446" data-name="Ellipse 1446" cx="3.1" cy="2.067" rx="3.1" ry="2.067" transform="translate(103.512 31.016)" fill="#dffffa" stroke="#231815" stroke-miterlimit="10" stroke-width="0.25"/>
      <ellipse id="Ellipse_1447" data-name="Ellipse 1447" cx="3.908" cy="3.032" rx="3.908" ry="3.032" transform="translate(119.146 41.529)" fill="#dffffa" stroke="#231815" stroke-miterlimit="10" stroke-width="0.25"/>
    </g>
    <g id="Group_2799" data-name="Group 2799" transform="translate(3213.315 393.147)">
      <g id="Group_2798" data-name="Group 2798">
        <path id="Path_9299" data-name="Path 9299" d="M3308.271,426.582s-6.141,7.365-19.327,6.282a23.842,23.842,0,0,1,1.084-9.393,23.861,23.861,0,0,1-21.674,7.225s.722-6.129,4.7-10.018c0,0-14.63,5.334-24.2.542,0,0,2.346-5.335,6.862-7.864,0,0-17.63,2.074-28.829-6.415,0,0,4.66-6.575,8.961-9.543,0,0-11.506-.171-18.394-8.352a10.261,10.261,0,0,1,5.83-7.014s-6.467-2.862-9.116-7.207a10.076,10.076,0,0,1,7.419-3.6s-6.572-5.406-8.267-11.235a42.622,42.622,0,0,1,20.88-4.559s-2.65-4.134-4.558-6.889c0,0,11.448-4.452,19.4-1.591,0,0-.211-5.194-2.862-8.267,0,0,18.761-5.3,29.891,6.359a10.673,10.673,0,0,0-2.226-8.162s14.2-.774,23.108,10.583a13.245,13.245,0,0,0-.107-7.721s11.589,2.251,15.7,11.778a13.3,13.3,0,0,0,3.481-8.281s8.332,3.685,12.084,16.43S3327.6,403.836,3308.271,426.582Z" transform="translate(-3213.315 -336.868)" fill="#a5b63d" stroke="#231815" stroke-miterlimit="10" stroke-width="0.25"/>
        <path id="Path_9300" data-name="Path 9300" d="M3226.14,357.635s62.963,3.346,91.84,35.879" transform="translate(-3208.321 -328.781)" fill="none" stroke="#000" stroke-linejoin="round" stroke-width="0.25"/>
        <path id="Path_9301" data-name="Path 9301" d="M3232,373.807a36.015,36.015,0,0,0,22.595-8.145s-2.658-11.324-17.444-16.6" transform="translate(-3206.039 -332.119)" fill="none" stroke="#000" stroke-linejoin="round" stroke-width="0.25"/>
        <path id="Path_9302" data-name="Path 9302" d="M3241.206,392.257s27.22-.873,41.674-15.178a42.3,42.3,0,0,0-22.413-30.174" transform="translate(-3202.453 -332.959)" fill="none" stroke="#000" stroke-linejoin="round" stroke-width="0.25"/>
        <path id="Path_9303" data-name="Path 9303" d="M3261.651,407.178a78.982,78.982,0,0,0,40.966-14.005s1.4-21.938-18.041-38.936" transform="translate(-3194.491 -330.104)" fill="none" stroke="#000" stroke-linejoin="round" stroke-width="0.25"/>
      </g>
      <ellipse id="Ellipse_1448" data-name="Ellipse 1448" cx="2.342" cy="1.847" rx="2.342" ry="1.847" transform="translate(45.911 7.621)" fill="#dffffa" stroke="#231815" stroke-miterlimit="10" stroke-width="0.25"/>
      <ellipse id="Ellipse_1449" data-name="Ellipse 1449" cx="3.748" cy="2.276" rx="3.748" ry="2.276" transform="translate(66.34 9.148)" fill="#dffffa" stroke="#231815" stroke-miterlimit="10" stroke-width="0.25"/>
    </g>
    <g id="Group_2801" data-name="Group 2801" transform="translate(3464.284 385.581)">
      <path id="Path_9304" data-name="Path 9304" d="M3443.159,348.944c.823-.57,8.847-14.971,29.008-11.68s38.472,24.687,51.844,62.131,6.171,51.225-18.516,47.728-39.911-5.144-58.838-23.247-41.556-42.38-33.534-57.193S3443.159,348.944,3443.159,348.944Z" transform="translate(-3387.12 -329.338)" fill="#ea6157" stroke="#000" stroke-linejoin="round" stroke-width="0.25"/>
      <g id="Group_2800" data-name="Group 2800">
        <path id="Path_9305" data-name="Path 9305" d="M3425.854,356.665s1.2-7.788,6.364-11.167,9.819-9.75,9.947-14.075c2.56,3.575,10.688,9.7,8.82,15.859,6.117-.093,17.172,5.63,25.9-.939,0,0,4.1,22.039-20.83,20.17-1.217-.09-15.016,3.307-15.016,3.307s-10.82,2.973-14.509,3.549c-12.126,1.89-16.294-4.486-20.627-6.062,0,0,8.115-2.381,12.239-6.325C3423.027,356.312,3425.854,356.665,3425.854,356.665Z" transform="translate(-3389.285 -331.423)" fill="#a5b63d" stroke="#231815" stroke-miterlimit="10" stroke-width="0.25"/>
        <path id="Path_9306" data-name="Path 9306" d="M3400.032,372.433s-.772-12.97,8.028-19.146,21.154-3.551,25.014,3.551c0,0-13.9,4.478-8.646,21s3.859,24.55,3.859,24.55,14.823-7.411,12.352-34.894c0,0,8.955,11.117,27.791,7.1a118.986,118.986,0,0,1-7.719-12.923c-3.552-7-7.874-10.7-16.058-8.077,0,0-3.243-2.006-7.411.618,0,0-5.4-13.741-24.241-9.573-19.359,4.285-19.3,26.093-18.991,31.19S3401.113,381.852,3400.032,372.433Z" transform="translate(-3393.943 -326.582)" fill="#a5b63d" stroke="#231815" stroke-miterlimit="10" stroke-width="0.25"/>
        <path id="Path_9307" data-name="Path 9307" d="M3422.176,353.2s-1.06,2.962,1.18,3.191" transform="translate(-3383.045 -322.943)" fill="none" stroke="#000" stroke-linejoin="round" stroke-width="0.25"/>
        <path id="Path_9308" data-name="Path 9308" d="M3428.2,352.823a7.785,7.785,0,0,1,3.114-1.958" transform="translate(-3380.602 -323.852)" fill="none" stroke="#000" stroke-linejoin="round" stroke-width="0.25"/>
        <path id="Path_9309" data-name="Path 9309" d="M3427.919,362.276s-.263-3.361-1.314-5.027" transform="translate(-3381.223 -321.366)" fill="none" stroke="#000" stroke-linejoin="round" stroke-width="0.25"/>
        <path id="Path_9310" data-name="Path 9310" d="M3428.895,350.381s1.75-8.189,13.137-7.533" transform="translate(-3380.332 -326.989)" fill="none" stroke="#000" stroke-linejoin="round" stroke-width="0.25"/>
      </g>
      <path id="Path_9311" data-name="Path 9311" d="M3460.5,368.495a8.312,8.312,0,0,1-5.666-3.578c-2.237-3.28,1.023-5.145,3.531-2.162A7.976,7.976,0,0,1,3460.5,368.495Z" transform="translate(-3370.519 -319.805)" fill="#fbc6a6" stroke="#000" stroke-linejoin="round" stroke-width="0.25"/>
      <path id="Path_9312" data-name="Path 9312" d="M3474.018,372.872s-2.758-.224-5.293-5.145,2.452-6.33,4.25-1.564A14.294,14.294,0,0,1,3474.018,372.872Z" transform="translate(-3365.094 -319.037)" fill="#fbc6a6" stroke="#000" stroke-linejoin="round" stroke-width="0.25"/>
      <path id="Path_9313" data-name="Path 9313" d="M3468.175,356.694a6.624,6.624,0,0,1-4.7-2.759c-1.641-2.534.671-4.324,2.833-2.237A6.575,6.575,0,0,1,3468.175,356.694Z" transform="translate(-3367.08 -323.884)" fill="#fbc6a6" stroke="#000" stroke-linejoin="round" stroke-width="0.25"/>
      <path id="Path_9314" data-name="Path 9314" d="M3472.454,389.31a11.234,11.234,0,0,1-5.518-4.92c-1.863-3.579.678-5.961,3.1-3.729C3472.661,383.077,3472.454,389.31,3472.454,389.31Z" transform="translate(-3365.767 -312.586)" fill="#fbc6a6" stroke="#000" stroke-linejoin="round" stroke-width="0.25"/>
      <path id="Path_9315" data-name="Path 9315" d="M3485.4,386.268s-2.513-.7-3.1-4.281S3487.277,379.419,3485.4,386.268Z" transform="translate(-3359.55 -312.521)" fill="#fbc6a6" stroke="#000" stroke-linejoin="round" stroke-width="0.25"/>
      <path id="Path_9316" data-name="Path 9316" d="M3486.348,401.127a10.6,10.6,0,0,1-3.949-4.6c-1.829-3.9,1.787-5.877,3.533-1.712C3487.525,398.612,3486.348,401.127,3486.348,401.127Z" transform="translate(-3359.691 -307.641)" fill="#fbc6a6" stroke="#000" stroke-linejoin="round" stroke-width="0.25"/>
      <path id="Path_9317" data-name="Path 9317" d="M3478.148,404.235s-4.174.16-5.993-2.14,1.531-4.632,3.887-1.523A16.669,16.669,0,0,1,3478.148,404.235Z" transform="translate(-3363.687 -305.078)" fill="#fbc6a6" stroke="#000" stroke-linejoin="round" stroke-width="0.25"/>
      <path id="Path_9318" data-name="Path 9318" d="M3487.319,411.251s-7.911,2.936-7.917-.749C3479.4,407.347,3485.715,408.255,3487.319,411.251Z" transform="translate(-3360.662 -301.396)" fill="#fbc6a6" stroke="#000" stroke-linejoin="round" stroke-width="0.25"/>
      <path id="Path_9319" data-name="Path 9319" d="M3445.1,379.123s-4.813,1.063-6.937-1.563.563-5.124,3.468-3.187A8.221,8.221,0,0,1,3445.1,379.123Z" transform="translate(-3377.021 -314.965)" fill="#fbc6a6" stroke="#000" stroke-linejoin="round" stroke-width="0.25"/>
      <path id="Path_9320" data-name="Path 9320" d="M3458.945,388.883s-4.937.043-6.938-1.854-.5-5.209,2.689-3.022A11.985,11.985,0,0,1,3458.945,388.883Z" transform="translate(-3371.682 -311.225)" fill="#fbc6a6" stroke="#000" stroke-linejoin="round" stroke-width="0.25"/>
      <path id="Path_9321" data-name="Path 9321" d="M3450.965,397.09s-4.687,1.459-6.813-.427-.5-4.887,2.626-3.386A8.938,8.938,0,0,1,3450.965,397.09Z" transform="translate(-3374.764 -307.494)" fill="#fbc6a6" stroke="#000" stroke-linejoin="round" stroke-width="0.25"/>
      <path id="Path_9322" data-name="Path 9322" d="M3465.838,402.278c.395.395-3,1.312-6.687,1.312s-3.581-2.7-1.563-3.5C3460.587,398.9,3464.9,401.34,3465.838,402.278Z" transform="translate(-3369.7 -304.807)" fill="#fbc6a6" stroke="#000" stroke-linejoin="round" stroke-width="0.25"/>
    </g>
    <g id="Group_2803" data-name="Group 2803" transform="translate(3303.026 353.881)">
      <path id="Path_9323" data-name="Path 9323" d="M3284.581,452.83c-14.324-19.327-3.608-67.353,12.714-93.509,17.712-28.387,58.142-56.468,105.906-14.5s16.711,86.636-20.965,102.54C3345.876,462.711,3299.163,472.5,3284.581,452.83Z" transform="translate(-3277.882 -302.819)" fill="#ea6157" stroke="#000" stroke-linejoin="round" stroke-width="0.25"/>
      <g id="Group_2802" data-name="Group 2802" transform="translate(67.994)">
        <path id="Path_9324" data-name="Path 9324" d="M3353.976,346.593s-5.592-18.377,7.724-25.035c0,0-1.6,24.635,14.115,25.834l-.532,3.694s3.752-1.615,8.2,2.338,13.769,4.134,21.759,1.446L3390.6,367.117a26.991,26.991,0,0,0,7.19,16.391s-5.434,6.894-14.3,1.169-9.4-15.965-9.4-15.965-9.482,13.555-32.875,4.648c5.866-3.958,5.919-10.111,9.039-13.584,0,0-10.3,4.039-16.778-2-3.882-3.615-6.125-9.508-6.651-13.273C3338.273,349.342,3343.384,345.54,3353.976,346.593Z" transform="translate(-3326.818 -303.565)" fill="#ddd658" stroke="#000" stroke-linejoin="round" stroke-width="0.25"/>
        <path id="Path_9325" data-name="Path 9325" d="M3343.681,350.073a10.659,10.659,0,0,1,7.043-3.6" transform="translate(-3320.251 -293.862)" fill="none" stroke="#000" stroke-linejoin="round" stroke-width="0.25"/>
        <path id="Path_9326" data-name="Path 9326" d="M3346.364,339.576c.413.006,4.721.684,6.345,2.037" transform="translate(-3319.207 -296.548)" fill="none" stroke="#000" stroke-linejoin="round" stroke-width="0.25"/>
        <path id="Path_9327" data-name="Path 9327" d="M3352.987,358.864a23.032,23.032,0,0,1,5.817-3.229c4-1.48,8.923-6.458,14.489-20.177a46.619,46.619,0,0,0,2.761-25.738h5.709s2.4,13.621-3.506,24.036-4.306,16.423-4.306,16.423-5.909,1.8-11.317,13.519" transform="translate(-3316.627 -308.175)" fill="#ddd658" stroke="#000" stroke-linejoin="round" stroke-width="0.25"/>
        <ellipse id="Ellipse_1450" data-name="Ellipse 1450" cx="2.85" cy="1.424" rx="2.85" ry="1.424" transform="translate(59.442)" fill="#a5b63d" stroke="#231815" stroke-miterlimit="10" stroke-width="0.25"/>
        <path id="Path_9328" data-name="Path 9328" d="M3363.206,348.583s6.04-.743,8.777,3.443,4.442,4.586,4.442,4.586" transform="translate(-3312.648 -293.06)" fill="none" stroke="#000" stroke-linejoin="round" stroke-width="0.25"/>
        <path id="Path_9329" data-name="Path 9329" d="M3360.853,356.438a24.985,24.985,0,0,1,0-3.362" transform="translate(-3313.588 -291.291)" fill="none" stroke="#000" stroke-linejoin="round" stroke-width="0.25"/>
      </g>
      <path id="Path_9330" data-name="Path 9330" d="M3309.4,349.5a12.486,12.486,0,0,1,0-5.3c.738-3.09,3.779-2.613,3.332,0S3309.4,349.5,3309.4,349.5Z" transform="translate(-3265.72 -295.584)" fill="#fbc6a6" stroke="#000" stroke-linejoin="round" stroke-width="0.25"/>
      <path id="Path_9331" data-name="Path 9331" d="M3323.09,353.027a7.581,7.581,0,0,1,1.234-4.766c1.513-2.019,4.429-.168,2.971,1.962A7.944,7.944,0,0,1,3323.09,353.027Z" transform="translate(-3260.284 -293.504)" fill="#fbc6a6" stroke="#000" stroke-linejoin="round" stroke-width="0.25"/>
      <path id="Path_9332" data-name="Path 9332" d="M3324.733,368.946a11.251,11.251,0,0,1,2.311-5.272c2.3-2.747,6.164-1.683,4.706,1.458C3329.942,369.025,3324.733,368.946,3324.733,368.946Z" transform="translate(-3259.636 -287.778)" fill="#fbc6a6" stroke="#000" stroke-linejoin="round" stroke-width="0.25"/>
      <path id="Path_9333" data-name="Path 9333" d="M3298.8,364.326s-1.089-3.333-.321-5.32,3.142-1.8,3.333.449S3298.8,364.326,3298.8,364.326Z" transform="translate(-3269.967 -289.515)" fill="#fbc6a6" stroke="#000" stroke-linejoin="round" stroke-width="0.25"/>
      <path id="Path_9334" data-name="Path 9334" d="M3303.063,378.881a14.817,14.817,0,0,1,1.153-5.962c1.282-2.821,5.256-1.73,4.295,1.282S3303.063,378.881,3303.063,378.881Z" transform="translate(-3268.077 -284.2)" fill="#fbc6a6" stroke="#000" stroke-linejoin="round" stroke-width="0.25"/>
      <path id="Path_9335" data-name="Path 9335" d="M3299.844,399.934c-.064-.257-.256-2.884,1.346-7.115s5.448-2.948,4.871.321S3299.844,399.934,3299.844,399.934Z" transform="translate(-3269.345 -276.859)" fill="#fbc6a6" stroke="#000" stroke-linejoin="round" stroke-width="0.25"/>
      <path id="Path_9336" data-name="Path 9336" d="M3312.057,394.927a14.744,14.744,0,0,1,1.474-5.641c1.282-2.115,4.488-2.372,4.295.7S3312.057,394.927,3312.057,394.927Z" transform="translate(-3264.573 -277.812)" fill="#fbc6a6" stroke="#000" stroke-linejoin="round" stroke-width="0.25"/>
      <path id="Path_9337" data-name="Path 9337" d="M3286.2,393.45a13.042,13.042,0,0,1-.834-5.833c.385-3.838,3.937-3.813,4.359-1.282C3290.362,390.181,3286.2,393.45,3286.2,393.45Z" transform="translate(-3274.99 -279.028)" fill="#fbc6a6" stroke="#000" stroke-linejoin="round" stroke-width="0.25"/>
      <path id="Path_9338" data-name="Path 9338" d="M3291.18,414.5a17.684,17.684,0,0,1,.547-5.747c.821-3.011,3.74-2.645,3.559,0S3293.369,413.221,3291.18,414.5Z" transform="translate(-3272.72 -270.436)" fill="#fbc6a6" stroke="#000" stroke-linejoin="round" stroke-width="0.25"/>
      <path id="Path_9339" data-name="Path 9339" d="M3311.653,410.379a9.326,9.326,0,0,1,5.291-3.18c3.377-.639,4.472,1.981,2.556,3.18S3311.653,410.379,3311.653,410.379Z" transform="translate(-3264.73 -270.252)" fill="#fbc6a6" stroke="#000" stroke-linejoin="round" stroke-width="0.25"/>
      <path id="Path_9340" data-name="Path 9340" d="M3331.127,403.221a7.055,7.055,0,0,1,4.745-3.2c3.144-.432,3.144,2.465,1.418,3.2S3331.127,403.221,3331.127,403.221Z" transform="translate(-3257.146 -273.028)" fill="#fbc6a6" stroke="#000" stroke-linejoin="round" stroke-width="0.25"/>
      <path id="Path_9341" data-name="Path 9341" d="M3327.445,413.857a7.279,7.279,0,0,1,5.116-2.1c3.019.124,3.462,2.343,1.516,3.329S3327.445,413.857,3327.445,413.857Z" transform="translate(-3258.58 -268.439)" fill="#fbc6a6" stroke="#000" stroke-linejoin="round" stroke-width="0.25"/>
      <path id="Path_9342" data-name="Path 9342" d="M3327.931,385.929a7.748,7.748,0,0,1,3.023-4.568c2.687-2.016,5.241-.471,3.427,2.015S3327.931,385.929,3327.931,385.929Z" transform="translate(-3258.391 -280.637)" fill="#fbc6a6" stroke="#000" stroke-linejoin="round" stroke-width="0.25"/>
      <path id="Path_9343" data-name="Path 9343" d="M3347.178,398.209s1.747-3.293,4.166-4.1,4.7,1.277,2.218,3.7S3347.178,398.209,3347.178,398.209Z" transform="translate(-3250.896 -275.38)" fill="#fbc6a6" stroke="#000" stroke-linejoin="round" stroke-width="0.25"/>
      <path id="Path_9344" data-name="Path 9344" d="M3345.05,376.222a12.689,12.689,0,0,1,1.209-5.234c1.209-2.218,3.83-1.075,3.023,1.344S3345.05,376.222,3345.05,376.222Z" transform="translate(-3251.725 -284.778)" fill="#fbc6a6" stroke="#000" stroke-linejoin="round" stroke-width="0.25"/>
    </g>
    <g id="Group_2804" data-name="Group 2804" transform="translate(3234.598 548.454)">
      <path id="Path_9345" data-name="Path 9345" d="M3235.358,511.771s-5.379,4.769-6.724,10.639a36.281,36.281,0,0,0,11.982-.245,15.179,15.179,0,0,0-2.323,8.07s7.827.856,13.818-4.28c0,0-.245,5.259.856,8.438,0,0,11.617-2.323,16.876-7.7a15.5,15.5,0,0,0,1.834,7.7s9.537-3.547,15.163-9.416a8.857,8.857,0,0,0,4.28,5.5,26.281,26.281,0,0,0,10.149-10.026,11.826,11.826,0,0,0,1.834,5.747s7.458-3.668,10.761-10.883a10.09,10.09,0,0,0,4.279,5.137s6.6-3.179,8.438-12.106a12.41,12.41,0,0,0,8.437,4.157s6.968-8.681,2.445-34.972-20.3-29.225-35.339-28.858a13.442,13.442,0,0,0,1.1,6.236s-6.482-4.646-19.933-4.035a14,14,0,0,0,1.835,5.991s-13.206-1.712-23.112,2.934c0,0,.856,2.324,4.4,5.381a30.427,30.427,0,0,0-16.019,6.236,11.6,11.6,0,0,0,4.646,3.668s-11.371,1.958-15.774,7.215a16.539,16.539,0,0,0,4.77,3.3,29.682,29.682,0,0,0-12.228,13.207s3.79,1.1,6.358-.245c0,0-6.114,6.115-7.947,12.84C3230.223,511.4,3233.4,512.26,3235.358,511.771Z" transform="translate(-3228.633 -448.646)" fill="#a5b63d" stroke="#231815" stroke-miterlimit="10" stroke-width="0.25"/>
      <path id="Path_9346" data-name="Path 9346" d="M3244.738,506.585s51.256-15.507,76.271-52.787" transform="translate(-3222.361 -446.64)" fill="none" stroke="#000" stroke-linejoin="round" stroke-width="0.25"/>
      <path id="Path_9347" data-name="Path 9347" d="M3246.8,482.3s16.952-5.485,26.135,1.441a29.26,29.26,0,0,1-14.2,19.48" transform="translate(-3221.559 -436.343)" fill="none" stroke="#000" stroke-linejoin="round" stroke-width="0.25"/>
      <path id="Path_9348" data-name="Path 9348" d="M3253.973,468.509s23.068-4.691,36.31,7.471c0,0-.185,20.7-16.34,32.931" transform="translate(-3218.765 -441.257)" fill="none" stroke="#000" stroke-linejoin="round" stroke-width="0.25"/>
      <path id="Path_9349" data-name="Path 9349" d="M3272.185,455.928s18.709-1.285,29.6,7.959c0,0-.229,23.245-11.966,40.953" transform="translate(-3211.672 -445.834)" fill="none" stroke="#000" stroke-linejoin="round" stroke-width="0.25"/>
    </g>
    <g id="Group_2805" data-name="Group 2805" transform="translate(3322.822 542.416)">
      <path id="Path_9350" data-name="Path 9350" d="M3306.011,454.909s10.281-12.06,21.625-7.249,19.511,24.646,17.38,42.782c-2.37,20.173-24.457,17.4-39.507,3.763s-18.4-30.47-4.916-39.187Z" transform="translate(-3292.13 -443.433)" fill="#ea6157" stroke="#000" stroke-linejoin="round" stroke-width="0.25"/>
      <path id="Path_9351" data-name="Path 9351" d="M3292.772,448.076c-.175-.968-.382-2.193,3.253-1.884,3.769.321,7.65,1.815,9.264,4.146,0,0-.179-3.229,2.989-3.349s6.754,1.615,11.238-2.69c0,0,2.212,7.891-4.006,11.477a9.939,9.939,0,0,0,7.353,3.048,16.8,16.8,0,0,1-11.6,3.467s1.071,4.718.358,7.353c0,0-6.4-2.443-8.129-6.873,0,0-4.961,6.993-10.042,2.511a11.171,11.171,0,0,0,4.423-6.1c1.232-4.184,2.988-5.858,5.738-4.9,0,0,.088-2.138-2.8-4.177C3297.1,447.478,3293.042,449.569,3292.772,448.076Z" transform="translate(-3291.91 -444.3)" fill="#ddd658" stroke="#000" stroke-linejoin="round" stroke-width="0.25"/>
      <path id="Path_9352" data-name="Path 9352" d="M3304.293,454.555s1.4.809,2.457,3.743" transform="translate(-3287.393 -440.306)" fill="none" stroke="#000" stroke-linejoin="round" stroke-width="0.25"/>
      <path id="Path_9353" data-name="Path 9353" d="M3303.666,450.664s3.007-2.084,7.571,2.807" transform="translate(-3287.637 -441.994)" fill="none" stroke="#000" stroke-linejoin="round" stroke-width="0.25"/>
      <path id="Path_9354" data-name="Path 9354" d="M3301.759,448.646a7.557,7.557,0,0,1,1,2.191" transform="translate(-3288.38 -442.608)" fill="none" stroke="#000" stroke-linejoin="round" stroke-width="0.25"/>
      <path id="Path_9355" data-name="Path 9355" d="M3301.675,473.884s-3.041-.188-4.246-1.573c-1.29-1.484.346-3.012,1.875-1.974A8.068,8.068,0,0,1,3301.675,473.884Z" transform="translate(-3290.248 -434.293)" fill="#fbc6a6" stroke="#000" stroke-linejoin="round" stroke-width="0.25"/>
      <path id="Path_9356" data-name="Path 9356" d="M3303.422,468.566a4.974,4.974,0,0,1-2.669-1.792c-1.106-1.591-.243-3.129,1.052-2.562S3303.556,467.2,3303.422,468.566Z" transform="translate(-3288.97 -436.593)" fill="#fbc6a6" stroke="#000" stroke-linejoin="round" stroke-width="0.25"/>
      <path id="Path_9357" data-name="Path 9357" d="M3310.861,475.583s-2.913.511-4.368-.4a1.633,1.633,0,0,1,1.267-2.994C3310.024,472.563,3310.861,475.583,3310.861,475.583Z" transform="translate(-3286.863 -433.456)" fill="#fbc6a6" stroke="#000" stroke-linejoin="round" stroke-width="0.25"/>
      <path id="Path_9358" data-name="Path 9358" d="M3315.67,471.9a6.894,6.894,0,0,1-3.532-1.538c-1.4-1.348-.243-3.721,1.617-2.454S3315.67,471.9,3315.67,471.9Z" transform="translate(-3284.58 -435.247)" fill="#fbc6a6" stroke="#000" stroke-linejoin="round" stroke-width="0.25"/>
      <path id="Path_9359" data-name="Path 9359" d="M3322.934,476.013a3.912,3.912,0,0,1-1.538-3.262c.028-2.238,2.023-2.482,2.347-.917S3322.934,476.013,3322.934,476.013Z" transform="translate(-3280.733 -433.967)" fill="#fbc6a6" stroke="#000" stroke-linejoin="round" stroke-width="0.25"/>
      <path id="Path_9360" data-name="Path 9360" d="M3317.085,481.561a9.264,9.264,0,0,1-3.533-.4c-1.78-.7-1.645-2.725.458-2.455S3317.085,481.561,3317.085,481.561Z" transform="translate(-3284.269 -430.913)" fill="#fbc6a6" stroke="#000" stroke-linejoin="round" stroke-width="0.25"/>
      <path id="Path_9361" data-name="Path 9361" d="M3324.586,486.055a7.414,7.414,0,0,1-2.277-3.129c-.8-2.327,1.415-3.29,2.277-1.483S3324.586,486.055,3324.586,486.055Z" transform="translate(-3280.444 -430.202)" fill="#fbc6a6" stroke="#000" stroke-linejoin="round" stroke-width="0.25"/>
      <path id="Path_9362" data-name="Path 9362" d="M3319.8,461.3a5.164,5.164,0,0,1-2.095-3.522c-.439-2.534,1.58-2.965,2.095-1.374A8.238,8.238,0,0,1,3319.8,461.3Z" transform="translate(-3282.196 -439.949)" fill="#fbc6a6" stroke="#000" stroke-linejoin="round" stroke-width="0.25"/>
      <path id="Path_9363" data-name="Path 9363" d="M3323.593,466.37a5.419,5.419,0,0,1-.129-3.529,1.287,1.287,0,1,1,2.493.609A7.241,7.241,0,0,1,3323.593,466.37Z" transform="translate(-3280.02 -437.496)" fill="#fbc6a6" stroke="#000" stroke-linejoin="round" stroke-width="0.25"/>
    </g>
    <g id="Group_2808" data-name="Group 2808" transform="translate(3422.394 307.518)">
      <path id="Path_9364" data-name="Path 9364" d="M3391.539,337.3s16.458-23.706,31.8-32.354l1.915,3.26a114.06,114.06,0,0,0-30.377,29.666Z" transform="translate(-3352.988 -263.671)" fill="#ecb36f" stroke="#000" stroke-linejoin="round" stroke-width="0.25"/>
      <path id="Path_9365" data-name="Path 9365" d="M3434.394,299.1s-4.512-10.875,1.1-19.317c5.458-8.217,19.865-4.795,17.4,6.3s-15.549,16.715-15.549,16.715Z" transform="translate(-3336.968 -275.239)" fill="#fff6eb" stroke="#000" stroke-miterlimit="10" stroke-width="0.25"/>
      <path id="Path_9366" data-name="Path 9366" d="M3437.637,293.424a19.81,19.81,0,0,1,18.922.877c10,5.891,4.932,18.359-7.673,15.481s-13.671-9.59-13.671-9.59Z" transform="translate(-3335.979 -268.933)" fill="#fff6eb" stroke="#000" stroke-miterlimit="10" stroke-width="0.25"/>
      <path id="Path_9367" data-name="Path 9367" d="M3436.465,303.508s-12.051.985-18.926-6.462-1.456-19.337,7.441-19.984,15.448,7.128,16.821,16.181S3436.465,303.508,3436.465,303.508Z" transform="translate(-3344.075 -274.544)" fill="#fff6eb" stroke="#000" stroke-miterlimit="10" stroke-width="0.25"/>
      <path id="Path_9368" data-name="Path 9368" d="M3433.273,300.843s-3.445,12.7,3.054,18.924,16.85.4,14.344-8.734-12.051-12.212-12.051-12.212Z" transform="translate(-3337.091 -266.056)" fill="#fff6eb" stroke="#000" stroke-miterlimit="10" stroke-width="0.25"/>
      <path id="Path_9369" data-name="Path 9369" d="M3437.11,295.4s-11.4-.97-19.491,6.551-4.968,19.815,8.169,19.006,17.343-19.667,17.343-19.667Z" transform="translate(-3344.559 -267.405)" fill="#fff6eb" stroke="#000" stroke-miterlimit="10" stroke-width="0.25"/>
      <path id="Path_9370" data-name="Path 9370" d="M3419.461,285.841s5.176,1.407,7.926,5.476" transform="translate(-3342.115 -271.111)" fill="none" stroke="#000" stroke-linejoin="round" stroke-width="0.25"/>
      <path id="Path_9371" data-name="Path 9371" d="M3422.7,282.6a12.2,12.2,0,0,1,4,5.516" transform="translate(-3340.855 -272.373)" fill="none" stroke="#000" stroke-linejoin="round" stroke-width="0.25"/>
      <path id="Path_9372" data-name="Path 9372" d="M3426.62,281.359a12.169,12.169,0,0,1,2.023,5.741" transform="translate(-3339.327 -272.856)" fill="none" stroke="#000" stroke-linejoin="round" stroke-width="0.25"/>
      <path id="Path_9373" data-name="Path 9373" d="M3439.19,280.485s-.3,3.317-1.442,5.014" transform="translate(-3334.994 -273.196)" fill="none" stroke="#000" stroke-linejoin="round" stroke-width="0.25"/>
      <path id="Path_9374" data-name="Path 9374" d="M3443.3,280.485a14.052,14.052,0,0,1-3.639,7.442" transform="translate(-3334.249 -273.196)" fill="none" stroke="#000" stroke-linejoin="round" stroke-width="0.25"/>
      <path id="Path_9375" data-name="Path 9375" d="M3444.432,296.119s3.668-.238,5.742,1.655" transform="translate(-3332.391 -267.112)" fill="none" stroke="#000" stroke-linejoin="round" stroke-width="0.25"/>
      <path id="Path_9376" data-name="Path 9376" d="M3444.432,298.821a14.313,14.313,0,0,1,7.411,2.247" transform="translate(-3332.391 -266.056)" fill="none" stroke="#000" stroke-linejoin="round" stroke-width="0.25"/>
      <path id="Path_9377" data-name="Path 9377" d="M3444.8,301.789a12.96,12.96,0,0,1,4.339.728" transform="translate(-3332.247 -264.9)" fill="none" stroke="#000" stroke-linejoin="round" stroke-width="0.25"/>
      <path id="Path_9378" data-name="Path 9378" d="M3438.786,307.291s1,2.869.418,4.891" transform="translate(-3334.589 -262.757)" fill="none" stroke="#000" stroke-linejoin="round" stroke-width="0.25"/>
      <path id="Path_9379" data-name="Path 9379" d="M3440.969,306.62s2.709,3.56.93,7.037" transform="translate(-3333.739 -263.019)" fill="none" stroke="#000" stroke-linejoin="round" stroke-width="0.25"/>
      <path id="Path_9380" data-name="Path 9380" d="M3435.526,306.912s1.313,3.235.334,5.013" transform="translate(-3335.858 -262.905)" fill="none" stroke="#000" stroke-linejoin="round" stroke-width="0.25"/>
      <path id="Path_9381" data-name="Path 9381" d="M3421.382,310.584s4.447-1.376,5.984-3.964" transform="translate(-3341.366 -263.019)" fill="none" stroke="#000" stroke-linejoin="round" stroke-width="0.25"/>
      <path id="Path_9382" data-name="Path 9382" d="M3419.81,307.819a12.821,12.821,0,0,1,5.767-3.237" transform="translate(-3341.979 -263.812)" fill="none" stroke="#000" stroke-linejoin="round" stroke-width="0.25"/>
      <path id="Path_9383" data-name="Path 9383" d="M3417.147,308.078a11.43,11.43,0,0,1,7.733-6.987" transform="translate(-3343.016 -265.172)" fill="none" stroke="#000" stroke-linejoin="round" stroke-width="0.25"/>
      <g id="Group_2806" data-name="Group 2806" transform="translate(87.373 11.818)">
        <path id="Path_9384" data-name="Path 9384" d="M3444.624,283.745a8.455,8.455,0,0,1-2.345,3.317" transform="translate(-3420.602 -283.745)" fill="none" stroke="#000" stroke-linejoin="round" stroke-width="0.25"/>
        <circle id="Ellipse_1451" data-name="Ellipse 1451" cx="1.86" cy="1.86" r="1.86" transform="translate(14.214 8.533)" fill="#ffb829" stroke="#000" stroke-linejoin="round" stroke-width="0.25"/>
        <path id="Path_9385" data-name="Path 9385" d="M3441.96,296.875a2.676,2.676,0,0,0-1.989-4.478c-.071,0-.138.015-.207.021a5.484,5.484,0,0,0-8.187-.01,2.674,2.674,0,0,0-1.742,4.62,7.633,7.633,0,0,0-.875,3.511,6.988,6.988,0,1,0,13.954,0A7.639,7.639,0,0,0,3441.96,296.875Z" transform="translate(-3425.788 -281.817)" fill="#ffc05a" stroke="#000" stroke-linejoin="round" stroke-width="0.25"/>
        <circle id="Ellipse_1452" data-name="Ellipse 1452" cx="2.154" cy="2.154" r="2.154" transform="translate(0 19.495)" fill="#ffb829" stroke="#000" stroke-linejoin="round" stroke-width="0.25"/>
        <circle id="Ellipse_1453" data-name="Ellipse 1453" cx="1.715" cy="1.715" r="1.715" transform="translate(2.637 21.919)" fill="#ffb829" stroke="#000" stroke-linejoin="round" stroke-width="0.25"/>
        <circle id="Ellipse_1454" data-name="Ellipse 1454" cx="1.715" cy="1.715" r="1.715" transform="translate(3.827 15.742)" fill="#ffb829" stroke="#000" stroke-linejoin="round" stroke-width="0.25"/>
        <circle id="Ellipse_1455" data-name="Ellipse 1455" cx="1.715" cy="1.715" r="1.715" transform="translate(0.923 14.027)" fill="#ffb829" stroke="#000" stroke-linejoin="round" stroke-width="0.25"/>
        <circle id="Ellipse_1456" data-name="Ellipse 1456" cx="1.715" cy="1.715" r="1.715" transform="translate(0.923 10.958)" fill="#ffb829" stroke="#000" stroke-linejoin="round" stroke-width="0.25"/>
        <circle id="Ellipse_1457" data-name="Ellipse 1457" cx="2.005" cy="2.005" r="2.005" transform="translate(3.171 8.387)" fill="#ffb829" stroke="#000" stroke-linejoin="round" stroke-width="0.25"/>
        <circle id="Ellipse_1458" data-name="Ellipse 1458" cx="2.005" cy="2.005" r="2.005" transform="translate(5.892 24.513)" fill="#ffb829" stroke="#000" stroke-linejoin="round" stroke-width="0.25"/>
        <circle id="Ellipse_1459" data-name="Ellipse 1459" cx="2.005" cy="2.005" r="2.005" transform="translate(10.623 24.101)" fill="#ffb829" stroke="#000" stroke-linejoin="round" stroke-width="0.25"/>
        <circle id="Ellipse_1460" data-name="Ellipse 1460" cx="1.86" cy="1.86" r="1.86" transform="translate(8.923 3.789)" fill="#ffb829" stroke="#000" stroke-linejoin="round" stroke-width="0.25"/>
        <circle id="Ellipse_1461" data-name="Ellipse 1461" cx="1.86" cy="1.86" r="1.86" transform="translate(6.037 6.68)" fill="#ffb829" stroke="#000" stroke-linejoin="round" stroke-width="0.25"/>
        <circle id="Ellipse_1462" data-name="Ellipse 1462" cx="1.86" cy="1.86" r="1.86" transform="translate(14.964 21.334)" fill="#ffb829" stroke="#000" stroke-linejoin="round" stroke-width="0.25"/>
        <circle id="Ellipse_1463" data-name="Ellipse 1463" cx="1.86" cy="1.86" r="1.86" transform="translate(16.074 16.515)" fill="#ffb829" stroke="#000" stroke-linejoin="round" stroke-width="0.25"/>
      </g>
      <g id="Group_2807" data-name="Group 2807" transform="translate(0 50.543)">
        <path id="Path_9386" data-name="Path 9386" d="M3385.364,337.245a20.315,20.315,0,0,0-13.757,9.181c-3.914,6.12-2.572,18.124,11.324,16.177,12.49-1.749,11.049-24.341,11.049-24.341Z" transform="translate(-3361.493 -301.635)" fill="#fff6eb" stroke="#000" stroke-miterlimit="10" stroke-width="0.25"/>
        <path id="Path_9387" data-name="Path 9387" d="M3373.233,349.643a8.324,8.324,0,0,1,4.316-4.741" transform="translate(-3360.117 -298.654)" fill="none" stroke="#000" stroke-linejoin="round" stroke-width="0.25"/>
        <path id="Path_9388" data-name="Path 9388" d="M3378.175,346.167s-.8,4.955-2.718,7.779" transform="translate(-3359.251 -298.161)" fill="none" stroke="#000" stroke-linejoin="round" stroke-width="0.25"/>
        <path id="Path_9389" data-name="Path 9389" d="M3379.261,346.167s1.54,4.424-.029,7.327" transform="translate(-3357.781 -298.161)" fill="none" stroke="#000" stroke-linejoin="round" stroke-width="0.25"/>
        <path id="Path_9390" data-name="Path 9390" d="M3384.516,339.8s-7.791-6-7.588-15.255,9.356-15.356,18.61-12,11.187,16.372,1.017,27.254Z" transform="translate(-3358.679 -311.616)" fill="#fff6eb" stroke="#000" stroke-miterlimit="10" stroke-width="0.25"/>
        <path id="Path_9391" data-name="Path 9391" d="M3388.648,332.613s-6.606-12.813-19.061-7.525c-10.449,4.436-5.563,20.819,5.124,21.647s14.45-7.207,14.45-7.207Z" transform="translate(-3363.793 -306.868)" fill="#fff6eb" stroke="#000" stroke-miterlimit="10" stroke-width="0.25"/>
        <path id="Path_9392" data-name="Path 9392" d="M3386.331,342.472s-4.5,16.638,6.51,21.2,24.2-14.29,3.151-24.968Z" transform="translate(-3355.371 -301.066)" fill="#fff6eb" stroke="#000" stroke-miterlimit="10" stroke-width="0.25"/>
        <path id="Path_9393" data-name="Path 9393" d="M3390.175,333.02c.916-1.118,5.872-9.163,16.882-9.212,10.678-.047,16.779,14.7,7.728,22.025s-23.186-2.746-23.186-2.746Z" transform="translate(-3353.52 -306.868)" fill="#fff6eb" stroke="#000" stroke-miterlimit="10" stroke-width="0.25"/>
        <path id="Path_9394" data-name="Path 9394" d="M3369.037,335.323s3.222,1.9,6.1,1.15" transform="translate(-3361.751 -302.384)" fill="none" stroke="#000" stroke-linejoin="round" stroke-width="0.25"/>
        <path id="Path_9395" data-name="Path 9395" d="M3371.232,328.863s4.028.517,5.7,2.934" transform="translate(-3360.896 -304.9)" fill="none" stroke="#000" stroke-linejoin="round" stroke-width="0.25"/>
        <path id="Path_9396" data-name="Path 9396" d="M3369.907,332.08s4.021.478,5.75,1.859" transform="translate(-3361.412 -303.647)" fill="none" stroke="#000" stroke-linejoin="round" stroke-width="0.25"/>
        <path id="Path_9397" data-name="Path 9397" d="M3383.088,316.108a11.9,11.9,0,0,0,0,6.616" transform="translate(-3356.469 -309.867)" fill="none" stroke="#000" stroke-linejoin="round" stroke-width="0.25"/>
        <path id="Path_9398" data-name="Path 9398" d="M3385.793,316.793a17.665,17.665,0,0,0,.4,7.564" transform="translate(-3355.319 -309.6)" fill="none" stroke="#000" stroke-linejoin="round" stroke-width="0.25"/>
        <path id="Path_9399" data-name="Path 9399" d="M3389.931,316.605s2.015,5.69-.229,10.008" transform="translate(-3353.704 -309.673)" fill="none" stroke="#000" stroke-linejoin="round" stroke-width="0.25"/>
        <path id="Path_9400" data-name="Path 9400" d="M3400.137,330.005a11.023,11.023,0,0,1,5.582,0" transform="translate(-3349.64 -304.604)" fill="none" stroke="#000" stroke-linejoin="round" stroke-width="0.25"/>
        <path id="Path_9401" data-name="Path 9401" d="M3399.765,332.933a15.538,15.538,0,0,0,7.479-.853" transform="translate(-3349.785 -303.647)" fill="none" stroke="#000" stroke-linejoin="round" stroke-width="0.25"/>
        <path id="Path_9402" data-name="Path 9402" d="M3400.612,338.25s5.99-.3,9.714-3.586" transform="translate(-3349.455 -302.641)" fill="none" stroke="#000" stroke-linejoin="round" stroke-width="0.25"/>
        <path id="Path_9403" data-name="Path 9403" d="M3390.175,347.945s-.15,3.924,2.567,5.734" transform="translate(-3353.52 -297.469)" fill="none" stroke="#000" stroke-linejoin="round" stroke-width="0.25"/>
        <path id="Path_9404" data-name="Path 9404" d="M3392.751,347.279s1.765,2.823,1.654,5.062" transform="translate(-3352.517 -297.728)" fill="none" stroke="#000" stroke-linejoin="round" stroke-width="0.25"/>
        <path id="Path_9405" data-name="Path 9405" d="M3394.4,345.09s3.623,3.062,3.2,6.835" transform="translate(-3351.874 -298.58)" fill="none" stroke="#000" stroke-linejoin="round" stroke-width="0.25"/>
        <circle id="Ellipse_1464" data-name="Ellipse 1464" cx="1.97" cy="1.97" r="1.97" transform="translate(26.457 21.687)" fill="#ffb829" stroke="#000" stroke-linejoin="round" stroke-width="0.25"/>
        <circle id="Ellipse_1465" data-name="Ellipse 1465" cx="2.481" cy="2.481" r="2.481" transform="translate(28.989 18.528)" fill="#ffb829" stroke="#000" stroke-linejoin="round" stroke-width="0.25"/>
        <circle id="Ellipse_1466" data-name="Ellipse 1466" cx="2.454" cy="2.454" r="2.454" transform="translate(31.749 21.729)" fill="#ffb829" stroke="#000" stroke-linejoin="round" stroke-width="0.25"/>
        <circle id="Ellipse_1467" data-name="Ellipse 1467" cx="2.39" cy="2.39" r="2.39" transform="translate(35.998 23.011)" fill="#ffb829" stroke="#000" stroke-linejoin="round" stroke-width="0.25"/>
        <path id="Path_9406" data-name="Path 9406" d="M3395.975,335.828c-.008-.035-.013-.071-.021-.1a3.4,3.4,0,0,0-4.594-4.967c-.1-.035-.206-.067-.31-.1a2.437,2.437,0,0,0,.031-.307,2.48,2.48,0,0,0-4.96,0,2.4,2.4,0,0,0,.04.4,3.406,3.406,0,0,0-4.332,5.208,3.391,3.391,0,0,0,.885,6.593l0,.024a1338.662,1338.662,0,0,1,8.177,3.84,3.409,3.409,0,0,0,3.409-3.41,3.565,3.565,0,0,0-.064-.624,3.4,3.4,0,1,0,1.741-6.56Z" transform="translate(-3357.663 -305.285)" fill="#ffc05a" stroke="#000" stroke-linejoin="round" stroke-width="0.25"/>
        <circle id="Ellipse_1468" data-name="Ellipse 1468" cx="3.075" cy="3.075" r="3.075" transform="translate(37.704 26.829)" fill="#ffb829" stroke="#000" stroke-linejoin="round" stroke-width="0.25"/>
        <circle id="Ellipse_1469" data-name="Ellipse 1469" cx="2.519" cy="2.519" r="2.519" transform="translate(38.892 31.996)" fill="#ffb829" stroke="#000" stroke-linejoin="round" stroke-width="0.25"/>
        <circle id="Ellipse_1470" data-name="Ellipse 1470" cx="2.306" cy="2.306" r="2.306" transform="translate(40.578 36.124)" fill="#ffb829" stroke="#000" stroke-linejoin="round" stroke-width="0.25"/>
        <circle id="Ellipse_1471" data-name="Ellipse 1471" cx="3.209" cy="3.209" r="3.209" transform="translate(35.179 35.609)" fill="#ffb829" stroke="#000" stroke-linejoin="round" stroke-width="0.25"/>
        <circle id="Ellipse_1472" data-name="Ellipse 1472" cx="3.023" cy="3.023" r="3.023" transform="translate(32.381 40.213)" fill="#ffb829" stroke="#000" stroke-linejoin="round" stroke-width="0.25"/>
        <circle id="Ellipse_1473" data-name="Ellipse 1473" cx="2.457" cy="2.457" r="2.457" transform="translate(29.012 39.229)" fill="#ffb829" stroke="#000" stroke-linejoin="round" stroke-width="0.25"/>
        <circle id="Ellipse_1474" data-name="Ellipse 1474" cx="2.713" cy="2.713" r="2.713" transform="translate(24.706 39.128)" fill="#ffb829" stroke="#000" stroke-linejoin="round" stroke-width="0.25"/>
        <circle id="Ellipse_1475" data-name="Ellipse 1475" cx="2.558" cy="2.558" r="2.558" transform="translate(21.1 36.57)" fill="#ffb829" stroke="#000" stroke-linejoin="round" stroke-width="0.25"/>
        <circle id="Ellipse_1476" data-name="Ellipse 1476" cx="2.558" cy="2.558" r="2.558" transform="translate(22.148 22.652)" fill="#ffb829" stroke="#000" stroke-linejoin="round" stroke-width="0.25"/>
        <circle id="Ellipse_1477" data-name="Ellipse 1477" cx="2.558" cy="2.558" r="2.558" transform="translate(19.893 25.21)" fill="#ffb829" stroke="#000" stroke-linejoin="round" stroke-width="0.25"/>
        <circle id="Ellipse_1478" data-name="Ellipse 1478" cx="2.814" cy="2.814" r="2.814" transform="translate(17.651 34.027)" fill="#ffb829" stroke="#000" stroke-linejoin="round" stroke-width="0.25"/>
        <circle id="Ellipse_1479" data-name="Ellipse 1479" cx="3.43" cy="3.43" r="3.43" transform="translate(18.507 28.433)" fill="#ffb829" stroke="#000" stroke-linejoin="round" stroke-width="0.25"/>
      </g>
    </g>
    <path id="Path_9407" data-name="Path 9407" d="M3231.866,438.242c19.981-7.895,31.744,5.317,62.036,0" transform="translate(7.224 94.75)" fill="none" stroke="#000" stroke-linejoin="round" stroke-width="0.25"/>
    <ellipse id="Ellipse_1480" data-name="Ellipse 1480" cx="7.412" cy="3.384" rx="7.412" ry="3.384" transform="translate(3268.578 511.077)" fill="#ecb36f" stroke="#000" stroke-linejoin="round" stroke-width="0.25"/>
    <ellipse id="Ellipse_1481" data-name="Ellipse 1481" cx="4.593" cy="2.175" rx="4.593" ry="2.175" transform="translate(3256.976 504.148)" fill="#c19165" stroke="#000" stroke-linejoin="round" stroke-width="0.25"/>
    <path id="Path_9408" data-name="Path 9408" d="M3282.836,437.258a8.625,8.625,0,0,1,6.892,0" transform="translate(27.073 95.092)" fill="none" stroke="#000" stroke-linejoin="round" stroke-width="0.25"/>
    <ellipse id="Ellipse_1482" data-name="Ellipse 1482" cx="5.8" cy="2.959" rx="5.8" ry="2.959" transform="translate(3377.683 523.558)" fill="#c19165" stroke="#000" stroke-linejoin="round" stroke-width="0.25"/>
    <ellipse id="Ellipse_1483" data-name="Ellipse 1483" cx="7.406" cy="4.138" rx="7.406" ry="4.138" transform="translate(3441.388 573.596)" fill="#ecb36f" stroke="#000" stroke-linejoin="round" stroke-width="0.25"/>
    <ellipse id="Ellipse_1484" data-name="Ellipse 1484" cx="5.063" cy="2.935" rx="5.063" ry="2.935" transform="translate(3422.651 568.99)" fill="#ecb36f" stroke="#000" stroke-linejoin="round" stroke-width="0.25"/>
    <path id="Path_9409" data-name="Path 9409" d="M3346.79,479.725c8.86-6.016,30.3,5.142,41.9,0" transform="translate(51.979 111.197)" fill="none" stroke="#000" stroke-linejoin="round" stroke-width="0.25"/>
    <path id="Path_9410" data-name="Path 9410" d="M3341.593,442.379c3.5,4.136,14,0,18.926,2.686" transform="translate(49.955 97.368)" fill="none" stroke="#000" stroke-linejoin="round" stroke-width="0.25"/>
    <path id="Path_9411" data-name="Path 9411" d="M3359.387,445.832a8.283,8.283,0,0,1,4.267,0" transform="translate(56.884 98.599)" fill="none" stroke="#000" stroke-linejoin="round" stroke-width="0.25"/>
    <ellipse id="Ellipse_1485" data-name="Ellipse 1485" cx="5.672" cy="2.412" rx="5.672" ry="2.412" transform="translate(3428.666 626.556)" fill="#ecb36f" stroke="#000" stroke-linejoin="round" stroke-width="0.25"/>
    <ellipse id="Ellipse_1486" data-name="Ellipse 1486" cx="7.367" cy="3.39" rx="7.367" ry="3.39" transform="translate(3529.461 645.464)" fill="#c19165" stroke="#000" stroke-linejoin="round" stroke-width="0.25"/>
    <path id="Path_9412" data-name="Path 9412" d="M3409.694,502.935c12.258-6.521,30.121,6.78,44.2,1.042s18.125,2.305,32.207,1.674" transform="translate(76.475 120.231)" fill="none" stroke="#000" stroke-linejoin="round" stroke-width="0.25"/>
    <path id="Path_9413" data-name="Path 9413" d="M3437.192,480.3c2.739-3.521,17.082-6.389,26.209-1.565s17.343-2.086,25.819,1.044,12.388-.652,12.388-.652" transform="translate(87.184 110.53)" fill="none" stroke="#000" stroke-linejoin="round" stroke-width="0.25"/>
    <path id="Path_9414" data-name="Path 9414" d="M3481.394,469.024c10.824-7.042,19.69,4.042,29.991,0s18.516,2.738,18.516,2.738" transform="translate(104.398 106.809)" fill="none" stroke="#000" stroke-linejoin="round" stroke-width="0.25"/>
    <path id="Path_9415" data-name="Path 9415" d="M3477.171,444.039c15.256-8.084,33.121,3.913,42.639-3" transform="translate(102.753 96.847)" fill="none" stroke="#000" stroke-linejoin="round" stroke-width="0.25"/>
    <ellipse id="Ellipse_1487" data-name="Ellipse 1487" cx="5.477" cy="2.086" rx="5.477" ry="2.086" transform="translate(3567.537 558.229)" fill="#ecb36f" stroke="#000" stroke-linejoin="round" stroke-width="0.25"/>
    <ellipse id="Ellipse_1488" data-name="Ellipse 1488" cx="3.912" cy="1.695" rx="3.912" ry="1.695" transform="translate(3581.619 550.797)" fill="#ecb36f" stroke="#000" stroke-linejoin="round" stroke-width="0.25"/>
    <ellipse id="Ellipse_1489" data-name="Ellipse 1489" cx="5.803" cy="2.869" rx="5.803" ry="2.869" transform="translate(3610.958 522.24)" fill="#c19165" stroke="#000" stroke-linejoin="round" stroke-width="0.25"/>
    <ellipse id="Ellipse_1490" data-name="Ellipse 1490" cx="4.89" cy="2.412" rx="4.89" ry="2.412" transform="translate(3593.616 602.303)" fill="#c19165" stroke="#000" stroke-linejoin="round" stroke-width="0.25"/>
    <path id="Path_9416" data-name="Path 9416" d="M3461.405,423.308c3.781-3.651,12.256,3.913,21.906.782a23.537,23.537,0,0,1,17.082.778" transform="translate(96.613 89.543)" fill="none" stroke="#000" stroke-linejoin="round" stroke-width="0.25"/>
    <path id="Path_9417" data-name="Path 9417" d="M3494.158,424.259a9.986,9.986,0,0,1,5.606,0" transform="translate(109.368 90.153)" fill="none" stroke="#000" stroke-linejoin="round" stroke-width="0.25"/>
    <path id="Path_9418" data-name="Path 9418" d="M3513.665,440.373s4.692-1,7.688.6" transform="translate(116.965 96.467)" fill="none" stroke="#000" stroke-linejoin="round" stroke-width="0.25"/>
    <ellipse id="Ellipse_1491" data-name="Ellipse 1491" cx="6.576" cy="2.94" rx="6.576" ry="2.94" transform="translate(3323.815 643.192)" fill="#c19165" stroke="#000" stroke-linejoin="round" stroke-width="0.25"/>
    <ellipse id="Ellipse_1492" data-name="Ellipse 1492" cx="4.719" cy="1.857" rx="4.719" ry="1.857" transform="translate(3343.001 638.705)" fill="#c19165" stroke="#000" stroke-linejoin="round" stroke-width="0.25"/>
    <g id="Group_2811" data-name="Group 2811" transform="translate(3393.271 410.092)">
      <g id="Group_2809" data-name="Group 2809">
        <path id="Path_9419" data-name="Path 9419" d="M3348.207,356.322s4.838,25.56,30.7,24.122l5.207-10.474S3360.573,366.126,3348.207,356.322Z" transform="translate(-3340.741 -346.238)" fill="#a5b63d" stroke="#231815" stroke-miterlimit="10" stroke-width="0.25"/>
        <path id="Path_9420" data-name="Path 9420" d="M3374.449,369.529a33.477,33.477,0,0,0,7.113-20.465s6.919,14.795-.481,24.118Z" transform="translate(-3330.521 -349.064)" fill="#a5b63d" stroke="#231815" stroke-miterlimit="10" stroke-width="0.25"/>
        <path id="Path_9421" data-name="Path 9421" d="M3383.487,366.874s-6.239,15.234-40.654,26.549c0,0,26.54,2.762,39.656-12.159S3383.487,366.874,3383.487,366.874Z" transform="translate(-3342.833 -342.129)" fill="#a5b63d" stroke="#231815" stroke-miterlimit="10" stroke-width="0.25"/>
        <path id="Path_9422" data-name="Path 9422" d="M3378.266,367.91s18.243-3.714,27.47-13.562c0,0,.793,14.854-19.741,18.6S3378.266,367.91,3378.266,367.91Z" transform="translate(-3330.57 -347.006)" fill="#a5b63d" stroke="#231815" stroke-miterlimit="10" stroke-width="0.25"/>
      </g>
      <path id="Path_9423" data-name="Path 9423" d="M3398.208,459.643c-22.3-22.456-28.354-47.082-23.56-66.166,3.9-15.514,3.55-19.791,3.55-19.791v0a28.3,28.3,0,0,1-5,11.1c-6.272,8.671-20.2,35.857-13.836,61.064,4.981,19.74,16.6,46.306,84.308,56.821,18.636,2.894,30.94,1.616,38.863-2.343C3454.165,502.4,3424.214,485.833,3398.208,459.643Z" transform="translate(-3337.03 -339.477)" fill="#ea6157" stroke="#000" stroke-linejoin="round" stroke-width="0.25"/>
      <g id="Group_2810" data-name="Group 2810" transform="translate(36.083 21.012)">
        <path id="Path_9424" data-name="Path 9424" d="M3484.849,443.818c-6.475-28.592-19.863-52.308-35.761-65.41s-31.739-15.781-49.605-12.54c-9.324,1.691-14.468.149-17.805-1.681a8.431,8.431,0,0,1-8.02,4.875,14.593,14.593,0,0,1,.589,3.436,17.109,17.109,0,0,1-.359,4.882v0s.348,4.277-3.55,19.791c-4.794,19.084,1.263,43.71,23.561,66.166,26.006,26.191,55.956,42.758,84.323,40.685C3499.09,493.6,3489.539,464.541,3484.849,443.818Z" transform="translate(-3368.803 -364.187)" fill="#fbc6a6" stroke="#000" stroke-linejoin="round" stroke-width="0.25"/>
      </g>
      <path id="Path_9425" data-name="Path 9425" d="M3372.3,369.183c3.439,13.19,4.818,28.881,24.842,57.111,19.412,27.369,48.547,49.341,60.367,40.264,9.492-7.292-13.3-40.919-28.7-60.92-14.12-18.336-32.554-30.183-46.314-40.317C3373.145,360.531,3372.3,369.183,3372.3,369.183Z" transform="translate(-3331.36 -343.296)" fill="#fff6eb" stroke="#000" stroke-miterlimit="10" stroke-width="0.25"/>
      <path id="Path_9426" data-name="Path 9426" d="M3377.191,392.551s-1.088,11.083,1.039,20.721" transform="translate(-3329.562 -332.129)" fill="none" stroke="#000" stroke-linejoin="round" stroke-width="0.25"/>
      <path id="Path_9427" data-name="Path 9427" d="M3385.118,409.521s.782,19.862,5.968,28.472" transform="translate(-3326.366 -325.52)" fill="none" stroke="#000" stroke-linejoin="round" stroke-width="0.25"/>
      <path id="Path_9428" data-name="Path 9428" d="M3397.934,424.487s.685,9.733,3.424,15.31" transform="translate(-3321.375 -319.692)" fill="none" stroke="#000" stroke-linejoin="round" stroke-width="0.25"/>
      <path id="Path_9429" data-name="Path 9429" d="M3413.567,435.506s.684,10.273,4.109,17.219" transform="translate(-3315.287 -315.401)" fill="none" stroke="#000" stroke-linejoin="round" stroke-width="0.25"/>
      <path id="Path_9430" data-name="Path 9430" d="M3423.425,443.393s1.859,8.023,4.7,10.468" transform="translate(-3311.448 -312.33)" fill="none" stroke="#000" stroke-linejoin="round" stroke-width="0.25"/>
      <path id="Path_9431" data-name="Path 9431" d="M3432.439,445.294s6.065,13.208,13.8,17.122" transform="translate(-3307.938 -311.589)" fill="none" stroke="#000" stroke-linejoin="round" stroke-width="0.25"/>
      <path id="Path_9432" data-name="Path 9432" d="M3438.354,442.477s7.73,11.154,13.4,13.209" transform="translate(-3305.635 -312.686)" fill="none" stroke="#000" stroke-linejoin="round" stroke-width="0.25"/>
      <path id="Path_9433" data-name="Path 9433" d="M3441.8,435.506s4.7.586,6.947,2.348" transform="translate(-3304.291 -315.401)" fill="none" stroke="#000" stroke-linejoin="round" stroke-width="0.25"/>
      <path id="Path_9434" data-name="Path 9434" d="M3439.692,426.351s4.6.294,6.408,1.665" transform="translate(-3305.114 -318.966)" fill="none" stroke="#000" stroke-linejoin="round" stroke-width="0.25"/>
      <path id="Path_9435" data-name="Path 9435" d="M3433.354,415.667s8.414-.588,12.524,1.663" transform="translate(-3307.581 -323.154)" fill="none" stroke="#000" stroke-linejoin="round" stroke-width="0.25"/>
      <path id="Path_9436" data-name="Path 9436" d="M3425.4,404.385s11.055-.392,19.373,3.033" transform="translate(-3310.681 -327.526)" fill="none" stroke="#000" stroke-linejoin="round" stroke-width="0.25"/>
      <path id="Path_9437" data-name="Path 9437" d="M3417.932,393.5s17.22-1.142,26.417,3.929" transform="translate(-3313.588 -331.803)" fill="none" stroke="#000" stroke-linejoin="round" stroke-width="0.25"/>
      <path id="Path_9438" data-name="Path 9438" d="M3409.412,383.447s15.75-2.483,25.047,1.095" transform="translate(-3316.906 -336.001)" fill="none" stroke="#000" stroke-linejoin="round" stroke-width="0.25"/>
      <path id="Path_9439" data-name="Path 9439" d="M3398.215,374.049s13.7-3.235,23.873.484" transform="translate(-3321.266 -339.842)" fill="none" stroke="#000" stroke-linejoin="round" stroke-width="0.25"/>
      <path id="Path_9440" data-name="Path 9440" d="M3366.242,415.657a7.32,7.32,0,0,1-2.888-4.845c-.413-3.2,3.093-2.68,3.505,0A9.112,9.112,0,0,1,3366.242,415.657Z" transform="translate(-3334.854 -325.877)" fill="#fbc6a6" stroke="#000" stroke-linejoin="round" stroke-width="0.25"/>
      <path id="Path_9441" data-name="Path 9441" d="M3375.849,435.667s-4.279.44-6.235-1.152c-2.052-1.67-.474-4.541,2.643-2.643S3375.849,435.667,3375.849,435.667Z" transform="translate(-3332.764 -317.06)" fill="#fbc6a6" stroke="#000" stroke-linejoin="round" stroke-width="0.25"/>
      <path id="Path_9442" data-name="Path 9442" d="M3375.789,445.54s-3.523.475-4.947-1.694.948-3.728,2.778-2.169A6.919,6.919,0,0,1,3375.789,445.54Z" transform="translate(-3332.094 -313.244)" fill="#fbc6a6" stroke="#000" stroke-linejoin="round" stroke-width="0.25"/>
      <path id="Path_9443" data-name="Path 9443" d="M3388.255,444.086c-.374-.125-3.493-1-4.949-3s.332-4.409,2.475-2.245A9.767,9.767,0,0,1,3388.255,444.086Z" transform="translate(-3327.278 -314.432)" fill="#fbc6a6" stroke="#000" stroke-linejoin="round" stroke-width="0.25"/>
      <path id="Path_9444" data-name="Path 9444" d="M3388.583,453.934a9.124,9.124,0,0,1-5.2.582c-2.08-.54-2-3.119.707-3.036A6.541,6.541,0,0,1,3388.583,453.934Z" transform="translate(-3327.607 -309.181)" fill="#fbc6a6" stroke="#000" stroke-linejoin="round" stroke-width="0.25"/>
      <path id="Path_9445" data-name="Path 9445" d="M3403.233,457.614a6.5,6.5,0,0,1-4.368-2.7c-1.5-2.372-.042-4.535,2.184-2.662S3403.233,457.614,3403.233,457.614Z" transform="translate(-3321.25 -309.158)" fill="#fbc6a6" stroke="#000" stroke-linejoin="round" stroke-width="0.25"/>
      <path id="Path_9446" data-name="Path 9446" d="M3415.811,462.03s-3.119,2.454-5.906,1.414-1.478-3.269,1.331-3.162A8.084,8.084,0,0,1,3415.811,462.03Z" transform="translate(-3317.315 -305.754)" fill="#fbc6a6" stroke="#000" stroke-linejoin="round" stroke-width="0.25"/>
      <path id="Path_9447" data-name="Path 9447" d="M3425.217,465.688s-3.155.607-4.793-.97.121-3.521,1.821-2.427A11.012,11.012,0,0,1,3425.217,465.688Z" transform="translate(-3312.872 -305.095)" fill="#fbc6a6" stroke="#000" stroke-linejoin="round" stroke-width="0.25"/>
      <path id="Path_9448" data-name="Path 9448" d="M3374.771,369.285s.114,5.1,2,8.131" transform="translate(-3330.395 -341.189)" fill="none" stroke="#000" stroke-linejoin="round" stroke-width="0.25"/>
      <path id="Path_9449" data-name="Path 9449" d="M3379.222,367.472a16.831,16.831,0,0,1,4.866,3.721" transform="translate(-3328.662 -341.895)" fill="none" stroke="#000" stroke-linejoin="round" stroke-width="0.25"/>
      <path id="Path_9450" data-name="Path 9450" d="M3377.45,368.049s3.206,3.035,4.122,5.783" transform="translate(-3329.352 -341.671)" fill="none" stroke="#000" stroke-linejoin="round" stroke-width="0.25"/>
      <path id="Path_9451" data-name="Path 9451" d="M3376.007,368.811s1.2,4.787,3.207,6.358" transform="translate(-3329.914 -341.374)" fill="none" stroke="#000" stroke-linejoin="round" stroke-width="0.25"/>
      <path id="Path_9452" data-name="Path 9452" d="M3380.579,365.166c-3.6-1.973-5.093-4.281-7.431-3.232-2.463,1.106-1.391,4.891-.589,8.107A8.431,8.431,0,0,0,3380.579,365.166Z" transform="translate(-3331.622 -344.154)" fill="#a5b63d" stroke="#231815" stroke-miterlimit="10" stroke-width="0.25"/>
    </g>
  </g>
</svg>
