<svg xmlns="http://www.w3.org/2000/svg" width="424.49" height="487.501" viewBox="0 0 424.49 487.501">
  <g id="Group_3717" data-name="Group 3717" transform="translate(-2806.482 -1276.737)">
    <g id="Group_3706" data-name="Group 3706" transform="translate(2818.317 1623.773)">
      <ellipse id="Ellipse_2136" data-name="Ellipse 2136" cx="3.403" cy="1.715" rx="3.403" ry="1.715" transform="translate(21.604 1.691)" fill="#ecb36f" stroke="#000" stroke-linejoin="round" stroke-width="0.25"/>
      <ellipse id="Ellipse_2137" data-name="Ellipse 2137" cx="6.076" cy="2.066" rx="6.076" ry="2.066" transform="translate(4.267 15.288)" fill="#ecb36f" stroke="#000" stroke-linejoin="round" stroke-width="0.25"/>
      <ellipse id="Ellipse_2138" data-name="Ellipse 2138" cx="4.456" cy="2.512" rx="4.456" ry="2.512" transform="translate(39.104 73.863)" fill="#c19165" stroke="#000" stroke-linejoin="round" stroke-width="0.25"/>
      <ellipse id="Ellipse_2139" data-name="Ellipse 2139" cx="5.185" cy="3.16" rx="5.185" ry="3.16" transform="translate(53.687 80.182)" fill="#ecb36f" stroke="#000" stroke-linejoin="round" stroke-width="0.25"/>
      <ellipse id="Ellipse_2140" data-name="Ellipse 2140" cx="4.051" cy="2.431" rx="4.051" ry="2.431" transform="translate(91.322 113.886)" fill="#c19165" stroke="#000" stroke-linejoin="round" stroke-width="0.25"/>
      <ellipse id="Ellipse_2141" data-name="Ellipse 2141" cx="5.397" cy="2.903" rx="5.397" ry="2.903" transform="translate(211.729 98.33)" fill="#c19165" stroke="#000" stroke-linejoin="round" stroke-width="0.25"/>
      <ellipse id="Ellipse_2142" data-name="Ellipse 2142" cx="3.565" cy="1.782" rx="3.565" ry="1.782" transform="translate(304.857 56.363)" fill="#ecb36f" stroke="#000" stroke-linejoin="round" stroke-width="0.25"/>
      <ellipse id="Ellipse_2143" data-name="Ellipse 2143" cx="3.241" cy="2.268" rx="3.241" ry="2.268" transform="translate(356.864 102.543)" fill="#c19165" stroke="#000" stroke-linejoin="round" stroke-width="0.25"/>
      <ellipse id="Ellipse_2144" data-name="Ellipse 2144" cx="4.051" cy="2.106" rx="4.051" ry="2.106" transform="translate(366.748 110.159)" fill="#ecb36f" stroke="#000" stroke-linejoin="round" stroke-width="0.25"/>
      <ellipse id="Ellipse_2145" data-name="Ellipse 2145" cx="5.347" cy="2.512" rx="5.347" ry="2.512" transform="translate(381.493 33.354)" fill="#c19165" stroke="#000" stroke-linejoin="round" stroke-width="0.25"/>
      <ellipse id="Ellipse_2146" data-name="Ellipse 2146" cx="2.431" cy="1.377" rx="2.431" ry="1.377" transform="translate(375.822 27.035)" fill="#ecb36f" stroke="#000" stroke-linejoin="round" stroke-width="0.25"/>
      <ellipse id="Ellipse_2147" data-name="Ellipse 2147" cx="4.537" cy="1.539" rx="4.537" ry="1.539" transform="translate(380.683 6.295)" fill="#ecb36f" stroke="#000" stroke-linejoin="round" stroke-width="0.25"/>
      <path id="Path_13125" data-name="Path 13125" d="M3086.683,1532.616s7.723-2.97,13.664.81,11.018-3.565,20.85.865" transform="translate(-2708.592 -1531.507)" fill="none" stroke="#000" stroke-miterlimit="10" stroke-width="0.25"/>
      <path id="Path_13126" data-name="Path 13126" d="M3048.12,1568.878a20.721,20.721,0,0,1,12.99,0c6.482,2.4,5.833-1.052,11.883,1.54s9.4-2.378,15.069.863" transform="translate(-2720.018 -1520.752)" fill="none" stroke="#000" stroke-miterlimit="10" stroke-width="0.25"/>
      <path id="Path_13127" data-name="Path 13127" d="M3074.433,1565.535a15.863,15.863,0,0,1,10.532,1.944c4.861,3.079,10.694-4.213,17.014,0" transform="translate(-2712.221 -1521.486)" fill="none" stroke="#000" stroke-miterlimit="10" stroke-width="0.25"/>
      <path id="Path_13128" data-name="Path 13128" d="M2994.933,1591.085a17.585,17.585,0,0,1,16.2-1.135c8.912,3.889,13.773-3.889,24.629,1.135s18.472-4.861,28.113,1.134" transform="translate(-2742.907 -1514.63)" fill="none" stroke="#000" stroke-miterlimit="10" stroke-width="0.25"/>
      <path id="Path_13129" data-name="Path 13129" d="M2937.808,1620.644s9.289-4,15.663,0,19.876-5.185,27.222,0" transform="translate(-2767.097 -1505.625)" fill="none" stroke="#000" stroke-miterlimit="10" stroke-width="0.25"/>
      <path id="Path_13130" data-name="Path 13130" d="M2913.391,1638.861a17.763,17.763,0,0,1,14.583.648c7.561,3.889,10.8-4.537,20.093,0" transform="translate(-2777.03 -1500.076)" fill="none" stroke="#000" stroke-miterlimit="10" stroke-width="0.25"/>
      <path id="Path_13131" data-name="Path 13131" d="M2848.891,1607.385s3.781-3.889,10.587,0,9.289-4.321,18.255-.864,11.342-4.339,21.443,1.935" transform="translate(-2805.79 -1509.541)" fill="none" stroke="#000" stroke-miterlimit="10" stroke-width="0.25"/>
      <path id="Path_13132" data-name="Path 13132" d="M2876.808,1599.333s11.233-4.213,17.607,0,15.444-4.248,22.253-.936" transform="translate(-2791.39 -1511.967)" fill="none" stroke="#000" stroke-miterlimit="10" stroke-width="0.25"/>
      <path id="Path_13133" data-name="Path 13133" d="M2815.641,1555.577s8.426-4.97,15.987,0,13.072-5.185,21.064,0" transform="translate(-2815.641 -1525.031)" fill="none" stroke="#000" stroke-miterlimit="10" stroke-width="0.25"/>
      <path id="Path_13134" data-name="Path 13134" d="M2833.558,1548.431a8.185,8.185,0,0,1,7.237-.648c3.782,1.633,6.7-1.959,10.478,0" transform="translate(-2810.333 -1526.864)" fill="none" stroke="#000" stroke-miterlimit="10" stroke-width="0.25"/>
    </g>
    <g id="Group_3707" data-name="Group 3707" transform="translate(2942.615 1618.416)">
      <path id="Path_13135" data-name="Path 13135" d="M2902.582,1628.524c-1.727-1.067,1.523-5.185,1.523-5.185s-4.969-1.837,1.08-5.941c0,0-5.131-3.457,3.187-6.805,0,0-3.727-4.213,6.968-7.4,0,0-4.322-3.066,5.725-6.745,0,0-2.808-1.843,2.917-5.354,0,0-3.024-1.242,2.647-4.213,0,0,16.8-39.267,35.378-49.961s33.648-9.506,33.648-9.506l30.732,5.779s7.508,33.164-.594,27.221c0,0,.594,10.37-3.348,5.833,0,0-.054,10.425-5.132,7.022,0,0-3.889,13.611-7.668,8.371,0,0-2.593,14.421-6.428,7.453,0,0-6.048,11.937-8.426,5.132,0,0-5.725,12.908-9.127,6.319,0,0-5.4,9.4-6.537,2.322,0,0-6.8,8.373-8.1,2.485,0,0-6.536,7.885-8.264,1.944,0,0-7.832,8.588-9.236,2.161,0,0-5.94,7.778-7.67,2.7,0,0-7.292,8.264-7.993,2.647,0,0-8.642,8.7-9.452,2.862,0,0-8.426,7.508-8.588,1.837,0,0-7.778,7.021-7.832,3.024C2911.99,1622.528,2905.38,1630.252,2902.582,1628.524Z" transform="translate(-2902.076 -1527.375)" fill="#ddd658" stroke="#000" stroke-linejoin="round" stroke-width="0.25"/>
      <path id="Path_13136" data-name="Path 13136" d="M2902.466,1627.194s19.887-29.061,55.319-50.448,37.161-37.915,68.486-44.882" transform="translate(-2901.96 -1526.045)" fill="none" stroke="#000" stroke-miterlimit="10" stroke-width="0.25"/>
      <path id="Path_13137" data-name="Path 13137" d="M2917.6,1596.584s4.589-6.361,3.51-11.174" transform="translate(-2897.477 -1510.18)" fill="none" stroke="#000" stroke-miterlimit="10" stroke-width="0.25"/>
      <path id="Path_13138" data-name="Path 13138" d="M2912.474,1591.453s5.078-6.043,10.154-6.043" transform="translate(-2898.995 -1510.18)" fill="none" stroke="#000" stroke-miterlimit="10" stroke-width="0.25"/>
      <path id="Path_13139" data-name="Path 13139" d="M2928.141,1594.742s5.233-11.591,3.291-18.245" transform="translate(-2894.353 -1512.821)" fill="none" stroke="#000" stroke-miterlimit="10" stroke-width="0.25"/>
      <path id="Path_13140" data-name="Path 13140" d="M2920.1,1582.62s8.588-7.3,13.716-6.092" transform="translate(-2896.736 -1512.852)" fill="none" stroke="#000" stroke-miterlimit="10" stroke-width="0.25"/>
      <path id="Path_13141" data-name="Path 13141" d="M2926.266,1572.516a33.266,33.266,0,0,1,17.91-2.76" transform="translate(-2894.909 -1514.9)" fill="none" stroke="#000" stroke-miterlimit="10" stroke-width="0.25"/>
      <path id="Path_13142" data-name="Path 13142" d="M2936.558,1590.067s5.858-13.58,4.569-20.374" transform="translate(-2891.86 -1514.837)" fill="none" stroke="#000" stroke-miterlimit="10" stroke-width="0.25"/>
      <path id="Path_13143" data-name="Path 13143" d="M2945.266,1589.294a65.885,65.885,0,0,0,4.8-25.2" transform="translate(-2889.279 -1516.496)" fill="none" stroke="#000" stroke-miterlimit="10" stroke-width="0.25"/>
      <path id="Path_13144" data-name="Path 13144" d="M2935.474,1560.663s14.058-.734,17.5,4.455" transform="translate(-2892.181 -1517.523)" fill="none" stroke="#000" stroke-miterlimit="10" stroke-width="0.25"/>
      <path id="Path_13145" data-name="Path 13145" d="M2941.933,1553.169s12.558-.993,22.159,4.851" transform="translate(-2890.267 -1519.751)" fill="none" stroke="#000" stroke-miterlimit="10" stroke-width="0.25"/>
      <path id="Path_13146" data-name="Path 13146" d="M2953.808,1586.829s9.505-15.447,6.765-29.932" transform="translate(-2886.749 -1518.628)" fill="none" stroke="#000" stroke-miterlimit="10" stroke-width="0.25"/>
      <path id="Path_13147" data-name="Path 13147" d="M2948.976,1547.29s15.432-4.2,25.268,2.381" transform="translate(-2888.181 -1521.866)" fill="none" stroke="#000" stroke-miterlimit="10" stroke-width="0.25"/>
      <path id="Path_13148" data-name="Path 13148" d="M2962.141,1584.559s11.99-18.189,8.2-35.734" transform="translate(-2884.281 -1521.019)" fill="none" stroke="#000" stroke-miterlimit="10" stroke-width="0.25"/>
      <path id="Path_13149" data-name="Path 13149" d="M2955.058,1539.871s17.717-4.274,28.249,2.616" transform="translate(-2886.378 -1524.061)" fill="none" stroke="#000" stroke-miterlimit="10" stroke-width="0.25"/>
      <path id="Path_13150" data-name="Path 13150" d="M2973.141,1576.646s11.019-12.18,4.808-35.057" transform="translate(-2881.021 -1523.163)" fill="none" stroke="#000" stroke-miterlimit="10" stroke-width="0.25"/>
      <path id="Path_13151" data-name="Path 13151" d="M2964.724,1534.057s18.321-4.879,34.547.153" transform="translate(-2883.515 -1526.024)" fill="none" stroke="#000" stroke-miterlimit="10" stroke-width="0.25"/>
      <path id="Path_13152" data-name="Path 13152" d="M2983.464,1567.348s12.868-16.828,10.255-33.658" transform="translate(-2877.962 -1525.503)" fill="none" stroke="#000" stroke-miterlimit="10" stroke-width="0.25"/>
    </g>
    <g id="Group_3708" data-name="Group 3708" transform="translate(2994.707 1280.466)">
      <path id="Path_13153" data-name="Path 13153" d="M3034.888,1279.645c-1.977-.149-3.426,5.466-3.426,5.466s-.335-4.6-2.368-3.408-4.078,7.39-4.078,7.39-2.389-4.807-7.551,5.007c0,0-3.433-5.287-7.757,5.455,0,0-5.383-7.536-11.345,7.643,0,0-7.063-5.929-11.309,9.73,0,0-5.363-4.823-5.6,9.976,0,0-5.339-4.091-6.933,10.714,0,0-5.27-4.239-6.369,12.238,0,0-5.569-4.376-7.534,11.431,0,0-5.122-4.17-4.158,14.886,0,0-6.956-4.114-7.946,12.323,0,0-4.937-3.249-5.1,8.68,0,0-4.415-1.958-1.218,8.733,0,0-6.667.359,2.01,17.869,0,0,21.291-8.077,55.344-32.884s35.9-45.335,30.149-41.667c0,0,7.451-7.526,2.56-7.373,0,0,6.9-10.865.229-8.656,0,0,9.6-11.2,3.68-10.815,0,0,6.121-10.23.095-9.307,0,0,7.7-12.665-.061-10.734,0,0,6.66-10.614,1.675-10.385,0,0,2.128-5.3-1.38-4.25C3036.5,1287.706,3037.812,1279.865,3034.888,1279.645Z" transform="translate(-2939.75 -1279.642)" fill="#cad226" stroke="#231815" stroke-miterlimit="10" stroke-width="0.25"/>
      <path id="Path_13154" data-name="Path 13154" d="M3030.146,1279.644s-3.425,26.608-25.39,54.236-35.939,49.1-49,68.005" transform="translate(-2935.008 -1279.641)" fill="none" stroke="#000" stroke-miterlimit="10" stroke-width="0.25"/>
      <path id="Path_13155" data-name="Path 13155" d="M3003.758,1293.26s.206,7.438,3.485,9.459" transform="translate(-2920.786 -1275.607)" fill="none" stroke="#000" stroke-miterlimit="10" stroke-width="0.25"/>
      <path id="Path_13156" data-name="Path 13156" d="M3013.732,1296.4s-.928,4.3-7.287,5.391" transform="translate(-2919.989 -1274.677)" fill="none" stroke="#000" stroke-miterlimit="10" stroke-width="0.25"/>
      <path id="Path_13157" data-name="Path 13157" d="M2998.668,1296.493s-1.715,10.181,3.455,17.968" transform="translate(-2922.374 -1274.649)" fill="none" stroke="#000" stroke-miterlimit="10" stroke-width="0.25"/>
      <path id="Path_13158" data-name="Path 13158" d="M3013.31,1303.821s-5.482,7.216-12.039,8.468" transform="translate(-2921.522 -1272.478)" fill="none" stroke="#000" stroke-miterlimit="10" stroke-width="0.25"/>
      <path id="Path_13159" data-name="Path 13159" d="M2993.094,1303.406s-1.557,10.513,3.854,19.252" transform="translate(-2924.007 -1272.601)" fill="none" stroke="#000" stroke-miterlimit="10" stroke-width="0.25"/>
      <path id="Path_13160" data-name="Path 13160" d="M3011.766,1311.569s-7.736,9.034-15.747,8.671" transform="translate(-2923.078 -1270.182)" fill="none" stroke="#000" stroke-miterlimit="10" stroke-width="0.25"/>
      <path id="Path_13161" data-name="Path 13161" d="M2986.015,1307.639s-3.548,15.4,4.245,25.293" transform="translate(-2926.281 -1271.347)" fill="none" stroke="#000" stroke-miterlimit="10" stroke-width="0.25"/>
      <path id="Path_13162" data-name="Path 13162" d="M3010.748,1322.647s-7.172,9.258-21.642,5.838" transform="translate(-2925.127 -1266.901)" fill="none" stroke="#000" stroke-miterlimit="10" stroke-width="0.25"/>
      <path id="Path_13163" data-name="Path 13163" d="M2976.356,1319.363s-2.459,14.2,5.43,24.921" transform="translate(-2929.011 -1267.873)" fill="none" stroke="#000" stroke-miterlimit="10" stroke-width="0.25"/>
      <path id="Path_13164" data-name="Path 13164" d="M3006.979,1333.7s-15.742,11.3-26.517,6.339" transform="translate(-2927.688 -1263.626)" fill="none" stroke="#000" stroke-miterlimit="10" stroke-width="0.25"/>
      <path id="Path_13165" data-name="Path 13165" d="M2969.721,1329.664s-1.723,15.2,4.693,24.439" transform="translate(-2930.932 -1264.821)" fill="none" stroke="#000" stroke-miterlimit="10" stroke-width="0.25"/>
      <path id="Path_13166" data-name="Path 13166" d="M3001.336,1344.49s-14.6,10.243-28.042,5.22" transform="translate(-2929.812 -1260.429)" fill="none" stroke="#000" stroke-miterlimit="10" stroke-width="0.25"/>
      <path id="Path_13167" data-name="Path 13167" d="M2960.88,1341.074s-2.086,15.742,4.629,26.281" transform="translate(-2933.58 -1261.441)" fill="none" stroke="#000" stroke-miterlimit="10" stroke-width="0.25"/>
      <path id="Path_13168" data-name="Path 13168" d="M2997.136,1354.112s-19.469,12.882-32.755,9.38" transform="translate(-2932.452 -1257.578)" fill="none" stroke="#000" stroke-miterlimit="10" stroke-width="0.25"/>
      <path id="Path_13169" data-name="Path 13169" d="M2955.376,1356.843a23.222,23.222,0,0,0,4.156,16.946" transform="translate(-2935.196 -1256.769)" fill="none" stroke="#000" stroke-miterlimit="10" stroke-width="0.25"/>
    </g>
    <g id="Group_3709" data-name="Group 3709" transform="translate(2922.642 1370.432)">
      <path id="Path_13170" data-name="Path 13170" d="M2925.6,1361.24c-16.679,11.686-35.319,39.443-39.052,71.028s31.006,96.482,102.221,89.3,80.4-76.668,78.393-98.491-9.958-52.19-54.368-67.444S2954.029,1341.324,2925.6,1361.24Z" transform="translate(-2886.277 -1345.135)" fill="#e86a58" stroke="#000" stroke-linejoin="round" stroke-width="0.25"/>
      <path id="Path_13171" data-name="Path 13171" d="M2920.389,1371.892c.8-2.757,6.461-6.891,8.9-6.031s.958,4.4,1.627,6.509,4.978,3.829,6.988,7.561,7.9,6.781,8.189,12.141a25.726,25.726,0,0,1-3.642,3.434,26.306,26.306,0,0,0-5.028-8.587c-3.636-4.117-4.5-6.126-7.083-8.519s-2.3-3.255-5.264-3.924S2920.007,1373.209,2920.389,1371.892Z" transform="translate(-2876.184 -1339.028)" fill="#6d4a32" stroke="#000" stroke-linejoin="round" stroke-width="0.25"/>
      <path id="Path_13172" data-name="Path 13172" d="M2947.248,1376.45s0,12.8-13.854,18.9" transform="translate(-2872.318 -1335.857)" fill="none" stroke="#000" stroke-miterlimit="10" stroke-width="0.25"/>
      <ellipse id="Ellipse_2148" data-name="Ellipse 2148" cx="2.297" cy="1.723" rx="2.297" ry="1.723" transform="translate(26.573 63.941) rotate(-52.207)" fill="#dffffa" stroke="#231815" stroke-miterlimit="10" stroke-width="0.25"/>
      <ellipse id="Ellipse_2149" data-name="Ellipse 2149" cx="5.599" cy="3.661" rx="5.599" ry="3.661" transform="translate(26.848 79.137) rotate(-73.718)" fill="#dffffa" stroke="#231815" stroke-miterlimit="10" stroke-width="0.25"/>
      <ellipse id="Ellipse_2150" data-name="Ellipse 2150" cx="3.947" cy="4.451" rx="3.947" ry="4.451" transform="matrix(0.824, -0.567, 0.567, 0.824, 148.481, 45.79)" fill="#dffffa" stroke="#231815" stroke-miterlimit="10" stroke-width="0.25"/>
      <ellipse id="Ellipse_2151" data-name="Ellipse 2151" cx="2.714" cy="3.552" rx="2.714" ry="3.552" transform="matrix(0.824, -0.567, 0.567, 0.824, 163.874, 51.537)" fill="#dffffa" stroke="#231815" stroke-miterlimit="10" stroke-width="0.25"/>
    </g>
    <g id="Group_3710" data-name="Group 3710" transform="translate(2806.609 1507.755)">
      <path id="Path_13173" data-name="Path 13173" d="M2806.867,1448.248c-1.329,1.1,2.917,4.7,2.917,4.7s-4.537,4.429,3.564,9.507c0,0-4.213,2.484,3.565,5.617,0,0-1.945,2.161,4,3.781,0,0-2.809,2.808,4.213,6.589,0,0-2.376,2.376,3.672,5.941,0,0-3.24,2.377,4,4.429,0,0-2.161,3.889,8.1,5.4,0,0-3.133,3.024,5.617,4.861,0,0-2.523,3.565,6.192,4.969,0,0-3.707,2.485,5.15,4.753,0,0-2.052,2.376,5.4,3.348,0,0-3.889,3.457,7.453,4.213,0,0-2.161,3.348,4.969,3.348,0,0-3.458,2.593,5.077,3.781,0,0-3.24,3.024,7.345,2.593l48.719-23.116,4.645-19.013s-1.636-4.932-2.908-2.533c0,0-2.277-5.352-3.25-2,0,0-3.8-6.805-4.44-2.485,0,0-4.958-9.613-6.362-4.321,0,0-4.484-6.374-5.1-1.944,0,0-4.293-6.7-5.158-2.161,0,0-5.4-6.589-5.509-1.4,0,0-8.966-7.346-7.67-1.3,0,0-6.048-4.861-5.185-.541,0,0-5.725-5.293-4.969-.539,0,0-7.454-5.294-5.941-.216,0,0-7.022-6.913-6.05-.972,0,0-5.617-5.726-5.509-.648,0,0-6.805-5.185-6.265.756,0,0-6.7-4.969-6.374,0,0,0-7.237-7.129-7.022-1.187,0,0-8.641-7.778-8.1-2.917,0,0-6.373-7.346-6.805-1.837,0,0-7.13-8.209-7.562-2.7,0,0-11.235-10.046-10.586-3.889,0,0-6.482-4.97-6.7-1.837C2814,1449.275,2809.027,1446.466,2806.867,1448.248Z" transform="translate(-2806.609 -1447.656)" fill="#cad226" stroke="#231815" stroke-miterlimit="10" stroke-width="0.25"/>
      <path id="Path_13174" data-name="Path 13174" d="M2806.808,1448.113s25.26,16.413,43.264,33.169c19.768,18.4,47.843,21.433,86.688,21.545" transform="translate(-2806.551 -1447.521)" fill="none" stroke="#000" stroke-miterlimit="10" stroke-width="0.25"/>
      <path id="Path_13175" data-name="Path 13175" d="M2815.808,1460.13s5.631.807,8.811-.892" transform="translate(-2803.884 -1444.225)" fill="none" stroke="#000" stroke-miterlimit="10" stroke-width="0.25"/>
      <path id="Path_13176" data-name="Path 13176" d="M2819.745,1453.551s3.61,3.2,3.707,7.372" transform="translate(-2802.718 -1445.91)" fill="none" stroke="#000" stroke-miterlimit="10" stroke-width="0.25"/>
      <path id="Path_13177" data-name="Path 13177" d="M2820.87,1465.986s7.971,2.473,13.06-.262" transform="translate(-2802.384 -1442.303)" fill="none" stroke="#000" stroke-miterlimit="10" stroke-width="0.25"/>
      <path id="Path_13178" data-name="Path 13178" d="M2828.62,1457.926s3.833,5.4,3.013,10.108" transform="translate(-2800.088 -1444.613)" fill="none" stroke="#000" stroke-miterlimit="10" stroke-width="0.25"/>
      <path id="Path_13179" data-name="Path 13179" d="M2826.683,1473.113s9.965,4.845,17.5.762" transform="translate(-2800.662 -1440.114)" fill="none" stroke="#000" stroke-miterlimit="10" stroke-width="0.25"/>
      <path id="Path_13180" data-name="Path 13180" d="M2837.495,1464.113s4.038,6.353,3.484,12.429" transform="translate(-2797.458 -1442.78)" fill="none" stroke="#000" stroke-miterlimit="10" stroke-width="0.25"/>
      <path id="Path_13181" data-name="Path 13181" d="M2837.058,1482.272s11.192,1.868,16.452-1.6" transform="translate(-2797.588 -1437.876)" fill="none" stroke="#000" stroke-miterlimit="10" stroke-width="0.25"/>
      <path id="Path_13182" data-name="Path 13182" d="M2846.62,1466.988s5.743,9.332,4.057,17.732" transform="translate(-2794.755 -1441.928)" fill="none" stroke="#000" stroke-miterlimit="10" stroke-width="0.25"/>
      <path id="Path_13183" data-name="Path 13183" d="M2848.305,1491.747s12.767,1.489,16.715-6.237" transform="translate(-2794.256 -1436.44)" fill="none" stroke="#000" stroke-miterlimit="10" stroke-width="0.25"/>
      <path id="Path_13184" data-name="Path 13184" d="M2855.058,1471.176s8.435,9.141,7.961,18.582" transform="translate(-2792.255 -1440.688)" fill="none" stroke="#000" stroke-miterlimit="10" stroke-width="0.25"/>
      <path id="Path_13185" data-name="Path 13185" d="M2859.62,1496.288s15.374-1.408,18.949-7.874" transform="translate(-2790.904 -1435.58)" fill="none" stroke="#000" stroke-miterlimit="10" stroke-width="0.25"/>
      <path id="Path_13186" data-name="Path 13186" d="M2865.183,1472.176s11.9,8.912,11.738,21.049" transform="translate(-2789.256 -1440.391)" fill="none" stroke="#000" stroke-miterlimit="10" stroke-width="0.25"/>
      <path id="Path_13187" data-name="Path 13187" d="M2869.245,1500.9s12.563-2.082,19.2-11.371" transform="translate(-2788.052 -1435.25)" fill="none" stroke="#000" stroke-miterlimit="10" stroke-width="0.25"/>
      <path id="Path_13188" data-name="Path 13188" d="M2877.979,1470.3s10.312,14.964,7.882,24.925" transform="translate(-2785.464 -1440.947)" fill="none" stroke="#000" stroke-miterlimit="10" stroke-width="0.25"/>
    </g>
    <g id="Group_3711" data-name="Group 3711" transform="translate(2832.28 1424.731)">
      <path id="Path_13189" data-name="Path 13189" d="M2827.735,1385.746c1.115-.348,2.43,2.026,2.43,2.026s1.376-2.836,3.727,1.7c0,0,2.349-2.673,4.618,5.833,0,0,3.078-4.779,6.725,9.318,0,0,2.835-4.861,8.426,8.506,0,0,2.349-3.888,6.724,5.51,0,0,1.216-5.023,5.753,4.051,0,0,1.783-4.942,5.51,1.54,0,0,1.458-4.295,5.589,2.673,0,0,1.775-6.433,8.422,3.306,0,0,.814-4.358,7.377,3.582,0,0,0-5.833,8.264,4.131,0,0,.972-4.375,6.886,4.213,0,0,.973-6.319,5.591,4.861,0,0,2.43-5.348,5.751,5.671,0,0,1.945-2.917,3.565,3.484,0,0,3.078-3.241,5.428,6.075,0,0,2.187-3.4,3.646,5.591,0,0,1.54-2.836,2.917,4.131,0,0,1.62-3,2.674,4.213,0,0,1.945-3.321,3,4.457,0,0,2.593-3.16,3.727,5.509,0,0,1.62-1.944,2.107,3.079,0,0,2.025-2.123,2.188,2.745,0,0,1.377-2.827,1.782,4.222l-7.049,9.56-73.158-22.281s-8.333-9.56-2.182-9.4c0,0-8.027-4.617-3.328-5.427,0,0-6.725-4.7-2.512-5.1,0,0-8.182-4.537-4.293-5.185,0,0-7.454-5.427-3.4-6,0,0-7.129-5.914-2.512-6.238,0,0-6.806-4.457-2.917-4.861,0,0-8.993-6.481-4.293-7.211,0,0-7.373-5.671-3.16-6,0,0-7.94-5.752-3.807-6.157,0,0-6.887-6.886-3-7.129,0,0-6.724-7.7-2.593-7.372,0,0-6.075-4.943-2.43-4.861,0,0-4.78-5.591-1.214-5.1,0,0-4.294-5.833-.892-4.941,0,0-2.593-4.375-.729-4.051C2827.087,1388.42,2826.439,1386.152,2827.735,1385.746Z" transform="translate(-2826.413 -1385.711)" fill="#ddd658" stroke="#000" stroke-linejoin="round" stroke-width="0.25"/>
      <path id="Path_13190" data-name="Path 13190" d="M2917.135,1497.785c-6.277-13.152-27.86-34.595-49.269-50.15s-40.433-61.9-40.433-61.9" transform="translate(-2826.111 -1385.703)" fill="none" stroke="#000" stroke-miterlimit="10" stroke-width="0.25"/>
      <path id="Path_13191" data-name="Path 13191" d="M2832.641,1403.28s3.23,3.343,5.882,3.184" transform="translate(-2824.568 -1380.506)" fill="none" stroke="#000" stroke-miterlimit="10" stroke-width="0.25"/>
      <path id="Path_13192" data-name="Path 13192" d="M2837.561,1401.572s1.184,1.492-.383,5.4" transform="translate(-2823.223 -1381.012)" fill="none" stroke="#000" stroke-miterlimit="10" stroke-width="0.25"/>
      <path id="Path_13193" data-name="Path 13193" d="M2837.179,1411.822s3.7,3.583,6.525,3.141" transform="translate(-2823.223 -1377.975)" fill="none" stroke="#000" stroke-miterlimit="10" stroke-width="0.25"/>
      <path id="Path_13194" data-name="Path 13194" d="M2842.213,1406.405s2.607,7.022,0,10.163" transform="translate(-2821.732 -1379.58)" fill="none" stroke="#000" stroke-miterlimit="10" stroke-width="0.25"/>
      <path id="Path_13195" data-name="Path 13195" d="M2841.224,1419.4a13.681,13.681,0,0,0,9.134,4.576" transform="translate(-2822.025 -1375.728)" fill="none" stroke="#000" stroke-miterlimit="10" stroke-width="0.25"/>
      <path id="Path_13196" data-name="Path 13196" d="M2848.27,1413.048s3.189,10.458,0,12.816" transform="translate(-2819.937 -1377.612)" fill="none" stroke="#000" stroke-miterlimit="10" stroke-width="0.25"/>
      <path id="Path_13197" data-name="Path 13197" d="M2846.891,1428.155s5.129,3.605,10.4,2.883" transform="translate(-2820.346 -1373.136)" fill="none" stroke="#000" stroke-miterlimit="10" stroke-width="0.25"/>
      <path id="Path_13198" data-name="Path 13198" d="M2856.29,1419.905s1.959,9.835-1.378,13.577" transform="translate(-2817.97 -1375.58)" fill="none" stroke="#000" stroke-miterlimit="10" stroke-width="0.25"/>
      <path id="Path_13199" data-name="Path 13199" d="M2852.808,1437.822a23.053,23.053,0,0,0,17.2,1.784" transform="translate(-2818.593 -1370.272)" fill="none" stroke="#000" stroke-miterlimit="10" stroke-width="0.25"/>
      <path id="Path_13200" data-name="Path 13200" d="M2864.724,1423.405s4.105,13.935,1.75,20.472" transform="translate(-2815.062 -1374.543)" fill="none" stroke="#000" stroke-miterlimit="10" stroke-width="0.25"/>
      <path id="Path_13201" data-name="Path 13201" d="M2859.441,1445.155s12.181,5.974,21.342,3.242" transform="translate(-2816.627 -1368.099)" fill="none" stroke="#000" stroke-miterlimit="10" stroke-width="0.25"/>
      <path id="Path_13202" data-name="Path 13202" d="M2875.906,1428.155s3.8,17.283,0,25.279" transform="translate(-2811.75 -1373.136)" fill="none" stroke="#000" stroke-miterlimit="10" stroke-width="0.25"/>
      <path id="Path_13203" data-name="Path 13203" d="M2863.641,1453.822s14.181,6.453,26.265,2.146" transform="translate(-2815.383 -1365.531)" fill="none" stroke="#000" stroke-miterlimit="10" stroke-width="0.25"/>
      <path id="Path_13204" data-name="Path 13204" d="M2885.724,1435.822s4.428,14.266-1.822,25.479" transform="translate(-2809.38 -1370.865)" fill="none" stroke="#000" stroke-miterlimit="10" stroke-width="0.25"/>
      <path id="Path_13205" data-name="Path 13205" d="M2893.608,1442.905s1.78,17.846-3.139,25.929" transform="translate(-2807.434 -1368.766)" fill="none" stroke="#000" stroke-miterlimit="10" stroke-width="0.25"/>
      <path id="Path_13206" data-name="Path 13206" d="M2900.717,1450.155s3.674,14.529-2.159,26.115" transform="translate(-2805.038 -1366.618)" fill="none" stroke="#000" stroke-miterlimit="10" stroke-width="0.25"/>
      <path id="Path_13207" data-name="Path 13207" d="M2908.9,1460.822s1.891,11.558-5.158,19.659" transform="translate(-2803.501 -1363.458)" fill="none" stroke="#000" stroke-miterlimit="10" stroke-width="0.25"/>
    </g>
    <g id="Group_3712" data-name="Group 3712" transform="translate(2979.69 1355.565)">
      <path id="Path_13208" data-name="Path 13208" d="M2928.059,1383.04c-.127-1.69,3.829-4.5,6.6-3.254s12.922,1.531,15.793-2.01,4.475-8.687,6.413-7.969c0,0,1.722-4.809,3.015-3.445,0,0,2.081-4.594,3.589-2.656,0,0,2.279-4.361,3.983-2.262,0,0,3.088-4.558,4.7-4.773s1.256,1.471,1.256,1.471,3.624-5.133,6.209-5.527,1.364,2.118,1.364,2.118,4.881-5.277,6.712-5.277.9,2.118.9,2.118,5.851-6.676,8.471-6.389.574,2.871.574,2.871,4.667-5.1,7.5-4.773.9,2.691.9,2.691,3.553-4.809,5.922-4.99,2.333,1.8,1.939,2.37c0,0,4.45-3.267,7.285-2.62s1.15,3.05,1.15,3.05,3.732-2.512,5.635-2.082,1.184,2.4,1.184,2.4,3.23-2.906,5.313-2.512.861,2.189.861,2.189,2.656-2.62,4.452-2.62.968,1.579.968,1.579,2.981-2.215,4.165-2.095a.955.955,0,0,1,.9,1.234s2.225-2.871,3.841-3.482,2.226.574,1.831,1.327c0,0,3.589-4.845,4.774-4.486s-.646,7.107-3.015,9.26a2.537,2.537,0,0,1,.682,3.123c-.826,2.082-5.994,4.882-5.994,4.882s1.723.286.5,2.009-4.774,2.872-4.774,2.872,1.866.471,1.328,1.742-5.815,3.57-5.815,3.57,2.548,1.974-.108,3.876-7.574,2.477-7.574,2.477,1.939,1.148-.215,2.583-5.456,1.077-5.456,1.077,1.939,1.077,1.041,2.512-4.665,1.114-4.665,1.114,1.651,1.758-1.4,3.123-7.824.717-7.824.717,2.332,2.944-1.006,4.488-8.936-.18-8.936-.18,1.471,1.974-1.867,2.548-7.718-1.364-7.718-1.364.5,2.153-2.4,2.871-7.179-2.01-7.179-2.01-.574,2.333-5.6,0c0,0,.215,1.15-2.512,1.15s-5.852-4.092-5.852-4.092-.61,1.256-2.979,1.077-4.882-3.2-4.882-3.2-1.219,2.979-3.516,1.58a10.4,10.4,0,0,1-3.278-2.98,15.6,15.6,0,0,1-10.385,4.212c-6.461.1-8.423-2.3-11.2-1.867a2.716,2.716,0,0,0-2.489,2.967S2928.25,1385.576,2928.059,1383.04Z" transform="translate(-2928.056 -1335.223)" fill="#ddd658" stroke="#000" stroke-linejoin="round" stroke-width="0.25"/>
      <path id="Path_13209" data-name="Path 13209" d="M3050.088,1335.238s-6.258,14.68-29.42,21.381-41.541,3.637-71.787,19.526" transform="translate(-2921.886 -1335.219)" fill="none" stroke="#000" stroke-miterlimit="10" stroke-width="0.25"/>
      <path id="Path_13210" data-name="Path 13210" d="M3015.151,1343.277s-3.862,3.387-4.682,8.059" transform="translate(-2903.639 -1332.837)" fill="none" stroke="#000" stroke-miterlimit="10" stroke-width="0.25"/>
      <path id="Path_13211" data-name="Path 13211" d="M3019.315,1349.074s-4.672,2.1-8.846.545" transform="translate(-2903.639 -1331.12)" fill="none" stroke="#000" stroke-miterlimit="10" stroke-width="0.25"/>
      <path id="Path_13212" data-name="Path 13212" d="M3010.125,1344.5s-7.318,4.992-7.894,10.1" transform="translate(-2906.08 -1332.476)" fill="none" stroke="#000" stroke-miterlimit="10" stroke-width="0.25"/>
      <path id="Path_13213" data-name="Path 13213" d="M3013.619,1354.438s-6.494,1.491-11.388-2.147" transform="translate(-2906.08 -1330.167)" fill="none" stroke="#000" stroke-miterlimit="10" stroke-width="0.25"/>
      <path id="Path_13214" data-name="Path 13214" d="M3004.116,1345.714s-8.816,4.643-11.323,11.127" transform="translate(-2908.875 -1332.115)" fill="none" stroke="#000" stroke-miterlimit="10" stroke-width="0.25"/>
      <path id="Path_13215" data-name="Path 13215" d="M3007.179,1362.362s-10.434-.479-14.386-8.064" transform="translate(-2908.875 -1329.572)" fill="none" stroke="#000" stroke-miterlimit="10" stroke-width="0.25"/>
      <path id="Path_13216" data-name="Path 13216" d="M2994.936,1346.785s-9.862,4.5-11.057,11.581" transform="translate(-2911.517 -1331.798)" fill="none" stroke="#000" stroke-miterlimit="10" stroke-width="0.25"/>
      <path id="Path_13217" data-name="Path 13217" d="M3001.348,1367.4s-12.232.336-17.469-11.677" transform="translate(-2911.517 -1329.151)" fill="none" stroke="#000" stroke-miterlimit="10" stroke-width="0.25"/>
      <path id="Path_13218" data-name="Path 13218" d="M2988.185,1346.563s-11.058,4.914-14.311,14.254" transform="translate(-2914.481 -1331.864)" fill="none" stroke="#000" stroke-miterlimit="10" stroke-width="0.25"/>
      <path id="Path_13219" data-name="Path 13219" d="M2991.823,1371.35s-12.635-1.819-17.948-13.791" transform="translate(-2914.481 -1328.606)" fill="none" stroke="#000" stroke-miterlimit="10" stroke-width="0.25"/>
      <path id="Path_13220" data-name="Path 13220" d="M2974.829,1350.735s-8.894,5.719-9.664,11.882" transform="translate(-2917.061 -1330.627)" fill="none" stroke="#000" stroke-miterlimit="10" stroke-width="0.25"/>
      <path id="Path_13221" data-name="Path 13221" d="M2984.113,1374.628s-14.883-3.3-18.948-14.727" transform="translate(-2917.061 -1327.912)" fill="none" stroke="#000" stroke-miterlimit="10" stroke-width="0.25"/>
      <path id="Path_13222" data-name="Path 13222" d="M2963.641,1355.018s-5.522,4.121-5.943,9.886" transform="translate(-2919.274 -1329.359)" fill="none" stroke="#000" stroke-miterlimit="10" stroke-width="0.25"/>
      <path id="Path_13223" data-name="Path 13223" d="M2972.781,1375.442s-11.151-2.009-15.083-12.8" transform="translate(-2919.274 -1327.099)" fill="none" stroke="#000" stroke-miterlimit="10" stroke-width="0.25"/>
    </g>
    <g id="Group_3713" data-name="Group 3713" transform="translate(3149.972 1333.009)">
      <path id="Path_13224" data-name="Path 13224" d="M3130.189,1320.256c-1.081-.59-3.674,2.268-3.674,2.268s-.432-4-5.076,2.053c0,0-2.377-5.618-5.833,4,0,0-2.917-4.375-5.726,5.861,0,0-3.178-4.016-6.157,4.291,0,0-2.376-4.1-6.589,4.432l-46.274,117.475,26.1,19.174s14.017-9.614,7.644-10.262c0,0,8.318-7.184,2.268-7.157,0,0,12.639-8.291,5.293-9.587,0,0,8.966-7.109,4-7.767,0,0,8.858-5.844,3.672-7.464,0,0,10.752-10.478,3.433-11.234,0,0,7.585-6.914,2.293-7.562,0,0,9.073-7.364,3.455-8.651,0,0,7.994-7.559,2.7-7.447,0,0,8.209-11.231,2.917-11.015,0,0,7.345-12.1.756-10.587,0,0,7.994-11.667,1.189-10.8,0,0,9.4-11.235,1.62-10.911,0,0,6.265-8.426-.109-7.561,0,0,6.915-7.777,2.593-8.211,0,0,6.049-7.237,1.944-7.345,0,0,6.157-3.349,3.457-4.429,0,0,5.617-3.565,2.269-4.916C3128.352,1326.9,3132.565,1321.553,3130.189,1320.256Z" transform="translate(-3050.861 -1320.176)" fill="#cad226" stroke="#231815" stroke-miterlimit="10" stroke-width="0.25"/>
      <path id="Path_13225" data-name="Path 13225" d="M3122.255,1320.238s-29.059,26.682-44.614,68.379" transform="translate(-3042.927 -1320.158)" fill="none" stroke="#000" stroke-miterlimit="10" stroke-width="0.25"/>
      <path id="Path_13226" data-name="Path 13226" d="M3095.905,1334.486s-1.917,2.7-1,8" transform="translate(-3037.885 -1315.937)" fill="none" stroke="#000" stroke-miterlimit="10" stroke-width="0.25"/>
      <path id="Path_13227" data-name="Path 13227" d="M3101.6,1338.051a8.479,8.479,0,0,1-6.752,3.374" transform="translate(-3037.829 -1314.88)" fill="none" stroke="#000" stroke-miterlimit="10" stroke-width="0.25"/>
      <path id="Path_13228" data-name="Path 13228" d="M3101.085,1344.926s-5.245,6.38-12.425,6.836" transform="translate(-3039.662 -1312.844)" fill="none" stroke="#000" stroke-miterlimit="10" stroke-width="0.25"/>
      <path id="Path_13229" data-name="Path 13229" d="M3102.678,1354.072s-6.464,9.375-20.489,10.628" transform="translate(-3041.58 -1310.133)" fill="none" stroke="#000" stroke-miterlimit="10" stroke-width="0.25"/>
      <path id="Path_13230" data-name="Path 13230" d="M3101.317,1364.613s-8.912,9.8-20.822,11.5" transform="translate(-3042.081 -1307.01)" fill="none" stroke="#000" stroke-miterlimit="10" stroke-width="0.25"/>
      <path id="Path_13231" data-name="Path 13231" d="M3100.7,1375.566s-9.872,10.859-23.063,12.744" transform="translate(-3042.927 -1303.765)" fill="none" stroke="#000" stroke-miterlimit="10" stroke-width="0.25"/>
      <path id="Path_13232" data-name="Path 13232" d="M3097.162,1387.975s-9.872,10.858-23.063,12.742" transform="translate(-3043.976 -1300.089)" fill="none" stroke="#000" stroke-miterlimit="10" stroke-width="0.25"/>
      <path id="Path_13233" data-name="Path 13233" d="M3094.46,1402.176s-12.874,9.957-28.01,9.715" transform="translate(-3046.242 -1295.882)" fill="none" stroke="#000" stroke-miterlimit="10" stroke-width="0.25"/>
      <path id="Path_13234" data-name="Path 13234" d="M3090.676,1414.363s-13.513,8.3-29.775,7.621" transform="translate(-3047.886 -1292.271)" fill="none" stroke="#000" stroke-miterlimit="10" stroke-width="0.25"/>
      <path id="Path_13235" data-name="Path 13235" d="M3086.465,1424.575s-13.513,8.3-29.774,7.621" transform="translate(-3049.134 -1289.245)" fill="none" stroke="#000" stroke-miterlimit="10" stroke-width="0.25"/>
    </g>
    <g id="Group_3714" data-name="Group 3714" transform="translate(3112.681 1276.862)">
      <path id="Path_13236" data-name="Path 13236" d="M3110.68,1276.864c-1.617.1-4.7,6.481-4.861,7.777,0,0-3.889-2.916-4.051,5.753,0,0-3.16-2.107-3.484,5.751,0,0-3.4-1.134-3.241,6.643,0,0-3.321-1.052-2.268,6.805,0,0-3.079-2.835-3.321,6.239,0,0-2.593-1.7-3.4,5.914,0,0-3-3-3.4,4.943,0,0-2.674-3.565-3.727,7.372,0,0-2.674-3.241-3.809,4.457,0,0-3.241-3.369-4.7,5.768,0,0-3.645-4.532-5.751,6.395,0,0-4.943-3.089-5.915,8.253,0,0-3.969-2.917-4.051,8.264,0,0-3.321-2.026-2.917,6.562,0,0-3.889-2.835-4.213,6.319,0,0-3.4-3.159-3.321,6.887,0,0-4.457-2.188-3.241,8.506,0,0-4.456-2.268-3.646,7.049,0,0-3.807-3-2.187,6.157,0,0-3.646-.568-1.378,7.291,0,0-4.882-3.16-3.373,7.21,0,0-3.027-.81-2.379,9.966,0,0-10.856,34.594-3.24,45.774,0,0,26.736-4.914,36.944-6.751s16.852-10.425,13.125-10.587c0,0,8.059-6.319,5.406-7.129,0,0,5.53-6,1.8-6.724,0,0,9.8-6.805,4.375-7.616,0,0,11.5-8.831,4.942-9.074,0,0,10.937-9.966,3.889-10.046,0,0,10.451-8.183,2.755-8.426,0,0,10.774-7.778,5.671-9.56,0,0,8.344-8.67,2.754-8.67,0,0,5.1-7.94.486-6.886,0,0,7.21-11.018.242-9.56,0,0,4.619-7.373.486-6.968,0,0,5.671-8.588.568-7.94,0,0,3.483-8.346-.729-7.292,0,0,3.889-7.292-.811-6.481,0,0,6.32-8.183,1.621-8.669,0,0,5.509-11.261.082-9.074,0,0,3.159-9.8-1.54-8.344,0,0,4.457-9.236.082-8.021,0,0,4.131-8.426.567-8.182,0,0,4.295-6.4.892-6.725,0,0,3.807-7.615.81-6.886,0,0,3.645-3.808,1.134-4.132C3110.356,1289.178,3113.354,1276.7,3110.68,1276.864Z" transform="translate(-3022.093 -1276.862)" fill="#ddd658" stroke="#000" stroke-linejoin="round" stroke-width="0.25"/>
      <path id="Path_13237" data-name="Path 13237" d="M3080.13,1301.3s-1.983,8.986,1.317,13" transform="translate(-3005.073 -1269.621)" fill="none" stroke="#000" stroke-miterlimit="10" stroke-width="0.25"/>
      <path id="Path_13238" data-name="Path 13238" d="M3087.067,1303.738s-1.751,7.551-6.056,9.841" transform="translate(-3004.636 -1268.899)" fill="none" stroke="#000" stroke-miterlimit="10" stroke-width="0.25"/>
      <path id="Path_13239" data-name="Path 13239" d="M3075.614,1310.488s-4.349,16.456,1.229,20.178" transform="translate(-3006.714 -1266.899)" fill="none" stroke="#000" stroke-miterlimit="10" stroke-width="0.25"/>
      <path id="Path_13240" data-name="Path 13240" d="M3087.036,1316.926s-4.837,11.3-10.844,11.832" transform="translate(-3006.064 -1264.992)" fill="none" stroke="#000" stroke-miterlimit="10" stroke-width="0.25"/>
      <path id="Path_13241" data-name="Path 13241" d="M3068.376,1325.363s-2.87,19.592,1.968,23.65" transform="translate(-3008.631 -1262.492)" fill="none" stroke="#000" stroke-miterlimit="10" stroke-width="0.25"/>
      <path id="Path_13242" data-name="Path 13242" d="M3087.663,1331.176s-10.809,14.9-17.962,16.115" transform="translate(-3007.988 -1260.77)" fill="none" stroke="#000" stroke-miterlimit="10" stroke-width="0.25"/>
      <path id="Path_13243" data-name="Path 13243" d="M3060.691,1333.613s-3.735,28.566,2.386,35.348" transform="translate(-3010.991 -1260.048)" fill="none" stroke="#000" stroke-miterlimit="10" stroke-width="0.25"/>
      <path id="Path_13244" data-name="Path 13244" d="M3088.972,1347.248s-14.649,18.385-26.7,17.673" transform="translate(-3010.188 -1256.008)" fill="none" stroke="#000" stroke-miterlimit="10" stroke-width="0.25"/>
      <path id="Path_13245" data-name="Path 13245" d="M3051.887,1346.363s-3.365,25.3,5.61,36.023" transform="translate(-3013.449 -1256.27)" fill="none" stroke="#000" stroke-miterlimit="10" stroke-width="0.25"/>
      <path id="Path_13246" data-name="Path 13246" d="M3090.243,1364.613s-18.822,14.853-34.17,12.366" transform="translate(-3012.025 -1250.863)" fill="none" stroke="#000" stroke-miterlimit="10" stroke-width="0.25"/>
      <path id="Path_13247" data-name="Path 13247" d="M3043.058,1364.613s.4,28.229,7.491,32.343" transform="translate(-3015.881 -1250.863)" fill="none" stroke="#000" stroke-miterlimit="10" stroke-width="0.25"/>
      <path id="Path_13248" data-name="Path 13248" d="M3087.444,1377.988s-17.063,16.623-38.607,15.005" transform="translate(-3014.169 -1246.9)" fill="none" stroke="#000" stroke-miterlimit="10" stroke-width="0.25"/>
      <path id="Path_13249" data-name="Path 13249" d="M3036.556,1377.089s-2.5,27.985,7.863,36.9" transform="translate(-3017.886 -1247.167)" fill="none" stroke="#000" stroke-miterlimit="10" stroke-width="0.25"/>
      <path id="Path_13250" data-name="Path 13250" d="M3079.419,1393.113s-19.109,17.72-36.859,16.124" transform="translate(-3016.028 -1242.419)" fill="none" stroke="#000" stroke-miterlimit="10" stroke-width="0.25"/>
      <path id="Path_13251" data-name="Path 13251" d="M3027.183,1402.176s2.364,20.538,13.489,29.105" transform="translate(-3020.585 -1239.734)" fill="none" stroke="#000" stroke-miterlimit="10" stroke-width="0.25"/>
      <path id="Path_13252" data-name="Path 13252" d="M3069.55,1408.363s-15.76,18.655-31.961,21.085" transform="translate(-3017.501 -1237.901)" fill="none" stroke="#000" stroke-miterlimit="10" stroke-width="0.25"/>
    </g>
    <g id="Group_3715" data-name="Group 3715" transform="translate(3027.015 1276.863)">
      <path id="Path_13253" data-name="Path 13253" d="M3106.741,1276.863s-12.595,56.236-34.573,104.679-27.595,52.117-36.776,101.159c0,0-.108,7.022,1.3,9.29" transform="translate(-2932.488 -1276.863)" fill="none" stroke="#000" stroke-miterlimit="10" stroke-width="0.25"/>
      <path id="Path_13254" data-name="Path 13254" d="M3060.489,1415.54s-25.443-1.948-53.24,14.189-44.831,36.962-49.5,62.389c-5.39,29.348,1.677,62.567,21.7,86.6s51.593,33.7,81.038,30.639,54.895-11.719,67.9-30.389Z" transform="translate(-2956.006 -1235.798)" fill="#e86a58" stroke="#000" stroke-linejoin="round" stroke-width="0.25"/>
      <path id="Path_13255" data-name="Path 13255" d="M3028.461,1458.944c-3.24,1.631-15.606-3.316-31.39.748s-24.558,23.851-18.9,48.409,25.795,64.664,57.774,76.325,65.371,16.254,86.4-5.477,22.967-50.884,17.844-67.668-17.491-44.286-28.8-60.129-42.17-37.926-60.839-35.453-23.791,27.621-20.965,38.516Z" transform="translate(-2949.951 -1235.786)" fill="#ffd67b" stroke="#000" stroke-linejoin="round" stroke-width="0.25"/>
      <path id="Path_13256" data-name="Path 13256" d="M3016.432,1456.115c-1.277-.508-6.422-8.193-6.375-13.015l7.761-1.074s3.115,5.619,5.65,7.69S3019.406,1457.3,3016.432,1456.115Z" transform="translate(-2939.993 -1227.929)" fill="#6d4a32" stroke="#000" stroke-linejoin="round" stroke-width="0.25"/>
      <path id="Path_13257" data-name="Path 13257" d="M3012.639,1445.471s1.033,4.218,3.028,5.429" transform="translate(-2939.228 -1226.908)" fill="none" stroke="#000" stroke-miterlimit="10" stroke-width="0.25"/>
      <path id="Path_13258" data-name="Path 13258" d="M3014.1,1445.7a4.915,4.915,0,0,0,2.844,3.61" transform="translate(-2938.794 -1226.84)" fill="none" stroke="#000" stroke-miterlimit="10" stroke-width="0.25"/>
      <path id="Path_13259" data-name="Path 13259" d="M3016.088,1446.017a6.8,6.8,0,0,0,1.953,1.6" transform="translate(-2938.206 -1226.747)" fill="none" stroke="#000" stroke-miterlimit="10" stroke-width="0.25"/>
      <path id="Path_13260" data-name="Path 13260" d="M3086.709,1528.884c2.62-.276,12.25-17.9,5.183-41.7s-36.1-46.7-73.32-38.575c0,0-7.245,2.3-2.179,22.085s15.488,37.632,27.061,43.375,28.71,8.214,34.805,10.689S3084.472,1529.118,3086.709,1528.884Z" transform="translate(-2938.648 -1226.473)" fill="#ad6149" stroke="#000" stroke-linejoin="round" stroke-width="0.25"/>
      <path id="Path_13261" data-name="Path 13261" d="M3025.616,1453.89c1.469-.442,8.36,8.569,6.947,9.895S3024.147,1454.331,3025.616,1453.89Z" transform="translate(-2935.442 -1224.418)" fill="#6d4a32" stroke="#000" stroke-linejoin="round" stroke-width="0.25"/>
      <path id="Path_13262" data-name="Path 13262" d="M3019.063,1454.368c1.275-.443,4.152,8.3,3.092,8.658S3017.031,1455.074,3019.063,1454.368Z" transform="translate(-2937.49 -1224.278)" fill="#6d4a32" stroke="#000" stroke-linejoin="round" stroke-width="0.25"/>
      <path id="Path_13263" data-name="Path 13263" d="M3035.5,1454.022c.358-1.518,5.3,0,7.42,3.269s1.982,4.742,1.148,4.77c-1.192.039-1.723-2.972-4.55-4.3S3035.25,1455.082,3035.5,1454.022Z" transform="translate(-2932.462 -1224.55)" fill="#6d4a32" stroke="#000" stroke-linejoin="round" stroke-width="0.25"/>
      <path id="Path_13264" data-name="Path 13264" d="M3051.4,1460.225c.861-1.34,4.859-.3,7.156,1.968s3.092,4.392,2.385,5.452-1.959-3.062-4.646-4S3050.608,1461.462,3051.4,1460.225Z" transform="translate(-2927.781 -1222.714)" fill="#6d4a32" stroke="#000" stroke-linejoin="round" stroke-width="0.25"/>
      <path id="Path_13265" data-name="Path 13265" d="M3052.936,1469.177c1.023-.6,3,1.325,5.478,4.682s2.385,5.389,1.767,5.918-3.623-2.827-4.86-4.858S3051.877,1469.8,3052.936,1469.177Z" transform="translate(-2927.372 -1219.917)" fill="#6d4a32" stroke="#000" stroke-linejoin="round" stroke-width="0.25"/>
      <path id="Path_13266" data-name="Path 13266" d="M3040.753,1465.314c1.648-1.268,3.091,3.8,5.477,6.449s4.858,6.537,4.24,7.508-3.886-1.413-6.449-5.3S3039.6,1466.2,3040.753,1465.314Z" transform="translate(-2931.001 -1221.089)" fill="#6d4a32" stroke="#000" stroke-linejoin="round" stroke-width="0.25"/>
      <path id="Path_13267" data-name="Path 13267" d="M3027.326,1467.934c1.666-.687,5.565,8.858,9.1,12.246s8.669,9.4,7.956,10.369-7.161-2.476-10.96-8.835S3025.823,1468.552,3027.326,1467.934Z" transform="translate(-2934.976 -1220.264)" fill="#6d4a32" stroke="#000" stroke-linejoin="round" stroke-width="0.25"/>
      <path id="Path_13268" data-name="Path 13268" d="M3032.144,1486.263c1.016-.465,4.506,4.86,6.979,5.831s7.419,4.152,6.978,5.743-5.211-2.827-8.392-4.328S3030.023,1487.236,3032.144,1486.263Z" transform="translate(-2933.611 -1214.831)" fill="#6d4a32" stroke="#000" stroke-linejoin="round" stroke-width="0.25"/>
      <path id="Path_13269" data-name="Path 13269" d="M3049.324,1480.62c1.413-.706,4.77,3.18,3.886,4.064S3047.91,1481.327,3049.324,1480.62Z" transform="translate(-2928.441 -1216.52)" fill="#6d4a32" stroke="#000" stroke-linejoin="round" stroke-width="0.25"/>
      <path id="Path_13270" data-name="Path 13270" d="M3051.2,1491.463c1.417-.791,4.948,2.826,9.1,3.622s7.243.53,7.685,2.562-5.212,1.3-8.393.706S3047.932,1493.288,3051.2,1491.463Z" transform="translate(-2928.021 -1213.316)" fill="#6d4a32" stroke="#000" stroke-linejoin="round" stroke-width="0.25"/>
      <path id="Path_13271" data-name="Path 13271" d="M3068.147,1498.024c1.4.049,1.472,6.6-1.177,6.419S3066.44,1497.966,3068.147,1498.024Z" transform="translate(-2923.502 -1211.338)" fill="#6d4a32" stroke="#000" stroke-linejoin="round" stroke-width="0.25"/>
      <path id="Path_13272" data-name="Path 13272" d="M3065.767,1477.857c1.546-.328,4.006,3.474,4.123,8.421s-.589,8.069-2.357,8.069.354-5.826-.53-8.743S3063.823,1478.27,3065.767,1477.857Z" transform="translate(-2923.712 -1217.319)" fill="#6d4a32" stroke="#000" stroke-linejoin="round" stroke-width="0.25"/>
      <path id="Path_13273" data-name="Path 13273" d="M3035.473,1435.01a8.142,8.142,0,0,1,0,3.534" transform="translate(-2932.462 -1230.008)" fill="none" stroke="#000" stroke-miterlimit="10" stroke-width="0.25"/>
      <ellipse id="Ellipse_2152" data-name="Ellipse 2152" cx="2.061" cy="3.121" rx="2.061" ry="3.121" transform="translate(104.116 187.03) rotate(-21.843)" fill="#dffffa" stroke="#231815" stroke-miterlimit="10" stroke-width="0.25"/>
      <ellipse id="Ellipse_2153" data-name="Ellipse 2153" cx="3.828" cy="5.389" rx="3.828" ry="5.389" transform="translate(112.43 189.735) rotate(-30)" fill="#dffffa" stroke="#231815" stroke-miterlimit="10" stroke-width="0.25"/>
      <path id="Path_13274" data-name="Path 13274" d="M3069.54,1447.027s-1.014,4.082-3.311,6.09" transform="translate(-2923.35 -1226.447)" fill="none" stroke="#000" stroke-miterlimit="10" stroke-width="0.25"/>
      <path id="Path_13275" data-name="Path 13275" d="M3071.329,1451.093s-2.167,2.971-3.823,3.606" transform="translate(-2922.972 -1225.243)" fill="none" stroke="#000" stroke-miterlimit="10" stroke-width="0.25"/>
      <path id="Path_13276" data-name="Path 13276" d="M3080.167,1463.632s-3.356,2.643-6.714,3" transform="translate(-2921.21 -1221.528)" fill="none" stroke="#000" stroke-miterlimit="10" stroke-width="0.25"/>
      <path id="Path_13277" data-name="Path 13277" d="M3080.947,1469.069a23.926,23.926,0,0,1-4.76.726" transform="translate(-2920.4 -1219.917)" fill="none" stroke="#000" stroke-miterlimit="10" stroke-width="0.25"/>
      <path id="Path_13278" data-name="Path 13278" d="M3088.7,1486.235a34.087,34.087,0,0,1-5.3.912" transform="translate(-2918.262 -1214.831)" fill="none" stroke="#000" stroke-miterlimit="10" stroke-width="0.25"/>
      <path id="Path_13279" data-name="Path 13279" d="M3090.889,1491.654s-4.77-2.491-8.3-.66" transform="translate(-2918.505 -1213.62)" fill="none" stroke="#000" stroke-miterlimit="10" stroke-width="0.25"/>
      <path id="Path_13280" data-name="Path 13280" d="M3003.941,1472.858a19.869,19.869,0,0,0,9.9-2.2" transform="translate(-2941.804 -1219.446)" fill="none" stroke="#000" stroke-miterlimit="10" stroke-width="0.25"/>
      <path id="Path_13281" data-name="Path 13281" d="M3008.372,1475.224a6.964,6.964,0,0,1,2.915-.618" transform="translate(-2940.492 -1218.279)" fill="none" stroke="#000" stroke-miterlimit="10" stroke-width="0.25"/>
      <path id="Path_13282" data-name="Path 13282" d="M3017.3,1500.319a7.667,7.667,0,0,0,3.269-3.081" transform="translate(-2937.847 -1211.571)" fill="none" stroke="#000" stroke-miterlimit="10" stroke-width="0.25"/>
      <path id="Path_13283" data-name="Path 13283" d="M3046.943,1514.675a10.921,10.921,0,0,1,0,5.124" transform="translate(-2929.064 -1206.405)" fill="none" stroke="#000" stroke-miterlimit="10" stroke-width="0.25"/>
      <path id="Path_13284" data-name="Path 13284" d="M3028.967,1514.675s-5.653,8.658-6.625,16.608" transform="translate(-2936.353 -1206.405)" fill="none" stroke="#000" stroke-miterlimit="10" stroke-width="0.25"/>
      <path id="Path_13285" data-name="Path 13285" d="M3030.31,1516.652s-.795,7.6-4.153,11.836" transform="translate(-2935.222 -1205.819)" fill="none" stroke="#000" stroke-miterlimit="10" stroke-width="0.25"/>
      <path id="Path_13286" data-name="Path 13286" d="M3054.644,1515.561a65.856,65.856,0,0,1,2.121,17.845" transform="translate(-2926.782 -1206.142)" fill="none" stroke="#000" stroke-miterlimit="10" stroke-width="0.25"/>
      <path id="Path_13287" data-name="Path 13287" d="M3072.022,1514.675a37.5,37.5,0,0,1,11.043,14.929" transform="translate(-2921.634 -1206.405)" fill="none" stroke="#000" stroke-miterlimit="10" stroke-width="0.25"/>
      <path id="Path_13288" data-name="Path 13288" d="M3075.634,1515.152s5.123,3.711,6.979,8.923" transform="translate(-2920.564 -1206.263)" fill="none" stroke="#000" stroke-miterlimit="10" stroke-width="0.25"/>
      <ellipse id="Ellipse_2154" data-name="Ellipse 2154" cx="4.005" cy="5.119" rx="4.005" ry="5.119" transform="translate(42.055 251.212)" fill="#dffffa" stroke="#231815" stroke-miterlimit="10" stroke-width="0.25"/>
      <ellipse id="Ellipse_2155" data-name="Ellipse 2155" cx="1.588" cy="2.765" rx="1.588" ry="2.765" transform="translate(37.937 242.105)" fill="#dffffa" stroke="#231815" stroke-miterlimit="10" stroke-width="0.25"/>
      <path id="Path_13289" data-name="Path 13289" d="M3010.057,1443.3c.1-2.131,8.69-2.918,7.8-.316S3009.959,1445.433,3010.057,1443.3Z" transform="translate(-2939.993 -1228.131)" fill="#ad7955" stroke="#000" stroke-linejoin="round" stroke-width="0.25"/>
    </g>
    <g id="Group_3716" data-name="Group 3716" transform="translate(2855.097 1522.183)">
      <path id="Path_13290" data-name="Path 13290" d="M2956.818,1458.912c-5.505-1.979-17.378-4.453-26.684-.657l23.282,15.045,20.659.355S2966.758,1462.488,2956.818,1458.912Z" transform="translate(-2818.499 -1456.273)" fill="#e86a58" stroke="#000" stroke-linejoin="round" stroke-width="0.25"/>
      <path id="Path_13291" data-name="Path 13291" d="M2844.335,1552.808s2.481,25.372,28.031,34.528c26.538,9.511,55.727,2.964,74.254-6.715l-81.23-29.211Z" transform="translate(-2843.919 -1428.086)" fill="#e86a58" stroke="#000" stroke-linejoin="round" stroke-width="0.25"/>
      <path id="Path_13292" data-name="Path 13292" d="M2969.026,1461.964c-3.172-2.853-1.779-6.08-7.621-5.382-7.4.884-43.773,17.091-64,36.8s-54.337,63.293-53.366,83.363c.784,16.219,8.022,15.172,15.521,12.382s9.941-2.442,18.137,6.975,32.263,23.2,59.645,16.045,61.911-43.076,68.015-58.074,8.72-39.24,5.581-54.849-12.034-31.922-22.672-32.136S2972.8,1465.365,2969.026,1461.964Z" transform="translate(-2844.015 -1456.209)" fill="#ffd67b" stroke="#000" stroke-linejoin="round" stroke-width="0.25"/>
      <path id="Path_13293" data-name="Path 13293" d="M2952.079,1473.29c-2.463-2.569-5.407-1.017-8.72-1.017s-4.361,1.221-6.628,4.186-9.069,6.1-13.777,10.29-10.987,6.8-15.7,13.254-10.114,11.336-14.649,15.7-4.359,7.15-6.1,11.685-4.011,7.151-3.314,14.127-2.442,11.336,1.046,13.428,9.243-1.57,15.521-2.092,14.714-4.709,17.56-9.592,13.832-8.545,20.808-20.056,10.987-30.52,13.953-33.135S2955.393,1476.748,2952.079,1473.29Z" transform="translate(-2832.595 -1451.67)" fill="#ffa943" stroke="#000" stroke-linejoin="round" stroke-width="0.25"/>
      <path id="Path_13294" data-name="Path 13294" d="M2932.007,1483.333s-2.267,11.86-8.2,20.056" transform="translate(-2820.373 -1448.255)" fill="none" stroke="#000" stroke-miterlimit="10" stroke-width="0.25"/>
      <path id="Path_13295" data-name="Path 13295" d="M2928.18,1490.463s-23.2,16.22-29.125,35.4" transform="translate(-2827.707 -1446.143)" fill="none" stroke="#000" stroke-miterlimit="10" stroke-width="0.25"/>
      <path id="Path_13296" data-name="Path 13296" d="M2923.285,1486.293s-9.265,3.138-13,8.2" transform="translate(-2824.381 -1447.378)" fill="none" stroke="#000" stroke-miterlimit="10" stroke-width="0.25"/>
      <path id="Path_13297" data-name="Path 13297" d="M2902.4,1500.823s-8.023,5.232-11.685,16.917" transform="translate(-2830.178 -1443.073)" fill="none" stroke="#000" stroke-miterlimit="10" stroke-width="0.25"/>
      <path id="Path_13298" data-name="Path 13298" d="M2923.766,1509.971s-13.952,18.137-29.822,24.242" transform="translate(-2829.221 -1440.363)" fill="none" stroke="#000" stroke-miterlimit="10" stroke-width="0.25"/>
      <ellipse id="Ellipse_2156" data-name="Ellipse 2156" cx="3.043" cy="4.657" rx="3.043" ry="4.657" transform="translate(140.419 32.276) rotate(-21.698)" fill="#dffffa" stroke="#231815" stroke-miterlimit="10" stroke-width="0.25"/>
      <ellipse id="Ellipse_2157" data-name="Ellipse 2157" cx="1.92" cy="2.529" rx="1.92" ry="2.529" transform="translate(132.599 28.703) rotate(-30)" fill="#dffffa" stroke="#231815" stroke-miterlimit="10" stroke-width="0.25"/>
      <path id="Path_13299" data-name="Path 13299" d="M2909.711,1474.588a59.943,59.943,0,0,0,0,7.15" transform="translate(-2824.584 -1450.846)" fill="none" stroke="#000" stroke-miterlimit="10" stroke-width="0.25"/>
      <path id="Path_13300" data-name="Path 13300" d="M2912.163,1476.673a4.264,4.264,0,0,0,0,4.1" transform="translate(-2823.984 -1450.229)" fill="none" stroke="#000" stroke-miterlimit="10" stroke-width="0.25"/>
      <path id="Path_13301" data-name="Path 13301" d="M2939.485,1468.326s.173-1.395.959-1.743" transform="translate(-2815.729 -1453.218)" fill="none" stroke="#000" stroke-miterlimit="10" stroke-width="0.25"/>
      <path id="Path_13302" data-name="Path 13302" d="M2939.855,1492.377a11.546,11.546,0,0,1,4.228-1.308" transform="translate(-2815.619 -1445.963)" fill="none" stroke="#000" stroke-miterlimit="10" stroke-width="0.25"/>
      <path id="Path_13303" data-name="Path 13303" d="M2940.225,1495.134a28.765,28.765,0,0,1,12.3-1.4" transform="translate(-2815.51 -1445.231)" fill="none" stroke="#000" stroke-miterlimit="10" stroke-width="0.25"/>
      <path id="Path_13304" data-name="Path 13304" d="M2939.485,1499.881c.349,0,12.033,2.616,23.282,2.529" transform="translate(-2815.729 -1443.352)" fill="none" stroke="#000" stroke-miterlimit="10" stroke-width="0.25"/>
      <path id="Path_13305" data-name="Path 13305" d="M2898.652,1487.773a5.4,5.4,0,0,0,1.919,1.744" transform="translate(-2827.826 -1446.94)" fill="none" stroke="#000" stroke-miterlimit="10" stroke-width="0.25"/>
      <path id="Path_13306" data-name="Path 13306" d="M2877.6,1513a6.8,6.8,0,0,0,3.4,0" transform="translate(-2834.064 -1439.466)" fill="none" stroke="#000" stroke-miterlimit="10" stroke-width="0.25"/>
      <path id="Path_13307" data-name="Path 13307" d="M2869.121,1529.349s4.186-.959,6.191-2.964" transform="translate(-2836.576 -1435.5)" fill="none" stroke="#000" stroke-miterlimit="10" stroke-width="0.25"/>
      <path id="Path_13308" data-name="Path 13308" d="M2881.08,1538.964s-4.1,7.412-7.586,10.727" transform="translate(-2835.281 -1431.773)" fill="none" stroke="#000" stroke-miterlimit="10" stroke-width="0.25"/>
      <path id="Path_13309" data-name="Path 13309" d="M2892.467,1540.377s-.7,3.75,0,5.669" transform="translate(-2829.751 -1431.355)" fill="none" stroke="#000" stroke-miterlimit="10" stroke-width="0.25"/>
      <path id="Path_13310" data-name="Path 13310" d="M2904.774,1537.888s2.791,5.581,3.314,8.9" transform="translate(-2826.013 -1432.092)" fill="none" stroke="#000" stroke-miterlimit="10" stroke-width="0.25"/>
      <path id="Path_13311" data-name="Path 13311" d="M2907.33,1537.888s5.669,9.244,6.628,15.87" transform="translate(-2825.255 -1432.092)" fill="none" stroke="#000" stroke-miterlimit="10" stroke-width="0.25"/>
      <path id="Path_13312" data-name="Path 13312" d="M2922.062,1525.578s6.017,4.621,9.33,10.028" transform="translate(-2820.891 -1435.739)" fill="none" stroke="#000" stroke-miterlimit="10" stroke-width="0.25"/>
      <path id="Path_13313" data-name="Path 13313" d="M2924.82,1524.3a88.082,88.082,0,0,0,18.138,15.725" transform="translate(-2820.073 -1436.118)" fill="none" stroke="#000" stroke-miterlimit="10" stroke-width="0.25"/>
      <path id="Path_13314" data-name="Path 13314" d="M2935.987,1512.393a12.234,12.234,0,0,0,7.412,2.791" transform="translate(-2816.765 -1439.646)" fill="none" stroke="#000" stroke-miterlimit="10" stroke-width="0.25"/>
    </g>
  </g>
</svg>
