<svg xmlns="http://www.w3.org/2000/svg" width="402.537" height="471.82" viewBox="0 0 402.537 471.82">
  <g id="Group_2873" data-name="Group 2873" transform="translate(-2445.663 -174.379)">
    <g id="Group_2851" data-name="Group 2851" transform="translate(2602.776 174.594)">
      <path id="Path_9607" data-name="Path 9607" d="M2570.834,246.879c-2.311-5.839,4.623-24.478,15.664-16.313,0,0-3.631-17.906,3.353-27.259s14.713-7.482,17.457-1.5c0,0-1.994-12.968,6.484-22.321s19.452-4.364,19.7,7.108c0,0,3.99-12.277,13.716-12s11.6,12.248,11.722,20.728c0,0,7.107-9.477,16.21-6.359s8.23,18.828,6.608,26.06c0,0,5.113-6.109,10.6-3.117s3.865,19.577,1.994,23.817c0,0,4.614-6.484,8.355-3.617s3.492,17.707-5.486,29.8c0,0,19.929,1.887-1.787,29.616l-25.183,59.1L2659.45,386.82s-9.439,21.057-9.215,19.962-41.589-43.354-42.289-50.285-26.927-53.273-26.927-53.273-16.729-39.681-14.484-40.731S2570.834,246.879,2570.834,246.879Z" transform="translate(-2566.328 -174.594)" fill="#518937" stroke="#000" stroke-linejoin="round" stroke-width="0.25"/>
      <path id="Path_9608" data-name="Path 9608" d="M2618.4,194.257c2.242.548,1,17.173,1.86,36.922s2.617,47.619,3.619,69.644-1.2,55.443,5.606,71.547,5.406,20.152,5.406,20.152l-9.21-1s-5.806-27.029-6.207-43.647-2.647-62.037-2.183-92.483C2617.762,224.479,2614.925,193.405,2618.4,194.257Z" transform="translate(-2551.104 -168.651)" fill="#bfc632" stroke="#231815" stroke-miterlimit="10" stroke-width="0.25"/>
      <path id="Path_9609" data-name="Path 9609" d="M2603.283,198.333c1.137,19.313,13.1,19.641,17.914,32.135" transform="translate(-2555.147 -167.412)" fill="none" stroke="#000" stroke-linejoin="round" stroke-width="0.25"/>
      <path id="Path_9610" data-name="Path 9610" d="M2635.566,198.333c-3.246,19.313-14.923,23.291-16.145,31.608" transform="translate(-2550.264 -167.412)" fill="none" stroke="#000" stroke-linejoin="round" stroke-width="0.25"/>
      <path id="Path_9611" data-name="Path 9611" d="M2592.625,227.613c2.523,20.386,27.841,28.753,32.078,45.608" transform="translate(-2558.371 -158.553)" fill="none" stroke="#000" stroke-linejoin="round" stroke-width="0.25"/>
      <path id="Path_9612" data-name="Path 9612" d="M2647.073,227.613c-5.193,20.386-22.632,31.02-25.452,47.876" transform="translate(-2549.599 -158.553)" fill="none" stroke="#000" stroke-linejoin="round" stroke-width="0.25"/>
      <path id="Path_9613" data-name="Path 9613" d="M2628.062,301.552s-2.721-11.362-17.28-20.3a79.359,79.359,0,0,1-25.69-25.479" transform="translate(-2560.651 -150.034)" fill="none" stroke="#000" stroke-linejoin="round" stroke-width="0.25"/>
      <path id="Path_9614" data-name="Path 9614" d="M2650.875,255.772c-2.273,18.014-25.8,31.323-28.408,45.78" transform="translate(-2549.343 -150.034)" fill="none" stroke="#000" stroke-linejoin="round" stroke-width="0.25"/>
      <ellipse id="Ellipse_1574" data-name="Ellipse 1574" cx="2.99" cy="2.278" rx="2.99" ry="2.278" transform="translate(95.578 40.471) rotate(-56.973)" fill="#dffffa" stroke="#231815" stroke-miterlimit="10" stroke-width="0.25"/>
      <ellipse id="Ellipse_1575" data-name="Ellipse 1575" cx="3.762" cy="2.714" rx="3.762" ry="2.714" transform="translate(107.663 51.048) rotate(-30)" fill="#dffffa" stroke="#231815" stroke-miterlimit="10" stroke-width="0.25"/>
      <path id="Path_9615" data-name="Path 9615" d="M2623.166,324.11s4.131-6.97,14.14-11.916c14.078-6.956,20.512-13.58,25.741-30.8" transform="translate(-2549.132 -142.283)" fill="none" stroke="#000" stroke-linejoin="round" stroke-width="0.25"/>
    </g>
    <g id="Group_2852" data-name="Group 2852" transform="translate(2679.198 232.982)">
      <path id="Path_9616" data-name="Path 9616" d="M2697.289,244.282c.438-11.829,25.629-36.8,29.353-18.181,0,0,9.2-8.762,15.333-5.038s0,14.9,0,14.9,15.334-8.543,22.562.219-6.571,23.438-6.571,23.438,18.4-1.533,19.276,14.9-23.876,19.5-23.876,19.5,12.924,0,13.143,8.543-11.828,13.362-11.828,13.362,14.94,4.817-14.916,28.061c0,0,19.139,14.464-21.226,36.736s-49.761,48.718-49.761,48.718-26.887,1.434-27.772,0-12.092-55.4-12.092-55.4-10.187-24.168,2.3-20.212c0,0-8.327-33.727,5-27.065,0,0-3.747-11.868.208-23.318s10.41-11.659,13.532-8.536c0,0-1.25-13.325,3.956-23.11s12.7-13.325,19.571-4.373c0,0-2.034-9.9,4.835-20.517S2694.654,239.476,2697.289,244.282Z" transform="translate(-2624.998 -219.42)" fill="#518937" stroke="#000" stroke-linejoin="round" stroke-width="0.25"/>
      <path id="Path_9617" data-name="Path 9617" d="M2717.376,243.419c2.772,3.12-13.647,15.818-26.983,35.668s-27.917,54.9-32.877,78.932-8.747,49.166-1.549,72.11a34.858,34.858,0,0,1-5.892,0s-6.2-20.16-3.1-53.656,19.29-64.511,28.254-82.5S2714.9,240.628,2717.376,243.419Z" transform="translate(-2618.613 -212.206)" fill="#bfc632" stroke="#231815" stroke-miterlimit="10" stroke-width="0.25"/>
      <path id="Path_9618" data-name="Path 9618" d="M2691.134,237.394c-3.948,7.646-.248,20.3-6.148,27.649" transform="translate(-2606.849 -213.981)" fill="none" stroke="#000" stroke-linejoin="round" stroke-width="0.25"/>
      <path id="Path_9619" data-name="Path 9619" d="M2672.823,250.817c-8.083,12.971,0,30.079-4.361,40.872" transform="translate(-2611.848 -209.92)" fill="none" stroke="#000" stroke-linejoin="round" stroke-width="0.25"/>
      <path id="Path_9620" data-name="Path 9620" d="M2650.7,274.342c-3.008,23.5,10.263,30.235,8.608,41.529" transform="translate(-2617.358 -202.802)" fill="none" stroke="#000" stroke-linejoin="round" stroke-width="0.25"/>
      <path id="Path_9621" data-name="Path 9621" d="M2637.9,303.784c-1.316,17.721,13.528,24.263,14.667,35.443" transform="translate(-2621.119 -193.894)" fill="none" stroke="#000" stroke-linejoin="round" stroke-width="0.25"/>
      <path id="Path_9622" data-name="Path 9622" d="M2633.563,335.68c2.434,12.783,15.039,17.107,16.336,30.643" transform="translate(-2622.407 -184.244)" fill="none" stroke="#000" stroke-linejoin="round" stroke-width="0.25"/>
      <path id="Path_9623" data-name="Path 9623" d="M2720.974,249.687c-12.6,11.637-21.727,6.213-32.027,12.425" transform="translate(-2605.65 -210.262)" fill="none" stroke="#000" stroke-linejoin="round" stroke-width="0.25"/>
      <path id="Path_9624" data-name="Path 9624" d="M2719.339,270.7c-19.073,16.585-33.006,3.483-48.01,20.113" transform="translate(-2610.981 -203.905)" fill="none" stroke="#000" stroke-linejoin="round" stroke-width="0.25"/>
      <path id="Path_9625" data-name="Path 9625" d="M2707.714,289.16c-15.791,14.482-35.134,10.282-45.657,23.865" transform="translate(-2613.786 -198.319)" fill="none" stroke="#000" stroke-linejoin="round" stroke-width="0.25"/>
      <path id="Path_9626" data-name="Path 9626" d="M2654.865,338.59s2.3-7.761,18.684-12.632,24.58-11.485,28.568-18.475" transform="translate(-2615.962 -192.776)" fill="none" stroke="#000" stroke-linejoin="round" stroke-width="0.25"/>
      <path id="Path_9627" data-name="Path 9627" d="M2650.877,366.461s3.488-6.17,15.906-13.329c12.915-7.444,24.747-13.2,26.52-24.5" transform="translate(-2617.169 -186.375)" fill="none" stroke="#000" stroke-linejoin="round" stroke-width="0.25"/>
      <ellipse id="Ellipse_1576" data-name="Ellipse 1576" cx="2.303" cy="1.842" rx="2.303" ry="1.842" transform="translate(91.495 15.194) rotate(-64.737)" fill="#dffffa" stroke="#231815" stroke-miterlimit="10" stroke-width="0.25"/>
      <ellipse id="Ellipse_1577" data-name="Ellipse 1577" cx="3.883" cy="1.974" rx="3.883" ry="1.974" transform="matrix(0.906, -0.423, 0.423, 0.906, 98.854, 18.027)" fill="#dffffa" stroke="#231815" stroke-miterlimit="10" stroke-width="0.25"/>
    </g>
    <g id="Group_2853" data-name="Group 2853" transform="translate(2705.74 334.632)">
      <line id="Line_424" data-name="Line 424" x2="6.653" y2="5.258" transform="translate(34.869 185.431)" fill="none" stroke="#000" stroke-linejoin="round" stroke-width="0.25"/>
      <path id="Path_9628" data-name="Path 9628" d="M2692.71,486.6a14.933,14.933,0,0,1-2.556-7.712c-.152-4.491,2.44-11.961-.762-13.028,0,0,9.988-11.433,3.318-17.377,0,0,29.454-13.261,17.566-23.931,0,0,28.809-8.232,20.121-21.189,0,0,19.054-3.964,28.962-12.957s3.962-14.328-1.069-13.109c0,0,12.957-5.488,19.359-10.671s4.725-16.311-2.286-15.7c0,0,12.347-5.183,12.347-15.244s-7.765-12.652-16.611-11.128c0,0,7.465-9.145,4.568-15.395s-11.281-3.506-14.024,0c0,0,5.793-8.968-3.049-10.581s-17.072,9.514-17.072,9.514,5.144-9.3-3.3-10.518-17.282,7.2-19.111,11.3c0,0-3.108-9.623-14.129-4.745a30.432,30.432,0,0,0-15.055,15.116s-14.563-9.019-23.558,30.46c0,0-13.109-3.353-10.974,30.182,0,0-10.975-3.036-4.725,22.947,0,0-12.759,4.491,1.318,25.221l9.5,33.9,5.945,11.68,17.833,20.73Z" transform="translate(-2645.376 -297.458)" fill="#62a542" stroke="#000" stroke-linejoin="round" stroke-width="0.25"/>
      <path id="Path_9629" data-name="Path 9629" d="M2669.591,425.823c2.109-14.736,15.676-12.753,21.164-26.93" transform="translate(-2638.049 -266.768)" fill="none" stroke="#000" stroke-linejoin="round" stroke-width="0.25"/>
      <path id="Path_9630" data-name="Path 9630" d="M2666.826,406.227c11.351-13.888,26.9-9.756,37.875-21.494" transform="translate(-2638.885 -271.053)" fill="none" stroke="#000" stroke-linejoin="round" stroke-width="0.25"/>
      <path id="Path_9631" data-name="Path 9631" d="M2667.547,409c-3.915-16.239-17.347-18.134-22.171-35.956" transform="translate(-2645.376 -274.589)" fill="none" stroke="#000" stroke-linejoin="round" stroke-width="0.25"/>
      <path id="Path_9632" data-name="Path 9632" d="M2665.995,394.37c0-18.749-10.818-24.694-6.092-41.489" transform="translate(-2641.342 -280.69)" fill="none" stroke="#000" stroke-linejoin="round" stroke-width="0.25"/>
      <path id="Path_9633" data-name="Path 9633" d="M2668.462,390.258c10.288-10.659,34.523-8.373,45.955-18.28" transform="translate(-2638.391 -274.912)" fill="none" stroke="#000" stroke-linejoin="round" stroke-width="0.25"/>
      <path id="Path_9634" data-name="Path 9634" d="M2676.511,362.379c13.369-9.5,32.728.686,49.039-9.5" transform="translate(-2635.956 -280.69)" fill="none" stroke="#000" stroke-linejoin="round" stroke-width="0.25"/>
      <path id="Path_9635" data-name="Path 9635" d="M2674.057,366.439c-.957-12.852-4.46-22.675.723-35.445" transform="translate(-2637.318 -287.312)" fill="none" stroke="#000" stroke-linejoin="round" stroke-width="0.25"/>
      <path id="Path_9636" data-name="Path 9636" d="M2684.723,345.125c2.978-9.939-.833-20.144,4.807-26.394" transform="translate(-2633.471 -291.022)" fill="none" stroke="#000" stroke-linejoin="round" stroke-width="0.25"/>
      <path id="Path_9637" data-name="Path 9637" d="M2686.568,343.382c9.415-5.165,23.439,1.086,36.853-5.927" transform="translate(-2632.913 -285.357)" fill="none" stroke="#000" stroke-linejoin="round" stroke-width="0.25"/>
      <path id="Path_9638" data-name="Path 9638" d="M2698.1,330.582c2.489-6.833,9.941-9.286,10.55-17.351" transform="translate(-2629.424 -292.686)" fill="none" stroke="#000" stroke-linejoin="round" stroke-width="0.25"/>
      <path id="Path_9639" data-name="Path 9639" d="M2698.965,330.062c5.614-2.32,12.893,1.949,23.048-2.32" transform="translate(-2629.162 -288.296)" fill="none" stroke="#000" stroke-linejoin="round" stroke-width="0.25"/>
      <ellipse id="Ellipse_1578" data-name="Ellipse 1578" cx="4.542" cy="2.793" rx="4.542" ry="2.793" transform="matrix(0.988, -0.157, 0.157, 0.988, 103.346, 47.206)" fill="#dffffa" stroke="#231815" stroke-miterlimit="10" stroke-width="0.25"/>
      <ellipse id="Ellipse_1579" data-name="Ellipse 1579" cx="3.592" cy="2.431" rx="3.592" ry="2.431" transform="translate(110.082 36.313) rotate(-47.467)" fill="#dffffa" stroke="#231815" stroke-miterlimit="10" stroke-width="0.25"/>
    </g>
    <g id="Group_2854" data-name="Group 2854" transform="translate(2445.861 207.366)">
      <path id="Path_9640" data-name="Path 9640" d="M2734.234,507.55s1.181-17.433-10.594-20.524c0,0,4.666-36.215-10.664-35.327,0,0,6-47.545-19.33-36.214,0,0-.889-48.656-24.883-36.214,0,0,9.775-62.432-23.106-54.655,0,0,7.332-51.766-15.33-40.658,0,0,4.221-24.661-3.777-28.882s-14.663,5.776-15.107,10c0,0,2.444-65.764-33.771-44.213,0,0-7.017-21.105-23.772-21.107-14.513,0-17.108,11.776-17.108,11.776s-5.764-13.074-22.439-9.332c-20.229,4.539-19.107,24.661-19.107,24.661s-9.451-6.932-18.884-.445c-8.447,5.809-6.444,15.775-3.554,19.107,0,0-11.771-1.115-15.705,13.28-2.6,9.52,5.262,13.381,5.262,13.381s-28.53,12.136-10.566,38.735c0,0-16.616,30.76,21.744,36.063,0,0-32.816,31.261,69.7,42.417,0,0-34.593,8.971,13.992,11.58,0,0-30.971,37.338,29.37,62.041s72.49,25.108,72.49,25.108-12.183,31.185,34.731,28.84c0,0-14.07,18.119,41.99,11.757Z" transform="translate(-2445.861 -199.754)" fill="#62a542" stroke="#000" stroke-linejoin="round" stroke-width="0.25"/>
      <path id="Path_9641" data-name="Path 9641" d="M2493.189,234.054c1.572-.776,18.612,22.335,26.058,35.2s23.012,29.442,39.594,55.5,37.226,48.123,52.792,65.856,29.1,29.577,45.01,46.836,29.1,20.982,42.978,38.579,26.735,26.058,26.735,26.058-9.138-7.444-12.183-37.563,7.107-54.823,17.6-76.144,27.412-38.579,48.394-41.287c0,0-25.721,10.153-40.271,35.534s-21.659,55.5-20.306,74.452,10.718,41.8,19.234,48.722,12.507,9.58,21.023,21.025c8.352,11.223,14.656,17.325,23.933,26.343a1.839,1.839,0,0,1,.561,1.342c-.035,2.317-.585,9.059-5.6,12.766-6.122,4.524-10.911,4.524-14.371,1.33s-8.516-8.249-15.7-12.774-6.121-19.693-17.829-28.475-24.218-30.072-35.661-40.451-30.871-30.6-42.846-40.984-24.75-21.556-36.726-37.258-25.548-34.063-35.394-44.709-30.872-37.524-43.379-56.419-25.641-44.026-31.669-53.757C2498.008,242.223,2491.708,234.784,2493.189,234.054Z" transform="translate(-2431.608 -189.382)" fill="#bfc632" stroke="#231815" stroke-miterlimit="10" stroke-width="0.25"/>
      <path id="Path_9642" data-name="Path 9642" d="M2480.47,251.526c12.062,14.61,38.608,14.61,46.947,29.22" transform="translate(-2435.39 -184.09)" fill="none" stroke="#000" stroke-linejoin="round" stroke-width="0.25"/>
      <path id="Path_9643" data-name="Path 9643" d="M2519.254,227.067c9.1,28.217-3.572,45.513,4.451,61.92" transform="translate(-2423.656 -191.49)" fill="none" stroke="#000" stroke-linejoin="round" stroke-width="0.25"/>
      <path id="Path_9644" data-name="Path 9644" d="M2470.687,280.7c27.99,18.887,61.442,7.055,84.721,29.593" transform="translate(-2438.35 -175.263)" fill="none" stroke="#000" stroke-linejoin="round" stroke-width="0.25"/>
      <path id="Path_9645" data-name="Path 9645" d="M2546.018,236.152c7.737,27.307-11.765,51.656-3.181,85.48" transform="translate(-2417.196 -188.742)" fill="none" stroke="#000" stroke-linejoin="round" stroke-width="0.25"/>
      <path id="Path_9646" data-name="Path 9646" d="M2482.916,314.244c35.728,25.487,75.145,8.42,107.049,33.145" transform="translate(-2434.65 -165.114)" fill="none" stroke="#000" stroke-linejoin="round" stroke-width="0.25"/>
      <path id="Path_9647" data-name="Path 9647" d="M2567.194,266.55c8.648,22.3-11.151,50.29,2.238,90.894" transform="translate(-2409.926 -179.544)" fill="none" stroke="#000" stroke-linejoin="round" stroke-width="0.25"/>
      <path id="Path_9648" data-name="Path 9648" d="M2589.036,300.268c12.061,30.493-8.191,59.165,3.415,81.01" transform="translate(-2402.64 -169.343)" fill="none" stroke="#000" stroke-linejoin="round" stroke-width="0.25"/>
      <path id="Path_9649" data-name="Path 9649" d="M2530.261,347.612c21.845,15.929,58.028,10.241,71.241,22.973" transform="translate(-2420.325 -155.018)" fill="none" stroke="#000" stroke-linejoin="round" stroke-width="0.25"/>
      <path id="Path_9650" data-name="Path 9650" d="M2612.116,343.245c5.462,17.174-5.774,40.635,1.209,53.086" transform="translate(-2395.91 -156.34)" fill="none" stroke="#000" stroke-linejoin="round" stroke-width="0.25"/>
      <path id="Path_9651" data-name="Path 9651" d="M2563.454,378.36c19.8,19.8,42.326,4.551,57.616,15.149" transform="translate(-2410.283 -145.715)" fill="none" stroke="#000" stroke-linejoin="round" stroke-width="0.25"/>
      <path id="Path_9652" data-name="Path 9652" d="M2635.432,375.041c6.6,20.23-3.186,30.265,2.417,40.461" transform="translate(-2388.505 -146.72)" fill="none" stroke="#000" stroke-linejoin="round" stroke-width="0.25"/>
      <path id="Path_9653" data-name="Path 9653" d="M2594.377,406.1c26.738,16.656,40.96,3,53.477,12.747" transform="translate(-2400.927 -137.321)" fill="none" stroke="#000" stroke-linejoin="round" stroke-width="0.25"/>
      <path id="Path_9654" data-name="Path 9654" d="M2650.457,401.77c5.743,12.019-.909,18.392,5.743,28.626" transform="translate(-2383.96 -138.632)" fill="none" stroke="#000" stroke-linejoin="round" stroke-width="0.25"/>
      <path id="Path_9655" data-name="Path 9655" d="M2627.92,433.915c15.473,6.828,24.232-5.139,36.579,3.689" transform="translate(-2390.778 -128.907)" fill="none" stroke="#000" stroke-linejoin="round" stroke-width="0.25"/>
      <circle id="Ellipse_1580" data-name="Ellipse 1580" cx="2.353" cy="2.353" r="2.353" transform="translate(104.713 23.199)" fill="#dffffa" stroke="#231815" stroke-miterlimit="10" stroke-width="0.25"/>
      <ellipse id="Ellipse_1581" data-name="Ellipse 1581" cx="5.808" cy="4.338" rx="5.808" ry="4.338" transform="translate(116.33 28.64)" fill="#dffffa" stroke="#231815" stroke-miterlimit="10" stroke-width="0.25"/>
      <ellipse id="Ellipse_1582" data-name="Ellipse 1582" cx="2.832" cy="4.568" rx="2.832" ry="4.568" transform="translate(18.441 135.284) rotate(-80.961)" fill="#dffffa" stroke="#231815" stroke-miterlimit="10" stroke-width="0.25"/>
    </g>
    <g id="Group_2855" data-name="Group 2855" transform="translate(2457.989 374.796)">
      <path id="Path_9656" data-name="Path 9656" d="M2648.828,476.189s21.745,9.529,27.553,0-13.383-33.843-18.288-23.562c0,0-10.523-37.114-23.88-25.581,0,0-13.124-48.149-29.373-35.665,0,0-15.059-42.968-27.739-26.438,0,0-28.335-41.922-34.478-20.324,0,0-10.7-17.634-21.6-16.248s-9.313,14.767-9.313,14.767-11.085-10.011-20.4-6.247-5.355,16.566-5.355,16.566-13.077-6.063-21.4,1.861-1.187,17.04-1.187,17.04a8.1,8.1,0,0,0-7.927,6.539c-1.585,6.737,4.16,10.3,8.124,11.888a9.937,9.937,0,0,0-6.143,10.069c.594,7.567,13.474,13.906,22.588,14.5,0,0-5.944,10.9,3.766,19.021s26.55,4.16,26.55,4.16-4.954,5.549,0,10.5,23.777-.6,23.777-.6-5.35,9.313,12.086,6.737c0,0-7.133,7.133,2.378,9.511s27.145-4.36,27.145-4.36-6.935,8.52.99,14.861,25.164,4.954,31.109,2.377c0,0,2.179,7.6,13.87,7.466S2648.828,476.189,2648.828,476.189Z" transform="translate(-2455.172 -328.293)" fill="#518937" stroke="#000" stroke-linejoin="round" stroke-width="0.25"/>
      <path id="Path_9657" data-name="Path 9657" d="M2475.554,357.284c1.479-.632,6.37,4.408,22.889,17.366s24.132,20.171,38.961,26.851,45.056,20.379,64.575,30.591,28.54,15.188,48.2,23.935,24.788,9.177,24.788,13.252c0,2.484-2.929,3.219-9.727.784s-12.872-7.4-25.165-12.946-32.974-17.982-45.992-22.754-42.087-17.211-59.876-28.2-40.881-28.781-48.86-37.17S2473.163,358.307,2475.554,357.284Z" transform="translate(-2449.207 -319.538)" fill="#bfc632" stroke="#231815" stroke-miterlimit="10" stroke-width="0.25"/>
      <path id="Path_9658" data-name="Path 9658" d="M2469.906,373.032c12.438,8.1,24.2.552,33.069,5.193" transform="translate(-2450.714 -314.757)" fill="none" stroke="#000" stroke-linejoin="round" stroke-width="0.25"/>
      <path id="Path_9659" data-name="Path 9659" d="M2490,349.492c8.389,12.583,2.694,26.579,11.124,33.258" transform="translate(-2444.633 -321.88)" fill="none" stroke="#000" stroke-linejoin="round" stroke-width="0.25"/>
      <path id="Path_9660" data-name="Path 9660" d="M2531.872,395.273c-10.268-6.941-34.066,6.364-49.272.289" transform="translate(-2446.873 -308.652)" fill="none" stroke="#000" stroke-linejoin="round" stroke-width="0.25"/>
      <path id="Path_9661" data-name="Path 9661" d="M2505.437,355.6c16.777,20.1,7.232,33.12,17.887,44.068" transform="translate(-2439.963 -320.032)" fill="none" stroke="#000" stroke-linejoin="round" stroke-width="0.25"/>
      <path id="Path_9662" data-name="Path 9662" d="M2572.248,439.077c11.893-1.844,18.105-12.3,26.542-9.584" transform="translate(-2419.749 -297.81)" fill="none" stroke="#000" stroke-linejoin="round" stroke-width="0.25"/>
      <path id="Path_9663" data-name="Path 9663" d="M2596.709,431.892c-10.643-9.892-6.386-18.069-12.772-26.55" transform="translate(-2416.213 -304.982)" fill="none" stroke="#000" stroke-linejoin="round" stroke-width="0.25"/>
      <path id="Path_9664" data-name="Path 9664" d="M2593.742,441.041c6,.2,10.312-6.325,15.739-5.119" transform="translate(-2413.246 -295.775)" fill="none" stroke="#000" stroke-linejoin="round" stroke-width="0.25"/>
      <path id="Path_9665" data-name="Path 9665" d="M2608.64,436.533c-4.323-7.664-1.382-13.928-4.323-18.388" transform="translate(-2410.047 -301.108)" fill="none" stroke="#000" stroke-linejoin="round" stroke-width="0.25"/>
      <ellipse id="Ellipse_1583" data-name="Ellipse 1583" cx="2.167" cy="3.188" rx="2.167" ry="3.188" transform="translate(68.561 22.332) rotate(-60)" fill="#dffffa" stroke="#231815" stroke-miterlimit="10" stroke-width="0.25"/>
      <ellipse id="Ellipse_1584" data-name="Ellipse 1584" cx="4.149" cy="6.411" rx="4.149" ry="6.411" transform="translate(95.716 36.34) rotate(-38.129)" fill="#dffffa" stroke="#231815" stroke-miterlimit="10" stroke-width="0.25"/>
      <path id="Path_9666" data-name="Path 9666" d="M2501.514,413.808c15.8,2.5,34.855-12.925,48.994-8.885" transform="translate(-2441.151 -305.314)" fill="none" stroke="#000" stroke-linejoin="round" stroke-width="0.25"/>
    </g>
    <path id="Path_9667" data-name="Path 9667" d="M2684.052,462.873a9.892,9.892,0,0,1,8.017-5.649" transform="translate(72.066 85.512)" fill="none" stroke="#000" stroke-linejoin="round" stroke-width="0.25"/>
    <path id="Path_9668" data-name="Path 9668" d="M2692.846,479.535a6.883,6.883,0,0,1,4.755-4.271" transform="translate(74.727 90.97)" fill="none" stroke="#000" stroke-linejoin="round" stroke-width="0.25"/>
    <path id="Path_9669" data-name="Path 9669" d="M2701.878,485.9s2.1-7.172,7.5-7.978" transform="translate(77.46 91.775)" fill="none" stroke="#000" stroke-linejoin="round" stroke-width="0.25"/>
    <ellipse id="Ellipse_1585" data-name="Ellipse 1585" cx="7.233" cy="3.587" rx="7.233" ry="3.587" transform="translate(2769.355 497.718)" fill="#c19165" stroke="#000" stroke-linejoin="round" stroke-width="0.25"/>
    <ellipse id="Ellipse_1586" data-name="Ellipse 1586" cx="6.277" cy="3.849" rx="6.277" ry="3.849" transform="translate(2786.571 459.896)" fill="#ecb36f" stroke="#000" stroke-linejoin="round" stroke-width="0.25"/>
    <path id="Path_9670" data-name="Path 9670" d="M2708.1,419.034c9.75,4.493,16.391-5.544,32.783,1.176" transform="translate(79.343 73.589)" fill="none" stroke="#000" stroke-linejoin="round" stroke-width="0.25"/>
    <path id="Path_9671" data-name="Path 9671" d="M2737.231,420.894c4.4-2.485,8.7,2.677,15.484,0" transform="translate(88.156 74.309)" fill="none" stroke="#000" stroke-linejoin="round" stroke-width="0.25"/>
    <path id="Path_9672" data-name="Path 9672" d="M2692.811,436.051c15.214-4.08,23.373,7.8,44.792,2.21" transform="translate(74.716 78.842)" fill="none" stroke="#000" stroke-linejoin="round" stroke-width="0.25"/>
    <ellipse id="Ellipse_1587" data-name="Ellipse 1587" cx="6.089" cy="2.764" rx="6.089" ry="2.764" transform="translate(2809.082 533.906)" fill="#c19165" stroke="#000" stroke-linejoin="round" stroke-width="0.25"/>
    <ellipse id="Ellipse_1588" data-name="Ellipse 1588" cx="2.989" cy="2.055" rx="2.989" ry="2.055" transform="translate(2827.238 532.562)" fill="#ecb36f" stroke="#000" stroke-linejoin="round" stroke-width="0.25"/>
    <g id="Group_2856" data-name="Group 2856" transform="translate(2537.446 599.877)">
      <path id="Path_9673" data-name="Path 9673" d="M2570.44,501.533c2.776,2.552,3.556,31.844-8.89,30.875,0,0-1.616,12.769-10.022,8.567,0,0-13.093,12.932-13.74,1.778,0,0-18.1,9.86-15.679-2.262,0,0-4.934.448-5.83-3.5s4.216-5.832,4.216-5.832-3.678-2.421-2.6-5.652,8.074-4.037,10.407-3.139c0,0-2.064-7.087,11.483-3.948,0,0-1.435-6.28,9.6-2.333,0,0-3.05-5.2,5.474-3.677,0,0-3.859-2.961,1.255-5.024S2568.174,499.449,2570.44,501.533Z" transform="translate(-2516.173 -501.093)" fill="#bfc632" stroke="#231815" stroke-miterlimit="10" stroke-width="0.25"/>
      <path id="Path_9674" data-name="Path 9674" d="M2527.2,533.758s25.548-1.486,39.9-32.327" transform="translate(-2512.836 -500.99)" fill="none" stroke="#000" stroke-linejoin="round" stroke-width="0.25"/>
    </g>
    <circle id="Ellipse_1589" data-name="Ellipse 1589" cx="3.032" cy="3.032" r="3.032" transform="translate(2541.771 586.006)" fill="#c19165" stroke="#000" stroke-linejoin="round" stroke-width="0.25"/>
    <ellipse id="Ellipse_1590" data-name="Ellipse 1590" cx="3.531" cy="2.118" rx="3.531" ry="2.118" transform="translate(2553.131 588.832)" fill="#ecb36f" stroke="#000" stroke-linejoin="round" stroke-width="0.25"/>
    <ellipse id="Ellipse_1591" data-name="Ellipse 1591" cx="5.715" cy="2.84" rx="5.715" ry="2.84" transform="translate(2483.668 543.94)" fill="#c19165" stroke="#000" stroke-linejoin="round" stroke-width="0.25"/>
    <ellipse id="Ellipse_1592" data-name="Ellipse 1592" cx="3.531" cy="1.728" rx="3.531" ry="1.728" transform="translate(2471.71 539.103)" fill="#c19165" stroke="#000" stroke-linejoin="round" stroke-width="0.25"/>
    <path id="Path_9675" data-name="Path 9675" d="M2465.111,438.088s5.618,3.1,14,0,12.158,1.844,19.2,0" transform="translate(5.824 79.404)" fill="none" stroke="#000" stroke-linejoin="round" stroke-width="0.25"/>
    <path id="Path_9676" data-name="Path 9676" d="M2487.384,446.435a3.688,3.688,0,0,1,4.193-1.261c2.935.758,4.779.005,5.7-1.085" transform="translate(12.563 81.538)" fill="none" stroke="#000" stroke-linejoin="round" stroke-width="0.25"/>
    <path id="Path_9677" data-name="Path 9677" d="M2540.9,461.2s4.973-1.962,12.063,0c12.063,3.34,11.74-1.507,20.033,0" transform="translate(28.754 86.451)" fill="none" stroke="#000" stroke-linejoin="round" stroke-width="0.25"/>
    <path id="Path_9678" data-name="Path 9678" d="M2568.967,463.111a4.77,4.77,0,0,1,3.532-.749" transform="translate(37.246 87.038)" fill="none" stroke="#000" stroke-linejoin="round" stroke-width="0.25"/>
    <path id="Path_9679" data-name="Path 9679" d="M2627.049,463.924c2.344-2.042,4.277,3.275,10.025,3.475s8.287-1.67,7.952.937c0,0,6.816-2.139,6.816.8,0,0,8.622-4.945,9.424-.8,0,0,4.543-3.609,7.619-1.338s.468,5.68.468,5.68,5.813-.267,6.682,3.409-4.21,4.077-4.21,4.077a5.161,5.161,0,0,1,2.473,5.947c-1.07,4.143-9.624,3.742-13.3,2.339,0,0,2.073,6.349-3.475,7.284s-8.488-3.876-9.555-6.415c0,0-8.088,3.809-12.564-8.822,0,0-8.287-.2-6.55-8.62C2628.854,471.878,2624.443,466.2,2627.049,463.924Z" transform="translate(54.571 87.398)" fill="#62a542" stroke="#000" stroke-linejoin="round" stroke-width="0.25"/>
    <path id="Path_9680" data-name="Path 9680" d="M2665.45,476.447s-21.7,11.852-38.593-12.631" transform="translate(54.762 87.506)" fill="none" stroke="#000" stroke-linejoin="round" stroke-width="0.25"/>
    <ellipse id="Ellipse_1593" data-name="Ellipse 1593" cx="2.428" cy="4.08" rx="2.428" ry="4.08" transform="translate(2692.852 589.168) rotate(-74.631)" fill="#c19165" stroke="#000" stroke-linejoin="round" stroke-width="0.25"/>
    <ellipse id="Ellipse_1594" data-name="Ellipse 1594" cx="3.473" cy="2.259" rx="3.473" ry="2.259" transform="translate(2681.177 589.122)" fill="#c19165" stroke="#000" stroke-linejoin="round" stroke-width="0.25"/>
    <path id="Path_9681" data-name="Path 9681" d="M2642.428,502.442c9.668-5.139,18.12,4.192,27.518.878" transform="translate(59.473 98.715)" fill="none" stroke="#000" stroke-linejoin="round" stroke-width="0.25"/>
    <path id="Path_9682" data-name="Path 9682" d="M2662.205,494.22c1.419-1.826,10.209-1.555,15.687,0s12.71-.038,14.807-1.27" transform="translate(65.456 96.321)" fill="none" stroke="#000" stroke-linejoin="round" stroke-width="0.25"/>
    <path id="Path_9683" data-name="Path 9683" d="M2611.761,504.051c6.479-4.386,20.322,4.352,33.966-3.189" transform="translate(50.194 98.715)" fill="none" stroke="#000" stroke-linejoin="round" stroke-width="0.25"/>
    <ellipse id="Ellipse_1595" data-name="Ellipse 1595" cx="10.766" cy="5.333" rx="10.766" ry="5.333" transform="translate(2754.81 627.961) rotate(-6.521)" fill="#ecb36f" stroke="#000" stroke-linejoin="round" stroke-width="0.25"/>
    <ellipse id="Ellipse_1596" data-name="Ellipse 1596" cx="4.747" cy="2.739" rx="4.747" ry="2.739" transform="translate(2779.059 621.513) rotate(-6.521)" fill="#ecb36f" stroke="#000" stroke-linejoin="round" stroke-width="0.25"/>
    <path id="Path_9684" data-name="Path 9684" d="M2588.682,527.559c8.558-5.871,22.611,3.582,30.062-1.094" transform="translate(43.211 106.19)" fill="none" stroke="#000" stroke-linejoin="round" stroke-width="0.25"/>
    <path id="Path_9685" data-name="Path 9685" d="M2616.336,527.785a13.23,13.23,0,0,0,5.871,0" transform="translate(51.578 106.861)" fill="none" stroke="#000" stroke-linejoin="round" stroke-width="0.25"/>
    <g id="Group_2866" data-name="Group 2866" transform="translate(2594.893 548.825)">
      <g id="Group_2857" data-name="Group 2857" transform="translate(7.377)">
        <path id="Path_9686" data-name="Path 9686" d="M2584.141,467.412a9.888,9.888,0,0,0-3.944-1.988,6.628,6.628,0,0,0-8.547,4.912c-4.765-1.056-9.205,4.954-1.656,11.063a23.227,23.227,0,0,1,2.435-.421v-.007c-.051-.176,4.625-2,6.649-5.729a1.886,1.886,0,0,1,1.9-1,21.7,21.7,0,0,0,5,.091,14.2,14.2,0,0,0,2.606-.534A15.836,15.836,0,0,0,2584.141,467.412Z" transform="translate(-2565.94 -460.918)" fill="#fff6eb" stroke="#000" stroke-miterlimit="10" stroke-width="0.25"/>
        <path id="Path_9687" data-name="Path 9687" d="M2594.622,467.534c-.728-3.707-2.313-5.4-3.9-5.607-3.192-.426-4.666,4.193-4.666,4.193-.246-1.512-2.824-3.645-5.034-2.19-.974.641-1.351,2.154-1.09,4.463a15.836,15.836,0,0,1,4.44,6.389,9.073,9.073,0,0,0,3.348-1.752,1.888,1.888,0,0,1,2.106-.281,16.529,16.529,0,0,0,2.246.94,13.827,13.827,0,0,0,2.9.634A28.4,28.4,0,0,0,2594.622,467.534Z" transform="translate(-2561.731 -461.899)" fill="#fff6eb" stroke="#000" stroke-miterlimit="10" stroke-width="0.25"/>
        <path id="Path_9688" data-name="Path 9688" d="M2601.146,475.648s-.71,3.474.46,5.4a26.218,26.218,0,0,1,8.789,2.41,14.954,14.954,0,0,1,1.8,1.047c1.779-4.62-3.322-6.063-3.322-6.063,2.551-3.486-1.455-6-6.152-5.3a11.578,11.578,0,0,0-1.793.418,11.542,11.542,0,0,1-1.423,2.041A10.6,10.6,0,0,0,2601.146,475.648Z" transform="translate(-2555.785 -458.534)" fill="#fff6eb" stroke="#000" stroke-miterlimit="10" stroke-width="0.25"/>
        <path id="Path_9689" data-name="Path 9689" d="M2603.13,467.371c-2.368-1.8-5.4,0-5.4,0-.167-3.555-3.786-4.15-6.536-.59a28.393,28.393,0,0,1,.349,6.789,10.761,10.761,0,0,0,2.835-.051,1.892,1.892,0,0,1,2.015.974,6.759,6.759,0,0,0,3.8,3.285,8,8,0,0,0,1.83.427,11.5,11.5,0,0,0,1.422-2.041C2605.6,472.176,2604.39,468.329,2603.13,467.371Z" transform="translate(-2558.3 -461.145)" fill="#fff6eb" stroke="#000" stroke-miterlimit="10" stroke-width="0.25"/>
        <path id="Path_9690" data-name="Path 9690" d="M2600.622,477.807a26.519,26.519,0,0,1-3.527,1.588,4.688,4.688,0,0,1-3.513-.64c-.134.655-.261,1.3-.417,1.992,0,0-3.077,3.148-6.574-.531.022.217.048.436.066.654a24.56,24.56,0,0,1-6.269,1.146,4.9,4.9,0,0,1-.088,2.015,5.458,5.458,0,0,1,4.37,1.209,6.424,6.424,0,0,1,1.592,2.378,5.059,5.059,0,0,1,3.55-2.41c1.175-.092,3.081.474,4.781,2.659a3.49,3.49,0,0,1,1.566-2.209,5.487,5.487,0,0,1,3.768-.405,5.74,5.74,0,0,1,.336-3.814,2.492,2.492,0,0,1,1.145-1.12,4.819,4.819,0,0,1-.682-1.327A3.094,3.094,0,0,1,2600.622,477.807Z" transform="translate(-2561.595 -457.086)" fill="#ffb829" stroke="#000" stroke-linejoin="round" stroke-width="0.25"/>
        <path id="Path_9691" data-name="Path 9691" d="M2589.428,482.036a37.027,37.027,0,0,0-2.354-10.247,14.194,14.194,0,0,1-2.606.534,21.7,21.7,0,0,1-5-.091,1.887,1.887,0,0,0-1.9,1c-2.024,3.732-6.7,5.553-6.649,5.729v.007a17.9,17.9,0,0,1,7.47.576c3.4,1.062,4.564,2.755,4.833,4.295a24.563,24.563,0,0,0,6.27-1.146C2589.477,482.473,2589.45,482.254,2589.428,482.036Z" transform="translate(-2564.433 -458.906)" fill="#ffb829" stroke="#000" stroke-linejoin="round" stroke-width="0.25"/>
        <path id="Path_9692" data-name="Path 9692" d="M2591.022,471.215a16.529,16.529,0,0,1-2.246-.94,1.889,1.889,0,0,0-2.106.281,9.07,9.07,0,0,1-3.348,1.752,37.035,37.035,0,0,1,2.354,10.247c3.5,3.68,6.574.531,6.574.531.156-.69.283-1.336.417-1.992a63.116,63.116,0,0,0,1.254-9.246A13.843,13.843,0,0,1,2591.022,471.215Z" transform="translate(-2560.681 -459.426)" fill="#ffb829" stroke="#000" stroke-linejoin="round" stroke-width="0.25"/>
        <path id="Path_9693" data-name="Path 9693" d="M2595.9,478.658a3.093,3.093,0,0,0,.1,1.184,4.815,4.815,0,0,0,.683,1.327,11.3,11.3,0,0,1,6.009-.723c-1.17-1.923-.46-5.4-.46-5.4A10.614,10.614,0,0,1,2600.6,475,16.552,16.552,0,0,1,2595.9,478.658Z" transform="translate(-2556.879 -457.936)" fill="#ffb829" stroke="#000" stroke-linejoin="round" stroke-width="0.25"/>
        <path id="Path_9694" data-name="Path 9694" d="M2600.4,475.664a6.757,6.757,0,0,1-3.8-3.285,1.892,1.892,0,0,0-2.015-.974,10.762,10.762,0,0,1-2.836.051,63.149,63.149,0,0,1-1.254,9.246,4.687,4.687,0,0,0,3.513.64,26.49,26.49,0,0,0,3.527-1.588,16.557,16.557,0,0,0,4.693-3.661A8,8,0,0,1,2600.4,475.664Z" transform="translate(-2558.51 -459.031)" fill="#ffb829" stroke="#000" stroke-linejoin="round" stroke-width="0.25"/>
      </g>
      <g id="Group_2865" data-name="Group 2865" transform="translate(0 16.581)">
        <g id="Group_2864" data-name="Group 2864">
          <path id="Path_9695" data-name="Path 9695" d="M2579.254,481.061s-.3-4.883,2.479-3.111c0,0,1.7-5.116,4.766-1.722,0,0,3.8-3.925,5.622.518,0,0,3.893-4.364,5.183.348,0,0,2.726-1.389,2.726,1.636,0,0,3.074-.993,3.074,2.827l-1.488,6.113-10.015,3.208-9.471-1.537-4.017-2.38Z" transform="translate(-2554.879 -474.629)" fill="#fff6eb" stroke="#000" stroke-miterlimit="10" stroke-width="0.25"/>
          <circle id="Ellipse_1597" data-name="Ellipse 1597" cx="0.522" cy="0.522" r="0.522" transform="translate(29.717 5.472)" fill="#ffb829" stroke="#000" stroke-linejoin="round" stroke-width="0.25"/>
          <circle id="Ellipse_1598" data-name="Ellipse 1598" cx="0.522" cy="0.522" r="0.522" transform="translate(32.566 3.003)" fill="#ffb829" stroke="#000" stroke-linejoin="round" stroke-width="0.25"/>
          <circle id="Ellipse_1599" data-name="Ellipse 1599" cx="0.522" cy="0.522" r="0.522" transform="translate(34.685 7.876)" fill="#ffb829" stroke="#000" stroke-linejoin="round" stroke-width="0.25"/>
          <circle id="Ellipse_1600" data-name="Ellipse 1600" cx="0.522" cy="0.522" r="0.522" transform="translate(38.015 4.949)" fill="#ffb829" stroke="#000" stroke-linejoin="round" stroke-width="0.25"/>
          <circle id="Ellipse_1601" data-name="Ellipse 1601" cx="0.522" cy="0.522" r="0.522" transform="translate(40.405 7.876)" fill="#ffb829" stroke="#000" stroke-linejoin="round" stroke-width="0.25"/>
          <circle id="Ellipse_1602" data-name="Ellipse 1602" cx="0.522" cy="0.522" r="0.522" transform="translate(43.171 4.949)" fill="#ffb829" stroke="#000" stroke-linejoin="round" stroke-width="0.25"/>
          <g id="Group_2858" data-name="Group 2858" transform="translate(49.002 5.929)">
            <path id="Path_9696" data-name="Path 9696" d="M2612.68,482.637a14.912,14.912,0,0,0-1.8-1.047,26.221,26.221,0,0,0-8.789-2.41,2.5,2.5,0,0,0,.978.951c2.479,1.288,1.39,2.4-1.454,4.351h0a8.215,8.215,0,0,0-2.257,2.307,8.586,8.586,0,0,0-1.241,3.071,1.963,1.963,0,0,1-.221.6l.018.023a17.371,17.371,0,0,0,8.742,5.172,14.014,14.014,0,0,0,4.687.478c4.337-.405,2.447-5.034,2.447-5.034C2618.332,490.291,2617.236,485.7,2612.68,482.637Z" transform="translate(-2597.896 -479.18)" fill="#fff6eb"/>
            <path id="Path_9697" data-name="Path 9697" d="M2612.68,482.637a14.912,14.912,0,0,0-1.8-1.047,26.221,26.221,0,0,0-8.789-2.41,2.5,2.5,0,0,0,.978.951c2.479,1.288,1.39,2.4-1.454,4.351h0a8.215,8.215,0,0,0-2.257,2.307,8.586,8.586,0,0,0-1.241,3.071,1.963,1.963,0,0,1-.221.6l.018.023a17.371,17.371,0,0,0,8.742,5.172,14.014,14.014,0,0,0,4.687.478c4.337-.405,2.447-5.034,2.447-5.034C2618.332,490.291,2617.236,485.7,2612.68,482.637Z" transform="translate(-2597.896 -479.18)" fill="none" stroke="#000" stroke-miterlimit="10" stroke-width="0.25"/>
          </g>
          <g id="Group_2863" data-name="Group 2863" transform="translate(0 3.327)">
            <g id="Group_2859" data-name="Group 2859" transform="translate(0 0.151)">
              <path id="Path_9698" data-name="Path 9698" d="M2578.377,487.5a5.919,5.919,0,0,0-3.4-2.351,1.865,1.865,0,0,1-1.085-2.566,6.565,6.565,0,0,0,.615-2.962,8.884,8.884,0,0,0-.365-2.324,23.217,23.217,0,0,0-2.434.421,22.6,22.6,0,0,0-9.455,4.5c-3.2,2.893-2.631,6.652,2.537,5.9,0,0-3.289,3.2,1.128,5.734,1.219.7,3.1.761,5.229.4a31.428,31.428,0,0,1,7.238-6.75Z" transform="translate(-2560.276 -477.299)" fill="#fff6eb"/>
              <path id="Path_9699" data-name="Path 9699" d="M2578.377,487.5a5.919,5.919,0,0,0-3.4-2.351,1.865,1.865,0,0,1-1.085-2.566,6.565,6.565,0,0,0,.615-2.962,8.884,8.884,0,0,0-.365-2.324,23.217,23.217,0,0,0-2.434.421,22.6,22.6,0,0,0-9.455,4.5c-3.2,2.893-2.631,6.652,2.537,5.9,0,0-3.289,3.2,1.128,5.734,1.219.7,3.1.761,5.229.4a31.428,31.428,0,0,1,7.238-6.75Z" transform="translate(-2560.276 -477.299)" fill="none" stroke="#000" stroke-miterlimit="10" stroke-width="0.25"/>
            </g>
            <g id="Group_2860" data-name="Group 2860" transform="translate(7.812 10.349)">
              <path id="Path_9700" data-name="Path 9700" d="M2588,491.475a7.692,7.692,0,0,0-6.3-2.025,1.825,1.825,0,0,1-1.891-1.4c-.034-.142-.076-.289-.121-.436a3.031,3.031,0,0,0-3.116-2.478,31.434,31.434,0,0,0-7.238,6.75,14.44,14.44,0,0,0-2.913,5.834c-1.319,7.336,6.8,3.633,6.8,3.633.183,9.219,9.408,5.05,14.158-1.913.14-.206.277-.413.409-.624a25.385,25.385,0,0,0,2.119-4.134A7.377,7.377,0,0,0,2588,491.475Z" transform="translate(-2566.274 -485.128)" fill="#fff6eb"/>
              <path id="Path_9701" data-name="Path 9701" d="M2588,491.475a7.692,7.692,0,0,0-6.3-2.025,1.825,1.825,0,0,1-1.891-1.4c-.034-.142-.076-.289-.121-.436a3.031,3.031,0,0,0-3.116-2.478,31.434,31.434,0,0,0-7.238,6.75,14.44,14.44,0,0,0-2.913,5.834c-1.319,7.336,6.8,3.633,6.8,3.633.183,9.219,9.408,5.05,14.158-1.913.14-.206.277-.413.409-.624a25.385,25.385,0,0,0,2.119-4.134A7.377,7.377,0,0,0,2588,491.475Z" transform="translate(-2566.274 -485.128)" fill="none" stroke="#000" stroke-miterlimit="10" stroke-width="0.25"/>
            </g>
            <g id="Group_2861" data-name="Group 2861" transform="translate(43.205 13.88)">
              <path id="Path_9702" data-name="Path 9702" d="M2599.261,487.862l-.018-.023a1.853,1.853,0,0,1-1.614.986,3.679,3.679,0,0,0-3.525,2.027,1.883,1.883,0,0,1-.659.728c.146.681.281,1.392.392,2.169a29.4,29.4,0,0,1,.211,6.919c1.748,3.452,4.241,4.752,6.95,4.134a5.071,5.071,0,0,0,3.886-4.107c4.558,2.557,5.367-2.222,3.119-7.66A17.37,17.37,0,0,1,2599.261,487.862Z" transform="translate(-2593.445 -487.839)" fill="#fff6eb"/>
              <path id="Path_9703" data-name="Path 9703" d="M2599.261,487.862l-.018-.023a1.853,1.853,0,0,1-1.614.986,3.679,3.679,0,0,0-3.525,2.027,1.883,1.883,0,0,1-.659.728c.146.681.281,1.392.392,2.169a29.4,29.4,0,0,1,.211,6.919c1.748,3.452,4.241,4.752,6.95,4.134a5.071,5.071,0,0,0,3.886-4.107c4.558,2.557,5.367-2.222,3.119-7.66A17.37,17.37,0,0,1,2599.261,487.862Z" transform="translate(-2593.445 -487.839)" fill="none" stroke="#000" stroke-miterlimit="10" stroke-width="0.25"/>
            </g>
            <g id="Group_2862" data-name="Group 2862" transform="translate(28.915 17.621)">
              <path id="Path_9704" data-name="Path 9704" d="M2597.156,492.88c-.111-.776-.246-1.487-.392-2.169a1.647,1.647,0,0,1-1.189.267,2.662,2.662,0,0,0-1.007.021,2.7,2.7,0,0,0-1.248.638,1.908,1.908,0,0,1-2.058.348A5.1,5.1,0,0,0,2585,493v-.008a25.407,25.407,0,0,1-2.119,4.134c-.132.211-.27.418-.409.624a23.612,23.612,0,0,0,.461,3.467c1.786,8.335,7.541,2.718,7.541,2.718,3.633,4.618,6.315,1.684,6.892-4.134A29.425,29.425,0,0,0,2597.156,492.88Z" transform="translate(-2582.474 -490.711)" fill="#fff6eb"/>
              <path id="Path_9705" data-name="Path 9705" d="M2597.156,492.88c-.111-.776-.246-1.487-.392-2.169a1.647,1.647,0,0,1-1.189.267,2.662,2.662,0,0,0-1.007.021,2.7,2.7,0,0,0-1.248.638,1.908,1.908,0,0,1-2.058.348A5.1,5.1,0,0,0,2585,493v-.008a25.407,25.407,0,0,1-2.119,4.134c-.132.211-.27.418-.409.624a23.612,23.612,0,0,0,.461,3.467c1.786,8.335,7.541,2.718,7.541,2.718,3.633,4.618,6.315,1.684,6.892-4.134A29.425,29.425,0,0,0,2597.156,492.88Z" transform="translate(-2582.474 -490.711)" fill="none" stroke="#000" stroke-miterlimit="10" stroke-width="0.25"/>
            </g>
            <path id="Path_9706" data-name="Path 9706" d="M2583.325,482.2c-.27-1.54-1.437-3.233-4.834-4.295a17.9,17.9,0,0,0-7.47-.576,8.893,8.893,0,0,1,.365,2.324,6.565,6.565,0,0,1-.615,2.962,1.865,1.865,0,0,0,1.085,2.566,5.917,5.917,0,0,1,3.4,2.351h.008a18.421,18.421,0,0,1,7.973-3.318A4.9,4.9,0,0,0,2583.325,482.2Z" transform="translate(-2557.156 -477.183)" fill="#ffb829" stroke="#000" stroke-linejoin="round" stroke-width="0.25"/>
            <path id="Path_9707" data-name="Path 9707" d="M2586.521,483.8a5.457,5.457,0,0,0-4.37-1.209,18.42,18.42,0,0,0-7.973,3.318,3.03,3.03,0,0,1,3.115,2.478c.046.147.087.294.121.436a1.825,1.825,0,0,0,1.891,1.4,7.694,7.694,0,0,1,6.3,2.025,17.118,17.118,0,0,1,2.5-6.073A6.422,6.422,0,0,0,2586.521,483.8Z" transform="translate(-2556.07 -475.557)" fill="#ffb829" stroke="#000" stroke-linejoin="round" stroke-width="0.25"/>
            <path id="Path_9708" data-name="Path 9708" d="M2592.838,483.961a3.49,3.49,0,0,0-1.566,2.209,16.556,16.556,0,0,1,2.831,6.749,1.882,1.882,0,0,0,.659-.728,3.679,3.679,0,0,1,3.525-2.027,1.853,1.853,0,0,0,1.614-.986,14.614,14.614,0,0,1-3.295-5.622A5.485,5.485,0,0,0,2592.838,483.961Z" transform="translate(-2550.898 -475.297)" fill="#ffb829" stroke="#000" stroke-linejoin="round" stroke-width="0.25"/>
            <path id="Path_9709" data-name="Path 9709" d="M2593.789,486.15c-1.7-2.184-3.607-2.751-4.781-2.659a5.059,5.059,0,0,0-3.55,2.41,17.132,17.132,0,0,0-2.505,6.073,7.374,7.374,0,0,1,1.9,3.2v.008a5.1,5.1,0,0,1,6.259-1.012,1.908,1.908,0,0,0,2.058-.348,2.7,2.7,0,0,1,1.248-.638,2.66,2.66,0,0,1,1.006-.021,1.647,1.647,0,0,0,1.189-.267A16.56,16.56,0,0,0,2593.789,486.15Z" transform="translate(-2553.415 -475.277)" fill="#ffb829" stroke="#000" stroke-linejoin="round" stroke-width="0.25"/>
            <path id="Path_9710" data-name="Path 9710" d="M2603.877,480.15a2.5,2.5,0,0,1-.978-.951,11.3,11.3,0,0,0-6.009.723,2.493,2.493,0,0,0-1.145,1.12,5.743,5.743,0,0,0-.336,3.814,14.611,14.611,0,0,0,3.295,5.622,1.963,1.963,0,0,0,.221-.6,8.586,8.586,0,0,1,1.24-3.071,8.22,8.22,0,0,1,2.257-2.307h0C2605.267,482.555,2606.355,481.439,2603.877,480.15Z" transform="translate(-2549.701 -476.598)" fill="#ffb829" stroke="#000" stroke-linejoin="round" stroke-width="0.25"/>
          </g>
        </g>
      </g>
    </g>
    <g id="Group_2872" data-name="Group 2872" transform="translate(2493.812 433.55)">
      <g id="Group_2867" data-name="Group 2867" transform="translate(23.388 53.992)">
        <path id="Path_9711" data-name="Path 9711" d="M2511.456,466.412a15.137,15.137,0,0,0-5.084-4.491c-3.3-1.77-4.6-7.315-1.063-6.254,0,0-3.634-3.658-3.527-7.787s2.939-2.478,2.939-2.478a55.339,55.339,0,0,1-3.658-8.26c-1.416-4.248.943-6.489,2.713-4.483,0,0-2.36-6.961-.471-9.084s4.817,1.107,4.817,1.107-.667-7.951,3.334-9.6,4.823,6.135,4.823,6.135,2.6-3.186,5.667-1.18,0,8.553,0,8.553,6.606.31,2.95,12.043c0,0,7.267.991-5.451,18.219C2519.444,458.85,2515.005,467.6,2511.456,466.412Z" transform="translate(-2500.629 -414.85)" fill="#bfc632" stroke="#231815" stroke-miterlimit="10" stroke-width="0.25"/>
        <path id="Path_9712" data-name="Path 9712" d="M2510.7,424.719s4.5,23.141-1.759,38.707" transform="translate(-2498.114 -411.865)" fill="none" stroke="#000" stroke-linejoin="round" stroke-width="0.25"/>
      </g>
      <path id="Path_9713" data-name="Path 9713" d="M2553.656,419.833s-.763,10.955-10.642,20.867-9.036,14.095-18.734,19.874-13.071,18.71-22.066,23.911a57.886,57.886,0,0,1-17.569,6.605l.872,8.756s6.425,1.966,15.292-3.836c10.243-6.7,10.963-9.558,17.147-17.006s11.666-14.337,21.5-19.959,13.915-7.944,24.316-9.945,15.46-4.107,19.114-7.693l-1.546-2.153s-6.367,4.612-19.838,6.581-13.32,4.778-20.143,7.87a53.821,53.821,0,0,0,13.418-16.725c5.9-11.1,6.61-16.446,9.416-24.381l-7.729-3.448Z" transform="translate(-2482.078 -362.583)" fill="#bfc632" stroke="#231815" stroke-miterlimit="10" stroke-width="0.25"/>
      <path id="Path_9714" data-name="Path 9714" d="M2548.295,403.807c3.431-1.615,9.324,1.712,11.132,12.8s-3.025,14.509-6.365,10.228c0,0-8.1,5.042-9.143-6.469S2545.019,405.348,2548.295,403.807Z" transform="translate(-2464.225 -364.316)" fill="#fff6eb" stroke="#000" stroke-miterlimit="10" stroke-width="0.25"/>
      <g id="Group_2868" data-name="Group 2868" transform="translate(46.374 0)">
        <path id="Path_9715" data-name="Path 9715" d="M2538.451,383.163c-.045-.031-.086-.064-.133-.1-7.444-5.059-14.341-5.059-14.43,2.287,0,0-6.118-.289-5.579,5.812.224,2.524,2.987,5.193,7.013,7.428a51.13,51.13,0,0,1,7.65.755v-.005c.6-2.972,1.892-4.636,4.949-5.114a8.736,8.736,0,0,0,5.343-2.737,7.839,7.839,0,0,0,1.537-2.629A32.353,32.353,0,0,0,2538.451,383.163Z" transform="translate(-2518.276 -371.548)" fill="#fff6eb" stroke="#000" stroke-miterlimit="10" stroke-width="0.25"/>
        <path id="Path_9716" data-name="Path 9716" d="M2551.684,386.159l.046-.021a4.453,4.453,0,0,0,2.846,3.284c2.457.86,4.573-1.209,6.895,1.429,1.72,1.958,3.25,2.2,3.927,2.2.3-.16.6-.322.922-.472.563-.263,1.131-.483,1.7-.684a8.734,8.734,0,0,0,.869-2.363c1.363-6.815-4.249-10.422-8.658-6.734,0,0,.4-5.773-4.33-5.051-2.243.343-3.532,2.651-4.275,4.982a13.1,13.1,0,0,1,.107,1.672C2551.727,384.988,2551.709,385.575,2551.684,386.159Z" transform="translate(-2508.187 -372.103)" fill="#fff6eb" stroke="#000" stroke-miterlimit="10" stroke-width="0.25"/>
        <path id="Path_9717" data-name="Path 9717" d="M2557.148,384.026c-.994-7.94-8.9-15.366-13.924-6.825,0,0-4.168-3.527-8.1-.32-2.038,1.663-2.1,4.924-1.24,8.134a32.355,32.355,0,0,1,6.353,5.7h0a11.759,11.759,0,0,0,5.065,0c2.44-.641,2.168-3.1,5.648-2.484a11.061,11.061,0,0,0,5.368-.435,8.272,8.272,0,0,0,.887-.344c.025-.585.043-1.171.046-1.757A13.1,13.1,0,0,0,2557.148,384.026Z" transform="translate(-2513.711 -373.4)" fill="#fff6eb" stroke="#000" stroke-miterlimit="10" stroke-width="0.25"/>
        <path id="Path_9718" data-name="Path 9718" d="M2575.948,392.485c2.518-4-4.267-6.071-11.13-3.65-.567.2-1.135.421-1.7.684-.319.15-.62.311-.922.472a1.981,1.981,0,0,0,.372-.031,8.368,8.368,0,0,0-.307,2.24,5.1,5.1,0,0,0,1.127,3.418c1.911,2.184,4.913,1.5,5.6,3.208.369.921-.039,2.124-.288,3.486a20.5,20.5,0,0,1,6.86.619c3.618-1.766,5-4.25,5.039-6.089C2580.679,393.1,2575.948,392.485,2575.948,392.485Z" transform="translate(-2504.988 -369.043)" fill="#fff6eb" stroke="#000" stroke-miterlimit="10" stroke-width="0.25"/>
        <path id="Path_9719" data-name="Path 9719" d="M2557.787,407.284c1.727-1.313,2.05-.643,6.308.451-.06-.1-.13-.193-.187-.289l.4-3.367s.5-.258,1.341-.621c-.773-.072-1.561-.155-2.383-.26l-3.127-5.212a13.747,13.747,0,0,1,.718-1.355l-.156.073-8.08-1.745h0l-5.068.488s-1.968-1.312-4.35-3.035c.033.091.055.155.055.155l-2.976,7.367c-.533.017-1.073.014-1.617,0a7.244,7.244,0,0,1,2.392,3.031,5.059,5.059,0,0,1,.382,2.074,4.853,4.853,0,0,1,2.314.577c4.5,2.507,4.92,7.224,1.458,14.93,3.438-2.137,5.164-2.164,8.44-.614a5.542,5.542,0,0,0,5.909-.547,26.971,26.971,0,0,1-1.184-4.166Z" transform="translate(-2512.107 -367.648)" fill="#ffb829" stroke="#000" stroke-linejoin="round" stroke-width="0.25"/>
        <path id="Path_9720" data-name="Path 9720" d="M2545.958,394.14a25.847,25.847,0,0,0-4.568-7.444,7.843,7.843,0,0,1-1.537,2.629,8.737,8.737,0,0,1-5.343,2.737c-3.057.478-4.345,2.141-4.95,5.114v.005c4.761.839,9.168,2.351,11.861,4.486.543.01,1.084.013,1.616,0l2.976-7.367Z" transform="translate(-2514.862 -369.377)" fill="#ffb829" stroke="#000" stroke-linejoin="round" stroke-width="0.25"/>
        <path id="Path_9721" data-name="Path 9721" d="M2554.725,384.535a11.062,11.062,0,0,1-5.368.435c-3.48-.615-3.208,1.843-5.648,2.484a11.76,11.76,0,0,1-5.065,0h0a25.835,25.835,0,0,1,4.568,7.444c2.381,1.723,4.349,3.035,4.349,3.035l5.068-.488,1.025-.1a71.438,71.438,0,0,0,1.959-13.155A8.3,8.3,0,0,1,2554.725,384.535Z" transform="translate(-2512.114 -370.135)" fill="#ffb829" stroke="#000" stroke-linejoin="round" stroke-width="0.25"/>
        <path id="Path_9722" data-name="Path 9722" d="M2571.119,397.8c-.684-1.706-3.686-1.024-5.6-3.208a5.1,5.1,0,0,1-1.127-3.418,32.979,32.979,0,0,1-8.526,5.825,13.765,13.765,0,0,0-.718,1.355l3.128,5.212c.822.105,1.61.189,2.382.261a32.183,32.183,0,0,1,10.17-2.54C2571.08,399.929,2571.488,398.725,2571.119,397.8Z" transform="translate(-2507.119 -368.021)" fill="#ffb829" stroke="#000" stroke-linejoin="round" stroke-width="0.25"/>
        <path id="Path_9723" data-name="Path 9723" d="M2566.077,391.088c-.677,0-2.207-.242-3.927-2.2-2.322-2.638-4.438-.569-6.895-1.429a4.453,4.453,0,0,1-2.846-3.284l-.046.021a71.437,71.437,0,0,1-1.959,13.155l-1.025.1,8.08,1.745.156-.073a32.977,32.977,0,0,0,8.526-5.825,8.362,8.362,0,0,1,.308-2.24A1.986,1.986,0,0,1,2566.077,391.088Z" transform="translate(-2508.866 -370.14)" fill="#ffb829" stroke="#000" stroke-linejoin="round" stroke-width="0.25"/>
      </g>
      <g id="Group_2869" data-name="Group 2869" transform="translate(95.85 67.477)">
        <circle id="Ellipse_1603" data-name="Ellipse 1603" cx="9.194" cy="9.194" r="9.194" fill="#ffb829" stroke="#000" stroke-linejoin="round" stroke-width="0.25"/>
        <path id="Path_9724" data-name="Path 9724" d="M2561.551,425.429s6.241,2.758,4.031,8.254c0,0,1.523-5.081,5.456-5.085" transform="translate(-2554.659 -425.135)" fill="#ffb829" stroke="#000" stroke-linejoin="round" stroke-width="0.25"/>
        <path id="Path_9725" data-name="Path 9725" d="M2557.651,439.056s6.47-.121,9.111-6.11c-2.754-4.489-8.921-5.079-8.921-5.079" transform="translate(-2555.839 -424.398)" fill="#ffb829" stroke="#000" stroke-linejoin="round" stroke-width="0.25"/>
        <path id="Path_9726" data-name="Path 9726" d="M2556.269,432.914s3.708-1.848,10.911-1.107c0,0,2.19,4.409-2.9,9.761" transform="translate(-2556.257 -423.259)" fill="none" stroke="#000" stroke-linejoin="round" stroke-width="0.25"/>
        <path id="Path_9727" data-name="Path 9727" d="M2571.853,430.615a5.816,5.816,0,0,1-7.207,1.5c5.46,3.875,3.448,8.244,3.448,8.244" transform="translate(-2553.722 -423.566)" fill="#ffb829" stroke="#000" stroke-linejoin="round" stroke-width="0.25"/>
      </g>
      <ellipse id="Ellipse_1604" data-name="Ellipse 1604" cx="2.578" cy="4.529" rx="2.578" ry="4.529" transform="translate(0 129.005) rotate(-11.642)" fill="#62a542" stroke="#000" stroke-linejoin="round" stroke-width="0.25"/>
      <g id="Group_2871" data-name="Group 2871" transform="translate(70.486 22.4)">
        <path id="Path_9728" data-name="Path 9728" d="M2537.391,400.743c0-.3-1.962-3.328,1.188-4.1,0,0-.119-4.278,3.328-3.862,0,0,2.793-4.4,5.585-.594,0,0,4.514-3.8,5.882.356,0,0,7.9-2.793,5.525,2.437,0,0,5.883-1.486,3.981,3.684,0,0,5.11-.238,2.793,4.278a5.448,5.448,0,0,1-1.2,5.054c-.49,2.95-4.069,3.762-5.9,2.8-1.668-1.1-5.386-4.351-10.675,0-.764-.361-7.538-3.1-7.538-3.1Z" transform="translate(-2536.788 -390.596)" fill="#fff6eb" stroke="#000" stroke-miterlimit="10" stroke-width="0.25"/>
        <g id="Group_2870" data-name="Group 2870" transform="translate(5.104 3.998)">
          <circle id="Ellipse_1605" data-name="Ellipse 1605" cx="0.532" cy="0.532" r="0.532" transform="translate(2.773)" fill="#ffb829" stroke="#000" stroke-linejoin="round" stroke-width="0.25"/>
          <circle id="Ellipse_1606" data-name="Ellipse 1606" cx="0.532" cy="0.532" r="0.532" transform="translate(5.12 3.066)" fill="#ffb829" stroke="#000" stroke-linejoin="round" stroke-width="0.25"/>
          <circle id="Ellipse_1607" data-name="Ellipse 1607" cx="0.532" cy="0.532" r="0.532" transform="translate(0 3.598)" fill="#ffb829" stroke="#000" stroke-linejoin="round" stroke-width="0.25"/>
          <circle id="Ellipse_1608" data-name="Ellipse 1608" cx="0.532" cy="0.532" r="0.532" transform="translate(10.856 6.684)" fill="#ffb829" stroke="#000" stroke-linejoin="round" stroke-width="0.25"/>
          <circle id="Ellipse_1609" data-name="Ellipse 1609" cx="0.532" cy="0.532" r="0.532" transform="translate(10.459 1.208)" fill="#ffb829" stroke="#000" stroke-linejoin="round" stroke-width="0.25"/>
          <circle id="Ellipse_1610" data-name="Ellipse 1610" cx="0.532" cy="0.532" r="0.532" transform="translate(17.982 8.441)" fill="#ffb829" stroke="#000" stroke-linejoin="round" stroke-width="0.25"/>
          <circle id="Ellipse_1611" data-name="Ellipse 1611" cx="0.532" cy="0.532" r="0.532" transform="translate(15.014 4.839)" fill="#ffb829" stroke="#000" stroke-linejoin="round" stroke-width="0.25"/>
        </g>
      </g>
      <path id="Path_9729" data-name="Path 9729" d="M2536.952,407.3c.41-2.545,1.3-4.252-.274-6.3a9.773,9.773,0,0,1-2-3.613,5.652,5.652,0,0,1,0-2.462,51.141,51.141,0,0,0-7.65-.755c-6.983-.156-13.167,1.211-14.211,4.3-1.183,3.492,4.088,5.523,4.088,5.523-2.431.221-4.75,3.757-.663,6.85,3.583,2.711,13.081,2.875,20.43,1.163q.586-.67,1.232-1.321C2537.023,410.1,2536.679,408.991,2536.952,407.3Z" transform="translate(-2473.607 -367.12)" fill="#fff6eb" stroke="#000" stroke-miterlimit="10" stroke-width="0.25"/>
      <path id="Path_9730" data-name="Path 9730" d="M2544.226,413.3c-2.422-.78-4.442-.1-5.172-2.623s-2-3.268-4.129-3.345a3.287,3.287,0,0,1-1.726-.488q-.645.649-1.232,1.321a15.618,15.618,0,0,0-3.537,6.03c-1.522,6.28,4.661,5.708,4.661,5.708,2.569,8.181,11.828,3.99,15.289-3.716A10.194,10.194,0,0,0,2544.226,413.3Z" transform="translate(-2468.903 -363.282)" fill="#fff6eb" stroke="#000" stroke-miterlimit="10" stroke-width="0.25"/>
      <path id="Path_9731" data-name="Path 9731" d="M2543.843,402.262a7.243,7.243,0,0,0-2.391-3.031c-2.692-2.135-7.1-3.647-11.861-4.486a5.652,5.652,0,0,0,0,2.462,9.777,9.777,0,0,0,2,3.613c1.571,2.048.684,3.754.274,6.3-.272,1.693.072,2.8.951,3.381,3.413-3.426,7.94-6.22,11.409-6.165A5.055,5.055,0,0,0,2543.843,402.262Z" transform="translate(-2468.52 -366.942)" fill="#ffb829" stroke="#000" stroke-linejoin="round" stroke-width="0.25"/>
      <path id="Path_9732" data-name="Path 9732" d="M2545.759,402.685a4.854,4.854,0,0,0-2.315-.577c-3.469-.055-8,2.739-11.409,6.165a3.286,3.286,0,0,0,1.726.488c2.13.077,3.4.819,4.129,3.345s2.75,1.843,5.172,2.623a10.2,10.2,0,0,1,4.154,2.885C2550.679,409.909,2550.254,405.193,2545.759,402.685Z" transform="translate(-2467.739 -364.714)" fill="#ffb829" stroke="#000" stroke-linejoin="round" stroke-width="0.25"/>
      <path id="Path_9733" data-name="Path 9733" d="M2561.629,412.32c-3.823-.371-4.306-.317-5.8.884-.334.268-.707.561-1.119.84,1.118,3.06,3.163,7.129,6.673,9.784,6.253,4.73,9.781-1.924,9.781-1.924s2.486,2.4,4.57.8c1.294-.994,1.4-4.336-.771-8.3a21.628,21.628,0,0,1-8.564-4.335C2565.084,411.134,2565.025,412.65,2561.629,412.32Z" transform="translate(-2460.88 -362.304)" fill="#fff6eb" stroke="#000" stroke-miterlimit="10" stroke-width="0.25"/>
      <path id="Path_9734" data-name="Path 9734" d="M2575.117,399.574h-.007a20.5,20.5,0,0,0-6.859-.619,7.222,7.222,0,0,0-.082,2.52,5.009,5.009,0,0,0,.37,1.228c1.3,2.867.068,4.405-1.571,5.581a3.535,3.535,0,0,0-1.193,2.195,3.528,3.528,0,0,1-1.537,2.6,3.558,3.558,0,0,0-.559.375,21.629,21.629,0,0,0,8.564,4.335,8.027,8.027,0,0,0,2.616.121c5.692-.8,2.966-7.776,2.966-7.776C2583.6,409.892,2584,402.036,2575.117,399.574Z" transform="translate(-2458.165 -365.685)" fill="#fff6eb" stroke="#000" stroke-miterlimit="10" stroke-width="0.25"/>
      <path id="Path_9735" data-name="Path 9735" d="M2561.987,414.226c3.4.33,3.455-1.187,4.765-2.248a31.226,31.226,0,0,1-7.152-7.681c-3.725-1.624-7.225.432-5.719,7.488a22.719,22.719,0,0,0,1.184,4.166c.412-.279.784-.572,1.119-.84C2557.681,413.91,2558.164,413.855,2561.987,414.226Z" transform="translate(-2461.238 -364.21)" fill="#ffb829" stroke="#000" stroke-linejoin="round" stroke-width="0.25"/>
      <path id="Path_9736" data-name="Path 9736" d="M2570.277,402.69a5.007,5.007,0,0,1-.37-1.228,7.217,7.217,0,0,1,.082-2.52,26.583,26.583,0,0,0-10.17,2.54,3.126,3.126,0,0,0-1.554,4.278,31.23,31.23,0,0,0,7.152,7.681,3.575,3.575,0,0,1,.559-.375,3.528,3.528,0,0,0,1.537-2.6,3.536,3.536,0,0,1,1.194-2.195C2570.345,407.1,2571.573,405.557,2570.277,402.69Z" transform="translate(-2459.904 -365.672)" fill="#ffb829" stroke="#000" stroke-linejoin="round" stroke-width="0.25"/>
    </g>
  </g>
</svg>
