<svg xmlns="http://www.w3.org/2000/svg" width="394.852" height="468.937" viewBox="0 0 394.852 468.937">
  <g id="Group_3216" data-name="Group 3216" transform="translate(-106.166 -770.098)">
    <g id="Group_3202" data-name="Group 3202" transform="translate(134.304 770.244)">
      <path id="Path_10927" data-name="Path 10927" d="M128.466,1038.533s-1.562-63.712,28.65-137.964C185.2,831.548,235.784,774.4,266.47,770.661s42.362,18.39,41.122,37.354,13.989,16.667,28.069,9.2,24.712-19.54,39.942-25.862,43.388,4.31,52.584,42.528-18.678,58.906-18.678,58.906S367.536,990.6,289.7,1034.625C216.329,1076.129,128.466,1038.533,128.466,1038.533Z" transform="translate(-128.452 -770.244)" fill="#ddd658" stroke="#000" stroke-linejoin="round" stroke-width="0.25"/>
      <path id="Path_10928" data-name="Path 10928" d="M282.033,817.19a148.376,148.376,0,0,0-28.218,54.891s-18-34.425,2.211-84.64" transform="translate(-97.318 -765.707)" fill="none" stroke="#000" stroke-linejoin="round" stroke-width="0.25"/>
      <path id="Path_10929" data-name="Path 10929" d="M212.792,805.432s6.317,33.477,49.9,61.9c60.638-22.739,99.168-60.954,99.168-61.9" transform="translate(-106.195 -760.959)" fill="none" stroke="#000" stroke-linejoin="round" stroke-width="0.25"/>
      <path id="Path_10930" data-name="Path 10930" d="M370.323,836.167s-49.9,39.162-101.7,23.055c-41.374,4.106-78.325-9.79-78.325-9.79" transform="translate(-112.13 -752.848)" fill="none" stroke="#000" stroke-linejoin="round" stroke-width="0.25"/>
      <path id="Path_10931" data-name="Path 10931" d="M177.983,883.779s63.8,11.37,104.854-29.372c0,0-49.9,115.653-146.377,154.545" transform="translate(-126.339 -748.034)" fill="none" stroke="#000" stroke-linejoin="round" stroke-width="0.25"/>
      <path id="Path_10932" data-name="Path 10932" d="M163.72,900.463s36.874,8.115,84.685-7.615" transform="translate(-119.145 -737.89)" fill="none" stroke="#000" stroke-linejoin="round" stroke-width="0.25"/>
      <path id="Path_10933" data-name="Path 10933" d="M151.725,934.844s37.964,4.2,74.314-14.877" transform="translate(-122.311 -730.734)" fill="none" stroke="#000" stroke-linejoin="round" stroke-width="0.25"/>
      <path id="Path_10934" data-name="Path 10934" d="M252.274,854.408s13.285,38.248,10.417,85.331" transform="translate(-95.776 -748.034)" fill="none" stroke="#000" stroke-linejoin="round" stroke-width="0.25"/>
      <ellipse id="Ellipse_1807" data-name="Ellipse 1807" cx="6.932" cy="4.858" rx="6.932" ry="4.858" transform="translate(267.369 69.406) rotate(-55.96)" fill="#dffffa" stroke="#231815" stroke-miterlimit="10" stroke-width="0.25"/>
      <ellipse id="Ellipse_1808" data-name="Ellipse 1808" cx="5.716" cy="3.864" rx="5.716" ry="3.864" transform="translate(55.801 115.865) rotate(-45)" fill="#dffffa" stroke="#231815" stroke-miterlimit="10" stroke-width="0.25"/>
      <ellipse id="Ellipse_1809" data-name="Ellipse 1809" cx="8.118" cy="3.67" rx="8.118" ry="3.67" transform="translate(37.52 134.727) rotate(-22.525)" fill="#dffffa" stroke="#231815" stroke-miterlimit="10" stroke-width="0.25"/>
    </g>
    <g id="Group_3205" data-name="Group 3205" transform="translate(106.278 1073.783)">
      <ellipse id="Ellipse_1810" data-name="Ellipse 1810" cx="6.686" cy="3.591" rx="6.686" ry="3.591" transform="translate(71.773 148.534)" fill="#c19165" stroke="#000" stroke-linejoin="round" stroke-width="0.25"/>
      <ellipse id="Ellipse_1811" data-name="Ellipse 1811" cx="4.088" cy="2.503" rx="4.088" ry="2.503" transform="translate(255.245 93.462)" fill="#c19165" stroke="#000" stroke-linejoin="round" stroke-width="0.25"/>
      <path id="Path_10935" data-name="Path 10935" d="M343.039,1125.76c8.359-5.31,21.69,4.97,28.919.564" transform="translate(-43.798 -980.377)" fill="none" stroke="#000" stroke-miterlimit="10" stroke-width="0.25"/>
      <path id="Path_10936" data-name="Path 10936" d="M316.762,1111.176c14.573-4.857,38.07,6.327,47.333.679" transform="translate(-50.733 -984.145)" fill="none" stroke="#000" stroke-miterlimit="10" stroke-width="0.25"/>
      <ellipse id="Ellipse_1812" data-name="Ellipse 1812" cx="6.05" cy="3.605" rx="6.05" ry="3.605" transform="translate(344.262 108.259)" fill="#ecb36f" stroke="#000" stroke-linejoin="round" stroke-width="0.25"/>
      <ellipse id="Ellipse_1813" data-name="Ellipse 1813" cx="4.856" cy="2.78" rx="4.856" ry="2.78" transform="translate(26.235 57.354)" fill="#ecb36f" stroke="#000" stroke-linejoin="round" stroke-width="0.25"/>
      <ellipse id="Ellipse_1814" data-name="Ellipse 1814" cx="7.123" cy="3.386" rx="7.123" ry="3.386" transform="translate(264.66 98.732)" fill="#ecb36f" stroke="#000" stroke-linejoin="round" stroke-width="0.25"/>
      <path id="Path_10937" data-name="Path 10937" d="M378.691,1112.933s-5.4-.729-7.534.723" transform="translate(-36.378 -983.398)" fill="none" stroke="#000" stroke-miterlimit="10" stroke-width="0.25"/>
      <ellipse id="Ellipse_1815" data-name="Ellipse 1815" cx="4.469" cy="2.657" rx="4.469" ry="2.657" transform="translate(211.219 136.602)" fill="#c19165" stroke="#000" stroke-linejoin="round" stroke-width="0.25"/>
      <path id="Path_10938" data-name="Path 10938" d="M295.066,1079.7c4.919-2.984,13.534,1.148,16.484-.492" transform="translate(-56.458 -992.414)" fill="none" stroke="#000" stroke-miterlimit="10" stroke-width="0.25"/>
      <ellipse id="Ellipse_1816" data-name="Ellipse 1816" cx="5.617" cy="2.829" rx="5.617" ry="2.829" transform="translate(321.055 87.215)" fill="#ecb36f" stroke="#000" stroke-linejoin="round" stroke-width="0.25"/>
      <path id="Path_10939" data-name="Path 10939" d="M354.136,1068.544c2.132-4.592,10-5.986,19.432-1.968s13.2-1.067,18.612,1.147" transform="translate(-40.87 -996.207)" fill="none" stroke="#000" stroke-miterlimit="10" stroke-width="0.25"/>
      <path id="Path_10940" data-name="Path 10940" d="M360.719,1111.131a12.123,12.123,0,0,0,6.887,0" transform="translate(-39.133 -983.825)" fill="none" stroke="#000" stroke-miterlimit="10" stroke-width="0.25"/>
      <g id="Group_3203" data-name="Group 3203" transform="translate(339.199 53.138)">
        <ellipse id="Ellipse_1817" data-name="Ellipse 1817" cx="5.063" cy="2.925" rx="5.063" ry="2.925" transform="translate(0 1.751)" fill="#ecb36f" stroke="#000" stroke-linejoin="round" stroke-width="0.25"/>
        <ellipse id="Ellipse_1818" data-name="Ellipse 1818" cx="2.555" cy="1.797" rx="2.555" ry="1.797" transform="translate(16.817)" fill="#c19165" stroke="#000" stroke-linejoin="round" stroke-width="0.25"/>
      </g>
      <ellipse id="Ellipse_1819" data-name="Ellipse 1819" cx="4.727" cy="2.237" rx="4.727" ry="2.237" transform="translate(48.053 1.895)" fill="#c19165" stroke="#000" stroke-linejoin="round" stroke-width="0.25"/>
      <ellipse id="Ellipse_1820" data-name="Ellipse 1820" cx="4.231" cy="2.276" rx="4.231" ry="2.276" transform="translate(92.759 141.543)" fill="#c19165" stroke="#000" stroke-linejoin="round" stroke-width="0.25"/>
      <path id="Path_10941" data-name="Path 10941" d="M383.683,1032.9c16.294-10,29.253,2.8,44-1.32" transform="translate(-33.073 -1005.504)" fill="none" stroke="#000" stroke-miterlimit="10" stroke-width="0.25"/>
      <path id="Path_10942" data-name="Path 10942" d="M106.278,1086.555c2.633,5.36,11.659,6.3,24.918,1.787s20.5,4.348,27.552,2.879" transform="translate(-106.278 -990.311)" fill="none" stroke="#000" stroke-miterlimit="10" stroke-width="0.25"/>
      <path id="Path_10943" data-name="Path 10943" d="M151.66,1092.163c4.89-4.259,9.874,1.88,12.883-1.128" transform="translate(-94.302 -989.243)" fill="none" stroke="#000" stroke-miterlimit="10" stroke-width="0.25"/>
      <g id="Group_3204" data-name="Group 3204" transform="translate(20.479)">
        <path id="Path_10944" data-name="Path 10944" d="M270.916,1081.973s6.926,7.6,19.065,3.747c14.012-4.451,17.6,1.466,21.509-.489" transform="translate(-83.31 -991.52)" fill="none" stroke="#020202" stroke-miterlimit="10" stroke-width="0.25"/>
        <path id="Path_10945" data-name="Path 10945" d="M123.048,1021.731c13.062-5.02,21.959,4.521,30.355,0" transform="translate(-122.331 -1007.814)" fill="none" stroke="#020202" stroke-miterlimit="10" stroke-width="0.25"/>
        <ellipse id="Ellipse_1821" data-name="Ellipse 1821" cx="5.613" cy="2.608" rx="5.613" ry="2.608" transform="translate(107.623 159.911)" fill="#ecb36f" stroke="#000" stroke-linejoin="round" stroke-width="0.25"/>
        <ellipse id="Ellipse_1822" data-name="Ellipse 1822" cx="3.742" cy="1.871" rx="3.742" ry="1.871" transform="translate(124.632 155.715)" fill="#ecb36f" stroke="#000" stroke-linejoin="round" stroke-width="0.25"/>
        <ellipse id="Ellipse_1823" data-name="Ellipse 1823" cx="3.137" cy="2.241" rx="3.137" ry="2.241" transform="translate(367.862 7.972)" fill="#c19165" stroke="#000" stroke-linejoin="round" stroke-width="0.25"/>
        <path id="Path_10946" data-name="Path 10946" d="M249.876,1102.816s5.725-5.086,12.553-1.457,11.858-.915,18.205-.939c4.87-.019,13.053,3.538,18.987,1.857" transform="translate(-88.862 -986.749)" fill="none" stroke="#231815" stroke-miterlimit="10" stroke-width="0.25"/>
        <path id="Path_10947" data-name="Path 10947" d="M376.753,1010.578s3.725-.853,10.164,1.241,10.163,0,10.163,0" transform="translate(-55.38 -1010.406)" fill="none" stroke="#231815" stroke-miterlimit="10" stroke-width="0.25"/>
        <path id="Path_10948" data-name="Path 10948" d="M139.488,1068.6a4.982,4.982,0,0,1,3.835.263,7.023,7.023,0,0,0,5.3.282" transform="translate(-117.993 -995.113)" fill="none" stroke="#231815" stroke-miterlimit="10" stroke-width="0.25"/>
        <path id="Path_10949" data-name="Path 10949" d="M122.481,1075.563a12.439,12.439,0,0,1,13.1-.711,11.47,11.47,0,0,0,12.959-1.542" transform="translate(-122.481 -993.806)" fill="none" stroke="#231815" stroke-miterlimit="10" stroke-width="0.25"/>
        <ellipse id="Ellipse_1824" data-name="Ellipse 1824" cx="4.264" cy="2.313" rx="4.264" ry="2.313" transform="translate(330.356 12.195)" fill="#c19165" stroke="#000" stroke-linejoin="round" stroke-width="0.25"/>
      </g>
    </g>
    <g id="Group_3208" data-name="Group 3208" transform="translate(180.693 869.492)">
      <g id="Group_3206" data-name="Group 3206">
        <path id="Path_10950" data-name="Path 10950" d="M236.8,917.462c-9.11-14.69-12.729-22.706-14.162-26.668q-3.081,3.175-5.9,6.107a116.44,116.44,0,0,1,7.875,33.235c1.663,20.86,8.551,25.01,12.186,47.913,1.864,11.744-2.432,35.926,13.388,53.986l21.8-3.312c-11.226-14.836-12.6-37.978-14.569-55.605C254.99,951.378,251.449,941.081,236.8,917.462Z" transform="translate(-151.543 -837.68)" fill="#e5aeae" stroke="#000" stroke-linejoin="round" stroke-width="0.25"/>
        <path id="Path_10951" data-name="Path 10951" d="M227.561,928.861a116.438,116.438,0,0,0-7.875-33.235c-5.3,5.512-9.954,10.409-14.123,14.843,2.059,5.1,4.962,14.828,6.269,31.192,2.136,26.749,3.429,23.2,6.332,50.015,1.389,12.831,1.753,20.713,3.132,27.021a186.51,186.51,0,0,1,14.716,14.667l17.124-2.6c-15.82-18.06-11.524-42.242-13.388-53.986C236.113,953.871,229.224,949.722,227.561,928.861Z" transform="translate(-154.492 -836.405)" fill="#b25269" stroke="#000" stroke-linejoin="round" stroke-width="0.25"/>
        <path id="Path_10952" data-name="Path 10952" d="M276.531,923.421c-6.072-19.873-1.1-20.978-6.072-38.368-3.343-11.7-7.48-18.4-9.836-21.548-8.005,3.865-14.386,7.337-22.568,14.139a54.678,54.678,0,0,0,8.636,22.947c9.427,13.745,6.292,22.517,12.055,46.165s9.959,44.243,11.1,61.787c.642,9.843,5.546,19.122,9.727,25.371l8.3-1.261c-10.792-14.8-3.691-35.608-9.207-47.4C271.7,970.346,282.6,943.295,276.531,923.421Z" transform="translate(-145.918 -844.882)" fill="#e5aeae" stroke="#000" stroke-linejoin="round" stroke-width="0.25"/>
        <path id="Path_10953" data-name="Path 10953" d="M263.141,943.8c-5.763-23.648-2.628-32.42-12.055-46.165a54.677,54.677,0,0,1-8.636-22.947,190.615,190.615,0,0,0-14.269,13.39c-2.374,2.428-4.613,4.731-6.776,6.961,1.433,3.962,5.052,11.978,14.162,26.668,14.65,23.618,18.191,33.915,20.615,55.656,1.967,17.628,3.343,40.769,14.569,55.6l13.22-2.01c-4.181-6.25-9.085-15.528-9.727-25.371C273.1,988.047,268.9,967.45,263.141,943.8Z" transform="translate(-150.312 -841.929)" fill="#b25269" stroke="#000" stroke-linejoin="round" stroke-width="0.25"/>
        <path id="Path_10954" data-name="Path 10954" d="M177.359,946.613a8.267,8.267,0,0,1-1.582-7.372c-.177.21-.355.41-.532.629-5.475,6.778-3.65,10.689-7.039,13.817s-4.693,7.351,0,11.5.26,5.709,8.342,6.491c7.32.708,6.893.712,12.874,3.6-1.956-2.965-.6-5.271-2.815-13.38C183.686,951.189,180.864,950.994,177.359,946.613Z" transform="translate(-165.155 -824.895)" fill="#e5aeae" stroke="#000" stroke-linejoin="round" stroke-width="0.25"/>
        <path id="Path_10955" data-name="Path 10955" d="M209.62,946.66c-1.177-19.065-4.05-28.089-6.077-32.21-4,4.319-7.563,8.208-10.936,11.889a100.21,100.21,0,0,1-11.033,10.449,63.836,63.836,0,0,1,7.468,18.732c2.96,12.512,4.647,24.832,7.842,35.089a62.092,62.092,0,0,0,8.242,6.708C203.736,983.21,211.062,970.021,209.62,946.66Z" transform="translate(-160.823 -831.437)" fill="#e5aeae" stroke="#000" stroke-linejoin="round" stroke-width="0.25"/>
        <path id="Path_10956" data-name="Path 10956" d="M183.747,932.124c-4.018,3.279-7.1,5.431-10.13,9a8.267,8.267,0,0,0,1.582,7.372c3.5,4.381,6.327,4.575,9.248,15.283,2.212,8.109.858,10.415,2.815,13.38.622.3,1.29.622,2.066.99,4.6,2.174,6.311,4.489,9.729,7.8-3.2-10.258-4.882-22.577-7.842-35.089A63.839,63.839,0,0,0,183.747,932.124Z" transform="translate(-162.995 -826.773)" fill="#b25269" stroke="#000" stroke-linejoin="round" stroke-width="0.25"/>
        <path id="Path_10957" data-name="Path 10957" d="M213.575,938.562c-1.307-16.364-4.21-26.1-6.269-31.192-3.006,3.2-5.776,6.168-8.351,8.948,2.027,4.122,4.9,13.146,6.077,32.21,1.442,23.361-5.883,36.549-4.493,50.657,1.563,1.081,3.351,2.238,5.423,3.486A118.684,118.684,0,0,1,223.04,1015.6c-1.379-6.308-1.743-14.19-3.132-27.021C217,961.76,215.711,965.311,213.575,938.562Z" transform="translate(-156.236 -833.306)" fill="#e5aeae" stroke="#000" stroke-linejoin="round" stroke-width="0.25"/>
        <path id="Path_10958" data-name="Path 10958" d="M295.986,930.627c-3.435-18.493-2.636-23.738-2.084-45.82a106.432,106.432,0,0,0-4.178-32.919,95.791,95.791,0,0,0-17.738,6.91c-6.333,3.2-11.472,5.551-16.074,7.773,2.356,3.146,6.493,9.849,9.836,21.548,4.968,17.39,0,18.494,6.072,38.368s-4.836,46.925,2.137,61.83c5.517,11.795-1.585,32.6,9.207,47.4l22.356-3.4a182.456,182.456,0,0,0-4.717-36C294.178,967.615,299.423,949.121,295.986,930.627Z" transform="translate(-141.205 -847.947)" fill="#b25269" stroke="#000" stroke-linejoin="round" stroke-width="0.25"/>
        <path id="Path_10959" data-name="Path 10959" d="M391.948,894.161c-3.7-14.612-6.4-23.019-7.788-26.982a94.9,94.9,0,0,0-12.36-4.713c1.625,3.234,4.031,9.407,5.243,19.273,1.931,15.734,0,22.083,3.311,33.123s.552,20.427,4.693,43.336c3.983,22.035-6.836,34.883-3.988,60.389,15.356-10.3,24.221-27.385,29.756-39.642-1.689-6.4-.038-15.614-3.962-30.131C401.332,928.388,397.468,915.967,391.948,894.161Z" transform="translate(-110.623 -845.156)" fill="#b25269" stroke="#000" stroke-linejoin="round" stroke-width="0.25"/>
        <path id="Path_10960" data-name="Path 10960" d="M416.412,942.65c2.178-13.852-3.879-18.474-7.409-26.872-3.922-9.33,2.409-19.322-2.544-28.906-3.506-6.782-11.93-14.63-24.88-20.677,1.384,3.962,4.089,12.37,7.788,26.982,5.521,21.806,9.384,34.228,14.905,54.653,3.924,14.517,2.274,23.733,3.962,30.131,2.379-5.268,4.147-9.646,5.55-12.2C421.5,951.71,414.876,952.425,416.412,942.65Z" transform="translate(-108.043 -844.172)" fill="#e5aeae" stroke="#000" stroke-linejoin="round" stroke-width="0.25"/>
        <path id="Path_10961" data-name="Path 10961" d="M370.082,993.095c-4.141-13.249,8-38.091,7.176-57.412s1.38-17.114,0-37.54a290.1,290.1,0,0,0-4.729-35.012c-14.942-4.031-25.638-9.58-38.158-12.614,2.819,3.56,8.061,12.123,12.8,30.513,6.9,26.774,5.8,27.878,12.145,47.062s5.521,34.088,3.865,45.958c-1.361,9.754-8.3,36.089-4.613,56.351a67.077,67.077,0,0,0,10.626-.551C370.794,1019.854,372.945,1002.255,370.082,993.095Z" transform="translate(-120.501 -848.309)" fill="#b25269" stroke="#000" stroke-linejoin="round" stroke-width="0.25"/>
        <path id="Path_10962" data-name="Path 10962" d="M387.653,958.718c-4.141-22.909-1.38-32.3-4.693-43.336s-1.38-17.389-3.311-33.123c-1.212-9.866-3.617-16.039-5.243-19.273-1.93-.59-3.9-1.155-5.971-1.66-1.089-.265-2.132-.549-3.177-.83a290.1,290.1,0,0,1,4.729,35.012c1.38,20.426-.828,18.218,0,37.54s-11.317,44.163-7.176,57.412c2.863,9.161.712,26.759-.888,36.754a50.655,50.655,0,0,0,18.551-6.106c1.1-.631,2.154-1.306,3.191-2C380.817,993.6,391.636,980.753,387.653,958.718Z" transform="translate(-113.23 -845.676)" fill="#e5aeae" stroke="#000" stroke-linejoin="round" stroke-width="0.25"/>
        <path id="Path_10963" data-name="Path 10963" d="M311.271,976.389c-5.658-19.873,8.419-38.919,4.829-65.142s-3.588-18.493-4.139-37.539c-.374-12.9-2.773-20.906-4.282-24.737a110.92,110.92,0,0,0-25.015,3.687,106.432,106.432,0,0,1,4.178,32.919c-.552,22.081-1.351,27.327,2.084,45.82s-1.809,36.988,4.817,65.693a182.458,182.458,0,0,1,4.717,36l13.136-2C311.414,1013.838,315.457,991.092,311.271,976.389Z" transform="translate(-134.146 -848.717)" fill="#e5aeae" stroke="#000" stroke-linejoin="round" stroke-width="0.25"/>
        <path id="Path_10964" data-name="Path 10964" d="M340.727,926.482c-8.244-31.743-6.663-46.1-6.386-58.517a37.953,37.953,0,0,0-4.977-19.032c-1.537-.094-3.105-.154-4.738-.154-7.778,0-15.061-.081-22.169.245,1.509,3.831,3.908,11.834,4.282,24.737.551,19.045.551,11.317,4.139,37.539s-10.488,45.269-4.829,65.142c4.186,14.7.143,37.449.325,54.705l33.334-5.067C351.056,1006.784,348.377,955.944,340.727,926.482Z" transform="translate(-128.923 -848.77)" fill="#b25269" stroke="#000" stroke-linejoin="round" stroke-width="0.25"/>
        <path id="Path_10965" data-name="Path 10965" d="M365.986,974.476c1.656-11.869,2.484-26.774-3.865-45.958s-5.244-20.288-12.145-47.062c-4.74-18.39-9.982-26.953-12.8-30.513a75.861,75.861,0,0,0-13.43-2.044,37.953,37.953,0,0,1,4.977,19.032c-.277,12.42-1.858,26.774,6.386,58.517,7.65,29.463,10.33,80.3-1.02,99.6l1.02-.155a85.432,85.432,0,0,0,26.264,4.935C357.682,1010.565,364.624,984.229,365.986,974.476Z" transform="translate(-123.305 -848.736)" fill="#e5aeae" stroke="#000" stroke-linejoin="round" stroke-width="0.25"/>
      </g>
      <g id="Group_3207" data-name="Group 3207" transform="translate(263.906 103.319)">
        <path id="Path_10966" data-name="Path 10966" d="M379.038,931.642c3.056-1.91,8.333-1.732,9.2,3.247s-1.515,9.306,1.191,15.907-3.247,14.068-9.848,10.714-5.952-9.74-5.086-16.016S374.71,934.348,379.038,931.642Z" transform="translate(-373.959 -930.517)" fill="#fff6eb" stroke="#000" stroke-miterlimit="10" stroke-width="0.25"/>
        <path id="Path_10967" data-name="Path 10967" d="M380.517,939.817c.964-1.729,3.644-2.065,3.8.535A85.764,85.764,0,0,0,385,949.3c.535,3.519-2.811,6.043-3.969,2.6S378.939,942.647,380.517,939.817Z" transform="translate(-372.449 -928.421)" fill="#b25269" stroke="#000" stroke-linejoin="round" stroke-width="0.25"/>
      </g>
      <path id="Path_10968" data-name="Path 10968" d="M181.53,950.213s.636-1.778,3.758-1.533" transform="translate(-160.834 -822.411)" fill="none" stroke="#000" stroke-linejoin="round" stroke-width="0.25"/>
      <path id="Path_10969" data-name="Path 10969" d="M183.874,952.369a4.279,4.279,0,0,0,1.591-.754" transform="translate(-160.216 -821.63)" fill="none" stroke="#000" stroke-linejoin="round" stroke-width="0.25"/>
      <path id="Path_10970" data-name="Path 10970" d="M198.117,946.156a2.679,2.679,0,0,0,2.449,0" transform="translate(-156.457 -823.07)" fill="none" stroke="#000" stroke-linejoin="round" stroke-width="0.25"/>
      <path id="Path_10971" data-name="Path 10971" d="M196.664,947.547s3.529,1.592,6.48,0" transform="translate(-156.841 -822.703)" fill="none" stroke="#000" stroke-linejoin="round" stroke-width="0.25"/>
      <path id="Path_10972" data-name="Path 10972" d="M210.523,923.783s4.545-3.646,13.558-1.747" transform="translate(-153.183 -829.58)" fill="none" stroke="#000" stroke-linejoin="round" stroke-width="0.25"/>
      <path id="Path_10973" data-name="Path 10973" d="M234.606,945.258s9.547,2.979,17.339-1.527" transform="translate(-146.828 -823.71)" fill="none" stroke="#000" stroke-linejoin="round" stroke-width="0.25"/>
      <path id="Path_10974" data-name="Path 10974" d="M240.408,943.315s4.2.763,6.187-.612" transform="translate(-145.297 -823.982)" fill="none" stroke="#000" stroke-linejoin="round" stroke-width="0.25"/>
      <path id="Path_10975" data-name="Path 10975" d="M221.915,957.631c.306-.077,5.042,2.367,8.1,1.833" transform="translate(-150.177 -820.043)" fill="none" stroke="#000" stroke-linejoin="round" stroke-width="0.25"/>
      <path id="Path_10976" data-name="Path 10976" d="M205.771,977.333s2.557,2.1,4.566,1.826" transform="translate(-154.437 -814.843)" fill="none" stroke="#000" stroke-linejoin="round" stroke-width="0.25"/>
      <path id="Path_10977" data-name="Path 10977" d="M238.216,912.96c.731-.183,4.383-2.649,8.219-2.467" transform="translate(-145.875 -832.484)" fill="none" stroke="#000" stroke-linejoin="round" stroke-width="0.25"/>
      <path id="Path_10978" data-name="Path 10978" d="M241.468,909.2a4.126,4.126,0,0,1,2.648-.73" transform="translate(-145.017 -833.016)" fill="none" stroke="#000" stroke-linejoin="round" stroke-width="0.25"/>
      <path id="Path_10979" data-name="Path 10979" d="M262.568,918.452s3.378.823,5.571-1.1" transform="translate(-139.449 -830.671)" fill="none" stroke="#000" stroke-linejoin="round" stroke-width="0.25"/>
      <path id="Path_10980" data-name="Path 10980" d="M253.68,889.825s2.576-1.615,5.023-.821" transform="translate(-141.794 -838.21)" fill="none" stroke="#000" stroke-linejoin="round" stroke-width="0.25"/>
      <path id="Path_10981" data-name="Path 10981" d="M247.764,885.07s5.1-2.193,8.847-1.188" transform="translate(-143.356 -839.574)" fill="none" stroke="#000" stroke-linejoin="round" stroke-width="0.25"/>
      <path id="Path_10982" data-name="Path 10982" d="M276.225,896.688a9.9,9.9,0,0,0,6.8.459" transform="translate(-135.845 -836.125)" fill="none" stroke="#000" stroke-linejoin="round" stroke-width="0.25"/>
      <path id="Path_10983" data-name="Path 10983" d="M272.034,898.858s5.753,3.469,14.065,1.187" transform="translate(-136.951 -835.552)" fill="none" stroke="#000" stroke-linejoin="round" stroke-width="0.25"/>
      <path id="Path_10984" data-name="Path 10984" d="M288.943,890.727c1.552-1.187,15.344,1.471,19.362-1.552" transform="translate(-132.489 -838.107)" fill="none" stroke="#000" stroke-linejoin="round" stroke-width="0.25"/>
      <path id="Path_10985" data-name="Path 10985" d="M294.724,912.3a5.135,5.135,0,0,0,3.378,0" transform="translate(-130.963 -832.005)" fill="none" stroke="#000" stroke-linejoin="round" stroke-width="0.25"/>
      <path id="Path_10986" data-name="Path 10986" d="M315.39,898.858a25.3,25.3,0,0,0,16.988.982" transform="translate(-125.51 -835.552)" fill="none" stroke="#000" stroke-linejoin="round" stroke-width="0.25"/>
      <path id="Path_10987" data-name="Path 10987" d="M323.7,896.688s3.769.966,5.571,0" transform="translate(-123.317 -836.125)" fill="none" stroke="#000" stroke-linejoin="round" stroke-width="0.25"/>
      <path id="Path_10988" data-name="Path 10988" d="M294.146,873.277a11.017,11.017,0,0,0,7.214.365" transform="translate(-131.116 -842.303)" fill="none" stroke="#000" stroke-linejoin="round" stroke-width="0.25"/>
      <path id="Path_10989" data-name="Path 10989" d="M267.554,865.38a50.956,50.956,0,0,1,18.905-4.748" transform="translate(-138.133 -845.64)" fill="none" stroke="#000" stroke-linejoin="round" stroke-width="0.25"/>
      <path id="Path_10990" data-name="Path 10990" d="M308.092,862.023s9.954-1.552,16.074,1.188" transform="translate(-127.435 -845.388)" fill="none" stroke="#000" stroke-linejoin="round" stroke-width="0.25"/>
      <path id="Path_10991" data-name="Path 10991" d="M349.5,874.578c.365,0,6.211.182,9.316,2.283" transform="translate(-116.509 -841.959)" fill="none" stroke="#000" stroke-linejoin="round" stroke-width="0.25"/>
      <path id="Path_10992" data-name="Path 10992" d="M335.045,887.692a23.411,23.411,0,0,1,11.324.365" transform="translate(-120.323 -838.634)" fill="none" stroke="#000" stroke-linejoin="round" stroke-width="0.25"/>
      <path id="Path_10993" data-name="Path 10993" d="M341.765,891.776s6.029.821,10.23,3.38" transform="translate(-118.549 -837.421)" fill="none" stroke="#000" stroke-linejoin="round" stroke-width="0.25"/>
      <path id="Path_10994" data-name="Path 10994" d="M360.264,892.282a7.441,7.441,0,0,1,4.384,3.105" transform="translate(-113.668 -837.287)" fill="none" stroke="#000" stroke-linejoin="round" stroke-width="0.25"/>
      <path id="Path_10995" data-name="Path 10995" d="M371.609,894.45s6.758,1.917,9.5,6.027" transform="translate(-110.674 -836.715)" fill="none" stroke="#000" stroke-linejoin="round" stroke-width="0.25"/>
      <path id="Path_10996" data-name="Path 10996" d="M375.367,894.016s2.831.549,4.018,2.466" transform="translate(-109.682 -836.83)" fill="none" stroke="#000" stroke-linejoin="round" stroke-width="0.25"/>
      <path id="Path_10997" data-name="Path 10997" d="M389.241,885.634s4.077,2.01,5.281,4.932" transform="translate(-106.021 -839.042)" fill="none" stroke="#000" stroke-linejoin="round" stroke-width="0.25"/>
      <path id="Path_10998" data-name="Path 10998" d="M391.33,884.116s3.3,1.644,4.574,4.384" transform="translate(-105.47 -839.442)" fill="none" stroke="#000" stroke-linejoin="round" stroke-width="0.25"/>
      <path id="Path_10999" data-name="Path 10999" d="M396.973,910.419s1.1,2.01,5.2.549" transform="translate(-103.98 -832.501)" fill="none" stroke="#000" stroke-linejoin="round" stroke-width="0.25"/>
      <path id="Path_11000" data-name="Path 11000" d="M400.224,921.476a8.13,8.13,0,0,0,5.48-3.469" transform="translate(-103.122 -830.499)" fill="none" stroke="#000" stroke-linejoin="round" stroke-width="0.25"/>
      <path id="Path_11001" data-name="Path 11001" d="M405.587,934.627a14.909,14.909,0,0,1-1.461,4.845" transform="translate(-102.093 -826.113)" fill="none" stroke="#000" stroke-linejoin="round" stroke-width="0.25"/>
      <path id="Path_11002" data-name="Path 11002" d="M407.542,935.855a7.076,7.076,0,0,1-1.826,4.566" transform="translate(-101.673 -825.789)" fill="none" stroke="#000" stroke-linejoin="round" stroke-width="0.25"/>
      <path id="Path_11003" data-name="Path 11003" d="M400.109,938.167s-2.237,2.923-5.16,3.654" transform="translate(-104.515 -825.179)" fill="none" stroke="#000" stroke-linejoin="round" stroke-width="0.25"/>
      <path id="Path_11004" data-name="Path 11004" d="M401.1,952.547s-2.557,6.211-12.513,11.142" transform="translate(-106.193 -821.384)" fill="none" stroke="#000" stroke-linejoin="round" stroke-width="0.25"/>
      <path id="Path_11005" data-name="Path 11005" d="M349.09,921.632s3.258,1.086,5.332,0" transform="translate(-116.616 -829.542)" fill="none" stroke="#000" stroke-linejoin="round" stroke-width="0.25"/>
    </g>
    <g id="Group_3212" data-name="Group 3212" transform="translate(263.847 949.4)">
      <g id="Group_3210" data-name="Group 3210" transform="translate(13.246 23.552)">
        <g id="Group_3209" data-name="Group 3209">
          <path id="Path_11006" data-name="Path 11006" d="M356.33,1050.5c17.735-16.748,23.318-36.452,30.871-57.358a115.437,115.437,0,0,0,6.3-30.632c-6.117-19.48-13.33-31.883-13.33-31.883s-137.464,105.1-138.692,104.836,21.694,32.639,40.084,51.175a44.194,44.194,0,0,0,13.046,8.907C322.3,1088.008,341.44,1064.564,356.33,1050.5Z" transform="translate(-241.428 -930.628)" fill="#b25269" stroke="#000" stroke-linejoin="round" stroke-width="0.25"/>
          <path id="Path_11007" data-name="Path 11007" d="M334.365,1078.326c13.818-15.763,22.028-22.332,30.239-35.139,7.318-11.417,20.111-24.387,26.293-49.524-.929-5.915-2.236-12.976-4.31-22.229-1.247-5.573-2.687-10.787-4.192-15.58a115.437,115.437,0,0,1-6.3,30.632c-7.553,20.906-13.136,40.61-30.871,57.358-14.89,14.063-34.03,37.507-61.725,45.045,8.929,4.108,19.081,5.851,28.357,6.486A76.013,76.013,0,0,0,334.365,1078.326Z" transform="translate(-230.324 -923.971)" fill="#e5aeae" stroke="#000" stroke-linejoin="round" stroke-width="0.25"/>
          <path id="Path_11008" data-name="Path 11008" d="M385.94,1014.472a81.079,81.079,0,0,1-15.552,21.083c-13.465,12.852-21.347,21.569-37.438,34.781-5.316,4.364-8.875,7.424-11.635,9.645,1.922-.091,3.632-.188,5.051-.26,12.634-.64,22.229-7.516,30.065-11.355s12.473-6.4,18.391-16.151,10.555-7.2,10.3-14.393C384.9,1031.494,387.358,1026.9,385.94,1014.472Z" transform="translate(-220.346 -908.502)" fill="#e5aeae" stroke="#000" stroke-linejoin="round" stroke-width="0.25"/>
          <path id="Path_11009" data-name="Path 11009" d="M374.446,1043.13A81.08,81.08,0,0,0,390,1022.047c-.195-1.708-.459-3.557-.818-5.585-1.993-11.29-2.3-18.572-4.2-30.693-6.182,25.138-18.975,38.108-26.293,49.524-8.21,12.807-16.42,19.375-30.239,35.139a76.012,76.012,0,0,1-22.506,17.049,168.534,168.534,0,0,0,19.435.075c2.76-2.221,6.319-5.281,11.635-9.645C353.1,1064.7,360.981,1055.982,374.446,1043.13Z" transform="translate(-224.404 -916.077)" fill="#b25269" stroke="#000" stroke-linejoin="round" stroke-width="0.25"/>
        </g>
        <path id="Path_11010" data-name="Path 11010" d="M285.02,1048.187s4.55,5.748,8.923,8.04" transform="translate(-229.924 -899.605)" fill="none" stroke="#000" stroke-linejoin="round" stroke-width="0.25"/>
        <path id="Path_11011" data-name="Path 11011" d="M289.122,1049.015a15.213,15.213,0,0,1,5.222,4.34" transform="translate(-228.841 -899.387)" fill="none" stroke="#000" stroke-linejoin="round" stroke-width="0.25"/>
        <path id="Path_11012" data-name="Path 11012" d="M317.361,1046.343s3.595,4.465,7.235,4.7" transform="translate(-221.389 -900.092)" fill="none" stroke="#000" stroke-linejoin="round" stroke-width="0.25"/>
        <path id="Path_11013" data-name="Path 11013" d="M332.339,1030.888a18.112,18.112,0,0,1,3.979,4.7" transform="translate(-217.437 -904.17)" fill="none" stroke="#000" stroke-linejoin="round" stroke-width="0.25"/>
        <path id="Path_11014" data-name="Path 11014" d="M341.784,1052.449s4.823,2.412,9.163,1.809" transform="translate(-214.944 -898.48)" fill="none" stroke="#000" stroke-linejoin="round" stroke-width="0.25"/>
        <path id="Path_11015" data-name="Path 11015" d="M347.7,1050.064s1.929,1.968,3.979,1.647" transform="translate(-213.383 -899.11)" fill="none" stroke="#000" stroke-linejoin="round" stroke-width="0.25"/>
        <path id="Path_11016" data-name="Path 11016" d="M347.7,1033.369s3.014,5.488,7.355,8.411" transform="translate(-213.383 -903.515)" fill="none" stroke="#000" stroke-linejoin="round" stroke-width="0.25"/>
        <path id="Path_11017" data-name="Path 11017" d="M352.66,1033.369a14.441,14.441,0,0,1,3.665,4.7" transform="translate(-212.074 -903.515)" fill="none" stroke="#000" stroke-linejoin="round" stroke-width="0.25"/>
        <path id="Path_11018" data-name="Path 11018" d="M364.68,1030.888a37.986,37.986,0,0,1,1.206,7.341" transform="translate(-208.902 -904.17)" fill="none" stroke="#000" stroke-linejoin="round" stroke-width="0.25"/>
        <path id="Path_11019" data-name="Path 11019" d="M358.1,1015.624a19.759,19.759,0,0,1,4.829,10.566" transform="translate(-210.638 -908.198)" fill="none" stroke="#000" stroke-linejoin="round" stroke-width="0.25"/>
        <path id="Path_11020" data-name="Path 11020" d="M361.508,1016.673a8.961,8.961,0,0,1,1.6,4.583" transform="translate(-209.739 -907.921)" fill="none" stroke="#000" stroke-linejoin="round" stroke-width="0.25"/>
        <path id="Path_11021" data-name="Path 11021" d="M343.3,999.729a16.462,16.462,0,0,1,2.734,6.758" transform="translate(-214.543 -912.393)" fill="none" stroke="#000" stroke-linejoin="round" stroke-width="0.25"/>
        <path id="Path_11022" data-name="Path 11022" d="M361.923,974.337s3.747,6.578,3.843,11.536" transform="translate(-209.63 -919.094)" fill="none" stroke="#000" stroke-linejoin="round" stroke-width="0.25"/>
        <path id="Path_11023" data-name="Path 11023" d="M360.438,980.09s1.431,2.548,1.24,4.264" transform="translate(-210.022 -917.575)" fill="none" stroke="#000" stroke-linejoin="round" stroke-width="0.25"/>
        <path id="Path_11024" data-name="Path 11024" d="M353.273,981.2a10.338,10.338,0,0,1,1.524,3.624" transform="translate(-211.912 -917.282)" fill="none" stroke="#000" stroke-linejoin="round" stroke-width="0.25"/>
        <path id="Path_11025" data-name="Path 11025" d="M350.708,981.777c.286.894,2,5.755,4.766,6.9" transform="translate(-212.589 -917.13)" fill="none" stroke="#000" stroke-linejoin="round" stroke-width="0.25"/>
      </g>
      <g id="Group_3211" data-name="Group 3211" transform="translate(0)">
        <path id="Path_11026" data-name="Path 11026" d="M259.679,954.6c15.431-17.571,42.492-37.8,73.014-41.936s54.6,10.816,55.723,47.861-29.962,82.407-60.2,103.408-60.787,24.259-88.79,16.018c0,0-10.588-40-8.1-66.325S253.482,961.655,259.679,954.6Z" transform="translate(-230.947 -911.994)" fill="#fff6eb" stroke="#000" stroke-miterlimit="10" stroke-width="0.25"/>
        <ellipse id="Ellipse_1825" data-name="Ellipse 1825" cx="4.118" cy="1.813" rx="4.118" ry="1.813" transform="translate(90.074 144.803) rotate(-45)" fill="#e5aeae" stroke="#000" stroke-linejoin="round" stroke-width="0.25"/>
        <ellipse id="Ellipse_1826" data-name="Ellipse 1826" cx="4.875" cy="1.813" rx="4.875" ry="1.813" transform="translate(58.448 151.312) rotate(-11.897)" fill="#e5aeae" stroke="#000" stroke-linejoin="round" stroke-width="0.25"/>
        <ellipse id="Ellipse_1827" data-name="Ellipse 1827" cx="1.133" cy="3.831" rx="1.133" ry="3.831" transform="translate(44.453 137.24) rotate(-60)" fill="#e5aeae" stroke="#000" stroke-linejoin="round" stroke-width="0.25"/>
        <ellipse id="Ellipse_1828" data-name="Ellipse 1828" cx="2.831" cy="1.297" rx="2.831" ry="1.297" transform="translate(79.526 143.789) rotate(-38.584)" fill="#e5aeae" stroke="#000" stroke-linejoin="round" stroke-width="0.25"/>
        <ellipse id="Ellipse_1829" data-name="Ellipse 1829" cx="3.204" cy="1.516" rx="3.204" ry="1.516" transform="translate(108.899 123.769) rotate(-60)" fill="#e5aeae" stroke="#000" stroke-linejoin="round" stroke-width="0.25"/>
        <ellipse id="Ellipse_1830" data-name="Ellipse 1830" cx="4.422" cy="1.742" rx="4.422" ry="1.742" transform="translate(117.794 111.431) rotate(-60)" fill="#e5aeae" stroke="#000" stroke-linejoin="round" stroke-width="0.25"/>
        <ellipse id="Ellipse_1831" data-name="Ellipse 1831" cx="2.545" cy="1.449" rx="2.545" ry="1.449" transform="translate(130.225 98.056) rotate(-60)" fill="#e5aeae" stroke="#000" stroke-linejoin="round" stroke-width="0.25"/>
        <ellipse id="Ellipse_1832" data-name="Ellipse 1832" cx="4.185" cy="1.569" rx="4.185" ry="1.569" transform="translate(134.8 80.166) rotate(-81.959)" fill="#e5aeae" stroke="#000" stroke-linejoin="round" stroke-width="0.25"/>
        <ellipse id="Ellipse_1833" data-name="Ellipse 1833" cx="2.369" cy="1.262" rx="2.369" ry="1.262" transform="translate(87.324 126.559) rotate(-50.013)" fill="#e5aeae" stroke="#000" stroke-linejoin="round" stroke-width="0.25"/>
        <ellipse id="Ellipse_1834" data-name="Ellipse 1834" cx="1.319" cy="2.629" rx="1.319" ry="2.629" transform="translate(10.608 93.446)" fill="#e5aeae" stroke="#000" stroke-linejoin="round" stroke-width="0.25"/>
        <ellipse id="Ellipse_1835" data-name="Ellipse 1835" cx="1.041" cy="2.373" rx="1.041" ry="2.373" transform="translate(15.49 106.389)" fill="#e5aeae" stroke="#000" stroke-linejoin="round" stroke-width="0.25"/>
        <ellipse id="Ellipse_1836" data-name="Ellipse 1836" cx="1.441" cy="4.05" rx="1.441" ry="4.05" transform="translate(23.337 101.025)" fill="#e5aeae" stroke="#000" stroke-linejoin="round" stroke-width="0.25"/>
        <ellipse id="Ellipse_1837" data-name="Ellipse 1837" cx="2.562" cy="0.961" rx="2.562" ry="0.961" transform="matrix(0.274, -0.962, 0.962, 0.274, 22.192, 82.332)" fill="#e5aeae" stroke="#000" stroke-linejoin="round" stroke-width="0.25"/>
        <path id="Path_11027" data-name="Path 11027" d="M272.165,986.25c1.206.839.24,3.687-2.8,8.649s-.158,8.163,2.323,9.764,2.88,4.965-.562,3.764-6.311-4.063-6.6-9.116S270.324,984.97,272.165,986.25Z" transform="translate(-222.089 -892.43)" fill="#e5aeae" stroke="#000" stroke-linejoin="round" stroke-width="0.25"/>
        <path id="Path_11028" data-name="Path 11028" d="M274.5,1010.869c.11-1.881,5.043.96,11.208-.881s6.8-4.4,8.645-2.961-2.8,4.066-6.884,5.555S274.335,1013.591,274.5,1010.869Z" transform="translate(-219.456 -887.027)" fill="#e5aeae" stroke="#000" stroke-linejoin="round" stroke-width="0.25"/>
        <path id="Path_11029" data-name="Path 11029" d="M290.057,1002.9c-1.441-2.083,4.812-4.706,8.406-8.969,5.6-6.644,6-15.691,8.726-15.37s-1.405,10.964-4.642,15.291C299.42,998.033,291.814,1005.441,290.057,1002.9Z" transform="translate(-215.405 -894.429)" fill="#e5aeae" stroke="#000" stroke-linejoin="round" stroke-width="0.25"/>
        <path id="Path_11030" data-name="Path 11030" d="M263.221,981.509c-1.826-.47-.2-5.732,2.842-10.135s5.805-6.886,8.107-11.048,6.944-5.364,6.144-3.282-3.443,3.122-5.444,7.444-5.6,5.124-7.206,10.168S264.639,981.874,263.221,981.509Z" transform="translate(-222.633 -900.369)" fill="#e5aeae" stroke="#000" stroke-linejoin="round" stroke-width="0.25"/>
        <path id="Path_11031" data-name="Path 11031" d="M286.307,966.307c-3.22-.555,1.522-6.8,6-10.887s11.367-6.725,15.37-6.565,4.393,4.882-.685,4.642-8.041-.078-12.844,4.444S288.629,966.708,286.307,966.307Z" transform="translate(-216.618 -902.268)" fill="#e5aeae" stroke="#000" stroke-linejoin="round" stroke-width="0.25"/>
        <path id="Path_11032" data-name="Path 11032" d="M300.394,965.443c-.992-.954,1.35-4.112,5.753-4.112s7.2,3.282,6.884,7.845-2.242,3.844-2.8,1.041-1.441-6.485-4.243-5.844S301.056,966.079,300.394,965.443Z" transform="translate(-212.68 -898.974)" fill="#e5aeae" stroke="#000" stroke-linejoin="round" stroke-width="0.25"/>
        <path id="Path_11033" data-name="Path 11033" d="M283.024,987.148c1.532,1.06,3.752-2.371,5.069-4.807s5.843-1.975,5.991-4.28-4.214-1.843-7.769,1.711S281.313,985.962,283.024,987.148Z" transform="translate(-217.394 -894.933)" fill="#e5aeae" stroke="#000" stroke-linejoin="round" stroke-width="0.25"/>
        <path id="Path_11034" data-name="Path 11034" d="M318.816,955.509c.919-1.754,4.814.652,3.876,5.406s-1.938,10.8-3.581,10.388.542-4.506,1.174-8.685C321.049,957.57,318.051,956.969,318.816,955.509Z" transform="translate(-207.84 -900.662)" fill="#e5aeae" stroke="#000" stroke-linejoin="round" stroke-width="0.25"/>
        <path id="Path_11035" data-name="Path 11035" d="M330.012,970.138c2,.11.2,4.3-1.716,8.242s-2.726,5.8-5.049,9.919-4.938,5.9-7.165,8.9-3.439,1.681-1.62-1.45,5.655-6.691,8.381-11.627,3.938-5.642,4.948-9.378S328.9,970.077,330.012,970.138Z" transform="translate(-209.142 -896.651)" fill="#e5aeae" stroke="#000" stroke-linejoin="round" stroke-width="0.25"/>
        <path id="Path_11036" data-name="Path 11036" d="M303.131,939.154c0-2.4,5.085-1.544,8.627.725s4.9,1.271,6.265,3.723.273,3.088-1.725,1.634a19.138,19.138,0,0,0-7.083-3.309C305.946,941.06,303.131,940.97,303.131,939.154Z" transform="translate(-211.899 -905.206)" fill="#e5aeae" stroke="#000" stroke-linejoin="round" stroke-width="0.25"/>
        <ellipse id="Ellipse_1838" data-name="Ellipse 1838" cx="2.521" cy="1.476" rx="2.521" ry="1.476" transform="translate(72.856 23.854) rotate(-36.296)" fill="#e5aeae" stroke="#000" stroke-linejoin="round" stroke-width="0.25"/>
        <ellipse id="Ellipse_1839" data-name="Ellipse 1839" cx="3.457" cy="1.229" rx="3.457" ry="1.229" transform="matrix(0.776, -0.631, 0.631, 0.776, 35.916, 42.496)" fill="#e5aeae" stroke="#000" stroke-linejoin="round" stroke-width="0.25"/>
        <ellipse id="Ellipse_1840" data-name="Ellipse 1840" cx="3.13" cy="0.972" rx="3.13" ry="0.972" transform="matrix(0.776, -0.631, 0.631, 0.776, 47.372, 39.673)" fill="#e5aeae" stroke="#000" stroke-linejoin="round" stroke-width="0.25"/>
        <ellipse id="Ellipse_1841" data-name="Ellipse 1841" cx="3.238" cy="1.698" rx="3.238" ry="1.698" transform="translate(101.095 8.214) rotate(-11.186)" fill="#e5aeae" stroke="#000" stroke-linejoin="round" stroke-width="0.25"/>
        <ellipse id="Ellipse_1842" data-name="Ellipse 1842" cx="1.491" cy="2.827" rx="1.491" ry="2.827" transform="translate(112.795 25.021) rotate(-30)" fill="#e5aeae" stroke="#000" stroke-linejoin="round" stroke-width="0.25"/>
        <ellipse id="Ellipse_1843" data-name="Ellipse 1843" cx="1.395" cy="2.539" rx="1.395" ry="2.539" transform="translate(131.178 18.76) rotate(-30)" fill="#e5aeae" stroke="#000" stroke-linejoin="round" stroke-width="0.25"/>
        <ellipse id="Ellipse_1844" data-name="Ellipse 1844" cx="4.775" cy="1.844" rx="4.775" ry="1.844" transform="translate(136.132 47.925) rotate(-87.796)" fill="#e5aeae" stroke="#000" stroke-linejoin="round" stroke-width="0.25"/>
      </g>
    </g>
    <g id="Group_3215" data-name="Group 3215" transform="translate(160.485 1042.846)">
      <g id="Group_3213" data-name="Group 3213" transform="translate(0 24.827)">
        <path id="Path_11037" data-name="Path 11037" d="M170.187,1087.016A55.454,55.454,0,0,1,149.4,1067.6a68.736,68.736,0,0,0,6.184,22.414c4.353,2.724,14.618,9.837,21.616,20.208,7.169,10.624,17.684,15.489,23.99,19.685a54.479,54.479,0,0,0,21.309,1.582,77.957,77.957,0,0,0,11.695-2.451c-6.14-1.5-13.97-6.412-25.691-15.579C194.474,1102.487,186.379,1095.651,170.187,1087.016Z" transform="translate(-149.104 -989.203)" fill="#e5aeae" stroke="#000" stroke-linejoin="round" stroke-width="0.25"/>
        <path id="Path_11038" data-name="Path 11038" d="M170.8,1073.232a224.249,224.249,0,0,0-19.114-32.091,205.806,205.806,0,0,0-2.476,25.157,62.611,62.611,0,0,0,.259,8.286A55.453,55.453,0,0,0,170.25,1094c16.192,8.635,24.287,15.471,38.32,26.446,11.721,9.167,19.551,14.077,25.691,15.579a93.223,93.223,0,0,0,15.9-6.285c-16.3-1.058-29.889-9.889-45.024-23.343C189.243,1092.267,181.787,1095.406,170.8,1073.232Z" transform="translate(-149.167 -996.186)" fill="#b25269" stroke="#000" stroke-linejoin="round" stroke-width="0.25"/>
        <path id="Path_11039" data-name="Path 11039" d="M175.913,1105.543c-7-10.371-17.264-17.485-21.616-20.208,8.919,19.193,26.106,34.584,45.606,39.893C193.6,1121.032,183.082,1116.168,175.913,1105.543Z" transform="translate(-147.813 -984.523)" fill="#b25269" stroke="#000" stroke-linejoin="round" stroke-width="0.25"/>
        <path id="Path_11040" data-name="Path 11040" d="M226.211,1105.787c-16.469-12.558-20.226-10.007-36.709-18.248s-15.109-29.433-24.724-36.694c-7.687-5.8-9.453-18.788-9.852-23.763-1.389,5.219-2.7,11.153-3.768,17.769a224.258,224.258,0,0,1,19.114,32.092c10.99,22.174,18.445,19.034,34.34,33.162,15.135,13.454,28.727,22.285,45.024,23.343a129.366,129.366,0,0,0,24.556-16.359C262.106,1118.4,241.308,1117.3,226.211,1105.787Z" transform="translate(-148.642 -999.896)" fill="#e5aeae" stroke="#000" stroke-linejoin="round" stroke-width="0.25"/>
        <path id="Path_11041" data-name="Path 11041" d="M303,1090.945l-138.576-85.373s-5.576,9.5-10.282,27.186c.4,4.975,2.165,17.959,9.852,23.762,9.616,7.261,8.242,28.453,24.724,36.695s20.24,5.69,36.708,18.248c15.1,11.513,35.9,12.611,47.981,11.3A174.407,174.407,0,0,0,303,1090.945Z" transform="translate(-147.855 -1005.572)" fill="#b25269" stroke="#000" stroke-linejoin="round" stroke-width="0.25"/>
      </g>
      <path id="Path_11042" data-name="Path 11042" d="M166.732,1002.853c13.476-19.8,43.8-26.361,88.815,3.244s59.211,69.754,45.828,90.032-61.688,20.692-104.676-10.94S156.324,1018.143,166.732,1002.853Z" transform="translate(-146.233 -985.928)" fill="#fff6eb" stroke="#000" stroke-miterlimit="10" stroke-width="0.25"/>
      <path id="Path_11043" data-name="Path 11043" d="M229.652,1087.659s-1.087,3.53-3.641,5.127" transform="translate(-128.888 -959.082)" fill="none" stroke="#000" stroke-linejoin="round" stroke-width="0.25"/>
      <path id="Path_11044" data-name="Path 11044" d="M234.949,1089.02s-2.449,5.643-6.5,6.5" transform="translate(-128.244 -958.723)" fill="none" stroke="#000" stroke-linejoin="round" stroke-width="0.25"/>
      <path id="Path_11045" data-name="Path 11045" d="M233.632,1101.4a5.425,5.425,0,0,1-2.609,3.513" transform="translate(-127.566 -955.455)" fill="none" stroke="#000" stroke-linejoin="round" stroke-width="0.25"/>
      <path id="Path_11046" data-name="Path 11046" d="M205.2,1090.705s.64,2.768,0,3.513" transform="translate(-134.38 -958.279)" fill="none" stroke="#000" stroke-linejoin="round" stroke-width="0.25"/>
      <path id="Path_11047" data-name="Path 11047" d="M198.689,1085.482a8.682,8.682,0,0,1-1.49,5.315" transform="translate(-136.492 -959.657)" fill="none" stroke="#000" stroke-linejoin="round" stroke-width="0.25"/>
      <path id="Path_11048" data-name="Path 11048" d="M161.078,1066.45s-2.023,6.911,0,11.6" transform="translate(-146.261 -964.679)" fill="none" stroke="#000" stroke-linejoin="round" stroke-width="0.25"/>
      <path id="Path_11049" data-name="Path 11049" d="M179.217,1081.925a14.638,14.638,0,0,0-4.6,5.251" transform="translate(-142.45 -960.596)" fill="none" stroke="#000" stroke-linejoin="round" stroke-width="0.25"/>
      <path id="Path_11050" data-name="Path 11050" d="M182.876,1098.619s-6.953,5.789-7.256,9.712" transform="translate(-142.186 -956.19)" fill="none" stroke="#000" stroke-linejoin="round" stroke-width="0.25"/>
      <path id="Path_11051" data-name="Path 11051" d="M197.54,1103.886s-2.529,6.232-6.575,7.936" transform="translate(-138.137 -954.8)" fill="none" stroke="#000" stroke-linejoin="round" stroke-width="0.25"/>
      <path id="Path_11052" data-name="Path 11052" d="M159.864,1032s-4.439,4.068-4.717,12.391" transform="translate(-147.589 -973.77)" fill="none" stroke="#000" stroke-linejoin="round" stroke-width="0.25"/>
      <path id="Path_11053" data-name="Path 11053" d="M159.532,1037.771a8.006,8.006,0,0,0-.647,3.34" transform="translate(-146.61 -972.247)" fill="none" stroke="#000" stroke-linejoin="round" stroke-width="0.25"/>
      <path id="Path_11054" data-name="Path 11054" d="M169.851,1050.292s-2.774,3.792-2.4,8.045" transform="translate(-144.352 -968.943)" fill="none" stroke="#000" stroke-linejoin="round" stroke-width="0.25"/>
      <path id="Path_11055" data-name="Path 11055" d="M171.576,1054.023s-.739,2.22-1.941,2.682" transform="translate(-143.766 -967.959)" fill="none" stroke="#000" stroke-linejoin="round" stroke-width="0.25"/>
      <g id="Group_3214" data-name="Group 3214" transform="translate(29.341 10.453)">
        <ellipse id="Ellipse_1845" data-name="Ellipse 1845" cx="3.113" cy="1.73" rx="3.113" ry="1.73" transform="translate(0 37.939) rotate(-83.105)" fill="#b25269" stroke="#000" stroke-linejoin="round" stroke-width="0.25"/>
        <ellipse id="Ellipse_1846" data-name="Ellipse 1846" cx="2.739" cy="1.427" rx="2.739" ry="1.427" transform="matrix(0.549, -0.836, 0.836, 0.549, 1.744, 12.939)" fill="#b25269" stroke="#000" stroke-linejoin="round" stroke-width="0.25"/>
        <ellipse id="Ellipse_1847" data-name="Ellipse 1847" cx="2.171" cy="1.29" rx="2.171" ry="1.29" transform="matrix(0.549, -0.836, 0.836, 0.549, 10.894, 22.564)" fill="#b25269" stroke="#000" stroke-linejoin="round" stroke-width="0.25"/>
        <ellipse id="Ellipse_1848" data-name="Ellipse 1848" cx="3.844" cy="1.666" rx="3.844" ry="1.666" transform="matrix(0.887, -0.463, 0.463, 0.887, 17.221, 9.232)" fill="#b25269" stroke="#000" stroke-linejoin="round" stroke-width="0.25"/>
        <ellipse id="Ellipse_1849" data-name="Ellipse 1849" cx="2.004" cy="3.465" rx="2.004" ry="3.465" transform="translate(39.073 3.563) rotate(-62.717)" fill="#b25269" stroke="#000" stroke-linejoin="round" stroke-width="0.25"/>
        <ellipse id="Ellipse_1850" data-name="Ellipse 1850" cx="1.762" cy="4.616" rx="1.762" ry="4.616" transform="translate(15.736 55.384) rotate(-14.255)" fill="#b25269" stroke="#000" stroke-linejoin="round" stroke-width="0.25"/>
        <ellipse id="Ellipse_1851" data-name="Ellipse 1851" cx="1.3" cy="3.96" rx="1.3" ry="3.96" transform="translate(10.35 64.445) rotate(-24.132)" fill="#b25269" stroke="#000" stroke-linejoin="round" stroke-width="0.25"/>
        <ellipse id="Ellipse_1852" data-name="Ellipse 1852" cx="0.854" cy="2.971" rx="0.854" ry="2.971" transform="translate(8.947 52.401) rotate(-14.255)" fill="#b25269" stroke="#000" stroke-linejoin="round" stroke-width="0.25"/>
        <ellipse id="Ellipse_1853" data-name="Ellipse 1853" cx="0.695" cy="1.641" rx="0.695" ry="1.641" transform="translate(1.475 48.155) rotate(-14.255)" fill="#b25269" stroke="#000" stroke-linejoin="round" stroke-width="0.25"/>
        <path id="Path_11056" data-name="Path 11056" d="M195.019,1018.588c2.023.243-2.36,6.226-1.055,10.092s1.908,6.576.353,7.329-4.368-5.974-3.464-10.593S193.764,1018.438,195.019,1018.588Z" transform="translate(-167.554 -987.765)" fill="#b25269" stroke="#000" stroke-linejoin="round" stroke-width="0.25"/>
        <path id="Path_11057" data-name="Path 11057" d="M209.127,1026.759c2.465-.731,2.653,6.308,4.66,8.889s.126,3.514-2.625,0S207.192,1027.332,209.127,1026.759Z" transform="translate(-162.934 -985.621)" fill="#b25269" stroke="#000" stroke-linejoin="round" stroke-width="0.25"/>
        <path id="Path_11058" data-name="Path 11058" d="M223.078,1030.413c.645-1.29,4.148.255,6.954,4.589,2.591,4,2.288,7.767.914,7.755-1.174-.009-1.55-4.955-3.367-7.538C225.939,1032.89,222.289,1031.99,223.078,1030.413Z" transform="translate(-159.032 -984.759)" fill="#b25269" stroke="#000" stroke-linejoin="round" stroke-width="0.25"/>
        <path id="Path_11059" data-name="Path 11059" d="M200.5,1020.977c-.858-.859,1.418-4.3,8.7-5.33s13.886,2.1,13.74,4.058-6.308-3.276-13.544-1.81S201.725,1022.2,200.5,1020.977Z" transform="translate(-165.006 -988.592)" fill="#b25269" stroke="#000" stroke-linejoin="round" stroke-width="0.25"/>
        <path id="Path_11060" data-name="Path 11060" d="M210.732,1006.56c.027-2.17,6.959-1.3,13.318,2.6s7.008,5.853,5.636,6.5-4.606-3.423-10.838-5.636C214.5,1008.486,210.711,1008.366,210.732,1006.56Z" transform="translate(-162.261 -991.244)" fill="#b25269" stroke="#000" stroke-linejoin="round" stroke-width="0.25"/>
        <ellipse id="Ellipse_1854" data-name="Ellipse 1854" cx="1.468" cy="3.969" rx="1.468" ry="3.969" transform="translate(71.952 17.14) rotate(-60)" fill="#b25269" stroke="#000" stroke-linejoin="round" stroke-width="0.25"/>
        <ellipse id="Ellipse_1855" data-name="Ellipse 1855" cx="1.437" cy="2.771" rx="1.437" ry="2.771" transform="translate(75.51 30.684) rotate(-60)" fill="#b25269" stroke="#000" stroke-linejoin="round" stroke-width="0.25"/>
        <ellipse id="Ellipse_1856" data-name="Ellipse 1856" cx="1.061" cy="3.182" rx="1.061" ry="3.182" transform="matrix(0.768, -0.64, 0.64, 0.768, 92.659, 32.511)" fill="#b25269" stroke="#000" stroke-linejoin="round" stroke-width="0.25"/>
        <ellipse id="Ellipse_1857" data-name="Ellipse 1857" cx="1.403" cy="3.73" rx="1.403" ry="3.73" transform="translate(105.021 56.44) rotate(-16.901)" fill="#b25269" stroke="#000" stroke-linejoin="round" stroke-width="0.25"/>
        <ellipse id="Ellipse_1858" data-name="Ellipse 1858" cx="1.356" cy="5.28" rx="1.356" ry="5.28" transform="translate(115.962 62.374) rotate(-11.897)" fill="#b25269" stroke="#000" stroke-linejoin="round" stroke-width="0.25"/>
        <ellipse id="Ellipse_1859" data-name="Ellipse 1859" cx="3.194" cy="1.34" rx="3.194" ry="1.34" transform="translate(113.265 78.366) rotate(-74.008)" fill="#b25269" stroke="#000" stroke-linejoin="round" stroke-width="0.25"/>
        <ellipse id="Ellipse_1860" data-name="Ellipse 1860" cx="4.654" cy="1.782" rx="4.654" ry="1.782" transform="matrix(0.57, -0.821, 0.821, 0.57, 113.029, 92.23)" fill="#b25269" stroke="#000" stroke-linejoin="round" stroke-width="0.25"/>
        <ellipse id="Ellipse_1861" data-name="Ellipse 1861" cx="1.395" cy="3.081" rx="1.395" ry="3.081" transform="translate(44.293 88.695) rotate(-60)" fill="#b25269" stroke="#000" stroke-linejoin="round" stroke-width="0.25"/>
        <path id="Path_11061" data-name="Path 11061" d="M206.13,1045.353c1.675-1.675,5.062,1.38,9.74,4.985s8.742,3.833,12.5,5.674,2.147,3.3-.537,2.762-7.515-3.6-13.65-5.9S204.827,1046.656,206.13,1045.353Z" transform="translate(-163.551 -980.824)" fill="#b25269" stroke="#000" stroke-linejoin="round" stroke-width="0.25"/>
        <path id="Path_11062" data-name="Path 11062" d="M229.564,1059.981c-.46-.767,2.915-.92,5.982-1.534s3.225-1.993,4.258-.843-2.035,3.3-6.56,3.375S229.564,1059.981,229.564,1059.981Z" transform="translate(-157.308 -977.584)" fill="#b25269" stroke="#000" stroke-linejoin="round" stroke-width="0.25"/>
        <path id="Path_11063" data-name="Path 11063" d="M254.5,1055.97c2.489.626,1.073,4.641-3.6,8.093s-11.81,5.828-12.116,3.68,5.4-2.386,9.355-5.478C252.5,1058.848,252.809,1055.545,254.5,1055.97Z" transform="translate(-154.864 -977.908)" fill="#b25269" stroke="#000" stroke-linejoin="round" stroke-width="0.25"/>
        <ellipse id="Ellipse_1862" data-name="Ellipse 1862" cx="2.207" cy="1.28" rx="2.207" ry="1.28" transform="translate(77.131 103.24) rotate(-37.983)" fill="#b25269" stroke="#000" stroke-linejoin="round" stroke-width="0.25"/>
        <ellipse id="Ellipse_1863" data-name="Ellipse 1863" cx="1.7" cy="1.087" rx="1.7" ry="1.087" transform="translate(84.64 104.842)" fill="#b25269" stroke="#000" stroke-linejoin="round" stroke-width="0.25"/>
        <ellipse id="Ellipse_1864" data-name="Ellipse 1864" cx="2.433" cy="1.282" rx="2.433" ry="1.282" transform="translate(103.596 104.175) rotate(-22.974)" fill="#b25269" stroke="#000" stroke-linejoin="round" stroke-width="0.25"/>
        <path id="Path_11064" data-name="Path 11064" d="M238.607,1026.82c1.328-.383,5.149,4.837,6.5,9.059s2.6,11.318.54,11.677.09-5.748-4.312-12.217S237.668,1027.089,238.607,1026.82Z" transform="translate(-155.094 -985.596)" fill="#b25269" stroke="#000" stroke-linejoin="round" stroke-width="0.25"/>
      </g>
    </g>
  </g>
</svg>
