<svg xmlns="http://www.w3.org/2000/svg" xmlns:xlink="http://www.w3.org/1999/xlink" width="380.492" height="469.245" viewBox="0 0 380.492 469.245">
  <defs>
    <clipPath id="clip-path">
      <path id="Path_13065" data-name="Path 13065" d="M900.021,1511.632c-4.459-17.463-12.768-46.741,5.107-82.491s61.286-75.331,118.1-93.525,126.722-4.788,151.619,14.683,82.992,142.682,3.405,212.48-165.558,44.155-185.029,37.452-58.732-25.536-74.692-46.922S903.065,1523.553,900.021,1511.632Z" transform="translate(-894.158 -1327.009)" fill="none"/>
    </clipPath>
    <clipPath id="clip-path-2">
      <path id="Path_13123" data-name="Path 13123" d="M990.4,1502.667l23.107,5.746s8.3,36.814,38.3,58.944,50.647,33.835,106.187,21.6c0,0-55.115,22.025-100.228.958a116.9,116.9,0,0,1-61.924-68.628C992.655,1512.03,990.4,1502.667,990.4,1502.667Z" transform="translate(-990.402 -1502.667)" fill="none"/>
    </clipPath>
  </defs>
  <g id="Group_3703" data-name="Group 3703" transform="translate(-894.034 -1272.988)">
    <g id="Group_3690" data-name="Group 3690" transform="translate(896.297 1605.282)">
      <ellipse id="Ellipse_2124" data-name="Ellipse 2124" cx="3.618" cy="2.102" rx="3.618" ry="2.102" transform="translate(13.194 0.633)" fill="#c19165" stroke="#000" stroke-linejoin="round" stroke-width="0.25"/>
      <ellipse id="Ellipse_2125" data-name="Ellipse 2125" cx="6.597" cy="3.086" rx="6.597" ry="3.086" transform="translate(0 27.394)" fill="#ecb36f" stroke="#000" stroke-linejoin="round" stroke-width="0.25"/>
      <path id="Path_13049" data-name="Path 13049" d="M909,1544.118s6.065-4.044,11.651-.852,7.98,2.448,12.236.852,8.247-1.863,11.6,2.075" transform="translate(-892.189 -1530.768)" fill="none" stroke="#000" stroke-miterlimit="10" stroke-width="0.25"/>
      <path id="Path_13050" data-name="Path 13050" d="M919.75,1534.537s6.459-2.633,9.63-.479,7.182,1.175,9.257-.184" transform="translate(-889.213 -1533.211)" fill="none" stroke="#000" stroke-miterlimit="10" stroke-width="0.25"/>
      <ellipse id="Ellipse_2126" data-name="Ellipse 2126" cx="5.027" cy="1.915" rx="5.027" ry="1.915" transform="translate(104.201 107.14)" fill="#ecb36f" stroke="#000" stroke-linejoin="round" stroke-width="0.25"/>
      <ellipse id="Ellipse_2127" data-name="Ellipse 2127" cx="8.219" cy="3.112" rx="8.219" ry="3.112" transform="translate(111.582 116.557)" fill="#c19165" stroke="#000" stroke-linejoin="round" stroke-width="0.25"/>
      <ellipse id="Ellipse_2128" data-name="Ellipse 2128" cx="5.187" cy="3.032" rx="5.187" ry="3.032" transform="translate(254.683 130.761)" fill="#ecb36f" stroke="#000" stroke-linejoin="round" stroke-width="0.25"/>
      <ellipse id="Ellipse_2129" data-name="Ellipse 2129" cx="8.459" cy="3.671" rx="8.459" ry="3.671" transform="translate(270.346 62.612)" fill="#c19165" stroke="#000" stroke-linejoin="round" stroke-width="0.25"/>
      <ellipse id="Ellipse_2130" data-name="Ellipse 2130" cx="5.905" cy="3.192" rx="5.905" ry="3.192" transform="translate(286.885 78.253)" fill="#c19165" stroke="#000" stroke-linejoin="round" stroke-width="0.25"/>
      <ellipse id="Ellipse_2131" data-name="Ellipse 2131" cx="5.586" cy="3.192" rx="5.586" ry="3.192" transform="translate(337.714 47.291)" fill="#ecb36f" stroke="#000" stroke-linejoin="round" stroke-width="0.25"/>
      <path id="Path_13051" data-name="Path 13051" d="M1184.125,1550.769a6.032,6.032,0,0,1,5.665-.4c2.953,1.436,5.826.737,7.022-.549" transform="translate(-826.781 -1528.614)" fill="none" stroke="#000" stroke-miterlimit="10" stroke-width="0.25"/>
      <path id="Path_13052" data-name="Path 13052" d="M1160.437,1563.09s6.3-3.271,12.608-1.6,8.22,2.076,10.454.559a10.419,10.419,0,0,1,11.332,0c4.309,2.873,9.336-.323,9.336-.323" transform="translate(-833.337 -1525.694)" fill="none" stroke="#000" stroke-miterlimit="10" stroke-width="0.25"/>
      <path id="Path_13053" data-name="Path 13053" d="M1061.375,1602.071s7.98-6.224,19.471-2.075,16.279-1.6,22.184-2.234,6.384,4.469,18.513,4.309" transform="translate(-857.078 -1515.36)" fill="none" stroke="#000" stroke-miterlimit="10" stroke-width="0.25"/>
      <path id="Path_13054" data-name="Path 13054" d="M1140.5,1620.066s5.426-3.671,9.9-2.394,7.661,3.292,13.247-.27,12.13,2.663,12.13,2.663" transform="translate(-838.856 -1510.212)" fill="none" stroke="#000" stroke-miterlimit="10" stroke-width="0.25"/>
      <path id="Path_13055" data-name="Path 13055" d="M1080.25,1633.518s3.192,2.394,5.986.958,6.144-1.476,7.74.458" transform="translate(-851.666 -1505.47)" fill="none" stroke="#000" stroke-miterlimit="10" stroke-width="0.25"/>
      <path id="Path_13056" data-name="Path 13056" d="M1013.25,1624.79s8.618-5.586,15.481-1.117,14.683.525,21.067-1.733,11.012.7,14.364,3.772" transform="translate(-868.205 -1508.872)" fill="none" stroke="#000" stroke-miterlimit="10" stroke-width="0.25"/>
      <path id="Path_13057" data-name="Path 13057" d="M923.125,1629.259a25.281,25.281,0,0,1,18.035-.958c10.055,3.192,15.162-6.952,30.324-.125" transform="translate(-888.279 -1507.595)" fill="none" stroke="#000" stroke-miterlimit="10" stroke-width="0.25"/>
    </g>
    <g id="Group_3694" data-name="Group 3694" transform="translate(894.158 1341.924)">
      <path id="Path_13058" data-name="Path 13058" d="M900.021,1511.632c-4.459-17.463-12.768-46.741,5.107-82.491s61.286-75.331,118.1-93.525,126.722-4.788,151.619,14.683,82.992,142.682,3.405,212.48-165.558,44.155-185.029,37.452-58.732-25.536-74.692-46.922S903.065,1523.553,900.021,1511.632Z" transform="translate(-894.158 -1327.009)" fill="#62a542" stroke="#000" stroke-linejoin="round" stroke-width="0.25"/>
      <path id="Path_13059" data-name="Path 13059" d="M908.057,1464.68s5.959,7.873,4.255,16.172a10.728,10.728,0,0,0-4.521,1.33c-1.756,1.171-4.15-1.436-3.778-5.267s-3.138-4.15-3.138-8.086S905.238,1464.413,908.057,1464.68Z" transform="translate(-892.298 -1288.92)" fill="#6d4a32" stroke="#000" stroke-linejoin="round" stroke-width="0.25"/>
      <ellipse id="Ellipse_2132" data-name="Ellipse 2132" cx="4.256" cy="2.554" rx="4.256" ry="2.554" transform="translate(61.229 52.253) rotate(-30)" fill="#dffffa" stroke="#231815" stroke-miterlimit="10" stroke-width="0.25"/>
      <ellipse id="Ellipse_2133" data-name="Ellipse 2133" cx="5.214" cy="2.979" rx="5.214" ry="2.979" transform="translate(53.058 67.472) rotate(-30)" fill="#dffffa" stroke="#231815" stroke-miterlimit="10" stroke-width="0.25"/>
      <ellipse id="Ellipse_2134" data-name="Ellipse 2134" cx="3.298" cy="2.447" rx="3.298" ry="2.447" transform="translate(230.26 50.209)" fill="#dffffa" stroke="#231815" stroke-miterlimit="10" stroke-width="0.25"/>
      <g id="Group_3693" data-name="Group 3693">
        <g id="Group_3692" data-name="Group 3692" clip-path="url(#clip-path)">
          <g id="Group_3691" data-name="Group 3691" transform="translate(0.627 12.118)">
            <path id="Path_13060" data-name="Path 13060" d="M894.649,1445.293c12.161,19.439,6.992,27.484,6.992,27.484,3.192,2.554,4.788,8.14,4.788,8.14a11.4,11.4,0,0,0,.8-10.587s4.255-6.49,4.255-9.576c0,0-6.277-8.937,4.682-18.725,0,0-5.107-9.151-3.086-15.854s3.511-14.9.958-19.152c0,0,3.6-9.87,2.812-15.1l-18.877,20.683Z" transform="translate(-894.649 -1321.158)" fill="#518937" stroke="#000" stroke-linejoin="round" stroke-width="0.25"/>
            <path id="Path_13061" data-name="Path 13061" d="M910.073,1492.907s12.355-12.768,14.271-34.793,17.723-27.3,15.641-52.987c0,0,22.344.958,30.324-8.3a76.052,76.052,0,0,1,36.069-23.94c17.237-5.426,25.536-29.685,25.536-29.685s23.461,10.853,45.8-6.7c0,0,17.4,6.544,26.653,1.277,0,0,6.863,5.905,16.6,1.6s23.94.958,23.94.958,12.927,20.748,12.927,20.269-28.728-7.5-50.752,8.14c0,0-28.409.8-41.655,22.344,0,0-34.154-19.312-47.72,10.693,0,0-20.109-.638-31.281,9.576s-11.491,33.675-11.491,33.675-16.917-8.14-30.8,14.364S925.647,1490.513,910.073,1492.907Z" transform="translate(-890.38 -1336.5)" fill="#518937" stroke="#000" stroke-linejoin="round" stroke-width="0.25"/>
            <path id="Path_13062" data-name="Path 13062" d="M917.125,1486.977s15.8-4.309,26.015-15.162c0,0,18.992,1.277,26.493-10.055,0,0,37.346-7.022,56.658-33.995,0,0,21.865,3.83,38.942-13.406,0,0,38.3,7.022,55.86-20.109,0,0,22.663,11.651,55.221,2.234l29.96,8.507a181.722,181.722,0,0,1,4.29,21.324s-49.252-3.976-71.756,12.782c0,0-30.643-13.726-69.106,16.6,0,0-21.865-10.055-31.122,3.192,0,0-24.1.8-40.379,28.089,0,0-26.493-10.374-50.593,3.83C947.608,1490.807,929.893,1486.179,917.125,1486.977Z" transform="translate(-888.428 -1320.515)" fill="#518937" stroke="#000" stroke-linejoin="round" stroke-width="0.25"/>
            <path id="Path_13063" data-name="Path 13063" d="M918.125,1489.094s25.376,13.406,41.017,11.81c0,0,15,14.2,37.665,3.032,0,0,29.207,6.065,44.209-12.608,0,0,27.451-1.915,43.251-18.035,0,0,24.1,6.065,37.985-5.426,0,0,16.439,5.267,31.76-1.117l2.394,8.938s-133.9,39.9-154.013,55.541c0,0-17.715-9.1-36.708-4.948a25.667,25.667,0,0,0-22.344-10.853S942.863,1505.235,918.125,1489.094Z" transform="translate(-888.151 -1300.448)" fill="#518937" stroke="#000" stroke-linejoin="round" stroke-width="0.25"/>
            <path id="Path_13064" data-name="Path 13064" d="M911.125,1492s8.459,14.179,7.661,21.453c0,0,43.89,57.868,131.669,53.719l-1.436-15.162s-33.995,9.736-45.167-.638c0,0-28.728,3.352-46.6-15.481,0,0-14.364-4.469-18.354-19.631C938.9,1516.259,926.167,1514.849,911.125,1492Z" transform="translate(-890.089 -1293.459)" fill="#518937" stroke="#000" stroke-linejoin="round" stroke-width="0.25"/>
          </g>
        </g>
      </g>
    </g>
    <g id="Group_3695" data-name="Group 3695" transform="translate(1123.089 1273.125)">
      <path id="Path_13066" data-name="Path 13066" d="M1122.094,1273.125s-3.99,13.885-2.554,22.663,7.182,13.885,5.586,16.758-9.417,2.873-16.12-.8c0,0,1.117,19.631,14.843,26.334s15.8,12.13,12.449,16.758-19.312-.958-27.292-9.1-20.109-6.544-24.1-.319-6.065,18.354,7.022,27.451,24.578,8.938,31.92,15.162,6.163,8.14,13.854,10.693,11.682,9.1,6.734,13.247-17.715,5.107-25.376,0-12.927-3.192-20.429-4.15-16.758,3.352-12.608,15.481,6.649,23.3,28.222,23.3,35.777-.479,36.415,8.14-23.461,10.214-33.2,8.938-21.97-3.341-28.887,1.436-6.7,15,4.15,20.748,22.982,1.117,28.887,11.332,11.97,17.556,24.1,20.269,26.653-16.6,38.463-19.95,11.172-13.885,29.686-18.354,21.865-29.207,14.2-36.708-22.982-4.15-28.249,4.788-24.259,13.726-24.1,3.99,16.119-7.342,30.483-17.715,10.853-13.885,19.631-18.673,9.736-22.823,2.554-30-12.768-3.032-21.067-3.192-15.96,7.5-17.875,14.843-14.364,20.588-21.067,15,.319-18.035,3.192-22.823-.638-16.12,14.364-21.546,21.546-25.7,17.4-34.793-13.247-11.81-17.556-6.384-11.172,5.267-14.683,14.2-13.885,13.885-16.758,5.746,6.224-8.14,11.012-17.077-2.4-26.174-7.824-30.483c0,0-7.018,13.726-10.849,11.172s3.352-12.449-7.022-23.94C1129.2,1273.995,1122.094,1273.125,1122.094,1273.125Z" transform="translate(-1081.875 -1273.125)" fill="#cad226" stroke="#231815" stroke-miterlimit="10" stroke-width="0.25"/>
      <path id="Path_13067" data-name="Path 13067" d="M1113.375,1273.125s43.848,102.346,46.9,233.675" transform="translate(-1073.156 -1273.125)" fill="none" stroke="#000" stroke-miterlimit="10" stroke-width="0.25"/>
      <path id="Path_13068" data-name="Path 13068" d="M1103.125,1303.375s18.037,22.872,33.517,22.156" transform="translate(-1075.993 -1264.752)" fill="none" stroke="#000" stroke-miterlimit="10" stroke-width="0.25"/>
      <path id="Path_13069" data-name="Path 13069" d="M1144.373,1292.875s2.237,23.723-15,35.563" transform="translate(-1068.727 -1267.658)" fill="none" stroke="#000" stroke-miterlimit="10" stroke-width="0.25"/>
      <path id="Path_13070" data-name="Path 13070" d="M1084.25,1329.75s27.087,37.061,69.085,35.209" transform="translate(-1081.217 -1257.452)" fill="none" stroke="#000" stroke-miterlimit="10" stroke-width="0.25"/>
      <path id="Path_13071" data-name="Path 13071" d="M1181.479,1313.679s-16.965,45.163-43.121,55.728" transform="translate(-1066.241 -1261.9)" fill="none" stroke="#000" stroke-miterlimit="10" stroke-width="0.25"/>
      <path id="Path_13072" data-name="Path 13072" d="M1085.054,1382.962s43.383,30.966,78,26.2" transform="translate(-1080.995 -1242.723)" fill="none" stroke="#000" stroke-miterlimit="10" stroke-width="0.25"/>
      <path id="Path_13073" data-name="Path 13073" d="M1208.725,1359.334s-32.6,53.518-62.584,56.368" transform="translate(-1064.086 -1249.263)" fill="none" stroke="#000" stroke-miterlimit="10" stroke-width="0.25"/>
      <path id="Path_13074" data-name="Path 13074" d="M1084.726,1425.944s37.05,26.246,82.7,18.585" transform="translate(-1081.085 -1230.826)" fill="none" stroke="#000" stroke-miterlimit="10" stroke-width="0.25"/>
      <path id="Path_13075" data-name="Path 13075" d="M1209.35,1405.75s-18.361,36.833-59.854,44.369" transform="translate(-1063.157 -1236.415)" fill="none" stroke="#000" stroke-miterlimit="10" stroke-width="0.25"/>
    </g>
    <g id="Group_3696" data-name="Group 3696" transform="translate(1120.576 1411.865)">
      <path id="Path_13076" data-name="Path 13076" d="M1126.214,1381.762s-6.863,10.055-8.3,17.556,1.6,11.491-2.713,12.608-9.576-3.192-12.13-5.267c0,0-4.038,14.841,4.469,24.418s7.723,17.25.638,16.758-15.96-5.746-21.067,2.553,3.511,14.683,9.257,15.322,6.7,5.905,15.96,6.544,10.214,13.247,3.192,14.2-12.608-6.224-18.992-9.9-15.322-4.309-17.875,1.915,2.234,13.566,7.82,17.875,6.224,14.045,20.109,14.364,42.773-1.277,49.635-12.13,7.82-16.917,3.511-20.748-8.937-3.511-13.885,1.915-10.853,3.831-10.214-.958,5.267-7.342,14.364-8.14,8.875-16.6,12.338-21.227-5.156-12.751-11.859-5.178-12.927,6.934-12.927,2.944,9.618-7.818,14.035-19.631,0-19.312,0-19.312-8.964,7.455-12.917,5.107,1.755-7.82-2.394-17.237A42.22,42.22,0,0,0,1126.214,1381.762Z" transform="translate(-1077.948 -1381.762)" fill="#cad226" stroke="#231815" stroke-miterlimit="10" stroke-width="0.25"/>
      <path id="Path_13077" data-name="Path 13077" d="M1116.343,1381.762s9.7,59.569-2.732,128.417" transform="translate(-1068.077 -1381.762)" fill="none" stroke="#000" stroke-miterlimit="10" stroke-width="0.25"/>
      <path id="Path_13078" data-name="Path 13078" d="M1097.626,1401.262s7.358,23.78,26.741,28.728" transform="translate(-1072.502 -1376.365)" fill="none" stroke="#000" stroke-miterlimit="10" stroke-width="0.25"/>
      <path id="Path_13079" data-name="Path 13079" d="M1140.337,1402.512s-3.47,25.32-21.767,27.132" transform="translate(-1066.705 -1376.018)" fill="none" stroke="#000" stroke-miterlimit="10" stroke-width="0.25"/>
      <path id="Path_13080" data-name="Path 13080" d="M1084.671,1436.346a62.719,62.719,0,0,0,42.142,17.123" transform="translate(-1076.088 -1366.653)" fill="none" stroke="#000" stroke-miterlimit="10" stroke-width="0.25"/>
      <path id="Path_13081" data-name="Path 13081" d="M1149.967,1429.593s-6.991,22.3-32.29,25.745" transform="translate(-1066.952 -1368.523)" fill="none" stroke="#000" stroke-miterlimit="10" stroke-width="0.25"/>
      <path id="Path_13082" data-name="Path 13082" d="M1079.438,1455.97s12.481,26.353,44.162,30.662" transform="translate(-1077.536 -1361.222)" fill="none" stroke="#000" stroke-miterlimit="10" stroke-width="0.25"/>
      <path id="Path_13083" data-name="Path 13083" d="M1149.744,1457.012a50.079,50.079,0,0,1-35.718,29.332" transform="translate(-1067.963 -1360.933)" fill="none" stroke="#000" stroke-miterlimit="10" stroke-width="0.25"/>
    </g>
    <g id="Group_3697" data-name="Group 3697" transform="translate(907.788 1590.417)">
      <path id="Path_13084" data-name="Path 13084" d="M904.833,1614.687s.746-19.471,13.406-22.45,18.3-7.13,15.215-11.491-15.641-6.81-14.47-11.917,12.235-3.192,18.939-5.852,18.088,5.107,23.2,0,.638-9.47-5-10.534-8.086-5.746-15.854-9.257-6.171-20.429,14.577-19.79,13.087,10.747,26.494,14.789,17.856,2.537,15-3.723-5.532-9.257-1.7-12.449,47.527,11.278,58.849,28.036,8.608,26.494,11.321,34.314-1.755,15.96,1.277,23.142-6.863,11.172-9.416,16.439-8.459,10.533-15.8,3.671-11.332-13.087-9.576-19.95,3.677-21.227-1.433-28.728-13.889-7.98-15.166,2.873,5.426,19.312,2.234,30.483-9.9,11.491-17.716,14.2-11.651.479-15-6.384,6.224-13.247,4.628-22.025-10.534-15-14.045-6.065-1.915,11.81-7.661,17.556-6.065,11.491-11.491,13.087c0,0-1.277-11.81-5.905-11.81s-4.628,4.309-14.843,4.309S922.656,1624.582,904.833,1614.687Z" transform="translate(-904.833 -1521.569)" fill="#cad226" stroke="#231815" stroke-miterlimit="10" stroke-width="0.25"/>
      <path id="Path_13085" data-name="Path 13085" d="M904.833,1607.106s37.24-14.683,53.625-31.707,62.42-30.564,99.518-25.283" transform="translate(-904.833 -1513.987)" fill="none" stroke="#000" stroke-miterlimit="10" stroke-width="0.25"/>
      <path id="Path_13086" data-name="Path 13086" d="M957.886,1570.365c-14.793-9.544-41.969-11.782-41.969-11.782" transform="translate(-901.765 -1511.323)" fill="none" stroke="#000" stroke-miterlimit="10" stroke-width="0.25"/>
      <path id="Path_13087" data-name="Path 13087" d="M944.625,1609.867a51.981,51.981,0,0,0,5.315-42.056" transform="translate(-893.819 -1508.769)" fill="none" stroke="#000" stroke-miterlimit="10" stroke-width="0.25"/>
      <path id="Path_13088" data-name="Path 13088" d="M930.308,1528.755s39.667,10.518,62.942,31.271" transform="translate(-897.782 -1519.579)" fill="none" stroke="#000" stroke-miterlimit="10" stroke-width="0.25"/>
      <path id="Path_13089" data-name="Path 13089" d="M975.588,1618.74s13.214-20.494,5.129-65.493" transform="translate(-885.249 -1512.8)" fill="none" stroke="#000" stroke-miterlimit="10" stroke-width="0.25"/>
      <path id="Path_13090" data-name="Path 13090" d="M1015.542,1622.945s17.02-35.77-2.292-73.97" transform="translate(-874.824 -1513.983)" fill="none" stroke="#000" stroke-miterlimit="10" stroke-width="0.25"/>
      <path id="Path_13091" data-name="Path 13091" d="M974.169,1523s30.606,9.627,49.758,33.12" transform="translate(-885.641 -1521.172)" fill="none" stroke="#000" stroke-miterlimit="10" stroke-width="0.25"/>
    </g>
    <g id="Group_3698" data-name="Group 3698" transform="translate(971.62 1470.856)">
      <path id="Path_13092" data-name="Path 13092" d="M964.361,1427.953s-4.526,13.339,2.16,23.751,6.362,13.778-3.435,17.7-4.742,11.22,2.928,11.855,5.05,4.507,12.668,6.22,11.467,5.836,3.9,8.728-7.578-1.4-17.418,1.355-9.4,12.993-4.2,17.588,17.478,9.255,26.984,4.723,22.731-4.284,22.572,2.065-14.061,10.046-21.879,7.607-22.571,4.691-18.152,16.679,17.567,13.32,27.013,11.69,18.973,10.888,34.205,5.843,31.047-9.737,40.223-26.991,7.557-35.067-5.582-32.111-28.652,7.145-29.929.8,11.028-15.773,13.821-24.172,6.1-16.542-4.825-26.576-18.5,2.513-17.893,11.122-2.057,24.324-8.155,21.916,1.245-12.994-.827-19.166-6.151-10.541-7.9-16-7.481-7.546-9.719-3-4.605,3.643-5.472.615-4.388-11.75-14.411-14.659S968.733,1432.814,964.361,1427.953Z" transform="translate(-957.335 -1427.953)" fill="#cad226" stroke="#231815" stroke-miterlimit="10" stroke-width="0.25"/>
      <path id="Path_13093" data-name="Path 13093" d="M962.838,1427.953s25.78,45.876,46.632,66.486,31.47,65.646,31.47,65.646" transform="translate(-955.812 -1427.953)" fill="none" stroke="#000" stroke-miterlimit="10" stroke-width="0.25"/>
      <path id="Path_13094" data-name="Path 13094" d="M957.611,1464.571s21.474,8.394,39.823,4.093" transform="translate(-957.259 -1417.817)" fill="none" stroke="#000" stroke-miterlimit="10" stroke-width="0.25"/>
      <path id="Path_13095" data-name="Path 13095" d="M996.646,1443.01s3.367,21.222-7.845,31.622" transform="translate(-948.626 -1423.785)" fill="none" stroke="#000" stroke-miterlimit="10" stroke-width="0.25"/>
      <path id="Path_13096" data-name="Path 13096" d="M957.338,1490.265s27.911,11.864,62.753-1.389" transform="translate(-957.335 -1411.09)" fill="none" stroke="#000" stroke-miterlimit="10" stroke-width="0.25"/>
      <path id="Path_13097" data-name="Path 13097" d="M1027.452,1446.6s6.438,38.942-20.965,53.976" transform="translate(-943.731 -1422.791)" fill="none" stroke="#000" stroke-miterlimit="10" stroke-width="0.25"/>
      <path id="Path_13098" data-name="Path 13098" d="M967.362,1514.846s24.657,16.831,66.486,1.789" transform="translate(-954.56 -1403.902)" fill="none" stroke="#000" stroke-miterlimit="10" stroke-width="0.25"/>
      <path id="Path_13099" data-name="Path 13099" d="M1027.405,1499.954s6.537-4.262,12.751-5.16,9.489-6.353,16.046-7.938" transform="translate(-937.941 -1411.649)" fill="none" stroke="#000" stroke-miterlimit="10" stroke-width="0.25"/>
    </g>
    <g id="Group_3702" data-name="Group 3702" transform="translate(1006.297 1493.844)">
      <ellipse id="Ellipse_2135" data-name="Ellipse 2135" cx="4.708" cy="2.71" rx="4.708" ry="2.71" transform="translate(223.883 109.871)" fill="#ecb36f" stroke="#000" stroke-linejoin="round" stroke-width="0.25"/>
      <path id="Path_13100" data-name="Path 13100" d="M1149.187,1546.019s11.491-3.99,21.148-.718,26.094-1.676,26.094-1.676" transform="translate(-946.451 -1418.912)" fill="none" stroke="#000" stroke-miterlimit="10" stroke-width="0.25"/>
      <path id="Path_13101" data-name="Path 13101" d="M1004.625,1510.932s10.551-2.819,15.623-4.734,13.584-6.118,25.713-8.672,22.025-7.13,40.7-10.668,21.546-7.846,47.88-12.076,40.753-13.95,48.2-18.593a136.177,136.177,0,0,1,14.47-7.794l13.141,6.092s14.683,95.227-43.251,129.381-116.667-8.3-132.627-35.431S1004.625,1510.932,1004.625,1510.932Z" transform="translate(-986.465 -1445.27)" fill="#ea6157" stroke="#000" stroke-linejoin="round" stroke-width="0.25"/>
      <path id="Path_13102" data-name="Path 13102" d="M993.541,1516.855s10.641-4.333,14.152-5.451c0,0,16.545,2.181,20.323,5.532,0,0,14.718,43.634,45.316,60.308s59.9,21,86.953,4.968c33.638-19.931,44.726-52.135,50.045-83.2s3.086-44.049,3.086-44.049l-13.141-6.092a66.879,66.879,0,0,0,6.517-2.181l4.23.823,13.672,3.83s1.065,18.3.532,29.9-8.618,51.6-12.235,59.69-16.386,40.219-36.123,51.87-38.154,16.918-66.638,14.2-71.415-27.971-84.5-55.534-14.759-28.76-14.759-28.76Z" transform="translate(-989.533 -1445.743)" fill="#f4ffe9" stroke="#000" stroke-miterlimit="10" stroke-width="0.25"/>
      <path id="Path_13103" data-name="Path 13103" d="M1209.787,1445.948l-2.126.945a98.024,98.024,0,0,0,16.679,5.267s2.786,33.909-2.959,59.233-16.08,69.3-54.656,85.765c-42.986,18.351-79.395,5.881-104.059-10.909-35.325-24.046-43.279-55.312-45.405-63.546l-22.851-5.642a40.864,40.864,0,0,0-4.008,1.306l3.423,3.723,18.727,3.966s15.859,50.617,52.883,69.131,50.333,21.057,92.565,9.47c41.5-11.385,62.35-64.159,67.457-97.781s2.554-50.647,1.064-55.754C1226.521,1451.122,1211.223,1447.544,1209.787,1445.948Z" transform="translate(-990.402 -1445.948)" fill="#62a542" stroke="#000" stroke-linejoin="round" stroke-width="0.25"/>
      <g id="Group_3699" data-name="Group 3699" transform="translate(83.799 60.311)">
        <path id="Path_13104" data-name="Path 13104" d="M1062.874,1504.652c-1.036-.545-10.361,7.884-5.389,10.264C1062.235,1517.191,1063.91,1505.2,1062.874,1504.652Z" transform="translate(-1056.034 -1490.017)" fill="#6d4a32" stroke="#000" stroke-linejoin="round" stroke-width="0.25"/>
        <path id="Path_13105" data-name="Path 13105" d="M1067.145,1524.587c-1.129-.308-8.41,9.938-3.041,11.186C1069.233,1536.966,1068.275,1524.9,1067.145,1524.587Z" transform="translate(-1054.342 -1484.494)" fill="#6d4a32" stroke="#000" stroke-linejoin="round" stroke-width="0.25"/>
        <path id="Path_13106" data-name="Path 13106" d="M1089.1,1504.188c-1.17.009-5.42,11.838.087,11.592C1094.453,1515.546,1090.275,1504.18,1089.1,1504.188Z" transform="translate(-1047.62 -1490.139)" fill="#6d4a32" stroke="#000" stroke-linejoin="round" stroke-width="0.25"/>
        <path id="Path_13107" data-name="Path 13107" d="M1108.528,1521.5c-1.129.313-2.139,12.843,3.113,11.166C1116.659,1531.067,1109.656,1521.188,1108.528,1521.5Z" transform="translate(-1041.755 -1485.348)" fill="#6d4a32" stroke="#000" stroke-linejoin="round" stroke-width="0.25"/>
        <path id="Path_13108" data-name="Path 13108" d="M1102.727,1493.217c-1.008.6,1.259,12.959,5.9,9.981C1113.056,1500.352,1103.736,1492.623,1102.727,1493.217Z" transform="translate(-1043.176 -1493.185)" fill="#6d4a32" stroke="#000" stroke-linejoin="round" stroke-width="0.25"/>
        <path id="Path_13109" data-name="Path 13109" d="M1125.569,1497.31c-.788.866,5.022,12.013,8.576,7.8C1137.541,1501.083,1126.357,1496.444,1125.569,1497.31Z" transform="translate(-1036.808 -1492.072)" fill="#6d4a32" stroke="#000" stroke-linejoin="round" stroke-width="0.25"/>
        <path id="Path_13110" data-name="Path 13110" d="M1139.166,1500.406c-.485,1.066,8.459,9.9,10.553,4.8C1151.719,1500.333,1139.651,1499.341,1139.166,1500.406Z" transform="translate(-1033.029 -1491.293)" fill="#6d4a32" stroke="#000" stroke-linejoin="round" stroke-width="0.25"/>
      </g>
      <path id="Path_13111" data-name="Path 13111" d="M1061.088,1491.574a8.547,8.547,0,0,1,7.07-1.886,8.865,8.865,0,0,0,7.182-1.914" transform="translate(-970.836 -1434.371)" fill="none" stroke="#000" stroke-miterlimit="10" stroke-width="0.25"/>
      <path id="Path_13112" data-name="Path 13112" d="M1101.375,1482.028a8.627,8.627,0,0,1,4.309-.638" transform="translate(-959.685 -1436.156)" fill="none" stroke="#000" stroke-miterlimit="10" stroke-width="0.25"/>
      <path id="Path_13113" data-name="Path 13113" d="M1122.75,1478.015s6.224-1.277,9.257-3.352,7.661-3.83,10.374-2.713" transform="translate(-953.769 -1438.847)" fill="none" stroke="#000" stroke-miterlimit="10" stroke-width="0.25"/>
      <path id="Path_13114" data-name="Path 13114" d="M1144.531,1468.592a5.789,5.789,0,0,1,3.089-1.436" transform="translate(-947.74 -1440.078)" fill="none" stroke="#000" stroke-miterlimit="10" stroke-width="0.25"/>
      <path id="Path_13115" data-name="Path 13115" d="M1041.375,1516.536s1.117-2.783,2.713-3.626" transform="translate(-976.293 -1427.413)" fill="none" stroke="#000" stroke-miterlimit="10" stroke-width="0.25"/>
      <path id="Path_13116" data-name="Path 13116" d="M1046.169,1515.75a3.8,3.8,0,0,1-1.356,2.713" transform="translate(-975.341 -1426.627)" fill="none" stroke="#000" stroke-miterlimit="10" stroke-width="0.25"/>
      <path id="Path_13117" data-name="Path 13117" d="M1091.161,1539.313a28.163,28.163,0,0,0-.558,9.416" transform="translate(-962.719 -1420.105)" fill="none" stroke="#000" stroke-miterlimit="10" stroke-width="0.25"/>
      <path id="Path_13118" data-name="Path 13118" d="M1093.875,1541.5a51.022,51.022,0,0,0,.559,7.182" transform="translate(-961.761 -1419.5)" fill="none" stroke="#000" stroke-miterlimit="10" stroke-width="0.25"/>
      <path id="Path_13119" data-name="Path 13119" d="M1130.812,1528.813s1.756,2.873,4.07,3.671" transform="translate(-951.537 -1423.012)" fill="none" stroke="#000" stroke-miterlimit="10" stroke-width="0.25"/>
      <path id="Path_13120" data-name="Path 13120" d="M1134,1527.375s1.277,1.756,2.075,1.836" transform="translate(-950.655 -1423.41)" fill="none" stroke="#000" stroke-miterlimit="10" stroke-width="0.25"/>
      <path id="Path_13121" data-name="Path 13121" d="M990.4,1502.667l23.107,5.746s8.3,36.814,38.3,58.944,50.647,33.835,106.187,21.6c0,0-55.115,22.025-100.228.958a116.9,116.9,0,0,1-61.924-68.628C992.655,1512.03,990.4,1502.667,990.4,1502.667Z" transform="translate(-990.402 -1430.249)" fill="#62a542" stroke="#000" stroke-linejoin="round" stroke-width="0.25"/>
      <g id="Group_3701" data-name="Group 3701" transform="translate(0 72.418)">
        <g id="Group_3700" data-name="Group 3700" clip-path="url(#clip-path-2)">
          <path id="Path_13122" data-name="Path 13122" d="M1001.892,1503.375s-1.023,11.172,4.356,18.514,4.262,18.194,4.262,18.194,5.932,1.349,9.51,9.771,10.44,8.371,13.951,14.382a26,26,0,0,1,3.352,12.4s6.863-1.277,11.172,6.065,15.641,13.9,25.536,15.886c0,0-8.316-6.688-11.754-15.407,0,0-9.472-7.51-10.909-16.123,0,0-10.447-5.636-25.731-32.235s-14.647-30.324-14.647-30.324Z" transform="translate(-987.243 -1502.471)" fill="#518937" stroke="#000" stroke-linejoin="round" stroke-width="0.25"/>
        </g>
      </g>
      <path id="Path_13124" data-name="Path 13124" d="M990.4,1502.667l23.107,5.746s8.3,36.814,38.3,58.944,50.647,33.835,106.187,21.6c0,0-55.115,22.025-100.228.958a116.9,116.9,0,0,1-61.924-68.628C992.655,1512.03,990.4,1502.667,990.4,1502.667Z" transform="translate(-990.402 -1430.249)" fill="none" stroke="#000" stroke-miterlimit="10" stroke-width="0.25"/>
    </g>
  </g>
</svg>
