<svg xmlns="http://www.w3.org/2000/svg" width="2560" height="1440.002" viewBox="0 0 2560 1440.002">
  <g id="Group_2724" data-name="Group 2724" transform="translate(0 0.002)">
    <rect id="Rectangle_117" data-name="Rectangle 117" width="2560" height="1440" fill="#fff6eb"/>
    <path id="Subtraction_1" data-name="Subtraction 1" d="M9206.693-13759.779c-38.216,0-76.463-.909-113.681-2.7-35.5-1.708-71.228-4.274-106.188-7.627-33.076-3.172-66.649-7.16-99.787-11.856-30.984-4.391-62.771-9.567-94.478-15.388-29.537-5.421-59.062-11.381-90.259-18.22-27.8-6.094-56.3-12.752-87.131-20.354-57.265-14.12-114.157-29.464-169.177-44.3l-.064-.018c-52.988-14.29-107.78-29.066-163.132-42.818-29.806-7.4-57.344-13.918-84.19-19.912-30.168-6.736-58.7-12.653-87.231-18.088-30.65-5.838-61.348-11.1-91.242-15.643-32-4.859-64.371-9.091-96.222-12.576-33.713-3.688-68.088-6.679-102.171-8.89-35.765-2.319-72.468-3.862-109.089-4.584-14.458-.284-29.276-.429-44.042-.429-32.544,0-66.333.7-100.43,2.079-32.9,1.331-66.993,3.331-101.322,5.944-33.049,2.516-67.208,5.668-101.529,9.369-32.98,3.558-66.979,7.714-101.053,12.354V-15102h2560v1268.088c-34.159,8.509-66.417,15.893-98.618,22.573-36.747,7.624-72.566,14.164-109.5,20-40.092,6.33-81.606,11.784-123.39,16.211-45.092,4.777-92.286,8.552-140.272,11.217-25.021,1.39-50.092,2.442-74.515,3.128C9254.091-13760.119,9230.108-13759.779,9206.693-13759.779Z" transform="translate(-7264.272 15102)" fill="#ffd7c3"/>
  </g>
</svg>
