<svg xmlns="http://www.w3.org/2000/svg" width="918.07" height="232.284" viewBox="0 0 918.07 232.284">
  <g id="Group_2433" data-name="Group 2433" transform="translate(-894.635 -799.16)">
    <g id="Group_1395" data-name="Group 1395" transform="translate(1618.706 791.442) rotate(3)">
      <ellipse id="Ellipse_856" data-name="Ellipse 856" cx="10.113" cy="10.113" rx="10.113" ry="10.113" transform="translate(150.462 0)" fill="#58ad5d" stroke="#000" stroke-miterlimit="10" stroke-width="0.3"/>
      <ellipse id="Ellipse_857" data-name="Ellipse 857" cx="12.348" cy="12.348" rx="12.348" ry="12.348" transform="translate(93.163 74.377)" fill="#58ad5d" stroke="#000" stroke-miterlimit="10" stroke-width="0.3"/>
      <ellipse id="Ellipse_858" data-name="Ellipse 858" cx="12.348" cy="12.348" rx="12.348" ry="12.348" transform="translate(149.806 101.141)" fill="#58ad5d" stroke="#000" stroke-miterlimit="10" stroke-width="0.3"/>
      <ellipse id="Ellipse_859" data-name="Ellipse 859" cx="12.348" cy="12.348" rx="12.348" ry="12.348" transform="translate(61.533 112.008)" fill="#58ad5d" stroke="#000" stroke-miterlimit="10" stroke-width="0.3"/>
      <ellipse id="Ellipse_860" data-name="Ellipse 860" cx="12.348" cy="12.348" rx="12.348" ry="12.348" transform="translate(117.927 166.967)" fill="#58ad5d" stroke="#000" stroke-miterlimit="10" stroke-width="0.3"/>
      <ellipse id="Ellipse_861" data-name="Ellipse 861" cx="11.028" cy="11.028" rx="11.028" ry="11.028" transform="translate(173.986 36.917)" fill="#58ad5d" stroke="#000" stroke-miterlimit="10" stroke-width="0.3"/>
      <ellipse id="Ellipse_862" data-name="Ellipse 862" cx="11.028" cy="11.028" rx="11.028" ry="11.028" transform="translate(121.772 27.906)" fill="#58ad5d" stroke="#000" stroke-miterlimit="10" stroke-width="0.3"/>
      <path id="Path_4828" data-name="Path 4828" d="M159.516,0S136.667,160.236,0,211.421" transform="translate(0 20.213)" fill="none" stroke="#231815" stroke-miterlimit="10" stroke-width="0.3"/>
      <path id="Path_4829" data-name="Path 4829" d="M0,0C.078.083,2.755,14.024,11.464,21.907c0,0,18.4-4.6,30.721-16.706" transform="translate(134.428 49.889)" fill="none" stroke="#231815" stroke-miterlimit="10" stroke-width="0.3"/>
      <path id="Path_4830" data-name="Path 4830" d="M0,0S4.516,26.33,11.315,32.762c0,0,16.064.542,36.726-8.825" transform="translate(106.227 99.054)" fill="none" stroke="#231815" stroke-miterlimit="10" stroke-width="0.3"/>
      <path id="Path_4831" data-name="Path 4831" d="M0,0S.21,28.408,6.387,42.224c0,0,22.635,3.861,37.224,3.016" transform="translate(74.596 136.686)" fill="none" stroke="#231815" stroke-miterlimit="10" stroke-width="0.3"/>
    </g>
    <g id="Group_2417" data-name="Group 2417" transform="translate(1100.757 1022.947) rotate(177)">
      <ellipse id="Ellipse_856-2" data-name="Ellipse 856" cx="10.113" cy="10.113" rx="10.113" ry="10.113" transform="translate(150.462 211.409)" fill="#58ad5d" stroke="#000" stroke-miterlimit="10" stroke-width="0.3"/>
      <ellipse id="Ellipse_857-2" data-name="Ellipse 857" cx="12.348" cy="12.348" rx="12.348" ry="12.348" transform="translate(93.163 132.562)" fill="#58ad5d" stroke="#000" stroke-miterlimit="10" stroke-width="0.3"/>
      <ellipse id="Ellipse_858-2" data-name="Ellipse 858" cx="12.348" cy="12.348" rx="12.348" ry="12.348" transform="translate(149.806 105.799)" fill="#58ad5d" stroke="#000" stroke-miterlimit="10" stroke-width="0.3"/>
      <ellipse id="Ellipse_859-2" data-name="Ellipse 859" cx="12.348" cy="12.348" rx="12.348" ry="12.348" transform="translate(61.533 94.931)" fill="#58ad5d" stroke="#000" stroke-miterlimit="10" stroke-width="0.3"/>
      <ellipse id="Ellipse_860-2" data-name="Ellipse 860" cx="12.348" cy="12.348" rx="12.348" ry="12.348" transform="translate(117.927 39.972)" fill="#58ad5d" stroke="#000" stroke-miterlimit="10" stroke-width="0.3"/>
      <ellipse id="Ellipse_861-2" data-name="Ellipse 861" cx="11.028" cy="11.028" rx="11.028" ry="11.028" transform="translate(173.986 172.661)" fill="#58ad5d" stroke="#000" stroke-miterlimit="10" stroke-width="0.3"/>
      <ellipse id="Ellipse_862-2" data-name="Ellipse 862" cx="11.028" cy="11.028" rx="11.028" ry="11.028" transform="translate(121.772 181.673)" fill="#58ad5d" stroke="#000" stroke-miterlimit="10" stroke-width="0.3"/>
      <path id="Path_4828-2" data-name="Path 4828" d="M159.516,211.421S136.667,51.185,0,0" transform="translate(0 0)" fill="none" stroke="#231815" stroke-miterlimit="10" stroke-width="0.3"/>
      <path id="Path_4829-2" data-name="Path 4829" d="M0,21.906C.078,21.823,2.755,7.882,11.464,0c0,0,18.4,4.6,30.721,16.706" transform="translate(134.428 159.839)" fill="none" stroke="#231815" stroke-miterlimit="10" stroke-width="0.3"/>
      <path id="Path_4830-2" data-name="Path 4830" d="M0,32.768S4.516,6.438,11.315.006c0,0,16.063-.542,36.726,8.825" transform="translate(106.227 99.813)" fill="none" stroke="#231815" stroke-miterlimit="10" stroke-width="0.3"/>
      <path id="Path_4831-2" data-name="Path 4831" d="M0,45.36S.21,16.952,6.387,3.137c0,0,22.635-3.861,37.224-3.016" transform="translate(74.596 49.588)" fill="none" stroke="#231815" stroke-miterlimit="10" stroke-width="0.3"/>
    </g>
  </g>
</svg>
