<svg xmlns="http://www.w3.org/2000/svg" width="629.895" height="555.121" viewBox="0 0 629.895 555.121">
  <g id="Group_2435" data-name="Group 2435" transform="translate(525.257 -2071.295)">
    <g id="Group_1442" data-name="Group 1442" transform="translate(-248.853 2120.338)">
      <path id="Path_4911" data-name="Path 4911" d="M-368.743,2168.592s-30.334,95.238-11.943,267.2l8.158-3.464s-17.026-176.514,30.611-260.133Z" transform="translate(518.65 -1931.336)" fill="#58ad5d" stroke="#000" stroke-miterlimit="10" stroke-width="0.292"/>
      <g id="Group_1433" data-name="Group 1433" transform="translate(49.896 349.694)">
        <path id="Path_4912" data-name="Path 4912" d="M-413.6,2206.73s23.727,26.852,55.125,48.822c39.574,27.692,46.95,64.844,30.16,98.439,0,0-38.35,3.623-65.411-39.889S-413.6,2206.73-413.6,2206.73Z" transform="translate(414.47 -2206.73)" fill="#1789a0" stroke="#000" stroke-miterlimit="10" stroke-width="0.292"/>
        <path id="Path_4913" data-name="Path 4913" d="M-414.176,2206.73s29.983,107.945,85.285,147.261" transform="translate(415.042 -2206.73)" fill="none" stroke="#000" stroke-miterlimit="10" stroke-width="0.292"/>
        <path id="Path_4914" data-name="Path 4914" d="M-400.48,2218.116s-6.221,27,.419,52.829" transform="translate(436.571 -2184.548)" fill="none" stroke="#000" stroke-miterlimit="10" stroke-width="0.292"/>
        <path id="Path_4915" data-name="Path 4915" d="M-413.364,2226.6c.094.483,13.066,17.474,30.876,23.453" transform="translate(416.624 -2168.017)" fill="none" stroke="#000" stroke-miterlimit="10" stroke-width="0.292"/>
        <path id="Path_4916" data-name="Path 4916" d="M-386.581,2227.186s-13.308,32-1.07,71.889" transform="translate(456.635 -2166.877)" fill="none" stroke="#000" stroke-miterlimit="10" stroke-width="0.292"/>
        <path id="Path_4917" data-name="Path 4917" d="M-408.466,2241.371a96.682,96.682,0,0,0,48.247,26.784" transform="translate(426.166 -2139.243)" fill="none" stroke="#000" stroke-miterlimit="10" stroke-width="0.292"/>
      </g>
      <g id="Group_1434" data-name="Group 1434" transform="translate(133.271 341.041)">
        <path id="Path_4918" data-name="Path 4918" d="M-284.092,2203.8s19.3,58.009-5.466,112.939c-29.334,65.078-92.623,50.6-92.623,50.6s-17.96-49.836,22.156-93.779C-337.649,2249.05-298.1,2234.053-284.092,2203.8Z" transform="translate(386.19 -2203.795)" fill="#1789a0" stroke="#000" stroke-miterlimit="10" stroke-width="0.241"/>
        <path id="Path_4919" data-name="Path 4919" d="M-286.741,2203.8s.8,96.073-98.089,163.542" transform="translate(388.838 -2203.795)" fill="none" stroke="#000" stroke-miterlimit="10" stroke-width="0.241"/>
      </g>
      <g id="Group_1441" data-name="Group 1441">
        <g id="Group_1435" data-name="Group 1435" transform="translate(52.413)">
          <path id="Path_4920" data-name="Path 4920" d="M-396.352,2099.127c27.179-19.365,75.459-14.954,96.061,27.468s7.241,86.571,7.241,86.571-46.086,15.693-93.811-29.812C-430.448,2141.792-411.049,2109.6-396.352,2099.127Z" transform="translate(413.616 -2088.117)" fill="#ffaa85" stroke="#000" stroke-miterlimit="10" stroke-width="0.292"/>
          <path id="Path_4921" data-name="Path 4921" d="M-407.76,2091.851s65.913,42.085,98.189,117.217" transform="translate(425.024 -2080.842)" fill="none" stroke="#000" stroke-miterlimit="10" stroke-width="0.292"/>
          <path id="Path_4922" data-name="Path 4922" d="M-413.471,2105.476s48.43,13.862,102.184,76.605" transform="translate(413.898 -2054.298)" fill="none" stroke="#000" stroke-miterlimit="10" stroke-width="0.292"/>
          <path id="Path_4923" data-name="Path 4923" d="M-395.1,2088.118s51.1,38.212,65.98,125.045" transform="translate(449.686 -2088.114)" fill="none" stroke="#000" stroke-miterlimit="10" stroke-width="0.292"/>
        </g>
        <g id="Group_1436" data-name="Group 1436" transform="translate(176.489 32.529)">
          <path id="Path_4924" data-name="Path 4924" d="M-252.2,2118.345c23.311,33.7.307,69.848-31.761,73.018-26.914,2.659-74.182-5.316-86.736,9.184,0,0-6.495-45.163,16.79-74.816C-328.777,2093.734-271.93,2089.833-252.2,2118.345Z" transform="translate(371.53 -2099.15)" fill="#ffaa85" stroke="#000" stroke-miterlimit="10" stroke-width="0.292"/>
          <path id="Path_4925" data-name="Path 4925" d="M-274.379,2100.333s-73.581,9.364-96.869,97.909c0,0,43.153-64.008,122-76.482" transform="translate(372.081 -2096.846)" fill="none" stroke="#000" stroke-miterlimit="10" stroke-width="0.292"/>
          <path id="Path_4926" data-name="Path 4926" d="M-371.248,2160.746c82.254-49.188,125.952-40.269,126.07-40.912" transform="translate(372.081 -2059.349)" fill="none" stroke="#000" stroke-miterlimit="10" stroke-width="0.292"/>
        </g>
        <g id="Group_1437" data-name="Group 1437" transform="translate(110.934 142.113)">
          <path id="Path_4927" data-name="Path 4927" d="M-330.395,2294.8c49.385,1.7,71.384-30.107,69.972-72.372-1.778-53.177-64.159-86.111-64.159-86.111s-64.312,42.1-68.878,94.2C-397,2270.913-369.511,2293.462-330.395,2294.8Z" transform="translate(393.766 -2136.32)" fill="#ffaa85" stroke="#000" stroke-miterlimit="10" stroke-width="0.292"/>
          <path id="Path_4928" data-name="Path 4928" d="M-343.743,2294.8s12.344-76.694,5.814-158.482c0,0-57.723,60.166-47.849,145.558" transform="translate(407.114 -2136.32)" fill="none" stroke="#000" stroke-miterlimit="10" stroke-width="0.292"/>
          <path id="Path_4929" data-name="Path 4929" d="M-334.5,2285.468s15.69-73.421-35.8-149.148" transform="translate(439.484 -2136.32)" fill="none" stroke="#000" stroke-miterlimit="10" stroke-width="0.292"/>
        </g>
        <g id="Group_1438" data-name="Group 1438" transform="translate(180.249 119.202)">
          <path id="Path_4930" data-name="Path 4930" d="M-207.4,2231.007c19.818-27.506,11.365-66.452-34.249-89.978-46.186-23.822-97.084-8.951-128.606,6.625,0,0,3.715,62.053,54.6,87.776S-223.468,2253.313-207.4,2231.007Z" transform="translate(370.255 -2128.549)" fill="#ffaa85" stroke="#000" stroke-miterlimit="10" stroke-width="0.292"/>
          <path id="Path_4931" data-name="Path 4931" d="M-197.453,2194.244s-34.128-70.438-172.8-58.283c121.872,36.135,162.855,83.354,162.855,83.354" transform="translate(370.255 -2116.857)" fill="none" stroke="#000" stroke-miterlimit="10" stroke-width="0.292"/>
          <path id="Path_4932" data-name="Path 4932" d="M-241.7,2237.759s-60.444-13.073-128.559-102.73" transform="translate(370.255 -2115.925)" fill="none" stroke="#000" stroke-miterlimit="10" stroke-width="0.292"/>
        </g>
        <g id="Group_1439" data-name="Group 1439" transform="translate(0 107.045)">
          <path id="Path_4933" data-name="Path 4933" d="M-430.272,2201.906c-8.479-48.816,34.91-72.814,72.033-76.806s80.27,10.047,106.869,34.393c0,0-21.245,74.235-78.537,84.74S-425.345,2230.28-430.272,2201.906Z" transform="translate(431.489 -2124.426)" fill="#ffaa85" stroke="#000" stroke-miterlimit="10" stroke-width="0.292"/>
          <path id="Path_4934" data-name="Path 4934" d="M-419.9,2143.766s69.014-31.837,168.625,3.633c-109.7,23.827-180.119,33.465-180.119,33.465" transform="translate(431.394 -2112.33)" fill="none" stroke="#000" stroke-miterlimit="10" stroke-width="0.292"/>
          <path id="Path_4935" data-name="Path 4935" d="M-421.117,2213.748s86.5-.259,149.821-77.428" transform="translate(451.415 -2101.252)" fill="none" stroke="#000" stroke-miterlimit="10" stroke-width="0.292"/>
        </g>
        <path id="Path_4936" data-name="Path 4936" d="M-393.156,2165.292c-6.07-16.109,19.116-39.653,60.52-33.848,0,0,20.092-6.318,42.427-.782s16.015,27.577-6.312,29.462c0,0,21.843,12.745,14.066,26.984-10.056,18.409-43.651,10.172-46.682-10.876,0,0-3.977,25.086-22.568,24.452-17.206-.59-17.052-20.776-9.98-29.809C-361.684,2170.876-387.222,2181.032-393.156,2165.292Z" transform="translate(504.138 -2009.659)" fill="#58ad5d" stroke="#000" stroke-miterlimit="10" stroke-width="0.292"/>
        <g id="Group_1440" data-name="Group 1440" transform="translate(145.835 94.534)">
          <path id="Path_4937" data-name="Path 4937" d="M-378.717,2122.442c6.253-3.624,13.8,10.749,17.456,22.825s3.729,24.615-1.734,25.513-13.7-12.417-16.581-23.382S-383.255,2125.072-378.717,2122.442Z" transform="translate(381.928 -2116.891)" fill="#1789a0" stroke="#000" stroke-miterlimit="10" stroke-width="0.292"/>
          <path id="Path_4938" data-name="Path 4938" d="M-363.855,2120.182c8.417-.023,7.188,21.755,6.56,30.461-.545,7.536-4.048,25.435-10.322,23.792s-7.765-16.755-7.441-27.406S-371.191,2120.2-363.855,2120.182Z" transform="translate(395.23 -2120.182)" fill="#1789a0" stroke="#000" stroke-miterlimit="10" stroke-width="0.292"/>
          <path id="Path_4939" data-name="Path 4939" d="M-341.79,2123.382c4.694,2.5.708,17.164-9.139,32.265s-17.182,16.881-20.048,11.356,2.96-21.952,8.842-30.23S-347.288,2120.451-341.79,2123.382Z" transform="translate(401.797 -2115.147)" fill="#1789a0" stroke="#000" stroke-miterlimit="10" stroke-width="0.292"/>
        </g>
      </g>
      <path id="Path_4940" data-name="Path 4940" d="M-360.451,2214.131s5.979,23.167,5.035,47.014c0,0,18.8-7.261,28.306-23.42" transform="translate(569.604 -1842.617)" fill="none" stroke="#000" stroke-miterlimit="10" stroke-width="0.292"/>
      <path id="Path_4941" data-name="Path 4941" d="M-371.787,2222.485s12.459,30.431,3.9,72.086c0,0,26.23-.67,55.252-27.048" transform="translate(547.52 -1826.342)" fill="none" stroke="#000" stroke-miterlimit="10" stroke-width="0.292"/>
      <path id="Path_4942" data-name="Path 4942" d="M-381.657,2233.3s9.148,34.865,4.62,66.337c0,0,22.71,4.4,53.919-6.751" transform="translate(528.291 -1805.278)" fill="none" stroke="#000" stroke-miterlimit="10" stroke-width="0.292"/>
    </g>
    <g id="Group_1450" data-name="Group 1450" transform="translate(-525.092 2071.577)">
      <g id="Group_1449" data-name="Group 1449">
        <path id="Path_4943" data-name="Path 4943" d="M-451.871,2163.735s52.283,63.359,76.494,210.722l8.379.345s-4.809-133.117-71.8-219.587Z" transform="translate(667.74 -1908.635)" fill="#58ad5d" stroke="#000" stroke-miterlimit="10" stroke-width="0.292"/>
        <g id="Group_1443" data-name="Group 1443" transform="translate(167.973 151.614)">
          <path id="Path_4944" data-name="Path 4944" d="M-467.858,2124.387s73.463-12.789,109.655,39.38-24.063,114.024-76.107,57.49C-473.3,2178.906-467.858,2124.387-467.858,2124.387Z" transform="translate(468.117 -2123.003)" fill="#ffaa85" stroke="#000" stroke-miterlimit="10" stroke-width="0.292"/>
          <path id="Path_4945" data-name="Path 4945" d="M-362.115,2231.245s-51.794-84.714-105.914-107.772c0,0,24.384,80.831,91.733,116.678" transform="translate(468.288 -2122.089)" fill="none" stroke="#000" stroke-miterlimit="10" stroke-width="0.292"/>
          <path id="Path_4946" data-name="Path 4946" d="M-347.873,2203.245s-28.412-64.031-120.156-79.773" transform="translate(468.288 -2122.089)" fill="none" stroke="#000" stroke-miterlimit="10" stroke-width="0.292"/>
        </g>
        <g id="Group_1444" data-name="Group 1444" transform="translate(133.053)">
          <path id="Path_4947" data-name="Path 4947" d="M-401.942,2072.579c33.848,6.557,49.771,60.753,5.466,96.925s-54.291,56.844-54.291,56.844-41.552-45.835-25.511-104.94C-465.4,2081.323-428.055,2067.517-401.942,2072.579Z" transform="translate(479.961 -2071.577)" fill="#ffaa85" stroke="#000" stroke-miterlimit="10" stroke-width="0.292"/>
          <path id="Path_4948" data-name="Path 4948" d="M-445.058,2074.12s-54.978,48.687-15.622,150.715c-4.007-110.406,53.622-152.48,53.622-152.48" transform="translate(489.874 -2070.064)" fill="none" stroke="#000" stroke-miterlimit="10" stroke-width="0.292"/>
          <path id="Path_4949" data-name="Path 4949" d="M-391.354,2081.475s-52.6,35.222-78.7,125.59" transform="translate(499.253 -2052.295)" fill="none" stroke="#000" stroke-miterlimit="10" stroke-width="0.292"/>
        </g>
        <g id="Group_1445" data-name="Group 1445" transform="translate(0 87.123)">
          <path id="Path_4950" data-name="Path 4950" d="M-524.889,2163.97c-3.157-32.749,31.009-57.956,73.481-62.261s68.463,15.8,77.682,43.8c0,0-4.378,45.412-67.322,56.152C-505.723,2212.7-523.388,2179.5-524.889,2163.97Z" transform="translate(525.092 -2101.129)" fill="#ffaa85" stroke="#000" stroke-miterlimit="10" stroke-width="0.292"/>
          <path id="Path_4951" data-name="Path 4951" d="M-501.611,2107.852s66.632-8.126,127.751,26.194c-84.881-7.764-151.162,18.463-151.162,18.463" transform="translate(525.226 -2089.667)" fill="none" stroke="#000" stroke-miterlimit="10" stroke-width="0.292"/>
          <path id="Path_4952" data-name="Path 4952" d="M-515.257,2169.149s55.3-34.234,122.37-52.967" transform="translate(544.252 -2071.803)" fill="none" stroke="#000" stroke-miterlimit="10" stroke-width="0.292"/>
        </g>
        <g id="Group_1446" data-name="Group 1446" transform="translate(46.727 149.968)">
          <path id="Path_4953" data-name="Path 4953" d="M-479.108,2268.166c-46.189-25.013-30.346-72.27-11.233-98.641,18.839-25.995,52.593-42.652,89.758-47.079,0,0,45.346,47.566,19.921,106.246S-461.787,2277.546-479.108,2268.166Z" transform="translate(509.243 -2122.446)" fill="#ffaa85" stroke="#000" stroke-miterlimit="10" stroke-width="0.292"/>
          <path id="Path_4954" data-name="Path 4954" d="M-496.933,2270.877s58.079-88.578,72.369-148.432c0,0,27.241,97.187-31.787,151.392" transform="translate(533.224 -2122.446)" fill="none" stroke="#000" stroke-miterlimit="10" stroke-width="0.292"/>
          <path id="Path_4955" data-name="Path 4955" d="M-505.826,2251.72s17.347-89.624,98.587-129.274" transform="translate(515.898 -2122.446)" fill="none" stroke="#000" stroke-miterlimit="10" stroke-width="0.292"/>
        </g>
        <g id="Group_1447" data-name="Group 1447" transform="translate(164.49 72.269)">
          <path id="Path_4956" data-name="Path 4956" d="M-287.572,2138.31c-6.079-56.169-89.138-48.25-130.348-22.512s-51.378,55.369-51.378,55.369,31.277,43.378,96.827,43.389C-316.166,2214.568-284.054,2170.834-287.572,2138.31Z" transform="translate(469.298 -2096.091)" fill="#ffaa85" stroke="#000" stroke-miterlimit="10" stroke-width="0.292"/>
          <path id="Path_4957" data-name="Path 4957" d="M-299.913,2101.358S-395.888,2097.376-469.3,2161c0,0,84.908-30.372,181.266-19.446" transform="translate(469.298 -2085.923)" fill="none" stroke="#000" stroke-miterlimit="10" stroke-width="0.292"/>
          <path id="Path_4958" data-name="Path 4958" d="M-305.921,2137.256s-84.36,23.264-163.377-15.7" transform="translate(469.298 -2046.479)" fill="none" stroke="#000" stroke-miterlimit="10" stroke-width="0.292"/>
        </g>
        <g id="Group_1448" data-name="Group 1448" transform="translate(101.338 77.684)">
          <path id="Path_4959" data-name="Path 4959" d="M-450.1,2134.917s-33.309.542-39.992,22.68c-4.741,15.7,18.532,16.826,28.043,7.8,0,0-8.29,26.34,11.949,28.047s27.067-29.264,27.067-29.264,12.925,10.242,33.164,6.1,25.363-27.312-2.68-29.994c0,0,18.532-18.291,3.414-29.019s-36.608,10.648-44.031,26.418C-433.162,2137.683-441.24,2133.67-450.1,2134.917Z" transform="translate(490.719 -2077.587)" fill="#58ad5d" stroke="#000" stroke-miterlimit="10" stroke-width="0.292"/>
          <path id="Path_4960" data-name="Path 4960" d="M-461.582,2097.927c13.456,0,7.485,58.055,1.716,67.127-5.637,8.859-12.568-6.913-12-25.593S-470.309,2097.924-461.582,2097.927Z" transform="translate(527.385 -2097.927)" fill="#1789a0" stroke="#000" stroke-linejoin="round" stroke-width="0.292"/>
          <path id="Path_4961" data-name="Path 4961" d="M-477.533,2098.877c8.411-3.9,20.263,15.248,25.693,51.806S-462.173,2161.8-469.8,2144C-477.949,2124.99-483.382,2101.593-477.533,2098.877Z" transform="translate(511.631 -2097.046)" fill="#1789a0" stroke="#000" stroke-linejoin="round" stroke-width="0.292"/>
          <path id="Path_4962" data-name="Path 4962" d="M-487.577,2102.535c7.377-5.567,19.246,8.644,34.691,31.165s13.146,36.935-7.117,18.554S-495.269,2108.343-487.577,2102.535Z" transform="translate(492.847 -2091.305)" fill="#1789a0" stroke="#000" stroke-linejoin="round" stroke-width="0.292"/>
        </g>
      </g>
    </g>
    <g id="Group_1452" data-name="Group 1452" transform="translate(-234.769 2283.945)">
      <g id="Group_1451" data-name="Group 1451">
        <path id="Path_4963" data-name="Path 4963" d="M-384.744,2194.88c2.795-12.954-1.592-27.66-1.592-27.66-11.527,8.341-14.11,25.021-14.11,25.021-3.965-17.722-18.429-22.438-18.453-22.447-.041,14.369,6.5,26.687,12.491,35.561,2.8,4.154,4.8,11.713-.893,33.689s-20.009,93.393-19.29,92.435,7.058,1.772,7.058,1.772,21.787-94,25.729-107.17c2.361-7.884,6.645-14.939,11.194-17.4a49.317,49.317,0,0,0,14.685-11.772c4.929-7.824,5.649-17.376,5.649-17.376C-372.7,2183.084-384.744,2194.88-384.744,2194.88Z" transform="translate(426.617 -2097.615)" fill="#58ad5d" stroke="#000" stroke-miterlimit="10" stroke-width="0.292"/>
        <path id="Path_4964" data-name="Path 4964" d="M-359.077,2157.144c-4.269-7.756-16.3,2.769-16.3,2.769s5.652-14.14-.929-16.132-9.467,14.269-9.467,14.269-5.457-13.1-11.2-10.708,3.1,18.043,3.1,18.043c-22.8,17.993-30.083,35.328-30.125,50.405.024.009,14.488,4.726,18.453,22.447,0,0,2.583-16.681,14.11-25.021,0,0,4.387,14.706,1.592,27.66,0,0,12.043-11.8,22.468-15.345,0,0-.719,9.552-5.649,17.377,23.981-28.8-.5-75.164-.5-75.164S-354.811,2164.9-359.077,2157.144Z" transform="translate(431.717 -2143.611)" fill="#ffe6c7" stroke="#000" stroke-miterlimit="10" stroke-width="0.292"/>
      </g>
      <path id="Path_4965" data-name="Path 4965" d="M-399.429,2152.841s-21.324,17.989-19.741,45.508" transform="translate(440.96 -2125.63)" fill="none" stroke="#000" stroke-miterlimit="10" stroke-width="0.292"/>
      <path id="Path_4966" data-name="Path 4966" d="M-408.84,2155.136s5.684,19.723,1.922,33.38" transform="translate(461.25 -2121.157)" fill="none" stroke="#000" stroke-miterlimit="10" stroke-width="0.292"/>
      <path id="Path_4967" data-name="Path 4967" d="M-406.115,2153.841s-9.714,15.994-6.064,35.092" transform="translate(453.147 -2123.68)" fill="none" stroke="#000" stroke-miterlimit="10" stroke-width="0.292"/>
    </g>
    <g id="Group_1453" data-name="Group 1453" transform="translate(-381.144 2399.768)">
      <path id="Path_4968" data-name="Path 4968" d="M-476.266,2182.9s16.634,158.324,160.063,164.518c0,0,5.481-68.555-29.373-102.875C-391.691,2199.136-443.892,2210.8-476.266,2182.9Z" transform="translate(476.266 -2182.897)" fill="#1789a0" stroke="#000" stroke-miterlimit="10" stroke-width="0.292"/>
      <path id="Path_4969" data-name="Path 4969" d="M-476.266,2182.9s84.483,126.118,160.063,164.518" transform="translate(476.266 -2182.897)" fill="none" stroke="#000" stroke-miterlimit="10" stroke-width="0.292"/>
      <path id="Path_4970" data-name="Path 4970" d="M-436.568,2267.9c-16.333-29.234-17.969-76.411-17.969-76.411" transform="translate(518.598 -2166.156)" fill="none" stroke="#000" stroke-miterlimit="10" stroke-width="0.292"/>
      <path id="Path_4971" data-name="Path 4971" d="M-434.294,2199.254s-13.644,39.2,5.97,89.752" transform="translate(549.037 -2151.031)" fill="none" stroke="#000" stroke-miterlimit="10" stroke-width="0.292"/>
      <path id="Path_4972" data-name="Path 4972" d="M-467.636,2209.5s25.982,0,64.757,31.663" transform="translate(493.079 -2131.07)" fill="none" stroke="#000" stroke-miterlimit="10" stroke-width="0.292"/>
      <path id="Path_4973" data-name="Path 4973" d="M-449.066,2233.141s21.2-8.883,46.962,1.758" transform="translate(529.257 -2091.781)" fill="none" stroke="#000" stroke-miterlimit="10" stroke-width="0.292"/>
    </g>
  </g>
</svg>
