<svg xmlns="http://www.w3.org/2000/svg" width="490.332" height="517.846" viewBox="0 0 490.332 517.846">
  <g id="Group_1474" data-name="Group 1474" transform="translate(-2377.503 -180.976)">
    <g id="Group_1522" data-name="Group 1522" transform="translate(2367.637 181.114)">
      <g id="Group_1507" data-name="Group 1507" transform="translate(108.298)">
        <path id="Path_5093" data-name="Path 5093" d="M2636.651,254.343c3.27,11.328,15.22,21.276,32.733,26.794,34.7,10.931,66.007,46.74,59.679,87.21s-9.022,59.209,18.735,84.19,41.147,73.228,19.947,98.669c-16.935,20.322-38.654,1.229-58.334,17.214-22.43,18.217-36.174,11.032-51.087,11.963s-21.346,10.064-40.675,14.133c-22.765,4.791-55.106-11.614-47.574-52.1,7.246-38.956,39-41.211,44.737-91.431,5.38-47.123-32.62-29.825-36.349-75.959a84.77,84.77,0,0,1,4.784-30.5,86.557,86.557,0,0,1-29.41,7l.006,0s-11.954,159.107-11.316,160.6-34.282,23-88.131,56.466-80.306-1.084-62.146-23.548,31.851-45.813,23.169-77.407c-11.763-42.8,34.437-80.462,50.975-109.09,12.669-21.934,4.937-48.457,2.08-60.093-6.549-26.674-10.035-77.971,33.79-104.863S2615.658,181.618,2636.651,254.343Z" transform="translate(-2386.55 -181.114)" fill="#1789a0" stroke="#000" stroke-miterlimit="10" stroke-width="0.25"/>
        <g id="Group_1498" data-name="Group 1498" transform="translate(95.41 415.055)">
          <path id="Path_5094" data-name="Path 5094" d="M2459.618,402.2v19.234s-29.781,14.5-24.346,29,55.8-2.859,59.8-8.678V403.741C2479.675,408.553,2459.618,402.2,2459.618,402.2Z" transform="translate(-2434.609 -378.331)" fill="#d6cd25" stroke="#000" stroke-miterlimit="10" stroke-width="0.25"/>
          <path id="Path_5095" data-name="Path 5095" d="M2447.206,391.017v23.035s20.057,6.349,35.453,1.537v-13.5S2468.651,386.443,2447.206,391.017Z" transform="translate(-2422.198 -390.179)" fill="#fff" stroke="#000" stroke-linejoin="round" stroke-width="0.25"/>
        </g>
        <g id="Group_1499" data-name="Group 1499" transform="translate(187.783 383.862)">
          <path id="Path_5096" data-name="Path 5096" d="M2536.263,423.911c-1.743-10.143-4.385-19.627-7.739-24.991-7.251-11.6-22.11-32.261-36.248-21.388s-3.42,18.31-3.42,18.31,5.257,17.85,7.133,34.441C2496,430.288,2518.639,436.565,2536.263,423.911Z" transform="translate(-2477.366 -374.467)" fill="#fff" stroke="#000" stroke-linejoin="round" stroke-width="0.25"/>
          <path id="Path_5097" data-name="Path 5097" d="M2540.034,399.372c-17.624,12.654-40.26,6.377-40.274,6.373.818,7.224,1,14.213-.183,19.38,0,0-28.106,15.132-14.92,26.512s55.376,5.211,57.423-19.625C2542.756,423.821,2542.057,411.155,2540.034,399.372Z" transform="translate(-2481.138 -349.928)" fill="#d6cd25" stroke="#000" stroke-miterlimit="10" stroke-width="0.25"/>
        </g>
        <path id="Path_5098" data-name="Path 5098" d="M2478.554,215.421" transform="translate(-2295.9 -147.312)" fill="none" stroke="#231815" stroke-miterlimit="10" stroke-width="0.25"/>
        <path id="Path_5099" data-name="Path 5099" d="M2471.513,205.054" transform="translate(-2302.838 -157.527)" fill="none" stroke="#231815" stroke-miterlimit="10" stroke-width="0.25"/>
        <path id="Path_5100" data-name="Path 5100" d="M2457.587,233.37s4.965,16.222,0,30.127c0,0,17.769,6.043,29.686-4.221,0,0-8.167-9.353-8.5-30.542Z" transform="translate(-2316.56 -134.195)" fill="#fff" stroke="#000" stroke-linejoin="round" stroke-width="0.25"/>
        <g id="Group_1501" data-name="Group 1501" transform="translate(41.655 122.476)">
          <g id="Group_1500" data-name="Group 1500">
            <path id="Path_5101" data-name="Path 5101" d="M2446.421,288.441q1.01-3.362,1.989-6.718c-1.417,2.571-2.314,4.1-2.314,4.1S2446.155,286.8,2446.421,288.441Z" transform="translate(-2369.538 -204.461)" fill="#1789a0" stroke="#000" stroke-miterlimit="10" stroke-width="0.25"/>
            <path id="Path_5102" data-name="Path 5102" d="M2475.193,354.515c-17.989,48.4-50.138,111.726-57.558,122.328-8.336,11.91-20.174,38.374,5.556,52.793S2474,515.745,2474,515.745s5.253,26.228,34.929,30.961c31.2,4.973,51.878-22.974,51.878-22.974,7.023-1.142,69.354-51.665,74.865-104.8S2573.76,318.4,2566.655,306.729c-7.247-11.906-20.115-36.994-23.8-51.117-1.68-6.438-4.8-13.411-9.008-12.763s-5.37,5.015-5.37,5.015-1.555-5.539-5.831-4.975-5.539,5.777-5.539,5.777c-.874-7.556-9.879-7.776-11.918,0-.679,2.587-1.436,5.565-2.253,8.807-4.014,15.918-9.663,39.017-16.534,62.6q-.976,3.356-1.99,6.718C2481.119,336.9,2477.7,347.912,2475.193,354.515Z" transform="translate(-2407.533 -242.806)" fill="#ffaa85" stroke="#000" stroke-miterlimit="10" stroke-width="0.25"/>
          </g>
          <path id="Path_5103" data-name="Path 5103" d="M2484.588,245.757s4.639,70.305-22.156,149.141c-28.646,84.274-20.953,117.939-20.953,117.939" transform="translate(-2375.011 -239.898)" fill="none" stroke="#000" stroke-miterlimit="10" stroke-width="0.25"/>
          <path id="Path_5104" data-name="Path 5104" d="M2468.454,245.353s13.4,70.4,18.06,120.565,14.268,86.295,14.268,86.295" transform="translate(-2347.507 -240.296)" fill="none" stroke="#000" stroke-miterlimit="10" stroke-width="0.25"/>
        </g>
        <path id="Path_5105" data-name="Path 5105" d="M2547.313,325.328c-7.814-4.775-9.116-19.539-9.116-19.539" transform="translate(-2237.135 -58.273)" fill="none" stroke="#231815" stroke-miterlimit="10" stroke-width="0.25"/>
        <path id="Path_5106" data-name="Path 5106" d="M2547.164,298.68s0,27.538,13.46,36.24" transform="translate(-2228.301 -65.277)" fill="none" stroke="#231815" stroke-miterlimit="10" stroke-width="0.25"/>
        <path id="Path_5107" data-name="Path 5107" d="M2550.909,346.962s5.847,17.085-3.746,25.98" transform="translate(-2228.301 -17.705)" fill="none" stroke="#231815" stroke-miterlimit="10" stroke-width="0.25"/>
        <path id="Path_5108" data-name="Path 5108" d="M2559.905,348.159s5.132,9.236,0,19.156" transform="translate(-2215.745 -16.526)" fill="none" stroke="#231815" stroke-miterlimit="10" stroke-width="0.25"/>
        <path id="Path_5109" data-name="Path 5109" d="M2437.3,237.371a22.282,22.282,0,0,1,1.87,19.382" transform="translate(-2336.547 -125.685)" fill="none" stroke="#231815" stroke-miterlimit="10" stroke-width="0.25"/>
        <path id="Path_5110" data-name="Path 5110" d="M2443.193,237.934s3.51,7.647,0,14.729" transform="translate(-2330.741 -125.13)" fill="none" stroke="#231815" stroke-miterlimit="10" stroke-width="0.25"/>
        <path id="Path_5111" data-name="Path 5111" d="M2418.756,308.67a28.132,28.132,0,0,0-4.211,26.672" transform="translate(-2360.584 -55.434)" fill="none" stroke="#231815" stroke-miterlimit="10" stroke-width="0.25"/>
        <path id="Path_5112" data-name="Path 5112" d="M2423.687,309.848S2418.3,319.6,2422.048,329" transform="translate(-2352.88 -54.274)" fill="none" stroke="#231815" stroke-miterlimit="10" stroke-width="0.25"/>
        <path id="Path_5113" data-name="Path 5113" d="M2403.422,359.581s-3.978,8.189-2.34,13.335" transform="translate(-2372.624 -5.272)" fill="none" stroke="#231815" stroke-miterlimit="10" stroke-width="0.25"/>
        <path id="Path_5114" data-name="Path 5114" d="M2407.684,360.524s-3.067,7.252-1.2,11.463" transform="translate(-2367.503 -4.343)" fill="none" stroke="#231815" stroke-miterlimit="10" stroke-width="0.25"/>
        <path id="Path_5115" data-name="Path 5115" d="M2504.39,221.719s2.244,13.26,12.444,15.5" transform="translate(-2270.445 -141.107)" fill="none" stroke="#231815" stroke-miterlimit="10" stroke-width="0.25"/>
        <path id="Path_5116" data-name="Path 5116" d="M2499.766,223.774s1.238,8.475,6.331,9.847" transform="translate(-2275 -139.082)" fill="none" stroke="#231815" stroke-miterlimit="10" stroke-width="0.25"/>
        <g id="Group_1504" data-name="Group 1504" transform="translate(107.185 35.637)">
          <g id="Group_1503" data-name="Group 1503">
            <g id="Group_1502" data-name="Group 1502">
              <path id="Path_5117" data-name="Path 5117" d="M2514.018,244.884c3.569-13.573,1.523-14.364,1.523-14.364-33.282-5.648-45.938-31.455-45.938-31.455-4.463,30.748-29.062,37.592-29.062,37.592.9,19.545,18.439,33.335,41.277,33.335a41.189,41.189,0,0,0,30.224-13.194A48.451,48.451,0,0,1,2514.018,244.884Z" transform="translate(-2440.54 -199.065)" fill="#fff" stroke="#000" stroke-linejoin="round" stroke-width="0.25"/>
            </g>
            <ellipse id="Ellipse_910" data-name="Ellipse 910" cx="1.982" cy="3.579" rx="1.982" ry="3.579" transform="translate(39.265 40.159) rotate(-6.387)" fill="#231815"/>
            <ellipse id="Ellipse_911" data-name="Ellipse 911" cx="1.982" cy="3.579" rx="1.982" ry="3.579" transform="translate(27.618 41.462) rotate(-6.387)" fill="#231815"/>
          </g>
        </g>
        <path id="Path_5118" data-name="Path 5118" d="M2470.816,266.954" transform="translate(-2303.525 -96.537)" fill="#58ad5d" stroke="#000" stroke-miterlimit="10" stroke-width="0.25"/>
        <path id="Path_5119" data-name="Path 5119" d="M2440.54,236.657s24.6-6.843,29.063-37.592c0,0,12.571,25.62,45.938,31.455,0,0,2.047.79-1.523,14.364s-4.173,23.008,14.268,32.982c23.679,12.809,8.787,28.846,1.765,48.977" transform="translate(-2333.355 -163.428)" fill="none" stroke="#231815" stroke-miterlimit="10" stroke-width="0.25"/>
        <g id="Group_1506" data-name="Group 1506" transform="translate(133.12 133.483)">
          <g id="Group_1505" data-name="Group 1505" transform="translate(0 44.559)">
            <path id="Path_5120" data-name="Path 5120" d="M2457.915,274.995s40.653,39.742,49.694,92.588" transform="translate(-2449.357 -266.656)" fill="none" stroke="#231815" stroke-miterlimit="10" stroke-width="0.25"/>
            <circle id="Ellipse_912" data-name="Ellipse 912" cx="4.975" cy="4.975" r="4.975" fill="#1789a0" stroke="#000" stroke-miterlimit="10" stroke-width="0.25"/>
            <circle id="Ellipse_913" data-name="Ellipse 913" cx="4.904" cy="4.904" r="4.904" transform="translate(18.732 3.317)" fill="#1789a0" stroke="#000" stroke-miterlimit="10" stroke-width="0.25"/>
            <circle id="Ellipse_914" data-name="Ellipse 914" cx="4.711" cy="4.711" r="4.711" transform="translate(1.284 16.729)" fill="#1789a0" stroke="#000" stroke-miterlimit="10" stroke-width="0.25"/>
            <circle id="Ellipse_915" data-name="Ellipse 915" cx="5.01" cy="5.01" r="5.01" transform="translate(13.634 33.695)" fill="#1789a0" stroke="#000" stroke-miterlimit="10" stroke-width="0.25"/>
            <circle id="Ellipse_916" data-name="Ellipse 916" cx="5.01" cy="5.01" r="5.01" transform="translate(36.451 18.303)" fill="#1789a0" stroke="#000" stroke-miterlimit="10" stroke-width="0.25"/>
            <path id="Path_5121" data-name="Path 5121" d="M2458.834,287.073l12.13,1.632.879-11.227" transform="translate(-2448.45 -264.209)" fill="none" stroke="#231815" stroke-miterlimit="10" stroke-width="0.25"/>
            <path id="Path_5122" data-name="Path 5122" d="M2465.312,297.03l10.674.882,5.3-13.287" transform="translate(-2442.068 -257.167)" fill="none" stroke="#231815" stroke-miterlimit="10" stroke-width="0.25"/>
          </g>
          <path id="Path_5123" data-name="Path 5123" d="M2473.93,380.358c-9.14-9.768,21.333-42.237,31.447-55.874-15.376-38.912-17.188-43.994-26.67-76.134,12.624,5.978,25.805,20.472,38.167,49.871C2531.71,333.5,2489.654,397.16,2473.93,380.358Z" transform="translate(-2435.24 -248.35)" fill="#fff" stroke="#000" stroke-linejoin="round" stroke-width="0.25"/>
        </g>
        <path id="Path_5124" data-name="Path 5124" d="M2490.338,250.484c-1.445-7.3-26.145,55.68-46.291,78.586-21.145,24.044-29.908,47.433-19.054,54.782,13.879,9.4,38.4-39,44.591-57.157S2491.972,258.744,2490.338,250.484Z" transform="translate(-2353.277 -113.342)" fill="#fff" stroke="#000" stroke-linejoin="round" stroke-width="0.25"/>
        <path id="Path_5125" data-name="Path 5125" d="M2546.122,218c3.27,11.328,15.219,21.276,32.733,26.794,34.7,10.931,66.007,46.74,59.679,87.21s-9.022,59.209,18.734,84.19,41.148,73.228,19.947,98.669c-16.935,20.322-38.654,1.229-58.335,17.215-22.43,18.217-36.173,11.032-51.087,11.963s-21.346,10.063-40.675,14.133c-22.765,4.791-55.106-11.614-47.574-52.1,7.246-38.955,39-41.211,44.736-91.431,5.381-47.123-32.62-29.825-36.348-75.959a84.77,84.77,0,0,1,4.784-30.5s2.6-7.169,6.5-15.458" transform="translate(-2296.021 -144.771)" fill="#1789a0" stroke="#000" stroke-miterlimit="10" stroke-width="0.25"/>
        <path id="Path_5126" data-name="Path 5126" d="M2484.2,225.759c-.165-3.252-7.983-17.564-11.374-20.83" transform="translate(-2301.545 -157.65)" fill="none" stroke="#231815" stroke-miterlimit="10" stroke-width="0.25"/>
        <path id="Path_5127" data-name="Path 5127" d="M2526.75,312.229s.5,11.56,8.189,18.684" transform="translate(-2248.413 -51.928)" fill="#1789a0" stroke="#000" stroke-miterlimit="10" stroke-width="0.25"/>
        <path id="Path_5128" data-name="Path 5128" d="M2535.117,312.22s.5,10.76,10.671,14.439" transform="translate(-2240.169 -51.937)" fill="#1789a0" stroke="#000" stroke-miterlimit="10" stroke-width="0.25"/>
      </g>
      <g id="Group_1508" data-name="Group 1508" transform="translate(10 432.627)">
        <path id="Path_5129" data-name="Path 5129" d="M2342.493,454.4c-14.177-22.581,13.754-56.414,34.909-59.233s53.593,30.556,53.122,50.77S2354.6,473.675,2342.493,454.4Z" transform="translate(-2338.637 -395)" fill="#58ad5d" stroke="#000" stroke-miterlimit="10" stroke-width="0.25"/>
        <ellipse id="Ellipse_917" data-name="Ellipse 917" cx="10.685" cy="5.051" rx="10.685" ry="5.051" transform="translate(14.596 51.607) rotate(-60)" fill="#fff" stroke="#000" stroke-linejoin="round" stroke-width="0.25"/>
        <ellipse id="Ellipse_918" data-name="Ellipse 918" cx="6.195" cy="4.002" rx="6.195" ry="4.002" transform="translate(14.31 28.5) rotate(-60)" fill="#fff" stroke="#000" stroke-linejoin="round" stroke-width="0.25"/>
      </g>
      <g id="Group_1509" data-name="Group 1509" transform="translate(78.198 322.296)">
        <path id="Path_5130" data-name="Path 5130" d="M2405.991,365.57c21.912-27.463,84.117-32.206,114.406,2.168,23.756,26.958,61.447,137.005,25.262,157.41-27.947,15.759-162.982,24.776-171.736-13.119S2379.855,398.328,2405.991,365.57Z" transform="translate(-2371.389 -343.456)" fill="#58ad5d" stroke="#000" stroke-miterlimit="10" stroke-width="0.25"/>
        <ellipse id="Ellipse_919" data-name="Ellipse 919" cx="4.015" cy="7.175" rx="4.015" ry="7.175" transform="matrix(0.856, -0.517, 0.517, 0.856, 120.173, 25.404)" fill="#fff" stroke="#000" stroke-linejoin="round" stroke-width="0.25"/>
        <ellipse id="Ellipse_920" data-name="Ellipse 920" cx="3.139" cy="9.712" rx="3.139" ry="9.712" transform="translate(136.932 59.25) rotate(-18.008)" fill="#fff" stroke="#000" stroke-linejoin="round" stroke-width="0.25"/>
        <path id="Path_5131" data-name="Path 5131" d="M2453.866,385.852c-3.484.752-7.389-6.919-8.918-11.743s-5.547-13.6-.927-13.893C2448.685,359.916,2461.548,384.19,2453.866,385.852Z" transform="translate(-2301.947 -326.945)" fill="#fff" stroke="#000" stroke-linejoin="round" stroke-width="0.25"/>
      </g>
      <g id="Group_1521" data-name="Group 1521" transform="translate(56.2 171.92)">
        <g id="Group_1517" data-name="Group 1517" transform="translate(41.251)">
          <g id="Group_1514" data-name="Group 1514" transform="translate(22.649)">
            <g id="Group_1510" data-name="Group 1510" transform="translate(8.643)">
              <path id="Path_5132" data-name="Path 5132" d="M2397.809,291.177s-3.687-10.971,3.395-16.135c7.1-5.178,10.593,2.148,16.257-3.184,4.725-4.451,8.021-1.026,11.5-2.515s9.19-3.016,14.441.59,2.565,6.006,8.517,8.759,7.054,6.516,2.934,12.085-19.763,16.641-35.93,12.887S2399.933,296.8,2397.809,291.177Z" transform="translate(-2396.849 -267.711)" fill="#ffaa85" stroke="#000" stroke-miterlimit="10" stroke-width="0.25"/>
              <path id="Path_5133" data-name="Path 5133" d="M2400.574,274.611a12.3,12.3,0,0,0,3.391,4.931" transform="translate(-2393.178 -260.912)" fill="none" stroke="#231815" stroke-miterlimit="10" stroke-width="0.25"/>
              <path id="Path_5134" data-name="Path 5134" d="M2402.681,273.663a7.115,7.115,0,0,0,2.021,3.212" transform="translate(-2391.103 -261.846)" fill="none" stroke="#231815" stroke-miterlimit="10" stroke-width="0.25"/>
              <path id="Path_5135" data-name="Path 5135" d="M2419.495,271.962s-.018,2.738-1.181,3.764" transform="translate(-2375.699 -263.523)" fill="none" stroke="#231815" stroke-miterlimit="10" stroke-width="0.25"/>
              <path id="Path_5136" data-name="Path 5136" d="M2422.126,273.246s-.026,2.646-1.427,3.855" transform="translate(-2373.349 -262.257)" fill="none" stroke="#231815" stroke-miterlimit="10" stroke-width="0.25"/>
            </g>
            <ellipse id="Ellipse_921" data-name="Ellipse 921" cx="4.012" cy="2.399" rx="4.012" ry="2.399" transform="translate(37.561 8.91) rotate(-3.706)" fill="#ffe6c7" stroke="#000" stroke-miterlimit="10" stroke-width="0.25"/>
            <ellipse id="Ellipse_922" data-name="Ellipse 922" cx="4.436" cy="2.671" rx="4.436" ry="2.671" transform="translate(25.34 15.878) rotate(-12.361)" fill="#ffe6c7" stroke="#000" stroke-miterlimit="10" stroke-width="0.25"/>
            <ellipse id="Ellipse_923" data-name="Ellipse 923" cx="2.237" cy="3.853" rx="2.237" ry="3.853" transform="translate(47.178 18.435) rotate(-80.212)" fill="#ffe6c7" stroke="#000" stroke-miterlimit="10" stroke-width="0.25"/>
            <line id="Line_209" data-name="Line 209" x2="0.5" y2="16.594" transform="translate(41.875 13.439)" fill="none" stroke="#231815" stroke-miterlimit="10" stroke-width="0.25"/>
            <line id="Line_210" data-name="Line 210" x2="6.965" y2="10.041" transform="translate(32.649 19.465)" fill="none" stroke="#231815" stroke-miterlimit="10" stroke-width="0.25"/>
            <line id="Line_211" data-name="Line 211" x1="3.194" y2="8.763" transform="translate(47.781 19.089)" fill="none" stroke="#231815" stroke-miterlimit="10" stroke-width="0.25"/>
            <g id="Group_1511" data-name="Group 1511" transform="translate(33.285 25.123)">
              <path id="Path_5137" data-name="Path 5137" d="M2409.261,286.7s.284-3.879,3.369-5.636,3.981.915,8.146.334,5.34-2.114,8.33.242,2.424,12.644-4.2,15.493S2410.3,301.178,2409.261,286.7Z" transform="translate(-2409.261 -280.366)" fill="#d6cd25" stroke="#000" stroke-miterlimit="10" stroke-width="0.25"/>
              <path id="Path_5138" data-name="Path 5138" d="M2412.907,282.983a12.256,12.256,0,0,0,.568,2.293" transform="translate(-2405.669 -277.786)" fill="none" stroke="#231815" stroke-miterlimit="10" stroke-width="0.25"/>
              <path id="Path_5139" data-name="Path 5139" d="M2415.827,282.7a4.714,4.714,0,0,1-.519,2.512" transform="translate(-2403.303 -278.064)" fill="none" stroke="#231815" stroke-miterlimit="10" stroke-width="0.25"/>
            </g>
            <g id="Group_1512" data-name="Group 1512" transform="translate(0 22.768)">
              <path id="Path_5140" data-name="Path 5140" d="M2408.06,303.286s-11.182-2.466-14.745-13.571,5.281-12.5,11.521-8.479,8.926-3.4,16.688.181,6.374,12.555,10.681,16.438,8.673,15.487-1.186,14.707S2408.06,303.286,2408.06,303.286Z" transform="translate(-2392.496 -279.179)" fill="#ffaa85" stroke="#000" stroke-miterlimit="10" stroke-width="0.25"/>
              <path id="Path_5141" data-name="Path 5141" d="M2399.7,284.764s2.44,3.865,8.747,6.567" transform="translate(-2385.399 -273.676)" fill="none" stroke="#231815" stroke-miterlimit="10" stroke-width="0.25"/>
              <path id="Path_5142" data-name="Path 5142" d="M2403.833,284.71s2.609,4.6,5.61,5.954" transform="translate(-2381.324 -273.73)" fill="none" stroke="#231815" stroke-miterlimit="10" stroke-width="0.25"/>
            </g>
            <g id="Group_1513" data-name="Group 1513" transform="translate(41.603 19.563)">
              <path id="Path_5143" data-name="Path 5143" d="M2415.907,298.355s5.728-1.066,8.279-11.257,6.838-10.643,10.266-8.5,7.456-1.251,10.557,2.73-.815,16.311-12.182,22.845-17.435,10.681-18.99,5.722S2415.907,298.355,2415.907,298.355Z" transform="translate(-2413.451 -277.565)" fill="#ffaa85" stroke="#000" stroke-miterlimit="10" stroke-width="0.25"/>
              <path id="Path_5144" data-name="Path 5144" d="M2428.238,283.134a15.064,15.064,0,0,1-4.177,5.922" transform="translate(-2402.996 -272.077)" fill="none" stroke="#231815" stroke-miterlimit="10" stroke-width="0.25"/>
              <path id="Path_5145" data-name="Path 5145" d="M2424,282.248s-.294,3.01-2.249,4.447" transform="translate(-2405.269 -272.95)" fill="none" stroke="#231815" stroke-miterlimit="10" stroke-width="0.25"/>
            </g>
            <path id="Path_5146" data-name="Path 5146" d="M2400.335,297.223s9.539,10.49,23.439,11.483c0,0,3.8,16.266,3.039,54.091l5.5-.494s1.88-29.668-2.539-54.191c0,0,11.486-.87,18.475-13.2,0,0-12.356,2.571-18.376,7.435,0,0,.463-11.582-3.164-17.012,0,0-4.138,8.457-3.145,17.695A56.687,56.687,0,0,0,2400.335,297.223Z" transform="translate(-2384.771 -250.348)" fill="#ffe6c7" stroke="#000" stroke-miterlimit="10" stroke-width="0.25"/>
          </g>
          <g id="Group_1515" data-name="Group 1515" transform="translate(0 63.894)">
            <path id="Path_5147" data-name="Path 5147" d="M2426.975,333.312s20.8-4.87,25.5,17.977c4.441,21.62-20.371,32.194-32.059,28.459-12.384-3.959-17.84-13.925-16.4-30.6,0,0-10.308-.953-14.593-10.276s.74-18.128.74-18.128-9.45-3.123-9.059-11.636,9.5-10.875,13.889-8.12,6.15,7.008,5.5,11c0,0,9.539-5.235,17.653-.887C2426.155,315.4,2428.923,325.057,2426.975,333.312Z" transform="translate(-2381.087 -299.894)" fill="#58ad5d" stroke="#000" stroke-miterlimit="10" stroke-width="0.25"/>
            <path id="Path_5148" data-name="Path 5148" d="M2389.927,311.23s16.709,36.057,50.1,46.682" transform="translate(-2372.377 -288.726)" fill="none" stroke="#231815" stroke-miterlimit="10" stroke-width="0.25"/>
          </g>
          <g id="Group_1516" data-name="Group 1516" transform="translate(64.315 61.437)">
            <path id="Path_5149" data-name="Path 5149" d="M2419.443,368.641c-10.6-11.249-8.444-40.27,17.743-42.142,0,0-.878-15.662,15.239-16.587,0,0,.02-11.55,12.916-11.249s14.851,18.95,3.86,21.9c0,0,7.847,18.521-8.918,24.286C2466.235,370.94,2438.44,388.811,2419.443,368.641Z" transform="translate(-2413.483 -298.657)" fill="#58ad5d" stroke="#000" stroke-miterlimit="10" stroke-width="0.25"/>
            <path id="Path_5150" data-name="Path 5150" d="M2416.485,357.532s31.009-4.914,39.321-47.6" transform="translate(-2410.525 -287.549)" fill="none" stroke="#231815" stroke-miterlimit="10" stroke-width="0.25"/>
          </g>
        </g>
        <g id="Group_1518" data-name="Group 1518" transform="translate(0 35.959)">
          <circle id="Ellipse_924" data-name="Ellipse 924" cx="4.2" cy="4.2" r="4.2" transform="translate(0 7.471)" fill="#1789a0" stroke="#000" stroke-miterlimit="10" stroke-width="0.25"/>
          <circle id="Ellipse_925" data-name="Ellipse 925" cx="4.2" cy="4.2" r="4.2" transform="translate(25.48 26.978)" fill="#1789a0" stroke="#000" stroke-miterlimit="10" stroke-width="0.25"/>
          <circle id="Ellipse_926" data-name="Ellipse 926" cx="4.2" cy="4.2" r="4.2" transform="translate(38.333 37.578)" fill="#1789a0" stroke="#000" stroke-miterlimit="10" stroke-width="0.25"/>
          <circle id="Ellipse_927" data-name="Ellipse 927" cx="4.2" cy="4.2" r="4.2" transform="translate(35.16 7.996)" fill="#1789a0" stroke="#000" stroke-miterlimit="10" stroke-width="0.25"/>
          <circle id="Ellipse_928" data-name="Ellipse 928" cx="3.751" cy="3.751" r="3.751" transform="translate(13.562)" fill="#1789a0" stroke="#000" stroke-miterlimit="10" stroke-width="0.25"/>
          <circle id="Ellipse_929" data-name="Ellipse 929" cx="3.751" cy="3.751" r="3.751" transform="translate(9.962 17.659)" fill="#1789a0" stroke="#000" stroke-miterlimit="10" stroke-width="0.25"/>
          <path id="Path_5151" data-name="Path 5151" d="M2364.551,292.053s53.259,9.244,69.44,56.17c5.268,15.283,3.771,32.561,3.771,32.561" transform="translate(-2356.129 -279.686)" fill="none" stroke="#231815" stroke-miterlimit="10" stroke-width="0.25"/>
          <path id="Path_5152" data-name="Path 5152" d="M2369.1,303.477c.03-.026,4.8-.794,7.565-3.673,0,0-1.374-6.3-5.364-10.615" transform="translate(-2351.647 -282.508)" fill="none" stroke="#231815" stroke-miterlimit="10" stroke-width="0.25"/>
          <path id="Path_5153" data-name="Path 5153" d="M2377.374,309.452s9-1.265,11.252-3.51A30.792,30.792,0,0,0,2386,293.367" transform="translate(-2343.495 -278.392)" fill="none" stroke="#231815" stroke-miterlimit="10" stroke-width="0.25"/>
          <path id="Path_5154" data-name="Path 5154" d="M2383.655,314.21s9.66.22,14.421-1.739c0,0,1.545-7.655,1.408-12.625" transform="translate(-2337.308 -272.008)" fill="none" stroke="#231815" stroke-miterlimit="10" stroke-width="0.25"/>
          <circle id="Ellipse_930" data-name="Ellipse 930" cx="4.2" cy="4.2" r="4.2" transform="translate(57.212 19.51)" fill="#1789a0" stroke="#000" stroke-miterlimit="10" stroke-width="0.25"/>
        </g>
        <g id="Group_1519" data-name="Group 1519" transform="translate(61.395 43.867)">
          <path id="Path_5155" data-name="Path 5155" d="M2395.534,302.37s-5.676-5.047-3.986-7.683c1.4-2.188,6.353,2.138,7.27,5.07,0,0-3.454-9.335.109-9.936,2.142-.361,3.9,6.139,3.409,8.719,0,0,1.267-7.274,3.606-6.663,1.9.494,1.534,5.575.029,9.2,0,0,8.755,2.8,12.879,13.627,0,0,2.031,9.831-5.2,14.844s-15.36-4.685-15.36-4.685S2390.1,316.416,2395.534,302.37Z" transform="translate(-2391.234 -289.807)" fill="#ffe6c7" stroke="#000" stroke-miterlimit="10" stroke-width="0.25"/>
          <path id="Path_5156" data-name="Path 5156" d="M2395.205,297.889s-2.208,11.217,5.511,16.516" transform="translate(-2387.609 -281.843)" fill="none" stroke="#000" stroke-miterlimit="10" stroke-width="0.25"/>
          <path id="Path_5157" data-name="Path 5157" d="M2398.188,297.312s7.054,4.648,9.063,13" transform="translate(-2384.382 -282.412)" fill="none" stroke="#000" stroke-miterlimit="10" stroke-width="0.25"/>
          <path id="Path_5158" data-name="Path 5158" d="M2396.835,297.658s.751,8.191,6.009,12.859" transform="translate(-2385.714 -282.071)" fill="none" stroke="#000" stroke-miterlimit="10" stroke-width="0.25"/>
          <path id="Path_5159" data-name="Path 5159" d="M2394.788,312.506a32.462,32.462,0,0,1,11.795,3.379s-1.626-3.976-.84-7.349a21.094,21.094,0,0,1,5.166,4.92s4.548-5.986,4.439-11.108c0,0,2.038,4.137.293,11.012-1.173,4.622.137,6.915,1.965,9.766s10.888,17.276,10.594,30.8l-3.383.361a48.817,48.817,0,0,0-5.17-21.389c-3.53-6.829-7.123-10.752-10.728-12.148S2398.522,317.822,2394.788,312.506Z" transform="translate(-2387.732 -277.451)" fill="#58ad5d" stroke="#000" stroke-miterlimit="10" stroke-width="0.25"/>
        </g>
        <g id="Group_1520" data-name="Group 1520" transform="translate(113.316 59.669)">
          <path id="Path_5160" data-name="Path 5160" d="M2441.059,307.706s4.491-3.992,3.155-6.079c-1.11-1.731-5.027,1.691-5.752,4.012,0,0,2.733-7.385-.087-7.862-1.694-.286-3.081,4.856-2.7,6.9,0,0-1-5.755-2.853-5.273-1.5.393-1.215,4.411-.024,7.278,0,0-6.926,2.218-10.189,10.78,0,0-1.606,7.778,4.114,11.743s12.152-3.707,12.152-3.707S2445.36,318.818,2441.059,307.706Z" transform="translate(-2412.44 -297.766)" fill="#ffaa85" stroke="#000" stroke-miterlimit="10" stroke-width="0.25"/>
          <path id="Path_5161" data-name="Path 5161" d="M2432.653,304.161s1.747,8.872-4.36,13.063" transform="translate(-2406.64 -291.466)" fill="none" stroke="#000" stroke-miterlimit="10" stroke-width="0.25"/>
          <path id="Path_5162" data-name="Path 5162" d="M2431.572,303.7a18.739,18.739,0,0,0-7.169,10.286" transform="translate(-2410.473 -291.916)" fill="none" stroke="#000" stroke-miterlimit="10" stroke-width="0.25"/>
          <path id="Path_5163" data-name="Path 5163" d="M2431.443,303.978s-.594,6.478-4.755,10.173" transform="translate(-2408.22 -291.646)" fill="none" stroke="#000" stroke-miterlimit="10" stroke-width="0.25"/>
          <path id="Path_5164" data-name="Path 5164" d="M2443.827,315.723a25.7,25.7,0,0,0-9.331,2.672,11.265,11.265,0,0,0,.663-5.813,16.673,16.673,0,0,0-4.086,3.891s-3.6-4.735-3.511-8.787c0,0-1.612,3.274-.233,8.713.927,3.655-.109,5.468-1.554,7.725s-8.613,13.667-8.382,24.369l2.679.284a38.607,38.607,0,0,1,4.089-16.921c2.792-5.4,5.634-8.5,8.487-9.611S2440.872,319.928,2443.827,315.723Z" transform="translate(-2417.386 -287.991)" fill="#58ad5d" stroke="#000" stroke-miterlimit="10" stroke-width="0.25"/>
        </g>
        <path id="Path_5165" data-name="Path 5165" d="M2384.455,324.016c-13.936,7.282-10.3,60.835,66.246,60.835s81.459-56.222,70.172-60.835S2393.288,319.4,2384.455,324.016Z" transform="translate(-2342.785 -215.645)" fill="#fff" stroke="#000" stroke-linejoin="round" stroke-width="0.25"/>
      </g>
    </g>
  </g>
</svg>
