<svg xmlns="http://www.w3.org/2000/svg" width="346.633" height="296.004" viewBox="0 0 346.633 296.004">
  <g id="Group_1591" data-name="Group 1591" transform="translate(0.066 0.131)">
    <g id="Group_1570" data-name="Group 1570" transform="translate(7.924 74.356)">
      <g id="Group_1565" data-name="Group 1565" transform="translate(49.571 101.691)">
        <g id="Group_1564" data-name="Group 1564">
          <path id="Path_5254" data-name="Path 5254" d="M-284.163-513.2c1.305-5.782.664-16.372-9.962-22.261-.635-.353-1.306-.688-2-1l-.974,2.447c.578.264,1.141.546,1.673.842,10.3,5.71,9.42,15.648,8.725,19.183Z" transform="translate(297.1 536.462)" fill="#a6b832" stroke="#000" stroke-miterlimit="10" stroke-width="0.242"/>
        </g>
      </g>
      <path id="Path_5255" data-name="Path 5255" d="M-307.7-510.73s7.779-32.316,35.737-25.821C-271.96-536.551-272.645-513.256-307.7-510.73Z" transform="translate(319.469 635.71)" fill="#58ad5d" stroke="#000" stroke-miterlimit="10" stroke-width="0.242"/>
      <g id="Group_1567" data-name="Group 1567" transform="translate(22.545)">
        <g id="Group_1566" data-name="Group 1566">
          <path id="Path_5256" data-name="Path 5256" d="M-304.677-551.291c1.947-5.6,8.083-14.257,20.217-13.651.728.039,1.473.107,2.229.211l-.464,2.59c-.635-.082-1.259-.139-1.865-.168-11.771-.592-16.265,8.315-17.542,11.685Z" transform="translate(304.677 564.971)" fill="#d6cd25" stroke="#000" stroke-miterlimit="10" stroke-width="0.242"/>
        </g>
      </g>
      <g id="Group_1568" data-name="Group 1568" transform="translate(0 11.983)">
        <path id="Path_5257" data-name="Path 5257" d="M-299.214-552.278s-.917,35.6-11.539,67.493a4.312,4.312,0,0,0,7.216,4.359c11.732-12.523,26.388-35.345,23.97-69.748l-10.023-9.5Z" transform="translate(310.997 566.581)" fill="#d6cd25" stroke="#000" stroke-miterlimit="10" stroke-width="0.242"/>
        <path id="Path_5258" data-name="Path 5258" d="M-296.882-560.325c-3.485,2.722-8.068,7.683-12.017,16.547,0,0,6.085,1,10.554-3.1a16.485,16.485,0,0,0,3.317,10.719s3.453-2.875,4.855-9.138a9.477,9.477,0,0,0,7.69,6.531,38.849,38.849,0,0,0-5.55-19.993A6.022,6.022,0,0,0-296.882-560.325Z" transform="translate(316.384 561.612)" fill="#fde3b9" stroke="#000" stroke-miterlimit="10" stroke-width="0.242"/>
        <path id="Path_5259" data-name="Path 5259" d="M-305.955-552.1a4.427,4.427,0,0,0,4.78,6.05" transform="translate(323.206 586.021)" fill="none" stroke="#000" stroke-miterlimit="10" stroke-width="0.242"/>
        <path id="Path_5260" data-name="Path 5260" d="M-306.687-548.315a4.427,4.427,0,0,0,4.78,6.046" transform="translate(321.331 595.744)" fill="none" stroke="#000" stroke-miterlimit="10" stroke-width="0.242"/>
        <path id="Path_5261" data-name="Path 5261" d="M-307.613-544.614a4.426,4.426,0,0,0,4.776,6.05" transform="translate(318.95 605.244)" fill="none" stroke="#000" stroke-miterlimit="10" stroke-width="0.242"/>
      </g>
      <g id="Group_1569" data-name="Group 1569" transform="translate(50.991 122.318)">
        <path id="Path_5262" data-name="Path 5262" d="M-281.67-521.9s.232,22.279,11.614,43.877a3.648,3.648,0,0,1-5.358,4.644c-10.49-7.541-23.253-22.4-19.971-49.056l5.743-6.007Z" transform="translate(298.734 536.429)" fill="#d6cd25" stroke="#000" stroke-miterlimit="10" stroke-width="0.242"/>
        <path id="Path_5263" data-name="Path 5263" d="M-290.919-523.285a3.436,3.436,0,0,1-3.143,5.093" transform="translate(303.479 549.66)" fill="none" stroke="#000" stroke-miterlimit="10" stroke-width="0.242"/>
        <path id="Path_5264" data-name="Path 5264" d="M-290.016-520.429a3.438,3.438,0,0,1-3.142,5.1" transform="translate(305.799 556.991)" fill="none" stroke="#000" stroke-miterlimit="10" stroke-width="0.242"/>
        <path id="Path_5265" data-name="Path 5265" d="M-288.968-517.656a3.439,3.439,0,0,1-3.142,5.1" transform="translate(308.489 564.109)" fill="none" stroke="#000" stroke-miterlimit="10" stroke-width="0.242"/>
        <path id="Path_5266" data-name="Path 5266" d="M-281.464-527.982a65.681,65.681,0,0,1,6.353,16.928,10.955,10.955,0,0,1-7.829-4.091,13.248,13.248,0,0,1-4.287,7.922,13.829,13.829,0,0,1-2.4-7.954,7.611,7.611,0,0,1-7.077,3.941s1.281-9.5,6.353-17.146A5.212,5.212,0,0,1-281.464-527.982Z" transform="translate(296.702 530.679)" fill="#fde3b9" stroke="#000" stroke-miterlimit="10" stroke-width="0.242"/>
      </g>
    </g>
    <g id="Group_1575" data-name="Group 1575" transform="translate(139.218 136.233)">
      <g id="Group_1574" data-name="Group 1574">
        <g id="Group_1572" data-name="Group 1572" transform="translate(19.286)">
          <g id="Group_1571" data-name="Group 1571">
            <path id="Path_5267" data-name="Path 5267" d="M-268.782-528.331c2.194-7.5,9.7-19.293,25.707-19.293.96,0,1.944.043,2.946.125l-.439,3.442c-.838-.068-1.666-.1-2.465-.1-15.53,0-20.859,12.017-22.315,16.536Z" transform="translate(268.782 547.624)" fill="#d6cd25" stroke="#000" stroke-miterlimit="10" stroke-width="0.242"/>
          </g>
        </g>
        <g id="Group_1573" data-name="Group 1573" transform="translate(0 16.019)">
          <path id="Path_5268" data-name="Path 5268" d="M-265.276-532.608s.927,38.109-8.725,72.769a4.618,4.618,0,0,0,7.951,4.273c11.871-14.018,26.317-39.2,21.887-75.847l-11.225-9.62Z" transform="translate(274.189 548.523)" fill="#d6cd25" stroke="#000" stroke-miterlimit="10" stroke-width="0.242"/>
          <path id="Path_5269" data-name="Path 5269" d="M-260.966-541.546c-3.578,3.093-8.211,8.643-11.96,18.331,0,0,6.56.745,11.118-3.877a17.647,17.647,0,0,0,4.12,11.279s3.538-3.257,4.7-10.027a10.151,10.151,0,0,0,8.571,6.57,41.629,41.629,0,0,0-7.005-21.077A6.443,6.443,0,0,0-260.966-541.546Z" transform="translate(277.431 543.133)" fill="#fde3b9" stroke="#000" stroke-miterlimit="10" stroke-width="0.242"/>
          <path id="Path_5270" data-name="Path 5270" d="M-269.594-532.875c-.828,2.365.524,6.913,5.432,6.21" transform="translate(285.402 569.464)" fill="none" stroke="#000" stroke-miterlimit="10" stroke-width="0.242"/>
          <path id="Path_5271" data-name="Path 5271" d="M-270.173-528.787c-.828,2.365.528,6.913,5.432,6.21" transform="translate(283.916 579.958)" fill="none" stroke="#000" stroke-miterlimit="10" stroke-width="0.242"/>
          <path id="Path_5272" data-name="Path 5272" d="M-270.966-524.78c-.827,2.365.524,6.909,5.432,6.21" transform="translate(281.88 590.243)" fill="none" stroke="#000" stroke-miterlimit="10" stroke-width="0.242"/>
        </g>
      </g>
      <path id="Path_5273" data-name="Path 5273" d="M-259.583-540.033c-.838.1-1.259,22.265,27.8,26C-231.786-514.031-241.249-542.117-259.583-540.033Z" transform="translate(311.036 566.825)" fill="#58ad5d" stroke="#000" stroke-miterlimit="10" stroke-width="0.242"/>
      <path id="Path_5274" data-name="Path 5274" d="M-248.5-521.162c-.435-.949-24.854,5.682-17.442,40.913C-265.942-480.249-238.961-500.363-248.5-521.162Z" transform="translate(291.766 615.333)" fill="#58ad5d" stroke="#000" stroke-miterlimit="10" stroke-width="0.242"/>
    </g>
    <g id="Group_1580" data-name="Group 1580" transform="translate(104.418 66.3)">
      <path id="Path_5275" data-name="Path 5275" d="M-282.472-503.576c-.125.97,21.73,12.727,34.449-18.98C-248.022-522.555-279.8-524.753-282.472-503.576Z" transform="translate(287.726 681.74)" fill="#58ad5d" stroke="#000" stroke-miterlimit="10" stroke-width="0.242"/>
      <g id="Group_1579" data-name="Group 1579">
        <g id="Group_1577" data-name="Group 1577">
          <g id="Group_1576" data-name="Group 1576">
            <path id="Path_5276" data-name="Path 5276" d="M-262.2-552.588c-1.662-5.693-7.355-14.642-19.508-14.642-.728,0-1.477.032-2.237.093l.335,2.611c.635-.05,1.263-.075,1.869-.075,11.785,0,15.83,9.121,16.936,12.552Z" transform="translate(283.945 567.23)" fill="#d6cd25" stroke="#000" stroke-miterlimit="10" stroke-width="0.242"/>
          </g>
        </g>
        <g id="Group_1578" data-name="Group 1578" transform="translate(15.76 13.136)">
          <path id="Path_5277" data-name="Path 5277" d="M-263.668-556.852s9.064,24.187,30.005,43.224a4.228,4.228,0,0,1-4,7.18c-14.414-4.074-34.2-15.213-41.162-45.561l3.877-8.821Z" transform="translate(281.331 570.525)" fill="#d6cd25" stroke="#000" stroke-miterlimit="10" stroke-width="0.242"/>
          <path id="Path_5278" data-name="Path 5278" d="M-273.622-555.6a3.985,3.985,0,0,1-1.412,6.795" transform="translate(291.059 583.955)" fill="none" stroke="#000" stroke-miterlimit="10" stroke-width="0.242"/>
          <path id="Path_5279" data-name="Path 5279" d="M-271.51-552.841a3.984,3.984,0,0,1-1.409,6.8" transform="translate(296.488 591.03)" fill="none" stroke="#000" stroke-miterlimit="10" stroke-width="0.242"/>
          <path id="Path_5280" data-name="Path 5280" d="M-269.269-550.234a3.986,3.986,0,0,1-1.412,6.8" transform="translate(302.233 597.721)" fill="none" stroke="#000" stroke-miterlimit="10" stroke-width="0.242"/>
          <path id="Path_5281" data-name="Path 5281" d="M-268.535-562.048a75.868,75.868,0,0,1,13.615,15.937s-5.457,1.78-10.148-1.363a15.342,15.342,0,0,1-1.541,10.33s-3.581-2.158-5.757-7.726a8.818,8.818,0,0,1-6.153,7.095s-2.361-10.861.143-21.194A6.041,6.041,0,0,1-268.535-562.048Z" transform="translate(279.527 563.547)" fill="#fde3b9" stroke="#000" stroke-miterlimit="10" stroke-width="0.242"/>
        </g>
        <path id="Path_5282" data-name="Path 5282" d="M-281.61-547.333c-.7-.039-2.9,22.489,22.358,27.719C-259.253-519.615-264.147-546.323-281.61-547.333Z" transform="translate(288.98 618.304)" fill="#58ad5d" stroke="#000" stroke-miterlimit="10" stroke-width="0.242"/>
      </g>
    </g>
    <g id="Group_1588" data-name="Group 1588" transform="translate(208.182 42.248)">
      <g id="Group_1584" data-name="Group 1584">
        <g id="Group_1582" data-name="Group 1582" transform="translate(16.973)">
          <g id="Group_1581" data-name="Group 1581">
            <path id="Path_5283" data-name="Path 5283" d="M-250.1-557.03c1.926-6.588,8.525-16.946,22.589-16.943.842,0,1.709.039,2.59.114l-.389,3.021c-.735-.057-1.459-.086-2.165-.086-13.643-.007-18.33,10.551-19.611,14.517Z" transform="translate(250.096 573.973)" fill="#d6cd25" stroke="#000" stroke-miterlimit="10" stroke-width="0.242"/>
          </g>
        </g>
        <g id="Group_1583" data-name="Group 1583" transform="translate(0 14.067)">
          <path id="Path_5284" data-name="Path 5284" d="M-247-560.787s.8,33.483-7.687,63.93a4.055,4.055,0,0,0,6.98,3.756c10.437-12.309,23.135-34.428,19.258-66.627l-9.859-8.457Z" transform="translate(254.855 574.763)" fill="#d6cd25" stroke="#000" stroke-miterlimit="10" stroke-width="0.242"/>
          <path id="Path_5285" data-name="Path 5285" d="M-243.224-568.638c-3.146,2.718-7.216,7.59-10.515,16.1,0,0,5.764.656,9.773-3.4a15.492,15.492,0,0,0,3.613,9.909s3.107-2.861,4.134-8.807a8.909,8.909,0,0,0,7.526,5.775,36.549,36.549,0,0,0-6.146-18.516A5.661,5.661,0,0,0-243.224-568.638Z" transform="translate(257.718 570.029)" fill="#fde3b9" stroke="#000" stroke-miterlimit="10" stroke-width="0.242"/>
          <path id="Path_5286" data-name="Path 5286" d="M-250.811-561.018a4.16,4.16,0,0,0,4.769,5.457" transform="translate(264.717 593.16)" fill="none" stroke="#000" stroke-miterlimit="10" stroke-width="0.242"/>
          <path id="Path_5287" data-name="Path 5287" d="M-251.322-557.426a4.163,4.163,0,0,0,4.769,5.458" transform="translate(263.409 602.381)" fill="none" stroke="#000" stroke-miterlimit="10" stroke-width="0.242"/>
          <path id="Path_5288" data-name="Path 5288" d="M-252.019-553.907a4.161,4.161,0,0,0,4.769,5.457" transform="translate(261.616 611.414)" fill="none" stroke="#000" stroke-miterlimit="10" stroke-width="0.242"/>
        </g>
      </g>
      <g id="Group_1586" data-name="Group 1586" transform="translate(30.824 77.766)">
        <g id="Group_1585" data-name="Group 1585">
          <path id="Path_5289" data-name="Path 5289" d="M-246.213-527c.432-7.8,5.061-20.992,20.652-24.626.935-.217,1.9-.4,2.9-.546l.353,3.449c-.831.128-1.641.282-2.422.464-15.127,3.528-17.588,16.44-17.977,21.173Z" transform="translate(246.213 552.171)" fill="#d6cd25" stroke="#000" stroke-miterlimit="10" stroke-width="0.242"/>
        </g>
      </g>
      <g id="Group_1587" data-name="Group 1587" transform="translate(20.708 98.424)">
        <path id="Path_5290" data-name="Path 5290" d="M-247.149-537.052s3.752,30.7-1.313,59.454a3.746,3.746,0,0,0,6.756,2.825c8.482-12.253,18.166-33.725,11.7-62.974l-9.823-6.888Z" transform="translate(250.391 550.857)" fill="#d6cd25" stroke="#000" stroke-miterlimit="10" stroke-width="0.242"/>
        <path id="Path_5291" data-name="Path 5291" d="M-240.834-544.737c-2.647,2.779-5.95,7.626-8.215,15.745,0,0,5.354.085,8.675-4.01a14.323,14.323,0,0,0,4.213,8.786,14.977,14.977,0,0,0,3.007-8.468,8.227,8.227,0,0,0,7.441,4.63,33.758,33.758,0,0,0-7.319-16.465A5.224,5.224,0,0,0-240.834-544.737Z" transform="translate(249.049 546.379)" fill="#fde3b9" stroke="#000" stroke-miterlimit="10" stroke-width="0.242"/>
        <path id="Path_5292" data-name="Path 5292" d="M-246.058-537.98a3.844,3.844,0,0,0,4.876,4.587" transform="translate(256.498 567.94)" fill="none" stroke="#000" stroke-miterlimit="10" stroke-width="0.242"/>
        <path id="Path_5293" data-name="Path 5293" d="M-246.2-534.633a3.843,3.843,0,0,0,4.876,4.587" transform="translate(256.125 576.532)" fill="none" stroke="#000" stroke-miterlimit="10" stroke-width="0.242"/>
        <path id="Path_5294" data-name="Path 5294" d="M-246.527-531.335a3.843,3.843,0,0,0,4.876,4.587" transform="translate(255.291 584.997)" fill="none" stroke="#000" stroke-miterlimit="10" stroke-width="0.242"/>
      </g>
      <path id="Path_5295" data-name="Path 5295" d="M-223.535-531.012c-.164-.81-25.792,6.11-21.077,35.891C-244.612-495.121-218.356-505.337-223.535-531.012Z" transform="translate(279.659 684.094)" fill="#58ad5d" stroke="#000" stroke-miterlimit="10" stroke-width="0.242"/>
    </g>
    <g id="Group_1589" data-name="Group 1589" transform="translate(29.449)">
      <path id="Path_5296" data-name="Path 5296" d="M-273.738-480.663c-4.733-57.963,9.092-89.4,14.789-99.624a3.723,3.723,0,0,0-1-4.755,3.735,3.735,0,0,0-5.529,1.124c-6.435,11.318-20.567,43.727-15.655,103.858,3.053,37.321,2.572,78.412-1.32,112.733-4.188,36.964-11.935,63.338-22.515,76.985a45.317,45.317,0,0,0,10.355-2.315c9.231-16.062,15.951-41.619,19.654-75.266C-271.209-401.991-270.753-444.138-273.738-480.663Z" transform="translate(304.963 585.817)" fill="#58ad5d" stroke="#000" stroke-miterlimit="10" stroke-width="0.242"/>
      <path id="Path_5297" data-name="Path 5297" d="M-251.977-502.265a45.358,45.358,0,0,0-8.425-4.006" transform="translate(419.348 790.007)" fill="#58ad5d" stroke="#000" stroke-miterlimit="10" stroke-width="0.242"/>
      <path id="Path_5298" data-name="Path 5298" d="M-246.082-473.531c7.915-59.81-4.576-92.887-10.437-104.511a3.733,3.733,0,0,0-5.465-1.4,3.724,3.724,0,0,0-1.234,4.7c5.179,10.494,17.414,42.585,9.784,100.238-4.808,36.333-6.46,78.447-4.423,112.661a310.193,310.193,0,0,0,5.657,45.111,45.345,45.345,0,0,1,8.425,4.006c-3.2-13.2-5.443-29.324-6.627-48.147C-252.571-395.348-250.994-436.411-246.082-473.531Z" transform="translate(411.146 600.469)" fill="#58ad5d" stroke="#000" stroke-miterlimit="10" stroke-width="0.242"/>
      <path id="Path_5299" data-name="Path 5299" d="M-272.056-479.946c-7.63-57.652,4.608-89.744,9.788-100.238a3.724,3.724,0,0,0-1.234-4.7,3.734,3.734,0,0,0-5.465,1.4c-5.86,11.625-18.352,44.7-10.437,104.511,4.912,37.117,6.488,78.183,4.32,112.658-1.755,27.918-5.821,49.962-11.928,65.207a45.521,45.521,0,0,1,5.5,3.032l.007.007c.31.2.631.371.942.564,6.756-16.486,11.164-40.078,12.934-69.78C-265.593-401.5-267.244-443.617-272.056-479.946Z" transform="translate(351.042 586.502)" fill="#58ad5d" stroke="#000" stroke-miterlimit="10" stroke-width="0.242"/>
      <path id="Path_5300" data-name="Path 5300" d="M-215.945-480.271c-.724-60.327-17.82-91.274-25.282-101.943a3.738,3.738,0,0,0-5.611-.6,3.717,3.717,0,0,0-.546,4.826c6.627,9.648,23.328,39.657,24.027,97.809.439,36.647,4.83,78.565,11.742,112.134,5.265,25.564,11.867,46.163,19.515,61.205a45.521,45.521,0,0,1,8.521,4.312l.021.014c1.209.785,2.454,1.48,3.717,2.14-9.538-14-17.813-36.993-24.259-67.775C-211.18-401.963-215.5-442.829-215.945-480.271Z" transform="translate(451.099 590.954)" fill="#58ad5d" stroke="#000" stroke-miterlimit="10" stroke-width="0.242"/>
    </g>
    <g id="Group_1590" data-name="Group 1590" transform="translate(0 281.112)">
      <path id="Path_5301" data-name="Path 5301" d="M33.276-499.7l-.029.021a45.5,45.5,0,0,1-49.477,0l-.021-.014a45.514,45.514,0,0,0-49.48,0l-.021.014a45.507,45.507,0,0,1-49.48,0l-.021-.011a45.5,45.5,0,0,0-49.48,0l-.014.011a45.513,45.513,0,0,1-49.484,0l-.007,0a45.513,45.513,0,0,0-49.488,0h0a45.5,45.5,0,0,1-49.487,0h0" transform="translate(313.219 507.007)" fill="none" stroke="#000" stroke-miterlimit="10" stroke-width="0.242"/>
    </g>
  </g>
</svg>
