<svg xmlns="http://www.w3.org/2000/svg" xmlns:xlink="http://www.w3.org/1999/xlink" width="390.011" height="302.725" viewBox="0 0 390.011 302.725">
  <defs>
    <clipPath id="clip-path">
      <path id="Path_5322" data-name="Path 5322" d="M-536.7,842.131a79.714,79.714,0,0,0-2.2,21.2c.56,10.615,2.236,20.668-5.028,29.608S-559.564,909.7-560.681,919.2s65.358,27.372,64.241,29.608,47.482,8.379,67.034,8.379,26.254-10.615,37.427-12.291,26.256,0,36.869,3.912,24.02,8.379,35.193,11.731,30.723,5.586,41.337,7.262,29.607,3.91,44.13,3.352,31.841-2.234,45.248-6.7,21.226-7.262,17.317-21.228-11.731-16.757-17.317-31.84-9.488-26.648-10.051-27.849-74.858-6.229-74.858-6.229l-142.872,1.38-74.43-15.9Z" transform="translate(560.695 -842.131)" fill="#58ad5d" stroke="#000" stroke-miterlimit="10" stroke-width="0.25"/>
    </clipPath>
    <clipPath id="clip-path-2">
      <path id="Path_5355" data-name="Path 5355" d="M-311.7,808.93a115.312,115.312,0,0,1-3.91,19.55c-2.794,8.939-2.794,25.138,1.676,35.193,3.857,8.677,8.379,20.111,3.91,24.58s-6.7,2.792-12.289,4.468-13.407,10.615-31.841,10.055-27.93-8.379-42.455-7.261-41.269,4.669-44.375,4.848-11.486-5.406-20.983-6.524-14.523-1.676-22.9-2.794-16.759-3.91-22.9-5.028-27.372-9.5-31.281-20.11c0,0,1.676-7.819,0-13.407s-1.676-12.847,0-21.226,3.346-11.546,3.346-11.546l41.9-.185s60.329-6.7,60.889-5.585,83.416-3.286,83.416-3.286Z" transform="translate(540.315 -808.93)" fill="none"/>
    </clipPath>
  </defs>
  <g id="Group_1604" data-name="Group 1604" transform="translate(0.125 0.124)">
    <g id="Group_1593" data-name="Group 1593" transform="translate(0 173.351)">
      <path id="Path_5302" data-name="Path 5302" d="M-536.7,842.131a79.714,79.714,0,0,0-2.2,21.2c.56,10.615,2.236,20.668-5.028,29.608S-559.564,909.7-560.681,919.2s65.358,27.372,64.241,29.608,47.482,8.379,67.034,8.379,26.254-10.615,37.427-12.291,26.256,0,36.869,3.912,24.02,8.379,35.193,11.731,30.723,5.586,41.337,7.262,29.607,3.91,44.13,3.352,31.841-2.234,45.248-6.7,21.226-7.262,17.317-21.228-11.731-16.757-17.317-31.84-9.488-26.648-10.051-27.849-74.858-6.229-74.858-6.229l-142.872,1.38-74.43-15.9Z" transform="translate(560.695 -842.131)" fill="#1789a0"/>
      <g id="Group_1592" data-name="Group 1592" clip-path="url(#clip-path)">
        <path id="Path_5303" data-name="Path 5303" d="M-555.859,899.679s2.481-5.582,8.994-13.024,5.891-19.845,9.921-21.4.62,16.125-2.79,23.568-3.721,18.6-3.721,18.6Z" transform="translate(559.486 -814.424)" fill="#58ad5d" stroke="#000" stroke-miterlimit="10" stroke-width="0.25"/>
        <path id="Path_5304" data-name="Path 5304" d="M-540.658,849.783c0,.931-2.481,8.063,0,16.745a57.839,57.839,0,0,1,1.552,23.566c-.931,5.891-5.182,13.954-1.041,16.435s6.932-17.675,6.932-26.357-1.24-19.844,2.79-24.186Z" transform="translate(577.305 -835.358)" fill="#58ad5d" stroke="#000" stroke-miterlimit="10" stroke-width="0.25"/>
        <path id="Path_5305" data-name="Path 5305" d="M-521.692,854.249s-4.872,11.328-4.2,21.153,4.687,15.174-4.665,34.091-2.339,24.375-2.339,24.375h13.7a57.518,57.518,0,0,1,9.354-29.1c9.354-13.825-1.336-29.833,9.687-41.111l-7.347-.728a41.59,41.59,0,0,0-3.676,14.858c-.333,8.062-1,13.52-4.342,13.52s-4.452-4.835-4.192-15.69a122.321,122.321,0,0,1,1.927-19.131Z" transform="translate(579.402 -826.69)" fill="#58ad5d" stroke="#000" stroke-miterlimit="10" stroke-width="0.25"/>
        <path id="Path_5306" data-name="Path 5306" d="M-511.548,862.892s4.65,1.335,1.549,14.67-5.271,20.154-1.549,20.774,5.271-16.84,11.473-14.312c2.326.948,1.21,7.156,5.092,7.156,4.852,0,3.881-14.361,12.583-18.58C-479.046,870.973-511.548,862.892-511.548,862.892Z" transform="translate(602.459 -823.755)" fill="#58ad5d" stroke="#000" stroke-miterlimit="10" stroke-width="0.25"/>
        <path id="Path_5307" data-name="Path 5307" d="M-464.827,870.381s3.721,4.962,0,14.265-6.511,16.123-8.372,26.046-9.612,26.978-13.333,26.978l8.992,2.481a111.323,111.323,0,0,0,7.442-23.257c2.481-12.713,5.582-20.355,12.093-25.528s1.55-19.124,7.442-24.706Z" transform="translate(626.338 -820.42)" fill="#58ad5d" stroke="#000" stroke-miterlimit="10" stroke-width="0.25"/>
        <path id="Path_5308" data-name="Path 5308" d="M-455.171,869.837a34.156,34.156,0,0,1-3.1,19.746c-4.961,9.712-1.861,10.953-6.513,17.775s-10.232,15.84-10.232,15.84h7.442a102.633,102.633,0,0,1,13.954-14.291c9.3-8.063,10.543-9.922,13.644-17.364s10.853-14.485,11.162-15.614-6.82-.86-6.82-.86-8.063,8.832-9.614,14.514-6.82,13.122-10.542,12.038,1.559-8.528,3.88-15.039,4.8-12.4,4.8-16.745Z" transform="translate(636.529 -817.608)" fill="#58ad5d" stroke="#000" stroke-miterlimit="10" stroke-width="0.25"/>
        <path id="Path_5309" data-name="Path 5309" d="M-493.632,908.644c2.036-4.2,6.213-6.732,10.357-12.429s2.072-8.1,6.215-13.241,4.66-2.439,3.365,3.718-2.848,12.114-4.92,21.952,1.3,12.689-3.625,16.572-16.312,3.325-16.312,3.325S-497.775,917.19-493.632,908.644Z" transform="translate(615.699 -808.377)" fill="#58ad5d" stroke="#000" stroke-miterlimit="10" stroke-width="0.25"/>
        <path id="Path_5310" data-name="Path 5310" d="M-489.316,875.4a16.7,16.7,0,0,0-6.166,9.165c-1.342,5.851-4.709,13.878-1.861,13.62s4.4-8.6,6.213-13.62S-486.468,877.992-489.316,875.4Z" transform="translate(615.785 -812.681)" fill="#58ad5d" stroke="#000" stroke-miterlimit="10" stroke-width="0.25"/>
        <path id="Path_5311" data-name="Path 5311" d="M-436.035,874.442s4.4,3.625,2.848,12.17-8.027,11.394-8.545,21.75,2.922,11.91,4.44,8.8,3.216-10.357,4.437-15.535,5.623-16.832,9.248-22.269Z" transform="translate(665.944 -813.532)" fill="#58ad5d" stroke="#000" stroke-miterlimit="10" stroke-width="0.25"/>
        <path id="Path_5312" data-name="Path 5312" d="M-416,876.31c3.883.518,5.955,4.92,3.883,13.466s-2.59,14.758-3.883,25.115-1.3,10.875,1.035,12.17,6.213-11.91,6.992-25.376,9.062-17.349,10.1-26.929S-416,876.31-416,876.31Z" transform="translate(687.992 -816.696)" fill="#58ad5d" stroke="#000" stroke-miterlimit="10" stroke-width="0.25"/>
        <path id="Path_5313" data-name="Path 5313" d="M-427.265,917.444s1.555-6.817,4.144-11.3,2.59-7.857,6.732-10.964-.258,7.25-1.035,12.947-2.65,12.947-3.525,13.464S-427.265,917.444-427.265,917.444Z" transform="translate(678.796 -795.685)" fill="#58ad5d" stroke="#000" stroke-miterlimit="10" stroke-width="0.25"/>
        <path id="Path_5314" data-name="Path 5314" d="M-430.916,875.955s6.473,5.7,4.92,14.5,0,13.036,0,19.336,3.625,5.159,4.143,2.88.456-14.708,2.17-21.7,4.044-14.76,1.2-16.314S-430.916,875.955-430.916,875.955Z" transform="translate(675.564 -813.75)" fill="#58ad5d" stroke="#000" stroke-miterlimit="10" stroke-width="0.25"/>
        <path id="Path_5315" data-name="Path 5315" d="M-382.284,874.389s3.819,2.4,3.819,13.017-6.986,22.931-5.891,28.418c1.416,7.082,5.178,4.141,6.473-1.3s3.595-12.051,4.468-21.1c.537-5.552,3.725-9.948,5.889-13.854,4.828-8.711,1.555-12.683,1.555-12.683Z" transform="translate(716.672 -820.216)" fill="#58ad5d" stroke="#000" stroke-miterlimit="10" stroke-width="0.25"/>
        <path id="Path_5316" data-name="Path 5316" d="M-371.773,871.921s4.534.166,4.835,9.836,1.512,22.165,5.742,24.078-.907-4.846,2.115-7.359S-352.43,915-348.5,916.515s9.671,7.654,9.671,7.654-3.929-22.463-5.742-27.9-13-29.317-13-29.317l-7.857-5.742Z" transform="translate(727.912 -825.247)" fill="#58ad5d" stroke="#000" stroke-miterlimit="10" stroke-width="0.25"/>
        <path id="Path_5317" data-name="Path 5317" d="M-373.348,881.48c2.726-.611,4.447,4.62,6.647,13.424s6.027,5.333,9.327,13.173,3.269,15.177,4.387,20.312-4.387,3.927-5.488,4.9.368-10.672-.733-15.488-5.135-7.29-5.135,0,1.6,14.625,1.9,17.926-7.016,2.2-7.016,2.2,1.486-4.769,0-13.207,1.12-12.472,0-20.174S-376.817,882.258-373.348,881.48Z" transform="translate(725.598 -807.346)" fill="#58ad5d" stroke="#000" stroke-miterlimit="10" stroke-width="0.25"/>
        <path id="Path_5318" data-name="Path 5318" d="M-386.5,924.656a22.742,22.742,0,0,1,3.719-13.034c4.211-6.289,3.987-4.724,5.557-10.089s4.3-4.807,4.613-1.237-2.119,5.727-2.458,12.481.72,9.1-.649,10.406S-386.5,924.656-386.5,924.656Z" transform="translate(714.857 -793.07)" fill="#58ad5d" stroke="#000" stroke-miterlimit="10" stroke-width="0.25"/>
        <path id="Path_5319" data-name="Path 5319" d="M-400.658,873.833a35.491,35.491,0,0,0,0,10.3c.83,5.683,2.907-4.023,6.021,0s.607,10.692,5.4,10.875c3.476.134.2-10.63,7.08-14.135a13.379,13.379,0,0,0,7.037-10.008Z" transform="translate(702.018 -816.696)" fill="#58ad5d" stroke="#000" stroke-miterlimit="10" stroke-width="0.25"/>
        <path id="Path_5320" data-name="Path 5320" d="M-403.213,925.412s9.987-10.8,11.279-20.774c.618-4.768,6.283-8.653,5.08-.992s-8.349,15.2-7.7,24.5S-403.213,925.412-403.213,925.412Z" transform="translate(700.084 -791.52)" fill="#58ad5d" stroke="#000" stroke-miterlimit="10" stroke-width="0.25"/>
        <path id="Path_5321" data-name="Path 5321" d="M-432.537,873.885c2.034,1.668-2.524,8.349-3.16,14.749s2.2,5.186,1.016,12-7.5,27.064-14.119,39.008l-8.375-2.089s9.4-23.04,11.759-32.05-.089-6.051,3.355-15.884S-434.721,872.1-432.537,873.885Z" transform="translate(652.321 -814.255)" fill="#58ad5d" stroke="#000" stroke-miterlimit="10" stroke-width="0.25"/>
      </g>
      <path id="Path_5323" data-name="Path 5323" d="M-536.7,842.131a79.714,79.714,0,0,0-2.2,21.2c.56,10.615,2.236,20.668-5.028,29.608S-559.564,909.7-560.681,919.2s65.358,27.372,64.241,29.608,47.482,8.379,67.034,8.379,26.254-10.615,37.427-12.291,26.256,0,36.869,3.912,24.02,8.379,35.193,11.731,30.723,5.586,41.337,7.262,29.607,3.91,44.13,3.352,31.841-2.234,45.248-6.7,21.226-7.262,17.317-21.228-11.731-16.757-17.317-31.84-9.488-26.648-10.051-27.849-74.858-6.229-74.858-6.229l-142.872,1.38-74.43-15.9Z" transform="translate(560.695 -842.131)" fill="none" stroke="#000" stroke-miterlimit="10" stroke-width="0.25"/>
    </g>
    <path id="Path_5324" data-name="Path 5324" d="M-529.5,837.712s-12.755-.982-16.757,3.91c-5.028,6.145.558,19.552,22.9,31.283s25.7,10.613,42.455,14.523,21.228,9.5,33.517,12.289,27.372,1.676,38.545,0,16.2-2.792,32.957,2.794,38.545,13.965,62.007,10.055,18.434-7.261,31.281-7.261,30.165,1.116,42.456-1.676,19.55-3.352,27.93-11.731-16.759-16.759-27.372-18.993-40.779-13.407-68.15-11.173-87.7-5.586-87.145-5.586-78.206-7.263-78.206-7.263Z" transform="translate(571.964 -672.763)" fill="#ffe6c7" stroke="#000" stroke-miterlimit="10" stroke-width="0.25"/>
    <path id="Path_5325" data-name="Path 5325" d="M-413.823,834.629s1,40.064,27.374,47.778,39.318-27.621,39.318-27.621l-3.484-1.99s-5.408,12.636-15.925,18.165c0,0,10.451-16.921,13.188-30.36l-4.479-1.991s-6.191,22-15.925,31.853c0,0,8.76-20.889,9.7-38.82h-4.479s-2.973,25.451-11.946,37.576c0,0-1.493-30.857,1.991-41.059h-5.226s-3.472,13.622-2.336,41.779c0,0-9.412-18.755-9.833-40.6l-5,.317s-.3,16.661,8.46,41.308c0,0-12.962-4.575-17.418-36.829Z" transform="translate(690.693 -681.147)" fill="#d6cd25" stroke="#000" stroke-miterlimit="10" stroke-width="0.25"/>
    <ellipse id="Ellipse_947" data-name="Ellipse 947" cx="14.554" cy="6.19" rx="14.554" ry="6.19" transform="translate(247.762 216.01)" fill="#fff" stroke="#000" stroke-miterlimit="10" stroke-width="0.25"/>
    <ellipse id="Ellipse_948" data-name="Ellipse 948" cx="3.095" cy="5.671" rx="3.095" ry="5.671" transform="translate(289.411 217.741) rotate(-85.27)" fill="#fff" stroke="#000" stroke-miterlimit="10" stroke-width="0.25"/>
    <path id="Path_5326" data-name="Path 5326" d="M-389.219,865.471c-1.163.3-6.6,1.959-5.435,5.706,1.222,3.921,13.724.989,22.337,1.923s12.1-.586,10.813-3.572S-378.649,862.734-389.219,865.471Z" transform="translate(707.516 -648.955)" fill="#fff" stroke="#000" stroke-miterlimit="10" stroke-width="0.25"/>
    <path id="Path_5327" data-name="Path 5327" d="M-369.778,893.071s-.888,10.47-8.526,14.97-7.98,1.442-13.92,3.565-5.857,4.5-12.393,4.159-5.942-5.518-5.687-9.506a38.484,38.484,0,0,0-1.05-9.369l24.307-6.419Z" transform="translate(692.878 -625.995)" fill="#1789a0" stroke="#000" stroke-miterlimit="10" stroke-width="0.25"/>
    <path id="Path_5328" data-name="Path 5328" d="M-377.241,885.22a20.444,20.444,0,0,0,0,7.953c.692,4.192-1.476,6.534-.558,8.915.558,1.444,3.816,2.841,7.039-1.323s5.642-4.756,7.927-6.208,4.705-1.883,5.173-7.981l-10.278.418Z" transform="translate(722.374 -630.642)" fill="#1789a0" stroke="#000" stroke-miterlimit="10" stroke-width="0.25"/>
    <path id="Path_5329" data-name="Path 5329" d="M-411.4,898.1c.047,2.168,1.565,3.879,7.806,3.787,8.055-.119,6.068-2.588,13.414-1.868s16.431.835,19.3-2.609,1.146-9.067-10.217-9.182-17.637,1.827-22.039,3.444C-409.321,893.943-411.436,896.531-411.4,898.1Z" transform="translate(692.836 -627.983)" fill="#fee3c0" stroke="#000" stroke-miterlimit="10" stroke-width="0.25"/>
    <path id="Path_5330" data-name="Path 5330" d="M-377.611,885.892c.056-2.219,4.681-1.225,9.248-1.114s10.14-.111,10.364,1.783-2.006,3.231-6.017,3.454-6.242-1.448-9.137-1.782S-377.645,887.253-377.611,885.892Z" transform="translate(722.744 -631.314)" fill="#fee3c0" stroke="#000" stroke-miterlimit="10" stroke-width="0.25"/>
    <path id="Path_5331" data-name="Path 5331" d="M-390.177,883.515s-.927-8.447,10.2-7.52C-379.979,876-381.628,886.5-390.177,883.515Z" transform="translate(711.605 -638.87)" fill="#d6cd25" stroke="#000" stroke-miterlimit="10" stroke-width="0.284"/>
    <path id="Path_5332" data-name="Path 5332" d="M-387.486,886.353s1.844-4.941,8.738-2.044A6.2,6.2,0,0,1-387.486,886.353Z" transform="translate(714.004 -632.255)" fill="#d6cd25" stroke="#000" stroke-miterlimit="10" stroke-width="0.284"/>
    <path id="Path_5333" data-name="Path 5333" d="M-383.439,879.951s-10.858,4.813-14.37,21.547" transform="translate(704.867 -635.306)" fill="none" stroke="#000" stroke-miterlimit="10" stroke-width="0.25"/>
    <path id="Path_5334" data-name="Path 5334" d="M-382.342,884.965s-7.35,1.924-10.955,12.095" transform="translate(708.861 -630.868)" fill="none" stroke="#000" stroke-miterlimit="10" stroke-width="0.25"/>
    <path id="Path_5335" data-name="Path 5335" d="M-311.7,808.93a115.312,115.312,0,0,1-3.91,19.55c-2.794,8.939-2.794,25.138,1.676,35.193,3.857,8.677,8.379,20.111,3.91,24.58s-6.7,2.792-12.289,4.468-13.407,10.615-31.841,10.055-27.93-8.379-42.455-7.261-41.269,4.669-44.375,4.848-11.486-5.406-20.983-6.524-14.523-1.676-22.9-2.794-16.759-3.91-22.9-5.028-27.372-9.5-31.281-20.11c0,0,1.676-7.819,0-13.407s-1.676-12.847,0-21.226,3.346-11.546,3.346-11.546l41.9-.185s60.329-6.7,60.889-5.585,83.416-3.286,83.416-3.286Z" transform="translate(578.734 -698.167)" fill="#1789a0" stroke="#000" stroke-miterlimit="10" stroke-width="0.25"/>
    <path id="Path_5336" data-name="Path 5336" d="M-474.463,820.775a119.975,119.975,0,0,1-.633,16c-2.7,19.567,3.276,29.764.505,42.52s-9.292,18.141-9.292,18.141" transform="translate(628.682 -687.682)" fill="none" stroke="#000" stroke-miterlimit="10" stroke-width="0.25"/>
    <g id="Group_1596" data-name="Group 1596" transform="translate(38.42 110.763)">
      <g id="Group_1595" data-name="Group 1595" clip-path="url(#clip-path-2)">
        <path id="Path_5337" data-name="Path 5337" d="M-389.175,809.143l-1.112-.436-22.193-2.026-13.677,5.21c.65,1.629,2.762,1.889,2.111,11.333S-426,843.4-423.312,843.4c3.542,0,1.714-10.666,4.319-15.876s4.886,0,2.931,7.165c-1.895,6.947.99,10.27,2.447,17.681,1.885-3.663-3.075-4.82.13-9.15C-399.735,824.636-396.827,824.124-389.175,809.143Z" transform="translate(641.357 -810.92)" fill="#58ad5d" stroke="#000" stroke-miterlimit="10" stroke-width="0.25"/>
        <g id="Group_1594" data-name="Group 1594" transform="translate(-4.797 -53.173)">
          <path id="Path_5338" data-name="Path 5338" d="M-469.336,897.6a88.73,88.73,0,0,0,0-22.06c-1.3-11.678,3.569-26.925,2.27-36.333s-2.1-13.579.223-16.715,3.751,2.281,4.177,10.123,10.366,28.951,10.366,49.022v20.069Z" transform="translate(607.739 -744.552)" fill="#58ad5d" stroke="#000" stroke-miterlimit="10" stroke-width="0.25"/>
          <path id="Path_5339" data-name="Path 5339" d="M-503.706,871.581s2.509-6.969,0-22.857,4.739-16.724,4.739-12.543,3.344,7.612,2.507,16.628,1.685,19.888,1.685,19.888Z" transform="translate(577.047 -733.534)" fill="#58ad5d" stroke="#000" stroke-miterlimit="10" stroke-width="0.25"/>
          <path id="Path_5340" data-name="Path 5340" d="M-476.695,811.83a17.218,17.218,0,0,1,3.346,10.04c0,5.933,1.371,11.258,1.521,15.973s2.283,6.085,3.5,3.651.914-7.454,0-12.777-1.369-14.453-.3-16.887Z" transform="translate(601.422 -753.19)" fill="#58ad5d" stroke="#000" stroke-miterlimit="10" stroke-width="0.25"/>
          <path id="Path_5341" data-name="Path 5341" d="M-446.189,824.272c2.711.988.415,9.555,2.077,16.41s4.155,4.571,5.4,12.05,2.049,30.731-.473,45.493l-9.426.874s1.382-27.257.551-37.436-2.285-6.232-2.285-17.658S-449.1,823.211-446.189,824.272Z" transform="translate(624.746 -742.25)" fill="#58ad5d" stroke="#000" stroke-miterlimit="10" stroke-width="0.25"/>
          <path id="Path_5342" data-name="Path 5342" d="M-441.155,804.836s2.962,7.018,2.837,18.5c-.234,21.843,2.758,43.508.13,51.135-.794,2.3,10.419,2.062,9.731,0s-1.376-25.224-2.522-37.148-3.193-12.383-3.193-22.7a43.505,43.505,0,0,1,.777-8.67Z" transform="translate(632.879 -759.38)" fill="#58ad5d" stroke="#000" stroke-miterlimit="10" stroke-width="0.25"/>
          <path id="Path_5343" data-name="Path 5343" d="M-434.308,812.31s3.235.907,3.623,5.823-1.222,14.487,1.035,15.528c2.406,1.11,2.69-10.074,4.27-15.139.841-2.692,2.232-3.256,2.232-3.256Z" transform="translate(638.939 -752.765)" fill="#58ad5d" stroke="#000" stroke-miterlimit="10" stroke-width="0.25"/>
          <path id="Path_5344" data-name="Path 5344" d="M-541.519,815.007a6.84,6.84,0,0,0,3.657,5.928c5.614,3.352,4.17,6.417,5.39,9.48s3.819,2.856,3.2-.019c-1.757-8.2.9-12.227-.744-12.218C-532.287,818.193-541.519,815.007-541.519,815.007Z" transform="translate(544.044 -750.378)" fill="#58ad5d" stroke="#000" stroke-miterlimit="10" stroke-width="0.25"/>
          <path id="Path_5345" data-name="Path 5345" d="M-513.291,825.127a33.021,33.021,0,0,1,.941,9.292c-.268,4.835,1.879,7.521,3.627,13.3s.4,9,2.283,12.758,3.761,4.432,4.162-2.149-1.612-11.818-1.208-15.309-.8-10.879.4-14.64Z" transform="translate(569.031 -741.421)" fill="#58ad5d" stroke="#000" stroke-miterlimit="10" stroke-width="0.25"/>
          <path id="Path_5346" data-name="Path 5346" d="M-534.679,780.723c2.694.034,3.776,9.4,4.973,20.016,2.83,25.083,7.707,40.141,7.22,45.832-.162,1.9,4.362,37.58,0,40.415-1.827,1.186-2.283-10.7-2.283-21.319,0-10.5-3.751-22.766-4.064-25.781-1.661-16.05-3.1-15.294-3.83-22.815s-1.51-17.978-2.358-23.8S-536.311,780.7-534.679,780.723Z" transform="translate(549.124 -780.723)" fill="#58ad5d" stroke="#000" stroke-miterlimit="10" stroke-width="0.25"/>
          <path id="Path_5347" data-name="Path 5347" d="M-431.329,835.251a127.655,127.655,0,0,1,3.851,19.262c1.2,10.355,6.5,9.872,12.521,17.818s5.78,35.636,5.3,42.86c0,0,6.984.722,6.984,0s1.2-26-3.853-36.841-6.019-30.337-6.982-36.117l-5.316-2.44a30.988,30.988,0,0,0,.927,10.666c1.7,6.807,2.366,10.413.96,10.973-2.3.912-5.751-5.874-6.679-12.674a90.352,90.352,0,0,0-3.09-13.509Z" transform="translate(641.576 -732.46)" fill="#58ad5d" stroke="#000" stroke-miterlimit="10" stroke-width="0.25"/>
          <path id="Path_5348" data-name="Path 5348" d="M-542.747,826.286s-1.1,6,3.559,24.818a114.238,114.238,0,0,1,2.777,29.558,108.311,108.311,0,0,0,.78,19.914s9.58,2.692,9.855-1.8.547-15.169,0-26.665-2.464-29.289-2.19-34.763a60.545,60.545,0,0,0-.032-6.683,2.272,2.272,0,0,0-2.743-2.087h0a2.257,2.257,0,0,0-1.738,1.714c-.46,2.079-.988,6.424.328,13,1.915,9.58,2.541,19.4.626,19.286-3.2-.185-2.458-12.445-5.2-19.756a42.2,42.2,0,0,1-2.677-12.47Z" transform="translate(542.859 -740.395)" fill="#58ad5d" stroke="#000" stroke-miterlimit="10" stroke-width="0.25"/>
          <path id="Path_5349" data-name="Path 5349" d="M-522.895,818.779c2.362-1.508,3.335,4.952,3.9,16.353.577,11.5,5.514,24.753,6.665,36.458s4.994,26.1,4.417,34.156c0,0-7.1,5.757-6.72,3.838s.575-5.948-1.44-12.856-4.315-14.968-3.356-19.573-3.584-20.723-4.862-27.44S-525.393,820.372-522.895,818.779Z" transform="translate(558.606 -747.23)" fill="#58ad5d" stroke="#000" stroke-miterlimit="10" stroke-width="0.25"/>
          <path id="Path_5350" data-name="Path 5350" d="M-461.949,872.268s5.069,12.312,5.58,16.655,3.12,13.752,6.014,15.188c5.222,2.592-4.507-25.4-3.229-32.556Z" transform="translate(614.474 -700.327)" fill="#58ad5d" stroke="#000" stroke-miterlimit="10" stroke-width="0.25"/>
          <path id="Path_5351" data-name="Path 5351" d="M-493.195,812.206s2.177,4.309,1.574,15.612c-.709,13.3,2.673,20.242-.4,26.968-1.523,3.34-1.582,7.011-3.981,5.945-2.124-.942-.013-12.112.271-18.4.537-11.874-2.426-13.282-2.618-28.891Z" transform="translate(582.26 -752.857)" fill="#58ad5d" stroke="#000" stroke-miterlimit="10" stroke-width="0.25"/>
          <path id="Path_5352" data-name="Path 5352" d="M-517.255,830.842c1.258.464,2.6,8.99,3.4,14.186s1.6,13.175,0,13.188c-1.542.015-3.035-6.811-2.771-11.9C-516.365,841.248-519.092,830.163-517.255,830.842Z" transform="translate(564.955 -736.389)" fill="#58ad5d" stroke="#000" stroke-miterlimit="10" stroke-width="0.25"/>
          <path id="Path_5353" data-name="Path 5353" d="M-489.8,812.31c2.694.034,3.776,9.4,4.975,20.016,2.83,25.083,7.7,40.141,7.218,45.832-.162,1.9,4.362,37.58,0,40.415-1.825,1.186-2.283-10.7-2.283-21.319,0-10.5-3.751-22.766-4.062-25.781-1.663-16.05-3.1-15.294-3.832-22.815s-1.51-17.978-2.358-23.8S-491.431,812.291-489.8,812.31Z" transform="translate(588.848 -752.765)" fill="#58ad5d" stroke="#000" stroke-miterlimit="10" stroke-width="0.25"/>
        </g>
        <path id="Path_5354" data-name="Path 5354" d="M-456.547,868.5c-1.4-.926.256-8.13-.29-14.008s-1.994-4.013-2.287-10.406.443-26.175,2.534-38.637l5.09-.447s-2.106,23.115-2.172,31.79.91,5.367.337,15.073S-455.045,869.5-456.547,868.5Z" transform="translate(612.123 -812.405)" fill="#58ad5d" stroke="#000" stroke-miterlimit="10" stroke-width="0.25"/>
      </g>
    </g>
    <path id="Path_5356" data-name="Path 5356" d="M-311.7,808.93a115.312,115.312,0,0,1-3.91,19.55c-2.794,8.939-2.794,25.138,1.676,35.193,3.857,8.677,8.379,20.111,3.91,24.58s-6.7,2.792-12.289,4.468-13.407,10.615-31.841,10.055-27.93-8.379-42.455-7.261-41.269,4.669-44.375,4.848-11.486-5.406-20.983-6.524-14.523-1.676-22.9-2.794-16.759-3.91-22.9-5.028-27.372-9.5-31.281-20.11c0,0,1.676-7.819,0-13.407s-1.676-12.847,0-21.226,3.346-11.546,3.346-11.546" transform="translate(578.734 -698.167)" fill="none" stroke="#000" stroke-miterlimit="10" stroke-width="0.25"/>
    <path id="Path_5357" data-name="Path 5357" d="M-469.388,802.114s-26.814,1.676-41.336,7.261-33.518,15.083-25.7,22.9,12.291,5.028,20.11,7.821,10.615,7.819,25.138,8.937,29.048-.558,41.9-1.676,18.434-1.118,21.786-6.145-.56-8.379-8.937-8.379-10.055-2.234-8.939-5.586,12.849-.558,20.668.558,26.256,5.587,41.9,4.47,25.7-3.91,37.987-5.586,28.516-3.437,31.281-11.731c2.794-8.379-19.132-10.216-19.132-10.216L-450.4,802.114Z" transform="translate(580.567 -704.199)" fill="#ffe6c7" stroke="#000" stroke-miterlimit="10" stroke-width="0.25"/>
    <path id="Path_5358" data-name="Path 5358" d="M-503.6,808.992s-1.676,6.145,1.676,9.5,18.993,5.027,26.814,2.792,20.668-1.116,29.048-1.116,20.11,3.91,35.751,3.352,19.55-3.352,31.841-3.352,22.344-.56,25.138-3.911-3.44-11.722-3.955-17.034l-69.225-.841s-53.626-.56-54.186,0S-503.6,808.992-503.6,808.992Z" transform="translate(610.864 -707.726)" fill="#1789a0" stroke="#000" stroke-miterlimit="10" stroke-width="0.25"/>
    <path id="Path_5359" data-name="Path 5359" d="M-502.123,815.321c-2.372,3.665-3.912,9.5,7.819,10.615,9.6.914,16.2,1.676,30.725-2.236,10.472-2.818,21.226-2.792,35.751-1.116s21.226,0,32.957-1.676,12.289,1.116,24.58-1.118,14.523-7.822,11.731-12.289-13.967-5.586-32.959-3.91-24.02,3.35-24.02-5.028-2.234-11.173-7.821-12.291-12.847.56-25.7,3.911-21.786-1.118-32.957,3.352S-495.979,805.826-502.123,815.321Z" transform="translate(611.068 -718.525)" fill="#ffe6c7" stroke="#000" stroke-miterlimit="10" stroke-width="0.25"/>
    <path id="Path_5360" data-name="Path 5360" d="M-453.776,835.916s.728,8.036-.026,12.2c-1.1,6.087,2.686,9.784,8.374,12.05,6.391,2.547,10.234-4.11,18.979-4.854s15.147,1.489,23.109-1.674,11.874-2.087,16.059-10.9S-453.776,835.916-453.776,835.916Z" transform="translate(655.138 -674.454)" fill="#1789a0" stroke="#000" stroke-miterlimit="10" stroke-width="0.25"/>
    <path id="Path_5361" data-name="Path 5361" d="M-452.193,836.3c-1.691,1.953-3.625,7.245,2.818,9.934,8.558,3.572,23.9,2.686,32.086,3.088s11.64,4.089,24.335,1.612c9.629-1.88,8.017-12.792-1.781-16.514-8.934-3.391-16.244,0-22.286-2.684S-446.1,829.269-452.193,836.3Z" transform="translate(655.271 -679.388)" fill="#ffe6c7" stroke="#000" stroke-miterlimit="10" stroke-width="0.25"/>
    <g id="Group_1601" data-name="Group 1601" transform="translate(102.741 140.782)">
      <g id="Group_1597" data-name="Group 1597" transform="translate(0 35.57)">
        <path id="Path_5362" data-name="Path 5362" d="M-506.194,843.723s5.133,33.429,45.98,33.125C-460.214,876.848-474.924,845.764-506.194,843.723Z" transform="translate(506.194 -843.723)" fill="#d6cd25" stroke="#000" stroke-miterlimit="10" stroke-width="0.284"/>
        <path id="Path_5363" data-name="Path 5363" d="M-506.194,843.723c8.277,10.193,30.373,30.408,45.98,33.125" transform="translate(506.194 -843.723)" fill="#d6cd25" stroke="#000" stroke-miterlimit="10" stroke-width="0.284"/>
      </g>
      <g id="Group_1598" data-name="Group 1598" transform="translate(25.001)">
        <path id="Path_5364" data-name="Path 5364" d="M-491.158,824.854s-10.355,56.936,18.979,68.356C-472.179,893.21-460.987,857.368-491.158,824.854Z" transform="translate(492.932 -824.854)" fill="#d6cd25" stroke="#000" stroke-linecap="round" stroke-linejoin="round" stroke-width="0.25"/>
        <path id="Path_5365" data-name="Path 5365" d="M-491.991,824.854s11.593,34.171,18.979,68.356" transform="translate(493.764 -824.854)" fill="#d6cd25" stroke="#000" stroke-miterlimit="10" stroke-width="0.284"/>
      </g>
      <g id="Group_1599" data-name="Group 1599" transform="translate(45.944 37.825)">
        <path id="Path_5366" data-name="Path 5366" d="M-441.247,844.919s-25.673,4.085-40.575,30.85C-481.822,875.769-453.221,879.609-441.247,844.919Z" transform="translate(481.822 -844.919)" fill="#d6cd25" stroke="#000" stroke-linecap="round" stroke-linejoin="round" stroke-width="0.25"/>
        <path id="Path_5367" data-name="Path 5367" d="M-481.822,875.769a99.3,99.3,0,0,0,40.575-30.85" transform="translate(481.822 -844.919)" fill="#d6cd25" stroke="#000" stroke-linecap="round" stroke-linejoin="round" stroke-width="0.25"/>
      </g>
      <g id="Group_1600" data-name="Group 1600" transform="translate(45.568 2.705)">
        <path id="Path_5368" data-name="Path 5368" d="M-481.116,891.991c-5.725-40.684,17.565-65.7,17.565-65.7S-453.1,876.3-481.116,891.991Z" transform="translate(482.021 -826.289)" fill="#d6cd25" stroke="#000" stroke-miterlimit="10" stroke-width="0.284"/>
        <path id="Path_5369" data-name="Path 5369" d="M-463.975,826.289s-4.325,44.967-17.566,65.7" transform="translate(482.447 -826.289)" fill="#d6cd25" stroke="#000" stroke-miterlimit="10" stroke-width="0.284"/>
      </g>
    </g>
    <ellipse id="Ellipse_949" data-name="Ellipse 949" cx="7.935" cy="2.701" rx="7.935" ry="2.701" transform="translate(223.776 158.753)" fill="#fff" stroke="#000" stroke-miterlimit="10" stroke-width="0.25"/>
    <path id="Path_5370" data-name="Path 5370" d="M-441.79,800.68c-.992.943-.892,2.085.939,2.764,2.319.859,12.255,3.212,15.669-1.41,2.8-3.786-6.179-4.4-10.031-3.917C-438.429,798.516-440.424,799.383-441.79,800.68Z" transform="translate(665.385 -707.863)" fill="#fff" stroke="#000" stroke-miterlimit="10" stroke-width="0.25"/>
    <ellipse id="Ellipse_950" data-name="Ellipse 950" cx="8.082" cy="3.798" rx="8.082" ry="3.798" transform="translate(93.169 132.12)" fill="#fff" stroke="#000" stroke-miterlimit="10" stroke-width="0.25"/>
    <ellipse id="Ellipse_951" data-name="Ellipse 951" cx="3.877" cy="2.062" rx="3.877" ry="2.062" transform="translate(117.453 131.029)" fill="#fff" stroke="#000" stroke-miterlimit="10" stroke-width="0.25"/>
    <path id="Path_5371" data-name="Path 5371" d="M-429.011,835.727c1.3-2.142,5.373-1.014,6.59,1.519s-.362,3.917-2.288,3.917S-431.038,839.071-429.011,835.727Z" transform="translate(676.788 -675.447)" fill="#fff" stroke="#000" stroke-miterlimit="10" stroke-width="0.25"/>
    <g id="Group_1602" data-name="Group 1602" transform="translate(37.671 44.685)">
      <path id="Path_5372" data-name="Path 5372" d="M-540.712,801.1s.175,11.2,9.424,9.959C-531.288,811.064-529.15,801.816-540.712,801.1Z" transform="translate(540.712 -749.777)" fill="#d6cd25" stroke="#000" stroke-miterlimit="10" stroke-width="0.25"/>
      <path id="Path_5373" data-name="Path 5373" d="M-535.713,806.388s6.225,7.825,7.469,21.341" transform="translate(545.136 -745.101)" fill="none" stroke="#000" stroke-miterlimit="10" stroke-width="0.25"/>
      <path id="Path_5374" data-name="Path 5374" d="M-535.426,784.006s-3.408,11.7,5.869,14.272C-529.557,798.278-525.478,789.633-535.426,784.006Z" transform="translate(544.849 -764.912)" fill="#d6cd25" stroke="#000" stroke-miterlimit="10" stroke-width="0.25"/>
      <path id="Path_5375" data-name="Path 5375" d="M-532.6,791.577s14.227,25.253,13.339,45.171" transform="translate(547.892 -758.211)" fill="none" stroke="#000" stroke-miterlimit="10" stroke-width="0.25"/>
      <path id="Path_5376" data-name="Path 5376" d="M-537.492,794.766s-.888,10.172,7.114,10.172C-530.378,804.938-528.067,798.289-537.492,794.766Z" transform="translate(543.536 -755.388)" fill="#d6cd25" stroke="#000" stroke-miterlimit="10" stroke-width="0.25"/>
      <path id="Path_5377" data-name="Path 5377" d="M-533.732,800.162s4.045,8.623,12.426,8.491" transform="translate(546.89 -750.612)" fill="none" stroke="#000" stroke-miterlimit="10" stroke-width="0.25"/>
      <path id="Path_5378" data-name="Path 5378" d="M-523.909,773.877s-6.445,10.474,1.127,14.5C-522.782,788.377-517.3,782.577-523.909,773.877Z" transform="translate(553.32 -773.877)" fill="#d6cd25" stroke="#000" stroke-miterlimit="10" stroke-width="0.25"/>
      <path id="Path_5379" data-name="Path 5379" d="M-524.512,781.569c0,1.934,5.478,15.769,5.64,64.037" transform="translate(555.051 -767.069)" fill="none" stroke="#000" stroke-miterlimit="10" stroke-width="0.25"/>
    </g>
    <path id="Path_5380" data-name="Path 5380" d="M-510.751,780.395s-7.248,7.44-1.527,13.162C-512.278,793.557-505.411,789.551-510.751,780.395Z" transform="translate(601.603 -723.423)" fill="#d6cd25" stroke="#000" stroke-miterlimit="10" stroke-width="0.25"/>
    <path id="Path_5381" data-name="Path 5381" d="M-510.417,787.377s-6.866,28.2-6.1,54.729" transform="translate(599.742 -717.243)" fill="none" stroke="#000" stroke-miterlimit="10" stroke-width="0.25"/>
    <path id="Path_5382" data-name="Path 5382" d="M-504.507,788.54s-7.861,2.43-5.356,8.979C-509.862,797.519-503.987,798.02-504.507,788.54Z" transform="translate(605.252 -716.214)" fill="#d6cd25" stroke="#000" stroke-miterlimit="10" stroke-width="0.25"/>
    <path id="Path_5383" data-name="Path 5383" d="M-505.565,793.3s-2.943,7-9.646,7.844" transform="translate(600.954 -711.998)" fill="none" stroke="#000" stroke-miterlimit="10" stroke-width="0.25"/>
    <path id="Path_5384" data-name="Path 5384" d="M-493.276,792.77s-11.927,3.9-7.441,12.291C-500.716,805.061-492.548,806.075-493.276,792.77Z" transform="translate(612.89 -712.47)" fill="#d6cd25" stroke="#000" stroke-miterlimit="10" stroke-width="0.25"/>
    <path id="Path_5385" data-name="Path 5385" d="M-491.807,799.29s-14.357,12.155-19.984,29.519" transform="translate(603.981 -706.699)" fill="none" stroke="#000" stroke-miterlimit="10" stroke-width="0.25"/>
    <g id="Group_1603" data-name="Group 1603" transform="translate(144.553)">
      <path id="Path_5386" data-name="Path 5386" d="M-452.9,750.173s-12.572,8.638-11.684,18.248C-464.586,768.421-456.222,763.961-452.9,750.173Z" transform="translate(501.17 -750.173)" fill="#58ad5d" stroke="#000" stroke-linecap="round" stroke-linejoin="round" stroke-width="0.25"/>
      <path id="Path_5387" data-name="Path 5387" d="M-468.593,755.781s-5.893,11.942-4.231,23.1a18.235,18.235,0,0,0,4.452,9.656S-463.8,779.678-468.593,755.781Z" transform="translate(493.627 -745.209)" fill="#58ad5d" stroke="#000" stroke-linecap="round" stroke-linejoin="round" stroke-width="0.25"/>
      <path id="Path_5388" data-name="Path 5388" d="M-484.014,780.07s7.431,10.346,22.041,6.664C-461.973,786.734-470.66,775.965-484.014,780.07Z" transform="translate(484.014 -724.537)" fill="#58ad5d" stroke="#000" stroke-linecap="round" stroke-linejoin="round" stroke-width="0.25"/>
      <path id="Path_5389" data-name="Path 5389" d="M-476,769.069s-1.169,9.895,6.534,14.662A18.585,18.585,0,0,0-476,769.069Z" transform="translate(491.049 -733.448)" fill="#58ad5d" stroke="#000" stroke-linecap="round" stroke-linejoin="round" stroke-width="0.25"/>
      <path id="Path_5390" data-name="Path 5390" d="M-456.739,769.9s-12.706,6.717-12.553,16.614C-469.292,786.517-460.129,783.613-456.739,769.9Z" transform="translate(497.043 -732.709)" fill="#58ad5d" stroke="#000" stroke-linecap="round" stroke-linejoin="round" stroke-width="0.25"/>
      <path id="Path_5391" data-name="Path 5391" d="M-447.888,750.173l-11.684,18.248c-4.666,6.176-16.77,39.18-7.041,66.352" transform="translate(496.157 -750.173)" fill="none" stroke="#000" stroke-miterlimit="10" stroke-width="0.25"/>
    </g>
    <path id="Path_5392" data-name="Path 5392" d="M-470.288,755.781s-2.277,22.286.221,32.761a10.244,10.244,0,0,0,1.7,4.347" transform="translate(639.875 -745.209)" fill="none" stroke="#000" stroke-miterlimit="10" stroke-width="0.25"/>
    <path id="Path_5393" data-name="Path 5393" d="M-476.032,769.069a145.586,145.586,0,0,1,6.534,14.662s.247,2.533,4.434,6.3" transform="translate(635.631 -733.448)" fill="none" stroke="#000" stroke-miterlimit="10" stroke-width="0.25"/>
    <path id="Path_5394" data-name="Path 5394" d="M-484.014,779.632c8.46,1.719,16.044,3.5,22.041,6.664l3.857,2.012" transform="translate(628.567 -724.098)" fill="none" stroke="#000" stroke-miterlimit="10" stroke-width="0.25"/>
    <path id="Path_5395" data-name="Path 5395" d="M-470.171,788.059l1.655-1.542A90.752,90.752,0,0,1-455.963,769.9" transform="translate(640.819 -732.709)" fill="#45805c" stroke="#000" stroke-miterlimit="10" stroke-width="0.25"/>
    <path id="Path_5396" data-name="Path 5396" d="M-433.617,816.969s6.66-32.349,26.324-43.131" transform="translate(673.173 -729.227)" fill="none" stroke="#000" stroke-miterlimit="10" stroke-width="0.25"/>
    <path id="Path_5397" data-name="Path 5397" d="M-409.236,784.869s-14.943-2.349-20.664,7.959C-429.9,792.828-420.937,797.345-409.236,784.869Z" transform="translate(676.462 -719.667)" fill="#58ad5d" stroke="#000" stroke-miterlimit="10" stroke-width="0.284"/>
    <path id="Path_5398" data-name="Path 5398" d="M-425.919,771.857s-2.822,6.583.722,9.629C-425.2,781.486-422.16,778.664-425.919,771.857Z" transform="translate(679.044 -730.98)" fill="#58ad5d" stroke="#000" stroke-miterlimit="10" stroke-width="0.284"/>
    <path id="Path_5399" data-name="Path 5399" d="M-419.653,776.093s2.266-5.855,11.069-4.63A11.238,11.238,0,0,1-419.653,776.093Z" transform="translate(685.533 -731.478)" fill="#58ad5d" stroke="#000" stroke-miterlimit="10" stroke-width="0.284"/>
    <path id="Path_5400" data-name="Path 5400" d="M-426.419,771.857a31.588,31.588,0,0,1,.722,9.629l.731,3.958" transform="translate(679.544 -730.98)" fill="none" stroke="#000" stroke-miterlimit="10" stroke-width="0.25"/>
    <path id="Path_5401" data-name="Path 5401" d="M-408.584,771.384s-6.547.754-11.069,4.63" transform="translate(685.533 -731.399)" fill="none" stroke="#000" stroke-miterlimit="10" stroke-width="0.25"/>
    <path id="Path_5402" data-name="Path 5402" d="M-407.57,784.761s-12.572,1.614-20.664,7.959c-2.066,1.621-3.55,2.909-3.55,2.909" transform="translate(674.796 -719.559)" fill="none" stroke="#000" stroke-miterlimit="10" stroke-width="0.25"/>
    <path id="Path_5403" data-name="Path 5403" d="M-491.2,783.843s6.992,12.21,3.663,32.022" transform="translate(622.205 -720.371)" fill="none" stroke="#000" stroke-miterlimit="10" stroke-width="0.25"/>
    <path id="Path_5404" data-name="Path 5404" d="M-498.38,777.94s1.127,13.028,13.533,11.128C-484.847,789.068-484.847,778.773-498.38,777.94Z" transform="translate(615.851 -725.596)" fill="#58ad5d" stroke="#000" stroke-linecap="round" stroke-linejoin="round" stroke-width="0.25"/>
    <path id="Path_5405" data-name="Path 5405" d="M-487.526,791.68s-1.374-5.414,6.458-7.152C-481.068,784.528-482.4,791.48-487.526,791.68Z" transform="translate(625.375 -719.765)" fill="#58ad5d" stroke="#000" stroke-linecap="round" stroke-linejoin="round" stroke-width="0.25"/>
    <path id="Path_5406" data-name="Path 5406" d="M-498.38,777.94s10.892,6.2,13.533,11.128" transform="translate(615.851 -725.596)" fill="none" stroke="#000" stroke-miterlimit="10" stroke-width="0.25"/>
    <path id="Path_5407" data-name="Path 5407" d="M-479.759,784.528a15.575,15.575,0,0,0-6.458,7.152,21.064,21.064,0,0,0-2.88,4.722" transform="translate(624.067 -719.765)" fill="none" stroke="#000" stroke-miterlimit="10" stroke-width="0.25"/>
  </g>
</svg>
