<svg xmlns="http://www.w3.org/2000/svg" width="277.75" height="339.389" viewBox="0 0 277.75 339.389">
  <g id="Group_1625" data-name="Group 1625" transform="translate(0.125 0.174)">
    <path id="Path_5423" data-name="Path 5423" d="M3667.417,751.783s-12.23,17.52-25.7,30.917c0,0,17.708-10.564,28.271-21.9Z" transform="translate(-3514.175 -618.573)" fill="#ffe6c7" stroke="#000" stroke-linecap="round" stroke-linejoin="round" stroke-width="0.25"/>
    <path id="Path_5424" data-name="Path 5424" d="M3670.039,757.16l1.772,12.109s14.976,14.685,42.542,25.763C3714.352,795.032,3676.738,764.116,3670.039,757.16Z" transform="translate(-3503.143 -616.478)" fill="#ffe6c7" stroke="#000" stroke-linecap="round" stroke-linejoin="round" stroke-width="0.25"/>
    <g id="Group_1622" data-name="Group 1622" transform="translate(147.813 38.199)">
      <path id="Path_5425" data-name="Path 5425" d="M3682.566,836.917c-1.585-39.822-9.328-153.508-9.328-153.508h-12.319l-4.614,299.778c16.516,2.222,28.034,0,28.034,0C3684.325,975.937,3684.094,875.3,3682.566,836.917Z" transform="translate(-3656.305 -683.409)" fill="#ffaa85" stroke="#000" stroke-linecap="round" stroke-linejoin="round" stroke-width="0.25"/>
    </g>
    <g id="Group_1623" data-name="Group 1623" transform="translate(64.655 3.372)">
      <path id="Path_5426" data-name="Path 5426" d="M3671.313,780.731a260.6,260.6,0,0,0,50.873,25.718c28.9,10.691,33.808,14.736,33.808,14.736s-5.2,2.023-16.76,0c0,0,17.338,13.293,40.744,17.627,0,0-17.338,13.871-67.906,3.468,0,0-24.973-5.492-37.916-17.339Z" transform="translate(-3567.301 -610.668)" fill="#ffe6c7" stroke="#000" stroke-miterlimit="10" stroke-width="0.25"/>
      <path id="Path_5427" data-name="Path 5427" d="M3657.336,854.012c2.419-1.006,6.421-1.139,8.546,2.283s.493,4.6,2.134,7.082,1.642,6.136-5.32,4.956-7.554-4.258-7.672-7.2S3654.72,855.1,3657.336,854.012Z" transform="translate(-3573.67 -582.361)" fill="#fff" stroke="#000" stroke-linejoin="round" stroke-width="0.25"/>
      <path id="Path_5428" data-name="Path 5428" d="M3678.256,658.346s-10.246,28.538-21.368,42.02l11.2-5.653s-16.764,34.4-32.57,56.477c0,0,15.22-9.165,24-20.474,0,0-6.146,17.962-13.17,26.157,0,0,7.316-1.171,15.512-9.366,0,0-10.829,28.39-35.415,49.463,0,0,23.708-11.122,37.465-30.439,0,0,2.687,10.812,7.344,15.5l7-15.5s14.634,25.756,42.732,33.073c0,0-6.733-16.39-8.2-30.44,0,0,8.488,17.561,38.343,17.561-6.732-4.975-31.318-30.439-37.171-50.928,0,0,8.194,9.074,21.073,9.367-2.048-3.513-24-21.368-31.025-42.734a40.958,40.958,0,0,0,17.268,3.806S3689.963,680.774,3678.256,658.346Z" transform="translate(-3584.779 -658.346)" fill="#ffe6c7" stroke="#000" stroke-miterlimit="10" stroke-width="0.25"/>
      <path id="Path_5429" data-name="Path 5429" d="M3662.051,703.092s0,9.56-5.542,16.9c0,0,5.542-.693,8.867-4.85a69.321,69.321,0,0,1,0,9.976,10.948,10.948,0,0,0,4.156-5.819" transform="translate(-3573.069 -640.914)" fill="none" stroke="#000" stroke-miterlimit="10" stroke-width="0.25"/>
      <path id="Path_5430" data-name="Path 5430" d="M3680.84,772s-41.9,63.861-84.378,98.247c0,0,11.559-2.311,19.939-9.535,0,0-2.89,15.025-10.693,24.562,0,0,15.316-5.49,32.943-28.9,0,0-2.312,31.5-9.825,49.123,0,0,26.8-24.9,49.667-64.895,0,0,2.426,18.066,2.347,29.064,0,0,8.092-9.248,10.98-21.384,0,0,4.624,30.341,34.965,42.189a42.348,42.348,0,0,1-4.046-18.494s13.583,17.338,45.656,19.939c0,0-15.6-12.137-17.337-26.3,0,0,17.626,10.4,34.1,9.826,0,0-57.9-49.827-86.453-100.622l-11.078,9.6Z" transform="translate(-3596.462 -614.07)" fill="#ffe6c7" stroke="#000" stroke-miterlimit="10" stroke-width="0.25"/>
      <path id="Path_5431" data-name="Path 5431" d="M3679.9,815.682s4.07,14.072,13.9,17.8l-2.373-10.258s6.781,6.527,12.884,8.561l-5.933-11.528" transform="translate(-3563.958 -597.052)" fill="none" stroke="#000" stroke-miterlimit="10" stroke-width="0.25"/>
      <path id="Path_5432" data-name="Path 5432" d="M3649.163,801.041s-5.256,8.478-8.307,11.529a11.275,11.275,0,0,0,6.442-1.526l-4.068,11.528a18.274,18.274,0,0,0,7.291-6.442" transform="translate(-3579.167 -602.755)" fill="none" stroke="#000" stroke-miterlimit="10" stroke-width="0.25"/>
    </g>
    <circle id="Ellipse_957" data-name="Ellipse 957" cx="4.4" cy="4.4" r="4.4" transform="translate(24.594 124.425)" fill="#fff" stroke="#000" stroke-linejoin="round" stroke-width="0.25"/>
    <path id="Path_5433" data-name="Path 5433" d="M3665.635,758.885c1.184-4.655,8.289-5.982,11.037-3.121s3.68,9.184-1.523,11.158-11.111,1.487-10.2-1.634S3664.862,761.935,3665.635,758.885Z" transform="translate(-3505.161 -617.607)" fill="#fff" stroke="#000" stroke-linejoin="round" stroke-width="0.25"/>
    <path id="Path_5434" data-name="Path 5434" d="M3618.226,824.158c-.847-5.888,6.125-7.194,11.455-16.047s13.728-9.869,16.214-5.9c2.009,3.207-1.181,7.607-5.9,11.621-3.985,3.387-3.919,7.953-9.722,12S3618.772,827.96,3618.226,824.158Z" transform="translate(-3523.355 -599.791)" fill="#fff" stroke="#000" stroke-linejoin="round" stroke-width="0.25"/>
    <path id="Path_5435" data-name="Path 5435" d="M3574.015,826.242c-.563-4.777,8.446-9.737,14.195-9.032s-.235,10.323-5.4,13.843S3574.485,830.232,3574.015,826.242Z" transform="translate(-3540.561 -593.11)" fill="#fff" stroke="#000" stroke-linejoin="round" stroke-width="0.25"/>
    <ellipse id="Ellipse_958" data-name="Ellipse 958" cx="2.65" cy="4.316" rx="2.65" ry="4.316" transform="translate(163.6 271.955) rotate(-73.611)" fill="#fff" stroke="#000" stroke-linejoin="round" stroke-width="0.25"/>
    <ellipse id="Ellipse_959" data-name="Ellipse 959" cx="3.369" cy="4.758" rx="3.369" ry="4.758" transform="translate(26.587 318.513) rotate(-47.58)" fill="#fff" stroke="#000" stroke-linejoin="round" stroke-width="0.25"/>
    <g id="Group_1624" data-name="Group 1624" transform="translate(0 45.391)">
      <path id="Path_5436" data-name="Path 5436" d="M3604.381,860.084s.1.11.249.265C3604.467,859.66,3604.381,860.084,3604.381,860.084Z" transform="translate(-3528.721 -621.823)" fill="#ffaa85" stroke="#000" stroke-linejoin="round" stroke-width="0.25"/>
      <path id="Path_5437" data-name="Path 5437" d="M3628.119,972.177c-1.076-35.4-1.89-43.417-2.278-45.065-.147-.156-.249-.266-.249-.266s.086-.424.249.266a136.528,136.528,0,0,0,26.524,21.059c16.348,9.951,17.77,11.135,17.77,11.135l-44.069-46.2-2.843-46.676,54.257,32.223-54.257-46.912s-4.5-66.341-5.924-75.344l18.243,25.115s.236,20.613,8.056,30.326l-1.422-25.114s12.322,19.192,27.484,24.168c0,0-24.258-27.323-35.065-40.99a206.183,206.183,0,0,1-18.522-28.092s-2.786-45.873-6.673-73.224a613.577,613.577,0,0,0-.025,73.639s-3.5,2.9-10.273,13.687c-7.893,12.577-28.2,51.763-32.13,57.833s16.065-16.422,16.065-16.422l-3.927,31.267s8.693-12.346,8.808-37.692c2.259-3.927,15.512-25.364,19.317-32.26l2.14,76.8-20.21,24.967-22.7-2.378,19.137,10.7s-25.2,42.324-35.666,52.786c0,0,13.077-4.042,25.442-24.966a101.881,101.881,0,0,1,.475,20.212s6.877-6.387,5.945-28.534c0,0,13.316-26.393,27.581-37.806L3605.3,981.17c10.566,2.222,23.1,0,23.1,0C3628.3,978.127,3628.209,975.123,3628.119,972.177Z" transform="translate(-3549.933 -688.585)" fill="#ffaa85" stroke="#000" stroke-linecap="round" stroke-linejoin="round" stroke-width="0.25"/>
    </g>
    <ellipse id="Ellipse_960" data-name="Ellipse 960" cx="4.759" cy="6.564" rx="4.759" ry="6.564" transform="translate(201.739 27.875) rotate(-60)" fill="#fff" stroke="#000" stroke-linejoin="round" stroke-width="0.25"/>
    <ellipse id="Ellipse_961" data-name="Ellipse 961" cx="3.13" cy="4.089" rx="3.13" ry="4.089" transform="matrix(0.562, -0.827, 0.827, 0.562, 88.557, 5.176)" fill="#fff" stroke="#000" stroke-linejoin="round" stroke-width="0.25"/>
  </g>
</svg>
