<?xml version="1.0" encoding="utf-8"?>
<!-- Generator: Adobe Illustrator 22.1.0, SVG Export Plug-In . SVG Version: 6.00 Build 0)  -->
<svg version="1.1" id="圖層_1" xmlns="http://www.w3.org/2000/svg" xmlns:xlink="http://www.w3.org/1999/xlink" x="0px" y="0px"
	 viewBox="0 0 1179.5 520.8" style="enable-background:new 0 0 1179.5 520.8;" xml:space="preserve">
<style type="text/css">
	.st0{clip-path:url(#SVGID_2_);}
	.st1{clip-path:url(#SVGID_4_);fill:#60472A;stroke:#000000;stroke-width:0.242;stroke-miterlimit:10;}
	.st2{clip-path:url(#SVGID_4_);fill:#ECB36F;stroke:#000000;stroke-width:0.242;stroke-miterlimit:10;}
	.st3{clip-path:url(#SVGID_4_);}
	.st4{fill:none;stroke:#000000;stroke-width:0.242;stroke-miterlimit:10;}
	.st5{fill:#CBD13A;stroke:#000000;stroke-width:0.242;stroke-miterlimit:10;}
	.st6{fill:#4B8E32;stroke:#000000;stroke-width:0.242;stroke-miterlimit:10;}
	.st7{fill:#FFEED6;stroke:#000000;stroke-width:0.242;stroke-miterlimit:10;}
	.st8{fill:#60472A;stroke:#000000;stroke-width:0.242;stroke-miterlimit:10;}
	.st9{fill:#ECB36F;stroke:#000000;stroke-width:0.242;stroke-miterlimit:10;}
	.st10{clip-path:url(#SVGID_4_);fill:#FFEED6;stroke:#000000;stroke-width:0.242;stroke-miterlimit:10;}
	.st11{fill:none;stroke:#FFEED6;stroke-width:0.242;stroke-miterlimit:10;}
	.st12{clip-path:url(#SVGID_4_);fill:#4B8E32;stroke:#000000;stroke-width:0.242;stroke-miterlimit:10;}
	.st13{clip-path:url(#SVGID_4_);fill:none;stroke:#000000;stroke-width:0.242;stroke-miterlimit:10;}
	.st14{fill:#CBD13A;}
	.st15{clip-path:url(#SVGID_4_);fill:#CBD13A;stroke:#000000;stroke-width:0.242;stroke-miterlimit:10;}
	.st16{fill:#FFEED6;}
	.st17{fill:#FFFFFF;stroke:#000000;stroke-width:0.242;stroke-miterlimit:10;}
</style>
<g>
	<defs>
		<rect id="SVGID_1_" width="1179.5" height="520.8"/>
	</defs>
	<clipPath id="SVGID_2_">
		<use xlink:href="#SVGID_1_"  style="overflow:visible;"/>
	</clipPath>
	<g class="st0">
		<defs>
			<rect id="SVGID_3_" x="0.3" y="-1.7" width="1184.8" height="523.4"/>
		</defs>
		<clipPath id="SVGID_4_">
			<use xlink:href="#SVGID_3_"  style="overflow:visible;"/>
		</clipPath>
		<rect x="0" y="-1.7" class="st1" width="1034.6" height="523.8"/>
		<path class="st2" d="M526.6-1.9c-137-1.9-191.7,143.7-291,143.7l249.4,129.5l428.6-114.7L1016.4-1.7L526.6-1.9z"/>
		<g class="st3">
			<path class="st4" d="M366,35.3c0,0,0.6,21.2,12.9,30"/>
			<path class="st4" d="M377.6,35.3c0,0-0.7,10.3-9.7,12.1"/>
			<path class="st4" d="M346.5,26.8c0,0,4,23.4,23.6,26.8"/>
			<circle class="st5" cx="346.4" cy="24.5" r="2.5"/>
			<circle class="st5" cx="377.6" cy="32.8" r="2.5"/>
			<circle class="st5" cx="366" cy="32.8" r="2.5"/>
		</g>
		<g class="st3">
			<g>
				<path class="st6" d="M573.8,51.2c4.7,1.5,6.6,7.6,2.7,14.9c-4,7.3,0.1,7.6-2.5,11.3c-2.7,3.7-9,2.6-10.3,7.8s-5.3-11.8-0.8-26.2
					C565.3,51.4,570.3,50.1,573.8,51.2z"/>
				<path class="st6" d="M541.8,49.7c4-2.9,12.5-2.4,15.3,6.6c3,10,7.8,8.4,8.5,16.4c0.6,6.3-2.5,14-2.5,14s-2.5-4.2-8.3-4.2
					c-5.3,0-8.6-1.9-9-6.8c-0.6-7.1-4.2-6.1-7.2-11.9C535,57.1,538.8,51.8,541.8,49.7z"/>
				<path class="st4" d="M549,59.5c9.8,9.7,15.2,21.6,14.6,38.4"/>
				<path class="st4" d="M565.3,71.6c1.8-6.4,4-10.2,4-10.2"/>
			</g>
			<g>
				<path class="st6" d="M612.3,27.6c4.7,1.5,6.6,7.6,2.7,14.9c-4,7.3,0.1,7.6-2.5,11.3c-2.7,3.7-9,2.6-10.3,7.8s-5.3-11.8-0.8-26.2
					C603.7,27.7,608.8,26.5,612.3,27.6z"/>
				<path class="st6" d="M580.2,26.1c4-2.9,12.5-2.4,15.3,6.6c3,10,7.8,8.4,8.5,16.4c0.6,6.3-2.5,14-2.5,14S599,59,593.1,59
					c-5.3,0-8.6-1.9-9-6.8c-0.6-7.1-4.2-6.1-7.2-11.9C573.5,33.5,577.2,28.2,580.2,26.1z"/>
				<path class="st4" d="M587.4,35.8c9.8,9.7,15.2,21.6,14.6,38.4"/>
				<path class="st4" d="M603.8,48c1.8-6.4,4-10.2,4-10.2"/>
			</g>
			<g>
				<path class="st6" d="M651,5.7c4.7,1.5,6.6,7.6,2.7,14.9c-4,7.3,0.1,7.6-2.5,11.3c-2.7,3.7-9,2.6-10.3,7.8
					c-1.3,5.1-5.3-11.8-0.8-26.2C642.5,5.9,647.5,4.6,651,5.7z"/>
				<path class="st6" d="M619,4.2c4-2.9,12.5-2.4,15.3,6.6c3,10,7.8,8.4,8.5,16.4c0.6,6.3-2.5,14-2.5,14s-2.5-4.2-8.3-4.2
					c-5.3,0-8.6-1.9-9-6.8c-0.6-7.1-4.2-6.1-7.2-11.9C612.2,11.7,616,6.3,619,4.2z"/>
				<path class="st4" d="M626.2,14c9.8,9.7,15.2,21.6,14.6,38.4"/>
				<path class="st4" d="M642.5,26.1c1.8-6.4,4-10.2,4-10.2"/>
			</g>
			<g>
				<path class="st6" d="M535.7,20.7c4.7,1.5,6.6,7.6,2.7,14.9c-4,7.3,0.1,7.6-2.5,11.3c-2.7,3.7-9,2.6-10.3,7.8s-5.3-11.8-0.8-26.2
					C527.2,20.8,532.3,19.5,535.7,20.7z"/>
				<path class="st6" d="M503.7,19.1c4-2.9,12.5-2.4,15.3,6.6c3,10,7.8,8.4,8.5,16.4c0.6,6.3-2.5,14-2.5,14s-2.5-4.2-8.3-4.2
					c-5.3,0-8.6-1.9-9-6.8c-0.6-7.1-4.2-6.1-7.2-11.9C497,26.6,500.7,21.3,503.7,19.1z"/>
				<path class="st4" d="M510.9,28.9c9.8,9.7,15.2,21.6,14.6,38.4"/>
				<path class="st4" d="M527.3,41c1.8-6.4,4-10.2,4-10.2"/>
			</g>
			<g>
				<path class="st6" d="M574.2-3c4.7,1.5,6.6,7.6,2.7,14.9c-4,7.3,0.1,7.6-2.5,11.3c-2.7,3.7-9,2.6-10.3,7.8s-5.3-11.8-0.8-26.2
					C565.7-2.8,570.7-4.1,574.2-3z"/>
				<path class="st6" d="M542.2-4.5c4-2.9,12.5-2.4,15.3,6.6c3,10,7.8,8.4,8.5,16.4c0.6,6.3-2.5,14-2.5,14s-2.5-4.2-8.3-4.2
					c-5.3,0-8.6-1.9-9-6.8c-0.6-7.1-4.2-6.1-7.2-11.9C535.4,3,539.1-2.4,542.2-4.5z"/>
				<path class="st4" d="M549.3,5.3c9.8,9.7,15.2,21.6,14.6,38.4"/>
				<path class="st4" d="M565.7,17.4c1.8-6.4,4-10.2,4-10.2"/>
			</g>
			<g>
				<path class="st6" d="M612.9-24.8c4.7,1.5,6.6,7.6,2.7,14.9c-4,7.3,0.1,7.6-2.5,11.3c-2.7,3.7-9,2.6-10.3,7.8s-5.3-11.8-0.8-26.2
					C604.4-24.7,609.5-25.9,612.9-24.8z"/>
				<path class="st6" d="M580.9-26.4c4-2.9,12.5-2.4,15.3,6.6c3,10,7.8,8.4,8.5,16.4c0.6,6.3-2.5,14-2.5,14s-2.5-4.2-8.3-4.2
					c-5.3,0-8.6-1.9-9-6.8c-0.6-7.1-4.2-6.1-7.2-11.9C574.2-18.9,577.9-24.2,580.9-26.4z"/>
				<path class="st4" d="M588.1-16.6c9.8,9.7,15.2,21.6,14.6,38.4"/>
			</g>
		</g>
		<g class="st3">
			<path class="st6" d="M314.6,145.2L314.6,145.2l-1.1-0.7c-2.6-1.5-1.9-5.4,1.1-6l1.3-0.3l-1-0.8c-2.4-1.8-1.4-5.6,1.6-5.9l1.3-0.1
				l-0.9-0.8c-2.2-2-0.8-5.7,2.3-5.7l1.2,0l-0.6-0.7c-2-2.3,0-5.8,3-5.3l0.9,0.2l-0.4-0.6c-1.6-2.6,1-5.8,3.9-4.8l0.6,0.2l-0.1-0.4
				c-1-2.9,2.2-5.5,4.8-3.9l0.3,0.2l0-0.3c-0.3-3.1,3.4-4.8,5.6-2.6l0.2,0.2l0.1-0.5c0.4-3.1,4.5-3.9,6-1.2l0.2,0.4l0.2-0.6
				c1-2.9,5.1-2.9,6.2,0l0.2,0.6l0.1-0.2c1.6-2.7,5.7-1.8,6.1,1.2l0,0.2l0,0c2.2-2.3,6-0.4,5.6,2.7v0l0.1,0c2.7-1.6,5.9,1.1,4.8,4
				l0,0.1l0.4-0.1c2.9-1,5.4,2.3,3.7,4.9l-0.2,0.3l0.7-0.1c3-0.4,4.9,3.3,2.8,5.5l-0.5,0.5l1,0c3,0.1,4.3,3.9,2,5.8l-0.8,0.6
				l1.1,0.2c3,0.4,3.8,4.3,1.3,6l-0.9,0.6l1.1,0.3c2.9,0.7,3.4,4.7,0.7,6.1l-1,0.5v0c2.5,3.1,0.3,7.7-3.7,7.7l-57.7,0
				C314.2,152.6,312.1,148.1,314.6,145.2z"/>
			<path class="st4" d="M355.5,133c0,0,2.2-2.6,3.8-1.4c1.6,1.2-0.1,4-1.2,5.4"/>
		</g>
		<g class="st3">
			<path class="st7" d="M235.6,141.8L235.6,141.8l-3.9-2.8c-2.7-2-2-6.2,1.2-7.3l4.6-1.4l-3.7-3.2c-2.6-2.2-1.5-6.4,1.8-7.1l4.7-1.1
				l-3.3-3.4c-2.4-2.4-1-6.5,2.4-7l4.7-0.7l-2.9-3.6c-2.1-2.6-0.3-6.6,3.1-6.7l4.6-0.2l-2.4-3.8c-1.8-2.9,0.5-6.7,3.9-6.3l4.4,0.5
				l-1.6-3.8c-1.3-3.2,1.7-6.6,5-5.5l3.9,1.2l-0.6-3.7c-0.6-3.5,3.3-6.1,6.3-4.2l3.1,2l0.4-3.5c0.4-3.6,4.9-4.9,7.2-2.2l2.3,2.7
				l1.4-3.2c1.5-3.3,6.2-3.2,7.6,0.1l1.3,3.1l1.9-2.2c2.4-2.8,7-1.2,7.2,2.4l0.2,2.9l2.8-1.6c3.1-1.8,6.9,1,6.1,4.5l-0.8,3.2
				l3.6-0.9c3.4-0.9,6.3,2.7,4.7,5.8l-1.7,3.4l4.1-0.2c3.5-0.2,5.6,3.7,3.6,6.5l-2.4,3.4l4.4,0.3c3.4,0.3,5.1,4.4,2.7,6.9l-3,3.2
				l4.4,0.8c3.4,0.6,4.6,4.8,2.1,7.1l-3.3,3.1l4.4,1.1c3.3,0.8,4.2,5.1,1.6,7.2l-3.6,2.9l4.4,1.4c3.2,1.1,3.9,5.4,1.1,7.3l-3.8,2.6
				l0,0c3.4,4.3,0.3,10.6-5.2,10.6l-85.3,0.2C235.9,152.8,232.5,146.5,235.6,141.8z"/>
			<path class="st4" d="M271.4,112.9c0,0-6.6-5.4-3-9.1c2.8-2.8,8.3,3.3,8.3,3.3"/>
			<path class="st4" d="M308.4,121.4c0,0,2.2-4.5,5-2.9s-0.7,7.7-0.7,7.7"/>
		</g>
		<g class="st3">
			<path class="st5" d="M487.9,148.6c-7.1-8-24.9-9.1-33.7-1.7v0c-8.4,7.7-22.5,8-31.2,0.6l-2.2-1.9c-9.6-8.1-25.3-8.1-34.9,0l0,0
				c-9.6,8.1-25.3,8.1-34.9,0l0,0c-9.6-8.1-25.3-8.1-34.9,0l0,0c-9.6,8.1-25.3,8.1-34.9,0l0,0c-9.6-8.1-25.3-8.1-34.9,0l0,0
				c-9.6,8.1-25.3,8.1-34.9,0l0,0c-9.6-8.1-25.3-8.1-34.9,0l0,0c-9.6,8.1-25.3,8.1-34.9,0l0,0c-9.6-8.1-25.3-8.1-34.9,0l0,0
				c-9.6,8.1-25.3,8.1-34.9,0l0,0c-9.6-8.1-25.3-8.1-34.9,0l0,0c-9.6,8.1-25.3,8.1-34.9,0l-1.5-1.2c-0.1-0.1-0.2-0.1-0.2-0.2
				c-1.5-1.2-3.7-0.1-3.7,1.8v333c0,1.3,1,2.3,2.3,2.3h477.2c11,0,20-5.7,20-12.6V161.4C495.9,158.7,490.4,151.4,487.9,148.6z"/>
		</g>
		<g class="st3">
			<path class="st8" d="M110.2,258.3c-0.2-0.7-0.5-1.5-0.9-2.2c-1.3-2.5-4.3-3.5-6.9-2.5c-2.7,1.1-5.9,3.2-6.6,7.3
				c-0.4,2.2,0.6,4.3,2.5,5.5c0.6,0.4,1.4,0.8,2.3,1.2C100.2,264.2,103.9,258.3,110.2,258.3z"/>
			<path class="st7" d="M110.2,258.3c-6.3,0-10,5.8-9.6,9.3c1.1,0.5,2.3,0.8,3.7,1c0.1-0.8,1.1-5.4,6.6-6.6
				c-5.5,1.2-6.5,5.8-6.6,6.6c1,0.1,2,0.2,3.2,0c2-0.2,3.5-1.9,3.6-3.9C111.1,263,111,260.6,110.2,258.3z"/>
		</g>
		<g class="st3">
			<g>
				<path class="st9" d="M128.6,270.9c-0.7-0.1-1.4-0.2-2.2-0.1c-2.6,0.1-4.7,2.1-4.9,4.7c-0.2,2.7,0.2,6.1,3.3,8.4
					c1.6,1.2,3.8,1.2,5.6,0.2c0.6-0.4,1.3-0.8,1.9-1.4C129.3,281.5,126,276.1,128.6,270.9z"/>
				<path class="st8" d="M134.3,272.9c-1.5-0.8-3.5-1.6-5.7-2c-2.6,5.2,0.7,10.6,3.7,11.7c0.8-0.7,1.7-1.6,2.4-2.7
					c-0.6-0.4-4-3.1-2.7-8.2c-1.3,5,2.1,7.7,2.7,8.2c0.5-0.8,1-1.6,1.3-2.6C136.7,275.7,135.9,273.7,134.3,272.9z"/>
			</g>
			<g>
				<path class="st9" d="M155.2,260.4c-4.4,1.7-4.7,5.7-4.7,6.3c0.8,0,1.7-0.1,2.7-0.4c1.6-0.4,2.7-2,2.5-3.7
					C155.6,262,155.4,261.2,155.2,260.4z"/>
				<path class="st8" d="M154.1,257.4c-0.3-0.6-0.6-1.2-1-1.7c-1.4-1.9-4.1-2.4-6.1-1.2c-2.1,1.2-4.5,3.4-4.5,6.9
					c0,1.9,1.1,3.5,2.8,4.3c0.6,0.3,1.3,0.5,2,0.7C146.5,263.6,148.9,258.2,154.1,257.4z"/>
				<path class="st7" d="M155.2,260.4c-0.3-1-0.6-2-1.1-3.1c-5.3,0.8-7.6,6.2-6.8,9c1,0.2,2.1,0.4,3.3,0.4
					C150.6,266.1,150.8,262.1,155.2,260.4z"/>
			</g>
			<g>
				<path class="st8" d="M166.7,269.9c-0.8,0-1.7,0-2.7,0.2c-1.7,0.3-2.8,1.8-2.7,3.5c0,0.7,0.1,1.5,0.3,2.3
					C166.1,274.5,166.6,270.6,166.7,269.9z"/>
				<path class="st7" d="M169.9,270.5c-0.9-0.3-2-0.5-3.2-0.6c-0.1,0.7-0.6,4.6-5.1,6c0.2,1,0.5,2.1,0.9,3.1
					C167.7,278.6,170.5,273.4,169.9,270.5z"/>
				<path class="st8" d="M171.9,271.4c-0.6-0.3-1.2-0.6-2-0.9c0.6,2.9-2.2,8.1-7.5,8.5c0.3,0.6,0.6,1.2,0.9,1.8c1.3,2,3.9,2.7,6,1.7
					c2.2-1.1,4.7-3.1,5-6.6C174.5,274,173.5,272.2,171.9,271.4z"/>
			</g>
			<g>
				<g>
					<path class="st7" d="M186.8,263.2c0.9-0.5,1.8-1.1,2.7-1.8c-2.1-4.9-7.9-5.8-10.4-4.4c0,1,0.1,2.1,0.5,3.3
						C180.2,260.1,184.1,259.3,186.8,263.2z"/>
					<path class="st9" d="M189.5,261.4c0.5-0.4,1-0.9,1.4-1.4c1.5-1.8,1.3-4.5-0.3-6.2c-1.7-1.7-4.4-3.5-7.9-2.7
						c-1.8,0.4-3.2,1.9-3.5,3.8c-0.1,0.6-0.2,1.4-0.2,2.1C181.6,255.5,187.4,256.5,189.5,261.4z"/>
				</g>
				<path class="st8" d="M179.5,260.2c0.2,0.8,0.6,1.6,1,2.5c0.8,1.5,2.6,2.1,4.2,1.5c0.6-0.3,1.4-0.6,2.1-1
					C184.1,259.3,180.2,260.1,179.5,260.2z"/>
			</g>
			<g>
				<path class="st7" d="M191.3,286.8c0.8,0.5,1.6,0.9,2.6,1.2c1.7,0.6,3.6-0.3,4.3-1.9c0.3-0.7,0.6-1.4,0.9-2.3
					C194.1,282.8,191.6,286.2,191.3,286.8z"/>
				<path class="st8" d="M199.8,280.5c0.1-0.7,0.1-1.4,0.1-2.1c-0.2-2.5-2.2-4.5-4.8-4.6c-2.6-0.1-6,0.5-8,3.6c-1.1,1.6-1,3.8,0,5.5
					c0.4,0.6,0.8,1.2,1.4,1.8C189.5,281.7,194.7,278.2,199.8,280.5z"/>
				<path class="st9" d="M188.5,284.6c0.7,0.8,1.6,1.5,2.7,2.2c0.4-0.6,2.9-4,7.8-3c0.3-1,0.6-2.2,0.8-3.4
					C194.7,278.2,189.5,281.7,188.5,284.6z"/>
			</g>
		</g>
		<g class="st3">
			<path class="st4" d="M38.8,267.5c0.1-2-0.2-4.8-1.5-7.3c-1.1-2.1-3.6-3-5.8-2.1c-2.3,0.9-5,2.7-5.5,6.2c-0.3,1.8,0.5,3.7,2.1,4.7
				c1.7,1.1,4.4,2.3,7.8,1.9C37.5,270.6,38.8,269.2,38.8,267.5z"/>
			<path class="st4" d="M33.1,270.9c0,0,0.5-4.5,5.6-5.6"/>
			<path class="st4" d="M30,269.9c-0.3-2.9,2.8-7.9,8.1-7.9"/>
		</g>
		<g class="st3">
			<path class="st9" d="M10.4,274.2c-0.3,1-0.5,2.2-0.5,3.4c0.7,0,4.9,0.4,6.5,5.2c1.1-0.2,2.2-0.6,3.3-1.1
				C19,276.1,13.4,273.5,10.4,274.2z"/>
			<path class="st7" d="M9.9,277.6c0,0.9,0.1,1.8,0.3,2.8c0.4,1.7,2.1,2.9,3.8,2.7c0.7-0.1,1.5-0.2,2.4-0.4
				C14.8,278,10.6,277.6,9.9,277.6z"/>
			<path class="st8" d="M23,274.3c-1.2-2.3-3.5-4.9-7.2-5c-2-0.1-3.8,1-4.6,2.8c-0.3,0.6-0.6,1.3-0.8,2.1c3-0.7,8.6,2,9.3,7.6
				c0.6-0.3,1.3-0.6,1.9-1C23.6,279.3,24.2,276.5,23,274.3z"/>
		</g>
		<rect x="746.6" y="-1.7" class="st1" width="21.6" height="120.3"/>
		<path class="st2" d="M746.6-0.1c0,0,11.5-2,12.4,10.9c0.8,11.5-1.3,24.4,9.2,24.4V-9.3h-21.6V-0.1z"/>
		<path class="st10" d="M746.6-1.7c0,0,12.9-2.2,14.3,9.2c1.8,14.6-1.4,23.7,7.2,24.7v1.1V-8.2h-21.6v5.4"/>
		<g class="st3">
			<path class="st8" d="M768.2,28.2v-3.1c7.6,0,10-3.5,10-10.9V-4.2h3.1v18.3C781.3,23.3,777.5,28.2,768.2,28.2z"/>
		</g>
		<g class="st3">
			<line class="st11" x1="129.9" y1="40.4" x2="173.3" y2="87.7"/>
			<line class="st11" x1="206" y1="66.3" x2="219.8" y2="81.3"/>
			<line class="st11" x1="170.2" y1="27.3" x2="200.8" y2="60.6"/>
			<line class="st11" x1="202.3" y1="85.3" x2="218.8" y2="103.4"/>
			<line class="st11" x1="170.2" y1="50.3" x2="196.4" y2="78.9"/>
			<line class="st11" x1="198.4" y1="31.5" x2="224.6" y2="60.1"/>
			<line class="st11" x1="143.5" y1="84.1" x2="160.5" y2="102.6"/>
			<line class="st11" x1="182.5" y1="97.8" x2="188.1" y2="103.9"/>
			<line class="st11" x1="117.2" y1="55.4" x2="136.5" y2="76.5"/>
		</g>
		<g class="st3">
			<path class="st9" d="M77.4,244.4c4.4-1.9,4.4-5.8,4.4-6.5c-0.8,0.1-1.7,0.2-2.6,0.5c-1.6,0.5-2.6,2.1-2.3,3.8
				C77,242.9,77.2,243.6,77.4,244.4z"/>
			<path class="st7" d="M78.7,247.4c0.3,0.6,0.7,1.1,1.1,1.7c1.5,1.8,4.1,2.2,6.1,1c2.1-1.3,4.3-3.6,4.3-7.1c0-1.9-1.2-3.5-3-4.2
				c-0.6-0.2-1.3-0.5-2.1-0.6C86,241,83.9,246.4,78.7,247.4z"/>
			<path class="st8" d="M77.4,244.4c0.3,1,0.7,2,1.2,3c5.2-1,7.3-6.5,6.5-9.3c-1-0.2-2.1-0.3-3.3-0.2
				C81.9,238.6,81.8,242.6,77.4,244.4z"/>
		</g>
		<g class="st3">
			<path class="st7" d="M748.1,63.7c2.7-0.3,8.7,1.5,7.7,10.8s6.5,9,5.6,14.8c-0.7,4.5-4.4,4.6-5.6,9c-0.9,2.9-2.7,6.1-6.7,6.2
				c-3.3,0.1-6.4-2.3-7-6.3c-1.1-7-4.6-5.7-4.3-11.1c0.3-5.1,3.8-5.6,3.8-10.7C741.6,71.5,741.7,64.5,748.1,63.7z"/>
			<path class="st4" d="M748.2,71.7c0,0-5.4,25,6.6,44.4"/>
			<path class="st4" d="M745,75c0.2,2.1,3.6,3.9,6.4,0.4"/>
			<path class="st4" d="M743.1,85.1c0.2,2.7,5,5.9,8.9-0.6"/>
			<path class="st4" d="M745.6,95.2c1,1.9,3.8,2.2,4.8-0.3"/>
		</g>
		<g class="st3">
			<path class="st5" d="M735.1,95.6L735.1,95.6C735.1,95.6,735.1,95.6,735.1,95.6c-0.2-0.2-0.4-0.3-0.6-0.5c-0.4-0.3-0.8-0.6-1.2-1
				c-1.7-1.9-2.4-4.3-2.6-5.1c0-0.1,0-0.2-0.1-0.4c-0.5-2.3-2.2-3.9-4.5-3.4c-2.2,0.5-3,2.7-2.5,5c1,3.6-1.6,7.4-1.6,7.4l0,0
				c-0.9,1.5-1.3,3.1-0.9,4.8c0.9,3.7,5.1,5.9,9.4,4.9s7.2-4.9,6.3-8.6C736.7,97.5,736,96.4,735.1,95.6z"/>
			<path class="st4" d="M727.6,92.7c0,0,4.1,14.5,0,19.7"/>
			<path class="st4" d="M726.7,96.7c0,0,0.5,1.1,1.9,0.8s1.6-1.6,1.6-1.6"/>
			<path class="st4" d="M726.2,102.5c0,0,0.8,1.4,3,1.1c2.3-0.3,2.8-2.5,2.8-2.5"/>
		</g>
		<path class="st10" d="M214.6,341.6c0,0,57.6-7.7,102-62.4c79.6-98,174.8-167.8,353.8-166.7c89.4,0.5,152,1,201.4-16.3
			c103.7-36.5,130-97.9,130-97.9H1185v523.4l-970.5-0.1V341.6z"/>
		<g class="st3">
			<path class="st6" d="M853.1,98.5l1.5-1.5l-2.2-2.3c-1.6-1.7-0.5-4.5,1.8-4.6l3.1-0.2l-2-2.4c-1.5-1.8-0.2-4.5,2.1-4.5l3.1,0
				l-1.9-2.5c-1.4-1.9,0-4.5,2.4-4.4l3.1,0.2l-1.7-2.6c-1.3-2,0.4-4.5,2.7-4.2l3,0.4l-1.4-2.6c-1.1-2.1,0.7-4.5,3.1-4l2.9,0.7
				l-1.1-2.7c-0.9-2.2,1.2-4.4,3.5-3.6l2.7,1l-0.7-2.6c-0.6-2.3,1.9-4.3,4-3.1l2.4,1.3l-0.2-2.5c-0.2-2.4,2.6-3.9,4.5-2.3l1.9,1.6
				l0.3-2.3c0.3-2.4,3.5-3.2,4.9-1.2l1.4,1.9l0.9-2.2c0.9-2.3,4.2-2.3,5.1,0l0.9,2.2l1.3-1.9c1.4-2,4.6-1.3,5,1.2l0.4,2.3l1.8-1.6
				c1.8-1.6,4.7-0.2,4.6,2.2l-0.2,2.4l2.3-1.3c2.1-1.2,4.6,0.7,4,3.1l-0.6,2.5l2.6-1c2.2-0.8,4.4,1.4,3.5,3.6l-1.1,2.6l2.8-0.7
				c2.3-0.5,4.2,1.9,3,4l-1.4,2.5l3-0.4c2.3-0.3,4,2.3,2.6,4.3l-1.7,2.5l3-0.1c2.4-0.1,3.8,2.6,2.3,4.4l-1.9,2.4l3.1,0.1
				c2.4,0,3.6,2.8,2,4.6l-2.1,2.3l3.1,0.3c2.3,0.2,3.4,3.1,1.7,4.7l-2.2,2.2l1.7,1.7c1.7,1.7,0.5,4.7-2,4.7c0,0-25.2,5.4-44.6,5.4
				c-21.3,0-44.5-5.1-44.5-5.1C852.6,103.2,851.3,100.2,853.1,98.5z"/>
			<path class="st4" d="M901.3,77.2c0,0,2-3.8,4.4-3.2c2.4,0.6,1.1,4.5,1.1,4.5"/>
		</g>
		<g class="st3">
			<g>
				<path class="st5" d="M857.2,207.1L857.2,207.1l1-1.1c1.6-1.7,0.3-4.5-2-4.5l-1.5,0l0.7-1.2c1.3-2-0.5-4.5-2.8-4.1l-1.4,0.3
					l0.4-1.2c0.8-2.2-1.4-4.4-3.6-3.4l-1.1,0.5l0.1-1.2c0.3-2.4-2.4-3.9-4.3-2.4l-0.9,0.7l-0.1-1.3c-0.3-2.4-3.2-3.2-4.7-1.4l-0.8,1
					l-0.5-1.4c-0.7-2.2-3.8-2.5-4.9-0.4l-0.7,1.3l-0.7-1.3c-1.1-2.1-4.2-1.8-4.9,0.4l-0.5,1.4l-0.8-1c-1.5-1.8-4.5-1-4.8,1.4
					l-0.1,1.3l-0.9-0.7c-1.9-1.5-4.6,0.1-4.3,2.4l0.1,1.2l-1.1-0.5c-2.2-1-4.5,1.1-3.6,3.4l0.4,1.1l-1.3-0.3
					c-2.3-0.5-4.1,2.1-2.8,4.1l0.7,1.2l-1.5,0c-2.3,0-3.6,2.8-2,4.5l1,1.1l0,0c-2.5,0.4-3.1,3.7-0.9,5l0.6,0.3l54.9,0l0.6-0.3
					C860.4,210.8,859.8,207.4,857.2,207.1z"/>
			</g>
			<path class="st4" d="M826.5,203.1c0,0-1.6-3.1,0.3-4.2c1.9-1.1,3.6,2,3.6,2"/>
		</g>
		<g class="st3">
			<path class="st4" d="M836.5,320.4c-10.5-52.7-52.3-81.2-71-87.8"/>
			<path class="st4" d="M760.6,247.4c4.5,1.4,13.1,2.4,20.7-6.9"/>
			<circle class="st9" cx="754.9" cy="244.3" r="6.4"/>
			<circle class="st8" cx="763.2" cy="230.9" r="2.8"/>
			<path class="st4" d="M789.8,246.5c0,0,2.6-9.9-3.5-20.4"/>
			<circle class="st9" cx="784.5" cy="221" r="5.5"/>
			<path class="st4" d="M775.9,277.6c0,0,24.7,9.9,41.1-2.6"/>
			<circle class="st9" cx="768.9" cy="275.5" r="7.5"/>
			<path class="st4" d="M790.2,281c0,0-0.3-8.5-8.3-14.2"/>
			<circle class="st8" cx="780.4" cy="265.8" r="2.3"/>
			<g>
				<path class="st4" d="M810.9,266.7c0,0,9.2-17.5-3.2-35.9"/>
				<circle class="st8" cx="805.9" cy="227.7" r="3.6"/>
				<path class="st4" d="M813.5,244.6c0,0,6.5-3.5,6.5-12.5"/>
				<circle class="st9" cx="820.1" cy="229.3" r="2.8"/>
			</g>
		</g>
		<g class="st3">
			<g>
				<path class="st8" d="M895.8,187.4C895.8,187.4,895.8,187.4,895.8,187.4l0-5.1l0-5.1c0.1,0,6-0.1,11.7-4.3
					c7.7-5.6,11.6-15.7,11.6-30c0-38.9,0-152.3,0-152.9l10.2,0c0,0.5,0,114,0,152.9c0,15.3-4,27.1-11.9,34.9
					C907.9,187.2,896.4,187.4,895.8,187.4z"/>
			</g>
			<g>
				<path class="st8" d="M844.7,92c-20.2,0-28.4-4.3-33.3-8c-8.8-6.7-13.1-18.1-13.1-34.7v-64.6h8.9v64.6c0,13.9,3.1,22.6,9.6,27.6
					c5.6,4.2,14.2,6.1,27.9,6.1V92z"/>
			</g>
			<path class="st8" d="M833.9-1.7L833.8,161c1.7,0.5,15.8,4.7,18.3,19.7c2.7,16-7.9,22.5-5.5,36.9c2,12,18.1,14.4,18.7,41.3
				c0.6,28.8-29.5,30.8-31.5,30.9l-0.1,231.8l62.1,0V171.8v-15.2V35v-7.5V-1.7H833.9z"/>
			<path class="st9" d="M879.8,40.8c-5.1,15.1,7.6,39-3.2,60.4c-8,15.8-5.4,34.1,14.2,45c1.9,1.1,3.9,2.5,5,4.3V29
				C892.8,29.3,883,31.3,879.8,40.8z"/>
			<path class="st7" d="M871.8,52.5c1.4,20.4,5,33.5,0,43.7c-6.9,14.3-8.7,30.4,0.5,43.4c8.2,11.5,23.5,12.1,23.5,26.3v-15.2
				c-1-1.8-3-3.3-5-4.3c-19.6-10.9-22.2-29.2-14.2-45c10.8-21.4-1.9-45.3,3.2-60.4c3.2-9.5,13.1-11.6,16-11.8v-7.5
				C895.8,21.5,869.8,23.5,871.8,52.5z"/>
			<path class="st9" d="M865.3,258.9c-0.6-26.8-16.6-29.2-18.7-41.3c-2.4-14.4,8.2-20.9,5.5-36.9c-2.5-15-16.7-19.3-18.3-19.7
				l-0.1,128.8C835.7,289.7,865.9,287.7,865.3,258.9z"/>
			<path class="st7" d="M833.7,286.6c21.7-3.5,27.1-17,26.2-30.4c-1.4-20.4-16.6-25.3-17.6-40.1c-0.7-10.5,5.5-16.1,6.1-29
				c0.8-17.9-14.6-21.1-14.6-21.1L833.7,286.6z"/>
		</g>
		<path class="st12" d="M0,305.3c44.9,30,121.5-29.9,184.9,5.1c54.9,30.3,35.9,92.7,64.9,122.6c32.7,33.6,73.2,29.1,86.6,88.6H0
			V305.3z"/>
		<path class="st13" d="M480.4,421.7c2.5-0.4,5-1.3,7.2-2.7l0,0c5.9-3.9,13.6-3.9,19.6,0v0c5.9,3.9,13.6,3.9,19.6,0l0,0
			c5.9-3.9,13.6-3.9,19.6,0l0,0c5.9,3.9,13.6,3.9,19.6,0l0,0c5.9-3.9,13.6-3.9,19.6,0l0,0c5.9,3.9,13.6,3.9,19.6,0l0,0
			c5.9-3.9,13.6-3.9,19.6,0l0,0c5.9,3.9,13.6,3.9,19.6,0l0,0c5.9-3.9,13.6-3.9,19.6,0l3.1,2"/>
		<line class="st13" x1="507.2" y1="376.2" x2="508" y2="377.1"/>
		<g class="st3">
			<path class="st8" d="M115.2-1.8c0,22.6,0,134.4,0,150.2c0,20.5-5.6,34.9-16.6,42.9c-8.2,5.9-16.6,6.1-16.7,6.1l0,7.3l0,7.3
				c0,0,0,0,0,0c0.9,0,17.4-0.2,30.9-13.6c11.3-11.3,17-28.1,17.1-49.9c0-15.7,0-127.6,0-150.2H115.2z"/>
		</g>
		<polygon class="st1" points="60.6,-1.7 56.3,-1.7 -0.4,-1.7 -1.6,171.7 -1.6,186.9 -1.6,308.4 -1.6,316 -0.4,521.7 81.8,521.7 
			81.8,61.9 81.8,57.4 81.8,-1.7 		"/>
		<path class="st2" d="M15.5,295.6c5.3-15.9-8-41,3.4-63.5c8.4-16.6,5.7-35.8-14.9-47.3c-2-1.1-4.1-2.6-5.2-4.6v127.8
			C1.7,307.8,12.1,305.6,15.5,295.6z"/>
		<path class="st10" d="M23.8,283.4c-1.5-21.4-5.2-35.2,0-45.9c7.3-15,9.2-31.9-0.6-45.6c-8.6-12.1-24.7-12.7-24.7-27.6v16
			c1.1,1.9,3.2,3.4,5.2,4.6c20.6,11.5,23.3,30.7,14.9,47.3c-11.3,22.5,2,47.6-3.4,63.5c-3.4,10-13.7,12.2-16.8,12.4v7.9
			C-1.4,316,25.9,313.9,23.8,283.4z"/>
		<g class="st3">
			<g>
				<path class="st8" d="M458.9,51.1c25,0,25-23.5,25-31.2v-48.1h-5.8v48.1c0,12.6-2.3,25.4-19.3,25.4V51.1z"/>
			</g>
			<g>
				<path class="st8" d="M458.9,177.5V-1.7h-37.7v81.1v5v88.2v4.3v94.3h37.1c-3.7-3.4-9.4-5.4-13.1-10.6c-6.6-9.2-5.3-20.6-0.4-30.7
					c3.5-7.2,1-16.5,0-30.9C443.8,183.6,453.8,178.9,458.9,177.5z"/>
				<path class="st9" d="M435.9,115.9c-5.8-10.1-2.9-19.6-3.2-38.6c-0.3-19-11.5-19.5-11.5-19.5v5c0,0,7.2,1,7.4,15.1
					c0.2,14.1-1.8,28.3,3,37.8c4.6,9.1,10.5,29.3-10.4,35.3v4.3C443.8,150.9,442.7,127.8,435.9,115.9z"/>
				<path class="st7" d="M431.6,115.7c-4.8-9.5-2.8-23.7-3-37.8c-0.2-14.1-7.4-15.1-7.4-15.1V151C442.2,145,436.2,124.7,431.6,115.7
					z"/>
				<path class="st9" d="M450.5,190.6c-3.6,10.7,5.4,27.6-2.3,42.8c-5.6,11.2-3.8,24.1,10.1,31.9c0.2,0.1,0.4,0.2,0.6,0.3v-82.8
					C456,183.8,452.1,185.9,450.5,190.6z"/>
				<path class="st7" d="M444.9,198.9c1,14.4,3.5,23.7,0,30.9c-4.9,10.1-6.2,21.5,0.4,30.7c3.7,5.2,9.4,7.2,13.1,10.6h0.6v-5.5
					c-0.2-0.1-0.4-0.2-0.6-0.3c-13.9-7.8-15.7-20.7-10.1-31.9c7.6-15.2-1.3-32.1,2.3-42.8c1.6-4.7,5.5-6.8,8.4-7.8v-5.4
					C453.8,178.9,443.8,183.6,444.9,198.9z"/>
			</g>
			<g>
				<path class="st8" d="M421.2,135.1C421.2,135.1,421.2,135.1,421.2,135.1l0-3.1l0-3.1c0,0-3.7-0.1-7.1-2.6
					c-4.7-3.4-7.1-9.6-7.1-18.3c0-23.8,0-115.8,0-116.1l-6.2,0c0,0.3,0,92.4,0,116.1c0,9.3,2.5,16.5,7.3,21.3
					C413.8,135,420.8,135.1,421.2,135.1z"/>
			</g>
		</g>
		<g class="st3">
			<g>
				<g>
					<g>
						<g>
							<g>
								<g>
									<path class="st14" d="M966.5,101.7c-0.3-6.8,3.2-9.1,5.3-9.9c-1.4-1.3-2.9-2.9-4.6-5.2c-5.8-8.2-13.4-3-13.4-3
										c-15.9,3.1-13.6,16.4-13.6,16.4s14.6,24.5,25.7,21C961.5,115.1,966.9,110.6,966.5,101.7z"/>
									<path class="st4" d="M966.5,101.7c-0.3-6.8,3.2-9.1,5.3-9.9c-1.4-1.3-2.9-2.9-4.6-5.2c-5.8-8.2-13.4-3-13.4-3
										c-15.9,3.1-13.6,16.4-13.6,16.4s14.6,24.5,25.7,21C961.5,115.1,966.9,110.6,966.5,101.7z"/>
								</g>
								<g>
									<path class="st14" d="M979.5,102.8c0-6.3-3.2-6.9-7.7-11c-2.1,0.8-5.6,3.1-5.3,9.9c0.4,8.9-5,13.5-0.6,19.3
										c0.1,0,0.3-0.1,0.4-0.1C977.1,116.7,979.5,109,979.5,102.8z"/>
									<path class="st4" d="M979.5,102.8c0-6.3-3.2-6.9-7.7-11c-2.1,0.8-5.6,3.1-5.3,9.9c0.4,8.9-5,13.5-0.6,19.3
										c0.1,0,0.3-0.1,0.4-0.1C977.1,116.7,979.5,109,979.5,102.8z"/>
								</g>
							</g>
							<path class="st5" d="M938,105.5c-0.9,4.6,0.1,12.1,10.9,15.2c14.2,4,19.7,0.1,22.1-4.4s3.7-11.1,0-14.3
								c-3.7-3.2-5-5.4-6.5-8.6c-2.4-5-10.2-8.6-18-3.7C940.2,93.7,938.7,101.8,938,105.5z"/>
						</g>
					</g>
				</g>
				<path class="st5" d="M951.5,121.3c0,0-2.9-11.7,0.8-19.6"/>
			</g>
			<g>
				<g>
					<g>
						<g>
							<g>
								<g>
									<path class="st14" d="M1013.8,90.8c-0.3-6.8,3.2-9.1,5.3-9.9c-1.4-1.3-2.9-2.9-4.6-5.2c-5.8-8.2-13.4-3-13.4-3
										c-15.9,3.1-13.6,16.4-13.6,16.4s14.6,24.5,25.7,21C1008.8,104.3,1014.3,99.7,1013.8,90.8z"/>
									<path class="st4" d="M1013.8,90.8c-0.3-6.8,3.2-9.1,5.3-9.9c-1.4-1.3-2.9-2.9-4.6-5.2c-5.8-8.2-13.4-3-13.4-3
										c-15.9,3.1-13.6,16.4-13.6,16.4s14.6,24.5,25.7,21C1008.8,104.3,1014.3,99.7,1013.8,90.8z"/>
								</g>
								<g>
									<path class="st14" d="M1026.9,91.9c0-6.3-3.2-6.9-7.7-11c-2.1,0.8-5.6,3.1-5.3,9.9c0.4,8.9-5,13.5-0.6,19.3
										c0.1,0,0.3-0.1,0.4-0.1C1024.5,105.9,1026.9,98.2,1026.9,91.9z"/>
									<path class="st4" d="M1026.9,91.9c0-6.3-3.2-6.9-7.7-11c-2.1,0.8-5.6,3.1-5.3,9.9c0.4,8.9-5,13.5-0.6,19.3
										c0.1,0,0.3-0.1,0.4-0.1C1024.5,105.9,1026.9,98.2,1026.9,91.9z"/>
								</g>
							</g>
							<path class="st5" d="M985.3,94.6c-0.9,4.6,0.1,12.1,10.9,15.2c14.2,4,19.7,0.1,22.1-4.4s3.7-11.1,0-14.3s-5-5.4-6.5-8.6
								c-2.4-5-10.2-8.6-18-3.7C987.5,82.9,986,90.9,985.3,94.6z"/>
						</g>
					</g>
				</g>
				<path class="st5" d="M998.8,110.5c0,0-2.9-11.7,0.8-19.6"/>
			</g>
			<g>
				<g>
					<g>
						<g>
							<g>
								<g>
									<path class="st14" d="M1059.9,80.4c-0.3-6.8,3.2-9.1,5.3-9.9c-1.4-1.3-2.9-2.9-4.6-5.2c-5.8-8.2-13.4-3-13.4-3
										c-15.9,3.1-13.6,16.4-13.6,16.4s14.6,24.5,25.7,21C1054.9,93.9,1060.3,89.4,1059.9,80.4z"/>
									<path class="st4" d="M1059.9,80.4c-0.3-6.8,3.2-9.1,5.3-9.9c-1.4-1.3-2.9-2.9-4.6-5.2c-5.8-8.2-13.4-3-13.4-3
										c-15.9,3.1-13.6,16.4-13.6,16.4s14.6,24.5,25.7,21C1054.9,93.9,1060.3,89.4,1059.9,80.4z"/>
								</g>
								<g>
									<path class="st14" d="M1072.9,81.6c0-6.3-3.2-6.9-7.7-11c-2.1,0.8-5.6,3.1-5.3,9.9c0.4,8.9-5,13.5-0.6,19.3
										c0.1,0,0.3-0.1,0.4-0.1C1070.6,95.5,1072.9,87.8,1072.9,81.6z"/>
									<path class="st4" d="M1072.9,81.6c0-6.3-3.2-6.9-7.7-11c-2.1,0.8-5.6,3.1-5.3,9.9c0.4,8.9-5,13.5-0.6,19.3
										c0.1,0,0.3-0.1,0.4-0.1C1070.6,95.5,1072.9,87.8,1072.9,81.6z"/>
								</g>
							</g>
							<path class="st5" d="M1031.4,84.3c-0.9,4.6,0.1,12.1,10.9,15.2c14.2,4,19.7,0.1,22.1-4.4s3.7-11.1,0-14.3s-5-5.4-6.5-8.6
								c-2.4-5-10.2-8.6-18-3.7C1033.6,72.5,1032.1,80.5,1031.4,84.3z"/>
						</g>
					</g>
				</g>
				<path class="st5" d="M1044.9,100.1c0,0-2.9-11.7,0.8-19.6"/>
			</g>
			<g>
				<g>
					<g>
						<g>
							<g>
								<g>
									<path class="st14" d="M995.7,135.3c-0.3-6.8,3.2-9.1,5.3-9.9c-1.4-1.3-2.9-2.9-4.6-5.2c-5.8-8.2-13.4-3-13.4-3
										c-15.9,3.1-13.6,16.4-13.6,16.4s14.6,24.5,25.7,21C990.6,148.8,996.1,144.2,995.7,135.3z"/>
									<path class="st4" d="M995.7,135.3c-0.3-6.8,3.2-9.1,5.3-9.9c-1.4-1.3-2.9-2.9-4.6-5.2c-5.8-8.2-13.4-3-13.4-3
										c-15.9,3.1-13.6,16.4-13.6,16.4s14.6,24.5,25.7,21C990.6,148.8,996.1,144.2,995.7,135.3z"/>
								</g>
								<g>
									<path class="st14" d="M1008.7,136.5c0-6.3-3.2-6.9-7.7-11c-2.1,0.8-5.6,3.1-5.3,9.9c0.4,8.9-5,13.5-0.6,19.3
										c0.1,0,0.3-0.1,0.4-0.1C1006.3,150.4,1008.7,142.7,1008.7,136.5z"/>
									<path class="st4" d="M1008.7,136.5c0-6.3-3.2-6.9-7.7-11c-2.1,0.8-5.6,3.1-5.3,9.9c0.4,8.9-5,13.5-0.6,19.3
										c0.1,0,0.3-0.1,0.4-0.1C1006.3,150.4,1008.7,142.7,1008.7,136.5z"/>
								</g>
							</g>
							<path class="st5" d="M967.1,139.1c-0.9,4.6,0.1,12.1,10.9,15.2c14.2,4,19.7,0.1,22.1-4.4c2.4-4.5,3.7-11.1,0-14.3
								c-3.7-3.2-5-5.4-6.5-8.6c-2.4-5-10.2-8.6-18-3.7C969.3,127.4,967.9,135.4,967.1,139.1z"/>
						</g>
					</g>
				</g>
				<path class="st5" d="M980.7,155c0,0-2.9-11.7,0.8-19.6"/>
			</g>
			<g>
				<g>
					<g>
						<g>
							<g>
								<g>
									<path class="st14" d="M1043,124.5c-0.3-6.8,3.2-9.1,5.3-9.9c-1.4-1.3-2.9-2.9-4.6-5.2c-5.8-8.2-13.4-3-13.4-3
										c-15.9,3.1-13.6,16.4-13.6,16.4s14.6,24.5,25.7,21C1038,137.9,1043.5,133.4,1043,124.5z"/>
									<path class="st4" d="M1043,124.5c-0.3-6.8,3.2-9.1,5.3-9.9c-1.4-1.3-2.9-2.9-4.6-5.2c-5.8-8.2-13.4-3-13.4-3
										c-15.9,3.1-13.6,16.4-13.6,16.4s14.6,24.5,25.7,21C1038,137.9,1043.5,133.4,1043,124.5z"/>
								</g>
								<g>
									<path class="st14" d="M1056,125.6c0-6.3-3.2-6.9-7.7-11c-2.1,0.8-5.6,3.1-5.3,9.9c0.4,8.9-5,13.5-0.6,19.3
										c0.1,0,0.3-0.1,0.4-0.1C1053.7,139.5,1056,131.8,1056,125.6z"/>
									<path class="st4" d="M1056,125.6c0-6.3-3.2-6.9-7.7-11c-2.1,0.8-5.6,3.1-5.3,9.9c0.4,8.9-5,13.5-0.6,19.3
										c0.1,0,0.3-0.1,0.4-0.1C1053.7,139.5,1056,131.8,1056,125.6z"/>
								</g>
							</g>
							<path class="st5" d="M1014.5,128.3c-0.9,4.6,0.1,12.1,10.9,15.2c14.2,4,19.7,0.1,22.1-4.4c2.4-4.5,3.7-11.1,0-14.3
								c-3.7-3.2-5-5.4-6.5-8.6c-2.4-5-10.2-8.6-18-3.7C1016.7,116.5,1015.2,124.6,1014.5,128.3z"/>
						</g>
					</g>
				</g>
				<path class="st5" d="M1028,144.1c0,0-2.9-11.7,0.8-19.6"/>
			</g>
			<g>
				<g>
					<g>
						<g>
							<g>
								<g>
									<path class="st14" d="M1089.1,114.1c-0.3-6.8,3.2-9.1,5.3-9.9c-1.4-1.3-2.9-2.9-4.6-5.2c-5.8-8.2-13.4-3-13.4-3
										c-15.9,3.1-13.6,16.4-13.6,16.4s14.6,24.5,25.7,21C1084.1,127.6,1089.5,123,1089.1,114.1z"/>
									<path class="st4" d="M1089.1,114.1c-0.3-6.8,3.2-9.1,5.3-9.9c-1.4-1.3-2.9-2.9-4.6-5.2c-5.8-8.2-13.4-3-13.4-3
										c-15.9,3.1-13.6,16.4-13.6,16.4s14.6,24.5,25.7,21C1084.1,127.6,1089.5,123,1089.1,114.1z"/>
								</g>
								<g>
									<path class="st14" d="M1102.1,115.2c0-6.3-3.2-6.9-7.7-11c-2.1,0.8-5.6,3.1-5.3,9.9c0.4,8.9-5,13.5-0.6,19.3
										c0.1,0,0.3-0.1,0.4-0.1C1099.7,129.1,1102.1,121.4,1102.1,115.2z"/>
									<path class="st4" d="M1102.1,115.2c0-6.3-3.2-6.9-7.7-11c-2.1,0.8-5.6,3.1-5.3,9.9c0.4,8.9-5,13.5-0.6,19.3
										c0.1,0,0.3-0.1,0.4-0.1C1099.7,129.1,1102.1,121.4,1102.1,115.2z"/>
								</g>
							</g>
							<path class="st5" d="M1060.6,117.9c-0.9,4.6,0.1,12.1,10.9,15.2c14.2,4,19.7,0.1,22.1-4.4c2.4-4.5,3.7-11.1,0-14.3
								c-3.7-3.2-5-5.4-6.5-8.6c-2.4-5-10.2-8.6-18-3.7C1062.8,106.1,1061.3,114.2,1060.6,117.9z"/>
						</g>
					</g>
				</g>
				<path class="st5" d="M1074.1,133.8c0,0-2.9-11.7,0.8-19.6"/>
			</g>
		</g>
		<g class="st3">
			<path class="st6" d="M1078.7,43.8c2.3-0.4,2.6-3.7,0.3-4.4v0l2.1-1c2-0.9,1.7-3.8-0.5-4.3l-2.3-0.5l2-1.2c1.9-1.1,1.3-4-0.9-4.2
				l-2.3-0.3l1.7-1.3c1.7-1.3,0.8-4.1-1.4-4.1l-2.2,0l1.4-1.4c1.6-1.6,0.2-4.2-2-3.9l-2,0.3l1-1.4c1.3-1.8-0.5-4.2-2.6-3.5l-1.6,0.6
				l0.6-1.4c0.9-2.1-1.4-4-3.3-2.8l-1.3,0.8l0.3-1.6c0.4-2.2-2.3-3.6-3.9-2l-1.1,1.1l-0.1-1.8c-0.1-2.2-3-3-4.2-1.1l-0.9,1.5
				l-0.5-1.9c-0.5-2.1-3.5-2.4-4.3-0.3l-0.8,1.9l-0.8-1.9c-0.9-2-3.8-1.8-4.3,0.3l-0.5,1.9l-0.9-1.5c-1.2-1.9-4.1-1.1-4.2,1.1
				l-0.1,1.8l-1.1-1.1c-1.6-1.6-4.3-0.2-3.9,2l0.3,1.6l-1.3-0.8c-1.9-1.2-4.2,0.8-3.3,2.8l0.6,1.4l-1.6-0.6
				c-2.1-0.8-3.9,1.6-2.6,3.5l1,1.4l-1.9-0.3c-2.2-0.3-3.5,2.3-2,3.9l1.4,1.4l-2.2,0c-2.2,0-3.1,2.8-1.4,4.1l1.7,1.3l-2.3,0.3
				c-2.2,0.3-2.7,3.1-0.9,4.2l2,1.2l-2.3,0.5c-2.1,0.5-2.4,3.4-0.5,4.3l2.1,1v0c-2.2,0.8-2,4,0.3,4.4c0,0,12.5,3.1,28.7,3.1
				C1062.2,46.9,1078.7,43.8,1078.7,43.8z"/>
			<path class="st4" d="M1057.9,19.9c0,0,1.2-3.2,3-2.1c1.8,1.1,0,3.8,0,3.8"/>
		</g>
		<g class="st3">
			<g>
				<path class="st9" d="M1193,70.5L1193,70.5l1.2-1.4c1.9-2.1,0.4-5.6-2.5-5.5l-1.8,0l0.9-1.4c1.5-2.5-0.6-5.6-3.5-5l-1.7,0.3
					l0.5-1.4c1-2.7-1.8-5.4-4.4-4.2l-1.4,0.6l0.2-1.5c0.4-2.9-3-4.8-5.3-3l-1.2,0.9l-0.2-1.6c-0.3-2.9-4-4-5.8-1.7l-1,1.2l-0.6-1.7
					c-0.9-2.7-4.7-3.1-6-0.5l-0.9,1.6l-0.8-1.6c-1.4-2.5-5.1-2.2-6,0.5l-0.6,1.7l-1-1.2c-1.8-2.3-5.5-1.2-5.8,1.7l-0.2,1.6l-1.1-0.9
					c-2.3-1.8-5.7,0.1-5.3,3l0.2,1.4l-1.4-0.6c-2.7-1.2-5.5,1.4-4.4,4.2l0.5,1.4l-1.6-0.3c-2.8-0.6-5,2.5-3.5,5l0.9,1.4l-1.8,0
					c-2.9,0-4.4,3.4-2.5,5.5l1.2,1.3l0,0c-3.1,0.5-3.8,4.6-1.1,6.1l0.7,0.4c0,0,8.7,3.8,34.6,3.8c21.2,0,32.9-3.8,32.9-3.8l0.7-0.4
					C1196.8,75.1,1196.1,71,1193,70.5z"/>
			</g>
			<path class="st4" d="M1155.1,65.7c0,0-2-3.8,0.4-5.1c2.4-1.4,4.4,2.5,4.4,2.5"/>
		</g>
		<g class="st3">
			<rect x="678.5" y="-1.7" class="st8" width="29.9" height="171.6"/>
			<g>
				<path class="st8" d="M678.4,80.1C678.4,80.1,678.5,80.1,678.4,80.1l0-2l0-2c0,0-2.4,0-4.7-1.7c-3.1-2.2-4.6-6.2-4.6-11.9
					c0-15.5,0-66.9,0-67.2l-4.1,0c0,0.2,0,51.7,0,67.2c0,6.1,1.6,10.8,4.7,13.9C673.6,80.1,678.2,80.1,678.4,80.1z"/>
			</g>
			<path class="st9" d="M697.6,101.7c4.3-7.4,2.2-14.5,2.4-28.5c0.2-14,8.4-14.4,8.4-14.4v3.7c0,0-5.3,0.7-5.5,11.1
				s1.3,20.8-2.2,27.9c-3.4,6.7-7.8,21.6,7.7,26v3.2C691.8,127.4,692.6,110.5,697.6,101.7z"/>
			<path class="st7" d="M700.7,101.5c3.5-7,2.1-17.5,2.2-27.9s5.5-11.1,5.5-11.1v65C693,123.1,697.4,108.2,700.7,101.5z"/>
		</g>
		<path class="st10" d="M678.5,37.5c11-1.6,13.6-9.1,12.5-20.8c-1.6-17.6,6.2-18.4,6.2-18.4l-18.7-0.1V37.5z"/>
		<path class="st12" d="M383.3,282.9l2.2-2.7l-2.6-1.8c-3.4-2.4-2.6-7.6,1.3-8.9l3-1l-2.5-2c-3.3-2.6-2.1-7.8,1.9-8.8l3.1-0.8
			l-2.2-2.1c-3.1-2.9-1.5-8,2.7-8.6l3-0.5l-1.8-2.1c-2.8-3.2-0.5-8.2,3.7-8.3l2.7-0.1l-1.1-1.8c-2.3-3.7,0.9-8.4,5.2-7.6l2,0.4
			l-0.2-0.8c-1.3-4.3,3.4-8,7.3-5.8l0.7,0.4v0c0.6-4.6,6.6-6,9.2-2.1l0,0l0,0c2.6-3.8,8.5-2.4,9.2,2.1l0,0l0.7-0.4
			c3.9-2.3,8.6,1.4,7.3,5.8l-0.2,0.8l2-0.4c4.3-0.8,7.5,3.8,5.2,7.6l-1.1,1.8l2.7,0.1c4.2,0.1,6.5,5.1,3.7,8.3l-1.8,2.1l3,0.4
			c4.1,0.6,5.8,5.7,2.7,8.6l-2.2,2.1l3.1,0.8c4,1,5.2,6.2,2,8.8l-2.5,2l3.1,1c4,1.3,4.7,6.5,1.3,8.9l-2.6,1.8l2.2,2.7
			c2.7,3.3,0.3,8.2-3.9,8.2c0,0-16.3,2.2-33.5,2.2c-19.8,0-34-2.2-34-2.2C383,291,380.6,286.2,383.3,282.9z"/>
		<g class="st3">
			<path class="st9" d="M939.8,208.8c3.8-5.5,12.5-4.2,17.4,2.9c7,10,8.2,14.2,22.8,19.7c13.6,5.1,2.5,17.3,14.6,23.5
				c7.2,3.7,6.3,16.1,4.4,20.9c0,0-15.3,3.4-19.7-9.8c-3.9-11.6-16.6-2.9-19.7-17.8c-3-14.5-10.4-17.4-17-23.9
				C937.5,219.3,937.3,212.5,939.8,208.8z"/>
			<path class="st4" d="M939.8,208.8c13.1,7.3,56.2,52.4,67.1,83.3"/>
		</g>
		<g class="st3">
			<path class="st8" d="M697.5,184c4.9-0.9,5.4-7.7,0.7-9.3h0l4.5-2.1c4.1-1.9,3.5-8-1-9.1l-4.8-1.1l4.2-2.5
				c3.9-2.3,2.7-8.4-1.8-8.9l-4.8-0.6l3.6-2.8c3.7-2.8,1.7-8.7-2.9-8.7l-4.6,0l2.9-3c3.3-3.3,0.5-8.9-4.1-8.2l-4.1,0.6l2.1-3
				c2.7-3.9-1.1-8.9-5.6-7.3l-3.5,1.2l1.3-3c1.9-4.4-3-8.5-7-6l-2.8,1.8l0.6-3.3c0.8-4.7-4.9-7.6-8.2-4.2l-2.3,2.4l-0.2-3.7
				c-0.2-4.7-6.4-6.3-8.9-2.3l-2,3.1l-1-4.1c-1.1-4.5-7.3-5-9.1-0.7l-1.6,3.9l-1.6-3.9c-1.8-4.3-8-3.8-9.1,0.7l-1,4.1l-2-3.1
				c-2.5-4-8.6-2.4-8.9,2.3l-0.2,3.7l-2.3-2.4c-3.3-3.4-9-0.5-8.2,4.2l0.6,3.3l-2.8-1.8c-4-2.5-8.9,1.6-7,6l1.3,3l-3.5-1.2
				c-4.4-1.6-8.3,3.5-5.6,7.3l2.1,3l-4.1-0.6c-4.6-0.7-7.4,4.9-4.1,8.2l2.9,3l-4.6,0c-4.6,0-6.6,5.9-2.9,8.7l3.6,2.8l-4.8,0.6
				c-4.6,0.6-5.8,6.6-1.8,8.9l4.2,2.5l-4.9,1.1c-4.5,1-5.1,7.1-1,9.1l4.5,2.1l0,0c-4.7,1.6-4.2,8.4,0.7,9.3c0,0,25.8,6.4,60.5,6.4
				C665.5,190.4,697.5,184,697.5,184z"/>
			<path class="st4" d="M653.6,133.7c0,0,2.5-6.7,6.3-4.4c3.8,2.3,0,8,0,8"/>
		</g>
		<g class="st3">
			<path class="st5" d="M412,472.6L412,472.6C412,472.6,412,472.6,412,472.6c-0.5-0.7-1-1.4-1.6-2c-1.2-1.3-2.2-2.7-3.1-4.2
				c-4.1-7.5-4.4-15.7-4.4-18.8c0-0.4,0-0.8,0-1.2c0-8-4.2-14.5-12-14.5c-7.7,0-12,6.5-12,14.5c0.6,12.4-10.8,23.1-10.8,23.1l0,0
				c-4,4.1-6.5,9.3-6.5,15.1c0,12.8,12.1,23.2,27.1,23.2c14.9,0,27.1-10.4,27.1-23.2C415.9,480.1,414.5,476.1,412,472.6z"/>
			<path class="st4" d="M389.7,457.4c0,0,2.3,50.3-15.1,64.2"/>
			<path class="st4" d="M383.8,469.8c0,0,0.9,3.9,5.5,3.9c4.6,0,6.3-3.9,6.3-3.9"/>
			<path class="st4" d="M377.8,488.3c0,0,1.7,5.3,9.1,6c7.8,0.7,11-6,11-6"/>
		</g>
		<rect x="1065.4" y="-1.7" class="st1" width="25.4" height="307.7"/>
		<path class="st10" d="M1065.4,37.5c11-1.6,13.6-9.1,12.5-20.8c-1.6-17.6,6.2-18.4,6.2-18.4l-18.7-0.1V37.5z"/>
		<path class="st2" d="M1065.4,34.2c0,0,11,0.7,9.7-17.1c-1.4-17.9,4.3-18.8,4.3-18.8h-14V34.2z"/>
		<g class="st3">
			<path class="st7" d="M1073.5,230.9c2.6-7.6-3.8-19.7,1.6-30.6c4-8,2.7-17.3-7.2-22.8c-1-0.5-2-1.3-2.5-2.2v61.6
				C1066.9,236.7,1071.9,235.7,1073.5,230.9z"/>
			<path class="st9" d="M1077.5,225c-0.7-10.3-2.5-16.9,0-22.1c3.5-7.2,4.4-15.4-0.3-22c-4.1-5.8-11.9-6.1-11.9-13.3v7.7
				c0.5,0.9,1.5,1.7,2.5,2.2c9.9,5.5,11.2,14.8,7.2,22.8c-5.5,10.9,1,23-1.6,30.6c-1.6,4.8-6.6,5.9-8.1,6v3.8
				C1065.4,240.7,1078.5,239.7,1077.5,225z"/>
		</g>
		<rect x="1157.2" y="-1.7" class="st1" width="29.5" height="299.7"/>
		<path class="st2" d="M1175.6,72.5c5,8.7,2.5,16.8,2.8,33.1c0.3,16.3,9.8,16.7,9.8,16.7v-4.3c0,0-6.2-0.8-6.4-12.9
			s1.5-24.3-2.6-32.4c-3.9-7.8-9-25.1,8.9-30.3v-3.7C1168.8,42.5,1169.8,62.3,1175.6,72.5z"/>
		<path class="st10" d="M1179.3,72.7c4.1,8.2,2.4,20.3,2.6,32.4s6.4,12.9,6.4,12.9V42.4C1170.2,47.6,1175.3,64.9,1179.3,72.7z"/>
		<g class="st3">
			<path class="st8" d="M1157.3,187.2c-5.3,0-9.8-1.8-13.3-5.3c-7.6-7.6-7.5-20.7-7.5-21.3c0-10.7,0-162.1,0-162.1h5.7
				c0,0,0,151.4,0,162.1c0,0.1,0,11.4,5.9,17.3c2.4,2.4,5.4,3.6,9.2,3.6V187.2z"/>
		</g>
		<g class="st3">
			<path class="st4" d="M1114.4,176.7c0,21.4,11.2,51.8,48.2,85.8"/>
			<circle class="st9" cx="1115" cy="173.4" r="3.4"/>
			<circle class="st9" cx="1129.8" cy="199.3" r="3.4"/>
			<circle class="st6" cx="1104" cy="186.7" r="1.9"/>
			<circle class="st9" cx="1108.3" cy="213.6" r="1.9"/>
			<path class="st4" d="M1104,188.6c0,0,0,16.9,17.3,19.1"/>
			<path class="st4" d="M1126.5,218.4c0,0,5.4-4.8,4-15.8"/>
			<path class="st4" d="M1109.3,215.4c0,0,7.2,14.7,20,7.9"/>
		</g>
		<g class="st3">
			<path class="st4" d="M251.1,433.1c4.4-63.3,110.4-175.5,176.1-175.5"/>
			<path class="st9" d="M424.3,257.8c0,0-2.2-17.6,13.9-27.4C438.2,230.5,441.3,252.2,424.3,257.8z"/>
			<path class="st9" d="M414.1,224.8c0,0-21.1,13.9-14.5,38.1C399.7,262.9,418.7,253.2,414.1,224.8z"/>
			<path class="st9" d="M390.1,221.4c0,0-30.2,16.5-19.9,56.2C370.2,277.7,394.3,258.1,390.1,221.4z"/>
			<path class="st9" d="M353.6,231.6c0,0-29.2,31-9,64C344.6,295.5,366.5,272.6,353.6,231.6z"/>
			<path class="st9" d="M399.7,263.1c0,0,0,19.8,34.1,21.8C433.8,284.9,420.9,257.9,399.7,263.1z"/>
			<path class="st9" d="M424.3,257.8c0,0,4,13.7,23.2,13.4C447.5,271.2,441.4,255.5,424.3,257.8z"/>
			<path class="st9" d="M370.2,277.7c0,0,12.6,31.1,55.3,30C425.5,307.7,404.9,272.3,370.2,277.7z"/>
			<path class="st9" d="M344.6,295.5c0,0,13,34.9,60.7,30.7C405.3,326.2,381.1,292.4,344.6,295.5z"/>
			<path class="st9" d="M320.1,317.4c0,0-24.5-29.3-0.5-70.5C319.6,246.8,339,283.7,320.1,317.4z"/>
			<path class="st9" d="M388.4,353.4c0,0-57.1,2.1-68.2-36.1C320.2,317.3,360.1,311.9,388.4,353.4z"/>
			<path class="st9" d="M291.9,348.9c0,0-28.1-22.4-6.8-78.2C285.2,270.7,314.1,316.7,291.9,348.9z"/>
			<path class="st9" d="M372.3,374.1c0,0-68.9,12.9-80.3-25.2C292,348.9,331,335.5,372.3,374.1z"/>
			<path class="st9" d="M251.1,297.1c0,0-22.5,57.7,17.3,87C268.3,384.1,286.1,342.4,251.1,297.1z"/>
			<path class="st9" d="M365,402c0,0-72.7,16.2-96.6-17.9C268.3,384.1,310.3,364.4,365,402z"/>
		</g>
		<path class="st2" d="M1010.1,172.5c10.6-4.5,19.1,13.7,20.2,27.4c1.2,14.8,10.4,15.3,16.5,27c6.1,11.8,3.4,31.3-5.9,39.1
			c0,0-23.2-6-25.6-30.1c-1.2-12.4,3.8-21.4-2.8-30.3C1005.5,196.3,1000.1,176.8,1010.1,172.5z"/>
		<path class="st15" d="M949.7,162.1c6.5-5.4,16.1-1,22.6,10.2c6.2,10.7,7.9,18.2,22.1,25.4c17.2,8.6,22.8,25.7,23,38.2
			c0.1,8.4,2.9,15,10.4,20c8.4,5.6,10.8,14.8,4.3,30.2c-10.9-0.6-20.7-3-24-18.3c-2.8-12.8-9-16.2-13.8-17.6
			c-4.1-1.2-22.9-7.7-27.3-38.2c-2.5-17.1-8.3-16.7-16-27.9C945.7,176.2,943.9,166.9,949.7,162.1z"/>
		<g class="st3">
			<g>
				<path class="st7" d="M529.1,198.8l-7.8,4.2l-7.6-4.6l-3.3,4.3c0,0,6.8,5.7,6.4,18.7l3.9,0.1l3.9,0.1c0.4-13,7.5-18.3,7.5-18.3
					L529.1,198.8z"/>
				<line class="st4" x1="521" y1="209.6" x2="521.1" y2="203.9"/>
				<path class="st5" d="M540.3,188.1c0.2-0.7,0.4-1.5,0.4-2.3c0.1-5-3.8-9.2-8.8-9.3c-0.4,0-0.9,0-1.3,0.1c-0.8-4-4.3-7.1-8.6-7.2
					c-4.3-0.1-7.9,2.7-9,6.6c-0.3,0-0.7-0.1-1-0.1c-5-0.1-9.2,3.8-9.3,8.8c0,0.8,0.1,1.5,0.2,2.2c-2.8,1.1-5.1,3.6-5.6,6.8
					c-0.9,4.9,2.4,9.6,7.3,10.5c3.6,0.6,7-0.9,9-3.7c1.6,2.5,4.3,4.2,7.4,4.3c3.1,0.1,6-1.4,7.7-3.8c1.6,2.5,4.3,4.2,7.4,4.2
					c5,0.1,9.2-3.8,9.3-8.8C545.4,192.8,543.4,189.6,540.3,188.1z"/>
			</g>
			<path class="st6" d="M495.5,212.5c1.4-6.1,8-6.7,10.9-4c3.5,3.2,3.6,8.3,12.3,9.3c5.5,0.6,3.6,7.6-6.7,7.5
				C499.2,225,494.5,217.3,495.5,212.5z"/>
			<path class="st6" d="M546.3,213.5c-1.1-6.1-7.8-7-10.7-4.5c-3.6,3-3.9,8.1-12.6,8.8c-5.5,0.4-3.9,7.4,6.4,7.7
				C542.1,225.9,547.2,218.3,546.3,213.5z"/>
		</g>
		<g class="st3">
			<g>
				<path class="st7" d="M589.8,185l-7.8,4.2l-7.6-4.6l-3.3,4.3c0,0,6.8,5.7,6.4,18.7l3.9,0.1l3.9,0.1c0.4-13,7.5-18.3,7.5-18.3
					L589.8,185z"/>
				<line class="st4" x1="581.7" y1="195.8" x2="581.8" y2="190"/>
				<path class="st5" d="M601,174.2c0.2-0.7,0.4-1.5,0.4-2.3c0.1-5-3.8-9.2-8.8-9.3c-0.4,0-0.9,0-1.3,0.1c-0.8-4-4.3-7.1-8.6-7.2
					c-4.3-0.1-7.9,2.7-9,6.6c-0.3,0-0.7-0.1-1-0.1c-5-0.1-9.2,3.8-9.3,8.8c0,0.8,0.1,1.5,0.2,2.2c-2.8,1.1-5.1,3.6-5.6,6.8
					c-0.9,4.9,2.4,9.6,7.3,10.5c3.6,0.6,7-0.9,9-3.7c1.6,2.5,4.3,4.2,7.4,4.3c3.1,0.1,6-1.4,7.7-3.8c1.6,2.5,4.3,4.2,7.4,4.2
					c5,0.1,9.2-3.8,9.3-8.8C606.2,179,604.1,175.8,601,174.2z"/>
			</g>
			<path class="st6" d="M556.3,198.7c1.4-6.1,8-6.7,10.9-4c3.5,3.2,3.6,8.3,12.3,9.3c5.5,0.6,3.6,7.6-6.7,7.5
				C560,211.2,555.2,203.4,556.3,198.7z"/>
			<path class="st6" d="M607,199.7c-1.1-6.1-7.8-7-10.7-4.5c-3.6,3-3.9,8.1-12.6,8.8c-5.5,0.4-3.9,7.4,6.4,7.7
				C602.8,212,607.9,204.5,607,199.7z"/>
		</g>
		<g class="st3">
			<g>
				<path class="st7" d="M573,244.8l-7.8,4.2l-7.6-4.6l-3.3,4.3c0,0,6.8,5.7,6.4,18.7l3.9,0.1l3.9,0.1c0.4-13,7.5-18.3,7.5-18.3
					L573,244.8z"/>
				<line class="st4" x1="564.9" y1="255.6" x2="565" y2="249.8"/>
				<path class="st5" d="M584.2,234.1c0.2-0.7,0.4-1.5,0.4-2.3c0.1-5-3.8-9.2-8.8-9.3c-0.4,0-0.9,0-1.3,0.1c-0.8-4-4.3-7.1-8.6-7.2
					c-4.3-0.1-7.9,2.7-9,6.6c-0.3,0-0.7-0.1-1-0.1c-5-0.1-9.2,3.8-9.3,8.8c0,0.8,0.1,1.5,0.2,2.2c-2.8,1.1-5.1,3.6-5.6,6.8
					c-0.9,4.9,2.4,9.6,7.3,10.5c3.6,0.6,7-0.9,9-3.7c1.6,2.5,4.3,4.2,7.4,4.3c3.1,0.1,6-1.4,7.7-3.8c1.6,2.5,4.3,4.2,7.4,4.2
					c5,0.1,9.2-3.8,9.3-8.8C589.3,238.8,587.2,235.6,584.2,234.1z"/>
			</g>
			<path class="st6" d="M539.4,258.5c1.4-6.1,8-6.7,10.9-4c3.5,3.2,3.6,8.3,12.3,9.3c5.5,0.6,3.6,7.6-6.7,7.5
				C543.1,271,538.3,263.2,539.4,258.5z"/>
			<path class="st6" d="M590.2,259.5c-1.1-6.1-7.8-7-10.7-4.5c-3.6,3-3.9,8.1-12.6,8.8c-5.5,0.4-3.9,7.4,6.4,7.7
				C586,271.8,591,264.3,590.2,259.5z"/>
		</g>
		<g class="st3">
			<g>
				<path class="st7" d="M633.7,230.9l-7.8,4.2l-7.6-4.6l-3.3,4.3c0,0,6.8,5.7,6.4,18.7l3.9,0.1l3.9,0.1c0.4-13,7.5-18.3,7.5-18.3
					L633.7,230.9z"/>
				<line class="st4" x1="625.6" y1="241.7" x2="625.7" y2="236"/>
				<path class="st5" d="M644.9,220.2c0.2-0.7,0.4-1.5,0.4-2.3c0.1-5-3.8-9.2-8.8-9.3c-0.4,0-0.9,0-1.3,0.1c-0.8-4-4.3-7.1-8.6-7.2
					c-4.3-0.1-7.9,2.7-9,6.6c-0.3,0-0.7-0.1-1-0.1c-5-0.1-9.2,3.8-9.3,8.8c0,0.8,0.1,1.5,0.2,2.2c-2.8,1.1-5.1,3.6-5.6,6.8
					c-0.9,4.9,2.4,9.6,7.3,10.5c3.6,0.6,7-0.9,9-3.7c1.6,2.5,4.3,4.2,7.4,4.3c3.1,0.1,6-1.4,7.7-3.8c1.6,2.5,4.3,4.2,7.4,4.2
					c5,0.1,9.2-3.8,9.3-8.8C650,224.9,648,221.7,644.9,220.2z"/>
			</g>
			<path class="st6" d="M600.2,244.6c1.4-6.1,8-6.7,10.9-4c3.5,3.2,3.6,8.3,12.3,9.3c5.5,0.6,3.6,7.6-6.7,7.5
				C603.8,257.1,599.1,249.4,600.2,244.6z"/>
			<path class="st6" d="M650.9,245.6c-1.1-6.1-7.8-7-10.7-4.5c-3.6,3-3.9,8.1-12.6,8.8c-5.5,0.4-3.9,7.4,6.4,7.7
				C646.7,258,651.8,250.4,650.9,245.6z"/>
		</g>
		<g class="st3">
			<g>
				<path class="st7" d="M650.6,171.1l-7.8,4.2l-7.6-4.6l-3.3,4.3c0,0,6.8,5.7,6.4,18.7l3.9,0.1l3.9,0.1c0.4-13,7.5-18.3,7.5-18.3
					L650.6,171.1z"/>
				<line class="st4" x1="642.4" y1="181.9" x2="642.6" y2="176.2"/>
				<path class="st5" d="M661.8,160.4c0.2-0.7,0.4-1.5,0.4-2.3c0.1-5-3.8-9.2-8.8-9.3c-0.4,0-0.9,0-1.3,0.1c-0.8-4-4.3-7.1-8.6-7.2
					c-4.3-0.1-7.9,2.7-9,6.6c-0.3,0-0.7-0.1-1-0.1c-5-0.1-9.2,3.8-9.3,8.8c0,0.8,0.1,1.5,0.2,2.2c-2.8,1.1-5.1,3.6-5.6,6.8
					c-0.9,4.9,2.4,9.6,7.3,10.5c3.6,0.6,7-0.9,9-3.7c1.6,2.5,4.3,4.2,7.4,4.3c3.1,0.1,6-1.4,7.7-3.8c1.6,2.5,4.3,4.2,7.4,4.2
					c5,0.1,9.2-3.8,9.3-8.8C666.9,165.1,664.8,161.9,661.8,160.4z"/>
			</g>
			<path class="st6" d="M617,184.8c1.4-6.1,8-6.7,10.9-4c3.5,3.2,3.6,8.3,12.3,9.3c5.5,0.6,3.6,7.6-6.7,7.5
				C620.7,197.3,615.9,189.6,617,184.8z"/>
			<path class="st6" d="M667.7,185.8c-1.1-6.1-7.8-7-10.7-4.5c-3.6,3-3.9,8.1-12.6,8.8c-5.5,0.4-3.9,7.4,6.4,7.7
				C663.6,198.2,668.6,190.6,667.7,185.8z"/>
		</g>
		<g class="st3">
			<path class="st9" d="M199.5,185.2l8.1-0.2c2,0,3.5,1.8,3.1,3.7c-0.7,2.8-3.3,6.1-11.6,6.3L199.5,185.2z"/>
			<path class="st8" d="M198.8,185.2l1.3-2.4c1.1-2-0.4-4.5-2.7-4.5l-16.1,0.3c-6.5,0.1-12.6,2.7-17.2,7.2l0,0L198.8,185.2z"/>
			<path class="st8" d="M174.1,206.8C174.1,206.8,174.1,206.8,174.1,206.8c0,0,4.7,5.7,12.1,5.5c0.4-3.7-0.6-6.1-0.9-6.7
				c-3.1,0.7-6.6,1.2-10.3,1.2C174.7,206.8,174.4,206.8,174.1,206.8z"/>
			<path class="st7" d="M203.3,185.1l-39.2,0.8l0,0c0,0,0.9,2.2,0.8,5.2c0,3.4-1.2,7.9-6.1,11.6c4.2,2.6,9.4,4.4,15.7,4.4
				c0.2,0,0.4,0,0.7,0c2.9-0.1,5.5-0.4,7.9-0.9C201.9,202,203.3,185.3,203.3,185.1z"/>
			<path class="st8" d="M165.6,191.7l-1.3,0c-0.4,2.3-1.5,4.8-3.8,7.1l5.3-0.1c1.9,0,3.5-1.6,3.4-3.6v0
				C169.1,193.1,167.5,191.6,165.6,191.7z"/>
			<path class="st9" d="M164.1,185.9L164.1,185.9l-16.1,0.3c-1.6,0-2.6,1.8-1.8,3.2c2,3.5,6,9.1,12.3,13.1c0.2,0.1,0.4,0.1,0.6,0
				c0.5-0.4,0.9-0.8,1.3-1.2c2.5-2.4,3.7-5,4.1-7.4c0.2-1,0.3-1.9,0.3-2.8C165,188.1,164.1,185.9,164.1,185.9z"/>
			<circle cx="153.3" cy="189.9" r="0.8"/>
		</g>
		<g class="st3">
			<path class="st6" d="M379.1,443.3c-0.6-1.2-1.3-2.3-2-3.4l0,0c0,0,0,0,0,0c-0.4-0.5-0.8-1-1.2-1.5c-5.7-7.9-4.9-18.2-4.6-20.5
				c0-0.1,0.2-2.1,0.2-2.9c0-10.3-8.3-18.6-18.6-18.6s-18.6,8.3-18.6,18.6c0,0.8,0.3,3.6,0.5,4.2c0.6,4.1,1.4,14.3-4.3,21.9
				c-0.3,0.4-0.6,0.7-0.9,1.1c0,0,0,0.1-0.1,0.1l0,0c-6.1,8-7.9,18.3-3.6,27.1c6.3,12.9,23.4,18.1,38.1,10.9
				C378.7,473,385.5,456.2,379.1,443.3z"/>
			<path class="st4" d="M352.6,416.7c0,0,9.6,58.5-22,85.9"/>
			<path class="st4" d="M347.5,424.9c0.7,2.7,8.7,4.8,11.1-1.2"/>
			<path class="st4" d="M340.4,448.8c3.1,9.6,18.3,15,24.3-0.8"/>
		</g>
		<path class="st13" d="M949.7,162.1c28.4,33.6,84.7,107.4,84.7,135.2"/>
		<path class="st13" d="M1010.1,172.5c4.9,8.3,39.5,97.1,35.4,129.3"/>
		<path class="st12" d="M1034,182.8c8.2-5.7,15.9,9,19.7,22.5c2.8,9.8,17.2,13.9,15.2,29.6c-1.5,12-0.4,17.4,0.8,20.6
			c4.3,10.9,2.2,22.8-7,23.2s-8.5-11.2-10.1-18.7s-11-8.4-13.2-19c-2.3-11.3,3.8-20.8-0.5-30C1034.7,201.7,1026.7,187.9,1034,182.8z
			"/>
		<path class="st13" d="M1034.6,182.4c0,0,32,40.4,29.9,118.2"/>
		<path class="st2" d="M57.4,49.1c0-36.2-12.4-50.9-12.4-50.9h-7.5c0,0,12.5,14.1,13.2,41.9c0.6,27.8-3.9,61.9,31.2,68.9v-7.9
			C66,97.8,57.4,85.3,57.4,49.1z"/>
		<path class="st10" d="M44.9-1.7c0,0,12.4,14.6,12.4,50.9s8.6,48.7,24.5,52V-1.7H44.9z"/>
		<g class="st3">
			<path class="st8" d="M1090.8,88.7v-4.1c10,0,13.1-4.5,13.1-14.3V-1.5h4.1v71.8C1107.9,82.3,1103,88.7,1090.8,88.7z"/>
		</g>
		<g class="st3">
			<path class="st8" d="M1065.4,55c-19.2,0-19.2-18-19.2-23.9V-5.8h4.4v36.9c0,9.6,1.8,19.5,14.8,19.5V55z"/>
		</g>
		<g class="st3">
			<g>
				<g>
					<g>
						
							<rect x="513" y="388.4" transform="matrix(2.897334e-02 -0.9996 0.9996 2.897334e-02 116.2535 898.8334)" class="st8" width="15.5" height="2.4"/>
					</g>
					<g>
						
							<rect x="515.4" y="382.5" transform="matrix(0.9939 -0.1103 0.1103 0.9939 -39.827 59.3512)" class="st8" width="2.4" height="14.5"/>
					</g>
					<g>
						
							<rect x="517.4" y="388.7" transform="matrix(0.1279 -0.9918 0.9918 0.1279 70.79 860.3991)" class="st8" width="14.4" height="2.4"/>
					</g>
					<path class="st9" d="M526.3,396c-0.5,6-0.5,12.1,0.2,18.1c0.7,6,2.1,11.9,4.2,17.6c2.2,5.7,5.1,11,8.8,16
						c3.6,5,8,9.5,12.8,13.5l-2.5,3.4c-5.4-3.7-10.4-8.1-14.9-13c-4.4-5-8.3-10.6-11.3-16.6c-3-6-5.2-12.5-6.6-19.2
						c-1.4-6.6-2-13.4-2.1-20.2L526.3,396z"/>
					<line class="st4" x1="520.2" y1="410.1" x2="514.8" y2="416.4"/>
					<line class="st4" x1="523.6" y1="425.7" x2="518.3" y2="432.1"/>
					<line class="st4" x1="529.9" y1="439.7" x2="526.7" y2="447.4"/>
					<line class="st4" x1="523.8" y1="418.7" x2="530.9" y2="423.1"/>
					<line class="st4" x1="527.2" y1="433.3" x2="535.1" y2="435.9"/>
					<line class="st4" x1="535.6" y1="447.9" x2="543.6" y2="450.1"/>
				</g>
			</g>
			<g>
				<g>
					<g>
						
							<rect x="550.1" y="388.4" transform="matrix(2.897334e-02 -0.9996 0.9996 2.897334e-02 152.3231 935.9637)" class="st8" width="15.5" height="2.4"/>
					</g>
					<g>
						
							<rect x="552.5" y="382.5" transform="matrix(0.9939 -0.1103 0.1103 0.9939 -39.6005 63.4478)" class="st8" width="2.4" height="14.5"/>
					</g>
					<g>
						
							<rect x="554.6" y="388.7" transform="matrix(0.1279 -0.9918 0.9918 0.1279 103.1831 897.2396)" class="st8" width="14.4" height="2.4"/>
					</g>
					<path class="st9" d="M563.4,396c-0.5,6-0.5,12.1,0.2,18.1c0.7,6,2.1,11.9,4.2,17.6c2.2,5.7,5.1,11,8.8,16
						c3.6,5,8,9.5,12.8,13.5l-2.5,3.4c-5.4-3.7-10.4-8.1-14.9-13c-4.4-5-8.3-10.6-11.3-16.6c-3-6-5.2-12.5-6.6-19.2
						c-1.4-6.6-2-13.4-2.1-20.2L563.4,396z"/>
					<line class="st4" x1="557.3" y1="410.1" x2="552" y2="416.4"/>
					<line class="st4" x1="560.8" y1="425.7" x2="555.4" y2="432.1"/>
					<line class="st4" x1="567" y1="439.7" x2="563.9" y2="447.4"/>
					<line class="st4" x1="561" y1="418.7" x2="568" y2="423.1"/>
					<line class="st4" x1="564.4" y1="433.3" x2="572.2" y2="435.9"/>
					<line class="st4" x1="572.8" y1="447.9" x2="580.8" y2="450.1"/>
				</g>
			</g>
			<g>
				<g>
					<g>
						
							<rect x="587.3" y="388.4" transform="matrix(2.897334e-02 -0.9996 0.9996 2.897334e-02 188.3927 973.0939)" class="st8" width="15.5" height="2.4"/>
					</g>
					<g>
						
							<rect x="589.7" y="382.5" transform="matrix(0.9939 -0.1103 0.1103 0.9939 -39.3739 67.5443)" class="st8" width="2.4" height="14.5"/>
					</g>
					<g>
						
							<rect x="591.7" y="388.7" transform="matrix(0.1279 -0.9918 0.9918 0.1279 135.5763 934.0802)" class="st8" width="14.4" height="2.4"/>
					</g>
					<path class="st9" d="M600.6,396c-0.5,6-0.5,12.1,0.2,18.1c0.7,6,2.1,11.9,4.2,17.6c2.2,5.7,5.1,11,8.8,16
						c3.6,5,8,9.5,12.8,13.5l-2.5,3.4c-5.4-3.7-10.4-8.1-14.9-13c-4.4-5-8.3-10.6-11.3-16.6c-3-6-5.2-12.5-6.6-19.2
						c-1.4-6.6-2-13.4-2.1-20.2L600.6,396z"/>
					<line class="st4" x1="594.5" y1="410.1" x2="589.1" y2="416.4"/>
					<line class="st4" x1="597.9" y1="425.7" x2="592.6" y2="432.1"/>
					<line class="st4" x1="604.2" y1="439.7" x2="601" y2="447.4"/>
					<line class="st4" x1="598.1" y1="418.7" x2="605.2" y2="423.1"/>
					<line class="st4" x1="601.5" y1="433.3" x2="609.4" y2="435.9"/>
					<line class="st4" x1="609.9" y1="447.9" x2="617.9" y2="450.1"/>
				</g>
			</g>
			<g>
				<g>
					<g>
						
							<rect x="624.4" y="388.4" transform="matrix(2.897334e-02 -0.9996 0.9996 2.897334e-02 224.4623 1010.2242)" class="st8" width="15.5" height="2.4"/>
					</g>
					<g>
						
							<rect x="626.8" y="382.5" transform="matrix(0.9939 -0.1103 0.1103 0.9939 -39.1473 71.6408)" class="st8" width="2.4" height="14.5"/>
					</g>
					<g>
						
							<rect x="628.9" y="388.7" transform="matrix(0.1279 -0.9918 0.9918 0.1279 167.9695 970.9207)" class="st8" width="14.4" height="2.4"/>
					</g>
					<path class="st9" d="M637.7,396c-0.5,6-0.5,12.1,0.2,18.1c0.7,6,2.1,11.9,4.2,17.6c2.2,5.7,5.1,11,8.8,16
						c3.6,5,8,9.5,12.8,13.5l-2.5,3.4c-5.4-3.7-10.4-8.1-14.9-13c-4.4-5-8.3-10.6-11.3-16.6c-3-6-5.2-12.5-6.6-19.2
						c-1.4-6.6-2-13.4-2.1-20.2L637.7,396z"/>
					<line class="st4" x1="631.6" y1="410.1" x2="626.3" y2="416.4"/>
					<line class="st4" x1="635.1" y1="425.7" x2="629.7" y2="432.1"/>
					<line class="st4" x1="641.3" y1="439.7" x2="638.2" y2="447.4"/>
					<line class="st4" x1="635.3" y1="418.7" x2="642.3" y2="423.1"/>
					<line class="st4" x1="638.7" y1="433.3" x2="646.5" y2="435.9"/>
					<line class="st4" x1="647.1" y1="447.9" x2="655.1" y2="450.1"/>
				</g>
			</g>
		</g>
		<g class="st3">
			<line class="st4" x1="547.7" y1="334.6" x2="548.5" y2="335.5"/>
			<line class="st4" x1="570.2" y1="316.8" x2="571" y2="317.6"/>
			<line class="st4" x1="596.4" y1="347.2" x2="597.1" y2="348.1"/>
			<path class="st4" d="M501.5,369.1c-3.6-3.7-9.5-3.7-13,0h0c-3.6,3.7-9.5,3.7-13,0l0,0c-3.6-3.7-9.5-3.7-13,0l0,0
				c-3.6,3.7-9.5,3.7-13,0l0,0c-3.6-3.7-9.5-3.7-13,0"/>
			<path class="st4" d="M524.1,351.3c-3.6-3.7-9.5-3.7-13,0v0c-3.6,3.7-9.5,3.7-13,0l0,0c-3.6-3.7-9.5-3.7-13,0l0,0
				c-3.6,3.7-9.5,3.7-13,0l0,0c-3.6-3.7-9.5-3.7-13,0"/>
			<path class="st4" d="M546.7,333.6c-3.6-3.7-9.5-3.7-13,0l0,0c-3.6,3.7-9.5,3.7-13,0l0,0c-3.6-3.7-9.5-3.7-13,0l0,0
				c-3.6,3.7-9.5,3.7-13,0l0,0c-3.6-3.7-9.5-3.7-13,0"/>
			<path class="st4" d="M569.3,315.8c-3.6-3.7-9.5-3.7-13,0v0c-3.6,3.7-9.5,3.7-13,0l0,0c-3.6-3.7-9.5-3.7-13,0l0,0
				c-3.6,3.7-9.5,3.7-13,0l0,0c-3.6-3.7-9.5-3.7-13,0"/>
			<path class="st4" d="M573.1,364.2c-3.6-3.7-9.5-3.7-13,0l0,0c-3.6,3.7-9.5,3.7-13,0v0c-3.6-3.7-9.5-3.7-13,0l0,0
				c-3.6,3.7-9.5,3.7-13,0l0,0c-3.6-3.7-9.5-3.7-13,0"/>
			<path class="st4" d="M595.7,346.4c-3.6-3.7-9.5-3.7-13,0l0,0c-3.6,3.7-9.5,3.7-13,0l0,0c-3.6-3.7-9.5-3.7-13,0l0,0
				c-3.6,3.7-9.5,3.7-13,0l0,0c-3.6-3.7-9.5-3.7-13,0"/>
			<path class="st4" d="M618.3,328.7c-3.6-3.7-9.5-3.7-13,0v0c-3.6,3.7-9.5,3.7-13,0l0,0c-3.6-3.7-9.5-3.7-13,0l0,0
				c-3.6,3.7-9.5,3.7-13,0l0,0c-3.6-3.7-9.5-3.7-13,0"/>
			<path class="st4" d="M648.5,356.7c-3.6-3.7-9.5-3.7-13,0v0c-3.6,3.7-9.5,3.7-13,0v0c-3.6-3.7-9.5-3.7-13,0l0,0
				c-3.6,3.7-9.5,3.7-13,0l0,0c-3.6-3.7-9.5-3.7-13,0"/>
			<path class="st4" d="M671.1,339c-3.6-3.7-9.5-3.7-13,0h0c-3.6,3.7-9.5,3.7-13,0v0c-3.6-3.7-9.5-3.7-13,0l0,0
				c-3.6,3.7-9.5,3.7-13,0l0,0c-3.6-3.7-9.5-3.7-13,0"/>
			<line class="st4" x1="649.5" y1="357.8" x2="650.3" y2="358.7"/>
		</g>
		<g class="st3">
			<g>
				<path class="st16" d="M692.8,460.1l-3.1-2c-5.9-3.9-13.6-3.9-19.6,0l0,0c-5.9,3.9-13.6,3.9-19.6,0l0,0c-5.9-3.9-13.6-3.9-19.6,0
					l0,0c-5.9,3.9-13.6,3.9-19.6,0l0,0c-5.9-3.9-13.6-3.9-19.6,0l0,0c-5.9,3.9-13.6,3.9-19.6,0l0,0c-5.9-3.9-13.6-3.9-19.6,0l0,0
					c-5.9,3.9-13.6,3.9-19.6,0v0c-5.9-3.9-13.6-3.9-19.6,0l0,0c-2.2,1.4-4.7,2.3-7.2,2.7l0.6,9.6l187.5-2.5L692.8,460.1z"/>
			</g>
			<g>
				<path class="st4" d="M692.8,460.2l-3.1-2c-5.9-3.9-13.6-3.9-19.6,0l0,0c-5.9,3.9-13.6,3.9-19.6,0l0,0c-5.9-3.9-13.6-3.9-19.6,0
					l0,0c-5.9,3.9-13.6,3.9-19.6,0l0,0c-5.9-3.9-13.6-3.9-19.6,0l0,0c-5.9,3.9-13.6,3.9-19.6,0l0,0c-5.9-3.9-13.6-3.9-19.6,0l0,0
					c-5.9,3.9-13.6,3.9-19.6,0v0c-5.9-3.9-13.6-3.9-19.6,0l0,0c-2.2,1.4-4.7,2.3-7.2,2.7"/>
			</g>
		</g>
		<g class="st3">
			<g>
				<g>
					<g>
						
							<rect x="591.5" y="443.1" transform="matrix(2.897334e-02 -0.9996 0.9996 2.897334e-02 138.2666 1031.26)" class="st8" width="16.8" height="2.6"/>
					</g>
					<g>
						
							<rect x="594.1" y="436.8" transform="matrix(0.9939 -0.1103 0.1103 0.9939 -45.4 68.3804)" class="st8" width="2.6" height="15.7"/>
					</g>
					<g>
						
							<rect x="596.3" y="443.5" transform="matrix(0.1279 -0.9918 0.9918 0.1279 85.6378 987.1097)" class="st8" width="15.6" height="2.6"/>
					</g>
					<path class="st9" d="M605.9,451.4c-0.5,6.5-0.6,13.1,0.2,19.6c0.7,6.5,2.2,12.9,4.6,19c2.3,6.1,5.5,11.9,9.5,17.3
						c3.9,5.3,8.6,10.2,13.8,14.5l-2.7,3.6c-5.8-4-11.3-8.7-16.1-14.1c-4.8-5.4-8.9-11.4-12.2-18c-3.2-6.5-5.6-13.5-7.1-20.7
						c-1.5-7.2-2.2-14.5-2.2-21.8L605.9,451.4z"/>
					<line class="st4" x1="599.3" y1="466.6" x2="593.5" y2="473.4"/>
					<line class="st4" x1="603" y1="483.5" x2="597.2" y2="490.3"/>
					<line class="st4" x1="609.8" y1="498.6" x2="606.4" y2="506.8"/>
					<line class="st4" x1="603.2" y1="475.9" x2="610.9" y2="480.6"/>
					<line class="st4" x1="606.9" y1="491.6" x2="615.4" y2="494.5"/>
					<line class="st4" x1="616" y1="507.4" x2="624.6" y2="509.8"/>
				</g>
			</g>
			<g>
				<g>
					<g>
						
							<rect x="628.1" y="444.8" transform="matrix(2.897334e-02 -0.9996 0.9996 2.897334e-02 171.7 1068.6962)" class="st8" width="15.5" height="2.4"/>
					</g>
					<g>
						
							<rect x="630.5" y="438.8" transform="matrix(0.9939 -0.1103 0.1103 0.9939 -45.3438 72.3945)" class="st8" width="2.4" height="14.5"/>
					</g>
					<g>
						
							<rect x="632.6" y="445.1" transform="matrix(0.1279 -0.9918 0.9918 0.1279 115.2794 1023.7823)" class="st8" width="14.4" height="2.4"/>
					</g>
					<path class="st9" d="M641.4,452.4c-0.5,6-0.5,12.1,0.2,18.1c0.7,6,2.1,11.9,4.2,17.6c2.2,5.7,5.1,11,8.8,16
						c3.6,5,8,9.5,12.8,13.5l-2.5,3.4c-5.4-3.7-10.4-8.1-14.9-13c-4.4-5-8.3-10.6-11.3-16.6c-3-6-5.2-12.5-6.6-19.2
						c-1.4-6.6-2-13.4-2.1-20.2L641.4,452.4z"/>
					<line class="st4" x1="635.3" y1="466.4" x2="630" y2="472.8"/>
					<line class="st4" x1="638.8" y1="482.1" x2="633.4" y2="488.5"/>
					<line class="st4" x1="645.1" y1="496.1" x2="641.9" y2="503.8"/>
					<line class="st4" x1="639" y1="475.1" x2="646" y2="479.5"/>
					<line class="st4" x1="642.4" y1="489.7" x2="650.2" y2="492.3"/>
					<line class="st4" x1="650.8" y1="504.3" x2="658.8" y2="506.4"/>
				</g>
			</g>
			<g>
				<g>
					<g>
						
							<rect x="551.4" y="443.1" transform="matrix(2.897334e-02 -0.9996 0.9996 2.897334e-02 99.3237 991.172)" class="st8" width="16.8" height="2.6"/>
					</g>
					<g>
						
							<rect x="554" y="436.8" transform="matrix(0.9939 -0.1103 0.1103 0.9939 -45.6446 63.9575)" class="st8" width="2.6" height="15.7"/>
					</g>
					<g>
						
							<rect x="556.2" y="443.5" transform="matrix(0.1279 -0.9918 0.9918 0.1279 50.6642 947.3344)" class="st8" width="15.6" height="2.6"/>
					</g>
					<path class="st9" d="M565.8,451.4c-0.5,6.5-0.6,13.1,0.2,19.6c0.7,6.5,2.2,12.9,4.6,19c2.3,6.1,5.5,11.9,9.5,17.3
						c3.9,5.3,8.6,10.2,13.8,14.5l-2.7,3.6c-5.8-4-11.3-8.7-16.1-14.1c-4.8-5.4-8.9-11.4-12.2-18c-3.2-6.5-5.6-13.5-7.1-20.7
						c-1.5-7.2-2.2-14.5-2.2-21.8L565.8,451.4z"/>
					<line class="st4" x1="559.2" y1="466.6" x2="553.4" y2="473.4"/>
					<line class="st4" x1="562.9" y1="483.5" x2="557.1" y2="490.3"/>
					<line class="st4" x1="569.7" y1="498.6" x2="566.3" y2="506.8"/>
					<line class="st4" x1="563.1" y1="475.9" x2="570.8" y2="480.6"/>
					<line class="st4" x1="566.8" y1="491.6" x2="575.3" y2="494.5"/>
					<line class="st4" x1="575.9" y1="507.4" x2="584.5" y2="509.8"/>
				</g>
			</g>
		</g>
		<g class="st3">
			<line class="st4" x1="449" y1="92.4" x2="500.4" y2="150.2"/>
			<line class="st4" x1="525.9" y1="106.9" x2="534.3" y2="116.3"/>
			<line class="st4" x1="490.6" y1="67.3" x2="522.2" y2="102.8"/>
			<line class="st4" x1="542.1" y1="150.6" x2="546.9" y2="155.9"/>
			<line class="st4" x1="483.7" y1="85" x2="538.2" y2="146.2"/>
			<line class="st4" x1="571.7" y1="138.4" x2="578.6" y2="146.2"/>
			<line class="st4" x1="520.5" y1="81" x2="568.3" y2="134.7"/>
			<line class="st4" x1="506.3" y1="134.1" x2="517.1" y2="146.2"/>
			<line class="st4" x1="474.7" y1="98.7" x2="501.8" y2="129.1"/>
			<line class="st4" x1="578.6" y1="111.6" x2="596.4" y2="131.5"/>
		</g>
		<path class="st13" d="M439.3,421.9c0,0,6.8-5,14.5,0"/>
		<g class="st3">
			<path class="st7" d="M297.8,181.9l-8,0c-2,0-3.4,1.9-2.9,3.8c0.8,2.7,3.4,5.9,11.6,5.9L297.8,181.9z"/>
			<path class="st7" d="M298.5,181.9l-1.3-2.3c-1.1-2,0.3-4.5,2.6-4.5l15.8-0.1c6.4,0,12.5,2.4,17.1,6.7v0L298.5,181.9z"/>
			<path class="st7" d="M323.4,202.5C323.4,202.5,323.4,202.5,323.4,202.5c0,0-4.5,5.7-11.8,5.7c-0.5-3.6,0.4-6,0.7-6.6
				c3.1,0.6,6.5,1,10.2,1C322.8,202.5,323.1,202.5,323.4,202.5z"/>
			<path class="st9" d="M294,181.8l38.7-0.2l0,0c0,0-0.8,2.2-0.7,5.1c0.1,3.4,1.4,7.8,6.3,11.3c-4.1,2.7-9.1,4.6-15.4,4.8
				c-0.2,0-0.4,0-0.7,0c-2.9,0-5.5-0.2-7.9-0.7C295.9,198.5,294.1,182.1,294,181.8z"/>
			<path class="st7" d="M331.4,187.4l1.3,0c0.5,2.2,1.6,4.7,3.9,6.9l-5.2,0c-1.9,0-3.5-1.5-3.5-3.4v0
				C328,188.9,329.5,187.4,331.4,187.4z"/>
			<path class="st8" d="M332.7,181.7L332.7,181.7l15.8-0.1c1.6,0,2.6,1.7,1.9,3.1c-1.9,3.5-5.7,9.1-11.8,13.2
				c-0.2,0.1-0.4,0.1-0.6,0c-0.5-0.4-0.9-0.7-1.3-1.1c-2.5-2.3-3.7-4.8-4.3-7.2c-0.2-1-0.3-1.9-0.4-2.8
				C331.9,183.8,332.7,181.7,332.7,181.7z"/>
			<circle cx="343.5" cy="185.3" r="0.8"/>
		</g>
		<g class="st3">
			<path class="st8" d="M237.1,220c0,0,8.6-8.2,24-5.9c0,0,2,5.3,0.5,9.5C259.5,229.4,237.1,220,237.1,220z"/>
			<path class="st8" d="M259.3,247.8c0,0,5.7,2.5,11.3-2.2c0,0-1.8-2-5.6-2.1C261.2,243.4,259.3,247.8,259.3,247.8z"/>
			<path class="st8" d="M242.6,250.5C242.6,250.5,242.6,250.5,242.6,250.5c0,0,4.3,5.9,11.6,6c0.5-3.6-0.3-6-0.5-6.7
				c-3.1,0.6-6.5,0.8-10.2,0.7C243.2,250.6,242.9,250.5,242.6,250.5z"/>
			<g>
				<path class="st9" d="M275.5,236.4l1.9-2c0.8-0.8,0.1-2-1-2l-1.9,0c-2.5,0-4.9-1.1-6.4-2.9c-4.2-5.2-11.2-11.2-21.3-11.2
					c-3.7,0-6.9,0.6-9.7,1.6c2.4,4.1,3.8,8.8,3.8,13.9c0,5.5-1.7,10.7-4.6,15.1c3,1.5,6.5,2.4,10.5,2.4c10.2,0,17.4-4.7,21.6-8.7
					c1.5-1.4,3.5-2.2,5.6-2.2l2.3,0c1.1,0,1.8-1.2,1-2L275.5,236.4z"/>
			</g>
			<path class="st7" d="M240.7,231.5c0,0,6.3-3.1,13.4,0.6c0,0-6.1,8.8-14.5,6.1L240.7,231.5z"/>
			<path class="st7" d="M237.1,219.9c-6.9,2.4-11.3,7-13.6,10c-1.4,1.8-1.5,4.2-0.3,6.1c2.1,3.6,6.4,9.5,13.1,12.8
				c2.9-4.4,4.6-9.6,4.6-15.1C240.9,228.7,239.5,224,237.1,219.9z"/>
			<circle cx="230.4" cy="232" r="0.8"/>
		</g>
		<g class="st3">
			<g>
				<path class="st9" d="M739.2,194.9c3.1-0.7,3.4-5.2,0.3-6.1c-0.1,0-0.2-0.1-0.3-0.1l-4.9-0.9l2.7-2.8c2-2.1,0.7-5.6-2.2-5.9
					l-3.9-0.4l2.4-3c1.8-2.3,0.2-5.6-2.7-5.7l-3.8,0l1.9-3c1.6-2.5-0.4-5.7-3.4-5.3l-3.6,0.4l1.3-3c1.2-2.8-1.4-5.6-4.3-4.7l-3.1,1
					l0.5-2.6c0.5-3-2.9-5.2-5.4-3.5l-2.2,1.5l-0.4-2.1c-0.6-3.1-4.6-3.9-6.4-1.3l-1.2,1.8l-1.2-1.8c-1.7-2.6-5.8-1.8-6.4,1.3
					l-0.4,2.1l-2.2-1.5c-2.6-1.7-5.9,0.4-5.4,3.5l0.5,2.6l-3.1-1c-2.9-0.9-5.5,2-4.3,4.7l1.3,3l-3.6-0.4c-2.9-0.3-4.9,2.9-3.4,5.3
					l1.9,3l-3.8,0c-2.9,0-4.5,3.4-2.7,5.7l2.4,3l-3.9,0.4c-2.9,0.3-4.2,3.8-2.2,5.9l2.7,2.8l-4.9,0.9c-0.1,0-0.2,0-0.3,0.1
					c-3.1,0.9-2.9,5.4,0.2,6.2c2.1,0.6,14,3.5,38.3,3.5C725.4,198.5,736.7,195.5,739.2,194.9z"/>
			</g>
			<path class="st4" d="M712.4,175.3c0,0,2.8-2.9,4.7-1c1.9,1.9-0.2,5.8-1.4,6.5"/>
		</g>
		<g class="st3">
			<g>
				<g>
					<path class="st17" d="M653.1,238.8c0,0-8.4,6.3-10.4,17.1c-1.7,9.2,3.6,10.8,6.9,10.4c4.1-0.5,6.4-5.3,5-11.5
						c-1.9-8.3,5.2-13,5.2-13L653.1,238.8z"/>
					<path class="st17" d="M664.6,223.8c0,0-7.4,5.5-9.4,10.5l6.2,8.2C661.4,242.5,671.1,227.8,664.6,223.8z"/>
					<path class="st17" d="M655.7,233.1c0,0-3.6,1.8-4,5.2c0,0,1.2,4.2,7.4,7.1c0,0,3.3-2.9,2.6-4.8
						C660.8,238,655.7,233.1,655.7,233.1z"/>
				</g>
				<path class="st9" d="M678.7,217.8c0,0,22.7,24.5,29.2,64.6l-30.3,13.7l-19.8,1.6c-2.3-18.9-1.2-58.2,6.2-74.2L678.7,217.8z"/>
				<path class="st7" d="M664.5,241.9c0.2,0,3.7,1.5,11.4-0.4c0,0,3.9,16-4.7,16.1C663.2,257.7,664.5,241.9,664.5,241.9z"/>
				<g>
					
						<rect x="602.1" y="261.3" transform="matrix(0.8132 -0.582 0.582 0.8132 -32.85 423.5448)" class="st8" width="82.3" height="3.4"/>
				</g>
				<path class="st17" d="M675.4,243c0,0-0.3,7.9-6.2,9.7c-5.6,1.6-7-2.8-7.7-4c-0.8-1.5-4.1-1.6-5.4,1.2c-1.4,3,0.6,9.9,6.5,12.8
					c8.2,4.2,27.3,0.2,26.5-21L675.4,243z"/>
				<g>
					<path class="st17" d="M690.1,202.4c-2-6.4-9.2-3.5-12.9-11.2c-2-4.2-5.7-12.8-14.9-9.7c-8.3,2.8-5.4,18.3-7.9,22.9
						c-2.2,4.1-1.5,12.2,10.7,12c-0.3,1.9-0.7,4.3-1.1,7.1c0.7,1.8,1.7,4.8,2.6,8.3c0.7,2.7,5.7,4.2,7.2-1.4
						c1-3.9,3.1-10.6,4.9-12.7c-0.8-1.1-1.7-2.1-2.5-3.1C689.5,211.2,691.1,205.8,690.1,202.4z"/>
					<ellipse transform="matrix(0.9863 -0.1648 0.1648 0.9863 -23.9811 112.0339)" cx="663.1" cy="200.5" rx="0.7" ry="1.6"/>
					<ellipse transform="matrix(0.9863 -0.1648 0.1648 0.9863 -23.813 112.6967)" cx="667.1" cy="199.8" rx="0.7" ry="1.6"/>
				</g>
				<path class="st4" d="M676.8,281.5c0,0-1.3,8.2,0.8,14.6"/>
				<path class="st8" d="M657.5,295c0,0-5.3,12.5-1.8,29.6l25.9,1.5c0,0-6.8-24.7-2.9-31.6L657.5,295z"/>
				<path class="st8" d="M707.6,280.4c0,0,11.1,19,7.7,39.8l-33.3,12.5c0,0-8-24.6-4.8-38L707.6,280.4z"/>
				<path class="st17" d="M675.1,236.5c0,0-0.7-8.6,3.3-14.5c1.4-2.1,4.5-2.1,6,0c2,2.9,4.4,7.6,4.7,14.4L675.1,236.5z"/>
				<path class="st17" d="M675.2,243.1c0,0,5.8,2.1,13.9-0.5c0,0,1.6-3.4-0.1-7.3c-6.1-2.2-14,0.3-14,0.3S673,238.5,675.2,243.1z"/>
				<path class="st9" d="M606.4,278.9l15.9,8.6L609,316.3l-7.2-3C601.8,313.4,599.1,300.7,606.4,278.9z"/>
			</g>
			<circle class="st8" cx="610.9" cy="288.8" r="1.3"/>
		</g>
		<g class="st3">
			<g>
				<path class="st16" d="M693.7,321.2c3.6,3.7,9.5,3.7,13,0v0c3.6-3.7,9.5-3.7,13,0l0.7,12.5h-91.9v-12.5c3.6-3.7,9.5-3.7,13,0l0,0
					c3.6,3.7,9.5,3.7,13,0l0,0c3.6-3.7,9.5-3.7,13,0v0c3.6,3.7,9.5,3.7,13,0l0,0C684.3,317.5,690.2,317.5,693.7,321.2"/>
				<path class="st4" d="M628.6,321.2c3.6-3.7,9.5-3.7,13,0l0,0c3.6,3.7,9.5,3.7,13,0l0,0c3.6-3.7,9.5-3.7,13,0v0
					c3.6,3.7,9.5,3.7,13,0l0,0c3.6-3.7,9.5-3.7,13,0"/>
			</g>
			<path class="st4" d="M693.7,321.2c3.6,3.7,9.5,3.7,13,0v0c3.6-3.7,9.5-3.7,13,0"/>
		</g>
		<path class="st2" d="M678.5,34.2c0,0,11,0.7,9.7-17.1c-1.4-17.9,4.3-18.8,4.3-18.8h-14V34.2z"/>
		<path class="st15" d="M582.9,521.1c0,0,113.3,1.5,186.6-75.2c58.1-60.8,53.5-117.8,127-151c100.5-45.4,181.7,72,288.6-56.3v283
			L582.9,521.1z"/>
		<g class="st3">
			<path class="st6" d="M905.1,282.6c0,0,29.6-16.2,16.4-59.5C921.4,223.1,893.7,253.7,905.1,282.6"/>
			<path class="st6" d="M905.1,282.6c0,0-16.5,31.2-68.2,11.9C836.9,294.5,879.3,269.2,905.1,282.6"/>
			<path class="st4" d="M857.8,232.3c91.9,68.6,88.1,190.3,88.1,190.3"/>
			<path class="st6" d="M857.8,210.3c0,0,9.5,13.4,0.7,22.7C858.4,233,848.3,225.2,857.8,210.3z"/>
			<path class="st6" d="M858.4,232.9c0,0-6.5,12.2-23.6,4.8C834.8,237.8,846.3,227.7,858.4,232.9z"/>
			<path class="st6" d="M882.9,254.5c0,0-12.9,18.1-43.8,5.3C839.1,259.8,863.8,241.4,882.9,254.5z"/>
			<path class="st6" d="M890.4,212.9c0,0,11.2,30.5-7.5,41.6C882.9,254.5,871,235.6,890.4,212.9z"/>
			<path class="st6" d="M955.1,257.7c0,0,7,48.2-29,64.1C926.2,321.8,918.3,286.6,955.1,257.7z"/>
			<path class="st6" d="M843.7,325.4c0,0,56.1,21.3,81.8-2.8C925.5,322.6,907.5,296.2,843.7,325.4z"/>
			<path class="st6" d="M982.2,295.1c0,0-4.1,65.8-42.3,73.5C940,368.6,929.3,331.3,982.2,295.1z"/>
			<path class="st6" d="M940,368.6c0,0-37.4,29-102.9-8.8C837.1,359.8,915.6,335.7,940,368.6z"/>
		</g>
		<g class="st3">
			<polyline class="st4" points="744.8,309.6 791,407 810.5,520.1 			"/>
			<line class="st4" x1="773.9" y1="329.8" x2="773.1" y2="369.2"/>
			<line class="st4" x1="741.7" y1="369.3" x2="784.3" y2="392.9"/>
			<line class="st4" x1="785.4" y1="341.9" x2="791" y2="407"/>
			<line class="st4" x1="806.3" y1="359.2" x2="789.3" y2="387.1"/>
			<line class="st4" x1="795.9" y1="435.8" x2="811.7" y2="407.8"/>
			<line class="st4" x1="737.8" y1="331.1" x2="769.7" y2="362.1"/>
			
				<ellipse transform="matrix(1 -5.731514e-03 5.731514e-03 1 -2.3068 4.6636)" class="st5" cx="812.5" cy="404.8" rx="4.4" ry="4.5"/>
			<line class="st4" x1="755.1" y1="347.9" x2="727" y2="343.5"/>
			
				<ellipse transform="matrix(1 -5.731514e-03 5.731514e-03 1 -1.8778 4.2252)" class="st8" cx="736.2" cy="329.7" rx="2.1" ry="2.1"/>
			<line class="st4" x1="801.4" y1="426" x2="813.1" y2="419.1"/>
			
				<ellipse transform="matrix(1 -5.731514e-03 5.731514e-03 1 -1.9348 4.5072)" class="st8" cx="785.4" cy="339.8" rx="2.1" ry="2.1"/>
			
				<ellipse transform="matrix(1 -5.731514e-03 5.731514e-03 1 -2.3835 4.6762)" class="st8" cx="814.7" cy="418.2" rx="2.1" ry="2.1"/>
			
				<ellipse transform="matrix(1 -5.731514e-03 5.731514e-03 1 -2.0991 4.2477)" class="st8" cx="740.1" cy="368.4" rx="2.1" ry="2.1"/>
			
				<ellipse transform="matrix(1 -5.731514e-03 5.731514e-03 1 -1.8461 4.441)" class="st5" cx="773.9" cy="324.3" rx="5.4" ry="5.5"/>
			
				<ellipse transform="matrix(1 -5.731514e-03 5.731514e-03 1 -2.0177 4.6411)" class="st5" cx="808.7" cy="354.4" rx="5.4" ry="5.5"/>
			
				<ellipse transform="matrix(1 -5.731514e-03 5.731514e-03 1 -1.952 4.1433)" class="st5" cx="721.9" cy="342.6" rx="5.4" ry="5.5"/>
			
				<ellipse transform="matrix(1 -5.731514e-03 5.731514e-03 1 -1.7341 4.2634)" class="st5" cx="743" cy="304.7" rx="5.4" ry="5.5"/>
		</g>
		<g class="st3">
			<path class="st8" d="M783,516.5l1.8-1.8l-2.5-2.6c-1.9-2-0.6-5.2,2.1-5.4l3.6-0.2l-2.3-2.8c-1.8-2.1-0.3-5.2,2.4-5.2l3.6,0
				l-2.2-2.9c-1.6-2.2,0-5.2,2.7-5.1l3.6,0.2l-1.9-3c-1.5-2.3,0.4-5.2,3.1-4.9l3.5,0.5l-1.6-3c-1.3-2.4,0.9-5.2,3.5-4.6l3.4,0.8
				l-1.3-3.1c-1-2.5,1.4-5.1,4-4.2l3.1,1.1l-0.8-3c-0.7-2.7,2.2-4.9,4.6-3.6l2.7,1.5l-0.2-2.9c-0.2-2.8,3.1-4.5,5.2-2.7l2.2,1.9
				l0.4-2.7c0.4-2.8,4-3.7,5.7-1.4l1.6,2.2l1-2.5c1.1-2.6,4.8-2.6,5.9,0l1,2.5l1.6-2.2c1.7-2.3,5.3-1.5,5.7,1.4l0.4,2.7l2.1-1.9
				c2.1-1.9,5.4-0.2,5.3,2.6l-0.2,2.8l2.6-1.5c2.4-1.4,5.3,0.8,4.7,3.5l-0.7,2.9l3-1.1c2.6-1,5.1,1.6,4,4.2l-1.2,3l3.3-0.8
				c2.7-0.6,4.8,2.2,3.5,4.6l-1.6,2.9l3.4-0.4c2.7-0.4,4.6,2.7,3,4.9l-1.9,2.9l3.5-0.2c2.7-0.1,4.3,3,2.6,5.1l-2.2,2.8l3.5,0.1
				c2.7,0.1,4.1,3.3,2.3,5.3l-2.4,2.6l3.5,0.3c2.7,0.2,3.9,3.5,2,5.4l-2.5,2.5l2,2c2,2,0.5,5.4-2.3,5.4L785.2,522
				C782.4,522,781,518.5,783,516.5z"/>
			<path class="st4" d="M815.7,503.4c0,0-1.7-4.7,0.6-6.3c2.3-1.6,4.7,2.5,4.7,2.5"/>
		</g>
		<g class="st3">
			<path class="st7" d="M860.2,522.3l-4.4-4.9c-2.1-2.3-1-6.1,2-6.9l6.3-1.9l-4.2-5.1c-2-2.4-0.8-6.1,2.3-6.8l6.4-1.6l-3.9-5.3
				c-1.9-2.5-0.5-6.1,2.6-6.7l6.5-1.2l-3.6-5.5c-1.7-2.6-0.1-6.2,3-6.6l6.5-0.9l-3.2-5.6c-1.6-2.7,0.3-6.2,3.4-6.4l6.5-0.4l-2.7-5.8
				c-1.4-2.9,0.8-6.2,4-6.1l6.4,0.2l-2.1-5.9c-1.1-3,1.5-6.1,4.6-5.6l6.2,0.9l-1.2-6c-0.7-3.2,2.4-5.9,5.5-4.9l5.8,1.8l-0.1-5.9
				c-0.1-3.3,3.5-5.4,6.4-3.8l5.1,2.9l1.3-5.5c0.8-3.3,4.8-4.4,7.2-2.1l4,4l2.7-4.9c1.6-2.9,5.9-2.9,7.5,0l2.7,4.9l3.9-3.9
				c2.4-2.4,6.4-1.2,7.2,2.1l1.2,5.4l5-2.8c2.9-1.6,6.5,0.5,6.4,3.8l-0.2,5.7l5.7-1.7c3.1-0.9,6.1,1.8,5.4,5l-1.3,5.8l6.1-0.8
				c3.2-0.4,5.7,2.7,4.5,5.7l-2.2,5.8l6.3-0.1c3.2,0,5.3,3.3,3.8,6.2l-2.9,5.6l6.4,0.5c3.2,0.3,4.9,3.8,3.3,6.5l-3.3,5.4l6.4,1
				c3.1,0.5,4.6,4.1,2.8,6.7l-3.7,5.3l6.3,1.4c3.1,0.7,4.4,4.3,2.4,6.8l-4,5.1l6.3,1.7c3,0.8,4.2,4.5,2.1,6.9l-4.3,4.9l6.2,2
				c3,1,3.9,4.7,1.8,7l-4.5,4.7L860.2,522.3z"/>
			<path class="st7" d="M933.5,465.1c0,0-2.1-7.6,1.6-8.6c3.6-1,4.9,4.5,4.9,4.5"/>
			<path class="st7" d="M985.3,487.4c0,0,2.8-4,5.3-1.7s-1.9,8.8-1.9,8.8"/>
		</g>
		<g class="st3">
			<path class="st9" d="M708.3,407.5c5.6-2.3,19.8-1.9,23.2,18.9c3.4,20.8,19.5,15.8,21,28.8c1.2,10.1-6.7,12.7-6.9,23
				c-0.1,6.9-2.3,15-10.9,17.6c-7.2,2.2-15.3-1.2-19-9.4c-6.6-14.7-16.4-9.8-19.1-22c-2.5-11.3,8.1-14.2,5-25.3
				C698.9,428.6,694.7,413.1,708.3,407.5z"/>
			<path class="st4" d="M713.3,425.1c0,0,6.9,67.4,45.3,97.7"/>
			<path class="st4" d="M708.4,434.1c1.6,4.5,10.2,6.4,14.1-2.9"/>
			<path class="st4" d="M710.3,457.2c2.1,5.8,16.6,9.4,21.1-7.1"/>
			<path class="st4" d="M721.6,478.8c3.1,3.6,11.4,0.9,12.1-5"/>
		</g>
		<g class="st3">
			<circle class="st9" cx="1129.1" cy="406.9" r="11"/>
			<path class="st6" d="M1116.6,379.2c0,0-6.2,22.3,24.8,22.3C1141.4,401.4,1137.9,373.8,1116.6,379.2z"/>
			<path class="st6" d="M1115.7,363.4c0,0-24,3.1-17.8,36.9C1097.9,400.3,1128.7,387.3,1115.7,363.4z"/>
			<path class="st6" d="M1013.6,339.3c0,0,10.4-22.5,32.9-11.6C1046.6,327.7,1039.1,348.4,1013.6,339.3z"/>
			<path class="st6" d="M1159.3,413.9c0,0-7.7,32.1,19.7,38.3C1179,452.2,1185,423.1,1159.3,413.9z"/>
			<path class="st6" d="M1167.5,402.4c0,0,4,19.1,39.2,7.9C1206.7,410.4,1187.1,390,1167.5,402.4z"/>
			<path class="st6" d="M1178.6,436c0,0,9.6-26.3-9.2-33.9C1169.4,402,1158.8,423.1,1178.6,436z"/>
			<g>
				<circle class="st9" cx="1188.8" cy="424.1" r="13.8"/>
			</g>
			<path class="st6" d="M985.9,356.3c0,0,13.7,26.5,40.8,14.2C1026.7,370.5,1014.5,343.6,985.9,356.3z"/>
			<path class="st6" d="M1031.5,423.8c0,0-21.8-2.5-21.8,29.8C1009.8,453.6,1039.9,447.5,1031.5,423.8z"/>
			<path class="st6" d="M1043.7,382.8c0,0-24.1-2.4-25.3,27.8C1018.4,410.6,1052,407.2,1043.7,382.8z"/>
			<path class="st6" d="M1003.6,398.2c0,0,2.7,20.2,35.1,13.2C1038.7,411.4,1026.2,384.9,1003.6,398.2z"/>
			<path class="st6" d="M1047.3,376c0,0,4.5-22.8,33.5-21.5C1080.8,354.5,1076.8,381.6,1047.3,376z"/>
			<path class="st6" d="M1064.1,425.5c0,0,22.5-10.1,11.8-37.1C1075.9,388.4,1052.1,396.7,1064.1,425.5z"/>
			<path class="st6" d="M1061.8,388.4c0,0-18.1,9.5-5.5,35.4C1056.3,423.8,1074.8,405.1,1061.8,388.4z"/>
			<path class="st6" d="M1080.8,395.9c0,0-12.5,13.2,7.1,26.4C1087.9,422.3,1096.8,402.1,1080.8,395.9z"/>
			<path class="st7" d="M1019.8,357.7c0,0,0.5,31.3,45.7,37.8c45.1,6.4,66.1,53.3,70.7,126.5h38.8c0,0-2.7-23-13.4-54.2
				c-6.3-18.3,1.9-50.7,19.7-65.5c16.7-13.9,9.5-39.9,9.5-39.9l-15.8,3.7c0,0,5.2,23.9-8.9,30c-14,6.1-12.1-11.9-10.6-20.1
				l-12.4,1.9c0,0-5.4,3.8-1.7,23.5c1.3,6.9,4.8,24-1.4,27.2c-7,3.6-12.7-8-16.7-13.3c-4.1-5.5-13.4-18.1-25.8-24.5
				c-15.1-7.7-9.1-39.4-9.1-39.4l-11.9-3c0,0,0.5,17.4,0.5,19.3s1,13.9-12.1,12.7c-13.2-1.3-22.9-9.9-26.8-21.9L1019.8,357.7z"/>
			<path class="st6" d="M996.3,350.8c0,0,14.7,22.5,40.1,5.5C1036.4,356.3,1025.1,336.9,996.3,350.8z"/>
			<path class="st6" d="M1073.6,426.9c0,0,2.3-18.1,25-11.2C1098.6,415.7,1089,433.9,1073.6,426.9z"/>
			<path class="st6" d="M1082.4,327.5c0,0,5.1,31.8,40.6,28.5C1123.1,356.1,1115.7,325.8,1082.4,327.5z"/>
			<path class="st6" d="M1111.2,318.3c0,0-11.9,33.5,16.5,44.2C1127.7,362.5,1136.2,329.7,1111.2,318.3z"/>
			<path class="st6" d="M1168.1,373.8c0,0,6.9-21.9,37.6-21.2C1205.7,352.6,1195.2,383.1,1168.1,373.8z"/>
			<path class="st6" d="M1070.1,419c0,0,2.1,21.9,19.6,18.9C1089.7,437.9,1090.4,421.3,1070.1,419z"/>
			<circle class="st9" cx="1100.8" cy="439.8" r="16"/>
			<circle class="st9" cx="996.4" cy="393.2" r="14.1"/>
			<circle class="st9" cx="1042.2" cy="348.3" r="14.1"/>
			<path class="st6" d="M1044.3,325.2c0,0-2.5,21.2,28.9,18.8C1073.2,343.9,1070.2,320.5,1044.3,325.2z"/>
			<path class="st6" d="M1090.6,366.7c0,0,25.6,10.3,41.7-9.1C1132.3,357.6,1107.2,337.4,1090.6,366.7z"/>
			<path class="st6" d="M1115.7,332.2c0,0,3.3,27.1,37.3,30C1153,362.3,1150,327.6,1115.7,332.2z"/>
			<path class="st6" d="M1165.5,319.3c0,0-29.6,23.9-9,45.2C1156.6,364.5,1187.8,356.4,1165.5,319.3z"/>
			<path class="st6" d="M1188.9,333c0,0-35.3,8.6-28.8,39.2C1160,372.1,1188.2,372.1,1188.9,333z"/>
			<path class="st6" d="M1158.1,370.9c0,0,18.1,23.8,43,6.8C1201.1,377.6,1182.2,351.5,1158.1,370.9z"/>
			<path class="st6" d="M1065.9,348.9c0,0,16.3,14.5,37.6-1.8C1103.5,347,1080.3,330.9,1065.9,348.9z"/>
			<path class="st6" d="M1134.4,373.5c0,0,3.7-24.3,33.7-19.6C1168.1,353.9,1163.4,383.7,1134.4,373.5z"/>
			<path class="st6" d="M1133.1,376.4c0,0,17.2,16.6,37-2.6C1170.1,373.8,1147.7,357.5,1133.1,376.4z"/>
			<circle class="st9" cx="1129.1" cy="367.6" r="15.1"/>
			<g>
				<circle class="st17" cx="1099.1" cy="429.4" r="0.8"/>
				<circle class="st17" cx="1100.7" cy="433" r="0.8"/>
				<circle class="st17" cx="1103.4" cy="430.2" r="0.8"/>
			</g>
			<path class="st6" d="M1011,368.4c0,0-16.1,17.3,11.2,33C1022.2,401.4,1030.8,373.8,1011,368.4z"/>
			<path class="st6" d="M979.1,378.4c-0.5-0.2,8.8-18.6,34-10.8C1013.1,367.6,1003.5,389.7,979.1,378.4z"/>
			<path class="st6" d="M1073,426.2c0,0-22.1-7.6-28.9,16.6C1044.2,442.8,1067,449.5,1073,426.2z"/>
			<g>
				<circle class="st9" cx="1074.6" cy="453.6" r="16"/>
				<g>
					<circle class="st17" cx="1080.3" cy="444.6" r="0.8"/>
					<circle class="st17" cx="1077.7" cy="447.6" r="0.8"/>
					<circle class="st17" cx="1081.5" cy="448.8" r="0.8"/>
				</g>
			</g>
			<g>
				<circle class="st9" cx="1038.1" cy="418.3" r="16"/>
				<g>
					<circle class="st17" cx="1043.3" cy="410.3" r="0.8"/>
					<circle class="st17" cx="1042.3" cy="414.1" r="0.8"/>
					<circle class="st17" cx="1046.2" cy="413.6" r="0.8"/>
				</g>
			</g>
			<g>
				<circle class="st17" cx="1000.8" cy="384.5" r="0.8"/>
				<circle class="st17" cx="997.6" cy="386.9" r="0.8"/>
				<circle class="st17" cx="1000.9" cy="388.9" r="0.8"/>
			</g>
			<g>
				<circle class="st17" cx="1033.5" cy="344" r="0.8"/>
				<circle class="st17" cx="1034.6" cy="347.6" r="0.8"/>
				<circle class="st17" cx="1037.3" cy="344.7" r="0.8"/>
			</g>
			<g>
				<circle class="st17" cx="1120.5" cy="369.4" r="0.8"/>
				<circle class="st17" cx="1122.7" cy="366.1" r="0.8"/>
			</g>
		</g>
		<g class="st3">
			<path class="st7" d="M1146.6,178.4c4.7-2.4,16.9-3,21.3,14.6s17.9,12.2,20.2,23.3c1.8,8.6-4.9,11.4-4.3,20.3c0.4,6-0.9,13-8.1,16
				c-6,2.4-13.3,0-17-6.8c-6.7-12.2-12.1-7.3-15.3-17.6c-3-9.6,3.3-12.8-0.1-22.2C1139.9,197.2,1135.3,184.2,1146.6,178.4z"/>
			<path class="st4" d="M1152.1,193.2c0,0,6.9,49.5,41.8,77.1"/>
			<path class="st4" d="M1148.5,201.3c1.7,3.8,9.2,4.8,12-3.5"/>
			<path class="st4" d="M1151.8,221.1c2.2,4.8,13.1,7.4,15.8-7.1"/>
			<path class="st4" d="M1163.1,237.9c3.1,2.8,8.5,1.4,8.7-3.7"/>
		</g>
		<g class="st3">
			<path class="st6" d="M1113.3,274.1c0.2-0.9,0.4-1.8,0.8-2.6l0,0c0,0,0,0,0,0c0.2-0.4,0.3-0.8,0.5-1.2c2.5-6.2,0.1-12.9-0.5-14.5
				c0-0.1-0.5-1.3-0.6-1.9c-1.8-6.8,2.4-13.8,9.2-15.6c6.8-1.8,13.8,2.4,15.6,9.2c0.1,0.5,0.4,2.5,0.4,2.9c0.3,2.9,1.5,9.8,6.6,13.8
				c0.3,0.2,0.5,0.4,0.8,0.6c0,0,0,0,0.1,0l0,0c5.4,4.3,8.4,10.8,7,17.4c-2,9.7-12.5,16-23.5,13.8
				C1118.7,293.8,1111.3,283.8,1113.3,274.1z"/>
			<path class="st4" d="M1125.6,252.1c1.2,17.4,5.3,59.6,74,72.7"/>
			<path class="st4" d="M1130.6,256.4c-0.2,3.4-6.6,5.4-8.4,2"/>
			<path class="st4" d="M1137.6,271.7c-0.6,9.3-11.1,10.9-14.4,5.2"/>
		</g>
		<g class="st3">
			<path class="st5" d="M443.1,293.6c6,0.9,10.5,2.5,24,2.5c13.5,0,18.5-1.6,24.7-2.4c2-0.2,3.1-2.4,1.7-3.9l-2.1-1.7l2-1.3
				c1.9-1.2,1-4.2-1.2-4.2l-2.4,0l1.8-1.4c1.8-1.4,0.6-4.3-1.7-4.1l-2.2,0.3l1.4-1.5c1.6-1.7,0-4.4-2.2-3.8l-2,0.5l0.9-1.4
				c1.3-1.9-0.8-4.4-2.9-3.4l-1.5,0.7l0.5-1.1c0.9-2.2-1.7-4.2-3.6-2.7l-0.9,0.7l0.1-0.9c0.3-2.4-2.7-3.6-4.1-1.7l-0.5,0.8l-0.1-1.2
				c-0.3-2.4-3.6-2.8-4.4-0.5l-0.4,1.1l-0.4-1.1c-0.9-2.2-4.1-1.8-4.4,0.5l-0.1,1.1l-0.6-0.8c-1.4-1.9-4.5-0.7-4.1,1.7l0.1,0.9
				l-0.9-0.7c-1.9-1.5-4.5,0.5-3.6,2.7l0.5,1.1l-1.5-0.7c-2.1-1-4.2,1.4-2.9,3.4l0.9,1.4l-2-0.5c-2.2-0.6-3.9,2.1-2.2,3.8l1.4,1.5
				l-2.2-0.3c-2.3-0.3-3.5,2.6-1.7,4.1l1.8,1.4l-2.4,0c-2.3,0-3.2,3-1.2,4.2l2,1.3l-2.5,1.3C440,290.8,441,293.3,443.1,293.6z"/>
			<path class="st4" d="M473.1,277.2c0,0,2.8-3.2,4.8-1.3s-1.6,4.8-1.6,4.8"/>
		</g>
		<g class="st3">
			<path class="st4" d="M270.1,452.1c0,13.4,2.2,35.7-17.1,35.7"/>
			<path class="st9" d="M270.2,431.3c3.3,0,8,4.2,8.7,18.6c0.1,1.9-1.5,3.5-3.4,3.5h-5.3h-5.3c-1.9,0-3.5-1.6-3.4-3.5
				C262.2,435.5,266.8,431.3,270.2,431.3z"/>
		</g>
		<g class="st3">
			<path class="st4" d="M304.1,461.7c0,8.5,2.4,25.8-6.1,25.8"/>
			<path class="st8" d="M304.2,447.4c2.3,0,5.5,2.7,6.2,11.9c0.2,2.3-1.6,4.3-3.9,4.3h-2.3h-2.3c-2.3,0-4.1-2-3.9-4.3
				C298.8,450.1,301.9,447.4,304.2,447.4z"/>
		</g>
		<g class="st3">
			<path class="st4" d="M154.2,405c0,0,22.6-35.6,7.3-76.3"/>
			<path class="st4" d="M137.5,360.7c0,0,4.7,22.1,25.5,23"/>
			<path class="st4" d="M166.8,364.2c0,0,11-5.9,10.8-19.6"/>
			<path class="st4" d="M161.6,388.5c0,0,31.2,0.5,35.1-26.8"/>
			<path class="st4" d="M166.4,351.5c0,0-11.7,1.8-16.4-9.1"/>
			<circle class="st7" cx="159.8" cy="324.3" r="5.2"/>
			<circle class="st7" cx="197.1" cy="356.6" r="5.1"/>
			<path class="st4" d="M145.9,376.1c1.3-1.1,6.4-5,4.3-14.3"/>
			<path class="st4" d="M179.8,384.5c0,0,8.8,9.2,23.4,2.4"/>
			<circle class="st9" cx="149.2" cy="340.6" r="2"/>
			<circle class="st9" cx="177.6" cy="341.3" r="3.4"/>
			<circle class="st9" cx="204.9" cy="385.9" r="2"/>
			<circle class="st7" cx="136.8" cy="357.5" r="3.4"/>
			<circle class="st9" cx="149.9" cy="360.1" r="2"/>
		</g>
		<g class="st3">
			<path class="st4" d="M285.8,481.7c0,9,1.3,23.9-10.2,23.9"/>
			<path class="st7" d="M285.7,462.1c2.6,0,6.3,3.8,6.8,16.7c0.1,2-1.5,3.6-3.5,3.6h-3.4h-3.4c-2,0-3.6-1.6-3.5-3.6
				C279.4,465.9,283.1,462.1,285.7,462.1z"/>
		</g>
		<g class="st3">
			<path class="st9" d="M33.2,512.9l2.9-3.8l-4.2-3.7c-2.9-2.6-2-7.3,1.6-8.7l5.2-1.9l-4-3.9c-2.8-2.7-1.7-7.4,2-8.6l5.3-1.7
				l-3.8-4.1c-2.7-2.9-1.3-7.5,2.5-8.5l5.4-1.4l-3.5-4.2c-2.5-3-0.9-7.6,2.9-8.4l5.4-1.1l-3.2-4.4c-2.3-3.2-0.4-7.7,3.5-8.2l5.4-0.7
				l-2.8-4.6c-2.1-3.4,0.2-7.7,4.2-7.9l5.3-0.2l-2.3-4.7c-1.7-3.6,1.1-7.7,5-7.4l5.2,0.4l-1.6-4.7c-1.3-3.8,2.2-7.6,6.1-6.6l4.8,1.1
				l-0.7-4.6c-0.6-4,3.6-7.1,7.3-5.4l4.2,2l0.4-4.4c0.4-4.1,5.2-6.1,8.4-3.5l3.4,2.8l1.5-4.1c1.4-3.9,6.6-4.6,9-1.2l2.6,3.6l2.6-3.6
				c2.4-3.4,7.6-2.7,9,1.2l1.6,4.2l3.4-2.8c3.2-2.6,8-0.6,8.4,3.5l0.4,4.4l4.2-2c3.7-1.7,7.8,1.3,7.3,5.4l-0.6,4.7l4.8-1.1
				c3.9-0.9,7.3,2.8,6.1,6.6l-1.5,4.8l5.2-0.4c4-0.3,6.8,3.8,5.1,7.4l-2.3,4.7l5.4,0.2c3.9,0.1,6.3,4.5,4.2,7.8l-2.8,4.6l5.4,0.7
				c3.9,0.5,5.8,5,3.5,8.1l-3.2,4.4l5.4,1.1c3.8,0.8,5.5,5.3,3,8.3l-3.5,4.3l5.4,1.4c3.8,1,5.1,5.6,2.5,8.5l-3.8,4.1l5.3,1.7
				c3.7,1.2,4.8,5.9,2.1,8.6l-4,3.9l5.2,1.9c3.7,1.3,4.6,6.1,1.7,8.7l-4.2,3.7l2.9,3.8c2.6,3.4,0.2,8.3-4.1,8.3l-159.6,0.1
				C33.1,521.2,30.6,516.3,33.2,512.9z"/>
			<path class="st4" d="M141.2,447.8c0,0,2.3-7.6,6.8-6.6c4.1,0.9,1.4,8.8,1.4,8.8"/>
			<path class="st4" d="M80.4,474.4c0,0-4.9-4.4-2.6-7.5c2.4-3.1,8.2,1.9,8.2,1.9"/>
		</g>
		<g class="st3">
			<g>
				<path class="st8" d="M277.6,511.8L277.6,511.8l1.9-2c2.9-3.2,0.6-8.3-3.7-8.3l-2.8,0l1.4-2.2c2.3-3.7-0.9-8.3-5.2-7.5l-2.5,0.5
					l0.8-2.1c1.5-4.1-2.7-8-6.7-6.2l-2.1,0.9l0.3-2.2c0.5-4.4-4.5-7.2-7.9-4.5l-1.7,1.4l-0.3-2.4c-0.5-4.3-6-6-8.7-2.6l-1.5,1.8
					L238,474c-1.4-4.1-7-4.6-9-0.8l-1.3,2.4l-1.3-2.4c-2.1-3.8-7.7-3.3-9,0.8l-0.8,2.5l-1.5-1.8c-2.8-3.4-8.2-1.8-8.7,2.6l-0.3,2.3
					l-1.7-1.3c-3.5-2.7-8.5,0.1-7.9,4.5l0.3,2.1l-2-0.9c-4-1.8-8.2,2.1-6.7,6.2l0.8,2.1l-2.4-0.5c-4.3-0.9-7.5,3.8-5.2,7.5l1.3,2.1
					l-2.7,0c-4.3,0-6.6,5.1-3.7,8.3l1.8,2l0,0c-4.6,0.7-5.7,6.9-1.7,9.2l1.1,0.6l101,0.1l1-0.6C283.3,518.7,282.2,512.5,277.6,511.8
					z"/>
			</g>
			<path class="st4" d="M221,504.6c0,0-3-5.6,0.6-7.7s6.6,3.7,6.6,3.7"/>
		</g>
	</g>
</g>
</svg>
