<?xml version="1.0" encoding="utf-8"?>
<!-- Generator: Adobe Illustrator 22.1.0, SVG Export Plug-In . SVG Version: 6.00 Build 0)  -->
<svg version="1.1" id="圖層_1" xmlns="http://www.w3.org/2000/svg" xmlns:xlink="http://www.w3.org/1999/xlink" x="0px" y="0px"
	 viewBox="0 0 1359.7 600.4" style="enable-background:new 0 0 1359.7 600.4;" xml:space="preserve">
<style type="text/css">
	.st0{clip-path:url(#SVGID_2_);}
	.st1{clip-path:url(#SVGID_4_);fill:#60472A;stroke:#000000;stroke-width:0.2792;stroke-miterlimit:10;}
	.st2{clip-path:url(#SVGID_4_);fill:#E3AA5F;stroke:#000000;stroke-width:0.2792;stroke-miterlimit:10;}
	.st3{clip-path:url(#SVGID_4_);}
	.st4{fill:none;stroke:#000000;stroke-width:0.2792;stroke-miterlimit:10;}
	.st5{fill:#B4C834;stroke:#000000;stroke-width:0.2792;stroke-miterlimit:10;}
	.st6{fill:#49891D;stroke:#000000;stroke-width:0.2792;stroke-miterlimit:10;}
	.st7{fill:#FFEED6;stroke:#000000;stroke-width:0.2792;stroke-miterlimit:10;}
	.st8{fill:#60472A;stroke:#000000;stroke-width:0.2792;stroke-miterlimit:10;}
	.st9{fill:#E3AA5F;stroke:#000000;stroke-width:0.2792;stroke-miterlimit:10;}
	.st10{clip-path:url(#SVGID_4_);fill:#FFEED6;stroke:#000000;stroke-width:0.2792;stroke-miterlimit:10;}
	.st11{fill:none;stroke:#FFEED6;stroke-width:0.4188;stroke-miterlimit:10;}
	.st12{clip-path:url(#SVGID_4_);fill:#49891D;stroke:#000000;stroke-width:0.2792;stroke-miterlimit:10;}
	.st13{clip-path:url(#SVGID_4_);fill:none;stroke:#000000;stroke-width:0.2792;stroke-miterlimit:10;}
	.st14{fill:#A6B832;}
	.st15{fill:#A6B832;stroke:#000000;stroke-width:0.2792;stroke-miterlimit:10;}
	.st16{clip-path:url(#SVGID_4_);fill:#B4C834;stroke:#000000;stroke-width:0.2792;stroke-miterlimit:10;}
	.st17{fill:#FFEED6;}
	.st18{fill:#FFFFFF;stroke:#000000;stroke-width:0.2792;stroke-miterlimit:10;}
</style>
<g>
	<defs>
		<rect id="SVGID_1_" width="1359.7" height="600.4"/>
	</defs>
	<clipPath id="SVGID_2_">
		<use xlink:href="#SVGID_1_"  style="overflow:visible;"/>
	</clipPath>
	<g class="st0">
		<defs>
			<rect id="SVGID_3_" x="0.3" y="-2" width="1365.8" height="603.4"/>
		</defs>
		<clipPath id="SVGID_4_">
			<use xlink:href="#SVGID_3_"  style="overflow:visible;"/>
		</clipPath>
		<rect x="0" y="-2" class="st1" width="1192.6" height="603.8"/>
		<path class="st2" d="M607-2.2C449.1-4.4,386,163.5,271.6,163.5L559,312.7l494.1-132.2L1171.7-2L607-2.2z"/>
		<g class="st3">
			<path class="st4" d="M421.9,40.7c0,0,0.7,24.5,14.9,34.5"/>
			<path class="st4" d="M435.3,40.7c0,0-0.8,11.9-11.2,13.9"/>
			<path class="st4" d="M399.5,30.9c0,0,4.6,27,27.2,30.9"/>
			<circle class="st5" cx="399.3" cy="28.2" r="2.9"/>
			<circle class="st5" cx="435.3" cy="37.8" r="2.9"/>
			<circle class="st5" cx="421.9" cy="37.8" r="2.9"/>
		</g>
		<g class="st3">
			<g>
				<path class="st6" d="M661.5,59c5.4,1.7,7.6,8.8,3.1,17.2c-4.6,8.4,0.1,8.7-2.9,13c-3.1,4.3-10.3,3-11.9,9s-6.1-13.6-0.9-30.2
					C651.7,59.2,657.5,57.8,661.5,59z"/>
				<path class="st6" d="M624.6,57.3c4.6-3.3,14.4-2.8,17.6,7.7c3.5,11.5,9,9.7,9.8,18.9c0.6,7.3-2.9,16.2-2.9,16.2
					s-2.9-4.8-9.6-4.8c-6.1,0-9.9-2.2-10.3-7.9c-0.7-8.2-4.8-7-8.3-13.7C616.8,65.9,621.1,59.7,624.6,57.3z"/>
				<path class="st4" d="M632.8,68.5c11.3,11.2,17.5,24.9,16.8,44.3"/>
				<path class="st4" d="M651.7,82.5c2-7.4,4.6-11.7,4.6-11.7"/>
			</g>
			<g>
				<path class="st6" d="M705.8,31.8c5.4,1.7,7.6,8.8,3.1,17.2c-4.6,8.4,0.1,8.7-2.9,13c-3.1,4.3-10.3,3-11.9,9
					c-1.6,5.9-6.1-13.6-0.9-30.2C696,32,701.8,30.5,705.8,31.8z"/>
				<path class="st6" d="M668.9,30c4.6-3.3,14.4-2.8,17.6,7.7c3.5,11.5,9,9.7,9.8,18.9c0.6,7.3-2.9,16.2-2.9,16.2s-2.9-4.8-9.6-4.8
					c-6.1,0-9.9-2.2-10.3-7.9c-0.7-8.2-4.8-7-8.3-13.7C661.1,38.7,665.4,32.5,668.9,30z"/>
				<path class="st4" d="M677.2,41.3c11.3,11.2,17.5,24.9,16.8,44.3"/>
				<path class="st4" d="M696,55.3c2-7.4,4.6-11.7,4.6-11.7"/>
			</g>
			<g>
				<path class="st6" d="M750.5,6.6c5.4,1.7,7.6,8.8,3.1,17.2c-4.6,8.4,0.1,8.7-2.9,13c-3.1,4.3-10.3,3-11.9,9
					c-1.6,5.9-6.1-13.6-0.9-30.2C740.6,6.8,746.4,5.3,750.5,6.6z"/>
				<path class="st6" d="M713.6,4.8c4.6-3.3,14.4-2.8,17.6,7.7c3.5,11.5,9,9.7,9.8,18.9c0.6,7.3-2.9,16.2-2.9,16.2s-2.9-4.8-9.6-4.8
					c-6.1,0-9.9-2.2-10.3-7.9c-0.7-8.2-4.8-7-8.3-13.7C705.8,13.4,710.1,7.3,713.6,4.8z"/>
				<path class="st4" d="M721.8,16.1c11.3,11.2,17.5,24.9,16.8,44.3"/>
				<path class="st4" d="M740.7,30.1c2-7.4,4.6-11.7,4.6-11.7"/>
			</g>
			<g>
				<path class="st6" d="M617.6,23.8c5.4,1.7,7.6,8.8,3.1,17.2c-4.6,8.4,0.1,8.7-2.9,13c-3.1,4.3-10.3,3-11.9,9
					c-1.6,5.9-6.1-13.6-0.9-30.2C607.8,24,613.6,22.5,617.6,23.8z"/>
				<path class="st6" d="M580.7,22c4.6-3.3,14.4-2.8,17.6,7.7c3.5,11.5,9,9.7,9.8,18.9c0.6,7.3-2.9,16.2-2.9,16.2s-2.9-4.8-9.6-4.8
					c-6.1,0-9.9-2.2-10.3-7.9c-0.7-8.2-4.8-7-8.3-13.7C572.9,30.7,577.2,24.5,580.7,22z"/>
				<path class="st4" d="M589,33.3c11.3,11.2,17.5,24.9,16.8,44.3"/>
				<path class="st4" d="M607.8,47.3c2-7.4,4.6-11.7,4.6-11.7"/>
			</g>
			<g>
				<path class="st6" d="M661.9-3.4c5.4,1.7,7.6,8.8,3.1,17.2c-4.6,8.4,0.1,8.7-2.9,13c-3.1,4.3-10.3,3-11.9,9s-6.1-13.6-0.9-30.2
					C652.1-3.2,657.9-4.7,661.9-3.4z"/>
				<path class="st6" d="M625-5.2c4.6-3.3,14.4-2.8,17.6,7.7c3.5,11.5,9,9.7,9.8,18.9c0.6,7.3-2.9,16.2-2.9,16.2s-2.9-4.8-9.6-4.8
					c-6.1,0-9.9-2.2-10.3-7.9c-0.7-8.2-4.8-7-8.3-13.7C617.2,3.4,621.5-2.7,625-5.2z"/>
				<path class="st4" d="M633.3,6.1c11.3,11.2,17.5,24.9,16.8,44.3"/>
				<path class="st4" d="M652.1,20.1c2-7.4,4.6-11.7,4.6-11.7"/>
			</g>
			<g>
				<path class="st6" d="M706.6-28.6c5.4,1.7,7.6,8.8,3.1,17.2c-4.6,8.4,0.1,8.7-2.9,13c-3.1,4.3-10.3,3-11.9,9s-6.1-13.6-0.9-30.2
					C696.8-28.5,702.6-29.9,706.6-28.6z"/>
				<path class="st6" d="M669.7-30.4c4.6-3.3,14.4-2.8,17.6,7.7c3.5,11.5,9,9.7,9.8,18.9c0.6,7.3-2.9,16.2-2.9,16.2
					s-2.9-4.8-9.6-4.8c-6.1,0-9.9-2.2-10.3-7.9c-0.7-8.2-4.8-7-8.3-13.7C661.9-21.8,666.2-27.9,669.7-30.4z"/>
				<path class="st4" d="M677.9-19.1c11.3,11.2,17.5,24.9,16.8,44.3"/>
			</g>
		</g>
		<g class="st3">
			<path class="st6" d="M362.7,167.3L362.7,167.3l-1.3-0.8c-3-1.8-2.2-6.3,1.2-6.9l1.5-0.3l-1.2-0.9c-2.8-2.1-1.6-6.4,1.9-6.8
				l1.5-0.1l-1-0.9c-2.6-2.3-0.9-6.6,2.6-6.5l1.3,0l-0.7-0.9c-2.3-2.7,0-6.7,3.5-6.2l1.1,0.2l-0.4-0.7c-1.8-3,1.2-6.7,4.5-5.5
				l0.7,0.3l-0.2-0.4c-1.2-3.4,2.5-6.3,5.6-4.4l0.4,0.2l0-0.3c-0.4-3.6,4-5.6,6.5-3l0.2,0.2l0.1-0.5c0.5-3.5,5.1-4.5,7-1.4l0.3,0.5
				l0.2-0.7c1.2-3.3,5.9-3.3,7.1,0l0.2,0.7l0.1-0.2c1.8-3.1,6.5-2.1,7,1.4l0,0.3l0,0c2.5-2.6,6.9-0.5,6.5,3.1v0l0.1,0
				c3.1-1.9,6.8,1.2,5.5,4.6l0,0.1l0.4-0.1c3.4-1.1,6.3,2.7,4.3,5.7l-0.3,0.4l0.8-0.1c3.5-0.4,5.6,3.8,3.2,6.3l-0.6,0.6l1.1,0
				c3.5,0.1,5,4.5,2.3,6.7l-0.9,0.7l1.3,0.2c3.4,0.5,4.4,5,1.5,6.9l-1.1,0.7l1.3,0.3c3.4,0.8,3.9,5.4,0.8,7l-1.2,0.6v0
				c2.8,3.6,0.3,8.8-4.2,8.8l-66.5,0C362.2,175.9,359.8,170.7,362.7,167.3z"/>
			<path class="st4" d="M409.8,153.3c0,0,2.6-3,4.4-1.6c1.9,1.4-0.1,4.7-1.4,6.2"/>
		</g>
		<g class="st3">
			<path class="st7" d="M271.6,163.5L271.6,163.5l-4.4-3.3c-3.1-2.3-2.3-7.2,1.4-8.4l5.3-1.7l-4.2-3.6c-2.9-2.5-1.7-7.4,2-8.2
				l5.4-1.3l-3.9-3.9c-2.7-2.8-1.1-7.5,2.7-8l5.4-0.8l-3.4-4.2c-2.5-3-0.4-7.6,3.5-7.7l5.3-0.2l-2.7-4.3c-2.1-3.4,0.6-7.7,4.5-7.3
				l5.1,0.5l-1.8-4.4c-1.5-3.7,2-7.6,5.8-6.4l4.5,1.4l-0.7-4.2c-0.7-4.1,3.8-7,7.2-4.8l3.6,2.3l0.5-4c0.5-4.1,5.6-5.7,8.3-2.5
				l2.6,3.1l1.6-3.6c1.7-3.8,7.1-3.7,8.7,0.1l1.5,3.6l2.2-2.6c2.8-3.2,8-1.4,8.3,2.8l0.2,3.4l3.2-1.9c3.6-2.1,8,1.2,7,5.2l-0.9,3.7
				l4.2-1.1c4-1,7.3,3.1,5.4,6.7l-2,3.9l4.8-0.3c4-0.2,6.5,4.3,4.1,7.5l-2.8,3.9l5,0.4c4,0.3,5.8,5,3.2,7.9l-3.4,3.7l5.1,0.9
				c3.9,0.7,5.3,5.5,2.4,8.2l-3.8,3.5l5.1,1.3c3.8,1,4.9,5.9,1.8,8.3l-4.1,3.3l5,1.6c3.7,1.2,4.5,6.2,1.2,8.4l-4.3,3v0
				c3.9,5,0.3,12.2-6,12.2l-98.4,0.2C271.9,176.1,268,168.9,271.6,163.5z"/>
			<path class="st4" d="M312.8,130.2c0,0-7.6-6.3-3.4-10.4c3.2-3.2,9.6,3.8,9.6,3.8"/>
			<path class="st4" d="M355.5,140c0,0,2.6-5.2,5.8-3.4s-0.8,8.8-0.8,8.8"/>
		</g>
		<g class="st3">
			<path class="st5" d="M562.4,171.3c-8.2-9.2-28.7-10.5-38.8-1.9l0,0c-9.7,8.9-25.9,9.2-36,0.7l-2.5-2.1c-11.1-9.3-29.2-9.3-40.2,0
				l0,0c-11.1,9.3-29.2,9.3-40.2,0l0,0c-11.1-9.3-29.2-9.3-40.2,0l0,0c-11.1,9.3-29.2,9.3-40.2,0l0,0c-11.1-9.3-29.2-9.3-40.2,0l0,0
				c-11.1,9.3-29.2,9.3-40.2,0l0,0c-11.1-9.3-29.2-9.3-40.2,0l0,0c-11.1,9.3-29.2,9.3-40.2,0l0,0c-11.1-9.3-29.2-9.3-40.2,0l0,0
				c-11.1,9.3-29.2,9.3-40.2,0l0,0c-11.1-9.3-29.2-9.3-40.2,0l0,0c-11.1,9.3-29.2,9.3-40.2,0l-1.7-1.4c-0.1-0.1-0.2-0.2-0.3-0.2
				c-1.7-1.4-4.3-0.2-4.3,2v383.9c0,1.4,1.2,2.6,2.6,2.6h550.1c12.7,0,23-6.5,23-14.6V186C571.7,182.9,565.3,174.6,562.4,171.3z"/>
		</g>
		<g class="st3">
			<path class="st8" d="M127.1,297.8c-0.3-0.9-0.6-1.7-1-2.5c-1.5-2.9-5-4.1-8-2.9c-3.1,1.2-6.8,3.7-7.6,8.4c-0.4,2.5,0.7,5,2.9,6.4
				c0.7,0.5,1.6,1,2.6,1.4C115.5,304.5,119.8,297.8,127.1,297.8z"/>
			<path class="st7" d="M127.1,297.8c-7.3,0-11.5,6.7-11.1,10.7c1.3,0.5,2.7,1,4.3,1.2c0.2-0.9,1.3-6.2,7.6-7.6
				c-6.3,1.4-7.5,6.6-7.6,7.6c1.1,0.1,2.4,0.2,3.7,0.1c2.3-0.2,4-2.2,4.1-4.5C128.1,303.2,127.9,300.5,127.1,297.8z"/>
		</g>
		<g class="st3">
			<g>
				<path class="st9" d="M148.2,312.3c-0.8-0.1-1.7-0.2-2.5-0.2c-3,0.1-5.4,2.4-5.6,5.4c-0.3,3.1,0.3,7.1,3.9,9.7
					c1.9,1.4,4.4,1.4,6.4,0.2c0.7-0.4,1.4-0.9,2.2-1.6C149.1,324.6,145.3,318.3,148.2,312.3z"/>
				<path class="st8" d="M154.8,314.5c-1.7-0.9-4-1.9-6.6-2.3c-3,6,0.8,12.3,4.3,13.5c1-0.8,1.9-1.8,2.7-3.1
					c-0.7-0.5-4.6-3.6-3.1-9.4c-1.5,5.8,2.4,8.9,3.1,9.4c0.6-0.9,1.1-1.9,1.5-3C157.6,317.8,156.7,315.5,154.8,314.5z"/>
			</g>
			<g>
				<path class="st9" d="M178.9,300.2c-5.1,2-5.4,6.5-5.4,7.3c1,0,2-0.2,3.1-0.4c1.9-0.5,3.1-2.3,2.8-4.3
					C179.3,302,179.2,301.1,178.9,300.2z"/>
				<path class="st8" d="M177.7,296.7c-0.3-0.7-0.7-1.3-1.2-2c-1.6-2.2-4.7-2.8-7-1.4c-2.4,1.4-5.2,3.9-5.2,8c0,2.1,1.3,4.1,3.2,5
					c0.7,0.3,1.5,0.6,2.3,0.8C168.9,303.8,171.6,297.6,177.7,296.7z"/>
				<path class="st7" d="M178.9,300.2c-0.3-1.1-0.7-2.3-1.3-3.5c-6.1,0.9-8.8,7.1-7.9,10.4c1.1,0.3,2.4,0.5,3.8,0.4
					C173.6,306.7,173.8,302.2,178.9,300.2z"/>
			</g>
			<g>
				<path class="st8" d="M192.1,311.1c-1,0-2,0-3.1,0.2c-1.9,0.3-3.3,2.1-3.1,4c0,0.8,0.1,1.7,0.3,2.6
					C191.5,316.4,192.1,311.9,192.1,311.1z"/>
				<path class="st7" d="M195.9,311.8c-1.1-0.4-2.3-0.6-3.7-0.7c-0.1,0.8-0.7,5.3-5.9,6.9c0.2,1.2,0.5,2.4,1,3.6
					C193.4,321.1,196.5,315.2,195.9,311.8z"/>
				<path class="st8" d="M198.2,312.8c-0.7-0.3-1.4-0.7-2.3-1c0.6,3.3-2.5,9.3-8.6,9.8c0.3,0.7,0.6,1.4,1.1,2.1
					c1.5,2.3,4.5,3.1,6.9,1.9c2.5-1.2,5.4-3.6,5.8-7.6C201.2,315.9,200,313.8,198.2,312.8z"/>
			</g>
			<g>
				<g>
					<path class="st7" d="M215.3,303.4c1-0.6,2.1-1.3,3.1-2.1c-2.4-5.6-9.1-6.7-12-5.1c0,1.2,0.1,2.4,0.5,3.8
						C207.7,299.8,212.2,298.9,215.3,303.4z"/>
					<path class="st9" d="M218.4,301.3c0.6-0.5,1.1-1,1.6-1.7c1.7-2.1,1.5-5.2-0.4-7.2c-2-2-5.1-4-9.1-3.1c-2.1,0.5-3.6,2.2-4,4.4
						c-0.1,0.7-0.2,1.6-0.2,2.5C209.4,294.6,216,295.7,218.4,301.3z"/>
				</g>
				<path class="st8" d="M206.9,300c0.3,0.9,0.6,1.9,1.2,2.9c0.9,1.7,3,2.4,4.8,1.7c0.7-0.3,1.6-0.7,2.4-1.1
					C212.2,298.9,207.7,299.8,206.9,300z"/>
			</g>
			<g>
				<path class="st7" d="M220.5,330.7c0.9,0.5,1.9,1,3,1.4c2,0.6,4.1-0.3,5-2.2c0.4-0.8,0.7-1.7,1-2.6
					C223.8,326,220.9,330,220.5,330.7z"/>
				<path class="st8" d="M230.4,323.3c0.1-0.8,0.1-1.6,0.1-2.5c-0.2-2.9-2.6-5.2-5.5-5.3c-3-0.1-6.9,0.6-9.3,4.2
					c-1.3,1.9-1.2,4.4,0,6.3c0.4,0.7,1,1.4,1.6,2.1C218.4,324.7,224.4,320.7,230.4,323.3z"/>
				<path class="st9" d="M217.3,328.1c0.8,0.9,1.9,1.8,3.1,2.5c0.5-0.7,3.3-4.6,9-3.4c0.4-1.2,0.7-2.5,0.9-3.9
					C224.4,320.7,218.4,324.7,217.3,328.1z"/>
			</g>
		</g>
		<g class="st3">
			<path class="st4" d="M44.8,308.4c0.1-2.3-0.2-5.6-1.7-8.5c-1.3-2.4-4.2-3.5-6.7-2.5c-2.6,1-5.7,3.1-6.4,7.1
				c-0.4,2.1,0.6,4.2,2.4,5.4c2,1.3,5,2.6,8.9,2.2C43.2,312,44.7,310.4,44.8,308.4z"/>
			<path class="st4" d="M38.2,312.3c0,0,0.6-5.2,6.5-6.5"/>
			<path class="st4" d="M34.6,311.1c-0.4-3.4,3.2-9.1,9.4-9.1"/>
		</g>
		<g class="st3">
			<path class="st9" d="M12,316.1c-0.3,1.2-0.6,2.5-0.6,4c0.8,0,5.6,0.5,7.5,6c1.2-0.3,2.5-0.7,3.8-1.2
				C21.9,318.3,15.5,315.2,12,316.1z"/>
			<path class="st7" d="M11.4,320c0,1,0.1,2.1,0.3,3.3c0.5,2,2.4,3.4,4.4,3.2c0.8-0.1,1.8-0.2,2.8-0.4C17,320.5,12.2,320.1,11.4,320
				z"/>
			<path class="st8" d="M26.6,316.2c-1.4-2.6-4-5.6-8.3-5.8c-2.3-0.1-4.4,1.2-5.4,3.2c-0.3,0.7-0.7,1.5-0.9,2.5
				c3.5-0.8,9.9,2.3,10.7,8.7c0.7-0.3,1.5-0.7,2.1-1.2C27.2,321.9,27.9,318.7,26.6,316.2z"/>
		</g>
		<rect x="860.7" y="-2" class="st1" width="24.9" height="138.6"/>
		<path class="st2" d="M860.7-0.1c0,0,13.3-2.4,14.3,12.5c0.9,13.2-1.5,28.1,10.6,28.1v-51.3h-24.9V-0.1z"/>
		<path class="st10" d="M860.7-2c0,0,14.9-2.5,16.5,10.6c2.1,16.9-1.7,27.3,8.3,28.5v1.2V-9.5h-24.9v6.3"/>
		<g class="st3">
			<path class="st8" d="M885.5,32.5v-3.6c8.8,0,11.5-4,11.5-12.6V-4.8h3.6v21.1C900.7,26.9,896.3,32.5,885.5,32.5z"/>
		</g>
		<g class="st3">
			<line class="st11" x1="149.8" y1="46.6" x2="199.7" y2="101.1"/>
			<line class="st11" x1="237.5" y1="76.5" x2="253.4" y2="93.8"/>
			<line class="st11" x1="196.2" y1="31.4" x2="231.5" y2="69.9"/>
			<line class="st11" x1="233.2" y1="98.3" x2="252.2" y2="119.2"/>
			<line class="st11" x1="196.2" y1="58" x2="226.4" y2="90.9"/>
			<line class="st11" x1="228.7" y1="36.3" x2="258.9" y2="69.2"/>
			<line class="st11" x1="165.5" y1="97" x2="185.1" y2="118.3"/>
			<line class="st11" x1="210.4" y1="112.8" x2="216.9" y2="119.8"/>
			<line class="st11" x1="135.1" y1="63.9" x2="157.4" y2="88.1"/>
		</g>
		<g class="st3">
			<path class="st9" d="M89.2,281.8c5-2.2,5.1-6.7,5.1-7.5c-1,0.1-2,0.2-3,0.6c-1.9,0.6-3,2.5-2.7,4.4C88.8,280,89,280.9,89.2,281.8
				z"/>
			<path class="st7" d="M90.7,285.2c0.4,0.7,0.8,1.3,1.3,1.9c1.7,2.1,4.8,2.6,7.1,1.1c2.4-1.5,5-4.1,4.9-8.2c-0.1-2.1-1.4-4-3.4-4.8
				c-0.7-0.3-1.5-0.5-2.4-0.7C99.1,277.8,96.7,284.1,90.7,285.2z"/>
			<path class="st8" d="M89.2,281.8c0.3,1.1,0.8,2.3,1.4,3.5c6-1.2,8.5-7.5,7.5-10.7c-1.1-0.2-2.4-0.4-3.8-0.3
				C94.4,275,94.3,279.6,89.2,281.8z"/>
		</g>
		<g class="st3">
			<path class="st7" d="M862.4,73.4c3.1-0.4,10,1.8,8.9,12.4s7.4,10.4,6.4,17c-0.8,5.1-5,5.3-6.5,10.4c-1,3.4-3.1,7-7.7,7.2
				c-3.8,0.1-7.4-2.7-8.1-7.2c-1.3-8.1-5.2-6.5-4.9-12.8c0.3-5.9,4.4-6.4,4.4-12.3C854.9,82.5,855,74.3,862.4,73.4z"/>
			<path class="st4" d="M862.5,82.7c0,0-6.2,28.8,7.6,51.2"/>
			<path class="st4" d="M858.8,86.5c0.2,2.5,4.2,4.5,7.3,0.5"/>
			<path class="st4" d="M856.7,98.1c0.3,3.1,5.8,6.8,10.2-0.7"/>
			<path class="st4" d="M859.5,109.8c1.1,2.2,4.4,2.5,5.6-0.3"/>
		</g>
		<g class="st3">
			<path class="st5" d="M847.4,110.2L847.4,110.2C847.4,110.2,847.4,110.2,847.4,110.2c-0.2-0.2-0.4-0.4-0.7-0.5
				c-0.5-0.3-1-0.7-1.4-1.2c-2-2.2-2.7-4.9-2.9-5.9c0-0.1,0-0.3-0.1-0.4c-0.6-2.7-2.6-4.5-5.2-3.9c-2.6,0.6-3.5,3.1-2.9,5.8
				c1.2,4.1-1.8,8.6-1.8,8.6l0,0c-1,1.7-1.4,3.6-1,5.6c1,4.3,5.9,6.8,10.9,5.6c5-1.2,8.2-5.6,7.2-9.9
				C849.3,112.4,848.5,111.1,847.4,110.2z"/>
			<path class="st4" d="M838.7,106.8c0,0,4.7,16.7,0,22.7"/>
			<path class="st4" d="M837.7,111.5c0,0,0.6,1.2,2.1,0.9c1.5-0.4,1.8-1.8,1.8-1.8"/>
			<path class="st4" d="M837.2,118.1c0,0,1,1.7,3.5,1.3c2.7-0.4,3.2-2.9,3.2-2.9"/>
		</g>
		<path class="st10" d="M247.4,393.8c0,0,66.4-8.9,117.6-72c91.7-113,201.5-193.4,407.8-192.2c103,0.6,175.3,1.2,232.1-18.8
			C1124.5,68.8,1154.9-2,1154.9-2h211.2v603.4l-1118.7-0.1V393.8z"/>
		<g class="st3">
			<path class="st6" d="M983.4,113.5l1.8-1.8l-2.5-2.6c-1.9-2-0.6-5.2,2.1-5.4l3.6-0.2l-2.3-2.8c-1.7-2.1-0.3-5.2,2.4-5.2l3.6,0
				l-2.2-2.9c-1.6-2.2,0-5.2,2.7-5.1l3.6,0.2l-1.9-3c-1.5-2.3,0.4-5.2,3.1-4.9l3.5,0.5l-1.6-3c-1.3-2.4,0.9-5.2,3.5-4.6l3.4,0.8
				l-1.3-3.1c-1-2.5,1.4-5.1,4-4.2l3.1,1.1l-0.8-3c-0.7-2.7,2.2-4.9,4.6-3.6l2.7,1.5l-0.2-2.9c-0.2-2.8,3-4.5,5.2-2.7l2.2,1.9
				l0.4-2.7c0.4-2.8,4-3.7,5.7-1.4l1.6,2.2l1-2.5c1.1-2.6,4.8-2.6,5.9,0l1,2.5l1.6-2.2c1.7-2.3,5.3-1.5,5.7,1.4l0.4,2.6l2.1-1.8
				c2.1-1.9,5.4-0.2,5.3,2.6l-0.2,2.8l2.6-1.5c2.4-1.4,5.3,0.8,4.6,3.5l-0.7,2.9l3-1.1c2.6-1,5.1,1.6,4,4.2l-1.2,3l3.3-0.8
				c2.7-0.6,4.8,2.2,3.5,4.6l-1.6,2.9l3.4-0.4c2.7-0.4,4.6,2.7,3,4.9l-1.9,2.9l3.5-0.2c2.7-0.1,4.3,3,2.6,5.1l-2.2,2.8l3.5,0.1
				c2.7,0.1,4.1,3.3,2.3,5.3l-2.4,2.6l3.5,0.3c2.7,0.2,3.9,3.5,2,5.4l-2.5,2.5l2,2c2,2,0.5,5.4-2.3,5.4c0,0-29,6.3-51.4,6.3
				c-24.5,0-51.3-5.9-51.3-5.9C982.8,119,981.4,115.5,983.4,113.5z"/>
			<path class="st4" d="M1038.9,89c0,0,2.4-4.4,5.1-3.7c2.7,0.7,1.3,5.2,1.3,5.2"/>
		</g>
		<g class="st3">
			<g>
				<path class="st5" d="M988.2,238.7L988.2,238.7l1.2-1.3c1.8-2,0.4-5.2-2.3-5.2l-1.7,0l0.8-1.4c1.5-2.3-0.6-5.2-3.2-4.7l-1.6,0.3
					l0.5-1.3c1-2.6-1.7-5-4.2-3.9l-1.3,0.6l0.2-1.4c0.3-2.7-2.8-4.5-5-2.8l-1.1,0.8l-0.2-1.5c-0.3-2.7-3.7-3.7-5.5-1.6l-0.9,1.2
					l-0.5-1.6c-0.9-2.6-4.4-2.9-5.7-0.5l-0.8,1.5l-0.8-1.5c-1.3-2.4-4.8-2.1-5.7,0.5l-0.5,1.6l-0.9-1.1c-1.7-2.1-5.2-1.1-5.5,1.6
					l-0.2,1.5l-1.1-0.8c-2.2-1.7-5.3,0.1-5,2.8l0.2,1.3l-1.3-0.6c-2.5-1.1-5.1,1.3-4.2,3.9l0.5,1.3l-1.5-0.3
					c-2.7-0.5-4.7,2.4-3.2,4.7l0.8,1.3l-1.7,0c-2.7,0-4.1,3.2-2.3,5.2l1.2,1.3l0,0c-2.9,0.5-3.6,4.3-1.1,5.7l0.7,0.4l63.3,0.1
					l0.7-0.4C991.8,243,991.1,239.1,988.2,238.7z"/>
			</g>
			<path class="st4" d="M952.7,234.1c0,0-1.9-3.5,0.4-4.8c2.2-1.3,4.1,2.3,4.1,2.3"/>
		</g>
		<g class="st3">
			<path class="st4" d="M964.3,369.3c-12.1-60.7-60.2-93.7-81.9-101.3"/>
			<path class="st4" d="M876.7,285.2c5.2,1.6,15.1,2.7,23.9-8"/>
			<circle class="st9" cx="870.3" cy="281.6" r="7.4"/>
			<circle class="st8" cx="879.8" cy="266.2" r="3.2"/>
			<path class="st4" d="M910.5,284.1c0,0,3-11.5-4.1-23.5"/>
			<circle class="st9" cx="904.3" cy="254.8" r="6.3"/>
			<path class="st4" d="M894.5,320c0,0,28.4,11.4,47.4-3.1"/>
			<circle class="st9" cx="886.4" cy="317.6" r="8.6"/>
			<path class="st4" d="M910.9,323.9c0,0-0.3-9.8-9.6-16.3"/>
			<circle class="st8" cx="899.7" cy="306.4" r="2.6"/>
			<g>
				<path class="st4" d="M934.8,307.5c0,0,10.6-20.2-3.7-41.3"/>
				<circle class="st8" cx="929" cy="262.4" r="4.1"/>
				<path class="st4" d="M937.8,281.9c0,0,7.5-4,7.5-14.4"/>
				<circle class="st9" cx="945.4" cy="264.3" r="3.2"/>
			</g>
		</g>
		<g class="st3">
			<g>
				<path class="st8" d="M1032.6,216C1032.6,216,1032.6,216,1032.6,216l0-5.9l0-5.9c0.1,0,6.9-0.1,13.5-4.9
					c8.9-6.4,13.4-18.1,13.4-34.6c0-44.8,0-175.6,0-176.2l11.8,0c0,0.6,0,131.4,0,176.3c0,17.6-4.6,31.2-13.8,40.3
					C1046.6,215.8,1033.4,216,1032.6,216z"/>
			</g>
			<g>
				<path class="st8" d="M973.7,106.1c-23.3,0-32.7-4.9-38.3-9.2c-10.2-7.7-15.1-20.8-15.1-40v-74.5h10.3v74.5
					c0,16,3.5,26.1,11.1,31.8c6.4,4.9,16.3,7.1,32.1,7.1V106.1z"/>
			</g>
			<path class="st8" d="M961.3-2l-0.1,187.6c1.9,0.5,18.2,5.4,21.1,22.7c3.1,18.4-9.2,25.9-6.4,42.5c2.3,13.9,20.8,16.6,21.5,47.6
				c0.7,33.2-34.1,35.5-36.4,35.6L961,601.3l71.6,0.1V198v-17.6V40.3v-8.7V-2H961.3z"/>
			<path class="st9" d="M1014.2,47.1c-5.9,17.4,8.8,44.9-3.7,69.6c-9.2,18.2-6.2,39.3,16.4,51.9c2.2,1.2,4.5,2.9,5.7,5V33.5
				C1029.2,33.7,1017.9,36.1,1014.2,47.1z"/>
			<path class="st7" d="M1005,60.5c1.6,23.5,5.7,38.6,0,50.4c-8,16.4-10.1,35,0.6,50c9.4,13.2,27,13.9,27,30.3v-17.6
				c-1.2-2.1-3.5-3.8-5.7-5c-22.6-12.6-25.6-33.7-16.4-51.9c12.4-24.7-2.2-52.2,3.7-69.6c3.7-11,15.1-13.3,18.4-13.6v-8.7
				C1032.6,24.8,1002.7,27.1,1005,60.5z"/>
			<path class="st9" d="M997.5,298.4c-0.7-30.9-19.2-33.7-21.5-47.6c-2.8-16.6,9.4-24.1,6.4-42.5c-2.9-17.3-19.2-22.2-21.1-22.7
				L961.1,334C963.4,333.9,998.2,331.6,997.5,298.4z"/>
			<path class="st7" d="M961.1,330.4c25-4.1,31.2-19.6,30.1-35c-1.6-23.5-19.2-29.2-20.3-46.2c-0.8-12.1,6.4-18.6,7-33.4
				c0.9-20.6-16.8-24.4-16.8-24.4L961.1,330.4z"/>
		</g>
		<path class="st12" d="M0,351.9c51.8,34.5,140-34.4,213.2,5.9c63.3,34.9,41.4,106.9,74.8,141.4c37.7,38.8,84.4,33.6,99.8,102.1H0
			V351.9z"/>
		<path class="st13" d="M553.8,486.1c2.9-0.4,5.8-1.5,8.3-3.1l0,0c6.9-4.4,15.7-4.4,22.5,0l0,0c6.9,4.4,15.7,4.4,22.5,0l0,0
			c6.9-4.4,15.7-4.4,22.5,0l0,0c6.9,4.4,15.7,4.4,22.5,0l0,0c6.9-4.4,15.7-4.4,22.5,0l0,0c6.9,4.4,15.7,4.4,22.5,0l0,0
			c6.9-4.4,15.7-4.4,22.5,0l0,0c6.9,4.4,15.7,4.4,22.5,0l0,0c6.9-4.4,15.7-4.4,22.5,0l3.6,2.3"/>
		<line class="st13" x1="584.6" y1="433.7" x2="585.6" y2="434.7"/>
		<g class="st3">
			<path class="st8" d="M132.8-2.1c0,26.1,0,155,0,173.1c0,23.6-6.5,40.3-19.2,49.4c-9.4,6.8-19.2,7-19.3,7l0,8.4l0,8.4c0,0,0,0,0,0
				c1.1,0,20-0.2,35.6-15.7c13-13,19.6-32.3,19.7-57.6c0-18.1,0-147,0-173.1H132.8z"/>
		</g>
		<polygon class="st1" points="69.9,-2 64.9,-2 -0.5,-2 -1.8,197.9 -1.8,215.4 -1.8,355.6 -1.8,364.3 -0.5,601.4 94.3,601.4 
			94.3,71.4 94.3,66.1 94.3,-2 		"/>
		<path class="st2" d="M17.8,340.8c6.1-18.3-9.2-47.2,3.9-73.2c9.6-19.2,6.6-41.3-17.2-54.5c-2.3-1.3-4.8-3-6-5.3v147.3
			C2,354.8,13.9,352.3,17.8,340.8z"/>
		<path class="st10" d="M27.5,326.7c-1.7-24.7-6-40.5,0-52.9c8.4-17.3,10.6-36.8-0.7-52.6C17,207.3-1.6,206.6-1.6,189.4v18.4
			c1.2,2.2,3.7,4,6,5.3c23.8,13.3,26.9,35.4,17.2,54.5c-13.1,26,2.3,54.9-3.9,73.2c-3.9,11.5-15.8,14-19.4,14.3v9.1
			C-1.6,364.3,29.9,361.8,27.5,326.7z"/>
		<g class="st3">
			<g>
				<path class="st8" d="M529,58.9c28.8,0,28.8-27.1,28.8-36v-55.4h-6.6v55.4c0,14.5-2.6,29.3-22.2,29.3V58.9z"/>
			</g>
			<g>
				<path class="st8" d="M529,204.6V-2h-43.4v93.5v5.7V199v4.9v108.7h42.7c-4.2-3.9-10.8-6.3-15.1-12.3c-7.6-10.7-6.1-23.8-0.4-35.4
					c4.1-8.4,1.2-19,0-35.7C511.6,211.6,523.1,206.2,529,204.6z"/>
				<path class="st9" d="M502.5,133.6c-6.7-11.6-3.4-22.6-3.7-44.5c-0.3-21.9-13.2-22.5-13.2-22.5v5.7c0,0,8.3,1.1,8.6,17.4
					c0.2,16.3-2.1,32.6,3.5,43.6c5.3,10.5,12.1,33.8-12,40.7v4.9C511.6,173.9,510.3,147.4,502.5,133.6z"/>
				<path class="st7" d="M497.6,133.3c-5.5-11-3.2-27.3-3.5-43.6c-0.2-16.3-8.6-17.4-8.6-17.4V174
					C509.7,167.1,502.9,143.8,497.6,133.3z"/>
				<path class="st9" d="M519.3,219.8c-4.1,12.3,6.2,31.8-2.6,49.3c-6.5,12.9-4.4,27.8,11.6,36.8c0.2,0.1,0.5,0.3,0.7,0.4v-95.4
					C525.7,211.9,521.2,214.3,519.3,219.8z"/>
				<path class="st7" d="M512.8,229.2c1.1,16.6,4,27.3,0,35.7c-5.7,11.6-7.1,24.8,0.4,35.4c4.2,6,10.8,8.3,15.1,12.3h0.7v-6.4
					c-0.2-0.1-0.5-0.3-0.7-0.4c-16-8.9-18.1-23.8-11.6-36.8c8.8-17.5-1.5-37,2.6-49.3c1.8-5.4,6.3-7.9,9.7-8.9v-6.2
					C523.1,206.2,511.6,211.6,512.8,229.2z"/>
			</g>
			<g>
				<path class="st8" d="M485.6,155.8C485.6,155.8,485.6,155.8,485.6,155.8l0-3.6l0-3.6c0,0-4.2-0.1-8.2-3c-5.4-3.9-8.2-11-8.2-21.1
					c0-27.4,0-133.5,0-133.9l-7.2,0c0,0.4,0,106.5,0,133.9c0,10.8,2.8,19,8.4,24.6C477,155.7,485.1,155.8,485.6,155.8z"/>
			</g>
		</g>
		<g class="st3">
			<g>
				<g>
					<g>
						<g>
							<g>
								<g>
									<path class="st14" d="M1114.1,117.2c-0.4-7.8,3.7-10.5,6.1-11.4c-1.6-1.5-3.4-3.4-5.3-6c-6.7-9.4-15.5-3.4-15.5-3.4
										c-18.3,3.5-15.7,18.9-15.7,18.9s16.8,28.2,29.6,24.2C1108.3,132.7,1114.7,127.5,1114.1,117.2z"/>
									<path class="st4" d="M1114.1,117.2c-0.4-7.8,3.7-10.5,6.1-11.4c-1.6-1.5-3.4-3.4-5.3-6c-6.7-9.4-15.5-3.4-15.5-3.4
										c-18.3,3.5-15.7,18.9-15.7,18.9s16.8,28.2,29.6,24.2C1108.3,132.7,1114.7,127.5,1114.1,117.2z"/>
								</g>
								<g>
									<path class="st14" d="M1129.1,118.5c0-7.3-3.7-8-8.9-12.7c-2.4,0.9-6.5,3.5-6.1,11.4c0.5,10.3-5.8,15.5-0.7,22.3
										c0.2-0.1,0.3-0.1,0.5-0.1C1126.4,134.6,1129.1,125.7,1129.1,118.5z"/>
									<path class="st4" d="M1129.1,118.5c0-7.3-3.7-8-8.9-12.7c-2.4,0.9-6.5,3.5-6.1,11.4c0.5,10.3-5.8,15.5-0.7,22.3
										c0.2-0.1,0.3-0.1,0.5-0.1C1126.4,134.6,1129.1,125.7,1129.1,118.5z"/>
								</g>
							</g>
							<path class="st15" d="M1081.2,121.6c-1,5.3,0.1,13.9,12.5,17.5c16.4,4.7,22.7,0.1,25.5-5.1s4.2-12.8,0-16.5s-5.7-6.2-7.5-9.9
								c-2.8-5.8-11.7-9.9-20.7-4.2C1083.8,108,1082.1,117.3,1081.2,121.6z"/>
						</g>
					</g>
				</g>
				<path class="st15" d="M1096.8,139.9c0,0-3.3-13.5,0.9-22.6"/>
			</g>
			<g>
				<g>
					<g>
						<g>
							<g>
								<g>
									<path class="st14" d="M1168.7,104.7c-0.4-7.8,3.7-10.5,6.1-11.4c-1.6-1.5-3.4-3.4-5.3-6c-6.7-9.4-15.5-3.4-15.5-3.4
										c-18.3,3.5-15.7,18.9-15.7,18.9s16.8,28.2,29.6,24.2C1162.9,120.2,1169.2,115,1168.7,104.7z"/>
									<path class="st4" d="M1168.7,104.7c-0.4-7.8,3.7-10.5,6.1-11.4c-1.6-1.5-3.4-3.4-5.3-6c-6.7-9.4-15.5-3.4-15.5-3.4
										c-18.3,3.5-15.7,18.9-15.7,18.9s16.8,28.2,29.6,24.2C1162.9,120.2,1169.2,115,1168.7,104.7z"/>
								</g>
								<g>
									<path class="st14" d="M1183.7,106c0-7.3-3.7-8-8.9-12.7c-2.4,0.9-6.5,3.5-6.1,11.4c0.5,10.3-5.8,15.5-0.7,22.3
										c0.2-0.1,0.3-0.1,0.5-0.1C1181,122,1183.7,113.2,1183.7,106z"/>
									<path class="st4" d="M1183.7,106c0-7.3-3.7-8-8.9-12.7c-2.4,0.9-6.5,3.5-6.1,11.4c0.5,10.3-5.8,15.5-0.7,22.3
										c0.2-0.1,0.3-0.1,0.5-0.1C1181,122,1183.7,113.2,1183.7,106z"/>
								</g>
							</g>
							<path class="st15" d="M1135.8,109.1c-1,5.3,0.1,13.9,12.5,17.5c16.4,4.7,22.7,0.1,25.5-5.1c2.8-5.2,4.2-12.8,0-16.5
								c-4.2-3.7-5.7-6.2-7.5-9.9c-2.8-5.8-11.7-9.9-20.7-4.2C1138.4,95.5,1136.7,104.8,1135.8,109.1z"/>
						</g>
					</g>
				</g>
				<path class="st15" d="M1151.4,127.3c0,0-3.3-13.5,0.9-22.6"/>
			</g>
			<g>
				<g>
					<g>
						<g>
							<g>
								<g>
									<path class="st14" d="M1221.8,92.7c-0.4-7.8,3.7-10.5,6.1-11.4c-1.6-1.5-3.4-3.4-5.3-6c-6.7-9.4-15.5-3.4-15.5-3.4
										c-18.3,3.5-15.7,18.9-15.7,18.9s16.8,28.2,29.6,24.2C1216,108.2,1222.3,103,1221.8,92.7z"/>
									<path class="st4" d="M1221.8,92.7c-0.4-7.8,3.7-10.5,6.1-11.4c-1.6-1.5-3.4-3.4-5.3-6c-6.7-9.4-15.5-3.4-15.5-3.4
										c-18.3,3.5-15.7,18.9-15.7,18.9s16.8,28.2,29.6,24.2C1216,108.2,1222.3,103,1221.8,92.7z"/>
								</g>
								<g>
									<path class="st14" d="M1236.8,94c0-7.3-3.7-8-8.9-12.7c-2.4,0.9-6.5,3.5-6.1,11.4c0.5,10.3-5.8,15.5-0.7,22.3
										c0.2-0.1,0.3-0.1,0.5-0.1C1234.1,110.1,1236.8,101.2,1236.8,94z"/>
									<path class="st4" d="M1236.8,94c0-7.3-3.7-8-8.9-12.7c-2.4,0.9-6.5,3.5-6.1,11.4c0.5,10.3-5.8,15.5-0.7,22.3
										c0.2-0.1,0.3-0.1,0.5-0.1C1234.1,110.1,1236.8,101.2,1236.8,94z"/>
								</g>
							</g>
							<path class="st15" d="M1188.9,97.1c-1,5.3,0.1,13.9,12.5,17.5c16.4,4.7,22.7,0.1,25.5-5.1c2.8-5.2,4.2-12.8,0-16.5
								s-5.7-6.2-7.5-9.9c-2.8-5.8-11.7-9.9-20.7-4.2C1191.5,83.6,1189.8,92.8,1188.9,97.1z"/>
						</g>
					</g>
				</g>
				<path class="st15" d="M1204.5,115.4c0,0-3.3-13.5,0.9-22.6"/>
			</g>
			<g>
				<g>
					<g>
						<g>
							<g>
								<g>
									<path class="st14" d="M1147.8,156c-0.4-7.8,3.7-10.5,6.1-11.4c-1.6-1.5-3.4-3.4-5.3-6c-6.7-9.4-15.5-3.4-15.5-3.4
										c-18.3,3.5-15.7,18.9-15.7,18.9s16.8,28.2,29.6,24.2C1142,171.5,1148.3,166.3,1147.8,156z"/>
									<path class="st4" d="M1147.8,156c-0.4-7.8,3.7-10.5,6.1-11.4c-1.6-1.5-3.4-3.4-5.3-6c-6.7-9.4-15.5-3.4-15.5-3.4
										c-18.3,3.5-15.7,18.9-15.7,18.9s16.8,28.2,29.6,24.2C1142,171.5,1148.3,166.3,1147.8,156z"/>
								</g>
								<g>
									<path class="st14" d="M1162.8,157.3c0-7.3-3.7-8-8.9-12.7c-2.4,0.9-6.5,3.5-6.1,11.4c0.5,10.3-5.8,15.5-0.7,22.3
										c0.2-0.1,0.3-0.1,0.5-0.1C1160.1,173.4,1162.8,164.5,1162.8,157.3z"/>
									<path class="st4" d="M1162.8,157.3c0-7.3-3.7-8-8.9-12.7c-2.4,0.9-6.5,3.5-6.1,11.4c0.5,10.3-5.8,15.5-0.7,22.3
										c0.2-0.1,0.3-0.1,0.5-0.1C1160.1,173.4,1162.8,164.5,1162.8,157.3z"/>
								</g>
							</g>
							<path class="st15" d="M1114.9,160.4c-1,5.3,0.1,13.9,12.5,17.5c16.4,4.7,22.7,0.1,25.5-5.1s4.2-12.8,0-16.5s-5.7-6.2-7.5-9.9
								c-2.8-5.8-11.7-9.9-20.7-4.2C1117.4,146.8,1115.7,156.1,1114.9,160.4z"/>
						</g>
					</g>
				</g>
				<path class="st15" d="M1130.5,178.7c0,0-3.3-13.5,0.9-22.6"/>
			</g>
			<g>
				<g>
					<g>
						<g>
							<g>
								<g>
									<path class="st14" d="M1202.4,143.5c-0.4-7.8,3.7-10.5,6.1-11.4c-1.6-1.5-3.4-3.4-5.3-6c-6.7-9.4-15.5-3.4-15.5-3.4
										c-18.3,3.5-15.7,18.9-15.7,18.9s16.8,28.2,29.6,24.2C1196.6,159,1202.9,153.8,1202.4,143.5z"/>
									<path class="st4" d="M1202.4,143.5c-0.4-7.8,3.7-10.5,6.1-11.4c-1.6-1.5-3.4-3.4-5.3-6c-6.7-9.4-15.5-3.4-15.5-3.4
										c-18.3,3.5-15.7,18.9-15.7,18.9s16.8,28.2,29.6,24.2C1196.6,159,1202.9,153.8,1202.4,143.5z"/>
								</g>
								<g>
									<path class="st14" d="M1217.4,144.8c0-7.3-3.7-8-8.9-12.7c-2.4,0.9-6.5,3.5-6.1,11.4c0.5,10.3-5.8,15.5-0.7,22.3
										c0.2-0.1,0.3-0.1,0.5-0.1C1214.6,160.8,1217.4,152,1217.4,144.8z"/>
									<path class="st4" d="M1217.4,144.8c0-7.3-3.7-8-8.9-12.7c-2.4,0.9-6.5,3.5-6.1,11.4c0.5,10.3-5.8,15.5-0.7,22.3
										c0.2-0.1,0.3-0.1,0.5-0.1C1214.6,160.8,1217.4,152,1217.4,144.8z"/>
								</g>
							</g>
							<path class="st15" d="M1169.5,147.9c-1,5.3,0.1,13.9,12.5,17.5c16.4,4.7,22.7,0.1,25.5-5.1c2.8-5.2,4.2-12.8,0-16.5
								c-4.2-3.7-5.7-6.2-7.5-9.9c-2.8-5.8-11.7-9.9-20.7-4.2C1172,134.3,1170.3,143.6,1169.5,147.9z"/>
						</g>
					</g>
				</g>
				<path class="st15" d="M1185.1,166.1c0,0-3.3-13.5,0.9-22.6"/>
			</g>
			<g>
				<g>
					<g>
						<g>
							<g>
								<g>
									<path class="st14" d="M1255.5,131.5c-0.4-7.8,3.7-10.5,6.1-11.4c-1.6-1.5-3.4-3.4-5.3-6c-6.7-9.4-15.5-3.4-15.5-3.4
										c-18.3,3.5-15.7,18.9-15.7,18.9s16.8,28.2,29.6,24.2C1249.7,147,1256,141.8,1255.5,131.5z"/>
									<path class="st4" d="M1255.5,131.5c-0.4-7.8,3.7-10.5,6.1-11.4c-1.6-1.5-3.4-3.4-5.3-6c-6.7-9.4-15.5-3.4-15.5-3.4
										c-18.3,3.5-15.7,18.9-15.7,18.9s16.8,28.2,29.6,24.2C1249.7,147,1256,141.8,1255.5,131.5z"/>
								</g>
								<g>
									<path class="st14" d="M1270.5,132.8c0-7.3-3.7-8-8.9-12.7c-2.4,0.9-6.5,3.5-6.1,11.4c0.5,10.3-5.8,15.5-0.7,22.3
										c0.2-0.1,0.3-0.1,0.5-0.1C1267.7,148.9,1270.5,140,1270.5,132.8z"/>
									<path class="st4" d="M1270.5,132.8c0-7.3-3.7-8-8.9-12.7c-2.4,0.9-6.5,3.5-6.1,11.4c0.5,10.3-5.8,15.5-0.7,22.3
										c0.2-0.1,0.3-0.1,0.5-0.1C1267.7,148.9,1270.5,140,1270.5,132.8z"/>
								</g>
							</g>
							<path class="st15" d="M1222.6,135.9c-1,5.3,0.1,13.9,12.5,17.5c16.4,4.7,22.7,0.1,25.5-5.1s4.2-12.8,0-16.5s-5.7-6.2-7.5-9.9
								c-2.8-5.8-11.7-9.9-20.7-4.2C1225.1,122.4,1223.4,131.6,1222.6,135.9z"/>
						</g>
					</g>
				</g>
				<path class="st15" d="M1238.2,154.2c0,0-3.3-13.5,0.9-22.6"/>
			</g>
		</g>
		<g class="st3">
			<path class="st6" d="M1243.5,50.5c2.7-0.5,3-4.2,0.4-5.1v0l2.5-1.2c2.3-1.1,1.9-4.4-0.5-5l-2.6-0.6l2.3-1.3
				c2.2-1.3,1.5-4.6-1-4.9l-2.6-0.3l2-1.5c2-1.5,0.9-4.7-1.6-4.7l-2.5,0l1.6-1.6c1.8-1.8,0.3-4.9-2.3-4.5l-2.2,0.3l1.2-1.7
				c1.5-2.1-0.6-4.9-3-4l-1.9,0.7l0.7-1.7c1-2.4-1.7-4.6-3.8-3.3l-1.5,1l0.3-1.8c0.4-2.6-2.7-4.1-4.5-2.3l-1.3,1.3l-0.1-2
				c-0.1-2.6-3.5-3.4-4.9-1.3l-1.1,1.7l-0.6-2.2c-0.6-2.5-4-2.7-5-0.4l-0.9,2.1l-0.9-2.1c-1-2.3-4.4-2.1-5,0.4l-0.6,2.2l-1.1-1.7
				c-1.4-2.2-4.7-1.3-4.9,1.3l-0.1,2l-1.3-1.3c-1.8-1.9-4.9-0.3-4.5,2.3l0.3,1.8l-1.5-1c-2.2-1.4-4.9,0.9-3.8,3.3l0.7,1.7l-1.9-0.7
				c-2.4-0.9-4.5,1.9-3,4l1.2,1.6l-2.2-0.3c-2.5-0.4-4.1,2.7-2.3,4.5l1.6,1.6l-2.5,0c-2.5,0-3.6,3.2-1.6,4.7l2,1.5l-2.6,0.3
				c-2.5,0.3-3.2,3.6-1,4.9l2.3,1.4l-2.7,0.6c-2.4,0.6-2.8,3.9-0.5,5l2.5,1.2v0c-2.6,0.9-2.3,4.6,0.4,5.1c0,0,14.4,3.6,33.1,3.6
				C1224.4,54.1,1243.5,50.5,1243.5,50.5z"/>
			<path class="st4" d="M1219.5,23c0,0,1.4-3.7,3.5-2.4c2.1,1.3,0,4.4,0,4.4"/>
		</g>
		<g class="st3">
			<g>
				<path class="st9" d="M1375.2,81.3L1375.2,81.3l1.4-1.6c2.2-2.5,0.5-6.4-2.9-6.4l-2.1,0l1-1.7c1.8-2.8-0.7-6.4-4-5.8l-1.9,0.4
					l0.6-1.7c1.2-3.2-2.1-6.2-5.1-4.8l-1.6,0.7l0.2-1.7c0.4-3.4-3.4-5.5-6.1-3.5l-1.3,1l-0.2-1.8c-0.4-3.3-4.6-4.6-6.7-2l-1.2,1.4
					l-0.7-2c-1.1-3.2-5.4-3.5-7-0.6l-1,1.8l-1-1.8c-1.6-2.9-5.9-2.6-7,0.6l-0.6,1.9l-1.1-1.4c-2.1-2.6-6.4-1.4-6.7,2l-0.2,1.8
					l-1.3-1c-2.7-2.1-6.5,0.1-6.1,3.5l0.2,1.7l-1.6-0.7c-3.1-1.4-6.3,1.6-5.1,4.8l0.6,1.6l-1.9-0.4c-3.3-0.7-5.8,2.9-4,5.8l1,1.6
					l-2.1,0c-3.3,0-5.1,3.9-2.9,6.4l1.4,1.6l0,0c-3.6,0.6-4.4,5.3-1.3,7.1l0.8,0.5c0,0,10,4.4,39.9,4.4c24.4,0,38-4.3,38-4.3
					l0.8-0.5C1379.6,86.6,1378.8,81.9,1375.2,81.3z"/>
			</g>
			<path class="st4" d="M1331.6,75.7c0,0-2.3-4.3,0.5-5.9s5.1,2.9,5.1,2.9"/>
		</g>
		<g class="st3">
			<rect x="782.1" y="-2" class="st8" width="34.5" height="197.9"/>
			<g>
				<path class="st8" d="M782.1,92.4C782.1,92.4,782.1,92.4,782.1,92.4l0-2.3l0-2.3c0,0-2.7-0.1-5.4-1.9c-3.5-2.6-5.3-7.2-5.3-13.8
					c0-17.8,0-77.2,0-77.4l-4.7,0c0,0.3,0,59.6,0,77.4c0,7,1.8,12.4,5.5,16C776.5,92.3,781.8,92.4,782.1,92.4z"/>
			</g>
			<path class="st9" d="M804.2,117.2c4.9-8.6,2.5-16.7,2.7-32.8c0.3-16.2,9.7-16.6,9.7-16.6v4.2c0,0-6.1,0.8-6.3,12.8
				c-0.2,12,1.5,24-2.5,32.1c-3.9,7.7-8.9,24.9,8.9,30v3.6C797.5,146.9,798.4,127.3,804.2,117.2z"/>
			<path class="st7" d="M807.8,117c4.1-8.1,2.4-20.1,2.5-32.1c0.2-12,6.3-12.8,6.3-12.8V147C798.8,141.9,803.9,124.7,807.8,117z"/>
		</g>
		<path class="st10" d="M782.1,43.2c12.6-1.8,15.6-10.4,14.4-24c-1.9-20.3,7.2-21.2,7.2-21.2L782.1-2V43.2z"/>
		<path class="st12" d="M441.8,326.1l2.5-3.1l-3-2.1c-3.9-2.7-3-8.8,1.5-10.3l3.5-1.1l-2.8-2.3c-3.8-3-2.4-9,2.2-10.2l3.5-0.9
			l-2.5-2.4c-3.5-3.3-1.7-9.2,3.1-10l3.4-0.5l-2-2.4c-3.2-3.7-0.6-9.5,4.3-9.6l3.1-0.1l-1.2-2c-2.6-4.3,1.1-9.6,6-8.7l2.3,0.4
			l-0.3-0.9c-1.5-5,3.9-9.2,8.4-6.6l0.8,0.5v0c0.7-5.3,7.6-6.9,10.5-2.5l0,0l0,0c3-4.4,9.8-2.8,10.5,2.5l0,0l0.8-0.5
			c4.5-2.6,9.9,1.6,8.5,6.6l-0.3,1l2.3-0.4c4.9-0.9,8.6,4.4,6,8.7l-1.3,2.1l3.1,0.1c4.9,0.1,7.5,5.8,4.3,9.6l-2,2.4l3.4,0.5
			c4.8,0.7,6.6,6.6,3.1,9.9l-2.5,2.4l3.5,0.9c4.7,1.1,6,7.1,2.3,10.1l-2.8,2.3l3.5,1.1c4.6,1.5,5.5,7.5,1.5,10.3l-3,2.1l2.5,3.1
			c3.1,3.8,0.4,9.4-4.5,9.4c0,0-18.7,2.5-38.6,2.5c-22.8,0-39.2-2.5-39.2-2.5C441.5,335.5,438.8,329.9,441.8,326.1z"/>
		<g class="st3">
			<path class="st9" d="M1083.4,240.7c4.4-6.4,14.4-4.8,20.1,3.3c8.1,11.5,9.4,16.4,26.3,22.7c15.7,5.9,2.9,19.9,16.9,27.1
				c8.3,4.2,7.2,18.5,5,24.1c0,0-17.6,3.9-22.7-11.3c-4.5-13.3-19.1-3.3-22.7-20.6c-3.5-16.7-12-20.1-19.6-27.6
				C1080.8,252.8,1080.4,245,1083.4,240.7z"/>
			<path class="st4" d="M1083.4,240.7c15.1,8.4,64.7,60.4,77.3,96.1"/>
		</g>
		<g class="st3">
			<path class="st8" d="M804,212.1c5.7-1,6.2-8.9,0.8-10.7l0,0l5.2-2.4c4.8-2.2,4-9.2-1.1-10.5l-5.6-1.3l4.8-2.8
				c4.6-2.7,3.1-9.6-2.1-10.3l-5.5-0.7l4.2-3.2c4.2-3.2,2-10-3.3-10l-5.3,0l3.4-3.4c3.8-3.8,0.5-10.2-4.8-9.4L790,148l2.4-3.5
				c3.1-4.4-1.3-10.3-6.4-8.4l-4,1.4l1.5-3.5c2.1-5-3.5-9.8-8.1-6.9l-3.2,2l0.6-3.8c0.9-5.4-5.7-8.7-9.5-4.8l-2.7,2.7l-0.2-4.3
				c-0.3-5.4-7.3-7.3-10.3-2.7l-2.3,3.6l-1.2-4.7c-1.3-5.2-8.5-5.8-10.5-0.8l-1.9,4.5l-1.9-4.5c-2.1-4.9-9.2-4.4-10.5,0.8l-1.2,4.7
				l-2.3-3.6c-2.9-4.6-10-2.7-10.3,2.7l-0.2,4.3l-2.7-2.7c-3.8-3.9-10.4-0.6-9.5,4.8l0.6,3.8l-3.2-2c-4.6-2.9-10.2,1.8-8.1,6.9
				l1.5,3.5l-4-1.4c-5.1-1.8-9.5,4-6.4,8.4l2.4,3.5l-4.7-0.7c-5.3-0.8-8.6,5.6-4.8,9.4l3.4,3.4l-5.3,0c-5.3,0-7.6,6.8-3.3,10
				l4.2,3.2l-5.5,0.7c-5.2,0.7-6.7,7.6-2.1,10.3l4.8,2.8l-5.6,1.3c-5.1,1.2-5.9,8.2-1.1,10.4l5.2,2.4v0c-5.5,1.8-4.9,9.7,0.8,10.7
				c0,0,29.8,7.4,69.7,7.4C767.2,219.5,804,212.1,804,212.1z"/>
			<path class="st4" d="M753.5,154.1c0,0,2.9-7.7,7.3-5.1c4.4,2.7,0,9.2,0,9.2"/>
		</g>
		<g class="st3">
			<path class="st5" d="M475,544.8L475,544.8C475,544.7,475,544.7,475,544.8c-0.6-0.8-1.2-1.6-1.8-2.3c-1.3-1.5-2.6-3.1-3.5-4.9
				c-4.8-8.7-5.1-18.1-5.1-21.6c0-0.5,0.1-0.9,0.1-1.4c0-9.2-4.9-16.7-13.8-16.7c-8.9,0-13.8,7.5-13.8,16.7
				c0.6,14.3-12.4,26.6-12.4,26.6l0,0c-4.7,4.7-7.5,10.7-7.5,17.4c0,14.8,14,26.7,31.2,26.7s31.2-12,31.2-26.7
				C479.5,553.5,477.8,548.8,475,544.8z"/>
			<path class="st4" d="M449.2,527.3c0,0,2.7,58-17.4,74"/>
			<path class="st4" d="M442.5,541.6c0,0,1,4.5,6.3,4.5s7.2-4.5,7.2-4.5"/>
			<path class="st4" d="M435.5,562.8c0,0,1.9,6.1,10.4,7c9,0.9,12.6-7,12.6-7"/>
		</g>
		<rect x="1228.2" y="-2" class="st1" width="29.2" height="354.7"/>
		<path class="st10" d="M1228.2,43.2c12.6-1.8,15.6-10.4,14.4-24c-1.9-20.3,7.2-21.2,7.2-21.2L1228.2-2V43.2z"/>
		<path class="st2" d="M1228.2,39.4c0,0,12.7,0.8,11.1-19.7c-1.6-20.6,5-21.7,5-21.7h-16.1V39.4z"/>
		<g class="st3">
			<path class="st7" d="M1237.5,266.2c3-8.8-4.4-22.8,1.9-35.3c4.6-9.2,3.2-19.9-8.3-26.3c-1.1-0.6-2.3-1.5-2.9-2.5v71
				C1229.9,272.9,1235.6,271.7,1237.5,266.2z"/>
			<path class="st9" d="M1242.2,259.4c-0.8-11.9-2.9-19.5,0-25.5c4.1-8.3,5.1-17.7-0.3-25.3c-4.8-6.7-13.7-7-13.7-15.3v8.9
				c0.6,1.1,1.8,1.9,2.9,2.5c11.5,6.4,12.9,17,8.3,26.3c-6.3,12.5,1.1,26.5-1.9,35.3c-1.9,5.5-7.6,6.8-9.3,6.9v4.4
				C1228.2,277.5,1243.3,276.3,1242.2,259.4z"/>
		</g>
		<rect x="1333.9" y="-2" class="st1" width="34" height="345.5"/>
		<path class="st2" d="M1355.2,83.5c5.7,10,2.9,19.4,3.2,38.2c0.3,18.8,11.3,19.3,11.3,19.3v-4.9c0,0-7.2-1-7.3-14.9
			c-0.2-13.9,1.8-28-3-37.4c-4.5-9-10.4-29,10.3-34.9v-4.2C1347.4,49,1348.5,71.8,1355.2,83.5z"/>
		<path class="st10" d="M1359.4,83.8c4.7,9.4,2.8,23.4,3,37.4c0.2,13.9,7.3,14.9,7.3,14.9V48.9C1349,54.8,1354.9,74.8,1359.4,83.8z"
			/>
		<g class="st3">
			<path class="st8" d="M1334,215.8c-6.1,0-11.3-2.1-15.3-6.1c-8.7-8.8-8.7-23.9-8.7-24.6c0-12.4,0-186.9,0-186.9h6.6
				c0,0,0,174.5,0,186.9c0,0.2,0,13.1,6.8,19.9c2.8,2.8,6.3,4.1,10.6,4.1V215.8z"/>
		</g>
		<g class="st3">
			<path class="st4" d="M1284.6,203.7c0,24.7,12.9,59.8,55.6,98.9"/>
			<circle class="st9" cx="1285.3" cy="199.9" r="3.9"/>
			<circle class="st9" cx="1302.4" cy="229.7" r="3.9"/>
			<circle class="st6" cx="1272.7" cy="215.2" r="2.2"/>
			<circle class="st9" cx="1277.6" cy="246.3" r="2.2"/>
			<path class="st4" d="M1272.6,217.4c0,0,0,19.5,20,22"/>
			<path class="st4" d="M1298.6,251.8c0,0,6.2-5.6,4.6-18.2"/>
			<path class="st4" d="M1278.7,248.3c0,0,8.3,17,23.1,9.1"/>
		</g>
		<g class="st3">
			<path class="st4" d="M289.4,499.2c5.1-73,127.3-202.3,203-202.3"/>
			<path class="st9" d="M489.1,297.2c0,0-2.5-20.3,16-31.6C505.2,265.7,508.7,290.8,489.1,297.2z"/>
			<path class="st9" d="M477.4,259.1c0,0-24.3,16-16.7,43.9C460.7,303.1,482.7,291.8,477.4,259.1z"/>
			<path class="st9" d="M449.7,255.2c0,0-34.8,19-22.9,64.8C426.8,320.1,454.6,297.5,449.7,255.2z"/>
			<path class="st9" d="M407.7,266.9c0,0-33.6,35.7-10.4,73.7C397.3,340.7,422.5,314.2,407.7,266.9z"/>
			<path class="st9" d="M460.8,303.3c0,0,0,22.8,39.3,25.2C500,328.5,485.3,297.3,460.8,303.3z"/>
			<path class="st9" d="M489.1,297.2c0,0,4.6,15.8,26.7,15.4C515.9,312.6,508.8,294.5,489.1,297.2z"/>
			<path class="st9" d="M426.8,320.1c0,0,14.6,35.9,63.7,34.6C490.5,354.7,466.8,313.9,426.8,320.1z"/>
			<path class="st9" d="M397.3,340.7c0,0,15,40.2,69.9,35.4C467.2,376.1,439.4,337.1,397.3,340.7z"/>
			<path class="st9" d="M369,365.9c0,0-28.2-33.8-0.6-81.3C368.4,284.5,390.8,327,369,365.9z"/>
			<path class="st9" d="M447.7,407.4c0,0-65.9,2.4-78.6-41.6C369.1,365.8,415.1,359.5,447.7,407.4z"/>
			<path class="st9" d="M336.5,402.2c0,0-32.4-25.8-7.8-90.2C328.8,312.1,362.1,365.1,336.5,402.2z"/>
			<path class="st9" d="M429.2,431.3c0,0-79.4,14.9-92.6-29C336.6,402.2,381.6,386.8,429.2,431.3z"/>
			<path class="st9" d="M289.4,342.5c0,0-26,66.5,19.9,100.3C309.3,442.8,329.8,394.7,289.4,342.5z"/>
			<path class="st9" d="M420.7,463.4c0,0-83.8,18.6-111.4-20.6C309.3,442.8,357.7,420.1,420.7,463.4z"/>
		</g>
		<path class="st2" d="M1164.4,198.9c12.2-5.2,22,15.8,23.3,31.6c1.3,17.1,12,17.6,19,31.1c7.1,13.6,4,36.1-6.8,45
			c0,0-26.8-6.9-29.5-34.7c-1.4-14.3,4.4-24.7-3.2-34.9C1159.1,226.3,1152.9,203.8,1164.4,198.9z"/>
		<path class="st16" d="M1094.8,186.8c7.5-6.3,18.5-1.2,26,11.8c7.2,12.4,9.1,21,25.5,29.3c19.8,9.9,26.3,29.6,26.5,44
			c0.2,9.7,3.4,17.3,12,23.1c9.7,6.5,12.5,17.1,5,34.8c-12.6-0.7-23.8-3.4-27.7-21c-3.2-14.7-10.4-18.7-15.9-20.3
			c-4.8-1.4-26.3-8.9-31.4-44c-2.9-19.8-9.5-19.2-18.4-32.2C1090.1,203.1,1088.1,192.4,1094.8,186.8z"/>
		<g class="st3">
			<g>
				<path class="st7" d="M609.9,229.2l-9,4.8l-8.7-5.3l-3.7,5c0,0,7.8,6.6,7.4,21.6l4.5,0.1l4.5,0.1c0.4-15,8.6-21.1,8.6-21.1
					L609.9,229.2z"/>
				<line class="st4" x1="600.6" y1="241.6" x2="600.7" y2="235"/>
				<path class="st5" d="M622.8,216.8c0.2-0.8,0.4-1.7,0.4-2.6c0.2-5.8-4.4-10.6-10.1-10.8c-0.5,0-1,0-1.5,0.1c-1-4.6-5-8.1-9.9-8.3
					c-4.9-0.1-9.1,3.1-10.4,7.7c-0.4-0.1-0.8-0.1-1.2-0.1c-5.8-0.2-10.6,4.4-10.8,10.1c0,0.9,0.1,1.7,0.2,2.5
					c-3.3,1.3-5.8,4.2-6.5,7.9c-1,5.7,2.8,11.1,8.5,12.1c4.1,0.7,8.1-1.1,10.3-4.2c1.8,2.9,4.9,4.8,8.6,4.9c3.6,0.1,6.9-1.6,8.8-4.4
					c1.8,2.9,4.9,4.8,8.6,4.9c5.8,0.2,10.6-4.4,10.8-10.1C628.7,222.3,626.4,218.6,622.8,216.8z"/>
			</g>
			<path class="st6" d="M571.2,245c1.6-7,9.3-7.7,12.6-4.7c4,3.7,4.1,9.5,14.1,10.7c6.3,0.7,4.1,8.8-7.7,8.6
				C575.5,259.4,570,250.5,571.2,245z"/>
			<path class="st6" d="M629.7,246.1c-1.3-7-8.9-8.1-12.4-5.2c-4.2,3.5-4.5,9.4-14.5,10.1c-6.4,0.5-4.5,8.6,7.3,8.9
				C624.9,260.4,630.8,251.7,629.7,246.1z"/>
		</g>
		<g class="st3">
			<g>
				<path class="st7" d="M679.9,213.2l-9,4.8l-8.7-5.3l-3.7,5c0,0,7.8,6.6,7.4,21.6l4.5,0.1l4.5,0.1c0.4-15,8.6-21.1,8.6-21.1
					L679.9,213.2z"/>
				<line class="st4" x1="670.6" y1="225.7" x2="670.7" y2="219.1"/>
				<path class="st5" d="M692.8,200.9c0.2-0.8,0.4-1.7,0.4-2.6c0.2-5.8-4.4-10.6-10.1-10.8c-0.5,0-1,0-1.5,0.1c-1-4.6-5-8.1-9.9-8.3
					c-4.9-0.1-9.1,3.1-10.4,7.7c-0.4-0.1-0.8-0.1-1.2-0.1c-5.8-0.2-10.6,4.4-10.8,10.1c0,0.9,0.1,1.7,0.2,2.5
					c-3.3,1.3-5.8,4.2-6.5,7.9c-1,5.7,2.8,11.1,8.5,12.1c4.1,0.7,8.1-1.1,10.3-4.2c1.8,2.9,4.9,4.8,8.6,4.9c3.6,0.1,6.9-1.6,8.8-4.4
					c1.8,2.9,4.9,4.8,8.6,4.9c5.8,0.2,10.6-4.4,10.8-10.1C698.8,206.3,696.4,202.6,692.8,200.9z"/>
			</g>
			<path class="st6" d="M641.3,229c1.6-7,9.3-7.7,12.6-4.7c4,3.7,4.1,9.5,14.1,10.7c6.3,0.7,4.1,8.8-7.7,8.6
				C645.5,243.4,640,234.5,641.3,229z"/>
			<path class="st6" d="M699.7,230.2c-1.3-7-8.9-8.1-12.4-5.2c-4.2,3.5-4.5,9.4-14.5,10.1c-6.4,0.5-4.5,8.6,7.3,8.9
				C694.9,244.4,700.8,235.7,699.7,230.2z"/>
		</g>
		<g class="st3">
			<g>
				<path class="st7" d="M660.5,282.2l-9,4.8l-8.7-5.3l-3.7,5c0,0,7.8,6.6,7.4,21.6l4.5,0.1l4.5,0.1c0.4-15,8.6-21.1,8.6-21.1
					L660.5,282.2z"/>
				<line class="st4" x1="651.1" y1="294.6" x2="651.3" y2="288"/>
				<path class="st5" d="M673.4,269.8c0.2-0.8,0.4-1.7,0.4-2.6c0.2-5.8-4.4-10.6-10.1-10.8c-0.5,0-1,0-1.5,0.1c-1-4.6-5-8.1-9.9-8.3
					c-4.9-0.1-9.1,3.1-10.4,7.7c-0.4-0.1-0.8-0.1-1.2-0.1c-5.8-0.2-10.6,4.4-10.8,10.1c0,0.9,0.1,1.7,0.2,2.5
					c-3.3,1.3-5.8,4.2-6.5,7.9c-1,5.7,2.8,11.1,8.5,12.1c4.1,0.7,8.1-1.1,10.3-4.2c1.8,2.9,4.9,4.8,8.6,4.9c3.6,0.1,6.9-1.6,8.8-4.4
					c1.8,2.9,4.9,4.8,8.6,4.9c5.8,0.2,10.6-4.4,10.8-10.1C679.3,275.3,676.9,271.6,673.4,269.8z"/>
			</g>
			<path class="st6" d="M621.8,297.9c1.6-7,9.3-7.7,12.6-4.7c4,3.7,4.1,9.5,14.1,10.7c6.3,0.7,4.1,8.8-7.7,8.6
				C626.1,312.4,620.6,303.5,621.8,297.9z"/>
			<path class="st6" d="M680.3,299.1c-1.3-7-8.9-8.1-12.4-5.2c-4.2,3.5-4.5,9.4-14.5,10.1c-6.4,0.5-4.5,8.6,7.3,8.9
				C675.5,313.3,681.3,304.7,680.3,299.1z"/>
		</g>
		<g class="st3">
			<g>
				<path class="st7" d="M730.5,266.2l-9,4.8l-8.7-5.3l-3.7,5c0,0,7.8,6.6,7.4,21.6l4.5,0.1l4.5,0.1c0.4-15,8.6-21.1,8.6-21.1
					L730.5,266.2z"/>
				<line class="st4" x1="721.2" y1="278.7" x2="721.3" y2="272.1"/>
				<path class="st5" d="M743.4,253.8c0.2-0.8,0.4-1.7,0.4-2.6c0.2-5.8-4.4-10.6-10.1-10.8c-0.5,0-1,0-1.5,0.1c-1-4.6-5-8.1-9.9-8.3
					c-4.9-0.1-9.1,3.1-10.4,7.7c-0.4-0.1-0.8-0.1-1.2-0.1c-5.8-0.2-10.6,4.4-10.8,10.1c0,0.9,0.1,1.7,0.2,2.5
					c-3.3,1.3-5.8,4.2-6.5,7.9c-1,5.7,2.8,11.1,8.5,12.1c4.1,0.7,8.1-1.1,10.3-4.2c1.8,2.9,4.9,4.8,8.6,4.9c3.6,0.1,6.9-1.6,8.8-4.4
					c1.8,2.9,4.9,4.8,8.6,4.9c5.8,0.2,10.6-4.4,10.8-10.1C749.3,259.3,747,255.6,743.4,253.8z"/>
			</g>
			<path class="st6" d="M691.8,282c1.6-7,9.3-7.7,12.6-4.7c4,3.7,4.1,9.5,14.1,10.7c6.3,0.7,4.1,8.8-7.7,8.6
				C696.1,296.4,690.6,287.5,691.8,282z"/>
			<path class="st6" d="M750.3,283.2c-1.3-7-8.9-8.1-12.4-5.2c-4.2,3.5-4.5,9.4-14.5,10.1c-6.4,0.5-4.5,8.6,7.3,8.9
				C745.5,297.4,751.4,288.7,750.3,283.2z"/>
		</g>
		<g class="st3">
			<g>
				<path class="st7" d="M750,197.3l-9,4.8l-8.7-5.3l-3.7,5c0,0,7.8,6.6,7.4,21.6l4.5,0.1l4.5,0.1c0.4-15,8.6-21.1,8.6-21.1
					L750,197.3z"/>
				<line class="st4" x1="740.6" y1="209.7" x2="740.7" y2="203.1"/>
				<path class="st5" d="M762.9,184.9c0.2-0.8,0.4-1.7,0.4-2.6c0.2-5.8-4.4-10.6-10.1-10.8c-0.5,0-1,0-1.5,0.1c-1-4.6-5-8.1-9.9-8.3
					c-4.9-0.1-9.1,3.1-10.4,7.7c-0.4-0.1-0.8-0.1-1.2-0.1c-5.8-0.2-10.6,4.4-10.8,10.1c0,0.9,0.1,1.7,0.2,2.5
					c-3.3,1.3-5.8,4.2-6.5,7.9c-1,5.7,2.8,11.1,8.5,12.1c4.1,0.7,8.1-1.1,10.3-4.2c1.8,2.9,4.9,4.8,8.6,4.9c3.6,0.1,6.9-1.6,8.8-4.4
					c1.8,2.9,4.9,4.8,8.6,4.9c5.8,0.2,10.6-4.4,10.8-10.1C768.8,190.4,766.4,186.7,762.9,184.9z"/>
			</g>
			<path class="st6" d="M711.3,213c1.6-7,9.3-7.7,12.6-4.7c4,3.7,4.1,9.5,14.1,10.7c6.3,0.7,4.1,8.8-7.7,8.6
				C715.5,227.4,710,218.6,711.3,213z"/>
			<path class="st6" d="M769.8,214.2c-1.3-7-8.9-8.1-12.4-5.2c-4.2,3.5-4.5,9.4-14.5,10.1c-6.4,0.5-4.5,8.6,7.3,8.9
				C764.9,228.4,770.8,219.8,769.8,214.2z"/>
		</g>
		<g class="st3">
			<path class="st9" d="M230,213.5l9.3-0.2c2.3,0,4.1,2.1,3.5,4.3c-0.8,3.2-3.8,7-13.4,7.2L230,213.5z"/>
			<path class="st8" d="M229.1,213.5l1.5-2.8c1.3-2.4-0.5-5.2-3.2-5.1l-18.5,0.4c-7.4,0.1-14.5,3.1-19.8,8.4l0,0L229.1,213.5z"/>
			<path class="st8" d="M200.7,238.4C200.7,238.4,200.6,238.4,200.7,238.4c0,0,5.4,6.6,13.9,6.3c0.4-4.2-0.7-7-1-7.7
				c-3.6,0.8-7.6,1.4-11.9,1.4C201.3,238.4,201,238.4,200.7,238.4z"/>
			<path class="st7" d="M234.4,213.4l-45.2,0.9l0,0c0,0,1,2.5,1,6c0,3.9-1.4,9.1-7,13.4c4.8,3,10.8,5.1,18.1,5.1c0.3,0,0.5,0,0.8,0
				c3.3-0.1,6.4-0.5,9.2-1.1C232.7,232.9,234.3,213.7,234.4,213.4z"/>
			<path class="st8" d="M190.9,220.9l-1.6,0c-0.5,2.6-1.7,5.5-4.3,8.1l6.1-0.1c2.2,0,4-1.9,3.9-4.1v0
				C195,222.7,193.1,220.9,190.9,220.9z"/>
			<path class="st9" d="M189.2,214.3L189.2,214.3l-18.5,0.3c-1.9,0-3,2.1-2.1,3.7c2.3,4,7,10.5,14.2,15.1c0.2,0.1,0.5,0.1,0.7,0
				c0.6-0.4,1.1-0.9,1.5-1.3c2.9-2.8,4.2-5.8,4.8-8.5c0.2-1.1,0.3-2.2,0.3-3.2C190.2,216.8,189.2,214.3,189.2,214.3z"/>
			<circle cx="176.7" cy="218.9" r="0.9"/>
		</g>
		<g class="st3">
			<path class="st6" d="M437.1,511c-0.7-1.4-1.5-2.7-2.3-3.9l0,0c0,0,0,0,0,0c-0.4-0.6-0.9-1.2-1.4-1.7c-6.6-9.1-5.6-21-5.3-23.7
				c0-0.1,0.3-2.4,0.3-3.3c0-11.9-9.6-21.5-21.5-21.5s-21.5,9.6-21.5,21.5c0,0.9,0.4,4.2,0.6,4.9c0.7,4.8,1.6,16.5-5,25.2
				c-0.3,0.4-0.7,0.8-1,1.3c0,0-0.1,0.1-0.1,0.1l0,0c-7.1,9.2-9.1,21.1-4.1,31.2c7.3,14.9,26.9,20.9,43.9,12.6
				S444.4,525.9,437.1,511z"/>
			<path class="st4" d="M406.4,480.3c0,0,11.1,67.4-25.4,99"/>
			<path class="st4" d="M400.6,489.8c0.8,3.2,10,5.5,12.8-1.4"/>
			<path class="st4" d="M392.4,517.4c3.6,11.1,21,17.3,28.1-0.9"/>
		</g>
		<path class="st13" d="M1094.8,186.8c32.7,38.7,97.7,123.8,97.6,155.8"/>
		<path class="st13" d="M1164.4,198.9c5.6,9.6,45.6,112,40.8,149.1"/>
		<path class="st12" d="M1192,210.7c9.4-6.6,18.4,10.4,22.7,25.9c3.2,11.3,19.8,16,17.5,34.2c-1.7,13.9-0.5,20.1,0.9,23.7
			c4.9,12.5,2.6,26.3-8,26.7c-10.6,0.4-9.8-12.9-11.7-21.5c-1.9-8.7-12.7-9.7-15.3-22c-2.7-13,4.4-24-0.5-34.6
			C1192.8,232.5,1183.6,216.6,1192,210.7z"/>
		<path class="st13" d="M1192.7,210.3c0,0,36.9,46.6,34.5,136.3"/>
		<path class="st2" d="M66.1,56.6C66.1,14.9,51.8-2,51.8-2h-8.7c0,0,14.5,16.2,15.2,48.3c0.7,32.1-4.4,71.4,36,79.4v-9.1
			C76,112.8,66.1,98.4,66.1,56.6z"/>
		<path class="st10" d="M51.8-2c0,0,14.3,16.9,14.3,58.6s9.9,56.2,28.2,60V-2H51.8z"/>
		<g class="st3">
			<path class="st8" d="M1257.4,102.2v-4.7c11.5,0,15.1-5.2,15.1-16.5V-1.7h4.7v82.8C1277.2,94.9,1271.5,102.2,1257.4,102.2z"/>
		</g>
		<g class="st3">
			<path class="st8" d="M1228.2,63.4c-22.1,0-22.1-20.8-22.1-27.6V-6.7h5.1v42.5c0,11.1,2,22.5,17,22.5V63.4z"/>
		</g>
		<g class="st3">
			<g>
				<g>
					<g>
						
							<rect x="591.4" y="447.7" transform="matrix(2.897334e-02 -0.9996 0.9996 2.897334e-02 134.0134 1036.1471)" class="st8" width="17.9" height="2.8"/>
					</g>
					<g>
						
							<rect x="594.1" y="440.9" transform="matrix(0.9939 -0.1103 0.1103 0.9939 -45.9114 68.4182)" class="st8" width="2.8" height="16.7"/>
					</g>
					<g>
						
							<rect x="596.5" y="448.1" transform="matrix(0.1279 -0.9918 0.9918 0.1279 81.6044 991.8411)" class="st8" width="16.6" height="2.8"/>
					</g>
					<path class="st9" d="M606.7,456.5c-0.6,7-0.6,14,0.2,20.9c0.8,6.9,2.4,13.7,4.9,20.3c2.5,6.5,5.9,12.7,10.1,18.4
						c4.2,5.7,9.2,10.9,14.7,15.5l-2.9,3.9c-6.2-4.3-12-9.3-17.2-15c-5.1-5.7-9.5-12.2-13-19.2c-3.5-7-6-14.4-7.6-22.1
						c-1.6-7.6-2.3-15.4-2.4-23.2L606.7,456.5z"/>
					<line class="st4" x1="599.6" y1="472.7" x2="593.5" y2="480"/>
					<line class="st4" x1="603.6" y1="490.7" x2="597.5" y2="498.1"/>
					<line class="st4" x1="610.9" y1="506.9" x2="607.2" y2="515.7"/>
					<line class="st4" x1="603.8" y1="482.7" x2="612" y2="487.7"/>
					<line class="st4" x1="607.8" y1="499.5" x2="616.8" y2="502.5"/>
					<line class="st4" x1="617.4" y1="516.3" x2="626.7" y2="518.8"/>
				</g>
			</g>
			<g>
				<g>
					<g>
						
							<rect x="634.2" y="447.7" transform="matrix(2.897334e-02 -0.9996 0.9996 2.897334e-02 175.5933 1078.9496)" class="st8" width="17.9" height="2.8"/>
					</g>
					<g>
						
							<rect x="637" y="440.9" transform="matrix(0.9939 -0.1103 0.1103 0.9939 -45.6502 73.1406)" class="st8" width="2.8" height="16.7"/>
					</g>
					<g>
						
							<rect x="639.3" y="448.1" transform="matrix(0.1279 -0.9918 0.9918 0.1279 118.9463 1034.3097)" class="st8" width="16.6" height="2.8"/>
					</g>
					<path class="st9" d="M649.5,456.5c-0.6,7-0.6,14,0.2,20.9c0.8,6.9,2.4,13.7,4.9,20.3c2.5,6.5,5.9,12.7,10.1,18.4
						c4.2,5.7,9.2,10.9,14.7,15.5l-2.9,3.9c-6.2-4.3-12-9.3-17.2-15c-5.1-5.7-9.5-12.2-13-19.2c-3.5-7-6-14.4-7.6-22.1
						c-1.6-7.6-2.3-15.4-2.4-23.2L649.5,456.5z"/>
					<line class="st4" x1="642.4" y1="472.7" x2="636.3" y2="480"/>
					<line class="st4" x1="646.4" y1="490.7" x2="640.3" y2="498.1"/>
					<line class="st4" x1="653.7" y1="506.9" x2="650" y2="515.7"/>
					<line class="st4" x1="646.7" y1="482.7" x2="654.8" y2="487.7"/>
					<line class="st4" x1="650.6" y1="499.5" x2="659.6" y2="502.5"/>
					<line class="st4" x1="660.3" y1="516.3" x2="669.5" y2="518.8"/>
				</g>
			</g>
			<g>
				<g>
					<g>
						
							<rect x="677" y="447.7" transform="matrix(2.897334e-02 -0.9996 0.9996 2.897334e-02 217.1732 1121.7522)" class="st8" width="17.9" height="2.8"/>
					</g>
					<g>
						
							<rect x="679.8" y="440.9" transform="matrix(0.9939 -0.1103 0.1103 0.9939 -45.389 77.863)" class="st8" width="2.8" height="16.7"/>
					</g>
					<g>
						
							<rect x="682.1" y="448.1" transform="matrix(0.1279 -0.9918 0.9918 0.1279 156.2881 1076.7783)" class="st8" width="16.6" height="2.8"/>
					</g>
					<path class="st9" d="M692.3,456.5c-0.6,7-0.6,14,0.2,20.9c0.8,6.9,2.4,13.7,4.9,20.3c2.5,6.5,5.9,12.7,10.1,18.4
						c4.2,5.7,9.2,10.9,14.7,15.5l-2.9,3.9c-6.2-4.3-12-9.3-17.2-15c-5.1-5.7-9.5-12.2-13-19.2c-3.5-7-6-14.4-7.6-22.1
						c-1.6-7.6-2.3-15.4-2.4-23.2L692.3,456.5z"/>
					<line class="st4" x1="685.3" y1="472.7" x2="679.1" y2="480"/>
					<line class="st4" x1="689.2" y1="490.7" x2="683.1" y2="498.1"/>
					<line class="st4" x1="696.5" y1="506.9" x2="692.8" y2="515.7"/>
					<line class="st4" x1="689.5" y1="482.7" x2="697.6" y2="487.7"/>
					<line class="st4" x1="693.4" y1="499.5" x2="702.5" y2="502.5"/>
					<line class="st4" x1="703.1" y1="516.3" x2="712.3" y2="518.8"/>
				</g>
			</g>
			<g>
				<g>
					<g>
						
							<rect x="719.8" y="447.7" transform="matrix(2.897334e-02 -0.9996 0.9996 2.897334e-02 258.7531 1164.5548)" class="st8" width="17.9" height="2.8"/>
					</g>
					<g>
						
							<rect x="722.6" y="440.9" transform="matrix(0.9939 -0.1103 0.1103 0.9939 -45.1278 82.5853)" class="st8" width="2.8" height="16.7"/>
					</g>
					<g>
						
							<rect x="724.9" y="448.1" transform="matrix(0.1279 -0.9918 0.9918 0.1279 193.63 1119.2469)" class="st8" width="16.6" height="2.8"/>
					</g>
					<path class="st9" d="M735.1,456.5c-0.6,7-0.6,14,0.2,20.9c0.8,6.9,2.4,13.7,4.9,20.3c2.5,6.5,5.9,12.7,10.1,18.4
						c4.2,5.7,9.2,10.9,14.7,15.5l-2.9,3.9c-6.2-4.3-12-9.3-17.2-15c-5.1-5.7-9.5-12.2-13-19.2c-3.5-7-6-14.4-7.6-22.1
						c-1.6-7.6-2.3-15.4-2.4-23.2L735.1,456.5z"/>
					<line class="st4" x1="728.1" y1="472.7" x2="721.9" y2="480"/>
					<line class="st4" x1="732.1" y1="490.7" x2="725.9" y2="498.1"/>
					<line class="st4" x1="739.3" y1="506.9" x2="735.6" y2="515.7"/>
					<line class="st4" x1="732.3" y1="482.7" x2="740.5" y2="487.7"/>
					<line class="st4" x1="736.2" y1="499.5" x2="745.3" y2="502.5"/>
					<line class="st4" x1="745.9" y1="516.3" x2="755.1" y2="518.8"/>
				</g>
			</g>
		</g>
		<g class="st3">
			<line class="st4" x1="631.3" y1="385.7" x2="632.3" y2="386.7"/>
			<line class="st4" x1="657.4" y1="365.2" x2="658.3" y2="366.2"/>
			<line class="st4" x1="687.5" y1="400.3" x2="688.4" y2="401.3"/>
			<path class="st4" d="M578.1,425.4c-4.1-4.3-10.9-4.3-15,0v0c-4.1,4.3-10.9,4.3-15,0l0,0c-4.1-4.3-10.9-4.3-15,0l0,0
				c-4.1,4.3-10.9,4.3-15,0l0,0c-4.1-4.3-10.9-4.3-15,0"/>
			<path class="st4" d="M604.2,405c-4.1-4.3-10.9-4.3-15,0l0,0c-4.1,4.3-10.9,4.3-15,0l0,0c-4.1-4.3-10.9-4.3-15,0l0,0
				c-4.1,4.3-10.9,4.3-15,0l0,0c-4.1-4.3-10.9-4.3-15,0"/>
			<path class="st4" d="M630.2,384.5c-4.1-4.3-10.9-4.3-15,0l0,0c-4.1,4.3-10.9,4.3-15,0l0,0c-4.1-4.3-10.9-4.3-15,0l0,0
				c-4.1,4.3-10.9,4.3-15,0l0,0c-4.1-4.3-10.9-4.3-15,0"/>
			<path class="st4" d="M656.3,364.1c-4.1-4.3-10.9-4.3-15,0l0,0c-4.1,4.3-10.9,4.3-15,0l0,0c-4.1-4.3-10.9-4.3-15,0l0,0
				c-4.1,4.3-10.9,4.3-15,0l0,0c-4.1-4.3-10.9-4.3-15,0"/>
			<path class="st4" d="M660.6,419.8c-4.1-4.3-10.9-4.3-15,0v0c-4.1,4.3-10.9,4.3-15,0l0,0c-4.1-4.3-10.9-4.3-15,0l0,0
				c-4.1,4.3-10.9,4.3-15,0l0,0c-4.1-4.3-10.9-4.3-15,0"/>
			<path class="st4" d="M686.7,399.4c-4.1-4.3-10.9-4.3-15,0v0c-4.1,4.3-10.9,4.3-15,0v0c-4.1-4.3-10.9-4.3-15,0l0,0
				c-4.1,4.3-10.9,4.3-15,0l0,0c-4.1-4.3-10.9-4.3-15,0"/>
			<path class="st4" d="M712.7,378.9c-4.1-4.3-10.9-4.3-15,0v0c-4.1,4.3-10.9,4.3-15,0v0c-4.1-4.3-10.9-4.3-15,0l0,0
				c-4.1,4.3-10.9,4.3-15,0l0,0c-4.1-4.3-10.9-4.3-15,0"/>
			<path class="st4" d="M747.6,411.2c-4.1-4.3-10.9-4.3-15,0l0,0c-4.1,4.3-10.9,4.3-15,0l0,0c-4.1-4.3-10.9-4.3-15,0l0,0
				c-4.1,4.3-10.9,4.3-15,0l0,0c-4.1-4.3-10.9-4.3-15,0"/>
			<path class="st4" d="M773.7,390.8c-4.1-4.3-10.9-4.3-15,0v0c-4.1,4.3-10.9,4.3-15,0l0,0c-4.1-4.3-10.9-4.3-15,0l0,0
				c-4.1,4.3-10.9,4.3-15,0l0,0c-4.1-4.3-10.9-4.3-15,0"/>
			<line class="st4" x1="748.7" y1="412.5" x2="749.6" y2="413.5"/>
		</g>
		<g class="st3">
			<g>
				<path class="st17" d="M798.6,530.4l-3.6-2.3c-6.9-4.4-15.7-4.4-22.5,0l0,0c-6.9,4.4-15.7,4.4-22.5,0l0,0
					c-6.9-4.4-15.7-4.4-22.5,0l0,0c-6.9,4.4-15.7,4.4-22.5,0l0,0c-6.9-4.4-15.7-4.4-22.5,0l0,0c-6.9,4.4-15.7,4.4-22.5,0l0,0
					c-6.9-4.4-15.7-4.4-22.5,0l0,0c-6.9,4.4-15.7,4.4-22.5,0h0c-6.9-4.4-15.7-4.4-22.5,0l0,0c-2.6,1.7-5.4,2.7-8.3,3.1l0.6,11
					l216.1-2.8L798.6,530.4z"/>
			</g>
			<g>
				<path class="st4" d="M798.6,530.5l-3.6-2.3c-6.9-4.4-15.7-4.4-22.5,0l0,0c-6.9,4.4-15.7,4.4-22.5,0l0,0
					c-6.9-4.4-15.7-4.4-22.5,0l0,0c-6.9,4.4-15.7,4.4-22.5,0l0,0c-6.9-4.4-15.7-4.4-22.5,0l0,0c-6.9,4.4-15.7,4.4-22.5,0l0,0
					c-6.9-4.4-15.7-4.4-22.5,0l0,0c-6.9,4.4-15.7,4.4-22.5,0h0c-6.9-4.4-15.7-4.4-22.5,0l0,0c-2.6,1.7-5.4,2.7-8.3,3.1"/>
			</g>
		</g>
		<g class="st3">
			<g>
				<g>
					<g>
						
							<rect x="681.9" y="510.8" transform="matrix(2.897334e-02 -0.9996 0.9996 2.897334e-02 159.3895 1188.8043)" class="st8" width="19.3" height="3"/>
					</g>
					<g>
						
							<rect x="684.9" y="503.5" transform="matrix(0.9939 -0.1103 0.1103 0.9939 -52.3356 78.8268)" class="st8" width="3" height="18.1"/>
					</g>
					<g>
						
							<rect x="687.4" y="511.3" transform="matrix(0.1279 -0.9918 0.9918 0.1279 98.7206 1137.9092)" class="st8" width="18" height="3"/>
					</g>
					<path class="st9" d="M698.4,520.4c-0.6,7.5-0.6,15.1,0.2,22.5c0.8,7.5,2.6,14.8,5.3,21.9c2.7,7,6.4,13.7,10.9,19.9
						c4.5,6.2,9.9,11.8,15.9,16.8l-3.1,4.2c-6.7-4.6-13-10-18.5-16.2c-5.5-6.2-10.3-13.2-14-20.7c-3.7-7.5-6.5-15.6-8.2-23.8
						c-1.7-8.3-2.5-16.7-2.6-25.1L698.4,520.4z"/>
					<line class="st4" x1="690.8" y1="537.8" x2="684.2" y2="545.7"/>
					<line class="st4" x1="695.1" y1="557.3" x2="688.5" y2="565.2"/>
					<line class="st4" x1="703" y1="574.7" x2="699" y2="584.3"/>
					<line class="st4" x1="695.4" y1="548.6" x2="704.2" y2="554"/>
					<line class="st4" x1="699.6" y1="566.7" x2="709.4" y2="570.1"/>
					<line class="st4" x1="710.1" y1="585" x2="720" y2="587.6"/>
				</g>
			</g>
			<g>
				<g>
					<g>
						
							<rect x="724.1" y="512.7" transform="matrix(2.897334e-02 -0.9996 0.9996 2.897334e-02 197.9304 1231.9595)" class="st8" width="17.9" height="2.8"/>
					</g>
					<g>
						
							<rect x="726.9" y="505.9" transform="matrix(0.9939 -0.1103 0.1103 0.9939 -52.2709 83.4541)" class="st8" width="2.8" height="16.7"/>
					</g>
					<g>
						
							<rect x="729.2" y="513.1" transform="matrix(0.1279 -0.9918 0.9918 0.1279 132.8905 1180.1842)" class="st8" width="16.6" height="2.8"/>
					</g>
					<path class="st9" d="M739.4,521.5c-0.6,7-0.6,14,0.2,20.9c0.8,6.9,2.4,13.7,4.9,20.3c2.5,6.5,5.9,12.7,10.1,18.4
						c4.2,5.7,9.2,10.9,14.7,15.5l-2.9,3.9c-6.2-4.3-12-9.3-17.2-15c-5.1-5.7-9.5-12.2-13-19.2c-3.5-7-6-14.4-7.6-22.1
						c-1.6-7.6-2.3-15.4-2.4-23.2L739.4,521.5z"/>
					<line class="st4" x1="732.4" y1="537.7" x2="726.2" y2="545"/>
					<line class="st4" x1="736.3" y1="555.8" x2="730.2" y2="563.1"/>
					<line class="st4" x1="743.6" y1="571.9" x2="739.9" y2="580.7"/>
					<line class="st4" x1="736.6" y1="547.7" x2="744.7" y2="552.7"/>
					<line class="st4" x1="740.5" y1="564.5" x2="749.6" y2="567.5"/>
					<line class="st4" x1="750.2" y1="581.4" x2="759.4" y2="583.8"/>
				</g>
			</g>
			<g>
				<g>
					<g>
						
							<rect x="635.7" y="510.8" transform="matrix(2.897334e-02 -0.9996 0.9996 2.897334e-02 114.4972 1142.5919)" class="st8" width="19.3" height="3"/>
					</g>
					<g>
						
							<rect x="638.7" y="503.5" transform="matrix(0.9939 -0.1103 0.1103 0.9939 -52.6176 73.7282)" class="st8" width="3" height="18.1"/>
					</g>
					<g>
						
							<rect x="641.2" y="511.3" transform="matrix(0.1279 -0.9918 0.9918 0.1279 58.404 1092.0574)" class="st8" width="18" height="3"/>
					</g>
					<path class="st9" d="M652.2,520.4c-0.6,7.5-0.6,15.1,0.2,22.5c0.8,7.5,2.6,14.8,5.3,21.9c2.7,7,6.4,13.7,10.9,19.9
						c4.5,6.2,9.9,11.8,15.9,16.8l-3.1,4.2c-6.7-4.6-13-10-18.5-16.2c-5.5-6.2-10.3-13.2-14-20.7c-3.7-7.5-6.5-15.6-8.2-23.8
						c-1.7-8.3-2.5-16.7-2.6-25.1L652.2,520.4z"/>
					<line class="st4" x1="644.6" y1="537.8" x2="638" y2="545.7"/>
					<line class="st4" x1="648.9" y1="557.3" x2="642.3" y2="565.2"/>
					<line class="st4" x1="656.7" y1="574.7" x2="652.8" y2="584.3"/>
					<line class="st4" x1="649.1" y1="548.6" x2="657.9" y2="554"/>
					<line class="st4" x1="653.4" y1="566.7" x2="663.2" y2="570.1"/>
					<line class="st4" x1="663.8" y1="585" x2="673.8" y2="587.6"/>
				</g>
			</g>
		</g>
		<g class="st3">
			<line class="st4" x1="517.6" y1="106.6" x2="576.9" y2="173.1"/>
			<line class="st4" x1="606.3" y1="123.2" x2="616" y2="134.1"/>
			<line class="st4" x1="565.6" y1="77.6" x2="602" y2="118.5"/>
			<line class="st4" x1="624.9" y1="173.6" x2="630.4" y2="179.7"/>
			<line class="st4" x1="557.6" y1="98" x2="620.4" y2="168.5"/>
			<line class="st4" x1="659" y1="159.6" x2="667" y2="168.5"/>
			<line class="st4" x1="600" y1="93.4" x2="655.2" y2="155.2"/>
			<line class="st4" x1="583.6" y1="154.6" x2="596.1" y2="168.5"/>
			<line class="st4" x1="547.2" y1="113.8" x2="578.5" y2="148.8"/>
			<line class="st4" x1="667" y1="128.7" x2="687.5" y2="151.6"/>
		</g>
		<path class="st13" d="M506.5,486.3c0,0,7.8-5.8,16.7,0"/>
		<g class="st3">
			<path class="st7" d="M343.3,209.7l-9.2,0.1c-2.3,0-4,2.2-3.4,4.3c0.9,3.1,3.9,6.8,13.4,6.8L343.3,209.7z"/>
			<path class="st7" d="M344.1,209.7l-1.5-2.7c-1.3-2.3,0.3-5.1,3-5.1l18.3-0.1c7.3,0,14.4,2.7,19.8,7.7l0,0L344.1,209.7z"/>
			<path class="st7" d="M372.8,233.4C372.8,233.4,372.8,233.4,372.8,233.4c0,0-5.1,6.6-13.6,6.6c-0.5-4.2,0.5-6.9,0.8-7.6
				c3.6,0.7,7.5,1.1,11.8,1.1C372.2,233.4,372.5,233.4,372.8,233.4z"/>
			<path class="st9" d="M338.9,209.6l44.6-0.2l0,0c0,0-0.9,2.5-0.8,5.9c0.1,3.9,1.6,9,7.2,13c-4.7,3.1-10.5,5.3-17.7,5.5
				c-0.3,0-0.5,0-0.8,0c-3.3,0-6.3-0.3-9.1-0.8C341.1,228.8,339,209.9,338.9,209.6z"/>
			<path class="st7" d="M382,216l1.5,0c0.6,2.6,1.9,5.4,4.5,7.9l-6,0c-2.2,0-4-1.8-4-3.9v0C378.1,217.8,379.8,216,382,216z"/>
			<path class="st8" d="M383.5,209.4L383.5,209.4l18.2-0.1c1.8,0,3,2,2.1,3.6c-2.2,4-6.6,10.5-13.6,15.2c-0.2,0.1-0.5,0.1-0.7,0
				c-0.6-0.4-1.1-0.8-1.6-1.3c-2.9-2.6-4.3-5.6-4.9-8.3c-0.3-1.1-0.4-2.2-0.4-3.2C382.6,211.9,383.5,209.4,383.5,209.4z"/>
			<circle cx="395.9" cy="213.7" r="0.9"/>
		</g>
		<g class="st3">
			<path class="st8" d="M273.3,253.6c0,0,10-9.4,27.6-6.7c0,0,2.3,6.1,0.6,10.9C299.2,264.5,273.3,253.6,273.3,253.6z"/>
			<path class="st8" d="M298.9,285.7c0,0,6.6,2.9,13.1-2.6c0,0-2-2.3-6.5-2.4C301.1,280.6,298.9,285.7,298.9,285.7z"/>
			<path class="st8" d="M279.7,288.8C279.7,288.8,279.7,288.8,279.7,288.8c0,0,5,6.7,13.4,6.9c0.6-4.1-0.3-7-0.6-7.7
				c-3.6,0.7-7.5,1-11.8,0.8C280.3,288.8,280,288.8,279.7,288.8z"/>
			<g>
				<path class="st9" d="M317.6,272.6l2.1-2.3c0.9-0.9,0.2-2.4-1.1-2.4h-2.2c-2.9,0-5.6-1.2-7.3-3.4c-4.8-6-12.9-12.9-24.5-12.9
					c-4.2,0-8,0.7-11.2,1.8c2.8,4.8,4.3,10.2,4.3,16c0,6.4-1.9,12.3-5.2,17.4c3.5,1.7,7.5,2.8,12.1,2.8c11.8,0,20-5.5,24.9-10
					c1.7-1.6,4-2.5,6.5-2.5h2.7c1.3,0,2-1.4,1.1-2.4L317.6,272.6z"/>
			</g>
			<path class="st7" d="M277.4,266.9c0,0,7.3-3.5,15.4,0.7c0,0-7,10.1-16.7,7L277.4,266.9z"/>
			<path class="st7" d="M273.3,253.5c-8,2.8-13.1,8.1-15.7,11.6c-1.6,2.1-1.7,4.8-0.4,7c2.5,4.2,7.4,11,15.2,14.8
				c3.3-5.1,5.2-11.1,5.2-17.4C277.6,263.7,276.1,258.2,273.3,253.5z"/>
			<circle cx="265.6" cy="267.4" r="0.9"/>
		</g>
		<g class="st3">
			<g>
				<path class="st9" d="M852.1,224.7c3.6-0.8,3.9-6,0.4-7c-0.1,0-0.2-0.1-0.4-0.1l-5.6-1l3.1-3.2c2.3-2.4,0.8-6.4-2.5-6.8l-4.4-0.5
					l2.7-3.4c2.1-2.6,0.3-6.5-3.1-6.5l-4.4,0l2.2-3.5c1.8-2.9-0.5-6.6-3.9-6.2l-4.1,0.5l1.5-3.4c1.4-3.2-1.6-6.5-4.9-5.4l-3.6,1.1
					l0.5-3c0.6-3.5-3.3-6-6.2-4l-2.5,1.7l-0.4-2.4c-0.6-3.6-5.3-4.5-7.3-1.5l-1.4,2.1l-1.4-2.1c-2-3-6.7-2.1-7.3,1.5l-0.4,2.4
					l-2.5-1.7c-2.9-2-6.9,0.5-6.2,4l0.5,3l-3.6-1.1c-3.3-1-6.3,2.3-4.9,5.4l1.5,3.4l-4.1-0.5c-3.4-0.4-5.7,3.3-3.9,6.2l2.2,3.5
					l-4.4,0c-3.4,0-5.2,3.9-3.1,6.5l2.7,3.4l-4.4,0.5c-3.3,0.3-4.8,4.4-2.5,6.8l3.1,3.2l-5.6,1c-0.1,0-0.2,0.1-0.4,0.1
					c-3.6,1-3.4,6.2,0.2,7.1c2.5,0.6,16.1,4,44.1,4C836.2,228.8,849.2,225.3,852.1,224.7z"/>
			</g>
			<path class="st4" d="M821.2,202.1c0,0,3.2-3.4,5.4-1.2c2.2,2.2-0.3,6.6-1.6,7.5"/>
		</g>
		<g class="st3">
			<g>
				<g>
					<path class="st18" d="M752.9,275.3c0,0-9.7,7.3-12,19.8c-1.9,10.6,4.1,12.4,8,12c4.7-0.6,7.4-6.1,5.8-13.2c-2.2-9.5,6-15,6-15
						L752.9,275.3z"/>
					<path class="st18" d="M766.2,258c0,0-8.6,6.3-10.9,12.1l7.1,9.4C762.4,279.5,773.7,262.6,766.2,258z"/>
					<path class="st18" d="M755.9,268.8c0,0-4.2,2-4.6,5.9c0,0,1.4,4.8,8.5,8.2c0,0,3.8-3.3,3-5.5
						C761.7,274.4,755.9,268.8,755.9,268.8z"/>
				</g>
				<path class="st9" d="M782.4,251c0,0,26.1,28.3,33.6,74.4l-34.9,15.8l-22.8,1.9c-2.6-21.8-1.3-67.1,7.2-85.5L782.4,251z"/>
				<path class="st7" d="M766,278.9c0.2,0,4.2,1.7,13.2-0.4c0,0,4.5,18.4-5.5,18.5C764.5,297.1,766,278.9,766,278.9z"/>
				<g>
					
						<rect x="694.1" y="301.2" transform="matrix(0.8132 -0.582 0.582 0.8132 -37.8684 488.2492)" class="st8" width="94.8" height="3.9"/>
				</g>
				<path class="st18" d="M778.6,280.1c0,0-0.3,9.1-7.1,11.1c-6.4,1.9-8.1-3.2-8.9-4.6c-1-1.7-4.7-1.8-6.3,1.4
					c-1.7,3.4,0.7,11.4,7.5,14.8c9.5,4.8,31.5,0.3,30.6-24.2L778.6,280.1z"/>
				<g>
					<path class="st18" d="M795.5,233.4c-2.3-7.4-10.6-4-14.8-12.9c-2.3-4.9-6.6-14.8-17.2-11.2c-9.6,3.2-6.2,21.1-9.1,26.5
						c-2.5,4.7-1.7,14.1,12.4,13.8c-0.4,2.2-0.8,4.9-1.3,8.2c0.8,2.1,2,5.5,3,9.6c0.8,3.1,6.6,4.8,8.3-1.6
						c1.1-4.4,3.5-12.2,5.7-14.6c-1-1.3-1.9-2.5-2.9-3.6C794.8,243.5,796.7,237.3,795.5,233.4z"/>
					<ellipse transform="matrix(0.9863 -0.1648 0.1648 0.9863 -27.6447 129.1491)" cx="764.4" cy="231.1" rx="0.8" ry="1.9"/>
					<ellipse transform="matrix(0.9863 -0.1648 0.1648 0.9863 -27.4509 129.9133)" cx="769.1" cy="230.4" rx="0.8" ry="1.9"/>
				</g>
				<path class="st4" d="M780.2,324.5c0,0-1.5,9.4,1,16.9"/>
				<path class="st8" d="M758,340.1c0,0-6.1,14.4-2,34.1l29.9,1.7c0,0-7.8-28.5-3.3-36.5L758,340.1z"/>
				<path class="st8" d="M815.7,323.2c0,0,12.7,21.9,8.9,45.9l-38.3,14.4c0,0-9.2-28.3-5.6-43.8L815.7,323.2z"/>
				<path class="st18" d="M778.2,272.6c0,0-0.8-9.9,3.8-16.7c1.6-2.4,5.2-2.4,6.9,0c2.3,3.3,5.1,8.8,5.4,16.6L778.2,272.6z"/>
				<path class="st18" d="M778.4,280.3c0,0,6.7,2.4,16-0.6c0,0,1.8-3.9-0.1-8.4c-7.1-2.5-16.2,0.3-16.2,0.3S775.8,274.9,778.4,280.3
					z"/>
				<path class="st9" d="M699,321.5l18.3,10l-15.3,33.3l-8.3-3.4C693.8,361.3,690.6,346.6,699,321.5z"/>
			</g>
			<circle class="st8" cx="704.2" cy="332.9" r="1.5"/>
		</g>
		<g class="st3">
			<g>
				<path class="st17" d="M799.7,370.3c4.1,4.3,10.9,4.3,15,0v0c4.1-4.3,10.9-4.3,15,0l0.8,14.4H724.6v-14.4c4.1-4.3,10.9-4.3,15,0
					l0,0c4.1,4.3,10.9,4.3,15,0l0,0c4.1-4.3,10.9-4.3,15,0l0,0c4.1,4.3,10.9,4.3,15,0v0C788.8,366.1,795.6,366.1,799.7,370.3"/>
				<path class="st4" d="M724.6,370.3c4.1-4.3,10.9-4.3,15,0l0,0c4.1,4.3,10.9,4.3,15,0l0,0c4.1-4.3,10.9-4.3,15,0l0,0
					c4.1,4.3,10.9,4.3,15,0v0c4.1-4.3,10.9-4.3,15,0"/>
			</g>
			<path class="st4" d="M799.7,370.3c4.1,4.3,10.9,4.3,15,0v0c4.1-4.3,10.9-4.3,15,0"/>
		</g>
		<path class="st2" d="M782.1,39.4c0,0,12.7,0.8,11.1-19.7s5-21.7,5-21.7h-16.1V39.4z"/>
		<path class="st16" d="M671.9,600.7c0,0,130.6,1.7,215.1-86.6c67-70,61.7-135.8,146.3-174.1c115.8-52.4,209.5,83,332.7-64.9v326.2
			L671.9,600.7z"/>
		<g class="st3">
			<path class="st6" d="M1043.3,325.8c0,0,34.1-18.7,18.9-68.6C1062.2,257.2,1030.2,292.4,1043.3,325.8"/>
			<path class="st6" d="M1043.3,325.8c0,0-19,36-78.6,13.7C964.7,339.5,1013.7,310.4,1043.3,325.8"/>
			<path class="st4" d="M988.8,267.8c105.9,79.1,101.6,219.3,101.6,219.3"/>
			<path class="st6" d="M988.8,242.4c0,0,10.9,15.4,0.8,26.2C989.6,268.6,978,259.6,988.8,242.4z"/>
			<path class="st6" d="M989.6,268.5c0,0-7.5,14.1-27.2,5.6C962.3,274.1,975.6,262.4,989.6,268.5z"/>
			<path class="st6" d="M1017.7,293.4c0,0-14.9,20.9-50.4,6.1C967.3,299.5,995.8,278.2,1017.7,293.4z"/>
			<path class="st6" d="M1026.4,245.4c0,0,12.9,35.2-8.6,47.9C1017.7,293.4,1004,271.6,1026.4,245.4z"/>
			<path class="st6" d="M1101.1,297.1c0,0,8.1,55.5-33.4,73.9C1067.7,371,1058.6,330.4,1101.1,297.1z"/>
			<path class="st6" d="M972.6,375.1c0,0,64.7,24.5,94.3-3.2C1066.9,371.9,1046.1,341.4,972.6,375.1z"/>
			<path class="st6" d="M1132.3,340.1c0,0-4.7,75.8-48.7,84.8C1083.6,424.9,1071.3,381.9,1132.3,340.1z"/>
			<path class="st6" d="M1083.6,424.9c0,0-43.1,33.4-118.6-10.1C964.9,414.8,1055.4,387,1083.6,424.9z"/>
		</g>
		<g class="st3">
			<polyline class="st4" points="858.6,356.9 911.9,469.2 934.3,599.5 			"/>
			<line class="st4" x1="892.2" y1="380.2" x2="891.2" y2="425.5"/>
			<line class="st4" x1="855" y1="425.8" x2="904.1" y2="452.9"/>
			<line class="st4" x1="905.4" y1="394.1" x2="911.9" y2="469.2"/>
			<line class="st4" x1="929.5" y1="414" x2="909.9" y2="446.2"/>
			<line class="st4" x1="917.5" y1="502.3" x2="935.7" y2="470.1"/>
			<line class="st4" x1="850.5" y1="381.7" x2="887.3" y2="417.4"/>
			
				<ellipse transform="matrix(1 -5.731514e-03 5.731514e-03 1 -2.6593 5.376)" class="st5" cx="936.6" cy="466.7" rx="5.1" ry="5.2"/>
			<line class="st4" x1="870.5" y1="401.1" x2="838.1" y2="395.9"/>
			
				<ellipse transform="matrix(1 -5.731514e-03 5.731514e-03 1 -2.1646 4.8707)" class="st8" cx="848.7" cy="380.1" rx="2.4" ry="2.5"/>
			<line class="st4" x1="923.8" y1="491.1" x2="937.3" y2="483.1"/>
			
				<ellipse transform="matrix(1 -5.731514e-03 5.731514e-03 1 -2.2304 5.1958)" class="st8" cx="905.4" cy="391.7" rx="2.4" ry="2.5"/>
			
				<ellipse transform="matrix(1 -5.731514e-03 5.731514e-03 1 -2.7477 5.3906)" class="st8" cx="939.1" cy="482.1" rx="2.4" ry="2.5"/>
			
				<ellipse transform="matrix(1 -5.731514e-03 5.731514e-03 1 -2.4198 4.8966)" class="st8" cx="853.1" cy="424.6" rx="2.4" ry="2.5"/>
			
				<ellipse transform="matrix(1 -5.731514e-03 5.731514e-03 1 -2.1281 5.1194)" class="st5" cx="892.1" cy="373.9" rx="6.2" ry="6.3"/>
			
				<ellipse transform="matrix(1 -5.731514e-03 5.731514e-03 1 -2.3259 5.3501)" class="st5" cx="932.3" cy="408.5" rx="6.2" ry="6.3"/>
			
				<ellipse transform="matrix(1 -5.731514e-03 5.731514e-03 1 -2.2502 4.7762)" class="st5" cx="832.2" cy="395" rx="6.2" ry="6.3"/>
			
				<ellipse transform="matrix(1 -5.731514e-03 5.731514e-03 1 -1.999 4.9147)" class="st5" cx="856.5" cy="351.2" rx="6.2" ry="6.3"/>
		</g>
		<g class="st3">
			<path class="st8" d="M902.6,595.5l2.1-2l-2.9-3c-2.2-2.3-0.7-6,2.4-6.2l4.2-0.2l-2.7-3.2c-2-2.4-0.3-6,2.8-6l4.2,0l-2.5-3.3
				c-1.9-2.5,0-6,3.2-5.8l4.1,0.3l-2.2-3.4c-1.7-2.6,0.5-6,3.6-5.6l4,0.6l-1.9-3.5c-1.5-2.8,1-6,4.1-5.3l3.9,0.9l-1.5-3.5
				c-1.2-2.9,1.7-5.9,4.6-4.8l3.6,1.3l-0.9-3.5c-0.8-3.1,2.5-5.7,5.3-4.1l3.2,1.7l-0.3-3.3c-0.3-3.2,3.5-5.2,6-3.1l2.5,2.1l0.4-3.1
				c0.5-3.2,4.6-4.3,6.6-1.7l1.8,2.5l1.2-2.9c1.2-3,5.5-3,6.8,0l1.2,2.9l1.8-2.5c1.9-2.7,6.1-1.7,6.6,1.6l0.5,3.1l2.4-2.1
				c2.4-2.2,6.3-0.3,6.1,3l-0.2,3.2l3-1.7c2.8-1.6,6.2,0.9,5.4,4.1l-0.8,3.4l3.5-1.3c3-1.1,5.9,1.9,4.7,4.8l-1.4,3.4l3.8-0.9
				c3.1-0.7,5.6,2.5,4,5.3l-1.9,3.4l3.9-0.5c3.1-0.4,5.3,3.1,3.5,5.7l-2.2,3.3l4-0.2c3.1-0.2,5,3.5,3.1,5.9l-2.5,3.2l4.1,0.1
				c3.1,0.1,4.7,3.8,2.6,6.1l-2.7,3l4.1,0.3c3.1,0.3,4.5,4.1,2.3,6.3l-2.9,2.9l2.3,2.3c2.3,2.3,0.6,6.2-2.6,6.2l-118.5,0.4
				C901.9,601.7,900.3,597.8,902.6,595.5z"/>
			<path class="st4" d="M940.3,580.4c0,0-2-5.4,0.7-7.2c2.7-1.8,5.5,2.8,5.5,2.8"/>
		</g>
		<g class="st3">
			<path class="st7" d="M991.7,602.1l-5.1-5.6c-2.4-2.7-1.2-7,2.3-8l7.3-2.1l-4.8-5.9c-2.3-2.8-0.9-7,2.6-7.9l7.4-1.8l-4.5-6.1
				c-2.2-2.9-0.5-7.1,3-7.7l7.4-1.4l-4.2-6.3c-2-3-0.1-7.1,3.5-7.6l7.5-1l-3.7-6.5c-1.8-3.2,0.3-7.1,4-7.3l7.5-0.5l-3.2-6.7
				c-1.6-3.3,0.9-7.1,4.6-7l7.4,0.2l-2.4-6.8c-1.2-3.5,1.7-7,5.3-6.5l7.2,1l-1.4-6.9c-0.8-3.7,2.7-6.8,6.3-5.7l6.7,2.1l-0.1-6.8
				c-0.1-3.8,4-6.2,7.3-4.3l5.9,3.3l1.5-6.3c0.9-3.8,5.5-5.1,8.3-2.4l4.6,4.6l3.1-5.6c1.9-3.4,6.7-3.4,8.6,0l3.1,5.6l4.5-4.5
				c2.7-2.8,7.4-1.4,8.3,2.4l1.4,6.2l5.7-3.2c3.3-1.9,7.5,0.6,7.3,4.4l-0.2,6.6l6.6-2c3.6-1.1,7.1,2.1,6.2,5.8l-1.5,6.7l7-0.9
				c3.7-0.5,6.6,3.2,5.2,6.6l-2.5,6.7l7.3-0.1c3.7,0,6.1,3.9,4.4,7.1l-3.3,6.5l7.3,0.6c3.6,0.3,5.7,4.3,3.8,7.5l-3.9,6.3l7.3,1.1
				c3.6,0.6,5.4,4.7,3.2,7.7l-4.3,6.1l7.3,1.6c3.6,0.8,5.1,5,2.8,7.9l-4.6,5.9l7.2,2c3.5,1,4.8,5.2,2.4,8l-4.9,5.6l7.1,2.3
				c3.5,1.1,4.6,5.5,2,8.1l-5.2,5.4L991.7,602.1z"/>
			<path class="st7" d="M1076.2,536.2c0,0-2.4-8.7,1.8-9.9c4.2-1.2,5.6,5.2,5.6,5.2"/>
			<path class="st7" d="M1135.8,561.9c0,0,3.2-4.6,6.1-2c2.9,2.7-2.1,10.2-2.1,10.2"/>
		</g>
		<g class="st3">
			<path class="st9" d="M816.6,469.8c6.5-2.7,22.9-2.1,26.8,21.8c3.9,23.9,22.4,18.2,24.3,33.2c1.4,11.7-7.8,14.6-7.9,26.5
				c-0.1,8-2.6,17.2-12.5,20.3c-8.3,2.6-17.6-1.4-21.9-10.9c-7.6-16.9-18.9-11.4-22-25.3c-2.9-13.1,9.4-16.4,5.8-29.2
				C805.6,494.1,800.8,476.2,816.6,469.8z"/>
			<path class="st4" d="M822.3,490c0,0,8,77.7,52.2,112.7"/>
			<path class="st4" d="M816.6,500.5c1.9,5.2,11.8,7.4,16.3-3.4"/>
			<path class="st4" d="M818.8,527.1c2.4,6.6,19.1,10.9,24.4-8.2"/>
			<path class="st4" d="M831.9,552c3.6,4.1,13.1,1.1,14-5.7"/>
		</g>
		<g class="st3">
			<circle class="st9" cx="1301.6" cy="469" r="12.7"/>
			<path class="st6" d="M1287.2,437.1c0,0-7.1,25.7,28.6,25.7C1315.8,462.8,1311.7,430.9,1287.2,437.1z"/>
			<path class="st6" d="M1286.1,418.9c0,0-27.6,3.5-20.5,42.5C1265.6,461.5,1301.1,446.5,1286.1,418.9z"/>
			<path class="st6" d="M1168.5,391.1c0,0,12-26,38-13.3C1206.5,377.8,1197.9,401.6,1168.5,391.1z"/>
			<path class="st6" d="M1336.4,477.1c0,0-8.9,37,22.7,44.1C1359.1,521.2,1366.1,487.7,1336.4,477.1z"/>
			<path class="st6" d="M1345.8,463.9c0,0,4.6,22,45.2,9.1C1391,473,1368.4,449.5,1345.8,463.9z"/>
			<path class="st6" d="M1358.7,502.6c0,0,11.1-30.3-10.6-39.1C1348.1,463.4,1335.8,487.7,1358.7,502.6z"/>
			<g>
				<circle class="st9" cx="1370.4" cy="488.9" r="15.9"/>
			</g>
			<path class="st6" d="M1136.5,410.7c0,0,15.8,30.6,47,16.4C1183.5,427.1,1169.5,396.1,1136.5,410.7z"/>
			<path class="st6" d="M1189.1,488.5c0,0-25.1-2.8-25.1,34.3C1164,522.9,1198.7,515.9,1189.1,488.5z"/>
			<path class="st6" d="M1203.2,441.2c0,0-27.8-2.7-29.2,32.1C1174,473.3,1212.7,469.5,1203.2,441.2z"/>
			<path class="st6" d="M1156.9,459.1c0,0,3.1,23.3,40.5,15.2C1197.4,474.2,1183,443.7,1156.9,459.1z"/>
			<path class="st6" d="M1207.3,433.4c0,0,5.1-26.2,38.6-24.8C1246,408.6,1241.2,439.9,1207.3,433.4z"/>
			<path class="st6" d="M1226.6,490.5c0,0,26-11.7,13.6-42.7C1240.3,447.8,1212.8,457.3,1226.6,490.5z"/>
			<path class="st6" d="M1224,447.8c0,0-20.9,11-6.4,40.8C1217.6,488.5,1239,467,1224,447.8z"/>
			<path class="st6" d="M1246,456.4c0,0-14.4,15.2,8.2,30.4C1254.1,486.8,1264.4,463.5,1246,456.4z"/>
			<path class="st7" d="M1175.6,412.4c0,0,0.6,36.1,52.6,43.5c52,7.4,76.2,61.5,81.5,145.8h44.8c0,0-3.1-26.5-15.5-62.5
				c-7.3-21.1,2.2-58.4,22.7-75.5c19.3-16,10.9-46,10.9-46l-18.2,4.3c0,0,6,27.5-10.2,34.5c-16.2,7-14-13.7-12.2-23.2l-14.3,2.2
				c0,0-6.2,4.4-1.9,27.1c1.5,8,5.5,27.7-1.6,31.3c-8.1,4.1-14.7-9.2-19.3-15.3c-4.7-6.3-15.4-20.9-29.8-28.2
				c-17.4-8.9-10.5-45.5-10.5-45.5l-13.7-3.5c0,0,0.6,20.1,0.6,22.3c0,2.2,1.2,16.1-14,14.6c-15.2-1.5-26.4-11.4-30.9-25.2
				L1175.6,412.4z"/>
			<path class="st6" d="M1148.5,404.4c0,0,16.9,25.9,46.2,6.3C1194.7,410.7,1181.7,388.4,1148.5,404.4z"/>
			<path class="st6" d="M1237.6,492.2c0,0,2.6-20.9,28.9-12.9C1266.5,479.2,1255.4,500.2,1237.6,492.2z"/>
			<path class="st6" d="M1247.8,377.6c0,0,5.9,36.7,46.8,32.9C1294.6,410.4,1286.2,375.5,1247.8,377.6z"/>
			<path class="st6" d="M1280.9,366.9c0,0-13.7,38.6,19,50.9C1299.9,417.9,1309.8,380.1,1280.9,366.9z"/>
			<path class="st6" d="M1346.5,430.9c0,0,8-25.3,43.3-24.5C1389.8,406.4,1377.7,441.6,1346.5,430.9z"/>
			<path class="st6" d="M1233.5,483c0,0,2.4,25.3,22.6,21.8C1256.1,504.8,1256.9,485.7,1233.5,483z"/>
			<circle class="st9" cx="1269" cy="507" r="18.5"/>
			<circle class="st9" cx="1148.6" cy="453.3" r="16.3"/>
			<circle class="st9" cx="1201.4" cy="401.6" r="16.2"/>
			<path class="st6" d="M1203.9,374.8c0,0-2.8,24.5,33.3,21.7C1237.2,396.5,1233.7,369.5,1203.9,374.8z"/>
			<path class="st6" d="M1257.3,422.7c0,0,29.6,11.8,48.1-10.4C1305.3,412.2,1276.4,388.9,1257.3,422.7z"/>
			<path class="st6" d="M1286.1,383c0,0,3.8,31.2,43,34.6C1329.2,417.6,1325.7,377.7,1286.1,383z"/>
			<path class="st6" d="M1343.6,368.1c0,0-34.2,27.5-10.4,52.1C1333.2,420.1,1369.3,410.9,1343.6,368.1z"/>
			<path class="st6" d="M1370.5,383.8c0,0-40.7,9.9-33.2,45.1C1337.3,429,1369.7,429,1370.5,383.8z"/>
			<path class="st6" d="M1335,427.5c0,0,20.9,27.4,49.6,7.8C1384.6,435.3,1362.9,405.2,1335,427.5z"/>
			<path class="st6" d="M1228.7,402.2c0,0,18.7,16.8,43.4-2.1C1272.1,400.1,1245.4,381.5,1228.7,402.2z"/>
			<path class="st6" d="M1307.6,430.6c0,0,4.3-28,38.9-22.6C1346.5,407.9,1341.1,442.3,1307.6,430.6z"/>
			<path class="st6" d="M1306.2,433.9c0,0,19.8,19.1,42.7-3C1348.8,431,1323,412.1,1306.2,433.9z"/>
			<circle class="st9" cx="1301.6" cy="423.8" r="17.5"/>
			<g>
				<circle class="st18" cx="1267" cy="495" r="0.9"/>
				<circle class="st18" cx="1268.8" cy="499.2" r="0.9"/>
				<circle class="st18" cx="1272" cy="496" r="0.9"/>
			</g>
			<path class="st6" d="M1165.4,424.7c0,0-18.5,20,12.9,38.1C1178.3,462.8,1188.2,430.9,1165.4,424.7z"/>
			<path class="st6" d="M1128.6,436.2c-0.5-0.2,10.1-21.4,39.2-12.4C1167.8,423.7,1156.8,449.2,1128.6,436.2z"/>
			<path class="st6" d="M1237,491.3c0,0-25.5-8.8-33.3,19.2C1203.7,510.4,1230,518.1,1237,491.3z"/>
			<g>
				<circle class="st9" cx="1238.8" cy="522.9" r="18.5"/>
				<g>
					<circle class="st18" cx="1245.4" cy="512.5" r="0.9"/>
					<circle class="st18" cx="1242.4" cy="516" r="0.9"/>
					<circle class="st18" cx="1246.7" cy="517.4" r="0.9"/>
				</g>
			</g>
			<g>
				<circle class="st9" cx="1196.7" cy="482.2" r="18.5"/>
				<g>
					<circle class="st18" cx="1202.7" cy="473" r="0.9"/>
					<circle class="st18" cx="1201.6" cy="477.4" r="0.9"/>
					<circle class="st18" cx="1206.1" cy="476.8" r="0.9"/>
				</g>
			</g>
			<g>
				<circle class="st18" cx="1153.6" cy="443.3" r="0.9"/>
				<circle class="st18" cx="1150" cy="446" r="0.9"/>
				<circle class="st18" cx="1153.8" cy="448.4" r="0.9"/>
			</g>
			<g>
				<circle class="st18" cx="1191.4" cy="396.6" r="0.9"/>
				<circle class="st18" cx="1192.7" cy="400.7" r="0.9"/>
				<circle class="st18" cx="1195.8" cy="397.4" r="0.9"/>
			</g>
			<g>
				<circle class="st18" cx="1291.7" cy="425.9" r="0.9"/>
				<circle class="st18" cx="1294.2" cy="422" r="0.9"/>
			</g>
		</g>
		<g class="st3">
			<path class="st7" d="M1321.8,205.6c5.4-2.8,19.5-3.5,24.6,16.9c5.1,20.3,20.6,14.1,23.2,26.9c2,9.9-5.7,13.1-5,23.4
				c0.5,6.9-1,15-9.4,18.4c-7,2.8-15.3,0-19.6-7.8c-7.7-14-14-8.4-17.6-20.3c-3.4-11.1,3.8-14.8-0.2-25.6
				C1314.1,227.3,1308.7,212.3,1321.8,205.6z"/>
			<path class="st4" d="M1328.1,222.7c0,0,7.9,57.1,48.1,88.9"/>
			<path class="st4" d="M1324,232c2,4.4,10.7,5.5,13.8-4.1"/>
			<path class="st4" d="M1327.8,254.8c2.6,5.5,15.1,8.6,18.3-8.2"/>
			<path class="st4" d="M1340.8,274.3c3.6,3.3,9.8,1.6,10-4.3"/>
		</g>
		<g class="st3">
			<path class="st6" d="M1283.4,315.9c0.2-1,0.5-2,0.9-3l0,0c0,0,0,0,0,0c0.2-0.5,0.4-0.9,0.6-1.4c2.8-7.2,0.2-14.9-0.5-16.7
				c0-0.1-0.6-1.5-0.7-2.2c-2-7.9,2.7-15.9,10.6-18s15.9,2.7,18,10.6c0.2,0.6,0.4,2.9,0.5,3.3c0.3,3.3,1.8,11.3,7.6,15.9
				c0.3,0.2,0.6,0.4,0.9,0.7c0,0,0,0,0.1,0.1l0,0c6.3,4.9,9.6,12.5,8.1,20.1c-2.3,11.2-14.4,18.5-27.1,15.9
				C1289.6,338.7,1281.1,327.1,1283.4,315.9z"/>
			<path class="st4" d="M1297.6,290.6c1.4,20,6.1,68.7,85.3,83.8"/>
			<path class="st4" d="M1303.3,295.6c-0.2,3.9-7.6,6.2-9.7,2.3"/>
			<path class="st4" d="M1311.4,313.2c-0.7,10.7-12.8,12.6-16.6,6"/>
		</g>
		<g class="st3">
			<path class="st5" d="M510.8,338.4c6.9,1,12.1,2.9,27.7,2.9c15.6,0,21.3-1.8,28.4-2.7c2.3-0.3,3.5-2.8,1.9-4.5l-2.4-2l2.3-1.5
				c2.2-1.4,1.2-4.9-1.4-4.9l-2.7,0l2-1.6c2.1-1.7,0.7-5-2-4.7l-2.6,0.3l1.6-1.7c1.9-1.9,0-5.1-2.6-4.4l-2.3,0.6l1.1-1.6
				c1.5-2.2-0.9-5.1-3.3-3.9l-1.7,0.8l0.5-1.3c1.1-2.5-2-4.8-4.1-3.1l-1.1,0.9l0.2-1.1c0.4-2.7-3.1-4.2-4.8-1.9l-0.6,0.9l-0.2-1.3
				c-0.3-2.7-4.1-3.2-5.1-0.6l-0.5,1.3l-0.5-1.3c-1-2.6-4.7-2.1-5.1,0.6l-0.2,1.3l-0.6-0.9c-1.6-2.2-5.1-0.8-4.8,1.9l0.2,1.1
				l-1.1-0.9c-2.1-1.7-5.2,0.5-4.1,3.1l0.5,1.3L522,309c-2.4-1.2-4.9,1.7-3.3,3.9l1.1,1.6l-2.3-0.6c-2.6-0.7-4.4,2.5-2.6,4.4
				l1.6,1.7l-2.6-0.3c-2.6-0.3-4,3-2,4.7l2,1.6l-2.7,0c-2.6,0-3.7,3.4-1.4,4.9l2.3,1.5l-2.9,1.5
				C507.3,335.3,508.4,338.1,510.8,338.4z"/>
			<path class="st4" d="M545.4,319.6c0,0,3.2-3.7,5.6-1.5c2.4,2.2-1.8,5.6-1.8,5.6"/>
		</g>
		<g class="st3">
			<path class="st4" d="M311.3,521.2c0,15.5,2.6,41.1-19.7,41.1"/>
			<path class="st9" d="M311.4,497.2c3.9,0,9.2,4.8,10,21.5c0.1,2.2-1.7,4.1-3.9,4.1h-6.1h-6.1c-2.2,0-4-1.9-3.9-4.1
				C302.2,502,307.6,497.2,311.4,497.2z"/>
		</g>
		<g class="st3">
			<path class="st4" d="M350.6,532.2c0,9.8,2.7,29.7-7,29.7"/>
			<path class="st8" d="M350.7,515.8c2.6,0,6.3,3.1,7.1,13.7c0.2,2.6-1.9,4.9-4.5,4.9h-2.6h-2.6c-2.6,0-4.7-2.3-4.5-4.9
				C344.4,518.9,348,515.8,350.7,515.8z"/>
		</g>
		<g class="st3">
			<path class="st4" d="M177.7,466.9c0,0,26-41.1,8.5-87.9"/>
			<path class="st4" d="M158.5,415.8c0,0,5.4,25.5,29.4,26.5"/>
			<path class="st4" d="M192.3,419.8c0,0,12.7-6.8,12.4-22.5"/>
			<path class="st4" d="M186.3,447.9c0,0,36,0.5,40.4-30.9"/>
			<path class="st4" d="M191.9,405.2c0,0-13.5,2.1-18.9-10.5"/>
			<circle class="st7" cx="184.2" cy="373.8" r="6"/>
			<circle class="st7" cx="227.2" cy="411.1" r="5.8"/>
			<path class="st4" d="M168.2,433.6c1.5-1.3,7.3-5.8,5-16.5"/>
			<path class="st4" d="M207.2,443.3c0,0,10.2,10.6,27,2.8"/>
			<circle class="st9" cx="172" cy="392.6" r="2.3"/>
			<circle class="st9" cx="204.7" cy="393.4" r="3.9"/>
			<circle class="st9" cx="236.2" cy="444.9" r="2.3"/>
			<circle class="st7" cx="157.7" cy="412.1" r="3.9"/>
			<circle class="st9" cx="172.8" cy="415.1" r="2.3"/>
		</g>
		<g class="st3">
			<path class="st4" d="M329.4,555.2c0,10.4,1.5,27.5-11.7,27.5"/>
			<path class="st7" d="M329.3,532.7c3,0,7.2,4.3,7.9,19.2c0.1,2.3-1.7,4.1-4,4.1h-3.9h-3.9c-2.3,0-4.1-1.9-4-4.1
				C322.1,537,326.3,532.7,329.3,532.7z"/>
		</g>
		<g class="st3">
			<path class="st9" d="M38.3,591.3l3.3-4.4l-4.8-4.3c-3.4-3-2.3-8.5,1.9-10l6-2.2l-4.6-4.5c-3.2-3.1-1.9-8.6,2.3-9.9l6.1-2
				l-4.4-4.7c-3.1-3.3-1.5-8.7,2.8-9.8l6.2-1.6l-4.1-4.9c-2.9-3.5-1-8.7,3.4-9.6l6.2-1.3L55,517c-2.7-3.6-0.5-8.8,4-9.4l6.2-0.8
				l-3.2-5.3c-2.4-3.9,0.3-8.9,4.8-9.1l6.2-0.2l-2.6-5.4c-2-4.1,1.2-8.9,5.8-8.5l6,0.5l-1.8-5.5c-1.5-4.4,2.5-8.7,7-7.6l5.6,1.3
				l-0.7-5.4c-0.7-4.7,4.1-8.2,8.4-6.2l4.9,2.3l0.5-5.1c0.4-4.7,6-7.1,9.7-4l3.9,3.2l1.8-4.8c1.7-4.5,7.7-5.2,10.4-1.4l3,4.2l3-4.2
				c2.8-3.9,8.7-3.1,10.4,1.4l1.8,4.8l4-3.3c3.7-3,9.3-0.7,9.7,4l0.5,5.1l4.9-2.3c4.3-2,9,1.5,8.4,6.2l-0.7,5.4l5.6-1.3
				c4.5-1.1,8.5,3.2,7,7.6l-1.8,5.5l6-0.5c4.6-0.4,7.8,4.4,5.8,8.5l-2.6,5.4l6.2,0.2c4.5,0.2,7.2,5.2,4.9,9l-3.2,5.3l6.2,0.8
				c4.5,0.6,6.7,5.7,4.1,9.4L211,522l6.3,1.2c4.4,0.9,6.3,6.2,3.4,9.6l-4.1,4.9l6.2,1.6c4.3,1.1,5.9,6.5,2.9,9.8l-4.4,4.7l6.2,1.9
				c4.3,1.3,5.6,6.8,2.4,9.9l-4.6,4.5l6.1,2.2c4.2,1.5,5.3,7,1.9,10l-4.8,4.3l3.3,4.4c3,3.9,0.2,9.5-4.7,9.5l-184,0.1
				C38.1,600.8,35.3,595.2,38.3,591.3z"/>
			<path class="st4" d="M162.8,516.2c0,0,2.7-8.7,7.8-7.6c4.7,1,1.6,10.1,1.6,10.1"/>
			<path class="st4" d="M92.7,546.8c0,0-5.7-5.1-2.9-8.6c2.7-3.5,9.4,2.2,9.4,2.2"/>
		</g>
		<g class="st3">
			<g>
				<path class="st8" d="M320,590L320,590l2.1-2.4c3.3-3.7,0.7-9.6-4.3-9.5l-3.2,0l1.6-2.5c2.7-4.2-1.1-9.6-6-8.6l-2.9,0.6l0.9-2.5
					c1.8-4.7-3.1-9.2-7.7-7.2l-2.4,1.1l0.3-2.5c0.6-5-5.1-8.3-9.1-5.2l-2,1.6l-0.3-2.7c-0.6-5-6.9-6.9-10.1-3l-1.7,2.1l-1-2.9
					c-1.6-4.7-8-5.3-10.4-0.9l-1.5,2.7l-1.5-2.7c-2.4-4.4-8.8-3.8-10.4,0.9l-1,2.9l-1.7-2.1c-3.2-3.9-9.5-2.1-10.1,3l-0.3,2.7
					l-2-1.5c-4-3.1-9.8,0.2-9.2,5.2l0.3,2.5l-2.4-1.1c-4.6-2.1-9.4,2.4-7.7,7.2l0.9,2.4l-2.8-0.6c-4.9-1-8.6,4.4-6,8.6l1.5,2.4
					l-3.1,0c-5-0.1-7.6,5.9-4.3,9.5l2.1,2.3l0,0c-5.3,0.8-6.6,7.9-1.9,10.6l1.2,0.7l116.5,0.1l1.2-0.7
					C326.6,597.9,325.3,590.8,320,590z"/>
			</g>
			<path class="st4" d="M254.7,581.7c0,0-3.5-6.5,0.7-8.9c4.1-2.4,7.6,4.3,7.6,4.3"/>
		</g>
	</g>
</g>
</svg>
