<?xml version="1.0" encoding="utf-8"?>
<!-- Generator: Adobe Illustrator 22.1.0, SVG Export Plug-In . SVG Version: 6.00 Build 0)  -->
<svg version="1.1" id="圖層_1" xmlns="http://www.w3.org/2000/svg" xmlns:xlink="http://www.w3.org/1999/xlink" x="0px" y="0px"
	 viewBox="0 0 643.7 987.3" style="enable-background:new 0 0 643.7 987.3;" xml:space="preserve">
<style type="text/css">
	.st0{fill:#F98A10;stroke:#000000;stroke-width:0.4311;stroke-miterlimit:10;}
	.st1{fill:#95CEC7;stroke:#000000;stroke-width:0.4311;stroke-miterlimit:10;}
	.st2{fill:#F7B42F;stroke:#000000;stroke-width:0.4872;stroke-miterlimit:10;}
	.st3{fill:none;stroke:#000000;stroke-width:0.4872;stroke-miterlimit:10;}
	.st4{fill:#F7B42F;stroke:#000000;stroke-width:0.4311;stroke-miterlimit:10;}
	.st5{fill:#FFE7BD;stroke:#000000;stroke-width:0.4311;stroke-miterlimit:10;}
	.st6{fill:#FFFFFF;stroke:#000000;stroke-width:0.4311;stroke-miterlimit:10;}
	.st7{fill:#F98A10;fill-opacity:0;}
	.st8{fill:#FFE7BD;fill-opacity:0;}
	.st9{fill:none;stroke:#000000;stroke-width:0.4311;stroke-miterlimit:10;}
	.st10{fill:#B4C834;stroke:#000000;stroke-width:0.5706;stroke-miterlimit:10;}
	.st11{fill:#B4C834;stroke:#000000;stroke-width:0.5389;stroke-miterlimit:10;}
	.st12{fill:none;stroke:#000000;stroke-width:0.5389;stroke-miterlimit:10;}
	.st13{fill:#B4C834;stroke:#000000;stroke-width:0.5142;stroke-miterlimit:10;}
	.st14{fill:none;stroke:#000000;stroke-width:0.4856;stroke-miterlimit:10;}
	.st15{fill:none;stroke:#000000;stroke-width:0.4264;stroke-miterlimit:10;}
	.st16{fill:#95CEC7;stroke:#000000;stroke-width:0.3411;stroke-miterlimit:10;}
	.st17{fill:none;stroke:#000000;stroke-width:0.5389;stroke-linejoin:round;stroke-miterlimit:10;}
	.st18{fill:none;stroke:#000000;stroke-width:0.4779;stroke-miterlimit:10;}
	.st19{fill:#F98A10;stroke:#000000;stroke-width:0.3823;stroke-miterlimit:10;}
	.st20{fill:#FFE7BD;stroke:#000000;stroke-width:0.3823;stroke-miterlimit:10;}
	.st21{fill:#F7B42F;stroke:#000000;stroke-width:0.3768;stroke-miterlimit:10;}
	.st22{fill:none;stroke:#000000;stroke-width:0.471;stroke-miterlimit:10;}
	.st23{fill:#B4C834;stroke:#000000;stroke-width:0.471;stroke-miterlimit:10;}
	.st24{fill:#F98A10;stroke:#000000;stroke-width:0.3768;stroke-miterlimit:10;}
	.st25{fill:#FFE7BD;stroke:#000000;stroke-width:0.3465;stroke-miterlimit:10;}
	.st26{fill:#B4C834;stroke:#000000;stroke-width:0.4331;stroke-miterlimit:10;}
	.st27{fill:none;stroke:#000000;stroke-width:0.4331;stroke-miterlimit:10;}
	.st28{fill:#B4C834;stroke:#000000;stroke-width:0.4895;stroke-miterlimit:10;}
	.st29{fill:#FFE7BD;stroke:#000000;stroke-width:0.3916;stroke-miterlimit:10;}
	.st30{fill:none;stroke:#000000;stroke-width:0.3916;stroke-miterlimit:10;}
	.st31{fill:#FFE7BD;stroke:#000000;stroke-width:0.3699;stroke-miterlimit:10;}
	.st32{fill:#B4C834;stroke:#000000;stroke-width:0.4623;stroke-miterlimit:10;}
	.st33{fill:none;stroke:#000000;stroke-width:0.4623;stroke-miterlimit:10;}
	.st34{fill:#FFE7BD;stroke:#000000;stroke-width:0.3684;stroke-miterlimit:10;}
	.st35{fill:#B4C834;stroke:#000000;stroke-width:0.4605;stroke-miterlimit:10;}
	.st36{fill:none;stroke:#000000;stroke-width:0.4605;stroke-miterlimit:10;}
	.st37{fill:#FFFFFF;stroke:#000000;stroke-width:0.4692;stroke-miterlimit:10;}
	.st38{fill:#F98A10;stroke:#000000;stroke-width:0.4692;stroke-miterlimit:10;}
	.st39{fill:none;stroke:#000000;stroke-width:0.5865;stroke-miterlimit:10;}
	.st40{fill:#F7B42F;stroke:#000000;stroke-width:0.4692;stroke-miterlimit:10;}
	.st41{fill:#B4C834;stroke:#000000;stroke-width:0.5865;stroke-miterlimit:10;}
	.st42{fill:none;stroke:#000000;stroke-width:0.4354;stroke-miterlimit:10;}
	.st43{fill:#95CEC7;stroke:#000000;stroke-width:0.3483;stroke-miterlimit:10;}
	.st44{fill:none;stroke:#000000;stroke-width:0.4311;stroke-miterlimit:10;stroke-opacity:0;}
	.st45{fill:none;stroke:#000000;stroke-width:0.4599;stroke-miterlimit:10;stroke-opacity:0;}
	.st46{fill:#B4C834;stroke:#000000;stroke-width:0.4927;stroke-miterlimit:10;}
	.st47{fill:#FFE7BD;stroke:#000000;stroke-width:0.3722;stroke-miterlimit:10;}
	.st48{fill:#FFBA31;stroke:#000000;stroke-width:0.1727;stroke-miterlimit:10;}
	.st49{fill:#F7B42F;stroke:#000000;stroke-width:0.3722;stroke-miterlimit:10;}
</style>
<g>
	<path class="st0" d="M53.2,718.2c0,0,21.5,102.6,101.9,113.1s114.7,33.9,133.8,81.8c17.1,42.8,46.4,38,68.1-7.7
		c9.9-20.9,33.1-23.2,49-18.4s55.9,8.5,87.7-38.5c31.8-47,58.5-133.3,58.5-133.3L434.7,676L53.2,718.2z"/>
	<g>
		<path class="st1" d="M126.1,584.7c-10.3-10.8-26.3-14-39.3-14.6c-18.8,22-34.2,50.7-37.8,90.3c-1.2,13.2-1.2,25.9,0.1,37.9
			c15.5-3.1,34-8.4,51.8-17.2C144.1,659.6,148.4,607.9,126.1,584.7z"/>
		<g>
			<g>
				<path class="st2" d="M148.9,623.9c-5.7,1.5-9.1,7.2-7.9,12.8l-2,0.5c-1.8-5.5-7.6-8.7-13.2-7.2c-5.7,1.5-9.1,7.2-7.9,12.8
					l-2,0.5c-1.8-5.5-7.6-8.7-13.2-7.2c-5.8,1.6-9.3,7.5-7.8,13.4c1.6,5.8,7.5,9.3,13.4,7.8c5.5-1.5,8.9-6.9,8-12.5l2-0.5
					c1.9,5.3,7.6,8.3,13.1,6.9s8.9-6.9,8-12.5l2-0.5c1.9,5.3,7.6,8.3,13.1,6.9c5.8-1.6,9.3-7.5,7.8-13.4S154.7,622.3,148.9,623.9z"
					/>
				<g>
					<path class="st2" d="M106.3,641.8c0.4,0.1,1.2,0.8,1.4,1.5"/>
					<path class="st2" d="M106.8,640.8c0.4,0,1.3,0.6,1.6,1.3"/>
				</g>
				<g>
					<path class="st2" d="M132.5,635c0.4,0.1,1.2,0.8,1.4,1.5"/>
					<path class="st2" d="M133,634c0.4,0,1.3,0.6,1.6,1.3"/>
				</g>
				<g>
					<path class="st2" d="M154.3,628.9c0.4,0.1,1.2,0.8,1.4,1.5"/>
					<path class="st2" d="M154.9,627.9c0.4,0,1.3,0.6,1.6,1.3"/>
				</g>
			</g>
		</g>
		<path class="st3" d="M81.6,642.3c0,0,6.5,8.3,6.1,23.4c-0.3,14.1,5.1,40.1,21.4,49.7"/>
		<path class="st3" d="M53.2,677.9c0,0,2.8,22.7,28.5,32"/>
		<path class="st3" d="M128.6,626.6c0,0,2.3,15.5-5.8,30.5c-13.8,25.5-2.2,74.8-2.2,74.8"/>
		<g>
			<g>
				<path class="st4" d="M142.3,669.7c-0.6-5.5-5.6-9.5-11.1-8.8c-5.3,0.6-9.2,5.3-8.9,10.6l-1.8,0.2c0-0.2-0.1-0.3-0.1-0.5v-0.1
					c-0.1-0.3-0.1-0.6-0.2-0.8c0-0.1,0-0.1-0.1-0.2c-0.1-0.2-0.2-0.5-0.3-0.7c0-0.1-0.1-0.2-0.1-0.3c-0.1-0.2-0.2-0.4-0.3-0.5
					s-0.1-0.2-0.2-0.4c-0.1-0.1-0.2-0.3-0.2-0.4c-0.1-0.1-0.2-0.3-0.3-0.4c-0.1-0.1-0.1-0.2-0.2-0.3c-0.1-0.2-0.3-0.3-0.4-0.5
					l-0.1-0.1c-0.2-0.2-0.4-0.4-0.6-0.6l0,0c-2.1-1.9-4.9-2.9-7.9-2.6c-5.3,0.6-9.2,5.3-8.9,10.6l-1.8,0.2c-0.4-2.3-1.5-4.3-3.1-5.7
					c-2.1-1.9-4.9-2.9-7.9-2.6c-5.3,0.6-9.2,5.3-8.9,10.6l-1.8,0.2c-0.8-5.2-5.7-8.9-11-8.3c-5.5,0.6-9.5,5.6-8.8,11.1
					c0.6,5.5,5.6,9.5,11.1,8.8c5.2-0.6,9-5.1,8.9-10.2l1.9-0.2c0.1,0.7,0.4,1.4,0.7,2.1l0,0c0.1,0.3,0.3,0.5,0.4,0.8
					c0,0.1,0.1,0.1,0.1,0.2c0.1,0.2,0.2,0.4,0.4,0.6c0.1,0.1,0.1,0.2,0.2,0.3c0.1,0.1,0.2,0.3,0.3,0.4c0.1,0.1,0.2,0.2,0.3,0.4
					c0.1,0.1,0.2,0.2,0.3,0.3s0.3,0.3,0.4,0.4c0.1,0.1,0.1,0.1,0.2,0.2c0.2,0.2,0.4,0.3,0.6,0.4l0.1,0.1c2,1.4,4.4,2.2,7,1.9
					c5.2-0.6,9-5.1,8.9-10.2l1.9-0.2c0.4,2.2,1.6,4.1,3.2,5.5c2,1.8,4.8,2.8,7.8,2.5c5.2-0.6,9-5.1,8.9-10.2l1.9-0.2
					c0.9,4.4,4.5,7.6,8.9,8c3.8-1.9,7.3-4,10.2-6.2C142.2,673.1,142.5,671.4,142.3,669.7z M71.4,676.5c0.2-0.8-0.3-2.1-0.7-2.3
					C71.1,674.4,71.6,675.7,71.4,676.5z M71.8,673.4c0.4,0.2,1,1.4,1,2.2C72.9,674.8,72.3,673.6,71.8,673.4z M92.9,674.2
					c0.2-0.8-0.3-2.1-0.7-2.3C92.6,672.1,93.1,673.4,92.9,674.2z M93.3,671.1c0.4,0.2,1,1.4,1,2.2C94.4,672.5,93.8,671.3,93.3,671.1
					z M115,671.8c0.2-0.8-0.3-2.1-0.7-2.3C114.8,669.7,115.2,671,115,671.8z M115.5,668.7c0.4,0.2,1,1.4,1,2.2
					C116.5,670.1,115.9,668.9,115.5,668.7z M137,669.4c0.2-0.8-0.3-2.1-0.7-2.3C136.7,667.4,137.2,668.6,137,669.4z M137.5,666.3
					c0.4,0.2,1,1.4,1,2.2C138.5,667.8,137.9,666.6,137.5,666.3z"/>
			</g>
		</g>
		<path class="st5" d="M489.1,480.6c-34.4-54-127-78-194.2-78.8c-41.7-0.5-82.5,4.7-111.2,40.8c-20,25.2-5.5,53.2-35.6,75.4
			c-17.6,13-41.4,28.7-61.3,52.1c13,0.6,29,3.9,39.3,14.6c22.3,23.2,17.9,74.9-25.3,96.4C83,689.9,64.6,695.2,49,698.3
			c6.6,62.2,68.6,114,152.4,117.4c77,3.2,75.7-52.6,184.7-34c96,16.4,173.6-20.4,175.6-116.4C563.8,570,490.6,546.6,489.1,480.6z"/>
	</g>
	<path class="st1" d="M269.8,417c0,0,6.5,30.9,52.4,60c68.9,43.5,151.3,63.7,165,141.3s-87.8,103-124.5,112s-99,24.6-111.6,92.5
		s-6.3,131.1-8.7,154c-1.8,17.3-14.6,12.1-16.1-7c-1.7-20.6-13.3-16.3-17.6-5.3c-7,18.1-17.1,8.2-17.7-6.3c-0.3-7.9-2.8-52-6.5-73.1
		c-3.7-21.2-9.2-34-18.3-34.6s-13.4,8.6-16.4,15.2c-2.9,6.7-9.7,13.6-12,2.1s-2-34.9-17.3-34.5s-13.7,33.3-29,34.1
		s-20-66.6-13.9-100.5c6.8-38.1,37.7-72.4,113.3-89.7c66.1-15.1,139.8-24.4,161.2-50.8c16.8-20.7,9.6-47.6-14-67.4
		c-23.7-19.8-109.6-47.5-82.7-153.3L269.8,417z"/>
	<path class="st6" d="M139.3,771.4c4-14.6,15.8-25.2,20.2-22.5c2.9,1.8-3.3,7-1.1,8.8c3,2.4,11-7.7,15.8-5.2
		c5.4,2.9-10.1,14.4-15.2,38.7c-5.1,24.3-2.1,35.1-7.3,35.1c-3.7,0-3.3-22.2-1.9-31.3c1.4-9.2,0.9-19-2.7-15.4
		c-4.9,4.9-3.8,24.8-7.8,24.8C135.4,804.4,136.7,781.1,139.3,771.4z"/>
	<path class="st6" d="M111.2,790c4.3,0.9,0.6,26.1-4.8,25.9C101.1,815.7,106.9,789.1,111.2,790z"/>
	<path class="st6" d="M222.8,824.1c8,0.9,2.1,27.9,1.2,40.4s-5,29.2-10.1,27.4c-2.8-1-1.6-6.3-2-18.9
		C211.4,860.5,215.2,823.2,222.8,824.1z"/>
	<path class="st6" d="M193,826.2c-5.4-0.3,1.2-22.1,3.9-28.6s15.9-28.9,22.6-24.6c6.7,4.3-5.3,14.2-9.8,20.5s-5.5,14.8-8.1,22.1
		S196.4,826.4,193,826.2z"/>
	<path class="st6" d="M235,800.3c3,1.4-4.1,16.9-8.1,15.2S232,798.8,235,800.3z"/>
	<path class="st6" d="M112.2,743.4c3.1-6.8,11.8-21.7,25.9-25.3s24.5-12.6,28-8.5c3.4,4.1-15.2,13-24.3,18.2
		c-9.1,5.3-16.2,13.4-23.3,21.7C111.4,757.8,105.3,758.4,112.2,743.4z"/>
	<path class="st6" d="M212.3,724.8c-3.1-4.9,13.2-15,27.8-20.2c16.6-5.9,24.7-10.4,38.1-14.7c13.4-4.3,29-4.8,29.8-1.8
		s-4.7,6.1-1.4,8.5c3.2,2.4,10.5-1.3,11.2,3.2c0.6,4.5-19.1,12-43.2,21.1c-24.1,9.1-34.7,17.2-36.4,11.2
		c-1.7-6.1,24.7-14.4,23.4-19.5c-1.2-5.1-27.4,4.9-34.3,8.7C220.4,725.2,213.9,727.4,212.3,724.8z"/>
	<path class="st6" d="M341.3,719.4c4.9,4-6.8,11.8-13.6,12.4s-8.9-1.9-4-5.3C328.5,723,338.1,716.8,341.3,719.4z"/>
	<path class="st6" d="M350.8,701.4c-2-3,5.6-7.7,10.9-9.9s12.1-5.3,13.3-2.2s-8.4,9.3-13.3,10.6C356.8,701.2,351.9,703,350.8,701.4z
		"/>
	<path class="st6" d="M319.5,674.5c-3.3-3.6,6.3-9.6,20.2-16c17.3-8.1,24.3-26.5,33.8-19.9s20.3,4.8,36.9,1.6
		c16.6-3.3-26.1,23.3-42,26.1s-21.2,13.7-25.9,9.8s10.5-9.9,8-12.8C346.5,658.5,324,679.3,319.5,674.5z"/>
	<path class="st6" d="M341.5,538.9c2.1-5,11.5,0,14.2,3.6s1.8,8,6,13.6s1.1,7.4-4.2,2.5C352.1,553.7,339.4,544,341.5,538.9z"/>
	<path class="st6" d="M333.2,495c1.1-3.5,9.3,2.1,10.3,5.9c1,3.8-1.2,3.8-5.1,1.2C334.4,499.5,332.3,497.8,333.2,495z"/>
	<path class="st6" d="M424.1,556.5c2.7-4.3,11.9,4.6,18.4,13.5s6.9,12,3.8,13.9c0,0,4.1,10.1,0,11.8s-4.2-11.6-11.4-22.1
		C427.9,563.3,422.1,559.7,424.1,556.5z"/>
	<path class="st7" d="M377,832.7c0,0-4.5-0.7-6.4,3.5c-1.8,4.2-2.1,5.4-7.6,6.4"/>
	<path class="st8" d="M288.8,847.8c1.9-2.2,7.5,5.3,5.6,10.2S285.8,851.3,288.8,847.8z"/>
	<path class="st7" d="M289.7,811.4c0,0,3.6,0.6,3.8,4.4c0,0,3,0.2,2.8,5"/>
	<g>
		<path class="st5" d="M262.9,329.8c0,0,14.9,16.8,10.5,49.8s-27.1,68.3-27.1,68.3s73.3,41.3,121.6-1.5c0,0-12.9-20-19-67.4
			s-1.3-53.6,12.7-58.9c17.3-6.6,45.2-25,62.9-52l-27.1-12.8c0,0-15.4,38.9-55.1,52.1c-39.7,13.2-62.8-7.6-62.8-7.6L262.9,329.8z"/>
		<g>
			<path class="st0" d="M378,294.6c0-3.9,6.3-5.7,10.2-1.2c0,0-0.2,3.8-4.6,4.8C380.2,298.9,378,296.5,378,294.6z"/>
			<path class="st9" d="M380.9,294.9c0,0,4.4,0.7,7.2-1.5"/>
			<path class="st0" d="M389.6,304.1c0,0,1.1,4.6,4.8,5.8c3.6,1.2,7.5-1.6,5.8-5.1C398.4,300.6,391.5,301.8,389.6,304.1z"/>
			<path class="st9" d="M389.6,304.1c0,0,2.5,3.5,7.8,2.7"/>
			<g>
				<path class="st5" d="M389.4,275.1c0,0-2.3,21.8,1.8,41.5"/>
				<path class="st4" d="M389.6,316.9c-4.1-19.7-1.9-41.1-1.8-42l3.2,0.3c0,0.2-2.3,21.8,1.8,41L389.6,316.9z"/>
			</g>
			<g>
				<path class="st5" d="M390.6,313.6c0,0-4.2,2.4-3.7,7.9c0.5,5.4,7.2,5.6,8.1,1.2C396.2,316.9,390.6,313.6,390.6,313.6z"/>
				<path class="st5" d="M390.6,313.6c0,0-0.8,4.8,0.8,9.1"/>
			</g>
		</g>
		<path class="st0" d="M282.6,36.8c1.5-7.7-2.8-15-9.7-16.4c-2.4-0.5-4.8-0.2-7,0.8c-1.7-6.9-8-12-15.4-12c-8.7,0-15.8,7-15.9,15.7
			c-2.5-2.1-5.6-3.3-9.1-3.3c-7.8,0-14.1,6.3-14.1,14.1c0,3,1,5.8,2.6,8.1c-4.5,2.1-7.6,6.4-7.6,11.3c0,6.9,6.1,12.5,13.8,12.7
			c3.2,14.8,15.6,25.9,30.4,25.9c17.2,0,31.2-15.1,31.2-33.6c0-5.6-1.3-10.8-3.5-15.4C280.4,42.7,281.9,40,282.6,36.8z"/>
		<path class="st10" d="M237.3,45.6c1.3-1.3,7.6,7.8,10.8,11.6c2.7,3.2,1.7-7,4.8-12.6c0.5-0.9,1.8-0.7,2,0.3
			c0.2,1.2-0.3,4.1-1.2,7.5c-1.9,6.9,1.3,14.6,5,17.1l-2.9,1.8C255.8,71.2,234.2,48.7,237.3,45.6z"/>
		<path class="st0" d="M494.5,114.2c0-17.5-16.5-31.8-37.2-32.4c0.2-0.8,0.4-1.6,0.6-2.4c3.4-18.5-9.7-36.4-29.3-40
			c-6.6-1.2-13-0.7-18.8,1.3c-3.3-19.6-18.8-35.2-39-37.2c-13-1.3-25.3,3.4-34.3,11.9c-5.4-2.4-11.5-3.7-17.8-3.7
			c-24.5,0-44.3,19.9-44.3,44.3c0,12.5,5.1,23.7,13.4,31.8c-10.9,7.4-17.4,16.5-17.4,26.4c0,24.6,40,44.6,89.4,44.6
			c30.2,0,56.8-7.5,73-18.9c4.2,2.7,9.1,4.7,14.4,5.8c0,0.3-0.1,0.6-0.1,0.9c0,10.1,9.7,18.3,21.7,18.3s21.7-8.2,21.7-18.3
			c0-4.4-1.9-8.4-4.9-11.6C491.1,129.4,494.5,122.1,494.5,114.2z"/>
		<path class="st10" d="M398.8,86c4,0.5-4,29,1,30.4c5,1.3,24.6-8.6,26.5-3.2s-27.5,2.8-29.2,14.3h-5.8
			C391.3,127.5,393.5,85.3,398.8,86z"/>
		<path class="st5" d="M393.1,104.3c0,0-7.8-0.2-10.5-5.9c-2.7-5.9,1.5-8.1,5.2-6.7C390.8,92.9,394.5,98,393.1,104.3z"/>
		<path class="st5" d="M386.8,96.1c0,0,4.4,2.3,6.3,8.2"/>
		<path class="st5" d="M410.8,114c0,0-0.9-7.4,3.2-10.4c4.3-3.1,7.8,0.7,7.1,3.5C420.5,110,417.7,112.8,410.8,114z"/>
		<path class="st5" d="M417,105.7c0,0-4.7,2.7-6.2,8.3"/>
		<path class="st0" d="M525.9,216c-2.6-2.4-5.4-4.4-8.4-5.9c10.5-16.9,9.2-38-4.3-50.4c-13.9-12.8-36-11.9-52.2,1.1
			c-2-5.2-5.1-10-9.4-14c-15.8-14.5-41.4-12.4-57.2,4.8c-11.2,12.2-14.5,28.6-9.8,42.3c-8.2-5.2-17.9-8.2-28.3-8.2
			c-29.2,0-52.8,23.6-52.8,52.8s23.6,52.8,52.8,52.8c12.1,0,23.3-4.1,32.2-10.9c8.4,10.5,20.7,17.7,34.7,19.4
			c8.4,16.1,29.5,27.5,54.1,27.5c32.1,0,58.1-19.3,58.1-43.1c0-5.7-1.5-11.2-4.3-16.2C542.6,251.9,540.6,229.6,525.9,216z"/>
		<g>
			<path class="st5" d="M345.9,250.9c0,0-4.3-3.3-2.4-8.1c2-5.1,9.5-4.7,11.2,0c1.5,4.3-0.5,7.4-3.5,8.9
				C348,253,345.9,250.9,345.9,250.9z"/>
			<g>
				<path class="st5" d="M359,252.7c0,0-4.2,4.3-2,8.5s9.3,4.6,11.4-0.5c2.1-5.2-4.1-9.2-4.1-9.2L359,252.7z"/>
				<path class="st5" d="M362.6,259.3c0,0,1-4.5-1.5-7.2"/>
			</g>
			<path class="st5" d="M349,244c0,0-1.8,4.2-0.4,8.1"/>
			<path class="st5" d="M371.4,248.8c0,0-5.8-1.1-6-6.6s6.5-7,9.4-3.1s0,8.9,0,8.9L371.4,248.8z"/>
			<path class="st5" d="M368.8,241c0,0,3.2,2.2,4,7.4"/>
			<path class="st5" d="M381.9,242.9c0,0,0,3.8,3.7,5.2s6.5-1.6,5.4-4.7c-0.8-2.3-3.6-3.3-6.4-3.1L381.9,242.9z"/>
			<path class="st5" d="M388.3,245.6c0,0-0.8-3.1-5.2-3.9"/>
			<path class="st5" d="M388.7,233.8c0,0,0.3,4.9,5.1,5.9c4.8,1,6.4-4.8,3.4-6.8c-2.9-2-6.9-1.1-6.9-1.1L388.7,233.8z"/>
			<path class="st5" d="M395.2,236c0,0-1.9-2.7-5.9-3.1"/>
			<path class="st5" d="M393.7,225.5c0,0-4.5,1.5-7.2-1.1c-2.7-2.6-1.6-7.7,3.1-7.7c5.2,0,6,5.8,6,5.8L393.7,225.5z"/>
			<path class="st5" d="M389.3,220.2c0,0,3.3,0.8,5.2,4.1"/>
			<g>
				<path class="st4" d="M354.9,254.2c-10.5,0-17.8-3.6-22.3-6.9c-5.8-4.3-8.4-8.9-8.5-9.1l2.8-1.5c0.4,0.7,9.5,17,33.6,14
					c13-1.6,25.3-11,31.3-24c5.8-12.6,4.8-26.3-2.8-37.7l2.7-1.8c8.2,12.3,9.3,27.2,3,40.8c-6.4,13.9-19.7,24.1-33.8,25.8
					C358.8,254.1,356.8,254.2,354.9,254.2z"/>
			</g>
		</g>
		<path class="st10" d="M413.4,154.5c0-19-15-34.5-33.9-35.3c0.5-2.3,0.7-4.6,0.7-7c0-19.5-15.8-35.3-35.3-35.3
			c-6.5,0-12.6,1.8-17.8,4.8c-4.6-18.7-21.5-32.6-41.6-32.6c-17.6,0-32.7,10.6-39.3,25.7c-25.7-18-60.2-13.7-77.6,10
			c-7.9,10.7-11,23.5-9.7,36.1c-3.8-1.1-7.7-1.7-11.8-1.7c-23.7,0-42.9,19.2-42.9,42.9s19.2,42.9,42.9,42.9c7,0,13.5-1.7,19.4-4.6
			c1.2,16.3,9.6,32.5,24.4,43.4c25.8,19,61.1,15,78.8-9.1c1.1-1.5,2.1-3,3-4.6c9.2,9.8,22.3,15.9,36.8,15.9
			c18.6,0,34.8-10,43.6-24.9c5,2.7,10.7,4.2,16.8,4.2c19.5,0,35.3-15.8,35.3-35.3c0-3.8-0.6-7.5-1.7-10.9
			C409.7,172.6,413.4,164,413.4,154.5z"/>
		<path class="st0" d="M341.9,58.4c0,0,0.7-6,5.5-6.9s6.7,4.6,6.7,4.6s2.3-5.7,8.1-5.7c6.7,0,12,5.9,10.2,14"/>
		<path class="st5" d="M185.2,361c0,0-7.3,2-6.8,7.2c0.5,4.8,7.1,4.8,8-0.7C187.2,363.5,185.2,361,185.2,361z"/>
		<path class="st5" d="M180.5,338.5c0,0-14.1,2.8-7.4,15c0,0,5.2,1.4,8-4.5C183.6,343.9,180.5,338.5,180.5,338.5z"/>
		<path class="st5" d="M177.7,343.2c0,0-4.1,3.7-4.6,10.2"/>
		<path class="st5" d="M182.1,367.5c0.5-0.4,2.6-2.3,3.2-6.5"/>
		<path class="st5" d="M193.9,363.1c0,0-3.5-5.1,0-8.7c3.3-3.4,8.1-0.1,6.6,3.7C198.9,362,193.9,363.1,193.9,363.1z"/>
		<path class="st5" d="M196.6,355.9c0,0-2.2,1.7-2.7,7.3"/>
		<path class="st5" d="M262.5,362.1c0,0-6.2-0.9-5.3-7.9c0.8-6,8.3-5.5,9.3-0.6C267.4,357.9,265.4,361.3,262.5,362.1z"/>
		<path class="st5" d="M261.9,353.9c0,0,1.4,5.4,0.7,8.2"/>
		<path class="st0" d="M286.5,356c0,0-1.6,8.8,5.3,9.8s8.4-9,0-11.9L286.5,356z"/>
		<path class="st9" d="M292.8,362.1c0,0-3-1.7-3.7-7.1"/>
		<path class="st9" d="M337.4,327.3c0,0-3.7,13-1.4,30.7"/>
		<path class="st9" d="M330.2,334.5c0,0-0.8,7.1,1.1,12.5"/>
		<path class="st9" d="M283.6,374.5c0,0-0.2,15.9-4.5,26.8"/>
		<path class="st9" d="M279.9,379.1c0,0-0.4,7.2-2.7,12.9"/>
		<path class="st9" d="M346.5,408.3c0,0,2.4,14.5,7.3,19.9"/>
		<path class="st9" d="M329.2,381.1c0,0-0.7,11.6,2,17.9"/>
		<path class="st9" d="M326.2,379.1c0,0-0.7,8.8,0,11.8"/>
		<path class="st0" d="M292.8,348.6c0,0-3.5-1.9-3.7-6c-0.2-4,4.9-5.2,6.9-2.8c2,2.4,1.7,5.8,1.7,5.8L292.8,348.6z"/>
		<path class="st9" d="M292.8,342.7c0,0,2.6,2.2,2.1,5.1"/>
		<path class="st0" d="M311,331c0.5-5.8-4.2-7.1-6.3-6.8c-2.9,0.4-5.3,3.1-4.3,7.1c1.1,4.8,5.3,4.4,5.3,4.4L311,331z"/>
		<path class="st9" d="M304.9,329c0,0,1.5,3.4,3.7,4.1"/>
		<path class="st0" d="M232.3,112.3c0.6-1,5.5-9.3,10.2-11.3c0.5-0.2,1.2,0,1.5,0.4l0,0c0.4,0.5,0.3,1.3-0.2,1.7
			c-1.9,1.6-6.1,5.8-8.4,12.8L232.3,112.3z"/>
		<path class="st0" d="M224.6,97.1c2.6-0.6,8.3,17.6,20,24.2c0,0-7.9,5.3-8.2,4.5S221.3,97.9,224.6,97.1z"/>
		<path class="st0" d="M211.5,114.7c0.3-2.4,12.7,1.5,16.8,5.4c0,0-2.3,3.9-3,3.1C221.4,118.6,211.2,117.3,211.5,114.7z"/>
		<path class="st5" d="M227.1,107c0,0-1.9,4.3-7.2,3.7s-6.5-5.8-3.1-8S225.5,103.5,227.1,107z"/>
		<path class="st5" d="M218.8,106.3c0,0,4.3-1.4,8.2,0.6"/>
		<path class="st0" d="M312.3,166.4c0,0,1.7-8.4,5.1-17.4c2.9-7.8,5.8-12.4,7.6-10.8s-10.3,22-9.4,36.2L312.3,166.4z"/>
		<path class="st5" d="M320.3,154.2c0,0,4.6,2,8.6-1.3c3.8-3.2-0.4-6.6-4-5.1C320.3,149.7,320.3,154.2,320.3,154.2z"/>
		<path class="st5" d="M327.7,149.7c0,0-4.3,0.3-7.4,4.4"/>
		<path class="st5" d="M307.5,151.7c2.4-1.3,9.1,0.9,6.7,10.9c0,0-4.4-0.1-7.3-4.3C305,155.5,305.6,152.7,307.5,151.7z"/>
		<path class="st5" d="M310.2,155.3c0,0,3,2.4,4,7.2"/>
		<g>
			<path class="st10" d="M482.3,172.8c2.4,0.7-4.9,20.7-2.6,21.9c2.2,1.2,12.2-6.5,14.1-3.2c1.9,3.2-17.1,4-15.3,20.2h-5.3
				C473.2,211.6,477.5,171.4,482.3,172.8z"/>
			<path class="st5" d="M470.6,170.7c2.1-2.7,7.9-2.8,9,3.6c1,5.4-0.4,9.1-3.2,8C473.7,181.2,467.2,175,470.6,170.7z"/>
			<path class="st5" d="M474.9,173.2c0,0,3.1,4.5,3.1,9.1"/>
			<path class="st5" d="M487.5,192.5c0,0-1.9-3.6,0-8c2-4.5,6.9-4,7.5-0.7S491.1,191.4,487.5,192.5z"/>
			<path class="st5" d="M491.5,183.9c0,0-2.8,3.1-3.9,8.6"/>
		</g>
		<path class="st10" d="M217.5,136.5c0,0-1.2-10,7-16.7c7-5.8,14.5-0.6,14.3,2.8c0,0,1.9-14.9,17.5-17.9
			c14.1-2.7,22.1,13.2,15.3,22.5"/>
		<path class="st10" d="M284.3,175.7c0,0-2.6-9.8,5-12.7c7.7-2.9,11.5,7.9,11.5,7.9s1.7-8.4,9.6-8.4c7.9,0,11,9.8,12.2,13.2"/>
		<path class="st0" d="M424.4,253.3c0,0,2.3-17,15.5-18.3c14-1.4,16.2,15.6,16.2,15.6"/>
		<path class="st0" d="M448.2,255.4c0,0,10.6-9.7,22-5.4c10.6,4,5.4,21.2-2.6,25.1"/>
		<path class="st0" d="M464.9,208.9c0,0-1-6.8,4.4-7.6c5.3-0.7,6.8,8.3,6.8,8.3s2-5.3,7.7-4.2s6.8,9.3,5.8,13.8"/>
		<g>
			<g>
				<path class="st4" d="M226.7,372.3c-52.1,0-69.3-30.5-70.1-31.9l4.7-2.6c0,0.1,4.9,8.8,17.2,16.6c11.3,7.2,31.5,15.1,63.2,11.7
					c65.8-7,77.6-54.6,77.7-55l5.2,1.2c-0.1,0.5-3.2,13.3-14.9,27c-10.8,12.6-31.2,28.4-67.5,32.2
					C236.8,372,231.6,372.3,226.7,372.3z"/>
			</g>
		</g>
		<g>
			<path class="st0" d="M334,271.7c-5.1-6.2-12.8-9.2-21.1-9.2c4-10,3.1-20.7-3.3-28.5c-7.2-8.6-19.3-11.2-31-7.6
				c2.7-13.5,0.4-26.7-7.8-36.5c-15.9-19.2-48.1-19.1-74.4-0.7c-8.4-11.1-21.6-18.2-36.6-18.2c-18.9,0-35.1,11.4-42.1,27.7
				c-22,1.1-40.6,15.7-43.6,36.1c-1.4,9.6,0.8,19,5.8,27c-3.6,4.1-6.1,9.3-7,15.1c-2.4,16.1,8.7,31,24.8,33.4
				c3.6,0.5,7.1,0.4,10.4-0.3c0.4,1.7,1,3.4,1.7,5.1c10.1,25.7,42.6,36.9,72.4,25.1c8.3-3.3,15.5-8,21.4-13.6
				c8.1,12.7,22.4,21.2,38.6,21.2c19.1,0,35.4-11.7,42.3-28.3c10.8,8.3,28,7.1,41-3.7C340.5,303.6,344.2,283.9,334,271.7z"/>
			<path class="st0" d="M197.7,252.1c0,0,0.5-8.1-7-11.9c-5.9-3-11.8,0-11.8,0"/>
			<path class="st0" d="M233,291c0,0-1.8-6.4,2.7-8.2c4.7-1.9,8.7,4.1,8.7,4.1s-1.3-8.5,4.9-9.5s9.5,7.2,10.7,10.6"/>
			<path class="st10" d="M152.6,201.8c3,0,3.7,18.7,12.6,27.3c0,0-5.2,3.2-6.3,1.9C155.4,226.7,149.4,201.8,152.6,201.8z"/>
			<path class="st5" d="M161.4,226.4c0,0,6.2-1.7,8.1-7.2c1.9-5.5-3.8-9-7.3-6C157.1,217.5,161.4,226.4,161.4,226.4z"/>
			<path class="st5" d="M164.7,217c0,0-2.8,4.6-3.2,9.3"/>
			<path class="st10" d="M171.8,236.9c0,0,3.8-2.4,5.9-7.3c2.2-5.3,4.3-9.2,5.8-7.9c1.8,1.4,0.1,12.5-8.4,21.3
				C167.1,251.4,171.8,236.9,171.8,236.9z"/>
			<path class="st0" d="M118.1,253.7c0,0-2.6-13,9.9-18.3c12.4-5.3,21.5,9.2,21.5,9.2"/>
			<path class="st0" d="M143.4,238.1c0,0,0.5-9.4,9.4-13.1s24.1,3.9,29.7,24.8"/>
		</g>
	</g>
	<g>
		<path class="st11" d="M169.3,488.9c0,0-0.3-169,48.3-182c41.3-11,47,96.2,64.1,158.4c2.5,9.1,2.3,18.6-5.9,23.3
			C253.3,501.2,210.9,517.1,169.3,488.9z"/>
		<path class="st12" d="M200.8,365.9c0,0-0.2,3.4,0.8,6.3"/>
		<path class="st12" d="M204.5,367.2c0,0,0.1,2.4,0.5,4.1"/>
		<path class="st12" d="M207.9,367.4c0,0,0.3,3.9,1.2,5.8"/>
		<path class="st12" d="M191.7,404c0,0-0.1,4.6,0.3,6.1"/>
		<path class="st12" d="M195.8,404.9c0,0-0.1,2.8,0.3,4.5"/>
		<path class="st12" d="M200,404.9c0,0,0,4,0.8,6.8"/>
		<path class="st12" d="M220,417c0,0,0.1,4.7,0.9,6.4"/>
		<path class="st12" d="M223.4,417c0,0,0.3,4.4,1,6"/>
		<path class="st12" d="M225.9,417c0,0,0.2,3.6,0.6,5.1"/>
		<path class="st12" d="M213,323.2c0,0,0.1,4.4,0.8,6.4"/>
		<path class="st12" d="M216.3,322.8c0,0-0.2,3.7,0.6,5.8"/>
	</g>
	<g>
		<path class="st11" d="M312.1,410.4c10.2,0.2,15.5,13.2,17.3,23.4c1.8,10.2-12.2,7.5-21.6,7.5c-9.4,0-17.6,2.3-18.5-4.4
			S298.3,410.1,312.1,410.4z"/>
		<path class="st5" d="M302.9,418.1c2.3,0.1,0.6,5.6-1.6,5.6S300.9,418,302.9,418.1z"/>
		<path class="st5" d="M302.6,428.5c0.8,0.9,2.9,0.1,4.2-2.1s1.1-3.4,0.4-3.7c-0.9-0.4-2.1,0.8-3.2,2.2
			C302.8,426.3,302.1,427.9,302.6,428.5z"/>
		
			<ellipse transform="matrix(0.6114 -0.7913 0.7913 0.6114 -224.8388 401.44)" class="st5" cx="296.3" cy="429.6" rx="3.6" ry="2.1"/>
	</g>
	<g>
		<path class="st13" d="M350.4,478.7c-9.9-4.7-15.1-15.6-12.7-26.3c5.8-25.5,18.5-75.1,37.2-113.3c26.3-53.9,51.7-67.8,72.2-43.1
			c20.5,24.7,37.4,121,42,186.2C489.1,482.2,411,507.3,350.4,478.7z"/>
		<path class="st14" d="M418.7,302.3c0,0-0.4,3.9,0,5"/>
		<path class="st14" d="M415.5,303.1c0,0-0.4,2.2,0,3.5"/>
		<path class="st14" d="M413.4,302.3c0,0-1.2,3.5-0.7,5.9"/>
		<path class="st14" d="M377.2,388.8c0,0,0,7.1,1,9.8"/>
		<path class="st14" d="M382.1,388.8c0,0,0.2,5,1.3,7.6"/>
		<path class="st14" d="M387,390.5c0,0,0.1,4,1.1,6.6"/>
	</g>
	<path class="st11" d="M11,671.8c-7.4-9.8-2.1-28.3,25-30.1s51.6,6.6,46.8,25.9C78,687,53.6,676.8,41.7,678S18.5,681.6,11,671.8z"/>
	<path class="st12" d="M23.5,644.1c0,0,13.4,0.8,19.2,13.1c0,0-22.3,0.5-29.4,17.1"/>
	<path class="st12" d="M77.9,650.9c0,0-22.6-3.1-35.3,6.2c3.2-10.8,13.8-14.8,13.8-14.8"/>
	<path class="st12" d="M75.7,677.4c0,0-9.3-18.6-33.1-20.3c0,0,11.4,4.8,13.8,21.9"/>
	<g>
		<path class="st11" d="M41.4,598.3c-3.8-12.8,13.4-22.3,26.4-25.2c12.2-2.8,37.3-1.1,35.9,12.6s-14,20.3-27.1,22.4
			S45.3,611.5,41.4,598.3z"/>
		<path class="st12" d="M53.4,578.7c0,0,15.7-0.9,18.9,8.3c0,0-18,6.2-19.9,21.3"/>
		<path class="st12" d="M102.6,590.7c0,0-14.9-7.3-30.3-3.8c0,0,1-11.9,15.9-14.3"/>
		<path class="st12" d="M80,607.5c0,0,1.9-13.2-7.7-20.5"/>
	</g>
	<g>
		<path class="st15" d="M241.4,430.9c0,0-3.4-12.6,4.8-28.1s15.3-17.8,18.7-38.7"/>
		<path class="st16" d="M264.9,364c0,0,15.7,0.7,16.8-12.9s-8.4-26.3-8.4-26.3s-4.7,4.4-10.9,9.3C254,340.8,246.7,355.2,264.9,364z"
			/>
		<path class="st15" d="M271.8,335.8c0,0,1.6,13.4-5,23.4"/>
		<path class="st15" d="M239,389.8c0,0,4.8-3.4,7.7-1.2c3.1,2.3,1.1,11.2,1.1,11.2"/>
		<path class="st15" d="M256.7,386.4c0,0,11-9.2,19.2-6"/>
		<g>
			<path class="st16" d="M275.7,380.2c0,0-2.3,12.8,9,15.8s17.7-6.3,20.1-11.3c0,0-5.2-0.3-8.6-5.3
				C292.7,374.6,283.5,371,275.7,380.2z"/>
			<path class="st15" d="M278.9,381.5c0,0,4-1.5,7.1,1.3s5.4,5,11.3,3.4"/>
		</g>
		<g>
			<path class="st16" d="M214.2,405.3c0,0,7.2-2.9,13.9,1.9c6.8,4.8,14.8-1.5,14.1-8.8c-0.6-7.3-6-15.7-13.2-13.3
				C218.9,388.5,214.2,405.3,214.2,405.3z"/>
			<path class="st15" d="M224,400.5c0,0,3.7-8.5,12.1-8.9"/>
		</g>
		<g>
			<path class="st16" d="M257.4,405.3c0,0-1.2,7.1,6,8.7c4.8,1.1,6.7,3.1,7.4,4.2c0.2,0.3,0.6,0.2,0.7-0.1c0.9-2.6,2.6-9.7-2.8-13.8
				C263.2,400.1,259,403.5,257.4,405.3z"/>
			<path class="st15" d="M268.7,411.4c0,0-2.5-6.6-11.3-6.1"/>
		</g>
		<path class="st15" d="M244.2,407.1c0,0,7.8-5.6,13.3-2"/>
	</g>
	<g>
		<path class="st11" d="M382,651.9c-1.6-5.2-0.1-12.5,3.3-18.3c5.9-10.1,13.5-15.1,22-15.9c9.6-0.9,15.6-1.6,29.1-11.7
			c13.5-10.1,32.3-2.7,35.4,12.8s11.9,17.9,5.8,32.3c-6.1,14.4-37.5,0.8-55.5,3.8C404.1,658,385.8,664.4,382,651.9z"/>
		<path class="st5" d="M442.6,610.5c1.9,1.2-0.6,6-4,6.4c-2.4,0.3-2.2-2-0.1-4.5C439.7,610.9,441.4,609.7,442.6,610.5z"/>
		<path class="st5" d="M404.2,623.9c2.7,2.3-3.5,7.9-6.3,6.4C395.1,628.8,401.5,621.6,404.2,623.9z"/>
		<circle class="st5" cx="410.9" cy="624.3" r="1.9"/>
		
			<ellipse transform="matrix(0.3822 -0.9241 0.9241 0.3822 -286.0266 793.7266)" class="st5" cx="450.6" cy="610.8" rx="3.6" ry="3"/>
		
			<ellipse transform="matrix(0.6015 -0.7989 0.7989 0.6015 -312.5197 610.4689)" class="st5" cx="455.6" cy="618.5" rx="2.9" ry="2.1"/>
		<g>
			<path class="st11" d="M363,665.4c-2.7,3.2-1.7,9.4,3.8,10c9.9,1.2,15.4-1.4,28.2,0.8c12.8,2.2,24.1-1,21.4-14s-13.2-23-22.7-25
				c-9.4-2-20,1.4-24,11.4C367.3,654.8,367.9,659.7,363,665.4z"/>
			<path class="st5" d="M376.8,653.7c2.1,1,0.8,6.4-2.7,8.2s-4.5-1.5-2.8-4.5S374.9,652.8,376.8,653.7z"/>
			<path class="st5" d="M386.9,647.9c2.5,0.6-0.3,8.3-3.1,7.5S384.4,647.2,386.9,647.9z"/>
			<path class="st5" d="M379.7,644.8c1.2,0.7-1,5-2.4,4.1C375.9,648,378.5,644.1,379.7,644.8z"/>
		</g>
	</g>
	<path class="st11" d="M295.4,700.2c6-1.7,15,8.1,15,17.7s-12,11-23.5,8.3C275.2,723.5,279.9,704.6,295.4,700.2z"/>
	<path class="st5" d="M289.1,711.5c2.1,0.8-1.7,8.3-3.1,7.8C283.7,718.6,287,710.7,289.1,711.5z"/>
	<path class="st5" d="M295,705.8c1.3,0.6,0,4.7-1.8,4S293.1,704.9,295,705.8z"/>
	<path class="st5" d="M299.3,707.4c0.9,1.1,3.1-0.6,2.6-2c-0.4-1.1-2-0.8-2.6,0C298.7,706.1,298.8,706.9,299.3,707.4z"/>
	<path class="st0" d="M103.1,600.2c3.2-9.3,16.8-7.5,25.2-8.9s21-3.2,28.2,5.2s5.1,21-11.2,27.2C118,634.2,98.3,614,103.1,600.2z"/>
	<path class="st17" d="M140.4,625.3c0.7-13.4-7.7-20-7.7-20s-15.9,1.6-21.1,15.3"/>
	<path class="st17" d="M114.3,592.7c0,0,14.7,2.1,18.4,12.6c0,0,4.5-11.3,17.2-13.5"/>
	<path class="st17" d="M159.6,611.1c0,0-15.5-9.8-26.9-5.9"/>
	<g>
		<g>
			<path class="st0" d="M193,587.2c1.5,8.2,6.6,11.3,9.1,12.3c-2.3-10.6-4.6-20.6-6.5-27.2C194.1,574.2,191.5,579,193,587.2z"/>
			<path class="st0" d="M175,612.2c-1.6,15.7-0.8,20.9-3.8,21.3c-3.4,0.5-12.6-12.2-17.5-27.2c-0.3-0.9-1.5-0.7-1.6,0.2
				c-0.3,4.6,0.2,13.7,5.9,27c8.6,20.3,27.1,19.3,27.1,19.3s2.1,0.2,5.2,0.4C190.4,622.4,179.7,614.3,175,612.2z"/>
			<path class="st4" d="M211.7,647.5c0,0-4.7-25.3-9.6-48c-2.5-1-7.5-4.1-9.1-12.3c-1.5-8.2,1.1-13,2.6-14.9
				c-0.7-2.4-1.8-5.4-2.3-6.7l-9.6,0.6c0,0-3.8,9.3-7.3,34.3c-0.6,4.4-1.1,8.3-1.4,11.7c4.7,2,15.4,10.1,15.1,41
				c7.7,0.5,21.2,1,21.3-1.5c0,0,7.4,0.2,7.5-1.5C219.1,647.6,211.7,647.5,211.7,647.5z"/>
		</g>
		<path class="st4" d="M193,535.9c1.9,0.1,3.6,19.4,3.6,19.4l-8.2-0.3C188.3,554.9,190.5,535.8,193,535.9z"/>
		<path class="st12" d="M186.1,614c0,0,20.2-3.5,18.7,34.6c0,0,7-0.5,6.7,3.2"/>
		<path class="st4" d="M185.5,534.8c1.9,0.1,3,12,3.3,15.9c0.1,0.7,0.6,1.2,1.3,1.4c1.3,0.4,3.2,0.3,5.9,0.1
			c5.4-0.4,11.3-0.1,11.2,2.1c-0.1,3-9.5,13.6-18.6,13.2c-8.9-0.4-10.3-6-8.6-14.5C181.6,545.3,183.3,534.7,185.5,534.8z"/>
		<circle cx="190.1" cy="556.5" r="1.1"/>
		<circle class="st0" cx="207.2" cy="553.6" r="1.8"/>
	</g>
	<g>
		<path class="st0" d="M59.2,608.4c6.2-4.8,24.7-11,37.1-0.6c12.4,10.4,5.6,32-9.3,33.7c-15,1.6-17.6,9.9-27.8,6.4
			C48.9,644.2,41,622.5,59.2,608.4z"/>
		<path class="st17" d="M89.3,641c-1.6-10.6-15.8-17.8-15.8-17.8s-8.2,9.6-2.3,23.4"/>
		<path class="st17" d="M50.3,638.5c0,0,1.6-9.7,23.2-15.4c13.7-7.1,29.1,1,29.1,1"/>
		<path class="st17" d="M59.2,608.4c0,0,11.4,0.3,14.3,14.8c0,0,0.4-13.1,15.8-19.4"/>
	</g>
	<g>
		<path class="st4" d="M333.9,454.8c0,0-6.3,7.5,4.4,12s31.1,2.7,31.1,2.7s8.7,5.3,16.5-2.7c0,0,29.9,0.6,22.9-28.3
			c0,0,2.9-12.6-9.2-14.7c0,0-3.9-16.7-17.2-8c0,0-2.5-6.8-11.4-7s-10.3,7.5-10.3,7.5s-8.9-3.5-15.2,1.2c-7.3,5.5-4.5,14.1-4,18.1
			c0,0-8.9,0-10.8,7.5C328.8,450.7,333.9,454.8,333.9,454.8z"/>
		<path class="st12" d="M351.9,451.3c0,0,9.2,11.1,10.3,42.2"/>
		<path class="st12" d="M348,455.8c0.4,0.9,2.2,18.4,13.1,23.8"/>
		<path class="st12" d="M352.6,439.4c0,0-1.4-2.8,0-3.7c1.4-0.9,2.6,1.1,2.6,1.1s-0.4-4.4,1.9-4.3c2.3,0.1,2.6,4.4,2.6,4.4"/>
		<path class="st12" d="M381.8,431.2c0,0,3.6-4,5.3-2.5c1.2,1.1-1.1,5.2-1.1,5.2s2.1-3.4,4-2.3c1.9,1.2-1.9,6.5-1.9,6.5"/>
		<path class="st12" d="M365.9,451.3c0,0,4.6,13.8,4.1,44.1"/>
		<path class="st12" d="M361,452.7c0,0,2.3,28.1,9,29.8"/>
		<path class="st12" d="M374,452.7c0,0-1,18,3.3,19.8"/>
		<path class="st12" d="M379.4,453.6c0,0-3.6,24.8-3,39.9"/>
		<path class="st12" d="M385.2,497.4c0,0,4.5-33.8,0-45.5"/>
	</g>
	<g>
		<path class="st11" d="M201.4,677.5c2-4.4,8.2-11.7,16.6-9.8c8.3,1.9,11.6,1.3,14.8,4.4c3.1,3,5.2,6.5,8.3,8.3
			c3.1,1.7,0.9,8.4-5.5,8.5s-14.7,5.1-23.7,2.5C202.9,688.7,198.3,684.3,201.4,677.5z"/>
		<path class="st5" d="M219.6,672.6c0.3-1.2,4-0.5,4.5,1.2s-2.8,1.1-3.8,0.3C219.3,673.4,219.6,672.6,219.6,672.6z"/>
		<path class="st5" d="M229.3,674.8c1-0.5,4.2,2.3,5.1,4.7c0.9,2.4-1.5,1.9-3.8-0.7C228.6,676.5,228.5,675.2,229.3,674.8z"/>
		<path class="st5" d="M227.1,679.6c0.7-0.6,3.4,1.2,4.3,3.1c0.9,1.9,0.2,2.4-0.7,2S226.1,680.4,227.1,679.6z"/>
	</g>
	<g>
		<path class="st11" d="M145.9,691.9c-7-5.1-3.4-12.6,0.7-22.4c4.1-9.8,12.2-20.7,27.2-20.7s25.2,8.9,28.4,17.4s4.1,15.2,11.8,18.4
			c7.7,3.1,5.7,15.7-12.6,14.7s-27.2-5.9-34.1-6.3C160.4,692.7,151.2,695.8,145.9,691.9z"/>
		
			<ellipse transform="matrix(0.2549 -0.967 0.967 0.2549 -532.723 648.2386)" class="st5" cx="154.3" cy="669.8" rx="3.1" ry="1.5"/>
		<path class="st5" d="M194.6,667.4c1.6-1.3,10.1,11.4,8.1,12.4C199.7,681.2,193.5,668.2,194.6,667.4z"/>
		<path class="st5" d="M185.8,666.5c1.8-1.6,4.4,3,5.1,4.8c0.5,1.2-0.4,2.7-2.5,0.7S184.9,667.4,185.8,666.5z"/>
		<path class="st5" d="M186.4,659.7c0.5-1.4,4.4-0.4,4.9,2.1s-1.7,2.1-3,1.1C186.9,661.8,186,660.7,186.4,659.7z"/>
	</g>
	<path class="st11" d="M355.7,717.3c1.7-11.8,17.3-12,24.7-9.2s16.7-8.2,26.6-7.8c12.2,0.5,16.9,6.2,22.5,13.2s8.2,16-4.5,20.1
		c-12.7,4-22.8,6.1-28.3,16.8s-22.2,12.4-23.9,2.4c-1.7-10.1-1.5-12-6.4-15.8C361.7,733,354.7,724.6,355.7,717.3z"/>
	<path class="st0" d="M226.5,454.3c0,0,12.6-3.2,17.2,4.9c4.5,8-6.8,10.3-6.8,10.3s-4.6,21.3-32.8,16.9c0,0-17.4,12.9-31.4,0.6
		c0,0-15.8,4.5-17.4-11.4c0,0-9.7-9.8,2.6-23.5c0,0-3.9-9.8,5.8-11.6c0,0-0.3-8.7,8.4-7.4c0,0,0-10,8.2-10.8s9.3,8.7,9.3,8.7
		s6.3-6.3,12.7-4.4c6.4,1.8,9.3,6.8,9.5,10.8c0,0,8.4-1.8,12.4,4.7C228.3,448.5,226.5,454.3,226.5,454.3z"/>
	<path class="st12" d="M182.8,457.2c0,0-0.7-7.4,4.6-8.5c5.4-1.2,6.1,7.2,6.1,7.2s3-8.2,9.6-6.2c6.5,2,3.6,11.7,3.6,11.7"/>
	<path class="st12" d="M218.8,462.9c1-0.9,4.5-2.7,6.5-1s0,4.8,0,4.8s3.6-0.8,4,1s-1.9,2.7-1.9,2.7"/>
	<path class="st12" d="M173.4,469.2c0,0,0.9,4.3,5.1,4.3c4.3,0,5.8-4.3,5.8-4.3"/>
	<path class="st12" d="M197.2,475.4c0,0,4.3,37.8,10.1,55.7"/>
	<path class="st12" d="M204.8,476.5c0,0,3.1,23.6-2.4,34.1"/>
	<path class="st12" d="M186.7,476.5c0,0,9.5,25.2,10.5,58.1"/>
	<path class="st12" d="M214.9,472.1c0,0-3.5,33.7,2.3,61.8"/>
	<path class="st12" d="M224.1,473.1c0,0-1.3,16.9-10.3,28.7"/>
	<path class="st12" d="M173.4,478.5c0,0,11.9,20.2,15.1,52.2"/>
	<path class="st0" d="M87.5,504.6c0,0-13,10.3-6,23.6s36.5,4.1,40.2-4.8c0,0,15.9,12.3,45,2.8c0,0,13.6,3.6,19.9-4.2
		s-2.5-13.2-10.6-13.8c0,0,14-6.3,9.6-20.9c-4.4-14.6-22.2-10.9-22.2-10.9s7.6-12.4,1.3-22.7c-6.3-10.3-26-13.8-40.3-5.3
		c-14.4,8.6-16,17.3-16,17.3s-19.7,3.9-26.3,18.5C75.5,499.1,87.5,504.6,87.5,504.6z"/>
	<path class="st12" d="M138.3,476.5c0,0,4,2.4,1,8.5c0,0,5.9-3.7,8.3,0c2.4,3.7-1.3,8.8-5.4,10.3"/>
	<path class="st12" d="M137.5,457.2c0,0,6.7-3.3,5.9,3.7c0,0,4.1-3.4,6.3,0s-3.2,5.7-3.2,5.7"/>
	<path class="st12" d="M149.9,498.2c0,0-6.9,39.3-3.5,66.4"/>
	<path class="st12" d="M161.3,508.3c0,0-5.2,19.5-15.7,31.2"/>
	<path class="st12" d="M131.4,497.1c0,0-2.8,46.2,1.9,64.8"/>
	<path class="st12" d="M124.8,492.2c0,0-1.4,18.8,5.9,23.2"/>
	<path class="st12" d="M111.9,497.1c0,0,8.9,41.8,8.8,64.8"/>
	<path class="st12" d="M106.8,501.7c0,0,2.6,16.1,9,16.1"/>
	<g>
		<path class="st10" d="M350.2,513.9c1.9-4.2,3.6-7.9,8.4-5.2c4.8,2.7,9.9,8.9,6.2,10.8c-3.7,1.9-8.8,2.7-13.5,4
			S349,516.5,350.2,513.9z"/>
		<g>
			<path class="st10" d="M370.4,499.4c8.8-0.9,14.6,9.5,16.4,14.2c1.8,4.7,1,12.6-5.7,13.4c-6.7,0.8-23.1,4.5-24.7-4.5
				C354.9,513.6,363.1,500.2,370.4,499.4z"/>
			<circle class="st5" cx="369.8" cy="504.7" r="1.1"/>
			<path class="st5" d="M365.8,508.7c1.7,0.4,0.3,6.4-1.4,6.8s-1.7-2.2-1.1-4.1C364,509.5,365.1,508.5,365.8,508.7z"/>
		</g>
	</g>
	<g>
		<path class="st0" d="M380.1,448.3c0,0-4.7,4.1-1.8,7.7c2.9,3.7,8.4,2.7,8.4,2.7s10.9,14.2,33.1,3.1c0,0,26.7,13.8,48.4-3.1
			c0,0,18.6,2.9,28.7-1s8.8-7.8,5.2-9.4c0,0,21.7-9.3,5.5-26c0,0,4.6-17.7-15.4-22.1c0,0-0.1-21.2-22.1-20.7c0,0-12.5-14.5-29-0.4
			c0,0-23.7-7.2-31.8,18.5c0,0-21.7,1.7-19.4,21.8C389.7,419.4,367.6,426.5,380.1,448.3z"/>
		<path class="st12" d="M462.5,414.4c0,0,2-4.1,5.4-2.9c3.4,1.1,1.8,4.7,1.8,4.7s5.2-1.8,6.2,1.6s-2.4,7.1-6.7,7.6"/>
		<path class="st12" d="M427.1,409.8c0,0-3.7-3.1-6.3-1.1c-2.6,2,0.9,5.9,0.9,5.9s-8.8-1.1-8.9,3.8c0,4,7.1,3.9,7.1,3.9"/>
		<path class="st12" d="M406.7,441.1c0,0,15.5,24.8,16.5,79.7"/>
		<path class="st12" d="M401.2,447.9c0,0,8.4,30,18.6,34.9"/>
		<path class="st12" d="M426.1,444c0,0,1.7,45,8.2,73.8"/>
		<path class="st12" d="M432.6,450.3c0,0,2.1,21.7-4.1,28.8"/>
		<path class="st12" d="M441.5,442.8c0,0-3.9,19.1,7.7,41.4"/>
		<path class="st12" d="M449.3,442.8c0,0-3.1,43,4.6,78"/>
		<path class="st12" d="M465.3,445.9c0,0-1.1,20.8,4.3,36"/>
		<path class="st12" d="M479.8,445.9c0,0-16.7,41.3-12.6,77.6"/>
		<path class="st12" d="M487.4,432.5c0,0,2.1-2.5,3.6-1.2s0,3,0,3s3.4-0.3,4.1,1.8c0.7,2.2-0.7,4.6-3.9,5"/>
	</g>
	<path class="st11" d="M457.9,747.5c0,0,2.8,5.6,1.4,14.6c-0.3,1.7,1.6,2.8,2.9,1.8l0,0c0.4-0.3,0.6-0.7,0.7-1.1
		c0.6-2.8,2.4-13.3-2.5-19.6L457.9,747.5z"/>
	<path class="st11" d="M505.1,756.6L505.1,756.6c1.4,0.5,3-0.2,3.4-1.7c2.6-9.5,11.1-40.6,11.1-40.6l-3.2-0.5l-12.8,39.7
		C503.2,754.7,503.8,756.1,505.1,756.6z"/>
	<path class="st11" d="M530.6,722.9c0,0-27.9,10.8-42.1,31.2c-0.6,0.9-0.1,2.2,0.9,2.6l0,0c0.7,0.3,1.5,0.1,2-0.5
		c3.5-4,19.2-22.6,39.2-29V722.9z"/>
	<g>
		<path class="st18" d="M162.7,338.8c0,0,30.2,19.4,26.3,64.6"/>
		<path class="st19" d="M159.9,346.4c1.6-4.7,11.9-0.6,14,3.2c0,0-2.2,3.6-8.5,2.1C160.9,350.6,159.3,348.2,159.9,346.4z"/>
		<path class="st19" d="M172.4,335.6c3-1,5,6.2,1.7,14c0,0-3.4-2.5-4.2-7.7C169.3,338.2,170.9,336.2,172.4,335.6z"/>
		<path class="st19" d="M170,358c3.3-3,11.1,1.6,12.4,5.5c0,0-2.9,3-7.8,1.7C169.8,364,168,359.8,170,358z"/>
		<path class="st19" d="M186.3,349.6c3.7,0.6,2.8,12.4-3.6,13.8c0,0-3-3.3-1.3-8.6C182.7,350.3,184.7,349.3,186.3,349.6z"/>
		<path class="st19" d="M195.2,370.1c2.9,0.9,1.1,12.2-6.7,12.8c0,0-1.8-3.8,0.9-8.7C191.8,370,194,369.7,195.2,370.1z"/>
		<path class="st19" d="M177.7,376.9c1.2-2.6,5-1.7,6.9-0.3c1.9,1.4,3.8,3.7,3.5,6.5c0,0-3,1.5-6.8-0.1
			C177.5,381.3,177,378.3,177.7,376.9z"/>
		<g>
			<path class="st20" d="M154.6,325.8c-3.2-0.9-6.2,1.8-5.6,5.1c0.4,2.4,1.6,5.2,4.3,7.5c1.9,1.6,4,2.1,6,2.1c3,0.1,5.2-2.8,4.4-5.7
				c-0.6-1.9-1.7-4.1-3.7-5.9C158.2,327.3,156.3,326.4,154.6,325.8z"/>
			<path class="st18" d="M150.8,326.5c0,0,9.2,3.1,12.5,11.7"/>
			<path class="st18" d="M149.4,328.1c0,0,4,9.4,12.3,11.8"/>
		</g>
	</g>
	<g>
		<path class="st5" d="M378.4,525c3.2-2.8,9.6,2.7,12.4,8.8c2,4.4,1.6,12.8-4.8,8.6C379.6,538.2,374.5,528.4,378.4,525z"/>
		<path class="st12" d="M380.3,524.3c0,0,6.8,13.4,11.1,17.4"/>
		<path class="st12" d="M377.4,526.1c0,0,5.5,12.2,12.8,17.1"/>
		<path class="st12" d="M415.9,621.7c2.5-44.2-25.1-79-25.1-79"/>
		<path class="st0" d="M399.5,575.9c1.2,2.2,3.6,5,7.9,5.5c1.5,0.2,2.7-1.3,2.1-2.7c-1-2.3-3.2-5.3-8.1-5.7
			C399.8,572.8,398.7,574.5,399.5,575.9z"/>
		<path class="st0" d="M386.6,550.8c1.6,2.4,4.5,5.3,9.3,4.5c1.3-0.2,2-1.8,1.2-2.8c-1.4-1.9-4.1-4.4-9-4.5
			C386.7,547.9,385.8,549.5,386.6,550.8z"/>
		<path class="st0" d="M406.1,553.3c-1.4,2.9-3,7.3-2,11.7c0.3,1.6,2.4,2,3.3,0.7c1.8-2.6,3.9-6.9,2.1-12.1
			C409,552,406.9,551.8,406.1,553.3z"/>
		<path class="st0" d="M393,563.4c2,2.4,5.6,5.6,10.1,4.4c1.1-0.3,1.6-1.7,1-2.7c-1.2-2.1-4-5-9.7-4.7
			C392.8,560.5,392,562.2,393,563.4z"/>
		<path class="st0" d="M403.6,588.6c1.4,2.7,4,6.4,7.9,6.9c1.2,0.2,2.2-0.9,2-2.1c-0.4-2.3-1.9-6-7.8-7.4
			C404.1,585.6,402.8,587.2,403.6,588.6z"/>
		<path class="st0" d="M417.6,585.1c-1.7,1.6-3.7,4.2-3.8,7.8c0,1.5,1.7,2.4,2.9,1.6c1.9-1.4,4.2-3.9,3.9-8.2
			C420.5,584.8,418.7,584,417.6,585.1z"/>
		<path class="st0" d="M411.8,567.7c-1.6,2.3-3.4,6.3-2.2,11c0.4,1.4,2.1,1.9,3.1,0.8c2-2.1,4.3-6,2.3-11.4
			C414.5,566.7,412.6,566.5,411.8,567.7z"/>
		<path class="st0" d="M403,541.1c0.7,2.9,1,7.6-2.7,11.4c-1,1.1-2.8,0.7-3.4-0.7c-1.2-2.8-2.2-7.7,2.7-11.9
			C400.8,538.9,402.7,539.5,403,541.1z"/>
	</g>
	<g>
		<path class="st12" d="M381.5,586.5c0,0,16.6,14.2,18.3,36.4"/>
		<path class="st5" d="M377.4,577.9c2.5,0.4,5.2,3.5,4.7,7.5c-0.1,1.1-1.2,2-2.3,1.8c-1.2-0.2-2.9-0.8-4.4-3
			c-1.2-1.8-1.4-3.2-1.1-4.2C374.7,578.7,376,577.7,377.4,577.9z"/>
		<path class="st12" d="M375.8,578.1c0,0,4.4,2.3,6.2,7.9"/>
		<path class="st12" d="M374.7,579.1c0,0,1.2,5.2,6.5,7.8"/>
		<path class="st0" d="M377.5,591.7c0.9-2.7,7.9-1.9,9.9,1.7c0.7,1.2,0.1,3.4-4.7,2.7C377.5,595.2,377.2,592.8,377.5,591.7z"/>
		<path class="st0" d="M389.2,583.2c1.6,0,2.6,2,2.4,5.2c-0.3,3.1-1.6,5-2.9,5c-1.4,0-2.8-2.7-2.3-6.2
			C386.7,584.1,388.2,583.2,389.2,583.2z"/>
		<path class="st0" d="M384.8,602.4c0.3-1.8,3.3-1.9,5.1-1.6c1.8,0.3,4.2,1.5,4,3s-2.5,2.2-5.4,1.6S384.7,603.6,384.8,602.4z"/>
		<path class="st0" d="M395.2,592.6c2.5-0.3,3,4.1,3,6.1c0.1,2-0.5,4.9-2.1,5.2s-3.3-2.2-3.3-5.3S393.7,592.7,395.2,592.6z"/>
		<path class="st0" d="M401.9,606.5c1.8,0.5,0.9,4.4,0.2,5.8c-0.7,1.4-1.3,2.3-2.8,2.3s-1.3-2.7-0.3-4.6
			C399.8,608,400.8,606.2,401.9,606.5z"/>
		<path class="st0" d="M391.1,613.5c0.2-1.6,3.2-1.2,3.9-1.1c0.7,0.1,3.5,0.7,3.2,2.1c-0.3,1.4-2.7,1.2-4.4,0.9
			S390.9,614.7,391.1,613.5z"/>
	</g>
	<g>
		<path class="st20" d="M121,349c1.8-3.3,8.8-0.6,13,3.6c3,3.1,5.2,10.2-1.4,8.6C126,359.7,118.8,353.1,121,349z"/>
		<path class="st18" d="M122.4,347.9c0,0,9.7,9.1,14.5,11.1"/>
		<path class="st18" d="M120.5,350.2c0,0,8.3,8.5,15.9,10.4"/>
		<path class="st18" d="M181.5,418.3c-11.3-37.6-44.8-58.3-44.8-58.3"/>
		<path class="st19" d="M154,385.1c1.7,1.5,4.5,3.1,8.3,2.2c1.3-0.3,1.9-1.9,0.9-2.9c-1.5-1.6-4.2-3.4-8.5-2.3
			C153.4,382.4,152.9,384.1,154,385.1z"/>
		<path class="st19" d="M135.7,368c2,1.5,5.4,3.1,9.1,0.9c1-0.6,1.2-2.1,0.2-2.7c-1.7-1.2-4.8-2.4-8.9-1
			C134.9,365.6,134.6,367.2,135.7,368z"/>
		<path class="st19" d="M152.7,364.2c-0.3,2.8-0.3,7,1.8,10.3c0.8,1.2,2.6,1,3-0.4c0.7-2.7,1.1-6.9-1.9-10.7
			C154.7,362.2,152.9,362.7,152.7,364.2z"/>
		<path class="st19" d="M144.8,376.6c2.4,1.4,6.4,3,9.7,0.6c0.9-0.6,0.8-1.9,0-2.5c-1.7-1.3-4.9-3-9.5-0.9
			C143.8,374.3,143.6,375.9,144.8,376.6z"/>
		<path class="st19" d="M161.2,394.4c2,1.9,5.3,4.1,8.7,3.4c1-0.2,1.5-1.4,1-2.4c-1-1.8-3.4-4.4-8.8-3.8
			C160.8,391.8,160.2,393.5,161.2,394.4z"/>
		<path class="st19" d="M171.9,387.3c-0.9,1.9-1.8,4.6-0.8,7.7c0.4,1.3,2.1,1.5,2.9,0.4c1.2-1.7,2.3-4.5,0.8-8
			C174.2,386.1,172.5,386.1,171.9,387.3z"/>
		<path class="st19" d="M161.8,374.6c-0.6,2.4-0.9,6.2,1.5,9.8c0.7,1.1,2.3,0.9,2.8-0.2c1-2.4,1.8-6.3-1.5-10.2
			C163.8,372.9,162.1,373.3,161.8,374.6z"/>
		<path class="st19" d="M146.4,355c1.5,2.2,3.1,6,1.2,10.3c-0.5,1.2-2.2,1.4-3.1,0.5c-1.9-2-4.1-5.7-1.3-10.7
			C143.9,353.9,145.7,353.8,146.4,355z"/>
	</g>
	<line class="st12" x1="91.8" y1="698.4" x2="93.7" y2="705"/>
	<line class="st12" x1="95.7" y1="696.7" x2="96.6" y2="703.7"/>
	<line class="st12" x1="100.6" y1="696.1" x2="100.6" y2="702.2"/>
	<line class="st12" x1="106.3" y1="695.5" x2="106.3" y2="700.2"/>
	<g>
		<line class="st12" x1="70.4" y1="717.3" x2="71.4" y2="723.8"/>
		<line class="st12" x1="74" y1="717.3" x2="75.1" y2="722.9"/>
		<line class="st12" x1="78" y1="718.2" x2="78.7" y2="722.9"/>
		<line class="st12" x1="83.8" y1="717.3" x2="83.8" y2="722.9"/>
	</g>
	<line class="st12" x1="238.1" y1="645.7" x2="238.9" y2="651.4"/>
	<line class="st12" x1="241.9" y1="645.7" x2="242.4" y2="650.7"/>
	<line class="st12" x1="247.1" y1="646.8" x2="247.1" y2="650.7"/>
	<line class="st12" x1="252.2" y1="647.8" x2="252.2" y2="653.8"/>
	<line class="st12" x1="151.9" y1="577.7" x2="153.4" y2="584.3"/>
	<line class="st12" x1="157.1" y1="576.3" x2="158" y2="583.2"/>
	<line class="st12" x1="162" y1="576.3" x2="162.6" y2="581.1"/>
	<line class="st12" x1="166.7" y1="576.3" x2="166.7" y2="581"/>
	<line class="st12" x1="220.7" y1="564.7" x2="220.7" y2="572.3"/>
	<line class="st12" x1="225.1" y1="566.4" x2="225.1" y2="570.2"/>
	<line class="st12" x1="229.8" y1="564.7" x2="229.8" y2="568.3"/>
	<line class="st12" x1="235.5" y1="567.2" x2="235.5" y2="563.6"/>
	<g>
		<g>
			<g>
				<path class="st21" d="M525.8,555.7l-8.9,4.7l-8.6-5.3l-3.7,4.9c0,0,7.7,6.5,7.3,21.3l4.4,0.1l4.4,0.1
					c0.4-14.8,8.5-20.8,8.5-20.8L525.8,555.7z"/>
				<line class="st22" x1="516.6" y1="568" x2="516.7" y2="561.4"/>
				<path class="st23" d="M538.6,543.5c0.2-0.8,0.4-1.7,0.4-2.6c0.2-5.7-4.3-10.5-10-10.6c-0.5,0-1,0-1.5,0.1c-1-4.6-4.9-8-9.8-8.2
					c-4.9-0.1-9,3.1-10.2,7.6c-0.4-0.1-0.8-0.1-1.2-0.1c-5.7-0.2-10.5,4.3-10.6,10c0,0.9,0.1,1.7,0.2,2.5c-3.2,1.3-5.8,4.1-6.4,7.8
					c-1,5.6,2.7,11,8.4,12c4.1,0.7,8-1,10.2-4.2c1.8,2.8,4.9,4.7,8.5,4.8s6.8-1.6,8.7-4.3c1.8,2.8,4.9,4.7,8.5,4.8
					c5.7,0.2,10.5-4.3,10.6-10C544.5,548.8,542.1,545.2,538.6,543.5z"/>
			</g>
			<path class="st24" d="M487.6,571.3c1.6-6.9,9.1-7.6,12.4-4.6c4,3.6,4.1,9.4,14,10.6c6.3,0.7,4.1,8.7-7.6,8.5
				C491.8,585.5,486.4,576.7,487.6,571.3z"/>
			<path class="st24" d="M545.4,572.4c-1.3-7-8.8-8-12.2-5.1c-4.1,3.5-4.4,9.3-14.4,10c-6.3,0.5-4.4,8.5,7.2,8.8
				C540.7,586.5,546.4,577.9,545.4,572.4z"/>
		</g>
		<g>
			<g>
				<path class="st21" d="M541.6,608.4l-8.9,4.7l-8.6-5.3l-3.7,4.9c0,0,7.7,6.5,7.3,21.3l4.4,0.1l4.4,0.1
					c0.4-14.8,8.5-20.8,8.5-20.8L541.6,608.4z"/>
				<line class="st22" x1="532.3" y1="620.7" x2="532.5" y2="614.2"/>
				<path class="st23" d="M554.3,596.2c0.2-0.8,0.4-1.7,0.4-2.6c0.2-5.7-4.3-10.5-10-10.6c-0.5,0-1,0-1.5,0.1c-1-4.6-4.9-8-9.8-8.2
					c-4.9-0.1-9,3.1-10.2,7.6c-0.4-0.1-0.8-0.1-1.2-0.1c-5.7-0.2-10.5,4.3-10.6,10c0,0.9,0.1,1.7,0.2,2.5c-3.2,1.3-5.8,4.1-6.4,7.8
					c-1,5.6,2.8,11,8.4,12c4.1,0.7,8-1,10.2-4.2c1.8,2.8,4.9,4.7,8.5,4.8s6.8-1.6,8.7-4.3c1.8,2.8,4.9,4.7,8.5,4.8
					c5.7,0.2,10.5-4.3,10.6-10C560.2,601.6,557.8,598,554.3,596.2z"/>
			</g>
			<path class="st24" d="M503.3,624c1.6-6.9,9.1-7.6,12.4-4.6c4,3.6,4.1,9.4,14,10.6c6.3,0.7,4.1,8.7-7.6,8.5
				C507.5,638.3,502.1,629.5,503.3,624z"/>
			<path class="st24" d="M561.2,625.2c-1.3-7-8.8-8-12.2-5.1c-4.1,3.5-4.4,9.3-14.4,10c-6.3,0.5-4.4,8.5,7.2,8.8
				C556.4,639.2,562.2,630.7,561.2,625.2z"/>
		</g>
	</g>
	<g>
		<g>
			<g>
				<path class="st25" d="M488.1,803.8c-1.1,1-2.2,1.9-3.5,2.8c-13.4,9.1-25,16.1-24.4,28.7c1,20.5,19.5,12,25.7,4.7
					c6.2-7.4,9.1-13.4,11.2-28.3c0.2-1.5,0.4-2.9,0.6-4.3C493.5,807.7,489.8,805.2,488.1,803.8z"/>
				<path class="st26" d="M500.6,782.1c-1,0-1.9,0.8-2.1,1.8c-0.6,3.8-2.7,12.9-10.4,19.9c1.7,1.4,5.5,3.9,9.7,3.6
					c1.4-10.3,2-16.5,4.8-22.3C503.1,783.7,502.1,782.1,500.6,782.1z"/>
			</g>
			<path class="st27" d="M475.6,812.7c0,0,15.6,6.5,20.2,6.5"/>
			<path class="st27" d="M468.7,818.2c0,0,6.5,7.7,26.2,5"/>
			<path class="st27" d="M491.6,831.8c0,0-20.7-5.3-27.5-8.6"/>
			<path class="st27" d="M485.9,840c0,0-11.9-9.1-25.4-10"/>
			<path class="st27" d="M479.2,841.4c0,0,1.5,3.1,0,5.9"/>
			<path class="st27" d="M481.4,818.2c0,0-4.3-0.2-5.8,2.8"/>
			<path class="st27" d="M491.6,808.4c0,0,2.1,2.7,2.6,5.6c0.5,2.9,3.5,3.5,3.5,3.5"/>
			<path class="st27" d="M482.6,807.9c0,0,2.3,2.8,7.1,3.6c4.8,0.7,7.2,1.4,7.2,1.4"/>
			<path class="st27" d="M476.3,807.9c0,0,1.1,2.5,4.2,2.5c1.7,0,2.1,1.7,2.1,1.7"/>
		</g>
		<g>
			<path class="st28" d="M409.8,805.4c-1.2-1.8-2.5-4.3-4-7.8c-2.2-5.2-3.6-9.1-4.5-11.9c-0.7-2.2-3.7-2.5-4.8-0.4
				c-0.6,1-0.4,2.3,0.5,3.1c2,1.9,5.3,6.3,5.1,15.2c0,1.5-0.1,2.9-0.3,4.2C403.9,808,407.2,807.8,409.8,805.4z"/>
			<path class="st29" d="M425.6,821.3c-8.5-10-12.1-10.3-15.8-15.9c-2.5,2.4-5.9,2.6-7.9,2.4c-1.1,9.5-5,13.6-3,28.6
				c2.2,17,20,25.8,28.3,22.1C435.4,854.7,436.9,834.5,425.6,821.3z"/>
			<path class="st29" d="M399.3,819.8c0,0,7.7-3.2,15.6-2.4c8,0.9,6.7-0.2,6.7-0.2"/>
			<path class="st30" d="M398.3,829.9c0,0,16.6-2,25.8-10.4"/>
			<path class="st30" d="M399.3,839.2c0,0,12.5-7.1,32.9-5.8"/>
			<path class="st30" d="M401.5,824.3c0,0-3.1-2.1-4.6,0.5c-0.9,1.5-3.2,1.3-3.2,1.3"/>
			<path class="st30" d="M413.3,813.2c0,0-0.4-2.3,2.7-3.3c3-1,2.5-4.5,2.5-4.5"/>
		</g>
		<g>
			<g>
				<path class="st31" d="M457.7,815.2c-2,2.1-4.2,4.2-6.5,6c-12.9,10.2-18.8,11.5-23.1,27c-4.3,15.5-5.1,36.4,13.1,25
					s25.8-16.4,25.6-35.3c-0.1-7.5-0.2-12.6,0-16.6C464.4,818.4,459.7,816.1,457.7,815.2z"/>
				<path class="st32" d="M477.9,787.6c-1,0-1.9,0.6-2.4,1.5c-2,4.2-8.5,16.3-17.9,26.2c2.1,0.9,6.7,3.2,9.1,6.2
					c0.3-6.1,1.3-9.3,4.1-14c3.5-5.8,6.8-11.4,9.4-15.9C481.2,789.8,480,787.6,477.9,787.6z"/>
			</g>
			<path class="st33" d="M451.1,821.2c0,0,9.8,5.4,15.7,14.8"/>
			<path class="st33" d="M429,845c0,0,7.9-2.1,14.4,4.8c6.5,6.9,15,11.2,15,11.2"/>
			<path class="st33" d="M428,848.2c0,0,7.6,11.5,25.5,16.8"/>
			<path class="st33" d="M435.1,834c0,0,20.8,13.9,25.7,24.4"/>
			<path class="st33" d="M442.4,827.8c0,0,7.2,7,25.1,13.7"/>
			<path class="st33" d="M427.2,851.2c0,0,8.4,14.8,18,19.5"/>
			<path class="st33" d="M441.1,873.3c0,0-9-2-15.5-12.2"/>
			<path class="st33" d="M437.1,824.6c0,0,1.9,1.6,5.3,1.1s4.5,3,4.5,3"/>
			<path class="st33" d="M448.7,840.5c0,0,4.7,2.9,2.4,9.6c-2.2,6.7,2.5,5.8,1.9,10.8"/>
			<path class="st33" d="M442,855.5c0,0-2.9-3.5-5.7-1.3s-5.2,0-5.2,0"/>
		</g>
		<g>
			<g>
				<path class="st34" d="M423.7,821.7c-3.6,3.5-7.4,6.6-11,8.4c-10.2,4.9-17.1,14.2-17.7,27.3s-2.9,18,4.1,20.6
					c7.2,2.7,24.1-2,30.8-13.9c6.7-11.9,5.5-24.1,3.8-31.4c-0.6-2.6-0.6-5.4,0.1-8.4C430.3,824.4,425.9,822.6,423.7,821.7z"/>
				<path class="st35" d="M448.4,791.8c0-1.1-0.9-1.9-2-1.9c-1,0-1.9,0.8-2,1.8c-0.3,2.5-1.2,7.2-4.9,11.6c-3.4,4.1-9.4,12-16,18.4
					c2.2,1,6.6,2.7,10,2.6c1.2-5.3,4.3-11.2,9.2-18.4C447.8,798.7,448.5,794.1,448.4,791.8z"/>
			</g>
			<path class="st36" d="M399,842.5c0,0,14,14.2,31.9,19.4"/>
			<path class="st36" d="M394.6,861.9c0,0,18.7,0,29.7,8.8"/>
			<path class="st36" d="M394.1,871c0,0,13,1.6,17.8,6.4"/>
			<path class="st36" d="M408.1,832.7c0,0,12.3,7.8,26.8,8.4"/>
			<path class="st36" d="M388.4,846.4c0,0,1.4,2.6,5.7,2.7c4.3,0.1,4.8-1,6.9,0"/>
			<path class="st36" d="M389.6,864.4c0,0,3.3,1.3,6.3-1.1c3-2.4,4.2-4.1,7.1-3"/>
			<path class="st36" d="M421.8,842.5c0,0,1.4,5.2-0.3,9.2c-1.6,4,0.3,4.1,0.3,4.1"/>
			<path class="st36" d="M420.9,864.8c0,0,1.7,0.8,1.5,3.6s0.3,5.8,2.5,6.6"/>
			<path class="st36" d="M410.3,873.3c0,0,2.3,1.7,2.3,5.4s3.7,3.4,3.7,3.4"/>
			<path class="st36" d="M397.6,838.2c0,0,6.6-3,8.9,1.9"/>
		</g>
	</g>
	<line class="st12" x1="336.8" y1="763.8" x2="337.8" y2="770.1"/>
	<line class="st12" x1="341.2" y1="763.8" x2="341.2" y2="768.5"/>
	<line class="st12" x1="346.2" y1="762.5" x2="346.2" y2="766.2"/>
	<line class="st12" x1="352.8" y1="762.5" x2="352.8" y2="766.2"/>
	<line class="st12" x1="355.6" y1="746" x2="356.6" y2="750.2"/>
	<line class="st12" x1="360" y1="744.8" x2="361" y2="749.2"/>
	<g>
		<line class="st12" x1="538.3" y1="667.4" x2="539.4" y2="672.7"/>
		<line class="st12" x1="542.3" y1="666.4" x2="543.1" y2="670.1"/>
		<line class="st12" x1="547" y1="665.1" x2="547" y2="670.1"/>
		<line class="st12" x1="551.8" y1="665.1" x2="551.8" y2="668.5"/>
	</g>
	<line class="st12" x1="451.3" y1="532.3" x2="453.1" y2="539.5"/>
	<line class="st12" x1="456.9" y1="534.6" x2="456.9" y2="539.5"/>
	<line class="st12" x1="460.4" y1="533.9" x2="460.4" y2="539.5"/>
	<line class="st12" x1="466.5" y1="535.9" x2="466.5" y2="540.4"/>
	<g>
		<path class="st37" d="M254.4,628.8c0,0,0.4,2.5-0.1,3.2c-0.5,0.6-6.5,2.9-6,5.6c0.4,2.4,4.5,2.6,13.3-1.9c1.3-0.7,2.1-2,2.1-3.4
			l0.2-5.7L254.4,628.8z"/>
		<path class="st37" d="M298.6,626.4c0,0,0.2,3.4-0.1,4.4s-6,3.6-4.4,6.3c1.3,2.2,7.8,0,11.5-2.3c1.2-0.7,2-2,2-3.5l0.2-7.6
			L298.6,626.4z"/>
		<g>
			<path class="st38" d="M238.6,527.5c0,0-10.2,53-4.8,80.5c5.5,27.5,32.3,21.4,44.8,17.2c0,0,3.2,4.3,18,2.4
				c16.1-2.1,24.8-4.6,30.7-10.4c5.9-5.8,4.4-17.9,3.5-29.8c-0.9-11.9-5.2-48.3-11.4-60.1C319.5,527.3,261.4,511.6,238.6,527.5z"/>
			<path class="st39" d="M274.5,541.8c0,0-1,51.1-1.3,60.5c-0.2,9.5-0.8,17.2,5.5,22.9"/>
			<path class="st39" d="M233.4,605.2c0,0,8.7,4.4,24.2,5.3c8.4,0.5,13,0.6,15.5,0.6"/>
			<path class="st39" d="M273.2,608.7c0,0,11.1,4,29.5,0.8s25.5-7.8,29-10.4"/>
			<circle class="st39" cx="318.2" cy="611.9" r="1.4"/>
			<circle class="st39" cx="318.1" cy="617.4" r="1.4"/>
			<path class="st39" d="M246.2,535.5c0,0-2.5,20.2-2.6,35.4"/>
			<path class="st39" d="M243.2,578.5c0,0-0.9,15.7,0.3,23"/>
			<path class="st39" d="M258.6,533.9c0,0-3.2,21.7-3.5,49"/>
			<path class="st39" d="M250.4,556.5c0,0-2.1,18.4-0.9,33.6"/>
			<path class="st39" d="M254.9,590.3c0,0-0.4,10.8,0.7,16.7"/>
			<path class="st39" d="M264.6,560.9c0,0-1.6,28.9,1.1,46.4"/>
			<path class="st39" d="M268.9,534.2c0,0-2.2,10-1.7,16.2"/>
			<path class="st39" d="M283.6,535c0,0,0.9,5.2,1.3,12.4"/>
			<path class="st39" d="M285.5,557.4c0,0,3.4,23.7,2.5,40.4"/>
			<path class="st39" d="M290.6,540.5c0,0,5.2,20.8,4.8,34"/>
			<path class="st39" d="M296.5,533.5c0,0,5.1,12.7,6.1,27"/>
			<path class="st39" d="M295.9,584c0,0,0.8,10.4,0.3,14"/>
			<path class="st39" d="M303.4,567.5c0,0,2.2,20.2,0.9,34.6"/>
			<path class="st39" d="M313.6,589.5c0,0,0.2,9.8-0.4,13.8"/>
			<path class="st39" d="M325.7,588.6c0,0,0.4,4.2-0.2,6.1"/>
			<path class="st39" d="M287.9,602.6c0,0,0.3,3.2-0.1,4"/>
			<path class="st39" d="M310.1,548c0,0,3.9,18.1,3.7,33.6"/>
			<path class="st39" d="M315.7,537.3c0,0,6.5,17.9,7.8,43.2"/>
			<path class="st39" d="M305.7,533.7c0,0,2.2,3.8,2.7,8.1"/>
		</g>
		<path class="st40" d="M221.8,481.3c10.1-16.5,29-30.5,55.5-29.8c37.5,1,51.9,28.6,54.5,40.8s-0.7,36.9-18.4,39.6
			c-14.2,2.2-46.3-8.6-46.3-8.6s-20.4,13.5-35,6.9C217.5,523.6,208.2,503.6,221.8,481.3z"/>
		<path class="st39" d="M237.7,502.5c0,0,32.9-20.6,54-1.7"/>
		<path class="st39" d="M243.5,490.2c0,0-1.1,6.1-0.2,9.3"/>
		<circle class="st41" cx="276.5" cy="483.5" r="1.9"/>
		<circle class="st41" cx="276.8" cy="473.7" r="1.9"/>
		<path class="st41" d="M272.6,455.1c-3.5,1.2-10.5,5.4-10.6,19.1c0,0.2,0.2,0.4,0.4,0.3c2.2-1,12.9-6.7,12.3-18
			C274.7,455.5,273.6,454.8,272.6,455.1z"/>
		<path class="st41" d="M278.5,454.5c3.1,0.8,10.7,4.4,10.5,19.1c0,0.2-0.2,0.4-0.4,0.3c-2.1-1.3-11.5-7.8-11.5-18.3
			C277.1,454.9,277.8,454.3,278.5,454.5z"/>
		<path class="st39" d="M267.1,523.3c0,0,6.7-5.1,13-11c6.4-5.9,10.5-15.4,23.1-13.4c0,0-2.7-3.4-3.3-9.7"/>
		<path class="st39" d="M276.3,493.3c0,0,6.3,5.1,5.7,17.1"/>
		<path class="st39" d="M278.2,514c0,0,1.5,7-1.8,12.1"/>
		<circle class="st38" cx="276" cy="458.7" r="3.3"/>
		<g>
			
				<ellipse transform="matrix(2.624731e-02 -0.9997 0.9997 2.624731e-02 -156.8572 724.1403)" class="st37" cx="293.3" cy="442.6" rx="10.3" ry="8"/>
			
				<ellipse transform="matrix(2.624731e-02 -0.9997 0.9997 2.624731e-02 -190.0018 688.2469)" class="st37" cx="258.3" cy="441.7" rx="10.3" ry="8"/>
			<circle class="st37" cx="275" cy="441.8" r="14.8"/>
			
				<ellipse transform="matrix(2.624731e-02 -0.9997 0.9997 2.624731e-02 -182.8887 704.5347)" cx="270.2" cy="446.1" rx="1.8" ry="1"/>
			
				<ellipse transform="matrix(2.624731e-02 -0.9997 0.9997 2.624731e-02 -176.8929 711.1036)" cx="276.6" cy="446.4" rx="1.8" ry="1"/>
		</g>
	</g>
	<g>
		<g>
			<path class="st12" d="M487,521.7c0,0-6.6-68.5,36.5-104.2"/>
			<path class="st12" d="M493.9,414.2c2-0.7,11.6,8.3,11.2,24.7"/>
			<path class="st12" d="M495.2,459.7c0,0,18.1-17.5,39.3-11.6"/>
			<g>
				<path class="st1" d="M472.9,376.5c0,0-9.2,18.4-0.5,32.4c8.7,13.9,20.4,7.5,24.6,2.8s5.5-14-1.7-22.5
					C489.2,381.7,478.7,383.8,472.9,376.5z"/>
				<path class="st12" d="M477.7,390c0,0,2.4,15.3,13.1,19.8"/>
			</g>
			<g>
				<path class="st1" d="M522.6,417c-7.9-12.7,0-32.9,16.4-37.3c19.9-5.4,28.2,11.2,39.6,10.7c0.7,0,1.3,0.7,1,1.4
					c-2.4,6-12.1,27.7-29.3,33.1C536.8,429.2,527.3,424.5,522.6,417z"/>
				<path class="st12" d="M529.4,412.6c0,0,8.8-18.8,36.8-18.2"/>
			</g>
			<g>
				<path class="st1" d="M533.4,450.4c4.2-14.3,18-18.2,31.4-9.1s19.3,8.5,19.3,8.5s0.4,27-24.5,27.9
					C538.7,478.4,530.3,460.8,533.4,450.4z"/>
				<path class="st12" d="M539.8,448.5c0,0,13.3-4.7,29.4,11.6"/>
			</g>
			<path class="st12" d="M487.3,497.4c0,0,17.4-17.2,29.6-0.3"/>
			<path class="st1" d="M516.5,496.9c0,0-5.9,11.1,2.9,17.9c10.1,7.8,20-2.7,22.3-5.4c0.2-0.3,0.1-0.7-0.2-0.9
				c-1.8-0.7-5.9-3.4-8.5-7.6C528.2,493.1,521.8,494.2,516.5,496.9z"/>
		</g>
		<path class="st12" d="M520.4,500.5c0,0,1.9,8.6,12.4,8.8"/>
	</g>
	<g>
		<path class="st4" d="M381.7,723.1c10.5-9,24.3-2.7,32.5-9s16.8-13.6,25.9-2.6s9.1,12.9,18.3,9.2c9.1-3.7,17.6,3.4,15.5,11.9
			s-6,14.9-14,21.3s-11,14.2-13.7,22.5c-2.8,8.3-14.9,16.4-27.1,15.8s-12.9,1.2-24.4,5.8s-17.6-5.2-17-13.7s-7.1-8.5-6.3-18.9
			s8.5-8,6.3-20.7S378.5,725.9,381.7,723.1z"/>
		<path class="st12" d="M393.1,778.9c0,0,14.2-39.5,55.9-57.4"/>
		<path class="st12" d="M383.3,755.4c0,0,14.9,1.8,29.7-7.8c-5,19.1-0.8,32.6-0.8,32.6"/>
		<path class="st12" d="M393.1,737.1c0,0,16.5,5,32.3-1.3c-4.1,16.9,2.2,39.3,2.2,39.3"/>
		<path class="st12" d="M446.2,722.8c0,0-8.4,18-4.8,37.2"/>
		<path class="st12" d="M413,724.5c0,0,13.4,3.3,33.2-1.7"/>
	</g>
	<g>
		<path class="st9" d="M78.2,455.9c0,0,16.5,9.7,13.7,41.1c-4,44.8,19.9,45.5,16.4,72.8"/>
		<path class="st9" d="M103.2,471.8c0,0-11.1,8.5-11,14.8"/>
		<path class="st9" d="M71.3,512.5c0,0,11.2-10.4,20.5,1.8"/>
		<path class="st1" d="M32.1,540.9c0,0,7.8-9.5,7.4-20.3c-0.4-10.7,5.5-20,18.4-17.9s23,18.8,11.6,30.6
			C57.5,545.6,32.1,540.9,32.1,540.9z"/>
		<path class="st1" d="M66.9,515.6c0,0-14.9-0.2-20.5,15.6"/>
		<path class="st1" d="M55.9,434.7c0,0,5.5,4.4,5.3,13.6s10.1,10.2,16.8,7.5c4-3.7,6.5-12.9,0.5-19.2
			C70.1,427.9,55.9,434.7,55.9,434.7z"/>
		<path class="st9" d="M66.7,440.5c0,0,6.8,2.5,9.2,10.2"/>
		<path class="st9" d="M87.5,538.4c0,0,6.3-5.2,11.4-0.3c0,0-0.3-11.9,9.4-14.2"/>
		<path class="st1" d="M65.3,551.9c-0.4,0.1-0.7-0.3-0.6-0.6c0.4-1.5,1.3-4.6,2.1-7.5c1.3-4.7,4.1-12.2,13.8-10.8
			c9.7,1.3,9.8,12.9,4.5,16.8C79.4,553.9,69.4,550.8,65.3,551.9z"/>
		<path class="st9" d="M72.8,545.4c0,0,3.6-5.9,11.3-5.9"/>
		<path class="st1" d="M124.9,498.2c0,0,6.2,9.2,0.5,20.3c-5.6,11.1-18.4,9.2-20.3,0.2c-1.9-9,5.4-14.1,10.8-15.5
			S124.9,498.2,124.9,498.2z"/>
		<path class="st1" d="M120.7,509.9c0,0-6.5,0.4-8.8,8"/>
		<path class="st1" d="M137.3,414.8c0,0-0.6,10.1,5.8,20.4s5.9,38.6-19.7,41.1c-29.3,2.9-37-26.9-24.3-41.5
			C111.8,420.1,123.5,423.7,137.3,414.8z"/>
		<path class="st1" d="M128.5,430.4c0,0-20.4,7.7-23.5,30.4"/>
	</g>
	<g>
		<path class="st4" d="M538.7,688c-10-3.8-8.8-10.3-18.5-16.7c-11.3-7.5-27.3,0.9-34.9-8.7c-7-8.8-25.4-17.5-34.5-8
			c-6.3,6.6-2.9,18.7,8.1,24.9s5.9,16.7,5.3,26.8c-1.2,17.7,9.7,31.3,28.2,36.9c21.6,6.5,24.9-6.7,23.4-16.8s1.9-16.6,15.6-16.4
			C544.2,710.2,552,693.1,538.7,688z"/>
		<path class="st12" d="M518.1,714.2c-15.5-36.8-49.8-43.2-49.8-43.2"/>
		<path class="st12" d="M522,685.7c0,0-7.5,8.6-7.6,20.9c-17.1-3.4-31.4,14.2-31.4,14.2"/>
		<path class="st12" d="M503.7,674.5c0,0-4.8,5.8-1.2,16.1c-19.9-4.3-28.6,11.1-28.6,11.1"/>
		<path class="st12" d="M468.3,681.3c0,0,6.8-5.5,19.9-2.1c0,0-4.9-4.8-3.9-10.7"/>
	</g>
	<g>
		<path class="st11" d="M526.2,724.5c1.5,9-17.9,16.7-11.2,25.5c6.7,8.9,27.2-3.7,37,2.4c9.8,6.1,18,24.8,35.2,22.3
			c17.1-2.4,19-10.4,26.6-21.1s26-13.1,23.8-25.1c-2.1-11.9-17.1-5.2-30.6-19.9s-21.1-20.5-36.1-18.7s-15.9,10.4-31.2,6.7
			c-15.3-3.7-30,2.2-28.1,13.8C513,718.6,524.7,715.3,526.2,724.5z"/>
		<path class="st12" d="M526.2,724.5c0,0,43.2-18.7,80.2,0"/>
		<path class="st12" d="M579.6,701.7c0,0-6,10.1-21.3,15.1c22.1,5.2,35.8,32.3,35.8,32.3"/>
		<path class="st12" d="M550.7,706.8c0,0-4.9,11.4-11.9,13.6c0,0,16.2,2.9,28.6,18.6"/>
		<path class="st12" d="M608.4,738.9c0,0-7.3-16.8-20.1-20.8c0,0,6.1-2.9,10.1-8.7"/>
	</g>
	<g>
		<path class="st42" d="M367.2,339c0,0,3.9-0.8,7.9,0.1"/>
		<path class="st43" d="M350.5,291.8c0,0,1.2,8.1,0,14.1s0.7,18.5,16.2,14.9c0,0,10.1-4.9,5.5-16.5
			C366.8,290.6,350.5,291.8,350.5,291.8z"/>
		<path class="st43" d="M332.9,340c0,0,5.9,18.5,21.1,16.4c15.2-2.1,13.3-17.3,13.3-17.3s-4.5-8.6-14.3-8.6
			C343,330.3,339.5,340,332.9,340z"/>
		<path class="st42" d="M346.2,342.1c0,0,7.5-8.6,21-3"/>
		<path class="st42" d="M381.7,354c0,0,6.9-0.5,10.6,4.1"/>
		<path class="st42" d="M391.4,333.9c-7.9,3.8-5.5,13.6-5.5,13.6"/>
		<g>
			<path class="st43" d="M359.6,362.7c-0.3-0.2-0.3-0.7,0-0.9c1.1-0.9,2.4-3.4,3.9-6.3c2.7-5.1,8.7-9.7,18.2-1.5
				c0,0,1.2,8.2-6.8,11.3C368.3,367.7,361.7,364,359.6,362.7z"/>
			<path class="st42" d="M366.1,358.6c0,0,4.7-6.7,15.6-4.7"/>
		</g>
		<path class="st43" d="M409,329.1c0,0-5.5-5.8-11.2-4.9c-5.8,0.9-8.1,6.8-6.4,9.8c1.6,2.9,7,5.5,11.1,2.5
			C405.8,334,404.6,330.7,409,329.1z"/>
		<path class="st42" d="M401.2,328.1c0,0-6.9-0.3-9.9,5.9"/>
		<path class="st42" d="M359.4,302.8c0,0,6.9,5.9,7.7,21.9c1.1,20.4,24.9,13.3,27.1,43.4"/>
	</g>
	<path class="st44" d="M278.6,860.6c0,0-2.6,8.5,4.4,11.7c0,0-1.2,7,5.8,7.6"/>
	<path class="st8" d="M346.2,820.9c-2.5-3.9,6.7-9.6,10.3-6.5c2.2,1.8-1.5,5.3-4.1,6.5C350,822,347.1,822.3,346.2,820.9z"/>
	
		<ellipse transform="matrix(0.8298 -0.5581 0.5581 0.8298 -421.9674 296.849)" class="st8" cx="275.7" cy="840.2" rx="2.5" ry="3.1"/>
	<ellipse transform="matrix(0.7563 -0.6542 0.6542 0.7563 -496.146 450.1)" class="st8" cx="356.1" cy="891" rx="5.2" ry="2.8"/>
	<path class="st45" d="M334.7,890.1c-0.1-0.4-0.9-3,3-4.9s1.3-3.3,4.8-6.5c3.4-3.2,5.2-2.5,6.3-6.6"/>
	<g>
		<path class="st46" d="M494.2,271.9c0,0,4.4,13.8,20,6.8C514.2,278.7,506.6,263.9,494.2,271.9z"/>
		<g>
			<circle class="st47" cx="496.9" cy="280.1" r="8.3"/>
			<g>
				<circle class="st47" cx="499.7" cy="276.1" r="0.4"/>
				<circle class="st47" cx="497.9" cy="274.4" r="0.4"/>
				<circle class="st47" cx="495.9" cy="276" r="0.4"/>
				<circle class="st47" cx="497.7" cy="277.6" r="0.4"/>
			</g>
		</g>
		<path class="st46" d="M496.5,243.1c0,0-8,12.5,1.8,20.4C498.3,263.5,508.2,255.6,496.5,243.1z"/>
		<path class="st46" d="M491.3,268.8c0,0-7-8.8,4.7-17.8C496.1,251,502.2,265.4,491.3,268.8z"/>
		<path class="st46" d="M486.2,308.5c0,0,9.2-9.7,0-16.7C486.2,291.7,477.1,298.4,486.2,308.5z"/>
		<path class="st46" d="M489.7,288.3c0,0-5.1,13,8.4,17.9C498.2,306.2,501.8,291.2,489.7,288.3z"/>
		<path class="st46" d="M467.2,303.2c0,0-2.8-13.3,8.6-17C475.8,286.2,481.3,299.3,467.2,303.2z"/>
		<path class="st46" d="M464.8,274.6c0,0,14.1,4.9,18.6-10.1C483.3,264.5,470.2,259.7,464.8,274.6z"/>
		<path class="st46" d="M477.6,284c0,0-6.3-12.3,3.8-18.9C481.4,265.1,490.2,276.3,477.6,284z"/>
		<path class="st46" d="M478.3,251c0,0-3.3,13.2,13,16.2C491.2,267.2,492.7,250.7,478.3,251z"/>
		<path class="st46" d="M449.3,263.3c0,0,5.8,12.1,20.1,4.9C469.4,268.3,461.5,255.8,449.3,263.3z"/>
		<path class="st46" d="M468,263.6c0,0,11.5-7.4,3-20.1C471,243.4,459.6,249.6,468,263.6z"/>
		<path class="st46" d="M449.4,257c0,0,13.8,2.5,18.6-14.3C467.9,242.7,455.2,239.3,449.4,257z"/>
		<path class="st46" d="M444,287.9c0,0,12.7-2.3,9.7-15.6C453.7,272.3,442.6,273.3,444,287.9z"/>
		<path class="st46" d="M448.3,234.4c0,0-15.2,2.6-13.9,15.5C434.4,249.9,446.9,253.4,448.3,234.4z"/>
		<path class="st46" d="M416.9,268.9c0,0,13.6,3.6,17.4-12.6C434.2,256.3,421.6,251.5,416.9,268.9z"/>
		<path class="st46" d="M429.8,274.2c0,0,12.3-5.8,5.5-19.6C435.3,254.7,423.3,259.3,429.8,274.2z"/>
		<path class="st46" d="M412.7,245.2c-0.7,0.7,11,10.9,18.9-0.7C431.6,244.5,423.4,234.7,412.7,245.2z"/>
		<path class="st46" d="M428.8,224.3c0,0-6.1,15.5,6.6,20.2C435.5,244.4,444.1,235.3,428.8,224.3z"/>
		<g>
			<circle class="st47" cx="482.1" cy="291.5" r="8.3"/>
			<g>
				<circle class="st47" cx="481.3" cy="287.9" r="0.4"/>
				<circle class="st47" cx="478.8" cy="288.1" r="0.4"/>
				<circle class="st47" cx="478.6" cy="290.5" r="0.4"/>
				<circle class="st47" cx="481" cy="290.3" r="0.4"/>
			</g>
		</g>
		<g>
			<circle class="st47" cx="443.8" cy="269.9" r="8.3"/>
			<g>
				<circle class="st47" cx="447.5" cy="266.4" r="0.4"/>
				<circle class="st47" cx="446.8" cy="268.8" r="0.4"/>
				<circle class="st47" cx="449.1" cy="269.9" r="0.4"/>
				<circle class="st47" cx="449.7" cy="267.5" r="0.4"/>
			</g>
		</g>
		<circle class="st46" cx="482.1" cy="265.1" r="8.3"/>
		<g>
			<circle class="st48" cx="482.2" cy="260.6" r="0.4"/>
			<circle class="st48" cx="480.1" cy="259.4" r="0.4"/>
			<circle class="st48" cx="478.5" cy="261.3" r="0.4"/>
			<circle class="st48" cx="480.7" cy="262.5" r="0.4"/>
		</g>
		<g>
			<g>
				<path class="st49" d="M424.5,240.3c0,0,15.5,10.2,24.2,25l1.5-3.8c0,0-7.4-14-22.9-23L424.5,240.3z"/>
				<path class="st49" d="M447.2,240.4c0,0-2.7,14.2,2,29c7.7,24.3-3.1,44.3-5.5,57.1c-2.5,13.2-9.7,19.8-2,20.5
					c9,0.7,14.9,2.7,14.3-9.2c-0.7-14-1.7-32.7,4.7-39.9s20-9.6,29.4-21.2c9.4-11.7,22.4-11.7,22.4-11.7l-2.1-6
					c0,0-14,0.6-23.2,11.6c-7.6,9.1-18.4,16.7-22.4,14.6s2-7.9,4.6-15c2.8-7.5,8.4-18.4,15.2-20.1l-5.9-3c0,0-7.8,5-13.9,21.7
					c-4.8,13-8.9,3.2-10.6-4s-3.6-17.1-0.6-22.8L447.2,240.4z"/>
			</g>
		</g>
		<path class="st46" d="M411.2,235c0,0,9,13.2,20.5,2.1C431.6,237.1,426.6,228.1,411.2,235z"/>
		<path class="st46" d="M443.5,231.4c0,0,2.5,18,19.6,13.3C463.1,244.7,461.8,231.4,443.5,231.4z"/>
		<path class="st46" d="M469.8,226.8c0,0-3.1,16.1,12.3,18.9C482.1,245.7,485.6,231.8,469.8,226.8z"/>
		<path class="st46" d="M511.1,242.7c0,0-13.9,5.3-11.2,16.9C499.9,259.7,514.5,258.7,511.1,242.7z"/>
		<path class="st46" d="M518.2,267.4c0,0-14.1,4.4-18.9-7.7C499.3,259.7,511.8,252.7,518.2,267.4z"/>
		<path class="st46" d="M474.5,245.3c0,0,2.4,12.8,20.3,5.4C494.9,250.8,485.7,238.6,474.5,245.3z"/>
		<g>
			<circle class="st47" cx="427.3" cy="252.9" r="8.3"/>
			<g>
				<circle class="st47" cx="429.9" cy="249" r="0.4"/>
				<circle class="st47" cx="428.9" cy="251.3" r="0.4"/>
				<circle class="st47" cx="430.9" cy="252.7" r="0.4"/>
				<circle class="st47" cx="431.9" cy="250.5" r="0.4"/>
			</g>
		</g>
		<g>
			<circle class="st47" cx="469.9" cy="244.7" r="8.3"/>
			<g>
				<circle class="st47" cx="472.3" cy="240.5" r="0.4"/>
				<circle class="st47" cx="471.7" cy="242.9" r="0.4"/>
				<circle class="st47" cx="473.9" cy="244" r="0.4"/>
				<circle class="st47" cx="474.5" cy="241.6" r="0.4"/>
			</g>
		</g>
	</g>
</g>
</svg>
