<svg id="圖層_1" data-name="圖層 1" xmlns="http://www.w3.org/2000/svg" viewBox="0 0 754.23 1066.7"><defs><style>.cls-1{fill:#af485c;}.cls-1,.cls-10,.cls-11,.cls-12,.cls-2,.cls-3,.cls-4,.cls-5,.cls-6,.cls-7,.cls-8,.cls-9{stroke:#000;stroke-width:0.25px;}.cls-1,.cls-10,.cls-11,.cls-2,.cls-3,.cls-8{stroke-miterlimit:10;}.cls-2,.cls-4,.cls-5{fill:none;}.cls-3{fill:#e5aeae;}.cls-4{stroke-linecap:round;}.cls-12,.cls-4,.cls-5,.cls-6,.cls-7,.cls-9{stroke-linejoin:round;}.cls-6{fill:#aed1c1;}.cls-7{fill:#cece46;}.cls-8{fill:#ffecd9;}.cls-11,.cls-9{fill:#fff;}.cls-10{fill:#fde3b9;}</style></defs><title>all</title><path class="cls-1" d="M671.75,254.07c3.42,2.28-2.74,20-28.59,27.07A99,99,0,0,1,645.83,259c2.83-11.64,6.81-12.39,8.95-11.64s2.51,6,1.57,9.39c0,0,3.76-10.33,7.89-8.08s-.19,10.52-.19,10.52S668.37,251.82,671.75,254.07Z"/><path class="cls-2" d="M659,259s-2,13.4-15.82,22.19"/><path class="cls-3" d="M621.53,270.59c.33-4.92,3.07-20.87,10.35-20.06s2.63,14,2.63,14,6.1-11.6,11.32-9.71-2,17.27-2,17.27,4.06-11.06,8.61-9.71.6,21.49-25.19,39.11A62.31,62.31,0,0,1,621.53,270.59Z"/><path class="cls-2" d="M636.17,270.22a74.81,74.81,0,0,1-8.93,31.29"/><path class="cls-1" d="M663.53,286.81s7-1.55,7.58,1.23S668.06,301,641,293.89c0,0,3.31-8.95,8.41-14.82s10.39-9,12.84-5.88-4.4,10.21-4.4,10.21,7.19-6,9.51-2.51C669.53,284.13,663.53,286.81,663.53,286.81Z"/><path class="cls-4" d="M659.83,286.33A44,44,0,0,1,641,293.89"/><path class="cls-3" d="M501.53,135c3.81-.09,4.07,6.95,3.28,11.15,0,0,3-11,7.48-9.71s-1.18,14.43-1.18,14.43,4.33-11.28,9.18-7.93-9.44,29.84-21.64,37C497.07,177.33,490.25,135.22,501.53,135Z"/><path class="cls-5" d="M505.86,150.18S499,168,500.09,183.76"/><path class="cls-1" d="M508.21,164.65c4.57-.91.77,10.56.77,10.56s4.59-9.85,9.19-8.24-1.73,9.09-1.73,9.09,4.79-5.47,7.56-2.89-9.57,10.43-9,22.49-20.2,14.23-20.29,3.62S499.6,166.36,508.21,164.65Z"/><path class="cls-5" d="M510.7,178.72C508.21,180.83,500,191,501.78,206"/><path class="cls-1" d="M479.19,148.94c4.64-2.32,8.3,7.26,8.3,7.26s-1.76-8.57,4.23-8.95,17.77,30.86,6,55.93a154.63,154.63,0,0,1-16.27-25.25c-6.54-13.28-9.54-11-11.6-16.83s5.8-6.74,9.17-.75C479,160.35,474.7,151.18,479.19,148.94Z"/><path class="cls-5" d="M488.23,166s10.42,14,9.47,37.23"/><path class="cls-3" d="M365.13,135.1s-13.81-3-15.68,5.73c-1.83,8.56,15.51,9.95,25,9.15s42.1-2.49,49.92-1.68S443.85,150.54,446,147c3.23-5.24-6.32-9.6-14.81-7.46,0,0,5.73-6.42,1.55-11.9s-14.05-5.66-17-4.2c0,0,1.21-3.43-1.75-7.73C407.83,106.78,376.33,104.88,365.13,135.1Z"/><path class="cls-5" d="M366.94,142.94s-.14-2.88,1.91-3.62c2.81-1,3.92,2.08,3.92,2.08"/><path class="cls-5" d="M399.5,127.92s3.43-3,6.8-1c2.09,1.26,2.19,5,1.59,6.76a9.77,9.77,0,0,1,7.43-2.75c5.48.32,8.49,6.55,6.57,11.86"/><path class="cls-6" d="M381.57,139.17c2.88-1.39,8.8,13.57,18.65,18.13,0,0-7.93-15-4.27-16.43s2.64,12.79,9,17.28a16.09,16.09,0,0,0,1.45-9c-.73-4.88-1.81-8.41.19-8.41s5.32,11.14.92,21.23c0,0,9.92,10,21.79,11.91l-1.09,4.91s-17.54-5.64-31.19-17.34S378.28,140.75,381.57,139.17Z"/><path class="cls-3" d="M188.41,798s5.16,22,16.32,34.89,21.44,38.29,34.94,51.79,23.58,27.45,57.63,37.43,48.73,5.29,71,20,24.07,19.38,42.27,17,28.77-12.92,41.69-31.7,20.54-22.9,37.57-27.6,32.29-1.17,48.73-15.26,6.46-23.48,21.13-38.75,27.71-20.77,28.48-36l-92.47-7.88H243.29Z"/><path class="cls-5" d="M226,832.87s13.51,7.2,20.7,26.63c6.79,18.36,23.12,25.92,41.44,28.82,38,6,46.25,31.36,59.88,31"/><path class="cls-5" d="M357.5,922.85s5.1.32,7.63,2.85"/><path class="cls-5" d="M292.27,857.9s9.57,17.84,39,26.93c44,13.63,42.77,38,60.52,39.45"/><path class="cls-5" d="M348,863.92c2.53,14.89,26,21.07,29.46,27.17"/><path class="cls-5" d="M383.59,897.79c6,2.72,4.12,9.37,10.32,10.57"/><path class="cls-5" d="M402.33,876.12A15.59,15.59,0,0,0,420,880.76"/><path class="cls-5" d="M399.67,928.05s5.32,1.89,9.49,0"/><path class="cls-5" d="M433.09,906.4s8.16-4.75,16.71-17.66"/><path class="cls-5" d="M458.34,882.85c9.31-15.57,34-14.05,42.91-32.84"/><path class="cls-5" d="M432.33,921.21s4.13-.17,20.51-21.27c21.07-27.15,57.34-18,71-51.83"/><path class="cls-7" d="M195,787.38c-3.13,1.87-13.8,6.52-.85,17.56,7.81,6.66,32.79,18.41,56.27,21.58s58,13.55,112.32,13.55c31.73,0,77.42-9.11,104.08-9.74s52.67.63,74.24-3.81,50.77-7,47-20.31-19.67-20.94-48.23-20.31S426.8,777,426.8,777s-74.89-23.48-85.68-20.94-39.05,5.18-66,8.88C261.55,766.83,220.22,772.34,195,787.38Z"/><path class="cls-8" d="M398.69,202.72c3.91-9.52,20.71-46,72.81-34.55,10.38,2.28,19.18,11.55,18.06,19-.8,5.31,7.8,5.56,8,10.27S496,212.58,496,212.58L429.52,374.2,410.66,504.34s-25.4,7.71-45.58,12.1-32.22-12.1-32.22-12.1,6.91-97.84,9.68-112.13,5.16-27.38,16.67-34.13c0,0,4.37-50.8,13.1-73.82S388.05,228.67,398.69,202.72Z"/><path class="cls-3" d="M76.48,173.12s3.28-33,43.58-35.22c0,0,11.95-24.86,41.61-23.4,36.32,1.78,40.65,47.28,40.65,47.28s-5,34.53-50.67,36.07-93.93,8-93.84-11.54C57.87,172.58,76.48,173.12,76.48,173.12Z"/><path class="cls-6" d="M118.4,171.39c4.62.21,8.58,20,15.74,21.7,4.21,1,4.88-5.88,2.93-12.16s-2-10.86.06-10.84c3.47,0,5.07,15.94,6.53,21.39s2.35,21.19,26.63,42.39c1.87,1.62,7.87,4.06,4.37,8.86-2.55,3.52-8.88.68-11-1.06-25.22-20.53-19.52-22.36-36.27-45C115.08,180.1,114.44,171.2,118.4,171.39Z"/><path class="cls-7" d="M118.34,208.05s-23.46,3.31-27,22.89c-4.49,24.92,35.7,25.23,76.85,22.93a1288.44,1288.44,0,0,1,143,.87C361.35,258.1,409,256.6,433.52,251s28.61-31.62,16.18-42.19-30.63-8.21-43.86-2c0,0,3-18.64-14.51-28.77s-42.88,2.59-42.88,2.59-.76-44.85-52.62-66.28c-50.07-20.71-125.3,3.15-145.95,64.36C149.88,178.72,120.36,169.82,118.34,208.05Z"/><path class="cls-5" d="M171.52,197.89s4.79-20.49,27.21-19.48c0,0,1.81-25.68,27.77-32,26.42-6.42,38.24,16,38.84,18.14"/><path class="cls-5" d="M355.55,211.45s8.59-3.82,14.71.67,2.89,13.82,2.89,13.82"/><path class="cls-5" d="M389.29,237s4.08-9.55-2.07-14.85S374,220.62,374,220.62"/><path class="cls-6" d="M195.09,217.81c8.29-2.07,19.37,30.3,57.12,47.19s60,24.67,80.65,26.49c0,0-26.5-23.48-43.39-47.59s-18.88-29.07-14.41-31.06,9.36,13.44,20.37,23.35c9.46,8.52,35.77,47.87,51.17,57.22S366,300.13,366,300.13s-20.44-25.19-30.87-49.53-13.48-31.91-8.37-32.08c5.57-.19,13.84,28.6,24.27,40.52s20.19,37.08,37.66,51.57,27.42,17,31.39,32.39l-5.64,13.9s-12.78-27.81-35.86-38.25-44.44-18.38-61.83-20.86-67.06-15.4-93.39-37.26S187.14,219.8,195.09,217.81Z"/><path class="cls-8" d="M654,394.17c-.61-14.82-4.94-19.14-6.17-53.11s-10.57-48.69-19.51-69.21-9.74-34.47-8.42-55-6.06-41.57-27.11-40.78-29.38,7.1-29.38,7.1l-53.58,29-3.47,182.65-16.81,48.34,151.1,1.18C649.77,424.18,654.45,404.85,654,394.17Z"/><path class="cls-8" d="M256.56,521.05s-4.63,24.82-8.22,53.12.4,80.37-8.89,114.14c-5.22,19-11.31,39.78-17.2,60.2-7.63,26.42-5.1,37.23-5.1,37.23l41.3,4.67,43.12-6.11,30.1-95.59L354,578.07l23.22-51.66s-58.58-5.43-62.65-5.36S256.56,521.05,256.56,521.05Z"/><path class="cls-7" d="M257.2,517.19c-1.42,2.92-1.24,9.46,8.92,9.43,13.05,0,31.23-4.12,42.9,0s12.35,7.89,26.08,6.87,25.39-6.52,43.23-3.44l7.9-13.61S372.5,504,344.36,502.26s-32.54,3.35-50.91,2.08S263.37,504.47,257.2,517.19Z"/><path class="cls-3" d="M392.15,270.78c2.76-3,6.39.05,8.53,2.37,0,0-4.27-7.88-1-10.27,2.52-1.83,6.23,1.8,8.15,6.13,0,0-3.53-10,1.15-10.78,6.1-1,18,24.73,11.11,45C407.87,301.48,384.8,278.75,392.15,270.78Z"/><path class="cls-5" d="M404.82,274.5a72.42,72.42,0,0,1,15.3,28.69"/><path class="cls-3" d="M431.1,265.6c5-.93,12.4,26.22-2.13,50,0,0-9.88-7.53-15.7-22.78s-1.35-16,0-16.22,4.85,1.39,6,6.32c0,0-3.1-13.29,2.32-14.84s7.56,13.17,7.56,13.17S425.87,266.56,431.1,265.6Z"/><path class="cls-5" d="M425.48,285s5.23,12.7,3.49,30.67"/><path class="cls-1" d="M427,314.93a48,48,0,0,1-21.51-1.16c-11.42-3.48-18.25-9.41-16.52-13.63s11.91,0,11.91,0-10.38-7.49-6.92-11.33S406.65,295,406.65,295s-7.11-8.45-4-11.52S420.29,292.45,427,314.93Z"/><path class="cls-5" d="M407.87,301.48s12.61,2.69,19.14,13.45"/><path class="cls-6" d="M391,469.59c-.79-37.51,13.55-103.8,35-156.76,24.69-61,69.45-152,137.36-129.65,0,0-13.53,14.91-19.15,69.78-4.55,44.4-10.92,54.57-16.9,65.48s-21.48,59.5-19.72,88,1.19,53.72-7.81,61.47C499.72,467.93,401.75,481.58,391,469.59Z"/><path class="cls-7" d="M518.62,318.69s-7.49,6.71-2.76,14.27,7.82,9.19,15.64,9.19,11.75,3.58,21.6,2.94,22.33.3,37.11-6.41S606,333.61,625.34,328s26.52-10.13,28.57-21.67c1.52-8.56-8.94-14.73-15-13.5-13.09-.16-38.59,7.24-44,7.37-9.05.21-23.12,6.13-33.63,4.49s-24.37-4-30.58,1.31A78.16,78.16,0,0,0,518.62,318.69Z"/><path class="cls-8" d="M654.63,395.61c-1.45-29.5-10.52-59.64-2.68-81.24,0,0-57.22,3.74-60.8,5s-76.09,7.91-76.09,7.91-2.42,17.51-5.88,25.25-7.64,17.48-11,47.84-12.18,53.8-20,72.45a16.94,16.94,0,0,0-.93,3.21L461.61,475l-20,20.24L365.88,692.48s-8,76.68,0,88.24,29.71,22.62,40.31,16.46,24,5,35,1.84,30.25,4.32,47.93,5.89,27.47,5.92,39.15,6.92,33.19-2.22,41-5.92,8.19-9.52,6.42-14.39-3.11-5.44-5.06-17.69S563.84,764,564,751s-13.56-36-10.57-90.16c2.35-42.68,20.08-84.72,32.44-106.34,0,0,13.49-7.18,17.94-20.32s4.25-18.58,6.74-31.06,12.1-26.53,23.63-45.11S656.08,425.11,654.63,395.61Z"/><path class="cls-3" d="M363,482.46s2.47-5.66,4.84-4.32,0,5.66,0,5.66,2.26-3.09,4-1.14-5.79,14.8-14,18.83a37.43,37.43,0,0,1-2-14.4c.62-7.51,4.12-8.95,6.07-8.44S363,482.46,363,482.46Z"/><path class="cls-2" d="M364.69,484.62s-5,3.29-6.79,16.87"/><path class="cls-2" d="M298.55,507.54a17.12,17.12,0,0,1,2-10.49c2.92-4.81,8.4-7.12,7.38-12.92s-6.32-11.8-4.7-20.05,7.2-8.36,7-16.64-9.7-14.54-4.64-21.1,12.05-6.08,10.62-15.76-7-8-7.13-12.6,4.85-2.74,7.13-8.75c1.23-3.24,5.44-3.09,6.3.68s2.09,8.59,6.45,11.16,2.74,6.17-.83,8.24"/><path class="cls-2" d="M329,401.07a5.18,5.18,0,0,0,5.07-5.46c.05-5.38,5.41-8.76,8.89-5.23s-.34,8.77-3.82,10.69-4.06,8.8-2.25,12.27,6.79,21.47-5.26,30.27-4.06,19.95-4.06,24.82-4.69,12-1.1,18.12,8.86,11.8,4.5,21"/><path class="cls-6" d="M295.58,414.6s-7.24,3.79-7.71,12c0,0,18.93-.21,17.75-13.82,0,0,6.48-10.94-8.22-18.3,0,0-1.62,8.76,1.15,11.42,0,0-4.7-5.94-19.5-3.75C279.05,402.19,279.67,415.13,295.58,414.6Z"/><path class="cls-2" d="M287.5,406.92s5.93,5.25,18.12,5.9c0,0,5,1.19,6.54,5.57"/><path class="cls-6" d="M297.24,465.22s8.19,3.68,14.92,0c0,0-4.41,3.73-4.41,9.3,0,0,16.22-.71,12.74-18.07,0,0-.14-10.75-12.6-11.59,0,0,.43,9.12,4.27,12.18,0,0-10.08.13-14.92,8.18"/><path class="cls-2" d="M309.11,461.87s7.33-.23,11.38-5.42,7.07-6,7.07-6"/><path class="cls-6" d="M332.55,458.94s-8.83,2-9.29,16.51c0,0,8.14-.14,10.8-8.11,0,0,2.72,9.13,10.8,10.29,0,0,2-9.13-3.88-14.2,0,0,7.31.28,11.37-4.49C352.35,458.94,339.54,450.42,332.55,458.94Z"/><path class="cls-2" d="M327.56,452.87s1.39,5.19,5,6.07a23.65,23.65,0,0,1,9.63,13.76"/><path class="cls-6" d="M314.16,425.21c-2.77.84-10,5.55-7.12,17.16,0,0,6.76-.89,9.77-5.59,0,0,2.07,9.32,9.65,12.91,0,0,1.41-12.65-3.2-16.77,0,0,6.88.54,10.89-4.11C334.15,426.34,323.26,420.82,314.16,425.21Z"/><path class="cls-2" d="M322,440c-.12-.71-1.57-11.67-7.83-14.8s-2-6.82-2-6.82"/><line class="cls-2" x1="316.24" y1="377.91" x2="302.94" y2="509.93"/><line class="cls-2" x1="327.56" y1="375.25" x2="327.56" y2="512.41"/><line class="cls-2" x1="336.68" y1="380.05" x2="354.91" y2="509.93"/><path class="cls-6" d="M345.79,401.15s-12.22,7.6-6.66,21.82c0,0,9.05-3.67,8.28-10.91,0,0,.33,12.41,13.6,14,0,0,2.5-10.37-5.26-16.77,0,0,10,1.15,13.11-1.75C368.86,407.53,359.07,396.32,345.79,401.15Z"/><path class="cls-2" d="M356.39,419.85S348.63,397.66,339,396.8"/><path class="cls-6" d="M343.72,450.42s-4.72-17.93,16.52-20C360.24,430.41,362.38,445.7,343.72,450.42Z"/><path class="cls-2" d="M354.05,436a32.38,32.38,0,0,0-10.33,14.44"/><circle class="cls-3" cx="299.7" cy="442.68" r="10.56"/><path class="cls-2" d="M295.58,439a2.3,2.3,0,0,0-.9,2.11"/><path class="cls-2" d="M300.28,441.22a2.93,2.93,0,0,1,0,2.39"/><path class="cls-2" d="M298,446.28s.27,2.22,2.31,1.86"/><path class="cls-2" d="M305.52,444.86s.53,2.29-.8,3.32"/><path class="cls-2" d="M302.06,438.2s1.51.3,1.77,1.57"/><path class="cls-2" d="M298,435.18a1.81,1.81,0,0,1,1.16,1.6"/><circle class="cls-3" cx="328.57" cy="419.85" r="10.56"/><path class="cls-2" d="M331,414.84a2.32,2.32,0,0,0-2.29-.26"/><path class="cls-2" d="M330.14,420a3,3,0,0,1-2.3.69"/><path class="cls-2" d="M324.63,419.24s-2.05.89-1.12,2.74"/><path class="cls-2" d="M328.16,426.05s-2,1.18-3.41.2"/><path class="cls-2" d="M333.54,420.82a2.35,2.35,0,0,1-1,2.15"/><path class="cls-2" d="M335.26,416a1.8,1.8,0,0,1-1.2,1.56"/><circle class="cls-3" cx="357.12" cy="455.56" r="10.56"/><path class="cls-2" d="M359.24,451.16a2.3,2.3,0,0,0-1.77-1.47"/><path class="cls-2" d="M358.69,455.7a2.91,2.91,0,0,1-2.3.69"/><path class="cls-2" d="M352.77,456.26s-.72,2.12,1.28,2.68"/><path class="cls-2" d="M352.35,452.44s2.23-.78,3.4.43"/><path class="cls-2" d="M360.23,458.12a2.32,2.32,0,0,1-1,2.15"/><path class="cls-2" d="M364.18,456.42a1.79,1.79,0,0,1,1.53,1.24"/><circle class="cls-3" cx="339.8" cy="442.68" r="10.56"/><path class="cls-2" d="M334.15,441.06a2.3,2.3,0,0,1,1.81-1.41"/><path class="cls-2" d="M340.28,441.18a2.93,2.93,0,0,1,.17,2.39"/><path class="cls-2" d="M339.54,447.08s1.91,1.16,2.89-.67"/><path class="cls-2" d="M335.72,446.65s-.28-2.34,1.16-3.21"/><path class="cls-2" d="M343,440.2a2.34,2.34,0,0,1,1.89,1.43"/><path class="cls-2" d="M342.18,436a1.78,1.78,0,0,1,1.54-1.23"/><path class="cls-3" d="M352.14,488.43s-1.24-4.74,1.44-5.15,8.95,9.73,5.14,25.9c0,0-10.8-1.31-17.08-9.23s-7-13.17-4.53-14.3,5.55,2.62,6.59,4.63c0,0-3.11-7.82,1-8.85S352.14,488.43,352.14,488.43Z"/><path class="cls-2" d="M347.85,489.35s5.42,4.58,10.87,19.83"/><path class="cls-6" d="M255.7,788s30.21-45.88,48.49-150.69c13.05-74.76,35.08-140.9,86.78-167.69,32.71-16.95,90.62-2.74,86.8,9.66,0-.05-15.9,8.22-15.9,8.22-18.65,13.68-6.1,40.13-14.75,61.22-13.07,31.91-10.59,54.73-28.89,75.1S379.86,694.56,374,796.21C374,796.21,320.32,806.54,255.7,788Z"/><path class="cls-6" d="M194.62,658.08s-7.9,19.37-29.65,7.55C165,665.63,177.6,645.1,194.62,658.08Z"/><circle class="cls-8" cx="189.73" cy="669.58" r="11.99"/><path class="cls-6" d="M194.54,616.15s10.11,19-4.88,29.3C189.66,645.45,176.24,633,194.54,616.15Z"/><path class="cls-6" d="M199.1,653.83s11-11.88-4.85-26.18C194.25,627.65,183.73,647.78,199.1,653.83Z"/><path class="cls-6" d="M202.08,711.73s-12.2-15,1.89-24.18C204,687.55,216.27,698.26,202.08,711.73Z"/><path class="cls-6" d="M199.23,682.17s5.92,19.32-14.2,25C185,707.12,181.44,685,199.23,682.17Z"/><path class="cls-6" d="M230.09,706.33s5.52-19-10.55-25.52C219.54,680.81,210.17,699,230.09,706.33Z"/><path class="cls-6" d="M236.79,665.23s-20.85,5.51-25.69-16.63C211.1,648.6,230.62,643.07,236.79,665.23Z"/><path class="cls-6" d="M217.2,677.4s10.49-17-3.35-27.73C213.85,649.67,199.83,664.88,217.2,677.4Z"/><path class="cls-6" d="M219.92,629.67s3.33,19.36-20.54,21.87C199.38,651.54,199.12,627.67,219.92,629.67Z"/><path class="cls-6" d="M260.33,650.72s-9.76,16.75-29.55,4.84C230.78,655.56,243.58,638.49,260.33,650.72Z"/><path class="cls-6" d="M233.33,648.94s-15.77-11.9-2-29.37C231.32,619.57,247.05,629.71,233.33,648.94Z"/><path class="cls-6" d="M261,641.51s-20.23,2-25.21-22.69C235.76,618.82,254.52,615.41,261,641.51Z"/><path class="cls-6" d="M265.29,686.79s-18.13-4.71-12.32-23.65C253,663.14,269,665.87,265.29,686.79Z"/><path class="cls-6" d="M265.12,609s21.63,5.39,18.28,24C283.4,632.94,265,636.63,265.12,609Z"/><path class="cls-6" d="M306.54,662.35s-20,3.67-23.64-20.17C282.9,642.18,301.65,636.79,306.54,662.35Z"/><path class="cls-6" d="M287.28,668.64s-17.17-9.78-5.77-28.87C281.51,639.77,298.41,647.8,287.28,668.64Z"/><path class="cls-6" d="M315.27,628.6c.9,1-17.14,14.5-27.22-3.17C288.05,625.43,301,612.31,315.27,628.6Z"/><path class="cls-6" d="M294.29,596.62s7.14,23.06-11.82,28.35C282.47,625,271,610.79,294.29,596.62Z"/><circle class="cls-8" cx="209.8" cy="687.76" r="11.99"/><circle class="cls-8" cx="267.63" cy="660.82" r="11.99"/><circle class="cls-8" cx="212.77" cy="649.58" r="12.03"/><path class="cls-7" d="M298.78,620.21s-23.56,13-37.67,33.33l-1.73-5.65a94.87,94.87,0,0,1,35.6-30.7Z"/><path class="cls-7" d="M265.91,617.77s2.32,20.82-6.15,41.71c-13.84,34.17-.53,64.25,1.52,83.1,2.11,19.33,11.78,29.71.63,29.77-13,.07-21.77,2.27-19.58-14.81,2.58-20.15,6.07-47-2.29-58.08s-27.87-16-40.08-34a44.85,44.85,0,0,0-31-19.38l3.74-8.47s20.19,2.49,32.22,19.36c10,14,24.65,26.14,30.68,23.54s-2-11.67-5-22.16c-3.19-11.19-10.14-27.46-19.7-30.65l8.87-3.61s10.67,8.11,17.68,33c5.43,19.28,12.44,5.57,15.68-4.61s7.1-24.28,3.47-32.84Z"/><path class="cls-6" d="M318.59,614.12s-14.53,18-29.76.7C288.83,614.82,297.12,602.33,318.59,614.12Z"/><path class="cls-6" d="M272.27,605.2s-5.62,25.69-29.74,17C242.53,622.22,245.89,603.15,272.27,605.2Z"/><path class="cls-6" d="M234.87,595.72s2.65,23.58-19.94,25.86C214.93,621.58,211.5,601.08,234.87,595.72Z"/><path class="cls-6" d="M173.41,614s19.45,9.23,14.28,25.71C187.69,639.74,166.81,636.74,173.41,614Z"/><path class="cls-6" d="M160.49,648.85s19.87,7.89,28.17-9C188.66,639.83,171.29,628.38,160.49,648.85Z"/><path class="cls-6" d="M225.94,621.9s-4.9,18.2-30,5.58C196,627.48,210.64,611,225.94,621.9Z"/><circle class="cls-8" cx="293.37" cy="638.06" r="11.99"/><circle class="cls-8" cx="232.78" cy="621.47" r="11.99"/><circle class="cls-8" cx="233.18" cy="615.52" r="0.42"/><circle class="cls-8" cx="238.15" cy="625.39" r="0.42"/><circle class="cls-8" cx="226.85" cy="624.56" r="0.42"/><circle class="cls-8" cx="232.7" cy="621.82" r="0.42"/><circle class="cls-8" cx="232.21" cy="628.12" r="0.42"/><circle class="cls-8" cx="227.34" cy="618.24" r="0.42"/><circle class="cls-8" cx="238.64" cy="619.11" r="0.42"/><circle class="cls-8" cx="297.82" cy="634" r="0.42"/><circle class="cls-8" cx="294.2" cy="644.45" r="0.42"/><circle class="cls-8" cx="286.92" cy="635.77" r="0.42"/><circle class="cls-8" cx="292.96" cy="638.05" r="0.42"/><circle class="cls-8" cx="288.1" cy="642.09" r="0.42"/><circle class="cls-8" cx="291.79" cy="631.71" r="0.42"/><circle class="cls-8" cx="299.04" cy="640.42" r="0.42"/><circle class="cls-8" cx="267.74" cy="654.82" r="0.42"/><circle class="cls-8" cx="273.73" cy="664.11" r="0.42"/><circle class="cls-8" cx="262.41" cy="664.48" r="0.42"/><circle class="cls-8" cx="267.93" cy="661.14" r="0.42"/><circle class="cls-8" cx="268.11" cy="667.46" r="0.42"/><circle class="cls-8" cx="262.22" cy="658.14" r="0.42"/><circle class="cls-8" cx="273.55" cy="657.81" r="0.42"/><circle class="cls-8" cx="218.31" cy="646.75" r="0.42"/><circle class="cls-8" cx="213.04" cy="656.47" r="0.42"/><circle class="cls-8" cx="207.28" cy="646.71" r="0.42"/><circle class="cls-8" cx="212.86" cy="649.95" r="0.42"/><circle class="cls-8" cx="207.4" cy="653.14" r="0.42"/><circle class="cls-8" cx="212.75" cy="643.51" r="0.42"/><circle class="cls-8" cx="218.47" cy="653.28" r="0.42"/><circle class="cls-8" cx="189.17" cy="663.33" r="0.42"/><circle class="cls-8" cx="195.67" cy="672.28" r="0.42"/><circle class="cls-8" cx="184.39" cy="673.27" r="0.42"/><circle class="cls-8" cx="189.71" cy="669.63" r="0.42"/><circle class="cls-8" cx="190.25" cy="675.93" r="0.42"/><circle class="cls-8" cx="183.85" cy="666.96" r="0.42"/><circle class="cls-8" cx="195.14" cy="666" r="0.42"/><circle class="cls-8" cx="209.27" cy="681.46" r="0.42"/><circle class="cls-8" cx="215.77" cy="690.4" r="0.42"/><circle class="cls-8" cx="204.48" cy="691.4" r="0.42"/><circle class="cls-8" cx="209.8" cy="687.76" r="0.42"/><circle class="cls-8" cx="210.34" cy="694.05" r="0.42"/><circle class="cls-8" cx="203.94" cy="685.08" r="0.42"/><circle class="cls-8" cx="215.23" cy="684.12" r="0.42"/><path class="cls-7" d="M518.62,318.69s-7.49,6.71-2.76,14.27,7.82,9.19,15.64,9.19,11.75,3.58,21.6,2.94,22.33.3,37.11-6.41S606,333.61,625.34,328s26.52-10.13,28.57-21.67c1.52-8.56-8.94-14.73-15-13.5-13.09-.16-38.59,7.24-44,7.37-9.05.21-23.12,6.13-33.63,4.49s-24.37-4-30.58,1.31A78.16,78.16,0,0,0,518.62,318.69Z"/><path class="cls-3" d="M511.25,352.46c2.35-2.43,6.61.93,7.67,4.23,0,0-1.29-8.33,2.73-9s3.22,8.2,3.22,8.2.8-7.67,4.37-6.35,3.7,21.92-5.56,36C523.68,385.58,504.24,359.73,511.25,352.46Z"/><path class="cls-5" d="M521.71,358s5.28,10.95,2,27.57"/><path class="cls-1" d="M368.55,332.52c3.05-.12,4.93,5,5.59,8.82,0,0,.26-7,3.16-6.58s5.26,6.45,4.6,19.09-8,22.91-8,22.91-9.08-10.35-12.7-22.16-3.62-18.52-.73-19.18,5.8,5.66,5.8,5.66S365.2,332.65,368.55,332.52Z"/><path class="cls-5" d="M370.84,343.84s4.48,12.51,3,32.92"/><path class="cls-7" d="M522.7,234.46a12.72,12.72,0,0,0,6.1,4.29c3.84,1.14,8,6.26,18.92,8.25,12.54,2.28,17.35,6.26,19.2,9.25s5.41,9.53,8.39,8.67,1-6.68-.71-8.82-2.49-12.45,1.92-18.28c0,0-16.43-5.71-17.85-5.88s-17.92-2.72-19.34-2.58S522.7,234.46,522.7,234.46Z"/><path class="cls-3" d="M593.22,191.35c.14-4.18,5.26-5.3,8.3-3.79,0,0,3.54-9.17,13.82-4.6A30.19,30.19,0,0,1,633,162.41c14.87-6.1,25.54-1.52,29.61,3,0,0,11.62-3.14,17.71,3.75a14.67,14.67,0,0,1,3.41,14.16s7.93,1,8.57,8c0,0,1,8.21-11,6.87s-31.32.4-43.8-.51c-8-.58-27.23,2-31.58-.52,0,0-4.55,1.73-7-.91C599,196.19,593.05,196.84,593.22,191.35Z"/><path class="cls-5" d="M667.9,182.57s3.09-2.14,4.84.23-1.36,4.79-1.36,4.79"/><path class="cls-9" d="M536.87,201.47c5.1.33-3.85,13.27-9.43,14.81S530.91,201.08,536.87,201.47Z"/><path class="cls-9" d="M476.08,234.36c3.76.81-5,17.89-11.35,32.13s-8.46,22.31-13.08,21.16,7.69-26.16,11.73-32.51S473.39,233.79,476.08,234.36Z"/><path class="cls-9" d="M529.56,252.06c3.88,1.36-2.76,16.35-6.86,24.05s-7.33,13.57-10.45,13.46.76-13.46,4-18.75S525.71,250.71,529.56,252.06Z"/><path class="cls-9" d="M496.1,252c4.46,1.21-6.17,13.65-9.25,18.8s-5.77,8.79-3.08,10.71,11.55-13.35,15.2-10.71-7.12,22.26-11.35,28.8-12.5,26.74-16.35,49.63-13.66,22.89-16.54,21-8.83-13.66-12.78-2.93c-3.83,10.43-7.95,20-14,17.9-3.48-1.2,2-18,6.2-30.55s15.47-39.12,22.89-53.48C466.08,283.61,485.15,249,496.1,252Z"/><path class="cls-9" d="M364,676c3.27-.26,4.31,7.83,0,8C361.16,684,360.7,676.26,364,676Z"/><ellipse class="cls-9" cx="349.48" cy="689.57" rx="5.27" ry="6.39"/><path class="cls-9" d="M442.06,395.51c5.81,1.46,4.2,16.27.56,28.88S437.85,444,433.93,444s4.2-14.44.56-15.42-3.65,8.27-6.87,7S431.4,392.85,442.06,395.51Z"/><path class="cls-8" d="M650.09,417.62c-12.56,6.81-.18,15.31-18.57,21.18-15.07,4.81-37,3.27-49.78,2-11.62-1.18-20-4.81-32.18-6.78S537,426.48,537,426.46a10,10,0,0,0-1,2.45c-1.7,6.5,1.7,14.13,7.91,22.89s-1.13,25.72,9.9,27.82,16.39-4.36,38.43-17.36,33-10.23,52.47-16.88c14.43-4.92,22.48-21.39,21-30.92C658.63,412.85,650.11,417.62,650.09,417.62Z"/><path class="cls-7" d="M549.56,434c12.15,2,20.56,5.6,32.18,6.78,12.74,1.29,34.71,2.83,49.78-2,16.94-5.41,25.73-7.7,33.07-20.36a8.12,8.12,0,0,0-2.42-10.93l-.13-.08c-8-5-22,4.24-34.48,5.09s-20.35.28-27.41,1.41-18.94,4-28,3.11-5.59,2-16,2.67c-9.13.6-16.19,1.73-19.08,6.75C537,426.48,537.43,432,549.56,434Z"/><path class="cls-5" d="M592.15,450.89s-2.15,3-7.7,5.46c-7.16,3.22-9.43,11.58-18.14,13.13"/><path class="cls-5" d="M569.41,454.8s-1.24,5.49-6.11,7.52-5.58,4.17-6.18,5.61"/><path class="cls-5" d="M555,474.37a7.82,7.82,0,0,0,2.15-2.39"/><path class="cls-5" d="M564.8,472.39a10.88,10.88,0,0,1-2.55,2"/><path class="cls-9" d="M515.63,303.49c3.52,3.58-7.25,22-12.74,34s-1.53,12.27-8,19.64-12.19,9.92-9.07,2.27,9.07-10.49,7.65-20.53C491.72,326.76,512.31,300.09,515.63,303.49Z"/><path class="cls-6" d="M453.84,731s11.3-2,14.86,1.61-5,3.86-4.25,6.24,12.37-1.94,12.65,2.43-8.49.8-9.31,3.66,8.31,7.36,4.32,11.44-6.9-6.57-9.83-6.9-.7,8.6-5.17,7.94-1.8-6.74-3.21-10.12-2.8,5.23-5.94,3.39S446.32,738,453.84,731Z"/><path class="cls-2" d="M453.84,731s5.89,3.62,10.38,16.35"/><path class="cls-6" d="M429.66,729.33a6.82,6.82,0,0,0-7,.48c-3.74,2.82-1.62,5.51-6.26,6.52s-7.75,3.17-6.85,5.8,7.44-.47,7.93,2-5.72,9.19-1.88,12.08,8.32-8.45,10.88-7.62,3.21,6.45,6.59,5.22,3.42-10.2,2.51-14.13S431.58,730,429.66,729.33Z"/><path class="cls-2" d="M420.68,746.92s.56-11.51,9-17.59a4.57,4.57,0,0,1,1.89-4.21"/><path class="cls-6" d="M451.74,697s-13.39-.61-14.68,4.48,4.82,4.14,4.63,6.37-7.82,5.47-6.05,9.21,5.35.84,5.27,5.14,7.08,6.64,8.11-1.54,7.44-5.38,9.43-8.77S456.24,700.81,451.74,697Z"/><path class="cls-2" d="M455.53,693.25a7.48,7.48,0,0,0-3.79,3.72c-8.53,9.61-8,17.69-8,17.69"/><path class="cls-6" d="M475.39,698.15s-6.49-6.12-10.81-2.38,2,6.94,1.24,9-8.36,1-9.14,5.27,8.86,1.16,8.81,4.62-4.56,8.07-1.07,10.94,7.93-6.31,11.09-7.4c4.93-1.71,10.91,2.8,9.38-6.21S475.39,698.15,475.39,698.15Z"/><path class="cls-2" d="M467.62,717.87a26.51,26.51,0,0,1,9.65-18.33"/><path class="cls-6" d="M479.2,725.8s9.13.41,10.35,4.48-4.16,3.59-3.16,6.06,8.46,1.59,8,6.66-4.3,1.22-5.93,3.22,3.16,9.75-2.13,10.55c-4.3.65-2.94-7.09-5.48-7.9s-6.43,3.34-8.21-.13,6.15-7.25,4.65-10.12-6.54,1.19-7.7-2.6C468.33,731.81,479.2,725.8,479.2,725.8Z"/><path class="cls-2" d="M485,746.7s-.44-15.79-5.8-20.9"/><line class="cls-2" x1="436.53" y1="675.69" x2="423.58" y2="804.12"/><line class="cls-2" x1="456.21" y1="679" x2="450.36" y2="802.62"/><line class="cls-2" x1="473.45" y1="684.04" x2="487.43" y2="801.05"/><line class="cls-2" x1="453.08" y1="710.56" x2="454.97" y2="707.12"/><line class="cls-2" x1="476.13" y1="696.07" x2="474.61" y2="693.76"/><path class="cls-7" d="M433.6,696.6s-6.39-.64-9.19,6.88c0,0-7,2.06-7.12,8.86,0,0-6.27,4.41-2.66,9.53,0,0-5.4,7.63.85,10.54,0,0,1.57,4.71,5.49,1.75a7.49,7.49,0,0,0,4.87-7.74,8.26,8.26,0,0,0,4.32-6.88,10.88,10.88,0,0,0,3.64-10.81s2.67-3.57.29-7.09A4.49,4.49,0,0,0,433.6,696.6Z"/><path class="cls-2" d="M427.54,705.32s-5,3-3.52,6.92c0,0-6.16,3.65-3.39,9.14,0,0-5.05,3.68-1,7.76"/><path class="cls-2" d="M428,711.85s.87,2.37-1.9,4.09c0,0,1.56,3.94-2.82,7"/><path class="cls-2" d="M433.6,696.6a4.85,4.85,0,0,1,1.1-2.76"/><path class="cls-7" d="M453.08,710.56s-4.27,1.36-3.7,4.25c0,0-8.57,3.51-7.36,12.43,0,0-7.76,4.18-5.2,16.6,0,0-3.58,5.75.62,10.09-.9,4.74,5.29,8.22,8.08,2,0,0,3.35,0,3.72-5.87,0,0,4.25-1.33,2.9-6.25,0,0,5.17-3.81,1.18-12.14,0,0,4.12-4.68,1-8.72,0,0,2.62-3.62-.73-6.48A6,6,0,0,0,453.08,710.56Z"/><path class="cls-2" d="M448.7,721.93a8.06,8.06,0,0,0-3.16,9.09,8.34,8.34,0,0,0-2.42,9,7.55,7.55,0,0,0-2.29,8.15"/><path class="cls-2" d="M449.69,730.25s1.07,3.2-1.49,5a8.88,8.88,0,0,1-4,10.71"/><path class="cls-7" d="M476.13,696.07s-1.27,6.32,2,8.4c0,0-2.22,3.66.59,6,0,0-.81,5.76,3.81,5.47,0,0,0,10.34,8,11.42,0,0,1.64,5,6.77,2.4a5.75,5.75,0,0,0,2.9,1,4.2,4.2,0,0,0,4.3-5.31c-.41-1.5-1.77-2.93-4.06-3.9,0,0,.21-6.62-5.16-8.81,0,0,.83-6.59-5.86-7.64,0,0-1.38-4.68-5.79-4.08C483.67,701,483.37,696.22,476.13,696.07Z"/><path class="cls-2" d="M484.92,711.15s-.51,5.55,4.39,5.81c0,0,0,5,4.36,5.6"/><path class="cls-2" d="M484.17,704.56a5.54,5.54,0,0,1,4.43,5.7,8,8,0,0,1,6.12,8,7.86,7.86,0,0,1,4,7.65"/><path class="cls-7" d="M476.84,720.74a7.81,7.81,0,0,0-5.23,8.18s-4.2,1.13-3.73,6.49c0,0-4.41,4.19-2.66,8.88,0,0-4,5.2-.06,8.15,0,0-.58,3.6,1.8,4.22s3.06-3.44,3.06-3.44,4.68-1.7,3.56-6.34c0,0,4.2-3.6,2.37-7.18,0,0,3.57-5.43.59-8.41C476.54,731.29,480.41,725.45,476.84,720.74Z"/><path class="cls-2" d="M472.76,732.69s-2.63,1-1.83,5c0,0-2.66,1.7-2.17,6.38,0,0-2.44,3.08-1,5.44"/><line class="cls-2" x1="476.84" y1="720.74" x2="477.41" y2="717.16"/><path class="cls-7" d="M569.61,154s-10.19-1.28-11.35,6c-1,6,5.81,8.58,13.29,7.2s25.36-2.61,42-2.1,29.46,2.15,42.22,1.13,14.81-8.73,11.35-12.19-9.27,0-9.27,0,1.79-8.71-6.62-12.83c-7.4-3.62-15.81.79-15.81.79s0-12.32-15.34-17.93a45.05,45.05,0,0,0-37.77,3.4C573.93,132.21,565.32,143.22,569.61,154Z"/><path class="cls-5" d="M583.28,152.05s-2.91-7.6,3.08-10.32c4.44-2,8.87,2,9.38,5"/><path class="cls-7" d="M639,355s0,3,3.13,9.52c2.53,5.29.28,12.81,0,16.28s2.92,3.35,3.89,0,4.15-5.29,7.1-6.68c8.63-4,37.61-6.52,42.81-20.72H668.55Z"/><path class="cls-2" d="M645.83,361.59a10.71,10.71,0,0,1,1.73,8"/><path class="cls-2" d="M653.89,360.71s1,1.39-1.77,7.09"/><path class="cls-2" d="M655.11,367.8a20.25,20.25,0,0,1,8.9-7.09"/><path class="cls-2" d="M660.72,366.15s5.95-4.68,16.84-4.56"/><path class="cls-3" d="M192.58,473.9c-1.32-8.43,14.16-9.79,19.84-8.32,0,0,3.27-10.76,18.45-9.38,0,0,2.85-12.6,14.25-13.47,10-.77,14.2,7.52,17,12.24,0,0,22.53-2.58,28.58,9.5,3.21,6.41-.47,14-7.64,14l-79.24.79C200.71,479.39,193.5,479.75,192.58,473.9Z"/><path class="cls-1" d="M691.25,352.91a9.83,9.83,0,0,1,4.56.56c1.27-2.14.67-5.05-2.63-6.49a22.61,22.61,0,0,0-2.88-1c0,.12,0,.24,0,.36,0,3.54-5.5,6.4-12.29,6.4-5.67,0-10.42-2-11.85-4.71a68.56,68.56,0,0,1-15.73,3.4l-.35,0a3,3,0,0,1,.3,1.29c0,2.62-3.57,4.76-8.09,4.93a29.47,29.47,0,0,0,13.84,1,22.24,22.24,0,0,1,2.49-.37c.47-1.78,2.46-3.12,4.85-3.12a5,5,0,0,1,4.69,2.72c4.74,0,9.82.07,13.86.07.87,0,1.65,0,2.39,0C684.58,355.48,687.49,353.29,691.25,352.91Z"/><path class="cls-3" d="M650.41,352.74a3,3,0,0,0-.3-1.29c-5,.3-11.13-1.14-11.13,2.94,0,1.45,1.36,2.53,3.34,3.28C646.84,357.5,650.41,355.36,650.41,352.74Z"/><path class="cls-3" d="M663.5,355.18c-2.39,0-4.38,1.34-4.85,3.12,2.58-.28,6-.38,9.54-.4A5,5,0,0,0,663.5,355.18Z"/><path class="cls-3" d="M678,352.74c6.79,0,12.29-2.86,12.29-6.4,0-.12,0-.24,0-.36a34.8,34.8,0,0,0-15.49-.26,76.82,76.82,0,0,0-8.62,2.31C667.62,350.74,672.37,352.74,678,352.74Z"/><path class="cls-3" d="M695.81,353.47a9.83,9.83,0,0,0-4.56-.56c-3.76.38-6.67,2.57-6.81,5,6.28-.24,8.3-1.43,10.41-3.3A4.79,4.79,0,0,0,695.81,353.47Z"/><path class="cls-1" d="M574.77,232.5c-1.67,2.1-5.39,2.9-9.2,1.78-4.58-1.36-7.55-5-6.63-8.08a3.54,3.54,0,0,1,.18-.49,29.45,29.45,0,0,0-12.25-2.6c-6.31-.09-14.78.73-20.36,2.68a5.77,5.77,0,0,1,4.16,4.62,5.08,5.08,0,0,1-1,3.57A37.15,37.15,0,0,1,548,236.62c10,3.84,22,5.83,27.17,2.42C578.25,237,577.47,234.57,574.77,232.5Zm-26.85-.73c-2.38-.23-4.19-1.57-4-3s2.18-2.38,4.56-2.14,4.19,1.57,4.05,3S550.3,232,547.92,231.77Z"/><path class="cls-3" d="M530.67,230.41a5.77,5.77,0,0,0-4.16-4.62c-3.24,1.13-5.51,2.64-5.81,4.57-.26,1.59.42,5.12,4.83,4.27,1.31-.26,2.68-.49,4.13-.65A5.08,5.08,0,0,0,530.67,230.41Z"/><path class="cls-3" d="M565.57,234.28c3.81,1.12,7.53.32,9.2-1.78a23.15,23.15,0,0,0-7.28-3.42,69,69,0,0,1-8.37-3.37,3.54,3.54,0,0,0-.18.49C558,229.31,561,232.92,565.57,234.28Z"/><ellipse class="cls-3" cx="548.17" cy="229.21" rx="2.57" ry="4.32" transform="translate(266.19 752.2) rotate(-84.36)"/><path class="cls-2" d="M538.71,238.92s10.58,1.23,18,8.83"/><path class="cls-2" d="M552.41,240.42s6,2.83,7.6,6.54"/><path class="cls-2" d="M563.46,243a15,15,0,0,1,2.43,5.57"/><path class="cls-2" d="M567.87,243.33s1.43,2.65,1,4.42"/><path class="cls-9" d="M389.21,484.59c2.61,2.46-5.74,8.61-8.78,12s-4.73,4.22-5.24,6.25,2.2,2.7.85,4.89-18.59,26.13-21.88,22.94,3.45-14.83,12.41-26.32S386.17,481.72,389.21,484.59Z"/><path class="cls-9" d="M364.49,560.49c3.54,1.58-3.4,14.06-3.21,17.4s2.71,2.44,4.18-.24,4.26-8.17,7.06-6.84-1.11,17.9-6.62,33-8.29,24.88-11.16,24.63c-4.31-.38.36-7.68-2.68-8.87s-9.41,14.18-13.94,26.08-7.68,28.24-11.11,26.73,1.86-24.8,3.37-32.24C333.49,624.73,353.94,555.78,364.49,560.49Z"/><path class="cls-9" d="M337.07,570.71c3.15,1.41-2.31,20.41-7.07,26s-2.72-8.85-.82-13.88S334.35,569.49,337.07,570.71Z"/><path class="cls-9" d="M405.12,581.57A105,105,0,0,0,394.79,607c-3.47,12.72-1.54,12.14,0,12.52s6.36-10.59,9-19,3.94-11.59,5-9.92c2.62,4.09,6.46-2.78,9.12-11.46S410.45,571.75,405.12,581.57Z"/><path class="cls-8" d="M367.62,545.15s6.33,16.46,15.69,25.91,20.5,12.81,38.37,16.52,36.42,2.36,50.59,11.13,19.89,14.5,31.36,14.84,33.63.43,51.33-16.29c14.78-14,17-63.6,17-63.6l-81.84-4.76L377.5,538Z"/><path class="cls-7" d="M366.68,540.35c-.57,3.2.84,7.64,9,9.36,11.55,2.42,21.06,4.94,34.16,6.66s15.47,2.36,24.06,7.09,23.63,2.58,30.29-1.29,26.85-6,36.95-6.66,46.18,0,63.8-13.53-1.94-15.9-10.74-18.91-39.31-7.26-59.72-5.88-34-2.65-43.74-2.66c-14.81,0-27.84,1-39.27,5.32C398.82,524.62,369.16,526.6,366.68,540.35Z"/><path class="cls-1" d="M386.91,370.31s3.29-3.56,5.53-2,.53,10.53-6.85,18.7-9.48,9.77-9.48,9.77a63.24,63.24,0,0,1-1.84-20c.66-11.85,3.65-17.51,6.83-16.46s1.2,5.91,1.2,5.91,2.37-6.3,5.53-4.59S386.91,370.31,386.91,370.31Z"/><path class="cls-5" d="M383.6,373.23s-5.62,7-7.49,23.57"/><path class="cls-3" d="M346,356.83c3-2.87,9.22,2.91,11,7.12,0,0-4.41-12,0-14.08,4.75-2.21,10.2,10.19,10.85,14.08,0,0-3.24-13,1.29-14.18s8.58,7.38,8.74,26.31-.49,20.72-1.94,20.72-3.33-4-7.45-8.9C363.08,381.51,338.06,364.43,346,356.83Z"/><path class="cls-5" d="M375.93,396.8c-1.78-17.16-14.76-30.59-14.76-30.59"/><path class="cls-7" d="M574.75,503a25.47,25.47,0,0,0,3.12,11.54c2.33,4-1,12.44-1.44,16s1.86,5.85,4,2.28,4.71-9,13.13-10.12,30-3.74,40.08-10.13,11.06-6.83,11.06-6.83l-30.46-6.62Z"/><path class="cls-1" d="M642.6,497.67a24.78,24.78,0,0,1,5.64.65c-2.89-4-14.54-5.2-22.71-5.79-4.53-.33-9.61-1.64-14.79-2.63V490A6.89,6.89,0,0,1,597,490a7,7,0,0,1,.09-1,21.82,21.82,0,0,0-4.9,1.15,91.7,91.7,0,0,0-10.93,4.53,11.86,11.86,0,0,1,1.48-.1c5.35,0,9.69,3.39,9.69,7.58a7.24,7.24,0,0,1-4.07,6.17c7.11-.87,10.5,1.92,16.25.37s15.38,1.65,22.6.6a6,6,0,0,1-.34-2C626.83,502,633.89,497.67,642.6,497.67ZM616.69,505c-2.72,0-4.93-1.83-4.93-4.08s2.21-4.08,4.93-4.08,4.93,1.83,4.93,4.08S619.41,505,616.69,505Z"/><path class="cls-7" d="M588.32,508.29l-.24,0c-7.27,1-13-1.69-13.33-5.33s2.15-6.08,6.47-8.35"/><path class="cls-3" d="M592.39,502.12c0-4.19-4.34-7.58-9.69-7.58a11.86,11.86,0,0,0-1.48.1c-4.32,2.27-6.82,4.78-6.47,8.35s6.06,6.3,13.33,5.33l.24,0A7.24,7.24,0,0,0,592.39,502.12Z"/><path class="cls-3" d="M603.85,496.88a6.88,6.88,0,0,0,6.89-6.89v-.09a44.89,44.89,0,0,0-13.69-.94,7,7,0,0,0-.09,1A6.89,6.89,0,0,0,603.85,496.88Z"/><path class="cls-3" d="M648.7,501.5a3.32,3.32,0,0,0-.46-3.18,24.78,24.78,0,0,0-5.64-.65c-8.71,0-15.77,4.31-15.77,9.62a6,6,0,0,0,.34,2c.23,0,.46-.05.68-.09C635.12,507.81,646.52,508.05,648.7,501.5Z"/><ellipse class="cls-3" cx="616.69" cy="500.96" rx="4.93" ry="4.08"/><path class="cls-5" d="M582.55,511.74a8.2,8.2,0,0,1,1.41,6.82c-.82,4.36-2,4.71-2,4.71"/><path class="cls-5" d="M588.55,518a16.63,16.63,0,0,0,3.6-6.24"/><path class="cls-5" d="M594.2,516.87s3.3-3.37,5.42-4.07"/><path class="cls-5" d="M601.1,518s2.17-2.59,8-3.12,8.93-.8,10.71-3.12"/><path class="cls-1" d="M537.29,371.51s5.53-7.81,10.24-5.16-4,12.4-9.31,17-15,15.3-16,17.81-1.53-8.79,0-19.51,4.1-26,9.66-25.07.53,10.29.53,10.29,4.36-8.44,7.54-6.06S537.29,371.51,537.29,371.51Z"/><path class="cls-5" d="M533.85,371.51c-2.92,1.94-11.64,17.06-11.64,29.63"/><path class="cls-3" d="M496.43,372.83c2.95-4,11.65,1.32,14.69,6.88,0,0-7.67-11.11-4.1-14.42s10.05,4.5,11.64,13.62c0,0-3.31-11.9.66-11.9s11,15.66,2.38,34.48c0,0-6.14-7.85-12.43-11.07C498.66,385,492.73,377.86,496.43,372.83Z"/><path class="cls-5" d="M513.15,382.35S522,388,521.7,401.49"/><path class="cls-3" d="M469.9,615c-1-9,12.74-17.23,23.69-10.64,0,0-1.11-17.18,15.06-24.65a25.43,25.43,0,0,1,24.05.89s7.94-39.09,57.28-38.64,57.73,31.79,56.5,40.5c0,0,7.16-4.8,13.76-.27s5.35,12.58,5.35,12.58,16.9-1.69,24.48,10.8,4,18.73-8.12,19.89S588.63,629.3,568.36,628C536.89,625.86,472,634.08,469.9,615Z"/><path class="cls-5" d="M511.48,603.55s-.47-5.89,4.83-7.24,7.57,4.82,7.2,6.73"/><path class="cls-5" d="M598.7,574.35s6.45-3.92,11.9-1c6,3.3,4.35,9.76,4.23,12.22"/><path class="cls-5" d="M614.83,585.62c11.32-4,31.28,2.21,24.1,26.52"/><path class="cls-6" d="M517.33,723.09c-2.74,5.22-6.09,4.37-6.27,7.71s3,7.6,8.41,4.7,11.9-18.45,17.15-43.18,7.63-41.9,25.19-51.79S616.29,616,613,610.62s-54.28,28.23-62.38,29.07-3.47-15.35-3.11-22,.26-17.35-5-16,1,10.56-2.9,27-4.44,38.48-10.22,60.67C525.47,704.41,520.76,716.55,517.33,723.09Z"/><path class="cls-7" d="M537.72,713.08c-.05-7.38,9.64-9.3,15.88-8,0,0,5.51-27.77,37.08-28.41s34.17,22.22,34.17,22.22a22,22,0,0,1,18.82-3c8.92,2.72,11.72,11.26,11.72,11.26s18.09-2.89,20.17,5.29c1.37,5.37-4.15,12.95-27.35,9.54a76.62,76.62,0,0,0-17.32-.63c-7.79.64-18.8,1.33-26.59,1-13.31-.63-15.68-3.59-31.34-1.84C555.11,722.48,537.78,721.61,537.72,713.08Z"/><path class="cls-6" d="M585.41,701.52c6.18,3.23-7.5,29.64-5.4,36.33s8.4.51,12.3-2.1,31.05-26.24,34.73-22.38-17,18.07-21.22,20.57-19.93,11.5-26,15.4c-5.9,3.78-18.68,25.23-20.74,40.1a4.12,4.12,0,0,1-2.1,3.17,3.26,3.26,0,0,1-3.75-.45c-5.23-4.07,1-14.32,8.8-25.87s12.3-26.74,13.35-34.3S580.61,699,585.41,701.52Z"/><path class="cls-3" d="M502,805.62l-1.6,1.44c-3-3.34-8.19-1.94-8.24-1.92l-.58-2.08C491.79,803,498,801.29,502,805.62Z"/><path class="cls-3" d="M473.69,812.06l-2.1-.49c1-4.39-3.1-7.82-3.14-7.85l1.37-1.67C470,802.22,475,806.37,473.69,812.06Z"/><path class="cls-3" d="M465.91,814.52a10.61,10.61,0,0,1-1.23-.06l.26-2.48a18.86,18.86,0,0,0,16.21-7.86l2,1.5A21.56,21.56,0,0,1,465.91,814.52Z"/><path class="cls-6" d="M546.71,814.46c2.22-1.34,3.23-6.26-2-8.77s-4.83-6.85-11.65-8.05c-5.89-1-10.24,3.66-11,8.41-.58,3.9,1.14,10.11,11.18,8.41S543.14,816.62,546.71,814.46Z"/><path class="cls-5" d="M542.62,810a17.23,17.23,0,0,0-20.47-4"/><path class="cls-6" d="M510.87,775.77c3.61,1.08,2,7.25,3.71,9.61,4.15,5.63,5.24,19.77-11.69,21.08,0,0-9.28-3.08-8.41-12.12.66-6.77,6.34-7.65,8.74-11.25S506.5,774.46,510.87,775.77Z"/><path class="cls-5" d="M508.36,783.09s-6.95,8.1-5.47,23.37"/><path class="cls-6" d="M487,804.87s-9.73,1.41-8.17,9.46c1.95,10.13,13.31,3.57,16.84,7.7,2.49,2.92,5.27,3.81,6.73,2.83,2.66-1.8,2.67-4.72,0-7.7s0-5.13-3-9.24S490.77,802.48,487,804.87Z"/><path class="cls-5" d="M500.18,819.74s-4.51-11.82-16.06-14"/><path class="cls-6" d="M460.4,772c3.46-1.95,7.87.73,9.32,7,1.64,7.13,6.4,5.8,6.49,14.65.07,6.83-7.16,11.18-7.16,11.18s-1-2.87-6.45-4.6c-4.87-1.55-8-6.39-5.63-13.93C458.77,780.71,455.25,774.94,460.4,772Z"/><path class="cls-2" d="M464,779.64s7.92,9.08,5.08,25.23"/><ellipse class="cls-8" cx="524.28" cy="791.94" rx="12.62" ry="12.8" transform="translate(-411.19 627.84) rotate(-46.54)"/><ellipse class="cls-10" cx="528.2" cy="785.82" rx="2.03" ry="2.06" transform="translate(-405.53 628.77) rotate(-46.54)"/><ellipse class="cls-11" cx="528.2" cy="785.82" rx="0.61" ry="0.62" transform="translate(-405.53 628.77) rotate(-46.54)"/><ellipse class="cls-8" cx="454.08" cy="808.62" rx="14.43" ry="14.64" transform="translate(-465.63 927.78) rotate(-68.07)"/><ellipse class="cls-10" cx="459.89" cy="801.63" rx="2.74" ry="2.78" transform="translate(-455.5 928.79) rotate(-68.07)"/><ellipse class="cls-11" cx="459.89" cy="801.63" rx="0.82" ry="0.83" transform="translate(-455.5 928.79) rotate(-68.07)"/><ellipse class="cls-8" cx="484.12" cy="795.15" rx="11.82" ry="11.65" transform="translate(-143.25 107.37) rotate(-11.04)"/><ellipse class="cls-10" cx="481.63" cy="788.93" rx="1.9" ry="1.87" transform="translate(-142.11 106.78) rotate(-11.04)"/><ellipse class="cls-11" cx="481.63" cy="788.93" rx="0.57" ry="0.56" transform="translate(-142.11 106.78) rotate(-11.04)"/><ellipse class="cls-8" cx="512.79" cy="808.62" rx="12.49" ry="12.31" transform="translate(-440.55 897.86) rotate(-62.97)"/><ellipse class="cls-10" cx="519.6" cy="810.61" rx="2.01" ry="1.98" transform="translate(-438.61 905) rotate(-62.97)"/><ellipse class="cls-11" cx="519.6" cy="810.61" rx="0.6" ry="0.59" transform="translate(-438.61 905) rotate(-62.97)"/><path class="cls-3" d="M406.63,820.34s-11.56-.94-18.85-9.5-7.7-14.21-5.09-16.67,7.56-.78,10.18,3.13c0,0-2.06-10.82,3.3-11.51s5.92,9.78,5.92,9.78-.81-12.63,4.54-11.29S413.52,809.74,406.63,820.34Z"/><path class="cls-3" d="M398.24,802.86s2.49,12.32,8.39,17.48"/><path class="cls-3" d="M406.66,820.36s9.76-.25,15.88-5.68,6.81-9.31,5.43-11.16-5.13-.36-5.92.62,5.4-7.74,2.06-9.95-7,4.8-7,4.8,2.58-5.82-.68-6.71-8.28,3.82-9.76,11.24A46.88,46.88,0,0,0,406.66,820.36Z"/><path class="cls-3" d="M417.23,805.86s-1.79,7.95-10.57,14.5"/><path class="cls-6" d="M587.08,206.36a19.47,19.47,0,0,1-3.16,5.09c-1.93,2.07.82,3.88,4.12.71s4-4.83,4.54-7.45a34.18,34.18,0,0,1,9.22-16.5c6.33-6.06,7.57-5.86,11-12.15s10-4.22,15.82-11.52,5.67-8.11,4.49-9.35-9.31,10-11.79,10.87-3.57.27-2.06-3.3,5.37-8.26,3.44-9.91-9.57,15.16-14.19,20.22-8,9.05-10,7.76.82-7.89.14-12.3.82-15.49-1.65-15.79-2.21,5.89-2.07,10.57.63,10.81,0,16.64C593.82,190.13,590.52,194.12,587.08,206.36Z"/><path class="cls-6" d="M604.61,236a3.79,3.79,0,0,0,0,4.8c2,2.49,6.1-1.45,8.07-3.81S624.5,223.1,624.5,223.1s11.9-2.49,20.49-11.53a113.28,113.28,0,0,0,17.14-24.43c1.38-2.95-1.38-3.55-3.15-.79s-11.23,17.73-20.1,24.43-3.94-.39-2.56-2.56,6.06-9.85,7.84-16.55,2.25-8.55.29-8.94c-2.17-.43-7,18.65-8.92,19.18s-.11-15.45-2.41-15.51c-1.34,0-1.38.71-1.58,4.26s.14,11.25,1.58,14.41c0,0-7,11-12.36,16.74C612.88,230.28,606.88,233.58,604.61,236Z"/><path class="cls-1" d="M341.85,504.34s5.59-4.11,7.58-1.26-4.27,15.72-19.31,19.18c0,0-4.37-9.61-1.13-20.18,2.85-9.33,8.46-4.69,6.52-.94,0,0,3.65-8,7.5-5.06C345.54,498,341.85,504.34,341.85,504.34Z"/><path class="cls-2" d="M338.1,503.86s-6.13,5.94-8,18.4"/><path class="cls-3" d="M313,509.91s-10.34-4.16-12.34,0,15.8,12.55,29.94,12.35c0,0-1.39-10.57-3.66-15.65-2.51-5.66-5.12-10.55-8.07-9.49-3.86,1.38,1,8.59,1,8.59s-7.73-12.21-11.68-9.16S313,509.91,313,509.91Z"/><path class="cls-2" d="M330.63,522.26c-5.5-9.42-15-14.74-15-14.74"/><path class="cls-7" d="M350.5,650.71A58.92,58.92,0,0,0,378,671.37c18,6.21,26.13,19.07,27.81,22.6s2.86,4.88,5.55,4,3-4.54,1.35-11.1.84-11.44,4.54-14.81,18-15.88,21.14-22.48l-28.88-4.94H374.22Z"/><path class="cls-5" d="M374,660.84A100.38,100.38,0,0,0,385.39,667a37.8,37.8,0,0,1,15.27,13.73"/><path class="cls-5" d="M387.32,660.07s13.34,6.48,17.51,19.59"/><path class="cls-5" d="M403,656.65s1.85,11.75,5.55,16.38"/><path class="cls-5" d="M415,659.15s-3.15,7.27-2.78,13.88"/><path class="cls-1" d="M426.73,644.68a10,10,0,0,1-6.53-9.25c-5.71-.16-11.64.44-21.15-2.28a73.1,73.1,0,0,0-16.89-2.53c-.14,2.44-3.57,4.4-7.81,4.4-3.63,0-6.67-1.44-7.55-3.4a26.44,26.44,0,0,0-9,3.17,33.28,33.28,0,0,0-6.52,5.72,9,9,0,0,1,4.48-1.17,9.2,9.2,0,0,1,6.35,15.86c6.94,1.42,14.39,2.27,20.92-.75A33.83,33.83,0,0,1,405.38,652c1.12-2.66,4.14-6.76,12.06-6,8.1.77,10.81,5,11.72,7.78a17.91,17.91,0,0,0,7.39-2.2,5,5,0,0,0,2.44-4.27C436,647.54,431.67,646.66,426.73,644.68ZM400,645.94c-2.53,3.1-21.8.57-22.43-3.69-.39-2.66,5.78-5.21,13.79-3.63S402.56,642.84,400,645.94Z"/><path class="cls-3" d="M365,648.55a9.21,9.21,0,0,0-9.21-9.21,9,9,0,0,0-4.48,1.17,10.07,10.07,0,0,0-2,3.15c-1.47,4.52,1.06,8.92,6.33,10.11,2.07.46,4.24,1,6.46,1.43A9.16,9.16,0,0,0,365,648.55Z"/><path class="cls-3" d="M374.35,635c4.24,0,7.67-2,7.81-4.4a69.44,69.44,0,0,0-15.36,1C367.68,633.58,370.72,635,374.35,635Z"/><path class="cls-3" d="M417.44,646c-7.92-.75-10.94,3.35-12.06,6,.64.13,1.27.27,1.91.43a69.31,69.31,0,0,0,21.87,1.34C428.25,651,425.54,646.8,417.44,646Z"/><path class="cls-3" d="M391.4,638.62c-8-1.58-14.18,1-13.79,3.63.63,4.26,19.9,6.79,22.43,3.69S399.4,640.2,391.4,638.62Z"/><path class="cls-3" d="M428.32,636.56a32.57,32.57,0,0,0-8.12-1.13,10,10,0,0,0,6.53,9.25c4.94,2,9.29,2.86,12.26,2.66C439,643.3,434.74,638.36,428.32,636.56Z"/><path class="cls-3" d="M272,678.41c2.68-1.41,6.33,2,6.76,6.2,0,0,0-10,2.44-10.62s5.05,3.23,4.94,6.15c0,0-1-8.15,2.38-8.28s13.24,13.33-4.69,54.58c0,0-6.74-18-9.93-29S269.06,680,272,678.41Z"/><path class="cls-2" d="M283.65,684.1s4.75,13.15.19,42.34"/><path class="cls-1" d="M547.41,485.45c2.58.77,2,5.6-1.63,12.7s-4.07,25.38-2,29.11A42.3,42.3,0,0,1,531.12,507c-3.24-12.57-.14-21.77,3.23-22.15s3.91,5.85,3.91,5.85-.3-6.84,2.44-6.84,2.34,6,2.35,6.72S544,484.46,547.41,485.45Z"/><path class="cls-4" d="M538.26,494.54a38.56,38.56,0,0,0,5.56,32.72"/><polygon class="cls-9" points="488.02 499.49 497.34 525.13 504.15 523.54 497.56 496.28 488.02 499.49"/><path class="cls-12" d="M497.34,525.13s-4.17,2.3-3.67,4.09c.26.93,3.59.3,7-2.08,3.74-2.63,3.51-3.6,3.51-3.6Z"/><polygon class="cls-9" points="516.42 496.28 509.38 526.49 504.15 526.49 496.08 491.73 516.42 496.28"/><path class="cls-12" d="M504.15,526.49s-4.29,3.57-3.09,4.9c1.78,2,8.32-4.9,8.32-4.9Z"/><path class="cls-9" d="M464,436.46s-9.22,13.33-8.29,24.58c.33,4,4.12,9.4,11.54,6.62s7-28.59,5.41-31.2Z"/><path class="cls-1" d="M473.74,410.8s-4.87,12.31-10.38,18.6,7.64,12.42,10.38,10.38,9.12-22,5.26-29S473.74,410.8,473.74,410.8Z"/><path class="cls-5" d="M466.77,424.7A15.09,15.09,0,0,0,478,430.26"/><path class="cls-5" d="M464.31,428.25s4,7.87,11.7,7.73"/><path class="cls-5" d="M465,437.38s9.28-6.23,13-28.14"/><path class="cls-3" d="M488.77,387.24s28.66,9.51,48.21,39.22c18.84,28.62,20.14,57.67,20.14,57.67-7.83,12.68-47.39,20.29-87.32,13,0,0-2.83-79.61,9.2-105.32Z"/><path class="cls-8" d="M449,465.66l4.51,26.95a3.72,3.72,0,0,0,2.84,3c5.23,1.18,17.8,2.48,26.75-9.11a3.74,3.74,0,0,0,.24-4.16l-14.5-24.61Z"/><path class="cls-8" d="M470.19,462.94c2-2.32,6.45-.27,8.73,2.15s4.92,7.07,4.44,12c-.34,3.49-2,8.13-4.84,7.62s-1.52-2.91-.67-4.11,1-4.62-.4-8.18a7.5,7.5,0,0,0-5.6-5A2.74,2.74,0,0,1,470.19,462.94Z"/><path class="cls-8" d="M477.23,396.33c-1.46.75-2.22,3.61-1,6.33,2.72,6.07,13.91,29.29,24.49,39.42C513.15,454,524.19,462,529.44,464.26l2.06-2.9s-15.58-10.82-24.72-21.18a170.73,170.73,0,0,1-22.66-32.49C479.78,399.34,478.68,396.75,477.23,396.33Z"/><path class="cls-8" d="M530.59,466.37v8c0,1.95.33,4.29,2.32,4.21a104.66,104.66,0,0,0,10.55-1.22c1.13-.34,2.69-.62,2.86-3s.08-10.11.08-10.11Z"/><path class="cls-3" d="M537.87,468.29V471a1.18,1.18,0,0,0,1.34,1.17l.64-.09a1.18,1.18,0,0,0,1-1.16v-3.3Z"/><path class="cls-8" d="M543.13,459.52s-4.38-29.71-14.12-43.61a52.63,52.63,0,0,1,8.09,10.53c2.5,4.46,7.48,22.51,8.51,31.22C545.61,457.66,545.22,461.58,543.13,459.52Z"/><path class="cls-9" d="M497.18,441.5s-9.7,13-16.29,15.64-8.58,2.47-8.25,4.78,4.45,1.49,6.1,1.49,2.15,2,.66,3-5.6,4.61-3.79,9.06,6.27,7.43,16.16,2.81,19.46-15.5,23.42-28Z"/><path class="cls-8" d="M449,465.66c-.48-2.19,4.25-5.31,7.91-6.85s11-3.07,11.93-1.06-2.95,5.43-8.39,7.91S449.45,467.79,449,465.66Z"/><path class="cls-8" d="M426.83,478.15c3.25-2,5.93,1,12.51.7s10.94-2.38,13-2.66c3.88-.53,4.76,5.46,0,6.16s-11.62,3.92-14.56,8-6,3.36-9,.56S422.48,480.81,426.83,478.15Z"/><path class="cls-5" d="M430.7,480.57a9,9,0,0,1,3.66,7.75"/><path class="cls-9" d="M482.28,391.92s-1.16,8.5,3.31,8,2.26-9.92,1.5-11.35a19.6,19.6,0,0,0-2.16-3l-3.55,3Z"/><path class="cls-1" d="M507.22,406h0a4.61,4.61,0,0,1,2.84,1c4.29,3.31,16.67,15.51,11.19,42.94a2.7,2.7,0,0,1-3.47,2c-5.85-1.93-17.29-6.42-22.21-12-1.67-1.91-1.16-4.86-.24-6.35,6-9.75,4.89-19.9,7.89-25.3A4.53,4.53,0,0,1,507.22,406Z"/><path class="cls-5" d="M504.4,418.13s12.46-.29,16.83,7"/><path class="cls-5" d="M500.61,425.11s15.2.14,22,9.27"/><path class="cls-5" d="M498.05,432.06s17.32,4,24.14,11.92"/><path class="cls-5" d="M507.52,410.35s4.17,21.94-5,35"/><path class="cls-5" d="M512.82,415s6.5,19.13.5,35.43"/><polygon class="cls-8" points="481.38 368.93 484.44 362.99 487.5 365 484.85 370.5 481.38 368.93"/><path class="cls-12" d="M480.43,355.83c-.2-2.38.53-6.62,5.45-7.84a7.43,7.43,0,0,1,9.56,6.12c.38,2.77.57,4.11,2.67,4s4.4,2.2,2.58,5.45S493.43,368.63,488,366,480.78,359.86,480.43,355.83Z"/><path class="cls-5" d="M412.62,490.2A16.78,16.78,0,0,1,428.3,483"/><path class="cls-5" d="M416.06,503.63s.84-14.2,14-17.08"/><path class="cls-5" d="M431.39,490.2s-7.84,7.72-7.13,17.34"/><path class="cls-9" d="M490,378.63a17,17,0,0,0-1.26-3.38c-1.75,4.58-5.93,1.35-5.93,1.35-2.18,4.19-5.75,1-5.75,1-1,3.19-4.78,2.28-4.86,2.26a16.85,16.85,0,0,0,.46,3.09c1.65,6.53,6.86,10.84,11.65,9.64S491.67,385.16,490,378.63Z"/><path class="cls-12" d="M477.09,377.65s3.57,3.14,5.75-1c0,0,4.18,3.23,5.93-1.35-2.31-4.55-6.49-7.23-10.39-6.25s-6.45,5.6-6.15,10.91C472.31,379.93,476.05,380.84,477.09,377.65Z"/><ellipse cx="478.74" cy="385.29" rx="0.52" ry="1.09" transform="translate(-79.91 129.27) rotate(-14.21)"/><ellipse cx="481.11" cy="384.62" rx="0.52" ry="1.09" transform="translate(-79.68 129.83) rotate(-14.21)"/><path class="cls-6" d="M529.05,462.75c.47-.95,1.3-1.76,4-1.49,3.18.32,7.52,0,10.61-2.48,2.65-2.09,5.19-.28,4.38,2.38a11.32,11.32,0,0,1-8.47,7.06C533,469.71,527.78,465.29,529.05,462.75Z"/><path class="cls-6" d="M542.59,404.75a27.69,27.69,0,0,1,.29-3.39,30.17,30.17,0,0,1,.69-3.35,24.16,24.16,0,0,1,1.1-3.27,19.35,19.35,0,0,1,1.62-3.13,13.6,13.6,0,0,1,2.35-2.76,10.37,10.37,0,0,1,3.2-2,10.58,10.58,0,0,1,3.75-.66,7.23,7.23,0,0,1,2,.3,7.52,7.52,0,0,1,1.84.85,10.09,10.09,0,0,1,2.77,2.67,17.89,17.89,0,0,1,1.8,3.17,33.49,33.49,0,0,1,2.09,6.7,58.56,58.56,0,0,1,1,6.81c.1,1.14.18,2.28.22,3.42s.07,2.27,0,3.44h-1.81c-.09-2.16-.27-4.39-.52-6.58s-1.29-4.37-1.75-6.5a33.81,33.81,0,0,0-1.86-6.16,14.94,14.94,0,0,0-1.46-2.71,7.61,7.61,0,0,0-2-2.05,4.71,4.71,0,0,0-2.49-.85,8,8,0,0,0-2.86.39,10.21,10.21,0,0,0-4.77,3.6,25.41,25.41,0,0,0-3.18,5.66A46.89,46.89,0,0,0,542.59,404.75Z"/><path class="cls-6" d="M551.17,378.79a8.55,8.55,0,0,1,3.76.14,12.11,12.11,0,0,1,1.84.63c.29.13.58.29.87.44s.57.33.83.51a15.12,15.12,0,0,1,2.93,2.6,19.37,19.37,0,0,1,2.21,3.22,25.7,25.7,0,0,1,1.59,3.51,32,32,0,0,1,1.07,3.67,37.24,37.24,0,0,1,.93,7.48l-2.48.21c-.37-2.38-.73-4.74-1.25-7.05a33.59,33.59,0,0,0-2.14-6.68,18.17,18.17,0,0,0-1.66-3,15,15,0,0,0-2.21-2.62A11.23,11.23,0,0,0,551.17,378.79Z"/><path class="cls-6" d="M564.84,410.15c-.1-.95-.16-1.85-.19-2.78s-.06-1.84,0-2.76c0-1.84.11-3.68.3-5.53a38.08,38.08,0,0,1,1-5.54,19.54,19.54,0,0,1,2.23-5.39,9.45,9.45,0,0,1,2.08-2.36,7,7,0,0,1,3-1.4,7.05,7.05,0,0,1,1.64-.12,8.46,8.46,0,0,1,1.57.21,7.8,7.8,0,0,1,2.87,1.31,8.64,8.64,0,0,1,1.15,1,10.34,10.34,0,0,1,.93,1.19,11.45,11.45,0,0,1,1.29,2.6,14.73,14.73,0,0,1,.68,2.73,10.78,10.78,0,0,1,.15,1.38,10.59,10.59,0,0,1,0,1.38,24.43,24.43,0,0,0-2.16-4.88,9.85,9.85,0,0,0-3.31-3.54,6,6,0,0,0-2.1-.76,7,7,0,0,0-1.13-.08,4,4,0,0,0-1,.12,4.22,4.22,0,0,0-1.81.95,7.23,7.23,0,0,0-.76.8,11.3,11.3,0,0,0-.65.95,17.15,17.15,0,0,0-1.79,4.63,41,41,0,0,0-.92,5.13,93.38,93.38,0,0,0-.57,10.58Z"/><path class="cls-6" d="M577.3,409.06a7,7,0,0,0-3,.16,8.74,8.74,0,0,0-2.75,1.32,12.8,12.8,0,0,0-2.26,2,16.56,16.56,0,0,0-1.78,2.4l-.14.24v-1.64c0-.57,0-10.75.1-14.63s.06-7.78-.12-11.67q-.12-2.92-.4-5.83c-.21-1.95-.44-3.89-.83-5.84-.39,2-.62,3.89-.83,5.84s-.32,3.88-.4,5.83c-.17,3.89-.18,7.78-.12,11.67a.62.62,0,0,0,0,.13c-.07-.11-.12-.23-.19-.34A8.85,8.85,0,0,0,562,396a7,7,0,0,0-3.75-1.15,10.94,10.94,0,0,0-3.59.59,9.46,9.46,0,0,0-3.12,1.85A10.75,10.75,0,0,0,549.4,400a13.19,13.19,0,0,0-1.25,3.14,12.6,12.6,0,0,0-.41,3.28,22.85,22.85,0,0,1,1.34-2.92,17.13,17.13,0,0,1,1.71-2.57,10.63,10.63,0,0,1,2.13-2,8.43,8.43,0,0,1,2.51-1.21,8.66,8.66,0,0,1,2.77-.29,4.18,4.18,0,0,1,2.29.79,9,9,0,0,1,2.94,4.6,27.5,27.5,0,0,1,1.22,6c.1,1,.16,2.08.19,3.12,0,.43.07,11.31.1,14.93a1.18,1.18,0,0,0,1.17,1.16h0a1.18,1.18,0,0,0,1.17-1.14c0-1.51.1-3.34.1-3.34a16.57,16.57,0,0,1,.5-2.42,25,25,0,0,1,.82-2.49,23.22,23.22,0,0,1,2.35-4.67,13.23,13.23,0,0,1,1.65-2,8.29,8.29,0,0,1,2.06-1.48,6.64,6.64,0,0,1,2.5-.68,9.12,9.12,0,0,1,2.73.25A7.8,7.8,0,0,0,577.3,409.06Z"/><path class="cls-6" d="M580.16,404.75a25.83,25.83,0,0,1,.28-3.39,30.17,30.17,0,0,1,.69-3.35,25.64,25.64,0,0,1,1.1-3.27,19.35,19.35,0,0,1,1.62-3.13,13.6,13.6,0,0,1,2.35-2.76,10.37,10.37,0,0,1,3.2-2,10.62,10.62,0,0,1,3.75-.66,7.23,7.23,0,0,1,2,.3,7.52,7.52,0,0,1,1.84.85,10,10,0,0,1,2.77,2.67,17.89,17.89,0,0,1,1.8,3.17,34.19,34.19,0,0,1,2.1,6.7,60.75,60.75,0,0,1,1,6.81c.1,1.14.18,2.28.22,3.42s.07,2.27,0,3.44h-1.8c-.09-2.16-.28-4.39-.52-6.58s-1.3-4.37-1.76-6.5a33.81,33.81,0,0,0-1.86-6.16,14.94,14.94,0,0,0-1.46-2.71,7.73,7.73,0,0,0-2-2.05,4.77,4.77,0,0,0-2.5-.85,8,8,0,0,0-2.86.39,10.21,10.21,0,0,0-4.77,3.6,25.41,25.41,0,0,0-3.18,5.66A45.51,45.51,0,0,0,580.16,404.75Z"/><path class="cls-6" d="M588.73,378.79a8.6,8.6,0,0,1,3.77.14,12.37,12.37,0,0,1,1.83.63c.3.13.58.29.87.44s.57.33.84.51a15.36,15.36,0,0,1,2.92,2.6,19.37,19.37,0,0,1,2.21,3.22,25.7,25.7,0,0,1,1.59,3.51,32,32,0,0,1,1.07,3.67,37.24,37.24,0,0,1,.93,7.48l-2.48.21c-.37-2.38-.73-4.74-1.25-7.05a34.23,34.23,0,0,0-2.13-6.68,19,19,0,0,0-1.67-3,15,15,0,0,0-2.21-2.62A11.23,11.23,0,0,0,588.73,378.79Z"/><path class="cls-6" d="M602.4,410.15c-.1-.95-.15-1.85-.19-2.78s-.06-1.84-.05-2.76c0-1.84.11-3.68.3-5.53a39.47,39.47,0,0,1,1-5.54,19.54,19.54,0,0,1,2.23-5.39,9.45,9.45,0,0,1,2.08-2.36,7,7,0,0,1,3-1.4,7.05,7.05,0,0,1,1.64-.12,8.35,8.35,0,0,1,1.57.21,7.8,7.8,0,0,1,2.87,1.31,8.64,8.64,0,0,1,1.15,1,10.34,10.34,0,0,1,.93,1.19,11.45,11.45,0,0,1,1.29,2.6,14.73,14.73,0,0,1,.68,2.73,10.78,10.78,0,0,1,.15,1.38,9.08,9.08,0,0,1,0,1.38,24.43,24.43,0,0,0-2.16-4.88,9.85,9.85,0,0,0-3.31-3.54,6,6,0,0,0-2.1-.76,7,7,0,0,0-1.13-.08,4,4,0,0,0-1.05.12,4.22,4.22,0,0,0-1.81.95,7.23,7.23,0,0,0-.76.8,11.3,11.3,0,0,0-.65.95,17.15,17.15,0,0,0-1.79,4.63,43,43,0,0,0-.92,5.13A93.38,93.38,0,0,0,604.8,410Z"/><path class="cls-6" d="M614.86,409.06a7,7,0,0,0-3,.16,8.84,8.84,0,0,0-2.75,1.32,12.8,12.8,0,0,0-2.26,2,16.56,16.56,0,0,0-1.78,2.4l-.14.24v-1.64c0-.57,0-10.75.1-14.63s.06-7.78-.12-11.67q-.12-2.92-.4-5.83c-.2-1.95-.44-3.89-.83-5.84-.39,2-.62,3.89-.83,5.84s-.32,3.88-.4,5.83c-.17,3.89-.18,7.78-.12,11.67a.53.53,0,0,1,0,.13c-.07-.11-.12-.23-.19-.34a8.73,8.73,0,0,0-2.56-2.77,7,7,0,0,0-3.75-1.15,10.94,10.94,0,0,0-3.59.59,9.56,9.56,0,0,0-3.12,1.85A10.75,10.75,0,0,0,587,400a12.76,12.76,0,0,0-1.24,3.14,12.2,12.2,0,0,0-.42,3.28,22.85,22.85,0,0,1,1.34-2.92,17.13,17.13,0,0,1,1.71-2.57,10.63,10.63,0,0,1,2.13-2,8.16,8.16,0,0,1,5.28-1.5,4.18,4.18,0,0,1,2.29.79,9,9,0,0,1,2.94,4.6,27.5,27.5,0,0,1,1.22,6c.1,1,.16,2.08.19,3.12,0,.43.07,11.31.1,14.93a1.18,1.18,0,0,0,1.17,1.16h0a1.18,1.18,0,0,0,1.17-1.14c0-1.51.1-3.34.1-3.34a16.57,16.57,0,0,1,.5-2.42,25,25,0,0,1,.82-2.49,23.22,23.22,0,0,1,2.35-4.67,13.23,13.23,0,0,1,1.65-2,8.16,8.16,0,0,1,2.07-1.48,6.54,6.54,0,0,1,2.49-.68,9.12,9.12,0,0,1,2.73.25A7.8,7.8,0,0,0,614.86,409.06Z"/><path class="cls-6" d="M617.72,404.75a25.83,25.83,0,0,1,.28-3.39,30.17,30.17,0,0,1,.69-3.35,25.64,25.64,0,0,1,1.1-3.27,18.64,18.64,0,0,1,1.63-3.13,13.24,13.24,0,0,1,2.34-2.76,10.37,10.37,0,0,1,3.2-2,10.62,10.62,0,0,1,3.75-.66,7.18,7.18,0,0,1,2,.3,7.52,7.52,0,0,1,1.84.85,10,10,0,0,1,2.77,2.67,17.89,17.89,0,0,1,1.8,3.17,34.19,34.19,0,0,1,2.1,6.7,58.53,58.53,0,0,1,1,6.81c.1,1.14.18,2.28.23,3.42s.06,2.27,0,3.44h-1.8c-.09-2.16-.28-4.39-.52-6.58s-1.29-4.37-1.76-6.5a33.81,33.81,0,0,0-1.86-6.16,15.54,15.54,0,0,0-1.45-2.71,7.92,7.92,0,0,0-2-2.05,4.77,4.77,0,0,0-2.5-.85,8,8,0,0,0-2.86.39,10.26,10.26,0,0,0-4.77,3.6,25.41,25.41,0,0,0-3.18,5.66A46.86,46.86,0,0,0,617.72,404.75Z"/><path class="cls-6" d="M626.29,378.79a8.6,8.6,0,0,1,3.77.14,12.37,12.37,0,0,1,1.83.63c.3.13.58.29.87.44s.57.33.84.51a15.07,15.07,0,0,1,2.92,2.6,19.37,19.37,0,0,1,2.21,3.22,25.7,25.7,0,0,1,1.59,3.51,32,32,0,0,1,1.07,3.67,36.54,36.54,0,0,1,.93,7.48l-2.48.21c-.37-2.38-.73-4.74-1.25-7.05a34.23,34.23,0,0,0-2.13-6.68,19,19,0,0,0-1.67-3,15,15,0,0,0-2.21-2.62A11.23,11.23,0,0,0,626.29,378.79Z"/><path class="cls-6" d="M640,410.15c-.09-.95-.15-1.85-.19-2.78s-.06-1.84,0-2.76c0-1.84.11-3.68.3-5.53a39.47,39.47,0,0,1,1-5.54,19.54,19.54,0,0,1,2.23-5.39,9.45,9.45,0,0,1,2.08-2.36,7,7,0,0,1,3-1.4,7.05,7.05,0,0,1,1.64-.12,8.35,8.35,0,0,1,1.57.21,7.66,7.66,0,0,1,2.87,1.31,9.41,9.41,0,0,1,1.16,1,13.15,13.15,0,0,1,.93,1.19,11.84,11.84,0,0,1,1.28,2.6,14.73,14.73,0,0,1,.68,2.73,10.78,10.78,0,0,1,.15,1.38,10.59,10.59,0,0,1,0,1.38,25.62,25.62,0,0,0-2.16-4.88,10,10,0,0,0-3.32-3.54,6,6,0,0,0-2.1-.76,7,7,0,0,0-1.12-.08,4.05,4.05,0,0,0-1.06.12,4.22,4.22,0,0,0-1.81.95,6.34,6.34,0,0,0-.75.8,9.41,9.41,0,0,0-.66.95,16.81,16.81,0,0,0-1.78,4.63,39.3,39.3,0,0,0-.92,5.13,91.13,91.13,0,0,0-.58,10.58Z"/><path class="cls-6" d="M652.42,409.06a6.93,6.93,0,0,0-3,.16,8.79,8.79,0,0,0-2.76,1.32,12.8,12.8,0,0,0-2.26,2,16.56,16.56,0,0,0-1.78,2.4l-.14.24v-1.64c0-.57,0-10.75.1-14.63s.06-7.78-.12-11.67q-.12-2.92-.4-5.83c-.2-1.95-.44-3.89-.83-5.84-.39,2-.62,3.89-.82,5.84s-.33,3.88-.41,5.83c-.17,3.89-.18,7.78-.11,11.67v.13c-.07-.11-.12-.23-.19-.34a8.73,8.73,0,0,0-2.56-2.77,7,7,0,0,0-3.75-1.15,10.94,10.94,0,0,0-3.59.59,9.56,9.56,0,0,0-3.12,1.85,10.75,10.75,0,0,0-2.17,2.75,12.76,12.76,0,0,0-1.24,3.14,12.2,12.2,0,0,0-.42,3.28,22.85,22.85,0,0,1,1.34-2.92,17.13,17.13,0,0,1,1.71-2.57,10.9,10.9,0,0,1,2.13-2,8.16,8.16,0,0,1,5.28-1.5,4.21,4.21,0,0,1,2.3.79,9,9,0,0,1,2.93,4.6,27.5,27.5,0,0,1,1.22,6c.1,1,.16,2.08.19,3.12,0,.43.07,11.31.1,14.93a1.18,1.18,0,0,0,1.17,1.16h0a1.17,1.17,0,0,0,1.17-1.14c0-1.51.1-3.34.1-3.34a16.57,16.57,0,0,1,.5-2.42,25,25,0,0,1,.82-2.49,23.22,23.22,0,0,1,2.35-4.67,13.23,13.23,0,0,1,1.65-2,8.16,8.16,0,0,1,2.07-1.48,6.54,6.54,0,0,1,2.49-.68,9.12,9.12,0,0,1,2.73.25A7.8,7.8,0,0,0,652.42,409.06Z"/><path class="cls-6" d="M237.79,470.13c2.67-2.1,6.87,6.09,12.05,10.75s10.37,10.63,10.37,6.48-5.32-18.92-1.82-19.31,1.17,14.39,9.2,22.16,17.89,15,22.81,20.6,3.76,8,2.07,8.3-5.31,2.07-8.16-3.76-15-16.72-21.64-20.47a76.58,76.58,0,0,1-17.11-12.44C238.18,475.7,236,471.55,237.79,470.13Z"/><path class="cls-6" d="M419.06,527.39c2.21,1.19-2.53,8.28-2.53,8.28s7.45-5.2,8.9-2.45c2.15,4.1-13.27,6.65-15,10,0,0-.28-8,2.91-12.6C415.71,527.17,418.07,526.86,419.06,527.39Z"/><path class="cls-3" d="M395.46,513.12c4.72,3.12,11,6,13.68,18,0,0,1-8.93,6.17-15s7.14-10.44,4.64-11.75-6.39,3.7-7.33,9c0,0,1.7-13.46-2.27-13.24s-1.54,9.27-1.54,9.27-4.63-12.88-8.94-10.58,4.53,13.66,4.53,13.66-10.67-12.16-13.57-7.16C389.42,507.79,392.25,511,395.46,513.12Z"/><path class="cls-4" d="M406.83,514.89s2.43,5.51,2.31,16.28L410.3,542"/><path class="cls-6" d="M410.4,543.21A14.42,14.42,0,0,0,404,532c-6.38-4.21-9.23-2.18-8.68,0s4.61,4.4,4.61,4.4-6.52-2.36-7.46,0c-1.37,3.43,3.8,4.28,7.73,3.74S409.85,541.18,410.4,543.21Z"/><path class="cls-1" d="M542.41,542.4s-7,.1-16.14-10.74-7.38-17-4.66-18.22,6.76,1.36,9.3,6c0,0-1.92-8.39,2.55-8.77s5.91,12.84,5.91,12.84-2-11.66,1.5-11.27S548.82,531.13,542.41,542.4Z"/><path class="cls-4" d="M542.41,542.4c-6.94-4.77-10.91-17.27-10.91-17.27"/><path class="cls-3" d="M567.69,502.19c3.8,2.58-1.84,14.21-10.08,24.44-5,6.21-10.88,12.48-13.7,15.42a1.12,1.12,0,0,1-1.93-.66c-.58-5.8-2-20.73-1.7-29.3.32-10.81,2.27-18.48,6-18.14s3.89,7.67,3.38,9.72c0,0,3.07-9.89,7.84-8.87s1,11,1,11S563.75,499.52,567.69,502.19Z"/><path class="cls-4" d="M553.56,509.47a78.77,78.77,0,0,0-10.74,32.93"/><path class="cls-6" d="M624,293.69c.3-1.24,2.08-7.88,6.39-11.23a.63.63,0,0,1,.91.17c.87,1.4,3.81,4.37,10.93-1.6a.61.61,0,0,1,.89.11c1.27,1.77,6.05,7,16.67,5.19a.62.62,0,0,1,.57,1,16.29,16.29,0,0,0-4,12.4.6.6,0,0,1-.56.67A8.63,8.63,0,0,0,649,305c-2.91,4.94-19.5,7-25,0-5-6.34-1-10.25-.15-11A.65.65,0,0,0,624,293.69Z"/><path class="cls-2" d="M625.79,306.69C630.85,294.9,643.23,295,643.23,295"/><path class="cls-3" d="M610.2,310.09s5,6.62,17,5.59l0,1.63s-12.49,1.38-18.49-6.33Z"/><path class="cls-2" d="M650.28,282.65s1.5,2.9.37,5.06-2.8-1.19-3.74-.5,0,2.37-1.31,2.74-2-2.71-3.93-1.78.18,3.09-1.6,3.47-3.36-3.56-5.56-2.06-.18,3.84-1.33,6.09-4.41,4.65-9.18,3.65"/><path class="cls-2" d="M643.82,323.05s3.51-.84,4.58,1.52.91,3.73,2.13,3.65.91-3.34,3-3.65,1.37,3.74,3.73,3.66,1.59-3.05,3.34-3.35.84,3.12,2.36,2.89,2.66-3,2.74-5.48"/><path class="cls-2" d="M644.36,312.71a11.38,11.38,0,0,0,8.52-.39c4.34-2.13,3.27-4.79,5.33-5.09a1.9,1.9,0,0,1,2.28,1.67"/><path class="cls-8" d="M626.51,316.59c.08-2.91-4.7-4.54-1.84-9.28,2.7-4.47,6.12-1.55,9.66-3.7a.61.61,0,0,1,.88.29c.64,1.58,2.74,5,8.5,3.63a.61.61,0,0,1,.76.57c.07,1.21.76,3.53,4.79,4.93a8.49,8.49,0,0,1,5.72,6.85.6.6,0,0,1-.55.7c-2.48.22-11.49,1.43-11.65,7.79a.62.62,0,0,1-.79.57c-2.21-.66-8.39-2.12-11.57,1a.62.62,0,0,1-.89,0,21.68,21.68,0,0,0-3.74-3.34c-1.86-1.15-2.35-4.41-1.2-5.89A7.18,7.18,0,0,0,626.51,316.59Z"/><path class="cls-2" d="M626.51,316.59s8.45-4.54,19.32.6"/><path class="cls-6" d="M590.46,321.69a9.26,9.26,0,0,1,4.17,6.89.61.61,0,0,0,.77.56c1.71-.45,6-1.27,8.69.82a.6.6,0,0,0,.87-.1c.91-1.2,3.75-3.79,10.73-2.09a.62.62,0,0,0,.69-.89c-.77-1.5-1.55-4.34-.28-8.85a.62.62,0,0,0-.35-.74c-1.12-.51-3.74-2.31-3.65-8.22a.61.61,0,0,0-.15-.41l-7-8.09a.6.6,0,0,0-.75-.14l-13.66,7.21a.63.63,0,0,0-.33.54v13A.6.6,0,0,0,590.46,321.69Z"/><path class="cls-2" d="M612,323.92a24.44,24.44,0,0,0-11.8-8.61"/><path class="cls-3" d="M595.4,288.8a14.62,14.62,0,0,0,14.87,6.54v2s-10.83,1.92-16.14-7.4Z"/><path class="cls-8" d="M606.42,297c.33-.16-5.45-11.71,12.17-11.06a.6.6,0,0,1,.59.62c0,1.53.47,5.41,6.62,5.3a.62.62,0,0,1,.62.73c-.26,1.39-.55,4.38,1.34,6.62,2.35,2.77,4.6,5.45,5.28,8.75a.62.62,0,0,1-.64.74c-2.34-.16-9.26-.14-11.39,5.44a.61.61,0,0,1-1,.25c-1.44-1.16-5-3.41-9.24-1.43a.61.61,0,0,1-.86-.49c-.22-1.65-1.17-5-5.34-5.2C600,307,600.25,299.89,606.42,297Z"/><path class="cls-2" d="M606.42,297s8.39-3.4,17.58,4.66"/><path class="cls-2" d="M519.7,307.62s-1.24,2.8.33,3.29,2.9-3,4.4-2.25-.8,4.19.78,4.73,1.39-3.29,2.61-3.19c1.51.13.38,3,1.95,3.16,1.29.11,1.06-1.47,2.69-1.55,2-.09,3.09,2,4.18,4.24"/><path class="cls-2" d="M527.94,300.27s3.5-.79,6.43,3.05,6.76,3.58,10.39,2"/><path class="cls-2" d="M557.89,264.55s-2.22,2.52-.64,4,2.9-.73,3.62,0-1.25,1.91-.52,3.16,3.88-1.18,4.61-.59-1.45,2.5,0,3.95,3.56-2.44,4.42-1.18-1.52,3.23-.27,5.14,6,1.71,6,1.71"/><path class="cls-2" d="M612.11,280.69a1.61,1.61,0,0,0-3.1.1c-1,2.25.59,5.39-.75,8s-5.75,3.06-6.81,1.73"/><path class="cls-6" d="M598.91,291c-.43,2-1.7,10.27,6.21,12.47a.61.61,0,0,1,.23,1.07,7.34,7.34,0,0,0-2.86,6.55c.64,4.72.48,7.92-1,8.07s-6.41-7.49-12.66-5.73-20.74-10.41-12.2-20.94c7.68-9.48,19.68-3.46,22-2.16A.63.63,0,0,1,598.91,291Z"/><path class="cls-2" d="M575.57,293.89s12.76-.39,21.46,15.93"/><path class="cls-2" d="M602.46,335.21s.22,3.44-1,3.13-.61-2.7-1.9-3.13-1.24,3.28-3.1,2.82-.41-3.15-2-3.41-2.73,2.63-4,1.55.31-3.72-1-4.65-3.41,2.43-5,1.55.6-3.82-1.25-5.42-4.84,1.6-6.39-.31-1.18-5.73,0-7"/><path class="cls-6" d="M551.28,329.84c.36.71,6.46-.47,10,4.82a.61.61,0,0,0,.86.16A13,13,0,0,1,573.25,333a.61.61,0,0,0,.78-.65c-.25-2.46-.49-9,3.72-10.49,0,0-7.3-2-8.15-8.46,0,0-11-7.75-13.75-.42a.59.59,0,0,1-.59.39C553,313.28,543.2,313.79,551.28,329.84Z"/><path class="cls-2" d="M567.54,326.26s-2.32-10-11.84-12.87"/><path class="cls-6" d="M530,315c-.57-.24.62,7-4,10.14a.61.61,0,0,0-.08,1c1.23,1.2,3.57,4.56,1.17,11.52a.62.62,0,0,0,.84.77c2.59-1.26,8.28-3.2,13.62.43a.62.62,0,0,0,.85-.18c1.06-1.58,4.58-6.12,10.15-6.43a.62.62,0,0,0,.55-.39c.79-2.12,4.31-12.4-2.15-12.73a.61.61,0,0,1-.54-.43c-.43-1.43-2.2-5.93-7.45-5.11C538.87,314.13,535.63,317.24,530,315Z"/><path class="cls-2" d="M533.34,332.06s5.52-13.15,17.12-13"/><path class="cls-8" d="M557.54,315.05a12.26,12.26,0,0,1,2.73,5.83.61.61,0,0,0,.7.52c2-.31,8-.78,11.81,4.28a.6.6,0,0,0,.89.09c1.57-1.37,7-4.8,17,2a.61.61,0,0,0,.91-.29c.64-1.64,1.92-5.89.23-10-1.35-3.32-1-5.24-.56-6.2a.62.62,0,0,0-.51-.87c-2.53-.2-8.62-1.24-8.21-6.45a.61.61,0,0,0-.56-.67c-2.2-.15-9.31-1-10.21-6.48a.62.62,0,0,0-.67-.51c-3.2.36-18,2.87-13.65,18.52A.8.8,0,0,0,557.54,315.05Z"/><path class="cls-2" d="M557.39,305s15.81-3.11,25.89,13.52"/><path class="cls-2" d="M551.83,321.21s-.9-2.62.73-3.79,2.63-1.34,3-2.8-2-2.34-2.33-1.64,2.62,1.93,4.26.65-2.57-4.27-3.27-3,3.68,2.16,4.44.7-1.68-2.23-.88-5c.61-2.08,2.75-2.88,2.75-6.66"/><path class="cls-2" d="M568.51,302.1s3.12-.92,5.08.65,1.81,4.51,3.91,5.64,3.44-1.05,5.24,0,.15,3.36,1.42,4.64,2.25-1.5,3.29-.6-1,4,.38,5.16,4-2.17,4-2.17"/><path class="cls-8" d="M534.36,309.62s5.38,4.8-1,14.5c0,0,15.94-4.25,22.81.65,0,0-1.49-8.32,5.52-9.82,0,0-1.74-3.29,1.65-6.64,3.13-3.09.89-8.93-5.43-8.11,0,0-1.68-4.63-7.43-2.13S545.25,306.9,534.36,309.62Z"/><path class="cls-2" d="M541.9,317.47s4.86-16.6,19.72-16.88"/><path class="cls-2" d="M551.83,321.21s-.9-2.62.73-3.79,2.63-1.34,3-2.8-2-2.34-2.33-1.64,2.62,1.93,4.26.65-2.57-4.27-3.27-3,3.68,2.16,4.44.7-1.68-2.23-.88-5c.61-2.08,2.75-2.88,2.75-6.66"/><path class="cls-6" d="M572.86,290.15c.72-1.32,2.6-5.93-3.4-9.54a.62.62,0,0,0-.77.1c-1,1.06-4.69,3.83-13.31.81a.61.61,0,0,0-.78.4c-.59,1.82-3.05,7.13-12,8a.61.61,0,0,0-.26,1.13c3,1.8,8.53,5.9,8.31,11.86a.62.62,0,0,0,.82.59c2.69-.92,10.95-3.18,17.63.88a.59.59,0,0,0,.64,0c1.74-1.09,9.49-6.56,3.21-13.47A.62.62,0,0,1,572.86,290.15Z"/><path class="cls-2" d="M555.08,291.05s10.49-4.69,17.56-.52"/><path class="cls-8" d="M569,295.42c1.78-2.43,6-9.05,4-14.65a.61.61,0,0,1,.51-.82c2.56-.23,10.25-1.4,12-7.16a.62.62,0,0,1,.48-.44c1.5-.27,7.08-1,9.38,2.63,1.24,1.95.11,4.11-.78,5.33a.62.62,0,0,0,.46,1c2.13.09,6.36.72,8.48,4.09,2.56,4.09-.35,9.59-2.05,11.29a.61.61,0,0,1-.74.1c-1.58-.9-8-3.85-13.11,4.43a.61.61,0,0,1-1,.08c-1.3-1.46-5.46-4.66-17.21-4.9A.61.61,0,0,1,569,295.42Z"/><path class="cls-2" d="M577.75,290.53a23.14,23.14,0,0,1,16.08-9.23"/><path class="cls-6" d="M482.39,418.23l.6,1.21a.92.92,0,0,0,1.37.34l5.06-3.65a.93.93,0,0,0,.25-1.22l-.67-1.13a.93.93,0,0,0-1.33-.28l-5,3.57A.92.92,0,0,0,482.39,418.23Z"/><path class="cls-1" d="M196.9,714.29c3.91-1.65,7.28,2.73,9.83,10,0,0-2.73-14.16,1.64-14.81s14.38,14.63,9.28,63.77a228.47,228.47,0,0,1-25.12-33.67c-11.1-18.56.73-17.65,5.65-7.83C198.18,731.76,192.17,716.29,196.9,714.29Z"/><path class="cls-2" d="M204,729.58s12.7,19.52,13.65,43.68"/><path class="cls-3" d="M221.17,788.11s-6.89-21.34-5.92-35.87c.86-12.8,3.9-14.27,5.92-13.84s3.69,9.27,3.39,14.83c0,0-1.8-16,4.85-15s1.29,16,1.29,16,4.51-12.88,10.3-10.52S230.24,782.1,221.17,788.11Z"/><path class="cls-2" d="M226,755.57s-5.33,18.52-4.81,32.54"/><path class="cls-1" d="M263.32,692.54c4.47-1.13,6.63,6.39,6.79,11,0,0-.37-13.69,4-13.3s3.17,9.53,3.17,9.53,1-10.41,4.85-9.59.23,37.41-6.9,46.59C265.66,734,253.17,695.09,263.32,692.54Z"/><path class="cls-2" d="M273.35,702.23s3.4,14.4,1.87,34.49"/><path class="cls-3" d="M216.19,793.27S211,781.17,196,774s-17.92-15.61-14.12-18.26c4.07-2.83,14.69,4.15,18.15,9,0,0-10.95-15.09-5.76-18.49s13.25,13.29,13.25,13.29-6.34-13.23-1.16-15,16.42,27.18,17,44.56S218.45,798,216.19,793.27Z"/><path class="cls-2" d="M204,764.89c.91.18,14.33,9.86,16.45,34.42"/><path class="cls-6" d="M222.62,787.66s-7.25-1.65-9.55,4.61,2.3,11.53,12.19,13.84S243,810,253.59,813.68c17.7,6.18,32,3,44.48,3.3s26.35,2.64,42.83-3.3,28-7.57,25.69-20.09-17.79-17.13-17.46-31.3,1.65-20.1-3.95-24.38-12.92.8-12.92.8,7.43-17.18-1.9-29.84c-7.6-10.33-29.09-11.86-31.78,4.15-2.41-3.28-11.56-5.6-13.91,6.14,0,0-12.78-3.65-20.59,8.13-7.94,12-.54,26.91-.54,26.91S232.63,748.16,222.62,787.66Z"/><path class="cls-5" d="M284.67,719.16s3.95,1.18,4.4,5.19"/><path class="cls-5" d="M298.58,713s2.47,2.49,1.35,7.57"/><path class="cls-5" d="M282.66,772.23a24.23,24.23,0,0,0-19.12-18"/><path class="cls-5" d="M275.43,795.17s-3.25-15.64,5.43-21.84,20.38.21,20.38,11.65"/><path class="cls-5" d="M332.26,738.71s-2.81,7.75-5.94,11.18"/><path class="cls-9" d="M315.58,743.18c2.35,1.12,1.34,12.08-2.09,17.31s-7.18,2.9-7.91-1.66C304.7,753.25,310.85,740.92,315.58,743.18Z"/><circle class="cls-9" cx="321.32" cy="732.75" r="1.84"/><path class="cls-3" d="M359.05,792.56s-10.55-11.67-14.63-20.82-4.36-18.42,0-20.11,6.89,8,6.89,8-.48-12.41,4.9-13.09,6.18,11.4,6.18,11.4.71-11.68,7.69-9.85S369.88,778.36,359.05,792.56Z"/><path class="cls-3" d="M356.21,761.48s5,16.17,2.84,31.08"/><path class="cls-1" d="M386.24,776.67c3.83,3.2-4.79,20.8-10.57,28.89s-12.87,13.54-18.82,15.27-3-25.17,0-35.08,7.43-18.82,11.23-17.66-1,11.06-1,11.06,4.79-14.2,10.07-12.38-4.13,19-4.13,19S382.28,773.37,386.24,776.67Z"/><path class="cls-5" d="M370.41,787.57c-4.17,5.18-12.73,20.51-13.56,33.26"/><path class="cls-3" d="M338.18,811.65c5.52,5,13.12,8,16.39,9.15a2,2,0,0,0,2.46-1c5.48-10.6,3.65-31.34.67-39.68-2.24-6.25-6.44-10.41-9.52-7.91-2.11,1.71.5,14.58.5,14.58s-3.31-12.21-8.92-9.9,2.64,16.25,2.64,16.25-8.25-8.82-12.87-4.7S329.1,803.51,338.18,811.65Z"/><path class="cls-3" d="M346.37,795.74s12.14,12.47,9.79,25"/></svg>