<?xml version="1.0" encoding="utf-8"?>
<!-- Generator: Adobe Illustrator 22.1.0, SVG Export Plug-In . SVG Version: 6.00 Build 0)  -->
<svg version="1.1" id="圖層_1" xmlns="http://www.w3.org/2000/svg" xmlns:xlink="http://www.w3.org/1999/xlink" x="0px" y="0px"
	 viewBox="0 0 643.7 987.3" style="enable-background:new 0 0 643.7 987.3;" xml:space="preserve">
<style type="text/css">
	.st0{fill:#60472A;stroke:#000000;stroke-width:0.43;stroke-miterlimit:10;}
	.st1{fill:#ECB36F;stroke:#000000;stroke-width:0.43;stroke-miterlimit:10;}
	.st2{fill:#4B8E32;stroke:#000000;stroke-width:0.43;stroke-miterlimit:10;}
	.st3{fill:#CBD13A;stroke:#000000;stroke-width:0.43;stroke-miterlimit:10;}
	.st4{fill:none;stroke:#000000;stroke-width:0.43;stroke-miterlimit:10;}
	.st5{fill:#FFEED6;stroke:#000000;stroke-width:0.43;stroke-miterlimit:10;}
	.st6{fill:none;stroke:#1D842F;stroke-width:0.43;stroke-miterlimit:10;}
	.st7{fill:none;stroke:#FBC600;stroke-width:0.43;stroke-miterlimit:10;}
	.st8{fill:#FFFFFF;stroke:#000000;stroke-width:0.43;stroke-linejoin:round;stroke-miterlimit:10;}
	.st9{opacity:0.95;fill:#FFFFFF;}
	.st10{opacity:0.95;fill:#FFFFFF;stroke:#000000;stroke-width:0.43;stroke-linejoin:round;stroke-miterlimit:10;}
	.st11{fill:none;stroke:#D9180A;stroke-width:0.43;stroke-miterlimit:10;}
	.st12{fill:none;}
	.st13{fill:none;stroke:#FFEED6;stroke-width:0.43;stroke-miterlimit:10;}
</style>
<g>
	<path class="st0" d="M402.1,726c-39.7,6.6-92.1,11.8-101.7,13.1c-11.4,1.4-45.3,14.1-52.7,63.6c-9.7,65.1-36.4,45.9-59.2,65.6
		c-20.2,17.5-27.1,63.8-81.4,46.5c9.1,6.3,19.4,9.9,29.7,11c21.8,2.4,36.7,10.6,47.2,24.6c11.7,15.6,35.2,22.9,60.3,9.7
		c37.3-19.7,46.9-0.4,80.1,11.2c19.1,6.7,67.8,3.9,109.2,3.6c16.4-0.1,22.8-21.1,9.5-30.6c-4.5-3.1-8.7-6.4-12.8-9.9
		c-17.8-15.3-30.6-34.1-29.8-61.3c2.1-72.5,90-86.9,135.9-121.3c15.8-11.8,26.6-26.1,27.2-45.8C556.8,724.1,456.9,716.9,402.1,726z"
		/>
	<g>
		<path class="st1" d="M425.8,770.5c-42.5,1.4-72.6,14.7-92.8,32.2c-17.3,15-44.7,17.7-44.7,54.8c0,37.8,28.6,33.1,51.5,56.5
			c28.2,28.9,72.4,16.1,90.6,20.2c-17.8-15.3-30.6-34.1-29.8-61.3c2.1-72.5,90-86.9,135.9-121.3
			C526.7,755.3,476.2,768.8,425.8,770.5z"/>
	</g>
	<path class="st2" d="M192.2,868.5c20.3-14.3,50.6-0.5,60.5-67.1c7.5-50.6,50.6-63.9,55.3-64.7c-35.5,5.4-74,8.9-126.1,8
		c-154-2.6-175.2-33.2-175.2-33.2s-0.7,23.8,29.4,51.2C66.2,790.2,78.9,803,79.9,855c0.6,29.7,12.8,49.6,29.2,61
		C164.5,933.7,170.4,883.8,192.2,868.5z"/>
	<g>
		<path class="st3" d="M144.1,540l-8.4-1.1c-2.6,19.5-12.2,27.9-17.4,31.1c-3.2-3.5-6.7-6.2-10.5-8.6l0.2-0.1
			c-19.3-26.4-7.4-45.8-6.8-46.6L94,510c-0.6,0.9-12,18.9-0.2,44.1c-12.3-5.8-23.8-11.5-28.7-27.2l-8.1,2.5
			c6.1,19.6,20.8,26.5,33.7,32.7c19.6,9.3,36.5,17.3,29.8,64.7l8.4,1.2c3.5-25,0.5-40.7-5.7-51.2C130.3,572.3,141.2,562,144.1,540z"
			/>
		<g>
			<path class="st1" d="M59.4,530c0,0,3.6-20,25.4-18.4C84.8,511.6,80.4,534.4,59.4,530z"/>
			<path class="st1" d="M57.3,498.2c0,0-14.9,21.8,1.6,30.5C59,528.7,73.5,518.6,57.3,498.2z"/>
			<path class="st1" d="M30,514.4c0,0,7.2,20.3,28.6,15.1C58.7,529.5,54.3,510.2,30,514.4z"/>
			<circle class="st0" cx="58.7" cy="529.1" r="8.3"/>
		</g>
		<g>
			<path class="st1" d="M67.7,492.8c0,0,4.3,23.5,27.7,24.5C95.4,517.3,95.9,496.7,67.7,492.8z"/>
			<path class="st1" d="M96.8,516.5c0,0,12.9-14.9,29.6,2.1C126.3,518.6,106.1,533.1,96.8,516.5z"/>
			<path class="st1" d="M92.1,516.5c0,0-1-20.8,23.5-26.5C115.6,490,111.8,518.8,92.1,516.5z"/>
			<path class="st1" d="M94.5,519.3c0,0,19.3-3.8,22,19.9C116.5,539.1,91.7,538.1,94.5,519.3z"/>
		</g>
		<g>
			<path class="st1" d="M130.7,544.6c0,0-2.4,18.9,17.9,23.7C148.6,568.2,150.7,546.3,130.7,544.6z"/>
			<path class="st1" d="M129.5,540.4c0,0-5.1-19,18.4-23.2C147.9,517.2,148.5,542,129.5,540.4z"/>
			<path class="st1" d="M131.1,539.4c0,0,5.4,17.4,30.3,10.9C161.4,550.4,149.4,531.6,131.1,539.4z"/>
			<path class="st1" d="M110.3,561.7c0,0,9.6-20.9,22.3-15C132.6,546.7,135.4,564.2,110.3,561.7z"/>
			<circle class="st0" cx="131.3" cy="543.4" r="8.3"/>
		</g>
		<g>
			<path class="st1" d="M96.8,566.8c0,0,14.6,9.9,24.8-9.7C121.7,557.1,101.7,549.8,96.8,566.8z"/>
			<path class="st1" d="M97.7,567.4c0,0,1.4,18.5,23,19.3C120.8,586.7,117.1,564.9,97.7,567.4z"/>
			<path class="st1" d="M95.2,569.4c0,0,13.6-12.8-4.3-28C91,541.4,78.8,560.4,95.2,569.4z"/>
			<path class="st1" d="M97.8,567.2c0,0-15.5,7.2-7.3,28.3C90.6,595.5,108.7,583.4,97.8,567.2z"/>
			<path class="st1" d="M71.5,576.5c0,0,7.1-15.2,25.8-9.3C97.4,567.1,91.5,585.8,71.5,576.5z"/>
		</g>
		<g>
			<path class="st1" d="M23.3,534.6c0,0,16-17,35.1,1.4C58.4,536,42.8,550.5,23.3,534.6z"/>
			<path class="st1" d="M57.4,537.9c0,0,11.5,15.6,33.2-2.6C90.6,535.3,70.8,520,57.4,537.9z"/>
			<path class="st1" d="M61.1,539.2c0,0-14.9,10.8,2.2,31.6C63.3,570.8,78.1,552.1,61.1,539.2z"/>
			<path class="st1" d="M32.6,564.4c0,0,25.7-2.9,25.8-28.5C58.4,535.8,33.7,536.4,32.6,564.4z"/>
		</g>
		<circle class="st0" cx="98.6" cy="569.9" r="8.3"/>
		<circle class="st0" cx="58.8" cy="539.5" r="8.3"/>
		<circle class="st0" cx="94.3" cy="519" r="8.3"/>
	</g>
	<path class="st1" d="M288.2,290.6L287,290l-23.3,38c-3.7-41.2-9.4-82-18.2-114.6l-33,1.9c0.5,8.4,4.7,38.4,7.5,80l-44.4-66.9
		l-3.2,1.9l49,88c0.5,10.4,0.9,21.3,1.1,32.6c0.5,27.3,0,56.8-2.5,86.9c-2.6,32-7.3,64.7-15.2,96l64.9-7.2c0,0,2.4-89.2-4.6-181.5
		L288.2,290.6z"/>
	<g>
		<polyline class="st4" points="163.2,318.8 218.7,447.3 227.4,510.8 		"/>
		<line class="st4" x1="200" y1="346.4" x2="197.1" y2="397.3"/>
		<line class="st4" x1="156.4" y1="396.2" x2="210.6" y2="428.6"/>
		<line class="st4" x1="214.4" y1="362.5" x2="218.7" y2="447.3"/>
		<line class="st4" x1="240.7" y1="385.9" x2="217.4" y2="421.3"/>
		<line class="st4" x1="223.7" y1="484.8" x2="245.4" y2="449.3"/>
		<line class="st4" x1="153" y1="346.4" x2="193.1" y2="388"/>
		
			<ellipse transform="matrix(2.922013e-02 -0.9996 0.9996 2.922013e-02 -205.7453 678.9286)" class="st3" cx="246.7" cy="445.4" rx="5.9" ry="5.7"/>
		<line class="st4" x1="174.8" y1="369" x2="138.5" y2="361.9"/>
		
			<ellipse transform="matrix(2.922013e-02 -0.9996 0.9996 2.922013e-02 -197.6721 485.5471)" class="st0" cx="151.1" cy="344.5" rx="2.8" ry="2.7"/>
		<line class="st4" x1="231.3" y1="472.4" x2="246.8" y2="463.9"/>
		
			<ellipse transform="matrix(2.922013e-02 -0.9996 0.9996 2.922013e-02 -151.512 563.7084)" class="st0" cx="214.5" cy="359.9" rx="2.8" ry="2.7"/>
		
			<ellipse transform="matrix(2.922013e-02 -0.9996 0.9996 2.922013e-02 -221.0712 698.0698)" class="st0" cx="248.9" cy="462.8" rx="2.8" ry="2.7"/>
		
			<ellipse transform="matrix(2.922013e-02 -0.9996 0.9996 2.922013e-02 -244.8386 537.5357)" class="st0" cx="154.3" cy="394.8" rx="2.8" ry="2.7"/>
		
			<ellipse transform="matrix(2.922013e-02 -0.9996 0.9996 2.922013e-02 -144.6998 529.463)" class="st3" cx="200.2" cy="339.2" rx="7.1" ry="7"/>
		
			<ellipse transform="matrix(2.922013e-02 -0.9996 0.9996 2.922013e-02 -142.6844 612.6168)" class="st3" cx="244.1" cy="379.8" rx="7.1" ry="7"/>
		
			<ellipse transform="matrix(2.922013e-02 -0.9996 0.9996 2.922013e-02 -232.3735 481.9903)" class="st3" cx="132" cy="360.6" rx="7.1" ry="7"/>
		
			<ellipse transform="matrix(2.922013e-02 -0.9996 0.9996 2.922013e-02 -155.919 464.174)" class="st3" cx="161" cy="312.4" rx="7.1" ry="7"/>
	</g>
	<path class="st0" d="M603.3,270.9l-1.3-1l-20.6,22.4l-1.3-21.6h-1l-1.6,25.8l-17.3,18.9c1.9-35.3,2.6-72.9,1.4-111.9l-23.5,3.2
		c0,0-2.5,20.3-7.7,52.5c-2.8,17.4-6.5,38.4-11,61.5c-8.4,43.3-19.8,94.3-34.4,144.1l36.4,110.4c0,0,28.1-99.9,37.6-241.2
		L603.3,270.9z"/>
	<path class="st1" d="M391.9,180c0,0,4.8,32.3,4.6,82l-37.2-37.9L357,226l39.2,54.1c-1.6,54-9.6,123.8-34.2,194.4l93.5-1.5
		l6.7-286.6L391.9,180z"/>
	<path class="st0" d="M401.6,306.7l-1.1-0.8l-40.4,46.9c-2.1-66.4-6.5-143.6-15.8-186.8H308c5.9,41,5.5,91.1,0.3,140.2l-29.4-34.4
		L280,236l-1.3-0.2l-6.5,28.3l-17.5-20.4l-3.2,2.4l54,82.3c-7.5,54.1-20.8,105.2-38.1,139.8l94.5,6.4c0,0,0.2-43.5-1.2-99.4
		L401.6,306.7z"/>
	<path class="st3" d="M549.8,689c-13-18.6-50.1-76.2-45.1-123c6.1-56.6-29.3-133.6-123.5-136.5c-161.1-4.9-140.2,132.8-333.5,239.3
		c-18.4,7.7-42,22-41,42.7c0,0,15.1,33.5,165.7,37.9c98.9,2.9,120.3-20.6,241.3-13.7c38.5,2.2,150.4,0.1,150.1-30.7
		C563.7,699.5,558.7,694.1,549.8,689z"/>
	<g>
		<g>
			<path class="st2" d="M357.2,380.2c6.5,2.1,9.2,10.5,3.7,20.6c-5.5,10.1,0.2,10.5-3.5,15.6s-12.4,3.6-14.3,10.8
				c-1.9,7.1-7.3-16.3-1.1-36.2C345.4,380.4,352.4,378.7,357.2,380.2z"/>
			<path class="st2" d="M312.7,377.2c5.6-3.9,17.3-3.4,21.1,9.2c4.2,13.8,10.8,11.6,11.7,22.7c0.8,8.8-3.7,19.4-3.7,19.4
				s-3.2-5.7-11.3-5.7c-7.3,0-11.8-2.7-12.4-9.4c-0.8-9.8-5.8-8.4-10-16.4C303.4,387.6,308.6,380.2,312.7,377.2z"/>
			<path class="st4" d="M322.6,390.8c13.5,13.4,21,29.8,20.2,53"/>
		</g>
		<g>
			<path class="st2" d="M430,395.9c6.5,2.1,9.2,10.5,3.7,20.6c-5.5,10.1,0.2,10.5-3.5,15.6s-12.4,3.6-14.3,10.8
				c-1.9,7.1-7.3-16.3-1.1-36.2C418.2,396.1,425.2,394.4,430,395.9z"/>
			<path class="st2" d="M385.5,392.9c5.6-3.9,17.3-3.4,21.1,9.2c4.2,13.8,10.8,11.6,11.7,22.7c0.8,8.8-3.7,19.4-3.7,19.4
				s-3.2-5.7-11.3-5.7c-7.3,0-11.8-2.7-12.4-9.4c-0.8-9.8-5.8-8.4-10-16.4C376.2,403.3,381.3,395.9,385.5,392.9z"/>
			<path class="st4" d="M395.4,406.5c13.5,13.4,21,29.8,20.2,53"/>
			<path class="st4" d="M418.3,424.1c2.5-8.9,5.5-14.1,5.5-14.1"/>
		</g>
		<g>
			<path class="st2" d="M424.3,448.2c6.5,2.1,9.2,10.5,3.7,20.6c-5.5,10.1,0.2,10.5-3.5,15.6s-12.4,3.6-14.3,10.8
				c-1.9,7.1-7.3-16.3-1.1-36.2C412.5,448.4,419.5,446.6,424.3,448.2z"/>
			<path class="st2" d="M379.8,445.1c5.6-3.9,17.3-3.4,21.1,9.2c4.2,13.8,10.8,11.6,11.7,22.7c0.8,8.8-3.7,19.4-3.7,19.4
				s-3.2-5.7-11.3-5.7c-7.3,0-11.8-2.7-12.4-9.4c-0.8-9.8-5.8-8.4-10-16.4C370.5,455.5,375.7,448.1,379.8,445.1z"/>
			<path class="st4" d="M389.7,458.7c13.5,13.4,21,29.8,20.2,53"/>
			<path class="st4" d="M412.6,476.3c2.5-8.9,5.5-14.1,5.5-14.1"/>
		</g>
		<g>
			<path class="st2" d="M311,419.3c6.5,2.1,9.2,10.5,3.7,20.6s0.2,10.5-3.5,15.6c-3.7,5.1-12.4,3.6-14.3,10.8
				c-1.9,7.1-7.3-16.3-1.1-36.2C299.3,419.5,306.2,417.7,311,419.3z"/>
			<path class="st2" d="M266.8,417.1c5.6-3.9,17.3-3.4,21.1,9.2c4.2,13.8,10.8,11.6,11.7,22.7c0.8,8.8-3.5,19.4-3.5,19.4
				s-3.4-5.7-11.5-5.7c-7.3,0-11.8-2.7-12.4-9.4c-0.8-9.8-5.8-8.4-10-16.4C257.5,427.5,262.6,420.1,266.8,417.1z"/>
			<path class="st4" d="M276.7,430.7c13.5,13.4,21,29.8,20.2,53"/>
			<path class="st4" d="M299.3,447.4c2.5-8.9,5.5-14.1,5.5-14.1"/>
		</g>
		<g>
			<path class="st2" d="M292.7,475.5c6.5,2.1,9.2,10.5,3.7,20.6c-5.5,10.1,0.2,10.5-3.5,15.6c-3.7,5.1-12.4,3.6-14.3,10.8
				c-1.9,7.1-7.3-16.3-1.1-36.2C281,475.7,287.9,474,292.7,475.5z"/>
			<path class="st2" d="M248.5,473.4c5.6-3.9,17.3-3.4,21.1,9.2c4.2,13.8,10.8,11.6,11.7,22.7c0.8,8.8-3.5,19.4-3.5,19.4
				s-3.4-5.7-11.5-5.7c-7.3,0-11.8-2.7-12.4-9.4c-0.8-9.8-5.8-8.4-10-16.4C239.2,483.7,244.3,476.3,248.5,473.4z"/>
			<path class="st4" d="M258.4,486.9c13.5,13.4,21,29.8,20.2,53"/>
			<path class="st4" d="M281,503.6c2.5-8.9,5.5-14.1,5.5-14.1"/>
		</g>
	</g>
	<g>
		<g>
			<path class="st5" d="M227.9,527.4l-8,4.3l-7.7-4.7l-3.3,4.4c0,0,6.9,5.8,6.5,19.1l3.9,0.1l3.9,0.1c0.4-13.2,7.6-18.7,7.6-18.7
				L227.9,527.4z"/>
			<line class="st4" x1="219.6" y1="538.4" x2="219.7" y2="532.6"/>
			<path class="st1" d="M239.3,516.5c0.2-0.7,0.4-1.5,0.4-2.3c0.1-5.1-3.9-9.4-9-9.5c-0.5,0-0.9,0-1.3,0.1c-0.9-4.1-4.4-7.2-8.8-7.3
				c-4.3-0.1-8.1,2.8-9.2,6.8c-0.3,0-0.7-0.1-1.1-0.1c-5.1-0.1-9.4,3.9-9.5,9c0,0.8,0.1,1.5,0.2,2.2c-2.9,1.1-5.2,3.7-5.7,7
				c-0.9,5,2.5,9.8,7.5,10.7c3.6,0.6,7.1-0.9,9.1-3.8c1.6,2.5,4.4,4.2,7.6,4.3c3.2,0.1,6.1-1.5,7.8-3.9c1.6,2.5,4.4,4.2,7.6,4.3
				c5.1,0.1,9.4-3.9,9.5-9C244.6,521.3,242.5,518,239.3,516.5z"/>
		</g>
		<path class="st2" d="M193.7,541.4c1.4-6.2,8.2-6.8,11.1-4.1c3.5,3.2,3.6,8.4,12.5,9.5c5.6,0.6,3.6,7.8-6.8,7.6
			C197.4,554.1,192.6,546.3,193.7,541.4z"/>
		<path class="st2" d="M245.4,542.4c-1.2-6.2-7.9-7.1-11-4.6c-3.7,3.1-4,8.3-12.9,9c-5.6,0.4-3.9,7.6,6.5,7.9
			C241.2,555,246.4,547.3,245.4,542.4z"/>
	</g>
	<g>
		<path class="st4" d="M48.1,590.4c0,0,40.5,19.9,27.9,62.9"/>
		<circle class="st3" cx="46.3" cy="589.4" r="2.1"/>
		<circle class="st5" cx="59.3" cy="586.8" r="3.6"/>
		<circle class="st5" cx="46.3" cy="606.1" r="4.8"/>
		<path class="st4" d="M68.5,608c0,0-6.6,5.8-18.1,0.7"/>
		<path class="st4" d="M63.9,602.4c0,0,3.2-6.3-2.4-12.8"/>
		<path class="st4" d="M72.7,614.4c0,0,5.2-3.3,6.5-12.4"/>
		<circle class="st3" cx="79.5" cy="600.4" r="1.8"/>
	</g>
	<g>
		<path class="st4" d="M128.7,430.7c32.6,26.4,60.9,89.4,55.3,136.5"/>
		<path class="st5" d="M138.2,409.2c0,0-13.2,7.4-9.6,21.6C128.6,430.8,141.8,426.2,138.2,409.2z"/>
		<path class="st5" d="M105.8,427.1c0,0,9.7,12,23,3.7C128.8,430.8,122.2,421.1,105.8,427.1z"/>
		<path class="st5" d="M145.1,447.6c0,0-16.3-7.7-37.4,4.1C107.7,451.7,127.6,465.4,145.1,447.6z"/>
		<path class="st5" d="M156.2,416.4c0,0-19,14-10.8,31.2C145.4,447.6,163,442.6,156.2,416.4z"/>
		<path class="st5" d="M158.6,467.3c0,0-1.4-24.2,22.9-37.8C181.5,429.5,184.2,454.3,158.6,467.3z"/>
		<path class="st5" d="M109.9,477.8c0,0,34.1,11.6,48.7-10.5C158.6,467.3,135.8,460.1,109.9,477.8z"/>
		<path class="st5" d="M172.4,495.7c-2-6.7,3-41.2,35.5-56.3C207.9,439.4,212.2,482.2,172.4,495.7z"/>
		<path class="st5" d="M107.1,502.2c-1,0.6,38.1,20.6,65.2-6.5C172.3,495.7,145.9,478.7,107.1,502.2z"/>
	</g>
	<g>
		<path class="st1" d="M124.7,771.6l8.7,0.2c2.1,0.1,3.7,2.1,3.1,4.2c-0.9,3-3.8,6.4-12.8,6.2L124.7,771.6z"/>
		<path class="st0" d="M123.9,771.5l1.5-2.5c1.3-2.2-0.2-4.9-2.7-4.9l-17.3-0.4c-7-0.2-13.7,2.3-18.9,7h0L123.9,771.5z"/>
		<path class="st0" d="M96.2,793.6C96.2,793.6,96.2,793.6,96.2,793.6c0,0,4.8,6.4,12.8,6.4c0.6-3.9-0.4-6.6-0.6-7.3
			c-3.4,0.6-7.1,1-11.2,0.9C96.9,793.6,96.6,793.6,96.2,793.6z"/>
		<path class="st5" d="M128.8,771.6l-42.3-1l0,0c0,0,0.8,2.4,0.7,5.6c-0.2,3.7-1.7,8.5-7.1,12.2c4.4,3,9.9,5.2,16.7,5.5
			c0.2,0,0.5,0,0.7,0c3.1,0.1,6-0.2,8.6-0.6C126.4,789.7,128.7,771.8,128.8,771.6z"/>
		<path class="st0" d="M87.8,776.9l-1.5,0c-0.6,2.4-1.8,5.1-4.4,7.4l5.7,0.1c2.1,0,3.8-1.6,3.9-3.7v0
			C91.5,778.7,89.9,776.9,87.8,776.9z"/>
		<path class="st1" d="M86.5,770.6L86.5,770.6l-17.3-0.4c-1.7,0-2.9,1.8-2.1,3.4c2,3.8,6.1,10.1,12.7,14.7c0.2,0.1,0.5,0.1,0.6,0
			c0.5-0.4,1-0.8,1.5-1.2c2.8-2.5,4.2-5.2,4.8-7.8c0.3-1,0.4-2.1,0.4-3C87.3,773,86.5,770.6,86.5,770.6z"/>
		<circle cx="74.6" cy="774.5" r="0.8"/>
	</g>
	<g>
		<path class="st5" d="M165.2,799.1l-9.5,0.1c-2.3,0-4.1,2.2-3.5,4.5c0.9,3.2,4,7,13.8,7L165.2,799.1z"/>
		<path class="st5" d="M166.1,799.1l-1.6-2.8c-1.3-2.4,0.4-5.3,3.1-5.3l18.8-0.1c7.6,0,14.9,2.8,20.4,8h0L166.1,799.1z"/>
		<path class="st5" d="M195.7,823.6C195.7,823.6,195.7,823.6,195.7,823.6c0,0-5.3,6.8-14,6.8c-0.5-4.3,0.5-7.2,0.8-7.9
			c3.7,0.8,7.7,1.2,12.1,1.2C195,823.6,195.4,823.6,195.7,823.6z"/>
		<path class="st1" d="M160.8,799.1l46-0.2l0,0c0,0-1,2.6-0.8,6.1c0.1,4,1.6,9.3,7.5,13.4c-4.8,3.2-10.9,5.5-18.3,5.7
			c-0.3,0-0.5,0-0.8,0c-3.4,0-6.5-0.3-9.4-0.9C163,818.9,160.8,799.3,160.8,799.1z"/>
		<path class="st5" d="M205.2,805.6l1.6,0c0.6,2.7,1.9,5.6,4.6,8.2l-6.2,0c-2.3,0-4.1-1.8-4.1-4.1v0
			C201.1,807.5,202.9,805.6,205.2,805.6z"/>
		<path class="st0" d="M206.8,798.8L206.8,798.8l18.8-0.1c1.9,0,3.1,2,2.2,3.7c-2.3,4.1-6.8,10.9-14.1,15.7c-0.2,0.1-0.5,0.1-0.7,0
			c-0.6-0.4-1.1-0.9-1.6-1.3c-3-2.7-4.4-5.8-5.1-8.6c-0.3-1.1-0.4-2.3-0.4-3.3C205.8,801.4,206.8,798.8,206.8,798.8z"/>
		<circle cx="219.6" cy="803.2" r="0.9"/>
	</g>
	<path class="st6" d="M295.8,741.6c-0.1,0-0.2,0-0.4,0.1C295.5,741.7,295.7,741.7,295.8,741.6z"/>
	<path class="st7" d="M295.9,741.6L295.9,741.6C295.9,741.6,295.8,741.6,295.9,741.6C295.8,741.6,295.9,741.6,295.9,741.6z"/>
	<path class="st7" d="M380.1,537.9C380.1,537.9,380.1,537.9,380.1,537.9C380.1,537.9,380.1,537.9,380.1,537.9L380.1,537.9z"/>
	<path class="st7" d="M380.1,537.9C380.3,539.7,380.3,539.6,380.1,537.9L380.1,537.9z"/>
	<g>
		<path class="st8" d="M385.8,366.6c-1.1-10.3-12.9-8-16.2-20.9c-1.8-7-4.8-21.2-19.7-19.2c-13.5,1.8-13.7,26.2-18.9,32.5
			c-4.5,5.5-5.9,18.1,12.7,21.4c-1,2.8-2.4,6.3-3.8,10.4c0.5,2.9,1.2,7.8,1.4,13.4c0.2,4.3,7.5,8.1,11.3,0
			c2.6-5.6,7.8-15.1,11.3-17.8c-0.9-1.9-1.9-3.7-2.9-5.5C382.4,379.7,386.4,372,385.8,366.6z"/>
		<circle class="st9" cx="369.8" cy="581.6" r="52.5"/>
		<circle class="st10" cx="326.1" cy="563" r="52.5"/>
		<path class="st0" d="M321.1,488c0,0-38.6,11.9-48.1,43.2l86.3,39.9c0,0,21.4-27.9,50.4-23.8c0,0-2.4-22.7-15.6-35L321.1,488z"/>
		<g>
			<path class="st8" d="M322.1,426.3c0,0,2.6,1.4,6.2,0.7c3.6-0.7,6.8-21.9,6.8-21.9S323.1,419.7,322.1,426.3z"/>
			<path class="st8" d="M327.2,435.9C327.2,435.9,327.2,435.9,327.2,435.9c-2.3,0.2-4.3-0.1-5.8-0.5c-0.4-0.1-0.8-0.3-1.1-0.6
				c-1,2.8-10,27.9-10.4,45.2c-0.4,17.7,3.6,27.7,16.1,25.3c9.6-1.9,3.3-18,1.4-29.9C325.2,462.1,325.5,445.2,327.2,435.9z"/>
			<path class="st8" d="M322.1,426.3c0,0-1.9,2.6-2.6,6c-0.2,1,0.2,1.9,0.8,2.5c0.3,0.3,0.7,0.5,1.1,0.6c1.4,0.4,3.5,0.7,5.8,0.5
				c0.3,0,0.5,0,0.8-0.1l0.3-8.8C324.6,427.7,322.1,426.3,322.1,426.3z"/>
		</g>
		<path class="st1" d="M352.7,404.3c-3.8,8.1-11.1,4.3-11.3,0c-0.3-5.6-0.9-10.5-1.4-13.4c-9.7,27.1-26.5,79.2-18.8,97.2l73.1,24.2
			c-1.4-11.6-6.8-91-30.2-125.7C360.5,389.2,355.3,398.7,352.7,404.3z"/>
		<g>
			<path class="st10" d="M375.5,429c0.5-13.2-3.9-22.3-8.2-22.1c-8.3,0.3-8.6,22.1-8.6,22.1C366.8,427.3,375.5,429,375.5,429z"/>
			<path class="st10" d="M373.9,440c-1.9,1.9-4.5,3-7.4,2.7c-0.2,0-0.5,0-0.7-0.1c-2-0.2-3.7-1.1-5.1-2.3c0,0,0,0-0.1,0.1
				c0,0-10.6,46.3-19.7,58.8c-9.2,12.5,6,17.7,15.2,14.8c9.1-2.9,14.7-22.5,17.1-40.4C375.9,453.4,373.9,440,373.9,440
				C373.9,440,373.9,440,373.9,440z"/>
			<path class="st10" d="M376.5,432.3c-0.2-1.2-0.5-2.4-1-3.4c0,0-8.6-1.7-16.8,0c0,0-0.5,1.1-0.8,2.7c-0.6,3.3,0.6,6.5,2.9,8.6
				c1.4,1.2,3.1,2.1,5.1,2.3c0.2,0,0.5,0.1,0.7,0.1c2.9,0.3,5.5-0.9,7.4-2.7C375.8,438.1,376.9,435.3,376.5,432.3z"/>
		</g>
		<path class="st5" d="M331.6,440.4c0.4,0,6.5,3.6,21.2,2c0,0,3.6,30.5-12.5,28.7C325.6,469.4,331.6,440.4,331.6,440.4z"/>
		<path class="st5" d="M274.8,532c0,0-15.4,13.8-14.6,38.8l83.2,42.3c0,0,2-27,16-42.1L274.8,532z"/>
		<path class="st4" d="M301,544.1c0,0,4.7-19.3,25.7-32.3"/>
		<path class="st4" d="M303.4,545.2c0,0-12.7,12.7-14.3,40.3"/>
		
			<ellipse transform="matrix(2.922126e-02 -0.9996 0.9996 2.922126e-02 -20.1229 690.4254)" cx="345.4" cy="355.6" rx="2.5" ry="1"/>
		
			<ellipse transform="matrix(2.922126e-02 -0.9996 0.9996 2.922126e-02 -14.1015 696.9993)" cx="351.8" cy="355.8" rx="2.5" ry="1"/>
		<g>
			<g>
				
					<rect x="338.6" y="433.2" transform="matrix(0.2255 -0.9742 0.9742 0.2255 -217.5471 714.79)" class="st5" width="4.4" height="122.1"/>
			</g>
			<path class="st1" d="M387.4,510.8l17-10.4l12.5,33.9l-5.4,4.7C411.5,539,395.3,531.2,387.4,510.8z"/>
			<circle class="st5" cx="402.6" cy="509.3" r="1.3"/>
		</g>
	</g>
	<path class="st1" d="M417,185.4L417,185.4l0.3,0.3c4,4.4,0.9,11.4-4.9,11.5l-0.5,0l0.5,1.2c2.2,5.3-2.6,10.8-8.1,9.3l-1.3-0.4
		l0.3,1.9c0.9,5.6-5,9.8-10,7.1l-1.7-0.9l-0.1,2.3c-0.2,5.6-6.5,8.6-11,5.3l-1.9-1.4l-0.4,2.5c-1,5.4-7.6,7.6-11.6,3.7l-1.8-1.8
		l-0.8,2.5c-1.6,5.3-8.5,6.6-11.9,2.3l-1.7-2l-1.1,2.5c-2.2,5-9.1,5.6-12.1,1l-1.5-2.3l-1.3,2.4c-2.7,4.8-9.6,4.6-12.1-0.2l-1.2-2.4
		l-1.6,2.2c-3.2,4.5-10,3.6-12-1.5l-1-2.5l-1.7,2c-3.6,4.1-10.4,2.6-11.8-2.8l-0.7-2.5l-1.9,1.7c-4.1,3.7-10.7,1.3-11.4-4.2
		l-0.3-2.5l-1.9,1.3c-4.6,3.2-10.8-0.2-10.8-5.7l0-2.3l-1.8,0.8c-5.1,2.4-10.8-2-9.7-7.5l0.4-1.9l-1.3,0.3
		c-5.6,1.3-10.2-4.4-7.8-9.6l0.6-1.2l-0.5,0c-5.9-0.4-8.6-7.5-4.5-11.7l0.3-0.3h0c-5.4-2.5-5.2-10.2,0.2-12.6l0,0l-0.3-0.3
		c-4-4.4-0.9-11.4,4.9-11.5l0.5,0l-0.5-1.2c-2.2-5.3,2.6-10.8,8.1-9.3l1.3,0.4l-0.3-1.9c-0.9-5.6,5-9.8,10-7.1l1.7,0.9l0.1-2.3
		c0.2-5.6,6.5-8.6,11-5.3l1.9,1.4l0.4-2.5c1-5.4,7.6-7.6,11.6-3.7l1.8,1.8l0-0.1c1.9-6.3,10.1-7.9,14.2-2.7l0.1,0.1l0.1-0.2
		c2.6-6,10.9-6.7,14.4-1.2l0.1,0.2l0.1-0.2c3.2-5.7,11.5-5.5,14.4,0.3l0.1,0.2l0.1-0.2c3.8-5.4,12-4.4,14.3,1.8l0.1,0.2l0.1-0.1
		c4.3-4.9,12.4-3,14.1,3.3l0,0.1l0,0c4.9-4.4,12.7-1.6,13.6,5v0l1.9-1.3c4.6-3.2,10.8,0.2,10.8,5.7l0,2.3l1.8-0.8
		c5.1-2.4,10.8,2,9.7,7.5l-0.4,1.9l1.3-0.3c5.6-1.3,10.2,4.4,7.8,9.6l-0.6,1.2l0.5,0c5.9,0.4,8.6,7.5,4.5,11.7l-0.3,0.3h0
		C422.6,175.4,422.5,183.1,417,185.4z"/>
	<g>
		<path class="st2" d="M425.5,636.3c4.2-2.1,7.2-5.6,4.1-9.1l-0.2-0.3l0,0c4.4-1.8,4.6-8,0.3-10l0.2-0.2c3.3-3.3,1.2-9-3.4-9.4
			l-0.4,0l0.5-0.9c2-4.1-1.6-8.8-6.1-7.8l-1,0.2l0.3-1.5c0.9-4.4-3.5-8-7.6-6.1l-1.4,0.6l0-1.8c0.1-4.4-4.8-7.2-8.5-4.7l-1.5,1
			c-0.6-5.2-6.9-7.6-10.8-4.1l0,0l0-0.1c-1.3-5.1-7.7-6.7-11.2-2.8l-0.1,0.1l-0.1-0.2c-1.8-4.9-8.4-5.8-11.4-1.6l-0.1,0.1l-0.1-0.2
			c-2.3-4.7-8.9-4.9-11.5-0.4l-0.1,0.2l-0.1-0.2c-2.8-4.4-9.4-4-11.5,0.8l-0.1,0.2l-0.1-0.1c-3.2-4.1-9.8-3-11.4,2l0,0.1l-1.4-1.4
			c-3.1-3.1-8.5-1.5-9.3,2.8l-0.4,2l-1.5-1.1c-3.5-2.7-8.6-0.3-8.8,4.1l-0.1,1.8l-1.4-0.7c-4-2.1-8.7,1.1-8,5.6l0.2,1.5l-1-0.3
			c-4.4-1.3-8.3,3.1-6.6,7.3l0.4,1l-0.4,0c-4.7,0-7.2,5.6-4.1,9.1l0.2,0.3l0,0c-4.4,1.8-4.6,8-0.3,10l-0.2,0.2
			c-3.3,3.3-1.4,7.9,2.6,10.4c9.6,6,29.8,12.8,66.8,14.1C394.5,648.2,416.1,641,425.5,636.3z"/>
	</g>
	<path class="st0" d="M220.3,133.2L220.3,133.2c1.9-4.7-2.4-12-9.6-8.6l0,0l-0.8,0.1c2.3-5.1-2.7-10.5-7.9-8.5l0,0v0
		c1.2-5.6-5-9.9-9.8-6.9l0,0l0-0.3c0.1-5.7-6.5-8.8-10.8-5.1l-0.2,0.2l-0.1-0.5c-0.7-5.6-7.7-7.7-11.4-3.4l-0.3,0.4l-0.2-0.6
		c-1.5-5.4-8.7-6.6-11.8-1.8l-0.3,0.5l-0.6-1.5c-2.1-5.1-9.1-5.4-11.7-0.7l-1,1.9l-1.7-2.5c-3-4.4-9.7-3.6-11.5,1.4l-1,2.8l-1.9-2.1
		c-3.6-3.9-10.2-2.1-11.2,3.2l-0.5,2.8l-2.1-1.6c-4.3-3.3-10.4-0.2-10.5,5.1l0,2.6l-2-0.9c-4.9-2.3-10.4,2-9.1,7.4l0.5,2.1l0,0
		c-9.4-1.8-11.9,5.9-7.4,10.7l0,0l0,0c-8.1,0.9-8.4,8.8-2.9,12.2l0,0l0,0c-4.3,2.1-3.5,8.5,1.2,9.5l0,0l-0.3,0.3
		c-3.5,3.3-0.8,9.1,3.9,8.7l0.4,0l-0.5,0.9c-2.4,4,1.5,8.9,5.9,7.4l1-0.3l-0.5,1.4c-1.5,4.4,3.2,8.3,7.2,6l1.3-0.7l-0.3,1.8
		c-0.7,4.6,4.5,7.6,8.1,4.7l1.4-1.1l0,2c-0.1,4.6,5.5,6.9,8.7,3.5l1.4-1.4l0,0c-1.2,5.9,4.3,11,10.1,9.5l0.2,0l0,0l0,0
		c-5.6,4.4-4.1,13.3,2.7,15.6l0,0l-0.3,0.5c-3.5,6.1,0.9,13.6,7.9,13.5l0.6,0l-0.3,1.3c-1.5,6.7,4.7,12.5,11.3,10.6l1.3-0.4v0
		c0.1,7.5,8.2,12.2,14.8,8.7l0,0l0.1,0.3c1.6,7.3,10.3,10.4,16.1,5.8l0.2-0.2l0.2,0.4c2.7,6.9,11.8,8.6,16.8,3.1l0.3-0.3l0.2,0.4
		c3.8,6.4,12.9,6.7,17,0.5l0.3-0.4l0.3,0.3c4.7,5.8,13.8,4.7,16.9-2.1l0.2-0.4l1.1,1c5.2,4.7,13.4,2.2,15.3-4.5l0.4-1.4l1,0.6
		c6,3.7,13.7-0.2,14.2-7.2l0.1-1.2l0.7,0.3c6.7,2.4,13.5-3.3,12.4-10.3L283,227l0,0c7.2,0.5,12.3-7,9-13.5v0l1-0.3
		c6.4-1.8,8.3-10,3.3-14.4l-0.8-0.7l0,0c5.5-4.1,4.1-12.6-2.4-14.8l0,0l0.3-0.5c3.6-5.7-0.5-13.1-7.2-13l-0.6,0v0
		c1.9-6.9-4.4-13.2-11.2-11.2l0,0l0-0.5c0.3-7-7.1-11.7-13.3-8.4l-0.4,0.2l-0.1-0.7c-1-6.9-9.1-10.1-14.6-5.9l-0.6,0.5l-0.3-0.8
		c-2.1-6.6-10.5-8.5-15.3-3.5l-0.6,0.6l0-1.3C229.4,134.2,224.5,131.1,220.3,133.2z"/>
	<path class="st1" d="M632.9,187.4L632.9,187.4l0.3,0.3c4,4.4,0.9,11.3-4.9,11.5l-0.5,0l0.5,1.2c2.2,5.3-2.6,10.8-8.1,9.3l-1.3-0.4
		l0.3,1.9c0.9,5.6-5,9.7-10,7.1l-1.7-0.9l-0.1,2.3c-0.2,5.6-6.5,8.6-11,5.3l-1.9-1.4l-0.4,2.5c-1,5.4-7.6,7.6-11.6,3.7l-1.8-1.8
		l-0.8,2.5c-1.6,5.3-8.5,6.6-11.9,2.3l-1.7-2l-1.1,2.5c-2.2,5-9.1,5.6-12.1,1l-1.5-2.3l-1.3,2.4c-2.7,4.8-9.6,4.6-12.1-0.2l-1.2-2.4
		l-1.6,2.2c-3.2,4.5-10,3.6-12-1.5l-1-2.5l-1.7,2c-3.6,4.1-10.4,2.6-11.8-2.8l-0.7-2.5l-1.9,1.7c-4.1,3.7-10.7,1.3-11.4-4.2
		l-0.3-2.5l-1.9,1.3c-4.6,3.2-10.8-0.2-10.8-5.7l0-2.3l-1.8,0.8c-5.1,2.4-10.8-2-9.7-7.5l0.4-1.9l-1.3,0.3
		c-5.6,1.3-10.2-4.4-7.8-9.6l0.6-1.2l-0.5,0c-5.9-0.4-8.6-7.5-4.5-11.7l0.3-0.3l0,0c-5.4-2.5-5.2-10.2,0.2-12.6l0,0l-0.3-0.3
		c-4-4.4-0.9-11.3,4.9-11.5l0.5,0l-0.5-1.2c-2.2-5.3,2.6-10.8,8.1-9.3l1.3,0.4l-0.3-1.9c-0.9-5.6,5-9.7,10-7.1l1.7,0.9l0.1-2.3
		c0.2-5.6,6.5-8.6,11-5.3l1.9,1.4l0.4-2.5c1-5.4,7.6-7.6,11.6-3.7l1.8,1.8l0-0.1c1.9-6.3,10.1-7.8,14.2-2.7l0.1,0.1l0.1-0.2
		c2.6-6,10.9-6.7,14.4-1.2l0.1,0.2l0.1-0.2c3.2-5.7,11.5-5.5,14.4,0.3l0.1,0.2l0.1-0.2c3.8-5.4,12-4.4,14.3,1.8l0.1,0.2l0.1-0.1
		c4.3-4.9,12.4-3,14.1,3.3l0,0.1l0,0c4.9-4.4,12.7-1.6,13.6,5v0l1.9-1.3c4.6-3.2,10.8,0.2,10.8,5.7l0,2.3l1.8-0.8
		c5.1-2.4,10.8,2,9.7,7.5l-0.4,1.9l1.3-0.3c5.6-1.3,10.2,4.4,7.8,9.6l-0.6,1.2l0.5,0c5.9,0.4,8.6,7.5,4.5,11.7l-0.3,0.3v0
		C638.6,177.4,638.4,185.1,632.9,187.4z"/>
	<path class="st2" d="M250.7,723.1c4.9,11.9-54.1,15-82.1,14.2C93.2,735.1,25,718.7,28.9,707.6c3.1-8.7,22.2,9.5,100.6,16.3
		C227.2,732.3,247.2,714.5,250.7,723.1z"/>
	<g>
		<path class="st0" d="M38.2,617.1c7.9-3.1,18.8,0.7,22,14.3c5.6,23.5,19,14,27,29.5c6.1,11.7-1.3,26.8-13.1,32
			c-19.4,8.5-36.6,1.2-40-15.4c-3.4-16.9,8.2-15.3-2.9-34.8C25.2,631.9,29.2,620.7,38.2,617.1z"/>
		<path class="st4" d="M45.3,636.4c3.1,16.7,14,54.7,39.4,68.4"/>
		<path class="st4" d="M40.5,641.9c3.9,6,11.3,3.3,11.5-3.5"/>
		<path class="st4" d="M46.2,665.1c5.4,7.9,15.5,4.2,14.9-5.6"/>
	</g>
	<path class="st0" d="M117.5,841.8c0,0,9.3-8.8,25.9-6.3c0,0,2.2,5.7,0.6,10.2C141.7,852,117.5,841.8,117.5,841.8z"/>
	<path class="st0" d="M141.4,871.8c0,0,6.2,2.7,12.2-2.4c0,0-1.9-2.1-6-2.2C143.5,867.1,141.4,871.8,141.4,871.8z"/>
	<path class="st0" d="M123.4,874.7C123.4,874.8,123.4,874.8,123.4,874.7c0,0,4.7,6.3,12.6,6.4c0.6-3.9-0.3-6.5-0.6-7.2
		c-3.4,0.6-7,0.9-11,0.8C124.1,874.8,123.8,874.8,123.4,874.7z"/>
	<g>
		<path class="st1" d="M158.9,859.6l2-2.1c0.8-0.9,0.2-2.2-1.1-2.2l-2,0c-2.7,0-5.3-1.2-6.9-3.2c-4.5-5.7-12-12.1-23-12.1
			c-4,0-7.5,0.7-10.5,1.7c2.6,4.4,4.1,9.5,4.1,14.9c0,6-1.8,11.6-4.9,16.3c3.2,1.6,7,2.6,11.3,2.6c11,0,18.7-5.1,23.3-9.4
			c1.6-1.5,3.8-2.3,6.1-2.3h2.5c1.2,0,1.9-1.3,1.1-2.2L158.9,859.6z"/>
	</g>
	<path class="st5" d="M121.3,854.2c0,0,6.8-3.3,14.4,0.6c0,0-6.6,9.5-15.6,6.6L121.3,854.2z"/>
	<path class="st5" d="M544,377.6c-11.8-64.1-34-129.4-71.5-187.3l-66.9-2c22,47.8,33.1,98.6,35.3,148.9c-0.8-0.4-1.6-0.7-2.4-1.1
		c-7.4-3.4-14.6-7.1-21.6-11.3c-8.6-5.2-16.8-11.1-24.5-17.7l15.2-60.1l-2.6-1l-24.3,50.1c-0.7-0.7-1.3-1.3-2-2
		c-5.7-6-11-12.4-15.9-19.1c-4.9-6.8-9.4-13.9-13.5-21.2c-8.2-14.7-14.6-30.6-19.7-47l-6.3,1.5c3.2,17.3,7.8,34.4,14.6,50.9
		c3.4,8.3,7.2,16.4,11.6,24.2c4.4,7.9,9.3,15.5,14.8,22.8c10.9,14.6,23.8,27.8,38.3,39.2c7.2,5.7,14.9,10.9,22.8,15.7
		c5.2,3.1,10.5,6,15.9,8.7c-4.4,133.6-70.4,258-163.2,306.1l251.5,7.4c12.2-28.9,24.4-89.9,25.8-164
		C556.1,475.4,553.1,426.9,544,377.6z"/>
	<g>
		<g>
			<path class="st5" d="M196.9,578.1l-8,4.3l-7.7-4.7l-3.3,4.4c0,0,6.9,5.8,6.5,19.1l3.9,0.1l3.9,0.1c0.4-13.2,7.6-18.7,7.6-18.7
				L196.9,578.1z"/>
			<line class="st4" x1="188.7" y1="589.1" x2="188.8" y2="583.3"/>
			<path class="st1" d="M208.4,567.1c0.2-0.7,0.4-1.5,0.4-2.3c0.1-5.1-3.9-9.4-9-9.5c-0.5,0-0.9,0-1.3,0.1c-0.9-4.1-4.4-7.2-8.8-7.3
				c-4.3-0.1-8.1,2.8-9.2,6.8c-0.3,0-0.7-0.1-1.1-0.1c-5.1-0.1-9.4,3.9-9.5,9c0,0.8,0.1,1.5,0.2,2.2c-2.9,1.1-5.2,3.7-5.7,7
				c-0.9,5,2.5,9.8,7.5,10.7c3.6,0.6,7.1-0.9,9.1-3.8c1.6,2.5,4.4,4.2,7.6,4.3c3.2,0.1,6.1-1.5,7.8-3.9c1.6,2.5,4.4,4.2,7.6,4.3
				c5.1,0.1,9.4-3.9,9.5-9C213.6,572,211.5,568.7,208.4,567.1z"/>
		</g>
		<path class="st2" d="M162.7,592c1.4-6.2,8.2-6.8,11.1-4.1c3.5,3.2,3.6,8.4,12.5,9.5c5.6,0.6,3.6,7.8-6.8,7.6
			C166.5,604.8,161.6,596.9,162.7,592z"/>
		<path class="st2" d="M214.5,593.1c-1.2-6.2-7.9-7.1-11-4.6c-3.7,3.1-4,8.3-12.9,9c-5.6,0.4-3.9,7.6,6.5,7.9
			C210.2,605.7,215.4,598,214.5,593.1z"/>
	</g>
	<g>
		<g>
			<path class="st5" d="M257.6,570.7l-8,4.3l-7.7-4.7l-3.3,4.4c0,0,6.9,5.8,6.5,19.1l3.9,0.1l3.9,0.1c0.4-13.2,7.6-18.7,7.6-18.7
				L257.6,570.7z"/>
			<line class="st4" x1="249.3" y1="581.7" x2="249.4" y2="575.9"/>
			<path class="st1" d="M269,559.8c0.2-0.7,0.4-1.5,0.4-2.3c0.1-5.1-3.9-9.4-9-9.5c-0.5,0-0.9,0-1.3,0.1c-0.9-4.1-4.4-7.2-8.8-7.3
				c-4.3-0.1-8.1,2.8-9.2,6.8c-0.3,0-0.7-0.1-1.1-0.1c-5.1-0.1-9.4,3.9-9.5,9c0,0.8,0.1,1.5,0.2,2.2c-2.9,1.1-5.2,3.7-5.7,7
				c-0.9,5,2.5,9.8,7.5,10.7c3.6,0.6,7.1-0.9,9.1-3.8c1.6,2.5,4.4,4.2,7.6,4.3c3.2,0.1,6.1-1.5,7.8-3.9c1.6,2.5,4.4,4.2,7.6,4.3
				c5.1,0.1,9.4-3.9,9.5-9C274.3,564.6,272.2,561.3,269,559.8z"/>
		</g>
		<path class="st2" d="M223.4,584.7c1.4-6.2,8.2-6.8,11.1-4.1c3.5,3.2,3.6,8.4,12.5,9.5c5.6,0.6,3.6,7.8-6.8,7.6
			C227.1,597.4,222.3,589.5,223.4,584.7z"/>
		<path class="st2" d="M275.1,585.7c-1.2-6.2-7.9-7.1-11-4.6c-3.7,3.1-4,8.3-12.9,9c-5.6,0.4-3.9,7.6,6.5,7.9
			C270.9,598.3,276.1,590.6,275.1,585.7z"/>
	</g>
	<g>
		<g>
			<path class="st5" d="M164.6,623.1l-8,4.3l-7.7-4.7l-3.3,4.4c0,0,6.9,5.8,6.5,19.1l3.9,0.1l3.9,0.1c0.4-13.2,7.6-18.7,7.6-18.7
				L164.6,623.1z"/>
			<line class="st4" x1="156.3" y1="634.1" x2="156.4" y2="628.3"/>
			<path class="st1" d="M176,612.2c0.2-0.7,0.4-1.5,0.4-2.3c0.1-5.1-3.9-9.4-9-9.5c-0.5,0-0.9,0-1.3,0.1c-0.9-4.1-4.4-7.2-8.8-7.3
				c-4.3-0.1-8.1,2.8-9.2,6.8c-0.3,0-0.7-0.1-1.1-0.1c-5.1-0.1-9.4,3.9-9.5,9c0,0.8,0.1,1.5,0.2,2.2c-2.9,1.1-5.2,3.7-5.7,7
				c-0.9,5,2.5,9.8,7.5,10.7c3.6,0.6,7.1-0.9,9.1-3.8c1.6,2.5,4.4,4.2,7.6,4.3c3.2,0.1,6.1-1.5,7.8-3.9c1.6,2.5,4.4,4.2,7.6,4.3
				c5.1,0.1,9.4-3.9,9.5-9C181.2,617,179.1,613.7,176,612.2z"/>
		</g>
		<path class="st2" d="M130.3,637.1c1.4-6.2,8.2-6.8,11.1-4.1c3.5,3.2,3.6,8.4,12.5,9.5c5.6,0.6,3.6,7.8-6.8,7.6
			C134.1,649.8,129.2,642,130.3,637.1z"/>
		<path class="st2" d="M182.1,638.1c-1.2-6.2-7.9-7.1-11-4.6c-3.7,3.1-4,8.3-12.9,9c-5.6,0.4-3.9,7.6,6.5,7.9
			C177.8,650.7,183,643,182.1,638.1z"/>
	</g>
	<g>
		<g>
			<path class="st5" d="M229.7,619l-8,4.3l-7.7-4.7l-3.3,4.4c0,0,6.9,5.8,6.5,19.1l3.9,0.1l3.9,0.1c0.4-13.2,7.6-18.7,7.6-18.7
				L229.7,619z"/>
			<line class="st4" x1="221.4" y1="630.1" x2="221.5" y2="624.2"/>
			<path class="st1" d="M241.1,608.1c0.2-0.7,0.4-1.5,0.4-2.3c0.1-5.1-3.9-9.4-9-9.5c-0.5,0-0.9,0-1.3,0.1c-0.9-4.1-4.4-7.2-8.8-7.3
				c-4.3-0.1-8.1,2.8-9.2,6.8c-0.3,0-0.7-0.1-1.1-0.1c-5.1-0.1-9.4,3.9-9.5,9c0,0.8,0.1,1.5,0.2,2.2c-2.9,1.1-5.2,3.7-5.7,7
				c-0.9,5,2.5,9.8,7.5,10.7c3.6,0.6,7.1-0.9,9.1-3.8c1.6,2.5,4.4,4.2,7.6,4.3c3.2,0.1,6.1-1.5,7.8-3.9c1.6,2.5,4.4,4.2,7.6,4.3
				c5.1,0.1,9.4-3.9,9.5-9C246.3,612.9,244.2,609.7,241.1,608.1z"/>
		</g>
		<path class="st2" d="M195.4,633c1.4-6.2,8.2-6.8,11.1-4.1c3.5,3.2,3.6,8.4,12.5,9.5c5.6,0.6,3.6,7.8-6.8,7.6
			C199.2,645.8,194.3,637.9,195.4,633z"/>
		<path class="st2" d="M247.2,634c-1.2-6.2-7.9-7.1-11-4.6c-3.7,3.1-4,8.3-12.9,9c-5.6,0.4-3.9,7.6,6.5,7.9
			C242.9,646.6,248.1,639,247.2,634z"/>
	</g>
	<g>
		<path class="st3" d="M254.2,704.7c4.2-2.1,7.1-5.6,4-9l-0.2-0.3l0,0c4.4-1.8,4.5-7.9,0.3-9.9l0.2-0.2c3.3-3.3,1.2-8.9-3.5-9.3
			l-0.4,0l0.5-0.9c2-4.1-1.6-8.7-6.1-7.7l-1,0.2l0.3-1.5c0.9-4.4-3.5-7.9-7.6-6l-1.4,0.6l0-1.8c0.1-4.4-4.8-7.1-8.5-4.6l-1.5,1
			c-0.7-5.2-6.8-7.5-10.7-4l0,0l0-0.1c-1.3-5-7.7-6.6-11.1-2.7l-0.1,0.1l-0.1-0.2c-1.8-4.8-8.3-5.7-11.3-1.5l-0.1,0.1l-0.1-0.2
			c-2.3-4.6-8.8-4.8-11.4-0.3l-0.1,0.2l-0.1-0.1c-2.8-4.4-9.3-3.9-11.4,0.8l-0.1,0.2l-0.1-0.1c-3.2-4.1-9.7-2.9-11.2,2.1l0,0.1
			l-1.4-1.4c-3.1-3.1-8.4-1.4-9.2,2.9l-0.4,1.9l-1.5-1.1c-3.5-2.7-8.5-0.3-8.7,4.1l-0.1,1.8l-1.4-0.7c-3.9-2.1-8.6,1.2-7.9,5.6
			l0.2,1.5l-1-0.3c-4.4-1.2-8.2,3.1-6.5,7.3l0.4,1l-0.4,0c-4.7,0.1-7.1,5.6-4,9l0.2,0.3l0,0c-4.4,1.8-4.5,7.9-0.3,9.9l-0.2,0.2
			c-3.3,3.3-1.4,7.8,2.6,10.3c9.6,5.9,29.6,12.6,66.2,13.6C223.6,716.6,245,709.4,254.2,704.7z"/>
	</g>
	<g>
		<path class="st5" d="M106.9,623.2c10.6-0.9,19.1,8.5,19.2,26.3c0.1,18,9.7,15.6,10.2,30c0.5,14.4-13.1,22.8-26.8,22.8
			s-29.7-6.5-29.2-23.2c0.4-12.8,8.6-16.5,8.9-29.1C89.6,637.4,93.4,624.3,106.9,623.2z"/>
		<path class="st4" d="M107.7,643.1c0,0,9.6,38.3-3.5,69.8"/>
		<path class="st4" d="M103.1,656.8c3.8,3.5,9.9,3.2,14.1-1.2"/>
		<path class="st4" d="M98.6,679.3c5,5.8,15.1,7.7,24.3-0.8"/>
	</g>
	<path class="st5" d="M117.5,841.7c-7.5,2.6-12.2,7.6-14.7,10.8c-1.5,2-1.6,4.5-0.4,6.6c2.3,3.9,6.9,10.3,14.2,13.8
		c3.1-4.8,4.9-10.3,4.9-16.3C121.5,851.2,120.1,846.1,117.5,841.7z"/>
	<circle cx="110.3" cy="854.8" r="0.8"/>
	<g>
		<path class="st4" d="M536.1,691.4c18.9-54.8,50.7-85.7,69.4-99.6"/>
		<path class="st4" d="M616.9,599.4c-3.8,3.3-11.9,8-23.4,2.1"/>
		<path class="st4" d="M564.5,635c0,0-11.2-18.1,0.6-38.7"/>
		<circle class="st5" cx="621.1" cy="593.9" r="6.9"/>
		<circle class="st3" cx="607.8" cy="589.9" r="3"/>
		<path class="st4" d="M583.7,611.3c0,0-3.5-10.5,2.2-22.1"/>
		<circle class="st5" cx="587.4" cy="583.7" r="5.9"/>
		<circle class="st3" cx="566.8" cy="592.7" r="3.8"/>
		<path class="st4" d="M600.3,634.1c0,0-21.8,18.5-42.8,11.3"/>
		<circle class="st5" cx="606.7" cy="629.6" r="8"/>
		<path class="st4" d="M586.9,642.4c0,0-2.6-8.8,3.7-17.3"/>
		<circle class="st3" cx="591.6" cy="623.6" r="2.4"/>
		<path class="st4" d="M560,611.4c0,0-7.3-3.2-8-12.9"/>
		<circle class="st5" cx="551.7" cy="595.6" r="3"/>
	</g>
	<g>
		<path class="st3" d="M369.3,673.7c3.6-1.8,6.2-4.8,3.5-7.9l-0.2-0.2l0,0c3.8-1.5,4-6.9,0.3-8.7l0.2-0.2c2.9-2.9,1.1-7.8-3-8.1
			l-0.3,0l0.4-0.8c1.7-3.6-1.4-7.6-5.3-6.7l-0.9,0.2l0.3-1.3c0.8-3.8-3.1-6.9-6.6-5.3l-1.2,0.6l0-1.6c0.1-3.9-4.2-6.2-7.4-4.1
			l-1.3,0.9c-0.5-4.5-6-6.6-9.4-3.6l0,0l0-0.1c-1.1-4.4-6.7-5.8-9.7-2.4l-0.1,0.1l-0.1-0.1c-1.6-4.3-7.3-5-9.9-1.4l-0.1,0.1
			l-0.1-0.2c-2-4.1-7.7-4.3-10-0.3l-0.1,0.2l-0.1-0.1c-2.4-3.8-8.1-3.5-10,0.7l-0.1,0.1l-0.1-0.1c-2.8-3.6-8.5-2.6-9.9,1.8l0,0.1
			l-1.2-1.2c-2.7-2.7-7.3-1.3-8.1,2.5l-0.3,1.7l-1.3-1c-3.1-2.4-7.5-0.3-7.7,3.6l-0.1,1.6l-1.2-0.6c-3.4-1.9-7.5,1-7,4.9l0.2,1.3
			l-0.9-0.3c-3.8-1.1-7.2,2.7-5.7,6.4l0.3,0.8l-0.3,0c-4.1,0-6.2,4.8-3.5,7.9l0.2,0.2l0,0c-3.8,1.5-4,6.9-0.3,8.7l-0.2,0.2
			c-2.9,2.9-1.2,6.9,2.2,9c8.4,5.2,25.9,11.1,57.9,12.2C342.4,684,361.1,677.8,369.3,673.7z"/>
	</g>
	<g>
		<path class="st0" d="M523.7,526.3c0,0-24.5-19.1-3.8-62.8C519.9,463.5,542.8,501.7,523.7,526.3"/>
		<path class="st0" d="M523.7,526.3c0,0,10.6,35.6,67.8,26.4C591.5,552.7,553,517.9,523.7,526.3"/>
		<path class="st4" d="M582.9,484.2c-108.9,51.7-130.3,177.9-130.3,177.9"/>
		<path class="st0" d="M587.8,462.8c0,0-11,10.3-5.7,21.9C582,484.8,591.9,479.2,587.8,462.8z"/>
		<path class="st0" d="M582.1,484.8c0,0,3.3,12.3,21.4,9.6C603.5,494.3,592.8,481.7,582.1,484.8z"/>
		<path class="st0" d="M552.4,501.9c0,0,8.4,19.1,44,14.6C596.4,516.5,571.6,493.8,552.4,501.9z"/>
		<path class="st0" d="M553.3,457.5c0,0-15.6,30.5-0.9,44.4C552.4,501.9,565.2,480.7,553.3,457.5z"/>
		<path class="st0" d="M477.7,490.4c0,0-17.2,48.2,16.6,72.1C494.3,562.4,509.7,527.8,477.7,490.4z"/>
		<path class="st0" d="M578.1,583.2c0,0-62.3,10.3-83.8-19.9C494.3,563.3,518.4,539.8,578.1,583.2z"/>
		<path class="st0" d="M441.5,523.2c0,0-9.4,68.6,28.3,84.6C469.9,607.7,488.6,571.5,441.5,523.2z"/>
		<path class="st0" d="M469.9,607.7c0,0,32.5,37.6,107.9,12.3C577.8,620,501.8,578.9,469.9,607.7z"/>
	</g>
	<g>
		<g>
			<g>
				
					<rect x="284" y="614.4" transform="matrix(2.897334e-02 -0.9996 0.9996 2.897334e-02 -331.4724 890.3201)" class="st1" width="17" height="2.7"/>
			</g>
			<g>
				
					<rect x="286.6" y="608" transform="matrix(0.9939 -0.1103 0.1103 0.9939 -66.1678 35.5163)" class="st1" width="2.7" height="15.9"/>
			</g>
			<g>
				
					<rect x="288.9" y="614.8" transform="matrix(0.1279 -0.9918 0.9918 0.1279 -352.294 831.6758)" class="st1" width="15.8" height="2.7"/>
			</g>
			<path class="st5" d="M298.5,622.8c-0.5,6.6-0.6,13.3,0.2,19.8c0.7,6.6,2.3,13,4.6,19.2c2.4,6.2,5.6,12.1,9.6,17.5
				c4,5.4,8.7,10.4,14,14.7l-2.8,3.7c-5.9-4.1-11.4-8.8-16.3-14.3c-4.9-5.4-9-11.6-12.3-18.2c-3.3-6.6-5.7-13.7-7.2-21
				c-1.5-7.3-2.2-14.7-2.3-22.1L298.5,622.8z"/>
			<line class="st4" x1="291.9" y1="638.2" x2="286" y2="645.1"/>
			<line class="st4" x1="295.6" y1="655.3" x2="289.8" y2="662.3"/>
			<line class="st4" x1="302.5" y1="670.6" x2="299" y2="679"/>
			<line class="st4" x1="295.9" y1="647.7" x2="303.6" y2="652.4"/>
			<line class="st4" x1="299.6" y1="663.6" x2="308.2" y2="666.5"/>
			<line class="st4" x1="308.8" y1="679.6" x2="317.6" y2="682"/>
		</g>
		<g>
			<g>
				
					<rect x="312.2" y="609.9" transform="matrix(2.897334e-02 -0.9996 0.9996 2.897334e-02 -299.5942 914.0619)" class="st1" width="17" height="2.7"/>
			</g>
			<g>
				
					<rect x="314.8" y="603.4" transform="matrix(0.9939 -0.1103 0.1103 0.9939 -65.4957 38.594)" class="st1" width="2.7" height="15.9"/>
			</g>
			<g>
				
					<rect x="317" y="610.3" transform="matrix(0.1279 -0.9918 0.9918 0.1279 -323.2383 855.647)" class="st1" width="15.8" height="2.7"/>
			</g>
			<path class="st5" d="M326.7,618.3c-0.5,6.6-0.6,13.3,0.2,19.8c0.7,6.6,2.3,13,4.6,19.2c2.4,6.2,5.6,12.1,9.6,17.5
				c4,5.4,8.7,10.4,14,14.7l-2.8,3.7c-5.9-4.1-11.4-8.8-16.3-14.3c-4.9-5.4-9-11.6-12.3-18.2c-3.3-6.6-5.7-13.7-7.2-21
				c-1.5-7.3-2.2-14.7-2.3-22.1L326.7,618.3z"/>
			<line class="st4" x1="320" y1="633.6" x2="314.2" y2="640.6"/>
			<line class="st4" x1="323.8" y1="650.8" x2="318" y2="657.7"/>
			<line class="st4" x1="330.7" y1="666.1" x2="327.2" y2="674.5"/>
			<line class="st4" x1="324" y1="643.1" x2="331.8" y2="647.9"/>
			<line class="st4" x1="327.7" y1="659.1" x2="336.3" y2="662"/>
			<line class="st4" x1="336.9" y1="675.1" x2="345.7" y2="677.4"/>
		</g>
		<g>
			<g>
				
					<rect x="342" y="607.1" transform="matrix(2.897334e-02 -0.9996 0.9996 2.897334e-02 -267.917 941.1782)" class="st1" width="17" height="2.7"/>
			</g>
			<g>
				
					<rect x="344.6" y="600.7" transform="matrix(0.9939 -0.1103 0.1103 0.9939 -65.0111 41.8632)" class="st1" width="2.7" height="15.9"/>
			</g>
			<g>
				
					<rect x="346.8" y="607.5" transform="matrix(0.1279 -0.9918 0.9918 0.1279 -294.5314 882.8027)" class="st1" width="15.8" height="2.7"/>
			</g>
			<path class="st5" d="M356.5,615.5c-0.5,6.6-0.6,13.3,0.2,19.8c0.7,6.6,2.3,13,4.6,19.2c2.4,6.2,5.6,12.1,9.6,17.5
				c4,5.4,8.7,10.4,14,14.7l-2.8,3.7c-5.9-4.1-11.4-8.8-16.3-14.3c-4.9-5.4-9-11.6-12.3-18.2c-3.3-6.6-5.7-13.7-7.2-21
				c-1.5-7.3-2.2-14.7-2.3-22.1L356.5,615.5z"/>
			<line class="st4" x1="349.8" y1="630.9" x2="344" y2="637.9"/>
			<line class="st4" x1="353.6" y1="648" x2="347.8" y2="655"/>
			<line class="st4" x1="360.5" y1="663.4" x2="357" y2="671.7"/>
			<line class="st4" x1="353.8" y1="640.4" x2="361.6" y2="645.1"/>
			<line class="st4" x1="357.5" y1="656.3" x2="366.1" y2="659.2"/>
			<line class="st4" x1="366.7" y1="672.4" x2="375.5" y2="674.7"/>
		</g>
	</g>
	<path class="st3" d="M314.2,695.3l1.1-0.3l-0.7-1.3c-2.6-4.8,2.2-10.3,7.4-8.3l1.3,0.5l-0.4-1.3c-1.7-5.3,4.2-9.7,8.9-6.7l1.1,0.7
		l-0.1-1.1c-0.5-5.5,6.2-8.6,10.1-4.6l0.8,0.8l0.2-1.1c0.7-5.5,8-7,10.9-2.3l0.6,1l0.4-1c1.9-5.2,9.3-5.2,11.1,0.1l0.3,0.9l0.1-0.2
		c2.9-4.9,10.3-3.3,10.9,2.3l0,0.2l0,0c3.9-4.1,10.8-0.8,10.1,4.8v0l0.1-0.1c4.8-3,10.7,1.7,8.7,7l0,0.1l0.3-0.1
		c5.3-1.9,10,4.1,6.9,8.8l-0.2,0.2l2.1,0.7c5.4,1.9,5.3,9.4-0.1,11.2c-10.4,3.4-25.5,6.9-42.9,6.9c-21.5,0-37.9-3.3-48.9-6.6
		C308.6,704.9,308.6,697,314.2,695.3z"/>
	<path class="st2" d="M443,714.7c30.4,0,51.6-9.2,51.6-9.2c4.2-0.8,4.6-6.6,0.6-8h0l3.8-1.8c3.5-1.7,3-6.8-0.8-7.7l-4.1-1l3.5-2.1
		c3.4-2,2.3-7.1-1.6-7.6l-4.1-0.5l3.1-2.4c3.1-2.4,1.5-7.4-2.5-7.4l-3.9,0l2.5-2.5c2.8-2.8,0.4-7.6-3.5-7l-3.5,0.5l1.8-2.6
		c2.3-3.3-1-7.6-4.8-6.2l-3,1.1l1.1-2.6c1.6-3.7-2.6-7.3-6-5.1l-2.4,1.5l0.5-2.8c0.7-4-4.2-6.5-7-3.6l-2,2l-0.2-3.2
		c-0.2-4-5.4-5.4-7.6-2l-1.7,2.7l-0.9-3.5c-0.9-3.9-6.3-4.3-7.8-0.6l-1.4,3.3l-1.4-3.3c-1.5-3.7-6.8-3.3-7.8,0.6l-0.9,3.5l-1.7-2.7
		c-2.1-3.4-7.4-2-7.6,2l-0.2,3.2l-2-2c-2.8-2.9-7.7-0.4-7,3.6l0.5,2.8l-2.4-1.5c-3.4-2.2-7.6,1.4-6,5.1l1.1,2.6l-2.9-1.1
		c-3.8-1.4-7.1,3-4.8,6.2l1.8,2.6l-3.5-0.5c-3.9-0.6-6.3,4.2-3.5,7l2.5,2.5l-3.9,0c-3.9,0-5.6,5-2.5,7.4l3.1,2.4l-4.1,0.5
		c-3.9,0.5-4.9,5.6-1.6,7.6l3.6,2.1l-4.1,1c-3.8,0.9-4.3,6.1-0.8,7.7l3.9,1.8h0c-4,1.4-3.6,7.2,0.6,8
		C391.4,705.5,412.3,714.7,443,714.7z"/>
	<g>
		<path class="st3" d="M546.8,712.2c3.3-2.2,5.7-5.9,3.3-9.6l-0.2-0.3l0,0c3.5-1.9,3.7-8.4,0.4-10.5l0.2-0.3
			c2.7-3.5,1.1-9.5-2.6-9.8l-0.3,0l0.4-1c1.6-4.3-1.2-9.2-4.7-8.1l-0.8,0.2l0.3-1.6c0.8-4.6-2.7-8.4-6-6.4l-1.1,0.7l0.1-1.9
			c0.1-4.7-3.8-7.5-6.7-4.9l-1.2,1.1c-0.5-5.5-5.4-7.9-8.5-4.2l0,0l0-0.1c-1-5.3-6-7-8.8-2.8l-0.1,0.1l0-0.2c-1.4-5.1-6.6-6-9-1.5
			l-0.1,0.1l-0.1-0.2c-1.8-4.9-7-5.1-9.1-0.3l-0.1,0.2l-0.1-0.2c-2.2-4.6-7.4-4.1-9.1,0.9l-0.1,0.2l-0.1-0.1c-2.5-4.3-7.7-3-9,2.2
			l0,0.1l-1.1-1.5c-2.4-3.3-6.7-1.5-7.4,3.1l-0.3,2.1l-1.1-1.2c-2.8-2.8-6.8-0.3-7,4.4l-0.1,1.9l-1.1-0.8c-3.1-2.2-6.9,1.3-6.4,6
			l0.2,1.6l-0.8-0.3c-3.5-1.3-6.6,3.3-5.3,7.8l0.3,1l-0.3,0c-3.7,0.1-5.7,5.9-3.3,9.6l0.2,0.3l0,0c-3.5,1.9-3.7,8.4-0.4,10.5
			l-0.2,0.3c-2.7,3.5-1.2,8.3,1.9,10.9c7.6,6.2,23.4,13.2,52.6,14.2C522.3,724.9,539.4,717.2,546.8,712.2z"/>
	</g>
	<g>
		<path class="st3" d="M223.2,77.6L223.2,77.6c0.4-7,8.6-10.5,13.8-5.9l0.2,0.2l0,0c-3.5-7.8,3.7-16.2,12-14l0,0l0-0.1
			c-2.3-8.2,5.9-15.5,13.8-12.1l0.1,0.1l0-0.2c-1.2-8.5,8-14.5,15.4-10.1l0.1,0.1l0-0.2c0-8.6,10-13.3,16.6-7.9l0.1,0.1v0
			c1.2-8.6,11.8-11.9,17.7-5.6l0,0l0.3-1.1c2.2-7.9,12.6-9.8,17.4-3.1l0.6,0.9l0.5-1.2c3.2-7.6,13.7-8.2,17.6-1l0.6,1.1l0,0
			c3.9-7.4,14.7-6.9,17.8,0.9v0l0.1-0.2c4.6-6.9,15.1-5.2,17.3,2.8l0.1,0.2l0,0c5.4-6.3,15.7-3.3,16.8,4.9v0l0.1-0.1
			c6.1-5.5,15.8-1.2,15.8,7l0,0.1l0,0c6.8-4.6,15.8,1.2,14.6,9.3l0,0l0.3-0.1c7.3-3.4,15.2,3.5,12.8,11.2l-0.1,0.3l0,0
			c7.8-2.2,14.5,5.9,10.8,13.2v0v0c10.5-6.5,22.6-0.6,23.5,9.2l-0.2,0.8l0.2-0.8c1.9-7.5,11.9-9.2,16.1-2.7l0.4,0.7l0.3-0.8
			c2.5-7.3,12.6-8.2,16.3-1.4l0.4,0.7l0.3-0.7c3.1-7.1,13.2-7.1,16.3,0l0.3,0.7l0.3-0.5c3.8-6.8,13.8-5.9,16.3,1.5l0.2,0.6l0.2-0.4
			c4.4-6.4,14.4-4.4,16,3.2l0.1,0.4l0.1-0.2c5.2-5.9,14.9-2.7,15.6,5.1l0,0.2l0,0c5.9-5.2,15.2-0.7,14.8,7.2v0l0,0
			c7.8-3.8,20,1.4,17.7,15l0,0l0.9,0c9.8,0.3,15.6,11.2,10.2,19.4l-0.5,0.7l0.2,0.1c9,4.3,9.7,16.8,1.2,22l-0.2,0.1v0
			c6.2,7.8,1.2,19.4-8.8,20.3l0,0l0.2,0.9c2.1,9.6-7.2,17.7-16.4,14.5l-0.9-0.3l-0.4,2.3c-1.5,9.4-12.4,13.8-20,8.1l-1.9-1.5
			l-1.4,3.1c-3.7,8.5-15,10.1-21,3.1l-2.2-2.6l-0.5,0.8c-5.7,10-18.5,13.3-28.2,7.1l-2.7-1.7l-0.3,0.7c-5.1,11.6-19.5,15.7-29.9,8.5
			l-0.6-0.4l-0.4,0.7c-6,11.2-20.7,14.1-30.5,6l-0.6-0.5l-0.3,0.5c-7,10.7-22,12.2-31,3.3l-0.4-0.4l-0.2,0.3
			c-8.1,10-23.3,9.9-31.3-0.1l-0.2-0.3l0,0c-9.3,9-24.6,6.9-31.2-4.2v0l0,0c-10.5,7.4-25.2,3-29.9-9l0,0v0c-12.1,5.5-26.3-1-30-13.8
			l-0.6-1.9l-1.1,1.3c-8,9.9-23,10.2-31.4,0.6v0l0,0c-7.2,9.8-21.8,10.1-29.3,0.4l0,0l0,0c-7.8,9.3-22.3,8.6-29.1-1.5v0l0,0
			c-8.5,8.6-22.8,6.6-28.5-4.1l0,0l-0.1,0c-9.3,7.3-23.1,3.3-26.9-7.9v0l-3.2,1.5c-8.8,4.2-18.9-2.2-19-11.9l0-3.3l-0.1,0
			c-10.5-0.2-16.6-11.9-10.8-20.6l0,0l0,0c-7.5-3.7-8.6-15.3,1.4-19.8l0,0l0,0c-5-5.3-0.7-14,6.6-13.3h0l-0.3-0.7
			c-2.8-6.7,4-13.3,10.6-10.3l0.7,0.3v0c-0.9-7.8,8.1-12.7,14.2-7.8l0,0l0.1-1c0.7-7.7,10.1-10.8,15.3-5.1l0.7,0.8l0,0
			c1.8-8,12.3-10,17-3.3l0,0l0.1-0.3C191.5,78,202,77,206.1,84l0.1,0.3l1.3-4.8c1.8-6.4,9.9-8.3,14.3-3.3L223.2,77.6z"/>
		<g>
			<g>
				<path class="st4" d="M231.8,130.2c-11.1,5-6.1,12.8-1.9,11.2l1-0.6l-0.1,1.7c-0.3,4.1,3,6.7,5.6,4.5l1.1-0.9
					c0.2,4.8,4.3,7.2,7.1,4l0,0l0,0.1c0.6,4.7,4.9,6.3,7.5,2.8l0.1-0.1l0,0.1c1,4.6,5.4,5.5,7.7,1.7l0.1-0.1l0.1,0.2
					c1.4,4.4,5.8,4.7,7.8,0.6l0.1-0.2l0.1,0.1c1.7,4.2,8.2,2.9,6-4.2"/>
			</g>
			<path class="st4" d="M450.5,152.6l1.5,2.1c2.8,4,9,3,10.5-1.6l0.8-2.5l1.7,1.7c3.5,3.5,9.5,1.4,10.1-3.5l0.3-2.4l1.7,1.1
				c4.2,2.7,9.7-0.7,9.1-5.6l-0.2-2l0,0c8.3,2.7,11.5-4,8-8.9l0,0l0,0c7.5,0.1,8.7-7,4-10.7v0v0"/>
			<path class="st4" d="M420,175.7l0.3,0.9c1.3,4.1,7,4.3,8.7,0.4l0.4-0.9l0.7,1.2c2.1,3.7,7.7,2.8,8.5-1.4l0.3-1.3"/>
		</g>
	</g>
	<g>
		<g>
			<path class="st4" d="M519.5,679.2c0,0,6,17.9-0.3,46.7c0,0,4.5-14.5-7.2-28.2"/>
			<path class="st4" d="M533.2,695.8c0,0-7.5,3-11.3,12.3"/>
			<ellipse transform="matrix(0.909 -0.4168 0.4168 0.909 -234.5824 277.4909)" class="st5" cx="518.2" cy="676" rx="8" ry="4.4"/>
			
				<ellipse transform="matrix(0.9998 -2.052041e-02 2.052041e-02 0.9998 -14.1165 11.1392)" class="st5" cx="535.7" cy="693.4" rx="7.4" ry="4"/>
			
				<ellipse transform="matrix(0.909 -0.4168 0.4168 0.909 -244.1161 276.6913)" class="st5" cx="511.6" cy="697.4" rx="4" ry="2.2"/>
		</g>
		<g>
			<g>
				<g>
					<path class="st4" d="M505.3,723.5c0,0,1.2-11-4.6-17.8"/>
					
						<ellipse transform="matrix(0.8778 -0.4791 0.4791 0.8778 -276.8596 325.9521)" class="st5" cx="500.3" cy="705.5" rx="2.9" ry="1.6"/>
				</g>
				<path class="st4" d="M507.8,709.3c0,0-2.2,3.5-2.5,9.6"/>
			</g>
			
				<ellipse transform="matrix(0.2875 -0.9578 0.9578 0.2875 -316.7217 991.6301)" class="st5" cx="508.1" cy="708.7" rx="0.8" ry="1.5"/>
		</g>
		<g>
			<g>
				<g>
					<path class="st4" d="M220,725.1c0,0-2.3-21.4,8.9-34.5"/>
					
						<ellipse transform="matrix(0.4791 -0.8778 0.8778 0.4791 -486.2907 561.0205)" class="st5" cx="229.5" cy="690.2" rx="3.1" ry="5.7"/>
				</g>
				<path class="st4" d="M215.1,697.4c0,0,4.2,6.8,4.9,18.7"/>
			</g>
			
				<ellipse transform="matrix(0.9578 -0.2875 0.2875 0.9578 -191.1411 91.0438)" class="st5" cx="214.4" cy="696.3" rx="2.8" ry="1.5"/>
		</g>
	</g>
</g>
</svg>
