<svg id="圖層_1" data-name="圖層 1" xmlns="http://www.w3.org/2000/svg" viewBox="0 0 754.23 1066.7"><defs><style>.cls-1,.cls-7{fill:#f98a10;}.cls-1,.cls-10,.cls-11,.cls-2,.cls-3,.cls-4,.cls-5,.cls-6,.cls-7,.cls-8,.cls-9{stroke:#000;stroke-width:0.25px;}.cls-1,.cls-11,.cls-2,.cls-3,.cls-4,.cls-5,.cls-6,.cls-7,.cls-8,.cls-9{stroke-miterlimit:10;}.cls-2{fill:#95cec7;}.cls-3{fill:#f7b42f;}.cls-10,.cls-11,.cls-4{fill:none;}.cls-5,.cls-8{fill:#ffe7bd;}.cls-6{fill:#fff;}.cls-11,.cls-7,.cls-8{opacity:0;}.cls-9{fill:#b4c834;}.cls-10{stroke-linejoin:round;}</style></defs><title>all</title><path class="cls-1" d="M121.72,758.59s20.74,99,98.34,109.14,110.69,32.75,129.18,79c16.51,41.29,44.84,36.65,65.71-7.4,9.55-20.14,32-22.38,47.35-17.72s54,8.24,84.64-37.13,56.52-128.66,56.52-128.66L490,717.91Z"/><path class="cls-2" d="M192.18,629.64c-10-10.38-25.39-13.51-37.93-14.12-18.15,21.22-33,49-36.52,87.21a186.48,186.48,0,0,0,0,36.62c15-3,32.8-8.11,50-16.65C209.51,701.94,213.68,652,192.18,629.64Z"/><path class="cls-3" d="M214.1,667.47a10.56,10.56,0,0,0-7.59,12.41l-1.89.5a10.54,10.54,0,0,0-20.35,5.42l-1.89.5a10.49,10.49,0,1,0,.35,1.38l1.93-.51a10.55,10.55,0,0,0,20.31-5.4l1.92-.52a10.55,10.55,0,1,0,7.21-13.78Z"/><path class="cls-3" d="M173,684.75a2.38,2.38,0,0,1,1.36,1.43"/><path class="cls-3" d="M173.54,683.8a2.33,2.33,0,0,1,1.53,1.24"/><path class="cls-3" d="M198.31,678.23a2.4,2.4,0,0,1,1.36,1.43"/><path class="cls-3" d="M198.82,677.28a2.34,2.34,0,0,1,1.54,1.24"/><path class="cls-3" d="M219.41,672.3a2.4,2.4,0,0,1,1.36,1.44"/><path class="cls-3" d="M219.92,671.35a2.41,2.41,0,0,1,1.54,1.24"/><path class="cls-4" d="M149.23,685.32s6.25,8,5.93,22.55c-.3,13.58,4.88,38.76,20.61,48"/><path class="cls-4" d="M121.72,719.65s2.73,21.92,27.51,30.86"/><path class="cls-4" d="M194.58,670.09A51.75,51.75,0,0,1,189,699.52c-13.32,24.61-2.08,72.22-2.08,72.22"/><path class="cls-3" d="M207.77,711.74a9.66,9.66,0,0,0-19.25,1.67l-1.77.2c0-.16-.07-.32-.11-.48a.29.29,0,0,0,0-.09c-.06-.27-.13-.53-.21-.79l-.06-.19c-.07-.22-.15-.43-.24-.64l-.12-.28c-.08-.17-.17-.34-.26-.51a3.9,3.9,0,0,0-.19-.35l-.24-.39-.28-.42c-.07-.09-.14-.17-.2-.26s-.26-.33-.4-.48l-.13-.14c-.17-.18-.35-.37-.53-.54l0,0a9.65,9.65,0,0,0-16.18,7.7l-1.76.2a9.67,9.67,0,0,0-19.19,2.15l-1.78.2a9.61,9.61,0,1,0,.13,1.3l1.82-.2a9.81,9.81,0,0,0,.64,2v0c.12.26.24.51.38.76l.1.17c.12.2.23.39.36.57s.13.18.19.27l.33.42c.09.12.19.23.29.34l.27.29c.13.14.27.27.41.4l.2.17c.17.15.35.29.53.43l.1.08a9.66,9.66,0,0,0,15.35-8.06l1.79-.2a9.67,9.67,0,0,0,19.15-2.15l1.82-.2a9.67,9.67,0,0,0,8.57,7.73,64.75,64.75,0,0,0,9.87-6A9.7,9.7,0,0,0,207.77,711.74Zm-68.47,6.52a2.76,2.76,0,0,0-.63-2.26A2.76,2.76,0,0,1,139.3,718.26Zm.44-3a2.77,2.77,0,0,1,.93,2.15A2.77,2.77,0,0,0,139.74,715.29Zm20.34.73a2.75,2.75,0,0,0-.63-2.25A2.75,2.75,0,0,1,160.08,716Zm.44-3a2.85,2.85,0,0,1,.93,2.16A2.85,2.85,0,0,0,160.52,713.05Zm20.91.68a2.8,2.8,0,0,0-.63-2.26A2.8,2.8,0,0,1,181.43,713.73Zm.44-3a2.8,2.8,0,0,1,.92,2.15A2.8,2.8,0,0,0,181.87,710.76Zm20.79.69a2.8,2.8,0,0,0-.62-2.26A2.8,2.8,0,0,1,202.66,711.45Zm.44-3a2.79,2.79,0,0,1,.93,2.15A2.79,2.79,0,0,0,203.1,708.48Z"/><path class="cls-5" d="M542.58,529.16c-33.17-52.16-122.6-75.28-187.44-76-40.29-.48-79.67,4.52-107.35,39.35-19.34,24.32-5.27,51.34-34.33,72.81-17,12.58-40,27.75-59.21,50.25,12.54.61,28,3.74,37.93,14.12,21.5,22.4,17.33,72.3-24.43,93.06-17.17,8.54-35,13.62-50,16.65,6.33,60,66.26,110,147.16,113.33,74.3,3,73.1-50.79,178.3-32.79C536,835.75,610.78,800.16,612.72,707.52,614.64,615.52,544,592.88,542.58,529.16Z"/><path class="cls-2" d="M330.86,467.77s6.24,29.85,50.59,57.89c66.5,42,146.09,61.49,159.33,136.39S456,761.45,420.59,770.14s-95.54,23.72-107.69,89.33-6.11,126.57-8.35,148.64c-1.69,16.67-14.06,11.7-15.55-6.73-1.6-19.92-12.85-15.77-17-5.1-6.77,17.46-16.51,7.93-17-6-.29-7.6-2.7-50.17-6.26-70.6s-8.89-32.81-17.64-33.35-13,8.28-15.81,14.71-9.35,13.15-11.55,2.07-2-33.66-16.73-33.35-13.21,32.13-28,32.91-19.27-64.27-13.46-97c6.52-36.8,36.43-69.92,109.34-86.55,63.76-14.54,135-23.58,155.62-49.08,16.21-20,9.31-46-13.55-65.08s-105.77-45.9-79.8-148Z"/><path class="cls-6" d="M204.92,809.87c3.85-14.11,15.3-24.35,19.48-21.76,2.79,1.73-3.21,6.77-1,8.51,2.88,2.28,10.66-7.45,15.22-5,5.24,2.82-9.75,13.86-14.7,37.32s-2.07,33.89-7,33.89c-3.58,0-3.22-21.39-1.82-30.24s.83-18.32-2.61-14.86c-4.68,4.72-3.68,24-7.52,24S202.36,819.26,204.92,809.87Z"/><path class="cls-6" d="M177.76,827.86c4.2.84.54,25.2-4.61,25S173.61,827,177.76,827.86Z"/><path class="cls-6" d="M285.52,860.74c7.75.91,2,26.88,1.13,39s-4.84,28.15-9.74,26.45c-2.74-1-1.54-6.07-2-18.21S278.15,859.87,285.52,860.74Z"/><path class="cls-6" d="M256.7,862.83c-5.26-.24,1.17-21.33,3.72-27.61s15.34-27.85,21.79-23.73-5.11,13.73-9.43,19.81-5.3,14.31-7.84,21.38S260,863,256.7,862.83Z"/><path class="cls-6" d="M297.3,837.77c2.94,1.37-4,16.28-7.78,14.71S294.36,836.4,297.3,837.77Z"/><path class="cls-6" d="M178.69,782.84c3-6.61,11.36-20.94,25.05-24.47s23.68-12.13,27-8.22-14.68,12.53-23.48,17.62-15.66,12.91-22.51,20.94S172,797.32,178.69,782.84Z"/><path class="cls-6" d="M275.36,765c-3-4.75,12.71-14.44,26.81-19.5,16-5.73,23.88-10.05,36.79-14.16s28-4.68,28.77-1.76-4.5,5.91-1.37,8.24,10.18-1.27,10.76,3.07-18.39,11.58-41.68,20.39S301.91,777.87,300.28,772s23.81-13.89,22.63-18.78-26.42,4.69-33.07,8.41S276.91,767.43,275.36,765Z"/><path class="cls-6" d="M399.89,759.68c4.76,3.89-6.57,11.35-13.14,12s-8.63-1.85-3.91-5.14S396.81,757.16,399.89,759.68Z"/><path class="cls-6" d="M409.08,742.31c-1.91-2.85,5.44-7.42,10.55-9.56s11.7-5.11,12.85-2.14-8.07,8.93-12.85,10.23S410.13,743.87,409.08,742.31Z"/><path class="cls-6" d="M378.84,716.37c-3.22-3.47,6.09-9.23,19.48-15.48,16.69-7.77,23.48-25.57,32.6-19.21s19.63,4.67,35.67,1.53-25.18,22.48-40.54,25.22-20.45,13.23-25,9.48,10.14-9.57,7.75-12.4C404.86,700.89,383.15,721,378.84,716.37Z"/><path class="cls-6" d="M400.07,585.47c2-4.87,11.11,0,13.69,3.47s1.72,7.75,5.81,13.13,1.08,7.1-4.09,2.36S398.06,590.37,400.07,585.47Z"/><path class="cls-6" d="M392,543.08c1.05-3.36,8.93,2,9.9,5.69s-1.17,3.67-4.95,1.17S391.19,545.76,392,543.08Z"/><path class="cls-6" d="M479.8,602.43c2.62-4.16,11.51,4.41,17.75,13s6.7,11.56,3.62,13.4c0,0,4,9.72,0,11.37s-4.08-11.18-11-21.28C483.46,609,477.83,605.55,479.8,602.43Z"/><path class="cls-7" d="M434.32,869a5.86,5.86,0,0,0-6.16,3.4c-1.77,4.09-2.05,5.21-7.37,6.14"/><path class="cls-8" d="M349.21,883.65c1.85-2.17,7.28,5.16,5.41,9.88S346.35,887,349.21,883.65Z"/><path class="cls-7" d="M350,848.54a4.4,4.4,0,0,1,3.62,4.26s2.92.17,2.72,4.8"/><path class="cls-5" d="M324.23,383.57s14.36,16.19,10.1,48.1-26.13,65.95-26.13,65.95S379,537.46,425.55,496.2c0,0-12.5-19.32-18.35-65.06S406,379.4,419.43,374.32c16.72-6.33,43.67-24.15,60.71-50.16L454,311.77S439.11,349.32,400.82,362s-60.64-7.34-60.64-7.34Z"/><path class="cls-1" d="M435.26,349.63c0-3.73,6.12-5.48,9.81-1.16a5.27,5.27,0,0,1-4.43,4.64C437.39,353.82,435.27,351.46,435.26,349.63Z"/><path class="cls-4" d="M438.12,349.88s4.21.64,6.95-1.41"/><path class="cls-1" d="M446.54,358.83s1.09,4.45,4.67,5.64,7.24-1.5,5.64-5C455,355.47,448.34,356.55,446.54,358.83Z"/><path class="cls-4" d="M446.54,358.83a7.77,7.77,0,0,0,7.54,2.58"/><path class="cls-5" d="M446.34,330.82s-2.26,21.05,1.73,40.05"/><path class="cls-3" d="M446.55,371.19c-4-19-1.85-39.67-1.76-40.54l3.11.33c0,.21-2.19,21,1.7,39.57Z"/><path class="cls-5" d="M447.5,368a8,8,0,0,0-3.57,7.61c.52,5.24,6.92,5.45,7.8,1.11C452.85,371.19,447.5,368,447.5,368Z"/><path class="cls-5" d="M447.5,368a18.81,18.81,0,0,0,.76,8.79"/><path class="cls-1" d="M343.17,100.79c1.49-7.39-2.68-14.46-9.32-15.8a11.34,11.34,0,0,0-6.75.75,15.32,15.32,0,0,0-30.17,3.59A13.63,13.63,0,0,0,277,107.63a12.17,12.17,0,0,0-7.38,10.88c0,6.66,5.92,12.07,13.3,12.24,3.13,14.33,15.07,25,29.32,25,16.65,0,30.14-14.54,30.14-32.47A34.22,34.22,0,0,0,339,108.42,14.61,14.61,0,0,0,343.17,100.79Z"/><path class="cls-9" d="M299.53,109.28c1.26-1.26,7.37,7.57,10.38,11.16,2.57,3.08,1.64-6.8,4.61-12.12a1,1,0,0,1,1.92.26c.21,1.19-.26,4-1.15,7.22-1.85,6.65,1.26,14,4.85,16.48L317.33,134S296.52,112.29,299.53,109.28Z"/><path class="cls-1" d="M547.74,175.49c0-16.94-16-30.72-35.9-31.23.2-.77.39-1.55.53-2.34,3.28-17.83-9.38-35.1-28.28-38.58a36.2,36.2,0,0,0-18.17,1.26c-3.15-18.9-18.17-34-37.61-36a41.88,41.88,0,0,0-33.06,11.49,42.8,42.8,0,0,0-47,69.87c-10.54,7.14-16.78,15.95-16.78,25.49,0,23.75,38.62,43,86.25,43,29.12,0,54.84-7.2,70.46-18.22a40.07,40.07,0,0,0,13.95,5.61c0,.28-.05.56-.05.85,0,9.74,9.36,17.63,20.9,17.63s20.91-7.89,20.91-17.63a16,16,0,0,0-4.77-11.2A28.37,28.37,0,0,0,547.74,175.49Z"/><path class="cls-9" d="M455.38,148.28c3.85.48-3.84,28,1,29.31s23.71-8.33,25.63-3-26.59,2.72-28.19,13.77h-5.61S450.26,147.64,455.38,148.28Z"/><path class="cls-5" d="M449.92,166s-7.55-.18-10.09-5.65c-2.64-5.66,1.41-7.85,5-6.44C447.7,155,451.25,159.85,449.92,166Z"/><path class="cls-5" d="M443.8,158.06a14.19,14.19,0,0,1,6.12,7.89"/><path class="cls-5" d="M467,175.3s-.88-7.17,3.1-10c4.17-3,7.49.71,6.85,3.42S473.67,174.18,467,175.3Z"/><path class="cls-5" d="M473,167.26a14.23,14.23,0,0,0-6,8"/><path class="cls-1" d="M578.05,273.75a38,38,0,0,0-8.14-5.72c10.13-16.3,8.86-36.68-4.12-48.64C552.37,207,531,207.88,515.42,220.48A34.79,34.79,0,0,0,506.36,207c-15.23-14-39.95-12-55.21,4.59-10.81,11.73-14,27.59-9.48,40.83a51,51,0,1,0,3.71,83.41,50.93,50.93,0,0,0,33.55,18.7C487.07,370,507.37,381,531.16,381c31,0,56-18.64,56-41.63a32.45,32.45,0,0,0-4.13-15.67A37.82,37.82,0,0,0,578.05,273.75Z"/><path class="cls-5" d="M404.27,307.42s-4.18-3.17-2.34-7.85c1.94-4.93,9.17-4.5,10.77,0,1.49,4.17-.47,7.14-3.39,8.55A4.5,4.5,0,0,1,404.27,307.42Z"/><path class="cls-5" d="M417,309.15s-4,4.13-1.93,8.18,9,4.49,11-.53-4-8.88-4-8.88Z"/><path class="cls-5" d="M420.42,315.57s.92-4.34-1.4-6.92"/><path class="cls-5" d="M407.34,300.74s-1.75,4.07-.42,7.84"/><path class="cls-5" d="M428.92,305.41s-5.63-1.06-5.81-6.34,6.25-6.78,9.07-3,0,8.63,0,8.63Z"/><path class="cls-5" d="M426.44,297.93s3.11,2.08,3.9,7.15"/><path class="cls-5" d="M439,299.68a5.48,5.48,0,0,0,3.61,5c3.61,1.27,6.24-1.57,5.19-4.53-.79-2.22-3.44-3.16-6.16-3Z"/><path class="cls-5" d="M445.2,302.32s-.76-2.95-5-3.76"/><path class="cls-5" d="M445.63,290.9s.32,4.72,5,5.66a3.77,3.77,0,0,0,3.3-6.6c-2.83-2-6.69-1-6.69-1Z"/><path class="cls-5" d="M451.92,293.11a8,8,0,0,0-5.69-2.95"/><path class="cls-5" d="M450.48,283s-4.33,1.44-6.92-1.1-1.52-7.47,3-7.47c5.06,0,5.81,5.58,5.81,5.58Z"/><path class="cls-5" d="M446.23,277.77a8.94,8.94,0,0,1,5,4"/><path class="cls-3" d="M413,310.64A35.8,35.8,0,0,1,391.48,304a29.49,29.49,0,0,1-8.19-8.83l2.75-1.48c.36.67,9.17,16.39,32.39,13.53,12.59-1.55,24.44-10.63,30.19-23.13a36.77,36.77,0,0,0-2.7-36.37l2.6-1.72a39.81,39.81,0,0,1,2.93,39.4c-6.19,13.45-19,23.23-32.64,24.91A47.25,47.25,0,0,1,413,310.64Z"/><path class="cls-9" d="M469.51,214.43a34.13,34.13,0,0,0-32.71-34.09,34.12,34.12,0,0,0-50.63-36.2,41.4,41.4,0,0,0-78.12-6.71C283.25,120,250,124.19,233.14,147a49.92,49.92,0,0,0-9.35,34.87,41.39,41.39,0,1,0,7.29,76.72,57.54,57.54,0,0,0,23.59,41.9c24.92,18.38,59,14.45,76.12-8.76a50.17,50.17,0,0,0,2.92-4.46,48.86,48.86,0,0,0,77.63-8.74A34.13,34.13,0,0,0,460,238,34,34,0,0,0,469.51,214.43Z"/><path class="cls-1" d="M400.45,121.59s.62-5.75,5.33-6.64,6.43,4.45,6.43,4.45,2.2-5.49,7.85-5.49c6.43,0,11.61,5.64,9.88,13.49"/><path class="cls-5" d="M249.22,413.78s-7.05,1.89-6.53,7c.48,4.61,6.87,4.66,7.74-.69A8.48,8.48,0,0,0,249.22,413.78Z"/><path class="cls-5" d="M244.64,392s-13.56,2.73-7.13,14.45c0,0,5,1.35,7.75-4.32C247.64,397.21,244.64,392,244.64,392Z"/><path class="cls-5" d="M241.91,396.59a15.65,15.65,0,0,0-4.4,9.87"/><path class="cls-5" d="M246.18,420a9.85,9.85,0,0,0,3-6.24"/><path class="cls-5" d="M257.57,415.81s-3.4-4.94,0-8.45c3.22-3.3,7.81-.14,6.34,3.59S257.57,415.81,257.57,415.81Z"/><path class="cls-5" d="M260.16,408.77s-2.17,1.62-2.59,7"/><path class="cls-5" d="M323.85,414.8s-6-.91-5.08-7.61a4.51,4.51,0,0,1,8.93-.54C328.52,410.76,326.59,414,323.85,414.8Z"/><path class="cls-5" d="M323.22,406.87s1.36,5.19.63,7.93"/><path class="cls-1" d="M347,408.88s-1.56,8.47,5.16,9.48,8.06-8.65,0-11.49Z"/><path class="cls-4" d="M353,414.8s-2.86-1.62-3.61-6.87"/><path class="cls-4" d="M396.14,381.21s-3.59,12.54-1.35,29.62"/><path class="cls-4" d="M389.12,388.19s-.8,6.84,1,12.1"/><path class="cls-4" d="M344.17,426.72s-.15,15.38-4.33,25.83"/><path class="cls-4" d="M340.59,431.23A46.27,46.27,0,0,1,338,443.66"/><path class="cls-4" d="M404.85,459.39s2.28,14,7,19.22"/><path class="cls-4" d="M388.24,433.17s-.65,11.24,1.95,17.26"/><path class="cls-4" d="M385.31,431.23s-.66,8.46,0,11.39"/><path class="cls-1" d="M353,401.77a7.44,7.44,0,0,1-3.61-5.75c-.22-3.88,4.72-5,6.62-2.74a8.61,8.61,0,0,1,1.65,5.57Z"/><path class="cls-4" d="M353,396s2.51,2.13,2,4.89"/><path class="cls-1" d="M370.62,384.79c.5-5.58-4-6.86-6.09-6.59-2.75.35-5.09,3-4.18,6.84,1.1,4.6,5.07,4.25,5.07,4.25Z"/><path class="cls-4" d="M364.71,382.87s1.41,3.26,3.53,4"/><path class="cls-1" d="M294.62,173.68c.59-.93,5.29-9,9.81-10.91a1.21,1.21,0,0,1,1.46.44h0a1.19,1.19,0,0,1-.2,1.61,27.46,27.46,0,0,0-8.12,12.4Z"/><path class="cls-1" d="M287.25,159c2.49-.57,8.05,16.95,19.3,23.39,0,0-7.6,5.11-7.9,4.38S284,159.76,287.25,159Z"/><path class="cls-1" d="M274.53,176c.28-2.34,12.28,1.42,16.23,5.24,0,0-2.26,3.75-2.92,2.95C284.16,179.75,274.24,178.47,274.53,176Z"/><path class="cls-5" d="M289.61,168.5a6.64,6.64,0,0,1-7,3.55c-5.1-.63-6.26-5.59-3-7.69S288.09,165.16,289.61,168.5Z"/><path class="cls-5" d="M281.66,167.88a11.42,11.42,0,0,1,7.95.62"/><path class="cls-1" d="M371.84,225.89a133,133,0,0,1,4.88-16.77c2.78-7.51,5.6-12,7.31-10.39S374.1,220,375,233.64Z"/><path class="cls-5" d="M379.6,214.06a8.33,8.33,0,0,0,8.29-1.25c3.68-3.06-.39-6.37-3.86-4.91A7,7,0,0,0,379.6,214.06Z"/><path class="cls-5" d="M386.75,209.77a10.68,10.68,0,0,0-7.15,4.29"/><path class="cls-5" d="M367.2,211.67c2.3-1.23,8.81.89,6.51,10.52a9.42,9.42,0,0,1-7.07-4.18C364.85,215.38,365.41,212.63,367.2,211.67Z"/><path class="cls-5" d="M369.87,215.21a12.42,12.42,0,0,1,3.84,7"/><path class="cls-9" d="M536,232c2.34.69-4.71,20-2.55,21.14s11.82-6.25,13.66-3.13-16.51,3.89-14.78,19.53h-5.07S531.39,230.67,536,232Z"/><path class="cls-5" d="M524.69,230c2-2.62,7.64-2.73,8.72,3.47.93,5.24-.36,8.78-3.06,7.73S521.42,234.2,524.69,230Z"/><path class="cls-5" d="M528.83,232.49s3,4.32,3,8.77"/><path class="cls-5" d="M541.05,251.08a9.42,9.42,0,0,1,0-7.74c1.9-4.38,6.62-3.86,7.21-.66S544.47,250,541.05,251.08Z"/><path class="cls-5" d="M544.84,242.75a19.13,19.13,0,0,0-3.79,8.33"/><path class="cls-9" d="M280.35,197s-1.16-9.66,6.73-16.16c6.74-5.57,14-.58,13.85,2.69,0,0,1.87-14.43,16.93-17.31,13.59-2.61,21.36,12.69,14.82,21.74"/><path class="cls-9" d="M344.86,234.9s-2.54-9.47,4.85-12.24,11.08,7.6,11.08,7.6,1.62-8.08,9.24-8.07,10.62,9.48,11.77,12.71"/><path class="cls-1" d="M480.14,309.77s2.22-16.46,15-17.7c13.56-1.31,15.67,15.09,15.67,15.09"/><path class="cls-1" d="M503.06,311.77s10.21-9.34,21.2-5.18c10.19,3.85,5.23,20.51-2.47,24.23"/><path class="cls-1" d="M519.17,266.94s-1-6.6,4.27-7.29,6.57,8,6.57,8a6.68,6.68,0,0,1,7.47-4.06c5.5,1,6.61,9,5.64,13.28"/><path class="cls-3" d="M289.29,424.59c-50.27,0-66.93-29.44-67.67-30.81l4.56-2.49c0,.08,4.77,8.48,16.6,16,10.95,7,30.42,14.56,61,11.32,63.56-6.75,74.94-52.67,75.05-53.13l5.07,1.18c-.12.51-3.07,12.8-14.41,26-10.4,12.13-30.15,27.37-65.16,31.09A143.41,143.41,0,0,1,289.29,424.59Z"/><path class="cls-1" d="M392.87,327.49c-4.95-6-12.38-8.92-20.34-8.85,3.83-9.62,3-20-3.2-27.51-6.9-8.32-18.62-10.78-29.89-7.36,2.65-13,.38-25.75-7.51-35.26-15.35-18.51-46.45-18.41-71.78-.66a44.25,44.25,0,0,0-76,9.16c-21.27,1-39.16,15.17-42.07,34.82a38.53,38.53,0,0,0,5.59,26.09,28.4,28.4,0,0,0,27.23,46.49,43.34,43.34,0,0,0,1.6,5c9.78,24.78,41.08,35.64,69.92,24.27a63.72,63.72,0,0,0,20.69-13.17,44.25,44.25,0,0,0,78.16-6.83c10.44,8,27.08,6.87,39.61-3.53C399.09,358.36,402.65,339.28,392.87,327.49Z"/><path class="cls-1" d="M261.22,308.56s.46-7.8-6.78-11.48c-5.69-2.9-11.41,0-11.41,0"/><path class="cls-1" d="M295.37,346.16s-1.76-6.17,2.58-7.91c4.52-1.81,8.37,4,8.37,4S305.1,334,311,333.08s9.12,7,10.34,10.19"/><path class="cls-9" d="M217.75,260.09c2.9,0,3.54,18.1,12.13,26.31,0,0-5.06,3.09-6.07,1.87C220.39,284.1,214.65,260.09,217.75,260.09Z"/><path class="cls-5" d="M226.23,283.76s6-1.65,7.85-6.92-3.69-8.72-7.08-5.82C222.11,275.2,226.23,283.76,226.23,283.76Z"/><path class="cls-5" d="M229.37,274.75a24.63,24.63,0,0,0-3.14,9"/><path class="cls-9" d="M236.24,293.94a16.35,16.35,0,0,0,5.68-7c2.16-5.09,4.11-8.86,5.62-7.64,1.71,1.37.14,12.09-8.06,20.6C231.73,307.9,236.24,293.94,236.24,293.94Z"/><path class="cls-1" d="M184.41,310.17s-2.47-12.55,9.51-17.69,20.73,8.85,20.73,8.85"/><path class="cls-1" d="M208.88,295.06s.45-9.05,9-12.65,23.25,3.74,28.64,23.94"/><path class="cls-9" d="M233.88,537.16S233.62,374,280.5,361.48c39.9-10.66,45.41,92.81,61.9,152.86,2.41,8.78,2.19,18-5.74,22.45C315,549.05,274,564.41,233.88,537.16Z"/><path class="cls-4" d="M264.21,418.48a17.58,17.58,0,0,0,.82,6.11"/><path class="cls-4" d="M267.85,419.76a21,21,0,0,0,.53,4"/><path class="cls-4" d="M271.08,419.92a21,21,0,0,0,1.18,5.63"/><path class="cls-4" d="M255.43,455.26a36.85,36.85,0,0,0,.32,5.87"/><path class="cls-4" d="M259.45,456.07a21.85,21.85,0,0,0,.32,4.29"/><path class="cls-4" d="M263.47,456.07a28.92,28.92,0,0,0,.77,6.53"/><path class="cls-4" d="M282.75,467.77s.07,4.53.83,6.19"/><path class="cls-4" d="M286.07,467.77a29.83,29.83,0,0,0,1,5.81"/><path class="cls-4" d="M288.5,467.77a37.82,37.82,0,0,0,.57,5"/><path class="cls-4" d="M276,377.29a27.26,27.26,0,0,0,.78,6.21"/><path class="cls-4" d="M279.18,376.9a18,18,0,0,0,.62,5.59"/><path class="cls-9" d="M371.73,461.37c9.88.17,15,12.72,16.69,22.57s-11.77,7.22-20.8,7.22-17,2.24-17.83-4.25S358.37,461.15,371.73,461.37Z"/><path class="cls-5" d="M362.76,468.88c2.19.1.61,5.42-1.57,5.42S360.84,468.79,362.76,468.88Z"/><path class="cls-5" d="M362.5,478.85c.81.87,2.8.09,4-2s1-3.28.35-3.59c-.86-.4-2,.81-3.06,2.12S362,478.32,362.5,478.85Z"/><ellipse class="cls-5" cx="356.4" cy="479.96" rx="3.43" ry="2.03" transform="translate(-241.31 468.56) rotate(-52.31)"/><path class="cls-9" d="M408.65,527.33A22.51,22.51,0,0,1,396.4,502c5.61-24.66,17.89-72.46,35.91-109.39,25.39-52,49.88-65.42,69.7-41.58s36.09,116.82,40.52,179.74C542.53,530.73,467.18,555,408.65,527.33Z"/><path class="cls-4" d="M474.59,357.08s-.42,3.72,0,4.82"/><path class="cls-4" d="M471.49,357.88a9,9,0,0,0,0,3.42"/><path class="cls-4" d="M469.48,357.08s-1.2,3.42-.7,5.73"/><path class="cls-4" d="M434.49,440.56s0,6.84.93,9.45"/><path class="cls-4" d="M439.24,440.56s.23,4.85,1.3,7.37"/><path class="cls-4" d="M444,442.16a22,22,0,0,0,1.11,6.37"/><path class="cls-9" d="M81.05,713.71c-7.18-9.48-2-27.34,24.18-29.07s49.79,6.33,45.19,25-28.21,8.93-39.72,10.08S88.25,723.21,81.05,713.71Z"/><path class="cls-4" d="M93.06,687s13,.73,18.5,12.6c0,0-21.56.51-28.34,16.52"/><path class="cls-4" d="M145.65,693.6s-21.8-3-34.09,6c3-10.44,13.31-14.29,13.31-14.29"/><path class="cls-4" d="M143.5,719.2a39.46,39.46,0,0,0-31.94-19.59s11,4.67,13.31,21.16"/><path class="cls-9" d="M110.39,642.85c-3.68-12.34,13-21.54,25.45-24.37,11.82-2.68,36-1.08,34.65,12.19S157,650.3,144.35,652.32,114.18,655.57,110.39,642.85Z"/><path class="cls-4" d="M121.94,623.84s15.19-.86,18.27,8c0,0-17.4,5.94-19.2,20.61"/><path class="cls-4" d="M169.42,635.49s-14.34-7-29.21-3.64c0,0,.93-11.49,15.31-13.77"/><path class="cls-4" d="M147.66,651.68s1.79-12.75-7.45-19.83"/><path class="cls-4" d="M303.41,481.17S300.17,469,308.09,454s14.77-17.17,18-37.33"/><path class="cls-2" d="M326.17,416.66s15.13.66,16.22-12.49-8.11-25.43-8.11-25.43-4.53,4.2-10.52,9C315.64,394.23,308.6,408.16,326.17,416.66Z"/><path class="cls-4" d="M332.77,389.38s1.57,12.94-4.83,22.54"/><path class="cls-4" d="M301.13,441.54s4.61-3.28,7.47-1.13,1,10.78,1,10.78"/><path class="cls-4" d="M318.22,438.26s10.65-8.89,18.57-5.84"/><path class="cls-2" d="M336.51,432.3s-2.24,12.33,8.65,15.22,17.13-6.09,19.37-10.89a11.81,11.81,0,0,1-8.32-5.12C353,426.87,344,423.34,336.51,432.3Z"/><path class="cls-4" d="M339.61,433.51s3.91-1.43,6.87,1.24,5.19,4.85,10.9,3.23"/><path class="cls-2" d="M277.17,456.54a14.89,14.89,0,0,1,13.46,1.86c6.54,4.67,14.28-1.42,13.65-8.49s-5.77-15.13-12.7-12.86C281.68,440.28,277.17,456.54,277.17,456.54Z"/><path class="cls-4" d="M286.63,451.83s3.54-8.19,11.71-8.61"/><path class="cls-2" d="M318.84,456.48s-1.19,6.87,5.79,8.44c4.68,1.06,6.47,2.95,7.13,4a.4.4,0,0,0,.72-.09c.82-2.49,2.5-9.41-2.67-13.37S320.46,454.72,318.84,456.48Z"/><path class="cls-4" d="M329.76,462.39s-2.38-6.37-10.92-5.91"/><path class="cls-4" d="M306.11,458.24s7.55-5.38,12.83-1.95"/><path class="cls-9" d="M439.19,694.54c-1.53-5-.11-12,3.21-17.68,5.71-9.74,13-14.54,21.25-15.35,9.23-.9,15.07-1.53,28.11-11.25s31.15-2.64,34.15,12.33,11.48,17.29,5.58,31.18-36.18.77-53.6,3.71S442.88,706.6,439.19,694.54Z"/><path class="cls-5" d="M497.68,654.54c1.87,1.13-.58,5.82-3.88,6.2-2.31.27-2.12-2-.13-4.36C494.88,654.92,496.46,653.81,497.68,654.54Z"/><path class="cls-5" d="M460.56,667.56c2.57,2.23-3.36,7.65-6.06,6.17S458,665.33,460.56,667.56Z"/><circle class="cls-5" cx="467.06" cy="667.89" r="1.81"/><ellipse class="cls-5" cx="505.26" cy="654.83" rx="3.47" ry="2.85" transform="translate(-292.95 871.48) rotate(-67.53)"/><ellipse class="cls-5" cx="510.23" cy="662.32" rx="2.76" ry="2.02" transform="translate(-325.78 671.52) rotate(-53.02)"/><path class="cls-9" d="M420.84,707.56c-2.62,3.07-1.62,9.08,3.67,9.69,9.6,1.12,14.88-1.34,27.19.79s23.27-1,20.67-13.54-12.77-22.16-21.87-24.09-19.34,1.32-23.19,11C424.93,697.35,425.52,702.07,420.84,707.56Z"/><path class="cls-5" d="M434.13,696.29c2,1,.81,6.17-2.63,7.94s-4.3-1.48-2.72-4.39S432.29,695.4,434.13,696.29Z"/><path class="cls-5" d="M443.92,690.65c2.46.59-.32,8.06-3,7.28S441.46,690.06,443.92,690.65Z"/><path class="cls-5" d="M436.93,687.65c1.13.67-.94,4.82-2.28,4S435.8,687,436.93,687.65Z"/><path class="cls-9" d="M355.53,741.17C361.36,739.49,370,749,370,758.22s-11.55,10.66-22.7,8S340.65,745.46,355.53,741.17Z"/><path class="cls-5" d="M349.48,752.1c2,.78-1.61,8-3,7.56C344.28,758.92,347.48,751.33,349.48,752.1Z"/><path class="cls-5" d="M355.16,746.59c1.24.63,0,4.51-1.7,3.85S353.38,745.71,355.16,746.59Z"/><path class="cls-5" d="M359.29,748.07c.89,1,2.95-.59,2.52-1.92-.36-1.09-1.93-.75-2.52,0A1.49,1.49,0,0,0,359.29,748.07Z"/><path class="cls-1" d="M170,644.6c3.12-8.93,16.2-7.2,24.3-8.55s20.25-3.07,27.22,5,4.89,20.27-10.8,26.29C184.35,677.43,165.26,658,170,644.6Z"/><path class="cls-10" d="M206,668.84c.72-12.89-7.47-19.29-7.47-19.29s-15.36,1.51-20.39,14.82"/><path class="cls-10" d="M180.72,637.4s14.2,2,17.8,12.15c0,0,4.36-10.93,16.58-13"/><path class="cls-10" d="M224.47,655.21s-14.95-9.48-25.95-5.66"/><path class="cls-1" d="M256.73,632.08c1.49,7.9,6.38,10.87,8.76,11.87C263.28,633.7,261,624,259.21,617.7,257.82,619.53,255.25,624.17,256.73,632.08Z"/><path class="cls-1" d="M239.36,656.25c-1.53,15.2-.8,20.16-3.72,20.57-3.29.46-12.13-11.82-16.92-26.23a.79.79,0,0,0-1.54.18c-.29,4.48.23,13.2,5.65,26.08,8.26,19.63,26.15,18.62,26.15,18.62s2.05.18,5,.37C254.26,666,243.89,658.23,239.36,656.25Z"/><path class="cls-3" d="M274.75,690.3s-4.55-24.47-9.26-46.35c-2.38-1-7.27-4-8.76-11.87s1.09-12.55,2.48-14.38c-.67-2.3-1.72-5.18-2.26-6.47l-9.22.62s-3.63,8.95-7,33.1c-.6,4.29-1,8-1.36,11.3,4.53,2,14.9,9.78,14.6,39.59,7.42.47,20.51.95,20.61-1.43,0,0,7.16.23,7.23-1.46C281.91,690.41,274.75,690.3,274.75,690.3Z"/><path class="cls-3" d="M256.67,582.54c1.85.07,3.48,18.74,3.48,18.74l-7.95-.34S254.32,582.44,256.67,582.54Z"/><path class="cls-4" d="M250.07,658s19.49-3.34,18.06,33.36c0,0,6.74-.48,6.44,3"/><path class="cls-3" d="M249.51,581.53c1.79.08,2.88,11.62,3.18,15.3a1.55,1.55,0,0,0,1.25,1.31,18.82,18.82,0,0,0,5.7.1c5.26-.35,10.89-.14,10.8,2-.13,2.88-9.16,13.11-18,12.73-8.62-.36-9.92-5.81-8.26-14C245.68,591.61,247.37,581.44,249.51,581.53Z"/><circle cx="253.91" cy="602.45" r="1.02"/><circle class="cls-1" cx="270.46" cy="599.64" r="1.75"/><path class="cls-1" d="M127.53,652.52c6-4.68,23.86-10.61,35.81-.59s5.45,30.93-9,32.48-16.94,9.6-26.82,6.17S110,666.18,127.53,652.52Z"/><path class="cls-10" d="M156.57,684c-1.56-10.26-15.24-17.21-15.24-17.21s-7.9,9.24-2.17,22.61"/><path class="cls-10" d="M119,681.65s1.52-9.41,22.35-14.86c13.25-6.86,28.12.94,28.12.94"/><path class="cls-10" d="M127.53,652.52s11,.31,13.8,14.27c0,0,.39-12.62,15.24-18.76"/><path class="cls-3" d="M392.73,504.28s-6.12,7.26,4.23,11.55,30,2.57,30,2.57a12.91,12.91,0,0,0,15.9-2.57s28.85.59,22.15-27.27c0,0,2.83-12.18-8.89-14.16,0,0-3.75-16.08-16.63-7.7,0,0-2.4-6.56-11-6.73s-10,7.19-10,7.19-8.57-3.33-14.65,1.18c-7.09,5.26-4.39,13.62-3.85,17.48,0,0-8.62-.05-10.39,7.22A11.22,11.22,0,0,0,392.73,504.28Z"/><path class="cls-4" d="M410.1,500.9S419,511.66,420,541.67"/><path class="cls-4" d="M406.33,505.2c.34.86,2.09,17.75,12.61,23"/><path class="cls-4" d="M410.74,489.4s-1.38-2.7,0-3.58,2.52,1.06,2.52,1.06-.39-4.24,1.81-4.12,2.54,4.24,2.54,4.24"/><path class="cls-4" d="M439,481.53s3.48-3.89,5.16-2.41c1.19,1-1,5.05-1,5.05s2.06-3.33,3.89-2.19-1.83,6.3-1.83,6.3"/><path class="cls-4" d="M423.66,500.9s4.47,13.32,3.95,42.59"/><path class="cls-4" d="M418.94,502.22s2.22,27.13,8.72,28.75"/><path class="cls-4" d="M431.44,502.22s-1,17.33,3.2,19.06"/><path class="cls-4" d="M436.68,503.11s-3.49,23.93-2.92,38.56"/><path class="cls-4" d="M442.29,545.44s4.35-32.58,0-44"/><path class="cls-9" d="M264.87,719.29c2-4.2,8-11.25,16-9.42s11.24,1.3,14.25,4.2,5.05,6.32,8,8,.88,8.13-5.29,8.24-14.22,4.93-22.9,2.37S261.81,725.81,264.87,719.29Z"/><path class="cls-5" d="M282.35,714.55c.31-1.18,3.84-.52,4.32,1.17s-2.71,1-3.64.33A1.45,1.45,0,0,1,282.35,714.55Z"/><path class="cls-5" d="M291.77,716.68c1-.44,4.08,2.23,5,4.51s-1.45,1.83-3.66-.63C291.07,718.31,291,717,291.77,716.68Z"/><path class="cls-5" d="M289.64,721.32c.72-.59,3.28,1.13,4.16,3s.23,2.28-.68,1.91S288.68,722.1,289.64,721.32Z"/><path class="cls-9" d="M211.29,733.21c-6.72-5-3.25-12.16.67-21.59s11.75-20,26.24-20,24.29,8.62,27.42,16.84,3.92,14.69,11.36,17.73,5.49,15.18-12.14,14.2-26.24-5.68-32.9-6.07S216.38,737,211.29,733.21Z"/><ellipse class="cls-5" cx="219.26" cy="711.82" rx="3.04" ry="1.47" transform="matrix(0.25, -0.97, 0.97, 0.25, -524.93, 742.4)"/><path class="cls-5" d="M258.26,709.47c1.55-1.27,9.72,11,7.85,11.94C263.21,722.82,257.23,710.32,258.26,709.47Z"/><path class="cls-5" d="M249.77,708.66c1.76-1.58,4.2,2.9,4.88,4.61.47,1.18-.36,2.62-2.44.68S248.87,709.47,249.77,708.66Z"/><path class="cls-5" d="M250.3,702c.51-1.37,4.25-.36,4.76,2s-1.61,2-2.93,1S249.94,703,250.3,702Z"/><path class="cls-9" d="M413.81,757.65c1.69-11.39,16.74-11.56,23.89-8.91s16.08-7.92,25.72-7.55c11.75.45,16.3,6,21.73,12.7s7.88,15.47-4.37,19.35-22,5.87-27.36,16.21-21.44,12-23.07,2.28-1.45-11.55-6.13-15.22S412.77,764.68,413.81,757.65Z"/><path class="cls-1" d="M289.07,503.75s12.21-3.06,16.59,4.69-6.53,9.93-6.53,9.93-4.41,20.52-31.66,16.28c0,0-16.84,12.5-30.29.58,0,0-15.24,4.3-16.76-11.05,0,0-9.39-9.42,2.54-22.66,0,0-3.81-9.44,5.58-11.22,0,0-.25-8.38,8.13-7.11,0,0,0-9.65,7.87-10.41s9,8.35,9,8.35,6.12-6.07,12.27-4.29,8.95,6.6,9.21,10.41c0,0,8.12-1.78,11.93,4.57A15.88,15.88,0,0,1,289.07,503.75Z"/><path class="cls-4" d="M246.86,506.56s-.69-7.13,4.48-8.25,5.86,7,5.86,7,2.94-7.9,9.23-6,3.49,11.24,3.49,11.24"/><path class="cls-4" d="M281.66,512.15c1-.84,4.37-2.66,6.3-1s0,4.61,0,4.61,3.48-.8,3.9.93-1.82,2.56-1.82,2.56"/><path class="cls-4" d="M237.78,518.16s.84,4.19,4.89,4.19,5.62-4.19,5.62-4.19"/><path class="cls-4" d="M260.76,524.18s4.18,36.45,9.78,53.78"/><path class="cls-4" d="M268.15,525.22s3,22.79-2.29,32.92"/><path class="cls-4" d="M250.6,525.22a194,194,0,0,1,10.16,56.08"/><path class="cls-4" d="M277.84,521S274.43,553.5,280,580.6"/><path class="cls-4" d="M286.78,521.9s-1.26,16.28-10,27.68"/><path class="cls-4" d="M237.78,527.12s11.51,19.47,14.59,50.39"/><path class="cls-1" d="M154.91,552.32s-12.56,9.91-5.77,22.77,35.24,3.92,38.77-4.61c0,0,15.4,11.89,43.45,2.73,0,0,13.17,3.46,19.24-4s-2.45-12.76-10.24-13.28c0,0,13.52-6.1,9.25-20.17s-21.41-10.52-21.41-10.52,7.32-11.94,1.21-21.91-25.06-13.37-38.93-5.1S175,514.88,175,514.88s-19.06,3.76-25.34,17.87C143.3,547.06,154.91,552.32,154.91,552.32Z"/><path class="cls-4" d="M203.94,525.22s3.86,2.35,1,8.2c0,0,5.67-3.55,8,0s-1.26,8.49-5.22,10"/><path class="cls-4" d="M203.12,506.56s6.46-3.2,5.65,3.57c0,0,3.93-3.24,6.07,0s-3.08,5.49-3.08,5.49"/><path class="cls-4" d="M215.1,546.22s-6.68,37.9-3.34,64.11"/><path class="cls-4" d="M226.11,556s-5.05,18.8-15.14,30.16"/><path class="cls-4" d="M197.25,545.13s-2.72,44.61,1.81,62.52"/><path class="cls-4" d="M190.91,540.38s-1.37,18.14,5.66,22.44"/><path class="cls-4" d="M178.4,545.13s8.62,40.31,8.53,62.52"/><path class="cls-4" d="M173.47,549.58s2.5,15.52,8.72,15.51"/><path class="cls-9" d="M408.42,561.34c1.87-4.1,3.43-7.63,8.08-5s9.56,8.59,6,10.42-8.49,2.57-13.08,3.86S407.28,563.86,408.42,561.34Z"/><path class="cls-9" d="M428,547.35c8.51-.9,14.08,9.13,15.85,13.7s1,12.2-5.54,13-22.26,4.39-23.8-4.3S420.94,548.09,428,547.35Z"/><circle class="cls-5" cx="427.4" cy="552.42" r="1.09"/><path class="cls-5" d="M423.52,556.33c1.61.38.33,6.14-1.33,6.52s-1.64-2.1-1-3.94S422.82,556.16,423.52,556.33Z"/><path class="cls-1" d="M437.31,498s-4.57,3.93-1.74,7.46,8.07,2.57,8.07,2.57,10.49,13.69,32,2.95c0,0,25.79,13.31,46.71-2.95,0,0,17.95,2.83,27.73-1s8.48-7.56,5-9c0,0,20.94-9,5.27-25.12,0,0,4.44-17.09-14.9-21.34,0,0-.11-20.48-21.34-20,0,0-12-14-28-.38,0,0-22.86-7-30.68,17.86,0,0-21,1.67-18.73,21.07C446.64,470.08,425.24,477,437.31,498Z"/><path class="cls-4" d="M516.87,465.28s1.93-3.94,5.22-2.84,1.73,4.56,1.73,4.56,5-1.72,6,1.56-2.32,6.83-6.47,7.38"/><path class="cls-4" d="M482.69,460.84s-3.58-3-6.05-1.06.87,5.69.87,5.69-8.54-1.08-8.58,3.62c0,3.86,6.88,3.8,6.88,3.8"/><path class="cls-4" d="M463,491.08S478,515,478.89,568"/><path class="cls-4" d="M457.71,497.62s8.11,29,17.92,33.64"/><path class="cls-4" d="M481.7,493.88s1.63,43.46,7.94,71.27"/><path class="cls-4" d="M488,500s2,21-3.92,27.79"/><path class="cls-4" d="M496.65,492.71s-3.74,18.46,7.48,40"/><path class="cls-4" d="M504.13,492.71s-3,41.53,4.44,75.32"/><path class="cls-4" d="M519.55,495.65s-1.08,20.12,4.16,34.72"/><path class="cls-4" d="M533.57,495.65s-16.15,39.82-12.16,74.87"/><path class="cls-4" d="M541,482.72s2.07-2.39,3.51-1.12,0,2.87,0,2.87,3.32-.33,4,1.75-.64,4.45-3.74,4.86"/><path class="cls-9" d="M512.46,786.88s2.67,5.38,1.31,14.08a1.81,1.81,0,0,0,2.83,1.77h0a1.81,1.81,0,0,0,.7-1.09c.57-2.71,2.28-12.87-2.45-18.88Z"/><path class="cls-9" d="M558,795.59h0a2.45,2.45,0,0,0,3.27-1.65c2.51-9.21,10.72-39.23,10.72-39.23l-3.11-.48-12.33,38.31A2.46,2.46,0,0,0,558,795.59Z"/><path class="cls-9" d="M582.58,763.06s-26.92,10.39-40.68,30.08a1.72,1.72,0,0,0,.89,2.49h0a1.76,1.76,0,0,0,2-.45c3.42-3.84,18.54-21.79,37.82-28Z"/><path class="cls-4" d="M227.44,392.28s29.18,18.77,25.36,62.32"/><path class="cls-1" d="M224.74,399.64c1.53-4.59,11.46-.62,13.49,3.07,0,0-2.12,3.47-8.23,2C225.69,403.72,224.15,401.38,224.74,399.64Z"/><path class="cls-1" d="M236.82,389.26c2.92-1,4.87,6,1.62,13.46a11.92,11.92,0,0,1-4.05-7.47C233.83,391.75,235.37,389.75,236.82,389.26Z"/><path class="cls-1" d="M234.56,410.85c3.21-2.87,10.76,1.59,12,5.29a8,8,0,0,1-7.53,1.67C234.36,416.61,232.59,412.62,234.56,410.85Z"/><path class="cls-1" d="M250.23,402.71c3.55.57,2.72,12-3.46,13.29a8.8,8.8,0,0,1-1.3-8.29C246.82,403.36,248.74,402.47,250.23,402.71Z"/><path class="cls-1" d="M258.88,422.54c2.77.9,1.05,11.79-6.48,12.38,0,0-1.69-3.67.9-8.41C255.55,422.4,257.65,422.14,258.88,422.54Z"/><path class="cls-1" d="M241.92,429.07c1.16-2.46,4.87-1.65,6.71-.31s3.65,3.58,3.42,6.26a8.3,8.3,0,0,1-6.6-.1C241.77,433.35,241.28,430.41,241.92,429.07Z"/><path class="cls-5" d="M219.64,379.79a4.3,4.3,0,0,0-5.41,4.9,12,12,0,0,0,4.17,7.2,9.35,9.35,0,0,0,5.77,2.06,4.27,4.27,0,0,0,4.2-5.51,12.62,12.62,0,0,0-3.52-5.72A13.13,13.13,0,0,0,219.64,379.79Z"/><path class="cls-4" d="M215.94,380.44s8.85,3,12.09,11.28"/><path class="cls-4" d="M214.62,382s3.91,9.09,11.86,11.36"/><path class="cls-5" d="M435.7,572.05c3.07-2.69,9.27,2.65,11.93,8.51,1.94,4.28,1.52,12.31-4.65,8.26S431.94,575.34,435.7,572.05Z"/><path class="cls-4" d="M437.53,571.35s6.57,12.93,10.75,16.8"/><path class="cls-4" d="M434.77,573.07s5.34,11.74,12.38,16.51"/><path class="cls-4" d="M471.89,665.42c2.45-42.66-24.25-76.27-24.25-76.27"/><path class="cls-1" d="M456,621.14a10,10,0,0,0,7.65,5.35,1.92,1.92,0,0,0,2-2.63,8.85,8.85,0,0,0-7.83-5.53A1.91,1.91,0,0,0,456,621.14Z"/><path class="cls-1" d="M443.64,596.9c1.5,2.28,4.37,5.14,9,4.34a1.77,1.77,0,0,0,1.19-2.75,10.48,10.48,0,0,0-8.67-4.34A1.77,1.77,0,0,0,443.64,596.9Z"/><path class="cls-1" d="M462.47,599.33c-1.35,2.78-2.87,7.09-2,11.26a1.76,1.76,0,0,0,3.17.68,12.92,12.92,0,0,0,2.07-11.69A1.77,1.77,0,0,0,462.47,599.33Z"/><path class="cls-1" d="M449.74,609.07c2,2.35,5.45,5.41,9.73,4.22a1.75,1.75,0,0,0,1-2.6c-1.2-2-3.91-4.85-9.41-4.49A1.77,1.77,0,0,0,449.74,609.07Z"/><path class="cls-1" d="M460,633.43c1.36,2.65,3.85,6.15,7.63,6.68a1.75,1.75,0,0,0,1.92-2c-.35-2.26-1.84-5.78-7.57-7.17A1.76,1.76,0,0,0,460,633.43Z"/><path class="cls-1" d="M473.5,630a10.89,10.89,0,0,0-3.62,7.57,1.77,1.77,0,0,0,2.79,1.49,8.53,8.53,0,0,0,3.79-7.89A1.77,1.77,0,0,0,473.5,630Z"/><path class="cls-1" d="M468,613.3a13,13,0,0,0-2.09,10.59,1.76,1.76,0,0,0,3,.81,10.16,10.16,0,0,0,2.23-11A1.76,1.76,0,0,0,468,613.3Z"/><path class="cls-1" d="M459.48,587.59a11.45,11.45,0,0,1-2.63,11,2,2,0,0,1-3.32-.64,9.25,9.25,0,0,1,2.6-11.44A2.06,2.06,0,0,1,459.48,587.59Z"/><path class="cls-4" d="M438.71,631.45s16.05,13.76,17.64,35.18"/><path class="cls-5" d="M434.73,623.09c2.42.35,5.07,3.38,4.58,7.22a2,2,0,0,1-2.22,1.78,6.07,6.07,0,0,1-4.21-2.85,5,5,0,0,1-1.1-4A2.72,2.72,0,0,1,434.73,623.09Z"/><path class="cls-4" d="M433.22,623.26a13.77,13.77,0,0,1,6,7.58"/><path class="cls-4" d="M432.14,624.29a12,12,0,0,0,6.24,7.49"/><path class="cls-1" d="M434.87,636.41c.82-2.59,7.58-1.87,9.6,1.62.65,1.13.11,3.28-4.57,2.57C434.8,639.83,434.53,637.46,434.87,636.41Z"/><path class="cls-1" d="M446.07,628.24c1.57,0,2.55,2,2.3,5s-1.53,4.82-2.82,4.81-2.67-2.61-2.22-6C443.72,629.11,445.13,628.26,446.07,628.24Z"/><path class="cls-1" d="M441.9,646.81c.26-1.75,3.21-1.83,5-1.57s4,1.4,3.84,2.87-2.45,2.17-5.24,1.58S441.73,647.92,441.9,646.81Z"/><path class="cls-1" d="M451.86,637.26c2.38-.28,2.88,3.93,2.93,5.88s-.48,4.78-2,5.05-3.2-2.09-3.16-5.07S450.46,637.43,451.86,637.26Z"/><path class="cls-1" d="M458.35,650.67c1.72.46.86,4.22.2,5.59s-1.28,2.23-2.73,2.22-1.22-2.64-.33-4.49S457.34,650.41,458.35,650.67Z"/><path class="cls-1" d="M447.94,657.5c.24-1.59,3.09-1.16,3.77-1s3.38.72,3.11,2.07-2.59,1.11-4.28.86S447.77,658.68,447.94,657.5Z"/><path class="cls-5" d="M187.24,402.19c1.75-3.17,8.53-.6,12.52,3.48,2.92,3,5,9.81-1.38,8.3S185.1,406.07,187.24,402.19Z"/><path class="cls-4" d="M188.56,401s9.39,8.8,14,10.76"/><path class="cls-4" d="M186.77,403.32s8,8.17,15.32,10"/><path class="cls-4" d="M245.66,469.08c-10.86-36.31-43.29-56.25-43.29-56.25"/><path class="cls-1" d="M219.05,437a8.9,8.9,0,0,0,8,2.14,1.71,1.71,0,0,0,.91-2.81,7.83,7.83,0,0,0-8.2-2.24A1.7,1.7,0,0,0,219.05,437Z"/><path class="cls-1" d="M201.38,420.5c1.94,1.44,5.2,3,8.82.89a1.56,1.56,0,0,0,.16-2.64,9.27,9.27,0,0,0-8.55-1A1.57,1.57,0,0,0,201.38,420.5Z"/><path class="cls-1" d="M217.82,416.83c-.29,2.72-.25,6.78,1.76,10a1.57,1.57,0,0,0,2.85-.39,11.48,11.48,0,0,0-1.81-10.37A1.56,1.56,0,0,0,217.82,416.83Z"/><path class="cls-1" d="M210.15,428.8c2.34,1.36,6.18,2.86,9.39.57a1.55,1.55,0,0,0,0-2.46c-1.61-1.29-4.72-2.86-9.2-.9A1.57,1.57,0,0,0,210.15,428.8Z"/><path class="cls-1" d="M226.05,446c1.93,1.8,5.07,4,8.38,3.26a1.55,1.55,0,0,0,1-2.27c-1-1.78-3.29-4.26-8.48-3.69A1.56,1.56,0,0,0,226.05,446Z"/><path class="cls-1" d="M236.31,439.09a9.66,9.66,0,0,0-.74,7.41,1.57,1.57,0,0,0,2.78.4,7.6,7.6,0,0,0,.78-7.73A1.57,1.57,0,0,0,236.31,439.09Z"/><path class="cls-1" d="M226.61,426.82a11.52,11.52,0,0,0,1.46,9.46,1.56,1.56,0,0,0,2.73-.23,9,9,0,0,0-1.47-9.87A1.57,1.57,0,0,0,226.61,426.82Z"/><path class="cls-1" d="M211.77,408a10.15,10.15,0,0,1,1.13,9.95,1.81,1.81,0,0,1-3,.47,8.18,8.18,0,0,1-1.29-10.32A1.82,1.82,0,0,1,211.77,408Z"/><line class="cls-4" x1="158.99" y1="739.41" x2="160.89" y2="745.78"/><line class="cls-4" x1="162.77" y1="737.77" x2="163.65" y2="744.52"/><line class="cls-4" x1="167.55" y1="737.24" x2="167.55" y2="743.14"/><line class="cls-4" x1="173.07" y1="736.61" x2="173.07" y2="741.15"/><line class="cls-4" x1="138.38" y1="757.69" x2="139.38" y2="763.99"/><line class="cls-4" x1="141.89" y1="757.69" x2="142.9" y2="763.11"/><line class="cls-4" x1="145.66" y1="758.59" x2="146.41" y2="763.11"/><line class="cls-4" x1="151.31" y1="757.69" x2="151.31" y2="763.11"/><line class="cls-4" x1="300.28" y1="688.55" x2="301.05" y2="694.11"/><line class="cls-4" x1="303.9" y1="688.55" x2="304.37" y2="693.35"/><line class="cls-4" x1="308.99" y1="689.61" x2="308.99" y2="693.35"/><line class="cls-4" x1="313.84" y1="690.58" x2="313.84" y2="696.36"/><line class="cls-4" x1="217.01" y1="622.94" x2="218.54" y2="629.29"/><line class="cls-4" x1="222.04" y1="621.6" x2="222.98" y2="628.19"/><line class="cls-4" x1="226.75" y1="621.6" x2="227.38" y2="626.2"/><line class="cls-4" x1="231.3" y1="621.6" x2="231.3" y2="626.12"/><line class="cls-4" x1="283.43" y1="610.33" x2="283.43" y2="617.72"/><line class="cls-4" x1="287.67" y1="612.01" x2="287.67" y2="615.63"/><line class="cls-4" x1="292.22" y1="610.33" x2="292.22" y2="613.82"/><line class="cls-4" x1="297.72" y1="612.78" x2="297.72" y2="609.35"/><path class="cls-3" d="M578,601.65l-8.59,4.59-8.32-5.08-3.58,4.73s7.47,6.3,7.06,20.57l4.24.13,4.25.12c.42-14.28,8.24-20.12,8.24-20.12Z"/><line class="cls-9" x1="569.09" y1="613.54" x2="569.22" y2="607.23"/><path class="cls-9" d="M590.33,589.86a9.91,9.91,0,0,0-9.26-12.78,9.79,9.79,0,0,0-1.44.07,10,10,0,0,0-19.35-.59,8.48,8.48,0,0,0-1.14-.1,10,10,0,0,0-10.26,9.67,10.11,10.11,0,0,0,.24,2.41,10,10,0,1,0,11.75,15.05,10,10,0,0,0,16.58.49,10,10,0,1,0,12.88-14.22Z"/><path class="cls-1" d="M541.12,616.71a7.48,7.48,0,0,1,12-4.45c3.82,3.5,3.93,9.1,13.48,10.2,6.06.69,3.92,8.35-7.33,8.19C545.17,630.45,539.92,622,541.12,616.71Z"/><path class="cls-1" d="M596.92,617.82a7.48,7.48,0,0,0-11.82-4.92c-4,3.34-4.29,8.93-13.88,9.65-6.08.45-4.25,8.19,7,8.48C592.32,631.39,597.9,623.12,596.92,617.82Z"/><path class="cls-3" d="M593.22,652.58l-8.6,4.59-8.31-5.08-3.58,4.73s7.47,6.3,7,20.57l4.24.13,4.25.12c.42-14.27,8.24-20.12,8.24-20.12Z"/><line class="cls-9" x1="584.29" y1="664.47" x2="584.41" y2="658.16"/><path class="cls-9" d="M605.53,640.79a10.37,10.37,0,0,0,.41-2.52A10,10,0,0,0,596.26,628a11.39,11.39,0,0,0-1.44.07,10,10,0,0,0-19.35-.59,10.54,10.54,0,0,0-1.13-.1,10,10,0,0,0-10.26,9.67,9.58,9.58,0,0,0,.23,2.41,10,10,0,1,0,11.75,15,10,10,0,0,0,16.58.49,10,10,0,1,0,12.89-14.22Z"/><path class="cls-1" d="M556.31,667.64a7.48,7.48,0,0,1,12-4.45c3.82,3.5,3.93,9.1,13.48,10.2,6.06.69,3.92,8.35-7.33,8.19C560.36,681.38,555.12,672.9,556.31,667.64Z"/><path class="cls-1" d="M612.11,668.75a7.48,7.48,0,0,0-11.82-4.92c-4,3.34-4.29,8.93-13.88,9.65-6.08.45-4.25,8.19,7,8.48C607.52,682.32,613.09,674.05,612.11,668.75Z"/><path class="cls-5" d="M541.55,841.21a30.61,30.61,0,0,1-3.42,2.7c-12.91,8.81-24.09,15.51-23.5,27.71,1,19.8,18.82,11.61,24.82,4.5s8.79-12.92,10.85-27.34c.21-1.45.4-2.81.57-4.12C546.83,845,543.2,842.52,541.55,841.21Z"/><path class="cls-9" d="M553.61,820.26a2,2,0,0,0-2,1.72,33.4,33.4,0,0,1-10.05,19.23c1.65,1.31,5.28,3.74,9.32,3.45,1.34-9.94,2-15.93,4.59-21.51A2,2,0,0,0,553.61,820.26Z"/><path class="cls-4" d="M529.57,849.79s15,6.3,19.47,6.31"/><path class="cls-4" d="M522.87,855s6.3,7.44,25.28,4.79"/><path class="cls-4" d="M545,868.16s-20-5.16-26.59-8.3"/><path class="cls-4" d="M539.45,876.12S528,867.33,515,866.42"/><path class="cls-4" d="M533,877.43a6.85,6.85,0,0,1,0,5.67"/><path class="cls-4" d="M535.13,855s-4.16-.21-5.56,2.68"/><path class="cls-4" d="M545,845.6a14.52,14.52,0,0,1,2.51,5.4,4.43,4.43,0,0,0,3.34,3.36"/><path class="cls-4" d="M536.3,845.16a11.28,11.28,0,0,0,6.86,3.44,63.08,63.08,0,0,1,7,1.38"/><path class="cls-4" d="M530.2,845.16a4.49,4.49,0,0,0,4.08,2.38,2.2,2.2,0,0,1,2,1.66"/><path class="cls-9" d="M466,842.75a42.31,42.31,0,0,1-3.87-7.5c-2.13-5-3.48-8.76-4.33-11.46a2.5,2.5,0,1,0-4.11,2.57c1.94,1.82,5.1,6.1,4.92,14.67,0,1.46-.13,2.79-.27,4A9.86,9.86,0,0,0,466,842.75Z"/><path class="cls-5" d="M481.26,858.07c-8.21-9.61-11.65-9.93-15.3-15.32a9.86,9.86,0,0,1-7.66,2.31c-1.09,9.19-4.83,13.13-2.93,27.62,2.16,16.43,19.26,25,27.29,21.3S492.19,870.85,481.26,858.07Z"/><path class="cls-5" d="M455.86,856.64A34.75,34.75,0,0,1,471,854.36c7.71.82,6.45-.15,6.45-.15"/><path class="cls-4" d="M454.86,866.42s16-1.95,24.91-10"/><path class="cls-4" d="M455.86,875.3s12.1-6.85,31.73-5.6"/><path class="cls-4" d="M458,861s-2.95-2-4.46.44c-.91,1.45-3.09,1.27-3.09,1.27"/><path class="cls-4" d="M469.38,850.27s-.36-2.19,2.58-3.16,2.43-4.36,2.43-4.36"/><path class="cls-5" d="M512.21,852.18a63.05,63.05,0,0,1-6.32,5.81c-12.45,9.82-18.12,11.08-22.31,26.07s-4.92,35.17,12.63,24.18,24.94-15.79,24.74-34.07c-.08-7.22-.16-12.18,0-16C518.67,855.23,514.19,853.05,512.21,852.18Z"/><path class="cls-9" d="M531.76,825.51a2.56,2.56,0,0,0-2.3,1.42c-2,4-8.16,15.72-17.25,25.25,2,.87,6.46,3.05,8.78,6,.32-5.85,1.29-9,4-13.49,3.34-5.61,6.56-11,9-15.35A2.56,2.56,0,0,0,531.76,825.51Z"/><path class="cls-4" d="M505.89,858s9.44,5.23,15.12,14.32"/><path class="cls-4" d="M484.54,881a14.79,14.79,0,0,1,13.9,4.64,59.9,59.9,0,0,0,14.46,10.84"/><path class="cls-4" d="M483.58,884.06s7.32,11.14,24.64,16.26"/><path class="cls-4" d="M490.44,870.33s20,13.41,24.8,23.59"/><path class="cls-4" d="M497.46,864.31s7,6.79,24.21,13.17"/><path class="cls-4" d="M482.83,886.94s8.08,14.29,17.38,18.78"/><path class="cls-4" d="M496.21,908.24s-8.67-1.93-15-11.81"/><path class="cls-4" d="M492.31,861.29a6.73,6.73,0,0,0,5.15,1.09c3.28-.49,4.36,2.92,4.36,2.92"/><path class="cls-4" d="M503.53,876.6s4.5,2.85,2.36,9.3,2.39,5.64,1.82,10.43"/><path class="cls-4" d="M497.07,891.08s-2.79-3.34-5.55-1.23a3.83,3.83,0,0,1-5,0"/><path class="cls-5" d="M479.4,858.43a44,44,0,0,1-10.66,8.07c-9.82,4.77-16.55,13.74-17.11,26.36s-2.8,17.39,3.93,19.91c6.93,2.6,23.27-2,29.72-13.46S490.61,876,488.93,869A17.54,17.54,0,0,1,489,861C485.75,861.05,481.5,859.37,479.4,858.43Z"/><path class="cls-9" d="M503.3,829.62a1.91,1.91,0,0,0-3.8-.13,21.38,21.38,0,0,1-4.69,11.21c-3.24,4-9.06,11.56-15.41,17.73,2.1.94,6.35,2.62,9.62,2.52,1.14-5.08,4.17-10.82,8.88-17.73S503.39,831.86,503.3,829.62Z"/><path class="cls-4" d="M455.58,878.57s13.54,13.67,30.77,18.69"/><path class="cls-4" d="M451.36,897.26s18,0,28.63,8.46"/><path class="cls-4" d="M450.82,906s12.56,1.5,17.15,6.22"/><path class="cls-4" d="M464.39,869s11.88,7.49,25.88,8.08"/><path class="cls-4" d="M445.33,882.33s1.35,2.53,5.49,2.63,4.68-1,6.64,0"/><path class="cls-4" d="M446.5,899.72a6.41,6.41,0,0,0,6.05-1c2.88-2.3,4.05-3.91,6.84-2.92"/><path class="cls-4" d="M477.6,878.57s1.32,5-.27,8.92.27,3.94.27,3.94"/><path class="cls-4" d="M476.69,900.07s1.66.8,1.42,3.47.25,5.62,2.37,6.38"/><path class="cls-4" d="M466.51,908.26a6.62,6.62,0,0,1,2.18,5.22c0,3.58,3.57,3.33,3.57,3.33"/><path class="cls-4" d="M454.22,874.41s6.38-2.89,8.64,1.83"/><line class="cls-4" x1="395.54" y1="802.6" x2="396.47" y2="808.68"/><line class="cls-4" x1="399.74" y1="802.6" x2="399.74" y2="807.15"/><line class="cls-4" x1="404.64" y1="801.31" x2="404.64" y2="804.88"/><line class="cls-4" x1="410.95" y1="801.31" x2="410.95" y2="804.88"/><line class="cls-4" x1="413.71" y1="785.43" x2="414.69" y2="789.45"/><line class="cls-4" x1="417.96" y1="784.23" x2="418.89" y2="788.47"/><line class="cls-4" x1="590.08" y1="709.54" x2="591.14" y2="714.64"/><line class="cls-4" x1="593.89" y1="708.56" x2="594.67" y2="712.09"/><line class="cls-4" x1="598.48" y1="707.26" x2="598.48" y2="712.09"/><line class="cls-4" x1="603.11" y1="707.26" x2="603.11" y2="710.58"/><line class="cls-4" x1="506.04" y1="579.05" x2="507.78" y2="586"/><line class="cls-4" x1="511.51" y1="581.33" x2="511.51" y2="586"/><line class="cls-4" x1="514.84" y1="580.64" x2="514.84" y2="586"/><line class="cls-4" x1="520.78" y1="582.52" x2="520.78" y2="586.9"/><path class="cls-6" d="M316,672.26s.41,2.45-.08,3.07-6.24,2.85-5.84,5.39c.38,2.36,4.38,2.5,12.81-1.87a3.78,3.78,0,0,0,2-3.27l.15-5.54Z"/><path class="cls-6" d="M358.7,670a20.09,20.09,0,0,1-.11,4.27c-.31,1-5.77,3.44-4.27,6.07,1.23,2.14,7.54,0,11.12-2.19a4,4,0,0,0,1.95-3.35l.2-7.38Z"/><path class="cls-1" d="M300.75,574.49s-9.87,51.16-4.59,77.7,31.22,20.7,43.28,16.62c0,0,3.09,4.15,17.38,2.3,15.55-2,23.93-4.42,29.66-10s4.21-17.28,3.39-28.8-5.07-46.58-11-58C378.85,574.23,322.77,559.14,300.75,574.49Z"/><path class="cls-4" d="M335.35,588.29s-1,49.28-1.22,58.42-.75,16.63,5.31,22.1"/><path class="cls-4" d="M295.68,649.45s8.38,4.26,23.39,5.1c8.08.46,12.57.55,15,.55"/><path class="cls-4" d="M334.12,652.81s10.71,3.83,28.5.74,24.62-7.51,28-10.07"/><circle class="cls-4" cx="377.61" cy="655.97" r="1.38"/><circle class="cls-4" cx="377.47" cy="661.28" r="1.38"/><path class="cls-4" d="M308.1,582.2s-2.4,19.49-2.53,34.15"/><path class="cls-4" d="M305.22,623.67s-.91,15.13.31,22.2"/><path class="cls-4" d="M320.07,580.68a395.84,395.84,0,0,0-3.4,47.32"/><path class="cls-4" d="M312.13,602.45s-2.06,17.75-.85,32.47"/><path class="cls-4" d="M316.45,635.06s-.42,10.39.67,16.14"/><path class="cls-4" d="M325.87,606.69s-1.55,27.95,1.07,44.76"/><path class="cls-4" d="M330,581s-2.09,9.66-1.63,15.6"/><path class="cls-4" d="M344.15,581.68s.84,5.06,1.21,11.93"/><path class="cls-4" d="M346,603.34s3.28,22.87,2.45,39"/><path class="cls-4" d="M351,587s5,20.09,4.64,32.84"/><path class="cls-4" d="M356.66,580.22a98.57,98.57,0,0,1,5.92,26.11"/><path class="cls-4" d="M356.06,629s.77,10.07.24,13.54"/><path class="cls-4" d="M363.29,613.1s2.15,19.5.89,33.43"/><path class="cls-4" d="M373.11,634.29s.17,9.47-.35,13.35"/><path class="cls-4" d="M384.81,633.41a24.71,24.71,0,0,1-.16,5.93"/><path class="cls-4" d="M348.33,647s.26,3.09-.1,3.84"/><path class="cls-4" d="M369.71,594.25s3.81,17.49,3.6,32.47"/><path class="cls-4" d="M375.18,584s6.22,17.27,7.51,41.74"/><path class="cls-4" d="M365.46,580.45a22.79,22.79,0,0,1,2.63,7.81"/><path class="cls-3" d="M284.55,529.89c9.73-16,28-29.47,53.61-28.8,36.23,1,50.12,27.59,52.61,39.36s-.68,35.61-17.77,38.26c-13.72,2.12-44.73-8.32-44.73-8.32s-19.68,13-33.79,6.67S271.42,551.42,284.55,529.89Z"/><path class="cls-4" d="M299.85,550.29s31.74-19.9,52.13-1.65"/><path class="cls-4" d="M305.51,538.43s-1.09,5.84-.24,9"/><circle class="cls-9" cx="337.35" cy="532.01" r="1.88"/><circle class="cls-9" cx="337.6" cy="522.49" r="1.88"/><path class="cls-9" d="M333.57,504.57c-3.36,1.18-10.12,5.21-10.24,18.45a.27.27,0,0,0,.38.26c2.16-1,12.49-6.44,11.91-17.33A1.55,1.55,0,0,0,333.57,504.57Z"/><path class="cls-9" d="M339.24,504c3,.81,10.35,4.25,10.14,18.48a.28.28,0,0,1-.42.24c-2-1.28-11.07-7.53-11.07-17.66A1.08,1.08,0,0,1,339.24,504Z"/><path class="cls-4" d="M328.27,570.39s6.43-5,12.59-10.63,10.16-14.86,22.33-12.9c0,0-2.61-3.26-3.17-9.4"/><path class="cls-4" d="M337.1,541.47s6.1,4.93,5.54,16.52"/><path class="cls-4" d="M339,561.43s1.49,6.77-1.77,11.71"/><circle class="cls-1" cx="336.84" cy="508.06" r="3.2"/><ellipse class="cls-6" cx="353.46" cy="492.5" rx="9.92" ry="7.74" transform="translate(-148.15 832.9) rotate(-88.5)"/><ellipse class="cls-6" cx="319.66" cy="491.61" rx="9.92" ry="7.74" transform="matrix(0.03, -1, 1, 0.03, -180.17, 798.25)"/><circle class="cls-6" cx="335.84" cy="491.75" r="14.24"/><ellipse cx="331.15" cy="495.94" rx="1.71" ry="0.92" transform="translate(-173.31 813.96) rotate(-88.5)"/><ellipse cx="337.36" cy="496.1" rx="1.71" ry="0.92" transform="translate(-167.42 820.33) rotate(-88.5)"/><path class="cls-4" d="M540.56,568.91s-6.37-66.13,35.24-100.59"/><path class="cls-4" d="M547.2,465.07c1.95-.65,11.21,8,10.8,23.85"/><path class="cls-4" d="M548.41,509s17.51-16.93,37.94-11.15"/><path class="cls-2" d="M526.94,428.65s-8.92,17.8-.48,31.25,19.66,7.19,23.77,2.69,5.28-13.52-1.6-21.71C542.61,433.71,532.51,435.78,526.94,428.65Z"/><path class="cls-4" d="M531.51,441.74s2.3,14.8,12.64,19.08"/><path class="cls-2" d="M574.94,467.77c-7.67-12.25,0-31.76,15.81-36C610,426.57,618,442.54,629,442.1a1,1,0,0,1,1,1.33c-2.33,5.8-11.73,26.72-28.27,32C588.59,479.55,579.48,475,574.94,467.77Z"/><path class="cls-4" d="M581.45,463.51S589.93,445.34,617,446"/><path class="cls-2" d="M585.28,500c4-13.82,17.39-17.54,30.31-8.75s18.59,8.16,18.59,8.16.4,26-23.67,26.92C590.48,527.1,582.35,510.08,585.28,500Z"/><path class="cls-4" d="M591.51,498.2s12.87-4.55,28.36,11.23"/><path class="cls-4" d="M540.8,545.41s16.79-16.63,28.62-.29"/><path class="cls-2" d="M569,545s-5.71,10.71,2.78,17.24c9.74,7.49,19.3-2.63,21.51-5.23a.53.53,0,0,0-.21-.84,19.75,19.75,0,0,1-8.21-7.38C580.3,541.29,574.09,542.28,569,545Z"/><path class="cls-4" d="M572.74,548.39s1.87,8.32,12,8.54"/><path class="cls-3" d="M438.92,763.3c10.12-8.65,23.45-2.6,31.38-8.65s16.18-13.11,25-2.52,8.82,12.47,17.64,8.88,17,3.27,15,11.46-5.84,14.36-13.49,20.54-10.58,13.74-13.24,21.76-14.4,15.88-26.16,15.29-12.41,1.18-23.55,5.59-17-5-16.44-13.24-6.83-8.23-6.07-18.23,8.23-7.7,6.07-19.95S435.8,766,438.92,763.3Z"/><path class="cls-4" d="M449.92,817.13s13.73-38.13,54-55.37"/><path class="cls-4" d="M440.45,794.45a46.77,46.77,0,0,0,28.67-7.57c-4.87,18.45-.81,31.45-.81,31.45"/><path class="cls-4" d="M449.92,776.79s15.94,4.87,31.21-1.3c-3.92,16.33,2.12,37.91,2.12,37.91"/><path class="cls-4" d="M501.17,763S493,780.42,496.5,798.9"/><path class="cls-4" d="M469.12,764.65s12.93,3.18,32.05-1.66"/><path class="cls-4" d="M145.93,505.34s15.92,9.4,13.23,39.66c-3.85,43.26,19.24,43.94,15.85,70.29"/><path class="cls-4" d="M170,520.67s-10.69,8.25-10.66,14.27"/><path class="cls-4" d="M139.25,559.94s10.86-10.05,19.77,1.76"/><path class="cls-2" d="M101.39,587.35s7.56-9.22,7.13-19.59,5.31-19.3,17.72-17.3,22.2,18.17,11.23,29.54C126,591.91,101.39,587.35,101.39,587.35Z"/><path class="cls-2" d="M135,562.94s-14.37-.17-19.77,15.08"/><path class="cls-2" d="M124.4,484.86s5.27,4.24,5.07,13.17,9.75,9.89,16.25,7.29c3.87-3.59,6.3-12.42.45-18.52C138.06,478.32,124.4,484.86,124.4,484.86Z"/><path class="cls-4" d="M134.84,490.48a15.76,15.76,0,0,1,8.91,9.84"/><path class="cls-4" d="M154.91,585s6.09-5,11-.31c0,0-.28-11.46,9.07-13.73"/><path class="cls-2" d="M133.47,598a.5.5,0,0,1-.59-.63c.42-1.47,1.27-4.43,2-7.2,1.21-4.58,4-11.76,13.34-10.47s9.48,12.45,4.3,16.21C147,599.9,137.44,597,133.47,598Z"/><path class="cls-4" d="M140.69,591.77a13.18,13.18,0,0,1,10.91-5.66"/><path class="cls-2" d="M191,546.22a20.22,20.22,0,0,1,.5,19.61c-5.45,10.71-17.73,8.85-19.61.22s5.21-13.65,10.42-15A20.24,20.24,0,0,0,191,546.22Z"/><path class="cls-2" d="M186.93,557.47s-6.25.37-8.53,7.71"/><path class="cls-2" d="M202.91,465.65a37.32,37.32,0,0,0,5.56,19.7c6.12,10,5.72,37.26-19,39.68-28.3,2.78-35.76-26-23.43-40.1S189.65,474.22,202.91,465.65Z"/><path class="cls-2" d="M194.44,480.75s-19.67,7.39-22.73,29.38"/><path class="cls-3" d="M590.39,729.42c-9.65-3.66-8.55-9.93-17.84-16.15-10.88-7.28-26.32.89-33.73-8.43-6.79-8.53-24.57-16.9-33.27-7.74-6.08,6.4-2.77,18,7.86,24s5.73,16.14,5.08,25.87c-1.14,17.12,9.41,30.25,27.27,35.58,20.87,6.23,24-6.47,22.63-16.17s1.82-16,15.09-15.8C595.76,750.81,603.31,734.32,590.39,729.42Z"/><path class="cls-4" d="M570.56,754.65C555.64,719.15,522.45,713,522.45,713"/><path class="cls-4" d="M574.33,727.21A33.79,33.79,0,0,0,567,747.35C550.56,744.09,536.71,761,536.71,761"/><path class="cls-4" d="M556.65,716.37S552,722,555.52,731.88c-19.21-4.11-27.62,10.72-27.62,10.72"/><path class="cls-4" d="M522.45,722.93s6.55-5.3,19.16-2c0,0-4.68-4.59-3.74-10.33"/><path class="cls-9" d="M578.39,764.65c1.45,8.73-17.28,16.08-10.78,24.63s26.25-3.54,35.7,2.37,17.43,23.9,34,21.54,18.3-10,25.68-20.36,25.09-12.7,23-24.21-16.53-5-29.52-19.18-20.37-19.78-34.83-18-15.35,10-30.11,6.49-29,2.13-27.15,13.29C565.64,759,576.91,755.79,578.39,764.65Z"/><path class="cls-4" d="M578.39,764.65s41.74-18.09,77.41,0"/><path class="cls-4" d="M629.9,742.6s-5.75,9.76-20.59,14.56c21.31,5,34.52,31.19,34.52,31.19"/><path class="cls-4" d="M602.05,747.54s-4.7,11-11.52,13.09c0,0,15.67,2.79,27.64,17.94"/><path class="cls-4" d="M657.76,778.57s-7-16.21-19.44-20.06a27.89,27.89,0,0,0,9.72-8.4"/><path class="cls-4" d="M424.86,392.54a20.79,20.79,0,0,1,7.61.07"/><path class="cls-2" d="M408.76,346.94s1.15,7.82,0,13.57.69,17.87,15.64,14.34c0,0,9.71-4.68,5.29-16C424.52,345.74,408.76,346.94,408.76,346.94Z"/><path class="cls-2" d="M391.74,393.43s5.69,17.9,20.32,15.83,12.8-16.72,12.8-16.72-4.3-8.26-13.8-8.34S398.18,393.46,391.74,393.43Z"/><path class="cls-4" d="M404.6,395.45s7.23-8.28,20.26-2.91"/><path class="cls-4" d="M438.87,407s6.65-.5,10.26,4"/><path class="cls-4" d="M448.21,387.59c-7.62,3.69-5.27,13.12-5.27,13.12"/><path class="cls-2" d="M417.55,415.33a.54.54,0,0,1,0-.87c1-.86,2.3-3.24,3.78-6.11,2.56-5,8.39-9.34,17.58-1.42,0,0,1.21,7.93-6.53,10.88C426,420.23,419.6,416.66,417.55,415.33Z"/><path class="cls-4" d="M423.86,411.43s4.56-6.5,15-4.5"/><path class="cls-2" d="M465.23,382.94s-5.32-5.58-10.83-4.71-7.81,6.55-6.19,9.43S455,393,458.89,390C462.1,387.63,461,384.51,465.23,382.94Z"/><path class="cls-4" d="M457.75,382s-6.64-.32-9.54,5.66"/><path class="cls-4" d="M417.31,357.59s6.63,5.68,7.43,21.11c1,19.7,24.05,12.86,26.17,41.86"/><path class="cls-11" d="M339.36,896s-2.53,8.17,4.22,11.31c0,0-1.12,6.8,5.63,7.37"/><path class="cls-8" d="M404.64,857.71c-2.38-3.8,6.45-9.22,10-6.29,2.13,1.78-1.42,5.1-3.93,6.25S405.48,859,404.64,857.71Z"/><ellipse class="cls-8" cx="336.49" cy="876.24" rx="2.4" ry="2.98" transform="translate(-431.75 336.96) rotate(-33.92)"/><ellipse class="cls-8" cx="414.15" cy="925.36" rx="5.05" ry="2.75" transform="translate(-504.46 496.45) rotate(-40.86)"/><path class="cls-11" d="M393.5,924.53c-.14-.44-.86-2.89,2.89-4.76s1.29-3.19,4.61-6.29,5.05-2.37,6.06-6.41"/><path class="cls-9" d="M547.45,327.74s4.25,13.28,19.32,6.55C566.77,334.29,559.44,320,547.45,327.74Z"/><circle class="cls-5" cx="550.11" cy="335.64" r="7.99"/><path class="cls-9" d="M549.67,299.88S542,312,551.4,319.61C551.4,319.61,561,312,549.67,299.88Z"/><path class="cls-9" d="M544.69,324.69s-6.71-8.47,4.58-17.15C549.27,307.54,555.22,321.46,544.69,324.69Z"/><path class="cls-9" d="M539.73,363s8.88-9.36,0-16.17C539.72,346.85,531,353.34,539.73,363Z"/><path class="cls-9" d="M543.14,343.52s-4.93,12.53,8.16,17.32C551.3,360.84,554.82,346.34,543.14,343.52Z"/><path class="cls-9" d="M521.39,358s-2.69-12.88,8.32-16.41C529.71,341.57,535,354.13,521.39,358Z"/><path class="cls-9" d="M519.05,330.32s13.58,4.74,17.94-9.73C537,320.59,524.3,315.91,519.05,330.32Z"/><path class="cls-9" d="M531.45,339.42s-6.1-11.85,3.65-18.26C535.1,321.16,543.64,332,531.45,339.42Z"/><path class="cls-9" d="M532.1,307.56s-3.21,12.69,12.53,15.59C544.63,323.15,546,307.3,532.1,307.56Z"/><path class="cls-9" d="M504.16,319.46s5.62,11.64,19.39,4.74C523.55,324.2,515.92,312.2,504.16,319.46Z"/><path class="cls-9" d="M522.19,319.67s11.1-7.1,2.85-19.41C525,300.26,514.07,306.18,522.19,319.67Z"/><path class="cls-9" d="M504.21,313.31s13.34,2.36,17.92-13.78C522.13,299.53,509.84,296.29,504.21,313.31Z"/><path class="cls-9" d="M499,343.18s12.29-2.19,9.4-15.08C508.4,328.1,497.64,329.09,499,343.18Z"/><path class="cls-9" d="M503.12,291.48s-14.65,2.46-13.38,15C489.74,306.45,501.79,309.86,503.12,291.48Z"/><path class="cls-9" d="M472.84,324.81s13.12,3.47,16.76-12.19C489.6,312.62,477.41,308.07,472.84,324.81Z"/><path class="cls-9" d="M485.32,330s11.92-5.61,5.32-18.89C490.64,311.09,479,315.56,485.32,330Z"/><path class="cls-9" d="M468.78,301.93c-.65.63,10.64,10.52,18.25-.7C487,301.23,479.12,291.84,468.78,301.93Z"/><path class="cls-9" d="M484.37,281.76s-5.93,14.95,6.4,19.45C490.77,301.21,499.13,292.37,484.37,281.76Z"/><circle class="cls-5" cx="535.83" cy="346.69" r="7.99"/><circle class="cls-5" cx="498.79" cy="325.8" r="7.99"/><circle class="cls-5" cx="535.83" cy="321.16" r="8.02"/><path class="cls-3" d="M480.17,297.2s15,9.89,23.32,24.1l1.44-3.67a63.17,63.17,0,0,0-22.08-22.24Z"/><path class="cls-3" d="M502.14,297.27a63.85,63.85,0,0,0,1.94,28.05c7.44,23.42-3,42.73-5.29,55.15-2.4,12.74-9.37,19.14-2,19.75,8.66.72,14.36,2.64,13.78-8.83-.68-13.53-1.61-31.55,4.52-38.48s19.35-9.22,28.39-20.5a29.9,29.9,0,0,1,21.6-11.28l-2-5.83s-13.55.62-22.42,11.21c-7.35,8.78-17.73,16.1-21.6,14.06s2-7.65,4.48-14.47c2.7-7.27,8.16-17.73,14.68-19.36l-5.71-2.85s-7.52,4.84-13.45,21c-4.6,12.53-8.56,3.06-10.19-3.87s-3.46-16.51-.61-22Z"/><path class="cls-9" d="M467.32,292.13s8.73,12.74,19.74,2C487.06,294.14,482.2,285.41,467.32,292.13Z"/><path class="cls-9" d="M498.57,288.59S501,306,517.45,301.44C517.45,301.44,516.21,288.59,498.57,288.59Z"/><path class="cls-9" d="M523.91,284.22s-3,15.54,11.92,18.22C535.83,302.44,539.17,289,523.91,284.22Z"/><path class="cls-9" d="M563.82,299.56s-13.41,5.13-10.82,16.35C553,315.91,567,315,563.82,299.56Z"/><path class="cls-9" d="M570.61,323.36s-13.61,4.23-18.25-7.44C552.36,315.92,564.49,309.21,570.61,323.36Z"/><path class="cls-9" d="M528.5,302.08s2.31,12.35,19.62,5.25C548.12,307.33,539.23,295.61,528.5,302.08Z"/><circle class="cls-5" cx="482.85" cy="309.34" r="7.99"/><circle class="cls-5" cx="523.98" cy="301.44" r="7.99"/><circle class="cls-5" cx="524.01" cy="297.47" r="0.28"/><circle class="cls-5" cx="520.2" cy="303.77" r="0.28"/><circle class="cls-5" cx="527.76" cy="303.8" r="0.28"/><circle class="cls-5" cx="524.01" cy="301.68" r="0.28"/><circle class="cls-5" cx="524.01" cy="305.89" r="0.28"/><circle class="cls-5" cx="527.76" cy="299.57" r="0.28"/><circle class="cls-5" cx="520.2" cy="299.57" r="0.28"/><circle class="cls-5" cx="480.1" cy="306.42" r="0.28"/><circle class="cls-5" cx="481.97" cy="313.55" r="0.28"/><circle class="cls-5" cx="487.25" cy="308.15" r="0.28"/><circle class="cls-5" cx="483.12" cy="309.36" r="0.28"/><circle class="cls-5" cx="486.14" cy="312.3" r="0.28"/><circle class="cls-5" cx="484.22" cy="305.21" r="0.28"/><circle class="cls-5" cx="478.95" cy="310.62" r="0.28"/><circle class="cls-5" cx="499.02" cy="321.81" r="0.28"/><circle class="cls-5" cx="494.56" cy="327.67" r="0.28"/><circle class="cls-5" cx="502.06" cy="328.5" r="0.28"/><circle class="cls-5" cx="498.57" cy="326" r="0.28"/><circle class="cls-5" cx="498.12" cy="330.19" r="0.28"/><circle class="cls-5" cx="502.51" cy="324.3" r="0.28"/><circle class="cls-5" cx="495" cy="323.5" r="0.28"/><circle class="cls-5" cx="532.29" cy="318.99" r="0.28"/><circle class="cls-5" cx="535.29" cy="325.72" r="0.28"/><circle class="cls-5" cx="539.63" cy="319.53" r="0.28"/><circle class="cls-5" cx="535.75" cy="321.4" r="0.28"/><circle class="cls-5" cx="539.21" cy="323.8" r="0.28"/><circle class="cls-5" cx="536.15" cy="317.12" r="0.28"/><circle class="cls-5" cx="531.84" cy="323.33" r="0.28"/><circle class="cls-5" cx="550.8" cy="331.51" r="0.28"/><circle class="cls-5" cx="546.02" cy="337.12" r="0.28"/><circle class="cls-5" cx="553.47" cy="338.37" r="0.28"/><circle class="cls-5" cx="550.12" cy="335.67" r="0.28"/><circle class="cls-5" cx="549.44" cy="339.83" r="0.28"/><circle class="cls-5" cx="554.15" cy="334.2" r="0.28"/><circle class="cls-5" cx="546.7" cy="332.98" r="0.28"/><circle class="cls-5" cx="536.51" cy="342.53" r="0.28"/><circle class="cls-5" cx="531.73" cy="348.14" r="0.28"/><circle class="cls-5" cx="539.18" cy="349.38" r="0.28"/><circle class="cls-5" cx="535.83" cy="346.69" r="0.28"/><circle class="cls-5" cx="535.15" cy="350.84" r="0.28"/><circle class="cls-5" cx="539.86" cy="345.21" r="0.28"/><circle class="cls-5" cx="532.41" cy="343.99" r="0.28"/></svg>