<svg id="圖層_1" data-name="圖層 1" xmlns="http://www.w3.org/2000/svg" viewBox="0 0 754.23 1066.7"><defs><style>.cls-1,.cls-4{fill:none;}.cls-2,.cls-9{fill:#ff6c5c;}.cls-2,.cls-3,.cls-4,.cls-5,.cls-6,.cls-7,.cls-8{stroke:#000;stroke-linejoin:round;stroke-width:0.25px;}.cls-3{fill:#006781;}.cls-5{fill:#fbc6a6;}.cls-6{fill:#ffeed6;}.cls-7{fill:#bad5dd;}.cls-8{fill:#fff;}</style></defs><title>all</title><rect class="cls-1" x="-43.83" y="-61.98" width="841.8" height="1190.55"/><path class="cls-2" d="M485.25,131.24c6.28,4.52-.58,16.7-4.46,21.65s-12.68,12.47-17.85,9.25-1.93-13.77,3.87-20.65S479.82,127.34,485.25,131.24Z"/><circle class="cls-3" cx="487.16" cy="129.6" r="2.46"/><path class="cls-4" d="M462.94,162.14s-26.58,27.69-31,69.66"/><path class="cls-5" d="M487.16,173.23S463,203.5,434.37,217.57C434.37,217.57,448.94,188.17,487.16,173.23Z"/><path class="cls-5" d="M449.42,155.07s-4.43,38.73-15.05,62.5C434.37,217.57,426,193.25,449.42,155.07Z"/><path class="cls-2" d="M544.63,245.61c4.52,3.8-.85,11.89-4.67,16.28s-11.46,11-15.71,7.92-1.84-10.47,3.54-16.84S540.24,241.94,544.63,245.61Z"/><circle class="cls-3" cx="545.76" cy="243.84" r="1.96"/><path class="cls-4" d="M497.09,319.85c3.32-24.28,27.16-50,27.16-50"/><path class="cls-5" d="M540.26,285.9s-32.16,23.7-42.32,39.93C497.94,325.83,485.09,309.44,540.26,285.9Z"/><path class="cls-5" d="M512.26,255.65a332.71,332.71,0,0,1-15.49,62.43S494.05,281.38,512.26,255.65Z"/><path class="cls-2" d="M260.06,74.66s-8.35,27.14,8.35,37,22.64,10.84,25.88,18.4-1.7,12.81,8,24.23,12.2,16.36,13.89,26.85C316.2,181.12,303.68,101.37,260.06,74.66Z"/><path class="cls-2" d="M330.29,105.06s8.54,7.5,8.34,19.38S327.09,140.13,324,148.19c-3.64,9.63,2.41,12.87-1.46,21.26-3.44,7.46-5,8.75-5.42,21.05C317.16,190.5,305.07,149.65,330.29,105.06Z"/><path class="cls-2" d="M242.33,115.35s-2.73,23.41,13.28,28.51,26.74,2.64,28.5,15.48-2.64,21.82,14.26,26.22,20.05,2.46,26.39,16.71C324.76,202.27,297.43,125.27,242.33,115.35Z"/><path class="cls-5" d="M381.29,95.58c7.78-.07,15,12.3,15,12.3l-9.71,12.94,13.92-5.47s10.2,14.86,14.89,29.75l-21,21.84,23.77-13.29s10.94,19.68,14.87,51.47l-18.17,17.57,20.9-3.33S469,351.6,422.38,408.41H328.74s-47.27-70.8-33.9-151.14l54.24,25.65-49-45.91a87.27,87.27,0,0,1,10.52-36.38l32.06,37-28.43-45.52a62.75,62.75,0,0,1,8.61-17.27l8.79,6.24-5.22-11.58s9.83-25.14,21.55-35.47l11.72,9.42-7.33-17.58S367.18,95.7,381.29,95.58Z"/><path class="cls-6" d="M379.81,105.06c2.94,0,1.58,15.28,2,35.09s.72,30.37,1.16,35.22,2.2,6.38,8.59,2.2,22.9-13.43,24.22-11.45-6.17,6.56-15.41,12.94-16.08,7.31-15.86,15.9-.22,33-.22,40.74-1.32,14.75,4,12.33,31.48-17.18,35.23-15.19-9.91,8.36-18.72,13-19.38,7.48-20.26,17.83.44,27.09,0,37.43,2.22,62,2.81,86.81.91,28.21-5.45,29.49a31.91,31.91,0,0,1-12,0s4.75-63.71-2.72-72.84-34.46-44.74-31.21-48,25.85,31.24,30.64,39,6.89,2,7.08-4.9,0-57.95.59-74.25,3.12-29.21-3.48-34.3-34.17-18.73-32.07-24.28,19.93,9.29,24.13,11.39,12.14,7.79,12.44-.9.46-45.89.28-53.11,1.66-14.43-4.82-18.5-13.08-9.91-10.94-12.94,10.74,7,14.58,6.87S375.07,105.06,379.81,105.06Z"/><ellipse class="cls-2" cx="263.22" cy="149.06" rx="6.54" ry="15.87" transform="translate(-38.51 170.66) rotate(-33.62)"/><circle class="cls-3" cx="253.25" cy="134.07" r="1.98"/><path class="cls-4" d="M272,162.28s23.67,24.53,26.89,62.28"/><path class="cls-5" d="M252.56,168.15s5.33,3.15,10.66,11.58c4.12,6.53,7.88,4.34,15.93,13.69s11.76,9,13.86,25.94l7.11-.64s-1.3-21-20-33.75S261.84,171.52,252.56,168.15Z"/><path class="cls-5" d="M293.92,158.81a269.84,269.84,0,0,0,2.52,30.5c1.57,10.21,5.33,12.47,5.19,28h2.66s.83-21-2.52-36.22C299.13,169.14,296.3,166.73,293.92,158.81Z"/><path class="cls-6" d="M304.53,193.72c5.67-.05,11,8.39,11,8.39l-7.09,8.83,10.16-3.73s7.45,10.13,10.87,20.28l-15.32,14.9,17.36-9.07s8,13.42,10.86,35.11l-13.27,12,15.26-2.27s24.25,90.18-9.82,128.92H266.15S231.64,358.77,241.4,304L281,321.48l-35.75-31.31a56.4,56.4,0,0,1,7.68-24.81l23.41,25.26-20.76-31a41.49,41.49,0,0,1,6.29-11.78l6.42,4.26-3.82-7.9S271.66,227,280.22,220l8.55,6.42-5.34-12S294.22,193.8,304.53,193.72Z"/><path class="cls-2" d="M303.45,200.19c2.14,0,1.15,10.42,1.43,23.93s.53,20.71.85,24,1.61,4.36,6.27,1.5,16.72-9.16,17.69-7.8-4.5,4.47-11.26,8.82-11.73,5-11.57,10.85-.16,22.52-.16,27.77-1,10.06,2.89,8.41,23-11.71,25.73-10.36-7.24,5.71-13.67,8.86-14.15,5.11-14.79,12.16.32,18.47,0,25.53,1.62,42.29,2.05,59.19.67,19.24-4,20.12a25.19,25.19,0,0,1-8.79,0s3.47-43.45-2-49.68S269,333,271.37,330.77s18.87,21.3,22.36,26.58,5,1.36,5.18-3.34,0-39.51.42-50.63,2.28-19.92-2.53-23.39-25-12.78-23.42-16.56,14.55,6.34,17.62,7.77,8.86,5.31,9.08-.62.34-31.29.2-36.21,1.22-9.85-3.51-12.62-9.56-6.76-8-8.82,7.85,4.76,10.65,4.68S300,200.19,303.45,200.19Z"/><path class="cls-2" d="M453.45,201.05c6.16-.6,15.54,1.36,24.93,35.29l-12.47,18,13.95-7a109.4,109.4,0,0,1,11,42.9l-14.37,11,16.06-2.11S511.2,357.21,487.79,416l-106,1.37s-8.48-48.33,0-74.41l36.7,19.16s-10.92-25.63-34.92-33.67c0,0-.8-12.64,3.2-22.44l10.2,1.65-7.8-9.26s1.4-8.6,5-13.2l8.2,6-5.2-11.8s2.5-17.43,14.4-31L428.23,265l-13.34-24.48s6.93-12.68,13.94-16.93l7.6,8.19-2.06-14.23S442.66,202.09,453.45,201.05Z"/><path class="cls-6" d="M453.35,207.14c2.56.14-.45,26.58-1.51,39.86s-2.87,22.05-1.21,24,15.7-10.42,18-8.45-5.74,8.45-12.68,14-6.05,5.43-6.5,14.49,3,44.15,1.28,49H438.23s7.4-30.86,0-42.69-21.76-22.19-19.44-26.63,11,10.57,17.75,17.12,6.42-10.35,7.22-18.81S448.82,206.9,453.35,207.14Z"/><path class="cls-2" d="M290.59,282.93c-6.12-.94-15.59.49-26.85,33.85l11.45,18.63-13.54-7.74a109.28,109.28,0,0,0-13.36,42.22L262,381.66l-15.92-3s-21.86,57-1.75,117l105.71,7.26s11.15-47.79,4.13-74.3l-37.7,17.09s12.32-25,36.73-31.68c0,0,1.51-12.58-1.94-22.59L341,392.53l8.3-8.81s-.92-8.66-4.26-13.46l-8.52,5.54,5.85-11.5s-1.53-17.54-12.66-31.75l-17.5,15.65,14.67-23.7s-6.21-13-13-17.67l-8,7.75,2.84-14.09S301.3,284.57,290.59,282.93Z"/><path class="cls-6" d="M290.35,289c-2.57,0-1,26.56-.71,39.88s1.64,22.17-.12,24-15.1-11.27-17.47-9.44,5.26,8.76,11.88,14.72,5.74,5.77,5.68,14.84-5.42,43.91-4,48.86l12.45.69s-5.67-31.22,2.37-42.62,23-20.95,20.89-25.51-11.56,9.94-18.67,16.11-5.83-10.7-6.17-19.18S294.89,289,290.35,289Z"/><path class="cls-3" d="M191.13,895c-16.51,3.79-48.23-.51-57.94-5,10.77,14.13,21.86,22,33.45,23.78a82.51,82.51,0,0,1,25.65,8A122,122,0,0,0,191.13,895Z"/><path class="cls-7" d="M191.13,895c-2.64-15.89-9.62-31.94-26-39.08-20.29-8.81-38.88,4.65-46.24,11.17A167,167,0,0,0,133.19,890C142.9,894.47,174.62,898.77,191.13,895Z"/><path class="cls-6" d="M191.13,895a122,122,0,0,1,1.16,26.73c8.54,4.43,15.64,10.42,22.49,18.16,29.36,33.12,48,31.53,77.64,38.87,32.57,8,42.29-5.32,71.38.81s54.36,18.75,90.35,8.8,48.61-35.6,67-55.13a96.74,96.74,0,0,1,15-12.75,73.35,73.35,0,0,1,6.72-34,79.47,79.47,0,0,1,20-26.52c25.94-22.88,61.72-27,82.33-27.19,7.55-15.9,13.53-36.31,16.42-63L86,762.42s4.23,38,18.77,74a325.38,325.38,0,0,0,14.11,30.69c7.36-6.52,25.95-20,46.24-11.17,16.43,7.14,23.41,23.19,26,39.08"/><path class="cls-7" d="M542.88,886.51s8.94,4,28.18,0c13.63-2.85,26.28-6.57,36.05-7.75a116.93,116.93,0,0,0,38.11-46c-20.61.23-56.39,4.31-82.33,27.19A79.47,79.47,0,0,0,542.88,886.51Z"/><path class="cls-3" d="M542.88,886.51a73.35,73.35,0,0,0-6.72,34c17-11.9,37.84-20.35,55.8-31.65,4.64-2.92,9.8-6.15,15.15-10.06-9.77,1.18-22.42,4.9-36.05,7.75C551.82,890.54,542.88,886.51,542.88,886.51Z"/><path class="cls-4" d="M145.84,893.57s3.61,4.25,3.69,12.84"/><path class="cls-4" d="M157,895.42s4.73,5.35,3.86,16.9"/><path class="cls-4" d="M168.92,896.44a26.65,26.65,0,0,1,5,18.69"/><path class="cls-4" d="M178.71,896.44s7.27,6.15,6.08,21.92"/><path class="cls-4" d="M186.88,895.66s5.85,5,5.48,16.66"/><path class="cls-7" d="M391.67,502.88c55.49-16.58,31.89-20.4,72.71-28.06S512.21,450,516,439.11c-19.18-33.66-66.76-28.53-84.23-29.92s-97.12-9.79-142.54,20.26-27.06,65.14-27.06,65.14S336.19,519.47,391.67,502.88Z"/><path class="cls-3" d="M516,439.11c-3.83,10.84-10.84,28.06-51.66,35.71s-17.22,11.48-72.71,28.06-129.46-8.29-129.46-8.29C206.09,548.8,194.77,628.8,194.77,628.8l350.06-3.92C541.88,481.44,516,439.11,516,439.11Z"/><path class="cls-4" d="M208.31,622.17s10.18-83.59,61.09-125.39"/><path class="cls-4" d="M218.89,618.1s5.44-75.21,55-120.07"/><path class="cls-4" d="M230.86,614.15S229.73,559.47,277.71,499"/><path class="cls-4" d="M240.45,611.18s6.16-72.09,42.39-110.9"/><path class="cls-4" d="M287.54,501.37S256.7,543.86,251.4,608"/><path class="cls-4" d="M391.67,502.88s10.72,39.36,8.35,82.71"/><path class="cls-4" d="M402,499.65s16.34,46.41,11.54,86.62"/><path class="cls-4" d="M413.57,495.34s25.25,51.85,20.18,92.72"/><path class="cls-4" d="M422.38,491.81s33.2,53.85,23.78,97.86"/><path class="cls-4" d="M432.51,486.16s33.11,50.56,24.85,105.53"/><path class="cls-4" d="M441.3,481.06c.06.25,32.92,41.8,26.61,112.49"/><path class="cls-4" d="M451.2,477.71s32.65,33.22,26.87,118.17"/><path class="cls-4" d="M509.25,452.53s20.16,17.18,28,68.58"/><path class="cls-4" d="M503,459.09s27.81,35.28,37.71,91.57"/><path class="cls-4" d="M495.83,464.13s42.49,66,37.94,161"/><path class="cls-4" d="M485.32,469.11s44.09,49.28,29.65,156"/><path class="cls-4" d="M465.62,474.59s36.6,54.62,24.73,124.37"/><path class="cls-4" d="M476.6,472s36,47.63,27.11,131.21"/><path class="cls-4" d="M293.7,502.68s-27.89,35.37-30.17,101.91"/><path class="cls-4" d="M298.07,503.53S275,547.11,273.92,601.86"/><path class="cls-4" d="M303.77,504.56S284,549.17,285.67,599"/><path class="cls-4" d="M308.54,505.34s-12,27.92-11.2,90.95"/><path class="cls-4" d="M313.46,506.06s-10.24,40.57-4.92,87.86"/><path class="cls-4" d="M382.16,505.3s9.68,28.95,6.43,80"/><path class="cls-4" d="M372.93,506.92s9.59,28.09,4.37,78.46"/><path class="cls-4" d="M320.3,506.92s-7.05,37.06-1.92,84.77"/><path class="cls-4" d="M549.75,888s-6.33,12.37-5.18,27"/><path class="cls-4" d="M559.9,888.13s-3.92,10.39-2.5,19.63"/><path class="cls-4" d="M569.29,886.87s-3.18,6-3,16.19"/><path class="cls-4" d="M578.09,885s-2,8.26-.91,12.37"/><path class="cls-4" d="M587.91,882.63s-1,5.21,0,8.66"/><ellipse class="cls-4" cx="628.7" cy="783.69" rx="4.68" ry="2.83" transform="translate(-375.19 824.18) rotate(-53.57)"/><path class="cls-5" d="M349.35,492.49c13.15-8.26,25.67,2.93,28.72,11.7l-4.5,22.29,9.67-12.61s10,16.32,10.88,31.44l-16.05,23.88,17.87-12.4s6.95,14.51,6,25.1l-15.41,8.76,15.5,3.93-69.92,3.58S311.92,516,349.35,492.49Z"/><path class="cls-6" d="M370.14,589.53s-1.56-4.2,1.71-6.69,10.26-5.44,8.55-7.93-8.86,4.2-12.44,4.2-4.67-19-3.58-22.4,15.56-22.4,13.22-25S367.09,544.56,364,543.88c-2-.45-.93-11.35-1.27-19.27s-.85-14.79-3-14c-2.34.89-.13,17.18,0,22.91s1.19,12.09-3.81,10.34-9-16.24-12.24-14.55,6.42,14.32,10.61,19.2c3.57,4.15,6.07,8.08,6.57,16.17s1.94,13.64-1.13,13.31-11.67-6.24-13.19-4,4.65,4.89,10,7.58,4,4.89,4.16,8.93Z"/><path class="cls-6" d="M585.94,670.84c-12-14.57-29.09-20.79-41.8-21.06-15.26-.32-22.25-2.86-38.15-2.86s-43.45,13.77-63.43,26.29-57.89,23.55-57.89,23.55L420,724.51l172.68,22.1,8,.39C599,714.71,595.7,691,585.94,670.84Z"/><path class="cls-6" d="M520.74,662.44c-.83-5.85-.74-9.06-3.29-9-3,.12-2.72,3.41-4.32,12A34.91,34.91,0,0,1,521,664C520.89,663.48,520.81,663,520.74,662.44Z"/><path class="cls-5" d="M529.69,686.72c-5.65-9-7.59-15.57-8.72-22.72a34.91,34.91,0,0,0-7.84,1.52c-.38,2.08-.87,4.48-1.54,7.23-3.75,15.34-16.24,22.58-18,35.45s7.08,26.63,27.19,23.13S535.76,696.37,529.69,686.72Z"/><path class="cls-4" d="M493.32,711.91s10.74-1.49,18.56,0,17.56,2.32,23.2-.66"/><path class="cls-4" d="M494.47,718.56a17.35,17.35,0,0,1,11,4.8c5.24,4.86,12.81,7.36,23.11,4.36"/><path class="cls-7" d="M442.56,673.21c20-12.52,47.54-26.29,63.43-26.29s22.89,2.54,38.15,2.86c12.71.27,29.82,6.49,41.8,21.06-8.18-16.88-20.9-31.23-41.11-46-44.49-32.43-116.42-40.33-167.53-39.5s-120.6,20-156.35,32-43.82,25.73-43.82,25.73l1.58,18.58L420,724.51l-35.34-27.75S422.58,685.73,442.56,673.21Z"/><path class="cls-7" d="M600.7,747l-8-.39,8,1C600.73,747.42,600.71,747.21,600.7,747Z"/><polygon class="cls-7" points="513.61 742.77 592.69 746.61 420.01 724.51 513.61 742.77"/><path class="cls-6" d="M487.19,674.14a48.6,48.6,0,0,1,.05-7.55c.39-4.8,2.59-12.27-1.43-12.25-3.29,0-2.33,4.62-6.87,10.84A20.22,20.22,0,0,0,487.19,674.14Z"/><path class="cls-5" d="M488.54,684.16a97.3,97.3,0,0,1-1.35-10,20.22,20.22,0,0,1-8.25-9,28.93,28.93,0,0,1-3.25,3.69c-5.94,5.72-22.58,15.29-23.15,33.86s15.72,19.86,15.72,19.86C494.83,725.45,490,692.16,488.54,684.16Z"/><path class="cls-4" d="M474.19,670.22a24.55,24.55,0,0,0,13.54,8.86"/><path class="cls-7" d="M464.51,678.51a200.66,200.66,0,0,1,24.25,6.92"/><path class="cls-4" d="M461.22,682s10,15.89,28.21,22.38"/><path class="cls-4" d="M452.93,698.74a58.49,58.49,0,0,0,35.17,11.69"/><path class="cls-4" d="M452.53,704.35s9.22,11.12,26.8,16.83"/><path class="cls-4" d="M479.33,691.27s.57,7.85-5.14,11.81"/><path class="cls-4" d="M449.68,691.68a14.78,14.78,0,0,0,10.58,0"/><path class="cls-4" d="M462.4,672.75s.81,1.65,5.5,1.43,5,.91,5,.91"/><path class="cls-4" d="M486.73,693.16a5.68,5.68,0,0,1,3.87,3,3.8,3.8,0,0,0,2.95,2.58"/><path class="cls-4" d="M479.35,706.34s-.2,5.59,3.15,8.94"/><path class="cls-4" d="M446.31,706.34s5.81,1.63,9.94-1.75"/><path class="cls-4" d="M472.88,686.72s1.69,1.63,1.78,2.69"/><path class="cls-4" d="M465.93,700.84a5.81,5.81,0,0,0,2.78-.46"/><line class="cls-4" x1="483.26" y1="697.18" x2="483.77" y2="698.74"/><line class="cls-4" x1="479.33" y1="670.54" x2="480.01" y2="671.85"/><path class="cls-6" d="M508.31,666.12c-6.12-5.71-5.77-12.79-8.6-12.64-2.12.1-1.81,4.81-2,12.31A35.41,35.41,0,0,0,508.31,666.12Z"/><path class="cls-5" d="M541.13,696c-6.67-17.56-21.6-22-30.34-27.86a20.46,20.46,0,0,1-2.48-2,35.41,35.41,0,0,1-10.61-.33,112.06,112.06,0,0,1-1,12.72c-1.9,13.46.57,25.47,9.63,36.77s27.4,14.29,33.51,11.41S547.8,713.51,541.13,696Z"/><path class="cls-4" d="M510.79,668.09a24.12,24.12,0,0,1-13.88,9"/><path class="cls-4" d="M496.34,691.27s13.49-12.16,24.4-17.43"/><path class="cls-4" d="M498.18,700.38s21.72-2.07,37.95-13.66"/><path class="cls-4" d="M510.05,719.05s14-14.83,30.69-24.07"/><path class="cls-4" d="M543.89,704.59s-15.08,10.52-20.39,21.5"/><path class="cls-4" d="M504.71,678.51s-2.24,2.39-1.57,7.63c.49,3.79-.67,5.43-.67,5.43"/><path class="cls-4" d="M491.58,678.11a10,10,0,0,0,3.54-4.19c1.54-3.7,4.26-3.38,4.26-3.38"/><path class="cls-4" d="M521.84,685a7.93,7.93,0,0,1,4.83-2.49c3.49-.66,6.18-1.4,8.26-2.88"/><path class="cls-4" d="M514.05,691.57a6.31,6.31,0,0,0,0,4.69,11.83,11.83,0,0,1,.41,5.7"/><path class="cls-4" d="M507,708.2s-1.58.61-2.3,3.49-.46,4.37-3.07,5.58"/><path class="cls-4" d="M524.06,717.27a5.71,5.71,0,0,0-1.35,4c.14,2.49.54,4.1-1.54,6"/><path class="cls-4" d="M541.51,713.78s2.28-1.48,4.3-.68,2.81,2.55,4.83,1.95"/><path class="cls-4" d="M529.69,710.89s2.31,0,4,3.56a5.23,5.23,0,0,0,4.92,3.22"/><circle class="cls-3" cx="439.68" cy="687.22" r="2.18"/><line class="cls-4" x1="454.97" y1="675.26" x2="456.48" y2="675.79"/><ellipse class="cls-3" cx="538.13" cy="665.53" rx="2" ry="2.56"/><ellipse class="cls-3" cx="551.06" cy="693.08" rx="1.51" ry="2.09" transform="translate(-297.1 947.32) rotate(-68.2)"/><path class="cls-4" d="M550.18,671a8.41,8.41,0,0,0-2,4,4.59,4.59,0,0,1-5,4"/><path class="cls-4" d="M554.67,704.59s2.86-1.4,4.55,0,1.69,3.61,5,3.61"/><path class="cls-4" d="M566,697.85s2.77,2.24,3,5"/><path class="cls-7" d="M621,732.9s-31.43,3.57-83.58-2.85-142.16-34.29-184.3-38.58S278.32,661.73,235.26,655c-46.4-7.21-47.6-13.27-58.13-11.92-3.94,3.06-19.49,18.26-33,35.87,21.64-6.83,45.13-8.77,71.56.62,39.79,14.15,47.6,39.6,86.05,60.5,41.05,22.31,99.23,8.43,116.09,4.46s52.6-16.37,120.57-10.42,91.78,30.27,91.78,30.27c-102.7,50.11-199,22.68-227.27,17s-56.46-5-86.48-6.08-57.54-5-74.7-15.37-27.87-23.23-64.32-23.23c-31.75,0-49-19-53-23.85h0S73.3,739.93,88.94,769.39s140.12,67.36,204.47,75.18,99.23,16.24,146.74,10.22S595.92,835,629.6,812.7,683.87,747.9,621,732.9Z"/><path class="cls-3" d="M177.41,736.71c36.45,0,47.17,12.87,64.32,23.23s44.68,14.3,74.7,15.37,58.25.36,86.48,6.08,124.57,33.14,227.27-17c0,0-23.81-24.31-91.78-30.27s-103.7,6.45-120.57,10.42-75,17.85-116.09-4.46c-38.45-20.9-46.26-46.35-86.05-60.5-26.43-9.39-49.92-7.45-71.56-.62-8.54,11.15-19.71,21.52-19.71,33.87C128.36,717.76,145.66,736.71,177.41,736.71Z"/><path class="cls-4" d="M129.42,718.2S143,690.13,169,673.75"/><path class="cls-4" d="M138.88,725.61s20.07-37.76,51.18-51.86"/><path class="cls-4" d="M148.93,731s24.06-38.3,59.64-53.65"/><path class="cls-4" d="M163,735.33s16.32-31.58,61.51-52.2"/><path class="cls-4" d="M181.56,736.77s19.26-31,55.41-47"/><path class="cls-4" d="M247.15,697s-32,18.49-43.19,42.78"/><path class="cls-4" d="M255.6,704.06s-23.68,20.45-33.74,43"/><path class="cls-4" d="M264.17,711.9s-19.09,23.75-24.9,46.51"/><path class="cls-4" d="M272.87,719.76s-10.48,18.92-12.6,48"/><path class="cls-4" d="M281.59,727s.56,26.88-2.47,45"/><path class="cls-4" d="M293.94,735.56a122.14,122.14,0,0,1-.55,38.24"/><path class="cls-4" d="M305.43,742s4.42,17.78,1.08,32.85"/><path class="cls-4" d="M315.93,746.25s5.34,11.87,4.32,29.19"/><path class="cls-4" d="M328.08,749.55a48.66,48.66,0,0,1,4.91,26.2"/><path class="cls-4" d="M341.49,751.64a50.21,50.21,0,0,1,4.81,24.46"/><path class="cls-4" d="M354.21,752.44a39.58,39.58,0,0,1,6,24.16"/><path class="cls-4" d="M365.12,752.33a45.66,45.66,0,0,1,10.2,25.24"/><path class="cls-4" d="M377.66,751.54s11.44,11,13.72,27.85"/><path class="cls-4" d="M389.46,750.12s12.47,8.86,15.71,31.74"/><path class="cls-4" d="M401.45,748.12s17.51,12,18.46,37"/><path class="cls-4" d="M415.2,745.19s21.66,17.63,19,42.7"/><path class="cls-4" d="M428.52,741.85s21.27,16,18.93,48.23"/><path class="cls-4" d="M442.46,738.58s19.94,16.78,18.81,53.29"/><path class="cls-4" d="M455.36,736.19s25,22.29,17.84,56.8"/><path class="cls-4" d="M470,734.26S498.23,761.62,485,793.7"/><path class="cls-4" d="M504.61,732.57s25.83,18.51,14.3,61.13"/><path class="cls-4" d="M488,733.21s26.64,28.71,14.05,60.79"/><path class="cls-4" d="M521.87,733s21.52,24.08,13,58.85"/><path class="cls-4" d="M535.23,733.89s21.88,22.31,14.44,56.1"/><path class="cls-4" d="M551.21,735.55s21.55,23.66,18.25,50.51"/><path class="cls-4" d="M568.09,738.32A61,61,0,0,1,591,780.11"/><path class="cls-4" d="M589.8,743.81a47.71,47.71,0,0,1,15.36,31.4"/><path class="cls-4" d="M608.4,750.88s6.87,6.4,9.5,19.27"/><path class="cls-3" d="M430.81,785.07c6.08,8.94,8.87,17.81,22.44,25.12a101.09,101.09,0,0,0,52.18,11.66c20.75-.87,20.05-3,34.85-2.44s24.54-.52,33.59-10.44c-1-8.7-11.75-14.27-12.92-25.93C561,783,453.25,775.21,430.81,785.07Z"/><path class="cls-4" d="M555.89,790.27s1.63,6,5.06,9.91c4.82,5.48,6.4,10.56,6.35,14.42"/><path class="cls-4" d="M549.12,793.29s2.1,6.61,6.77,10.76a16.64,16.64,0,0,1,5.71,13.33"/><path class="cls-4" d="M541.12,795.31a26.75,26.75,0,0,0,8,11.53,20.59,20.59,0,0,1,6.77,12"/><path class="cls-4" d="M534.11,797.37a19.69,19.69,0,0,0,8.22,10.45c7.39,4.88,8.23,11.57,8.23,11.57"/><path class="cls-4" d="M525.56,799.86s.45,4.66,7.61,10.35c6.71,5.32,8,9.18,8,9.18"/><path class="cls-4" d="M517.08,802.08s.89,5.2,7.07,9.45,5.9,7.86,5.9,7.86"/><path class="cls-4" d="M509.69,803.74a18.08,18.08,0,0,0,5.41,8.32c4.76,4.11,4.95,8.7,4.95,8.7"/><path class="cls-4" d="M501,805.34a25.25,25.25,0,0,0,5.89,8.76c4.3,4.2,4.41,7.44,4.41,7.44"/><path class="cls-4" d="M491.69,806.52s0,3.11,4,6.92c2.72,2.6,5.48,5.64,6.21,8.5"/><path class="cls-4" d="M482.17,806.81s0,3.52,5.49,7.81,5.68,7,5.68,7"/><path class="cls-4" d="M472.37,805.92s.9,3.69,5.44,8.31,4.57,6.06,4.57,6.06"/><path class="cls-4" d="M462.22,803.46s.83,3.71,5.43,8.13,4.27,6.24,4.27,6.24"/><path class="cls-4" d="M454.81,800.39s1.57,8.6,6.26,13.55"/><path class="cls-4" d="M446.75,795.39s1.92,9.55,5.71,14.36"/><path class="cls-7" d="M430.74,782.87c2.18-3.87,25.83-11.59,37.52-17.65s38.73-6.15,55.09-.7,25.14,13.54,33.74,15.59,1.69,11.17-9.61,13.59-26.37,8.77-49.76,12.14S458,803.56,447.63,796C436.83,788.14,428.52,786.82,430.74,782.87Z"/><path class="cls-8" d="M639.07,752.88c2.3-3.57,10.23,1.83,11.34,7.64s-2.14,5.32-4.59,7.57c-1.79,1.64-5.49,10.9-9,6.23-2.41-3.2,5.38-8.14,5.39-13.8C642.21,758,636.9,756.27,639.07,752.88Z"/><path class="cls-2" d="M294.29,716.2a188,188,0,0,1-3.54,19c-2.24,9.53,1.15,14.75,8.25,19.52a15.75,15.75,0,0,1,5.36,20c-3.21,6.32-2.41,10.66,3.89,13.18s10.58,4.45,10.71,16.61C319,804.5,320.75,751.18,294.29,716.2Z"/><path class="cls-2" d="M341.49,756.51s4.33,9.76-2.22,15.45-8.93,5-10,9.9-3,4.1-6.2,8.22-4,17.09-4,17.09S320.35,773.06,341.49,756.51Z"/><path class="cls-2" d="M355,765s2.58,11.58-2.81,16.89-10.72,1.69-15,6c-2.79,2.83-1.19,6.17-6.28,9.93s-6.26,5.37-6.5,9C324.44,806.84,325.82,780.09,355,765Z"/><path class="cls-2" d="M382.08,797.37s-8.21,10.54-1.76,15.74,4.23,8.59,3.53,11.18-2,5.77,2.81,8.87,4,8.73,4,8.73S395.21,811.4,382.08,797.37Z"/><path class="cls-2" d="M407.78,815.37s3.52,3.87,1.76,8.56-6.1,4.7-8.56,8.1-4.62,6.78-9,10.56C391.94,842.59,396.17,824.64,407.78,815.37Z"/><path class="cls-2" d="M275,778.16s-4.86,6.38-2,13.69c2.05,5.26,10.86,3.34,14.63,8.91s-.8,7.93,5.09,11.47,6.05,5.72,6.35,7.29C299.1,819.52,295.81,786.72,275,778.16Z"/><ellipse class="cls-2" cx="116.55" cy="606.54" rx="7.29" ry="18.11" transform="translate(-444.49 348.26) rotate(-54.4)"/><circle class="cls-3" cx="100.62" cy="595" r="2.64"/><path class="cls-4" d="M131.28,617.08s21.65,7.47,39.84,45.83"/><path class="cls-5" d="M110.07,634.28c10,8.65,33.39,16,61.05,28.63C171.12,662.91,156.26,630,110.07,634.28Z"/><ellipse class="cls-2" cx="121.03" cy="545.76" rx="9.68" ry="22.01" transform="translate(-313.76 194.4) rotate(-38.55)"/><circle class="cls-3" cx="105.72" cy="526.88" r="2.34"/><path class="cls-4" d="M178.45,658.7c-14-66.33-43.7-95.73-43.7-95.73"/><path class="cls-5" d="M129.42,585.32s27.41,29.11,49.07,73.7C178.49,659,177.57,616.24,129.42,585.32Z"/><path class="cls-5" d="M174,587.44s7.2,23.16,7.47,42.67-2.92,29.06-2.92,29.06S166.78,636.45,174,587.44Z"/><path class="cls-2" d="M659.86,615s5.12,8,5.86,24.89-5.86,19.78-19,19.78-17.25,3-16.5,13.58-7.7,16.49-21.78,19,1.68,15-17.37,23.07-15,28.53-15,28.53S566.86,684.16,659.86,615Z"/><path class="cls-2" d="M676.79,690.35s3.3,24.12-13.18,32.63-29.1-8-36.79-3-3.51,15.59-11.81,18.36c-8,2.68-13.06-5.88-22.32-4.43S576,743.81,576,743.81,585.94,711,676.79,690.35Z"/><path class="cls-2" d="M577,642.93s-23.75,16-21.57,33.58,20.32,13.26,18.49,24-13,12.39-5.78,21.13,6.74,8.75,7.56,20C575.65,741.72,590.74,687,577,642.93Z"/><path class="cls-2" d="M173.83,383.11s2.61,23.81,7.18,37.19,11.21,16.65,27.3,13.87,21.84,2.11,22.55,10.27-1.49,13.54,9.59,14.62S254.28,472,254.28,472,236.4,403.15,173.83,383.11Z"/><path class="cls-2" d="M176.36,304.85s-12.6,20.61-9.73,42.37,25.19,27.49,35.21,31.49,20.9,6.88,19.76,19.19-3.72,19.47,9.16,24.91,13.46,7.73,12.89,14,7.78,12.25,10.59,32.92C254.24,469.76,246.11,359.86,176.36,304.85Z"/><path class="cls-2" d="M272.22,328.11a69.93,69.93,0,0,1,16.87,29.59c5,18.26,1.77,27.67-10.23,35.68-10,6.7-2.36,14.47-6.64,23S255,447.49,257.34,472C257.34,472,228.33,381.28,272.22,328.11Z"/><path class="cls-6" d="M181.42,445.56c4.26-.39,9.24,8.87,18.58,14.11s10.23,11.18,7.74,12.79c-3.33,2.15-8.6-3.84-11.93-9.46s-8.29-9.34-9.82-5.91,1.59,16.07,9.43,21.63c6.47,4.59,18.14,12.49,12.89,17.63S192.47,480.53,189,480.92s.38,12.88,1.14,20.45,3.62,10.88,10.77,15.17,14.58,10.5,14.39,16.59-5.53,7.15-9.34,1.91-8.29-17.4-13.43-15c-5.44,2.58-.54,24.31,1.11,44.07,1.19,14.16,11.45,12,18.88,23.29s2.81,17.09-1.24,14.95-5.49-13.47-9.24-17.92c-3.27-3.88-6.54-2.14-6.31,1.8s6.65,23.08,7.77,30.81,0,16.44-5.27,16.81S190.81,628,191,617.08s1.52-30.61-3.22-33.32-8,11.24-13.56,20.51c-4.62,7.67-10.54,6.31-9.49.68s6.13-12.8,14.91-23.39c9.48-11.43,7.55-17.65,7.22-26-.55-13.76-.05-30.78-3.32-31.67-2.5-.69-4.41,8-9,15.78s-11.87,5.91-12.38,2,1-6.66,8.82-13.33,11.86-12.61,11.69-23.63.85-25.42-2.54-25.42-7,11.67-9,20.93-5.33,15.86-9.06,14.54-.7-8.17,1-10.68,1.36-5.61-.92-5.12c-3.14.68-4.58-1.24-3.17-3.58,2.36-3.92,8.44-6.86,13.59-14.64s10.28-25.33,6.06-25.59-9.13,16.78-11.87,22.68c-2.95,6.36-8.22,8.89-9.89,6.73-1.55-2,0-5.28,4.75-10.68C173.83,460.15,174.55,446.2,181.42,445.56Z"/><path class="cls-2" d="M358,598.16s-3.62,8.84-1.37,13.33,9,3.6,10.51,9.17-2.07,7.73-.72,11.77,7.73.72,8.72,8.45C375.16,640.88,374.41,610.26,358,598.16Z"/><path class="cls-2" d="M382.44,620.39s2.83,4.94,1.15,9.08-4.93,4.16-6.9,7.72-1.36,4.42-1.36,4.42S371.74,627.67,382.44,620.39Z"/><path class="cls-6" d="M309.78,648.79c3.19,0,5.08,4.82,8.76,7.49s10,6.09,8.63,9-11.55-8-13.84-7.24-.21,5.8,5.24,8.79,8.95,5.3,8.8,7.27-4-.12-5.89-1.39.12,3,3.36,6.42-1.1,5.79-4.46.41-5.32-10.65-6.94-10.36,1.86,6.67,2.45,15.47,2.55,6.83,7.71,11.63c3.45,3.22,6.12,5.62,4.25,7.14-2.78,2.27-10-9.27-12.32-7.51s2.13,17.16-1.64,20.28c-2.8,2.32-9.26.48-8.21-4s6.1-13.77,2.35-15.27-11.81,17.15-16.88,12.1c-3.75-3.73,15.85-13.4,17.59-20.66s1.23-15.45-.61-15.19-3.38,7-4.2,11.2-.61,11.15-4.4,10.13,3-7.47.92-9.11-3.78,4.6-7.26,2.15,10.74-12.07,13.09-19.33,1.74-9.1.31-9.1-5.73,8.28-9.92,12.88-7.26.72-5.52-1.33,9.3-9,12.27-14.42S307.54,648.79,309.78,648.79Z"/><path class="cls-2" d="M590.15,316.91s6.57,17.52,5.82,34.3-8.89,26.49-33.18,25.73c-15.27-.49-20.13-1.87-20.13-1.87s1.85,16.42-4.73,21.25-18.71,1.21-19.76,9.22c-2,15.45-17.56,14-22.61,33.19C495.56,438.73,492.27,370.85,590.15,316.91Z"/><path class="cls-2" d="M595.84,391.45s4,16.25-8.89,24.95-24.15-5-37.28-3.14-10.69,12.22-20,13.44-10-3.44-14.47-2.74-4,6.57-9.31,5.84-8.33,1.74-10.58,9.92C495.29,439.72,493.49,408.85,595.84,391.45Z"/><path class="cls-2" d="M479.57,359.64s-12.36,9-10.92,23.7,12.12,17,20.78,21.6-1.8,12,.38,18.1c1.7,4.73,7,5.16,5.59,16.07C495.4,439.11,506.25,378.7,479.57,359.64Z"/><ellipse class="cls-2" cx="539.96" cy="317.89" rx="11.34" ry="4.9" transform="translate(-74.66 439.78) rotate(-41.7)"/><circle class="cls-3" cx="549.81" cy="308.55" r="2.09"/><path class="cls-4" d="M531.5,325.43s-23.43,15.69-33.07,47.27"/><path class="cls-5" d="M164.1,843s-3.67,9-1,17.42-.44,10-5.07,13.19-.17,8.38,4.19,7.25,4.28-4.28,14-3.5,19.21,1.08,26.55-.72l-1.25-11.35s-5,5.17-11.76,5.08-.27-8.3,2.61-10.35l-6.66-7.16s-4.51,9.65-11.15,9.74-1.68-12.86-1.41-17Z"/><circle class="cls-6" cx="165.92" cy="849.22" r="1.03"/><ellipse class="cls-6" cx="164.94" cy="854.41" rx="0.64" ry="1.71"/><ellipse class="cls-6" cx="185.13" cy="862.06" rx="1.11" ry="0.81" transform="translate(-589.54 440.98) rotate(-49.35)"/><ellipse class="cls-6" cx="184.19" cy="866.57" rx="1.71" ry="0.92" transform="translate(-658.38 592.79) rotate(-60)"/><circle class="cls-6" cx="196.99" cy="873.13" r="0.68"/><ellipse class="cls-6" cx="192.54" cy="874.84" rx="0.67" ry="1.79" transform="translate(-692.37 1013.91) rotate(-86.52)"/><ellipse class="cls-6" cx="167.33" cy="868.32" rx="0.87" ry="1.75"/><ellipse class="cls-2" cx="168.59" cy="844.27" rx="2.66" ry="4.67" transform="translate(-689.27 771.61) rotate(-73.87)"/><ellipse class="cls-2" cx="188.97" cy="856.41" rx="2.64" ry="4.89" transform="translate(-532.52 357.82) rotate(-42.91)"/><ellipse class="cls-2" cx="202.07" cy="870.93" rx="3.02" ry="5.71" transform="translate(-94.44 27.47) rotate(-6.31)"/><path class="cls-8" d="M112.89,802.21c2.39-2,6.66,4.34,9,6.74,2.67,2.73,6.8,4.33,6.28,7s-5.39,3.23-10.22-2.1S111.17,803.67,112.89,802.21Z"/><path class="cls-8" d="M280.06,868.32c1.84-4.46,22.47.44,30.64,3.36s12,6.42,10.21,9.34-12.42-3.77-20.22-3.79S278,873.28,280.06,868.32Z"/><ellipse class="cls-8" cx="335.52" cy="870.2" rx="4.27" ry="2.37"/><path class="cls-8" d="M357.49,954c-1.39-4.82,13.43-2.18,17.56-1,6.61,1.83,16.29-.8,19.39,8.38,2.83,8.38-9.32,9.6-14,3.79C372.87,955.68,358.53,957.51,357.49,954Z"/><ellipse class="cls-8" cx="415.33" cy="952.95" rx="2.63" ry="3.69" transform="translate(-623.38 911.76) rotate(-64.18)"/><path class="cls-8" d="M423.61,961c1.75-5.44,14.76,1.64,20.38,2.46s9.61-3.5,13.48-2.16,3.27,8.09-2.7,10C441.67,975.49,421.15,968.58,423.61,961Z"/><ellipse class="cls-8" cx="506.52" cy="869.88" rx="7.55" ry="3.28" transform="translate(-389.57 411.32) rotate(-32.69)"/><path class="cls-5" d="M535,858.39a14,14,0,0,0,8.17,8.84c6.55,2.53,9.17,1,9.14,3.07,0,2.38-14.2,3.14-16,5.15l1.06,7.16s5.53.47,14.37-6.19c10.77-8.11,14.73-1.06,18.35-3.06,2.1-1.17,5.17-4.12,4.53-6.44s-5.6-6.65-5.38-13.4,1.84-8.17,1.84-8.17l-9.33-2.89a42.69,42.69,0,0,1,.38,10.75c-.63,4.89-2,6.09-3.76,2.22s-2.56-6.39-2.56-6.39l-5.56,3.21a17,17,0,0,1,4.14,6.48c1.19,3.76-1.92,4.81-4.67,2.85-3.19-2.28-6.41-7.49-6.41-7.49Z"/><ellipse class="cls-2" cx="539.28" cy="856.45" rx="4.72" ry="2.51" transform="translate(-355.97 384.38) rotate(-30)"/><ellipse class="cls-2" cx="553.08" cy="850.64" rx="3.21" ry="1.8" transform="translate(-351.22 390.51) rotate(-30)"/><ellipse class="cls-2" cx="566.68" cy="843.57" rx="2.29" ry="5.01" transform="translate(-381.54 1209.09) rotate(-77.19)"/><ellipse class="cls-2" cx="537.42" cy="878.76" rx="2.06" ry="3.85"/><ellipse class="cls-6" cx="554.98" cy="855.38" rx="0.74" ry="1.13" transform="translate(-301.6 302.25) rotate(-24.17)"/><ellipse class="cls-6" cx="541.53" cy="862.78" rx="0.89" ry="1.44" transform="translate(-428.13 550.69) rotate(-40.04)"/><ellipse class="cls-6" cx="546.4" cy="864.96" rx="1.02" ry="1.84" transform="translate(-428.39 554.33) rotate(-40.04)"/><ellipse class="cls-6" cx="566.3" cy="850.64" rx="1.84" ry="1.02" transform="translate(-315.19 1367.61) rotate(-86.74)"/><ellipse class="cls-6" cx="566.36" cy="856.8" rx="1.47" ry="0.71" transform="translate(-321.29 1373.47) rotate(-86.74)"/><ellipse class="cls-6" cx="543.57" cy="876.47" rx="1.47" ry="0.71" transform="translate(-176.35 137.97) rotate(-12.46)"/><ellipse class="cls-8" cx="491.72" cy="934.94" rx="4.38" ry="2.85" transform="translate(-564.05 970.36) rotate(-64.18)"/><path class="cls-5" d="M77.21,736.09s2.09,8.47,8.75,12.55c7.84,4.81,14.55,1.23,20.14,5.37,4.33,3.2,3.81,7.27,8.84,7.16s7.84-2,7.16-5.26c-.78-3.8-7.34-11.12-13.31-16.1-5.13-4.28-7.24-18.51-7.24-18.51l-8.88,2.27s4,9.72,3.91,13.2S93,741,88.48,733.21Z"/><ellipse class="cls-2" cx="82.84" cy="734.65" rx="5.82" ry="2.46" transform="translate(-178.91 43.23) rotate(-14.3)"/><ellipse class="cls-2" cx="97.11" cy="722.44" rx="4.58" ry="1.97" transform="translate(-175.45 46.38) rotate(-14.3)"/><ellipse class="cls-6" cx="84.02" cy="742.16" rx="1.1" ry="2.04" transform="translate(-249.3 73.76) rotate(-20.05)"/><ellipse class="cls-6" cx="90.62" cy="746.49" rx="1.34" ry="2.46" transform="translate(-552.07 356.1) rotate(-51.8)"/><ellipse class="cls-6" cx="114.21" cy="751.68" rx="1.32" ry="3.32" transform="translate(-467.79 262.46) rotate(-41.31)"/><path class="cls-5" d="M98.94,734.49s2.37,6.65,12.56,6.32,14.56.65,16.34,4.94-.25,9.38,3.07,10.43,12.94.49,12.54-5.82-10.68-12.56-10.92-18.57,4.86-4.21,5.54-12.88l-6.06.25s-1.65,7-5.78,5.35c-3.28-1.27-1.49-6.36.75-8.74s4.59-5.79,4.26-10.11l-10,.42s.63,7.31-3.82,8.93-9.74-6.31-10.17-13.15l-10.57.45s-.1,9.86,6,15.37,14.16,6,15.37,11.55-4.62,3.93-8.07-.15Z"/><ellipse class="cls-2" cx="101.95" cy="702.09" rx="5.29" ry="2.95" transform="translate(-29.65 4.95) rotate(-2.43)"/><ellipse class="cls-2" cx="126.23" cy="705.87" rx="5.01" ry="2.13" transform="translate(-29.79 5.98) rotate(-2.43)"/><ellipse class="cls-2" cx="135.04" cy="719.04" rx="3.03" ry="1.51" transform="translate(-30.34 6.37) rotate(-2.43)"/><ellipse class="cls-2" cx="104.46" cy="731.79" rx="6.15" ry="2.86" transform="translate(-311.41 120.66) rotate(-26.11)"/><ellipse class="cls-6" cx="137.81" cy="746.67" rx="1.19" ry="2.89" transform="translate(-265.53 103.38) rotate(-21.63)"/><ellipse class="cls-6" cx="108.83" cy="737.41" rx="1.47" ry="2.13" transform="translate(-584.2 462.95) rotate(-60)"/><ellipse class="cls-6" cx="102.7" cy="710.7" rx="1.01" ry="1.64" transform="translate(-286.86 107.47) rotate(-24.63)"/><ellipse class="cls-6" cx="106.81" cy="716.05" rx="1.14" ry="2.21" transform="translate(-343.71 149.34) rotate(-30)"/><ellipse class="cls-8" cx="147.6" cy="767.78" rx="2.72" ry="6.06" transform="translate(-591.12 511.72) rotate(-60)"/><path class="cls-8" d="M162.16,749.46c2.21-3.37,13.51,4,17.35,6.17s11.05,5.46,9.52,8.11-13.43-1-20.07-5.33S160.78,751.57,162.16,749.46Z"/><path class="cls-8" d="M177.11,774.48c2.33-3.77,13.37.63,22.35,5.85s13.67,3,20,9.29,18,6.06,18.59,10.65-5.54,6.16-14.31,4.28-5.84-9.08-13.57-12S171.37,783.78,177.11,774.48Z"/><path class="cls-8" d="M189.24,794.43c.79-2.45,8.34.2,10.95,1.46s7.8,4.07,7.08,5.74-5.73.73-12.1-2S188.73,796,189.24,794.43Z"/><path class="cls-8" d="M254.33,822.2c3.1-2.16,9.27,2.92,15.45,3.75s17.54.84,20.21,3.76-2.17,6.6-8.1,5.93-6.51-3.67-17.12-4.26S251.32,824.28,254.33,822.2Z"/><ellipse class="cls-8" cx="328.39" cy="819.52" rx="2.85" ry="5.81" transform="translate(-518.4 1069.3) rotate(-84.6)"/><ellipse class="cls-8" cx="356.86" cy="799.06" rx="8.26" ry="3.98"/><ellipse class="cls-8" cx="426.43" cy="804.5" rx="6.52" ry="2.8"/><path class="cls-8" d="M438.12,824.26c1.34-3.58,8.7.78,15.75.78s9.48.78,9.57,2.78-1.4,3.57-7.22,3.22-7.75-1.3-9.49,1.39S436,829.82,438.12,824.26Z"/><path class="cls-8" d="M310.06,810.06c-2.46-7.71,8.46-7.69,15.18-7s11.32-1.19,17.67,2.29,13.93-.37,20.53,3,6.47,7.84,3.23,8.71-7.89-.57-15.18.74c-6.27,1.13-13.31-6-20.16-6.34S311.8,815.53,310.06,810.06Z"/><path class="cls-5" d="M202.89,774.79s2.28,10.38,13.68,10.2,18.85-3,24.55,4.69,4.14,10.48,9.94,10.94,12.41-.09,13.51-3-9.84-8-8.64-18,10.81-13.86,17.65-15.91S289.09,757.19,292,751l-8.68-3.8s-2.75,4.92-7.07,3.81-4.06-13.52-4.06-13.52h-10.3s.48,12-2.47,18.67-6.2,14-12,10.67,6.56-9.12,6.46-22.67H241.56s.48,11.08-5.4,15.41-11.49-.65-8.74-6,7.43-7.29,6.52-23.37H222.88s1.33,10.31-2.44,12.79-7-.84-8.28-5.52-.46-11-.46-11H199.13a39.93,39.93,0,0,0,7,24c8,11.31,16.74,15.42,17.38,21.55s-6.59,3.6-9.22-.61Z"/><ellipse class="cls-2" cx="208.57" cy="773.07" rx="5.93" ry="1.74" transform="translate(-214.85 93.47) rotate(-16.83)"/><ellipse class="cls-6" cx="219.64" cy="747.38" rx="1.64" ry="1.1"/><ellipse class="cls-6" cx="230.17" cy="741.37" rx="2.08" ry="1.03" transform="translate(-545.05 781.8) rotate(-75.74)"/><ellipse class="cls-6" cx="228.87" cy="736.11" rx="0.87" ry="1.33"/><ellipse class="cls-6" cx="202.74" cy="734.66" rx="0.66" ry="1.05"/><ellipse class="cls-6" cx="205.73" cy="739.64" rx="0.89" ry="1.73" transform="translate(-218.65 99.88) rotate(-18.01)"/><ellipse class="cls-6" cx="224.81" cy="767.68" rx="1.12" ry="2.8" transform="matrix(0.87, -0.5, 0.5, 0.87, -353.72, 215.26)"/><ellipse class="cls-6" cx="216.57" cy="782.03" rx="2.37" ry="1.09"/><ellipse class="cls-6" cx="209.77" cy="779.7" rx="1.02" ry="1.25" transform="translate(-413.38 266.26) rotate(-35.46)"/><ellipse class="cls-6" cx="247.58" cy="751.24" rx="1.05" ry="1.79"/><ellipse class="cls-6" cx="265.07" cy="745.23" rx="1.49" ry="2.8"/><ellipse class="cls-6" cx="264.16" cy="752.66" rx="1.42" ry="0.91" transform="translate(-530.38 823.26) rotate(-75.74)"/><ellipse class="cls-6" cx="276.39" cy="758.26" rx="1.35" ry="0.89"/><ellipse class="cls-6" cx="282.49" cy="754.71" rx="2.44" ry="1.15" transform="matrix(0.87, -0.5, 0.5, 0.87, -339.51, 242.36)"/><ellipse class="cls-2" cx="205.41" cy="726.43" rx="6.29" ry="3.62"/><ellipse class="cls-2" cx="228.41" cy="730.17" rx="5.53" ry="2.2"/><ellipse class="cls-2" cx="247.74" cy="744.11" rx="6.18" ry="3"/><ellipse class="cls-2" cx="267.04" cy="737.44" rx="5.15" ry="2.28"/><ellipse class="cls-2" cx="287.66" cy="749.05" rx="2.43" ry="4.74" transform="translate(-513.88 712.36) rotate(-66.37)"/><path class="cls-2" d="M125.68,851c1.06-5.84,13.06-7.64,16.85-2.79,3,3.81,3.31,16.63-5.48,17.67S124.53,857.32,125.68,851Z"/><path class="cls-4" d="M128.88,847s.29,13.7,8.17,18.87c0,0,4.12-4.77,2.39-19.79"/><path class="cls-4" d="M134.37,845.4s.08,11.27,2.68,20.46"/><path class="cls-2" d="M140.38,877.23c4.6.55,9.49-10.66,5.46-13.49-4.88-3.44-11.39-.73-12,2.83S136.17,876.74,140.38,877.23Z"/><path class="cls-4" d="M137.34,863.05s-.89,9.43,1.61,13.77"/><path class="cls-4" d="M141.53,862.54a53.92,53.92,0,0,1-1.15,14.69"/><path class="cls-4" d="M145.1,863.4a20.52,20.52,0,0,1-1.82,12.73"/><path class="cls-5" d="M413.57,509.81s5.77,4.81,10.56,14.83,19.35,10.7,28.23,21.64,16.72,31.29,20.79,58l33.42,8.13s32.54-19.75,53.47-30.22,34.22-16.91,53.43-16.16l-1.17-18s-14.11,4.26-26.36,2.52-6.39-15.76,3.75-23.14,22.55-4.54,29.38-10.82l-5.41-16.8s-6.16,5.37-17,8-8.17-8.64-.39-20.67l-13-2.4s-2.43,3-7.93,10.22-6.38,21.73-16.08,36.5-20.43,13-19,3.33,2.46-33,5.94-43.74,33.27-27.75,36.26-37.91c.61-2.1-19-18.85-19-18.85s-1.13,8.67-10.69,20.84-12.75.57-14-4.78-.68-11.91-3.16-16.17l-18.9,8.35a61.37,61.37,0,0,1,9.45,27.66c1.31,16.08-4.77,34.8-22.45,38.4s-7.25-36.64-6.52-50.56l-23.31-6s2.87,14-.87,17.92-9.06-4.21-10.06-9.49L452.33,468s1.74,9.41,11.45,18.11,10.89,17.94,7.66,27.73S451,516.09,443.9,490.65Z"/><ellipse class="cls-2" cx="428.52" cy="499.52" rx="18.15" ry="6.31" transform="translate(-207.65 330.9) rotate(-34.53)"/><ellipse class="cls-2" cx="485.45" cy="454.15" rx="5.37" ry="12.3" transform="matrix(0.32, -0.95, 0.95, 0.32, -98.55, 771.73)"/><ellipse class="cls-2" cx="526.09" cy="438.35" rx="10.33" ry="4.65" transform="translate(-132.28 250.02) rotate(-23.84)"/><ellipse class="cls-2" cx="457.36" cy="463.51" rx="6.73" ry="3.42" transform="translate(-192.41 420.82) rotate(-41.62)"/><ellipse class="cls-2" cx="573" cy="443.55" rx="5.62" ry="13.95" transform="translate(-151.61 446.38) rotate(-37.97)"/><ellipse class="cls-2" cx="589.77" cy="485.93" rx="3.43" ry="6.59" transform="translate(4.66 977.47) rotate(-79.52)"/><ellipse class="cls-2" cx="616.93" cy="507.8" rx="4.04" ry="9.04" transform="translate(-102.79 160.71) rotate(-13.71)"/><ellipse class="cls-2" cx="612.89" cy="557.04" rx="4.04" ry="9.04" transform="translate(-34.61 40.64) rotate(-3.69)"/><ellipse class="cls-6" cx="429.18" cy="521.11" rx="1.87" ry="3.76" transform="translate(-231.28 381.29) rotate(-38.57)"/><ellipse class="cls-6" cx="438.21" cy="523.3" rx="1.54" ry="4.95" transform="translate(-219.43 340.58) rotate(-34.53)"/><ellipse class="cls-6" cx="446.16" cy="532.68" rx="0.9" ry="1.71" transform="translate(-223.34 346.73) rotate(-34.53)"/><ellipse class="cls-6" cx="465.62" cy="478.08" rx="1.85" ry="3.12" transform="translate(-196.5 394.62) rotate(-38.57)"/><ellipse class="cls-6" cx="488.22" cy="471.33" rx="4.06" ry="1.96" transform="translate(-0.2 942.45) rotate(-87.96)"/><ellipse class="cls-6" cx="482.28" cy="466.9" rx="0.98" ry="2.03" transform="translate(-84.66 107.5) rotate(-11.7)"/><ellipse class="cls-6" cx="489.71" cy="483.06" rx="1.83" ry="1.34" transform="translate(-136.25 768.27) rotate(-69.1)"/><ellipse class="cls-6" cx="530.5" cy="460.15" rx="1.42" ry="3.3" transform="translate(-45.31 58.15) rotate(-6.02)"/><ellipse class="cls-6" cx="526.26" cy="451.58" rx="1.17" ry="2.38" transform="translate(-105.97 166.69) rotate(-16.38)"/><ellipse class="cls-6" cx="565.32" cy="457.51" rx="2.8" ry="2.08" transform="matrix(0.63, -0.77, 0.77, 0.63, -146.81, 605.07)"/><ellipse class="cls-6" cx="571" cy="457.53" rx="2.12" ry="1.27" transform="translate(-144.74 609.47) rotate(-50.69)"/><ellipse class="cls-6" cx="577.18" cy="503.13" rx="3.53" ry="1.69" transform="translate(-109.32 842.25) rotate(-67.37)"/><ellipse class="cls-6" cx="581.18" cy="497.19" rx="1.7" ry="1.04" transform="translate(-13.44 978.23) rotate(-79.52)"/><ellipse class="cls-6" cx="605.81" cy="511.52" rx="1.89" ry="1.12" transform="translate(-185.85 467.43) rotate(-36.99)"/><ellipse class="cls-6" cx="609.91" cy="514.15" rx="1.89" ry="1.12" transform="translate(-104.49 159.23) rotate(-13.71)"/><ellipse class="cls-6" cx="600.98" cy="517.41" rx="2.59" ry="1.39" transform="translate(-105.52 157.2) rotate(-13.71)"/><ellipse class="cls-6" cx="577.81" cy="552.43" rx="1.12" ry="1.89" transform="translate(-210.79 421.46) rotate(-34.28)"/><ellipse class="cls-6" cx="570.76" cy="548" rx="1.9" ry="3.25" transform="matrix(1, -0.06, 0.06, 1, -34.12, 37.91)"/><ellipse class="cls-6" cx="602.88" cy="561.58" rx="1.81" ry="2.29" transform="translate(13.88 1137.7) rotate(-87.34)"/><ellipse class="cls-6" cx="537.44" cy="508.58" rx="1.89" ry="1.12" transform="translate(-10.22 1006.15) rotate(-85.68)"/><ellipse class="cls-6" cx="537.44" cy="518.39" rx="1.46" ry="3.52" transform="translate(-32.28 35.7) rotate(-3.69)"/><path class="cls-2" d="M601.93,832.8c.54-7,16.28-10,20.85-6.81s2.38,21.72-5.8,22.46C607.23,849.33,601.56,837.64,601.93,832.8Z"/><path class="cls-4" d="M607,827s-1.19,16,8.13,21.49"/><path class="cls-4" d="M613.52,825s-.12,14.08,3.46,23.46"/><path class="cls-4" d="M619.07,824.81s3.81,11.5,0,23"/><path class="cls-2" d="M588.68,843.31c-.42-3.73,6.56-8.57,13.23-8.57s4.83,12.6,1.64,14.59S589.39,849.61,588.68,843.31Z"/><path class="cls-4" d="M592.2,837.93s2.5,9,10.08,11.9"/><path class="cls-4" d="M597.93,835.28s1.87,10.72,5.62,14.05"/><path class="cls-5" d="M241.37,368s8.4-2.42,17.17,6.67,22.74,8.66,29,30.33-2,35.84,7.3,38.57,31.83-.13,36.05-4.1-.24-9.72,9.86-19.92,24.28-33.79,51.57-34L391,370.9s-5.4,4-17.37,1.58,5.92-18.86,5.92-18.86l-15-5.07s-4.18,10.68-11.93,18.44S334.3,378,334,366.33s12.93-26.87,20.4-32.57l-10.58-10.58s-3.72,9.83-10.48,11.15-3.89-15.69-6.57-26.65l-18.59,5.82s2.06,9.12,5.36,24,5.28,35.8-3.3,46.19-18.31,8.08-21.28-9.73,8-29.17,13.89-35.21l-16-10.17s-1.21,6.28-10.78,8.43-9.23-9.3-13.84-16.62l-18.44,9.06s8.92,6.66,10.49,15.1-1.56,13.17-11.61,11.42Z"/><ellipse class="cls-2" cx="253.01" cy="324.88" rx="10.27" ry="3.23" transform="translate(-117.4 145) rotate(-26.19)"/><ellipse class="cls-2" cx="317.45" cy="310.59" rx="9.74" ry="2.96" transform="translate(-78.31 109.05) rotate(-17.39)"/><ellipse class="cls-2" cx="242.02" cy="361.96" rx="6.06" ry="2.15" transform="translate(-143.89 563.61) rotate(-83.82)"/><ellipse class="cls-2" cx="294.84" cy="333.63" rx="4" ry="9.47" transform="translate(-144.96 403) rotate(-57.5)"/><ellipse class="cls-2" cx="349.08" cy="328.47" rx="3.11" ry="7.48" transform="translate(-130.02 343.04) rotate(-45)"/><ellipse class="cls-2" cx="372.29" cy="350.69" rx="3.29" ry="8.04" transform="translate(-64.73 616.38) rotate(-74.59)"/><ellipse class="cls-2" cx="391.63" cy="378.2" rx="3.54" ry="7.33" transform="translate(-33.47 38.05) rotate(-5.34)"/><ellipse class="cls-6" cx="253.47" cy="333.73" rx="0.89" ry="1.48" transform="translate(-95.9 102.3) rotate(-19.26)"/><ellipse class="cls-6" cx="257.66" cy="337.45" rx="1.06" ry="2.5" transform="translate(-96.9 103.89) rotate(-19.26)"/><ellipse class="cls-6" cx="291.69" cy="344.55" rx="2.5" ry="1.06" transform="translate(-155.63 405.4) rotate(-57.5)"/><ellipse class="cls-6" cx="248.4" cy="364.27" rx="1.22" ry="2.09" transform="matrix(0.11, -0.99, 0.99, 0.11, -140.49, 572.02)"/><ellipse class="cls-6" cx="292.91" cy="392.19" rx="1.09" ry="1.91" transform="translate(-142.91 169.32) rotate(-26.16)"/><ellipse class="cls-6" cx="316.09" cy="385.84" rx="3.15" ry="1.72" transform="translate(-179.16 445.08) rotate(-57.5)"/><ellipse class="cls-6" cx="320.58" cy="375.41" rx="1.3" ry="0.85" transform="translate(-72.75 673.72) rotate(-86.68)"/><ellipse class="cls-6" cx="320.9" cy="317.83" rx="0.85" ry="1.3" transform="translate(-42.97 50.26) rotate(-8.4)"/><ellipse class="cls-6" cx="324.34" cy="320.76" rx="0.81" ry="1.77" transform="translate(-43.36 50.8) rotate(-8.4)"/><ellipse class="cls-6" cx="323.5" cy="328.14" rx="1.77" ry="0.81" transform="translate(-16.96 638.65) rotate(-87.77)"/><ellipse class="cls-6" cx="342.7" cy="335.53" rx="1.79" ry="0.94" transform="translate(-136.23 310.04) rotate(-41.35)"/><ellipse class="cls-6" cx="339.72" cy="342.98" rx="2.34" ry="1.26" transform="translate(-141.89 309.92) rotate(-41.35)"/><ellipse class="cls-6" cx="360.25" cy="365.51" rx="2.34" ry="1.26" transform="translate(-151.92 398) rotate(-49.04)"/><ellipse class="cls-6" cx="365.33" cy="357.81" rx="2.34" ry="1.26" transform="translate(-76.71 614.9) rotate(-74.59)"/><ellipse class="cls-6" cx="377.79" cy="383.18" rx="2.34" ry="1.26" transform="translate(-61.7 72.7) rotate(-10.17)"/><ellipse class="cls-6" cx="372.11" cy="379.3" rx="1.75" ry="0.85" transform="translate(-61.11 71.64) rotate(-10.17)"/><ellipse class="cls-6" cx="381.84" cy="378.68" rx="2.11" ry="1.21" transform="translate(-142.76 260.39) rotate(-32.05)"/><ellipse class="cls-6" cx="326.55" cy="420.09" rx="2.59" ry="1.19" transform="translate(-153.08 650.44) rotate(-77.79)"/><ellipse class="cls-6" cx="328.74" cy="429.92" rx="4.51" ry="1.29" transform="translate(-160.97 660.34) rotate(-77.79)"/><path class="cls-2" d="M240.13,689.33c7.81-2.72,12.32,1.06,12.11,8.36s-2.48,10.49-6.31,11.54-11.11-2.43-12.76-8.4S234.51,691.29,240.13,689.33Z"/><path class="cls-4" d="M235.31,692s1.45,12.45,7.52,17.24"/><path class="cls-4" d="M240.72,689.14s1.59,14.13,5.21,20.09"/><path class="cls-4" d="M246.58,688.62s3.08,12.53,1.86,19.44"/><path class="cls-2" d="M254.87,693.17c3.33-.45,9.11-.58,9.62,4.52s-2.69,12.61-7.8,13-8.85-7.51-8.9-11S249.83,693.84,254.87,693.17Z"/><path class="cls-4" d="M260.6,693.31s3.22,8.75-1.28,16.52"/><path class="cls-4" d="M255.6,693.08a45.32,45.32,0,0,1,1.09,17.66"/><path class="cls-4" d="M251.26,694.15s-.23,10.79,3.41,16.34"/><path class="cls-2" d="M185,680.93c3.56-2.41,8-3,10.43.57,2.15,3.26,3.87,12.82-.94,15s-13.1-4.44-13.51-8S182.69,682.49,185,680.93Z"/><path class="cls-4" d="M182.54,683.13s1.79,10.22,10.67,13.74"/><path class="cls-4" d="M185.74,680.46s3.77,10.84,9.56,15.51"/><path class="cls-4" d="M190.06,679s6.52,7.23,6.52,15.52"/><path class="cls-2" d="M387.6,469.71c5.09,0,8.35,1.74,8.33,7.35,0,5.43-4.37,10.3-7.34,10.37s-8.18-3.3-8.47-9.38C379.81,471.66,383.22,469.73,387.6,469.71Z"/><path class="cls-2" d="M383.69,470.45s-2.45,10.58,4.32,17c0,0,6.31-4.83,6.16-15.69"/><path class="cls-2" d="M388.42,469.76a42.16,42.16,0,0,1-.41,17.65"/><path class="cls-2" d="M399.74,478.78c5.07,0,8.22,2.11,7.52,7s-4.2,9.38-7.34,9.56-6.65-4.26-7.17-9.21S395,478.76,399.74,478.78Z"/><path class="cls-2" d="M395.69,479.6s-1,10.12,3.35,15.66"/><path class="cls-2" d="M399.74,478.78s-1.05,9.68.18,16.56"/><path class="cls-2" d="M404.29,479.6s1.78,11-3.83,15.66"/><path class="cls-5" d="M559.86,754.85s-.5,2.86-1.06,7.7c-.91,7.71-3.66,12.09-12.87,15.73l6.41,13.42s11.16-2.17,18-.11,8.93,3.35,13.58,3.91l1-7.59s-1.44-1.34-7.16-2.13c-5-.69-4.83-3.2-3-4.67s6.53-2.27,8.21-4.41l-5.66-6.85s-5,5.1-8.86,4.71-.21-10.3,2-15.93Z"/><ellipse class="cls-2" cx="565.19" cy="756.74" rx="2.37" ry="5.65" transform="translate(-336.83 1036.82) rotate(-70.49)"/><ellipse class="cls-2" cx="580.17" cy="773.27" rx="2.15" ry="4.44" transform="translate(-359.64 546.75) rotate(-39.57)"/><ellipse class="cls-2" cx="584.42" cy="791.7" rx="3.83" ry="1.51" transform="translate(-276.1 1269.03) rotate(-82.58)"/><ellipse class="cls-6" cx="563.7" cy="764.98" rx="2.12" ry="1.19" transform="translate(-267.65 1225.21) rotate(-82.58)"/><circle class="cls-6" cx="563.03" cy="771.79" r="0.98"/><ellipse class="cls-6" cx="575.23" cy="776.5" rx="1.94" ry="1.06" transform="translate(-311.19 391.65) rotate(-30)"/><ellipse class="cls-6" cx="569.54" cy="785.67" rx="1.37" ry="2.21"/><ellipse class="cls-8" cx="628.62" cy="783.4" rx="4.59" ry="2.49" transform="translate(-362.27 619.07) rotate(-41.84)"/><path class="cls-6" d="M627.67,845.22c-2.8.14-5,1.7-4.91,3.49a2.74,2.74,0,0,0,.08.37,7.09,7.09,0,0,0-1.54.42c-2.6,1-4.18,3.24-3.51,4.89s3.31,2.16,5.92,1.11c2.08-.83,3.48-2.4,3.63-3.84.22,0,.44,0,.66,0,2.81-.14,5-1.7,4.92-3.48S630.48,845.07,627.67,845.22Z"/><path class="cls-6" d="M612.71,846.72c-.67-1.88-3.44-2.6-6.18-1.62a5.79,5.79,0,0,0-3.81,3.6,7.29,7.29,0,0,0-3.45,1.45c-2.52,1.93-3.43,5-2.12,7-2.36,1.06-3.83,2.88-3.3,4.16s3,1.56,5.55.51c2.09-.86,3.52-2.32,3.65-3.55a7.89,7.89,0,0,0,1.68-1,6.4,6.4,0,0,0,2.72-5,7,7,0,0,0,1.51-.36C611.7,850.9,613.38,848.59,612.71,846.72Z"/><path class="cls-6" d="M226,628.82a4.13,4.13,0,0,0-3.2,2,4.35,4.35,0,0,0-4-3,4.57,4.57,0,0,0-4.29,4.49,3.26,3.26,0,0,0-2.61-1.48c-2,0-3.58,2.08-3.58,4.64,0,.17,0,.32,0,.49h0c-2.54,0-4.6,1.08-4.6,2.41s2.06,2.41,4.6,2.41a7.09,7.09,0,0,0,3.24-.71,2,2,0,0,0,.34,0,3.31,3.31,0,0,0,2.78-1.75,2.32,2.32,0,0,1,2.82-.91,3.78,3.78,0,0,0,1.3.23,3.91,3.91,0,0,0,2.56-1,2.45,2.45,0,0,1,2.84-.28,4.06,4.06,0,0,0,2.16.61A4.16,4.16,0,0,0,230.5,633,4.25,4.25,0,0,0,226,628.82Z"/><path class="cls-6" d="M445.44,655c0-.09,0-.18,0-.28a3.57,3.57,0,0,0-6.85-1.41,4.79,4.79,0,0,0-1.16-.14c-1.85,0-3.34,1-3.34,2.2s1.49,2.21,3.34,2.21a4.59,4.59,0,0,0,1.87-.38,3.57,3.57,0,0,0,1.67,1c.52,1,2.06,1.76,3.91,1.76,2.26,0,4.1-1.11,4.1-2.48S447.44,655.11,445.44,655Z"/><path class="cls-6" d="M257.11,675.54a3.7,3.7,0,0,0-3.12-1.48c1.11-1.68,1.41-3.43.61-4.68-1.34-2.08-5.2-2-8.63.23-.19.12-.37.25-.55.38,1.44-3.32,1-6.78-1.26-8.32-2.7-1.84-7-.25-9.57,3.55a10.24,10.24,0,0,0-1.87,5.62c-2.5-1.29-5.2-1.1-6.34.57a4,4,0,0,0,.19,4.18c-2.46.75-4.21,2.67-4.21,4.93,0,2.91,2.9,5.27,6.48,5.27a8.26,8.26,0,0,0,1-.07,20.84,20.84,0,0,0,10.13,1.6,22,22,0,0,0,8.74-2.34,10.48,10.48,0,0,0,4.6-1.68C256.74,681.09,258.44,677.62,257.11,675.54Z"/><path class="cls-2" d="M463.51,717.41c7.08-2.33,14.32-.29,15.05,5.3,1,7.58-2.73,15.18-7.53,17.19s-12.82-1-14.54-10.17C455,722,460.17,718.5,463.51,717.41Z"/><path class="cls-4" d="M459.76,719.48s-.3,12.78,7.19,21"/><path class="cls-4" d="M464.44,717.12s0,14.31,5.57,23.32"/><path class="cls-4" d="M471.18,716.59s4.14,13.37,1.28,22.52"/><path class="cls-2" d="M483.7,726.33c4,.82,8.93,4.42,6.54,9.27s-9.6,9.7-13.26,9-7.09-6.33-5.87-13.87C472.05,725,479.53,725.48,483.7,726.33Z"/><path class="cls-4" d="M483.7,726.33s-.68,12.72-5.87,18.35"/><path class="cls-4" d="M475.53,726.33s-1,12.93,1.45,18.29"/><path class="cls-4" d="M487.76,728.07a17.86,17.86,0,0,1-7.46,16.09"/><path class="cls-6" d="M466.62,782.42c-1.49-1.36-4.06-1-5.74.86a5.32,5.32,0,0,0-.75,1.07h-.5a2.54,2.54,0,0,0-.77-1.65c-1.29-1.19-3.73-.65-5.44,1.22a6.41,6.41,0,0,0-.78,1.06c-1.34-.64-2.8-.42-3.37.55a3.06,3.06,0,0,1-.92,4.55c0,1.31,1.58,2.37,3.54,2.37a4.42,4.42,0,0,0,2.61-.79,10,10,0,0,0,4.22-.23,10.32,10.32,0,0,0,3.49-1.59,4.76,4.76,0,0,0,4-1.63C467.93,786.37,468.1,783.78,466.62,782.42Z"/><path class="cls-6" d="M498.87,767.56a5.91,5.91,0,0,0-5.26-.75,4,4,0,0,0-1.95-3.13c-1.72-1.1-3.78-1-4.59.29a2.27,2.27,0,0,0-.25.55,4.92,4.92,0,0,0-4.52-4c-2.62,0-4.74,2.54-4.74,5.67a6.34,6.34,0,0,0,.22,1.7,5.81,5.81,0,0,0-.72,0c-2.24,0-4.05,1.2-4.05,2.69s1.81,2.68,4.05,2.68a4.61,4.61,0,0,0,3.54-1.41,10.2,10.2,0,0,0,5.51,4.71c4.09,1.66,8.22,1,9.4-1.38,2.26.93,4.64.52,5.71-1.12C502.46,772.1,501.41,769.2,498.87,767.56Zm-11.81-1.13h0v0Z"/><path class="cls-6" d="M506.19,782.64c-.22-1.11-1.58-1.8-3.26-1.81,1-2.72.5-5.48-1.35-6.38-1.29-.62-2.88-.18-4.24,1a2.8,2.8,0,0,0-2-.91c-1.92,0-3.47,2.23-3.47,5s1.55,5,3.47,5a1.77,1.77,0,0,0,.32,0,2.93,2.93,0,0,0,.8.61,3.1,3.1,0,0,0,2.15.16,4.69,4.69,0,0,0,4,.75C504.87,785.51,506.47,784,506.19,782.64Z"/><path class="cls-6" d="M274.81,697.9c-.74-1.27-2.36-1.78-4.15-1.51.27-2.08-.46-3.94-2-4.57s-3.29.11-4.59,1.69a6.24,6.24,0,0,0,.07-1c0-3.21-2.12-5.81-4.75-5.81s-4.75,2.6-4.75,5.81a6.5,6.5,0,0,0,1.24,3.89,3.85,3.85,0,0,0-2.25,2.49c-.59,2.54,2.17,5.35,6.16,6.29a8.89,8.89,0,0,0,6.73-.8,5.76,5.76,0,0,0,5.5-.45C274.64,702.46,275.87,699.75,274.81,697.9Z"/><path class="cls-6" d="M223.85,667.32c-1.4-.57-3.13.25-4.38,1.89-.28-1.84-1.27-3.25-2.65-3.5-1.65-.29-3.33,1.16-4.15,3.39a3.44,3.44,0,0,0-2.89-2.18c-2,0-3.62,2.45-3.62,5.48s1.62,5.48,3.62,5.48c1.37,0,2.56-1.14,3.17-2.84a2.94,2.94,0,0,0,1.94,1.47,3.33,3.33,0,0,0,3.07-1.44,3.14,3.14,0,0,0,1.76,2.41c1.85.75,4.28-.91,5.42-3.72S225.7,668.07,223.85,667.32Z"/><path class="cls-6" d="M428,654a5.23,5.23,0,0,0-4.14,1.71,6,6,0,0,0-1.58-2,6.84,6.84,0,0,0,1.43-4.59c-.1-3.2-2-5.75-4.32-5.68a3.53,3.53,0,0,0-2.68,1.52,3,3,0,0,0-1.83-2.35c-1.18-.38-2.55.27-3.65,1.58a2.38,2.38,0,0,0-1.69-1.51c-1.5-.27-3.06,1.4-3.46,3.72a5.84,5.84,0,0,0,0,2.29c-1.94-.59-3.83-.08-4.32,1.24s.72,3.13,2.77,3.89a5.46,5.46,0,0,0,1.54.33c-2,.88-3.19,2.74-2.62,4.29s2.87,2.29,5.09,1.47a5.09,5.09,0,0,0,.88-.42c1.16,2,3.75,3.4,6.84,3.55a8.85,8.85,0,0,0,6.47-2.13,5.27,5.27,0,1,0,5.24-7Z"/><path class="cls-6" d="M417.07,656.33a4.26,4.26,0,0,1,5.24-2.58"/><path class="cls-6" d="M472,750.28a4.27,4.27,0,0,0-4.15-3.54,7.48,7.48,0,0,0-1.83-5.69c-2.16-2.63-5.4-3.61-7.52-2.37a4.26,4.26,0,0,0-8.06.7,3.53,3.53,0,0,0-1.14-1.93c-2-1.65-5.49-.68-8,2.15a2.75,2.75,0,0,0-2-2.11c-1.54-.25-3.07,1.27-3.41,3.4a5.42,5.42,0,0,0-.07.89c-2.18-.09-4,.73-4.51,2.23-.7,2.06,1.32,4.61,4.51,5.7a7.72,7.72,0,0,0,5,.12s0,0,0,.08c-.09,2.72,3.69,5.06,8.43,5.21a11.48,11.48,0,0,0,7-1.84c.8,1.59,2.87,3.28,5.59,4.37,4,1.59,7.89,1.27,8.68-.72a3.07,3.07,0,0,0-.72-2.93A4,4,0,0,0,472,750.28Z"/><path class="cls-4" d="M458.54,738.68a11.1,11.1,0,0,1,1,7.83"/><path class="cls-4" d="M467.11,754.29a5.42,5.42,0,0,0,2.77-.29"/><path class="cls-6" d="M508,742.47c-.32-2.54-3.79-4.2-7.75-3.7l-.28,0A5.32,5.32,0,0,0,500,738c-.51-4-4.79-6.85-9.56-6.24s-8.22,4.38-7.71,8.43,4.8,6.84,9.57,6.24l.52-.09a10,10,0,0,0,2.55,3.57c2.94,2.7,6.73,3.35,8.46,1.46a4.17,4.17,0,0,0,.56-4.18C506.74,746.17,508.27,744.34,508,742.47Z"/><path class="cls-6" d="M563.31,787.21a2.71,2.71,0,0,0-1.5-1.87c1.26-1.76,1.61-3.61.72-4.69s-2.56-1.06-4.39-.31a2.29,2.29,0,0,0,.24-1.32,2.64,2.64,0,0,0-1.44-1.85c1-2.88.52-5.61-1.13-6.3s-4.06,1-5.39,3.94a3.47,3.47,0,0,0-1.87-2.24c-1.89-.79-4.33.6-5.9,3.18a3.32,3.32,0,0,0-2.74-2c-2,0-3.66,2.62-3.66,5.84s1.64,5.85,3.66,5.85h.1c1.28,1.84,4.15,3.58,7.72,4.47a18.81,18.81,0,0,0,4.44.56,7.51,7.51,0,0,0,5.6,1.06C561.1,791.06,563.58,789.12,563.31,787.21Z"/><path class="cls-2" d="M533.34,782c6.07-.35,11.81.4,12,7.15A11.53,11.53,0,0,1,535.23,801c-5.19.58-11.79-3.85-11.66-10.4S529.88,782.16,533.34,782Z"/><path class="cls-2" d="M525.56,785.33s2.11,10.75,8.26,15.72"/><path class="cls-2" d="M531.48,782.21s.06,10.62,3.75,18.81"/><path class="cls-2" d="M538.15,782a59.92,59.92,0,0,1-1.9,18.83"/><path class="cls-2" d="M542.94,783.69s.32,11.27-5.11,16.7"/><path class="cls-2" d="M546.63,783.63c3.09-.69,8.18.64,9.26,4s-1,10.7-6.36,11.52c-4.69.72-9.14-3.8-9.14-9.15C540.39,787.37,543.22,784.4,546.63,783.63Z"/><path class="cls-2" d="M542.94,785.46s-.19,9.57,4.56,13.67"/><path class="cls-2" d="M547.5,783.5s-.18,9.14,2,15.64"/><path class="cls-2" d="M553,784.54s1.87,9.28-1.78,14.09"/><path class="cls-6" d="M360.39,474a3.9,3.9,0,0,0,.35-1.6,4.36,4.36,0,0,0-4.52-4.18,4.68,4.68,0,0,0-3,1.09,5.35,5.35,0,0,0-3.33-2.16,6.62,6.62,0,0,0,.83-3.28c0-2.95-1.77-5.35-3.95-5.35a3.67,3.67,0,0,0-3.09,2,5.07,5.07,0,0,0-1.17-.15c-2.9,0-5.26,2.55-5.42,5.75a3,3,0,0,0-1.78-.6c-2.14,0-3.87,2.4-3.87,5.36s1.73,5.36,3.87,5.36a2.94,2.94,0,0,0,1.33-.33,8.08,8.08,0,0,0,6.18,2.64,8.76,8.76,0,0,0,4.33-1.11,5.36,5.36,0,0,0,3.86-.17,7.91,7.91,0,0,0,4.63,1.28c3.11,0,5.64-1.34,5.64-3A2.14,2.14,0,0,0,360.39,474Z"/><path class="cls-2" d="M206.9,673.75c7-.38,13.55,2,15,7.15s-5,18.2-13.29,18.78-14.08-8.84-14.09-16.55C194.48,676,201.21,674.07,206.9,673.75Z"/><path class="cls-4" d="M198.67,675.83s.08,14,6.74,23.58"/><path class="cls-4" d="M208.27,673.71a121.06,121.06,0,0,0,.3,26"/><path class="cls-4" d="M216.48,675.25s1,14.54-4.92,23.68"/><circle class="cls-8" cx="288.01" cy="435.3" r="16.38"/><ellipse cx="284.83" cy="430.45" rx="0.9" ry="1.95"/><ellipse cx="291.2" cy="430.45" rx="0.9" ry="1.95"/><path class="cls-3" d="M301.92,410.5a8.17,8.17,0,0,0-7.76-10.72,8.15,8.15,0,0,0-6.52,3.28,18.76,18.76,0,0,0-1.24-3.57c-2.26-4.93-6.08-8-8.51-6.91-1.14.53-1.77,1.87-1.9,3.66a12.62,12.62,0,0,0-7.92.05c-7.16,2.46-10.74,10.95-8,19s10.79,12.53,17.95,10.08a12.65,12.65,0,0,0,6.61-5.3A6.79,6.79,0,0,0,295.91,423a7.62,7.62,0,1,0,6-12.47Z"/><path class="cls-7" d="M269.65,461.39l-5.75-15.55s24.71-17.47,47.93,0l-5.57,15.41"/><circle class="cls-6" cx="287.86" cy="444.97" r="2.21"/><circle class="cls-6" cx="287.86" cy="452.73" r="2.6"/><path class="cls-4" d="M276,396.24s3.44,1.54,4.69,4.48"/><path class="cls-4" d="M286.3,405.9a6.91,6.91,0,0,1,1.34-2.84"/><path class="cls-4" d="M284.27,416.73a13.07,13.07,0,0,0,.36,3.31"/><path class="cls-3" d="M253.57,593.67s6.71,13,6.47,24.23h22.87V602.15A37.4,37.4,0,0,0,253.57,593.67Z"/><path class="cls-6" d="M282.91,614.9s-15.87.13-23.36,0a41.38,41.38,0,0,0-15.27,3.82c3.55,1.67,12.8,6.9,16.28,17,6.91-.39,14.53-1,22.35-2A137.7,137.7,0,0,0,282.91,614.9Z"/><path class="cls-4" d="M244.28,618.72c-6.15,2.95-12.27,8.19-14.3,17.5,0,0,13,.48,30.58-.52C257.08,625.62,247.83,620.39,244.28,618.72Z"/><path class="cls-3" d="M230,636.22s-3,2.5-1,8.06a121.5,121.5,0,0,0,18,0c8.76-.55,19.91-.85,26.91-1.62,6.13-.67,10.27-.43,9.06-9Z"/><path class="cls-4" d="M260.28,605.12a14.54,14.54,0,0,1,2.46,6.85"/><path class="cls-4" d="M264.5,605.7a16,16,0,0,1,1.29,6.27"/><path class="cls-4" d="M269,606.7a15.3,15.3,0,0,1,.53,5.27"/><path class="cls-4" d="M274.57,606.7a26.23,26.23,0,0,0-.17,5.27"/><path class="cls-4" d="M279.49,606.7a12.92,12.92,0,0,0-.94,5.27"/><path class="cls-3" d="M322.2,593.65s-7,14.89-6.52,24.25H292.82V602.15A37.48,37.48,0,0,1,322.2,593.65Z"/><path class="cls-4" d="M345.75,636.22c-2.11-9.66-8.63-15-15-17.84-3.15,1.31-11.11,5.67-15.15,17.35C333,636.7,345.75,636.22,345.75,636.22Z"/><path class="cls-6" d="M330.74,618.38a41.34,41.34,0,0,0-14.56-3.48c-7.5.13-23.36,0-23.36,0a135.92,135.92,0,0,0,0,18.82c8,1,15.75,1.61,22.77,2C319.63,624.05,327.59,619.69,330.74,618.38Z"/><path class="cls-3" d="M345.75,636.22s3,2.5,1.05,8.06a121.5,121.5,0,0,1-18,0c-8.76-.55-19.91-.85-26.92-1.62-6.12-.67-10.26-.43-9.05-9Z"/><path class="cls-4" d="M315.44,605.12A14.66,14.66,0,0,0,313,612"/><path class="cls-4" d="M311.23,605.7a15.76,15.76,0,0,0-1.29,6.27"/><path class="cls-4" d="M306.78,606.7a15,15,0,0,0-.53,5.27"/><path class="cls-4" d="M301.16,606.7a26.23,26.23,0,0,1,.17,5.27"/><path class="cls-4" d="M296.24,606.7a12.82,12.82,0,0,1,.93,5.27"/><path class="cls-6" d="M339.46,478.6c-13-10.19-26-20.39-51.6-20.39-23.13,0-38.57,10.2-51.59,20.39-7.52,8.52-24.56,31.82-21.74,62,11.62,42,34.48,60.44,73.33,61.54,38.86-1.1,59.59-17.44,73.34-61.54C364,510.42,347,487.12,339.46,478.6Z"/><path class="cls-2" d="M160.75,561.14c-4.49-11.5,2.19-24.22,16.33-29.23,10.64-3.76,66.39-22,82.4-27.06s28.68-2.9,32.34,7.55-2.13,22.12-16.15,28.24-66.42,27.8-86.69,32.23C174.4,576.05,164.31,570.28,160.75,561.14Z"/><polygon class="cls-7" points="190.61 543.45 194.13 557.1 197.93 556.01 194.27 542.18 190.61 543.45"/><polygon class="cls-7" points="261.26 518.97 264.6 531.91 268.21 530.88 264.73 517.76 261.26 518.97"/><ellipse class="cls-5" cx="190.95" cy="538.96" rx="8.73" ry="5.51" transform="translate(-122.02 60.43) rotate(-13.68)"/><ellipse class="cls-5" cx="197.1" cy="561.27" rx="8.73" ry="5.51" transform="translate(-127.13 62.52) rotate(-13.68)"/><ellipse class="cls-5" cx="261.58" cy="514.71" rx="8.28" ry="5.22" transform="translate(-114.29 76.45) rotate(-13.68)"/><ellipse class="cls-5" cx="267.42" cy="535.87" rx="8.28" ry="5.22" transform="translate(-119.12 78.43) rotate(-13.68)"/><path class="cls-4" d="M187.5,538.1a8,8,0,0,1,4-1.53"/><path class="cls-4" d="M188.38,540.63a9,9,0,0,0,3.71-1.36"/><path class="cls-4" d="M196.38,561a15.43,15.43,0,0,1,4.08-1"/><path class="cls-4" d="M197.1,563.94s2.76-.22,4-1.28"/><path class="cls-4" d="M258.59,514a12.76,12.76,0,0,1,4.53-.69"/><path class="cls-4" d="M259,516.83a13.67,13.67,0,0,0,4.11-.78"/><path class="cls-4" d="M267.13,534.92a7.09,7.09,0,0,1,3.41-1.11"/><path class="cls-4" d="M268.21,537.67a7.84,7.84,0,0,0,3.3-1.51"/><path class="cls-4" d="M287.86,458.21s17.8,82.48,0,143.94"/><path class="cls-6" d="M250.38,491.39s-18.61,14.83-22.13,46l-11.74,3.47a72.38,72.38,0,0,1-.76-21.84"/><path class="cls-4" d="M326,491.39s18.6,14.83,22.12,46"/><path class="cls-7" d="M217.2,549.32s.92,14.95,5.83,20.47,12.1,3,12.5-2.59c.43-5.93-1.9-8.17-1.21-9,.91-1,2.76,1.87,4.23.78,2.11-1.58-2.9-10.52-9-13.15C229.6,545.87,221.08,545.52,217.2,549.32Z"/><path class="cls-7" d="M358.85,548.68s1.07,4.67-1.67,11.63c-2.63,6.66-8.73,9.28-12.08,6.4s1.6-6,0-8.08-5.11.21-5.79-1.9c-.79-2.44,6.08-3.91,7-10.87C346.29,545.86,354.07,544.55,358.85,548.68Z"/><path class="cls-7" d="M305.27,549.65s-.92,10.62-.69,21.12,8.2,14.31,16.5,10.27,19.45-17.76,15.38-38.94Z"/><path class="cls-4" d="M312.54,559.81s.24,4.84,3.7,7"/><path class="cls-4" d="M329.46,555.54s1.66,11.42-6.3,18.81"/><path class="cls-3" d="M301.93,547.23c-1.65-7.81,3.23-12.12,15.81-15.7s17.77-.79,19.5,4.34-2.08,11-15.69,15.17S302.85,551.61,301.93,547.23Z"/><circle class="cls-6" cx="329.46" cy="534.77" r="1.63"/><circle class="cls-6" cx="330.08" cy="540.87" r="1.63"/><path class="cls-7" d="M276.41,549.65s.92,10.62.69,21.12-8.19,14.31-16.5,10.27-19.44-17.76-15.37-38.94Z"/><path class="cls-4" d="M269.14,559.81s-.23,4.84-3.69,7"/><path class="cls-4" d="M252.22,555.54s-1.66,11.42,6.3,18.81"/><path class="cls-3" d="M279.76,547.23c1.64-7.81-3.23-12.12-15.81-15.7s-17.77-.79-19.5,4.34,2.07,11,15.69,15.17S278.83,551.61,279.76,547.23Z"/><circle class="cls-6" cx="252.22" cy="534.77" r="1.63"/><circle class="cls-6" cx="251.61" cy="540.87" r="1.63"/><rect class="cls-3" x="211.59" y="538.24" width="21.69" height="9.46" rx="4.73" ry="4.73" transform="translate(-138.79 80.57) rotate(-15.72)"/><rect class="cls-3" x="342.66" y="538.24" width="21.69" height="9.46" rx="4.73" ry="4.73" transform="matrix(-0.96, -0.27, 0.27, -0.96, 546.68, 1161.42)"/><path class="cls-2" d="M423.76,883.5l-4.05-5.14a10.84,10.84,0,0,0,9.78-5s7.94,4.06,10.52-5.54c0,0,12.92,2.77,16.06-6.46A32.91,32.91,0,0,1,470.2,881.3Z"/><path class="cls-4" d="M458.94,867.15a35,35,0,0,1,7.64,12.68"/><path class="cls-4" d="M454.32,869.46a41.28,41.28,0,0,1,6,8.66"/><path class="cls-4" d="M448.86,871.52a15.64,15.64,0,0,1,4.61,5.63"/><path class="cls-4" d="M442.55,872.44a20.7,20.7,0,0,1,3.87,4.8"/><path class="cls-4" d="M430.53,877.15a7.47,7.47,0,0,1,1.9,2.68"/><path class="cls-4" d="M436.48,875.41a10.48,10.48,0,0,1,1.59,2.71"/><path class="cls-5" d="M495.71,913.15s-7.43-32.46-39.89-35.68S408.24,897,404.28,897s-13.38-13.13-18.59-11.65,3,14.38,2.23,19.33-9.17,11.65-7.18,16.36,18.83-7.93,24-6.2,16.92,26.63,47.33,28.75C480.6,945.61,495.71,913.15,495.71,913.15Z"/><path class="cls-4" d="M469.5,888.89s-11.66,18.45-2.19,46"/><path class="cls-4" d="M418,899.44s25-8.74,48.3-3.35"/><ellipse cx="485.78" cy="909.95" rx="0.87" ry="1.95"/><path class="cls-2" d="M459.53,911.28c0-.07-.09-.15-.15-.22s-27.85,3.38-22.9,10.44,18.42,6.85,23.65,1.63h0A43.87,43.87,0,0,1,459.53,911.28Z"/><path class="cls-4" d="M460.31,905.76s-2.75,11.69,1.2,22.28"/><path class="cls-4" d="M438.47,923.62a41.18,41.18,0,0,1,20.93-7.18"/><path class="cls-4" d="M459.65,920a31.23,31.23,0,0,0-13.31,6.73"/><path class="cls-4" d="M439.62,928a5.57,5.57,0,0,0,3.62,1.58"/><path class="cls-4" d="M436.31,929.62a6.11,6.11,0,0,0,3.31,1.92"/><path class="cls-4" d="M435,932.31a4.09,4.09,0,0,0,3,1.08"/><path class="cls-4" d="M428,929.62a5.3,5.3,0,0,0,3.23,1.46"/><path class="cls-4" d="M428,924.84a5.49,5.49,0,0,0,3.23,1.31"/><path class="cls-4" d="M432.23,923.39a4.78,4.78,0,0,0,2.23,1"/><path class="cls-4" d="M446.34,910.43a12,12,0,0,1,2.59-.48"/><path class="cls-4" d="M454.71,907.6s2.31-.39,3,0"/><path class="cls-4" d="M449.86,904.36a4.52,4.52,0,0,1,2.31,0"/><path class="cls-4" d="M443.24,905.76a6.52,6.52,0,0,1,3.1-.4"/><path class="cls-4" d="M441.08,900.82a4.39,4.39,0,0,1,2.16,0"/><path class="cls-4" d="M447.64,900.05s2.22-.46,3.07,0"/><path class="cls-4" d="M421.91,910a14.13,14.13,0,0,0,3.85,1.94"/><path class="cls-4" d="M417.52,913.14s2,2,3.78,2.08"/><path class="cls-4" d="M413.6,915.91a6.17,6.17,0,0,0,2.54,1.69"/><path class="cls-4" d="M409.13,910.43a5.65,5.65,0,0,0,2.54,1.79"/><path class="cls-4" d="M412.21,907.42a6.38,6.38,0,0,0,2.66,1.79"/><path class="cls-4" d="M415.68,904.19a12.7,12.7,0,0,0,3.38,1.57"/><path class="cls-4" d="M424.76,888.89a17.15,17.15,0,0,1,4.47-.47"/><path class="cls-4" d="M429.61,886.58a6.22,6.22,0,0,1,2.82-.31"/><path class="cls-4" d="M431,891a7.11,7.11,0,0,1,2.9,0"/><path class="cls-4" d="M435.89,889.5a6.33,6.33,0,0,1,3.12.7"/><path class="cls-4" d="M438.47,885.65s2.31-.55,3.69.53"/><path class="cls-4" d="M461.51,885.11a7.82,7.82,0,0,1,2.44,2"/><path class="cls-4" d="M466.58,885.11a6.79,6.79,0,0,1,1.76,1.47"/><path class="cls-4" d="M458.33,888.38a6,6,0,0,1,2.54.51"/><path class="cls-4" d="M455.1,883.19a7.81,7.81,0,0,1,2.22,1.62"/><path class="cls-4" d="M458.94,880.88a6.42,6.42,0,0,1,2.57,1.62"/><path class="cls-8" d="M398.2,896.55c-1.15-3.77,8-6.54,12.73-5.25s4.25,6.25,1.27,7c-1.84.48-4.58-1.83-7.7-.86C403.55,897.76,399.1,899.52,398.2,896.55Z"/><path class="cls-5" d="M254.16,895.08c-21.14-3.28-35.4-4.43-36.75.23-.59,2,1.14,4.08,3.58,5.86,2.51,6,10.3,14.42,22.26,21.94,5.76-2.48,8.95-6.25,10.62-10.26a20.24,20.24,0,0,0,1.24-4.31A30.87,30.87,0,0,0,254.16,895.08Z"/><path class="cls-2" d="M255.65,895.31S262,886,270.44,883.14c0,0,12.51,6.48,27.83,20.93C298.27,904.07,264.72,899.37,255.65,895.31Z"/><path class="cls-4" d="M269.14,888.87s-5.22,3.58-7.79,7.35"/><path class="cls-4" d="M274.32,890.81s-4.55,3.45-6.38,6.53"/><path class="cls-4" d="M279.94,893.61s-3.72,2.61-5.21,5"/><path class="cls-4" d="M285.88,897.34a11.31,11.31,0,0,0-2.93,2.93"/><path class="cls-5" d="M299.15,904.32s6.16-8.76,21.38-13.51c0,0-1.83,7.66,1.08,10.69s8.06,4.92,7.16,13.63C328.77,915.13,301.63,910.05,299.15,904.32Z"/><path class="cls-4" d="M316.11,898.59s-6.65,3.36-9.57,8"/><path class="cls-4" d="M318.45,902.57a17.87,17.87,0,0,0-6.17,5.91"/><path class="cls-4" d="M322.33,906.3a16.69,16.69,0,0,0-3.88,4.46"/><path class="cls-2" d="M263.26,932.81s1.2,10.52,5.37,11.36,1.4-9,1.4-9S267,931.39,263.26,932.81Z"/><path class="cls-5" d="M297.5,940.45s7.59,13.28,14.78,18.58c5.58,4.11,2.41-7.62,4.08-10.5s3.9-2.79,6.41-8.08C322.77,940.45,303.79,937.75,297.5,940.45Z"/><path class="cls-4" d="M302.81,940.85s4.79,9.29,8.82,12.88"/><path class="cls-4" d="M307.22,941.05s2.37,5.56,5.71,8.56"/><path class="cls-4" d="M311.63,941.05s1.48,3.3,3.16,4.28"/><path class="cls-4" d="M251.17,900.27s1.92,11.26-4.68,16.15"/><path class="cls-4" d="M221,901.17a31.5,31.5,0,0,0,9.66,3.66"/><ellipse cx="243.85" cy="901.77" rx="1.66" ry="0.67" transform="translate(-688.29 963.08) rotate(-78.63)"/><path class="cls-3" d="M337.49,919.34l3.83,2C340.14,920.69,338.87,920,337.49,919.34Z"/><path class="cls-3" d="M332.32,939.55l-4.31.57C329.51,940,331,939.75,332.32,939.55Z"/><path class="cls-2" d="M255.11,908.54l.28-.19a56,56,0,0,1,7,1.85c0-.85,0-1.69.06-2.49.17-8-2.34-11.68-2.35-11.69-1.5-.25-3-.48-4.45-.71l-1.49-.23A30.87,30.87,0,0,1,255.11,908.54Z"/><path class="cls-2" d="M372.45,937.94c-1.89-6.81,22.15-31.88,22.15-31.88-18,7.12-28.4,16.74-33.7,21.35-4.41,3.84-4.37,1.89-19.45-6-1.9,2-1.4,11.62-3.4,11.4s-1.45-2.3-.69-6.75,0-6.73,0-6.75c-2.07-1-4.37-2.16-6.93-3.37-.93-.44-1.85-.84-2.78-1.26-1.28,1.19-4.48,1.47-5.77,5.86s-.08,16.25-2.53,15.94-2-11.88-1.46-17.47c.52-5.41-.51-8.43-.58-8.63-2.8-1.07-5.6-2.07-8.38-3,.43,5.91-2.86,10.12-3.38,17.44s-.95,12.41-3.19,12.93-.86-8.79,0-18.1.36-11.07.89-14.07c-4.35-1.33-8.66-2.5-12.9-3.54.74,4.18-.75,8-4,11s-1.73,19.91-4.87,20-.74-14.14-.23-20.34a90.25,90.25,0,0,0,0-12.72c-1.81-.39-3.6-.75-5.38-1.1-4.08,2,1.16,20-3.45,19.88h0c-1.23.95-4.09,1.22-6.65,1.33h0c-.16,3.78-.46,6.68-1.39,6.74-1.45.09-2-2.94-2.07-7a12,12,0,0,1-8.3-6.28s-.06-.25-.11-.64c-1.67,4-4.86,7.78-10.62,10.26a113.79,113.79,0,0,0,39.26,15.21c1.83.35,3.62.65,5.38.92a117.93,117.93,0,0,0,2.64-14.46c1.23-9.31,3.56-13.28,5.28-12.41s-1.55,9-1.29,16,2.12,8.17,1.8,12a144.64,144.64,0,0,0,31.39-.17c0-.1-.07-12.84,3.45-14.45s-.9,9.67,1.39,13.81c11.46-1.73,18.78-4.22,21.54-4,5.68.38-.76,5.3,9.84,18.74a33.88,33.88,0,0,0,26.32,12.69C382.3,959.71,374.35,944.76,372.45,937.94Zm-60.17-2c-2.93.43-2.74-18.42.65-17.76C315,918.55,315.2,935.47,312.28,935.9Z"/><path class="cls-2" d="M268.57,902.57c-1.8-.36-2.33,3.95-2.56,9a22,22,0,0,1,4.27,2.43C270.21,909.45,271.26,903.1,268.57,902.57Z"/><path class="cls-7" d="M262.28,919.77c.12,4.05.62,7.08,2.07,7,.93-.06,1.23-3,1.39-6.74A14.71,14.71,0,0,1,262.28,919.77Z"/><path class="cls-7" d="M262.45,907.71c0,.8,0,1.64-.06,2.49,1.18.4,2.42.86,3.62,1.39.23-5.07.76-9.38,2.56-9,2.69.53,1.64,6.88,1.71,11.45a9.81,9.81,0,0,1,.85.69c2.21,2,2.28,3.2,1.27,4h0c4.61.14-.63-17.9,3.45-19.88-5.43-1.06-10.7-2-15.75-2.79C260.11,896,262.62,899.7,262.45,907.71Z"/><path class="cls-7" d="M281.23,912.63c-.51,6.2-2.91,20.43.23,20.34s1.59-17,4.87-20,4.76-6.79,4-11c-3.08-.76-6.12-1.45-9.12-2.09A90.25,90.25,0,0,1,281.23,912.63Z"/><path class="cls-7" d="M294.52,928.32c-.26-7,3-15.09,1.29-16s-4.05,3.1-5.28,12.41a117.93,117.93,0,0,1-2.64,14.46q4.35.68,8.43,1.09C296.64,936.49,294.78,935.29,294.52,928.32Z"/><path class="cls-7" d="M302.36,937.71c2.24-.52,2.68-5.6,3.19-12.93s3.81-11.53,3.38-17.44q-2.85-.95-5.68-1.8c-.53,3,0,4.77-.89,14.07S300.12,938.23,302.36,937.71Z"/><path class="cls-7" d="M312.93,918.14c-3.39-.66-3.58,18.19-.65,17.76S315,918.55,312.93,918.14Z"/><path class="cls-7" d="M317.89,919c-.53,5.59-1,17.17,1.46,17.47s1.23-11.49,2.53-15.94,4.49-4.67,5.77-5.86q-5.17-2.32-10.34-4.3C317.38,910.54,318.41,913.56,317.89,919Z"/><path class="cls-4" d="M337.36,919.27h0l.13.07Z"/><path class="cls-4" d="M341.45,921.37l-.13-.06.13.06Z"/><path class="cls-7" d="M337.36,926c-.76,4.45-1.3,6.52.69,6.75s1.5-9.37,3.4-11.4l-.13-.06-3.83-2-.13-.07S338.13,921.58,337.36,926Z"/><path class="cls-4" d="M332.55,939.52h0l-.23,0Z"/><path class="cls-4" d="M327.71,940.16l.3,0-.3,0Z"/><path class="cls-7" d="M331.16,925.71c-3.52,1.61-3.46,14.35-3.45,14.45l.3,0,4.31-.57.23,0C330.26,935.38,334.68,924.1,331.16,925.71Z"/><path class="cls-6" d="M271.13,914.71a9.81,9.81,0,0,0-.85-.69,22,22,0,0,0-4.27-2.43c-1.2-.53-2.44-1-3.62-1.39a56,56,0,0,0-7-1.85l-.28.19a20.24,20.24,0,0,1-1.24,4.31c0,.39.11.64.11.64a12,12,0,0,0,8.3,6.28,14.71,14.71,0,0,0,3.46.25h0c2.56-.11,5.42-.38,6.65-1.33C273.41,917.91,273.34,916.68,271.13,914.71Z"/><path class="cls-4" d="M267.1,917.1A30.87,30.87,0,0,0,255,910.41"/><path class="cls-4" d="M260.1,916.42a18.86,18.86,0,0,1-5.5-4.59"/><path class="cls-4" d="M361.31,939.58s4.48,15.74,16.71,21.53"/><path class="cls-4" d="M366.7,939.25A47.05,47.05,0,0,0,378,958.15"/><path class="cls-4" d="M363.33,930.77s7.34-8.25,14.69-12.64"/><path class="cls-4" d="M369.38,930.77a48.89,48.89,0,0,1,9.31-9.4"/><path class="cls-5" d="M503.22,350.87s5,15.48,22.53,7.63C525.75,358.5,517.19,341.83,503.22,350.87Z"/><circle class="cls-6" cx="506.32" cy="360.07" r="9.32"/><circle class="cls-6" cx="509.44" cy="355.57" r="0.41"/><circle class="cls-6" cx="507.38" cy="353.71" r="0.41"/><circle class="cls-6" cx="505.14" cy="355.4" r="0.41"/><circle class="cls-6" cx="507.21" cy="357.22" r="0.41"/><path class="cls-5" d="M505.8,318.37s-9,14.09,2,23C507.82,341.38,519,332.51,505.8,318.37Z"/><path class="cls-5" d="M500,347.3s-7.82-9.87,5.34-20C505.34,327.31,512.28,343.54,500,347.3Z"/><path class="cls-5" d="M494.22,392s10.35-10.92,0-18.86C494.2,373.14,484,380.71,494.22,392Z"/><path class="cls-5" d="M498.2,369.26s-5.75,14.62,9.51,20.19C507.71,389.45,511.81,372.55,498.2,369.26Z"/><path class="cls-5" d="M472.83,386.12s-3.13-15,9.71-19.13C482.54,367,488.71,381.63,472.83,386.12Z"/><path class="cls-5" d="M470.11,353.87s15.83,5.52,20.91-11.35C491,342.52,476.23,337.07,470.11,353.87Z"/><path class="cls-5" d="M484.56,364.48s-7.11-13.82,4.26-21.29C488.82,343.19,498.78,355.82,484.56,364.48Z"/><path class="cls-5" d="M485.32,327.33s-3.75,14.8,14.61,18.18C499.93,345.51,501.56,327,485.32,327.33Z"/><path class="cls-5" d="M452.74,341.21s6.56,13.57,22.61,5.53C475.35,346.74,466.46,332.74,452.74,341.21Z"/><path class="cls-5" d="M473.77,341.45s12.93-8.27,3.32-22.63C477.09,318.82,464.3,325.72,473.77,341.45Z"/><path class="cls-5" d="M452.8,334s15.56,2.76,20.89-16.06C473.69,318,459.36,314.19,452.8,334Z"/><path class="cls-5" d="M446.72,368.86s14.34-2.55,11-17.58C457.69,351.28,445.14,352.44,446.72,368.86Z"/><path class="cls-5" d="M451.53,308.59s-17.08,2.87-15.6,17.45C435.93,326,450,330,451.53,308.59Z"/><path class="cls-5" d="M416.23,347.45s15.29,4,19.53-14.21C435.76,333.24,421.55,327.93,416.23,347.45Z"/><path class="cls-5" d="M430.78,353.48s13.89-6.55,6.2-22C437,331.45,423.4,336.66,430.78,353.48Z"/><path class="cls-5" d="M411.49,320.77c-.76.74,12.41,12.27,21.28-.82C432.77,320,423.55,309,411.49,320.77Z"/><path class="cls-5" d="M429.67,297.24s-6.92,17.44,7.46,22.69C437.13,319.93,446.88,309.62,429.67,297.24Z"/><circle class="cls-6" cx="489.67" cy="372.95" r="9.32"/><circle class="cls-6" cx="488.72" cy="368.8" r="0.41"/><circle class="cls-6" cx="485.95" cy="369.03" r="0.41"/><circle class="cls-6" cx="485.66" cy="371.82" r="0.41"/><circle class="cls-6" cx="488.4" cy="371.55" r="0.41"/><circle class="cls-6" cx="446.48" cy="348.6" r="9.32"/><circle class="cls-6" cx="450.66" cy="344.66" r="0.41"/><circle class="cls-6" cx="449.93" cy="347.34" r="0.41"/><circle class="cls-6" cx="452.45" cy="348.57" r="0.41"/><circle class="cls-6" cx="453.14" cy="345.9" r="0.41"/><circle class="cls-6" cx="489.67" cy="343.19" r="9.35"/><circle class="cls-6" cx="489.79" cy="338.09" r="0.41"/><circle class="cls-6" cx="487.35" cy="336.76" r="0.41"/><circle class="cls-6" cx="485.57" cy="338.93" r="0.41"/><circle class="cls-6" cx="488.01" cy="340.22" r="0.41"/><path class="cls-7" d="M424.77,315.25s17.48,11.53,27.19,28.1l1.69-4.27a73.74,73.74,0,0,0-25.75-25.94Z"/><path class="cls-7" d="M450.39,315.34A74.46,74.46,0,0,0,452.65,348c8.68,27.32-3.45,49.83-6.17,64.31-2.8,14.86-10.92,22.32-2.28,23,10.09.83,16.74,3.07,16.07-10.31-.79-15.76-1.88-36.78,5.26-44.86s22.57-10.75,33.1-23.91a34.87,34.87,0,0,1,25.19-13.15l-2.39-6.79s-15.8.72-26.14,13.07c-8.57,10.24-20.67,18.77-25.18,16.39s2.28-8.92,5.22-16.87c3.15-8.48,9.51-20.67,17.11-22.57l-6.65-3.33s-8.77,5.64-15.68,24.48c-5.37,14.61-10,3.56-11.88-4.52s-4-19.24-.72-25.66Z"/><path class="cls-5" d="M409.78,309.34s10.18,14.85,23,2.34C432.81,311.68,427.14,301.5,409.78,309.34Z"/><path class="cls-5" d="M446.22,305.21s2.81,20.26,22,15C468.24,320.19,466.79,305.21,446.22,305.21Z"/><path class="cls-5" d="M475.78,300.12s-3.47,18.11,13.9,21.24C489.68,321.36,493.57,305.68,475.78,300.12Z"/><path class="cls-5" d="M522.31,318s-15.64,6-12.61,19.07C509.7,337.07,526.06,336,522.31,318Z"/><path class="cls-5" d="M530.22,345.76s-15.87,4.92-21.28-8.68C508.94,337.08,523.09,329.25,530.22,345.76Z"/><path class="cls-5" d="M481.13,321s2.69,14.39,22.87,6.12C504,327.07,493.64,313.4,481.13,321Z"/><circle class="cls-6" cx="427.9" cy="329.41" r="9.32"/><circle class="cls-6" cx="430.84" cy="325.09" r="0.41"/><circle class="cls-6" cx="429.7" cy="327.62" r="0.41"/><circle class="cls-6" cx="431.99" cy="329.23" r="0.41"/><circle class="cls-6" cx="433.09" cy="326.7" r="0.41"/><circle class="cls-6" cx="475.85" cy="320.2" r="9.32"/><circle class="cls-6" cx="478.65" cy="315.5" r="0.41"/><circle class="cls-6" cx="477.92" cy="318.18" r="0.41"/><circle class="cls-6" cx="480.44" cy="319.41" r="0.41"/><circle class="cls-6" cx="481.12" cy="316.74" r="0.41"/><path class="cls-5" d="M624.58,576.49c8.29,9.85,0,24.54-9,29.27s-2.7,19.83-9.91,28.6-11.25,7.42-31.29,6.75-24,14-35.6,8.46c-8.76-4.16-.61-13-16.41-25.08s-14.91-25.43-9.45-34c6.53-10.31,19.71-11.26,31.92-9.91s18.25-13.3,32-15.08c13.37-1.73,13,5.4,25,5.85S618.33,569.07,624.58,576.49Z"/><path class="cls-6" d="M523.17,625.12s-4.07,5.83-3.44,10.32c.59,4.26,5.69,3.29,5.2,0s-.07-4.65.71-8.19Z"/><path class="cls-4" d="M602.88,589.39s-45.57,3.13-77.24,37.86"/><path class="cls-4" d="M572.14,580.43s-1,10.77-14.3,22.52"/><path class="cls-4" d="M590.31,615s-12.66-15.06-37-9.55"/><path class="cls-4" d="M544.83,588.42s-3.78,21.52-15.42,34.91"/><path class="cls-4" d="M575.65,623.33s-20.54-11.57-48,1.79"/><path class="cls-4" d="M591.68,580.43s-4.15,10.81-13.87,14.32"/><path class="cls-4" d="M600.7,599.79s-7.9-6.35-17.94-6.52"/><path class="cls-6" d="M500.29,604.91a170.35,170.35,0,0,0-1.5,17.84c-.15,8.55.43,13.21,2.87,13.42s3.61,0,3.29-2.86-2.23-13.91-1.91-23.73S500.29,604.91,500.29,604.91Z"/><path class="cls-5" d="M525,512.63c8.64,2.53,10.31,12.3,7.68,21.32s-1.09,12.62,2.41,18.48-3.06,12.64,0,18.11,11.38,16.05-5.68,40.73S495.5,599.17,486.09,599s-21.49-5.89-25.73-22.07.82-22.1,13.17-27.13,6.44-17.94,14.09-24.5,14.75-1.91,21.71-7.85S521.16,511.5,525,512.63Z"/><path class="cls-4" d="M497.91,535.42s7.41,7.86,5.48,24.22"/><path class="cls-4" d="M523.63,544.29s-12.79,1.77-19.37,12.75"/><path class="cls-4" d="M485.93,548s11.47,10.78,12.5,30.37"/><path class="cls-4" d="M523.63,565.92s-17.94,3-26.29,18.52"/><path class="cls-4" d="M473.53,565.19s20.76,20.13,19.16,47.12"/><path class="cls-4" d="M529.41,594.75s-21.81-5.9-33.54,11.12c-1-39.29,20.45-76.31,20.45-76.31"/><path class="cls-6" d="M479.94,629.83a13.35,13.35,0,0,1,2.61,6.36c.6,4-.13,7.14,2.66,6.21s3.94-1.25,1.56-6.62a34.08,34.08,0,0,1-2.77-9.62Z"/><path class="cls-5" d="M383.93,612.43c-3.25-20.67,17.54-17.15,24.84-26.45s13-14.51,21.89-13.21,8.08,9.9,24.23,7,22.75-1.86,26.66,3.44,1.49,11,11.14,17.44,8.11,16.6,2.81,22-11.16,3.21-16.33,10.74-4.74,19-15.06,18.56-7.82-14.65-20.93-14.93-16.18,4.32-22.6-4.46-14.35-1.13-23.44-3.84C391,627,385.17,620.37,383.93,612.43Z"/><path class="cls-4" d="M406,606.2s51.63-16.17,76.53,23.63"/><path class="cls-4" d="M421.94,589.38a26,26,0,0,0,14.61,13.82"/><path class="cls-4" d="M418.37,618.27A29.32,29.32,0,0,1,433.75,603"/><path class="cls-4" d="M446.8,588.44s3.82,13.5,13.56,21"/><path class="cls-4" d="M432.51,621.23s11.69-13.46,30-10.62"/><path class="cls-4" d="M450.69,627.13s13.18-9,27.41-3.5"/><path class="cls-4" d="M473.53,599.79s.08,16.19,3.84,23"/><path class="cls-3" d="M353.35,439.66s-9.58,4.29,12.58,7.8c0,0,2-14.37-3.68-11.42,0,0-.55-28.67-7.78-18.88,0,0,.24-8.88-4.64-16.24s-8.94-3.85-9.59-.94c0,0-4.62-6.23-8.45-2.57s-1,11.7-1,11.7-5.17.46-4.3,4.51,6.74,9,10.5,10.13c0,0-7.79,1.23-1.85,7.37S353.35,439.66,353.35,439.66Z"/><path class="cls-3" d="M343.11,415.2s9.34,23.62,22.82,32.26"/><path class="cls-3" d="M365.91,447.45s17.64-8.71,10.19-12.54c0,0,4.87-3.62,6.79-7.68s-1.12-5.63-2.68-3.3A32.27,32.27,0,0,0,386,411c1.42-7.5-2.17-8.78-4.35-6.57,0,0,1.35-1.79,1.36-7.59s-3.59-7.18-5.64-4.09c0,0-2.25-9.57-7.48-9s-5.87,6.84-5.87,6.84-9.6-3.81-4.8,10.79c0,0-3.4-2.59-4.77-1-1.59,1.82.21,10.26.21,10.26s-4.45-2.24-3.38,3.4,7.29,16.72,7.29,16.72-5.75-1.66-1.65,6.65S365.91,447.45,365.91,447.45Z"/><path class="cls-3" d="M368.92,403.16s3.69,23.51-3,44.29"/><path class="cls-3" d="M366.18,447.31c1.09-.61,8.95-.52,17.06-5.44s5.13-8.31,2.65-7.6c0,0,3.38-.66,8.44-4.51s3.27-7.6.79-6.27a22.31,22.31,0,0,0,6.23-9.9c1.87-6.24-2.5-6.23-3.45-4.76,0,0,1.71-8-1.77-9.22s-6.76,3.86-6.76,3.86,0-4.54-2.48-3.66-7.88,7.47-7.18,16.46c0,0-6.25-3.29-6.37,7S366.18,447.31,366.18,447.31Z"/><path class="cls-3" d="M390,413.75s-3.17,20.53-23.82,33.56"/><path class="cls-3" d="M451.67,443.09s-14.71,1.48-24-15.33c-8.3-15-7.72-22.92-5.29-24.2s6.72,3.5,6.72,3.5,0-8.94,4-9.36,5.75,8.72,5.75,8.72,2-5.49,6-4.46c4.21,1.08,4.74,12.15,4.74,12.15s2.08-2.77,3.76-1.58,0,8.39-1.29,11.35a2.33,2.33,0,0,1,3-.52C456.71,424.38,456.6,436.22,451.67,443.09Z"/><path class="cls-3" d="M451.67,443.09C440.2,437.6,437,414.8,437,414.8"/><path class="cls-3" d="M451.55,443.09s-6-8.6-5.63-25.7,7.1-18.67,8.73-15.65c0,0,1.89-5.57,6.75-5.48s4.21,8.64,4.21,8.64,11.3-4,4.2,12.49c0,0,4.07-2.9,4.34,1.17s-4.34,11.12-12.22,15.61C461.93,434.17,468.76,436.87,451.55,443.09Z"/><path class="cls-3" d="M458.51,412.91s1.84,13.19-7,30.18"/><path class="cls-3" d="M386.57,452.22s-9.58,4.3,12.59,7.8c0,0,2-14.37-3.69-11.41,0,0-.54-28.68-7.78-18.89,0,0,.25-8.88-4.63-16.23s-8.95-3.86-9.6-.95c0,0-4.62-6.23-8.45-2.57s-1,11.7-1,11.7-5.18.46-4.3,4.51,6.73,9,10.49,10.13c0,0-7.79,1.23-1.85,7.37S386.57,452.22,386.57,452.22Z"/><path class="cls-3" d="M376.34,427.76s9.33,23.62,22.82,32.26"/><path class="cls-3" d="M399.14,460s17.63-8.72,10.18-12.54c0,0,4.88-3.62,6.79-7.69s-1.11-5.63-2.68-3.3a32.21,32.21,0,0,0,5.84-12.94c1.41-7.5-2.17-8.78-4.35-6.57,0,0,1.34-1.79,1.36-7.59s-3.59-7.18-5.65-4.09c0,0-2.24-9.57-7.48-9s-5.86,6.84-5.86,6.84-9.61-3.81-4.8,10.79c0,0-3.4-2.58-4.78-1-1.58,1.82.21,10.27.21,10.27s-4.45-2.24-3.37,3.39,7.29,16.72,7.29,16.72-5.75-1.66-1.65,6.65S399.14,460,399.14,460Z"/><path class="cls-3" d="M402.14,415.73s3.69,23.5-3,44.29"/><path class="cls-3" d="M399.4,459.87c1.09-.6,9-.52,17.07-5.43s5.12-8.32,2.64-7.6c0,0,3.38-.67,8.44-4.52s3.27-7.6.79-6.26a22.35,22.35,0,0,0,6.24-9.91c1.86-6.24-2.5-6.23-3.45-4.76,0,0,1.7-8-1.78-9.21S422.6,416,422.6,416s0-4.54-2.49-3.65-7.87,7.46-7.18,16.45c0,0-6.25-3.29-6.37,7S399.4,459.87,399.4,459.87Z"/><path class="cls-3" d="M423.22,426.31s-3.17,20.54-23.82,33.56"/><path class="cls-9" d="M391.56,686.6c-.43-8.66,4.08-11.59,6.74-12.57a40.38,40.38,0,0,1-5.79-6.62c-7.34-10.41-17.09-3.75-17.09-3.75-20.19,3.88-17.34,20.84-17.34,20.84s18.57,31.1,32.7,26.68C385.16,703.73,392.13,698,391.56,686.6Z"/><path class="cls-4" d="M391.56,686.6c-.43-8.66,4.08-11.59,6.74-12.57a40.38,40.38,0,0,1-5.79-6.62c-7.34-10.41-17.09-3.75-17.09-3.75-20.19,3.88-17.34,20.84-17.34,20.84s18.57,31.1,32.7,26.68C385.16,703.73,392.13,698,391.56,686.6Z"/><path class="cls-9" d="M408.11,688.05c0-8-4.09-8.78-9.81-14-2.66,1-7.17,3.91-6.74,12.57.57,11.36-6.4,17.13-.78,24.58.19-.06.37-.1.55-.17C405.11,705.75,408.11,696,408.11,688.05Z"/><path class="cls-4" d="M408.11,688.05c0-8-4.09-8.78-9.81-14-2.66,1-7.17,3.91-6.74,12.57.57,11.36-6.4,17.13-.78,24.58.19-.06.37-.1.55-.17C405.11,705.75,408.11,696,408.11,688.05Z"/><path class="cls-2" d="M355.27,691.46c-1.14,5.82.16,15.39,13.84,19.28,18.1,5.14,25,.16,28.14-5.6s4.66-14.14,0-18.19A28.55,28.55,0,0,1,389,676.07c-3-6.37-12.93-10.91-22.85-4.66C358.08,676.49,356.2,686.72,355.27,691.46Z"/><path class="cls-2" d="M372.46,711.61s-3.63-14.9,1.05-25"/><path class="cls-9" d="M347.83,705.72c-.44-8.66,4.07-11.59,6.74-12.57a40.38,40.38,0,0,1-5.8-6.62c-7.34-10.41-17.08-3.75-17.08-3.75-20.2,3.88-17.35,20.84-17.35,20.84s18.58,31.1,32.71,26.68C341.43,722.85,348.4,717.08,347.83,705.72Z"/><path class="cls-4" d="M347.83,705.72c-.44-8.66,4.07-11.59,6.74-12.57a40.38,40.38,0,0,1-5.8-6.62c-7.34-10.41-17.08-3.75-17.08-3.75-20.2,3.88-17.35,20.84-17.35,20.84s18.58,31.1,32.71,26.68C341.43,722.85,348.4,717.08,347.83,705.72Z"/><path class="cls-9" d="M364.38,707.17c0-8-4.09-8.78-9.81-14-2.67,1-7.18,3.91-6.74,12.57.57,11.36-6.4,17.13-.78,24.58.18-.06.36-.1.55-.17C361.37,724.87,364.38,715.07,364.38,707.17Z"/><path class="cls-4" d="M364.38,707.17c0-8-4.09-8.78-9.81-14-2.67,1-7.18,3.91-6.74,12.57.57,11.36-6.4,17.13-.78,24.58.18-.06.36-.1.55-.17C361.37,724.87,364.38,715.07,364.38,707.17Z"/><path class="cls-2" d="M311.54,710.58c-1.14,5.82.15,15.39,13.83,19.28,18.1,5.14,25,.15,28.14-5.6s4.66-14.14,0-18.19a28.65,28.65,0,0,1-8.24-10.88c-3-6.38-12.93-10.91-22.85-4.66C314.34,695.61,312.47,705.84,311.54,710.58Z"/><path class="cls-2" d="M328.73,730.73s-3.64-14.9,1-25"/><path class="cls-9" d="M425.14,712.24c-.43-8.66,4.08-11.59,6.74-12.57a40.38,40.38,0,0,1-5.79-6.62C418.75,682.64,409,689.3,409,689.3c-20.19,3.88-17.34,20.84-17.34,20.84s18.57,31.1,32.7,26.68C418.74,729.37,425.71,723.6,425.14,712.24Z"/><path class="cls-4" d="M425.14,712.24c-.43-8.66,4.08-11.59,6.74-12.57a40.38,40.38,0,0,1-5.79-6.62C418.75,682.64,409,689.3,409,689.3c-20.19,3.88-17.34,20.84-17.34,20.84s18.57,31.1,32.7,26.68C418.74,729.37,425.71,723.6,425.14,712.24Z"/><path class="cls-9" d="M441.7,713.7c0-8-4.09-8.79-9.82-14-2.66,1-7.17,3.91-6.74,12.57.57,11.36-6.4,17.13-.78,24.58.19-.06.37-.1.55-.17C438.69,731.39,441.7,721.6,441.7,713.7Z"/><path class="cls-4" d="M441.7,713.7c0-8-4.09-8.79-9.82-14-2.66,1-7.17,3.91-6.74,12.57.57,11.36-6.4,17.13-.78,24.58.19-.06.37-.1.55-.17C438.69,731.39,441.7,721.6,441.7,713.7Z"/><path class="cls-2" d="M388.85,717.1c-1.14,5.82.16,15.39,13.84,19.28,18.1,5.14,25,.16,28.14-5.6s4.66-14.14,0-18.18a28.65,28.65,0,0,1-8.24-10.89c-3-6.37-12.93-10.91-22.85-4.66C391.66,702.13,389.78,712.36,388.85,717.1Z"/><path class="cls-2" d="M406.05,737.25s-3.64-14.9,1-25"/><path class="cls-2" d="M529.67,741.88s4,3.47,3,8.17-6.29,3.9-6.89,9.38-2.29,5-5.28,11.47-1.95,14.43-1.95,14.43S515.38,758.85,529.67,741.88Z"/><path class="cls-2" d="M492.69,741.72s-4.84,12.72.86,19.67,12.19,2.46,13.46,11.84c.82,6.15,2.69,7.17,7.31,10.89,3.77,3,4.43,9.07,4.43,9.07S516,757.63,492.69,741.72Z"/><path class="cls-2" d="M547.42,749.7a37.29,37.29,0,0,1-2.19,14.79c-3.7,10.61-14.45,8.47-17.25,10.73s-.05,5.35-5.56,9.11a8.4,8.4,0,0,0-3.47,9S510.57,770.84,547.42,749.7Z"/></svg>