<?xml version="1.0" encoding="utf-8"?>
<!-- Generator: Adobe Illustrator 22.1.0, SVG Export Plug-In . SVG Version: 6.00 Build 0)  -->
<svg version="1.1" id="圖層_1" xmlns="http://www.w3.org/2000/svg" xmlns:xlink="http://www.w3.org/1999/xlink" x="0px" y="0px"
	 viewBox="0 0 648.3 978" style="enable-background:new 0 0 648.3 978;" xml:space="preserve">
<style type="text/css">
	.st0{fill:#60472A;stroke:#000000;stroke-width:0.4;stroke-miterlimit:10;}
	.st1{fill:#ECB36F;stroke:#000000;stroke-width:0.4;stroke-miterlimit:10;}
	.st2{fill:#4B8E32;stroke:#000000;stroke-width:0.4;stroke-miterlimit:10;}
	.st3{fill:#CBD13A;stroke:#000000;stroke-width:0.4;stroke-miterlimit:10;}
	.st4{fill:none;stroke:#000000;stroke-width:0.4;stroke-miterlimit:10;}
	.st5{fill:#FFEED6;stroke:#000000;stroke-width:0.4;stroke-miterlimit:10;}
	.st6{fill:none;stroke:#1D842F;stroke-width:0.5;stroke-miterlimit:10;}
	.st7{fill:none;stroke:#FBC600;stroke-width:0.5;stroke-miterlimit:10;}
	.st8{fill:#FFFFFF;stroke:#000000;stroke-width:0.4;stroke-linejoin:round;stroke-miterlimit:10;}
	.st9{opacity:0.95;fill:#FFFFFF;enable-background:new    ;}
	
		.st10{opacity:0.95;fill:#FFFFFF;stroke:#000000;stroke-width:0.4;stroke-linejoin:round;stroke-miterlimit:10;enable-background:new    ;}
</style>
<path class="st0" d="M406,714.5c-39.7,6.6-92.1,11.8-101.7,13.1c-11.4,1.4-45.3,14.1-52.7,63.6c-9.7,65.1-36.4,45.9-59.2,65.6
	c-20.2,17.5-27.1,63.8-81.4,46.5c9.1,6.3,19.4,9.9,29.7,11c21.8,2.4,36.7,10.6,47.2,24.6c11.7,15.6,35.2,22.9,60.3,9.7
	c37.3-19.7,46.9-0.4,80.1,11.2c19.1,6.7,67.8,3.9,109.2,3.6c16.4-0.1,22.8-21.1,9.5-30.6c-4.5-3.1-8.7-6.4-12.8-9.9
	c-17.8-15.3-30.6-34.1-29.8-61.3c2.1-72.5,90-86.9,135.9-121.3c15.8-11.8,26.6-26.1,27.2-45.8C560.7,712.6,460.8,705.4,406,714.5z"
	/>
<g>
	<path class="st1" d="M429.7,759.1c-42.5,1.4-72.6,14.7-92.8,32.2c-17.3,15-44.7,17.7-44.7,54.8c0,37.8,28.6,33.1,51.5,56.5
		c28.2,28.9,72.4,16.1,90.6,20.2c-17.8-15.3-30.6-34.1-29.8-61.3c2.1-72.5,90-86.9,135.9-121.3C530.6,743.8,480.1,757.4,429.7,759.1
		z"/>
</g>
<path class="st2" d="M196.1,857c20.3-14.3,50.6-0.5,60.5-67.1c7.5-50.6,50.6-63.9,55.3-64.7c-35.5,5.4-74,8.9-126.1,8
	C31.8,730.6,10.6,700,10.6,700S9.9,723.8,40,751.2c30.2,27.4,42.8,40.2,43.8,92.2c0.6,29.7,12.8,49.6,29.2,61
	C168.4,922.2,174.3,872.4,196.1,857z"/>
<g>
	<path class="st3" d="M148,528.5l-8.4-1.1c-2.6,19.5-12.2,27.9-17.4,31.1c-3.2-3.5-6.7-6.2-10.5-8.6l0.2-0.1
		c-19.3-26.4-7.4-45.8-6.8-46.6l-7.1-4.6c-0.6,0.9-12,18.9-0.2,44.1c-12.3-5.8-23.8-11.5-28.7-27.2L61,518
		c6.1,19.6,20.8,26.5,33.7,32.7c19.6,9.3,36.5,17.3,29.8,64.7l8.4,1.2c3.5-25,0.5-40.7-5.7-51.2C134.2,560.9,145.1,550.5,148,528.5z
		"/>
	<g>
		<path class="st1" d="M63.3,518.6c0,0,3.6-20,25.4-18.4C88.7,500.2,84.3,523,63.3,518.6z"/>
		<path class="st1" d="M61.2,486.7c0,0-14.9,21.8,1.6,30.5C62.9,517.3,77.4,507.1,61.2,486.7z"/>
		<path class="st1" d="M33.9,503c0,0,7.2,20.3,28.6,15.1C62.6,518.1,58.3,498.8,33.9,503z"/>
		<circle class="st0" cx="62.6" cy="517.6" r="8.3"/>
	</g>
	<g>
		<path class="st1" d="M71.6,481.3c0,0,4.3,23.5,27.7,24.5C99.3,505.9,99.9,485.3,71.6,481.3z"/>
		<path class="st1" d="M100.7,505.1c0,0,12.9-14.9,29.6,2.1C130.2,507.2,110.1,521.6,100.7,505.1z"/>
		<path class="st1" d="M96,505c0,0-1-20.8,23.5-26.5C119.5,478.6,115.7,507.3,96,505z"/>
		<path class="st1" d="M98.4,507.8c0,0,19.3-3.8,22,19.9C120.4,527.7,95.6,526.6,98.4,507.8z"/>
	</g>
	<g>
		<path class="st1" d="M134.6,533.1c0,0-2.4,18.9,17.9,23.7C152.5,556.8,154.6,534.9,134.6,533.1z"/>
		<path class="st1" d="M133.5,528.9c0,0-5.1-19,18.4-23.2C151.9,505.7,152.4,530.5,133.5,528.9z"/>
		<path class="st1" d="M135,528c0,0,5.4,17.4,30.3,10.9C165.3,538.9,153.3,520.1,135,528z"/>
		<path class="st1" d="M114.2,550.3c0,0,9.6-20.9,22.3-15C136.5,535.2,139.3,552.8,114.2,550.3z"/>
		<circle class="st0" cx="135.2" cy="532" r="8.3"/>
	</g>
	<g>
		<path class="st1" d="M100.7,555.3c0,0,14.6,9.9,24.8-9.7C125.6,545.6,105.6,538.4,100.7,555.3z"/>
		<path class="st1" d="M101.6,555.9c0,0,1.4,18.5,23,19.3C124.7,575.2,121,553.4,101.6,555.9z"/>
		<path class="st1" d="M99.1,557.9c0,0,13.6-12.8-4.3-28C94.9,530,82.7,548.9,99.1,557.9z"/>
		<path class="st1" d="M101.8,555.7c0,0-15.5,7.2-7.3,28.3C94.5,584,112.6,571.9,101.8,555.7z"/>
		<path class="st1" d="M75.5,565c0,0,7.1-15.2,25.8-9.3C101.3,555.7,95.4,574.4,75.5,565z"/>
	</g>
	<g>
		<path class="st1" d="M27.2,523.1c0,0,16-17,35.1,1.4C62.3,524.6,46.7,539,27.2,523.1z"/>
		<path class="st1" d="M61.3,526.5c0,0,11.5,15.6,33.2-2.6C94.5,523.9,74.7,508.5,61.3,526.5z"/>
		<path class="st1" d="M65.1,527.7c0,0-14.9,10.8,2.2,31.6C67.2,559.3,82,540.6,65.1,527.7z"/>
		<path class="st1" d="M36.5,552.9c0,0,25.7-2.9,25.8-28.5C62.3,524.4,37.7,524.9,36.5,552.9z"/>
	</g>
	<circle class="st0" cx="102.5" cy="558.5" r="8.3"/>
	<circle class="st0" cx="62.7" cy="528" r="8.3"/>
	<circle class="st0" cx="98.2" cy="507.6" r="8.3"/>
</g>
<path class="st1" d="M292.1,279.2l-1.2-0.6l-23.3,38c-3.7-41.2-9.4-82-18.2-114.6l-33,1.9c0.5,8.4,4.7,38.4,7.5,80L179.5,217
	l-3.2,1.9l49,88c0.5,10.4,0.9,21.3,1.1,32.6c0.5,27.3,0,56.8-2.5,86.9c-2.6,32-7.3,64.7-15.2,96l64.9-7.2c0,0,2.4-89.2-4.6-181.5
	L292.1,279.2z"/>
<g>
	<polyline class="st4" points="167.1,307.4 222.6,435.8 231.3,499.3 	"/>
	<line class="st4" x1="203.9" y1="334.9" x2="201" y2="385.9"/>
	<line class="st4" x1="160.3" y1="384.7" x2="214.5" y2="417.1"/>
	<line class="st4" x1="218.3" y1="351" x2="222.6" y2="435.8"/>
	<line class="st4" x1="244.6" y1="374.4" x2="221.3" y2="409.9"/>
	<line class="st4" x1="227.6" y1="473.3" x2="249.3" y2="437.8"/>
	<line class="st4" x1="156.9" y1="334.9" x2="197" y2="376.5"/>
	
		<ellipse transform="matrix(2.921934e-02 -0.9996 0.9996 2.921934e-02 -190.4425 671.6077)" class="st3" cx="250.5" cy="433.8" rx="5.9" ry="5.7"/>
	<line class="st4" x1="178.7" y1="357.6" x2="142.4" y2="350.5"/>
	
		<ellipse transform="matrix(2.921934e-02 -0.9996 0.9996 2.921934e-02 -182.4106 478.3476)" class="st0" cx="155.1" cy="333.1" rx="2.8" ry="2.7"/>
	<line class="st4" x1="235.2" y1="461" x2="250.7" y2="452.5"/>
	
		<ellipse transform="matrix(2.921934e-02 -0.9996 0.9996 2.921934e-02 -136.1811 556.4157)" class="st0" cx="218.4" cy="348.3" rx="2.8" ry="2.7"/>
	
		<ellipse transform="matrix(2.921934e-02 -0.9996 0.9996 2.921934e-02 -205.7225 690.7814)" class="st0" cx="252.8" cy="451.3" rx="2.8" ry="2.7"/>
	
		<ellipse transform="matrix(2.921934e-02 -0.9996 0.9996 2.921934e-02 -229.5356 530.3443)" class="st0" cx="158.3" cy="383.3" rx="2.8" ry="2.7"/>
	
		<ellipse transform="matrix(2.921934e-02 -0.9996 0.9996 2.921934e-02 -129.4193 522.272)" class="st3" cx="204.2" cy="327.8" rx="7.1" ry="7"/>
	
		<ellipse transform="matrix(2.921934e-02 -0.9996 0.9996 2.921934e-02 -127.3541 605.3079)" class="st3" cx="248" cy="368.2" rx="7.1" ry="7"/>
	
		<ellipse transform="matrix(2.921934e-02 -0.9996 0.9996 2.921934e-02 -217.0157 474.7281)" class="st3" cx="135.9" cy="349.1" rx="7.1" ry="7"/>
	
		<ellipse transform="matrix(2.921934e-02 -0.9996 0.9996 2.921934e-02 -140.647 456.9298)" class="st3" cx="164.9" cy="300.9" rx="7.1" ry="7"/>
</g>
<path class="st0" d="M607.2,259.4l-1.3-1l-20.6,22.4l-1.3-21.6h-1l-1.6,25.8l-17.3,18.9c1.9-35.3,2.6-72.9,1.4-111.9l-23.5,3.2
	c0,0-2.5,20.3-7.7,52.5c-2.8,17.4-6.5,38.4-11,61.5c-8.4,43.3-19.8,94.3-34.4,144.1l36.4,110.4c0,0,28.1-99.9,37.6-241.2
	L607.2,259.4z"/>
<path class="st1" d="M395.8,168.5c0,0,4.8,32.3,4.6,82l-37.2-37.9l-2.3,1.9l39.2,54.1c-1.6,54-9.6,123.8-34.2,194.4l93.5-1.5
	l6.7-286.6L395.8,168.5z"/>
<path class="st0" d="M405.5,295.3l-1.1-0.8L364,341.4c-2.1-66.4-6.5-143.6-15.8-186.8h-36.3c5.9,41,5.5,91.1,0.3,140.2l-29.4-34.4
	l1.2-35.9l-1.3-0.2l-6.5,28.3l-17.5-20.4l-3.2,2.4l54,82.3c-7.5,54.1-20.8,105.2-38.1,139.8l94.5,6.4c0,0,0.2-43.5-1.2-99.4
	L405.5,295.3z"/>
<path class="st3" d="M553.7,677.5c-13-18.6-50.1-76.2-45.1-123c6.1-56.6-29.3-133.6-123.5-136.5C224,413.2,244.9,550.9,51.6,657.4
	c-18.4,7.7-42,22-41,42.7c0,0,15.1,33.5,165.7,37.9c98.9,2.9,120.3-20.6,241.3-13.7c38.5,2.2,150.4,0.1,150.1-30.7
	C567.6,688.1,562.6,682.7,553.7,677.5z"/>
<g>
	<g>
		<path class="st2" d="M361.1,368.8c6.5,2.1,9.2,10.5,3.7,20.6s0.2,10.5-3.5,15.6s-12.4,3.6-14.3,10.8c-1.9,7.1-7.3-16.3-1.1-36.2
			C349.3,369,356.3,367.3,361.1,368.8z"/>
		<path class="st2" d="M316.6,365.8c5.6-3.9,17.3-3.4,21.1,9.2c4.2,13.8,10.8,11.6,11.7,22.7c0.8,8.8-3.7,19.4-3.7,19.4
			s-3.2-5.7-11.3-5.7c-7.3,0-11.8-2.7-12.4-9.4c-0.8-9.8-5.8-8.4-10-16.4C307.3,376.1,312.5,368.7,316.6,365.8z"/>
		<path class="st4" d="M326.6,379.3c13.5,13.4,21,29.8,20.2,53"/>
	</g>
	<g>
		<path class="st2" d="M433.9,384.5c6.5,2.1,9.2,10.5,3.7,20.6s0.2,10.5-3.5,15.6s-12.4,3.6-14.3,10.8c-1.9,7.1-7.3-16.3-1.1-36.2
			C422.1,384.7,429.1,383,433.9,384.5z"/>
		<path class="st2" d="M389.4,381.5c5.6-3.9,17.3-3.4,21.1,9.2c4.2,13.8,10.8,11.6,11.7,22.7c0.8,8.8-3.7,19.4-3.7,19.4
			s-3.2-5.7-11.3-5.7c-7.3,0-11.8-2.7-12.4-9.4c-0.8-9.8-5.8-8.4-10-16.4C380.1,391.8,385.2,384.4,389.4,381.5z"/>
		<path class="st4" d="M399.3,395c13.5,13.4,21,29.8,20.2,53"/>
		<path class="st4" d="M422.2,412.6c2.5-8.9,5.5-14.1,5.5-14.1"/>
	</g>
	<g>
		<path class="st2" d="M428.2,436.7c6.5,2.1,9.2,10.5,3.7,20.6s0.2,10.5-3.5,15.6s-12.4,3.6-14.3,10.8c-1.9,7.1-7.3-16.3-1.1-36.2
			C416.4,436.9,423.4,435.2,428.2,436.7z"/>
		<path class="st2" d="M383.7,433.7c5.6-3.9,17.3-3.4,21.1,9.2c4.2,13.8,10.8,11.6,11.7,22.7c0.8,8.8-3.7,19.4-3.7,19.4
			s-3.2-5.7-11.3-5.7c-7.3,0-11.8-2.7-12.4-9.4c-0.8-9.8-5.8-8.4-10-16.4C374.4,444,379.6,436.7,383.7,433.7z"/>
		<path class="st4" d="M393.7,447.2c13.5,13.4,21,29.8,20.2,53"/>
		<path class="st4" d="M416.5,464.8c2.5-8.9,5.5-14.1,5.5-14.1"/>
	</g>
	<g>
		<path class="st2" d="M314.9,407.8c6.5,2.1,9.2,10.5,3.7,20.6s0.2,10.5-3.5,15.6s-12.4,3.6-14.3,10.8c-1.9,7.1-7.3-16.3-1.1-36.2
			C303.2,408,310.1,406.3,314.9,407.8z"/>
		<path class="st2" d="M270.7,405.7c5.6-3.9,17.3-3.4,21.1,9.2c4.2,13.8,10.8,11.6,11.7,22.7c0.8,8.8-3.5,19.4-3.5,19.4
			s-3.4-5.7-11.5-5.7c-7.3,0-11.8-2.7-12.4-9.4c-0.8-9.8-5.8-8.4-10-16.4C261.4,416,266.5,408.7,270.7,405.7z"/>
		<path class="st4" d="M280.6,419.2c13.5,13.4,21,29.8,20.2,53"/>
		<path class="st4" d="M303.2,435.9c2.5-8.9,5.5-14.1,5.5-14.1"/>
	</g>
	<g>
		<path class="st2" d="M296.7,464.1c6.5,2.1,9.2,10.5,3.7,20.6s0.2,10.5-3.5,15.6s-12.4,3.6-14.3,10.8c-1.9,7.2-7.3-16.3-1.1-36.2
			C284.9,464.3,291.8,462.5,296.7,464.1z"/>
		<path class="st2" d="M252.4,461.9c5.6-3.9,17.3-3.4,21.1,9.2c4.2,13.8,10.8,11.6,11.7,22.7c0.8,8.8-3.5,19.4-3.5,19.4
			s-3.4-5.7-11.5-5.7c-7.3,0-11.8-2.7-12.4-9.4c-0.8-9.8-5.8-8.4-10-16.4C243.1,472.3,248.2,464.9,252.4,461.9z"/>
		<path class="st4" d="M262.3,475.5c13.5,13.4,21,29.8,20.2,53"/>
		<path class="st4" d="M284.9,492.2c2.5-8.9,5.5-14.1,5.5-14.1"/>
	</g>
</g>
<g>
	<g>
		<path class="st5" d="M231.8,516l-8,4.3l-7.7-4.7l-3.3,4.4c0,0,6.9,5.8,6.5,19.1l3.9,0.1l3.9,0.1c0.4-13.2,7.6-18.7,7.6-18.7
			L231.8,516z"/>
		<line class="st4" x1="223.5" y1="527" x2="223.6" y2="521.1"/>
		<path class="st1" d="M243.2,505c0.2-0.7,0.4-1.5,0.4-2.3c0.1-5.1-3.9-9.4-9-9.5c-0.5,0-0.9,0-1.3,0.1c-0.9-4.1-4.4-7.2-8.8-7.3
			c-4.3-0.1-8.1,2.8-9.2,6.8c-0.3,0-0.7-0.1-1.1-0.1c-5.1-0.1-9.4,3.9-9.5,9c0,0.8,0.1,1.5,0.2,2.2c-2.9,1.1-5.2,3.7-5.7,7
			c-0.9,5,2.5,9.8,7.5,10.7c3.6,0.6,7.1-0.9,9.1-3.8c1.6,2.5,4.4,4.2,7.6,4.3c3.2,0.1,6.1-1.5,7.8-3.9c1.6,2.5,4.4,4.2,7.6,4.3
			c5.1,0.1,9.4-3.9,9.5-9C248.5,509.8,246.4,506.6,243.2,505z"/>
	</g>
	<path class="st2" d="M197.6,529.9c1.4-6.2,8.2-6.8,11.1-4.1c3.5,3.2,3.6,8.4,12.5,9.5c5.6,0.6,3.6,7.8-6.8,7.6
		C201.3,542.7,196.5,534.8,197.6,529.9z"/>
	<path class="st2" d="M249.3,531c-1.2-6.2-7.9-7.1-11-4.6c-3.7,3.1-4,8.3-12.9,9c-5.6,0.4-3.9,7.6,6.5,7.9
		C245.1,543.5,250.3,535.9,249.3,531z"/>
</g>
<g>
	<path class="st4" d="M52,579c0,0,40.5,19.9,27.9,62.9"/>
	<circle class="st3" cx="50.2" cy="577.9" r="2.1"/>
	<circle class="st5" cx="63.2" cy="575.4" r="3.6"/>
	<circle class="st5" cx="50.2" cy="594.7" r="4.8"/>
	<path class="st4" d="M72.4,596.5c0,0-6.6,5.8-18.1,0.7"/>
	<path class="st4" d="M67.8,590.9c0,0,3.2-6.3-2.4-12.8"/>
	<path class="st4" d="M76.6,603c0,0,5.2-3.3,6.5-12.4"/>
	<circle class="st3" cx="83.4" cy="588.9" r="1.8"/>
</g>
<g>
	<path class="st4" d="M132.6,419.3c32.6,26.4,60.9,89.4,55.3,136.5"/>
	<path class="st5" d="M142.1,397.8c0,0-13.2,7.4-9.6,21.6C132.6,419.4,145.7,414.8,142.1,397.8z"/>
	<path class="st5" d="M109.7,415.6c0,0,9.7,12,23,3.7C132.7,419.3,126.1,409.6,109.7,415.6z"/>
	<path class="st5" d="M149,436.2c0,0-16.3-7.7-37.4,4.1C111.6,440.3,131.5,453.9,149,436.2z"/>
	<path class="st5" d="M160.1,404.9c0,0-19,14-10.8,31.2C149.3,436.2,166.9,431.1,160.1,404.9z"/>
	<path class="st5" d="M162.5,455.9c0,0-1.4-24.2,22.9-37.8C185.4,418,188.1,442.8,162.5,455.9z"/>
	<path class="st5" d="M113.9,466.4c0,0,34.1,11.6,48.7-10.5C162.6,455.8,139.7,448.6,113.9,466.4z"/>
	<path class="st5" d="M176.3,484.3c-2-6.7,3-41.2,35.5-56.3C211.8,427.9,216.1,470.8,176.3,484.3z"/>
	<path class="st5" d="M111,490.7c-1,0.6,38.1,20.6,65.2-6.5C176.2,484.2,149.8,467.2,111,490.7z"/>
</g>
<g>
	<path class="st1" d="M128.6,760.1l8.7,0.2c2.1,0.1,3.7,2.1,3.1,4.2c-0.9,3-3.8,6.4-12.8,6.2L128.6,760.1z"/>
	<path class="st0" d="M127.8,760.1l1.5-2.5c1.3-2.2-0.2-4.9-2.7-4.9l-17.3-0.4c-7-0.2-13.7,2.3-18.9,7l0,0L127.8,760.1z"/>
	<path class="st0" d="M100.1,782.1L100.1,782.1c0,0,4.8,6.4,12.8,6.4c0.6-3.9-0.4-6.6-0.6-7.3c-3.4,0.6-7.1,1-11.2,0.9
		C100.8,782.2,100.5,782.1,100.1,782.1z"/>
	<path class="st5" d="M132.7,760.1l-42.3-1l0,0c0,0,0.8,2.4,0.7,5.6c-0.2,3.7-1.7,8.5-7.1,12.2c4.4,3,9.9,5.2,16.7,5.5
		c0.2,0,0.5,0,0.7,0c3.1,0.1,6-0.2,8.6-0.6C130.3,778.3,132.6,760.4,132.7,760.1z"/>
	<path class="st0" d="M91.7,765.4h-1.5c-0.6,2.4-1.8,5.1-4.4,7.4l5.7,0.1c2.1,0,3.8-1.6,3.9-3.7l0,0
		C95.4,767.2,93.8,765.5,91.7,765.4z"/>
	<path class="st1" d="M90.4,759.2L90.4,759.2l-17.3-0.4c-1.7,0-2.9,1.8-2.1,3.4c2,3.8,6.1,10.1,12.7,14.7c0.2,0.1,0.5,0.1,0.6,0
		c0.5-0.4,1-0.8,1.5-1.2c2.8-2.5,4.2-5.2,4.8-7.8c0.3-1,0.4-2.1,0.4-3C91.2,761.6,90.4,759.2,90.4,759.2z"/>
	<circle cx="78.5" cy="763" r="0.8"/>
</g>
<g>
	<path class="st5" d="M169.1,787.7l-9.5,0.1c-2.3,0-4.1,2.2-3.5,4.5c0.9,3.2,4,7,13.8,7L169.1,787.7z"/>
	<path class="st5" d="M170,787.6l-1.6-2.8c-1.3-2.4,0.4-5.3,3.1-5.3l18.8-0.1c7.6,0,14.9,2.8,20.4,8l0,0L170,787.6z"/>
	<path class="st5" d="M199.6,812.1C199.6,812.2,199.6,812.2,199.6,812.1c0,0-5.3,6.8-14,6.8c-0.5-4.3,0.5-7.2,0.8-7.9
		c3.7,0.8,7.7,1.2,12.1,1.2C199,812.2,199.3,812.2,199.6,812.1z"/>
	<path class="st1" d="M164.7,787.6l46-0.2l0,0c0,0-1,2.6-0.8,6.1c0.1,4,1.6,9.3,7.5,13.4c-4.8,3.2-10.9,5.5-18.3,5.7
		c-0.3,0-0.5,0-0.8,0c-3.4,0-6.5-0.3-9.4-0.9C166.9,807.4,164.7,787.9,164.7,787.6z"/>
	<path class="st5" d="M209.1,794.2h1.6c0.6,2.7,1.9,5.6,4.6,8.2h-6.2c-2.3,0-4.1-1.8-4.1-4.1l0,0C205,796,206.8,794.2,209.1,794.2z"
		/>
	<path class="st0" d="M210.7,787.4L210.7,787.4l18.8-0.1c1.9,0,3.1,2,2.2,3.7c-2.3,4.1-6.8,10.9-14.1,15.7c-0.2,0.1-0.5,0.1-0.7,0
		c-0.6-0.4-1.1-0.9-1.6-1.3c-3-2.7-4.4-5.8-5.1-8.6c-0.3-1.1-0.4-2.3-0.4-3.3C209.7,790,210.7,787.4,210.7,787.4z"/>
	<circle cx="223.5" cy="791.8" r="0.9"/>
</g>
<path class="st6" d="M299.7,730.2c-0.1,0-0.2,0-0.4,0.1C299.4,730.2,299.6,730.2,299.7,730.2z"/>
<path class="st7" d="M299.8,730.2L299.8,730.2C299.8,730.2,299.7,730.2,299.8,730.2C299.7,730.2,299.8,730.2,299.8,730.2z"/>
<path class="st7" d="M384,526.4L384,526.4L384,526.4L384,526.4z"/>
<path class="st7" d="M384,526.5C384.2,528.3,384.2,528.1,384,526.5L384,526.5z"/>
<g>
	<path class="st8" d="M389.8,355.1c-1.1-10.3-12.9-8-16.2-20.9c-1.8-7-4.8-21.2-19.7-19.2c-13.5,1.8-13.7,26.2-18.9,32.5
		c-4.5,5.5-5.9,18.1,12.7,21.4c-1,2.8-2.4,6.3-3.8,10.4c0.5,2.9,1.2,7.8,1.4,13.4c0.2,4.3,7.5,8.1,11.3,0
		c2.6-5.6,7.8-15.1,11.3-17.8c-0.9-1.9-1.9-3.7-2.9-5.5C386.3,368.3,390.3,360.6,389.8,355.1z"/>
	
		<ellipse transform="matrix(0.1602 -0.9871 0.9871 0.1602 -248.7809 847.7255)" class="st9" cx="373.8" cy="570.1" rx="52.5" ry="52.5"/>
	<circle class="st10" cx="330" cy="551.5" r="52.5"/>
	<path class="st0" d="M325.1,476.6c0,0-38.6,11.9-48.1,43.2l86.3,39.9c0,0,21.4-27.9,50.4-23.8c0,0-2.4-22.7-15.6-35L325.1,476.6z"
		/>
	<g>
		<path class="st8" d="M326,414.9c0,0,2.6,1.4,6.2,0.7c3.6-0.7,6.8-21.9,6.8-21.9S327,408.3,326,414.9z"/>
		<path class="st8" d="M331.1,424.5L331.1,424.5c-2.3,0.2-4.3-0.1-5.8-0.5c-0.4-0.1-0.8-0.3-1.1-0.6c-1,2.8-10,27.9-10.4,45.2
			c-0.4,17.7,3.6,27.7,16.1,25.3c9.6-1.9,3.3-18,1.4-29.9C329.1,450.7,329.4,433.8,331.1,424.5z"/>
		<path class="st8" d="M326,414.9c0,0-1.9,2.6-2.6,6c-0.2,1,0.2,1.9,0.8,2.5c0.3,0.3,0.7,0.5,1.1,0.6c1.4,0.4,3.5,0.7,5.8,0.5
			c0.3,0,0.5,0,0.8-0.1l0.3-8.8C328.5,416.2,326,414.9,326,414.9z"/>
	</g>
	<path class="st1" d="M356.6,392.8c-3.8,8.1-11.1,4.3-11.3,0c-0.3-5.6-0.9-10.5-1.4-13.4c-9.7,27.1-26.5,79.2-18.8,97.2l73.1,24.2
		c-1.4-11.6-6.8-91-30.2-125.7C364.4,377.7,359.3,387.3,356.6,392.8z"/>
	<g>
		<path class="st10" d="M379.4,417.5c0.5-13.2-3.9-22.3-8.2-22.1c-8.3,0.3-8.6,22.1-8.6,22.1C370.7,415.8,379.4,417.5,379.4,417.5z"
			/>
		<path class="st10" d="M377.8,428.5c-1.9,1.9-4.5,3-7.4,2.7c-0.2,0-0.5,0-0.7-0.1c-2-0.2-3.7-1.1-5.1-2.3c0,0,0,0-0.1,0.1
			c0,0-10.6,46.3-19.7,58.8c-9.2,12.5,6,17.7,15.2,14.8c9.1-2.9,14.7-22.5,17.1-40.4C379.8,442,377.8,428.5,377.8,428.5L377.8,428.5
			z"/>
		<path class="st10" d="M380.4,420.9c-0.2-1.2-0.5-2.4-1-3.4c0,0-8.6-1.7-16.8,0c0,0-0.5,1.1-0.8,2.7c-0.6,3.3,0.6,6.5,2.9,8.6
			c1.4,1.2,3.1,2.1,5.1,2.3c0.2,0,0.5,0.1,0.7,0.1c2.9,0.3,5.5-0.9,7.4-2.7C379.7,426.6,380.8,423.8,380.4,420.9z"/>
	</g>
	<path class="st5" d="M335.5,428.9c0.4,0,6.5,3.6,21.2,2c0,0,3.6,30.5-12.5,28.7C329.6,457.9,335.5,428.9,335.5,428.9z"/>
	<path class="st5" d="M278.7,520.5c0,0-15.4,13.8-14.6,38.8l83.2,42.3c0,0,2-27,16-42.1L278.7,520.5z"/>
	<path class="st4" d="M304.9,532.6c0,0,4.7-19.3,25.7-32.3"/>
	<path class="st4" d="M307.3,533.8c0,0-12.7,12.7-14.3,40.3"/>
	<ellipse transform="matrix(2.922047e-02 -0.9996 0.9996 2.922047e-02 -4.8365 683.1441)" cx="349.3" cy="344.1" rx="2.5" ry="1"/>
	<ellipse transform="matrix(2.922047e-02 -0.9996 0.9996 2.922047e-02 1.2023 689.7266)" cx="355.7" cy="344.2" rx="2.5" ry="1"/>
	<g>
		<g>
			
				<rect x="342.5" y="421.7" transform="matrix(0.2255 -0.9742 0.9742 0.2255 -203.4046 709.6969)" class="st5" width="4.4" height="122.1"/>
		</g>
		<path class="st1" d="M391.3,499.4l17-10.4l12.5,33.9l-5.4,4.7C415.4,527.6,399.2,519.7,391.3,499.4z"/>
		<circle class="st5" cx="406.5" cy="497.8" r="1.3"/>
	</g>
</g>
<path class="st1" d="M420.9,174L420.9,174l0.3,0.3c4,4.4,0.9,11.4-4.9,11.5h-0.5l0.5,1.2c2.2,5.3-2.6,10.8-8.1,9.3l-1.3-0.4l0.3,1.9
	c0.9,5.6-5,9.8-10,7.1l-1.7-0.9l-0.1,2.3c-0.2,5.6-6.5,8.6-11,5.3l-1.9-1.4l-0.4,2.5c-1,5.4-7.6,7.6-11.6,3.7l-1.8-1.8l-0.8,2.5
	c-1.6,5.3-8.5,6.6-11.9,2.3l-1.7-2l-1.1,2.5c-2.2,5-9.1,5.6-12.1,1l-1.5-2.3l-1.3,2.4c-2.7,4.8-9.6,4.6-12.1-0.2l-1.2-2.4l-1.6,2.2
	c-3.2,4.5-10,3.6-12-1.5l-1-2.5l-1.7,2c-3.6,4.1-10.4,2.6-11.8-2.8l-0.7-2.5l-1.9,1.7c-4.1,3.7-10.7,1.3-11.4-4.2l-0.3-2.5l-1.9,1.3
	c-4.6,3.2-10.8-0.2-10.8-5.7v-2.3l-1.8,0.8c-5.1,2.4-10.8-2-9.7-7.5l0.4-1.9l-1.3,0.3c-5.6,1.3-10.2-4.4-7.8-9.6l0.6-1.2h-0.5
	c-5.9-0.4-8.6-7.5-4.5-11.7l0.3-0.3l0,0c-5.4-2.5-5.2-10.2,0.2-12.6l0,0l-0.3-0.3c-4-4.4-0.9-11.4,4.9-11.5h0.5l-0.5-1.2
	c-2.2-5.3,2.6-10.8,8.1-9.3l1.3,0.4l-0.3-1.9c-0.9-5.6,5-9.8,10-7.1l1.7,0.9l0.1-2.3c0.2-5.6,6.5-8.6,11-5.3l1.9,1.4l0.4-2.5
	c1-5.4,7.6-7.6,11.6-3.7l1.8,1.8v-0.1c1.9-6.3,10.1-7.9,14.2-2.7l0.1,0.1l0.1-0.2c2.6-6,10.9-6.7,14.4-1.2l0.1,0.2l0.1-0.2
	c3.2-5.7,11.5-5.5,14.4,0.3l0.1,0.2l0.1-0.2c3.8-5.4,12-4.4,14.3,1.8l0.1,0.2l0.1-0.1c4.3-4.9,12.4-3,14.1,3.3v0.1l0,0
	c4.9-4.4,12.7-1.6,13.6,5l0,0l1.9-1.3c4.6-3.2,10.8,0.2,10.8,5.7v2.3l1.8-0.8c5.1-2.4,10.8,2,9.7,7.5l-0.4,1.9l1.3-0.3
	c5.6-1.3,10.2,4.4,7.8,9.6l-0.6,1.2h0.5c5.9,0.4,8.6,7.5,4.5,11.7l-0.3,0.3l0,0C426.5,163.9,426.4,171.7,420.9,174z"/>
<g>
	<path class="st2" d="M429.4,624.9c4.2-2.1,7.2-5.6,4.1-9.1l-0.2-0.3l0,0c4.4-1.8,4.6-8,0.3-10l0.2-0.2c3.3-3.3,1.2-9-3.4-9.4H430
		l0.5-0.9c2-4.1-1.6-8.8-6.1-7.8l-1,0.2l0.3-1.5c0.9-4.4-3.5-8-7.6-6.1l-1.4,0.6v-1.8c0.1-4.4-4.8-7.2-8.5-4.7l-1.5,1
		c-0.6-5.2-6.9-7.6-10.8-4.1l0,0v-0.1c-1.3-5.1-7.7-6.7-11.2-2.8l-0.1,0.1l-0.1-0.2c-1.8-4.9-8.4-5.8-11.4-1.6l-0.1,0.1l-0.1-0.2
		c-2.3-4.7-8.9-4.9-11.5-0.4l-0.1,0.2l-0.1-0.2c-2.8-4.4-9.4-4-11.5,0.8l-0.1,0.2l-0.1-0.1c-3.2-4.1-9.8-3-11.4,2v0.1l-1.4-1.4
		c-3.1-3.1-8.5-1.5-9.3,2.8l-0.4,2l-1.5-1.1c-3.5-2.7-8.6-0.3-8.8,4.1l-0.1,1.8l-1.4-0.7c-4-2.1-8.7,1.1-8,5.6l0.2,1.5l-1-0.3
		c-4.4-1.3-8.3,3.1-6.6,7.3l0.4,1h-0.4c-4.7,0-7.2,5.6-4.1,9.1l0.2,0.3l0,0c-4.4,1.8-4.6,8-0.3,10l-0.2,0.2
		c-3.3,3.3-1.4,7.9,2.6,10.4c9.6,6,29.8,12.8,66.8,14.1C398.4,636.7,420,629.6,429.4,624.9z"/>
</g>
<path class="st0" d="M224.2,121.8L224.2,121.8c1.9-4.7-2.4-12-9.6-8.6l0,0l-0.8,0.1c2.3-5.1-2.7-10.5-7.9-8.5l0,0l0,0
	c1.2-5.6-5-9.9-9.8-6.9l0,0v-0.3c0.1-5.7-6.5-8.8-10.8-5.1l-0.2,0.2l-0.1-0.5c-0.7-5.6-7.7-7.7-11.4-3.4l-0.3,0.4l-0.2-0.6
	c-1.5-5.4-8.7-6.6-11.8-1.8l-0.3,0.5l-0.6-1.5c-2.1-5.1-9.1-5.4-11.7-0.7l-1,1.9l-1.7-2.5c-3-4.4-9.7-3.6-11.5,1.4l-1,2.8l-1.9-2.1
	c-3.6-3.9-10.2-2.1-11.2,3.2l-0.5,2.8l-2.1-1.6c-4.3-3.3-10.4-0.2-10.5,5.1v2.6l-2-0.9c-4.9-2.3-10.4,2-9.1,7.4l0.5,2.1l0,0
	c-9.4-1.8-11.9,5.9-7.4,10.7l0,0l0,0c-8.1,0.9-8.4,8.8-2.9,12.2l0,0l0,0c-4.3,2.1-3.5,8.5,1.2,9.5l0,0l-0.3,0.3
	c-3.5,3.3-0.8,9.1,3.9,8.7h0.4l-0.5,0.9c-2.4,4,1.5,8.9,5.9,7.4l1-0.3l-0.5,1.4c-1.5,4.4,3.2,8.3,7.2,6l1.3-0.7l-0.3,1.8
	c-0.7,4.6,4.5,7.6,8.1,4.7l1.4-1.1v2c-0.1,4.6,5.5,6.9,8.7,3.5l1.4-1.4l0,0c-1.2,5.9,4.3,11,10.1,9.5h0.2l0,0l0,0
	c-5.6,4.4-4.1,13.3,2.7,15.6l0,0l-0.3,0.5c-3.5,6.1,0.9,13.6,7.9,13.5h0.6l-0.3,1.3c-1.5,6.7,4.7,12.5,11.3,10.6l1.3-0.4l0,0
	c0.1,7.5,8.2,12.2,14.8,8.7l0,0l0.1,0.3c1.6,7.3,10.3,10.4,16.1,5.8l0.2-0.2l0.2,0.4c2.7,6.9,11.8,8.6,16.8,3.1l0.3-0.3l0.2,0.4
	c3.8,6.4,12.9,6.7,17,0.5l0.3-0.4l0.3,0.3c4.7,5.8,13.8,4.7,16.9-2.1l0.2-0.4l1.1,1c5.2,4.7,13.4,2.2,15.3-4.5l0.4-1.4l1,0.6
	c6,3.7,13.7-0.2,14.2-7.2l0.1-1.2l0.7,0.3c6.7,2.4,13.5-3.3,12.4-10.3l-0.1-0.7l0,0c7.2,0.5,12.3-7,9-13.5l0,0l1-0.3
	c6.4-1.8,8.3-10,3.3-14.4l-0.8-0.7l0,0c5.5-4.1,4.1-12.6-2.4-14.8l0,0l0.3-0.5c3.6-5.7-0.5-13.1-7.2-13h-0.6l0,0
	c1.9-6.9-4.4-13.2-11.2-11.2l0,0v-0.5c0.3-7-7.1-11.7-13.3-8.4l-0.4,0.2l-0.1-0.7c-1-6.9-9.1-10.1-14.6-5.9l-0.6,0.5l-0.3-0.8
	c-2.1-6.6-10.5-8.5-15.3-3.5l-0.6,0.6V128C233.3,122.8,228.4,119.7,224.2,121.8z"/>
<path class="st1" d="M636.8,176L636.8,176l0.3,0.3c4,4.4,0.9,11.3-4.9,11.5h-0.5l0.5,1.2c2.2,5.3-2.6,10.8-8.1,9.3l-1.3-0.4l0.3,1.9
	c0.9,5.6-5,9.7-10,7.1l-1.7-0.9l-0.1,2.3c-0.2,5.6-6.5,8.6-11,5.3l-1.9-1.4l-0.4,2.5c-1,5.4-7.6,7.6-11.6,3.7l-1.8-1.8l-0.8,2.5
	c-1.6,5.3-8.5,6.6-11.9,2.3l-1.7-2l-1.1,2.5c-2.2,5-9.1,5.6-12.1,1l-1.5-2.3l-1.3,2.4c-2.7,4.8-9.6,4.6-12.1-0.2l-1.2-2.4l-1.6,2.2
	c-3.2,4.5-10,3.6-12-1.5l-1-2.5l-1.7,2c-3.6,4.1-10.4,2.6-11.8-2.8l-0.7-2.5l-1.9,1.7c-4.1,3.7-10.7,1.3-11.4-4.2l-0.3-2.5l-1.9,1.3
	c-4.6,3.2-10.8-0.2-10.8-5.7v-2.3l-1.8,0.8c-5.1,2.4-10.8-2-9.7-7.5l0.4-1.9l-1.3,0.3c-5.6,1.3-10.2-4.4-7.8-9.6l0.6-1.2h-0.5
	c-5.9-0.4-8.6-7.5-4.5-11.7l0.3-0.3l0,0c-5.4-2.5-5.2-10.2,0.2-12.6l0,0l-0.3-0.3c-4-4.4-0.9-11.3,4.9-11.5h0.5l-0.5-1.2
	c-2.2-5.3,2.6-10.8,8.1-9.3l1.3,0.4l-0.3-1.9c-0.9-5.6,5-9.7,10-7.1l1.7,0.9l0.1-2.3c0.2-5.6,6.5-8.6,11-5.3l1.9,1.4l0.4-2.5
	c1-5.4,7.6-7.6,11.6-3.7l1.8,1.8v-0.1c1.9-6.3,10.1-7.8,14.2-2.7l0.1,0.1l0.1-0.2c2.6-6,10.9-6.7,14.4-1.2l0.1,0.2l0.1-0.2
	c3.2-5.7,11.5-5.5,14.4,0.3l0.1,0.2l0.1-0.2c3.8-5.4,12-4.4,14.3,1.8l0.1,0.2l0.1-0.1c4.3-4.9,12.4-3,14.1,3.3v0.1l0,0
	c4.9-4.4,12.7-1.6,13.6,5l0,0l1.9-1.3c4.6-3.2,10.8,0.2,10.8,5.7v2.3l1.8-0.8c5.1-2.4,10.8,2,9.7,7.5l-0.4,1.9l1.3-0.3
	c5.6-1.3,10.2,4.4,7.8,9.6l-0.6,1.2h0.5c5.9,0.4,8.6,7.5,4.5,11.7l-0.3,0.3l0,0C642.5,165.9,642.3,173.7,636.8,176z"/>
<path class="st2" d="M254.6,711.7c4.9,11.9-54.1,15-82.1,14.2c-75.4-2.2-143.6-18.6-139.7-29.7c3.1-8.7,22.2,9.5,100.6,16.3
	C231.1,720.9,251.1,703.1,254.6,711.7z"/>
<g>
	<path class="st0" d="M42.2,605.6c7.9-3.1,18.8,0.7,22,14.3c5.6,23.5,19,14,27,29.5c6.1,11.7-1.3,26.8-13.1,32
		c-19.4,8.5-36.6,1.2-40-15.4c-3.4-16.9,8.2-15.3-2.9-34.8C29.1,620.5,33.1,609.2,42.2,605.6z"/>
	<path class="st4" d="M49.2,625c3.1,16.7,14,54.7,39.4,68.4"/>
	<path class="st4" d="M44.4,630.4c3.9,6,11.3,3.3,11.5-3.5"/>
	<path class="st4" d="M50.1,653.6c5.4,7.9,15.5,4.2,14.9-5.6"/>
</g>
<path class="st0" d="M121.4,830.4c0,0,9.3-8.8,25.9-6.3c0,0,2.2,5.7,0.6,10.2C145.6,840.6,121.4,830.4,121.4,830.4z"/>
<path class="st0" d="M145.3,860.4c0,0,6.2,2.7,12.2-2.4c0,0-1.9-2.1-6-2.2C147.4,855.6,145.3,860.4,145.3,860.4z"/>
<path class="st0" d="M127.4,863.3C127.3,863.3,127.3,863.3,127.4,863.3c0,0,4.7,6.3,12.6,6.4c0.6-3.9-0.3-6.5-0.6-7.2
	c-3.4,0.6-7,0.9-11,0.8C128,863.3,127.7,863.3,127.4,863.3z"/>
<g>
	<path class="st1" d="M162.8,848.1l2-2.1c0.8-0.9,0.2-2.2-1.1-2.2h-2c-2.7,0-5.3-1.2-6.9-3.2c-4.5-5.7-12-12.1-23-12.1
		c-4,0-7.5,0.7-10.5,1.7c2.6,4.4,4.1,9.5,4.1,14.9c0,6-1.8,11.6-4.9,16.3c3.2,1.6,7,2.6,11.3,2.6c11,0,18.7-5.1,23.3-9.4
		c1.6-1.5,3.8-2.3,6.1-2.3h2.5c1.2,0,1.9-1.3,1.1-2.2L162.8,848.1z"/>
</g>
<path class="st5" d="M125.2,842.8c0,0,6.8-3.3,14.4,0.6c0,0-6.6,9.5-15.6,6.6L125.2,842.8z"/>
<path class="st5" d="M547.9,366.2c-11.8-64.1-34-129.4-71.5-187.3l-66.9-2c22,47.8,33.1,98.6,35.3,148.9c-0.8-0.4-1.6-0.7-2.4-1.1
	c-7.4-3.4-14.6-7.1-21.6-11.3c-8.6-5.2-16.8-11.1-24.5-17.7l15.2-60.1l-2.6-1l-24.3,50.1c-0.7-0.7-1.3-1.3-2-2
	c-5.7-6-11-12.4-15.9-19.1c-4.9-6.8-9.4-13.9-13.5-21.2c-8.2-14.7-14.6-30.6-19.7-47l-6.3,1.5c3.2,17.3,7.8,34.4,14.6,50.9
	c3.4,8.3,7.2,16.4,11.6,24.2c4.4,7.9,9.3,15.5,14.8,22.8c10.9,14.6,23.8,27.8,38.3,39.2c7.2,5.7,14.9,10.9,22.8,15.7
	c5.2,3.1,10.5,6,15.9,8.7c-4.4,133.6-70.4,258-163.2,306.1l251.5,7.4c12.2-28.9,24.4-89.9,25.8-164C560,464,557,415.4,547.9,366.2z"
	/>
<g>
	<g>
		<path class="st5" d="M200.8,566.6l-8,4.3l-7.7-4.7l-3.3,4.4c0,0,6.9,5.8,6.5,19.1l3.9,0.1l3.9,0.1c0.4-13.2,7.6-18.7,7.6-18.7
			L200.8,566.6z"/>
		<line class="st4" x1="192.6" y1="577.7" x2="192.7" y2="571.8"/>
		<path class="st1" d="M212.3,555.7c0.2-0.7,0.4-1.5,0.4-2.3c0.1-5.1-3.9-9.4-9-9.5c-0.5,0-0.9,0-1.3,0.1c-0.9-4.1-4.4-7.2-8.8-7.3
			c-4.3-0.1-8.1,2.8-9.2,6.8c-0.3,0-0.7-0.1-1.1-0.1c-5.1-0.1-9.4,3.9-9.5,9c0,0.8,0.1,1.5,0.2,2.2c-2.9,1.1-5.2,3.7-5.7,7
			c-0.9,5,2.5,9.8,7.5,10.7c3.6,0.6,7.1-0.9,9.1-3.8c1.6,2.5,4.4,4.2,7.6,4.3c3.2,0.1,6.1-1.5,7.8-3.9c1.6,2.5,4.4,4.2,7.6,4.3
			c5.1,0.1,9.4-3.9,9.5-9C217.5,560.5,215.4,557.3,212.3,555.7z"/>
	</g>
	<path class="st2" d="M166.6,580.6c1.4-6.2,8.2-6.8,11.1-4.1c3.5,3.2,3.6,8.4,12.5,9.5c5.6,0.6,3.6,7.8-6.8,7.6
		C170.4,593.3,165.5,585.5,166.6,580.6z"/>
	<path class="st2" d="M218.4,581.6c-1.2-6.2-7.9-7.1-11-4.6c-3.7,3.1-4,8.3-12.9,9c-5.6,0.4-3.9,7.6,6.5,7.9
		C214.1,594.2,219.3,586.5,218.4,581.6z"/>
</g>
<g>
	<g>
		<path class="st5" d="M261.5,559.2l-8,4.3l-7.7-4.7l-3.3,4.4c0,0,6.9,5.8,6.5,19.1l3.9,0.1l3.9,0.1c0.4-13.2,7.6-18.7,7.6-18.7
			L261.5,559.2z"/>
		<line class="st4" x1="253.2" y1="570.3" x2="253.4" y2="564.4"/>
		<path class="st1" d="M272.9,548.3c0.2-0.7,0.4-1.5,0.4-2.3c0.1-5.1-3.9-9.4-9-9.5c-0.5,0-0.9,0-1.3,0.1c-0.9-4.1-4.4-7.2-8.8-7.3
			c-4.3-0.1-8.1,2.8-9.2,6.8c-0.3,0-0.7-0.1-1.1-0.1c-5.1-0.1-9.4,3.9-9.5,9c0,0.8,0.1,1.5,0.2,2.2c-2.9,1.1-5.2,3.7-5.7,7
			c-0.9,5,2.5,9.8,7.5,10.7c3.6,0.6,7.1-0.9,9.1-3.8c1.6,2.5,4.4,4.2,7.6,4.3c3.2,0.1,6.1-1.5,7.8-3.9c1.6,2.5,4.4,4.2,7.6,4.3
			c5.1,0.1,9.4-3.9,9.5-9C278.2,553.1,276.1,549.9,272.9,548.3z"/>
	</g>
	<path class="st2" d="M227.3,573.2c1.4-6.2,8.2-6.8,11.1-4.1c3.5,3.2,3.6,8.4,12.5,9.5c5.6,0.6,3.6,7.8-6.8,7.6
		C231,586,226.2,578.1,227.3,573.2z"/>
	<path class="st2" d="M279.1,574.2c-1.2-6.2-7.9-7.1-11-4.6c-3.7,3.1-4,8.3-12.9,9c-5.6,0.4-3.9,7.6,6.5,7.9
		C274.8,586.8,280,579.2,279.1,574.2z"/>
</g>
<g>
	<g>
		<path class="st5" d="M168.5,611.7l-8,4.3l-7.7-4.7l-3.3,4.4c0,0,6.9,5.8,6.5,19.1l3.9,0.1l3.9,0.1c0.4-13.2,7.6-18.7,7.6-18.7
			L168.5,611.7z"/>
		<line class="st4" x1="160.2" y1="622.7" x2="160.3" y2="616.8"/>
		<path class="st1" d="M179.9,600.7c0.2-0.7,0.4-1.5,0.4-2.3c0.1-5.1-3.9-9.4-9-9.5c-0.5,0-0.9,0-1.3,0.1c-0.9-4.1-4.4-7.2-8.8-7.3
			c-4.3-0.1-8.1,2.8-9.2,6.8c-0.3,0-0.7-0.1-1.1-0.1c-5.1-0.1-9.4,3.9-9.5,9c0,0.8,0.1,1.5,0.2,2.2c-2.9,1.1-5.2,3.7-5.7,7
			c-0.9,5,2.5,9.8,7.5,10.7c3.6,0.6,7.1-0.9,9.1-3.8c1.6,2.5,4.4,4.2,7.6,4.3c3.2,0.1,6.1-1.5,7.8-3.9c1.6,2.5,4.4,4.2,7.6,4.3
			c5.1,0.1,9.4-3.9,9.5-9C185.2,605.6,183,602.3,179.9,600.7z"/>
	</g>
	<path class="st2" d="M134.2,625.6c1.4-6.2,8.2-6.8,11.1-4.1c3.5,3.2,3.6,8.4,12.5,9.5c5.6,0.6,3.6,7.8-6.8,7.6
		C138,638.4,133.1,630.5,134.2,625.6z"/>
	<path class="st2" d="M186,626.7c-1.2-6.2-7.9-7.1-11-4.6c-3.7,3.1-4,8.3-12.9,9c-5.6,0.4-3.9,7.6,6.5,7.9
		C181.8,639.3,186.9,631.6,186,626.7z"/>
</g>
<g>
	<g>
		<path class="st5" d="M233.6,607.6l-8,4.3l-7.7-4.7l-3.3,4.4c0,0,6.9,5.8,6.5,19.1l3.9,0.1l3.9,0.1c0.4-13.2,7.6-18.7,7.6-18.7
			L233.6,607.6z"/>
		<line class="st4" x1="225.3" y1="618.6" x2="225.4" y2="612.8"/>
		<path class="st1" d="M245,596.7c0.2-0.7,0.4-1.5,0.4-2.3c0.1-5.1-3.9-9.4-9-9.5c-0.5,0-0.9,0-1.3,0.1c-0.9-4.1-4.4-7.2-8.8-7.3
			c-4.3-0.1-8.1,2.8-9.2,6.8c-0.3,0-0.7-0.1-1.1-0.1c-5.1-0.1-9.4,3.9-9.5,9c0,0.8,0.1,1.5,0.2,2.2c-2.9,1.1-5.2,3.7-5.7,7
			c-0.9,5,2.5,9.8,7.5,10.7c3.6,0.6,7.1-0.9,9.1-3.8c1.6,2.5,4.4,4.2,7.6,4.3c3.2,0.1,6.1-1.5,7.8-3.9c1.6,2.5,4.4,4.2,7.6,4.3
			c5.1,0.1,9.4-3.9,9.5-9C250.2,601.5,248.1,598.2,245,596.7z"/>
	</g>
	<path class="st2" d="M199.3,621.6c1.4-6.2,8.2-6.8,11.1-4.1c3.5,3.2,3.6,8.4,12.5,9.5c5.6,0.6,3.6,7.8-6.8,7.6
		C203.1,634.3,198.2,626.4,199.3,621.6z"/>
	<path class="st2" d="M251.1,622.6c-1.2-6.2-7.9-7.1-11-4.6c-3.7,3.1-4,8.3-12.9,9c-5.6,0.4-3.9,7.6,6.5,7.9
		C246.8,635.2,252,627.5,251.1,622.6z"/>
</g>
<g>
	<path class="st3" d="M258.1,693.3c4.2-2.1,7.1-5.6,4-9l-0.2-0.3l0,0c4.4-1.8,4.5-7.9,0.3-9.9l0.2-0.2c3.3-3.3,1.2-8.9-3.5-9.3h-0.4
		l0.5-0.9c2-4.1-1.6-8.7-6.1-7.7l-1,0.2l0.3-1.5c0.9-4.4-3.5-7.9-7.6-6l-1.4,0.6v-1.8c0.1-4.4-4.8-7.1-8.5-4.6l-1.5,1
		c-0.7-5.2-6.8-7.5-10.7-4l0,0v-0.1c-1.3-5-7.7-6.6-11.1-2.7l-0.1,0.1l-0.1-0.2c-1.8-4.8-8.3-5.7-11.3-1.5l-0.1,0.1l-0.1-0.2
		c-2.3-4.6-8.8-4.8-11.4-0.3l-0.1,0.2l-0.1-0.1c-2.8-4.4-9.3-3.9-11.4,0.8l-0.1,0.2l-0.1-0.1c-3.2-4.1-9.7-2.9-11.2,2.1v0.1
		l-1.4-1.4c-3.1-3.1-8.4-1.4-9.2,2.9l-0.4,1.9l-1.5-1.1c-3.5-2.7-8.5-0.3-8.7,4.1l-0.1,1.8l-1.4-0.7c-3.9-2.1-8.6,1.2-7.9,5.6
		l0.2,1.5l-1-0.3c-4.4-1.2-8.2,3.1-6.5,7.3l0.4,1h-0.4c-4.7,0.1-7.1,5.6-4,9l0.2,0.3l0,0c-4.4,1.8-4.5,7.9-0.3,9.9l-0.2,0.2
		c-3.3,3.3-1.4,7.8,2.6,10.3c9.6,5.9,29.6,12.6,66.2,13.6C227.5,705.1,248.9,698,258.1,693.3z"/>
</g>
<g>
	<path class="st5" d="M110.8,611.7c10.6-0.9,19.1,8.5,19.2,26.3c0.1,18,9.7,15.6,10.2,30s-13.1,22.8-26.8,22.8s-29.7-6.5-29.2-23.2
		c0.4-12.8,8.6-16.5,8.9-29.1S97.3,612.8,110.8,611.7z"/>
	<path class="st4" d="M111.6,631.7c0,0,9.6,38.3-3.5,69.8"/>
	<path class="st4" d="M107,645.3c3.8,3.5,9.9,3.2,14.1-1.2"/>
	<path class="st4" d="M102.5,667.9c5,5.8,15.1,7.7,24.3-0.8"/>
</g>
<path class="st5" d="M121.4,830.2c-7.5,2.6-12.2,7.6-14.7,10.8c-1.5,2-1.6,4.5-0.4,6.6c2.3,3.9,6.9,10.3,14.2,13.8
	c3.1-4.8,4.9-10.3,4.9-16.3C125.4,839.8,124,834.7,121.4,830.2z"/>
<circle cx="114.2" cy="843.3" r="0.8"/>
<g>
	<path class="st4" d="M540,680c18.9-54.8,50.7-85.7,69.4-99.6"/>
	<path class="st4" d="M620.8,587.9c-3.8,3.3-11.9,8-23.4,2.1"/>
	<path class="st4" d="M568.4,623.6c0,0-11.2-18.1,0.6-38.7"/>
	<circle class="st5" cx="625" cy="582.5" r="6.9"/>
	<circle class="st3" cx="611.7" cy="578.4" r="3"/>
	<path class="st4" d="M587.6,599.9c0,0-3.5-10.5,2.2-22.1"/>
	<circle class="st5" cx="591.3" cy="572.2" r="5.9"/>
	<circle class="st3" cx="570.7" cy="581.3" r="3.8"/>
	<path class="st4" d="M604.2,622.7c0,0-21.8,18.5-42.8,11.3"/>
	<circle class="st5" cx="610.6" cy="618.2" r="8"/>
	<path class="st4" d="M590.8,631c0,0-2.6-8.8,3.7-17.3"/>
	<circle class="st3" cx="595.5" cy="612.1" r="2.4"/>
	<path class="st4" d="M563.9,600c0,0-7.3-3.2-8-12.9"/>
	<circle class="st5" cx="555.6" cy="584.1" r="3"/>
</g>
<g>
	<path class="st3" d="M373.2,662.3c3.6-1.8,6.2-4.8,3.5-7.9l-0.2-0.2l0,0c3.8-1.5,4-6.9,0.3-8.7l0.2-0.2c2.9-2.9,1.1-7.8-3-8.1h-0.3
		l0.4-0.8c1.7-3.6-1.4-7.6-5.3-6.7l-0.9,0.2l0.3-1.3c0.8-3.8-3.1-6.9-6.6-5.3l-1.2,0.6v-1.6c0.1-3.9-4.2-6.2-7.4-4.1l-1.3,0.9
		c-0.5-4.5-6-6.6-9.4-3.6l0,0v-0.1c-1.1-4.4-6.7-5.8-9.7-2.4l-0.1,0.1l-0.1-0.1c-1.6-4.3-7.3-5-9.9-1.4l-0.1,0.1l-0.1-0.2
		c-2-4.1-7.7-4.3-10-0.3l-0.1,0.2l-0.1-0.1c-2.4-3.8-8.1-3.5-10,0.7l-0.1,0.1l-0.1-0.1c-2.8-3.6-8.5-2.6-9.9,1.8v0.1l-1.2-1.2
		c-2.7-2.7-7.3-1.3-8.1,2.5l-0.3,1.7l-1.3-1c-3.1-2.4-7.5-0.3-7.7,3.6l-0.1,1.6l-1.2-0.6c-3.4-1.9-7.5,1-7,4.9l0.2,1.3l-0.9-0.3
		c-3.8-1.1-7.2,2.7-5.7,6.4l0.3,0.8h-0.3c-4.1,0-6.2,4.8-3.5,7.9l0.2,0.2l0,0c-3.8,1.5-4,6.9-0.3,8.7l-0.2,0.2
		c-2.9,2.9-1.2,6.9,2.2,9c8.4,5.2,25.9,11.1,57.9,12.2C346.3,672.5,365,666.3,373.2,662.3z"/>
</g>
<g>
	<path class="st0" d="M527.6,514.9c0,0-24.5-19.1-3.8-62.8C523.8,452,546.7,490.3,527.6,514.9"/>
	<path class="st0" d="M527.6,514.9c0,0,10.6,35.6,67.8,26.4C595.4,541.3,556.9,506.4,527.6,514.9"/>
	<path class="st4" d="M586.8,472.8c-108.9,51.7-130.3,177.9-130.3,177.9"/>
	<path class="st0" d="M591.7,451.4c0,0-11,10.3-5.7,21.9C586,473.3,595.8,467.8,591.7,451.4z"/>
	<path class="st0" d="M586,473.3c0,0,3.3,12.3,21.4,9.6C607.4,482.9,596.7,470.3,586,473.3z"/>
	<path class="st0" d="M556.3,490.5c0,0,8.4,19.1,44,14.6C600.3,505,575.5,482.4,556.3,490.5z"/>
	<path class="st0" d="M557.2,446c0,0-15.6,30.5-0.9,44.4C556.3,490.5,569.1,469.3,557.2,446z"/>
	<path class="st0" d="M481.6,478.9c0,0-17.2,48.2,16.6,72.1C498.2,551,513.7,516.3,481.6,478.9z"/>
	<path class="st0" d="M582,571.7c0,0-62.3,10.3-83.8-19.9C498.2,551.9,522.3,528.4,582,571.7z"/>
	<path class="st0" d="M445.4,511.7c0,0-9.4,68.6,28.3,84.6C473.8,596.3,492.5,560,445.4,511.7z"/>
	<path class="st0" d="M473.8,596.3c0,0,32.5,37.6,107.9,12.3C581.7,608.6,505.7,567.4,473.8,596.3z"/>
</g>
<g>
	<g>
		<g>
			
				<rect x="288" y="602.9" transform="matrix(2.897277e-02 -0.9996 0.9996 2.897277e-02 -316.1653 883.1224)" class="st1" width="17" height="2.7"/>
		</g>
		<g>
			
				<rect x="290.6" y="596.4" transform="matrix(0.9939 -0.1103 0.1103 0.9939 -64.883 35.8909)" class="st1" width="2.7" height="15.9"/>
		</g>
		<g>
			
				<rect x="292.8" y="603.3" transform="matrix(0.1279 -0.9918 0.9918 0.1279 -337.4348 825.5224)" class="st1" width="15.8" height="2.7"/>
		</g>
		<path class="st5" d="M302.4,611.4c-0.5,6.6-0.6,13.3,0.2,19.8c0.7,6.6,2.3,13,4.6,19.2c2.4,6.2,5.6,12.1,9.6,17.5
			s8.7,10.4,14,14.7l-2.8,3.7c-5.9-4.1-11.4-8.8-16.3-14.3c-4.9-5.4-9-11.6-12.3-18.2c-3.3-6.6-5.7-13.7-7.2-21s-2.2-14.7-2.3-22.1
			L302.4,611.4z"/>
		<line class="st4" x1="295.8" y1="626.7" x2="289.9" y2="633.7"/>
		<line class="st4" x1="299.5" y1="643.9" x2="293.7" y2="650.8"/>
		<line class="st4" x1="306.4" y1="659.2" x2="302.9" y2="667.6"/>
		<line class="st4" x1="299.8" y1="636.2" x2="307.5" y2="641"/>
		<line class="st4" x1="303.5" y1="652.1" x2="312.1" y2="655.1"/>
		<line class="st4" x1="312.7" y1="668.2" x2="321.5" y2="670.5"/>
	</g>
	<g>
		<g>
			
				<rect x="316.1" y="598.4" transform="matrix(2.897277e-02 -0.9996 0.9996 2.897277e-02 -284.3041 906.7601)" class="st1" width="17" height="2.7"/>
		</g>
		<g>
			
				<rect x="318.7" y="591.9" transform="matrix(0.9939 -0.1103 0.1103 0.9939 -64.2159 38.9634)" class="st1" width="2.7" height="15.9"/>
		</g>
		<g>
			
				<rect x="320.9" y="598.8" transform="matrix(0.1279 -0.9918 0.9918 0.1279 -308.4898 849.4665)" class="st1" width="15.8" height="2.7"/>
		</g>
		<path class="st5" d="M330.6,606.8c-0.5,6.6-0.6,13.3,0.2,19.8c0.7,6.6,2.3,13,4.6,19.2c2.4,6.2,5.6,12.1,9.6,17.5
			s8.7,10.4,14,14.7l-2.8,3.7c-5.9-4.1-11.4-8.8-16.3-14.3c-4.9-5.4-9-11.6-12.3-18.2c-3.3-6.6-5.7-13.7-7.2-21s-2.2-14.7-2.3-22.1
			L330.6,606.8z"/>
		<line class="st4" x1="323.9" y1="622.2" x2="318.1" y2="629.1"/>
		<line class="st4" x1="327.7" y1="639.3" x2="321.9" y2="646.3"/>
		<line class="st4" x1="334.6" y1="654.7" x2="331.1" y2="663"/>
		<line class="st4" x1="327.9" y1="631.7" x2="335.7" y2="636.4"/>
		<line class="st4" x1="331.7" y1="647.6" x2="340.2" y2="650.5"/>
		<line class="st4" x1="340.8" y1="663.6" x2="349.6" y2="666"/>
	</g>
	<g>
		<g>
			
				<rect x="345.9" y="595.6" transform="matrix(2.897277e-02 -0.9996 0.9996 2.897277e-02 -252.578 933.9191)" class="st1" width="17" height="2.7"/>
		</g>
		<g>
			
				<rect x="348.5" y="589.1" transform="matrix(0.9939 -0.1103 0.1103 0.9939 -63.7251 42.2326)" class="st1" width="2.7" height="15.9"/>
		</g>
		<g>
			
				<rect x="350.7" y="596.1" transform="matrix(0.1279 -0.9918 0.9918 0.1279 -279.7433 876.6677)" class="st1" width="15.8" height="2.7"/>
		</g>
		<path class="st5" d="M360.4,604.1c-0.5,6.6-0.6,13.3,0.2,19.8c0.7,6.6,2.3,13,4.6,19.2c2.4,6.2,5.6,12.1,9.6,17.5
			s8.7,10.4,14,14.7L386,679c-5.9-4.1-11.4-8.8-16.3-14.3c-4.9-5.4-9-11.6-12.3-18.2c-3.3-6.6-5.7-13.7-7.2-21s-2.2-14.7-2.3-22.1
			L360.4,604.1z"/>
		<line class="st4" x1="353.7" y1="619.4" x2="347.9" y2="626.4"/>
		<line class="st4" x1="357.5" y1="636.6" x2="351.7" y2="643.5"/>
		<line class="st4" x1="364.4" y1="651.9" x2="360.9" y2="660.3"/>
		<line class="st4" x1="357.7" y1="628.9" x2="365.5" y2="633.7"/>
		<line class="st4" x1="361.4" y1="644.9" x2="370" y2="647.8"/>
		<line class="st4" x1="370.6" y1="660.9" x2="379.4" y2="663.2"/>
	</g>
</g>
<path class="st3" d="M318.1,683.9l1.1-0.3l-0.7-1.3c-2.6-4.8,2.2-10.3,7.4-8.3l1.3,0.5l-0.4-1.3c-1.7-5.3,4.2-9.7,8.9-6.7l1.1,0.7
	l-0.1-1.1c-0.5-5.5,6.2-8.6,10.1-4.6l0.8,0.8l0.2-1.1c0.7-5.5,8-7,10.9-2.3l0.6,1l0.4-1c1.9-5.2,9.3-5.2,11.1,0.1l0.3,0.9l0.1-0.2
	c2.9-4.9,10.3-3.3,10.9,2.3v0.2l0,0c3.9-4.1,10.8-0.8,10.1,4.8l0,0l0.1-0.1c4.8-3,10.7,1.7,8.7,7v0.1l0.3-0.1
	c5.3-1.9,10,4.1,6.9,8.8l-0.2,0.2l2.1,0.7c5.4,1.9,5.3,9.4-0.1,11.2c-10.4,3.4-25.5,6.9-42.9,6.9c-21.5,0-37.9-3.3-48.9-6.6
	C312.5,693.5,312.5,685.5,318.1,683.9z"/>
<path class="st2" d="M446.9,703.3c30.4,0,51.6-9.2,51.6-9.2c4.2-0.8,4.6-6.6,0.6-8l0,0l3.8-1.8c3.5-1.7,3-6.8-0.8-7.7l-4.1-1
	l3.5-2.1c3.4-2,2.3-7.1-1.6-7.6l-4.1-0.5l3.1-2.4c3.1-2.4,1.5-7.4-2.5-7.4h-3.9l2.5-2.5c2.8-2.8,0.4-7.6-3.5-7l-3.5,0.5l1.8-2.6
	c2.3-3.3-1-7.6-4.8-6.2l-3,1.1l1.1-2.6c1.6-3.7-2.6-7.3-6-5.1l-2.4,1.5l0.5-2.8c0.7-4-4.2-6.5-7-3.6l-2,2l-0.2-3.2
	c-0.2-4-5.4-5.4-7.6-2l-1.7,2.7l-0.9-3.5c-0.9-3.9-6.3-4.3-7.8-0.6l-1.4,3.3l-1.4-3.3c-1.5-3.7-6.8-3.3-7.8,0.6l-0.9,3.5l-1.7-2.7
	c-2.1-3.4-7.4-2-7.6,2l-0.2,3.2l-2-2c-2.8-2.9-7.7-0.4-7,3.6l0.5,2.8l-2.4-1.5c-3.4-2.2-7.6,1.4-6,5.1l1.1,2.6l-2.9-1.1
	c-3.8-1.4-7.1,3-4.8,6.2l1.8,2.6l-3.5-0.5c-3.9-0.6-6.3,4.2-3.5,7l2.5,2.5h-3.9c-3.9,0-5.6,5-2.5,7.4l3.1,2.4l-4.1,0.5
	c-3.9,0.5-4.9,5.6-1.6,7.6l3.6,2.1l-4.1,1c-3.8,0.9-4.3,6.1-0.8,7.7l3.9,1.8l0,0c-4,1.4-3.6,7.2,0.6,8
	C395.3,694.1,416.3,703.3,446.9,703.3z"/>
<g>
	<path class="st3" d="M550.8,700.8c3.3-2.2,5.7-5.9,3.3-9.6l-0.2-0.3l0,0c3.5-1.9,3.7-8.4,0.4-10.5l0.2-0.3c2.7-3.5,1.1-9.5-2.6-9.8
		h-0.3l0.4-1c1.6-4.3-1.2-9.2-4.7-8.1l-0.8,0.2l0.3-1.6c0.8-4.6-2.7-8.4-6-6.4l-1.1,0.7l0.1-1.9c0.1-4.7-3.8-7.5-6.7-4.9l-1.2,1.1
		c-0.5-5.5-5.4-7.9-8.5-4.2l0,0v-0.1c-1-5.3-6-7-8.8-2.8l-0.1,0.1v-0.2c-1.4-5.1-6.6-6-9-1.5l-0.1,0.1l-0.1-0.2
		c-1.8-4.9-7-5.1-9.1-0.3l-0.1,0.2l-0.1-0.2c-2.2-4.6-7.4-4.1-9.1,0.9l-0.1,0.2l-0.1-0.1c-2.5-4.3-7.7-3-9,2.2v0.1l-1.1-1.5
		c-2.4-3.3-6.7-1.5-7.4,3.1l-0.3,2.1l-1.1-1.2c-2.8-2.8-6.8-0.3-7,4.4l-0.1,1.9l-1.1-0.8c-3.1-2.2-6.9,1.3-6.4,6l0.2,1.6l-0.8-0.3
		c-3.5-1.3-6.6,3.3-5.3,7.8l0.3,1h-0.3c-3.7,0.1-5.7,5.9-3.3,9.6l0.2,0.3l0,0c-3.5,1.9-3.7,8.4-0.4,10.5l-0.2,0.3
		c-2.7,3.5-1.2,8.3,1.9,10.9c7.6,6.2,23.4,13.2,52.6,14.2C526.2,713.5,543.3,705.8,550.8,700.8z"/>
</g>
<g>
	<path class="st3" d="M227.1,66.2L227.1,66.2c0.4-7,8.6-10.5,13.8-5.9l0.2,0.2l0,0c-3.5-7.8,3.7-16.2,12-14l0,0v-0.1
		c-2.3-8.2,5.9-15.5,13.8-12.1l0.1,0.1v-0.2c-1.2-8.5,8-14.5,15.4-10.1l0.1,0.1V24c0-8.6,10-13.3,16.6-7.9l0.1,0.1l0,0
		c1.2-8.6,11.8-11.9,17.7-5.6l0,0l0.3-1.1c2.2-7.9,12.6-9.8,17.4-3.1l0.6,0.9l0.5-1.2c3.2-7.6,13.7-8.2,17.6-1l0.6,1.1l0,0
		c3.9-7.4,14.7-6.9,17.8,0.9l0,0l0.1-0.2c4.6-6.9,15.1-5.2,17.3,2.8l0.1,0.2l0,0c5.4-6.3,15.7-3.3,16.8,4.9l0,0l0.1-0.1
		c6.1-5.5,15.8-1.2,15.8,7v0.1l0,0c6.8-4.6,15.8,1.2,14.6,9.3l0,0l0.3-0.1c7.3-3.4,15.2,3.5,12.8,11.2l-0.1,0.3l0,0
		c7.8-2.2,14.5,5.9,10.8,13.2l0,0l0,0c10.5-6.5,22.6-0.6,23.5,9.2l-0.2,0.8l0.2-0.8c1.9-7.5,11.9-9.2,16.1-2.7l0.4,0.7l0.3-0.8
		c2.5-7.3,12.6-8.2,16.3-1.4l0.4,0.7l0.3-0.7c3.1-7.1,13.2-7.1,16.3,0l0.3,0.7l0.3-0.5c3.8-6.8,13.8-5.9,16.3,1.5L551,63l0.2-0.4
		c4.4-6.4,14.4-4.4,16,3.2l0.1,0.4l0.1-0.2c5.2-5.9,14.9-2.7,15.6,5.1v0.2l0,0c5.9-5.2,15.2-0.7,14.8,7.2l0,0l0,0
		c7.8-3.8,20,1.4,17.7,15l0,0h0.9c9.8,0.3,15.6,11.2,10.2,19.4l-0.5,0.7l0.2,0.1c9,4.3,9.7,16.8,1.2,22l-0.2,0.1l0,0
		c6.2,7.8,1.2,19.4-8.8,20.3l0,0l0.2,0.9c2.1,9.6-7.2,17.7-16.4,14.5l-0.9-0.3l-0.4,2.3c-1.5,9.4-12.4,13.8-20,8.1l-1.9-1.5
		l-1.4,3.1c-3.7,8.5-15,10.1-21,3.1l-2.2-2.6l-0.5,0.8c-5.7,10-18.5,13.3-28.2,7.1l-2.7-1.7l-0.3,0.7c-5.1,11.6-19.5,15.7-29.9,8.5
		l-0.6-0.4l-0.4,0.7c-6,11.2-20.7,14.1-30.5,6l-0.6-0.5l-0.3,0.5c-7,10.7-22,12.2-31,3.3l-0.4-0.4l-0.2,0.3
		c-8.1,10-23.3,9.9-31.3-0.1l-0.2-0.3l0,0c-9.3,9-24.6,6.9-31.2-4.2l0,0l0,0c-10.5,7.4-25.2,3-29.9-9l0,0l0,0
		c-12.1,5.5-26.3-1-30-13.8l-0.6-1.9l-1.1,1.3c-8,9.9-23,10.2-31.4,0.6l0,0l0,0c-7.2,9.8-21.8,10.1-29.3,0.4l0,0l0,0
		c-7.8,9.3-22.3,8.6-29.1-1.5l0,0l0,0c-8.5,8.6-22.8,6.6-28.5-4.1l0,0h-0.1c-9.3,7.3-23.1,3.3-26.9-7.9l0,0l-3.2,1.5
		c-8.8,4.2-18.9-2.2-19-11.9v-3.3H137c-10.5-0.2-16.6-11.9-10.8-20.6l0,0l0,0c-7.5-3.7-8.6-15.3,1.4-19.8l0,0l0,0
		c-5-5.3-0.7-14,6.6-13.3l0,0l-0.3-0.7c-2.8-6.7,4-13.3,10.6-10.3l0.7,0.3l0,0c-0.9-7.8,8.1-12.7,14.2-7.8l0,0l0.1-1
		c0.7-7.7,10.1-10.8,15.3-5.1l0.7,0.8l0,0c1.8-8,12.3-10,17-3.3l0,0l0.1-0.3c2.6-7.7,13.1-8.7,17.2-1.7l0.1,0.3l1.3-4.8
		c1.8-6.4,9.9-8.3,14.3-3.3L227.1,66.2z"/>
	<g>
		<g>
			<path class="st4" d="M235.7,118.7c-11.1,5-6.1,12.8-1.9,11.2l1-0.6l-0.1,1.7c-0.3,4.1,3,6.7,5.6,4.5l1.1-0.9
				c0.2,4.8,4.3,7.2,7.1,4l0,0v0.1c0.6,4.7,4.9,6.3,7.5,2.8l0.1-0.1v0.1c1,4.6,5.4,5.5,7.7,1.7l0.1-0.1l0.1,0.2
				c1.4,4.4,5.8,4.7,7.8,0.6l0.1-0.2l0.1,0.1c1.7,4.2,8.2,2.9,6-4.2"/>
		</g>
		<path class="st4" d="M454.4,141.1l1.5,2.1c2.8,4,9,3,10.5-1.6l0.8-2.5l1.7,1.7c3.5,3.5,9.5,1.4,10.1-3.5l0.3-2.4l1.7,1.1
			c4.2,2.7,9.7-0.7,9.1-5.6l-0.2-2l0,0c8.3,2.7,11.5-4,8-8.9l0,0l0,0c7.5,0.1,8.7-7,4-10.7l0,0l0,0"/>
		<path class="st4" d="M423.9,164.2l0.3,0.9c1.3,4.1,7,4.3,8.7,0.4l0.4-0.9l0.7,1.2c2.1,3.7,7.7,2.8,8.5-1.4l0.3-1.3"/>
	</g>
</g>
<g>
	<g>
		<path class="st4" d="M523.5,667.8c0,0,6,17.9-0.3,46.7c0,0,4.5-14.5-7.2-28.2"/>
		<path class="st4" d="M537.1,684.3c0,0-7.5,3-11.3,12.3"/>
		<ellipse transform="matrix(0.909 -0.4168 0.4168 0.909 -229.4311 278.0743)" class="st5" cx="522.1" cy="664.5" rx="8" ry="4.4"/>
		
			<ellipse transform="matrix(0.9998 -2.052019e-02 2.052019e-02 0.9998 -13.8806 11.2166)" class="st5" cx="539.6" cy="682" rx="7.4" ry="4"/>
		<ellipse transform="matrix(0.909 -0.4168 0.4168 0.909 -238.9882 277.2912)" class="st5" cx="515.5" cy="685.9" rx="4" ry="2.2"/>
	</g>
	<g>
		<g>
			<g>
				<path class="st4" d="M509.2,712.1c0,0,1.2-11-4.6-17.8"/>
				
					<ellipse transform="matrix(0.8778 -0.4791 0.4791 0.8778 -270.8652 326.4575)" class="st5" cx="504.3" cy="694.1" rx="2.9" ry="1.6"/>
			</g>
			<path class="st4" d="M511.7,697.8c0,0-2.2,3.5-2.5,9.6"/>
		</g>
		
			<ellipse transform="matrix(0.2875 -0.9578 0.9578 0.2875 -302.9787 987.1662)" class="st5" cx="512" cy="697.2" rx="0.8" ry="1.5"/>
	</g>
	<g>
		<g>
			<g>
				<path class="st4" d="M223.9,713.7c0,0-2.3-21.4,8.9-34.5"/>
				
					<ellipse transform="matrix(0.4791 -0.8778 0.8778 0.4791 -474.18 558.5179)" class="st5" cx="233.5" cy="678.8" rx="3.1" ry="5.7"/>
			</g>
			<path class="st4" d="M219,686c0,0,4.2,6.8,4.9,18.7"/>
		</g>
		
			<ellipse transform="matrix(0.9578 -0.2875 0.2875 0.9578 -187.684 91.6814)" class="st5" cx="218.3" cy="684.9" rx="2.8" ry="1.5"/>
	</g>
</g>
</svg>
