<?xml version="1.0" encoding="utf-8"?>
<!-- Generator: Adobe Illustrator 22.1.0, SVG Export Plug-In . SVG Version: 6.00 Build 0)  -->
<svg version="1.1" id="圖層_1" xmlns="http://www.w3.org/2000/svg" xmlns:xlink="http://www.w3.org/1999/xlink" x="0px" y="0px"
	 viewBox="0 0 623.9 1003.3" style="enable-background:new 0 0 623.9 1003.3;" xml:space="preserve">
<style type="text/css">
	.st0{fill:#E54C17;stroke:#000000;stroke-width:0.3929;stroke-miterlimit:10;}
	.st1{fill:#ED7235;stroke:#000000;stroke-width:0.3929;stroke-miterlimit:10;}
	.st2{fill:#FEE3C0;stroke:#000000;stroke-width:0.3929;stroke-miterlimit:10;}
	.st3{clip-path:url(#SVGID_2_);fill:#E54C17;stroke:#000000;stroke-width:0.3929;stroke-miterlimit:10;}
	.st4{clip-path:url(#SVGID_4_);fill:#E54C17;stroke:#000000;stroke-width:0.3929;stroke-miterlimit:10;}
	.st5{clip-path:url(#SVGID_6_);}
	.st6{fill:none;stroke:#000000;stroke-width:0.3929;stroke-miterlimit:10;}
	.st7{fill:#45805C;stroke:#000000;stroke-width:0.3929;stroke-miterlimit:10;}
	.st8{fill:#FFBA31;stroke:#000000;stroke-width:0.3929;stroke-miterlimit:10;}
	.st9{fill:#97CEB3;stroke:#000000;stroke-width:0.3929;stroke-miterlimit:10;}
	.st10{fill:#FFFFFF;stroke:#000000;stroke-width:0.3929;stroke-miterlimit:10;}
	.st11{fill:none;stroke:#000000;stroke-width:0.3929;stroke-linecap:round;stroke-linejoin:round;stroke-miterlimit:10;}
	.st12{fill:#FEE3C0;}
	.st13{fill:none;stroke:#000000;stroke-width:0.4911;stroke-miterlimit:10;}
	.st14{fill:#FFFFFF;stroke:#000000;stroke-width:0.4911;stroke-miterlimit:10;}
</style>
<g>
	<path class="st0" d="M511,179.2l-380.4,33.1l-29.1,3.3c1.8,68.9,16.2,68.1,18.3,130.6c2.1,62.2-15.3,94.2-15.3,94.2l38.3,7.2h2.9
		v-0.1l317.5,39.7c0,0-10.7-37.4-11.8-50.2c-2.4-29.6,0.7-111.4,42.2-188.3C514.1,210.9,511,179.2,511,179.2z"/>
	<g>
		<path class="st1" d="M365.4,211.3c1.4-0.4,1.9,1.1,2.3,3.9c0.4,3.5-0.3,4.8-1.5,4.6c-0.7-0.1-2.2-1.6-2.3-3.9
			C363.7,213.7,364.3,211.7,365.4,211.3z"/>
		<path class="st1" d="M363.4,239.2c-0.2-5.5-0.5-14,3.3-14c2.8,0,3.3,10.5,3.9,24.3c0.5,13.8,0.5,31.5-1.1,39.7s-0.4,24-3.4,24.6
			c-5.5,1.2-4.7-9.9-4.9-21.6C361,280.7,364.3,263.2,363.4,239.2z"/>
		<path class="st1" d="M384.6,198.8c0,0,0.6,52.7,0,61.4s-0.6,16.7,4.4,27.2s5.6,17,5.9,31s2.3,65.2,2,75.5
			c-0.3,10.2-2,60.9-12.5,69l18.4,4.7c0,0,8.5-35.4,8.5-60.6s-0.6-65,0-81.3c0.6-16.4,3.8-22.8,4.7-37.5c0.9-14.6-1.2-71.6,0.6-89.5
			h-9.4c0,0,0.6,16,0.6,21.9s-0.9,23.5,0.9,31.7s0,15.5,1.8,27.2s-1.2,19.6-4.4,19.9c-3.2,0.3-1.4-8.2-5.1-14
			c-3.7-5.9-5.2-20.6-5.2-32c0-14.4-1.4-26.2,0.4-54.6L384.6,198.8L384.6,198.8z"/>
		<path class="st1" d="M439.8,196.6c0,0-2.1,10.5,2.8,17s4.4,6.2,5.3,15.7c0.9,9.5,1.7,10,3,9.5c2-0.7,0.7-21.5,1.8-28
			c1.2-6.5,2.8-8.3,1.6-14.2L439.8,196.6L439.8,196.6z"/>
		<path class="st1" d="M468.9,194.2c0,0-2.5,10.9,1.4,26.3s0.5,31.4-2.2,40.7h5.7c0,0,4.6-3.2,6.9-19.2c2.3-15.9,0.5-14.6,5.1-22.4
			c4.6-7.9,5.1-21.7,3.2-28l-8.5,1.6c0,0,1.6,16.2-0.2,22.2c-1.8,6-3.9,7.4-5.3,4.4s-1.6-24.3,0.2-30.7L468.9,194.2z"/>
		<path class="st1" d="M198,253c0,0,4,0.3,4.5,4.9c0.5,4.3,1.3,12.4,5.9,14.8c4.6,2.3,1-9.1,3.6-9.6s7.7,10.8,7.4,23.1
			c-0.3,12.3,4.2,12.2,5.4,11.3c2.8-2-2.8-22-1.8-34.1c0.5-6.3,3.4-9.7,3.4-9.7L198,253z"/>
		<path class="st1" d="M263.1,235.1c0,0,0.5,22.6,4.6,45.4s3.6,41.9,1.3,57.7c-3.4,23.1,3.2,48.8,2.5,72.6
			c-0.8,31,0.3,47.7,0.3,47.7h15.3c0,0,0-27.9-2.2-57.4c-1.7-22.5-6.3-38.3-2.1-73.2c2.2-18.9,6.4-21.3,5.6-40.5
			c-0.8-19.2,1.5-54.4-3.3-63.1l-6.2,3.8c0,0,3.1,8.5,2.3,21.5c-0.8,13.1,1.5,24.6,1.3,31.8c-0.3,7.2-1.8,13.6-4.4,10.5
			c-1.7-2-3.3-12.3-4.6-23s-1.7-29.8-3.3-33.9L263.1,235.1z"/>
		<path class="st1" d="M311.5,202.5c0,0,6.2,5.9,5.4,12.8c-0.8,6.9-2.7,21.8,0.1,27.4s4.3,2.1,5.6,0s1.3-7.2,3.8-5.6
			c2.6,1.5,3.3,21.5,2.1,29.7c-1.3,8.2,3.1,25.4,3.6,34.4s5.6,21.5,6.4,31l4.5,1c0,0-3-36.4-3-44.4s-3.3-28.7-2.8-39.2
			s-0.3-21.3-0.8-34.6c-0.4-13.1,2.3-19.9,2.3-19.9L311.5,202.5z"/>
		<path class="st1" d="M324.3,460.7c0,0,12.8-0.3,15.2-16.4c1.2-8.5,2.3-27.2,2.5-39.7c0.1-11.4,0.7-19.7,3.2-19.5
			c2.8,0.3,3.7,4.1,3,15.7c-0.5,8.3,2.3,18.4,2.8,27.4c0.9,20.4,4.2,28.9,13.4,33.2L324.3,460.7z"/>
		<path class="st1" d="M436.7,276.5c-0.1-6.2,0.2-24-4.8-24.4s-5,19.6-5,30s-4.2,15.7-4.6,33.8c-0.4,17.8-2.7,25.7,0,33
			s-0.1,15.3,2.3,18.4c1.9,2.5,4.2,1.7,5.2-8.6c0.9-10.4-0.3-24.2,4-32.3S437,296.9,436.7,276.5z"/>
		<path class="st1" d="M243.8,275.4c2,0.6,6.2,16.7,4.8,40.8c-1.4,24.1-1.4,27.9-5.2,27.6s-4.4-22.2-3.6-35.8
			C240.7,294.3,237.9,273.6,243.8,275.4z"/>
		<path class="st1" d="M192.5,285.2c0.1-3.3-1.6-13.8,2.9-13.8s2.8,17.8,4.8,25.3s3.3,25.8,2.8,35s-5.8,5-6.8-7.3
			C195.2,312.1,192.2,294.4,192.5,285.2z"/>
	</g>
	<path class="st2" d="M174.1,363.5c-6.3-28.8,0-32.1-4.9-57.8c-2.5-13-6.5-26.4-0.5-53.3c0,0-30.9-24.3-40-28.5
		c-4.7-2.1-32.7-9.4-32.7-9.4c1.6,56.3,21.6,69.2,23.7,131.7c2.1,62.2-15.3,94.2-15.3,94.2l38.3,7.2l31.6,1.5c0,0,5.4-13.4,6.7-35
		C181.9,402.7,177.6,379.4,174.1,363.5z"/>
	<path class="st0" d="M129.1,232.4c0,0,3.1,9.3,2.3,19.7c-0.8,10.4,8.9,25.8,8.9,41.6s-1.2,42.8,3.5,62.8
		c4.6,20,14.7,24.6,14.7,38.1c0,0-1.6-36.9-0.8-56.2c0.8-19.3-4.6-28.1-5-49.3c-0.4-21.2,4.2-40.1-1.2-47l-8.4-4.6
		c0,0,2.8,9.5,3,20.6s-0.3,17.1-3.3,14.7s-4.4-18.7-4.8-25c-0.4-6.3-2.2-13.3-2.2-13.3L129.1,232.4z"/>
	<g>
		<path class="st0" d="M522.5,655.7c2.9-10.7-0.5-18.5-4.4-10.7s-1.2,23.8-6.5,23.8c-4,0-2.1-16.1-1.1-30.2c1-14.1-2.2-14.5-3.2-17
			l20.5-7.8l33.2,3L365,540L39.6,473.7c0,0,5.3,20.3,18.2,34.9c14.6,16.5,31.2,24.4,34,51.1c4.3,40.5,39.7,70.1,31.4,145.1
			c-3.9,35.3-6.3,67.9-5.8,93.5L332.3,768l122.3-49.5l51.2-2.2c0,0,0-11.8,9.3-29.8C512.9,675.4,519.7,666.1,522.5,655.7z"/>
		<path class="st1" d="M562.8,617.4l-1.7-0.7l-33.2-3l-20.5,7.8c1,2.4,4.1,2.8,3.2,17c-1,14.1-2.9,30.2,1.1,30.2
			c5.3,0,2.6-16,6.5-23.8s7.3,0,4.4,10.7c-2.8,10.4-9.6,19.7-7.4,30.8c2.8-5.5,6.5-11.5,11.3-18C547,640.6,551.3,639.9,562.8,617.4z
			"/>
		<g>
			<path class="st1" d="M342.7,750.3c0.6-2.8,2.3-18.1,0-38.6s6.2-47.1,4-63.5s-3.7-23.7,0.4-29.2s6.6,4,7.3,17.7
				s18.1,50.6,18.1,85.7c0,35.1,0,35.1,0,35.1L342.7,750.3z"/>
			<path class="st1" d="M270.6,763.4c0,0,4.4-12.2,0-40s8.3-29.2,8.3-21.9s5.8,13.3,4.4,29.1c-1.5,15.8,2.9,34.8,2.9,34.8
				L270.6,763.4z"/>
			<path class="st1" d="M374.1,572.4c0,0,5.9,7.2,5.9,17.6c0,10.4,2.4,19.7,2.7,27.9c0.3,8.2,4,10.6,6.1,6.4c2.1-4.3,1.6-13,0-22.3
				s-2.4-25.3-0.5-29.5h-14.2V572.4z"/>
			<path class="st1" d="M416.6,603.4c4.7,1.7,0.7,16.7,3.6,28.7s7.3,8,9.4,21.1c2.2,13.1,3.6,53.7-0.8,79.5l-16.5,1.5
				c0,0,2.4-47.7,1-65.4c-1.5-17.8-4-10.9-4-30.9C409.4,617.9,411.5,601.5,416.6,603.4z"/>
			<path class="st1" d="M447.8,598.2c0,0,5.2,12.3,5,32.3c-0.4,38.2,4.8,76.1,0.2,89.4c-1.4,4,18.2,3.6,17,0s-2.4-44.1-4.4-64.9
				c-2-20.8-5.6-21.6-5.6-39.7c0-9.1,1.4-15.2,1.4-15.2L447.8,598.2z"/>
			<path class="st1" d="M474.4,603.6c0,0,5.7,1.6,6.3,10.2c0.7,8.6-2.1,25.3,1.8,27.1c4.2,1.9,4.7-17.6,7.5-26.5
				c1.5-4.7,3.9-5.7,3.9-5.7L474.4,603.6z"/>
			<path class="st1" d="M80.5,506.2c0,0-0.5,6.3,6.3,10.4c9.8,5.9,7.2,11.3,9.3,16.6s6.6,5,5.6,0c-3-14.4,1.7-21.4-1.2-21.4
				C96.6,511.9,80.5,506.2,80.5,506.2z"/>
			<path class="st1" d="M116.2,517.8c0,0,2.1,7.8,1.6,16.2c-0.5,8.5,3.3,13.1,6.3,23.2c3.1,10.1,0.7,15.7,4,22.3s6.6,7.7,7.3-3.8
				s-2.8-20.7-2.1-26.8s-1.4-19,0.7-25.6L116.2,517.8z"/>
			<path class="st1" d="M133.7,594.6c4.7,0.1,6.6,16.4,8.7,35c4.9,43.8,13.5,70.2,12.6,80.1c-0.3,3.3,7.6,65.7,0,70.7
				c-3.2,2.1-4-18.7-4-37.3c0-18.4-6.6-39.8-7.1-45.1c-2.9-28.1-5.4-26.7-6.7-39.9c-1.3-13.1-2.6-31.4-4.1-41.6
				C131.6,606.3,130.8,594.5,133.7,594.6z"/>
			<path class="st1" d="M155,532.2c0,0,4.6,15.6,6.7,33.7s11.4,17.3,21.9,31.1c10.5,13.9,10.1,62.3,9.3,74.9c0,0,12.2,1.3,12.2,0
				s2.1-45.5-6.7-64.4s-10.5-53-12.2-63.1l-9.3-4.3c0,0-1.1,7.8,1.6,18.6c3,11.9,4.1,18.2,1.7,19.2c-4,1.6-10.1-10.3-11.7-22.2
				c-1.6-11.9-5.4-23.6-5.4-23.6L155,532.2L155,532.2z"/>
			<path class="st1" d="M212,551.2c0,0-1.9,10.5,6.2,43.4c3.9,15.7,5.7,37.7,4.9,51.7c-1.1,18.6,1.4,34.8,1.4,34.8
				s16.7,4.7,17.2-3.1c0.5-7.9,1-26.5,0-46.6s-4.3-51.2-3.8-60.8s-0.5-16.3-0.5-16.3l-6.7,1.4c0,0-3.5,8.5-0.1,25.2
				c3.3,16.7,4.4,33.9,1.1,33.7c-5.6-0.3-4.3-21.8-9.1-34.5c-4.4-11.9-4.7-21.8-4.7-21.8L212,551.2z"/>
			<path class="st1" d="M179.1,616.8c4.1-2.6,5.8,8.7,6.8,28.6c1,20.1,9.6,43.3,11.7,63.7c2,20.5,8.7,45.6,7.7,59.7
				c0,0-12.4,10.1-11.7,6.7c0.7-3.4,1-10.4-2.5-22.5s-7.5-26.2-5.9-34.2c1.7-8.1-6.3-36.2-8.5-48
				C174.4,659.2,174.7,619.6,179.1,616.8z"/>
			<path class="st1" d="M232.4,714.2c0,0,8.9,21.5,9.8,29.1c0.9,7.6,5.5,24,10.5,26.6c9.1,4.5-7.9-44.4-5.6-56.9L232.4,714.2z"/>
			<path class="st1" d="M274.1,676.9c0,0-3.7-7.6-2.4-27.3c1.5-23.2-4.2-35.4,1.3-47.1c2.7-5.8,2.9-12.2,7.1-10.3
				c3.7,1.7-0.2,21.2-0.9,32.2c-1.2,20.7,4,23.3,4,50.6L274.1,676.9z"/>
			<path class="st1" d="M292.9,568c0,0,1.8,43.7,3.6,55.7s4.6,37.7,2.6,44.9s-6.8,25.8-6.2,37.1c0.6,11.4,2.6,41.3,3.4,47.9
				c0,0,36.7-11.4,39.7-7.8c0,0,1.2-8.9-3.3-27.9s2.6-34,5.1-51.6c2.6-17.6-6.8-33.2-7.6-46.8s1.9-43.9,0-49l-11.3-0.3
				c0,0,2.1,14.5,1.6,27.5s-2,27.3,1.6,35.5c4,9,1.2,27.5,4,43.3c1.9,10.7,1.2,22.2-4.8,23c-6.1,0.8-16.1-12.1-13.7-34.3
				c2.4-22.2-3.2-27-4.4-44s-1.3-46.7-3.9-53.2L292.9,568L292.9,568z"/>
			<path class="st1" d="M146.7,573.8c2.2,0.8,4.5,15.7,5.9,24.8s2.8,23,0,23.1c-2.7,0-5.3-11.9-4.8-20.8S143.5,572.7,146.7,573.8z"
				/>
		</g>
	</g>
	<g>
		<g>
			<g>
				<defs>
					<path id="SVGID_1_" d="M434.1,769.5l-265.2,79.1l-15,5l-83.8,28c11.6,10,29.2,48.3,34.5,61.6c3.1,7.9,11.9,20.8,23.1,32.3
						c7.6,7.9,16.4,15,25.1,19.5c21.4,10.9,62.3,13.4,96.3-6.5c34-19.8,49.4-12.9,76.9-26.3c27.5-13.4,36-35.2,65.9-55.8
						c29.9-20.6,56.2-17.4,80.9-53c24.7-35.6,33.3-115.3,33.3-115.3L434.1,769.5z"/>
				</defs>
				<clipPath id="SVGID_2_">
					<use xlink:href="#SVGID_1_"  style="overflow:visible;"/>
				</clipPath>
				<path class="st3" d="M434.1,769.5l-265.2,79.1l-15,5l-83.8,28c11.6,10,29.2,48.3,34.5,61.6c3.1,7.9,11.9,20.8,23.1,32.3
					c7.6,7.9,16.4,15,25.1,19.5c21.4,10.9,62.3,13.4,96.3-6.5c34-19.8,49.4-12.9,76.9-26.3c27.5-13.4,36-35.2,65.9-55.8
					c29.9-20.6,56.2-17.4,80.9-53c24.7-35.6,33.3-115.3,33.3-115.3L434.1,769.5z"/>
			</g>
			<g>
				<defs>
					<path id="SVGID_3_" d="M434.1,769.5l-265.2,79.1l-15,5l-83.8,28c11.6,10,29.2,48.3,34.5,61.6c3.1,7.9,11.9,20.8,23.1,32.3
						c7.6,7.9,16.4,15,25.1,19.5c21.4,10.9,62.3,13.4,96.3-6.5c34-19.8,49.4-12.9,76.9-26.3c27.5-13.4,36-35.2,65.9-55.8
						c29.9-20.6,56.2-17.4,80.9-53c24.7-35.6,33.3-115.3,33.3-115.3L434.1,769.5z"/>
				</defs>
				<clipPath id="SVGID_4_">
					<use xlink:href="#SVGID_3_"  style="overflow:visible;"/>
				</clipPath>
				<path class="st4" d="M434.1,769.5l-265.2,79.1l-15,5l-83.8,28c11.6,10,29.2,48.3,34.5,61.6c3.1,7.9,11.9,20.8,23.1,32.3
					c7.6,7.9,16.4,15,25.1,19.5c21.4,10.9,62.3,13.4,96.3-6.5c34-19.8,49.4-12.9,76.9-26.3c27.5-13.4,36-35.2,65.9-55.8
					c29.9-20.6,56.2-17.4,80.9-53c24.7-35.6,33.3-115.3,33.3-115.3L434.1,769.5z"/>
			</g>
			<g>
				<defs>
					<path id="SVGID_5_" d="M434.1,769.5l-265.2,79.1l-15,5l-83.8,28c11.6,10,29.2,48.3,34.5,61.6c3.1,7.9,11.9,20.8,23.1,32.3
						c7.6,7.9,16.4,15,25.1,19.5c21.4,10.9,62.3,13.4,96.3-6.5c34-19.8,49.4-12.9,76.9-26.3c27.5-13.4,36-35.2,65.9-55.8
						c29.9-20.6,56.2-17.4,80.9-53c24.7-35.6,33.3-115.3,33.3-115.3L434.1,769.5z"/>
				</defs>
				<clipPath id="SVGID_6_">
					<use xlink:href="#SVGID_5_"  style="overflow:visible;"/>
				</clipPath>
				<g class="st5">
					<path class="st1" d="M424.9,800.8c0,0,0,22-9.2,51.1s-18.9,36.3-17.4,54.7c0,0,19.9-7.7,22.5-10.7s-2.6-7.7,8.7-28.6
						s18.9-45.5,20.5-75.2h-7.8c0,0-0.7,8.3-1.7,15.3s-2.6,28.6-6.3,35.6c-3.6,7-6,17.3-8.9,14.2s0.5-15.2,3.9-29.4s6-19.7,4.6-31.3
						L424.9,800.8z"/>
					<path class="st1" d="M339.8,865.8c0,0,3.1,15-8.7,39s-22.6,42.4-19.3,72c0,0,14.3-3.3,14-7.1s-4-18.4,14.6-57.4
						s23.7-54.6,24.7-84.3l-24.5,9.4L339.8,865.8z"/>
					<path class="st1" d="M354.1,946.7c0-2.8,5.2-27.8,16-52.3c10.8-24.5,13.2-35.3,16.9-29.7c3.8,5.6-6.1,16.5-7.1,37.7
						c-0.9,21.2-6.1,35.3-6.1,35.3L354.1,946.7z"/>
					<path class="st1" d="M484.4,759.9c0,0,11.3,8.5,4.7,25c-6.6,16.5-15.5,30.6-18.3,45.4c-2.8,14.8,0.5,11,7.1,4
						c6.6-7.1,11-4,11-4s24.3-60.5,24.8-63.3s7.5-38.1,7.5-38.1l-14.6-8L484.4,759.9z"/>
					<path class="st1" d="M209.7,1003.3c0,0-25.8-6.2-26.1-20.7h-17.9c0,0,16,10.4,13.4,12.8c-6.6,6.1-35.3-20-35.3-20l-23.8-6.5
						c0,0,0.5,7.4,0,9.7s23.8,29.1,23.8,29.1l50.5,7.4l-1.1-7.4L209.7,1003.3z"/>
					<path class="st1" d="M215,979c5.3,13.3,11.9,10.9,21.4,19.9c0,0,1.2-5.2,2.4-3.8c1.2,1.4-10.3-8.9-11.9-21.2
						C226.9,973.9,213.8,976,215,979z"/>
					<path class="st1" d="M260.2,958.8c0,0,3.2,15.1,0,26.2l10.3-4.4c0,0,0-3.6,2-11.5s5.6-10.7,3.6-18.3l-4.8,4.4
						c0,0,0.6,9.9-2.9,12.7s-4.7-11.5-4.7-11.5L260.2,958.8z"/>
					<path class="st1" d="M286.2,938.1c0,0,4.9,11.1,0,23.4c-4.9,12.3-3.7,24.8-3.7,24.8l9.1-7.3c0,0-1.2-9.9,3.6-22.6
						c4.8-12.7,9.5-23.4,6.8-34.2L286.2,938.1z"/>
					<path class="st6" d="M434.1,769.5l-265.2,79.1l-15,5l-83.8,28c11.6,10,29.2,48.3,34.5,61.6c3.1,7.9,11.9,20.8,23.1,32.3
						c7.6,7.9,16.4,15,25.1,19.5c21.4,10.9,62.3,13.4,96.3-6.5c34-19.8,49.4-12.9,76.9-26.3c27.5-13.4,36-35.2,65.9-55.8
						c29.9-20.6,56.2-17.4,80.9-53c24.7-35.6,33.3-115.3,33.3-115.3L434.1,769.5z"/>
					<path class="st1" d="M384.2,827.2c0,0,2.2,0.8,3,6.8s-2.4,8.1,1.1,11.9c3.5,3.8,3.3-13,6-20.1c2.7-7,3.8-9.8,3.8-9.8
						L384.2,827.2z"/>
					<path class="st1" d="M460.3,820.3c0,2.6-0.8,5.9-3.2,10c-5.7,9.5-9.1,22.2-9.5,26.6s-1.4,10,1.5,8.7
						c2.9-1.4,8.6-16.6,11.3-27.6s1.8-13.5,2.8-15.8s1.3-6.6-1-6.6C460.6,815.6,460.3,819.5,460.3,820.3z"/>
				</g>
			</g>
		</g>
		<path class="st1" d="M153.8,853.6l-83.8,28c11.6,10,29.2,48.3,34.5,61.6c2,5.1,6.4,12.2,12.2,19.7c6.7,8.7,15.7,15.2,26,19
			c8.2,3,17.7,5.7,27.1,6.5c19.7,1.8,58.8-6.7,87.2-20.9c6.4-3.2,12.3-6.7,17.2-10.5c1.9-1.4,3.6-2.9,5.2-4.3
			c24.6-22.9,61.6-70.4,68-117.9L153.8,853.6z"/>
		<path class="st0" d="M348.9,861.1c0.1-0.1,0.2-0.1,0.3,0c2.3,4.2-0.3,13.3-0.5,17.1c-0.3,6-5.6,10-5,5.1s2-12.9,3.2-17
			C347.8,863.4,348.5,861.8,348.9,861.1z"/>
		<g>
			<path class="st6" d="M129.9,885.2c5.9,19.8,5.2,31.3,17.5,46.1c19.2,23.4,21.6,17.8,25.2,40.2"/>
			<path class="st6" d="M183.8,876.8c-1.7,11-5.1,23-11.3,35.6"/>
			<path class="st6" d="M232.5,867.9c-1.2,20.1,0.1,39.8-1.1,50.7c-1.5,14.2-0.3,27.2,5,38.8"/>
			<path class="st6" d="M288,853c-1.3,9.6-3.8,20.3-7.2,32.4c-8.6,30.8-18.1,53.9-38.2,67.8"/>
		</g>
		<g>
			<path class="st2" d="M185.9,896.3c-7.9,0.1-14.3,6.3-14.6,14.2h-2.7c-0.4-7.8-6.9-14-14.9-13.9c-7.9,0.1-14.3,6.3-14.6,14.2h-2.7
				c-0.4-7.8-6.9-14-14.9-13.9c-8.2,0.1-14.7,6.7-14.7,14.9s6.7,14.7,14.9,14.7c7.7-0.1,14-6.1,14.6-13.6h2.8
				c0.7,7.6,7.1,13.5,14.8,13.4s14-6.1,14.6-13.6h2.8c0.7,7.6,7.1,13.5,14.8,13.4c8.2-0.1,14.7-6.7,14.7-14.9
				S194.1,896.2,185.9,896.3z"/>
			<g>
				<path class="st6" d="M124.1,905.4c0.5,0.2,1.3,1.5,1.3,2.4"/>
				<path class="st6" d="M125.2,904.2c0.5,0.1,1.5,1.3,1.7,2.2"/>
			</g>
			<g>
				<path class="st6" d="M160.7,905.4c0.5,0.2,1.3,1.5,1.3,2.4"/>
				<path class="st6" d="M161.8,904.2c0.5,0.1,1.5,1.3,1.7,2.2"/>
			</g>
			<g>
				<path class="st6" d="M191.4,904.7c0.5,0.2,1.3,1.5,1.3,2.4"/>
				<path class="st6" d="M192.5,903.6c0.5,0.1,1.5,1.3,1.7,2.2"/>
			</g>
		</g>
		<g>
			<path class="st7" d="M299.9,881.9c-8.4,2.2-13.5,10.7-11.7,19.2l-2.9,0.8c-2.6-8.2-11.3-13-19.7-10.8s-13.5,10.7-11.7,19.2
				l-2.9,0.8c-2.6-8.2-11.3-13-19.7-10.8c-8.7,2.3-13.9,11.3-11.6,20c2.3,8.7,11.3,13.9,20,11.6c8.3-2.2,13.3-10.3,11.9-18.6l3-0.8
				c2.8,7.9,11.3,12.4,19.5,10.2c8.3-2.2,13.3-10.3,11.9-18.6l3-0.8c2.8,7.9,11.3,12.4,19.5,10.2c8.7-2.3,13.9-11.3,11.6-20
				C317.6,884.7,308.6,879.5,299.9,881.9z"/>
			<g>
				<path class="st6" d="M236.4,908.6c0.6,0.1,1.8,1.2,2.1,2.2"/>
				<path class="st6" d="M237.2,907.1c0.6,0,2,1,2.4,1.9"/>
			</g>
			<g>
				<path class="st6" d="M275.5,898.5c0.6,0.1,1.8,1.2,2.1,2.2"/>
				<path class="st6" d="M276.3,897c0.6,0,2,1,2.4,1.9"/>
			</g>
			<g>
				<path class="st6" d="M308.1,889.3c0.6,0.1,1.8,1.2,2.1,2.2"/>
				<path class="st6" d="M308.9,887.9c0.6,0,2,1,2.4,1.9"/>
			</g>
		</g>
		<g>
			<path class="st8" d="M275.4,948.8c-1-9.3-9.4-15.9-18.7-14.9c-9,1-15.5,8.9-15,17.8l-3.1,0.3c0-0.3-0.1-0.6-0.2-0.8v-0.1
				c-0.1-0.5-0.2-0.9-0.4-1.4c0-0.1-0.1-0.2-0.1-0.3c-0.1-0.4-0.3-0.8-0.4-1.1c-0.1-0.2-0.1-0.3-0.2-0.5c-0.1-0.3-0.3-0.6-0.4-0.9
				c-0.1-0.2-0.2-0.4-0.3-0.6c-0.1-0.2-0.3-0.4-0.4-0.7c-0.2-0.3-0.3-0.5-0.5-0.7c-0.1-0.2-0.2-0.3-0.3-0.4
				c-0.2-0.3-0.5-0.6-0.7-0.8c-0.1-0.1-0.2-0.2-0.2-0.2c-0.3-0.3-0.6-0.6-0.9-0.9l0,0c-3.5-3.2-8.3-4.9-13.3-4.4
				c-9,1-15.5,8.9-15,17.8l-3.1,0.3c-0.6-3.9-2.5-7.2-5.2-9.7c-3.5-3.2-8.3-5-13.3-4.4c-9,1-15.5,8.9-15,17.8l-3.1,0.3
				c-1.4-8.8-9.5-15.1-18.5-14.1c-9.3,1-15.9,9.4-14.9,18.7s9.4,15.9,18.7,14.9c8.8-1,15.2-8.5,15-17.2l3.2-0.4
				c0.2,1.2,0.6,2.4,1.1,3.5c0,0,0,0,0,0.1c0.2,0.5,0.4,0.9,0.7,1.3c0.1,0.1,0.1,0.2,0.2,0.3c0.2,0.3,0.4,0.7,0.6,1
				c0.1,0.2,0.2,0.3,0.3,0.5c0.2,0.3,0.4,0.5,0.6,0.7c0.2,0.2,0.3,0.4,0.5,0.6c0.2,0.2,0.3,0.3,0.5,0.5s0.5,0.5,0.7,0.7
				c0.1,0.1,0.2,0.2,0.3,0.3c0.3,0.3,0.6,0.5,0.9,0.8c0.1,0,0.1,0.1,0.2,0.1c3.3,2.4,7.4,3.6,11.8,3.1c8.8-1,15.2-8.5,15-17.2
				l3.1-0.4c0.7,3.7,2.7,6.9,5.4,9.3c3.5,3.1,8.1,4.7,13.1,4.2c8.8-1,15.2-8.5,15-17.2l3.2-0.4c1.5,7.4,7.6,12.8,15,13.5
				c6.4-3.2,12.3-6.7,17.2-10.5C275.3,954.5,275.7,951.7,275.4,948.8z M155.8,960.2c0.3-1.3-0.4-3.5-1.1-3.9
				C155.4,956.7,156.1,958.9,155.8,960.2z M156.6,955c0.7,0.4,1.8,2.4,1.6,3.8C158.3,957.4,157.3,955.4,156.6,955z M192.1,956.3
				c0.3-1.3-0.4-3.5-1.1-3.9C191.7,952.8,192.4,955,192.1,956.3z M192.9,951.1c0.7,0.4,1.8,2.4,1.6,3.8
				C194.6,953.5,193.6,951.5,192.9,951.1z M229.4,952.3c0.3-1.3-0.4-3.5-1.1-3.9C229,948.8,229.7,951,229.4,952.3z M230.2,947.1
				c0.7,0.4,1.8,2.4,1.6,3.8C231.9,949.5,230.9,947.5,230.2,947.1z M266.5,948.3c0.3-1.3-0.4-3.5-1.1-3.9
				C266.1,944.9,266.8,947,266.5,948.3z M267.2,943.1c0.7,0.4,1.8,2.4,1.6,3.8C269,945.5,268,943.5,267.2,943.1z"/>
		</g>
	</g>
	<path class="st2" d="M116.2,438.3c28.6-2.1,43.5,8.6,68.9,13.1c62.9,11.1,124.6-3.3,194.7,7.9c62.2,10,73.5-21.7,73.5-21.7
		s36.4,22.9,64.8,43.3c28.1,20.3,40,39.1,41.7,51.3c1.9,13.1-1,26.7-22.9,31.6c-24.7,5.6-8.9,19.3,4.7,24.7
		c17.6,7,26.7,18,22.7,28.9s-34.9,6-51.5,3.9c-17.1-2.2-10.7-13.2-42.1-18.5S400.3,583,386,575.7c-14.2-7.3-30.4-0.7-45.3-0.3
		c-14.9,0.3-22.8-3-41.3-3.6c0,0-52.2-5-73.8-11.2c-18.1-5.2-23.1-5.6-23.1-16.9L143,525.5l-96.8-66
		C46.2,459.4,79.4,441.7,116.2,438.3z"/>
	<path class="st9" d="M346.9,423.3c0,0,0.9,36.6,25,43.6c24.1,7,35.9-25.2,35.9-25.2l-3.2-1.8c0,0-4.9,11.5-14.5,16.6
		c0,0,9.5-15.4,12-27.7L398,427c0,0-5.7,20.1-14.5,29.1c0,0,8-19.1,8.9-35.4h-4.1c0,0-2.7,23.2-10.9,34.3c0,0-1.4-28.2,1.8-37.5
		h-4.8c0,0-3.2,12.4-2.1,38.1c0,0-8.6-17.1-9-37.1l-4.6,0.3c0,0-0.3,15.2,7.7,37.7c0,0-11.8-4.2-15.9-33.6L346.9,423.3z"/>
	<path class="st2" d="M81.8,844.1c0,0-4.9,15.5-11.3,25.3s5.6,21.1,20.4,20.4s29.5-3.5,47.1-5.6s40.1-5.5,59.1-10.5
		s30.9-1.5,85.8-19.1s64.7-5.6,89.3-18.3s34.4-31.5,82.6-42.3c39.8-9,58.2-49.4,52.2-77.7c-24-5.2-54-14.9-113.2,7.7
		c-30.4,11.6-35.4,17.9-57.4,16c-30.1-2.5-59.5,26.4-109.7,26c-40.8-0.3-32.1,9.8-66.3,13.4S93,818.7,81.8,844.1z"/>
	<path class="st2" d="M104.5,205.6c-3.4,1.1-11.4,4.6-7.2,12.6c4.9,9.1,35.4,13.1,45.5,20.8c8.8,6.7,21.3,13.7,30,14
		c7.2,0.3,37.2,0.7,37.2,0.7s20.8,2,37.3-4.9s28.9-14.7,28.9-14.7s9-5.5,14.7-13.6c5.8-8.1,31.2-19.1,52.3-20.2s81.5-1.2,81.5-1.2
		s35,0.6,48.6-3.5s33-0.6,37-13s-13-10.7-17.6-12.4s-4.8-7.5-2.3-12.1c2.6-4.8,0.6-17.6-16.2-20.2c0,0-54.8-6.9-150.6,9.4
		c-22.9,3.9-87.8,18-87.8,18s-8.5,10.6-37.1,9.9C170.2,174.4,136.2,195.4,104.5,205.6z"/>
	<path class="st0" d="M232.7,159.9c2.7,8.9,4.8,9,4.8,9c2.8,0.5,18.8,0.6,26.4,0.2c23.8-1.2,60.9-4.2,76.9-7.1
		c16-2.9,35.1,1.1,49.7-6.3c16.4-8.3,26-5.3,41-4.6c33.9,1.7,39-6.4,41.9-13.5v-24.7l-130.4,14C342.8,127,250.9,150.3,232.7,159.9z"
		/>
	<path class="st2" d="M443.2,98.9c8.9-0.2,27.4,0.8,29.7,10.3c2.9,11.9-11.6,13.2-24,13.5c-12.4,0.4-32.4-0.2-43.2,0
		c-3.8,0.1-14,0.7-14.7,4.2c-0.7,3.6,5.6,3.8,5.6,7.9c0,3.2-1.8,6.7-11.7,7.9c-9.9,1.1-4.9,6-21.5,7.6c-16.3,1.6-63.3,7.1-77.2,8.3
		c-11.6,1-37.6,5.4-49.9,3.8c-1.6-0.2-2.9-1.2-3.7-2.6l-1.4-2.6c-0.9-1.7-0.6-3.8,0.9-5.1c4.3-3.9,12.7-9.6,22.5-13.7
		c12.1-5.2,33.9-11.7,46.5-13.2c12.6-1.6,21.7-3.2,39.7-12.1C372.9,97.3,428.7,99.3,443.2,98.9z"/>
	<line class="st6" x1="396.6" y1="134.9" x2="397.1" y2="152.8"/>
	<g>
		<path class="st7" d="M335.1,72.3c0,0,10.1,43.6,64.9,39.3C400,111.6,377.3,72,335.1,72.3z"/>
		<path class="st6" d="M335.1,72.3c12.1,12.7,43.7,37.2,64.9,39.3"/>
	</g>
	<g>
		<path class="st9" d="M367.6,22.8c0,0-8.3,76.1,32.1,88.3C399.7,111.1,411.2,62.8,367.6,22.8z"/>
		<path class="st6" d="M367.6,22.8c0,0,18.9,44,32.1,88.3"/>
	</g>
	<g>
		<path class="st9" d="M451.4,67c0,0-34,7.8-51.4,44.6C400,111.5,438.7,113.9,451.4,67z"/>
		<path class="st6" d="M400,111.5c33.9-16.2,51.4-44.6,51.4-44.6"/>
	</g>
	<g>
		<path class="st7" d="M400.7,111.1c-11.6-53.1,17.2-88.3,17.2-88.3S436.7,87.8,400.7,111.1z"/>
		<path class="st6" d="M417.8,22.8c0,0-1.4,59.7-17.2,88.3"/>
	</g>
	<path class="st6" d="M483.2,0c-17.6,2.3-60.8,41.9-63.5,98.9"/>
	<path class="st6" d="M456.6,16.7c6.6-5.8,22.1-9.5,34.3-3.9"/>
	<path class="st6" d="M447.2,27.2c6.2-6.2,20.1-11.6,35.1-7.2"/>
	<path class="st6" d="M439.8,37.5c5.9-6.5,19.5-12.6,34.6-9.1"/>
	<path class="st6" d="M433.9,47.6c5.5-6.8,18.7-13.7,34.1-11"/>
	<path class="st6" d="M429.2,57.5c5-6.3,16.5-12.5,30.2-11.5"/>
	<ellipse class="st10" cx="273.5" cy="150.1" rx="11" ry="3.6"/>
	<ellipse class="st10" cx="297.8" cy="148.3" rx="2.7" ry="1.8"/>
	
		<ellipse transform="matrix(0.9975 -7.109971e-02 7.109971e-02 0.9975 -9.8559 18.3142)" class="st10" cx="252.3" cy="147.6" rx="3.4" ry="2.1"/>
	<path class="st8" d="M285.6,114.2c-9.6-0.3-8-13-8-13S287.6,104.3,285.6,114.2z"/>
	<path class="st8" d="M299.2,104.1c0,0-1.5,9.8,7,9.8C306.3,113.9,308.3,105.3,299.2,104.1z"/>
	<path class="st6" d="M306.3,113.9c5.6,13.2,18.3,19.9,18.3,19.9"/>
	<path class="st6" d="M327.9,133.5c2.3-23.9-7.1-39-7.1-39"/>
	<path class="st8" d="M315.9,81.1c0,0-4,10,4.9,13.4C320.8,94.5,326.1,86.4,315.9,81.1z"/>
	<path class="st8" d="M322.4,64.1c0,0-3,13.3,7,16.2C329.4,80.4,333.7,68.3,322.4,64.1z"/>
	<path class="st6" d="M329.4,80.4c0,0,12.4,14.1,10.4,49.8"/>
	<path class="st6" d="M347.8,128.1c0,0,10.2-20,11.5-43.3"/>
	<path class="st8" d="M359.2,84.8c0,0-5.6-6.9,2.3-15.8C361.5,69,368.1,80.9,359.2,84.8z"/>
	<path class="st8" d="M370.3,95.4c0,0-6-6.3,2.9-12.6C373.2,82.8,379.1,92.1,370.3,95.4z"/>
	<path class="st6" d="M370.3,95.4c0,0,0.2,17.1-8.9,28.5"/>
	<path class="st6" d="M433.9,5.1c0,0-17.5,22.6-17.5,94.2"/>
	<path class="st6" d="M428.9,14.7c0,0,3.9-6.5,12.6-7.1"/>
	<path class="st6" d="M425.3,24.7c0,0,6.5-11.3,21.9-12.2"/>
	<path class="st6" d="M422.9,33.8c0,0,6-10,18.7-12.3"/>
	<path class="st6" d="M420.9,43.4c0,0,5.2-7.9,13-9.6"/>
	<path class="st10" d="M447.6,105.3c-1.7,0.6-3.1,2.5-1.3,4.5c2,2.2,7.2,2.7,11.7,0.6c3.5-1.6,3.6-3.8,1.9-4.8
		C458,104.6,452,103.7,447.6,105.3z"/>
	
		<ellipse transform="matrix(0.9972 -7.433982e-02 7.433982e-02 0.9972 -7.2778 32.658)" class="st10" cx="435.1" cy="114.1" rx="3.7" ry="1.9"/>
	<path class="st0" d="M147.1,203.1c1,1.8,7.7,7.8,26,1c14.3-5.3,15.6-0.1,32.1-2.3c8.2-1.1,13.9-5.6,13.9-10.1c0-1.9,0-7.4,0-7.4
		l-5.6-5.1l-0.1-11.4l-67,23.5C146.6,191.3,145.8,200.5,147.1,203.1z"/>
	<path class="st10" d="M450.7,160.7c0,0-5.2,3.2,0,4.7s16.1,1.1,22.6-1.5c3.6-1.5,6.4-4.6,3.8-6.3
		C472.3,154.5,456.3,156.7,450.7,160.7z"/>
	<path class="st10" d="M426.9,175.8c-1.8,0.8-1.5,2.6,0.3,3.1c2.4,0.7,5.4,0.6,7.6-0.6c2.5-1.3,2.5-3.3,0-3.7
		S429.5,174.6,426.9,175.8z"/>
	<path class="st0" d="M187.2,501.6c0,0,1.8,17-3.5,26.1c-1.3,2.2-3.1,3.8-9.3,3.9s-43-10.9-43.4-11.1s6.6-15.8,6.6-15.8L187.2,501.6
		z"/>
	<path class="st2" d="M148.1,194c2.9,3.1,14.5,2,22.2-0.3c15-4.6,18.1-0.3,36-2.8c17.8-2.5,13.2-8.9,10.1-10.8
		c-3.1-1.8-9.5-1.3-8.3-5.2c1.2-4,6.9-5.1,5.2-8.6c-1.9-3.9-38.7,2.8-57.7,14.7C147.6,186,144.5,190.3,148.1,194z"/>
	<g>
		<path class="st9" d="M166.6,353c0,0-24.3,15.1-9.5,45C157.1,398,183,378.5,166.6,353z"/>
		<g>
			<path class="st0" d="M99.3,313.3c1,4.5-3.2,8.8-7.8,10.2c-4.7,1.4-5.8,10.9-13.4,11.6c-5.6,0.5-11-3.9-13.4-11.5
				c-1.6-5.2,0.6-15.5,6.6-16.1c4.7-0.5,6,3.8,14.5,1.4C93.5,306.6,98.5,309.6,99.3,313.3z"/>
			<path class="st6" d="M73.4,316.4c-0.2,0.4-2.7,5.9,1.9,8.4"/>
			<path class="st6" d="M73.1,325.6c0,0-2-1.4-3.8,1.4"/>
			<path class="st6" d="M70.2,317.6c0,0-0.7,1.5-2.1,0.8"/>
			<path class="st6" d="M67.5,319.5c0,0,1.5,1.6,0.3,3.2"/>
		</g>
		<g>
			<path class="st0" d="M91.2,325.2c4.7,2.3,3.9,6.8,2,11.7c-1.8,4.6,2.4,10.1-3.7,14.3c-5.3,3.8-13.8,0.7-18.7-4.9
				c-4.1-4.6-1.5-11.9,3.2-14.2c3.4-1.6,6.3-0.1,9.8-4.7C86.2,324.4,88.6,323.9,91.2,325.2z"/>
			<path class="st6" d="M77.1,340.8c0,0,1.1,2.3-1.6,3.3"/>
			<path class="st6" d="M79.7,342.9c0,0,0.4,2,3.1,1.9"/>
			<path class="st6" d="M76.5,345.9c0,0,2.5,0.3,2.9,2.3"/>
			<path class="st6" d="M81.2,348.1c0,0,0.3-1.6,1.6-1.5"/>
		</g>
		<path class="st9" d="M99.3,356.2c0,0,6.4,20.8,21.8,15.5C121.1,371.8,121,355.4,99.3,356.2z"/>
		<path class="st9" d="M126.2,375.8c0,0-10.8-11.3-25.4-1.6C100.8,374.1,114.8,390.8,126.2,375.8z"/>
		<path class="st9" d="M125.9,376.5c0,0-16.6-5.1-24,12.4C101.9,388.9,119,398,125.9,376.5z"/>
		<path class="st9" d="M96.1,355.9c0,0,12-20.2,32.3-7.7C128.4,348.2,121.1,369.5,96.1,355.9z"/>
		<g>
			<path class="st0" d="M116.3,351.9c4.4-4.7,9.6-0.9,14.3,0.4c5,1.4,14.7,1.9,15.6,7.9c0.8,5.8-3.1,10.2-8.2,8.7
				c-4.2-1.3-6.5,0.5-7.2,4.7c-0.6,4.1-4.6,6.8-8.8,5.2c-3.9-1.4-6-5.1-5.7-10.2C116.7,363.3,110.8,357.8,116.3,351.9z"/>
			<path class="st6" d="M118.5,358c0,0,2.5,0.7,3.8-1.3"/>
			<path class="st6" d="M120.8,368.6c0-0.4,0.3-2.5,2.9-2.6"/>
			<path class="st6" d="M123.7,360.5c0,0-0.6,2.1,1.1,2.7"/>
			<path class="st6" d="M118.8,361.7c0,0,1.4,0.9,0.8,2.3"/>
		</g>
		<path class="st9" d="M65.9,383.2c0,0-12.1,6.6-4.8,19.2C61.2,402.4,72.3,394.8,65.9,383.2z"/>
		<path class="st9" d="M24.4,362.6c0,0,19.3-7.5,30.2,9.6C54.6,372.2,38,385.2,24.4,362.6z"/>
		<g>
			<path class="st0" d="M42,367.1c3.4-6,9-2,15.2-0.8c6.5,1.2,8.5-2.7,12.2-0.1c4.7,3.4-1.5,8.8-2.5,12.8
				c-1.3,5.7-4.1,13.6-10.8,12.4c-6.2-1.2-5.4-4.8-8.8-10.9C43.9,374.4,39.3,371.7,42,367.1z"/>
			<path class="st6" d="M52.4,372.6c0,0-0.8,3.7-4.3,2.4"/>
			<path class="st6" d="M54.5,375.8c0,0-0.8,3.7,2.3,4.7"/>
			<path class="st6" d="M49.6,378.4c0,0,2.6,1.2,3,3.2"/>
			<path class="st6" d="M53.9,382.7c0,0,1.2-1.7,3.4-0.6"/>
		</g>
		<path class="st9" d="M32.4,357.3c0,0,5.1-16.8,22-16.3C54.4,341.1,47.4,361.3,32.4,357.3z"/>
		<path class="st9" d="M40.5,365.9c-0.6,0,4.8-23,24.7-24.2C65.1,341.7,63.7,364.1,40.5,365.9z"/>
		<g>
			<path class="st0" d="M45.9,312.5c4.6-0.9,8.8,3.4,10.1,8.1s10.9,6.1,11.4,13.8c0.4,5.7-4.2,11-12,13.2c-5.3,1.5-15.6-1-16.1-7
				c-0.4-4.7,4-5.9,1.7-14.6C39,318.2,42.1,313.3,45.9,312.5z"/>
			<path class="st6" d="M48.5,338.8c0.4,0.2,5.9,2.9,8.6-1.7"/>
			<path class="st6" d="M57.8,339.3c0,0-1.4,2,1.3,3.8"/>
			<path class="st6" d="M49.6,342.1c0,0,1.5,0.7,0.7,2.2"/>
			<path class="st6" d="M51.5,344.8c0,0,1.6-1.5,3.3-0.2"/>
		</g>
		<path class="st9" d="M121.1,338.8c0,0-7.1-25.4-24.8-17.3C96.3,321.4,94.8,337.7,121.1,338.8z"/>
		<path class="st9" d="M37.6,318.9c0,0-7.8-19.2-32.4-13.3C5.3,305.5,17.2,327.7,37.6,318.9z"/>
		<path class="st9" d="M0,324.8c0,0,12.2-16.6,34.2-2.8C34.2,322,22.3,343,0,324.8z"/>
		<path class="st9" d="M26.1,324.1c0,0-19.6,6.1-9.6,26.1C16.5,350.2,35.3,341.6,26.1,324.1z"/>
		<path class="st8" d="M170.9,363.4c0,0-8.9,8.6-17.7,8.2c-8.9-0.4-8.6-6-6-13.3c2.5-7.4,7.2-24.2,0.4-30.8c-6.9-6.6-10.1-2.9-9,2.9
			c0,0,7,16.2-16.7,52.1c-13,19.7-23.5,33.8-30.6,43c-3.6-12.1-6-27.7-1.9-42.8c5.8-21.6,14-42.4,10.9-61.9
			c-0.4-2.5-1.5-9.8-5.4-8.7c-3.8,1-2.9,7.2-5.3,14.1s-0.8,16.2-1.3,23.7c-0.4,6.9-0.3,16-6.1,15.4c-6.4-0.6-5.8-9.9-10.2-24.1
			c-4.5-14.5-17-34.3-22.5-31.7c-2,0.9-3.2,3.7-0.6,7.3c6,8.3,14,27.4,15,49.5c1.4,31.9,9.1,68.4,27.6,84.9c2.1,1.9,5.3,1.7,7.1-0.5
			c1.3-1.5,1.5-3.7,0.6-5.4c-1-1.9-2.3-4.6-3.7-8c7.8-6.3,19.8-17,29.7-31.8c6.5-9.8,12.1-19.5,22.5-22.2
			c10.3-2.7,17.6-5.9,25.3-15.1L170.9,363.4z"/>
		<path class="st9" d="M168.9,353.6c0,0-14.4,24.7,11,38.1C179.9,391.7,186.8,366.5,168.9,353.6z"/>
		<path class="st9" d="M162.4,346.8c2.9-19.1,27.5-17.8,27.5-17.8S181,352.8,162.4,346.8z"/>
		<path class="st9" d="M200.1,358.2c0,0-24.1,12.9-35.1-7.8C164.9,350.4,177.3,335.9,200.1,358.2z"/>
		<path class="st9" d="M169.9,307c0,0-22.6,7.9-20.8,27C149.1,334,165.6,334,169.9,307z"/>
		<path class="st9" d="M137.1,302.4c0,0-12.9,24.3,14.3,34.5C151.4,336.8,157.6,314.3,137.1,302.4z"/>
		<path class="st9" d="M38.6,272.7c0,0-14.5,24.5,8.5,37.1C47.1,309.7,62.1,290.5,38.6,272.7z"/>
		<path class="st9" d="M67.7,284.6c0,0-26.8,6.3-20,27.1C47.7,311.7,66.9,314.2,67.7,284.6z"/>
		<g>
			<path class="st0" d="M152.8,329.7c4.2-0.9,8.2,3,9.4,7.4c1.3,4.4,10.1,5.5,10.7,12.6c0.4,5.2-3.7,10.2-10.9,12.4
				c-4.9,1.4-14.5-0.7-15-6.3c-0.4-4.4,3.6-5.5,1.4-13.5C146.5,335.1,149.3,330.5,152.8,329.7z"/>
			<path class="st6" d="M155.5,354c0.3,0.2,5.5,2.6,7.9-1.7"/>
			<path class="st6" d="M164.1,354.3c0,0-1.3,1.9,1.3,3.5"/>
			<path class="st6" d="M156.6,357c0,0,1.4,0.6,0.7,2"/>
			<path class="st6" d="M158.3,359.5c0,0,1.5-1.4,3-0.2"/>
		</g>
		<g>
			<path class="st0" d="M144.3,326.7c3.3,3.7-1.3,7.1-3.2,11.1s-1.5,15.8-11.6,15.6c-10.1-0.2-6.4-12-10.8-14.1
				c-4.3-2.1-5.8-9.7-0.1-13.4c4.4-2.9,8.3,2.1,14.5,0.2C139.3,324.2,141.3,323.3,144.3,326.7z"/>
			<path class="st6" d="M126.1,332.4c0,0,0.5,2.5-1.9,2.7"/>
			<path class="st6" d="M128.2,335.2c0,0-0.3,2.4,2,3.6"/>
			<path class="st6" d="M130.2,342c0,0-1.9-0.4-3,1.1"/>
			<path class="st6" d="M123,338.3c0,0,1.7,0.7,1.9,3.1"/>
		</g>
		<path class="st9" d="M52,313.9c0,0,8.6-10.3,27.1-1C79,312.8,64.7,325,52,313.9z"/>
		<g>
			<path class="st0" d="M28.7,293.4c6.4-3.5,10.5,2.4,15.1,5.4c4.8,3.2,13.4,4.1,12.3,11.3c-1.2,7.8-7.7,8.5-11.9,6.1
				c-4.2-2.5-8.1-2.5-10.2,1.7c-2.1,4.2-6.6,6.2-10.5,3.8c-3.1-1.9-2.5-5.2-0.4-10.6C25.1,305.7,20.8,297.8,28.7,293.4z"/>
			<path class="st6" d="M28.8,300.7c0,0,2.4,1.6,4.6-0.1"/>
			<path class="st6" d="M27.6,312.8c0.2-0.4,1.2-2.6,4-1.7"/>
			<path class="st6" d="M33.5,305.2c0,0-1.4,2,0.2,3.3"/>
			<path class="st6" d="M27.8,304.8c0,0,1.1,1.4,0.1,2.7"/>
		</g>
		<g>
			<path class="st0" d="M35.6,314.9c7.8-6.4,15.2,1.4,13.3,7.6c-1.9,6.4-4.6,10.2-3.5,15c1.1,4.9-3.1,9.9-9.1,8.2
				c-12.7-3.4-21.2-12.3-17.5-19.6C22.2,319.4,24.2,324.3,35.6,314.9z"/>
			<path class="st6" d="M28,330.8c0,0,0.1,2.6-1.8,3.9"/>
			<path class="st6" d="M30.7,332.5c0,0,0.1,2.6,3,2.7"/>
			<path class="st6" d="M26.7,337.2c0,0,2.4-0.6,3.2,1.5"/>
			<path class="st6" d="M32.2,339.3c0,0,0.5-1.9,2.2-2"/>
		</g>
		<path class="st9" d="M87.5,311.1c0,0,5.1,17.2,24.2,8.2C111.7,319.3,104.5,304.4,87.5,311.1z"/>
		<path class="st9" d="M104.6,304.3c0,0-6.6,14.6-27.4,5.3C77.3,309.6,88.3,292.2,104.6,304.3z"/>
		<path class="st9" d="M113.6,280.2c0,0-22.6,13.5-10.2,28.5C103.4,308.7,119.5,305.9,113.6,280.2z"/>
		<g>
			<path class="st0" d="M100.2,301.5c3.6-5.2,7.8,2.2,13.1,0.3c4.9-1.8,13-0.6,16,7.6c3.7,10.4-6.9,23.1-16.6,17.6
				C103.3,321.6,95.7,308,100.2,301.5z"/>
			<path class="st6" d="M121.3,311.5c0,1.8,2.8,3.6,4.8,2.3"/>
			<path class="st6" d="M117.3,314.2c0,0,0.6,2.6-1.9,4.1"/>
			<path class="st6" d="M117.1,320.4c0,0,2-0.4,2.4,1.6"/>
			<path class="st6" d="M124,316.4c0,0-2.7,1.9-2.1,4.5"/>
		</g>
	</g>
	<ellipse class="st10" cx="223.9" cy="241.9" rx="8.7" ry="3"/>
	
		<ellipse transform="matrix(0.9508 -0.3099 0.3099 0.9508 -61.7182 87.5929)" class="st10" cx="244.8" cy="238.1" rx="3.7" ry="2.2"/>
	<ellipse class="st10" cx="320.6" cy="176.1" rx="7.6" ry="2.7"/>
	<ellipse class="st10" cx="339.1" cy="173.8" rx="5.2" ry="1.5"/>
	<ellipse class="st10" cx="408.9" cy="189.4" rx="4.8" ry="2.3"/>
	<path class="st10" d="M451.4,179.9c-1.8,0.5-9.2,3-6.9,7.3c2.5,4.5,20.8-0.2,34.4,0s18-1.9,15.6-5.3S467.6,175.5,451.4,179.9z"/>
	<path class="st0" d="M428.9,270.7c0,0,5.2,17.5,3.9,34.2c-1.1,15.2-3.9,28.1,3.8,31.4c8.8,3.7,14-3.1,25-6.3s15.9,0.6,26.4-10.7
		c10.5-11.3,23.5-6.9,34.1-34.7L428.9,270.7z"/>
	<g>
		<path class="st6" d="M582.6,310.6c-25.1,19.5-83,77.5-102,154.3"/>
		<path class="st6" d="M566.5,324.5c0,0,11-6.4,26.1-5.6"/>
		<path class="st6" d="M555.6,335.4c0,0,15.3-10.9,44.4-9.4"/>
		<path class="st6" d="M542.9,349.3c0,0,24.1-12,52.1-9.8"/>
		<path class="st6" d="M530.7,364.5c0,0,20.4-12.9,51.7-12.9"/>
		<path class="st6" d="M518.9,381c0,0,14.5-11.7,52.2-13.4"/>
		<path class="st6" d="M509.3,396.3c0,0,17.1-9.8,36.9-11.2"/>
		<path class="st6" d="M502.1,409.1c0,0,8.7-7.3,27.4-10.2"/>
		<path class="st6" d="M497.4,418.4c0,0,10.5-5.6,19.4-6.9"/>
	</g>
	<path class="st0" d="M411.8,357.2c0,0-3.6,11.8-15.2,15.4s-22.8-0.4-35.9,1.6s-13.3,4.4-21.4,4.6s-12.1-4.1-17.8-8.7
		c-7.8-6.3-7-16.2-8.6-24l43.9-4.9L411.8,357.2z"/>
	<path class="st9" d="M80.9,184c0,0,14.2,26.3,50,26.5c25.8,0.2,38.9-21.6,45.7-39.5l-5.3-3.4c0,0-8.7,26.1-24,31.9
		c0,0,18.8-20,23.3-53.7l-5.4-2.5c0,0-5.1,32.7-23.1,50.7c0,0,11.3-21.3,11.1-59.7h-6.3c0,0-1.1,37.7-10,57.3c0,0,3.5-36.7-4.2-57.3
		l-6.6,1.7c0,0,6.6,16.5,3.5,55.7c0,0-6-35.9-19.2-57.3l-5.6,2.7c0,0,16,30.9,16.3,54.6c0,0-15.5-16.4-22.3-47.2l-5.9,3.9
		c0,0,3.3,25.8,22.2,46.5c0,0-21-13.7-28.1-29.7l-4.1,4.2c0,0,7,16.7,27,30.2c0,0-15.4-5-25.1-19.7L80.9,184z"/>
	<g>
		<path class="st8" d="M53.1,548.9c0,0-1.8,12.5,7.6,12.9C60.8,561.8,64.7,553,53.1,548.9z"/>
		<path class="st6" d="M60.8,561.8c0,0,14.1,22,39.4,28.8"/>
		<path class="st8" d="M47.2,570.9c0,0,1.1,9.3,10.1,7.3C57.2,578.2,56.5,569.6,47.2,570.9z"/>
		<path class="st6" d="M57.2,578.2c0,0,12.6,4.6,19.4,0.3"/>
		<path class="st8" d="M96.3,525.1c0,0-5.1,12.4,5.1,16.3C101.4,541.4,107.4,534.7,96.3,525.1z"/>
		<path class="st6" d="M101.4,541.4c0,0,11,18.8,13.1,38.7"/>
		<path class="st8" d="M121.5,535.9c0,0-8.6,8-2.4,14.9C119.2,550.8,126.3,548.1,121.5,535.9z"/>
		<path class="st6" d="M119.2,550.8c0,0-0.6,10.1-8.5,12.1"/>
		<path class="st8" d="M83,547.6c0,0,0.3,11.1,8.7,10.7C91.7,558.3,94.5,549.5,83,547.6z"/>
		<path class="st6" d="M91.7,558.3c0,0,10.8,10.4,14.1,22.7"/>
	</g>
	
		<ellipse transform="matrix(0.3293 -0.9442 0.9442 0.3293 -127.4392 835.3712)" class="st10" cx="524.3" cy="507.4" rx="3.2" ry="5.9"/>
	
		<ellipse transform="matrix(0.4067 -0.9136 0.9136 0.4067 -176.9665 801.3327)" class="st10" cx="528.5" cy="536.9" rx="2" ry="3.9"/>
	<ellipse transform="matrix(0.5 -0.866 0.866 0.5 -188.0921 729.3405)" class="st10" cx="537.6" cy="527.6" rx="4.5" ry="12.6"/>
	<g>
		<path class="st8" d="M142.5,484.7c9.6,8.2,29.1,12,46.7,10.5v-4c0,0-12.2,1.6-22.7-3.5c0,0,17.8-5.9,31.6-3v-4.6
			c0,0-14.9-3.6-31,1.9c0,0,9-9,27.1-13.1l-2.3-4.5c0,0-16.3,2.6-32.2,15.8c0,0,9.1-19,31.4-30.5l-3.6-3.2c0,0-17.3,8.3-32.5,28
			c0,0,4.7-18.3,21.3-31l-4.3-3.1c0,0-13.5,9.7-23.4,32.2c0,0-2.9-16,2.5-27.5l-4.9,1c0,0-5,11.3-2.4,30.2c0,0-12.2-7.2-14.5-23.2
			l-3.1,1.8C126.2,455,125.2,470,142.5,484.7z"/>
		<g>
			<path class="st7" d="M56.3,418.4c0,0,2.3,43.5,31.9,50.6C88.3,469.1,91.8,433.9,56.3,418.4z"/>
			<path class="st6" d="M56.3,418.4c0,0,15.3,17.4,31.9,50.6"/>
		</g>
		<g>
			<path class="st9" d="M96.2,395.8c0,0-30.8,45.7,0,85.6C96.2,481.4,127,447.5,96.2,395.8z"/>
			<path class="st6" d="M96.2,395.8c0,0,1.5,56.3,0,85.6"/>
		</g>
		<g>
			<path class="st7" d="M125,405.8c0,0,17.2,55.7-21.2,77.7C103.8,483.5,91.8,433.5,125,405.8z"/>
			<path class="st6" d="M103.8,483.5c4-40.8,21.2-77.7,21.2-77.7"/>
		</g>
		<g>
			<path class="st9" d="M155.4,438.5c0,0-6.7,52.4-48.3,45.3C107.1,483.8,115.7,447.4,155.4,438.5z"/>
			<path class="st6" d="M107.1,483.8c29.8-12.3,48.3-45.3,48.3-45.3"/>
		</g>
	</g>
	<g>
		<path class="st6" d="M33.8,603.9c34.1,36.4,74.1,96.7,89.7,189.9"/>
		<path class="st6" d="M25.6,622.8c0,0,15.5-4.2,28.3,4.8"/>
		<path class="st6" d="M20.3,636c0,0,29.3-6.2,46.8,10"/>
		<path class="st6" d="M23.2,651c0,0,32.9-7,52.5,8.7"/>
		<path class="st6" d="M28.2,667.9c0,0,35.9-11.3,55.2,5.5"/>
		<path class="st6" d="M35.7,681.4c0,0,38.1-10,53.8,3.9"/>
		<path class="st6" d="M46.4,694.1c0,0,32.4-7.3,49.6,5.2"/>
		<path class="st6" d="M59.2,709.7c0,0,31.7-4.8,44.9,9.8"/>
		<path class="st6" d="M31,611.5c0,0,6.3-1.7,12.6,3.4"/>
	</g>
	<path class="st6" d="M10.7,696.8c0,0,69.2,23.6,102.1,105.4"/>
	<path class="st6" d="M7.4,702.9c0,0,8.8-2.3,16.1-0.5"/>
	<path class="st6" d="M6.5,711.2c0,0,14.3-4.9,28.6-2.4"/>
	<path class="st6" d="M7.4,721.3c0,0,19.2-8.2,40-3.9"/>
	<path class="st6" d="M9.8,733.9c0,0,26.7-11.5,50.7-6.1"/>
	<path class="st6" d="M10.7,744.9c0,0,28.1-14.5,60.4-7"/>
	<path class="st6" d="M23.5,754.1c0,0,27.8-13.6,55.2-7.9"/>
	<path class="st6" d="M44.1,760.7c1.1-0.4,22.1-11.3,40.4-7.6"/>
	<path class="st6" d="M63.3,762.7c0.7,0,14.5-6.8,26.8-2"/>
	<g>
		<path class="st6" d="M610.5,580.7c-25.5,6.4-103.6,69.9-113.6,139.7"/>
		<path class="st6" d="M618.8,590.2c0,0-19.5-2.8-31.1,2.2"/>
		<path class="st6" d="M615.9,600c0,0-25.5-3.7-44.6,4.8"/>
		<path class="st6" d="M615.9,609.7c0,0-38.6-4.8-60.8,9.7"/>
		<path class="st6" d="M612.3,622.3c0,0-45.7-5.3-69.6,10.2"/>
		<path class="st6" d="M601.8,633.6c0,0-46.1-3.6-72.4,15.1"/>
		<path class="st6" d="M585.5,647.4c0,0-41.9-3.9-65.6,15.1"/>
		<path class="st6" d="M557.2,660.3c0,0-30.8,1.3-43.9,13.2"/>
		<path class="st6" d="M525.3,676c0,0-8.3,0-16.6,6.6"/>
	</g>
	<path class="st6" d="M514.9,614.2c-12.4,10.1-48.4,51.8-44.6,103.6"/>
	<path class="st6" d="M522.2,620.4c0,0-11.7-2.2-16.1,2.4"/>
	<path class="st6" d="M520.7,627c0,0-16.9-2.5-22.6,5.5"/>
	<path class="st6" d="M525.1,633.3c0,0-22.4-3-32.6,7.2"/>
	<path class="st6" d="M519,642.2c0,0-20.9-2.1-32.3,7.8"/>
	<path class="st6" d="M505.7,650.5c0,0-14.9-0.4-23.8,8.9"/>
	<path class="st6" d="M478.6,666.9c0.2-0.6,13.9-9.9,24.2-8"/>
	<path class="st6" d="M475.4,676c0,0,11.1-10,25.1-9.1"/>
	<g>
		<path class="st0" d="M65.4,704.4c0,0,8.6,18.7,25.5,25.1c14.9,5.6,13,10.2,28.7,12c17.6,2.1,46.7-6.1,76.5-5.7
			c29.8,0.4,38.2-3.9,46.7-10.6c14.1-11,26.2-11.4,37.1-20.9c7.5-6.6,10.5-16.1,11.3-21.2L65.4,704.4z"/>
		<path class="st2" d="M65,703.1c0.9,4.8,7.5,7,18.3,7.4c15.6,0.5,35.6,0.5,45.8,4.6s30.2,8.1,56.3,2.7s59.4-14.6,85.2-19.7
			c17.6-3.5,25.8-14.6,17.3-22.4c-8.5-7.8-37.3-9.2-60.1-6.8c-22.7,2.4-50.2,1-63.5,3.1c-13.2,2-30.9,1-41.1,1.4
			c-10.2,0.3-22.4,0.7-31.2,5.8s-17.5,6.2-22.2,13.9C66.7,698.4,64.2,698.6,65,703.1z"/>
		<ellipse class="st10" cx="78.6" cy="702.8" rx="4.3" ry="1.9"/>
		<ellipse class="st10" cx="106.7" cy="703.2" rx="8.6" ry="3.4"/>
		
			<ellipse transform="matrix(0.1026 -0.9947 0.9947 0.1026 -589.1549 763.2127)" class="st10" cx="128.4" cy="708.1" rx="1.9" ry="4.2"/>
	</g>
	<g>
		<g>
			<path class="st7" d="M120,620c0,0-2.3-10,2.2-13.1c4,3.1,2.3,13.1,2.3,13.1H120z"/>
			<path class="st7" d="M126.4,623.2c1.1-5,3.8-7.6,1.2-9.1c-2.3-1.3-5.3,3.8-5.5,4.4c-0.2-0.7-3.2-5.7-5.5-4.4
				c-2.6,1.4,0.1,4.1,1.2,9.1c1.2,5.7,5.8,35.1,2.7,41.1h1.6h1.6C120.6,658.3,125.2,628.8,126.4,623.2z"/>
			<path class="st7" d="M126.2,630c1.1-5.2,4.3-7.9,1.6-9.4c-2.4-1.3-5.5,3.9-5.7,4.6c-0.2-0.7-3.3-5.9-5.7-4.6
				c-2.7,1.5,0.5,4.2,1.6,9.4c1.3,5.9,0.7,55.5,0.7,55.5h3.4h3.4C125.5,685.6,124.9,635.9,126.2,630z"/>
		</g>
		<g>
			<path class="st7" d="M144.1,620c0,0-2.3-10,2.2-13.1c4,3.1,2.3,13.1,2.3,13.1H144.1z"/>
			<path class="st7" d="M150.6,623.2c1.1-5,3.8-7.6,1.2-9.1c-2.3-1.3-5.3,3.8-5.5,4.4c-0.2-0.7-3.2-5.7-5.5-4.4
				c-2.6,1.4,0.1,4.1,1.2,9.1c1.2,5.7,5.8,35.1,2.7,41.1h1.6h1.6C144.7,658.3,149.3,628.8,150.6,623.2z"/>
			<path class="st7" d="M150.3,630c1.1-5.2,4.3-7.9,1.6-9.4c-2.4-1.3-5.5,3.9-5.7,4.6c-0.2-0.7-3.3-5.9-5.7-4.6
				c-2.7,1.5,0.5,4.2,1.6,9.4c1.3,5.9,0.7,55.5,0.7,55.5h3.4h3.4C149.6,685.6,149,635.9,150.3,630z"/>
		</g>
		<g>
			<path class="st7" d="M168.3,620c0,0-2.3-10,2.2-13.1c4,3.1,2.3,13.1,2.3,13.1H168.3z"/>
			<path class="st7" d="M174.7,623.2c1.1-5,3.8-7.6,1.2-9.1c-2.3-1.3-5.3,3.8-5.5,4.4c-0.2-0.7-3.2-5.7-5.5-4.4
				c-2.6,1.4,0.1,4.1,1.2,9.1c1.2,5.7,5.8,35.1,2.7,41.1h1.6h1.6C168.9,658.3,173.5,628.8,174.7,623.2z"/>
			<path class="st7" d="M174.5,630c1.1-5.2,4.3-7.9,1.6-9.4c-2.4-1.3-5.5,3.9-5.7,4.6c-0.2-0.7-3.3-5.9-5.7-4.6
				c-2.7,1.5,0.5,4.2,1.6,9.4c1.3,5.9,0.7,55.5,0.7,55.5h3.4h3.4C173.8,685.6,173.2,635.9,174.5,630z"/>
		</g>
		<g>
			<path class="st7" d="M192.4,620c0,0-2.3-10,2.2-13.1c4,3.1,2.3,13.1,2.3,13.1H192.4z"/>
			<path class="st7" d="M198.9,623.2c1.1-5,3.8-7.6,1.2-9.1c-2.3-1.3-5.3,3.8-5.5,4.4c-0.2-0.7-3.2-5.7-5.5-4.4
				c-2.6,1.4,0.1,4.1,1.2,9.1c1.2,5.7,5.8,35.1,2.7,41.1h1.6h1.6C193,658.3,197.6,628.8,198.9,623.2z"/>
			<path class="st7" d="M198.6,630c1.1-5.2,4.3-7.9,1.6-9.4c-2.4-1.3-5.5,3.9-5.7,4.6c-0.2-0.7-3.3-5.9-5.7-4.6
				c-2.7,1.5,0.5,4.2,1.6,9.4c1.3,5.9,0.7,55.5,0.7,55.5h3.4h3.4C197.9,685.6,197.3,635.9,198.6,630z"/>
		</g>
	</g>
	
		<ellipse transform="matrix(0.9975 -7.109971e-02 7.109971e-02 0.9975 -12.6464 14.7326)" class="st10" cx="200.6" cy="185" rx="8.3" ry="3.5"/>
	
		<ellipse transform="matrix(0.9975 -7.109971e-02 7.109971e-02 0.9975 -11.6489 14.7544)" class="st10" cx="201.4" cy="171" rx="2.5" ry="1.7"/>
	<path class="st2" d="M434.7,276c3.5,0.9,7.7,0.5,13.1,8.1c9.5,13.6,38.8,9.4,61.1,5.9c17.2-2.6,15.9-9.8,9.9-11.9
		s-14.1-5.6-19.3-12.7c-5.3-7-21.8-8.4-31.7-4.6s-24.9,2.5-32,3.9C428.7,266.2,425.1,273.7,434.7,276z"/>
	<g>
		<path class="st8" d="M464.9,235.8c0,0-5.5,8.6,0.9,11.5C465.7,247.3,470.9,244,464.9,235.8z"/>
		<path class="st8" d="M447.1,248c0,0-4.4,6.6,0.9,9.8C448,257.8,453,254,447.1,248z"/>
		<path class="st8" d="M481.3,241.6c0,0-7.3,2-5.4,7.9C475.8,249.5,481.6,250,481.3,241.6z"/>
		<path class="st6" d="M465.7,247.3c0,0,3.5,13.4-1.4,26.9"/>
		<path class="st6" d="M475.8,249.5c0,0-3.2,5.7-8.9,7.4"/>
		<path class="st6" d="M448,257.8c0,0,0,9.6,5.5,17.4"/>
		<ellipse class="st10" cx="482.5" cy="271.3" rx="4.3" ry="2.9"/>
		
			<ellipse transform="matrix(0.3392 -0.9407 0.9407 0.3392 57.5791 651.5029)" class="st10" cx="492.5" cy="284.8" rx="2.3" ry="4"/>
		<path class="st10" d="M494.6,277.1c0.2-1.6,3-3.4,9.5-1.9s9.5,4.7,6.9,6.7C508.5,283.9,494.1,280.4,494.6,277.1z"/>
	</g>
	<path class="st2" d="M313.2,347.1c-1.8-4.8,0.4-8.5,4.9-9.8c6.8-2,8-2.9,14.1-5.1c9.3-3.3,29-5.5,39.9,0
		c11.5,5.8,10.8,11.6,26.2,14.5c12,2.2,14.3,7.6,13.5,10.5s-5.1,4.4-12.6,4.4s-20.2-0.6-28-1c-7.8-0.4-12.4-0.2-18.3-3.6
		c-5.9-3.4-17.8-3.8-24.6-4.2S314.8,351.3,313.2,347.1z"/>
	<path class="st8" d="M312.6,314.9c0,0,0.2,10.2,8.6,9.1C321.2,323.9,323.1,315.5,312.6,314.9z"/>
	<path class="st6" d="M321.2,323.9c0,0,5.7,7.1,6.8,19.5"/>
	<path class="st8" d="M321.2,285.5c0,0-3.1,10.7,5.4,13C326.5,298.5,330.2,290.6,321.2,285.5z"/>
	<path class="st6" d="M326.5,298.5c0,0,13,23,12.2,41.2"/>
	<path class="st8" d="M318.1,304c0,0-0.8,9.3,6.5,9.3C324.6,313.2,326.7,307.2,318.1,304z"/>
	<path class="st6" d="M324.6,313.2c0,0,3.7,7.9,11.3,7.7"/>
	<path class="st8" d="M339.4,268c0,0-5.9,9.6,1,13.2C340.4,281.3,345.4,276,339.4,268z"/>
	<path class="st6" d="M340.4,281.3c0,1.8,5,14.4,5.1,58.4"/>
	<path class="st8" d="M361.1,279.3c0,0-6.6,6.8-1.4,12C359.7,291.3,365.9,287.6,361.1,279.3z"/>
	<path class="st6" d="M359.7,291.3c0,0-6.3,25.7-5.6,49.9"/>
	<path class="st8" d="M370.1,293.3c0,0-7.2,2.2-4.9,8.2C365.2,301.4,370.6,301.9,370.1,293.3z"/>
	<path class="st6" d="M365.2,301.4c0,0-2.7,6.4-8.8,7.2"/>
	<path class="st8" d="M387.3,300.5c0,0-10.9,3.6-6.8,11.2C380.5,311.7,388,312.7,387.3,300.5z"/>
	<path class="st6" d="M380.5,311.7c0,0-13.1,11.1-18.2,26.9"/>
	<ellipse class="st10" cx="375.4" cy="345.6" rx="4" ry="2.2"/>
	<ellipse class="st10" cx="396" cy="353.2" rx="9.1" ry="3.2"/>
	<path class="st6" d="M285.6,114.2c0,0,11.7,19.6,31.5,21.3"/>
	<g>
		<path class="st8" d="M179.8,144.7c0,0-3.3,11.8,5.1,13.8C184.8,158.5,189.8,150.8,179.8,144.7z"/>
		<path class="st8" d="M235.9,172.3c0,0-11.3,3.5-7.8,12.7C228,185,236.2,185,235.9,172.3z"/>
		<path class="st6" d="M228,185c0,0-10.5,18.7-12.1,47.4"/>
		<path class="st8" d="M262.7,174.5c0,0-11.9,1.2-10.2,11.6C252.5,186.1,259.9,189.1,262.7,174.5z"/>
		<path class="st6" d="M252.5,186.1c0,0-16.6,14.2-22.1,44.6"/>
		<path class="st6" d="M184.8,158.5c0,0,23.9,41.1,21.2,76.5"/>
		<path class="st8" d="M180.5,175.9c0,0-4.4,9.4,3.2,11.6C183.8,187.5,188,181.5,180.5,175.9z"/>
		<path class="st6" d="M183.8,187.5c0,0,2.6,25.5,22.5,34.4"/>
		<path class="st8" d="M167.3,208.5c0,0,2.4,8.6,11.3,8.3C178.6,216.8,179.6,208.3,167.3,208.5z"/>
		<path class="st6" d="M178.6,216.8c0,0,14.8,7.7,20.7,21.1"/>
		<path class="st8" d="M172.8,221.1c0,0-0.9,9.6,7.2,10.3C180.1,231.5,181.9,222.6,172.8,221.1z"/>
		<path class="st6" d="M180.1,231.5c0,0,3.2,3.3,4.8,10.2"/>
		<path class="st8" d="M234.1,196.8c0,0-7.2,2.5-6,9.5C228,206.3,234.2,206.5,234.1,196.8z"/>
		<path class="st6" d="M228,206.3c0,0-3.4,4.3-9.3,5.6"/>
		<path class="st8" d="M258.4,188.3c0,0-7,4.2-3.1,9.9C255.4,198.3,260.8,196.7,258.4,188.3z"/>
		<path class="st8" d="M272.7,191.1c0,0,0.5-9,13-6.1C285.8,185,280.9,194.4,272.7,191.1z"/>
		<path class="st6" d="M272.7,191.1c0,0-21.9,7.8-27.9,34.8"/>
		<path class="st6" d="M255.4,198.3c0,0-0.9,4,0,5.8"/>
	</g>
	<g>
		<path class="st6" d="M568.2,291.8C513.4,304.2,454.5,382,431,457.5"/>
		<path class="st6" d="M573.9,304.7c0,0-20.5-5-35.8,0"/>
		<path class="st6" d="M568.2,313.5c0,0-30.1-5.2-43.4,0.4"/>
		<path class="st6" d="M560.8,324.3c0,0-32.7-7.7-49.8,1.6"/>
		<path class="st6" d="M549.9,334.3c0,0-34.4-8.4-50.3,3.1"/>
		<path class="st6" d="M533.3,347.3c0,0-27-7.2-44.9,3.3"/>
		<path class="st6" d="M457.8,395.9c0,0,12.7-6.3,23.8-4.7"/>
		<path class="st6" d="M464.2,385c0,0,15.2-7.7,30.4-4.3"/>
		<path class="st6" d="M470.7,374.7c0,0,11-9.8,37.2-5.4"/>
		<path class="st6" d="M478.4,363.5c0,0,13-10,40.8-6"/>
	</g>
	<path class="st10" d="M324.5,559.9c-1,2,5.7,7.3,15.1,6.7c9.4-0.6,4.9-4.2,1.3-5.9C335.8,558.5,325.4,557.9,324.5,559.9z"/>
	
		<ellipse transform="matrix(0.1967 -0.9805 0.9805 0.1967 -301.3623 750.9399)" class="st10" cx="307.6" cy="559.4" rx="1.9" ry="4.5"/>
	<g>
		<path class="st2" d="M41.7,462.5c-5,7.8-5.2,24.7,30.6,40.4s89.2,36,110.1,41.8c20.9,5.8,21.7-2,14.5-5.2s-41.7-14.2-51-19.3
			c-9.9-5.4-6.4-9.8,4.8-9.4c11.3,0.4,36.6,4.1,36.6-9.1s-37.8-20.1-52.6-23.7c-14.7-3.6-27.3-9.9-44.9-17.7
			C76.2,454.3,48.7,451.5,41.7,462.5z"/>
		<g>
			<path class="st8" d="M96.1,473.7c0,0-0.9,11.1,8.3,11.3C104.4,485,106.5,476.6,96.1,473.7z"/>
			<path class="st8" d="M98.3,444.8c0,0-3.7,10.8,5,13.3C103.3,458.1,108.1,450.3,98.3,444.8z"/>
			<path class="st6" d="M103.3,458.1c0,0,8.5,14.9,8.6,41.4"/>
			<path class="st6" d="M104.4,485c0,0,4.7,5,7.4,9"/>
			<path class="st8" d="M134.5,459.5c0,0,3.1,12.6-5.8,14.2C128.7,473.7,124.4,465.3,134.5,459.5z"/>
			<path class="st6" d="M128.7,473.7c0,0-7.2,14.9-8.5,34.5"/>
			<path class="st8" d="M147,483.7c0,0,0,8.5-8.1,8.5C138.9,492.2,138.4,483.7,147,483.7z"/>
			<path class="st6" d="M138.9,492.2c0,0-5.4,3.3-10.2,16"/>
			<path class="st8" d="M150.3,495.1c0,0,4.9,4.4,9.8-2.2C160.2,492.9,152.8,488.8,150.3,495.1z"/>
			<path class="st6" d="M150.3,495.1c0,0-9.5,3.5-13.4,14"/>
		</g>
		<ellipse transform="matrix(0.2843 -0.9587 0.9587 0.2843 -407.8913 389.6409)" class="st10" cx="57" cy="468" rx="1.6" ry="4.7"/>
		<path class="st10" d="M72,467.6c-1.3,1.2,0.2,3,2,3.9c2.4,1.2,9.2,4,12.8,2.5c3.2-1.3,1.3-5.1-3.8-6.5
			C78.5,466.4,73.7,466.1,72,467.6z"/>
		<path class="st10" d="M57,478.8c-1.4,1.4,0.8,3.1,2.2,3.8c3.1,1.8,11.4,7.5,16.6,7.1s3.9-4.2,0-6.6S59,476.7,57,478.8z"/>
	</g>
	<g>
		<path class="st6" d="M201.2,586.2c0,0,41.8,45.1,43.8,95.3"/>
		<path class="st6" d="M196.6,590.2c0,0,6.8,0.3,10.5,3"/>
		<path class="st6" d="M196.6,597.2c0,0,9.3-0.5,16.5,4"/>
		<path class="st6" d="M196.6,604.8c0,0,15.2-2,23.6,6.9"/>
		<path class="st6" d="M201.2,612.8c0,0,15.4-1,22.7,4.8"/>
		<path class="st6" d="M204.9,620.6c0,0,14.7-1.5,23.8,5.7"/>
		<path class="st6" d="M210.8,628.2c0,0,16.1,0.8,21.6,5.6"/>
		<path class="st6" d="M218.4,636.6c0,0,11-1,16.7,3.3"/>
		<path class="st6" d="M228.7,643.8c0,0,5.2,0.2,8.8,2.4"/>
	</g>
	<g>
		<path class="st6" d="M294.4,734.8c0,0,6.2,6.5,17.8,7.4"/>
		<path class="st8" d="M292.7,706c0,0,10,3.9,5.7,13.2C298.4,719.2,289.3,718.2,292.7,706z"/>
		<path class="st8" d="M285.5,724.7c0,0-0.6,11.7,9,10.1C294.4,734.8,295.9,725.6,285.5,724.7z"/>
		<path class="st6" d="M298.4,719.2c0,0,7,20.7,30,38.4"/>
		<path class="st8" d="M305.1,677.6c0,0-3.1,10.1,4.8,11.9C309.9,689.4,314,682,305.1,677.6z"/>
		<path class="st6" d="M309.9,689.4c0,0,16.2,43.9,36.7,59.4"/>
		<path class="st8" d="M316,676c0,0-3.7,5.5,0.5,7.5C316.5,683.5,320.1,681.4,316,676z"/>
		<path class="st6" d="M316.5,683.5c0,0,9.4,18.2,2.9,27.6"/>
		<path class="st8" d="M308.8,707.3c0,0-2.7,6.7,3.5,9.2C312.3,716.5,315.1,711.1,308.8,707.3z"/>
		<path class="st6" d="M312.3,716.5c0,0,5.9,10.6,16.9,11.9"/>
		<path class="st6" d="M317.4,647.5c0,0,41.2,46.8,36.7,99.1"/>
		<path class="st8" d="M305.4,650.8c0,0-0.1,9.2,6.8,9.2C312.3,660.1,314.2,652.7,305.4,650.8z"/>
		<path class="st6" d="M312.3,660.1c0,0,10.1,14.9,25.7,18.3"/>
		<path class="st8" d="M312.8,634.7c0,0-3.6,10.9,4.7,12.8C317.4,647.5,322,640.8,312.8,634.7z"/>
		<path class="st8" d="M343.8,622.8c0,0-4.3,11.7,4,13.9C347.8,636.7,352.9,629.7,343.8,622.8z"/>
		<path class="st6" d="M347.8,636.7c0,0,12.7,35,16.4,105.5"/>
		<path class="st8" d="M364.1,621.1c0,0-7.5,5.4-2.8,13.1C361.3,634.1,367.5,631.2,364.1,621.1z"/>
		<path class="st6" d="M361.3,634.1c0,0-1,9.9-9.5,16.7"/>
		<path class="st6" d="M370.9,740.2c0,0,12.9-27.7,6.9-92.6"/>
		<path class="st8" d="M377.7,637.4c0,0-5.4,6.8,0,10.4C377.8,647.8,383.3,645.2,377.7,637.4z"/>
	</g>
	<g>
		<path class="st6" d="M248.4,607c0,0,7.6,26.4,1.2,69.9"/>
		<path class="st6" d="M243.9,637.7c0,0,6,1.6,8.2,7.3"/>
		<path class="st6" d="M242.3,630c0,0,7.5,2.4,9.8,9.7"/>
		<path class="st6" d="M240.2,622c0,0,9.8,4,11.7,11.9"/>
		<path class="st6" d="M240.2,616.1c0.5,0.1,8.6,3,11.3,11.2"/>
		<path class="st6" d="M242,611.6c0,0,6.6,2.2,8.8,9.2"/>
		<path class="st6" d="M244.8,609c0,0,4,1.9,5,4.8"/>
	</g>
	<g>
		<g>
			<path class="st9" d="M231.3,661.9c0,0,3.2,23.2,26.1,26.1C257.4,688,253.7,667.3,231.3,661.9z"/>
			<path class="st6" d="M231.3,661.9c0,0,7.7,15.7,26.1,26.1"/>
		</g>
		<g>
			<path class="st7" d="M255.8,641.4c0,0-18,30.3,1.6,46.5C257.4,688,270.6,670,255.8,641.4z"/>
			<path class="st6" d="M255.8,641.4c0,0-3.9,22.5,1.6,46.5"/>
		</g>
		<g>
			<path class="st9" d="M275.3,652.7c0,0,5.5,31.3-17.8,35.3C257.5,688,256.7,663.4,275.3,652.7z"/>
			<path class="st6" d="M275.3,652.7c0,0-5.7,20.8-17.8,35.3"/>
		</g>
		<g>
			<path class="st7" d="M285.9,667.3c0,0-0.9,18.8-28.4,20.7C257.5,688,265.1,668.8,285.9,667.3z"/>
			<path class="st6" d="M285.9,667.3c0,0-4.4,10.3-28.4,20.7"/>
		</g>
	</g>
	<path class="st0" d="M100.4,848.5c-7,7.9-13.6,14.6-12.6,21.9c0.8,5.8,11.1,7.2,17.6,7.3c20.3,0.4,52.3-6.3,67.8-9
		c17.9-3.1,49.4-7.8,73.7-12.7c25.1-5.1,45.9-13.8,65.6-15.9c19.7-2.1,31.1-13.3,28.9-21.4c-1.9-6.9-8.6-7.6-24.8-7.2
		c-16.2,0.3-35.9-5.9-53.8-9c-17.9-3.1-51-5.3-66.4,0c-29.8,10.3-40.8,13.8-56.1,20.6C125,829.9,111.8,835.7,100.4,848.5z"/>
	<g>
		<path class="st6" d="M109.5,841c9.2,14.8,14.2,25.3,17.7,35.3"/>
		<path class="st6" d="M183.2,831.9c0,0.9,3.7,14.2,1.8,34.8"/>
		<path class="st6" d="M237.9,800.2c0,0,0.6,24.6-3.6,49.7c-0.5,3.1-1,5.5-1.4,8.7"/>
		<path class="st6" d="M289.4,816.2c0,0,1.1,10.5-0.8,28.8"/>
	</g>
	<g>
		<path class="st7" d="M246.5,815.5c0.8,9.7,11.8,14.4,36.9,12.7c39.1-2.7,62.6-22.2,57.2-38.8c-5.4-16.5-47.7-17-69.8-5.3
			C249.7,795.4,245.7,806.2,246.5,815.5z"/>
		<path class="st6" d="M255.3,825.9c0,0,11.6-19.5,35.8-24.7c0,0,2.6-14.9,17.3-25.2"/>
		<path class="st6" d="M313.3,822c0,0-5-14.9-22.2-20.7c25.9-14.9,49.5-11.9,49.5-11.9"/>
		<path class="st6" d="M262.9,788.9c0,0,16.2,0.7,28.2,12.4"/>
	</g>
	<g>
		<path class="st9" d="M197.6,782.2c-2.2,5.2-2.6,15.7,12.1,19c18.7,4.2,57.1,4,70.6-10.9c12.3-13.5-1.7-27.8-28.5-28
			C224.2,762.2,203.5,768.5,197.6,782.2z"/>
		<path class="st6" d="M197.4,792.6c3.6-5.2,17.7-14.3,41.3-8.5c0,0-3.9-13.5-17.1-18.6"/>
		<path class="st6" d="M277.9,792.6c0,0-12.4-13.5-39.2-8.5c9.8-16.4,27.4-20.1,27.4-20.1"/>
		<path class="st6" d="M238.7,784.1c0,0-5.9,8.6-5,19.4"/>
	</g>
	<g>
		
			<ellipse transform="matrix(0.9913 -0.1317 0.1317 0.9913 -97.8251 45.7425)" class="st10" cx="296.9" cy="762.4" rx="2.7" ry="1.4"/>
		
			<ellipse transform="matrix(0.9592 -0.2827 0.2827 0.9592 -203.3808 118.4398)" class="st10" cx="308.7" cy="764" rx="5.6" ry="3.4"/>
	</g>
	<g>
		
			<ellipse transform="matrix(0.832 -0.5548 0.5548 0.832 -356.5423 380.9586)" class="st10" cx="450.7" cy="779.2" rx="3.1" ry="2.1"/>
		<path class="st10" d="M459.8,777.3c1.3,2.7,5.8,2.8,12,1c10.1-3.1,14.9-11.2,11.1-13.6C478,761.6,456.7,770.7,459.8,777.3z"/>
		
			<ellipse transform="matrix(0.7071 -0.7071 0.7071 0.7071 -390.3856 566.8964)" class="st10" cx="489.1" cy="754.7" rx="3.5" ry="2.5"/>
	</g>
	<g>
		<path class="st8" d="M381.4,711.3c0,0,17.6,16.1,42.1,12.3c24.4-3.7,18-39.6,18-39.6l-3.3-0.3c0,0,1.7,17.2-3.9,26.4
			c0,0-4.4-11.6,0.1-37l-4.1-0.4c0,0-4.9,23.9-1.4,35.7c0,0-7.7-13.1-7.6-43.3l-4.5-0.4c0,0-0.4,26.7,5.8,44.8
			c0,0-11.3-21.2-17.7-45.9l-3.7,1.7c0,0,5.7,28.1,16.3,45.3c0,0-18.3-15.8-28-37.5l-3.5,2.2c0,0,5.1,16.7,26.5,38.4
			c0,0-15.9-6.4-32.6-21.7l-1.8,3.4c0,0,11.6,13.8,31.3,22.3c0,0-15.8-1.2-27.5-11.3L381.4,711.3z"/>
		<g>
			<path class="st7" d="M424.1,678.7c0,0,9.1,39.6,47.9,39.6C472,718.3,461.4,684.1,424.1,678.7z"/>
			<path class="st6" d="M424.1,678.7c0,0,19.9,28.6,47.3,39.6"/>
		</g>
		<g>
			<path class="st7" d="M446.9,648.7c0,0,35.7,30,25.1,69.7C472,718.3,441.8,709.9,446.9,648.7z"/>
			<path class="st6" d="M446.9,648.7c0,0,17.7,31.2,25.1,69.7"/>
		</g>
		<g>
			<path class="st7" d="M517.9,684.9c0,0-11.8,30.8-45.8,33.4C472.1,718.3,479.6,688.9,517.9,684.9z"/>
			<path class="st6" d="M517.9,684.9c0,0-20.5,22.9-45.8,33.4"/>
		</g>
		<g>
			<path class="st9" d="M490.9,659.2c0,0,13.3,48.4-18.8,59.2C472.1,718.3,465,691.4,490.9,659.2z"/>
			<path class="st6" d="M490.9,659.2c0,0-1.1,33.4-18.8,59.2"/>
		</g>
	</g>
	<g>
		<g>
			<path class="st9" d="M80.7,769.9c0,0,9.9,40.3,55.3,49.1C136,819,125.5,776,80.7,769.9z"/>
			<path class="st6" d="M80.7,769.9c0,0,36.4,21.7,55.3,49.1"/>
		</g>
		<g>
			<path class="st7" d="M151,745.1c0,0,19.8,45.1-12,70.4C138.9,815.5,120,785,151,745.1z"/>
			<path class="st6" d="M151,745.1c0,0,0.9,42.9-12,70.4"/>
		</g>
		<g>
			<path class="st9" d="M174.1,757c0,0,13.1,43.1-26.7,58.6C147.3,815.6,144.9,781.3,174.1,757z"/>
			<path class="st6" d="M147.3,815.6c0,0,21.7-26.9,26.7-58.6"/>
		</g>
		<g>
			<path class="st7" d="M111.9,747.1c0,0,32.9,24,23.6,69C135.5,816,102,800.5,111.9,747.1z"/>
			<g>
				<path class="st6" d="M111.9,747.1c0,0,15.4,30.7,23.6,69"/>
			</g>
		</g>
	</g>
	<g>
		<path class="st8" d="M142.9,822.8c-2.6,6.5-2.6,20.8,18,22.2c28.2,1.9,60.7-15.7,61.4-35.9s-33-17.6-51.8-10.1
			C155.5,804.8,146.7,813.4,142.9,822.8z"/>
		<path class="st11" d="M143.9,820.6c0,0,18.3-8.5,37.3,1.3c-3.2-18.7,0.8-26.5,0.8-26.5"/>
		<path class="st6" d="M162.9,845c0,0,4.7-16.8,18.3-23.1c20.7-19.8,41-14.9,41-14.9"/>
		<path class="st6" d="M203.1,834.5c0,0-5.8-10.6-21.9-12.6"/>
	</g>
	<g>
		<path class="st7" d="M51,841.7c0,0,4,21.8,43.9,11.2s70.9-37,66.9-62.3c-3.3-21.1-47.7-11.4-74.7,4.6C61.6,810.4,47,825,51,841.7z
			"/>
		<path class="st6" d="M132.5,779.1c0,0-18.5,13.4-24.8,35.9c-14.1-14.9-36.7-9.1-36.7-9.1"/>
		<path class="st6" d="M113.3,846.7c0,0,1.3-19.8-5.6-31.7c-35,5.4-47.1,37.8-47.1,37.8"/>
		<path class="st6" d="M160.2,806.1c0,0-29.2-7.7-52.5,8.9"/>
	</g>
	<g>
		<path class="st10" d="M426.1,507.6c0,0,1.4,6.2,4.2,14c0,0-6.1-0.4-10.5-0.1c-0.9,0-1.6,0.8-1.6,1.7l0,0c0,0.6,0.3,1.1,0.7,1.4
			c3.1,2.1,9.1,4.7,14.6,5.6c1.5,0.2,2.9-0.8,3-2.4c0.2-4.5,0.5-13.9-1.3-20.1C430.5,503.8,426.1,507.6,426.1,507.6z"/>
		<path class="st10" d="M501.9,517.9c0,0,3.8,6.3,7.4,9l-6.4,7.3c-0.5,0.6-0.3,1.5,0.4,1.7l0,0c0.3,0.1,0.7,0.1,1-0.1l9-6.1
			c1.2-0.8,1.8-2.4,1.5-3.8l-2.9-11.4L501.9,517.9z"/>
		<path class="st8" d="M438.7,422.3c0,0-22.5,14.1-27.5,45.7c-4.9,31.6,14.9,39.6,14.9,39.6h9.1c0,0,15.7-21.1,20.8-37.8
			C456,469.7,467.9,419.8,438.7,422.3z"/>
		<path class="st6" d="M426.8,507.3c0,0-21.1-45.2,17.5-76.8"/>
		<path class="st6" d="M448.5,445.6c0,0-24,17.8-18.1,61.7"/>
		<path class="st6" d="M434.4,507.6c0,0,3.5-30.7,18.9-45.4"/>
		<line class="st6" x1="423.2" y1="289" x2="481.7" y2="314.5"/>
		<path class="st7" d="M440.5,324.4c0,0,0.2,10.3-2.3,17.8s-12.8,41.2,0,66.7c0,0,25,6.9,48.7,7.2c0,0-9-40.4-30.9-74.1
			c-13.1-20.2-4.7-30.5-4.7-30.5L440.5,324.4z"/>
		<g>
			<circle class="st10" cx="427.4" cy="421.9" r="4.5"/>
			<line class="st6" x1="420.1" y1="423.1" x2="429.5" y2="428.3"/>
			<path class="st6" d="M401.2,526.6c1-2.3,23.7-100.9,23.7-100.9"/>
		</g>
		<g>
			<path class="st10" d="M441.6,297c0,0-9,11.7-4.6,22.7c3.7,9.4,15.3,7.9,20.4-1.1c4.6-8.2,4.8-16.3,4.8-16.3L441.6,297z"/>
			<g>
				<ellipse transform="matrix(0.3614 -0.9324 0.9324 0.3614 -3.5795 606.0379)" cx="440.6" cy="305.6" rx="1.6" ry="0.6"/>
				<ellipse transform="matrix(0.3614 -0.9324 0.9324 0.3614 -2.5386 610.3401)" cx="444.3" cy="307" rx="1.6" ry="0.6"/>
			</g>
		</g>
		<path class="st8" d="M438.1,408.9c0,0,0.5,97.6,63.7,109l10-3.3c0,0-11.4-64.3-25.1-98.5L438.1,408.9z"/>
		<path class="st8" d="M441.6,297c0,0,1.8-5.1,8.8-7.3c7.6-2.3,12.6,0.8,22.1-2.2c5.3-1.6,9.5-2.3,11.3,1.5c1.8,3.7-1,7.8-7.8,8.1
			c-6.8,0.3-11.7,1.9-14.2,8.7L441.6,297z"/>
		<path class="st7" d="M451,354.3c0,0,2.3,17.2-2,28.2c-4.3,10.9-22.2,17.5-22.1,31.8c0.1,13.8,11.2,14.3,14.7,6.9
			c3.4-7.5,5.1-16,16.2-21.4c13-6.3,11.6-19.2,8.1-27.9c-3.8-9.4-8.1-16-8.1-16"/>
		<path class="st6" d="M446.5,410.2c0,0-1.6,74.7,56.6,107.4"/>
		<path class="st6" d="M459.8,412.1c0.9,35,19.5,82.3,46.9,104.2"/>
		<path class="st6" d="M475,414.4c0,0-1.4,43.2,34.6,101"/>
	</g>
	<g>
		<g>
			<path class="st9" d="M475,523.7c0,0-10.1,48.5,25.5,65.4C500.5,589.1,508.8,550,475,523.7z"/>
			<line class="st6" x1="475" y1="523.7" x2="500.5" y2="589.1"/>
		</g>
		<g>
			<path class="st7" d="M510.6,518c0,0-28.3,36.6-12.5,72.7C498.1,590.7,523.7,573.6,510.6,518z"/>
			<line class="st6" x1="510.6" y1="518" x2="498.1" y2="590.7"/>
		</g>
		<g>
			<path class="st9" d="M553.2,535.4c0,0-49.4,14.1-51.8,58C501.4,593.4,540.1,595.3,553.2,535.4z"/>
			<line class="st6" x1="553.2" y1="535.4" x2="501.4" y2="593.4"/>
		</g>
		<g>
			<path class="st9" d="M565.3,583.4c0,0-46.3-13.4-61.5,9C503.8,592.5,525.1,611.8,565.3,583.4z"/>
			<line class="st6" x1="565.3" y1="583.4" x2="503.8" y2="592.5"/>
		</g>
	</g>
	<g>
		<path class="st0" d="M531.4,597c0,0,1.4,9.2-1.2,14.1c-2.6,4.9-16.7,0.3-21.8-2.3s-18.5-7.7-26.7-10.3s-31.7-10.1-43.4-11.9
			c-18-2.8-31.8-8.9-36.7-16.1v-9.8l88.5,18L531.4,597z"/>
		<path class="st2" d="M401.6,560.8c-0.1-4.6,15.1,0.6,34.5,1.3c17.9,0.7,60.1-0.3,69.5,8.5s8.3,15.2,19.3,19.9s5.5,11.3,0,11.9
			s-13.2-1.3-23.2-6.6c-14-7.4-40.4-14-54.9-17.1c-8-1.7-21.8-1.8-32.5-7.1S401.7,563.1,401.6,560.8z"/>
		
			<ellipse transform="matrix(9.534559e-02 -0.9954 0.9954 9.534559e-02 -130.5597 1003.9047)" class="st10" cx="487" cy="573.8" rx="2" ry="3.9"/>
		
			<ellipse transform="matrix(0.3293 -0.9442 0.9442 0.3293 -212.9243 865.16)" class="st10" cx="502.5" cy="582.5" rx="3.3" ry="7.7"/>
	</g>
	<g>
		<g>
			<path class="st7" d="M393.3,762.4c-5.3-3.5-10.6-3.8-14.1-3.5c-2.3,0.2-4,0.7-4.7,1l-1.1-2.5c0.8-0.3,2.8-0.9,5.5-1.2
				c4-0.4,9.9,0,15.9,3.9L393.3,762.4z"/>
		</g>
		<g>
			<path class="st9" d="M431.4,744.1c0,0-0.7-5,5.5-8.1c5-2.5,10.9-0.5,15.1-4.5c0,0,0.4,4,3.1,7c3.4,3.8,2.7,9.6,1.1,11.8
				l-15.6,3.6L431.4,744.1z"/>
			<path class="st9" d="M448.6,737.7c0,0-4.7,6-5.3,15.7"/>
		</g>
		<g>
			<path class="st9" d="M420.6,726.2c0,0-1.9,6.6-9.4,15c-5.2,5.7-2.1,16.1,12.4,16c11.8-5.9,12.5-15.2,3.7-22.6
				C422,730.2,420.6,726.2,420.6,726.2z"/>
			<path class="st9" d="M421.9,736.7c0,0-1.1,10.6,1.6,20.5"/>
		</g>
		<g>
			<path class="st7" d="M365.2,780.7c1.2-1,5.1-4.5,7.5-10.6l2.6,1c-2.8,7-7.2,10.8-8.5,11.8L365.2,780.7z"/>
		</g>
		<g>
			<path class="st7" d="M387.4,767.6l-0.7-1.3c1.7-1.2,8.4-6.2,12.3-11.4l2.2,1.6c-4.3,5.7-11.5,11.1-13.4,12.3L387.4,767.6z"/>
		</g>
		<g>
			<path class="st7" d="M425.2,757.9c-2.6-2.2-6.2-3.2-10.6-2.8c-2.6,0.2-4.8,0.9-5.7,1.2l-1-2.6c1-0.3,3.4-1.1,6.4-1.4
				c3.7-0.3,8.8,0,12.8,3.5L425.2,757.9z"/>
		</g>
		<g>
			<path class="st7" d="M456.9,748.5c-1.9,0.2-3.3,0.2-4,0.3l-0.1-2.8c0.7,0,2-0.1,3.8-0.3c3.9-0.4,9.5-1.2,14-2.9l1,2.6
				C466.8,747.2,461,748.1,456.9,748.5z"/>
		</g>
		<g>
			<path class="st9" d="M392.5,768.4c0,0,5.3-2.4,9.2,0.4c4.5,3.2,4.9,13.5-2.6,17.4c-6.7,3.5-12.4,3.8-20.7,8.1c0,0,2.1-6-1.1-13
				c-3.3-7.3-3-12.7,0.9-15.8C382.1,762.4,389.4,762.5,392.5,768.4z"/>
			<path class="st9" d="M392.5,768.4c0,0,3.4,10.5-9,20.1"/>
		</g>
		<g>
			<path class="st9" d="M375,757.9c0,0,6.8-0.4,7.4,6c0.6,6.7-7.7,10.9-17.4,9.5c-8.7-1.3-16.3,0.7-16.3,0.7s4-4.8,4.3-14
				C353.4,749.3,370.1,747.2,375,757.9z"/>
			<path class="st9" d="M357.6,768c0,0,6.8-10.8,17.4-10.1"/>
		</g>
		<g>
			<path class="st9" d="M423.2,754.4c0,0-7.2,2.6-4.8,8.9s10.3,5.5,18.3,1.5s10-7.9,15.2-7.8c0,0-6.9-9.5-14.6-11.4
				C431.4,744.1,422.6,745.8,423.2,754.4z"/>
			<path class="st9" d="M423.2,754.4c0,0,5.4,4.4,18.5,2.7"/>
		</g>
		<g>
			<path class="st9" d="M398.5,758.1c0,0-8.8,2-9.9-5.4c-0.9-6.1,4.7-8.2,10.7-9c8.2-1.1,13.5-4.4,13.5-4.4s-1.5,6.1-0.6,11.4
				C413.8,760.6,402.7,764.4,398.5,758.1z"/>
			<path class="st9" d="M406.5,749.7c0,0-1.5,4.7-8.1,8.4"/>
		</g>
		<g>
			<path class="st9" d="M368,780.8c0,0,5.9-1.1,6.1,4.8c0.2,5.9-10.4,14.2-26.8,8.6c0,0,4-1.6,6.6-9
				C357.2,776.1,365.9,777.4,368,780.8z"/>
			<path class="st9" d="M368,780.8c0,0,0,7.7-10.4,9.2"/>
		</g>
		<g>
			<path class="st9" d="M408.4,758.9c0,0-9.3,1.9-4.1,12.1c4.6,8.9,17.3,2.3,23.2,6c0,0,0.1-6.8-2.2-13.5
				C422.3,755.2,412.5,751.1,408.4,758.9z"/>
			<path class="st9" d="M408.4,758.9c0,0,2.9,10.3,13.6,12.1"/>
		</g>
		<g>
			<path class="st9" d="M455,748c0,0,7.2-2.8,10.1,3.1c2.6,5.3-1.7,12.8-7.6,16.1s-8,7-8,7s-8.7-5.3-10.4-15
				C437.5,749.4,447,741.4,455,748z"/>
			<path class="st9" d="M455,748c0,0,1.1,3.3,0,8.5c-1.2,5.6-5,7.1-5.2,11.5"/>
		</g>
		<g>
			<path class="st9" d="M466.3,744.4c0,0-2.6,6.8,4.6,8.3c6.3,1.3,10.8-4.9,12.2-11.2c1.3-6.4,2.7-8,2.7-8s-4.3,1.4-11.2,0
				c-6.8-1.4-10.8-0.4-11.8,4.2C461.8,742.3,466.3,744.4,466.3,744.4z"/>
			<path class="st9" d="M479.6,738.5c0,0-4.1,5.2-13.2,5.9"/>
		</g>
	</g>
	<g>
		<g>
			<path class="st12" d="M203,681.9L203,681.9c-4.3,2.8-9.8,2.8-14.1,0l0,0c-4.3-2.8-9.8-2.8-14.1,0l0,0c-4.3,2.8-9.8,2.8-14.1,0
				l0,0c-4.3-2.8-9.8-2.8-14.1,0l0,0c-4.3,2.8-9.8,2.8-14.1,0l0,0c-4.3-2.8-9.8-2.8-14.1,0l0,0c-1.6,1-3.4,1.7-5.2,2l0.4,6.9
				l89.4-1.2"/>
		</g>
		<g>
			<path class="st6" d="M203,681.9L203,681.9c-4.3,2.8-9.8,2.8-14.1,0l0,0c-4.3-2.8-9.8-2.8-14.1,0l0,0c-4.3,2.8-9.8,2.8-14.1,0l0,0
				c-4.3-2.8-9.8-2.8-14.1,0l0,0c-4.3,2.8-9.8,2.8-14.1,0l0,0c-4.3-2.8-9.8-2.8-14.1,0l0,0c-1.6,1-3.4,1.7-5.2,2"/>
		</g>
	</g>
	<g>
		<g>
			<g>
				<path class="st7" d="M322.5,369.8c0,0,15-2.3,17.5,2.1s-5.6,5.9-4.7,8.9s13.9-0.8,13.3,6.2c-0.7,7-8.6,2.5-9.1,5.4
					c-0.5,3,7.2,7.9,3.6,12s-9.5-4.1-12.8-5.6s-8.7,10.1-13.2,4.2s7.1-7.9,5.7-13.8s-7.9,5.9-15.4,6.5s-9.3-4.6-5.2-12.2
					s6.3-6.9,6.5-9.6s-4.5-2.6-3.8-6.5S318.5,363.4,322.5,369.8z"/>
				<path class="st6" d="M322.6,371.1c0,0,9,7.2,11.4,20.6"/>
				<path class="st6" d="M308.6,386.9c0.1-0.5,3.7-10.7,14.1-14.6"/>
			</g>
			<g>
				<path class="st7" d="M324.7,410.2c0,0,11.7,4.5,10,10.1s-5.9,0.1-7.1,4.2c-1.2,4.1,10.8,3.6,8.8,9.5s-7.1-2-9.9,0.9
					c-2.9,2.9-1,10.3-6.9,8.7c-5.9-1.6-0.7-7.4-3.9-9.9s-9.9,2.2-10.7-3.3s7.8-5,8.3-8.8s-7.2,4.4-9.6,0.2
					c-2.4-4.2,4.9-11.1,14.3-12.4C323.4,408.8,324.7,410.2,324.7,410.2z"/>
				<path class="st6" d="M319.8,437.7c0,0,4.3-17.1,2.5-28.3"/>
			</g>
			<path class="st7" d="M280.8,375.7c0,0,3.6-5.7,10.6-6.9s5.5,3.3,4.6,5.7c-0.9,2.4-1.7,5.4,5.1,4.9s8,2.9,4.2,5.3
				s-4.2,3.4-2.4,4.9s7.1,4.4,4.7,7.6c-2.4,3.1-6.9,3.2-11.2,0.7s-5.1,0.6-4.9,2.7s-1.5,6.7-5.5,5s0.6-9.8-1.2-12.8
				s-4.3,7.8-8.1,4.9C273,394.6,275.4,383,280.8,375.7z"/>
			<g>
				<path class="st7" d="M235.2,386.6c0,0,12.1-0.5,15.3,3.8s-5.8,3.3-5.3,5.9c0.4,2.6,13.2-0.2,12.9,4.4s-9-0.4-10.2,2.5
					c-1.3,2.9,7.6,8.9,2.9,12.6s-6.3-7.9-9.3-8.6c-3-0.8-2,8.9-6.5,7.5c-4.6-1.3-0.9-7.3-1.9-11s-3.7,5.1-6.7,2.7
					C223.2,403.9,226.3,392.7,235.2,386.6z"/>
				<path class="st6" d="M235.2,386.6c0,0,5.6,4.6,8.5,18.6"/>
			</g>
			<path class="st7" d="M269.5,403.5c0,0-20.1-4.3-21.9,1.6s9.3,3.2,9.6,5.7s-10.4,4.6-7.6,10.2c2.8,5.6,8.5-1.8,10.3-0.3
				s-4.1,11,2.5,11.9s3.8-11.2,5.6-13.1s0.5,9.8,6.4,7.6C280.2,425.1,269.5,403.5,269.5,403.5z"/>
			<g>
				<path class="st7" d="M205,352.4c-0.3-4.8,9.7-2.3,12.4-4.7c2.7-2.4-2.6-3.1-2.1-6.9c0.5-3.9,7.6-3.9,14.9,4.1
					c6.6,7.2,5.6,27.1-0.2,26.9c-3-0.1-3.2-7.9-6.6-7.5s-8,7.5-11.2,4.1c-3.1-3.4,4.5-7.7,3.4-11.2
					C214.5,353.7,205.3,357.1,205,352.4z"/>
				<path class="st6" d="M217.8,361.8c0,0,4.4-12.4,14.1-14.5"/>
			</g>
			<g>
				<path class="st7" d="M267.7,358.9c0,0-14.4-8.1-16.7-2.9c-1.2,2.7,6,4.4,5.6,6.6c-0.7,3.9-12.9-0.6-13.1,5.4
					c-0.1,4.7,9.3,0.9,10.7,3.5c2.1,4-1.7,11.4,4.4,11.6c5.2,0.2,0.5-10.1,4.7-10.8c4.2-0.7,6.8,6.4,9.8,3.3
					C276.3,372.4,267.7,358.9,267.7,358.9z"/>
				<path class="st6" d="M267.7,358.9c0,0-6.5,1.2-9.7,11"/>
			</g>
			<path class="st7" d="M229,377.1c0,0-17.8-6.8-20.4-0.8c-2.5,6,9.4,3.8,7.4,8c-1.9,4.2-13.3,3.4-11.1,10.2
				c2.2,6.8,14.7-2.1,16.8,1.6c2.2,3.7-2.8,8.6,3.6,8.8C232.6,405.2,232.5,384.7,229,377.1z"/>
			<path class="st6" d="M229,377.1c0,0-4.3,9.6-16.4,13.9"/>
		</g>
		<g>
			<path class="st8" d="M235.2,352.4c0,0-2.2,6.4,0.9,9c0,0-2.8,3.5-0.2,6.3c0,0-1.7,5.9,3.2,6.2c0,0-1.4,10.8,6.7,13
				c0,0,1,5.5,6.7,3.5c0,0,1.1,1.1,2.9,1.5c2.7,0.5,5.7-1.6,5.2-4.9c-0.2-1.6-1.4-3.3-3.7-4.6c0,0,1.2-6.9-4.1-9.9
				c0,0,1.8-6.7-5-8.8c0,0-0.8-5.1-5.4-5.1C242.4,358.6,242.7,353.6,235.2,352.4z"/>
			<path class="st6" d="M242.2,369.4c0,0-1.3,5.7,3.7,6.7c0,0-0.8,5.2,3.7,6.5"/>
			<path class="st6" d="M242.4,362.4c0,0,4.5,1.4,3.8,6.6c0,0,6,2,5.2,9.2c0,0,4.2,2.7,3.1,8.5"/>
		</g>
		<g>
			<path class="st8" d="M229.8,373.9c0,0-4.4,2.2-3.3,5.2c0,0-8.8,5.2-6,14.7c0,0-7.8,5.8-3,18.9c0,0-3,6.8,2.3,10.9
				c-0.2,5.3,7.1,8.1,9.1,0.9c0,0,3.6-0.6,3.1-7c0,0,4.4-2.1,2.1-7.3c0,0,5-5-0.7-13.4c0,0,3.7-5.8-0.3-9.7c0,0,2.3-4.4-1.9-6.9
				C231.3,380.2,232.5,377,229.8,373.9z"/>
			<path class="st6" d="M226.9,386.9c0,0-4.9,4.2-2,10.4c0,0-4.1,4.4-1.2,10.2c0,0-3.8,3.9-1.2,9.2"/>
			<path class="st6" d="M229.3,395.8c0,0,1.7,3.3-0.8,5.6c0,0,3.9,7-2.6,12.3"/>
		</g>
		<g>
			<path class="st8" d="M279.5,373.5c0,0-1.9,1.9-0.8,4.3c0,0-3.5,5.5-0.2,9c0,0-3.1,5.8,0.8,10.2c0,0-1.7,7.6,4.7,9.7
				c0,0-2.1,7.8,6.3,8.9c0,0,2.6,6.5,7.3,6.4s2.9-6.6,2.9-6.6s3.9-1.6,1.4-7c0,0,1-2.3-0.8-3.3c0,0,3.3-6.4-3-9.9
				c0,0,1.4-8-5.8-10.3c0,0,1-6-7.2-7C285.2,378,284,374.6,279.5,373.5z"/>
			<path class="st6" d="M281.7,381.3c0,0-1,5.6,4.2,6.8c0,0-2.6,6.2,2.4,8.3c0,0-2.6,8.9,3.1,10.2c0,0-1.1,8.6,4,8.8"/>
			<path class="st6" d="M289.4,388.9c0.2,0,3,1.8,1.6,4.9c0,0,6.6,3.2,4.5,10c0,0,3.6,3.9,2.3,8.9"/>
		</g>
		<line class="st6" x1="230.7" y1="335.1" x2="242.5" y2="470.5"/>
		<line class="st6" x1="261.6" y1="339.8" x2="305.7" y2="475.1"/>
		<line class="st6" x1="320.1" y1="350.6" x2="335.1" y2="470.5"/>
		<line class="st6" x1="235.3" y1="352.4" x2="231.7" y2="347.2"/>
		<path class="st6" d="M229.8,373.9c0,0,1.7-3.3,4-3.8"/>
		<g>
			<g>
				<path class="st8" d="M276.2,387.2c0,0-6.9,2.1-6.5,11.1c0,0-6.3,5.1-3.5,12.2c0,0-4.6,7.3,1.4,11c0,0-2.3,10.2,5.4,10.5
					c0,0,3.7,4.2,6.4-0.6c0,0,4.8-4.3,1.7-10.1c0,0,3.3-3.6,1.5-9c0,0,3.7-6.5-0.9-12.7c0,0,1.2-4.8-2.8-7.4
					C278.9,392.2,279.3,388.9,276.2,387.2z"/>
				<path class="st6" d="M273.7,398.9c0,0-3.8,5.2-0.6,8.7c0,0-4.8,6.4,0.5,10.9c0,0-3.6,6,2.3,8.5"/>
				<path class="st6" d="M277,405.4c0,0,1.9,2.1-0.2,5c0,0,3.3,3.4,0.1,8.4"/>
			</g>
			<line class="st6" x1="276.2" y1="387.2" x2="276" y2="383.8"/>
		</g>
		<path class="st6" d="M270.8,368c0,0,5.8,0.2,8.7,5.5"/>
		<g>
			<g>
				<path class="st8" d="M321.2,372.1c0,0-7.6,4-5.2,13.5c0,0-5.8,2.9-3.6,10.6c0,0-5.2,7.4-1.3,13.8c0,0-4.3,8.7,2.3,11.9
					c0,0,0.2,5.4,3.9,5.6c3.8,0.2,3.5-5.9,3.5-5.9s6.3-3.8,3.4-10.3c0,0,5.1-6.5,1.4-11.2c0,0,3.6-9-1.6-12.5
					C323.9,387.6,327.8,377.9,321.2,372.1z"/>
				<path class="st6" d="M318.8,390.7c0,0-3.5,2.3-1.2,7.8c0,0-3.4,3.3-1.3,10c0,0-2.7,5.2,0.2,8.2"/>
				<path class="st6" d="M320.8,399.9c0,0,1.4,1.6-0.1,3.7c0,0,2.8,3.3,0.2,7.9"/>
			</g>
			<line class="st6" x1="321.2" y1="372.1" x2="322.1" y2="367"/>
		</g>
	</g>
	<g>
		<g>
			<path class="st7" d="M252.1,474.7c-0.2-3.8,3.9-6.5,9.9-5.2c6.8,1.6,7.6-3.1,15.3,0.5c5.9,2.8,6.6,10.9,6.6,10.9
				s-2.9-0.3-6.6,3.7c-3.3,3.6-10,4.3-15.5-0.9C257.7,479.8,252.5,480.4,252.1,474.7z"/>
			<path class="st13" d="M260.1,474.8c0,0,11.1-3.1,23.8,6.2"/>
		</g>
		<g>
			<g>
				<path class="st9" d="M299,496.7c-0.5-6.1,4.6-11.4,4.8-11.6l1.2,1.2c0,0-4.8,5-4.3,10.3L299,496.7z"/>
			</g>
			<g>
				<g>
					<path class="st9" d="M329.2,497.1c-3.4,6.1-11.6,7.8-11.9,7.9l-0.4-1.9c0.1,0,7.6-1.6,10.6-7L329.2,497.1z"/>
				</g>
			</g>
			<g>
				<path class="st9" d="M336.5,492.1c-3,6.1,0,13.6,0.2,13.9l1.8-0.7c0-0.1-2.9-7-0.2-12.3L336.5,492.1z"/>
			</g>
			<path class="st9" d="M341.1,507.2c-6.9,0-10.1-4.5-13.3-8.9c-2.3-3.2-4.7-6.6-8.6-8.2c-4.6-1.8-7.6-1.9-10.2-1.9
				c-3.3,0-6.1-0.1-10.2-3.4c-3.3-2.7-7.4-3.9-11.3-3.4c-3.4,0.5-6.3,2.2-8.1,4.9c-4.9,7-12.2,8.4-12.5,8.4l-0.4-2.4
				c0.1,0,6.7-1.3,10.9-7.4c2.3-3.3,5.8-5.4,9.8-6c4.6-0.6,9.4,0.8,13.2,3.9c3.4,2.8,5.6,2.8,8.7,2.9c2.7,0,6.1,0.1,11.1,2.1
				c4.6,1.8,7.2,5.5,9.7,9c3.5,4.8,6.5,9,14,7.7l0.4,2.4C343.1,507.1,342.1,507.2,341.1,507.2z"/>
			<g>
				<path class="st9" d="M359.5,498.7c-0.6-8.4,6.4-15.6,6.7-15.9l1.7,1.7c-0.1,0.1-6.6,6.7-6.1,14L359.5,498.7z"/>
			</g>
			<g>
				<g>
					<path class="st9" d="M287.5,496.2c-2.6-7,1.7-14.8,1.9-15.2l1.8,1c0,0.1-4,7.3-1.7,13.4L287.5,496.2z"/>
				</g>
			</g>
		</g>
		<g>
			<path class="st7" d="M301.6,516.5c-2.7,0.9-5.5-1.5-5.7-6.1c-0.2-5.2-3.8-4.9-2.7-11.1c0.8-4.8,6.5-7,6.5-7s0.4,2.1,4,4
				c3.2,1.7,4.9,5.5,2.2,10.5C303.9,510.7,305.7,515.1,301.6,516.5z"/>
			<path class="st13" d="M300.1,510.8c0,0-4.4-7.3-0.3-18.3"/>
		</g>
		<g>
			<path class="st7" d="M280.7,506.4c0,0-9.2,1.3-12.2,8.3s-1.3,13.9-2.4,19.6c-1,5.7,2.1,8.7,7.8,3.7s5.2-4.7,12.1-9.1
				c6.9-4.4,3.4-16.8,2.5-18.7C287.6,508.3,285.1,507,280.7,506.4z"/>
			<path class="st13" d="M271.3,532c0,0,3.2-18.8,13.6-24.6"/>
		</g>
		<g>
			<g>
				<path class="st7" d="M353.8,472.7c2.1,2.7-1.3,5.8-1.2,9c0.5,12.3-6.5,17.7-16.5,13.4c-3.7-1.6-6.9-5.5-5-10.9
					c2.2-6.3,7.5-3.4,12.2-9.7C347.4,469.1,352,470.3,353.8,472.7z"/>
				<path class="st13" d="M336.2,495.1c0,0,1.7-11.2,12.3-18.4"/>
			</g>
		</g>
		<g>
			<path class="st7" d="M304.1,458.4c3.1-1.7,7,0.6,8.3,6.2c1.4,6.3,5.7,5.1,5.7,13c0,6.1-6.5,9.9-6.5,9.9s-0.9-2.5-5.7-4.1
				c-4.3-1.4-7.1-5.7-4.9-12.3C302.6,466.1,299.5,461,304.1,458.4z"/>
			<path class="st13" d="M307.2,465.2c0,0,7,8,4.3,22.3"/>
		</g>
		<g>
			<circle class="st8" cx="286.4" cy="506" r="12.1"/>
			<circle class="st2" cx="286.4" cy="509.8" r="2.5"/>
			<circle class="st14" cx="286.4" cy="509.8" r="0.8"/>
		</g>
		<g>
			<circle class="st8" cx="319.4" cy="485" r="12.1"/>
			<circle class="st2" cx="314.5" cy="490" r="2.5"/>
			<circle class="st14" cx="314.5" cy="490" r="0.8"/>
		</g>
		<g>
			<circle class="st8" cx="314.2" cy="511.3" r="12.1"/>
			<circle class="st2" cx="310.8" cy="517.5" r="2.5"/>
			<circle class="st14" cx="310.8" cy="517.5" r="0.8"/>
		</g>
		<g>
			<circle class="st8" cx="352.6" cy="505.4" r="13.3"/>
			<circle class="st2" cx="355.1" cy="499.8" r="2.5"/>
			<circle class="st2" cx="355.1" cy="499.8" r="0.8"/>
		</g>
		<g>
			
				<ellipse transform="matrix(0.2898 -0.9571 0.9571 0.2898 -188.4207 694.2828)" class="st8" cx="373.6" cy="474.1" rx="14.3" ry="14.3"/>
			<circle class="st2" cx="379.1" cy="468" r="2.3"/>
			<circle class="st14" cx="379.1" cy="468" r="0.7"/>
		</g>
		<g>
			<circle class="st8" cx="291.5" cy="470.3" r="12.6"/>
			<circle class="st2" cx="290.2" cy="463.1" r="2"/>
			<circle class="st14" cx="290.2" cy="463.1" r="0.6"/>
		</g>
		<g>
			<circle class="st8" cx="264.2" cy="505.2" r="13.9"/>
			<circle class="st2" cx="261.5" cy="513.5" r="2.6"/>
			<circle class="st14" cx="261.5" cy="513.5" r="0.8"/>
		</g>
	</g>
	<g>
		<g>
			<path class="st7" d="M208.3,497.8c0,0-1.1,51.9,38.6,61.1C246.8,559,239,519.9,208.3,497.8z"/>
			<path class="st6" d="M246.8,559c-25.8-24.7-38.6-61.1-38.6-61.1"/>
		</g>
		<g>
			<path class="st9" d="M262.3,515.4c0,0,11.7,36.8-14.8,43.4C247.5,558.8,240.5,533.2,262.3,515.4z"/>
			<path class="st6" d="M262.3,515.4c0,0-2.1,26.5-14.8,43.4"/>
		</g>
		<g>
			<path class="st7" d="M294.8,521.6c0,0-9.2,41.6-47.6,37.5C247.1,559,260,532,294.8,521.6z"/>
			<path class="st6" d="M294.8,521.6c0,0-16.6,28.3-47.6,37.5"/>
		</g>
		<g>
			<path class="st9" d="M236.7,508.7c0,0-10.4,32.9,10.4,50.2C247.1,558.8,256,533.7,236.7,508.7z"/>
			<line class="st6" x1="236.7" y1="508.7" x2="247.1" y2="558.8"/>
		</g>
	</g>
	<g>
		<g>
			<path class="st8" d="M374.5,488.2c0,0-3.7,8.3,3.1,9.9C377.6,498.1,382.7,493.8,374.5,488.2z"/>
			<path class="st8" d="M371.6,510.3c0,0-1.3,9.7,6,8.5C377.6,518.8,379.4,512.4,371.6,510.3z"/>
			<path class="st8" d="M365,518.8c0,0-4.7,7.3,1.9,9.8C366.8,528.6,371.5,523.7,365,518.8z"/>
			<path class="st8" d="M358,538.8c0,0-0.8,9.1,6.4,8.4C364.4,547.1,365.5,540.9,358,538.8z"/>
			<path class="st8" d="M392.7,504.2c0,0-5,8.5,1.7,12.2C394.4,516.4,400.6,511.3,392.7,504.2z"/>
			<path class="st8" d="M417.1,513.8c0,0-6.5,7.5-2.3,12.5C414.8,526.3,421.3,524.1,417.1,513.8z"/>
			<path class="st8" d="M443.3,536.3c0,0-10.3-2.3-10.3,6.7C433,543,440.9,546.6,443.3,536.3z"/>
		</g>
		<path class="st6" d="M377.6,498.1c0,0,11.2,19.9,12.4,60.2"/>
		<path class="st6" d="M377.6,518.8c0,0,3.1,6.2,9.3,9.4"/>
		<path class="st6" d="M366.8,528.6c0,0,2.7,21.3,12.6,29.8"/>
		<path class="st6" d="M364.4,547.1c0,0,4.5,5.7,9.7,4.5"/>
		<path class="st6" d="M394.4,516.4c0,0,4.5,17.9,2.3,38.5"/>
		<path class="st6" d="M414.8,526.3c0,0-4.8,21-10.8,28.6"/>
		<path class="st6" d="M433,543c0,0-11.4,7.1-17.1,19.5"/>
	</g>
</g>
</svg>
