<?xml version="1.0" encoding="utf-8"?>
<!-- Generator: Adobe Illustrator 22.1.0, SVG Export Plug-In . SVG Version: 6.00 Build 0)  -->
<svg version="1.1" id="圖層_1" xmlns="http://www.w3.org/2000/svg" xmlns:xlink="http://www.w3.org/1999/xlink" x="0px" y="0px"
	 viewBox="0 0 643.7 987.3" style="enable-background:new 0 0 643.7 987.3;" xml:space="preserve">
<style type="text/css">
	.st0{fill:#FF6C5C;stroke:#000000;stroke-width:0.43;stroke-linejoin:round;stroke-miterlimit:10;}
	.st1{fill:#006781;stroke:#000000;stroke-width:0.43;stroke-linejoin:round;stroke-miterlimit:10;}
	.st2{fill:none;stroke:#000000;stroke-width:0.43;stroke-linejoin:round;stroke-miterlimit:10;}
	.st3{fill:#FBC6A6;stroke:#000000;stroke-width:0.43;stroke-linejoin:round;stroke-miterlimit:10;}
	.st4{fill:#FFEED6;stroke:#000000;stroke-width:0.43;stroke-linejoin:round;stroke-miterlimit:10;}
	.st5{fill:#BAD5DD;stroke:#000000;stroke-width:0.43;stroke-linejoin:round;stroke-miterlimit:10;}
	.st6{fill:#FFFFFF;stroke:#000000;stroke-width:0.43;stroke-linejoin:round;stroke-miterlimit:10;}
	.st7{fill:#FF6C5C;}
</style>
<g>
	<g>
		<g>
			<path class="st0" d="M438.8,78c6.4,4.6-0.6,16.9-4.5,21.9s-12.9,12.6-18.1,9.4c-5.2-3.3-2-14,3.9-20.9
				C426,81.4,433.3,74,438.8,78z"/>
			<circle class="st1" cx="440.8" cy="76.3" r="2.5"/>
			<path class="st2" d="M416.2,109.3c0,0-26.9,28.1-31.4,70.6"/>
			<path class="st3" d="M440.8,120.5c0,0-24.5,30.7-53.5,44.9C387.3,165.5,402,135.7,440.8,120.5z"/>
			<path class="st3" d="M402.5,102.1c0,0-4.5,39.3-15.3,63.4C387.3,165.5,378.8,140.8,402.5,102.1z"/>
		</g>
		<g>
			<path class="st0" d="M499,193.9c4.6,3.8-0.9,12.1-4.7,16.5c-3.9,4.4-11.6,11.2-15.9,8c-4.3-3.2-1.9-10.6,3.6-17.1
				C487.4,194.9,494.6,190.2,499,193.9z"/>
			<circle class="st1" cx="500.2" cy="192.1" r="2"/>
			<path class="st2" d="M450.8,269.2c3.4-24.6,27.5-50.7,27.5-50.7"/>
			<path class="st3" d="M494.6,234.8c0,0-32.6,24-42.9,40.5C451.7,275.2,438.7,258.6,494.6,234.8z"/>
			<path class="st3" d="M466.2,204.1c0,0-3.9,30.2-15.7,63.3C450.5,267.4,447.8,230.2,466.2,204.1z"/>
		</g>
		<g>
			<path class="st0" d="M210.6,20.6c0,0-8.5,27.5,8.5,37.5s23,11,26.2,18.7s-1.7,13,8.1,24.6c9.9,11.6,12.4,16.6,14.1,27.2
				C267.5,128.5,254.8,47.7,210.6,20.6z"/>
			<path class="st0" d="M281.7,51.4c0,0,8.7,7.6,8.5,19.6c-0.2,12-11.7,15.9-14.8,24.1c-3.7,9.8,2.4,13-1.5,21.5
				c-3.5,7.6-5.1,8.9-5.5,21.3C268.4,138,256.2,96.6,281.7,51.4z"/>
			<path class="st0" d="M192.6,61.9c0,0-2.8,23.7,13.5,28.9s27.1,2.7,28.9,15.7s-2.7,22.1,14.4,26.6c17.1,4.5,20.3,2.5,26.8,16.9
				C276.1,150,248.4,71.9,192.6,61.9z"/>
		</g>
		<path class="st3" d="M333.5,41.8c7.9-0.1,15.3,12.5,15.3,12.5l-9.8,13.1l14.1-5.5c0,0,10.3,15.1,15.1,30.2l-21.3,22.1l24.1-13.5
			c0,0,11.1,20,15.1,52.2l-18.4,17.8l21.2-3.4c0,0,33.7,134.1-13.6,191.6h-94.9c0,0-47.9-71.8-34.4-153.2l55,26l-49.6-46.5
			c0,0,0.5-18.7,10.7-36.9l32.5,37.6l-28.8-46.1c0,0,2.7-9.2,8.7-17.5l8.9,6.3l-5.3-11.7c0,0,10-25.5,21.8-36l11.9,9.5l-7.4-17.8
			C304.2,72.6,319.1,41.9,333.5,41.8z"/>
		<path class="st4" d="M332,51.4c3,0,1.6,15.5,2,35.6s0.7,30.8,1.2,35.7c0.4,4.9,2.2,6.5,8.7,2.2c6.5-4.2,23.2-13.6,24.6-11.6
			c1.3,2-6.3,6.7-15.6,13.1s-16.3,7.4-16.1,16.1c0.2,8.7-0.2,33.5-0.2,41.3c0,7.8-1.3,15,4,12.5s31.9-17.4,35.7-15.4
			c3.8,2-10,8.5-19,13.2c-8.9,4.7-19.6,7.6-20.5,18.1s0.4,27.5,0,37.9c-0.4,10.5,2.2,62.9,2.8,88c0.6,25.1,0.9,28.6-5.5,29.9
			s-12.2,0-12.2,0s4.8-64.6-2.8-73.8c-7.6-9.3-34.9-45.4-31.6-48.7c3.3-3.3,26.2,31.7,31.1,39.5s7,2,7.2-5c0.2-7,0-58.7,0.6-75.3
			c0.6-16.5,3.2-29.6-3.5-34.8c-6.7-5.2-34.6-19-32.5-24.6c2.1-5.6,20.2,9.4,24.5,11.5c4.3,2.1,12.3,7.9,12.6-0.9
			c0.3-8.8,0.5-46.5,0.3-53.8c-0.2-7.3,1.7-14.6-4.9-18.8c-6.6-4.1-13.3-10-11.1-13.1c2.2-3.1,10.9,7.1,14.8,7
			C330.3,77.2,327.1,51.4,332,51.4z"/>
		<g>
			
				<ellipse transform="matrix(0.8328 -0.5536 0.5536 0.8328 -17.425 134.4084)" class="st0" cx="213.8" cy="96" rx="6.6" ry="16.1"/>
			<circle class="st1" cx="203.7" cy="80.9" r="2"/>
			<path class="st2" d="M222.7,109.4c0,0,24,24.9,27.3,63.1"/>
			<path class="st3" d="M202.9,115.4c0,0,5.4,3.2,10.8,11.7c4.2,6.6,8,4.4,16.1,13.9c8.2,9.5,11.9,9.1,14.1,26.3l7.2-0.7
				c0,0-1.3-21.3-20.3-34.2C211.9,119.5,212.4,118.8,202.9,115.4z"/>
			<path class="st3" d="M244.9,105.9c0,0,0.3,16.4,2.6,30.9c1.6,10.4,5.4,12.6,5.3,28.4h2.7c0,0,0.8-21.3-2.6-36.7
				C250.2,116.4,247.3,114,244.9,105.9z"/>
		</g>
	</g>
	<g>
		<path class="st0" d="M170.5,215.4c0,0,22.4,1.6,23.2-20.6C193.7,194.8,176.8,187.5,170.5,215.4z"/>
		<path class="st0" d="M175.1,188.9c0.7,2.9,0.9,18.4-20.9,18.6C154.2,207.5,159.2,185.3,175.1,188.9z"/>
		<path class="st0" d="M176.5,201.7c0,0,14.9-13.4,1.2-27.6C177.7,174.1,162.5,180.4,176.5,201.7z"/>
		<path class="st0" d="M175.6,141.3c0,0-13.7,18,0.8,29.5C176.3,170.8,188.6,160.4,175.6,141.3z"/>
		<path class="st0" d="M203.5,172c-2.6-1-14.9-8.9-3.6-26.1C199.9,145.9,214.6,161.4,203.5,172z"/>
		<path class="st0" d="M202.5,171.2c-2.1,2.1-15,10.7-26.9-7.6C175.6,163.6,197,155.8,202.5,171.2z"/>
		<path class="st0" d="M243,182.8c0,0-10.2,12.6,7.5,25.7C250.5,208.6,259.9,188.3,243,182.8z"/>
		<path class="st0" d="M271.5,198.7c0,0-17.5,4.2-22.4-16C249.2,182.7,266.9,174.8,271.5,198.7z"/>
		<path class="st0" d="M243.4,175.3c0,0,8.1,15.9,27.1,2.7C270.5,178,260.9,161.5,243.4,175.3z"/>
		<path class="st0" d="M247.3,162c-0.4-2.8,0.5-17.3,21-15.9C268.3,146.1,262,166.5,247.3,162z"/>
		<path class="st0" d="M246,165.1c1.6-2.3,12-12.4,26.2,2.5C272.2,167.6,253.7,178.4,246,165.1z"/>
		<path class="st0" d="M216.5,175.5c0,0-14.6,11-1.9,29.8C214.6,205.2,232.6,190.3,216.5,175.5z"/>
		<path class="st0" d="M212.9,153.2c0,0,12.6,15.8,31.4,4.1C244.3,157.3,235.6,139.2,212.9,153.2z"/>
		<path class="st0" d="M248.1,136.4c0,0-20,10.2-9.3,29.6C238.8,166,257.1,163.5,248.1,136.4z"/>
		<path class="st0" d="M141.5,167c0,0,10.2,15.9,25.5,5.4C167,172.4,163.4,157.3,141.5,167z"/>
		<path class="st0" d="M140.1,185.2c0,0,21.8,6.1,27.1-11.6C167.2,173.6,153,166.1,140.1,185.2z"/>
		<circle class="st5" cx="195.2" cy="205.6" r="9.4"/>
		<circle class="st5" cx="244.5" cy="166.7" r="9.4"/>
		<circle class="st5" cx="244.3" cy="181.2" r="9.4"/>
		<circle class="st5" cx="224.1" cy="175.8" r="9.4"/>
		<path class="st3" d="M175.9,174.1c4.9,12.3,15.2,19.2,36.2,39.7c41.4,40.6,26.3,75.4,45.6,69.1c12.8-4.2-15.7-39.1-20.7-58.6
			c-3.8-14.7,1.7-24.6,2-42.6c0.3-14.7-2-29.1-8.1-26.6c-5.6,2.3,5.1,42.5-9.2,47.7c-16.5,6.1-32.8-32.3-40.8-36.5
			C176.7,164.2,173.5,168.2,175.9,174.1z"/>
		<circle class="st5" cx="171.2" cy="169.1" r="9.4"/>
		<circle class="st5" cx="206" cy="176" r="9.4"/>
		<circle class="st5" cx="164.9" cy="184.6" r="9.4"/>
	</g>
	<g>
		<path class="st0" d="M406.6,148.7c6.2-0.6,15.8,1.4,25.3,35.8l-12.6,18.2l14.1-7.1c0,0,10.3,19.3,11.1,43.5L430,250.3l16.3-2.1
			c0,0,18.9,58.9-4.8,118.5L334,368.1c0,0-8.6-49,0-75.4l37.2,19.4c0,0-11.1-26-35.4-34.1c0,0-0.8-12.8,3.2-22.8l10.3,1.7l-7.9-9.4
			c0,0,1.4-8.7,5.1-13.4l8.3,6.1l-5.3-12c0,0,2.5-17.7,14.6-31.4l16.8,16.8l-13.5-24.8c0,0,7-12.9,14.1-17.2l7.7,8.3l-2.1-14.4
			C387.3,165.5,395.7,149.8,406.6,148.7z"/>
		<path class="st4" d="M406.5,154.9c2.6,0.1-0.5,26.9-1.5,40.4c-1.1,13.5-2.9,22.3-1.2,24.3s15.9-10.6,18.2-8.6
			c2.3,2-5.8,8.6-12.9,14.2c-7,5.7-6.1,5.5-6.6,14.7s3,44.8,1.3,49.7h-12.6c0,0,7.5-31.3,0-43.3c-7.5-12-22.1-22.5-19.7-27
			c2.4-4.5,11.1,10.7,18,17.4c6.9,6.6,6.5-10.5,7.3-19.1C397.6,209.2,401.9,154.7,406.5,154.9z"/>
	</g>
	<g>
		<path class="st0" d="M241.5,231.8c-6.2-0.9-15.8,0.5-27.2,34.3l11.6,18.9l-13.7-7.8c0,0-11.3,18.7-13.5,42.8l13.9,11.9l-16.1-3
			c0,0-22.2,57.8-1.8,118.6l107.2,7.4c0,0,11.3-48.4,4.2-75.3l-38.2,17.3c0,0,12.5-25.3,37.2-32.1c0,0,1.5-12.8-2-22.9l-10.4,1.1
			l8.4-8.9c0,0-0.9-8.8-4.3-13.6l-8.6,5.6l5.9-11.7c0,0-1.5-17.8-12.8-32.2l-17.7,15.9l14.9-24c0,0-6.3-13.2-13.1-17.9l-8.2,7.9
			l2.9-14.3C259.9,249.6,252.4,233.4,241.5,231.8z"/>
		<path class="st4" d="M241.3,237.9c-2.6,0-1,26.9-0.7,40.4s1.7,22.5-0.1,24.4c-1.8,1.9-15.3-11.4-17.7-9.6s5.3,8.9,12,14.9
			c6.7,6,5.8,5.8,5.8,15c-0.1,9.2-5.5,44.5-4.1,49.5l12.6,0.7c0,0-5.7-31.6,2.4-43.2c8.2-11.6,23.3-21.2,21.2-25.9
			c-2.1-4.6-11.7,10.1-18.9,16.3c-7.2,6.2-5.9-10.8-6.3-19.4C247.1,292.6,245.9,237.9,241.3,237.9z"/>
	</g>
	<g>
		<path class="st1" d="M140.7,852.2c-16.7,3.8-48.9-0.5-58.7-5.1c10.9,14.3,22.2,22.3,33.9,24.1c10.2,1.6,18.6,4.3,26,8.1
			C142.3,871.7,142.3,862,140.7,852.2z"/>
		<path class="st5" d="M140.7,852.2c-2.7-16.1-9.8-32.4-26.4-39.6c-20.6-8.9-39.4,4.7-46.9,11.3c4.8,9,9.6,16.8,14.5,23.2
			C91.8,851.7,123.9,856.1,140.7,852.2z"/>
		<path class="st4" d="M140.7,852.2c1.6,9.8,1.6,19.5,1.2,27.1c8.7,4.5,15.9,10.6,22.8,18.4c29.8,33.6,48.6,32,78.7,39.4
			c33,8.2,42.9-5.4,72.4,0.8s55.1,19,91.6,8.9c36.5-10.1,49.3-36.1,67.9-55.9c4.5-4.8,9.7-9,15.2-12.9c-0.3-6.4,0-19.7,6.8-34.4
			c4.1-8.8,10.4-18.2,20.3-26.9c26.3-23.2,62.6-27.3,83.5-27.6c7.7-16.1,13.7-36.8,16.7-63.9l-583.6-7.4c0,0,4.3,38.5,19,75
			c4.7,11.7,9.5,22.1,14.3,31.1c7.5-6.6,26.3-20.3,46.9-11.3C130.9,819.8,138,836.1,140.7,852.2"/>
		<path class="st5" d="M497.3,843.6c0,0,9.1,4.1,28.6,0c13.8-2.9,26.6-6.7,36.5-7.9c13.2-9.6,27.6-23.3,38.6-46.6
			c-20.9,0.2-57.2,4.4-83.5,27.6C507.7,825.5,501.3,834.8,497.3,843.6z"/>
		<path class="st1" d="M497.3,843.6c-6.8,14.7-7.2,28-6.8,34.4c17.3-12.1,38.4-20.6,56.6-32.1c4.7-3,9.9-6.2,15.4-10.2
			c-9.9,1.2-22.7,5-36.5,7.9C506.3,847.7,497.3,843.6,497.3,843.6z"/>
	</g>
	<path class="st2" d="M94.8,850.8c0,0,3.7,4.3,3.7,13"/>
	<path class="st2" d="M106.1,852.7c0,0,4.8,5.4,3.9,17.1"/>
	<path class="st2" d="M118.2,853.7c0,0,6.3,7.5,5.1,18.9"/>
	<path class="st2" d="M128.1,853.7c0,0,7.4,6.2,6.2,22.2"/>
	<path class="st2" d="M136.4,852.9c0,0,5.9,5,5.6,16.9"/>
	<g>
		<path class="st5" d="M344,454.7c56.2-16.8,32.3-20.7,73.7-28.4s48.5-25.2,52.4-36.2c-19.4-34.1-67.7-28.9-85.4-30.3
			c-17.7-1.4-98.5-9.9-144.5,20.5c-46,30.5-27.4,66-27.4,66S287.7,471.5,344,454.7z"/>
		<path class="st1" d="M470.1,390.1c-3.9,11-11,28.4-52.4,36.2s-17.5,11.6-73.7,28.4c-56.2,16.8-131.2-8.4-131.2-8.4
			c-56.9,55-68.4,136.1-68.4,136.1l354.9-4C496.2,433,470.1,390.1,470.1,390.1z"/>
		<path class="st2" d="M158.1,575.7c0,0,10.3-84.7,61.9-127.1"/>
		<path class="st2" d="M168.8,571.5c0,0,5.5-76.2,55.8-121.7"/>
		<path class="st2" d="M181,567.5c0,0-1.1-55.4,47.5-116.7"/>
		<path class="st2" d="M190.7,564.5c0,0,6.3-73.1,43-112.4"/>
		<path class="st2" d="M238.4,453.2c0,0-31.3,43.1-36.6,108.1"/>
		<path class="st2" d="M344,454.7c0,0,10.9,39.9,8.5,83.8"/>
		<path class="st2" d="M354.5,451.4c0,0,16.6,47.1,11.7,87.8"/>
		<path class="st2" d="M366.2,447.1c0,0,25.6,52.6,20.5,94"/>
		<path class="st2" d="M375.1,443.5c0,0,33.7,54.6,24.1,99.2"/>
		<path class="st2" d="M385.4,437.8c0,0,33.6,51.3,25.2,107"/>
		<path class="st2" d="M394.3,432.6c0.1,0.3,33.4,42.4,27,114"/>
		<path class="st2" d="M404.3,429.2c0,0,33.1,33.7,27.2,119.8"/>
		<path class="st2" d="M463.2,403.7c0,0,20.4,17.4,28.4,69.5"/>
		<path class="st2" d="M456.8,410.3c0,0,28.2,35.8,38.2,92.8"/>
		<path class="st2" d="M449.6,415.4c0,0,43.1,66.9,38.5,163.2"/>
		<path class="st2" d="M438.9,420.5c0,0,44.7,50,30.1,158.2"/>
		<path class="st2" d="M418.9,426c0,0,37.1,55.4,25.1,126.1"/>
		<path class="st2" d="M430.1,423.4c0,0,36.5,48.3,27.5,133"/>
		<path class="st2" d="M244.7,454.5c0,0-28.3,35.9-30.6,103.3"/>
		<path class="st2" d="M249.1,455.4c0,0-23.4,44.2-24.5,99.7"/>
		<path class="st2" d="M254.9,456.4c0,0-20,45.2-18.4,95.7"/>
		<path class="st2" d="M259.7,457.2c0,0-12.2,28.3-11.4,92.2"/>
		<path class="st2" d="M264.7,458c0,0-10.4,41.1-5,89.1"/>
		<path class="st2" d="M334.3,457.2c0,0,9.8,29.3,6.5,81.1"/>
		<path class="st2" d="M325,458.8c0,0,9.7,28.5,4.4,79.5"/>
		<path class="st2" d="M271.6,458.8c0,0-7.1,37.6-1.9,85.9"/>
	</g>
	<path class="st2" d="M504.2,845.2c0,0-6.4,12.5-5.3,27.4"/>
	<path class="st2" d="M514.5,845.3c0,0-4,10.5-2.5,19.9"/>
	<path class="st2" d="M524,844c0,0-3.2,6.1-3,16.4"/>
	<path class="st2" d="M533,842.1c0,0-2,8.4-0.9,12.5"/>
	<path class="st2" d="M542.9,839.7c0,0-1,5.3,0,8.8"/>
	
		<ellipse transform="matrix(0.5938 -0.8046 0.8046 0.5938 -357.6058 770.4383)" class="st2" cx="584.3" cy="739.4" rx="4.7" ry="2.9"/>
	<g>
		<g>
			<path class="st3" d="M301.1,444.2c13.3-8.4,26,3,29.1,11.9l-4.6,22.6l9.8-12.8c0,0,10.1,16.5,11,31.9l-16.3,24.2l18.1-12.6
				c0,0,7,14.7,6.1,25.4l-15.6,8.9l15.7,4l-70.9,3.6C283.6,551.3,263.1,468,301.1,444.2z"/>
			<path class="st4" d="M322.1,542.6c0,0-1.6-4.3,1.7-6.8c3.3-2.5,10.4-5.5,8.7-8s-9,4.3-12.6,4.3c-3.6,0-4.7-19.2-3.6-22.7
				s15.8-22.7,13.4-25.4c-2.4-2.7-10.7,13.1-13.8,12.4c-2.1-0.5-0.9-11.5-1.3-19.5c-0.3-8-0.9-15-3-14.2c-2.4,0.9-0.1,17.4,0,23.2
				s1.2,12.3-3.9,10.5s-9.2-16.5-12.4-14.8c-3.2,1.7,6.5,14.5,10.8,19.5c3.6,4.2,6.1,8.2,6.7,16.4c0.5,8.2,2,13.8-1.2,13.5
				c-3.1-0.3-11.8-6.3-13.4-4.1c-1.5,2.2,4.7,5,10.1,7.7c5.4,2.7,4,5,4.2,9L322.1,542.6z"/>
		</g>
		<path class="st4" d="M540.9,625c-12.1-14.8-29.5-21.1-42.4-21.3c-15.5-0.3-22.6-2.9-38.7-2.9s-44.1,14-64.3,26.7
			c-20.3,12.7-58.7,23.9-58.7,23.9l35.8,28.1l175.1,22.4l8.1,0.4C554.1,669.5,550.8,645.4,540.9,625z"/>
		<g>
			<g>
				<path class="st4" d="M474.8,616.5c-0.8-5.9-0.7-9.2-3.3-9.1c-3,0.1-2.8,3.4-4.4,12.2c1.6-0.5,5.3-1.5,7.9-1.5
					C475,617.5,474.9,617,474.8,616.5z"/>
				<path class="st3" d="M483.9,641.1c-5.7-9.1-7.7-15.8-8.8-23c-2.7,0.1-6.3,1.1-7.9,1.5c-0.4,2.1-0.9,4.5-1.6,7.3
					c-3.8,15.6-16.5,22.9-18.3,35.9c-1.8,13,7.2,27,27.6,23.4C495.2,682.8,490,650.9,483.9,641.1z"/>
			</g>
			<path class="st2" d="M447,666.6c0,0,10.9-1.5,18.8,0c7.9,1.5,17.8,2.4,23.5-0.7"/>
			<path class="st2" d="M448.2,673.4c0,0,5.8-0.1,11.1,4.9c5.3,4.9,13,7.5,23.4,4.4"/>
		</g>
		<path class="st5" d="M395.6,627.4c20.3-12.7,48.2-26.7,64.3-26.7s23.2,2.6,38.7,2.9c12.9,0.3,30.2,6.6,42.4,21.3
			c-8.3-17.1-21.2-31.7-41.7-46.6c-45.1-32.9-118-40.9-169.8-40c-51.8,0.8-122.3,20.2-158.5,32.5s-44.4,26.1-44.4,26.1l1.6,18.8
			l244.6,63.7l-35.8-28.1C336.9,651.3,375.3,640.1,395.6,627.4z"/>
		<path class="st5" d="M555.9,702.2l-8.1-0.4l8.2,1C555.9,702.6,555.9,702.4,555.9,702.2z"/>
		<polygon class="st5" points="467.6,697.9 547.8,701.8 372.7,679.4 		"/>
		<g>
			<g>
				<g>
					<path class="st4" d="M440.8,628.3c-0.2-2.7-0.2-5.1,0-7.7c0.4-4.9,2.6-12.4-1.4-12.4c-3.3,0-2.4,4.7-7,11
						C433.2,620.8,435.5,625.3,440.8,628.3z"/>
					<path class="st3" d="M442.2,638.5c-0.7-4.1-1.2-7.3-1.4-10.2c-5.3-3-7.7-7.5-8.4-9.1c-0.9,1.2-1.9,2.5-3.3,3.7
						c-6,5.8-22.9,15.5-23.5,34.3c-0.6,18.8,15.9,20.1,15.9,20.1C448.6,680.4,443.6,646.6,442.2,638.5z"/>
				</g>
				<path class="st2" d="M427.6,624.4c0,0,5,7,13.7,9"/>
				<path class="st5" d="M417.8,632.8c0,0,13.7,2.9,24.6,7"/>
				<path class="st2" d="M414.5,636.3c0,0,10.2,16.1,28.6,22.7"/>
				<path class="st2" d="M406.1,653.3c0,0,14.1,11.9,35.7,11.8"/>
				<path class="st2" d="M405.7,659c0,0,9.3,11.3,27.2,17.1"/>
			</g>
			<path class="st2" d="M432.8,645.7c0,0,0.6,8-5.2,12"/>
			<path class="st2" d="M402.8,646.1c0,0,5.3,2.3,10.7,0"/>
			<path class="st2" d="M415.7,626.9c0,0,0.8,1.7,5.6,1.5s5.1,0.9,5.1,0.9"/>
			<path class="st2" d="M440.3,647.6c0,0,2.9,0.6,3.9,3c1,2.5,3,2.6,3,2.6"/>
			<path class="st2" d="M432.9,661c0,0-0.2,5.7,3.2,9.1"/>
			<path class="st2" d="M399.4,661c0,0,5.9,1.6,10.1-1.8"/>
			<path class="st2" d="M426.3,641.1c0,0,1.7,1.7,1.8,2.7"/>
			<path class="st2" d="M419.3,655.4c0,0,2,0.1,2.8-0.5"/>
			<line class="st2" x1="436.8" y1="651.7" x2="437.3" y2="653.3"/>
			<line class="st2" x1="432.8" y1="624.7" x2="433.5" y2="626"/>
		</g>
		<g>
			<g>
				<path class="st4" d="M462.2,620.2c-6.2-5.8-5.8-13-8.7-12.8c-2.1,0.1-1.8,4.9-2,12.5C453,620.2,457.2,620.8,462.2,620.2z"/>
				<path class="st3" d="M495.5,650.5c-6.8-17.8-21.9-22.3-30.8-28.2c-0.9-0.6-1.8-1.3-2.5-2c-5,0.6-9.2,0-10.8-0.3
					c-0.1,3.7-0.3,8.1-1,12.9c-1.9,13.7,0.6,25.8,9.8,37.3c9.2,11.5,27.8,14.5,34,11.6C500.4,678.7,502.2,668.3,495.5,650.5z"/>
			</g>
			<path class="st2" d="M464.7,622.2c0,0-4.8,7-14.1,9.1"/>
			<path class="st2" d="M450.1,645.7c0,0,13.7-12.3,24.7-17.7"/>
			<path class="st2" d="M452,654.9c0,0,22-2.1,38.5-13.9"/>
			<path class="st2" d="M464,673.9c0,0,14.2-15,31.1-24.4"/>
			<path class="st2" d="M498.3,659.2c0,0-15.3,10.7-20.7,21.8"/>
			<path class="st2" d="M458.6,632.8c0,0-2.3,2.4-1.6,7.7c0.5,3.8-0.7,5.5-0.7,5.5"/>
			<path class="st2" d="M445.3,632.4c0,0,2.5-1.5,3.6-4.2c1.6-3.7,4.3-3.4,4.3-3.4"/>
			<path class="st2" d="M475.9,639.4c0,0,1.4-1.8,4.9-2.5c3.5-0.7,6.3-1.4,8.4-2.9"/>
			<path class="st2" d="M468,646c0,0-1,2.1,0,4.8c1,2.7,0.4,5.8,0.4,5.8"/>
			<path class="st2" d="M460.9,662.9c0,0-1.6,0.6-2.3,3.5c-0.7,2.9-0.5,4.4-3.1,5.6"/>
			<path class="st2" d="M478.2,672.1c0,0-1.5,1.6-1.4,4.1c0.1,2.5,0.5,4.2-1.6,6.1"/>
			<path class="st2" d="M495.9,668.5c0,0,2.3-1.5,4.4-0.7c2,0.8,2.9,2.6,4.9,2"/>
			<path class="st2" d="M483.9,665.6c0,0,2.3,0,4.1,3.6c1.7,3.5,5,3.3,5,3.3"/>
		</g>
		<circle class="st1" cx="392.6" cy="641.6" r="2.2"/>
		<line class="st2" x1="408.1" y1="629.5" x2="409.7" y2="630"/>
		<ellipse class="st1" cx="492.4" cy="619.6" rx="2" ry="2.6"/>
		
			<ellipse transform="matrix(0.3714 -0.9285 0.9285 0.3714 -283.4279 876.4486)" class="st1" cx="505.6" cy="647.5" rx="1.5" ry="2.1"/>
		<path class="st2" d="M504.7,625.2c0,0-1.5,1.5-2,4.1c-0.9,4.5-5,4.1-5,4.1"/>
		<path class="st2" d="M509.2,659.2c0,0,2.9-1.4,4.6,0c1.7,1.4,1.7,3.7,5,3.7"/>
		<path class="st2" d="M520.7,652.4c0,0,2.8,2.3,3,5.1"/>
	</g>
	<path class="st5" d="M576.5,687.9c0,0-31.9,3.6-84.7-2.9c-52.9-6.5-144.1-34.8-186.8-39.1s-75.8-30.2-119.5-36.9
		c-47-7.3-48.3-13.4-58.9-12.1c-4,3.1-19.8,18.5-33.4,36.4c21.9-6.9,45.7-8.9,72.5,0.6c40.3,14.3,48.3,40.1,87.2,61.3
		c41.6,22.6,100.6,8.6,117.7,4.5c17.1-4,53.3-16.6,122.2-10.6s93,30.7,93,30.7c-104.1,50.8-201.8,23-230.4,17.2
		c-28.6-5.8-57.2-5.1-87.7-6.2c-30.4-1.1-58.3-5.1-75.7-15.6s-28.3-23.5-65.2-23.5c-32.2,0-49.7-19.2-53.7-24.2c0,0,0,0,0,0
		c0,0-51.8,27.4-36,57.3s142.1,68.3,207.3,76.2c65.2,7.9,100.6,16.5,148.8,10.4c48.2-6.1,157.9-20.1,192-42.7
		S640.2,703.1,576.5,687.9z"/>
	<g>
		<path class="st1" d="M126.8,691.8c37,0,47.8,13,65.2,23.5s45.3,14.5,75.7,15.6c30.4,1.1,59.1,0.4,87.7,6.2
			c28.6,5.8,126.3,33.6,230.4-17.2c0,0-24.1-24.6-93-30.7s-105.1,6.5-122.2,10.6c-17.1,4-76.1,18.1-117.7-4.5
			c-39-21.2-46.9-47-87.2-61.3c-26.8-9.5-50.6-7.6-72.5-0.6c-8.7,11.3-20,21.8-20,34.3C77,672.6,94.6,691.8,126.8,691.8z"/>
		<path class="st2" d="M78.1,673c0,0,13.8-28.5,40.1-45.1"/>
		<path class="st2" d="M87.7,680.5c0,0,20.3-38.3,51.9-52.6"/>
		<path class="st2" d="M97.9,686c0,0,24.4-38.8,60.5-54.4"/>
		<path class="st2" d="M112.1,690.4c0,0,16.6-32,62.4-52.9"/>
		<path class="st2" d="M131,691.8c0,0,19.5-31.5,56.2-47.6"/>
		<path class="st2" d="M197.5,651.5c0,0-32.4,18.7-43.8,43.4"/>
		<path class="st2" d="M206,658.7c0,0-24,20.7-34.2,43.6"/>
		<path class="st2" d="M214.7,666.6c0,0-19.4,24.1-25.2,47.2"/>
		<path class="st2" d="M223.5,674.6c0,0-10.6,19.2-12.8,48.7"/>
		<path class="st2" d="M232.4,681.9c0,0,0.6,27.2-2.5,45.6"/>
		<path class="st2" d="M244.9,690.6c0,0,3.2,18.6-0.6,38.8"/>
		<path class="st2" d="M256.5,697.1c0,0,4.5,18,1.1,33.3"/>
		<path class="st2" d="M267.2,701.4c0,0,5.4,12,4.4,29.6"/>
		<path class="st2" d="M279.5,704.8c0,0,6.4,11.5,5,26.6"/>
		<path class="st2" d="M293.1,706.9c0,0,5.9,11.1,4.9,24.8"/>
		<path class="st2" d="M306,707.7c0,0,7.4,10.7,6.1,24.5"/>
		<path class="st2" d="M317.1,707.6c0,0,9.2,10.2,10.3,25.6"/>
		<path class="st2" d="M329.8,706.8c0,0,11.6,11.2,13.9,28.2"/>
		<path class="st2" d="M341.7,705.4c0,0,12.6,9,15.9,32.2"/>
		<path class="st2" d="M353.9,703.3c0,0,17.8,12.2,18.7,37.5"/>
		<path class="st2" d="M367.8,700.4c0,0,22,17.9,19.2,43.3"/>
		<path class="st2" d="M381.3,697c0,0,21.6,16.2,19.2,48.9"/>
		<path class="st2" d="M395.5,693.7c0,0,20.2,17,19.1,54"/>
		<path class="st2" d="M408.5,691.2c0,0,25.3,22.6,18.1,57.6"/>
		<path class="st2" d="M423.4,689.3c0,0,28.6,27.7,15.3,60.3"/>
		<path class="st2" d="M458.5,687.6c0,0,26.2,18.8,14.5,62"/>
		<path class="st2" d="M441.6,688.2c0,0,27,29.1,14.2,61.6"/>
		<path class="st2" d="M476,688c0,0,21.8,24.4,13.2,59.7"/>
		<path class="st2" d="M489.5,688.9c0,0,22.2,22.6,14.6,56.9"/>
		<path class="st2" d="M505.7,690.6c0,0,21.8,24,18.5,51.2"/>
		<path class="st2" d="M522.8,693.4c0,0,20.5,14.3,23.3,42.4"/>
		<path class="st2" d="M544.8,699c0,0,13.9,11.3,15.6,31.8"/>
		<path class="st2" d="M563.7,706.1c0,0,7,6.5,9.6,19.5"/>
	</g>
	<g>
		<path class="st1" d="M383.7,740.8c6.2,9.1,9,18.1,22.7,25.5c13.8,7.4,31.9,12.7,52.9,11.8c21-0.9,20.3-3,35.3-2.5
			c15,0.5,24.9-0.5,34.1-10.6c-1.1-8.8-11.9-14.5-13.1-26.3C515.6,738.7,406.4,730.8,383.7,740.8z"/>
		<path class="st2" d="M510.4,746.1c0,0,1.7,6.1,5.1,10.1c4.9,5.6,6.5,10.7,6.4,14.6"/>
		<path class="st2" d="M503.6,749.1c0,0,2.1,6.7,6.9,10.9c6.6,5.9,5.8,13.5,5.8,13.5"/>
		<path class="st2" d="M495.5,751.2c0,0,1.8,6.2,8.1,11.7c6,5.2,6.9,12.2,6.9,12.2"/>
		<path class="st2" d="M488.4,753.3c0,0,1.5,6.1,8.3,10.6c7.5,4.9,8.3,11.7,8.3,11.7"/>
		<path class="st2" d="M479.7,755.8c0,0,0.5,4.7,7.7,10.5c6.8,5.4,8.1,9.3,8.1,9.3"/>
		<path class="st2" d="M471.1,758c0,0,0.9,5.3,7.2,9.6c6.3,4.3,6,8,6,8"/>
		<path class="st2" d="M463.6,759.7c0,0,1.2,4.7,5.5,8.4c4.8,4.2,5,8.8,5,8.8"/>
		<path class="st2" d="M454.8,761.3c0,0,1.6,4.6,6,8.9c4.4,4.3,4.5,7.5,4.5,7.5"/>
		<path class="st2" d="M445.4,762.5c0,0,0,3.1,4,7c2.8,2.6,5.5,5.7,6.3,8.6"/>
		<path class="st2" d="M435.7,762.8c0,0,0,3.6,5.6,7.9c5.5,4.3,5.8,7.1,5.8,7.1"/>
		<path class="st2" d="M425.8,761.9c0,0,0.9,3.7,5.5,8.4c4.6,4.7,4.6,6.1,4.6,6.1"/>
		<path class="st2" d="M415.5,759.4c0,0,0.8,3.8,5.5,8.2c4.7,4.5,4.3,6.3,4.3,6.3"/>
		<path class="st2" d="M408,756.3c0,0,1.6,8.7,6.3,13.7"/>
		<path class="st2" d="M399.8,751.3c0,0,1.9,9.7,5.8,14.6"/>
		<path class="st5" d="M383.6,738.6c2.2-3.9,26.2-11.7,38-17.9c11.9-6.1,39.3-6.2,55.8-0.7c16.6,5.5,25.5,13.7,34.2,15.8
			c8.7,2.1,1.7,11.3-9.7,13.8c-11.5,2.5-26.7,8.9-50.4,12.3c-23.7,3.4-40.3-2.3-50.8-9.9C389.8,743.9,381.3,742.6,383.6,738.6z"/>
	</g>
	<path class="st6" d="M594.8,708.2c2.3-3.6,10.4,1.9,11.5,7.7c1.1,5.9-2.2,5.4-4.7,7.7c-1.8,1.7-5.6,11.1-9.1,6.3
		c-2.4-3.2,5.5-8.2,5.5-14C598,713.4,592.6,711.6,594.8,708.2z"/>
	<g>
		<path class="st0" d="M245.3,671c0,0-0.9,7.8-3.6,19.2c-2.3,9.7,1.2,15,8.4,19.8c7.2,4.8,8.7,13.9,5.4,20.3
			c-3.3,6.4-2.4,10.8,3.9,13.4s10.7,4.5,10.9,16.8C270.3,760.5,272.1,706.4,245.3,671z"/>
		<path class="st0" d="M293.1,711.8c0,0,4.4,9.9-2.2,15.7s-9.1,5.1-10.2,10c-1.1,4.9-3.1,4.2-6.3,8.3c-3.2,4.2-4.1,17.3-4.1,17.3
			S271.7,728.6,293.1,711.8z"/>
		<path class="st0" d="M306.8,720.4c0,0,2.6,11.7-2.9,17.1s-10.9,1.7-15.2,6.1c-2.8,2.9-1.2,6.3-6.4,10.1c-5.2,3.8-6.3,5.4-6.6,9.1
			C275.8,762.9,277.2,735.8,306.8,720.4z"/>
	</g>
	<path class="st0" d="M334.2,753.3c0,0-8.3,10.7-1.8,16c6.5,5.3,4.3,8.7,3.6,11.3s-2,5.9,2.9,9c4.9,3.1,4,8.8,4,8.8
		S347.6,767.5,334.2,753.3z"/>
	<path class="st0" d="M360.3,771.5c0,0,3.6,3.9,1.8,8.7s-6.2,4.8-8.7,8.2c-2.5,3.4-4.7,6.9-9.2,10.7
		C344.2,799.1,348.5,780.9,360.3,771.5z"/>
	<path class="st0" d="M225.7,733.8c0,0-4.9,6.5-2,13.9c2.1,5.3,11,3.4,14.8,9c3.8,5.6-0.8,8,5.2,11.6c6,3.6,6.1,5.8,6.4,7.4
		C250.1,775.7,246.8,742.5,225.7,733.8z"/>
	<g>
		
			<ellipse transform="matrix(0.5821 -0.8131 0.8131 0.5821 -428.0092 286.8681)" class="st0" cx="65.1" cy="559.8" rx="7.4" ry="18.4"/>
		<circle class="st1" cx="48.9" cy="548.1" r="2.7"/>
		<path class="st2" d="M80,570.5c0,0,22,7.6,40.4,46.5"/>
		<path class="st3" d="M58.5,587.9c10.1,8.8,33.8,16.2,61.9,29C120.4,617,105.3,583.6,58.5,587.9z"/>
	</g>
	<g>
		
			<ellipse transform="matrix(0.782 -0.6233 0.6233 0.782 -295.3289 151.9808)" class="st0" cx="69.6" cy="498.2" rx="9.8" ry="22.3"/>
		<circle class="st1" cx="54.1" cy="479.1" r="2.4"/>
		<path class="st2" d="M127.8,612.7c-14.2-67.2-44.3-97-44.3-97"/>
		<path class="st3" d="M78.1,538.3c0,0,27.8,29.5,49.7,74.7C127.9,613,126.9,569.7,78.1,538.3z"/>
		<path class="st3" d="M123.4,540.4c0,0,7.3,23.5,7.6,43.3c0.3,19.8-3,29.5-3,29.5S116,590.1,123.4,540.4z"/>
	</g>
	<g>
		<path class="st0" d="M615.8,568.3c0,0,5.2,8.2,5.9,25.2c0.7,17.1-5.9,20-19.3,20s-17.5,3-16.7,13.8c0.8,10.7-7.8,16.7-22.1,19.3
			c-14.3,2.5,1.7,15.2-17.6,23.4S530.8,699,530.8,699S521.6,638.5,615.8,568.3z"/>
		<path class="st0" d="M633,644.8c0,0,3.3,24.4-13.4,33.1c-16.7,8.6-29.5-8.1-37.3-3.1c-7.8,5-3.6,15.8-12,18.6
			c-8.1,2.7-13.2-6-22.6-4.5S530.8,699,530.8,699S540.9,665.7,633,644.8z"/>
		<path class="st0" d="M531.8,596.7c0,0-24.1,16.2-21.9,34c2.2,17.8,20.6,13.4,18.7,24.4c-1.9,10.9-13.2,12.6-5.9,21.4
			c7.4,8.9,6.8,8.9,7.7,20.3C530.5,696.9,545.8,641.3,531.8,596.7z"/>
	</g>
	<g>
		<path class="st0" d="M123.1,333.3c0,0,2.6,24.1,7.3,37.7c4.6,13.6,11.4,16.9,27.7,14.1s22.1,2.1,22.9,10.4
			c0.7,8.3-1.5,13.7,9.7,14.8c11.2,1.1,14,13.1,14,13.1S186.6,353.6,123.1,333.3z"/>
		<path class="st0" d="M124.4,246.2c0,0-12.8,20.9-9.9,43c2.9,22.1,25.5,27.9,35.7,31.9c10.2,4.1,21.2,7,20,19.4s-3.8,19.7,9.3,25.3
			c13.1,5.5,13.6,7.8,13.1,14.2c-0.6,6.4,11.6,9.9,10.7,33.4C203.4,413.4,195.1,302,124.4,246.2z"/>
		<path class="st0" d="M222.9,277.6c0,0,12.1,11.5,17.1,30c5,18.5,1.8,28-10.4,36.2c-10.2,6.8-2.4,14.7-6.7,23.3
			c-4.3,8.7-17.5,31.5-15.1,56.4C207.8,423.4,178.4,331.5,222.9,277.6z"/>
	</g>
	<path class="st4" d="M130.8,396.6c4.3-0.4,9.4,9,18.8,14.3c9.5,5.3,10.4,11.3,7.8,13c-3.4,2.2-8.7-3.9-12.1-9.6
		c-3.4-5.7-8.4-9.5-9.9-6s1.6,16.3,9.6,21.9c6.6,4.7,18.4,12.7,13.1,17.9c-5.3,5.2-16.1-16-19.5-15.6s0.4,13.1,1.2,20.7
		c0.8,7.7,3.7,11,10.9,15.4c7.2,4.3,14.8,10.6,14.6,16.8c-0.2,6.2-5.6,7.2-9.5,1.9c-3.9-5.3-8.4-17.6-13.6-15.2
		c-5.5,2.6-0.5,24.6,1.1,44.7c1.2,14.3,11.6,12.2,19.1,23.6c7.5,11.4,2.9,17.3-1.3,15.2c-4.1-2.2-5.6-13.7-9.4-18.2
		c-3.3-3.9-6.6-2.2-6.4,1.8c0.2,4,6.7,23.4,7.9,31.2c1.1,7.8,0,16.7-5.3,17s-7.6-6-7.4-17c0.2-11.1,1.5-31-3.3-33.8
		c-4.8-2.7-8.1,11.4-13.7,20.8c-4.7,7.8-10.7,6.4-9.6,0.7c1.1-5.8,6.2-13,15.1-23.7c9.6-11.6,7.6-17.9,7.3-26.3
		c-0.6-13.9-0.1-31.2-3.4-32.1c-2.5-0.7-4.5,8.1-9.1,16c-4.6,7.9-12,6-12.5,2c-0.5-4,1-6.7,8.9-13.5s12-12.8,11.9-23.9
		c-0.2-11.2,0.9-25.8-2.6-25.8c-3.4,0-7.1,11.8-9.1,21.2c-2,9.4-5.4,16.1-9.2,14.7c-3.8-1.3-0.7-8.3,1-10.8s1.4-5.7-0.9-5.2
		c-3.2,0.7-4.6-1.3-3.2-3.6c2.4-4,8.6-7,13.8-14.8c5.2-7.9,10.4-25.7,6.2-25.9c-4.3-0.3-9.3,17-12,23c-3,6.4-8.3,9-10,6.8
		c-1.6-2,0-5.4,4.8-10.8C123.1,411.4,123.9,397.3,130.8,396.6z"/>
	<g>
		<path class="st0" d="M309.9,551.3c0,0-3.7,9-1.4,13.5c2.3,4.6,9.1,3.6,10.7,9.3c1.5,5.6-2.1,7.8-0.7,11.9s7.8,0.7,8.8,8.6
			C327.2,594.6,326.5,563.6,309.9,551.3z"/>
		<path class="st0" d="M334.6,573.9c0,0,2.9,5,1.2,9.2c-1.7,4.2-5,4.2-7,7.8c-2,3.5-1.4,4.5-1.4,4.5S323.8,581.2,334.6,573.9z"/>
	</g>
	<path class="st4" d="M261,602.6c3.2,0,5.1,4.9,8.9,7.6c3.7,2.7,10.2,6.2,8.7,9.1s-11.7-8.1-14-7.3c-2.3,0.8-0.2,5.9,5.3,8.9
		c5.5,3,9.1,5.4,8.9,7.4c-0.2,2-4.1-0.1-6-1.4c-1.9-1.3,0.1,3.1,3.4,6.5c3.3,3.5-1.1,5.9-4.5,0.4c-3.4-5.5-5.4-10.8-7-10.5
		s1.9,6.8,2.5,15.7c0.6,8.9,2.6,6.9,7.8,11.8c3.5,3.3,6.2,5.7,4.3,7.2c-2.8,2.3-10.1-9.4-12.5-7.6s2.2,17.4-1.7,20.6
		c-2.8,2.4-9.4,0.5-8.3-4c1.1-4.5,6.2-14,2.4-15.5c-3.8-1.5-12,17.4-17.1,12.3c-3.8-3.8,16.1-13.6,17.8-20.9s1.2-15.7-0.6-15.4
		c-1.9,0.3-3.4,7.1-4.3,11.4c-0.8,4.3-0.6,11.3-4.5,10.3c-3.8-1,3-7.6,0.9-9.2c-2.1-1.7-3.8,4.7-7.4,2.2
		c-3.5-2.5,10.9-12.2,13.3-19.6c2.4-7.4,1.8-9.2,0.3-9.2c-1.5,0-5.8,8.4-10.1,13.1c-4.3,4.7-7.4,0.7-5.6-1.3
		c1.8-2.1,9.4-9.1,12.4-14.6S258.7,602.6,261,602.6z"/>
	<g>
		<g>
			<path class="st0" d="M545.2,266.2c0,0,6.7,17.8,5.9,34.8c-0.8,17-9,26.9-33.6,26.1c-15.5-0.5-20.4-1.9-20.4-1.9
				s1.9,16.6-4.8,21.5c-6.7,4.9-19,1.2-20,9.3c-2.1,15.7-17.8,14.2-22.9,33.6C449.3,389.7,446,320.9,545.2,266.2z"/>
			<path class="st0" d="M551,341.8c0,0,4.1,16.5-9,25.3c-13.1,8.8-24.5-5-37.8-3.2c-13.3,1.9-10.8,12.4-20.3,13.6
				c-9.5,1.2-10.1-3.5-14.7-2.8c-4.5,0.7-4.1,6.7-9.4,5.9c-5.4-0.7-8.4,1.8-10.7,10.1C449,390.7,447.2,359.4,551,341.8z"/>
		</g>
		<path class="st0" d="M433.1,309.5c0,0-12.5,9.1-11.1,24s12.3,17.3,21.1,21.9c8.8,4.6-1.8,12.2,0.4,18.3c1.7,4.8,7.1,5.2,5.7,16.3
			C449.1,390.1,460.1,328.8,433.1,309.5z"/>
	</g>
	<g>
		
			<ellipse transform="matrix(0.7466 -0.6653 0.6653 0.7466 -52.499 396.5552)" class="st0" cx="494.3" cy="267.2" rx="11.5" ry="5"/>
		<circle class="st1" cx="504.3" cy="257.7" r="2.1"/>
		<path class="st2" d="M485.7,274.8c0,0-23.8,15.9-33.5,47.9"/>
	</g>
	<g>
		<path class="st3" d="M113.3,799.5c0,0-3.7,9.2-1.1,17.7s-0.4,10.2-5.1,13.4c-4.7,3.2-0.2,8.5,4.3,7.3c4.4-1.2,4.3-4.3,14.2-3.5
			c9.8,0.8,19.5,1.1,26.9-0.7l-1.3-11.5c0,0-5.1,5.2-11.9,5.2c-6.8-0.1-0.3-8.4,2.7-10.5l-6.8-7.3c0,0-4.6,9.8-11.3,9.9
			s-1.7-13-1.4-17.2L113.3,799.5z"/>
		<circle class="st4" cx="115.1" cy="805.8" r="1"/>
		<ellipse class="st4" cx="114.1" cy="811.1" rx="0.6" ry="1.7"/>
		
			<ellipse transform="matrix(0.6514 -0.7587 0.7587 0.6514 -574.3743 387.5741)" class="st4" cx="134.6" cy="818.9" rx="1.1" ry="0.8"/>
		<ellipse transform="matrix(0.5 -0.866 0.866 0.5 -646.2825 527.44)" class="st4" cx="133.6" cy="823.4" rx="1.7" ry="0.9"/>
		<circle class="st4" cx="146.6" cy="830.1" r="0.7"/>
		
			<ellipse transform="matrix(6.071802e-02 -0.9982 0.9982 6.071802e-02 -696.7927 923.1492)" class="st4" cx="142.1" cy="831.8" rx="0.7" ry="1.8"/>
		<ellipse class="st4" cx="116.5" cy="825.2" rx="0.9" ry="1.8"/>
		
			<ellipse transform="matrix(0.2779 -0.9606 0.9606 0.2779 -684.1879 691.4623)" class="st0" cx="117.8" cy="800.8" rx="2.7" ry="4.7"/>
		
			<ellipse transform="matrix(0.7324 -0.6809 0.6809 0.7324 -516.5602 311.867)" class="st0" cx="138.5" cy="813.1" rx="2.7" ry="5"/>
		
			<ellipse transform="matrix(0.9939 -0.1098 0.1098 0.9939 -90.0118 21.6795)" class="st0" cx="151.8" cy="827.8" rx="3.1" ry="5.8"/>
	</g>
	<path class="st6" d="M61.4,758.2c2.4-2.1,6.8,4.4,9.1,6.8c2.7,2.8,6.9,4.4,6.4,7.1c-0.5,2.8-5.5,3.3-10.4-2.1
		C61.6,764.6,59.6,759.7,61.4,758.2z"/>
	<path class="st6" d="M230.8,825.2c1.9-4.5,22.8,0.4,31.1,3.4c8.3,3,12.1,6.5,10.4,9.5c-1.8,3-12.6-3.8-20.5-3.8
		C243.8,834.2,228.8,830.2,230.8,825.2z"/>
	<ellipse class="st6" cx="287.1" cy="827.1" rx="4.3" ry="2.4"/>
	<path class="st6" d="M309.3,912c-1.4-4.9,13.6-2.2,17.8-1c6.7,1.9,16.5-0.8,19.7,8.5c2.9,8.5-9.4,9.7-14.2,3.8
		C324.9,913.8,310.4,915.6,309.3,912z"/>
	<ellipse transform="matrix(0.4355 -0.9002 0.9002 0.4355 -612.3433 845.4373)" class="st6" cx="368" cy="911" rx="2.7" ry="3.7"/>
	<path class="st6" d="M376.4,919.1c1.8-5.5,15,1.7,20.7,2.5c5.7,0.8,9.7-3.6,13.7-2.2c3.9,1.4,3.3,8.2-2.7,10.1
		C394.7,933.8,373.9,926.8,376.4,919.1z"/>
	
		<ellipse transform="matrix(0.8416 -0.5401 0.5401 0.8416 -373.5927 379.5833)" class="st6" cx="460.4" cy="826.8" rx="7.7" ry="3.3"/>
	<g>
		<path class="st3" d="M489.3,815.1c0,0,1.7,6.4,8.3,9s9.3,1.1,9.3,3.1c0,2.4-14.4,3.2-16.2,5.2l1.1,7.3c0,0,5.6,0.5,14.6-6.3
			c10.9-8.2,14.9-1.1,18.6-3.1c2.1-1.2,5.2-4.2,4.6-6.5c-0.6-2.4-5.7-6.7-5.5-13.6s1.9-8.3,1.9-8.3l-9.5-2.9c0,0,1,5.9,0.4,10.9
			s-2.1,6.2-3.8,2.3c-1.7-3.9-2.6-6.5-2.6-6.5l-5.6,3.3c0,0,3,2.8,4.2,6.6s-1.9,4.9-4.7,2.9c-3.2-2.3-6.5-7.6-6.5-7.6L489.3,815.1z"
			/>
		<ellipse transform="matrix(0.866 -0.5 0.5 0.866 -340.4481 355.7489)" class="st0" cx="493.6" cy="813.2" rx="4.8" ry="2.5"/>
		<ellipse transform="matrix(0.866 -0.5 0.5 0.866 -335.6305 361.9576)" class="st0" cx="507.6" cy="807.3" rx="3.3" ry="1.8"/>
		
			<ellipse transform="matrix(0.2217 -0.9751 0.9751 0.2217 -374.4083 1131.1042)" class="st0" cx="521.4" cy="800.1" rx="2.3" ry="5.1"/>
		<ellipse class="st0" cx="491.7" cy="835.8" rx="2.1" ry="3.9"/>
		
			<ellipse transform="matrix(0.9123 -0.4095 0.4095 0.9123 -287.8531 279.8449)" class="st4" cx="509.5" cy="812.1" rx="0.7" ry="1.1"/>
		
			<ellipse transform="matrix(0.7655 -0.6434 0.6434 0.7655 -411.0339 511.1958)" class="st4" cx="495.9" cy="819.6" rx="0.9" ry="1.5"/>
		
			<ellipse transform="matrix(0.7655 -0.6434 0.6434 0.7655 -411.3006 514.8893)" class="st4" cx="500.8" cy="821.8" rx="1" ry="1.9"/>
		
			<ellipse transform="matrix(5.691978e-02 -0.9984 0.9984 5.691978e-02 -314.6114 1281.4888)" class="st4" cx="521" cy="807.3" rx="1.9" ry="1"/>
		
			<ellipse transform="matrix(5.691978e-02 -0.9984 0.9984 5.691978e-02 -320.7927 1287.4308)" class="st4" cx="521.1" cy="813.5" rx="1.5" ry="0.7"/>
		
			<ellipse transform="matrix(0.9764 -0.2158 0.2158 0.9764 -168.1383 127.1089)" class="st4" cx="498" cy="833.5" rx="1.5" ry="0.7"/>
	</g>
	
		<ellipse transform="matrix(0.4355 -0.9002 0.9002 0.4355 -552.1998 904.8368)" class="st6" cx="445.4" cy="892.7" rx="4.4" ry="2.9"/>
	<g>
		<path class="st3" d="M25.2,691.1c0,0,2.1,8.6,8.9,12.7c7.9,4.9,14.8,1.2,20.4,5.4c4.4,3.2,3.9,7.4,9,7.3s7.9-2,7.3-5.3
			c-0.8-3.9-7.4-11.3-13.5-16.3c-5.2-4.3-7.3-18.8-7.3-18.8l-9,2.3c0,0,4.1,9.9,4,13.4c-0.1,3.5-3.6,4.3-8.2-3.6L25.2,691.1z"/>
		<ellipse transform="matrix(0.969 -0.247 0.247 0.969 -169.4141 29.007)" class="st0" cx="30.9" cy="689.7" rx="5.9" ry="2.5"/>
		<ellipse transform="matrix(0.969 -0.247 0.247 0.969 -165.9076 32.1957)" class="st0" cx="45.4" cy="677.3" rx="4.6" ry="2"/>
		
			<ellipse transform="matrix(0.9394 -0.3428 0.3428 0.9394 -237.0727 53.2464)" class="st4" cx="32.1" cy="697.3" rx="1.1" ry="2.1"/>
		
			<ellipse transform="matrix(0.6184 -0.7859 0.7859 0.6184 -536.6477 298.2627)" class="st4" cx="38.8" cy="701.7" rx="1.4" ry="2.5"/>
		<ellipse transform="matrix(0.7511 -0.6601 0.6601 0.7511 -451.0866 217.323)" class="st4" cx="62.7" cy="707" rx="1.3" ry="3.4"/>
	</g>
	<g>
		<path class="st3" d="M47.2,689.5c0,0,2.4,6.7,12.7,6.4s14.8,0.7,16.6,5c1.8,4.3-0.2,9.5,3.1,10.6c3.4,1.1,13.1,0.5,12.7-5.9
			c-0.4-6.4-10.8-12.7-11.1-18.8s4.9-4.3,5.6-13.1l-6.1,0.3c0,0-1.7,7-5.9,5.4c-3.3-1.3-1.5-6.4,0.8-8.9c2.3-2.4,4.7-5.9,4.3-10.3
			l-10.2,0.4c0,0,0.6,7.4-3.9,9c-4.5,1.6-9.9-6.4-10.3-13.3l-10.7,0.5c0,0-0.1,10,6.1,15.6c6.2,5.6,14.3,6.1,15.6,11.7
			c1.2,5.6-4.7,4-8.2-0.2L47.2,689.5z"/>
		
			<ellipse transform="matrix(0.9991 -4.235820e-02 4.235820e-02 0.9991 -27.7706 2.7186)" class="st0" cx="50.3" cy="656.7" rx="5.4" ry="3"/>
		
			<ellipse transform="matrix(0.9991 -4.235820e-02 4.235820e-02 0.9991 -27.9109 3.7647)" class="st0" cx="74.9" cy="660.5" rx="5.1" ry="2.2"/>
		
			<ellipse transform="matrix(0.9991 -4.235820e-02 4.235820e-02 0.9991 -28.4682 4.1551)" class="st0" cx="83.8" cy="673.9" rx="3.1" ry="1.5"/>
		
			<ellipse transform="matrix(0.8979 -0.4401 0.4401 0.8979 -296.8717 93.3352)" class="st0" cx="52.8" cy="686.8" rx="6.2" ry="2.9"/>
		
			<ellipse transform="matrix(0.9296 -0.3686 0.3686 0.9296 -252.6184 81.3546)" class="st4" cx="86.6" cy="701.9" rx="1.2" ry="2.9"/>
		<ellipse transform="matrix(0.5 -0.866 0.866 0.5 -571.0886 395.8143)" class="st4" cx="57.2" cy="692.5" rx="1.5" ry="2.2"/>
		<ellipse transform="matrix(0.909 -0.4168 0.4168 0.909 -272.6852 81.8173)" class="st4" cx="51" cy="665.4" rx="1" ry="1.7"/>
		<ellipse transform="matrix(0.866 -0.5 0.5 0.866 -328.0185 117.4704)" class="st4" cx="55.2" cy="670.8" rx="1.2" ry="2.2"/>
	</g>
	<ellipse transform="matrix(0.5 -0.866 0.866 0.5 -578.1003 445.251)" class="st6" cx="96.5" cy="723.3" rx="2.8" ry="6.1"/>
	<path class="st6" d="M111.3,704.7c2.2-3.4,13.7,4.1,17.6,6.3s11.2,5.5,9.6,8.2c-1.6,2.7-13.6-1-20.3-5.4
		C111.5,709.4,109.9,706.8,111.3,704.7z"/>
	<path class="st6" d="M126.5,730.1c2.4-3.8,13.5,0.6,22.7,5.9s13.9,3.1,20.3,9.4c6.5,6.4,18.2,6.1,18.8,10.8
		c0.6,4.7-5.6,6.2-14.5,4.3c-8.9-1.9-5.9-9.2-13.8-12.2S120.6,739.5,126.5,730.1z"/>
	<path class="st6" d="M138.8,750.3c0.8-2.5,8.5,0.2,11.1,1.5s7.9,4.1,7.2,5.8s-5.8,0.7-12.3-2C138.3,752.8,138.2,751.9,138.8,750.3z
		"/>
	<path class="st6" d="M204.7,778.4c3.1-2.2,9.4,3,15.7,3.8c6.3,0.8,17.8,0.8,20.5,3.8c2.7,3-2.2,6.7-8.2,6c-6-0.7-6.6-3.7-17.4-4.3
		C204.6,787.2,201.7,780.6,204.7,778.4z"/>
	
		<ellipse transform="matrix(9.413426e-02 -0.9956 0.9956 9.413426e-02 -518.7977 981.2754)" class="st6" cx="279.8" cy="775.7" rx="2.9" ry="5.9"/>
	<ellipse class="st6" cx="308.7" cy="755" rx="8.4" ry="4"/>
	<ellipse class="st6" cx="379.2" cy="760.5" rx="6.6" ry="2.8"/>
	<path class="st6" d="M391.1,780.5c1.4-3.6,8.8,0.8,16,0.8s9.6,0.8,9.7,2.8c0.1,2-1.4,3.6-7.3,3.3s-7.9-1.3-9.6,1.4
		C398,791.6,388.9,786.2,391.1,780.5z"/>
	<path class="st6" d="M261.2,766.1c-2.5-7.8,8.6-7.8,15.4-7.1s11.5-1.2,17.9,2.3c6.4,3.5,14.1-0.4,20.8,3c6.7,3.4,6.6,7.9,3.3,8.8
		c-3.3,0.9-8-0.6-15.4,0.8c-6.4,1.1-13.5-6.1-20.4-6.4C275.9,767.1,263,771.7,261.2,766.1z"/>
	<g>
		<path class="st3" d="M152.6,730.4c0,0,2.3,10.5,13.9,10.3c11.6-0.2,19.1-3,24.9,4.8c5.8,7.7,4.2,10.6,10.1,11.1s12.6-0.1,13.7-3.1
			c1.1-3-10-8.1-8.8-18.3c1.2-10.2,11-14.1,17.9-16.1c6.9-2.1,15.7-6.6,18.7-12.9l-8.8-3.9c0,0-2.8,5-7.2,3.9
			c-4.4-1.1-4.1-13.7-4.1-13.7h-10.4c0,0,0.5,12.2-2.5,18.9c-3,6.7-6.3,14.2-12.1,10.8c-5.8-3.4,6.7-9.2,6.6-23h-12.5
			c0,0,0.5,11.2-5.5,15.6c-6,4.4-11.7-0.7-8.9-6.1s7.5-7.4,6.6-23.7h-11.2c0,0,1.3,10.5-2.5,13c-3.8,2.5-7.1-0.9-8.4-5.6
			s-0.5-11.2-0.5-11.2h-12.7c0,0-1.1,12.8,7.1,24.3c8.1,11.5,17,15.6,17.6,21.8c0.7,6.2-6.7,3.6-9.4-0.6L152.6,730.4z"/>
		
			<ellipse transform="matrix(0.9572 -0.2895 0.2895 0.9572 -204.1375 77.0333)" class="st0" cx="158.4" cy="728.6" rx="6" ry="1.8"/>
		<ellipse class="st4" cx="169.6" cy="702.6" rx="1.7" ry="1.1"/>
		
			<ellipse transform="matrix(0.2464 -0.9692 0.9692 0.2464 -539.185 699.6074)" class="st4" cx="180.3" cy="696.5" rx="2.1" ry="1"/>
		<ellipse class="st4" cx="178.9" cy="691.2" rx="0.9" ry="1.3"/>
		<ellipse class="st4" cx="152.4" cy="689.7" rx="0.7" ry="1.1"/>
		
			<ellipse transform="matrix(0.951 -0.3092 0.3092 0.951 -207.2278 82.1368)" class="st4" cx="155.5" cy="694.7" rx="0.9" ry="1.8"/>
		<ellipse transform="matrix(0.866 -0.5 0.5 0.866 -338.1636 184.2968)" class="st4" cx="174.8" cy="723.2" rx="1.1" ry="2.8"/>
		<ellipse class="st4" cx="166.5" cy="737.7" rx="2.4" ry="1.1"/>
		
			<ellipse transform="matrix(0.8146 -0.5801 0.5801 0.8146 -396.9625 228.9153)" class="st4" cx="159.6" cy="735.4" rx="1" ry="1.3"/>
		<ellipse class="st4" cx="197.9" cy="706.5" rx="1.1" ry="1.8"/>
		<ellipse class="st4" cx="215.6" cy="700.4" rx="1.5" ry="2.8"/>
		
			<ellipse transform="matrix(0.2464 -0.9692 0.9692 0.2464 -524.3109 741.6339)" class="st4" cx="214.7" cy="707.9" rx="1.4" ry="0.9"/>
		<ellipse class="st4" cx="227.1" cy="713.6" rx="1.4" ry="0.9"/>
		<ellipse transform="matrix(0.866 -0.5 0.5 0.866 -323.7548 211.7717)" class="st4" cx="233.3" cy="710" rx="2.5" ry="1.2"/>
		<ellipse class="st0" cx="155.2" cy="681.4" rx="6.4" ry="3.7"/>
		<ellipse class="st0" cx="178.5" cy="685.1" rx="5.6" ry="2.2"/>
		<ellipse class="st0" cx="198.1" cy="699.3" rx="6.3" ry="3"/>
		<ellipse class="st0" cx="217.6" cy="692.5" rx="5.2" ry="2.3"/>
		
			<ellipse transform="matrix(0.4008 -0.9162 0.9162 0.4008 -502.3081 640.5243)" class="st0" cx="238.5" cy="704.3" rx="2.5" ry="4.8"/>
	</g>
	<g>
		<path class="st0" d="M74.3,807.6c1.1-5.9,13.2-7.7,17.1-2.8c3,3.9,3.4,16.9-5.5,17.9C76.9,823.8,73.2,814,74.3,807.6z"/>
		<path class="st2" d="M77.6,803.6c0,0,0.3,13.9,8.3,19.1c0,0,4.2-4.8,2.4-20.1"/>
		<path class="st2" d="M83.1,802c0,0,0.1,11.4,2.7,20.7"/>
	</g>
	<g>
		<path class="st0" d="M89.2,834.2c4.7,0.5,9.6-10.8,5.5-13.7c-5-3.5-11.5-0.7-12.2,2.9C82,827,85,833.7,89.2,834.2z"/>
		<path class="st2" d="M86.1,819.9c0,0-0.9,9.6,1.6,14"/>
		<path class="st2" d="M90.4,819.3c0,0,0.6,7.9-1.2,14.9"/>
		<path class="st2" d="M94,820.2c0,0,1.5,6.4-1.8,12.9"/>
	</g>
	<g>
		<path class="st3" d="M366.2,461.8c0,0,5.9,4.9,10.7,15c4.8,10.2,19.6,10.9,28.6,21.9c9,11.1,16.9,31.7,21.1,58.8l33.9,8.2
			c0,0,33-20,54.2-30.6s34.7-17.2,54.2-16.4l-1.2-18.3c0,0-14.3,4.3-26.7,2.6s-6.5-16,3.8-23.5s22.9-4.6,29.8-11l-5.5-17
			c0,0-6.2,5.4-17.3,8.1s-8.3-8.8-0.4-21l-13.1-2.4c0,0-2.5,3-8,10.4c-5.6,7.3-6.5,22-16.3,37c-9.8,15-20.7,13.2-19.2,3.4
			c1.5-9.8,2.5-33.5,6-44.3c3.5-10.9,33.7-28.1,36.8-38.4c0.6-2.1-19.3-19.1-19.3-19.1s-1.1,8.8-10.8,21.1
			c-9.7,12.3-12.9,0.6-14.2-4.8s-0.7-12.1-3.2-16.4l-19.2,8.5c0,0,8.2,11.7,9.6,28s-4.8,35.3-22.8,38.9c-17.9,3.7-7.3-37.1-6.6-51.3
			l-23.6-6.1c0,0,2.9,14.2-0.9,18.2c-3.8,4-9.2-4.3-10.2-9.6l-10.7,7.7c0,0,1.8,9.5,11.6,18.4c9.8,8.8,11,18.2,7.8,28.1
			c-3.3,9.9-20.7,2.3-27.9-23.5L366.2,461.8z"/>
		
			<ellipse transform="matrix(0.8238 -0.5668 0.5668 0.8238 -188.6434 295.6582)" class="st0" cx="381.3" cy="451.3" rx="18.4" ry="6.4"/>
		<ellipse transform="matrix(0.3152 -0.949 0.949 0.3152 -83.9938 694.2583)" class="st0" cx="439" cy="405.3" rx="5.4" ry="12.5"/>
		
			<ellipse transform="matrix(0.9147 -0.4042 0.4042 0.9147 -116.3706 227.3025)" class="st0" cx="480.2" cy="389.3" rx="10.5" ry="4.7"/>
		
			<ellipse transform="matrix(0.7475 -0.6642 0.6642 0.7475 -171.8768 377.4417)" class="st0" cx="410.6" cy="414.8" rx="6.8" ry="3.5"/>
		
			<ellipse transform="matrix(0.7884 -0.6152 0.6152 0.7884 -131.0503 408.2112)" class="st0" cx="527.8" cy="394.6" rx="5.7" ry="14.1"/>
		
			<ellipse transform="matrix(0.1819 -0.9833 0.9833 0.1819 15.4458 893.6631)" class="st0" cx="544.8" cy="437.5" rx="3.5" ry="6.7"/>
		
			<ellipse transform="matrix(0.9715 -0.237 0.237 0.9715 -92.6601 148.7671)" class="st0" cx="572.3" cy="459.7" rx="4.1" ry="9.2"/>
		
			<ellipse transform="matrix(0.9979 -6.442276e-02 6.442276e-02 0.9979 -31.6515 37.6657)" class="st0" cx="568.2" cy="509.6" rx="4.1" ry="9.2"/>
		
			<ellipse transform="matrix(0.7818 -0.6235 0.6235 0.7818 -211.703 341.4204)" class="st4" cx="382" cy="473.2" rx="1.9" ry="3.8"/>
		
			<ellipse transform="matrix(0.8238 -0.5668 0.5668 0.8238 -200.5824 305.4711)" class="st4" cx="391.2" cy="475.4" rx="1.6" ry="5"/>
		
			<ellipse transform="matrix(0.8238 -0.5668 0.5668 0.8238 -204.5492 311.7135)" class="st4" cx="399.2" cy="484.9" rx="0.9" ry="1.7"/>
		
			<ellipse transform="matrix(0.7818 -0.6235 0.6235 0.7818 -176.4491 354.9341)" class="st4" cx="418.9" cy="429.6" rx="1.9" ry="3.2"/>
		
			<ellipse transform="matrix(3.561056e-02 -0.9994 0.9994 3.561056e-02 3.6364 849.2565)" class="st4" cx="441.8" cy="422.7" rx="4.1" ry="2"/>
		<ellipse transform="matrix(0.9792 -0.2028 0.2028 0.9792 -75.7628 97.0716)" class="st4" cx="435.8" cy="418.3" rx="1" ry="2.1"/>
		
			<ellipse transform="matrix(0.3567 -0.9342 0.9342 0.3567 -120.8255 693.816)" class="st4" cx="443.4" cy="434.6" rx="1.9" ry="1.4"/>
		
			<ellipse transform="matrix(0.9945 -0.1048 0.1048 0.9945 -40.4561 53.077)" class="st4" cx="484.7" cy="411.4" rx="1.4" ry="3.3"/>
		
			<ellipse transform="matrix(0.9594 -0.2819 0.2819 0.9594 -94.0546 151.7851)" class="st4" cx="480.4" cy="402.7" rx="1.2" ry="2.4"/>
		
			<ellipse transform="matrix(0.6335 -0.7737 0.7737 0.6335 -125.6785 552.1356)" class="st4" cx="520" cy="408.7" rx="2.8" ry="2.1"/>
		
			<ellipse transform="matrix(0.6335 -0.7737 0.7737 0.6335 -123.5768 556.6005)" class="st4" cx="525.8" cy="408.8" rx="2.1" ry="1.3"/>
		<ellipse transform="matrix(0.3848 -0.923 0.923 0.3848 -92.6512 770.9578)" class="st4" cx="532" cy="455" rx="3.6" ry="1.7"/>
		<ellipse transform="matrix(0.1819 -0.9833 0.9833 0.1819 -2.9 894.4374)" class="st4" cx="536.1" cy="449" rx="1.7" ry="1.1"/>
		
			<ellipse transform="matrix(0.7988 -0.6017 0.6017 0.7988 -165.9531 430.8391)" class="st4" cx="561.1" cy="463.5" rx="1.9" ry="1.1"/>
		
			<ellipse transform="matrix(0.9715 -0.237 0.237 0.9715 -94.3882 147.2639)" class="st4" cx="565.2" cy="466.2" rx="1.9" ry="1.1"/>
		
			<ellipse transform="matrix(0.9715 -0.237 0.237 0.9715 -95.4307 145.2118)" class="st4" cx="556.2" cy="469.5" rx="2.6" ry="1.4"/>
		
			<ellipse transform="matrix(0.8263 -0.5633 0.5633 0.8263 -191.8944 387.7826)" class="st4" cx="532.7" cy="505" rx="1.1" ry="1.9"/>
		
			<ellipse transform="matrix(0.9979 -6.442276e-02 6.442276e-02 0.9979 -31.1498 34.8956)" class="st4" cx="525.5" cy="500.5" rx="1.9" ry="3.3"/>
		
			<ellipse transform="matrix(4.648108e-02 -0.9989 0.9989 4.648108e-02 18.4618 1047.8168)" class="st4" cx="558.1" cy="514.2" rx="1.8" ry="2.3"/>
		
			<ellipse transform="matrix(7.539631e-02 -0.9972 0.9972 7.539631e-02 -4.5282 916.1411)" class="st4" cx="491.7" cy="460.5" rx="1.9" ry="1.1"/>
		
			<ellipse transform="matrix(0.9979 -6.442276e-02 6.442276e-02 0.9979 -29.2866 32.6571)" class="st4" cx="491.7" cy="470.5" rx="1.5" ry="3.6"/>
	</g>
	<g>
		<path class="st0" d="M557.1,789.2c0.5-7.1,16.5-10.2,21.1-6.9c4.6,3.3,2.4,22-5.9,22.8C562.5,805.9,556.7,794.1,557.1,789.2z"/>
		<path class="st2" d="M562.3,783.3c0,0-1.2,16.2,8.2,21.8"/>
		<path class="st2" d="M568.9,781.3c0,0-0.1,14.3,3.5,23.8"/>
		<path class="st2" d="M574.5,781.1c0,0,3.9,11.7,0,23.3"/>
	</g>
	<g>
		<path class="st0" d="M543.7,799.8c-0.4-3.8,6.6-8.7,13.4-8.7c6.8,0,4.9,12.8,1.7,14.8C555.5,808,544.4,806.2,543.7,799.8z"/>
		<path class="st2" d="M547.3,794.4c0,0,2.5,9.1,10.2,12.1"/>
		<path class="st2" d="M553.1,791.7c0,0,1.9,10.9,5.7,14.2"/>
	</g>
	<g>
		<path class="st3" d="M191.6,318c0,0,8.5-2.5,17.4,6.8c8.9,9.2,23.1,8.8,29.4,30.7c6.3,22-2,36.3,7.4,39.1
			c9.4,2.8,32.3-0.1,36.5-4.2s-0.2-9.9,10-20.2s24.6-34.3,52.3-34.5l-1.4-14.8c0,0-5.5,4-17.6,1.6c-12.1-2.4,6-19.1,6-19.1
			l-15.2-5.1c0,0-4.2,10.8-12.1,18.7c-7.9,7.9-18.6,11.2-18.9-0.7c-0.3-11.9,13.1-27.2,20.7-33l-10.7-10.7c0,0-3.8,10-10.6,11.3
			c-6.9,1.3-3.9-15.9-6.7-27l-18.8,5.9c0,0,2.1,9.2,5.4,24.3s5.4,36.3-3.3,46.8c-8.7,10.5-18.6,8.2-21.6-9.9
			c-3-18.1,8.1-29.6,14.1-35.7L237.7,278c0,0-1.2,6.4-10.9,8.5s-9.4-9.4-14-16.8l-18.7,9.2c0,0,9,6.7,10.6,15.3
			c1.6,8.6-1.6,13.3-11.8,11.6L191.6,318z"/>
		
			<ellipse transform="matrix(0.8974 -0.4413 0.4413 0.8974 -100.1635 117.9171)" class="st0" cx="203.4" cy="274.3" rx="10.4" ry="3.3"/>
		<ellipse transform="matrix(0.9543 -0.2988 0.2988 0.9543 -65.3526 92.172)" class="st0" cx="268.7" cy="259.8" rx="9.9" ry="3"/>
		
			<ellipse transform="matrix(0.1076 -0.9942 0.9942 0.1076 -138.487 469.4438)" class="st0" cx="192.3" cy="311.9" rx="6.1" ry="2.2"/>
		
			<ellipse transform="matrix(0.5374 -0.8434 0.8434 0.5374 -125.0717 338.3009)" class="st0" cx="245.8" cy="283.1" rx="4.1" ry="9.6"/>
		
			<ellipse transform="matrix(0.7071 -0.7071 0.7071 0.7071 -108.4174 294.0964)" class="st0" cx="300.8" cy="277.9" rx="3.2" ry="7.6"/>
		
			<ellipse transform="matrix(0.2658 -0.964 0.964 0.2658 -51.5112 533.2517)" class="st0" cx="324.3" cy="300.4" rx="3.3" ry="8.2"/>
		
			<ellipse transform="matrix(0.9957 -9.298599e-02 9.298599e-02 0.9957 -29.0402 33.4038)" class="st0" cx="343.9" cy="328.3" rx="3.6" ry="7.4"/>
		<ellipse transform="matrix(0.944 -0.3299 0.3299 0.944 -82.0293 83.1141)" class="st4" cx="203.9" cy="283.3" rx="0.9" ry="1.5"/>
		<ellipse transform="matrix(0.944 -0.3299 0.3299 0.944 -83.0358 84.7262)" class="st4" cx="208.1" cy="287" rx="1.1" ry="2.5"/>
		
			<ellipse transform="matrix(0.5374 -0.8434 0.8434 0.5374 -135.8876 340.7303)" class="st4" cx="242.6" cy="294.2" rx="2.5" ry="1.1"/>
		
			<ellipse transform="matrix(0.1076 -0.9942 0.9942 0.1076 -135.0422 477.9687)" class="st4" cx="198.7" cy="314.2" rx="1.2" ry="2.1"/>
		
			<ellipse transform="matrix(0.8976 -0.4409 0.4409 0.8976 -126.0321 142.6004)" class="st4" cx="243.9" cy="342.5" rx="1.1" ry="1.9"/>
		
			<ellipse transform="matrix(0.5374 -0.8434 0.8434 0.5374 -159.7451 380.9562)" class="st4" cx="267.4" cy="336.1" rx="3.2" ry="1.7"/>
		
			<ellipse transform="matrix(5.786531e-02 -0.9983 0.9983 5.786531e-02 -68.7884 578.1115)" class="st4" cx="271.9" cy="325.5" rx="1.3" ry="0.9"/>
		<ellipse transform="matrix(0.9893 -0.146 0.146 0.9893 -36.0886 42.6136)" class="st4" cx="272.2" cy="267.1" rx="0.9" ry="1.3"/>
		<ellipse transform="matrix(0.9893 -0.146 0.146 0.9893 -36.4846 43.1546)" class="st4" cx="275.7" cy="270.1" rx="0.8" ry="1.8"/>
		
			<ellipse transform="matrix(3.887016e-02 -0.9992 0.9992 3.887016e-02 -13.1924 541.459)" class="st4" cx="274.9" cy="277.6" rx="1.8" ry="0.8"/>
		
			<ellipse transform="matrix(0.7507 -0.6606 0.6606 0.7507 -114.9554 265.5056)" class="st4" cx="294.3" cy="285.1" rx="1.8" ry="1"/>
		
			<ellipse transform="matrix(0.7507 -0.6606 0.6606 0.7507 -120.6975 265.3916)" class="st4" cx="291.3" cy="292.6" rx="2.4" ry="1.3"/>
		
			<ellipse transform="matrix(0.6555 -0.7552 0.7552 0.6555 -130.711 344.4125)" class="st4" cx="312.1" cy="315.5" rx="2.4" ry="1.3"/>
		
			<ellipse transform="matrix(0.2658 -0.964 0.964 0.2658 -63.6546 531.7545)" class="st4" cx="317.3" cy="307.7" rx="2.4" ry="1.3"/>
		
			<ellipse transform="matrix(0.9843 -0.1765 0.1765 0.9843 -53.6658 63.4648)" class="st4" cx="329.9" cy="333.4" rx="2.4" ry="1.3"/>
		
			<ellipse transform="matrix(0.9843 -0.1765 0.1765 0.9843 -53.0619 62.3866)" class="st4" cx="324.1" cy="329.5" rx="1.8" ry="0.9"/>
		
			<ellipse transform="matrix(0.8475 -0.5307 0.5307 0.8475 -123.5906 227.3999)" class="st4" cx="334" cy="328.8" rx="2.1" ry="1.2"/>
		
			<ellipse transform="matrix(0.2114 -0.9774 0.9774 0.2114 -143.2256 564.0757)" class="st4" cx="278" cy="370.8" rx="2.6" ry="1.2"/>
		
			<ellipse transform="matrix(0.2114 -0.9774 0.9774 0.2114 -151.2181 574.1081)" class="st4" cx="280.2" cy="380.8" rx="4.6" ry="1.3"/>
	</g>
	<g>
		<path class="st0" d="M190.3,643.7c7.9-2.8,12.5,1.1,12.3,8.5c-0.2,7.4-2.5,10.6-6.4,11.7c-3.8,1-11.3-2.5-12.9-8.5
			C181.6,649.4,184.7,645.7,190.3,643.7z"/>
		<path class="st2" d="M185.5,646.4c0,0,1.5,12.6,7.6,17.5"/>
		<path class="st2" d="M190.9,643.6c0,0,1.6,14.3,5.3,20.4"/>
		<path class="st2" d="M196.9,643c0,0,3.1,12.7,1.9,19.7"/>
	</g>
	<g>
		<path class="st0" d="M205.3,647.6c3.4-0.5,9.2-0.6,9.8,4.6c0.5,5.2-2.7,12.8-7.9,13.2c-5.3,0.5-9-7.6-9-11.2
			S200.2,648.3,205.3,647.6z"/>
		<path class="st2" d="M211.1,647.8c0,0,3.3,8.9-1.3,16.7"/>
		<path class="st2" d="M206,647.5c0,0,2.6,8.7,1.1,17.9"/>
		<path class="st2" d="M201.6,648.6c0,0-0.2,10.9,3.5,16.6"/>
	</g>
	<g>
		<path class="st0" d="M134.5,635.2c3.6-2.4,8.2-3.1,10.6,0.6c2.2,3.3,3.9,13-1,15.2c-4.9,2.2-13.3-4.5-13.7-8.1
			S132.1,636.8,134.5,635.2z"/>
		<path class="st2" d="M132,637.5c0,0,1.8,10.4,10.8,13.9"/>
		<path class="st2" d="M135.2,634.7c0,0,3.8,11,9.7,15.7"/>
		<path class="st2" d="M139.6,633.2c0,0,6.6,7.3,6.6,15.7"/>
	</g>
	<g>
		<g>
			<path class="st0" d="M339.9,421.1c5.2,0,8.5,1.8,8.4,7.4c0,5.5-4.4,10.4-7.4,10.5s-8.3-3.3-8.6-9.5
				C332,423.1,335.4,421.1,339.9,421.1z"/>
			<path class="st0" d="M335.9,421.8c0,0-2.5,10.7,4.4,17.2c0,0,6.4-4.9,6.2-15.9"/>
			<path class="st0" d="M340.7,421.2c0,0,2,9-0.4,17.9"/>
		</g>
		<g>
			<path class="st0" d="M352.2,430.3c5.1,0,8.3,2.1,7.6,7.1c-0.7,5-4.3,9.5-7.4,9.7s-6.7-4.3-7.3-9.3
				C344.5,432.7,347.4,430.3,352.2,430.3z"/>
			<path class="st0" d="M348,431.1c0,0-1,10.3,3.4,15.9"/>
			<path class="st0" d="M352.2,430.3c0,0-1.1,9.8,0.2,16.8"/>
			<path class="st0" d="M356.8,431.1c0,0,1.8,11.2-3.9,15.9"/>
		</g>
	</g>
	<g>
		<path class="st3" d="M514.5,710.2c0,0-0.5,2.9-1.1,7.8c-0.9,7.8-3.7,12.3-13,15.9l6.5,13.6c0,0,11.3-2.2,18.3-0.1s9,3.4,13.8,4
			l1-7.7c0,0-1.5-1.4-7.3-2.2c-5-0.7-4.9-3.2-3-4.7c1.9-1.5,6.6-2.3,8.3-4.5l-5.7-6.9c0,0-5.1,5.2-9,4.8c-3.9-0.4-0.2-10.4,2.1-16.2
			L514.5,710.2z"/>
		
			<ellipse transform="matrix(0.3339 -0.9426 0.9426 0.3339 -324.9191 964.3658)" class="st0" cx="519.9" cy="712.1" rx="2.4" ry="5.7"/>
		
			<ellipse transform="matrix(0.7709 -0.637 0.637 0.7709 -341.6671 507.8352)" class="st0" cx="535.1" cy="728.8" rx="2.2" ry="4.5"/>
		
			<ellipse transform="matrix(0.1291 -0.9916 0.9916 0.1291 -271.521 1185.8887)" class="st0" cx="539.4" cy="747.5" rx="3.9" ry="1.5"/>
		
			<ellipse transform="matrix(0.1291 -0.9916 0.9916 0.1291 -262.9586 1141.4664)" class="st4" cx="518.4" cy="720.4" rx="2.1" ry="1.2"/>
		<circle class="st4" cx="517.7" cy="727.3" r="1"/>
		<ellipse transform="matrix(0.866 -0.5 0.5 0.866 -295.0436 363.1136)" class="st4" cx="530.1" cy="732.1" rx="2" ry="1.1"/>
		<ellipse class="st4" cx="524.3" cy="741.4" rx="1.4" ry="2.2"/>
	</g>
	<ellipse transform="matrix(0.745 -0.667 0.667 0.745 -344.0603 578.1368)" class="st6" cx="584.2" cy="739.1" rx="4.7" ry="2.5"/>
	<path class="st4" d="M583.2,801.8c-2.8,0.1-5.1,1.7-5,3.5c0,0.1,0,0.3,0.1,0.4c-0.5,0.1-1,0.2-1.6,0.4c-2.6,1.1-4.2,3.3-3.6,5
		c0.7,1.7,3.4,2.2,6,1.1c2.1-0.8,3.5-2.4,3.7-3.9c0.2,0,0.4,0,0.7,0c2.8-0.1,5.1-1.7,5-3.5C588.4,803,586.1,801.6,583.2,801.8z"/>
	<path class="st4" d="M568.1,803.3c-0.7-1.9-3.5-2.6-6.3-1.6c-2,0.7-3.5,2.2-3.9,3.7c-1.2,0.1-2.4,0.6-3.5,1.5
		c-2.6,2-3.5,5.1-2.2,7.1c-2.4,1.1-3.9,2.9-3.3,4.2c0.6,1.3,3.1,1.6,5.6,0.5c2.1-0.9,3.6-2.4,3.7-3.6c0.6-0.2,1.2-0.6,1.7-1
		c1.8-1.4,2.8-3.4,2.8-5.1c0.5-0.1,1-0.2,1.5-0.4C567,807.5,568.7,805.2,568.1,803.3z"/>
	<path class="st4" d="M176,582.4c-1.4,0.1-2.6,0.9-3.2,2.1c-0.7-1.8-2.2-3-4-3c-2.3,0-4.2,2-4.4,4.6c-0.7-0.9-1.6-1.5-2.6-1.5
		c-2,0-3.6,2.1-3.6,4.7c0,0.2,0,0.3,0,0.5c0,0,0,0,0,0c-2.6,0-4.7,1.1-4.7,2.4s2.1,2.4,4.7,2.4c1.3,0,2.4-0.3,3.3-0.7
		c0.1,0,0.2,0,0.3,0c1.1,0,2.2-0.7,2.8-1.8c0.6-1,1.8-1.3,2.9-0.9c0.4,0.2,0.9,0.2,1.3,0.2c1,0,1.9-0.4,2.6-1c0.8-0.7,2-0.8,2.9-0.3
		c0.6,0.4,1.4,0.6,2.2,0.6c2.3,0,4.2-1.9,4.2-4.2C180.6,584.2,178.4,582.2,176,582.4z"/>
	<path class="st4" d="M398.5,608.9c0-0.1,0-0.2,0-0.3c0-2-1.6-3.6-3.6-3.6c-1.5,0-2.8,0.9-3.3,2.2c-0.4-0.1-0.8-0.1-1.2-0.1
		c-1.9,0-3.4,1-3.4,2.2s1.5,2.2,3.4,2.2c0.7,0,1.4-0.1,1.9-0.4c0.5,0.5,1,0.8,1.7,1c0.5,1,2.1,1.8,4,1.8c2.3,0,4.2-1.1,4.2-2.5
		C402.1,610.1,400.5,609.1,398.5,608.9z"/>
	<path class="st4" d="M207.6,629.8c-0.6-1-1.8-1.5-3.2-1.5c1.1-1.7,1.4-3.5,0.6-4.7c-1.4-2.1-5.3-2-8.7,0.2
		c-0.2,0.1-0.4,0.3-0.6,0.4c1.5-3.4,1-6.9-1.3-8.4c-2.7-1.9-7.1-0.3-9.7,3.6c-1.3,1.9-1.9,3.9-1.9,5.7c-2.5-1.3-5.3-1.1-6.4,0.6
		c-0.8,1.2-0.7,2.7,0.2,4.2c-2.5,0.8-4.3,2.7-4.3,5c0,3,2.9,5.3,6.6,5.3c0.3,0,0.7,0,1-0.1c2.6,1.2,6.3,1.9,10.3,1.6
		c3.4-0.2,6.5-1.1,8.9-2.4c1.5-0.1,3.1-0.7,4.7-1.7C207.2,635.4,208.9,631.9,207.6,629.8z"/>
	<g>
		<path class="st0" d="M416.8,672.2c7.2-2.4,14.5-0.3,15.3,5.4c1,7.7-2.8,15.4-7.6,17.4s-13-1.1-14.7-10.3
			C408.2,676.9,413.4,673.3,416.8,672.2z"/>
		<path class="st2" d="M413,674.3c0,0-0.3,13,7.3,21.2"/>
		<path class="st2" d="M417.7,671.9c0,0,0,14.5,5.6,23.6"/>
		<path class="st2" d="M424.6,671.4c0,0,4.2,13.6,1.3,22.8"/>
	</g>
	<g>
		<path class="st0" d="M437.3,681.3c4.1,0.8,9.1,4.5,6.6,9.4c-2.4,4.9-9.7,9.8-13.4,9.1c-3.7-0.7-7.2-6.4-5.9-14.1
			C425.5,679.9,433,680.4,437.3,681.3z"/>
		<path class="st2" d="M437.3,681.3c0,0-0.7,12.9-5.9,18.6"/>
		<path class="st2" d="M429,681.3c0,0-1,13.1,1.5,18.5"/>
		<path class="st2" d="M441.4,683c0,0,1.4,9.7-7.6,16.3"/>
	</g>
	<path class="st4" d="M420,738.1c-1.5-1.4-4.1-1-5.8,0.9c-0.3,0.3-0.6,0.7-0.8,1.1c-0.2,0-0.3,0-0.5,0c-0.1-0.7-0.3-1.2-0.8-1.7
		c-1.3-1.2-3.8-0.7-5.5,1.2c-0.3,0.3-0.6,0.7-0.8,1.1c-1.4-0.6-2.8-0.4-3.4,0.6c-0.5,0.8-0.2,1.8,0.6,2.7c-0.9,0.4-1.5,1.1-1.5,1.9
		c0,1.3,1.6,2.4,3.6,2.4c1.1,0,2-0.3,2.7-0.8c1.2,0.2,2.7,0.2,4.3-0.2c1.4-0.4,2.6-0.9,3.5-1.6c1.4,0.2,2.9-0.4,4.1-1.6
		C421.3,742.1,421.5,739.5,420,738.1z"/>
	<path class="st4" d="M452.6,723.1c-1.8-1.2-3.8-1.4-5.3-0.8c0-1.1-0.7-2.4-2-3.2c-1.7-1.1-3.8-1-4.7,0.3c-0.1,0.2-0.2,0.4-0.2,0.6
		c-0.6-2.3-2.4-4-4.6-4c-2.7,0-4.8,2.6-4.8,5.7c0,0.6,0.1,1.2,0.2,1.7c-0.2,0-0.5,0-0.7,0c-2.3,0-4.1,1.2-4.1,2.7
		c0,1.5,1.8,2.7,4.1,2.7c1.6,0,2.9-0.6,3.6-1.4c0.9,1.9,2.9,3.7,5.6,4.8c4.1,1.7,8.3,1,9.5-1.4c2.3,0.9,4.7,0.5,5.8-1.1
		C456.3,727.7,455.2,724.7,452.6,723.1z M440.7,721.9C440.7,721.9,440.7,721.9,440.7,721.9C440.6,721.9,440.6,721.9,440.7,721.9
		C440.7,721.9,440.7,721.9,440.7,721.9z"/>
	<path class="st4" d="M460.1,738.3c-0.2-1.1-1.6-1.8-3.3-1.8c1.1-2.8,0.5-5.6-1.4-6.5c-1.3-0.6-2.9-0.2-4.3,1
		c-0.6-0.6-1.3-0.9-2-0.9c-1.9,0-3.5,2.3-3.5,5.1s1.6,5.1,3.5,5.1c0.1,0,0.2,0,0.3,0c0.2,0.2,0.5,0.5,0.8,0.6
		c0.7,0.3,1.4,0.4,2.2,0.2c0.8,0.8,2.4,1.1,4.1,0.8C458.7,741.2,460.3,739.7,460.1,738.3z"/>
	<path class="st4" d="M225.5,652.4c-0.7-1.3-2.4-1.8-4.2-1.5c0.3-2.1-0.5-4-2-4.6c-1.5-0.6-3.3,0.1-4.7,1.7c0-0.3,0.1-0.7,0.1-1
		c0-3.3-2.2-5.9-4.8-5.9c-2.7,0-4.8,2.6-4.8,5.9c0,1.5,0.5,2.9,1.3,3.9c-1.2,0.6-2,1.4-2.3,2.5c-0.6,2.6,2.2,5.4,6.2,6.4
		c2.7,0.6,5.2,0.3,6.8-0.8c1.4,0.8,3.6,0.7,5.6-0.5C225.3,657.1,226.6,654.3,225.5,652.4z"/>
	<path class="st4" d="M173.8,621.4c-1.4-0.6-3.2,0.2-4.4,1.9c-0.3-1.9-1.3-3.3-2.7-3.5c-1.7-0.3-3.4,1.2-4.2,3.4
		c-0.7-1.3-1.7-2.2-2.9-2.2c-2,0-3.7,2.5-3.7,5.6c0,3.1,1.6,5.6,3.7,5.6c1.4,0,2.6-1.2,3.2-2.9c0.5,0.8,1.2,1.3,2,1.5
		c1.1,0.2,2.2-0.4,3.1-1.5c0.2,1.2,0.9,2.1,1.8,2.4c1.9,0.8,4.3-0.9,5.5-3.8C176.3,625.1,175.7,622.2,173.8,621.4z"/>
	<g>
		<path class="st4" d="M380.8,607.9c-1.7-0.1-3.2,0.6-4.2,1.7c-0.4-0.7-0.9-1.4-1.6-2c0.9-1.1,1.5-2.8,1.4-4.7
			c-0.1-3.3-2.1-5.8-4.4-5.8c-1.1,0-2,0.6-2.7,1.5c-0.3-1.2-0.9-2.1-1.9-2.4c-1.2-0.4-2.6,0.3-3.7,1.6c-0.4-0.8-1-1.4-1.7-1.5
			c-1.5-0.3-3.1,1.4-3.5,3.8c-0.1,0.8-0.1,1.6,0,2.3c-2-0.6-3.9-0.1-4.4,1.3c-0.5,1.4,0.7,3.2,2.8,3.9c0.5,0.2,1.1,0.3,1.6,0.3
			c-2,0.9-3.2,2.8-2.7,4.3c0.6,1.7,2.9,2.3,5.2,1.5c0.3-0.1,0.6-0.3,0.9-0.4c1.2,2,3.8,3.4,6.9,3.6c2.7,0.1,5.1-0.7,6.6-2.2
			c0.7,2,2.5,3.5,4.8,3.6c2.9,0.1,5.4-2.1,5.6-5.1C386.1,610.6,383.8,608.1,380.8,607.9z"/>
		<path class="st4" d="M369.7,610.3c0,0,1.4-3.7,5.3-2.6"/>
	</g>
	<g>
		<path class="st4" d="M425.5,705.5c-0.2-1.9-2-3.4-4.2-3.6c0.3-1.8-0.4-3.9-1.9-5.8c-2.2-2.7-5.5-3.7-7.6-2.4
			c-1.1-1.7-2.7-2.7-4.4-2.6c-1.7,0.2-3.1,1.5-3.8,3.3c-0.2-0.8-0.6-1.5-1.2-2c-2-1.7-5.6-0.7-8.1,2.2c-0.3-1.1-1.1-2-2.1-2.1
			c-1.6-0.3-3.1,1.3-3.5,3.4c0,0.3-0.1,0.6-0.1,0.9c-2.2-0.1-4.1,0.7-4.6,2.3c-0.7,2.1,1.3,4.7,4.6,5.8c1.9,0.6,3.7,0.6,5.1,0.1
			c0,0,0,0.1,0,0.1c-0.1,2.8,3.7,5.1,8.5,5.3c2.9,0.1,5.5-0.7,7.1-1.9c0.8,1.6,2.9,3.3,5.7,4.4c4.1,1.6,8,1.3,8.8-0.7
			c0.3-0.9,0-1.9-0.7-3C424.7,708.5,425.6,707.1,425.5,705.5z"/>
		<path class="st2" d="M411.8,693.8c0,0,2,3.1,1,7.9"/>
		<path class="st2" d="M420.5,709.6c0,0,1.5,0.3,2.8-0.3"/>
	</g>
	<path class="st4" d="M461.9,697.6c-0.3-2.6-3.8-4.3-7.9-3.8c-0.1,0-0.2,0-0.3,0c0-0.3,0-0.5,0-0.8c-0.5-4.1-4.9-6.9-9.7-6.3
		s-8.3,4.4-7.8,8.5c0.5,4.1,4.9,6.9,9.7,6.3c0.2,0,0.4-0.1,0.5-0.1c0.5,1.2,1.4,2.5,2.6,3.6c3,2.7,6.8,3.4,8.6,1.5
		c0.9-1,1.1-2.6,0.6-4.2C460.6,701.4,462.2,699.5,461.9,697.6z"/>
	<g>
		<path class="st4" d="M518,743c-0.1-0.8-0.7-1.4-1.5-1.9c1.3-1.8,1.6-3.7,0.7-4.8c-0.9-1-2.6-1.1-4.5-0.3c0.2-0.4,0.3-0.9,0.2-1.3
			c-0.1-0.8-0.6-1.4-1.5-1.9c1-2.9,0.5-5.7-1.1-6.4c-1.7-0.7-4.1,1.1-5.5,4c-0.3-1.1-1-1.9-1.9-2.3c-1.9-0.8-4.4,0.6-6,3.2
			c-0.7-1.2-1.7-2-2.8-2c-2.1,0-3.7,2.7-3.7,5.9c0,3.3,1.7,5.9,3.7,5.9c0,0,0.1,0,0.1,0c1.3,1.9,4.2,3.6,7.8,4.5
			c1.6,0.4,3.1,0.6,4.5,0.6c1.2,1,3.3,1.4,5.7,1.1C515.7,746.9,518.3,744.9,518,743z"/>
		<g>
			<path class="st0" d="M487.6,737.6c6.2-0.4,12,0.4,12.2,7.3c0.2,6.8-5,11.5-10.3,12.1c-5.3,0.6-12-3.9-11.8-10.5
				C477.8,739.8,484.1,737.9,487.6,737.6z"/>
			<path class="st0" d="M479.7,741.1c0,0,2.1,10.9,8.4,15.9"/>
			<path class="st0" d="M485.7,737.9c0,0,0.1,10.8,3.8,19.1"/>
			<path class="st0" d="M492.5,737.7c0,0,0.8,8.5-1.9,19.1"/>
			<path class="st0" d="M497.3,739.4c0,0,0.3,11.4-5.2,16.9"/>
		</g>
		<g>
			<path class="st0" d="M501.1,739.3c3.1-0.7,8.3,0.6,9.4,4c1.1,3.5-1,10.8-6.4,11.7c-4.7,0.7-9.3-3.9-9.3-9.3
				C494.7,743.1,497.6,740.1,501.1,739.3z"/>
			<path class="st0" d="M497.3,741.2c0,0-0.2,9.7,4.6,13.9"/>
			<path class="st0" d="M501.9,739.2c0,0-0.2,9.3,2.1,15.9"/>
			<path class="st0" d="M507.5,740.3c0,0,1.9,9.4-1.8,14.3"/>
		</g>
	</g>
	<path class="st4" d="M312.3,425.4c0.2-0.5,0.4-1.1,0.4-1.6c0-2.3-2.1-4.2-4.6-4.2c-1.2,0-2.2,0.4-3.1,1.1c-0.8-1.1-2-1.9-3.4-2.2
		c0.5-0.9,0.8-2.1,0.8-3.3c0-3-1.8-5.4-4-5.4c-1.3,0-2.4,0.8-3.1,2.1c-0.4-0.1-0.8-0.1-1.2-0.1c-2.9,0-5.3,2.6-5.5,5.8
		c-0.5-0.4-1.2-0.6-1.8-0.6c-2.2,0-3.9,2.4-3.9,5.4c0,3,1.8,5.4,3.9,5.4c0.5,0,0.9-0.1,1.3-0.3c1.4,1.6,3.7,2.7,6.3,2.7
		c1.6,0,3.1-0.4,4.4-1.1c0.5,0.2,1.1,0.3,1.7,0.3c0.8,0,1.5-0.2,2.2-0.5c1,0.8,2.7,1.3,4.7,1.3c3.2,0,5.7-1.4,5.7-3
		C313.1,426.5,312.8,425.9,312.3,425.4z"/>
	<g>
		<path class="st0" d="M156.7,628c7.1-0.4,13.7,2,15.2,7.2c1.4,5.2-5.1,18.4-13.5,19c-8.4,0.6-14.3-9-14.3-16.8
			C144.1,630.3,150.9,628.3,156.7,628z"/>
		<path class="st2" d="M148.3,630.1c0,0,0.1,14.2,6.8,23.9"/>
		<path class="st2" d="M158,627.9c0,0-1.5,13.1,0.3,26.3"/>
		<path class="st2" d="M166.4,629.5c0,0,1,14.7-5,24"/>
	</g>
	<g>
		<g>
			<circle class="st6" cx="238.9" cy="386.2" r="16.6"/>
			<ellipse cx="235.7" cy="381.3" rx="0.9" ry="2"/>
			<ellipse cx="242.1" cy="381.3" rx="0.9" ry="2"/>
			<path class="st1" d="M253,361.1c0.3-0.8,0.4-1.7,0.4-2.6c0-4.6-3.7-8.3-8.3-8.3c-2.7,0-5.1,1.3-6.6,3.3c-0.3-1.2-0.7-2.4-1.3-3.6
				c-2.3-5-6.2-8.1-8.6-7c-1.2,0.5-1.8,1.9-1.9,3.7c-2.6-0.8-5.4-0.9-8,0.1c-7.3,2.5-10.9,11.1-8.1,19.2
				c2.8,8.1,10.9,12.7,18.2,10.2c2.9-1,5.1-2.9,6.7-5.4c0.8,2.9,3.5,4.9,6.6,4.9c1.9,0,3.6-0.8,4.8-2c1.4,1.7,3.6,2.8,5.9,2.8
				c4.3,0,7.7-3.5,7.7-7.7C260.6,364.6,257.2,361.2,253,361.1z"/>
			<path class="st5" d="M220.3,412.7l-5.8-15.8c0,0,25-17.7,48.6,0l-5.6,15.6"/>
			<circle class="st4" cx="238.7" cy="396" r="2.2"/>
			<circle class="st4" cx="238.7" cy="403.9" r="2.6"/>
			<path class="st2" d="M226.7,346.6c0,0,3.5,1.6,4.7,4.5"/>
			<path class="st2" d="M237.1,356.4c0,0,0.2-1.3,1.4-2.9"/>
			<path class="st2" d="M235.1,367.4c0,0-0.1,1.9,0.4,3.4"/>
		</g>
		<g>
			<path class="st1" d="M204,546.8c0,0,6.8,13.2,6.6,24.6h23.2v-16C233.7,555.4,222.4,544.4,204,546.8z"/>
			<g>
				<path class="st4" d="M233.7,568.3c0,0-16.1,0.1-23.7,0c0,0-7.8,0.2-15.5,3.9c3.6,1.7,13,7,16.5,17.2c7-0.4,14.7-1,22.7-2
					C233.7,587.4,234.5,576.9,233.7,568.3z"/>
				<path class="st2" d="M194.6,572.2c-6.2,3-12.4,8.3-14.5,17.7c0,0,13.2,0.5,31-0.5C207.5,579.2,198.2,573.9,194.6,572.2z"/>
			</g>
			<path class="st1" d="M180.1,589.9c0,0-3,2.5-1.1,8.2c3.6,0.5,11.6,0.5,18.3,0c8.9-0.6,20.2-0.9,27.3-1.6
				c6.2-0.7,10.4-0.4,9.2-9.1L180.1,589.9z"/>
			<path class="st2" d="M210.8,558.4c0,0,2,2.5,2.5,6.9"/>
			<path class="st2" d="M215.1,559c0,0,1.5,3.3,1.3,6.4"/>
			<path class="st2" d="M219.6,560c0,0,0.7,2.1,0.5,5.3"/>
			<path class="st2" d="M225.3,560c0,0-0.4,3-0.2,5.3"/>
			<path class="st2" d="M230.3,560c0,0-1.1,2.3-0.9,5.3"/>
		</g>
		<g>
			<path class="st1" d="M273.5,546.7c0,0-7.1,15.1-6.6,24.6h-23.2v-16C243.8,555.4,255.1,544.4,273.5,546.7z"/>
			<g>
				<path class="st2" d="M297.4,589.9c-2.1-9.8-8.7-15.2-15.2-18.1c-3.2,1.3-11.3,5.7-15.4,17.6
					C284.5,590.4,297.4,589.9,297.4,589.9z"/>
				<path class="st4" d="M282.2,571.8c-7.5-3.4-14.8-3.5-14.8-3.5c-7.6,0.1-23.7,0-23.7,0c-0.8,8.6,0,19.1,0,19.1
					c8.1,1,16,1.6,23.1,2C270.9,577.6,279,573.1,282.2,571.8z"/>
			</g>
			<path class="st1" d="M297.4,589.9c0,0,3,2.5,1.1,8.2c-3.6,0.5-11.6,0.5-18.3,0c-8.9-0.6-20.2-0.9-27.3-1.6
				c-6.2-0.7-10.4-0.4-9.2-9.1L297.4,589.9z"/>
			<path class="st2" d="M266.7,558.4c0,0-2,2.5-2.5,6.9"/>
			<path class="st2" d="M262.4,559c0,0-1.5,3.3-1.3,6.4"/>
			<path class="st2" d="M257.9,560c0,0-0.7,2.1-0.5,5.3"/>
			<path class="st2" d="M252.2,560c0,0,0.4,3,0.2,5.3"/>
			<path class="st2" d="M247.2,560c0,0,1.1,2.3,0.9,5.3"/>
		</g>
		<path class="st4" d="M291,430.1c-13.2-10.3-26.4-20.7-52.3-20.7c-23.4,0-39.1,10.3-52.3,20.7c-7.6,8.6-24.9,32.3-22,62.9
			c11.8,42.6,35,61.3,74.3,62.4c39.4-1.1,60.4-17.7,74.3-62.4C315.9,462.4,298.7,438.8,291,430.1z"/>
		<g>
			<path class="st0" d="M109.9,513.8c-4.5-11.7,2.2-24.6,16.6-29.6c10.8-3.8,67.3-22.3,83.5-27.4s29.1-2.9,32.8,7.7
				c3.7,10.6-2.2,22.4-16.4,28.6c-14.2,6.2-67.3,28.2-87.9,32.7C123.7,528.9,113.5,523.1,109.9,513.8z"/>
			<polygon class="st5" points="140.1,495.9 143.7,509.7 147.6,508.6 143.9,494.6 			"/>
			<polygon class="st5" points="211.8,471 215.2,484.2 218.8,483.1 215.3,469.8 			"/>
			
				<ellipse transform="matrix(0.9716 -0.2365 0.2365 0.9716 -112.186 47.1517)" class="st3" cx="140.5" cy="491.3" rx="8.8" ry="5.6"/>
			
				<ellipse transform="matrix(0.9716 -0.2365 0.2365 0.9716 -117.358 49.2672)" class="st3" cx="146.7" cy="513.9" rx="8.8" ry="5.6"/>
			
				<ellipse transform="matrix(0.9716 -0.2365 0.2365 0.9716 -104.3422 63.3858)" class="st3" cx="212.1" cy="466.7" rx="8.4" ry="5.3"/>
			
				<ellipse transform="matrix(0.9716 -0.2365 0.2365 0.9716 -109.2478 65.3924)" class="st3" cx="218" cy="488.2" rx="8.4" ry="5.3"/>
			<path class="st2" d="M137,490.4c0,0,1.7-1.4,4.1-1.6"/>
			<path class="st2" d="M137.9,493c0,0,2.4-0.3,3.8-1.4"/>
			<path class="st2" d="M146,513.6c0,0,2-0.8,4.1-1"/>
			<path class="st2" d="M146.7,516.6c0,0,2.8-0.2,4.1-1.3"/>
			<path class="st2" d="M209.1,466c0,0,2.3-0.8,4.6-0.7"/>
			<path class="st2" d="M209.5,468.9c0,0,2.6-0.1,4.2-0.8"/>
			<path class="st2" d="M217.7,487.2c0,0,1.4-1,3.5-1.1"/>
			<path class="st2" d="M218.8,490c0,0,2.1-0.4,3.4-1.5"/>
		</g>
		<path class="st2" d="M238.7,409.4c0,0,18,83.6,0,145.9"/>
		<path class="st4" d="M200.7,443.1c0,0-18.9,15-22.4,46.6l-11.9,3.5c0,0-2.3-11.1-0.8-22.1"/>
		<path class="st2" d="M277.4,443.1c0,0,18.9,15,22.4,46.6"/>
		<path class="st5" d="M167.1,501.8c0,0,0.9,15.2,5.9,20.8s12.3,3,12.7-2.6c0.4-6-1.9-8.3-1.2-9.1c0.9-1,2.8,1.9,4.3,0.8
			c2.1-1.6-2.9-10.7-9.1-13.3C179.7,498.3,171,498,167.1,501.8z"/>
		<path class="st5" d="M310.7,501.2c0,0,1.1,4.7-1.7,11.8c-2.7,6.7-8.8,9.4-12.2,6.5c-3.4-2.9,1.6-6.1,0-8.2c-1.5-2-5.2,0.2-5.9-1.9
			c-0.8-2.5,6.2-4,7-11C298,498.3,305.9,497,310.7,501.2z"/>
		<g>
			<path class="st5" d="M256.4,502.1c0,0-0.9,10.8-0.7,21.4c0.2,10.6,8.3,14.5,16.7,10.4s19.7-18,15.6-39.5L256.4,502.1z"/>
			<path class="st2" d="M263.8,512.4c0,0,0.2,4.9,3.7,7.1"/>
			<path class="st2" d="M280.9,508.1c0,0,1.7,11.6-6.4,19.1"/>
			<path class="st1" d="M253,499.7c-1.7-7.9,3.3-12.3,16-15.9c12.8-3.6,18-0.8,19.8,4.4s-2.1,11.2-15.9,15.4
				C259.1,507.8,253.9,504.1,253,499.7z"/>
			<circle class="st4" cx="280.9" cy="487.1" r="1.7"/>
			<circle class="st4" cx="281.5" cy="493.2" r="1.7"/>
		</g>
		<g>
			<path class="st5" d="M227.1,502.1c0,0,0.9,10.8,0.7,21.4c-0.2,10.6-8.3,14.5-16.7,10.4c-8.4-4.1-19.7-18-15.6-39.5L227.1,502.1z"
				/>
			<path class="st2" d="M219.8,512.4c0,0-0.2,4.9-3.7,7.1"/>
			<path class="st2" d="M202.6,508.1c0,0-1.7,11.6,6.4,19.1"/>
			<path class="st1" d="M230.5,499.7c1.7-7.9-3.3-12.3-16-15.9c-12.8-3.6-18-0.8-19.8,4.4c-1.8,5.2,2.1,11.2,15.9,15.4
				C224.4,507.8,229.6,504.1,230.5,499.7z"/>
			<circle class="st4" cx="202.6" cy="487.1" r="1.7"/>
			<circle class="st4" cx="202" cy="493.2" r="1.7"/>
		</g>
		<path class="st1" d="M179.7,498.3l-11.9,3.4c-2.5,0.7-5.2-0.8-5.9-3.3l0,0c-0.7-2.5,0.8-5.2,3.3-5.9l11.9-3.4
			c2.5-0.7,5.2,0.8,5.9,3.3l0,0C183.7,494.9,182.2,497.6,179.7,498.3z"/>
		<path class="st1" d="M298,498.3l11.9,3.4c2.5,0.7,5.2-0.8,5.9-3.3l0,0c0.7-2.5-0.8-5.2-3.3-5.9l-11.9-3.4
			c-2.5-0.7-5.2,0.8-5.9,3.3l0,0C294,494.9,295.5,497.6,298,498.3z"/>
	</g>
	<g>
		<g>
			<path class="st0" d="M376.5,840.6l-4.1-5.2c0,0,6,0.7,9.9-5.1c0,0,8,4.1,10.7-5.6c0,0,13.1,2.8,16.3-6.5c0,0,11.3,6.5,14.3,20.2
				L376.5,840.6z"/>
			<path class="st2" d="M412.2,824c0,0,5.4,5.4,7.7,12.8"/>
			<path class="st2" d="M407.5,826.4c0,0,3.6,3.9,6.1,8.8"/>
			<path class="st2" d="M402,828.4c0,0,2.8,1.9,4.7,5.7"/>
			<path class="st2" d="M395.6,829.4c0,0,2.6,2.3,3.9,4.9"/>
			<path class="st2" d="M383.4,834.2c0,0,1,0.8,1.9,2.7"/>
			<path class="st2" d="M389.4,832.4c0,0,0.8,0.8,1.6,2.8"/>
		</g>
		<path class="st3" d="M449.4,870.6c0,0-7.5-32.9-40.4-36.2s-48.2,19.8-52.2,19.8c-4,0-13.6-13.3-18.8-11.8
			c-5.3,1.5,3,14.6,2.3,19.6c-0.8,5-9.3,11.8-7.3,16.6c2,4.8,19.1-8,24.4-6.3c5.3,1.8,17.1,27,48,29.1
			C434.1,903.5,449.4,870.6,449.4,870.6z"/>
		<path class="st2" d="M422.9,846c0,0-11.8,18.7-2.2,46.6"/>
		<path class="st2" d="M370.7,856.7c0,0,25.3-8.9,49-3.4"/>
		<ellipse cx="439.4" cy="867.4" rx="0.9" ry="2"/>
		<g>
			<path class="st0" d="M412.8,868.7c-0.1-0.1-0.1-0.2-0.2-0.2c0,0-28.2,3.4-23.2,10.6c5,7.2,18.7,6.9,24,1.7l0,0
				C412.5,876.3,412.5,872,412.8,868.7z"/>
			<path class="st2" d="M413.6,863.1c0,0-2.8,11.9,1.2,22.6"/>
		</g>
		<path class="st2" d="M391.4,881.3c0,0,9.1-6.8,21.2-7.3"/>
		<path class="st2" d="M412.9,877.6c0,0-6.7,1.2-13.5,6.8"/>
		<path class="st2" d="M392.6,885.7c0,0,1.4,1.5,3.7,1.6"/>
		<path class="st2" d="M389.2,887.3c0,0,1.5,1.7,3.4,2"/>
		<path class="st2" d="M387.9,890.1c0,0,1.4,1.3,3,1.1"/>
		<path class="st2" d="M380.8,887.3c0,0,1.6,1.6,3.3,1.5"/>
		<path class="st2" d="M380.8,882.5c0,0,1.5,1.3,3.3,1.3"/>
		<path class="st2" d="M385.1,881c0,0,0.9,0.8,2.3,1"/>
		<path class="st2" d="M399.4,867.9c0,0,1.1-0.4,2.6-0.5"/>
		<path class="st2" d="M407.9,865c0,0,2.3-0.4,3,0"/>
		<path class="st2" d="M403,861.7c0,0,1.6-0.4,2.3,0"/>
		<path class="st2" d="M396.3,863.1c0,0,1.8-0.7,3.1-0.4"/>
		<path class="st2" d="M394.1,858.1c0,0,1.1-0.3,2.2,0"/>
		<path class="st2" d="M400.7,857.4c0,0,2.3-0.5,3.1,0"/>
		<path class="st2" d="M374.6,867.4c0,0,2.2,1.6,3.9,2"/>
		<path class="st2" d="M370.2,870.6c0,0,2,2,3.8,2.1"/>
		<path class="st2" d="M366.2,873.4c0,0,1.2,1.3,2.6,1.7"/>
		<path class="st2" d="M361.7,867.9c0,0,1,1.3,2.6,1.8"/>
		<path class="st2" d="M364.8,864.8c0,0,1.3,1.5,2.7,1.8"/>
		<path class="st2" d="M368.3,861.6c0,0,2.3,1.4,3.4,1.6"/>
		<path class="st2" d="M377.5,846c0,0,3.1-0.7,4.5-0.5"/>
		<path class="st2" d="M382.4,843.7c0,0,1.9-0.6,2.9-0.3"/>
		<path class="st2" d="M383.9,848.2c0,0,2.1-0.4,2.9,0"/>
		<path class="st2" d="M388.8,846.7c0,0,2-0.1,3.2,0.7"/>
		<path class="st2" d="M391.4,842.8c0,0,2.3-0.6,3.7,0.5"/>
		<path class="st2" d="M414.8,842.2c0,0,1.8,0.9,2.5,2"/>
		<path class="st2" d="M419.9,842.2c0,0,1.3,0.8,1.8,1.5"/>
		<path class="st2" d="M411.6,845.5c0,0,1.6,0,2.6,0.5"/>
		<path class="st2" d="M408.3,840.3c0,0,1.5,0.7,2.3,1.6"/>
		<path class="st2" d="M412.2,837.9c0,0,1.8,0.6,2.6,1.6"/>
	</g>
	<path class="st6" d="M350.6,853.8c-1.2-3.8,8.1-6.6,12.9-5.3c4.8,1.3,4.3,6.3,1.3,7.1c-1.9,0.5-4.6-1.9-7.8-0.9
		C356,855,351.5,856.8,350.6,853.8z"/>
	<g>
		<path class="st3" d="M204.6,852.3c-21.4-3.3-35.9-4.5-37.3,0.2c-0.6,2.1,1.2,4.1,3.6,5.9c2.5,6.1,10.4,14.6,22.6,22.2
			c5.8-2.5,9.1-6.3,10.8-10.4c0.6-1.4,1-2.9,1.3-4.4C206.6,860.1,205.2,854.5,204.6,852.3z"/>
		<path class="st0" d="M206.1,852.6c0,0,6.5-9.5,15-12.3c0,0,12.7,6.6,28.2,21.2C249.3,861.4,215.3,856.7,206.1,852.6z"/>
		<path class="st2" d="M219.8,846c0,0-5.3,3.6-7.9,7.5"/>
		<path class="st2" d="M225,848c0,0-4.6,3.5-6.5,6.6"/>
		<path class="st2" d="M230.7,850.8c0,0-3.8,2.6-5.3,5"/>
		<path class="st2" d="M236.7,854.6c0,0-2.4,1.7-3,3"/>
		<path class="st3" d="M250.2,861.7c0,0,6.2-8.9,21.7-13.7c0,0-1.9,7.8,1.1,10.8c3,3.1,8.2,5,7.3,13.8
			C280.2,872.7,252.7,867.5,250.2,861.7z"/>
		<path class="st2" d="M267.4,855.9c0,0-6.7,3.4-9.7,8.1"/>
		<path class="st2" d="M269.7,859.9c0,0-4.1,2.2-6.3,6"/>
		<path class="st2" d="M273.7,863.7c0,0-2.7,2.1-3.9,4.5"/>
		<path class="st0" d="M213.8,890.6c0,0,1.2,10.7,5.4,11.5s1.4-9.1,1.4-9.1S217.6,889.1,213.8,890.6z"/>
		<path class="st3" d="M248.5,898.3c0,0,7.7,13.5,15,18.8c5.7,4.2,2.4-7.7,4.1-10.6s4-2.8,6.5-8.2
			C274.1,898.3,254.9,895.6,248.5,898.3z"/>
		<path class="st2" d="M253.9,898.7c0,0,4.9,9.4,8.9,13.1"/>
		<path class="st2" d="M258.4,898.9c0,0,2.4,5.6,5.8,8.7"/>
		<path class="st2" d="M262.8,898.9c0,0,1.5,3.4,3.2,4.3"/>
		<path class="st2" d="M201.5,857.6c0,0,1.9,11.4-4.7,16.4"/>
		<path class="st2" d="M170.9,858.5c0,0,4.9,2.9,9.8,3.7"/>
		<ellipse transform="matrix(0.1971 -0.9804 0.9804 0.1971 -686.3917 880.0743)" cx="194.1" cy="859.1" rx="1.7" ry="0.7"/>
		<g>
			<path class="st1" d="M289,876.9l3.9,2C291.7,878.3,290.4,877.6,289,876.9z"/>
			<path class="st1" d="M283.8,897.4l-4.4,0.6C281,897.8,282.4,897.6,283.8,897.4z"/>
			<path class="st0" d="M205.5,866c0.1-0.1,0.2-0.1,0.3-0.2c0,0,3.3,0.6,7.1,1.9c0-0.9,0-1.7,0.1-2.5c0.2-8.1-2.4-11.8-2.4-11.9
				c-1.5-0.2-3-0.5-4.5-0.7c-0.5-0.1-1-0.2-1.5-0.2C205.2,854.5,206.6,860.1,205.5,866z"/>
			<path class="st0" d="M324.5,895.8c-1.9-6.9,22.5-32.3,22.5-32.3c-18.2,7.2-28.8,17-34.2,21.6c-4.5,3.9-4.4,1.9-19.7-6.1
				c-1.9,2.1-1.4,11.8-3.4,11.5c-2-0.2-1.5-2.3-0.7-6.8c0.8-4.5,0-6.8,0-6.8c-2.1-1.1-4.4-2.2-7-3.4c-0.9-0.4-1.9-0.9-2.8-1.3
				c-1.3,1.2-4.5,1.5-5.9,5.9c-1.3,4.5-0.1,16.5-2.6,16.2c-2.5-0.3-2-12-1.5-17.7c0.5-5.5-0.5-8.5-0.6-8.7c-2.8-1.1-5.7-2.1-8.5-3
				c0.4,6-2.9,10.3-3.4,17.7c-0.5,7.4-1,12.6-3.2,13.1c-2.3,0.5-0.9-8.9,0-18.4c0.9-9.4,0.4-11.2,0.9-14.3
				c-4.4-1.3-8.8-2.5-13.1-3.6c0.7,4.2-0.8,8.1-4.1,11.1c-3.3,3.1-1.7,20.2-4.9,20.3c-3.2,0.1-0.7-14.3-0.2-20.6
				c0.5-6.3,0-12.8,0-12.9c-1.8-0.4-3.7-0.8-5.5-1.1c-4.1,2,1.2,20.3-3.5,20.1l0,0c-1.3,1-4.2,1.2-6.7,1.4c0,0,0,0,0,0
				c-0.2,3.8-0.5,6.8-1.4,6.8c-1.5,0.1-2-3-2.1-7.1c-3.3-0.7-6.3-2.6-8.4-6.4c0,0-0.1-0.3-0.1-0.6c-1.7,4.1-4.9,7.9-10.8,10.4
				c10.4,6.5,23.9,12.4,39.8,15.4c1.9,0.4,3.7,0.7,5.5,0.9c0-0.1,1.4-5.3,2.7-14.7c1.2-9.4,3.6-13.5,5.4-12.6
				c1.7,0.9-1.6,9.1-1.3,16.2c0.3,7.1,2.2,8.3,1.8,12.2c12.5,1.3,23.1,0.8,31.8-0.2c0-0.1-0.1-13,3.5-14.6c3.6-1.6-0.9,9.8,1.4,14
				c11.6-1.7,19-4.3,21.8-4.1c5.8,0.4-0.8,5.4,10,19c10.7,13.6,26.7,12.9,26.7,12.9C334.5,917.8,326.4,902.7,324.5,895.8z
				 M263.5,893.7c-3,0.4-2.8-18.7,0.7-18C266.2,876.1,266.5,893.3,263.5,893.7z"/>
			<path class="st0" d="M219.2,859.9c-1.8-0.4-2.4,4-2.6,9.1c1.6,0.7,3.1,1.5,4.3,2.5C220.8,866.9,221.9,860.5,219.2,859.9z"/>
			<path class="st5" d="M212.8,877.4c0.1,4.1,0.6,7.2,2.1,7.1c0.9-0.1,1.3-3,1.4-6.8C215.1,877.7,213.9,877.6,212.8,877.4z"/>
			<path class="st5" d="M213,865.1c0,0.8,0,1.7-0.1,2.5c1.2,0.4,2.5,0.9,3.7,1.4c0.2-5.1,0.8-9.5,2.6-9.1c2.7,0.5,1.7,7,1.7,11.6
				c0.3,0.2,0.6,0.5,0.9,0.7c2.2,2,2.3,3.2,1.3,4l0,0c4.7,0.1-0.6-18.1,3.5-20.1c-5.5-1.1-10.8-2-16-2.8
				C210.6,853.3,213.1,857,213,865.1z"/>
			<path class="st5" d="M232,870.1c-0.5,6.3-3,20.7,0.2,20.6c3.2-0.1,1.6-17.2,4.9-20.3c3.3-3.1,4.8-6.9,4.1-11.1
				c-3.1-0.8-6.2-1.5-9.2-2.1C232,857.3,232.5,863.8,232,870.1z"/>
			<path class="st5" d="M245.5,886c-0.3-7.1,3.1-15.3,1.3-16.2c-1.7-0.9-4.1,3.1-5.4,12.6c-1.2,9.3-2.6,14.6-2.7,14.7
				c2.9,0.5,5.8,0.8,8.5,1.1C247.6,894.3,245.7,893.1,245.5,886z"/>
			<path class="st5" d="M253.4,895.5c2.3-0.5,2.7-5.7,3.2-13.1c0.5-7.4,3.9-11.7,3.4-17.7c-1.9-0.6-3.8-1.3-5.8-1.8
				c-0.5,3,0,4.8-0.9,14.3C252.6,886.6,251.2,896.1,253.4,895.5z"/>
			<path class="st5" d="M264.1,875.7c-3.4-0.7-3.6,18.4-0.7,18C266.5,893.3,266.2,876.1,264.1,875.7z"/>
			<path class="st5" d="M269.2,876.5c-0.5,5.7-1,17.4,1.5,17.7c2.5,0.3,1.2-11.7,2.6-16.2c1.3-4.4,4.6-4.7,5.9-5.9
				c-3.5-1.6-7-3-10.5-4.4C268.7,868,269.7,871.1,269.2,876.5z"/>
			<path class="st2" d="M288.9,876.8L288.9,876.8c0,0,0.1,0,0.1,0.1L288.9,876.8z"/>
			<path class="st2" d="M293.1,879l-0.1-0.1C293,878.9,293,879,293.1,879C293.1,879,293.1,879,293.1,879z"/>
			<path class="st5" d="M288.9,883.7c-0.8,4.5-1.3,6.6,0.7,6.8c2,0.2,1.5-9.5,3.4-11.5c0,0-0.1,0-0.1-0.1l-3.9-2c0,0-0.1,0-0.1-0.1
				C288.9,876.9,289.7,879.2,288.9,883.7z"/>
			<path class="st2" d="M284,897.4C284,897.4,284,897.4,284,897.4c-0.1,0-0.2,0-0.2,0L284,897.4z"/>
			<path class="st2" d="M279.1,898l0.3,0C279.3,898,279.2,898,279.1,898C279.1,898,279.1,898,279.1,898z"/>
			<path class="st5" d="M282.6,883.4c-3.6,1.6-3.5,14.5-3.5,14.6c0.1,0,0.2,0,0.3,0l4.4-0.6c0.1,0,0.1,0,0.2,0
				C281.7,893.2,286.2,881.7,282.6,883.4z"/>
			<path class="st4" d="M221.8,872.2c-0.3-0.2-0.6-0.5-0.9-0.7c-1.3-0.9-2.8-1.8-4.3-2.5c-1.2-0.5-2.5-1-3.7-1.4
				c-3.8-1.3-7.1-1.9-7.1-1.9c-0.1,0.1-0.2,0.1-0.3,0.2c-0.3,1.5-0.7,2.9-1.3,4.4c0.1,0.4,0.1,0.6,0.1,0.6c2.1,3.7,5.1,5.7,8.4,6.4
				c1.1,0.2,2.3,0.3,3.5,0.3c0,0,0,0,0,0c2.6-0.1,5.5-0.4,6.7-1.4C224.1,875.5,224,874.2,221.8,872.2z"/>
		</g>
		<path class="st2" d="M217.7,874.6c0,0-5.3-5.1-12.3-6.8"/>
		<path class="st2" d="M210.6,874c0,0-3.3-1.7-5.6-4.7"/>
		<path class="st2" d="M313.2,897.4c0,0,4.5,16,16.9,21.8"/>
		<path class="st2" d="M318.7,897.1c0,0,2.8,10.5,11.5,19.2"/>
		<path class="st2" d="M315.2,888.5c0,0,7.4-8.4,14.9-12.8"/>
		<path class="st2" d="M321.4,888.5c0,0,3.8-5.3,9.4-9.5"/>
	</g>
	<g>
		<path class="st3" d="M457.1,300.6c0,0,5,15.7,22.8,7.7C479.9,308.4,471.2,291.5,457.1,300.6z"/>
		<g>
			<circle class="st4" cx="460.2" cy="310" r="9.4"/>
			<g>
				<circle class="st4" cx="463.4" cy="305.4" r="0.4"/>
				<circle class="st4" cx="461.3" cy="303.5" r="0.4"/>
				<circle class="st4" cx="459" cy="305.2" r="0.4"/>
				<circle class="st4" cx="461.1" cy="307.1" r="0.4"/>
			</g>
		</g>
		<path class="st3" d="M459.7,267.7c0,0-9.1,14.3,2,23.3C461.7,291,473,282,459.7,267.7z"/>
		<path class="st3" d="M453.8,297c0,0-7.9-10,5.4-20.3C459.2,276.7,466.2,293.2,453.8,297z"/>
		<path class="st3" d="M447.9,342.3c0,0,10.5-11.1,0-19.1C447.9,323.2,437.6,330.9,447.9,342.3z"/>
		<path class="st3" d="M452,319.3c0,0-5.8,14.8,9.6,20.5C461.6,339.7,465.8,322.6,452,319.3z"/>
		<path class="st3" d="M426.3,336.4c0,0-3.2-15.2,9.8-19.4C436.1,317,442.3,331.8,426.3,336.4z"/>
		<path class="st3" d="M423.5,303.7c0,0,16,5.6,21.2-11.5C444.7,292.2,429.7,286.6,423.5,303.7z"/>
		<path class="st3" d="M438.1,314.4c0,0-7.2-14,4.3-21.6C442.5,292.8,452.6,305.6,438.1,314.4z"/>
		<path class="st3" d="M438.9,276.8c0,0-3.8,15,14.8,18.4C453.7,295.2,455.4,276.5,438.9,276.8z"/>
		<path class="st3" d="M405.9,290.8c0,0,6.6,13.8,22.9,5.6C428.8,296.4,419.8,282.3,405.9,290.8z"/>
		<path class="st3" d="M427.2,291.1c0,0,13.1-8.4,3.4-23C430.6,268.1,417.6,275.1,427.2,291.1z"/>
		<path class="st3" d="M405.9,283.6c0,0,15.8,2.8,21.2-16.3C427.1,267.3,412.6,263.4,405.9,283.6z"/>
		<path class="st3" d="M399.8,318.9c0,0,14.5-2.6,11.1-17.8C410.9,301,398.2,302.2,399.8,318.9z"/>
		<path class="st3" d="M404.7,257.8c0,0-17.3,2.9-15.8,17.7C388.8,275.5,403.1,279.5,404.7,257.8z"/>
		<path class="st3" d="M368.9,297.2c0,0,15.5,4.1,19.8-14.4C388.7,282.8,374.3,277.4,368.9,297.2z"/>
		<path class="st3" d="M383.6,303.3c0,0,14.1-6.6,6.3-22.3C389.9,280.9,376.1,286.2,383.6,303.3z"/>
		<path class="st3" d="M364.1,270.1c-0.8,0.8,12.6,12.4,21.6-0.8C385.6,269.3,376.3,258.2,364.1,270.1z"/>
		<path class="st3" d="M382.5,246.3c0,0-7,17.7,7.6,23C390.1,269.3,399.9,258.8,382.5,246.3z"/>
		<g>
			<circle class="st4" cx="443.3" cy="323" r="9.4"/>
			<g>
				<circle class="st4" cx="442.4" cy="318.8" r="0.4"/>
				<circle class="st4" cx="439.5" cy="319" r="0.4"/>
				<circle class="st4" cx="439.3" cy="321.9" r="0.4"/>
				<circle class="st4" cx="442" cy="321.6" r="0.4"/>
			</g>
		</g>
		<g>
			<circle class="st4" cx="399.5" cy="298.3" r="9.4"/>
			<g>
				<circle class="st4" cx="403.8" cy="294.3" r="0.4"/>
				<circle class="st4" cx="403" cy="297.1" r="0.4"/>
				<circle class="st4" cx="405.6" cy="298.3" r="0.4"/>
				<circle class="st4" cx="406.3" cy="295.6" r="0.4"/>
			</g>
		</g>
		<g>
			<circle class="st4" cx="443.3" cy="292.8" r="9.5"/>
			<g>
				<circle class="st4" cx="443.4" cy="287.7" r="0.4"/>
				<circle class="st4" cx="441" cy="286.3" r="0.4"/>
				<circle class="st4" cx="439.2" cy="288.5" r="0.4"/>
				<circle class="st4" cx="441.6" cy="289.8" r="0.4"/>
			</g>
		</g>
		<g>
			<path class="st5" d="M377.5,264.5c0,0,17.7,11.7,27.6,28.5l1.7-4.3c0,0-8.4-15.9-26.1-26.3L377.5,264.5z"/>
			<path class="st5" d="M403.5,264.6c0,0-3.1,16.2,2.3,33.1c8.8,27.7-3.5,50.5-6.3,65.2c-2.8,15.1-11.1,22.6-2.3,23.3
				c10.2,0.8,17,3.1,16.3-10.4c-0.8-16-1.9-37.3,5.3-45.5c7.2-8.2,22.9-10.9,33.6-24.2s25.5-13.3,25.5-13.3l-2.4-6.9
				c0,0-16,0.7-26.5,13.2c-8.7,10.4-21,19-25.5,16.6c-4.6-2.4,2.3-9,5.3-17.1c3.2-8.6,9.6-21,17.3-22.9l-6.7-3.4
				c0,0-8.9,5.7-15.9,24.8c-5.4,14.8-10.1,3.6-12-4.6s-4.1-19.5-0.7-26L403.5,264.6z"/>
		</g>
		<path class="st3" d="M362.3,258.5c0,0,10.3,15.1,23.3,2.4C385.7,260.9,379.9,250.6,362.3,258.5z"/>
		<path class="st3" d="M399.3,254.3c0,0,2.9,20.5,22.3,15.2C421.6,269.5,420.1,254.3,399.3,254.3z"/>
		<path class="st3" d="M429.2,249.2c0,0-3.5,18.4,14.1,21.5C443.3,270.7,447.3,254.8,429.2,249.2z"/>
		<path class="st3" d="M476.4,267.3c0,0-15.8,6.1-12.8,19.3C463.6,286.6,480.2,285.6,476.4,267.3z"/>
		<path class="st3" d="M484.4,295.4c0,0-16.1,5-21.6-8.8C462.9,286.6,477.2,278.7,484.4,295.4z"/>
		<path class="st3" d="M434.7,270.3c0,0,2.7,14.6,23.2,6.2C457.9,276.5,447.3,262.6,434.7,270.3z"/>
		<g>
			<circle class="st4" cx="380.7" cy="278.9" r="9.4"/>
			<g>
				<circle class="st4" cx="383.7" cy="274.5" r="0.4"/>
				<circle class="st4" cx="382.5" cy="277.1" r="0.4"/>
				<circle class="st4" cx="384.8" cy="278.7" r="0.4"/>
				<circle class="st4" cx="386" cy="276.1" r="0.4"/>
			</g>
		</g>
		<g>
			<circle class="st4" cx="429.3" cy="269.5" r="9.4"/>
			<g>
				<circle class="st4" cx="432.1" cy="264.8" r="0.4"/>
				<circle class="st4" cx="431.4" cy="267.5" r="0.4"/>
				<circle class="st4" cx="434" cy="268.7" r="0.4"/>
				<circle class="st4" cx="434.7" cy="266" r="0.4"/>
			</g>
		</g>
	</g>
	<g>
		<g>
			<g>
				<path class="st3" d="M580.1,529.4c8.4,10,0,24.9-9.1,29.7c-9.1,4.8-2.7,20.1-10,29c-7.3,8.9-11.4,7.5-31.7,6.8
					c-20.3-0.7-24.3,14.2-36.1,8.6c-8.9-4.2-0.6-13.2-16.6-25.4c-16-12.2-15.1-25.8-9.6-34.5c6.6-10.4,20-11.4,32.4-10
					c12.4,1.4,18.5-13.5,32.5-15.3c13.6-1.8,13.2,5.5,25.3,5.9S573.7,521.8,580.1,529.4z"/>
				<path class="st4" d="M477.3,578.6c0,0-4.1,5.9-3.5,10.5c0.6,4.3,5.8,3.3,5.3,0c-0.5-3.2-0.1-4.7,0.7-8.3L477.3,578.6z"/>
				<path class="st2" d="M558.1,542.4c0,0-46.2,3.2-78.3,38.4"/>
				<path class="st2" d="M526.9,533.4c0,0-1,10.9-14.5,22.8"/>
				<path class="st2" d="M545.3,568.3c0,0-12.8-15.3-37.5-9.7"/>
				<path class="st2" d="M499.2,541.4c0,0-3.8,21.8-15.6,35.4"/>
				<path class="st2" d="M530.5,576.8c0,0-20.8-11.7-48.7,1.8"/>
				<path class="st2" d="M546.7,533.4c0,0-4.2,11-14.1,14.5"/>
				<path class="st2" d="M555.9,553c0,0-8-6.4-18.2-6.6"/>
			</g>
			<g>
				<path class="st4" d="M454.1,558.2c0,0-1.4,9.6-1.5,18.1c-0.2,8.7,0.4,13.4,2.9,13.6c2.5,0.2,3.7,0,3.3-2.9s-2.3-14.1-1.9-24.1
					S454.1,558.2,454.1,558.2z"/>
				<g>
					<path class="st3" d="M479.1,464.6c8.8,2.6,10.5,12.5,7.8,21.6s-1.1,12.8,2.4,18.7c3.5,5.9-3.1,12.8,0,18.4
						c3.1,5.5,11.5,16.3-5.8,41.3s-34.4-12.3-43.9-12.5c-9.5-0.2-21.8-6-26.1-22.4c-4.3-16.4,0.8-22.4,13.3-27.5
						c12.5-5.1,6.5-18.2,14.3-24.8c7.8-6.7,15-1.9,22-8C470.3,463.4,475.2,463.5,479.1,464.6z"/>
					<path class="st2" d="M451.7,487.7c0,0,7.5,8,5.6,24.6"/>
					<path class="st2" d="M477.8,496.7c0,0-13,1.8-19.6,12.9"/>
					<path class="st2" d="M439.5,500.5c0,0,11.6,10.9,12.7,30.8"/>
					<path class="st2" d="M477.8,518.6c0,0-18.2,3.1-26.7,18.8"/>
					<path class="st2" d="M427,517.9c0,0,21.1,20.4,19.4,47.8"/>
					<path class="st2" d="M483.6,547.9c0,0-22.1-6-34,11.3c-1.1-39.8,20.7-77.4,20.7-77.4"/>
				</g>
			</g>
			<g>
				<path class="st4" d="M433.5,583.4c0,0,2,2.4,2.6,6.4s-0.1,7.2,2.7,6.3c2.8-0.9,4-1.3,1.6-6.7s-2.8-9.8-2.8-9.8L433.5,583.4z"/>
				<g>
					<path class="st3" d="M336.1,565.8c-3.3-21,17.8-17.4,25.2-26.8c7.4-9.4,13.2-14.7,22.2-13.4c9,1.3,8.2,10,24.6,7.1
						c16.4-2.9,23.1-1.9,27,3.5s1.5,11.2,11.3,17.7s8.2,16.8,2.8,22.3c-5.4,5.5-11.3,3.3-16.5,10.9s-4.8,19.2-15.3,18.8
						c-10.5-0.4-7.9-14.8-21.2-15.1s-16.4,4.4-22.9-4.5c-6.5-8.9-14.5-1.1-23.8-3.9C343.3,580.5,337.4,573.8,336.1,565.8z"/>
					<path class="st2" d="M358.5,559.5c0,0,52.3-16.4,77.6,24"/>
					<path class="st2" d="M374.7,542.4c0,0,3.6,9.8,14.8,14"/>
					<path class="st2" d="M371,571.7c0,0,3.8-10.4,15.6-15.5"/>
					<path class="st2" d="M399.9,541.5c0,0,3.9,13.7,13.7,21.3"/>
					<path class="st2" d="M385.4,574.7c0,0,11.8-13.6,30.4-10.8"/>
					<path class="st2" d="M403.8,580.7c0,0,13.4-9.1,27.8-3.5"/>
					<path class="st2" d="M427,553c0,0,0.1,16.4,3.9,23.3"/>
				</g>
			</g>
		</g>
	</g>
	<g>
		<g>
			<g>
				<path class="st1" d="M305.1,390.6c0,0-9.7,4.4,12.8,7.9c0,0,2-14.6-3.7-11.6c0,0-0.6-29.1-7.9-19.1c0,0,0.2-9-4.7-16.5
					c-5-7.5-9.1-3.9-9.7-1c0,0-4.7-6.3-8.6-2.6c-3.9,3.7-1,11.9-1,11.9s-5.3,0.5-4.4,4.6c0.9,4.1,6.8,9.1,10.6,10.3
					c0,0-7.9,1.3-1.9,7.5C292.7,388.2,305.1,390.6,305.1,390.6z"/>
				<path class="st1" d="M294.8,365.8c0,0,9.5,23.9,23.1,32.7"/>
			</g>
			<g>
				<path class="st1" d="M317.9,398.5c0,0,17.9-8.8,10.3-12.7c0,0,4.9-3.7,6.9-7.8c1.9-4.1-1.1-5.7-2.7-3.3c0,0,4.5-5.5,5.9-13.1
					s-2.2-8.9-4.4-6.7c0,0,1.4-1.8,1.4-7.7c0-5.9-3.6-7.3-5.7-4.1c0,0-2.3-9.7-7.6-9.1s-5.9,6.9-5.9,6.9s-9.7-3.9-4.9,10.9
					c0,0-3.4-2.6-4.8-1c-1.6,1.8,0.2,10.4,0.2,10.4s-4.5-2.3-3.4,3.4s7.4,17,7.4,17s-5.8-1.7-1.7,6.7S317.9,398.5,317.9,398.5z"/>
				<path class="st1" d="M320.9,353.6c0,0,3.7,23.8-3,44.9"/>
			</g>
			<g>
				<path class="st1" d="M318.1,398.4c1.1-0.6,9.1-0.5,17.3-5.5c8.2-5,5.2-8.4,2.7-7.7c0,0,3.4-0.7,8.6-4.6c5.1-3.9,3.3-7.7,0.8-6.3
					c0,0,4.4-3.7,6.3-10s-2.5-6.3-3.5-4.8c0,0,1.7-8.1-1.8-9.3s-6.9,3.9-6.9,3.9s0-4.6-2.5-3.7c-2.5,0.9-8,7.6-7.3,16.7
					c0,0-6.3-3.3-6.5,7.1C325.3,384.4,318.1,398.4,318.1,398.4z"/>
				<path class="st1" d="M342.3,364.4c0,0-3.2,20.8-24.2,34"/>
			</g>
		</g>
		<g>
			<path class="st1" d="M404.8,394.1c0,0-14.9,1.5-24.3-15.5c-8.4-15.2-7.8-23.2-5.4-24.5c2.5-1.3,6.8,3.5,6.8,3.5s0-9.1,4.1-9.5
				c4.1-0.4,5.8,8.8,5.8,8.8s2-5.6,6.1-4.5c4.3,1.1,4.8,12.3,4.8,12.3s2.1-2.8,3.8-1.6c1.7,1.2,0,8.5-1.3,11.5c0,0,1.3-1.6,3-0.5
				C409.9,375.1,409.8,387.2,404.8,394.1z"/>
			<path class="st1" d="M404.8,394.1c-11.6-5.6-14.9-28.7-14.9-28.7"/>
			<g>
				<path class="st1" d="M404.7,394.1c0,0-6.1-8.7-5.7-26s7.2-18.9,8.8-15.9c0,0,1.9-5.6,6.8-5.6c4.9,0.1,4.3,8.8,4.3,8.8
					s11.5-4.1,4.3,12.7c0,0,4.1-2.9,4.4,1.2c0.3,4.1-4.4,11.3-12.4,15.8C415.2,385.1,422.1,387.8,404.7,394.1z"/>
				<path class="st1" d="M411.7,363.5c0,0,1.9,13.4-7.1,30.6"/>
			</g>
		</g>
		<g>
			<g>
				<path class="st1" d="M338.8,403.4c0,0-9.7,4.4,12.8,7.9c0,0,2-14.6-3.7-11.6c0,0-0.6-29.1-7.9-19.1c0,0,0.2-9-4.7-16.5
					c-5-7.5-9.1-3.9-9.7-1c0,0-4.7-6.3-8.6-2.6c-3.9,3.7-1,11.9-1,11.9s-5.3,0.5-4.4,4.6c0.9,4.1,6.8,9.1,10.6,10.3
					c0,0-7.9,1.3-1.9,7.5C326.3,400.9,338.8,403.4,338.8,403.4z"/>
				<path class="st1" d="M328.4,378.6c0,0,9.5,23.9,23.1,32.7"/>
			</g>
			<g>
				<path class="st1" d="M351.5,411.3c0,0,17.9-8.8,10.3-12.7c0,0,4.9-3.7,6.9-7.8c1.9-4.1-1.1-5.7-2.7-3.3c0,0,4.5-5.5,5.9-13.1
					c1.4-7.6-2.2-8.9-4.4-6.7c0,0,1.4-1.8,1.4-7.7c0-5.9-3.6-7.3-5.7-4.1c0,0-2.3-9.7-7.6-9.1c-5.3,0.6-5.9,6.9-5.9,6.9
					s-9.7-3.9-4.9,10.9c0,0-3.4-2.6-4.8-1c-1.6,1.8,0.2,10.4,0.2,10.4s-4.5-2.3-3.4,3.4c1.1,5.7,7.4,17,7.4,17s-5.8-1.7-1.7,6.7
					C346.6,409.5,351.5,411.3,351.5,411.3z"/>
				<path class="st1" d="M354.6,366.4c0,0,3.7,23.8-3,44.9"/>
			</g>
			<g>
				<path class="st1" d="M351.8,411.1c1.1-0.6,9.1-0.5,17.3-5.5c8.2-5,5.2-8.4,2.7-7.7c0,0,3.4-0.7,8.6-4.6c5.1-3.9,3.3-7.7,0.8-6.3
					c0,0,4.4-3.7,6.3-10s-2.5-6.3-3.5-4.8c0,0,1.7-8.1-1.8-9.3c-3.5-1.3-6.9,3.9-6.9,3.9s0-4.6-2.5-3.7c-2.5,0.9-8,7.6-7.3,16.7
					c0,0-6.3-3.3-6.5,7.1C358.9,397.1,351.8,411.1,351.8,411.1z"/>
				<path class="st1" d="M376,377.1c0,0-3.2,20.8-24.2,34"/>
			</g>
		</g>
	</g>
	<g>
		<g>
			<g>
				<g>
					<g>
						<g>
							<g>
								<path class="st7" d="M377.9,667c-0.4-8.8,4.1-11.7,6.8-12.7c-1.8-1.7-3.8-3.8-5.9-6.7c-7.4-10.6-17.3-3.8-17.3-3.8
									c-20.5,3.9-17.6,21.1-17.6,21.1s18.8,31.5,33.2,27C371.4,684.3,378.5,678.5,377.9,667z"/>
								<path class="st2" d="M377.9,667c-0.4-8.8,4.1-11.7,6.8-12.7c-1.8-1.7-3.8-3.8-5.9-6.7c-7.4-10.6-17.3-3.8-17.3-3.8
									c-20.5,3.9-17.6,21.1-17.6,21.1s18.8,31.5,33.2,27C371.4,684.3,378.5,678.5,377.9,667z"/>
							</g>
							<g>
								<path class="st7" d="M394.7,668.4c0-8.1-4.1-8.9-9.9-14.2c-2.7,1-7.3,4-6.8,12.7c0.6,11.5-6.5,17.4-0.8,24.9
									c0.2-0.1,0.4-0.1,0.6-0.2C391.6,686.4,394.7,676.5,394.7,668.4z"/>
								<path class="st2" d="M394.7,668.4c0-8.1-4.1-8.9-9.9-14.2c-2.7,1-7.3,4-6.8,12.7c0.6,11.5-6.5,17.4-0.8,24.9
									c0.2-0.1,0.4-0.1,0.6-0.2C391.6,686.4,394.7,676.5,394.7,668.4z"/>
							</g>
						</g>
						<path class="st0" d="M341.1,671.9c-1.2,5.9,0.2,15.6,14,19.5c18.4,5.2,25.4,0.2,28.5-5.7s4.7-14.3,0-18.4s-6.4-7-8.4-11
							c-3.1-6.5-13.1-11.1-23.2-4.7C344,656.7,342.1,667.1,341.1,671.9z"/>
					</g>
				</g>
			</g>
			<path class="st0" d="M358.5,692.3c0,0-3.7-15.1,1.1-25.3"/>
		</g>
		<g>
			<g>
				<g>
					<g>
						<g>
							<g>
								<path class="st7" d="M343.9,641c-0.4-8.8,4.1-11.7,6.8-12.7c-1.8-1.7-3.8-3.8-5.9-6.7c-7.4-10.6-17.3-3.8-17.3-3.8
									c-20.5,3.9-17.6,21.1-17.6,21.1s18.8,31.5,33.2,27C337.4,658.3,344.4,652.5,343.9,641z"/>
								<path class="st2" d="M343.9,641c-0.4-8.8,4.1-11.7,6.8-12.7c-1.8-1.7-3.8-3.8-5.9-6.7c-7.4-10.6-17.3-3.8-17.3-3.8
									c-20.5,3.9-17.6,21.1-17.6,21.1s18.8,31.5,33.2,27C337.4,658.3,344.4,652.5,343.9,641z"/>
							</g>
							<g>
								<path class="st7" d="M360.6,642.5c0-8.1-4.1-8.9-9.9-14.2c-2.7,1-7.3,4-6.8,12.7c0.6,11.5-6.5,17.4-0.8,24.9
									c0.2-0.1,0.4-0.1,0.6-0.2C357.6,660.4,360.6,650.5,360.6,642.5z"/>
								<path class="st2" d="M360.6,642.5c0-8.1-4.1-8.9-9.9-14.2c-2.7,1-7.3,4-6.8,12.7c0.6,11.5-6.5,17.4-0.8,24.9
									c0.2-0.1,0.4-0.1,0.6-0.2C357.6,660.4,360.6,650.5,360.6,642.5z"/>
							</g>
						</g>
						<path class="st0" d="M307.1,645.9c-1.2,5.9,0.2,15.6,14,19.5c18.4,5.2,25.4,0.2,28.5-5.7s4.7-14.3,0-18.4s-6.4-7-8.4-11
							c-3.1-6.5-13.1-11.1-23.2-4.7C309.9,630.7,308,641.1,307.1,645.9z"/>
					</g>
				</g>
			</g>
			<path class="st0" d="M324.5,666.3c0,0-3.7-15.1,1.1-25.3"/>
		</g>
		<g>
			<g>
				<g>
					<g>
						<g>
							<g>
								<path class="st7" d="M299.5,660.4c-0.4-8.8,4.1-11.7,6.8-12.7c-1.8-1.7-3.8-3.8-5.9-6.7c-7.4-10.6-17.3-3.8-17.3-3.8
									c-20.5,3.9-17.6,21.1-17.6,21.1s18.8,31.5,33.2,27C293,677.7,300.1,671.9,299.5,660.4z"/>
								<path class="st2" d="M299.5,660.4c-0.4-8.8,4.1-11.7,6.8-12.7c-1.8-1.7-3.8-3.8-5.9-6.7c-7.4-10.6-17.3-3.8-17.3-3.8
									c-20.5,3.9-17.6,21.1-17.6,21.1s18.8,31.5,33.2,27C293,677.7,300.1,671.9,299.5,660.4z"/>
							</g>
							<g>
								<path class="st7" d="M316.3,661.8c0-8.1-4.1-8.9-9.9-14.2c-2.7,1-7.3,4-6.8,12.7c0.6,11.5-6.5,17.4-0.8,24.9
									c0.2-0.1,0.4-0.1,0.6-0.2C313.3,679.8,316.3,669.8,316.3,661.8z"/>
								<path class="st2" d="M316.3,661.8c0-8.1-4.1-8.9-9.9-14.2c-2.7,1-7.3,4-6.8,12.7c0.6,11.5-6.5,17.4-0.8,24.9
									c0.2-0.1,0.4-0.1,0.6-0.2C313.3,679.8,316.3,669.8,316.3,661.8z"/>
							</g>
						</g>
						<path class="st0" d="M262.7,665.3c-1.2,5.9,0.2,15.6,14,19.5c18.4,5.2,25.4,0.2,28.5-5.7s4.7-14.3,0-18.4s-6.4-7-8.4-11
							c-3.1-6.5-13.1-11.1-23.2-4.7C265.6,650.1,263.7,660.5,262.7,665.3z"/>
					</g>
				</g>
			</g>
			<path class="st0" d="M280.2,685.7c0,0-3.7-15.1,1.1-25.3"/>
		</g>
	</g>
	<g>
		<path class="st0" d="M483.9,697c0,0,4.1,3.5,3.1,8.3c-1,4.8-6.4,4-7,9.5s-2.3,5-5.4,11.6c-3,6.6-2,14.6-2,14.6
			S469.4,714.2,483.9,697z"/>
		<path class="st0" d="M446.4,696.9c0,0-4.9,12.9,0.9,19.9c5.8,7,12.4,2.5,13.6,12c0.8,6.2,2.7,7.3,7.4,11c3.8,3.1,4.5,9.2,4.5,9.2
			S470,713,446.4,696.9z"/>
		<path class="st0" d="M501.9,704.9c0,0,0.7,6.6-2.2,15c-3.7,10.8-14.6,8.6-17.5,10.9c-2.9,2.3,0,5.4-5.6,9.2
			c-5.1,3.5-3.5,9.1-3.5,9.1S464.5,726.4,501.9,704.9z"/>
	</g>
</g>
</svg>
