<?xml version="1.0" encoding="utf-8"?>
<!-- Generator: Adobe Illustrator 22.1.0, SVG Export Plug-In . SVG Version: 6.00 Build 0)  -->
<svg version="1.1" id="圖層_1" xmlns="http://www.w3.org/2000/svg" xmlns:xlink="http://www.w3.org/1999/xlink" x="0px" y="0px"
	 viewBox="0 0 684.6 905.9" style="enable-background:new 0 0 684.6 905.9;" xml:space="preserve">
<style type="text/css">
	.st0{fill:#AF485C;stroke:#000000;stroke-width:0.43;stroke-miterlimit:10;}
	.st1{fill:none;stroke:#000000;stroke-width:0.43;stroke-miterlimit:10;}
	.st2{fill:#E5AEAE;stroke:#000000;stroke-width:0.43;stroke-miterlimit:10;}
	.st3{fill:none;stroke:#000000;stroke-width:0.43;stroke-linecap:round;stroke-linejoin:round;stroke-miterlimit:10;}
	.st4{fill:none;stroke:#000000;stroke-width:0.43;stroke-linejoin:round;stroke-miterlimit:10;}
	.st5{fill:#AED1C1;stroke:#000000;stroke-width:0.43;stroke-linejoin:round;stroke-miterlimit:10;}
	.st6{fill:#CECE46;stroke:#000000;stroke-width:0.43;stroke-linejoin:round;stroke-miterlimit:10;}
	.st7{fill:#FFECD9;stroke:#000000;stroke-width:0.43;stroke-miterlimit:10;}
	.st8{fill:#FFFFFF;stroke:#000000;stroke-width:0.43;stroke-linejoin:round;stroke-miterlimit:10;}
	.st9{fill:#FDE3B9;stroke:#000000;stroke-width:0.43;stroke-miterlimit:10;}
	.st10{fill:#FFFFFF;stroke:#000000;stroke-width:0.43;stroke-miterlimit:10;}
	.st11{stroke:#000000;stroke-width:0.43;stroke-linejoin:round;stroke-miterlimit:10;}
</style>
<g>
	<g>
		<path class="st0" d="M642.3,167.6c3.5,2.3-2.8,20.3-29.1,27.6c0,0-0.2-10.7,2.7-22.6c2.9-11.9,6.9-12.6,9.1-11.9s2.6,6.1,1.6,9.6
			c0,0,3.8-10.5,8-8.2c4.2,2.3-0.2,10.7-0.2,10.7S638.9,165.4,642.3,167.6z"/>
		<path class="st1" d="M629.3,172.6c0,0-2,13.6-16.1,22.6"/>
	</g>
	<g>
		<path class="st2" d="M591.2,184.5c0.3-5,3.1-21.3,10.5-20.4s2.7,14.3,2.7,14.3s6.2-11.8,11.5-9.9c5.3,1.9-2,17.6-2,17.6
			s4.1-11.3,8.8-9.9c4.6,1.4,0.6,21.9-25.7,39.8C597,216,590,202.9,591.2,184.5z"/>
		<path class="st1" d="M606.1,184.1c0,0-0.4,16.3-9.1,31.9"/>
	</g>
	<g>
		<path class="st0" d="M634,201c0,0,7.1-1.6,7.7,1.3c0.6,2.8-3.1,13.2-30.6,6c0,0,3.4-9.1,8.6-15.1c5.2-6,10.6-9.2,13.1-6
			c2.4,3.1-4.5,10.4-4.5,10.4s7.3-6.1,9.7-2.6C640.1,198.3,634,201,634,201z"/>
		<path class="st3" d="M630.2,200.5c0,0-8.2,6.2-19.1,7.7"/>
	</g>
	<g>
		<path class="st2" d="M469,46.4c3.9-0.1,4.1,7.1,3.3,11.4c0,0,3.1-11.2,7.6-9.9c4.5,1.3-1.2,14.7-1.2,14.7s4.4-11.5,9.4-8.1
			c4.9,3.4-9.6,30.4-22,37.7C464.5,89.5,457.5,46.6,469,46.4z"/>
		<path class="st4" d="M473.4,61.8c0,0-6.9,18.2-5.9,34.2"/>
	</g>
	<g>
		<path class="st0" d="M475.8,76.6c4.6-0.9,0.8,10.8,0.8,10.8s4.7-10,9.4-8.4c4.7,1.6-1.8,9.3-1.8,9.3s4.9-5.6,7.7-2.9
			s-9.7,10.6-9.2,22.9c0.6,12.3-20.6,14.5-20.7,3.7S467,78.3,475.8,76.6z"/>
		<path class="st4" d="M478.3,90.9c-2.5,2.1-10.9,12.5-9.1,27.8"/>
	</g>
	<path class="st0" d="M446.3,60.6c4.7-2.4,8.5,7.4,8.5,7.4s-1.8-8.7,4.3-9.1c6.1-0.4,18.1,31.4,6.1,57c0,0-9.9-12.2-16.6-25.7
		c-6.7-13.5-9.7-11.2-11.8-17.1c-2.1-5.9,5.9-6.9,9.3-0.8C446.1,72.2,441.7,62.9,446.3,60.6z"/>
	<path class="st4" d="M455.5,77.9c0,0,10.6,14.2,9.6,37.9"/>
	<g>
		<path class="st2" d="M330.1,46.5c0,0-14.1-3.1-16,5.8c-1.9,8.7,15.8,10.1,25.4,9.3c9.6-0.8,42.9-2.5,50.8-1.7s19.9,2.3,22.1-1.3
			c3.3-5.3-6.4-9.8-15.1-7.6c0,0,5.8-6.5,1.6-12.1s-14.3-5.8-17.3-4.3c0,0,1.2-3.5-1.8-7.9C373.6,17.7,341.5,15.7,330.1,46.5z"/>
		<path class="st4" d="M331.9,54.5c0,0-0.1-2.9,2-3.7c2.9-1,4,2.1,4,2.1"/>
		<path class="st4" d="M365.1,39.2c0,0,3.5-3.1,6.9-1c2.1,1.3,2.2,5.1,1.6,6.9c0,0,2.8-3.1,7.6-2.8c5.6,0.3,8.7,6.7,6.7,12.1"/>
	</g>
	<path class="st5" d="M346.8,50.6c2.9-1.4,9,13.8,19,18.5c0,0-8.1-15.2-4.4-16.7s2.7,13,9.2,17.6c0,0,2.2-4.2,1.5-9.2
		s-1.8-8.6,0.2-8.6s5.4,11.3,0.9,21.6c0,0,10.1,10.2,22.2,12.1l-1.1,5c0,0-17.9-5.7-31.8-17.7C348.7,61.4,343.5,52.2,346.8,50.6z"/>
	<g>
		<g>
			<path class="st2" d="M150.1,721.5c0,0,5.3,22.4,16.6,35.5s21.8,39,35.6,52.7c13.8,13.8,24,28,58.7,38.1s49.6,5.4,72.3,20.3
				c22.7,14.9,24.5,19.7,43,17.3c18.5-2.4,29.3-13.2,42.4-32.3c13.2-19.1,20.9-23.3,38.3-28.1c17.3-4.8,32.9-1.2,49.6-15.5
				c16.7-14.3,6.6-23.9,21.5-39.5c14.9-15.5,28.2-21.2,29-36.7l-94.2-8H206L150.1,721.5z"/>
			<path class="st4" d="M188.4,757.1c0,0,13.8,7.3,21.1,27.1c6.9,18.7,23.5,26.4,42.2,29.3c38.7,6.1,47.1,31.9,61,31.6"/>
			<path class="st4" d="M322.3,848.7c0,0,5.2,0.3,7.8,2.9"/>
			<path class="st4" d="M255.9,782.6c0,0,9.7,18.2,39.7,27.4c44.8,13.9,43.6,38.7,61.6,40.2"/>
			<path class="st4" d="M312.7,788.7c2.6,15.2,26.5,21.5,30,27.7"/>
			<path class="st4" d="M348.9,823.2c6.1,2.8,4.2,9.5,10.5,10.8"/>
			<path class="st4" d="M368,801.1c0,0,6.6,8.8,18,4.7"/>
			<path class="st4" d="M365.3,854c0,0,5.4,1.9,9.7,0"/>
			<path class="st4" d="M399.3,831.9c0,0,8.3-4.8,17-18"/>
			<path class="st4" d="M425,808c9.5-15.9,34.6-14.3,43.7-33.5"/>
			<path class="st4" d="M398.5,847c0,0,4.2-0.2,20.9-21.7c21.5-27.7,58.4-18.4,72.3-52.8"/>
		</g>
		<path class="st6" d="M156.8,710.7c-3.2,1.9-14.1,6.6-0.9,17.9c7.9,6.8,33.4,18.7,57.3,22s59.1,13.8,114.4,13.8
			c32.3,0,78.8-9.3,106-9.9s53.6,0.6,75.6-3.9s51.7-7.1,47.8-20.7s-20-21.3-49.1-20.7s-115-9-115-9s-76.3-23.9-87.2-21.3
			c-11,2.6-39.8,5.3-67.2,9C224.6,689.8,182.5,695.4,156.8,710.7z"/>
	</g>
	<path class="st7" d="M364.3,115.4c4-9.7,21.1-46.9,74.1-35.2c10.6,2.3,19.5,11.8,18.4,19.3c-0.8,5.4,7.9,5.7,8.2,10.5
		c0.2,4.8-1.6,15.5-1.6,15.5L395.7,290l-19.2,132.5c0,0-25.9,7.8-46.4,12.3c-20.5,4.5-32.8-12.3-32.8-12.3s7-99.6,9.9-114.2
		s5.3-27.9,17-34.8c0,0,4.4-51.7,13.3-75.2S353.4,141.8,364.3,115.4z"/>
	<g>
		<g>
			<path class="st2" d="M36.2,85.2c0,0,3.3-33.6,44.4-35.9c0,0,12.2-25.3,42.4-23.8c37,1.8,41.4,48.2,41.4,48.2s-5.1,35.2-51.6,36.7
				s-95.7,8.1-95.6-11.8C17.2,84.7,36.2,85.2,36.2,85.2z"/>
		</g>
		<path class="st5" d="M78.9,83.4c4.7,0.2,8.7,20.3,16,22.1c4.3,1,5-6,3-12.4c-2-6.4-2-11,0.1-11c3.5,0,5.2,16.2,6.6,21.8
			c1.5,5.6,2.4,21.6,27.1,43.2c1.9,1.7,8,4.1,4.4,9c-2.6,3.6-9,0.7-11.2-1.1C99.2,134.1,105,132.3,88,109.2
			C75.5,92.3,74.8,83.3,78.9,83.4z"/>
		<path class="st6" d="M78.8,120.8c0,0-23.9,3.4-27.5,23.3c-4.6,25.4,36.4,25.7,78.3,23.4c36.3-2,94.5-2.5,145.6,0.9
			s99.7,1.9,124.6-3.8c24.9-5.7,29.1-32.2,16.5-43c-12.7-10.8-31.2-8.4-44.7-2c0,0,3.1-19-14.8-29.3s-43.7,2.6-43.7,2.6
			s-0.8-45.7-53.6-67.5c-51-21.1-127.6,3.2-148.6,65.5C110.9,90.9,80.8,81.8,78.8,120.8z"/>
		<path class="st4" d="M132.9,110.4c0,0,4.9-20.9,27.7-19.8c0,0,1.8-26.1,28.3-32.6c26.9-6.5,38.9,16.3,39.6,18.5"/>
		<path class="st4" d="M320.3,124.2c0,0,8.8-3.9,15,0.7c6.2,4.6,2.9,14.1,2.9,14.1"/>
		<path class="st4" d="M354.7,150.3c0,0,4.2-9.7-2.1-15.1c-6.3-5.4-13.5-1.5-13.5-1.5"/>
	</g>
	<path class="st5" d="M156.9,130.7c8.4-2.1,19.7,30.9,58.2,48.1s61.1,25.1,82.1,27c0,0-27-23.9-44.2-48.5s-19.2-29.6-14.7-31.6
		c4.6-2,9.5,13.7,20.7,23.8c9.6,8.7,36.4,48.8,52.1,58.3c15.7,9.5,19.8,6.8,19.8,6.8s-20.8-25.7-31.4-50.4s-13.7-32.5-8.5-32.7
		c5.7-0.2,14.1,29.1,24.7,41.3c10.6,12.1,20.6,37.8,38.4,52.5c17.8,14.8,27.9,17.3,32,33l-5.7,14.2c0,0-13-28.3-36.5-39
		s-45.3-18.7-63-21.2s-68.3-15.7-95.1-37.9S148.8,132.7,156.9,130.7z"/>
	<path class="st7" d="M624.3,310.3c-0.6-15.1-5-19.5-6.3-54.1c-1.3-34.6-10.8-49.6-19.9-70.5s-9.9-35.1-8.6-56
		c1.3-20.9-6.2-42.3-27.6-41.5C540.5,89,532,95.4,532,95.4l-54.6,29.5l-3.5,186l-17.1,49.2l153.9,1.2
		C620,340.9,624.7,321.2,624.3,310.3z"/>
	<path class="st7" d="M219.5,439.5c0,0-4.7,25.3-8.4,54.1c-3.7,28.8,0.4,81.8-9.1,116.2c-5.3,19.3-11.5,40.5-17.5,61.3
		c-7.8,26.9-5.2,37.9-5.2,37.9l42.1,4.8l43.9-6.2l30.7-97.3l22.8-112.7l23.6-52.6c0,0-59.7-5.5-63.8-5.5S219.5,439.5,219.5,439.5z"
		/>
	<path class="st6" d="M220.2,435.6c-1.4,3-1.3,9.6,9.1,9.6c13.3,0,31.8-4.2,43.7,0s12.6,8,26.6,7c14-1,25.9-6.6,44-3.5l8-13.9
		c0,0-14-12.7-42.6-14.4c-28.7-1.7-33.1,3.4-51.8,2.1C238.4,421.2,226.5,422.6,220.2,435.6z"/>
	<g>
		<path class="st2" d="M357.6,184.7c2.8-3.1,6.5,0.1,8.7,2.4c0,0-4.3-8-1-10.5c2.6-1.9,6.3,1.8,8.3,6.2c0,0-3.6-10.2,1.2-11
			c6.2-1,18.3,25.2,11.3,45.8C373.6,215.9,350.1,192.8,357.6,184.7z"/>
		<path class="st4" d="M370.5,188.4c0,0,10.8,11.3,15.6,29.2"/>
	</g>
	<g>
		<path class="st2" d="M397.3,179.4c5.1-0.9,12.6,26.7-2.2,51c0,0-10.1-7.7-16-23.2s-1.4-16.3,0-16.5c1.4-0.2,4.9,1.4,6.1,6.4
			c0,0-3.2-13.5,2.4-15.1s7.7,13.4,7.7,13.4S392,180.4,397.3,179.4z"/>
		<path class="st4" d="M391.6,199.1c0,0,5.3,12.9,3.6,31.2"/>
	</g>
	<g>
		<path class="st0" d="M393.1,229.6c0,0-10.7,2.3-21.9-1.2c-11.6-3.5-18.6-9.6-16.8-13.9c1.8-4.3,12.1,0,12.1,0s-10.6-7.6-7-11.5
			c3.5-3.9,12.9,6.3,12.9,6.3s-7.2-8.6-4.1-11.7C371.4,194.4,386.3,206.7,393.1,229.6z"/>
		<path class="st4" d="M373.6,215.9c0,0,12.8,2.7,19.5,13.7"/>
	</g>
	<path class="st5" d="M356.4,387.1c-0.8-38.2,13.8-105.7,35.6-159.6c25.1-62.2,70.7-154.8,139.9-132c0,0-13.8,15.2-19.5,71.1
		c-4.6,45.2-11.1,55.6-17.2,66.7s-21.9,60.6-20.1,89.6s1.2,54.7-8,62.6C467.2,385.4,367.4,399.3,356.4,387.1z"/>
	<path class="st6" d="M486.4,233.4c0,0-7.6,6.8-2.8,14.5s8,9.4,15.9,9.4s12,3.6,22,3c10-0.7,22.7,0.3,37.8-6.5
		c15-6.8,16.1-5.2,35.8-10.8c19.7-5.7,27-10.3,29.1-22.1c1.6-8.7-9.1-15-15.3-13.7c-13.3-0.2-39.3,7.4-44.8,7.5
		c-9.2,0.2-23.5,6.2-34.2,4.6s-24.8-4-31.1,1.3S489.1,230,486.4,233.4z"/>
	<path class="st7" d="M624.9,311.8c-1.5-30-10.7-60.7-2.7-82.7c0,0-58.3,3.8-61.9,5.1c-3.7,1.3-77.5,8.1-77.5,8.1s-2.5,17.8-6,25.7
		c-3.5,7.9-7.8,17.8-11.2,48.7c-3.4,30.9-12.4,54.8-20.4,73.8c-0.4,1-0.7,2.1-0.9,3.3l-15.9-1.1l-20.4,20.6l-77.1,200.9
		c0,0-8.2,78.1,0,89.9c8.2,11.8,30.3,23,41.1,16.8c10.8-6.3,24.4,5.1,35.6,1.9c11.2-3.2,30.8,4.4,48.8,6c18,1.6,28,6,39.9,7
		c11.9,1,33.8-2.3,41.7-6s8.3-9.7,6.5-14.7c-1.8-5-3.2-5.5-5.1-18c-2-12.5-6.9-10-6.7-23.2c0.2-13.2-13.8-36.7-10.8-91.8
		c2.4-43.5,20.5-86.3,33-108.3c0,0,13.7-7.3,18.3-20.7c4.5-13.4,4.3-18.9,6.9-31.6c2.5-12.7,12.3-27,24.1-45.9
		C615.9,356.4,626.4,341.8,624.9,311.8z"/>
	<g>
		<path class="st2" d="M328,400.2c0,0,2.5-5.8,4.9-4.4c2.4,1.4,0,5.8,0,5.8s2.3-3.1,4.1-1.2s-5.9,15.1-14.2,19.2c0,0-2.6-7-2-14.7
			c0.6-7.6,4.2-9.1,6.2-8.6C328.9,396.9,328,400.2,328,400.2z"/>
		<path class="st1" d="M329.7,402.4c0,0-5.1,3.4-6.9,17.2"/>
	</g>
	<g>
		<g>
			<path class="st1" d="M262.3,425.8c0,0-0.9-5.8,2-10.7c3-4.9,8.6-7.2,7.5-13.2c-1-5.9-6.4-12-4.8-20.4c1.6-8.4,7.3-8.5,7.1-16.9
				s-9.9-14.8-4.7-21.5s12.3-6.2,10.8-16.1c-1.5-9.9-7.1-8.1-7.3-12.8c-0.1-4.7,4.9-2.8,7.3-8.9c1.2-3.3,5.5-3.1,6.4,0.7
				c0.9,3.8,2.1,8.7,6.6,11.4s2.8,6.3-0.8,8.4"/>
			<path class="st1" d="M293.3,317.3c0,0,5.1-0.1,5.2-5.6c0.1-5.5,5.5-8.9,9.1-5.3c3.5,3.6-0.3,8.9-3.9,10.9c-3.5,2-4.1,9-2.3,12.5
				c1.8,3.5,6.9,21.9-5.4,30.8c-12.3,9-4.1,20.3-4.1,25.3s-4.8,12.3-1.1,18.5s9,12,4.6,21.4"/>
			<g>
				<path class="st5" d="M259.3,331.1c0,0-7.4,3.9-7.9,12.3c0,0,19.3-0.2,18.1-14.1c0,0,6.6-11.2-8.4-18.6c0,0-1.7,8.9,1.2,11.6
					c0,0-4.8-6.1-19.9-3.8C242.4,318.5,243.1,331.7,259.3,331.1z"/>
				<path class="st1" d="M251,323.3c0,0,6,5.4,18.5,6c0,0,5.1,1.2,6.7,5.7"/>
			</g>
			<g>
				<path class="st5" d="M261,382.7c0,0,8.3,3.7,15.2,0c0,0-4.5,3.8-4.5,9.5c0,0,16.5-0.7,13-18.4c0,0-0.1-11-12.8-11.8
					c0,0,0.4,9.3,4.4,12.4C276.2,374.3,265.9,374.5,261,382.7"/>
				<path class="st1" d="M273.1,379.3c0,0,7.5-0.2,11.6-5.5c4.1-5.3,7.2-6.1,7.2-6.1"/>
			</g>
			<g>
				<path class="st5" d="M296.9,376.3c0,0-9,2.1-9.5,16.8c0,0,8.3-0.1,11-8.3c0,0,2.8,9.3,11,10.5c0,0,2-9.3-3.9-14.5
					c0,0,7.4,0.3,11.6-4.6C317.1,376.3,304,367.6,296.9,376.3z"/>
				<path class="st1" d="M291.8,370.1c0,0,1.4,5.3,5.1,6.2c0,0,7.4,4.4,9.8,14"/>
			</g>
			<path class="st5" d="M278.2,341.9c-2.8,0.9-10.2,5.6-7.2,17.5c0,0,6.9-0.9,9.9-5.7c0,0,2.1,9.5,9.8,13.1c0,0,1.4-12.9-3.2-17.1
				c0,0,7,0.6,11.1-4.2C298.6,343.1,287.5,337.5,278.2,341.9z"/>
			<path class="st1" d="M286.2,357c-0.1-0.7-1.6-11.9-8-15.1s-2-6.9-2-6.9"/>
			<g>
				<line class="st1" x1="280.3" y1="293.8" x2="266.8" y2="428.2"/>
				<line class="st1" x1="291.8" y1="291.1" x2="291.8" y2="430.7"/>
				<line class="st1" x1="301.1" y1="295.9" x2="319.7" y2="428.2"/>
			</g>
			<g>
				<path class="st5" d="M310.4,317.4c0,0-12.4,7.7-6.8,22.2c0,0,9.2-3.7,8.4-11.1c0,0,0.3,12.6,13.9,14.2c0,0,2.5-10.6-5.4-17.1
					c0,0,10.2,1.2,13.4-1.8C333.9,323.9,323.9,312.5,310.4,317.4z"/>
				<path class="st1" d="M321.2,336.5c0,0-7.9-22.6-17.7-23.5"/>
			</g>
			<g>
				<path class="st5" d="M308.3,367.6c0,0-4.8-18.3,16.8-20.4C325.1,347.2,327.3,362.8,308.3,367.6z"/>
				<path class="st1" d="M318.8,352.9c0,0-7.4,5.4-10.5,14.7"/>
			</g>
			<g>
				<circle class="st2" cx="263.5" cy="359.7" r="10.8"/>
				<path class="st1" d="M259.3,355.9c0,0-1.2,0.8-0.9,2.2"/>
				<path class="st1" d="M264.1,358.2c0,0,0.6,1.4,0,2.4"/>
				<path class="st1" d="M261.7,363.4c0,0,0.3,2.3,2.4,1.9"/>
				<path class="st1" d="M269.4,361.9c0,0,0.5,2.3-0.8,3.4"/>
				<path class="st1" d="M265.9,355.2c0,0,1.5,0.3,1.8,1.6"/>
				<path class="st1" d="M261.7,352.1c0,0,1,0.3,1.2,1.6"/>
			</g>
			<g>
				<circle class="st2" cx="292.9" cy="336.5" r="10.8"/>
				<path class="st1" d="M295.3,331.4c0,0-1.1-0.9-2.3-0.3"/>
				<path class="st1" d="M294.5,336.6c0,0-1.2,1-2.3,0.7"/>
				<path class="st1" d="M288.9,335.8c0,0-2.1,0.9-1.1,2.8"/>
				<path class="st1" d="M292.5,342.8c0,0-2.1,1.2-3.5,0.2"/>
				<path class="st1" d="M297.9,337.5c0,0,0.1,1.6-1,2.2"/>
				<path class="st1" d="M299.7,332.6c0,0,0,1-1.2,1.6"/>
			</g>
			<g>
				<circle class="st2" cx="321.9" cy="372.8" r="10.8"/>
				<path class="st1" d="M324.1,368.4c0,0-0.5-1.3-1.8-1.5"/>
				<path class="st1" d="M323.5,373c0,0-1.2,1-2.3,0.7"/>
				<path class="st1" d="M317.5,373.5c0,0-0.7,2.2,1.3,2.7"/>
				<path class="st1" d="M317.1,369.7c0,0,2.3-0.8,3.5,0.4"/>
				<path class="st1" d="M325.1,375.4c0,0,0.1,1.6-1,2.2"/>
				<path class="st1" d="M329.1,373.7c0,0,1,0,1.6,1.3"/>
			</g>
			<g>
				<circle class="st2" cx="304.3" cy="359.7" r="10.8"/>
				<path class="st1" d="M298.6,358.1c0.4-1.3,1.9-1.4,1.9-1.4"/>
				<path class="st1" d="M304.8,358.2c0,0,0.7,1.4,0.2,2.4"/>
				<path class="st1" d="M304,364.2c0,0,1.9,1.2,2.9-0.7"/>
				<path class="st1" d="M300.2,363.8c0,0-0.3-2.4,1.2-3.3"/>
				<path class="st1" d="M307.5,357.2c0,0,1.6,0.2,1.9,1.5"/>
				<path class="st1" d="M306.7,352.9c0,0,0.2-1,1.6-1.3"/>
			</g>
		</g>
		<path class="st2" d="M316.9,406.3c0,0-1.3-4.8,1.5-5.2c2.7-0.4,9.1,9.9,5.2,26.4c0,0-11-1.3-17.4-9.4s-7.1-13.4-4.6-14.6
			s5.6,2.7,6.7,4.7c0,0-3.2-8,1-9C313.4,398.1,316.9,406.3,316.9,406.3z"/>
		<path class="st1" d="M312.5,407.2c0,0,5.5,4.7,11.1,20.2"/>
	</g>
	<path class="st5" d="M218.7,711.3c0,0,30.8-46.7,49.4-153.5c13.3-76.1,35.7-143.5,88.4-170.8c33.3-17.3,92.3-2.8,88.4,9.8
		c0,0-16.2,8.4-16.2,8.4c-19,13.9-6.2,40.9-15,62.3c-13.3,32.5-10.8,55.7-29.4,76.5c-18.6,20.7-39.1,72.1-45.1,175.6
		C339.1,719.7,284.5,730.3,218.7,711.3z"/>
	<path class="st6" d="M486.4,233.4c0,0-7.6,6.8-2.8,14.5s8,9.4,15.9,9.4s12,3.6,22,3c10-0.7,22.7,0.3,37.8-6.5
		c15-6.8,16.1-5.2,35.8-10.8c19.7-5.7,27-10.3,29.1-22.1c1.6-8.7-9.1-15-15.3-13.7c-13.3-0.2-39.3,7.4-44.8,7.5
		c-9.2,0.2-23.5,6.2-34.2,4.6s-24.8-4-31.1,1.3S489.1,230,486.4,233.4z"/>
	<g>
		<path class="st2" d="M478.9,267.8c2.4-2.5,6.7,0.9,7.8,4.3c0,0-1.3-8.5,2.8-9.2c4.1-0.7,3.3,8.4,3.3,8.4s0.8-7.8,4.4-6.5
			c3.6,1.3,3.8,22.3-5.7,36.7C491.6,301.6,471.8,275.3,478.9,267.8z"/>
		<path class="st4" d="M489.6,273.5c0,0,5.4,11.1,2,28.1"/>
	</g>
	<g>
		<path class="st0" d="M333.6,247.5c3.1-0.1,5,5.1,5.7,9c0,0,0.3-7.1,3.2-6.7c2.9,0.4,5.4,6.6,4.7,19.4c-0.7,12.9-8.2,23.3-8.2,23.3
			s-9.2-10.5-12.9-22.6c-3.7-12-3.7-18.9-0.7-19.5c2.9-0.7,5.9,5.8,5.9,5.8S330.2,247.7,333.6,247.5z"/>
		<path class="st4" d="M335.9,259.1c0,0,4.6,12.7,3.1,33.5"/>
	</g>
	<path class="st6" d="M490.6,147.7c0,0,2.3,3.2,6.2,4.4c3.9,1.2,8.1,6.4,19.3,8.4c12.8,2.3,17.7,6.4,19.6,9.4s5.5,9.7,8.5,8.8
		c3-0.9,1-6.8-0.7-9s-2.5-12.7,2-18.6c0,0-16.7-5.8-18.2-6s-18.2-2.8-19.7-2.6C506.1,142.6,490.6,147.7,490.6,147.7z"/>
	<g>
		<path class="st2" d="M562.4,103.8c0.1-4.3,5.4-5.4,8.4-3.9c0,0,3.6-9.3,14.1-4.7c0,0,2.9-14.7,18-20.9s26-1.5,30.1,3
			c0,0,11.8-3.2,18,3.8c6.2,7,3.5,14.4,3.5,14.4s8.1,1,8.7,8.1c0,0,1,8.4-11.2,7s-31.9,0.4-44.6-0.5c-8.2-0.6-27.7,2.1-32.2-0.5
			c0,0-4.6,1.8-7.1-0.9C568.2,108.7,562.2,109.4,562.4,103.8z"/>
		<path class="st4" d="M638.4,94.8c0,0,3.1-2.2,4.9,0.2c1.8,2.4-1.4,4.9-1.4,4.9"/>
	</g>
	<path class="st8" d="M505,114.1c5.2,0.3-3.9,13.5-9.6,15.1C489.7,130.7,498.9,113.7,505,114.1z"/>
	<path class="st8" d="M443.1,147.6c3.8,0.8-5.1,18.2-11.6,32.7c-6.5,14.5-8.6,22.7-13.3,21.5c-4.7-1.2,7.8-26.6,11.9-33.1
		C434.3,162.3,440.3,147,443.1,147.6z"/>
	<path class="st8" d="M497.6,165.6c4,1.4-2.8,16.7-7,24.5c-4.2,7.8-7.5,13.8-10.6,13.7c-3.2-0.1,0.8-13.7,4.1-19.1
		S493.6,164.2,497.6,165.6z"/>
	<path class="st8" d="M463.5,165.5c4.5,1.2-6.3,13.9-9.4,19.1s-5.9,9-3.1,10.9s11.8-13.6,15.5-10.9s-7.2,22.7-11.6,29.3
		c-4.3,6.7-12.7,27.2-16.7,50.5c-3.9,23.3-13.9,23.3-16.8,21.4c-2.9-2-9-13.9-13-3c-3.9,10.6-8.1,20.4-14.3,18.2
		c-3.5-1.2,2-18.4,6.3-31.1c4.3-12.7,15.8-39.8,23.3-54.5C432.9,197.7,452.3,162.5,463.5,165.5z"/>
	<path class="st8" d="M328.9,597.3c3.3-0.3,4.4,8,0,8.1C326.1,605.5,325.6,597.6,328.9,597.3z"/>
	<ellipse class="st8" cx="314.2" cy="611.1" rx="5.4" ry="6.5"/>
	<path class="st8" d="M408.4,311.7c5.9,1.5,4.3,16.6,0.6,29.4c-3.7,12.8-4.9,20-8.9,20s4.3-14.7,0.6-15.7c-3.7-1-3.7,8.4-7,7.1
		C390.5,351.2,397.6,309,408.4,311.7z"/>
	<g>
		<path class="st7" d="M620.3,334.2c-12.8,6.9-0.2,15.6-18.9,21.6c-15.3,4.9-37.7,3.3-50.7,2c-11.8-1.2-20.4-4.9-32.8-6.9
			c-12.3-2-12.8-7.6-12.8-7.7c-0.4,0.7-0.8,1.6-1,2.5c-1.7,6.6,1.7,14.4,8.1,23.3c6.3,8.9-1.2,26.2,10.1,28.3
			c11.2,2.1,16.7-4.4,39.1-17.7s33.6-10.4,53.4-17.2c14.7-5,22.9-21.8,21.4-31.5C629,329.3,620.3,334.2,620.3,334.2z"/>
		<path class="st6" d="M517.9,350.9c12.4,2,20.9,5.7,32.8,6.9c13,1.3,35.3,2.9,50.7-2c17.3-5.5,26.2-7.8,33.7-20.7
			c2.2-3.8,1.2-8.8-2.5-11.1c0,0-0.1-0.1-0.1-0.1c-8.2-5.1-22.4,4.3-35.1,5.2c-12.7,0.9-20.7,0.3-27.9,1.4c-7.2,1.2-19.3,4-28.6,3.2
			c-9.3-0.9-5.7,2-16.3,2.7c-9.3,0.6-16.5,1.8-19.4,6.9C505.1,343.2,505.6,348.9,517.9,350.9z"/>
	</g>
	<path class="st4" d="M561.3,368.1c0,0-2.2,3-7.8,5.6c-7.3,3.3-9.6,11.8-18.5,13.4"/>
	<path class="st4" d="M538.1,372.1c0,0-1.3,5.6-6.2,7.7c-5,2.1-5.7,4.3-6.3,5.7"/>
	<path class="st4" d="M523.4,392c1.6-1.2,2.2-2.4,2.2-2.4"/>
	<path class="st4" d="M533.4,390c0,0-1.3,1.4-2.6,2"/>
	<path class="st8" d="M483.4,218c3.6,3.6-7.4,22.4-13,34.6c-5.6,12.2-1.6,12.5-8.2,20s-12.4,10.1-9.2,2.3c3.2-7.8,9.2-10.7,7.8-20.9
		C459,241.7,480,214.5,483.4,218z"/>
	<g>
		<g>
			<path class="st5" d="M420.4,653.3c0,0,11.5-2.1,15.1,1.6c3.6,3.7-5.1,3.9-4.3,6.4s12.6-2,12.9,2.5c0.3,4.4-8.6,0.8-9.5,3.7
				c-0.8,2.9,8.5,7.5,4.4,11.6c-4.1,4.1-7-6.7-10-7c-3-0.3-0.7,8.8-5.3,8.1c-4.6-0.7-1.8-6.9-3.3-10.3c-1.4-3.4-2.9,5.3-6.1,3.5
				S412.8,660.4,420.4,653.3z"/>
			<path class="st1" d="M420.4,653.3c0,0,6,3.7,10.6,16.7"/>
		</g>
		<g>
			<path class="st5" d="M395.8,651.6c0,0-3.8-2.1-7.2,0.5c-3.8,2.9-1.6,5.6-6.4,6.6c-4.7,1-7.9,3.2-7,5.9c0.9,2.7,7.6-0.5,8.1,2.1
				s-5.8,9.4-1.9,12.3c3.9,3,8.5-8.6,11.1-7.8c2.6,0.8,3.3,6.6,6.7,5.3c3.4-1.3,3.5-10.4,2.6-14.4S397.8,652.3,395.8,651.6z"/>
			<path class="st1" d="M386.7,669.5c0,0,0.6-11.7,9.1-17.9c0,0-0.5-2.2,1.9-4.3"/>
		</g>
		<g>
			<path class="st5" d="M418.3,618.7c0,0-13.6-0.6-14.9,4.6c-1.3,5.2,4.9,4.2,4.7,6.5c-0.2,2.3-8,5.6-6.2,9.4
				c1.8,3.8,5.4,0.9,5.4,5.2s7.2,6.8,8.3-1.6c1.1-8.3,7.6-5.5,9.6-8.9C427.2,630.4,422.9,622.6,418.3,618.7z"/>
			<path class="st1" d="M422.2,614.9c0,0-2.5,0.9-3.9,3.8c-8.7,9.8-8.1,18-8.1,18"/>
		</g>
		<g>
			<path class="st5" d="M442.4,619.9c0,0-6.6-6.2-11-2.4c-4.4,3.8,2.1,7.1,1.3,9.2c-0.8,2.1-8.5,1-9.3,5.4c-0.8,4.3,9,1.2,9,4.7
				c0,3.5-4.6,8.2-1.1,11.1s8.1-6.4,11.3-7.5c5-1.7,11.1,2.9,9.6-6.3C450.5,624.8,442.4,619.9,442.4,619.9z"/>
			<path class="st1" d="M434.5,640c0,0,0.3-10.9,9.8-18.7"/>
		</g>
		<g>
			<path class="st5" d="M446.3,648c0,0,9.3,0.4,10.5,4.6s-4.2,3.6-3.2,6.2c1,2.5,8.6,1.6,8.2,6.8c-0.4,5.2-4.4,1.2-6,3.3
				s3.2,9.9-2.2,10.8c-4.4,0.7-3-7.2-5.6-8s-6.5,3.4-8.4-0.1c-1.9-3.6,6.3-7.4,4.7-10.3s-6.7,1.2-7.8-2.7
				C435.2,654.2,446.3,648,446.3,648z"/>
			<path class="st1" d="M452.2,669.3c0,0-0.4-16.1-5.9-21.3"/>
		</g>
		<line class="st1" x1="402.8" y1="597" x2="389.6" y2="727.8"/>
		<line class="st1" x1="422.9" y1="600.4" x2="416.9" y2="726.3"/>
		<line class="st1" x1="440.4" y1="605.5" x2="454.6" y2="724.7"/>
		<line class="st1" x1="419.7" y1="632.5" x2="421.6" y2="629"/>
		<line class="st1" x1="443.1" y1="617.8" x2="441.6" y2="615.4"/>
		<g>
			<g>
				<path class="st6" d="M399.8,618.3c0,0-6.5-0.7-9.4,7c0,0-7.1,2.1-7.3,9c0,0-6.4,4.5-2.7,9.7c0,0-5.5,7.8,0.9,10.7
					c0,0,1.6,4.8,5.6,1.8c0,0,5.5-1.9,5-7.9c0,0,4.1-1.9,4.4-7c0,0,5.4-4.1,3.7-11c0,0,2.7-3.6,0.3-7.2
					C400.3,623.4,401.9,620.8,399.8,618.3z"/>
				<path class="st1" d="M393.7,627.2c0,0-5,3.1-3.6,7c0,0-6.3,3.7-3.5,9.3c0,0-5.1,3.7-1.1,7.9"/>
				<path class="st1" d="M394.1,633.8c0,0,0.9,2.4-1.9,4.2c0,0,1.6,4-2.9,7.1"/>
			</g>
			<path class="st1" d="M399.8,618.3c0,0,0-1.4,1.1-2.8"/>
		</g>
		<g>
			<path class="st6" d="M419.7,632.5c0,0-4.3,1.4-3.8,4.3c0,0-8.7,3.6-7.5,12.6c0,0-7.9,4.3-5.3,16.9c0,0-3.6,5.9,0.6,10.3
				c-0.9,4.8,5.4,8.4,8.2,2.1c0,0,3.4,0,3.8-6c0,0,4.3-1.3,3-6.4c0,0,5.3-3.9,1.2-12.4c0,0,4.2-4.8,1.1-8.9c0,0,2.7-3.7-0.7-6.6
				C420.2,638.6,421.8,635.8,419.7,632.5z"/>
			<path class="st1" d="M415.2,644.1c0,0-5,3.1-3.2,9.3c0,0-4.3,3.4-2.5,9.2c0,0-4,3.1-2.3,8.3"/>
			<path class="st1" d="M416.2,652.6c0,0,1.1,3.3-1.5,5c0,0,2.6,6.9-4.1,10.9"/>
		</g>
		<g>
			<path class="st6" d="M443.1,617.8c0,0-1.3,6.4,2.1,8.6c0,0-2.3,3.7,0.6,6.1c0,0-0.8,5.9,3.9,5.6c0,0,0,10.5,8.2,11.6
				c0,0,1.7,5.1,6.9,2.4c0,0,1.2,0.9,3,1c2.6,0.1,5.2-2.3,4.4-5.4c-0.4-1.5-1.8-3-4.1-4c0,0,0.2-6.7-5.3-9c0,0,0.9-6.7-6-7.8
				c0,0-1.4-4.8-5.9-4.1C450.8,622.8,450.5,617.9,443.1,617.8z"/>
			<path class="st1" d="M452.1,633.1c0,0-0.5,5.7,4.5,5.9c0,0,0,5.1,4.4,5.7"/>
			<path class="st1" d="M451.3,626.4c0,0,4.5,0.7,4.5,5.8c0,0,6,1.1,6.2,8.1c0,0,4.4,2,4.1,7.8"/>
		</g>
		<g>
			<g>
				<path class="st6" d="M443.9,642.9c0,0-5.7,1.6-5.3,8.3c0,0-4.3,1.2-3.8,6.6c0,0-4.5,4.3-2.7,9c0,0-4,5.3-0.1,8.3
					c0,0-0.6,3.7,1.8,4.3c2.5,0.7,3.1-3.5,3.1-3.5s4.8-1.7,3.6-6.5c0,0,4.3-3.7,2.4-7.3c0,0,3.6-5.5,0.6-8.6
					C443.6,653.6,447.5,647.7,443.9,642.9z"/>
				<path class="st1" d="M439.7,655.1c0,0-2.7,1-1.9,5.1c0,0-2.7,1.7-2.2,6.5c0,0-2.5,3.1-1,5.5"/>
			</g>
			<line class="st1" x1="443.9" y1="642.9" x2="444.4" y2="639.2"/>
		</g>
	</g>
	<path class="st6" d="M538.3,65.8c0,0-10.4-1.3-11.6,6.1c-1,6.1,5.9,8.7,13.5,7.3s25.8-2.6,42.7-2.1c16.9,0.5,30,2.2,43,1.2
		c13-1,15.1-8.9,11.6-12.4c-3.5-3.5-9.4,0-9.4,0s1.8-8.9-6.7-13.1c-7.5-3.7-16.1,0.8-16.1,0.8s0-12.5-15.6-18.3
		c-13.2-4.8-27.3-2.9-38.5,3.5C542.7,43.6,534,54.8,538.3,65.8z"/>
	<path class="st4" d="M552.3,63.8c0,0-3-7.7,3.1-10.5c4.5-2.1,9,2.1,9.6,5.1"/>
	<path class="st6" d="M609,270.4c0,0,0,3.1,3.2,9.7c2.6,5.4,0.3,13,0,16.6s3,3.4,4,0c1-3.4,4.2-5.4,7.2-6.8
		c8.8-4.1,38.3-6.6,43.6-21.1h-27.9L609,270.4z"/>
	<path class="st1" d="M616,277.1c0,0,2.7,3.5,1.8,8.1"/>
	<path class="st1" d="M624.2,276.2c0,0,1,1.4-1.8,7.2"/>
	<path class="st1" d="M625.4,283.5c0,0,3.3-5,9.1-7.2"/>
	<path class="st1" d="M631.1,281.8c0,0,6.1-4.8,17.1-4.6"/>
	<path class="st2" d="M154.4,391.5c-1.3-8.6,14.4-10,20.2-8.5c0,0,3.3-11,18.8-9.6c0,0,2.9-12.8,14.5-13.7
		c10.1-0.8,14.5,7.7,17.3,12.5c0,0,22.9-2.6,29.1,9.7c3.3,6.5-0.5,14.2-7.8,14.3l-80.7,0.8C162.7,397.1,155.3,397.5,154.4,391.5z"/>
	<g>
		<path class="st0" d="M662.2,268.3c1.7-0.2,3.3,0.1,4.6,0.6c1.3-2.2,0.7-5.1-2.7-6.6c-0.9-0.4-1.9-0.7-2.9-1c0,0.1,0,0.2,0,0.4
			c0,3.6-5.6,6.5-12.5,6.5c-5.8,0-10.6-2-12.1-4.8c-4.6,1.4-9.6,2.9-16,3.5c-0.1,0-0.2,0-0.4,0c0.2,0.4,0.3,0.9,0.3,1.3
			c0,2.7-3.6,4.8-8.2,5c4,1.5,10.6,1.8,14.1,1c0.7-0.2,1.6-0.3,2.5-0.4c0.5-1.8,2.5-3.2,4.9-3.2c2.2,0,4.1,1.2,4.8,2.8
			c4.8,0,10,0.1,14.1,0.1c0.9,0,1.7,0,2.4,0C655.4,270.9,658.4,268.7,662.2,268.3z"/>
		<path class="st2" d="M620.6,268.1c0-0.5-0.1-0.9-0.3-1.3c-5,0.3-11.3-1.2-11.3,3c0,1.5,1.4,2.6,3.4,3.3
			C617,273,620.6,270.8,620.6,268.1z"/>
		<path class="st2" d="M633.9,270.6c-2.4,0-4.5,1.4-4.9,3.2c2.6-0.3,6.1-0.4,9.7-0.4C638.1,271.8,636.2,270.6,633.9,270.6z"/>
		<path class="st2" d="M648.8,268.1c6.9,0,12.5-2.9,12.5-6.5c0-0.1,0-0.2,0-0.4c-4.3-1.2-9.6-1.4-15.8-0.3c-3,0.6-5.8,1.4-8.8,2.4
			C638.1,266.1,643,268.1,648.8,268.1z"/>
		<path class="st2" d="M666.9,268.9c-1.3-0.5-2.9-0.7-4.6-0.6c-3.8,0.4-6.8,2.6-6.9,5.1c6.4-0.2,8.4-1.5,10.6-3.4
			C666.3,269.7,666.6,269.3,666.9,268.9z"/>
	</g>
	<g>
		<path class="st0" d="M543.6,145.7c-1.7,2.1-5.5,2.9-9.4,1.8c-4.7-1.4-7.7-5.1-6.8-8.2c0.1-0.2,0.1-0.3,0.2-0.5
			c-3.3-1.4-6.8-2.6-12.5-2.6c-6.4-0.1-15,0.8-20.7,2.7c2.3,0.8,4,2.5,4.2,4.7c0.1,1.3-0.2,2.6-1,3.6c5-0.6,10.9-0.3,18.7,2.7
			c10.1,3.9,22.5,5.9,27.7,2.5C547.1,150.2,546.3,147.8,543.6,145.7z M516.2,144.9c-2.4-0.2-4.3-1.6-4.1-3c0.1-1.4,2.2-2.4,4.6-2.2
			c2.4,0.2,4.3,1.6,4.1,3S518.7,145.2,516.2,144.9z"/>
		<path class="st2" d="M498.7,143.6c-0.2-2.2-1.9-3.9-4.2-4.7c-3.3,1.2-5.6,2.7-5.9,4.7c-0.3,1.6,0.4,5.2,4.9,4.3
			c1.3-0.3,2.7-0.5,4.2-0.7C498.4,146.1,498.8,144.9,498.7,143.6z"/>
		<path class="st2" d="M534.2,147.5c3.9,1.1,7.7,0.3,9.4-1.8c-1.8-1.4-4.5-2.6-7.4-3.5c-3.3-1-5.8-2.3-8.5-3.4
			c-0.1,0.2-0.1,0.3-0.2,0.5C526.5,142.4,529.6,146.1,534.2,147.5z"/>
		
			<ellipse transform="matrix(9.830216e-02 -0.9952 0.9952 9.830216e-02 324.0916 642.3454)" class="st2" cx="516.5" cy="142.3" rx="2.6" ry="4.4"/>
	</g>
	<path class="st1" d="M506.9,152.2c0,0,10.8,1.3,18.3,9"/>
	<path class="st1" d="M520.8,153.7c0,0,6.1,2.9,7.7,6.7"/>
	<path class="st1" d="M532.1,156.4c0,0,2.2,3.1,2.5,5.7"/>
	<path class="st1" d="M536.6,156.7c0,0,1.4,2.7,1,4.5"/>
	<g>
		<path class="st8" d="M354.6,402.4c2.7,2.5-5.8,8.8-8.9,12.2c-3.1,3.4-4.8,4.3-5.3,6.4c-0.5,2.1,2.2,2.8,0.9,5
			c-1.4,2.2-18.9,26.6-22.3,23.4c-3.3-3.2,3.5-15.1,12.6-26.8S351.5,399.5,354.6,402.4z"/>
		<path class="st8" d="M329.5,479.7c3.6,1.6-3.5,14.3-3.3,17.7s2.8,2.5,4.3-0.2c1.5-2.7,4.3-8.3,7.2-7c2.9,1.4-1.1,18.2-6.7,33.6
			c-5.6,15.3-8.4,25.3-11.4,25.1c-4.4-0.4,0.4-7.8-2.7-9c-3.1-1.2-9.6,14.4-14.2,26.6c-4.6,12.1-7.8,28.8-11.3,27.2
			c-3.5-1.5,1.9-25.3,3.4-32.8C297.9,545.1,318.7,474.9,329.5,479.7z"/>
		<path class="st8" d="M301.5,490.1c3.2,1.4-2.4,20.8-7.2,26.5c-4.8,5.7-2.8-9-0.8-14.1C295.4,497.3,298.8,488.9,301.5,490.1z"/>
		<path class="st8" d="M370.8,501.2c-3.3,6.1-7,12.9-10.5,25.9s-1.6,12.4,0,12.7s6.5-10.8,9.2-19.3c2.7-8.5,4-11.8,5.1-10.1
			c2.7,4.2,6.6-2.8,9.3-11.7C386.6,489.9,376.3,491.2,370.8,501.2z"/>
	</g>
	<path class="st7" d="M332.6,464.1c0,0,6.4,16.8,16,26.4c9.5,9.6,20.9,13.1,39.1,16.8c18.2,3.8,37.1,2.4,51.5,11.3
		c14.4,8.9,20.3,14.8,31.9,15.1c11.7,0.3,34.2,0.4,52.3-16.6c15-14.2,17.3-64.8,17.3-64.8l-83.3-4.8l-114.7,9.3L332.6,464.1z"/>
	<path class="st6" d="M331.7,459.2c-0.6,3.3,0.8,7.8,9.2,9.5c11.8,2.5,21.4,5,34.8,6.8c13.3,1.8,15.8,2.4,24.5,7.2
		c8.8,4.8,24.1,2.6,30.8-1.3c6.8-3.9,27.3-6.1,37.6-6.8c10.3-0.7,47,0,65-13.8c17.9-13.8-2-16.2-10.9-19.3s-40-7.4-60.8-6
		c-20.8,1.4-34.6-2.7-44.5-2.7c-15.1,0-28.4,1-40,5.4C364.4,443.2,334.2,445.2,331.7,459.2z"/>
	<g>
		<path class="st0" d="M352.3,286c0,0,3.4-3.6,5.6-2c2.3,1.6,0.5,10.7-7,19c-7.5,8.3-9.7,10-9.7,10s-2.5-8.3-1.9-20.4
			c0.7-12.1,3.7-17.8,7-16.8c3.2,1.1,1.2,6,1.2,6s2.4-6.4,5.6-4.7S352.3,286,352.3,286z"/>
		<path class="st4" d="M348.9,289c0,0-5.7,7.1-7.6,24"/>
	</g>
	<g>
		<path class="st2" d="M310.6,272.3c3-2.9,9.4,3,11.2,7.3c0,0-4.5-12.2,0-14.3c4.8-2.3,10.4,10.4,11,14.3c0,0-3.3-13.2,1.3-14.4
			s8.7,7.5,8.9,26.8c0.2,19.3-0.5,21.1-2,21.1c-1.5,0-3.4-4.1-7.6-9.1C328,297.4,302.5,280,310.6,272.3z"/>
		<path class="st4" d="M341.1,313c-1.8-17.5-15-31.1-15-31.1"/>
	</g>
	<path class="st6" d="M543.6,421.1c0,0,0,6.2,3.2,11.8c2.4,4.1-1,12.7-1.5,16.3c-0.4,3.6,1.9,6,4.1,2.3c2.2-3.6,4.8-9.2,13.4-10.3
		s30.5-3.8,40.8-10.3c10.3-6.5,11.3-7,11.3-7l-31-6.7L543.6,421.1z"/>
	<g>
		<path class="st0" d="M612.7,415.7c2,0,4,0.2,5.7,0.7c-2.9-4-14.8-5.3-23.1-5.9c-4.6-0.3-9.8-1.7-15.1-2.7c0,0,0,0.1,0,0.1
			c0,3.9-3.1,7-7,7s-7-3.1-7-7c0-0.4,0-0.7,0.1-1.1c-1.7,0.2-3.4,0.6-5,1.2c-4.4,1.6-8.2,3-11.1,4.6c0.5-0.1,1-0.1,1.5-0.1
			c5.5,0,9.9,3.5,9.9,7.7c0,2.6-1.6,4.9-4.1,6.3c7.2-0.9,10.7,2,16.5,0.4c5.7-1.6,15.7,1.7,23,0.6c-0.2-0.6-0.3-1.3-0.3-2
			C596.6,420.1,603.8,415.7,612.7,415.7z M586.3,423.2c-2.8,0-5-1.9-5-4.2c0-2.3,2.2-4.2,5-4.2c2.8,0,5,1.9,5,4.2
			C591.3,421.4,589.1,423.2,586.3,423.2z"/>
		<path class="st6" d="M557.4,426.5c-0.1,0-0.2,0-0.2,0c-7.4,1-13.2-1.7-13.6-5.4c-0.4-3.6,2.2-6.2,6.6-8.5"/>
		<path class="st2" d="M561.5,420.3c0-4.3-4.4-7.7-9.9-7.7c-0.5,0-1,0-1.5,0.1c-4.4,2.3-6.9,4.9-6.6,8.5c0.4,3.7,6.2,6.4,13.6,5.4
			c0.1,0,0.2,0,0.2,0C559.9,425.1,561.5,422.8,561.5,420.3z"/>
		<path class="st2" d="M573.2,414.9c3.9,0,7-3.1,7-7c0,0,0-0.1,0-0.1c-4.7-0.9-9.4-1.5-13.9-1c-0.1,0.3-0.1,0.7-0.1,1.1
			C566.2,411.8,569.3,414.9,573.2,414.9z"/>
		<path class="st2" d="M618.9,419.6c0.4-1.2,0.2-2.3-0.5-3.2c-1.8-0.4-3.7-0.7-5.7-0.7c-8.9,0-16.1,4.4-16.1,9.8
			c0,0.7,0.1,1.4,0.3,2c0.2,0,0.5-0.1,0.7-0.1C605.1,426,616.7,426.3,618.9,419.6z"/>
		<ellipse class="st2" cx="586.3" cy="419.1" rx="5" ry="4.2"/>
	</g>
	<path class="st4" d="M551.5,430c0,0,2.3,2.5,1.4,7c-0.8,4.4-2,4.8-2,4.8"/>
	<path class="st4" d="M557.6,436.4c0.5-0.6,2.9-3.2,3.7-6.4"/>
	<path class="st4" d="M563.4,435.3c0,0,3.4-3.4,5.5-4.1"/>
	<path class="st4" d="M570.4,436.4c0,0,2.2-2.6,8.2-3.2c6-0.5,9.1-0.8,10.9-3.2"/>
	<g>
		<path class="st0" d="M505.4,287.2c0,0,5.6-7.9,10.4-5.3c4.8,2.7-4.1,12.6-9.5,17.3s-15.2,15.6-16.3,18.1c-1.1,2.6-1.6-8.9,0-19.9
			s4.2-26.5,9.8-25.5c5.7,0.9,0.5,10.5,0.5,10.5s4.4-8.6,7.7-6.2S505.4,287.2,505.4,287.2z"/>
		<path class="st4" d="M501.9,287.2c-3,2-11.9,17.4-11.9,30.2"/>
	</g>
	<g>
		<path class="st2" d="M463.8,288.6c3-4.1,11.9,1.3,15,7c0,0-7.8-11.3-4.2-14.7c3.6-3.4,10.2,4.6,11.9,13.9c0,0-3.4-12.1,0.7-12.1
			c4,0,11.2,15.9,2.4,35.1c0,0-6.3-8-12.7-11.3C466.1,301,460,293.7,463.8,288.6z"/>
		<path class="st4" d="M480.8,298.3c0,0,9,5.7,8.7,19.5"/>
	</g>
	<g>
		<path class="st2" d="M436.8,535.2c-1-9.2,13-17.5,24.1-10.8c0,0-1.1-17.5,15.3-25.1c13.8-6.4,24.5,0.9,24.5,0.9
			s8.1-39.8,58.3-39.4s58.8,32.4,57.5,41.2c0,0,7.3-4.9,14-0.3c6.7,4.6,5.4,12.8,5.4,12.8s17.2-1.7,24.9,11
			c7.7,12.7,4.1,19.1-8.3,20.2c-12.3,1.2-95,4-115.7,2.6C505,546.3,438.9,554.6,436.8,535.2z"/>
		<path class="st4" d="M479.1,523.5c0,0-0.5-6,4.9-7.4c5.4-1.4,7.7,4.9,7.3,6.8"/>
		<path class="st4" d="M568,493.8c0,0,6.6-4,12.1-1c6.2,3.4,4.4,9.9,4.3,12.4"/>
		<path class="st4" d="M584.4,505.3c11.5-4.1,31.8,2.2,24.5,27"/>
	</g>
	<path class="st5" d="M485.1,645.3c-2.8,5.3-6.2,4.5-6.4,7.9c-0.2,3.4,3.1,7.7,8.6,4.8c5.5-3,12.1-18.8,17.5-44
		c5.3-25.2,7.8-42.7,25.6-52.7s55.5-24.9,52.2-30.5c-3.3-5.5-55.3,28.8-63.5,29.6s-3.5-15.6-3.2-22.4c0.4-6.8,0.3-17.7-5.1-16.3
		s1,10.8-3,27.4c-3.9,16.7-4.5,39.2-10.4,61.8C493.4,626.2,488.6,638.6,485.1,645.3z"/>
	<path class="st6" d="M505.9,635.1c-0.1-7.5,9.8-9.5,16.2-8.2c0,0,5.6-28.3,37.8-28.9c32.2-0.6,34.8,22.6,34.8,22.6s8.2-6.3,19.2-3
		c9.1,2.8,11.9,11.5,11.9,11.5s18.4-2.9,20.5,5.4c1.4,5.5-4.2,13.2-27.8,9.7c-5.8-0.9-11.8-1.1-17.6-0.6c-7.9,0.7-19.1,1.4-27.1,1
		c-13.6-0.6-16-3.7-31.9-1.9C523.6,644.7,505.9,643.8,505.9,635.1z"/>
	<path class="st5" d="M554.4,623.3c6.3,3.3-7.6,30.2-5.5,37c2.1,6.8,8.6,0.5,12.5-2.1c4-2.7,31.6-26.7,35.4-22.8
		c3.7,3.9-17.3,18.4-21.6,20.9c-4.3,2.5-20.3,11.7-26.5,15.7c-6,3.8-19,25.7-21.1,40.8c-0.2,1.4-0.9,2.6-2.1,3.2
		c-1,0.5-2.3,0.7-3.8-0.5c-5.3-4.1,1-14.6,9-26.3c7.9-11.8,12.5-27.2,13.6-34.9C545.3,646.6,549.5,620.8,554.4,623.3z"/>
	<g>
		<g>
			<path class="st2" d="M469.4,729.3l-1.6,1.5c-3.1-3.4-8.3-2-8.4-2l-0.6-2.1C459.1,726.6,465.5,724.9,469.4,729.3z"/>
		</g>
		<g>
			<path class="st2" d="M440.7,735.9l-2.1-0.5c1-4.5-3.2-8-3.2-8l1.4-1.7C436.9,725.9,442,730.1,440.7,735.9z"/>
		</g>
		<g>
			<path class="st2" d="M432.7,738.4c-0.7,0-1.2,0-1.3-0.1l0.3-2.5c0.4,0,9.8,0.9,16.5-8l2,1.5C444.1,737.5,435.9,738.4,432.7,738.4
				z"/>
		</g>
		<g>
			<path class="st5" d="M515,738.3c2.3-1.4,3.3-6.4-2-8.9c-5.3-2.6-4.9-7-11.9-8.2c-6-1.1-10.4,3.7-11.1,8.6
				c-0.6,4,1.2,10.3,11.4,8.6C511.6,736.6,511.4,740.5,515,738.3z"/>
			<path class="st4" d="M510.8,733.8c0,0-8-9.8-20.8-4"/>
		</g>
		<g>
			<path class="st5" d="M478.5,698.9c3.7,1.1,2,7.4,3.8,9.8c4.2,5.7,5.3,20.1-11.9,21.5c0,0-9.5-3.1-8.6-12.3
				c0.7-6.9,6.5-7.8,8.9-11.5S474.1,697.6,478.5,698.9z"/>
			<path class="st4" d="M476,706.4c0,0-7.1,8.2-5.6,23.8"/>
		</g>
		<g>
			<path class="st5" d="M454.2,728.6c0,0-9.9,1.4-8.3,9.6c2,10.3,13.6,3.6,17.1,7.8c2.5,3,5.4,3.9,6.9,2.9c2.7-1.8,2.7-4.8,0-7.8
				c-2.7-3,0-5.2-3-9.4S458,726.1,454.2,728.6z"/>
			<path class="st4" d="M467.6,743.7c0,0-4.6-12-16.4-14.3"/>
		</g>
		<g>
			<path class="st5" d="M427.1,695.1c3.5-2,8,0.7,9.5,7.1c1.7,7.3,6.5,5.9,6.6,14.9c0.1,7-7.3,11.4-7.3,11.4s-1-2.9-6.6-4.7
				c-5-1.6-8.2-6.5-5.7-14.2C425.5,704,421.9,698.1,427.1,695.1z"/>
			<path class="st1" d="M430.8,702.9c0,0,8.1,9.2,5.2,25.7"/>
		</g>
		<g>
			
				<ellipse transform="matrix(0.6878 -0.7259 0.7259 0.6878 -365.6476 580.6322)" class="st7" cx="492.2" cy="715.4" rx="12.9" ry="13"/>
			
				<ellipse transform="matrix(0.6878 -0.7259 0.7259 0.6878 -359.8776 581.586)" class="st9" cx="496.2" cy="709.2" rx="2.1" ry="2.1"/>
			
				<ellipse transform="matrix(0.6878 -0.7259 0.7259 0.6878 -359.8776 581.586)" class="st10" cx="496.2" cy="709.2" rx="0.6" ry="0.6"/>
		</g>
		<g>
			
				<ellipse transform="matrix(0.3735 -0.9276 0.9276 0.3735 -415.8196 849.0408)" class="st7" cx="420.7" cy="732.4" rx="14.7" ry="14.9"/>
			
				<ellipse transform="matrix(0.3735 -0.9276 0.9276 0.3735 -405.5101 850.0693)" class="st9" cx="426.6" cy="725.3" rx="2.8" ry="2.8"/>
			
				<ellipse transform="matrix(0.3735 -0.9276 0.9276 0.3735 -405.5101 850.0693)" class="st10" cx="426.6" cy="725.3" rx="0.8" ry="0.8"/>
		</g>
		<g>
			
				<ellipse transform="matrix(0.9815 -0.1914 0.1914 0.9815 -129.2169 99.6696)" class="st7" cx="451.3" cy="718.7" rx="12" ry="11.9"/>
			
				<ellipse transform="matrix(0.9815 -0.1914 0.1914 0.9815 -128.0503 99.0661)" class="st9" cx="448.7" cy="712.3" rx="1.9" ry="1.9"/>
			
				<ellipse transform="matrix(0.9815 -0.1914 0.1914 0.9815 -128.0503 99.0661)" class="st10" cx="448.7" cy="712.3" rx="0.6" ry="0.6"/>
		</g>
		<g>
			
				<ellipse transform="matrix(0.4545 -0.8907 0.8907 0.4545 -390.265 827.4802)" class="st7" cx="480.5" cy="732.4" rx="12.7" ry="12.5"/>
			
				<ellipse transform="matrix(0.4545 -0.8907 0.8907 0.4545 -388.2826 834.7537)" class="st9" cx="487.4" cy="734.4" rx="2" ry="2"/>
			
				<ellipse transform="matrix(0.4545 -0.8907 0.8907 0.4545 -388.2826 834.7537)" class="st10" cx="487.4" cy="734.4" rx="0.6" ry="0.6"/>
		</g>
	</g>
	<g>
		<path class="st2" d="M372.4,744.3c0,0-11.8-1-19.2-9.7c-7.4-8.7-7.8-14.5-5.2-17c2.7-2.5,7.7-0.8,10.4,3.2c0,0-2.1-11,3.4-11.7
			s6,10,6,10s-0.8-12.9,4.6-11.5C377.8,708.9,379.4,733.5,372.4,744.3z"/>
		<path class="st2" d="M363.8,726.5c0,0,2.5,12.6,8.5,17.8"/>
	</g>
	<g>
		<path class="st2" d="M372.4,744.3c0,0,9.9-0.3,16.2-5.8c6.2-5.5,6.9-9.5,5.5-11.4c-1.4-1.9-5.2-0.4-6,0.6c-0.8,1,5.5-7.9,2.1-10.1
			c-3.4-2.2-7.1,4.9-7.1,4.9s2.6-5.9-0.7-6.8c-3.3-0.9-8.4,3.9-9.9,11.4C370.9,734.7,372,743.1,372.4,744.3z"/>
		<path class="st2" d="M383.2,729.6c0,0-1.8,8.1-10.8,14.8"/>
	</g>
	<g>
		<g>
			<g>
				<path class="st5" d="M237.6,451.2c4.2-0.3,3.9,7.4,4.4,11.5c0.5,4.1,3.2,2.7,5.4,0c2.2-2.7,2.6-4.7,4.7-3.1
					c2.1,1.5-2.4,8.5,0,10.9c2.4,2.5,4.6-1.8,5.7,2.8c1.1,4.6-8.9,26.1-8.9,26.1s-19.5-3.1-20.5-10.4c-0.9-7.2,9-0.2,9.7-3.5
					c0.7-3.4-10-3.4-9.7-8.3c0.2-5,6.4-3,6.9-6.2c0.5-3.2-9.4-0.7-8.1-5.8s7.8,0.5,8.5-2.1C236.4,460.4,233,451.6,237.6,451.2z"/>
				<path class="st5" d="M239.4,465c0,0,7.6,21.6,9.5,34.4"/>
			</g>
			<g>
				<path class="st5" d="M248.4,498.9c0,0-6.6-19.8-2.4-23s3.9,8.7,8,6.5c4.1-2.1-1.2-17.3,3-18.2c4.2-0.9,1.6,9.5,5.2,10.5
					s8.4-18.2,13.9-14.7c5.5,3.5-6.4,13.1-3.9,16.6s11-3.1,12,2.1c1.1,5.2-18.6,6.4-17.3,10.8s8.2-1.5,8.5,3.6
					C275.7,498.2,263,500.7,248.4,498.9z"/>
				<path class="st5" d="M248.4,498.9c12.1-6,18.1-20.2,18.1-20.2"/>
			</g>
			<g>
				<path class="st5" d="M292.8,518.1c-1.5,3.2-9.7-1.2-13.4-2.8c-3.7-1.6,2.7,6.6-0.5,8.8c-3.2,2.2-10.7-10.5-13.1-10.3
					c-2.5,0.2,2.4,6.1-0.6,8.4s-14.5-16.2-16.6-23.4c0,0,25.2-11.5,27.9-5.8c2.7,5.8-8.9,4-7.9,7.4c1,3.5,17.3-7.3,20.3-1.4
					c3.1,5.9-10.7,5.3-9.7,8.2S295.5,512.3,292.8,518.1z"/>
				<path class="st4" d="M273.1,508.6c0,0-14.6-4.9-24.6-9.9"/>
			</g>
			<g>
				<path class="st5" d="M241.6,541.8c-3.3-0.5-1.6-6.7-1.2-10.5c0.4-3.8-5.8,1-7.3-1.9c-1.6-2.9,7.7-8,6.7-10.5
					c-1.1-2.5-6.6,5.4-7.7,1.7c-1.1-3.7,15.4-12.7,16.6-21.8c0,0,9.4,8.9,12.7,16.9c2.8,6.7-2,7.5-3.5,5c-1.2-2-4.3-2.1-3.2,1.4
					c1.1,3.4,3.5,10.6,0.8,11.5c-2.8,0.9-3.9-6.4-6.9-4.4C245.4,531.1,248.4,542.8,241.6,541.8z"/>
				<path class="st4" d="M247.6,525.9c0,0,6.1-12.2,1-27.1"/>
			</g>
			<g>
				<path class="st5" d="M205,503c-0.4-3.3,6.1-3.2,9.9-3.8c3.8-0.6-2.5-5.3,0-7.6c2.4-2.3,9.7,5.4,11.9,3.8c2.1-1.7-6.9-5-3.6-7
					c3.3-2,16.2,11.7,25.3,10.5c0,0-6.2,11.3-13.1,16.6c-5.8,4.4-7.8,0-5.7-2.1c1.7-1.7,0.9-4.7-2.2-2.7s-9.4,6.1-10.9,3.7
					c-1.5-2.5,5.2-5.5,2.5-7.8C216.3,504,205.8,509.9,205,503z"/>
				<path class="st4" d="M221.9,504.8c0,0,13.3,2.8,26.5-6"/>
			</g>
		</g>
		<g>
			<g>
				<path class="st5" d="M196.3,482.2c0,0,11.9,8.5,16.2,15.1c4.3,6.6,7.7,3.8,6.8,0.7c-0.9-3.1-5.1-6.9-2.2-8.4
					c2.9-1.4,5.2,11.1,10.2,6.9c4.9-4.2-5.8-7.3-3.1-10.3c2.6-3,14.6,4.7,17-2.7c2.3-7.4-16.8-3-17-6s9.5-4.6,7.7-8.5
					c-1.8-3.9-12,4.4-15.7,3.1c-3.7-1.3,6.8-6.4,3.4-9.5C216.2,459.5,205.2,465,196.3,482.2z"/>
				<path class="st4" d="M223.9,480.2c0,0-16.9-5.2-27.6,2"/>
			</g>
			<g>
				<path class="st5" d="M173.7,521.5c-4.7-3,5.1-7.5,3.8-10.6c-1.3-3.1-5.8,3-7.9-1c-2.2-4,9.6-7.7,8.8-11.1
					c-0.8-3.4-5.1-0.5-5.6-3.8c-0.5-3.3,15-12.3,23.8-13.4c0,0,5,9.5,5.8,15.8s0.8,11.1-2.3,12.6c-3.2,1.5-3.2-3.8-6.3-2.9
					c-3.2,1,0.9,10.5-3.5,11.7c-4.1,1.2-3.1-4.6-5.8-4.7S176.3,523.1,173.7,521.5z"/>
				<path class="st4" d="M196.7,481.6c-1,9.8-14.2,24.5-14.2,24.5"/>
			</g>
			<g>
				<path class="st5" d="M196.8,481.6c0,0-4.4-7.4-9.7-12s-6.8-4.9-8.2-3.2c-1.4,1.7,1.6,4.1,0.3,6s-7.3-4.4-10-8.2
					s-6.2-7.6-8.7-6.1c-2.5,1.5,2.8,5.2,0.9,7.6s-4.9-0.2-9.2-2.8s-7.2-1.6-7.9,0.3c-2.5,6.2,14.6,8.5,12.8,12.6
					c-0.9,2.1-3.2,3.9-0.7,6.3c2.5,2.4,8.3-1.9,12.6-0.5c4.3,1.4-3.5,4.5-1.5,7.3C169.7,491.7,183.8,492,196.8,481.6z"/>
				<path class="st4" d="M162.1,471.5c0.3,0.3,15.1,9.3,34.7,10.1"/>
			</g>
			<g>
				<path class="st5" d="M218.8,513.9c-2.4,1.8-5.2-3.3-7.3-6c-2.1-2.7-3,4.2-5.8,3.4c-2.8-0.9-0.1-9.9-2.3-10.8
					c-2.2-0.9-0.9,7.5-3.9,5.9c-3-1.6,1.9-17.6-3-24.2c0,0,11.5-0.2,18.5,2.9c5.9,2.5,3.4,6,0.9,5.3c-2-0.5-4,1.4-1.2,2.9
					c2.9,1.5,8.9,4.6,7.6,6.8s-6.5-1.6-7.1,1.5C214.7,504.7,223.8,510.2,218.8,513.9z"/>
				<path class="st4" d="M212.8,500c0,0-3.7-11.5-16.2-17.8"/>
			</g>
			<g>
				<path class="st5" d="M193.5,433.6c3.5-0.2,3.4,9.1,3.7,13.2c0.3,4.1,4.6-5.4,8-3.6c3.4,1.8-4.4,14.3-3,16.4
					c1.4,2.1,4.3-5,7.7-3.3c3.4,1.7-7.6,20.3-13,25.5c0,0-21.9-16.9-18.1-22s7.6,6,10.3,3.5s-14.5-11.9-10.7-17.4s9.7,7,11.8,4.8
					C192.3,448.6,187.1,433.9,193.5,433.6z"/>
				<path class="st4" d="M194.2,455.5c0,0,2.5,15.2,2.7,26.3"/>
			</g>
		</g>
		<g>
			<path class="st6" d="M186.7,588.6c0,0,2.5,22-1.9,42.3s-10.9,63.7-4.9,83h48.6c0,0,8.8-29.4,0-76.9c-8.8-47.5-16.7-50-16.7-50
				L186.7,588.6z"/>
			<path class="st4" d="M190.6,620.2c0,0,3.2,3.9,8.3,3.2"/>
			<path class="st4" d="M208.6,625.3c0,0,6.7,2,12.2-3.4"/>
			<path class="st4" d="M198.3,631.4c0,0,5,2.3,10.4,0.7"/>
			<path class="st4" d="M191.9,636.2c0,0,1.6,2.3,5.2,1.5"/>
			<path class="st4" d="M190.6,650.4c0,0,1.9,1.8,3.9,1.2"/>
			<path class="st4" d="M211.7,648.1c0,0,8.9,0.7,13-4.4"/>
			<path class="st4" d="M210.3,664c0,0,7,0.6,11.6-4.2"/>
			<path class="st4" d="M194.7,672.4c0,0,4.4,2.6,9.5,1.3"/>
			<path class="st7" d="M200.9,653.4c4.1-0.1,5.9,7.9,3.3,11.4c-2.5,3.5-8.5,3.8-9.5-0.8S196.1,653.5,200.9,653.4z"/>
			<path class="st7" d="M208.6,638.1c1.7-0.4,3.5,1.3,3,3.1c-0.4,1.6-2.8,2.5-4.1,1.2C205.9,640.6,207,638.5,208.6,638.1z"/>
		</g>
		<g>
			<path class="st2" d="M213,593.2c3.1,0.9,8.9,0.2,12.5,2.9c3.5,2.7,7,0.5,6.4-2.9c-0.6-3.4-0.4-11.5-6.5-16.5
				c-5.9-4.8-15-6.6-19.3-1.2C202.6,579.9,202.1,589.8,213,593.2z"/>
			<path class="st4" d="M222.1,582.4c0,0,4,2.7,5.1,8.8"/>
			<path class="st4" d="M219.7,589.5c0.5,0.4,1.6,2.4,4.4,2.5"/>
		</g>
		<g>
			<path class="st2" d="M179.1,574.2c-4.5,4.4-5.7,9.6-3.6,17c2.1,7.4-0.2,6.9,0.7,9.3s4.1,4,8.6-1.1c4.5-5.1,10.4-9.7,10.4-21
				C195.2,571.3,185.2,568.3,179.1,574.2z"/>
			<path class="st4" d="M179.9,592c0,0-0.9-11.3,4.9-15.4"/>
		</g>
		<g>
			<path class="st5" d="M181.8,518.8c3.5-3.9-7.1-7-7.3-10.4c-0.1-3.4,6.4-2.3,6.7-6.1s-12.3-0.7-13.4-3.8c-1.1-3.1,5.5-1.8,5.4-4.9
				c-0.1-3.1-14.5-9-26.2,1.7c0,0,8.6,11.2,14.2,15.2c5.6,3.9,7.1,3.6,10.6,4.3C175.3,515.5,178.8,522,181.8,518.8z"/>
			<path class="st4" d="M170.6,507.8c0,0-7.8-11.3-23.6-12.5"/>
		</g>
		<path class="st6" d="M196.9,480.5c5.9-0.6,8.5,60,15.7,70.4l-16.6,1.5c0,0,4-22.1,2.7-38.8C197.2,495.3,193.3,480.9,196.9,480.5z"
			/>
		<path class="st6" d="M249.2,499.1c2.6,4.2-30,29.6-31.3,53.3l-11.6-0.9C212.5,526.5,245.5,493.3,249.2,499.1z"/>
		<g>
			<path class="st5" d="M121.1,458.9c4.7-2.9,4.5,7.9,7.9,8.1c3.3,0.2-0.2-6.5,4.3-6.7c4.5-0.2,2.8,12,6.1,12.8s2.7-4.3,5.9-3.3
				s4.5,18.9,1.7,27.2c0,0-10.7,0.4-16.7-1.7c-6-2-10.3-4.1-10.3-7.6s4.8-1.2,5.4-4.4c0.5-3.3-9.8-3.8-9-8.2
				c0.8-4.2,5.5-0.8,6.8-3.1S118.6,460.4,121.1,458.9z"/>
			<path class="st4" d="M147,496.9c-8.3-5.2-15.9-23.5-15.9-23.5"/>
		</g>
		<g>
			<path class="st5" d="M178.8,465c2.4,2.4-2.8,6.3-5.4,9.1c-2.6,2.8,5.2,2.7,4.7,5.9c-0.5,3.3-11,1.8-11.6,4.4
				c-0.6,2.6,8.5-0.3,7.2,3.3s-19.9,0.9-26.4,7.5c0,0-2.1-12.7,0-21.1c1.8-7,6.1-4.8,5.8-1.9c-0.3,2.3,2.2,4.3,3.4,0.8
				c1.1-3.4,3.5-10.6,6.3-9.6c2.7,1-0.7,7.5,2.9,7.7C169.3,471.2,173.9,460.1,178.8,465z"/>
			<path class="st4" d="M164.4,474.1c0,0-12.2,6.1-17,21.1"/>
		</g>
		<g>
			<path class="st5" d="M92.4,520.1c-2.1-2.8,1.5-6.1,5.7-7.7c3.5-1.3,5.5-2,4.5-4c-1-2-5.7-2.5-4.6-5.4c2-4.9,15,1.5,16.3-2.8
				c1-3.3-4.7-2.9-3.9-6.6c0.8-3.7,20.2-6.6,38.1,2.4c0,0-6.4,11.3-16.2,16s-9.3-2.4-12.1-1.4c-2.8,1-6.3,12.7-10.8,12.6
				c-5.8-0.1-0.8-6.6-4-7.1S95.8,524.6,92.4,520.1z"/>
			<path class="st4" d="M148.5,496c-16.5-2-30.5,9.2-30.5,9.2"/>
		</g>
		<g>
			<path class="st5" d="M147.4,495.3c0,0-39.9,12.5-31.1,23.4c1.9,2.3,7.9-0.5,8,2.5c0.1,3.1-15,5.5-16.4,10.4
				c-1.4,5,3.1,5.5,4.8,5.7c1.8,0.3,2.5,2.2,1.7,3.5c-0.9,1.3-8.2,5.7-6.8,10.4c1.4,4.7,6,1.9,9.1-2s5.7-4.1,7-1.7s0.3,7.2,4.5,6.2
				c4.2-1.1,5.5-6.7,6.3-16.2s3.4-8.3,5.2-6.2c1.8,2,5.5,3.7,6-0.9C146.2,525.8,148.2,499,147.4,495.3z"/>
			<path class="st4" d="M130.6,524.6c0,0,1.3-13.5,16.8-29.3"/>
		</g>
		<g>
			<path class="st5" d="M147,495.3c0,0-3.6,7.8-4.6,14.8c-0.9,7-0.3,8.4,1.9,8.6c2.2,0.2,2.5-3.6,4.8-3.6c2.3,0,0.4,8.5-1.2,12.8
				c-1.6,4.3-2.9,9.4-0.2,10.6s2.8-5.3,5.8-5s2.6,4.2,2.8,9.2c0.3,4.9,2.7,6.8,4.6,6.4c6.5-1.4-1.1-16.8,3.3-17.6
				c2.2-0.4,5,0.5,5.6-2.9s-6.2-5.8-7.4-10.2s5.7,0.4,6.9-2.8C170.5,512.2,162.9,500.3,147,495.3z"/>
			<path class="st4" d="M157.9,529.7c0.1-0.4-0.7-17.7-10.9-34.4"/>
		</g>
		<path class="st6" d="M147.2,495.5c0.7-5.1,37.1,20.6,48.6,52.9l-12.5,2.8c0,0-0.6-19.6-18.4-37.6
			C147.2,495.5,146.9,497.1,147.2,495.5z"/>
		<g>
			<path class="st0" d="M201.2,562.3c6.5-0.5,13.4,4.2,14.9,21.4s-3.8,21.6-4.5,27.5c-0.6,4.3-5.5,5.3-7.9,1.4
				c-3.1-4.9-13.7-6-14.7-20.9S192.2,563,201.2,562.3z"/>
			<path class="st4" d="M198.9,577.4c0,0-3,14.7,3.6,24.1"/>
			<path class="st4" d="M207,579.9c0,0,4.9,8.5,2.6,22.6"/>
		</g>
		<g>
			<path class="st2" d="M201.8,554.1c4.3-7.5,19.1-9,29.4,0.6c11,10.2,7.7,17.6,10.1,22c2.4,4.4-0.2,7.6-5,6
				c-4.8-1.6-17.1-2.1-24.8-7.2C203.9,570.4,196.8,562.8,201.8,554.1z"/>
			<path class="st4" d="M211.7,555c0,0,14.1,0,23.2,12.5"/>
			<path class="st4" d="M210.3,562.3c0,0,6.7,12,18.9,13.2"/>
		</g>
		<g>
			<path class="st0" d="M202.6,547.2c7.4,6.8,1.5,22.2-10,29.4c-11.5,7.2-18.6,6.9-21.6,8.8c-4.2,2.7-7.2,1.5-6.1-2.9
				c1.4-5.8,0-16.3,5.8-25.8C175.4,548.7,190.9,536.4,202.6,547.2z"/>
			<path class="st4" d="M171.7,573.7c0.2-0.8,4.1-18.8,19.2-22.8"/>
			<path class="st4" d="M195.9,556c0,0-5.8,14.9-18.4,20.7"/>
		</g>
	</g>
	<path class="st5" d="M556.1,119.1c0,0-1.3,3.1-3.2,5.2c-2,2.1,0.8,3.9,4.2,0.7c3.4-3.2,4.1-4.9,4.6-7.6c0.6-2.7,2.9-10.6,9.4-16.8
		s7.7-6,11.2-12.4s10.2-4.3,16.1-11.7c5.9-7.4,5.8-8.3,4.6-9.5c-1.2-1.3-9.5,10.2-12,11.1c-2.5,0.8-3.6,0.3-2.1-3.4
		c1.5-3.6,5.5-8.4,3.5-10.1c-2-1.7-9.7,15.4-14.4,20.6c-4.7,5.2-8.1,9.2-10.2,7.9c-2.1-1.3,0.8-8,0.1-12.5s0.8-15.8-1.7-16.1
		c-2.5-0.3-2.2,6-2.1,10.8c0.1,4.8,0.6,11,0,16.9C563,102.5,559.6,106.6,556.1,119.1z"/>
	<path class="st5" d="M574,149.2c0,0-2,2.3,0,4.9s6.2-1.5,8.2-3.9c2-2.4,12-14.1,12-14.1s12.1-2.5,20.9-11.7
		c9.1-9.6,16-21.9,17.5-24.9c1.4-3-1.4-3.6-3.2-0.8c-1.8,2.8-11.4,18.1-20.5,24.9c-9,6.8-4-0.4-2.6-2.6s6.2-10,8-16.9
		c1.8-6.8,2.3-8.7,0.3-9.1c-2.2-0.4-7.1,19-9.1,19.5c-2,0.6-0.1-15.7-2.5-15.8c-1.4,0-1.4,0.7-1.6,4.3s0.1,11.5,1.6,14.7
		c0,0-7.2,11.2-12.6,17.1C582.4,143.4,576.3,146.8,574,149.2z"/>
	<g>
		<path class="st0" d="M306.4,422.5c0,0,5.7-4.2,7.7-1.3c2,2.9-4.3,16-19.7,19.5c0,0-4.5-9.8-1.2-20.6c2.9-9.5,8.6-4.8,6.6-1
			c0,0,3.7-8.2,7.6-5.1C310.2,416.1,306.4,422.5,306.4,422.5z"/>
		<path class="st1" d="M302.6,422c0,0-6.2,6-8.1,18.7"/>
	</g>
	<g>
		<path class="st2" d="M277,428.2c0,0-10.5-4.2-12.6,0c-2,4.2,16.1,12.8,30.5,12.6c0,0-1.4-10.8-3.7-15.9c-2.6-5.8-5.2-10.7-8.2-9.7
			c-3.9,1.4,1,8.8,1,8.8s-7.9-12.4-11.9-9.3C268.1,417.7,277,428.2,277,428.2z"/>
		<path class="st1" d="M295,440.8c-5.6-9.6-15.3-15-15.3-15"/>
	</g>
	<g>
		<path class="st6" d="M315.2,571.6c0,0,9.7,14.7,28,21c18.3,6.3,26.6,19.4,28.3,23c1.7,3.6,2.9,5,5.7,4.1c2.7-0.9,3.1-4.6,1.4-11.3
			c-1.7-6.7,0.9-11.7,4.6-15.1c3.8-3.4,18.4-16.2,21.5-22.9l-29.4-5h-36L315.2,571.6z"/>
		<path class="st4" d="M339.1,581.9c0,0,5.7,3.6,11.6,6.3c6,2.7,12.6,8.8,15.6,14"/>
		<path class="st4" d="M352.7,581.1c0,0,13.6,6.6,17.8,20"/>
		<path class="st4" d="M368.6,577.6c0,0,1.9,12,5.7,16.7"/>
		<path class="st4" d="M380.9,580.2c0,0-3.2,7.4-2.8,14.1"/>
		<g>
			<path class="st0" d="M392.8,565.4c-5.5-2.2-6.5-6.8-6.7-9.4c-5.8-0.2-11.8,0.4-21.5-2.3c-5.2-1.5-11.3-2.4-17.2-2.6
				c-0.1,2.5-3.6,4.5-7.9,4.5c-3.7,0-6.8-1.5-7.7-3.5c-3.7,0.7-6.9,1.8-9.1,3.2c-1.6,1.1-4.6,3.4-6.6,5.8c1.4-0.8,2.9-1.2,4.6-1.2
				c5.2,0,9.4,4.2,9.4,9.4c0,2.7-1.1,5.1-2.9,6.8c7.1,1.4,14.7,2.3,21.3-0.8c8.1-3.7,15.1-4,22.7-2.5c1.1-2.7,4.2-6.9,12.3-6.1
				c8.3,0.8,11,5.1,11.9,7.9c3.1-0.4,5.8-1.1,7.5-2.2c1.7-1.1,2.5-2.7,2.5-4.4C402.3,568.3,397.9,567.4,392.8,565.4z M365.7,566.7
				c-2.6,3.2-22.2,0.6-22.8-3.8c-0.4-2.7,5.9-5.3,14-3.7S368.2,563.5,365.7,566.7z"/>
			<path class="st2" d="M330,569.4c0-5.2-4.2-9.4-9.4-9.4c-1.7,0-3.2,0.4-4.6,1.2c-0.9,1.1-1.7,2.2-2,3.2c-1.5,4.6,1.1,9.1,6.4,10.3
				c2.1,0.5,4.3,1,6.6,1.5C328.8,574.4,330,572,330,569.4z"/>
			<path class="st2" d="M339.5,555.6c4.3,0,7.8-2,7.9-4.5c-5.6-0.2-11,0.1-15.6,1C332.7,554.1,335.8,555.6,339.5,555.6z"/>
			<path class="st2" d="M383.4,566.8c-8.1-0.8-11.1,3.4-12.3,6.1c0.6,0.1,1.3,0.3,1.9,0.4c5.8,1.4,15.2,2.3,22.3,1.4
				C394.4,571.9,391.6,567.6,383.4,566.8z"/>
			<path class="st2" d="M356.9,559.3c-8.2-1.6-14.4,1-14,3.7c0.6,4.3,20.3,6.9,22.8,3.8C368.2,563.5,365,560.9,356.9,559.3z"/>
			<path class="st2" d="M394.4,557.2c-2.9-0.8-5.6-1.1-8.3-1.1c0.1,2.6,1.2,7.2,6.7,9.4c5,2,9.5,2.9,12.5,2.7
				C405.4,564,401,559,394.4,557.2z"/>
		</g>
	</g>
	<g>
		<path class="st2" d="M235.3,599.8c2.7-1.4,6.5,2.1,6.9,6.3c0,0,0-10.2,2.5-10.8c2.5-0.7,5.1,3.3,5,6.3c0,0-1-8.3,2.4-8.4
			s13.5,13.6-4.8,55.6c0,0-6.9-18.3-10.1-29.5C234,608,232.3,601.4,235.3,599.8z"/>
		<path class="st1" d="M247.1,605.6c0,0,4.8,13.4,0.2,43.1"/>
	</g>
	<g>
		<path class="st0" d="M515.7,403.3c2.6,0.8,2,5.7-1.7,12.9c-3.7,7.2-4.2,25.9-2,29.7c0,0-9.6-7.9-12.9-20.7
			c-3.3-12.8-0.1-22.2,3.3-22.6c3.4-0.4,4,6,4,6s-0.3-7,2.5-7c2.8,0,2.4,6.1,2.4,6.8S512.3,402.3,515.7,403.3z"/>
		<path class="st3" d="M506.4,412.5c0,0-5.9,17,5.7,33.3"/>
	</g>
	<g>
		<g>
			<polygon class="st8" points="455.2,417.6 464.7,443.7 471.7,442.1 465,414.3 			"/>
			<path class="st11" d="M464.7,443.7c0,0-4.2,2.3-3.7,4.2c0.3,0.9,3.7,0.3,7.1-2.1c3.8-2.7,3.6-3.7,3.6-3.7L464.7,443.7z"/>
			<polygon class="st8" points="484.2,414.3 477,445.1 471.7,445.1 463.5,409.7 			"/>
			<path class="st11" d="M471.7,445.1c0,0-4.4,3.6-3.1,5c1.8,2,8.5-5,8.5-5H471.7z"/>
		</g>
		<path class="st8" d="M430.7,353.4c0,0-9.4,13.6-8.4,25c0.3,4.1,4.2,9.6,11.8,6.7c7.6-2.8,7.1-29.1,5.5-31.8H430.7z"/>
		<g>
			<path class="st0" d="M440.7,327.3c0,0-5,12.5-10.6,18.9c-5.6,6.4,7.8,12.6,10.6,10.6c2.8-2.1,9.3-22.4,5.4-29.5
				S440.7,327.3,440.7,327.3z"/>
			<path class="st4" d="M433.6,341.4c0,0,4.2,5.6,11.5,5.7"/>
			<path class="st4" d="M431.1,345c0,0,4.1,8,11.9,7.9"/>
			<path class="st4" d="M431.8,354.3c0,0,9.5-6.3,13.2-28.7"/>
		</g>
		<path class="st2" d="M456,303.3c0,0,29.2,9.7,49.1,39.9c19.2,29.1,20.5,58.7,20.5,58.7c-8,12.9-48.3,20.7-88.9,13.3
			c0,0-2.9-81.1,9.4-107.3L456,303.3z"/>
		<path class="st7" d="M415.5,383.1l4.6,27.4c0.3,1.5,1.4,2.7,2.9,3.1c5.3,1.2,18.1,2.5,27.2-9.3c0.9-1.2,1-2.9,0.2-4.2l-14.8-25.1
			L415.5,383.1z"/>
		<path class="st7" d="M437.1,380.4c2-2.4,6.6-0.3,8.9,2.2c2.3,2.5,5,7.2,4.5,12.2c-0.3,3.6-2.1,8.3-4.9,7.8c-2.9-0.5-1.5-3-0.7-4.2
			s1-4.7-0.4-8.3c-1.4-3.6-3.9-4.6-5.7-5.1C436.4,384.3,435.8,381.8,437.1,380.4z"/>
		<path class="st7" d="M444.3,312.5c-1.5,0.8-2.3,3.7-1,6.4c2.8,6.2,14.2,29.8,24.9,40.1c12.7,12.1,23.9,20.2,29.3,22.6l2.1-2.9
			c0,0-15.9-11-25.2-21.6c-9.7-11-17.9-23.1-23.1-33.1C446.9,315.6,445.7,312.9,444.3,312.5z"/>
		<path class="st7" d="M498.6,383.8c0,0,0,6.6,0,8.1c0,2,0.3,4.4,2.4,4.3s9.6-0.9,10.7-1.2s2.7-0.6,2.9-3.1
			c0.2-2.4,0.1-10.3,0.1-10.3L498.6,383.8z"/>
		<path class="st2" d="M506,385.8v2.8c0,0.7,0.6,1.3,1.4,1.2l0.7-0.1c0.6-0.1,1-0.6,1-1.2v-3.4L506,385.8z"/>
		<path class="st7" d="M511.4,376.9c0,0-4.5-30.3-14.4-44.4c0,0,4.9,4.8,8.2,10.7c2.5,4.5,7.6,22.9,8.7,31.8
			C513.9,375,513.5,379,511.4,376.9z"/>
		<path class="st8" d="M464.6,358.5c0,0-9.9,13.2-16.6,15.9c-6.7,2.7-8.7,2.5-8.4,4.9c0.3,2.4,4.5,1.5,6.2,1.5s2.2,2,0.7,3
			c-1.5,1-5.7,4.7-3.9,9.2c1.8,4.5,6.4,7.6,16.5,2.9c10.1-4.7,19.8-15.8,23.8-28.5L464.6,358.5z"/>
		<path class="st7" d="M415.5,383.1c-0.5-2.2,4.3-5.4,8.1-7c3.7-1.6,11.2-3.1,12.1-1.1s-3,5.5-8.5,8.1
			C421.6,385.6,416,385.3,415.5,383.1z"/>
		<path class="st7" d="M392.9,395.8c3.3-2,6,1,12.7,0.7c6.7-0.3,11.1-2.4,13.3-2.7c4-0.5,4.8,5.6,0,6.3c-4.8,0.7-11.8,4-14.8,8.1
			c-3,4.1-6.1,3.4-9.1,0.6C392,406,388.5,398.5,392.9,395.8z"/>
		<path class="st4" d="M396.9,398.3c0,0,3.9,2.5,3.7,7.9"/>
		<path class="st8" d="M449.4,308c0,0-1.2,8.7,3.4,8.1c4.6-0.5,2.3-10.1,1.5-11.6c-0.8-1.5-2.2-3-2.2-3l-3.6,3L449.4,308z"/>
		<g>
			<path class="st0" d="M474.8,322.4L474.8,322.4c1.1,0,2.1,0.3,2.9,1c4.4,3.4,17,15.8,11.4,43.7c-0.3,1.6-2,2.6-3.5,2.1
				c-6-2-17.6-6.5-22.6-12.3c-1.7-1.9-1.2-4.9-0.2-6.5c6.1-9.9,5-20.3,8-25.8C471.5,323.2,473.1,322.4,474.8,322.4z"/>
			<path class="st4" d="M471.9,334.7c0,0,12.7-0.3,17.1,7.1"/>
			<path class="st4" d="M468.1,341.8c0,0,15.5,0.1,22.4,9.4"/>
			<path class="st4" d="M465.5,348.9c0,0,17.6,4.1,24.6,12.1"/>
			<path class="st4" d="M475.1,326.8c0,0,4.2,22.3-5.1,35.7"/>
			<path class="st4" d="M480.5,331.5c0,0,6.6,19.5,0.5,36.1"/>
		</g>
		<polygon class="st7" points="448.5,284.6 451.6,278.6 454.7,280.6 452,286.2 		"/>
		<path class="st11" d="M447.5,271.3c-0.2-2.4,0.5-6.7,5.5-8c6.4-1.6,9.3,3.4,9.7,6.2c0.4,2.8,0.6,4.2,2.7,4.1s4.5,2.2,2.6,5.5
			c-1.8,3.3-7.4,5.2-12.9,2.4C449.7,278.9,447.9,275.4,447.5,271.3z"/>
		<path class="st4" d="M378.5,408.1c0,0,4.8-8.2,16-7.4"/>
		<path class="st4" d="M382,421.8c0,0,0.8-14.5,14.3-17.4"/>
		<path class="st4" d="M397.6,408.1c0,0-8,7.9-7.3,17.7"/>
		<g>
			<path class="st8" d="M457.3,294.5c-0.3-1.2-0.7-2.4-1.3-3.4c-1.8,4.7-6,1.4-6,1.4c-2.2,4.3-5.9,1.1-5.9,1.1
				c-1.1,3.3-4.9,2.3-4.9,2.3c0.1,1,0.2,2.1,0.5,3.1c1.7,6.6,7,11,11.9,9.8C456.4,307.5,459,301.1,457.3,294.5z"/>
			<path class="st11" d="M444.1,293.5c0,0,3.6,3.2,5.9-1.1c0,0,4.2,3.3,6-1.4c-2.3-4.6-6.6-7.4-10.6-6.4c-4.1,1-6.6,5.7-6.3,11.1
				C439.2,295.8,443.1,296.7,444.1,293.5z"/>
		</g>
		<ellipse transform="matrix(0.9694 -0.2454 0.2454 0.9694 -60.3025 118.615)" cx="445.8" cy="301.3" rx="0.5" ry="1.1"/>
		<ellipse transform="matrix(0.9694 -0.2454 0.2454 0.9694 -60.0612 119.1866)" cx="448.2" cy="300.6" rx="0.5" ry="1.1"/>
		<path class="st5" d="M497,380.2c0.5-1,1.3-1.8,4-1.5c3.2,0.3,7.7,0,10.8-2.5c2.7-2.1,5.3-0.3,4.5,2.4c-0.4,1.4-2.7,5.8-8.6,7.2
			C501.1,387.2,495.7,382.7,497,380.2z"/>
	</g>
	<g>
		<g>
			<path class="st5" d="M510.8,321.1c0-1.2,0.1-2.3,0.3-3.4c0.2-1.1,0.4-2.3,0.7-3.4c0.3-1.1,0.7-2.2,1.1-3.3c0.4-1.1,1-2.2,1.7-3.2
				c0.7-1,1.4-2,2.4-2.8c0.9-0.8,2-1.5,3.3-2c1.2-0.5,2.5-0.7,3.8-0.7c0.7,0,1.4,0.1,2,0.3c0.7,0.2,1.3,0.5,1.9,0.9
				c1.2,0.7,2.1,1.7,2.8,2.7c0.7,1,1.3,2.1,1.8,3.2c1,2.2,1.6,4.5,2.1,6.8c0.5,2.3,0.8,4.6,1,6.9c0.1,1.2,0.2,2.3,0.2,3.5
				c0.1,1.2,0.1,2.3,0,3.5h-1.8c-0.1-2.2-0.3-4.5-0.5-6.7c-0.3-2.2-1.3-4.4-1.8-6.6c-0.5-2.2-1.1-4.3-1.9-6.3
				c-0.4-1-0.9-1.9-1.5-2.8c-0.6-0.8-1.3-1.6-2-2.1c-0.8-0.5-1.6-0.8-2.5-0.9c-1,0-2,0.1-2.9,0.4c-1.9,0.6-3.5,2-4.9,3.7
				c-1.3,1.7-2.4,3.7-3.2,5.8C512.1,316.7,511.4,318.9,510.8,321.1z"/>
			<path class="st5" d="M519.6,294.7c1.2-0.3,2.6-0.2,3.8,0.1c0.6,0.2,1.3,0.4,1.9,0.6c0.3,0.1,0.6,0.3,0.9,0.4
				c0.3,0.2,0.6,0.3,0.9,0.5c1.1,0.7,2.1,1.7,3,2.6c0.9,1,1.6,2.1,2.2,3.3c0.6,1.2,1.2,2.4,1.6,3.6c0.4,1.2,0.8,2.5,1.1,3.7
				c0.6,2.5,0.9,5.1,0.9,7.6l-2.5,0.2c-0.4-2.4-0.7-4.8-1.3-7.2c-0.5-2.3-1.2-4.7-2.2-6.8c-0.5-1.1-1-2.1-1.7-3.1
				c-0.6-1-1.4-1.9-2.3-2.7C524.3,296.2,522.1,295,519.6,294.7z"/>
			<path class="st5" d="M533.5,326.6c-0.1-1-0.2-1.9-0.2-2.8c0-0.9-0.1-1.9,0-2.8c0-1.9,0.1-3.8,0.3-5.6c0.2-1.9,0.5-3.8,1-5.6
				c0.5-1.9,1.2-3.7,2.3-5.5c0.6-0.9,1.3-1.7,2.1-2.4c0.9-0.7,1.9-1.2,3.1-1.4c0.6-0.1,1.1-0.1,1.7-0.1c0.5,0,1.1,0.1,1.6,0.2
				c1.1,0.2,2.1,0.7,2.9,1.3c0.4,0.3,0.8,0.7,1.2,1c0.3,0.4,0.7,0.8,0.9,1.2c0.6,0.8,1,1.7,1.3,2.6c0.3,0.9,0.6,1.8,0.7,2.8
				c0.1,0.5,0.1,0.9,0.2,1.4c0,0.5,0,0.9,0,1.4c-0.6-1.8-1.3-3.5-2.2-5c-0.9-1.5-2-2.8-3.4-3.6c-0.7-0.4-1.4-0.6-2.1-0.8
				c-0.4-0.1-0.8-0.1-1.1-0.1c-0.4,0-0.7,0-1.1,0.1c-0.7,0.2-1.3,0.5-1.8,1c-0.3,0.2-0.5,0.5-0.8,0.8c-0.2,0.3-0.5,0.6-0.7,1
				c-0.8,1.4-1.4,3-1.8,4.7c-0.4,1.7-0.7,3.5-0.9,5.2c-0.4,3.5-0.6,7.2-0.6,10.8L533.5,326.6z"/>
			<path class="st5" d="M546.2,325.5c-1-0.2-2.1-0.1-3.1,0.2c-1,0.3-2,0.7-2.8,1.3c-0.9,0.6-1.6,1.3-2.3,2.1
				c-0.7,0.8-1.3,1.6-1.8,2.4c0,0.1-0.1,0.2-0.1,0.2c0,0,0,0,0,0l0-1.6c0-0.6,0-10.9,0.1-14.9c0.1-4,0.1-7.9-0.1-11.9
				c-0.1-2-0.2-4-0.4-5.9c-0.2-2-0.4-4-0.8-5.9c-0.4,2-0.6,4-0.8,5.9c-0.2,2-0.3,4-0.4,5.9c-0.2,4-0.2,7.9-0.1,11.9c0,0,0,0.1,0,0.1
				c-0.1-0.1-0.1-0.2-0.2-0.3c-0.6-1.1-1.5-2.1-2.6-2.8c-1.1-0.8-2.5-1.2-3.8-1.2c-1.3,0-2.5,0.2-3.7,0.6c-1.2,0.4-2.3,1.1-3.2,1.9
				c-0.9,0.8-1.7,1.8-2.2,2.8c-0.6,1-1,2.1-1.3,3.2c-0.3,1.1-0.5,2.2-0.4,3.3c0.4-1,0.8-2,1.4-3c0.5-0.9,1.1-1.8,1.7-2.6
				c0.6-0.8,1.4-1.5,2.2-2.1c0.8-0.6,1.7-1,2.6-1.2c0.9-0.3,1.9-0.4,2.8-0.3c0.9,0,1.7,0.3,2.3,0.8c1.4,1,2.3,2.8,3,4.7
				c0.6,1.9,1,4,1.2,6.1c0.1,1.1,0.2,2.1,0.2,3.2c0,0.4,0.1,11.5,0.1,15.2c0,0.7,0.5,1.2,1.2,1.2l0,0c0.6,0,1.2-0.5,1.2-1.2
				c0-1.5,0.1-3.4,0.1-3.4c0.1-0.8,0.3-1.6,0.5-2.5c0.2-0.8,0.5-1.7,0.8-2.5c0.6-1.7,1.4-3.3,2.4-4.8c0.5-0.7,1.1-1.4,1.7-2
				c0.6-0.6,1.3-1.1,2.1-1.5c0.8-0.4,1.6-0.6,2.5-0.7c0.9-0.1,1.8,0,2.8,0.3C548.1,326,547.2,325.6,546.2,325.5z"/>
		</g>
	</g>
	<g>
		<g>
			<path class="st5" d="M549.1,321.1c0-1.2,0.1-2.3,0.3-3.4c0.2-1.1,0.4-2.3,0.7-3.4c0.3-1.1,0.7-2.2,1.1-3.3c0.4-1.1,1-2.2,1.7-3.2
				c0.7-1,1.4-2,2.4-2.8c0.9-0.8,2-1.5,3.3-2c1.2-0.5,2.5-0.7,3.8-0.7c0.7,0,1.4,0.1,2,0.3c0.7,0.2,1.3,0.5,1.9,0.9
				c1.2,0.7,2.1,1.7,2.8,2.7c0.7,1,1.3,2.1,1.8,3.2c1,2.2,1.6,4.5,2.1,6.8c0.5,2.3,0.8,4.6,1,6.9c0.1,1.2,0.2,2.3,0.2,3.5
				c0.1,1.2,0.1,2.3,0,3.5h-1.8c-0.1-2.2-0.3-4.5-0.5-6.7c-0.3-2.2-1.3-4.4-1.8-6.6c-0.5-2.2-1.1-4.3-1.9-6.3
				c-0.4-1-0.9-1.9-1.5-2.8c-0.6-0.8-1.3-1.6-2-2.1c-0.8-0.5-1.6-0.8-2.5-0.9c-1,0-2,0.1-2.9,0.4c-1.9,0.6-3.5,2-4.9,3.7
				c-1.3,1.7-2.4,3.7-3.2,5.8C550.4,316.7,549.6,318.9,549.1,321.1z"/>
			<path class="st5" d="M557.8,294.7c1.2-0.3,2.6-0.2,3.8,0.1c0.6,0.2,1.3,0.4,1.9,0.6c0.3,0.1,0.6,0.3,0.9,0.4
				c0.3,0.2,0.6,0.3,0.9,0.5c1.1,0.7,2.1,1.7,3,2.6c0.9,1,1.6,2.1,2.2,3.3c0.6,1.2,1.2,2.4,1.6,3.6c0.4,1.2,0.8,2.5,1.1,3.7
				c0.6,2.5,0.9,5.1,0.9,7.6l-2.5,0.2c-0.4-2.4-0.7-4.8-1.3-7.2c-0.5-2.3-1.2-4.7-2.2-6.8c-0.5-1.1-1-2.1-1.7-3.1
				c-0.6-1-1.4-1.9-2.3-2.7C562.5,296.2,560.3,295,557.8,294.7z"/>
			<path class="st5" d="M571.7,326.6c-0.1-1-0.2-1.9-0.2-2.8c0-0.9-0.1-1.9,0-2.8c0-1.9,0.1-3.8,0.3-5.6c0.2-1.9,0.5-3.8,1-5.6
				c0.5-1.9,1.2-3.7,2.3-5.5c0.6-0.9,1.3-1.7,2.1-2.4c0.9-0.7,1.9-1.2,3.1-1.4c0.6-0.1,1.1-0.1,1.7-0.1c0.5,0,1.1,0.1,1.6,0.2
				c1.1,0.2,2.1,0.7,2.9,1.3c0.4,0.3,0.8,0.7,1.2,1c0.3,0.4,0.7,0.8,0.9,1.2c0.6,0.8,1,1.7,1.3,2.6c0.3,0.9,0.6,1.8,0.7,2.8
				c0.1,0.5,0.1,0.9,0.2,1.4c0,0.5,0,0.9,0,1.4c-0.6-1.8-1.3-3.5-2.2-5c-0.9-1.5-2-2.8-3.4-3.6c-0.7-0.4-1.4-0.6-2.1-0.8
				c-0.4-0.1-0.8-0.1-1.1-0.1c-0.4,0-0.7,0-1.1,0.1c-0.7,0.2-1.3,0.5-1.8,1c-0.3,0.2-0.5,0.5-0.8,0.8c-0.2,0.3-0.5,0.6-0.7,1
				c-0.8,1.4-1.4,3-1.8,4.7c-0.4,1.7-0.7,3.5-0.9,5.2c-0.4,3.5-0.6,7.2-0.6,10.8L571.7,326.6z"/>
			<path class="st5" d="M584.4,325.5c-1-0.2-2.1-0.1-3.1,0.2c-1,0.3-2,0.7-2.8,1.3c-0.9,0.6-1.6,1.3-2.3,2.1
				c-0.7,0.8-1.3,1.6-1.8,2.4c0,0.1-0.1,0.2-0.1,0.2c0,0,0,0,0,0l0-1.6c0-0.6,0-10.9,0.1-14.9c0.1-4,0.1-7.9-0.1-11.9
				c-0.1-2-0.2-4-0.4-5.9c-0.2-2-0.4-4-0.8-5.9c-0.4,2-0.6,4-0.8,5.9c-0.2,2-0.3,4-0.4,5.9c-0.2,4-0.2,7.9-0.1,11.9c0,0,0,0.1,0,0.1
				c-0.1-0.1-0.1-0.2-0.2-0.3c-0.6-1.1-1.5-2.1-2.6-2.8c-1.1-0.8-2.5-1.2-3.8-1.2c-1.3,0-2.5,0.2-3.7,0.6c-1.2,0.4-2.3,1.1-3.2,1.9
				c-0.9,0.8-1.7,1.8-2.2,2.8c-0.6,1-1,2.1-1.3,3.2c-0.3,1.1-0.5,2.2-0.4,3.3c0.4-1,0.8-2,1.4-3c0.5-0.9,1.1-1.8,1.7-2.6
				c0.6-0.8,1.4-1.5,2.2-2.1c0.8-0.6,1.7-1,2.6-1.2c0.9-0.3,1.9-0.4,2.8-0.3c0.9,0,1.7,0.3,2.3,0.8c1.4,1,2.3,2.8,3,4.7
				c0.6,1.9,1,4,1.2,6.1c0.1,1.1,0.2,2.1,0.2,3.2c0,0.4,0.1,11.5,0.1,15.2c0,0.7,0.5,1.2,1.2,1.2l0,0c0.6,0,1.2-0.5,1.2-1.2
				c0-1.5,0.1-3.4,0.1-3.4c0.1-0.8,0.3-1.6,0.5-2.5c0.2-0.8,0.5-1.7,0.8-2.5c0.6-1.7,1.4-3.3,2.4-4.8c0.5-0.7,1.1-1.4,1.7-2
				c0.6-0.6,1.3-1.1,2.1-1.5c0.8-0.4,1.6-0.6,2.5-0.7c0.9-0.1,1.8,0,2.8,0.3C586.3,326,585.4,325.6,584.4,325.5z"/>
		</g>
	</g>
	<g>
		<g>
			<path class="st5" d="M587.3,321.1c0-1.2,0.1-2.3,0.3-3.4c0.2-1.1,0.4-2.3,0.7-3.4c0.3-1.1,0.7-2.2,1.1-3.3c0.4-1.1,1-2.2,1.7-3.2
				c0.7-1,1.4-2,2.4-2.8c0.9-0.8,2-1.5,3.3-2c1.2-0.5,2.5-0.7,3.8-0.7c0.7,0,1.4,0.1,2,0.3c0.7,0.2,1.3,0.5,1.9,0.9
				c1.2,0.7,2.1,1.7,2.8,2.7c0.7,1,1.3,2.1,1.8,3.2c1,2.2,1.6,4.5,2.1,6.8c0.5,2.3,0.8,4.6,1,6.9c0.1,1.2,0.2,2.3,0.2,3.5
				c0.1,1.2,0.1,2.3,0,3.5h-1.8c-0.1-2.2-0.3-4.5-0.5-6.7c-0.3-2.2-1.3-4.4-1.8-6.6c-0.5-2.2-1.1-4.3-1.9-6.3
				c-0.4-1-0.9-1.9-1.5-2.8c-0.6-0.8-1.3-1.6-2-2.1c-0.8-0.5-1.6-0.8-2.5-0.9c-1,0-2,0.1-2.9,0.4c-1.9,0.6-3.5,2-4.9,3.7
				c-1.3,1.7-2.4,3.7-3.2,5.8C588.6,316.7,587.9,318.9,587.3,321.1z"/>
			<path class="st5" d="M596.1,294.7c1.2-0.3,2.6-0.2,3.8,0.1c0.6,0.2,1.3,0.4,1.9,0.6c0.3,0.1,0.6,0.3,0.9,0.4
				c0.3,0.2,0.6,0.3,0.9,0.5c1.1,0.7,2.1,1.7,3,2.6c0.9,1,1.6,2.1,2.2,3.3c0.6,1.2,1.2,2.4,1.6,3.6c0.4,1.2,0.8,2.5,1.1,3.7
				c0.6,2.5,0.9,5.1,0.9,7.6l-2.5,0.2c-0.4-2.4-0.7-4.8-1.3-7.2c-0.5-2.3-1.2-4.7-2.2-6.8c-0.5-1.1-1-2.1-1.7-3.1
				c-0.6-1-1.4-1.9-2.3-2.7C600.8,296.2,598.6,295,596.1,294.7z"/>
			<path class="st5" d="M610,326.6c-0.1-1-0.2-1.9-0.2-2.8c0-0.9-0.1-1.9,0-2.8c0-1.9,0.1-3.8,0.3-5.6c0.2-1.9,0.5-3.8,1-5.6
				c0.5-1.9,1.2-3.7,2.3-5.5c0.6-0.9,1.3-1.7,2.1-2.4c0.9-0.7,1.9-1.2,3.1-1.4c0.6-0.1,1.1-0.1,1.7-0.1c0.5,0,1.1,0.1,1.6,0.2
				c1.1,0.2,2.1,0.7,2.9,1.3c0.4,0.3,0.8,0.7,1.2,1c0.3,0.4,0.7,0.8,0.9,1.2c0.6,0.8,1,1.7,1.3,2.6c0.3,0.9,0.6,1.8,0.7,2.8
				c0.1,0.5,0.1,0.9,0.2,1.4c0,0.5,0,0.9,0,1.4c-0.6-1.8-1.3-3.5-2.2-5c-0.9-1.5-2-2.8-3.4-3.6c-0.7-0.4-1.4-0.6-2.1-0.8
				c-0.4-0.1-0.8-0.1-1.1-0.1c-0.4,0-0.7,0-1.1,0.1c-0.7,0.2-1.3,0.5-1.8,1c-0.3,0.2-0.5,0.5-0.8,0.8c-0.2,0.3-0.5,0.6-0.7,1
				c-0.8,1.4-1.4,3-1.8,4.7c-0.4,1.7-0.7,3.5-0.9,5.2c-0.4,3.5-0.6,7.2-0.6,10.8L610,326.6z"/>
			<path class="st5" d="M622.7,325.5c-1-0.2-2.1-0.1-3.1,0.2c-1,0.3-2,0.7-2.8,1.3c-0.9,0.6-1.6,1.3-2.3,2.1
				c-0.7,0.8-1.3,1.6-1.8,2.4c-0.1,0.1-0.1,0.2-0.1,0.2c0,0,0,0,0,0l0-1.6c0-0.6,0-10.9,0.1-14.9c0.1-4,0.1-7.9-0.1-11.9
				c-0.1-2-0.2-4-0.4-5.9c-0.2-2-0.4-4-0.8-5.9c-0.4,2-0.6,4-0.8,5.9c-0.2,2-0.3,4-0.4,5.9c-0.2,4-0.2,7.9-0.1,11.9c0,0,0,0.1,0,0.1
				c-0.1-0.1-0.1-0.2-0.2-0.3c-0.6-1.1-1.5-2.1-2.6-2.8c-1.1-0.8-2.5-1.2-3.8-1.2c-1.3,0-2.5,0.2-3.7,0.6c-1.2,0.4-2.3,1.1-3.2,1.9
				c-0.9,0.8-1.7,1.8-2.2,2.8c-0.6,1-1,2.1-1.3,3.2c-0.3,1.1-0.5,2.2-0.4,3.3c0.4-1,0.8-2,1.4-3c0.5-0.9,1.1-1.8,1.7-2.6
				c0.6-0.8,1.4-1.5,2.2-2.1c0.8-0.6,1.7-1,2.6-1.2c0.9-0.3,1.9-0.4,2.8-0.3c0.9,0,1.7,0.3,2.3,0.8c1.4,1,2.3,2.8,3,4.7
				c0.6,1.9,1,4,1.2,6.1c0.1,1.1,0.2,2.1,0.2,3.2c0,0.4,0.1,11.5,0.1,15.2c0,0.7,0.5,1.2,1.2,1.2l0,0c0.6,0,1.2-0.5,1.2-1.2
				c0-1.5,0.1-3.4,0.1-3.4c0.1-0.8,0.3-1.6,0.5-2.5c0.2-0.8,0.5-1.7,0.8-2.5c0.6-1.7,1.4-3.3,2.4-4.8c0.5-0.7,1.1-1.4,1.7-2
				c0.6-0.6,1.3-1.1,2.1-1.5c0.8-0.4,1.6-0.6,2.5-0.7c0.9-0.1,1.8,0,2.8,0.3C624.6,326,623.7,325.6,622.7,325.5z"/>
		</g>
	</g>
	<path class="st5" d="M200.4,387.7c2.7-2.1,7,6.2,12.3,11c5.3,4.8,10.6,10.8,10.6,6.6s-5.4-19.3-1.8-19.7s1.2,14.6,9.4,22.6
		s18.2,15.3,23.2,21c5,5.7,3.8,8.2,2.1,8.4s-5.4,2.1-8.3-3.8s-15.3-17-22-20.8s-9.9-5.8-17.4-12.7S198.6,389.1,200.4,387.7z"/>
	<path class="st5" d="M385,446c2.2,1.2-2.6,8.4-2.6,8.4s7.6-5.3,9.1-2.5c2.2,4.2-13.5,6.8-15.3,10.2c0,0-0.3-8.2,3-12.8
		C381.6,445.8,384,445.4,385,446z"/>
	<path class="st2" d="M361,431.5c4.8,3.2,11.2,6.1,13.9,18.4c0,0,1-9.1,6.3-15.3c5.3-6.2,7.3-10.6,4.7-12c-2.6-1.4-6.5,3.8-7.5,9.2
		c0,0,1.7-13.7-2.3-13.5c-4,0.2-1.6,9.4-1.6,9.4s-4.7-13.1-9.1-10.8c-4.4,2.3,4.6,13.9,4.6,13.9s-10.9-12.4-13.8-7.3
		C354.8,426,357.7,429.3,361,431.5z"/>
	<path class="st3" d="M372.6,433.2c0,0,2.5,5.6,2.3,16.6l1.2,11.1"/>
	<path class="st5" d="M376.2,462.1c0,0,0-7.2-6.5-11.5c-6.5-4.3-9.4-2.2-8.8,0c0.6,2.2,4.7,4.5,4.7,4.5s-6.6-2.4-7.6,0
		c-1.4,3.5,3.9,4.4,7.9,3.8C369.8,458.4,375.6,460,376.2,462.1z"/>
	<g>
		<path class="st0" d="M510.6,461.3c0,0-7.1,0.1-16.4-10.9c-9.3-11-7.5-17.4-4.8-18.6c2.8-1.2,6.9,1.4,9.5,6.1c0,0-2-8.5,2.6-8.9
			s6,13.1,6,13.1s-2-11.9,1.5-11.5C512.6,431,517.2,449.8,510.6,461.3z"/>
		<path class="st3" d="M510.6,461.3c-7.1-4.9-11.1-17.6-11.1-17.6"/>
	</g>
	<g>
		<path class="st2" d="M536.4,420.3c3.9,2.6-1.9,14.5-10.3,24.9c-5.1,6.3-11.1,12.7-14,15.7c-0.7,0.7-1.9,0.3-2-0.7
			c-0.6-5.9-2-21.1-1.7-29.8c0.3-11,2.3-18.8,6.1-18.5c3.8,0.3,4,7.8,3.4,9.9c0,0,3.1-10.1,8-9c4.9,1,1,11.2,1,11.2
			S532.4,417.6,536.4,420.3z"/>
		<path class="st3" d="M522,427.7c0,0-8.9,13.4-10.9,33.5"/>
	</g>
	<g>
		<g>
			<path class="st5" d="M593.8,208c0.3-1.3,2.1-8,6.5-11.4c0.3-0.2,0.7-0.2,0.9,0.2c0.9,1.4,3.9,4.5,11.1-1.6
				c0.3-0.2,0.7-0.2,0.9,0.1c1.3,1.8,6.2,7.2,17,5.3c0.6-0.1,1,0.6,0.6,1c-1.8,2.1-4.8,6.5-4.1,12.6c0,0.3-0.2,0.7-0.6,0.7
				c-1.4,0.1-4.6,0.8-6.9,4.6c-3,5-19.9,7.2-25.5,0c-5.1-6.5-1-10.4-0.2-11.2C593.7,208.2,593.7,208.1,593.8,208z"/>
			<path class="st1" d="M595.5,221.2c5.2-12,17.8-11.9,17.8-11.9"/>
		</g>
		<path class="st2" d="M579.7,224.7c0,0,5.1,6.7,17.4,5.7l0,1.7c0,0-12.7,1.4-18.8-6.4L579.7,224.7z"/>
		<path class="st1" d="M620.5,196.7c0,0,1.5,3,0.4,5.2s-2.9-1.2-3.8-0.5c-1,0.7,0,2.4-1.3,2.8s-2.1-2.8-4-1.8
			c-1.9,1,0.2,3.1-1.6,3.5c-1.8,0.4-3.4-3.6-5.7-2.1c-2.2,1.5-0.2,3.9-1.4,6.2c-1.2,2.3-4.5,4.7-9.3,3.7"/>
		<path class="st1" d="M613.9,237.9c0,0,3.6-0.9,4.7,1.5c1.1,2.4,0.9,3.8,2.2,3.7s0.9-3.4,3.1-3.7c2.2-0.3,1.4,3.8,3.8,3.7
			s1.6-3.1,3.4-3.4c1.8-0.3,0.9,3.2,2.4,2.9c1.5-0.2,2.7-3,2.8-5.6"/>
		<path class="st1" d="M614.5,227.4c0.5,0,4.3,1.8,8.7-0.4s3.3-4.9,5.4-5.2c2.1-0.3,2.3,1.7,2.3,1.7"/>
		<g>
			<path class="st7" d="M596.3,231.3c0.1-3-4.8-4.6-1.9-9.5c2.7-4.6,6.2-1.6,9.8-3.8c0.3-0.2,0.8-0.1,0.9,0.3
				c0.7,1.6,2.8,5.1,8.7,3.7c0.4-0.1,0.8,0.2,0.8,0.6c0.1,1.2,0.8,3.6,4.9,5c4.5,1.6,5.6,5.4,5.8,7c0.1,0.4-0.2,0.7-0.6,0.7
				c-2.5,0.2-11.7,1.5-11.9,7.9c0,0.4-0.4,0.7-0.8,0.6c-2.3-0.7-8.5-2.2-11.8,1c-0.3,0.3-0.7,0.3-0.9,0c-0.8-0.8-2.4-2.6-3.8-3.4
				c-1.9-1.2-2.4-4.5-1.2-6C595.5,234,596.2,232.8,596.3,231.3z"/>
			<path class="st1" d="M596.3,231.3c0,0,8.6-4.6,19.7,0.6"/>
		</g>
		<g>
			<path class="st5" d="M559.6,236.5c0.9,0.6,4,2.9,4.2,7c0,0.4,0.4,0.7,0.8,0.6c1.7-0.5,6.1-1.3,8.8,0.8c0.3,0.2,0.7,0.2,0.9-0.1
				c0.9-1.2,3.8-3.9,10.9-2.1c0.5,0.1,0.9-0.4,0.7-0.9c-0.8-1.5-1.6-4.4-0.3-9c0.1-0.3-0.1-0.6-0.4-0.8c-1.1-0.5-3.8-2.4-3.7-8.4
				c0-0.2-0.1-0.3-0.2-0.4l-7.1-8.2c-0.2-0.2-0.5-0.3-0.8-0.1l-13.9,7.3c-0.2,0.1-0.3,0.3-0.3,0.6V236
				C559.3,236.2,559.4,236.4,559.6,236.5z"/>
			<path class="st1" d="M581.5,238.8c0,0-4.2-6.3-12-8.8"/>
			<path class="st2" d="M564.6,203c0,0,4.6,8.2,15.1,6.7v2c0,0-11,2-16.4-7.5L564.6,203z"/>
		</g>
		<g>
			<path class="st7" d="M575.8,211.3c0.3-0.2-5.6-11.9,12.4-11.3c0.3,0,0.6,0.3,0.6,0.6c0,1.6,0.5,5.5,6.7,5.4
				c0.4,0,0.7,0.3,0.6,0.7c-0.3,1.4-0.6,4.5,1.4,6.7c2.4,2.8,4.7,5.6,5.4,8.9c0.1,0.4-0.2,0.8-0.7,0.7c-2.4-0.2-9.4-0.1-11.6,5.5
				c-0.2,0.4-0.6,0.5-1,0.3c-1.5-1.2-5.1-3.5-9.4-1.5c-0.4,0.2-0.8-0.1-0.9-0.5c-0.2-1.7-1.2-5.1-5.4-5.3
				C569.3,221.5,569.5,214.3,575.8,211.3z"/>
			<path class="st1" d="M575.8,211.3c0,0,8.5-3.5,17.9,4.7"/>
		</g>
		<path class="st1" d="M487.5,222.2c0,0-1.3,2.9,0.3,3.3c1.6,0.5,3-3.1,4.5-2.3c1.4,0.7-0.8,4.3,0.8,4.8c1.8,0.6,1.4-3.4,2.7-3.2
			c1.5,0.1,0.4,3.1,2,3.2c1.3,0.1,1.1-1.5,2.7-1.6c2.1-0.1,3.1,2,4.3,4.3"/>
		<path class="st1" d="M495.9,214.7c0,0,3.6-0.8,6.6,3.1c3,3.9,6.9,3.7,10.6,2.1"/>
		<path class="st1" d="M526.4,178.3c0,0-2.3,2.6-0.7,4.1c1.6,1.5,3-0.7,3.7,0c0.7,0.7-1.3,1.9-0.5,3.2s4-1.2,4.7-0.6
			c0.7,0.6-1.5,2.6,0,4c1.5,1.5,3.6-2.5,4.5-1.2s-1.5,3.3-0.3,5.2c1.3,1.9,6.1,1.7,6.1,1.7"/>
		<path class="st1" d="M581.6,194.8c0-0.8-2.2-2.2-3.2,0.1c-1,2.3,0.6,5.5-0.8,8.2c-1.4,2.7-5.9,3.1-6.9,1.8"/>
		<g>
			<path class="st5" d="M568.2,205.2c-0.4,2-1.7,10.5,6.3,12.7c0.5,0.1,0.6,0.8,0.2,1.1c-1.3,1.1-3.4,3.4-2.9,6.7
				c0.6,4.8,0.5,8.1-1.1,8.2c-1.6,0.2-6.5-7.6-12.9-5.8c-6.4,1.8-21.1-10.6-12.4-21.3c7.8-9.7,20-3.5,22.4-2.2
				C568.1,204.7,568.2,204.9,568.2,205.2z"/>
			<path class="st1" d="M544.4,208.2c0,0,13-0.4,21.9,16.2"/>
		</g>
		<path class="st1" d="M571.8,250.3c0,0,0.2,3.5-1,3.2c-1.2-0.3-0.6-2.7-1.9-3.2s-1.3,3.3-3.2,2.9c-1.9-0.5-0.4-3.2-2-3.5
			s-2.8,2.7-4,1.6c-1.3-1.1,0.3-3.8-1-4.7s-3.5,2.5-5.1,1.6s0.6-3.9-1.3-5.5s-4.9,1.6-6.5-0.3s-1.2-5.8,0-7.1"/>
		<g>
			<path class="st5" d="M519.7,244.8c0.4,0.7,6.6-0.5,10.2,4.9c0.2,0.3,0.6,0.4,0.9,0.2c1.4-1,5.7-3.5,11.3-1.9
				c0.4,0.1,0.8-0.2,0.8-0.7c-0.3-2.5-0.5-9.2,3.8-10.7c0,0-7.4-2.1-8.3-8.6c0,0-11.2-7.9-14-0.4c-0.1,0.2-0.3,0.4-0.6,0.4
				C521.4,227.9,511.4,228.5,519.7,244.8z"/>
			<path class="st1" d="M536.2,241.2c0,0-2.4-10.2-12.1-13.1"/>
		</g>
		<g>
			<path class="st5" d="M498,229.6c-0.6-0.2,0.6,7.2-4.1,10.3c-0.3,0.2-0.4,0.7-0.1,1c1.3,1.2,3.6,4.6,1.2,11.7
				c-0.2,0.5,0.4,1,0.9,0.8c2.6-1.3,8.4-3.3,13.9,0.4c0.3,0.2,0.7,0.1,0.9-0.2c1.1-1.6,4.7-6.2,10.3-6.6c0.3,0,0.5-0.2,0.6-0.4
				c0.8-2.2,4.4-12.6-2.2-13c-0.3,0-0.5-0.2-0.6-0.4c-0.4-1.5-2.2-6-7.6-5.2C507,228.8,503.7,232,498,229.6z"/>
			<path class="st1" d="M501.4,247.1c0,0,5.6-13.4,17.4-13.3"/>
		</g>
		<g>
			<path class="st7" d="M526,229.7c0.4,0.5,2.4,2.9,2.8,5.9c0,0.3,0.4,0.6,0.7,0.5c2-0.3,8.1-0.8,12,4.4c0.2,0.3,0.6,0.3,0.9,0.1
				c1.6-1.4,7.1-4.9,17.3,2.1c0.3,0.2,0.8,0.1,0.9-0.3c0.6-1.7,2-6,0.2-10.2c-1.4-3.4-1-5.3-0.6-6.3c0.2-0.4-0.1-0.8-0.5-0.9
				c-2.6-0.2-8.8-1.3-8.4-6.6c0-0.3-0.2-0.7-0.6-0.7c-2.2-0.2-9.5-1.1-10.4-6.6c-0.1-0.3-0.4-0.6-0.7-0.5
				c-3.3,0.4-18.3,2.9-13.9,18.9C525.9,229.6,526,229.7,526,229.7z"/>
			<path class="st1" d="M525.9,219.5c0,0,16.1-3.2,26.4,13.8"/>
		</g>
		<path class="st1" d="M520.2,236c0,0-0.9-2.7,0.8-3.9c1.7-1.2,2.7-1.4,3-2.9c0.4-1.5-2.1-2.4-2.4-1.7c-0.3,0.7,2.7,2,4.3,0.7
			c1.7-1.3-2.6-4.3-3.3-3c-0.7,1.3,3.7,2.2,4.5,0.7c0.8-1.5-1.7-2.3-0.9-5.1c0.6-2.1,2.8-2.9,2.8-6.8"/>
		<path class="st1" d="M537.2,216.6c0,0,3.2-0.9,5.2,0.7c2,1.6,1.9,4.6,4,5.7c2.1,1.1,3.5-1.1,5.3,0c1.8,1.1,0.2,3.4,1.4,4.7
			s2.3-1.5,3.4-0.6c1.1,0.9-1,4,0.4,5.3c1.4,1.2,4-2.2,4-2.2"/>
		<g>
			<path class="st7" d="M502.4,224.2c0,0,5.5,4.9-1,14.8c0,0,16.2-4.3,23.2,0.7c0,0-1.5-8.5,5.6-10c0,0-1.8-3.3,1.7-6.8
				c3.2-3.1,0.9-9.1-5.5-8.3c0,0-1.7-4.7-7.6-2.2S513.5,221.4,502.4,224.2z"/>
			<path class="st1" d="M510.1,232.2c0,0,5-16.9,20.1-17.2"/>
			<path class="st1" d="M520.2,236c0,0-0.9-2.7,0.8-3.9c1.7-1.2,2.7-1.4,3-2.9c0.4-1.5-2.1-2.4-2.4-1.7c-0.3,0.7,2.7,2,4.3,0.7
				c1.7-1.3-2.6-4.3-3.3-3c-0.7,1.3,3.7,2.2,4.5,0.7c0.8-1.5-1.7-2.3-0.9-5.1c0.6-2.1,2.8-2.9,2.8-6.8"/>
		</g>
		<g>
			<path class="st5" d="M541.6,204.4c0.7-1.4,2.6-6-3.5-9.7c-0.3-0.2-0.6-0.1-0.8,0.1c-1,1.1-4.8,3.9-13.6,0.8
				c-0.3-0.1-0.7,0.1-0.8,0.4c-0.6,1.9-3.1,7.3-12.2,8.1c-0.6,0.1-0.8,0.8-0.3,1.2c3.1,1.8,8.7,6,8.5,12.1c0,0.4,0.4,0.7,0.8,0.6
				c2.7-0.9,11.2-3.2,18,0.9c0.2,0.1,0.5,0.1,0.7,0c1.8-1.1,9.7-6.7,3.3-13.7C541.6,204.9,541.5,204.6,541.6,204.4z"/>
			<path class="st1" d="M523.5,205.3c0,0,10.7-4.8,17.9-0.5"/>
		</g>
		<g>
			<path class="st7" d="M537.7,209.8c1.8-2.5,6.1-9.2,4.1-14.9c-0.1-0.4,0.1-0.8,0.5-0.8c2.6-0.2,10.4-1.4,12.3-7.3
				c0.1-0.2,0.3-0.4,0.5-0.4c1.5-0.3,7.2-1,9.5,2.7c1.3,2,0.1,4.2-0.8,5.4c-0.3,0.4,0,1,0.5,1c2.2,0.1,6.5,0.7,8.6,4.2
				c2.6,4.2-0.4,9.8-2.1,11.5c-0.2,0.2-0.5,0.2-0.7,0.1c-1.6-0.9-8.1-3.9-13.4,4.5c-0.2,0.4-0.7,0.4-1,0.1c-1.3-1.5-5.6-4.7-17.5-5
				C537.7,210.7,537.4,210.2,537.7,209.8z"/>
			<path class="st1" d="M546.6,204.8c0,0,5-7.9,16.4-9.4"/>
		</g>
	</g>
	<path class="st5" d="M449.5,334.8l0.6,1.2c0.3,0.5,0.9,0.7,1.4,0.3l5.1-3.7c0.4-0.3,0.5-0.8,0.3-1.2l-0.7-1.1
		c-0.3-0.5-0.9-0.6-1.4-0.3l-5.1,3.6C449.4,333.9,449.3,334.4,449.5,334.8z"/>
	<g>
		<path class="st0" d="M158.8,636.3c4-1.7,7.4,2.8,10,10.2c0,0-2.8-14.4,1.7-15.1c4.4-0.7,14.6,14.9,9.5,64.9
			c0,0-14.3-15.4-25.6-34.3s0.7-18,5.7-8C160.1,654.1,154,638.4,158.8,636.3z"/>
		<path class="st1" d="M166,651.9c0,0,12.9,19.9,13.9,44.5"/>
	</g>
	<g>
		<path class="st2" d="M183.5,711.5c0,0-7-21.7-6-36.5c0.9-13,4-14.5,6-14.1c2.1,0.4,3.8,9.4,3.5,15.1c0,0-1.8-16.2,4.9-15.2
			c6.8,1,1.3,16.3,1.3,16.3s4.6-13.1,10.5-10.7C209.6,668.7,192.7,705.4,183.5,711.5z"/>
		<path class="st1" d="M188.4,678.3c0,0-5.4,18.9-4.9,33.1"/>
	</g>
	<g>
		<path class="st0" d="M226.4,614.2c4.6-1.1,6.7,6.5,6.9,11.2c0,0-0.4-13.9,4.1-13.5s3.2,9.7,3.2,9.7s1-10.6,4.9-9.8
			c3.9,0.8,0.2,38.1-7,47.4C228.8,656.4,216.1,616.8,226.4,614.2z"/>
		<path class="st1" d="M236.6,624c0,0,3.5,14.7,1.9,35.1"/>
	</g>
	<g>
		<path class="st2" d="M178.4,716.7c0,0-5.3-12.3-20.5-19.7c-15.3-7.3-18.2-15.9-14.4-18.6c4.1-2.9,15,4.2,18.5,9.2
			c0,0-11.1-15.4-5.9-18.8c5.3-3.5,13.5,13.5,13.5,13.5s-6.5-13.5-1.2-15.2c5.3-1.8,16.7,27.7,17.3,45.4
			C186.3,730.2,180.7,721.6,178.4,716.7z"/>
		<path class="st1" d="M166,687.8c0.9,0.2,14.6,10,16.7,35"/>
	</g>
	<g>
		<path class="st5" d="M185,711c0,0-7.4-1.7-9.7,4.7c-2.3,6.4,2.3,11.7,12.4,14.1s18.1,4,28.9,7.7c18,6.3,32.5,3,45.3,3.4
			c12.7,0.3,26.8,2.7,43.6-3.4c16.8-6,28.5-7.7,26.2-20.5c-2.3-12.7-18.1-17.4-17.8-31.9c0.3-14.4,1.7-20.5-4-24.8
			s-13.2,0.8-13.2,0.8s7.6-17.5-1.9-30.4c-7.7-10.5-29.6-12.1-32.4,4.2c-2.4-3.3-11.8-5.7-14.2,6.3c0,0-13-3.7-21,8.3
			c-8.1,12.2-0.6,27.4-0.6,27.4S195.2,670.8,185,711z"/>
		<path class="st4" d="M248.2,641.3c0,0,4,1.2,4.5,5.3"/>
		<path class="st4" d="M262.3,635c0,0,2.5,2.5,1.4,7.7"/>
		<path class="st4" d="M246.1,695.3c-4.4-16.4-19.5-18.4-19.5-18.4"/>
		<path class="st4" d="M238.8,718.7c0,0-3.3-15.9,5.5-22.2c8.8-6.3,20.8,0.2,20.8,11.9"/>
		<path class="st4" d="M296.6,661.2c0,0-2.9,7.9-6.1,11.4"/>
		<path class="st8" d="M279.6,665.7c2.4,1.1,1.4,12.3-2.1,17.6c-3.5,5.3-7.3,3-8.1-1.7C268.6,676,274.8,663.4,279.6,665.7z"/>
		<circle class="st8" cx="285.5" cy="655.1" r="1.9"/>
	</g>
	<g>
		<g>
			<path class="st2" d="M323.9,716c0,0-10.7-11.9-14.9-21.2c-4.2-9.3-4.4-18.8,0-20.5c4.4-1.7,7,8.2,7,8.2s-0.5-12.6,5-13.3
				c5.5-0.7,6.3,11.6,6.3,11.6s0.7-11.9,7.8-10C342.2,672.6,334.9,701.6,323.9,716z"/>
			<path class="st2" d="M321,684.4c0,0,5.1,16.5,2.9,31.7"/>
		</g>
		<path class="st0" d="M351.6,699.8c3.9,3.3-4.9,21.2-10.8,29.4s-13.1,13.8-19.2,15.6s-3-25.6,0-35.7s7.6-19.2,11.4-18
			s-1,11.3-1,11.3s4.9-14.5,10.3-12.6c5.4,1.8-4.2,19.3-4.2,19.3S347.6,696.5,351.6,699.8z"/>
		<path class="st4" d="M335.5,710.9c-4.2,5.3-13,20.9-13.8,33.9"/>
		<g>
			<path class="st2" d="M302.7,735.5c5.6,5,13.4,8.1,16.7,9.3c1,0.3,2-0.1,2.5-1c5.6-10.8,3.7-31.9,0.7-40.4
				c-2.3-6.4-6.6-10.6-9.7-8.1c-2.1,1.7,0.5,14.9,0.5,14.9s-3.4-12.4-9.1-10.1c-5.7,2.4,2.7,16.5,2.7,16.5s-8.4-9-13.1-4.8
				C289.1,716.1,293.4,727.2,302.7,735.5z"/>
			<path class="st2" d="M311,719.3c0,0,12.4,12.7,10,25.4"/>
		</g>
	</g>
</g>
</svg>
