<?xml version="1.0" encoding="utf-8"?>
<!-- Generator: Adobe Illustrator 22.1.0, SVG Export Plug-In . SVG Version: 6.00 Build 0)  -->
<svg version="1.1" id="圖層_1" xmlns="http://www.w3.org/2000/svg" xmlns:xlink="http://www.w3.org/1999/xlink" x="0px" y="0px"
	 viewBox="0 0 709.6 945.2" style="enable-background:new 0 0 709.6 945.2;" xml:space="preserve">
<style type="text/css">
	.st0{fill:#BCD0ED;stroke:#000000;stroke-width:0.43;stroke-linejoin:round;stroke-miterlimit:10;}
	.st1{fill:#EBEBF2;stroke:#000000;stroke-width:0.43;stroke-linejoin:round;stroke-miterlimit:10;}
	.st2{fill:none;stroke:#000000;stroke-width:0.43;stroke-linejoin:round;stroke-miterlimit:10;}
	.st3{fill:#FFFFFF;stroke:#000000;stroke-width:0.43;stroke-linejoin:round;stroke-miterlimit:10;}
	.st4{fill:#325984;stroke:#000000;stroke-width:0.43;stroke-linejoin:round;stroke-miterlimit:10;}
	.st5{fill:#EA6157;stroke:#000000;stroke-width:0.43;stroke-linejoin:round;stroke-miterlimit:10;}
	.st6{fill:#F2B85A;stroke:#000000;stroke-width:0.43;stroke-linejoin:round;stroke-miterlimit:10;}
	.st7{fill:#F2B85A;}
</style>
<g>
	<g>
		<g>
			<path class="st0" d="M68.7,744.2c0,0-7.6,29.9,30,45.7s56.4,22.4,70,31s34.5,6.4,53.6,13.3c19.1,6.9,29.3,19.1,47.3,20.7
				s44.8-0.6,58.6,1.9c13.8,2.5,20.5,10,40.1,5c19.6-5,23.8-9.7,49.2-6.1c25.4,3.6,83.5-10.2,101.4-19.1c18-8.8,26.5-11.9,37.9-15.2
				c11.3-3.3,31.8-3.3,40.9-10.2s20.5-14.4,30.4-27.6c10-13.3,13.3-9.7,19.9-27.6c6.6-18-25-47.9-25-47.9l-302.5,31.8l-220.2-13.5
				L68.7,744.2z"/>
			<path class="st0" d="M240.5,822.2c0,0,5.7,2,14.3,10.6c8.6,8.6,20.3,6.9,20.3,6.9"/>
			<path class="st0" d="M289.8,842c0,0,5.5,0.4,8.2,2.2"/>
			<path class="st0" d="M270.6,809.5c0.7,0.5,11.5,9.8,29.3,14.6c17.8,4.8,23.5,16.3,33.4,17.9"/>
			<path class="st0" d="M272.6,788.8c0,0,3.7,7,8.9,11.1"/>
			<path class="st0" d="M286.7,803.4c0,0,2.2,1.8,3.7,2.9"/>
			<path class="st0" d="M130,789.5c5.6,0.8,13.3,10.9,17,12.1"/>
			<path class="st0" d="M147,796.2c0,0,3.5,4.1,7.3,5.7"/>
			<path class="st0" d="M547.8,810.4c0,0,3.7-1.8,6.5-7.1"/>
			<path class="st0" d="M591.9,808.6c0,0,2.5-1.3,4.8-4.2"/>
			<circle class="st0" cx="562.7" cy="812.4" r="2"/>
			
				<ellipse transform="matrix(0.3548 -0.9349 0.9349 0.3548 -420.099 1033.6318)" class="st0" cx="538.9" cy="821.2" rx="2.9" ry="1.4"/>
			<ellipse transform="matrix(0.866 -0.5 0.5 0.866 -379.6888 220.218)" class="st0" cx="221.1" cy="818.6" rx="2" ry="2.7"/>
			
				<ellipse transform="matrix(0.7071 -0.7071 0.7071 0.7071 -476.4822 444.219)" class="st0" cx="298" cy="797.3" rx="1.9" ry="3.6"/>
			<ellipse class="st0" cx="354" cy="852.7" rx="2.6" ry="1.3"/>
			<ellipse class="st0" cx="375.5" cy="845.4" rx="2.5" ry="1.9"/>
		</g>
		<path class="st1" d="M59.8,676c0,0-12.3,0-15.8,11.5s-2.3,41.7,4.8,61s16.7,6.5,32.1,13.3s16.9,25.3,30.2,25s14.9-7.6,27.9-5.5
			s21.9,20.6,23.2,31.5s5.6,10.9,6.6,30.2c1,19.3,11.4,24.5,20,12.2c8.6-12.2,18.5-38.3,25-51.1s13.6-9.8,16.7-6.3
			c3.1,3.5,7.1,5,15.7-4.6c8.6-9.6,24.2-19.1,46.4-19.2c22.2-0.1,34.9,12.6,41.5,30c6.7,17.4,6.7,28.8,14.9,31
			c8.3,2.2,9.2-4.9,21.7-3.8c12.6,1,25.7,14.3,32.5,33.4c6.8,19.1,16,13.4,25,4.9c9-8.6,21.1-13.4,32.4,5.9s9.6,37.7,25.9,37.7
			s23.9-34.3,31.3-59c7.4-24.7,22.4-57,39.2-59s10.5,14.2,24.8,10.5c14.3-3.7,13.1-20.3,23.5-32.3c10.4-11.9,23.8-15.6,34.8-13.1
			s19.8,0.6,24.7-13.9c4.9-14.5,16.9-68.7-28.2-82.2s-140.3-103-140.3-103l-122.9-6.2c0,0-75,13.8-79.3,13
			c-4.3-0.9-168.6,14.1-168.6,14.1l-58.8,90.1L59.8,676z"/>
		<path class="st2" d="M51.9,694.4c0,0,8.4,11.3,19.9,18.7c11.5,7.3,17.2,10.2,17.2,10.2"/>
		<path class="st2" d="M118.9,736.8c0,0,2.4,1.5,5.6,3"/>
		<path class="st2" d="M256.5,752.2c0,0,12.7,0.7,32.6-0.8c22.5-1.7,31,5,40.5,5.8"/>
		<path class="st2" d="M603.6,794.3c0,0,4.5-4.6,7.4-12.6c2.9-8.1,11.2-12.4,11.2-12.4"/>
		<path class="st2" d="M93,754.6c0,0,4,3.5,5.3,9.8"/>
		<path class="st2" d="M153.1,757.1c0,0,6.1,12.6,6.2,20.3"/>
		<path class="st2" d="M149.6,764.4c0,0,2.9,3.4,3.5,6.7"/>
		<path class="st2" d="M421.1,771.4c0,0,6.2,13.2,5.9,28.4"/>
		<path class="st2" d="M540.5,751.7c0,0-10.1,13.7-11.3,32.5"/>
		<path class="st2" d="M541.2,761.8c0,0-3.1,4.4-3.3,10.4"/>
		<path class="st2" d="M591.9,770.4c0,0,4.1-16.8,12.8-26.7"/>
		<path class="st2" d="M601.1,760.5c0,0,0.3-2.8,2.5-5.7"/>
		<path class="st0" d="M137.2,83.5c-1.8,27.6,0,52.3,0,52.3s-2.5,2.1-7.3,9.7c-5.6,8.9-20,36.8-22.8,41.1
			c-2.8,4.3,11.4-11.7,11.4-11.7l-2.8,22.2c0,0,6.2-8.8,6.3-26.8c1.6-2.8,11-18,13.7-22.9l1.5,54.6l-14.4,17.7l-16.1-1.7l13.6,7.6
			c0,0-17.9,30.1-25.4,37.5c0,0,9.3-2.9,18.1-17.7c0,0,1,7.6,0.3,14.4c0,0,4.9-4.5,4.2-20.3c0,0,9.5-18.8,19.6-26.9l-3.2,86.7
			l-8.3,10.1c0,0-31.7,0-37.5-1.3c0,0,7.1,4.5,19.5,5.4s13.7,1.5,13.7,1.5s-27,34.3-39,44.7S65,379.6,60.5,382.8
			c0,0,12.6-3.4,25.7-18.2c13.1-14.8,14.6-15,14.6-15s-1.9,23.3-10.9,49.5c0,0,13.1-7.7,17.3-52.9c0,0,19.9-21.4,28.3-36
			c0,0-4.7,68.3-5.1,88.8c0,0-36.4,27.8-55,42.6c-18.6,14.8-25,21.4-25,21.4l30-18.6c0,0-1.5,10.5-11.8,39c0,0,7.7-7.6,12.6-18.2
			c0,0,4.9,2.6,6.4,7.5c0,0,1.5-6.6-4.5-13.3c0,0,1.3-7.9,1.3-15.4c0,0,23.1-12.8,25.5-15.8c0,0-2.6,26.1-10.3,39.9
			c0,0,17.5-20.9,17.6-41.9l13.8-10.9c0,0,0.3-0.9-1.4,59.7l31.2,11.6c0,0-5.9-76.2-6.6-97.7c-0.7-21.4-2.5-68.2-3.6-103.9
			c-1.1-35.7-1.8-32.2-1.8-32.2s7.4,8.1,19,15.2c11.6,7.1,12.6,7.9,12.6,7.9L149,243.1l-2-33.2l38.6,22.9L147,199.5
			c0,0-3.2-47.2-4.2-53.6l13,17.9c0,0,0.2,14.7,5.7,21.6l-1-17.9c0,0,8.8,13.6,19.5,17.2c0,0-17.2-19.4-24.9-29.1
			c-7.9-10-13.2-20-13.2-20S140,102.9,137.2,83.5z"/>
		<g>
			<g>
				<path class="st0" d="M226.8,482.8c-7.3-0.8-18.6,1.5-17.9-2.4c0.8-4.2-3.7-3.5-3.3-6.8c0.3-2.1,7.1-4.6,13.9-3.5
					c6.3,1,7,4.7,11.2,4.6c-1.3-32.8-2.6-64.2-3.5-77.7c-2.1-33.7-6.8-83.1-7.4-105.2c0,0-0.1-76-1.3-104.3S212,78.4,212,78.4h-8.8
					c0,0-2.8,193.3-3.7,233c-0.4,17.4-0.5,70.1-0.4,123.9c2,0.3,6.1,1.1,6.9,2.5c1.1,2-1.9,1.9,0,4c1.9,2.2,4.5,2.9,3.9,5.6
					c-0.4,1.9-6.8,1.1-10.8-0.2c0.1,65.2,0.4,128.4,0.4,128.4h34.9c0,0-1.6-46.9-3.5-93.5C229.9,482.6,228.5,483,226.8,482.8z"/>
				<path class="st3" d="M210,447.3c0.6-2.7-2.1-3.4-3.9-5.6c-1.9-2.2,1.1-2.1,0-4c-0.8-1.5-4.9-2.2-6.9-2.5c0,4,0,8,0,11.9
					C203.3,448.5,209.6,449.3,210,447.3z"/>
				<path class="st3" d="M205.6,473.6c-0.4,3.3,4.1,2.6,3.3,6.8c-0.7,3.9,10.6,1.5,17.9,2.4c1.6,0.2,3-0.2,4.2-0.8
					c-0.1-2.4-0.2-4.8-0.3-7.3c-4.2,0.1-5-3.6-11.2-4.6C212.7,469,205.9,471.5,205.6,473.6z"/>
			</g>
			<path class="st1" d="M193.6,270c0,0-26.2,22.3-49.8,30.8c0,0,4.4,1.4,10.2,0.3c0,0-5,7.2-8.9,10.2c0,0,6.3-1.3,12.9-4.9
				c0,0-0.9,4.7-4.4,8.8c0,0,3.9,1.3,16.8-5.8C183.1,302.4,193.6,270,193.6,270z"/>
			<path class="st1" d="M194.7,357.3c0,0-38.9,24.4-66.8,28.8c0,0,5.4,3.4,10.4,2.9c0,0-9.4,14.1-18.4,19.6c0,0,4.2,0.3,9-1.5
				c0,0-8.4,9.5-16.5,13.4c0,0,14.2,5,28.7-1c0,0,0.7,15-2.4,21.3c0,0,19.6-5.5,27.3-17.6l14.4-34.5L194.7,357.3z"/>
			<path class="st1" d="M203.9,145.9c0,0-8.7,12.5-18.3,22c0,0,12.6-7.5,20.1-15.6L203.9,145.9z"/>
			<path class="st1" d="M213.6,151.2l1.3,8.6c0,0,10.6,10.4,30.2,18.3C245.1,178.1,218.3,156.2,213.6,151.2z"/>
			<path class="st1" d="M214.8,174.5c0,0,15.6,10.7,36.2,18.3s24,10.5,24,10.5s-3.7,1.4-11.9,0c0,0,12.3,9.4,29,12.5
				c0,0-12.3,9.9-48.3,2.5c0,0-17.8-3.9-27-12.3L214.8,174.5z"/>
			<path class="st3" d="M200.4,246.7c1.7-0.7,4.6-0.8,6.1,1.6c1.5,2.4,0.4,3.3,1.5,5c1.2,1.8,1.2,4.4-3.8,3.5
				c-4.9-0.8-5.4-3-5.5-5.1S198.5,247.5,200.4,246.7z"/>
			<path class="st3" d="M199.7,340.2c2.2-1.3,7.3-1.5,8.9,1.7c1.6,3.2-2.9,3.6-1,6c1.9,2.4-2.9,6.3-7.5,4.6
				C196.8,351.3,196.3,342.2,199.7,340.2z"/>
			<path class="st1" d="M207.3,53.6c0,0-7.3,20.3-15.2,29.9l8-4c0,0-11.9,24.5-23.2,40.1c0,0,10.8-6.5,17.1-14.6
				c0,0-4.4,12.8-9.4,18.6c0,0,5.2-0.8,11-6.7c0,0-7.7,20.2-25.2,35.2c0,0,16.9-7.9,26.6-21.6c0,0,1.9,7.7,5.2,11l5-11
				c0,0,10.4,18.3,30.4,23.5c0,0-4.8-11.7-5.8-21.6c0,0,6,12.5,27.3,12.5c-4.8-3.5-22.3-21.6-26.4-36.2c0,0,5.8,6.4,15,6.7
				c-1.5-2.5-17.1-15.2-22.1-30.4c0,0,5.2,2.7,12.3,2.7C237.9,87.7,215.6,69.6,207.3,53.6z"/>
			<path class="st2" d="M204.1,97.8c0,0,0,6.8-3.9,12c0,0,3.9-0.5,6.3-3.4c0,0,0.3,3.6,0,7.1c0,0,2.2-1.4,3-4.1"/>
			<path class="st1" d="M200.9,165.9c0,0-29.8,45.4-60,69.8c0,0,8.2-1.6,14.2-6.8c0,0-2.1,10.7-7.6,17.5c0,0,10.9-3.9,23.4-20.5
				c0,0-1.6,22.4-7,34.9c0,0,19.1-17.7,35.3-46.1c0,0,1.7,12.8,1.7,20.7c0,0,5.8-6.6,7.8-15.2c0,0,3.3,21.6,24.9,30
				c0,0-2.9-5.3-2.9-13.1c0,0,9.7,12.3,32.5,14.2c0,0-11.1-8.6-12.3-18.7c0,0,12.5,7.4,24.2,7c0,0-41.2-35.4-61.5-71.5l-7.9,6.8
				L200.9,165.9z"/>
			<path class="st2" d="M223.3,209c0,0,2.9,10,9.9,12.7l-1.7-7.3c0,0,4.8,4.6,9.2,6.1l-4.2-8.2"/>
			<path class="st2" d="M190.6,194.6c0,0-3.7,6-5.9,8.2c0,0,2.5,0.2,4.6-1.1l-2.9,8.2c0,0,3.3-1.4,5.2-4.6"/>
			<path class="st1" d="M197.8,262.8c0,0-27.2,49.3-59.6,71.9c0,0,8.4-1.1,16.6-5.3c0,0-10.4,15.3-16.6,24.8c0,0,10.7-2.1,27.2-14.1
				s22.9-13.3,22.9-13.3s-0.8,6.5-0.4,12c0,0,9.1-10.7,15.8-15.2c0,0,7,8.4,13.1,11.6c0,0,3.5-6.5,8-11.2c0,0,30.1,23.6,61,25
				c0,0-14.5-11.6-18.5-20.2c0,0,13.1,6.7,31.8,3.4c0,0-18.1-8.2-32.4-27.6l13.3-0.6c0,0-42.1-24.6-56.6-40.7l-4.6,9.6
				c0,0-6.3-5.6-9.7-12.3l-7.4,7.9C201.6,268.6,199.1,266.8,197.8,262.8z"/>
			<path class="st2" d="M183.3,300c0,0-2.2,5.1-6.2,7.5c0,0,2.6,0.9,6.2-0.6c0,0-0.1,4.1-1.6,5.7c0,0,3.8-0.4,6.3-3.4"/>
			<path class="st2" d="M234.9,292.2c0,0,5.6,7.9,10.6,11.5c0,0-3.6,1-7.8-0.6c0,0,3.3,5,8.5,7.4c0,0-4.9,0.8-8.5-0.6"/>
			<path class="st1" d="M199.2,347.9c0,0-19.7,29.5-48.3,46.4c0,0,3.8,1.4,7.9,0c0,0-4.3,10.9-12,16.8c0,0,11.4-0.8,21.9-7.6
				c0,0-0.5,19.3-14.8,35c0,0,15.9-7.3,22.8-14.9c0,0,2.2,8.2,0.4,14.9c0,0,13.4-9.2,23.8-25.5c0,0,1.6,7.9,0,13.4
				c0,0,6.9-6.3,10.2-14.9c0,0,4.4,4.7,5.8,9c0,0,1.8-12.2,3.6-15.3c0,0,8.1,6.5,15.1,8.6v-4.9c0,0,5,5.6,12.4,8.4
				c0,0-1.1-10.4,1.3-16.5c0,0,13.6,10,17.3,44.7c0,0,5.5-8.6,7.8-17.4c0,0,10.2,5.2,22.9,3.1c0,0-5.6-6.9-7.8-12.7
				c0,0,8.8,3,18.3-0.6c0,0-24.2-11.4-35.3-25.2c0,0,5.2,1.6,10,0.2c0,0-16.9-7.2-32.5-20.5c-15.5-13.3-24.3-19.1-24.3-19.1
				s0.2,8.3-0.7,12.1c0,0-7.8-8.3-12.8-12.6l-5.8,7.8C206.4,360.5,202.7,353,199.2,347.9z"/>
			<path class="st2" d="M191.9,381.8c0,0-2.6,6.5-5.3,9c0,0,3.2,1,6.3-0.8c0,0-1.7,6.4-4.2,8.9c0,0,3.9-0.5,5.9-3.3"/>
			<path class="st2" d="M241.3,378.8c0,0,4.8,7.4,10.5,9.9c0,0-4.3,1.4-7.4,0c0,0,0.8,1.9,2.1,2.8c0,0-4.6,1-8.2-2.6"/>
		</g>
		<g>
			<path class="st0" d="M318.3,218.2c1,8.1,72.3,19.9,72.3,19.9l20.2,43.6l21.5-124.3l-104.4-9.9C327.9,147.5,316.7,205,318.3,218.2
				z"/>
			<path class="st2" d="M370.8,163.7c0,0,3.8,10.9,6,32.7c2.5,25.1,8.7,34.3,8.7,34.3"/>
			<path class="st2" d="M383.7,187.5c0,0,1,9.9,3.5,19.6"/>
			<path class="st1" d="M322.2,151c-3.5-6.5,7.2-16.4,17.1-21.4c7.4-3.8,13.6-10,26.3-10c16.6,0,38.6,0.9,50.1,8.3
				c11.5,7.4,20.3,26.3,4,32.3c-16.3,6-21.2-6-35.8-2.9c-12.3,2.6-17.4,0.4-24.7-3.9C345.4,145.3,327.7,161.2,322.2,151z"/>
		</g>
		<g>
			<path class="st0" d="M409.3,278.5c-3,23.6-5.2,73.8-5.2,73.8l173.8,57.4c0,0-5.1-45.8,0-89.5s3.2-125.2-4.6-154.3H416.1
				C416.1,165.9,417.8,211.5,409.3,278.5z"/>
			<path class="st2" d="M484.4,163.7c0,0-11.7,36.1-20.5,61.2c-8.8,25.1-17.3,43.4-17.1,43.4"/>
			<path class="st2" d="M537.6,168.4c0,0,2.5,28.5-2.1,56.5s-4.2,97.5-4.2,97.5"/>
			<path class="st2" d="M435.3,325c0,0-4.8,12.3-7.6,30.5"/>
			<path class="st2" d="M539.7,249.3c0,0-1,13.7-1.5,21c-0.3,5.5,0,11.3,0,11.3"/>
			<path class="st2" d="M537.9,297.8c0,0-0.3,9.1-0.9,13.5"/>
			<path class="st2" d="M461.3,212.6c0,0-1.7,4.2-2.7,8.8"/>
			<path class="st2" d="M455.4,228.5c0,0-1.3,4.1-1.8,6.5"/>
			<path class="st1" d="M395,164.1c-5.1-14.4,3.7-32.4,23.5-44.4c19.8-12.1,29.1-7.8,37-9.5c7.9-1.7,17.9-0.5,26.7-2.3
				c8.7-1.9,20.6-4.4,31.4-1c10.8,3.4,13.3,3.6,19.4,7.6c6,4,8.5,9.5,22.5,15.2c14.1,5.7,13.8,10.6,19.8,15.9c6,5.3,9.6,10,8.5,17.8
				s-6.5,8.2-16.2,8.5c-9.8,0.3-17.9,4.7-31.8,1.9c-13.9-2.9-25.8-6.9-38.7-5.9c-12.9,1-26.8,5.4-35.9,5.3c-9-0.1-25,3.6-36.1,3
				S398.1,172.9,395,164.1z"/>
		</g>
		<g>
			<path class="st0" d="M398,268.3c0,0,4.3,32.6,13.4,53.7c0.7,1.6,2.2,2.8,3.9,3.1c5.6,1,18.3,3.4,24,4.7c0.8,0.2,1.7,0.1,2.4-0.4
				c2.7-1.7,9.7-6.2,16.3-9.5c7.5-3.7,15.2-13.1,17.3-19c0.4-1,0.4-2.1,0.1-3.1c-1.3-4.8-5.8-20.8-8-25.3l-44.1-9.1L398,268.3z"/>
			<path class="st2" d="M434.3,269.5c0,0,2.5,19.5,4.2,36.3s3.2,17.6,3.3,23.7"/>
			<path class="st2" d="M441.7,288.9c0,0,1.7,8,2.1,15.2"/>
			<path class="st1" d="M394.5,265.5c-1-5.3,4.9-12.9,17.9-15.5c13-2.6,23.2,2.8,35.4,6.3c12.2,3.5,23,2,25.7,9.3
				c2.8,7.2-6.3,10.6-18.9,10.7s-13.3-5.2-22.4-5.9c-9.1-0.6-9.6-1.6-17.1-0.5S395.9,272.5,394.5,265.5z"/>
		</g>
		<g>
			<path class="st0" d="M382.4,386.1c0,0-7.5,42.8-16.5,78.6s-28.6,93.9-21,101.5c7.7,7.7,27,4.8,42.6,10.3s157,16.1,165.5,7.6
				c8.4-8.4-1.3-31.2,0-57.8c1.3-26.6,1.9-38.3,11.7-60.4c9.7-22.1,12.2-34.5,12.1-46L382.4,386.1z"/>
			<path class="st1" d="M376.7,386.1c-3.1-9.3,4.6-15.7,11.9-21.8c7.3-6.1,10.7-15.3,18.3-16.2c7.6-0.9,15.6,1.6,27.5,4.9
				s13.1-2.7,34.2,6.4s43.1,7.9,67.2,14.4c24.1,6.4,46.7,13.7,51.3,30.5s-7,27.2-20.5,25.7c-13.4-1.5-22.5-13.4-36.6-14.6
				c-14.1-1.2-19,0.6-27.7-2.7c-8.8-3.3-39.4,2.9-52.6-0.2c-13.3-3.1-38.1-7.6-47.5-14.5C392.2,390.7,379.4,394.1,376.7,386.1z"/>
			<path class="st2" d="M533.5,412.4c0,0-5.5,21.8-15.8,46.2c-10.3,24.4-15.6,43.2-18.8,54.4"/>
			<path class="st2" d="M519.3,435.7c0,0-8.7,18.5-12.8,30.8"/>
		</g>
		<g>
			<path class="st0" d="M490.8,290.6c0,0-1.7,7.3-3.4,11.7c-0.5,1.3,0,2.8,1.3,3.4c2.2,1.1,5.4,2.9,7.3,4.6c0.7,0.6,1.6,0.9,2.5,0.6
				c3.7-0.9,13.1-3.3,16.2-5.5c0,0,0.4-7.3-1-9.3L490.8,290.6z"/>
			<path class="st1" d="M488.1,289.1c-0.2-3.6,4.2-7.8,11.7-7.5c7.5,0.3,17.5,6.7,17.1,13s-9.6,5.8-14.4,2.7
				C497.7,294.3,488.4,295.2,488.1,289.1z"/>
			<path class="st2" d="M497,300.2c0,0-1.7,2.8-1.8,5.1"/>
			<path class="st2" d="M500.4,298.9c0,0-2.3,7.3-2,12"/>
		</g>
		<g>
			<path class="st4" d="M339.8,556c0,0,6.4,7.5,8.3,14.8c1.9,7.3,3.2,9.1,3.3,11.1c0,0-6.4,2-16.8,7.4c-10.4,5.4-12.5,7.4-18,8.7
				s-28.5,1.5-37.9,1.1c-9.3-0.4-6.7-39.2-6.7-39.2l33.7-4.8L339.8,556z"/>
			<path class="st1" d="M325.8,543.6c9.7,0.1,18,6,17.2,14.3c-0.8,8.3-26.1,1.6-34.4,2c-8.3,0.4-22.9,15.3-35.3,3.9
				c0,0-5.1-4.4-3-11.5s17-11,26.7-10.4c9.1,0.5,11.8,4.9,18.3,4C319.2,545.3,321.1,543.6,325.8,543.6z"/>
			<path class="st2" d="M311.6,564.5c0,0,0.9,16.7,4.4,28.2"/>
			<path class="st2" d="M317.8,573.7c0,0,0.2,3.8,1.1,5.4"/>
		</g>
		<g>
			<path class="st0" d="M275.4,556.1c0,0,5.5,34.4,8.5,46c3,11.6,5.5,20.9,3.4,23.9c-2.1,3-7.1,14.1-12.9,28.3
				c-5.8,14.2-15.2,23.8-15.2,23.8l-39.3-15.7l-17.5-31.1c0,0,17.1-99,18.4-99c1.3,0,39.5,12.5,39.5,12.5L275.4,556.1z"/>
			<path class="st1" d="M278.1,561.9c4,1.7,7.2-2.4,5.8-6.4c-1.4-4-5.3-12.9-14.6-15.8c-9.3-2.9-9.7-8.5-14.5-11.7
				c-4.5-2.9-14.7-9.9-21.9-13.9c-7.2-4-14.3-3.4-17.5,0c-3.2,3.4-9.5,11.8,3,19.2c12.5,7.4,14.9,6.2,23.2,10.9
				c8.3,4.7,8.1,6.1,17.7,5.8C266.7,549.6,270.7,558.7,278.1,561.9z"/>
			<path class="st2" d="M254.8,559.9c0.8,10,9.6,42,12,56.8"/>
		</g>
		<g>
			<path class="st4" d="M628.4,619c0,0,12.5,39.4,16.2,55.6c0,0-58.4,14.4-72.8,12.1c-14.4-2.3-170.1-7.4-170.1-7.4l29.2-87.6
				l143.1-2.3L628.4,619z"/>
			<path class="st2" d="M600.1,608.7c0,0-0.7,14.1,8.7,49.3"/>
			<path class="st2" d="M609.8,632.7c0,0,5.2,26.2,9.8,33.2"/>
			<path class="st1" d="M424.8,523.2c12.6-13.8,34.3-18.5,63.8-14.9s52-1.9,74.9,10.8s40,40.7,42.5,54.5s7.1,20.8,17,28
				c9.9,7.2,12.6,19.8,8.6,23.2c-4,3.4-8.6-1.1-19.6-4c-11-2.9-23.6-11.5-34.4-13.1c-10.8-1.6-21.6,3.6-39.6,0.7s-49.5-11-62.6-8.1
				S363.7,590,424.8,523.2z"/>
		</g>
		<g>
			<path class="st4" d="M331,663.3l-10.6,42.8c-0.2,1,0.3,2,1.2,2.4l37.9,17.1c0.9,0.4,2,0.6,3,0.6c9.1-0.5,55.9-2.9,88-5.8
				c35.6-3.2,76.7-9.6,93.3-10.5s42.6-5.1,51.7-7.5l27.3-17.4l-9.4-14.7l-94.3-12.3l-48.8,1.6l-50.7,4l-43.7-13.4L331,663.3z"/>
			<path class="st2" d="M361,726.2c0,0,19.5-34.7,36.1-53.5"/>
			<path class="st2" d="M595.6,702.4c-3.8-1.8-27.5-23-39.1-32"/>
			<path class="st2" d="M508.7,682.2c0,0,3,7,4.5,16.2c1.2,7.3,3.6,9.6,3.6,9.6"/>
			<path class="st1" d="M326.1,659.1c-3.4-9,7.8-18,13.5-21c5.7-3.1,16.5-7.8,27.7-10.4c11.1-2.6,27.9-5,44.7-5.2
				c16.8-0.2,42.1-2.1,86.8,0c44.7,2.1,80.4,13.4,92.6,19.5c12.2,6,21.9,13.5,26.6,20.8c4.7,7.3,1.7,13.1-3.4,16.3
				c-5.1,3.2-11.6,2.4-24.7-0.9c-13.1-3.2-29.2-2.6-40.6,0.6c-11.4,3.2-16.1,4.9-28.3,1.1c-12.2-3.9-26-6.9-46.4-5.4
				c-20.4,1.5-35,7.5-53,6.7c-18-0.9-21.7-8.6-33.5-13.3s-25.8-5-41.2-2.4C333.6,667.9,328.1,664.3,326.1,659.1z"/>
		</g>
		<g>
			<path class="st0" d="M127,486.7c0,0-7.2,10.3-12.2,27.8c-5,17.4-12.2,36.3-15.6,52.1c-3.4,15.8-6.9,42.3-6.9,42.3
				s81.6,8.7,84.4,8.4c2.8-0.3,77.9,18.7,77.9,18.7s-2.5-35.5-7.5-50.8c-5-15.3-13.4-39.6-19-49.5s-9.3-27.1-9.3-27.1L181.3,497
				L127,486.7z"/>
			<path class="st1" d="M127.3,493.8c-7.6-4.3-9.7-10.9-8.1-16.2s9.9-9.9,21-9.4c11.2,0.4,25.3,9,34.9,9.7
				c9.6,0.7,13.2,5.4,18.4,5.6c5.1,0.1,11.2-0.1,15.2,6.5s9.5,7.2,12.1,12.7c3.1,6.5,2.5,19.4-8.7,18.4c-11.2-1-15.3-9.4-29.9-11.2
				c-14.6-1.8-15.5-5.3-22.7-9.1C148.2,494.6,137.6,499.7,127.3,493.8z"/>
			<path class="st2" d="M208.9,528.8c0,0,2.7,19.2,3.3,39.9c0.5,20.6,0,27.8,0,27.8"/>
		</g>
		<path class="st0" d="M592.3,361.8c0,0-0.9,28,0,44.2l-14.2,14.6l13.1-8.1c0,0,1.6,11.3,1.1,15.1l-7.1,6.4l-15.8-1.1l11.2,5.3
			l-17.5,19.5c0,0,11.7-5.1,17.5-10.9c5.9-5.8,11.7-12.4,11.7-12.4V465l-25.8,8.2l9.8,1.6c0,0-16.6,11-20,15.3
			c0,0,32.6-17.1,36-20.2c0,0-0.3,26.4-1,32.6l-32,15.8l31.8-9.1l-2.6,49.3l11.5,5.9l1.4-33c0,0,23.6,19.1,32,24.3
			c0,0-23.1-23.4-31-30.1c0.1-2.4-1.5-34.8-1.5-34.8l17,16.4c0,0,4.8,20.2,5.2,26c0,0,2.2-13.3,1.1-19.1c0,0,9.8,5.3,12.9,8.2
			c0,0-31.3-34.6-36-38.6c0,0-2.9-35.7-3.3-40.4c0,0,9.5,8.8,16.9,19.8c7.3,11,14.4,19.7,14.4,19.7l-10.9-24.6l8.4-0.4l-12-3.9
			L597.9,437l-2.2-42.4c0,0,9.5,9,14.2,13.9c0,0-6.7-11.8-14.2-19.5L592.3,361.8z"/>
		<path class="st2" d="M270.3,630.1c0,0,0.4,6.6,1.4,9.5"/>
		<g>
			<path class="st4" d="M74.1,624.4c0,0-13.2,34.9-19.2,56.4c-0.4,1.5,0.2,3,1.5,3.8c3.9,2.3,12.4,7.5,22.4,14
				c13.6,8.8,23.5,15.3,40.3,21.7s21.1,8.6,21.1,8.6s18.9,1.9,32.9,0c14-1.9,49.7-2.8,73,0.9c0,0,7.1-5.6,15.3-9.9
				c7.6-4,15-12.3,23.5-19.9c1.1-1,1.5-2.6,0.8-4c-2-4.2-6.3-13.4-10.3-22c-5.4-11.6-11.8-25-19.6-30.1l-72.3-3.4l-55.1-18.1
				L74.1,624.4z"/>
			<path class="st2" d="M168.7,655.3c0,0-8,13.7-14.2,30.5c-6.2,16.7-12.5,29.3-14.4,43.1"/>
			<path class="st2" d="M165.9,676c-1.5,2.7-3.1,8.2-3.7,13.5"/>
			<path class="st1" d="M70.5,624.3c-5.5-8,1.8-19.1,20.3-25.7s51.8-4.6,65.4-2c13.6,2.6,41.1,0.4,63.4,7.6s38.6,17.3,40.3,31.3
				c1.7,14-3,19.8-11.6,19.8c-8.6,0-16.3-8.4-32.9-6.4s-22.5,4.2-36.3-2c-13.8-6.2-36.7-13.8-59.4-16.3
				C97,628.3,75.9,632.1,70.5,624.3z"/>
			<path class="st2" d="M241.1,666.2c3.2,13.1,8.3,20.7,11.5,38.8"/>
		</g>
		<g>
			<path class="st4" d="M169.8,725.7c0,0-1.9,6.6-3,10.2c-1.1,3.6,1.2,4.8,6.7,6.1c5.5,1.3,9.5,2.8,11.7,0.8s6.8-5,10.3-6
				c3.5-0.9-0.5-16-0.5-16L169.8,725.7z"/>
			<path class="st1" d="M167.2,724.1c-1.1-4.5,5.1-10.4,11.8-10.9s11.6-2.2,17,0c5.4,2.2,5.4,9.8-0.2,11.7
				c-5.6,1.9-9.8-0.8-13.6,2.2C178.5,730,169.1,731.9,167.2,724.1z"/>
			<g>
				<path class="st2" d="M169.2,710.3c0,0,5,3.2,6.5,8.3"/>
				<path class="st2" d="M172.5,700.6c0,0,6.3,9.8,6.3,17.5"/>
				<path class="st2" d="M179.3,699.1c0,0,3.3,12.8,1.7,17.4"/>
				<path class="st2" d="M182.4,718.1c0,0,3.2-4.9,2.6-14.1"/>
			</g>
			<path class="st2" d="M183.8,728.9c0,0,0.7,8.8-0.7,11.6"/>
		</g>
		<g>
			<path class="st4" d="M193.6,708c0,0-3.3,6.6-1.7,17c1.1,7,1.5,11.4,1.6,13.5c0.1,0.9,0.7,1.6,1.6,1.8c4.3,0.6,16.7,2.3,28,3.2
				c9.4,0.8,13.9,1.9,15.8,2.6c0.7,0.3,1.6,0,2.1-0.6c1.5-1.8,4.7-5.5,8.2-7.9c0.7-0.5,1-1.3,0.7-2.1c-1.5-4.8-6.4-21-8.9-25.2
				L193.6,708z"/>
			<path class="st2" d="M233.2,718.7c0,0,3.7,10.9,4.7,19.2"/>
			<path class="st1" d="M188.3,704.9c-1-9,15.5-18.3,21.2-19.4c5.7-1.1,10.6,0.1,13.4,4s7.2,9.9,14.5,13.8c7.2,3.9,7.3,7.9,5.7,9.9
				c-1.6,1.9-7.9,1.2-17.1,0C210.7,711.1,189.6,716.6,188.3,704.9z"/>
			<g>
				<path class="st2" d="M208.1,678.7c0,0,3.3,5.3,3.1,11.2"/>
				<path class="st2" d="M213.7,692.1c0,0,1.7-6.3,0.8-15"/>
				<path class="st2" d="M216.5,690c0,0,1.4-10.5,4.2-13.3"/>
				<path class="st2" d="M217.3,693.5c0,0,4.1-9.2,7.7-11.8"/>
				<path class="st2" d="M220.8,694.4c0,0,4.1-4.7,8.5-6.8"/>
			</g>
			<ellipse class="st3" cx="207" cy="721" rx="1" ry="1.9"/>
			<ellipse class="st3" cx="197.8" cy="718.9" rx="1" ry="1.9"/>
			<ellipse transform="matrix(0.9946 -0.104 0.104 0.9946 -74.6443 25.0532)" class="st3" cx="203" cy="728.6" rx="1.5" ry="4.9"/>
		</g>
		<g>
			<path class="st5" d="M459.2,98.3c0,0,1.3,10.7,0,18s-2.7,13.1,2.5,14.2c5.9,1.3,10.7-5.3,8.7-15.8S465.3,95,465.3,95L459.2,98.3z
				"/>
			<path class="st2" d="M461.5,122.4c0,0-0.6,2.3,0,4.5"/>
			<path class="st2" d="M465.7,122.9c0,0,0.3,2.1-0.5,3.1"/>
			<path class="st2" d="M463.7,122.9c0,0-0.4,0.8,0,2.5"/>
			<path class="st2" d="M463.2,108.7c0,0,0.6,2.4,0,3.7"/>
			<path class="st2" d="M466.2,108.4c0,0,0.3,2.5-0.4,3.3"/>
			<g>
				<path class="st1" d="M450.1,98.3c-0.4,1.9,1.6,1.8,3.1,1.4c1.2-0.3,1.8-3.1,2-4.2c-1.6-0.3-2.9-0.6-3.9-0.9
					C450.8,96.2,450.3,97.6,450.1,98.3z"/>
				<path class="st6" d="M469.6,79.9c-1.3-6.5-5.1-9.6-9.3-8.6c-5.4,1.3-6.4,6.5-6.8,12.7c-0.2,3.9-1.3,7.6-2.2,10.4
					c1,0.3,2.3,0.7,3.9,0.9c0.1,0,0.1,0,0.2,0c2.1,0.3,4.7,0.5,7.8,0.3c1.5-0.1,2.9-0.5,4.2-0.9c0.4-0.1,0.7-0.3,1.1-0.4
					c2.8-1.3,4.8-3.1,5.9-4.3C472.6,87.6,470.4,83.7,469.6,79.9z"/>
				<path class="st1" d="M476,92.5c-0.4-0.5-1-1.3-1.7-2.4c-1.1,1.2-3,3-5.9,4.3c0.9,1.3,2,2.4,2.7,3c0.4,0.3,0.9,0.3,1.3,0l3.5-3.7
					C476.3,93.4,476.3,92.9,476,92.5z"/>
				<path class="st1" d="M455.4,95.5c0.2,1.1,0.3,2.3,0.3,3.1c0,0.5,0.3,1,0.8,1.1c2.5,0.6,8-0.1,9.5-1.1c0.9-0.6,1.2-2.2,1.3-3.7
					c-1.3,0.5-2.7,0.8-4.2,0.9C460.1,96,457.5,95.8,455.4,95.5z"/>
			</g>
			<g>
				<path class="st2" d="M457.3,81.1c0,0-0.4,2.4,0,3.5"/>
				<path class="st2" d="M456.7,89.3c0,0-0.3,1.7,0,2.5"/>
				<path class="st2" d="M460.4,87.9c0,0,0,1.6,0.9,2.7"/>
			</g>
		</g>
		<g>
			<path class="st2" d="M326.3,128c0,0,7.9,0.7,15.9,7.8"/>
			<path class="st2" d="M332.2,103.7c0,0,10.6,13.8,13,29.7"/>
			<path class="st2" d="M340.1,99.2c0,0,6.4,17.2,8.3,34.9"/>
			<path class="st2" d="M350.8,101.8c0,0,0.3,21.1,1.4,32.3"/>
			<path class="st2" d="M363.2,107.4c0,0-6.8,14.3-7.9,22.8"/>
			<path class="st2" d="M360.2,129c0,0,5.3-10.9,11.9-16.4"/>
			<path class="st2" d="M329.6,122.7c0,0,8.2,3.4,13.5,10.8"/>
		</g>
		<g>
			<path class="st2" d="M493.1,147.1c0,0,3.4,2.4,5.9,6.9"/>
			<path class="st2" d="M497.9,142.2c0,0,5,5.2,6.3,11.3"/>
			<path class="st2" d="M505.2,138.5c0,0,1.7,5.9,1.2,14"/>
			<path class="st2" d="M511.4,138c0,0-1.8,8.5-1.9,15.6"/>
			<path class="st2" d="M518,142.6c0,0-5.7,7.1-6.6,12.4"/>
			<path class="st2" d="M515.8,151.4c0,0,2.8-2.7,5.5-3.6"/>
			<path class="st2" d="M515.8,155.8c0,0,3.1-2.2,6-2.7"/>
		</g>
		<g>
			<path class="st2" d="M537.3,131.8c0,0,0.6-15.7-1.6-24.4"/>
			<path class="st2" d="M540.3,136.1c0,0,3.3-23.2,11.3-38.7"/>
			<path class="st2" d="M542.9,138.5c0,0,11.3-31.5,27-45.4"/>
			<path class="st2" d="M546,139.8c0,0,11.5-24,24.8-34.7"/>
			<path class="st2" d="M548.3,141.4c0,0,14.2-17.8,28-24.6"/>
			<path class="st2" d="M550.6,144.3c0,0,10-12.2,24.7-16.8"/>
			<path class="st2" d="M555.9,145.7c0,0,8.6-7.4,20.5-9.9"/>
			<path class="st2" d="M563,145.7c0,0,7-3.6,12.3-3.1"/>
		</g>
		<g>
			<path class="st2" d="M421.8,244.6c0,0,5.3,4.9,7.2,13.6"/>
			<path class="st2" d="M427.1,242c0,0,3.8,7.9,3.7,16.7"/>
			<path class="st2" d="M433.8,238.4c0,0-0.6,14.7,0,23.5"/>
			<path class="st2" d="M436.2,261.9c0,0,0.8-15,7-23.5"/>
			<path class="st2" d="M439.1,260.6c0,0,3.7-11.7,7.8-15.9"/>
			<path class="st2" d="M441.4,262.8c0,0,2.6-6.4,6.2-9.4"/>
		</g>
		<g>
			<path class="st2" d="M381.9,377.3c-4.7-3.9-13.7-3.3-13.7-3.3"/>
			<path class="st2" d="M368.3,361.5c0,0,9.5,5.5,15.4,15"/>
			<path class="st2" d="M370.7,353.5c0,0,9.9,9.5,13.7,21"/>
			<path class="st2" d="M376,347.6c0,0,6.9,10,9.7,23.6"/>
			<path class="st2" d="M384.6,349.7c0,0,4.4,14.4,2.4,26"/>
			<path class="st2" d="M391.4,352.7c0,0,1.8,10.8-0.5,19.8"/>
		</g>
		<g>
			<path class="st2" d="M554.1,404.1c0,0,0.4,6.8,2.2,9.9"/>
			<path class="st2" d="M559.5,414c0,0-0.2-9,0.8-11"/>
			<path class="st2" d="M564.9,400.8c0,0-1.9,6.9-1.7,13.8"/>
			<path class="st2" d="M564.9,414.6c0,0,3.8-8.6,9.2-12.6"/>
			<path class="st2" d="M568.3,414.6c0,0,3.5-4.9,6.6-6.9"/>
			<path class="st2" d="M569.5,417.2c0,0,3.3-2.4,5.5-2.6"/>
			<path class="st2" d="M570.9,420.5c0,0,2.2-1,4.5-0.7"/>
		</g>
		<path class="st2" d="M573.4,555.1c0,0,2.8,3.3,2.7,9.8"/>
		<path class="st2" d="M577.7,546.3c0,0,4.6,12.9,1.4,21.5"/>
		<path class="st2" d="M582.6,569.7c0,0,3.4-24.6,13.7-35.6"/>
		<path class="st2" d="M586.8,571.5c0,0,2-20.6,18.9-31.8"/>
		<path class="st2" d="M586.8,574.5c0,0,8.1-14.6,26.5-20.3"/>
		<path class="st2" d="M588.6,576.6c0,0,8.5-10.8,27.7-8.8"/>
		<path class="st2" d="M592.5,577.7c0,0,14.9-3.1,25.4,4.1"/>
		<path class="st2" d="M594.4,581.8c0,0,5.1,0.7,8.1,3"/>
		<g>
			<path class="st2" d="M554.9,586.1c0,0,1.3,5.4,4.3,7.7"/>
			<path class="st2" d="M561,592.8c0,0-1.6-5.4-1-9.6"/>
			<path class="st2" d="M563.2,591.8c0,0-0.5-7.6,0.6-10.4"/>
			<path class="st2" d="M565.5,592.4c0,0,0.6-8.2,3.1-11.9"/>
			<path class="st2" d="M567.1,593.8c0,0,2.6-7.7,5.8-9.9"/>
			<path class="st2" d="M570.3,592.8c0,0,1.4-3.3,4.4-4.8"/>
			<path class="st2" d="M572.5,596.4c0,0,2.8-2.4,5.2-3.5"/>
		</g>
		<g>
			<path class="st2" d="M339.1,629.3c0,0,8,0.8,12.3,10.3"/>
			<path class="st2" d="M342.5,612c0,0,8.5,10.6,12.1,26.1"/>
			<path class="st2" d="M350.5,608.2c0,0,6.8,12.9,7.7,29.9"/>
			<path class="st2" d="M360.2,636.8c0,0,1.7-19,1.4-28.5"/>
			<path class="st2" d="M363.3,635.7c0,0,0.9-14.2,5.2-21.4"/>
			<path class="st2" d="M366.4,634.4c0,0,2.3-7.3,7.1-11.3"/>
		</g>
		<g>
			<path class="st2" d="M78.9,617.1c-8.8-2.4-18.7,1.5-18.7,1.5"/>
			<path class="st2" d="M52,611.6c0,0,16.7-1.9,27.8,4.7"/>
			<path class="st2" d="M52.3,603c0,0,15.6,3.9,27.9,12.6"/>
			<path class="st2" d="M55.8,595.2c0,0,11.5,6.4,21.1,17"/>
			<path class="st2" d="M63.6,587.1c0,0,12.6,12.1,16.2,25.1"/>
			<path class="st2" d="M72.3,578.8c0,0,8.3,12.6,9.9,36.9"/>
			<path class="st2" d="M83.6,580.1c0,0,4,20.4,1.3,31.2"/>
			<path class="st2" d="M91.6,587.1c0,0,0.5,19.3-5.7,26.8"/>
		</g>
		<g>
			<path class="st5" d="M425.6,77.6c0,0-0.7,16.8,2.9,37.5c3.6,20.7,25.6,12.3,18.7-1c-6.9-13.3-10.3-15.7-10.2-35.3l-6.6-8.3
				L425.6,77.6z"/>
			<g>
				<path class="st1" d="M452,71.8c-4.4,4.3-9.1,6.6-13.6,7.6c0.5,1,1.1,2.1,1.9,3.1c2.3,2.8,8.7-0.2,11.2-1.9
					c2.4-1.7,2.1-5.8,0.6-8.6C452.1,71.9,452,71.8,452,71.8z"/>
				<path class="st1" d="M413.4,78.2c-0.1,5.5,8,7.8,11.4,7.9c1.7,0.1,3.1-3.2,4.1-6.5c-5.5-0.8-10.3-3.3-13.1-5.8
					C414.4,76.5,413.4,78.2,413.4,78.2z"/>
				<path class="st6" d="M452,71.8c-1.8-2.9-11.6-9.5-14.9-22.9c-3.2-13.1-9.5-13.8-12.5-9.8c-3.6,4.7-3.1,13.2-4.5,21.7
					c-0.8,4.8-2.8,9.6-4.4,13c2.8,2.5,7.6,5,13.1,5.8c0.9-3.2,1.4-6.4,1.4-6.4s1.1,3.4,1.8,6.7c1.8,0.1,3.6-0.1,5.4-0.4
					c-0.1-1.9-0.5-3.5-0.5-3.5s0.4,1.5,1.3,3.3C442.9,78.4,447.6,76.1,452,71.8z"/>
				<path class="st1" d="M432.1,79.9c0.1,0.6,0.3,1.2,0.4,1.8c0.7,3.7,1.8,3.9,4,3.2c1.2-0.4,1.3-3.1,1.1-5.4
					C435.7,79.9,433.9,80,432.1,79.9z"/>
			</g>
			<path class="st2" d="M434.3,118.3c0,0,0.1,3.6,1.7,5.1"/>
			<path class="st2" d="M438.4,118.3c0,0,0,3.1,1.2,4.5"/>
			<path class="st2" d="M441.7,117.8c0,0,0.5,3.1,0,4.5"/>
			<path class="st2" d="M444.9,117.8c0,0,0.4,2.9-0.7,4"/>
			<path class="st2" d="M429.6,95.5c0,0-0.2,2.9,0.9,4.7"/>
			<path class="st2" d="M434.3,95.5c0,0,0.6,2.5,0.2,3.6"/>
			<path class="st2" d="M425.3,52.5c0,0-0.4,2,0,4.2"/>
			<path class="st2" d="M424.2,64.7c0,0-1.1,2.7-1,4.2"/>
			<path class="st2" d="M427.2,61.1c0,0,0.6,1.5,0.6,3"/>
		</g>
		<g>
			<path class="st5" d="M479.8,71.8c0,0,1.4,15.6,0,29.7c-1.4,14.1-6.7,20.9-3.6,24c3.1,3.1,15.5,2.5,19.1-5.3
				c3.7-7.8-2.6-41-5.6-49.6s-8.2-4.6-8.2-4.6L479.8,71.8z"/>
			<g>
				<path class="st1" d="M471.9,64.5c-2.4,7.2-0.2,7.9,2.7,8.6c3.1,0.8,7,1.8,8.3,0c1.1-1.5,2.4-4.7,2.8-5.7
					C479.5,67.9,474.4,65.8,471.9,64.5z"/>
				<path class="st6" d="M488.9,43.6c-3.4-10.2-5.4-12.1-8.4-11.5c-3.5,0.6-3.2,5.8-3.6,9.5c-0.7,5.5-1.4,13.3-4.6,21.7
					c-0.2,0.4-0.3,0.8-0.4,1.2c2.6,1.3,7.6,3.4,13.8,2.9c0.1,0,0.1,0,0.2,0c0.7-0.1,1.4-0.1,2.1-0.3c1.5-0.3,2.9-0.7,4.2-1.1
					c0,0,0,0,0,0c3.2-1.1,5.7-2.5,7.3-3.7C496.5,57.9,491.3,50.7,488.9,43.6z"/>
				<path class="st1" d="M499.6,62.2c-1.7,1.2-4.1,2.7-7.3,3.7c0.5,1.1,3,5.9,5.2,5.2c2.4-0.8,4.9-3.1,4.5-5.1
					C501.8,65.4,500.9,64.1,499.6,62.2z"/>
				<path class="st1" d="M485.9,67.4c0.2,1.3,1.1,6,2.2,6.1c1.3,0.1,4.2-0.6,4.9-1.7c0.6-1-0.5-4.8-0.8-5.8
					c-1.3,0.4-2.7,0.8-4.2,1.1C487.3,67.2,486.6,67.3,485.9,67.4z"/>
			</g>
			<path class="st2" d="M479.4,47.2c0,0,0.1,3.4-0.9,5.2"/>
			<path class="st2" d="M481.5,55.4c0,0-0.2,3.1-1.2,4.6"/>
			<path class="st2" d="M480.8,117.4c0,0,0.2,2.2-0.6,4"/>
			<path class="st2" d="M484.2,117.4c0,0,0.3,2.7-0.6,4"/>
			<path class="st2" d="M487.4,117.1c0,0,0.2,2.6-0.4,3.5"/>
			<path class="st2" d="M490.7,116.1c0,0,0.6,2.2,0,3.5"/>
			<path class="st2" d="M483.4,90.9c0,0,0.7,2.6,0,4.7"/>
			<path class="st2" d="M486.7,91.2c0,0,0.8,2.2,0.3,3.8"/>
			<path class="st2" d="M489.8,90.8c0,0,0.6,2,0.5,3.6"/>
		</g>
		<g>
			<path class="st5" d="M565.1,219.6c0,0,1.1,9.6-3.1,18c-4.2,8.5-12.9,9.6-12.7,16.4c0.2,6.8,8.5,14.7,16,6.8
				c7.4-7.9,12.6-21,11.3-42.9l-2.6-11.6l-4.8,1.8L565.1,219.6z"/>
			<g>
				<path class="st1" d="M554.8,216.2c0.1,4.4,7.9,7.9,11.8,5.9c1.7-0.9,3.1-3,4-5c-6.4-0.3-11.5-2.7-14.1-4.3
					C555.4,213.8,554.7,214.8,554.8,216.2z"/>
				<path class="st6" d="M575,180.8c-4.4,1.3-5.7,6.6-9.4,18.2c-2.6,8.1-6.9,11.1-9.2,13.7c2.7,1.6,7.7,4,14.1,4.3
					c1.1-2.5,1.7-4.9,1.7-4.9l0.5,4.9c1.1,0,2.3-0.1,3.5-0.3c1.6-0.3,3.1-0.6,4.5-1l0.1-0.4l0.1,0.4c3.1-0.9,5.5-2.2,7.4-3.5
					c-1.5-4.8-5.2-11.6-5.3-19.4C582.7,182.1,579,179.7,575,180.8z"/>
				<path class="st1" d="M582.4,220.1c0.4,1.2,1.8,1.6,2.8,1c1.2-0.8,2.7-2.1,3.4-4.3c0.4-1.2,0.2-2.7-0.4-4.6
					c-1.9,1.3-4.3,2.5-7.4,3.5L582.4,220.1z"/>
				<path class="st1" d="M572.7,217l0.3,3.3c0.1,1,0.9,1.7,1.9,1.7h3.2c1,0,1.8-0.7,1.9-1.7l0.6-4.7c-1.4,0.4-2.8,0.8-4.5,1
					C575,216.9,573.8,217,572.7,217z"/>
			</g>
			<path class="st2" d="M572.3,191.6c0,0-0.7,2.3-1.1,4.2"/>
			<path class="st2" d="M572.3,201.6c0,0-0.9,2.3-1.1,3.2"/>
			<path class="st2" d="M568.5,204.8c0,0-1.5,1.9-1.8,3"/>
			<path class="st2" d="M552,254.3c0,0,1-2.7,3.5-4.5"/>
			<path class="st2" d="M554.5,256.6c0,0,0.9-2,3-4"/>
			<path class="st2" d="M557.5,259.6c0,0,1.4-1.3,2.5-3.9"/>
			<path class="st2" d="M562.3,258.1c0,0-0.9,1.8-2.3,2.7"/>
			<path class="st2" d="M566.1,233.3c0,0-0.1,2.5-0.9,4"/>
			<path class="st2" d="M568.4,234.2c0,0-0.1,2.1-1.3,3.1"/>
			<path class="st2" d="M570.5,234.2c0,0,0,1.7-0.6,2.6"/>
		</g>
		<g>
			<path class="st5" d="M569.9,256.6c0,0-0.8,9.9-5.4,15.6c-4.6,5.7-8.8,8.4-6.9,12.5c1.9,4.1,8.4,4.5,11.6,0
				c3.1-4.5,8.3-17.7,9.8-27.1c0.8-2.7-1.4-8.3-1.4-8.3l-4.4,1.4L569.9,256.6z"/>
			<g>
				<path class="st1" d="M564.3,253.8c0.5,2.4,2.8,4.8,6.2,5.6c2,0.5,3.3-1.9,4-4c-4.2-0.7-7-2.7-8.6-4.2
					C565.2,252.4,564.5,253.3,564.3,253.8z"/>
				<path class="st1" d="M584,259.6c3.4,0.1,5.4-3,5.4-3s-1.2-1.1-2.5-3.2c-1.6,0.8-3.4,1.5-5.5,1.9
					C582.5,257.5,584,259.6,584,259.6z"/>
				<path class="st6" d="M577.4,232.4c-3.8,0.3-5.2,3.5-6.9,9.6c-1.1,3.9-3.1,7.1-4.6,9.3c1.6,1.5,4.4,3.5,8.6,4.2
					c0.5-1.5,0.8-2.8,0.8-2.8c0.8,0.7,1.2,1.9,1.4,3.1c0.7,0,1.5,0,2.3,0c0.7,0,1.4-0.1,2.1-0.2c-0.1-1.1-0.2-2-0.2-2.5
					c0-0.1,0-0.2,0-0.3c0,0,0,0.1,0,0.3c0.1,0.8,0.4,1.6,0.7,2.4c2.1-0.4,3.9-1.1,5.5-1.9c-1.3-2.1-2.6-5.1-3-8.9
					C583.3,236.8,581.9,232,577.4,232.4z"/>
				<path class="st1" d="M576.7,255.7c0.3,1.9,0,3.9,0,3.9c1.8,0.6,4,0,4,0c0.5-0.7,0.5-2.6,0.4-4.2c-0.7,0.1-1.4,0.2-2.1,0.2
					C578.2,255.7,577.4,255.7,576.7,255.7z"/>
				<path class="st2" d="M580.9,252.9c0-0.2,0-0.3,0-0.3C580.8,252.7,580.8,252.8,580.9,252.9z"/>
			</g>
			<path class="st2" d="M575,239.2c0,0-0.2,1.9-1,2.5"/>
			<path class="st2" d="M572.6,246.2c0,0-0.2,1.5-1.1,2.4"/>
			<path class="st2" d="M576.7,244.4c0,0-0.1,2.2-1.1,3.1"/>
			<path class="st2" d="M570.6,267.2c0,0-0.4,2.2-1.2,3.1"/>
			<path class="st2" d="M562.3,278.8c0,0-0.5,1.3-2,2.2"/>
			<path class="st2" d="M563.7,281.1c0,0-0.9,1.8-1.9,2.1"/>
			<path class="st2" d="M565.9,282.1c0,0-0.6,1.8-1.4,2.4"/>
		</g>
		<g>
			
				<ellipse transform="matrix(0.2087 -0.978 0.978 0.2087 -264.8239 700.2257)" class="st5" cx="300.3" cy="513.8" rx="7.3" ry="11.3"/>
			<polyline class="st2" points="289.3,511.4 306.4,520.7 295.9,506.4 			"/>
			<path class="st2" d="M307.2,508.8l-0.8,11.9c0,0,7.9,14,10.1,36.2"/>
			<ellipse transform="matrix(0.678 -0.735 0.735 0.678 -285.3492 408.4713)" class="st5" cx="323.6" cy="530" rx="10.2" ry="7.4"/>
			<path class="st5" d="M308,536.8c0,0-9.7,1.7-13.4-4.5C290.9,526,303.3,525.3,308,536.8z"/>
			<polyline class="st2" points="331.5,523.5 319.4,538.9 316.8,526.8 			"/>
			<path class="st2" d="M324.1,521.2l-4.8,17.6c0,0-2.6,10.2-1.8,18.1"/>
			<path class="st2" d="M295,528.3c0,0,7.6,2.5,13,8.4c0,0,4.4,5,7.2,11.3"/>
		</g>
		<g>
			<path class="st2" d="M235.4,634.4c0,0,2.6,2.2,3.5,5.2"/>
			<path class="st2" d="M240.4,628c0,0,2.2,7.3,1.8,13.2"/>
			<path class="st2" d="M246.8,626.7c0,0-1.4,6.9-1.2,13.8"/>
			<path class="st2" d="M247.4,642c0,0,2.5-7.3,5.6-8.9"/>
			<path class="st2" d="M250.2,643.1c0,0,2.4-2.7,5-3.5"/>
			<path class="st2" d="M251.4,645.7c0,0,2.6-0.4,5-0.4"/>
		</g>
		<g>
			<path class="st5" d="M523,490.7c0,0-0.5,14.4-4.8,24.9c-4.3,10.5-10.1,17.5-7,21.6c3.1,4.1,15.1,5.9,17.2-3
				c2.1-9,1.3-16.4,3.8-23.7c2.5-7.4,0-24.9,0-24.9l-5-4.5L523,490.7z"/>
			<g>
				<path class="st1" d="M521.7,487.5c-3.5,0-6.1-0.5-7.9-1.1c-1.6,2-2.7,3.9-1.9,5.9c3.2,2.4,10.5,3.9,12.3,2.5
					c1.1-0.9,2.7-4.2,3.6-6.5C526.4,487.9,524.7,487.5,521.7,487.5z"/>
				<path class="st6" d="M536.3,489.2c3.4-0.5,6-0.5,8-0.4c-2.2-4.3-5.8-10-6.5-14.4c-1.2-7-2.1-17.2-8.1-16.2
					c-6,1-7.5,13.6-10.8,21c-1.3,2.8-3.4,5.1-5,7.2c1.8,0.6,4.5,1.2,7.9,1.1c2.9,0,4.7,0.3,6.1,0.8c0.5-1.2,0.9-2.1,0.9-2.1
					s0.3,1.1,0.6,2.6C530.9,489.4,532.6,489.8,536.3,489.2z"/>
				<path class="st1" d="M536.3,489.2c-3.7,0.6-5.4,0.2-7-0.4c0.3,1.8,0.7,4.2,0.7,6.5c0,0,1.8,2.6,5.8,0.6c4-1.9,7.8,0.9,9.8-1.5
					c0.8-0.9,0-3-1.3-5.6C542.3,488.7,539.6,488.6,536.3,489.2z"/>
			</g>
			<path class="st2" d="M526.4,468c0,0-0.6,2.4-0.6,4.9"/>
			<path class="st2" d="M529.6,475.8c0,0-0.3,2.4,0,3.6"/>
			<path class="st2" d="M515.2,530.2c0,0-1.1,2.1-0.9,4.9"/>
			<path class="st2" d="M517.2,532.4c0,0-0.7,1.6-0.3,3.2"/>
			<path class="st2" d="M520.3,533.2c0,0-0.8,1.5-0.5,3.6"/>
			<path class="st2" d="M523.9,533.2c0,0-0.7,2.1-0.5,3.6"/>
			<path class="st2" d="M522.6,510.8c0,0-0.4,1.5-0.3,3.3"/>
			<path class="st2" d="M525.1,512.1c0,0-0.6,2.3-0.2,3.9"/>
			<path class="st2" d="M528.8,511.8c0,0-0.5,2.3-0.5,3.3"/>
		</g>
		<g>
			<path class="st5" d="M545.1,526.3c0,0-0.6,7.1-1.9,14.3c-1.4,7.2-2.6,14.1-0.5,17.6c2.1,3.4,8.5,4.9,11.7,1.9
				c3.2-3.1-1.9-10.1-1.4-18.3c0.5-8.2,1.6-19.1,1.6-19.1l-2-5.9l-4.8,1.6L545.1,526.3z"/>
			<g>
				<path class="st6" d="M559.6,516.1c-2.7-3-4.4-8.8-4.8-13.6c-0.5-5.8-7.3-9.3-13.3,7.1c-1.2,3.2-2.8,6.7-4.5,9.5
					c1.5,1.7,4.5,3.8,10.1,4c1.1,0,2.1,0,3.1,0c0.5-1.2,1-2.6,1.3-3.9c0,0,0.3,1.7,0.5,3.7c4.8-0.6,7.6-2.3,10.5-2.2
					C561.9,519.3,561,517.6,559.6,516.1z"/>
				<path class="st1" d="M547.1,523.1c-5.6-0.2-8.6-2.4-10.1-4c-1.1,1.9-2.1,3.5-3,4.4c-0.3,0.4-0.3,1,0,1.4c1.6,1.6,6,5.3,12.6,4.2
					c0.3,0,0.5-0.2,0.7-0.5c0.5-0.9,1.8-3,2.9-5.6C549.3,523.1,548.3,523.2,547.1,523.1z"/>
				<path class="st1" d="M562.6,520.7c-2.9-0.1-5.7,1.6-10.5,2.2c0.2,1.7,0.3,3.6,0.2,4.8c0,0.4,0.2,0.7,0.5,0.9
					c0.7,0.4,2.1,0.9,3.4,0c0.2-0.1,0.3-0.3,0.3-0.5c0.2-0.8,0.6-2.8-0.1-4.9c0,0,2,1.6,2.5,3.6c0.1,0.5,0.7,0.8,1.2,0.7
					c1.1-0.2,2.9-0.9,3.6-2.4c0.1-0.2,0.1-0.4,0.1-0.6C563.6,524,563.3,522.5,562.6,520.7z"/>
			</g>
			<path class="st2" d="M548.8,504.1c0,0-1.1,1.8-1.1,4.3"/>
			<path class="st2" d="M551,507.1c0,0-0.1,2.6,0.6,4.4"/>
			<path class="st2" d="M545.9,553c0,0-0.3,2.8,1.1,4.5"/>
			<path class="st2" d="M549.1,554.7c0,0,0,1.6,0.8,2.8"/>
			<path class="st2" d="M551.4,555.1c0,0,0.6,1.9,1.8,2.6"/>
			<path class="st2" d="M545.5,539.1c0,0-0.1,1.7,0.3,3.4"/>
			<path class="st2" d="M548.5,538.2c0,0-0.9,2-0.5,3.9"/>
			<path class="st2" d="M550.8,538.2c0,0-0.8,1.4-0.9,3"/>
		</g>
		<g>
			<path class="st5" d="M143.2,460.3c0,0,0.8,7.9,4.1,18.1s4.8,17.9,11.3,17.7c6.5-0.1,10.2-4,7-7.5c-3.2-3.6-6.9-8.7-9.8-18.5
				s-0.8-16.4-0.8-16.4l-7.6-5.8L143.2,460.3z"/>
			<g>
				<path class="st1" d="M147.5,452.5c-3.2,2.4-4,5.5-8.9,4.1c-2.2-0.7-4.7-1-6.7-1.2c-0.2,0.4-0.5,0.9-0.7,1.3
					c-2.8,4.2-0.5,9.2,5.4,7.4c5.9-1.8,10.1,0.8,13.3,0c3.2-0.8,0.8-11.1,0.8-11.1c4,2.9,4.3,9.6,4.3,9.6l8-0.8
					c1.3-1.5,0.9-6.6-2.5-10.5C155.9,449.7,151.2,449.8,147.5,452.5z"/>
				<path class="st6" d="M147.5,452.5c3.6-2.7,8.3-2.9,12.9-1.3c-0.4-0.4-0.8-0.8-1.2-1.2c-4.5-4-10.7-10.5-11.7-17.7
					c-1-7.3-4.7-9.6-8.4-7.8c-3.3,1.7-4.2,4.2-4.1,12c0.1,7.1-0.7,14.4-3,18.9c2,0.2,4.4,0.6,6.7,1.2
					C143.5,458,144.3,454.9,147.5,452.5z"/>
			</g>
			<path class="st2" d="M139.9,438.1c0,0,0.1,1.9,0,3.5"/>
			<path class="st2" d="M138.4,447.9c0,0,0.5,2.1-0.4,3.8"/>
			<path class="st2" d="M142.7,445.9c0,0,0.4,2.4,0,3.9"/>
			<path class="st2" d="M157.9,456.2c0,0,1.6,2.3,1.3,4.4"/>
			<path class="st2" d="M156,489.8c0,0,0.3,2.4,2.2,3.4"/>
			<path class="st2" d="M159.3,489.8c0,0,0.5,2.2,3,2.5"/>
		</g>
		<g>
			<g>
				<path class="st6" d="M181.2,469.8c1.6-1.1,3.9-1.7,6.5-0.6c-1.8-3.2-3.7-6.7-4-11.4c-0.4-6.4-2.4-8.8-5.8-8.7
					c-3.4,0.1-5.6,3.2-5.6,9.4c0,4-1,8.4-2.4,11.8c1.3,0,3,0.2,4.5,0.8C177.5,472.2,179.3,471.2,181.2,469.8z"/>
				<path class="st5" d="M189.6,472.7c-0.6-1.2-1.2-2.3-1.9-3.5c-2.6-1.2-4.9-0.6-6.5,0.6c-1.9,1.4-3.7,2.4-6.8,1.2
					c-1.5-0.6-3.2-0.8-4.5-0.8c-0.8,1.8-1.6,3.4-2.6,4.3c0,0-1.6,2.2,0.5,2.9c0,0,5.8-0.9,7.3-4c0,0,0.4,4.9-2.2,13.7
					c-2.6,8.8-3.4,11.9-0.4,13.6c3.1,1.7,7.6,0.1,8-6.1c0.4-6.2,0.1-19.1,1.6-21.9c0,0,2.1,2.9,2.1,5.9
					C186,479.4,191.5,476.6,189.6,472.7z"/>
			</g>
			<path class="st2" d="M175.8,459.1c0,0-0.2,1.5-0.1,3.1"/>
			<path class="st2" d="M177.7,465.4c0,0-0.1,1.7,0,2.8"/>
		</g>
		<g>
			<g>
				<g>
					
						<ellipse transform="matrix(0.7933 -0.6089 0.6089 0.7933 -336.3979 335.2668)" class="st5" cx="325.5" cy="663" rx="11.8" ry="19.1"/>
					<polyline class="st2" points="310.6,655 334,679.6 325.5,647.9 					"/>
					<polyline class="st2" points="313.9,647.9 334,679.6 343.8,729.8 334,706.5 322.3,688.8 					"/>
				</g>
				
					<ellipse transform="matrix(0.4146 -0.91 0.91 0.4146 -443.7829 705.3575)" class="st5" cx="326.4" cy="697.6" rx="7.9" ry="12.7"/>
				<polyline class="st2" points="314.8,692.4 333.7,706.1 334,693.2 				"/>
			</g>
			<g>
				
					<ellipse transform="matrix(0.8335 -0.5525 0.5525 0.8335 -319.7076 314.4688)" class="st5" cx="362" cy="687.8" rx="14.8" ry="10.3"/>
				<polyline class="st2" points="354.3,680.6 356.8,699.6 369.5,676.3 				"/>
				<polyline class="st2" points="375.5,682.8 356.8,699.6 343.8,729.8 				"/>
			</g>
		</g>
		<g>
			<g>
				<g>
					<g>
						<g>
							<path class="st7" d="M543.3,343.8c0,0,5-4.8,10.9,1.8C560.1,352.1,538.6,358.4,543.3,343.8z"/>
							<path class="st2" d="M543.3,343.8c0,0,5-4.8,10.9,1.8C560.1,352.1,538.6,358.4,543.3,343.8z"/>
						</g>
						<g>
							<path class="st7" d="M550.3,346.8c0,0,6-4.4,8,3s-0.3,15.5,2.7,26s-8,21.3-15.3,19.3C538.3,393.1,550.3,346.8,550.3,346.8z"
								/>
							<path class="st2" d="M550.3,346.8c0,0,6-4.4,8,3s-0.3,15.5,2.7,26s-8,21.3-15.3,19.3C538.3,393.1,550.3,346.8,550.3,346.8z"
								/>
						</g>
						<g>
							<path class="st7" d="M539.7,396.4c6.3,0,14.5-4.5,14.5-16.6c0-12.1-2.6-19.2-1.5-23.6c1.1-4.4-1.1-14-13-12.2
								c-11.9,1.8-11.9,15.2-11.9,28.4S527.4,396.4,539.7,396.4z"/>
							<path class="st2" d="M539.7,396.4c6.3,0,14.5-4.5,14.5-16.6c0-12.1-2.6-19.2-1.5-23.6c1.1-4.4-1.1-14-13-12.2
								c-11.9,1.8-11.9,15.2-11.9,28.4S527.4,396.4,539.7,396.4z"/>
						</g>
					</g>
				</g>
				<path class="st6" d="M538.9,396.4c-5.5-3.5-5-12.6-5-12.6"/>
				<path class="st6" d="M537.7,376.4c0,0-1.3,15.4,2.6,20"/>
				<path class="st6" d="M542.4,384.2c0,0,0.5,9.1-1,12.1"/>
			</g>
			<g>
				<g>
					<g>
						<g>
							<path class="st7" d="M506,330.6c0,0,5-4.8,10.9,1.8C522.8,338.9,501.3,345.2,506,330.6z"/>
							<path class="st2" d="M506,330.6c0,0,5-4.8,10.9,1.8C522.8,338.9,501.3,345.2,506,330.6z"/>
						</g>
						<g>
							<path class="st7" d="M513,333.7c0,0,6-4.4,8,3s-0.3,15.5,2.7,26c3,10.5-8,21.3-15.3,19.3C501,379.9,513,333.7,513,333.7z"/>
							<path class="st2" d="M513,333.7c0,0,6-4.4,8,3s-0.3,15.5,2.7,26c3,10.5-8,21.3-15.3,19.3C501,379.9,513,333.7,513,333.7z"/>
						</g>
						<g>
							<path class="st7" d="M502.4,383.3c6.3,0,14.5-4.5,14.5-16.6s-2.6-19.2-1.5-23.6c1.1-4.4-1.1-14-13-12.2
								c-11.9,1.8-11.9,15.2-11.9,28.4S490.1,383.3,502.4,383.3z"/>
							<path class="st2" d="M502.4,383.3c6.3,0,14.5-4.5,14.5-16.6s-2.6-19.2-1.5-23.6c1.1-4.4-1.1-14-13-12.2
								c-11.9,1.8-11.9,15.2-11.9,28.4S490.1,383.3,502.4,383.3z"/>
						</g>
					</g>
				</g>
				<path class="st6" d="M501.6,383.3c-5.5-3.5-5-12.6-5-12.6"/>
				<path class="st6" d="M500.5,363.2c0,0-1.3,15.4,2.6,20"/>
				<path class="st6" d="M505.1,371c0,0,0.5,9.1-1,12.1"/>
			</g>
			<g>
				<g>
					<g>
						<g>
							<path class="st7" d="M468.7,317.4c0,0,5-4.8,10.9,1.8C485.5,325.8,464,332,468.7,317.4z"/>
							<path class="st2" d="M468.7,317.4c0,0,5-4.8,10.9,1.8C485.5,325.8,464,332,468.7,317.4z"/>
						</g>
						<g>
							<path class="st7" d="M475.7,320.5c0,0,6-4.4,8,3c2,7.4-0.3,15.5,2.7,26c3,10.5-8,21.3-15.3,19.3S475.7,320.5,475.7,320.5z"/>
							<path class="st2" d="M475.7,320.5c0,0,6-4.4,8,3c2,7.4-0.3,15.5,2.7,26c3,10.5-8,21.3-15.3,19.3S475.7,320.5,475.7,320.5z"/>
						</g>
						<g>
							<path class="st7" d="M465.1,370.1c6.3,0,14.5-4.5,14.5-16.6c0-12.1-2.6-19.2-1.5-23.6c1.1-4.4-1.1-14-13-12.2
								c-11.9,1.8-11.9,15.2-11.9,28.4C453.2,359.1,452.8,370.1,465.1,370.1z"/>
							<path class="st2" d="M465.1,370.1c6.3,0,14.5-4.5,14.5-16.6c0-12.1-2.6-19.2-1.5-23.6c1.1-4.4-1.1-14-13-12.2
								c-11.9,1.8-11.9,15.2-11.9,28.4C453.2,359.1,452.8,370.1,465.1,370.1z"/>
						</g>
					</g>
				</g>
				<path class="st6" d="M464.3,370.1c-5.5-3.5-5-12.6-5-12.6"/>
				<path class="st6" d="M463.2,350c0,0-1.3,15.4,2.6,20"/>
				<path class="st6" d="M467.8,357.9c0,0,0.5,9.1-1,12.1"/>
			</g>
		</g>
		<g>
			<path class="st6" d="M111.7,550.7c0,0.3,7.5,2.5,11.1-8.4C122.8,542.3,112.5,543.4,111.7,550.7z"/>
			<g>
				<g>
					<g>
						<path class="st5" d="M111.7,571.7c0.4-1.9,0.2-5.5-3.3-7.4c-0.2-0.1-0.4-0.2-0.7-0.3l-0.3,0.8c0.2,0.1,0.4,0.2,0.6,0.3
							c3.4,1.9,3.1,5.2,2.9,6.4L111.7,571.7z"/>
					</g>
				</g>
				<path class="st6" d="M94.7,571.7c0,0,2.6-10.8,11.9-8.6C106.6,563.1,106.4,570.9,94.7,571.7z"/>
				<g>
					<g>
						<g>
							<path class="st5" d="M98.3,534.5c0.7-1.9,2.7-4.8,6.8-4.6c0.2,0,0.5,0,0.7,0.1l-0.2,0.9c-0.2,0-0.4,0-0.6-0.1
								c-3.9-0.2-5.4,2.8-5.9,3.9L98.3,534.5z"/>
						</g>
					</g>
					<g>
						<path class="st5" d="M97.8,605.7c-0.4-0.4-0.5-1.1-0.1-1.6c3.6-4.5,6.3-13.4,7.7-26c1.3-11.5,1.5-25.2,0.4-37.7
							c-1.6-20.1,3.1-30.9,5.2-34.7c0.4-0.7,1.2-0.8,1.8-0.4l0,0c0.5,0.4,0.6,1.1,0.3,1.6c-1.9,3.4-6.5,13.9-4.9,33.3
							c1,12.2,0.8,26.3-0.4,37.7c-1.5,13.3-4.3,22.8-8.3,27.8C99.2,606.3,98.3,606.3,97.8,605.7L97.8,605.7z"/>
					</g>
				</g>
				<g>
					<path class="st0" d="M94.7,538.7c0,0-0.3,11.9-3.9,22.6c-0.5,1.5,1.4,2.6,2.4,1.5c3.9-4.2,8.8-11.8,8-23.3l-3.4-3.2L94.7,538.7
						z"/>
					<path class="st5" d="M97.3,534.4c-1.2,0.9-2.7,2.6-4,5.5c0,0,2,0.3,3.5-1c0,0-0.2,1.9,1.1,3.6c0,0,1.2-1,1.6-3.1
						c0,0,0.5,1.9,2.6,2.2c0,0,0.2-3.3-1.9-6.7C99.6,533.9,98.2,533.6,97.3,534.4z"/>
					<path class="st2" d="M96.5,545.3c-0.3,0.7,0.1,2.2,1.6,2"/>
					<path class="st2" d="M95.7,549.8c-0.3,0.7,0.1,2.2,1.6,2"/>
					<path class="st2" d="M94.6,554.2c-0.3,0.7,0.1,2.2,1.6,2"/>
				</g>
				<g>
					<path class="st0" d="M113.5,575.7c0,0,0.1,7.4,3.9,14.7c0.6,1.1-0.8,2.3-1.8,1.6c-3.5-2.5-7.8-7.5-6.7-16.4l1.9-2L113.5,575.7z
						"/>
					<path class="st2" d="M112,579.6c0.3,0.5,0.2,1.7-1.1,1.7"/>
					<path class="st2" d="M113.1,583c0.3,0.5,0.2,1.7-1.1,1.7"/>
					<path class="st2" d="M114.3,586.4c0.3,0.5,0.2,1.7-1.1,1.7"/>
					<path class="st5" d="M112.9,571.7c0.7,1.3,1.6,3.2,2.1,5.7c0,0-1.7-0.1-2.6-1.4c0,0-0.2,1.5-1.4,2.6c0,0-0.8-0.9-0.8-2.7
						c0,0-0.7,1.4-2.4,1.3c0,0,0.4-3.2,2.1-5.7C110.7,570.5,112.3,570.6,112.9,571.7z"/>
				</g>
			</g>
			<g>
				<g>
					<g>
						<g>
							<path class="st5" d="M141.1,557.1c0.7-2.5,3.2-6.4,8.6-6.4c0.3,0,0.7,0,1,0l-0.1,1.2c-0.3,0-0.6,0-0.8,0c-5.2,0-7,4-7.5,5.5
								L141.1,557.1z"/>
						</g>
					</g>
					<g>
						<path class="st0" d="M137.6,561.3c0,0,0.3,12.7-2.9,24.3c-0.4,1.6,1.6,2.7,2.7,1.4c4-4.7,8.8-13.1,7.3-25.4l-3.8-3.2
							L137.6,561.3z"/>
						<path class="st5" d="M140.2,556.5c-1.2,1-2.7,2.9-4,6.1c0,0,2.2,0.2,3.7-1.3c0,0-0.1,2,1.4,3.8c0,0,1.2-1.1,1.6-3.4
							c0,0,0.6,2,2.9,2.2c0,0,0-3.6-2.3-7C142.6,555.8,141.1,555.7,140.2,556.5z"/>
						<path class="st2" d="M139.9,568.2c-0.3,0.8,0.2,2.3,1.8,2.1"/>
						<path class="st2" d="M139.2,573.1c-0.3,0.8,0.2,2.3,1.8,2.1"/>
						<path class="st2" d="M138.3,577.9c-0.3,0.8,0.2,2.3,1.8,2.1"/>
					</g>
				</g>
				<g>
					<path class="st5" d="M158,613.2c0.5-0.4,0.5-1.1,0.2-1.6c-3.4-4.7-5.6-13.7-6.4-26.4c-0.7-11.5-0.2-25.2,1.4-37.7
						c2.6-20-1.5-31-3.5-34.9c-0.3-0.7-1.2-0.9-1.8-0.5l0,0c-0.5,0.4-0.7,1-0.4,1.6c1.7,3.5,5.8,14.2,3.3,33.5
						c-1.6,12.1-2.2,26.2-1.5,37.7c0.8,13.3,3.2,23,6.9,28.1C156.6,613.6,157.4,613.7,158,613.2L158,613.2z"/>
				</g>
				<path class="st6" d="M151.9,559.6c-0.3,0-0.4,7.4,9.3,8.7C161.1,568.3,158,558.9,151.9,559.6z"/>
				<path class="st6" d="M149.1,582.1c-0.1-0.3-8.3,1.9-5.8,13.7C143.3,595.8,152.3,589.1,149.1,582.1z"/>
			</g>
			<g>
				<path class="st6" d="M124.8,586.8c0,0.3,7.3,4.3,11.5-6.3C136.3,580.5,125.7,579.7,124.8,586.8z"/>
				<g>
					<g>
						<g>
							<g>
								<path class="st5" d="M130.3,532.1c-0.6-1.9-2.5-4.9-6.5-4.9c-0.2,0-0.5,0-0.7,0l0.1,0.9c0.2,0,0.4,0,0.6,0
									c3.9,0,5.3,3,5.7,4.2L130.3,532.1z"/>
							</g>
						</g>
						<g>
							<path class="st5" d="M117.1,606.7c-0.5-0.4-0.5-1.1-0.2-1.6c3.4-4.7,5.6-13.7,6.4-26.4c0.7-11.5,0.2-25.2-1.4-37.7
								c-2.6-20,1.5-31,3.5-34.9c0.3-0.7,1.2-0.9,1.8-0.5l0,0c0.5,0.4,0.7,1,0.4,1.6c-1.7,3.5-5.8,14.2-3.3,33.5
								c1.6,12.1,2.2,26.2,1.5,37.7c-0.8,13.3-3.2,23-6.9,28.1C118.5,607.1,117.6,607.2,117.1,606.7L117.1,606.7z"/>
						</g>
					</g>
					<g>
						<path class="st0" d="M134.2,536.2c0,0,3,8.1,10,14.4c1.1,1,0.1,2.8-1.3,2.4c-4.8-1.4-11.4-5.1-13.8-15.2l1.3-2.9L134.2,536.2z
							"/>
						<path class="st2" d="M134.1,541.1c0.5,0.5,0.8,1.8-0.5,2.3"/>
						<path class="st2" d="M136.6,544.4c0.5,0.5,0.8,1.8-0.5,2.3"/>
						<path class="st2" d="M139.3,547.5c0.5,0.5,0.8,1.8-0.5,2.3"/>
						<path class="st5" d="M132,532.1c1.3,1.1,3,2.9,4.6,5.3c0,0-1.8,0.6-3.4-0.5c0,0,0.4,1.7-0.5,3.5c0,0-1.2-0.7-1.9-2.6
							c0,0-0.2,1.8-2.1,2.4c0,0-0.8-3.6,0-7.1C129,531.7,130.8,531.1,132,532.1z"/>
					</g>
					<path class="st6" d="M125.5,551c-0.2,0-1,7.5,7.5,9.3C133,560.2,131.3,551.3,125.5,551z"/>
				</g>
			</g>
			<g>
				<g>
					<g>
						<g>
							<path class="st5" d="M163.4,524.9c0.6-2.2,2.8-5.7,7.6-5.7c0.3,0,0.6,0,0.9,0l-0.1,1c-0.2,0-0.5,0-0.7,0
								c-4.6,0-6.1,3.5-6.6,4.9L163.4,524.9z"/>
						</g>
					</g>
					<g>
						<path class="st0" d="M160.3,528.6c0,0,0.3,11.2-2.6,21.4c-0.4,1.4,1.4,2.4,2.3,1.3c3.5-4.1,7.7-11.5,6.4-22.3l-3.3-2.8
							L160.3,528.6z"/>
						<path class="st5" d="M162.5,524.4c-1.1,0.9-2.4,2.5-3.5,5.4c0,0,1.9,0.2,3.3-1.1c0,0-0.1,1.8,1.2,3.3c0,0,1-1,1.4-2.9
							c0,0,0.6,1.7,2.5,1.9c0,0,0-3.1-2.1-6.2C164.7,523.8,163.4,523.6,162.5,524.4z"/>
						<path class="st2" d="M162.4,534.7c-0.2,0.7,0.2,2,1.6,1.8"/>
						<path class="st2" d="M161.7,538.9c-0.2,0.7,0.2,2,1.6,1.8"/>
						<path class="st2" d="M160.9,543.1c-0.2,0.7,0.2,2,1.6,1.8"/>
					</g>
				</g>
				<g>
					<g>
						<g>
							<path class="st5" d="M168,553.6c0.1-2.6,1.7-7,6.9-8.2c0.3-0.1,0.6-0.1,1-0.2l0.1,1.2c-0.3,0-0.5,0.1-0.8,0.2
								c-5.1,1.2-5.9,5.5-6,7.1L168,553.6z"/>
						</g>
					</g>
					<g>
						<path class="st5" d="M190.7,606.4c0.4-0.5,0.4-1.2-0.1-1.6c-4-4.1-7.5-12.8-10.1-25.2c-2.4-11.3-3.8-25-4-37.5
							c-0.2-20.2-6-30.5-8.4-34.1c-0.4-0.6-1.3-0.7-1.9-0.2l0,0c-0.5,0.4-0.5,1.1-0.2,1.6c2.2,3.2,7.8,13.3,8,32.7
							c0.1,12.2,1.6,26.3,3.9,37.5c2.7,13.1,6.4,22.3,10.9,26.9C189.4,607,190.3,606.9,190.7,606.4L190.7,606.4z"/>
					</g>
				</g>
				<g>
					<path class="st0" d="M165.7,556.7c0,0,1.3,10.3-0.4,19.9c-0.2,1.3,1.5,2.1,2.3,0.9c2.8-4.1,6.1-11.3,3.9-21.1l-3.3-2.3
						L165.7,556.7z"/>
					<path class="st5" d="M167.4,552.7c-0.9,0.9-2,2.5-2.7,5.3c0,0,1.8,0,2.9-1.3c0,0,0.1,1.7,1.4,2.9c0,0,0.9-1,1-2.8
						c0,0,0.7,1.5,2.5,1.5c0,0-0.3-2.9-2.4-5.5C169.3,551.9,168.1,551.9,167.4,552.7z"/>
					<path class="st2" d="M168.1,562.1c-0.2,0.7,0.3,1.9,1.6,1.5"/>
					<path class="st2" d="M167.9,566.1c-0.2,0.7,0.3,1.9,1.6,1.5"/>
					<path class="st2" d="M167.6,570c-0.2,0.7,0.3,1.9,1.6,1.5"/>
				</g>
				<path class="st6" d="M176.5,570.4c-0.1-0.3-8.6,2-7,12C169.4,582.4,178.2,579,176.5,570.4z"/>
			</g>
		</g>
		<g>
			<g>
				<path class="st6" d="M241.8,578c5.5,2,7.5,9.5,2.4,18c-5.1,8.5-0.3,9.1-3.7,13.4c-3.4,4.3-10.9,2.7-12.8,8.7
					c-1.9,6.1-5.7-14.5,0.5-31.4C231.6,577.7,237.7,576.5,241.8,578z"/>
				<path class="st6" d="M203.6,574.4c5-3.2,15.1-2.2,17.9,8.8c3.1,12.1,8.9,10.5,9.3,20.1c0.3,7.6-3.8,16.6-3.8,16.6
					s-2.8-5.1-9.7-5.4c-6.4-0.3-10.2-2.8-10.4-8.7c-0.3-8.5-4.7-7.5-8-14.6C195.1,583,199.8,576.8,203.6,574.4z"/>
				<path class="st2" d="M211.6,586.5c11.2,12.2,17,26.6,15.4,46.7"/>
				<path class="st2" d="M230.5,601.9c2.5-7.6,5.3-12,5.3-12"/>
			</g>
			<g>
				<path class="st6" d="M203.2,575.5c5.5,2,7.5,9.5,2.4,18c-5.1,8.5-0.3,9.1-3.7,13.4c-3.4,4.3-10.9,2.7-12.8,8.7
					c-1.9,6.1-5.7-14.5,0.5-31.4C193,575.2,199.1,574,203.2,575.5z"/>
				<path class="st6" d="M165,571.9c5-3.2,15.1-2.2,17.9,8.8c3.1,12.1,8.9,10.5,9.3,20.1c0.3,7.6-3.8,16.6-3.8,16.6
					s-2.8-5.1-9.7-5.4c-6.4-0.3-10.2-2.8-10.4-8.7c-0.3-8.5-4.7-7.5-8-14.6C156.5,580.5,161.3,574.3,165,571.9z"/>
				<path class="st2" d="M173.1,584c11.2,12.2,17,26.6,15.4,46.7"/>
				<path class="st2" d="M192,599.4c2.5-7.6,5.3-12,5.3-12"/>
			</g>
		</g>
		<g>
			<g>
				<path class="st5" d="M378.8,324.3c0,0,7.2,1.8,8.8-2c2.6-6.4-10-22.6-25.8-16C343.8,313.9,368.3,332.3,378.8,324.3z"/>
				<path class="st2" d="M379.2,307.6c1.3,6.6-0.4,16.6-0.4,16.6c-12.7-3.8-23.3-10.9-23.3-10.9"/>
				<path class="st2" d="M368.3,304.6c0,0,2.6,10.7,10.5,19.6c0,0,16.7,12.7,26.7,42.1"/>
			</g>
			<g>
				<path class="st5" d="M394.5,326.2c5.6-0.9,12,2.9,10.9,8.3c-1.1,5.5-15.5,5.6-17.9,0C385.7,330.3,390.2,327,394.5,326.2z"/>
				<path class="st2" d="M388.2,329.7c0,0,7.7,1.5,11.8,8.8c0,0-2.2-10.3-6.5-12"/>
				<path class="st2" d="M404.1,329.5c0,0-2.9,2.7-4.1,9c0,0,5.8,12.1,6.8,28.5"/>
			</g>
			<g>
				<path class="st5" d="M420.7,341.7c0,0-6.6,0.4-6.4-4.7c0.2-5.4,7-8.9,13-7.6C437,331.6,431.4,343.4,420.7,341.7z"/>
				<path class="st2" d="M419,330.5c0,0-1.1,6.3,1.7,11.2c0,0,4.2-6.2,11.1-9.3"/>
				<path class="st2" d="M425.3,329.2c0,0-3.1,4.2-4.6,12.5c-0.2,1.3-2.1,10.7-10.3,23"/>
			</g>
			<g>
				<path class="st5" d="M394.1,293.2c4.4-4,17.6-1.7,22.5,12.9c5,14.6-4.4,15.7-9.2,14C390.3,311.8,389.4,297.6,394.1,293.2z"/>
				<path class="st2" d="M404.6,292.5c0,0,6.1,12.8,2.8,27.7c-4-18.2-12.2-27.7-12.2-27.7"/>
				<path class="st2" d="M416.1,304.7c0,0-5.4,6.2-8.7,15.4c0,0,4.4,22,3,38.6"/>
			</g>
			<path class="st3" d="M362.1,307c0-2.7,6-7.2,10.1-6.5c4.9,0.8,7.7,5.3,6.4,8.9C377.3,312.9,362,312.6,362.1,307z"/>
		</g>
		
			<ellipse transform="matrix(0.5358 -0.8443 0.8443 0.5358 46.9621 633.2693)" class="st3" cx="599.4" cy="273.9" rx="4.8" ry="3.6"/>
		
			<ellipse transform="matrix(0.4371 -0.8994 0.8994 0.4371 185.1348 381.284)" class="st3" cx="397.2" cy="42.7" rx="3.5" ry="2.5"/>
		<ellipse transform="matrix(0.9809 -0.1946 0.1946 0.9809 -5.4098 104.0517)" class="st3" cx="527" cy="79.6" rx="3.6" ry="2.6"/>
		
			<ellipse transform="matrix(0.2426 -0.9701 0.9701 0.2426 254.2306 646.2686)" class="st3" cx="541" cy="160.3" rx="3.8" ry="2.7"/>
		<ellipse transform="matrix(0.5 -0.866 0.866 0.5 -23.5731 711.5027)" class="st3" cx="604.4" cy="376.2" rx="3.7" ry="2.5"/>
		
			<ellipse transform="matrix(0.9813 -0.1926 0.1926 0.9813 -123.6055 61.8664)" class="st3" cx="256.4" cy="666.8" rx="2.1" ry="4.8"/>
		
			<ellipse transform="matrix(0.8956 -0.4449 0.4449 0.8956 -271.9428 189.0839)" class="st3" cx="266.8" cy="673.8" rx="2.3" ry="6.5"/>
		
			<ellipse transform="matrix(0.7071 -0.7071 0.7071 0.7071 -394.677 291.8242)" class="st3" cx="154.9" cy="622.3" rx="2.1" ry="3.6"/>
		
			<ellipse transform="matrix(0.6314 -0.7754 0.7754 0.6314 -431.0922 246.6315)" class="st3" cx="43.9" cy="576.8" rx="3.2" ry="4.8"/>
		
			<ellipse transform="matrix(0.4196 -0.9077 0.9077 0.4196 -536.6073 444.7516)" class="st3" cx="79.5" cy="642" rx="3.3" ry="1.8"/>
		<path class="st3" d="M311.1,175.5c1.4-2.2,7.5-2.7,11.5,1.7c4,4.4,2.7,10.3-2.4,9.4S308.2,180.2,311.1,175.5z"/>
		<ellipse class="st3" cx="342.4" cy="166.8" rx="2.4" ry="4.3"/>
		
			<ellipse transform="matrix(0.1778 -0.9841 0.9841 0.1778 104.5424 490.9099)" class="st3" cx="346" cy="182.9" rx="6.9" ry="3.5"/>
		<ellipse transform="matrix(0.1197 -0.9928 0.9928 0.1197 101.1002 508.0381)" class="st3" cx="337" cy="197" rx="3.2" ry="1.7"/>
		
			<ellipse transform="matrix(6.021569e-02 -0.9982 0.9982 6.021569e-02 215.0916 612.3813)" class="st3" cx="432.8" cy="192" rx="4.5" ry="1.9"/>
		
			<ellipse transform="matrix(0.1623 -0.9867 0.9867 0.1623 135.9916 606.8997)" class="st3" cx="425.4" cy="223.4" rx="6.8" ry="2.1"/>
		<path class="st3" d="M437.4,203c2.3,0.2,3,8.1,1.1,13c-2,4.9-4.8,5.5-5.3,2.3C432.8,214.9,433.7,202.7,437.4,203z"/>
		<ellipse class="st3" cx="519.9" cy="188.9" rx="2.3" ry="4.8"/>
		
			<ellipse transform="matrix(0.2006 -0.9797 0.9797 0.2006 196.4437 685.8873)" class="st3" cx="518.5" cy="222.6" rx="5.6" ry="2.2"/>
		<path class="st3" d="M523.5,198.1c0,0-1.5,7-0.5,10.5c1,3.6,4.2,3.3,4.7-0.6C528.2,204.3,524.9,199.4,523.5,198.1z"/>
		
			<ellipse transform="matrix(0.616 -0.7877 0.7877 0.616 -10.1258 489.9509)" class="st3" cx="497.5" cy="255.4" rx="2.5" ry="3.9"/>
		<ellipse class="st3" cx="407.1" cy="280.3" rx="2.4" ry="3.4"/>
		<path class="st3" d="M412.1,286.5c1.4-0.4,5.4,4.4,5.6,10.2s-3.6,6.3-5.2,1.8C411,294,410.4,287,412.1,286.5z"/>
		
			<ellipse transform="matrix(0.9877 -0.1562 0.1562 0.9877 -43.0731 69.2474)" class="st3" cx="419.1" cy="308.7" rx="1.7" ry="2.6"/>
		<path class="st3" d="M431.5,365.8c1.1-1.7,6.3-0.7,6.6,2c0.3,2.7-2.4,2.1-4.7,1.1C431.7,368.2,430.9,366.7,431.5,365.8z"/>
		
			<ellipse transform="matrix(0.2656 -0.9641 0.9641 0.2656 -16.6009 784.2578)" class="st3" cx="506.5" cy="403" rx="2.9" ry="3.9"/>
		<circle class="st3" cx="340.3" cy="361.4" r="2.6"/>
		
			<ellipse transform="matrix(0.7673 -0.6413 0.6413 0.7673 -179.5827 286.3236)" class="st3" cx="304.7" cy="390.6" rx="2.7" ry="4"/>
		
			<ellipse transform="matrix(0.4671 -0.8842 0.8842 0.4671 -155.1094 509.1584)" class="st3" cx="344.9" cy="383.3" rx="5.7" ry="3.4"/>
		
			<ellipse transform="matrix(0.3225 -0.9466 0.9466 0.3225 -236.3622 654.8135)" class="st3" cx="339.3" cy="492.5" rx="3.9" ry="2.8"/>
		
			<ellipse transform="matrix(0.2461 -0.9692 0.9692 0.2461 -213.2276 725.2783)" class="st3" cx="359.6" cy="499.7" rx="3.4" ry="1.7"/>
		
			<ellipse transform="matrix(0.2461 -0.9692 0.9692 0.2461 -196.6772 723.7448)" class="st3" cx="366.9" cy="488.3" rx="5.6" ry="2.1"/>
		
			<ellipse transform="matrix(0.2461 -0.9692 0.9692 0.2461 -186.9602 715.1277)" class="st3" cx="366.2" cy="477.7" rx="3" ry="1.2"/>
		
			<ellipse transform="matrix(0.1899 -0.9818 0.9818 0.1899 15.5218 902.4211)" class="st3" cx="554.6" cy="441.8" rx="4.2" ry="2.2"/>
		<ellipse class="st3" cx="549.5" cy="460.2" rx="1.7" ry="3.4"/>
		
			<ellipse transform="matrix(0.1899 -0.9818 0.9818 0.1899 2.8055 918.0155)" class="st3" cx="557.7" cy="457.3" rx="6.3" ry="2.6"/>
		<path class="st3" d="M585.3,467.2c-1.5-0.6-3-3.4-1.3-6.4c2.6-4.6,8-4.6,9.9-1.8C596,462.2,592.9,470.2,585.3,467.2z"/>
		<ellipse transform="matrix(0.203 -0.9792 0.9792 0.203 42.6452 1013.719)" class="st3" cx="644.1" cy="480.7" rx="3.9" ry="2.4"/>
		<path class="st3" d="M601,480.7c0.7-2.1,3.6-2.8,5.7-1.4c2,1.4,8.8,11.1,10.1,14.2s-1.9,5.2-4.8,2.4S599.2,486.1,601,480.7z"/>
		
			<ellipse transform="matrix(0.6212 -0.7836 0.7836 0.6212 -161.4456 683.4002)" class="st3" cx="626.2" cy="508.7" rx="2.1" ry="3.3"/>
		<path class="st3" d="M620.7,633.3c0,0-0.1,6.1,2.2,7.6S624.6,635.3,620.7,633.3z"/>
		<path class="st3" d="M627.8,642.3c0,0-0.4,4.1,1,7.8s3.6,1.8,2.4-2.2C630.1,644.7,627.8,642.3,627.8,642.3z"/>
		
			<ellipse transform="matrix(0.9986 -5.232508e-02 5.232508e-02 0.9986 -33.1641 33.6001)" class="st3" cx="625.1" cy="650.2" rx="0.8" ry="2"/>
		
			<ellipse transform="matrix(0.9449 -0.3274 0.3274 0.9449 -197.1678 222.5567)" class="st3" cx="562.4" cy="696.9" rx="1.9" ry="3.4"/>
		
			<ellipse transform="matrix(0.9056 -0.424 0.424 0.9056 -240.0499 299.389)" class="st3" cx="552.7" cy="689.1" rx="1.6" ry="3.2"/>
		
			<ellipse transform="matrix(0.6607 -0.7507 0.7507 0.6607 -312.8435 679.1925)" class="st3" cx="594.8" cy="685.6" rx="1.8" ry="3.3"/>
		
			<ellipse transform="matrix(0.7364 -0.6766 0.6766 0.7364 -306.8909 590.1381)" class="st3" cx="603.8" cy="688.9" rx="1.5" ry="4.1"/>
		
			<ellipse transform="matrix(0.1596 -0.9872 0.9872 0.1596 -342.7524 1005.1503)" class="st3" cx="419" cy="703.9" rx="5" ry="2.7"/>
		<path class="st3" d="M412.6,697.5c1.7,1.3,7.9-6.4,5.5-7.9C415.8,688.2,411.2,696.5,412.6,697.5z"/>
		
			<ellipse transform="matrix(0.2832 -0.9591 0.9591 0.2832 -393.7556 902.6979)" class="st3" cx="407" cy="714.8" rx="2.8" ry="1.5"/>
		
			<ellipse transform="matrix(0.4654 -0.8851 0.8851 0.4654 -516.9727 435.6076)" class="st3" cx="102.1" cy="645.7" rx="4.8" ry="2.4"/>
		<path class="st3" d="M88.5,644.3c3.4-0.9,3.5,8-2.3,16.1s-10.1,6.4-8.2,0.6C79.8,655.3,84.9,645.3,88.5,644.3z"/>
		
			<ellipse transform="matrix(0.6581 -0.7529 0.7529 0.6581 -343.5849 239.7649)" class="st3" cx="92.2" cy="498.2" rx="3.4" ry="5.4"/>
		<circle class="st3" cx="115.5" cy="142.8" r="3.1"/>
		<ellipse transform="matrix(0.5 -0.866 0.866 0.5 61.7428 297.1227)" class="st3" cx="288.2" cy="95.1" rx="3" ry="4.1"/>
		
			<ellipse transform="matrix(0.5623 -0.8269 0.8269 0.5623 27.3169 214.2706)" class="st3" cx="216.1" cy="81.3" rx="1.9" ry="2.5"/>
		<path class="st3" d="M209,151.6c0.8-3.3,5.9-4.3,7.8-2.2c2,2,2.6,6.5-1.1,7.9c-3.7,1.4-7.9,1.1-7.3-1.2
			C209.2,154,208.4,153.8,209,151.6z"/>
		<path class="st3" d="M162.4,210.7c-0.6-4.2,4.4-5.1,8.1-11.4s9.8-7,11.5-4.2c1.4,2.3-0.8,5.4-4.2,8.3c-2.8,2.4-2.8,5.7-6.9,8.5
			C166.8,214.8,162.7,213.4,162.4,210.7z"/>
		<path class="st3" d="M118.7,216.9c-0.4-3.4,6-6.9,10.1-6.4c4.1,0.5-0.2,7.3-3.8,9.8C121.3,222.9,119,219.8,118.7,216.9z"/>
		
			<ellipse transform="matrix(0.2822 -0.9594 0.9594 0.2822 -79.5852 380.8248)" class="st3" cx="214.7" cy="243.6" rx="1.9" ry="3.1"/>
		<path class="st3" d="M264.2,265.5c3-1.7,9.9,2.3,10.8,6.6c1,4.3-2.4,6-7.3,2.9S261.7,266.9,264.2,265.5z"/>
		<path class="st3" d="M243.8,284.1c1.6-3.7,9.1-3.1,12.9,1.3c3.8,4.4,9.5,5.8,12.4,10.4s0.1,6.9-5.3,4.5
			c-5.5-2.4-10.6-3.3-14.3-6.8C245.7,289.9,242.4,287.3,243.8,284.1z"/>
		
			<ellipse transform="matrix(0.7071 -0.7071 0.7071 0.7071 -157.0944 276.2308)" class="st3" cx="254.9" cy="327.7" rx="2.1" ry="4"/>
		
			<ellipse transform="matrix(0.6462 -0.7632 0.7632 0.6462 -164.0555 318.6709)" class="st3" cx="261.6" cy="336.3" rx="1.6" ry="2.5"/>
		<path class="st3" d="M217.3,348.5c0.2-3.2,4.8-4.3,6.2-2.4c1.4,1.9,0.7,9.6,3,14.9c2.3,5.3-3.9,7.6-6.8,3.3
			c-2.8-4.2-4-6.2-2.5-9.5S217.1,351.6,217.3,348.5z"/>
		<ellipse transform="matrix(0.866 -0.5 0.5 0.866 -174.0932 125.9149)" class="st3" cx="147.9" cy="387.8" rx="3.3" ry="2.2"/>
		<path class="st3" d="M163.5,387.8c-2.5-1.7-1-6.5,2.1-10.7c3.1-4.2,10.2-5.9,15.2-8.2c5-2.3,8.3-1.7,7.2,2.8
			c-1.1,4.4-4.8,6.1-9.9,9C173.1,383.8,167,390.1,163.5,387.8z"/>
		
			<ellipse transform="matrix(0.4161 -0.9093 0.9093 0.4161 -214.0231 490.2096)" class="st3" cx="274.7" cy="411.8" rx="1.6" ry="2.7"/>
		
			<ellipse transform="matrix(0.6746 -0.7382 0.7382 0.6746 -166.953 177.5769)" class="st3" cx="117.9" cy="278.1" rx="2.4" ry="3.4"/>
		<path class="st3" d="M87,349.4c-0.7-4.2,6.1-7,9.6-12.9c3.5-5.8,7.2-8.4,10.2-7.3c3,1,4.1,4.1,0.9,7.2s-5.4,8.2-10.1,12.1
			S87.9,354.3,87,349.4z"/>
		
			<ellipse transform="matrix(0.9229 -0.385 0.385 0.9229 -192.0068 126.2617)" class="st3" cx="219.3" cy="542.6" rx="2.2" ry="3.4"/>
		<path class="st3" d="M224.8,550.9c1.5,0.2,7,3.7,7.3,10C232.4,567,223.7,558.7,224.8,550.9z"/>
		
			<ellipse transform="matrix(0.909 -0.4167 0.4167 0.909 -218.3494 146.0527)" class="st3" cx="225.4" cy="573.1" rx="1.6" ry="3.1"/>
		<ellipse transform="matrix(0.121 -0.9926 0.9926 0.121 -323.2378 805.2788)" class="st3" cx="293.1" cy="585.2" rx="5" ry="1.9"/>
		<ellipse class="st3" cx="287.5" cy="576.1" rx="1.2" ry="2.2"/>
		
			<ellipse transform="matrix(0.9676 -0.2527 0.2527 0.9676 -138.5042 87.8862)" class="st3" cx="273" cy="583.2" rx="2.5" ry="6.3"/>
		<ellipse transform="matrix(0.9857 -0.1682 0.1682 0.9857 -91.8976 52.6983)" class="st3" cx="265" cy="568.7" rx="1.5" ry="3.3"/>
		<path class="st3" d="M277.3,607.5c1.3-0.1,3.3,3.3,2.3,4.8C278.4,614.3,275.2,607.6,277.3,607.5z"/>
		<path class="st3" d="M269.7,596.2c1.2-0.5,2.9,1.5,2.8,4.6c-0.1,3-2,1.6-2.8-0.6C269,598.4,268.7,596.6,269.7,596.2z"/>
		<path class="st3" d="M649.5,622c1.9-1.5,7.8,2.9,9,6.9c1.3,4-1.9,5-6.3,0.7C647.9,625.4,648.4,622.9,649.5,622z"/>
		
			<ellipse transform="matrix(0.7518 -0.6594 0.6594 0.7518 -241.7352 495.2649)" class="st3" cx="536.9" cy="568.7" rx="2.9" ry="4.4"/>
		<ellipse class="st3" cx="72.3" cy="732.9" rx="1.9" ry="3.9"/>
		<path class="st3" d="M639.8,692c0.5-2.7,5.5-1.3,7.1,1.2c1.3,2,2.5,7,1.3,10.6c-1.2,3.6-9.6,13.6-13.8,11.4
			c-4.2-2.2,7.8-8.5,8.6-13.9C644,694.4,639.2,695.1,639.8,692z"/>
		<path class="st3" d="M572,728.3c-0.6-2.6,5.1-5.8,11.2-6.6c8-1.1,9.7-6.1,12.8-4.6c2.2,1,0.8,4.5-2.2,6.6c-4,2.7-7.4,1.4-11.5,3.2
			C578.3,728.7,572.6,731.2,572,728.3z"/>
		<path class="st3" d="M520.5,735.3c2.4,3.4-4.9,4.2-6.5,9.4c-1.6,5.2-1.3,44.4-7.8,45.7c-6.5,1.3-1-36.7,1.7-44.8
			C510.6,737.5,517.9,731.6,520.5,735.3z"/>
		<path class="st3" d="M493.4,735c2,0.1,3,11-1.8,10.4C487.9,744.9,490.7,734.8,493.4,735z"/>
		<path class="st3" d="M486.8,758.7c2-0.3,1.4,6.2,1.7,9.6c0.5,4.5-3.4,8.4-3.9,1.8C484,763.6,484.8,759,486.8,758.7z"/>
		<path class="st3" d="M486.5,788.2c2.8,0,3.3,5.5,2.7,24.3c-0.6,18.7-0.4,29-2.7,34c-2.3,5-5.6,4.6-4.6-2.6c1-7.1,2.4-27.1,2.4-37
			S483.3,788.2,486.5,788.2z"/>
		<path class="st3" d="M459,749.5c1.5-3.4,6.7,1.7,9.1,10.3s3.2,16.4,3.5,26.6c0.2,10.1-0.3,14.1-2.9,13.5
			c-2.6-0.5,0.6-13.9-2.6-29.4S457.5,753.1,459,749.5z"/>
		<path class="st3" d="M429.8,741.5c0.7-2,7.4-2.5,11.9,2.6s8.2,14.2,9,18.2c0.7,3.9-2.2,5.1-3.9,1.1c-1.7-4-5.3-13-11.3-16.5
			C432.4,745,429.1,743.4,429.8,741.5z"/>
		<path class="st3" d="M357.2,741.2c0.8-4,18.3,2,18.3,14.3c0,12.3-0.7,21.5,1.2,28.5c2.3,8.8-1.1,11.5-2.3,11.6
			c-3.7,0.1-4.8-9-3.9-24.2s-0.2-19.3-5.5-23C359.6,744.7,356.7,743.9,357.2,741.2z"/>
		<path class="st3" d="M385.7,744.2c0.8-2.2,5.8-1.4,7.5,1.6c1.8,3.3,1.6,7.7,0,12c-1.6,4.3-4.7,3.7-3.9,0
			C391.2,747.8,384.4,747.9,385.7,744.2z"/>
		<path class="st3" d="M421.5,823.4c1.9-1.1,4,1.7,3.2,8.2c-0.7,6.5,0.9,13.8-2.6,16.7c-3.5,2.9-3.7-3.4-2.6-8.4
			c1.1-5,1.4-6.2,1.4-10.3S420.6,824,421.5,823.4z"/>
		<path class="st3" d="M288.2,680c2.6-2.2,7.6,1.5,11,12.9c3.4,11.4-3.8,18.4-14.2,27.2c-10.5,8.8-13.6,2.9-9.8-0.9
			c3.8-3.8,16-11.9,17.8-18.8c1.5-5.9-0.4-9.5-2.7-12.5C287.9,684.9,285.9,681.8,288.2,680z"/>
		<path class="st3" d="M285.5,656.1c2.1,1.2-0.3,3.9-1.8,7.7s2.4,4.8,3,7.6c0.6,2.7-1.8,4.9-5.1,1.4s-3.7-5.9-2.2-9.7
			S283.2,654.8,285.5,656.1z"/>
		<ellipse class="st3" cx="305.8" cy="660.4" rx="1.4" ry="2.1"/>
		<path class="st3" d="M301.1,611.6c1.8-1.7,5.5,1.7,6.1,5.6c0.6,3.9-1.2,7-3.1,12.1s-7.7,6.8-7.7,2.6c0-4.2,6-7.2,5.4-12
			C301.3,615.1,299,613.5,301.1,611.6z"/>
		<path class="st3" d="M306.5,651.8c-2.7-0.7,1.8-9.6,7.4-14.7c5.6-5.1,11.5-6.4,12.5-4.1c1.5,3.3-6.2,3.5-11.4,9.8
			S309.8,652.7,306.5,651.8z"/>
		<path class="st3" d="M360.9,582.3c1.8-1.3,5.4,2.1,3.4,6.5s-7.1,6.9-15.1,9.7c-8,2.8-14.2,12.7-19,10.8c-4.8-1.9,2-9.1,9.8-12.1
			s17.7-7.4,19.1-10.4C360.4,583.8,359.5,583.4,360.9,582.3z"/>
		<ellipse class="st3" cx="360.6" cy="577.5" rx="2.3" ry="1.2"/>
		<path class="st3" d="M108.2,747.6c1.7-0.9,4.2,2.3,4.4,8.6c0.2,6.3-3.6,5.5-3.8,2.6c-0.2-2.9,0.2-4.8-0.8-7.2
			C107.1,749.2,107.5,748,108.2,747.6z"/>
		<path class="st3" d="M166.5,750.6c1.8-1.2,6.4,5.1,8.2,14.4c1.9,10.2,1.2,15.7-1.3,15.1c-2.8-0.6,0.1-9.2-3.3-17.5
			C166.6,754.3,164.7,751.8,166.5,750.6z"/>
		
			<ellipse transform="matrix(0.4596 -0.8882 0.8882 0.4596 -566.545 592.782)" class="st3" cx="203.8" cy="761.9" rx="4.3" ry="2.2"/>
		<path class="st3" d="M185.7,771.4c3-1,4.8,2.9,3.1,11.1c-1.7,8.2-1.9,9.6-1.2,19.7c0.6,10.2-0.4,14.5-3.4,13.7
			c-3-0.8-2.7-12-2.2-20.7S181.7,772.8,185.7,771.4z"/>
		<path class="st3" d="M230.1,756c2.3,3-5.9,6.1-9,12c-3.2,5.9-6.3,5-9.4,13.3s-6.2,16.2-9.9,14.7s3.7-16.3,8.8-21.9
			c5.1-5.7,5.3-8.8,10.6-13.6C226.3,755.5,229.1,754.6,230.1,756z"/>
		<path class="st3" d="M310.7,705.1c2.6,0.5,0.3,5.1,0.7,9s-0.5,6.7-2.6,6.5s-3-4.5-2.6-8.3C306.6,708.4,308.1,704.6,310.7,705.1z"
			/>
		<path class="st3" d="M312.5,727.3c1.9-0.4,1.6,3.1,4.3,6.1c2.6,3,4,6.3,2.1,7s-5.3-1.8-6.9-6.4
			C310.4,729.4,311.2,727.6,312.5,727.3z"/>
		
			<ellipse transform="matrix(0.9785 -0.2061 0.2061 0.9785 -109.8654 81.6689)" class="st3" cx="337.1" cy="568.3" rx="0.9" ry="1.7"/>
		
			<ellipse transform="matrix(0.9785 -0.2061 0.2061 0.9785 -110.8839 83.0985)" class="st3" cx="343.5" cy="573.9" rx="1.5" ry="3.6"/>
		<g>
			<path class="st4" d="M553.2,645.9c0,0-2.2-2.6-3-3.8c-0.8-1.3-0.6-2.2,0.1-2.2c0.9,0,1.8,3,4.4,4.8L553.2,645.9z"/>
			<g>
				<g>
					<path class="st5" d="M512.5,648c2.5-2.6,9.6-3.4,13.3,1.9c4.7,6.8-8,18.4-14.1,16.9C508.3,666,508.4,652.2,512.5,648z"/>
					<path class="st2" d="M512.8,657.3c0,0,0.2-1.6,0.9-2.2"/>
					<path class="st2" d="M518.8,657.1c0,0-0.3,1-1.2,1.6"/>
					<path class="st2" d="M515.9,662.4c0,0-0.3,1.1-1,1.6"/>
					<path class="st2" d="M519.2,651.6c0,0-0.6,0.8-0.8,1.7"/>
					<path class="st2" d="M522.8,654.1c0,0-0.2,0.9-0.6,1.5"/>
				</g>
				<path class="st4" d="M514.8,646.6c0,0,0.7,0.6,4,0.6c0,0-0.8,1.6-0.4,2.9c0,0,1.5-0.6,2.2-2.2c0,0,0.1,2.2,2.3,3.9
					c0,0,0.8-0.8,0.8-3c0,0,1.1,2.4,2.9,3.1c0,0-0.6-4.3-5.1-5.6S514.8,646.6,514.8,646.6z"/>
			</g>
			<g>
				<path class="st6" d="M514.2,635.2c0,0-5.1-2.6-7.7-6s-0.8-5.2,1-4.5c0,0-2.3-1.9-2.6-3.8c-0.3-1.9,2.1-1.8,2.1-1.8
					s-2.9-3.3-1.9-5.5c0.9-2.2,3.6-0.3,3.6-0.3s-1-2.8,0.8-3.8s3.4,1.3,3.4,1.3s0.2-3.2,2.4-3.3c2.2-0.1,4,3.5,4,3.5s0.4-1.5,2-1.6
					s4.8,3.6,5,7.5c0,0,0.4-2,2.2-1.7c1.8,0.2,3.5,8.4,0.9,15.6C526.7,638,517.7,637.4,514.2,635.2z"/>
				<path class="st2" d="M514.3,617.2c0,0,8.5,5.6,9.9,18.7"/>
			</g>
			<g>
				<path class="st5" d="M550.3,666.2c3.6-1.9,3.6-15.8-2.7-17.8c-4.5-1.4-11.3,1.8-11.2,7C536.4,660.6,546.3,668.3,550.3,666.2z"/>
				<path class="st4" d="M536.4,654.8c0,0,3.3-1.5,5-3.8c0,0,1,2,3,2.4c0,0,0.9-2-0.1-3.8c0,0,2.8,1.1,5.1-0.2c0,0-3.2-3.2-8.3-1.2
					C538.7,649.1,536.3,651.8,536.4,654.8z"/>
				<path class="st2" d="M539.8,656.1c0,0,0.4,1.3,1.1,1.7"/>
				<path class="st2" d="M545.6,659.1c0,0,0.5,1.2,1.4,2.1"/>
				<path class="st2" d="M550.1,658.2c0,0,0.5,1,0.6,2.3"/>
				<path class="st2" d="M545.7,654.5c0,0,0.6,0.7,0.9,1.8"/>
				<path class="st2" d="M548.7,651.9c0,0,0.7,0.9,0.8,1.6"/>
			</g>
			<g>
				<path class="st5" d="M554,645.3c2.8-2.2,7-3.6,9.7-0.7c2.7,2.9,4.5,11.6,1.6,14.6s-12-2.1-13.5-6.3
					C550.2,648.6,552.6,646.3,554,645.3z"/>
				<path class="st4" d="M551.3,649.9c0,0,1.7-0.3,3.2-1.9c0,0,1.1,1.7,2.2,2.5c0,0,0.1-2.2-0.5-3.5c0,0,1.5,0.3,3.5-0.3
					c0,0-1.2-1.2-3.2-1.5c0,0,1.2-0.3,1.8-2.1C558.5,643.1,551.8,643.7,551.3,649.9z"/>
				<path class="st2" d="M554.9,652.2c0,0,0.3,0.8,1,1.2"/>
				<path class="st2" d="M561,655.3c0,0,0.8,1.3,1.5,1.6"/>
				<path class="st2" d="M558.1,650.7c0,0,0.7,1.4,1.3,1.6"/>
				<path class="st2" d="M560.2,648.7c0,0,0.7,0.8,0.8,1.4"/>
				<path class="st2" d="M563.2,650.3c0,0,0.6,0.8,0.9,1.9"/>
			</g>
			<g>
				<path class="st5" d="M531.6,664.2c3.2,0.1,9.8-8.6,6.7-16c-2-4.9-11.4-4.2-11.8,1.5C526.1,655.7,528,664.1,531.6,664.2z"/>
				<path class="st2" d="M528.5,652.3c0,0,0,0.7,0.2,1.2"/>
				<path class="st2" d="M532.2,654c0,0,0.1,0.8-0.1,1.5"/>
				<path class="st2" d="M530.8,658.7c0,0,0.1,0.8,0.3,1.4"/>
				<path class="st2" d="M534.6,657.1c0,0,0.1,0.8-0.2,1.3"/>
				<path class="st2" d="M536.1,653.4c0,0,0,0.9-0.1,1.4"/>
			</g>
			<g>
				<path class="st6" d="M518.4,644.2c0,0,0.7,4.9-2.6,7.6c-3.3,2.8-4,1-3.5,0c0,0-2.7,3.1-5.4,4.1s-1.4-2.3,0.4-3.5
					c0,0-1.2,1.4-4.8,2.3c-3.6,0.9-4.6-1.4-3-2.9c0,0-2.9,0.9-4.9-0.9c-2-1.8-0.1-3.5,1.2-3.8c0,0-3.7-0.7-4.4-2.4
					c-0.7-1.7,1.8-2.3,1.8-2.3s-2.9-0.8-3.9-2.9c-1-2,1.3-3.1,4.1-3c0,0-2.3-4.8,5.1-4.2c0,0-1.1-2.2,0.4-3c1.5-0.8,5.3,0.2,6.3,1.1
					c0,0-0.8-1.9,0.2-2.5c1-0.6,3.3-0.4,7.4,2.9c0,0-0.7-2,1.4-2.3c2.1-0.3,4.6,2.9,4.9,5.8C518.8,634.4,522.1,640.1,518.4,644.2z"
					/>
				<path class="st2" d="M502.6,641.7c0,0,8.7-1.5,15.8,2.6"/>
			</g>
			<g>
				<path class="st5" d="M571.2,655.2c0.6-1.2,2.2-5,6.7-4s8.1,9.6,6.7,12.5c-1.4,2.8-10.9,3.7-14.5,0
					C566.6,660.1,570.2,656.3,571.2,655.2z"/>
				<path class="st4" d="M569.9,654.7c0,0-1.3,2.1-0.9,3.8c0,0,0.8-1.3,1.6-1.8c0,0,0.7,1.9,1.8,2.4c0,0-0.4-2.6-0.3-3.6
					c0,0,1.6,0.9,3.9,0.7c0,0-1.1-1.9-2.8-2.8c0,0,1.3-0.9,2-2.3c0,0-2.6,0.4-4,1.9c0,0-2.1-1.2-3.7-3.4c-1.2-1.6-2.9-0.9-1.3,1.2
					C567.3,652.4,568.7,653.9,569.9,654.7z"/>
				<path class="st2" d="M572.8,660.3c0,0,0.6,0.8,1.7,1"/>
				<path class="st2" d="M577.9,661.9c0,0,1.1,0.9,1.8,1.2"/>
				<path class="st2" d="M581.5,659.6c0,0,0.6,0.6,1,1.5"/>
				<path class="st2" d="M578,657c0,0,0.6,0.2,0.9,0.9"/>
				<path class="st2" d="M577.3,653.7c0,0,0.6,0.2,1.1,0.9"/>
			</g>
			<g>
				<path class="st6" d="M519.4,640.2c0,0-1.4-5.3,0-9.4s3.6-2.4,4.2-0.3c0,0,0.6-4.2,2.8-4.5c2.2-0.3,2.8,2.3,2.8,2.3
					s0.5-3.8,2.6-3.7c2.1,0.1,2.7,2.7,2.7,2.7s1-1.2,3-1.8c2-0.6,3.4,1.2,3.1,2.8c0,0,3.6-1.5,4.7-0.2c1.2,1.3,0,3.8,0,3.8
					s2.6-0.1,3.3,1.6c0.8,1.8-0.8,3.1-0.8,3.1s2.3,0.6,2.4,2.4c0.1,1.8-2.3,2.9-3.7,3.2c0,0,1.3,1,1,2.2c-0.3,1.4-3.2,2.9-6.2,2.3
					c0,0,0.8,2.3-0.8,3.3c-1.5,1-5.2,0.4-6.5-1.1c0,0,0.8,2.2-0.6,2.8s-5.7-1.3-8.2-4.9c0,0-0.7,1.7-2.1,1.4
					C521.7,648,517.9,645.1,519.4,640.2z"/>
				<path class="st2" d="M540.1,637.6c0,0-11.1-4.6-20.7,2.6"/>
			</g>
			<g>
				<path class="st6" d="M558.1,639.3c0,0,4.8,0.7,7.3-4.6c2.5-5.3,0.1-5.9-0.7-4.8c0,0,2-2.5,2-5.1c-0.1-2.6-2.6-1.5-2.6-1.5
					s0.8-3.7-0.2-5.2s-2.4,0.2-2.4,0.2s-0.1-2.5-1.5-4.3s-3-0.3-3.1,0.6c0,0-0.8-2.5-2.7-3.4c-1.9-0.9-3.4,1.2-3.4,1.2
					s-2.5-2.9-4.6-2.6s-2,1.9-1.5,2.9c0,0-2.9-0.7-4,0.4c-1.1,1.1,1.3,4,1.3,4s-3.3,0.7-3.6,2.9c-0.3,2.2,2.6,3.3,2.6,3.3
					s-3.1,1.2-3,3.2c0.1,2,4.2,2.2,4.2,2.2s-1.6,1.1-0.2,2.4c1.4,1.2,3.7,1.8,3.7,1.8s-2.6,1.3,1,5.2
					C550.2,642.1,556.1,641.4,558.1,639.3z"/>
				<path class="st2" d="M548.9,620.2c0,0,7.1,7,9.2,19.2"/>
			</g>
			<g>
				<path class="st6" d="M559.9,634.6c0,0-0.3-4.6,3.6-8.2c2.6-2.4,8-3.5,8.2-0.7c0,0,5.5-2.9,9.5-1.1s-0.1,3.6-0.1,3.6
					s7.2,1.1,9.3,5.7c2.1,4.7-3.9,7.7-3.9,7.7s3.7,6-8.4,4c0,0-2.3,6-9.4,0.7c0,0,0.6,2.9-1.9,3c-2.5,0.1-4.5-5.1-4.5-5.1
					s-1,1.5-2,0.5C558.8,643.3,558.5,639.4,559.9,634.6z"/>
				<path class="st2" d="M581.3,637.1c-0.4,0-9-4.5-21.5-2.5"/>
			</g>
		</g>
		<g>
			<path class="st5" d="M294.5,459.8c0,0,2.8,14.6,19.6,9.4C314.2,469.2,308.2,453.1,294.5,459.8z"/>
			<g>
				<circle class="st6" cx="296.4" cy="468.5" r="8.5"/>
				<g>
					<circle class="st1" cx="299.7" cy="464.8" r="0.4"/>
					<circle class="st1" cx="298" cy="462.9" r="0.4"/>
					<circle class="st1" cx="295.8" cy="464.2" r="0.4"/>
					<circle class="st1" cx="297.5" cy="466" r="0.4"/>
				</g>
			</g>
			<path class="st5" d="M300.4,430.6c0,0-9.7,11.8-0.7,21.1C299.8,451.7,310.9,444.9,300.4,430.6z"/>
			<path class="st5" d="M292,456.2c0,0-6-9.8,7-17.6C299,438.6,303.6,454.2,292,456.2z"/>
			<path class="st5" d="M281.9,496.2c0,0,10.6-8.8,2-17.1C283.9,479.1,273.9,484.9,281.9,496.2z"/>
			<path class="st5" d="M288,476c0,0-6.8,12.7,6.5,19.4C294.4,495.4,300,480.5,288,476z"/>
			<path class="st5" d="M263.1,488.6c0,0-1.2-14,10.9-16.3C274,472.2,278,486.2,263.1,488.6z"/>
			<path class="st5" d="M264.1,459c0,0,13.8,6.7,20.2-8C284.4,450.9,271.5,444.4,264.1,459z"/>
			<path class="st5" d="M276.1,470.2c0,0-5-13.3,6.2-18.9C282.3,451.3,290,463.8,276.1,470.2z"/>
			<path class="st5" d="M280.8,436.5c0,0-5,13,11.3,18.1C292.1,454.6,295.6,438,280.8,436.5z"/>
			<path class="st5" d="M249.7,445.6c0,0,4.5,13,19.9,7.5C269.7,453.1,263.1,439.4,249.7,445.6z"/>
			<path class="st5" d="M268.8,448.1c0,0,12.7-6.1,5.5-20.2C274.3,427.9,261.9,432.8,268.8,448.1z"/>
			<path class="st5" d="M250.5,439.1c0,0,13.8,4.2,20.7-12.3C271.3,426.7,258.7,421.7,250.5,439.1z"/>
			<path class="st5" d="M241.2,470.1c0,0,13.3-0.8,11.9-14.8C253.1,455.3,241.6,455,241.2,470.1z"/>
			<path class="st5" d="M252.2,415.8c0,0-15.8,0.8-16.1,14.2C236.1,430,248.4,435.1,252.2,415.8z"/>
			<path class="st5" d="M215.9,447.3c0,0,13.5,5.3,19.3-10.8C235.2,436.5,222.8,430.1,215.9,447.3z"/>
			<path class="st5" d="M228.4,454.3c0,0,13.3-4.4,8-19.3C236.5,435,223.5,438.3,228.4,454.3z"/>
			<path class="st5" d="M214.4,422.5c-0.8,0.6,9.9,12.5,19.4,1.6C233.9,424.1,226.7,413.1,214.4,422.5z"/>
			<path class="st5" d="M233.5,403.1c0,0-8.2,15.1,4.3,21.4C237.8,424.5,247.8,416.2,233.5,403.1z"/>
			<g>
				<circle class="st6" cx="279.8" cy="478.4" r="8.5"/>
				<g>
					<circle class="st1" cx="279.4" cy="474.6" r="0.4"/>
					<circle class="st1" cx="276.9" cy="474.5" r="0.4"/>
					<circle class="st1" cx="276.3" cy="477" r="0.4"/>
					<circle class="st1" cx="278.8" cy="477" r="0.4"/>
				</g>
			</g>
			<g>
				<circle class="st6" cx="243.2" cy="451.6" r="8.5"/>
				<g>
					<circle class="st1" cx="247.5" cy="448.5" r="0.4"/>
					<circle class="st1" cx="246.5" cy="450.8" r="0.4"/>
					<circle class="st1" cx="248.7" cy="452.2" r="0.4"/>
					<circle class="st1" cx="249.6" cy="449.9" r="0.4"/>
				</g>
			</g>
			<circle class="st6" cx="283.1" cy="451.4" r="8.6"/>
			<g>
				<circle class="st1" cx="283.7" cy="446.8" r="0.4"/>
				<circle class="st1" cx="281.7" cy="445.3" r="0.4"/>
				<circle class="st1" cx="279.8" cy="447.1" r="0.4"/>
				<circle class="st1" cx="281.9" cy="448.5" r="0.4"/>
			</g>
			<g>
				<path class="st4" d="M227.1,419c0,0,14.6,12.4,21.7,28.5l2-3.7c0,0-5.9-15.2-20.6-26.4L227.1,419z"/>
				<path class="st4" d="M250.4,421.8c0,0-4.5,14.2-1.5,30c4.9,25.8-8.5,44.9-12.6,57.8c-4.1,13.2-12.8,18.8-6.3,24.2
					c4.5,3.7,16.6,1.1,17.4-11.1c1-14.4,2.3-33.6,9.6-40.2c7.4-6.6,21.7-7.3,32.7-18.1c11-10.8,24.3-9.2,24.3-9.2l-1.4-6.4
					c0,0-14.4-1.1-25.2,9c-8.9,8.4-20.8,14.8-24.7,12.2s3-7.9,6.6-14.8c3.8-7.4,10.9-17.8,18-18.7l-5.7-3.7c0,0-8.6,4.2-16.9,20.5
					c-6.5,12.7-9.5,2.2-10.3-5.4c-0.9-7.5-1.6-17.9,2.1-23.4L250.4,421.8z"/>
			</g>
			<path class="st5" d="M214.1,412c0,0,7.6,14.6,20.7,4.6C234.8,416.6,230.8,406.7,214.1,412z"/>
			<path class="st5" d="M247.7,412.2c0,0,0.4,18.7,18.4,16C266.1,428.2,266.4,414.4,247.7,412.2z"/>
			<path class="st5" d="M275.1,410.7c0,0-5.1,16.1,10.3,20.8C285.4,431.5,290.7,417.7,275.1,410.7z"/>
			<path class="st5" d="M315.5,432c0,0-14.9,3.7-13.5,16C301.9,448,316.9,448.8,315.5,432z"/>
			<path class="st5" d="M319.6,458.1c0,0-15,2.8-18.4-10.2C301.2,447.9,315,442.3,319.6,458.1z"/>
			<path class="st5" d="M277.7,430.2c0,0,0.9,13.4,20.1,8C297.8,438.3,289.9,424.7,277.7,430.2z"/>
			<g>
				<circle class="st6" cx="228.4" cy="432.2" r="8.5"/>
				<g>
					<circle class="st1" cx="231.6" cy="428.5" r="0.4"/>
					<circle class="st1" cx="230.2" cy="430.7" r="0.4"/>
					<circle class="st1" cx="232.2" cy="432.4" r="0.4"/>
					<circle class="st1" cx="233.4" cy="430.3" r="0.4"/>
				</g>
			</g>
			<g>
				<circle class="st6" cx="273" cy="429" r="8.5"/>
				<g>
					<circle class="st1" cx="276.1" cy="425" r="0.4"/>
					<circle class="st1" cx="275.1" cy="427.4" r="0.4"/>
					<circle class="st1" cx="277.3" cy="428.8" r="0.4"/>
					<circle class="st1" cx="278.2" cy="426.4" r="0.4"/>
				</g>
			</g>
		</g>
		<g>
			<g>
				<path class="st0" d="M378.1,651.2c0,0,0,5.1,4,5.1c10.8,0,23-0.8,29.1-1.5c6.7-0.7,8.2-2.9,8-7c0,0-4.9-4.1-15.5-2.1
					C393.2,647.7,378.1,651.2,378.1,651.2z"/>
				<path class="st4" d="M396.8,629.8c0,0,2.7,6.7-1.2,9.2s-18.6,4.7-17.5,12.2c0,0,22.1-3.5,41.2-3.3c0,0,0-11.5-2.1-17.5
					L396.8,629.8z"/>
				<path class="st2" d="M397.7,635.3c0,0,2.3,0.7,5.1,0.1"/>
				<path class="st2" d="M396.3,638.5c0,0,2.8,1.1,5.5,0.4"/>
			</g>
			<g>
				<path class="st0" d="M427.8,652.3c0,0-0.5,5.1,3.4,4.9c7.4-0.4,20-2.6,37.4-9.1c1-0.4,1.6-1.4,1.6-2.4c-0.1-1-0.1-2.2-0.2-3.1
					l-14.3,0.5L427.8,652.3z"/>
				<path class="st4" d="M444.2,628.6c0,0,2,6.4,0,10.6c-2,4.1-16.4,4.8-16.4,13.2c0,0,28.6-7.5,42.1-9.8c0,0-1-11.7-5.5-17.3
					L444.2,628.6z"/>
				<path class="st2" d="M445,633.3c0,0,2.4-0.1,4-0.7"/>
				<path class="st2" d="M445,636.2c0,0,2.6,0.3,4.3-0.6"/>
			</g>
			<path class="st5" d="M395.6,453.7c0,0-19.2,40.4-20,78.7l18,3.6l12.3-85.9L395.6,453.7z"/>
			<path class="st3" d="M371.1,556.7c0,0-2.7,14.6,8.4,12.9l2.8-13.9L371.1,556.7z"/>
			<path class="st5" d="M396.9,457c0,0-8.7,42.8-17,96.7c-8.3,53.9-11.3,71.7,11.5,77.2c22.8,5.5,75.5-3.4,94.8-10.1
				c0,0,5.1-27.6,0-76c0,0,2.7-68.8-12.5-94.7L396.9,457z"/>
			<path class="st1" d="M405,402.4c0,0-6.3-8.2-13.6-2.7c0,0-7.4-2.3-8.3,4.3c0,0-7.1-2.3-7.7,7.7c0,0-10.1,3.5-3.6,11
				c0,0-9,4.7-2.2,12.1c0,0-10.1,7-0.3,14.2c0,0-0.8,11.1,11.3,4.1c0,0,2.7,11.1,10.6,5.2c0,0,5.2,7.1,11.1-1.3h12.4
				c0,0,2.8,5.3,7.8-1.5c0,0,6.3,0.9,7.8-4.6c1.5-5.5,4.7-14.7-6.8-18.2C412,429.2,405,402.4,405,402.4z"/>
			<path class="st1" d="M441.2,397.9c0.9-0.6,8.2-9.9,14.4-3.4c0,0,9.1-5.4,12.6,2.4c0,0,12.7-3.1,10.7,8.3c0,0,15.3,0.2,7.3,14
				c0,0,7.8,5.3-1.9,10.7c0,0,8.3,5-1.3,11.5c0,0,1.5,9.6-8.9,11.5c0,0-0.6,10.2-11.9,4.7c0,0-5.1,7.1-9.4,0l-10.8,1.2
				c0,0-4.7,6.1-7.7,2c0,0-6.2,2.4-5.1-3.4c0,0-6.1-2.5-1.4-8.9c0,0,2-4.4-1.8-8.7C426.9,438.6,441.2,397.9,441.2,397.9z"/>
			<ellipse class="st3" cx="386.4" cy="413.7" rx="2.6" ry="2.1"/>
			<path class="st2" d="M379.1,429.5c0,0-4.2,3-0.9,5.9c0,0-1.5,2.9,1.7,3.6"/>
			<path class="st2" d="M383.3,444.2c0,0-0.9,3.1,1.9,3.2c0,0,0.5,4.3,4.3,0.8"/>
			<ellipse transform="matrix(0.2842 -0.9588 0.9588 0.2842 -53.4474 728.2242)" class="st3" cx="461" cy="399.9" rx="2" ry="2.8"/>
			
				<ellipse transform="matrix(0.2842 -0.9588 0.9588 0.2842 -53.6136 742.3015)" class="st3" cx="470.3" cy="407.1" rx="2.6" ry="3.8"/>
			<path class="st2" d="M473.8,417.1c0,0,3.2,0.1,1.9,3.4c0,0,3,2.9-0.5,4.7"/>
			<path class="st2" d="M468.9,441.4c0,0,3.1,2.2,0.3,4c0,0,2.4,2.6,0.4,4.1c-2,1.5-4.1-0.4-4.1-0.4"/>
			<circle class="st1" cx="424.1" cy="471.9" r="2.8"/>
			<circle class="st1" cx="422.8" cy="490.9" r="2.8"/>
			<circle class="st1" cx="421.9" cy="510.1" r="2.8"/>
			<circle class="st1" cx="420.9" cy="530.8" r="2.8"/>
			<circle class="st1" cx="419.9" cy="551.7" r="2.8"/>
			<circle class="st1" cx="420.5" cy="572.9" r="2.8"/>
			<circle class="st1" cx="421.1" cy="619.1" r="2.8"/>
			<circle class="st1" cx="420.5" cy="596.3" r="2.8"/>
			<path class="st2" d="M459.8,486.2c0,0,5.7,18.9,5.3,42.7"/>
			<g>
				<path class="st3" d="M472.5,557c0,0-1.4,9.8,5.1,5.8c0,0-1.1,5.9,2.7,6.7c4,0.8,10.3,0.1,6.9-15.6L472.5,557z"/>
				<g>
					<path class="st1" d="M386.6,525.8c0,0-5.1-5.2-9.1,0.9c0,0-5.5-6.3-8.4,1.7c0,0-8.9,0.1-6.1,9.8c0,0-3.4,4.5,0.6,9.1
						c0,0-4.9,6,1.7,9.2c0,0,1,4.9,6.4,2.2c0,0,1.2,3.7,5.2,0.8c0,0,6,4.7,8.5-5.7c0,0,10.7-3.5,6.4-14.5
						C392,539.4,395.7,525,386.6,525.8z"/>
					<ellipse class="st3" cx="373.8" cy="533.7" rx="2.4" ry="2"/>
					<ellipse class="st3" cx="379.4" cy="531" rx="1.4" ry="1"/>
					<g>
						<path class="st1" d="M464.6,527c0,0-7.7,3-2.3,9.5c0,0-5.4,6,1.6,9c0,0-3.5,7.1,4.2,7.5c0,0-1.9,6.4,4.4,5.2
							c0,0,4.5,4.3,8.1-1.9c0,0,3.6,3.9,6.7-0.9c0,0,3.9,3.1,6.1-1.9c0,0,5-1.7,5.4-8.6s-4.5-7.4-4.5-7.4s4.9-6.1-1-8.7
							c0,0,1.2-7.5-4-6.7c0,0-4.4-4.9-7.4-0.7c0,0-2.3-5.8-5.4-0.1c-0.5-3-5-4-6.6-0.2C470,521.2,462.6,520.1,464.6,527z"/>
						
							<ellipse transform="matrix(0.1655 -0.9862 0.9862 0.1655 -116.4121 916.4303)" class="st3" cx="483.3" cy="527" rx="1.8" ry="3.8"/>
					</g>
				</g>
			</g>
			<g>
				<g>
					
						<rect x="468.9" y="570" transform="matrix(0.9889 -0.1488 0.1488 0.9889 -80.2731 76.3991)" class="st0" width="2.9" height="9.3"/>
					
						<rect x="493.5" y="564.9" transform="matrix(0.9889 -0.1488 0.1488 0.9889 -79.2531 80.0041)" class="st0" width="2.9" height="9.3"/>
				</g>
				<g>
					<circle class="st4" cx="471.3" cy="580.9" r="4.8"/>
					<circle class="st4" cx="496.4" cy="576.7" r="4.8"/>
					<g>
						
							<rect x="467.5" y="579.3" transform="matrix(0.9881 -0.154 0.154 0.9881 -87.25 82.3635)" class="st0" width="40.9" height="49.9"/>
						<path class="st0" d="M453.1,584.4L453.1,584.4c-5,0.8-8.3,5.3-7.5,10.2l0.6,3.6l3.8,24.5l0.6,3.6c0.8,4.9,5.3,8.2,10.2,7.4
							l0.1,0l8.2-1.3l-7.7-49.3L453.1,584.4z"/>
						<path class="st0" d="M515.1,574.8L515.1,574.8l-8.3,1.3l7.7,49.3l8.2-1.3l0.1,0c4.9-0.8,8.2-5.3,7.4-10.2l-0.6-3.6l-3.8-24.5
							l-0.6-3.6C524.5,577.3,520,574,515.1,574.8z"/>
						<path class="st1" d="M470.9,613.3l-6.9,1.1c-1.2,0.2-2.4-0.7-2.6-1.9l-1.2-7.9c-0.2-1.2,0.7-2.4,1.9-2.6l6.9-1.1
							c1.2-0.2,2.4,0.7,2.6,1.9l1.2,7.9C473,612,472.1,613.1,470.9,613.3z"/>
						<path class="st1" d="M513.8,606.6l-6.9,1.1c-1.2,0.2-2.4-0.7-2.6-1.9l-1.2-7.9c-0.2-1.2,0.7-2.4,1.9-2.6l6.9-1.1
							c1.2-0.2,2.4,0.7,2.6,1.9l1.2,7.9C515.9,605.3,515.1,606.4,513.8,606.6z"/>
						<line class="st0" x1="471.6" y1="632.1" x2="469" y2="632.5"/>
						<line class="st0" x1="461.3" y1="583.1" x2="463.9" y2="582.7"/>
						
							<rect x="465.1" y="582.6" transform="matrix(0.9881 -0.154 0.154 0.9881 -88.022 79.0953)" class="st4" width="2.6" height="49.9"/>
						<line class="st0" x1="514.5" y1="625.4" x2="512" y2="625.8"/>
						<line class="st0" x1="504.3" y1="576.4" x2="506.8" y2="576"/>
						
							<rect x="508.1" y="575.9" transform="matrix(0.9881 -0.154 0.154 0.9881 -86.478 85.6317)" class="st4" width="2.6" height="49.9"/>
						<path class="st0" d="M467.3,605.7l-2.3,0.4c-0.5,0.1-1.1-0.3-1.1-0.8l-0.7-4.5c-0.1-0.5,0.3-1.1,0.8-1.1l2.3-0.4
							c0.5-0.1,1.1,0.3,1.1,0.8l0.7,4.5C468.2,605.1,467.9,605.6,467.3,605.7z"/>
						<path class="st0" d="M510.3,599l-2.3,0.4c-0.5,0.1-1.1-0.3-1.1-0.8l-0.7-4.5c-0.1-0.5,0.3-1.1,0.8-1.1l2.3-0.4
							c0.5-0.1,1.1,0.3,1.1,0.8l0.7,4.5C511.2,598.4,510.8,598.9,510.3,599z"/>
					</g>
					<path class="st1" d="M489.1,591.5l-7.1,1.1c-1.1,0.2-2.2-0.6-2.3-1.7l-0.3-2.2c-0.2-1.1,0.6-2.2,1.7-2.3l7.1-1.1
						c1.1-0.2,2.2,0.6,2.3,1.7l0.3,2.2C491,590.3,490.2,591.4,489.1,591.5z"/>
					<g>
						<path class="st4" d="M445.6,594.6l0.6,3.6l5.4-0.8c1.9-0.3,3.3-2.1,3-4.1l-1.4-8.9l-0.1,0
							C448.2,585.2,444.8,589.7,445.6,594.6z"/>
						<path class="st4" d="M450.5,626.3c0.8,4.9,5.3,8.2,10.2,7.4l0.1,0l-1.4-8.9c-0.3-1.9-2.1-3.3-4.1-3l-5.4,0.8L450.5,626.3z"/>
						<path class="st4" d="M515.1,574.8L515.1,574.8l1.3,8.9c0.3,1.9,2.1,3.3,4.1,3l5.4-0.8l-0.6-3.6
							C524.5,577.3,520,574,515.1,574.8z"/>
						<path class="st4" d="M522.7,624.1L522.7,624.1c5-0.8,8.3-5.3,7.5-10.2l-0.6-3.6l-5.4,0.8c-1.9,0.3-3.3,2.1-3,4.1L522.7,624.1z
							"/>
					</g>
				</g>
				<path class="st4" d="M496.6,566.5l-28.5,4.4c-1.8,0.3-3.5-1-3.8-2.8l0,0c-0.3-1.8,1-3.5,2.8-3.8l28.5-4.4c1.8-0.3,3.5,1,3.8,2.8
					v0C499.7,564.5,498.4,566.2,496.6,566.5z"/>
			</g>
			<g>
				<g>
					<path class="st6" d="M405.9,442.6c0,0-1.7,4.8-5.1,7.6s-1.9,9.1,3.5,11.4c0,0-0.6,1.8-3.9,4.9c-3.3,3.1-2.1,8.4,2.8,10.5
						c0,0-8.2,5-1.4,10.6c0,0,0.7,4-4.4,6.7c-5.2,2.8-4.8,5.6,0.4,5.2c0,0,0.6,2.6,3.4,2.3c2.7-0.3,2.2-3.5,2.2-3.5s4,3.4,4.9-2.3
						c0,0,4.3-2.2-0.5-8c0,0,4-0.8,4.2-4c0.3-3.1-2-3.8-2.3-6.7c0,0,3.8-0.9,5.4-6s-3.3-9.6-3.3-9.6s5.7-1.7,5.1-8.8
						s-7.9-10.3-7.9-10.3H405.9z"/>
					<path class="st2" d="M410.1,454.6c0,0,0.7,2.8-0.8,4.8"/>
					<path class="st2" d="M413.5,454.3c0,0,0.3,2.4-1.2,4"/>
					<path class="st2" d="M407.6,470.8c0,0,0.6,2.8-0.8,4.7"/>
					<path class="st2" d="M410.3,471.5c0,0,0,2.3-1.2,3.6"/>
					<path class="st2" d="M405.4,482c0,0,0.6,1.6-0.4,3.4"/>
					<path class="st2" d="M407.9,482.3c0,0.2,0.1,2.1-0.7,2.8"/>
					<path class="st6" d="M443.7,441.9c0,0-4.8,4.2-6.7,8.3c-2,4.1,0,8.7,7.2,9.9c0,0-6.9,4.4-6.2,9.5c0.7,5,5.7,6.9,5.7,6.9
						s-7.2,4.3-1.1,10.9c0,0-1.1,5.4-5.8,8s-3.5,4.9,0.4,4c3.8-0.9,5.1-2.7,5.1-2.7s1.5,6.9,4.1,1c0,0,4.9,6.4,4.8-3.2
						c0,0,4.2-2.4-1.6-7.3c0,0,5.3-5.6-0.1-10.6c0,0,10.7-8.3,0.9-16.2c0,0,12.9-7.5-2.2-19.1L443.7,441.9z"/>
					<path class="st2" d="M447.6,452.1c0,0,1.5,3.1,0,5.5"/>
					<path class="st2" d="M450.6,457.4c1.6-2.3,0.3-5.3,0.3-5.3"/>
					<path class="st2" d="M446.8,470.3c0,0,0.9,2.3-0.2,4.2"/>
					<path class="st2" d="M449.7,470.3c0,0,0.5,1.8-0.5,3.1"/>
					<path class="st2" d="M446.8,483.1c0,0,0.6,1.7,0,2.6"/>
					<path class="st2" d="M448.9,482.4c0,0,0.6,1.5,0,2.7"/>
				</g>
				<path class="st6" d="M418.1,436.9c0,0-5.3,12.5-12.2,5.6c0,0-4.2,2.4-4.8-3.1c0,0-2.6,0.7-4,2.6c0,0,2-5.2,0.5-8.8
					c0,0-8.8,0.9-6.2-12.8c0,0-1.2-0.6-2.4,0.4c0,0,0.6-2.9,4.8-3.9c4.2-1.1,4.6-4.1,4.6-4.1s-2.2-0.7-3.4-2.9c0,0,4.7,0,5.5-4.4
					c0.7-4.4,3.2-6.5,6.2-6.7c0,0,1.4-1.4,0.4-3.2c0,0,2.4,2.4,8,1.4c0,0-0.6-1.9-3.4-3.2c0,0,4.9-2.4,10,0.6c0,0,2.9-3.9,10.7-4.2
					c0,0-0.8,2.2-0.4,4.1c0,0,5.2-3.6,9.1-2c4,1.6,1.9,6.1,6.4,7.8c4.6,1.7,6.1,4.2,6,10c-0.1,5.8,1.4,8.4,4.2,10
					c0,0-2.8,0.9-3.7,2.7c0,0,9,5,3.4,9.3c0,0-1,10.5-9.3,9.2c0,0-7.2,5.2-11.1-6.2L418.1,436.9z"/>
				<circle class="st3" cx="426" cy="425.9" r="15.1"/>
				
					<ellipse transform="matrix(0.9959 -9.065286e-02 9.065286e-02 0.9959 -37.2662 39.7411)" cx="418.9" cy="430.1" rx="0.7" ry="1.7"/>
				
					<ellipse transform="matrix(0.9959 -9.065286e-02 9.065286e-02 0.9959 -37.2241 40.1717)" cx="423.6" cy="429.9" rx="0.7" ry="1.7"/>
				<path class="st2" d="M443.3,435.4c0,0-0.5,2.9,1.7,4.4"/>
				<path class="st2" d="M448,435.4c0,0,0.2,2.5-0.8,3.5"/>
				<path class="st2" d="M449.6,439c0,0,2.2-1.2,2.4-3.3"/>
				<path class="st2" d="M405.6,437.6c0,0,1,1.5,1,2.9"/>
				<path class="st2" d="M410,437.6c0,0,0.4,1.6-0.2,3.1"/>
				<path class="st6" d="M419.4,404.8c0,0-5.4-2.4-7.9,1.6c-2.6,4,0.6,15.1-9,16.8c0,0,1.5,1.5,5.6,1.1c0,0-0.3,2.5-2,3.4
					c0,0,12.8,0.9,15.6-8.3c0,0,1.7,6.4,9.5,5.4c0,0-0.8-1.3-0.9-3.1c0,0,6.1,9.1,17.3-1.2c0,0-5.9,0.1-5.4-4.3s1-9.3-2.6-11.5
					c-3.6-2.2-8.4-0.5-10.7,1.8c0,0,1.4-3.7-1-4.2c-2.6-0.4-3.1,3.1-3.1,3.1"/>
			</g>
		</g>
	</g>
</g>
</svg>
