<?xml version="1.0" encoding="utf-8"?>
<!-- Generator: Adobe Illustrator 22.1.0, SVG Export Plug-In . SVG Version: 6.00 Build 0)  -->
<svg version="1.1" id="圖層_1" xmlns="http://www.w3.org/2000/svg" xmlns:xlink="http://www.w3.org/1999/xlink" x="0px" y="0px"
	 viewBox="0 0 684.6 1026.7" style="enable-background:new 0 0 684.6 1026.7;" xml:space="preserve">
<style type="text/css">
	.st0{fill:#E54C17;stroke:#000000;stroke-width:0.43;stroke-miterlimit:10;}
	.st1{fill:#ED7235;stroke:#000000;stroke-width:0.43;stroke-miterlimit:10;}
	.st2{fill:#FEE3C0;stroke:#000000;stroke-width:0.43;stroke-miterlimit:10;}
	.st3{clip-path:url(#SVGID_2_);fill:#E54C17;stroke:#000000;stroke-width:0.43;stroke-miterlimit:10;}
	.st4{clip-path:url(#SVGID_2_);}
	.st5{fill:none;stroke:#000000;stroke-width:0.43;stroke-miterlimit:10;}
	.st6{fill:#45805C;stroke:#000000;stroke-width:0.43;stroke-miterlimit:10;}
	.st7{fill:#FFBA31;stroke:#000000;stroke-width:0.43;stroke-miterlimit:10;}
	.st8{fill:#97CEB3;stroke:#000000;stroke-width:0.43;stroke-miterlimit:10;}
	.st9{fill:#FFFFFF;stroke:#000000;stroke-width:0.43;stroke-miterlimit:10;}
	.st10{fill:none;stroke:#000000;stroke-width:0.43;stroke-linecap:round;stroke-linejoin:round;stroke-miterlimit:10;}
	.st11{fill:#FEE3C0;}
</style>
<g>
	<path class="st0" d="M543.9,188.2l-380.4,33.1l-29.1,3.3c1.8,68.9,16.2,68.1,18.3,130.6c2.1,62.2-15.3,94.2-15.3,94.2l38.3,7.2h2.9
		c0,0,0-0.1,0-0.1l317.5,39.7c0,0-10.7-37.4-11.8-50.2c-2.4-29.6,0.7-111.4,42.2-188.3C547,219.9,543.9,188.2,543.9,188.2z"/>
	<g>
		<path class="st1" d="M398.3,220.3c1.4-0.4,1.9,1.1,2.3,3.9c0.4,3.5-0.3,4.8-1.5,4.6c-0.7-0.1-2.2-1.6-2.3-3.9
			C396.6,222.7,397.2,220.6,398.3,220.3z"/>
		<path class="st1" d="M396.3,248.2c-0.2-5.5-0.5-14,3.3-14c2.8,0,3.3,10.5,3.9,24.3c0.5,13.8,0.5,31.5-1.1,39.7
			c-1.6,8.2-0.4,24-3.4,24.6c-5.5,1.2-4.7-9.9-4.9-21.6C393.9,289.6,397.2,272.2,396.3,248.2z"/>
		<path class="st1" d="M417.5,207.8c0,0,0.6,52.7,0,61.4c-0.6,8.8-0.6,16.7,4.4,27.2c5,10.5,5.6,17,5.9,31s2.3,65.2,2,75.5
			c-0.3,10.2-2,60.9-12.5,69l18.4,4.7c0,0,8.5-35.4,8.5-60.6c0-25.2-0.6-65,0-81.3c0.6-16.4,3.8-22.8,4.7-37.5s-1.2-71.6,0.6-89.5
			H440c0,0,0.6,16,0.6,21.9s-0.9,23.5,0.9,31.7c1.8,8.2,0,15.5,1.8,27.2s-1.2,19.6-4.4,19.9c-3.2,0.3-1.4-8.2-5.1-14
			s-5.2-20.6-5.2-32c0-14.4-1.4-26.2,0.4-54.6H417.5z"/>
		<path class="st1" d="M472.7,205.6c0,0-2.1,10.5,2.8,17c4.9,6.5,4.4,6.2,5.3,15.7c0.9,9.5,1.7,10,3,9.5c2-0.7,0.7-21.5,1.8-28
			c1.2-6.5,2.8-8.3,1.6-14.2H472.7z"/>
		<path class="st1" d="M501.9,203.2c0,0-2.5,10.9,1.4,26.3c3.9,15.5,0.5,31.4-2.2,40.7h5.7c0,0,4.6-3.2,6.9-19.2
			c2.3-15.9,0.5-14.6,5.1-22.4c4.6-7.9,5.1-21.7,3.2-28l-8.5,1.6c0,0,1.6,16.2-0.2,22.2c-1.8,6-3.9,7.4-5.3,4.4s-1.6-24.3,0.2-30.7
			L501.9,203.2z"/>
		<path class="st1" d="M230.9,262c0,0,4,0.3,4.5,4.9c0.5,4.3,1.3,12.4,5.9,14.8c4.6,2.3,1-9.1,3.6-9.6c2.6-0.5,7.7,10.8,7.4,23.1
			s4.2,12.2,5.4,11.3c2.8-2-2.8-22-1.8-34.1c0.5-6.3,3.4-9.7,3.4-9.7L230.9,262z"/>
		<path class="st1" d="M296,244.1c0,0,0.5,22.6,4.6,45.4c4.1,22.8,3.6,41.9,1.3,57.7c-3.4,23.1,3.2,48.8,2.5,72.6
			c-0.8,31,0.3,47.7,0.3,47.7H320c0,0,0-27.9-2.2-57.4c-1.7-22.5-6.3-38.3-2.1-73.2c2.2-18.9,6.4-21.3,5.6-40.5
			c-0.8-19.2,1.5-54.4-3.3-63.1l-6.2,3.8c0,0,3.1,8.5,2.3,21.5s1.5,24.6,1.3,31.8s-1.8,13.6-4.4,10.5c-1.7-2-3.3-12.3-4.6-23
			c-1.3-10.8-1.7-29.8-3.3-33.9L296,244.1z"/>
		<path class="st1" d="M344.4,211.5c0,0,6.2,5.9,5.4,12.8c-0.8,6.9-2.7,21.8,0.1,27.4c2.8,5.6,4.3,2.1,5.6,0
			c1.3-2.1,1.3-7.2,3.8-5.6c2.6,1.5,3.3,21.5,2.1,29.7c-1.3,8.2,3.1,25.4,3.6,34.4c0.5,9,5.6,21.5,6.4,31l4.5,1c0,0-3-36.4-3-44.4
			s-3.3-28.7-2.8-39.2s-0.3-21.3-0.8-34.6c-0.4-13.1,2.3-19.9,2.3-19.9L344.4,211.5z"/>
		<path class="st1" d="M357.3,469.7c0,0,12.8-0.3,15.2-16.4c1.2-8.5,2.3-27.2,2.5-39.7c0.1-11.4,0.7-19.7,3.2-19.5
			c2.8,0.3,3.7,4.1,3,15.7c-0.5,8.3,2.3,18.4,2.8,27.4c0.9,20.4,4.2,28.9,13.4,33.2L357.3,469.7z"/>
		<path class="st1" d="M469.6,285.5c-0.1-6.2,0.2-24-4.8-24.4c-5-0.4-5,19.6-5,30s-4.2,15.7-4.6,33.8c-0.4,17.8-2.7,25.7,0,33
			c2.7,7.3-0.1,15.3,2.3,18.4c1.9,2.5,4.2,1.7,5.2-8.6c0.9-10.4-0.3-24.2,4-32.3C470.9,327.4,469.9,305.9,469.6,285.5z"/>
		<path class="st1" d="M276.8,284.4c2,0.6,6.2,16.7,4.8,40.8s-1.4,27.9-5.2,27.6s-4.4-22.2-3.6-35.8
			C273.6,303.3,270.8,282.6,276.8,284.4z"/>
		<path class="st1" d="M225.4,294.2c0.1-3.3-1.6-13.8,2.9-13.8s2.8,17.8,4.8,25.3c2,7.5,3.3,25.8,2.8,35s-5.8,5-6.8-7.3
			C228.1,321.1,225.1,303.4,225.4,294.2z"/>
	</g>
	<path class="st2" d="M207.1,372.5c-6.3-28.8,0-32.1-4.9-57.8c-2.5-13-6.5-26.4-0.5-53.3c0,0-30.9-24.3-40-28.5
		c-4.7-2.1-32.7-9.4-32.7-9.4c1.6,56.3,21.6,69.2,23.7,131.7c2.1,62.2-15.3,94.2-15.3,94.2l38.3,7.2l31.6,1.5c0,0,5.4-13.4,6.7-35
		C214.9,411.7,210.5,388.4,207.1,372.5z"/>
	<path class="st0" d="M162,241.4c0,0,3.1,9.3,2.3,19.7s8.9,25.8,8.9,41.6s-1.2,42.8,3.5,62.8c4.6,20,14.7,24.6,14.7,38.1
		c0,0-1.6-36.9-0.8-56.2s-4.6-28.1-5-49.3c-0.4-21.2,4.2-40.1-1.2-47l-8.4-4.6c0,0,2.8,9.5,3,20.6c0.2,11.1-0.3,17.1-3.3,14.7
		s-4.4-18.7-4.8-25c-0.4-6.3-2.2-13.3-2.2-13.3L162,241.4z"/>
	<g>
		<path class="st0" d="M555.5,664.7c2.9-10.7-0.5-18.5-4.4-10.7c-3.9,7.8-1.2,23.8-6.5,23.8c-4,0-2.1-16.1-1.1-30.2
			c1-14.1-2.2-14.5-3.2-17l20.5-7.8l33.2,3L398,549L72.5,482.7c0,0,5.3,20.3,18.2,34.9c14.6,16.5,31.2,24.4,34,51.1
			c4.3,40.5,39.7,70.1,31.4,145.1c-3.9,35.3-6.3,67.9-5.8,93.5L365.2,777l122.3-49.5l51.2-2.2c0,0,0-11.8,9.3-29.8
			C545.8,684.3,552.6,675.1,555.5,664.7z"/>
		<path class="st1" d="M595.7,626.4l-1.7-0.7l-33.2-3l-20.5,7.8c1,2.4,4.1,2.8,3.2,17c-1,14.1-2.9,30.2,1.1,30.2
			c5.3,0,2.6-16,6.5-23.8c3.9-7.8,7.3,0,4.4,10.7c-2.8,10.4-9.6,19.7-7.4,30.8c2.8-5.5,6.5-11.5,11.3-18
			C579.9,649.6,584.2,648.8,595.7,626.4z"/>
		<g>
			<path class="st1" d="M375.6,759.3c0.6-2.8,2.3-18.1,0-38.6c-2.3-20.4,6.2-47.1,4-63.5c-2.3-16.4-3.7-23.7,0.4-29.2
				c4.1-5.5,6.6,4,7.3,17.7s18.1,50.6,18.1,85.7s0,35.1,0,35.1L375.6,759.3z"/>
			<path class="st1" d="M303.5,772.3c0,0,4.4-12.2,0-40c-4.4-27.8,8.3-29.2,8.3-21.9s5.8,13.3,4.4,29.1c-1.5,15.8,2.9,34.8,2.9,34.8
				L303.5,772.3z"/>
			<path class="st1" d="M407,581.4c0,0,5.9,7.2,5.9,17.6c0,10.4,2.4,19.7,2.7,27.9s4,10.6,6.1,6.4c2.1-4.3,1.6-13,0-22.3
				c-1.6-9.3-2.4-25.3-0.5-29.5H407z"/>
			<path class="st1" d="M449.5,612.4c4.7,1.7,0.7,16.7,3.6,28.7s7.3,8,9.4,21.1c2.2,13.1,3.6,53.7-0.8,79.5l-16.5,1.5
				c0,0,2.4-47.7,1-65.4c-1.5-17.8-4-10.9-4-30.9C442.3,626.9,444.5,610.5,449.5,612.4z"/>
			<path class="st1" d="M480.8,607.2c0,0,5.2,12.3,5,32.3c-0.4,38.2,4.8,76.1,0.2,89.4c-1.4,4,18.2,3.6,17,0
				c-1.2-3.6-2.4-44.1-4.4-64.9c-2-20.8-5.6-21.6-5.6-39.7c0-9.1,1.4-15.2,1.4-15.2L480.8,607.2z"/>
			<path class="st1" d="M507.3,612.6c0,0,5.7,1.6,6.3,10.2c0.7,8.6-2.1,25.3,1.8,27.1c4.2,1.9,4.7-17.6,7.5-26.5
				c1.5-4.7,3.9-5.7,3.9-5.7L507.3,612.6z"/>
			<path class="st1" d="M113.5,515.2c0,0-0.5,6.3,6.3,10.4c9.8,5.9,7.2,11.3,9.3,16.6c2.1,5.4,6.6,5,5.6,0
				c-3-14.4,1.7-21.4-1.2-21.4C129.6,520.9,113.5,515.2,113.5,515.2z"/>
			<path class="st1" d="M149.2,526.8c0,0,2.1,7.8,1.6,16.2c-0.5,8.5,3.3,13.1,6.3,23.2c3.1,10.1,0.7,15.7,4,22.3
				c3.3,6.6,6.6,7.7,7.3-3.8s-2.8-20.7-2.1-26.8c0.7-6.1-1.4-19,0.7-25.6L149.2,526.8z"/>
			<path class="st1" d="M166.6,603.5c4.7,0.1,6.6,16.4,8.7,35c4.9,43.8,13.5,70.2,12.6,80.1c-0.3,3.3,7.6,65.7,0,70.7
				c-3.2,2.1-4-18.7-4-37.3c0-18.4-6.6-39.8-7.1-45.1c-2.9-28.1-5.4-26.7-6.7-39.9c-1.3-13.1-2.6-31.4-4.1-41.6
				C164.5,615.3,163.7,603.5,166.6,603.5z"/>
			<path class="st1" d="M187.9,541.2c0,0,4.6,15.6,6.7,33.7c2.1,18.1,11.4,17.3,21.9,31.1c10.5,13.9,10.1,62.3,9.3,74.9
				c0,0,12.2,1.3,12.2,0c0-1.3,2.1-45.5-6.7-64.4c-8.8-18.9-10.5-53-12.2-63.1l-9.3-4.3c0,0-1.1,7.8,1.6,18.6
				c3,11.9,4.1,18.2,1.7,19.2c-4,1.6-10.1-10.3-11.7-22.2c-1.6-11.9-5.4-23.6-5.4-23.6H187.9z"/>
			<path class="st1" d="M244.9,560.2c0,0-1.9,10.5,6.2,43.4c3.9,15.7,5.7,37.7,4.9,51.7c-1.1,18.6,1.4,34.8,1.4,34.8
				s16.7,4.7,17.2-3.1c0.5-7.9,1-26.5,0-46.6c-1-20.1-4.3-51.2-3.8-60.8c0.5-9.6-0.5-16.3-0.5-16.3l-6.7,1.4c0,0-3.5,8.5-0.1,25.2
				c3.3,16.7,4.4,33.9,1.1,33.7c-5.6-0.3-4.3-21.8-9.1-34.5c-4.4-11.9-4.7-21.8-4.7-21.8L244.9,560.2z"/>
			<path class="st1" d="M212,625.8c4.1-2.6,5.8,8.7,6.8,28.6c1,20.1,9.6,43.3,11.7,63.7c2,20.5,8.7,45.6,7.7,59.7
				c0,0-12.4,10.1-11.7,6.7c0.7-3.4,1-10.4-2.5-22.5c-3.5-12.1-7.5-26.2-5.9-34.2c1.7-8.1-6.3-36.2-8.5-48
				C207.3,668.1,207.6,628.6,212,625.8z"/>
			<path class="st1" d="M265.3,723.2c0,0,8.9,21.5,9.8,29.1c0.9,7.6,5.5,24,10.5,26.6c9.1,4.5-7.9-44.4-5.6-56.9L265.3,723.2z"/>
			<path class="st1" d="M307,685.9c0,0-3.7-7.6-2.4-27.3c1.5-23.2-4.2-35.4,1.3-47.1c2.7-5.8,2.9-12.2,7.1-10.3
				c3.7,1.7-0.2,21.2-0.9,32.2c-1.2,20.7,4,23.3,4,50.6L307,685.9z"/>
			<path class="st1" d="M325.9,577c0,0,1.8,43.7,3.6,55.7c1.8,12,4.6,37.7,2.6,44.9c-2,7.2-6.8,25.8-6.2,37.1
				c0.6,11.4,2.6,41.3,3.4,47.9c0,0,36.7-11.4,39.7-7.8c0,0,1.2-8.9-3.3-27.9c-4.5-19,2.6-34,5.1-51.6c2.6-17.6-6.8-33.2-7.6-46.8
				c-0.9-13.6,1.9-43.9,0-49l-11.3-0.3c0,0,2.1,14.5,1.6,27.5s-2,27.3,1.6,35.5c4,9,1.2,27.5,4,43.3c1.9,10.7,1.2,22.2-4.8,23
				c-6.1,0.8-16.1-12.1-13.7-34.3c2.4-22.2-3.2-27-4.4-44s-1.3-46.7-3.9-53.2H325.9z"/>
			<path class="st1" d="M179.6,582.8c2.2,0.8,4.5,15.7,5.9,24.8c1.4,9.1,2.8,23,0,23.1c-2.7,0-5.3-11.9-4.8-20.8
				C181.2,601,176.4,581.6,179.6,582.8z"/>
		</g>
	</g>
	<g>
		<g>
			<defs>
				<path id="SVGID_1_" d="M467,778.5l-265.2,79.1l-15,5l-83.8,28c11.6,10,29.2,48.3,34.5,61.6c3.1,7.9,11.9,20.8,23.1,32.3
					c7.6,7.9,16.4,15,25.1,19.5c21.4,10.9,62.3,13.4,96.3-6.5c34-19.8,49.4-12.9,76.9-26.3s36-35.2,65.9-55.8
					c29.9-20.6,56.2-17.4,80.9-53c24.7-35.6,33.3-115.3,33.3-115.3L467,778.5z"/>
			</defs>
			<clipPath id="SVGID_2_">
				<use xlink:href="#SVGID_1_"  style="overflow:visible;"/>
			</clipPath>
			<path class="st3" d="M467,778.5l-265.2,79.1l-15,5l-83.8,28c11.6,10,29.2,48.3,34.5,61.6c3.1,7.9,11.9,20.8,23.1,32.3
				c7.6,7.9,16.4,15,25.1,19.5c21.4,10.9,62.3,13.4,96.3-6.5c34-19.8,49.4-12.9,76.9-26.3s36-35.2,65.9-55.8
				c29.9-20.6,56.2-17.4,80.9-53c24.7-35.6,33.3-115.3,33.3-115.3L467,778.5z"/>
			<path class="st3" d="M467,778.5l-265.2,79.1l-15,5l-83.8,28c11.6,10,29.2,48.3,34.5,61.6c3.1,7.9,11.9,20.8,23.1,32.3
				c7.6,7.9,16.4,15,25.1,19.5c21.4,10.9,62.3,13.4,96.3-6.5c34-19.8,49.4-12.9,76.9-26.3s36-35.2,65.9-55.8
				c29.9-20.6,56.2-17.4,80.9-53c24.7-35.6,33.3-115.3,33.3-115.3L467,778.5z"/>
			<g class="st4">
				<path class="st1" d="M457.8,809.8c0,0,0,22-9.2,51.1s-18.9,36.3-17.4,54.7c0,0,19.9-7.7,22.5-10.7s-2.6-7.7,8.7-28.6
					c11.2-21,18.9-45.5,20.5-75.2h-7.8c0,0-0.7,8.3-1.7,15.3c-1,7-2.6,28.6-6.3,35.6c-3.6,7-6,17.3-8.9,14.2s0.5-15.2,3.9-29.4
					c3.4-14.2,6-19.7,4.6-31.3L457.8,809.8z"/>
				<path class="st1" d="M372.7,874.8c0,0,3.1,15-8.7,39c-11.8,24-22.6,42.4-19.3,72c0,0,14.3-3.3,14-7.1c-0.3-3.8-4-18.4,14.6-57.4
					s23.7-54.6,24.7-84.3l-24.5,9.4L372.7,874.8z"/>
				<path class="st1" d="M387,955.7c0-2.8,5.2-27.8,16-52.3c10.8-24.5,13.2-35.3,16.9-29.7c3.8,5.6-6.1,16.5-7.1,37.7
					s-6.1,35.3-6.1,35.3L387,955.7z"/>
				<path class="st1" d="M517.3,768.9c0,0,11.3,8.5,4.7,25s-15.5,30.6-18.3,45.4c-2.8,14.8,0.5,11,7.1,4c6.6-7.1,11-4,11-4
					s24.3-60.5,24.8-63.3c0.5-2.8,7.5-38.1,7.5-38.1l-14.6-8L517.3,768.9z"/>
				<path class="st1" d="M242.6,1012.3c0,0-25.8-6.2-26.1-20.7h-17.9c0,0,16,10.4,13.4,12.8c-6.6,6.1-35.3-20-35.3-20l-23.8-6.5
					c0,0,0.5,7.4,0,9.7c-0.5,2.3,23.8,29.1,23.8,29.1l50.5,7.4l-1.1-7.4L242.6,1012.3z"/>
				<path class="st1" d="M247.9,988c5.3,13.3,11.9,10.9,21.4,19.9c0,0,1.2-5.2,2.4-3.8c1.2,1.4-10.3-8.9-11.9-21.2
					C259.8,982.9,246.7,985,247.9,988z"/>
				<path class="st1" d="M293.2,967.8c0,0,3.2,15.1,0,26.2l10.3-4.4c0,0,0-3.6,2-11.5s5.6-10.7,3.6-18.3l-4.8,4.4
					c0,0,0.6,9.9-2.9,12.7c-3.5,2.8-4.7-11.5-4.7-11.5L293.2,967.8z"/>
				<path class="st1" d="M319.1,947.1c0,0,4.9,11.1,0,23.4c-4.9,12.3-3.7,24.8-3.7,24.8l9.1-7.3c0,0-1.2-9.9,3.6-22.6
					c4.8-12.7,9.5-23.4,6.8-34.2L319.1,947.1z"/>
				<path class="st5" d="M467,778.5l-265.2,79.1l-15,5l-83.8,28c11.6,10,29.2,48.3,34.5,61.6c3.1,7.9,11.9,20.8,23.1,32.3
					c7.6,7.9,16.4,15,25.1,19.5c21.4,10.9,62.3,13.4,96.3-6.5c34-19.8,49.4-12.9,76.9-26.3s36-35.2,65.9-55.8
					c29.9-20.6,56.2-17.4,80.9-53c24.7-35.6,33.3-115.3,33.3-115.3L467,778.5z"/>
				<path class="st1" d="M417.1,836.2c0,0,2.2,0.8,3,6.8c0.8,6-2.4,8.1,1.1,11.9c3.5,3.8,3.3-13,6-20.1s3.8-9.8,3.8-9.8L417.1,836.2
					z"/>
				<path class="st1" d="M493.3,829.3c0,2.6-0.8,5.9-3.2,10c-5.7,9.5-9.1,22.2-9.5,26.6c-0.4,4.4-1.4,10,1.5,8.7s8.6-16.6,11.3-27.6
					c2.8-11,1.8-13.5,2.8-15.8s1.3-6.6-1-6.6C493.5,824.5,493.3,828.5,493.3,829.3z"/>
			</g>
		</g>
		<path class="st1" d="M186.8,862.6l-83.8,28c11.6,10,29.2,48.3,34.5,61.6c2,5.1,6.4,12.2,12.2,19.7c6.7,8.7,15.7,15.2,26,19
			c8.2,3,17.7,5.7,27.1,6.5c19.7,1.8,58.8-6.7,87.2-20.9c6.4-3.2,12.3-6.7,17.2-10.5c1.9-1.4,3.6-2.9,5.2-4.3
			c24.6-22.9,61.6-70.4,68-117.9L186.8,862.6z"/>
		<path class="st0" d="M381.8,870c0.1-0.1,0.2-0.1,0.3,0c2.3,4.2-0.3,13.3-0.5,17.1c-0.3,6-5.6,10-5,5.1c0.6-4.9,2-12.9,3.2-17
			C380.7,872.4,381.5,870.7,381.8,870z"/>
		<g>
			<path class="st5" d="M162.8,894.2c5.9,19.8,5.2,31.3,17.5,46.1c19.2,23.4,21.6,17.8,25.2,40.2"/>
			<path class="st5" d="M216.7,885.8c-1.7,11-5.1,23-11.3,35.6"/>
			<path class="st5" d="M265.4,876.9c-1.2,20.1,0.1,39.8-1.1,50.7c-1.5,14.2-0.3,27.2,5,38.8"/>
			<path class="st5" d="M320.9,862c-1.3,9.6-3.8,20.3-7.2,32.4c-8.6,30.8-18.1,53.9-38.2,67.8"/>
		</g>
		<g>
			<path class="st2" d="M218.8,905.3c-7.9,0.1-14.3,6.3-14.6,14.2l-2.7,0c-0.4-7.8-6.9-14-14.9-13.9c-7.9,0.1-14.3,6.3-14.6,14.2
				l-2.7,0c-0.4-7.8-6.9-14-14.9-13.9c-8.2,0.1-14.7,6.7-14.7,14.9c0.1,8.2,6.7,14.7,14.9,14.7c7.7-0.1,14-6.1,14.6-13.6l2.8,0
				c0.7,7.6,7.1,13.5,14.8,13.4c7.7-0.1,14-6.1,14.6-13.6l2.8,0c0.7,7.6,7.1,13.5,14.8,13.4c8.2-0.1,14.7-6.7,14.7-14.9
				C233.7,911.8,227,905.2,218.8,905.3z"/>
			<g>
				<path class="st5" d="M157.1,914.3c0.5,0.2,1.3,1.5,1.3,2.4"/>
				<path class="st5" d="M158.1,913.2c0.5,0.1,1.5,1.3,1.7,2.2"/>
			</g>
			<g>
				<path class="st5" d="M193.6,914.3c0.5,0.2,1.3,1.5,1.3,2.4"/>
				<path class="st5" d="M194.7,913.2c0.5,0.1,1.5,1.3,1.7,2.2"/>
			</g>
			<g>
				<path class="st5" d="M224.3,913.7c0.5,0.2,1.3,1.5,1.3,2.4"/>
				<path class="st5" d="M225.4,912.6c0.5,0.1,1.5,1.3,1.7,2.2"/>
			</g>
		</g>
		<g>
			<path class="st6" d="M332.8,890.8c-8.4,2.2-13.5,10.7-11.7,19.2l-2.9,0.8c-2.6-8.2-11.3-13-19.7-10.8
				c-8.4,2.2-13.5,10.7-11.7,19.2l-2.9,0.8c-2.6-8.2-11.3-13-19.7-10.8c-8.7,2.3-13.9,11.3-11.6,20c2.3,8.7,11.3,13.9,20,11.6
				c8.3-2.2,13.3-10.3,11.9-18.6l3-0.8c2.8,7.9,11.3,12.4,19.5,10.2s13.3-10.3,11.9-18.6l3-0.8c2.8,7.9,11.3,12.4,19.5,10.2
				c8.7-2.3,13.9-11.3,11.6-20C350.5,893.7,341.5,888.5,332.8,890.8z"/>
			<g>
				<path class="st5" d="M269.3,917.5c0.6,0.1,1.8,1.2,2.1,2.2"/>
				<path class="st5" d="M270.1,916.1c0.6,0,2,1,2.4,1.9"/>
			</g>
			<g>
				<path class="st5" d="M308.4,907.5c0.6,0.1,1.8,1.2,2.1,2.2"/>
				<path class="st5" d="M309.2,906c0.6,0,2,1,2.4,1.9"/>
			</g>
			<g>
				<path class="st5" d="M341,898.3c0.6,0.1,1.8,1.2,2.1,2.2"/>
				<path class="st5" d="M341.8,896.8c0.6,0,2,1,2.4,1.9"/>
			</g>
		</g>
		<g>
			<path class="st7" d="M308.3,957.8c-1-9.3-9.4-15.9-18.7-14.9c-9,1-15.5,8.9-15,17.8l-3.1,0.3c0-0.3-0.1-0.6-0.2-0.8
				c0,0,0-0.1,0-0.1c-0.1-0.5-0.2-0.9-0.4-1.4c0-0.1-0.1-0.2-0.1-0.3c-0.1-0.4-0.3-0.8-0.4-1.1c-0.1-0.2-0.1-0.3-0.2-0.5
				c-0.1-0.3-0.3-0.6-0.4-0.9c-0.1-0.2-0.2-0.4-0.3-0.6c-0.1-0.2-0.3-0.4-0.4-0.7c-0.2-0.3-0.3-0.5-0.5-0.7
				c-0.1-0.2-0.2-0.3-0.3-0.4c-0.2-0.3-0.5-0.6-0.7-0.8c-0.1-0.1-0.2-0.2-0.2-0.2c-0.3-0.3-0.6-0.6-0.9-0.9c0,0,0,0,0,0
				c-3.5-3.2-8.3-4.9-13.3-4.4c-9,1-15.5,8.9-15,17.8l-3.1,0.3c-0.6-3.9-2.5-7.2-5.2-9.7c-3.5-3.2-8.3-5-13.3-4.4
				c-9,1-15.5,8.9-15,17.8l-3.1,0.3c-1.4-8.8-9.5-15.1-18.5-14.1c-9.3,1-15.9,9.4-14.9,18.7c1,9.3,9.4,15.9,18.7,14.9
				c8.8-1,15.2-8.5,15-17.2l3.2-0.4c0.2,1.2,0.6,2.4,1.1,3.5c0,0,0,0,0,0.1c0.2,0.5,0.4,0.9,0.7,1.3c0.1,0.1,0.1,0.2,0.2,0.3
				c0.2,0.3,0.4,0.7,0.6,1c0.1,0.2,0.2,0.3,0.3,0.5c0.2,0.3,0.4,0.5,0.6,0.7c0.2,0.2,0.3,0.4,0.5,0.6c0.2,0.2,0.3,0.3,0.5,0.5
				c0.2,0.2,0.5,0.5,0.7,0.7c0.1,0.1,0.2,0.2,0.3,0.3c0.3,0.3,0.6,0.5,0.9,0.8c0.1,0,0.1,0.1,0.2,0.1c3.3,2.4,7.4,3.6,11.8,3.1
				c8.8-1,15.2-8.5,15-17.2l3.1-0.4c0.7,3.7,2.7,6.9,5.4,9.3c3.5,3.1,8.1,4.7,13.1,4.2c8.8-1,15.2-8.5,15-17.2l3.2-0.4
				c1.5,7.4,7.6,12.8,15,13.5c6.4-3.2,12.3-6.7,17.2-10.5C308.2,963.5,308.6,960.7,308.3,957.8z M188.7,969.2
				c0.3-1.3-0.4-3.5-1.1-3.9C188.3,965.7,189,967.8,188.7,969.2z M189.5,964c0.7,0.4,1.8,2.4,1.6,3.8
				C191.2,966.4,190.2,964.4,189.5,964z M225,965.3c0.3-1.3-0.4-3.5-1.1-3.9C224.6,961.8,225.3,964,225,965.3z M225.8,960.1
				c0.7,0.4,1.8,2.4,1.6,3.8C227.5,962.5,226.5,960.5,225.8,960.1z M262.3,961.3c0.3-1.3-0.4-3.5-1.1-3.9
				C261.9,957.8,262.6,959.9,262.3,961.3z M263.1,956.1c0.7,0.4,1.8,2.4,1.6,3.8C264.8,958.5,263.8,956.5,263.1,956.1z M299.4,957.3
				c0.3-1.3-0.4-3.5-1.1-3.9C299,953.8,299.7,956,299.4,957.3z M300.2,952.1c0.7,0.4,1.8,2.4,1.6,3.8
				C301.9,954.5,300.9,952.5,300.2,952.1z"/>
		</g>
	</g>
	<path class="st2" d="M149.1,447.3c28.6-2.1,43.5,8.6,68.9,13.1c62.9,11.1,124.6-3.3,194.7,7.9c62.2,10,73.5-21.7,73.5-21.7
		s36.4,22.9,64.8,43.3c28.1,20.3,40,39.1,41.7,51.3c1.9,13.1-1,26.7-22.9,31.6c-24.7,5.6-8.9,19.3,4.7,24.7
		c17.6,7,26.7,18,22.7,28.9s-34.9,6-51.5,3.9c-17.1-2.2-10.7-13.2-42.1-18.5c-31.4-5.3-70.4-19.8-84.7-27.1
		c-14.2-7.3-30.4-0.7-45.3-0.3s-22.8-3-41.3-3.6c0,0-52.2-5-73.8-11.2c-18.1-5.2-23.1-5.6-23.1-16.9l-59.5-18.2l-96.8-66
		C79.2,468.3,112.3,450.7,149.1,447.3z"/>
	<path class="st8" d="M379.9,432.3c0,0,0.9,36.6,25,43.6c24.1,7,35.9-25.2,35.9-25.2l-3.2-1.8c0,0-4.9,11.5-14.5,16.6
		c0,0,9.5-15.4,12-27.7l-4.1-1.8c0,0-5.7,20.1-14.5,29.1c0,0,8-19.1,8.9-35.4h-4.1c0,0-2.7,23.2-10.9,34.3c0,0-1.4-28.2,1.8-37.5
		h-4.8c0,0-3.2,12.4-2.1,38.1c0,0-8.6-17.1-9-37.1l-4.6,0.3c0,0-0.3,15.2,7.7,37.7c0,0-11.8-4.2-15.9-33.6L379.9,432.3z"/>
	<path class="st2" d="M114.7,853c0,0-4.9,15.5-11.3,25.3s5.6,21.1,20.4,20.4s29.5-3.5,47.1-5.6s40.1-5.5,59.1-10.5
		s30.9-1.5,85.8-19.1s64.7-5.6,89.3-18.3s34.4-31.5,82.6-42.3c39.8-9,58.2-49.4,52.2-77.7c-24-5.2-54-14.9-113.2,7.7
		c-30.4,11.6-35.4,17.9-57.4,16c-30.1-2.5-59.5,26.4-109.7,26c-40.8-0.3-32.1,9.8-66.3,13.4S126,827.7,114.7,853z"/>
	<path class="st2" d="M137.4,214.5c-3.4,1.1-11.4,4.6-7.2,12.6c4.9,9.1,35.4,13.1,45.5,20.8c8.8,6.7,21.3,13.7,30,14
		c7.2,0.3,37.2,0.7,37.2,0.7s20.8,2,37.3-4.9c16.5-6.9,28.9-14.7,28.9-14.7s9-5.5,14.7-13.6c5.8-8.1,31.2-19.1,52.3-20.2
		c21.1-1.2,81.5-1.2,81.5-1.2s35,0.6,48.6-3.5s33-0.6,37-13c4-12.4-13-10.7-17.6-12.4c-4.6-1.7-4.8-7.5-2.3-12.1
		c2.6-4.8,0.6-17.6-16.2-20.2c0,0-54.8-6.9-150.6,9.4c-22.9,3.9-87.8,18-87.8,18s-8.5,10.6-37.1,9.9
		C203.1,183.4,169.1,204.4,137.4,214.5z"/>
	<path class="st0" d="M265.6,168.9c2.7,8.9,4.8,9,4.8,9c2.8,0.5,18.8,0.6,26.4,0.2c23.8-1.2,60.9-4.2,76.9-7.1s35.1,1.1,49.7-6.3
		c16.4-8.3,26-5.3,41-4.6c33.9,1.7,39-6.4,41.9-13.5l0-24.7l-130.4,14C375.7,136,283.8,159.3,265.6,168.9z"/>
	<path class="st2" d="M476.1,107.9c8.9-0.2,27.4,0.8,29.7,10.3c2.9,11.9-11.6,13.2-24,13.5s-32.4-0.2-43.2,0
		c-3.8,0.1-14,0.7-14.7,4.2s5.6,3.8,5.6,7.9c0,3.2-1.8,6.7-11.7,7.9c-9.9,1.1-4.9,6-21.5,7.6c-16.3,1.6-63.3,7.1-77.2,8.3
		c-11.6,1-37.6,5.4-49.9,3.8c-1.6-0.2-2.9-1.2-3.7-2.6l-1.4-2.6c-0.9-1.7-0.6-3.8,0.9-5.1c4.3-3.9,12.7-9.6,22.5-13.7
		c12.1-5.2,33.9-11.7,46.5-13.2c12.6-1.6,21.7-3.2,39.7-12.1C405.8,106.3,461.6,108.3,476.1,107.9z"/>
	<line class="st5" x1="429.6" y1="143.9" x2="430.1" y2="161.8"/>
	<g>
		<path class="st6" d="M368,81.3c0,0,10.1,43.6,64.9,39.3C432.9,120.6,410.2,81,368,81.3z"/>
		<path class="st5" d="M368,81.3c12.1,12.7,43.7,37.2,64.9,39.3"/>
	</g>
	<g>
		<path class="st8" d="M400.5,31.8c0,0-8.3,76.1,32.1,88.3C432.6,120.1,444.1,71.8,400.5,31.8z"/>
		<path class="st5" d="M400.5,31.8c0,0,18.9,44,32.1,88.3"/>
	</g>
	<g>
		<path class="st8" d="M484.3,76c0,0-34,7.8-51.4,44.6C432.9,120.5,471.6,122.9,484.3,76z"/>
		<path class="st5" d="M432.9,120.5c33.9-16.2,51.4-44.6,51.4-44.6"/>
	</g>
	<g>
		<path class="st6" d="M433.6,120.1c-11.6-53.1,17.2-88.3,17.2-88.3S469.6,96.8,433.6,120.1z"/>
		<path class="st5" d="M450.7,31.8c0,0-1.4,59.7-17.2,88.3"/>
	</g>
	<path class="st5" d="M516.1,9c-17.6,2.3-60.8,41.9-63.5,98.9"/>
	<path class="st5" d="M489.5,25.7c6.6-5.8,22.1-9.5,34.3-3.9"/>
	<path class="st5" d="M480.2,36.2c6.2-6.2,20.1-11.6,35.1-7.2"/>
	<path class="st5" d="M472.7,46.5c5.9-6.5,19.5-12.6,34.6-9.1"/>
	<path class="st5" d="M466.8,56.6c5.5-6.8,18.7-13.7,34.1-11"/>
	<path class="st5" d="M462.1,66.5c5-6.3,16.5-12.5,30.2-11.5"/>
	<ellipse class="st9" cx="306.4" cy="159.1" rx="11" ry="3.6"/>
	<ellipse class="st9" cx="330.7" cy="157.3" rx="2.7" ry="1.8"/>
	
		<ellipse transform="matrix(0.9975 -7.110191e-02 7.110191e-02 0.9975 -10.4093 20.6728)" class="st9" cx="285.2" cy="156.6" rx="3.4" ry="2.1"/>
	<path class="st7" d="M318.5,123.2c-9.6-0.3-8-13-8-13S320.6,113.3,318.5,123.2z"/>
	<path class="st7" d="M332.2,113.1c0,0-1.5,9.8,7,9.8C339.2,122.9,341.2,114.3,332.2,113.1z"/>
	<path class="st5" d="M339.2,122.9c5.6,13.2,18.3,19.9,18.3,19.9"/>
	<path class="st5" d="M360.8,142.5c2.3-23.9-7.1-39-7.1-39"/>
	<path class="st7" d="M348.9,90.1c0,0-4,10,4.9,13.4C353.7,103.4,359,95.4,348.9,90.1z"/>
	<path class="st7" d="M355.3,73.1c0,0-3,13.3,7,16.2C362.4,89.3,366.7,77.3,355.3,73.1z"/>
	<path class="st5" d="M362.4,89.3c0,0,12.4,14.1,10.4,49.8"/>
	<path class="st5" d="M380.7,137.1c0,0,10.2-20,11.5-43.3"/>
	<path class="st7" d="M392.1,93.8c0,0-5.6-6.9,2.3-15.8C394.4,78,401,89.8,392.1,93.8z"/>
	<path class="st7" d="M403.2,104.4c0,0-6-6.3,2.9-12.6C406.1,91.7,412,101.1,403.2,104.4z"/>
	<path class="st5" d="M403.2,104.4c0,0,0.2,17.1-8.9,28.5"/>
	<path class="st5" d="M466.8,14c0,0-17.5,22.6-17.5,94.2"/>
	<path class="st5" d="M461.8,23.6c0,0,3.9-6.5,12.6-7.1"/>
	<path class="st5" d="M458.2,33.7c0,0,6.5-11.3,21.9-12.2"/>
	<path class="st5" d="M455.8,42.8c0,0,6-10,18.7-12.3"/>
	<path class="st5" d="M453.8,52.4c0,0,5.2-7.9,13-9.6"/>
	<path class="st9" d="M480.6,114.3c-1.7,0.6-3.1,2.5-1.3,4.5c2,2.2,7.2,2.7,11.7,0.6c3.5-1.6,3.6-3.8,1.9-4.8
		C490.9,113.6,484.9,112.7,480.6,114.3z"/>
	
		<ellipse transform="matrix(0.9972 -7.433736e-02 7.433736e-02 0.9972 -7.8588 35.1292)" class="st9" cx="468" cy="123.1" rx="3.7" ry="1.9"/>
	<path class="st0" d="M180.1,212c1,1.8,7.7,7.8,26,1c14.3-5.3,15.6-0.1,32.1-2.3c8.2-1.1,13.9-5.6,13.9-10.1c0-1.9,0-7.4,0-7.4
		l-5.6-5.1l-0.1-11.4l-67,23.5C179.5,200.3,178.7,209.5,180.1,212z"/>
	<path class="st9" d="M483.6,169.6c0,0-5.2,3.2,0,4.7c5.2,1.5,16.1,1.1,22.6-1.5c3.6-1.5,6.4-4.6,3.8-6.3
		C505.2,163.5,489.2,165.7,483.6,169.6z"/>
	<path class="st9" d="M459.8,184.8c-1.8,0.8-1.5,2.6,0.3,3.1c2.4,0.7,5.4,0.6,7.6-0.6c2.5-1.3,2.5-3.3,0-3.7
		S462.5,183.6,459.8,184.8z"/>
	<path class="st0" d="M220.1,510.6c0,0,1.8,17-3.5,26.1c-1.3,2.2-3.1,3.8-9.3,3.9c-6.1,0.1-43-10.9-43.4-11.1s6.6-15.8,6.6-15.8
		L220.1,510.6z"/>
	<path class="st2" d="M181,203c2.9,3.1,14.5,2,22.2-0.3c15-4.6,18.1-0.3,36-2.8c17.8-2.5,13.2-8.9,10.1-10.8
		c-3.1-1.8-9.5-1.3-8.3-5.2s6.9-5.1,5.2-8.6c-1.9-3.9-38.7,2.8-57.7,14.7C180.6,195,177.4,199.2,181,203z"/>
	<g>
		<path class="st8" d="M199.5,362c0,0-24.3,15.1-9.5,45C190,407,215.9,387.5,199.5,362z"/>
		<g>
			<path class="st0" d="M132.2,322.3c1,4.5-3.2,8.8-7.8,10.2c-4.7,1.4-5.8,10.9-13.4,11.6c-5.6,0.5-11-3.9-13.4-11.5
				c-1.6-5.2,0.6-15.5,6.6-16.1c4.7-0.5,6,3.8,14.5,1.4C126.4,315.6,131.4,318.6,132.2,322.3z"/>
			<path class="st5" d="M106.3,325.4c-0.2,0.4-2.7,5.9,1.9,8.4"/>
			<path class="st5" d="M106,334.6c0,0-2-1.4-3.8,1.4"/>
			<path class="st5" d="M103.1,326.6c0,0-0.7,1.5-2.1,0.8"/>
			<path class="st5" d="M100.4,328.5c0,0,1.5,1.6,0.3,3.2"/>
		</g>
		<g>
			<path class="st0" d="M124.1,334.1c4.7,2.3,3.9,6.8,2,11.7c-1.8,4.6,2.4,10.1-3.7,14.3c-5.3,3.8-13.8,0.7-18.7-4.9
				c-4.1-4.6-1.5-11.9,3.2-14.2c3.4-1.6,6.3-0.1,9.8-4.7C119.1,333.4,121.6,332.9,124.1,334.1z"/>
			<path class="st5" d="M110,349.8c0,0,1.1,2.3-1.6,3.3"/>
			<path class="st5" d="M112.6,351.9c0,0,0.4,2,3.1,1.9"/>
			<path class="st5" d="M109.4,354.9c0,0,2.5,0.3,2.9,2.3"/>
			<path class="st5" d="M114.1,357.1c0,0,0.3-1.6,1.6-1.5"/>
		</g>
		<path class="st8" d="M132.2,365.2c0,0,6.4,20.8,21.8,15.5C154,380.7,154,364.4,132.2,365.2z"/>
		<path class="st8" d="M159.2,384.7c0,0-10.8-11.3-25.4-1.6C133.7,383.1,147.7,399.8,159.2,384.7z"/>
		<path class="st8" d="M158.8,385.5c0,0-16.6-5.1-24,12.4C134.8,397.9,151.9,407,158.8,385.5z"/>
		<path class="st8" d="M129,364.9c0,0,12-20.2,32.3-7.7C161.3,357.2,154,378.5,129,364.9z"/>
		<g>
			<path class="st0" d="M149.3,360.8c4.4-4.7,9.6-0.9,14.3,0.4c5,1.4,14.7,1.9,15.6,7.9c0.8,5.8-3.1,10.2-8.2,8.7
				c-4.2-1.3-6.5,0.5-7.2,4.7c-0.6,4.1-4.6,6.8-8.8,5.2c-3.9-1.4-6-5.1-5.7-10.2C149.6,372.3,143.7,366.8,149.3,360.8z"/>
			<path class="st5" d="M151.4,367c0,0,2.5,0.7,3.8-1.3"/>
			<path class="st5" d="M153.7,377.6c0-0.4,0.3-2.5,2.9-2.6"/>
			<path class="st5" d="M156.6,369.5c0,0-0.6,2.1,1.1,2.7"/>
			<path class="st5" d="M151.7,370.7c0,0,1.4,0.9,0.8,2.3"/>
		</g>
		<path class="st8" d="M98.8,392.2c0,0-12.1,6.6-4.8,19.2C94.1,411.4,105.2,403.8,98.8,392.2z"/>
		<path class="st8" d="M57.3,371.5c0,0,19.3-7.5,30.2,9.6C87.5,381.1,70.9,394.2,57.3,371.5z"/>
		<g>
			<path class="st0" d="M74.9,376.1c3.4-6,9-2,15.2-0.8c6.5,1.2,8.5-2.7,12.2-0.1c4.7,3.4-1.5,8.8-2.5,12.8
				c-1.3,5.7-4.1,13.6-10.8,12.4c-6.2-1.2-5.4-4.8-8.8-10.9C76.8,383.4,72.2,380.7,74.9,376.1z"/>
			<path class="st5" d="M85.3,381.6c0,0-0.8,3.7-4.3,2.4"/>
			<path class="st5" d="M87.4,384.8c0,0-0.8,3.7,2.3,4.7"/>
			<path class="st5" d="M82.6,387.4c0,0,2.6,1.2,3,3.2"/>
			<path class="st5" d="M86.8,391.7c0,0,1.2-1.7,3.4-0.6"/>
		</g>
		<path class="st8" d="M65.3,366.3c0,0,5.1-16.8,22-16.3C87.3,350,80.3,370.3,65.3,366.3z"/>
		<path class="st8" d="M73.4,374.9c-0.6,0,4.8-23,24.7-24.2C98,350.6,96.6,373.1,73.4,374.9z"/>
		<g>
			<path class="st0" d="M78.8,321.5c4.6-0.9,8.8,3.4,10.1,8.1s10.9,6.1,11.4,13.8c0.4,5.7-4.2,11-12,13.2c-5.3,1.5-15.6-1-16.1-7
				c-0.4-4.7,4-5.9,1.7-14.6C71.9,327.2,75.1,322.3,78.8,321.5z"/>
			<path class="st5" d="M81.4,347.8c0.4,0.2,5.9,2.9,8.6-1.7"/>
			<path class="st5" d="M90.7,348.3c0,0-1.4,2,1.3,3.8"/>
			<path class="st5" d="M82.5,351.1c0,0,1.5,0.7,0.7,2.2"/>
			<path class="st5" d="M84.4,353.8c0,0,1.6-1.5,3.3-0.2"/>
		</g>
		<path class="st8" d="M154.1,347.8c0,0-7.1-25.4-24.8-17.3C129.3,330.4,127.8,346.7,154.1,347.8z"/>
		<path class="st8" d="M70.6,327.8c0,0-7.8-19.2-32.4-13.3C38.2,314.5,50.1,336.7,70.6,327.8z"/>
		<path class="st8" d="M33,333.7c0,0,12.2-16.6,34.2-2.8C67.1,331,55.2,352,33,333.7z"/>
		<path class="st8" d="M59,333.1c0,0-19.6,6.1-9.6,26.1C49.4,359.2,68.3,350.6,59,333.1z"/>
		<path class="st7" d="M203.8,372.4c0,0-8.9,8.6-17.7,8.2c-8.9-0.4-8.6-6-6-13.3c2.5-7.4,7.2-24.2,0.4-30.8c-6.9-6.6-10.1-2.9-9,2.9
			c0,0,7,16.2-16.7,52.1c-13,19.7-23.4,33.8-30.6,43c-3.6-12.1-6-27.7-1.9-42.8c5.8-21.6,14-42.4,10.9-61.9
			c-0.4-2.5-1.5-9.8-5.4-8.7c-3.8,1-2.9,7.2-5.3,14.1c-2.4,7-0.8,16.2-1.3,23.7c-0.4,6.9-0.3,16-6.1,15.4
			c-6.4-0.6-5.8-9.9-10.2-24.1c-4.5-14.5-17-34.3-22.5-31.7c-2,0.9-3.2,3.7-0.6,7.3c6,8.3,14,27.4,15,49.5
			c1.4,31.9,9.1,68.4,27.6,84.9c2.1,1.9,5.3,1.7,7.1-0.5c1.3-1.5,1.5-3.7,0.6-5.4c-1-1.9-2.3-4.6-3.7-8c7.8-6.3,19.8-17,29.7-31.8
			c6.5-9.8,12.1-19.5,22.5-22.2c10.3-2.7,17.6-5.9,25.3-15.1L203.8,372.4z"/>
		<path class="st8" d="M201.8,362.6c0,0-14.4,24.7,11,38.1C212.8,400.6,219.7,375.5,201.8,362.6z"/>
		<path class="st8" d="M195.3,355.8c2.9-19.1,27.5-17.8,27.5-17.8S213.9,361.7,195.3,355.8z"/>
		<path class="st8" d="M233,367.2c0,0-24.1,12.9-35.1-7.8C197.9,359.4,210.2,344.9,233,367.2z"/>
		<path class="st8" d="M202.8,316c0,0-22.6,7.9-20.8,27C182,343,198.5,343,202.8,316z"/>
		<path class="st8" d="M170,311.3c0,0-12.9,24.3,14.3,34.5C184.3,345.8,190.5,323.3,170,311.3z"/>
		<path class="st8" d="M71.5,281.6c0,0-14.5,24.5,8.5,37.1C80,318.7,95,299.5,71.5,281.6z"/>
		<path class="st8" d="M100.6,293.6c0,0-26.8,6.3-20,27.1C80.6,320.7,99.9,323.2,100.6,293.6z"/>
		<g>
			<path class="st0" d="M185.7,338.7c4.2-0.9,8.2,3,9.4,7.4c1.3,4.4,10.1,5.5,10.7,12.6c0.4,5.2-3.7,10.2-10.9,12.4
				c-4.9,1.4-14.5-0.7-15-6.3c-0.4-4.4,3.6-5.5,1.4-13.5C179.4,344,182.3,339.5,185.7,338.7z"/>
			<path class="st5" d="M188.4,363c0.3,0.2,5.5,2.6,7.9-1.7"/>
			<path class="st5" d="M197,363.3c0,0-1.3,1.9,1.3,3.5"/>
			<path class="st5" d="M189.5,366c0,0,1.4,0.6,0.7,2"/>
			<path class="st5" d="M191.2,368.5c0,0,1.5-1.4,3-0.2"/>
		</g>
		<g>
			<path class="st0" d="M177.2,335.7c3.3,3.7-1.3,7.1-3.2,11.1s-1.5,15.8-11.6,15.6c-10.1-0.2-6.4-12-10.8-14.1
				c-4.3-2.1-5.8-9.7-0.1-13.4c4.4-2.9,8.3,2.1,14.5,0.2S174.2,332.3,177.2,335.7z"/>
			<path class="st5" d="M159,341.4c0,0,0.5,2.5-1.9,2.7"/>
			<path class="st5" d="M161.1,344.2c0,0-0.3,2.4,2,3.6"/>
			<path class="st5" d="M163.2,350.9c0,0-1.9-0.4-3,1.1"/>
			<path class="st5" d="M155.9,347.3c0,0,1.7,0.7,1.9,3.1"/>
		</g>
		<path class="st8" d="M84.9,322.9c0,0,8.6-10.3,27.1-1C112,321.8,97.6,334,84.9,322.9z"/>
		<g>
			<path class="st0" d="M61.6,302.4c6.4-3.5,10.5,2.4,15.1,5.4c4.8,3.2,13.4,4.1,12.3,11.3c-1.2,7.8-7.7,8.5-11.9,6.1
				c-4.2-2.5-8.1-2.5-10.2,1.7c-2.1,4.2-6.6,6.2-10.5,3.8c-3.1-1.9-2.5-5.2-0.4-10.6S53.7,306.8,61.6,302.4z"/>
			<path class="st5" d="M61.8,309.7c0,0,2.4,1.6,4.6-0.1"/>
			<path class="st5" d="M60.5,321.8c0.2-0.4,1.2-2.6,4-1.7"/>
			<path class="st5" d="M66.4,314.2c0,0-1.4,2,0.2,3.3"/>
			<path class="st5" d="M60.8,313.7c0,0,1.1,1.4,0.1,2.7"/>
		</g>
		<g>
			<path class="st0" d="M68.5,323.9c7.8-6.4,15.2,1.4,13.3,7.6c-1.9,6.4-4.6,10.2-3.5,15c1.1,4.9-3.1,9.9-9.1,8.2
				c-12.7-3.4-21.2-12.3-17.5-19.6C55.1,328.4,57.1,333.2,68.5,323.9z"/>
			<path class="st5" d="M60.9,339.8c0,0,0.1,2.6-1.8,3.9"/>
			<path class="st5" d="M63.6,341.5c0,0,0.1,2.6,3,2.7"/>
			<path class="st5" d="M59.6,346.1c0,0,2.4-0.6,3.2,1.5"/>
			<path class="st5" d="M65.1,348.3c0,0,0.5-1.9,2.2-2"/>
		</g>
		<path class="st8" d="M120.4,320.1c0,0,5.1,17.2,24.2,8.2C144.6,328.3,137.4,313.4,120.4,320.1z"/>
		<path class="st8" d="M137.5,313.3c0,0-6.6,14.6-27.4,5.3C110.2,318.6,121.2,301.2,137.5,313.3z"/>
		<path class="st8" d="M146.5,289.2c0,0-22.6,13.5-10.2,28.5C136.3,317.7,152.4,314.9,146.5,289.2z"/>
		<g>
			<path class="st0" d="M133.1,310.4c3.6-5.2,7.8,2.2,13.1,0.3c4.9-1.8,13-0.6,16,7.6c3.7,10.4-6.9,23.1-16.6,17.6
				C136.2,330.6,128.6,317,133.1,310.4z"/>
			<path class="st5" d="M154.2,320.5c0,1.8,2.8,3.6,4.8,2.3"/>
			<path class="st5" d="M150.2,323.2c0,0,0.6,2.6-1.9,4.1"/>
			<path class="st5" d="M150,329.4c0,0,2-0.4,2.4,1.6"/>
			<path class="st5" d="M156.9,325.4c0,0-2.7,1.9-2.1,4.5"/>
		</g>
	</g>
	<ellipse class="st9" cx="256.8" cy="250.9" rx="8.7" ry="3"/>
	<ellipse transform="matrix(0.9508 -0.3099 0.3099 0.9508 -62.8622 98.2485)" class="st9" cx="277.8" cy="247" rx="3.7" ry="2.2"/>
	<ellipse class="st9" cx="353.5" cy="185.1" rx="7.6" ry="2.7"/>
	<ellipse class="st9" cx="372" cy="182.8" rx="5.2" ry="1.5"/>
	<ellipse class="st9" cx="441.8" cy="198.4" rx="4.8" ry="2.3"/>
	<path class="st9" d="M484.3,188.9c-1.8,0.5-9.2,3-6.9,7.3c2.5,4.5,20.8-0.2,34.4,0c13.6,0.2,18-1.9,15.6-5.3
		C525,187.4,500.5,184.5,484.3,188.9z"/>
	<path class="st0" d="M461.8,279.6c0,0,5.2,17.5,3.9,34.2c-1.1,15.2-3.9,28.1,3.8,31.4c8.8,3.7,14-3.1,25-6.3s15.9,0.6,26.4-10.7
		c10.5-11.3,23.5-6.9,34.1-34.7L461.8,279.6z"/>
	<g>
		<path class="st5" d="M615.5,319.6c-25.1,19.5-83,77.5-102,154.3"/>
		<path class="st5" d="M599.4,333.5c0,0,11-6.4,26.1-5.6"/>
		<path class="st5" d="M588.5,344.4c0,0,15.3-10.9,44.4-9.4"/>
		<path class="st5" d="M575.9,358.3c0,0,24.1-12,52.1-9.8"/>
		<path class="st5" d="M563.6,373.5c0,0,20.4-12.9,51.7-12.9"/>
		<path class="st5" d="M551.8,389.9c0,0,14.5-11.7,52.2-13.4"/>
		<path class="st5" d="M542.2,405.3c0,0,17.1-9.8,36.9-11.2"/>
		<path class="st5" d="M535,418c0,0,8.7-7.3,27.4-10.2"/>
		<path class="st5" d="M530.4,427.4c0,0,10.5-5.6,19.4-6.9"/>
	</g>
	<path class="st0" d="M444.7,366.2c0,0-3.6,11.8-15.2,15.4s-22.8-0.4-35.9,1.6c-13.1,2-13.3,4.4-21.4,4.6
		c-8.1,0.2-12.1-4.1-17.8-8.7c-7.8-6.3-7-16.2-8.6-24l43.9-4.9L444.7,366.2z"/>
	<path class="st8" d="M113.8,192.9c0,0,14.2,26.3,50,26.5c25.8,0.2,38.9-21.6,45.7-39.5l-5.3-3.4c0,0-8.7,26.1-24,31.9
		c0,0,18.8-20,23.3-53.7l-5.4-2.5c0,0-5.1,32.7-23.1,50.7c0,0,11.3-21.3,11.1-59.7h-6.3c0,0-1.1,37.7-10,57.3c0,0,3.5-36.7-4.2-57.3
		l-6.6,1.7c0,0,6.6,16.5,3.5,55.7c0,0-6-35.9-19.2-57.3l-5.6,2.7c0,0,16,30.9,16.3,54.6c0,0-15.5-16.4-22.3-47.2l-5.9,3.9
		c0,0,3.3,25.8,22.2,46.5c0,0-21-13.7-28.1-29.7l-4.1,4.2c0,0,7,16.7,27,30.2c0,0-15.4-5-25.1-19.7L113.8,192.9z"/>
	<g>
		<path class="st7" d="M86,557.8c0,0-1.8,12.5,7.6,12.9C93.7,570.8,97.6,562,86,557.8z"/>
		<path class="st5" d="M93.7,570.8c0,0,14.1,22,39.4,28.8"/>
		<path class="st7" d="M80.1,579.8c0,0,1.1,9.3,10.1,7.3C90.2,587.2,89.4,578.6,80.1,579.8z"/>
		<path class="st5" d="M90.2,587.2c0,0,12.6,4.6,19.4,0.3"/>
		<path class="st7" d="M129.2,534.1c0,0-5.1,12.4,5.1,16.3C134.3,550.4,140.3,543.7,129.2,534.1z"/>
		<path class="st5" d="M134.3,550.4c0,0,11,18.8,13.1,38.7"/>
		<path class="st7" d="M154.5,544.9c0,0-8.6,8-2.4,14.9C152.1,559.8,159.2,557.1,154.5,544.9z"/>
		<path class="st5" d="M152.1,559.8c0,0-0.6,10.1-8.5,12.1"/>
		<path class="st7" d="M115.9,556.6c0,0,0.3,11.1,8.7,10.7C124.7,567.3,127.4,558.5,115.9,556.6z"/>
		<path class="st5" d="M124.7,567.3c0,0,10.8,10.4,14.1,22.7"/>
	</g>
	
		<ellipse transform="matrix(0.3293 -0.9442 0.9442 0.3293 -113.7673 872.4638)" class="st9" cx="557.2" cy="516.3" rx="3.2" ry="5.9"/>
	
		<ellipse transform="matrix(0.4067 -0.9136 0.9136 0.4067 -165.7318 836.6884)" class="st9" cx="561.3" cy="545.9" rx="2" ry="3.9"/>
	<ellipse transform="matrix(0.5 -0.866 0.866 0.5 -179.3477 762.3609)" class="st9" cx="570.6" cy="536.5" rx="4.5" ry="12.6"/>
	<g>
		<path class="st7" d="M175.4,493.7c9.6,8.2,29.1,12,46.7,10.5v-4c0,0-12.2,1.6-22.7-3.5c0,0,17.8-5.9,31.6-3v-4.6
			c0,0-14.9-3.6-31,1.9c0,0,9-9,27.1-13.1l-2.3-4.5c0,0-16.3,2.6-32.2,15.8c0,0,9.1-19,31.4-30.5l-3.6-3.2c0,0-17.3,8.3-32.5,28
			c0,0,4.7-18.3,21.3-31l-4.3-3.1c0,0-13.5,9.7-23.4,32.2c0,0-2.9-16,2.5-27.5l-4.9,1c0,0-5,11.3-2.4,30.2c0,0-12.2-7.2-14.5-23.2
			l-3.1,1.8C159.2,463.9,158.1,479,175.4,493.7z"/>
		<g>
			<path class="st6" d="M89.3,427.4c0,0,2.3,43.5,31.9,50.6C121.2,478.1,124.7,442.9,89.3,427.4z"/>
			<path class="st5" d="M89.3,427.4c0,0,15.3,17.4,31.9,50.6"/>
		</g>
		<g>
			<path class="st8" d="M129.1,404.8c0,0-30.8,45.7,0,85.6C129.1,490.4,159.9,456.5,129.1,404.8z"/>
			<path class="st5" d="M129.1,404.8c0,0,1.5,56.3,0,85.6"/>
		</g>
		<g>
			<path class="st6" d="M157.9,414.8c0,0,17.2,55.7-21.2,77.7C136.7,492.5,124.7,442.5,157.9,414.8z"/>
			<path class="st5" d="M136.7,492.5c4-40.8,21.2-77.7,21.2-77.7"/>
		</g>
		<g>
			<path class="st8" d="M188.3,447.5c0,0-6.7,52.4-48.3,45.3C140,492.8,148.6,456.3,188.3,447.5z"/>
			<path class="st5" d="M140,492.8c29.8-12.3,48.3-45.3,48.3-45.3"/>
		</g>
	</g>
	<g>
		<path class="st5" d="M66.7,612.9c34.1,36.4,74.1,96.7,89.7,189.9"/>
		<path class="st5" d="M58.5,631.8c0,0,15.5-4.2,28.3,4.8"/>
		<path class="st5" d="M53.2,645c0,0,29.3-6.2,46.8,10"/>
		<path class="st5" d="M56.1,659.9c0,0,32.9-7,52.5,8.7"/>
		<path class="st5" d="M61.2,676.8c0,0,35.9-11.3,55.2,5.5"/>
		<path class="st5" d="M68.7,690.4c0,0,38.1-10,53.8,3.9"/>
		<path class="st5" d="M79.3,703.1c0,0,32.4-7.3,49.6,5.2"/>
		<path class="st5" d="M92.1,718.7c0,0,31.7-4.8,44.9,9.8"/>
		<path class="st5" d="M63.9,620.5c0,0,6.3-1.7,12.6,3.4"/>
	</g>
	<path class="st5" d="M43.6,705.7c0,0,69.2,23.6,102.1,105.4"/>
	<path class="st5" d="M40.3,711.9c0,0,8.8-2.3,16.1-0.5"/>
	<path class="st5" d="M39.4,720.2c0,0,14.3-4.9,28.6-2.4"/>
	<path class="st5" d="M40.3,730.2c0,0,19.2-8.2,40-3.9"/>
	<path class="st5" d="M42.7,742.9c0,0,26.7-11.5,50.7-6.1"/>
	<path class="st5" d="M43.6,753.9c0,0,28.1-14.5,60.4-7"/>
	<path class="st5" d="M56.4,763.1c0,0,27.8-13.6,55.2-7.9"/>
	<path class="st5" d="M77,769.7c1.1-0.4,22.1-11.3,40.4-7.6"/>
	<path class="st5" d="M96.2,771.7c0.7,0,14.5-6.8,26.8-2"/>
	<g>
		<path class="st5" d="M643.4,589.7C618,596,539.9,659.5,529.8,729.4"/>
		<path class="st5" d="M651.7,599.2c0,0-19.5-2.8-31.1,2.2"/>
		<path class="st5" d="M648.8,609c0,0-25.5-3.7-44.6,4.8"/>
		<path class="st5" d="M648.8,618.7c0,0-38.6-4.8-60.8,9.7"/>
		<path class="st5" d="M645.2,631.3c0,0-45.7-5.3-69.6,10.2"/>
		<path class="st5" d="M634.7,642.6c0,0-46.1-3.6-72.4,15.1"/>
		<path class="st5" d="M618.4,656.4c0,0-41.9-3.9-65.6,15.1"/>
		<path class="st5" d="M590.1,669.3c0,0-30.8,1.3-43.9,13.2"/>
		<path class="st5" d="M558.2,685c0,0-8.3,0-16.6,6.6"/>
	</g>
	<path class="st5" d="M547.8,623.1c-12.4,10.1-48.4,51.8-44.6,103.6"/>
	<path class="st5" d="M555.1,629.4c0,0-11.7-2.2-16.1,2.4"/>
	<path class="st5" d="M553.6,636c0,0-16.9-2.5-22.6,5.5"/>
	<path class="st5" d="M558,642.3c0,0-22.4-3-32.6,7.2"/>
	<path class="st5" d="M551.9,651.2c0,0-20.9-2.1-32.3,7.8"/>
	<path class="st5" d="M538.6,659.5c0,0-14.9-0.4-23.8,8.9"/>
	<path class="st5" d="M511.6,675.9c0.2-0.6,13.9-9.9,24.2-8"/>
	<path class="st5" d="M508.3,685c0,0,11.1-10,25.1-9.1"/>
	<g>
		<path class="st0" d="M98.4,713.4c0,0,8.6,18.7,25.5,25.1c14.9,5.6,13,10.2,28.7,12c17.6,2.1,46.7-6.1,76.5-5.7
			c29.8,0.4,38.2-3.9,46.7-10.6c14.1-11,26.2-11.4,37.1-20.9c7.5-6.6,10.5-16.1,11.3-21.2L98.4,713.4z"/>
		<path class="st2" d="M97.9,712.1c0.9,4.8,7.5,7,18.3,7.4c15.6,0.5,35.6,0.5,45.8,4.6c10.2,4.1,30.2,8.1,56.3,2.7
			c26.1-5.4,59.4-14.6,85.2-19.7c17.6-3.5,25.8-14.6,17.3-22.4c-8.5-7.8-37.3-9.2-60.1-6.8s-50.2,1-63.5,3.1
			c-13.2,2-30.9,1-41.1,1.4c-10.2,0.3-22.4,0.7-31.2,5.8c-8.8,5.1-17.5,6.2-22.2,13.9C99.7,707.4,97.1,707.6,97.9,712.1z"/>
		<ellipse class="st9" cx="111.5" cy="711.7" rx="4.3" ry="1.9"/>
		<ellipse class="st9" cx="139.6" cy="712.2" rx="8.6" ry="3.4"/>
		
			<ellipse transform="matrix(0.1026 -0.9947 0.9947 0.1026 -568.5033 804.0946)" class="st9" cx="161.4" cy="717.1" rx="1.9" ry="4.2"/>
	</g>
	<g>
		<g>
			<path class="st6" d="M152.9,629c0,0-2.3-10,2.2-13.1c4,3.1,2.3,13.1,2.3,13.1H152.9z"/>
			<path class="st6" d="M159.3,632.2c1.1-5,3.8-7.6,1.2-9.1c-2.3-1.3-5.3,3.8-5.5,4.4c-0.2-0.7-3.2-5.7-5.5-4.4
				c-2.6,1.4,0.1,4.1,1.2,9.1c1.2,5.7,5.8,35.1,2.7,41.1h1.6h1.6C153.5,667.3,158.1,637.8,159.3,632.2z"/>
			<path class="st6" d="M159.1,639c1.1-5.2,4.3-7.9,1.6-9.4c-2.4-1.3-5.5,3.9-5.7,4.6c-0.2-0.7-3.3-5.9-5.7-4.6
				c-2.7,1.5,0.5,4.2,1.6,9.4c1.3,5.9,0.7,55.5,0.7,55.5h3.4h3.4C158.4,694.6,157.8,644.9,159.1,639z"/>
		</g>
		<g>
			<path class="st6" d="M177,629c0,0-2.3-10,2.2-13.1c4,3.1,2.3,13.1,2.3,13.1H177z"/>
			<path class="st6" d="M183.5,632.2c1.1-5,3.8-7.6,1.2-9.1c-2.3-1.3-5.3,3.8-5.5,4.4c-0.2-0.7-3.2-5.7-5.5-4.4
				c-2.6,1.4,0.1,4.1,1.2,9.1c1.2,5.7,5.8,35.1,2.7,41.1h1.6h1.6C177.6,667.3,182.2,637.8,183.5,632.2z"/>
			<path class="st6" d="M183.3,639c1.1-5.2,4.3-7.9,1.6-9.4c-2.4-1.3-5.5,3.9-5.7,4.6c-0.2-0.7-3.3-5.9-5.7-4.6
				c-2.7,1.5,0.5,4.2,1.6,9.4c1.3,5.9,0.7,55.5,0.7,55.5h3.4h3.4C182.6,694.6,182,644.9,183.3,639z"/>
		</g>
		<g>
			<path class="st6" d="M201.2,629c0,0-2.3-10,2.2-13.1c4,3.1,2.3,13.1,2.3,13.1H201.2z"/>
			<path class="st6" d="M207.6,632.2c1.1-5,3.8-7.6,1.2-9.1c-2.3-1.3-5.3,3.8-5.5,4.4c-0.2-0.7-3.2-5.7-5.5-4.4
				c-2.6,1.4,0.1,4.1,1.2,9.1c1.2,5.7,5.8,35.1,2.7,41.1h1.6h1.6C201.8,667.3,206.4,637.8,207.6,632.2z"/>
			<path class="st6" d="M207.4,639c1.1-5.2,4.3-7.9,1.6-9.4c-2.4-1.3-5.5,3.9-5.7,4.6c-0.2-0.7-3.3-5.9-5.7-4.6
				c-2.7,1.5,0.5,4.2,1.6,9.4c1.3,5.9,0.7,55.5,0.7,55.5h3.4h3.4C206.7,694.6,206.1,644.9,207.4,639z"/>
		</g>
		<g>
			<path class="st6" d="M225.3,629c0,0-2.3-10,2.2-13.1c4,3.1,2.3,13.1,2.3,13.1H225.3z"/>
			<path class="st6" d="M231.8,632.2c1.1-5,3.8-7.6,1.2-9.1c-2.3-1.3-5.3,3.8-5.5,4.4c-0.2-0.7-3.2-5.7-5.5-4.4
				c-2.6,1.4,0.1,4.1,1.2,9.1c1.2,5.7,5.8,35.1,2.7,41.1h1.6h1.6C225.9,667.3,230.5,637.8,231.8,632.2z"/>
			<path class="st6" d="M231.5,639c1.1-5.2,4.3-7.9,1.6-9.4c-2.4-1.3-5.5,3.9-5.7,4.6c-0.2-0.7-3.3-5.9-5.7-4.6
				c-2.7,1.5,0.5,4.2,1.6,9.4c1.3,5.9,0.7,55.5,0.7,55.5h3.4h3.4C230.8,694.6,230.2,644.9,231.5,639z"/>
		</g>
	</g>
	
		<ellipse transform="matrix(0.9975 -7.110191e-02 7.110191e-02 0.9975 -13.2039 17.0974)" class="st9" cx="233.6" cy="194" rx="8.3" ry="3.5"/>
	
		<ellipse transform="matrix(0.9975 -7.110191e-02 7.110191e-02 0.9975 -12.2008 17.1189)" class="st9" cx="234.4" cy="179.9" rx="2.5" ry="1.7"/>
	<path class="st2" d="M467.6,285c3.5,0.9,7.7,0.5,13.1,8.1c9.5,13.6,38.8,9.4,61.1,5.9c17.2-2.6,15.9-9.8,9.9-11.9
		c-6-2.1-14.1-5.6-19.3-12.7c-5.3-7-21.8-8.4-31.7-4.6c-9.9,3.9-24.9,2.5-32,3.9S458.1,282.7,467.6,285z"/>
	<g>
		<path class="st7" d="M497.8,244.8c0,0-5.5,8.6,0.9,11.5C498.7,256.3,503.8,253,497.8,244.8z"/>
		<path class="st7" d="M480,257c0,0-4.4,6.6,0.9,9.8C480.9,266.8,485.9,263,480,257z"/>
		<path class="st7" d="M514.2,250.6c0,0-7.3,2-5.4,7.9C508.8,258.5,514.5,259,514.2,250.6z"/>
		<path class="st5" d="M498.7,256.3c0,0,3.5,13.4-1.4,26.9"/>
		<path class="st5" d="M508.8,258.5c0,0-3.2,5.7-8.9,7.4"/>
		<path class="st5" d="M480.9,266.8c0,0,0,9.6,5.5,17.4"/>
		<ellipse class="st9" cx="515.5" cy="280.3" rx="4.3" ry="2.9"/>
		<ellipse transform="matrix(0.3392 -0.9407 0.9407 0.3392 70.8521 688.4557)" class="st9" cx="525.5" cy="293.8" rx="2.3" ry="4"/>
		<path class="st9" d="M527.5,286.1c0.2-1.6,3-3.4,9.5-1.9c6.5,1.5,9.5,4.7,6.9,6.7C541.4,292.9,527.1,289.4,527.5,286.1z"/>
	</g>
	<path class="st2" d="M346.1,356.1c-1.8-4.8,0.4-8.5,4.9-9.8c6.8-2,8-2.9,14.1-5.1c9.3-3.3,29-5.5,39.9,0
		c11.5,5.8,10.8,11.6,26.2,14.5c12,2.2,14.3,7.6,13.5,10.5c-0.8,2.9-5.1,4.4-12.6,4.4s-20.2-0.6-28-1c-7.8-0.4-12.4-0.2-18.3-3.6
		c-5.9-3.4-17.8-3.8-24.6-4.2C354.5,361.4,347.8,360.3,346.1,356.1z"/>
	<path class="st7" d="M345.5,323.9c0,0,0.2,10.2,8.6,9.1C354.1,332.9,356,324.5,345.5,323.9z"/>
	<path class="st5" d="M354.1,332.9c0,0,5.7,7.1,6.8,19.5"/>
	<path class="st7" d="M354.1,294.5c0,0-3.1,10.7,5.4,13C359.4,307.5,363.1,299.6,354.1,294.5z"/>
	<path class="st5" d="M359.4,307.5c0,0,13,23,12.2,41.2"/>
	<path class="st7" d="M351,313c0,0-0.8,9.3,6.5,9.3C357.5,322.2,359.6,316.2,351,313z"/>
	<path class="st5" d="M357.5,322.2c0,0,3.7,7.9,11.3,7.7"/>
	<path class="st7" d="M372.3,277c0,0-5.9,9.6,1,13.2C373.3,290.3,378.3,285,372.3,277z"/>
	<path class="st5" d="M373.3,290.3c0,1.8,5,14.4,5.1,58.4"/>
	<path class="st7" d="M394,288.2c0,0-6.6,6.8-1.4,12C392.6,300.2,398.9,296.6,394,288.2z"/>
	<path class="st5" d="M392.6,300.2c0,0-6.3,25.7-5.6,49.9"/>
	<path class="st7" d="M403,302.2c0,0-7.2,2.2-4.9,8.2C398.1,310.4,403.5,310.9,403,302.2z"/>
	<path class="st5" d="M398.1,310.4c0,0-2.7,6.4-8.8,7.2"/>
	<path class="st7" d="M420.2,309.5c0,0-10.9,3.6-6.8,11.2C413.4,320.7,420.9,321.7,420.2,309.5z"/>
	<path class="st5" d="M413.4,320.7c0,0-13.1,11.1-18.2,26.9"/>
	<ellipse class="st9" cx="408.3" cy="354.6" rx="4" ry="2.2"/>
	<ellipse class="st9" cx="429" cy="362.2" rx="9.1" ry="3.2"/>
	<path class="st5" d="M318.5,123.2c0,0,11.7,19.6,31.5,21.3"/>
	<g>
		<path class="st7" d="M212.7,153.7c0,0-3.3,11.8,5.1,13.8C217.8,167.5,222.7,159.8,212.7,153.7z"/>
		<path class="st7" d="M268.8,181.3c0,0-11.3,3.5-7.8,12.7C261,194,269.1,194,268.8,181.3z"/>
		<path class="st5" d="M261,194c0,0-10.5,18.7-12.1,47.4"/>
		<path class="st7" d="M295.6,183.5c0,0-11.9,1.2-10.2,11.6C285.4,195.1,292.9,198.1,295.6,183.5z"/>
		<path class="st5" d="M285.4,195.1c0,0-16.6,14.2-22.1,44.6"/>
		<path class="st5" d="M217.8,167.5c0,0,23.9,41.1,21.2,76.5"/>
		<path class="st7" d="M213.4,184.9c0,0-4.4,9.4,3.2,11.6C216.7,196.5,220.9,190.5,213.4,184.9z"/>
		<path class="st5" d="M216.7,196.5c0,0,2.6,25.5,22.5,34.4"/>
		<path class="st7" d="M200.2,217.5c0,0,2.4,8.6,11.3,8.3C211.5,225.8,212.5,217.3,200.2,217.5z"/>
		<path class="st5" d="M211.5,225.8c0,0,14.8,7.7,20.7,21.1"/>
		<path class="st7" d="M205.8,230.1c0,0-0.9,9.6,7.2,10.3C213,240.5,214.8,231.6,205.8,230.1z"/>
		<path class="st5" d="M213,240.5c0,0,3.2,3.3,4.8,10.2"/>
		<path class="st7" d="M267,205.8c0,0-7.2,2.5-6,9.5C261,215.3,267.1,215.5,267,205.8z"/>
		<path class="st5" d="M261,215.3c0,0-3.4,4.3-9.3,5.6"/>
		<path class="st7" d="M291.3,197.3c0,0-7,4.2-3.1,9.9C288.3,207.3,293.7,205.7,291.3,197.3z"/>
		<path class="st7" d="M305.7,200.1c0,0,0.5-9,13-6.1C318.7,194,313.8,203.4,305.7,200.1z"/>
		<path class="st5" d="M305.7,200.1c0,0-21.9,7.8-27.9,34.8"/>
		<path class="st5" d="M288.3,207.3c0,0-0.9,4,0,5.8"/>
	</g>
	<g>
		<path class="st5" d="M601.2,300.8C546.4,313.3,487.5,391,464,466.5"/>
		<path class="st5" d="M606.8,313.7c0,0-20.5-5-35.8,0"/>
		<path class="st5" d="M601.2,322.5c0,0-30.1-5.2-43.4,0.4"/>
		<path class="st5" d="M593.7,333.3c0,0-32.7-7.7-49.8,1.6"/>
		<path class="st5" d="M582.9,343.2c0,0-34.4-8.4-50.3,3.1"/>
		<path class="st5" d="M566.2,356.2c0,0-27-7.2-44.9,3.3"/>
		<path class="st5" d="M490.7,404.9c0,0,12.7-6.3,23.8-4.7"/>
		<path class="st5" d="M497.1,394c0,0,15.2-7.7,30.4-4.3"/>
		<path class="st5" d="M503.6,383.7c0,0,11-9.8,37.2-5.4"/>
		<path class="st5" d="M511.3,372.5c0,0,13-10,40.8-6"/>
	</g>
	<path class="st9" d="M357.4,568.9c-1,2,5.7,7.3,15.1,6.7c9.4-0.6,4.9-4.2,1.3-5.9C368.7,567.5,358.3,566.9,357.4,568.9z"/>
	
		<ellipse transform="matrix(0.1967 -0.9805 0.9805 0.1967 -283.7613 790.3666)" class="st9" cx="340.5" cy="568.4" rx="1.9" ry="4.5"/>
	<g>
		<path class="st2" d="M74.6,471.5c-5,7.8-5.2,24.7,30.6,40.4s89.2,36,110.1,41.8c20.9,5.8,21.7-2,14.5-5.2
			c-7.2-3.2-41.7-14.2-51-19.3c-9.9-5.4-6.4-9.8,4.8-9.4c11.3,0.4,36.6,4.1,36.6-9.1c0-13.3-37.8-20.1-52.6-23.7
			c-14.7-3.6-27.3-9.9-44.9-17.7C109.1,463.3,81.7,460.5,74.6,471.5z"/>
		<g>
			<path class="st7" d="M129,482.7c0,0-0.9,11.1,8.3,11.3C137.3,494,139.4,485.6,129,482.7z"/>
			<path class="st7" d="M131.2,453.8c0,0-3.7,10.8,5,13.3C136.3,467.1,141,459.3,131.2,453.8z"/>
			<path class="st5" d="M136.3,467.1c0,0,8.5,14.9,8.6,41.4"/>
			<path class="st5" d="M137.3,494c0,0,4.7,5,7.4,9"/>
			<path class="st7" d="M167.4,468.5c0,0,3.1,12.6-5.8,14.2C161.6,482.7,157.3,474.3,167.4,468.5z"/>
			<path class="st5" d="M161.6,482.7c0,0-7.2,14.9-8.5,34.5"/>
			<path class="st7" d="M179.9,492.6c0,0,0,8.5-8.1,8.5C171.8,501.2,171.4,492.6,179.9,492.6z"/>
			<path class="st5" d="M171.8,501.2c0,0-5.4,3.3-10.2,16"/>
			<path class="st7" d="M183.3,504.1c0,0,4.9,4.4,9.8-2.2C193.1,501.9,185.8,497.7,183.3,504.1z"/>
			<path class="st5" d="M183.3,504.1c0,0-9.5,3.5-13.4,14"/>
		</g>
		
			<ellipse transform="matrix(0.2843 -0.9587 0.9587 0.2843 -392.9117 427.5812)" class="st9" cx="89.9" cy="477" rx="1.6" ry="4.7"/>
		<path class="st9" d="M104.9,476.6c-1.3,1.2,0.2,3,2,3.9c2.4,1.2,9.2,4,12.8,2.5c3.2-1.3,1.3-5.1-3.8-6.5
			C111.4,475.4,106.6,475.1,104.9,476.6z"/>
		<path class="st9" d="M89.9,487.8c-1.4,1.4,0.8,3.1,2.2,3.8c3.1,1.8,11.4,7.5,16.6,7.1c5.2-0.4,3.9-4.2,0-6.6
			C104.7,489.6,91.9,485.7,89.9,487.8z"/>
	</g>
	<g>
		<path class="st5" d="M234.1,595.1c0,0,41.8,45.1,43.8,95.3"/>
		<path class="st5" d="M229.6,599.2c0,0,6.8,0.3,10.5,3"/>
		<path class="st5" d="M229.6,606.2c0,0,9.3-0.5,16.5,4"/>
		<path class="st5" d="M229.6,613.8c0,0,15.2-2,23.6,6.9"/>
		<path class="st5" d="M234.1,621.8c0,0,15.4-1,22.7,4.8"/>
		<path class="st5" d="M237.8,629.6c0,0,14.7-1.5,23.8,5.7"/>
		<path class="st5" d="M243.7,637.2c0,0,16.1,0.8,21.6,5.6"/>
		<path class="st5" d="M251.3,645.6c0,0,11-1,16.7,3.3"/>
		<path class="st5" d="M261.6,652.8c0,0,5.2,0.2,8.8,2.4"/>
	</g>
	<g>
		<path class="st5" d="M327.4,743.8c0,0,6.2,6.5,17.8,7.4"/>
		<path class="st7" d="M325.6,715c0,0,10,3.9,5.7,13.2C331.3,728.2,322.2,727.2,325.6,715z"/>
		<path class="st7" d="M318.4,733.7c0,0-0.6,11.7,9,10.1C327.4,743.8,328.8,734.6,318.4,733.7z"/>
		<path class="st5" d="M331.3,728.2c0,0,7,20.7,30,38.4"/>
		<path class="st7" d="M338,686.6c0,0-3.1,10.1,4.8,11.9C342.8,698.4,346.9,691,338,686.6z"/>
		<path class="st5" d="M342.8,698.4c0,0,16.2,43.9,36.7,59.4"/>
		<path class="st7" d="M348.9,685c0,0-3.7,5.5,0.5,7.5C349.4,692.5,353.1,690.4,348.9,685z"/>
		<path class="st5" d="M349.4,692.5c0,0,9.4,18.2,2.9,27.6"/>
		<path class="st7" d="M341.7,716.3c0,0-2.7,6.7,3.5,9.2C345.2,725.5,348,720.1,341.7,716.3z"/>
		<path class="st5" d="M345.2,725.5c0,0,5.9,10.6,16.9,11.9"/>
		<path class="st5" d="M350.3,656.5c0,0,41.2,46.8,36.7,99.1"/>
		<path class="st7" d="M338.4,659.8c0,0-0.1,9.2,6.8,9.2C345.2,669,347.2,661.7,338.4,659.8z"/>
		<path class="st5" d="M345.2,669c0,0,10.1,14.9,25.7,18.3"/>
		<path class="st7" d="M345.7,643.7c0,0-3.6,10.9,4.7,12.8C350.4,656.5,354.9,649.8,345.7,643.7z"/>
		<path class="st7" d="M376.7,631.8c0,0-4.3,11.7,4,13.9C380.7,645.7,385.8,638.7,376.7,631.8z"/>
		<path class="st5" d="M380.7,645.7c0,0,12.7,35,16.4,105.5"/>
		<path class="st7" d="M397.1,630c0,0-7.5,5.4-2.8,13.1C394.2,643.1,400.4,640.1,397.1,630z"/>
		<path class="st5" d="M394.2,643.1c0,0-1,9.9-9.5,16.7"/>
		<path class="st5" d="M403.8,749.2c0,0,12.9-27.7,6.9-92.6"/>
		<path class="st7" d="M410.7,646.4c0,0-5.4,6.8,0,10.4C410.7,656.8,416.2,654.2,410.7,646.4z"/>
	</g>
	<g>
		<path class="st5" d="M281.3,615.9c0,0,7.6,26.4,1.2,69.9"/>
		<path class="st5" d="M276.8,646.7c0,0,6,1.6,8.2,7.3"/>
		<path class="st5" d="M275.3,639c0,0,7.5,2.4,9.8,9.7"/>
		<path class="st5" d="M273.1,631c0,0,9.8,4,11.7,11.9"/>
		<path class="st5" d="M273.1,625.1c0.5,0.1,8.6,3,11.3,11.2"/>
		<path class="st5" d="M274.9,620.6c0,0,6.6,2.2,8.8,9.2"/>
		<path class="st5" d="M277.7,618c0,0,4,1.9,5,4.8"/>
	</g>
	<g>
		<g>
			<path class="st8" d="M264.2,670.9c0,0,3.2,23.2,26.1,26.1C290.3,697,286.6,676.3,264.2,670.9z"/>
			<path class="st5" d="M264.2,670.9c0,0,7.7,15.7,26.1,26.1"/>
		</g>
		<g>
			<path class="st6" d="M288.7,650.4c0,0-18,30.3,1.6,46.5C290.3,697,303.5,679,288.7,650.4z"/>
			<path class="st5" d="M288.7,650.4c0,0-3.9,22.5,1.6,46.5"/>
		</g>
		<g>
			<path class="st8" d="M308.2,661.7c0,0,5.5,31.3-17.8,35.3C290.4,697,289.6,672.4,308.2,661.7z"/>
			<path class="st5" d="M308.2,661.7c0,0-5.7,20.8-17.8,35.3"/>
		</g>
		<g>
			<path class="st6" d="M318.8,676.3c0,0-0.9,18.8-28.4,20.7C290.4,697,298,677.7,318.8,676.3z"/>
			<path class="st5" d="M318.8,676.3c0,0-4.4,10.3-28.4,20.7"/>
		</g>
	</g>
	<path class="st0" d="M133.3,857.5c-7,7.9-13.6,14.6-12.6,21.9c0.8,5.8,11.1,7.2,17.6,7.3c20.3,0.4,52.3-6.3,67.8-9
		c17.9-3.1,49.4-7.8,73.7-12.7c25.1-5.1,45.9-13.8,65.6-15.9c19.7-2.1,31.1-13.3,28.9-21.4c-1.9-6.9-8.6-7.6-24.8-7.2
		c-16.2,0.3-35.9-5.9-53.8-9c-17.9-3.1-51-5.3-66.4,0c-29.8,10.3-40.8,13.8-56.1,20.6C157.9,838.9,144.7,844.6,133.3,857.5z"/>
	<g>
		<path class="st5" d="M142.4,850c9.2,14.8,14.2,25.3,17.7,35.3"/>
		<path class="st5" d="M216.1,840.9c0,0.9,3.7,14.2,1.8,34.8"/>
		<path class="st5" d="M270.8,809.2c0,0,0.6,24.6-3.6,49.7c-0.5,3.1-1,5.5-1.4,8.7"/>
		<path class="st5" d="M322.3,825.2c0,0,1.1,10.5-0.8,28.8"/>
	</g>
	<g>
		<path class="st6" d="M279.4,824.5c0.8,9.7,11.8,14.4,36.9,12.7c39.1-2.7,62.6-22.2,57.2-38.8c-5.4-16.5-47.7-17-69.8-5.3
			C282.6,804.4,278.6,815.2,279.4,824.5z"/>
		<path class="st5" d="M288.2,834.9c0,0,11.6-19.5,35.8-24.7c0,0,2.6-14.9,17.3-25.2"/>
		<path class="st5" d="M346.3,831c0,0-5-14.9-22.2-20.7c25.9-14.9,49.5-11.9,49.5-11.9"/>
		<path class="st5" d="M295.8,797.9c0,0,16.2,0.7,28.2,12.4"/>
	</g>
	<g>
		<path class="st8" d="M230.5,791.2c-2.2,5.2-2.6,15.7,12.1,19c18.7,4.2,57.1,4,70.6-10.9c12.3-13.5-1.7-27.8-28.5-28
			C257.1,771.2,236.4,777.4,230.5,791.2z"/>
		<path class="st5" d="M230.3,801.6c3.6-5.2,17.7-14.3,41.3-8.5c0,0-3.9-13.5-17.1-18.6"/>
		<path class="st5" d="M310.8,801.6c0,0-12.4-13.5-39.2-8.5C281.4,776.7,299,773,299,773"/>
		<path class="st5" d="M271.6,793.1c0,0-5.9,8.6-5,19.4"/>
	</g>
	<g>
		
			<ellipse transform="matrix(0.9913 -0.1317 0.1317 0.9913 -98.7276 50.1688)" class="st9" cx="329.9" cy="771.4" rx="2.7" ry="1.4"/>
		
			<ellipse transform="matrix(0.9592 -0.2827 0.2827 0.9592 -204.5553 128.0947)" class="st9" cx="341.6" cy="772.9" rx="5.6" ry="3.4"/>
	</g>
	<g>
		
			<ellipse transform="matrix(0.832 -0.5548 0.5548 0.832 -355.9945 400.7354)" class="st9" cx="483.6" cy="788.1" rx="3.1" ry="2.1"/>
		<path class="st9" d="M492.7,786.3c1.3,2.7,5.8,2.8,12,1c10.1-3.1,14.9-11.2,11.1-13.6C510.9,770.6,489.6,779.7,492.7,786.3z"/>
		
			<ellipse transform="matrix(0.7071 -0.7071 0.7071 0.7071 -387.0879 592.7836)" class="st9" cx="522" cy="763.6" rx="3.5" ry="2.5"/>
	</g>
	<g>
		<path class="st7" d="M414.4,720.3c0,0,17.6,16.1,42.1,12.3c24.4-3.7,18-39.6,18-39.6l-3.3-0.3c0,0,1.7,17.2-3.9,26.4
			c0,0-4.4-11.6,0.1-37l-4.1-0.4c0,0-4.9,23.9-1.4,35.7c0,0-7.7-13.1-7.6-43.3l-4.5-0.4c0,0-0.4,26.7,5.8,44.8
			c0,0-11.3-21.2-17.7-45.9l-3.7,1.7c0,0,5.7,28.1,16.3,45.3c0,0-18.3-15.8-28-37.5l-3.5,2.2c0,0,5.1,16.7,26.5,38.4
			c0,0-15.9-6.4-32.6-21.7l-1.8,3.4c0,0,11.6,13.8,31.3,22.3c0,0-15.8-1.2-27.5-11.3L414.4,720.3z"/>
		<g>
			<path class="st6" d="M457,687.7c0,0,9.1,39.6,47.9,39.6C504.9,727.3,494.4,693.1,457,687.7z"/>
			<path class="st5" d="M457,687.7c0,0,19.9,28.6,47.3,39.6"/>
		</g>
		<g>
			<path class="st6" d="M479.8,657.7c0,0,35.7,30,25.1,69.7C504.9,727.3,474.7,718.9,479.8,657.7z"/>
			<path class="st5" d="M479.8,657.7c0,0,17.7,31.2,25.1,69.7"/>
		</g>
		<g>
			<path class="st6" d="M550.8,693.9c0,0-11.8,30.8-45.8,33.4C505,727.3,512.5,697.9,550.8,693.9z"/>
			<path class="st5" d="M550.8,693.9c0,0-20.5,22.9-45.8,33.4"/>
		</g>
		<g>
			<path class="st8" d="M523.8,668.2c0,0,13.3,48.4-18.8,59.2C505,727.3,497.9,700.4,523.8,668.2z"/>
			<path class="st5" d="M523.8,668.2c0,0-1.1,33.4-18.8,59.2"/>
		</g>
	</g>
	<g>
		<g>
			<path class="st8" d="M113.6,778.9c0,0,9.9,40.3,55.3,49.1C168.9,828,158.4,785,113.6,778.9z"/>
			<path class="st5" d="M113.6,778.9c0,0,36.4,21.7,55.3,49.1"/>
		</g>
		<g>
			<path class="st6" d="M183.9,754.1c0,0,19.8,45.1-12,70.4C171.8,824.5,152.9,794,183.9,754.1z"/>
			<path class="st5" d="M183.9,754.1c0,0,0.9,42.9-12,70.4"/>
		</g>
		<g>
			<path class="st8" d="M207,766c0,0,13.1,43.1-26.7,58.6C180.3,824.6,177.8,790.3,207,766z"/>
			<path class="st5" d="M180.3,824.6c0,0,21.7-26.9,26.7-58.6"/>
		</g>
		<g>
			<path class="st6" d="M144.8,756.1c0,0,32.9,24,23.6,69C168.5,825,134.9,809.5,144.8,756.1z"/>
			<g>
				<path class="st5" d="M144.8,756.1c0,0,15.4,30.7,23.6,69"/>
			</g>
		</g>
	</g>
	<g>
		<path class="st7" d="M175.8,831.7c-2.6,6.5-2.6,20.8,18,22.2c28.2,1.9,60.7-15.7,61.4-35.9c0.7-20.2-33-17.6-51.8-10.1
			C188.4,813.8,179.6,822.3,175.8,831.7z"/>
		<path class="st10" d="M176.8,829.5c0,0,18.3-8.5,37.3,1.3c-3.2-18.7,0.8-26.5,0.8-26.5"/>
		<path class="st5" d="M195.8,854c0,0,4.7-16.8,18.3-23.1c20.7-19.8,41-14.9,41-14.9"/>
		<path class="st5" d="M236.1,843.5c0,0-5.8-10.6-21.9-12.6"/>
	</g>
	<g>
		<path class="st6" d="M83.9,850.7c0,0,4,21.8,43.9,11.2s70.9-37,66.9-62.3c-3.3-21.1-47.7-11.4-74.7,4.6
			C94.6,819.4,79.9,834,83.9,850.7z"/>
		<path class="st5" d="M165.4,788.1c0,0-18.5,13.4-24.8,35.9c-14.1-14.9-36.7-9.1-36.7-9.1"/>
		<path class="st5" d="M146.2,855.7c0,0,1.3-19.8-5.6-31.7c-35,5.4-47.1,37.8-47.1,37.8"/>
		<path class="st5" d="M193.1,815.1c0,0-29.2-7.7-52.5,8.9"/>
	</g>
	<g>
		<path class="st9" d="M459,516.6c0,0,1.4,6.2,4.2,14c0,0-6.1-0.4-10.5-0.1c-0.9,0-1.6,0.8-1.6,1.7l0,0c0,0.6,0.3,1.1,0.7,1.4
			c3.1,2.1,9.1,4.7,14.6,5.6c1.5,0.2,2.9-0.8,3-2.4c0.2-4.5,0.5-13.9-1.3-20.1C463.4,512.8,459,516.6,459,516.6z"/>
		<path class="st9" d="M534.8,526.9c0,0,3.8,6.3,7.4,9l-6.4,7.3c-0.5,0.6-0.3,1.5,0.4,1.7l0,0c0.3,0.1,0.7,0.1,1-0.1l9-6.1
			c1.2-0.8,1.8-2.4,1.5-3.8l-2.9-11.4L534.8,526.9z"/>
		<path class="st7" d="M471.6,431.3c0,0-22.5,14.1-27.5,45.7s14.9,39.6,14.9,39.6h9.1c0,0,15.7-21.1,20.8-37.8
			C488.9,478.7,500.8,428.8,471.6,431.3z"/>
		<path class="st5" d="M459.7,516.3c0,0-21.1-45.2,17.5-76.8"/>
		<path class="st5" d="M481.4,454.6c0,0-24,17.8-18.1,61.7"/>
		<path class="st5" d="M467.3,516.6c0,0,3.5-30.7,18.9-45.4"/>
		<line class="st5" x1="456.1" y1="298" x2="514.6" y2="323.5"/>
		<path class="st6" d="M473.4,333.4c0,0,0.2,10.3-2.3,17.8s-12.8,41.2,0,66.7c0,0,25,6.9,48.7,7.2c0,0-9-40.4-30.9-74.1
			c-13.1-20.2-4.7-30.5-4.7-30.5L473.4,333.4z"/>
		<g>
			<circle class="st9" cx="460.3" cy="430.9" r="4.5"/>
			<line class="st5" x1="453" y1="432.1" x2="462.5" y2="437.3"/>
			<path class="st5" d="M434.1,535.6c1-2.3,23.7-100.9,23.7-100.9"/>
		</g>
		<g>
			<path class="st9" d="M474.5,305.9c0,0-9,11.7-4.6,22.7c3.7,9.4,15.3,7.9,20.4-1.1c4.6-8.2,4.8-16.3,4.8-16.3L474.5,305.9z"/>
			<g>
				<ellipse transform="matrix(0.3614 -0.9324 0.9324 0.3614 9.0926 642.4191)" cx="473.5" cy="314.6" rx="1.6" ry="0.6"/>
				<ellipse transform="matrix(0.3614 -0.9324 0.9324 0.3614 10.1112 646.7542)" cx="477.2" cy="316" rx="1.6" ry="0.6"/>
			</g>
		</g>
		<path class="st7" d="M471.1,417.9c0,0,0.5,97.6,63.7,109l10-3.3c0,0-11.4-64.3-25.1-98.5L471.1,417.9z"/>
		<path class="st7" d="M474.5,305.9c0,0,1.8-5.1,8.8-7.3c7.6-2.3,12.6,0.8,22.1-2.2c5.3-1.6,9.5-2.3,11.3,1.5c1.8,3.7-1,7.8-7.8,8.1
			c-6.8,0.3-11.7,1.9-14.2,8.7L474.5,305.9z"/>
		<path class="st6" d="M484,363.3c0,0,2.3,17.2-2,28.2c-4.3,10.9-22.2,17.5-22.1,31.8c0.1,13.8,11.2,14.3,14.7,6.9s5.1-16,16.2-21.4
			c13-6.3,11.6-19.2,8.1-27.9c-3.8-9.4-8.1-16-8.1-16"/>
		<path class="st5" d="M479.4,419.2c0,0-1.6,74.7,56.6,107.4"/>
		<path class="st5" d="M492.8,421.1c0.9,35,19.5,82.3,46.9,104.2"/>
		<path class="st5" d="M507.9,423.4c0,0-1.4,43.2,34.6,101"/>
	</g>
	<g>
		<g>
			<path class="st8" d="M507.9,532.7c0,0-10.1,48.5,25.5,65.4C533.4,598.1,541.7,559,507.9,532.7z"/>
			<line class="st7" x1="507.9" y1="532.7" x2="533.4" y2="598.1"/>
		</g>
		<g>
			<path class="st6" d="M543.5,527c0,0-28.3,36.6-12.5,72.7C531,599.7,556.6,582.6,543.5,527z"/>
			<line class="st7" x1="543.5" y1="527" x2="531" y2="599.7"/>
		</g>
		<g>
			<path class="st8" d="M586.1,544.4c0,0-49.4,14.1-51.8,58C534.3,602.4,573,604.3,586.1,544.4z"/>
			<line class="st7" x1="586.1" y1="544.4" x2="534.3" y2="602.4"/>
		</g>
		<g>
			<path class="st8" d="M598.3,592.4c0,0-46.3-13.4-61.5,9C536.8,601.5,558,620.8,598.3,592.4z"/>
			<line class="st7" x1="598.3" y1="592.4" x2="536.8" y2="601.5"/>
		</g>
	</g>
	<g>
		<path class="st0" d="M564.3,606c0,0,1.4,9.2-1.2,14.1s-16.7,0.3-21.8-2.3s-18.5-7.7-26.7-10.3c-8.2-2.6-31.7-10.1-43.4-11.9
			c-18-2.8-31.8-8.9-36.7-16.1l0-9.8l88.5,18L564.3,606z"/>
		<path class="st2" d="M434.6,569.8c-0.1-4.6,15.1,0.6,34.5,1.3c17.9,0.7,60.1-0.3,69.5,8.5s8.3,15.2,19.3,19.9s5.5,11.3,0,11.9
			s-13.2-1.3-23.2-6.6c-14-7.4-40.4-14-54.9-17.1c-8-1.7-21.8-1.8-32.5-7.1S434.6,572.1,434.6,569.8z"/>
		
			<ellipse transform="matrix(9.534136e-02 -0.9954 0.9954 9.534136e-02 -109.6195 1044.814)" class="st9" cx="520" cy="582.7" rx="2" ry="3.9"/>
		
			<ellipse transform="matrix(0.3293 -0.9442 0.9442 0.3293 -199.2717 902.2186)" class="st9" cx="535.4" cy="591.4" rx="3.3" ry="7.7"/>
	</g>
	<g>
		<g>
			<path class="st6" d="M426.2,771.3c-5.3-3.5-10.6-3.8-14.1-3.5c-2.3,0.2-4,0.7-4.7,1l-1.1-2.5c0.8-0.3,2.8-0.9,5.5-1.2
				c4-0.4,9.9,0,15.9,3.9L426.2,771.3z"/>
		</g>
		<g>
			<path class="st8" d="M464.3,753.1c0,0-0.7-5,5.5-8.1c5-2.5,10.9-0.5,15.1-4.5c0,0,0.4,4,3.1,7c3.4,3.8,2.7,9.6,1.1,11.8
				l-15.6,3.6L464.3,753.1z"/>
			<path class="st8" d="M481.6,746.7c0,0-4.7,6-5.3,15.7"/>
		</g>
		<g>
			<path class="st8" d="M453.5,735.2c0,0-1.9,6.6-9.4,15c-5.2,5.7-2.1,16.1,12.4,16c11.8-5.9,12.5-15.2,3.7-22.6
				C454.9,739.2,453.5,735.2,453.5,735.2z"/>
			<path class="st8" d="M454.8,745.7c0,0-1.1,10.6,1.6,20.5"/>
		</g>
		<g>
			<path class="st6" d="M398.2,789.6c1.2-1,5.1-4.5,7.5-10.6l2.6,1c-2.8,7-7.2,10.8-8.5,11.8L398.2,789.6z"/>
		</g>
		<g>
			<path class="st6" d="M420.4,776.6l-0.7-1.3c1.7-1.2,8.4-6.1,12.3-11.4l2.2,1.6c-4.3,5.7-11.5,11.1-13.4,12.3L420.4,776.6z"/>
		</g>
		<g>
			<path class="st6" d="M458.1,766.9c-2.6-2.2-6.2-3.2-10.6-2.8c-2.6,0.2-4.8,0.9-5.7,1.2l-1-2.6c1-0.3,3.4-1.1,6.4-1.4
				c3.7-0.3,8.8,0,12.8,3.5L458.1,766.9z"/>
		</g>
		<g>
			<path class="st6" d="M489.8,757.5c-1.9,0.2-3.3,0.2-4,0.3l-0.1-2.8c0.7,0,2-0.1,3.8-0.3c3.9-0.4,9.5-1.2,14-2.9l1,2.6
				C499.8,756.2,493.9,757.1,489.8,757.5z"/>
		</g>
		<g>
			<path class="st8" d="M425.4,777.4c0,0,5.3-2.4,9.2,0.4c4.5,3.2,4.9,13.5-2.6,17.4c-6.7,3.5-12.4,3.8-20.7,8.1c0,0,2.1-6-1.1-13
				c-3.3-7.3-3-12.7,0.9-15.8S422.3,771.4,425.4,777.4z"/>
			<path class="st8" d="M425.4,777.4c0,0,3.4,10.5-9,20.1"/>
		</g>
		<g>
			<path class="st8" d="M407.9,766.9c0,0,6.8-0.4,7.4,6c0.6,6.7-7.7,10.9-17.4,9.5c-8.7-1.3-16.3,0.7-16.3,0.7s4-4.8,4.3-14
				C386.3,758.3,403,756.2,407.9,766.9z"/>
			<path class="st8" d="M390.5,777c0,0,6.8-10.8,17.4-10.1"/>
		</g>
		<g>
			<path class="st8" d="M456.2,763.4c0,0-7.2,2.6-4.8,8.9c2.3,6.4,10.3,5.5,18.3,1.5c7.9-4,10-7.9,15.2-7.8c0,0-6.9-9.5-14.6-11.4
				C464.3,753.1,455.5,754.8,456.2,763.4z"/>
			<path class="st8" d="M456.2,763.4c0,0,5.4,4.4,18.5,2.7"/>
		</g>
		<g>
			<path class="st8" d="M431.4,767.1c0,0-8.8,2-9.9-5.4c-0.9-6.1,4.7-8.2,10.7-9c8.2-1.1,13.5-4.4,13.5-4.4s-1.5,6.1-0.6,11.4
				C446.7,769.6,435.6,773.4,431.4,767.1z"/>
			<path class="st8" d="M439.4,758.7c0,0-1.5,4.7-8.1,8.4"/>
		</g>
		<g>
			<path class="st8" d="M400.9,789.8c0,0,5.9-1.1,6.1,4.8c0.2,5.9-10.4,14.2-26.8,8.6c0,0,4-1.6,6.6-9
				C390.1,785.1,398.8,786.4,400.9,789.8z"/>
			<path class="st8" d="M400.9,789.8c0,0,0,7.7-10.4,9.2"/>
		</g>
		<g>
			<path class="st8" d="M441.3,767.9c0,0-9.3,1.9-4.1,12.1c4.6,8.9,17.3,2.3,23.2,6c0,0,0.1-6.8-2.2-13.5
				C455.3,764.2,445.4,760.1,441.3,767.9z"/>
			<path class="st8" d="M441.3,767.9c0,0,2.9,10.3,13.6,12.1"/>
		</g>
		<g>
			<path class="st8" d="M487.9,757c0,0,7.2-2.8,10.1,3.1c2.6,5.3-1.7,12.8-7.6,16.1c-5.9,3.3-8,7-8,7s-8.7-5.3-10.4-15
				C470.4,758.4,479.9,750.4,487.9,757z"/>
			<path class="st8" d="M487.9,757c0,0,1.1,3.3,0,8.5c-1.2,5.6-5,7.1-5.2,11.5"/>
		</g>
		<g>
			<path class="st8" d="M499.3,753.4c0,0-2.6,6.8,4.6,8.3c6.3,1.3,10.8-4.9,12.2-11.2c1.3-6.4,2.7-8,2.7-8s-4.3,1.4-11.2,0
				c-6.8-1.4-10.8-0.4-11.8,4.2C494.7,751.3,499.3,753.4,499.3,753.4z"/>
			<path class="st8" d="M512.5,747.5c0,0-4.1,5.2-13.2,5.9"/>
		</g>
	</g>
	<g>
		<g>
			<path class="st11" d="M235.9,690.9L235.9,690.9c-4.3,2.8-9.8,2.8-14.1,0l0,0c-4.3-2.8-9.8-2.8-14.1,0l0,0
				c-4.3,2.8-9.8,2.8-14.1,0l0,0c-4.3-2.8-9.8-2.8-14.1,0l0,0c-4.3,2.8-9.8,2.8-14.1,0h0c-4.3-2.8-9.8-2.8-14.1,0l0,0
				c-1.6,1-3.4,1.7-5.2,2l0.4,6.9l89.4-1.2"/>
		</g>
		<g>
			<path class="st5" d="M235.9,690.9L235.9,690.9c-4.3,2.8-9.8,2.8-14.1,0l0,0c-4.3-2.8-9.8-2.8-14.1,0l0,0c-4.3,2.8-9.8,2.8-14.1,0
				l0,0c-4.3-2.8-9.8-2.8-14.1,0l0,0c-4.3,2.8-9.8,2.8-14.1,0h0c-4.3-2.8-9.8-2.8-14.1,0l0,0c-1.6,1-3.4,1.7-5.2,2"/>
		</g>
	</g>
	<g>
		<g>
			<g>
				<path class="st6" d="M355.4,378.8c0,0,15-2.3,17.5,2.1c2.5,4.4-5.6,5.9-4.7,8.9s13.9-0.8,13.3,6.2c-0.7,7-8.6,2.5-9.1,5.4
					c-0.5,3,7.2,7.9,3.6,12s-9.5-4.1-12.8-5.6c-3.3-1.5-8.7,10.1-13.2,4.2c-4.5-6,7.1-7.9,5.7-13.8c-1.4-5.9-7.9,5.9-15.4,6.5
					c-7.4,0.6-9.3-4.6-5.2-12.2c4.1-7.6,6.3-6.9,6.5-9.6s-4.5-2.6-3.8-6.5S351.4,372.4,355.4,378.8z"/>
				<path class="st5" d="M355.6,380.1c0,0,9,7.2,11.4,20.6"/>
				<path class="st5" d="M341.6,395.9c0.1-0.5,3.7-10.7,14.1-14.6"/>
			</g>
			<g>
				<path class="st6" d="M357.6,419.2c0,0,11.7,4.5,10,10.1c-1.7,5.7-5.9,0.1-7.1,4.2s10.8,3.6,8.8,9.5c-2,5.9-7.1-2-9.9,0.9
					c-2.9,2.9-1,10.3-6.9,8.7c-5.9-1.6-0.7-7.4-3.9-9.9s-9.9,2.2-10.7-3.3c-0.8-5.5,7.8-5,8.3-8.8s-7.2,4.4-9.6,0.2
					c-2.4-4.2,4.9-11.1,14.3-12.4C356.3,417.8,357.6,419.2,357.6,419.2z"/>
				<path class="st5" d="M352.8,446.7c0,0,4.3-17.1,2.5-28.3"/>
			</g>
			<path class="st6" d="M313.7,384.7c0,0,3.6-5.7,10.6-6.9c7-1.2,5.5,3.3,4.6,5.7c-0.9,2.4-1.7,5.4,5.1,4.9c6.8-0.5,8,2.9,4.2,5.3
				c-3.8,2.4-4.2,3.4-2.4,4.9c1.8,1.5,7.1,4.4,4.7,7.6c-2.4,3.1-6.9,3.2-11.2,0.7c-4.3-2.5-5.1,0.6-4.9,2.7c0.2,2.1-1.5,6.7-5.5,5
				c-4-1.7,0.6-9.8-1.2-12.8c-1.8-3-4.3,7.8-8.1,4.9C306,403.6,308.3,391.9,313.7,384.7z"/>
			<g>
				<path class="st6" d="M268.1,395.5c0,0,12.1-0.5,15.3,3.8c3.2,4.3-5.8,3.3-5.3,5.9c0.4,2.6,13.2-0.2,12.9,4.4s-9-0.4-10.2,2.5
					c-1.3,2.9,7.6,8.9,2.9,12.6c-4.8,3.7-6.3-7.9-9.3-8.6c-3-0.8-2,8.9-6.5,7.5c-4.6-1.3-0.9-7.3-1.9-11c-1-3.7-3.7,5.1-6.7,2.7
					C256.1,412.9,259.2,401.7,268.1,395.5z"/>
				<path class="st5" d="M268.1,395.5c0,0,5.6,4.6,8.5,18.6"/>
			</g>
			<path class="st6" d="M302.4,412.5c0,0-20.1-4.3-21.9,1.6s9.3,3.2,9.6,5.7c0.3,2.5-10.4,4.6-7.6,10.2c2.8,5.6,8.5-1.8,10.3-0.3
				c1.8,1.4-4.1,11,2.5,11.9s3.8-11.2,5.6-13.1s0.5,9.8,6.4,7.6S302.4,412.5,302.4,412.5z"/>
			<g>
				<path class="st6" d="M237.9,361.4c-0.3-4.8,9.7-2.3,12.4-4.7c2.7-2.4-2.6-3.1-2.1-6.9c0.5-3.9,7.6-3.9,14.9,4.1
					c6.6,7.2,5.6,27.1-0.2,26.9c-3-0.1-3.2-7.9-6.6-7.5c-3.4,0.5-8,7.5-11.2,4.1s4.5-7.7,3.4-11.2
					C247.4,362.6,238.2,366.1,237.9,361.4z"/>
				<path class="st5" d="M250.7,370.7c0,0,4.4-12.4,14.1-14.5"/>
			</g>
			<g>
				<path class="st6" d="M300.6,367.8c0,0-14.4-8.1-16.7-2.9c-1.2,2.7,6,4.4,5.6,6.6c-0.7,3.9-12.9-0.6-13.1,5.4
					c-0.1,4.7,9.3,0.9,10.7,3.5c2.1,4-1.7,11.4,4.4,11.6c5.2,0.2,0.5-10.1,4.7-10.8c4.2-0.7,6.8,6.4,9.8,3.3
					C309.3,381.4,300.6,367.8,300.6,367.8z"/>
				<path class="st5" d="M300.6,367.8c0,0-6.5,1.2-9.7,11"/>
			</g>
			<path class="st6" d="M261.9,386.1c0,0-17.8-6.8-20.4-0.8s9.4,3.8,7.4,8s-13.3,3.4-11.1,10.2c2.2,6.8,14.7-2.1,16.8,1.6
				c2.2,3.7-2.8,8.6,3.6,8.8C265.6,414.2,265.4,393.7,261.9,386.1z"/>
			<path class="st5" d="M261.9,386.1c0,0-4.3,9.6-16.4,13.9"/>
		</g>
		<g>
			<path class="st7" d="M268.1,361.4c0,0-2.2,6.4,0.9,9c0,0-2.8,3.5-0.2,6.3c0,0-1.7,5.9,3.2,6.2c0,0-1.4,10.8,6.7,13
				c0,0,1,5.5,6.7,3.5c0,0,1.1,1.1,2.9,1.5c2.7,0.5,5.7-1.6,5.2-4.9c-0.2-1.6-1.4-3.3-3.7-4.6c0,0,1.2-6.9-4.1-9.9
				c0,0,1.8-6.7-5-8.8c0,0-0.8-5.1-5.4-5.1C275.3,367.6,275.7,362.6,268.1,361.4z"/>
			<path class="st5" d="M275.1,378.3c0,0-1.3,5.7,3.7,6.7c0,0-0.8,5.2,3.7,6.5"/>
			<path class="st5" d="M275.3,371.4c0,0,4.5,1.4,3.8,6.6c0,0,6,2,5.2,9.2c0,0,4.2,2.7,3.1,8.5"/>
		</g>
		<g>
			<path class="st7" d="M262.7,382.8c0,0-4.4,2.2-3.3,5.2c0,0-8.8,5.2-6,14.7c0,0-7.8,5.8-3,18.9c0,0-3,6.8,2.3,10.9
				c-0.2,5.3,7.1,8.1,9.1,0.9c0,0,3.6-0.6,3.1-7c0,0,4.4-2.1,2.1-7.3c0,0,5-5-0.7-13.4c0,0,3.7-5.8-0.3-9.7c0,0,2.3-4.4-1.9-6.9
				C264.2,389.2,265.5,386,262.7,382.8z"/>
			<path class="st5" d="M259.8,395.9c0,0-4.9,4.2-2,10.4c0,0-4.1,4.4-1.2,10.2c0,0-3.8,3.9-1.2,9.2"/>
			<path class="st5" d="M262.2,404.8c0,0,1.7,3.3-0.8,5.6c0,0,3.9,7-2.6,12.3"/>
		</g>
		<g>
			<path class="st7" d="M312.4,382.5c0,0-1.9,1.9-0.8,4.3c0,0-3.5,5.5-0.2,9c0,0-3.1,5.8,0.8,10.2c0,0-1.7,7.6,4.7,9.7
				c0,0-2.1,7.8,6.3,8.9c0,0,2.6,6.5,7.3,6.4c4.7-0.1,2.9-6.6,2.9-6.6s3.9-1.6,1.4-7c0,0,1-2.3-0.8-3.3c0,0,3.3-6.4-3-9.9
				c0,0,1.4-8-5.8-10.3c0,0,1-6-7.2-7C318.1,387,317,383.5,312.4,382.5z"/>
			<path class="st5" d="M314.6,390.3c0,0-1,5.6,4.2,6.8c0,0-2.6,6.2,2.4,8.3c0,0-2.6,8.9,3.1,10.2c0,0-1.1,8.6,4,8.8"/>
			<path class="st5" d="M322.3,397.9c0.2,0,3,1.8,1.6,4.9c0,0,6.6,3.2,4.5,10c0,0,3.6,3.9,2.3,8.9"/>
		</g>
		<line class="st5" x1="263.6" y1="344.1" x2="275.5" y2="479.5"/>
		<line class="st5" x1="294.5" y1="348.8" x2="338.7" y2="484.1"/>
		<line class="st5" x1="353" y1="359.6" x2="368" y2="479.5"/>
		<line class="st5" x1="268.2" y1="361.4" x2="264.7" y2="356.2"/>
		<path class="st5" d="M262.7,382.8c0,0,1.7-3.3,4-3.8"/>
		<g>
			<g>
				<path class="st7" d="M309.1,396.2c0,0-6.9,2.1-6.5,11.1c0,0-6.3,5.1-3.5,12.2c0,0-4.6,7.3,1.4,11c0,0-2.3,10.2,5.4,10.5
					c0,0,3.7,4.2,6.4-0.6c0,0,4.8-4.3,1.7-10.1c0,0,3.3-3.6,1.5-9c0,0,3.7-6.5-0.9-12.7c0,0,1.2-4.8-2.8-7.4
					C311.8,401.2,312.3,397.8,309.1,396.2z"/>
				<path class="st5" d="M306.6,407.9c0,0-3.8,5.2-0.6,8.7c0,0-4.8,6.4,0.5,10.9c0,0-3.6,6,2.3,8.5"/>
				<path class="st5" d="M309.9,414.4c0,0,1.9,2.1-0.2,5c0,0,3.3,3.4,0.1,8.4"/>
			</g>
			<line class="st5" x1="309.1" y1="396.2" x2="308.9" y2="392.8"/>
		</g>
		<path class="st5" d="M303.7,377c0,0,5.8,0.2,8.7,5.5"/>
		<g>
			<g>
				<path class="st7" d="M354.2,381.1c0,0-7.6,4-5.2,13.5c0,0-5.8,2.9-3.6,10.6c0,0-5.2,7.4-1.3,13.8c0,0-4.3,8.7,2.3,11.9
					c0,0,0.2,5.4,3.9,5.6c3.8,0.2,3.5-5.9,3.5-5.9s6.3-3.8,3.4-10.3c0,0,5.1-6.5,1.4-11.2c0,0,3.6-9-1.6-12.5
					C356.8,396.6,360.7,386.9,354.2,381.1z"/>
				<path class="st5" d="M351.7,399.7c0,0-3.5,2.3-1.2,7.8c0,0-3.4,3.3-1.3,10c0,0-2.7,5.2,0.2,8.2"/>
				<path class="st5" d="M353.7,408.8c0,0,1.4,1.6-0.1,3.7c0,0,2.8,3.3,0.2,7.9"/>
			</g>
			<line class="st5" x1="354.2" y1="381.1" x2="355" y2="376"/>
		</g>
	</g>
	<g>
		<g>
			<path class="st6" d="M285,483.7c-0.2-3.8,3.9-6.5,9.9-5.2c6.8,1.6,7.6-3.1,15.3,0.5c5.9,2.8,6.6,10.9,6.6,10.9s-2.9-0.3-6.6,3.7
				c-3.3,3.6-10,4.3-15.5-0.9C290.6,488.8,285.4,489.4,285,483.7z"/>
			<path class="st5" d="M293,483.8c0,0,11.1-3.1,23.8,6.2"/>
		</g>
		<g>
			<g>
				<path class="st8" d="M331.9,505.7c-0.5-6.1,4.6-11.4,4.8-11.6l1.2,1.2c0,0-4.8,5-4.3,10.3L331.9,505.7z"/>
			</g>
			<g>
				<g>
					<path class="st8" d="M362.1,506.1c-3.4,6.1-11.6,7.8-11.9,7.9l-0.4-1.9c0.1,0,7.6-1.6,10.6-7L362.1,506.1z"/>
				</g>
			</g>
			<g>
				<path class="st8" d="M369.4,501.1c-3,6.1,0,13.6,0.2,13.9l1.8-0.7c0-0.1-2.9-7-0.2-12.3L369.4,501.1z"/>
			</g>
			<path class="st8" d="M374.1,516.2c-6.9,0-10.1-4.5-13.3-8.9c-2.3-3.2-4.7-6.6-8.6-8.2c-4.6-1.8-7.6-1.9-10.2-1.9
				c-3.3,0-6.1-0.1-10.2-3.4c-3.3-2.7-7.4-3.9-11.3-3.4c-3.4,0.5-6.3,2.2-8.1,4.9c-4.9,7-12.2,8.4-12.5,8.4l-0.4-2.4
				c0.1,0,6.7-1.3,10.9-7.4c2.3-3.3,5.8-5.4,9.8-6c4.6-0.6,9.4,0.8,13.2,3.9c3.4,2.8,5.6,2.8,8.7,2.9c2.7,0,6.1,0.1,11.1,2.1
				c4.6,1.8,7.2,5.5,9.7,9c3.5,4.8,6.5,9,14,7.7l0.4,2.4C376.1,516.1,375,516.2,374.1,516.2z"/>
			<g>
				<path class="st8" d="M392.4,507.7c-0.6-8.4,6.4-15.6,6.7-15.9l1.7,1.7c-0.1,0.1-6.6,6.7-6.1,14L392.4,507.7z"/>
			</g>
			<g>
				<g>
					<path class="st8" d="M320.4,505.2c-2.6-7,1.7-14.8,1.9-15.2l1.8,1c0,0.1-4,7.3-1.7,13.4L320.4,505.2z"/>
				</g>
			</g>
		</g>
		<g>
			<path class="st6" d="M334.5,525.5c-2.7,0.9-5.5-1.5-5.7-6.1c-0.2-5.2-3.8-4.9-2.7-11.1c0.8-4.8,6.5-7,6.5-7s0.4,2.1,4,4
				c3.2,1.7,4.9,5.5,2.2,10.5C336.8,519.6,338.6,524.1,334.5,525.5z"/>
			<path class="st5" d="M333,519.8c0,0-4.4-7.3-0.3-18.3"/>
		</g>
		<g>
			<path class="st6" d="M313.6,515.4c0,0-9.2,1.3-12.2,8.3c-3,7-1.3,13.9-2.4,19.6c-1,5.7,2.1,8.7,7.8,3.7c5.7-5,5.2-4.7,12.1-9.1
				c6.9-4.4,3.4-16.8,2.5-18.7S318.1,516,313.6,515.4z"/>
			<path class="st5" d="M304.2,541c0,0,3.2-18.8,13.6-24.6"/>
		</g>
		<g>
			<g>
				<path class="st6" d="M386.7,481.7c2.1,2.7-1.3,5.8-1.2,9c0.5,12.3-6.5,17.7-16.5,13.4c-3.7-1.6-6.9-5.5-5-10.9
					c2.2-6.3,7.5-3.4,12.2-9.7C380.4,478,384.9,479.3,386.7,481.7z"/>
				<path class="st5" d="M369.1,504c0,0,1.7-11.2,12.3-18.4"/>
			</g>
		</g>
		<g>
			<path class="st6" d="M337,467.4c3.1-1.7,7,0.6,8.3,6.2c1.4,6.3,5.7,5.1,5.7,13c0,6.1-6.5,9.9-6.5,9.9s-0.9-2.5-5.7-4.1
				c-4.3-1.4-7.1-5.7-4.9-12.3C335.5,475.1,332.4,470,337,467.4z"/>
			<path class="st5" d="M340.1,474.1c0,0,7,8,4.3,22.3"/>
		</g>
		<g>
			<circle class="st7" cx="319.3" cy="515" r="12.1"/>
			<circle class="st2" cx="319.3" cy="518.8" r="2.5"/>
			<circle class="st9" cx="319.3" cy="518.8" r="0.8"/>
		</g>
		<g>
			<circle class="st7" cx="352.3" cy="493.9" r="12.1"/>
			<circle class="st2" cx="347.4" cy="499" r="2.5"/>
			<circle class="st9" cx="347.4" cy="499" r="0.8"/>
		</g>
		<g>
			<circle class="st7" cx="347.1" cy="520.3" r="12.1"/>
			<circle class="st2" cx="343.7" cy="526.4" r="2.5"/>
			<circle class="st9" cx="343.7" cy="526.4" r="0.8"/>
		</g>
		<g>
			<circle class="st7" cx="385.5" cy="514.3" r="13.3"/>
			<circle class="st2" cx="388.1" cy="508.8" r="2.5"/>
			<circle class="st2" cx="388.1" cy="508.8" r="0.8"/>
		</g>
		<g>
			<circle class="st7" cx="406.5" cy="483.1" r="14.3"/>
			<circle class="st2" cx="412" cy="477" r="2.3"/>
			<circle class="st9" cx="412" cy="477" r="0.7"/>
		</g>
		<g>
			<circle class="st7" cx="324.4" cy="479.3" r="12.6"/>
			<circle class="st2" cx="323.1" cy="472.1" r="2"/>
			<circle class="st9" cx="323.1" cy="472.1" r="0.6"/>
		</g>
		<g>
			<circle class="st7" cx="297.1" cy="514.2" r="13.9"/>
			<circle class="st2" cx="294.5" cy="522.5" r="2.6"/>
			<circle class="st9" cx="294.5" cy="522.5" r="0.8"/>
		</g>
	</g>
	<g>
		<g>
			<path class="st6" d="M241.2,506.8c0,0-1.1,51.9,38.6,61.1C279.8,567.9,271.9,528.9,241.2,506.8z"/>
			<path class="st5" d="M279.8,567.9c-25.8-24.7-38.6-61.1-38.6-61.1"/>
		</g>
		<g>
			<path class="st8" d="M295.2,524.4c0,0,11.7,36.8-14.8,43.4C280.4,567.8,273.5,542.2,295.2,524.4z"/>
			<path class="st5" d="M295.2,524.4c0,0-2.1,26.5-14.8,43.4"/>
		</g>
		<g>
			<path class="st6" d="M327.7,530.6c0,0-9.2,41.6-47.6,37.5C280,568,292.9,541,327.7,530.6z"/>
			<path class="st5" d="M327.7,530.6c0,0-16.6,28.3-47.6,37.5"/>
		</g>
		<g>
			<path class="st8" d="M269.6,517.6c0,0-10.4,32.9,10.4,50.2C280,567.8,288.9,542.7,269.6,517.6z"/>
			<line class="st5" x1="269.6" y1="517.6" x2="280" y2="567.8"/>
		</g>
	</g>
	<g>
		<g>
			<path class="st7" d="M407.4,497.1c0,0-3.7,8.3,3.1,9.9C410.5,507.1,415.6,502.8,407.4,497.1z"/>
			<path class="st7" d="M404.5,519.3c0,0-1.3,9.7,6,8.5C410.5,527.8,412.3,521.4,404.5,519.3z"/>
			<path class="st7" d="M397.9,527.8c0,0-4.7,7.3,1.9,9.8C399.8,537.6,404.4,532.7,397.9,527.8z"/>
			<path class="st7" d="M390.9,547.7c0,0-0.8,9.1,6.4,8.4C397.3,556.1,398.4,549.9,390.9,547.7z"/>
			<path class="st7" d="M425.6,513.2c0,0-5,8.5,1.7,12.2C427.3,525.4,433.5,520.3,425.6,513.2z"/>
			<path class="st7" d="M450,522.8c0,0-6.5,7.5-2.3,12.5C447.7,535.3,454.2,533.1,450,522.8z"/>
			<path class="st7" d="M476.2,545.3c0,0-10.3-2.3-10.3,6.7C466,552,473.8,555.6,476.2,545.3z"/>
		</g>
		<path class="st5" d="M410.5,507.1c0,0,11.2,19.9,12.4,60.2"/>
		<path class="st5" d="M410.5,527.8c0,0,3.1,6.2,9.3,9.4"/>
		<path class="st5" d="M399.8,537.6c0,0,2.7,21.3,12.6,29.8"/>
		<path class="st5" d="M397.3,556.1c0,0,4.5,5.7,9.7,4.5"/>
		<path class="st5" d="M427.3,525.4c0,0,4.5,17.9,2.3,38.5"/>
		<path class="st5" d="M447.7,535.3c0,0-4.8,21-10.8,28.6"/>
		<path class="st5" d="M466,552c0,0-11.4,7.1-17.1,19.5"/>
	</g>
</g>
</svg>
