<svg id="圖層_1" data-name="圖層 1" xmlns="http://www.w3.org/2000/svg" xmlns:xlink="http://www.w3.org/1999/xlink" viewBox="0 0 754.23 1066.7"><defs><style>.cls-1,.cls-6{fill:none;}.cls-2{fill:#e54c17;}.cls-10,.cls-2,.cls-3,.cls-4,.cls-6,.cls-7,.cls-8,.cls-9{stroke:#000;stroke-miterlimit:10;stroke-width:0.25px;}.cls-3{fill:#ed7235;}.cls-11,.cls-4{fill:#fee3c0;}.cls-5{clip-path:url(#clip-path);}.cls-7{fill:#97ceb3;}.cls-8{fill:#45805c;}.cls-9{fill:#fff;}.cls-10{fill:#ffba31;}</style><clipPath id="clip-path"><path class="cls-1" d="M497.55,792.05,241.31,868.46l-14.48,4.84-81,27.07c11.23,9.64,28.24,46.65,33.32,59.55,3,7.65,11.53,20.11,22.28,31.19,7.38,7.6,15.8,14.54,24.23,18.83,20.71,10.56,60.19,12.9,93-6.25s47.68-12.51,74.26-25.41,34.78-34,63.7-53.93,54.33-16.81,78.17-51.2S567,761.79,567,761.79Z"/></clipPath></defs><title>all</title><path class="cls-2" d="M571.9,221.77l-367.49,32L176.3,257C178,323.5,192,322.76,194,383.12c2,60.05-14.77,91-14.77,91l37,7H219V481l306.76,38.35s-10.35-36.11-11.38-48.53c-2.36-28.64.64-107.61,40.79-181.87C574.9,252.47,571.9,221.77,571.9,221.77Z"/><path class="cls-3" d="M431.2,252.82c1.35-.43,1.88,1.05,2.22,3.79.41,3.38-.34,4.61-1.5,4.4-.71-.12-2.09-1.57-2.21-3.74S430.16,253.15,431.2,252.82Z"/><path class="cls-3" d="M429.27,279.81c-.21-5.32-.44-13.49,3.21-13.49,2.69,0,3.21,10.16,3.73,23.44s.49,30.46-1.06,38.39-.36,23.17-3.29,23.8c-5.27,1.15-4.5-9.6-4.71-20.87S430.19,303,429.27,279.81Z"/><path class="cls-3" d="M449.73,240.77s.56,50.88,0,59.36-.57,16.11,4.24,26.28,5.37,16.4,5.65,30,2.26,63,2,72.92-1.92,58.8-12.13,66.71l17.81,4.56s8.17-34.24,8.17-58.55-.57-62.75,0-78.58,3.67-22.05,4.52-36.18-1.17-69.2.56-86.49h-9s.57,15.42.57,21.14-.85,22.67.84,30.58,0,15,1.7,26.29-1.13,18.94-4.24,19.22-1.38-7.91-4.93-13.57-5.06-19.87-5-30.92c0-13.94-1.34-25.32.35-52.74Z"/><path class="cls-3" d="M503.13,238.65s-2,10.15,2.68,16.4,4.24,6,5.13,15.18,1.63,9.63,2.91,9.16c1.93-.72.67-20.76,1.78-27s2.68-8,1.56-13.72Z"/><path class="cls-3" d="M531.26,236.3s-2.46,10.49,1.34,25.45.44,30.36-2.12,39.29H536s4.46-3.13,6.69-18.53.45-14.06,4.91-21.65,4.92-21,3.13-27l-8.26,1.56S544,251,542.2,256.84s-3.8,7.14-5.14,4.24-1.56-23.44.23-29.69Z"/><path class="cls-3" d="M269.53,293.07a5,5,0,0,1,4.35,4.76c.46,4.13,1.23,12,5.69,14.25s1-8.8,3.48-9.29,7.43,10.4,7.18,22.29,4,11.74,5.21,10.9c2.72-2-2.75-21.29-1.74-33a17.53,17.53,0,0,1,3.32-9.38Z"/><path class="cls-3" d="M332.35,275.78a324.7,324.7,0,0,0,4.46,43.85,171.35,171.35,0,0,1,1.24,55.75c-3.27,22.34,3.06,47.16,2.45,70.14-.8,30,.32,46.09.32,46.09h14.74s0-26.93-2.09-55.43c-1.6-21.78-6.06-37-2-70.71,2.17-18.25,6.19-20.57,5.45-39.15s1.48-52.52-3.22-60.94l-6,3.71s3,8.18,2.23,20.81,1.49,23.79,1.24,30.72-1.71,13.09-4.26,10.13c-1.63-1.89-3.17-11.86-4.41-22.27s-1.69-28.75-3.17-32.72Z"/><path class="cls-3" d="M379.17,244.32s5.95,5.7,5.21,12.39-2.6,21.05.06,26.5,4.15,2,5.39,0,1.24-6.93,3.71-5.45,3.22,20.81,2,28.74,3,24.53,3.46,33.2,5.45,20.81,6.2,30l4.39,1s-2.91-35.18-2.91-42.86-3.22-27.75-2.72-37.91-.31-20.55-.74-33.44c-.43-12.62,2.23-19.25,2.23-19.25Z"/><path class="cls-3" d="M391.57,493.72s12.37-.28,14.66-15.87c1.21-8.18,2.24-26.29,2.39-38.37.14-11,.69-19.07,3.08-18.83,2.69.27,3.53,4,2.86,15.15-.48,8,2.27,17.76,2.67,26.47.92,19.71,4.1,27.89,12.95,32.07Z"/><path class="cls-3" d="M500.1,315.84c-.08-6,.23-23.2-4.59-23.57s-4.83,18.92-4.83,28.94-4.08,15.19-4.45,32.66c-.37,17.18-2.6,24.86,0,31.91s-.07,14.8,2.22,17.82c1.81,2.37,4.11,1.67,5-8.35s-.26-23.4,3.83-31.19S500.37,335.52,500.1,315.84Z"/><path class="cls-3" d="M313.78,314.76c2,.6,6,16.14,4.66,39.4s-1.32,27-5,26.7-4.23-21.41-3.43-34.63S308.07,313,313.78,314.76Z"/><path class="cls-3" d="M264.2,324.2c.13-3.22-1.54-13.38,2.81-13.38s2.66,17.15,4.59,24.4,3.14,24.89,2.66,33.82-5.56,4.84-6.52-7S263.85,333.08,264.2,324.2Z"/><path class="cls-4" d="M246.45,399.85c-6.08-27.85,0-31-4.71-55.84-2.37-12.52-6.25-25.55-.52-51.49,0,0-29.84-23.47-38.62-27.49-4.53-2.08-31.54-9.1-31.54-9.1C172.59,310.32,192,322.76,194,383.12c2,60.05-14.77,91-14.77,91l37,7,30.58,1.42s5.24-12.91,6.49-33.77C254,437.74,249.79,415.19,246.45,399.85Z"/><path class="cls-2" d="M202.89,273.21a54.65,54.65,0,0,1,2.24,19c-.75,10.05,8.56,25,8.56,40.22s-1.11,41.33,3.35,60.7,14.18,23.77,14.18,36.81c0,0-1.51-35.69-.77-54.31S226,348.44,225.61,328s4.1-38.73-1.12-45.44L216.42,278a83.12,83.12,0,0,1,2.92,19.88c.2,10.72-.25,16.53-3.18,14.19S211.93,294,211.54,288a82.55,82.55,0,0,0-2.14-12.87Z"/><path class="cls-2" d="M583,682.11c2.83-10.35-.47-17.88-4.24-10.35s-1.12,23-6.24,23c-3.88,0-2-15.51-1.06-29.17s-2.11-14-3-16.38l19.77-7.53,32.08,2.93L431,570.34,116.45,506.28s5.1,19.6,17.58,33.76c14.08,16,30.17,23.56,32.89,49.4,4.12,39.09,38.35,67.67,30.3,140.22-3.77,34.07-6.11,65.56-5.56,90.3l207.6-29.35L517.45,742.8l49.43-2.15s0-11.39,9-28.8C573.75,701.13,580.29,692.16,583,682.11Z"/><path class="cls-3" d="M621.9,645.19l-1.61-.63-32.08-2.93-19.77,7.53c.94,2.35,4,2.73,3,16.38s-2.82,29.17,1.06,29.17c5.12,0,2.48-15.42,6.24-23s7.07,0,4.24,10.35c-2.74,10-9.28,19-7.18,29.74a127.33,127.33,0,0,1,10.9-17.4C606.63,667.58,610.84,666.84,621.9,645.19Z"/><path class="cls-3" d="M409.26,773.57c.55-2.74,2.19-17.53,0-37.25s6-45.48,3.83-61.37-3.55-22.93.38-28.23,6.33,3.85,7.06,17.1S438,712.71,438,746.61v33.9Z"/><path class="cls-3" d="M339.64,786.16s4.24-11.77,0-38.61,8-28.24,8-21.18,5.65,12.85,4.24,28.08S354.73,788,354.73,788Z"/><path class="cls-3" d="M439.65,601.69a29.1,29.1,0,0,1,5.65,17c0,10,2.31,19,2.57,27s3.85,10.28,5.91,6.17,1.54-12.59,0-21.58-2.32-24.41-.52-28.52Z"/><path class="cls-3" d="M480.71,631.59c4.58,1.67.7,16.14,3.51,27.71s7,7.72,9.12,20.35,3.46,51.91-.8,76.84L476.62,758s2.34-46,.93-63.23-3.86-10.53-3.86-29.82S475.8,629.8,480.71,631.59Z"/><path class="cls-3" d="M510.87,626.57s5,11.85,4.79,31.25c-.39,36.89,4.66,73.48.22,86.36-1.34,3.88,17.6,3.49,16.43,0s-2.32-42.6-4.26-62.74-5.39-20.91-5.39-38.34A73.55,73.55,0,0,1,524,628.46Z"/><path class="cls-3" d="M536.51,631.8s5.46,1.53,6.12,9.83-2.06,24.47,1.75,26.23c4.06,1.87,4.54-17,7.21-25.57,1.42-4.55,3.77-5.5,3.77-5.5Z"/><path class="cls-3" d="M156,537.75s-.44,6.09,6.11,10c9.45,5.72,7,10.88,9,16.07s6.42,4.86,5.41,0c-2.88-13.87,1.65-20.64-1.13-20.64C171.57,543.23,156,537.75,156,537.75Z"/><path class="cls-3" d="M190.52,548.93a55.78,55.78,0,0,1,1.58,15.7c-.45,8.16,3.18,12.7,6.13,22.45s.68,15.2,3.85,21.55,6.35,7.48,7-3.63-2.73-20-2.05-25.86-1.36-18.37.68-24.72Z"/><path class="cls-3" d="M207.33,623.08c4.55,0,6.38,15.87,8.4,33.8,4.78,42.36,13,67.8,12.19,77.41-.27,3.2,7.37,63.47,0,68.25-3.08,2-3.85-18.06-3.85-36,0-17.73-6.34-38.45-6.86-43.54-2.81-27.11-5.25-25.83-6.47-38.53s-2.55-30.37-4-40.2S204.57,623,207.33,623.08Z"/><path class="cls-3" d="M227.92,562.8a214.81,214.81,0,0,1,6.51,32.53c2,17.49,11,16.67,21.15,30.09s9.76,60.19,8.94,72.39c0,0,11.8,1.22,11.8,0s2-43.92-6.51-62.22-10.17-51.24-11.79-61l-9-4.12a52.3,52.3,0,0,0,1.57,18c2.86,11.5,4,17.59,1.62,18.54-3.88,1.54-9.72-9.92-11.28-21.41a153.13,153.13,0,0,0-5.22-22.81Z"/><path class="cls-3" d="M283,581.16s-1.85,10.14,6,41.92c3.76,15.18,5.47,36.4,4.69,49.92A183.33,183.33,0,0,0,295,706.63s16.18,4.55,16.64-3,.93-25.62,0-45-4.16-49.47-3.69-58.71a90.48,90.48,0,0,0-.47-15.72L301,585.52s-3.37,8.18-.13,24.36,4.29,32.76,1.06,32.58c-5.42-.31-4.16-21-8.79-33.37A71.54,71.54,0,0,1,288.64,588Z"/><path class="cls-3" d="M251.22,644.57c4-2.54,5.63,8.37,6.59,27.62,1,19.44,9.32,41.81,11.26,61.58s8.44,44.08,7.46,57.69c0,0-12,9.72-11.35,6.48s1-10.05-2.43-21.72-7.29-25.27-5.67-33.05-6-35-8.21-46.35S247,647.27,251.22,644.57Z"/><path class="cls-3" d="M302.76,738.69s8.56,20.79,9.43,28.12,5.26,23.23,10.15,25.66c8.82,4.37-7.61-42.91-5.45-55Z"/><path class="cls-3" d="M343,702.61s-3.58-7.33-2.33-26.4c1.47-22.45-4.09-34.24,1.23-45.54,2.64-5.61,2.82-11.81,6.85-10,3.57,1.64-.23,20.46-.84,31.07-1.16,20,3.82,22.48,3.82,48.84Z"/><path class="cls-3" d="M361.23,597.4s1.73,42.24,3.47,53.81,4.45,36.45,2.51,43.39-6.56,24.88-6,35.88,2.55,39.92,3.3,46.28c0,0,35.46-11,38.35-7.52,0,0,1.21-8.63-3.17-27s2.46-32.85,4.92-49.82-6.53-32-7.35-45.18,1.88-42.43,0-47.36l-10.95-.27a165.3,165.3,0,0,1,1.51,26.58c-.55,12.6-2,26.42,1.54,34.26,3.9,8.73,1.2,26.61,3.86,41.79,1.82,10.37,1.17,21.45-4.68,22.23s-15.6-11.7-13.26-33.15-3.12-26.13-4.29-42.51-1.27-45.13-3.76-51.43Z"/><path class="cls-3" d="M219.94,603.06c2.13.78,4.39,15.19,5.74,24s2.7,22.25,0,22.27-5.12-11.5-4.68-20.09S216.85,601.91,219.94,603.06Z"/><g class="cls-5"><path class="cls-2" d="M497.55,792.05,241.31,868.46l-14.48,4.84-81,27.07c11.23,9.64,28.24,46.65,33.32,59.55,3,7.65,11.53,20.11,22.28,31.19,7.38,7.6,15.8,14.54,24.23,18.83,20.71,10.56,60.19,12.9,93-6.25s47.68-12.51,74.26-25.41,34.78-34,63.7-53.93,54.33-16.81,78.17-51.2S567,761.79,567,761.79Z"/><path class="cls-2" d="M497.55,792.05,241.31,868.46l-14.48,4.84-81,27.07c11.23,9.64,28.24,46.65,33.32,59.55,3,7.65,11.53,20.11,22.28,31.19,7.38,7.6,15.8,14.54,24.23,18.83,20.71,10.56,60.19,12.9,93-6.25s47.68-12.51,74.26-25.41,34.78-34,63.7-53.93,54.33-16.81,78.17-51.2S567,761.79,567,761.79Z"/><path class="cls-3" d="M488.71,822.32s0,21.24-8.89,49.4S461.55,906.79,463,924.57c0,0,19.26-7.41,21.73-10.37s-2.47-7.41,8.4-27.66,18.28-44,19.76-72.61h-7.54s-.7,8.06-1.63,14.8-2.56,27.66-6,34.41-5.82,16.73-8.6,13.71.46-14.64,3.71-28.36,5.82-19.06,4.42-30.22Z"/><path class="cls-3" d="M406.44,885.15s3,14.45-8.39,37.64-21.83,40.93-18.64,69.58c0,0,13.8-3.18,13.49-6.82s-3.82-17.73,14.08-55.48,22.91-52.75,23.82-81.41l-23.65,9.1Z"/><path class="cls-3" d="M420.34,963.27c0-2.73,5-26.83,15.46-50.48s12.73-34.11,16.37-28.65-5.91,15.91-6.82,36.38-5.91,34.11-5.91,34.11Z"/><path class="cls-3" d="M546.21,782.83s10.88,8.23,4.51,24.15-15,29.55-17.7,43.86.45,10.66,6.82,3.84,10.61-3.84,10.61-3.84,23.5-58.46,23.95-61.19,7.28-36.84,7.28-36.84l-14.1-7.73Z"/><path class="cls-6" d="M497.55,792.05,241.31,868.46l-14.48,4.84-81,27.07c11.23,9.64,28.24,46.65,33.32,59.55,3,7.65,11.53,20.11,22.28,31.19,7.38,7.6,15.8,14.54,24.23,18.83,20.71,10.56,60.19,12.9,93-6.25s47.68-12.51,74.26-25.41,34.78-34,63.7-53.93,54.33-16.81,78.17-51.2S567,761.79,567,761.79Z"/><path class="cls-3" d="M449.42,847.85s2.09.78,2.88,6.54-2.36,7.86,1.05,11.53,3.14-12.57,5.76-19.38,3.66-9.43,3.66-9.43Z"/><path class="cls-3" d="M522.94,841.14a19.33,19.33,0,0,1-3.11,9.7c-5.47,9.22-8.82,21.44-9.19,25.72s-1.31,9.7,1.49,8.39,8.29-16,11-26.66,1.72-13,2.66-15.28,1.24-6.43-1-6.43C523.15,836.58,523,840.41,522.94,841.14Z"/><path class="cls-3" d="M373.66,860.83s6.39,33.66,1.32,56.24-17.78,80.24-15,91.47h-9s9.84-50.52,9-67.36-9.43-61-7.12-74.26l7.12-2s-.43,30.72,4,31.72,4.91-16.85,2.19-33.36Z"/><path class="cls-3" d="M343,913.77c4.82,2.29,10,27.67,6.27,43.26s-5,2.31-6.27-12.55S336,910.46,343,913.77Z"/><path class="cls-3" d="M312.24,876.73s10,13.59,9.46,23.83,4.41,6.93,5.73,0-1.65-24.77-3.3-26.75Z"/><path class="cls-3" d="M325.45,940.52c3.2-.81,8.25,10.23,7.59,36s5,34.34,5,34.34l-12.63,2.84s5.24-12.08,2.31-36.69C326.82,969.13,320.16,941.84,325.45,940.52Z"/><path class="cls-3" d="M299,883.72s-2.17,29.94,1.56,51,13.3,33.57,13.63,60.65-9.28,41.28-9.28,41.28l-6.54-3s12.82-21.46,6.73-38.31S288.78,961,281.85,947.12,270,900.23,271.3,887.68l8.37-2s-.45,41,8.13,53,7.18-.66,6-8.42a122.3,122.3,0,0,1,2-46.56Z"/><path class="cls-3" d="M249.5,892.3s1.62,25.21,3.3,42.38c3.21,32.91,22.58,36.55,27.63,53.72s3,38,.4,44.58h-6.24s3.64-23.12,0-28.73-8.55,7.6-9.06,21.63l-7.19,2.31s11-27.9,1.72-45.07-24.43-15.86-29.39-50.86,0-40,0-40h4s1.27,48.14,8.6,52.43c8.48,4.95,0-52.43,0-52.43Z"/><path class="cls-3" d="M199.16,899.15s-.52,24.77,4.23,34.68-1.94,14.61-8.38-3.47-2.66-32.44-2.66-32.44Z"/><path class="cls-3" d="M223.74,950.17s5.45,18.08,13.62,28.73,5.45,17.34-2.48,7.43-16.1-30-17.83-39.87S220,939.88,223.74,950.17Z"/><path class="cls-3" d="M219.28,1018s-31.7-56-26.75-57.84,7.34,13.05,12.46,16,5.62-2.58,14.29,12.83,13.62,25.56,27.74,34.72Z"/><path class="cls-3" d="M171,904.85s6.3,42.85,12.19,47.55,2.18-1.73-1.29-17.83a161.5,161.5,0,0,1-3.25-32Z"/><path class="cls-6" d="M200.05,989.64c8.17,9.16,24.35,24.35,47.13,27s31.21.5,38.48-.66,23.11-6.11,35-13.54,32.69-13.37,41.28-14.69"/></g><path class="cls-2" d="M415.26,880.54c.06-.12.19-.09.26,0,2.21,4.07-.27,12.88-.46,16.52-.3,5.82-5.37,9.68-4.83,5a114.91,114.91,0,0,1,3.13-16.41A39.08,39.08,0,0,1,415.26,880.54Z"/><path class="cls-4" d="M190.43,472.14c27.68-2.06,42,8.28,66.54,12.62,60.74,10.71,120.38-3.21,188.08,7.67,60.06,9.65,71-20.95,71-20.95s35.17,22.12,62.58,41.86c27.19,19.58,38.6,37.74,40.32,49.57,1.83,12.63-1,25.75-22.09,30.5-23.86,5.36-8.6,18.62,4.56,23.84,17,6.76,25.78,17.39,22,27.94s-33.73,5.77-49.75,3.73C557.1,646.82,563.3,636.14,533,631s-68.06-19.18-81.8-26.21-29.4-.63-43.78-.31-22.05-2.88-39.94-3.52c0,0-50.46-4.83-71.26-10.86-17.45-5.06-22.29-5.46-22.29-16.32l-57.5-17.61-93.49-63.74S154.91,475.44,190.43,472.14Z"/><path class="cls-7" d="M413.39,457.64s.87,35.34,24.14,42.14,34.68-24.36,34.68-24.36l-3.07-1.75s-4.77,11.14-14.05,16c0,0,9.22-14.93,11.63-26.78l-4-1.76s-5.46,19.41-14,28.1c0,0,7.73-18.43,8.56-34.24h-3.95s-2.62,22.45-10.53,33.14c0,0-1.32-27.22,1.75-36.21h-4.61s-3.06,12-2.06,36.85c0,0-8.3-16.55-8.67-35.82l-4.41.28s-.26,14.7,7.46,36.44c0,0-11.43-4-15.36-32.49Z"/><path class="cls-4" d="M157.23,864.11s-4.44,15.16-10.87,24.46c-7.49,10.83,5.43,20.38,19.7,19.7s28.53-3.39,45.51-5.43,38.73-5.36,57.07-10.11,29.89-1.44,82.88-18.43,62.5-5.43,86.28-17.66,33.25-30.39,79.76-40.89C556,807.06,573.83,768,568,740.65c-23.15-5-52.14-14.41-109.37,7.43-29.4,11.21-34.21,17.29-55.46,15.49-29.08-2.46-57.46,25.5-106,25.14-39.4-.3-31.05,9.51-64.1,12.9S168.1,839.66,157.23,864.11Z"/><path class="cls-4" d="M179.13,247.26c-3.33,1.06-11,4.46-6.93,12.13,4.71,8.75,34.22,12.7,44,20.11,8.54,6.48,20.55,13.22,29,13.57,6.93.28,36,.71,36,.71s20.11,2,36-4.75a215.82,215.82,0,0,0,27.93-14.24s8.66-5.31,14.24-13.13,30.16-18.43,50.55-19.55S488.64,241,488.64,241s33.79.55,46.92-3.36,31.83-.55,35.74-12.56-12.56-10.34-17-12-4.67-7.21-2.24-11.73.56-17-15.64-19.55c0,0-53-6.68-145.48,9.09-22.11,3.76-84.82,17.39-84.82,17.39s-8.23,10.2-35.83,9.56S209.79,237.45,179.13,247.26Z"/><path class="cls-2" d="M303,203.19c2.59,8.56,4.61,8.69,4.61,8.69,2.72.5,18.19.53,25.49.15,23-1.2,58.86-4,74.27-6.82s33.92,1,48-6.07c15.86-8,25.09-5.16,39.61-4.43,32.7,1.63,37.67-6.21,40.46-13l0-23.85-126,13.53S320.61,193.87,303,203.19Z"/><path class="cls-4" d="M506.35,144.25c8.63-.24,26.47.75,28.71,10,2.79,11.48-11.21,12.73-23.18,13.09s-31.28-.18-41.71,0c-3.69.06-13.53.63-14.18,4.1s5.42,3.69,5.42,7.58c0,3.1-1.73,6.5-11.27,7.59s-4.74,5.77-20.8,7.37c-15.78,1.56-61.16,6.85-74.61,8-11.18,1-36.32,5.19-48.17,3.7a4.8,4.8,0,0,1-3.58-2.47l-1.36-2.5a4.07,4.07,0,0,1,.83-5c4.18-3.76,12.3-9.23,21.77-13.26,11.7-5,32.74-11.27,44.88-12.78s21-3.13,38.35-11.71C438.43,142.69,492.36,144.63,506.35,144.25Z"/><line class="cls-6" x1="461.41" y1="178.99" x2="461.88" y2="196.34"/><path class="cls-8" d="M402,118.51s9.8,42.12,62.72,38C464.68,156.47,442.68,118.22,402,118.51Z"/><path class="cls-6" d="M402,118.51c11.69,12.22,42.23,35.94,62.72,38"/><path class="cls-7" d="M433.32,70.71s-8.07,73.51,31,85.34C464.35,156.05,475.49,109.35,433.32,70.71Z"/><path class="cls-6" d="M433.32,70.71s18.24,42.47,31,85.34"/><path class="cls-7" d="M514.32,113.38s-32.89,7.58-49.69,43.06C464.63,156.44,502.06,158.69,514.32,113.38Z"/><path class="cls-6" d="M464.63,156.44c32.74-15.62,49.69-43.06,49.69-43.06"/><path class="cls-8" d="M465.29,156.05C454,104.74,481.88,70.71,481.88,70.71S500.12,133.47,465.29,156.05Z"/><path class="cls-6" d="M481.88,70.71s-1.38,57.7-16.59,85.34"/><path class="cls-6" d="M545,48.7c-17,2.18-58.74,40.47-61.34,95.52"/><path class="cls-6" d="M519.35,64.83c6.37-5.6,21.32-9.17,33.18-3.8"/><path class="cls-6" d="M510.29,75c6-6,19.44-11.17,33.87-7"/><path class="cls-6" d="M503.07,84.89c5.66-6.31,18.8-12.22,33.43-8.8"/><path class="cls-6" d="M497.37,94.66c5.31-6.61,18.11-13.23,32.91-10.62"/><path class="cls-6" d="M492.85,104.21c4.85-6,16-12.1,29.18-11.09"/><ellipse class="cls-9" cx="342.46" cy="193.67" rx="10.58" ry="3.49"/><ellipse class="cls-9" cx="365.88" cy="191.92" rx="2.6" ry="1.75"/><ellipse class="cls-9" cx="321.92" cy="191.24" rx="3.33" ry="2.07" transform="translate(-12.78 23.37) rotate(-4.08)"/><path class="cls-10" d="M354.1,159c-9.24-.28-7.74-12.58-7.74-12.58S356.1,149.42,354.1,159Z"/><path class="cls-10" d="M367.31,149.23s-1.43,9.46,6.78,9.46C374.09,158.69,376,150.37,367.31,149.23Z"/><path class="cls-6" d="M374.09,158.69c5.44,12.75,17.71,19.25,17.71,19.25"/><path class="cls-6" d="M395,177.66c2.18-23.09-6.81-37.73-6.81-37.73"/><path class="cls-10" d="M383.44,127s-3.9,9.63,4.72,12.93C388.16,139.93,393.28,132.16,383.44,127Z"/><path class="cls-10" d="M389.71,110.65s-2.94,12.88,6.78,15.65C396.49,126.3,400.64,114.68,389.71,110.65Z"/><path class="cls-6" d="M396.49,126.3s12,13.63,10,48.14"/><path class="cls-6" d="M414.19,172.44s9.88-19.33,11.13-41.82"/><path class="cls-10" d="M425.21,130.6s-5.46-6.62,2.21-15.25C427.42,115.35,433.84,126.79,425.21,130.6Z"/><path class="cls-10" d="M436,140.82s-5.82-6.12,2.82-12.19C438.77,128.63,444.44,137.63,436,140.82Z"/><path class="cls-6" d="M436,140.82s.21,16.53-8.63,27.51"/><path class="cls-6" d="M497.37,53.56S480.5,75.37,480.5,144.61"/><path class="cls-6" d="M492.56,62.83A15.71,15.71,0,0,1,504.78,56"/><path class="cls-6" d="M489.12,72.52a26.81,26.81,0,0,1,21.17-11.84"/><path class="cls-6" d="M486.75,81.3a28.17,28.17,0,0,1,18-11.87"/><path class="cls-6" d="M484.81,90.61s5-7.61,12.56-9.31"/><path class="cls-9" d="M510.68,150.4c-1.63.58-3,2.41-1.3,4.3,1.93,2.12,7,2.61,11.29.61,3.38-1.55,3.51-3.66,1.85-4.59C520.67,149.7,514.85,148.9,510.68,150.4Z"/><ellipse class="cls-9" cx="498.53" cy="158.95" rx="3.54" ry="1.79" transform="translate(-10.44 37.5) rotate(-4.26)"/><path class="cls-2" d="M220.37,244.85c.95,1.78,7.4,7.51,25.15,1,13.83-5.11,15.11-.1,31-2.24,7.92-1.07,13.4-5.45,13.47-9.77,0-1.81,0-7.11,0-7.11l-5.37-4.94-.12-11-64.7,22.74S219,242.35,220.37,244.85Z"/><path class="cls-9" d="M513.6,203.89s-5,3.08,0,4.5,15.55,1.09,21.82-1.42c3.52-1.41,6.16-4.42,3.65-6.05C534.49,197.93,519.05,200.1,513.6,203.89Z"/><path class="cls-9" d="M490.64,218.49c-1.76.75-1.42,2.48.29,3a10.07,10.07,0,0,0,7.36-.6c2.41-1.3,2.41-3.17,0-3.6A13.9,13.9,0,0,0,490.64,218.49Z"/><path class="cls-2" d="M259.09,533.29s1.72,16.39-3.35,25.23c-1.21,2.12-3,3.72-9,3.79s-41.5-10.5-41.89-10.67,6.36-15.24,6.36-15.24Z"/><path class="cls-4" d="M221.26,236.08c2.83,3,14.05,2,21.42-.29,14.45-4.45,17.52-.3,34.74-2.68s12.77-8.61,9.8-10.39-9.21-1.23-8-5.07,6.71-4.92,5.05-8.29c-1.87-3.8-37.43,2.65-55.77,14.21C220.85,228.37,217.83,232.48,221.26,236.08Z"/><path class="cls-7" d="M239.13,389.74s-23.5,14.58-9.18,43.47C230,433.21,255,414.33,239.13,389.74Z"/><path class="cls-2" d="M174.17,351.35c1,4.34-3.07,8.47-7.56,9.83S161,371.7,153.67,372.39c-5.4.51-10.62-3.74-12.9-11.14-1.55-5,.61-14.94,6.34-15.55,4.53-.49,5.75,3.7,14,1.33C168.56,344.88,173.34,347.76,174.17,351.35Z"/><path class="cls-6" d="M149.12,354.37c-.17.35-2.63,5.66,1.81,8.15"/><path class="cls-6" d="M148.86,363.28s-2-1.34-3.63,1.33"/><path class="cls-6" d="M146,355.51a1.53,1.53,0,0,1-2.07.76"/><path class="cls-6" d="M143.44,357.33a2.5,2.5,0,0,1,.27,3.13"/><path class="cls-2" d="M166.35,362.81c4.58,2.18,3.79,6.56,2,11.31-1.7,4.43,2.29,9.73-3.56,13.86-5.15,3.63-13.34.67-18.08-4.71-3.92-4.46-1.44-11.49,3.05-13.67,3.24-1.57,6.11-.12,9.51-4.55C161.49,362.11,163.86,361.63,166.35,362.81Z"/><path class="cls-6" d="M152.68,377.92a2.23,2.23,0,0,1-1.51,3.17"/><path class="cls-6" d="M155.16,380s.39,1.92,3,1.86"/><path class="cls-6" d="M152.08,382.82s2.45.3,2.83,2.21"/><path class="cls-6" d="M156.66,385s.32-1.58,1.54-1.43"/><path class="cls-7" d="M174.17,392.82s6.22,20.09,21.06,15C195.23,407.83,195.16,392.06,174.17,392.82Z"/><path class="cls-7" d="M200.17,411.69s-10.44-10.95-24.56-1.57C175.61,410.12,189.12,426.21,200.17,411.69Z"/><path class="cls-7" d="M199.81,412.44s-16.07-4.89-23.18,12C176.63,424.41,193.16,433.19,199.81,412.44Z"/><path class="cls-7" d="M171.06,392.55s11.63-19.54,31.19-7.47C202.25,385.08,195.17,405.63,171.06,392.55Z"/><path class="cls-2" d="M190.61,388.61c4.28-4.58,9.27-.91,13.81.34,4.8,1.32,14.18,1.8,15,7.6.81,5.58-2.95,9.86-7.88,8.38-4.06-1.22-6.32.5-6.91,4.51a6.21,6.21,0,0,1-8.47,5.06c-3.74-1.38-5.76-5-5.48-9.89S185.26,394.32,190.61,388.61Z"/><path class="cls-6" d="M192.69,394.56a3.52,3.52,0,0,0,3.72-1.3"/><path class="cls-6" d="M194.94,404.79a2.66,2.66,0,0,1,2.8-2.48"/><path class="cls-6" d="M197.71,397s-.62,2.06,1.09,2.63"/><path class="cls-6" d="M192.94,398.14a2,2,0,0,1,.78,2.23"/><path class="cls-7" d="M141.91,418.93s-11.71,6.39-4.6,18.51C137.31,437.44,148,430.11,141.91,418.93Z"/><path class="cls-7" d="M101.81,398.94s18.63-7.24,29.17,9.27C131,408.21,114.88,420.79,101.81,398.94Z"/><path class="cls-2" d="M118.75,403.37c3.33-5.79,8.74-1.92,14.74-.81,6.23,1.15,8.2-2.62,11.76-.06,4.5,3.25-1.48,8.5-2.39,12.34-1.3,5.47-4,13.17-10.48,12-6-1.11-5.18-4.64-8.46-10.55S116.21,407.81,118.75,403.37Z"/><path class="cls-6" d="M128.86,408.62s-.81,3.53-4.16,2.36"/><path class="cls-6" d="M130.86,411.74s-.81,3.53,2.19,4.52"/><path class="cls-6" d="M126.17,414.29s2.48,1.18,2.87,3.1"/><path class="cls-6" d="M130.28,418.42a2.64,2.64,0,0,1,3.33-.59"/><path class="cls-7" d="M109.54,393.89s5-16.21,21.21-15.72C130.75,378.17,124,397.69,109.54,393.89Z"/><path class="cls-7" d="M117.3,402.16c-.59,0,4.67-22.21,23.83-23.42C141.13,378.74,139.75,400.42,117.3,402.16Z"/><path class="cls-2" d="M122.57,350.6c4.41-.92,8.5,3.28,9.77,7.86s10.5,5.9,11,13.33c.4,5.46-4,10.65-11.55,12.79-5.1,1.45-15.08-.95-15.58-6.76-.39-4.58,3.88-5.73,1.66-14.13C115.91,356.12,118.93,351.36,122.57,350.6Z"/><path class="cls-6" d="M125.06,376c.36.17,5.67,2.78,8.28-1.65"/><path class="cls-6" d="M134.06,376.45s-1.39,1.95,1.27,3.69"/><path class="cls-6" d="M126.15,379.16a1.55,1.55,0,0,1,.72,2.11"/><path class="cls-6" d="M127.93,381.79a2.52,2.52,0,0,1,3.17-.2"/><path class="cls-7" d="M195.24,376s-6.86-24.52-23.94-16.74C171.3,359.23,169.83,375,195.24,376Z"/><path class="cls-7" d="M114.58,356.71s-7.51-18.58-31.26-12.88C83.32,343.83,94.84,365.26,114.58,356.71Z"/><path class="cls-7" d="M78.24,362.42s11.77-16,33-2.69C111.26,359.73,99.77,380,78.24,362.42Z"/><path class="cls-7" d="M103.39,361.77S84.48,367.69,94.15,387C94.15,387,112.35,378.72,103.39,361.77Z"/><path class="cls-10" d="M243.32,399.78s-8.57,8.35-17.13,8-8.28-5.79-5.82-12.89,7-23.37.34-29.74-9.71-2.78-8.67,2.77c0,0,6.81,15.66-16.11,50.3-12.59,19-22.66,32.67-29.56,41.55-3.48-11.73-5.77-26.73-1.84-41.31,5.63-20.84,13.51-40.95,10.53-59.85-.38-2.44-1.48-9.44-5.18-8.44s-2.83,6.93-5.12,13.66-.76,15.63-1.22,22.88c-.43,6.7-.31,15.46-5.93,14.89-6.15-.63-5.58-9.55-9.84-23.31-4.36-14.06-16.45-33.12-21.79-30.6-1.91.9-3.08,3.59-.6,7.07,5.75,8.06,13.54,26.47,14.5,47.84,1.39,30.78,8.82,66.09,26.65,82a4.79,4.79,0,0,0,7.48-5.73c-.93-1.8-2.2-4.43-3.56-7.69,7.53-6.12,19.17-16.46,28.7-30.76,6.29-9.43,11.71-18.81,21.69-21.42s17-5.72,24.43-14.6Z"/><path class="cls-7" d="M241.37,390.26S227.46,414.15,252,427.05C252,427.05,258.7,402.75,241.37,390.26Z"/><path class="cls-7" d="M235.11,383.69c2.79-18.45,26.6-17.25,26.6-17.25S253.06,389.47,235.11,383.69Z"/><path class="cls-7" d="M271.49,394.7s-23.24,12.5-33.92-7.48C237.57,387.22,249.52,373.2,271.49,394.7Z"/><path class="cls-7" d="M242.34,345.27s-21.8,7.64-20.12,26.11C222.22,371.38,238.21,371.36,242.34,345.27Z"/><path class="cls-7" d="M210.68,340.79s-12.5,23.46,13.81,33.31C224.49,374.1,230.42,352.32,210.68,340.79Z"/><path class="cls-7" d="M115.53,312.08s-14,23.69,8.2,35.84C123.73,347.92,138.17,329.29,115.53,312.08Z"/><path class="cls-7" d="M143.63,323.61s-25.89,6.08-19.37,26.21C124.26,349.82,142.89,352.24,143.63,323.61Z"/><path class="cls-2" d="M225.84,367.2c4.07-.9,7.9,2.94,9.12,7.16s9.78,5.34,10.36,12.2c.42,5.05-3.6,9.9-10.54,12-4.7,1.4-14-.72-14.48-6.08-.41-4.24,3.52-5.34,1.38-13.08C219.74,372.38,222.48,367.94,225.84,367.2Z"/><path class="cls-6" d="M228.43,390.65c.33.15,5.27,2.51,7.63-1.62"/><path class="cls-6" d="M236.76,391s-1.27,1.82,1.2,3.41"/><path class="cls-6" d="M229.46,393.56a1.43,1.43,0,0,1,.69,1.95"/><path class="cls-6" d="M231.14,396a2.35,2.35,0,0,1,2.93-.22"/><path class="cls-2" d="M217.58,364.29c3.15,3.56-1.26,6.86-3.08,10.76s-1.48,15.3-11.2,15.07-6.23-11.57-10.42-13.59-5.57-9.4-.12-13c4.24-2.77,8,2.07,14,.19S214.68,361,217.58,364.29Z"/><path class="cls-6" d="M200,369.85s.45,2.46-1.81,2.63"/><path class="cls-6" d="M202.06,372.53A3.47,3.47,0,0,0,204,376"/><path class="cls-6" d="M204,379a2.86,2.86,0,0,0-2.86,1"/><path class="cls-6" d="M197,375.51a3.45,3.45,0,0,1,1.83,3"/><path class="cls-7" d="M128.42,351.9s8.32-9.95,26.15-1C154.57,350.89,140.68,362.69,128.42,351.9Z"/><path class="cls-2" d="M105.94,332.14c6.16-3.37,10.18,2.28,14.56,5.19,4.65,3.08,12.95,4,11.85,10.87-1.19,7.52-7.42,8.26-11.52,5.87s-7.85-2.4-9.86,1.65-6.39,6-10.13,3.68c-3-1.88-2.39-5.07-.38-10.22S98.27,336.35,105.94,332.14Z"/><path class="cls-6" d="M106.08,339.19a3.93,3.93,0,0,0,4.41-.08"/><path class="cls-6" d="M104.9,350.85a3,3,0,0,1,3.85-1.66"/><path class="cls-6" d="M110.58,343.51s-1.38,2,.23,3.17"/><path class="cls-6" d="M105.1,343.09a2.18,2.18,0,0,1,.05,2.65"/><path class="cls-2" d="M112.57,352.94c7.58-6.22,14.65,1.31,12.83,7.35s-4.46,9.81-3.35,14.52-3,9.54-8.81,7.95c-12.24-3.31-20.5-11.93-16.94-18.94C99.64,357.25,101.59,361.94,112.57,352.94Z"/><path class="cls-6" d="M105.27,368.3a4.74,4.74,0,0,1-1.79,3.75"/><path class="cls-6" d="M107.83,369.94a2.78,2.78,0,0,0,2.93,2.64"/><path class="cls-6" d="M104,374.41s2.36-.56,3.07,1.46"/><path class="cls-6" d="M109.31,376.5s.48-1.87,2.17-1.9"/><path class="cls-7" d="M162.71,349.25s5,16.62,23.38,7.9C186.09,357.15,179.12,342.79,162.71,349.25Z"/><path class="cls-7" d="M179.28,342.69s-6.39,14.08-26.43,5.14C152.85,347.83,163.53,331,179.28,342.69Z"/><path class="cls-7" d="M188,319.4s-21.85,13.06-9.86,27.5C178.09,346.9,193.64,344.18,188,319.4Z"/><path class="cls-2" d="M175,339.91c3.43-5,7.53,2.09,12.61.28,4.76-1.69,12.6-.6,15.42,7.34,3.57,10.06-6.68,22.35-16,17C178,359.38,170.66,346.21,175,339.91Z"/><path class="cls-6" d="M195.4,349.63a3.15,3.15,0,0,0,4.66,2.22"/><path class="cls-6" d="M191.55,352.19a3.74,3.74,0,0,1-1.88,3.94"/><path class="cls-6" d="M191.31,358.23a2,2,0,0,1,2.34,1.55"/><path class="cls-6" d="M198,354.37s-2.63,1.83-2,4.3"/><ellipse class="cls-9" cx="294.54" cy="282.35" rx="8.39" ry="2.88"/><ellipse class="cls-9" cx="314.75" cy="278.57" rx="3.57" ry="2.09" transform="translate(-70.84 111.27) rotate(-18.06)"/><ellipse class="cls-9" cx="387.93" cy="218.84" rx="7.38" ry="2.65"/><ellipse class="cls-9" cx="405.81" cy="216.58" rx="5.01" ry="1.41"/><ellipse class="cls-9" cx="473.22" cy="231.69" rx="4.61" ry="2.19"/><path class="cls-9" d="M514.27,222.46c-1.72.47-8.88,2.86-6.62,7,2.37,4.38,20.07-.2,33.24,0s17.41-1.84,15.05-5.13S529.92,218.25,514.27,222.46Z"/><path class="cls-2" d="M492.59,310.16s5,16.86,3.79,33c-1.07,14.65-3.79,27.18,3.63,30.3,8.49,3.58,13.51-3,24.17-6.06s15.33.61,25.46-10.31,22.75-6.67,32.94-33.48Z"/><path class="cls-6" d="M641.07,348.77c-24.3,18.85-80.15,74.85-98.57,149.12"/><path class="cls-6" d="M625.5,362.19a49.31,49.31,0,0,1,25.24-5.4"/><path class="cls-6" d="M615,372.67s14.74-10.48,42.86-9.08"/><path class="cls-6" d="M602.74,386.16s23.32-11.62,50.36-9.48"/><path class="cls-6" d="M590.9,400.81s19.7-12.45,50-12.45"/><path class="cls-6" d="M579.53,416.71s14-11.27,50.39-13"/><path class="cls-6" d="M570.23,431.53s16.55-9.44,35.65-10.79"/><path class="cls-6" d="M563.31,443.87s8.44-7.09,26.47-9.88"/><path class="cls-6" d="M558.79,452.91s10.17-5.4,18.76-6.68"/><path class="cls-2" d="M476.08,393.73s-3.52,11.4-14.64,14.85-22.05-.39-34.7,1.53-12.85,4.22-20.71,4.41-11.71-3.92-17.23-8.37c-7.52-6.07-6.8-15.69-8.32-23.16l42.42-4.7Z"/><path class="cls-7" d="M156.38,226.4s13.76,25.39,48.31,25.64c24.88.17,37.57-20.88,44.13-38.13l-5.1-3.33s-8.39,25.17-23.19,30.78c0,0,18.16-19.36,22.52-51.93L237.83,187s-5,31.61-22.29,49c0,0,10.88-20.62,10.7-57.72h-6.07s-1.07,36.42-9.63,55.4c0,0,3.39-35.42-4.1-55.4L200,179.9s6.42,15.9,3.39,53.79c0,0-5.79-34.68-18.55-55.4L179.47,181s15.44,29.81,15.73,52.74c0,0-15-15.8-21.58-45.59l-5.71,3.75s3.21,25,21.4,45c0,0-20.33-13.2-27.11-28.72l-3.92,4.1s6.79,16.18,26.05,29.18a51.38,51.38,0,0,1-24.27-19Z"/><path class="cls-10" d="M129.53,578.93s-1.73,12.08,7.39,12.5C136.92,591.43,140.71,582.91,129.53,578.93Z"/><path class="cls-6" d="M136.92,591.43s13.64,21.21,38.07,27.84"/><path class="cls-10" d="M123.77,600.18s1.1,9,9.74,7.07C133.51,607.25,132.78,599,123.77,600.18Z"/><path class="cls-6" d="M133.51,607.29s12.13,4.48,18.7.26"/><path class="cls-10" d="M171.2,556s-4.92,11.93,4.93,15.72C176.13,571.73,182,565.29,171.2,556Z"/><path class="cls-6" d="M176.13,571.73s10.61,18.16,12.69,37.4"/><path class="cls-10" d="M195.64,566.43s-8.34,7.76-2.27,14.39C193.37,580.82,200.25,578.18,195.64,566.43Z"/><path class="cls-6" d="M193.37,580.82s-.54,9.78-8.23,11.71"/><path class="cls-10" d="M158.43,577.72s.27,10.68,8.42,10.3C166.85,588,169.52,579.54,158.43,577.72Z"/><path class="cls-6" d="M166.85,588s10.41,10,13.63,22"/><ellipse class="cls-9" cx="584.74" cy="538.8" rx="3.07" ry="5.69" transform="translate(-116.54 913.53) rotate(-70.78)"/><ellipse class="cls-9" cx="588.68" cy="567.42" rx="1.95" ry="3.72" transform="translate(-169.11 874.45) rotate(-66)"/><ellipse class="cls-9" cx="597.62" cy="558.3" rx="4.39" ry="12.19" transform="translate(-184.69 796.71) rotate(-60)"/><path class="cls-10" d="M215.85,517c9.29,7.92,28.15,11.6,45.11,10.15v-3.9s-11.77,1.55-21.93-3.4c0,0,17.24-5.72,30.53-2.85v-4.43a58.75,58.75,0,0,0-29.91,1.85s8.72-8.72,26.18-12.69l-2.19-4.36s-15.73,2.47-31.13,15.26a72.41,72.41,0,0,1,30.32-29.51L259.37,480s-16.75,8-31.42,27.08a61,61,0,0,1,20.62-29.95l-4.16-3s-13,9.36-22.66,31.15c0,0-2.84-15.43,2.43-26.59l-4.72,1s-4.8,10.9-2.29,29.13a32.24,32.24,0,0,1-14-22.4l-3,1.79S199.16,502.75,215.85,517Z"/><path class="cls-8" d="M132.65,452.93s2.26,42,30.83,48.9C163.48,501.83,166.85,467.89,132.65,452.93Z"/><path class="cls-6" d="M132.65,452.93s14.76,16.78,30.83,48.9"/><path class="cls-7" d="M171.12,431.06s-29.7,44.15,0,82.72C171.12,513.78,200.94,481,171.12,431.06Z"/><path class="cls-6" d="M171.12,431.06s1.44,54.38,0,82.72"/><path class="cls-8" d="M199,440.73s16.6,53.81-20.5,75.09C178.48,515.82,166.92,467.49,199,440.73Z"/><path class="cls-6" d="M178.48,515.82c3.91-39.43,20.5-75.09,20.5-75.09"/><path class="cls-7" d="M228.32,472.33s-6.49,50.59-46.68,43.79C181.64,516.12,190,480.87,228.32,472.33Z"/><path class="cls-6" d="M181.64,516.12c28.74-11.86,46.68-43.79,46.68-43.79"/><path class="cls-6" d="M110.9,632.11c33,35.19,71.58,93.44,86.7,183.44"/><path class="cls-6" d="M102.94,650.34s15-4.06,27.36,4.63"/><path class="cls-6" d="M97.79,663.12s28.27-6,45.2,9.62"/><path class="cls-6" d="M100.6,677.56s31.81-6.8,50.71,8.4"/><path class="cls-6" d="M105.5,693.89s34.66-10.87,53.31,5.32"/><path class="cls-6" d="M112.74,707s36.85-9.61,52,3.72"/><path class="cls-6" d="M123,719.28s31.26-7.07,47.94,5"/><path class="cls-6" d="M135.4,734.33s30.64-4.67,43.37,9.45"/><path class="cls-6" d="M108.18,639.43a14.47,14.47,0,0,1,12.21,3.3"/><path class="cls-6" d="M88.54,721.81s66.82,22.84,98.66,101.87"/><path class="cls-6" d="M85.36,727.77s8.5-2.22,15.53-.44"/><path class="cls-6" d="M84.47,735.74s13.83-4.78,27.66-2.27"/><path class="cls-6" d="M85.36,745.48s18.53-8,38.66-3.8"/><path class="cls-6" d="M87.66,757.7s25.82-11.1,48.94-5.9"/><path class="cls-6" d="M88.54,768.32s27.18-14,58.38-6.74"/><path class="cls-6" d="M100.89,777.18s26.81-13.17,53.36-7.65"/><path class="cls-6" d="M120.77,783.55c1.06-.35,21.39-10.92,39-7.32"/><path class="cls-6" d="M139.36,785.5c.71,0,14-6.55,25.94-2"/><path class="cls-6" d="M668,609.67c-24.59,6.13-100.07,67.49-109.79,135"/><path class="cls-6" d="M676,618.88s-18.86-2.69-30.08,2.17"/><path class="cls-6" d="M673.21,628.36s-24.63-3.63-43.08,4.6"/><path class="cls-6" d="M673.21,637.67s-37.33-4.6-58.7,9.41"/><path class="cls-6" d="M669.75,649.91s-44.1-5.12-67.28,9.81"/><path class="cls-6" d="M659.64,660.81s-44.56-3.44-70,14.55"/><path class="cls-6" d="M643.86,674.11s-40.46-3.81-63.42,14.59"/><path class="cls-6" d="M616.54,686.62s-29.72,1.23-42.39,12.72"/><path class="cls-6" d="M585.68,701.78a28.22,28.22,0,0,0-16,6.36"/><path class="cls-6" d="M575.65,642c-12,9.77-46.75,50.07-43.12,100.13"/><path class="cls-6" d="M582.69,648.09s-11.31-2.09-15.58,2.28"/><path class="cls-6" d="M581.22,654.39s-16.36-2.39-21.79,5.33"/><path class="cls-6" d="M585.5,660.55s-21.65-2.87-31.54,7"/><path class="cls-6" d="M579.64,669.1s-20.15-2-31.2,7.5"/><path class="cls-6" d="M566.75,677.16s-14.4-.36-23,8.64"/><path class="cls-6" d="M540.63,693c.23-.59,13.39-9.53,23.41-7.7"/><path class="cls-6" d="M537.49,701.78s10.69-9.71,24.23-8.8"/><path class="cls-2" d="M141.44,729.2s8.32,18.11,24.64,24.22c14.42,5.4,12.51,9.81,27.75,11.62,17,2,45.14-5.87,73.94-5.49s36.86-3.79,45.09-10.23c13.64-10.67,25.28-11,35.85-20.21,7.27-6.34,10.11-15.5,11-20.47Z"/><path class="cls-4" d="M141,728c.85,4.61,7.28,6.74,17.69,7.1,15.08.51,34.43.51,44.27,4.45s29.18,7.86,54.42,2.62,57.42-14.11,82.28-19c17-3.35,25-14.09,16.74-21.63s-36.08-8.85-58-6.56-48.52,1-61.31,3-29.83,1-39.66,1.31-21.64.66-30.16,5.58-16.92,5.94-21.42,13.44C142.69,723.44,140.24,723.61,141,728Z"/><ellipse class="cls-9" cx="154.15" cy="727.61" rx="4.16" ry="1.83"/><ellipse class="cls-9" cx="181.3" cy="728.01" rx="8.32" ry="3.25"/><ellipse class="cls-9" cx="202.34" cy="732.81" rx="1.82" ry="4.02" transform="translate(-547.36 858.89) rotate(-84.11)"/><path class="cls-8" d="M194.12,647.69S191.93,638,196.2,635c3.86,3,2.19,12.7,2.19,12.7Z"/><path class="cls-8" d="M200.35,650.73c1.06-4.81,3.63-7.38,1.14-8.75-2.22-1.23-5.12,3.62-5.34,4.26-.21-.64-3.11-5.49-5.33-4.26-2.49,1.37.07,3.94,1.13,8.75,1.21,5.46,5.63,33.94,2.64,39.71h3.09C194.69,684.67,199.15,656.19,200.35,650.73Z"/><path class="cls-8" d="M200.13,657.36c1.1-5,4.13-7.64,1.55-9.06-2.3-1.28-5.3,3.75-5.53,4.42-.22-.67-3.22-5.7-5.52-4.42-2.58,1.42.45,4.08,1.55,9.06,1.24,5.66.67,53.65.67,53.65h6.61S198.89,663,200.13,657.36Z"/><path class="cls-8" d="M217.44,647.69s-2.19-9.66,2.08-12.7c3.86,3,2.2,12.7,2.2,12.7Z"/><path class="cls-8" d="M223.68,650.73c1.06-4.81,3.62-7.38,1.13-8.75-2.22-1.23-5.12,3.62-5.33,4.26-.22-.64-3.12-5.49-5.34-4.26-2.49,1.37.08,3.94,1.14,8.75,1.2,5.46,5.63,33.94,2.64,39.71H221C218,684.67,222.47,656.19,223.68,650.73Z"/><path class="cls-8" d="M223.46,657.36c1.09-5,4.12-7.64,1.54-9.06-2.3-1.28-5.3,3.75-5.52,4.42-.22-.67-3.23-5.7-5.53-4.42-2.57,1.42.45,4.08,1.55,9.06,1.25,5.66.67,53.65.67,53.65h6.61S222.21,663,223.46,657.36Z"/><path class="cls-8" d="M240.76,647.69s-2.18-9.66,2.09-12.7c3.86,3,2.19,12.7,2.19,12.7Z"/><path class="cls-8" d="M247,650.73c1.06-4.81,3.62-7.38,1.14-8.75-2.23-1.23-5.13,3.62-5.34,4.26-.21-.64-3.11-5.49-5.34-4.26-2.48,1.37.08,3.94,1.14,8.75,1.2,5.46,5.63,33.94,2.64,39.71h3.09C241.34,684.67,245.8,656.19,247,650.73Z"/><path class="cls-8" d="M246.78,657.36c1.1-5,4.12-7.64,1.55-9.06-2.31-1.28-5.31,3.75-5.53,4.42-.22-.67-3.22-5.7-5.53-4.42-2.57,1.42.45,4.08,1.55,9.06,1.25,5.66.67,53.65.67,53.65h6.62S245.53,663,246.78,657.36Z"/><path class="cls-8" d="M264.09,647.69S261.9,638,266.17,635c3.86,3,2.19,12.7,2.19,12.7Z"/><path class="cls-8" d="M270.32,650.73c1.06-4.81,3.63-7.38,1.14-8.75-2.22-1.23-5.12,3.62-5.34,4.26-.21-.64-3.11-5.49-5.33-4.26-2.49,1.37.07,3.94,1.13,8.75,1.21,5.46,5.63,33.94,2.64,39.71h3.09C264.66,684.67,269.12,656.19,270.32,650.73Z"/><path class="cls-8" d="M270.1,657.36c1.1-5,4.12-7.64,1.55-9.06-2.3-1.28-5.31,3.75-5.53,4.42-.22-.67-3.22-5.7-5.52-4.42-2.58,1.42.45,4.08,1.54,9.06,1.25,5.66.68,53.65.68,53.65h6.61S268.85,663,270.1,657.36Z"/><ellipse class="cls-9" cx="272.05" cy="227.43" rx="7.97" ry="3.41" transform="translate(-15.48 19.92) rotate(-4.08)"/><ellipse class="cls-9" cx="272.83" cy="213.83" rx="2.44" ry="1.64" transform="translate(-14.51 19.94) rotate(-4.08)"/><path class="cls-4" d="M498.16,315.33c3.39.82,7.48.44,12.61,7.82,9.14,13.13,37.53,9,59,5.73,16.64-2.55,15.38-9.47,9.61-11.51s-13.6-5.44-18.7-12.24-21.07-8.15-30.58-4.42-24.1,2.38-30.89,3.74S488.94,313.09,498.16,315.33Z"/><path class="cls-10" d="M527.32,276.52s-5.32,8.34.85,11.07C528.17,287.59,533.13,284.4,527.32,276.52Z"/><path class="cls-10" d="M510.14,288.31s-4.29,6.38.84,9.46C511,297.77,515.82,294,510.14,288.31Z"/><path class="cls-10" d="M543.15,282.05s-7.09,1.92-5.22,7.65C537.93,289.7,543.45,290.17,543.15,282.05Z"/><path class="cls-6" d="M528.17,287.59s3.34,12.94-1.31,26"/><path class="cls-6" d="M537.93,289.7s-3.07,5.53-8.6,7.15"/><path class="cls-6" d="M511,297.77s0,9.3,5.29,16.8"/><ellipse class="cls-9" cx="544.4" cy="310.76" rx="4.11" ry="2.84"/><ellipse class="cls-9" cx="554.09" cy="323.82" rx="2.26" ry="3.9" transform="translate(61.5 735.2) rotate(-70.17)"/><path class="cls-9" d="M556,316.4c.21-1.52,2.88-3.24,9.18-1.83s9.14,4.57,6.69,6.49S555.6,319.59,556,316.4Z"/><path class="cls-4" d="M380.8,384c-1.78-4.67.42-8.21,4.7-9.46,6.61-1.93,7.74-2.79,13.6-4.89,9-3.23,28-5.33,38.58,0,11.09,5.65,10.4,11.25,25.36,14,11.59,2.1,13.78,7.35,13,10.1S471.12,398,464,398s-19.47-.55-27-.92-11.95-.18-17.64-3.49-17.19-3.65-23.81-4S382.37,388.11,380.8,384Z"/><path class="cls-10" d="M380.18,352.86s.15,9.88,8.3,8.78C388.48,361.64,390.37,353.49,380.18,352.86Z"/><path class="cls-6" d="M388.48,361.64s5.49,6.9,6.59,18.81"/><path class="cls-10" d="M388.48,324.46s-3,10.32,5.17,12.58C393.65,337,397.25,329.42,388.48,324.46Z"/><path class="cls-6" d="M393.65,337s12.54,22.25,11.76,39.8"/><path class="cls-10" d="M385.51,342.33s-.79,9,6.26,9C391.77,351.3,393.81,345.44,385.51,342.33Z"/><path class="cls-6" d="M391.77,351.3s3.57,7.6,11,7.48"/><path class="cls-10" d="M406.1,307.63s-5.68,9.23,1,12.78C407.09,320.41,411.92,315.3,406.1,307.63Z"/><path class="cls-6" d="M407.09,320.41c0,1.71,4.83,13.9,5,56.43"/><path class="cls-10" d="M427,318.46s-6.38,6.56-1.34,11.6C425.7,330.06,431.75,326.53,427,318.46Z"/><path class="cls-6" d="M425.7,330.06s-6.05,24.85-5.38,48.23"/><path class="cls-10" d="M435.76,332s-6.93,2.14-4.72,7.91C431,339.9,436.22,340.35,435.76,332Z"/><path class="cls-6" d="M431,339.9s-2.59,6.18-8.5,6.92"/><path class="cls-10" d="M452.39,339s-10.51,3.43-6.56,10.83C445.83,349.85,453,350.74,452.39,339Z"/><path class="cls-6" d="M445.83,349.85s-12.65,10.71-17.61,26"/><ellipse class="cls-9" cx="440.91" cy="382.55" rx="3.88" ry="2.1"/><ellipse class="cls-9" cx="460.83" cy="389.87" rx="8.75" ry="3.11"/><path class="cls-6" d="M354.1,159s11.26,18.94,30.4,20.53"/><path class="cls-10" d="M251.88,188.49s-3.14,11.39,4.91,13.35C256.79,201.84,261.54,194.37,251.88,188.49Z"/><path class="cls-10" d="M306.08,215.18s-10.92,3.4-7.55,12.25C298.53,227.43,306.43,227.43,306.08,215.18Z"/><path class="cls-6" d="M298.53,227.43s-10.16,18-11.68,45.77"/><path class="cls-10" d="M332,217.25s-11.5,1.19-9.85,11.24C322.16,228.49,329.34,231.41,332,217.25Z"/><path class="cls-6" d="M322.16,228.49s-16,13.67-21.31,43.05"/><path class="cls-6" d="M256.79,201.84s23,39.66,20.51,73.92"/><path class="cls-10" d="M252.62,218.58s-4.28,9,3.11,11.23C255.73,229.81,259.82,224,252.62,218.58Z"/><path class="cls-6" d="M255.73,229.81s2.51,24.67,21.76,33.23"/><path class="cls-10" d="M239.87,250.09s2.3,8.32,10.89,8.06C250.76,258.15,251.73,250,239.87,250.09Z"/><path class="cls-6" d="M250.76,258.15s14.27,7.43,20,20.42"/><path class="cls-10" d="M245.19,262.3s-.89,9.24,7,10C252.18,272.29,253.9,263.73,245.19,262.3Z"/><path class="cls-6" d="M252.18,272.29s3.07,3.14,4.61,9.85"/><path class="cls-10" d="M304.34,238.8s-7,2.39-5.81,9.16C298.53,248,304.46,248.21,304.34,238.8Z"/><path class="cls-6" d="M298.53,248a17,17,0,0,1-9,5.36"/><path class="cls-10" d="M327.86,230.63s-6.77,4-2.95,9.61C324.91,240.24,330.15,238.71,327.86,230.63Z"/><path class="cls-10" d="M341.7,233.29s.46-8.66,12.58-5.86C354.28,227.43,349.59,236.52,341.7,233.29Z"/><path class="cls-6" d="M341.7,233.29s-21.16,7.5-26.95,33.59"/><path class="cls-6" d="M324.91,240.24s-.85,3.9,0,5.62"/><path class="cls-6" d="M627.18,330.62c-52.91,12-109.84,87.16-132.51,160.09"/><path class="cls-6" d="M632.68,343.06s-19.84-4.85-34.56,0"/><path class="cls-6" d="M627.18,351.59s-29.06-5-41.88.42"/><path class="cls-6" d="M620,362s-31.56-7.41-48.07,1.52"/><path class="cls-6" d="M609.52,371.6s-33.28-8.1-48.6,3"/><path class="cls-6" d="M593.39,384.15s-26.07-7-43.41,3.18"/><path class="cls-6" d="M520.5,431.13s12.31-6.05,23-4.56"/><path class="cls-6" d="M526.64,420.61s14.68-7.43,29.37-4.18"/><path class="cls-6" d="M533,410.66s10.66-9.43,35.95-5.24"/><path class="cls-6" d="M540.38,399.89s12.55-9.65,39.46-5.76"/><path class="cls-9" d="M391.68,589.59c-.94,1.94,5.55,7.09,14.6,6.48s4.78-4.11,1.23-5.65C402.59,588.27,392.61,587.69,391.68,589.59Z"/><ellipse class="cls-9" cx="375.32" cy="589.08" rx="1.82" ry="4.34" transform="translate(-276.07 841.2) rotate(-78.66)"/><path class="cls-4" d="M118.51,495.47c-4.84,7.55-5,23.84,29.54,39s86.19,34.76,106.38,40.38,21-1.94,14-5.05-40.24-13.68-49.31-18.64c-9.55-5.22-6.21-9.42,4.66-9s35.33,4,35.33-8.83-36.49-19.41-50.86-22.91c-14.16-3.44-26.39-9.6-43.38-17.08C151.85,487.58,125.3,484.86,118.51,495.47Z"/><path class="cls-10" d="M171.07,506.28s-.89,10.72,8,10.94C179.06,517.22,181.06,509.11,171.07,506.28Z"/><path class="cls-10" d="M173.2,478.36s-3.54,10.41,4.85,12.88C178.05,491.24,182.66,483.69,173.2,478.36Z"/><path class="cls-6" d="M178.05,491.24s8.24,14.44,8.29,40"/><path class="cls-6" d="M179.06,517.22a98.2,98.2,0,0,1,7.15,8.65"/><path class="cls-10" d="M208.12,492.57s3,12.18-5.6,13.71C202.52,506.28,198.41,498.24,208.12,492.57Z"/><path class="cls-6" d="M202.52,506.28a100.19,100.19,0,0,0-8.22,33.34"/><path class="cls-10" d="M220.22,515.94s0,8.24-7.84,8.24C212.38,524.18,212,515.94,220.22,515.94Z"/><path class="cls-6" d="M212.38,524.18s-5.17,3.22-9.86,15.44"/><path class="cls-10" d="M223.47,527s4.73,4.21,9.47-2.14C232.94,524.86,225.87,520.86,223.47,527Z"/><path class="cls-6" d="M223.47,527a23.89,23.89,0,0,0-12.95,13.48"/><ellipse class="cls-9" cx="133.29" cy="500.77" rx="1.51" ry="4.52" transform="translate(-384.72 486.2) rotate(-73.48)"/><path class="cls-9" d="M147.77,500.4c-1.28,1.12.17,2.91,1.93,3.81,2.37,1.2,8.88,3.88,12.34,2.46,3.06-1.26,1.29-5-3.69-6.27C154,499.27,149.42,499,147.77,500.4Z"/><path class="cls-9" d="M133.29,511.23c-1.35,1.39.77,3,2.08,3.71,2.95,1.69,11,7.21,16,6.82s3.8-4.07,0-6.43S135.19,509.26,133.29,511.23Z"/><path class="cls-6" d="M272.55,615S313,658.5,314.84,707.05"/><path class="cls-6" d="M268.2,618.86s6.55.31,10.12,2.94"/><path class="cls-6" d="M268.2,625.61s9-.45,15.92,3.84"/><path class="cls-6" d="M268.2,633S282.89,631,291,639.63"/><path class="cls-6" d="M272.55,640.69s14.87-.94,21.92,4.59"/><path class="cls-6" d="M276.16,648.22s14.15-1.42,23,5.54"/><path class="cls-6" d="M281.88,655.56s15.57.77,20.88,5.45"/><path class="cls-6" d="M289.22,663.7s10.63-1,16.13,3.18"/><path class="cls-6" d="M299.19,670.64s5,.16,8.55,2.36"/><path class="cls-6" d="M362.68,758.59s6,6.29,17.22,7.13"/><path class="cls-10" d="M360.94,730.72s9.65,3.8,5.53,12.8C366.47,743.52,357.69,742.54,360.94,730.72Z"/><path class="cls-10" d="M354,748.83s-.54,11.28,8.68,9.76C362.68,758.59,364.09,749.7,354,748.83Z"/><path class="cls-6" d="M366.47,743.52s6.73,20,28.95,37.14"/><path class="cls-10" d="M373,703.28s-3,9.74,4.63,11.46C377.63,714.74,381.59,707.54,373,703.28Z"/><path class="cls-6" d="M377.63,714.74s15.61,42.43,35.48,57.43"/><path class="cls-10" d="M383.49,701.76s-3.59,5.29.48,7.25C384,709,387.5,707,383.49,701.76Z"/><path class="cls-6" d="M384,709s9,17.57,2.85,26.65"/><path class="cls-10" d="M376.51,732s-2.62,6.48,3.39,8.87C379.9,740.85,382.59,735.66,376.51,732Z"/><path class="cls-6" d="M379.9,740.85s5.72,10.28,16.29,11.54"/><path class="cls-6" d="M384.87,674.26s39.82,45.18,35.47,95.7"/><path class="cls-10" d="M373.3,677.42s-.1,8.93,6.6,8.93C379.9,686.35,381.79,679.23,373.3,677.42Z"/><path class="cls-6" d="M379.9,686.35s9.77,14.43,24.81,17.71"/><path class="cls-10" d="M380.38,661.88s-3.48,10.54,4.51,12.38C384.89,674.26,389.25,667.72,380.38,661.88Z"/><path class="cls-10" d="M410.31,650.35s-4.12,11.33,3.87,13.45C414.18,663.8,419.15,657.07,410.31,650.35Z"/><path class="cls-6" d="M414.18,663.8S426.46,697.61,430,765.72"/><path class="cls-10" d="M430,648.67s-7.28,5.21-2.72,12.63C427.28,661.3,433.25,658.43,430,648.67Z"/><path class="cls-6" d="M427.28,661.3a26.07,26.07,0,0,1-9.19,16.12"/><path class="cls-6" d="M436.53,763.77S449,737,443.23,674.26"/><path class="cls-10" d="M443.14,664.49s-5.26,6.55,0,10C443.18,674.52,448.53,672,443.14,664.49Z"/><path class="cls-6" d="M318.16,635.06s7.32,25.51,1.18,67.55"/><path class="cls-6" d="M313.84,664.79s5.82,1.53,8,7"/><path class="cls-6" d="M312.34,657.35s7.23,2.3,9.43,9.36"/><path class="cls-6" d="M310.25,649.63s9.46,3.83,11.35,11.53"/><path class="cls-6" d="M310.25,643.93c.45.05,8.29,2.9,10.95,10.8"/><path class="cls-6" d="M312,639.52a14.53,14.53,0,0,1,8.54,8.92"/><path class="cls-6" d="M314.72,637s3.82,1.79,4.85,4.64"/><path class="cls-7" d="M301.66,688.14s3,22.42,25.19,25.18A33.54,33.54,0,0,0,301.66,688.14Z"/><path class="cls-6" d="M301.66,688.14a65.33,65.33,0,0,0,25.19,25.18"/><path class="cls-8" d="M325.32,668.36s-17.42,29.26,1.53,45C326.85,713.32,339.62,695.94,325.32,668.36Z"/><path class="cls-6" d="M325.32,668.36s-3.73,21.72,1.53,45"/><path class="cls-7" d="M344.17,679.23s5.32,30.25-17.21,34.09C327,713.32,326.23,689.56,344.17,679.23Z"/><path class="cls-6" d="M344.17,679.23s-5.5,20.08-17.21,34.09"/><path class="cls-8" d="M354.42,693.37s-.87,18.14-27.46,20C327,713.32,334.29,694.76,354.42,693.37Z"/><path class="cls-6" d="M354.42,693.37s-4.29,10-27.46,20"/><ellipse class="cls-9" cx="365.09" cy="785.21" rx="2.59" ry="1.35" transform="matrix(0.99, -0.13, 0.13, 0.99, -100.24, 54.93)"/><ellipse class="cls-9" cx="376.47" cy="786.73" rx="5.37" ry="3.24" transform="translate(-207.03 138.5) rotate(-16.42)"/><ellipse class="cls-9" cx="513.59" cy="801.35" rx="3" ry="2.07" transform="translate(-358.31 419.62) rotate(-33.7)"/><path class="cls-9" d="M522.4,799.65c1.22,2.64,5.63,2.75,11.6.93,9.74-3,14.39-10.85,10.74-13.13C540,784.47,519.41,793.22,522.4,799.65Z"/><ellipse class="cls-9" cx="550.72" cy="777.75" rx="3.4" ry="2.44" transform="translate(-388.65 617.21) rotate(-45)"/><path class="cls-10" d="M446.72,735.85s17,15.51,40.62,11.92,17.44-38.27,17.44-38.27l-3.18-.3s1.65,16.6-3.8,25.51c0,0-4.21-11.19.11-35.79l-4-.38s-4.7,23.06-1.39,34.47c0,0-7.46-12.62-7.3-41.79l-4.37-.41s-.42,25.83,5.56,43.23a228,228,0,0,1-17.09-44.32l-3.56,1.67s5.46,27.19,15.73,43.79c0,0-17.66-15.28-27.07-36.23L451,701s4.9,16.11,25.59,37.1c0,0-15.33-6.21-31.51-21l-1.71,3.25a88.94,88.94,0,0,0,30.25,21.57S458.43,740.81,447,731Z"/><path class="cls-8" d="M487.9,704.38s8.77,38.28,46.3,38.28C534.2,742.66,524,709.55,487.9,704.38Z"/><path class="cls-6" d="M487.9,704.38s19.27,27.6,45.69,38.28"/><path class="cls-8" d="M510,675.36s34.45,29,24.25,67.3C534.2,742.66,505.06,734.5,510,675.36Z"/><path class="cls-6" d="M510,675.36s17.08,30.1,24.25,67.3"/><path class="cls-8" d="M578.53,710.38s-11.4,29.79-44.25,32.28C534.28,742.66,541.53,714.23,578.53,710.38Z"/><path class="cls-6" d="M578.53,710.38s-19.83,22.09-44.25,32.28"/><path class="cls-7" d="M552.47,685.52s12.83,46.72-18.19,57.14C534.28,742.66,527.44,716.61,552.47,685.52Z"/><path class="cls-6" d="M552.47,685.52s-1.08,32.25-18.19,57.14"/><path class="cls-7" d="M156.14,792.47a68.43,68.43,0,0,0,53.44,47.47S199.47,798.34,156.14,792.47Z"/><path class="cls-6" d="M156.14,792.47s35.2,20.94,53.44,47.47"/><path class="cls-8" d="M224.06,768.51s19.09,43.56-11.64,68.06C212.42,836.57,194.11,807.07,224.06,768.51Z"/><path class="cls-6" d="M224.06,768.51s.86,41.44-11.64,68.06"/><path class="cls-7" d="M246.37,780s12.63,41.66-25.81,56.59C220.56,836.62,218.17,803.5,246.37,780Z"/><path class="cls-6" d="M220.56,836.62s21-26,25.81-56.59"/><path class="cls-8" d="M186.34,770.43s31.75,23.23,22.81,66.63C209.15,837.06,176.79,822.08,186.34,770.43Z"/><path class="cls-6" d="M186.34,770.43a313.2,313.2,0,0,1,22.81,66.63"/><path class="cls-9" d="M489.89,539A114.51,114.51,0,0,0,494,552.52s-5.87-.35-10.18-.12a1.61,1.61,0,0,0-1.51,1.62h0a1.61,1.61,0,0,0,.72,1.34,40.68,40.68,0,0,0,14.14,5.39,2.46,2.46,0,0,0,2.86-2.28c.24-4.38.46-13.4-1.3-19.44A6.89,6.89,0,0,0,489.89,539Z"/><path class="cls-9" d="M563.08,549.06s3.68,6.1,7.19,8.72l-6.14,7a1,1,0,0,0,.38,1.67h0a1,1,0,0,0,1-.11l8.67-5.84a3.45,3.45,0,0,0,1.42-3.71l-2.77-11Z"/><path class="cls-10" d="M502,456.65s-21.76,13.59-26.52,44.12S489.89,539,489.89,539h8.8s15.21-20.38,20.06-36.56C518.75,502.47,530.25,454.23,502,456.65Z"/><path class="cls-6" d="M490.56,538.81s-20.41-43.65,16.86-74.18"/><path class="cls-6" d="M511.49,479.17S488.3,496.41,494,538.81"/><path class="cls-6" d="M497.9,539s3.41-29.63,18.24-43.87"/><line class="cls-6" x1="487.08" y1="327.85" x2="543.6" y2="352.52"/><path class="cls-8" d="M503.74,362s.16,10-2.25,17.23-12.35,39.78,0,64.49c0,0,24.11,6.62,47,6.93,0,0-8.74-39-29.83-71.56-12.65-19.52-4.52-29.51-4.52-29.51Z"/><circle class="cls-9" cx="491.12" cy="456.27" r="4.3"/><line class="cls-6" x1="484.07" y1="457.47" x2="493.2" y2="462.47"/><path class="cls-6" d="M465.78,557.41c1-2.22,22.85-97.44,22.85-97.44"/><path class="cls-9" d="M504.8,335.56s-8.65,11.32-4.44,22c3.58,9,14.82,7.63,19.75-1.11a37.65,37.65,0,0,0,4.66-15.75Z"/><ellipse cx="503.88" cy="343.9" rx="1.58" ry="0.61" transform="translate(1.13 689.45) rotate(-68.82)"/><ellipse cx="507.43" cy="345.27" rx="1.58" ry="0.61" transform="translate(2.12 693.64) rotate(-68.82)"/><path class="cls-10" d="M501.49,443.76s.44,94.3,61.59,105.3l9.7-3.23s-11-62.17-24.28-95.14Z"/><path class="cls-10" d="M504.8,335.56s1.78-5,8.54-7c7.38-2.23,12.13.73,21.36-2.12,5.1-1.57,9.21-2.19,10.93,1.41s-.94,7.53-7.49,7.84-11.27,1.87-13.76,8.44Z"/><path class="cls-8" d="M514,390.93s2.19,16.67-2,27.21-21.44,16.95-21.34,30.74c.09,13.37,10.83,13.86,14.15,6.63s4.95-15.44,15.68-20.65c12.58-6.11,11.19-18.58,7.83-27a98.28,98.28,0,0,0-7.81-15.45"/><path class="cls-6" d="M509.57,445S508,517.09,564.24,548.68"/><path class="cls-6" d="M522.47,446.85c.88,33.85,18.81,79.48,45.3,100.65"/><path class="cls-6" d="M537.14,449s-1.34,41.7,33.39,97.57"/><path class="cls-7" d="M537.08,554.63s-9.76,46.85,24.65,63.2C561.73,617.83,569.78,580,537.08,554.63Z"/><line class="cls-10" x1="537.08" y1="554.63" x2="561.73" y2="617.83"/><path class="cls-8" d="M571.49,549.09s-27.36,35.36-12.1,70.27C559.39,619.36,584.18,602.81,571.49,549.09Z"/><line class="cls-10" x1="571.49" y1="549.09" x2="559.39" y2="619.36"/><path class="cls-7" d="M612.65,565.92s-47.72,13.61-50,56C562.61,622,600,623.8,612.65,565.92Z"/><line class="cls-10" x1="612.65" y1="565.92" x2="562.61" y2="621.96"/><path class="cls-7" d="M624.4,612.33s-44.76-12.94-59.42,8.72C565,621.05,585.5,639.77,624.4,612.33Z"/><line class="cls-10" x1="624.4" y1="612.33" x2="564.98" y2="621.05"/><path class="cls-2" d="M591.55,625.44s1.34,8.92-1.14,13.63-16.11.25-21.07-2.23a237.31,237.31,0,0,0-25.78-9.92c-7.93-2.47-30.65-9.74-41.9-11.47-17.35-2.66-30.68-8.61-35.42-15.55v-9.43l85.5,17.37Z"/><path class="cls-4" d="M466.24,590.47c-.14-4.4,14.6.54,33.37,1.22,17.31.64,58.08-.27,67.14,8.26s8,14.65,18.65,19.18,5.33,10.92,0,11.45-12.78-1.28-22.38-6.39c-13.52-7.2-39-13.57-53-16.52-7.77-1.64-21.05-1.76-31.44-6.82S466.32,592.71,466.24,590.47Z"/><ellipse class="cls-9" cx="548.8" cy="602.95" rx="1.95" ry="3.72" transform="translate(-103.73 1091.77) rotate(-84.53)"/><ellipse class="cls-9" cx="563.67" cy="611.31" rx="3.23" ry="7.39" transform="translate(-199.15 942.28) rotate(-70.78)"/><path class="cls-11" d="M274.29,707.48h0a12.54,12.54,0,0,1-13.62,0h0a12.54,12.54,0,0,0-13.62,0h0a12.54,12.54,0,0,1-13.62,0h0a12.52,12.52,0,0,0-13.63,0h0a12.54,12.54,0,0,1-13.62,0h0a12.52,12.52,0,0,0-13.63,0h0a12.52,12.52,0,0,1-5,1.88l.39,6.68,86.41-1.14"/><path class="cls-6" d="M274.29,707.5h0a12.5,12.5,0,0,1-13.62,0h0a12.54,12.54,0,0,0-13.62,0h0a12.5,12.5,0,0,1-13.62,0h0a12.56,12.56,0,0,0-13.63,0h0a12.5,12.5,0,0,1-13.62,0h0a12.56,12.56,0,0,0-13.63,0h0a12.39,12.39,0,0,1-5,1.89"/><path class="cls-8" d="M389.76,405.9s14.49-2.23,16.91,2-5.39,5.71-4.52,8.62,13.45-.79,12.82,5.95-8.34,2.37-8.82,5.26,7,7.66,3.5,11.55-9.2-3.91-12.35-5.41-8.38,9.8-12.71,4,6.9-7.6,5.54-13.31-7.66,5.73-14.85,6.32-9-4.41-5-11.76,6-6.71,6.26-9.32-4.33-2.49-3.69-6.31S385.94,399.73,389.76,405.9Z"/><path class="cls-6" d="M389.91,407.16a35.06,35.06,0,0,1,11,19.86"/><path class="cls-6" d="M376.4,422.47c.09-.44,3.59-10.37,13.67-14.08"/><path class="cls-8" d="M391.9,445s11.27,4.31,9.63,9.8-5.67.12-6.82,4.08,10.42,3.51,8.53,9.22-6.81-1.93-9.59.85-.95,10-6.66,8.42-.68-7.14-3.77-9.6-9.53,2.11-10.3-3.17,7.53-4.82,8-8.47-6.91,4.28-9.23.2,4.76-10.77,13.77-12C390.62,443.62,391.9,445,391.9,445Z"/><path class="cls-6" d="M387.21,471.54s4.2-16.49,2.39-27.34"/><path class="cls-8" d="M349.5,411.61A16.13,16.13,0,0,1,359.74,405c6.78-1.15,5.27,3.2,4.44,5.49s-1.64,5.21,4.92,4.69,7.68,2.78,4,5.08-4.07,3.29-2.32,4.77,6.88,4.28,4.55,7.31-6.67,3.06-10.79.64-4.94.56-4.72,2.58-1.46,6.51-5.31,4.84.56-9.44-1.14-12.32-4.18,7.58-7.8,4.72S344.28,418.65,349.5,411.61Z"/><path class="cls-8" d="M305.41,422.12s11.68-.47,14.77,3.69-5.58,3.2-5.16,5.71,12.75-.24,12.42,4.2-8.67-.37-9.9,2.4,7.36,8.59,2.77,12.14-6.05-7.59-9-8.32-1.9,8.57-6.32,7.29-.88-7.05-1.83-10.66-3.55,4.89-6.47,2.6S296.86,428.1,305.41,422.12Z"/><path class="cls-6" d="M305.41,422.12s5.44,4.47,8.19,17.94"/><path class="cls-8" d="M338.56,438.51s-19.46-4.14-21.19,1.54,9,3.11,9.32,5.54-10.09,4.44-7.39,9.88,8.21-1.7,10-.33-4,10.62,2.46,11.52,3.65-10.83,5.43-12.62.53,9.45,6.16,7.38S338.56,438.51,338.56,438.51Z"/><path class="cls-8" d="M276.27,389.17c-.25-4.63,9.37-2.18,12-4.51s-2.54-3-2.06-6.71,7.32-3.75,14.41,4c6.4,7,5.41,26.18-.18,26-2.88-.11-3.06-7.68-6.36-7.2s-7.74,7.2-10.78,3.92,4.35-7.41,3.24-10.85S276.52,393.67,276.27,389.17Z"/><path class="cls-6" d="M288.59,398.17s4.21-12,13.59-14.05"/><path class="cls-8" d="M336.86,395.36s-13.91-7.85-16.11-2.81c-1.16,2.64,5.81,4.24,5.45,6.42-.64,3.81-12.43-.53-12.61,5.23-.14,4.5,9,.83,10.29,3.4,2,3.9-1.63,11,4.29,11.25,5.05.21.45-9.71,4.51-10.43s6.6,6.2,9.47,3.19C345.18,408.42,336.86,395.36,336.86,395.36Z"/><path class="cls-6" d="M336.86,395.36s-6.23,1.18-9.4,10.62"/><path class="cls-8" d="M299.43,413s-17.24-6.56-19.69-.75,9,3.68,7.18,7.71-12.81,3.31-10.74,9.82,14.17-2,16.25,1.55-2.72,8.26,3.46,8.5C303,440.13,302.86,420.38,299.43,413Z"/><path class="cls-6" d="M299.43,413a28.17,28.17,0,0,1-15.83,13.45"/><path class="cls-10" d="M305.46,389.12s-2.15,6.18.88,8.73c0,0-2.74,3.38-.23,6.08,0,0-1.61,5.68,3.07,6,0,0-1.4,10.4,6.48,12.6,0,0,1,5.27,6.48,3.35a5.85,5.85,0,0,0,2.78,1.42,4.27,4.27,0,0,0,5.07-4.75c-.21-1.55-1.38-3.19-3.55-4.48,0,0,1.13-6.63-4-9.58,0,0,1.75-6.51-4.84-8.5,0,0-.73-4.9-5.26-4.9C312.36,395.13,312.72,390.27,305.46,389.12Z"/><path class="cls-6" d="M312.22,405.51s-1.28,5.52,3.61,6.45c0,0-.73,5,3.61,6.24"/><path class="cls-6" d="M312.38,398.77a5.62,5.62,0,0,1,3.66,6.35s5.76,1.93,5.06,8.87a8,8,0,0,1,3,8.25"/><path class="cls-10" d="M300.19,409.85s-4.27,2.11-3.22,5.06c0,0-8.46,5-5.79,14.22,0,0-7.5,5.62-2.86,18.27,0,0-2.86,6.61,2.24,10.52-.2,5.12,6.85,7.8,8.82.87,0,0,3.51-.57,3-6.76,0,0,4.27-2.06,2.07-7,0,0,4.84-4.83-.67-13,0,0,3.61-5.56-.27-9.32,0,0,2.19-4.23-1.79-6.71A6.37,6.37,0,0,0,300.19,409.85Z"/><path class="cls-6" d="M297.37,422.49a8.58,8.58,0,0,0-1.9,10.06,8.89,8.89,0,0,0-1.12,9.86,8,8,0,0,0-1.12,8.92"/><path class="cls-6" d="M299.72,431.08s1.63,3.21-.79,5.45c0,0,3.77,6.74-2.55,11.89"/><path class="cls-10" d="M348.24,409.48a3.83,3.83,0,0,0-.79,4.14s-3.37,5.31-.21,8.72c0,0-3,5.58.76,9.89,0,0-1.65,7.32,4.57,9.41,0,0-2.06,7.5,6.12,8.58,0,0,2.54,6.29,7.09,6.21s2.77-6.38,2.77-6.38,3.73-1.59,1.4-6.73c0,0,1-2.23-.76-3.19,0,0,3.14-6.2-2.92-9.6,0,0,1.37-7.75-5.56-9.95,0,0,1-5.8-6.95-6.72A7.6,7.6,0,0,0,348.24,409.48Z"/><path class="cls-6" d="M350.35,417s-1,5.42,4,6.53c0,0-2.51,6,2.35,8,0,0-2.48,8.65,3,9.87,0,0-1.07,8.27,3.85,8.45"/><path class="cls-6" d="M357.8,424.39a3.58,3.58,0,0,1,1.51,4.76s6.41,3.06,4.33,9.69c0,0,3.5,3.77,2.24,8.61"/><line class="cls-6" x1="301.07" y1="372.38" x2="312.53" y2="503.25"/><line class="cls-6" x1="330.96" y1="377" x2="373.58" y2="507.69"/><line class="cls-6" x1="387.43" y1="387.37" x2="401.91" y2="503.25"/><line class="cls-6" x1="305.53" y1="389.12" x2="302.1" y2="384.1"/><path class="cls-6" d="M300.2,409.85s1.61-3.15,3.83-3.67"/><path class="cls-10" d="M345,422.79s-6.64,2-6.29,10.7c0,0-6.08,5-3.4,11.82,0,0-4.41,7,1.33,10.61,0,0-2.2,9.87,5.25,10.16,0,0,3.53,4,6.2-.55,0,0,4.64-4.12,1.63-9.76a8.93,8.93,0,0,0,1.44-8.66,11.76,11.76,0,0,0-.9-12.3s1.17-4.68-2.66-7.2A4.86,4.86,0,0,0,345,422.79Z"/><path class="cls-6" d="M342.63,434s-3.69,5.06-.62,8.37c0,0-4.61,6.22.43,10.53,0,0-3.5,5.78,2.21,8.18"/><path class="cls-6" d="M345.79,440.35s1.85,2-.19,4.87c0,0,3.2,3.29.12,8.17"/><line class="cls-6" x1="345.03" y1="422.79" x2="344.87" y2="419.49"/><path class="cls-6" d="M339.82,404.18a10.77,10.77,0,0,1,8.45,5.31"/><path class="cls-10" d="M388.56,408.15s-7.38,3.84-5.07,13c0,0-5.61,2.78-3.44,10.21,0,0-5,7.15-1.26,13.29,0,0-4.14,8.45,2.21,11.51,0,0,.2,5.25,3.74,5.46,3.71.21,3.35-5.73,3.35-5.73s6.13-3.71,3.24-9.95c0,0,4.91-6.26,1.32-10.79,0,0,3.51-8.68-1.54-12C391.11,423.12,394.92,413.79,388.56,408.15Z"/><path class="cls-6" d="M386.17,426.16s-3.42,2.18-1.18,7.58c0,0-3.28,3.14-1.27,9.61,0,0-2.56,5,.19,7.95"/><path class="cls-6" d="M388.15,435a2.89,2.89,0,0,1-.14,3.6s2.66,3.17.15,7.63"/><line class="cls-6" x1="388.56" y1="408.15" x2="389.37" y2="403.24"/><path class="cls-8" d="M321.78,507.31c-.24-3.71,3.75-6.32,9.53-5,6.57,1.51,7.37-3,14.75.48,5.7,2.71,6.41,10.55,6.41,10.55s-2.79-.3-6.39,3.57c-3.24,3.46-9.65,4.17-14.94-.91C327.19,512.2,322.13,512.82,321.78,507.31Z"/><path class="cls-6" d="M329.51,507.39s10.7-3,23,6"/><path class="cls-7" d="M367,528.58c-.51-5.91,4.4-11,4.61-11.23l1.18,1.16s-4.59,4.79-4.14,9.92Z"/><path class="cls-7" d="M396.22,529c-3.29,5.89-11.18,7.58-11.52,7.65l-.38-1.85c.07,0,7.39-1.59,10.25-6.72Z"/><path class="cls-7" d="M403.32,524.06c-2.94,5.87,0,13.15.16,13.45l1.7-.7c0-.07-2.77-6.81-.21-11.92Z"/><path class="cls-7" d="M407.79,538.67c-6.63,0-9.78-4.39-12.84-8.64-2.25-3.13-4.57-6.36-8.35-7.88a24,24,0,0,0-9.85-1.85c-3.15,0-5.88-.06-9.83-3.28A14.32,14.32,0,0,0,356,513.77a11.39,11.39,0,0,0-7.87,4.77,20.3,20.3,0,0,1-12.07,8.13l-.42-2.33a18.25,18.25,0,0,0,10.55-7.16,13.72,13.72,0,0,1,9.48-5.75,16.69,16.69,0,0,1,12.74,3.75c3.32,2.7,5.44,2.72,8.37,2.76a26.32,26.32,0,0,1,10.71,2c4.41,1.78,6.94,5.3,9.38,8.69,3.35,4.66,6.24,8.68,13.53,7.42l.41,2.34A18.47,18.47,0,0,1,407.79,538.67Z"/><path class="cls-7" d="M425.49,530.47c-.61-8.11,6.22-15,6.51-15.34l1.61,1.61c-.06.07-6.38,6.5-5.85,13.57Z"/><path class="cls-7" d="M356,528.05c-2.49-6.76,1.63-14.34,1.81-14.66l1.77,1c0,.07-3.85,7.1-1.68,13Z"/><path class="cls-8" d="M369.61,547.7c-2.62.91-5.3-1.43-5.5-5.85-.24-5-3.66-4.69-2.62-10.7.81-4.64,6.3-6.72,6.3-6.72s.34,2.06,3.84,3.88c3.14,1.63,4.71,5.28,2.12,10.1C371.82,542,373.5,546.34,369.61,547.7Z"/><path class="cls-6" d="M368.12,542.13s-4.3-7.09-.33-17.7"/><path class="cls-8" d="M349.4,537.89s-8.92,1.28-11.83,8-1.3,13.45-2.28,18.94,2,8.4,7.54,3.6,5.05-4.55,11.73-8.79,3.31-16.22,2.43-18.1S353.69,538.51,349.4,537.89Z"/><path class="cls-6" d="M340.29,562.62s3.06-18.18,13.11-23.8"/><path class="cls-8" d="M420,505.33c2,2.59-1.27,5.64-1.14,8.68.5,11.89-6.31,17-15.9,12.94-3.59-1.54-6.63-5.31-4.83-10.54,2.09-6.09,7.21-3.33,11.8-9.41C413.87,501.82,418.24,503,420,505.33Z"/><path class="cls-6" d="M403,527a28.6,28.6,0,0,1,11.92-17.8"/><path class="cls-8" d="M372,491.56c3-1.67,6.78.62,8,6,1.35,6.09,5.47,4.95,5.47,12.53,0,5.85-6.28,9.56-6.28,9.56s-.86-2.45-5.53-3.93c-4.18-1.32-6.88-5.47-4.73-11.91C370.53,499,367.55,494.05,372,491.56Z"/><path class="cls-6" d="M375,498.06s6.76,7.76,4.16,21.58"/><circle class="cls-10" cx="354.9" cy="537.53" r="11.72"/><circle class="cls-4" cx="354.9" cy="541.22" r="2.43"/><circle class="cls-9" cx="354.9" cy="541.22" r="0.73"/><circle class="cls-10" cx="386.75" cy="517.19" r="11.72"/><circle class="cls-4" cx="382.08" cy="522.08" r="2.43"/><circle class="cls-9" cx="382.08" cy="522.08" r="0.73"/><circle class="cls-10" cx="381.71" cy="542.67" r="11.72"/><circle class="cls-4" cx="378.45" cy="548.58" r="2.43"/><circle class="cls-9" cx="378.45" cy="548.58" r="0.73"/><circle class="cls-10" cx="418.88" cy="536.9" r="12.85"/><circle class="cls-4" cx="421.31" cy="531.53" r="2.43"/><circle class="cls-4" cx="421.31" cy="531.53" r="0.73"/><circle class="cls-10" cx="439.1" cy="506.71" r="13.84"/><circle class="cls-4" cx="444.45" cy="500.82" r="2.22"/><circle class="cls-9" cx="444.45" cy="500.82" r="0.67"/><circle class="cls-10" cx="359.83" cy="503" r="12.19"/><circle class="cls-4" cx="358.54" cy="496.11" r="1.96"/><circle class="cls-9" cx="358.54" cy="496.11" r="0.59"/><circle class="cls-10" cx="333.44" cy="536.76" r="13.42"/><circle class="cls-4" cx="330.89" cy="544.81" r="2.55"/><circle class="cls-9" cx="330.89" cy="544.81" r="0.76"/><path class="cls-8" d="M279.42,529.61s-1.05,50.15,37.27,59.07C316.69,588.68,309.13,550.94,279.42,529.61Z"/><path class="cls-6" d="M316.69,588.68c-24.93-23.88-37.27-59.07-37.27-59.07"/><path class="cls-7" d="M331.58,546.62s11.34,35.58-14.27,41.94C317.31,588.56,310.61,563.81,331.58,546.62Z"/><path class="cls-6" d="M331.58,546.62s-2.07,25.6-14.27,41.94"/><path class="cls-8" d="M363,552.56s-8.87,40.18-46,36.19C317,588.75,329.36,562.6,363,552.56Z"/><path class="cls-6" d="M363,552.56s-16.08,27.34-46,36.19"/><path class="cls-7" d="M306.88,540.08s-10,31.81,10.07,48.48C317,588.56,325.51,564.31,306.88,540.08Z"/><line class="cls-6" x1="306.88" y1="540.08" x2="316.95" y2="588.56"/><path class="cls-10" d="M440,520.29s-3.58,8,3,9.58C443,529.87,447.94,525.74,440,520.29Z"/><path class="cls-10" d="M437.19,541.67s-1.27,9.41,5.82,8.21C443,549.88,444.76,543.72,437.19,541.67Z"/><path class="cls-10" d="M430.8,549.88s-4.5,7.09,1.82,9.44C432.62,559.32,437.1,554.6,430.8,549.88Z"/><path class="cls-10" d="M424.09,569.17s-.73,8.82,6.18,8.08C430.27,577.25,431.29,571.23,424.09,569.17Z"/><path class="cls-10" d="M457.6,535.78s-4.88,8.23,1.63,11.78C459.23,547.56,465.26,542.62,457.6,535.78Z"/><path class="cls-10" d="M481.13,545.05s-6.32,7.21-2.2,12.06C478.93,557.11,485.25,555,481.13,545.05Z"/><path class="cls-10" d="M506.49,566.78s-10-2.21-9.92,6.45C496.57,573.23,504.12,576.77,506.49,566.78Z"/><path class="cls-6" d="M443,529.87s10.83,19.22,12,58.19"/><path class="cls-6" d="M443,549.88a23.06,23.06,0,0,0,9,9.09"/><path class="cls-6" d="M432.62,559.32s2.65,20.56,12.14,28.74"/><path class="cls-6" d="M430.27,577.25s4.39,5.53,9.39,4.34"/><path class="cls-6" d="M459.23,547.56a119,119,0,0,1,2.2,37.19"/><path class="cls-6" d="M478.93,557.11s-4.64,20.33-10.39,27.64"/><path class="cls-6" d="M496.57,573.23s-11,6.82-16.54,18.84"/><path class="cls-8" d="M425.17,769.39a24.65,24.65,0,0,1,.28-3.32,28.9,28.9,0,0,1,.67-3.28,25.09,25.09,0,0,1,1.08-3.2,18.53,18.53,0,0,1,1.59-3.06,13,13,0,0,1,2.29-2.7,10,10,0,0,1,3.13-1.92,10.22,10.22,0,0,1,3.67-.65,6.9,6.9,0,0,1,2,.3,7.79,7.79,0,0,1,1.81.82,9.93,9.93,0,0,1,2.7,2.62,17.24,17.24,0,0,1,1.77,3.11,34,34,0,0,1,2.05,6.55,58.11,58.11,0,0,1,1,6.66c.1,1.12.18,2.23.22,3.35s.06,2.22,0,3.37h-1.76c-.09-2.12-.27-4.3-.51-6.44s-1.26-4.27-1.72-6.36a32.63,32.63,0,0,0-1.82-6,15.32,15.32,0,0,0-1.42-2.66,7.88,7.88,0,0,0-1.94-2,4.74,4.74,0,0,0-2.44-.84,8.11,8.11,0,0,0-2.8.39,10,10,0,0,0-4.67,3.53,24.51,24.51,0,0,0-3.11,5.54A45.75,45.75,0,0,0,425.17,769.39Z"/><path class="cls-8" d="M433.56,744a8.54,8.54,0,0,1,3.69.13,13.62,13.62,0,0,1,1.79.63c.29.12.57.28.85.43s.56.32.82.5a14.42,14.42,0,0,1,2.86,2.54,18.14,18.14,0,0,1,2.16,3.15,24.7,24.7,0,0,1,1.56,3.44,30.08,30.08,0,0,1,1,3.59,36.36,36.36,0,0,1,.9,7.32l-2.42.2c-.36-2.33-.71-4.64-1.22-6.9a33.61,33.61,0,0,0-2.09-6.53,17.7,17.7,0,0,0-1.63-3,14.36,14.36,0,0,0-2.16-2.57A11.11,11.11,0,0,0,433.56,744Z"/><path class="cls-8" d="M446.94,774.67c-.1-.93-.15-1.81-.19-2.72s-.05-1.8,0-2.7a51.6,51.6,0,0,1,.29-5.41,39.19,39.19,0,0,1,.95-5.42,19.38,19.38,0,0,1,2.19-5.28,9.24,9.24,0,0,1,2-2.31,6.65,6.65,0,0,1,4.55-1.48,8,8,0,0,1,1.53.2,7.64,7.64,0,0,1,2.81,1.28,9.05,9.05,0,0,1,1.13,1,10.93,10.93,0,0,1,.91,1.15,11.86,11.86,0,0,1,1.26,2.55,14.08,14.08,0,0,1,.66,2.67,13.16,13.16,0,0,1,.16,2.71,23.73,23.73,0,0,0-2.11-4.78,9.62,9.62,0,0,0-3.24-3.47,6,6,0,0,0-2.06-.74,6.71,6.71,0,0,0-1.1-.08,3.88,3.88,0,0,0-1,.12,4,4,0,0,0-1.77.93,6.12,6.12,0,0,0-.74.78,9,9,0,0,0-.65.93,17.19,17.19,0,0,0-1.74,4.53,39.62,39.62,0,0,0-.9,5,87.37,87.37,0,0,0-.56,10.36Z"/><path class="cls-8" d="M459.13,773.6a6.82,6.82,0,0,0-2.94.16,8.51,8.51,0,0,0-2.7,1.29,12.21,12.21,0,0,0-2.2,2,15.93,15.93,0,0,0-1.75,2.35l-.13.23V778c0-.56,0-10.52.1-14.32s.06-7.61-.11-11.42c-.08-1.9-.21-3.81-.4-5.71s-.43-3.8-.81-5.71c-.38,1.91-.61,3.81-.81,5.71s-.31,3.81-.39,5.71c-.17,3.81-.18,7.61-.12,11.42a.53.53,0,0,1,0,.13c-.07-.11-.12-.22-.19-.33a8.71,8.71,0,0,0-2.5-2.72,6.76,6.76,0,0,0-3.67-1.12,10.77,10.77,0,0,0-3.52.57A9.62,9.62,0,0,0,434,762a10.49,10.49,0,0,0-2.12,2.69,12.77,12.77,0,0,0-1.22,3.07,12.51,12.51,0,0,0-.41,3.21,21.82,21.82,0,0,1,1.32-2.85,15.74,15.74,0,0,1,1.67-2.52,10.73,10.73,0,0,1,2.08-2,8.38,8.38,0,0,1,2.47-1.18,7.94,7.94,0,0,1,2.7-.28,4.21,4.21,0,0,1,2.25.76,9,9,0,0,1,2.87,4.5,27.23,27.23,0,0,1,1.19,5.89c.1,1,.16,2,.19,3,0,.42.07,11.07.1,14.61a1.14,1.14,0,0,0,1.14,1.14h0a1.16,1.16,0,0,0,1.15-1.12c0-1.48.1-3.27.1-3.27a16.07,16.07,0,0,1,.48-2.37c.23-.81.5-1.63.81-2.43a22.07,22.07,0,0,1,2.3-4.58,13,13,0,0,1,1.61-1.93,8.49,8.49,0,0,1,2-1.45,6.5,6.5,0,0,1,2.44-.66,9,9,0,0,1,2.67.24A7.66,7.66,0,0,0,459.13,773.6Z"/><path class="cls-8" d="M371.42,799.53a24.64,24.64,0,0,1,.28-3.31,28.46,28.46,0,0,1,.67-3.28,24.71,24.71,0,0,1,1.08-3.21,18.44,18.44,0,0,1,1.59-3.05,13.07,13.07,0,0,1,2.29-2.71,10.43,10.43,0,0,1,3.13-1.92,10.67,10.67,0,0,1,3.67-.65,7.69,7.69,0,0,1,2,.3,7.82,7.82,0,0,1,1.81.83,9.93,9.93,0,0,1,2.7,2.62,17.51,17.51,0,0,1,1.77,3.1,34.22,34.22,0,0,1,2.05,6.55,60.94,60.94,0,0,1,1,6.67c.1,1.11.18,2.23.22,3.34s.06,2.23,0,3.38H393.9c-.09-2.13-.27-4.31-.51-6.44s-1.26-4.28-1.72-6.36a32.5,32.5,0,0,0-1.82-6,15.23,15.23,0,0,0-1.42-2.65,7.72,7.72,0,0,0-1.94-2,4.56,4.56,0,0,0-2.44-.84,8.07,8.07,0,0,0-2.8.38,10.1,10.1,0,0,0-4.67,3.53,24.73,24.73,0,0,0-3.11,5.54A46.21,46.21,0,0,0,371.42,799.53Z"/><path class="cls-8" d="M379.81,774.13a8.39,8.39,0,0,1,3.69.13,13.56,13.56,0,0,1,1.79.62c.29.13.57.29.85.43s.56.32.82.5a14.44,14.44,0,0,1,2.86,2.55A18.45,18.45,0,0,1,392,781.5a25.24,25.24,0,0,1,1.56,3.44,31.2,31.2,0,0,1,1,3.59,36.46,36.46,0,0,1,.9,7.33l-2.42.19c-.36-2.33-.71-4.63-1.22-6.89a33.7,33.7,0,0,0-2.09-6.54,18.1,18.1,0,0,0-1.63-3,15.17,15.17,0,0,0-2.16-2.57A11,11,0,0,0,379.81,774.13Z"/><path class="cls-8" d="M393.19,804.81c-.1-.92-.15-1.81-.19-2.71s-.06-1.8-.05-2.7c0-1.81.11-3.61.3-5.42a39.06,39.06,0,0,1,.95-5.41,19.26,19.26,0,0,1,2.19-5.28,9.26,9.26,0,0,1,2-2.32,6.85,6.85,0,0,1,4.56-1.48,8,8,0,0,1,1.53.2,7.66,7.66,0,0,1,2.81,1.29,9,9,0,0,1,1.13,1,11,11,0,0,1,.91,1.16,11.79,11.79,0,0,1,1.26,2.54,15,15,0,0,1,.66,2.68,10.32,10.32,0,0,1,.15,1.35,10.14,10.14,0,0,1,0,1.35,24,24,0,0,0-2.11-4.78,9.71,9.71,0,0,0-3.24-3.47,6.22,6.22,0,0,0-2.06-.74,8,8,0,0,0-1.1-.08,4.84,4.84,0,0,0-1,.12,4.09,4.09,0,0,0-1.77.93,6.82,6.82,0,0,0-.74.78,10.28,10.28,0,0,0-.65.93,16.92,16.92,0,0,0-1.74,4.54,39,39,0,0,0-.9,5,87.21,87.21,0,0,0-.56,10.35Z"/><path class="cls-8" d="M405.38,803.75a7,7,0,0,0-2.94.15,9,9,0,0,0-2.7,1.29,13,13,0,0,0-2.21,2,17.19,17.19,0,0,0-1.74,2.35l-.14.24v-1.61c0-.56,0-10.51.1-14.32s.06-7.61-.11-11.41c-.09-1.91-.21-3.81-.4-5.71s-.43-3.81-.81-5.71c-.38,1.9-.61,3.8-.81,5.71s-.31,3.8-.39,5.71c-.17,3.8-.18,7.61-.12,11.41a.53.53,0,0,0,0,.13c-.07-.11-.12-.22-.19-.33a8.68,8.68,0,0,0-2.5-2.71,6.77,6.77,0,0,0-3.67-1.13,10.78,10.78,0,0,0-3.52.58,9.42,9.42,0,0,0-3.05,1.81,10.67,10.67,0,0,0-2.12,2.69,12.84,12.84,0,0,0-1.22,3.08,12.49,12.49,0,0,0-.41,3.2,22.44,22.44,0,0,1,1.32-2.85,15.64,15.64,0,0,1,1.67-2.51,10.79,10.79,0,0,1,2.08-2,8.42,8.42,0,0,1,2.46-1.17,8.3,8.3,0,0,1,2.71-.29,4.14,4.14,0,0,1,2.25.77,8.86,8.86,0,0,1,2.87,4.5A27.14,27.14,0,0,1,393,803.5c.1,1,.16,2,.19,3.06,0,.42.06,11.07.1,14.61a1.13,1.13,0,0,0,1.14,1.13h0a1.13,1.13,0,0,0,1.14-1.11c0-1.48.11-3.28.11-3.28a16.21,16.21,0,0,1,.48-2.36c.23-.82.49-1.63.8-2.43a22.35,22.35,0,0,1,2.31-4.58,13.06,13.06,0,0,1,1.61-1.94,8.18,8.18,0,0,1,2-1.44,6.51,6.51,0,0,1,2.44-.67,9.06,9.06,0,0,1,2.67.25A7.46,7.46,0,0,0,405.38,803.75Z"/><path class="cls-8" d="M403.07,803.59a24.64,24.64,0,0,1,.28-3.31A28.46,28.46,0,0,1,404,797a24.66,24.66,0,0,1,1.07-3.21,18.14,18.14,0,0,1,1.6-3A12.77,12.77,0,0,1,409,788a9.85,9.85,0,0,1,6.8-2.56,7.32,7.32,0,0,1,2,.29,7.56,7.56,0,0,1,1.8.83,9.83,9.83,0,0,1,2.71,2.62,17.46,17.46,0,0,1,1.76,3.1,32.87,32.87,0,0,1,2.05,6.55,56.46,56.46,0,0,1,1,6.67c.11,1.11.18,2.23.23,3.34s.06,2.23,0,3.38h-1.77c-.08-2.12-.27-4.31-.5-6.44s-1.27-4.28-1.73-6.36a32.15,32.15,0,0,0-1.81-6,14.38,14.38,0,0,0-1.43-2.66,7.53,7.53,0,0,0-1.93-2,4.68,4.68,0,0,0-2.44-.84,7.85,7.85,0,0,0-2.8.39,10.1,10.1,0,0,0-4.68,3.52,24.7,24.7,0,0,0-3.1,5.54A43.55,43.55,0,0,0,403.07,803.59Z"/><path class="cls-8" d="M411.45,778.19a8.38,8.38,0,0,1,3.69.13,11.53,11.53,0,0,1,1.79.63c.3.12.57.28.86.42s.55.32.82.5a14.44,14.44,0,0,1,2.86,2.55,19,19,0,0,1,2.16,3.14,26.51,26.51,0,0,1,1.56,3.44,33.28,33.28,0,0,1,1,3.59,35.77,35.77,0,0,1,.91,7.33l-2.42.2c-.36-2.33-.72-4.64-1.22-6.9a33.06,33.06,0,0,0-2.1-6.54,18.05,18.05,0,0,0-1.62-3,14.78,14.78,0,0,0-2.17-2.57A11,11,0,0,0,411.45,778.19Z"/><path class="cls-8" d="M424.84,808.87c-.1-.92-.16-1.81-.19-2.71s-.06-1.8,0-2.7c0-1.8.11-3.61.29-5.42a37.9,37.9,0,0,1,1-5.41,18.92,18.92,0,0,1,2.18-5.28,9.24,9.24,0,0,1,2-2.31,6.8,6.8,0,0,1,4.55-1.49,8.78,8.78,0,0,1,1.53.2A7.51,7.51,0,0,1,439,785a8.41,8.41,0,0,1,1.13,1,8.91,8.91,0,0,1,.91,1.16,11.45,11.45,0,0,1,1.27,2.55,14.88,14.88,0,0,1,.66,2.67q.1.68.15,1.35a10.14,10.14,0,0,1,0,1.35,24.22,24.22,0,0,0-2.11-4.77,9.73,9.73,0,0,0-3.25-3.47,5.68,5.68,0,0,0-2.05-.74,5.76,5.76,0,0,0-1.1-.08,4.37,4.37,0,0,0-1,.11,4.32,4.32,0,0,0-1.77.93,7.83,7.83,0,0,0-.74.78c-.22.3-.44.61-.64.94a16.4,16.4,0,0,0-1.74,4.53,40.8,40.8,0,0,0-.91,5,89.42,89.42,0,0,0-.55,10.36Z"/><path class="cls-8" d="M437,807.81a6.77,6.77,0,0,0-2.93.16,8.6,8.6,0,0,0-2.7,1.28,12.31,12.31,0,0,0-2.21,2,16.49,16.49,0,0,0-1.74,2.36c-.05.07-.09.15-.14.23v-1.61c0-.56,0-10.51.1-14.32s0-7.61-.12-11.41q-.12-2.87-.39-5.71c-.2-1.9-.43-3.81-.81-5.71-.38,1.9-.61,3.81-.81,5.71s-.32,3.8-.4,5.71c-.17,3.8-.18,7.61-.11,11.41V798l-.18-.32a8.52,8.52,0,0,0-2.51-2.72,6.75,6.75,0,0,0-3.67-1.13,10.77,10.77,0,0,0-3.51.58,9.49,9.49,0,0,0-3,1.81,10.49,10.49,0,0,0-2.12,2.7,12.61,12.61,0,0,0-1.22,3.07,12.08,12.08,0,0,0-.41,3.21,21.91,21.91,0,0,1,1.31-2.86,17.1,17.1,0,0,1,1.67-2.51,10.76,10.76,0,0,1,2.09-2,8.09,8.09,0,0,1,2.46-1.18,8.24,8.24,0,0,1,2.71-.29,4.19,4.19,0,0,1,2.24.77,8.81,8.81,0,0,1,2.88,4.5,27.71,27.71,0,0,1,1.19,5.89c.1,1,.16,2,.19,3,0,.42.06,11.07.09,14.61a1.15,1.15,0,0,0,1.15,1.13h0a1.14,1.14,0,0,0,1.14-1.11c0-1.48.1-3.27.1-3.27a16.15,16.15,0,0,1,.49-2.37c.23-.82.49-1.63.8-2.43a22.35,22.35,0,0,1,2.31-4.58,13,13,0,0,1,1.61-1.93,8,8,0,0,1,2-1.45,6.65,6.65,0,0,1,2.44-.67,9.06,9.06,0,0,1,2.67.25A7.64,7.64,0,0,0,437,807.81Z"/><path class="cls-8" d="M456.82,781.34a24.65,24.65,0,0,1,.28-3.32,28.9,28.9,0,0,1,.67-3.28,23.62,23.62,0,0,1,1.08-3.2,17.12,17.12,0,0,1,1.59-3.06,13,13,0,0,1,2.29-2.7,9.93,9.93,0,0,1,3.13-1.92,10.18,10.18,0,0,1,3.67-.65,7,7,0,0,1,2,.3,7.19,7.19,0,0,1,1.8.83A9.55,9.55,0,0,1,476,767a16.78,16.78,0,0,1,1.76,3.1,32.67,32.67,0,0,1,2.05,6.55,56,56,0,0,1,1,6.66c.11,1.12.18,2.23.23,3.35s.06,2.22,0,3.37h-1.77c-.08-2.12-.27-4.3-.5-6.44s-1.27-4.27-1.72-6.36a33.41,33.41,0,0,0-1.82-6,14.71,14.71,0,0,0-1.43-2.66,7.68,7.68,0,0,0-1.93-2,4.64,4.64,0,0,0-2.44-.83,7.84,7.84,0,0,0-2.8.38,10.06,10.06,0,0,0-4.68,3.53,24.7,24.7,0,0,0-3.1,5.54A43.55,43.55,0,0,0,456.82,781.34Z"/><path class="cls-8" d="M465.2,755.93a8.38,8.38,0,0,1,3.69.14,11.49,11.49,0,0,1,1.79.62c.3.13.57.28.86.43s.55.32.82.5a14.71,14.71,0,0,1,2.86,2.54,18.71,18.71,0,0,1,2.16,3.15,25.92,25.92,0,0,1,1.56,3.44,30,30,0,0,1,1,3.59,35.67,35.67,0,0,1,.91,7.32l-2.42.2c-.36-2.33-.72-4.64-1.22-6.9a33.61,33.61,0,0,0-2.09-6.53,18.88,18.88,0,0,0-1.63-3,14.42,14.42,0,0,0-2.17-2.57A11,11,0,0,0,465.2,755.93Z"/><path class="cls-8" d="M478.59,786.62c-.1-.93-.16-1.81-.19-2.72s-.06-1.8,0-2.7c0-1.8.11-3.61.29-5.41a37.79,37.79,0,0,1,1-5.42,19,19,0,0,1,2.18-5.28,9.24,9.24,0,0,1,2-2.31,6.9,6.9,0,0,1,2.95-1.37,6.7,6.7,0,0,1,1.6-.11,7.92,7.92,0,0,1,1.53.2,7.49,7.49,0,0,1,2.81,1.28,8.48,8.48,0,0,1,1.14,1,9.67,9.67,0,0,1,.9,1.15,11.45,11.45,0,0,1,1.27,2.55,14.88,14.88,0,0,1,.66,2.67q.1.68.15,1.35a10.29,10.29,0,0,1,0,1.36,24.57,24.57,0,0,0-2.11-4.78,9.65,9.65,0,0,0-3.25-3.47,5.88,5.88,0,0,0-2.05-.74,6.71,6.71,0,0,0-1.1-.08,3.78,3.78,0,0,0-1,.12,4.08,4.08,0,0,0-1.78.93,6.12,6.12,0,0,0-.74.78,10.86,10.86,0,0,0-.64.93,16.85,16.85,0,0,0-1.74,4.53,39.62,39.62,0,0,0-.9,5,87.37,87.37,0,0,0-.56,10.36Z"/><path class="cls-8" d="M490.77,785.55a6.77,6.77,0,0,0-2.93.16,8.41,8.41,0,0,0-2.7,1.29,12.27,12.27,0,0,0-2.21,2,15.86,15.86,0,0,0-1.74,2.35l-.14.23V790c0-.56,0-10.52.1-14.32s0-7.61-.12-11.42c-.08-1.9-.21-3.81-.39-5.71s-.43-3.8-.81-5.71c-.38,1.91-.61,3.81-.81,5.71s-.32,3.81-.4,5.71c-.17,3.81-.18,7.61-.11,11.42v.13c-.06-.11-.11-.22-.18-.33a8.63,8.63,0,0,0-2.51-2.72,6.79,6.79,0,0,0-3.67-1.12,10.51,10.51,0,0,0-3.51.58,9.31,9.31,0,0,0-3,1.81,10.49,10.49,0,0,0-2.12,2.69,12.77,12.77,0,0,0-1.22,3.07,12.08,12.08,0,0,0-.41,3.21,21.77,21.77,0,0,1,1.31-2.85,16.49,16.49,0,0,1,1.68-2.52,10.73,10.73,0,0,1,2.08-2,8.33,8.33,0,0,1,2.46-1.18,8,8,0,0,1,2.71-.28,4.11,4.11,0,0,1,2.24.77,8.83,8.83,0,0,1,2.88,4.49,27.84,27.84,0,0,1,1.19,5.89c.1,1,.16,2,.19,3.05,0,.42.06,11.07.09,14.61a1.15,1.15,0,0,0,1.15,1.14h0A1.14,1.14,0,0,0,481,803c0-1.48.1-3.27.1-3.27a16.15,16.15,0,0,1,.49-2.37c.23-.81.49-1.63.8-2.43a22.28,22.28,0,0,1,2.31-4.57,12.57,12.57,0,0,1,1.61-1.94,8.29,8.29,0,0,1,2-1.45,6.45,6.45,0,0,1,2.44-.66,9,9,0,0,1,2.67.24A7.64,7.64,0,0,0,490.77,785.55Z"/><path class="cls-2" d="M184.45,831.71c4.59-3.56,8.61,8.4,12.39,6.62s-2-11.76,4.51-11.56c4.92.15.92,9.51,6.79,15.09s9.53,18.15,5,18.74-3.17-5.17-6.19-4.3-6,11.91-11.54,8.33,4.94-8.53,3.91-11.76c-1.33-4.17-12.05,5.59-14.58,1.53-2.79-4.46,6.43-5.36,6.32-8.87S179.4,835.64,184.45,831.71Z"/><path class="cls-6" d="M192.35,840.35s11.86,14.2,22.07,10.28"/><path class="cls-2" d="M358.37,858.08a2.54,2.54,0,0,0,1.24-3.68c-2-3.27-7.24-2.95-6.84-5.32.48-2.84,4.33-1.83,4.11-4.2s-5.93-2.7-9.53-1.19-4.23.85-4.25-.41,4-3,2.21-5.71c-1.39-2-6.24.58-9.79,3.8-2.6,2.36-4.48-.88-3.15-3.53,0,0-8-4.69-13.35,1.66s-2,11.88.59,11.81,4.87-1.77,6.1,2.4a19.54,19.54,0,0,0,1.62,4.45,3.13,3.13,0,0,0,5.7-2.42c-.42-1.61-.93-3.11.48-4,2.75-1.71,4.37,9.61,9.64,9s.37-6,3.35-7.76C348.7,851.76,352.54,860.42,358.37,858.08Z"/><path class="cls-2" d="M338.68,800.86c2.05-1.53,4.29,2.95,7.55,1.75s5.58-6.69,9-4.28-5.4,8.65-.62,11,5.88,4.55,4.78,6.21-11,2.48-10.31,5.67,5.43,4.57,3,7.62-13.44,5-15.17,3.67-5.54-5.19-4.46-14.06,7.24-7.71,6.61-10.69S337,802.14,338.68,800.86Z"/><path class="cls-6" d="M349.85,804.6a44.48,44.48,0,0,0-10.46,20.13"/><path class="cls-2" d="M283.35,875.29c1.4,2.87,6.35,1.09,8.39-2.21,2.43-3.92,4.67-2,6.83.27s5.39,1.29,5.5-3-2.07-8.54.9-9c2.18-.37,4,4.81,6.7,3.79,4.09-1.54-1.09-7.54,1.29-11.05s5.11-3.32,7.64-8c3.66-6.72-2.64-10.82-6.62-10s-12,8.07-15.2,10.19-6.78,3.68-6.7,5.78c.06,1.87,2.69,3.25,1.52,4.85-1.47,2-10.07-2-11.05,3-.67,3.39,4.3,3.85,5.12,6.31C288.67,869.25,281.5,871.49,283.35,875.29Z"/><path class="cls-6" d="M293.76,865.26s0-4.53,6-7.31,7.72-9.48,7.68-12.8"/><path class="cls-6" d="M203.84,819.43a2.44,2.44,0,0,0,3.08,1c1.71-.77.87-5,4.37-5.84,3.92-1,6.87,4.39,14.8,2.76"/><path class="cls-2" d="M241.27,803.86c3.39-3.23,6.72,1.26,8.45,3.15,2.21,2.41,3.93,2.64,5.43,1s3.1-6.49,5.31-5.09c3.45,2.19-.63,9,2.26,10.2,3.69,1.54,3.17-5.06,7-4.61,4.05.48,3.63,16.37,3.63,16.37l-19.7,3.92a47.83,47.83,0,0,1-7.9-9.38C241.87,813.55,238.62,806.38,241.27,803.86Z"/><path class="cls-6" d="M245.49,808.71s12,7.74,17.59,18.25"/><path class="cls-6" d="M280.67,793.26s-4.43.45-4.61,6,1.58,8.12-2.77,12.24"/><path class="cls-2" d="M264,864.53s8.08,5.14,13.45.34c4.06-3.62,3.52-9,13.86-7s11.48-13.18,11.48-13.18L279,840.23l-10.84,17.1Z"/><path class="cls-8" d="M336.26,804.92a16.06,16.06,0,0,1-12.09-3.25s-9,2.18-13.24-1.45c0,0-8,5.49-11.42,1.34a8.52,8.52,0,0,1-10.29.64s-8.64,6.87-16.08,8.32a29.07,29.07,0,0,0-2.92,5.93s7-8.15,15.46-5c0,0,6.87-5.93,15.43-3.46,0,0,6.75-7.32,22-.31,0,0,6-4,12.11,3.42,0,0,2.11-2.61,4.73.3A22.56,22.56,0,0,0,336.26,804.92Z"/><path class="cls-7" d="M331.43,836.9s-5.16-2.35-8.51,1.2A11.1,11.1,0,0,0,312,841s-4.46-4.82-9-.87c0,0-4.77-3.52-10.63.75,0,0-5.79-4.27-11.33-1.58,0,0-2-3.64-8.55-3.77,6.52,10.28,21.44,16,37.43,13.22,10.74-1.84,19.75-7.1,25.34-14A8.56,8.56,0,0,0,331.43,836.9Z"/><path class="cls-7" d="M335.22,811.07c-6.07-7.44-12.11-3.42-12.11-3.42-15.25-7-22,.31-22,.31-8.56-2.47-15.43,3.46-15.43,3.46-8.41-3.12-15.46,5-15.46,5a23.81,23.81,0,0,0-1.06,4.51,13,13,0,0,0,8.3-1.31c12.1-5.62,14.27-3.84,14.27-3.84-2.25,3.24,1,3.7,7.13.76,6.91-3.33,10.94-2.34,10.94-2.34,2.11,6.09,7.91-1.57,7.91-1.57,6.4,8.05,14.28,1.7,14.28,1.7,2.84,4.23,6.51,4.33,9.27,3.54a20.77,20.77,0,0,0-.29-2.71,21.28,21.28,0,0,0-1-3.82C337.33,808.46,335.22,811.07,335.22,811.07Z"/><path class="cls-7" d="M289.22,802.2a8.52,8.52,0,0,0,10.29-.64c3.45,4.15,11.42-1.34,11.42-1.34,4.28,3.63,13.24,1.45,13.24,1.45a16.06,16.06,0,0,0,12.09,3.25c-7.14-8.86-21-13.55-35.84-11-12.09,2.07-22,8.49-27.28,16.61C280.58,809.07,289.22,802.2,289.22,802.2Z"/><path class="cls-7" d="M337.35,824.36c-5.12-3.49-12.14.12-12.14.12-14.56-5.6-15.18,2.37-15.18,2.37-18.12-6-17.06,2-17.06,2-8.55-6-17.14-.8-17.14-.8-2.82-3.45-5.32-3.85-6.85-3.64a21.41,21.41,0,0,0,.3,3.07,21.75,21.75,0,0,0,1.58,5.18,20.46,20.46,0,0,0,10.44-1.15s6.05,8.27,19.11,1.29c0,0,5.55,3.59,11.12.33,0,0,5.25,3.4,15-1.72,0,0,4.4,2.57,12.47-2.71a24,24,0,0,0,2.05-6.82A9.31,9.31,0,0,0,337.35,824.36Z"/><path class="cls-8" d="M332,814.36s-7.88,6.35-14.28-1.7c0,0-5.8,7.66-7.91,1.57,0,0-4-1-10.94,2.34-6.1,2.94-9.38,2.48-7.13-.76,0,0-2.17-1.78-14.27,3.84a13,13,0,0,1-8.3,1.31,22.23,22.23,0,0,0-.18,3.46c1.53-.21,4,.19,6.85,3.64,0,0,8.59-5.23,17.14.8,0,0-1.06-8,17.06-2,0,0,.62-8,15.18-2.37,0,0,7-3.61,12.14-.12a9.31,9.31,0,0,1,3.72-2.47,22.14,22.14,0,0,0,.19-4C338.5,818.69,334.83,818.59,332,814.36Z"/><path class="cls-8" d="M326.55,831.42c-9.77,5.12-15,1.72-15,1.72-5.57,3.26-11.12-.33-11.12-.33-13.06,7-19.11-1.29-19.11-1.29a20.46,20.46,0,0,1-10.44,1.15,22.63,22.63,0,0,0,1.54,2.87c6.57.13,8.55,3.77,8.55,3.77,5.54-2.69,11.33,1.58,11.33,1.58,5.86-4.27,10.63-.75,10.63-.75,4.59-3.95,9,.87,9,.87a11.1,11.1,0,0,1,11-2.91c3.35-3.55,8.51-1.2,8.51-1.2a8.56,8.56,0,0,1,3.74-2.09,29.3,29.3,0,0,0,3.85-6.1C331,834,326.55,831.42,326.55,831.42Z"/><path class="cls-8" d="M279.67,833.54a16.77,16.77,0,0,1-11.51-6.25s-9.63.05-13.11-4.68c0,0-9.42,3.65-11.93-1.41a8.9,8.9,0,0,1-10.62-1.85s-10.45,4.89-18.36,4.57a30,30,0,0,0-4.4,5.32s9.14-6.58,16.93-1.37c0,0,8.43-4.35,16.53.23,0,0,8.63-5.81,22.44,5,0,0,7.12-2.62,11.47,6.41,0,0,2.78-2.13,4.74,1.46A23.53,23.53,0,0,0,279.67,833.54Z"/><path class="cls-7" d="M267,864.88s-4.67-3.65-8.93-.85a11.61,11.61,0,0,0-11.85.3s-3.37-6-9-3.08c0,0-4-4.74-11-1.81,0,0-4.85-5.75-11.14-4.36,0,0-1.12-4.19-7.77-5.91,4.13,12,17.92,21.43,34.84,22.52,11.36.74,21.8-2.43,29.14-8A8.82,8.82,0,0,0,267,864.88Z"/><path class="cls-7" d="M277.11,839.53c-4.35-9-11.47-6.41-11.47-6.41-13.81-10.83-22.44-5-22.44-5-8.1-4.58-16.53-.23-16.53-.23-7.79-5.21-16.93,1.37-16.93,1.37a25,25,0,0,0-2.18,4.32c1.93.93,4.76,1.5,8.76.68,13.66-2.77,15.43-.44,15.43-.44-3.07,2.75.16,4,7.07,2.5,7.83-1.7,11.69.28,11.69.28.67,6.71,8.42.33,8.42.33,4.56,9.73,14.1,5.19,14.1,5.19,1.86,5,5.57,6,8.57,5.84a23.89,23.89,0,0,0,.37-2.82,23.65,23.65,0,0,0-.12-4.13C279.89,837.4,277.11,839.53,277.11,839.53Z"/><path class="cls-7" d="M232.5,819.35a8.9,8.9,0,0,0,10.62,1.85c2.51,5.06,11.93,1.41,11.93,1.41,3.48,4.73,13.11,4.68,13.11,4.68a16.77,16.77,0,0,0,11.51,6.25c-5.12-10.75-18.1-18.88-33.77-19.89-12.79-.83-24.41,3.29-31.76,10.27C222.05,824.24,232.5,819.35,232.5,819.35Z"/><path class="cls-7" d="M276.05,853.56c-4.36-4.78-12.36-2.82-12.36-2.82-13.45-9.22-16-1.27-16-1.27-17-10.48-17.83-2.1-17.83-2.1-7.22-8.2-17.23-5-17.23-5-2-4.19-4.48-5.21-6.08-5.36a22.27,22.27,0,0,0-.44,3.19,22.65,22.65,0,0,0,.35,5.65,21.33,21.33,0,0,0,10.89,1.36s4.14,9.88,19.11,6c0,0,4.78,5,11.22,3,0,0,4.52,4.74,15.7,1.9,0,0,3.85,3.68,13.33.27a24.62,24.62,0,0,0,3.73-6.43A9.81,9.81,0,0,0,276.05,853.56Z"/><path class="cls-8" d="M273,842.1s-9.54,4.54-14.1-5.19c0,0-7.75,6.38-8.42-.33,0,0-3.86-2-11.69-.28-6.91,1.51-10.14.25-7.07-2.5,0,0-1.77-2.33-15.43.44-4,.82-6.83.25-8.76-.68a23.15,23.15,0,0,0-1,3.48c1.6.15,4.06,1.17,6.08,5.36,0,0,10-3.23,17.23,5,0,0,.86-8.38,17.83,2.1,0,0,2.56-8,16,1.27,0,0,8-2,12.36,2.82a9.81,9.81,0,0,1,4.38-1.6,22.32,22.32,0,0,0,1.17-4C278.6,848.08,274.89,847.09,273,842.1Z"/><path class="cls-8" d="M263.37,858.12c-11.18,2.84-15.7-1.9-15.7-1.9-6.44,2-11.22-3-11.22-3-15,3.93-19.11-6-19.11-6a21.33,21.33,0,0,1-10.89-1.36,23.44,23.44,0,0,0,.87,3.29c6.65,1.72,7.77,5.91,7.77,5.91,6.29-1.39,11.14,4.36,11.14,4.36,7-2.93,11,1.81,11,1.81,5.62-2.9,9,3.08,9,3.08a11.61,11.61,0,0,1,11.85-.3c4.26-2.8,8.93.85,8.93.85a8.82,8.82,0,0,1,4.31-1.22,30.35,30.35,0,0,0,5.4-5.27C267.22,861.8,263.37,858.12,263.37,858.12Z"/></svg>