<?xml version="1.0" encoding="utf-8"?>
<!-- Generator: Adobe Illustrator 22.1.0, SVG Export Plug-In . SVG Version: 6.00 Build 0)  -->
<svg version="1.1" id="圖層_1" xmlns="http://www.w3.org/2000/svg" xmlns:xlink="http://www.w3.org/1999/xlink" x="0px" y="0px"
	 viewBox="0 0 643.7 987.3" style="enable-background:new 0 0 643.7 987.3;" xml:space="preserve">
<style type="text/css">
	.st0{fill:#58AD5D;stroke:#000000;stroke-width:0.43;stroke-miterlimit:10;}
	.st1{fill:#FFE6C7;stroke:#000000;stroke-width:0.43;stroke-miterlimit:10;}
	.st2{fill:#FFAA85;stroke:#000000;stroke-width:0.43;stroke-miterlimit:10;}
	.st3{fill:none;stroke:#231815;stroke-width:0.43;stroke-miterlimit:10;}
	.st4{fill:#D6CD25;stroke:#000000;stroke-width:0.43;stroke-miterlimit:10;}
	.st5{fill:#1789A0;stroke:#000000;stroke-width:0.43;stroke-linecap:round;stroke-linejoin:round;stroke-miterlimit:10;}
	.st6{fill:#1789A0;stroke:#000000;stroke-width:0.43;stroke-miterlimit:10;}
	.st7{fill:#1789A0;stroke:#000000;stroke-width:0.43;stroke-linejoin:round;stroke-miterlimit:10;}
	.st8{fill:#FFFFFF;stroke:#000000;stroke-width:0.43;stroke-linejoin:round;stroke-miterlimit:10;}
	.st9{fill:#231815;}
	.st10{fill:none;stroke:#000000;stroke-width:0.43;stroke-miterlimit:10;}
	.st11{fill:none;stroke:#231815;stroke-width:0.43;stroke-linejoin:round;stroke-miterlimit:10;}
</style>
<g>
	<path class="st0" d="M67.1,769.3c0,0,1.5,95.3,69.7,129.4c48.8,24.4,92.9,21.2,155.1,46.3c63.9,25.8,139.3-14.8,172.3-31.2
		c65-32.3,99-83.6,98.9-180.1L67.1,769.3z"/>
	<path class="st1" d="M563,719.1c0,0-7.1-72.7-76.2-116.3c0,0,0,0,0,0c-59.5-40.6-31.4-68.4-70.9-114c-35.1-40.5-25.3-87.1-49-100.3
		c-30-16.8-55,13.3-79.3,45.3c-23.3,30.7-50.2,53.2-80.9,95.9c-33.3,46.3-76.8,91-76.8,91c0,0,0,0,0,0
		c-23.2,16.6-41.5,37.6-52.6,63.8c-9.5,22.4-13.6,48.5-10.8,78.8c0.2,2,0.4,4.1,0.6,6.1c6.8,57.1,57.8,102.7,186.3,114.3
		C389.4,895.9,569.8,870,563,719.1z"/>
	<g>
		<g>
			<path class="st0" d="M239.9,423.2c0,0-2.3-10.1,2.2-13.3c4,3.1,2.3,13.3,2.3,13.3H239.9z"/>
			<path class="st0" d="M246.4,426.3c1.1-5,3.8-7.7,1.2-9.2c-2.3-1.3-5.4,3.8-5.6,4.5c-0.2-0.7-3.3-5.8-5.6-4.5
				c-2.6,1.4,0.1,4.1,1.2,9.2c1.3,5.7,5.9,35.5,2.8,41.5h1.6h1.6C240.5,461.8,245.2,432,246.4,426.3z"/>
			<path class="st0" d="M246.2,433.3c1.1-5.2,4.3-8,1.6-9.5c-2.4-1.3-5.5,3.9-5.8,4.6c-0.2-0.7-3.4-6-5.8-4.6
				c-2.7,1.5,0.5,4.3,1.6,9.5c1.3,5.9,0.7,74.4,0.7,74.4h3.5h3.5C245.5,507.6,244.9,439.2,246.2,433.3z"/>
		</g>
		<g>
			<path class="st0" d="M266.1,423.2c0,0-2.3-10.1,2.2-13.3c4,3.1,2.3,13.3,2.3,13.3H266.1z"/>
			<path class="st0" d="M272.6,426.3c1.1-5,3.8-7.7,1.2-9.2c-2.3-1.3-5.4,3.8-5.6,4.5c-0.2-0.7-3.3-5.8-5.6-4.5
				c-2.6,1.4,0.1,4.1,1.2,9.2c1.3,5.7,5.9,35.5,2.8,41.5h1.6h1.6C266.7,461.8,271.3,432,272.6,426.3z"/>
			<path class="st0" d="M272.4,433.3c1.1-5.2,4.3-8,1.6-9.5c-2.4-1.3-5.5,3.9-5.8,4.6c-0.2-0.7-3.4-6-5.8-4.6
				c-2.7,1.5,0.5,4.3,1.6,9.5c1.3,5.9,0.7,74.4,0.7,74.4h3.5h3.5C271.7,507.6,271.1,439.2,272.4,433.3z"/>
		</g>
		<g>
			<path class="st0" d="M294.1,423.2c0,0-2.3-10.1,2.2-13.3c4,3.1,2.3,13.3,2.3,13.3H294.1z"/>
			<path class="st0" d="M300.6,426.3c1.1-5,3.8-7.7,1.2-9.2c-2.3-1.3-5.4,3.8-5.6,4.5c-0.2-0.7-3.3-5.8-5.6-4.5
				c-2.6,1.4,0.1,4.1,1.2,9.2c1.3,5.7,5.9,35.5,2.8,41.5h1.6h1.6C294.7,461.8,299.4,432,300.6,426.3z"/>
			<path class="st0" d="M300.4,433.3c1.1-5.2,4.3-8,1.6-9.5c-2.4-1.3-5.5,3.9-5.8,4.6c-0.2-0.7-3.4-6-5.8-4.6
				c-2.7,1.5,0.5,4.3,1.6,9.5c1.3,5.9,0.7,74.4,0.7,74.4h3.5h3.5C299.7,507.6,299.1,439.2,300.4,433.3z"/>
		</g>
	</g>
	<g>
		<g>
			<path class="st0" d="M371,353.1c0,0,38,30,39.1,80.6h4.8c0,0,0-48.9-38.4-89l-9.7-1.6L371,353.1z"/>
		</g>
		<g>
			<path class="st2" d="M293.6,384.8c-15.5-13.1-6.9-58.6,63.3-57.9C356.9,326.9,321.9,408.6,293.6,384.8z"/>
			<path class="st3" d="M293.6,384.8c0,0,15.5-31.3,63.3-57.9c0,0-37.4,36.4-48.6,61.8"/>
			<path class="st3" d="M287.6,374.2c0,0,17.4-36.7,69.3-47.3"/>
		</g>
		<g>
			<path class="st2" d="M316.3,289.8c8.6-16.2,42.9-19.5,55.9,0c9.3,14,7.6,34.3-13,41.5C338.6,338.5,298.1,324.2,316.3,289.8z"/>
			<path class="st3" d="M317.8,287.6c0,0,22.4,12.5,41.4,43.8c0,0-1.3-39.8-20.7-54.6"/>
			<path class="st3" d="M311.7,309.1c0.2-0.2,22.2,1.8,47.5,22.2"/>
		</g>
		<g>
			<path class="st2" d="M358.9,396.2c11.3,0,18.5-7.7,18.7-29.7c0.2-22-20.7-39.6-20.7-39.6s-14.4,8.8-16.7,37.7
				C338.2,388.5,349.3,396.2,358.9,396.2z"/>
			<path class="st3" d="M349.5,393.4c0,0-3-30,7.5-66.5c0,0,7.7,30.6,2,69.3"/>
			<path class="st3" d="M356.9,326.9c20.7,32.5,12.5,66.5,12.5,66.5"/>
		</g>
		<g>
			<path class="st2" d="M428.4,339.4c6.5-15.6-10.5-32.9-32.8-30.3c-22.2,2.7-36.4,17.6-36.4,17.6s7,20.7,27.8,26.1
				C407.9,358.1,422.7,352.9,428.4,339.4z"/>
			<path class="st3" d="M429.7,333.3c0,0-24.4-23.1-70.5-6.7c0,0,54.4,5.9,68.6,14"/>
			<path class="st3" d="M424,346.4c0,0-40,8.5-64.8-19.7"/>
		</g>
		<g>
			<path class="st2" d="M387.6,272.7c12.6,1,17.5,13.4,6.9,32C383.9,323.4,361,324,361,324s-4.6-18.3,5.2-36.4
				C372.1,276.7,381.3,272.2,387.6,272.7z"/>
			<path class="st3" d="M387.6,272.7c0,0-22.3,18.7-26.6,51.3c0,0,18.6-31.5,34.3-48.5"/>
			<path class="st3" d="M398.5,279.1c0,0,0.2,26.8-37.5,44.9"/>
		</g>
		<path class="st4" d="M346.2,329c0,0-4,3.6-6,12.4c-2.5,11.3,6.1,15.6,11.7,7.7c5.4-7.6,5-15.8,5-15.8s4.1,15.8,13.9,11.6
			c9.8-4.3-0.3-17.7-6.5-19c0,0,7.1,3.8,13.2-4.1c6.1-7.9-3.2-15.6-13.9-4.3c0,0,5.6-17.1-3.6-17.2c-9.2-0.2-4.1,18.1-4.1,18.1
			s-19.3-6.8-21.5,1.9C332.4,328.8,346.2,329,346.2,329z"/>
		<g>
			<path class="st5" d="M338.8,306.1c3.7-3.3,14.8,9.1,18.1,20.8C356.9,326.9,332.4,311.9,338.8,306.1z"/>
			<path class="st5" d="M332.4,328.8c-1.2-5.8,13.7-6.8,24.6-1.9C356.9,326.9,334.3,338.3,332.4,328.8z"/>
			<path class="st5" d="M355.2,300.2c4.7-0.8,7.4,17.7,1.7,26.7C356.9,326.9,347,301.6,355.2,300.2z"/>
		</g>
	</g>
	<g>
		<path class="st6" d="M138.7,485.1c0,0,19.7-0.7,18.3-20.1C157.1,465,141.6,460.2,138.7,485.1z"/>
		<path class="st6" d="M140.3,461.6c0.8,2.5,2.5,15.9-16.5,18.2C123.8,479.7,126.1,459.9,140.3,461.6z"/>
		<path class="st6" d="M142.7,472.6c0,0,11.7-13.1-1.5-24.2C141.1,448.4,128.5,455.3,142.7,472.6z"/>
		<path class="st6" d="M136.3,420c0,0-10.3,17,3.4,25.7C139.7,445.7,149.4,435.4,136.3,420z"/>
		<path class="st6" d="M163.4,444.2c-2.4-0.6-13.8-6.4-5.6-22.4C157.9,421.8,172.1,433.9,163.4,444.2z"/>
		<path class="st6" d="M162.5,443.5c-1.6,2-12.1,10.7-24.2-4.1C138.3,439.4,156.3,430.7,162.5,443.5z"/>
		<path class="st6" d="M198.9,450c0,0-7.7,11.9,8.9,21.7C207.8,471.7,214.1,453.1,198.9,450z"/>
		<path class="st6" d="M225.3,461.1c0,0-14.9,5.3-21-11.9C204.3,449.2,219,440.7,225.3,461.1z"/>
		<path class="st6" d="M198.6,443.3c0,0,8.5,13.1,23.9-0.2C222.5,443.2,212.5,429.6,198.6,443.3z"/>
		<path class="st6" d="M200.8,431.4c-0.6-2.4-1.2-15.1,16.8-15.8C217.6,415.6,214,434,200.8,431.4z"/>
		<path class="st6" d="M199.9,434.2c1.1-2.2,9.3-12,23.1-0.3C222.9,433.9,207.8,445,199.9,434.2z"/>
		<path class="st6" d="M175.1,446c0,0-11.7,11,1.1,26.1C176.2,472.1,190.6,457.4,175.1,446z"/>
		<path class="st6" d="M169.9,426.9c0,0,12.4,12.6,27.8,0.6C197.7,427.5,188.4,412.6,169.9,426.9z"/>
		<path class="st6" d="M199.1,409c0,0-16.5,10.7-5.4,26.7C193.7,435.6,209.4,431.8,199.1,409z"/>
		<path class="st6" d="M108.9,445.6c0,0,10.4,12.9,22.7,2.3C131.7,447.9,127.2,435.1,108.9,445.6z"/>
		<path class="st6" d="M109.4,461.6c0,0,19.6,3.3,22.6-12.7C132,448.9,118.9,443.7,109.4,461.6z"/>
		<circle class="st1" cx="159.3" cy="474.2" r="8.2"/>
		<circle class="st1" cx="198.7" cy="435.7" r="8.2"/>
		<circle class="st1" cx="199.9" cy="448.4" r="8.2"/>
		<circle class="st1" cx="181.8" cy="445.6" r="8.2"/>
		<path class="st0" d="M139.6,448.6c5.4,10.3,15,15.3,35.3,31.3c39.9,31.5,29.9,63.3,46.2,56c10.8-4.9-17.3-32.6-23.5-49.1
			c-4.7-12.5-0.8-21.6-2.2-37.3c-1.1-12.8-4.5-25.2-9.6-22.5c-4.7,2.5,8.4,36.6-3.5,42.5c-13.8,6.9-31.6-25.1-39-28
			C139.4,439.9,137,443.6,139.6,448.6z"/>
		<circle class="st1" cx="135.1" cy="444.6" r="8.2"/>
		<circle class="st1" cx="166" cy="447.4" r="8.2"/>
		<circle class="st1" cx="131" cy="458.7" r="8.2"/>
	</g>
	<g>
		<path class="st4" d="M205.7,795c47,4.2,101,24.9,141.1,0c40.1-24.9,100.3-35.3,89.9-87.2c-10.4-51.9-73.3-60.2-139-69.1
			c-65.7-8.9-105.8,0.6-157,13.7c-51.2,13.1-63.4,31.9-63.4,31.9c-9.5,22.4-13.6,48.5-10.8,78.8C87.6,805.4,158.7,790.8,205.7,795z"
			/>
	</g>
	<g>
		<circle class="st2" cx="534.2" cy="462.9" r="4.4"/>
		<circle class="st2" cx="513.1" cy="489" r="4.4"/>
		<circle class="st2" cx="532.6" cy="499.6" r="4.4"/>
		<circle class="st2" cx="501.1" cy="501.7" r="4.4"/>
		<circle class="st2" cx="519.9" cy="522.3" r="4.4"/>
		<circle class="st2" cx="542.1" cy="476.9" r="3.9"/>
		<circle class="st2" cx="523.7" cy="472.6" r="3.9"/>
		<path class="st3" d="M533.3,467.3c0,0-11.1,55.5-60.6,70.8"/>
		<path class="st3" d="M524.1,476.5c0,0,0.7,5,3.6,8c0,0,6.6-1.3,11.2-5.3"/>
		<path class="st3" d="M513.1,493.4c0,0,1.1,9.4,3.3,11.8c0,0,5.7,0.5,13.2-2.4"/>
		<path class="st3" d="M501.1,506.1c0,0-0.5,10.1,1.4,15.1c0,0,7.9,1.8,13.1,1.8"/>
	</g>
	<path class="st3" d="M357.5,114.7c0,0-1.8,10-0.8,24.2"/>
	<path class="st3" d="M173.7,281.7c0.8-0.3,11.8-3.5,19.8-3.8"/>
	<g>
		<path class="st0" d="M185.4,240.1c0,0-16.1-11.6-46.4-10.9c-27.8,0.7-42.3-15.7-39.1-49.2c3.7-38.6,38.4-53,48.2-67.1
			c9.8-14.2,6.8-32.8,23.4-36.9c15.7-3.9,24.6,14.2,24.6,14.2s-9.5-29,12.3-40.6c17.4-9.3,23.4,3.7,48-4.9s39.9-15.3,51-6.8
			c18.7,14.3-2.4,36.3,18.5,67.1c0,0-9.2,148.6-11.1,146.9C313.1,250.2,185.4,240.1,185.4,240.1z"/>
		<g>
			
				<ellipse transform="matrix(0.4649 -0.8854 0.8854 0.4649 3.6863 264.0356)" class="st2" cx="220.3" cy="129" rx="13.7" ry="9.7"/>
			<path class="st3" d="M227.7,135.4c0,0,29.6,19.8,55.7,54.7"/>
		</g>
		<g>
			
				<ellipse transform="matrix(0.8864 -0.463 0.463 0.8864 -21.1829 131.6798)" class="st2" cx="257.7" cy="109" rx="12.7" ry="5.8"/>
			<path class="st3" d="M259.1,114.7c0,0,11.4,36.2,29.3,58.3"/>
		</g>
		<g>
			
				<ellipse transform="matrix(0.2094 -0.9778 0.9778 0.2094 5.1376 328.4177)" class="st2" cx="205.7" cy="161" rx="13.3" ry="7.6"/>
			<path class="st3" d="M267.3,185c-24.4-25.4-53.5-25-53.5-25"/>
		</g>
		<g>
			
				<ellipse transform="matrix(0.7858 -0.6184 0.6184 0.7858 -34.958 184.8547)" class="st2" cx="249.4" cy="142.9" rx="13.6" ry="9.2"/>
			<path class="st3" d="M256.7,148.6c0,0,11.5,20.9,23.1,30.8"/>
		</g>
		<g>
			
				<ellipse transform="matrix(0.9737 -0.2277 0.2277 0.9737 -19.5002 66.4127)" class="st2" cx="278.1" cy="117.7" rx="7.5" ry="4.3"/>
			<path class="st3" d="M277.4,122.1c0,0-0.4,12.3,2.4,24.7"/>
		</g>
		<path class="st4" d="M223.2,195.4c3.1-6.2-2.9-18.5,21-22.8c23.9-4.3,12.2-28.9,30.1-41.2c17.8-12.3,34,15.4,34,15.4
			s12.8,89.1,9.8,91.8C315.2,241.3,223.2,195.4,223.2,195.4z"/>
		<path class="st3" d="M148.2,180.9c0,0,19.4-4.5,41.3,0.9"/>
		<path class="st3" d="M154.8,164c0,0,23.3-0.8,33.7,5.5"/>
		<path class="st3" d="M165.4,145.5c0,0,13.2,3.4,17.2,7.4"/>
		<path class="st3" d="M173.9,132.5c0,0,6.2,3.8,8.6,6.6"/>
		<path class="st3" d="M281.2,52.1c0,0-6.9,20.4-2.7,44.3"/>
		<path class="st3" d="M269.1,56.5c0,0-4.2,19.1,1,36.5"/>
		<path class="st3" d="M254.3,62.9c0,0-0.5,12,1.2,19.1"/>
		<path class="st3" d="M237.8,69.9c0,0,0.4,4.4,2.2,7.8"/>
		<path class="st3" d="M288.4,60.3c0,0-2,6.8-2.2,17.4"/>
		<g>
			<path class="st0" d="M309.6,224.9c0,0-15.9-13.3-20.7-83.7c-3.9-56.1,17.4-60.9,27-59.8c11.4,1.4,9.6-11.7,23.9-13
				c16.7-1.5,29.8,18.4,26.3,51.8c0,0,8,14.2,9,32.9s-9.9,97.2-12,98.3c-2.1,1-36.9,0-36.9,0L309.6,224.9z"/>
			<path class="st3" d="M346.6,93c0,0-2.7,35.2,0,65.6"/>
			<path class="st3" d="M331.8,104.8c0,0-1.4,16.7,0,27.6"/>
			<path class="st3" d="M318.6,106.6c0,0,1.4,11.9,2.5,19.2"/>
		</g>
		<g>
			<path class="st0" d="M171.6,294.3c0,0-32.7-11.6-32.5-37.9c0.2-30.4,32.1-24,48.3-55.6c20.8-40.7,94.4-27.1,151.4,35.8
				c0,0,13.2,33.7,10.2,35.8C346.1,274.7,199,315,171.6,294.3z"/>
			<path class="st3" d="M165.4,258.4c1.8-0.5,38.9-5.1,56.1,0"/>
			<path class="st3" d="M165.4,270.2c0,0,32.7-6.3,47.4-1.3"/>
			<path class="st3" d="M184.7,245.2c0,0,18.7-3.6,33.5,1.5"/>
			<path class="st3" d="M207.7,233.4c1,0,8.2,0,12.6,3.5"/>
		</g>
		<path class="st3" d="M262.4,177c0,0,6.6,1.2,12.3,7.5"/>
		<path class="st3" d="M279.8,161.5c0,0,1.2,6.6,5.4,11.9"/>
		<path class="st3" d="M271.5,171.2c0,0,5.1,3.5,7.6,6.8"/>
		<path class="st1" d="M171.6,294.3c0,0,35.2,30,127.5-3.8c90.8-33.2,140.6,96.8,119.9,165.8c-25.8,86-16.4,117.4-16.4,117.4
			l35.4,15.1c0,0-12.5-70.3,0-126.6c15.3-69.2-13.7-128.6-33.2-161.8c-24.3-41.5-26.8-66.2-24.6-116.1s-14.1-64-14.1-64
			s9.7,40.2,0,69.2c-9.7,29-8.2,51.4-8.2,51.4s-11.2-45.4-35-70c0,0,6.7,19.4,6.7,47.6s11.9,33.5,11.9,33.5s-17.1-13.4-45.6-12.1
			c-32.3,1.4-33.3,12.1-60.1,13.6c0,0,13.7,8.2,51.2,8.2s41.9,3.7,41.9,3.7s-25.1-3.7-77.4,19.4
			C199.2,307.8,171.6,294.3,171.6,294.3z"/>
	</g>
	<g>
		<path class="st5" d="M541.4,201.9c0,0-5.6,25.1-20.2,47.5c-14.6,22.4-34.9,43.2-29.7,109.3c0,0,9.8-14.7,27.1-31.2
			C540.1,307,557.5,268.6,541.4,201.9z"/>
		<path class="st3" d="M541.4,201.9c0,0,3.2,50.4-25.1,93.6c-24.3,37.1-24.8,63.2-24.8,63.2"/>
		<path class="st3" d="M519.7,251.7c0,0,6.7,13.5-0.2,38.6c0,0,14.9-26,28.1-35.6"/>
		<path class="st3" d="M507.8,269.7c0,0,4.6,21.2-1.9,43.4"/>
		<path class="st3" d="M493.9,304.7c0,0,6.4,16,4.9,24.3"/>
		<path class="st3" d="M504.4,316.1c0,0,15.7-18.6,37.6-26.8"/>
		<path class="st3" d="M496.4,335.6c0,0,13.3-11.2,28.8-15.2"/>
	</g>
	<g>
		<g>
			<path class="st2" d="M432.1,301.4c0,0-5.6,19.8,8.2,32.1c0,0,6.5,5.1,12.5,4.5c3.7-0.4,12.8-7.5,12.8-7.5l-1.1-12.6
				c0,0-5-18.2-24.4-21.3c0,0,2.9-9-0.8-9.3c-3.7-0.3-2.1,7.9-2.1,7.9s-3.5-8.8-7.2-6.3c-3.4,2.3,3.4,8.8,3.4,8.8s-8.5-4.2-9.2-0.2
				C423.8,301.5,432.1,301.4,432.1,301.4z"/>
			<path class="st3" d="M435.7,304.7c0,0-0.9,23.2,13.8,29.5"/>
			<path class="st3" d="M440.3,308.5c0,0,1.7,15.4,13.9,21.7"/>
			<path class="st3" d="M442.1,305.3c0,0,7.7,6.8,10.2,15.1"/>
			<path class="st3" d="M446.9,303.1c0,0,12.8,6.8,13.6,23.3"/>
		</g>
		<g>
			<path class="st2" d="M370.1,199.8c-0.1-12.6,13.5-26.1,37.5-24.7c22.1,1.3,39.7,22,39.7,22s-11.8,18.5-35.5,23.3
				S370.2,221.2,370.1,199.8z"/>
			<path class="st3" d="M370.1,199.8c0,0,30.2-10.5,76.4,4.6c0,0-35.8-25.5-70.4-18.9"/>
			<path class="st3" d="M374.9,214.9c0.5,0.5,19.8-12.8,71.6-10.4"/>
		</g>
		<path class="st2" d="M450.2,194.4c0,0,14.8-14.4,39.2-18.5c23.7-3.9,41.6,3.4,37,23c-4.6,19.7-30.6,19.4-44.8,14.9
			C467.3,209.5,455.8,201.5,450.2,194.4z"/>
		<path class="st3" d="M515.2,213c0,0-20.3-14.4-65-18.5c54-4.8,75.4,7.1,75.4,7.1"/>
		<g>
			<path class="st2" d="M447.3,197.1c0,0-17.3,19.3-12,53.5c5.3,34.3,42.5,27.1,44.5-2.7S465.3,199.7,447.3,197.1z"/>
			<path class="st0" d="M473.4,265.1c0,0,25.5,72.7,5.6,119.8c0,0-2.8-24-12.3-41.4c-1.7-3-1.9-6.7-0.6-9.9c1.8-4.5,1.5-13.4-2.3-18
				c0,0,2.6,11.4-3.2,16.3c0,0-4.9-4.4-6.4-9.2c0,0-1.8,8,2,12.3c0,0-8.1,1.6-15.8-1.4c0,0,2.5,5.3,14.6,5.8c3,0.1,5.6,2.2,7,4.9
				c4.7,9.1,14.2,30.8,12.6,54.5l4.4,1.1c0,0,32-45.8-2.6-139.9L473.4,265.1z"/>
			<path class="st3" d="M456.3,273.5c0,0-22.6-21.7-9.1-76.3c0,0,6.1,45.4,16.9,74.8"/>
			<g>
				<path class="st2" d="M393.2,283.4c10.9,5.1,28.7-1.3,34.9-22.9c6.2-21.6,6.6-46.7,19.2-63.4c0,0-43.7,15-58.3,42.8
					C374.3,267.8,386.3,280.2,393.2,283.4z"/>
				<path class="st3" d="M383.4,272.3c0,0,3.1-23.3,63.8-75.2c26.8,31.3,27.6,66,27.6,66"/>
				<path class="st3" d="M415,280.4c0,0-1.3-35.4,32.3-83.2c-55.9,61.9-51.7,87.2-51.7,87.2"/>
			</g>
		</g>
		<g>
			<path class="st2" d="M485.3,133.1c9,6.6,11.7,22-6.3,40.7c-18.5,19.3-33.1,35.3-33.1,35.3s-19.4-24-8-53.1
				C446.7,133.9,473.4,124.4,485.3,133.1z"/>
			<path class="st3" d="M487.2,134.7c0,0-28.9,11.5-39.6,60.1"/>
			<path class="st3" d="M474.3,129.9c0,0-33.1,19.8-30.6,62.8"/>
			<path class="st3" d="M526.9,190c0,0-25.5-11.2-76.6,4.4c14.7-31.5,41.1-53.1,41.1-53.1"/>
		</g>
		<path class="st4" d="M443.6,210c0,0-2.9,15.1,6.4,14.3c9.3-0.8,5-20.1,5-20.1s14.3,5.9,18.4-3.2c4.1-9.1-9.5-14.6-19.5-8.5
			c0,0,11.4-13.9,2.9-16.7c-8.5-2.7-8.7,14.8-8.7,14.8s-3.6-13.9-12.3-9.1c-8.6,4.8,6.8,16.2,6.8,16.2s-22.7-9.2-23,3.9
			c-0.3,13.1,19.7,2.1,19.7,2.1s-24.2,17.3-15,24C431.6,233.1,443.6,210,443.6,210z"/>
		<g>
			<path class="st7" d="M444.3,171.7c6.1-3.6,10.5,18.7,2.2,32.8C442.2,200.4,439.5,174.5,444.3,171.7z"/>
			<path class="st5" d="M415.3,190.2c2.3-4.6,20.6,2.4,31.2,14.3C446.5,204.4,410.4,200,415.3,190.2z"/>
			<path class="st5" d="M429.7,175.3c5.2-3.9,16,16.1,16.8,29.2C439.3,202.7,423.6,179.8,429.7,175.3z"/>
		</g>
	</g>
	<g>
		<path class="st5" d="M427.3,352.7c0,0,8.9,12.6,13.5,38.6c4.6,25.9,16.3,44.2,46.1,51.2c0,0,5.2-37.8-15.1-60.7
			C457.4,365.8,437.7,363.5,427.3,352.7z"/>
		<path class="st3" d="M427.3,352.7c0,0,46.3,44.9,59.5,89.8"/>
		<path class="st3" d="M438.9,382.6c0,0,10.7,1.4,23.8,12.7c0,0-4.9-14.3-5.4-24.9"/>
		<path class="st3" d="M443.8,404.1c0,0,18.4,1.7,33.6,15.4c0,0-7.6-22.2-4-35.6"/>
	</g>
	<g>
		<g>
			<path class="st0" d="M494.6,387.3c0,0,2.4-16.5,20.4-14.3c18.1,2.2,14.1,23,6.4,26.7c0,0,11.5,15.9,6.4,32.6
				c-5.1,16.8-22.4,20.8-22.4,20.8s17.3,51-37.1,67.2s-67.3-85.8-11.4-91.4c0,0-4.2-20.8,9.7-32.6
				C480.2,384.8,494.6,387.3,494.6,387.3z"/>
			<path class="st3" d="M510.7,390.2c0,0-53.8,61.2-70.7,126.7"/>
		</g>
		<g>
			<path class="st0" d="M335.8,389.1c12.8-10.5,30.5-4.3,34.3,16.6c0,0,24.2-6,38.7,8s8.5,38.9,8.5,38.9s20.7,9,21.1,39.1
				s-9,39.7-27,41.9s-55.7-4.5-55.7-55c0-3.4-40.3-9.2-20.7-59C335.1,419.5,321.7,400.6,335.8,389.1z"/>
			<path class="st3" d="M348.2,407.7c0,0,52.3,52.6,66.8,125.3"/>
		</g>
	</g>
	<g>
		<path class="st6" d="M191.5,640.6c0-7.9,7-18.5,15.4-18.3c8.4,0.2,16.4,13,14.9,20c-1.3,6.3-15.9,8-21.8,7.9
			C194.2,650,191.5,644.9,191.5,640.6z"/>
		<ellipse transform="matrix(0.5 -0.866 0.866 0.5 -444.9391 488.5619)" class="st8" cx="200.6" cy="629.6" rx="1.8" ry="1.2"/>
		
			<ellipse transform="matrix(0.3461 -0.9382 0.9382 0.3461 -466.1864 605.3742)" class="st8" cx="201.2" cy="637.1" rx="3.3" ry="1.4"/>
	</g>
	<g>
		<circle class="st1" cx="79" cy="531" r="5.4"/>
		<circle class="st1" cx="86.9" cy="567.8" r="4.3"/>
		<circle class="st1" cx="76.7" cy="548" r="4.5"/>
		<circle class="st1" cx="99.6" cy="533.5" r="3.5"/>
		<circle class="st1" cx="111.6" cy="554" r="4.2"/>
		<path class="st3" d="M82.6,535c0,0,20.7,22.4,32,53.8"/>
		<polyline class="st3" points="80.8,550.1 100.1,559 99.5,536.9 		"/>
		<polyline class="st3" points="91.1,568.6 106.8,571 110.4,558.3 		"/>
		<line class="st3" x1="93.1" y1="542.2" x2="92.3" y2="547.2"/>
		<line class="st3" x1="90.2" y1="551.1" x2="95.7" y2="552.1"/>
		<path class="st3" d="M100.1,578.9c0.6,0,11.4,2.2,11.4,2.2c0,0.1,3-10.1,3-10.1"/>
	</g>
	<g>
		<path class="st0" d="M64.3,712.5c7.6-3.4,16.8,15.8,11,33.3C75.3,745.8,51.4,718.3,64.3,712.5z"/>
		<path class="st0" d="M75.5,717.5c7.7-1.8,19.8,21.1,1.6,36.2C77.1,753.7,62.4,720.5,75.5,717.5z"/>
		<path class="st0" d="M43.2,727.1c3.6-7.3,19.7,2.6,30.1,20.2C73.3,747.3,35.5,742.4,43.2,727.1z"/>
		<path class="st0" d="M56.9,723.9c6.9-4.8,23.8,16.8,22.6,31.6C73.4,756.1,48.1,730,56.9,723.9z"/>
		<path class="st0" d="M42.2,743.6c2.6-9.2,28-1.1,35,10C70.9,763.5,38.6,756,42.2,743.6z"/>
		<path class="st2" d="M77.1,759.9c0,0,2.2,6.2,5.9,4.1c3.6-2.2-0.5-7.3-0.5-7.3s5,2.6,6.7-1.5c1.4-3.3-6.2-7.1-12.6-2.7
			c-6.4,4.4-6.4,10.4-4.3,12C74.4,766,76.9,764.1,77.1,759.9z"/>
		<path class="st3" d="M99.5,798.6C95.4,774.1,83,764,83,764"/>
		<path class="st6" d="M108.1,765c6.9,2.4,3.9,22.5-9.3,36C93.2,790.1,94.9,760.4,108.1,765z"/>
		<path class="st6" d="M73.3,782.7c1.5-6.8,20.6-4.3,27,13.8c0,0-2.2,2.9-9-1.3C84.5,791,71.8,789.3,73.3,782.7z"/>
		<path class="st3" d="M73.3,782.7c0,0,12-1.2,27,13.8"/>
	</g>
	<g>
		<circle class="st2" cx="100.4" cy="492.8" r="5.9"/>
		<circle class="st2" cx="148.7" cy="512.3" r="5.5"/>
		<circle class="st2" cx="124.4" cy="533.5" r="5.6"/>
		<circle class="st2" cx="108.4" cy="513.1" r="4"/>
		<circle class="st2" cx="122.5" cy="492.8" r="3.9"/>
		<path class="st3" d="M105.2,495.8c0,0,43.3,15.8,63.5,88.6"/>
		<polyline class="st3" points="130,533.5 146.3,533.5 148.3,517.8 		"/>
		<path class="st3" d="M112,512.2c3.1-0.8,13.8-2.7,13.8-2.7l-2.2-12.8"/>
		<line class="st3" x1="126.5" y1="517.8" x2="132.8" y2="516.3"/>
		<line class="st3" x1="112" y1="495.8" x2="113.3" y2="500.1"/>
		<line class="st3" x1="141.7" y1="520.1" x2="140.7" y2="525.6"/>
		<line class="st3" x1="145" y1="540.7" x2="150.9" y2="541"/>
		<line class="st3" x1="156.9" y1="540.1" x2="154.2" y2="546.9"/>
	</g>
	<g>
		<path class="st6" d="M357.1,667.8c-4-7.6,8.1-24.8,18.4-23.8c10.3,1,18.4,14.3,18.4,20.2C393.9,671.8,361.3,675.8,357.1,667.8z"/>
		
			<ellipse transform="matrix(0.5608 -0.8279 0.8279 0.5608 -387.2614 590.4085)" class="st8" cx="362.9" cy="660.2" rx="3.2" ry="1.5"/>
		
			<ellipse transform="matrix(0.5608 -0.8279 0.8279 0.5608 -377.4389 592.3151)" class="st8" cx="369.6" cy="651.9" rx="2.7" ry="1.8"/>
		
			<ellipse transform="matrix(0.6422 -0.7666 0.7666 0.6422 -371.1235 520.7861)" class="st8" cx="372.3" cy="657.9" rx="2.7" ry="1.4"/>
	</g>
	<path class="st3" d="M227,895.3c0,0,17,15.4,42.6,24.7"/>
	<path class="st3" d="M305.7,926c18.4,0,27.4-20.5,43.5-24.1"/>
	<path class="st3" d="M347.2,937.8c17.7-1.3,35.4-28,48.3-29.5"/>
	<path class="st3" d="M399.4,923.1c11.3,0.6,26.2-18.4,39-18.6"/>
	<path class="st3" d="M318.1,899.3c0,0-10.1,3.3-15.3,11.1"/>
	<path class="st3" d="M121.6,864.4c0,0,9,14.8,28.9,21.9"/>
	<line class="st3" x1="157" y1="888.1" x2="162.6" y2="889.5"/>
	<path class="st3" d="M179.3,884.6c0,0,8.8,10.7,27,17.8"/>
	<path class="st3" d="M452.2,900.5c0,0,6.8-3.2,11.2-10"/>
	<g>
		<path class="st6" d="M368.2,632.1c-3.2-5.7,5.4-17.7,10.7-17.4c5.3,0.3,12.6,9.4,9.5,16.3C385.3,637.8,370.3,635.9,368.2,632.1z"
			/>
		
			<ellipse transform="matrix(0.3947 -0.9188 0.9188 0.3947 -348.8213 724.0861)" class="st8" cx="375.1" cy="626.8" rx="3.2" ry="1.6"/>
		
			<ellipse transform="matrix(0.3619 -0.9322 0.9322 0.3619 -339.043 745.5793)" class="st8" cx="375.1" cy="620.5" rx="1.5" ry="0.8"/>
	</g>
	<g>
		<g>
			<g>
				<path class="st2" d="M205.3,520.8c0,0-3.5-9.1,2.3-13.7c5.8-4.6,9,1.4,13.5-3.2c3.8-3.9,6.7-1.1,9.6-2.5c2.9-1.4,7.6-2.8,12.1,0
					c4.5,2.8,2.4,5,7.5,7.1c5.1,2.1,6.1,5.2,2.9,10s-16,14.7-29.7,12.1C209.8,527.9,207.3,525.4,205.3,520.8z"/>
				<path class="st3" d="M210.4,512.3c0,0,1.1,2.7,3,4"/>
				<path class="st3" d="M213.8,510.6c0,0,0.7,1.9,1.8,2.6"/>
				<path class="st3" d="M240.8,506.7c0,0,0.1,2.3-0.9,3.2"/>
				<path class="st3" d="M245,508.6c0,0,0.1,2.2-1.1,3.3"/>
			</g>
			<ellipse transform="matrix(0.9944 -0.1053 0.1053 0.9944 -52.3567 27.258)" class="st1" cx="231.8" cy="509.2" rx="3.4" ry="2"/>
			
				<ellipse transform="matrix(0.9673 -0.2538 0.2538 0.9673 -123.4408 73.3158)" class="st1" cx="222.4" cy="515.1" rx="3.7" ry="2.2"/>
			
				<ellipse transform="matrix(0.1296 -0.9916 0.9916 0.1296 -300.4595 685.3289)" class="st1" cx="240.1" cy="513.8" rx="1.9" ry="3.2"/>
			<line class="st3" x1="232.1" y1="511.2" x2="233" y2="525.2"/>
			<line class="st3" x1="224.5" y1="516.6" x2="230.7" y2="524.8"/>
			<line class="st3" x1="239.9" y1="515.7" x2="237.5" y2="523.1"/>
			<g>
				<path class="st4" d="M225.5,526.7c0,0,0.1-3.3,2.6-4.8c2.5-1.6,3.4,0.6,6.9,0c3.5-0.6,4.4-2,7-0.1s2.5,10.5-3,13.2
					S226.8,538.8,225.5,526.7z"/>
				<path class="st3" d="M231.5,525.5c0,0,0.3,1.4,0.6,1.9"/>
				<path class="st3" d="M235.9,524.8c0,0,0.1,1.4-0.4,2.1"/>
			</g>
			<g>
				<path class="st2" d="M211.1,540.2c0,0-9.5-1.7-12.8-10.9s4-10.7,9.4-7.5c5.4,3.2,7.4-3.2,14-0.4s5.8,10.3,9.5,13.4
					c3.7,3.1,7.8,12.7-0.5,12.4C222.4,546.9,211.1,540.2,211.1,540.2z"/>
				<path class="st3" d="M209.6,529.3c0,0,2.2,3.2,7.6,5.2"/>
				<path class="st3" d="M216.5,529c0,0,2.3,3.8,4.9,4.8"/>
			</g>
			<g>
				<path class="st2" d="M234.8,533.8c0,0,4.8-1.1,6.6-9.7c1.8-8.6,5.4-9.2,8.3-7.5s6.2-1.3,9,1.9c2.7,3.2-0.1,13.7-9.4,19.6
					c-9.3,5.9-14.3,9.6-15.7,5.5C232,539.4,234.8,533.8,234.8,533.8z"/>
				<path class="st3" d="M253.6,524.8c0,0-1.1,3.3-3.3,5.1"/>
				<path class="st3" d="M248.1,523.6c0,0-0.1,2.5-1.7,3.8"/>
			</g>
			<path class="st1" d="M211.1,540.2c0,0,8.4,8.5,20.1,8.8c0,0,3.8,13.5,4.4,45.3l4.6-0.6c0,0,0.6-25-4-45.4c0,0,9.6-1.1,15.1-11.7
				c0,0-10.3,2.6-15.2,6.9c0,0,0-9.7-3.2-14.2c0,0-3.2,7.2-2,15C230.8,544.3,221.6,539.9,211.1,540.2z"/>
		</g>
		<g>
			<path class="st4" d="M219.3,582.3c0,0,17.3-4.8,22,14.2c4.5,18-16,27.7-25.9,25c-10.5-2.9-15.5-11.1-14.8-25.1
				c0,0-8.7-0.4-12.6-8.1c-3.9-7.7,0-15.2,0-15.2s-8-2.3-8-9.5s7.6-9.5,11.4-7.3s5.4,5.7,5,9.1c0,0,7.8-4.7,14.8-1.4
				C218,567.3,220.6,575.3,219.3,582.3z"/>
			<path class="st3" d="M195.1,574.1c0,0,15.3,29.7,43.7,37.5"/>
		</g>
		<g>
			<path class="st4" d="M240.9,610.1c-9.3-9.1-8.5-33.5,13.5-36c0,0-1.3-13.1,12.2-14.5c0,0-0.4-9.7,10.5-9.9
				c10.8-0.2,13.1,15.4,4,18.3c0,0,7.2,15.3-6.7,20.7C280.3,610.4,257.6,626.4,240.9,610.1z"/>
			<path class="st3" d="M240.9,610.1c0,0,25.9-5.2,31.4-41.3"/>
		</g>
	</g>
	<g>
		<g>
			<path class="st1" d="M162.9,670c0,0,0.9-5.5,10.6-12.5c0,0,8.9,0,15.6-4.5c0,0,2.3,5.3,12.1,2.8c0,0-2.1,7,10.2,7.3
				c0,0,0.9,5.7,7,7c0,0,0.3,3.1,0,5.5S162.9,670,162.9,670z"/>
			<path class="st3" d="M189.1,652.9c0,0-4.5,3.5-7,10.3"/>
			<path class="st3" d="M201.2,655.7c0,0-4.1,3.7-5.9,8.3"/>
			<path class="st3" d="M211.4,663c0,0-3.3,2.2-4.6,5.4"/>
			<path class="st3" d="M218.4,670c0,0-2.8,1.5-3.5,3.3"/>
		</g>
		<g>
			<path class="st1" d="M156.2,674.8c-12.6,10.7-15.8,24.5-16.7,30.4c-0.3,1.8,0.5,3.6,1.9,4.6c3.6,2.7,11.8,7.6,24.5,8.6
				C178.3,689.9,156.3,674.8,156.2,674.8z"/>
			<path class="st6" d="M249.8,685.6c0-4.6,8-11.8,5.3-13.5c-2.8-1.8-14.5,9.5-27.4,8c-10-1.2-27.9-25.9-57.8-13.5
				c-5.5,2.3-10.1,5.2-13.8,8.3c0.1,0.1,22.2,15.1,9.8,43.7c5.1,0.4,10.8,0.3,17.3-0.9c29.2-5.1,34.2-20.2,43.2-24.9
				c1.9-1,4.1-1.1,6-0.3c11.6,4.5,24.8,7.4,26.4,3.3C260.2,692.5,249.8,691.5,249.8,685.6z"/>
		</g>
		<path class="st3" d="M161.9,680.3c0,0,27.9-14.1,57.9,3.9"/>
		<ellipse class="st9" cx="148.6" cy="699.7" rx="0.7" ry="1.2"/>
		<g>
			<path class="st2" d="M193.1,698.4c-1.6-4.7-19.2-2.9-19.2-2.9v0c0.4,2.5,0.6,5.3,0.2,8.1l0,0c0,0,3.5,1.8,7.9,2.8
				C185.5,707.2,194,700.8,193.1,698.4z"/>
		</g>
		<path class="st3" d="M174.1,697.9c0,0,11.7-0.1,17.7,3.4"/>
		<path class="st3" d="M174.3,700.8c0,0,9.5,1.2,13.4,3.7"/>
		<path class="st3" d="M196.1,707.2c0,0,2.4,0.5,4.5,0"/>
		<path class="st3" d="M202,704.1c0,0,2.5,0.6,4.3-0.5"/>
		<path class="st3" d="M205.4,700.8c0,0,2.4-0.2,4.2-1.9"/>
		<path class="st3" d="M195.2,703.9c0,0,1.8,0.5,3.2,0"/>
		<path class="st3" d="M199.7,700.8c0,0,1.5,0.6,2.6,0.4"/>
		<path class="st3" d="M203.6,697.4c0,0,2.1,0.1,3.1-0.7"/>
		<path class="st3" d="M188.7,685.2c0,0,2.3-0.2,3.9,0.6"/>
		<path class="st3" d="M183,687.1c0,0,1.2-1.3,2.2-1.3"/>
		<path class="st3" d="M185.2,690.8c0,0,0.9-1.4,2.1-1.2"/>
		<path class="st3" d="M190.6,688.2c0,0,1.5-0.2,2.6,0.6"/>
		<path class="st3" d="M205.2,685.8c0,0,2.1-0.2,3,0.6"/>
		<path class="st3" d="M212,687.1c0,0,2.2,0.5,2.9,1.5"/>
		<path class="st3" d="M215.3,690.8c0,0,2.2,0.4,3.1,1.3"/>
		<path class="st3" d="M207,688.8c0,0,2.1,0.1,2.5,0.8"/>
		<path class="st3" d="M208.9,683.7c0,0,1.4,0.4,2.1,0.9"/>
		<path class="st3" d="M219.8,688.8c0,0,1.8,0.7,2.1,1.4"/>
		<path class="st3" d="M174.3,673.2c0.6-0.1,2.2-0.8,3.4-0.5"/>
		<path class="st3" d="M170.6,670c0,0,1.7-0.8,2.3-0.7"/>
		<path class="st3" d="M179.6,670c0,0,2.2-0.5,3.4,0"/>
		<path class="st3" d="M177.3,667.7c0,0,1.5-0.9,2.2-0.8"/>
		<path class="st3" d="M184.1,667.3c0,0,2.2-0.2,2.9,0.4"/>
		<path class="st3" d="M201.2,671.9c0,0,2.9,0.6,4,2"/>
		<path class="st3" d="M195.2,671.1c0,0,2.1,0.1,2.8,0.5"/>
		<path class="st3" d="M198.2,673.2c0,0,1.4,0.4,2.1,0.7"/>
		<path class="st3" d="M199.7,668.4c0,0,1.5,0.8,1.8,1.2"/>
		<path class="st3" d="M169.7,683c0,0,7.9,13.8,3.1,26.3"/>
	</g>
	<path class="st8" d="M251.8,660.6c-1.1-6.7,15.3-9.8,24.4-6.9c9.1,2.9,16.6-2.1,28.7,1.4c12.1,3.5,11.6,6.3,10.2,7.9
		c-1.4,1.6-7.2-2.2-15.3,2.7c-8.1,4.9-21.8,0.1-31.1-1.3C259.5,663.1,252.5,664.9,251.8,660.6z"/>
	<path class="st8" d="M329.3,679c2.1-3.2,19.7,5.2,28,12.7c8.3,7.5,9,10.8,2.9,11.6c-6.1,0.8,1.7,9.6-1.9,11
		c-2.3,0.9-8.7-4-14.9-7.2c-8.9-4.6-26.8-11.8-23.9-17.3c2-3.8,12.3,7.1,16.6,1C338.9,686.8,327.1,682.4,329.3,679z"/>
	<path class="st8" d="M126.4,735.7c-1.3-5.9,8.2-9.7,17.8-8.9c9.6,0.8,2.4,5.1,3.8,6.9c1.4,1.9,2.7,7.4-1.9,8.4
		c-4.6,1-5.7-2.9-10-2.6C131.8,739.8,127.2,739.5,126.4,735.7z"/>
	<path class="st8" d="M96.9,724.2c-4.1-4.6,3.4-12.3,11.7-19.1c10.3-8.4,17.7-9.7,18.5-6.5c1,3.9-10.7,8.7-10.5,14.9
		C116.8,717.7,103.2,731.2,96.9,724.2z"/>
	<path class="st8" d="M180.5,752.8c-1.4-3.5,6.3-5.5,7.5-11.4c1.2-5.9,11-14.2,14.2-12.3c2.9,1.8,2.3,6.2-3.7,12.6
		C192.8,747.8,182.8,758.7,180.5,752.8z"/>
	<path class="st3" d="M272.9,797.1c0,0,1.1-1.8,2.6-2.3"/>
	<g>
		<g>
			<path class="st1" d="M221.9,743.3c0,0-2-4.7-4.9-4.6c0,0,11.2-5.5,13.3-19.2c0,0,8.1,0,13.5-4c5.3-4.1,2.6-11.9,2.6-11.9
				s10.9,1,15.3-3.7c4.4-4.7,2.9-8.4,2.9-8.4s34.5-2,49,17.8C328.1,729.1,221.9,743.3,221.9,743.3z"/>
			<path class="st3" d="M270.8,697.4c0,0,15,4.3,21.4,11.6"/>
			<path class="st3" d="M263.4,705.2c0.9,0,9.9,2.6,14.8,6.2"/>
			<path class="st3" d="M256.8,710.5c0,0,8.1,1,11.6,3.7"/>
			<path class="st3" d="M249.7,716.5c0,0,4.9,0.9,7.1,2.3"/>
			<path class="st3" d="M241,722c0.4,0,4.2,0.4,6.2,1.7"/>
		</g>
		<g>
			<path class="st6" d="M304.9,708.5c-19.4-0.7-41.1,5.2-60.9,17c-41.2,24.6-54.9,74.4-54.9,74.4s43.3,24.3,93.9,12.1
				c26.3-6.3,42.9-19.7,53.4-33.7C296.8,754.7,304.8,708.8,304.9,708.5z"/>
			<path class="st1" d="M351.4,730.2c-10.6-14-27.4-21-46.5-21.7c-0.1,0.3-8.1,46.1,31.6,69.9c11.4-15.1,15.6-30.7,17.1-38.7
				C354.2,736.4,353.4,732.9,351.4,730.2z"/>
		</g>
		<path class="st3" d="M304.8,728.8c0,0-78,25.2-106.4,75.7"/>
		<g>
			<path class="st2" d="M303.2,756.9c-9.3-0.3-30.2,11.6-23.9,20.4c3.8,5.2,29.1-2.6,28.6-13.6c0,0,0,0,0,0c-1.5-2-2.8-4.2-3.9-6.3
				C303.6,757.1,303.2,756.9,303.2,756.9z"/>
		</g>
		<path class="st3" d="M278.2,774.6c0,0,14.5-12.7,27-15.3"/>
		<path class="st3" d="M280.9,778.4c0,0,17.7-6.9,26.4-15.8"/>
		<path class="st3" d="M298.7,741.7c0,0,3.8,22.3,18.6,30.4"/>
		
			<ellipse transform="matrix(0.8965 -0.4431 0.4431 0.8965 -288.2831 224.6982)" class="st9" cx="336.7" cy="729.3" rx="1.2" ry="2.4"/>
		<path class="st3" d="M273.3,722c0.5-0.2,2.8-1,4.4-0.9"/>
		<path class="st3" d="M269.1,728c0,0,1.3-1.4,3.1-2"/>
		<path class="st3" d="M278.2,723.7c0,0,3.2-1.2,5-0.8"/>
		<path class="st3" d="M273.3,728.8c0,0,2.6-1.7,4.4-1.8"/>
		<path class="st3" d="M281.5,726.5c0.2,0,2-0.3,3.1,0"/>
		<path class="st3" d="M275,717.7c0,0,3-0.5,4.2,0"/>
		<path class="st3" d="M237.4,750.6c0.9-0.8,2.9-2.3,4.5-2.6"/>
		<path class="st3" d="M243.4,743.3c0,0,2.6-2.2,4-2.1"/>
		<path class="st3" d="M249.4,744.4c0,0,2.6-1.6,4-1.2"/>
		<path class="st3" d="M246.9,735.3c0,0,1.2-1.4,2.9-1.5"/>
		<path class="st3" d="M249.4,737.5c0,0,2.2-1.8,4.5-1.8"/>
		<path class="st3" d="M252.7,739.5c0,0,1.9-0.8,3.4-0.3"/>
		<path class="st3" d="M240.9,741.9c0,0,1.1-1.5,2.4-1.5"/>
		<path class="st3" d="M260.3,767.4c0,0,2-1.7,3.5-1.6"/>
		<path class="st3" d="M260.3,772.1c0,0,1.8-1.6,3.5-1.9"/>
		<path class="st3" d="M270.5,770.5c0,0,2.4-1.7,4.4-1.9"/>
		<path class="st3" d="M267.5,767.8c0,0,1.3-0.8,2.5-0.9"/>
		<path class="st3" d="M266.4,763.5c0,0,1-1.6,2.3-1.5"/>
		<path class="st3" d="M265.8,759.2c0,0,1.8-2.1,3.6-1.6"/>
		<path class="st3" d="M272.1,762.7c0,0,1-0.8,2.2-0.8"/>
		<path class="st3" d="M239.3,772.1c0,0,2.1-1.3,4.3-1.5"/>
		<path class="st3" d="M240.9,775.2c0.6-0.3,2.2-1,3.2-0.9"/>
		<path class="st3" d="M236.7,782.3c0,0,2-1.8,4.1-1.9"/>
		<path class="st3" d="M233.3,780.1c0,0,1.6-1.4,2.5-1.4"/>
		<path class="st3" d="M229.6,788.1c0.2-0.1,1.2-1.1,2-1.1"/>
		<path class="st3" d="M237.5,787.6c0,0,1.6-1.1,2.3-1.1"/>
		<path class="st3" d="M244.1,781.4c0,0,1.9-0.8,3.2-0.9"/>
		<path class="st3" d="M246.7,776.3c0,0,1.8-1,3.3-1.1"/>
		<path class="st3" d="M270.2,789.2c0,0,1.4-1.8,2.7-2"/>
		<path class="st3" d="M267.3,794.7c0,0,1.5-1.9,2.5-2"/>
		<path class="st3" d="M273.7,792c0,0,0.8-1.2,2.2-1.7"/>
		<path class="st3" d="M268.6,783.6c0.8-0.6,1.3-1.2,2-1.5"/>
		<path class="st3" d="M274.2,784.5c0.4-0.2,1.5-1.6,2.3-1.7"/>
		<path class="st3" d="M278.8,785.7c0.4-0.4,0.9-1.2,1.7-1.5"/>
	</g>
	<g>
		<circle class="st1" cx="373.9" cy="719" r="3.1"/>
		<circle class="st1" cx="384.6" cy="722.1" r="2.8"/>
		<circle class="st1" cx="374.2" cy="727.9" r="2.8"/>
		<circle class="st1" cx="380.6" cy="737.7" r="2.8"/>
		<circle class="st1" cx="389.3" cy="732.1" r="2.8"/>
		<path class="st3" d="M375.7,721.3c0,0,14.1,17.9,19.1,34"/>
		<polyline class="st3" points="376.4,729.6 383,731.6 384.6,724.9 		"/>
		<polyline class="st3" points="383.1,738.8 388.7,741.5 389.3,734.9 		"/>
	</g>
	<path class="st8" d="M386,700.3c2.5-3.6,20.6,9.2,16.3,13c-1.6,1.5-4.6-2-7-4.8C391.7,704,384.3,702.8,386,700.3z"/>
	<g>
		<g>
			<path class="st1" d="M128.4,550c2.7-3.8,13,3.1,13,3.1s-2.3-5.9,1.2-6.8c3.5-0.9,10.2,9.3,10.2,9.3s-1-3.5,1.2-4.7
				c3.4-1.8,14.3,11,14.7,29.9c0,0-19.6,1.4-30.5-3.5c-10.9-4.9-7.2-9.7-2.2-9.9c0,0-6.4-1.9-5.7-5.1c0.7-3.2,4.8-1.3,4.8-1.3
				S125,554.9,128.4,550z"/>
			<path class="st3" d="M134.4,554.9c0,0,18.1,7,33.4,26"/>
		</g>
		<g>
			<path class="st1" d="M177.8,528.8c3.9,0,2.2,12.1,2.2,12.1s2.2-3.3,4.5-1.6s-2.9,11.8-2.9,11.8s4.4-4.4,6.9-2.5
				c2.5,1.9,1.9,19.1-14.9,33.6c0,0-10-10.9-12-22.7s2.1-12.7,4.7-7.7c0,0-1.1-11.4,1.6-12.5s4.5,3.6,4.5,3.6
				S173.5,528.8,177.8,528.8z"/>
			<path class="st3" d="M176.3,536.7c0,0-4.5,23-2.8,45.5"/>
		</g>
	</g>
	<path class="st0" d="M450.8,478.1c3.8-1.3,9.7,3.2,9.4,18.4c0,0,3.6-7.8,8.1-5.7c4.6,2.1,4,19.8,1.1,27.5c0,0,4.4-5.9,9.4-3.2
		c5,2.7-1.8,21.4-1.8,21.4s3.4-4.2,5.4-1c1.9,3.2,2.4,19.2-15.8,30.2c0,0-29-27.7-21.4-48.2c0,0-7.5-15.6-2.9-20.9
		c3.8-4.3,8.5,3.1,8.5,3.1S442.9,480.8,450.8,478.1z"/>
	<g>
		<path class="st0" d="M463.8,579.3c0,0,8.2-13.6,14.1-15.2c5.9-1.6,3.1,6.4,3.1,6.4s6-9.4,18.1-14.3c12.1-4.9,16.1-0.2,12.2,5.3
			c0,0,5-4.3,14.3-5.1c9.3-0.8,5.4,7.6,3.6,9.2c0,0,9.7-3.7,11.7,0c2,3.7-8.6,8.5-8.6,8.5s7.2,0.7,6.3,6.2
			c-0.9,5.5-16.8,7.7-22.8,8.3c0,0,11.8,0.3,11.1,5.3s-21.5,10.1-54.6,6.2C439.1,596.3,463.8,579.3,463.8,579.3z"/>
		<path class="st3" d="M526.9,574.2c0,0-22.6,17.3-71.6,15.9"/>
	</g>
	<g>
		<path class="st4" d="M523.7,771.3c1.4-2.5,4.3-6.9,15.2-9c10.8-2.1,16.3,0.1,22.3-3.5c0,0-15,25.6-38.4,16.4
			C522.8,775.2,522.9,772.6,523.7,771.3z"/>
		<path class="st3" d="M522.8,775.2c0,0,20.3-3,38.4-16.4"/>
		<path class="st3" d="M545.2,761.5c0,0-2.2,6-5.7,9"/>
		<path class="st3" d="M536,763c0,0.5-3.5,8.7-6.3,10.7"/>
		<path class="st3" d="M538.5,770.9c0,0,3.2,1.7,10.3,1"/>
		<path class="st3" d="M528.8,773.9c0,0,4.4,2.5,9.7,2.7"/>
	</g>
	<g>
		<g>
			<path class="st1" d="M540.5,669.2l-8.6,4.6l-8.4-5.1l-3.6,4.8c0,0,7.5,6.3,7.1,20.7l4.3,0.1l4.3,0.1c0.4-14.3,8.3-20.2,8.3-20.2
				L540.5,669.2z"/>
			<line class="st10" x1="531.5" y1="681.1" x2="531.7" y2="674.8"/>
			<path class="st2" d="M552.9,657.3c0.2-0.8,0.4-1.7,0.4-2.5c0.2-5.5-4.2-10.1-9.7-10.3c-0.5,0-1,0-1.4,0.1
				c-0.9-4.4-4.8-7.8-9.5-7.9c-4.7-0.1-8.7,3-9.9,7.3c-0.4-0.1-0.8-0.1-1.1-0.1c-5.5-0.2-10.1,4.2-10.3,9.7c0,0.8,0.1,1.6,0.2,2.4
				c-3.1,1.2-5.6,4-6.2,7.6c-1,5.4,2.7,10.7,8.1,11.6c3.9,0.7,7.7-1,9.9-4.1c1.7,2.7,4.7,4.6,8.2,4.7c3.5,0.1,6.6-1.6,8.5-4.2
				c1.7,2.7,4.7,4.6,8.2,4.7c5.5,0.2,10.1-4.2,10.3-9.7C558.6,662.6,556.3,659,552.9,657.3z"/>
		</g>
		<path class="st4" d="M503.4,684.3c1.5-6.7,8.9-7.4,12.1-4.5c3.8,3.5,4,9.1,13.6,10.2c6.1,0.7,3.9,8.4-7.4,8.2
			C507.5,698.1,502.2,689.6,503.4,684.3z"/>
		<path class="st4" d="M559.5,685.4c-1.2-6.8-8.6-7.7-11.9-4.9c-4,3.4-4.3,9-13.9,9.7c-6.1,0.5-4.3,8.2,7,8.5
			C554.9,699.1,560.5,690.8,559.5,685.4z"/>
	</g>
	<g>
		<g>
			<g>
				<path class="st1" d="M480.9,621.7l-8.6,4.6l-8.4-5.1l-3.6,4.8c0,0,7.5,6.3,7.1,20.7l4.3,0.1l4.3,0.1c0.4-14.3,8.3-20.2,8.3-20.2
					L480.9,621.7z"/>
				<line class="st10" x1="471.9" y1="633.6" x2="472.1" y2="627.3"/>
				<path class="st2" d="M493.3,609.8c0.2-0.8,0.4-1.7,0.4-2.5c0.2-5.5-4.2-10.1-9.7-10.3c-0.5,0-1,0-1.4,0.1
					c-0.9-4.4-4.8-7.8-9.5-7.9c-4.7-0.1-8.7,3-9.9,7.3c-0.4-0.1-0.8-0.1-1.1-0.1c-5.5-0.2-10.1,4.2-10.3,9.7c0,0.8,0.1,1.6,0.2,2.4
					c-3.1,1.2-5.6,4-6.2,7.6c-1,5.4,2.7,10.7,8.1,11.6c3.9,0.7,7.7-1,9.9-4.1c1.7,2.7,4.7,4.6,8.2,4.7c3.5,0.1,6.6-1.6,8.5-4.2
					c1.7,2.7,4.7,4.6,8.2,4.7c5.5,0.2,10.1-4.2,10.3-9.7C499,615.1,496.7,611.5,493.3,609.8z"/>
			</g>
			<path class="st4" d="M443.8,636.8c1.5-6.7,8.9-7.4,12.1-4.5c3.8,3.5,4,9.1,13.6,10.2c6.1,0.7,3.9,8.4-7.4,8.2
				C447.9,650.6,442.6,642.1,443.8,636.8z"/>
			<path class="st4" d="M499.9,637.9c-1.2-6.8-8.6-7.7-11.9-4.9c-4,3.4-4.3,9-13.9,9.7c-6.1,0.5-4.3,8.2,7,8.5
				C495.3,651.6,500.9,643.3,499.9,637.9z"/>
		</g>
		<g>
			<g>
				<path class="st1" d="M485,681.1l-8.6,4.6l-8.4-5.1l-3.6,4.8c0,0,7.5,6.3,7.1,20.7l4.3,0.1l4.3,0.1c0.4-14.3,8.3-20.2,8.3-20.2
					L485,681.1z"/>
				<line class="st10" x1="476" y1="693.1" x2="476.2" y2="686.7"/>
				<path class="st2" d="M497.4,669.3c0.2-0.8,0.4-1.7,0.4-2.5c0.2-5.5-4.2-10.1-9.7-10.3c-0.5,0-1,0-1.4,0.1
					c-0.9-4.4-4.8-7.8-9.5-7.9c-4.7-0.1-8.7,3-9.9,7.3c-0.4-0.1-0.8-0.1-1.1-0.1c-5.5-0.2-10.1,4.2-10.3,9.7c0,0.8,0.1,1.6,0.2,2.4
					c-3.1,1.2-5.6,4-6.2,7.6c-1,5.4,2.7,10.7,8.1,11.6c3.9,0.7,7.7-1,9.9-4.1c1.7,2.7,4.7,4.6,8.2,4.7c3.5,0.1,6.6-1.6,8.5-4.2
					c1.7,2.7,4.7,4.6,8.2,4.7c5.5,0.2,10.1-4.2,10.3-9.7C503.1,674.5,500.8,671,497.4,669.3z"/>
			</g>
			<path class="st4" d="M447.9,696.2c1.5-6.7,8.9-7.4,12.1-4.5c3.8,3.5,4,9.1,13.6,10.2c6.1,0.7,3.9,8.4-7.4,8.2
				C452,710.1,446.7,701.5,447.9,696.2z"/>
			<path class="st4" d="M504,697.4c-1.2-6.8-8.6-7.7-11.9-4.9c-4,3.4-4.3,9-13.9,9.7c-6.1,0.5-4.3,8.2,7,8.5
				C499.4,711,505,702.7,504,697.4z"/>
		</g>
	</g>
	<g>
		<g>
			<path class="st4" d="M291.3,791.8c6.5,2.1,9.2,10.6,3.7,20.7c-5.5,10.1,0.2,10.5-3.5,15.7c-3.7,5.2-12.5,3.7-14.3,10.8
				s-7.4-16.5-1.1-36.4C279.5,792,286.5,790.3,291.3,791.8z"/>
			<path class="st4" d="M246.8,789.7c5.6-4,17.4-3.4,21.2,9.2c4.2,13.8,10.8,11.7,11.8,22.8c0.8,8.8-3.5,19.5-3.5,19.5
				s-3.5-5.8-11.6-5.8c-7.4,0-11.9-2.7-12.5-9.5c-0.8-9.8-5.8-8.4-10-16.5C237.4,800,242.6,792.6,246.8,789.7z"/>
			<path class="st10" d="M256.8,803.3c13.6,13.5,21.1,30,20.3,53.4"/>
			<path class="st10" d="M279.5,820.1c2.5-9,5.5-14.1,5.5-14.1"/>
		</g>
		<g>
			<path class="st4" d="M221.9,765.1c6.5,2.1,9.2,10.6,3.7,20.7c-5.5,10.1,0.2,10.5-3.5,15.7c-3.7,5.2-12.5,3.7-14.3,10.8
				c-1.9,7.2-7.4-16.5-1.1-36.4C210.1,765.3,217.1,763.5,221.9,765.1z"/>
			<path class="st4" d="M177.4,762.9c5.6-4,17.4-3.4,21.2,9.2c4.2,13.8,10.8,11.7,11.8,22.8c0.8,8.8-3.5,19.5-3.5,19.5
				s-3.5-5.8-11.6-5.8c-7.4,0-11.9-2.7-12.5-9.5c-0.8-9.8-5.8-8.4-10-16.5C168,773.3,173.2,765.9,177.4,762.9z"/>
			<path class="st10" d="M187.4,776.5c13.6,13.5,21.1,30,20.3,53.4"/>
			<path class="st10" d="M210.1,793.4c2.5-9,5.5-14.1,5.5-14.1"/>
		</g>
		<g>
			<path class="st4" d="M244,805.4c6.5,2.1,9.2,10.6,3.7,20.7c-5.5,10.1,0.2,10.5-3.5,15.7c-3.7,5.2-12.5,3.7-14.3,10.8
				s-7.4-16.5-1.1-36.4C232.2,805.6,239.2,803.9,244,805.4z"/>
			<path class="st4" d="M199.5,803.2c5.6-4,17.4-3.4,21.2,9.2c4.2,13.8,10.8,11.7,11.8,22.8c0.8,8.8-3.5,19.5-3.5,19.5
				s-3.5-5.8-11.6-5.8c-7.4,0-11.9-2.7-12.5-9.5c-0.8-9.8-5.8-8.4-10-16.5C190.1,813.6,195.3,806.2,199.5,803.2z"/>
			<path class="st10" d="M209.5,816.9c13.6,13.5,21.1,30,20.3,53.4"/>
			<path class="st10" d="M232.2,833.7c2.5-9,5.5-14.1,5.5-14.1"/>
		</g>
	</g>
	<g>
		<path class="st6" d="M375.6,687.8c-7.3-9.8-1.1-23,17-35c18.1-11.9,34.9-10.7,46.6,4.2c11.7,14.9,16.3,18.2,14,29.5
			c-2.3,11.3-10.9,12.6-21.1,11.9c-10.3-0.6-13.1,2.9-26.6-4.2C394.6,688.5,380.6,694.5,375.6,687.8z"/>
		
			<ellipse transform="matrix(0.5608 -0.8279 0.8279 0.5608 -367.7057 619.2982)" class="st8" cx="399.9" cy="656.3" rx="1.9" ry="1.7"/>
		
			<ellipse transform="matrix(0.6422 -0.7666 0.7666 0.6422 -369.9381 535.3366)" class="st8" cx="388.4" cy="663.9" rx="4.3" ry="2.6"/>
		
			<ellipse transform="matrix(0.6422 -0.7666 0.7666 0.6422 -376.6425 538.8815)" class="st8" cx="388.9" cy="672.9" rx="5.1" ry="2"/>
	</g>
	<g>
		<g>
			<path class="st2" d="M145.9,607.1c0,0-16.3-13.1-11.9-33c3.9-17.8,21.9-14.7,24.7-1.9C161.9,587.4,156.8,597.6,145.9,607.1z"/>
			<path class="st2" d="M146.4,571c0,0,4,19.8-0.5,36.1"/>
		</g>
		<g>
			<path class="st2" d="M177.8,576.1c18.6,8.4,9.5,59.2-21.1,69.7C131.6,627.3,147.3,562.4,177.8,576.1z"/>
			<path class="st2" d="M171.6,590.9c0,0-18.7,22.2-14.9,55"/>
			<path class="st2" d="M158,590.9c0,0-1.9,3-2.7,5"/>
			<path class="st2" d="M158,606.3c0,0-1.1,2.1-1.3,3.9"/>
			<path class="st2" d="M158.6,597.5c0,0-1.9,2.7-2,4.4"/>
			<path class="st2" d="M165.2,586c0,0-1.3,0.9-1.8,2.7"/>
			<path class="st2" d="M165.9,590.9c0,0-1.2,1.7-1.6,3.3"/>
			<path class="st2" d="M175.3,598.4c0,0-0.5,1.8-1.9,3.5"/>
			<path class="st2" d="M171.6,606.3c0,0-0.4,1.6-1.3,2.8"/>
			<path class="st2" d="M177.3,609.9c0,0-1,2.2-3,4.2"/>
			<path class="st2" d="M177.3,601.3c0,0-0.1,1.3-1.5,3.5"/>
			<path class="st2" d="M181.7,601.3c-0.1,0.4-0.6,2.4-2,3.5"/>
			<path class="st2" d="M179.6,590.9c0,0-0.5,2.3-1.6,3.8"/>
		</g>
		<g>
			<path class="st2" d="M111.1,578.9c8.5-7.3,29.5-7.2,36.8,15s-6.1,23.8,8.7,51.9l-12.5,10.7C144.2,656.5,78.8,606.7,111.1,578.9z"
				/>
			<path class="st2" d="M123.5,592.7c0,0,17.8,24.5,23.6,61.3"/>
			<path class="st2" d="M115.8,591.9c0,0,2.1,1.9,3.2,4.7"/>
			<path class="st2" d="M111.5,595.4c0,0,1.9,1.3,3,3.6"/>
			<path class="st2" d="M122.6,604.3c0,0,1.8,2,2.9,5.6"/>
			<path class="st2" d="M136.3,607.1c0,0,0.9,1.5,1.5,4"/>
			<path class="st2" d="M141.3,609.1c0,0,1.6,3.7,1.9,6.8"/>
			<path class="st2" d="M136.3,594.9c0,0,0.6,3.9,0.7,5.2"/>
			<path class="st2" d="M128.4,582.8c0,0,0.8,1.5,1.5,3.2"/>
			<line class="st2" x1="138.9" y1="591.9" x2="139.5" y2="594.2"/>
			<path class="st2" d="M143.3,599.5c0,0,0.6,2.8,0.5,4.9"/>
		</g>
		<g>
			<path class="st2" d="M68.3,633.8c-2.7-24.5,26.5-35.9,43-27.7c17,8.5,26.7,28.1,30.7,41.6l-1.7,7.6c0,0-5.1-6.9-24.1-2.2
				S71,658.8,68.3,633.8z"/>
			<path class="st2" d="M90.2,629.6c0,0,27.9-6.6,51.1,20.6"/>
			<path class="st2" d="M82.1,637.7c0,0,3.2-0.5,5.2,0"/>
			<path class="st2" d="M87.2,645.8c0,0,3.3-0.6,5.6,0"/>
			<path class="st2" d="M100.4,638.8c0,0,2.7,0,4.6,0.4"/>
			<path class="st2" d="M118.4,642c0,0,2.6,0.2,4.6,1.6"/>
			<path class="st2" d="M103.7,643.6c0,0,3.2-0.2,4.5,0.5"/>
			<path class="st2" d="M91.1,616.8c0,0,2.9,0.2,3.9,1"/>
			<path class="st2" d="M104.2,619.3c0,0,2.9,0.9,4,1.5"/>
			<path class="st2" d="M97.6,611.2c0,0,3.6,0.6,5.1,1.7"/>
			<path class="st2" d="M114.1,615.2c0,0,2.9,0.8,4.3,2.5"/>
			<path class="st2" d="M120.7,624.3c0,0,1.4,0.5,2.8,3"/>
		</g>
	</g>
	<g>
		<path class="st6" d="M138.2,660.3c-4.8-10.5,10.9-41.7,29-44.1c18.2-2.5,31.3,20.4,30.7,29.3C197.3,654.4,142.8,670.4,138.2,660.3
			z"/>
		
			<ellipse transform="matrix(0.3101 -0.9507 0.9507 0.3101 -511.9192 586.1677)" class="st8" cx="147.9" cy="645.8" rx="4.5" ry="2.1"/>
		
			<ellipse transform="matrix(0.3101 -0.9507 0.9507 0.3101 -501.1103 589.0887)" class="st8" cx="155.3" cy="639.8" rx="3" ry="1.8"/>
		<ellipse transform="matrix(0.6387 -0.7694 0.7694 0.6387 -432.106 345.7289)" class="st8" cx="152.1" cy="633" rx="2" ry="1.3"/>
	</g>
	<g>
		<g>
			<g>
				<path class="st4" d="M527,761.4c0,0,6.3-13.9,14.2-17.8l2.1,1.9c0,0-6.6,4.4-14.1,18.1L527,761.4z"/>
				<g>
					<g>
						<path class="st1" d="M581.6,764.2c7.7-2.4,12-15.3,2.5-26.1c-9.2-10.6-17.5-7.7-17.5-7.7s-5.5,11.3-1.4,23.8
							C568.8,764.7,576.6,765.8,581.6,764.2z"/>
						<path class="st3" d="M575.6,764.6c0,0-7.4-12.2-9-34.2c11.9,13.4,14.9,33.8,14.9,33.8"/>
						<path class="st3" d="M586.6,760.5c0,0-0.9-19.6-20-30.1"/>
					</g>
					<g>
						<path class="st1" d="M535.1,745.4c-7.4-14,3.6-22.8,21-23.7c17.4-0.9,16.5,21,3.5,27.7C546.6,756,537.9,750.6,535.1,745.4z"/>
						<path class="st3" d="M535.1,745.4c0,0,11.9-12.2,32.4-18.8"/>
						<path class="st3" d="M532.8,736.6c0,0,12.5-8.2,33.8-11.2"/>
						<path class="st3" d="M547.4,752.5c0,0,7.9-18.7,20.8-24.4"/>
					</g>
					<g>
						<path class="st1" d="M531.9,701.9c5.8-7,17.2-9.3,25.4,2.2c6.3,8.9,7.6,18.7,2.3,20.3c-5.2,1.6-13.8,2.1-23.6-4
							C526.1,714.3,529,705.3,531.9,701.9z"/>
						<path class="st3" d="M561.4,723.5c-10.6-14.3-28.5-22.7-28.5-22.7"/>
						<path class="st3" d="M529.2,710.1c0,0,23.5,8.5,30.4,14.4"/>
						<path class="st3" d="M540.2,696.7c0,0,15.4,8.3,22.9,24.5"/>
					</g>
					<g>
						<path class="st1" d="M572.2,692.7c9.4,1.2,13.3,10.6,6.4,22.1c-6.9,11.5-11.3,10.4-14,8.2c-2.7-2.2-6.1-9.1-5.5-18.3
							C559.6,696.1,566.7,692,572.2,692.7z"/>
						<path class="st3" d="M565.6,723.7c9.6-18.8,6.6-31,6.6-31"/>
						<path class="st3" d="M565.6,694.4c0,0,2.1,12.7-2.5,26.8"/>
						<path class="st3" d="M579.7,696.7c0,0-2.1,17.7-12.2,27.8"/>
					</g>
					<g>
						<path class="st1" d="M601.6,725.5c0.8-9.4-7.9-14.4-17.5-12.8c-9.6,1.6-16.6,11.5-18.2,14.5c0,0,7.3,10.3,22.2,9.4
							C598.7,736,601.1,730.4,601.6,725.5z"/>
						<path class="st3" d="M601.6,725.5c0,0-15.6-6-35.7,1.7c0,0,14.9-13.8,32.9-10.5"/>
						<path class="st3" d="M597.5,733.7c0,0-13.7-7.1-31.5-6.5"/>
					</g>
				</g>
				<path class="st4" d="M547.5,719.9c1.5-4.6,14.6-4.4,23,5c8.3,9.4,2.8,11.5,0,8.8c0,0-1,8.2-5.2,7.3c-4.2-0.9-3.9-7.2-3.9-7.2
					s-7.7,4.3-9-0.1c-1.3-4.5,3.7-7.1,3.7-7.1S546.2,723.7,547.5,719.9z"/>
				<g>
					<path class="st5" d="M561.5,727.5c0,0-0.9-6.1,2.4-12.7c3.3-6.6,7.1-8.2,6.6-4.2C570,714.7,567,722.7,561.5,727.5z"/>
					<path class="st5" d="M561.4,727.6c0,0,6.7-4.5,13.2-4.5c6.5,0,7.8,3.9,1.6,5.4C569.9,730.1,561.4,727.6,561.4,727.6z"/>
					<path class="st5" d="M561.7,727.5c0,0,2.7-5.9,8.4-8.7c5.7-2.8,8.7-0.6,5.8,2.1S567.6,726.4,561.7,727.5z"/>
				</g>
			</g>
			<g>
				<path class="st4" d="M486.1,755.9c0,0,8.6-19,22.6-30.3c0,0,1.9,1.2,0.8,1.7s-14.2,20.9-18.6,33.3
					C490.8,760.5,485.8,763.1,486.1,755.9z"/>
				<path class="st1" d="M498.7,741.1c3.1,1.9,9.5,0.4,10.4-5.8c0.9-6.6-0.5-9.8-0.5-9.8s-6.3-1.2-11.2,5.1
					C493.3,736,496.6,739.9,498.7,741.1z"/>
				<g>
					<path class="st1" d="M483,720.6c0.8-6.1,7.9-9.5,15.7-6.2c7.8,3.3,9.5,9.8,9.5,9.8s-3.4,6.5-14.5,6
						C482.6,729.8,482.6,724,483,720.6z"/>
					<path class="st10" d="M482.9,723.5c0,0,11-3.4,25.3,0.8c-14.2-9.9-24.5-6-24.5-6"/>
				</g>
				<g>
					<path class="st1" d="M501,704.7c4-2.5,10.2,0.3,11.4,7.5c1.2,7.1-2.5,12.6-2.5,12.6s-6.1-3.2-9.4-8.1
						C497.3,711.8,497.3,707,501,704.7z"/>
					<path class="st1" d="M499.5,706c0,0,8.1,9.1,9.4,18.4"/>
					<path class="st10" d="M503.3,703.8c0,0,7.5,10.2,6.7,20.9"/>
				</g>
				<g>
					<path class="st1" d="M516.3,750.1c4.8-0.4,7-8.1,2.8-14.1c-4.1-5.7-9.4-7.4-9.4-7.4s-3.2,8-1.5,14.9
						C509.4,748.5,512.9,750.4,516.3,750.1z"/>
					<path class="st10" d="M518.3,749.5c0,0,1.3-13.2-8.6-20.8c4.9,8.3,4.6,21.4,4.6,21.4"/>
				</g>
				<g>
					<path class="st1" d="M525.8,736c2.5-3.1,1-7.4-2.2-9.8c-3.2-2.3-7.8-2.9-12.7-2.3c0,0-0.9,6.9,5,10.9
						C521,738.4,524.6,737.6,525.8,736z"/>
					<path class="st10" d="M526.6,734.8c0,0-7-9.1-15.6-10.8c4.3,4.5,13.7,13,13.7,13"/>
				</g>
				<g>
					<path class="st1" d="M522.6,714.2c2.8,2.9,0.6,11-12.6,11.6c0,0,0-7.4,4.4-11C517.5,712.1,521.1,712.6,522.6,714.2z"/>
					<path class="st1" d="M521.4,713.4c0,0-8.7,6.3-11.4,12.4"/>
				</g>
				<path class="st4" d="M501,724.3c-0.3-3.1,6.1-3.1,9.3-0.8s5.3,6.3,3.3,8.2c-2,2-4-1.8-3.9-3c0,0-2,2.9-3.7,1.5
					c-1.7-1.4,0.6-3.8,0.6-3.8S501.3,727.8,501,724.3z"/>
				<g>
					<path class="st5" d="M508.1,715.9c1.8,0.1,2.3,7.2,0.9,8.5c-1.3,1.3-2.3-2-2.3-4.9C506.7,717.6,507,715.9,508.1,715.9z"/>
					<path class="st5" d="M513.8,719.6c0.9,0.8-0.4,3-1.9,4.5c-1.2,1.2-2.6,2-3.3,1c-0.7-1,0.4-3,2-4.3
						C511.9,719.6,513.1,719,513.8,719.6z"/>
					<path class="st5" d="M509.5,725.8c-0.3-0.8,1.3-2.3,3.3-3.1c2-0.8,3.8-0.4,4,0.4c0.2,0.7-0.7,1.5-3.2,2.5
						C511.7,726.3,509.8,726.7,509.5,725.8z"/>
				</g>
			</g>
		</g>
		<g>
			<path class="st2" d="M435.2,694.3c21.7-8.9,51.4,34.8,20.6,81.2C435.4,771.6,405.5,706.5,435.2,694.3z"/>
			<path class="st2" d="M441.2,710.5c0,0,16.2,23.2,14.6,64.9"/>
			<path class="st2" d="M431.5,715.1c0,0,1.9,2.8,2.7,5.1"/>
			<path class="st2" d="M440,725.4c0,0,1.7,3.1,1.8,4.4"/>
			<path class="st2" d="M432.8,729.1c0,0,1.9,2.9,2.1,3.8"/>
			<path class="st2" d="M440,736.4c0,0,1.8,4,1.8,5.4"/>
			<path class="st2" d="M454.2,727.6c0,0,1.1,3.5,1,4.5"/>
			<path class="st2" d="M460.2,728.2c0,0,0.8,3.1,0.6,4.7"/>
			<path class="st2" d="M458,738.5c0,0,0.2,3.1,0,4.4"/>
			<path class="st2" d="M449.6,713.5c0,0,1.1,2.3,1.1,3.4"/>
			<path class="st2" d="M455.8,714.2c0,0,0.7,1.8,0.9,2.7"/>
		</g>
		<g>
			<path class="st2" d="M401.8,734.1c9.6-8.7,31.4-8.9,44.6,24.4s3.2,60.4,3.2,60.4s-24.7-3.3-41.6-29.6
				C391.1,763.1,391.6,743.3,401.8,734.1z"/>
			<path class="st2" d="M413.3,750.9c0,0,21.5,13.4,36.3,68.1"/>
			<path class="st2" d="M427.6,749.3c0,0,2.2,2.1,3.3,5.3"/>
			<path class="st2" d="M430,760.1c0,0,2.1,2,2.9,4.7"/>
			<path class="st2" d="M438.8,764.9c0,0,2.2,2.6,2.5,5.5"/>
			<path class="st2" d="M439.4,774c0,0,1,2,1.2,5"/>
			<path class="st2" d="M402.3,750.8c0,0,1.6,2.2,2.1,3.6"/>
			<path class="st2" d="M416.7,743.6c0,0,1.3,1.3,2.2,3.3"/>
			<path class="st2" d="M435.4,750.9c0,0,1.2,1.4,1.8,3.6"/>
			<path class="st2" d="M404.3,762.8c0,0,0.9,3,2.4,4.7"/>
			<path class="st2" d="M421.7,767.6c0,0,2.5,2.6,2.3,4.1"/>
		</g>
		<g>
			<path class="st2" d="M533.8,757.1c12,20.1-11.3,52.4-65.6,54.7C472.2,752.2,520.9,735.5,533.8,757.1z"/>
			<path class="st2" d="M517.5,766.2c0,0-27.1,7-49.3,45.6"/>
			<path class="st2" d="M511.8,777.9c0,0-2.5,1.4-3.4,2.3"/>
			<path class="st2" d="M501.3,783.1c0,0-2.8,1.5-4,3"/>
			<path class="st2" d="M490.7,792.5c0,0-2.3,1.7-3.6,3.4"/>
			<path class="st2" d="M505.1,789c0,0-1.8,1.8-2.4,2.4"/>
			<path class="st2" d="M516.4,786.1c0,0-2.2,1.6-3,2.9"/>
			<path class="st2" d="M520.6,774c0,0-2.6,2.2-3.1,3.1"/>
			<path class="st2" d="M513.3,783.1c0,0-1.7,1-2.3,1.8"/>
			<line class="st2" x1="524.8" y1="777.9" x2="523.2" y2="780.2"/>
			<path class="st2" d="M502.6,760.6c0,0-2.8,1.2-4.1,2.5"/>
			<path class="st2" d="M501.3,766.2c0,0-2.2,2-2.8,3.4"/>
			<path class="st2" d="M513.3,761.9c0,0-1.7,0.1-3.2,1.2"/>
		</g>
		<g>
			<path class="st2" d="M481,743.6c18.1,6.8,18.5,48.9-26.7,73.6C432.8,794.1,446.3,730.5,481,743.6z"/>
			<path class="st2" d="M471.8,757.1c0,0-18.2,17.6-17.6,60.1"/>
			<path class="st2" d="M471.8,769.6c0,0-1.5,1.9-1.8,3.9"/>
			<path class="st2" d="M465.3,784c0,0-1.2,2.7-1.5,3.6"/>
			<path class="st2" d="M481.4,782c0,0-2.3,3-2.7,5.1"/>
			<path class="st2" d="M478.7,764.8c0,0-1.5,1.9-1.6,2.7"/>
			<path class="st2" d="M477.9,776.6c0,0-1.2,2-1.4,2.9"/>
			<path class="st2" d="M457.5,759.3c0,0-2.1,3.1-2.6,5.6"/>
			<path class="st2" d="M458.7,766.6c0,0-1.5,2.7-1.8,4.3"/>
			<path class="st2" d="M465.3,752.8c0,0-1.3,1.9-1.5,2.8"/>
		</g>
		<g>
			<path class="st2" d="M559.1,803.4c0.4-16-31.7-34.7-79,10.7C480.1,814.1,558,841.8,559.1,803.4z"/>
			<path class="st2" d="M545.7,805.3c0,0-28.6-12.7-65.7,8.7"/>
			<path class="st2" d="M533.1,795.2c0,0,3.4-0.9,5.3,0"/>
			<path class="st2" d="M531.5,798.5c0,0,2.6,0,3.9,0.7"/>
			<path class="st2" d="M533.4,790.2c0,0,2.3-0.8,3.7,0"/>
			<path class="st2" d="M522,812.4c0,0,3,0.3,3.8,1.2"/>
			<path class="st2" d="M522,806.3c0,0,2.7-0.3,3.8,0.7"/>
			<path class="st2" d="M533.4,813c0,0,2.6-0.8,4.5,1"/>
		</g>
	</g>
	<g>
		<g>
			<path class="st2" d="M153.7,812.3c0,0-5.6-16.7-3.1-34.9c2.1-15,14.5-18.5,22.2-14.4c8.5,4.6,11.9,19,0,32.6
				C161,809.1,159.3,822.2,153.7,812.3z"/>
			<path class="st2" d="M167.5,772.3c0,0-7.8,12.2-9.4,36.3"/>
			<path class="st2" d="M158.9,769.1c0,0-1.3,2.7-1.5,3.9"/>
			<path class="st2" d="M161.4,775c0,0-0.6,2.1-0.8,3.3"/>
			<line class="st2" x1="172.7" y1="773" x2="171.3" y2="775.4"/>
			<line class="st2" x1="169.2" y1="779.6" x2="167.5" y2="783.2"/>
		</g>
		<g>
			<path class="st2" d="M113.6,762c8.3-7,27-8.6,39.2,9.9c9,13.7,12.1,28.7,3.6,60.7c0,0-17.6-11.4-36.9-31.3
				C104.7,786,101.5,772.1,113.6,762z"/>
			<path class="st2" d="M127.5,773.9c0,0,19.7,20.4,26.2,50.6"/>
			<path class="st2" d="M138.5,779.3c0,0,2.1,2.2,2.8,4.7"/>
			<path class="st2" d="M125.3,778.3c0,0,1.7,1.7,2.2,2.7"/>
			<path class="st2" d="M114.5,778.3c0,0,2.1,1.7,2.6,2.7"/>
			<path class="st2" d="M116.2,773.9c0,0,1.5,1.2,2,2.2"/>
			<line class="st2" x1="132.4" y1="770.7" x2="133.8" y2="773"/>
			<path class="st2" d="M140.6,768.4c0,0,1.5,2.6,1.6,3.4"/>
			<path class="st2" d="M145.8,779.6c0,0,1.8,2.5,2.4,4.3"/>
			<path class="st2" d="M148.2,792.2c0,0,1.2,3,1.4,5"/>
			<path class="st2" d="M153.2,786c0,0,1,3.1,1.1,4.4"/>
		</g>
		<g>
			<path class="st2" d="M157,846.5c-3.6-1.6-10.1-24.3,1.1-47.1c12.7-25.8,35.5-16.2,38.6-2.8s-3.6,24.9-19.1,34.9
				S163.2,849.2,157,846.5z"/>
			<path class="st2" d="M181.3,797.1c0,0-15.7,14.7-22.4,45.5"/>
			<path class="st2" d="M189.6,813.3c0,0-1,2.4-3.2,3.6"/>
			<path class="st2" d="M180.6,817.8c0,0-1.4,1-2.3,2.6"/>
			<path class="st2" d="M173.4,826.7c0,0-1.4,1.5-2.2,2.9"/>
			<path class="st2" d="M183.7,806.2c0,0-1.3,0.9-1.8,2.3"/>
			<path class="st2" d="M191.4,798.7c0,0,0,2.6-1.1,3.6"/>
			<path class="st2" d="M169.2,805.4c0,0-1.5,2-1.7,3.2"/>
			<path class="st2" d="M163.7,819.1c0,0-1.1,1.8-1.5,4.2"/>
			<path class="st2" d="M165.3,801.1c0,0-0.6,1.7-0.9,3"/>
			<path class="st2" d="M173.4,790.8c0,0-1.2,1.9-1.5,4.1"/>
		</g>
		<g>
			<path class="st2" d="M93.1,794.7c13.4-18.9,46.2-10.7,59,20.3c5.2,12.7,11.5,34.8,7.1,36.7c-5.3,2.3-7.2-10.1-36.5-9
				C91,844,81,811.8,93.1,794.7z"/>
			<path class="st2" d="M112.3,808.5c0,0,29.7,13.2,43,36.3"/>
			<path class="st2" d="M114.5,819.9c0,0,3.3,1.4,5.1,3.4"/>
			<path class="st2" d="M117.1,825.8c0,0,3.2,1.5,4.4,3.2"/>
			<path class="st2" d="M103.3,813.9c0,0,2.8,1.1,4,2.4"/>
			<path class="st2" d="M104,822c0,0,1.9,0.6,3.3,1.7"/>
			<path class="st2" d="M110.1,833.1c0,0,2.5,0.4,4.4,1.4"/>
			<path class="st2" d="M123.2,823.7c0,0,2.2,1,3.1,2.1"/>
			<path class="st2" d="M134.6,832.2c0,0,2,0.5,3.8,1.6"/>
			<path class="st2" d="M134.6,836.8c0,0,2.1,0.6,3.8,1.7"/>
			<path class="st2" d="M142.2,836.8c0,0,2.1,1,3.6,1.7"/>
			<path class="st2" d="M128.5,805.4c0,0,1.6,2.8,2.5,3.7"/>
			<path class="st2" d="M128.5,798.1c0,0,2.3,3,3,3.8"/>
			<path class="st2" d="M136.6,806.2c0,0,1.8,3.1,3.1,4.8"/>
			<path class="st2" d="M138.5,814.6c0,0,2.5,3.3,3.7,4.5"/>
			<path class="st2" d="M146.8,817.3c0,0,1.4,4.7,2.8,6.5"/>
		</g>
	</g>
	<g>
		<g>
			<path class="st4" d="M450.6,514.8c8.6,3.6,19.1,26.3-18.2,44.8C422.2,541.1,429.9,506.2,450.6,514.8z"/>
			<path class="st4" d="M446,523.2c0,0-11.4,15.6-13.6,36.4"/>
			<path class="st4" d="M438.5,522.6c0,0-1.6,2-1.8,3.4"/>
			<path class="st4" d="M435.5,533c0,0-1.3,2.7-1,4.1"/>
			<path class="st4" d="M450.8,524.2c0,0-1.6,1.8-1.5,3.3"/>
			<path class="st4" d="M454.7,526.2c0,0,0.1,2.9-0.9,3.8"/>
		</g>
		<g>
			<path class="st4" d="M397.6,488.8c14.6-7,35.4,5.8,33.7,45c-1.7,39.1,11.7,48.3-1.7,48.3S357,508.2,397.6,488.8z"/>
			<path class="st4" d="M403.3,507.5c0,0,18.6,14.6,18.9,71"/>
			<path class="st4" d="M412.8,506.3c0,0,1.9,2.6,2.3,5.9"/>
			<path class="st4" d="M419.5,517.6c0,0,1.1,1.5,0.9,5.6"/>
			<path class="st4" d="M416.7,500.3c0,0,1.6,2.5,1.6,4.1"/>
			<path class="st4" d="M394.5,505.6c0,0,2.3,3.7,2.6,5.8"/>
			<path class="st4" d="M401.9,523.2c0,0,2.1,2.8,2.3,5.4"/>
			<path class="st4" d="M424.6,514.8c0,0,1.1,2.7,1,3.6"/>
			<path class="st4" d="M399.4,497.6c0,0,1.4,1.8,1.6,2.7"/>
		</g>
		<g>
			<path class="st4" d="M465.7,536.8c14.8,7.3,15.6,37.4-12.1,54.4c-25.8,15.9-32.5,25.6-36.3,16.7
				C412.1,595.5,426.6,517.4,465.7,536.8z"/>
			<path class="st4" d="M459.2,548.8c0,0-27.6,22-35.8,54.6"/>
			<path class="st4" d="M438.1,551.9c0,0-1.9,2-2.6,3.5"/>
			<path class="st4" d="M433.2,562.7c0,0-1.5,1.9-1.9,3"/>
			<path class="st4" d="M445.2,552.9c0,0-1.6,1.7-2.1,2.5"/>
			<path class="st4" d="M449.3,542.1c0,0-1.9,1.3-2.5,2.1"/>
			<path class="st4" d="M461.2,557.6c0,0-1.6,2.6-2,4"/>
			<path class="st4" d="M449.9,575c0,0-2.6,2.7-3.1,4.3"/>
			<path class="st4" d="M438.8,590.4c0,0-1.7,2.3-2.6,3.6"/>
			<path class="st4" d="M456.4,573.4c0,0-1.7,2.9-2.3,4.4"/>
			<path class="st4" d="M462.3,575c0,0-1,3.2-2.1,3.5"/>
		</g>
		<g>
			<path class="st4" d="M378.3,533c17.3-9.2,45.6-1.4,46.8,38.5s0.3,45.8-8.7,40.5c-9-5.3-18.8-22.9-41.3-27.7
				C352.6,579.5,359.8,542.9,378.3,533z"/>
			<path class="st4" d="M420.9,609.6c0,0-6.7-34.6-30.2-53.5"/>
			<path class="st4" d="M406.3,588.7c0,0,1.9,1.9,2.2,3.3"/>
			<path class="st4" d="M409.4,597.6c0,0,2,1.8,2.7,3.2"/>
			<path class="st4" d="M400.3,590.4c0,0,2,1.4,3,3.1"/>
			<path class="st4" d="M416.1,582.1c0,0,1.7,2.3,1.7,4.7"/>
			<path class="st4" d="M412.1,564.8c0,0,1.4,3.6,1.2,5.4"/>
			<path class="st4" d="M417.3,564.8c0,0,0.8,1.9,0.4,3.9"/>
			<path class="st4" d="M413.3,550.3c0,0,1.1,1.9,1.4,4.2"/>
			<path class="st4" d="M405.2,545.6c0,0,1,1.9,1.1,3.3"/>
		</g>
	</g>
	<g>
		<path class="st6" d="M357,459.4c1.3,4.6,6.2,8.6,13.3,10.9c14.1,4.4,26.7,18.9,24.2,35.3c-2.6,16.4-3.7,24,7.6,34.1
			c11.2,10.1,16.7,29.7,8.1,40c-6.9,8.2-15.7,0.5-23.6,7c-9.1,7.4-14.7,4.5-20.7,4.8c-6,0.4-8.6,4.1-16.5,5.7
			c-9.2,1.9-22.3-4.7-19.3-21.1c2.9-15.8,15.8-16.7,18.1-37c2.2-19.1-13.2-12.1-14.7-30.8c0,0-0.4-5.7,1.9-12.4
			c-3.7,1.6-7.7,2.6-11.9,2.8l0,0c0,0-4.8,64.5-4.6,65.1c0.3,0.6-13.9,9.3-35.7,22.9c-21.8,13.6-32.5-0.4-25.2-9.5
			c7.4-9.1,12.9-18.6,9.4-31.4c-4.8-17.3,14-32.6,20.6-44.2c5.1-8.9,2-19.6,0.8-24.3c-2.7-10.8-4.1-31.6,13.7-42.5
			C320.4,423.9,348.5,430,357,459.4z"/>
		<g>
			<path class="st4" d="M304.5,607.6c0,2.7,0,5.6,0,7.8c0,0-12.1,5.9-9.9,11.7c2.2,5.9,22.6-1.2,24.2-3.5v-15.4
				C312.6,610.1,304.5,607.6,304.5,607.6z"/>
			<path class="st8" d="M304.5,598.2c0,0,0,4.5,0,9.3c0,0,8.1,2.6,14.4,0.6v-5.5C318.9,602.7,313.2,596.4,304.5,598.2z"/>
		</g>
		<g>
			<path class="st8" d="M351.1,607.6c-0.7-4.1-1.8-7.9-3.1-10.1c-2.9-4.7-9-13.1-14.7-8.7c-5.7,4.4-1.4,7.4-1.4,7.4s2.1,7.2,2.9,14
				C334.8,610.2,343.9,612.7,351.1,607.6z"/>
			<path class="st4" d="M351.1,607.6c-7.1,5.1-16.3,2.6-16.3,2.6c0.3,2.9,0.4,5.8-0.1,7.9c0,0-8.2,8.9-2.8,13.5
				c5.3,4.6,19.4-4.6,20-10.7C352.2,617.5,351.9,612.3,351.1,607.6z"/>
		</g>
		<path class="st3" d="M326.4,448.6c0,0,1.8,2.4,2.6,4.8"/>
		<path class="st8" d="M312.9,469.9c0,0,2,6.6,0,12.2c0,0,7.2,2.4,12-1.7c0,0-3.3-3.8-3.4-12.4L312.9,469.9z"/>
		<g>
			<g>
				<path class="st6" d="M303.7,513.4c0.3-0.9,0.5-1.8,0.8-2.7c-0.6,1-0.9,1.7-0.9,1.7S303.6,512.7,303.7,513.4z"/>
				<path class="st2" d="M337.1,505.3c-2.9-4.8-8.1-15-9.6-20.7c-0.7-2.6-1.9-5.4-3.6-5.2c-1.7,0.3-2.2,2-2.2,2s-0.6-2.2-2.4-2
					c-1.7,0.2-2.2,2.3-2.2,2.3c-0.4-3.1-4-3.1-4.8,0c-0.3,1-0.6,2.3-0.9,3.6c-1.6,6.4-3.9,15.8-6.7,25.4c-0.3,0.9-0.5,1.8-0.8,2.7
					c0.3,2.1,1.5,6.8,5.4,10.9c5.7,5.9,11.6,15.4,6.5,17.9c-4.7,2.3-12.9-4.9-15.7-17.5c-7.3,19.6-20.3,45.3-23.3,49.6
					c-3.4,4.8-8.2,15.5,2.3,21.4c10.4,5.8,20.6-5.6,20.6-5.6s2.1,10.6,14.2,12.5c12.6,2,21-9.3,21-9.3c2.8-0.5,28.1-20.9,30.3-42.5
					C367.2,529.2,339.9,510,337.1,505.3z"/>
			</g>
			<path class="st10" d="M317,481.8c0,0,1.9,28.5-9,60.4c-11.6,34.1-8.5,47.8-8.5,47.8"/>
			<path class="st10" d="M321.6,481.4c0,0,5.4,28.5,7.3,48.8c1.9,20.3,5.8,35,5.8,35"/>
			<path class="st8" d="M309.2,524.3c-3.9-4.1-5.1-8.8-5.4-10.9c-0.1-0.7,0.2-1.7,0.8-2.7c2.8-9.6,5.1-18.9,6.7-25.4c0,0,0,0,0,0
				c0,0-10.9,10.6-12.1,26.3c-0.4,4.8,0,9.2,0.9,13c2.9,12.7,11.1,19.8,15.7,17.5C320.8,539.7,314.9,530.3,309.2,524.3z"/>
		</g>
		<path class="st8" d="M320.6,537.6c-3.3-4.3,11.7-16.6,16.2-21.7c-0.4-16.5-5.7-18.4-9.5-31.4c4.9,2.9,11.2,8.7,15.1,21
			C347.2,520.4,326.4,545,320.6,537.6z"/>
		<path class="st3" d="M377.7,530c0,0,0.5,6,3.7,7.9"/>
		<path class="st3" d="M384.9,524.3c0,0,0,11.2,5.5,14.7"/>
		<path class="st3" d="M386.4,563.1c0,0,2.4,6.9-1.5,10.5"/>
		<path class="st3" d="M395.1,564.1c0,0,2.1,3.7,0,7.8"/>
		<path class="st3" d="M296.5,475c0,0,2.4,3.4,0.8,7.9"/>
		<path class="st3" d="M301.3,475.5c0,0,1.4,3.1,0,6"/>
		<path class="st3" d="M279.3,532.4c0,0-3.9,4.5-1.7,10.8"/>
		<path class="st3" d="M284.4,533.3c0,0-2.2,3.9-0.7,7.8"/>
		<path class="st3" d="M268.2,573.3c0,0-1.6,3.3-0.9,5.4"/>
		<path class="st3" d="M272,574.1c0,0-1.2,2.9-0.5,4.6"/>
		<path class="st3" d="M350.5,462.4c0,0,0.9,5.4,5,6.3"/>
		<path class="st3" d="M346.8,464.1c0,0,0.5,3.4,2.6,4"/>
		<g>
			<g>
				<g>
					<path class="st8" d="M328.9,462.8c1.4-5.5,0-9.4,0-9.4c-12.1-3.5-16.3-12.5-16.3-12.5c-1.8,12.5-13.5,15.2-13.5,15.2
						c0,9.3,7.5,16.8,16.8,16.8c4.8,0,9.2-2.1,12.2-5.3C328.1,466.1,328.4,464.5,328.9,462.8z"/>
				</g>
				
					<ellipse transform="matrix(0.9938 -0.1112 0.1112 0.9938 -49.094 38.1348)" class="st9" cx="317.2" cy="459" rx="0.8" ry="1.4"/>
				
					<ellipse transform="matrix(0.9938 -0.1112 0.1112 0.9938 -49.1821 37.6132)" class="st9" cx="312.5" cy="459.6" rx="0.8" ry="1.4"/>
			</g>
		</g>
		<path class="st6" d="M357,459.4c1.3,4.6,6.2,8.6,13.3,10.9c14.1,4.4,26.7,18.9,24.2,35.3c-2.6,16.4-3.7,24,7.6,34.1
			c11.2,10.1,16.7,29.7,8.1,40c-6.9,8.2-15.7,0.5-23.6,7c-9.1,7.4-14.7,4.5-20.7,4.8c-6,0.4-8.6,4.1-16.5,5.7
			c-9.2,1.9-22.3-4.7-19.3-21.1c2.9-15.8,15.8-16.7,18.1-37c2.2-19.1-13.2-12.1-14.7-30.8c0,0-0.4-5.7,1.9-12.4c0,0,1.1-2.9,2.6-6.3
			"/>
		<path class="st3" d="M299.1,456.2c0,0,11.7-2.8,13.5-15.2c0,0,4.2,8.9,16.3,12.5c0,0,1.4,3.9,0,9.4c-1.4,5.5-1.7,9.3,5.8,13.4
			c9.6,5.2,3.6,11.7,0.7,19.8"/>
		<g>
			<path class="st3" d="M312,499.5c0,0,9.8,24.1,3.9,47.9"/>
			<circle class="st6" cx="311.1" cy="497.4" r="2.3"/>
			<circle class="st6" cx="318.4" cy="502.2" r="2.2"/>
			<circle class="st6" cx="308.6" cy="504.5" r="2.2"/>
			<circle class="st6" cx="310.7" cy="514.1" r="2.3"/>
			<circle class="st6" cx="325.3" cy="496.9" r="2.2"/>
			<circle class="st6" cx="329.1" cy="505.1" r="2"/>
			<circle class="st6" cx="323.1" cy="511.8" r="2.3"/>
			<polyline class="st3" points="310.1,505.9 314.9,508.8 317.4,504.3 			"/>
			<polyline class="st3" points="312.4,515.4 316.8,517.7 321.4,513.1 			"/>
			<line class="st3" x1="324.7" y1="498.9" x2="316" y2="513.7"/>
			<line class="st3" x1="327.1" y1="505.1" x2="320.8" y2="505.5"/>
		</g>
	</g>
	<g>
		<g>
			
				<ellipse transform="matrix(0.9914 -0.131 0.131 0.9914 -69.1577 79.4634)" class="st0" cx="569.2" cy="565.2" rx="8.7" ry="4.9"/>
			<path class="st0" d="M600.9,501.5c3.2,5.6-11.1,21.8-32.4,16.4C570.5,509.1,595.4,491.8,600.9,501.5z"/>
			<path class="st0" d="M560.7,521.7c-1.3,5.1,4.7,8.7,19.9,7.3c18.2-1.6,24-12,20.1-16.7C596,506.5,563.5,510.8,560.7,521.7z"/>
			<path class="st0" d="M584.3,479.4c7.4,4,0.5,28.5-18.8,37.7C546.1,526.2,569.6,471.4,584.3,479.4z"/>
			<path class="st0" d="M590.1,493.4c5.6,5.2-5,17.2-12.6,23.8c-7,6.1-20.5,9.9-20.9,0C556.1,507.3,581.7,485.7,590.1,493.4z"/>
			
				<ellipse transform="matrix(0.9451 -0.3267 0.3267 0.9451 -152.2436 214.9042)" class="st0" cx="563.6" cy="560.7" rx="8.7" ry="4.9"/>
			
				<ellipse transform="matrix(0.1369 -0.9906 0.9906 0.1369 -75.9158 1051.3324)" class="st0" cx="565.4" cy="569.2" rx="4.9" ry="8.7"/>
			<path class="st1" d="M546.1,562.2c1-2.4,9.8-2.4,12,4.1c1.9,5.7-2.1,13-5.7,10.3c-2.4-1.8,1.3-5.7,1.3-5.7s-3.7,1.7-4.8-0.6
				c-1.1-2.3,2.5-3.4,2.5-3.4S544.8,565.2,546.1,562.2z"/>
			<path class="st3" d="M548.9,570.3c0,0-36,20.5-34.8,60.4c-2.2-76,34.2-98.9,33.7-98.4"/>
			<path class="st0" d="M555.1,521.6c-5.3-1.3-6.4-9.6-4.3-21.4c3.1-18,18.6-29.1,22.3-19.2C576.8,490.9,563.1,523.7,555.1,521.6z"
				/>
			<path class="st1" d="M541.5,521.1c0.4-4.2,11.1-7.4,18.3,0.1c5.6,5.8,3.2,17.1-1.3,17.1c-5.5,0.1-3-9.3-3-9.3s-3.8,6.3-7.1,3.9
				c-3.2-2.3,1.5-7,1.5-7S540.9,527.4,541.5,521.1z"/>
		</g>
		<g>
			<path class="st7" d="M560.2,586.4c9.6,7.8-5.8,28.6-21.5,38S511.3,636,511.3,636s1.2-19.2,13.5-33.7
				C537.1,587.8,553.4,580.8,560.2,586.4z"/>
			<g>
				<path class="st7" d="M511.3,636c0,0-21-10.7-29.7-39.7c-7.4-24.7,16.9-32.6,26.8-8.4C518.5,612.9,511.3,636,511.3,636z"/>
				<path class="st11" d="M560.2,586.4c0,0-15.1,32.2-49,49.6c-17.1-22.7-23.2-62.1-23.2-62.1"/>
			</g>
		</g>
	</g>
	<g>
		<path class="st0" d="M354.4,753.6c4.7-0.8,11.2,8.7,4.2,26.9C358.5,780.5,344,755.4,354.4,753.6z"/>
		<path class="st0" d="M362.7,759.2c7.5,0.5,5.5,20.3-3.1,25.7C354.7,781.3,353.5,758.6,362.7,759.2z"/>
		<path class="st0" d="M337.7,762.6c3.6-5.2,14.6,2.9,16.3,17.3C346.9,780.9,333.1,769.2,337.7,762.6z"/>
		<path class="st0" d="M343.3,795.3c2.3-2,7.8,2.2,8.4,8.6C347.8,804.8,340.1,798,343.3,795.3z"/>
		<path class="st0" d="M347.6,760.5c5.2-2.7,13,6.9,10,23.6C350.9,782.5,340.4,764.3,347.6,760.5z"/>
		<path class="st0" d="M333.6,773.8c1.4-5.2,19-3.3,21.7,10.7C350.6,787.3,331.1,782.6,333.6,773.8z"/>
		<path class="st2" d="M350.1,794.6c-3.4-1.1-2.2-9.5,5.2-12.4c8.7-3.3,14.5,4.2,11.2,7c-3,2.5-6.9-3.1-6.9-3.1s3,7.9-1.1,8.4
			c-3.8,0.5-3.2-7.6-3.2-7.6S354.1,795.9,350.1,794.6z"/>
		<path class="st3" d="M359.5,794.3c0,0,5.7,16.1,3.9,27.9c0,0-2.3-8.8-7.5-12.8"/>
		<path class="st0" d="M342.2,802.2c0.7-3.3,8.5-1.7,11.3,4.4C350.6,808.1,341.3,806.8,342.2,802.2z"/>
		<path class="st0" d="M349.4,795.4c3.2-1.3,6.7,5.2,4.1,11.2C349.5,805.2,345.6,796.9,349.4,795.4z"/>
		<path class="st2" d="M350.9,813.1c-2.2,0-1.5-4.8,0-6.7c2.2-2.9,8.3-3.5,8.3-1c0,1.3-1.5,2.5-3.8,1.6c0,0,2,2.1,0.9,3.2
			c-1,1-3-1-3-1S353.2,813.2,350.9,813.1z"/>
	</g>
	<g>
		<g>
			<circle class="st1" cx="305.8" cy="786.3" r="3.3"/>
			<circle class="st1" cx="316.3" cy="790.6" r="3.3"/>
			<circle class="st1" cx="303.9" cy="797.2" r="3.3"/>
			<circle class="st1" cx="321" cy="801.5" r="3.3"/>
			<circle class="st1" cx="307.6" cy="807.2" r="3.3"/>
			<circle class="st1" cx="324.9" cy="814.2" r="3.3"/>
			<circle class="st1" cx="309.8" cy="816.6" r="3.3"/>
			<path class="st3" d="M307.6,789c0,0,13.3,23.1,9.7,54.1"/>
			<polyline class="st3" points="307,798.3 312.9,801.5 315.1,793.6 			"/>
			<polyline class="st3" points="310.8,808.4 315.6,811.3 319.3,804.3 			"/>
			<polyline class="st3" points="312.7,818.1 317.2,820.7 322.4,816.3 			"/>
			<g>
				<path class="st4" d="M342.2,824.4c4.1,0.7-1,11.4-1,11.4s5.5-1.2,4.1,3.6c-1.3,4.8-8.9,7.6-8.9,7.6s7.2-0.7,3.9,5.2
					s-13.2,9.9-23.7,6.4c-0.5-2.8,0-16.5,3.9-19.6c4.5-3.6,4.1,4.2,4.1,4.2s0.3-7.4,2.8-11.5c2.5-4.1,5.7-2.1,5.3,2.5
					C332.7,834.1,336.7,823.4,342.2,824.4z"/>
				<path class="st3" d="M339,831.9c0,0-4.6,17.5-22.3,26.6"/>
			</g>
			<g>
				<path class="st4" d="M304.1,850.4c0,0-5.8,0-5.8,3.9c0,3.9,11.4,6.1,18.1,4.2c0,0,2.4-5.1,0.6-16.7c-1.8-11.7-5.8-6.6-5.1-3.8
					c0,0-0.5-10.8-3.7-10.8s-2.1,5.7-2.1,5.7s-3.2-11.9-9.3-9.8c-6.1,2.1-4.4,15.9,4.1,18.9c0,0-4.4-1-5.3,2
					S301.6,850.1,304.1,850.4z"/>
				<path class="st3" d="M300.7,833.1c0,0,6.4,4,15.6,25.5"/>
			</g>
		</g>
		<g>
			<path class="st4" d="M467.9,817c-0.1,0.2-9-11.4-6.4-18.5c2.6-0.2,5.3,2,12.3,0.7c3.8-0.7,6.9,0.7,8,3.1c1.1,2.4,3-1.3,6.2-3.8
				s3.8-3.9,9.1-4.2c5.3-0.3,8.7,0.4,8.6,5.1s-3.8,6.4-2,11.7s4.2,4.9,9.2,5.3c5,0.4,9.1,6.3,6.1,9.3s-12,4.6-13.3,9.4
				s-12.1,6.9-19.7,2.1c-7.6-4.9-18.1-9.3-21.2-6.1C461.6,834.3,467.9,817,467.9,817z"/>
			<g>
				<g>
					<path class="st4" d="M400.7,776.6c3.8-1.9,10.5-4.1,17-0.1c8.6,5.3,13,0.7,20.6,7.7c10.9,10,8,38.2-8.1,39.3
						c-15.4,1.1-12.8,4.7-22.3,4.8c-9.4,0.1-8.1-4.3-20.4-4c-13.9,0.3-23.2-27.1-8.6-40.7C387.5,775.6,395.4,779.3,400.7,776.6z"/>
					<path class="st6" d="M405.5,780.2c0,0,3.2,4.5,8.2,0.5c0,0-2.8-2.2-1.8-7.6c0.7-3.9,3-5.5,5.6-5.2c2.8,0.3,3.4-2.3,1.1-3.1
						c-3.2-1.1-7.4,0.3-9.3,4.7C407.8,773.3,409.8,777.6,405.5,780.2z"/>
					<path class="st10" d="M394.1,791.1c-4.4,5.6-4.9,17.7-0.3,24.2"/>
					<path class="st10" d="M422.3,791.2c2.3,4.6,4.1,16.5-0.7,23.6"/>
					<path class="st1" d="M398.9,804c2.1-0.3,1.8,5.3-0.1,5.3C396.9,809.3,397.3,804.3,398.9,804z"/>
					<path class="st0" d="M413.7,815c1.4,0.1,1,3.8-0.5,3.5C411.7,818.1,412.3,814.9,413.7,815z"/>
					<path class="st1" d="M435.8,798.3c1.2,0.1,1.3,2.3,1.3,5c0,2.9-1,5.7-2.1,5.4c-1.2-0.3-1.3-2.5-1.1-5.3
						C434,800.5,434.4,798.2,435.8,798.3z"/>
					<path class="st1" d="M403.3,785.3c1.6,1,0.6,3.5-1.4,7.6c-1.7,3.6-0.6,8-2.3,8.2c-1.7,0.1-2.2-5.6-1.5-9.5
						C398.8,787.6,401.8,784.3,403.3,785.3z"/>
					<path class="st1" d="M383.5,800.3c0.1-0.6-0.1-1.4-0.3-2.1c-0.3-0.9-1.7-0.8-1.9,0.2c-0.2,0.8-0.1,1.8,0.5,2.5
						C382.3,801.5,383.4,801.1,383.5,800.3z"/>
					<circle class="st1" cx="412.2" cy="786.7" r="1"/>
					<path class="st1" d="M413.6,793.3c2.6-0.4,6.9,17,1.7,18.5c-0.8,0.2-1.9-0.6-1.3-3.5C415.7,801.1,410.9,793.7,413.6,793.3z"/>
					<path class="st1" d="M420.6,783.2c0.2-2.2,6.7-2.6,11.6,1.9c4,3.7,4.8,9.3,2.6,9.3c-1.7,0-2.4-6.1-6.8-8.2
						C423.6,784.1,420.5,785.3,420.6,783.2z"/>
					<path class="st1" d="M396,782.4c0.5,1.6-2.9,1-6.3,4.1c-2.9,2.6-4.3,5.7-5.3,4.8c-1.2-1.1,0.2-4.2,3-6.7
						C389.8,782.4,395.4,780.4,396,782.4z"/>
				</g>
				<path class="st0" d="M430.2,845.1c0,0,9.5,5.3,10,14c0.6,8.7,6.9,6.2,9.6,12.6c1,2.2,3.3,6.7,6.3,4.1s4-1,3.7-7.7
					c0,0-0.5-4.2,3.8-5.8s5.4,1,7-4.1c1.5-5.1,7-2.5,8-4.9c3.4-8.5-4.3-11.5-2.5-15.1L430.2,845.1z"/>
				<path class="st10" d="M453.9,864.1c0,0-1.4-15.2,8.5-23.3"/>
				<g>
					<path class="st0" d="M375.2,858.4c0,0-6.7,6.5-1.3,11.3s11.6,0.7,13,6.1s4,5.9,7.8,6.9s5.2,4.6,8.2,2.6s2.1-4.8,4.8-6.1
						c2.8-1.3-1.9-6.8,1.6-8.1c3.5-1.3,1.8,4,6.6,4.5c4.8,0.5,5-1.6,8.8,1.5c3.8,3.1,8.5,3.3,10.2,1c1.8-2.3,3.9-7.7,1.3-10.8
						c-2.6-3.1-7.9-6-3.2-8.2c4.7-2.1,8.3,2.1,9.6-1.1c1.3-3.1-0.2-10-12.3-12.9C418.1,842.2,375.2,858.4,375.2,858.4z"/>
					<path class="st10" d="M424.7,868c0,0-4.7-11.8-30.2-16.2"/>
				</g>
				<path class="st10" d="M497.2,804c0,0-18.7,9.7-25.1,27.1"/>
				<g>
					<path class="st0" d="M371.5,837c0,0-15.9-5.2-22.8-3.9c-3.9,0.7-3.8,2.6-7.8,2.5s-7.9-0.1-8.9,4.1c-0.7,3-1.7,4.1,0,6.7
						c1.7,2.6,7.3,2.5,7.5,4.9c0.1,2-2,3.1-2.3,5c-0.3,1.9,1.6,2.5,1.4,4.8c-0.2,2.3-3.3,4.2-1.5,8s5.1,5.4,7.2,3.8
						c2.2-1.6,4.2-4.2,8.1-3.7s6.1-1.8,6.2-4.9c0.1-3.2,4.7-3.7,5.5-0.5c0.9,3.2-0.5,6.7,3.7,6.9s4.4-2.4,7.5-1.1
						c3.1,1.3,4.2-1,5.5-2.2c2.2-2,5.1-0.5,6.1-6.2C387.9,855.5,388,840.9,371.5,837z"/>
					<path class="st10" d="M345.1,859.5c0,0,5.9-16.7,39.2-13.8"/>
				</g>
				<g>
					<path class="st4" d="M438.8,803.8c3.4-2,9.4-4.4,15.5-1.1c8.2,4.3,11.9-0.1,19.3,5.8c10.6,8.4,9.7,34.4-5,36.4
						c-14,1.9-11.4,5.1-20.1,5.7c-8.6,0.6-7.7-3.4-18.8-2.4c-12.6,1.1-22.8-23.3-10.4-36.6C426.7,803.7,434.1,806.6,438.8,803.8z"/>
					<path class="st6" d="M450.7,806c0,0-2.5,4.4-7.5,1.2c0,0,2.4-2.3,1-7c-1-3.5-3.2-4.7-5.6-4.2c-2.5,0.5-3.3-1.8-1.3-2.7
						c2.8-1.3,6.8-0.4,8.9,3.5C448,799.9,446.5,804,450.7,806z"/>
					<path class="st10" d="M433.7,817.4c-3.7,5.3-3.4,16.5,1.2,22.1"/>
					<path class="st10" d="M459.5,815.8c2.4,4,4.7,14.8,0.8,21.6"/>
					<path class="st1" d="M438.8,829c1.9-0.4,2,4.7,0.3,4.8C437.3,833.9,437.4,829.3,438.8,829z"/>
					<path class="st1" d="M453,838.1c1.3,0,1.1,3.4-0.3,3.2C451.4,841.1,451.8,838.1,453,838.1z"/>
					<path class="st1" d="M472.2,821.5c1.1,0,1.3,2,1.5,4.4c0.2,2.7-0.5,5.3-1.6,5.1c-1.1-0.2-1.3-2.2-1.4-4.8
						C470.7,823.6,470.9,821.5,472.2,821.5z"/>
					<path class="st1" d="M441.8,811.6c1.5,0.8,0.7,3.1-0.8,7c-1.3,3.4-0.1,7.4-1.6,7.6c-1.5,0.2-2.4-5-2-8.6
						S440.3,810.7,441.8,811.6z"/>
					<path class="st0" d="M424.5,826.9c0.2-0.8-0.1-2-0.6-2.9c-0.3-0.6-1.2-0.4-1.3,0.2c-0.3,1-0.3,2.4,0.8,3.2
						C423.8,827.7,424.4,827.4,424.5,826.9z"/>
					<circle class="st1" cx="449.9" cy="812.3" r="0.9"/>
					<path class="st1" d="M451.6,818.3c2.4-0.5,7.4,15.1,2.7,16.8c-0.7,0.2-1.8-0.4-1.4-3.1C454,825.3,449.1,818.8,451.6,818.3z"/>
					<path class="st1" d="M457.4,808.6c0-2,6-2.8,10.7,1c3.8,3.1,4.9,8.2,2.9,8.3c-1.6,0.1-2.5-5.5-6.7-7.1
						C460.2,809.3,457.4,810.6,457.4,808.6z"/>
					<path class="st1" d="M434.9,809.4c0.5,1.5-2.6,1.1-5.5,4.1c-2.5,2.6-3.6,5.5-4.6,4.7c-1.2-0.9,0-3.8,2.3-6.3
						C429.2,809.7,434.2,807.5,434.9,809.4z"/>
				</g>
				<g>
					<path class="st4" d="M388.3,810.6c3.8-1.9,10.5-4.1,17-0.1c8.6,5.3,13,0.7,20.6,7.7c10.9,10,8,38.2-8.1,39.3
						c-15.4,1.1-12.8,4.7-22.3,4.8c-9.4,0.1-8.1-4.3-20.4-4c-13.9,0.3-23.2-27.1-8.6-40.7C375.1,809.6,383,813.2,388.3,810.6z"/>
					<path class="st6" d="M393.1,814.2c0,0,3.2,4.5,8.2,0.5c0,0-2.8-2.2-1.8-7.6c0.7-3.9,3-5.5,5.6-5.2c2.8,0.3,3.4-2.3,1.1-3.1
						c-3.2-1.1-7.4,0.3-9.3,4.7C395.4,807.3,397.4,811.5,393.1,814.2z"/>
					<path class="st10" d="M381.7,825c-4.4,5.6-4.9,17.7-0.3,24.2"/>
					<path class="st10" d="M409.9,825.1c2.3,4.6,4.1,16.5-0.7,23.6"/>
					<path class="st1" d="M386.5,838c2.1-0.3,1.8,5.3-0.1,5.3C384.5,843.2,384.9,838.2,386.5,838z"/>
					<path class="st1" d="M401.3,849c1.4,0.1,1,3.8-0.5,3.5C399.3,852.1,399.9,848.9,401.3,849z"/>
					<path class="st1" d="M423.4,832.3c1.2,0.1,1.3,2.3,1.3,5c0,2.9-1,5.7-2.1,5.4c-1.2-0.3-1.3-2.5-1.1-5.3
						C421.6,834.4,422,832.1,423.4,832.3z"/>
					<path class="st1" d="M390.9,819.3c1.6,1,0.6,3.5-1.4,7.6c-1.7,3.6-0.6,8-2.3,8.2c-1.7,0.1-2.2-5.6-1.5-9.5
						S389.4,818.2,390.9,819.3z"/>
					<path class="st1" d="M371.1,834.2c0.1-0.6-0.1-1.4-0.3-2.1c-0.3-0.9-1.7-0.8-1.9,0.2c-0.2,0.8-0.1,1.8,0.5,2.5
						C369.9,835.5,371,835.1,371.1,834.2z"/>
					<circle class="st1" cx="399.8" cy="820.7" r="1"/>
					<path class="st1" d="M401.2,827.3c2.6-0.4,6.9,17,1.7,18.5c-0.8,0.2-1.9-0.6-1.3-3.5C403.3,835.1,398.4,827.7,401.2,827.3z"/>
					<path class="st1" d="M408.2,817.1c0.2-2.2,6.7-2.6,11.6,1.9c4,3.7,4.8,9.3,2.6,9.3c-1.7,0-2.4-6.1-6.8-8.2
						C411.2,818.1,408.1,819.3,408.2,817.1z"/>
					<path class="st1" d="M383.6,816.4c0.5,1.6-2.9,1-6.3,4.1c-2.9,2.6-4.3,5.7-5.3,4.8c-1.2-1.1,0.2-4.2,3-6.7
						C377.4,816.3,383,814.3,383.6,816.4z"/>
				</g>
			</g>
		</g>
	</g>
</g>
</svg>
