<?xml version="1.0" encoding="utf-8"?>
<!-- Generator: Adobe Illustrator 22.1.0, SVG Export Plug-In . SVG Version: 6.00 Build 0)  -->
<svg version="1.1" id="圖層_1" xmlns="http://www.w3.org/2000/svg" xmlns:xlink="http://www.w3.org/1999/xlink" x="0px" y="0px"
	 viewBox="0 0 650.4 893.3" style="enable-background:new 0 0 650.4 893.3;" xml:space="preserve">
<style type="text/css">
	.st0{fill:#AF485C;stroke:#000000;stroke-width:0.4589;stroke-miterlimit:10;}
	.st1{fill:none;stroke:#000000;stroke-width:0.5736;stroke-miterlimit:10;}
	.st2{fill:#E5AEAE;stroke:#000000;stroke-width:0.4589;stroke-miterlimit:10;}
	.st3{fill:none;stroke:#000000;stroke-width:0.5736;stroke-linecap:round;stroke-linejoin:round;stroke-miterlimit:10;}
	.st4{fill:none;stroke:#000000;stroke-width:0.4589;stroke-linejoin:round;stroke-miterlimit:10;}
	.st5{fill:#AED1C1;stroke:#000000;stroke-width:0.4589;stroke-linejoin:round;stroke-miterlimit:10;}
	.st6{fill:#CECE46;stroke:#000000;stroke-width:0.4589;stroke-linejoin:round;stroke-miterlimit:10;}
	.st7{fill:#FFECD9;stroke:#000000;stroke-width:0.4589;stroke-miterlimit:10;}
	.st8{fill:none;stroke:#000000;stroke-width:0.4589;stroke-miterlimit:10;}
	.st9{fill:#FFFFFF;stroke:#000000;stroke-width:0.4589;stroke-linejoin:round;stroke-miterlimit:10;}
	.st10{fill:#FDE3B9;stroke:#000000;stroke-width:0.4589;stroke-miterlimit:10;}
	.st11{fill:#FFFFFF;stroke:#000000;stroke-width:0.4589;stroke-miterlimit:10;}
	.st12{fill:none;stroke:#000000;stroke-width:0.4589;stroke-linecap:round;stroke-linejoin:round;stroke-miterlimit:10;}
	.st13{stroke:#000000;stroke-width:0.4589;stroke-linejoin:round;stroke-miterlimit:10;}
</style>
<g>
	<g>
		<path class="st0" d="M625.3,173.5c3.5,2.3-2.8,20.3-29.1,27.6c0,0-0.2-10.7,2.7-22.6c2.9-11.9,6.9-12.6,9.1-11.9
			c2.2,0.8,2.6,6.1,1.6,9.6c0,0,3.8-10.5,8-8.2s-0.2,10.7-0.2,10.7S621.9,171.2,625.3,173.5z"/>
		<path class="st1" d="M612.3,178.5c0,0-2,13.6-16.1,22.6"/>
	</g>
	<g>
		<path class="st2" d="M574.2,190.3c0.3-5,3.1-21.3,10.5-20.4c7.4,0.8,2.7,14.3,2.7,14.3s6.2-11.8,11.5-9.9s-2,17.6-2,17.6
			s4.1-11.3,8.8-9.9c4.6,1.4,0.6,21.9-25.7,39.8C580,221.8,573,208.7,574.2,190.3z"/>
		<path class="st1" d="M589.1,189.9c0,0-0.4,16.3-9.1,31.9"/>
	</g>
	<g>
		<path class="st0" d="M617,206.8c0,0,7.1-1.6,7.7,1.3c0.6,2.8-3.1,13.2-30.6,6c0,0,3.4-9.1,8.6-15.1s10.6-9.2,13.1-6
			c2.4,3.1-4.5,10.4-4.5,10.4s7.3-6.1,9.7-2.6C623.1,204.1,617,206.8,617,206.8z"/>
		<path class="st3" d="M613.2,206.3c0,0-8.2,6.2-19.1,7.7"/>
	</g>
	<g>
		<path class="st2" d="M452,52.2c3.9-0.1,4.1,7.1,3.3,11.4c0,0,3.1-11.2,7.6-9.9s-1.2,14.7-1.2,14.7s4.4-11.5,9.4-8.1
			c4.9,3.4-9.6,30.4-22,37.7C447.5,95.3,440.5,52.5,452,52.2z"/>
		<path class="st4" d="M456.4,67.7c0,0-6.9,18.2-5.9,34.2"/>
	</g>
	<g>
		<path class="st0" d="M458.8,82.4c4.6-0.9,0.8,10.8,0.8,10.8s4.7-10,9.4-8.4c4.7,1.6-1.8,9.3-1.8,9.3s4.9-5.6,7.7-2.9
			c2.8,2.6-9.7,10.6-9.2,22.9c0.6,12.3-20.6,14.5-20.7,3.7C445,106.9,450,84.2,458.8,82.4z"/>
		<path class="st4" d="M461.3,96.8c-2.5,2.1-10.9,12.5-9.1,27.8"/>
	</g>
	<path class="st0" d="M429.2,66.4c4.7-2.4,8.5,7.4,8.5,7.4s-1.8-8.7,4.3-9.1c6.1-0.4,18.1,31.4,6.1,57c0,0-9.9-12.2-16.6-25.7
		s-9.7-11.2-11.8-17.1c-2.1-5.9,5.9-6.9,9.3-0.8C429.1,78,424.7,68.7,429.2,66.4z"/>
	<path class="st4" d="M438.5,83.8c0,0,10.6,14.2,9.6,37.9"/>
	<g>
		<path class="st2" d="M313.1,52.3c0,0-14.1-3.1-16,5.8c-1.9,8.7,15.8,10.1,25.4,9.3c9.6-0.8,42.9-2.5,50.8-1.7
			c8,0.8,19.9,2.3,22.1-1.3c3.3-5.3-6.4-9.8-15.1-7.6c0,0,5.8-6.5,1.6-12.1c-4.3-5.6-14.3-5.8-17.3-4.3c0,0,1.2-3.5-1.8-7.9
			C356.6,23.5,324.5,21.6,313.1,52.3z"/>
		<path class="st4" d="M314.9,60.3c0,0-0.1-2.9,2-3.7c2.9-1,4,2.1,4,2.1"/>
		<path class="st4" d="M348.1,45c0,0,3.5-3.1,6.9-1c2.1,1.3,2.2,5.1,1.6,6.9c0,0,2.8-3.1,7.6-2.8c5.6,0.3,8.7,6.7,6.7,12.1"/>
	</g>
	<path class="st5" d="M329.8,56.5c2.9-1.4,9,13.8,19,18.5c0,0-8.1-15.2-4.4-16.7c3.7-1.5,2.7,13,9.2,17.6c0,0,2.2-4.2,1.5-9.2
		s-1.8-8.6,0.2-8.6s5.4,11.3,0.9,21.6c0,0,10.1,10.2,22.2,12.1l-1.1,5c0,0-17.9-5.7-31.8-17.7C331.7,67.3,326.5,58.1,329.8,56.5z"/>
	<g>
		<g>
			<path class="st2" d="M133.1,727.4c0,0,5.3,22.4,16.6,35.5c11.4,13.2,21.8,39,35.6,52.7s24,28,58.7,38.1
				c34.7,10.2,49.6,5.4,72.3,20.3c22.7,14.9,24.5,19.7,43,17.3s29.3-13.2,42.4-32.3c13.2-19.1,20.9-23.3,38.3-28.1
				s32.9-1.2,49.6-15.5s6.6-23.9,21.5-39.5s28.2-21.2,29-36.7l-94.2-8H189L133.1,727.4z"/>
			<path class="st4" d="M171.4,762.9c0,0,13.8,7.3,21.1,27.1c6.9,18.7,23.5,26.4,42.2,29.3c38.7,6.1,47.1,31.9,61,31.6"/>
			<path class="st4" d="M305.3,854.5c0,0,5.2,0.3,7.8,2.9"/>
			<path class="st4" d="M238.9,788.4c0,0,9.7,18.2,39.7,27.4c44.8,13.9,43.6,38.7,61.6,40.2"/>
			<path class="st4" d="M295.7,794.5c2.6,15.2,26.5,21.5,30,27.7"/>
			<path class="st4" d="M331.9,829c6.1,2.8,4.2,9.5,10.5,10.8"/>
			<path class="st4" d="M351,807c0,0,6.6,8.8,18,4.7"/>
			<path class="st4" d="M348.3,859.8c0,0,5.4,1.9,9.7,0"/>
			<path class="st4" d="M382.3,837.8c0,0,8.3-4.8,17-18"/>
			<path class="st4" d="M408,813.8c9.5-15.9,34.6-14.3,43.7-33.5"/>
			<path class="st4" d="M381.5,852.9c0,0,4.2-0.2,20.9-21.7c21.5-27.7,58.4-18.4,72.3-52.8"/>
		</g>
		<path class="st6" d="M139.8,716.6c-3.2,1.9-14.1,6.6-0.9,17.9c7.9,6.8,33.4,18.7,57.3,22c23.9,3.2,59.1,13.8,114.4,13.8
			c32.3,0,78.8-9.3,106-9.9s53.6,0.6,75.6-3.9s51.7-7.1,47.8-20.7c-3.9-13.6-20-21.3-49.1-20.7s-115-9-115-9s-76.3-23.9-87.2-21.3
			c-11,2.6-39.8,5.3-67.2,9C207.6,695.7,165.5,701.3,139.8,716.6z"/>
	</g>
	<path class="st7" d="M347.3,121.2c4-9.7,21.1-46.9,74.1-35.2c10.6,2.3,19.5,11.8,18.4,19.3c-0.8,5.4,7.9,5.7,8.2,10.5
		c0.2,4.8-1.6,15.5-1.6,15.5l-67.7,164.6l-19.2,132.5c0,0-25.9,7.8-46.4,12.3s-32.8-12.3-32.8-12.3s7-99.6,9.9-114.2
		s5.3-27.9,17-34.8c0,0,4.4-51.7,13.3-75.2C329.3,180.8,336.4,147.6,347.3,121.2z"/>
	<g>
		<g>
			<path class="st2" d="M19.1,91c0,0,3.3-33.6,44.4-35.9c0,0,12.2-25.3,42.4-23.8c37,1.8,41.4,48.2,41.4,48.2s-5.1,35.2-51.6,36.7
				c-46.5,1.6-95.7,8.1-95.6-11.8C0.2,90.5,19.1,91,19.1,91z"/>
		</g>
		<path class="st5" d="M61.8,89.3c4.7,0.2,8.7,20.3,16,22.1c4.3,1,5-6,3-12.4s-2-11,0.1-11c3.5,0,5.2,16.2,6.6,21.8
			c1.5,5.6,2.4,21.6,27.1,43.2c1.9,1.7,8,4.1,4.4,9c-2.6,3.6-9,0.7-11.2-1.1c-25.7-20.9-19.9-22.8-36.9-45.8
			C58.5,98.2,57.8,89.1,61.8,89.3z"/>
		<path class="st6" d="M61.8,126.6c0,0-23.9,3.4-27.5,23.3c-4.6,25.4,36.4,25.7,78.3,23.4c36.3-2,94.5-2.5,145.6,0.9
			s99.7,1.9,124.6-3.8c24.9-5.7,29.1-32.2,16.5-43c-12.7-10.8-31.2-8.4-44.7-2c0,0,3.1-19-14.8-29.3c-17.8-10.3-43.7,2.6-43.7,2.6
			s-0.8-45.7-53.6-67.5c-51-21.1-127.6,3.2-148.6,65.5C93.9,96.8,63.8,87.7,61.8,126.6z"/>
		<path class="st4" d="M115.9,116.3c0,0,4.9-20.9,27.7-19.8c0,0,1.8-26.1,28.3-32.6c26.9-6.5,38.9,16.3,39.6,18.5"/>
		<path class="st4" d="M303.3,130.1c0,0,8.8-3.9,15,0.7c6.2,4.6,2.9,14.1,2.9,14.1"/>
		<path class="st4" d="M337.7,156.1c0,0,4.2-9.7-2.1-15.1c-6.3-5.4-13.5-1.5-13.5-1.5"/>
	</g>
	<path class="st5" d="M139.9,136.6c8.4-2.1,19.7,30.9,58.2,48.1s61.1,25.1,82.1,27c0,0-27-23.9-44.2-48.5s-19.2-29.6-14.7-31.6
		c4.6-2,9.5,13.7,20.7,23.8c9.6,8.7,36.4,48.8,52.1,58.3c15.7,9.5,19.8,6.8,19.8,6.8s-20.8-25.7-31.4-50.4
		c-10.6-24.8-13.7-32.5-8.5-32.7c5.7-0.2,14.1,29.1,24.7,41.3c10.6,12.1,20.6,37.8,38.4,52.5c17.8,14.8,27.9,17.3,32,33l-5.7,14.2
		c0,0-13-28.3-36.5-39s-45.3-18.7-63-21.2s-68.3-15.7-95.1-37.9C142,157.8,131.8,138.6,139.9,136.6z"/>
	<path class="st7" d="M607.3,316.2c-0.6-15.1-5-19.5-6.3-54.1s-10.8-49.6-19.9-70.5s-9.9-35.1-8.6-56s-6.2-42.3-27.6-41.5
		s-29.9,7.2-29.9,7.2l-54.6,29.5l-3.5,186L439.8,366l153.9,1.2C603,346.7,607.7,327,607.3,316.2z"/>
	<path class="st7" d="M202.5,445.4c0,0-4.7,25.3-8.4,54.1s0.4,81.8-9.1,116.2c-5.3,19.3-11.5,40.5-17.5,61.3
		c-7.8,26.9-5.2,37.9-5.2,37.9l42.1,4.8l43.9-6.2l30.7-97.3l22.8-112.7l23.6-52.6c0,0-59.7-5.5-63.8-5.5S202.5,445.4,202.5,445.4z"
		/>
	<path class="st6" d="M203.2,441.4c-1.4,3-1.3,9.6,9.1,9.6c13.3,0,31.8-4.2,43.7,0s12.6,8,26.6,7s25.9-6.6,44-3.5l8-13.9
		c0,0-14-12.7-42.6-14.4c-28.7-1.7-33.1,3.4-51.8,2.1C221.4,427.1,209.5,428.5,203.2,441.4z"/>
	<g>
		<path class="st2" d="M340.6,190.5c2.8-3.1,6.5,0.1,8.7,2.4c0,0-4.3-8-1-10.5c2.6-1.9,6.3,1.8,8.3,6.2c0,0-3.6-10.2,1.2-11
			c6.2-1,18.3,25.2,11.3,45.8C356.6,221.8,333.1,198.6,340.6,190.5z"/>
		<path class="st4" d="M353.5,194.3c0,0,10.8,11.3,15.6,29.2"/>
	</g>
	<g>
		<path class="st2" d="M380.3,185.2c5.1-0.9,12.6,26.7-2.2,51c0,0-10.1-7.7-16-23.2s-1.4-16.3,0-16.5s4.9,1.4,6.1,6.4
			c0,0-3.2-13.5,2.4-15.1c5.5-1.6,7.7,13.4,7.7,13.4S374.9,186.2,380.3,185.2z"/>
		<path class="st4" d="M374.6,205c0,0,5.3,12.9,3.6,31.2"/>
	</g>
	<g>
		<path class="st0" d="M376.1,235.5c0,0-10.7,2.3-21.9-1.2c-11.6-3.5-18.6-9.6-16.8-13.9s12.1,0,12.1,0s-10.6-7.6-7-11.5
			s12.9,6.3,12.9,6.3s-7.2-8.6-4.1-11.7C354.4,200.3,369.3,212.6,376.1,235.5z"/>
		<path class="st4" d="M356.6,221.8c0,0,12.8,2.7,19.5,13.7"/>
	</g>
	<path class="st5" d="M339.4,393c-0.8-38.2,13.8-105.7,35.6-159.6c25.1-62.2,70.7-154.8,139.9-132c0,0-13.8,15.2-19.5,71.1
		c-4.6,45.2-11.1,55.6-17.2,66.7s-21.9,60.6-20.1,89.6s1.2,54.7-8,62.6C450.1,391.3,350.4,405.2,339.4,393z"/>
	<path class="st6" d="M469.4,239.3c0,0-7.6,6.8-2.8,14.5c4.8,7.7,8,9.4,15.9,9.4s12,3.6,22,3c10-0.7,22.7,0.3,37.8-6.5
		c15.1-6.8,16.1-5.2,35.8-10.8s27-10.3,29.1-22.1c1.6-8.7-9.1-15-15.3-13.7c-13.3-0.2-39.3,7.4-44.8,7.5c-9.2,0.2-23.5,6.2-34.2,4.6
		c-10.7-1.7-24.8-4-31.1,1.3C475.4,231.8,472.1,235.8,469.4,239.3z"/>
	<path class="st7" d="M607.9,317.6c-1.5-30-10.7-60.7-2.7-82.7c0,0-58.3,3.8-61.9,5.1c-3.7,1.3-77.5,8.1-77.5,8.1s-2.5,17.8-6,25.7
		s-7.8,17.8-11.2,48.7c-3.4,30.9-12.4,54.8-20.4,73.8c-0.4,1-0.7,2.1-0.9,3.3l-15.9-1.1L391,419.1l-77.1,200.8c0,0-8.2,78.1,0,89.9
		c8.2,11.8,30.3,23,41.1,16.8c10.8-6.3,24.4,5.1,35.6,1.9c11.2-3.2,30.8,4.4,48.8,6s28,6,39.9,7s33.8-2.3,41.7-6
		c7.9-3.8,8.3-9.7,6.5-14.7s-3.2-5.5-5.1-18c-2-12.5-6.9-10-6.7-23.2c0.2-13.2-13.8-36.7-10.8-91.8c2.4-43.5,20.5-86.3,33-108.3
		c0,0,13.7-7.3,18.3-20.7c4.5-13.4,4.3-18.9,6.9-31.6c2.5-12.7,12.3-27,24.1-45.9C598.8,362.3,609.4,347.7,607.9,317.6z"/>
	<g>
		<path class="st2" d="M311,406.1c0,0,2.5-5.8,4.9-4.4s0,5.8,0,5.8s2.3-3.1,4.1-1.2c1.8,2-5.9,15.1-14.2,19.2c0,0-2.6-7-2-14.7
			s4.2-9.1,6.2-8.6C311.9,402.7,311,406.1,311,406.1z"/>
		<path class="st1" d="M312.6,408.3c0,0-5.1,3.4-6.9,17.2"/>
	</g>
	<g>
		<g>
			<path class="st8" d="M245.3,431.6c0,0-0.9-5.8,2-10.7c3-4.9,8.6-7.2,7.5-13.2c-1-5.9-6.4-12-4.8-20.4s7.3-8.5,7.1-16.9
				s-9.9-14.8-4.7-21.5s12.3-6.2,10.8-16.1s-7.1-8.1-7.3-12.8c-0.1-4.7,4.9-2.8,7.3-8.9c1.2-3.3,5.5-3.1,6.4,0.7
				c0.9,3.8,2.1,8.7,6.6,11.4c4.4,2.6,2.8,6.3-0.8,8.4"/>
			<path class="st1" d="M276.3,323.2c0,0,5.1-0.1,5.2-5.6c0.1-5.5,5.5-8.9,9.1-5.3c3.5,3.6-0.3,8.9-3.9,10.9c-3.5,2-4.1,9-2.3,12.5
				s6.9,21.9-5.4,30.8c-12.3,9-4.1,20.3-4.1,25.3s-4.8,12.3-1.1,18.5s9,12,4.6,21.4"/>
			<g>
				<path class="st5" d="M242.3,337c0,0-7.4,3.9-7.9,12.3c0,0,19.3-0.2,18.1-14.1c0,0,6.6-11.2-8.4-18.6c0,0-1.7,8.9,1.2,11.6
					c0,0-4.8-6.1-19.9-3.8C225.4,324.3,226.1,337.5,242.3,337z"/>
				<path class="st8" d="M234,329.1c0,0,6,5.4,18.5,6c0,0,5.1,1.2,6.7,5.7"/>
			</g>
			<g>
				<path class="st5" d="M244,388.5c0,0,8.3,3.7,15.2,0c0,0-4.5,3.8-4.5,9.5c0,0,16.5-0.7,13-18.4c0,0-0.1-11-12.8-11.8
					c0,0,0.4,9.3,4.4,12.4C259.2,380.2,248.9,380.3,244,388.5"/>
				<path class="st8" d="M256,385.1c0,0,7.5-0.2,11.6-5.5s7.2-6.1,7.2-6.1"/>
			</g>
			<g>
				<path class="st5" d="M279.9,382.1c0,0-9,2.1-9.5,16.8c0,0,8.3-0.1,11-8.3c0,0,2.8,9.3,11,10.5c0,0,2-9.3-3.9-14.5
					c0,0,7.4,0.3,11.6-4.6C300.1,382.1,287,373.4,279.9,382.1z"/>
				<path class="st8" d="M274.8,375.9c0,0,1.4,5.3,5.1,6.2c0,0,7.4,4.4,9.8,14"/>
			</g>
			<path class="st5" d="M261.2,347.8c-2.8,0.9-10.2,5.6-7.2,17.5c0,0,6.9-0.9,9.9-5.7c0,0,2.1,9.5,9.8,13.1c0,0,1.4-12.9-3.2-17.1
				c0,0,7,0.6,11.1-4.2C281.5,348.9,270.5,343.3,261.2,347.8z"/>
			<path class="st8" d="M269.2,362.8c-0.1-0.7-1.6-11.9-8-15.1s-2-6.9-2-6.9"/>
			<g>
				<line class="st1" x1="263.3" y1="299.6" x2="249.8" y2="434"/>
				<line class="st1" x1="274.8" y1="296.9" x2="274.8" y2="436.6"/>
				<line class="st1" x1="284.1" y1="301.8" x2="302.7" y2="434"/>
			</g>
			<g>
				<path class="st5" d="M293.4,323.3c0,0-12.4,7.7-6.8,22.2c0,0,9.2-3.7,8.4-11.1c0,0,0.3,12.6,13.9,14.2c0,0,2.5-10.6-5.4-17.1
					c0,0,10.2,1.2,13.4-1.8C316.9,329.8,306.9,318.3,293.4,323.3z"/>
				<path class="st8" d="M304.2,342.3c0,0-7.9-22.6-17.7-23.5"/>
			</g>
			<g>
				<path class="st5" d="M291.3,373.4c0,0-4.8-18.3,16.8-20.4C308.1,353.1,310.3,368.6,291.3,373.4z"/>
				<path class="st8" d="M301.8,358.7c0,0-7.4,5.4-10.5,14.7"/>
			</g>
			<g>
				<circle class="st2" cx="246.5" cy="365.6" r="10.8"/>
				<path class="st1" d="M242.3,361.8c0,0-1.2,0.8-0.9,2.2"/>
				<path class="st1" d="M247.1,364.1c0,0,0.6,1.4,0,2.4"/>
				<path class="st1" d="M244.7,369.2c0,0,0.3,2.3,2.4,1.9"/>
				<path class="st1" d="M252.4,367.8c0,0,0.5,2.3-0.8,3.4"/>
				<path class="st1" d="M248.9,361c0,0,1.5,0.3,1.8,1.6"/>
				<path class="st1" d="M244.7,357.9c0,0,1,0.3,1.2,1.6"/>
			</g>
			<g>
				<circle class="st2" cx="275.9" cy="342.3" r="10.8"/>
				<path class="st1" d="M278.3,337.2c0,0-1.1-0.9-2.3-0.3"/>
				<path class="st1" d="M277.5,342.5c0,0-1.2,1-2.3,0.7"/>
				<path class="st1" d="M271.8,341.7c0,0-2.1,0.9-1.1,2.8"/>
				<path class="st1" d="M275.4,348.6c0,0-2.1,1.2-3.5,0.2"/>
				<path class="st1" d="M280.9,343.3c0,0,0.1,1.6-1,2.2"/>
				<path class="st1" d="M282.7,338.4c0,0,0,1-1.2,1.6"/>
			</g>
			<g>
				<circle class="st2" cx="304.9" cy="378.7" r="10.8"/>
				<path class="st1" d="M307.1,374.2c0,0-0.5-1.3-1.8-1.5"/>
				<path class="st1" d="M306.5,378.8c0,0-1.2,1-2.3,0.7"/>
				<path class="st1" d="M300.5,379.4c0,0-0.7,2.2,1.3,2.7"/>
				<path class="st1" d="M300.1,375.5c0,0,2.3-0.8,3.5,0.4"/>
				<path class="st1" d="M308.1,381.3c0,0,0.1,1.6-1,2.2"/>
				<path class="st1" d="M312.1,379.6c0,0,1,0,1.6,1.3"/>
			</g>
			<g>
				<circle class="st2" cx="287.3" cy="365.6" r="10.8"/>
				<path class="st1" d="M281.5,363.9c0.4-1.3,1.9-1.4,1.9-1.4"/>
				<path class="st1" d="M287.8,364c0,0,0.7,1.4,0.2,2.4"/>
				<path class="st1" d="M287,370c0,0,1.9,1.2,2.9-0.7"/>
				<path class="st1" d="M283.1,369.6c0,0-0.3-2.4,1.2-3.3"/>
				<path class="st1" d="M290.5,363c0,0,1.6,0.2,1.9,1.5"/>
				<path class="st1" d="M289.7,358.7c0,0,0.2-1,1.6-1.3"/>
			</g>
		</g>
		<path class="st2" d="M299.9,412.1c0,0-1.3-4.8,1.5-5.2s9.1,9.9,5.2,26.4c0,0-11-1.3-17.4-9.4c-6.4-8.1-7.1-13.4-4.6-14.6
			s5.6,2.7,6.7,4.7c0,0-3.2-8,1-9C296.4,404,299.9,412.1,299.9,412.1z"/>
		<path class="st1" d="M295.5,413.1c0,0,5.5,4.7,11.1,20.2"/>
	</g>
	<path class="st5" d="M201.7,717.2c0,0,30.8-46.7,49.4-153.5c13.3-76.1,35.7-143.5,88.4-170.8c33.3-17.3,92.3-2.8,88.4,9.8
		l-16.2,8.4c-19,13.9-6.2,40.9-15,62.3c-13.3,32.5-10.8,55.7-29.4,76.5c-18.6,20.7-39.1,72.1-45.1,175.6
		C322.1,725.6,267.5,736.1,201.7,717.2z"/>
	<path class="st6" d="M469.4,239.3c0,0-7.6,6.8-2.8,14.5c4.8,7.7,8,9.4,15.9,9.4s12,3.6,22,3c10-0.7,22.7,0.3,37.8-6.5
		c15.1-6.8,16.1-5.2,35.8-10.8s27-10.3,29.1-22.1c1.6-8.7-9.1-15-15.3-13.7c-13.3-0.2-39.3,7.4-44.8,7.5c-9.2,0.2-23.5,6.2-34.2,4.6
		c-10.7-1.7-24.8-4-31.1,1.3C475.4,231.8,472.1,235.8,469.4,239.3z"/>
	<g>
		<path class="st2" d="M461.9,273.7c2.4-2.5,6.7,0.9,7.8,4.3c0,0-1.3-8.5,2.8-9.2s3.3,8.4,3.3,8.4s0.8-7.8,4.4-6.5
			s3.8,22.3-5.7,36.7C474.6,307.4,454.8,281.1,461.9,273.7z"/>
		<path class="st4" d="M472.5,279.3c0,0,5.4,11.1,2,28.1"/>
	</g>
	<g>
		<path class="st0" d="M316.6,253.4c3.1-0.1,5,5.1,5.7,9c0,0,0.3-7.1,3.2-6.7c2.9,0.4,5.4,6.6,4.7,19.4s-8.2,23.3-8.2,23.3
			s-9.2-10.5-12.9-22.6c-3.7-12-3.7-18.9-0.7-19.5c2.9-0.7,5.9,5.8,5.9,5.8S313.2,253.5,316.6,253.4z"/>
		<path class="st4" d="M318.9,264.9c0,0,4.6,12.7,3.1,33.5"/>
	</g>
	<path class="st6" d="M473.6,153.5c0,0,2.3,3.2,6.2,4.4c3.9,1.2,8.1,6.4,19.3,8.4c12.8,2.3,17.7,6.4,19.6,9.4s5.5,9.7,8.5,8.8
		s1-6.8-0.7-9s-2.5-12.7,2-18.6c0,0-16.7-5.8-18.2-6c-1.4-0.2-18.2-2.8-19.7-2.6C489,148.5,473.6,153.5,473.6,153.5z"/>
	<g>
		<path class="st2" d="M545.4,109.6c0.1-4.3,5.4-5.4,8.4-3.9c0,0,3.6-9.3,14.1-4.7c0,0,2.9-14.7,18-20.9s26-1.5,30.1,3
			c0,0,11.8-3.2,18,3.8s3.5,14.4,3.5,14.4s8.1,1,8.7,8.1c0,0,1,8.4-11.2,7s-31.9,0.4-44.6-0.5c-8.2-0.6-27.7,2.1-32.2-0.5
			c0,0-4.6,1.8-7.1-0.9C551.2,114.5,545.2,115.2,545.4,109.6z"/>
		<path class="st4" d="M621.4,100.7c0,0,3.1-2.2,4.9,0.2s-1.4,4.9-1.4,4.9"/>
	</g>
	<path class="st9" d="M488,119.9c5.2,0.3-3.9,13.5-9.6,15.1S481.9,119.5,488,119.9z"/>
	<path class="st9" d="M426.1,153.4c3.8,0.8-5.1,18.2-11.6,32.7s-8.6,22.7-13.3,21.5c-4.7-1.2,7.8-26.6,12-33.1
		C417.3,168.1,423.3,152.8,426.1,153.4z"/>
	<path class="st9" d="M480.5,171.4c4,1.4-2.8,16.7-7,24.5s-7.5,13.8-10.6,13.7c-3.2-0.1,0.8-13.7,4.1-19.1
		C470.4,185.2,476.6,170.1,480.5,171.4z"/>
	<path class="st9" d="M446.5,171.4c4.5,1.2-6.3,13.9-9.4,19.1s-5.9,9-3.1,10.9c2.7,2,11.8-13.6,15.5-10.9s-7.2,22.7-11.6,29.3
		c-4.3,6.7-12.7,27.2-16.7,50.5c-3.9,23.3-13.9,23.3-16.8,21.4c-2.9-2-9-13.9-13-3c-3.9,10.6-8.1,20.4-14.3,18.2
		c-3.5-1.2,2-18.4,6.3-31.1s15.8-39.8,23.3-54.5C415.9,203.6,435.3,168.3,446.5,171.4z"/>
	<path class="st9" d="M311.9,603.2c3.3-0.3,4.4,8,0,8.1C309.1,611.4,308.6,603.4,311.9,603.2z"/>
	<ellipse class="st9" cx="297.2" cy="617" rx="5.4" ry="6.5"/>
	<path class="st9" d="M391.4,317.5c5.9,1.5,4.3,16.6,0.6,29.4c-3.7,12.8-4.9,20-8.9,20s4.3-14.7,0.6-15.7s-3.7,8.4-7,7.1
		C373.4,357.1,380.6,314.8,391.4,317.5z"/>
	<g>
		<path class="st7" d="M603.3,340c-12.8,6.9-0.2,15.6-18.9,21.6c-15.3,4.9-37.7,3.3-50.7,2c-11.8-1.2-20.4-4.9-32.8-6.9
			c-12.3-2-12.8-7.6-12.8-7.7c-0.4,0.7-0.8,1.6-1,2.5c-1.7,6.6,1.7,14.4,8.1,23.3s-1.2,26.2,10.1,28.3s16.7-4.4,39.1-17.7
			c22.4-13.2,33.6-10.4,53.4-17.2c14.7-5,22.9-21.8,21.4-31.5C612,335.2,603.3,340,603.3,340z"/>
		<path class="st6" d="M500.9,356.7c12.4,2,20.9,5.7,32.8,6.9c13,1.3,35.3,2.9,50.7-2c17.3-5.5,26.2-7.8,33.7-20.7
			c2.2-3.8,1.2-8.8-2.5-11.1l-0.1-0.1c-8.2-5.1-22.4,4.3-35.1,5.2c-12.7,0.9-20.7,0.3-27.9,1.4c-7.2,1.2-19.3,4-28.6,3.2
			c-9.3-0.9-5.7,2-16.3,2.7c-9.3,0.6-16.5,1.8-19.4,6.9C488.1,349.1,488.6,354.7,500.9,356.7z"/>
	</g>
	<path class="st4" d="M544.3,373.9c0,0-2.2,3-7.8,5.6c-7.3,3.3-9.6,11.8-18.5,13.4"/>
	<path class="st4" d="M521.1,377.9c0,0-1.3,5.6-6.2,7.7c-5,2.1-5.7,4.3-6.3,5.7"/>
	<path class="st4" d="M506.4,397.8c1.6-1.2,2.2-2.4,2.2-2.4"/>
	<path class="st4" d="M516.4,395.8c0,0-1.3,1.4-2.6,2"/>
	<path class="st9" d="M466.4,223.8c3.6,3.6-7.4,22.4-13,34.6c-5.6,12.2-1.6,12.5-8.2,20s-12.4,10.1-9.2,2.3s9.2-10.7,7.8-20.9
		C442,247.5,463,220.4,466.4,223.8z"/>
	<g>
		<g>
			<path class="st5" d="M403.4,659.2c0,0,11.5-2.1,15.1,1.6c3.6,3.7-5.1,3.9-4.3,6.4c0.8,2.4,12.6-2,12.9,2.5s-8.6,0.8-9.5,3.7
				c-0.8,2.9,8.5,7.5,4.4,11.6s-7-6.7-10-7s-0.7,8.8-5.3,8.1s-1.8-6.9-3.3-10.3c-1.4-3.4-2.9,5.3-6.1,3.5S395.8,666.3,403.4,659.2z"
				/>
			<path class="st8" d="M403.4,659.2c0,0,6,3.7,10.6,16.7"/>
		</g>
		<g>
			<path class="st5" d="M378.8,657.5c0,0-3.8-2.1-7.2,0.5c-3.8,2.9-1.6,5.6-6.4,6.6c-4.7,1-7.9,3.2-7,5.9s7.6-0.5,8.1,2.1
				s-5.8,9.4-1.9,12.3c3.9,3,8.5-8.6,11.1-7.8s3.3,6.6,6.7,5.3s3.5-10.4,2.6-14.4S380.8,658.2,378.8,657.5z"/>
			<path class="st8" d="M369.7,675.4c0,0,0.6-11.7,9.1-17.9c0,0-0.5-2.2,1.9-4.3"/>
		</g>
		<g>
			<path class="st5" d="M401.3,624.5c0,0-13.6-0.6-14.9,4.6s4.9,4.2,4.7,6.5c-0.2,2.3-8,5.6-6.2,9.4c1.8,3.8,5.4,0.9,5.4,5.2
				c-0.1,4.4,7.2,6.8,8.3-1.6c1.1-8.3,7.6-5.5,9.6-8.9C410.2,636.2,405.9,628.4,401.3,624.5z"/>
			<path class="st8" d="M405.2,620.7c0,0-2.5,0.9-3.9,3.8c-8.7,9.8-8.1,18-8.1,18"/>
		</g>
		<g>
			<path class="st5" d="M425.4,625.7c0,0-6.6-6.2-11-2.4s2.1,7.1,1.3,9.2s-8.5,1-9.3,5.4c-0.8,4.3,9,1.2,9,4.7s-4.6,8.2-1.1,11.1
				c3.6,2.9,8.1-6.4,11.3-7.5c5-1.7,11.1,2.9,9.6-6.3C433.5,630.7,425.4,625.7,425.4,625.7z"/>
			<path class="st8" d="M417.5,645.8c0,0,0.3-10.9,9.8-18.7"/>
		</g>
		<g>
			<path class="st5" d="M429.3,653.9c0,0,9.3,0.4,10.5,4.6c1.2,4.1-4.2,3.6-3.2,6.2s8.6,1.6,8.2,6.8s-4.4,1.2-6,3.3
				s3.2,9.9-2.2,10.8c-4.4,0.7-3-7.2-5.6-8s-6.5,3.4-8.4-0.1c-1.9-3.6,6.3-7.4,4.7-10.3c-1.5-2.9-6.7,1.2-7.8-2.7
				C418.2,660,429.3,653.9,429.3,653.9z"/>
			<path class="st8" d="M435.2,675.2c0,0-0.4-16.1-5.9-21.3"/>
		</g>
		<line class="st8" x1="385.8" y1="602.8" x2="372.6" y2="733.6"/>
		<line class="st8" x1="405.8" y1="606.2" x2="399.9" y2="732.1"/>
		<line class="st8" x1="423.4" y1="611.3" x2="437.6" y2="730.5"/>
		<line class="st8" x1="402.7" y1="638.4" x2="404.6" y2="634.9"/>
		<line class="st8" x1="426.1" y1="623.6" x2="424.6" y2="621.2"/>
		<g>
			<g>
				<path class="st6" d="M382.8,624.1c0,0-6.5-0.7-9.4,7c0,0-7.1,2.1-7.3,9c0,0-6.4,4.5-2.7,9.7c0,0-5.5,7.8,0.9,10.7
					c0,0,1.6,4.8,5.6,1.8c0,0,5.5-1.9,5-7.9c0,0,4.1-1.9,4.4-7c0,0,5.4-4.1,3.7-11c0,0,2.7-3.6,0.3-7.2
					C383.3,629.3,384.9,626.6,382.8,624.1z"/>
				<path class="st8" d="M376.6,633c0,0-5,3.1-3.6,7c0,0-6.3,3.7-3.5,9.3c0,0-5.1,3.7-1.1,7.9"/>
				<path class="st8" d="M377.1,639.7c0,0,0.9,2.4-1.9,4.2c0,0,1.6,4-2.9,7.1"/>
			</g>
			<path class="st8" d="M382.8,624.1c0,0,0-1.4,1.1-2.8"/>
		</g>
		<g>
			<path class="st6" d="M402.7,638.4c0,0-4.3,1.4-3.8,4.3c0,0-8.7,3.6-7.5,12.6c0,0-7.9,4.3-5.3,16.9c0,0-3.6,5.9,0.6,10.3
				c-0.9,4.8,5.4,8.4,8.2,2.1c0,0,3.4,0,3.8-6c0,0,4.3-1.3,3-6.4c0,0,5.3-3.9,1.2-12.4c0,0,4.2-4.8,1.1-8.9c0,0,2.7-3.7-0.7-6.6
				C403.2,644.4,404.8,641.6,402.7,638.4z"/>
			<path class="st8" d="M398.2,649.9c0,0-5,3.1-3.2,9.3c0,0-4.3,3.4-2.5,9.2c0,0-4,3.1-2.3,8.3"/>
			<path class="st8" d="M399.2,658.4c0,0,1.1,3.3-1.5,5c0,0,2.6,6.9-4.1,10.9"/>
		</g>
		<g>
			<path class="st6" d="M426.1,623.6c0,0-1.3,6.4,2.1,8.6c0,0-2.3,3.7,0.6,6.1c0,0-0.8,5.9,3.9,5.6c0,0,0,10.5,8.2,11.6
				c0,0,1.7,5.1,6.9,2.4c0,0,1.2,0.9,3,1c2.6,0.1,5.2-2.3,4.4-5.4c-0.4-1.5-1.8-3-4.1-4c0,0,0.2-6.7-5.3-9c0,0,0.9-6.7-6-7.8
				c0,0-1.4-4.8-5.9-4.1C433.8,628.6,433.5,623.8,426.1,623.6z"/>
			<path class="st8" d="M435.1,639c0,0-0.5,5.7,4.5,5.9c0,0,0,5.1,4.4,5.7"/>
			<path class="st8" d="M434.3,632.2c0,0,4.5,0.7,4.5,5.8c0,0,6,1.1,6.2,8.1c0,0,4.4,2,4.1,7.8"/>
		</g>
		<g>
			<g>
				<path class="st6" d="M426.8,648.7c0,0-5.7,1.6-5.3,8.3c0,0-4.3,1.2-3.8,6.6c0,0-4.5,4.3-2.7,9c0,0-4,5.3-0.1,8.3
					c0,0-0.6,3.7,1.8,4.3c2.5,0.7,3.1-3.5,3.1-3.5s4.8-1.7,3.6-6.5c0,0,4.3-3.7,2.4-7.3c0,0,3.6-5.5,0.6-8.6
					C426.6,659.5,430.5,653.5,426.8,648.7z"/>
				<path class="st8" d="M422.7,660.9c0,0-2.7,1-1.9,5.1c0,0-2.7,1.7-2.2,6.5c0,0-2.5,3.1-1,5.5"/>
			</g>
			<line class="st8" x1="426.8" y1="648.7" x2="427.4" y2="645.1"/>
		</g>
	</g>
	<path class="st6" d="M521.3,71.6c0,0-10.4-1.3-11.6,6.1c-1,6.1,5.9,8.7,13.5,7.3s25.8-2.6,42.7-2.1c16.9,0.5,30,2.2,43,1.2
		s15.1-8.9,11.6-12.4s-9.4,0-9.4,0s1.8-8.9-6.7-13.1c-7.5-3.7-16.1,0.8-16.1,0.8s0-12.5-15.6-18.3c-13.2-4.8-27.3-2.9-38.5,3.5
		C525.7,49.4,517,60.6,521.3,71.6z"/>
	<path class="st4" d="M535.2,69.6c0,0-3-7.7,3.1-10.5c4.5-2.1,9,2.1,9.6,5.1"/>
	<path class="st6" d="M592,276.3c0,0,0,3.1,3.2,9.7c2.6,5.4,0.3,13,0,16.6s3,3.4,4,0s4.2-5.4,7.2-6.8c8.8-4.1,38.3-6.6,43.6-21.1
		h-27.9L592,276.3z"/>
	<path class="st1" d="M598.9,283c0,0,2.7,3.5,1.8,8.1"/>
	<path class="st1" d="M607.2,282.1c0,0,1,1.4-1.8,7.2"/>
	<path class="st1" d="M608.4,289.3c0,0,3.3-5,9.1-7.2"/>
	<path class="st1" d="M614.1,287.6c0,0,6.1-4.8,17.1-4.6"/>
	<path class="st2" d="M137.4,397.3c-1.3-8.6,14.4-10,20.2-8.5c0,0,3.3-11,18.8-9.6c0,0,2.9-12.8,14.5-13.7
		c10.1-0.8,14.5,7.7,17.3,12.5c0,0,22.9-2.6,29.1,9.7c3.3,6.5-0.5,14.2-7.8,14.3l-80.7,0.8C145.7,402.9,138.3,403.3,137.4,397.3z"/>
	<g>
		<path class="st0" d="M645.2,274.1c1.7-0.2,3.3,0.1,4.6,0.6c1.3-2.2,0.7-5.1-2.7-6.6c-0.9-0.4-1.9-0.7-2.9-1c0,0.1,0,0.2,0,0.4
			c0,3.6-5.6,6.5-12.5,6.5c-5.8,0-10.6-2-12.1-4.8c-4.6,1.4-9.6,2.9-16,3.5c-0.1,0-0.2,0-0.4,0c0.2,0.4,0.3,0.9,0.3,1.3
			c0,2.7-3.6,4.8-8.2,5c4,1.5,10.6,1.8,14.1,1c0.7-0.2,1.6-0.3,2.5-0.4c0.5-1.8,2.5-3.2,4.9-3.2c2.2,0,4.1,1.2,4.8,2.8
			c4.8,0,10,0.1,14.1,0.1c0.9,0,1.7,0,2.4,0C638.4,276.8,641.4,274.5,645.2,274.1z"/>
		<path class="st2" d="M603.6,274c0-0.5-0.1-0.9-0.3-1.3c-5,0.3-11.3-1.2-11.3,3c0,1.5,1.4,2.6,3.4,3.3
			C600,278.8,603.6,276.6,603.6,274z"/>
		<path class="st2" d="M616.9,276.5c-2.4,0-4.5,1.4-4.9,3.2c2.6-0.3,6.1-0.4,9.7-0.4C621.1,277.6,619.2,276.5,616.9,276.5z"/>
		<path class="st2" d="M631.7,274c6.9,0,12.5-2.9,12.5-6.5c0-0.1,0-0.2,0-0.4c-4.3-1.2-9.6-1.4-15.8-0.3c-3,0.6-5.8,1.4-8.8,2.4
			C621.1,271.9,626,274,631.7,274z"/>
		<path class="st2" d="M649.8,274.7c-1.3-0.5-2.9-0.7-4.6-0.6c-3.8,0.4-6.8,2.6-6.9,5.1c6.4-0.2,8.4-1.5,10.6-3.4
			C649.3,275.5,649.6,275.1,649.8,274.7z"/>
	</g>
	<g>
		<path class="st0" d="M526.6,151.5c-1.7,2.1-5.5,2.9-9.4,1.8c-4.7-1.4-7.7-5.1-6.8-8.2c0.1-0.2,0.1-0.3,0.2-0.5
			c-3.3-1.4-6.8-2.6-12.5-2.6c-6.4-0.1-15,0.8-20.7,2.7c2.3,0.8,4,2.5,4.2,4.7c0.1,1.3-0.2,2.6-1,3.6c5-0.6,10.9-0.3,18.7,2.7
			c10.1,3.9,22.5,5.9,27.7,2.5C530.1,156.1,529.3,153.6,526.6,151.5z M499.2,150.8c-2.4-0.2-4.3-1.6-4.1-3c0.1-1.4,2.2-2.4,4.6-2.2
			s4.3,1.6,4.1,3C503.7,150,501.7,151,499.2,150.8z"/>
		<path class="st2" d="M481.7,149.4c-0.2-2.2-1.9-3.9-4.2-4.7c-3.3,1.2-5.6,2.7-5.9,4.7c-0.3,1.6,0.4,5.2,4.9,4.3
			c1.3-0.3,2.7-0.5,4.2-0.7C481.4,152,481.8,150.7,481.7,149.4z"/>
		<path class="st2" d="M517.2,153.3c3.9,1.1,7.7,0.3,9.4-1.8c-1.8-1.4-4.5-2.6-7.4-3.5c-3.3-1-5.8-2.3-8.5-3.4
			c-0.1,0.2-0.1,0.3-0.2,0.5C509.5,148.3,512.5,152,517.2,153.3z"/>
		
			<ellipse transform="matrix(9.829792e-02 -0.9952 0.9952 9.829792e-02 303.0523 630.6187)" class="st2" cx="499.5" cy="148.1" rx="2.6" ry="4.4"/>
	</g>
	<path class="st1" d="M489.9,158.1c0,0,10.8,1.3,18.3,9"/>
	<path class="st1" d="M503.8,159.6c0,0,6.1,2.9,7.7,6.7"/>
	<path class="st1" d="M515.1,162.2c0,0,2.2,3.1,2.5,5.7"/>
	<path class="st1" d="M519.6,162.6c0,0,1.4,2.7,1,4.5"/>
	<g>
		<path class="st9" d="M337.6,408.2c2.7,2.5-5.8,8.8-8.9,12.2c-3.1,3.4-4.8,4.3-5.3,6.4s2.2,2.8,0.9,5c-1.4,2.2-18.9,26.6-22.3,23.4
			c-3.3-3.2,3.5-15.1,12.6-26.8C323.7,416.7,334.5,405.3,337.6,408.2z"/>
		<path class="st9" d="M312.4,485.5c3.6,1.6-3.5,14.3-3.3,17.7s2.8,2.5,4.3-0.2s4.3-8.3,7.2-7c2.9,1.4-1.1,18.2-6.7,33.6
			c-5.6,15.3-8.4,25.3-11.4,25.1c-4.4-0.4,0.4-7.8-2.7-9s-9.6,14.4-14.2,26.6c-4.6,12.1-7.8,28.8-11.3,27.2
			c-3.5-1.5,1.9-25.3,3.4-32.8C280.9,551,301.7,480.7,312.4,485.5z"/>
		<path class="st9" d="M284.5,495.9c3.2,1.4-2.4,20.8-7.2,26.5s-2.8-9-0.8-14.1C278.4,503.1,281.8,494.7,284.5,495.9z"/>
		<path class="st9" d="M353.8,507c-3.3,6.1-7,12.9-10.5,25.9c-3.5,12.9-1.6,12.4,0,12.7c1.6,0.4,6.5-10.8,9.2-19.3s4-11.8,5.1-10.1
			c2.7,4.2,6.6-2.8,9.3-11.7C369.6,495.7,359.2,497,353.8,507z"/>
	</g>
	<path class="st7" d="M315.6,469.9c0,0,6.4,16.8,16,26.4s20.9,13.1,39.1,16.8c18.2,3.8,37.1,2.4,51.5,11.3
		c14.4,8.9,20.3,14.8,31.9,15.1c11.7,0.3,34.2,0.4,52.3-16.6c15-14.2,17.3-64.8,17.3-64.8l-83.3-4.8l-114.7,9.3L315.6,469.9z"/>
	<path class="st6" d="M314.7,465c-0.6,3.3,0.8,7.8,9.2,9.5c11.8,2.5,21.4,5,34.8,6.8c13.3,1.8,15.8,2.4,24.5,7.2
		c8.8,4.8,24.1,2.6,30.8-1.3c6.8-3.9,27.3-6.1,37.6-6.8c10.3-0.7,47,0,65-13.8c17.9-13.8-2-16.2-10.9-19.3s-40-7.4-60.8-6
		s-34.6-2.7-44.5-2.7c-15.1,0-28.4,1-40,5.4C347.4,449,317.2,451,314.7,465z"/>
	<g>
		<path class="st0" d="M335.3,291.9c0,0,3.4-3.6,5.6-2c2.3,1.6,0.5,10.7-7,19s-9.7,10-9.7,10s-2.5-8.3-1.9-20.4
			c0.7-12.1,3.7-17.8,7-16.8c3.2,1.1,1.2,6,1.2,6s2.4-6.4,5.6-4.7S335.3,291.9,335.3,291.9z"/>
		<path class="st4" d="M331.9,294.8c0,0-5.7,7.1-7.6,24"/>
	</g>
	<g>
		<path class="st2" d="M293.6,278.1c3-2.9,9.4,3,11.2,7.3c0,0-4.5-12.2,0-14.3c4.8-2.3,10.4,10.4,11,14.3c0,0-3.3-13.2,1.3-14.4
			s8.7,7.5,8.9,26.8s-0.5,21.1-2,21.1s-3.4-4.1-7.6-9.1C311,303.3,285.5,285.9,293.6,278.1z"/>
		<path class="st4" d="M324.1,318.8c-1.8-17.5-15-31.1-15-31.1"/>
	</g>
	<path class="st6" d="M526.6,427c0,0,0,6.2,3.2,11.8c2.4,4.1-1,12.7-1.5,16.3c-0.4,3.6,1.9,6,4.1,2.3c2.2-3.6,4.8-9.2,13.4-10.3
		c8.6-1.2,30.5-3.8,40.8-10.3s11.3-7,11.3-7l-31-6.7L526.6,427z"/>
	<g>
		<path class="st0" d="M595.7,421.6c2,0,4,0.2,5.7,0.7c-2.9-4-14.8-5.3-23.1-5.9c-4.6-0.3-9.8-1.7-15.1-2.7v0.1c0,3.9-3.1,7-7,7
			s-7-3.1-7-7c0-0.4,0-0.7,0.1-1.1c-1.7,0.2-3.4,0.6-5,1.2c-4.4,1.6-8.2,3-11.1,4.6c0.5-0.1,1-0.1,1.5-0.1c5.5,0,9.9,3.5,9.9,7.7
			c0,2.6-1.6,4.9-4.1,6.3c7.2-0.9,10.7,2,16.5,0.4c5.7-1.6,15.7,1.7,23,0.6c-0.2-0.6-0.3-1.3-0.3-2
			C579.6,425.9,586.8,421.6,595.7,421.6z M569.3,429.1c-2.8,0-5-1.9-5-4.2s2.2-4.2,5-4.2s5,1.9,5,4.2
			C574.3,427.2,572,429.1,569.3,429.1z"/>
		<path class="st6" d="M540.4,432.4c-0.1,0-0.2,0-0.2,0c-7.4,1-13.2-1.7-13.6-5.4c-0.4-3.6,2.2-6.2,6.6-8.5"/>
		<path class="st2" d="M544.5,426.1c0-4.3-4.4-7.7-9.9-7.7c-0.5,0-1,0-1.5,0.1c-4.4,2.3-6.9,4.9-6.6,8.5c0.4,3.7,6.2,6.4,13.6,5.4
			c0.1,0,0.2,0,0.2,0C542.9,431,544.5,428.7,544.5,426.1z"/>
		<path class="st2" d="M556.2,420.8c3.9,0,7-3.1,7-7v-0.1c-4.7-0.9-9.4-1.5-13.9-1c-0.1,0.3-0.1,0.7-0.1,1.1
			C549.2,417.6,552.3,420.8,556.2,420.8z"/>
		<path class="st2" d="M601.9,425.5c0.4-1.2,0.2-2.3-0.5-3.2c-1.8-0.4-3.7-0.7-5.7-0.7c-8.9,0-16.1,4.4-16.1,9.8
			c0,0.7,0.1,1.4,0.3,2c0.2,0,0.5-0.1,0.7-0.1C588,431.9,599.6,432.1,601.9,425.5z"/>
		<ellipse class="st2" cx="569.3" cy="424.9" rx="5" ry="4.2"/>
	</g>
	<path class="st4" d="M534.5,435.9c0,0,2.3,2.5,1.4,7c-0.8,4.4-2,4.8-2,4.8"/>
	<path class="st4" d="M540.6,442.2c0.5-0.6,2.9-3.2,3.7-6.4"/>
	<path class="st4" d="M546.4,441.1c0,0,3.4-3.4,5.5-4.1"/>
	<path class="st4" d="M553.4,442.2c0,0,2.2-2.6,8.2-3.2c6-0.5,9.1-0.8,10.9-3.2"/>
	<g>
		<path class="st0" d="M488.4,293.1c0,0,5.6-7.9,10.4-5.3s-4.1,12.6-9.5,17.3s-15.2,15.6-16.3,18.1s-1.6-8.9,0-19.9
			s4.2-26.5,9.8-25.5s0.5,10.5,0.5,10.5s4.4-8.6,7.7-6.2C494.3,284.6,488.4,293.1,488.4,293.1z"/>
		<path class="st4" d="M484.9,293.1c-3,2-11.9,17.4-11.9,30.2"/>
	</g>
	<g>
		<path class="st2" d="M446.8,294.4c3-4.1,11.9,1.3,15,7c0,0-7.8-11.3-4.2-14.7s10.2,4.6,11.9,13.9c0,0-3.4-12.1,0.7-12.1
			s11.2,15.9,2.4,35.1c0,0-6.3-8-12.7-11.3C449.1,306.8,443,299.5,446.8,294.4z"/>
		<path class="st4" d="M463.8,304.1c0,0,9,5.7,8.7,19.5"/>
	</g>
	<g>
		<path class="st2" d="M419.8,541c-1-9.2,13-17.5,24.1-10.8c0,0-1.1-17.5,15.3-25.1c13.8-6.4,24.5,0.9,24.5,0.9s8.1-39.8,58.3-39.4
			c50.2,0.5,58.8,32.4,57.5,41.2c0,0,7.3-4.9,14-0.3s5.4,12.8,5.4,12.8s17.2-1.7,24.9,11c7.7,12.7,4.1,19.1-8.3,20.2
			c-12.3,1.2-95,4-115.7,2.6C488,552.1,421.9,560.5,419.8,541z"/>
		<path class="st4" d="M462.1,529.4c0,0-0.5-6,4.9-7.4s7.7,4.9,7.3,6.8"/>
		<path class="st4" d="M550.9,499.6c0,0,6.6-4,12.1-1c6.2,3.4,4.4,9.9,4.3,12.4"/>
		<path class="st4" d="M567.4,511.1c11.5-4.1,31.8,2.2,24.5,27"/>
	</g>
	<path class="st5" d="M468.1,651.1c-2.8,5.3-6.2,4.5-6.4,7.9c-0.2,3.4,3.1,7.7,8.6,4.8s12.1-18.8,17.5-44
		c5.3-25.2,7.8-42.7,25.6-52.7c17.9-10.1,55.5-24.9,52.2-30.5s-55.3,28.8-63.5,29.6s-3.5-15.6-3.2-22.4c0.4-6.8,0.3-17.7-5.1-16.3
		s1,10.8-3,27.4c-3.9,16.7-4.5,39.2-10.4,61.8C476.4,632.1,471.6,644.5,468.1,651.1z"/>
	<path class="st6" d="M488.8,640.9c-0.1-7.5,9.8-9.5,16.2-8.2c0,0,5.6-28.3,37.8-28.9c32.2-0.6,34.8,22.6,34.8,22.6s8.2-6.3,19.2-3
		c9.1,2.8,11.9,11.5,11.9,11.5s18.4-2.9,20.5,5.4c1.4,5.5-4.2,13.2-27.8,9.7c-5.8-0.9-11.8-1.1-17.6-0.6c-7.9,0.7-19.1,1.4-27.1,1
		c-13.6-0.6-16-3.7-31.9-1.9C506.6,650.5,488.9,649.6,488.8,640.9z"/>
	<path class="st5" d="M537.4,629.2c6.3,3.3-7.6,30.2-5.5,37s8.6,0.5,12.5-2.1c4-2.7,31.6-26.7,35.4-22.8
		c3.7,3.9-17.3,18.4-21.6,20.9s-20.3,11.7-26.5,15.7c-6,3.8-19,25.7-21.1,40.8c-0.2,1.4-0.9,2.6-2.1,3.2c-1,0.5-2.3,0.7-3.8-0.5
		c-5.3-4.1,1-14.6,9-26.3c7.9-11.8,12.5-27.2,13.6-34.9C528.3,652.5,532.5,626.6,537.4,629.2z"/>
	<g>
		<g>
			<path class="st2" d="M452.4,735.2l-1.6,1.5c-3.1-3.4-8.3-2-8.4-2l-0.6-2.1C442.1,732.5,448.4,730.7,452.4,735.2z"/>
		</g>
		<g>
			<path class="st2" d="M423.6,741.7l-2.1-0.5c1-4.5-3.2-8-3.2-8l1.4-1.7C419.9,731.7,425,735.9,423.6,741.7z"/>
		</g>
		<g>
			<path class="st2" d="M415.7,744.2c-0.7,0-1.2,0-1.3-0.1l0.3-2.5c0.4,0,9.8,0.9,16.5-8l2,1.5C427.1,743.4,418.8,744.2,415.7,744.2
				z"/>
		</g>
		<g>
			<path class="st5" d="M498,744.2c2.3-1.4,3.3-6.4-2-8.9c-5.3-2.6-4.9-7-11.9-8.2c-6-1.1-10.4,3.7-11.1,8.6
				c-0.6,4,1.2,10.3,11.4,8.6C494.6,742.4,494.4,746.4,498,744.2z"/>
			<path class="st4" d="M493.8,739.6c0,0-8-9.8-20.8-4"/>
		</g>
		<g>
			<path class="st5" d="M461.5,704.8c3.7,1.1,2,7.4,3.8,9.8c4.2,5.7,5.3,20.1-11.9,21.5c0,0-9.5-3.1-8.6-12.3
				c0.7-6.9,6.5-7.8,8.9-11.5S457.1,703.4,461.5,704.8z"/>
			<path class="st4" d="M458.9,712.2c0,0-7.1,8.2-5.6,23.8"/>
		</g>
		<g>
			<path class="st5" d="M437.2,734.4c0,0-9.9,1.4-8.3,9.6c2,10.3,13.6,3.6,17.1,7.8c2.5,3,5.4,3.9,6.9,2.9c2.7-1.8,2.7-4.8,0-7.8
				s0-5.2-3-9.4C446.8,733.3,441,732,437.2,734.4z"/>
			<path class="st4" d="M450.6,749.5c0,0-4.6-12-16.4-14.3"/>
		</g>
		<g>
			<path class="st5" d="M410.1,701c3.5-2,8,0.7,9.5,7.1c1.7,7.3,6.5,5.9,6.6,14.9c0.1,7-7.3,11.4-7.3,11.4s-1-2.9-6.6-4.7
				c-5-1.6-8.2-6.5-5.7-14.2C408.4,709.8,404.9,703.9,410.1,701z"/>
			<path class="st8" d="M413.7,708.7c0,0,8.1,9.2,5.2,25.7"/>
		</g>
		<g>
			
				<ellipse transform="matrix(0.6878 -0.7259 0.7259 0.6878 -375.1534 570.0602)" class="st7" cx="475.2" cy="721.2" rx="12.9" ry="13"/>
			<ellipse class="st10" cx="479.2" cy="715" rx="2.1" ry="2.1"/>
			<ellipse class="st11" cx="479.2" cy="715" rx="0.6" ry="0.6"/>
		</g>
		<g>
			
				<ellipse transform="matrix(0.3735 -0.9276 0.9276 0.3735 -431.8584 836.8143)" class="st7" cx="403.6" cy="738.1" rx="14.7" ry="14.9"/>
			
				<ellipse transform="matrix(0.3735 -0.9276 0.9276 0.3735 -421.5625 837.8668)" class="st10" cx="409.5" cy="731" rx="2.8" ry="2.8"/>
			
				<ellipse transform="matrix(0.3735 -0.9276 0.9276 0.3735 -421.5625 837.8668)" class="st11" cx="409.5" cy="731" rx="0.8" ry="0.8"/>
		</g>
		<g>
			
				<ellipse transform="matrix(0.9815 -0.1914 0.1914 0.9815 -130.6342 96.512)" class="st7" cx="434.3" cy="724.5" rx="12" ry="11.9"/>
			<ellipse class="st10" cx="431.7" cy="718.2" rx="1.9" ry="1.9"/>
			<ellipse class="st11" cx="431.7" cy="718.2" rx="0.6" ry="0.6"/>
		</g>
		<g>
			
				<ellipse transform="matrix(0.4545 -0.8907 0.8907 0.4545 -404.739 815.4202)" class="st7" cx="463.4" cy="738.2" rx="12.7" ry="12.5"/>
			<ellipse class="st10" cx="470.3" cy="740.2" rx="2" ry="2"/>
			<ellipse class="st11" cx="470.3" cy="740.2" rx="0.6" ry="0.6"/>
		</g>
	</g>
	<g>
		<path class="st2" d="M355.4,750.1c0,0-11.8-1-19.2-9.7s-7.8-14.5-5.2-17c2.7-2.5,7.7-0.8,10.4,3.2c0,0-2.1-11,3.4-11.7s6,10,6,10
			s-0.8-12.9,4.6-11.5C360.8,714.8,362.4,739.4,355.4,750.1z"/>
		<path class="st2" d="M346.8,732.3c0,0,2.5,12.6,8.5,17.8"/>
	</g>
	<g>
		<path class="st2" d="M355.4,750.2c0,0,9.9-0.3,16.2-5.8s6.9-9.5,5.5-11.4s-5.2-0.4-6,0.6s5.5-7.9,2.1-10.1
			c-3.4-2.2-7.1,4.9-7.1,4.9s2.6-5.9-0.7-6.8c-3.3-0.9-8.4,3.9-9.9,11.4C353.9,740.6,355,748.9,355.4,750.2z"/>
		<path class="st2" d="M366.2,735.4c0,0-1.8,8.1-10.8,14.8"/>
	</g>
	<g>
		<g>
			<g>
				<path class="st5" d="M220.6,457.1c4.2-0.3,3.9,7.4,4.4,11.5s3.2,2.7,5.4,0s2.6-4.7,4.7-3.1c2.1,1.5-2.4,8.5,0,10.9
					c2.4,2.5,4.6-1.8,5.7,2.8c1.1,4.6-8.9,26.1-8.9,26.1s-19.5-3.1-20.5-10.4c-0.9-7.2,9-0.2,9.7-3.5s-10-3.4-9.7-8.3
					c0.2-5,6.4-3,6.9-6.2s-9.4-0.7-8.1-5.8c1.2-5.1,7.8,0.5,8.5-2.1C219.4,466.3,216,457.4,220.6,457.1z"/>
				<path class="st5" d="M222.4,470.9c0,0,7.6,21.6,9.5,34.4"/>
			</g>
			<g>
				<path class="st5" d="M231.4,504.7c0,0-6.6-19.8-2.4-23s3.9,8.7,8,6.5s-1.2-17.3,3-18.2s1.6,9.5,5.2,10.5
					c3.6,1,8.4-18.2,13.9-14.7s-6.4,13.1-3.9,16.6s11-3.1,12,2.1c1.1,5.2-18.6,6.4-17.3,10.8c1.2,4.4,8.2-1.5,8.5,3.6
					C258.6,504,246,506.5,231.4,504.7z"/>
				<path class="st5" d="M231.4,504.7c12.1-6,18.1-20.2,18.1-20.2"/>
			</g>
			<g>
				<path class="st5" d="M275.8,524c-1.5,3.2-9.7-1.2-13.4-2.8s2.7,6.6-0.5,8.8s-10.7-10.5-13.1-10.3c-2.5,0.2,2.4,6.1-0.6,8.4
					c-3.1,2.3-14.5-16.2-16.6-23.4c0,0,25.2-11.5,27.9-5.8c2.7,5.8-8.9,4-7.9,7.4s17.3-7.3,20.3-1.4c3.1,5.9-10.7,5.3-9.7,8.2
					S278.5,518.1,275.8,524z"/>
				<path class="st4" d="M256.1,514.4c0,0-14.6-4.9-24.6-9.9"/>
			</g>
			<g>
				<path class="st5" d="M224.6,547.6c-3.3-0.5-1.6-6.7-1.2-10.5c0.4-3.8-5.8,1-7.3-1.9c-1.6-2.9,7.7-8,6.7-10.5
					c-1.1-2.5-6.6,5.4-7.7,1.7c-1.1-3.7,15.4-12.7,16.6-21.8c0,0,9.4,8.9,12.7,16.9c2.8,6.7-2,7.5-3.5,5c-1.2-2-4.3-2.1-3.2,1.4
					c1.1,3.4,3.5,10.6,0.8,11.5c-2.8,0.9-3.9-6.4-6.9-4.4C228.4,537,231.4,548.6,224.6,547.6z"/>
				<path class="st4" d="M230.6,531.7c0,0,6.1-12.2,1-27.1"/>
			</g>
			<g>
				<path class="st5" d="M188,508.8c-0.4-3.3,6.1-3.2,9.9-3.8c3.8-0.6-2.5-5.3,0-7.6c2.4-2.3,9.7,5.4,11.9,3.8c2.1-1.7-6.9-5-3.6-7
					c3.3-2,16.2,11.7,25.3,10.5c0,0-6.2,11.3-13.1,16.6c-5.8,4.4-7.8,0-5.7-2.1c1.7-1.7,0.9-4.7-2.2-2.7c-3,2-9.4,6.1-10.9,3.7
					c-1.5-2.5,5.2-5.5,2.5-7.8C199.2,509.8,188.8,515.7,188,508.8z"/>
				<path class="st4" d="M204.9,510.6c0,0,13.3,2.8,26.5-6"/>
			</g>
		</g>
		<g>
			<g>
				<path class="st5" d="M179.3,488.1c0,0,11.9,8.5,16.2,15.1s7.7,3.8,6.8,0.7s-5.1-6.9-2.2-8.4s5.2,11.1,10.2,6.9
					c4.9-4.2-5.8-7.3-3.1-10.3c2.6-3,14.6,4.7,17-2.7s-16.8-3-17-6c-0.1-3,9.5-4.6,7.7-8.5s-12,4.4-15.7,3.1s6.8-6.4,3.4-9.5
					C199.1,465.3,188.2,470.8,179.3,488.1z"/>
				<path class="st4" d="M206.9,486c0,0-16.9-5.2-27.6,2"/>
			</g>
			<g>
				<path class="st5" d="M156.7,527.3c-4.7-3,5.1-7.5,3.8-10.6s-5.8,3-7.9-1c-2.2-4,9.6-7.7,8.8-11.1c-0.8-3.4-5.1-0.5-5.6-3.8
					s15-12.3,23.8-13.4c0,0,5,9.5,5.8,15.8s0.8,11.1-2.3,12.6c-3.2,1.5-3.2-3.8-6.3-2.9c-3.2,1,0.9,10.5-3.5,11.7
					c-4.1,1.2-3.1-4.6-5.8-4.7C164.9,519.8,159.3,529,156.7,527.3z"/>
				<path class="st4" d="M179.7,487.5c-1,9.8-14.2,24.5-14.2,24.5"/>
			</g>
			<g>
				<path class="st5" d="M179.8,487.4c0,0-4.4-7.4-9.7-12s-6.8-4.9-8.2-3.2s1.6,4.1,0.3,6s-7.3-4.4-10-8.2s-6.2-7.6-8.7-6.1
					s2.8,5.2,0.9,7.6c-1.9,2.4-4.9-0.2-9.2-2.8c-4.3-2.5-7.2-1.6-7.9,0.3c-2.5,6.2,14.6,8.5,12.8,12.6c-0.9,2.1-3.2,3.9-0.7,6.3
					s8.3-1.9,12.6-0.5s-3.5,4.5-1.5,7.3C152.7,497.5,166.8,497.8,179.8,487.4z"/>
				<path class="st4" d="M145.1,477.3c0.3,0.3,15.1,9.3,34.7,10.1"/>
			</g>
			<g>
				<path class="st5" d="M201.8,519.7c-2.4,1.8-5.2-3.3-7.3-6s-3,4.2-5.8,3.4s-0.1-9.9-2.3-10.8c-2.2-0.9-0.9,7.5-3.9,5.9
					s1.9-17.6-3-24.2c0,0,11.5-0.2,18.5,2.9c5.9,2.5,3.4,6,0.9,5.3c-2-0.5-4,1.4-1.2,2.9s8.9,4.6,7.6,6.8c-1.2,2.3-6.5-1.6-7.1,1.5
					C197.7,510.5,206.8,516.1,201.8,519.7z"/>
				<path class="st4" d="M195.8,505.8c0,0-3.7-11.5-16.2-17.8"/>
			</g>
			<g>
				<path class="st5" d="M176.5,439.5c3.5-0.2,3.4,9.1,3.7,13.2c0.3,4.1,4.6-5.4,8-3.6s-4.4,14.3-3,16.4c1.4,2.1,4.3-5,7.7-3.3
					s-7.6,20.3-13,25.5c0,0-21.9-16.9-18.1-22c3.9-5.1,7.6,6,10.3,3.5c2.6-2.5-14.5-11.9-10.7-17.4s9.7,7,11.8,4.8
					C175.3,454.4,170.1,439.8,176.5,439.5z"/>
				<path class="st4" d="M177.2,461.3c0,0,2.5,15.2,2.7,26.3"/>
			</g>
		</g>
		<g>
			<path class="st6" d="M169.7,594.4c0,0,2.5,22-1.9,42.3s-10.9,63.7-4.9,83h48.6c0,0,8.8-29.4,0-76.9s-16.7-50-16.7-50L169.7,594.4
				z"/>
			<path class="st4" d="M173.6,626.1c0,0,3.2,3.9,8.3,3.2"/>
			<path class="st4" d="M191.6,631.1c0,0,6.7,2,12.2-3.4"/>
			<path class="st4" d="M181.3,637.2c0,0,5,2.3,10.4,0.7"/>
			<path class="st4" d="M174.9,642c0,0,1.6,2.3,5.2,1.5"/>
			<path class="st4" d="M173.6,656.2c0,0,1.9,1.8,3.9,1.2"/>
			<path class="st4" d="M194.7,654c0,0,8.9,0.7,13-4.4"/>
			<path class="st4" d="M193.3,669.8c0,0,7,0.6,11.6-4.2"/>
			<path class="st4" d="M177.7,678.3c0,0,4.4,2.6,9.5,1.3"/>
			<path class="st7" d="M183.9,659.2c4.1-0.1,5.9,7.9,3.3,11.4c-2.5,3.5-8.5,3.8-9.5-0.8C176.7,665.3,179.1,659.4,183.9,659.2z"/>
			<path class="st7" d="M191.6,644c1.7-0.4,3.5,1.3,3,3.1c-0.4,1.6-2.8,2.5-4.1,1.2C188.9,646.4,190,644.4,191.6,644z"/>
		</g>
		<g>
			<path class="st2" d="M196,599c3.1,0.9,8.9,0.2,12.5,2.9c3.5,2.7,7,0.5,6.4-2.9s-0.4-11.5-6.5-16.5c-5.9-4.8-15-6.6-19.3-1.2
				C185.6,585.7,185.1,595.7,196,599z"/>
			<path class="st4" d="M205.1,588.2c0,0,4,2.7,5.1,8.8"/>
			<path class="st4" d="M202.7,595.3c0.5,0.4,1.6,2.4,4.4,2.5"/>
		</g>
		<g>
			<path class="st2" d="M162.1,580c-4.5,4.4-5.7,9.6-3.6,17c2.1,7.4-0.2,6.9,0.7,9.3c0.9,2.4,4.1,4,8.6-1.1s10.4-9.7,10.4-21
				C178.2,577.1,168.2,574.1,162.1,580z"/>
			<path class="st4" d="M162.9,597.9c0,0-0.9-11.3,4.9-15.4"/>
		</g>
		<g>
			<path class="st5" d="M164.7,524.6c3.5-3.9-7.1-7-7.3-10.4c-0.1-3.4,6.4-2.3,6.7-6.1c0.4-3.8-12.3-0.7-13.4-3.8
				c-1.1-3.1,5.5-1.8,5.4-4.9c-0.1-3.1-14.5-9-26.2,1.7c0,0,8.6,11.2,14.2,15.2s7.1,3.6,10.6,4.3
				C158.3,521.3,161.8,527.9,164.7,524.6z"/>
			<path class="st4" d="M153.6,513.6c0,0-7.8-11.3-23.6-12.5"/>
		</g>
		<path class="st6" d="M179.8,486.3c5.9-0.6,8.5,60,15.7,70.4l-16.6,1.5c0,0,4-22.1,2.7-38.8C180.2,501.1,176.2,486.7,179.8,486.3z"
			/>
		<path class="st6" d="M232.2,505c2.6,4.2-30,29.6-31.3,53.3l-11.6-0.9C195.5,532.3,228.5,499.1,232.2,505z"/>
		<g>
			<path class="st5" d="M104.1,464.7c4.7-2.9,4.5,7.9,7.9,8.1c3.3,0.2-0.2-6.5,4.3-6.7s2.8,12,6.1,12.8s2.7-4.3,5.9-3.3
				s4.5,18.9,1.7,27.2c0,0-10.7,0.4-16.7-1.7S103,497,103,493.5s4.8-1.2,5.4-4.4s-9.8-3.8-9-8.2c0.8-4.2,5.5-0.8,6.8-3.1
				C107.3,475.3,101.6,466.3,104.1,464.7z"/>
			<path class="st4" d="M130,502.8c-8.3-5.2-15.9-23.5-15.9-23.5"/>
		</g>
		<g>
			<path class="st5" d="M161.8,470.9c2.4,2.4-2.8,6.3-5.4,9.1s5.2,2.7,4.7,5.9s-11,1.8-11.6,4.4c-0.6,2.6,8.5-0.3,7.2,3.3
				s-19.9,0.9-26.4,7.5c0,0-2.1-12.7,0-21.1c1.8-7,6.1-4.8,5.8-1.9c-0.3,2.3,2.2,4.3,3.4,0.8c1.1-3.4,3.5-10.6,6.3-9.6
				c2.7,1-0.7,7.5,2.9,7.7C152.3,477.1,156.9,465.9,161.8,470.9z"/>
			<path class="st4" d="M147.4,480c0,0-12.2,6.1-17,21.1"/>
		</g>
		<g>
			<path class="st5" d="M75.4,525.9c-2.1-2.8,1.5-6.1,5.7-7.7c3.5-1.3,5.5-2,4.5-4s-5.7-2.5-4.6-5.4c2-4.9,15,1.5,16.3-2.8
				c1-3.3-4.7-2.9-3.9-6.6c0.8-3.7,20.2-6.6,38.1,2.4c0,0-6.4,11.3-16.2,16c-9.7,4.7-9.3-2.4-12.1-1.4s-6.3,12.7-10.8,12.6
				c-5.8-0.1-0.8-6.6-4-7.1S78.7,530.4,75.4,525.9z"/>
			<path class="st4" d="M131.5,501.8c-16.5-2-30.5,9.2-30.5,9.2"/>
		</g>
		<g>
			<path class="st5" d="M130.4,501.1c0,0-39.9,12.5-31.1,23.4c1.9,2.3,7.9-0.5,8,2.5c0.1,3.1-15,5.5-16.4,10.4s3.1,5.5,4.8,5.7
				c1.8,0.3,2.5,2.2,1.7,3.5c-0.9,1.3-8.2,5.7-6.8,10.4s6,1.9,9.1-2s5.7-4.1,7-1.7c1.3,2.4,0.3,7.2,4.5,6.2s5.5-6.7,6.3-16.2
				s3.4-8.3,5.2-6.2c1.8,2,5.5,3.7,6-0.9C129.1,531.6,131.2,504.9,130.4,501.1z"/>
			<path class="st4" d="M113.6,530.4c0,0,1.3-13.5,16.8-29.3"/>
		</g>
		<g>
			<path class="st5" d="M130,501.1c0,0-3.6,7.8-4.6,14.8c-0.9,7-0.3,8.4,1.9,8.6c2.2,0.2,2.5-3.6,4.8-3.6s0.4,8.5-1.2,12.8
				c-1.6,4.3-2.9,9.4-0.2,10.6s2.8-5.3,5.8-5s2.6,4.2,2.8,9.2c0.3,4.9,2.7,6.8,4.6,6.4c6.5-1.4-1.1-16.8,3.3-17.6
				c2.2-0.4,5,0.5,5.6-2.9s-6.2-5.8-7.4-10.2s5.7,0.4,6.9-2.8S145.9,506.1,130,501.1z"/>
			<path class="st4" d="M140.9,535.5c0.1-0.4-0.7-17.7-10.9-34.4"/>
		</g>
		<path class="st6" d="M130.1,501.4c0.7-5.1,37.1,20.6,48.6,52.9l-12.5,2.8c0,0-0.6-19.6-18.4-37.6
			C130.1,501.4,129.9,503,130.1,501.4z"/>
		<g>
			<path class="st0" d="M184.2,568.1c6.5-0.5,13.4,4.2,14.9,21.4s-3.8,21.6-4.5,27.5c-0.6,4.3-5.5,5.3-7.9,1.4
				c-3.1-4.9-13.7-6-14.7-20.9C171,582.5,175.2,568.8,184.2,568.1z"/>
			<path class="st4" d="M181.9,583.3c0,0-3,14.7,3.6,24.1"/>
			<path class="st4" d="M190,585.7c0,0,4.9,8.5,2.6,22.6"/>
		</g>
		<g>
			<path class="st2" d="M184.8,559.9c4.3-7.5,19.1-9,29.4,0.6c11,10.2,7.7,17.6,10.1,22c2.4,4.4-0.2,7.6-5,6s-17.1-2.1-24.8-7.2
				C186.9,576.2,179.8,568.7,184.8,559.9z"/>
			<path class="st4" d="M194.7,560.9c0,0,14.1,0,23.2,12.5"/>
			<path class="st4" d="M193.3,568.1c0,0,6.7,12,18.9,13.2"/>
		</g>
		<g>
			<path class="st0" d="M185.6,553c7.4,6.8,1.5,22.2-10,29.4s-18.6,6.9-21.6,8.8c-4.2,2.7-7.2,1.5-6.1-2.9c1.4-5.8,0-16.3,5.8-25.8
				C158.4,554.6,173.8,542.2,185.6,553z"/>
			<path class="st4" d="M154.7,579.5c0.2-0.8,4.1-18.8,19.2-22.8"/>
			<path class="st4" d="M178.9,561.8c0,0-5.8,14.9-18.4,20.7"/>
		</g>
	</g>
	<path class="st5" d="M539.1,124.9c0,0-1.3,3.1-3.2,5.2c-2,2.1,0.8,3.9,4.2,0.7c3.4-3.2,4.1-4.9,4.6-7.6c0.6-2.7,2.9-10.6,9.4-16.8
		c6.4-6.2,7.7-6,11.2-12.4s10.2-4.3,16.1-11.7s5.8-8.3,4.6-9.5c-1.2-1.3-9.5,10.2-12,11.1s-3.6,0.3-2.1-3.4
		c1.5-3.6,5.5-8.4,3.5-10.1c-2-1.7-9.7,15.4-14.4,20.6c-4.7,5.2-8.1,9.2-10.2,7.9s0.8-8,0.1-12.5s0.8-15.8-1.7-16.1s-2.2,6-2.1,10.8
		s0.6,11,0,16.9C546,108.4,542.6,112.4,539.1,124.9z"/>
	<path class="st5" d="M557,155.1c0,0-2,2.3,0,4.9c2,2.5,6.2-1.5,8.2-3.9s12-14.1,12-14.1s12.1-2.5,20.9-11.7
		c9.1-9.6,16-21.9,17.5-24.9c1.4-3-1.4-3.6-3.2-0.8c-1.8,2.8-11.4,18.1-20.5,24.9s-4-0.4-2.6-2.6c1.4-2.2,6.2-10,8-16.9
		c1.8-6.8,2.3-8.7,0.3-9.1c-2.2-0.4-7.1,19-9.1,19.5c-2,0.6-0.1-15.7-2.5-15.8c-1.4,0-1.4,0.7-1.6,4.3s0.1,11.5,1.6,14.7
		c0,0-7.2,11.2-12.6,17.1C565.4,149.3,559.3,152.6,557,155.1z"/>
	<g>
		<path class="st0" d="M289.4,428.4c0,0,5.7-4.2,7.7-1.3s-4.3,16-19.7,19.5c0,0-4.5-9.8-1.2-20.6c2.9-9.5,8.6-4.8,6.6-1
			c0,0,3.7-8.2,7.6-5.1C293.1,421.9,289.4,428.4,289.4,428.4z"/>
		<path class="st1" d="M285.6,427.9c0,0-6.2,6-8.1,18.7"/>
	</g>
	<g>
		<path class="st2" d="M260,434c0,0-10.5-4.2-12.6,0s16.1,12.8,30.5,12.6c0,0-1.4-10.8-3.7-15.9c-2.6-5.8-5.2-10.7-8.2-9.7
			c-3.9,1.4,1,8.8,1,8.8s-7.9-12.4-11.9-9.3S260,434,260,434z"/>
		<path class="st1" d="M278,446.6c-5.6-9.6-15.3-15-15.3-15"/>
	</g>
	<g>
		<path class="st6" d="M298.2,577.4c0,0,9.7,14.7,28,21s26.6,19.4,28.3,23s2.9,5,5.7,4.1c2.7-0.9,3.1-4.6,1.4-11.3
			c-1.7-6.7,0.9-11.7,4.6-15.1c3.8-3.4,18.4-16.2,21.5-22.9l-29.4-5h-36L298.2,577.4z"/>
		<path class="st4" d="M322.1,587.7c0,0,5.7,3.6,11.6,6.3c6,2.7,12.6,8.8,15.6,14"/>
		<path class="st4" d="M335.7,586.9c0,0,13.6,6.6,17.8,20"/>
		<path class="st4" d="M351.6,583.5c0,0,1.9,12,5.7,16.7"/>
		<path class="st4" d="M363.9,586c0,0-3.2,7.4-2.8,14.1"/>
		<g>
			<path class="st0" d="M375.8,571.3c-5.5-2.2-6.5-6.8-6.7-9.4c-5.8-0.2-11.8,0.4-21.5-2.3c-5.2-1.5-11.3-2.4-17.2-2.6
				c-0.1,2.5-3.6,4.5-7.9,4.5c-3.7,0-6.8-1.5-7.7-3.5c-3.7,0.7-6.9,1.8-9.1,3.2c-1.6,1.1-4.6,3.4-6.6,5.8c1.4-0.8,2.9-1.2,4.6-1.2
				c5.2,0,9.4,4.2,9.4,9.4c0,2.7-1.1,5.1-2.9,6.8c7.1,1.4,14.7,2.3,21.3-0.8c8.1-3.7,15.1-4,22.7-2.5c1.1-2.7,4.2-6.9,12.3-6.1
				c8.3,0.8,11,5.1,11.9,7.9c3.1-0.4,5.8-1.1,7.5-2.2c1.7-1.1,2.5-2.7,2.5-4.4C385.3,574.2,380.9,573.3,375.8,571.3z M348.6,572.5
				c-2.6,3.2-22.2,0.6-22.8-3.8c-0.4-2.7,5.9-5.3,14-3.7C348,566.7,351.2,569.4,348.6,572.5z"/>
			<path class="st2" d="M312.9,575.2c0-5.2-4.2-9.4-9.4-9.4c-1.7,0-3.2,0.4-4.6,1.2c-0.9,1.1-1.7,2.2-2,3.2
				c-1.5,4.6,1.1,9.1,6.4,10.3c2.1,0.5,4.3,1,6.6,1.5C311.8,580.3,312.9,577.9,312.9,575.2z"/>
			<path class="st2" d="M322.5,561.4c4.3,0,7.8-2,7.9-4.5c-5.6-0.2-11,0.1-15.6,1C315.7,560,318.8,561.4,322.5,561.4z"/>
			<path class="st2" d="M366.4,572.6c-8.1-0.8-11.1,3.4-12.3,6.1c0.6,0.1,1.3,0.3,1.9,0.4c5.8,1.4,15.2,2.3,22.3,1.4
				C377.4,577.7,374.6,573.4,366.4,572.6z"/>
			<path class="st2" d="M339.8,565.1c-8.2-1.6-14.4,1-14,3.7c0.6,4.3,20.3,6.9,22.8,3.8C351.2,569.4,348,566.7,339.8,565.1z"/>
			<path class="st2" d="M377.4,563c-2.9-0.8-5.6-1.1-8.3-1.1c0.1,2.6,1.2,7.2,6.7,9.4c5,2,9.5,2.9,12.5,2.7
				C388.4,569.9,384,564.8,377.4,563z"/>
		</g>
	</g>
	<g>
		<path class="st2" d="M218.3,605.6c2.7-1.4,6.5,2.1,6.9,6.3c0,0,0-10.2,2.5-10.8s5.1,3.3,5,6.3c0,0-1-8.3,2.4-8.4
			c3.4-0.1,13.5,13.6-4.8,55.6c0,0-6.9-18.3-10.1-29.5C216.9,613.8,215.3,607.2,218.3,605.6z"/>
		<path class="st8" d="M230.1,611.4c0,0,4.8,13.4,0.2,43.1"/>
	</g>
	<g>
		<path class="st0" d="M498.7,409.1c2.6,0.8,2,5.7-1.7,12.9s-4.2,25.9-2,29.7c0,0-9.6-7.9-12.9-20.7s-0.1-22.2,3.3-22.6s4,6,4,6
			s-0.3-7,2.5-7s2.4,6.1,2.4,6.8C494.3,415.1,495.3,408.1,498.7,409.1z"/>
		<path class="st12" d="M489.4,418.4c0,0-5.9,17,5.7,33.3"/>
	</g>
	<g>
		<g>
			<polygon class="st9" points="438.2,423.4 447.7,449.5 454.7,447.9 448,420.1 			"/>
			<path class="st13" d="M447.7,449.5c0,0-4.2,2.3-3.7,4.2c0.3,0.9,3.7,0.3,7.1-2.1c3.8-2.7,3.6-3.7,3.6-3.7L447.7,449.5z"/>
			<polygon class="st9" points="467.2,420.1 460,450.9 454.7,450.9 446.5,415.5 			"/>
			<path class="st13" d="M454.7,450.9c0,0-4.4,3.6-3.1,5c1.8,2,8.5-5,8.5-5H454.7z"/>
		</g>
		<path class="st9" d="M413.7,359.2c0,0-9.4,13.6-8.4,25c0.3,4.1,4.2,9.6,11.8,6.7s7.1-29.1,5.5-31.8L413.7,359.2L413.7,359.2z"/>
		<g>
			<path class="st0" d="M423.7,333.1c0,0-5,12.5-10.6,18.9s7.8,12.6,10.6,10.6c2.8-2.1,9.3-22.4,5.4-29.5
				C425.1,326,423.7,333.1,423.7,333.1z"/>
			<path class="st4" d="M416.6,347.3c0,0,4.2,5.6,11.5,5.7"/>
			<path class="st4" d="M414.1,350.9c0,0,4.1,8,11.9,7.9"/>
			<path class="st4" d="M414.8,360.2c0,0,9.5-6.3,13.2-28.7"/>
		</g>
		<path class="st2" d="M439,309.1c0,0,29.2,9.7,49.1,39.9c19.2,29.1,20.5,58.7,20.5,58.7c-8,12.9-48.3,20.7-88.9,13.3
			c0,0-2.9-81.1,9.4-107.3L439,309.1z"/>
		<path class="st7" d="M398.5,389l4.6,27.4c0.3,1.5,1.4,2.7,2.9,3.1c5.3,1.2,18.1,2.5,27.2-9.3c0.9-1.2,1-2.9,0.2-4.2l-14.8-25.1
			L398.5,389z"/>
		<path class="st7" d="M420.1,386.2c2-2.4,6.6-0.3,8.9,2.2s5,7.2,4.5,12.2c-0.3,3.6-2.1,8.3-4.9,7.8c-2.9-0.5-1.5-3-0.7-4.2
			c0.9-1.2,1-4.7-0.4-8.3c-1.4-3.6-3.9-4.6-5.7-5.1C419.4,390.2,418.8,387.7,420.1,386.2z"/>
		<path class="st7" d="M427.3,318.4c-1.5,0.8-2.3,3.7-1,6.4c2.8,6.2,14.2,29.8,24.9,40.1c12.7,12.1,23.9,20.2,29.3,22.6l2.1-2.9
			c0,0-15.9-11-25.2-21.6c-9.7-11-17.9-23.1-23.1-33.1C429.8,321.4,428.7,318.8,427.3,318.4z"/>
		<path class="st7" d="M481.6,389.7c0,0,0,6.6,0,8.1c0,2,0.3,4.4,2.4,4.3c2-0.1,9.6-0.9,10.7-1.2c1.1-0.4,2.7-0.6,2.9-3.1
			c0.2-2.4,0.1-10.3,0.1-10.3L481.6,389.7z"/>
		<path class="st2" d="M489,391.6v2.8c0,0.7,0.6,1.3,1.4,1.2l0.7-0.1c0.6-0.1,1-0.6,1-1.2v-3.4L489,391.6z"/>
		<path class="st7" d="M494.4,382.7c0,0-4.5-30.3-14.4-44.4c0,0,4.9,4.8,8.2,10.7c2.5,4.5,7.6,22.9,8.7,31.8
			C496.9,380.8,496.5,384.8,494.4,382.7z"/>
		<path class="st9" d="M447.6,364.4c0,0-9.9,13.2-16.6,15.9c-6.7,2.7-8.7,2.5-8.4,4.9c0.3,2.4,4.5,1.5,6.2,1.5s2.2,2,0.7,3
			s-5.7,4.7-3.9,9.2c1.8,4.5,6.4,7.6,16.5,2.9s19.8-15.8,23.8-28.5L447.6,364.4z"/>
		<path class="st7" d="M398.5,389c-0.5-2.2,4.3-5.4,8.1-7c3.7-1.6,11.2-3.1,12.1-1.1s-3,5.5-8.5,8.1
			C404.6,391.5,399,391.1,398.5,389z"/>
		<path class="st7" d="M375.9,401.7c3.3-2,6,1,12.7,0.7s11.1-2.4,13.3-2.7c4-0.5,4.8,5.6,0,6.3c-4.8,0.7-11.8,4-14.8,8.1
			c-3,4.1-6.1,3.4-9.1,0.6C375,411.8,371.5,404.4,375.9,401.7z"/>
		<path class="st4" d="M379.9,404.1c0,0,3.9,2.5,3.7,7.9"/>
		<path class="st9" d="M432.4,313.9c0,0-1.2,8.7,3.4,8.1c4.6-0.5,2.3-10.1,1.5-11.6s-2.2-3-2.2-3l-3.6,3L432.4,313.9z"/>
		<g>
			<path class="st0" d="M457.8,328.2L457.8,328.2c1.1,0,2.1,0.3,2.9,1c4.4,3.4,17,15.8,11.4,43.7c-0.3,1.6-2,2.6-3.5,2.1
				c-6-2-17.6-6.5-22.6-12.3c-1.7-1.9-1.2-4.9-0.2-6.5c6.1-9.9,5-20.3,8-25.8C454.5,329.1,456.1,328.2,457.8,328.2z"/>
			<path class="st4" d="M454.9,340.6c0,0,12.7-0.3,17.1,7.1"/>
			<path class="st4" d="M451.1,347.7c0,0,15.5,0.1,22.4,9.4"/>
			<path class="st4" d="M448.5,354.7c0,0,17.6,4.1,24.6,12.1"/>
			<path class="st4" d="M458.1,332.6c0,0,4.2,22.3-5.1,35.7"/>
			<path class="st4" d="M463.5,337.3c0,0,6.6,19.5,0.5,36.1"/>
		</g>
		<polygon class="st7" points="431.5,290.5 434.6,284.4 437.7,286.5 435,292.1 		"/>
		<path class="st13" d="M430.5,277.1c-0.2-2.4,0.5-6.7,5.5-8c6.4-1.6,9.3,3.4,9.7,6.2c0.4,2.8,0.6,4.2,2.7,4.1s4.5,2.2,2.6,5.5
			c-1.8,3.3-7.4,5.2-12.9,2.4C432.7,284.7,430.9,281.2,430.5,277.1z"/>
		<path class="st4" d="M361.5,414c0,0,4.8-8.2,16-7.4"/>
		<path class="st4" d="M365,427.6c0,0,0.8-14.5,14.3-17.4"/>
		<path class="st4" d="M380.6,414c0,0-8,7.9-7.3,17.7"/>
		<g>
			<path class="st9" d="M440.3,300.3c-0.3-1.2-0.7-2.4-1.3-3.4c-1.8,4.7-6,1.4-6,1.4c-2.2,4.3-5.9,1.1-5.9,1.1
				c-1.1,3.3-4.9,2.3-4.9,2.3c0.1,1,0.2,2.1,0.5,3.1c1.7,6.6,7,11,11.9,9.8C439.4,313.4,442,307,440.3,300.3z"/>
			<path class="st13" d="M427.1,299.3c0,0,3.6,3.2,5.9-1.1c0,0,4.2,3.3,6-1.4c-2.3-4.6-6.6-7.4-10.6-6.4c-4.1,1-6.6,5.7-6.3,11.1
				C422.2,301.7,426.1,302.6,427.1,299.3z"/>
		</g>
		<ellipse transform="matrix(0.9694 -0.2454 0.2454 0.9694 -62.242 114.6075)" cx="428.8" cy="307.1" rx="0.5" ry="1.1"/>
		<ellipse transform="matrix(0.9694 -0.2454 0.2454 0.9694 -61.9979 115.1742)" cx="431.1" cy="306.4" rx="0.5" ry="1.1"/>
		<path class="st5" d="M480,386c0.5-1,1.3-1.8,4-1.5c3.2,0.3,7.7,0,10.8-2.5c2.7-2.1,5.3-0.3,4.5,2.4c-0.4,1.4-2.7,5.8-8.6,7.2
			C484.1,393.1,478.7,388.6,480,386z"/>
	</g>
	<g>
		<g>
			<path class="st5" d="M493.8,326.9c0-1.2,0.1-2.3,0.3-3.4c0.2-1.1,0.4-2.3,0.7-3.4c0.3-1.1,0.7-2.2,1.1-3.3c0.4-1.1,1-2.2,1.7-3.2
				s1.4-2,2.4-2.8c0.9-0.8,2-1.5,3.3-2c1.2-0.5,2.5-0.7,3.8-0.7c0.7,0,1.4,0.1,2,0.3c0.7,0.2,1.3,0.5,1.9,0.9
				c1.2,0.7,2.1,1.7,2.8,2.7c0.7,1,1.3,2.1,1.8,3.2c1,2.2,1.6,4.5,2.1,6.8s0.8,4.6,1,6.9c0.1,1.2,0.2,2.3,0.2,3.5
				c0.1,1.2,0.1,2.3,0,3.5h-1.8c-0.1-2.2-0.3-4.5-0.5-6.7c-0.3-2.2-1.3-4.4-1.8-6.6s-1.1-4.3-1.9-6.3c-0.4-1-0.9-1.9-1.5-2.8
				c-0.6-0.8-1.3-1.6-2-2.1c-0.8-0.5-1.6-0.8-2.5-0.9c-1,0-2,0.1-2.9,0.4c-1.9,0.6-3.5,2-4.9,3.7c-1.3,1.7-2.4,3.7-3.2,5.8
				C495.1,322.5,494.4,324.7,493.8,326.9z"/>
			<path class="st5" d="M502.5,300.5c1.2-0.3,2.6-0.2,3.8,0.1c0.6,0.2,1.3,0.4,1.9,0.6c0.3,0.1,0.6,0.3,0.9,0.4
				c0.3,0.2,0.6,0.3,0.9,0.5c1.1,0.7,2.1,1.7,3,2.6c0.9,1,1.6,2.1,2.2,3.3c0.6,1.2,1.2,2.4,1.6,3.6s0.8,2.5,1.1,3.7
				c0.6,2.5,0.9,5.1,0.9,7.6l-2.5,0.2c-0.4-2.4-0.7-4.8-1.3-7.2c-0.5-2.3-1.2-4.7-2.2-6.8c-0.5-1.1-1-2.1-1.7-3.1
				c-0.6-1-1.4-1.9-2.3-2.7C507.2,302,505.1,300.8,502.5,300.5z"/>
			<path class="st5" d="M516.5,332.4c-0.1-1-0.2-1.9-0.2-2.8s-0.1-1.9,0-2.8c0-1.9,0.1-3.8,0.3-5.6c0.2-1.9,0.5-3.8,1-5.6
				c0.5-1.9,1.2-3.7,2.3-5.5c0.6-0.9,1.3-1.7,2.1-2.4c0.9-0.7,1.9-1.2,3.1-1.4c0.6-0.1,1.1-0.1,1.7-0.1c0.5,0,1.1,0.1,1.6,0.2
				c1.1,0.2,2.1,0.7,2.9,1.3c0.4,0.3,0.8,0.7,1.2,1c0.3,0.4,0.7,0.8,0.9,1.2c0.6,0.8,1,1.7,1.3,2.6s0.6,1.8,0.7,2.8
				c0.1,0.5,0.1,0.9,0.2,1.4c0,0.5,0,0.9,0,1.4c-0.6-1.8-1.3-3.5-2.2-5c-0.9-1.5-2-2.8-3.4-3.6c-0.7-0.4-1.4-0.6-2.1-0.8
				c-0.4-0.1-0.8-0.1-1.1-0.1c-0.4,0-0.7,0-1.1,0.1c-0.7,0.2-1.3,0.5-1.8,1c-0.3,0.2-0.5,0.5-0.8,0.8c-0.2,0.3-0.5,0.6-0.7,1
				c-0.8,1.4-1.4,3-1.8,4.7s-0.7,3.5-0.9,5.2c-0.4,3.5-0.6,7.2-0.6,10.8L516.5,332.4z"/>
			<path class="st5" d="M529.2,331.3c-1-0.2-2.1-0.1-3.1,0.2c-1,0.3-2,0.7-2.8,1.3c-0.9,0.6-1.6,1.3-2.3,2.1
				c-0.7,0.8-1.3,1.6-1.8,2.4c0,0.1-0.1,0.2-0.1,0.2l0,0v-1.6c0-0.6,0-10.9,0.1-14.9s0.1-7.9-0.1-11.9c-0.1-2-0.2-4-0.4-5.9
				c-0.2-2-0.4-4-0.8-5.9c-0.4,2-0.6,4-0.8,5.9c-0.2,2-0.3,4-0.4,5.9c-0.2,4-0.2,7.9-0.1,11.9v0.1c-0.1-0.1-0.1-0.2-0.2-0.3
				c-0.6-1.1-1.5-2.1-2.6-2.8c-1.1-0.8-2.5-1.2-3.8-1.2s-2.5,0.2-3.7,0.6s-2.3,1.1-3.2,1.9c-0.9,0.8-1.7,1.8-2.2,2.8
				c-0.6,1-1,2.1-1.3,3.2s-0.5,2.2-0.4,3.3c0.4-1,0.8-2,1.4-3c0.5-0.9,1.1-1.8,1.7-2.6c0.6-0.8,1.4-1.5,2.2-2.1
				c0.8-0.6,1.7-1,2.6-1.2c0.9-0.3,1.9-0.4,2.8-0.3c0.9,0,1.7,0.3,2.3,0.8c1.4,1,2.3,2.8,3,4.7c0.6,1.9,1,4,1.2,6.1
				c0.1,1.1,0.2,2.1,0.2,3.2c0,0.4,0.1,11.5,0.1,15.2c0,0.7,0.5,1.2,1.2,1.2l0,0c0.6,0,1.2-0.5,1.2-1.2c0-1.5,0.1-3.4,0.1-3.4
				c0.1-0.8,0.3-1.6,0.5-2.5c0.2-0.8,0.5-1.7,0.8-2.5c0.6-1.7,1.4-3.3,2.4-4.8c0.5-0.7,1.1-1.4,1.7-2s1.3-1.1,2.1-1.5
				c0.8-0.4,1.6-0.6,2.5-0.7s1.8,0,2.8,0.3C531.1,331.9,530.1,331.5,529.2,331.3z"/>
		</g>
	</g>
	<g>
		<g>
			<path class="st5" d="M532.1,326.9c0-1.2,0.1-2.3,0.3-3.4c0.2-1.1,0.4-2.3,0.7-3.4c0.3-1.1,0.7-2.2,1.1-3.3c0.4-1.1,1-2.2,1.7-3.2
				s1.4-2,2.4-2.8c0.9-0.8,2-1.5,3.3-2c1.2-0.5,2.5-0.7,3.8-0.7c0.7,0,1.4,0.1,2,0.3c0.7,0.2,1.3,0.5,1.9,0.9
				c1.2,0.7,2.1,1.7,2.8,2.7c0.7,1,1.3,2.1,1.8,3.2c1,2.2,1.6,4.5,2.1,6.8s0.8,4.6,1,6.9c0.1,1.2,0.2,2.3,0.2,3.5
				c0.1,1.2,0.1,2.3,0,3.5h-1.8c-0.1-2.2-0.3-4.5-0.5-6.7c-0.3-2.2-1.3-4.4-1.8-6.6s-1.1-4.3-1.9-6.3c-0.4-1-0.9-1.9-1.5-2.8
				c-0.6-0.8-1.3-1.6-2-2.1c-0.8-0.5-1.6-0.8-2.5-0.9c-1,0-2,0.1-2.9,0.4c-1.9,0.6-3.5,2-4.9,3.7c-1.3,1.7-2.4,3.7-3.2,5.8
				C533.3,322.5,532.6,324.7,532.1,326.9z"/>
			<path class="st5" d="M540.8,300.5c1.2-0.3,2.6-0.2,3.8,0.1c0.6,0.2,1.3,0.4,1.9,0.6c0.3,0.1,0.6,0.3,0.9,0.4
				c0.3,0.2,0.6,0.3,0.9,0.5c1.1,0.7,2.1,1.7,3,2.6c0.9,1,1.6,2.1,2.2,3.3c0.6,1.2,1.2,2.4,1.6,3.6s0.8,2.5,1.1,3.7
				c0.6,2.5,0.9,5.1,0.9,7.6l-2.5,0.2c-0.4-2.4-0.7-4.8-1.3-7.2c-0.5-2.3-1.2-4.7-2.2-6.8c-0.5-1.1-1-2.1-1.7-3.1
				c-0.6-1-1.4-1.9-2.3-2.7C545.5,302,543.3,300.8,540.8,300.5z"/>
			<path class="st5" d="M554.7,332.4c-0.1-1-0.2-1.9-0.2-2.8s-0.1-1.9,0-2.8c0-1.9,0.1-3.8,0.3-5.6c0.2-1.9,0.5-3.8,1-5.6
				c0.5-1.9,1.2-3.7,2.3-5.5c0.6-0.9,1.3-1.7,2.1-2.4c0.9-0.7,1.9-1.2,3.1-1.4c0.6-0.1,1.1-0.1,1.7-0.1c0.5,0,1.1,0.1,1.6,0.2
				c1.1,0.2,2.1,0.7,2.9,1.3c0.4,0.3,0.8,0.7,1.2,1c0.3,0.4,0.7,0.8,0.9,1.2c0.6,0.8,1,1.7,1.3,2.6s0.6,1.8,0.7,2.8
				c0.1,0.5,0.1,0.9,0.2,1.4c0,0.5,0,0.9,0,1.4c-0.6-1.8-1.3-3.5-2.2-5c-0.9-1.5-2-2.8-3.4-3.6c-0.7-0.4-1.4-0.6-2.1-0.8
				c-0.4-0.1-0.8-0.1-1.1-0.1c-0.4,0-0.7,0-1.1,0.1c-0.7,0.2-1.3,0.5-1.8,1c-0.3,0.2-0.5,0.5-0.8,0.8c-0.2,0.3-0.5,0.6-0.7,1
				c-0.8,1.4-1.4,3-1.8,4.7s-0.7,3.5-0.9,5.2c-0.4,3.5-0.6,7.2-0.6,10.8L554.7,332.4z"/>
			<path class="st5" d="M567.4,331.3c-1-0.2-2.1-0.1-3.1,0.2c-1,0.3-2,0.7-2.8,1.3c-0.9,0.6-1.6,1.3-2.3,2.1
				c-0.7,0.8-1.3,1.6-1.8,2.4c0,0.1-0.1,0.2-0.1,0.2l0,0v-1.6c0-0.6,0-10.9,0.1-14.9s0.1-7.9-0.1-11.9c-0.1-2-0.2-4-0.4-5.9
				c-0.2-2-0.4-4-0.8-5.9c-0.4,2-0.6,4-0.8,5.9c-0.2,2-0.3,4-0.4,5.9c-0.2,4-0.2,7.9-0.1,11.9v0.1c-0.1-0.1-0.1-0.2-0.2-0.3
				c-0.6-1.1-1.5-2.1-2.6-2.8c-1.1-0.8-2.5-1.2-3.8-1.2s-2.5,0.2-3.7,0.6s-2.3,1.1-3.2,1.9c-0.9,0.8-1.7,1.8-2.2,2.8
				c-0.6,1-1,2.1-1.3,3.2s-0.5,2.2-0.4,3.3c0.4-1,0.8-2,1.4-3c0.5-0.9,1.1-1.8,1.7-2.6c0.6-0.8,1.4-1.5,2.2-2.1
				c0.8-0.6,1.7-1,2.6-1.2c0.9-0.3,1.9-0.4,2.8-0.3c0.9,0,1.7,0.3,2.3,0.8c1.4,1,2.3,2.8,3,4.7c0.6,1.9,1,4,1.2,6.1
				c0.1,1.1,0.2,2.1,0.2,3.2c0,0.4,0.1,11.5,0.1,15.2c0,0.7,0.5,1.2,1.2,1.2l0,0c0.6,0,1.2-0.5,1.2-1.2c0-1.5,0.1-3.4,0.1-3.4
				c0.1-0.8,0.3-1.6,0.5-2.5c0.2-0.8,0.5-1.7,0.8-2.5c0.6-1.7,1.4-3.3,2.4-4.8c0.5-0.7,1.1-1.4,1.7-2s1.3-1.1,2.1-1.5
				c0.8-0.4,1.6-0.6,2.5-0.7s1.8,0,2.8,0.3C569.3,331.9,568.4,331.5,567.4,331.3z"/>
		</g>
	</g>
	<g>
		<g>
			<path class="st5" d="M570.3,326.9c0-1.2,0.1-2.3,0.3-3.4c0.2-1.1,0.4-2.3,0.7-3.4c0.3-1.1,0.7-2.2,1.1-3.3c0.4-1.1,1-2.2,1.7-3.2
				s1.4-2,2.4-2.8c0.9-0.8,2-1.5,3.3-2c1.2-0.5,2.5-0.7,3.8-0.7c0.7,0,1.4,0.1,2,0.3c0.7,0.2,1.3,0.5,1.9,0.9
				c1.2,0.7,2.1,1.7,2.8,2.7c0.7,1,1.3,2.1,1.8,3.2c1,2.2,1.6,4.5,2.1,6.8s0.8,4.6,1,6.9c0.1,1.2,0.2,2.3,0.2,3.5
				c0.1,1.2,0.1,2.3,0,3.5h-1.8c-0.1-2.2-0.3-4.5-0.5-6.7c-0.3-2.2-1.3-4.4-1.8-6.6s-1.1-4.3-1.9-6.3c-0.4-1-0.9-1.9-1.5-2.8
				c-0.6-0.8-1.3-1.6-2-2.1c-0.8-0.5-1.6-0.8-2.5-0.9c-1,0-2,0.1-2.9,0.4c-1.9,0.6-3.5,2-4.9,3.7c-1.3,1.7-2.4,3.7-3.2,5.8
				C571.6,322.5,570.9,324.7,570.3,326.9z"/>
			<path class="st5" d="M579,300.5c1.2-0.3,2.6-0.2,3.8,0.1c0.6,0.2,1.3,0.4,1.9,0.6c0.3,0.1,0.6,0.3,0.9,0.4
				c0.3,0.2,0.6,0.3,0.9,0.5c1.1,0.7,2.1,1.7,3,2.6c0.9,1,1.6,2.1,2.2,3.3c0.6,1.2,1.2,2.4,1.6,3.6s0.8,2.5,1.1,3.7
				c0.6,2.5,0.9,5.1,0.9,7.6l-2.5,0.2c-0.4-2.4-0.7-4.8-1.3-7.2c-0.5-2.3-1.2-4.7-2.2-6.8c-0.5-1.1-1-2.1-1.7-3.1
				c-0.6-1-1.4-1.9-2.3-2.7C583.7,302,581.6,300.8,579,300.5z"/>
			<path class="st5" d="M593,332.4c-0.1-1-0.2-1.9-0.2-2.8s-0.1-1.9,0-2.8c0-1.9,0.1-3.8,0.3-5.6c0.2-1.9,0.5-3.8,1-5.6
				c0.5-1.9,1.2-3.7,2.3-5.5c0.6-0.9,1.3-1.7,2.1-2.4c0.9-0.7,1.9-1.2,3.1-1.4c0.6-0.1,1.1-0.1,1.7-0.1c0.5,0,1.1,0.1,1.6,0.2
				c1.1,0.2,2.1,0.7,2.9,1.3c0.4,0.3,0.8,0.7,1.2,1c0.3,0.4,0.7,0.8,0.9,1.2c0.6,0.8,1,1.7,1.3,2.6s0.6,1.8,0.7,2.8
				c0.1,0.5,0.1,0.9,0.2,1.4c0,0.5,0,0.9,0,1.4c-0.6-1.8-1.3-3.5-2.2-5c-0.9-1.5-2-2.8-3.4-3.6c-0.7-0.4-1.4-0.6-2.1-0.8
				c-0.4-0.1-0.8-0.1-1.1-0.1c-0.4,0-0.7,0-1.1,0.1c-0.7,0.2-1.3,0.5-1.8,1c-0.3,0.2-0.5,0.5-0.8,0.8c-0.2,0.3-0.5,0.6-0.7,1
				c-0.8,1.4-1.4,3-1.8,4.7s-0.7,3.5-0.9,5.2c-0.4,3.5-0.6,7.2-0.6,10.8L593,332.4z"/>
			<path class="st5" d="M605.7,331.3c-1-0.2-2.1-0.1-3.1,0.2c-1,0.3-2,0.7-2.8,1.3c-0.9,0.6-1.6,1.3-2.3,2.1
				c-0.7,0.8-1.3,1.6-1.8,2.4c-0.1,0.1-0.1,0.2-0.1,0.2l0,0v-1.6c0-0.6,0-10.9,0.1-14.9s0.1-7.9-0.1-11.9c-0.1-2-0.2-4-0.4-5.9
				c-0.2-2-0.4-4-0.8-5.9c-0.4,2-0.6,4-0.8,5.9c-0.2,2-0.3,4-0.4,5.9c-0.2,4-0.2,7.9-0.1,11.9v0.1c-0.1-0.1-0.1-0.2-0.2-0.3
				c-0.6-1.1-1.5-2.1-2.6-2.8c-1.1-0.8-2.5-1.2-3.8-1.2s-2.5,0.2-3.7,0.6s-2.3,1.1-3.2,1.9c-0.9,0.8-1.7,1.8-2.2,2.8
				c-0.6,1-1,2.1-1.3,3.2s-0.5,2.2-0.4,3.3c0.4-1,0.8-2,1.4-3c0.5-0.9,1.1-1.8,1.7-2.6c0.6-0.8,1.4-1.5,2.2-2.1
				c0.8-0.6,1.7-1,2.6-1.2c0.9-0.3,1.9-0.4,2.8-0.3c0.9,0,1.7,0.3,2.3,0.8c1.4,1,2.3,2.8,3,4.7c0.6,1.9,1,4,1.2,6.1
				c0.1,1.1,0.2,2.1,0.2,3.2c0,0.4,0.1,11.5,0.1,15.2c0,0.7,0.5,1.2,1.2,1.2l0,0c0.6,0,1.2-0.5,1.2-1.2c0-1.5,0.1-3.4,0.1-3.4
				c0.1-0.8,0.3-1.6,0.5-2.5c0.2-0.8,0.5-1.7,0.8-2.5c0.6-1.7,1.4-3.3,2.4-4.8c0.5-0.7,1.1-1.4,1.7-2s1.3-1.1,2.1-1.5
				c0.8-0.4,1.6-0.6,2.5-0.7s1.8,0,2.8,0.3C607.6,331.9,606.6,331.5,605.7,331.3z"/>
		</g>
	</g>
	<path class="st5" d="M183.4,393.5c2.7-2.1,7,6.2,12.3,11s10.6,10.8,10.6,6.6s-5.4-19.3-1.8-19.7c3.6-0.4,1.2,14.6,9.4,22.6
		c8.2,7.9,18.2,15.3,23.2,21s3.8,8.2,2.1,8.4c-1.7,0.3-5.4,2.1-8.3-3.8c-2.9-5.9-15.3-17-22-20.8s-9.9-5.8-17.4-12.7
		C183.8,399.2,181.6,395,183.4,393.5z"/>
	<path class="st5" d="M368,451.8c2.2,1.2-2.6,8.4-2.6,8.4s7.6-5.3,9.1-2.5c2.2,4.2-13.5,6.8-15.3,10.2c0,0-0.3-8.2,3-12.8
		C364.6,451.6,367,451.3,368,451.8z"/>
	<path class="st2" d="M344,437.3c4.8,3.2,11.2,6.1,13.9,18.4c0,0,1-9.1,6.3-15.3s7.3-10.6,4.7-12s-6.5,3.8-7.5,9.2
		c0,0,1.7-13.7-2.3-13.5s-1.6,9.4-1.6,9.4s-4.7-13.1-9.1-10.8c-4.4,2.3,4.6,13.9,4.6,13.9s-10.9-12.4-13.8-7.3
		C337.8,431.9,340.7,435.1,344,437.3z"/>
	<path class="st12" d="M355.6,439.1c0,0,2.5,5.6,2.3,16.6l1.2,11.1"/>
	<path class="st5" d="M359.2,467.9c0,0,0-7.2-6.5-11.5s-9.4-2.2-8.8,0c0.6,2.2,4.7,4.5,4.7,4.5s-6.6-2.4-7.6,0
		c-1.4,3.5,3.9,4.4,7.9,3.8C352.8,464.2,358.6,465.9,359.2,467.9z"/>
	<g>
		<path class="st0" d="M493.6,467.1c0,0-7.1,0.1-16.4-10.9s-7.5-17.4-4.8-18.6c2.8-1.2,6.9,1.4,9.5,6.1c0,0-2-8.5,2.6-8.9
			s6,13.1,6,13.1s-2-11.9,1.5-11.5C495.6,436.8,500.2,455.6,493.6,467.1z"/>
		<path class="st12" d="M493.6,467.1c-7.1-4.9-11.1-17.6-11.1-17.6"/>
	</g>
	<g>
		<path class="st2" d="M519.4,426.2c3.9,2.6-1.9,14.5-10.3,24.9c-5.1,6.3-11.1,12.7-14,15.7c-0.7,0.7-1.9,0.3-2-0.7
			c-0.6-5.9-2-21.1-1.7-29.8c0.3-11,2.3-18.8,6.1-18.5c3.8,0.3,4,7.8,3.4,9.9c0,0,3.1-10.1,8-9c4.9,1,1,11.2,1,11.2
			S515.4,423.4,519.4,426.2z"/>
		<path class="st12" d="M505,433.6c0,0-8.9,13.4-10.9,33.5"/>
	</g>
	<g>
		<g>
			<path class="st5" d="M576.8,213.8c0.3-1.3,2.1-8,6.5-11.4c0.3-0.2,0.7-0.2,0.9,0.2c0.9,1.4,3.9,4.5,11.1-1.6
				c0.3-0.2,0.7-0.2,0.9,0.1c1.3,1.8,6.2,7.2,17,5.3c0.6-0.1,1,0.6,0.6,1c-1.8,2.1-4.8,6.5-4.1,12.6c0,0.3-0.2,0.7-0.6,0.7
				c-1.4,0.1-4.6,0.8-6.9,4.6c-3,5-19.9,7.2-25.5,0c-5.1-6.5-1-10.4-0.2-11.2C576.7,214.1,576.7,214,576.8,213.8z"/>
			<path class="st8" d="M578.5,227.1c5.2-12,17.8-11.9,17.8-11.9"/>
		</g>
		<path class="st2" d="M562.7,230.5c0,0,5.1,6.7,17.4,5.7v1.7c0,0-12.7,1.4-18.8-6.4L562.7,230.5z"/>
		<path class="st8" d="M603.5,202.6c0,0,1.5,3,0.4,5.2s-2.9-1.2-3.8-0.5c-1,0.7,0,2.4-1.3,2.8s-2.1-2.8-4-1.8s0.2,3.1-1.6,3.5
			c-1.8,0.4-3.4-3.6-5.7-2.1c-2.2,1.5-0.2,3.9-1.4,6.2s-4.5,4.7-9.3,3.7"/>
		<path class="st8" d="M596.9,243.7c0,0,3.6-0.9,4.7,1.5s0.9,3.8,2.2,3.7c1.2-0.1,0.9-3.4,3.1-3.7c2.2-0.3,1.4,3.8,3.8,3.7
			c2.4-0.1,1.6-3.1,3.4-3.4s0.9,3.2,2.4,2.9s2.7-3,2.8-5.6"/>
		<path class="st8" d="M597.5,233.2c0.5,0,4.3,1.8,8.7-0.4s3.3-4.9,5.4-5.2c2.1-0.3,2.3,1.7,2.3,1.7"/>
		<g>
			<path class="st7" d="M579.3,237.2c0.1-3-4.8-4.6-1.9-9.5c2.7-4.6,6.2-1.6,9.8-3.8c0.3-0.2,0.8-0.1,0.9,0.3
				c0.7,1.6,2.8,5.1,8.7,3.7c0.4-0.1,0.8,0.2,0.8,0.6c0.1,1.2,0.8,3.6,4.9,5c4.5,1.6,5.6,5.4,5.8,7c0.1,0.4-0.2,0.7-0.6,0.7
				c-2.5,0.2-11.7,1.5-11.9,7.9c0,0.4-0.4,0.7-0.8,0.6c-2.3-0.7-8.5-2.2-11.8,1c-0.3,0.3-0.7,0.3-0.9,0c-0.8-0.8-2.4-2.6-3.8-3.4
				c-1.9-1.2-2.4-4.5-1.2-6S579.2,238.6,579.3,237.2z"/>
			<path class="st8" d="M579.3,237.2c0,0,8.6-4.6,19.7,0.6"/>
		</g>
		<g>
			<path class="st5" d="M542.6,242.4c0.9,0.6,4,2.9,4.2,7c0,0.4,0.4,0.7,0.8,0.6c1.7-0.5,6.1-1.3,8.8,0.8c0.3,0.2,0.7,0.2,0.9-0.1
				c0.9-1.2,3.8-3.9,10.9-2.1c0.5,0.1,0.9-0.4,0.7-0.9c-0.8-1.5-1.6-4.4-0.3-9c0.1-0.3-0.1-0.6-0.4-0.8c-1.1-0.5-3.8-2.4-3.7-8.4
				c0-0.2-0.1-0.3-0.2-0.4l-7.1-8.2c-0.2-0.2-0.5-0.3-0.8-0.1l-13.9,7.3c-0.2,0.1-0.3,0.3-0.3,0.6v13.2
				C542.3,242,542.4,242.2,542.6,242.4z"/>
			<path class="st8" d="M564.5,244.6c0,0-4.2-6.3-12-8.8"/>
			<path class="st2" d="M547.6,208.9c0,0,4.6,8.2,15.1,6.7v2c0,0-11,2-16.4-7.5L547.6,208.9z"/>
		</g>
		<g>
			<path class="st7" d="M558.8,217.2c0.3-0.2-5.6-11.9,12.4-11.3c0.3,0,0.6,0.3,0.6,0.6c0,1.6,0.5,5.5,6.7,5.4
				c0.4,0,0.7,0.3,0.6,0.7c-0.3,1.4-0.6,4.5,1.4,6.7c2.4,2.8,4.7,5.6,5.4,8.9c0.1,0.4-0.2,0.8-0.7,0.7c-2.4-0.2-9.4-0.1-11.6,5.5
				c-0.2,0.4-0.6,0.5-1,0.3c-1.5-1.2-5.1-3.5-9.4-1.5c-0.4,0.2-0.8-0.1-0.9-0.5c-0.2-1.7-1.2-5.1-5.4-5.3
				C552.3,227.4,552.5,220.1,558.8,217.2z"/>
			<path class="st8" d="M558.8,217.2c0,0,8.5-3.5,17.9,4.7"/>
		</g>
		<path class="st8" d="M470.5,228c0,0-1.3,2.9,0.3,3.3s3-3.1,4.5-2.3c1.4,0.7-0.8,4.3,0.8,4.8c1.8,0.6,1.4-3.4,2.7-3.2
			c1.5,0.1,0.4,3.1,2,3.2c1.3,0.1,1.1-1.5,2.7-1.6c2.1-0.1,3.1,2,4.3,4.3"/>
		<path class="st8" d="M478.9,220.5c0,0,3.6-0.8,6.6,3.1s6.9,3.7,10.6,2.1"/>
		<path class="st8" d="M509.4,184.2c0,0-2.3,2.6-0.7,4.1c1.6,1.5,3-0.7,3.7,0s-1.3,1.9-0.5,3.2c0.7,1.3,4-1.2,4.7-0.6s-1.5,2.6,0,4
			c1.5,1.5,3.6-2.5,4.5-1.2s-1.5,3.3-0.3,5.2c1.3,1.9,6.1,1.7,6.1,1.7"/>
		<path class="st8" d="M564.6,200.6c0-0.8-2.2-2.2-3.2,0.1c-1,2.3,0.6,5.5-0.8,8.2s-5.9,3.1-6.9,1.8"/>
		<g>
			<path class="st5" d="M551.2,211.1c-0.4,2-1.7,10.5,6.3,12.7c0.5,0.1,0.6,0.8,0.2,1.1c-1.3,1.1-3.4,3.4-2.9,6.7
				c0.6,4.8,0.5,8.1-1.1,8.2c-1.6,0.2-6.5-7.6-12.9-5.8c-6.4,1.8-21.1-10.6-12.4-21.3c7.8-9.7,20-3.5,22.4-2.2
				C551.1,210.5,551.2,210.8,551.2,211.1z"/>
			<path class="st8" d="M527.4,214c0,0,13-0.4,21.9,16.2"/>
		</g>
		<path class="st8" d="M554.8,256.1c0,0,0.2,3.5-1,3.2s-0.6-2.7-1.9-3.2c-1.3-0.4-1.3,3.3-3.2,2.9s-0.4-3.2-2-3.5s-2.8,2.7-4,1.6
			c-1.2-1.1,0.3-3.8-1-4.7c-1.3-0.9-3.5,2.5-5.1,1.6s0.6-3.9-1.3-5.5s-4.9,1.6-6.5-0.3s-1.2-5.8,0-7.1"/>
		<g>
			<path class="st5" d="M502.7,250.6c0.4,0.7,6.6-0.5,10.2,4.9c0.2,0.3,0.6,0.4,0.9,0.2c1.4-1,5.7-3.5,11.3-1.9
				c0.4,0.1,0.8-0.2,0.8-0.7c-0.3-2.5-0.5-9.2,3.8-10.7c0,0-7.4-2.1-8.3-8.6c0,0-11.2-7.9-14-0.4c-0.1,0.2-0.3,0.4-0.6,0.4
				C504.4,233.8,494.4,234.3,502.7,250.6z"/>
			<path class="st8" d="M519.2,247c0,0-2.4-10.2-12.1-13.1"/>
		</g>
		<g>
			<path class="st5" d="M481,235.5c-0.6-0.2,0.6,7.2-4.1,10.3c-0.3,0.2-0.4,0.7-0.1,1c1.3,1.2,3.6,4.6,1.2,11.7
				c-0.2,0.5,0.4,1,0.9,0.8c2.6-1.3,8.4-3.3,13.9,0.4c0.3,0.2,0.7,0.1,0.9-0.2c1.1-1.6,4.7-6.2,10.3-6.6c0.3,0,0.5-0.2,0.6-0.4
				c0.8-2.2,4.4-12.6-2.2-13c-0.3,0-0.5-0.2-0.6-0.4c-0.4-1.5-2.2-6-7.6-5.2C490,234.6,486.7,237.8,481,235.5z"/>
			<path class="st8" d="M484.4,252.9c0,0,5.6-13.4,17.4-13.3"/>
		</g>
		<g>
			<path class="st7" d="M509,235.6c0.4,0.5,2.4,2.9,2.8,5.9c0,0.3,0.4,0.6,0.7,0.5c2-0.3,8.1-0.8,12,4.4c0.2,0.3,0.6,0.3,0.9,0.1
				c1.6-1.4,7.1-4.9,17.3,2.1c0.3,0.2,0.8,0.1,0.9-0.3c0.6-1.7,2-6,0.2-10.2c-1.4-3.4-1-5.3-0.6-6.3c0.2-0.4-0.1-0.8-0.5-0.9
				c-2.6-0.2-8.8-1.3-8.4-6.6c0-0.3-0.2-0.7-0.6-0.7c-2.2-0.2-9.5-1.1-10.4-6.6c-0.1-0.3-0.4-0.6-0.7-0.5
				c-3.3,0.4-18.3,2.9-13.9,18.9C508.9,235.4,509,235.5,509,235.6z"/>
			<path class="st8" d="M508.9,225.4c0,0,16.1-3.2,26.4,13.8"/>
		</g>
		<path class="st8" d="M503.2,241.9c0,0-0.9-2.7,0.8-3.9c1.7-1.2,2.7-1.4,3-2.9s-2.1-2.4-2.4-1.7c-0.3,0.7,2.7,2,4.3,0.7
			c1.7-1.3-2.6-4.3-3.3-3c-0.7,1.3,3.7,2.2,4.5,0.7s-1.7-2.3-0.9-5.1c0.6-2.1,2.8-2.9,2.8-6.8"/>
		<path class="st8" d="M520.2,222.4c0,0,3.2-0.9,5.2,0.7s1.9,4.6,4,5.7s3.5-1.1,5.3,0s0.2,3.4,1.4,4.7c1.3,1.3,2.3-1.5,3.4-0.6
			s-1,4,0.4,5.3c1.4,1.2,4-2.2,4-2.2"/>
		<g>
			<path class="st7" d="M485.4,230.1c0,0,5.5,4.9-1,14.8c0,0,16.2-4.3,23.2,0.7c0,0-1.5-8.5,5.6-10c0,0-1.8-3.3,1.7-6.8
				c3.2-3.1,0.9-9.1-5.5-8.3c0,0-1.7-4.7-7.6-2.2C496,220.9,496.5,227.3,485.4,230.1z"/>
			<path class="st8" d="M493.1,238.1c0,0,5-16.9,20.1-17.2"/>
			<path class="st8" d="M503.2,241.9c0,0-0.9-2.7,0.8-3.9c1.7-1.2,2.7-1.4,3-2.9s-2.1-2.4-2.4-1.7c-0.3,0.7,2.7,2,4.3,0.7
				c1.7-1.3-2.6-4.3-3.3-3c-0.7,1.3,3.7,2.2,4.5,0.7s-1.7-2.3-0.9-5.1c0.6-2.1,2.8-2.9,2.8-6.8"/>
		</g>
		<g>
			<path class="st5" d="M524.6,210.2c0.7-1.4,2.6-6-3.5-9.7c-0.3-0.2-0.6-0.1-0.8,0.1c-1,1.1-4.8,3.9-13.6,0.8
				c-0.3-0.1-0.7,0.1-0.8,0.4c-0.6,1.9-3.1,7.3-12.2,8.1c-0.6,0.1-0.8,0.8-0.3,1.2c3.1,1.8,8.7,6,8.5,12.1c0,0.4,0.4,0.7,0.8,0.6
				c2.7-0.9,11.2-3.2,18,0.9c0.2,0.1,0.5,0.1,0.7,0c1.8-1.1,9.7-6.7,3.3-13.7C524.6,210.8,524.5,210.5,524.6,210.2z"/>
			<path class="st8" d="M506.5,211.1c0,0,10.7-4.8,17.9-0.5"/>
		</g>
		<g>
			<path class="st7" d="M520.7,215.6c1.8-2.5,6.1-9.2,4.1-14.9c-0.1-0.4,0.1-0.8,0.5-0.8c2.6-0.2,10.4-1.4,12.3-7.3
				c0.1-0.2,0.3-0.4,0.5-0.4c1.5-0.3,7.2-1,9.5,2.7c1.3,2,0.1,4.2-0.8,5.4c-0.3,0.4,0,1,0.5,1c2.2,0.1,6.5,0.7,8.6,4.2
				c2.6,4.2-0.4,9.8-2.1,11.5c-0.2,0.2-0.5,0.2-0.7,0.1c-1.6-0.9-8.1-3.9-13.4,4.5c-0.2,0.4-0.7,0.4-1,0.1c-1.3-1.5-5.6-4.7-17.5-5
				C520.7,216.6,520.4,216,520.7,215.6z"/>
			<path class="st8" d="M529.6,210.6c0,0,5-7.9,16.4-9.4"/>
		</g>
	</g>
	<path class="st5" d="M432.5,340.7l0.6,1.2c0.3,0.5,0.9,0.7,1.4,0.3l5.1-3.7c0.4-0.3,0.5-0.8,0.3-1.2l-0.7-1.1
		c-0.3-0.5-0.9-0.6-1.4-0.3l-5.1,3.6C432.4,339.7,432.3,340.2,432.5,340.7z"/>
	<g>
		<path class="st0" d="M141.8,642.2c4-1.7,7.4,2.8,10,10.2c0,0-2.8-14.4,1.7-15.1c4.4-0.7,14.6,14.9,9.5,64.9
			c0,0-14.3-15.4-25.6-34.3s0.7-18,5.7-8C143.1,659.9,137,644.2,141.8,642.2z"/>
		<path class="st8" d="M149,657.7c0,0,12.9,19.9,13.9,44.5"/>
	</g>
	<g>
		<path class="st2" d="M166.5,717.3c0,0-7-21.7-6-36.5c0.9-13,4-14.5,6-14.1s3.8,9.4,3.5,15.1c0,0-1.8-16.2,4.9-15.2
			c6.8,1,1.3,16.3,1.3,16.3s4.6-13.1,10.5-10.7S175.7,711.2,166.5,717.3z"/>
		<path class="st8" d="M171.4,684.2c0,0-5.4,18.9-4.9,33.1"/>
	</g>
	<g>
		<path class="st0" d="M209.4,620c4.6-1.1,6.7,6.5,6.9,11.2c0,0-0.4-13.9,4.1-13.5s3.2,9.7,3.2,9.7s1-10.6,4.9-9.8s0.2,38.1-7,47.4
			C211.8,662.2,199.1,622.6,209.4,620z"/>
		<path class="st8" d="M219.6,629.9c0,0,3.5,14.7,1.9,35.1"/>
	</g>
	<g>
		<path class="st2" d="M161.4,722.6c0,0-5.3-12.3-20.5-19.7c-15.3-7.3-18.2-15.9-14.4-18.6c4.1-2.9,15,4.2,18.5,9.2
			c0,0-11.1-15.4-5.9-18.8c5.3-3.5,13.5,13.5,13.5,13.5s-6.5-13.5-1.2-15.2c5.3-1.8,16.7,27.7,17.3,45.4
			C169.3,736.1,163.7,727.4,161.4,722.6z"/>
		<path class="st8" d="M149,693.7c0.9,0.2,14.6,10,16.7,35"/>
	</g>
	<g>
		<path class="st5" d="M168,716.9c0,0-7.4-1.7-9.7,4.7s2.3,11.7,12.4,14.1c10.1,2.3,18.1,4,28.9,7.7c18,6.3,32.5,3,45.3,3.4
			c12.7,0.3,26.8,2.7,43.6-3.4c16.8-6,28.5-7.7,26.2-20.5c-2.3-12.7-18.1-17.4-17.8-31.9c0.3-14.4,1.7-20.5-4-24.8
			c-5.7-4.4-13.2,0.8-13.2,0.8s7.6-17.5-1.9-30.4c-7.7-10.5-29.6-12.1-32.4,4.2c-2.4-3.3-11.8-5.7-14.2,6.3c0,0-13-3.7-21,8.3
			c-8.1,12.2-0.6,27.4-0.6,27.4S178.2,676.6,168,716.9z"/>
		<path class="st4" d="M231.2,647.1c0,0,4,1.2,4.5,5.3"/>
		<path class="st4" d="M245.3,640.9c0,0,2.5,2.5,1.4,7.7"/>
		<path class="st4" d="M229.1,701.2c-4.4-16.4-19.5-18.4-19.5-18.4"/>
		<path class="st4" d="M221.7,724.5c0,0-3.3-15.9,5.5-22.2s20.8,0.2,20.8,11.9"/>
		<path class="st4" d="M279.6,667c0,0-2.9,7.9-6.1,11.4"/>
		<path class="st9" d="M262.6,671.6c2.4,1.1,1.4,12.3-2.1,17.6s-7.3,3-8.1-1.7C251.6,681.8,257.8,669.3,262.6,671.6z"/>
		<circle class="st9" cx="268.5" cy="661" r="1.9"/>
	</g>
	<g>
		<g>
			<path class="st2" d="M306.9,721.9c0,0-10.7-11.9-14.9-21.2s-4.4-18.8,0-20.5s7,8.2,7,8.2s-0.5-12.6,5-13.3s6.3,11.6,6.3,11.6
				s0.7-11.9,7.8-10C325.2,678.5,317.9,707.4,306.9,721.9z"/>
			<path class="st2" d="M304,690.2c0,0,5.1,16.5,2.9,31.7"/>
		</g>
		<path class="st0" d="M334.6,705.7c3.9,3.3-4.9,21.2-10.8,29.4c-5.9,8.2-13.1,13.8-19.2,15.6c-6.1,1.8-3-25.6,0-35.7
			c3-10.1,7.6-19.2,11.4-18c3.9,1.2-1,11.3-1,11.3s4.9-14.5,10.3-12.6c5.4,1.8-4.2,19.3-4.2,19.3S330.6,702.3,334.6,705.7z"/>
		<path class="st4" d="M318.5,716.8c-4.2,5.3-13,20.9-13.8,33.9"/>
		<g>
			<path class="st2" d="M285.6,741.3c5.6,5,13.4,8.1,16.7,9.3c1,0.3,2-0.1,2.5-1c5.6-10.8,3.7-31.9,0.7-40.4
				c-2.3-6.4-6.6-10.6-9.7-8.1c-2.1,1.7,0.5,14.9,0.5,14.9s-3.4-12.4-9.1-10.1c-5.7,2.4,2.7,16.5,2.7,16.5s-8.4-9-13.1-4.8
				C272.1,721.9,276.4,733,285.6,741.3z"/>
			<path class="st2" d="M294,725.1c0,0,12.4,12.7,10,25.4"/>
		</g>
	</g>
</g>
</svg>
