<?xml version="1.0" encoding="utf-8"?>
<!-- Generator: Adobe Illustrator 22.1.0, SVG Export Plug-In . SVG Version: 6.00 Build 0)  -->
<svg version="1.1" id="圖層_1" xmlns="http://www.w3.org/2000/svg" xmlns:xlink="http://www.w3.org/1999/xlink" x="0px" y="0px"
	 viewBox="0 0 684.6 1017.5" style="enable-background:new 0 0 684.6 1017.5;" xml:space="preserve">
<style type="text/css">
	.st0{fill:#F98A10;stroke:#000000;stroke-width:0.43;stroke-miterlimit:10;}
	.st1{fill:#95CEC7;stroke:#000000;stroke-width:0.43;stroke-miterlimit:10;}
	.st2{fill:#F7B42F;stroke:#000000;stroke-width:0.43;stroke-miterlimit:10;}
	.st3{fill:none;stroke:#000000;stroke-width:0.43;stroke-miterlimit:10;}
	.st4{fill:#FFE7BD;stroke:#000000;stroke-width:0.43;stroke-miterlimit:10;}
	.st5{fill:#FFFFFF;stroke:#000000;stroke-width:0.43;stroke-miterlimit:10;}
	.st6{opacity:0;fill:#F98A10;stroke:#000000;stroke-width:0.43;stroke-miterlimit:10;}
	.st7{opacity:0;fill:#FFE7BD;stroke:#000000;stroke-width:0.43;stroke-miterlimit:10;}
	.st8{fill:#B4C834;stroke:#000000;stroke-width:0.43;stroke-miterlimit:10;}
	.st9{fill:none;stroke:#000000;stroke-width:0.43;stroke-linejoin:round;stroke-miterlimit:10;}
	.st10{opacity:0;fill:none;stroke:#000000;stroke-width:0.43;stroke-miterlimit:10;}
	.st11{fill:#FFBA31;stroke:#000000;stroke-width:0.43;stroke-miterlimit:10;}
</style>
<g>
	<path class="st0" d="M72.6,731.7c0,0,21.5,102.6,101.9,113.1s114.7,33.9,133.8,81.8c17.1,42.8,46.4,38,68.1-7.7
		c9.9-20.9,33.1-23.2,49-18.4s55.9,8.5,87.7-38.5c31.8-47,58.5-133.3,58.5-133.3l-117.5-39.2L72.6,731.7z"/>
	<g>
		<path class="st1" d="M145.6,598.1c-10.3-10.8-26.3-14-39.3-14.6c-18.8,22-34.2,50.7-37.8,90.3c-1.2,13.2-1.2,25.9,0.1,37.9
			c15.5-3.1,34-8.4,51.8-17.2C163.5,673,167.8,621.3,145.6,598.1z"/>
		<g>
			<g>
				<path class="st2" d="M168.3,637.3c-5.7,1.5-9.1,7.2-7.9,12.8l-2,0.5c-1.8-5.5-7.6-8.7-13.2-7.2s-9.1,7.2-7.9,12.8l-2,0.5
					c-1.8-5.5-7.6-8.7-13.2-7.2c-5.8,1.6-9.3,7.5-7.8,13.4c1.6,5.8,7.5,9.3,13.4,7.8c5.5-1.5,8.9-6.9,8-12.5l2-0.5
					c1.9,5.3,7.6,8.3,13.1,6.9c5.5-1.5,8.9-6.9,8-12.5l2-0.5c1.9,5.3,7.6,8.3,13.1,6.9c5.8-1.6,9.3-7.5,7.8-13.4
					C180.1,639.2,174.1,635.8,168.3,637.3z"/>
				<g>
					<path class="st2" d="M125.7,655.2c0.4,0.1,1.2,0.8,1.4,1.5"/>
					<path class="st2" d="M126.2,654.2c0.4,0,1.3,0.6,1.6,1.3"/>
				</g>
				<g>
					<path class="st2" d="M151.9,648.5c0.4,0.1,1.2,0.8,1.4,1.5"/>
					<path class="st2" d="M152.4,647.5c0.4,0,1.3,0.6,1.6,1.3"/>
				</g>
				<g>
					<path class="st2" d="M173.8,642.3c0.4,0.1,1.2,0.8,1.4,1.5"/>
					<path class="st2" d="M174.3,641.3c0.4,0,1.3,0.6,1.6,1.3"/>
				</g>
			</g>
		</g>
		<path class="st3" d="M101.1,655.8c0,0,6.5,8.3,6.1,23.4c-0.3,14.1,5.1,40.1,21.4,49.7"/>
		<path class="st3" d="M72.6,691.4c0,0,2.8,22.7,28.5,32"/>
		<path class="st3" d="M148,640c0,0,2.3,15.5-5.8,30.5c-13.8,25.5-2.2,74.8-2.2,74.8"/>
		<g>
			<g>
				<path class="st2" d="M161.7,683.2c-0.6-5.5-5.6-9.5-11.1-8.8c-5.3,0.6-9.2,5.3-8.9,10.6l-1.8,0.2c0-0.2-0.1-0.3-0.1-0.5
					c0,0,0-0.1,0-0.1c-0.1-0.3-0.1-0.6-0.2-0.8c0-0.1,0-0.1-0.1-0.2c-0.1-0.2-0.2-0.5-0.3-0.7c0-0.1-0.1-0.2-0.1-0.3
					c-0.1-0.2-0.2-0.4-0.3-0.5c-0.1-0.1-0.1-0.2-0.2-0.4c-0.1-0.1-0.2-0.3-0.2-0.4c-0.1-0.1-0.2-0.3-0.3-0.4
					c-0.1-0.1-0.1-0.2-0.2-0.3c-0.1-0.2-0.3-0.3-0.4-0.5c0,0-0.1-0.1-0.1-0.1c-0.2-0.2-0.4-0.4-0.6-0.6c0,0,0,0,0,0
					c-2.1-1.9-4.9-2.9-7.9-2.6c-5.3,0.6-9.2,5.3-8.9,10.6l-1.8,0.2c-0.4-2.3-1.5-4.3-3.1-5.7c-2.1-1.9-4.9-2.9-7.9-2.6
					c-5.3,0.6-9.2,5.3-8.9,10.6l-1.8,0.2c-0.8-5.2-5.7-8.9-11-8.3c-5.5,0.6-9.5,5.6-8.8,11.1c0.6,5.5,5.6,9.5,11.1,8.8
					c5.2-0.6,9-5.1,8.9-10.2l1.9-0.2c0.1,0.7,0.4,1.4,0.7,2.1c0,0,0,0,0,0c0.1,0.3,0.3,0.5,0.4,0.8c0,0.1,0.1,0.1,0.1,0.2
					c0.1,0.2,0.2,0.4,0.4,0.6c0.1,0.1,0.1,0.2,0.2,0.3c0.1,0.1,0.2,0.3,0.3,0.4c0.1,0.1,0.2,0.2,0.3,0.4c0.1,0.1,0.2,0.2,0.3,0.3
					c0.1,0.1,0.3,0.3,0.4,0.4c0.1,0.1,0.1,0.1,0.2,0.2c0.2,0.2,0.4,0.3,0.6,0.4c0,0,0.1,0.1,0.1,0.1c2,1.4,4.4,2.2,7,1.9
					c5.2-0.6,9-5.1,8.9-10.2l1.9-0.2c0.4,2.2,1.6,4.1,3.2,5.5c2,1.8,4.8,2.8,7.8,2.5c5.2-0.6,9-5.1,8.9-10.2l1.9-0.2
					c0.9,4.4,4.5,7.6,8.9,8c3.8-1.9,7.3-4,10.2-6.2C161.6,686.5,161.9,684.9,161.7,683.2z M90.8,689.9c0.2-0.8-0.3-2.1-0.7-2.3
					C90.5,687.9,91,689.1,90.8,689.9z M91.2,686.9c0.4,0.2,1,1.4,1,2.2C92.3,688.3,91.7,687.1,91.2,686.9z M112.3,687.6
					c0.2-0.8-0.3-2.1-0.7-2.3C112,685.6,112.5,686.8,112.3,687.6z M112.8,684.5c0.4,0.2,1,1.4,1,2.2
					C113.8,686,113.2,684.8,112.8,684.5z M134.4,685.2c0.2-0.8-0.3-2.1-0.7-2.3C134.2,683.2,134.6,684.4,134.4,685.2z M134.9,682.2
					c0.4,0.2,1,1.4,1,2.2C135.9,683.6,135.3,682.4,134.9,682.2z M156.4,682.9c0.2-0.8-0.3-2.1-0.7-2.3
					C156.2,680.8,156.6,682.1,156.4,682.9z M156.9,679.8c0.4,0.2,1,1.4,1,2.2C157.9,681.2,157.3,680,156.9,679.8z"/>
			</g>
		</g>
		<path class="st4" d="M508.5,494c-34.4-54-127-78-194.2-78.8c-41.7-0.5-82.5,4.7-111.2,40.8c-20,25.2-5.5,53.2-35.6,75.4
			c-17.6,13-41.4,28.7-61.3,52.1c13,0.6,29,3.9,39.3,14.6c22.3,23.2,17.9,74.9-25.3,96.4c-17.8,8.8-36.2,14.1-51.8,17.2
			c6.6,62.2,68.6,114,152.4,117.4c77,3.2,75.7-52.6,184.7-34c96,16.4,173.6-20.4,175.6-116.4C583.2,583.5,510,560,508.5,494z"/>
	</g>
	<path class="st1" d="M289.2,430.4c0,0,6.5,30.9,52.4,60c68.9,43.5,151.3,63.7,165,141.3c13.7,77.6-87.8,103-124.5,112
		c-36.7,9-99,24.6-111.6,92.5c-12.6,68-6.3,131.1-8.7,154c-1.8,17.3-14.6,12.1-16.1-7c-1.7-20.6-13.3-16.3-17.6-5.3
		c-7,18.1-17.1,8.2-17.7-6.3c-0.3-7.9-2.8-52-6.5-73.1c-3.7-21.2-9.2-34-18.3-34.6s-13.4,8.6-16.4,15.2c-2.9,6.7-9.7,13.6-12,2.1
		s-2-34.9-17.3-34.5c-15.3,0.3-13.7,33.3-29,34.1s-20-66.6-13.9-100.5c6.8-38.1,37.7-72.4,113.3-89.7
		c66.1-15.1,139.8-24.4,161.2-50.8c16.8-20.7,9.6-47.6-14-67.4C334,552.7,248.1,525,275,419.2L289.2,430.4z"/>
	<path class="st5" d="M158.7,784.8c4-14.6,15.8-25.2,20.2-22.5c2.9,1.8-3.3,7-1.1,8.8c3,2.4,11-7.7,15.8-5.2
		c5.4,2.9-10.1,14.4-15.2,38.7s-2.1,35.1-7.3,35.1c-3.7,0-3.3-22.2-1.9-31.3c1.4-9.2,0.9-19-2.7-15.4c-4.9,4.9-3.8,24.8-7.8,24.8
		C154.8,817.9,156.1,794.6,158.7,784.8z"/>
	<path class="st5" d="M130.6,803.5c4.3,0.9,0.6,26.1-4.8,25.9C120.5,829.2,126.3,802.6,130.6,803.5z"/>
	<path class="st5" d="M242.2,837.5c8,0.9,2.1,27.9,1.2,40.4c-0.9,12.6-5,29.2-10.1,27.4c-2.8-1-1.6-6.3-2-18.9
		S234.6,836.6,242.2,837.5z"/>
	<path class="st5" d="M212.4,839.7c-5.4-0.3,1.2-22.1,3.9-28.6c2.6-6.5,15.9-28.9,22.6-24.6c6.7,4.3-5.3,14.2-9.8,20.5
		c-4.5,6.3-5.5,14.8-8.1,22.1C218.3,836.5,215.8,839.9,212.4,839.7z"/>
	<path class="st5" d="M254.4,813.7c3,1.4-4.1,16.9-8.1,15.2C242.5,827.3,251.4,812.3,254.4,813.7z"/>
	<path class="st5" d="M131.6,756.8c3.1-6.8,11.8-21.7,25.9-25.3c14.2-3.6,24.5-12.6,28-8.5s-15.2,13-24.3,18.2
		c-9.1,5.3-16.2,13.4-23.3,21.7C130.8,771.2,124.7,771.8,131.6,756.8z"/>
	<path class="st5" d="M231.7,738.3c-3.1-4.9,13.2-15,27.8-20.2c16.6-5.9,24.7-10.4,38.1-14.7c13.4-4.3,29-4.8,29.8-1.8
		c0.8,3-4.7,6.1-1.4,8.5c3.2,2.4,10.5-1.3,11.2,3.2c0.6,4.5-19.1,12-43.2,21.1c-24.1,9.1-34.7,17.2-36.4,11.2
		c-1.7-6.1,24.7-14.4,23.4-19.5c-1.2-5.1-27.4,4.9-34.3,8.7C239.8,738.7,233.3,740.9,231.7,738.3z"/>
	<path class="st5" d="M360.7,732.8c4.9,4-6.8,11.8-13.6,12.4c-6.8,0.6-8.9-1.9-4-5.3C348,736.5,357.5,730.2,360.7,732.8z"/>
	<path class="st5" d="M370.2,714.8c-2-3,5.6-7.7,10.9-9.9c5.3-2.2,12.1-5.3,13.3-2.2c1.2,3.1-8.4,9.3-13.3,10.6
		C376.2,714.7,371.3,716.5,370.2,714.8z"/>
	<path class="st5" d="M338.9,688c-3.3-3.6,6.3-9.6,20.2-16c17.3-8.1,24.3-26.5,33.8-19.9s20.3,4.8,36.9,1.6
		c16.6-3.3-26.1,23.3-42,26.1c-15.9,2.8-21.2,13.7-25.9,9.8c-4.7-3.9,10.5-9.9,8-12.8C365.9,671.9,343.4,692.8,338.9,688z"/>
	<path class="st5" d="M360.9,552.4c2.1-5,11.5,0,14.2,3.6c2.7,3.6,1.8,8,6,13.6c4.2,5.6,1.1,7.4-4.2,2.5
		C371.5,567.1,358.8,557.5,360.9,552.4z"/>
	<path class="st5" d="M352.6,508.5c1.1-3.5,9.3,2.1,10.3,5.9c1,3.8-1.2,3.8-5.1,1.2C353.8,513,351.7,511.2,352.6,508.5z"/>
	<path class="st5" d="M443.5,569.9c2.7-4.3,11.9,4.6,18.4,13.5c6.5,8.9,6.9,12,3.8,13.9c0,0,4.1,10.1,0,11.8s-4.2-11.6-11.4-22.1
		C447.3,576.8,441.5,573.2,443.5,569.9z"/>
	<path class="st6" d="M396.4,846.1c0,0-4.5-0.7-6.4,3.5s-2.1,5.4-7.6,6.4"/>
	<path class="st7" d="M308.2,861.3c1.9-2.2,7.5,5.3,5.6,10.2C311.9,876.4,305.3,864.7,308.2,861.3z"/>
	<path class="st6" d="M309.1,824.9c0,0,3.6,0.6,3.8,4.4c0,0,3,0.2,2.8,5"/>
	<g>
		<path class="st4" d="M282.3,343.2c0,0,14.9,16.8,10.5,49.8c-4.4,33.1-27.1,68.3-27.1,68.3s73.3,41.3,121.6-1.5
			c0,0-12.9-20-19-67.4c-6.1-47.4-1.3-53.6,12.7-58.9c17.3-6.6,45.2-25,62.9-52l-27.1-12.8c0,0-15.4,38.9-55.1,52.1
			s-62.8-7.6-62.8-7.6L282.3,343.2z"/>
		<g>
			<path class="st0" d="M397.4,308.1c0-3.9,6.3-5.7,10.2-1.2c0,0-0.2,3.8-4.6,4.8C399.6,312.4,397.4,310,397.4,308.1z"/>
			<path class="st3" d="M400.3,308.3c0,0,4.4,0.7,7.2-1.5"/>
			<path class="st0" d="M409,317.6c0,0,1.1,4.6,4.8,5.8c3.6,1.2,7.5-1.6,5.8-5.1C417.8,314.1,410.9,315.2,409,317.6z"/>
			<path class="st3" d="M409,317.6c0,0,2.5,3.5,7.8,2.7"/>
			<g>
				<path class="st4" d="M408.8,288.6c0,0-2.3,21.8,1.8,41.5"/>
				<path class="st2" d="M409.1,330.4c-4.1-19.7-1.9-41.1-1.8-42l3.2,0.3c0,0.2-2.3,21.8,1.8,41L409.1,330.4z"/>
			</g>
			<g>
				<path class="st4" d="M410,327.1c0,0-4.2,2.4-3.7,7.9c0.5,5.4,7.2,5.6,8.1,1.2C415.6,330.4,410,327.1,410,327.1z"/>
				<path class="st4" d="M410,327.1c0,0-0.8,4.8,0.8,9.1"/>
			</g>
		</g>
		<path class="st0" d="M302,50.3c1.5-7.7-2.8-15-9.7-16.4c-2.4-0.5-4.8-0.2-7,0.8c-1.7-6.9-8-12-15.4-12c-8.7,0-15.8,7-15.9,15.7
			c-2.5-2.1-5.6-3.3-9.1-3.3c-7.8,0-14.1,6.3-14.1,14.1c0,3,1,5.8,2.6,8.1c-4.5,2.1-7.6,6.4-7.6,11.3c0,6.9,6.1,12.5,13.8,12.7
			c3.2,14.8,15.6,25.9,30.4,25.9c17.2,0,31.2-15.1,31.2-33.6c0-5.6-1.3-10.8-3.5-15.4C299.8,56.2,301.3,53.5,302,50.3z"/>
		<path class="st8" d="M256.8,59.1c1.3-1.3,7.6,7.8,10.8,11.6c2.7,3.2,1.7-7,4.8-12.6c0.5-0.9,1.8-0.7,2,0.3
			c0.2,1.2-0.3,4.1-1.2,7.5c-1.9,6.9,1.3,14.6,5,17.1l-2.9,1.8C275.2,84.7,253.6,62.2,256.8,59.1z"/>
		<path class="st0" d="M513.9,127.7c0-17.5-16.5-31.8-37.2-32.4c0.2-0.8,0.4-1.6,0.6-2.4c3.4-18.5-9.7-36.4-29.3-40
			c-6.6-1.2-13-0.7-18.8,1.3c-3.3-19.6-18.8-35.2-39-37.2c-13-1.3-25.3,3.4-34.3,11.9c-5.4-2.4-11.5-3.7-17.8-3.7
			c-24.5,0-44.3,19.9-44.3,44.3c0,12.5,5.1,23.7,13.4,31.8c-10.9,7.4-17.4,16.5-17.4,26.4c0,24.6,40,44.6,89.4,44.6
			c30.2,0,56.8-7.5,73-18.9c4.2,2.7,9.1,4.7,14.4,5.8c0,0.3-0.1,0.6-0.1,0.9c0,10.1,9.7,18.3,21.7,18.3c12,0,21.7-8.2,21.7-18.3
			c0-4.4-1.9-8.4-4.9-11.6C510.5,142.8,513.9,135.6,513.9,127.7z"/>
		<path class="st8" d="M418.2,99.5c4,0.5-4,29,1,30.4s24.6-8.6,26.5-3.2c2,5.5-27.5,2.8-29.2,14.3h-5.8
			C410.7,141,412.9,98.8,418.2,99.5z"/>
		<path class="st4" d="M412.6,117.8c0,0-7.8-0.2-10.5-5.9c-2.7-5.9,1.5-8.1,5.2-6.7C410.3,106.4,413.9,111.5,412.6,117.8z"/>
		<path class="st4" d="M406.2,109.6c0,0,4.4,2.3,6.3,8.2"/>
		<path class="st4" d="M430.2,127.5c0,0-0.9-7.4,3.2-10.4c4.3-3.1,7.8,0.7,7.1,3.5C439.9,123.4,437.2,126.3,430.2,127.5z"/>
		<path class="st4" d="M436.4,119.1c0,0-4.7,2.7-6.2,8.3"/>
		<path class="st0" d="M545.3,229.5c-2.6-2.4-5.4-4.4-8.4-5.9c10.5-16.9,9.2-38-4.3-50.4c-13.9-12.8-36-11.9-52.2,1.1
			c-2-5.2-5.1-10-9.4-14c-15.8-14.5-41.4-12.4-57.2,4.8c-11.2,12.2-14.5,28.6-9.8,42.3c-8.2-5.2-17.9-8.2-28.3-8.2
			c-29.2,0-52.8,23.6-52.8,52.8c0,29.2,23.6,52.8,52.8,52.8c12.1,0,23.3-4.1,32.2-10.9c8.4,10.5,20.7,17.7,34.7,19.4
			c8.4,16.1,29.5,27.5,54.1,27.5c32.1,0,58.1-19.3,58.1-43.1c0-5.7-1.5-11.2-4.3-16.2C562,265.4,560,243.1,545.3,229.5z"/>
		<g>
			<path class="st4" d="M365.3,264.3c0,0-4.3-3.3-2.4-8.1c2-5.1,9.5-4.7,11.2,0c1.5,4.3-0.5,7.4-3.5,8.9S365.3,264.3,365.3,264.3z"
				/>
			<g>
				<path class="st4" d="M378.4,266.1c0,0-4.2,4.3-2,8.5s9.3,4.6,11.4-0.5c2.1-5.2-4.1-9.2-4.1-9.2L378.4,266.1z"/>
				<path class="st4" d="M382,272.8c0,0,1-4.5-1.5-7.2"/>
			</g>
			<path class="st4" d="M368.4,257.4c0,0-1.8,4.2-0.4,8.1"/>
			<path class="st4" d="M390.8,262.2c0,0-5.8-1.1-6-6.6c-0.2-5.5,6.5-7,9.4-3.1c2.9,3.9,0,8.9,0,8.9L390.8,262.2z"/>
			<path class="st4" d="M388.2,254.5c0,0,3.2,2.2,4,7.4"/>
			<path class="st4" d="M401.3,256.3c0,0,0,3.8,3.7,5.2s6.5-1.6,5.4-4.7c-0.8-2.3-3.6-3.3-6.4-3.1L401.3,256.3z"/>
			<path class="st4" d="M407.7,259c0,0-0.8-3.1-5.2-3.9"/>
			<path class="st4" d="M408.1,247.2c0,0,0.3,4.9,5.1,5.9s6.4-4.8,3.4-6.8c-2.9-2-6.9-1.1-6.9-1.1L408.1,247.2z"/>
			<path class="st4" d="M414.6,249.5c0,0-1.9-2.7-5.9-3.1"/>
			<path class="st4" d="M413.1,239c0,0-4.5,1.5-7.2-1.1c-2.7-2.6-1.6-7.7,3.1-7.7c5.2,0,6,5.8,6,5.8L413.1,239z"/>
			<path class="st4" d="M408.7,233.6c0,0,3.3,0.8,5.2,4.1"/>
			<g>
				<path class="st2" d="M374.3,267.7c-10.5,0-17.8-3.6-22.3-6.9c-5.8-4.3-8.4-8.9-8.5-9.1l2.8-1.5c0.4,0.7,9.5,17,33.6,14
					c13-1.6,25.3-11,31.3-24c5.8-12.6,4.8-26.3-2.8-37.7l2.7-1.8c8.2,12.3,9.3,27.2,3,40.8c-6.4,13.9-19.7,24.1-33.8,25.8
					C378.2,267.6,376.2,267.7,374.3,267.7z"/>
			</g>
		</g>
		<path class="st8" d="M432.8,168c0-19-15-34.5-33.9-35.3c0.5-2.3,0.7-4.6,0.7-7c0-19.5-15.8-35.3-35.3-35.3
			c-6.5,0-12.6,1.8-17.8,4.8c-4.6-18.7-21.5-32.6-41.6-32.6c-17.6,0-32.7,10.6-39.3,25.7c-25.7-18-60.2-13.7-77.6,10
			c-7.9,10.7-11,23.5-9.7,36.1c-3.8-1.1-7.7-1.7-11.8-1.7c-23.7,0-42.9,19.2-42.9,42.9s19.2,42.9,42.9,42.9c7,0,13.5-1.7,19.4-4.6
			c1.2,16.3,9.6,32.5,24.4,43.4c25.8,19,61.1,15,78.8-9.1c1.1-1.5,2.1-3,3-4.6c9.2,9.8,22.3,15.9,36.8,15.9
			c18.6,0,34.8-10,43.6-24.9c5,2.7,10.7,4.2,16.8,4.2c19.5,0,35.3-15.8,35.3-35.3c0-3.8-0.6-7.5-1.7-10.9
			C429.1,186.1,432.8,177.5,432.8,168z"/>
		<path class="st0" d="M361.3,71.8c0,0,0.7-6,5.5-6.9s6.7,4.6,6.7,4.6s2.3-5.7,8.1-5.7c6.7,0,12,5.9,10.2,14"/>
		<path class="st4" d="M204.6,374.5c0,0-7.3,2-6.8,7.2c0.5,4.8,7.1,4.8,8-0.7C206.6,377,204.6,374.5,204.6,374.5z"/>
		<path class="st4" d="M199.9,352c0,0-14.1,2.8-7.4,15c0,0,5.2,1.4,8-4.5C203,357.3,199.9,352,199.9,352z"/>
		<path class="st4" d="M197.1,356.7c0,0-4.1,3.7-4.6,10.2"/>
		<path class="st4" d="M201.5,381c0.5-0.4,2.6-2.3,3.2-6.5"/>
		<path class="st4" d="M213.3,376.6c0,0-3.5-5.1,0-8.7c3.3-3.4,8.1-0.1,6.6,3.7C218.3,375.4,213.3,376.6,213.3,376.6z"/>
		<path class="st4" d="M216,369.3c0,0-2.2,1.7-2.7,7.3"/>
		<path class="st4" d="M282,375.6c0,0-6.2-0.9-5.3-7.9c0.8-6,8.3-5.5,9.3-0.6C286.8,371.4,284.8,374.7,282,375.6z"/>
		<path class="st4" d="M281.3,367.4c0,0,1.4,5.4,0.7,8.2"/>
		<path class="st0" d="M305.9,369.4c0,0-1.6,8.8,5.3,9.8s8.4-9,0-11.9L305.9,369.4z"/>
		<path class="st3" d="M312.2,375.6c0,0-3-1.7-3.7-7.1"/>
		<path class="st3" d="M356.8,340.8c0,0-3.7,13-1.4,30.7"/>
		<path class="st3" d="M349.6,348c0,0-0.8,7.1,1.1,12.5"/>
		<path class="st3" d="M303,387.9c0,0-0.2,15.9-4.5,26.8"/>
		<path class="st3" d="M299.3,392.6c0,0-0.4,7.2-2.7,12.9"/>
		<path class="st3" d="M365.9,421.8c0,0,2.4,14.5,7.3,19.9"/>
		<path class="st3" d="M348.7,394.6c0,0-0.7,11.6,2,17.9"/>
		<path class="st3" d="M345.6,392.6c0,0-0.7,8.8,0,11.8"/>
		<path class="st0" d="M312.2,362.1c0,0-3.5-1.9-3.7-6s4.9-5.2,6.9-2.8c2,2.4,1.7,5.8,1.7,5.8L312.2,362.1z"/>
		<path class="st3" d="M312.2,356.1c0,0,2.6,2.2,2.1,5.1"/>
		<path class="st0" d="M330.4,344.5c0.5-5.8-4.2-7.1-6.3-6.8c-2.9,0.4-5.3,3.1-4.3,7.1c1.1,4.8,5.3,4.4,5.3,4.4L330.4,344.5z"/>
		<path class="st3" d="M324.3,342.5c0,0,1.5,3.4,3.7,4.1"/>
		<path class="st0" d="M251.7,125.8c0.6-1,5.5-9.3,10.2-11.3c0.5-0.2,1.2,0,1.5,0.4l0,0c0.4,0.5,0.3,1.3-0.2,1.7
			c-1.9,1.6-6.1,5.8-8.4,12.8L251.7,125.8z"/>
		<path class="st0" d="M244,110.6c2.6-0.6,8.3,17.6,20,24.2c0,0-7.9,5.3-8.2,4.5C255.5,138.6,240.7,111.4,244,110.6z"/>
		<path class="st0" d="M230.9,128.2c0.3-2.4,12.7,1.5,16.8,5.4c0,0-2.3,3.9-3,3.1C240.8,132.1,230.6,130.8,230.9,128.2z"/>
		<path class="st4" d="M246.5,120.4c0,0-1.9,4.3-7.2,3.7c-5.3-0.7-6.5-5.8-3.1-8C239.6,113.9,244.9,117,246.5,120.4z"/>
		<path class="st4" d="M238.2,119.8c0,0,4.3-1.4,8.2,0.6"/>
		<path class="st0" d="M331.7,179.9c0,0,1.7-8.4,5.1-17.4c2.9-7.8,5.8-12.4,7.6-10.8c1.8,1.7-10.3,22-9.4,36.2L331.7,179.9z"/>
		<path class="st4" d="M339.7,167.6c0,0,4.6,2,8.6-1.3c3.8-3.2-0.4-6.6-4-5.1C339.7,163.2,339.7,167.6,339.7,167.6z"/>
		<path class="st4" d="M347.1,163.2c0,0-4.3,0.3-7.4,4.4"/>
		<path class="st4" d="M326.9,165.1c2.4-1.3,9.1,0.9,6.7,10.9c0,0-4.4-0.1-7.3-4.3C324.4,169,325,166.1,326.9,165.1z"/>
		<path class="st4" d="M329.6,168.8c0,0,3,2.4,4,7.2"/>
		<g>
			<path class="st8" d="M501.7,186.2c2.4,0.7-4.9,20.7-2.6,21.9c2.2,1.2,12.2-6.5,14.1-3.2c1.9,3.2-17.1,4-15.3,20.2h-5.3
				C492.6,225.1,496.9,184.8,501.7,186.2z"/>
			<path class="st4" d="M490,184.1c2.1-2.7,7.9-2.8,9,3.6c1,5.4-0.4,9.1-3.2,8C493.1,194.6,486.6,188.5,490,184.1z"/>
			<path class="st4" d="M494.3,186.7c0,0,3.1,4.5,3.1,9.1"/>
			<path class="st4" d="M507,206c0,0-1.9-3.6,0-8c2-4.5,6.9-4,7.5-0.7C515,200.6,510.5,204.9,507,206z"/>
			<path class="st4" d="M510.9,197.3c0,0-2.8,3.1-3.9,8.6"/>
		</g>
		<path class="st8" d="M236.9,150c0,0-1.2-10,7-16.7c7-5.8,14.5-0.6,14.3,2.8c0,0,1.9-14.9,17.5-17.9c14.1-2.7,22.1,13.2,15.3,22.5"
			/>
		<path class="st8" d="M303.7,189.2c0,0-2.6-9.8,5-12.7c7.7-2.9,11.5,7.9,11.5,7.9s1.7-8.4,9.6-8.4c7.9,0,11,9.8,12.2,13.2"/>
		<path class="st0" d="M443.9,266.8c0,0,2.3-17,15.5-18.3c14-1.4,16.2,15.6,16.2,15.6"/>
		<path class="st0" d="M467.6,268.8c0,0,10.6-9.7,22-5.4c10.6,4,5.4,21.2-2.6,25.1"/>
		<path class="st0" d="M484.3,222.4c0,0-1-6.8,4.4-7.6c5.3-0.7,6.8,8.3,6.8,8.3s2-5.3,7.7-4.2c5.7,1.1,6.8,9.3,5.8,13.8"/>
		<g>
			<g>
				<path class="st2" d="M246.1,385.7c-52.1,0-69.3-30.5-70.1-31.9l4.7-2.6c0,0.1,4.9,8.8,17.2,16.6c11.3,7.2,31.5,15.1,63.2,11.7
					c65.8-7,77.6-54.6,77.7-55l5.2,1.2c-0.1,0.5-3.2,13.3-14.9,27c-10.8,12.6-31.2,28.4-67.5,32.2
					C256.2,385.4,251,385.7,246.1,385.7z"/>
			</g>
		</g>
		<g>
			<path class="st0" d="M353.5,285.1c-5.1-6.2-12.8-9.2-21.1-9.2c4-10,3.1-20.7-3.3-28.5c-7.2-8.6-19.3-11.2-31-7.6
				c2.7-13.5,0.4-26.7-7.8-36.5c-15.9-19.2-48.1-19.1-74.4-0.7c-8.4-11.1-21.6-18.2-36.6-18.2c-18.9,0-35.1,11.4-42.1,27.7
				c-22,1.1-40.6,15.7-43.6,36.1c-1.4,9.6,0.8,19,5.8,27c-3.6,4.1-6.1,9.3-7,15.1c-2.4,16.1,8.7,31,24.8,33.4
				c3.6,0.5,7.1,0.4,10.4-0.3c0.4,1.7,1,3.4,1.7,5.1c10.1,25.7,42.6,36.9,72.4,25.1c8.3-3.3,15.5-8,21.4-13.6
				c8.1,12.7,22.4,21.2,38.6,21.2c19.1,0,35.4-11.7,42.3-28.3c10.8,8.3,28,7.1,41-3.7C359.9,317.1,363.6,297.3,353.5,285.1z"/>
			<path class="st0" d="M217.1,265.5c0,0,0.5-8.1-7-11.9c-5.9-3-11.8,0-11.8,0"/>
			<path class="st0" d="M252.4,304.5c0,0-1.8-6.4,2.7-8.2c4.7-1.9,8.7,4.1,8.7,4.1s-1.3-8.5,4.9-9.5c6.1-0.9,9.5,7.2,10.7,10.6"/>
			<path class="st8" d="M172,215.3c3,0,3.7,18.7,12.6,27.3c0,0-5.2,3.2-6.3,1.9C174.8,240.2,168.8,215.3,172,215.3z"/>
			<path class="st4" d="M180.8,239.8c0,0,6.2-1.7,8.1-7.2s-3.8-9-7.3-6C176.6,231,180.8,239.8,180.8,239.8z"/>
			<path class="st4" d="M184.1,230.5c0,0-2.8,4.6-3.2,9.3"/>
			<path class="st8" d="M191.2,250.4c0,0,3.8-2.4,5.9-7.3c2.2-5.3,4.3-9.2,5.8-7.9c1.8,1.4,0.1,12.5-8.4,21.3
				C186.5,264.8,191.2,250.4,191.2,250.4z"/>
			<path class="st0" d="M137.5,267.2c0,0-2.6-13,9.9-18.3c12.4-5.3,21.5,9.2,21.5,9.2"/>
			<path class="st0" d="M162.8,251.5c0,0,0.5-9.4,9.4-13.1c8.9-3.7,24.1,3.9,29.7,24.8"/>
		</g>
	</g>
	<g>
		<path class="st8" d="M188.7,502.3c0,0-0.3-169,48.3-182c41.3-11,47,96.2,64.1,158.4c2.5,9.1,2.3,18.6-5.9,23.3
			C272.8,514.6,230.3,530.6,188.7,502.3z"/>
		<path class="st3" d="M220.2,379.4c0,0-0.2,3.4,0.8,6.3"/>
		<path class="st3" d="M223.9,380.7c0,0,0.1,2.4,0.5,4.1"/>
		<path class="st3" d="M227.3,380.9c0,0,0.3,3.9,1.2,5.8"/>
		<path class="st3" d="M211.1,417.5c0,0-0.1,4.6,0.3,6.1"/>
		<path class="st3" d="M215.2,418.3c0,0-0.1,2.8,0.3,4.5"/>
		<path class="st3" d="M219.4,418.3c0,0,0,4,0.8,6.8"/>
		<path class="st3" d="M239.4,430.4c0,0,0.1,4.7,0.9,6.4"/>
		<path class="st3" d="M242.8,430.4c0,0,0.3,4.4,1,6"/>
		<path class="st3" d="M245.3,430.4c0,0,0.2,3.6,0.6,5.1"/>
		<path class="st3" d="M232.4,336.7c0,0,0.1,4.4,0.8,6.4"/>
		<path class="st3" d="M235.7,336.3c0,0-0.2,3.7,0.6,5.8"/>
	</g>
	<g>
		<path class="st8" d="M331.6,423.8c10.2,0.2,15.5,13.2,17.3,23.4c1.8,10.2-12.2,7.5-21.6,7.5c-9.4,0-17.6,2.3-18.5-4.4
			C308,443.6,317.7,423.6,331.6,423.8z"/>
		<path class="st4" d="M322.3,431.6c2.3,0.1,0.6,5.6-1.6,5.6S320.3,431.5,322.3,431.6z"/>
		<path class="st4" d="M322,441.9c0.8,0.9,2.9,0.1,4.2-2.1c1.3-2.2,1.1-3.4,0.4-3.7c-0.9-0.4-2.1,0.8-3.2,2.2
			C322.2,439.8,321.5,441.4,322,441.9z"/>
		
			<ellipse transform="matrix(0.6114 -0.7913 0.7913 0.6114 -227.9445 421.9929)" class="st4" cx="315.7" cy="443.1" rx="3.6" ry="2.1"/>
	</g>
	<g>
		<path class="st8" d="M369.8,492.1c-9.9-4.7-15.1-15.6-12.7-26.3c5.8-25.5,18.5-75.1,37.2-113.3c26.3-53.9,51.7-67.8,72.2-43.1
			s37.4,121,42,186.2C508.5,495.7,430.4,520.8,369.8,492.1z"/>
		<path class="st3" d="M438.1,315.8c0,0-0.4,3.9,0,5"/>
		<path class="st3" d="M434.9,316.6c0,0-0.4,2.2,0,3.5"/>
		<path class="st3" d="M432.8,315.8c0,0-1.2,3.5-0.7,5.9"/>
		<path class="st3" d="M396.6,402.3c0,0,0,7.1,1,9.8"/>
		<path class="st3" d="M401.5,402.3c0,0,0.2,5,1.3,7.6"/>
		<path class="st3" d="M406.4,403.9c0,0,0.1,4,1.1,6.6"/>
	</g>
	<path class="st8" d="M30.4,685.2c-7.4-9.8-2.1-28.3,25-30.1c27.1-1.8,51.6,6.6,46.8,25.9s-29.2,9.2-41.1,10.4
		S37.9,695.1,30.4,685.2z"/>
	<path class="st3" d="M42.9,657.6c0,0,13.4,0.8,19.2,13.1c0,0-22.3,0.5-29.4,17.1"/>
	<path class="st3" d="M97.3,664.4c0,0-22.6-3.1-35.3,6.2c3.2-10.8,13.8-14.8,13.8-14.8"/>
	<path class="st3" d="M95.1,690.9c0,0-9.3-18.6-33.1-20.3c0,0,11.4,4.8,13.8,21.9"/>
	<g>
		<path class="st8" d="M60.8,611.8C57,599,74.3,589.5,87.2,586.6c12.2-2.8,37.3-1.1,35.9,12.6c-1.4,13.7-14,20.3-27.1,22.4
			C82.9,623.7,64.7,625,60.8,611.8z"/>
		<path class="st3" d="M72.8,592.1c0,0,15.7-0.9,18.9,8.3c0,0-18,6.2-19.9,21.3"/>
		<path class="st3" d="M122,604.2c0,0-14.9-7.3-30.3-3.8c0,0,1-11.9,15.9-14.3"/>
		<path class="st3" d="M99.4,621c0,0,1.9-13.2-7.7-20.5"/>
	</g>
	<g>
		<path class="st3" d="M260.8,444.3c0,0-3.4-12.6,4.8-28.1c8.2-15.5,15.3-17.8,18.7-38.7"/>
		<path class="st1" d="M284.4,377.5c0,0,15.7,0.7,16.8-12.9c1.1-13.6-8.4-26.3-8.4-26.3s-4.7,4.4-10.9,9.3
			C273.4,354.3,266.2,368.7,284.4,377.5z"/>
		<path class="st3" d="M291.2,349.2c0,0,1.6,13.4-5,23.4"/>
		<path class="st3" d="M258.4,403.3c0,0,4.8-3.4,7.7-1.2c3.1,2.3,1.1,11.2,1.1,11.2"/>
		<path class="st3" d="M276.1,399.9c0,0,11-9.2,19.2-6"/>
		<g>
			<path class="st1" d="M295.1,393.7c0,0-2.3,12.8,9,15.8c11.3,3,17.7-6.3,20.1-11.3c0,0-5.2-0.3-8.6-5.3
				C312.2,388.1,302.9,384.4,295.1,393.7z"/>
			<path class="st3" d="M298.3,395c0,0,4-1.5,7.1,1.3c3.1,2.8,5.4,5,11.3,3.4"/>
		</g>
		<g>
			<path class="st1" d="M233.6,418.8c0,0,7.2-2.9,13.9,1.9c6.8,4.8,14.8-1.5,14.1-8.8c-0.6-7.3-6-15.7-13.2-13.3
				C238.3,402,233.6,418.8,233.6,418.8z"/>
			<path class="st3" d="M243.4,413.9c0,0,3.7-8.5,12.1-8.9"/>
		</g>
		<g>
			<path class="st1" d="M276.8,418.7c0,0-1.2,7.1,6,8.7c4.8,1.1,6.7,3.1,7.4,4.2c0.2,0.3,0.6,0.2,0.7-0.1c0.9-2.6,2.6-9.7-2.8-13.8
				C282.6,413.5,278.4,416.9,276.8,418.7z"/>
			<path class="st3" d="M288.1,424.9c0,0-2.5-6.6-11.3-6.1"/>
		</g>
		<path class="st3" d="M263.6,420.6c0,0,7.8-5.6,13.3-2"/>
	</g>
	<g>
		<path class="st8" d="M401.4,665.4c-1.6-5.2-0.1-12.5,3.3-18.3c5.9-10.1,13.5-15.1,22-15.9c9.6-0.9,15.6-1.6,29.1-11.7
			c13.5-10.1,32.3-2.7,35.4,12.8c3.1,15.5,11.9,17.9,5.8,32.3c-6.1,14.4-37.5,0.8-55.5,3.8C423.5,671.4,405.3,677.9,401.4,665.4z"/>
		<path class="st4" d="M462,623.9c1.9,1.2-0.6,6-4,6.4c-2.4,0.3-2.2-2-0.1-4.5C459.1,624.3,460.8,623.2,462,623.9z"/>
		<path class="st4" d="M423.6,637.4c2.7,2.3-3.5,7.9-6.3,6.4S420.9,635.1,423.6,637.4z"/>
		<circle class="st4" cx="430.3" cy="637.8" r="1.9"/>
		
			<ellipse transform="matrix(0.3822 -0.9241 0.9241 0.3822 -286.5317 819.8738)" class="st4" cx="469.9" cy="624.2" rx="3.6" ry="3"/>
		<ellipse transform="matrix(0.6015 -0.7989 0.7989 0.6015 -315.5769 631.3118)" class="st4" cx="475" cy="632" rx="2.9" ry="2.1"/>
		<g>
			<path class="st8" d="M382.4,678.9c-2.7,3.2-1.7,9.4,3.8,10c9.9,1.2,15.4-1.4,28.2,0.8c12.8,2.2,24.1-1,21.4-14
				c-2.7-13-13.2-23-22.7-25c-9.4-2-20,1.4-24,11.4C386.7,668.3,387.3,673.2,382.4,678.9z"/>
			<path class="st4" d="M396.2,667.2c2.1,1,0.8,6.4-2.7,8.2c-3.6,1.8-4.5-1.5-2.8-4.5S394.3,666.2,396.2,667.2z"/>
			<path class="st4" d="M406.3,661.3c2.5,0.6-0.3,8.3-3.1,7.5C400.5,668.1,403.8,660.7,406.3,661.3z"/>
			<path class="st4" d="M399.1,658.2c1.2,0.7-1,5-2.4,4.1C395.3,661.5,397.9,657.5,399.1,658.2z"/>
		</g>
	</g>
	<path class="st8" d="M314.8,713.7c6-1.7,15,8.1,15,17.7c0,9.6-12,11-23.5,8.3C294.7,737,299.4,718.1,314.8,713.7z"/>
	<path class="st4" d="M308.5,725c2.1,0.8-1.7,8.3-3.1,7.8C303.1,732.1,306.4,724.2,308.5,725z"/>
	<path class="st4" d="M314.4,719.3c1.3,0.6,0,4.7-1.8,4C310.9,722.6,312.5,718.4,314.4,719.3z"/>
	<path class="st4" d="M318.7,720.8c0.9,1.1,3.1-0.6,2.6-2c-0.4-1.1-2-0.8-2.6,0C318.1,719.5,318.2,720.3,318.7,720.8z"/>
	<path class="st0" d="M122.5,613.6c3.2-9.3,16.8-7.5,25.2-8.9c8.4-1.4,21-3.2,28.2,5.2c7.2,8.4,5.1,21-11.2,27.2
		C137.4,647.6,117.7,627.5,122.5,613.6z"/>
	<path class="st9" d="M159.9,638.7c0.7-13.4-7.7-20-7.7-20s-15.9,1.6-21.1,15.3"/>
	<path class="st9" d="M133.7,606.2c0,0,14.7,2.1,18.4,12.6c0,0,4.5-11.3,17.2-13.5"/>
	<path class="st9" d="M179,624.6c0,0-15.5-9.8-26.9-5.9"/>
	<g>
		<g>
			<path class="st0" d="M212.4,600.7c1.5,8.2,6.6,11.3,9.1,12.3c-2.3-10.6-4.6-20.6-6.5-27.2C213.5,587.7,210.9,592.5,212.4,600.7z"
				/>
			<path class="st0" d="M194.4,625.7c-1.6,15.7-0.8,20.9-3.8,21.3c-3.4,0.5-12.6-12.2-17.5-27.2c-0.3-0.9-1.5-0.7-1.6,0.2
				c-0.3,4.6,0.2,13.7,5.9,27c8.6,20.3,27.1,19.3,27.1,19.3s2.1,0.2,5.2,0.4C209.9,635.8,199.1,627.7,194.4,625.7z"/>
			<path class="st2" d="M231.1,661c0,0-4.7-25.3-9.6-48c-2.5-1-7.5-4.1-9.1-12.3c-1.5-8.2,1.1-13,2.6-14.9c-0.7-2.4-1.8-5.4-2.3-6.7
				l-9.6,0.6c0,0-3.8,9.3-7.3,34.3c-0.6,4.4-1.1,8.3-1.4,11.7c4.7,2,15.4,10.1,15.1,41c7.7,0.5,21.2,1,21.3-1.5c0,0,7.4,0.2,7.5-1.5
				C238.5,661.1,231.1,661,231.1,661z"/>
		</g>
		<path class="st2" d="M212.4,549.3c1.9,0.1,3.6,19.4,3.6,19.4l-8.2-0.3C207.7,568.4,209.9,549.2,212.4,549.3z"/>
		<path class="st3" d="M205.5,627.5c0,0,20.2-3.5,18.7,34.6c0,0,7-0.5,6.7,3.2"/>
		<path class="st2" d="M204.9,548.3c1.9,0.1,3,12,3.3,15.9c0.1,0.7,0.6,1.2,1.3,1.4c1.3,0.4,3.2,0.3,5.9,0.1
			c5.4-0.4,11.3-0.1,11.2,2.1c-0.1,3-9.5,13.6-18.6,13.2c-8.9-0.4-10.3-6-8.6-14.5C201,558.7,202.7,548.2,204.9,548.3z"/>
		<circle cx="209.5" cy="570" r="1.1"/>
		<circle class="st0" cx="226.6" cy="567.1" r="1.8"/>
	</g>
	<g>
		<path class="st0" d="M78.6,621.8c6.2-4.8,24.7-11,37.1-0.6c12.4,10.4,5.6,32-9.3,33.7c-15,1.6-17.6,9.9-27.8,6.4
			C68.4,657.7,60.4,636,78.6,621.8z"/>
		<path class="st9" d="M108.7,654.4c-1.6-10.6-15.8-17.8-15.8-17.8s-8.2,9.6-2.3,23.4"/>
		<path class="st9" d="M69.7,652c0,0,1.6-9.7,23.2-15.4c13.7-7.1,29.1,1,29.1,1"/>
		<path class="st9" d="M78.6,621.8c0,0,11.4,0.3,14.3,14.8c0,0,0.4-13.1,15.8-19.4"/>
	</g>
	<g>
		<path class="st2" d="M353.3,468.3c0,0-6.3,7.5,4.4,12c10.7,4.4,31.1,2.7,31.1,2.7s8.7,5.3,16.5-2.7c0,0,29.9,0.6,22.9-28.3
			c0,0,2.9-12.6-9.2-14.7c0,0-3.9-16.7-17.2-8c0,0-2.5-6.8-11.4-7c-8.9-0.2-10.3,7.5-10.3,7.5s-8.9-3.5-15.2,1.2
			c-7.3,5.5-4.5,14.1-4,18.1c0,0-8.9,0-10.8,7.5C348.2,464.1,353.3,468.3,353.3,468.3z"/>
		<path class="st3" d="M371.3,464.8c0,0,9.2,11.1,10.3,42.2"/>
		<path class="st3" d="M367.4,469.2c0.4,0.9,2.2,18.4,13.1,23.8"/>
		<path class="st3" d="M372,452.9c0,0-1.4-2.8,0-3.7c1.4-0.9,2.6,1.1,2.6,1.1s-0.4-4.4,1.9-4.3c2.3,0.1,2.6,4.4,2.6,4.4"/>
		<path class="st3" d="M401.2,444.7c0,0,3.6-4,5.3-2.5c1.2,1.1-1.1,5.2-1.1,5.2s2.1-3.4,4-2.3c1.9,1.2-1.9,6.5-1.9,6.5"/>
		<path class="st3" d="M385.3,464.8c0,0,4.6,13.8,4.1,44.1"/>
		<path class="st3" d="M380.5,466.1c0,0,2.3,28.1,9,29.8"/>
		<path class="st3" d="M393.4,466.1c0,0-1,18,3.3,19.8"/>
		<path class="st3" d="M398.8,467.1c0,0-3.6,24.8-3,39.9"/>
		<path class="st3" d="M404.7,510.9c0,0,4.5-33.8,0-45.5"/>
	</g>
	<g>
		<path class="st8" d="M220.9,691c2-4.4,8.2-11.7,16.6-9.8s11.6,1.3,14.8,4.4c3.1,3,5.2,6.5,8.3,8.3c3.1,1.7,0.9,8.4-5.5,8.5
			c-6.4,0.1-14.7,5.1-23.7,2.5C222.3,702.2,217.7,697.8,220.9,691z"/>
		<path class="st4" d="M239,686.1c0.3-1.2,4-0.5,4.5,1.2s-2.8,1.1-3.8,0.3C238.7,686.9,239,686.1,239,686.1z"/>
		<path class="st4" d="M248.7,688.3c1-0.5,4.2,2.3,5.1,4.7c0.9,2.4-1.5,1.9-3.8-0.7C248,690,247.9,688.7,248.7,688.3z"/>
		<path class="st4" d="M246.5,693.1c0.7-0.6,3.4,1.2,4.3,3.1s0.2,2.4-0.7,2C249.2,697.8,245.5,693.9,246.5,693.1z"/>
	</g>
	<g>
		<path class="st8" d="M165.4,705.4c-7-5.1-3.4-12.6,0.7-22.4c4.1-9.8,12.2-20.7,27.2-20.7s25.2,8.9,28.4,17.4
			c3.2,8.5,4.1,15.2,11.8,18.4c7.7,3.1,5.7,15.7-12.6,14.7c-18.3-1-27.2-5.9-34.1-6.3C179.8,706.2,170.6,709.3,165.4,705.4z"/>
		
			<ellipse transform="matrix(0.2549 -0.967 0.967 0.2549 -531.3345 676.972)" class="st4" cx="173.6" cy="683.3" rx="3.1" ry="1.5"/>
		<path class="st4" d="M214,680.8c1.6-1.3,10.1,11.4,8.1,12.4C219.1,694.7,212.9,681.7,214,680.8z"/>
		<path class="st4" d="M205.2,680c1.8-1.6,4.4,3,5.1,4.8c0.5,1.2-0.4,2.7-2.5,0.7C205.6,683.5,204.3,680.8,205.2,680z"/>
		<path class="st4" d="M205.8,673.1c0.5-1.4,4.4-0.4,4.9,2.1s-1.7,2.1-3,1.1C206.3,675.2,205.4,674.1,205.8,673.1z"/>
	</g>
	<path class="st8" d="M375.1,730.7c1.7-11.8,17.3-12,24.7-9.2c7.4,2.7,16.7-8.2,26.6-7.8c12.2,0.5,16.9,6.2,22.5,13.2
		c5.6,7,8.2,16-4.5,20.1c-12.7,4-22.8,6.1-28.3,16.8c-5.5,10.7-22.2,12.4-23.9,2.4s-1.5-12-6.4-15.8
		C381.1,746.5,374.1,738,375.1,730.7z"/>
	<path class="st0" d="M245.9,467.7c0,0,12.6-3.2,17.2,4.9c4.5,8-6.8,10.3-6.8,10.3s-4.6,21.3-32.8,16.9c0,0-17.4,12.9-31.4,0.6
		c0,0-15.8,4.5-17.4-11.4c0,0-9.7-9.8,2.6-23.5c0,0-3.9-9.8,5.8-11.6c0,0-0.3-8.7,8.4-7.4c0,0,0-10,8.2-10.8
		c8.2-0.8,9.3,8.7,9.3,8.7s6.3-6.3,12.7-4.4c6.4,1.8,9.3,6.8,9.5,10.8c0,0,8.4-1.8,12.4,4.7C247.7,461.9,245.9,467.7,245.9,467.7z"
		/>
	<path class="st3" d="M202.2,470.6c0,0-0.7-7.4,4.6-8.5c5.4-1.2,6.1,7.2,6.1,7.2s3-8.2,9.6-6.2s3.6,11.7,3.6,11.7"/>
	<path class="st3" d="M238.2,476.4c1-0.9,4.5-2.7,6.5-1s0,4.8,0,4.8s3.6-0.8,4,1c0.4,1.8-1.9,2.7-1.9,2.7"/>
	<path class="st3" d="M192.8,482.6c0,0,0.9,4.3,5.1,4.3c4.3,0,5.8-4.3,5.8-4.3"/>
	<path class="st3" d="M216.6,488.9c0,0,4.3,37.8,10.1,55.7"/>
	<path class="st3" d="M224.2,490c0,0,3.1,23.6-2.4,34.1"/>
	<path class="st3" d="M206.1,490c0,0,9.5,25.2,10.5,58.1"/>
	<path class="st3" d="M234.3,485.5c0,0-3.5,33.7,2.3,61.8"/>
	<path class="st3" d="M243.6,486.5c0,0-1.3,16.9-10.3,28.7"/>
	<path class="st3" d="M192.8,491.9c0,0,11.9,20.2,15.1,52.2"/>
	<path class="st0" d="M106.9,518c0,0-13,10.3-6,23.6s36.5,4.1,40.2-4.8c0,0,15.9,12.3,45,2.8c0,0,13.6,3.6,19.9-4.2
		s-2.5-13.2-10.6-13.8c0,0,14-6.3,9.6-20.9c-4.4-14.6-22.2-10.9-22.2-10.9s7.6-12.4,1.3-22.7c-6.3-10.3-26-13.8-40.3-5.3
		c-14.4,8.6-16,17.3-16,17.3s-19.7,3.9-26.3,18.5C94.9,512.6,106.9,518,106.9,518z"/>
	<path class="st3" d="M157.7,490c0,0,4,2.4,1,8.5c0,0,5.9-3.7,8.3,0c2.4,3.7-1.3,8.8-5.4,10.3"/>
	<path class="st3" d="M156.9,470.6c0,0,6.7-3.3,5.9,3.7c0,0,4.1-3.4,6.3,0c2.2,3.4-3.2,5.7-3.2,5.7"/>
	<path class="st3" d="M169.3,511.7c0,0-6.9,39.3-3.5,66.4"/>
	<path class="st3" d="M180.7,521.8c0,0-5.2,19.5-15.7,31.2"/>
	<path class="st3" d="M150.8,510.6c0,0-2.8,46.2,1.9,64.8"/>
	<path class="st3" d="M144.2,505.7c0,0-1.4,18.8,5.9,23.2"/>
	<path class="st3" d="M131.3,510.6c0,0,8.9,41.8,8.8,64.8"/>
	<path class="st3" d="M126.2,515.2c0,0,2.6,16.1,9,16.1"/>
	<g>
		<path class="st8" d="M369.6,527.4c1.9-4.2,3.6-7.9,8.4-5.2s9.9,8.9,6.2,10.8c-3.7,1.9-8.8,2.7-13.5,4
			C365.9,538.3,368.4,530,369.6,527.4z"/>
		<g>
			<path class="st8" d="M389.8,512.9c8.8-0.9,14.6,9.5,16.4,14.2c1.8,4.7,1,12.6-5.7,13.4s-23.1,4.5-24.7-4.5
				S382.5,513.7,389.8,512.9z"/>
			<circle class="st4" cx="389.2" cy="518.1" r="1.1"/>
			<path class="st4" d="M385.2,522.2c1.7,0.4,0.3,6.4-1.4,6.8c-1.7,0.4-1.7-2.2-1.1-4.1C383.4,522.9,384.5,522,385.2,522.2z"/>
		</g>
	</g>
	<g>
		<path class="st0" d="M399.5,461.7c0,0-4.7,4.1-1.8,7.7c2.9,3.7,8.4,2.7,8.4,2.7s10.9,14.2,33.1,3.1c0,0,26.7,13.8,48.4-3.1
			c0,0,18.6,2.9,28.7-1c10.1-3.9,8.8-7.8,5.2-9.4c0,0,21.7-9.3,5.5-26c0,0,4.6-17.7-15.4-22.1c0,0-0.1-21.2-22.1-20.7
			c0,0-12.5-14.5-29-0.4c0,0-23.7-7.2-31.8,18.5c0,0-21.7,1.7-19.4,21.8C409.2,432.8,387,440,399.5,461.7z"/>
		<path class="st3" d="M481.9,427.9c0,0,2-4.1,5.4-2.9s1.8,4.7,1.8,4.7s5.2-1.8,6.2,1.6s-2.4,7.1-6.7,7.6"/>
		<path class="st3" d="M446.5,423.3c0,0-3.7-3.1-6.3-1.1c-2.6,2,0.9,5.9,0.9,5.9s-8.8-1.1-8.9,3.8c0,4,7.1,3.9,7.1,3.9"/>
		<path class="st3" d="M426.1,454.6c0,0,15.5,24.8,16.5,79.7"/>
		<path class="st3" d="M420.6,461.4c0,0,8.4,30,18.6,34.9"/>
		<path class="st3" d="M445.5,457.5c0,0,1.7,45,8.2,73.8"/>
		<path class="st3" d="M452,463.8c0,0,2.1,21.7-4.1,28.8"/>
		<path class="st3" d="M461,456.3c0,0-3.9,19.1,7.7,41.4"/>
		<path class="st3" d="M468.7,456.3c0,0-3.1,43,4.6,78"/>
		<path class="st3" d="M484.7,459.3c0,0-1.1,20.8,4.3,36"/>
		<path class="st3" d="M499.2,459.3c0,0-16.7,41.3-12.6,77.6"/>
		<path class="st3" d="M506.9,445.9c0,0,2.1-2.5,3.6-1.2c1.5,1.3,0,3,0,3s3.4-0.3,4.1,1.8c0.7,2.2-0.7,4.6-3.9,5"/>
	</g>
	<path class="st8" d="M477.3,761c0,0,2.8,5.6,1.4,14.6c-0.3,1.7,1.6,2.8,2.9,1.8l0,0c0.4-0.3,0.6-0.7,0.7-1.1
		c0.6-2.8,2.4-13.3-2.5-19.6L477.3,761z"/>
	<path class="st8" d="M524.5,770L524.5,770c1.4,0.5,3-0.2,3.4-1.7c2.6-9.5,11.1-40.6,11.1-40.6l-3.2-0.5L523,766.9
		C522.6,768.2,523.2,769.6,524.5,770z"/>
	<path class="st8" d="M550,736.3c0,0-27.9,10.8-42.1,31.2c-0.6,0.9-0.1,2.2,0.9,2.6l0,0c0.7,0.3,1.5,0.1,2-0.5
		c3.5-4,19.2-22.6,39.2-29V736.3z"/>
	<g>
		<path class="st3" d="M182.1,352.2c0,0,30.2,19.4,26.3,64.6"/>
		<path class="st0" d="M179.3,359.9c1.6-4.7,11.9-0.6,14,3.2c0,0-2.2,3.6-8.5,2.1C180.3,364.1,178.7,361.7,179.3,359.9z"/>
		<path class="st0" d="M191.8,349.1c3-1,5,6.2,1.7,14c0,0-3.4-2.5-4.2-7.7C188.7,351.7,190.3,349.6,191.8,349.1z"/>
		<path class="st0" d="M189.5,371.5c3.3-3,11.1,1.6,12.4,5.5c0,0-2.9,3-7.8,1.7C189.2,377.4,187.4,373.3,189.5,371.5z"/>
		<path class="st0" d="M205.7,363c3.7,0.6,2.8,12.4-3.6,13.8c0,0-3-3.3-1.3-8.6C202.1,363.7,204.1,362.8,205.7,363z"/>
		<path class="st0" d="M214.6,383.6c2.9,0.9,1.1,12.2-6.7,12.8c0,0-1.8-3.8,0.9-8.7C211.2,383.4,213.4,383.2,214.6,383.6z"/>
		<path class="st0" d="M197.1,390.4c1.2-2.6,5-1.7,6.9-0.3c1.9,1.4,3.8,3.7,3.5,6.5c0,0-3,1.5-6.8-0.1
			C196.9,394.8,196.4,391.7,197.1,390.4z"/>
		<g>
			<path class="st4" d="M174,339.3c-3.2-0.9-6.2,1.8-5.6,5.1c0.4,2.4,1.6,5.2,4.3,7.5c1.9,1.6,4,2.1,6,2.1c3,0.1,5.2-2.8,4.4-5.7
				c-0.6-1.9-1.7-4.1-3.7-5.9C177.7,340.7,175.7,339.8,174,339.3z"/>
			<path class="st3" d="M170.2,340c0,0,9.2,3.1,12.5,11.7"/>
			<path class="st3" d="M168.8,341.6c0,0,4,9.4,12.3,11.8"/>
		</g>
	</g>
	<g>
		<path class="st4" d="M397.8,538.5c3.2-2.8,9.6,2.7,12.4,8.8c2,4.4,1.6,12.8-4.8,8.6C399,551.7,393.9,541.9,397.8,538.5z"/>
		<path class="st3" d="M399.7,537.7c0,0,6.8,13.4,11.1,17.4"/>
		<path class="st3" d="M396.9,539.5c0,0,5.5,12.2,12.8,17.1"/>
		<path class="st3" d="M435.3,635.2c2.5-44.2-25.1-79-25.1-79"/>
		<path class="st0" d="M418.9,589.3c1.2,2.2,3.6,5,7.9,5.5c1.5,0.2,2.7-1.3,2.1-2.7c-1-2.3-3.2-5.3-8.1-5.7
			C419.3,586.3,418.1,588,418.9,589.3z"/>
		<path class="st0" d="M406,564.2c1.6,2.4,4.5,5.3,9.3,4.5c1.3-0.2,2-1.8,1.2-2.8c-1.4-1.9-4.1-4.4-9-4.5
			C406.1,561.3,405.2,563,406,564.2z"/>
		<path class="st0" d="M425.6,566.7c-1.4,2.9-3,7.3-2,11.7c0.3,1.6,2.4,2,3.3,0.7c1.8-2.6,3.9-6.9,2.1-12.1
			C428.4,565.4,426.3,565.2,425.6,566.7z"/>
		<path class="st0" d="M412.4,576.8c2,2.4,5.6,5.6,10.1,4.4c1.1-0.3,1.6-1.7,1-2.7c-1.2-2.1-4-5-9.7-4.7
			C412.2,573.9,411.4,575.7,412.4,576.8z"/>
		<path class="st0" d="M423,602.1c1.4,2.7,4,6.4,7.9,6.9c1.2,0.2,2.2-0.9,2-2.1c-0.4-2.3-1.9-6-7.8-7.4
			C423.5,599.1,422.2,600.7,423,602.1z"/>
		<path class="st0" d="M437,598.5c-1.7,1.6-3.7,4.2-3.8,7.8c0,1.5,1.7,2.4,2.9,1.5c1.9-1.4,4.2-3.9,3.9-8.2
			C439.9,598.2,438.1,597.5,437,598.5z"/>
		<path class="st0" d="M431.2,581.2c-1.6,2.3-3.4,6.3-2.2,11c0.4,1.4,2.1,1.9,3.1,0.8c2-2.1,4.3-6,2.3-11.4
			C433.9,580.2,432.1,580,431.2,581.2z"/>
		<path class="st0" d="M422.5,554.6c0.7,2.9,1,7.6-2.7,11.4c-1,1.1-2.8,0.7-3.4-0.7c-1.2-2.8-2.2-7.7,2.7-11.9
			C420.2,552.4,422.1,553,422.5,554.6z"/>
	</g>
	<g>
		<path class="st3" d="M400.9,600c0,0,16.6,14.2,18.3,36.4"/>
		<path class="st4" d="M396.8,591.3c2.5,0.4,5.2,3.5,4.7,7.5c-0.1,1.1-1.2,2-2.3,1.8c-1.2-0.2-2.9-0.8-4.4-3
			c-1.2-1.8-1.4-3.2-1.1-4.2C394.1,592.2,395.4,591.1,396.8,591.3z"/>
		<path class="st3" d="M395.3,591.5c0,0,4.4,2.3,6.2,7.9"/>
		<path class="st3" d="M394.1,592.6c0,0,1.2,5.2,6.5,7.8"/>
		<path class="st0" d="M397,605.1c0.9-2.7,7.9-1.9,9.9,1.7c0.7,1.2,0.1,3.4-4.7,2.7C396.9,608.7,396.6,606.2,397,605.1z"/>
		<path class="st0" d="M408.6,596.7c1.6,0,2.6,2,2.4,5.2c-0.3,3.1-1.6,5-2.9,5c-1.4,0-2.8-2.7-2.3-6.2
			C406.1,597.6,407.6,596.7,408.6,596.7z"/>
		<path class="st0" d="M404.2,615.9c0.3-1.8,3.3-1.9,5.1-1.6c1.8,0.3,4.2,1.5,4,3c-0.2,1.5-2.5,2.2-5.4,1.6
			C405,618.3,404.1,617.1,404.2,615.9z"/>
		<path class="st0" d="M414.6,606c2.5-0.3,3,4.1,3,6.1s-0.5,4.9-2.1,5.2c-1.6,0.3-3.3-2.2-3.3-5.3C412.3,609,413.1,606.2,414.6,606z
			"/>
		<path class="st0" d="M421.3,619.9c1.8,0.5,0.9,4.4,0.2,5.8c-0.7,1.4-1.3,2.3-2.8,2.3c-1.5,0-1.3-2.7-0.3-4.6
			C419.2,621.4,420.2,619.6,421.3,619.9z"/>
		<path class="st0" d="M410.5,627c0.2-1.6,3.2-1.2,3.9-1.1c0.7,0.1,3.5,0.7,3.2,2.1c-0.3,1.4-2.7,1.2-4.4,0.9
			C411.4,628.7,410.3,628.2,410.5,627z"/>
	</g>
	<g>
		<path class="st4" d="M140.4,362.5c1.8-3.3,8.8-0.6,13,3.6c3,3.1,5.2,10.2-1.4,8.6C145.4,373.1,138.2,366.5,140.4,362.5z"/>
		<path class="st3" d="M141.8,361.3c0,0,9.7,9.1,14.5,11.1"/>
		<path class="st3" d="M140,363.7c0,0,8.3,8.5,15.9,10.4"/>
		<path class="st3" d="M201,431.8c-11.3-37.6-44.8-58.3-44.8-58.3"/>
		<path class="st0" d="M173.4,398.5c1.7,1.5,4.5,3.1,8.3,2.2c1.3-0.3,1.9-1.9,0.9-2.9c-1.5-1.6-4.2-3.4-8.5-2.3
			C172.8,395.9,172.3,397.6,173.4,398.5z"/>
		<path class="st0" d="M155.1,381.5c2,1.5,5.4,3.1,9.1,0.9c1-0.6,1.2-2.1,0.2-2.7c-1.7-1.2-4.8-2.4-8.9-1
			C154.3,379.1,154,380.7,155.1,381.5z"/>
		<path class="st0" d="M172.1,377.7c-0.3,2.8-0.3,7,1.8,10.3c0.8,1.2,2.6,1,3-0.4c0.7-2.7,1.1-6.9-1.9-10.7
			C174.1,375.7,172.3,376.2,172.1,377.7z"/>
		<path class="st0" d="M164.2,390.1c2.4,1.4,6.4,3,9.7,0.6c0.9-0.6,0.8-1.9,0-2.5c-1.7-1.3-4.9-3-9.5-0.9
			C163.2,387.7,163,389.4,164.2,390.1z"/>
		<path class="st0" d="M180.6,407.9c2,1.9,5.3,4.1,8.7,3.4c1-0.2,1.5-1.4,1-2.4c-1-1.8-3.4-4.4-8.8-3.8
			C180.2,405.3,179.6,407,180.6,407.9z"/>
		<path class="st0" d="M191.3,400.7c-0.9,1.9-1.8,4.6-0.8,7.7c0.4,1.3,2.1,1.5,2.9,0.4c1.2-1.7,2.3-4.5,0.8-8
			C193.6,399.6,191.9,399.5,191.3,400.7z"/>
		<path class="st0" d="M181.2,388c-0.6,2.4-0.9,6.2,1.5,9.8c0.7,1.1,2.3,0.9,2.8-0.2c1-2.4,1.8-6.3-1.5-10.2
			C183.2,386.4,181.5,386.7,181.2,388z"/>
		<path class="st0" d="M165.8,368.5c1.5,2.2,3.1,6,1.2,10.3c-0.5,1.2-2.2,1.4-3.1,0.5c-1.9-2-4.1-5.7-1.3-10.7
			C163.3,367.3,165.1,367.3,165.8,368.5z"/>
	</g>
	<line class="st3" x1="111.2" y1="711.8" x2="113.1" y2="718.4"/>
	<line class="st3" x1="115.1" y1="710.1" x2="116" y2="717.1"/>
	<line class="st3" x1="120" y1="709.6" x2="120" y2="715.7"/>
	<line class="st3" x1="125.8" y1="708.9" x2="125.8" y2="713.6"/>
	<g>
		<line class="st3" x1="89.8" y1="730.8" x2="90.9" y2="737.3"/>
		<line class="st3" x1="93.5" y1="730.8" x2="94.5" y2="736.4"/>
		<line class="st3" x1="97.4" y1="731.7" x2="98.1" y2="736.4"/>
		<line class="st3" x1="103.2" y1="730.8" x2="103.2" y2="736.4"/>
	</g>
	<line class="st3" x1="257.5" y1="659.2" x2="258.3" y2="664.9"/>
	<line class="st3" x1="261.3" y1="659.2" x2="261.8" y2="664.1"/>
	<line class="st3" x1="266.6" y1="660.3" x2="266.6" y2="664.1"/>
	<line class="st3" x1="271.6" y1="661.3" x2="271.6" y2="667.2"/>
	<line class="st3" x1="171.3" y1="591.2" x2="172.9" y2="597.8"/>
	<line class="st3" x1="176.5" y1="589.8" x2="177.5" y2="596.6"/>
	<line class="st3" x1="181.4" y1="589.8" x2="182" y2="594.6"/>
	<line class="st3" x1="186.1" y1="589.8" x2="186.1" y2="594.5"/>
	<line class="st3" x1="240.1" y1="578.1" x2="240.1" y2="585.8"/>
	<line class="st3" x1="244.5" y1="579.9" x2="244.5" y2="583.6"/>
	<line class="st3" x1="249.2" y1="578.1" x2="249.2" y2="581.7"/>
	<line class="st3" x1="254.9" y1="580.7" x2="254.9" y2="577.1"/>
	<g>
		<g>
			<g>
				<path class="st2" d="M545.3,569.1l-8.9,4.7l-8.6-5.3l-3.7,4.9c0,0,7.7,6.5,7.3,21.3l4.4,0.1l4.4,0.1c0.4-14.8,8.5-20.8,8.5-20.8
					L545.3,569.1z"/>
				<line class="st8" x1="536" y1="581.4" x2="536.1" y2="574.9"/>
				<path class="st8" d="M558,556.9c0.2-0.8,0.4-1.7,0.4-2.6c0.2-5.7-4.3-10.5-10-10.6c-0.5,0-1,0-1.5,0.1c-1-4.6-4.9-8-9.8-8.2
					c-4.9-0.1-9,3.1-10.2,7.6c-0.4-0.1-0.8-0.1-1.2-0.1c-5.7-0.2-10.5,4.3-10.6,10c0,0.9,0.1,1.7,0.2,2.5c-3.2,1.3-5.8,4.1-6.4,7.8
					c-1,5.6,2.7,11,8.4,12c4.1,0.7,8-1,10.2-4.2c1.8,2.8,4.9,4.7,8.5,4.8c3.6,0.1,6.8-1.6,8.7-4.3c1.8,2.8,4.9,4.7,8.5,4.8
					c5.7,0.2,10.5-4.3,10.6-10C563.9,562.3,561.5,558.7,558,556.9z"/>
			</g>
			<path class="st0" d="M507,584.7c1.6-6.9,9.1-7.6,12.4-4.6c4,3.6,4.1,9.4,14,10.6c6.3,0.7,4.1,8.7-7.6,8.5
				C511.2,599,505.8,590.2,507,584.7z"/>
			<path class="st0" d="M564.8,585.9c-1.3-7-8.8-8-12.2-5.1c-4.1,3.5-4.4,9.3-14.4,10c-6.3,0.5-4.4,8.5,7.2,8.8
				C560.1,599.9,565.8,591.4,564.8,585.9z"/>
		</g>
		<g>
			<g>
				<path class="st2" d="M561,621.9l-8.9,4.7l-8.6-5.3l-3.7,4.9c0,0,7.7,6.5,7.3,21.3l4.4,0.1l4.4,0.1c0.4-14.8,8.5-20.8,8.5-20.8
					L561,621.9z"/>
				<line class="st8" x1="551.7" y1="634.2" x2="551.9" y2="627.7"/>
				<path class="st8" d="M573.7,609.7c0.2-0.8,0.4-1.7,0.4-2.6c0.2-5.7-4.3-10.5-10-10.6c-0.5,0-1,0-1.5,0.1c-1-4.6-4.9-8-9.8-8.2
					c-4.9-0.1-9,3.1-10.2,7.6c-0.4-0.1-0.8-0.1-1.2-0.1c-5.7-0.2-10.5,4.3-10.6,10c0,0.9,0.1,1.7,0.2,2.5c-3.2,1.3-5.8,4.1-6.4,7.8
					c-1,5.6,2.7,11,8.4,12c4.1,0.7,8-1,10.2-4.2c1.8,2.8,4.9,4.7,8.5,4.8c3.6,0.1,6.8-1.6,8.7-4.3c1.8,2.8,4.9,4.7,8.5,4.8
					c5.7,0.2,10.5-4.3,10.6-10C579.6,615.1,577.2,611.4,573.7,609.7z"/>
			</g>
			<path class="st0" d="M522.8,637.5c1.6-6.9,9.1-7.6,12.4-4.6c4,3.6,4.1,9.4,14,10.6c6.3,0.7,4.1,8.7-7.6,8.5
				C527,651.7,521.5,642.9,522.8,637.5z"/>
			<path class="st0" d="M580.6,638.6c-1.3-7-8.8-8-12.2-5.1c-4.1,3.5-4.4,9.3-14.4,10c-6.3,0.5-4.4,8.5,7.2,8.8
				C575.8,652.7,581.6,644.1,580.6,638.6z"/>
		</g>
	</g>
	<g>
		<g>
			<g>
				<path class="st4" d="M507.5,817.3c-1.1,1-2.2,1.9-3.5,2.8c-13.4,9.1-25,16.1-24.4,28.7c1,20.5,19.5,12,25.7,4.7
					c6.2-7.4,9.1-13.4,11.2-28.3c0.2-1.5,0.4-2.9,0.6-4.3C512.9,821.2,509.2,818.7,507.5,817.3z"/>
				<path class="st8" d="M520,795.6c-1,0-1.9,0.8-2.1,1.8c-0.6,3.8-2.7,12.9-10.4,19.9c1.7,1.4,5.5,3.9,9.7,3.6
					c1.4-10.3,2-16.5,4.8-22.3C522.5,797.2,521.5,795.6,520,795.6z"/>
			</g>
			<path class="st3" d="M495.1,826.2c0,0,15.6,6.5,20.2,6.5"/>
			<path class="st3" d="M488.1,831.6c0,0,6.5,7.7,26.2,5"/>
			<path class="st3" d="M511,845.2c0,0-20.7-5.3-27.5-8.6"/>
			<path class="st3" d="M505.3,853.5c0,0-11.9-9.1-25.4-10"/>
			<path class="st3" d="M498.6,854.8c0,0,1.5,3.1,0,5.9"/>
			<path class="st3" d="M500.8,831.6c0,0-4.3-0.2-5.8,2.8"/>
			<path class="st3" d="M511,821.9c0,0,2.1,2.7,2.6,5.6c0.5,2.9,3.5,3.5,3.5,3.5"/>
			<path class="st3" d="M502,821.4c0,0,2.3,2.8,7.1,3.6c4.8,0.7,7.2,1.4,7.2,1.4"/>
			<path class="st3" d="M495.7,821.4c0,0,1.1,2.5,4.2,2.5c1.7,0,2.1,1.7,2.1,1.7"/>
		</g>
		<g>
			<path class="st8" d="M429.2,818.9c-1.2-1.8-2.5-4.3-4-7.8c-2.2-5.2-3.6-9.1-4.5-11.9c-0.7-2.2-3.7-2.5-4.8-0.4
				c-0.6,1-0.4,2.3,0.5,3.1c2,1.9,5.3,6.3,5.1,15.2c0,1.5-0.1,2.9-0.3,4.2C423.3,821.5,426.6,821.3,429.2,818.9z"/>
			<path class="st4" d="M445,834.8c-8.5-10-12.1-10.3-15.8-15.9c-2.5,2.4-5.9,2.6-7.9,2.4c-1.1,9.5-5,13.6-3,28.6
				c2.2,17,20,25.8,28.3,22.1C454.8,868.2,456.3,848,445,834.8z"/>
			<path class="st4" d="M418.7,833.3c0,0,7.7-3.2,15.6-2.4c8,0.9,6.7-0.2,6.7-0.2"/>
			<path class="st3" d="M417.7,843.4c0,0,16.6-2,25.8-10.4"/>
			<path class="st3" d="M418.7,852.6c0,0,12.5-7.1,32.9-5.8"/>
			<path class="st3" d="M420.9,837.8c0,0-3.1-2.1-4.6,0.5c-0.9,1.5-3.2,1.3-3.2,1.3"/>
			<path class="st3" d="M432.7,826.7c0,0-0.4-2.3,2.7-3.3s2.5-4.5,2.5-4.5"/>
		</g>
		<g>
			<g>
				<path class="st4" d="M477.1,828.7c-2,2.1-4.2,4.2-6.5,6c-12.9,10.2-18.8,11.5-23.1,27c-4.3,15.5-5.1,36.4,13.1,25
					s25.8-16.4,25.6-35.3c-0.1-7.5-0.2-12.6,0-16.6C483.8,831.8,479.1,829.6,477.1,828.7z"/>
				<path class="st8" d="M497.3,801c-1,0-1.9,0.6-2.4,1.5c-2,4.2-8.5,16.3-17.9,26.2c2.1,0.9,6.7,3.2,9.1,6.2
					c0.3-6.1,1.3-9.3,4.1-14c3.5-5.8,6.8-11.4,9.4-15.9C500.7,803.2,499.4,801,497.3,801z"/>
			</g>
			<path class="st3" d="M470.5,834.7c0,0,9.8,5.4,15.7,14.8"/>
			<path class="st3" d="M448.4,858.5c0,0,7.9-2.1,14.4,4.8c6.5,6.9,15,11.2,15,11.2"/>
			<path class="st3" d="M447.4,861.7c0,0,7.6,11.5,25.5,16.8"/>
			<path class="st3" d="M454.5,847.5c0,0,20.8,13.9,25.7,24.4"/>
			<path class="st3" d="M461.8,841.2c0,0,7.2,7,25.1,13.7"/>
			<path class="st3" d="M446.6,864.7c0,0,8.4,14.8,18,19.5"/>
			<path class="st3" d="M460.5,886.7c0,0-9-2-15.5-12.2"/>
			<path class="st3" d="M456.5,838.1c0,0,1.9,1.6,5.3,1.1c3.4-0.5,4.5,3,4.5,3"/>
			<path class="st3" d="M468.1,854c0,0,4.7,2.9,2.4,9.6c-2.2,6.7,2.5,5.8,1.9,10.8"/>
			<path class="st3" d="M461.4,869c0,0-2.9-3.5-5.7-1.3c-2.9,2.2-5.2,0-5.2,0"/>
		</g>
		<g>
			<g>
				<path class="st4" d="M443.1,835.1c-3.6,3.5-7.4,6.6-11,8.4c-10.2,4.9-17.1,14.2-17.7,27.3s-2.9,18,4.1,20.6
					c7.2,2.7,24.1-2,30.8-13.9c6.7-11.9,5.5-24.1,3.8-31.4c-0.6-2.6-0.6-5.4,0.1-8.4C449.7,837.8,445.3,836.1,443.1,835.1z"/>
				<path class="st8" d="M467.8,805.3c0-1.1-0.9-1.9-2-1.9c-1,0-1.9,0.8-2,1.8c-0.3,2.5-1.2,7.2-4.9,11.6c-3.4,4.1-9.4,12-16,18.4
					c2.2,1,6.6,2.7,10,2.6c1.2-5.3,4.3-11.2,9.2-18.4C467.2,812.2,467.9,807.6,467.8,805.3z"/>
			</g>
			<path class="st3" d="M418.4,856c0,0,14,14.2,31.9,19.4"/>
			<path class="st3" d="M414,875.4c0,0,18.7,0,29.7,8.8"/>
			<path class="st3" d="M413.5,884.4c0,0,13,1.6,17.8,6.4"/>
			<path class="st3" d="M427.5,846.1c0,0,12.3,7.8,26.8,8.4"/>
			<path class="st3" d="M407.8,859.9c0,0,1.4,2.6,5.7,2.7c4.3,0.1,4.8-1,6.9,0"/>
			<path class="st3" d="M409,877.9c0,0,3.3,1.3,6.3-1.1c3-2.4,4.2-4.1,7.1-3"/>
			<path class="st3" d="M441.2,856c0,0,1.4,5.2-0.3,9.2c-1.6,4,0.3,4.1,0.3,4.1"/>
			<path class="st3" d="M440.3,878.3c0,0,1.7,0.8,1.5,3.6s0.3,5.8,2.5,6.6"/>
			<path class="st3" d="M429.7,886.8c0,0,2.3,1.7,2.3,5.4c0,3.7,3.7,3.4,3.7,3.4"/>
			<path class="st3" d="M417,851.7c0,0,6.6-3,8.9,1.9"/>
		</g>
	</g>
	<line class="st3" x1="356.2" y1="777.3" x2="357.2" y2="783.6"/>
	<line class="st3" x1="360.6" y1="777.3" x2="360.6" y2="782"/>
	<line class="st3" x1="365.6" y1="776" x2="365.6" y2="779.7"/>
	<line class="st3" x1="372.2" y1="776" x2="372.2" y2="779.7"/>
	<line class="st3" x1="375" y1="759.5" x2="376.1" y2="763.7"/>
	<line class="st3" x1="379.4" y1="758.3" x2="380.4" y2="762.7"/>
	<g>
		<line class="st3" x1="557.7" y1="680.9" x2="558.8" y2="686.2"/>
		<line class="st3" x1="561.7" y1="679.9" x2="562.5" y2="683.5"/>
		<line class="st3" x1="566.4" y1="678.5" x2="566.4" y2="683.5"/>
		<line class="st3" x1="571.2" y1="678.5" x2="571.2" y2="682"/>
	</g>
	<line class="st3" x1="470.7" y1="545.7" x2="472.5" y2="552.9"/>
	<line class="st3" x1="476.3" y1="548.1" x2="476.3" y2="552.9"/>
	<line class="st3" x1="479.8" y1="547.4" x2="479.8" y2="552.9"/>
	<line class="st3" x1="486" y1="549.3" x2="486" y2="553.9"/>
	<g>
		<path class="st5" d="M273.8,642.3c0,0,0.4,2.5-0.1,3.2c-0.5,0.6-6.5,2.9-6,5.6c0.4,2.4,4.5,2.6,13.3-1.9c1.3-0.7,2.1-2,2.1-3.4
			l0.2-5.7L273.8,642.3z"/>
		<path class="st5" d="M318.1,639.9c0,0,0.2,3.4-0.1,4.4c-0.3,1-6,3.6-4.4,6.3c1.3,2.2,7.8,0,11.5-2.3c1.2-0.7,2-2,2-3.5l0.2-7.6
			L318.1,639.9z"/>
		<g>
			<path class="st0" d="M258,541c0,0-10.2,53-4.8,80.5c5.5,27.5,32.3,21.4,44.8,17.2c0,0,3.2,4.3,18,2.4
				c16.1-2.1,24.8-4.6,30.7-10.4s4.4-17.9,3.5-29.8s-5.2-48.3-11.4-60.1C338.9,540.7,280.8,525.1,258,541z"/>
			<path class="st3" d="M293.9,555.3c0,0-1,51.1-1.3,60.5c-0.2,9.5-0.8,17.2,5.5,22.9"/>
			<path class="st3" d="M252.8,618.7c0,0,8.7,4.4,24.2,5.3c8.4,0.5,13,0.6,15.5,0.6"/>
			<path class="st3" d="M292.6,622.1c0,0,11.1,4,29.5,0.8c18.4-3.2,25.5-7.8,29-10.4"/>
			<circle class="st3" cx="337.6" cy="625.4" r="1.4"/>
			<circle class="st3" cx="337.5" cy="630.9" r="1.4"/>
			<path class="st3" d="M265.6,549c0,0-2.5,20.2-2.6,35.4"/>
			<path class="st3" d="M262.6,591.9c0,0-0.9,15.7,0.3,23"/>
			<path class="st3" d="M278,547.4c0,0-3.2,21.7-3.5,49"/>
			<path class="st3" d="M269.8,570c0,0-2.1,18.4-0.9,33.6"/>
			<path class="st3" d="M274.3,603.7c0,0-0.4,10.8,0.7,16.7"/>
			<path class="st3" d="M284,574.4c0,0-1.6,28.9,1.1,46.4"/>
			<path class="st3" d="M288.3,547.7c0,0-2.2,10-1.7,16.2"/>
			<path class="st3" d="M303,548.5c0,0,0.9,5.2,1.3,12.4"/>
			<path class="st3" d="M304.9,570.9c0,0,3.4,23.7,2.5,40.4"/>
			<path class="st3" d="M310.1,554c0,0,5.2,20.8,4.8,34"/>
			<path class="st3" d="M315.9,546.9c0,0,5.1,12.7,6.1,27"/>
			<path class="st3" d="M315.3,597.5c0,0,0.8,10.4,0.3,14"/>
			<path class="st3" d="M322.8,581c0,0,2.2,20.2,0.9,34.6"/>
			<path class="st3" d="M333,602.9c0,0,0.2,9.8-0.4,13.8"/>
			<path class="st3" d="M345.1,602c0,0,0.4,4.2-0.2,6.1"/>
			<path class="st3" d="M307.3,616.1c0,0,0.3,3.2-0.1,4"/>
			<path class="st3" d="M329.5,561.5c0,0,3.9,18.1,3.7,33.6"/>
			<path class="st3" d="M335.1,550.8c0,0,6.5,17.9,7.8,43.2"/>
			<path class="st3" d="M325.1,547.2c0,0,2.2,3.8,2.7,8.1"/>
		</g>
		<path class="st2" d="M241.2,494.8c10.1-16.5,29-30.5,55.5-29.8c37.5,1,51.9,28.6,54.5,40.8c2.6,12.2-0.7,36.9-18.4,39.6
			c-14.2,2.2-46.3-8.6-46.3-8.6s-20.4,13.5-35,6.9C236.9,537.1,227.6,517.1,241.2,494.8z"/>
		<path class="st3" d="M257.1,515.9c0,0,32.9-20.6,54-1.7"/>
		<path class="st3" d="M263,503.6c0,0-1.1,6.1-0.2,9.3"/>
		<circle class="st8" cx="295.9" cy="497" r="1.9"/>
		<circle class="st8" cx="296.2" cy="487.1" r="1.9"/>
		<path class="st8" d="M292,468.6c-3.5,1.2-10.5,5.4-10.6,19.1c0,0.2,0.2,0.4,0.4,0.3c2.2-1,12.9-6.7,12.3-18
			C294.1,468.9,293,468.2,292,468.6z"/>
		<path class="st8" d="M297.9,468c3.1,0.8,10.7,4.4,10.5,19.1c0,0.2-0.2,0.4-0.4,0.3c-2.1-1.3-11.5-7.8-11.5-18.3
			C296.5,468.3,297.2,467.8,297.9,468z"/>
		<path class="st3" d="M286.5,536.8c0,0,6.7-5.1,13-11s10.5-15.4,23.1-13.4c0,0-2.7-3.4-3.3-9.7"/>
		<path class="st3" d="M295.7,506.8c0,0,6.3,5.1,5.7,17.1"/>
		<path class="st3" d="M297.7,527.5c0,0,1.5,7-1.8,12.1"/>
		<circle class="st0" cx="295.4" cy="472.2" r="3.3"/>
		<g>
			
				<ellipse transform="matrix(2.624848e-02 -0.9997 0.9997 2.624848e-02 -151.4869 756.6032)" class="st5" cx="312.6" cy="456.1" rx="10.3" ry="8"/>
			
				<ellipse transform="matrix(2.624848e-02 -0.9997 0.9997 2.624848e-02 -184.6648 720.7038)" class="st5" cx="277.6" cy="455.1" rx="10.3" ry="8"/>
			<circle class="st5" cx="294.4" cy="455.3" r="14.8"/>
			
				<ellipse transform="matrix(2.624848e-02 -0.9997 0.9997 2.624848e-02 -177.5587 736.9747)" cx="289.5" cy="459.6" rx="1.8" ry="1"/>
			<ellipse transform="matrix(2.624848e-02 -0.9997 0.9997 2.624848e-02 -171.457 743.577)" cx="296" cy="459.8" rx="1.8" ry="1"/>
		</g>
	</g>
	<g>
		<g>
			<path class="st3" d="M506.4,535.2c0,0-6.6-68.5,36.5-104.2"/>
			<path class="st3" d="M513.3,427.6c2-0.7,11.6,8.3,11.2,24.7"/>
			<path class="st3" d="M514.6,473.2c0,0,18.1-17.5,39.3-11.6"/>
			<g>
				<path class="st1" d="M492.3,389.9c0,0-9.2,18.4-0.5,32.4c8.7,13.9,20.4,7.5,24.6,2.8c4.3-4.7,5.5-14-1.7-22.5
					C508.6,395.2,498.1,397.3,492.3,389.9z"/>
				<path class="st3" d="M497.1,403.5c0,0,2.4,15.3,13.1,19.8"/>
			</g>
			<g>
				<path class="st1" d="M542.1,430.4c-7.9-12.7,0-32.9,16.4-37.3c19.9-5.4,28.2,11.2,39.6,10.7c0.7,0,1.3,0.7,1,1.4
					c-2.4,6-12.1,27.7-29.3,33.1C556.2,442.6,546.8,438,542.1,430.4z"/>
				<path class="st3" d="M548.8,426c0,0,8.8-18.8,36.8-18.2"/>
			</g>
			<g>
				<path class="st1" d="M552.8,463.9c4.2-14.3,18-18.2,31.4-9.1c13.4,9.1,19.3,8.5,19.3,8.5s0.4,27-24.5,27.9
					C558.2,491.9,549.7,474.3,552.8,463.9z"/>
				<path class="st3" d="M559.2,462c0,0,13.3-4.7,29.4,11.6"/>
			</g>
			<path class="st3" d="M506.7,510.9c0,0,17.4-17.2,29.6-0.3"/>
			<path class="st1" d="M535.9,510.4c0,0-5.9,11.1,2.9,17.9c10.1,7.8,20-2.7,22.3-5.4c0.2-0.3,0.1-0.7-0.2-0.9
				c-1.8-0.7-5.9-3.4-8.5-7.6C547.6,506.6,541.2,507.6,535.9,510.4z"/>
		</g>
		<path class="st3" d="M539.8,514c0,0,1.9,8.6,12.4,8.8"/>
	</g>
	<g>
		<path class="st2" d="M401.2,736.6c10.5-9,24.3-2.7,32.5-9c8.2-6.3,16.8-13.6,25.9-2.6c9.1,11,9.1,12.9,18.3,9.2
			c9.1-3.7,17.6,3.4,15.5,11.9c-2.1,8.5-6,14.9-14,21.3s-11,14.2-13.7,22.5c-2.8,8.3-14.9,16.5-27.1,15.8
			c-12.2-0.6-12.9,1.2-24.4,5.8c-11.5,4.6-17.6-5.2-17-13.7c0.6-8.5-7.1-8.5-6.3-18.9c0.8-10.4,8.5-8,6.3-20.7
			S397.9,739.4,401.2,736.6z"/>
		<path class="st3" d="M412.6,792.4c0,0,14.2-39.5,55.9-57.4"/>
		<path class="st3" d="M402.7,768.9c0,0,14.9,1.8,29.7-7.8c-5,19.1-0.8,32.6-0.8,32.6"/>
		<path class="st3" d="M412.6,750.6c0,0,16.5,5,32.3-1.3c-4.1,16.9,2.2,39.3,2.2,39.3"/>
		<path class="st3" d="M465.6,736.3c0,0-8.4,18-4.8,37.2"/>
		<path class="st3" d="M432.4,738c0,0,13.4,3.3,33.2-1.7"/>
	</g>
	<g>
		<path class="st3" d="M97.6,469.4c0,0,16.5,9.7,13.7,41.1c-4,44.8,19.9,45.5,16.4,72.8"/>
		<path class="st3" d="M122.6,485.3c0,0-11.1,8.5-11,14.8"/>
		<path class="st3" d="M90.7,525.9c0,0,11.2-10.4,20.5,1.8"/>
		<path class="st1" d="M51.5,554.3c0,0,7.8-9.5,7.4-20.3c-0.4-10.7,5.5-20,18.4-17.9c12.9,2.1,23,18.8,11.6,30.6
			C77,559,51.5,554.3,51.5,554.3z"/>
		<path class="st1" d="M86.3,529c0,0-14.9-0.2-20.5,15.6"/>
		<path class="st1" d="M75.3,448.1c0,0,5.5,4.4,5.3,13.6c-0.2,9.2,10.1,10.2,16.8,7.5c4-3.7,6.5-12.9,0.5-19.2
			C89.5,441.4,75.3,448.1,75.3,448.1z"/>
		<path class="st3" d="M86.2,454c0,0,6.8,2.5,9.2,10.2"/>
		<path class="st3" d="M106.9,551.9c0,0,6.3-5.2,11.4-0.3c0,0-0.3-11.9,9.4-14.2"/>
		<path class="st1" d="M84.7,565.4c-0.4,0.1-0.7-0.3-0.6-0.6c0.4-1.5,1.3-4.6,2.1-7.5c1.3-4.7,4.1-12.2,13.8-10.8s9.8,12.9,4.5,16.8
			C98.8,567.3,88.8,564.3,84.7,565.4z"/>
		<path class="st3" d="M92.2,558.9c0,0,3.6-5.9,11.3-5.9"/>
		<path class="st1" d="M144.3,511.7c0,0,6.2,9.2,0.5,20.3c-5.6,11.1-18.4,9.2-20.3,0.2c-2-8.9,5.4-14.1,10.8-15.5
			S144.3,511.7,144.3,511.7z"/>
		<path class="st1" d="M140.1,523.4c0,0-6.5,0.4-8.8,8"/>
		<path class="st1" d="M156.7,428.2c0,0-0.6,10.1,5.8,20.4c6.3,10.4,5.9,38.6-19.7,41.1c-29.3,2.9-37-26.9-24.3-41.5
			C131.2,433.6,142.9,437.1,156.7,428.2z"/>
		<path class="st1" d="M147.9,443.9c0,0-20.4,7.7-23.5,30.4"/>
	</g>
	<g>
		<path class="st2" d="M558.1,701.5c-10-3.8-8.8-10.3-18.5-16.7c-11.3-7.5-27.3,0.9-34.9-8.7c-7-8.8-25.4-17.5-34.5-8
			c-6.3,6.6-2.9,18.7,8.1,24.9s5.9,16.7,5.3,26.8c-1.2,17.7,9.7,31.3,28.2,36.9c21.6,6.5,24.9-6.7,23.4-16.8
			c-1.4-10.1,1.9-16.6,15.6-16.4C563.6,723.6,571.5,706.6,558.1,701.5z"/>
		<path class="st3" d="M537.5,727.6c-15.5-36.8-49.8-43.2-49.8-43.2"/>
		<path class="st3" d="M541.4,699.2c0,0-7.5,8.6-7.6,20.9c-17.1-3.4-31.4,14.2-31.4,14.2"/>
		<path class="st3" d="M523.1,688c0,0-4.8,5.8-1.2,16.1c-19.9-4.3-28.6,11.1-28.6,11.1"/>
		<path class="st3" d="M487.7,694.8c0,0,6.8-5.5,19.9-2.1c0,0-4.9-4.8-3.9-10.7"/>
	</g>
	<g>
		<path class="st8" d="M545.6,738c1.5,9-17.9,16.7-11.2,25.5c6.7,8.9,27.2-3.7,37,2.4s18,24.8,35.2,22.3c17.1-2.4,19-10.4,26.6-21.1
			s26-13.1,23.8-25.1c-2.1-11.9-17.1-5.2-30.6-19.9c-13.5-14.7-21.1-20.5-36.1-18.7c-15,1.8-15.9,10.4-31.2,6.7
			c-15.3-3.7-30,2.2-28.1,13.8C532.4,732.1,544.1,728.8,545.6,738z"/>
		<path class="st3" d="M545.6,738c0,0,43.2-18.7,80.2,0"/>
		<path class="st3" d="M599,715.1c0,0-6,10.1-21.3,15.1c22.1,5.2,35.8,32.3,35.8,32.3"/>
		<path class="st3" d="M570.1,720.3c0,0-4.9,11.4-11.9,13.6c0,0,16.2,2.9,28.6,18.6"/>
		<path class="st3" d="M627.9,752.4c0,0-7.3-16.8-20.1-20.8c0,0,6.1-2.9,10.1-8.7"/>
	</g>
	<g>
		<path class="st3" d="M386.6,352.5c0,0,3.9-0.8,7.9,0.1"/>
		<path class="st1" d="M369.9,305.3c0,0,1.2,8.1,0,14.1c-1.2,6,0.7,18.5,16.2,14.9c0,0,10.1-4.9,5.5-16.5
			C386.2,304,369.9,305.3,369.9,305.3z"/>
		<path class="st1" d="M352.3,353.4c0,0,5.9,18.5,21.1,16.4c15.2-2.1,13.3-17.3,13.3-17.3s-4.5-8.6-14.3-8.6
			C362.4,343.8,359,353.5,352.3,353.4z"/>
		<path class="st3" d="M365.6,355.5c0,0,7.5-8.6,21-3"/>
		<path class="st3" d="M401.1,367.5c0,0,6.9-0.5,10.6,4.1"/>
		<path class="st3" d="M410.8,347.4c-7.9,3.8-5.5,13.6-5.5,13.6"/>
		<g>
			<path class="st1" d="M379,376.1c-0.3-0.2-0.3-0.7,0-0.9c1.1-0.9,2.4-3.4,3.9-6.3c2.7-5.1,8.7-9.7,18.2-1.5c0,0,1.2,8.2-6.8,11.3
				C387.7,381.2,381.1,377.5,379,376.1z"/>
			<path class="st3" d="M385.6,372.1c0,0,4.7-6.7,15.6-4.7"/>
		</g>
		<path class="st1" d="M428.4,342.6c0,0-5.5-5.8-11.2-4.9c-5.8,0.9-8.1,6.8-6.4,9.8c1.6,2.9,7,5.5,11.1,2.5
			C425.2,347.4,424.1,344.2,428.4,342.6z"/>
		<path class="st3" d="M420.7,341.6c0,0-6.9-0.3-9.9,5.9"/>
		<path class="st3" d="M378.8,316.3c0,0,6.9,5.9,7.7,21.9c1.1,20.4,24.9,13.3,27.1,43.4"/>
	</g>
	<path class="st10" d="M298,874c0,0-2.6,8.5,4.4,11.7c0,0-1.2,7,5.8,7.6"/>
	<path class="st7" d="M365.6,834.4c-2.5-3.9,6.7-9.6,10.3-6.5c2.2,1.8-1.5,5.3-4.1,6.5C369.4,835.5,366.5,835.8,365.6,834.4z"/>
	
		<ellipse transform="matrix(0.8298 -0.5581 0.5581 0.8298 -426.1628 309.9699)" class="st7" cx="295.1" cy="853.6" rx="2.5" ry="3.1"/>
	
		<ellipse transform="matrix(0.7563 -0.6542 0.6542 0.7563 -500.2195 466.0745)" class="st7" cx="375.5" cy="904.5" rx="5.2" ry="2.8"/>
	<path class="st10" d="M354.1,903.6c-0.1-0.4-0.9-3,3-4.9c3.9-1.9,1.3-3.3,4.8-6.5c3.4-3.2,5.2-2.5,6.3-6.6"/>
	<g>
		<path class="st8" d="M513.6,285.4c0,0,4.4,13.8,20,6.8C533.6,292.2,526,277.4,513.6,285.4z"/>
		<g>
			<circle class="st4" cx="516.3" cy="293.6" r="8.3"/>
			<g>
				<circle class="st4" cx="519.1" cy="289.6" r="0.4"/>
				<circle class="st4" cx="517.3" cy="287.9" r="0.4"/>
				<circle class="st4" cx="515.3" cy="289.4" r="0.4"/>
				<circle class="st4" cx="517.1" cy="291" r="0.4"/>
			</g>
		</g>
		<path class="st8" d="M515.9,256.5c0,0-8,12.5,1.8,20.4C517.7,277,527.6,269.1,515.9,256.5z"/>
		<path class="st8" d="M510.7,282.2c0,0-7-8.8,4.7-17.8C515.5,264.5,521.6,278.9,510.7,282.2z"/>
		<path class="st8" d="M505.6,321.9c0,0,9.2-9.7,0-16.7C505.6,305.2,496.5,311.9,505.6,321.9z"/>
		<path class="st8" d="M509.1,301.7c0,0-5.1,13,8.4,17.9C517.6,319.7,521.2,304.7,509.1,301.7z"/>
		<path class="st8" d="M486.6,316.7c0,0-2.8-13.3,8.6-17C495.2,299.7,500.7,312.7,486.6,316.7z"/>
		<path class="st8" d="M484.2,288.1c0,0,14.1,4.9,18.6-10.1C502.7,278,489.6,273.1,484.2,288.1z"/>
		<path class="st8" d="M497,297.5c0,0-6.3-12.3,3.8-18.9C500.8,278.6,509.6,289.8,497,297.5z"/>
		<path class="st8" d="M497.7,264.5c0,0-3.3,13.2,13,16.2C510.7,280.6,512.1,264.2,497.7,264.5z"/>
		<path class="st8" d="M468.7,276.8c0,0,5.8,12.1,20.1,4.9C488.8,281.7,480.9,269.3,468.7,276.8z"/>
		<path class="st8" d="M487.4,277c0,0,11.5-7.4,3-20.1C490.4,256.9,479,263.1,487.4,277z"/>
		<path class="st8" d="M468.8,270.4c0,0,13.8,2.5,18.6-14.3C487.4,256.2,474.6,252.8,468.8,270.4z"/>
		<path class="st8" d="M463.4,301.4c0,0,12.7-2.3,9.7-15.6C473.1,285.8,462,286.8,463.4,301.4z"/>
		<path class="st8" d="M467.7,247.8c0,0-15.2,2.6-13.9,15.5C453.8,263.3,466.3,266.9,467.7,247.8z"/>
		<path class="st8" d="M436.3,282.4c0,0,13.6,3.6,17.4-12.6C453.7,269.7,441,265,436.3,282.4z"/>
		<path class="st8" d="M449.2,287.7c0,0,12.3-5.8,5.5-19.6C454.7,268.1,442.7,272.8,449.2,287.7z"/>
		<path class="st8" d="M432.1,258.6c-0.7,0.7,11,10.9,18.9-0.7C451,257.9,442.8,248.2,432.1,258.6z"/>
		<path class="st8" d="M448.2,237.8c0,0-6.1,15.5,6.6,20.2C454.9,257.9,463.5,248.7,448.2,237.8z"/>
		<g>
			<circle class="st4" cx="501.5" cy="305" r="8.3"/>
			<g>
				<circle class="st4" cx="500.7" cy="301.3" r="0.4"/>
				<circle class="st4" cx="498.2" cy="301.5" r="0.4"/>
				<circle class="st4" cx="498" cy="304" r="0.4"/>
				<circle class="st4" cx="500.4" cy="303.8" r="0.4"/>
			</g>
		</g>
		<g>
			<circle class="st4" cx="463.2" cy="283.4" r="8.3"/>
			<g>
				<circle class="st4" cx="466.9" cy="279.9" r="0.4"/>
				<circle class="st4" cx="466.2" cy="282.3" r="0.4"/>
				<circle class="st4" cx="468.5" cy="283.3" r="0.4"/>
				<circle class="st4" cx="469.1" cy="281" r="0.4"/>
			</g>
		</g>
		<circle class="st8" cx="501.5" cy="278.6" r="8.3"/>
		<g>
			<circle class="st11" cx="501.6" cy="274" r="0.4"/>
			<circle class="st11" cx="499.5" cy="272.9" r="0.4"/>
			<circle class="st11" cx="497.9" cy="274.8" r="0.4"/>
			<circle class="st11" cx="500.1" cy="275.9" r="0.4"/>
		</g>
		<g>
			<g>
				<path class="st2" d="M443.9,253.8c0,0,15.5,10.2,24.2,25l1.5-3.8c0,0-7.4-14-22.9-23L443.9,253.8z"/>
				<path class="st2" d="M466.6,253.8c0,0-2.7,14.2,2,29c7.7,24.3-3.1,44.3-5.5,57.1c-2.5,13.2-9.7,19.8-2,20.5
					c9,0.7,14.9,2.7,14.3-9.2c-0.7-14-1.7-32.7,4.7-39.9c6.3-7.2,20-9.6,29.4-21.2c9.4-11.7,22.4-11.7,22.4-11.7l-2.1-6
					c0,0-14,0.6-23.2,11.6c-7.6,9.1-18.4,16.7-22.4,14.6c-4-2.1,2-7.9,4.6-15c2.8-7.5,8.4-18.4,15.2-20.1l-5.9-3
					c0,0-7.8,5-13.9,21.7c-4.8,13-8.9,3.2-10.6-4s-3.6-17.1-0.6-22.8L466.6,253.8z"/>
			</g>
		</g>
		<path class="st8" d="M430.6,248.5c0,0,9,13.2,20.5,2.1C451,250.6,446,241.5,430.6,248.5z"/>
		<path class="st8" d="M462.9,244.8c0,0,2.5,18,19.6,13.3C482.5,258.1,481.2,244.8,462.9,244.8z"/>
		<path class="st8" d="M489.2,240.3c0,0-3.1,16.1,12.3,18.9C501.5,259.2,505,245.2,489.2,240.3z"/>
		<path class="st8" d="M530.5,256.2c0,0-13.9,5.3-11.2,16.9C519.3,273.1,533.9,272.2,530.5,256.2z"/>
		<path class="st8" d="M537.6,280.9c0,0-14.1,4.4-18.9-7.7C518.7,273.1,531.2,266.2,537.6,280.9z"/>
		<path class="st8" d="M494,258.8c0,0,2.4,12.8,20.3,5.4C514.3,264.2,505.1,252.1,494,258.8z"/>
		<g>
			<circle class="st4" cx="446.7" cy="266.3" r="8.3"/>
			<g>
				<circle class="st4" cx="449.3" cy="262.5" r="0.4"/>
				<circle class="st4" cx="448.3" cy="264.7" r="0.4"/>
				<circle class="st4" cx="450.3" cy="266.2" r="0.4"/>
				<circle class="st4" cx="451.3" cy="263.9" r="0.4"/>
			</g>
		</g>
		<g>
			<circle class="st4" cx="489.3" cy="258.1" r="8.3"/>
			<g>
				<circle class="st4" cx="491.7" cy="254" r="0.4"/>
				<circle class="st4" cx="491.1" cy="256.4" r="0.4"/>
				<circle class="st4" cx="493.3" cy="257.4" r="0.4"/>
				<circle class="st4" cx="494" cy="255.1" r="0.4"/>
			</g>
		</g>
	</g>
</g>
</svg>
