<svg id="圖層_1" data-name="圖層 1" xmlns="http://www.w3.org/2000/svg" viewBox="0 0 754.23 1066.7"><defs><style>.cls-1,.cls-4{fill:none;}.cls-2{fill:#e2545b;}.cls-2,.cls-3,.cls-4,.cls-5,.cls-6,.cls-7,.cls-9{stroke:#000;stroke-linejoin:round;stroke-width:0.26px;}.cls-3{fill:#cee5ca;}.cls-5,.cls-8{fill:#fff5e6;}.cls-6{fill:#2e8e89;}.cls-7{fill:#f7d5bc;}.cls-9{fill:#fff;}</style></defs><title>all</title><rect class="cls-1" x="-43.83" y="-1148.69" width="841.8" height="1190.55"/><path class="cls-2" d="M552,88.1c4.21.7,2.46,106.46,4.81,151.06S560.44,330,560.44,330l-11.6,1.34s0-60.46,1.79-100.88C552.89,178.7,546.23,87.15,552,88.1Z"/><path class="cls-3" d="M548.36,99c3.37-1.88,7,10.16.25,11.63,0,0,.56,21.11-9.62,14.37,0,0-1.45,12.18-7.59,17.65s-11.82-.3-13.38-2.1c-2,5.09-10.19,11.45-13.47,5.54-4-7.12,8.73-12.82,23.41-25.25C542.4,108.58,544.47,101.15,548.36,99Z"/><path class="cls-3" d="M553,124.37c2.75-.62,11.12,15.06,30.16,26.42,19.46,11.6,24.87,14.18,24.88,18.63s-11.29,12.84-17.16-.53c0,0-1.81,7-7.88,6.73-7.12-.3-14.45-9-16.21-16.23,0,0-6.4,4.63-11.57-1-4.33-4.68-2.3-13.93-.19-16.44C550,140.27,547,125.73,553,124.37Z"/><path class="cls-4" d="M554.07,102.71s9.24,15.05,23.29,22.4"/><path class="cls-4" d="M564.36,115.34s-.14,9.7,8.58,13.89"/><path class="cls-4" d="M550,137.72s-7.6,17-29.51,30.68"/><path class="cls-4" d="M537.33,154.91s.59,6.3-2.49,9.78"/><path class="cls-5" d="M549,167.31c4.22-.18,8.12,18.95-2.64,21.82,4.68,6,1.4,36.06-16.2,34.13,0,0-1.53,15.78-10.72,20.2s-15.65-5.77-15.09-12.75c0,0-1.82,10.73-8.11,10.07s-10.36-9.94-4.38-14.13c11.12-7.78,20-16.26,33.52-29.27C546.38,177.19,545.62,167.46,549,167.31Z"/><path class="cls-4" d="M555.46,180s26.38,31.54,56.69,43.1"/><path class="cls-4" d="M571.42,196.28s-3.47,13.55,10.32,25.86"/><path class="cls-5" d="M588.58,209s-3.15,5.73-1.66,9.81,6.45,3.66,6.45,3.66a6.36,6.36,0,0,0,3.61,6.22c4.09,2,7.57-2.41,7.57-2.41s7.6,8.91,11.39,3.35c1.79-2.64,1.36-5.16-9.44-10.21C599.06,216,588.58,209,588.58,209Z"/><path class="cls-4" d="M550.82,225.25s-4,11.94-20,24.36"/><path class="cls-4" d="M540.32,241s1.82,7-3.12,11.85"/><path class="cls-3" d="M554.9,221.3c3.67-1.63,4.85,12.21,38.56,33.37,33.22,20.86,45.76,21.12,43.19,29.91-2.52,8.63-14.86-1-14.86-1s-.38,12.09-13.28,12.69-22-16.81-23.66-24.14c0,0-2.51,6.34-9,3.9-7.35-2.77-11.94-14.63-10.1-23.2,0,0-15.78-4-9.24-20.36C554.62,230.17,551.56,222.79,554.9,221.3Z"/><path class="cls-3" d="M549,254c3.53.12,6,7.3,1.64,12.41-.08.32,7.89,8.41.79,22.65-5,10-12.46,10.59-12.46,10.59s-4,20.7-14.43,12.67c0,0-1,31.65-17.83,16.07,0,0-6.86,18-16.37,8.94s10.74-19.61,29.07-42.67C542.39,265.71,543.69,253.84,549,254Z"/><path class="cls-2" d="M252.35,151.4c5.75.64,2.37,185.68,3.84,222.42S263,544,259.39,583.46L250.6,583S249,400.92,249.23,349.74,244.2,150.49,252.35,151.4Z"/><path class="cls-5" d="M253.34,161c2.39-.26,7.84,10.66,20.6,20.07,10.57,7.8,17.25,8.58,20.51,12.2s1.84,9.55-2.83,9.42-5.83-5.53-5.83-5.53,0,4.78-4.69,4.54-9.78-6.63-10.1-13.33c0,0-3.17,3.18-6.63,1.22s-5.55-6.75-5.3-11.52c0,0-5.81-1.17-4.85-9.49C254.22,168.58,251,161.26,253.34,161Z"/><path class="cls-3" d="M250.84,174.45c2.33.06,5.31,11.48-.59,11.24,0,0,1.31,18.93-7.83,14.14,0,0,.82,11-6.36,13.72s-10.76-4.39-11-6.35c0,0-1.36,6.06-6.35,7s-7.89-4.66-5.47-8.36,12.23-7,22.68-15.59C248.24,180,248.75,174.39,250.84,174.45Z"/><path class="cls-4" d="M255.53,197.89a187.15,187.15,0,0,0,34.73,30.74"/><path class="cls-4" d="M273.67,215.8s-.25,16.48,19.24,25.32"/><path class="cls-3" d="M254.54,216.74c1.77.89,19,34.49,55.45,52.7a5.26,5.26,0,0,1,2.89,5.31c-.38,3.2-1.89,7.35-7.05,8.39-8.69,1.75-13.11-8.63-13.11-8.63s-1.21,8.29-9.78,7.75-15.77-16.81-16.63-25.61c0,0-6.32,4.7-10.9-6.94s1.22-16.77,1.22-16.77a15.74,15.74,0,0,1-4.49-9.63C251.56,217.81,253.38,216.15,254.54,216.74Z"/><path class="cls-4" d="M247.78,212.86s-10,12.7-22.09,18.82"/><path class="cls-4" d="M240.36,220.87s2.22,6.82-5.28,14.11"/><path class="cls-3" d="M247.92,236.34c2.46-.51,5,5.65,1.5,8.21,0,0,.72,12.53-9.64,11.7,0,0,1,9.59-3.59,13.5-3.62,3.08-7.1-.83-7.43-3.12,0,0-4.1,7.77-11.08,8.46-8.16.8-9.93-7.58-9.93-7.58s-2.25,3.83-5.69,2.74-3.86-4.45-2-5.8,16.6-6.24,26.53-12.13C242.13,243.1,245.58,236.83,247.92,236.34Z"/><path class="cls-4" d="M255.87,271.9s19.62,22.63,38.95,33.81"/><path class="cls-4" d="M274.78,290.79s-1.43,9.56,15.26,20"/><path class="cls-3" d="M256.71,288.56c3.25,1.14,8.34,17.61,37,38.14s34.47,20.62,40.55,27.15-.84,16.09-11.77,7.45c0,0,.71,14.11-8.61,14.24s-17-13.71-18.64-20.62c0,0-1.84,5.2-7.12,3.28-6.14-2.25-9.39-10.76-8.72-19.63,0,0-8.25,1.14-13-10.77-3.78-9.5-1.31-16-1.31-16a10.31,10.31,0,0,1-10.07-7.67C252.19,294.64,254.55,287.8,256.71,288.56Z"/><path class="cls-4" d="M248.44,281.88a53.59,53.59,0,0,1-20.19,17.67"/><path class="cls-4" d="M238.23,293s2.84,2.37-5,10.48"/><path class="cls-4" d="M255.89,359.92s29.31,28,68.8,46.84"/><path class="cls-4" d="M274.47,375.51s-2.88,9.24,11.6,18"/><path class="cls-5" d="M295.78,389.15c-1.8.3-2.34,5.66,1.7,13.14,5.09,9.45,9,1.41,9,1.41s9.68,16.87,13.41,6.91c0,0,8.4,8.24,11.19,3.9,2.7-4.19-8.44-9.68-16.9-14.78C306,394.78,298.06,388.78,295.78,389.15Z"/><path class="cls-3" d="M255.24,372.51c4.22.22,8.74,19.42,48.28,53.06s44.72,33.57,50.25,44.25-5.2,17.26-15.58,5.58c0,0-.78,8.42-10.22,6.3s-16.38-14.52-18.88-29.35a20.1,20.1,0,0,1-20.9-.65c-11.07-7-27-31.82-27.93-59.58a12.32,12.32,0,0,1-7.11-9.05C251.75,376.4,253.69,372.42,255.24,372.51Z"/><path class="cls-5" d="M248.75,305.5c2.14,2.24,3.22,9.82-6.7,16.2,0,0,3.78,14.81-10.65,17.07,0,0-7,13.83-14.72,21.46s-14.65,3.68-13.42-3.57c0,0-9.84,2.93-10.27-3.26s8.36-9.26,19.4-18.2c12.44-10.06,19-16.95,34.19-29.82A1.61,1.61,0,0,1,248.75,305.5Z"/><path class="cls-2" d="M484.52,131.37c3.59,0,2.78,61.35,2.53,89.48s-.5,70.3-.81,115.55-4.73,80.54,1,128.06l-8.6,3.35s-2-38.88-4-84.18,2.36-99.89,3.8-122.08C482.6,197.18,481.28,131.34,484.52,131.37Z"/><path class="cls-3" d="M484.11,159.5c1.54-.07,4,7.05,15.9,16,4.08,3.05,13.71,7,14.1,11,.52,5.26-5.06,6-7.78.51,0,0-.81,2.85-3,3.34s-6.07-.56-6.52-7.82c0,0-6.35,4.92-6.91-9.29,0,0-4.64.68-6.36-4.6C482,164.1,482.87,159.57,484.11,159.5Z"/><path class="cls-3" d="M483.1,140.48c2.2-.15,3.22,7.22-.61,8.66,0,0-1.92,22.36-8.27,13.64,0,0-1.85,12.48-6.56,13.67s-4.64-6.1-4.64-6.1-1.45,10-6.4,10.21-4.59-8.2.81-11.8a89.57,89.57,0,0,0,18.9-18.37C480.55,144.53,481.52,140.59,483.1,140.48Z"/><path class="cls-4" d="M481.84,171.39A50.41,50.41,0,0,1,459,188.73"/><path class="cls-4" d="M472.34,181.16s5.59,4.13-7.93,13.88"/><path class="cls-3" d="M483.32,187.38c3.59.06,7.36,16.85.49,17.85,0,0-4,31.09-14.3,17.6,0,0,.19,13.72-8.19,17.86s-11.25-3.69-11.09-10c0,0-3,13.7-13,13.08s-10.74-15-3.53-19.24,20.25-9.88,32.7-20.81C480.56,191.27,480.71,187.33,483.32,187.38Z"/><path class="cls-4" d="M487.25,195.7S497.4,213,521.1,223.51"/><path class="cls-4" d="M500.11,210.21s-10,6.94,18.23,22.85"/><path class="cls-3" d="M482.31,228.87c3.32,0,6.46,15.43,27.9,31.32s26.47,15.35,28.87,21.27-3.48,19.11-16,2.16c0,0-2,10.78-11,9.4s-15.14-12.08-15.93-20.86c0,0-1.19,4.16-4.91,2.54s-9.13-11.73-4.47-23.92a13.08,13.08,0,0,1-7.17-10.15C478.51,233,479.3,228.85,482.31,228.87Z"/><path class="cls-4" d="M479.59,240.63s-17.19,22.72-44.43,32.05"/><path class="cls-4" d="M469,251.91s7.75,1-5,16.27"/><path class="cls-5" d="M461.68,258.29c.54,2,1.29,6.86-3.64,8.75,0,0-.38,5.57-2.61,9.1s-5.71,2.2-6-.4c0,0-3.52,6.35-7.23,7.23s-4.74-3.41-3.18-5.57c0,0-3.91,4.37-6.7,3.38-3.14-1.12-2.61-5.85,1.19-7.71s18.25-7.57,27.24-15.07A.6.6,0,0,1,461.68,258.29Z"/><path class="cls-4" d="M486.59,283.5s8.23,28.88,47,38.68"/><path class="cls-4" d="M501.29,305.28S495,313.56,518.37,324"/><path class="cls-4" d="M475.36,311s-9.3,14.08-23.29,23.07"/><path class="cls-4" d="M464.92,323.5s5.93,2.67-3.51,11.82"/><path class="cls-3" d="M476.42,270.7c3.61-.47,6.43,14.05.31,16.06,0,0,4.16,10.25-4.19,13.63,0,0-6.66,25.82-17.41,17.1,0,0-6.37,16.55-16,21.95-11.18,6.24-12.49-8.56-12.49-8.56s-9.42,7.24-12.07-1.05,5.1-9.53,18-18.19C471,285.94,473.46,271.08,476.42,270.7Z"/><path class="cls-3" d="M477,321c4-.5,5.84,13.32,27.88,29.86,20.69,15.55,33,18.51,32.67,25s-10.81,10.18-17.61-1.19c-1.33.87-5.8,7.15-12.39,5.77S499,369.49,499,369.49s-1.07,4.94-5.32,4.05-12.48-8.37-9.94-21.91c0,0-9.95-4.1-7-20.52,0,0-1.77-.62-2.33-4.08C473.85,323.94,475.46,321.22,477,321Z"/><path class="cls-3" d="M475.74,347.68c3.34-2.24,6.35,3.67,3,6.52,0,0,2.29,17.25-6.42,16.21,0,0-1.05,11.49-6.37,17.94-5,6.08-8.46-1.37-8.46-1.37s-.84,17-12.11,21.59c-12.57,5.07-14.58-10.45-14.58-10.45s-5.2,13.17-15.34,10.25a7.12,7.12,0,0,1-4.9-5.27,12.37,12.37,0,0,1,7.22-14.64c7.09-3,18.14-9.21,29.36-16.79C465.57,359.26,472.12,350.12,475.74,347.68Z"/><path class="cls-4" d="M475.08,394.17s-12.25,23.47-30.46,42.74"/><path class="cls-4" d="M465.08,410.75s6.75.1-3.29,21.58"/><path class="cls-3" d="M478.29,398.22c5-1.09,21.15,25.45,46,32.28s16.47,27.49-1,25.78c0,0-19.13,9.29-23.57-15.24,0,0-15.62-6.62-16.83-29.57,0,0-2.87,0-5.09-3.68S475.34,398.86,478.29,398.22Z"/><path class="cls-4" d="M485.27,374.4s10.56,18,37.17,30.43"/><path class="cls-4" d="M497.18,388.11s-5.21,7.67,10.28,15"/><path class="cls-3" d="M512.44,399.48a11.62,11.62,0,0,0,.83,8.52c1.93,3.59,5,2.53,5.21.85,0,0,5.48,5.42,8,1.76C528.77,407.38,521.82,403.27,512.44,399.48Z"/><path class="cls-5" d="M458.52,423.32a3,3,0,0,1-1.57,3.13s2,9.08-3,8.31c0,0-.17,7.19-3.21,9.25s-4.19-3-4.19-3-1.15,6.45-3.75,4.76-2.56-7,2.3-11.44a124.19,124.19,0,0,0,10.57-11.83A1.62,1.62,0,0,1,458.52,423.32Z"/><path class="cls-3" d="M477.75,430.77c4.24,1.49,6.46,63.53-20.68,48.19,0,0,.39,9.38-5.71,20.21-5.92,10.53-16.1,8.35-17.42,1.24,0,0-2.88,9-10,5.76s-8.37-16-1.6-20.23,16-10,30.35-24.64C469,444.67,474.76,429.72,477.75,430.77Z"/><path class="cls-5" d="M506.2,317s-1.94,8.93,4,9.22c0,0,2.67,6.77,8.87,1.93,0,0,3.6,2.31,4.49,0C524.64,325.17,516.08,322.26,506.2,317Z"/><path class="cls-2" d="M92.88,849.47S104,860.88,114.18,883s20.78,36.79,40.54,45.31,54.16,16,76.3,19.41,36.44,6.81,59.26,17,56.55,18.74,101.85,12.6,58.24-20.43,90.26-30,51.44-14.46,93-32.95,41.69-15.45,57.68-29.26,20.39-16.78,28.08-27.6,15.24-33.71,14.21-49.09c0,0-176.39-35.15-173.53-35.15S265,796.23,265,796.23Z"/><path class="cls-3" d="M102.06,828.69,112,822l202.31-96.22H585.68s41.24,8.7,66.94,36.17,33.42,56.72,3,85-66.78,23.21-109.69,40.5-65.47,26.06-106,32.19-92.25-16.11-113.28-19.19-86.55-11.92-109.37-14.49-77.84-5.25-94.64-18.08-31.41-14.61-32.18-23.21,11.58-15.9,11.58-15.9"/><path class="cls-6" d="M246.1,786.24c2.83,5.3,62.39,46.33,62.39,46.33s37.63,15.86,44.63,20.17S398,861,398,861l69-29.73L496,807s37.46-43-25.26-74.22c0,0-110.13-4.19-144.27,3.49-22.9,5.16-79.15,35-79.15,35Z"/><path class="cls-4" d="M329.61,485.06s-18.22,16-24,53.23"/><path class="cls-4" d="M329.61,491.93a30,30,0,0,0-8.55,3.77"/><path class="cls-4" d="M331.09,497.09s-9.19,2.38-14.54,6.42"/><path class="cls-4" d="M328.89,506.39s-11.74,3-17.6,9.33"/><path class="cls-4" d="M328.89,513.29s-12.94,3.17-20.36,11.26"/><path class="cls-4" d="M328.89,523.75a46.39,46.39,0,0,0-22,7.46"/><path class="cls-4" d="M322.3,531.21S311.42,533.07,306,536"/><path class="cls-4" d="M363.75,523.75S338,526.11,317.91,562.3"/><path class="cls-4" d="M359.25,530a17.36,17.36,0,0,0-7.6-2.31"/><path class="cls-4" d="M356.29,536.56a28.6,28.6,0,0,0-13.4-3.57"/><path class="cls-4" d="M352.59,542.35s-7.92-4.24-16.71-3.6"/><path class="cls-4" d="M349.59,549.07s-9.81-5.82-19.11-4.76"/><path class="cls-4" d="M346.74,555.41s-8.11-5.65-20.87-5.44"/><path class="cls-4" d="M344,564.41A47.31,47.31,0,0,0,321.05,557"/><path class="cls-5" d="M185.83,498.67c11.23.26,17.5-7.32,25.3-.91,10.31,8.47,8.53,27,18.91,27,9.1,0,6.46-15.21,22.61-16.16,14.26-.83,30.13,2.84,40.16-15.1-5.57-19.15-12.65-32.15-21.36-37.82-11-7.16-11.85-31-16.8-56.76s-20.52-37.69-33.5-27.2c-16.39,13.24-23,53-32,73-4.45,9.87-9.22,28.49-14,47.44C177.63,495.57,181.15,498.56,185.83,498.67Z"/><path class="cls-7" d="M359.8,708.19c-14.43-17.65-29.95-74.65-33.83-102.08s-23.05-68.2-29.09-96.34Q295,501,292.81,493.45c-10,17.94-25.9,14.27-40.16,15.1-16.15.95-13.51,16.16-22.61,16.16-10.38,0-8.6-18.48-18.91-27-7.8-6.41-14.07,1.17-25.3.91-4.68-.11-8.2-3.1-10.72-6.56-4.93,19.44-9.91,39.23-14.64,50.33-9.35,21.93-20.89,73.58-26.24,132.48s15.43,65.88,61.1,76.69,40.17,22,109.88,2.41S374.24,725.83,359.8,708.19Z"/><path class="cls-8" d="M284.4,492.63s5.68-5.52,12.4,2S279.05,509.23,284.4,492.63Z"/><path class="cls-4" d="M284.4,492.63s5.68-5.52,12.4,2S279.05,509.23,284.4,492.63Z"/><path class="cls-8" d="M292.39,496.12s6.8-5,9.1,3.4-.31,17.61,3.07,29.62-9.14,24.29-17.46,22S292.39,496.12,292.39,496.12Z"/><path class="cls-4" d="M292.39,496.12s6.8-5,9.1,3.4-.31,17.61,3.07,29.62-9.14,24.29-17.46,22S292.39,496.12,292.39,496.12Z"/><path class="cls-8" d="M280.3,552.63c7.15,0,16.5-5.11,16.5-18.9s-3-21.92-1.69-26.92-1.28-16-14.81-13.93-13.6,17.36-13.6,32.3S266.26,552.63,280.3,552.63Z"/><path class="cls-4" d="M280.3,552.63c7.15,0,16.5-5.11,16.5-18.9s-3-21.92-1.69-26.92-1.28-16-14.81-13.93-13.6,17.36-13.6,32.3S266.26,552.63,280.3,552.63Z"/><path class="cls-5" d="M279.4,552.63c-6.25-4-5.75-14.3-5.75-14.3"/><path class="cls-5" d="M278.09,529.8s-1.5,17.56,3,22.76"/><path class="cls-5" d="M283.34,538.72s.62,10.34-1.12,13.78"/><path class="cls-8" d="M272.6,546.58s5.68-5.52,12.4,2S267.25,563.18,272.6,546.58Z"/><path class="cls-4" d="M272.6,546.58s5.68-5.52,12.4,2S267.25,563.18,272.6,546.58Z"/><path class="cls-8" d="M280.59,550.07s6.8-5,9.1,3.4-.32,17.6,3.07,29.61-9.14,24.29-17.47,22S280.59,550.07,280.59,550.07Z"/><path class="cls-4" d="M280.59,550.07s6.8-5,9.1,3.4-.32,17.6,3.07,29.61-9.14,24.29-17.47,22S280.59,550.07,280.59,550.07Z"/><path class="cls-8" d="M268.5,606.57c7.15,0,16.5-5.1,16.5-18.89s-3-21.92-1.69-26.92-1.28-16-14.81-13.93-13.6,17.36-13.6,32.29S254.46,606.57,268.5,606.57Z"/><path class="cls-4" d="M268.5,606.57c7.15,0,16.5-5.1,16.5-18.89s-3-21.92-1.69-26.92-1.28-16-14.81-13.93-13.6,17.36-13.6,32.29S254.46,606.57,268.5,606.57Z"/><path class="cls-5" d="M267.6,606.57c-6.25-4-5.75-14.3-5.75-14.3"/><path class="cls-5" d="M266.29,583.75s-1.5,17.56,2.95,22.76"/><path class="cls-5" d="M271.54,592.67s.62,10.34-1.13,13.77"/><path class="cls-8" d="M312.88,537.08s5.67-5.52,12.4,2S307.53,553.68,312.88,537.08Z"/><path class="cls-4" d="M312.88,537.08s5.67-5.52,12.4,2S307.53,553.68,312.88,537.08Z"/><path class="cls-8" d="M320.87,540.57s6.8-5,9.1,3.4-.32,17.61,3.06,29.62-9.13,24.29-17.46,22S320.87,540.57,320.87,540.57Z"/><path class="cls-4" d="M320.87,540.57s6.8-5,9.1,3.4-.32,17.61,3.06,29.62-9.13,24.29-17.46,22S320.87,540.57,320.87,540.57Z"/><path class="cls-8" d="M308.78,597.08c7.15,0,16.5-5.11,16.5-18.9s-3-21.92-1.69-26.92-1.28-16-14.81-13.93-13.61,17.36-13.61,32.3S294.73,597.08,308.78,597.08Z"/><path class="cls-4" d="M308.78,597.08c7.15,0,16.5-5.11,16.5-18.9s-3-21.92-1.69-26.92-1.28-16-14.81-13.93-13.61,17.36-13.61,32.3S294.73,597.08,308.78,597.08Z"/><path class="cls-5" d="M307.88,597.08c-6.25-4-5.75-14.3-5.75-14.3"/><path class="cls-5" d="M306.56,574.25s-1.49,17.56,2.95,22.76"/><path class="cls-5" d="M311.82,583.17s.62,10.34-1.13,13.78"/><path class="cls-5" d="M222.79,530.12c4.12,0,3.05,19.75-1.28,19.2C217.7,548.83,219.12,530.11,222.79,530.12Z"/><path class="cls-5" d="M308.85,649.74c6.55-2.16,7.16,14.38,11.39,20.19s16.18,25.9,13.9,28.89-6,1.76-9.14-4.93-9.74-14.24-13.39-19.91C307.45,667.53,303.6,651.47,308.85,649.74Z"/><path class="cls-5" d="M487.91,466.11c12.41-12.42,27.88-53.56,38.77-52.14s5.54,20.1,18.88,18.2,12.85-48.34,22.38-50.24,7.38,23.57,16.43,24.05c6.23.32,11.22-.59,16,3.32-8.76-41.11-17.23-71.08-21.27-81.78-11.34-30.1-34.23-33.28-40.55-14.52-18.12,53.76-23,95.3-46.61,124.09a88.37,88.37,0,0,0-17.08,32.51C479.1,470.82,483.67,470.35,487.91,466.11Z"/><path class="cls-7" d="M617.51,513.12c-5.11-38.78-10.68-73.78-17.09-103.82-4.83-3.91-9.82-3-16-3.32-9-.48-6.91-26-16.43-24.05s-9.05,48.33-22.38,50.24-8-16.78-18.88-18.2-26.36,39.72-38.77,52.14c-4.24,4.24-8.81,4.71-13,3.49-7.46,25.8-21.19,55.89-24.06,107.14-3.23,57.82-15.71,77.49-35.09,116a17.83,17.83,0,0,1-2,3.11c3.57,3.19,9.72,9.42,13.25,17.19,5.51,12.11,15.6,29.28,22.2,37.91,24.12-.07,49.76-3.88,62.77-8.76,32.32-12.12,100.49,26,110.78,0S629.62,605,617.51,513.12Z"/><path class="cls-7" d="M413.74,695.83c-.43.54-.88,1.07-1.36,1.59,1.77,1.75,6.61,7.17,11.9,18.41,6.14,13,7.75,26.67,11.92,34.74,4.22.26,8.58.37,13,.36-6.6-8.63-16.69-25.8-22.2-37.91C423.46,705.25,417.31,699,413.74,695.83Z"/><path class="cls-7" d="M408,701.58c-6.21,5.58-13.41,12-14.66,27.47-.95,11.77,13,18,32,20.5-3.33-7.21-4.81-17.88-7.88-28.17C414.21,710.42,410,704.13,408,701.58Z"/><path class="cls-7" d="M410.49,699.31c-.79.76-1.62,1.5-2.46,2.27,2,2.55,6.18,8.84,9.44,19.8,3.07,10.29,4.55,21,7.88,28.17,1.93.25,3.92.48,5.94.66-4.58-8.71-8.17-22.77-10.82-31.64A56.2,56.2,0,0,0,410.49,699.31Z"/><path class="cls-7" d="M412.38,697.42q-.9,1-1.89,1.89a56.2,56.2,0,0,1,10,19.26c2.65,8.87,6.24,22.93,10.82,31.64,1.61.14,3.25.26,4.91.36-4.17-8.07-5.78-21.69-11.92-34.74C419,704.59,414.15,699.17,412.38,697.42Z"/><path class="cls-2" d="M299.61,667.93s-8.79-1.59-11.88,5.5,3.92,15.5,12.74,9c0,0,9.36,2.74,13-5.33S308.39,660.91,299.61,667.93Z"/><path class="cls-6" d="M299.12,664.16a48.89,48.89,0,0,1-7.77,3.54s1.13,5.88,7.31,3.17c.53,1.21.46,2.49,2.19,3.17a19.69,19.69,0,0,0,1.43-4.94s4.68.94,5.59-3.21C307.87,665.89,301.08,663.1,299.12,664.16Z"/><path class="cls-2" d="M296.37,693.81s10.38-1.7,13.06,6.59-4.55,13.76-11.72,11.08a7.47,7.47,0,0,1-7.88,1.4c-4.61-1.87-8.22-7.43-5.42-13.24C287.56,693.11,296.37,693.81,296.37,693.81Z"/><path class="cls-6" d="M295,693.16a8,8,0,0,1-7,4,5.77,5.77,0,0,0,7.18,2.92s.12,4,5.48,4.78a10.47,10.47,0,0,1-.52-5.42s4.55,1.28,6.3-1.11C306.46,698.3,300.8,692.46,295,693.16Z"/><path class="cls-2" d="M312.86,641.48s3.59-6,10.5-3.55,8.43,15.18-3.76,17.32c-.45.61-2.53,5.78-9,3.81-6-1.85-5.16-13.59,1.14-15.44A5.46,5.46,0,0,1,312.86,641.48Z"/><path class="cls-3" d="M304.62,621.54c1.76.7-2.26,12.67,0,20.36l-4.45,3.7a45.85,45.85,0,0,1,0-13.27C301.23,624.71,303.11,620.94,304.62,621.54Z"/><path class="cls-3" d="M243.32,664a39.69,39.69,0,0,0,12.6-5.78c6.93-4.62,8.09-6.24,9.24-5.2s-1.27,5.78-12,11.79-12.36,4.51-12.36,4.51Z"/><path class="cls-2" d="M256.34,630.4s1.4-3.7,7.61-3.7,11.17,5.73,9.77,11.65-7.27,8.81-12.75,8c0,0-3.62,4.81-8.91,3.8s-7.49-5.65-6.79-10.83A10.77,10.77,0,0,1,256.34,630.4Z"/><path class="cls-2" d="M232.58,636.92s11.83,3,8.2,13.41c-3.75,10.74-17,7.81-18.64-.88,0,0-7.56-3.53-5.6-10.94S228.87,628.94,232.58,636.92Z"/><path class="cls-3" d="M218.21,710.72s10.77-11.52,15-33.31S241,640,241,640s-8.67-5.48-14-21.56-4.65-17.72-3.29-17.5c1.88.29,10.18,27.09,18.36,31,0,0,6.95-27.94,11.71-26.23s-5.61,21.47-5.74,37.33-6.83,25.26.61,31.6,21.36-6.34,21.36-6.34,5.49-32.21,9.15-31.36-5.74,21-5.25,30.75c0,0,12.81-9,18.42-16.23s10.74-9.64,14.77-14.52,6.82-9.36,8.51-8.78-3.89,11.06-10.45,21-24.07,24.65-24.95,29c0,0,3.79,6.34,12.79,11.25s12.28,2.45,12.65,4.61-7.29,2.9-16.37-1.78-12.87-10.65-12.87-10.65a24.71,24.71,0,0,1-12.58,6.48A25.15,25.15,0,0,0,245.76,702c-3.72,7.52-5.88,9.45-9.53,20.39s-5.73,13.17-5.73,13.17Z"/><path class="cls-6" d="M208.19,612.47s6.11,11.2,18.89,5.95C227.08,618.42,223.44,608.08,208.19,612.47Z"/><path class="cls-6" d="M243.32,611.05s-10.21,4.3-7.53,14C235.79,625,245.17,622.23,243.32,611.05Z"/><path class="cls-6" d="M267.56,630.21c-.91,4.24-5.92,5-5.92,5-.43,3.95-4.19,6.74-4.19,6.74a9.55,9.55,0,0,1-2-4.48,8.59,8.59,0,0,1-7.75-2.84c4.52-1,8.42-5.58,8.42-5.58C256.83,629.1,262.22,632.14,267.56,630.21Z"/><path class="cls-6" d="M277.32,649s3-7.21,15.46-3.55C292.78,645.45,285,655.1,277.32,649Z"/><path class="cls-6" d="M293.23,620s-3.54,14.18,7.24,16.29C300.47,636.32,304.17,625.08,293.23,620Z"/><path class="cls-6" d="M300.85,665.21c-.83-9.05-4.9-11.69-5.81-10.71s3.7,4.6,2.91,12.15"/><path class="cls-6" d="M281,686.54s-9.79,3.24-6.05,18.29C275,704.83,286.26,698.23,281,686.54Z"/><path class="cls-6" d="M311.65,639.94a8.27,8.27,0,0,1,3.74-2.36,11,11,0,0,0,4.39-3.84s1.91,7.61-2.29,8.73c0,0,.69,2.29,4.3,2.82,0,0-3.22,3.61-8.93,1.44a7.51,7.51,0,0,1-8.47,1.22,12,12,0,0,0,5.06-3.65C310.92,642.17,310.17,641.87,311.65,639.94Z"/><path class="cls-6" d="M225.2,629.44a5.46,5.46,0,0,0,3.72,7.22s-1.31,5.39,3.86,7.73c.08-.88-.22-3.79,1.46-5.84a7.45,7.45,0,0,0,8,.22s-3.5-5.11-9-5.32A11.66,11.66,0,0,1,225.2,629.44Z"/><path class="cls-6" d="M233.22,634.6c-.07-2.43,3.06-4.59,2.12-5.52-.53-.53-2.15.58-3.72,4.81"/><path class="cls-6" d="M256.56,634.36s-.18-4.32-2.65-7c-2.19-2.37-4.24-4.2-3.28-5.31s6.24,2.47,7.94,9.56"/><path class="cls-6" d="M311.58,642.85c-.14-2.77-3.51-2.81-3.1-4.39.3-1.17,3.23-.4,4.38,2.1"/><path class="cls-2" d="M184.47,87.28c5.8,1.3-3,191-3.95,314.67s-3.89,225.52,3.95,322.7l-14.13,13.74S164.8,464.49,170,358C175.61,242.55,177.09,85.62,184.47,87.28Z"/><path class="cls-3" d="M179.71,171.29c4.09.24,6.72,20.27-1.1,21.56,6.23,13.26-1.51,38.51-11.61,29.11,3.87,16-30.21,77.57-51.95,38.51,0,0-8.78,20.36-29.75,30.59-19.28,9.4-33.16-11.47-30.89-26.61A5.44,5.44,0,0,1,58.59,260c8.2-1.91,31.82-9.48,67.62-37.74C172.67,185.61,173.76,171,179.71,171.29Z"/><path class="cls-3" d="M184.33,123.19c3.28,0,7,19.28,38.07,35,0,0,1.07,10.95-6.14,10.55s-10.42-8-10.42-8-8.82,9.48-13-11.89c0,0-9.47-.48-7.13-13.72C184.06,132.62,182.36,123.19,184.33,123.19Z"/><path class="cls-3" d="M184.81,98.93c2.28,0,2.56,9.91-.78,11.21,1.3,5.51-5.88,22.09-9.52,13,1.16,13.23-18.46,28.35-19.17,15.25,0,0-13.26,14.22-17.42,6-4.25-8.45,13.49-11.76,27.33-24.35C184.3,102.72,182.74,98.94,184.81,98.93Z"/><path class="cls-4" d="M177.92,146s-29.27,30.42-51.8,45.7"/><path class="cls-4" d="M153.13,169.85s5.45,8.66-9.91,24"/><path class="cls-4" d="M185,198.87s38.87,45.61,67.47,59.11"/><path class="cls-4" d="M210.48,225.75s-5.22,17.26,25.8,37.94"/><path class="cls-3" d="M177.1,230.74c6.55-1.34,20.46,38.48,52.45,67.58S279.92,329,287.5,339c8.91,11.74-1,33.18-14.43,14.91,0,0-2.2,16.59-20.58,15.15S221.37,344.25,220.41,333c0,0-30.18,5.73-40.88-26.22-9-26.84-2.43-52.21,0-57.23C170.35,251.61,169.27,232.35,177.1,230.74Z"/><path class="cls-3" d="M170.9,288.23c5.17-.57,8.29,16.94,0,20.4,0,0,16.24,43.21-6.4,37,0,0,6.05,17.46.87,28S151,379,147,373.62c0,0-6.57,53.07-27.83,53.07s-19.7-37.51-19.7-37.51S82.91,427,66.15,426.69s-18.5-25.93-6.4-32S95.23,372.17,129.48,339,165.41,288.85,170.9,288.23Z"/><path class="cls-4" d="M168.52,404.68S133.89,450.31,98.38,463"/><path class="cls-3" d="M171.87,365.53c7.65-.47,19.95,35.43,64.45,70s68.32,36.28,72.57,46.77-11.34,32-34.59,11.9c0,0-6.8,18.43-26.92,11.91s-24.67-38-24.67-38-11.05,21.54-28.91-9.64-11.05-64.63-11.05-64.63-3.9,9.07-10.88,4.25S162.75,366.09,171.87,365.53Z"/><path class="cls-5" d="M228,239.43s14.29,11.76,23.11,17c9.94,5.87,3.32,12-4.76,2.13,0,0-7.25,1.81-11.68-9.09C234.69,249.44,224.65,250.72,228,239.43Z"/><path class="cls-3" d="M169.79,426.69c8.37,1,5.33,19.69-2,23.15,5.39,12.51-3.43,33.23-14.17,22.06,6.38,42.21-18.72,80.52-31.23,52.92,0,0-9.63,41.84-34.6,49-20.84,6-18-26.37-18-26.37S55.48,578.63,43.2,561c-9.93-14.22,2.5-22.55,11.66-27.24,17.86-9.13,39.4-28.83,75.33-65.91C156.49,440.75,162.4,425.8,169.79,426.69Z"/><path class="cls-4" d="M173.78,260.75S147,296.2,115.64,312.51"/><path class="cls-4" d="M147.92,288.86s5.24,6.17-4.44,19.61-17,24.55-17,24.55"/><path class="cls-4" d="M254,405.76c-31.89-17-72.4-72.74-72.4-72.74"/><path class="cls-3" d="M181.32,470.33c3.21-.85,3.69,3,8.26,11.55C195,492,221.6,529,244.19,550.35c23.3,22.08,33,22.21,38.42,26.92,8.94,7.79-3.1,29.32-19,12.55,0,0-8,14.2-21.75,5s-17.18-28.62-17.18-28.62-13.51,9.16-24.5-7.79S184.38,514.11,187.4,495C176.24,496.3,173.12,472.5,181.32,470.33Z"/><path class="cls-4" d="M167.78,511.4s-4.67,14.2-20.58,24.1"/><path class="cls-4" d="M161.4,522.63s2.32,1.5.61,8a109.94,109.94,0,0,1-5.51,14.68"/><path class="cls-4" d="M179.22,546.88s14.26,21.65,26.18,28.72"/><path class="cls-4" d="M191.05,562.45s-3.83,12.19,10.31,21.26"/><path class="cls-4" d="M197.92,353.75s-1.72,23.56,18.94,41.55"/><path class="cls-5" d="M140.61,435c9,3.13,1.83,11.58,0,11.52.69,11.2-6,8.41-6,8.41-9.34,10.46-12.52,3.17-8.41-1.5A24.89,24.89,0,0,0,131.43,443S131.38,433.14,140.61,435Z"/><path class="cls-4" d="M167.87,537.28s-6.3,19.08-22.83,29"/><path class="cls-5" d="M128.53,304.51c2.08-1.45,3.77,1.56,2.11,4,0,0,4.43,9.58-1.84,8.48,0,0-.19,9.95-6.55,6.63,0,0-3.55,7.63-5.8,5.44s1.81-7.08,5.59-12.61S126.39,306,128.53,304.51Z"/><path class="cls-3" d="M219.9,378.17s2.75,31.27,11.49,20.72c0,0,9,19.07,14.18,9.56,0,0,11.3,9.18,13.19,3.37C260.45,406.6,239.37,397.75,219.9,378.17Z"/><path class="cls-5" d="M135.56,619.12c10.69,1.49,12.92,13.41,15.16,21.11s6.45,17.63,15.4,7.7,18.63-9.44,25.08,0c5.52,8.06,12.3,8.87,16.18.57-.41-1-.81-2-1.22-3-14.71-35.79-21.66-17.16-34.4-44.06-9.92-21-14.34-70.22-30-49.58-10.6,14-17.74,45.41-22.42,74.67C123,622.8,129,618.2,135.56,619.12Z"/><path class="cls-7" d="M236.8,729.81c-10.92-26.13-19.52-56.46-29.42-81.31-3.88,8.3-10.66,7.49-16.18-.57-6.45-9.44-16.14-9.94-25.08,0s-13.17,0-15.4-7.7-4.47-19.62-15.16-21.11c-6.55-.92-12.54,3.68-16.19,7.38-3.52,22-5.66,42.84-6.85,54.08-2.75,26.17,3.1,77.12-2.75,99.49-5.52,21.1-2.1,37.9-2.89,52.64a4.72,4.72,0,0,0,2.37,4.31c13.25,7.78,28.69,3.36,57.35-19.44,30.53-24.28,77.43,15.16,81.21-16.85S248.16,757,236.8,729.81Z"/><path class="cls-5" d="M127.94,647.29c4.35-1.36,2.89,12.37-.38,32.62s-7.69,16.86-7.64,9.11C120,681.66,123.46,648.69,127.94,647.29Z"/><path class="cls-5" d="M197.18,674.89c2.7-1.62,6.84,3.28,9.28,15.35,1.84,9.08,13.5,22.78,12.43,29.07-.86,5.08-9.62,2.59-12.75-5.62s-7.79-2.13-8.43-21.08C197.49,686.24,193.64,677,197.18,674.89Z"/><path class="cls-5" d="M172.23,649.9c1.65-2.67,6.34,1.48,8.45,8.55s1.53,10-1,9.68c-3.75-.52-3.52-8.94-4.89-12.21S171.39,651.27,172.23,649.9Z"/><path class="cls-5" d="M185.56,600.62c2.91-9.19,8.7-14.4,12.05-11.53,4.61,3.95-2.48,8.74-3.47,16.66S189,619.12,185.56,617,182.59,610,185.56,600.62Z"/><path class="cls-5" d="M510.72,467.78c5.25,0,4.24,16,0,33.64s-7.54,20.27-10.69,16.71c-3.55-4,1.34-16.27,4-30.3S507.16,467.78,510.72,467.78Z"/><path class="cls-5" d="M565.21,485.36c4-1.3,4.86,7.29,6.58,15.87s3.72,17.88,4.86,23.45-3.43,7.3-6.58-.85S560.78,486.79,565.21,485.36Z"/><path class="cls-5" d="M524.51,582.16c4.86-.53,5.54,13.13,1,29.4S513.9,628,513.9,619.64s2.17-15.79,5.06-24.59S521.13,582.52,524.51,582.16Z"/><path class="cls-4" d="M697.69,614.13S617,670.86,617,780.35"/><path class="cls-4" d="M701,622.58A36.8,36.8,0,0,0,685.89,624"/><path class="cls-4" d="M700.41,634.88s-15.43-2-29.13,3.93"/><path class="cls-4" d="M697.69,646.74S678.64,644.15,662,650"/><path class="cls-4" d="M652.39,663.27s20.56-10.67,47.43-1.75"/><path class="cls-4" d="M644.24,676.5s24.43-9.23,53.45-1.48"/><path class="cls-4" d="M636.13,692.29s23.91-10.7,58.65-4.13"/><path class="cls-4" d="M630.32,706.15s26.9-10.17,66.1,0"/><path class="cls-4" d="M684.8,718.67s-33.76-5.81-59.71,3.26"/><path class="cls-4" d="M621.35,737s14.28-8.83,42.68-7.89"/><path class="cls-4" d="M618.52,754.23s9.13-8.8,29.08-12.79"/><path class="cls-4" d="M710.59,727.59s-57.14,38.89-66.28,103.08"/><path class="cls-4" d="M714.69,735.85a40.88,40.88,0,0,0-17,2.16"/><path class="cls-4" d="M711.22,745.76s-16.64.6-27.44,6"/><path class="cls-4" d="M710,758.38s-20.51-1.47-37,6.3"/><path class="cls-4" d="M707.74,770.35s-25-1.32-44.5,8.78"/><path class="cls-4" d="M701.82,782.26s-24.37-1-46.57,11.86"/><path class="cls-4" d="M687.51,793.36s-14.59-.74-37,12.41"/><path class="cls-4" d="M664.39,808s-10.91,2.79-16.72,6.66"/><path class="cls-4" d="M77.62,668.16s60.19,64.57,58.64,155"/><path class="cls-4" d="M69.62,673.86A28.88,28.88,0,0,1,88,681"/><path class="cls-4" d="M58.29,679.87s26,2.79,40.37,16.73"/><path class="cls-4" d="M57.35,693.67s31.23,2.3,52.17,21.85"/><path class="cls-4" d="M55.11,712.18s37.72.13,65.62,28"/><path class="cls-4" d="M55.7,728.69s41.88,1.18,71.94,31.72"/><path class="cls-4" d="M68.32,746.85s47.78,0,63.86,32.06"/><path class="cls-4" d="M92.85,768.67s28.16,3.86,41.85,25.69"/><path class="cls-4" d="M43.16,741.79s62.23,16,81.29,108.23"/><path class="cls-4" d="M43.16,749.56s7.08-3,13.11-2.28"/><path class="cls-4" d="M41.77,761.44s15.81-7.26,28.33-5.4"/><path class="cls-4" d="M43.16,772.15s17.72-9.13,41.26-3.48"/><path class="cls-4" d="M45,786.88s19-12.7,48.32-8"/><path class="cls-4" d="M53.75,801.81s20.27-14.93,50.7-6.33"/><path class="cls-4" d="M69.17,814s22.39-13.32,43.12-2.93"/><path class="cls-4" d="M91.41,609s2.37,56.2,22.55,58.12"/><path class="cls-4" d="M84.65,647.2s8.62,30,27.87,33.38"/><path class="cls-4" d="M82.17,609.94s4.46,26.77,12.48,25.21"/><path class="cls-4" d="M85.34,663.89s7.54,16.44,14.6,10"/><path class="cls-4" d="M91.41,644.6s2.54,10.23-3,12.32"/><path class="cls-5" d="M78.85,635.39s-.77,10.27,5.76,11.81C84.61,647.2,86.72,640.19,78.85,635.39Z"/><path class="cls-5" d="M99,655.73s-6.32,5.36-3.27,13.4C95.69,669.13,102.69,665,99,655.73Z"/><circle class="cls-3" cx="84.06" cy="661.09" r="2.95"/><path class="cls-4" d="M108.32,626.58s5.63,28.4-7.61,28.31"/><path class="cls-4" d="M102.69,630.87s.33,14.49,6.47,13.73"/><path class="cls-4" d="M74.85,610.92s5,12.72,9.8,9.75"/><circle class="cls-3" cx="73.36" cy="608.28" r="3.03"/><circle class="cls-3" cx="81.62" cy="606.91" r="3.03"/><circle class="cls-3" cx="91.41" cy="606.01" r="3.03"/><path class="cls-5" d="M93.05,625.76s-.18-8.29,11.33-13.15C104.38,612.61,103.86,624.19,93.05,625.76Z"/><circle class="cls-3" cx="102.69" cy="628.23" r="2.47"/><circle class="cls-3" cx="107.88" cy="624.12" r="2.47"/><path class="cls-5" d="M109.4,635.55s-1.05-6.49,6.37-10.13C115.77,625.42,117.21,634.16,109.4,635.55Z"/><path class="cls-4" d="M109.52,581.56s1.73,32,12,32.54"/><circle class="cls-3" cx="109.35" cy="578.27" r="3.29"/><circle class="cls-3" cx="104.88" cy="589.39" r="2.33"/><circle class="cls-3" cx="119.65" cy="580.74" r="2.33"/><path class="cls-4" d="M105.25,591.81s2.59,16.25,9.29,15.36"/><path class="cls-4" d="M119.37,583.07s-1.35,13.06-8.09,12.62"/><path class="cls-5" d="M96.08,594.24s3.3,8.78,11.18,5.27C107.26,599.51,105.72,593.29,96.08,594.24Z"/><path class="cls-5" d="M120.77,601.91s-5.68,2.57-4.89,7.9C115.88,609.81,121.68,610.27,120.77,601.91Z"/><path class="cls-4" d="M412.31,572.44s-2.8,59.79,30.2,59.63"/><path class="cls-4" d="M403.53,586.08s1.43,30.62,15.83,29.26"/><path class="cls-4" d="M420.5,583.42s2.41,14.51-6.13,15.78"/><path class="cls-4" d="M429.86,584.16s.58,29.31,16.58,31.22"/><path class="cls-5" d="M396.87,604.48s5.16,7.43,11.75,3.43C408.62,607.91,406.58,602.94,396.87,604.48Z"/><circle class="cls-3" cx="403.53" cy="582.05" r="4.05"/><circle class="cls-3" cx="412.25" cy="569.24" r="3.14"/><circle class="cls-3" cx="429.86" cy="581.46" r="2.69"/><path class="cls-5" d="M428.7,612.93s-6.35,6.05-2.38,12.64C426.32,625.57,432.32,623.48,428.7,612.93Z"/><path class="cls-5" d="M423.72,601.54s2.74,10.37,12.68,7.18C436.4,608.72,432.47,601,423.72,601.54Z"/><path class="cls-4" d="M435.3,590.62s.79,6.76-2.94,9.15"/><path class="cls-5" d="M435,595.64a4.64,4.64,0,0,0,5.79-.92A4.88,4.88,0,0,0,435,595.64Z"/><path class="cls-4" d="M440.41,604.28s3,5,1.42,9.62"/><circle class="cls-3" cx="522.18" cy="673.52" r="3.09"/><circle class="cls-3" cx="530.28" cy="677.83" r="2.06"/><circle class="cls-3" cx="515.27" cy="689.6" r="2.17"/><path class="cls-4" d="M522.18,676.61s-.07,31.85,5.19,43.28"/><path class="cls-4" d="M515.27,691.77s2.66,20.88,9.75,20.28"/><path class="cls-4" d="M530.28,679.88s1.4,19.85-7,20.27"/><path class="cls-6" d="M532.34,700.15s1,8.88-7.57,10.66C524.77,710.81,523.7,704.08,532.34,700.15Z"/><circle class="cls-3" cx="546.64" cy="662.58" r="4.61"/><circle class="cls-3" cx="553.31" cy="670.9" r="2.15"/><circle class="cls-3" cx="536.46" cy="691.07" r="2.77"/><path class="cls-4" d="M536.46,693.84s-1.35,37.84,12.93,38.5"/><path class="cls-4" d="M546.64,667.18s-1,58.13,5.56,79.07"/><circle class="cls-3" cx="542.9" cy="702.81" r="1.92"/><path class="cls-4" d="M542.9,704.73s.19,7.25-5.45,7.33"/><path class="cls-4" d="M553.31,673.05s1.83,16.62-6.58,17.62"/><path class="cls-6" d="M554.09,694.43s.68,6.67-7.08,6.46C547,700.89,547,696,554.09,694.43Z"/><path class="cls-4" d="M554.1,710.81s1.26,9.23-5.92,10.28"/><circle class="cls-3" cx="567.17" cy="684.02" r="4.14"/><path class="cls-4" d="M567.17,688.16a547.42,547.42,0,0,1,0,64.15"/><path class="cls-4" d="M558.56,686.46s-.28,24.67,9.47,25"/><circle class="cls-3" cx="576.49" cy="700.15" r="2.48"/><path class="cls-4" d="M576.49,702.63s2.22,29.78-8.57,31.84"/><path class="cls-6" d="M559.26,717.38s.62,8.84,8.8,9.59C568.06,727,567.19,718.1,559.26,717.38Z"/><path class="cls-6" d="M563.66,694.43a6.07,6.07,0,0,0-3.48,6.92S563.88,700.86,563.66,694.43Z"/><path class="cls-2" d="M599.62,303.28c1.48.29,2.79,21.17-.84,137.73s-2,244.18-2.24,260.86,3.89,49.2,1,54.06-13.2,4.87-13.62-1.39,1-38.22.56-53.93,1.27-145.84,3-188.84C591.66,409.3,596.51,302.65,599.62,303.28Z"/><path class="cls-3" d="M598.83,348.28a122,122,0,0,0,47.7,45.19,7,7,0,0,1,3.71,4.72,4.63,4.63,0,0,1-2.69,5.6c-5.59,2.67-10.79-4-12.25-8.39,0,0-1.15,3.75-4.68,3.56s-7.42-3.15-8.81-11.78c0,0-8.44,3.64-15.12-3.34-4.08-4.26-4.54-10.2-4.08-13.91-4.86.71-14.12-8.51-6.17-21.68A1.39,1.39,0,0,1,598.83,348.28Z"/><path class="cls-3" d="M598.39,389.55c2.44.26,10,14.21-1,18.53,6.85,12.18-7.33,42.63-18.27,27.4,0,0-2.79,21.19-14.33,33.37s-19.41-4.19-19.16-11.67c0,0-5,20.93-16.71,17.88s-16.15-16.49-4.35-22.83,28.71-18.2,46.91-35.17S595.16,389.22,598.39,389.55Z"/><path class="cls-3" d="M597.65,314.06c1.56.1,3.47,12.58-2.7,14.75,2,4-2.08,24.37-8.42,13.15,0,0-.63,16-9,19.92-9.41,4.36-12.82-7-12.82-7s-5.88,15.95-12.45,10.38c-3.81-3.23-2.27-8.4,3.57-12.46,5-3.5,20.77-13.84,29.76-23.88C596.14,317.16,596.08,314,597.65,314.06Z"/><path class="cls-4" d="M593.71,373.37s-9,13.5-21.12,20.53"/><path class="cls-4" d="M583.13,385.76s2.55,2.86-3.51,8.63"/><path class="cls-3" d="M591.66,442.18c4.4-1.54,7.82,11.67,28.78,33.19,28.15,28.9,49.26,29.07,55.21,35.28,6.15,6.42-.17,14.51-6.77,9.56,0,0-10,8.95-25.73-1-12-7.58-14-17.06-14.52-19.79-5.12,4.29-32.5,7.89-31.68-28.38,0,0-10.59-7.91-5.29-21.77C591.66,449.28,588.84,443.17,591.66,442.18Z"/><path class="cls-4" d="M599.68,415.3s17.39,21.53,35.26,33.13"/><path class="cls-4" d="M608.1,424.87s-6.64,12.67,11.22,28.76"/><path class="cls-4" d="M589.3,468s-6.92,10-20.45,22.22"/><path class="cls-4" d="M579.7,479.56s3.78,3.62-4.5,13.42"/><path class="cls-4" d="M597,526.89a203.38,203.38,0,0,0,54.88,39.76"/><path class="cls-4" d="M622.16,548.62s-3,12.65,19.67,25.16"/><path class="cls-3" d="M586.36,550.07c4.75-1.19,3.17,12.55,35.66,41.86s48.34,26.14,51.9,33.07-6.33,10.69-12.87,2.77c0,0-3,11.09-15.44,8.72s-13.68-13.07-13.68-13.07-3,5.67-12.5,3.33-17.79-13.63-19.17-28.68c0,0-2.38,3-6.34.2s-8.19-17.44-3.37-24.49C585,571.14,580.13,551.63,586.36,550.07Z"/><path class="cls-4" d="M596.4,629.43s17.77,18.4,38.1,26.54"/><path class="cls-4" d="M608.33,640.05S605,653,631.5,665.17"/><path class="cls-4" d="M584.93,632.07a64.37,64.37,0,0,1-21.14,22.58"/><path class="cls-4" d="M574.36,646.05s2.62,6.15-6.49,16.35"/><path class="cls-4" d="M586.18,558a79.12,79.12,0,0,1-30.67,25.38"/><path class="cls-4" d="M570.85,574s2.79,8.08-8.93,15"/><path class="cls-3" d="M591,488.64c3.41,1.21,6.18,23.37-3.48,23.13,0,0,2.7,21.78-9.18,19.58,4.66,13-11.1,42.43-18.71,28,0,0-7.84,32.59-24.83,28.74-11.22-2.55-24.62-33.28-9.57-44.1C582.51,502.8,586.25,487,591,488.64Z"/><path class="cls-3" d="M583,581.49c4.32-.8,3.21,18.65-4,19.23.62,7-9.18,24.36-14.2,13.7,0,0,.37,17-8.3,25.63s-12.94-2.51-12.94-2.51-4.78,21.11-14.7,25.76-16.22-7.54-16.34-14.95c0,0-8.42,8.54-13.45.88-5.6-8.53,5.05-14.68,13.45-18.1,12.94-5.28,33.26-16.53,50-29.78C576.31,590.42,580.2,582,583,581.49Z"/><path class="cls-5" d="M640.3,560.47c-1.55-.35-3.32,2.75-1.53,6.18,2.05,3.9,6.27,1.76,6.27,1.76s.08,4.23,3.21,4.39,2.19-3.6,2.19-3.6,4.41,3.46,5.09.64C656.37,566.31,642.63,561.2,640.3,560.47Z"/><path class="cls-5" d="M621.65,438.15s-1.82,4.79,2.06,7.41c0,0-1.44,7.95,2.71,10.66s6.24-.72,6.24-.72.9,8.76,5.42,8.85,3.79-6.87,3.79-6.87,4.3,9.69,8,5.69c3.46-3.78-9.36-12.41-16-16.37C628.94,443.85,621.65,438.15,621.65,438.15Z"/><path class="cls-4" d="M183.47,709s1.91,20.5,6,36.5a140.93,140.93,0,0,1,4,30.77"/><circle class="cls-3" cx="182.63" cy="704.63" r="4.48"/><path class="cls-4" d="M176.53,715.37s1.18,13.85,9.23,12.16"/><path class="cls-4" d="M192.2,714.14s3.49,19.68-5.15,20.6"/><circle class="cls-3" cx="176.14" cy="713.41" r="2.01"/><circle class="cls-3" cx="191.98" cy="711.63" r="2.51"/><circle class="cls-3" cx="200.45" cy="736.17" r="4.54"/><path class="cls-4" d="M200.45,740.71s-1.17,13.55-8.68,16.38"/><circle class="cls-3" cx="162.35" cy="706.44" r="4.55"/><circle class="cls-3" cx="146.52" cy="709.98" r="2.79"/><circle class="cls-3" cx="178.57" cy="741.83" r="2.81"/><circle class="cls-3" cx="146.39" cy="740.67" r="4.41"/><path class="cls-4" d="M162,710.86s-4.7,56.33,18.42,73.7"/><path class="cls-4" d="M152.83,711.63s-.12,30.22,10,32"/><path class="cls-4" d="M146.52,712.78s-.5,22.39,9.29,22"/><path class="cls-6" d="M161.7,728.54S163,723,172.19,723C172.19,723,170.31,730.63,161.7,728.54Z"/><path class="cls-4" d="M146.52,745.08s3.5,31.22,21.9,57.11"/><path class="cls-4" d="M140,748.69s2.89,17.65,10.81,16"/><path class="cls-4" d="M156.46,753.56s4.28,15-3.93,16.64"/><path class="cls-6" d="M157.82,772s4.53,10.14,15.6,5.07A13.75,13.75,0,0,0,157.82,772Z"/><path class="cls-4" d="M178.57,744.64s4.07,20.8-9.36,24.63"/><path class="cls-6" d="M171,750.63s-.79,9.39,6.55,10.62C177.57,761.25,178,753.15,171,750.63Z"/><circle class="cls-3" cx="653.68" cy="735.7" r="2.51"/><circle class="cls-3" cx="646.83" cy="748.95" r="2.51"/><circle class="cls-3" cx="661.19" cy="738.01" r="2.51"/><path class="cls-4" d="M653.68,738.22a96.76,96.76,0,0,1,0,19.65,131.36,131.36,0,0,0,0,22.48"/><path class="cls-4" d="M647.07,751.46s.38,18.77,6.13,19.51"/><path class="cls-4" d="M660.82,740.49s-1.15,11.68-6.71,11"/><circle class="cls-3" cx="661.19" cy="755.75" r="2.51"/><path class="cls-4" d="M661.43,758.26s.23,10.71-4,18.45"/><circle class="cls-3" cx="634.48" cy="753.24" r="2.51"/><circle class="cls-3" cx="641.33" cy="764.68" r="2.51"/><path class="cls-4" d="M634.72,755.74s-.42,16,.7,22.79"/><path class="cls-4" d="M629.68,754.93s.28,9.11,5,8.68"/><path class="cls-4" d="M640,766.83s-2.4,3-5.29,3.14"/><path class="cls-7" d="M273.68,754.2A134.78,134.78,0,0,0,261,745.69l0,.07c-.82,1-1.68,2-2.54,2.93a97.47,97.47,0,0,1,9.79,4.87c4.95,2.88,12.3,8.12,16.54,12.63l3.37-.66C284.8,760.78,279.83,758.91,273.68,754.2Z"/><path class="cls-2" d="M268.16,753.56a97.47,97.47,0,0,0-9.79-4.87c-4.93,5.56-9.82,10.78-7.09,15.37,3.38,5.7,17.63,5.1,33.42,2.13C280.46,761.68,273.11,756.44,268.16,753.56Z"/><path class="cls-7" d="M316.44,735.12c2.84.34,2.27-3.19-5.68-5.63-5.69-1.74-10.61-2.54-14-4.3-1.72.41-3.47.75-5.24,1a33,33,0,0,0,10.87,4.5C310.64,732.39,313.6,734.77,316.44,735.12Z"/><path class="cls-2" d="M264.08,741.83c-1.11,1.37-2.14,2.69-3.12,3.86a134.78,134.78,0,0,1,12.72,8.51c6.15,4.71,11.12,6.58,14.39,11.33,6-1.24,12.17-2.79,17.95-4.42-9-4.56-22.36-5.79-29.46-12.25C271.14,743.92,266.38,742.33,264.08,741.83Z"/><path class="cls-2" d="M366.88,721.87c-11.11-8.81-24.78-8.4-36.3-7.32-.75.07-1.52.18-2.29.32a39.07,39.07,0,0,1,13.25,7.64c8.42,7.11,10,5,17.27,12.63a22.4,22.4,0,0,1,6,10.39c.71-.28,1.39-.58,2-.89C377,739.75,378,730.67,366.88,721.87Z"/><path class="cls-7" d="M341.54,722.51a39.07,39.07,0,0,0-13.25-7.64,61.79,61.79,0,0,0-10.22,3c2.38.62,6.79,1.8,11.88,3.4,7.61,2.38,7.16,5.79,15.23,9.65A32.94,32.94,0,0,1,360.57,747c1.54-.47,3-1,4.28-1.49a22.4,22.4,0,0,0-6-10.39C351.54,727.55,350,729.62,341.54,722.51Z"/><path class="cls-2" d="M345.18,730.91c-8.07-3.86-7.62-7.27-15.23-9.65-5.09-1.6-9.5-2.78-11.88-3.4-6.59,2.42-13.74,5.53-21.35,7.33,3.43,1.76,8.35,2.56,14,4.3,7.95,2.44,8.52,6,5.68,5.63s-5.8-2.73-14.09-4.43a33,33,0,0,1-10.87-4.5c-.73.11-1.47.21-2.21.28-10.17,1-16.73,6-21.6,11.19a36,36,0,0,0,12.07,7c9.43,3.29,3.64,5.79,20.11,5.68,11-.08,16.91,4,19.6,6.75,16.56-4.76,31.19-7,41.12-10.07A32.94,32.94,0,0,0,345.18,730.91Z"/><path class="cls-7" d="M299.85,750.34c-16.47.11-10.68-2.39-20.11-5.68a36,36,0,0,1-12.07-7c-1.3,1.4-2.49,2.81-3.59,4.17,2.3.5,7.06,2.09,12.48,7,7.1,6.46,20.42,7.69,29.46,12.25,2.77-.78,5.46-1.59,8-2.39q2.75-.86,5.43-1.63C316.76,754.37,310.88,750.26,299.85,750.34Z"/><path class="cls-4" d="M151.71,893.05s5.17.73,14.17,11.69,18.63,7.87,25.45,12.83"/><path class="cls-4" d="M194.23,912.71a51.44,51.44,0,0,0,18.21,6.62"/><path class="cls-4" d="M243.59,904.43s16.41,5.34,34.47,22.85c16.95,16.43,36.36,27.88,52.29,31.11"/><path class="cls-4" d="M278.82,942.35s7.73,7.74,17.46,10.9"/><path class="cls-4" d="M337.82,928.35a52.67,52.67,0,0,1,8.05,7.53c4.87,5.68,10.48,6,10.48,6"/><path class="cls-4" d="M360.49,937.72a14.66,14.66,0,0,0,5.08.58"/><path class="cls-4" d="M387.65,948.79s4.61-5.63,26.38-10.46,36.8-7,42.48-12"/><path class="cls-4" d="M514.23,924.08s12.11-7.42,23.6-10.57c10.81-3,18.35-1.6,29.43-16.49"/><path class="cls-4" d="M558.58,894.31a18.36,18.36,0,0,0-4.51,6"/><path class="cls-4" d="M578.84,903s6.88-6.13,12.92-8.89c7.88-3.6,11.07-5.87,13.42-13.58"/><path class="cls-7" d="M226,866.06c-.45.43-.87.87-1.28,1.32a14.24,14.24,0,0,0,4.24,6.86,13.44,13.44,0,0,1,4.24,7.34l2,.14c-.14-2.7-1.33-5.52-4.65-9.24A37.24,37.24,0,0,1,226,866.06Z"/><path class="cls-2" d="M229,874.24a14.24,14.24,0,0,1-4.24-6.86c-2.94,3.19-4.82,6.68-4,9,1.48,4.53,6.5,4.8,12.53,5.18A13.44,13.44,0,0,0,229,874.24Z"/><path class="cls-7" d="M242,874.39a25,25,0,0,1-9.62-13.07,28,28,0,0,0-4.58,3.13,35.62,35.62,0,0,1,6.6,7.66c3.25,4.78,8,7,10,11.19l.31.1a22.09,22.09,0,0,0,8.34,1.27A52.88,52.88,0,0,0,242,874.39Z"/><path class="cls-2" d="M234.42,872.11a35.62,35.62,0,0,0-6.6-7.66c-.62.52-1.23,1.06-1.81,1.61a37.24,37.24,0,0,0,4.55,6.42c3.32,3.72,4.51,6.54,4.65,9.24a38.66,38.66,0,0,1,9.23,1.58C242.37,879.1,237.67,876.89,234.42,872.11Z"/><path class="cls-2" d="M259.89,875.41c-1.91-3.77-7.15-5-10.49-9.29s-5.81-7-11.8-6.56a13.63,13.63,0,0,0-5.2,1.76A25,25,0,0,0,242,874.39a52.88,52.88,0,0,1,11.07,10.28,15.41,15.41,0,0,0,6.5-1.71,2.35,2.35,0,0,0,1.22-1.84A10.32,10.32,0,0,0,259.89,875.41Z"/><path class="cls-7" d="M293.55,801c-.55-1.75-1.15-3.74-1.9-5.84-15-2.91-25.53-22.53-29-30-2.86-2-5.77-3.95-8.82-5.7,1.9,2,4.92,5.81,8.47,12.64C270,787,280.06,797.24,293.55,801Z"/><path class="cls-2" d="M251.72,769.71c10.36,16.5,20.73,33.36,43.44,37.33a13.58,13.58,0,0,0-.74-3.36c-.28-.82-.57-1.73-.87-2.71-13.49-3.73-23.54-14-31.27-28.89-3.55-6.83-6.57-10.64-8.47-12.64a45.93,45.93,0,0,0-15.88-5.88C241.52,756.4,246.48,761.36,251.72,769.71Z"/><path class="cls-2" d="M291.65,795.13c-2.61-7.38-7-16.22-16.67-21.78-4.16-2.38-8.2-5.32-12.35-8.21C266.12,772.6,276.65,792.22,291.65,795.13Z"/><path class="cls-7" d="M215,793.91a80.3,80.3,0,0,0-27.56-16.32c-1.91,1.77-3.75,3.55-5.47,5.32,6.34,2.21,19.64,7.73,28.4,17.49,10.48,11.68,18.65,26.16,38.28,29.65,3.69-.42,7.73-1,12.2-1.78l.53-.1C233.26,824.84,228.06,806,215,793.91Z"/><path class="cls-7" d="M295.16,807c-22.71-4-33.08-20.83-43.44-37.33-5.24-8.35-10.2-13.31-13.79-16.15a37.48,37.48,0,0,0-7.11-.41c3.47,2.23,9.76,7.36,16.5,18.11,11,17.46,21.95,36.88,47.56,39.51A11.1,11.1,0,0,0,295.16,807Z"/><path class="cls-2" d="M210.4,800.4c-8.76-9.76-22.06-15.28-28.4-17.49-8.8,9.05-14.67,17.85-13.41,22.57,4.17,15.61,38.91,8.54,43.49,15.92,4,6.42,12.07,11.4,36.6,8.65C229.05,826.56,220.88,812.08,210.4,800.4Z"/><path class="cls-2" d="M247.32,771.26c-6.74-10.75-13-15.88-16.5-18.11-1,0-2,.09-3,.21-7.71.86-18.66,6.95-29.06,14.81,6.57,1.59,15.22,6.05,16.91,9.42,1.2,2.4-1.78,3.23-7.12-1.57-3.11-2.8-8.78-4.87-12.25-5.95-3.05,2.41-6,4.95-8.83,7.52A80.3,80.3,0,0,1,215,793.91c13,12.08,18.23,30.93,46.38,34.26,24-4.29,31.86-11.14,33.47-17.4C269.27,808.14,258.29,788.72,247.32,771.26Z"/><path class="cls-7" d="M215.67,777.59c-1.69-3.37-10.34-7.83-16.91-9.42-.83.63-1.65,1.26-2.46,1.9,3.47,1.08,9.14,3.15,12.25,5.95C213.89,780.82,216.87,780,215.67,777.59Z"/><path class="cls-7" d="M518.05,730.87c9.38,13.85,23,33.78,41.69,32a18.82,18.82,0,0,0-.4-3.48c-13.1-.77-25.3-11.44-36.18-27.52-7.13-10.55-13.07-15.26-16.65-17.34a29.21,29.21,0,0,0-3.8,1.78A48,48,0,0,1,518.05,730.87Z"/><path class="cls-2" d="M523.16,731.9C534,748,546.24,758.65,559.34,759.42c-1-4.88-3.92-9-8.26-12.74-7.21-6.25-4.15-16.59-20.87-28.29-9-6.31-16.93-6.41-23.7-3.83C510.09,716.64,516,721.35,523.16,731.9Z"/><path class="cls-2" d="M483.13,751.47a12.3,12.3,0,0,1-4.3-5.71c-1.51,4.37-2.57,8.45-3.62,11.45-2.54,7.22-2.45,16.4,5.83,21.74a48.08,48.08,0,0,0,13.6,5.39c-2.23-5.25-2.41-13.25-3.42-18.74C490.06,759.37,487.83,754.68,483.13,751.47Z"/><path class="cls-2" d="M518.05,730.87a48,48,0,0,0-15.34-14.53c-5.42,3-10,7.49-13.65,11.25a34,34,0,0,0-2.88,3.39,79.17,79.17,0,0,0,21.12,18.74c13,8,18.5,23.45,21.45,34.44,17.13-4.11,27.14-4.16,29.94-13.87a24.49,24.49,0,0,0,1-7.39C541.08,764.65,527.43,744.72,518.05,730.87Z"/><path class="cls-7" d="M507.3,749.72A79.17,79.17,0,0,1,486.18,731a41.37,41.37,0,0,0-3.32,5.29,54.33,54.33,0,0,0,12,11.57c14,10.3,16.46,25.53,17.91,38.63a59.75,59.75,0,0,0,13.72-1.76c.77-.19,1.52-.38,2.26-.55C525.8,773.17,520.26,757.71,507.3,749.72Z"/><path class="cls-7" d="M485.64,749.72a16,16,0,0,1-5.62-7.23c-.43,1.1-.83,2.19-1.19,3.27a12.3,12.3,0,0,0,4.3,5.71c4.7,3.21,6.93,7.9,8.09,14.13,1,5.49,1.19,13.49,3.42,18.74,2,.5,4.11.94,6.32,1.29-1.18-3.55-2-8.65-3.88-15.43C493.76,758.29,491.44,754,485.64,749.72Z"/><path class="cls-2" d="M494.86,747.84a54.33,54.33,0,0,1-12-11.57,58.2,58.2,0,0,0-2.84,6.22,16,16,0,0,0,5.62,7.23c5.8,4.31,8.12,8.57,11.44,20.48,1.89,6.78,2.7,11.88,3.88,15.43a70.32,70.32,0,0,0,11.81.84C511.32,773.37,508.87,758.14,494.86,747.84Z"/><path class="cls-2" d="M343.57,837.56c-2.8-17.19-11.22-23-20.16-24.55s-11.4-6.49-17-14.91-18.07-7.72-31.75-5.09a39.69,39.69,0,0,0-13,5.06c3.45,2.77,11,7.84,23.92,11.49,18.81,5.32,44.35,8.55,40.55,46.39C337,853.39,345.24,847.76,343.57,837.56Z"/><path class="cls-7" d="M239.81,837.1a26.66,26.66,0,0,1-5.49-9.2c-.75,1.05-1.44,2.06-2.07,3a19.27,19.27,0,0,0,4.18,7.06c5.24,5.43,6.17,8.61,6.28,12.3,1,.32,2.14.62,3.37.88C246.27,846.68,244.29,842.13,239.81,837.1Z"/><path class="cls-2" d="M232.25,830.92a29.44,29.44,0,0,0-2.28,4c-2.43,5.43,2.19,9.4,9.28,13.84a15.24,15.24,0,0,0,3.46,1.51c-.11-3.69-1-6.87-6.28-12.3A19.27,19.27,0,0,1,232.25,830.92Z"/><path class="cls-2" d="M265.18,823.18c-10.81-4.84-16.16-9.65-18.14-11.73l-.4.5c-3.54,4.62-8.59,10.75-12.32,15.95a26.66,26.66,0,0,0,5.49,9.2c4.48,5,6.46,9.58,6.27,14.06a126,126,0,0,0,15.33,2c13.93,1.16,21.11,2.49,38,4C293.48,841,279.1,829.41,265.18,823.18Z"/><path class="cls-7" d="M285.54,809.56c-12.88-3.65-20.47-8.72-23.92-11.49a46.55,46.55,0,0,0-5.77,4.12c3,2.3,10.44,7.48,23.35,12.46,16.77,6.46,37.17,17.48,37.49,42.74a65,65,0,0,0,9.4-1.44C329.89,818.11,304.35,814.88,285.54,809.56Z"/><path class="cls-7" d="M268.6,821a62,62,0,0,1-19-12.64c-.93,1.07-1.79,2.11-2.57,3.11,2,2.08,7.33,6.89,18.14,11.73,13.92,6.23,28.3,17.79,34.25,34l2.7.23C298.88,840.74,281,826.25,268.6,821Z"/><path class="cls-2" d="M279.2,814.65c-12.91-5-20.4-10.16-23.35-12.46a56.9,56.9,0,0,0-6.24,6.15,62,62,0,0,0,19,12.64c12.38,5.27,30.28,19.76,33.53,36.39h.06a87.7,87.7,0,0,0,14.5,0C316.37,832.13,296,821.11,279.2,814.65Z"/><path class="cls-2" d="M474.45,817.55a49.37,49.37,0,0,0-20-12.29c-1.68,1-3.31,2.12-4.88,3.28a53.07,53.07,0,0,1,17,9c8.75,7.17,12.07,14,18.54,22.92,5.59,7.69,13.38,9.79,19.34,13.26,1.88-.06,3.85-.14,5.89-.25a122.27,122.27,0,0,0-11.75-8.82C487.75,837.49,485.12,828.39,474.45,817.55Z"/><path class="cls-2" d="M481.1,839.77c-3.15-7-7.87-11.55-17.49-19.95a41.48,41.48,0,0,0-17.38-8.62c-11.64,9.84-18.64,23-12.36,33.87,2.9,5,10.63,6.37,16.88,7.38,8.43,1.37,27.85,1.56,41.86,1.46C488,851.07,483.58,845.26,481.1,839.77Z"/><path class="cls-7" d="M485.12,840.47c-6.47-8.93-9.79-15.75-18.54-22.92a53.07,53.07,0,0,0-17-9c-1.17.85-2.29,1.75-3.38,2.66a41.48,41.48,0,0,1,17.38,8.62c9.62,8.4,14.34,12.95,17.49,19.95,2.48,5.49,6.88,11.3,11.51,14.14,3.91,0,7.39-.08,10.1-.14l1.75,0C498.5,850.26,490.71,848.16,485.12,840.47Z"/><path class="cls-2" d="M534.63,827.69c-5.77-3-7.17-9.62-11.67-14a17.57,17.57,0,0,1-4.2-7.27l-1.55-.66c-10.55-4.49-16.61-11.6-40.61-8.7a53.14,53.14,0,0,0-16.78,5.25c2.48.78,6.22,2,11,3.68,8.92,3.15,11.9,3.85,16.27,10.67S494.57,823.85,501,827s8.48,14.7,24.05,19.6a36.49,36.49,0,0,1,9.16,4,110.21,110.21,0,0,0,13.11-3.42c.9-.3,1.72-.62,2.48-1C547.81,838.25,540.12,830.52,534.63,827.69Z"/><path class="cls-2" d="M547.28,823.18a82.33,82.33,0,0,0-22.23-14,22.82,22.82,0,0,0,6.44,9.6c6.29,5.6,8.74,7,14,11.72a26.9,26.9,0,0,1,7.82,13.7C560.43,838.76,555.58,830.61,547.28,823.18Z"/><path class="cls-7" d="M545.48,830.49c-5.25-4.72-7.7-6.12-14-11.72a22.82,22.82,0,0,1-6.44-9.6c-2.07-.94-4.16-1.83-6.29-2.74a17.57,17.57,0,0,0,4.2,7.27c4.5,4.37,5.9,11,11.67,14,5.49,2.83,13.18,10.56,15.13,18.53a17.38,17.38,0,0,0,3.54-2A26.9,26.9,0,0,0,545.48,830.49Z"/><path class="cls-7" d="M501,827c-6.39-3.14-9.54-3.49-13.91-10.32s-7.35-7.52-16.27-10.67c-4.74-1.67-8.48-2.9-11-3.68-1.81.89-3.59,1.88-5.33,2.94a49.37,49.37,0,0,1,20,12.29c10.67,10.84,13.3,19.94,24.15,27.11a122.27,122.27,0,0,1,11.75,8.82,170.91,170.91,0,0,0,23.82-2.88,36.49,36.49,0,0,0-9.16-4C509.44,841.69,507.34,830.14,501,827Z"/><path class="cls-5" d="M367.91,737.48c4.75,7,9.5,18.17,15.6,10.84s6.11-13.84,14.79-15.46,17.07,22.22,25.64,22.24c4.61,0,7.27-4.72,15-1.25-5.18-6.26-10.84-11.71-15.23-12.31-10.85-1.49-15.46-21.84-19.94-31.75s-18.18-11.53-27-1.49a197.39,197.39,0,0,0-18.81,26C360.64,733.39,364.9,733,367.91,737.48Z"/><path class="cls-7" d="M453.11,774.1a189.72,189.72,0,0,0-14.21-20.25c-7.69-3.47-10.35,1.27-15,1.25-8.57,0-16.95-23.87-25.64-22.24s-8.68,8.14-14.79,15.46-10.85-3.8-15.6-10.84c-3-4.47-7.27-4.09-10-3.22A282.38,282.38,0,0,0,337.23,775a4.34,4.34,0,0,0,1.78,5.37,37.65,37.65,0,0,0,17.63,5.31c12.89.6,22.6,13.92,38.64,14.16s17.3-10.85,36.23-13.32S453.52,781.42,453.11,774.1Z"/><path class="cls-5" d="M360.57,752.93c-1.36,5.12-6.69,17.05-3.81,18.54s3.67-5.65,7-15,2-12.6,0-11.89C362.13,745.18,361.36,750,360.57,752.93Z"/><path class="cls-5" d="M402.05,744.78c2-.3,3.35,7.72,7.9,11.58s6.28,8.54,4.84,9.57c-1.79,1.29-7-4.11-10.2-10.61S400.9,745,402.05,744.78Z"/><path class="cls-7" d="M139,855.72s.6,14.21,13.3,14.82,27.44-1.21,25.24-18.52Z"/><path class="cls-5" d="M178.05,840.2a16.68,16.68,0,0,1,0-33.2c-7.47-13.26-18.21-24.18-31.53-21.32-28.67,6.18-25.82,62.8-17.88,69.16,5,4,20.37,3.81,31,2.3,14.78-2.1,28.35-6.25,30.15-12.48.36-1.24.18-3.91-.49-7.45A16.62,16.62,0,0,1,178.05,840.2Z"/><path class="cls-2" d="M163.09,822a16.66,16.66,0,0,0,26.21,15.25A107.51,107.51,0,0,0,178.05,807,16.68,16.68,0,0,0,163.09,822Z"/><circle class="cls-2" cx="142.92" cy="838.47" r="10.74"/><circle class="cls-2" cx="146.52" cy="803.82" r="9.46"/><path class="cls-4" d="M147.22,862.73s0,3.33,2.21,4.77"/><path class="cls-4" d="M153.66,862.73s0,3,1.49,4.23"/><path class="cls-4" d="M160.38,862.17a9.33,9.33,0,0,1,0,4.15"/><path class="cls-4" d="M167.19,861.33a5.41,5.41,0,0,1-1.12,4.33"/><path class="cls-4" d="M172.79,860.44s.28,2.85-1.38,4.5"/><path class="cls-9" d="M329.77,766.78c3.46,0,5.27,5.08-.2,9.23s-.76,7.66,5.58,10,8.53,4.59,7.55,6.56-4.38.49-9.85-1.29-12.93-1.81-14.32-10C317.33,774.24,325.36,766.79,329.77,766.78Z"/><path class="cls-9" d="M310.35,765.14c1.6,2.16-3.94,4.44-4.83,7.74s-.25,6.79-3.24,7.42-4.09-3.65-2.6-7.58S308,761.93,310.35,765.14Z"/><circle class="cls-9" cx="338.17" cy="764.3" r="1.63"/><path class="cls-9" d="M322.3,796.77c2.57-.73,2.35,4.51,9.9,6.57s9.6,6.66,7.15,8.42-4.05-3.53-10.19-5.48C323.27,804.4,319.56,797.56,322.3,796.77Z"/><path class="cls-9" d="M352.2,803.12c1.28-3.11,7.39.86,12,.37s9.22-2.14,15.33.67,21.12,2.67,22.09,7-11.53,0-15.2,2.85-14,1.77-19.9-1S351,805.93,352.2,803.12Z"/><path class="cls-9" d="M432,800.93c-2.18-4.51,11.46-11.35,19.92-11.09,6.29.2,8.41-2.52,10.66-1.26s1.68,5.4-3.16,7.09-12.27-.21-16.34,3.57S433.15,803.24,432,800.93Z"/><path class="cls-9" d="M477,783.54c2,.3.47,9.53-2.44,9S473.81,783.08,477,783.54Z"/><path class="cls-9" d="M458.82,764.06c2.35-.35,2.62,3.51,5.93,5.66s3.6,11.67,1.22,11.38-1.55-5.16-4.53-6.79C456.67,771.69,455.05,764.62,458.82,764.06Z"/><path class="cls-6" d="M643.24,784.82c5.35,1.69,7.55,8.65,3,17s.13,8.63-2.89,12.85-10.21,3-11.75,8.86-6-13.47-.86-29.82C633.53,785,639.26,783.56,643.24,784.82Z"/><path class="cls-6" d="M606.8,783.06c4.58-3.25,14.24-2.78,17.37,7.56,3.43,11.33,8.88,9.57,9.67,18.68.63,7.23-2.9,16-2.9,16a11.13,11.13,0,0,0-9.47-4.73c-6.06,0-9.76-2.21-10.21-7.78-.64-8.06-4.78-6.9-8.2-13.51A12.33,12.33,0,0,1,606.8,783.06Z"/><path class="cls-4" d="M615,794.2c11.14,11.06,17.3,24.55,16.61,43.72"/><path class="cls-6" d="M633.58,808a52,52,0,0,1,4.52-11.58"/><path class="cls-6" d="M596.73,767.79c5.36,1.69,7.55,8.65,3,17s.13,8.63-2.89,12.85-10.21,3-11.74,8.86-6.06-13.47-.87-29.82C587,768,592.76,766.53,596.73,767.79Z"/><path class="cls-6" d="M560.29,766c4.58-3.25,14.24-2.78,17.38,7.56,3.43,11.33,8.87,9.57,9.67,18.68.63,7.23-2.91,16-2.91,16a11.13,11.13,0,0,0-9.47-4.73c-6.05,0-9.76-2.21-10.2-7.78-.65-8.06-4.79-6.9-8.21-13.51A12.33,12.33,0,0,1,560.29,766Z"/><path class="cls-4" d="M568.45,777.17c11.15,11.06,17.3,24.55,16.61,43.72"/><path class="cls-6" d="M587.07,791a52.61,52.61,0,0,1,4.52-11.58"/><path class="cls-6" d="M548,758.1c5.36,1.7,7.55,8.66,3,17s.13,8.62-2.89,12.84-10.21,3-11.74,8.86-6.05-13.47-.87-29.81C538.25,758.26,544,756.84,548,758.1Z"/><path class="cls-6" d="M511.51,756.34c4.58-3.24,14.24-2.78,17.38,7.56,3.43,11.34,8.87,9.58,9.67,18.69.63,7.22-2.9,16-2.9,16a11.15,11.15,0,0,0-9.48-4.72c-6,0-9.75-2.22-10.2-7.79-.65-8-4.78-6.89-8.21-13.51A12.34,12.34,0,0,1,511.51,756.34Z"/><path class="cls-4" d="M519.68,767.49c11.14,11,17.29,24.54,16.6,43.71"/><path class="cls-6" d="M538.3,781.28a52.31,52.31,0,0,1,4.51-11.59"/><path class="cls-5" d="M199.59,842.7a7.08,7.08,0,0,1,6-7c-2.87-4.47-6.88-7.69-12.26-7.54a13,13,0,0,0-3.45.57,7.58,7.58,0,1,1-11,10.36c-4.23,8.28-4.9,18.91-1.17,23.07,3.13,3.49,7.68,4.06,14.55,4.15,8.73.12,16.57.1,18.83-6.21.65-1.83.55-6.4-.53-11.52a7.08,7.08,0,0,1-11-5.89Zm-8.24,17.73a6.59,6.59,0,1,1,6.59-6.59A6.59,6.59,0,0,1,191.35,860.43Z"/><circle class="cls-2" cx="191.35" cy="853.84" r="6.59" transform="translate(-547.71 385.39) rotate(-45)"/><path class="cls-2" d="M199.59,842.7a7.08,7.08,0,0,0,11,5.89,39.72,39.72,0,0,0-5-12.88A7.08,7.08,0,0,0,199.59,842.7Z"/><path class="cls-2" d="M184.77,841.88a7.57,7.57,0,0,0,5.14-13.14c-4.79,1.44-8.51,5.48-11,10.36A7.59,7.59,0,0,0,184.77,841.88Z"/><path class="cls-7" d="M182.53,865.21s-.52,6.73,4.78,9.27,20.42,2.74,18.68-9.41Z"/><path class="cls-5" d="M187.39,870.83a4.22,4.22,0,0,0,.83,2.24"/><path class="cls-5" d="M190.46,870.83a3.81,3.81,0,0,0,.63,2.24"/><path class="cls-5" d="M194.71,870.83a8.36,8.36,0,0,1,0,2"/><path class="cls-5" d="M199.21,871.19a3.33,3.33,0,0,1-.72,1.67"/><path class="cls-7" d="M567,853.17h-5a10.47,10.47,0,0,1-1.6-.13,10.8,10.8,0,0,1-3.88-1.36l.37,3,0,.32a5.37,5.37,0,0,0,5.33,4.71h4.45a5.38,5.38,0,0,0,5.33-4.71l.41-3.31A10.91,10.91,0,0,1,567,853.17Z"/><path class="cls-5" d="M567.1,836.59a9.89,9.89,0,0,1,7.94-9.7A10.92,10.92,0,0,0,564.9,820h-.73a10.81,10.81,0,0,0-2.49.3,6.76,6.76,0,1,1-8.58,10.41l-1.79,9.53a11.2,11.2,0,0,0-.18,1.9,7.17,7.17,0,0,1,9.32,10.9,10.47,10.47,0,0,0,1.6.13h5a11,11,0,0,0,10.06-6.7H577A9.89,9.89,0,0,1,567.1,836.59Z"/><path class="cls-2" d="M564.47,825.77a6.75,6.75,0,0,0-2.79-5.47,10.92,10.92,0,0,0-8.25,8.62l-.33,1.79a6.69,6.69,0,0,0,4.61,1.82A6.76,6.76,0,0,0,564.47,825.77Z"/><path class="cls-2" d="M577.75,840.24l-2.12-11.32a10.55,10.55,0,0,0-.59-2,9.89,9.89,0,0,0,2,19.59h.09A10.81,10.81,0,0,0,577.75,840.24Z"/><path class="cls-2" d="M556.57,851.68a10.8,10.8,0,0,0,3.88,1.36,7.17,7.17,0,0,0-9.32-10.9A10.91,10.91,0,0,0,556.57,851.68Z"/><path class="cls-7" d="M504.79,871.29s-.83,6.26,2.07,9.89c4,5,19.14,4.94,24-.69,1.84-2.12,2-5.88.8-11.44Z"/><path class="cls-4" d="M511.38,877.79a5.16,5.16,0,0,0,1.93,3.73"/><path class="cls-4" d="M516.26,877.79s-.24,2.51.47,3.48"/><path class="cls-4" d="M520.33,877.79s.52,2.45-.51,3.48"/><path class="cls-4" d="M524.13,877.79a4.54,4.54,0,0,1-.7,3"/><path class="cls-4" d="M527.88,877.79a4.06,4.06,0,0,1-.91,2.7"/><path class="cls-5" d="M536.48,857c-.56-21.83-9.56-36.63-20.05-36.12a12.49,12.49,0,0,0-5.83,1.78,7.82,7.82,0,0,1-9.36,12.2c-3.84,9-5.38,20.53-5.23,28.16a9.21,9.21,0,0,0,6.05,8.51,41.17,41.17,0,0,0,26.34.31A11.82,11.82,0,0,1,536.48,857Z"/><path class="cls-2" d="M512.62,827.9a7.78,7.78,0,0,0-2-5.23c-4,2.36-7.08,6.85-9.36,12.2a7.72,7.72,0,0,0,3.55.86A7.83,7.83,0,0,0,512.62,827.9Z"/><path class="cls-2" d="M536.44,862.93q.12-3,0-5.92a11.82,11.82,0,0,0-8.08,14.84c.7-.22,1.37-.45,2-.67A9.25,9.25,0,0,0,536.44,862.93Z"/><ellipse class="cls-2" cx="524.59" cy="841.9" rx="6.12" ry="9.42" transform="translate(-146.91 111.78) rotate(-10.68)"/><ellipse class="cls-2" cx="510.84" cy="859.7" rx="7.88" ry="9.8" transform="translate(-282.61 251.03) rotate(-21.79)"/><path class="cls-7" d="M581.38,848.9l.46,1.43a3.5,3.5,0,0,0,4,2.36l2.12-.43a3.49,3.49,0,0,0,2.8-3.52l0-1.63Z"/><path class="cls-5" d="M587.61,833.51a4.85,4.85,0,0,1,1.81-3.27,9.1,9.1,0,0,0-5.35-3.48,2.88,2.88,0,0,1,.32,1.7,2.93,2.93,0,0,1-5.81,0c-2.34,2.28-3.1,6.28-2.88,10.17a7.41,7.41,0,0,1,10,10.51c3.74-.46,7.27-2.74,7.38-7.07a20.81,20.81,0,0,0-.18-3.19,5.36,5.36,0,0,1-1,0A4.89,4.89,0,0,1,587.61,833.51Z"/><path class="cls-2" d="M580.41,837.61a7.38,7.38,0,0,0-4.71,1.06,22.19,22.19,0,0,0,1.52,7.05c1.14,2.69,4.91,3.91,8.48,3.46a7.33,7.33,0,0,0,1.26-3.36A7.42,7.42,0,0,0,580.41,837.61Z"/><path class="cls-2" d="M581.15,831a2.93,2.93,0,0,0,3.24-2.58,2.88,2.88,0,0,0-.32-1.7,6,6,0,0,0-2.85.14,6.49,6.49,0,0,0-2.64,1.6A2.92,2.92,0,0,0,581.15,831Z"/><path class="cls-2" d="M589.42,830.24a4.88,4.88,0,0,0,2.5,8.67,5.36,5.36,0,0,0,1,0A17.45,17.45,0,0,0,589.42,830.24Z"/><path class="cls-7" d="M329.92,715.32s-.32,4.2,3,5.79,12.75,1.71,11.67-5.88Z"/><path class="cls-5" d="M340.57,701.27a4.42,4.42,0,0,1,3.77-4.36c-1.79-2.79-4.3-4.8-7.66-4.71a8.06,8.06,0,0,0-2.15.36,4.73,4.73,0,1,1-6.87,6.46c-2.64,5.17-3.06,11.81-.73,14.41,1.95,2.17,4.79,2.53,9.08,2.59,5.45.07,10.35.06,11.75-3.88.41-1.14.35-4-.33-7.19a4.41,4.41,0,0,1-6.86-3.68Zm-5.14,11.07a4.12,4.12,0,1,1,4.11-4.11A4.11,4.11,0,0,1,335.43,712.34Z"/><circle class="cls-2" cx="335.43" cy="708.23" r="4.11" transform="translate(-402.55 444.62) rotate(-45)"/><path class="cls-2" d="M340.57,701.27a4.41,4.41,0,0,0,6.86,3.68,24.57,24.57,0,0,0-3.09-8A4.42,4.42,0,0,0,340.57,701.27Z"/><path class="cls-2" d="M331.32,700.76a4.73,4.73,0,0,0,3.21-8.2c-3,.89-5.31,3.42-6.87,6.46A4.73,4.73,0,0,0,331.32,700.76Z"/><path class="cls-5" d="M333,718.83a2.56,2.56,0,0,0,.52,1.4"/><path class="cls-5" d="M334.88,718.83a2.32,2.32,0,0,0,.39,1.4"/><path class="cls-5" d="M337.53,718.83a5.8,5.8,0,0,1,0,1.27"/><path class="cls-5" d="M340.34,719.06a2.12,2.12,0,0,1-.46,1"/><path class="cls-9" d="M489.86,689.54a52,52,0,0,1-1.9-7.91l-7.41-.54s-.47,3.58-.68,7.44C482.05,689.17,486.55,690.27,489.86,689.54Z"/><path class="cls-2" d="M492.41,696a62,62,0,0,1-2.55-6.5c-3.31.73-7.81-.37-10-1-.19,3.56-.16,7.37.68,8.86,1.75,3.1,7.28,11.18,9.43,11.31S493.48,698.47,492.41,696Z"/><path class="cls-9" d="M466.76,685.83l-.89-5.55-10.82-.56.75,6.18C457.76,686.64,461.37,687.4,466.76,685.83Z"/><path class="cls-2" d="M468.21,694.91l-1.45-9.08c-5.39,1.57-9,.81-11,.07l.11.86s-14.15,8.88-12.53,11.3c1.31,2,17.05.13,23-.64A2.18,2.18,0,0,0,468.21,694.91Z"/><circle class="cls-5" cx="455" cy="690.43" r="0.9"/><circle class="cls-5" cx="451.69" cy="692.77" r="0.9"/><circle class="cls-5" cx="487.81" cy="694" r="0.9"/><circle class="cls-5" cx="489.54" cy="699.11" r="0.9"/><path class="cls-3" d="M498.63,582.5c-.78-3.43-1.54-6.69-2.28-9.7,0,0-25.75-10.06-46.09,1.64,0,0-.41,3.42-1.06,9.07C456.09,582.32,477.83,579.18,498.63,582.5Z"/><path class="cls-6" d="M498.63,582.5c-20.8-3.32-42.54-.18-49.43,1-2.4,20.66-8.09,71.19-9.09,93.28a3.44,3.44,0,0,0,2.85,3.54,255.66,255.66,0,0,0,72,1.3,3.44,3.44,0,0,0,3-4C515.37,664.06,506.1,615.21,498.63,582.5Z"/><ellipse class="cls-9" cx="466.21" cy="467.11" rx="14.85" ry="17.53"/><path class="cls-2" d="M463.46,442.13s7.39-7.24,14.49-3.27c9.58,5.35,2.89,17.52,8.52,20.62,4.58,2.51,4.63,4.73,7.14,10.31s5.86,3.73,6.06,8.09c.12,2.51-.68,4.8-11,3.89s-16.45-2-16.68-10.28.31-21.91-14-19c-5.81,4.29-11,18.47-.38,28.89a11,11,0,0,0-5.79,2.66c-2.7,2.4-6.7,1.6-7.62-1.48s-5.37-3-5.14-7.89,7.48-4,7.08-14.64C445.73,448.6,452.06,441.15,463.46,442.13Z"/><path class="cls-2" d="M460.07,497s-7.93,40.29-9.81,77.45c0,0,25.4-5.64,46.09-1.64,0,0-7.37-55.3-16.77-76.55C479.58,496.25,469,492.51,460.07,497Z"/><path class="cls-2" d="M479.29,519.82s4.32,12.66,4.24,22.72a117.87,117.87,0,0,1-12.79,14.93s.07,1.06.25,2.83c.26,2.6.76,6.72,1.66,11.26.35,1.81.77,3.68,1.26,5.54,2.57,9.74,4.68,12.17,12,7.47s12.33-11,17-22.88c0,0-6-36.35-13.64-45.44"/><path class="cls-7" d="M458.53,505.41s3.71.32,1.71,3.7c0,0,3.94,2.27.6,5.79,0,0,3.45,2,1.89,4.82a3.76,3.76,0,0,1-6.54,0C455,517.31,458.53,505.41,458.53,505.41Z"/><path class="cls-7" d="M453,543.48s7.47-2.14,8.89.75-2.3,3.67-2.3,3.67,5.55,1.07,5.07,3.67-6.27,1.63-6.27,1.63,5.85,5.76,1.64,8-7-6.75-7-6.75A8.93,8.93,0,0,1,453,543.48Z"/><path class="cls-2" d="M448.64,588.32s1.63,4.93,6,7.09c4.74,2.32,7.93-.1,7-3.81s-5-5.81-5-5.81,2.56-4.2-.74-3.29C455.94,582.5,450.56,583.65,448.64,588.32Z"/><path class="cls-2" d="M458.53,505.41s-18.7,47.66-18.52,60.26,3.74,27.25,6.64,24.36,12.43-8.52,12.26-12.09-5.7-21.36-6.51-29.59C452.4,548.35,461.05,535.32,458.53,505.41Z"/><path class="cls-9" d="M463.09,497.47a189.21,189.21,0,0,1,3.12,21.4s5.08-10.89,4.49-21C470.7,497.88,466.6,495.38,463.09,497.47Z"/><circle class="cls-7" cx="467.25" cy="501.27" r="1.11"/><circle class="cls-7" cx="467.25" cy="505.41" r="1.11"/><path class="cls-4" d="M432.37,641.47s-11.94,11-16.2,51.3"/><path class="cls-4" d="M451.76,648.53s1.85,22.72-10,51.48"/><path class="cls-4" d="M435.94,642.8S422.72,667.55,422,694"/><path class="cls-4" d="M440.84,644.62s-10.2,23.78-13.08,50.28"/><path class="cls-4" d="M447.93,647.26s-.59,31.28-11,50.29"/><path class="cls-4" d="M444.6,646s-4,30.65-12.23,49.51"/><path class="cls-6" d="M433.77,702.86S437,714,447.93,713.3C447.93,713.3,445.87,701.21,433.77,702.86Z"/><path class="cls-6" d="M452.23,704.33s5.87,3.32,11.66-.51C463.89,703.82,457.89,699.24,452.23,704.33Z"/><path class="cls-6" d="M461.42,709.52s6,6,11.24,2C472.66,711.48,469.85,706.37,461.42,709.52Z"/><path class="cls-7" d="M466.92,535.08s-5-4.63-3.83-7.52,5.76.86,5.76.86-2.89-3.95,0-5.49,7.33,4.34,5.79,10.89S464,544,462.93,539.9,466.92,535.08,466.92,535.08Z"/><path class="cls-4" d="M483.53,542.54s2.16-3.23,2.65-4.32"/><line class="cls-4" x1="472.48" y1="594.32" x2="472.48" y2="599.05"/><line class="cls-4" x1="490.46" y1="591.44" x2="490.93" y2="595.24"/><line class="cls-4" x1="483.2" y1="601.24" x2="483.2" y2="606.08"/><line class="cls-4" x1="464.99" y1="605.27" x2="464.99" y2="609.88"/><line class="cls-4" x1="457.85" y1="618.64" x2="457.85" y2="622.44"/><line class="cls-4" x1="474.79" y1="619.79" x2="474.79" y2="623.71"/><line class="cls-4" x1="491.85" y1="620.54" x2="491.85" y2="624.4"/><line class="cls-4" x1="466.61" y1="630.97" x2="466.61" y2="634.43"/><line class="cls-4" x1="460.15" y1="636.74" x2="460.15" y2="640.19"/><line class="cls-4" x1="460.98" y1="656.56" x2="460.98" y2="660.59"/><line class="cls-4" x1="475.71" y1="650.45" x2="475.71" y2="653.91"/><line class="cls-4" x1="485.51" y1="632.7" x2="485.51" y2="636.16"/><line class="cls-4" x1="492.65" y1="642.8" x2="492.65" y2="646.02"/><line class="cls-4" x1="500.95" y1="636.74" x2="500.95" y2="640.19"/><line class="cls-4" x1="500.95" y1="655.52" x2="500.95" y2="658.58"/><line class="cls-4" x1="488.71" y1="665.43" x2="488.71" y2="669.01"/><line class="cls-4" x1="470.76" y1="670.78" x2="470.76" y2="674.27"/><path class="cls-5" d="M473.31,497.76a65.14,65.14,0,0,1,12.14,26.33c3.56,16.28,8.07,40.63,20.93,48.29l17.93-11.9s-14.3-8.14-23.48-30.81-13.1-33.75-19-36.54C481.08,493.48,473.31,497.76,473.31,497.76Z"/><path class="cls-3" d="M486.68,488.07l3.78,1.1s-29.83,107.68-41,141c0,0,5.79,4.22,3.4,17.25a1.32,1.32,0,0,1-1.76,1l-18.77-7a1.33,1.33,0,0,1-.75-1.77c1.23-2.78,4.83-9.2,12.62-11.18Z"/><path class="cls-5" d="M459.58,480.14c-1.7.41-3.88,1-3.84,5.87s.49,10.1,4.33,11,18.37,2.19,21-2.09,2.34-14.74-2.1-15.48A58.85,58.85,0,0,0,459.58,480.14Z"/><ellipse class="cls-4" cx="455.89" cy="470.78" rx="4.84" ry="8.47" transform="translate(-46.12 49.52) rotate(-5.92)"/><ellipse class="cls-4" cx="467.29" cy="469.59" rx="4.84" ry="8.47" transform="translate(-45.94 50.69) rotate(-5.92)"/><line class="cls-4" x1="460.78" y1="471.54" x2="462.7" y2="471.54"/><ellipse cx="457.38" cy="472.13" rx="1.01" ry="2.11" transform="translate(-46.25 49.68) rotate(-5.92)"/><ellipse cx="465.39" cy="471.3" rx="1.01" ry="2.11" transform="translate(-46.12 50.51) rotate(-5.92)"/><path class="cls-2" d="M471,560.3s-5.47,0-8.76,2.16,1.12,2.88,1.12,2.88-6.72,2.32-6,6.41,9.53,3.31,15.3-.19c-.9-4.54-1.4-8.66-1.66-11.26Z"/><path class="cls-8" d="M445.86,850.93c-.47-9.36,4.41-12.53,7.29-13.59a44.22,44.22,0,0,1-6.27-7.16c-7.94-11.26-18.48-4.06-18.48-4.06-21.84,4.2-18.76,22.54-18.76,22.54s20.09,33.65,35.38,28.87C438.94,869.46,446.48,863.22,445.86,850.93Z"/><path class="cls-4" d="M445.86,850.93c-.47-9.36,4.41-12.53,7.29-13.59a44.22,44.22,0,0,1-6.27-7.16c-7.94-11.26-18.48-4.06-18.48-4.06-21.84,4.2-18.76,22.54-18.76,22.54s20.09,33.65,35.38,28.87C438.94,869.46,446.48,863.22,445.86,850.93Z"/><path class="cls-8" d="M463.77,852.51c0-8.67-4.43-9.5-10.62-15.17-2.88,1.06-7.76,4.23-7.29,13.59.62,12.29-6.92,18.53-.84,26.6.19-.07.39-.11.59-.18C460.52,871.66,463.77,861.06,463.77,852.51Z"/><path class="cls-4" d="M463.77,852.51c0-8.67-4.43-9.5-10.62-15.17-2.88,1.06-7.76,4.23-7.29,13.59.62,12.29-6.92,18.53-.84,26.6.19-.07.39-.11.59-.18C460.52,871.66,463.77,861.06,463.77,852.51Z"/><path class="cls-5" d="M406.6,856.2c-1.23,6.3.17,16.65,15,20.85,19.58,5.56,27.08.17,30.44-6s5-15.31,0-19.68a30.92,30.92,0,0,1-8.91-11.77c-3.29-6.9-14-11.8-24.72-5C409.64,840,407.61,851.07,406.6,856.2Z"/><path class="cls-5" d="M425.2,878s-3.93-16.12,1.13-27"/><path class="cls-8" d="M361.91,844.63c-.47-9.37,4.41-12.53,7.29-13.59a43.74,43.74,0,0,1-6.27-7.16c-7.94-11.27-18.48-4.06-18.48-4.06-21.84,4.2-18.76,22.54-18.76,22.54s20.09,33.65,35.38,28.86C355,863.16,362.53,856.92,361.91,844.63Z"/><path class="cls-4" d="M361.91,844.63c-.47-9.37,4.41-12.53,7.29-13.59a43.74,43.74,0,0,1-6.27-7.16c-7.94-11.27-18.48-4.06-18.48-4.06-21.84,4.2-18.76,22.54-18.76,22.54s20.09,33.65,35.38,28.86C355,863.16,362.53,856.92,361.91,844.63Z"/><path class="cls-8" d="M379.81,846.21c0-8.67-4.42-9.5-10.61-15.17-2.88,1.06-7.76,4.22-7.29,13.59.62,12.29-6.92,18.53-.84,26.59.19-.06.39-.1.59-.17C376.56,865.35,379.81,854.76,379.81,846.21Z"/><path class="cls-4" d="M379.81,846.21c0-8.67-4.42-9.5-10.61-15.17-2.88,1.06-7.76,4.22-7.29,13.59.62,12.29-6.92,18.53-.84,26.59.19-.06.39-.1.59-.17C376.56,865.35,379.81,854.76,379.81,846.21Z"/><path class="cls-5" d="M322.65,849.9c-1.23,6.29.17,16.64,15,20.85,19.58,5.56,27.07.17,30.44-6.06s5-15.3,0-19.67a31,31,0,0,1-8.92-11.77c-3.28-6.9-14-11.8-24.72-5C325.68,833.7,323.66,844.77,322.65,849.9Z"/><path class="cls-5" d="M341.25,871.69s-3.93-16.12,1.13-27"/><path class="cls-8" d="M400.78,872.39c-.47-9.36,4.41-12.53,7.29-13.59a43.74,43.74,0,0,1-6.27-7.16c-7.94-11.27-18.48-4.06-18.48-4.06-21.84,4.2-18.76,22.54-18.76,22.54s20.09,33.65,35.38,28.86C393.86,890.92,401.4,884.68,400.78,872.39Z"/><path class="cls-4" d="M400.78,872.39c-.47-9.36,4.41-12.53,7.29-13.59a43.74,43.74,0,0,1-6.27-7.16c-7.94-11.27-18.48-4.06-18.48-4.06-21.84,4.2-18.76,22.54-18.76,22.54s20.09,33.65,35.38,28.86C393.86,890.92,401.4,884.68,400.78,872.39Z"/><path class="cls-8" d="M418.68,874c0-8.67-4.42-9.5-10.61-15.17-2.88,1.06-7.76,4.23-7.29,13.59.62,12.29-6.92,18.53-.84,26.59.19-.06.39-.1.59-.17C415.43,893.11,418.68,882.52,418.68,874Z"/><path class="cls-4" d="M418.68,874c0-8.67-4.42-9.5-10.61-15.17-2.88,1.06-7.76,4.23-7.29,13.59.62,12.29-6.92,18.53-.84,26.59.19-.06.39-.1.59-.17C415.43,893.11,418.68,882.52,418.68,874Z"/><path class="cls-5" d="M361.52,877.66c-1.23,6.3.17,16.65,15,20.85,19.58,5.56,27.07.17,30.44-6s5-15.31,0-19.68A30.92,30.92,0,0,1,398,861c-3.29-6.9-14-11.8-24.73-5C364.56,861.46,362.53,872.53,361.52,877.66Z"/><path class="cls-5" d="M380.12,899.45s-3.93-16.12,1.13-27"/><path class="cls-8" d="M314.17,857.09c-.47-9.37,4.41-12.54,7.29-13.6a43.74,43.74,0,0,1-6.27-7.16c-7.94-11.26-18.48-4.06-18.48-4.06-21.84,4.2-18.76,22.54-18.76,22.54s20.09,33.65,35.38,28.87C307.25,875.62,314.79,869.37,314.17,857.09Z"/><path class="cls-4" d="M314.17,857.09c-.47-9.37,4.41-12.54,7.29-13.6a43.74,43.74,0,0,1-6.27-7.16c-7.94-11.26-18.48-4.06-18.48-4.06-21.84,4.2-18.76,22.54-18.76,22.54s20.09,33.65,35.38,28.87C307.25,875.62,314.79,869.37,314.17,857.09Z"/><path class="cls-8" d="M332.07,858.66c0-8.67-4.42-9.5-10.61-15.17-2.88,1.06-7.76,4.23-7.29,13.6.62,12.28-6.92,18.53-.84,26.59.19-.07.39-.11.59-.18C328.82,877.81,332.07,867.21,332.07,858.66Z"/><path class="cls-4" d="M332.07,858.66c0-8.67-4.42-9.5-10.61-15.17-2.88,1.06-7.76,4.23-7.29,13.6.62,12.28-6.92,18.53-.84,26.59.19-.07.39-.11.59-.18C328.82,877.81,332.07,867.21,332.07,858.66Z"/><path class="cls-5" d="M274.91,862.35c-1.23,6.3.17,16.65,15,20.85,19.58,5.57,27.07.17,30.44-6.05s5-15.3,0-19.68a31,31,0,0,1-8.92-11.77c-3.28-6.9-14-11.8-24.72-5C277.94,846.16,275.92,857.22,274.91,862.35Z"/><path class="cls-5" d="M293.51,884.14s-3.93-16.11,1.13-27"/></svg>