<?xml version="1.0" encoding="utf-8"?>
<!-- Generator: Adobe Illustrator 22.1.0, SVG Export Plug-In . SVG Version: 6.00 Build 0)  -->
<svg version="1.1" id="圖層_1" xmlns="http://www.w3.org/2000/svg" xmlns:xlink="http://www.w3.org/1999/xlink" x="0px" y="0px"
	 viewBox="0 0 664.4 970.8" style="enable-background:new 0 0 664.4 970.8;" xml:space="preserve">
<style type="text/css">
	.st0{fill:#008555;stroke:#000000;stroke-width:0.4098;stroke-linejoin:round;stroke-miterlimit:10;}
	.st1{fill:none;stroke:#000000;stroke-width:0.4098;stroke-linejoin:round;stroke-miterlimit:10;}
	.st2{fill:#F2A100;stroke:#000000;stroke-width:0.4098;stroke-linejoin:round;stroke-miterlimit:10;}
	.st3{fill:#F7DDC4;stroke:#000000;stroke-width:0.5123;stroke-miterlimit:10;}
	.st4{fill:#E84130;stroke:#000000;stroke-width:0.4098;stroke-linejoin:round;stroke-miterlimit:10;}
	.st5{fill:#E84130;stroke:#000000;stroke-width:0.5123;stroke-miterlimit:10;}
	.st6{fill:none;stroke:#000000;stroke-width:0.5123;stroke-linejoin:round;stroke-miterlimit:10;}
	.st7{opacity:0;}
	.st8{fill:#FF947B;stroke:#000000;stroke-width:0.4098;stroke-linejoin:round;stroke-miterlimit:10;}
	.st9{fill:#FF947B;stroke:#000000;stroke-width:0.5123;stroke-miterlimit:10;}
	.st10{fill:#F7DDC4;}
	.st11{fill:#FFFFFF;stroke:#000000;stroke-width:0.4098;stroke-linejoin:round;stroke-miterlimit:10;}
	.st12{fill:#F2A100;stroke:#000000;stroke-width:0.5123;stroke-linejoin:round;stroke-miterlimit:10;}
	.st13{fill:none;stroke:#000000;stroke-width:0.4098;stroke-miterlimit:10;}
	.st14{fill:#008555;stroke:#000000;stroke-width:0.5123;stroke-miterlimit:10;}
</style>
<g>
	<g>
		<g>
			<path class="st0" d="M48.5,384.3c0,0,5.2,13.7,1.1,24.8c0,0,11,4.1,6,20.5c0,0,5.9,36.7,23.8,31.8c0,0,5.7-21.6-3-34.4
				c0,0-3.2-5.6-0.2-10.1c0,0-12.7-6.6-10.5-17.9C65.7,399,57.2,398.1,48.5,384.3z"/>
			<path class="st1" d="M61.4,411.2c0,0,13.8,24,12.8,50.4"/>
		</g>
		<g>
			<path class="st0" d="M0,434.1c0,0,12.3,2.6,15,19.6c0,0,16-3.5,21.5,16.7c0,0,7.8-1.7,12.9,4.9s8.5,7.7,23,3.7
				c0,0,2.9-14.8-4.6-18.7c-7.6-4-13.1-0.4-18.6-11c0,0-13.8,5.1-24.7-14.4C24.4,434.7,13.7,439.2,0,434.1z"/>
			<path class="st1" d="M22.7,447c0,0,20.2,5.3,49.7,31.9"/>
			<path class="st2" d="M21,382.1c0,0,9.8,17.4,3.5,32.2c0,0,15.8,2,15.7,25c0,0,7,1.3,9,9.8s10.5,22.5,19.6,23.4
				c8-7.8,1.4-23.1-3.4-29.6S61,428.5,61,428.5s-15-1.1-16.6-27C44.3,401.6,30.3,400,21,382.1z"/>
			<path class="st1" d="M33.7,406.7c0,0,27.9,33.1,35,65.8"/>
		</g>
	</g>
	<path class="st3" d="M317.6,0c0,0-35.1,11.1-64.6,73.3c-13,27.3-53,43.2-53.9,93.7s-1.9,81.8-16.7,99.4l68.9,54.1
		c0,0,19.1-69.9,22.2-81c3.1-11.1,0.8-105,0.8-105l9.4-61.7L317.6,0z"/>
	<path class="st4" d="M317.6,0c-14.8,39.2-21.9,66.4-11.9,98.6c8.8,28.4,41,70.2,56.9,97.8c24.8,43,28.9,66.2,29,151.9l-100.1,45.5
		L187,335.7c0,0,50.6-63.2,51.1-123.5c0.4-60.3,15.1-66.6,27.1-95.6C280.4,80.1,271.8,49.1,317.6,0z"/>
	<g>
		<g>
			<path class="st3" d="M267.5,153c-2.5,8.4-4,16.6-4.8,24.3c5.8,3.7,7.6,9.3,7.6,9.3c-1.9-1.8-5.9-2.3-8.2-2.4
				c-0.2,2.8-0.3,5.6-0.3,8.2c6.6,3,9.4,8.6,9.4,8.6c-2.5-1.8-7.2-1.6-9.3-1.4c0.9,22,6.3,36.8,6.3,36.8
				C295,193.4,267.5,153,267.5,153z"/>
		</g>
		<g>
			<path class="st3" d="M317.7,190.7c-2.7,6.7-5.9,12.8-9.3,18.2c-5.6-0.6-9.7,2.2-9.7,2.2c2.2-0.2,4.9,1.5,6.5,2.6
				c-1.3,1.9-2.7,3.7-4,5.5c-5.8-1.4-10.4,0.8-10.4,0.8c2.5,0.1,5.4,2.6,6.7,3.8c-11.8,13.8-22.8,20.7-22.8,20.7
				C275.8,196.2,317.7,190.7,317.7,190.7z"/>
		</g>
		<g>
			<path class="st0" d="M294.1,179.6c0.5,6.6,0.5,12.5,0,17.7c-2.4,0.5-5.7,1.7-8.5,4.4c0,0,4.4-0.4,7.9,0.2
				c-0.6,3.8-1.4,7.2-2.4,10.2c-2.4-0.4-6.3-0.5-10.6,1.2c0,0,6.3,1.5,8.5,4c-6.1,13.4-15.1,17.2-15.1,17.2
				C269.3,203.7,294.1,179.6,294.1,179.6z"/>
		</g>
		<g>
			<path class="st0" d="M315.9,220.9c-3.8,4.8-7.6,8.7-11.2,11.8c-2-1.2-5-2.6-8.7-2.6c0,0,3.3,2.6,5.3,5.3
				c-2.8,2.1-5.5,3.9-8.1,5.2c-1.4-1.8-4-4.4-8.1-6.1c0,0,3.4,5.1,3.3,8.3c-12.7,5-21.3,1.6-21.3,1.6
				C283.5,220.8,315.9,220.9,315.9,220.9z"/>
		</g>
	</g>
	<g>
		<path class="st1" d="M335.1,34.3c0,0-26.9,27.2-26.9,70.1"/>
		<path class="st1" d="M325.1,11.7c0,0,6,14.4-2.9,40.6"/>
		<path class="st1" d="M353.8,52.2c0,0-27,0.7-40.2,19.3"/>
		<path class="st1" d="M357.5,41.9c0,0-22.4,0-41.3,22.8"/>
		<path class="st1" d="M364.7,30.7c0,0-23.6,1.7-44.3,24.8"/>
		<g>
			<path class="st4" d="M360.8,4.4c0,0-6.7,0.4-8.1,9.5C352.8,13.9,359.7,13.9,360.8,4.4z"/>
			<path class="st4" d="M363.4,10.7c0,0-10.3-2.1-13.2,7.5C350.2,18.2,357.7,20.4,363.4,10.7z"/>
			<path class="st4" d="M354.8,4.4c0,0-10.5,6.9-9.1,18C345.7,22.3,355.2,21.2,354.8,4.4z"/>
			<path class="st4" d="M358.7,17.8c0,0-11.7-2.7-17.9,9.8C340.9,27.6,352.3,31.3,358.7,17.8z"/>
			<path class="st4" d="M346.4,10.1c0,0-10.1,8-7.7,20.2C338.7,30.3,350.2,28.3,346.4,10.1z"/>
			<path class="st4" d="M352.8,27.2c0,0-16.3-4.2-17.7,7.2C335,34.4,345.4,38.2,352.8,27.2z"/>
			<path class="st4" d="M338,15.2c0,0-7.1,9.1-2.9,19.2C335,34.4,345.9,28.4,338,15.2z"/>
		</g>
	</g>
	<g>
		<g>
			<path class="st4" d="M376.3,36.4c0,0-7.8,4.7-5.6,11.6C370.7,48.1,377.4,45.3,376.3,36.4z"/>
			<path class="st4" d="M369.7,39.6c0,0-5.6,6.4-1.4,16C368.3,55.6,376.7,48.7,369.7,39.6z"/>
			<path class="st4" d="M378.4,42.6c0,0-13.3,4.3-12.6,11.8C365.8,54.4,375.5,53.9,378.4,42.6z"/>
			<path class="st4" d="M365.5,43.5c0,0-9.7,9-4.3,21.8C361.2,65.4,373.3,58,365.5,43.5z"/>
			<path class="st4" d="M375.8,49.4c0,0,0.2,11.9-15.5,15.3C360.3,64.7,358.2,53.4,375.8,49.4z"/>
			<path class="st4" d="M373.5,58.9c0,0-15.9,1.7-16.6,13.4C356.9,72.2,368.3,72.8,373.5,58.9z"/>
			<path class="st4" d="M358.8,50.2c0,0-9,11.3-1.5,23C357.3,73.3,368.3,66.5,358.8,50.2z"/>
		</g>
		<path class="st1" d="M357.3,73.3c-7.4,27-29.7,48.9-32.1,81"/>
		<path class="st1" d="M349.8,92.2c1-2.1,16.7-24.3,44.9-29.1"/>
		<path class="st1" d="M344.8,101.9c0,0,5-9.7,25.2-12.5"/>
		<path class="st1" d="M348.8,94.1c0.2-0.4,15.3-13.4,29.6-15"/>
	</g>
	<path class="st1" d="M293.7,78.2c-1.7,12.7,7.3,21.9,5.4,32.9"/>
	<path class="st1" d="M290,67.2c-5.2,14,0.7,22-1.5,34.6"/>
	<g>
		<path class="st0" d="M385.7,162.1c0,0-5.9,4-4.1,12c1.8,7.9,2.9,10.5,1.9,14.7c0,0,10.3-5.5,10-16.7
			C393.1,160.8,388.6,160.6,385.7,162.1z"/>
		<path class="st0" d="M350.4,155.6c0,0,5.7-2.6,8.2,2.3c2.5,4.9-1.6,11.6,0,18c0,0-5.1-2.2-5.7-8.5c-0.7-7-5.3-6.1-5.3-6.1
			L350.4,155.6z"/>
		<g>
			<path class="st5" d="M290.8,143.4c0,0-2.5-11.2,1.3-17.4s12.7-4.9,13.9,0c0,0,7.2,0.8,6.4,7.8
				C311.5,140.7,303.4,144.6,290.8,143.4z"/>
			<path class="st6" d="M298,134.6c0.2-0.5,1.1-8,7.9-8.6"/>
		</g>
		<path class="st0" d="M309.1,137.2c-3.2,0.6-6.4,3.2-8.7,10c-2.6,7.9-5.4,11.8-7.6,12.1c0,0,18.1-1.6,21-13.9
			C315.8,137,311.2,136.8,309.1,137.2z"/>
		<path class="st0" d="M285.9,105.5c0,0,3.5,4.7,9.8,3.4c6.4-1.3,13.3,5.1,13.5,9.4c0,0,5.8-12.8-2.8-17.3
			C299,97.2,296.2,105.1,285.9,105.5z"/>
		<g>
			<path class="st5" d="M348.3,151.2c0,0,2.2-6.4-3.6-8.1c-5.8-1.7-10.1,0.9-15.7,12.4c0,0,4.7,5.6,14.8,5.8S353.6,152,348.3,151.2z
				"/>
			<path class="st6" d="M338.6,153.8c0,0,3.8-3.7,9.7-2.6"/>
		</g>
		<path class="st3" d="M306.2,136.8c0,0,1,9.8,12.6,20.8c8.7,8.3,9.5,28.9,6.7,46.3c-2.9,17.4-10.3,34.2-9.5,64.1
			c0.4,16,6.9,49,23.1,51.4c0,0,17-18.5,17-19.5s-17.1-18.3-21.8-46.4c-3.5-20.7-2.4-48.8,11.6-57.2c11.9-7.1,19.3-8.6,29.6-22.7
			s8.3-14,18.6-17.1c10.3-3.1,5-8.9,5-8.9L384,144c0,0-11.8,23.9-22.8,32s-17.9,13.4-21.3,8.6c-3.5-4.8,11.9-15.6,13.5-28.1
			s11.2-14.1,11.2-14.1l-5.2-8.7c0,0-9.5,5.3-13.9,17.5c-3.7,10.1-7.5,21.4-11.2,20.5c-5.3-1.3,4.9-28.2-15.1-56.4l-5,2.8
			c0,0,15,27.1,8.4,31c-3.9,2.3-7.7-9.6-8.1-14.1c-0.2-2-1.2-7.2-5.1-6.3C304.8,129.9,306.2,136.8,306.2,136.8z"/>
		<path class="st0" d="M405,123.6c0,0-2,2.6-8.7,5.1c-6.7,2.5-11.1,5-12.4,14c0,0,9.4,4,14.9-2.3C404.2,134.1,401.7,128.4,405,123.6
			z"/>
		<path class="st0" d="M363.9,104.9c0,0-1.1,5-4.4,9.3c-3.2,4.3-6.8,9.7-1.6,19.7c0,0,8.9-2.8,7.9-13.2
			C365.4,115.5,363.4,108.1,363.9,104.9z"/>
		<path class="st0" d="M360.6,133.8c0,0-5.7,7.2,0.2,15.2s5.1,11.5,5.1,11.5s1.5-9.3,4-15.2s-1.3-13.4-1.3-13.4L360.6,133.8z"/>
		<path class="st0" d="M370.8,122.9c0.4-0.9,3.5-1.9,7.9,0s10.8-1.9,10.8-1.9s-1.3,7.7-7.3,9.9C375.6,133.4,367.1,130.6,370.8,122.9
			z"/>
		<path class="st0" d="M306,123.2c2.6-3.5,7.1-2.6,10.7,2.6s6.9,9.1,12.4,8.3c0,0-6.5,6.5-14.7,4.4
			C306.2,136.5,302.6,127.7,306,123.2z"/>
		<path class="st0" d="M288,115.8c0,0,5.1,0.6,9.5-2.4s9.2-2.9,13.3,2.4c0,0-4.4,8.1-11.8,6.6C291.7,120.9,288,115.8,288,115.8z"/>
		<path class="st0" d="M381.3,147.2c0,0-6-0.1-10.2,5.2s-4.4,9.3-8.8,11.2c0,0,13,3.2,18.9-5.8C387.2,149,381.3,147.2,381.3,147.2z"
			/>
		<path class="st0" d="M394,156.7c0.3-1.5,4.7-5.7,12.9-2.8c8.5,3,7.3,11.8,17.6,12.9c0,0-10.3,3.5-16.6-0.8
			C401.1,161.4,392.7,163.8,394,156.7z"/>
		<path class="st0" d="M390.5,142.2c0.1-0.4,5.1,4.4,10.9,3.8c9-1.1,14,1.9,17.5,11.1c0,0-8.9-3.2-14.4-1.4
			C397.7,157.9,387.8,154.5,390.5,142.2z"/>
		<path class="st0" d="M326.3,120.7c5.4-2.4,9.9,2.3,11.5,13.1c1.4,9.6,4.3,11.6,4.3,11.6s-12.1-0.5-16.3-9.1
			C321.5,127.8,322,122.6,326.3,120.7z"/>
		<path class="st0" d="M316.1,112.1c0,0-3.2-3.5-6.7,1.3c-2.4,3.4-2.8,11.2-8.2,12.7c0,0,13.4,4.1,18.8-6.9
			C323.7,111.4,316.1,112.1,316.1,112.1z"/>
		<g>
			<path class="st5" d="M319.4,117.5c0,0-4.8,4-1.1,9s15.9,4.3,20.2,1.5c0,0,3.1-11.2-6.5-16.6C323.6,106.7,318,113.3,319.4,117.5z"
				/>
			<path class="st6" d="M319.4,117.5c0,0,5.2-1.9,10.5,4.8"/>
		</g>
		<g>
			<path class="st5" d="M305.9,100.8c0,0,1.1-5.1,7.1-4.4s11.6,8.7,11.3,16.9c0,0-8.6,4-15.5,2C301.1,113.1,299.6,103.2,305.9,100.8
				z"/>
			<path class="st6" d="M305.9,100.8c0,0,6.3-0.7,9.9,5.3"/>
		</g>
		<path class="st0" d="M339.5,140c0-0.1,5.4-1.3,8.7-5.8s8.1-7.6,14.9-3.8c0,0,1.7,7.3-6.8,9.6C347.8,142.3,339.5,140,339.5,140z"/>
		<g>
			<path class="st5" d="M363.9,125.2c0,0-1.3-4,3.7-5.1s11.6,7.1,10,15.3c0,0-11.4,3.7-15.3-2.3
				C358.4,127.3,363.9,125.2,363.9,125.2z"/>
			<path class="st1" d="M363.9,125.2c0,0,4.4-0.5,6.9,4.9"/>
		</g>
		<g>
			<path class="st5" d="M390.5,156.1c0,0-8.9,0-7.7,10.5c0.9,7.7,7.6,11.2,18.8,11.5c0,0,4.4-7.9,0.9-16.8S392.3,152.7,390.5,156.1z
				"/>
			<path class="st6" d="M397.1,166.8c0,0,0.3-7.8-6.6-10.7"/>
		</g>
		<g>
			<path class="st5" d="M387.9,138.4c0,0,7.2,3,3.5,11s-14,5.9-14,5.9s-4.9-10,0.1-15.9C382.5,133.6,387.5,136.4,387.9,138.4z"/>
			<path class="st1" d="M381,148.2c0,0,0.2-6.4,6.9-9.8"/>
		</g>
	</g>
	<g class="st7">
		<path class="st0" d="M576.8,392.7c-13.4,0.9-25.1,2.7-35.4,5.2c-0.3,4.9-1.6,12-6.4,18.2c0,0-0.4-8.9-2.8-15.7
			c-7.4,2.3-13.9,4.9-19.6,7.8c1.4,4.7,2.9,12.4,0.6,21.5c0,0-4.9-12.1-10.6-15.8c-25,16.1-29.8,35.3-29.8,35.3
			C536,449.4,576.8,392.7,576.8,392.7z"/>
	</g>
	<g class="st7">
		<path class="st2" d="M515.2,361.4c2.9-9.6-3.8-17.6-3.8-17.6c8.6-8.4,18.3-16.9,29.1-25.5c0,0,7.4,96.1-96.9,134.7
			c0,0,4.9-32.4,37.6-75.3c0,0,5.9,3.2,9.6,11c3.7-9.8-2.9-19.5-2.9-19.5c5.3-6.4,11.2-13,17.8-19.8
			C505.8,349.4,511.5,353.7,515.2,361.4z"/>
	</g>
	<g class="st7">
		<path class="st0" d="M485.5,302.4c-3.1,4.9-6,9.8-8.5,14.7c2,5.8,5.7,16.9,5.7,17.5c0,0.5-6.9-3.9-11-6.5
			c-1.9,4.4-3.6,8.8-5.1,13.2c1.2,3.5,6.7,19.6,6.7,20.2c0,0.5-6.7-3.8-10.8-6.3c-13.8,54.7,4.2,97,4.2,97
			C517.2,396.4,486.4,301,485.5,302.4z"/>
	</g>
	<g>
		<path class="st0" d="M152.6,143.2c3.6,12.7,6.1,24,7.6,34.2c-3.3,1.7-7.7,5-10.4,11.2c0,0,6.2-2.2,11.6-1.9
			c0.8,7.5,1,14.3,0.9,20.4c-3.7,0-9.4,0.9-14.9,5.6c0,0,9.8,1.1,14.2,5.3c-3.1,27.8-14.7,37.8-14.7,37.8
			C126.8,197.4,152.6,143.2,152.6,143.2z"/>
	</g>
	<g>
		<path class="st0" d="M116.2,167.9c-0.5,12.2-0.2,22.9,0.6,32.4c3.3,0.8,8,2.8,11.8,7.7c0,0-6-0.6-10.8,0.8
			c0.9,6.9,2.2,13,3.6,18.4c3.3-0.8,8.6-1.2,14.6,1.8c0,0-8.6,3.1-11.6,7.8c8.8,24.3,21.4,30.7,21.4,30.7
			C151.2,210.8,116.2,167.9,116.2,167.9z"/>
	</g>
	<path class="st3" d="M92.7,424c0,0,0.3-42.4,7.8-69.4s-4.1-33.2,10.7-68.8c14.9-35.6,24.6-39.6,41.5-73.4
		c21.6-43.3,10.3-101.9,59.6-145.8l-10,62.1l26.3,90.8l-36.9,154.7l-49.5,69L92.7,424z"/>
	<path class="st4" d="M25.7,633.4c0,0-2.6,28.7,12.3,63.2c10.3,23.7,20.1,45.9,23.8,76s25.4,51.2,52.2,53.1
		c26.8,1.9,34.6,21.4,52.2,42.3c17.6,20.9,31.2,54.9,64.5,63.1c33.3,8.1,30.5,29.7,69.4,38s76.4-14.7,101.7-39.2
		c25.3-24.5,36.2-54.2,67.9-70.2c31.7-15.9,64.7-36.6,84.7-72.1s18.4-41.6,33.3-58.4c11.7-13.1,24.6-25,42.4-58.5
		c8.6-16.3,17-41.2,17.9-78.7l-172.9-51.7l-292.5,27.5L25.7,633.4z"/>
	<path class="st3" d="M88.9,563c0,0-50.5,4.8-61.7,46.5s23.3,84.7,92.2,101.1s108.7,62.7,194.1,62.6c78.2-0.1,86.9-39.1,156.7-55.2
		c69.8-16.1,157-59.3,175.3-114s-48.6-90.2-118.3-90.1c-60.7,0.1-248.5-23.4-248.5-23.4L88.9,563z"/>
	<path class="st4" d="M212.3,66.8c0,0-6.9,55.1,20.5,90.8c68.6,89.3,57.9,118,77.3,155.5s34.5,50.7,34.5,50.7l-44.4,56
		c0,0-92,5.1-94.2,5.1s-70.7-30.5-70.7-30.5s-4.2-21.2,0.3-47.5c4.6-26.3,17.8-29.1,19.8-55.4s7.3-45.3,17.6-62
		c10.4-16.7,25.9-41.5,25.4-72.2C197.9,126.6,195.6,88.4,212.3,66.8z"/>
	<path class="st3" d="M399.5,194.6c0,0-11.1,41.6-29.6,59.9c-18.5,18.2-42.9,25.6-59.8,48.7s-19.9,47-31.2,58.5s-32.5,19.7-39,39.2
		s-26.8,70.1-37.2,90.5s97.5,60.6,100.4,60.7s44-18.7,44-18.7l14.6-105.1l28.6-112.4c0,0,10.6-54,12.9-62
		C405.5,245.9,399.5,194.6,399.5,194.6z"/>
	<path class="st4" d="M399.4,194.6c0,0,15.4,32.2,21.2,69.5s3.9,65,38.3,96.5s45.5,63.6,47,89.6s31,63.3,72.9,70.2
		c0,0-17.2,22.1-59.6,21.8c-42.5-0.3-54.9-14.1-84.8-3.7c-35.2,12.3-37.7,34.8-37.7,34.8l-98.9-39.7c0,0,26.5-18,32-58.7
		s-0.7-55.9,17-113.4C358.7,323,394.5,281.2,399.4,194.6z"/>
	<g>
		<g>
			<path class="st4" d="M66.5,274.1c0,0,4,15.2,14.3,16.2C80.7,290.3,78.5,278.3,66.5,274.1z"/>
			<path class="st4" d="M67.6,286c0,0,7.6,11,20.6,8.8C88.2,294.8,84.7,282.5,67.6,286z"/>
			<path class="st4" d="M76,275.2c0,0-3.9,13.5,8,20.1C84,295.3,87.3,281.7,76,275.2z"/>
			<path class="st4" d="M71.6,294.6c0,0,10.7,13.4,26.7,8.3C98.3,302.8,90.2,289.5,71.6,294.6z"/>
			<path class="st4" d="M83.6,278c0,0-6.1,18.9,8.5,25.9C92.1,304,97.9,289.3,83.6,278z"/>
			<path class="st4" d="M93.7,286.1c0,0-8.3,15.5,5.9,24.1C99.6,310.1,105.9,296,93.7,286.1z"/>
			<path class="st4" d="M73.1,301.9c0,0,8.6,13.2,27.8,7.5C100.9,309.3,91.2,295.3,73.1,301.9z"/>
		</g>
		<g>
			<path class="st1" d="M100.9,309.3c0,0,22.2,21.9,32.1,80.4"/>
			<path class="st1" d="M134.3,314.1c0,0-10.6,15.8-8.7,44"/>
			<path class="st1" d="M87.3,335.6c0,0,24.8-2,35.1,12.8"/>
			<path class="st1" d="M74.9,320.7c0.8,0,29.2-0.8,45.3,22.1"/>
			<path class="st1" d="M55.7,305.9c0,0,38.1-0.3,60.1,26.8"/>
		</g>
	</g>
	<g>
		<path class="st4" d="M92.4,212.2c0,0-0.3,12.6,7.9,15.6C100.3,227.8,103.1,218.1,92.4,212.2z"/>
		<path class="st4" d="M90.5,221.5c0,0,4.9,16.7,17.8,17.3C108.3,238.8,106.3,224,90.5,221.5z"/>
		<path class="st4" d="M101,215.6c0,0-5.8,12.9,4.7,24.7C105.8,240.3,111.5,226.8,101,215.6z"/>
		<path class="st4" d="M92.8,232.4c0,0,2.8,19.6,19.6,19.4C112.3,251.7,112.5,234.7,92.8,232.4z"/>
		<path class="st4" d="M107.2,221.2c0,0-8.4,19,3.4,30.4C110.6,251.7,120.8,238.4,107.2,221.2z"/>
		<path class="st1" d="M114.8,256.3c0,0,24,38.8,37.5,125.7"/>
		<path class="st1" d="M110.7,279.9c0,0,12.9,0.9,20.2,13.4"/>
		<path class="st1" d="M96.9,269.6c0,0,21.2,0,31.4,16.4"/>
		<path class="st1" d="M87.3,256.7c0,0,28.6,4.7,37.5,20.5"/>
		<path class="st1" d="M148.1,262.7c0,0-11.7,14.9-12.3,45.4"/>
		<path class="st4" d="M93.9,244.6c0,0,7.2,15.8,20.9,11.7C114.8,256.3,110.8,241.9,93.9,244.6z"/>
		<path class="st4" d="M114.6,232.4c0,0-11.2,14.6,0.2,23.9C114.8,256.3,124.5,248.2,114.6,232.4z"/>
	</g>
	<g>
		<path class="st0" d="M322.3,384c3.7-8.4,10.9-8.6,10.9-8.6c0.5-11.8,0.6-24.6,0.1-38.3c0,0-53.4,56.8-26.4,159.6
			c0,0,14.7-24.6,22.2-76.9c0,0-4.3-2.3-10.1,0c3.5-9.1,11.4-10.5,11.4-10.5c1-8.1,1.7-16.8,2.3-26.1
			C332.7,383.3,327.9,381.9,322.3,384z"/>
	</g>
	<g>
		<path class="st0" d="M378.1,372.9c-3.7,12.7-7.7,23.6-11.8,33c-3.7-0.3-9.1,0.1-14.8,3.9c0,0,6.4,1.5,10.9,4.6
			c-3.3,6.8-6.7,12.6-10.1,17.7c-3.1-1.9-8.5-4.2-15.6-3.2c0,0,7.7,6.1,9.2,12c-17.4,21.9-32.6,24.1-32.6,24.1
			C327.3,404.9,378.1,372.9,378.1,372.9z"/>
	</g>
	<g>
		<path class="st2" d="M280.8,366.1c-0.5,11.1-0.2,20.9,0.6,29.6c3,0.7,7.3,2.6,10.8,7.1c0,0-5.5-0.6-9.9,0.7
			c0.9,6.3,2,11.9,3.3,16.9c3-0.7,7.9-1.1,13.3,1.6c0,0-7.8,2.8-10.6,7.1c8.1,22.2,19.6,28.1,19.6,28.1
			C312.8,405.4,280.8,366.1,280.8,366.1z"/>
	</g>
	<g>
		<path class="st3" d="M238.8,350.6c-2.6-5.7-8.4-6.2-8.4-6.2c0.1-7.8,0.6-16.2,1.6-25.2c0,0,40.9,40.3,14.4,106.6
			c0,0-10.8-17-14.7-51.9c0,0,3.6-1.3,8.2,0.6c-2.4-6.2-8.8-7.5-8.8-7.5c-0.4-5.4-0.7-11.2-0.7-17.3
			C230.4,349.5,234.3,348.9,238.8,350.6z"/>
	</g>
	<g>
		<path class="st2" d="M325.2,308.9c0,0-18.9,11.7-7.4,35C317.8,343.9,338,328.7,325.2,308.9z"/>
		<g>
			<path class="st8" d="M272.9,278c0.8,3.5-2.5,6.8-6.1,7.9s-4.5,8.5-10.4,9c-4.3,0.4-8.6-3-10.4-9c-1.2-4,0.5-12,5.1-12.5
				c3.6-0.4,4.6,3,11.3,1.1C268.4,272.8,272.2,275.1,272.9,278z"/>
			<path class="st8" d="M252.7,280.4c-0.1,0.3-2.1,4.6,1.5,6.6"/>
			<path class="st8" d="M252.5,287.6c0,0-1.6-1.1-2.9,1.1"/>
			<path class="st8" d="M250.2,281.3c0,0-0.5,1.1-1.7,0.6"/>
			<path class="st8" d="M248.1,282.8c0,0,1.2,1.2,0.2,2.5"/>
		</g>
		<g>
			<path class="st9" d="M266.6,287.2c3.7,1.8,3.1,5.3,1.6,9.1c-1.4,3.6,1.8,7.8-2.9,11.2c-4.1,2.9-10.7,0.5-14.6-3.8
				c-3.2-3.6-1.2-9.3,2.5-11c2.6-1.3,4.9-0.1,7.7-3.7C262.7,286.6,264.6,286.2,266.6,287.2z"/>
			<path class="st9" d="M255.6,299.4c0,0,0.9,1.8-1.2,2.6"/>
			<path class="st9" d="M257.6,301c0,0,0.3,1.5,2.4,1.5"/>
			<path class="st9" d="M255.1,303.3c0,0,2,0.2,2.3,1.8"/>
			<path class="st9" d="M258.8,305.1c0,0,0.3-1.3,1.2-1.1"/>
		</g>
		<path class="st2" d="M272.9,311.4c0,0,5,16.2,17,12.1C289.9,323.5,289.8,310.8,272.9,311.4z"/>
		<path class="st2" d="M293.8,326.6c0,0-8.4-8.8-19.8-1.3C274.1,325.3,284.9,338.3,293.8,326.6z"/>
		<path class="st2" d="M293.6,327.2c0,0-13-3.9-18.7,9.6C274.9,336.8,288.2,343.9,293.6,327.2z"/>
		<path class="st2" d="M270.4,311.2c0,0,9.4-15.7,25.1-6C295.5,305.1,289.8,321.7,270.4,311.2z"/>
		<g>
			<path class="st9" d="M286.1,308c3.5-3.7,7.5-0.7,11.1,0.3c3.9,1.1,11.4,1.4,12.1,6.1c0.7,4.5-2.4,7.9-6.4,6.7
				c-3.3-1-5.1,0.4-5.6,3.6s-3.6,5.3-6.8,4.1c-3-1.1-4.6-4-4.4-8S281.8,312.6,286.1,308z"/>
			<path class="st9" d="M287.8,312.8c0,0,1.9,0.5,3-1"/>
			<path class="st9" d="M289.6,321c0-0.3,0.3-2,2.3-2"/>
			<path class="st9" d="M291.9,314.7c0,0-0.5,1.7,0.9,2.1"/>
			<path class="st9" d="M288,315.7c0,0,1.1,0.7,0.6,1.8"/>
		</g>
		<path class="st2" d="M246.9,332.4c0,0-9.4,5.1-3.7,14.9C243.2,347.3,251.8,341.4,246.9,332.4z"/>
		<path class="st2" d="M214.6,316.3c0,0,15-5.8,23.5,7.5C238.1,323.8,225.1,333.9,214.6,316.3z"/>
		<g>
			<path class="st9" d="M228.2,319.9c2.7-4.7,7-1.6,11.9-0.7c5,0.9,6.6-2.1,9.5,0c3.6,2.6-1.2,6.8-1.9,9.9c-1,4.4-3.2,10.6-8.4,9.6
				c-4.8-0.9-4.2-3.7-6.8-8.5C229.8,325.5,226.2,323.5,228.2,319.9z"/>
			<path class="st9" d="M236.4,324.1c0,0-0.7,2.8-3.4,1.9"/>
			<path class="st9" d="M238,326.6c0,0-0.7,2.8,1.8,3.6"/>
			<path class="st9" d="M234.2,328.7c0,0,2,1,2.3,2.5"/>
			<path class="st9" d="M237.5,332c0,0,1-1.3,2.7-0.5"/>
		</g>
		<path class="st2" d="M220.8,312.2c0,0,4-13.1,17.1-12.7C237.9,299.6,232.5,315.3,220.8,312.2z"/>
		<path class="st2" d="M227.1,318.9c-0.5,0,3.8-17.9,19.2-18.9C246.3,300,245.2,317.5,227.1,318.9z"/>
		<g>
			<path class="st9" d="M231.3,277.4c3.5-0.7,6.8,2.6,7.9,6.3c1,3.7,8.5,4.8,8.9,10.7c0.3,4.4-3.2,8.6-9.3,10.3
				c-4.1,1.2-12.2-0.8-12.6-5.4c-0.3-3.7,3.1-4.6,1.3-11.4C226,281.8,228.4,278,231.3,277.4z"/>
			<path class="st9" d="M233.3,297.8c0.3,0.1,4.6,2.2,6.7-1.3"/>
			<path class="st9" d="M240.6,298.2c0,0-1.1,1.6,1,3"/>
			<path class="st9" d="M234.2,300.4c0,0,1.1,0.6,0.6,1.7"/>
			<path class="st9" d="M235.6,302.5c0,0,1.3-1.1,2.6-0.2"/>
		</g>
		<path class="st2" d="M289.9,297.8c0,0-5.5-19.8-19.3-13.5C270.6,284.3,269.4,297,289.9,297.8z"/>
		<path class="st2" d="M224.9,282.3c0,0-6.1-15-25.2-10.4C199.7,271.9,209,289.2,224.9,282.3z"/>
		<path class="st2" d="M195.6,286.9c0,0,9.5-12.9,26.6-2.2C222.2,284.7,213,301.1,195.6,286.9z"/>
		<path class="st2" d="M215.9,286.4c0,0-15.2,4.8-7.4,20.3C208.4,306.7,223.1,300,215.9,286.4z"/>
		<path class="st0" d="M328.6,317c0,0-6.9,6.7-13.8,6.4c-6.9-0.3-6.7-4.7-4.7-10.4s5.6-18.8,0.3-24c-5.3-5.1-7.8-2.2-7,2.2
			c0,0,5.5,12.6-13,40.5c-10.1,15.3-17.7,25.5-23.2,32.7c-2.8-9.4-5.2-20.8-2.1-32.5c4.5-16.8,10.9-33,8.5-48.2
			c-0.3-2-1.2-7.6-4.2-6.8c-3,0.8-2.3,5.6-4.1,11s-0.6,12.6-1,18.4c-0.3,5.4-0.3,12.5-4.8,12c-4.9-0.5-4.5-7.7-7.9-18.8
			c-3.5-11.3-13.2-26.7-17.5-24.7c-1.5,0.7-2.5,2.9-0.5,5.7c4.6,6.5,10.9,21.3,11.7,38.5c0.9,20.1,5.2,37.9,11,52.9
			c3.3,8.4,7.1,19.9,7.3,30.5c0.2,13.4-1.3,34.6-0.7,35.4c1.9,2.8,4.9,2.6,6.7,0c0.9-1.3,6-22.3,5.4-39.3c-0.4-10.8-2.7-20.4-3.8-23
			c7.5-7.3,15.9-17.6,21.9-26c5.3-7.4,9.4-15.2,17.5-17.3s13.7-4.6,19.7-11.8L328.6,317z"/>
		<path class="st2" d="M327,309.3c0,0-11.2,19.2,8.5,29.6C335.6,339,341,319.4,327,309.3z"/>
		<path class="st2" d="M322,304c2.3-14.9,21.4-13.9,21.4-13.9S336.5,308.7,322,304z"/>
		<path class="st2" d="M351.3,312.9c0,0-18.7,10.1-27.3-6C324,306.9,333.6,295.6,351.3,312.9z"/>
		<path class="st2" d="M327.8,273.1c0,0-17.6,6.2-16.2,21C311.6,294.1,324.5,294.1,327.8,273.1z"/>
		<path class="st2" d="M302.3,269.5c0,0-10.1,18.9,11.1,26.8C313.4,296.3,318.2,278.7,302.3,269.5z"/>
		<path class="st2" d="M225.7,246.3c0,0-11.3,19.1,6.6,28.9C232.3,275.2,243.9,260.2,225.7,246.3z"/>
		<path class="st2" d="M248.3,255.6c0,0-20.9,4.9-15.6,21.1C232.7,276.7,247.7,278.7,248.3,255.6z"/>
		<g>
			<path class="st9" d="M314.5,290.7c3.3-0.7,6.4,2.4,7.3,5.8s7.9,4.3,8.3,9.8c0.3,4.1-2.9,8-8.5,9.6c-3.8,1.1-11.2-0.6-11.7-4.9
				c-0.3-3.4,2.8-4.3,1.1-10.5C309.6,294.9,311.8,291.3,314.5,290.7z"/>
			<path class="st9" d="M316.6,309.6c0.3,0.1,4.2,2,6.2-1.3"/>
			<path class="st9" d="M323.3,309.9c0,0-1,1.5,1,2.7"/>
			<path class="st9" d="M317.4,312c0,0,1.1,0.5,0.6,1.6"/>
			<path class="st9" d="M318.8,313.9c0,0,1.2-1.1,2.4-0.2"/>
		</g>
		<g>
			<path class="st9" d="M307.9,288.4c2.5,2.9-1,5.5-2.5,8.7c-1.5,3.1-1.2,12.3-9,12.1s-5-9.3-8.4-10.9s-4.5-7.6-0.1-10.4
				c3.4-2.2,6.5,1.7,11.3,0.2C304,286.4,305.5,285.8,307.9,288.4z"/>
			<path class="st9" d="M293.7,292.9c0,0,0.4,2-1.5,2.1"/>
			<path class="st9" d="M295.4,295c0,0-0.3,1.9,1.5,2.8"/>
			<path class="st9" d="M297,300.3c0,0-1.5-0.3-2.3,0.8"/>
			<path class="st9" d="M291.3,297.4c0,0,1.3,0.6,1.5,2.4"/>
		</g>
		<path class="st2" d="M236,278.4c0,0,6.7-8,21.1-0.8C257.1,277.6,245.9,287.1,236,278.4z"/>
		<g>
			<path class="st9" d="M217.9,262.5c5-2.7,8.2,1.8,11.7,4.2c3.7,2.5,10.4,3.2,9.5,8.8c-1,6.1-6,6.7-9.3,4.7
				c-3.3-1.9-6.3-1.9-7.9,1.3c-1.6,3.3-5.1,4.8-8.2,3c-2.4-1.5-1.9-4.1-0.3-8.2C215.1,272.1,211.7,265.9,217.9,262.5z"/>
			<path class="st9" d="M218,268.2c0,0,1.9,1.2,3.5-0.1"/>
			<path class="st9" d="M217.1,277.6c0.1-0.3,1-2,3.1-1.3"/>
			<path class="st9" d="M221.7,271.7c0,0-1.1,1.6,0.2,2.6"/>
			<path class="st9" d="M217.2,271.3c0,0,0.9,1.1,0,2.1"/>
		</g>
		<g>
			<path class="st9" d="M223.3,279.2c6.1-5,11.8,1.1,10.3,5.9c-1.5,5-3.6,7.9-2.7,11.7c0.9,3.8-2.4,7.7-7.1,6.4
				c-9.9-2.7-16.5-9.6-13.6-15.3C212.8,282.7,214.4,286.5,223.3,279.2z"/>
			<path class="st9" d="M217.4,291.6c0,0,0,2-1.4,3"/>
			<path class="st9" d="M219.4,292.9c0,0,0,2,2.4,2.1"/>
			<path class="st9" d="M216.4,296.5c0,0,1.9-0.4,2.5,1.2"/>
			<path class="st9" d="M220.6,298.2c0,0,0.4-1.5,1.7-1.5"/>
		</g>
		<path class="st2" d="M263.7,276.3c0,0,4,13.4,18.8,6.4C282.5,282.6,276.9,271.1,263.7,276.3z"/>
		<path class="st2" d="M277,271c0,0-5.1,11.3-21.3,4.1C255.7,275.1,264.3,261.5,277,271z"/>
		<path class="st2" d="M284,252.2c0,0-17.6,10.5-7.9,22.2C276,274.4,288.6,272.2,284,252.2z"/>
		<g>
			<path class="st9" d="M273.5,268.7c2.8-4,6.1,1.7,10.2,0.2c3.8-1.4,10.1-0.5,12.4,5.9c2.9,8.1-5.4,18-12.9,13.7
				C276,284.4,270.1,273.8,273.5,268.7z"/>
			<path class="st9" d="M290,276.6c0,1.4,2.2,2.8,3.8,1.8"/>
			<path class="st9" d="M286.9,278.6c0,0,0.5,2-1.5,3.2"/>
			<path class="st9" d="M286.7,283.5c0,0,1.6-0.3,1.9,1.3"/>
			<path class="st9" d="M292.1,280.4c0,0-2.1,1.5-1.6,3.5"/>
		</g>
	</g>
	<g>
		<path class="st3" d="M43,601.6c0,0,15.6-22,16.9-89.9c1.2-61.7,31.6-97,46.7-116c25.5-32.2,44.7-27.1,76.4-109.3l31,52.3
			c0,0-3.4,133-1,136.3s-21.3,100-21.3,100l-5.9,70.3c0,0-18.6-8.9-32.9-8.2s-22.4-8.4-38-6.8c-15.6,1.5-29-10.3-49.2-14.3
			C52.7,613.4,43,601.6,43,601.6z"/>
		<path class="st4" d="M185.8,645.3c8.3-33.4-68.3-70-10.3-182.2c49.7-96.1,7.4-176.8,7.4-176.8s30.9,30.1,41.3,62.5
			c10.4,32.4,15.4,39.6,32.3,51.2c16.9,11.6,22.8,18.9,35.9,30.4c13.1,11.6,37.2,17.7,64.6,43c27.4,25.3,41.7,77.5,80.2,90.1
			c0,0-24.6,2.3-35.4,17.8s-30.2,26.9-51.3,25.9s-11.3,12.2-59,16S248.9,652.7,185.8,645.3z"/>
		<path class="st1" d="M219.5,374.7c0,0-2.1,17.7,16.3,33.4c16.6,14.2,20.4,20.4,24.1,31.6"/>
		<path class="st1" d="M215.4,398.8c0,0-0.6,6.8,4.1,11.5c5.9,5.9,5.9,10.8,5.9,10.8"/>
		<path class="st1" d="M252.5,410c0,0,7.8,4.7,8.9,9.4"/>
		<path class="st1" d="M266.3,424.5c0,0,4.5,5.2,12.3,8.9c7.8,3.7,14.1,12.3,14.1,12.3"/>
	</g>
	<path class="st1" d="M225.6,173.3c0.9,0.9,1.7,1.9,2.3,2.8c6.5,9.4,0.2,18,10.6,25c11.9,8,13.5,15.3,13.5,15.3"/>
	<path class="st1" d="M215.9,153c0,0,0.3,7,5.2,13.4"/>
	<path class="st1" d="M208.9,138.6c0,0-2.9,7.9,0,16.4s5.8,15.8,3.4,26.9c-2.4,11.2,1.6,19.4,1.6,19.4"/>
	<path class="st1" d="M219.8,189c0,0-0.7,8.9,4.5,14.5c5.2,5.6,4.3,16.1,4.3,16.1"/>
	<g>
		<g>
			<g>
				<path class="st0" d="M483.9,479.3c0,0-2.3-10,2.2-13.2c4,3.1,2.3,13.2,2.3,13.2H483.9z"/>
				<path class="st0" d="M490.4,482.5c1.1-5,3.8-7.7,1.2-9.1c-2.3-1.3-5.3,3.8-5.5,4.4c-0.2-0.7-3.2-5.7-5.5-4.4
					c-2.6,1.4,0.1,4.1,1.2,9.1c1.3,5.7,5.9,35.3,2.7,41.3h1.6h1.6C484.5,517.8,489.1,488.2,490.4,482.5z"/>
				<path class="st0" d="M490.1,489.4c1.1-5.2,4.3-7.9,1.6-9.4c-2.4-1.3-5.5,3.9-5.7,4.6c-0.2-0.7-3.4-5.9-5.7-4.6
					c-2.7,1.5,0.5,4.2,1.6,9.4c1.3,5.9,0.7,73.9,0.7,73.9h3.4h3.4C489.4,563.3,488.8,495.3,490.1,489.4z"/>
			</g>
			<g>
				<path class="st0" d="M508.1,471.4c0,0-2.3-10,2.2-13.2c4,3.1,2.3,13.2,2.3,13.2H508.1z"/>
				<path class="st0" d="M514.6,474.6c1.1-5,3.8-7.7,1.2-9.1c-2.3-1.3-5.3,3.8-5.5,4.4c-0.2-0.7-3.2-5.7-5.5-4.4
					c-2.6,1.4,0.1,4.1,1.2,9.1c1.3,5.7,5.9,35.3,2.7,41.3h1.6h1.6C508.7,509.9,513.3,480.3,514.6,474.6z"/>
				<path class="st0" d="M514.4,481.5c1.1-5.2,4.3-7.9,1.6-9.4c-2.4-1.3-5.5,3.9-5.7,4.6c-0.2-0.7-3.4-5.9-5.7-4.6
					c-2.7,1.5,0.5,4.2,1.6,9.4c1.3,5.9,0.7,78.4,0.7,78.4h3.4h3.4C513.7,559.9,513.1,487.4,514.4,481.5z"/>
			</g>
			<g>
				<path class="st0" d="M532.4,479.3c0,0-2.3-10,2.2-13.2c4,3.1,2.3,13.2,2.3,13.2H532.4z"/>
				<path class="st0" d="M538.8,482.5c1.1-5,3.8-7.7,1.2-9.1c-2.3-1.3-5.3,3.8-5.5,4.4c-0.2-0.7-3.2-5.7-5.5-4.4
					c-2.6,1.4,0.1,4.1,1.2,9.1c1.3,5.7,5.9,35.3,2.7,41.3h1.6h1.6C532.9,517.8,537.6,488.2,538.8,482.5z"/>
				<path class="st0" d="M538.6,489.4c1.1-5.2,4.3-7.9,1.6-9.4c-2.4-1.3-5.5,3.9-5.7,4.6c-0.2-0.7-3.4-5.9-5.7-4.6
					c-2.7,1.5,0.5,4.2,1.6,9.4c1.3,5.9,0.7,73.9,0.7,73.9h3.4h3.4C537.9,563.3,537.3,495.3,538.6,489.4z"/>
			</g>
			<g>
				<path class="st0" d="M556.6,471.4c0,0-2.3-10,2.2-13.2c4,3.1,2.3,13.2,2.3,13.2H556.6z"/>
				<path class="st0" d="M563.1,474.6c1.1-5,3.8-7.7,1.2-9.1c-2.3-1.3-5.3,3.8-5.5,4.4c-0.2-0.7-3.2-5.7-5.5-4.4
					c-2.6,1.4,0.1,4.1,1.2,9.1c1.3,5.7,5.9,35.3,2.7,41.3h1.6h1.6C557.2,509.9,561.8,480.3,563.1,474.6z"/>
				<path class="st0" d="M562.8,481.5c1.1-5.2,4.3-7.9,1.6-9.4c-2.4-1.3-5.5,3.9-5.7,4.6c-0.2-0.7-3.4-5.9-5.7-4.6
					c-2.7,1.5,0.5,4.2,1.6,9.4c1.3,5.9,0.7,78.4,0.7,78.4h3.4h3.4C562.1,559.9,561.5,487.4,562.8,481.5z"/>
			</g>
		</g>
		<g>
			<g>
				<path class="st10" d="M574.9,558.2L574.9,558.2c-4.9,3.2-11.2,3.2-16,0l0,0c-4.9-3.2-11.2-3.2-16,0l0,0c-4.9,3.2-11.2,3.2-16,0
					l0,0c-4.9-3.2-11.2-3.2-16,0l0,0c-4.9,3.2-11.2,3.2-16,0l0,0c-4.9-3.2-11.2-3.2-16,0l0,0c-1.8,1.2-3.9,1.9-5.9,2.2l0.5,7.9
					l101.8-1.3"/>
			</g>
			<g>
				<path class="st1" d="M574.9,558.2L574.9,558.2c-4.9,3.2-11.2,3.2-16,0l0,0c-4.9-3.2-11.2-3.2-16,0l0,0c-4.9,3.2-11.2,3.2-16,0
					l0,0c-4.9-3.2-11.2-3.2-16,0l0,0c-4.9,3.2-11.2,3.2-16,0l0,0c-4.9-3.2-11.2-3.2-16,0l0,0c-1.8,1.2-3.9,1.9-5.9,2.2"/>
			</g>
		</g>
	</g>
	<g>
		<g>
			<path class="st2" d="M478.6,538.1c2.7,5.8,2.8,15.1,2.8,15.1l-9-7.8c-4.3,5.4-8.4,11.1-12.1,16.8c8.4,10.1,7.7,24.9,7.7,24.9
				l-14-14.5c-9.1,16.1-10.4,32-4.6,33.8c6.9,2.1,23.3-2.3,34.9-28c12.8-28.3,18.7-60.1,18.7-60.1
				C495.3,521.6,486.8,528.9,478.6,538.1z"/>
		</g>
		<g>
			<path class="st3" d="M343.7,522.2c4.9,1.1,9.6,5.8,9.6,5.8l-10.6,2.4c-0.6,5.9-0.8,11.8-0.8,17.4c11.3-0.7,18.1,7.4,18.1,7.4
				l-17.7,2.5c1.2,14.9,8.1,24.1,13.3,20.8c6.2-3.9,16.3-17.8,12.2-39.4c-4.5-23.8-15.8-44.6-15.8-44.6
				C348,501.7,345.3,511.6,343.7,522.2z"/>
		</g>
		<g>
			<path class="st0" d="M459.5,480.7c-4.8,6.2-9.8,14.6-14.4,24.2c3.1,2.9,7.1,7.5,11.2,14.9c0,0-8.5-3.7-15.5-5.5
				c-2.6,6.1-5.1,12.5-7.3,18.9c5.4,3,17.3,10.5,22.9,22c0,0-15.6-4.6-28.4-4c-7,26.4-1.8,50,9.9,52.3c17,3.3,25.3-13.3,30.1-45
				C472.8,527,459.5,480.7,459.5,480.7z"/>
		</g>
		<g>
			<path class="st0" d="M314.8,559c6.4-0.8,15.3,1.9,15.3,1.9l-10.2,6.2c3.8,5.8,8,11.4,12.2,16.7c12.2-4.9,26.1,0.3,26.1,0.3
				l-18.1,8.9c12.6,13.6,27.3,19.7,30.7,14.7c4.1-6,5-22.9-15.9-41.8c-23-20.8-51.5-36.2-51.5-36.2C304.2,538,308.7,548.4,314.8,559
				z"/>
		</g>
		<path class="st11" d="M378.9,608.8v5.4c0,0-4.7,2.8-3.9,4.5c1.4,3,13.8-5,13.8-5v-7L378.9,608.8z"/>
		<path class="st11" d="M418.1,611.9v5.7c0,0-5.5,4.5-3.7,6.1s15.4-7.2,15.4-7.2v-6.2L418.1,611.9z"/>
		<path class="st3" d="M360.3,581.6c0,0,2.4,14.9,12.3,23.8c10.3,9.2,22.3,6.6,25.2,0c2.9-6.6,0.9-13,0.9-13L360.3,581.6z"/>
		<path class="st3" d="M447.6,590.6c0,0-3,18.2-18.7,21.5c-17.1,3.5-26.9-5.6-32.9-15.9l14-11.8h34.5L447.6,590.6z"/>
		<path class="st3" d="M392.4,438.2c0,0-6.3,8.3-11,20.5s-8.9,28.8-8.9,28.8s34.6,19.5,49.5-2.3c0,0,3.4-22.3-16.3-48.3L392.4,438.2
			z"/>
		<path class="st5" d="M379.1,475c0,0,10.2-4.9,15.8-22.9l-3.6,44.9l-7.9-7.1L372,478.5L379.1,475z"/>
		<g>
			<path class="st5" d="M391.9,494c-10-0.9-16.7-5-16.7-5s-8.6,26.8-14.7,45.7c-3.6,11.3-11.4,42.9,6.9,53
				c5.6,3.1,14.7,5.9,25.1,7.8l0,0C386.2,585.1,391.1,505.3,391.9,494z"/>
			<path class="st5" d="M422.1,485.3c-8.4,6.1-16.6,8.4-23.8,8.8c-1.9,42.9-3.2,86,1.4,101.9c0.1,0.2,0,0.4,0,0.6
				c22.1,2.9,46.8,1,52.7-12C462,564,428.6,509.6,422.1,485.3z"/>
			<path class="st5" d="M398.3,494.1c0-1,0.1-1.9,0.1-2.9l-6.5,1.4c0,0,0,0.5-0.1,1.4C393.9,494.2,396,494.2,398.3,494.1z"/>
			<path class="st3" d="M399.6,596c-4.6-15.9-3.3-59-1.4-101.9c-2.3,0.1-4.4,0.1-6.4-0.1c-0.7,11.4-5.7,91.1,0.6,101.5l0,0
				c2.4,0.4,4.8,0.8,7.2,1.1C399.7,596.4,399.7,596.2,399.6,596z"/>
		</g>
		<path class="st5" d="M398.4,488.6l2-36.6c0,0,4.3,20.1,12.8,23.5l-1.3,7.3l-12.2,9.4L398.4,488.6z"/>
		<path class="st11" d="M408.9,375.9c0,0,0,9.8-12.9,26.9c-6.9,9.2-13.1,19.7-8.8,29.6c3.7,8.5,16.3,11.3,23.3-0.9
			c6.9-12-1.4-25.7,3.3-39l-5.4,8.6C408.4,401.1,410.7,387.5,408.9,375.9z"/>
		<ellipse cx="393.9" cy="426.9" rx="0.9" ry="2.4"/>
		<ellipse cx="399.6" cy="426.9" rx="0.9" ry="2.4"/>
		<path class="st12" d="M381.5,458.8c0,0-5.8,4.1-10.2,16.8c-4.6,13.4-0.9,28.5,16.5,31.4c17.2,2.8,21.7-14.4,15.4-14.6
			c-5.7-0.2-15,0.8-20.9-7C375.6,476.6,381.5,458.8,381.5,458.8z"/>
		<g>
			<circle class="st11" cx="386.8" cy="497.7" r="4.5"/>
			<path class="st12" d="M420,462.6c3.2,1.1,5.5,21.6-2.7,33.4c-8.2,11.7-24.7,14-28.6,6.9c-3.5-6.3,0.7-12.8,8.4-14.1
				c9.4-1.6,13.7-4.2,16.4-15.2C414.7,468.8,415.4,460.9,420,462.6z"/>
		</g>
	</g>
	<g>
		<g>
			<path class="st0" d="M280.7,555.5c0.5-7.3-3.8-4.8-3.9-11.6c0,0,0.4-3.8-7.5-3.6c0,0,1.6-5.7,6.7-11.1s-8-2.1-8-2.1
				s3.9-12.4,10.4-14.2s8.6-2.4,14.5,2s3.5,12.2,6.1,16.5c2.6,4.2,4,7.4,4,7.4s-6.5-3.8-7.8-1.2c-0.9,1.7,2.9,2.9,1.1,6.7
				c-1.6,3.4,1,4-2,8c0,0-4.6,0.2-7.3-6.2C285.6,549.8,284.6,553.8,280.7,555.5z"/>
			<path class="st1" d="M285,540c0,0,2.9-3.1,1.8-10.4c-1.1-7.5,1.2-11.9,6-14.6"/>
		</g>
		<g>
			<path class="st0" d="M287.5,510.1c1.4,0.7,8.4,0,7.3-11.3c0,0-0.4-2,2.2-4.7c3.4-3.5,0.3-10.2-2.9-12.6c0,0-2,3.5-2.9,9.5
				c0,0,0.5-6.4-2.3-9.6c-2.8-3.2-9.7-1-12.6-2.9c0,0-1.1,6.5,3.3,9.4c4.5,2.9,3.7,3.8,2.4,3.7c-1.4-0.2-3.9-2.2-5.7-4.9
				s-5.8-4.3-8.6-3.1s-3.1,3.8-6.7,3.4c0,0-0.3,5.1,3.7,7.5c0,0,0.6,3.7,4.2,3.9c3.6,0.2,6-1.4,6.6-0.9s-1.1,1.1-0.8,1.8
				c0.5,1.4,6-2.7,6.7-1.4s-10.5,3.8-10.2,6.9c0.3,3.1,5,4.8,6.2,4.7c0,0,0,3.2,2.2,3.1c2.4-0.2,6-7.5,6.9-6.7
				S286.2,509.4,287.5,510.1z"/>
			<path class="st13" d="M277.6,492.9c0,0,6.9,6.8,17.2,5.8c0,0,6.1-1.6,9.1,0.3"/>
		</g>
		<g>
			<path class="st0" d="M289.1,476.6c1.2,5.5,8,6.6,11.3,6.5c3.3-0.2,1.5,3.3,6.6,4.9c0.5-2.9,4-2.9,2.4-7.5c0,0,3.7,0.6,6.4,3.1
				c3.4,3.1,5.7,0.7,5.7,0.7c-2.1-2.9-1.1-8.6,2.4-10.7c-3.7-2.2-2.3-4.9-6.1-5.7c-6.5-1.2-6.3-3.8-6.6-5.5
				c-0.4-2.6-5.1-8.7-7.2-5.6c-2.8,4.2-4.8,5.3-6.8,4.6c-1.7,3.2,1.3,6.9,0.9,8c-2.8,1.9-4.2-0.9-6.8,1.3
				C290.2,471.7,288.4,473.3,289.1,476.6z"/>
			<path class="st1" d="M313.3,476c0,0-8.3-1.2-15-6.7c0,0-1-2.2-3.1-3.4"/>
		</g>
		<g>
			<path class="st0" d="M337.9,513.6c0.4-1.5-1.7-8.2-12.6-4.9c0,0-1.9,0.8-5-1.2c-4.1-2.6-10,1.8-11.7,5.4c0,0,3.9,1.3,9.9,0.9
				c0,0-6.3,0.8-8.9,4.2c-2.6,3.4,1,9.7-0.3,13c0,0,6.6-0.2,8.6-5.2c1.9-5,3-4.4,3.1-3s-1.4,4.3-3.7,6.6s-3,6.6-1.3,9
				s4.4,2.2,4.7,5.9c0,0,5.1-0.7,6.6-5.1c0,0,3.5-1.3,2.9-4.9s-2.6-5.6-2.2-6.3c0.3-0.7,1.3,0.8,1.9,0.5c1.3-0.8-3.9-5.3-2.7-6.3
				s5.9,9.5,8.8,8.6c2.9-0.9,3.7-5.8,3.4-7c0,0,3.2-0.7,2.5-2.8c-0.7-2.3-8.6-4.4-7.9-5.5S337.5,515,337.9,513.6z"/>
			<path class="st13" d="M323.2,526.7c0,0,5.2-8.1,2.2-18c0,0-2.8-5.6-1.5-8.9"/>
		</g>
		<g>
			<path class="st0" d="M246.3,561.4c0.1-7.3,4.2-4.5,4.8-11.2c0,0-0.1-3.9,7.8-3c0,0,1-3.9-5.7-11.6c-4.9-5.6,8.2-1.5,8.2-1.5
				s-3-9.4-9.4-13.2c-7.7-4.6-11.2-4.8-11.2-4.8c-1.9,7.5-5.4,12-9,15.5c-6.3,5.9-6.3,11.3-6.3,11.3s6.8-3.3,7.9-0.6
				c0.7,1.7-3.1,2.7-1.6,6.6c1.3,3.5-1.2,6.1,1.4,10.3c0,0,4.5-1.6,7.7-7.8C241.8,555.2,242.5,559.3,246.3,561.4z"/>
			<path class="st1" d="M243.3,545.5c0,0-2.6-3.4-1-10.5c1.7-7.4-0.2-12-4.7-15.1"/>
		</g>
		<g>
			<path class="st0" d="M219.7,443.1c2.7,6.8,5.5,2.7,8.5,8.8c0,0,1.3,3.6,8.4,0c0,0,1,5.8-1.2,12.9c-2.2,7.1,8.2-1.5,8.2-1.5
				s1.9,12.9-3.3,17.3c-5.1,4.4-6.7,5.9-13.9,4.4s-8.4-9.5-12.6-12.2c-4.2-2.7-6.8-4.9-6.8-4.9s7.5,0.6,7.6-2.3
				c0.1-1.9-3.9-1.4-3.9-5.6c0-3.8-2.6-3.2-1.7-8c0,0,4.1-2.2,9.3,2.5C217.7,450.5,216.8,446.4,219.7,443.1z"/>
			<path class="st1" d="M222.5,459c0,0-1.2,4.1,2.8,10.2c4.2,6.3,4.1,11.3,0.9,15.8"/>
		</g>
		<g>
			<path class="st0" d="M187.9,522.6c-0.4-1.7,2.2-8.8,13.8-4.7c0,0,2,1,5.5-1.1c4.5-2.7,10.8,2.4,12.5,6.4c0,0-4.3,1.2-10.8,0.5
				c0,0,6.8,1.2,9.5,4.9c2.6,3.8-1.5,10.5-0.2,14c0,0-7.2-0.5-9.1-6c-1.9-5.4-3-4.9-3.2-3.4s1.3,4.7,3.7,7.3s3,7.2,1,9.8
				s-4.8,2.2-5.3,6.1c0,0-5.5-1-6.9-5.8c0,0-3.8-1.6-3-5.4c0.8-3.9,3-6,2.7-6.8c-0.3-0.7-1.4,0.9-2.1,0.4c-1.4-0.9,4.4-5.6,3.2-6.7
				c-1.2-1.1-6.8,10-9.9,8.9c-3.1-1.1-3.8-6.5-3.4-7.7c0,0-3.4-0.8-2.6-3.1c0.8-2.4,9.5-4.4,8.8-5.6
				C191.4,523.7,188.3,524.2,187.9,522.6z"/>
			<path class="st13" d="M203.3,537.5c0,0-5.3-9-1.6-19.6c0,0,3.3-6,2-9.6"/>
		</g>
		<g>
			<path class="st0" d="M193.3,470.1c-4.9,2.8-3.9,9.6-2.7,12.7c1.2,3.1-2.7,2.5-2.7,7.8c2.9-0.4,4,3,7.9,0c0,0,0.5,3.7-1,7
				c-1.9,4.2,1.1,5.6,1.1,5.6c2.2-2.9,7.9-3.7,11-0.9c0.9-4.2,4-3.7,3.5-7.6c-0.8-6.6,1.7-7.1,3.3-7.9c2.4-1.2,6.7-7.5,3.2-8.5
				c-4.9-1.4-6.4-2.9-6.4-5.1c-3.5-0.6-6.2,3.3-7.3,3.3c-2.7-2.1-0.4-4.3-3.3-6.1C198.3,469.6,196.2,468.4,193.3,470.1z"/>
			<path class="st1" d="M201.2,492.9c0,0-1.4-8.2,1.8-16.4c0,0,1.8-1.6,2.3-4"/>
		</g>
		<g>
			<path class="st2" d="M327.2,499.5l-2-0.3c1.6-9.7-2.1-12.5-2.1-12.6l1.1-1.6C324.4,485.1,329,488.4,327.2,499.5z"/>
		</g>
		<g>
			<path class="st2" d="M214.6,501l-1.4-2c0,0,5-3.6,7.3-13.4l2.4,0.6C220.3,496.9,214.8,500.9,214.6,501z"/>
		</g>
		<g>
			<path class="st2" d="M240,519.3l2.5-0.1c-0.6-12.3,4.4-15.2,4.4-15.2l-1.1-2.2C245.5,501.9,239.4,505.3,240,519.3z"/>
		</g>
		<g>
			<path class="st2" d="M299.1,475.8l-1.3,0.6c-2.8-6.7-6.1-7-6.2-7l0.1-1.4C291.8,467.9,295.9,468.1,299.1,475.8z"/>
		</g>
		<g>
			<path class="st2" d="M305.7,522.1l-2.3-0.1c0.5-11.3-4-14-4.1-14.1l1.1-2C300.6,506,306.3,509.1,305.7,522.1z"/>
		</g>
		<g>
			<circle class="st9" cx="295.5" cy="478.3" r="4.5"/>
			<circle class="st9" cx="302" cy="477.3" r="4.5"/>
			<circle class="st9" cx="293.3" cy="485.2" r="4.5"/>
			<circle class="st9" cx="299.9" cy="484.2" r="4.5"/>
			<circle class="st9" cx="306.3" cy="483.4" r="4.5"/>
			<circle class="st9" cx="296.9" cy="492.1" r="4.5"/>
			<circle class="st9" cx="304" cy="491.3" r="4.5"/>
			<circle class="st9" cx="301.2" cy="498.2" r="4.5"/>
		</g>
		<g>
			<path class="st0" d="M234.6,474.8c-1,1.3-1.6,8.2,9.8,9.3c0,0,2.1-0.1,4.2,3c2.8,4,10,2.2,12.9-0.5c0,0-3.1-2.7-8.8-4.6
				c0,0,6.2,1.6,9.8-0.5c3.7-2.1,2.8-9.4,5.2-11.9c0,0-6.2-2.3-9.9,1.5s-4.4,2.9-4,1.6c0.4-1.3,2.9-3.4,5.9-4.7s5.3-4.9,4.7-7.9
				c-0.7-3-3.2-3.7-2.1-7.2c0,0-5-1.3-8,2.2c0,0-3.8-0.1-4.6,3.4s0.2,6.2-0.4,6.7c-0.6,0.5-0.9-1.3-1.6-1.2
				c-1.5,0.2,1.6,6.4,0.1,6.8s-1.8-11-4.9-11.3c-3.1-0.3-5.7,4-5.8,5.2c0,0-3.2-0.6-3.4,1.6c-0.3,2.4,6.3,7.3,5.3,8.1
				C237.9,475.2,235.5,473.6,234.6,474.8z"/>
			<path class="st13" d="M253.2,468.2c0,0-7.9,5.5-8.9,15.8c0,0,0.5,6.3-2,8.8"/>
		</g>
		<path class="st2" d="M217.3,482.8c0,0,5.9,9.3,18.9,15.7c13.9,6.8,19.6,17,22.4,33.2c2.8,16.2-0.2,33.4-2.5,47.9
			c-4.6,28.9,3.1,56.7-0.5,75.4h14.7c0,0-4.6-47.8,0.7-70.4c5.3-22.6,0.3-46.4,4.1-59.1c3.8-12.7,13.4-4.6,22.6-14.2
			c9.1-9.6,12.2-13.9,20.3-18.5s8.1-10.4,16.7-12.2c8.6-1.8,4.3-7.1,0-6.3s-11.2,2.2-19.3,9.7s-20.5,15.1-28.7,22
			c-8.1,6.8-13.3-2.3-8.3-6.8s2.5-14.2,6-18.8c3.6-4.6,6.3-6.1,10.1-12.2c3.8-6.1,9.9-8.4,7.1-9.9c-2.8-1.5-5.1,1-9.4,4.6
			c-4.3,3.6-8.1,3.3-10.4,8.6c-2.3,5.3-7.1,10.1-8.1,16.7s-6.6,14.7-13.7,12.4c-7.1-2.3-9.1-9.9-18.8-11.4
			c-9.6-1.5-18-8.9-21.6-14.2s-8-8.1-14.6-8.9c-6.6-0.8-18.4-4.3-18.6-0.8c-0.3,3.6,6.3,4.6,16,6.3
			C212.2,473.7,213.2,480,217.3,482.8z"/>
		<g>
			<circle class="st9" cx="322.4" cy="501.7" r="4.6"/>
			<circle class="st9" cx="328.4" cy="498.5" r="4.6"/>
			<circle class="st9" cx="334.2" cy="495.5" r="4.6"/>
			<circle class="st9" cx="327.6" cy="507.3" r="4.6"/>
			<circle class="st9" cx="334.2" cy="504" r="4.6"/>
			<circle class="st9" cx="333.4" cy="511.9" r="4.6"/>
		</g>
		<g>
			<circle class="st9" cx="236.5" cy="522.5" r="4.9"/>
			<circle class="st9" cx="243.6" cy="522.6" r="4.9"/>
			<circle class="st9" cx="233.1" cy="529.5" r="4.9"/>
			<circle class="st9" cx="240.2" cy="529.6" r="4.9"/>
			<circle class="st9" cx="247.2" cy="529.9" r="4.9"/>
			<circle class="st9" cx="235.7" cy="537.5" r="4.9"/>
			<circle class="st9" cx="243.5" cy="537.9" r="4.9"/>
			<circle class="st9" cx="239.2" cy="544.8" r="4.9"/>
		</g>
		<g>
			<circle class="st9" cx="203.2" cy="503" r="5.1"/>
			<circle class="st9" cx="209.5" cy="501.7" r="5.1"/>
			<circle class="st9" cx="216.1" cy="503.7" r="5.1"/>
			<circle class="st9" cx="221.9" cy="507.3" r="5.1"/>
			<circle class="st9" cx="204.2" cy="509.1" r="5.1"/>
			<circle class="st9" cx="211.2" cy="511.2" r="5.1"/>
			<circle class="st9" cx="218.2" cy="512.9" r="5.1"/>
			<circle class="st9" cx="204.4" cy="518" r="5.1"/>
			<circle class="st9" cx="212.1" cy="520" r="5.1"/>
			<circle class="st9" cx="205.9" cy="526" r="5.1"/>
		</g>
		<g>
			<circle class="st9" cx="297.9" cy="526.5" r="4.5"/>
			<circle class="st9" cx="302.4" cy="523" r="4.5"/>
			<circle class="st9" cx="308.4" cy="522" r="4.5"/>
			<circle class="st9" cx="314.4" cy="522.6" r="4.5"/>
			<circle class="st9" cx="301.1" cy="531" r="4.5"/>
			<circle class="st9" cx="307.4" cy="530" r="4.5"/>
			<circle class="st9" cx="313.7" cy="528.5" r="4.5"/>
			<circle class="st9" cx="304.7" cy="538" r="4.5"/>
			<circle class="st9" cx="311.7" cy="536.6" r="4.5"/>
			<circle class="st9" cx="309" cy="543.8" r="4.5"/>
		</g>
	</g>
	<g>
		<path class="st1" d="M64.2,566.2c0,0,25.8,37,32.4,80.8"/>
		<path class="st1" d="M19.2,563.4c0,0,32.7,0.2,56.4,22.3"/>
		<path class="st1" d="M32.4,576.5c0,0,22.1-3.7,46.8,16.6"/>
		<path class="st1" d="M49,587.6c0,0,16.8-1,33.5,12.6"/>
		<g>
			<path class="st4" d="M26.7,521.8c0,0,1.9,12.7,12.1,13.7C38.8,535.4,38.7,525.3,26.7,521.8z"/>
			<path class="st4" d="M27.2,532.1c0,0,5.3,10.7,20.1,10.5C47.3,542.6,42.8,528,27.2,532.1z"/>
			<path class="st4" d="M35.8,522.5c0,0-1.7,19.6,8.5,22.8C44.3,545.3,48.9,532.4,35.8,522.5z"/>
			<path class="st4" d="M30,539.7c0,0,6.4,17.5,26.1,17.5C56.1,557.2,53,537.5,30,539.7z"/>
			<path class="st4" d="M43.2,529.6c0,0,15.6,6.2,11.4,28.4C54.7,558,38.9,554.7,43.2,529.6z"/>
			<path class="st4" d="M54.3,537.7c0,0-6.4,21.6,8.4,28.8C62.7,566.5,69.7,552,54.3,537.7z"/>
			<path class="st4" d="M35.1,552.1c0,0,9.8,17.9,29.1,14.5C64.2,566.6,61.5,548.6,35.1,552.1z"/>
		</g>
	</g>
	<g>
		<path class="st4" d="M84.9,471.6c0,0-2.5,15,6.7,20C91.5,491.5,96.6,480.5,84.9,471.6z"/>
		<path class="st4" d="M81,482.3c0,0,2.9,20.7,18.1,23.7C99.1,506.1,99.4,488.1,81,482.3z"/>
		<path class="st4" d="M94.6,477.2c0,0-9.2,14.3,1.2,30.2C95.8,507.4,105.1,492.3,94.6,477.2z"/>
		<path class="st4" d="M81.8,495.6c0,0-0.1,23.8,19.8,26.5C101.6,522.1,104.8,502,81.8,495.6z"/>
		<path class="st4" d="M100.9,485c0,0-13.4,21.1-1.3,36.8C99.6,521.8,114.1,507.9,100.9,485z"/>
		<path class="st1" d="M103.7,528c0,0,19.1,29.9,21,113.4"/>
		<path class="st1" d="M94.7,555.4c0,0,17.3,3.7,23.8,19.8"/>
		<path class="st1" d="M83.8,539.5c0,0,21.3,3.2,33.2,28.1"/>
		<path class="st1" d="M71,523.6c0,0,32.8,4.4,43,31.8"/>
		<path class="st1" d="M144.4,532.9c0,0-17.3,21.5-23.4,57.7"/>
		<path class="st4" d="M81,510.4c0,0,5.8,20.1,22.8,17.7C103.7,528,101.5,510.2,81,510.4z"/>
		<path class="st4" d="M107.7,499.5c0,0-15.9,15.4-4,28.5C103.7,528,116.7,520.1,107.7,499.5z"/>
	</g>
	<g>
		<path class="st0" d="M331.6,670.5c0,0,5.3-7.4-2.5-15.3c-7.8-7.9-3.1-6.9-6.8-12.4s-6.8-1.7-10.5-5.6c-3.7-3.9-7.1-5.3-11.9-1.4
			c-4.8,3.9-5.2,2.7-7.8,3.2s-2,3.7-4.5,4.7s-3.5-3.9-10.2-1.9s-14.7,21.8,4.9,36.7S323,689.8,331.6,670.5z"/>
		<g>
			<path class="st2" d="M232.8,664.2c0,0-24.9-8.2-35.6-6.2c-6.1,1.1-6,4.1-12.2,3.8s-12.4-0.2-13.9,6.5c-1.1,4.8-2.6,6.4,0,10.5
				s11.4,3.9,11.7,7.7c0.2,3.2-3.2,4.8-3.6,7.8c-0.4,3,2.5,3.9,2.1,7.5c-0.3,3.6-5.2,6.6-2.4,12.6c2.8,5.9,8,8.4,11.3,5.9
				c3.4-2.5,6.6-6.5,12.7-5.8c6.1,0.7,9.5-2.8,9.8-7.7s7.3-5.7,8.6-0.8s-0.8,10.4,5.7,10.8c6.5,0.3,7-3.8,11.8-1.8s6.5-1.5,8.5-3.4
				c3.4-3.1,8-0.8,9.6-9.7C258.5,693.1,258.6,670.3,232.8,664.2z"/>
			<path class="st6" d="M191.6,699.3c0,0,9.2-26,61.4-21.7"/>
		</g>
		<g>
			<path class="st2" d="M333,678.3c0,0-2.8,9.5,2.5,15.3s11.9,3.5,16.7,10.9s6.1,9.3,13.5,10.6c7.5,1.3,4.2,7.8,11.6,9.7
				c7.4,1.9,11.9-9.6,9.4-16.4s1.4-6.8,4.8-5.1c3.4,1.8,5,2,7.6-1.1s4.1,1,9.2-0.5s2.3-3.9,6.5-6.1c4.2-2.1,6.5-5.3,3.2-9.9
				c-3.3-4.6,2.8-6.2-1.5-11.3s-12.1-1.6-14.7-6.5c-2.6-5,3.2-5.7,1-10c-2.3-4.3-9.5-4-11.3-7.4s0.5-4.6-3.2-7.2
				c-3.6-2.6-9.6,0.8-12.9,6.5c-3.2,5.7-17.6,27-26.2,23.8C340.7,670.5,333.7,674,333,678.3z"/>
			<path class="st6" d="M395.5,688.8c0,0-26-16.5-53.4-10.8"/>
		</g>
		<g>
			<path class="st5" d="M338.4,619.6c4.1-2.1,11.3-4.4,18.3-0.2c9.3,5.7,13.9,0.7,22.2,8.2c11.7,10.7,8.8,41-8.5,42.3
				c-16.5,1.3-13.8,5.2-23.9,5.3c-10.2,0.1-8.8-4.5-21.9-4.2c-14.9,0.4-25-29-9.5-43.7C324.3,618.6,332.7,622.5,338.4,619.6z"/>
			<path class="st0" d="M352.2,623c0,0-3.2,4.9-8.8,0.9c0,0,2.9-2.5,1.7-8.2c-0.9-4.2-3.4-5.8-6.2-5.4c-3,0.4-3.7-2.3-1.3-3.3
				c3.4-1.3,8,0.1,10.2,4.7C349.5,615.7,347.4,620.3,352.2,623z"/>
			<path class="st1" d="M331.4,635.1c-4.7,6-5.2,19-0.2,26"/>
			<path class="st1" d="M361.8,635.1c2.5,4.9,4.4,17.7-0.6,25.4"/>
			<path class="st12" d="M336.6,649.1c2.2-0.3,2,5.6,0,5.6C334.5,654.7,334.9,649.3,336.6,649.1z"/>
			<path class="st12" d="M352.6,660.8c1.5,0.1,1,4.1-0.6,3.7S351.1,660.7,352.6,660.8z"/>
			<path class="st12" d="M376.3,642.7c1.2,0.1,1.4,2.5,1.4,5.3c0,3.2-1,6.2-2.2,5.8c-1.3-0.3-1.4-2.7-1.3-5.7
				C374.3,645.1,374.7,642.6,376.3,642.7z"/>
			<path class="st12" d="M341.3,628.9c1.7,1.1,0.6,3.7-1.4,8.2c-1.8,3.9-0.7,8.6-2.5,8.8s-2.4-6-1.7-10.2
				C336.5,631.4,339.6,627.8,341.3,628.9z"/>
			<path class="st12" d="M319.4,646.6c1.2-0.8,0.7-4.3-0.9-5.6C318.5,641,316,645.1,319.4,646.6z"/>
			<circle class="st12" cx="350.8" cy="630.4" r="1.1"/>
			<path class="st12" d="M352.4,637.5c2.8-0.4,7.5,18.3,1.9,19.9c-0.8,0.2-2.1-0.6-1.4-3.8C354.7,645.8,349.4,637.9,352.4,637.5z"/>
			<path class="st12" d="M359.9,626.5c0.2-2.3,7.2-2.8,12.5,2c4.3,3.9,5.2,10,2.8,10c-1.9,0-2.6-6.6-7.3-8.8
				C363.1,627.5,359.7,628.8,359.9,626.5z"/>
			<path class="st12" d="M333.4,625.8c0.5,1.7-3.1,1.1-6.7,4.4c-3.1,2.8-4.6,6.2-5.7,5.2c-1.3-1.2,0.2-4.5,3.2-7.2
				C326.8,625.8,332.8,623.6,333.4,625.8z"/>
		</g>
		<g>
			<path class="st5" d="M239,621.5c5.2-1.8,14.2-3.5,21.8,2.7c10.2,8.3,16.5,3.1,25.1,13.3c12.3,14.6,3.9,50.3-17,49.1
				c-19.9-1.2-17.3,3.9-29.4,2.4c-12.1-1.5-9.7-6.8-25.4-8.5c-17.8-1.9-25.2-38.6-4.2-53.6C222.3,618,231.7,624,239,621.5z"/>
			<path class="st0" d="M245,626.1c0,0,2.6,6.6,10.2,3.2c0,0-2.8-3.7,0.1-10c2.1-4.7,5.4-5.9,8.7-4.8c3.4,1.2,4.9-1.8,2.3-3.6
				c-3.6-2.4-9.4-1.9-13.1,3.1C250,618.2,251.3,624.1,245,626.1z"/>
			<path class="st1" d="M228.1,638.9c-6.5,6.4-9.3,21.9-4.4,31"/>
			<path class="st1" d="M264.3,643.8c2.2,6.3,2.4,21.8-4.8,30.1"/>
			<path class="st12" d="M232,656.3c2.7,0,1.4,7-1,6.7S229.9,656.3,232,656.3z"/>
			<path class="st12" d="M249.2,672.9c1.8,0.4,0.6,5-1.3,4.3C246.1,676.5,247.5,672.5,249.2,672.9z"/>
			<path class="st12" d="M280.3,655.2c1.5,0.3,1.2,3.1,0.8,6.6c-0.5,3.8-2.2,7.2-3.6,6.6c-1.5-0.6-1.2-3.4-0.6-7.1
				C277.6,657.6,278.5,654.7,280.3,655.2z"/>
			<path class="st12" d="M240.9,633.1c1.8,1.6,0.2,4.6-3,9.5c-2.8,4.4-2.2,10.2-4.4,10.1c-2.2-0.1-1.9-7.6-0.4-12.5
				C234.7,635.3,239.1,631.5,240.9,633.1z"/>
			<path class="st12" d="M211.9,650.6c1.6-0.8,1.5-5-0.2-6.8C211.8,643.8,208.1,648.3,211.9,650.6z"/>
			<circle class="st12" cx="252" cy="636.3" r="1.3"/>
			<path class="st12" d="M252.7,645c3.4,0,6.1,23-0.9,24c-1,0.1-2.4-1.1-1-4.7C254.1,655.4,249.1,645.1,252.7,645z"/>
			<path class="st12" d="M263.4,633.2c0.6-2.8,9-2.2,14.5,4.4c4.5,5.3,4.5,12.8,1.8,12.3c-2.2-0.3-2-8.3-7.3-11.6
				S262.9,635.9,263.4,633.2z"/>
			<path class="st12" d="M231.9,628.1c0.3,2.2-3.9,0.8-8.7,4.2c-4.2,2.9-6.5,6.6-7.7,5.3c-1.4-1.6,1-5.3,5-8.1
				C224,627,231.5,625.4,231.9,628.1z"/>
		</g>
		<g>
			<path class="st5" d="M285.8,667.7c5.1-3.4,14.3-7.7,24.2-3.2c13.3,6,18.6-1.3,30.8,7.3c17.3,12.3,18.3,53-4.5,57.6
				c-21.8,4.3-17.5,9.1-30.9,10.9c-13.5,1.8-12.4-4.6-29.8-2c-19.7,3-37.9-34.4-19.6-56.5C266.8,668.6,278.7,672.4,285.8,667.7z"/>
			<path class="st0" d="M293.3,671.9c0,0,5.3,5.8,11.9-0.7c0,0-4.4-2.7-3.9-10.4c0.4-5.7,3.2-8.3,7.1-8.4c4-0.1,4.4-3.9,1-4.6
				c-4.8-1.1-10.5,1.8-12.4,8.4C295.3,661.7,299,667.4,293.3,671.9z"/>
			<path class="st1" d="M278.9,689.5c-5.2,8.7-3.9,26.1,3.9,34.6"/>
			<path class="st1" d="M319.3,684.5c4.2,6.1,8.8,22.8,3.2,33.8"/>
			<path class="st12" d="M288.1,707.1c2.9-0.8,3.5,7.2,0.9,7.5C286.3,714.9,285.8,707.7,288.1,707.1z"/>
			<path class="st12" d="M311.3,720.1c2-0.1,2.1,5.3-0.2,5C308.9,724.9,309.2,720.2,311.3,720.1z"/>
			<path class="st12" d="M339.7,692.3c1.7,0,2.2,3,2.7,6.8c0.5,4.2-0.3,8.3-2,8.1c-1.8-0.2-2.3-3.3-2.6-7.4
				C337.5,695.7,337.7,692.4,339.7,692.3z"/>
			<path class="st12" d="M291.1,679.6c2.4,1.2,1.4,4.9-0.6,11.1c-1.8,5.5,0.5,11.6-1.9,12.1s-4.2-7.6-3.9-13.3
				S288.7,678.4,291.1,679.6z"/>
			<path class="st12" d="M264.8,706.6c1.5-1.3,0.2-5.9-2.1-7.3C262.8,699.3,260.1,705.2,264.8,706.6z"/>
			<circle class="st12" cx="304" cy="680" r="1.4"/>
			<path class="st12" d="M307.2,689.2c3.7-1,13,23,5.7,26.1c-1.1,0.4-2.9-0.5-2.4-4.8C311.6,699.9,303.3,690.2,307.2,689.2z"/>
			<path class="st12" d="M315.4,673.4c-0.2-3.1,9.1-4.9,16.9,0.6c6.3,4.5,8.5,12.5,5.4,12.8c-2.5,0.2-4.5-8.3-11.1-10.5
				C319.8,674.2,315.5,676.5,315.4,673.4z"/>
			<path class="st12" d="M280.1,676.8c0.9,2.2-3.9,2-8.2,6.9c-3.7,4.3-5.2,9-6.8,7.9c-1.9-1.3-0.4-6,3.1-10.1
				C271.3,677.8,278.9,673.9,280.1,676.8z"/>
		</g>
	</g>
	<g>
		<g>
			<path class="st1" d="M602.4,551.8c8.7-50.8-0.7-85.7-0.7-85.7l-5.2-12.8"/>
			<polyline class="st1" points="597.9,471.6 601.7,466.1 592.5,465.5 			"/>
			<polyline class="st1" points="617.5,465.4 601.7,466.1 609.9,472.6 			"/>
			<polyline class="st1" points="610.5,452.4 601.7,466.1 604.3,463.8 			"/>
		</g>
		
			<ellipse transform="matrix(0.9286 -0.371 0.371 0.9286 -124.556 252.9793)" class="st5" cx="595.3" cy="450.2" rx="4.7" ry="3.3"/>
		
			<ellipse transform="matrix(0.3331 -0.9429 0.9429 0.3331 -15.4092 878.1717)" class="st5" cx="613.1" cy="450" rx="3.3" ry="4.7"/>
		
			<ellipse transform="matrix(0.5995 -0.8004 0.8004 0.5995 -136.5407 657.7742)" class="st5" cx="589" cy="465.3" rx="4.7" ry="3.3"/>
		
			<ellipse transform="matrix(0.5995 -0.8004 0.8004 0.5995 -140.994 668.0496)" class="st5" cx="597" cy="474.9" rx="3.3" ry="4.7"/>
		
			<ellipse transform="matrix(0.9742 -0.2257 0.2257 0.9742 -89.1348 152.1592)" class="st5" cx="620.9" cy="465.9" rx="3.3" ry="4.7"/>
		
			<ellipse transform="matrix(0.6474 -0.7622 0.7622 0.6474 -145.828 634.2724)" class="st5" cx="612.6" cy="474.7" rx="4.7" ry="3.3"/>
		
			<ellipse transform="matrix(0.6474 -0.7622 0.7622 0.6474 -137.6105 624.8952)" class="st5" cx="606.5" cy="461.2" rx="3.3" ry="4.7"/>
		<path class="st2" d="M592.9,497.6c0,0-0.4,17.9,12.9,21.3C605.8,518.9,605.2,504.7,592.9,497.6z"/>
	</g>
	<g>
		<g>
			<path class="st1" d="M635.5,511.4c-0.9,1-21.5,24.4-27.2,60.5"/>
			<polyline class="st1" points="627.7,503.6 634.6,512.4 636.7,493.4 			"/>
			<polyline class="st1" points="649,516.8 634.6,512.4 646.6,508.2 			"/>
			<polyline class="st1" points="657.8,509 634.6,512.4 655,498.7 			"/>
		</g>
		<g>
			
				<ellipse transform="matrix(0.686 -0.7276 0.7276 0.686 -154.7127 633.9901)" class="st2" cx="657.2" cy="496.2" rx="3.3" ry="4.6"/>
			
				<ellipse transform="matrix(0.2345 -0.9721 0.9721 0.2345 11.3014 995.0161)" class="st2" cx="637.4" cy="490.3" rx="3.3" ry="4.6"/>
			
				<ellipse transform="matrix(0.9053 -0.4248 0.4248 0.9053 -153.8985 312.6615)" class="st2" cx="624.2" cy="501.5" rx="3.3" ry="4.6"/>
			
				<ellipse transform="matrix(0.4195 -0.9077 0.9077 0.4195 -91.9392 892.5953)" class="st2" cx="651.9" cy="518.2" rx="4.6" ry="3.3"/>
			
				<ellipse transform="matrix(1 -3.126412e-03 3.126412e-03 1 -1.5881 2.0694)" class="st2" cx="661.1" cy="509" rx="3.3" ry="4.6"/>
			<ellipse transform="matrix(0.59 -0.8074 0.8074 0.59 -142.2775 730.84)" class="st2" cx="648.5" cy="505.5" rx="3.3" ry="4.6"/>
		</g>
		<path class="st2" d="M616.1,544.1c0,0,8.4,4.9,19.8-5.5C635.8,538.6,623.3,536,616.1,544.1z"/>
	</g>
	<g>
		<g>
			<path class="st1" d="M451.4,713.3c1.3-39-12.5-54.3-12.5-54.3c0.1-1.8-2.6-7.9-2.6-7.9"/>
			<polyline class="st1" points="432.8,660 438.9,658.9 446,656.7 			"/>
			<polyline class="st1" points="426.8,642.7 438.9,658.9 421,655.3 			"/>
			<line class="st1" x1="441.8" y1="645.6" x2="438.9" y2="658.9"/>
		</g>
		<g>
			<ellipse class="st12" cx="434.6" cy="648.5" rx="4.3" ry="2.7"/>
			
				<ellipse transform="matrix(0.3051 -0.9523 0.9523 0.3051 -331.5799 869.4576)" class="st12" cx="430" cy="661.9" rx="4.3" ry="2.7"/>
			
				<ellipse transform="matrix(0.9994 -3.559996e-02 3.559996e-02 0.9994 -23.0679 15.3082)" class="st12" cx="418.3" cy="655.4" rx="2.7" ry="4.3"/>
			
				<ellipse transform="matrix(0.9502 -0.3116 0.3116 0.9502 -178.2698 164.6158)" class="st12" cx="426" cy="640.2" rx="4.3" ry="2.7"/>
			
				<ellipse transform="matrix(0.3051 -0.9523 0.9523 0.3051 -304.8465 868.3949)" class="st12" cx="442.6" cy="643.1" rx="2.7" ry="4.3"/>
			<ellipse class="st12" cx="448.7" cy="656.7" rx="2.7" ry="4.3"/>
		</g>
		<path class="st0" d="M436.3,683.5c0,0,5.4,13.2,14.7,13.2C451,696.7,450.6,686.4,436.3,683.5z"/>
	</g>
	<g>
		<g>
			<path class="st1" d="M492.7,576v21.5c0,0-22.6,35.9-19.3,107.3"/>
			<polyline class="st1" points="482.6,601.8 492.7,597.5 486.3,591.6 			"/>
			<polyline class="st1" points="498,609 492.7,597.5 507.5,603.6 			"/>
			<polyline class="st1" points="505.9,583.3 492.7,597.5 500.2,592.9 			"/>
		</g>
		<g>
			<ellipse class="st12" cx="491.2" cy="572.9" rx="5.2" ry="3.1"/>
			
				<ellipse transform="matrix(0.5483 -0.8363 0.8363 0.5483 -256.8055 688.774)" class="st12" cx="509.2" cy="582.1" rx="3.1" ry="5.2"/>
			
				<ellipse transform="matrix(6.148424e-02 -0.9981 0.9981 6.148424e-02 -123.4316 1076.2477)" class="st12" cx="510.6" cy="603.8" rx="5.2" ry="3.1"/>
			
				<ellipse transform="matrix(0.9973 -7.354568e-02 7.354568e-02 0.9973 -43.6336 38.4447)" class="st12" cx="500.2" cy="611.7" rx="5.2" ry="3.1"/>
			
				<ellipse transform="matrix(0.9088 -0.4173 0.4173 0.9088 -200.9807 263.9275)" class="st12" cx="503.1" cy="591.6" rx="3.1" ry="5.2"/>
			
				<ellipse transform="matrix(0.7394 -0.6733 0.6733 0.7394 -269.8407 478.2104)" class="st12" cx="482.8" cy="587.7" rx="3.1" ry="5.2"/>
			
				<ellipse transform="matrix(0.1717 -0.9851 0.9851 0.1717 -195.1361 970.3375)" class="st12" cx="479.5" cy="601.2" rx="5.2" ry="3.1"/>
		</g>
		<path class="st0" d="M466,628.4c0,0-1.2,18,9.6,25.7C475.5,654.1,478.4,638,466,628.4z"/>
		<path class="st0" d="M490.6,647.1c0,0-15.1,14.2-17.5,37.2C473.2,684.3,487.2,676.9,490.6,647.1z"/>
	</g>
	<g>
		<g>
			<path class="st14" d="M56.7,641.7c0-1.4,0.2-2.8,0.4-4.2s0.5-2.8,0.8-4.1c0.4-1.4,0.8-2.7,1.3-4s1.2-2.6,2-3.8s1.7-2.4,2.9-3.4
				c1.1-1,2.5-1.8,3.9-2.4c1.5-0.6,3-0.8,4.6-0.8c0.8,0,1.7,0.1,2.5,0.4c0.8,0.2,1.6,0.6,2.3,1c1.4,0.9,2.5,2.1,3.4,3.3
				s1.6,2.6,2.2,3.9c1.2,2.7,2,5.4,2.6,8.2s1,5.6,1.2,8.4c0.1,1.4,0.2,2.8,0.3,4.2s0.1,2.8,0.1,4.2H85c-0.1-2.7-0.3-5.4-0.6-8.1
				c-0.3-2.7-1.6-5.4-2.2-8c-0.5-2.6-1.3-5.2-2.3-7.6c-0.5-1.2-1.1-2.3-1.8-3.3s-1.5-1.9-2.4-2.5s-1.9-1-3.1-1.1
				c-1.2,0-2.4,0.1-3.5,0.5c-2.3,0.7-4.3,2.4-5.9,4.4c-1.6,2.1-2.8,4.4-3.9,6.9C58.3,636.5,57.4,639.1,56.7,641.7z"/>
			<path class="st14" d="M67.3,609.9c1.5-0.3,3.1-0.2,4.6,0.2c0.8,0.2,1.5,0.5,2.2,0.8c0.4,0.2,0.7,0.4,1.1,0.5
				c0.3,0.2,0.7,0.4,1,0.6c1.3,0.9,2.5,2,3.6,3.2c1,1.2,1.9,2.6,2.7,3.9c0.8,1.4,1.4,2.8,2,4.3c0.5,1.5,1,3,1.3,4.5
				c0.7,3,1.1,6.1,1.1,9.2l-3,0.2c-0.5-2.9-0.9-5.8-1.5-8.6s-1.4-5.6-2.6-8.2c-0.6-1.3-1.2-2.6-2-3.7c-0.8-1.2-1.7-2.2-2.7-3.2
				C72.9,611.7,70.3,610.3,67.3,609.9z"/>
			<path class="st14" d="M84,648.4c-0.1-1.2-0.2-2.3-0.2-3.4c0-1.1-0.1-2.3-0.1-3.4c0-2.3,0.1-4.5,0.4-6.8c0.2-2.3,0.6-4.5,1.2-6.8
				c0.6-2.2,1.4-4.5,2.7-6.6c0.7-1.1,1.5-2.1,2.6-2.9c1.1-0.8,2.3-1.5,3.7-1.7c0.7-0.1,1.4-0.2,2-0.1c0.6,0,1.3,0.1,1.9,0.2
				c1.3,0.3,2.5,0.9,3.5,1.6c0.5,0.4,1,0.8,1.4,1.3s0.8,0.9,1.1,1.5c0.7,1,1.2,2.1,1.6,3.2c0.4,1.1,0.7,2.2,0.8,3.4
				c0.1,0.6,0.2,1.1,0.2,1.7c0,0.6,0,1.1,0,1.7c-0.7-2.1-1.6-4.2-2.6-6c-1.1-1.8-2.4-3.4-4.1-4.3c-0.8-0.5-1.7-0.8-2.6-0.9
				c-0.5-0.1-0.9-0.1-1.4-0.1s-0.9,0-1.3,0.1c-0.8,0.2-1.6,0.6-2.2,1.2c-0.3,0.3-0.6,0.6-0.9,1c-0.3,0.4-0.6,0.8-0.8,1.2
				c-1,1.7-1.7,3.6-2.2,5.7c-0.5,2-0.9,4.2-1.1,6.3c-0.5,4.3-0.7,8.7-0.7,13L84,648.4z"/>
			<path class="st14" d="M99.3,647c-1.2-0.2-2.5-0.1-3.7,0.2s-2.4,0.9-3.4,1.6c-1,0.7-1.9,1.6-2.8,2.5c-0.8,0.9-1.5,1.9-2.2,2.9
				c-0.1,0.1-0.1,0.2-0.2,0.3c0,0,0,0,0-0.1v-2c0-0.7,0-13.2,0.1-17.9c0.1-4.8,0.1-9.5-0.1-14.3c-0.1-2.4-0.3-4.8-0.5-7.2
				s-0.5-4.8-1-7.2c-0.5,2.4-0.8,4.8-1,7.2s-0.4,4.8-0.5,7.2c-0.2,4.8-0.2,9.5-0.1,14.3c0,0.1,0,0.1,0,0.2c-0.1-0.1-0.1-0.3-0.2-0.4
				c-0.8-1.3-1.8-2.5-3.1-3.4s-3-1.4-4.6-1.4c-1.5,0-3,0.2-4.4,0.7s-2.7,1.3-3.8,2.3s-2,2.1-2.7,3.4c-0.7,1.2-1.2,2.5-1.5,3.9
				c-0.3,1.3-0.5,2.7-0.5,4c0.5-1.2,1-2.4,1.6-3.6c0.6-1.1,1.3-2.2,2.1-3.2s1.7-1.8,2.6-2.5c1-0.7,2-1.2,3.1-1.5s2.3-0.4,3.4-0.4
				c1.1,0,2,0.4,2.8,1c1.7,1.2,2.8,3.3,3.6,5.6s1.2,4.8,1.5,7.4c0.1,1.3,0.2,2.5,0.2,3.8c0,0.5,0.1,13.9,0.1,18.3
				c0,0.8,0.6,1.4,1.4,1.4l0,0c0.8,0,1.4-0.6,1.4-1.4c0-1.9,0.1-4.1,0.1-4.1c0.1-0.9,0.3-2,0.6-3s0.6-2,1-3c0.8-2,1.7-4,2.9-5.7
				c0.6-0.9,1.3-1.7,2-2.4c0.8-0.7,1.6-1.4,2.5-1.8c0.9-0.5,2-0.8,3.1-0.8c1.1-0.1,2.2,0,3.4,0.3C101.6,647.7,100.5,647.2,99.3,647z
				"/>
		</g>
		<g>
			<path class="st14" d="M122.1,631.8c0-1.4,0.2-2.8,0.4-4.2s0.5-2.8,0.8-4.1c0.4-1.4,0.8-2.7,1.3-4s1.2-2.6,2-3.8s1.7-2.4,2.9-3.4
				c1.1-1,2.5-1.8,3.9-2.4c1.5-0.6,3-0.8,4.6-0.8c0.8,0,1.7,0.1,2.5,0.4c0.8,0.2,1.6,0.6,2.3,1c1.4,0.9,2.5,2.1,3.4,3.3
				s1.6,2.6,2.2,3.9c1.2,2.7,2,5.4,2.6,8.2s1,5.6,1.2,8.4c0.1,1.4,0.2,2.8,0.3,4.2s0.1,2.8,0.1,4.2h-2.2c-0.1-2.7-0.3-5.4-0.6-8.1
				c-0.3-2.7-1.6-5.4-2.2-8c-0.5-2.6-1.3-5.2-2.3-7.6c-0.5-1.2-1.1-2.3-1.8-3.3s-1.5-1.9-2.4-2.5s-1.9-1-3.1-1.1
				c-1.2,0-2.4,0.1-3.5,0.5c-2.3,0.7-4.3,2.4-5.9,4.4c-1.6,2.1-2.8,4.4-3.9,6.9C123.6,626.5,122.7,629.1,122.1,631.8z"/>
			<path class="st14" d="M132.6,600c1.5-0.3,3.1-0.2,4.6,0.2c0.8,0.2,1.5,0.5,2.2,0.8c0.4,0.2,0.7,0.4,1.1,0.5
				c0.3,0.2,0.7,0.4,1,0.6c1.3,0.9,2.5,2,3.6,3.2c1,1.2,1.9,2.6,2.7,3.9c0.8,1.4,1.4,2.8,2,4.3c0.5,1.5,1,3,1.3,4.5
				c0.7,3,1.1,6.1,1.1,9.2l-3,0.2c-0.5-2.9-0.9-5.8-1.5-8.6s-1.4-5.6-2.6-8.2c-0.6-1.3-1.2-2.6-2-3.7c-0.8-1.2-1.7-2.2-2.7-3.2
				C138.2,601.8,135.6,600.3,132.6,600z"/>
			<path class="st14" d="M149.3,638.4c-0.1-1.2-0.2-2.3-0.2-3.4c0-1.1-0.1-2.3-0.1-3.4c0-2.3,0.1-4.5,0.4-6.8
				c0.2-2.3,0.6-4.5,1.2-6.8c0.6-2.2,1.4-4.5,2.7-6.6c0.7-1.1,1.5-2.1,2.6-2.9c1.1-0.8,2.3-1.5,3.7-1.7c0.7-0.1,1.4-0.2,2-0.1
				c0.6,0,1.3,0.1,1.9,0.2c1.3,0.3,2.5,0.9,3.5,1.6c0.5,0.4,1,0.8,1.4,1.3s0.8,0.9,1.1,1.5c0.7,1,1.2,2.1,1.6,3.2
				c0.4,1.1,0.7,2.2,0.8,3.4c0.1,0.6,0.2,1.1,0.2,1.7c0,0.6,0,1.1,0,1.7c-0.7-2.1-1.6-4.2-2.6-6c-1.1-1.8-2.4-3.4-4.1-4.3
				c-0.8-0.5-1.7-0.8-2.6-0.9c-0.5-0.1-0.9-0.1-1.4-0.1s-0.9,0-1.3,0.1c-0.8,0.2-1.6,0.6-2.2,1.2c-0.3,0.3-0.6,0.6-0.9,1
				c-0.3,0.4-0.6,0.8-0.8,1.2c-1,1.7-1.7,3.6-2.2,5.7c-0.5,2-0.9,4.2-1.1,6.3c-0.5,4.3-0.7,8.7-0.7,13L149.3,638.4z"/>
			<path class="st14" d="M164.6,637.1c-1.2-0.2-2.5-0.1-3.7,0.2s-2.4,0.9-3.4,1.6c-1,0.7-1.9,1.6-2.8,2.5c-0.8,0.9-1.5,1.9-2.2,2.9
				c-0.1,0.1-0.1,0.2-0.2,0.3c0,0,0,0,0-0.1v-2c0-0.7,0-13.2,0.1-17.9c0.1-4.8,0.1-9.5-0.1-14.3c-0.1-2.4-0.3-4.8-0.5-7.2
				s-0.5-4.8-1-7.2c-0.5,2.4-0.8,4.8-1,7.2s-0.4,4.8-0.5,7.2c-0.2,4.8-0.2,9.5-0.1,14.3c0,0.1,0,0.1,0,0.2c-0.1-0.1-0.1-0.3-0.2-0.4
				c-0.8-1.3-1.8-2.5-3.1-3.4s-3-1.4-4.6-1.4c-1.5,0-3,0.2-4.4,0.7s-2.7,1.3-3.8,2.3s-2,2.1-2.7,3.4c-0.7,1.2-1.2,2.5-1.5,3.9
				c-0.3,1.3-0.5,2.7-0.5,4c0.5-1.2,1-2.4,1.6-3.6c0.6-1.1,1.3-2.2,2.1-3.2s1.7-1.8,2.6-2.5c1-0.7,2-1.2,3.1-1.5s2.3-0.4,3.4-0.4
				c1.1,0,2,0.4,2.8,1c1.7,1.2,2.8,3.3,3.6,5.6s1.2,4.8,1.5,7.4c0.1,1.3,0.2,2.5,0.2,3.8c0,0.5,0.1,13.9,0.1,18.3
				c0,0.8,0.6,1.4,1.4,1.4l0,0c0.8,0,1.4-0.6,1.4-1.4c0-1.9,0.1-4.1,0.1-4.1c0.1-0.9,0.3-2,0.6-3s0.6-2,1-3c0.8-2,1.7-4,2.9-5.7
				c0.6-0.9,1.3-1.7,2-2.4c0.8-0.7,1.6-1.4,2.5-1.8c0.9-0.5,2-0.8,3.1-0.8c1.1-0.1,2.2,0,3.4,0.3
				C166.9,637.8,165.8,637.3,164.6,637.1z"/>
		</g>
		<g>
			<path class="st14" d="M104.7,672.3c0-1.4,0.2-2.8,0.4-4.2s0.5-2.8,0.8-4.1c0.4-1.4,0.8-2.7,1.3-4s1.2-2.6,2-3.8s1.7-2.4,2.9-3.4
				c1.1-1,2.5-1.8,3.9-2.4c1.5-0.6,3-0.8,4.6-0.8c0.8,0,1.7,0.1,2.5,0.4c0.8,0.2,1.6,0.6,2.3,1c1.4,0.9,2.5,2.1,3.4,3.3
				s1.6,2.6,2.2,3.9c1.2,2.7,2,5.4,2.6,8.2s1,5.6,1.2,8.4c0.1,1.4,0.2,2.8,0.3,4.2s0.1,2.8,0.1,4.2H133c-0.1-2.7-0.3-5.4-0.6-8.1
				c-0.3-2.7-1.6-5.4-2.2-8c-0.5-2.6-1.3-5.2-2.3-7.6c-0.5-1.2-1.1-2.3-1.8-3.3s-1.5-1.9-2.4-2.5s-1.9-1-3.1-1.1
				c-1.2,0-2.4,0.1-3.5,0.5c-2.3,0.7-4.3,2.4-5.9,4.4c-1.6,2.1-2.8,4.4-3.9,6.9C106.2,667,105.4,669.6,104.7,672.3z"/>
			<path class="st14" d="M115.2,640.4c1.5-0.3,3.1-0.2,4.6,0.2c0.8,0.2,1.5,0.5,2.2,0.8c0.4,0.2,0.7,0.4,1.1,0.5
				c0.3,0.2,0.7,0.4,1,0.6c1.3,0.9,2.5,2,3.6,3.2c1,1.2,1.9,2.6,2.7,3.9c0.8,1.4,1.4,2.8,2,4.3c0.5,1.5,1,3,1.3,4.5
				c0.7,3,1.1,6.1,1.1,9.2l-3,0.2c-0.5-2.9-0.9-5.8-1.5-8.6s-1.4-5.6-2.6-8.2c-0.6-1.3-1.2-2.6-2-3.7c-0.8-1.2-1.7-2.2-2.7-3.2
				C120.9,642.2,118.2,640.8,115.2,640.4z"/>
			<path class="st14" d="M132,678.9c-0.1-1.2-0.2-2.3-0.2-3.4c0-1.1-0.1-2.3-0.1-3.4c0-2.3,0.1-4.5,0.4-6.8c0.2-2.3,0.6-4.5,1.2-6.8
				c0.6-2.2,1.4-4.5,2.7-6.6c0.7-1.1,1.5-2.1,2.6-2.9c1.1-0.8,2.3-1.5,3.7-1.7c0.7-0.1,1.4-0.2,2-0.1c0.6,0,1.3,0.1,1.9,0.2
				c1.3,0.3,2.5,0.9,3.5,1.6c0.5,0.4,1,0.8,1.4,1.3s0.8,0.9,1.1,1.5c0.7,1,1.2,2.1,1.6,3.2c0.4,1.1,0.7,2.2,0.8,3.4
				c0.1,0.6,0.2,1.1,0.2,1.7c0,0.6,0,1.1,0,1.7c-0.7-2.1-1.6-4.2-2.6-6c-1.1-1.8-2.4-3.4-4.1-4.3c-0.8-0.5-1.7-0.8-2.6-0.9
				c-0.5-0.1-0.9-0.1-1.4-0.1s-0.9,0-1.3,0.1c-0.8,0.2-1.6,0.6-2.2,1.2c-0.3,0.3-0.6,0.6-0.9,1c-0.3,0.4-0.6,0.8-0.8,1.2
				c-1,1.7-1.7,3.6-2.2,5.7c-0.5,2-0.9,4.2-1.1,6.3c-0.5,4.3-0.7,8.7-0.7,13L132,678.9z"/>
			<path class="st14" d="M147.3,677.5c-1.2-0.2-2.5-0.1-3.7,0.2s-2.4,0.9-3.4,1.6c-1,0.7-1.9,1.6-2.8,2.5c-0.8,0.9-1.5,1.9-2.2,2.9
				c-0.1,0.1-0.1,0.2-0.2,0.3c0,0,0,0,0-0.1v-2c0-0.7,0-13.2,0.1-17.9c0.1-4.8,0.1-9.5-0.1-14.3c-0.1-2.4-0.3-4.8-0.5-7.2
				s-0.5-4.8-1-7.2c-0.5,2.4-0.8,4.8-1,7.2s-0.4,4.8-0.5,7.2c-0.2,4.8-0.2,9.5-0.1,14.3c0,0.1,0,0.1,0,0.2c-0.1-0.1-0.1-0.3-0.2-0.4
				c-0.8-1.3-1.8-2.5-3.1-3.4s-3-1.4-4.6-1.4c-1.5,0-3,0.2-4.4,0.7s-2.7,1.3-3.8,2.3s-2,2.1-2.7,3.4c-0.7,1.2-1.2,2.5-1.5,3.9
				c-0.3,1.3-0.5,2.7-0.5,4c0.5-1.2,1-2.4,1.6-3.6c0.6-1.1,1.3-2.2,2.1-3.2s1.7-1.8,2.6-2.5c1-0.7,2-1.2,3.1-1.5s2.3-0.4,3.4-0.4
				c1.1,0,2,0.4,2.8,1c1.7,1.2,2.8,3.3,3.6,5.6s1.2,4.8,1.5,7.4c0.1,1.3,0.2,2.5,0.2,3.8c0,0.5,0.1,13.9,0.1,18.3
				c0,0.8,0.6,1.4,1.4,1.4l0,0c0.8,0,1.4-0.6,1.4-1.4c0-1.9,0.1-4.1,0.1-4.1c0.1-0.9,0.3-2,0.6-3s0.6-2,1-3c0.8-2,1.7-4,2.9-5.7
				c0.6-0.9,1.3-1.7,2-2.4c0.8-0.7,1.6-1.4,2.5-1.8c0.9-0.5,2-0.8,3.1-0.8c1.1-0.1,2.2,0,3.4,0.3
				C149.6,678.2,148.5,677.7,147.3,677.5z"/>
		</g>
	</g>
	<g class="st7">
		<g>
			<path class="st3" d="M571.1,326.3c0,0-9.1,0.6-10.9,12.8C560.3,339.1,569.6,339.1,571.1,326.3z"/>
			<path class="st3" d="M574.6,334.8c0,0-13.8-2.8-17.8,10.1C556.8,344.9,566.9,347.8,574.6,334.8z"/>
			<path class="st3" d="M563,326.3c0,0-14.2,9.2-12.3,24.2C550.8,350.4,563.5,348.8,563,326.3z"/>
			<path class="st3" d="M568.3,344.3c0,0-15.7-3.6-24,13.1C544.3,357.5,559.6,362.5,568.3,344.3z"/>
			<path class="st3" d="M551.7,334c0,0-13.6,10.7-10.3,27.1C541.3,361.1,556.8,358.4,551.7,334z"/>
			<path class="st3" d="M560.3,357c0,0-22-5.6-23.8,9.6C536.4,366.6,550.3,371.8,560.3,357z"/>
			<path class="st3" d="M540.4,340.8c0,0-9.6,12.2-4,25.8C536.4,366.6,551.1,358.6,540.4,340.8z"/>
		</g>
		<path class="st1" d="M536.4,366.6c0,0-25.4,14.7-37.1,76"/>
		<path class="st1" d="M520.3,358.1c0,0,0.7,17.4-5.5,36.4"/>
		<path class="st1" d="M555.3,383.4c0,0-29.4,1.8-42.2,14.4"/>
		<path class="st1" d="M575.4,376.3c0,0-33.5-4.3-58.6,14.3"/>
		<path class="st1" d="M589.1,361.1c0,0-47.7,0.9-69.7,24.9"/>
	</g>
	<g class="st7">
		<path class="st3" d="M639.3,370.5c0,0-6.5,13.5-16.8,12.2C622.5,382.7,624.7,371,639.3,370.5z"/>
		<path class="st3" d="M636.2,381.4c0,0-14.2,15-28.1,8.6C608.1,390,618.2,375.4,636.2,381.4z"/>
		<path class="st3" d="M628.3,369.4c0,0-0.9,16.8-18.3,23.5C609.9,392.9,611.2,375.5,628.3,369.4z"/>
		<path class="st3" d="M628,391.6c0,0-13.6,19.2-31.1,9.8C596.9,401.4,605.9,383.4,628,391.6z"/>
		<path class="st3" d="M618.7,372c0,0-1.4,24.5-20,30.2C598.7,402.3,595.1,382.8,618.7,372z"/>
		<path class="st1" d="M591.8,404.9c0,0-32.4,13-81.8,78.8"/>
		<path class="st1" d="M583.3,432.1c0,0-16-7-30.4,2.2"/>
		<path class="st1" d="M601.2,425.5c0,0-18.9-9.6-42.7,3.5"/>
		<path class="st1" d="M620.6,420.1c0,0-28.8-15.2-52.7,0.8"/>
		<path class="st1" d="M556.4,385.5c0,0,1.5,27.1-14.4,59.7"/>
		<path class="st3" d="M620.1,403.8c0,0-16.2,12.8-28.4,1.1C591.8,404.9,603.8,391.9,620.1,403.8z"/>
		<path class="st3" d="M604.9,379.8c0,0,3.9,21.5-13.2,25.1C591.8,404.9,585.9,391.2,604.9,379.8z"/>
	</g>
	<g>
		<g>
			<path class="st1" d="M434.3,242.3l12.7,6.8c0,0-27.7,42.1-27,112"/>
			<polyline class="st1" points="452.4,234.2 447,249.1 439.7,226.5 			"/>
			<path class="st1" d="M462.8,249.1c0,0.1-15.8,0-15.8,0l22.3-14.9"/>
			<polyline class="st1" points="455.8,262.1 447,249.1 454.4,220.3 			"/>
		</g>
		<g>
			<ellipse class="st2" cx="452.4" cy="230.9" rx="5.4" ry="3.4"/>
			
				<ellipse transform="matrix(0.9973 -7.346912e-02 7.346912e-02 0.9973 -15.181 32.8919)" class="st2" cx="439.5" cy="222.8" rx="5.8" ry="3.7"/>
			
				<ellipse transform="matrix(0.8125 -0.583 0.583 0.8125 -59.6791 295.9721)" class="st2" cx="430.2" cy="240.8" rx="3.4" ry="5.4"/>
			
				<ellipse transform="matrix(0.9876 -0.1571 0.1571 0.9876 -33.5189 76.3488)" class="st2" cx="466.2" cy="250.2" rx="3.4" ry="5.4"/>
			<ellipse transform="matrix(0.5 -0.866 0.866 0.5 0.8772 529.1984)" class="st2" cx="458.7" cy="263.8" rx="5.4" ry="3.4"/>
			
				<ellipse transform="matrix(0.961 -0.2764 0.2764 0.961 -46.0569 139.704)" class="st2" cx="472.5" cy="233.2" rx="3.4" ry="5.4"/>
			
				<ellipse transform="matrix(0.2758 -0.9612 0.9612 0.2758 121.1237 595.5513)" class="st2" cx="455.8" cy="217.4" rx="3.4" ry="5.4"/>
		</g>
		<path class="st0" d="M409.2,310.4c0,0-2.4,29.2,11.2,33.5C420.4,344,422.3,329,409.2,310.4z"/>
	</g>
	<g>
		<g>
			<path class="st6" d="M436.6,370.6c0,0,18.4-82.4,83.7-129.9l10.3-22.3"/>
			<polyline class="st6" points="517.3,229.1 520.3,240.8 531.1,238.2 			"/>
			<polyline class="st6" points="537.3,251.7 520.3,240.8 523.7,251.2 			"/>
			<line class="st6" x1="544.8" y1="234.1" x2="520.3" y2="240.8"/>
		</g>
		<g>
			
				<ellipse transform="matrix(0.7821 -0.6231 0.6231 0.7821 -30.5587 384.2248)" class="st2" cx="534.2" cy="235.8" rx="3.9" ry="6.8"/>
			
				<ellipse transform="matrix(0.7071 -0.7071 0.7071 0.7071 3.6916 440.3147)" class="st2" cx="533.4" cy="215.7" rx="3.9" ry="6.8"/>
			
				<ellipse transform="matrix(0.9955 -9.454425e-02 9.454425e-02 0.9955 -18.8539 49.6428)" class="st2" cx="514.5" cy="223.8" rx="3.9" ry="6.8"/>
			
				<ellipse transform="matrix(0.9751 -0.2216 0.2216 0.9751 -38.0366 127.361)" class="st2" cx="548.5" cy="233.2" rx="3.9" ry="6.8"/>
			
				<ellipse transform="matrix(0.1605 -0.987 0.987 0.1605 201.6802 747.5486)" class="st2" cx="540.3" cy="255.2" rx="6.8" ry="3.9"/>
			<ellipse transform="matrix(0.5 -0.866 0.866 0.5 40.8471 582.4488)" class="st2" cx="524.8" cy="255.8" rx="6.8" ry="3.9"/>
		</g>
		<path class="st4" d="M478.9,256.9c0,0-13.4,18.7-13.6,45.5C465.3,302.4,478.5,276.9,478.9,256.9z"/>
		<path class="st4" d="M451.4,328.9c3.1-5.6,11.5-17.8,28.3-27.2C479.7,301.7,470.1,323.5,451.4,328.9z"/>
	</g>
	<g>
		<g>
			<path class="st6" d="M376.4,323.5c0,0,13.9,19.7,13.9,56.1"/>
			<polyline class="st6" points="378.4,344.1 384.4,340.6 390.3,339.7 			"/>
			<path class="st6" d="M385.7,328.7c-0.1,0-1.3,11.9-1.3,11.9l-10.3-5.7"/>
			<line class="st6" x1="394.3" y1="328.7" x2="384.4" y2="340.6"/>
		</g>
		<g>
			<path class="st3" d="M389,325.2c0.2,1.7-1.6,3.3-4.1,3.7c-2.5,0.4-4.8-0.6-5-2.3c-0.2-1.7,1.6-3.3,4.1-3.7S388.7,323.5,389,325.2
				z"/>
			
				<ellipse transform="matrix(0.744 -0.6682 0.6682 0.744 -128.3991 333.4992)" class="st3" cx="371" cy="334.3" rx="4.3" ry="2.8"/>
			<path class="st3" d="M396.5,337.4c-0.2,1.7-2.4,2.8-5,2.5s-4.5-1.9-4.3-3.5c0.2-1.7,2.4-2.8,4.9-2.5S396.7,335.8,396.5,337.4z"/>
			
				<ellipse transform="matrix(0.9781 -0.2083 0.2083 0.9781 -59.5166 89.9049)" class="st3" cx="397.1" cy="327.6" rx="3" ry="4.6"/>
			
				<ellipse transform="matrix(0.8916 -0.4528 0.4528 0.8916 -104.7419 204.7058)" class="st3" cx="375.2" cy="321.1" rx="4.3" ry="2.7"/>
			<ellipse transform="matrix(0.866 -0.5 0.5 0.866 -121.991 233.9558)" class="st3" cx="375.6" cy="344.6" rx="2.7" ry="4.2"/>
		</g>
		<path class="st0" d="M381.9,360.3c0,0,1.1,9.6,8,11.8C389.9,372.1,388.9,363.6,381.9,360.3z"/>
	</g>
	<g>
		<g>
			
				<ellipse transform="matrix(0.7071 -0.7071 0.7071 0.7071 -242.3457 153.4705)" class="st2" cx="64.1" cy="369.3" rx="5.6" ry="3.8"/>
			
				<ellipse transform="matrix(0.1761 -0.9844 0.9844 0.1761 -322.1438 388.5701)" class="st2" cx="71.1" cy="386.7" rx="5.6" ry="3.8"/>
			
				<ellipse transform="matrix(0.9989 -4.585075e-02 4.585075e-02 0.9989 -18.2793 3.2345)" class="st2" cx="61.4" cy="400.1" rx="3.8" ry="5.6"/>
			
				<ellipse transform="matrix(0.8161 -0.5779 0.5779 0.8161 -204.0019 126.714)" class="st2" cx="97.1" cy="383.9" rx="3.8" ry="5.6"/>
			
				<ellipse transform="matrix(0.1761 -0.9844 0.9844 0.1761 -291.1573 390.6556)" class="st2" cx="87.8" cy="369.3" rx="3.3" ry="4.9"/>
			<ellipse transform="matrix(0.866 -0.5 0.5 0.866 -191.306 92.0857)" class="st2" cx="76.2" cy="403" rx="4.8" ry="3.2"/>
		</g>
		<path class="st6" d="M67.7,370.8c0,0,10.8,6.8,15.5,16c0,0,26.8,29.9,27.5,81.7"/>
		<polyline class="st6" points="87.2,372.5 83.3,386.8 93.4,385 		"/>
		<polyline class="st6" points="78.3,399.4 83.3,386.8 65.1,399.9 		"/>
		<line class="st6" x1="74.9" y1="386.1" x2="83.3" y2="386.8"/>
		<path class="st0" d="M84.5,418.2c0,0,6.1,20.2,23.2,22.6C107.8,440.9,104,423.8,84.5,418.2z"/>
	</g>
	<g>
		<g>
			<path class="st1" d="M399.5,506.7c-0.1,3.9-0.1,7.9,0.2,11.7"/>
			<path class="st1" d="M423.2,423.4c0,0-17.3,28.6-21.7,64.4"/>
			<g>
				<path class="st3" d="M439.7,401.1c0,0-0.5,6.1-5.4,6.9C434.4,408,434.1,403.1,439.7,401.1z"/>
				<path class="st3" d="M439.8,406c0,0-2.2,5.3-9.3,5.7C430.5,411.7,432.2,404.5,439.8,406z"/>
				<path class="st3" d="M435.4,401.7c0,0,1.4,9.3-3.4,11.2C432,412.8,429.4,406.8,435.4,401.7z"/>
				<path class="st3" d="M438.7,409.7c0,0-2.6,8.6-11.9,9.2C426.8,418.9,427.6,409.4,438.7,409.7z"/>
				<path class="st3" d="M432.1,405.3c0,0-7.3,3.4-4.6,13.9C427.4,419.2,434.9,417.2,432.1,405.3z"/>
				<path class="st3" d="M427,409.5c0,0,3.7,10.1-3.1,14C423.9,423.6,420.1,416.8,427,409.5z"/>
				<path class="st3" d="M436.6,415.8c0,0-4.2,8.8-13.5,7.8C423.1,423.7,423.9,414.9,436.6,415.8z"/>
			</g>
		</g>
		<path class="st1" d="M448.5,417.9c0,0-22.1,8-37.1,30.9"/>
		<path class="st1" d="M408.9,455.6c0,0,16.3-22.6,43.4-33.2"/>
	</g>
	<g>
		<g>
			<path class="st3" d="M447.9,424.8c0,0-6.5,1.8-6.8,6.4C441.1,431.2,446.5,431.2,447.9,424.8z"/>
			<path class="st3" d="M442.9,425.3c0,0-7.8,5-6.2,11.7C436.7,436.9,444,433.7,442.9,425.3z"/>
			<path class="st3" d="M447.4,429.8c0,0-7.5-1-11.9,6.1C435.5,435.9,443.3,436.8,447.4,429.8z"/>
			<path class="st3" d="M437.7,428c0,0-9.6,4.4-7,12.9C430.7,440.9,439.4,438.5,437.7,428z"/>
			<path class="st3" d="M445.5,433.8c0,0-10.9-1.5-15,6.3C430.5,440.1,438.7,443.3,445.5,433.8z"/>
			<path class="st3" d="M431.6,430.5c0,0-7,6.1-2.9,12.4C428.7,442.9,435.5,438.7,431.6,430.5z"/>
			<path class="st3" d="M440.9,439.2c0,0-9.2-3.5-12.2,3.7C428.7,442.9,434.3,446.6,440.9,439.2z"/>
		</g>
		<path class="st1" d="M402.1,506.3c-0.1,4.8,0.3,9.8,1.1,15.1"/>
		<path class="st1" d="M428.7,442.9c0,0-17.8,16-24.3,43.9"/>
		<path class="st1" d="M451.3,446.3c0,0-30,9.8-43.8,30.3"/>
		<path class="st1" d="M447.4,441.1c0,0-22.8,8.3-37.3,29"/>
	</g>
	<g>
		<g>
			<path class="st0" d="M620,590.4c0,0-5.8,11.2-2.5,24.8c0,0-6.9,4.3-5.8,12.7s-0.7,15.2-10.5,18c-9.7,2.8-13.6,5.4-15.5,9.9
				c0,0,3.5-8.4,1-17.2s-0.4-14.4,6.4-18.8c6.8-4.5,2.3-15.4,2.3-15.4S612.4,601.9,620,590.4z"/>
			<path class="st1" d="M610.7,605.2c0,0-12.8,18.6-24.9,50.6"/>
		</g>
		<g>
			<g>
				<path class="st9" d="M530.7,563.1c0,0,6.9,14.2,0.6,22.8c0,0,11.9,10.2,7.9,29.5c0,0,7.6,2.6,7.4,17.6
					c-0.1,10.7,12.1,15.3,15.5,22.2c-1-11.9,5.7-18.1,1.4-27c-3.5-7.4-3.4-13.9-2.7-19.2c0,0-14.6-12-10.8-29.7
					C550.1,579.2,536.4,576.2,530.7,563.1z"/>
				<path class="st1" d="M539.3,581.8c0,0,15.6,24.1,22.8,73.3"/>
			</g>
			<g>
				<path class="st5" d="M573.4,539c0,0,2,11.5-10.8,23.2c0,0,9.9,17-2.2,28.3c0,0,8.7,8,3.7,19.8c-4.1,9.6-6.7,21.2-3.1,28.2
					c4,7.7,6.4,12,5.7,17.6c0,0-0.3-6,10.1-13.3s5.3-21.1,4.8-30.9c-0.4-8.8,1.2-15.7,7.6-20.5c0,0-14.1-12.6-4.7-28
					C584.3,563.4,575.2,554.7,573.4,539z"/>
				<path class="st1" d="M575,567.6c0,0,5.4,33.8-8.4,88.5"/>
			</g>
		</g>
		<g>
			<path class="st9" d="M571.2,658.2c5.8-10.8-4.7-28.6,4.7-38.2s4-22.3,4-22.3c20.9-10.3,10.8-28.9,10.8-28.9
				c12.6-1.3,14.1-14.9,14.1-14.9s-1.5,13.8,4.4,20.3c0,0-12.6,13.8-3.9,28.2c0,0-12.9,8.4-11.7,22.5
				C595.3,644.2,579.7,647.6,571.2,658.2z"/>
			<path class="st1" d="M597.8,583.2c0,15.2-12.9,40.5-26.6,75"/>
		</g>
	</g>
</g>
</svg>
