<?xml version="1.0" encoding="utf-8"?>
<!-- Generator: Adobe Illustrator 22.1.0, SVG Export Plug-In . SVG Version: 6.00 Build 0)  -->
<svg version="1.1" id="圖層_1" xmlns="http://www.w3.org/2000/svg" xmlns:xlink="http://www.w3.org/1999/xlink" x="0px" y="0px"
	 viewBox="0 0 684.6 995.7" style="enable-background:new 0 0 684.6 995.7;" xml:space="preserve">
<style type="text/css">
	.st0{fill:#F8B300;stroke:#000000;stroke-width:0.43;stroke-miterlimit:10;}
	.st1{fill:#A6B832;stroke:#000000;stroke-width:0.43;stroke-miterlimit:10;}
	.st2{fill:#E94827;stroke:#000000;stroke-width:0.43;stroke-miterlimit:10;}
	.st3{fill:none;stroke:#000000;stroke-width:0.43;stroke-miterlimit:10;}
	.st4{fill:#FDE3B9;stroke:#000000;stroke-width:0.43;stroke-miterlimit:10;}
	.st5{fill:#006857;stroke:#000000;stroke-width:0.43;stroke-miterlimit:10;}
	.st6{fill:none;stroke:#000000;stroke-width:0.43;stroke-linecap:round;stroke-linejoin:round;stroke-miterlimit:10;}
	.st7{fill:#FFFFFF;}
	.st8{fill:#F8B300;}
	.st9{fill:#A6B832;}
	.st10{fill:none;stroke:#2A8425;stroke-width:0.43;stroke-miterlimit:10;}
	.st11{fill:none;stroke:#E8351D;stroke-width:0.43;stroke-linecap:round;stroke-linejoin:round;stroke-miterlimit:10;}
	.st12{fill:#FFFFFF;stroke:#000000;stroke-width:0.43;stroke-miterlimit:10;}
</style>
<g>
	<g>
		<path class="st0" d="M123.2,311.8l-7.8-19.6l-20.8-19.3l-18.7-10l-11-3.2l-6.6-2.7l-11.1-4.6l-4.7-2.7l-6.6-6.3l-1.5-14.1l1.3-8.4
			l2.6-6.4l5.6-1.6l7.8-1.6l7.6,2.4l6.7,5.5l2.2,5.6l0.8,6.6l0.6,3.1l-0.8,4.1c0,0-4.2,3.3-4.2,3.7c0,0.3-5.5,0-5.5,0l-4.1-3.1
			l-1.1-4.3c0,0,1.5-0.4,2.4,1.2c0.9,1.6,0.6,2.9,0.6,2.9s0.9-1.2,2.5-0.8c1.6,0.4,1.9,2.3,1.9,2.3s-0.3-1.6,1.7-2.4s3,0.4,3,0.4
			s-1.2-1.1-0.6-2.9s2.5-1.8,2.5-1.8s-2-0.6-2.1-3.2c-0.1-2.6,1.7-3.7,1.7-3.7s-2.1,0.4-3.6-1.7c-1.5-2.1,0.7-4.8,0.7-4.8
			s-2.1,2-5.4-0.5s-2.1-6.2-2.1-6.2s-1.2,3.6-4.9,3.3c-4.4-0.3-5.5-3.4-5.5-3.4s0.6,3.8-1.7,5.7c-2.8,2.3-6,1-6,1s3.2,3.2,2.2,6.3
			c-0.9,2.6-4.7,3.7-4.7,3.7s3.7,0.4,4.7,3.3c1.2,3.5-1.9,7-1.9,7s4.4-1.4,7.2,1.3c2.7,2.5,1.7,7,1.7,7s4-3.6,8.9-1.5
			c4.8,2,4.4,7.3,4.4,7.3s2.9-3.8,8.6-2.5c4.6,1,6,7,6,7s3.7-3.7,8.2-1.8c4.2,1.9,3.8,6.9,3.8,6.9s4-2.8,7.9-0.3
			c3.6,2.3,2.9,7,2.9,7s4.4-2.1,8,0.8c3.6,2.9,1.6,7.5,1.6,7.5s4.2-2.1,7.3,0.7c3.1,2.8,0.4,8.2,0.4,8.2s5-0.1,7.5,3.1
			c2.6,3.2-0.8,9-0.8,9L123.2,311.8z"/>
		<path class="st1" d="M52.8,230.2c0.5,3.2,1.5,6.4,3.6,8.4c1,1,2.2,1.6,3.4,1.8c0.6,0.1,1.3,0.2,2,0.1c0.3,0,0.7,0,1-0.1l0.5-0.1
			l0.4-0.1c1-0.4,1.9-1.1,2.5-2c0.7-0.9,1.2-2,1.5-3.2c0.3-1.2,0.4-2.5,0.4-3.8c0-0.6-0.1-1.3-0.1-2c-0.1-0.6-0.2-1.2-0.3-1.9
			c-0.6-2.5-1.7-5.1-3.2-7.2c-0.7-1.1-1.5-2-2.4-2.9c-0.8-0.8-1.7-1.6-2.7-2.2c-1.9-1.2-3.9-1.9-6.1-2.2c-1.1-0.1-2.3-0.2-3.5-0.1
			c-1.1,0.1-2.2,0.2-3.2,0.5c-2,0.6-3.8,1.5-5.3,2.9c-1.5,1.4-2.8,3.2-3.7,5.3c-0.9,2.1-1.5,4.4-1.7,6.8c-0.2,2.4,0.1,4.9,0.7,7.2
			c0.6,2.3,1.7,4.5,3.1,6.4c0.4,0.5,0.7,0.9,1.2,1.4c0.4,0.5,0.9,1,1.4,1.4c1,0.9,2,1.8,3.1,2.6c1.1,0.8,2.3,1.6,3.5,2.3
			c1.2,0.7,2.5,1.5,3.8,2.1c2.6,1.3,5.5,2.5,8.4,3.5c5.9,2.2,12.2,4,18.5,6.4c3.1,1.2,6.2,2.5,9.2,4.1c3,1.6,5.9,3.2,8.7,5
			c5.6,3.6,10.9,8.1,15.1,13.4c4.2,5.3,7.4,11.3,9.6,17.6c4.5,12.6,5.7,25.9,5.6,38.9c-0.2,13.1-1.5,26-1.8,39.2l-7.6-1.2
			c0.9-3.1,1.8-6.2,2.4-9.3c0.7-3.1,1.2-6.3,1.7-9.5c0.9-6.4,1.2-12.8,1.3-19.2c0-6.4-0.3-12.8-1.2-19.1c-0.9-6.3-2.3-12.5-4.6-18.3
			c-2.3-5.8-5.3-11.3-9.4-16c-4-4.7-8.9-8.6-14.2-11.8c-5.4-3.3-11.1-5.5-17.2-7.1c-6-1.7-12.4-2.6-18.9-3.9
			c-3.3-0.7-6.6-1.5-10-2.6c-3.4-1.1-6.7-2.5-9.9-4.5c-1.6-1-3.1-2-4.6-3.2c-0.7-0.6-1.4-1.2-2.2-1.8c-0.8-0.7-1.5-1.4-2.1-2.2
			c-2.7-3.1-4.8-6.7-6.2-10.5c-1.4-3.8-2-7.9-2-11.9c0-2,0.2-4.1,0.6-6.1c0.4-2,1-4,1.8-5.9c1.6-3.9,4-7.6,7.4-10.5
			c1.7-1.5,3.5-2.7,5.5-3.8c2-1,4.1-1.8,6.2-2.2c2.1-0.5,4.3-0.7,6.4-0.7c2.1,0,4.1,0.2,6.2,0.7c4.1,0.9,8.2,2.9,11.4,5.7
			c3.2,2.8,5.5,6.3,7.1,9.9c1.6,3.6,2.4,7.4,2.5,11.3c0,1,0,2-0.1,3c-0.1,1-0.2,1.9-0.4,2.9c-0.4,1.9-1,3.8-2,5.6
			c-1,1.8-2.2,3.5-3.9,4.8c-1.7,1.3-3.8,2.2-6,2.3l-0.8,0l-0.7,0c-0.5,0-0.9-0.1-1.4-0.2c-0.9-0.2-1.9-0.4-2.8-0.8
			c-1.8-0.8-3.4-2.2-4.3-3.7c-1-1.6-1.4-3.3-1.6-5C52.4,233.5,52.5,231.9,52.8,230.2z"/>
		<circle class="st2" cx="56.9" cy="229.4" r="4.2"/>
	</g>
	<path class="st1" d="M517.6,697.1c-0.3,5.9-5,10.8-11.1,11c-3,0.1-5.8-0.9-7.9-2.7c0,0-0.1-0.1-0.1-0.1c-0.2-0.2-0.4-0.4-0.6-0.6
		c-0.1-0.1-0.1-0.1-0.2-0.2c-0.2-0.2-0.3-0.3-0.5-0.5c-0.1-0.1-0.2-0.2-0.3-0.4c-0.1-0.1-0.2-0.3-0.3-0.4c-0.1-0.2-0.2-0.3-0.4-0.5
		c-0.1-0.1-0.1-0.2-0.2-0.3c-0.1-0.2-0.3-0.5-0.4-0.7c0-0.1-0.1-0.1-0.1-0.2c-0.1-0.3-0.3-0.6-0.4-0.9c0,0,0,0,0,0
		c-0.3-0.8-0.5-1.6-0.6-2.5l-2.2,0.1c-0.3,5.9-5,10.8-11.1,11c-6.4,0.3-11.8-4.7-12-11.1c-0.3-6.4,4.7-11.8,11.1-12
		c6.2-0.3,11.4,4.4,12,10.5l2.1-0.1c0-6.1,4.9-11.2,11.1-11.5c3.5-0.1,6.7,1.3,8.9,3.6c1.7,1.8,2.9,4.2,3.1,6.9L517.6,697.1z"/>
	<g>
		<path class="st3" d="M271.6,197.1c0,20-3.3,53.2,25.4,53.2"/>
		<path class="st3" d="M306.7,185.4c0,11.9-2,31.7,15.2,31.7"/>
		<path class="st3" d="M293.2,211.3c0,8.9-1.5,23.6,11.3,23.6"/>
		<path class="st2" d="M270.5,166.1c-5,0-11.9,6.2-12.9,27.8c-0.1,2.9,2.2,5.3,5.1,5.3h7.8h7.8c2.9,0,5.2-2.4,5.1-5.3
			C282.5,172.3,275.5,166.1,270.5,166.1z"/>
		<path class="st0" d="M293.1,195.3c-2.3,0-5.4,3-5.9,13.3c-0.1,1.6,1.3,2.9,3,2.9l2.9,0l2.9,0c1.7,0,3.1-1.3,3-2.9
			C298.5,198.3,295.4,195.3,293.1,195.3z"/>
		<path class="st4" d="M306.5,165.4c-3.2,0-7.6,3.8-8.7,16.6c-0.3,3.2,2.3,5.9,5.5,5.9l3.2,0l3.2,0c3.2,0,5.7-2.8,5.5-5.9
			C314.1,169.2,309.7,165.4,306.5,165.4z"/>
		<path class="st3" d="M253.1,236.2c0,13.2-1.9,35.1,15,35.1"/>
		<path class="st4" d="M253.1,212.7c-3.9,0-9.2,5.5-10,24.5c-0.1,2.9,2.2,5.3,5.1,5.3l5,0l5,0c2.9,0,5.2-2.4,5.1-5.3
			C262.3,218.3,256.9,212.7,253.1,212.7z"/>
	</g>
	<g>
		<g>
			<path class="st4" d="M569.5,529.2c-40.6-56.2-20.2-99-25.7-144.5c-11-90.8,9.2-135.1,2.3-161.8c-24.2-94.5-58.1-88.2-97-83.9
				c-35,3.9-53.5,23-90,37.3c-19.9,7.8-43.3,30.1-53.4,50.9c-15.1,30.8-37.1,21.9-48.7,60.7c-13.9,46.6-46.1,46-68.8,71
				c-22.7,25.1-8.6,67.8-37.6,102.3C63.6,564.8,38.5,571.3,38.7,595.9c40.1,8.9,31.5,87.8,149.6,80.8c80-4.7,118.9,3.7,152.4,12.5
				c31.3,8.2,58,16.6,109.2,14.8c89.8-3.2,139.1-66.1,144.2-87C598,600.9,593.2,562.1,569.5,529.2z M450.4,696.8
				c-50.1,1.8-76-6.6-106.8-14.6c-2-0.5-3.2-2.5-2.8-4.5c3.4-14.6,40.4-47,114.5-62.8c47.8-10.2,105.4-20.9,134.5-2.1
				C584.9,632.9,537.3,693.7,450.4,696.8z"/>
		</g>
	</g>
	<path class="st2" d="M185.5,86.6c45.9,12.8,91.6,25.4,223.4,80.7c60.7,25.5,132.4,66.8,205.7,98.6c0,0-27.4-94.7-174.2-152.3
		S185.5,86.6,185.5,86.6z"/>
	<g>
		<g>
			<g>
				<path class="st1" d="M462.4,438.9c0.6-3.3-0.1-9.4-6.3-12.5c-0.4-0.2-0.8-0.4-1.2-0.5l-0.5,1.4c0.3,0.1,0.7,0.3,1,0.4
					c6.1,3,5.8,8.7,5.5,10.7L462.4,438.9z"/>
			</g>
		</g>
		<path class="st5" d="M455.6,412c-0.1,0.6,12.8,4.3,19-14.4C474.6,397.5,456.9,399.4,455.6,412z"/>
		<path class="st5" d="M433.3,440.4c0,0,3.5-18.7,19.7-15.8C453.1,424.6,453.3,437.9,433.3,440.4z"/>
		<path class="st5" d="M471,497.9c-0.1,0.6,12.5,7.3,19.7-10.9C490.7,487,472.5,485.7,471,497.9z"/>
		<g>
			<g>
				<g>
					<path class="st1" d="M496.2,457.6c1.3-4.3,5.6-11.1,14.7-11.1c0.5,0,1.1,0,1.7,0.1l-0.3,2c-0.5,0-1-0.1-1.4-0.1
						c-8.9,0-12,6.9-12.8,9.5L496.2,457.6z"/>
				</g>
			</g>
			<g>
				<path class="st5" d="M526.5,552.4c-6.5-7.5-10.7-23.6-12.2-46.6c-1.2-19.8-0.3-43.3,2.5-64.6c5.2-39.3-5-58.5-7.2-62.1l-3.5,2.4
					c2,3.5,11.4,22.1,6.5,59.1c-2.8,20.8-3.7,45-2.5,64.6c1.5,24.6,6.1,41.9,13.3,50.1L526.5,552.4z"/>
			</g>
		</g>
		<g>
			<g>
				<g>
					<path class="st1" d="M480.4,404.1c-1-3.3-4.2-8.4-11.2-8.4c-0.4,0-0.8,0-1.3,0.1l0.2,1.5c0.4,0,0.7,0,1.1,0
						c6.8,0,9.1,5.2,9.7,7.2L480.4,404.1z"/>
				</g>
			</g>
			<g>
				<path class="st5" d="M456.3,530.6c6.5-7.5,10.7-23.6,12.2-46.6c1.2-19.8,0.3-43.3-2.5-64.6c-5.2-39.3,5-58.5,7.2-62.1l3.5,2.4
					c-2,3.5-11.4,22.1-6.5,59.1c2.8,20.8,3.7,45,2.5,64.6c-1.5,24.6-6.1,41.9-13.3,50.1L456.3,530.6z"/>
			</g>
		</g>
		<g>
			<g>
				<g>
					<path class="st1" d="M436.3,376.4c1-3.3,4.2-8.4,11.2-8.4c0.4,0,0.8,0,1.3,0.1l-0.2,1.5c-0.4,0-0.7,0-1.1,0
						c-6.8,0-9.1,5.2-9.7,7.2L436.3,376.4z"/>
				</g>
			</g>
			<g>
				<path class="st5" d="M440.2,497.1c6.5-7.5,10.7-23.6,12.2-46.6c1.2-19.8,0.3-43.3-2.5-64.6c-5.2-39.3,5-58.5,7.2-62.1l3.5,2.4
					c-2,3.5-11.4,22.1-6.5,59.1c2.8,20.8,3.7,45,2.5,64.6c-1.5,24.6-6.1,41.9-13.3,50.1L440.2,497.1z"/>
			</g>
		</g>
		<g>
			<path class="st1" d="M490.2,464.8c0,0,0.5,21.8-5,41.7c-0.8,2.7,2.7,4.6,4.6,2.4c6.8-8,15.1-22.5,12.5-43.5l-6.4-5.5L490.2,464.8
				z"/>
			<path class="st0" d="M494.5,456.6c-2.1,1.8-4.7,5-6.9,10.5c0,0,3.8,0.4,6.4-2.2c0,0-0.2,3.5,2.4,6.5c0,0,2-1.9,2.7-5.7
				c0,0,1.1,3.4,4.9,3.8c0,0,0-6.1-4-12.1C498.8,455.5,496.2,455.2,494.5,456.6z"/>
			<path class="st1" d="M494.2,476.7c-0.5,1.4,0.3,4,3.1,3.6"/>
			<path class="st1" d="M493,485.1c-0.5,1.4,0.3,4,3.1,3.6"/>
			<path class="st1" d="M491.4,493.2c-0.5,1.4,0.3,4,3.1,3.6"/>
		</g>
		<g>
			<path class="st1" d="M430.5,383.9c0,0,0.5,20.4-4.7,39c-0.7,2.6,2.5,4.3,4.3,2.3c6.4-7.5,14.1-21,11.7-40.6l-6-5.2L430.5,383.9z"
				/>
			<path class="st0" d="M434.6,376.2c-1.9,1.7-4.4,4.6-6.4,9.8c0,0,3.5,0.4,6-2.1c0,0-0.2,3.3,2.2,6c0,0,1.9-1.7,2.5-5.4
				c0,0,1,3.2,4.6,3.5c0,0,0-5.7-3.8-11.3C438.5,375.2,436.1,374.9,434.6,376.2z"/>
			<path class="st1" d="M434.2,395c-0.4,1.3,0.3,3.7,2.9,3.3"/>
			<path class="st1" d="M433.1,402.8c-0.4,1.3,0.3,3.7,2.9,3.3"/>
			<path class="st1" d="M431.6,410.4c-0.4,1.3,0.3,3.7,2.9,3.3"/>
		</g>
		<g>
			<path class="st1" d="M487.1,411.1c0,0,5.2,13.9,17.2,24.8c1.9,1.7,0.1,4.8-2.3,4.1c-8.3-2.3-19.6-8.7-23.6-26.1l2.2-5.1
				L487.1,411.1z"/>
			<path class="st3" d="M487,419.5c0.9,0.8,1.4,3-0.8,3.9"/>
			<path class="st3" d="M491.3,425.2c0.9,0.8,1.4,3-0.8,3.9"/>
			<path class="st3" d="M495.9,430.5c0.9,0.8,1.4,3-0.8,3.9"/>
			<path class="st0" d="M483.3,404.1c2.2,2,5.1,5,7.8,9.1c0,0-3.1,1-5.8-0.8c0,0,0.8,3-0.9,5.9c0,0-2.1-1.2-3.3-4.4
				c0,0-0.3,3.1-3.5,4.1c0,0-1.4-6.2,0.1-12.1C478.2,403.4,481.3,402.4,483.3,404.1z"/>
		</g>
		<g>
			<path class="st1" d="M465.9,445.6c0,0,0.8,12.7,7.9,24.8c1.1,1.9-1.1,4-2.9,2.8c-6.2-4-14-12.2-12.8-27.5l3.1-3.6L465.9,445.6z"
				/>
			<path class="st3" d="M463.7,452.5c0.5,0.9,0.4,2.9-1.7,3"/>
			<path class="st3" d="M465.8,458.2c0.5,0.9,0.4,2.9-1.7,3"/>
			<path class="st3" d="M468.2,463.8c0.5,0.9,0.4,2.9-1.7,3"/>
			<path class="st0" d="M464.5,438.9c1.3,2.2,3,5.4,4.1,9.5c0,0-2.8,0-4.6-2.1c0,0-0.1,2.6-2.2,4.7c0,0-1.4-1.5-1.6-4.5
				c0,0-1.1,2.5-3.9,2.5c0,0,0.5-5.5,3.1-10C460.6,437,463.4,437,464.5,438.9z"/>
		</g>
		<path class="st5" d="M514.6,461.9c-0.5,0.1-0.7,12.8,15.9,14.9C530.5,476.8,525.1,460.7,514.6,461.9z"/>
		<path class="st5" d="M509.9,500.5c-0.2-0.5-14.2,3.3-10,23.4C499.9,524,515.4,512.4,509.9,500.5z"/>
		<path class="st5" d="M472.2,436.4c-0.4,0-1.7,12.9,12.8,15.9C485,452.3,482.2,437,472.2,436.4z"/>
		<g>
			<g>
				<g>
					<g>
						<g>
							<path class="st1" d="M424.2,440.6c-1.3-4.3-5.7-11-14.9-10.8c-0.5,0-1.1,0-1.7,0.1l0.3,2c0.5,0,1-0.1,1.4-0.1
								c8.9-0.1,12.1,6.7,12.9,9.3L424.2,440.6z"/>
						</g>
					</g>
					<g>
						<path class="st5" d="M387.9,496c7.1-6.9,12.6-22.6,16-45.5c2.9-19.6,3.9-43.1,2.8-64.6c-2-39.6,9.8-57.9,12.2-61.3l3.3,2.7
							c-2.3,3.3-13.1,21.1-11.3,58.3c1,21,0,45.1-2.8,64.6c-3.5,24.4-9.5,41.2-17.4,48.8L387.9,496z"/>
					</g>
				</g>
				<g>
					<path class="st1" d="M429.8,446.5c0,0,0.8,17.7,6.4,33.5c0.8,2.2-1.9,3.9-3.5,2.2c-6-6.1-13.5-17.3-12.6-34.5l4.9-4.8
						L429.8,446.5z"/>
					<path class="st0" d="M425.8,440.1c1.8,1.3,4.1,3.7,6.1,8.1c0,0-3,0.6-5.3-1.4c0,0,0.3,2.8-1.5,5.4c0,0-1.7-1.4-2.5-4.5
						c0,0-0.7,2.8-3.8,3.3c0,0-0.3-5,2.6-10C422.3,439.4,424.4,439,425.8,440.1z"/>
					<path class="st1" d="M427.2,456.3c0.5,1.1,0,3.2-2.3,3.1"/>
					<path class="st1" d="M428.7,463c0.5,1.1,0,3.2-2.3,3.1"/>
					<path class="st1" d="M430.4,469.6c0.5,1.1,0,3.2-2.3,3.1"/>
				</g>
			</g>
			<path class="st5" d="M398.1,483.5c-0.2,0.4,14.2,5.3,21.5-10.4C419.6,473.1,403.8,469.6,398.1,483.5z"/>
		</g>
		<g>
			<g>
				<g>
					<g>
						<path class="st1" d="M528.6,499.2c-1.3-4.3-1.3-12.3,6.4-17.3c0.5-0.3,1-0.6,1.5-0.9l0.9,1.8c-0.4,0.2-0.8,0.5-1.2,0.7
							c-7.5,4.8-6.3,12.3-5.7,14.9L528.6,499.2z"/>
					</g>
				</g>
				<g>
					<path class="st1" d="M523.2,502.9c0,0-2.2,17.6-9,32.9c-0.9,2.1,1.6,4,3.4,2.5c6.4-5.6,14.8-16.2,15.3-33.4l-4.5-5.2
						L523.2,502.9z"/>
					<path class="st0" d="M527.6,496.8c-1.9,1.2-4.4,3.4-6.8,7.6c0,0,3,0.8,5.4-1c0,0-0.6,2.8,1.1,5.5c0,0,1.9-1.3,2.9-4.3
						c0,0,0.5,2.9,3.5,3.6c0,0,0.7-4.9-1.8-10.2C531.2,496.4,529.1,495.9,527.6,496.8z"/>
					<path class="st1" d="M524.9,512.9c-0.5,1-0.2,3.2,2.1,3.2"/>
					<path class="st1" d="M522.9,519.5c-0.5,1-0.2,3.2,2.1,3.2"/>
					<path class="st1" d="M520.6,525.8c-0.5,1-0.2,3.2,2.1,3.2"/>
				</g>
				<g>
					<path class="st5" d="M522.5,558.4c6.5-7.4,10.8-23.5,12.3-46.6c1.3-19.8,0.5-43.3-2.2-64.6c-5.1-39.3,5.2-58.5,7.4-62l3.5,2.4
						c-2,3.5-11.4,22.1-6.7,59c2.7,20.8,3.5,45,2.3,64.6c-1.6,24.6-6.2,41.8-13.5,50.1L522.5,558.4z"/>
				</g>
			</g>
			<path class="st5" d="M534.4,536.1c-0.1,0.4,14.6,4.2,20.6-12C555,524,539,521.8,534.4,536.1z"/>
		</g>
	</g>
	<path class="st0" d="M455.3,614.8c-74.1,15.8-111,48.3-114.5,62.8c-0.5,2,0.8,4,2.8,4.5c30.8,8,56.6,16.4,106.8,14.6
		c86.8-3.1,134.5-63.9,139.4-84.1C560.7,593.9,503.2,604.6,455.3,614.8z"/>
	<path class="st3" d="M563.7,658.8c0.8,1.6,1.6,3.3,2.6,5c8.5,14.6,3.7,31.5,3.7,31.5"/>
	<path class="st3" d="M558.6,632.3c0,0-1.3,8.5,2.6,20.1"/>
	<g>
		<path class="st2" d="M539.1,632.9c-5-0.1-22.6-4.2-20-15c3.2-13.4,22.5-18.2,33.2-18.8c10-0.5,34.2,1.8,25,21.6
			C569.6,637.2,545.5,633,539.1,632.9z"/>
		<g>
			<path class="st6" d="M549.1,599.3c0,0-3.9,7,1.2,14.3c0,0,7.6-11.1,21.1-11.6"/>
			<path class="st6" d="M556.7,633.1c0,0,0.4-12.9-6.4-19.5c10.2-2.9,27.5,6,27.5,6"/>
			<path class="st6" d="M518.9,618.6c0,0,13.3-7.6,31.4-5c0,0-17.1,8.5-19.9,17.5"/>
		</g>
	</g>
	<path class="st3" d="M464.5,702.9c1.5,5,3.4,9.3,6.2,12.8"/>
	<path class="st3" d="M442.2,620.7c0,0,9.5,16,15.6,46.6c2.1,10.3,3.2,20,4.9,28.5"/>
	<path class="st3" d="M417.5,703.7c1.8,23.2,13.3,43.3,29.3,48.1"/>
	<path class="st3" d="M408.6,653.4c0,0,8.3,29.5,8.7,43"/>
	<path class="st3" d="M487.8,698.7c1,5.4,2.3,11,4.2,16.6c11.5,34.7,18.5,39.1,18.5,39.1"/>
	<path class="st3" d="M488.6,646.7c0,0-4.8,20.1-1.8,45.1"/>
	<path class="st3" d="M480.1,700.5c0.3,1.1,0.5,2.3,0.7,3.4c5.1,28.5,2.4,71.3,22.5,89"/>
	<path class="st3" d="M463.1,654.4c0,0,9.9,20.2,15.2,39.3"/>
	<path class="st3" d="M450.9,703.9c0.4,2.8,0.6,5.7,0.6,8.8c-0.5,36.2,13.9,53.4,9.5,70.5"/>
	<path class="st3" d="M443.4,681.4c0,0,3.7,6.1,6,15.4"/>
	<path class="st3" d="M544.3,640.3c0,0-0.6,36.3,17.2,57.9s16.3,27.9,16.3,27.9"/>
	<path class="st3" d="M574.6,647.7c2.2,7.4,4.5,16.9,6.2,28c3.7,24.6,0.1,56.9,9.1,64.9"/>
	<path class="st3" d="M568.2,629.9c0,0,1.8,4,4.2,11"/>
	<path class="st3" d="M507.3,692.8c3.8,30.4,21.3,53.1,35.6,60.3"/>
	<path class="st3" d="M500.8,637.3c0,0,7.5,17.4,6.1,36.3c-0.3,4.1-0.3,8.2-0.1,12.1"/>
	<path class="st3" d="M400.2,702.1c6.8,15.2,12.7,30-2.7,48.4"/>
	<path class="st3" d="M392.4,665.9c-2,10,0.5,19.1,4.1,27.7c0.1,0.2,0.2,0.4,0.3,0.7"/>
	<path class="st4" d="M447.4,704.2c-6.8,1.1-11.4,7.3-10.6,14.1l-2.3,0.4c-1.4-6.6-7.8-11-14.6-9.9c-6.8,1.1-11.4,7.3-10.6,14.1
		l-2.3,0.4c-1.4-6.6-7.8-11-14.6-9.9c-7,1.1-11.7,7.7-10.5,14.7c1.1,7,7.7,11.7,14.7,10.5c6.6-1.1,11.2-7.1,10.6-13.6l2.4-0.4
		c1.6,6.4,7.9,10.5,14.5,9.5c6.6-1.1,11.2-7.1,10.6-13.6l2.4-0.4c1.6,6.4,7.9,10.5,14.5,9.5c7-1.1,11.7-7.7,10.5-14.7
		C461,707.8,454.4,703.1,447.4,704.2z"/>
	<g>
		<path class="st5" d="M362.2,661.2c-8.8,7-11.2,17.1-2.6,23.5c11.8,8.8,22.3-4.5,42.1-5c23.7-0.6,23.7-17.5,16-23.1
			C403.4,646.2,375.4,650.8,362.2,661.2z"/>
		<path class="st6" d="M360.9,685.2c0,0,10.3-14.5,30.7-16.6c0,0-17.2-7.5-36.4,2.5"/>
		<path class="st6" d="M375.8,654.4c0,0,11.4,1.8,15.9,14.2c0,0,10.2-12.5,25.6-11.8"/>
		<path class="st6" d="M399.5,679.7c0,0-3.4-8.5-7.8-11.1c12.1-4.1,27.1,5,27.1,5"/>
	</g>
	<g>
		<path class="st1" d="M431.5,639.6c-9.7,1.2-13,16.5,14.1,20.8c10,1.6,29.8,3.5,43.8-10c8.2-7.9,5.5-20.8-7.8-17.2
			c-12.4,3.3-11.4-1.4-23.6-1.3C448,632,441.5,638.4,431.5,639.6z"/>
		<path class="st6" d="M440.4,637.3c0,0,13.5,0.6,22.7,8.9c0,0,2-9.9,8.6-11.9"/>
		<path class="st6" d="M450.7,660.9c0,0,2.9-8,12.4-14.7c-25.1-1.9-34.2,7.9-34.2,7.9"/>
		<path class="st6" d="M493.6,639.3c0,0-13.1-7.1-30.5,7c10.3,0.1,20.7,8.3,20.7,8.3"/>
	</g>
	<path class="st5" d="M408.9,675.5c-3.1,7.5-0.9,18,17.3,16.1c28.5-3,55.1-15,39.1-32.4C452.8,645.6,415.8,659,408.9,675.5z"/>
	<path class="st6" d="M423.7,691.6c0,0,4.3-14.6,16.1-20.3c0,0,5.5,6.8,7,16.1"/>
	<path class="st6" d="M428.1,659c0,0,9.5,4.1,11.7,12.3c-17.7-2.9-31.2,6.3-31.2,6.3"/>
	<path class="st6" d="M456.8,654.7c0,0-3.6,12.5-17,16.6c14.3-0.1,23.3,8.7,23.3,8.7"/>
	<g>
		<path class="st5" d="M531.2,646.2c16.5,2.4,26.4-6.6,18.6-10.4c-7.7-3.8-19.6-11.4-32.6-12.6c-15.3-1.4-35.6,5.2-36.5,17.3
			S509.5,643,531.2,646.2z"/>
		<path class="st3" d="M531.2,646.2c0,0-9-14.4-20.5-13.6c0,0-8.6,2.2-11.1,14"/>
		<path class="st3" d="M480.8,640.6c0,0,13.3-11.1,29.9-8c12.1-3.1,36.8,2.1,36.8,2.1"/>
		<path class="st3" d="M506.8,623.5c0,0,4,2.2,3.8,9.1"/>
	</g>
	<path class="st4" d="M573.5,678.9c-4.5,3.2-5.7,9.4-2.7,14.1l-1.6,1.1c-3.4-4.3-9.7-5.2-14.2-2c-4.5,3.2-5.7,9.4-2.7,14.1l-1.6,1.1
		c-3.4-4.3-9.7-5.2-14.2-2c-4.7,3.3-5.7,9.8-2.4,14.5s9.8,5.7,14.5,2.4c4.4-3.2,5.6-9.2,2.9-13.7l1.6-1.1c3.5,4.1,9.5,4.9,13.9,1.7
		s5.6-9.2,2.9-13.7l1.6-1.1c3.5,4.1,9.5,4.9,13.9,1.7c4.7-3.3,5.7-9.8,2.4-14.5C584.6,676.6,578.1,675.6,573.5,678.9z"/>
	<path class="st0" d="M530.3,740.6c-6.7,0-12.2,5.4-12.5,12l-2.3,0c0-0.2,0-0.4-0.1-0.6c0,0,0-0.1,0-0.1c0-0.4-0.1-0.7-0.2-1.1
		c0-0.1,0-0.2-0.1-0.3c-0.1-0.3-0.1-0.6-0.2-0.9c0-0.1-0.1-0.3-0.1-0.4c-0.1-0.2-0.2-0.5-0.3-0.7c-0.1-0.2-0.1-0.3-0.2-0.5
		c-0.1-0.2-0.2-0.4-0.3-0.5c-0.1-0.2-0.2-0.4-0.3-0.6c-0.1-0.1-0.1-0.2-0.2-0.4c-0.1-0.2-0.3-0.5-0.4-0.7c0-0.1-0.1-0.1-0.1-0.2
		c-0.2-0.3-0.4-0.5-0.6-0.8c0,0,0,0,0,0c-2.3-2.6-5.7-4.3-9.5-4.3c-6.7,0-12.2,5.4-12.5,12l-2.3,0c-0.2-2.9-1.3-5.5-3.1-7.6
		c-2.3-2.7-5.7-4.3-9.5-4.3c-6.7,0-12.2,5.4-12.5,12l-2.3,0c-0.4-6.7-5.9-11.9-12.6-11.9c-6.9,0-12.6,5.7-12.5,12.6
		c0,6.9,5.7,12.6,12.6,12.5c6.6,0,12-5.1,12.5-11.6l2.4,0c0.1,0.9,0.3,1.8,0.6,2.7c0,0,0,0,0,0c0.1,0.4,0.2,0.7,0.4,1
		c0,0.1,0.1,0.2,0.1,0.2c0.1,0.3,0.2,0.5,0.4,0.8c0.1,0.1,0.1,0.2,0.2,0.4c0.1,0.2,0.2,0.4,0.4,0.6c0.1,0.2,0.2,0.3,0.3,0.5
		c0.1,0.1,0.2,0.3,0.3,0.4c0.2,0.2,0.3,0.4,0.5,0.6c0.1,0.1,0.2,0.2,0.2,0.3c0.2,0.2,0.4,0.4,0.6,0.6c0,0,0.1,0.1,0.1,0.1
		c2.2,2,5.2,3.3,8.5,3.3c6.6,0,12-5.1,12.5-11.6l2.3,0c0.3,2.8,1.4,5.3,3.2,7.3c2.3,2.6,5.7,4.2,9.4,4.1c6.6,0,12-5.1,12.5-11.6
		l2.4,0c0.6,6.4,6,11.5,12.6,11.4c6.9,0,12.6-5.7,12.5-12.6C542.9,746.2,537.3,740.6,530.3,740.6z"/>
	<g>
		<g>
			<g>
				<path class="st1" d="M301.6,661.5c0.1-1.8,0.4-3.7,0.9-5.5c0.5-1.8,1.2-3.6,2.3-5.2c1.1-1.6,2.5-3,4.4-3.7
					c0.9-0.3,1.9-0.5,3-0.5c1,0,2.1,0.3,3,0.9c1.8,1.2,2.8,2.9,3.6,4.6c0.8,1.8,1.3,3.6,1.7,5.4c0.8,3.7,1.1,7.4,1.1,11.1h-1.4
					c-0.1-3.6-0.5-7.3-1.2-10.8c-0.4-1.8-0.9-3.5-1.6-5.1c-0.7-1.6-1.6-3.1-3-4.1c-0.7-0.5-1.4-0.7-2.2-0.7c-0.8,0-1.7,0.1-2.5,0.4
					c-1.6,0.5-3,1.7-4,3.1C303.6,654.3,302.4,657.9,301.6,661.5z"/>
				<path class="st1" d="M308.6,640.2c2-0.3,4.1,0.4,5.9,1.6c1.7,1.2,3.1,2.9,4,4.8c0.3,0.5,0.5,0.9,0.7,1.4l0.6,1.4
					c0.3,1,0.7,2,0.9,3c0.2,1,0.4,2,0.5,3c0.1,1,0.2,2,0.3,3.1l-1.4,0.1c-0.2-1-0.3-2-0.4-2.9c-0.1-1-0.4-1.9-0.6-2.9
					c-0.2-1-0.5-1.9-0.7-2.8l-0.5-1.4c-0.2-0.5-0.3-0.9-0.6-1.3c-0.8-1.8-1.9-3.4-3.3-4.7c-0.4-0.3-0.8-0.6-1.1-0.9
					c-0.4-0.2-0.8-0.5-1.3-0.7C310.6,640.5,309.6,640.2,308.6,640.2z"/>
				<path class="st1" d="M320.1,665.9c-0.2-3-0.2-6,0.1-9c0.4-3,0.9-6.1,2.6-8.8c0.8-1.3,2.2-2.6,3.9-2.9c1.7-0.3,3.4,0.1,4.7,1.1
					c1.3,1,2.2,2.4,2.8,3.8c0.5,1.4,0.8,2.9,0.9,4.4c-0.4-1.4-0.9-2.8-1.6-4.1c-0.7-1.3-1.6-2.4-2.7-3.1c-1.1-0.7-2.5-0.9-3.7-0.7
					c-1.2,0.3-2.2,1.2-2.9,2.3c-0.7,1.2-1.2,2.5-1.5,3.9c-0.4,1.4-0.6,2.8-0.8,4.3c-0.3,2.9-0.4,5.8-0.4,8.7L320.1,665.9z"/>
				<path class="st1" d="M327.7,665.3c-1.6,0.5-2.9,1.5-3.9,2.7c-0.9,1-1.6,2.2-2.2,3.4l0-1.4c0-1,0-1.9,0-2.9l0.1-10.4
					c0-3.2,0-6.4-0.1-9.6c-0.1-3.2-0.3-6.4-0.7-9.6c-0.4,3.2-0.6,6.4-0.7,9.6c-0.1,3.2-0.1,6.4-0.1,9.6l0,1.7
					c-0.6-1.4-1.4-2.8-2.8-3.8c-0.8-0.6-1.9-0.9-2.9-0.9c-0.5,0-1,0.1-1.4,0.1c-0.5,0.1-0.9,0.2-1.4,0.3c-1.8,0.7-3.3,2-4.2,3.6
					c-0.9,1.6-1.5,3.4-1.6,5.1c0.3-0.8,0.6-1.7,1-2.4c0.4-0.8,0.8-1.5,1.3-2.2c1-1.3,2.4-2.4,3.9-2.8c0.4-0.1,0.8-0.2,1.2-0.2
					c0.4,0,0.8-0.1,1.2,0c0.8,0,1.5,0.3,2.1,0.7c1.2,0.8,2,2.4,2.5,4c1,3.2,1.2,6.7,1.2,10.2l0.1,10.6h1.3l0.1-3.7
					c0.1-1.3,0.5-2.8,1.1-4.2c0.5-1.4,1.2-2.7,2-3.9c0.8-1.2,1.9-2.2,3.2-2.8c1.3-0.6,2.9-0.6,4.3-0.2
					C330.9,665.1,329.2,664.8,327.7,665.3z"/>
			</g>
			<g>
				<path class="st1" d="M318,637.2c0.1-1.8,0.4-3.7,0.9-5.5c0.5-1.8,1.2-3.6,2.3-5.2c1.1-1.6,2.5-3,4.4-3.7c0.9-0.3,1.9-0.5,3-0.5
					c1,0,2.1,0.3,3,0.9c1.8,1.2,2.8,2.9,3.6,4.6c0.8,1.8,1.3,3.6,1.7,5.4c0.8,3.7,1.1,7.4,1.1,11.1h-1.4c-0.1-3.6-0.5-7.3-1.2-10.8
					c-0.4-1.8-0.9-3.5-1.6-5.1c-0.7-1.6-1.6-3.1-3-4.1c-0.7-0.5-1.4-0.7-2.2-0.7c-0.8,0-1.7,0.1-2.5,0.4c-1.6,0.5-3,1.7-4,3.1
					C320.1,630.1,318.8,633.6,318,637.2z"/>
				<path class="st1" d="M325.1,615.9c2-0.3,4.1,0.4,5.9,1.6c1.7,1.2,3.1,2.9,4,4.8c0.3,0.5,0.5,0.9,0.7,1.4l0.6,1.4
					c0.3,1,0.7,2,0.9,3c0.2,1,0.4,2,0.5,3c0.1,1,0.2,2,0.3,3.1l-1.4,0.1c-0.2-1-0.3-2-0.4-2.9c-0.1-1-0.4-1.9-0.6-2.9
					c-0.2-1-0.5-1.9-0.7-2.8l-0.5-1.4c-0.2-0.5-0.3-0.9-0.6-1.3c-0.8-1.8-1.9-3.4-3.3-4.7c-0.4-0.3-0.8-0.6-1.1-0.9
					c-0.4-0.2-0.8-0.5-1.3-0.7C327.1,616.2,326.1,616,325.1,615.9z"/>
				<path class="st1" d="M336.6,641.6c-0.2-3-0.2-6,0.1-9c0.4-3,0.9-6.1,2.6-8.8c0.8-1.3,2.2-2.6,3.9-2.9c1.7-0.3,3.4,0.1,4.7,1.1
					c1.3,1,2.2,2.4,2.8,3.8c0.5,1.4,0.8,2.9,0.9,4.4c-0.4-1.4-0.9-2.8-1.6-4.1c-0.7-1.3-1.6-2.4-2.7-3.1c-1.1-0.7-2.5-0.9-3.7-0.7
					c-1.2,0.3-2.2,1.2-2.9,2.3c-0.7,1.2-1.2,2.5-1.5,3.9c-0.4,1.4-0.6,2.8-0.8,4.3c-0.3,2.9-0.4,5.8-0.4,8.7L336.6,641.6z"/>
				<path class="st1" d="M344.1,641c-1.6,0.5-2.9,1.5-3.9,2.7c-0.9,1-1.6,2.2-2.2,3.4l0-1.4c0-1,0-1.9,0-2.9l0.1-10.4
					c0-3.2,0-6.4-0.1-9.6c-0.1-3.2-0.3-6.4-0.7-9.6c-0.4,3.2-0.6,6.4-0.7,9.6c-0.1,3.2-0.1,6.4-0.1,9.6l0,1.7
					c-0.6-1.4-1.4-2.8-2.8-3.8c-0.8-0.6-1.9-0.9-2.9-0.9c-0.5,0-1,0.1-1.4,0.1c-0.5,0.1-0.9,0.2-1.4,0.3c-1.8,0.7-3.3,2-4.2,3.6
					c-0.9,1.6-1.5,3.4-1.6,5.1c0.3-0.8,0.6-1.7,1-2.4c0.4-0.8,0.8-1.5,1.3-2.2c1-1.3,2.4-2.4,3.9-2.8c0.4-0.1,0.8-0.2,1.2-0.2
					c0.4,0,0.8-0.1,1.2,0c0.8,0,1.5,0.3,2.1,0.7c1.2,0.8,2,2.4,2.5,4c1,3.2,1.2,6.7,1.2,10.2l0.1,10.6h1.3l0.1-3.7
					c0.1-1.3,0.5-2.8,1.1-4.2c0.5-1.4,1.2-2.7,2-3.9c0.8-1.2,1.9-2.2,3.2-2.8c1.3-0.6,2.9-0.6,4.3-0.2
					C347.4,640.8,345.7,640.5,344.1,641z"/>
			</g>
			<g>
				<path class="st1" d="M337.6,612.2c0.1-1.8,0.4-3.7,0.9-5.5c0.5-1.8,1.2-3.6,2.3-5.2c1.1-1.6,2.5-3,4.4-3.7
					c0.9-0.3,1.9-0.5,3-0.5c1,0,2.1,0.3,3,0.9c1.8,1.2,2.8,2.9,3.6,4.6c0.8,1.8,1.3,3.6,1.7,5.4c0.8,3.7,1.1,7.4,1.1,11.1h-1.4
					c-0.1-3.6-0.5-7.3-1.2-10.8c-0.4-1.8-0.9-3.5-1.6-5.1c-0.7-1.6-1.6-3.1-3-4.1c-0.7-0.5-1.4-0.7-2.2-0.7c-0.8,0-1.7,0.1-2.5,0.4
					c-1.6,0.5-3,1.7-4,3.1C339.6,605,338.4,608.6,337.6,612.2z"/>
				<path class="st1" d="M344.7,590.9c2-0.3,4.1,0.4,5.9,1.6c1.7,1.2,3.1,2.9,4,4.8c0.3,0.5,0.5,0.9,0.7,1.4l0.6,1.4
					c0.3,1,0.7,2,0.9,3c0.2,1,0.4,2,0.5,3c0.1,1,0.2,2,0.3,3.1l-1.4,0.1c-0.2-1-0.3-2-0.4-2.9c-0.1-1-0.4-1.9-0.6-2.9
					c-0.2-1-0.5-1.9-0.7-2.8l-0.5-1.4c-0.2-0.5-0.3-0.9-0.6-1.3c-0.8-1.8-1.9-3.4-3.3-4.7c-0.4-0.3-0.8-0.6-1.1-0.9
					c-0.4-0.2-0.8-0.5-1.3-0.7C346.6,591.2,345.7,590.9,344.7,590.9z"/>
				<path class="st1" d="M356.2,616.6c-0.2-3-0.2-6,0.1-9c0.4-3,0.9-6.1,2.6-8.8c0.8-1.3,2.2-2.6,3.9-2.9c1.7-0.3,3.4,0.1,4.7,1.1
					c1.3,1,2.2,2.4,2.8,3.8c0.5,1.4,0.8,2.9,0.9,4.4c-0.4-1.4-0.9-2.8-1.6-4.1c-0.7-1.3-1.6-2.4-2.7-3.1c-1.1-0.7-2.5-0.9-3.7-0.7
					c-1.2,0.3-2.2,1.2-2.9,2.3c-0.7,1.2-1.2,2.5-1.5,3.9c-0.4,1.4-0.6,2.8-0.8,4.3c-0.3,2.9-0.4,5.8-0.4,8.7L356.2,616.6z"/>
				<path class="st1" d="M363.7,616c-1.6,0.5-2.9,1.5-3.9,2.7c-0.9,1-1.6,2.2-2.2,3.4l0-1.4c0-1,0-1.9,0-2.9l0.1-10.4
					c0-3.2,0-6.4-0.1-9.6c-0.1-3.2-0.3-6.4-0.7-9.6c-0.4,3.2-0.6,6.4-0.7,9.6c-0.1,3.2-0.1,6.4-0.1,9.6l0,1.7
					c-0.6-1.4-1.4-2.8-2.8-3.8c-0.8-0.6-1.9-0.9-2.9-0.9c-0.5,0-1,0.1-1.4,0.1c-0.5,0.1-0.9,0.2-1.4,0.3c-1.8,0.7-3.3,2-4.2,3.6
					c-0.9,1.6-1.5,3.4-1.6,5.1c0.3-0.8,0.6-1.7,1-2.4c0.4-0.8,0.8-1.5,1.3-2.2c1-1.3,2.4-2.4,3.9-2.8c0.4-0.1,0.8-0.2,1.2-0.2
					c0.4,0,0.8-0.1,1.2,0c0.8,0,1.5,0.3,2.1,0.7c1.2,0.8,2,2.4,2.5,4c1,3.2,1.2,6.7,1.2,10.2l0.1,10.6h1.3l0.1-3.7
					c0.1-1.3,0.5-2.8,1.1-4.2c0.5-1.4,1.2-2.7,2-3.9c0.8-1.2,1.9-2.2,3.2-2.8c1.3-0.6,2.9-0.6,4.3-0.2
					C367,615.8,365.3,615.5,363.7,616z"/>
			</g>
			<g>
				<path class="st1" d="M269.9,649.6c0.1-1.8,0.4-3.7,0.9-5.5c0.5-1.8,1.2-3.6,2.3-5.2c1.1-1.6,2.5-3,4.4-3.7
					c0.9-0.3,1.9-0.5,3-0.5c1,0,2.1,0.3,3,0.9c1.8,1.2,2.8,2.9,3.6,4.6c0.8,1.8,1.3,3.6,1.7,5.4c0.8,3.7,1.1,7.4,1.1,11.1h-1.4
					c-0.1-3.6-0.5-7.3-1.2-10.8c-0.4-1.8-0.9-3.5-1.6-5.1c-0.7-1.6-1.6-3.1-3-4.1c-0.7-0.5-1.4-0.7-2.2-0.7c-0.8,0-1.7,0.1-2.5,0.4
					c-1.6,0.5-3,1.7-4,3.1C271.9,642.5,270.7,646,269.9,649.6z"/>
				<path class="st1" d="M277,628.3c2-0.3,4.1,0.4,5.9,1.6c1.7,1.2,3.1,2.9,4,4.8c0.3,0.5,0.5,0.9,0.7,1.4l0.6,1.4
					c0.3,1,0.7,2,0.9,3c0.2,1,0.4,2,0.5,3c0.1,1,0.2,2,0.3,3.1l-1.4,0.1c-0.2-1-0.3-2-0.4-2.9c-0.1-1-0.4-1.9-0.6-2.9
					c-0.2-1-0.5-1.9-0.7-2.8l-0.5-1.4c-0.2-0.5-0.3-0.9-0.6-1.3c-0.8-1.8-1.9-3.4-3.3-4.7c-0.4-0.3-0.8-0.6-1.1-0.9
					c-0.4-0.2-0.8-0.5-1.3-0.7C278.9,628.7,278,628.4,277,628.3z"/>
				<path class="st1" d="M288.5,654c-0.2-3-0.2-6,0.1-9c0.4-3,0.9-6.1,2.6-8.8c0.8-1.3,2.2-2.6,3.9-2.9c1.7-0.3,3.4,0.1,4.7,1.1
					c1.3,1,2.2,2.4,2.8,3.8c0.5,1.4,0.8,2.9,0.9,4.4c-0.4-1.4-0.9-2.8-1.6-4.1c-0.7-1.3-1.6-2.4-2.7-3.1c-1.1-0.7-2.5-0.9-3.7-0.7
					c-1.2,0.3-2.2,1.2-2.9,2.3c-0.7,1.2-1.2,2.5-1.5,3.9c-0.4,1.4-0.6,2.8-0.8,4.3c-0.3,2.9-0.4,5.8-0.4,8.7L288.5,654z"/>
				<path class="st1" d="M296,653.5c-1.6,0.5-2.9,1.5-3.9,2.7c-0.9,1-1.6,2.2-2.2,3.4l0-1.4c0-1,0-1.9,0-2.9l0.1-10.4
					c0-3.2,0-6.4-0.1-9.6c-0.1-3.2-0.3-6.4-0.7-9.6c-0.4,3.2-0.6,6.4-0.7,9.6c-0.1,3.2-0.1,6.4-0.1,9.6l0,1.7
					c-0.6-1.4-1.4-2.8-2.8-3.8c-0.8-0.6-1.9-0.9-2.9-0.9c-0.5,0-1,0.1-1.4,0.1c-0.5,0.1-0.9,0.2-1.4,0.3c-1.8,0.7-3.3,2-4.2,3.6
					c-0.9,1.6-1.5,3.4-1.6,5.1c0.3-0.8,0.6-1.7,1-2.4c0.4-0.8,0.8-1.5,1.3-2.2c1-1.3,2.4-2.4,3.9-2.8c0.4-0.1,0.8-0.2,1.2-0.2
					c0.4,0,0.8-0.1,1.2,0c0.8,0,1.5,0.3,2.1,0.7c1.2,0.8,2,2.4,2.5,4c1,3.2,1.2,6.7,1.2,10.2l0.1,10.6h1.3l0.1-3.7
					c0.1-1.3,0.5-2.8,1.1-4.2c0.5-1.4,1.2-2.7,2-3.9c0.8-1.2,1.9-2.2,3.2-2.8c1.3-0.6,2.9-0.6,4.3-0.2
					C299.2,653.3,297.6,653,296,653.5z"/>
			</g>
			<g>
				<path class="st1" d="M287.6,618.9c0.1-1.8,0.4-3.7,0.9-5.5c0.5-1.8,1.2-3.6,2.3-5.2c1.1-1.6,2.5-3,4.4-3.7
					c0.9-0.3,1.9-0.5,3-0.5c1,0,2.1,0.3,3,0.9c1.8,1.2,2.8,2.9,3.6,4.6c0.8,1.8,1.3,3.6,1.7,5.4c0.8,3.7,1.1,7.4,1.1,11.1h-1.4
					c-0.1-3.6-0.5-7.3-1.2-10.8c-0.4-1.8-0.9-3.5-1.6-5.1c-0.7-1.6-1.6-3.1-3-4.1c-0.7-0.5-1.4-0.7-2.2-0.7c-0.8,0-1.7,0.1-2.5,0.4
					c-1.6,0.5-3,1.7-4,3.1C289.6,611.7,288.4,615.3,287.6,618.9z"/>
				<path class="st1" d="M294.7,597.6c2-0.3,4.1,0.4,5.9,1.6c1.7,1.2,3.1,2.9,4,4.8c0.3,0.5,0.5,0.9,0.7,1.4l0.6,1.4
					c0.3,1,0.7,2,0.9,3c0.2,1,0.4,2,0.5,3c0.1,1,0.2,2,0.3,3.1l-1.4,0.1c-0.2-1-0.3-2-0.4-2.9c-0.1-1-0.4-1.9-0.6-2.9
					c-0.2-1-0.5-1.9-0.7-2.8l-0.5-1.4c-0.2-0.5-0.3-0.9-0.6-1.3c-0.8-1.8-1.9-3.4-3.3-4.7c-0.4-0.3-0.8-0.6-1.1-0.9
					c-0.4-0.2-0.8-0.5-1.3-0.7C296.6,597.9,295.7,597.6,294.7,597.6z"/>
				<path class="st1" d="M306.2,623.3c-0.2-3-0.2-6,0.1-9c0.4-3,0.9-6.1,2.6-8.8c0.8-1.3,2.2-2.6,3.9-2.9c1.7-0.3,3.4,0.1,4.7,1.1
					c1.3,1,2.2,2.4,2.8,3.8c0.5,1.4,0.8,2.9,0.9,4.4c-0.4-1.4-0.9-2.8-1.6-4.1c-0.7-1.3-1.6-2.4-2.7-3.1c-1.1-0.7-2.5-0.9-3.7-0.7
					c-1.2,0.3-2.2,1.2-2.9,2.3c-0.7,1.2-1.2,2.5-1.5,3.9c-0.4,1.4-0.6,2.8-0.8,4.3c-0.3,2.9-0.4,5.8-0.4,8.7L306.2,623.3z"/>
				<path class="st1" d="M313.7,622.7c-1.6,0.5-2.9,1.5-3.9,2.7c-0.9,1-1.6,2.2-2.2,3.4l0-1.4c0-1,0-1.9,0-2.9l0.1-10.4
					c0-3.2,0-6.4-0.1-9.6c-0.1-3.2-0.3-6.4-0.7-9.6c-0.4,3.2-0.6,6.4-0.7,9.6c-0.1,3.2-0.1,6.4-0.1,9.6l0,1.7
					c-0.6-1.4-1.4-2.8-2.8-3.8c-0.8-0.6-1.9-0.9-2.9-0.9c-0.5,0-1,0.1-1.4,0.1c-0.5,0.1-0.9,0.2-1.4,0.3c-1.8,0.7-3.3,2-4.2,3.6
					c-0.9,1.6-1.5,3.4-1.6,5.1c0.3-0.8,0.6-1.7,1-2.4c0.4-0.8,0.8-1.5,1.3-2.2c1-1.3,2.4-2.4,3.9-2.8c0.4-0.1,0.8-0.2,1.2-0.2
					c0.4,0,0.8-0.1,1.2,0c0.8,0,1.5,0.3,2.1,0.7c1.2,0.8,2,2.4,2.5,4c1,3.2,1.2,6.7,1.2,10.2l0.1,10.6h1.3l0.1-3.7
					c0.1-1.3,0.5-2.8,1.1-4.2c0.5-1.4,1.2-2.7,2-3.9c0.8-1.2,1.9-2.2,3.2-2.8c1.3-0.6,2.9-0.6,4.3-0.2
					C317,622.5,315.3,622.2,313.7,622.7z"/>
			</g>
			<g>
				<path class="st1" d="M308.1,596.6c0.1-1.8,0.4-3.7,0.9-5.5c0.5-1.8,1.2-3.6,2.3-5.2c1.1-1.6,2.5-3,4.4-3.7
					c0.9-0.3,1.9-0.5,3-0.5c1,0,2.1,0.3,3,0.9c1.8,1.2,2.8,2.9,3.6,4.6c0.8,1.8,1.3,3.6,1.7,5.4c0.8,3.7,1.1,7.4,1.1,11.1h-1.4
					c-0.1-3.6-0.5-7.3-1.2-10.8c-0.4-1.8-0.9-3.5-1.6-5.1c-0.7-1.6-1.6-3.1-3-4.1c-0.7-0.5-1.4-0.7-2.2-0.7c-0.8,0-1.7,0.1-2.5,0.4
					c-1.6,0.5-3,1.7-4,3.1C310.1,589.5,308.9,593.1,308.1,596.6z"/>
				<path class="st1" d="M315.1,575.4c2-0.3,4.1,0.4,5.9,1.6c1.7,1.2,3.1,2.9,4,4.8c0.3,0.5,0.5,0.9,0.7,1.4l0.6,1.4
					c0.3,1,0.7,2,0.9,3c0.2,1,0.4,2,0.5,3c0.1,1,0.2,2,0.3,3.1l-1.4,0.1c-0.2-1-0.3-2-0.4-2.9c-0.1-1-0.4-1.9-0.6-2.9
					c-0.2-1-0.5-1.9-0.7-2.8l-0.5-1.4c-0.2-0.5-0.3-0.9-0.6-1.3c-0.8-1.8-1.9-3.4-3.3-4.7c-0.4-0.3-0.8-0.6-1.1-0.9
					c-0.4-0.2-0.8-0.5-1.3-0.7C317.1,575.7,316.1,575.4,315.1,575.4z"/>
				<path class="st1" d="M326.7,601c-0.2-3-0.2-6,0.1-9c0.4-3,0.9-6.1,2.6-8.8c0.8-1.3,2.2-2.6,3.9-2.9c1.7-0.3,3.4,0.1,4.7,1.1
					c1.3,1,2.2,2.4,2.8,3.8c0.5,1.4,0.8,2.9,0.9,4.4c-0.4-1.4-0.9-2.8-1.6-4.1c-0.7-1.3-1.6-2.4-2.7-3.1c-1.1-0.7-2.5-0.9-3.7-0.7
					c-1.2,0.3-2.2,1.2-2.9,2.3c-0.7,1.2-1.2,2.5-1.5,3.9c-0.4,1.4-0.6,2.8-0.8,4.3c-0.3,2.9-0.4,5.8-0.4,8.7L326.7,601z"/>
				<path class="st1" d="M334.2,600.5c-1.6,0.5-2.9,1.5-3.9,2.7c-0.9,1-1.6,2.2-2.2,3.4l0-1.4c0-1,0-1.9,0-2.9l0.1-10.4
					c0-3.2,0-6.4-0.1-9.6c-0.1-3.2-0.3-6.4-0.7-9.6c-0.4,3.2-0.6,6.4-0.7,9.6c-0.1,3.2-0.1,6.4-0.1,9.6l0,1.7
					c-0.6-1.4-1.4-2.8-2.8-3.8c-0.8-0.6-1.9-0.9-2.9-0.9c-0.5,0-1,0.1-1.4,0.1c-0.5,0.1-0.9,0.2-1.4,0.3c-1.8,0.7-3.3,2-4.2,3.6
					c-0.9,1.6-1.5,3.4-1.6,5.1c0.3-0.8,0.6-1.7,1-2.4c0.4-0.8,0.8-1.5,1.3-2.2c1-1.3,2.4-2.4,3.9-2.8c0.4-0.1,0.8-0.2,1.2-0.2
					c0.4,0,0.8-0.1,1.2,0c0.8,0,1.5,0.3,2.1,0.7c1.2,0.8,2,2.4,2.5,4c1,3.2,1.2,6.7,1.2,10.2l0.1,10.6h1.3l0.1-3.7
					c0.1-1.3,0.5-2.8,1.1-4.2c0.5-1.4,1.2-2.7,2-3.9c0.8-1.2,1.9-2.2,3.2-2.8c1.3-0.6,2.9-0.6,4.3-0.2
					C337.4,600.3,335.7,600,334.2,600.5z"/>
			</g>
		</g>
	</g>
	<path class="st0" d="M597.1,737.3c-2.4-2.5-18.2-17.5-38-10.3c-24.4,8.9-36.4,63.4-64.5,63.4c-38.8,0-29.2-46.7-92.9-40.2
		c-41.3,4.2-57.2-40.1-61-61.1c-33.5-8.8-72.4-17.2-152.4-12.5c-118.1,7-109.5-71.9-149.6-80.8c-1.2,16.5,6.9,27,16.9,37.2
		c16.8,17.1,16,52.1,16.9,64.3c0.9,12.2,4.2,50.3,53.1,50.3s55.1,37.2,57.9,63.1c2.8,25.9,13.7,78.5,89.3,55.1
		c70.5-21.8,62.5,96.9,108.4,109c55.7,14.7,56.9-120.4,102.9-107c19.7,5.8,30.2,3.2,41.8-27.2c12.5-32.8,25.8-37.5,42.6-38.8
		C597.6,799.6,600.1,772.5,597.1,737.3z"/>
	<g>
		<g>
			<g>
				<g>
					<path class="st5" d="M229,574.5c-0.4-7.8,3.7-10.4,6.1-11.3c-1.6-1.5-3.4-3.4-5.2-6c-6.6-9.4-15.4-3.4-15.4-3.4
						c-18.2,3.5-15.6,18.8-15.6,18.8s16.7,28,29.5,24C223.3,590,229.5,584.8,229,574.5z"/>
					<path class="st0" d="M243.9,575.8c0-7.2-3.7-7.9-8.8-12.6c-2.4,0.9-6.5,3.5-6.1,11.3c0.5,10.2-5.8,15.4-0.7,22.2
						c0.2-0.1,0.3-0.1,0.5-0.1C241.2,591.8,243.9,583,243.9,575.8z"/>
				</g>
				<path class="st1" d="M196.3,578.9c-1,5.2,0.1,13.9,12.5,17.4c16.3,4.6,22.6,0.1,25.4-5s4.2-12.7,0-16.4
					c-4.2-3.6-5.7-6.2-7.4-9.8c-2.7-5.7-11.7-9.8-20.6-4.2C198.9,565.4,197.2,574.6,196.3,578.9z"/>
			</g>
			<path class="st3" d="M212,597.2c0,0-4.2-11.5,0.9-21.7"/>
		</g>
		<g>
			<g>
				<g>
					<path class="st5" d="M196.1,599.6c-0.4-7.8,3.7-10.4,6.1-11.3c-1.6-1.5-3.4-3.4-5.2-6c-6.6-9.4-15.4-3.4-15.4-3.4
						c-18.2,3.5-15.6,18.8-15.6,18.8s16.7,28,29.5,24C190.3,615.1,196.6,609.9,196.1,599.6z"/>
					<path class="st0" d="M211,601c0-7.2-3.7-7.9-8.8-12.6c-2.4,0.9-6.5,3.5-6.1,11.3c0.5,10.2-5.8,15.4-0.7,22.2
						c0.2-0.1,0.3-0.1,0.5-0.1C208.3,616.9,211,608.1,211,601z"/>
				</g>
				<path class="st1" d="M163.4,604c-1,5.2,0.1,13.9,12.5,17.4c16.3,4.6,22.6,0.1,25.4-5c2.8-5.2,4.2-12.7,0-16.4
					c-4.2-3.6-5.7-6.2-7.4-9.8c-2.7-5.7-11.7-9.8-20.6-4.2C165.9,590.5,164.2,599.8,163.4,604z"/>
			</g>
			<path class="st3" d="M179,622.3c0,0-4.2-11.5,0.9-21.7"/>
		</g>
		<g>
			<g>
				<g>
					<path class="st5" d="M278.6,598.3c-0.4-7.8,3.7-10.4,6.1-11.3c-1.6-1.5-3.4-3.4-5.2-6c-6.6-9.4-15.4-3.4-15.4-3.4
						c-18.2,3.5-15.6,18.8-15.6,18.8s16.7,28,29.5,24C272.8,613.8,279.1,608.6,278.6,598.3z"/>
					<path class="st0" d="M293.5,599.6c0-7.2-3.7-7.9-8.8-12.6c-2.4,0.9-6.5,3.5-6.1,11.3c0.5,10.2-5.8,15.4-0.7,22.2
						c0.2-0.1,0.3-0.1,0.5-0.1C290.8,615.6,293.5,606.8,293.5,599.6z"/>
				</g>
				<path class="st1" d="M245.9,602.7c-1,5.2,0.1,13.9,12.5,17.4c16.3,4.6,22.6,0.1,25.4-5c2.8-5.2,4.2-12.7,0-16.4
					c-4.2-3.6-5.7-6.2-7.4-9.8c-2.7-5.7-11.7-9.8-20.6-4.2C248.4,589.2,246.7,598.4,245.9,602.7z"/>
			</g>
			<path class="st3" d="M261.5,621c0,0-4.2-11.5,0.9-21.7"/>
		</g>
		<g>
			<g>
				<g>
					<path class="st5" d="M251.1,624.2c-0.4-7.8,3.7-10.4,6.1-11.3c-1.6-1.5-3.4-3.4-5.2-6c-6.6-9.4-15.4-3.4-15.4-3.4
						c-18.2,3.5-15.6,18.8-15.6,18.8s16.7,28,29.5,24C245.3,639.7,251.6,634.5,251.1,624.2z"/>
					<path class="st0" d="M266,625.6c0-7.2-3.7-7.9-8.8-12.6c-2.4,0.9-6.5,3.5-6.1,11.3c0.5,10.2-5.8,15.4-0.7,22.2
						c0.2-0.1,0.3-0.1,0.5-0.1C263.3,641.5,266,632.7,266,625.6z"/>
				</g>
				<path class="st1" d="M218.4,628.6c-1,5.2,0.1,13.9,12.5,17.4c16.3,4.6,22.6,0.1,25.4-5c2.8-5.2,4.2-12.7,0-16.4
					c-4.2-3.6-5.7-6.2-7.4-9.8c-2.7-5.7-11.7-9.8-20.6-4.2C220.9,615.1,219.2,624.4,218.4,628.6z"/>
			</g>
			<path class="st3" d="M234,646.9c0,0-4.2-11.5,0.9-21.7"/>
		</g>
		<g>
			<g>
				<g>
					<path class="st5" d="M222.2,646.9c-0.4-7.8,3.7-10.4,6.1-11.3c-1.6-1.5-3.4-3.4-5.2-6c-6.6-9.4-15.4-3.4-15.4-3.4
						C189.4,629.8,192,645,192,645s16.7,28,29.5,24C216.4,662.4,222.7,657.2,222.2,646.9z"/>
					<path class="st0" d="M237.1,648.2c0-7.2-3.7-7.9-8.8-12.6c-2.4,0.9-6.5,3.5-6.1,11.3c0.5,10.2-5.8,15.4-0.7,22.2
						c0.2-0.1,0.3-0.1,0.5-0.1C234.4,664.2,237.1,655.4,237.1,648.2z"/>
				</g>
				<path class="st1" d="M189.5,651.3c-1,5.2,0.1,13.9,12.5,17.4c16.3,4.6,22.6,0.1,25.4-5s4.2-12.7,0-16.4
					c-4.2-3.6-5.7-6.2-7.4-9.8c-2.7-5.7-11.7-9.8-20.6-4.2C192,637.8,190.3,647,189.5,651.3z"/>
			</g>
			<path class="st3" d="M205.1,669.6c0,0-4.2-11.5,0.9-21.7"/>
		</g>
		<g>
			<g>
				<g>
					<path class="st5" d="M166.9,627.7c-0.4-7.8,3.7-10.4,6.1-11.3c-1.6-1.5-3.4-3.4-5.2-6c-6.6-9.4-15.4-3.4-15.4-3.4
						c-18.2,3.5-15.6,18.8-15.6,18.8s16.7,28,29.5,24C161.1,643.1,167.4,637.9,166.9,627.7z"/>
					<path class="st0" d="M181.8,629c0-7.2-3.7-7.9-8.8-12.6c-2.4,0.9-6.5,3.5-6.1,11.3c0.5,10.2-5.8,15.4-0.7,22.2
						c0.2-0.1,0.3-0.1,0.5-0.1C179.1,645,181.8,636.1,181.8,629z"/>
				</g>
				<path class="st1" d="M134.2,632.1c-1,5.2,0.1,13.9,12.5,17.4c16.3,4.6,22.6,0.1,25.4-5c2.8-5.2,4.2-12.7,0-16.4
					c-4.2-3.6-5.7-6.2-7.4-9.8c-2.7-5.7-11.7-9.8-20.6-4.2C136.7,618.6,135,627.8,134.2,632.1z"/>
			</g>
			<path class="st3" d="M149.8,650.4c0,0-4.2-11.5,0.9-21.7"/>
		</g>
	</g>
	<g>
		<g>
			<g>
				<path class="st8" d="M412.6,128.9c0,0,4.9-4.8,10.7,1.7C429.2,137.1,408,143.2,412.6,128.9z"/>
				<path class="st3" d="M412.6,128.9c0,0,4.9-4.8,10.7,1.7C429.2,137.1,408,143.2,412.6,128.9z"/>
			</g>
			<path class="st5" d="M419.5,131.9c0,0,5.9-4.3,7.9,2.9c2,7.3-0.3,15.2,2.6,25.6s-7.9,21-15.1,19
				C407.8,177.4,419.5,131.9,419.5,131.9z"/>
			<g>
				<path class="st9" d="M409.1,180.7c6.2,0,14.3-4.4,14.3-16.3c0-11.9-2.6-18.9-1.5-23.3c1.1-4.3-1.1-13.8-12.8-12
					c-11.7,1.8-11.8,15-11.8,27.9C397.3,169.9,397,180.7,409.1,180.7z"/>
				<path class="st3" d="M409.1,180.7c6.2,0,14.3-4.4,14.3-16.3c0-11.9-2.6-18.9-1.5-23.3c1.1-4.3-1.1-13.8-12.8-12
					c-11.7,1.8-11.8,15-11.8,27.9C397.3,169.9,397,180.7,409.1,180.7z"/>
			</g>
		</g>
	</g>
	<g>
		<g>
			<g>
				<path class="st9" d="M456,108.1c0,0,4.9-4.8,10.7,1.7C472.5,116.4,451.3,122.5,456,108.1z"/>
				<path class="st3" d="M456,108.1c0,0,4.9-4.8,10.7,1.7C472.5,116.4,451.3,122.5,456,108.1z"/>
			</g>
			<path class="st5" d="M462.9,111.2c0,0,5.9-4.3,7.9,2.9c2,7.3-0.3,15.2,2.6,25.6s-7.9,21-15.1,19S462.9,111.2,462.9,111.2z"/>
			<g>
				<path class="st9" d="M452.4,160c6.2,0,14.3-4.4,14.3-16.3s-2.6-18.9-1.5-23.3c1.1-4.3-1.1-13.8-12.8-12s-11.8,15-11.8,27.9
					S440.3,160,452.4,160z"/>
				<path class="st3" d="M452.4,160c6.2,0,14.3-4.4,14.3-16.3s-2.6-18.9-1.5-23.3c1.1-4.3-1.1-13.8-12.8-12s-11.8,15-11.8,27.9
					S440.3,160,452.4,160z"/>
			</g>
		</g>
	</g>
	<g>
		<g>
			<g>
				<path class="st8" d="M436.9,163.5c0,0,4.9-4.8,10.7,1.7C453.4,171.7,432.3,177.8,436.9,163.5z"/>
				<path class="st3" d="M436.9,163.5c0,0,4.9-4.8,10.7,1.7C453.4,171.7,432.3,177.8,436.9,163.5z"/>
			</g>
			<path class="st5" d="M443.8,166.5c0,0,5.9-4.3,7.9,2.9c2,7.3-0.3,15.2,2.6,25.6c2.9,10.4-7.9,21-15.1,19S443.8,166.5,443.8,166.5
				z"/>
			<g>
				<path class="st9" d="M433.4,215.3c6.2,0,14.3-4.4,14.3-16.3s-2.6-18.9-1.5-23.3c1.1-4.3-1.1-13.8-12.8-12
					c-11.7,1.8-11.8,15-11.8,27.9C421.6,204.5,421.2,215.3,433.4,215.3z"/>
				<path class="st3" d="M433.4,215.3c6.2,0,14.3-4.4,14.3-16.3s-2.6-18.9-1.5-23.3c1.1-4.3-1.1-13.8-12.8-12
					c-11.7,1.8-11.8,15-11.8,27.9C421.6,204.5,421.2,215.3,433.4,215.3z"/>
			</g>
		</g>
	</g>
	<g>
		<g>
			<g>
				<path class="st8" d="M371.7,152.2c0,0,4.9-4.8,10.7,1.7S367.1,166.6,371.7,152.2z"/>
				<path class="st3" d="M371.7,152.2c0,0,4.9-4.8,10.7,1.7S367.1,166.6,371.7,152.2z"/>
			</g>
			<path class="st5" d="M378.7,155.2c0,0,5.9-4.3,7.9,2.9c2,7.3-0.3,15.2,2.6,25.6s-7.9,21-15.1,19S378.7,155.2,378.7,155.2z"/>
			<g>
				<path class="st9" d="M368.2,204.1c6.2,0,14.3-4.4,14.3-16.3c0-11.9-2.6-18.9-1.5-23.3s-1.1-13.8-12.8-12s-11.8,15-11.8,27.9
					C356.5,193.2,356.1,204.1,368.2,204.1z"/>
				<path class="st3" d="M368.2,204.1c6.2,0,14.3-4.4,14.3-16.3c0-11.9-2.6-18.9-1.5-23.3s-1.1-13.8-12.8-12s-11.8,15-11.8,27.9
					C356.5,193.2,356.1,204.1,368.2,204.1z"/>
			</g>
		</g>
	</g>
	<g>
		<g>
			<g>
				<path class="st8" d="M394.7,177.5c0,0,4.9-4.8,10.7,1.7C411.2,185.8,390.1,191.9,394.7,177.5z"/>
				<path class="st3" d="M394.7,177.5c0,0,4.9-4.8,10.7,1.7C411.2,185.8,390.1,191.9,394.7,177.5z"/>
			</g>
			<path class="st5" d="M401.6,180.6c0,0,5.9-4.3,7.9,2.9s-0.3,15.2,2.6,25.6s-7.9,21-15.1,19C389.8,226.1,401.6,180.6,401.6,180.6z
				"/>
			<g>
				<path class="st9" d="M391.1,229.4c6.2,0,14.3-4.4,14.3-16.3c0-11.9-2.6-18.9-1.5-23.3c1.1-4.3-1.1-13.8-12.8-12
					c-11.7,1.8-11.8,15-11.8,27.9C379.4,218.6,379,229.4,391.1,229.4z"/>
				<path class="st3" d="M391.1,229.4c6.2,0,14.3-4.4,14.3-16.3c0-11.9-2.6-18.9-1.5-23.3c1.1-4.3-1.1-13.8-12.8-12
					c-11.7,1.8-11.8,15-11.8,27.9C379.4,218.6,379,229.4,391.1,229.4z"/>
			</g>
		</g>
	</g>
	<path class="st0" d="M109.2,502.5l-13.5,9.6l-3.7,2.3c0,0,19.1,22.1,14.4,67.3c0,0,3.9,1.2,9.1,1.3c4.6,0.1,10.3-0.7,15.3-3.9
		c3.8-2.5,6-6.9,6.1-11.5C137.3,538.1,122.5,516.8,109.2,502.5z"/>
	<path class="st2" d="M13.9,559.8c-0.9,8.9-5.8,45.8,31.9,16.2c41-32.2,76.2-68.4,149.8-89.4c0,0,16.5-2.9,0-17.7
		c-16.6-14.9-81.1-52.6-120.4-45.3C42.2,429.9,16.5,534.1,13.9,559.8z"/>
	<path class="st0" d="M654.5,417c2.7,1.1,0.4-10.1,10.2-11c2.4-0.2-0.1,3.6,0.7,4.1c1.7,0.9,1.2-4.2,9.5-3.8c-3.1,8.1-7.2,5.5-7,7.1
		c0.1,1.6,5.2,0.2,3.5,3c-3.9,6.7-12.6,3.2-13.2,5.2c-0.5,2,5.9,0.5,4.8,4.1c-1.6,5.2-20.7,9.6-20.5,11.5c0.2,2.4,12.5-4,8.9,3.9
		c-4.2,9.3-18.8,6.8-18.8,9.2c0,3.5,16.5-5.9,11.5,3.9c-5.5,10.7-29.9,12.9-29.3,15.5c0.9,3.7,16.2-7.1,15.6,1.7
		c-0.9,12.6-31.1,18.2-29.6,22c1,2.6,24.7-15.2,24.9-3.1c0.3,12.1-34.4,14.5-34.4,17.4c0.1,4.3,32.9-12.7,28.4,0.5
		c-5.4,16.2-35.8,11.3-35.8,14.6c0,3.4,30.3-5.5,25.7,5.8c-6.4,16-35.2,5.2-35.4,8.9c-0.2,3.6,24.6,0.3,22.9,12.1
		c-1.8,12-24.8-2-26.4,0.8c-1.5,2.7,11.9,4.2,10,11.1c-2,7.2-15.9,3.3-20.4,0.7c-11.5-6.7-25.2-24.3-19.5-34.4
		c4.9-8.9,11.3,10.8,13.6,8.6s-17.5-18.5-3.8-25.5c6.3-3.2,7.8,18.4,10.3,17c2.5-1.4-7-24.6-0.6-29.4c8.1-6.2,9.3,16,11.7,14.7
		c2.1-1.1-9-25.5,1.9-37.2c8.4-8.9,7.6,25.6,10.2,25c3.5-0.8-9.2-34.9,7.1-33.4c7.3,0.7,0,20.1,2.3,20.6c4.7,1-2.9-29.2,11.8-34.8
		c6.9-2.6,1.7,12.3,4.1,12.9c2.6,0.6-1.1-24.5,17.2-29.7c3.1-0.9-0.8,9.7,1.1,10.3c2.6,0.7-2.3-16.6,9.5-21.5c4-1.7-0.6,7.1,1.4,7.4
		c2.5,0.4,0.3-15.3,13.1-20.3C655.5,410.7,653.2,416.5,654.5,417z"/>
	<path class="st3" d="M524.5,189.7c0,0-9.8-50.9-50.2-50.9c-39.1,0-84,50.1-81.1,225.2"/>
	<path class="st0" d="M399.3,310.6c0,0-7.3-8.3-11-3.7c-1.1-2.3-2.6-4-4.3-2.9c0,0,1.3,3.7,2,8.8c0.3,2,0.7,4,1.9,4
		c1.4,0.1,1.3-2.2,2.4-2.1c0.8,0,2.2,3.7,2.2,7.8c0.1,5.4-5.8,16.8,1.4,19c7.5-3,1.5-13.1,1.7-18.8
		C395.7,316.5,399.3,310.6,399.3,310.6z"/>
	<path class="st3" d="M295.8,365.4c-0.6-3.1-8.8-130.9,56.8-118.2"/>
	<path class="st2" d="M575.7,471.2c0.9-4.5,7.4,11.6,9.7-4.1c3-20.3-15.7-25.9-12.9-29.8c1.8-2.5,11.5,10.3,13.9,4.2
		c10.6-26.5-21.1-34.8-20.7-39.4c0.7-8.4,27.7,19.2,27.7-8.8c0-36.5-56.5-47.2-52.9-53.2c2.6-4.4,34,13.1,32.9-11.1
		s-53.5-25.6-53.3-31.6c0.3-7.9,42.2,8.2,39.7-11.3c-2.5-19.1-24.2-22.5-47.8-20.1c-15.3,1.5-35,4.8-35.5,2.4
		c-1.5-7.2,34.3-2.4,27.6-18.9c-5.9-14.5-28.2-7.7-37.3-4.7c-9.9,3.3-20.6,6.7-21.5,5c-4-7.5,48.9-12.9,30.2-27.2
		c-17.5-13.4-43.4,7.8-50,11.3c-6.6,3.5-14.6,10.7-17.4,8.4c-6-5.2,53.3-27.7,33.6-34.1c-23-7.6-41.7,10.2-46.5,15.5
		c-4.9,5.4-12.1,13.1-14,11c-3.6-4.2,19.3-16.6,9.9-25c-9.7-8.7-21.6,3.6-26.1,15.5c-2.9,7.7-4.1,10.6-5.6,10.2
		c-5.7-1.5,8.3-20.4-4-20.5c-15.8-0.2-4.6,22.9-6.8,24.1c-3.3,1.7-5.4-13.8-16.3-8.6c-5.1,2.4-7,8.7-0.5,12
		c6.7,3.4,6.9,5.9,0.1,10.3c-2,1.3-10.2,5-5.5,10.3c4.6,5.3,12.7,0.7,17.9-5.8c5.3-6.6,6.3-3.3,4.6-1.3c-1.3,1.6-21.6,22-5.1,30.4
		c14.5,7.3,8.3-32.7,15.4-30.5c3.8,1.2-11.8,53.4,11.5,50.2c16.3-2.2,3.1-24,6.9-47.1c0.7-3.9,3.1-2.7,2.9,3
		c-0.2,5.7-3.2,51,13.2,51.7c16.4,0.7,1.1-52.3,6.8-51.6c1.7,0.2,2.6,3.7,3.2,11.8c0.6,8.1,2.9,65.8,22.1,64.6
		c19.1-1.2-2.6-61,4.5-62c3.2-0.5,3,14.4,4.8,27.8c1.8,13,3.4,56.8,19.1,55.5c19.7-1.7,2.9-61.4,12.2-59.6
		c4.3,0.8,3.1,20.7,2.7,33.9c-0.4,16-0.5,45,14.4,46.3c16.8,1.4,6.9-58.1,12.3-58.5c4.5-0.3,2.2,18.8,1.9,25.1
		c-0.2,6.3-5.5,45.1,11.4,54.3c15.3,8.3,6.2-47.4,13.1-45.5c3.3,0.9,1,16.2,1,20.1c0.2,14.9-3.8,40.5,8.6,50
		c11.7,9,10.2-22.5,14.1-21.1c2.2,0.8-8,29.8,0.2,42.8c8.6,13.5,9.6-7.7,12.9-6.3c2.3,1,0.5,5.7-1.7,11.1
		c-2.1,5.3-5.9,14.7-0.6,25.1c3.6,7,6.4-5.8,8.8-4.3c1.6,1-10.3,13.6-3,28.1c1.5,3,4.1-5.3,5.3-3.5c0.8,1.3-5.7,13.8-2.9,17.7
		c1.9,2.6,3.6-3,5.1-1.4c1.1,1.1-3.4,5.3,3.2,10.7c6-5.3,1.4-9.4,2.3-10.7c1.2-1.8,2.9,3.5,4.3,0.7c2.8-5.7-6.4-17.1-4.3-17.7
		c1.4-0.4,3.2,6.4,4.9,3.2C589.7,483.9,575.2,473.6,575.7,471.2z"/>
	<g>
		<path class="st4" d="M552,580.4c0,0-5.6-29.4,8.3-40.4c11.2-8.8,15.3-2.9,28-9.1c12.6-6.1,19.5-8.3,26.7-0.7
			c7.2,7.6-2.7,18.2-2,29.1c0.7,10.8,3.2,16.4-1.1,23.7c-4.3,7.2-10.1,6.1-9.2,14.8C603.7,606.4,562.3,620.9,552,580.4z"/>
		<path class="st3" d="M602.6,543.8c0,0-33,30.3-40.4,48.2"/>
		<path class="st3" d="M586.3,540c0,0,2.9,6.8,0.8,19c0,0,10.4-6.8,21.9-6.8"/>
		<path class="st3" d="M606.4,567.9c0,0-19.9-0.4-31.3,4.7c0,0,2.3-13.9-2.1-21.9"/>
		<path class="st3" d="M606.4,580.4c0,0-21.6-3.7-39.3,2.7c0,0,1.9-7.2-3.8-18.8"/>
	</g>
	<g>
		<path class="st0" d="M461.4,548.2c2.9-2.2,19-13,34-5.7c15,7.3,20.6,2.8,35.5,1.6c14.9-1.3,18.8,7.2,28.4,7.2
			c9.7,0,19.5-2.8,21.8,3.1c4.1,10.3-16.6,16.1-21.8,23.5c-5.8,8.3-4.8,19.9-15.9,25.1c-12.7,5.9-21-4.6-41.7,0
			c-20.7,4.6-30.7,12.4-45.7,0C441,590.6,442.3,562.6,461.4,548.2z"/>
		<path class="st3" d="M459.1,600.3c0,0,47.8-49,122.5-43.8"/>
		<path class="st3" d="M485.7,549.9c0,0,4.7,14.6-7.7,35.3c0,0,25.7-3.5,50.4,12.5"/>
		<path class="st3" d="M513.7,551.3c0,0,0.1,10.8-10.5,19.7c0,0,21.5-3.2,36.1,8.1"/>
		<path class="st3" d="M539.3,549.9c0,0-1.8,7.4-8.5,11.3c0,0,12.7-2.3,22.7,5.2"/>
	</g>
	<path class="st1" d="M469.4,595.7c6.5-2.4,35.7-7.2,53.7,12.3c2.7,3,5.4,7.9,13.3,10.4c6.4,2,5.9,8.3-2.9,9.4s-55.2,8.2-71.7-11.5
		C455.3,608.3,461.2,598.8,469.4,595.7z"/>
	<g>
		<path class="st3" d="M141,418.9c45.7-30.8,44.3-81.6,38-143.5c-11.3-109.9,50.9-133.6,75.8-132.7"/>
		<path class="st2" d="M228.4,146.5c0,0-11-5.4-3.7-23.5C224.7,123.1,236.9,137.7,228.4,146.5z"/>
		<path class="st2" d="M246.4,161.1c0,0-14.5,0.8-16.4-11.5C230.1,149.7,240.3,148.5,246.4,161.1z"/>
		<path class="st2" d="M205.6,129.2c0,0-2.7,21,11.3,24C217,153.2,220.6,141,205.6,129.2z"/>
		<path class="st2" d="M218.9,155.9c0,0,9.7-1.9,15.9,12.8C234.7,168.7,218.4,167.2,218.9,155.9z"/>
		<path class="st2" d="M175.7,153.2c0,0,6.7,22.8,19.5,21.6C195.2,174.8,195.1,159.7,175.7,153.2z"/>
		<path class="st2" d="M222,183.8c0,0-18.4,4.1-23.8-6.9C198.2,176.9,209.3,172.1,222,183.8z"/>
		<path class="st2" d="M205.8,162.2c0,0-12.6,0.1-15.1-23.4C190.7,138.8,209,148.7,205.8,162.2z"/>
		<path class="st2" d="M227.4,175.9c0,0-17.9,1.1-19.2-10.8C208.2,165.1,219.2,162.7,227.4,175.9z"/>
		<path class="st2" d="M243.7,146.1c0,0,9.1-2,12.9,8.9C256.6,155.1,246.1,155.5,243.7,146.1z"/>
		<path class="st2" d="M241.8,141.7c-3.2-2.3-5.3-9.8,0.6-17C242.4,124.7,249.6,136.2,241.8,141.7z"/>
		<path class="st2" d="M164.9,168.7c0,0,4.6,23.7,22.4,20.8C187.3,189.4,183.4,172.8,164.9,168.7z"/>
		<path class="st2" d="M190.3,191c0,0,8.2-8.8,28.3,4.9C218.6,195.9,199.6,202.7,190.3,191z"/>
		<path class="st2" d="M182,203.6c0,0-5.5-14.3-27.9-14.7C154.2,188.9,163.3,210.3,182,203.6z"/>
		<path class="st2" d="M185.5,204.6c0,0,11.1-7.6,30.3,6.6C215.8,211.3,195.2,218.5,185.5,204.6z"/>
	</g>
	<g>
		<path class="st3" d="M95.2,186.2c11.4-3.6,42.9-0.6,51.6,51.3c4.9,29.2,10.7,52.8,35.6,61.1"/>
		<path class="st1" d="M107.9,184.6c0,0,4.4-3.9-1.3-11.3C106.6,173.4,102.8,181.6,107.9,184.6z"/>
		<path class="st1" d="M101.4,193.9c0,0,6.7-1.5,6.1-7.3C107.4,186.5,102.6,187.3,101.4,193.9z"/>
		<path class="st1" d="M115.8,173.8c0,0,3.9,9.3-2.2,12.5C113.7,186.3,110.5,181.2,115.8,173.8z"/>
		<path class="st1" d="M113.6,187.9c0,0-4.7,0.4-5.7,7.9C107.9,195.8,115.2,193,113.6,187.9z"/>
		<path class="st1" d="M132.4,181.1c0,0-0.2,11.3-6.2,12.4C126.2,193.5,124.3,186.6,132.4,181.1z"/>
		<path class="st1" d="M115.5,200.9c0,0,9-0.5,10.1-6.2C125.6,194.7,119.9,193.9,115.5,200.9z"/>
		<path class="st1" d="M120.2,189c0,0,5.8-1.5,4-12.7C124.2,176.3,117,183.1,120.2,189z"/>
		<path class="st1" d="M112,198c0,0,8.4-1.8,7.5-7.4C119.5,190.6,114.1,190.9,112,198z"/>
		<path class="st1" d="M100.9,186.3c0,0-4.7,0.2-5.1,6.1C95.8,192.3,101,191.1,100.9,186.3z"/>
		<path class="st1" d="M101.2,184.4c1.3-1.6,1.3-5.5-2.5-8.2C98.6,176.2,96.6,182.8,101.2,184.4z"/>
		<path class="st1" d="M139.6,186.6c0,0,0.9,11.5-7.6,12.4C132,199,131.6,190.8,139.6,186.6z"/>
		<path class="st1" d="M131,200.2c0,0-4.9-3-12.4,5.9C118.6,206,128.2,206.8,131,200.2z"/>
		<path class="st1" d="M136.4,204.9c0,0,0.7-7.3,10.9-10.3C147.3,194.7,145.8,205.6,136.4,204.9z"/>
		<path class="st1" d="M135.3,205.7c0,0-6.1-2.1-13.1,6.9C122.2,212.6,132.6,213.4,135.3,205.7z"/>
		<path class="st1" d="M151.8,202.1c0,0-1.3,12.4-10.7,11.7C141.1,213.8,142.3,205.1,151.8,202.1z"/>
		<path class="st1" d="M139.5,214.4c0,0-4.7-3.6-14,4.2C125.4,218.6,135.5,220.6,139.5,214.4z"/>
		<path class="st1" d="M144,221.9c0,0,2.2-7.4,13.4-8.6C157.4,213.3,153.7,224.5,144,221.9z"/>
		<path class="st1" d="M142.5,222.5c0,0-5.2-3.7-14.5,2.9C128,225.4,137.7,229,142.5,222.5z"/>
	</g>
	<line class="st3" x1="84.3" y1="246.3" x2="84.3" y2="244.6"/>
	<g>
		<path class="st1" d="M231.7,285.9c5.5-8.1,26.3-13.9,53.4,17.6s41.9,113,41.9,113l-33.1-3.7C293.6,361.3,214.4,311.4,231.7,285.9z
			"/>
		<path class="st3" d="M233.2,284c0,0,51.5,23.7,75.1,130.4"/>
		<path class="st5" d="M344.5,278.9c12.1-3.2,30.5,11,30.5,72.4c0,63.6-17.7,105.1-17.7,105.1L338.8,441c0,0,9.2-48.9,0-79.1
			C331,336.2,312.7,287.3,344.5,278.9z"/>
		<path class="st1" d="M285.1,240.9c6.6-3.4,37.5-6.8,54.1,74.9c16.3,80,6.8,131.3,6.8,131.3l-18.3-28.6
			C307.8,317.2,251.8,258,285.1,240.9z"/>
		<path class="st1" d="M430.4,342c11.2,10,0.7,28-13.5,45.4c-20.4,24.9-39.3,70.9-38.8,79l-25.5-9.5
			C376.2,353.6,414.7,328.1,430.4,342z"/>
		<path class="st3" d="M344.5,278.9c0,0,28.5,87.7,4,170.2"/>
		<path class="st3" d="M285.1,240.9c0,0,52.6,55.4,52.1,181.8"/>
		<path class="st3" d="M430.4,342c0,0-42.3,29.9-68.8,118"/>
		<path class="st0" d="M272.9,289c6.4-4.7,20.3-8.8,35.6,13.4c17,24.7,38,72.5,37,148.3l-17.9-5.9
			C327.6,444.8,235.5,316.2,272.9,289z"/>
		<path class="st3" d="M272.9,289c24.3,19.8,56.9,85.8,63.5,158.7"/>
		<path class="st2" d="M449.5,403.6c4.8,9.6,1.9,18.4-17,28.2c-22,11.3-59.8,46.7-62.1,58.7L366,489c0,0,0.1-40,38.3-78.2
			C423.2,392,442.8,390.3,449.5,403.6z"/>
		<path class="st3" d="M449.5,403.6c0,0-52.6,10.8-81.6,85.4"/>
	</g>
	<g>
		<path class="st0" d="M74.7,321.1c0,0,20.6,62.2,68,66.4C142.8,387.5,130.4,336.8,74.7,321.1z"/>
		<path class="st4" d="M111.1,228.9c0,0-22.3,133.9,44.6,161.6C155.7,390.5,184.7,327.7,111.1,228.9z"/>
		<path class="st1" d="M159.3,245.1c0,0,47.5,72.4,2.2,126.2C161.5,371.3,126.4,340.9,159.3,245.1z"/>
		<path class="st2" d="M252.6,285c0,0-52.3,19.8-58.9,77.2C193.7,362.2,240.1,359.2,252.6,285z"/>
		<path class="st0" d="M231.5,245.5c0,0-77.6,58.8-60.7,131.3C170.8,376.8,236.1,335.6,231.5,245.5z"/>
		<line class="st3" x1="111.1" y1="228.9" x2="155.7" y2="390.5"/>
		<line class="st3" x1="74.7" y1="321.1" x2="142.8" y2="387.5"/>
		<line class="st3" x1="159.3" y1="245.1" x2="161.5" y2="371.3"/>
		<line class="st3" x1="231.5" y1="245.5" x2="170.8" y2="376.8"/>
		<line class="st3" x1="252.6" y1="285" x2="193.7" y2="362.2"/>
	</g>
	<g>
		<path class="st1" d="M334.3,549.4c0.5,4.9,7.4,15.5,9.5,26.1c2.8,14.1,17.2,6.7,23.5,11.5c5.2,4,5.4,18.7,8.1,23.6
			s9.5,10.5,30.9,3.7c21.5-6.9,49.6,0.2,49.6,0.2s-2.9-12,8.1-34.5c8.5-17.4,13.9-28.3,9.2-38.7s-17.5-6.1-17.8-21.8
			c-0.3-17.8-14.3-31.6-44.9-27.6c-27,3.5-18.2-13.8-35.3-13.9c-22.6-0.2-28.5,16.4-26.2,31.7C351.4,524.7,331.9,524.2,334.3,549.4z
			"/>
		<path class="st3" d="M356.2,518.9c0,0,62.2,22.1,98,87.7"/>
		<path class="st3" d="M366.1,572c0,0,17-26.8,53.7-10.9c-11.7-36.2,8.8-59.5,8.8-59.5"/>
		<path class="st3" d="M381.8,590.8c0.7,0.4,16.4-26.2,58.2-6.5c-1.3-28.7,15.2-44.2,15.2-44.2"/>
		<path class="st3" d="M353.5,551.7c0,0,8.4-18.3,38.2-13.7c-13.5-23.3-6.7-42.6-6.7-42.6"/>
	</g>
	<g>
		<path class="st5" d="M106.7,519c16.1,25.6,36.7,11.3,54.1,15.6c20.3,5,18.9,33.7,41.1,39.1s31.3-7.1,47.2-1.3
			c15.8,5.7,11.6,25.7,28.6,30.4c13.9,3.8,18.7-15.3,37.4-14.6c26.9,1,36.5,35.7,36.9,53.3h3c0,0-1-36.4-18.3-55.2
			c-4.8-5.2-3.4-12.9,3.7-14.8c5.3-1.5,17.9-2.7,18.9-14c0.7-7.8-8.4-12.9-6-21.1c2.9-9.8,13.7-6.9,16.5-19.1
			c2.9-12.3-5-19.9-4.2-31.4s8.6-21.6,2.5-33.3c-6.9-13.3-18.7-7.1-26.2-12.3c-19.7-13.5,1.2-65.8-63.8-74.2
			c-37.5-4.8-37.5-15.2-63.1-17.6c-28-2.6-58.2,5.9-70.8,35.9c-12.6,30,9.9,51.3-9.9,59C100.4,456.5,94.6,499.7,106.7,519z"/>
		<g>
			<path class="st3" d="M320.9,579.1c0,0-45.4-96.9-133.8-138.5"/>
			<path class="st3" d="M262.7,569.1c0,0,23.4-13.5,47-10.3c0,0,4-34.1,30.5-48.9"/>
			<path class="st3" d="M325.2,462.1c0,0-33.4,18.5-39.4,61.7c0,0-37.6-13.4-65.9,15.7"/>
		</g>
	</g>
	<g>
		<path class="st5" d="M410.7,602.3c-9.7-0.1-15,14.5,11.1,22.3c9.6,2.9,28.7,7.4,44.3-4c9.1-6.7,8.2-19.7-5.4-17.9
			c-12.6,1.6-11-2.9-23-4.4C427.8,597,420.7,602.5,410.7,602.3z"/>
		<path class="st6" d="M419.6,601.1c0,0,13.3,2.4,21.3,11.9c0,0,3.3-9.5,10.1-10.6"/>
		<path class="st6" d="M426.6,625.9c0,0,4-7.5,14.2-12.9c-24.6-5.2-34.9,3.2-34.9,3.2"/>
		<path class="st6" d="M472,610.2c0,0-12.1-8.8-31.2,2.8c10.2,1.5,19.4,11,19.4,11"/>
	</g>
	<path class="st3" d="M508.8,629.9c-5.6-13.5-18.5-20.2-18.5-20.2s4.4-4.6,3.3-15.9"/>
	<path class="st3" d="M466.5,620.5c0,0,10.3-10.1,23.8-10.8c-9.4-10.3-24.8-12-24.8-12"/>
	<path class="st3" d="M485.9,628.2c0,0-0.4-12.5,4.4-18.5c16.8,0.9,26.2-4.2,27.7-6.4"/>
	<path class="st3" d="M533.6,627.8c0,0-22.3-15.9-43.3-18"/>
	<path class="st1" d="M606.8,418.1c-4,2.8,14,9.8,6.2,24.5c-1.9,3.7-5-3.5-6.4-2.7c-2.8,1.5,4.8,5.5-3.3,16.9
		c-8.6-11.8-1.2-15.2-3.6-16.5c-2.4-1.3-5,7.1-7.4,2.3c-5.8-11.7,7-20.8,4.7-23.4c-2.3-2.6-6.2,7.8-10.2,3.1
		c-5.9-7,5.3-38.1,2.6-39.6c-3.5-1.9-5.8,21.3-13.8,9.1c-9.4-14.5,7.5-32.8,4.1-35.1c-5-3.3-6.7,28.8-16,12.7
		c-10.1-17.6,9.1-54.2,5-55.7c-6-2.1-4.8,29.5-16.6,20.6c-17-12.7,2.7-60.6-4-62c-4.7-0.9-1,48.9-18.4,38.2
		c-17.4-10.7,11.1-62,6.8-64.6c-6.2-3.9-12.1,58.2-26.8,39.8c-18-22.6,16.8-61.1,12.2-64c-4.9-3.1-19.9,48-31.8,31.1
		c-16.8-23.7,24.9-54.5,19.9-58.2c-4.8-3.5-23,34.6-38.2,21.3c-15.4-13.5,25.5-33.3,23-38.1c-2.4-4.6-16.9,13-24.8,4
		c-8.4-9.5,9.9-25.5,17.8-29.5c20-10.1,57.4-13.4,66.6,3.8c8.1,15.1-25.7,6-24.6,11.4c1.1,5.4,42.2-7.8,39.7,18
		c-1.2,11.8-33.2-5.7-33.5-0.9s41.2,12.6,42.2,26.1c1.3,17.1-31.2-1.5-31.6,3.1c-0.4,4,44.4,10.6,50.9,36.8
		c4.9,20-43.1-12.7-44.7-8.5c-2.1,5.6,57.9,19,40.9,40.6c-7.7,9.8-28.5-18.4-31.2-15.6c-5.6,5.7,44.1,22.6,38.4,48.6
		c-2.7,12.2-19-8.9-22-6c-3.2,3,35.7,20.9,26.3,51.5c-1.6,5.2-13.1-10-15.6-7.8c-3.4,3,25.6,11.9,21.8,33.2
		c-1.3,7.2-9.6-7.3-11.7-4.8c-2.8,3.3,21.4,14.5,16.7,37.1C614.7,425.3,608.7,416.8,606.8,418.1z"/>
	<path class="st3" d="M366.1,245.8c66.8,6.8,180.9,56.1,203.1,210.3"/>
	<g>
		<path class="st1" d="M561.8,597.4c-4.6,4.7-6,13.3,8.3,17.2c22.4,6.1,46,5,39.1-12.9C603.8,587.9,572,587,561.8,597.4z"/>
		<path class="st6" d="M568.2,613.9c0,0,7.5-9.7,18.2-10.5c0,0,2.2,6.8,0.5,14.2"/>
		<path class="st6" d="M581.2,590.6c0,0,6,5.9,5.2,12.8c-12.5-7.4-25.4-4.5-25.4-4.5"/>
		<path class="st6" d="M604.1,595.9c0,0-6.4,8.4-17.7,7.5c10.8,4.2,15,13.5,15,13.5"/>
	</g>
	<g>
		<path class="st2" d="M202.6,706.4c16.4-12.1,41.1-10.7,67.9,42.8c26.8,53.5,64.5,30.9,77.6,23.8c15.8-8.6,37.6-11.3,53.1-4.8
			c15.1,6.3,34.3,16.5,59.7,19.7c0,0-22,9.6-40.4,4.8c-12.4-3.2-22.3-3.8-32.7-2.8c-19.9,1.9-30.3,12.5-30.3,12.5s29.7-3.5,41.9-4
			c20.4-1,34.4,3.2,47.3,12.1c12.9,8.9,23.3,7.7,23.3,7.7s-21.1,7.3-42.4,4.4c-12.3-1.7-21.3-4.7-49.9,0.1s-63.9-4.7-63.9-4.7
			s22.8,17.1,46.2,14.3s39.6-5.9,56.7,1c9.6,3.9,25.6,19.2,25.6,19.2s-27.4-6.5-44.7-4.8s-38.7,5.2-60.1-0.8s-31.5-17.7-31.5-17.7
			s11.3,17.7,31.5,21.8s40.9,3.3,48.9,15s4.9,19.6,13.7,29c0,0-17.7-2.4-25.2-15.3c-6.2-10.8-17.7-6.5-31.9-10.1
			c-20.7-5.2-40.4-18.6-52.9-41.6s-12.9-30.1-37.9-32s-53.2-12.5-63.6-46.6C181.9,727.5,193.8,712.9,202.6,706.4z"/>
		<ellipse transform="matrix(0.9437 -0.3309 0.3309 0.9437 -241.6521 137.0069)" cx="281.6" cy="778.3" rx="0.8" ry="1.8"/>
		
			<ellipse transform="matrix(4.391074e-02 -0.999 0.999 4.391074e-02 -536.2223 1027.0131)" cx="268.5" cy="793.7" rx="0.9" ry="1.8"/>
		<g>
			<path class="st4" d="M361.5,867.2c-29.8,0.6-50.1-13.7-52.5-15.5c10.2,8.9,21.9,14.7,33.9,17.8c14.2,3.6,25.7-0.7,31.9,10.1
				c4.6,8.1,13.2,12,19.1,13.9C377.6,882.8,385,866.8,361.5,867.2z"/>
			<path class="st4" d="M408.6,812.9c-16.6-0.2-25.2,5-54.7,4.2c-29.6-0.8-42-10.9-45-7c-1.9,2.4,2.6,6.2,5,7.9
				c0,0,35.3,9.4,63.9,4.7c28.7-4.8,37.6-1.8,49.9-0.1c21.3,2.9,42.4-4.4,42.4-4.4C444.5,823.3,427.3,813.1,408.6,812.9z"/>
			<path class="st4" d="M394,842.9c-32,2.2-42.6,6.7-65.6-6.3c-19.9-11.3-26.7-23.3-28.8-20.2c-2.1,3.1,6.4,12.8,6.4,12.8
				s10,11.7,31.5,17.7c21.4,6.1,42.7,2.4,60.1,0.8c17.4-1.6,44.7,4.8,44.7,4.8S421.5,841,394,842.9z"/>
		</g>
		<g>
			<path class="st4" d="M394.8,783.3c-11.8,0.6-21.6,3.4-32.3,6.6c-11.2,3.4-34.1,5.8-38.5,6c-4.3,0.2-12.1,1-7,3.8
				c5,2.8,40.6,2.8,40.6,2.8s10.3-10.7,30.3-12.5c10.4-1,20.3-0.4,32.7,2.8c11.1,2.9,23.5,0.5,31.6-1.8
				C435.3,792.9,418.6,782.1,394.8,783.3z"/>
		</g>
	</g>
	<g>
		<defs>
			<path id="SVGID_1_" d="M361.5,875.5c-29.8,0.6-50.1-13.7-52.5-15.5c10.2,8.9,21.9,14.7,33.9,17.8c14.2,3.6,25.7-0.7,31.9,10.1
				c4.6,8.1,13.2,12,19.1,13.9C377.6,891.1,385,875.1,361.5,875.5z"/>
		</defs>
		<clipPath id="SVGID_2_">
			<use xlink:href="#SVGID_1_"  style="overflow:visible;"/>
		</clipPath>
	</g>
	<g>
		<g>
			<g>
				<path class="st8" d="M332.3,173.2c0,0,4.9-4.8,10.7,1.7C348.8,181.4,327.7,187.5,332.3,173.2z"/>
				<path class="st3" d="M332.3,173.2c0,0,4.9-4.8,10.7,1.7C348.8,181.4,327.7,187.5,332.3,173.2z"/>
			</g>
			<path class="st5" d="M339.2,176.2c0,0,5.9-4.3,7.9,2.9s-0.3,15.2,2.6,25.6c2.9,10.4-7.9,21-15.1,19
				C327.4,221.7,339.2,176.2,339.2,176.2z"/>
			<g>
				<path class="st9" d="M328.8,225c6.2,0,14.3-4.4,14.3-16.3s-2.6-18.9-1.5-23.3c1.1-4.3-1.1-13.8-12.8-12s-11.8,15-11.8,27.9
					C317,214.2,316.6,225,328.8,225z"/>
				<path class="st3" d="M328.8,225c6.2,0,14.3-4.4,14.3-16.3s-2.6-18.9-1.5-23.3c1.1-4.3-1.1-13.8-12.8-12s-11.8,15-11.8,27.9
					C317,214.2,316.6,225,328.8,225z"/>
			</g>
		</g>
	</g>
	<g>
		<path class="st5" d="M23.9,545.8c0,0,0,38.7,33.3,49.1c28,8.8,38.2,31.3,41.3,39.7h0.8c0,0,0.4-33.5-31.5-50.8
			C39.3,568.3,26.1,556.9,23.9,545.8z"/>
		<path class="st1" d="M110.1,639.2c0,0,9.9-65.8-18.4-67.2c0,0-14.7-0.1-23.6,40.1c-10.9,49.6-38.5,56.6-58.5,59.1
			c0,0,21.2-15.1,29.4-40.2c14.3-43.8,22.4-72.6,56.1-67.9c22.7,3.2,23.3,52.7,16.2,76L110.1,639.2z"/>
		<path class="st5" d="M104.3,632.6c0,0,8.5-39.5,25.8-42.6c12.3-2.2,19.5,9.6,31.4,37.4c11.9,27.9,40.7,26.1,40.7,26.1
			s-22-10.4-28.3-27.2s-15.3-45.2-37.8-44.4c-24.9,0.9-33.2,40.8-33.2,51L104.3,632.6z"/>
		<g>
			<path class="st5" d="M110.1,639.2l1.3,0c5-16.6,6.2-46.6-1.8-63.6c-8.1-7.2-17.9-3.6-17.9-3.6
				C120.1,573.5,110.1,639.2,110.1,639.2z"/>
		</g>
		<path class="st5" d="M64.8,489.2c0,0-23.7,43.3-2.5,71.9c20.1,27.1,36.3,45.2,39.3,71.9h0.7c0,0,8-38.3-17-65.1
			C57.9,538.5,61.6,503.2,64.8,489.2z"/>
		<path class="st1" d="M170.6,531.9c0,0,10.1,37.4-11.4,55.2c-20.3,16.9-35.7,27.6-43,47.4l-0.8,0c0,0,1-30.7,25-46.5
			C166.7,570.7,170.5,543.1,170.6,531.9z"/>
	</g>
	<path class="st4" d="M206.8,87.8c0,0-13-6.6-17.6-0.8c-1.4-2.9-3.2-2.6-5.3-1.2c0,0,2.5,3.1,2.5,8.5c0,1.6-0.2,3.7,0.3,5.4
		c0.5,1.7,3,2,3.6,0.3c0.7-1.7,0-3.9,1.1-4.3c1.4-0.5,2.9,5.5,3,10.7c0.1,6-5.6,17.8-0.7,22.3c1.3,1.2,3.4,1.1,4.7-0.1
		c5.5-4.8-0.9-15.6-0.2-22.1C199.4,94.2,206.8,87.8,206.8,87.8z"/>
	<path class="st0" d="M193,71c-4,2.4-16.6,11.3-7.9,15.5c8.9,4.4,135.7-7.6,250.6,39.2c98.2,39.9,169.3,128.6,175.8,137.3
		c5.5,7.5,11.8,4.1,8.9-7.6C617.5,243.9,591.9,90.4,490,43C388.3-4.2,246.1,39.8,193,71z"/>
	<g>
		<path class="st2" d="M165.4,701.6c0,0.1-0.7,2.6,0.2,4.3c0,0,0.1,0,0.1,0c0.1-0.3,0.5-1.1,0.6-2.2c0,0,0.1,0,0.1,0
			c0.1,1,0.2,3.3,0,4.6c0,0,0,0.1,0.1,0c0.6-0.6,2.7-4.2,2.1-7c0,0,0,0,0,0C168.3,701.3,166,700.8,165.4,701.6
			C165.4,701.6,165.4,701.6,165.4,701.6z"/>
		<path class="st4" d="M142.8,685.9c0,0,3.8-2.8,9.2-4.3s8.3,0.4,10.1,2.8c2.9,4,5.2,9.7,6.1,12.3c0.8,2.6,1.1,4.6,0.1,4.8
			c0,0-2.1,0.3-2.9,0.1c-0.8-0.2-2.1-2.8-2.6-5.7c0,0-4-0.4-6.7-2.9c0,0-4.9,0.7-7.5,0.3c0,0-3.7,0.9-5.6,0.9
			C141.1,694.3,142.8,685.9,142.8,685.9"/>
		<path class="st4" d="M148.2,682.9c1,1.2,1.8,4.7-0.5,9.9"/>
		<path class="st4" d="M153.7,681.2c1.5,2,0.9,7.6-2,10.4"/>
		<path class="st4" d="M159.7,682c1.2,3.2-1,7.8-3.5,10.1"/>
		<path class="st4" d="M164.3,687.7c-0.1,1.8-1.4,4.3-4.4,6"/>
		<path class="st4" d="M166.5,692.2c-0.1,0.6-1.3,2.1-2.9,2.9"/>
		<path class="st4" d="M165.1,697c0,0-0.5,1.8,1,3.6"/>
		<path class="st3" d="M121.2,691.2c0,0-11.2,1.5-12.2-0.7c-0.9-2.3,6.5-4.6,9.1-5.2c9.1-2.4,18.9-3.7,24.2-3.6"/>
		<path class="st3" d="M118.8,691.7c0,0-6.5,1.4-7,0.3c-0.7-1.6,14.3-5.9,24.8-5.9"/>
		<path class="st2" d="M113.3,690C113.3,690,113.3,690,113.3,690c1.5,0,8.2,0.2,14.8-0.8c6.4-0.9,6.7-2.3,14.7-3.3c0,0,0,0,0,0
			c0.2,0.2,2.9,3.8,0.3,8.1c-0.1,0.1-0.2,0.2-0.3,0.2c-1,0.3-5,2.5-11.3,0.8c-5.9-1.6-10.7-2.2-12-2.4c0,0,0-0.1,0-0.1
			c0.7,0,2.7-0.1,4.8,0c0,0,0-0.1,0-0.1c-1.5-0.3-4.9-0.7-5.7-0.8c0,0,0,0,0,0c0.5-0.1,2.4-0.5,3-0.7c0,0,0-0.1,0-0.1
			C120.5,690.9,115.6,690.6,113.3,690z"/>
		<path class="st3" d="M134.8,691.3l-3,0.7c-0.1,0-0.1,0.1,0,0.1c0.5,0.2,2,0.7,4.1,0.6"/>
		<circle cx="129.1" cy="690.6" r="0.3"/>
		<polyline class="st3" points="142.8,694.2 141.5,696.3 142.8,698.8 		"/>
		<polyline class="st3" points="148.6,693.3 146.6,695.2 147,698 		"/>
		<polyline class="st3" points="156.2,693 154.5,695.1 154.6,697.5 		"/>
		<polyline class="st3" points="162.8,695.9 160.9,696.7 160.6,698.1 		"/>
	</g>
	<g>
		<path class="st2" d="M332.9,732c-0.1,0.1-1.6,2.1-1.3,3.9c0,0,0.1,0.1,0.1,0c0.2-0.2,0.8-0.8,1.3-1.7c0,0,0.1,0,0.1,0
			c-0.3,1-1,3-1.6,4.2c0,0,0,0.1,0.1,0c0.8-0.3,3.9-2.8,4.3-5.5c0,0,0,0,0,0C335.6,732.7,333.7,731.5,332.9,732
			C332.9,732,332.9,732,332.9,732z"/>
		<path class="st4" d="M318.1,710.3c0,0,4.4-1.2,9.7-0.7c5.3,0.5,7.3,3.2,8,6c1.2,4.5,1.4,10.5,1.2,13.1c-0.1,2.7-0.6,4.5-1.6,4.3
			c0,0-2-0.5-2.6-0.9s-0.9-3.2-0.4-5.9c0,0-3.4-1.8-5-4.9c0,0-4.6-1-6.8-2.3c0,0-3.6-0.5-5.4-1.1
			C313.6,717.1,318.1,710.3,318.1,710.3"/>
		<path class="st4" d="M323.9,709.4c0.5,1.4,0,4.8-3.9,8.7"/>
		<path class="st4" d="M329.4,709.7c0.7,2.3-1.8,7.1-5.4,8.6"/>
		<path class="st4" d="M334.5,712.5c0,3.3-3.5,6.7-6.6,7.9"/>
		<path class="st4" d="M336.7,719.2c-0.7,1.6-2.8,3.3-6,3.8"/>
		<path class="st4" d="M337.1,724c-0.3,0.5-1.9,1.4-3.6,1.6"/>
		<path class="st4" d="M334.2,727.8c0,0-1.1,1.4-0.3,3.6"/>
		<path class="st3" d="M296.9,707.5c0,0-10.6-2.5-10.6-4.8c-0.1-2.3,7.4-1.8,9.9-1.6c9,1,18.2,3.2,22.9,5.1"/>
		<path class="st3" d="M294.6,707.2c0,0-6.3-1-6.4-2.2c-0.1-1.6,14.8-0.4,24.2,3.3"/>
		<path class="st2" d="M290.3,703.8C290.2,703.8,290.3,703.7,290.3,703.8c1.3,0.5,7.3,3,13.5,4.4c6,1.3,6.8,0.3,14.3,2.1
			c0,0,0,0,0,0c0.1,0.3,1.3,4.4-2.5,7.3c-0.1,0.1-0.2,0.1-0.3,0.1c-1-0.1-5.3,0.5-10.4-3.2c-4.8-3.4-8.8-5.7-9.9-6.3
			c0,0,0-0.1,0-0.1c0.7,0.2,2.5,0.8,4.3,1.7c0,0,0.1,0,0-0.1c-1.2-0.7-4.1-2.3-4.9-2.6c0,0,0,0,0,0c0.5,0.1,2.3,0.3,2.9,0.4
			c0,0,0,0,0-0.1C296.5,707,292.1,705,290.3,703.8z"/>
		<path class="st3" d="M309.1,712.2l-2.9-0.4c-0.1,0-0.1,0.1,0,0.1c0.4,0.3,1.6,1.3,3.5,1.9"/>
		<circle cx="304.2" cy="709.7" r="0.2"/>
		<polyline class="st3" points="315.2,717.7 313.4,719 313.7,721.7 		"/>
		<polyline class="st3" points="320.8,718.8 318.2,719.9 317.7,722.5 		"/>
		<polyline class="st3" points="327.6,721.1 325.4,722.4 324.7,724.7 		"/>
		<polyline class="st3" points="332.6,726 330.5,726.1 329.8,727.2 		"/>
	</g>
	<g>
		<path class="st2" d="M394,660.3c-5-0.1-22.6-4.2-20-15c3.2-13.4,22.5-18.2,33.2-18.8c10-0.5,34.2,1.8,25,21.6
			C424.6,664.6,400.5,660.4,394,660.3z"/>
		<g>
			<path class="st6" d="M404,626.8c0,0-3.9,7,1.2,14.3c0,0,7.6-11.1,21.1-11.6"/>
			<path class="st6" d="M411.7,660.6c0,0,0.4-12.9-6.4-19.5c10.2-2.9,27.5,6,27.5,6"/>
			<path class="st6" d="M373.9,646.1c0,0,13.3-7.6,31.4-5c0,0-17.1,8.5-19.9,17.5"/>
		</g>
	</g>
	<g>
		<path class="st2" d="M500,653.2c-10.5,4-15.8,13-9.5,21.7c8.6,12,22.6,2.4,41.7,7.8c22.8,6.5,27.9-9.6,22.1-17.3
			C543.8,651.2,515.7,647.2,500,653.2z"/>
		<path class="st6" d="M491.7,675.7c0,0,14.1-10.7,34.3-6.6c0,0-14.2-12.3-35.4-8.5"/>
		<path class="st6" d="M515,650.8c0,0,10.3,5.2,10.9,18.3c0,0,13.5-8.9,27.9-3.6"/>
		<path class="st6" d="M530.1,682c0,0-0.7-9.2-4.1-13c12.8-0.3,24.3,12.9,24.3,12.9"/>
	</g>
	<g>
		<path class="st2" d="M271.5,501.6c0,0,1,2-0.4,5.5c-1.4,3.4-1.7,6.7,0.4,8.8c2.1,2.1,8.8,1.9,13.2,3.3c6.2,2.1,10.5,8.6,19.1,9.6
			c5.3,0.6,10.4-2,13.1-6.6c1.6-2.7,2.9-6.3,2.9-10.9c0-11.4-11.5-17.6-22.7-12.4c0,0-12.6-2-12.9-1.9
			C283.8,497.2,271.5,501.6,271.5,501.6z"/>
		<path class="st2" d="M228.7,512.1c0,0,1.2,4.4,0.8,7.2c-0.4,2.9,4.4,3.9,6.6,9.6c2.3,5.7,4,13.6,15.7,14.1
			c11.7,0.5,19.2-3.5,22.9-11.4c3.7-7.9,3-26-15.3-22.3c0,0-3.6-0.1-1.2-4.2l-7.1-3L228.7,512.1z"/>
		<g>
			<path class="st0" d="M322.6,464.4c0,0-4.6-4.5-6.9-11.6c-2.4-7.2-5.2-18.3-10.6-22c-2.2-1.5-2.9,4.1-3,11.4l5,0.7
				c0,0,2.4,3.3,4.2,10.5c2.1,8.6,5.7,13.8,10.6,15.4C323.1,466.6,322.6,464.4,322.6,464.4z"/>
			<path class="st0" d="M310.4,458.5c-2.2-8.6-3.8-9.1-3.8-9.1l-4.6-0.5c0.2,9.4,1,18.8,1,18.8s4.5,5.5,12.6,4.5
				c1.3-0.2,2.3-0.5,3.1-0.8C315.1,469.3,312,464.7,310.4,458.5z"/>
			<path class="st2" d="M311.3,453.3c-1.8-7.2-4.2-10.5-4.2-10.5l-5-0.7c0,2.2,0,4.5,0,6.8l4.6,0.5c0,0,1.6,0.6,3.8,9.1
				c1.6,6.1,4.7,10.8,8.4,12.8c1.5-0.7,2.5-1.6,3-2.6C317,467.1,313.4,461.9,311.3,453.3z"/>
		</g>
		<circle class="st2" cx="240.7" cy="403.3" r="48.1"/>
		<path class="st12" d="M266.4,418.5c0,0,7.6-9.9,26.2-5.8c18.7,4.1,20.4,37.9,6.7,77.5c0,0-18.1,7.6-27,5.4c0,0-7.1-10.5-11.7-36.5
			l-13.5-29L266.4,418.5z"/>
		<path class="st2" d="M136.9,474.5c0,0,11.6,35.4,50.1,28.4l2.1-49.6l21.9-28.2l-24.5-12.5l-49.6,38.9V474.5z"/>
		<path class="st0" d="M179.5,472.8c-15.6,1.2-30.3-11.3-30.3-11.3l0.5-2.5c0,0,15.2,11.9,30.7,10L179.5,472.8z"/>
		<path class="st0" d="M212.5,431.7c0,0-6.3-12-17.6-3.8c-10.9,7.9-20.7,42.1-15.4,63.2c5.3,21.2,14.9,21.2,23,20.8
			c8-0.3,14.3-7.6,12.8-17.8c0,0-6.4-47.4-6.3-48.8C209.1,444.1,212.5,431.7,212.5,431.7z"/>
		<path class="st2" d="M170.5,350.4c0,0,0.9-11.5,3.7-16.5c2.9-5,27.8,19.9,27.8,19.9l53.2-13c0,0,3.8,2,3.5,5.6l-7.1,18.5
			l-12.1,1.8c0,0-9.1,5.9-30.8,0C187.1,360.8,172.7,361.4,170.5,350.4z"/>
		<g>
			<path class="st0" d="M145.1,451c9.3-11.4,16.5-19.4,26.3-26.7c10.2-7.5,20.9-10.9,36.5-7.2l8,3l17.3-34.8
				c-2.5-14.3-29.8-25.6-47.1-28.2c-13.8-2-15.4-6.8-15.4-6.8c-36.6,13.7-48.5,50.9-52.4,61.6c-4.5,12.4-5.1,20.8,1.9,19
				c7-1.8,14.6-6.5,14.6-6.5l2.6,0.5c-9.3,9.4-7.1,26.9-6.2,36.4C134.1,460.6,139.1,458.2,145.1,451z"/>
			<path class="st0" d="M175.3,426c-12.5,9.3-17.9,16.1-27.7,28.8c-6.3,8.2-12.6,10.3-16.2,10.7c0,7.2-5.6,13.9,2,13.5
				c7.7-0.4,10.1-6.5,16.8-18c6.7-11.5,16.8-24.3,30.5-34.1c13.7-9.8,32.5-1.8,32.5-1.8l1.2-2.5l-6.7-2.5
				C199.3,418,187.1,417.2,175.3,426z"/>
			<path class="st2" d="M207.9,417.1c-15.6-3.8-26.3-0.4-36.5,7.2c-9.8,7.2-17,15.3-26.3,26.7c-5.9,7.3-11,9.6-13.9,10.3
				c0.2,1.7,0.3,3.2,0.3,4.3c0,0,0,0,0,0c3.6-0.4,9.8-2.5,16.2-10.7c9.8-12.7,15.1-19.5,27.7-28.8c11.8-8.8,24-8.1,32.6-5.9l6.7,2.5
				l1.3-2.6L207.9,417.1z"/>
		</g>
		<path class="st0" d="M174.5,332.8c1.9-6.2,17.3-9.5,36.6-6.9c11.1,1.5,43.2,6.2,38.6,17.8s-39.4,16.6-52.4,13.2
			c0,0-5.9-4.8-13.7-9.4C175.7,342.7,173.3,336.6,174.5,332.8z"/>
		<path class="st12" d="M272.2,401.9c0,0,9,11.5,25.1,15.5c16.1,4,23.9-4.7,23.9-4.7l-17.4-24.6l-29.3-8.5l-4,8.1L272.2,401.9z"/>
		<path class="st0" d="M258.2,343.6c0,0,16.1,0.2,35.4,14.2c19.2,14.1,34.1,44,38.5,62.3c0,0-2.4,5-9,0c-6.7-5-15.4-22.4-22.9-28.3
			c-7.6-5.9-19.5-8.7-25.1-7.7l-2.5,1.9l-30.3,25.5l-9.2-26.2c0,0-2.1-11.4,10.5-23.5C254.7,351,258.9,348.1,258.2,343.6z"/>
		<path class="st12" d="M130.5,422.6c0,0,4.2,3.6,19.7,2.2c15.6-1.4,40.4-9.1,48.1-14l3.7-20.3c0,0-12-5.8-39.6,0.7
			C145.4,399,130.5,422.6,130.5,422.6z"/>
		<path class="st3" d="M160.7,389.6c0,0,4-6.9,7.6-11.5"/>
		<path class="st3" d="M159,385.1c0,0,1.8,1.6,2.1,3.8"/>
		<g>
			<path class="st1" d="M205.2,376.8c0,0,2.2-3.2,5.7-4c3.6-0.8,23.7,8.2,27.2,15.4c0,0,5.1-9.5,18.6-16.1c1.1-0.5,2.4-0.6,3.6-0.2
				c1.7,0.6,4.2,1.6,6.1,3.3l-11.2,19h-28.1L205.2,376.8z"/>
			<path class="st5" d="M199.8,388.1c0.2-2.6,1.6-8.9,2.1-11.5c0.1-0.6,0.8-1,1.4-0.8c3.8,1.4,16.8,6.3,30.5,11.6
				c0,0,4.8,2.3,8.7-0.8c0,0,14.2-9.7,24.1-12.6c0.6-0.2,1.3,0.3,1.3,0.9l2.5,42.1c0,0.3-0.1,0.7-0.4,0.9l-24.5,18.9
				c-0.2,0.2-0.6,0.3-0.9,0.2l-44.3-10.1c-0.4-0.1-0.8-0.5-0.8-0.9C199.4,422.3,198.1,405.8,199.8,388.1z"/>
			<path class="st1" d="M240.6,427.9h-3.8c-1.1,0-2-0.9-2-2v-30.6c0-1.1,0.9-2,2-2h3.8c1.1,0,2,0.9,2,2v30.6
				C242.6,427,241.7,427.9,240.6,427.9z"/>
		</g>
		<path class="st12" d="M268.5,383.4c0,0,6.4,1.3,7.8,11c1.4,9.7-6.6,14.2-12.6,10.9c-6-3.3-6.2-16.3,4.4-17.6
			C268.2,387.8,268.7,386.2,268.5,383.4z"/>
		<path class="st3" d="M268.2,387.8c1.1-0.1,1.7,0,1.7,0"/>
		<path class="st12" d="M213.1,431.9c4.3-2.9,10-6.2,17.3-6.8c12.3-0.9,24.4,1.9,30.2,17.1c5.8,15.2,2.3,45.6,0,54.6l-33.5,13.7
			c0,0-5.4-12.3-7.2-20.4c0,0-8.2,7-13.4,8.7c0,0-10.9-1.4-13.5-27.7c-2.6-26.3,9.1-41.6,15.7-35.5
			C208.6,435.6,210.9,433.4,213.1,431.9z"/>
		<path class="st3" d="M204.9,441.6c0,0,1.1-3.6,3.7-5.9"/>
		<path class="st3" d="M219.8,490.1c0,0-4.8-17.4-4.4-37.1"/>
		<path class="st0" d="M223.4,510c1.6-4.5,12.1-10.2,23.1-13.3s17.1-0.8,16.1,4.5c-1,5.3-8.6,3.4-17.7,6.7c-9.1,3.3-12,6.2-15.4,7.5
			C226,516.8,221.9,514.3,223.4,510z"/>
		<path class="st0" d="M269.1,498.2c0.6-2.5,6.4-4.8,15.1-6.7c8.7-1.9,16.9-2.5,18.4,1.6s-0.2,6.5-5.5,5.9c-5.3-0.6-16.5-0.8-20.9,2
			C271.9,503.8,268,502.6,269.1,498.2z"/>
		<path class="st3" d="M286.7,506.7c0,0,4.4-5,10.4-7.8"/>
		<path class="st3" d="M247.9,523.3c0,0,1.1-10.1,11.5-14.1"/>
		<g>
			<path class="st12" d="M198.6,325.2c0,0-5.2-0.1-7.8-2.3c-3-2.5-1.3-5.9,3.1-4.4c0,0-14.2-10.7-13.1-20.6
				c1.2-10.7,19-9.5,28.4,7.9c0,0-8.5-11.9-8.7-31s13.9-27.1,22.3-16.3c8.4,10.8,6.4,35.6,6.4,35.6s8.6-9.5,21-10.8
				s12.5,13.4-10.5,22.5c0,0,10.1-1.9,16.6,3.9c6.5,5.8,2.6,14.4-8.7,12.8c0,0,13.4,9.2,5.3,26.3c-7.7,16.4-46.6,20-57.5,6.1
				C184.5,341,194.9,328,198.6,325.2z"/>
			<path class="st3" d="M222.9,321.3c0,0-5.9,4.7-3.6,7c1.8,1.8,6-2.4,6.4-4.3c0,0-0.1,7.2,3.9,6.4c3.6-0.7,1.1-7.6,1.1-7.6
				s4.3,7.9,7.8,5c2.9-2.4-1.1-6.6-3.2-6.2"/>
			<ellipse cx="226.7" cy="343.6" rx="1.1" ry="2.4"/>
			<ellipse cx="234.2" cy="343.6" rx="1.1" ry="2.4"/>
			<ellipse class="st2" cx="217.9" cy="347.6" rx="1.2" ry="0.5"/>
			<ellipse class="st2" cx="220.1" cy="350.4" rx="1.2" ry="0.5"/>
			<ellipse class="st2" cx="213.8" cy="350.2" rx="1.2" ry="0.5"/>
			<ellipse class="st2" cx="237.5" cy="349.1" rx="1" ry="0.5"/>
			<ellipse class="st2" cx="240.6" cy="346.5" rx="1" ry="0.5"/>
			<ellipse class="st2" cx="243" cy="349" rx="1" ry="0.6"/>
		</g>
		<path class="st3" d="M276.5,384c0,0-0.8-8.4-3.1-12.9"/>
		<path class="st0" d="M123.8,429.7c0,0,6.9-3.5,13-12.4c6.1-8.9,14.5-19.8,25.7-26.2c0,0-3-3.8-9-3.8"/>
		<path class="st12" d="M199.8,388.1c0,0-6.7,4.3-8.4,10.8c-1.5,5.6-0.3,13.4,9,13.7c9.3,0.4,15.4-8.6,13.5-15.6s-11-6.2-14.1-5.3
			L199.8,388.1z"/>
	</g>
</g>
</svg>
