<svg id="圖層_1" data-name="圖層 1" xmlns="http://www.w3.org/2000/svg" viewBox="0 0 754.23 1066.7"><defs><style>.cls-1,.cls-7{fill:#f8b300;}.cls-1,.cls-2,.cls-3,.cls-4,.cls-5,.cls-6,.cls-9{stroke:#000;stroke-miterlimit:10;stroke-width:0.25px;}.cls-2{fill:#e94827;}.cls-3{fill:#fde3b9;}.cls-4{fill:none;}.cls-5,.cls-8{fill:#a6b832;}.cls-6{fill:#006857;}.cls-9{fill:#fff;}</style></defs><title>all</title><path class="cls-1" d="M621.34,640.09c-2.33-2.39-23.76,25.72-42.87,32.67-23.56,8.57-18.92,39.49-46.07,39.49-37.49,0-10.46,1.67-71.94,7.94-39.83,4.07-56.11-1.13-84.91-3.47-32.38-8.44-69.91-16.61-147.13-12-114,6.75-105.69-69.43-144.39-78-1.11,15.92,6.63,26,16.33,35.92,16.21,16.49,15.42,50.27,16.33,62.06s4,48.55,51.27,48.55,53.23,35.93,55.89,60.88,13.2,75.82,86.17,53.23c68.09-21.08,60.28,93.5,104.64,105.23,53.79,14.21,54.91-116.26,99.29-103.23,19,5.59,29.18,3.13,40.35-26.29,12-31.7,25.72-42.76,41.12-37.46C639.65,840.81,615.89,687.25,621.34,640.09Z"/><path class="cls-2" d="M241.84,735.14c16-13.92,41.79-14.45,74,38.94s69.55,26.79,82.54,18.37c15.74-10.2,38.08-14.85,54.77-9.35,16.22,5.35,37,14.28,63.66,15.55,0,0-22.09,11.81-41.57,8.32a93.53,93.53,0,0,0-34.2-.25c-20.56,3.56-30.43,15.49-30.43,15.49s30.6-6,43.22-7.63c21.09-2.67,36,.52,50.14,8.69s24.87,6.05,24.87,6.05-21.32,9.37-43.72,8.1c-12.92-.73-22.49-3.11-51.87,4.19s-66.81.41-66.81.41,25.05,15.89,49.14,11,40.66-9.35,59-3.62c10.33,3.22,28.15,17.83,28.15,17.83s-28.95-4.46-46.86-1.36-39.73,8.63-62.51,4.1-34.14-15.83-34.14-15.83,13.22,17.49,34.48,20,42.72,0,52.07,11.53,6.7,19.94,16.63,29c0,0-18.59-1-27.39-13.88-7.3-10.67-19-5.33-34-7.86-22-3.7-43.46-16-58.35-38.86s-15.9-30.22-42-30.14-56.25-8.6-69.9-43.22C222,758.71,233.24,742.63,241.84,735.14Z"/><ellipse cx="329.74" cy="803.29" rx="0.82" ry="1.87" transform="translate(-296.57 201.85) rotate(-23.84)"/><ellipse cx="317.38" cy="820.37" rx="1.88" ry="0.9" transform="matrix(1, -0.03, 0.03, 1, -28.49, 11.6)"/><path class="cls-3" d="M420.09,889.15c-30.87,3-53.13-10.14-55.76-11.78A84.93,84.93,0,0,0,401.06,893c15,2.53,26.67-2.81,34,7.86,5.48,8,14.74,11.43,21,12.86C438.1,904,444.46,886.76,420.09,889.15Z"/><path class="cls-3" d="M464.52,828.84c-17.21,1.2-25.75,7.31-56.53,8.9s-44.49-7.83-47.33-3.56c-1.78,2.69,3.21,6.23,5.83,7.84,0,0,37.42,6.89,66.81-.41s38.95-4.92,51.87-4.19c22.4,1.27,43.72-8.1,43.72-8.1C502.7,836.75,484,827.49,464.52,828.84Z"/><path class="cls-3" d="M451.84,861.18c-33,4.93-43.69,10.48-68.69-1.19-21.63-10.1-29.65-22-31.6-18.58s7.69,12.76,7.69,12.76,11.37,11.3,34.14,15.83,44.61-1,62.51-4.1,46.86,1.36,46.86,1.36A98.53,98.53,0,0,0,451.84,861.18Z"/><path class="cls-3" d="M447.74,799.23c-12.22,1.59-22.15,5.28-33,9.53-11.4,4.46-34.95,8.86-39.47,9.41s-12.47,2-7,4.5,42.39-.46,42.39-.46,9.87-11.93,30.43-15.49a93.53,93.53,0,0,1,34.2.25c11.78,2.11,24.5-1.37,32.73-4.46C490.63,805.86,472.4,796,447.74,799.23Z"/><path class="cls-2" d="M206.37,728.72a6.06,6.06,0,0,0,.23,4.15.06.06,0,0,0,.1,0,7,7,0,0,0,.56-2.09s.08,0,.08,0a25.71,25.71,0,0,1,0,4.48s0,0,.07,0c.6-.57,2.65-4.06,2.07-6.76a0,0,0,0,0,0,0c-.28-.07-2.53-.55-3.08.21Z"/><path class="cls-3" d="M184.58,713.63a31.62,31.62,0,0,1,8.9-4.2c5.2-1.5,8,.35,9.72,2.7a49.32,49.32,0,0,1,5.88,11.9c.82,2.55,1.11,4.44.07,4.6a11.11,11.11,0,0,1-2.78.08c-.79-.2-2-2.73-2.48-5.47a12.66,12.66,0,0,1-6.44-2.82,32.08,32.08,0,0,1-7.26.29,39.92,39.92,0,0,1-5.44.9c-1.88.08-.17-8-.17-8"/><path class="cls-3" d="M189.77,710.71c.95,1.14,1.77,4.54-.5,9.57"/><path class="cls-3" d="M195.05,709c1.43,1.89.85,7.29-1.92,10.07"/><path class="cls-3" d="M200.85,709.85c1.16,3.09-.93,7.54-3.38,9.79"/><path class="cls-3" d="M205.28,715.34c-.08,1.75-1.39,4.12-4.26,5.78"/><path class="cls-3" d="M207.44,719.63a6.11,6.11,0,0,1-2.77,2.83"/><path class="cls-3" d="M206.05,724.3a4,4,0,0,0,1,3.5"/><path class="cls-4" d="M163.68,718.71S152.84,720.2,152,718s6.28-4.39,8.75-5c8.81-2.36,18.25-3.56,23.4-3.52"/><path class="cls-4" d="M161.41,719.2s-6.31,1.32-6.76.25c-.64-1.52,13.75-5.71,23.92-5.67"/><path class="cls-2" d="M156.08,717.59a0,0,0,0,1,0-.06,83.45,83.45,0,0,0,14.27-.69c6.14-.91,6.46-2.19,14.22-3.21h0a6.93,6.93,0,0,1,.28,7.79.55.55,0,0,1-.29.21,16.27,16.27,0,0,1-10.94.81,115.71,115.71,0,0,0-11.54-2.36s0-.07,0-.07a41.41,41.41,0,0,1,4.62,0s.05-.06,0-.06c-1.42-.25-4.72-.67-5.51-.73a0,0,0,1,1,0,0l2.92-.66a0,0,0,0,0,0-.06A68.93,68.93,0,0,1,156.08,717.59Z"/><path class="cls-4" d="M176.79,718.77l-2.92.67a.06.06,0,0,0,0,.11,10.91,10.91,0,0,0,4,.57"/><circle cx="171.3" cy="718.09" r="0.25"/><polyline class="cls-4" points="184.57 721.64 183.31 723.61 184.57 726.02"/><polyline class="cls-4" points="190.19 720.71 188.17 722.61 188.64 725.23"/><polyline class="cls-4" points="197.45 720.42 195.81 722.46 195.96 724.8"/><polyline class="cls-4" points="203.89 723.24 201.99 724.01 201.72 725.37"/><path class="cls-2" d="M346.05,751.7a5.85,5.85,0,0,0-1.22,3.8.05.05,0,0,0,.09,0,6.61,6.61,0,0,0,1.23-1.68,0,0,0,0,1,.07,0,25.26,25.26,0,0,1-1.55,4s0,.07.06,0c.73-.3,3.76-2.72,4.17-5.33a0,0,0,0,0,0-.05c-.23-.15-2.08-1.36-2.83-.86Z"/><path class="cls-3" d="M331.76,730.72a30.47,30.47,0,0,1,9.4-.69c5.16.44,7,3.07,7.76,5.75a46.93,46.93,0,0,1,1.17,12.66c-.14,2.56-.54,4.36-1.52,4.14a11,11,0,0,1-2.51-.88c-.64-.45-.85-3.14-.34-5.75a12.13,12.13,0,0,1-4.79-4.73,31.05,31.05,0,0,1-6.59-2.23,39.33,39.33,0,0,1-5.18-1.07c-1.71-.57,2.6-7.2,2.6-7.2"/><path class="cls-3" d="M337.4,729.89c.46,1.35,0,4.68-3.74,8.4"/><path class="cls-3" d="M342.7,730.21c.63,2.18-1.75,6.81-5.18,8.34"/><path class="cls-3" d="M347.6,732.94c0,3.15-3.42,6.42-6.39,7.59"/><path class="cls-3" d="M349.67,739.37c-.66,1.53-2.65,3.2-5.79,3.7"/><path class="cls-3" d="M350.14,743.94a5.83,5.83,0,0,1-3.45,1.58"/><path class="cls-3" d="M347.29,747.65a3.79,3.79,0,0,0-.33,3.45"/><path class="cls-4" d="M311.32,728.09s-10.2-2.4-10.26-4.65,7.13-1.77,9.57-1.51c8.69.92,17.54,3.08,22.13,4.89"/><path class="cls-4" d="M309.12,727.75s-6.1-1-6.13-2.11c-.05-1.58,14.26-.38,23.34,3.16"/><path class="cls-2" d="M304.9,724.47s0-.06,0-.05a79.82,79.82,0,0,0,13,4.28c5.81,1.3,6.54.27,13.82,2h0a6.63,6.63,0,0,1-2.43,7.06.51.51,0,0,1-.34.1,15.62,15.62,0,0,1-10.05-3c-4.6-3.31-8.53-5.48-9.51-6.08,0,0,0-.07,0,0a38.58,38.58,0,0,1,4.13,1.6s.06,0,0-.05c-1.18-.71-4-2.22-4.68-2.55,0,0,0,0,0,0l2.84.41a0,0,0,0,0,0-.06A63.07,63.07,0,0,1,304.9,724.47Z"/><path class="cls-4" d="M323,732.64l-2.84-.4a.05.05,0,0,0,0,.1,10.4,10.4,0,0,0,3.33,1.87"/><circle cx="318.35" cy="730.15" r="0.24"/><polyline class="cls-4" points="329 737.89 327.19 739.21 327.49 741.8"/><polyline class="cls-4" points="334.34 738.99 331.88 739.99 331.4 742.5"/><polyline class="cls-4" points="340.93 741.22 338.76 742.47 338.1 744.62"/><polyline class="cls-4" points="345.72 745.95 343.75 745.99 343.04 747.11"/><path class="cls-2" d="M572.27,786.07a6.06,6.06,0,0,0,.05,4.17.06.06,0,0,0,.1,0,7.1,7.1,0,0,0,.66-2.06,0,0,0,1,1,.07,0,25.15,25.15,0,0,1-.2,4.48c0,.05,0,.06.07,0,.63-.54,2.83-4,2.37-6.67,0,0,0,0,0,0-.27-.08-2.51-.66-3.08.08Z"/><path class="cls-3" d="M551.13,770a31.42,31.42,0,0,1,9.09-3.81c5.26-1.28,8,.7,9.6,3.12a49.4,49.4,0,0,1,5.37,12.17c.71,2.59.91,4.5-.13,4.61a11.38,11.38,0,0,1-2.79,0c-.78-.24-1.88-2.82-2.25-5.58a12.61,12.61,0,0,1-6.31-3.11,32.39,32.39,0,0,1-7.28,0,41.7,41.7,0,0,1-5.49.67c-1.88,0,.19-8,.19-8"/><path class="cls-3" d="M556.44,767.32c.91,1.18,1.58,4.63-.92,9.57"/><path class="cls-3" d="M561.8,765.88c1.35,2,.53,7.33-2.36,10"/><path class="cls-3" d="M567.57,767c1,3.14-1.26,7.51-3.82,9.65"/><path class="cls-3" d="M571.76,772.64c-.15,1.74-1.57,4.06-4.51,5.6"/><path class="cls-3" d="M573.74,777a6,6,0,0,1-2.89,2.71"/><path class="cls-3" d="M572.15,781.64a4,4,0,0,0,.82,3.54"/><path class="cls-4" d="M530,774.19s-10.91,1-11.71-1.2,6.47-4.13,9-4.68c8.92-2,18.42-2.76,23.58-2.49"/><path class="cls-4" d="M527.69,774.59s-6.38,1-6.78-.06c-.58-1.55,14-5.11,24.19-4.62"/><path class="cls-2" d="M522.42,772.74s0-.06,0-.06a84.25,84.25,0,0,0,14.3-.07c6.19-.64,6.57-1.9,14.38-2.59h0a7,7,0,0,1-.06,7.81.54.54,0,0,1-.31.2,16.31,16.31,0,0,1-11,.33,115,115,0,0,0-11.45-2.87s0-.07,0-.07a46.23,46.23,0,0,1,4.63.22s0,0,0-.06c-1.41-.31-4.7-.87-5.49-1,0,0,0,0,0,0l3-.53s0-.06,0-.06A68.71,68.71,0,0,1,522.42,772.74Z"/><path class="cls-4" d="M543.1,774.82l-3,.55a.06.06,0,0,0,0,.11,11.08,11.08,0,0,0,3.93.75"/><circle cx="537.63" cy="773.9" r="0.25"/><polyline class="cls-4" points="550.76 778.04 549.41 779.95 550.57 782.43"/><polyline class="cls-4" points="556.43 777.36 554.32 779.17 554.67 781.81"/><polyline class="cls-4" points="563.71 777.38 561.97 779.35 562.02 781.7"/><polyline class="cls-4" points="570.02 780.49 568.09 781.17 567.76 782.52"/><path class="cls-1" d="M165.66,352.53l-7.54-18.95L138,315l-18-9.61-10.63-3.13L103,299.57l-10.7-4.39-4.56-2.63-6.36-6.1L80,272.88l1.22-8.12,2.48-6.21L89.05,257l7.5-1.54,7.32,2.35,6.44,5.29,2.1,5.45.75,6.36.54,3-.81,3.93s-4,3.22-4,3.55-5.34,0-5.34,0l-4-3-1.08-4.1a2.05,2.05,0,0,1,2.31,1.17,4.66,4.66,0,0,1,.62,2.85,2.28,2.28,0,0,1,2.37-.78,2.89,2.89,0,0,1,1.8,2.22,2.2,2.2,0,0,1,1.61-2.36,2.44,2.44,0,0,1,2.89.41,2.61,2.61,0,0,1-.53-2.84,2.55,2.55,0,0,1,2.45-1.72,3.23,3.23,0,0,1-2-3.09,3.8,3.8,0,0,1,1.59-3.54,3.6,3.6,0,0,1-3.46-1.67c-1.41-2.06.63-4.6.63-4.6s-2,1.88-5.24-.47a5.52,5.52,0,0,1-2-6A4.75,4.75,0,0,1,96.71,261c-4.24-.28-5.31-3.24-5.31-3.24s.56,3.7-1.62,5.53a6,6,0,0,1-5.84.93s3.13,3.09,2.12,6.09c-.84,2.49-4.58,3.56-4.58,3.56s3.56.39,4.56,3.2c1.19,3.34-1.85,6.76-1.85,6.76s4.21-1.31,6.9,1.22,1.63,6.76,1.63,6.76a8.54,8.54,0,0,1,8.63-1.41c4.62,1.95,4.29,7,4.29,7A8.32,8.32,0,0,1,114,295c4.46,1,5.8,6.77,5.8,6.77s3.58-3.61,7.9-1.71c4.09,1.79,3.64,6.69,3.64,6.69s3.86-2.71,7.57-.33c3.5,2.25,2.85,6.77,2.85,6.77s4.24-2,7.76.79,1.55,7.23,1.55,7.23,4.07-2,7.06.71.41,7.9.41,7.9,4.78-.12,7.27,3-.79,8.72-.79,8.72Z"/><path class="cls-5" d="M97.64,273.78c.48,3.08,1.48,6.18,3.45,8.09a6.24,6.24,0,0,0,3.33,1.76,8.38,8.38,0,0,0,1.88.12,8.26,8.26,0,0,0,1-.08l.48-.08.38-.13a5.6,5.6,0,0,0,2.46-1.92,9.48,9.48,0,0,0,1.41-3.07,14.33,14.33,0,0,0,.41-3.63c0-.62-.06-1.26-.11-1.9a15.25,15.25,0,0,0-.34-1.82,21.87,21.87,0,0,0-3.06-6.92,17.77,17.77,0,0,0-2.29-2.76,14.74,14.74,0,0,0-2.6-2.08,14.18,14.18,0,0,0-5.91-2.1,20.48,20.48,0,0,0-3.34-.12,15.3,15.3,0,0,0-3.12.49,12.12,12.12,0,0,0-5.08,2.82,15.32,15.32,0,0,0-3.55,5.1,20.61,20.61,0,0,0-1.61,6.61,20.26,20.26,0,0,0,.7,6.93,18.12,18.12,0,0,0,3,6.17c.36.46.72.9,1.12,1.32s.9.93,1.37,1.38a35.4,35.4,0,0,0,3,2.54A36.72,36.72,0,0,0,94,292.77c1.16.72,2.39,1.4,3.67,2a81.68,81.68,0,0,0,8.15,3.42c5.7,2.11,11.82,3.87,17.86,6.14a82,82,0,0,1,8.93,3.92c2.9,1.54,5.67,3.12,8.4,4.86a58.68,58.68,0,0,1,14.53,13,59.46,59.46,0,0,1,9.29,17c4.32,12.16,5.47,25,5.44,37.58s-1.42,25.12-1.7,37.85l-7.3-1.19a92,92,0,0,0,2.36-9c.7-3,1.19-6.09,1.63-9.16a141.31,141.31,0,0,0,1.23-18.49,125.61,125.61,0,0,0-1.14-18.42,81.38,81.38,0,0,0-4.43-17.7,53.07,53.07,0,0,0-9-15.46,53.75,53.75,0,0,0-13.73-11.36,61.93,61.93,0,0,0-16.59-6.88c-5.83-1.6-11.92-2.54-18.24-3.8a84.5,84.5,0,0,1-9.61-2.49,47.36,47.36,0,0,1-9.57-4.3,44.12,44.12,0,0,1-4.44-3.09c-.71-.57-1.38-1.13-2.09-1.77a27.62,27.62,0,0,1-2.08-2.11,30.8,30.8,0,0,1-6-10.12,32.94,32.94,0,0,1-1.89-11.51,34.26,34.26,0,0,1,.59-5.87A32,32,0,0,1,70,260.08,27.48,27.48,0,0,1,77.11,250a25.88,25.88,0,0,1,17.49-6.42,29.78,29.78,0,0,1,6,.68,24.93,24.93,0,0,1,11,5.48,26.13,26.13,0,0,1,6.83,9.58,29.61,29.61,0,0,1,2.38,10.89,24.81,24.81,0,0,1-.09,2.85,26.09,26.09,0,0,1-.42,2.77,19.86,19.86,0,0,1-1.91,5.41,14.24,14.24,0,0,1-3.8,4.62A10.19,10.19,0,0,1,108.8,288H108l-.68,0a13.14,13.14,0,0,1-1.37-.17,11.34,11.34,0,0,1-2.69-.79,9.35,9.35,0,0,1-4.18-3.61,11.8,11.8,0,0,1-1.58-4.84A17.48,17.48,0,0,1,97.64,273.78Z"/><circle class="cls-2" cx="101.68" cy="273.01" r="4.1"/><path class="cls-4" d="M308.91,241.8c0,19.32-3.18,51.35,24.55,51.35"/><path class="cls-4" d="M342.72,230.54c0,11.52-1.9,30.62,14.64,30.62"/><path class="cls-4" d="M329.68,255.49c0,8.56-1.41,22.76,10.88,22.76"/><path class="cls-2" d="M307.83,211.87c-4.81,0-11.51,6-12.45,26.81a4.89,4.89,0,0,0,4.88,5.1h15.15a4.9,4.9,0,0,0,4.88-5.1C319.35,217.88,312.64,211.87,307.83,211.87Z"/><path class="cls-1" d="M329.63,240.08c-2.18,0-5.2,2.88-5.67,12.82a2.76,2.76,0,0,0,2.87,2.77h5.59a2.77,2.77,0,0,0,2.88-2.77C334.83,243,331.81,240.08,329.63,240.08Z"/><path class="cls-3" d="M342.58,211.25c-3.1,0-7.35,3.66-8.35,16a5.31,5.31,0,0,0,5.28,5.74h6.14a5.31,5.31,0,0,0,5.28-5.74C349.93,214.91,345.68,211.25,342.58,211.25Z"/><path class="cls-4" d="M291,279.5c0,12.76-1.87,33.9,14.45,33.9"/><path class="cls-3" d="M291,256.89c-3.72,0-8.89,5.33-9.7,23.69a4.92,4.92,0,0,0,4.92,5.11h9.56a4.92,4.92,0,0,0,4.92-5.11C299.89,262.22,294.72,256.89,291,256.89Z"/><path class="cls-3" d="M596.42,562.38c-39.21-54.29-19.53-95.51-24.85-139.49-10.61-87.65,8.86-130.4,2.26-156.21-23.32-91.21-56.09-85.13-93.63-81-33.77,3.75-51.61,22.23-86.83,36-19.19,7.49-41.76,29.09-51.59,49.15-14.55,29.72-35.83,21.12-47,58.59-13.39,44.93-44.46,44.35-66.37,68.54s-8.29,65.44-36.31,98.76C108.07,596.7,83.93,603,84,626.69c38.7,8.56,30.4,84.74,144.39,78,77.22-4.57,114.75,3.6,147.13,12,30.26,7.9,56,16,105.43,14.28,86.69-3.1,134.29-63.78,139.19-84C623.93,631.52,619.32,594.08,596.42,562.38Z"/><path class="cls-2" d="M225.74,135.15c44.31,12.34,88.37,24.49,215.66,77.92,58.54,24.57,127.75,64.47,198.53,95.2,0,0-26.42-91.37-168.12-147S225.74,135.15,225.74,135.15Z"/><path class="cls-5" d="M493,475.21a11.06,11.06,0,0,0-6.12-12c-.37-.17-.75-.34-1.14-.49l-.47,1.37c.33.13.65.28.95.42a9.55,9.55,0,0,1,5.35,10.36Z"/><path class="cls-6" d="M486.49,449.19c-.06.55,12.36,4.16,18.31-13.92C504.8,435.27,487.74,437.11,486.49,449.19Z"/><path class="cls-6" d="M465,476.63s3.41-18.07,19-15.26C484,461.37,484.28,474.26,465,476.63Z"/><path class="cls-6" d="M501.28,532.09c-.06.54,12,7,19.06-10.5C520.34,521.59,502.76,520.38,501.28,532.09Z"/><path class="cls-5" d="M525.61,493.23a14.57,14.57,0,0,1,14.22-10.67c.54,0,1.08,0,1.64.07l-.25,1.9c-.46,0-.92,0-1.36,0-8.59,0-11.54,6.64-12.35,9.14Z"/><path class="cls-6" d="M554.88,584.76c-6.28-7.2-10.33-22.74-11.74-45a338.12,338.12,0,0,1,2.39-62.32c5-38-4.8-56.45-6.91-59.9l-3.39,2.35c1.95,3.38,11,21.36,6.24,57A347.23,347.23,0,0,0,539,539.2c1.41,23.72,5.86,40.41,12.87,48.37Z"/><path class="cls-5" d="M510.41,441.63a11.05,11.05,0,0,0-10.8-8.1c-.4,0-.81,0-1.23.05l.18,1.45c.35,0,.7,0,1,0a9.53,9.53,0,0,1,9.36,6.94Z"/><path class="cls-6" d="M487.18,563.69c6.29-7.21,10.34-22.74,11.74-45a336.38,336.38,0,0,0-2.39-62.32c-5-37.95,4.81-56.45,6.92-59.89l3.39,2.34c-1.95,3.38-11,21.36-6.24,57a348.23,348.23,0,0,1,2.45,62.33c-1.42,23.71-5.86,40.41-12.88,48.36Z"/><path class="cls-5" d="M467.86,414.83a11,11,0,0,1,10.79-8.1q.6,0,1.23.06l-.18,1.44c-.35,0-.7,0-1,0a9.54,9.54,0,0,0-9.36,6.94Z"/><path class="cls-6" d="M471.6,531.34c6.29-7.2,10.34-22.74,11.74-45A336.52,336.52,0,0,0,481,424c-5-37.95,4.81-56.44,6.92-59.89l3.39,2.35c-1.95,3.38-11,21.36-6.24,57a348.09,348.09,0,0,1,2.45,62.32c-1.42,23.72-5.87,40.41-12.88,48.37Z"/><path class="cls-5" d="M519.87,500.22s.52,21.09-4.82,40.26a2.56,2.56,0,0,0,4.4,2.37c6.56-7.76,14.56-21.69,12.11-42l-6.21-5.33Z"/><path class="cls-1" d="M524.05,492.3c-2,1.71-4.54,4.78-6.61,10.14a8.09,8.09,0,0,0,6.15-2.15,9.77,9.77,0,0,0,2.28,6.24,10.24,10.24,0,0,0,2.6-5.54,5.59,5.59,0,0,0,4.74,3.63A23,23,0,0,0,529.33,493,3.57,3.57,0,0,0,524.05,492.3Z"/><path class="cls-5" d="M523.69,511.66a2.62,2.62,0,0,0,3,3.44"/><path class="cls-5" d="M522.55,519.73a2.61,2.61,0,0,0,3,3.43"/><path class="cls-5" d="M521,527.64a2.62,2.62,0,0,0,3,3.43"/><path class="cls-5" d="M462.26,422.1s.48,19.69-4.51,37.61a2.39,2.39,0,0,0,4.11,2.21c6.13-7.25,13.6-20.26,11.31-39.21l-5.8-5Z"/><path class="cls-1" d="M466.16,414.69a23.36,23.36,0,0,0-6.18,9.48,7.58,7.58,0,0,0,5.75-2,9.12,9.12,0,0,0,2.13,5.83,9.58,9.58,0,0,0,2.43-5.18,5.21,5.21,0,0,0,4.43,3.39,21.5,21.5,0,0,0-3.63-10.89A3.33,3.33,0,0,0,466.16,414.69Z"/><path class="cls-5" d="M465.82,432.78a2.45,2.45,0,0,0,2.81,3.21"/><path class="cls-5" d="M464.76,440.32a2.45,2.45,0,0,0,2.8,3.21"/><path class="cls-5" d="M463.29,447.71a2.45,2.45,0,0,0,2.81,3.21"/><path class="cls-5" d="M516.87,448.36a68.82,68.82,0,0,0,16.6,23.91,2.35,2.35,0,0,1-2.22,4c-8-2.26-18.92-8.42-22.77-25.21l2.15-4.88Z"/><path class="cls-4" d="M516.74,456.49a2.2,2.2,0,0,1-.78,3.76"/><path class="cls-4" d="M520.91,461.92a2.2,2.2,0,0,1-.78,3.76"/><path class="cls-4" d="M525.33,467.07a2.2,2.2,0,0,1-.78,3.76"/><path class="cls-1" d="M513.18,441.63a42.29,42.29,0,0,1,7.53,8.81,7,7,0,0,1-5.62-.75,8.48,8.48,0,0,1-.85,5.71,8.85,8.85,0,0,1-3.18-4.27,4.89,4.89,0,0,1-3.41,3.93,29.94,29.94,0,0,1,.08-11.73A3.35,3.35,0,0,1,513.18,441.63Z"/><path class="cls-5" d="M496.41,481.63A59.34,59.34,0,0,0,504,505.55a2,2,0,0,1-2.83,2.71c-6-3.87-13.47-11.73-12.39-26.55l3-3.48Z"/><path class="cls-4" d="M494.25,488.3a1.9,1.9,0,0,1-1.6,2.9"/><path class="cls-4" d="M496.31,493.84a1.9,1.9,0,0,1-1.59,2.9"/><path class="cls-4" d="M498.65,499.2a1.9,1.9,0,0,1-1.6,2.9"/><path class="cls-1" d="M495.07,475.14a36.36,36.36,0,0,1,4,9.18,6,6,0,0,1-4.44-2.05,7.31,7.31,0,0,1-2.15,4.5,7.67,7.67,0,0,1-1.54-4.33,4.21,4.21,0,0,1-3.8,2.37,25.69,25.69,0,0,1,3-9.65A2.89,2.89,0,0,1,495.07,475.14Z"/><path class="cls-6" d="M543.41,497.38c-.46.05-.7,12.32,15.38,14.38C558.79,511.76,553.55,496.23,543.41,497.38Z"/><path class="cls-6" d="M538.88,534.65c-.24-.52-13.75,3.15-9.65,22.64C529.23,557.29,544.16,546.16,538.88,534.65Z"/><path class="cls-6" d="M502.45,472.79c-.38,0-1.6,12.44,12.37,15.34C514.82,488.13,512.11,473.35,502.45,472.79Z"/><path class="cls-5" d="M456.2,476.87a14.59,14.59,0,0,0-14.4-10.44c-.53,0-1.08,0-1.63.1l.27,1.9c.47-.05.92-.07,1.37-.08,8.59-.14,11.65,6.46,12.49,8.94Z"/><path class="cls-6" d="M421.09,530.27c6.86-6.66,12.18-21.81,15.41-43.9a337,337,0,0,0,2.74-62.31c-1.88-38.24,9.44-55.86,11.82-59.13l3.18,2.62c-2.21,3.21-12.67,20.39-10.9,56.3a347.37,347.37,0,0,1-2.69,62.32c-3.36,23.52-9.17,39.79-16.81,47.14Z"/><path class="cls-5" d="M461.52,482.53s.79,17.09,6.2,32.31A2.07,2.07,0,0,1,464.3,517c-5.76-5.9-13-16.72-12.19-33.27l4.72-4.66Z"/><path class="cls-1" d="M457.69,476.35a20.19,20.19,0,0,1,5.93,7.83,6.57,6.57,0,0,1-5.1-1.38A7.88,7.88,0,0,1,457,488a8.35,8.35,0,0,1-2.42-4.35,4.56,4.56,0,0,1-3.63,3.22,18.73,18.73,0,0,1,2.47-9.66A2.9,2.9,0,0,1,457.69,476.35Z"/><path class="cls-5" d="M459.09,492a2.13,2.13,0,0,1-2.24,3"/><path class="cls-5" d="M460.47,498.47a2.13,2.13,0,0,1-2.24,2.95"/><path class="cls-5" d="M462.19,504.78a2.13,2.13,0,0,1-2.24,3"/><path class="cls-6" d="M431,518.24c-.18.42,13.73,5.13,20.73-10C451.72,508.23,436.51,504.84,431,518.24Z"/><path class="cls-5" d="M556.91,533.37a14.57,14.57,0,0,1,6.21-16.67c.44-.28.91-.56,1.41-.82l.82,1.74c-.41.22-.81.45-1.18.69-7.23,4.63-6.12,11.82-5.45,14.36Z"/><path class="cls-5" d="M551.67,537s-2.13,17-8.73,31.73a2.07,2.07,0,0,0,3.24,2.42c6.21-5.43,14.3-15.64,14.78-32.21l-4.34-5Z"/><path class="cls-1" d="M556,531.11a20.18,20.18,0,0,0-6.54,7.34,6.57,6.57,0,0,0,5.2-1,7.92,7.92,0,0,0,1.07,5.28,8.29,8.29,0,0,0,2.76-4.14,4.55,4.55,0,0,0,3.37,3.49,18.63,18.63,0,0,0-1.71-9.82A2.89,2.89,0,0,0,556,531.11Z"/><path class="cls-5" d="M553.35,546.6a2.13,2.13,0,0,0,2,3.12"/><path class="cls-5" d="M551.46,552.94a2.13,2.13,0,0,0,2,3.12"/><path class="cls-5" d="M549.25,559.09a2.13,2.13,0,0,0,2,3.12"/><path class="cls-6" d="M551.05,590.56c6.31-7.18,10.42-22.7,11.89-45a335.94,335.94,0,0,0-2.17-62.33c-4.89-38,5-56.43,7.13-59.87l3.38,2.36c-2,3.37-11,21.32-6.44,57a347.74,347.74,0,0,1,2.23,62.33c-1.5,23.71-6,40.39-13,48.32Z"/><path class="cls-6" d="M562.55,569c-.14.43,14.1,4,19.88-11.62C582.43,557.34,567,555.17,562.55,569Z"/><path class="cls-5" d="M262.05,669.94a30.05,30.05,0,0,1,1.16-6.7,22.51,22.51,0,0,1,2.8-6.31,11.75,11.75,0,0,1,5.44-4.57,10.12,10.12,0,0,1,3.62-.6,6.71,6.71,0,0,1,3.63,1.11,12.81,12.81,0,0,1,4.42,5.68,33.18,33.18,0,0,1,2.05,6.63,65.7,65.7,0,0,1,1.34,13.63h-1.74a80.24,80.24,0,0,0-1.5-13.22,34,34,0,0,0-1.92-6.27,11,11,0,0,0-3.62-5,4.94,4.94,0,0,0-2.72-.9,8.32,8.32,0,0,0-3,.43,10.39,10.39,0,0,0-4.92,3.79A32.62,32.62,0,0,0,262.05,669.94Z"/><path class="cls-5" d="M270.65,643.88a10.32,10.32,0,0,1,7.17,1.94,16.57,16.57,0,0,1,4.94,5.81,13,13,0,0,1,.82,1.73l.73,1.76c.35,1.21.8,2.4,1,3.64s.52,2.46.67,3.7.25,2.49.33,3.74l-1.71.14c-.21-1.2-.35-2.4-.53-3.6s-.46-2.36-.68-3.54-.62-2.31-.91-3.47l-.62-1.67a10.3,10.3,0,0,0-.71-1.63,16.11,16.11,0,0,0-4.07-5.71,16.29,16.29,0,0,0-1.4-1.08,11.25,11.25,0,0,0-1.57-.84A9.5,9.5,0,0,0,270.65,643.88Z"/><path class="cls-5" d="M284.75,675.33a59.77,59.77,0,0,1,.15-11c.44-3.65,1.08-7.41,3.15-10.77a7.5,7.5,0,0,1,4.8-3.61,7.59,7.59,0,0,1,5.8,1.29,10.16,10.16,0,0,1,3.39,4.62,16.45,16.45,0,0,1,1,5.42,22.23,22.23,0,0,0-2-5,10,10,0,0,0-3.34-3.74,6.34,6.34,0,0,0-4.57-.84,5.65,5.65,0,0,0-3.54,2.87,17.34,17.34,0,0,0-1.85,4.78,37.36,37.36,0,0,0-.94,5.21,81.23,81.23,0,0,0-.48,10.69Z"/><path class="cls-5" d="M293.94,674.65a10.43,10.43,0,0,0-4.82,3.36,17.8,17.8,0,0,0-2.63,4.12v-1.76c0-1.18,0-2.37,0-3.56l.07-12.72c0-3.9,0-7.81-.09-11.71s-.33-7.81-.84-11.71c-.52,3.9-.72,7.81-.85,11.71s-.13,7.81-.09,11.71v2a9.9,9.9,0,0,0-3.42-4.68,6.49,6.49,0,0,0-3.53-1.09c-.61,0-1.18.08-1.76.13s-1.15.26-1.72.4a10,10,0,0,0-5.2,4.41,14.14,14.14,0,0,0-1.89,6.29,18.55,18.55,0,0,1,1.2-3,15,15,0,0,1,1.64-2.67,9.66,9.66,0,0,1,4.77-3.45c.48-.1.95-.23,1.44-.29s1-.08,1.46-.06a4.6,4.6,0,0,1,2.53.86,9.22,9.22,0,0,1,3.11,4.83,38.28,38.28,0,0,1,1.42,12.5l.07,12.94h1.58l.1-4.49a19.16,19.16,0,0,1,1.32-5.08,21.47,21.47,0,0,1,2.48-4.75,10.17,10.17,0,0,1,3.93-3.44,7.74,7.74,0,0,1,5.32-.25A7.44,7.44,0,0,0,293.94,674.65Z"/><path class="cls-5" d="M313.13,669.29a30.74,30.74,0,0,1,1.16-6.7,22.48,22.48,0,0,1,2.81-6.3,11.77,11.77,0,0,1,5.43-4.57,9.93,9.93,0,0,1,3.63-.61,6.8,6.8,0,0,1,3.63,1.12,12.85,12.85,0,0,1,4.42,5.67,33.07,33.07,0,0,1,2.05,6.64,65.7,65.7,0,0,1,1.34,13.63h-1.74A80.25,80.25,0,0,0,334.35,665a33.73,33.73,0,0,0-1.91-6.27,11.11,11.11,0,0,0-3.62-5,5,5,0,0,0-2.72-.89,8.32,8.32,0,0,0-3,.43,10.39,10.39,0,0,0-4.92,3.79A32.82,32.82,0,0,0,313.13,669.29Z"/><path class="cls-5" d="M321.74,643.24a10.29,10.29,0,0,1,7.16,1.94,16.37,16.37,0,0,1,4.94,5.81,10.51,10.51,0,0,1,.82,1.73l.73,1.76c.35,1.21.8,2.4,1.05,3.64s.52,2.46.67,3.7.24,2.49.32,3.73l-1.7.14c-.21-1.19-.36-2.39-.53-3.59s-.46-2.36-.68-3.55-.62-2.3-.91-3.47l-.63-1.67a10.67,10.67,0,0,0-.7-1.63,16.11,16.11,0,0,0-4.07-5.71c-.44-.38-.92-.73-1.4-1.07a12,12,0,0,0-1.58-.84A9.45,9.45,0,0,0,321.74,643.24Z"/><path class="cls-5" d="M335.84,674.68a58.8,58.8,0,0,1,.15-11c.44-3.65,1.07-7.41,3.15-10.77a7.47,7.47,0,0,1,4.8-3.61,7.57,7.57,0,0,1,5.8,1.29,10.23,10.23,0,0,1,3.39,4.62,16.65,16.65,0,0,1,1.05,5.41,22.34,22.34,0,0,0-2-5,10,10,0,0,0-3.34-3.74,6.29,6.29,0,0,0-4.57-.84,5.66,5.66,0,0,0-3.55,2.87,17.64,17.64,0,0,0-1.84,4.78,39,39,0,0,0-.95,5.2,84.89,84.89,0,0,0-.48,10.7Z"/><path class="cls-5" d="M345,674a10.43,10.43,0,0,0-4.82,3.36,17.74,17.74,0,0,0-2.63,4.11v-1.75c0-1.18,0-2.37,0-3.56l.07-12.72q.06-5.87-.09-11.71c-.13-3.9-.33-7.81-.85-11.71-.51,3.9-.72,7.81-.84,11.71s-.13,7.8-.09,11.71v2a9.9,9.9,0,0,0-3.42-4.68,6.44,6.44,0,0,0-3.54-1.09c-.6,0-1.17.08-1.75.12s-1.15.27-1.72.41a10,10,0,0,0-5.2,4.41A14.11,14.11,0,0,0,318.3,671a17.67,17.67,0,0,1,1.2-3,14.56,14.56,0,0,1,1.64-2.68,9.66,9.66,0,0,1,4.76-3.44c.49-.1,1-.23,1.44-.29s1-.08,1.47-.06a4.63,4.63,0,0,1,2.53.86,9.2,9.2,0,0,1,3.11,4.83,38.77,38.77,0,0,1,1.42,12.49l.07,12.95h1.58l.09-4.5a20.06,20.06,0,0,1,1.32-5.08,21.66,21.66,0,0,1,2.49-4.74,10.14,10.14,0,0,1,3.92-3.44,7.63,7.63,0,0,1,5.32-.25A7.36,7.36,0,0,0,345,674Z"/><path class="cls-5" d="M229.81,643.63a30.64,30.64,0,0,1,1.16-6.7,22.48,22.48,0,0,1,2.81-6.3,11.66,11.66,0,0,1,5.43-4.57,9.91,9.91,0,0,1,3.62-.61,6.8,6.8,0,0,1,3.64,1.11,12.88,12.88,0,0,1,4.42,5.68,34.53,34.53,0,0,1,2.05,6.63,65.84,65.84,0,0,1,1.34,13.63h-1.74A80.25,80.25,0,0,0,251,639.28a34.4,34.4,0,0,0-1.91-6.26,11.18,11.18,0,0,0-3.62-5,5,5,0,0,0-2.72-.9,8.42,8.42,0,0,0-3,.44,10.25,10.25,0,0,0-4.91,3.79A32.59,32.59,0,0,0,229.81,643.63Z"/><path class="cls-5" d="M238.41,617.58a10.27,10.27,0,0,1,7.17,1.94,16.47,16.47,0,0,1,4.94,5.81,12.31,12.31,0,0,1,.82,1.72l.73,1.76c.35,1.21.8,2.41,1.05,3.64s.51,2.46.66,3.71.25,2.48.33,3.73l-1.71.14c-.2-1.2-.35-2.4-.53-3.59s-.45-2.37-.67-3.55-.62-2.31-.91-3.47l-.63-1.67a10.26,10.26,0,0,0-.7-1.63,16.36,16.36,0,0,0-4.07-5.71q-.67-.57-1.41-1.08a11.25,11.25,0,0,0-1.57-.84A9.64,9.64,0,0,0,238.41,617.58Z"/><path class="cls-5" d="M252.51,649a59.77,59.77,0,0,1,.16-11c.44-3.65,1.07-7.41,3.15-10.77a7.49,7.49,0,0,1,4.79-3.6,7.58,7.58,0,0,1,5.81,1.28,10.14,10.14,0,0,1,3.38,4.62,16.46,16.46,0,0,1,1.06,5.42,22.17,22.17,0,0,0-2-5,9.9,9.9,0,0,0-3.34-3.75,6.33,6.33,0,0,0-4.57-.83,5.65,5.65,0,0,0-3.54,2.87A17.57,17.57,0,0,0,255.6,633a37.37,37.37,0,0,0-.95,5.21,84.82,84.82,0,0,0-.48,10.69Z"/><path class="cls-5" d="M261.7,648.34a10.47,10.47,0,0,0-4.81,3.36,17.68,17.68,0,0,0-2.63,4.12v-1.76c0-1.18,0-2.37,0-3.56l.07-12.72q.08-5.85-.08-11.71c-.13-3.9-.34-7.8-.85-11.7-.51,3.9-.72,7.8-.85,11.7s-.13,7.81-.08,11.71v2.06a9.94,9.94,0,0,0-3.42-4.69,6.53,6.53,0,0,0-3.54-1.09c-.6,0-1.17.09-1.76.13s-1.14.26-1.71.41a9.91,9.91,0,0,0-5.2,4.4,14.29,14.29,0,0,0-1.9,6.29,19,19,0,0,1,1.21-3,14.44,14.44,0,0,1,1.63-2.67,9.72,9.72,0,0,1,4.77-3.45c.48-.09.95-.23,1.44-.29s1-.08,1.47-.06a4.71,4.71,0,0,1,2.53.86,9.27,9.27,0,0,1,3.11,4.84A38.46,38.46,0,0,1,252.54,654l.07,13h1.59l.09-4.5a19.65,19.65,0,0,1,1.32-5.08,21.22,21.22,0,0,1,2.49-4.74,10.16,10.16,0,0,1,3.92-3.45,7.69,7.69,0,0,1,5.32-.24A7.43,7.43,0,0,0,261.7,648.34Z"/><path class="cls-5" d="M286.13,637.44a30.74,30.74,0,0,1,1.16-6.7,22.48,22.48,0,0,1,2.81-6.3,11.71,11.71,0,0,1,5.43-4.57,9.93,9.93,0,0,1,3.63-.61,6.79,6.79,0,0,1,3.63,1.11,12.94,12.94,0,0,1,4.42,5.68,33.07,33.07,0,0,1,2.05,6.64,65.7,65.7,0,0,1,1.34,13.63h-1.74a80.37,80.37,0,0,0-1.51-13.23,33.86,33.86,0,0,0-1.91-6.26,11.11,11.11,0,0,0-3.62-5,5.1,5.1,0,0,0-2.72-.9,8.33,8.33,0,0,0-3,.44,10.39,10.39,0,0,0-4.92,3.79A32.75,32.75,0,0,0,286.13,637.44Z"/><path class="cls-5" d="M294.74,611.39a10.29,10.29,0,0,1,7.16,1.94,16.37,16.37,0,0,1,4.94,5.81,10.81,10.81,0,0,1,.82,1.72l.73,1.77c.35,1.21.8,2.4,1.05,3.63s.52,2.47.67,3.71.24,2.49.32,3.73l-1.7.14c-.21-1.19-.36-2.39-.53-3.59s-.46-2.36-.68-3.55-.62-2.3-.91-3.47l-.63-1.67a10.67,10.67,0,0,0-.7-1.63,16.11,16.11,0,0,0-4.07-5.71c-.44-.38-.92-.73-1.4-1.08a13.19,13.19,0,0,0-1.58-.83A9.45,9.45,0,0,0,294.74,611.39Z"/><path class="cls-5" d="M308.84,642.83a58.8,58.8,0,0,1,.15-11c.44-3.65,1.07-7.41,3.15-10.77a7.47,7.47,0,0,1,4.8-3.61,7.57,7.57,0,0,1,5.8,1.29,10.23,10.23,0,0,1,3.39,4.62,16.65,16.65,0,0,1,1.05,5.41,22.15,22.15,0,0,0-2-5,10.07,10.07,0,0,0-3.34-3.75,6.33,6.33,0,0,0-4.57-.83,5.66,5.66,0,0,0-3.55,2.87,17.57,17.57,0,0,0-1.84,4.77A39.49,39.49,0,0,0,311,632a84.89,84.89,0,0,0-.48,10.7Z"/><path class="cls-5" d="M318,642.16a10.48,10.48,0,0,0-4.82,3.35,18,18,0,0,0-2.63,4.12v-1.76c0-1.17,0-2.36,0-3.56l.07-12.71q.06-5.86-.09-11.71c-.13-3.91-.33-7.81-.85-11.71-.51,3.9-.72,7.8-.84,11.71s-.13,7.8-.09,11.71v2A9.93,9.93,0,0,0,305.4,629a6.52,6.52,0,0,0-3.54-1.08c-.6,0-1.17.08-1.75.12s-1.15.27-1.72.41a9.93,9.93,0,0,0-5.2,4.41,14.25,14.25,0,0,0-1.9,6.28,19.37,19.37,0,0,1,1.21-3,14.82,14.82,0,0,1,1.64-2.67A9.7,9.7,0,0,1,298.9,630c.49-.09,1-.22,1.44-.29s1-.08,1.47-.06a4.71,4.71,0,0,1,2.53.86,9.27,9.27,0,0,1,3.11,4.84,38.74,38.74,0,0,1,1.42,12.49l.07,12.95h1.58l.09-4.5a20.06,20.06,0,0,1,1.32-5.08,21.43,21.43,0,0,1,2.49-4.74,10.25,10.25,0,0,1,3.92-3.45,7.69,7.69,0,0,1,5.32-.24A7.36,7.36,0,0,0,318,642.16Z"/><path class="cls-5" d="M332.17,633.62a30.05,30.05,0,0,1,1.16-6.7,22.05,22.05,0,0,1,2.8-6.3,11.77,11.77,0,0,1,5.44-4.58,10.08,10.08,0,0,1,3.62-.6,6.71,6.71,0,0,1,3.63,1.11,12.81,12.81,0,0,1,4.42,5.68,33.18,33.18,0,0,1,2.05,6.63,65.77,65.77,0,0,1,1.34,13.63h-1.74a80.25,80.25,0,0,0-1.51-13.22,33.22,33.22,0,0,0-1.91-6.27,11.13,11.13,0,0,0-3.62-5,5,5,0,0,0-2.72-.9,8.33,8.33,0,0,0-3,.44,10.3,10.3,0,0,0-4.92,3.78A32.69,32.69,0,0,0,332.17,633.62Z"/><path class="cls-5" d="M340.77,607.57a10.31,10.31,0,0,1,7.17,1.93,16.52,16.52,0,0,1,4.94,5.82,11.23,11.23,0,0,1,.81,1.72l.73,1.76c.35,1.21.81,2.41,1.05,3.64s.52,2.46.67,3.7.24,2.49.33,3.74l-1.71.14c-.21-1.2-.36-2.4-.53-3.6s-.46-2.36-.68-3.54-.62-2.31-.91-3.47l-.62-1.67a10.3,10.3,0,0,0-.71-1.63,16.11,16.11,0,0,0-4.07-5.71c-.44-.38-.92-.74-1.4-1.08a11.84,11.84,0,0,0-1.57-.84A9.74,9.74,0,0,0,340.77,607.57Z"/><path class="cls-5" d="M354.87,639a58.91,58.91,0,0,1,.15-11c.44-3.65,1.07-7.41,3.15-10.77a7.5,7.5,0,0,1,4.8-3.61,7.6,7.6,0,0,1,5.8,1.29,10.23,10.23,0,0,1,3.39,4.62,16.45,16.45,0,0,1,1,5.42,22.15,22.15,0,0,0-2-5,9.91,9.91,0,0,0-3.34-3.75,6.34,6.34,0,0,0-4.57-.84,5.67,5.67,0,0,0-3.54,2.88A17.15,17.15,0,0,0,358,623a38.9,38.9,0,0,0-.95,5.21,84.82,84.82,0,0,0-.48,10.69Z"/><path class="cls-5" d="M364.06,638.33a10.5,10.5,0,0,0-4.82,3.36,18,18,0,0,0-2.63,4.12v-1.76c0-1.18,0-2.37,0-3.57l.07-12.71q.06-5.85-.09-11.71c-.12-3.9-.33-7.8-.84-11.71a115.46,115.46,0,0,0-.85,11.71q-.15,5.87-.09,11.71v2.05a9.9,9.9,0,0,0-3.42-4.68,6.52,6.52,0,0,0-3.53-1.09c-.61,0-1.18.09-1.76.13s-1.15.26-1.72.4a10,10,0,0,0-5.2,4.41,14.14,14.14,0,0,0-1.89,6.29,18,18,0,0,1,1.2-3,15,15,0,0,1,1.64-2.67,9.66,9.66,0,0,1,4.77-3.45c.48-.1.95-.23,1.43-.29s1-.08,1.47-.06a4.68,4.68,0,0,1,2.53.86,9.27,9.27,0,0,1,3.11,4.84A38.46,38.46,0,0,1,354.9,644l.07,13h1.58l.09-4.5a20,20,0,0,1,1.32-5.08,21.64,21.64,0,0,1,2.49-4.74,10.19,10.19,0,0,1,3.93-3.45,7.72,7.72,0,0,1,5.31-.25A7.45,7.45,0,0,0,364.06,638.33Z"/><path class="cls-7" d="M445,176s4.73-4.6,10.34,1.67S440.53,189.8,445,176Z"/><path class="cls-4" d="M445,176s4.73-4.6,10.34,1.67S440.53,189.8,445,176Z"/><path class="cls-6" d="M451.65,178.87s5.67-4.2,7.59,2.83-.27,14.68,2.55,24.69-7.61,20.26-14.56,18.33S451.65,178.87,451.65,178.87Z"/><path class="cls-8" d="M441.57,226c6,0,13.76-4.26,13.76-15.75s-2.48-18.28-1.41-22.45-1.07-13.32-12.35-11.62-11.34,14.48-11.34,26.93S429.86,226,441.57,226Z"/><path class="cls-4" d="M441.57,226c6,0,13.76-4.26,13.76-15.75s-2.48-18.28-1.41-22.45-1.07-13.32-12.35-11.62-11.34,14.48-11.34,26.93S429.86,226,441.57,226Z"/><path class="cls-8" d="M486.82,155.93s4.73-4.6,10.34,1.68S482.36,169.78,486.82,155.93Z"/><path class="cls-4" d="M486.82,155.93s4.73-4.6,10.34,1.68S482.36,169.78,486.82,155.93Z"/><path class="cls-6" d="M493.48,158.85s5.68-4.2,7.59,2.83-.26,14.68,2.56,24.7S496,206.63,489.07,204.7,493.48,158.85,493.48,158.85Z"/><path class="cls-8" d="M483.4,206c6,0,13.76-4.26,13.76-15.75s-2.47-18.28-1.41-22.45-1.06-13.32-12.35-11.62-11.34,14.48-11.34,26.93S471.69,206,483.4,206Z"/><path class="cls-4" d="M483.4,206c6,0,13.76-4.26,13.76-15.75s-2.47-18.28-1.41-22.45-1.06-13.32-12.35-11.62-11.34,14.48-11.34,26.93S471.69,206,483.4,206Z"/><path class="cls-7" d="M468.42,209.36s4.74-4.6,10.34,1.68S464,223.21,468.42,209.36Z"/><path class="cls-4" d="M468.42,209.36s4.74-4.6,10.34,1.68S464,223.21,468.42,209.36Z"/><path class="cls-6" d="M475.08,212.28s5.68-4.2,7.59,2.83-.26,14.68,2.56,24.7-7.62,20.25-14.56,18.32S475.08,212.28,475.08,212.28Z"/><path class="cls-8" d="M465,259.39c6,0,13.76-4.26,13.76-15.75s-2.47-18.28-1.41-22.45-1.06-13.32-12.35-11.62-11.34,14.48-11.34,26.93S453.29,259.39,465,259.39Z"/><path class="cls-4" d="M465,259.39c6,0,13.76-4.26,13.76-15.75s-2.47-18.28-1.41-22.45-1.06-13.32-12.35-11.62-11.34,14.48-11.34,26.93S453.29,259.39,465,259.39Z"/><path class="cls-7" d="M405.53,198.48s4.73-4.6,10.34,1.67S401.07,212.33,405.53,198.48Z"/><path class="cls-4" d="M405.53,198.48s4.73-4.6,10.34,1.67S401.07,212.33,405.53,198.48Z"/><path class="cls-6" d="M412.19,201.4s5.68-4.2,7.59,2.83-.26,14.68,2.56,24.69-7.62,20.26-14.56,18.33S412.19,201.4,412.19,201.4Z"/><path class="cls-8" d="M402.11,248.51c6,0,13.76-4.26,13.76-15.75s-2.47-18.28-1.41-22.45S413.4,197,402.11,198.69s-11.34,14.48-11.34,26.93S390.4,248.51,402.11,248.51Z"/><path class="cls-4" d="M402.11,248.51c6,0,13.76-4.26,13.76-15.75s-2.47-18.28-1.41-22.45S413.4,197,402.11,198.69s-11.34,14.48-11.34,26.93S390.4,248.51,402.11,248.51Z"/><path class="cls-7" d="M427.67,222.91s4.73-4.6,10.34,1.67S423.21,236.76,427.67,222.91Z"/><path class="cls-4" d="M427.67,222.91s4.73-4.6,10.34,1.67S423.21,236.76,427.67,222.91Z"/><path class="cls-6" d="M434.33,225.83s5.67-4.2,7.59,2.83-.27,14.68,2.55,24.69-7.61,20.26-14.56,18.33S434.33,225.83,434.33,225.83Z"/><path class="cls-8" d="M424.25,272.94c6,0,13.76-4.26,13.76-15.75s-2.48-18.28-1.41-22.45-1.07-13.32-12.35-11.62S412.9,237.6,412.9,250.05,412.54,272.94,424.25,272.94Z"/><path class="cls-4" d="M424.25,272.94c6,0,13.76-4.26,13.76-15.75s-2.48-18.28-1.41-22.45-1.07-13.32-12.35-11.62S412.9,237.6,412.9,250.05,412.54,272.94,424.25,272.94Z"/><path class="cls-1" d="M152.1,536.58l-13,9.26-3.61,2.25s18.41,21.3,13.93,65a35.44,35.44,0,0,0,8.74,1.24,25.9,25.9,0,0,0,14.75-3.78,13.45,13.45,0,0,0,5.89-11.12C179.22,571,165,550.4,152.1,536.58Z"/><path class="cls-2" d="M60.12,591.92c-.89,8.59-5.6,44.23,30.8,15.63,39.55-31.07,73.52-66,144.55-86.29,0,0,15.9-2.77,0-17-16.06-14.4-78.24-50.81-116.24-43.7C87.46,466.46,62.68,567.05,60.12,591.92Z"/><path class="cls-1" d="M678.44,454c2.61,1,.38-9.78,9.88-10.59,2.36-.2-.11,3.49.7,3.94,1.61.9,1.14-4,9.17-3.65-3,7.79-6.93,5.33-6.8,6.88s5,.18,3.41,2.85c-3.8,6.44-12.19,3.12-12.71,5s5.69.53,4.65,3.94c-1.54,5-20,9.3-19.82,11.06.18,2.28,12.07-3.85,8.64,3.81-4,9-18.11,6.57-18.13,8.9,0,3.43,15.93-5.74,11.05,3.76-5.33,10.36-28.89,12.44-28.31,14.92.82,3.54,15.65-6.85,15.08,1.59-.82,12.14-30,17.55-28.54,21.2,1,2.54,23.81-14.71,24.08-3s-33.25,14-33.2,16.8c.08,4.19,31.73-12.29,27.44.5-5.25,15.66-34.59,10.92-34.56,14.06,0,3.31,29.23-5.35,24.84,5.62-6.17,15.44-33.95,5-34.15,8.55s23.76.32,22.09,11.73c-1.71,11.62-24-1.9-25.48.77s11.5,4.07,9.64,10.7c-1.94,7-15.35,3.18-19.7.63-11.07-6.49-24.28-23.44-18.86-33.2,4.77-8.58,10.86,10.47,13.11,8.28s-16.86-17.86-3.69-24.66c6-3.11,7.56,17.73,10,16.38s-6.72-23.72-.57-28.42c7.8-6,9,15.45,11.28,14.22,2-1.08-8.68-24.63,1.88-35.87,8.06-8.58,7.29,24.68,9.82,24.1,3.35-.77-8.88-33.71,6.82-32.27,7.09.65,0,19.4,2.22,19.86,4.49.92-2.81-28.22,11.42-33.57,6.69-2.52,1.62,11.88,4,12.46s-1.06-23.69,16.6-28.67c3-.84-.72,9.39,1.11,9.9,2.52.7-2.23-16,9.2-20.78,3.85-1.61-.56,6.88,1.32,7.14,2.44.35.29-14.79,12.62-19.55C679.43,448,677.22,453.55,678.44,454Z"/><path class="cls-4" d="M553,234.66s-9.42-49.11-48.46-49.11c-37.79,0-81.1,48.36-78.31,217.33"/><path class="cls-1" d="M432.12,351.3s-7.07-8-10.6-3.55c-1.06-2.24-2.48-3.85-4.15-2.79a47.69,47.69,0,0,1,1.93,8.49c.26,2,.7,3.81,1.81,3.89,1.3.1,1.22-2.08,2.27-2,.77,0,2.11,3.55,2.16,7.54.06,5.23-5.55,16.23,1.32,18.35,7.28-2.89,1.47-12.61,1.62-18.19C428.64,357,432.12,351.3,432.12,351.3Z"/><path class="cls-4" d="M332.2,404.22c-.56-3-8.5-126.32,54.8-114.13"/><path class="cls-2" d="M602.35,506.33c.9-4.38,7.15,11.19,9.37-3.93,2.88-19.57-15.18-25-12.45-28.79,1.73-2.44,11.06,10,13.44,4.05,10.27-25.56-20.35-33.63-20-38.06.67-8.12,26.75,18.49,26.78-8.48,0-35.22-54.51-45.57-51.07-51.34,2.55-4.29,32.82,12.61,31.75-10.75s-51.62-24.68-51.4-30.48c.28-7.59,40.71,7.92,38.28-10.86-2.39-18.43-23.39-21.68-46.14-19.42-14.8,1.47-33.81,4.59-34.3,2.33-1.48-6.94,33.12-2.33,26.65-18.23-5.68-13.95-27.2-7.47-36-4.55-9.56,3.16-19.84,6.46-20.73,4.81-3.9-7.24,47.16-12.42,29.15-26.26-16.89-13-41.91,7.56-48.24,10.95s-14.12,10.37-16.78,8.09c-5.82-5,51.4-26.75,32.45-33-22.24-7.29-40.29,9.89-44.88,15-4.75,5.24-11.66,12.67-13.47,10.59-3.49-4.05,18.63-16.07,9.6-24.12-9.38-8.35-20.88,3.43-25.19,15-2.77,7.45-4,10.19-5.38,9.83-5.5-1.44,8-19.66-3.85-19.8-15.24-.19-4.43,22.12-6.6,23.26-3.17,1.66-5.23-13.29-15.73-8.29-4.91,2.34-6.74,8.44-.48,11.57,6.5,3.25,6.66,5.69.1,9.94-2,1.26-9.83,4.79-5.35,9.89s12.21.69,17.29-5.63,6.07-3.22,4.42-1.23c-1.25,1.51-20.89,21.27-4.9,29.34,14,7.07,8-31.6,14.83-29.4,3.64,1.18-11.41,51.55,11.08,48.45,15.72-2.17,3-23.17,6.7-45.46.63-3.81,3-2.59,2.8,2.92s-3.12,49.22,12.75,49.93,1.06-50.45,6.59-49.77c1.65.21,2.52,3.57,3.05,11.39s2.84,63.49,21.32,62.31-2.54-58.91,4.32-59.88c3.09-.43,2.91,13.92,4.67,26.81,1.73,12.56,3.25,54.83,18.44,53.56,19-1.6,2.83-59.23,11.73-57.55,4.11.78,3,20,2.65,32.76-.38,15.44-.5,43.44,13.91,44.64,16.2,1.36,6.7-56.11,11.88-56.48,4.32-.31,2.09,18.15,1.87,24.23s-5.33,43.54,11,52.41c14.72,8,6-45.74,12.69-44,3.15.84.93,15.68,1,19.44.19,14.34-3.68,39.11,8.34,48.31,11.3,8.66,9.88-21.75,13.58-20.37,2.08.78-7.73,28.79.17,41.27,8.26,13,9.27-7.45,12.42-6.06,2.19,1,.44,5.46-1.62,10.72s-5.74,14.19-.6,24.2c3.46,6.74,6.18-5.64,8.49-4.13,1.54,1-10,13.13-2.93,27.13,1.43,2.86,3.95-5.16,5.08-3.38.77,1.22-5.54,13.29-2.78,17.06,1.82,2.49,3.44-2.88,4.93-1.32,1.05,1.11-3.29,5.16,3.09,10.31,5.8-5.15,1.37-9.05,2.21-10.36,1.13-1.75,2.78,3.39,4.11.64,2.68-5.54-6.19-16.53-4.13-17.1,1.37-.38,3.06,6.14,4.78,3.12C615.89,518.64,601.87,508.64,602.35,506.33Z"/><path class="cls-3" d="M579.55,611.8s-5.43-28.36,8-39c10.8-8.53,14.81-2.83,27-8.75s18.82-8,25.79-.7-2.62,17.6-1.92,28.06,3.14,15.85-1.05,22.82-9.75,5.86-8.88,14.26S589.48,650.84,579.55,611.8Z"/><path class="cls-4" d="M628.34,576.43s-31.89,29.28-39,46.53"/><path class="cls-4" d="M612.66,572.81s2.81,6.59.79,18.35c0,0,10-6.54,21.17-6.54"/><path class="cls-4" d="M632,599.69s-19.17-.41-30.23,4.55c0,0,2.2-13.44-2-21.15"/><path class="cls-4" d="M632,611.8s-20.83-3.6-37.94,2.65c0,0,1.87-7-3.7-18.15"/><path class="cls-1" d="M492,580.71c2.78-2.09,18.35-12.55,32.83-5.47s19.91,2.75,34.26,1.54,18.11,6.93,27.45,6.9,18.79-2.72,21,3c3.92,10-16.07,15.52-21,22.72-5.56,8-4.64,19.25-15.35,24.2-12.27,5.68-20.28-4.41-40.24,0s-29.62,12-44.11,0S473.67,594.56,492,580.71Z"/><path class="cls-4" d="M489.88,631S536,583.68,608.07,588.7"/><path class="cls-4" d="M515.53,582.35s4.55,14.07-7.46,34a78.42,78.42,0,0,1,48.66,12.1"/><path class="cls-4" d="M542.56,583.68s.05,10.41-10.16,19c0,0,20.77-3.12,34.84,7.78"/><path class="cls-4" d="M567.24,582.35s-1.77,7.12-8.18,10.87c0,0,12.27-2.26,21.91,5"/><path class="cls-4" d="M182.81,455.91c44.13-29.68,42.78-78.79,36.66-138.51-10.87-106.1,49.09-129,73.2-128.06"/><path class="cls-2" d="M267.15,193s-10.6-5.24-3.57-22.67C263.58,170.33,275.35,184.47,267.15,193Z"/><path class="cls-2" d="M284.57,207.09s-13.95.75-15.8-11.06C268.77,196,278.61,194.92,284.57,207.09Z"/><path class="cls-2" d="M245.19,176.26s-2.61,20.3,10.95,23.18C256.14,199.44,259.62,187.68,245.19,176.26Z"/><path class="cls-2" d="M258,202s9.37-1.83,15.31,12.36C273.27,214.36,257.56,213,258,202Z"/><path class="cls-2" d="M216.31,199.4s6.52,22,18.85,20.88C235.16,220.28,235,205.74,216.31,199.4Z"/><path class="cls-2" d="M261,229s-17.76,3.94-23-6.63C238,222.34,248.7,217.64,261,229Z"/><path class="cls-2" d="M245.34,208.15s-12.12.08-14.6-22.6C230.74,185.55,248.46,195.08,245.34,208.15Z"/><path class="cls-2" d="M266.2,221.32s-17.28,1.06-18.56-10.45C247.64,210.87,258.3,208.6,266.2,221.32Z"/><path class="cls-2" d="M281.91,192.62s8.81-2,12.48,8.6C294.39,201.22,284.24,201.6,281.91,192.62Z"/><path class="cls-2" d="M280.11,188.32c-3.12-2.24-5.13-9.51.55-16.36C280.66,172,287.67,183.06,280.11,188.32Z"/><path class="cls-2" d="M205.88,214.37s4.44,22.9,21.59,20A28.46,28.46,0,0,0,205.88,214.37Z"/><path class="cls-2" d="M230.36,235.87s7.92-8.5,27.34,4.76C257.7,240.63,239.38,247.23,230.36,235.87Z"/><path class="cls-2" d="M222.43,248.08s-5.35-13.8-26.9-14.17C195.53,233.91,204.35,254.52,222.43,248.08Z"/><path class="cls-2" d="M225.74,249.06s10.73-7.32,29.26,6.41C255,255.47,235.13,262.48,225.74,249.06Z"/><path class="cls-4" d="M138.64,231.29c11-3.47,41.4-.56,49.85,49.55,4.75,28.2,10.35,50.92,34.38,59"/><path class="cls-5" d="M150.83,229.74s4.2-3.75-1.23-10.86C149.6,218.88,146,226.86,150.83,229.74Z"/><path class="cls-5" d="M144.56,238.69s6.5-1.43,5.85-7.08C150.41,231.61,145.75,232.34,144.56,238.69Z"/><path class="cls-5" d="M158.53,219.34s3.77,9-2.09,12C156.44,231.38,153.35,226.42,158.53,219.34Z"/><path class="cls-5" d="M156.36,232.89s-4.53.35-5.47,7.62C150.89,240.51,157.94,237.88,156.36,232.89Z"/><path class="cls-5" d="M174.5,226.38s-.21,10.91-6,12C168.49,238.35,166.7,231.66,174.5,226.38Z"/><path class="cls-5" d="M158.2,245.48s8.66-.44,9.72-5.95C167.92,239.53,162.42,238.72,158.2,245.48Z"/><path class="cls-5" d="M162.76,233.93s5.58-1.49,3.85-12.22C166.61,221.71,159.67,228.33,162.76,233.93Z"/><path class="cls-5" d="M154.85,242.63s8.07-1.71,7.2-7.15C162.05,235.48,156.87,235.79,154.85,242.63Z"/><path class="cls-5" d="M144.13,231.35s-4.54.23-4.91,5.85C139.22,237.2,144.2,236,144.13,231.35Z"/><path class="cls-5" d="M144.35,229.5c1.22-1.5,1.22-5.3-2.45-7.88C141.9,221.62,140,228,144.35,229.5Z"/><path class="cls-5" d="M181.47,231.65s.87,11.09-7.37,11.94A13.55,13.55,0,0,1,181.47,231.65Z"/><path class="cls-5" d="M173.15,244.77s-4.71-2.9-12,5.65C161.2,250.42,170.45,251.13,173.15,244.77Z"/><path class="cls-5" d="M178.35,249.37s.7-7,10.55-9.91C188.9,239.46,187.46,250,178.35,249.37Z"/><path class="cls-5" d="M177.34,250.14s-5.86-2-12.63,6.64C164.71,256.78,174.73,257.49,177.34,250.14Z"/><path class="cls-5" d="M193.22,246.66s-1.28,12-10.34,11.29A14.73,14.73,0,0,1,193.22,246.66Z"/><path class="cls-5" d="M181.32,258.48s-4.53-3.48-13.53,4.08C167.79,262.56,177.46,264.45,181.32,258.48Z"/><path class="cls-5" d="M185.7,265.75s2.09-7.16,12.89-8.28C198.59,257.47,195.06,268.2,185.7,265.75Z"/><path class="cls-5" d="M184.21,266.31s-5.05-3.57-14,2.81C170.22,269.12,179.63,272.63,184.21,266.31Z"/><line class="cls-4" x1="128.11" y1="289.26" x2="128.11" y2="287.69"/><path class="cls-5" d="M270.31,327.48c5.29-7.79,25.39-13.42,51.59,16.95s40.46,109.11,40.46,109.11L330.44,450C330.07,400.31,253.61,352.1,270.31,327.48Z"/><path class="cls-4" d="M271.84,325.7s49.69,22.92,72.46,125.84"/><path class="cls-6" d="M379.26,320.72c11.73-3.09,29.43,10.66,29.42,69.93,0,61.4-17.05,101.48-17.05,101.48l-17.91-14.92s8.84-47.24,0-76.33C366.19,376.1,348.56,328.82,379.26,320.72Z"/><path class="cls-5" d="M321.93,284.08c6.4-3.29,36.19-6.57,52.23,72.32,15.7,77.22,6.52,126.71,6.52,126.71L363,455.5C343.81,357.74,289.79,300.6,321.93,284.08Z"/><path class="cls-5" d="M462.14,381.67c10.85,9.63.7,27.07-13.08,43.84-19.73,24-37.94,68.46-37.48,76.23L387,492.6C409.82,392.87,447,368.22,462.14,381.67Z"/><path class="cls-4" d="M379.26,320.72s27.53,84.62,3.86,164.32"/><path class="cls-4" d="M321.93,284.08s50.74,53.5,50.33,175.51"/><path class="cls-4" d="M462.14,381.67s-40.85,28.88-66.43,113.87"/><path class="cls-1" d="M310.16,330.46c6.2-4.51,19.62-8.47,34.34,12.94,16.39,23.84,36.63,70,35.67,143.13l-17.25-5.69S274.05,356.77,310.16,330.46Z"/><path class="cls-4" d="M310.16,330.46c23.46,19.1,54.89,82.81,61.31,153.2"/><path class="cls-2" d="M480.57,441.11c4.67,9.28,1.86,17.76-16.43,27.18-21.2,10.93-57.74,45.09-60,56.64L400,523.57s.13-38.63,36.93-75.44C455.2,429.89,474.11,428.3,480.57,441.11Z"/><path class="cls-4" d="M480.57,441.11s-50.78,10.43-78.78,82.46"/><path class="cls-1" d="M118.86,361.49s19.89,60.07,65.64,64.05C184.5,425.54,172.57,376.6,118.86,361.49Z"/><path class="cls-3" d="M153.91,272.46s-21.5,129.24,43.09,156C197,428.46,225,367.86,153.91,272.46Z"/><path class="cls-5" d="M200.47,288.14s45.89,69.9,2.12,121.8C202.59,409.94,168.7,380.64,200.47,288.14Z"/><path class="cls-2" d="M290.49,326.62S240,345.69,233.65,401.11C233.65,401.11,278.49,398.29,290.49,326.62Z"/><path class="cls-1" d="M270.14,288.49s-74.86,56.71-58.57,126.78C211.57,415.27,274.58,375.45,270.14,288.49Z"/><line class="cls-4" x1="153.91" y1="272.46" x2="197" y2="428.46"/><line class="cls-4" x1="118.86" y1="361.49" x2="184.5" y2="425.54"/><line class="cls-4" x1="200.47" y1="288.14" x2="202.59" y2="409.94"/><line class="cls-4" x1="270.14" y1="288.49" x2="211.57" y2="415.27"/><line class="cls-4" x1="290.49" y1="326.62" x2="233.65" y2="401.11"/><path class="cls-5" d="M369.39,581.8c.45,4.69,7.13,15,9.19,25.16,2.75,13.59,16.57,6.44,22.69,11.11,5,3.82,5.19,18,7.78,22.74s9.13,10.15,29.86,3.53,47.9.21,47.9.21S484,633,494.64,611.22c8.19-16.76,13.43-27.34,8.91-37.39s-16.92-5.85-17.14-21.06c-.26-17.15-13.77-30.45-43.31-26.61-26,3.39-17.59-13.32-34.1-13.44-21.84-.16-27.53,15.84-25.31,30.57S367.05,557.49,369.39,581.8Z"/><path class="cls-4" d="M390.54,552.37s60,21.3,94.62,84.62"/><path class="cls-4" d="M400.09,603.65s16.44-25.83,51.85-10.48c-11.27-35,8.52-57.46,8.52-57.46"/><path class="cls-4" d="M415.24,621.76c.64.43,15.82-25.26,56.15-6.29C470.13,587.75,486,572.85,486,572.85"/><path class="cls-4" d="M387.88,584.07s8.13-17.62,36.87-13.23c-13.08-22.45-6.43-41.14-6.43-41.14"/><path class="cls-6" d="M149.72,552.49c15.51,24.67,35.47,10.92,52.18,15.06,19.61,4.85,18.21,32.52,39.68,37.72s30.25-6.83,45.53-1.3,11.18,24.81,27.6,29.36c13.39,3.71,18-14.75,36.12-14.07,25.94,1,35.24,34.5,35.58,51.42h2.94s-1-35.16-17.65-53.27c-4.61-5-3.25-12.41,3.58-14.3,5.13-1.42,17.28-2.65,18.28-13.56.69-7.49-8.11-12.47-5.78-20.32,2.81-9.49,13.2-6.65,16-18.48s-4.81-19.2-4.09-30.28,8.28-20.82,2.46-32.11c-6.63-12.84-18.05-6.88-25.34-11.88-19-13.06,1.21-63.5-61.53-71.6-36.18-4.68-36.2-14.65-60.93-17-27.06-2.54-56.18,5.72-68.36,34.63s9.6,49.53-9.58,57C143.65,492.19,138,533.84,149.72,552.49Z"/><path class="cls-4" d="M356.43,610.49s-43.85-93.57-129.15-133.67"/><path class="cls-4" d="M300.3,600.88s22.63-13.07,45.38-10c0,0,3.91-32.92,29.44-47.24"/><path class="cls-4" d="M360.65,497.55s-32.25,17.82-38,59.57c0,0-36.29-13-63.59,15.15"/><path class="cls-5" d="M632.4,455.09c-3.88,2.74,13.5,9.5,5.94,23.69-1.88,3.52-4.84-3.35-6.21-2.62-2.75,1.46,4.62,5.3-3.24,16.34-8.29-11.38-1.2-14.7-3.51-15.93s-4.82,6.89-7.16,2.2c-5.64-11.27,6.74-20.1,4.54-22.58s-6,7.58-9.83,3c-5.73-6.79,5.09-36.76,2.48-38.18-3.39-1.84-5.59,20.61-13.3,8.74-9.07-14,7.27-31.66,4-33.83-4.82-3.19-6.46,27.82-15.43,12.21-9.8-17,8.82-52.3,4.79-53.75-5.77-2.07-4.64,28.44-16.07,19.9C563,362,582,315.76,575.5,314.45c-4.51-.91-1,47.17-17.78,36.84s10.67-59.86,6.6-62.39c-6-3.73-11.65,56.19-25.83,38.41-17.37-21.78,16.2-59,11.73-61.82-4.71-3-19.17,46.29-30.7,30-16.21-22.88,24.05-52.64,19.16-56.19-4.68-3.42-22.19,33.34-36.82,20.53-14.9-13.05,24.62-32.17,22.23-36.77s-16.29,12.55-24,3.85c-8.08-9.13,9.55-24.65,17.15-28.48,19.31-9.73,55.42-12.92,64.27,3.7,7.79,14.6-24.77,5.79-23.72,11s40.73-7.52,38.3,17.35c-1.12,11.4-32-5.53-32.3-.89s39.73,12.19,40.76,25.2c1.29,16.51-30.09-1.45-30.47,2.95-.34,3.89,42.84,10.26,49.08,35.5,4.77,19.28-41.62-12.27-43.12-8.16-2,5.45,55.87,18.3,39.45,39.21-7.42,9.44-27.47-17.75-30.15-15-5.43,5.51,42.53,21.86,37.08,46.9-2.56,11.79-18.31-8.57-21.26-5.8-3.13,2.94,34.5,20.19,25.38,49.76-1.54,5-12.62-9.62-15-7.49-3.31,2.92,24.66,11.47,21,32.05-1.23,6.92-9.22-7.09-11.32-4.68-2.72,3.14,20.69,14,16.14,35.78C640.05,462,634.21,453.82,632.4,455.09Z"/><path class="cls-4" d="M400.07,288.82c64.48,6.52,174.57,54.12,196,203"/><path class="cls-7" d="M367.45,218.71s4.73-4.6,10.34,1.67S363,232.55,367.45,218.71Z"/><path class="cls-4" d="M367.45,218.71s4.73-4.6,10.34,1.67S363,232.55,367.45,218.71Z"/><path class="cls-6" d="M374.11,221.62s5.68-4.19,7.59,2.84-.26,14.68,2.56,24.69-7.62,20.26-14.56,18.33S374.11,221.62,374.11,221.62Z"/><path class="cls-8" d="M364,268.74c6,0,13.76-4.26,13.76-15.76s-2.47-18.27-1.41-22.44-1.06-13.32-12.35-11.62-11.34,14.47-11.34,26.93S352.32,268.74,364,268.74Z"/><path class="cls-4" d="M364,268.74c6,0,13.76-4.26,13.76-15.76s-2.47-18.27-1.41-22.44-1.06-13.32-12.35-11.62-11.34,14.47-11.34,26.93S352.32,268.74,364,268.74Z"/><path class="cls-6" d="M69.83,578.35s0,37.36,32.16,47.43c27.05,8.47,36.85,30.25,39.87,38.31h.82s.41-32.37-30.38-49C84.62,600.07,71.89,589.07,69.83,578.35Z"/><path class="cls-5" d="M153,668.54s9.59-63.47-17.76-64.85c0,0-14.2-.1-22.76,38.74C101.94,690.35,75.32,697.11,56,699.52c0,0,20.44-14.55,28.38-38.83,13.81-42.24,21.62-70.06,54.17-65.54,21.9,3,22.45,50.84,15.66,73.36Z"/><path class="cls-6" d="M147.42,662.11S155.64,624,172.31,621c11.86-2.13,18.82,9.26,30.31,36.14s39.26,25.22,39.26,25.22-21.27-10.09-27.27-26.3-14.8-43.66-36.46-42.87c-24,.87-32.09,39.41-32,49.18Z"/><path class="cls-6" d="M153,668.54l1.24,0c4.84-16.07,5.94-45-1.76-61.35-7.83-6.95-17.24-3.47-17.24-3.47C162.6,605.07,153,668.54,153,668.54Z"/><path class="cls-6" d="M109.31,523.76s-22.92,41.78-2.41,69.43c19.39,26.13,35,43.64,37.95,69.42h.64s7.71-37-16.41-62.85C102.58,571.33,106.16,537.28,109.31,523.76Z"/><path class="cls-5" d="M211.34,564.92s9.72,36.06-11,53.32c-19.61,16.32-34.47,26.62-41.49,45.71l-.75,0s1-29.58,24.13-44.83C207.66,602.39,211.24,575.8,211.34,564.92Z"/><path class="cls-3" d="M246.32,136.27s-12.57-6.34-16.95-.82c-1.32-2.78-3.1-2.46-5.16-1.14a13.74,13.74,0,0,1,2.39,8.23,19.68,19.68,0,0,0,.27,5.19,1.89,1.89,0,0,0,3.52.31c.7-1.66,0-3.78,1.08-4.13,1.38-.47,2.83,5.34,2.89,10.3.08,5.79-5.43,17.23-.67,21.56a3.47,3.47,0,0,0,4.55-.05c5.36-4.64-.84-15.09-.22-21.31C239.21,142.48,246.32,136.27,246.32,136.27Z"/><path class="cls-1" d="M233,120.05c-3.91,2.29-16,10.87-7.64,15,8.56,4.21,130.94-7.31,241.91,37.84C562.06,211.42,630.72,297,636.94,305.42c5.33,7.24,11.41,3.94,8.57-7.36C642.72,287,618,138.79,519.65,93.08,421.48,47.47,284.23,90,233,120.05Z"/><path class="cls-2" d="M308.77,535.7s1,1.94-.36,5.26-1.66,6.45.36,8.46,8.51,1.83,12.7,3.23c6,2,10.15,8.26,18.47,9.23a12.87,12.87,0,0,0,12.61-6.32,20.62,20.62,0,0,0,2.77-10.48c0-11-11.11-17-21.87-12,0,0-12.12-2-12.48-1.81S308.77,535.7,308.77,535.7Z"/><path class="cls-2" d="M267.5,545.83s1.14,4.27.74,6.92c-.44,2.82,4.2,3.74,6.39,9.22s3.84,13.16,15.17,13.61,18.54-3.38,22.1-11,2.89-25.1-14.8-21.56c0,0-3.47-.12-1.18-4l-6.85-2.91Z"/><path class="cls-1" d="M358.13,499.78a30.15,30.15,0,0,1-6.69-11.23c-2.27-6.93-5-17.68-10.27-21.26-2.1-1.44-2.82,4-2.93,11l4.85.68s2.36,3.21,4.07,10.12c2.06,8.3,5.48,13.3,10.25,14.85A6.6,6.6,0,0,0,358.13,499.78Z"/><path class="cls-1" d="M346.36,494.12c-2.1-8.27-3.63-8.83-3.63-8.83l-4.45-.43c.23,9,1,18.14,1,18.14a13.72,13.72,0,0,0,12.15,4.3,11,11,0,0,0,3-.81C350.87,504.51,347.87,500.05,346.36,494.12Z"/><path class="cls-2" d="M347.16,489.09c-1.71-6.91-4.07-10.12-4.07-10.12l-4.85-.68c0,2.1,0,4.33,0,6.57l4.45.43s1.53.56,3.63,8.83c1.51,5.93,4.51,10.39,8.12,12.37a6.16,6.16,0,0,0,2.93-2.55C352.64,502.39,349.22,497.39,347.16,489.09Z"/><circle class="cls-2" cx="279.01" cy="440.79" r="46.45"/><path class="cls-9" d="M303.84,455.45s7.29-9.56,25.3-5.6,19.73,36.56,6.51,74.76c0,0-17.43,7.35-26,5.24,0,0-6.87-10.14-11.3-35.24l-13-28Z"/><path class="cls-2" d="M178.84,509.55s11.21,34.13,48.33,27.4l2-47.82,21.17-27.26-23.66-12-47.83,37.54Z"/><path class="cls-1" d="M220,507.94c-15,1.19-29.2-10.88-29.2-10.88l.52-2.41s14.65,11.48,29.61,9.69Z"/><path class="cls-1" d="M251.86,468.24s-6.12-11.54-17-3.63c-10.56,7.66-20,40.59-14.89,61s14.4,20.44,22.17,20.11,13.81-7.36,12.34-17.17c0,0-6.21-45.8-6.05-47.1S251.86,468.24,251.86,468.24Z"/><path class="cls-2" d="M211.32,389.72s.83-11.06,3.6-15.91,26.87,19.25,26.87,19.25l51.38-12.55s3.67,1.91,3.39,5.45l-6.85,17.88-11.7,1.7s-8.8,5.7-29.76,0S213.4,400.42,211.32,389.72Z"/><path class="cls-1" d="M186.74,486.83c8.95-11,16-18.77,25.38-25.75,9.84-7.29,20.16-10.57,35.22-6.92L255,457l16.66-33.55c-2.43-13.8-28.78-24.74-45.5-27.21-13.28-2-14.87-6.53-14.87-6.53-35.32,13.22-46.84,49.15-50.6,59.42-4.38,12-4.91,20.08,1.88,18.33s14.12-6.27,14.12-6.27l2.52.44c-8.93,9.08-6.81,25.94-6,35.13C176.16,496.09,181,493.85,186.74,486.83Z"/><path class="cls-1" d="M215.89,462.78c-12.11,9-17.25,15.55-26.72,27.81-6.12,7.92-12.13,9.92-15.62,10.34,0,7-5.45,13.41,2,13s9.79-6.3,16.23-17.35,16.21-23.48,29.47-32.9,31.38-1.74,31.38-1.74l1.19-2.41-6.44-2.45C239.08,455,227.3,454.28,215.89,462.78Z"/><path class="cls-2" d="M247.34,454.16c-15.06-3.65-25.38-.37-35.22,6.92-9.42,7-16.43,14.75-25.38,25.75-5.72,7-10.58,9.26-13.46,9.94.15,1.66.27,3.07.27,4.13v0c3.49-.42,9.5-2.42,15.62-10.34,9.47-12.26,14.61-18.8,26.72-27.81,11.41-8.5,23.19-7.77,31.45-5.71l6.44,2.45L255,457Z"/><path class="cls-1" d="M215.14,372.78c1.82-6,16.65-9.19,35.33-6.71,10.68,1.42,41.71,6,37.23,17.15s-38,16-50.57,12.75a116.82,116.82,0,0,0-13.26-9.12C216.27,382.38,214,376.48,215.14,372.78Z"/><path class="cls-9" d="M309.49,439.47a47.88,47.88,0,0,0,24.24,15c15.56,3.89,23-4.58,23-4.58L340,426.11l-28.28-8.19-3.88,7.79Z"/><path class="cls-1" d="M296,383.22s15.55.18,34.13,13.75,32.88,42.51,37.16,60.1c0,0-2.27,4.81-8.72,0s-14.85-21.61-22.15-27.33-18.86-8.39-24.21-7.42l-2.43,1.83-29.2,24.58-8.84-25.27s-2-11,10.12-22.71C292.56,390.38,296.57,387.5,296,383.22Z"/><path class="cls-9" d="M172.66,459.44s4,3.5,19,2.1,39-8.74,46.39-13.54l3.57-19.58s-11.53-5.64-38.18.7C187,436.69,172.66,459.44,172.66,459.44Z"/><path class="cls-4" d="M201.82,427.62a113.69,113.69,0,0,1,7.33-11.14"/><path class="cls-4" d="M200.19,423.26a7.23,7.23,0,0,1,2.06,3.63"/><path class="cls-5" d="M244.78,415.26a10.51,10.51,0,0,1,5.55-3.89c3.43-.8,22.87,8,26.22,14.84,0,0,4.95-9.18,18-15.58a4.56,4.56,0,0,1,3.44-.22,18,18,0,0,1,5.88,3.14L293,431.85H265.9Z"/><path class="cls-6" d="M239.53,426.11c.23-2.47,1.5-8.56,2-11.1a1,1,0,0,1,1.34-.73c3.69,1.37,16.21,6.05,29.47,11.15,0,0,4.64,2.23,8.45-.81,0,0,13.71-9.38,23.29-12.16a1,1,0,0,1,1.27.92l2.44,40.68a1,1,0,0,1-.39.85l-23.6,18.24a1,1,0,0,1-.84.19l-42.76-9.72a1,1,0,0,1-.78-.89A214.82,214.82,0,0,1,239.53,426.11Z"/><rect class="cls-5" x="273.28" y="431.09" width="7.63" height="33.52" rx="1.98" ry="1.98"/><path class="cls-9" d="M305.89,421.65s6.16,1.29,7.53,10.62-6.36,13.73-12.15,10.52-5.95-15.75,4.27-17A12.07,12.07,0,0,0,305.89,421.65Z"/><path class="cls-4" d="M305.54,425.83a6.57,6.57,0,0,1,1.6,0"/><path class="cls-9" d="M252.38,468.43c4.18-2.83,9.62-6,16.74-6.56,11.84-.9,23.59,1.82,29.15,16.51s2.25,44,0,52.69L265.9,544.29s-5.19-11.87-7-19.68c0,0-8,6.76-12.92,8.41,0,0-10.51-1.35-13.07-26.74s8.74-40.12,15.18-34.24A34,34,0,0,1,252.38,468.43Z"/><path class="cls-4" d="M244.53,477.77A14,14,0,0,1,248.1,472"/><path class="cls-4" d="M258.91,524.61a139.82,139.82,0,0,1-4.22-35.79"/><path class="cls-1" d="M262.36,543.78C263.88,539.4,274,534,284.69,531s16.5-.78,15.53,4.37-8.35,3.3-17.09,6.5-11.6,6-14.83,7.21C264.81,550.39,260.9,548,262.36,543.78Z"/><path class="cls-1" d="M306.47,532.38c.6-2.37,6.13-4.62,14.57-6.5s16.31-2.38,17.75,1.52-.21,6.27-5.34,5.7-15.94-.8-20.13,1.95S305.38,536.63,306.47,532.38Z"/><path class="cls-4" d="M323.42,540.6a34,34,0,0,1,10-7.5"/><path class="cls-4" d="M286,556.67a17.61,17.61,0,0,1,11.14-13.61"/><path class="cls-9" d="M238.36,365.44s-5-.07-7.49-2.18c-2.86-2.46-1.22-5.69,3-4.2,0,0-13.68-10.3-12.62-19.87,1.14-10.33,18.31-9.21,27.41,7.58,0,0-8.19-11.53-8.4-29.94s13.46-26.19,21.55-15.77S268,335.44,268,335.44s8.29-9.2,20.23-10.41,12,12.94-10.12,21.74c0,0,9.71-1.82,16,3.74s2.53,13.86-8.39,12.34c0,0,12.93,8.87,5.13,25.38-7.46,15.81-44.94,19.26-55.49,5.85S234.85,368.11,238.36,365.44Z"/><path class="cls-4" d="M261.89,361.64s-5.74,4.52-3.44,6.76c1.78,1.72,5.8-2.36,6.17-4.13,0,0-.08,6.94,3.76,6.17,3.49-.7,1.07-7.35,1.07-7.35s4.13,7.62,7.57,4.83c2.81-2.28-1-6.39-3.11-6"/><ellipse cx="265.58" cy="383.22" rx="1.04" ry="2.3"/><ellipse cx="272.73" cy="383.22" rx="1.04" ry="2.3"/><ellipse class="cls-2" cx="257.04" cy="387.02" rx="1.12" ry="0.52"/><ellipse class="cls-2" cx="259.17" cy="389.72" rx="1.12" ry="0.52"/><ellipse class="cls-2" cx="253.03" cy="389.61" rx="1.12" ry="0.52"/><ellipse class="cls-2" cx="275.94" cy="388.47" rx="0.95" ry="0.52"/><ellipse class="cls-2" cx="278.95" cy="386.05" rx="0.95" ry="0.52"/><ellipse class="cls-2" cx="281.3" cy="388.38" rx="0.95" ry="0.61"/><path class="cls-4" d="M313.58,422.16s-.79-8.1-3-12.42"/><path class="cls-1" d="M166.18,466.34s6.66-3.37,12.53-11.93,14-19.1,24.77-25.29a11.38,11.38,0,0,0-8.69-3.69"/><path class="cls-9" d="M239.53,426.11s-6.44,4.19-8.15,10.46c-1.46,5.4-.27,12.9,8.69,13.27s14.82-8.33,13-15.1-10.61-5.94-13.63-5.12Z"/><path class="cls-6" d="M423.46,637.88c.31-4.5,5.53-7,12.28-4.48,7.67,2.87,9.36-2.47,17.69,3,6.42,4.18,6,13.73,6,13.73s-3.31-.81-8.28,3.27C446.72,657,440.25,657,434.7,650,430.55,644.83,423,644.58,423.46,637.88Z"/><path class="cls-4" d="M432.75,639.23s13.37-1.88,26.7,10.85"/><path class="cls-5" d="M474.54,670.76c.33-7.19,7.06-12.55,7.35-12.77l1.25,1.58c-.07,0-6.3,5-6.59,11.29Z"/><path class="cls-5" d="M509.62,675.91c-4.91,6.57-14.69,7.33-15.1,7.36l-.16-2.29c.09,0,9.15-.72,13.42-6.44Z"/><path class="cls-5" d="M519,671.16c-4.48,6.59-2.07,15.83-2,16.22l2.16-.58c0-.09-2.24-8.64,1.66-14.39Z"/><path class="cls-5" d="M522,689.46c-8-1.06-11.08-6.85-14.08-12.47-2.2-4.12-4.47-8.38-8.78-10.82a29.22,29.22,0,0,0-11.57-3.81c-3.79-.55-7.06-1-11.31-5.53a17.4,17.4,0,0,0-12.62-5.67,13.86,13.86,0,0,0-10.25,4.48,24.74,24.74,0,0,1-15.84,7.86l-.13-2.88a22.11,22.11,0,0,0,13.85-6.92,16.68,16.68,0,0,1,12.35-5.41,20.23,20.23,0,0,1,14.73,6.56c3.56,3.79,6.11,4.15,9.64,4.67a31.83,31.83,0,0,1,12.57,4.15c5,2.85,7.51,7.48,9.9,12,3.28,6.14,6.12,11.45,15.1,11.1l.11,2.88A21.53,21.53,0,0,1,522,689.46Z"/><path class="cls-5" d="M544.61,682.44c.58-9.87,9.91-17.12,10.31-17.43l1.68,2.2c-.08.07-8.72,6.8-9.23,15.39Z"/><path class="cls-5" d="M461.3,668.36c-1.92-8.55,4.27-17,4.53-17.37l2,1.46c-.06.08-5.78,7.93-4.11,15.37Z"/><path class="cls-6" d="M474.56,694.2c-3.29.68-6.15-2.57-5.68-7.92.52-6.09-3.66-6.23-1.44-13.31,1.72-5.45,8.67-7.08,8.67-7.08s.08,2.54,4,5.29c3.51,2.47,4.81,7.12.92,12.51C478.13,687.71,479.47,693.2,474.56,694.2Z"/><path class="cls-4" d="M473.66,687.25s-4-9.22,2.45-21.36"/><path class="cls-6" d="M451.81,679.14s-10.95.12-15.54,7.79-3.73,16-5.79,22.43,1.07,10.44,8.51,5.55,6.8-4.66,15.52-8.7,6.6-19,5.84-21.4S456.87,680.59,451.81,679.14Z"/><path class="cls-4" d="M436.86,707.46s6.61-21.4,19.61-26.55"/><path class="cls-6" d="M542.08,651.29c2,3.44-2.43,6.58-2.76,10.26-1.31,14.4-10.34,19.52-21.23,13-4.08-2.43-7.13-7.45-4.12-13.47,3.64-7.3,9.84-3.48,15.72-9.43C535.23,646.07,540.29,648.21,542.08,651.29Z"/><path class="cls-4" d="M518.09,674.58a34.78,34.78,0,0,1,17.22-19.52"/><path class="cls-6" d="M486.49,627c3.88-1.52,8.06,1.84,8.64,8.5.65,7.55,5.79,6.84,4.57,16-.94,7-9.09,10.51-9.09,10.51s-.64-3.09-6-5.62c-4.83-2.27-7.4-7.69-3.79-15.11C483.5,635.69,480.7,629.27,486.49,627Z"/><path class="cls-4" d="M489.06,635.31S496,645.74,490.61,662"/><circle class="cls-1" cx="458.49" cy="679.59" r="14.24"/><circle class="cls-3" cx="457.9" cy="684.03" r="2.96"/><circle class="cls-9" cx="457.9" cy="684.03" r="0.88"/><circle class="cls-1" cx="500.1" cy="660.22" r="14.24"/><circle class="cls-3" cx="493.69" cy="665.35" r="2.96"/><circle class="cls-9" cx="493.69" cy="665.35" r="0.88"/><circle class="cls-1" cx="489.94" cy="690.09" r="14.24"/><circle class="cls-3" cx="485.06" cy="696.69" r="2.96"/><circle class="cls-9" cx="485.06" cy="696.69" r="0.88"/><circle class="cls-1" cx="535.62" cy="689.11" r="15.61"/><circle class="cls-3" cx="539.41" cy="683.04" r="2.96"/><circle class="cls-9" cx="539.41" cy="683.04" r="0.88"/><circle class="cls-1" cx="564.82" cy="656.02" r="16.82"/><circle class="cls-3" cx="572.22" cy="649.77" r="2.7"/><circle class="cls-9" cx="572.22" cy="649.77" r="0.81"/><circle class="cls-1" cx="469.97" cy="638.81" r="14.81"/><circle class="cls-3" cx="469.52" cy="630.3" r="2.38"/><circle class="cls-9" cx="469.52" cy="630.3" r="0.71"/><circle class="cls-1" cx="432.77" cy="675.22" r="16.3"/><circle class="cls-3" cx="428.41" cy="684.5" r="3.09"/><circle class="cls-9" cx="428.41" cy="684.5" r="0.93"/><circle class="cls-3" cx="393.81" cy="748.51" r="0.86"/><circle class="cls-3" cx="220.92" cy="736.11" r="0.86"/><circle class="cls-3" cx="227.28" cy="727.18" r="0.86"/><circle class="cls-3" cx="386.88" cy="775.34" r="0.86"/><circle class="cls-3" cx="441.44" cy="757.93" r="0.86"/><circle class="cls-3" cx="534.71" cy="844.97" r="0.86"/><circle class="cls-3" cx="544.3" cy="744.73" r="0.86"/><circle class="cls-3" cx="574.92" cy="735.25" r="0.86"/><circle class="cls-3" cx="564.82" cy="734.38" r="0.86"/></svg>