<svg id="圖層_1" data-name="圖層 1" xmlns="http://www.w3.org/2000/svg" viewBox="0 0 754.23 1066.7"><defs><style>.cls-1{fill:#96c6e7;}.cls-1,.cls-2,.cls-3,.cls-4,.cls-5,.cls-6,.cls-7,.cls-8,.cls-9{stroke:#000;stroke-width:0.25px;}.cls-1,.cls-2,.cls-6,.cls-7,.cls-8{stroke-linejoin:round;}.cls-2{fill:none;}.cls-3{fill:#ae7516;}.cls-3,.cls-4,.cls-5,.cls-9{stroke-miterlimit:10;}.cls-4{fill:#e6ad18;}.cls-5,.cls-8{fill:#fff3d9;}.cls-6,.cls-9{fill:#fff;}.cls-7{fill:#90d1a2;}</style></defs><title>all</title><path class="cls-1" d="M332.32,115.74c-1.68-8.1,11.31-8.52,11.31-8.52a15.26,15.26,0,0,1,9.37-13c9.22-4,16.2,2.79,16.2,2.79a20.28,20.28,0,0,1,17.88-5.45c11.46,1.82,17.28,13.31,14.25,17.61-2.65,3.77-16.48,0-32.41,1.81C347.47,113.44,334.06,124.18,332.32,115.74Z"/><path class="cls-1" d="M365.56,130.1c-1.38-3.51,2.16-7.8,7.58-9.32s9.86.54,9.75,4.12c0,0,7.58-3.8,14.52-1.41s6.17,8.88,2.6,9.31-11.16-.75-17.88-1.3S367.15,134.16,365.56,130.1Z"/><line class="cls-2" x1="365.27" y1="83.08" x2="365.85" y2="154.95"/><path class="cls-2" d="M351.11,114.93s2.51,8,14.45,7.9"/><path class="cls-1" d="M355.42,83.08s0-6.36,4.65-8.21c3.57-1.42,6.21,2,6.35,4.1,0,0,9.66-4.31,11.85,4.11Z"/><path class="cls-2" d="M380.4,131.45s-1.45,10.36-14.64,12.64"/><path class="cls-2" d="M370.6,83.08a5.47,5.47,0,0,1-5.28,5.36"/><path class="cls-1" d="M411.59,137.77c-6.76-6.67,11.27-21.26,20.83-17.5,0,0,6.62-11.55,19.12-15.17s19.37.8,19.61,4.72c0,0,12.6-4.32,17.4-.65,5,3.86-.74,9.64-.74,9.64s12.89-2.63,13.93,4-18.82,8-28.45,8.87C445.43,134.22,417.53,143.63,411.59,137.77Z"/><path class="cls-1" d="M435.45,84.36c-.81-3.35,6.6-2.75,6.6-2.75s.84-6.65,7.15-6.74a5.74,5.74,0,0,1,5.91,4.75s18.47-1.31,20.72,6.81-20,2.06-23.19-1.79C452.64,84.64,436.41,88.35,435.45,84.36Z"/><path class="cls-1" d="M437.26,176.43C437,169,450.37,163.51,455.94,168c0,0,13.5-4.31,25.51-.45s13.47,12.46,13.47,12.46,6.86-2.63,11.75,0c6.05,3.26,3.42,8.67,3.42,8.67s9.17-.31,12.9,6.84,0,12.59,0,12.59Z"/><path class="cls-1" d="M409,200.28s.6-6.58,5.24-10,9.86-1.35,10.31.89c0,0,3.59-5.83,10.31-5.68s6.28,9.57-.74,10.47S409,200.28,409,200.28Z"/><path class="cls-1" d="M389.89,181c-3.22-6.17,7.88-9.53,7.88-9.53s-1.84-7.28,5.21-12.7,14.56-1.5,14.56-1.5,3.95-7.38,14.21-8.58,17.78,6.77,16.12,10.95c-1.46,3.68-14.2,3.83-27.51,9C402.42,175.58,393.24,187.39,389.89,181Z"/><line class="cls-2" x1="455.69" y1="86.7" x2="436.74" y2="257.19"/><path class="cls-2" d="M446.21,85.78s.4,11.31,8.32,11.36c5.19,0,7.7-8,7.7-8"/><path class="cls-2" d="M464.16,132.75s-.42,14.5-15.55,17.68"/><path class="cls-2" d="M423.25,167.56A25.09,25.09,0,0,0,445,182.82"/><path class="cls-2" d="M424.28,197.5s2.6,14.22,17.43,15"/><path class="cls-2" d="M472.19,189.35s-9.58,14.22-29.05,10.24"/><polygon class="cls-3" points="497.74 781.24 497.06 787.78 463.95 806.32 438.79 812.94 392.34 838.1 342.79 826.85 275.91 861.94 183.88 877.17 174.57 887.65 257.04 920.83 496.18 870.32 513.27 778.23 497.74 781.24"/><polygon class="cls-4" points="189.84 628.87 137.31 635.39 197.47 708.77 217.64 796.01 183.88 877.17 275.91 861.94 342.79 826.85 392.34 838.1 438.79 812.94 463.95 806.32 497.06 787.78 497.74 781.24 506.19 699.7 189.84 628.87"/><polygon class="cls-4" points="652.68 629.8 640.68 735.1 597.64 844.67 487.27 939.07 435.02 955.09 350.73 992.17 291.87 992.17 184.68 939.07 174.57 887.65 258.74 895.24 395.78 873.33 497.06 787.78 506.19 699.7 652.68 629.8"/><line class="cls-2" x1="341.28" y1="882.04" x2="347.59" y2="984.04"/><line class="cls-2" x1="258.74" y1="895.24" x2="303.48" y2="966.85"/><line class="cls-2" x1="208.95" y1="913" x2="281.11" y2="958.83"/><line class="cls-2" x1="385.4" y1="907.84" x2="368.21" y2="958.83"/><line class="cls-2" x1="395.78" y1="873.33" x2="435.02" y2="955.08"/><line class="cls-2" x1="497.06" y1="787.78" x2="475.28" y2="942.75"/><line class="cls-2" x1="427.22" y1="865.26" x2="442.68" y2="892.38"/><polyline class="cls-2" points="593.27 671.74 575.59 810.98 549.77 873.33"/><line class="cls-2" x1="571.52" y1="693.07" x2="536.61" y2="798.38"/><line class="cls-2" x1="521.42" y1="732.56" x2="521.42" y2="816.09"/><line class="cls-2" x1="632.74" y1="643.88" x2="606.47" y2="742.69"/><line class="cls-2" x1="632.74" y1="736.61" x2="612.55" y2="749.77"/><path class="cls-1" d="M275.8,667.08c-3.21.71-5.6,2-6.48,4.08-4.06,9.67-2.91,12.85-2.91,12.85a24.9,24.9,0,0,1,7.75,17.7c.26,8.89,2.11,13.54,4.64,13.54,3.66,0,7.89-13.7,10.65-22.43,2.69-8.49,7.15-9,10.3-9.34,3.87-.39,7.73-4.2,9.15-8.82l-19.45-4.45Z"/><polygon class="cls-5" points="623.55 593.92 597.64 553.21 481.44 548.94 163.97 548.94 131.94 634.16 156.97 639.89 275.8 667.09 289.45 670.21 308.9 674.66 315.21 676.1 471.15 695.37 479.72 696.42 506.19 699.7 506.8 699.5 593.27 671.74 652.68 629.8 623.55 593.92"/><ellipse class="cls-6" cx="278.67" cy="697.38" rx="1.25" ry="2.32"/><ellipse class="cls-6" cx="277.52" cy="686.7" rx="1.14" ry="2.02"/><polygon class="cls-4" points="475.83 228.1 494.92 188.57 494.92 137.69 537.17 134.96 534.9 148.13 555.35 143.14 589.52 198.12 585.79 225.83 598.51 245.55 582.47 356.53 475.83 228.1"/><path class="cls-7" d="M542.3,266.59s12.56-13.21,25.45-11.27V282.4l7.08-27.28s19.66-.77,27.39,10.18l-10.15,24.84,17.23-15.49a9,9,0,0,1,4.57,6.76l-35.78,42.52,45.71-30.28L586.6,328l39.13-13s3.55,9.18-1.29,20.54L609,341h14.5s2.25,6.12-.65,10.31l-35.75,3.86,30.92,9.7s-2.9,8.34-9.34,12.53l-12.24-3.22,8.65,9.34s-7.69,12.27-19,17.89l-33.87-19.93Z"/><line class="cls-5" x1="550.23" y1="158.64" x2="544.12" y2="240.54"/><line class="cls-5" x1="582.47" y1="205.24" x2="562.44" y2="233"/><line class="cls-2" x1="514.42" y1="150.43" x2="511.02" y2="226.03"/><polygon class="cls-5" points="531.11 254.87 514.42 245.55 523.5 298.83 531.11 254.87"/><polygon class="cls-4" points="567.29 323.55 559.44 270.68 531.11 254.87 523.5 298.83 514.42 245.55 478.82 205.24 430.42 231.53 428.04 362.29 582.47 356.53 567.29 323.55"/><polygon class="cls-4" points="589.52 370.35 613.87 553.21 497.67 548.94 465.67 429.9 539.77 400.91 589.52 370.35"/><line class="cls-2" x1="550.56" y1="414.84" x2="582.47" y2="487.33"/><line class="cls-2" x1="517.02" y1="416.25" x2="548.47" y2="531.22"/><line class="cls-2" x1="501.75" y1="417.05" x2="501.75" y2="548.94"/><line class="cls-2" x1="478.38" y1="212.48" x2="475.83" y2="276.85"/><polygon class="cls-5" points="467.96 436.94 501.95 416.88 550.56 414.84 589.52 370.35 444.51 364.88 467.96 436.94"/><polygon class="cls-3" points="442.48 351.54 529.41 335.45 582.47 356.53 589.52 370.35 531.11 387.81 447.56 366.15 442.48 351.54"/><line class="cls-2" x1="522.77" y1="393.18" x2="505.26" y2="409.67"/><line class="cls-2" x1="557.01" y1="390.32" x2="522.77" y2="409.67"/><line class="cls-2" x1="302.25" y1="524.26" x2="308.1" y2="553.21"/><line class="cls-2" x1="412.01" y1="512.84" x2="405.13" y2="567.35"/><polygon class="cls-8" points="447.56 351.53 440.57 238.19 431.39 283.76 447.56 351.53"/><polygon class="cls-8" points="422.32 226.22 409.83 218.02 411.89 304.21 422.32 226.22"/><polygon class="cls-4" points="460.11 369.22 447.56 351.53 431.39 283.76 440.57 238.19 422.32 226.22 411.89 304.21 409.83 218.02 367.52 139.35 352.66 278.53 314.44 294.76 274.13 283.76 251.83 164.47 212.24 180.98 188.53 281.72 175.73 401.7 239.31 548.94 440.92 571.33 497.67 548.94 460.11 369.22"/><polygon class="cls-4" points="314.44 294.76 352.66 278.53 367.52 139.35 367.52 139.35 296.78 122.83 251.83 164.47 251.83 164.47 274.13 283.76 314.44 294.76"/><line class="cls-2" x1="299.84" y1="157.18" x2="306.77" y2="239.01"/><line class="cls-2" x1="309.67" y1="283.76" x2="348.86" y2="374.77"/><line class="cls-2" x1="270.01" y1="406.81" x2="260.77" y2="466.44"/><polyline class="cls-2" points="294.41 408.39 290.54 418.51 285.78 453.31"/><line class="cls-2" x1="298.41" y1="412.85" x2="300.67" y2="473.28"/><polyline class="cls-2" points="369.02 292.47 397.45 374.77 397.45 418.72"/><line class="cls-2" x1="212.24" y1="180.98" x2="229.98" y2="351.53"/><line class="cls-2" x1="205.85" y1="235.23" x2="210.75" y2="247.89"/><line class="cls-2" x1="384.14" y1="231.1" x2="397.45" y2="261.12"/><line class="cls-2" x1="394.58" y1="233" x2="399.28" y2="246.11"/><line class="cls-2" x1="451.2" y1="434.19" x2="451.2" y2="567.27"/><polygon class="cls-5" points="153.27 415.08 147.23 548.94 239.31 548.94 239.31 470.05 202.33 430.02 153.27 415.08"/><polygon class="cls-3" points="153.27 415.08 175.73 401.7 231.15 434.35 239.31 470.05 202.93 458.15 193.07 435.88 153.27 415.08"/><line class="cls-2" x1="221.01" y1="473.28" x2="228.9" y2="496.75"/><polygon class="cls-5" points="274.98 488.64 297.25 520.51 383 526.84 422.56 507.74 440.91 471.79 439.6 453.31 274.98 488.64"/><line class="cls-2" x1="383.01" y1="507.67" x2="383.01" y2="520.83"/><line class="cls-2" x1="305.32" y1="512.84" x2="322.79" y2="520.04"/><line class="cls-2" x1="328.46" y1="515.59" x2="334.43" y2="520.04"/><polygon class="cls-3" points="271.48 466.51 274.98 488.64 297.88 507.67 385.24 502.62 430.67 475.44 439.6 453.31 271.48 466.51"/><polygon class="cls-5" points="194.17 382.53 229.35 403.22 270.01 406.81 284.76 397.46 298.41 352.93 243.74 355.72 194.17 382.53"/><polygon class="cls-3" points="194.17 382.53 255 389.44 265.85 368.06 298.41 352.93 267.5 319.06 194.17 382.53"/><line class="cls-2" x1="268.21" y1="376.95" x2="270.01" y2="397.1"/><line class="cls-2" x1="275.46" y1="379.87" x2="274.48" y2="389.43"/><polygon class="cls-5" points="465.54 282.12 468.66 300.49 479.27 294.86 489.8 290.14 481.11 279.6 465.54 282.12"/><polygon class="cls-3" points="465.54 282.12 470.5 288.24 481.01 285.18 489.8 290.14 496.67 282.12 475.92 274.65 465.54 282.12"/><polygon class="cls-5" points="266.41 853.74 289.53 833.83 318.22 851.37 311.93 861.64 273.73 871.3 266.41 853.74"/><line class="cls-2" x1="293.49" y1="841.15" x2="307.98" y2="858.72"/><polygon class="cls-5" points="327.4 825.3 335.88 821.98 341.5 838.94 336.92 843.07 323.16 842.26 327.4 825.3"/><line class="cls-2" x1="332.33" y1="829.77" x2="329.93" y2="839.17"/><polygon class="cls-4" points="335.88 821.98 342.88 828.51 346.43 824.73 350.55 834.47 341.5 838.94 335.88 821.98"/><polygon class="cls-5" points="350.55 868.24 365.07 845.11 379.8 845.11 391.19 865.13 373.67 868.24 350.55 868.24"/><line class="cls-2" x1="363.92" y1="862.79" x2="370.87" y2="849.93"/><line class="cls-2" x1="372.68" y1="859.82" x2="374.16" y2="854.2"/><polygon class="cls-4" points="379.8 845.11 387.65 846 395.43 855.43 391.19 865.13 379.8 845.11"/><polygon class="cls-5" points="403.93 836.49 413 821.55 433.94 816.09 440.71 821.04 447.61 818.23 454.13 821.93 442.89 829.6 435.35 834.45 403.93 836.49"/><line class="cls-2" x1="428.51" y1="824.43" x2="426.05" y2="830.66"/><line class="cls-2" x1="432.05" y1="821.12" x2="432.74" y2="829.73"/><polygon class="cls-5" points="319.64 936.44 335.28 953.3 346.82 943.88 352.89 944.19 358.81 936.44 358.81 927.18 319.64 936.44"/><polygon class="cls-3" points="319.64 936.44 334.67 940.54 345.75 933.04 355.62 934.47 358.81 927.18 342.11 921.56 319.64 936.44"/><polygon class="cls-5" points="409.54 898.11 450 923.53 495.68 912.71 537.37 880.73 542.67 830.82 476.11 861.44 433.81 893.82 409.54 898.11"/><polygon class="cls-3" points="409.54 898.11 437.46 904.24 488.88 869.05 510.67 860.13 534.16 841.82 542.67 830.82 539.61 828.38 521.42 836.99 475.28 844.59 423.17 890.93 409.54 898.11"/><line class="cls-2" x1="457.98" y1="902.24" x2="492.79" y2="904.24"/><line class="cls-2" x1="487.69" y1="887.16" x2="495.9" y2="895.81"/><polygon class="cls-5" points="554.07 800.83 574.97 827.48 588.07 810.98 596.95 805.72 602.73 795.06 569.64 793.28 554.07 800.83"/><line class="cls-4" x1="580.27" y1="808.6" x2="578.4" y2="818.15"/><polygon class="cls-3" points="554.07 800.83 579.85 804.61 586.96 796.17 602.73 795.06 606.47 787.78 582.52 774.33 554.07 800.83"/><polygon class="cls-5" points="381.76 353.42 396.21 377.56 411.84 387.81 417.38 385.27 423.91 354.6 390.67 349.65 381.76 353.42"/><polygon class="cls-3" points="380.34 342.93 381.76 353.42 398.58 356.53 408.67 367.86 423.91 354.6 413.22 344.51 380.34 342.93"/><line class="cls-4" x1="408.87" y1="371.82" x2="411.64" y2="380.52"/><polygon class="cls-5" points="303.65 259.67 309.67 283.76 360.59 298.83 384.14 281.06 382.21 254.87 303.65 259.67"/><line class="cls-2" x1="362.27" y1="278.41" x2="360.59" y2="298.83"/><line class="cls-2" x1="337.58" y1="279.6" x2="342.93" y2="288.62"/><line class="cls-2" x1="346.6" y1="279.6" x2="348.86" y2="286.86"/><line class="cls-2" x1="377.22" y1="274.65" x2="376.17" y2="279.6"/><polygon class="cls-3" points="306.77 239.01 303.65 259.67 362.27 278.41 382.21 254.87 353.38 233 306.77 239.01"/><polygon class="cls-5" points="546.75 431.78 561.66 471.85 567.23 470.51 584.81 456.27 593.94 456.49 605.07 443.8 574.13 438.01 546.75 431.78"/><polygon class="cls-3" points="546.75 431.78 560.1 446.7 589.52 444.92 595.27 446.7 605.07 443.8 603.51 440.46 587.48 436.94 580.36 425.55 546.75 431.78"/><line class="cls-2" x1="581.25" y1="448.25" x2="571.01" y2="464.48"/><line class="cls-2" x1="569.45" y1="451.82" x2="569.45" y2="458.05"/><polyline class="cls-2" points="238.7 761.3 242.11 775.82 243.85 803.35"/><polyline class="cls-2" points="260.23 761.3 266.41 786.72 266.41 813.34"/><line class="cls-2" x1="253.53" y1="774.01" x2="255.95" y2="787.78"/><polyline class="cls-2" points="304.05 761.3 301.93 782.33 304.05 806.08"/><line class="cls-2" x1="311.62" y1="776.13" x2="313.73" y2="787.78"/><polyline class="cls-2" points="341.5 764.93 343.92 776.13 343.92 791.25"/><line class="cls-2" x1="350.55" y1="774.01" x2="352.46" y2="782.33"/><line class="cls-2" x1="208.2" y1="666.4" x2="214.31" y2="721.14"/><line class="cls-2" x1="216.45" y1="671.85" x2="217.5" y2="690.14"/><line class="cls-2" x1="415.4" y1="738.82" x2="412.27" y2="813.38"/><line class="cls-2" x1="424.05" y1="725.35" x2="424.05" y2="759.1"/><polyline class="cls-2" points="469.45 771.78 470.53 783.87 468.37 795.1"/><line class="cls-2" x1="479.28" y1="776.96" x2="478.3" y2="787.78"/><line class="cls-2" x1="555.31" y1="239.36" x2="552.24" y2="241.3"/><path class="cls-7" d="M99,488.25s-.91,39.08,21.38,67.47,39.12,26.87,39.12,26.87,24.69-15.88,25.3-17.71,20-47.07,20-47.07-2-10-5-14.3L193,511.45,197.91,495s-1.52-7.69-5.8-10l-7,13.31.61-28.27s-8.39-16.3-20.22-22.71v49.41l-13.6-60.13,6.44,84.21-14.45-85s-6.1-9.61-23.5-2.59l7,34.5-15.57-31.91a38.87,38.87,0,0,0-10.38,32.52l41.21,95Z"/><path class="cls-7" d="M336.59,580.73s-2.11-27.52,20.91-36.44c0,0,9.8,22.67,9.27,20.61s0-24.81,0-24.81a23,23,0,0,1,9.4-1.44V577l7.14-39.71s6.05-3.11,11.32-1.09l-6.36,36.46L403,535.49s7.14-.72,10.86,3.47l-9.15,26.53,18.65-24.2s13.15,2.79,20,14l-4.19,7.91,8.38-3.56a28.26,28.26,0,0,1,3.25,24.2Z"/><path class="cls-3" d="M542.7,138.22l-5.53,9.36,13.06-3.19S548.22,141.47,542.7,138.22Z"/><path class="cls-5" d="M439.47,370.65v13.7l7.77,51.77,15.94,7.62,5.22-4.35s-22.68-65.91-23.19-65.91A59.24,59.24,0,0,1,439.47,370.65Z"/><polygon class="cls-3" points="439.47 370.65 443.64 367.17 464.7 385.88 475.15 419.59 468.4 439.38 457.31 431.12 454.26 430.9 448.17 406.76 447.24 389.05 439.47 370.65"/><polygon class="cls-4" points="281.11 873.33 285.83 866.64 278.95 852.28 271.82 845.98 260.23 826.5 255.95 860.75 281.11 873.33"/><polygon class="cls-5" points="216.1 871.83 245.03 884.27 281.11 873.33 274.12 853.2 262.79 849.53 260.23 826.5 248.61 818.46 216.1 871.83"/><line class="cls-2" x1="247.96" y1="833.83" x2="236.25" y2="871.3"/><line class="cls-2" x1="250.45" y1="851.37" x2="250.45" y2="867.35"/><path class="cls-2" d="M257.75,721.8S263,747.51,279.56,750s34.38-11.54,47-41.24"/><path class="cls-1" d="M157,639.89s5.74,9.66,8,25.56,3.35,30.42,10.88,30.42S191.17,665.73,205.4,666s22.32,24.56,23.72,43,3.53,29.62,12.16,31.25c7.37,1.39,13.22-7.54,19-25.67s21.19-44.35,29.22-44.36h0L157,639.89Z"/><ellipse class="cls-6" cx="240.25" cy="727.33" rx="1.41" ry="3.45"/><ellipse class="cls-6" cx="233.34" cy="680.45" rx="1.31" ry="3.56"/><ellipse class="cls-6" cx="236.51" cy="707.03" rx="3.17" ry="12.45"/><ellipse class="cls-6" cx="170.25" cy="668.16" rx="1.04" ry="2.55"/><ellipse class="cls-6" cx="175.25" cy="681.61" rx="2.43" ry="5.81" transform="translate(-56.62 17.12) rotate(-4.82)"/><ellipse class="cls-2" cx="180.7" cy="684.01" rx="1.75" ry="0.86" transform="translate(-517.35 799.12) rotate(-84.57)"/><path class="cls-2" d="M395.84,331.91s.87,16.8,9.6,22.79"/><path class="cls-2" d="M406.85,325.92s-.35,10.66-9.55,14.87"/><path class="cls-2" d="M401.51,326.46s0,5.06,3.32,6.89"/><path class="cls-2" d="M411.64,328.42a6.1,6.1,0,0,1-5.49,1.49"/><circle class="cls-7" cx="395.84" cy="329.49" r="2.42"/><circle class="cls-7" cx="406.99" cy="323.76" r="2.16"/><circle class="cls-7" cx="413.15" cy="326.91" r="2.16"/><circle class="cls-7" cx="401.23" cy="324.3" r="2.16"/><path class="cls-7" d="M449.27,336.91a28.86,28.86,0,0,1,.31-3.71,33.2,33.2,0,0,1,.76-3.67,28,28,0,0,1,1.2-3.59,20.52,20.52,0,0,1,1.78-3.41,14.45,14.45,0,0,1,2.57-3,11.27,11.27,0,0,1,3.5-2.15,11.65,11.65,0,0,1,4.1-.72,8.32,8.32,0,0,1,2.2.33,8.55,8.55,0,0,1,2,.93,11,11,0,0,1,3,2.93,18.48,18.48,0,0,1,2,3.47,38,38,0,0,1,2.3,7.32,65.75,65.75,0,0,1,1.09,7.46c.12,1.25.2,2.5.25,3.75s.07,2.48.05,3.77h-2c-.1-2.37-.31-4.82-.57-7.21s-1.42-4.78-1.93-7.11a36.63,36.63,0,0,0-2-6.75,16.82,16.82,0,0,0-1.59-3,8.59,8.59,0,0,0-2.17-2.24,5.17,5.17,0,0,0-2.73-.93,8.78,8.78,0,0,0-3.13.43,11.15,11.15,0,0,0-5.23,3.94,27.34,27.34,0,0,0-3.47,6.2A48.91,48.91,0,0,0,449.27,336.91Z"/><path class="cls-7" d="M458.65,308.49a9.32,9.32,0,0,1,4.13.15,13.18,13.18,0,0,1,2,.7c.33.14.64.31,1,.47s.62.36.91.56a16.15,16.15,0,0,1,3.21,2.85,21.51,21.51,0,0,1,2.41,3.52,27.75,27.75,0,0,1,1.75,3.85,37.51,37.51,0,0,1,1.17,4,40.77,40.77,0,0,1,1,8.19l-2.71.23c-.4-2.61-.8-5.19-1.36-7.72a37.78,37.78,0,0,0-2.34-7.31,21.25,21.25,0,0,0-1.82-3.31,16.27,16.27,0,0,0-2.43-2.88A12.35,12.35,0,0,0,458.65,308.49Z"/><path class="cls-7" d="M473.62,342.81c-.1-1-.17-2-.21-3s-.06-2-.05-3q0-3,.33-6.06a42.53,42.53,0,0,1,1.07-6.06,21.5,21.5,0,0,1,2.44-5.91,10.25,10.25,0,0,1,2.28-2.58,7.64,7.64,0,0,1,3.3-1.53,7.79,7.79,0,0,1,1.79-.13,9.21,9.21,0,0,1,1.72.22,8.64,8.64,0,0,1,3.14,1.44,10.39,10.39,0,0,1,1.26,1.12,11.76,11.76,0,0,1,2.43,4.15,16.57,16.57,0,0,1,.75,3,15.15,15.15,0,0,1,.16,1.51,10.87,10.87,0,0,1,0,1.51,26.54,26.54,0,0,0-2.36-5.34,10.81,10.81,0,0,0-3.63-3.88,6.43,6.43,0,0,0-2.3-.83,8.28,8.28,0,0,0-1.23-.09,4.71,4.71,0,0,0-1.15.13,4.6,4.6,0,0,0-2,1,6.79,6.79,0,0,0-.82.87,11.42,11.42,0,0,0-.72,1.05,18.24,18.24,0,0,0-1.95,5.07,43.3,43.3,0,0,0-1,5.61,99.55,99.55,0,0,0-.63,11.59Z"/><path class="cls-7" d="M487.26,341.62a7.65,7.65,0,0,0-3.29.18,9.66,9.66,0,0,0-3,1.44,13.75,13.75,0,0,0-2.47,2.22,17.15,17.15,0,0,0-1.94,2.63,2.26,2.26,0,0,0-.16.26v-1.8c0-.63,0-11.76.11-16s.06-8.51-.13-12.77c-.09-2.13-.23-4.26-.44-6.39s-.48-4.25-.91-6.38c-.42,2.13-.68,4.25-.9,6.38s-.35,4.26-.44,6.39c-.19,4.26-.2,8.51-.13,12.77v.15l-.2-.37a9.75,9.75,0,0,0-2.81-3,7.58,7.58,0,0,0-4.1-1.26,11.91,11.91,0,0,0-3.93.65,10.48,10.48,0,0,0-3.41,2,11.63,11.63,0,0,0-2.38,3,14.25,14.25,0,0,0-1.36,3.44,13.63,13.63,0,0,0-.46,3.58,25.74,25.74,0,0,1,1.47-3.19,17.82,17.82,0,0,1,1.87-2.81,12.13,12.13,0,0,1,2.33-2.21,9.48,9.48,0,0,1,2.76-1.32,9.31,9.31,0,0,1,3-.31,4.64,4.64,0,0,1,2.52.85,9.89,9.89,0,0,1,3.21,5,29.66,29.66,0,0,1,1.33,6.58c.12,1.13.18,2.28.21,3.42,0,.47.08,12.38.11,16.34a1.29,1.29,0,0,0,1.28,1.27h0a1.28,1.28,0,0,0,1.28-1.25c0-1.65.11-3.66.11-3.66a19.29,19.29,0,0,1,.55-2.65c.26-.91.55-1.82.9-2.72a25.3,25.3,0,0,1,2.57-5.12,15,15,0,0,1,1.81-2.16,9.07,9.07,0,0,1,2.26-1.62,7.33,7.33,0,0,1,2.73-.74,9.9,9.9,0,0,1,3,.27A8.54,8.54,0,0,0,487.26,341.62Z"/><path class="cls-7" d="M485.59,336.91a27.17,27.17,0,0,1,.31-3.71,33.16,33.16,0,0,1,.75-3.67,28.06,28.06,0,0,1,1.21-3.59,20.52,20.52,0,0,1,1.78-3.41,14.4,14.4,0,0,1,2.56-3,11.51,11.51,0,0,1,3.5-2.15,11.7,11.7,0,0,1,4.11-.72A8.18,8.18,0,0,1,502,317a8.44,8.44,0,0,1,2,.93,11,11,0,0,1,3,2.93,19.67,19.67,0,0,1,2,3.47,37.32,37.32,0,0,1,2.29,7.32,63.61,63.61,0,0,1,1.1,7.46c.12,1.25.2,2.5.25,3.75s.07,2.48.05,3.77h-2c-.1-2.37-.3-4.82-.57-7.21s-1.41-4.78-1.92-7.11a36.63,36.63,0,0,0-2-6.75,16.23,16.23,0,0,0-1.6-3,8.72,8.72,0,0,0-2.16-2.24,5.17,5.17,0,0,0-2.73-.93,8.84,8.84,0,0,0-3.14.43,11.18,11.18,0,0,0-5.22,3.94,27.76,27.76,0,0,0-3.48,6.2A50.18,50.18,0,0,0,485.59,336.91Z"/><path class="cls-7" d="M495,308.49a9.32,9.32,0,0,1,4.13.15,13.57,13.57,0,0,1,2,.7c.33.14.64.31,1,.47s.62.36.91.56a16.09,16.09,0,0,1,3.2,2.85,21,21,0,0,1,2.42,3.52,27.69,27.69,0,0,1,1.74,3.85,33.38,33.38,0,0,1,1.17,4,40.07,40.07,0,0,1,1,8.19l-2.71.23c-.4-2.61-.8-5.19-1.37-7.72A37.1,37.1,0,0,0,506.1,318a20.45,20.45,0,0,0-1.82-3.31,16.65,16.65,0,0,0-2.42-2.88A12.35,12.35,0,0,0,495,308.49Z"/><path class="cls-7" d="M509.94,342.81c-.11-1-.17-2-.21-3s-.06-2-.05-3a58.57,58.57,0,0,1,.32-6.06,42.57,42.57,0,0,1,1.08-6.06,20.9,20.9,0,0,1,2.44-5.91,10.25,10.25,0,0,1,2.28-2.58,7.61,7.61,0,0,1,3.29-1.53,7.88,7.88,0,0,1,1.8-.13,9,9,0,0,1,1.71.22,8.49,8.49,0,0,1,3.14,1.44,9.78,9.78,0,0,1,1.27,1.12,12.38,12.38,0,0,1,1,1.3,12.82,12.82,0,0,1,1.41,2.85,16.54,16.54,0,0,1,.74,3,15.16,15.16,0,0,1,.17,1.51,12.68,12.68,0,0,1,0,1.51,27.12,27.12,0,0,0-2.36-5.34,10.89,10.89,0,0,0-3.63-3.88,6.5,6.5,0,0,0-2.3-.83,8.48,8.48,0,0,0-1.23-.09,4.85,4.85,0,0,0-1.16.13,4.62,4.62,0,0,0-2,1,7.65,7.65,0,0,0-.83.87q-.37.5-.72,1.05a18.88,18.88,0,0,0-1.95,5.07,45.07,45.07,0,0,0-1,5.61,99.54,99.54,0,0,0-.62,11.59Z"/><path class="cls-7" d="M523.57,341.62a7.61,7.61,0,0,0-3.28.18,9.66,9.66,0,0,0-3,1.44,13.75,13.75,0,0,0-2.47,2.22,17.9,17.9,0,0,0-1.95,2.63l-.15.26v-1.8c0-.63,0-11.76.1-16s.07-8.51-.12-12.77q-.13-3.19-.44-6.39c-.23-2.13-.48-4.25-.91-6.38-.43,2.13-.68,4.25-.9,6.38s-.36,4.26-.45,6.39c-.19,4.26-.2,8.51-.12,12.77v.15l-.2-.37a9.75,9.75,0,0,0-2.81-3,7.58,7.58,0,0,0-4.11-1.26,11.9,11.9,0,0,0-3.92.65,10.53,10.53,0,0,0-3.42,2,11.8,11.8,0,0,0-2.37,3,14.28,14.28,0,0,0-1.37,3.44,13.62,13.62,0,0,0-.45,3.58,24.36,24.36,0,0,1,1.47-3.19,17.82,17.82,0,0,1,1.87-2.81,11.85,11.85,0,0,1,2.33-2.21,8.86,8.86,0,0,1,5.78-1.63,4.58,4.58,0,0,1,2.51.85,9.91,9.91,0,0,1,3.22,5,30.84,30.84,0,0,1,1.33,6.58c.11,1.13.18,2.28.21,3.42,0,.47.07,12.38.11,16.34a1.29,1.29,0,0,0,1.28,1.27h0a1.28,1.28,0,0,0,1.28-1.25c0-1.65.11-3.66.11-3.66a17.91,17.91,0,0,1,.55-2.65c.25-.91.55-1.82.89-2.72a25.34,25.34,0,0,1,2.58-5.12,15,15,0,0,1,1.81-2.16,9.2,9.2,0,0,1,2.25-1.62,7.43,7.43,0,0,1,2.73-.74,9.9,9.9,0,0,1,3,.27A8.47,8.47,0,0,0,523.57,341.62Z"/><path class="cls-7" d="M521.9,336.91a28.87,28.87,0,0,1,.32-3.71,33.16,33.16,0,0,1,.75-3.67,28,28,0,0,1,1.2-3.59,21.3,21.3,0,0,1,1.78-3.41,14.45,14.45,0,0,1,2.57-3,11.51,11.51,0,0,1,3.5-2.15,11.66,11.66,0,0,1,4.11-.72,8.24,8.24,0,0,1,2.19.33,8.62,8.62,0,0,1,2,.93,10.83,10.83,0,0,1,3,2.93,19.11,19.11,0,0,1,2,3.47,38,38,0,0,1,2.29,7.32,65.78,65.78,0,0,1,1.1,7.46c.11,1.25.2,2.5.25,3.75s.06,2.48,0,3.77h-2c-.1-2.37-.3-4.82-.57-7.21s-1.41-4.78-1.92-7.11a36.65,36.65,0,0,0-2-6.75,16.82,16.82,0,0,0-1.59-3,8.59,8.59,0,0,0-2.17-2.24,5.14,5.14,0,0,0-2.73-.93,8.78,8.78,0,0,0-3.13.43,11.2,11.2,0,0,0-5.23,3.94,27.73,27.73,0,0,0-3.47,6.2A50.21,50.21,0,0,0,521.9,336.91Z"/><path class="cls-7" d="M531.29,308.49a9.28,9.28,0,0,1,4.12.15,13.69,13.69,0,0,1,2,.7c.32.14.63.31,1,.47s.62.36.92.56a16.38,16.38,0,0,1,3.2,2.85,21,21,0,0,1,2.42,3.52,28.91,28.91,0,0,1,1.74,3.85,33.38,33.38,0,0,1,1.17,4,40.78,40.78,0,0,1,1,8.19l-2.71.23c-.41-2.61-.8-5.19-1.37-7.72a37.78,37.78,0,0,0-2.34-7.31,20.45,20.45,0,0,0-1.82-3.31,16.65,16.65,0,0,0-2.42-2.88A12.41,12.41,0,0,0,531.29,308.49Z"/><path class="cls-7" d="M546.26,342.81c-.11-1-.17-2-.21-3s-.07-2-.06-3q0-3,.33-6.06a42.53,42.53,0,0,1,1.07-6.06,21.5,21.5,0,0,1,2.44-5.91,10.66,10.66,0,0,1,2.28-2.58,7.64,7.64,0,0,1,3.3-1.53,7.88,7.88,0,0,1,1.8-.13,9.1,9.1,0,0,1,1.71.22,8.56,8.56,0,0,1,3.14,1.44,10.49,10.49,0,0,1,1.27,1.12,12.27,12.27,0,0,1,1,1.3,12.4,12.4,0,0,1,1.41,2.85,16.57,16.57,0,0,1,.75,3,15.16,15.16,0,0,1,.17,1.51,12.68,12.68,0,0,1,0,1.51,27.14,27.14,0,0,0-2.37-5.34,10.72,10.72,0,0,0-3.63-3.88,6.45,6.45,0,0,0-2.29-.83,8.52,8.52,0,0,0-1.24-.09,4.83,4.83,0,0,0-1.15.13,4.62,4.62,0,0,0-2,1,6.86,6.86,0,0,0-.83.87,11.42,11.42,0,0,0-.72,1.05,18.88,18.88,0,0,0-2,5.07,45.07,45.07,0,0,0-1,5.61,97.39,97.39,0,0,0-.62,11.59Z"/><path class="cls-7" d="M559.89,341.62a7.66,7.66,0,0,0-3.29.18,9.61,9.61,0,0,0-3,1.44,13.75,13.75,0,0,0-2.47,2.22,17.22,17.22,0,0,0-2,2.63l-.16.26v-1.8c0-.63,0-11.76.11-16s.07-8.51-.13-12.77c-.09-2.13-.23-4.26-.44-6.39s-.47-4.25-.9-6.38c-.43,2.13-.69,4.25-.91,6.38s-.35,4.26-.44,6.39c-.19,4.26-.2,8.51-.13,12.77a.76.76,0,0,0,0,.15l-.21-.37a9.72,9.72,0,0,0-2.8-3,7.63,7.63,0,0,0-4.11-1.26,12,12,0,0,0-3.93.65,10.48,10.48,0,0,0-3.41,2,11.84,11.84,0,0,0-2.38,3,14.25,14.25,0,0,0-1.36,3.44,14.07,14.07,0,0,0-.46,3.58,25.74,25.74,0,0,1,1.47-3.19,18.54,18.54,0,0,1,1.87-2.81,12.13,12.13,0,0,1,2.33-2.21,9.6,9.6,0,0,1,2.76-1.32,9.39,9.39,0,0,1,3-.31,4.64,4.64,0,0,1,2.51.85,9.89,9.89,0,0,1,3.21,5,29.66,29.66,0,0,1,1.33,6.58c.12,1.13.19,2.28.22,3.42,0,.47.07,12.38.11,16.34a1.27,1.27,0,0,0,1.28,1.27h0a1.28,1.28,0,0,0,1.28-1.25c0-1.65.11-3.66.11-3.66a17.82,17.82,0,0,1,.54-2.65c.26-.91.55-1.82.9-2.72a25.34,25.34,0,0,1,2.58-5.12,15,15,0,0,1,1.8-2.16,9.25,9.25,0,0,1,2.26-1.62,7.43,7.43,0,0,1,2.73-.74,9.9,9.9,0,0,1,3,.27A8.47,8.47,0,0,0,559.89,341.62Z"/><circle class="cls-7" cx="249.87" cy="153.66" r="2.5"/><circle class="cls-7" cx="206.8" cy="141.09" r="1.47"/><circle class="cls-7" cx="241.56" cy="148.02" r="1.47"/><circle class="cls-7" cx="231.17" cy="141.66" r="1.47"/><path class="cls-2" d="M219.05,141.5s-.6,21.34,12.25,31.53"/><path class="cls-2" d="M207.2,142.56s3.24,13.07,13.91,13.87"/><path class="cls-2" d="M237.79,145.39s-.29,14-13.23,19.52"/><path class="cls-2" d="M231.3,143.27s.76,7.4,5.21,8.47"/><path class="cls-2" d="M247.87,155.15s-7.27,5.91-14.77,3.11"/><path class="cls-2" d="M212.86,139.35s2.31,8.65-1.32,11.77"/><path class="cls-2" d="M241.68,149.49s-.71,5.76,1.41,8.35"/><path class="cls-2" d="M202.89,146.36s2.93,3.45,6.75,2"/><circle class="cls-7" cx="212.56" cy="137.31" r="2.04"/><circle class="cls-7" cx="237.79" cy="143.27" r="2.04"/><circle class="cls-7" cx="219.48" cy="139.61" r="2.04"/><circle class="cls-7" cx="202.1" cy="145.39" r="1.47"/><path class="cls-1" d="M319,400.8A16.87,16.87,0,0,1,312.08,413l16.6,16.12S363.42,424,379.14,433c22.77,13,26.08,22.54,30.62,20.63,4.07-1.72,1.9-35.3-7-47.47l-41-16.43Z"/><path class="cls-7" d="M305.53,423.05c-.07-6,4.06-15.89,12.6-18.13,10.93-2.86,19.28,4.74,22.58,10.16l53.1,18.8,14.08,19.91s-.41,21.5-15.53,26.47-25.88-6.21-25.88-6.21l-.82-14.7a55.38,55.38,0,0,1-15.7.47c-7.62-1.07-8.54-2.63-9.89-4.81a39.16,39.16,0,0,1-13.91,4.27c-8.15.94-11.09,0-13.5-4.67S305.66,436,305.53,423.05Z"/><path class="cls-6" d="M320.55,459.59s6.18,7.42-4,15.71,1.33,8.51,10.62,8.18S349.62,479,349.62,479s-7.3-4.65-8.84-12.94S339,455,339,455Z"/><path class="cls-5" d="M317.72,472.6a60.86,60.86,0,0,1-11.58,6.6c-6.15,2.54-9.56,2.76-8.68,6.64,2.92,4.45,27.4.77,37.15,2.43s8.58-8.09,1.76-8.39a60.28,60.28,0,0,0-12.56.54c-2.62.38-4.41-.73-2.66-2.29S324.82,473.7,317.72,472.6Z"/><path class="cls-1" d="M346.15,427.23s17.27-3.22,33,5.78c22.77,13,26.08,22.54,30.62,20.63,4.07-1.72,1.9-35.3-7-47.47l-41-16.43"/><path class="cls-5" d="M403.18,401c-11.68.76-15.95-5.57-27.55-7-9.51-1.15-15.91,2.76-26.27,3.56s-13.39-4.46-23.11-2.87c-7.45,1.22-10.68-.21-11.78-.95a19.82,19.82,0,0,0-1.09,3.23c-1.5,6.71,7.89,2.75,17.72,2.75s13.45,6.41,27.26,1.65,19.38-1.47,29.47,3.66,17.05,0,17.05,0A24.36,24.36,0,0,0,403.18,401Z"/><path class="cls-7" d="M326.25,394.7c9.72-1.59,12.75,3.67,23.11,2.87s16.76-4.71,26.27-3.56c11.6,1.4,15.87,7.73,27.55,7-2-4-6.19-10.76-14.62-19.41a65.09,65.09,0,0,0-30.2-17.65s-21.87,4.45-27.26,7.68c-4.67,2.8-13.36,14.38-16.63,22.15C315.57,394.49,318.8,395.92,326.25,394.7Z"/><path class="cls-7" d="M340.07,455s-4.79-15.47-6.76-27.47,2.68-18.17,10.16-20.38A14.77,14.77,0,0,1,356,408.68"/><path class="cls-2" d="M329.74,400.93s-.81,3.37-1.7,4.13"/><path class="cls-9" d="M354.4,413.4s-5,6.08-11.27,8.41-13.64,4.47-12.58,8.92a3.34,3.34,0,0,0,2.87,2.62s-2.73,4,2.25,5.56c0,0-3.52,2.8.2,5.33s15.14-1.89,20.83-5.91c5.21-3.67,12.58-9.81,14.32-15.92Z"/><path class="cls-2" d="M333.42,433.35a16.85,16.85,0,0,0,6.64-1.71"/><path class="cls-2" d="M335.67,438.91a10.12,10.12,0,0,0,6.69-1.35"/><path class="cls-9" d="M303.33,425.22c0-2.35,2.32-4.17,5.58-3.91,4,.33,7.39,3.7,4.86,7.88a4.12,4.12,0,0,1,1.56,5.54,4.69,4.69,0,0,1,2.27,5c-.78,3.31-6.84,5.7-9.92,2.86a4.8,4.8,0,0,1-.91-5.71s-4.23-3-1.25-7.37A4.92,4.92,0,0,1,303.33,425.22Z"/><path class="cls-2" d="M305.52,429.5a14.26,14.26,0,0,0,8.25-.31"/><path class="cls-2" d="M306.77,436.87a9.1,9.1,0,0,0,8.56-2.14"/><line class="cls-2" x1="367.8" y1="428.29" x2="377.6" y2="448.91"/><path class="cls-2" d="M366.9,450.62s5.23,7.12-1.24,8.73"/><path class="cls-9" d="M347.49,459.41s1.41,7.18,0,11.24-6.91,8.12-6.91,8.12-9.82,5.89,5.11,6.94a58.52,58.52,0,0,0,26.18-4.17s-6.23-12.8-6.21-22.19Z"/><path class="cls-5" d="M341.71,475.65s-2.87,4.2-11.55,6.44-10,5-6.35,8,23.53,2.15,29.68.88,14.47.6,20.79-4.59c0,0-.26-8.16-3.6-7.5s-4.17,4.37-12.83,5-11.49,1.24-11.78-.33,5.74-4.61,2.41-7.15C345.52,474.15,341.71,475.65,341.71,475.65Z"/><polyline class="cls-2" points="320.11 383.81 325.54 381.78 328.04 385.62 334.06 382.56 337.61 385.62 341.74 381.78 347.35 386.76 352.67 381.78 359.47 385.62 363.97 379.45 371.02 384.77 373.6 379.45 379.32 384.88 382.02 378.79 387.62 380.62"/><polyline class="cls-2" points="316.92 388.88 322.77 387.76 326.75 391.31 333.42 388.2 338.71 392.3 341.74 388.2 346.8 392.3 352.45 387.76 359.47 391.86 364.52 386.76 372.16 390.64 374.8 386.76 381.02 391.31 384.68 384.66 392.69 386.04"/><line class="cls-2" x1="373.79" y1="424.75" x2="373.79" y2="428.29"/><line class="cls-2" x1="377.6" y1="425.16" x2="377.6" y2="428.74"/><line class="cls-2" x1="381.47" y1="426.52" x2="381.47" y2="430.17"/><line class="cls-2" x1="385.26" y1="427.61" x2="385.26" y2="431.64"/><line class="cls-2" x1="389.76" y1="430.73" x2="389.76" y2="435.09"/><line class="cls-2" x1="393.81" y1="433.88" x2="393.81" y2="438.29"/><line class="cls-2" x1="397.85" y1="437.56" x2="397.85" y2="441.85"/><line class="cls-2" x1="402.56" y1="440.62" x2="402.56" y2="445.74"/><line class="cls-2" x1="406.87" y1="444.51" x2="406.87" y2="447.67"/><line class="cls-2" x1="316.38" y1="454.24" x2="317.72" y2="456.94"/><line class="cls-2" x1="319.93" y1="453.66" x2="321.28" y2="456.36"/><line class="cls-2" x1="323.49" y1="453.08" x2="324.83" y2="455.77"/><line class="cls-2" x1="327.04" y1="452.49" x2="328.38" y2="455.19"/><line class="cls-2" x1="330.59" y1="451.91" x2="331.94" y2="454.61"/><line class="cls-2" x1="334.15" y1="451.33" x2="335.49" y2="454.03"/><line class="cls-2" x1="344.91" y1="453.83" x2="345.81" y2="456.7"/><line class="cls-2" x1="348.51" y1="453.81" x2="349.41" y2="456.69"/><line class="cls-2" x1="352.11" y1="453.8" x2="353.01" y2="456.68"/><line class="cls-2" x1="355.71" y1="453.79" x2="356.61" y2="456.66"/><line class="cls-2" x1="359.31" y1="453.77" x2="360.21" y2="456.65"/><line class="cls-2" x1="362.91" y1="453.76" x2="363.82" y2="456.63"/><circle class="cls-9" cx="341.74" cy="357.41" r="17.73"/><ellipse cx="330.73" cy="364.5" rx="0.64" ry="1.63" transform="translate(-49.96 52.54) rotate(-8.45)"/><ellipse cx="335" cy="363.86" rx="0.64" ry="1.63" transform="translate(-49.82 53.16) rotate(-8.45)"/><path class="cls-1" d="M374.8,340.33c0-3.71-2.76-6.85-6.57-7.91a10.05,10.05,0,0,0,1-4.4c0-5.89-5.1-10.66-11.4-10.66a11.68,11.68,0,0,0-8.88,4,9.48,9.48,0,0,0-8.32-4.72,9.13,9.13,0,0,0-9.39,8.56,8.51,8.51,0,0,0-8,4.06,8.28,8.28,0,0,0-.43,7.17,7.68,7.68,0,0,0-3.19,13.17,6.65,6.65,0,1,0,8.56,7.52,5,5,0,0,0,9.78,0c.24-.06.48-.12.72-.2a6.11,6.11,0,0,0,10.48.43,6.11,6.11,0,0,0,11-1.58,6.24,6.24,0,0,0,2,.33,6.12,6.12,0,0,0,6.12-6.12,6.33,6.33,0,0,0-.24-1.69C371.93,347.3,374.8,344.11,374.8,340.33Z"/><path class="cls-7" d="M328.36,335.87s.26-4.81,7.44-6.92,17.26,3,18.61,15.45l-4,1s-1.54-10.73-10.25-11.45c0,0-1.88-2.91-4.86-2.11s-3.31,4.57-3.31,4.57a18.54,18.54,0,0,0-9.21,0"/><path class="cls-2" d="M356.11,333.77a2.56,2.56,0,0,1,2.17-2.29c2-.3,3.09,1.27,2.73,2.29a3.94,3.94,0,0,1,3.38,1.63c1.1,1.82,0,4.29-1.51,4.64"/><circle class="cls-7" cx="354.41" cy="352.65" r="8.25"/><circle class="cls-5" cx="354.41" cy="352.65" r="3.95"/><path class="cls-1" d="M357.85,404.3s-2,5.3-4.2,6.35,5.37,8.08,13.19,11.16,10.5-4.5,12.49-17"/><path class="cls-2" d="M603.51,440.46s13.15-18,11.52-42.56"/><path class="cls-2" d="M634.72,427.23s-12.59,9-25.38,2.46"/><path class="cls-2" d="M641.7,435.44s-10.37,1.46-13-5.16"/><path class="cls-2" d="M624.31,418.05s-3.49,8-1.2,13.73"/><path class="cls-2" d="M607.33,403.12s.44,7.66,7.06,9"/><path class="cls-2" d="M622.33,400.91a9.34,9.34,0,0,1-7.16,4.54"/><path class="cls-2" d="M600.48,405.45s3.72,4,8.43,2.69"/><circle class="cls-7" cx="614.83" cy="395.41" r="2.49"/><circle class="cls-7" cx="607.33" cy="400.63" r="2.49"/><circle class="cls-7" cx="598.8" cy="403.4" r="2.49"/><circle class="cls-7" cx="623.32" cy="398.93" r="2.49"/><circle class="cls-7" cx="625.37" cy="415.56" r="2.49"/><circle class="cls-7" cx="636.69" cy="425.55" r="2.49"/><circle class="cls-7" cx="644.19" cy="435.42" r="2.49"/><path class="cls-1" d="M618.75,432.08s-4.48,6.85,3.28,14.62C622,446.7,625.24,436,618.75,432.08Z"/><path class="cls-1" d="M604,414.84s1.12,7.26,8.13,7.14C612.16,422,611.21,415,604,414.84Z"/><path class="cls-1" d="M622.49,424.92s2.1-4.18,7.93-3.35C630.42,421.57,628.71,426.87,622.49,424.92Z"/><path class="cls-2" d="M590.57,145.24s5.52,26.89-6.71,43.77"/><path class="cls-2" d="M577.11,152.35s2.2,13.29,14.47,13"/><path class="cls-2" d="M573.11,161.35a10,10,0,0,0,8.48,0"/><path class="cls-2" d="M584.35,147.58s2.52,4.86,7.08,3.88"/><path class="cls-2" d="M602.49,150.1a12.48,12.48,0,0,1-10.68,6"/><path class="cls-2" d="M589.06,178.59s12.3.81,22.68-13.22"/><path class="cls-2" d="M616.24,175.23s-6.5.75-9.5-4.27"/><circle class="cls-7" cx="589.99" cy="142.9" r="2.42"/><circle class="cls-7" cx="576.51" cy="150.1" r="2.42"/><circle class="cls-7" cx="571.11" cy="160.22" r="2.42"/><circle class="cls-7" cx="603.72" cy="148.09" r="2.42"/><circle class="cls-7" cx="583.25" cy="145.32" r="2.42"/><circle class="cls-7" cx="618.66" cy="174.92" r="2.42"/><circle class="cls-7" cx="613.34" cy="163.77" r="2.42"/><path class="cls-1" d="M600.4,162.64s-5.27,8.22,0,12.86C600.4,175.5,605.09,170.76,600.4,162.64Z"/><path class="cls-1" d="M580.83,174.92s-.22,8.78,5.61,9.91C586.44,184.83,588.07,178.5,580.83,174.92Z"/><path class="cls-1" d="M583.86,152.35s-4.43,1.33-4.53,5.91C579.33,158.26,584,158,583.86,152.35Z"/><path class="cls-1" d="M479.91,497.08c-3.44-9.1,10.83-16.42,16-9.75,0,0,5.65-7.88,14.38-5.48s12.8,11.46,12.8,11.46,6.75-.5,9,3.76c1,1.95-.13,4.26-2.32,4.12a95.48,95.48,0,0,0-18.06.34c-9.87,1.37-15.58-3.08-15.58-3.08S481.92,502.38,479.91,497.08Z"/><path class="cls-2" d="M485.78,527.3s4.4,13.15,17.23,15"/><path class="cls-2" d="M515.68,501.12s-.85,12.77-11.54,15.85"/><line class="cls-2" x1="504.83" y1="501.6" x2="501.75" y2="570.53"/><path class="cls-1" d="M464,531c-6.23-2-1-22.6,13.92-17.46a23.05,23.05,0,0,1,13.74-10.27c9.48-2.42,14.28,4.43,14.28,4.43s10-3.06,14.6,1.39-1.71,7.22-9.41,10.11S470.49,533,464,531Z"/><path class="cls-1" d="M477.32,542.69c0-3.94,4.81-6.89,8.46-5.25,0,0,2.6-6.78,8.77-7.24s9.79,5.24,9.79,5.24a23.55,23.55,0,0,1,17.75-7.34c11.26.32,20.8,11,20.8,11s8.41-3.72,16.45,4.76c6.81,7.18,5.21,17.51,5.21,17.51-1.13.57-26.69-6.08-42.46-7C510.36,553.63,477.32,550.89,477.32,542.69Z"/><path class="cls-1" d="M529.88,532.88c-1.24-6,3.57-13.74,13-13.78,0,0-.77-9,5.56-13.38s9.73,3.33,9.73,3.33,3-7.12,12.58-8.32A13.21,13.21,0,0,1,584.24,507a15.89,15.89,0,0,1,8.77-2,7.53,7.53,0,0,1,3.49,13.68,100.92,100.92,0,0,1-25.74,12.55c-12.38,4.06-23.11,7.08-30.06,8.92C535.93,541.4,530.86,537.64,529.88,532.88Z"/><path class="cls-1" d="M558.74,490.11a5.75,5.75,0,0,1,3.86-6.44C566.88,482.24,571,485,571,485a18,18,0,0,1,11.46-9c8.14-1.93,13.3,4.67,13.3,4.67s8.42-8.32,18.1-5.95c11.18,2.73,13.48,14.54,13.87,21.25a3.51,3.51,0,0,1-4.34,3.62c-9-2.19-29.6-7-39.39-7.94C571.3,490.43,559.56,494.13,558.74,490.11Z"/><path class="cls-1" d="M554.15,554.55c-2.75-7,8-16.6,14.73-14.23,0,0,11.24-8.63,23.84-9.08s16.9,7.16,16.9,7.16,5.53-4.58,11-4c5.85.63,6.16,7,6.16,7s8.52-3.41,14.46,2.06,4.27,11.84,4.27,11.84Z"/><line class="cls-2" x1="591.19" y1="492.58" x2="574.86" y2="590.85"/><path class="cls-2" d="M565.47,532.92s3.24,14.86,15.78,19.48"/><path class="cls-2" d="M610.58,496.52s-6.27,13.89-22.12,12.53"/><path class="cls-2" d="M605.07,555s-9,15.53-26.6,13.06"/><path class="cls-7" d="M181.58,299.39s19.06,5.41,23.76-13.55C205.34,285.84,192.06,276.48,181.58,299.39Z"/><path class="cls-7" d="M190.4,277.36c0,2.61-2.53,16-21.44,12.26C169,289.62,177.31,271.38,190.4,277.36Z"/><path class="cls-7" d="M189.22,288.62s15.27-8.86,6-23.61C195.26,265,181,267.72,189.22,288.62Z"/><path class="cls-7" d="M199.38,236.37s-15.11,13-4.66,25.62C194.72,262,207.15,255.18,199.38,236.37Z"/><path class="cls-7" d="M217.91,267.89c-2.07-1.33-11.22-10.35,1.61-23.16C219.52,244.73,229.42,260.78,217.91,267.89Z"/><path class="cls-7" d="M217.25,267c-2.18,1.44-14.88,6.51-21.88-11.46C195.37,255.56,215.23,252.77,217.25,267Z"/><path class="cls-7" d="M250.06,284.43s-11.05,9,1.81,23.58C251.87,308,263.66,292.15,250.06,284.43Z"/><path class="cls-7" d="M271.83,303.27s-15.89.49-16.4-17.85C255.43,285.42,272.17,281.78,271.83,303.27Z"/><path class="cls-7" d="M251.8,278s4.07,15.2,22.93,7.25C274.73,285.24,269.39,269.22,251.8,278Z"/><path class="cls-7" d="M257.61,267.22c.15-2.45,3.55-14.85,21-9.91C278.61,257.31,269.44,273.79,257.61,267.22Z"/><path class="cls-7" d="M255.86,269.68c1.77-1.71,12.65-8.55,22.18,6.88C278,276.56,260.14,282.51,255.86,269.68Z"/><path class="cls-7" d="M228.55,273.25s-14.57,6.9-7,25.35C221.51,298.6,239.76,289,228.55,273.25Z"/><path class="cls-7" d="M229.45,253.38s8,15.91,26.41,9.22C255.86,262.6,251.61,245.43,229.45,253.38Z"/><path class="cls-7" d="M262.94,245.26s-19.13,5.16-13.42,23.84C249.52,269.1,265.72,270.3,262.94,245.26Z"/><path class="cls-7" d="M165.28,252.36s5.9,15.58,21.06,9.26C186.34,261.62,186,248,165.28,252.36Z"/><path class="cls-7" d="M160.81,267.8s17.68,9.24,25.53-5.11C186.34,262.69,175.43,253.64,160.81,267.8Z"/><circle class="cls-5" cx="204.67" cy="295.38" r="8.26"/><circle class="cls-5" cx="254.33" cy="270.73" r="8.26"/><circle class="cls-5" cx="251.53" cy="283.24" r="8.26"/><circle class="cls-5" cx="235" cy="274.96" r="8.26"/><path class="cls-1" d="M193.73,264.72c2,11.55,9.65,19.3,24.05,40.86,28.4,42.54,9,69.89,26.88,67.92,11.85-1.3-6.44-36.56-7.26-54.32-.63-13.42,5.94-20.89,9.47-36.38,2.87-12.6,3.53-25.5-2.21-24.46-5.25,1-3.34,37.6-16.56,39.56-15.39,2.28-22.43-33.81-28.62-38.92C196.25,256.31,192.76,259.15,193.73,264.72Z"/><circle class="cls-5" cx="190.63" cy="259.53" r="8.26"/><circle class="cls-5" cx="219.38" cy="271.79" r="8.26"/><circle class="cls-5" cx="182.37" cy="271.79" r="8.26"/><path class="cls-2" d="M288.67,310.17s3.07,26.13-16.84,44.12"/><path class="cls-2" d="M280.34,308s.75,11.12,7.93,14.13"/><path class="cls-2" d="M302.64,324.3s-4.2,7.58-16.47,7.31"/><path class="cls-2" d="M274.14,308.7s2.32,4.32,7.08,4"/><path class="cls-2" d="M275.72,317.61a8,8,0,0,0,8,.65"/><path class="cls-2" d="M292.53,331s2.37,7.48,13.11,6"/><path class="cls-2" d="M297.83,321s-2,4.73,0,7.8"/><path class="cls-2" d="M274.73,336.29s.39,5.92,5.94,7.42"/><path class="cls-1" d="M287.85,299.91s-4.29,5.39.76,10.26C288.61,310.17,293.09,306.5,287.85,299.91Z"/><path class="cls-1" d="M303.65,329.82s-5.87,1.45-4.57,6.83C299.08,336.65,303.86,336.42,303.65,329.82Z"/><path class="cls-1" d="M270.57,328.26s-1.66,6.41,4.21,7.94C274.78,336.2,277,331.48,270.57,328.26Z"/><circle class="cls-7" cx="273.19" cy="306.78" r="2.14"/><circle class="cls-7" cx="274.14" cy="315.89" r="2.14"/><circle class="cls-7" cx="280.34" cy="305.86" r="2.14"/><circle class="cls-7" cx="298.41" cy="318.77" r="2.14"/><circle class="cls-7" cx="307.53" cy="336.2" r="2.14"/><circle class="cls-7" cx="303.9" cy="322.14" r="2.14"/><path class="cls-2" d="M341.24,212.72s-10.37,25.43-1.45,44.26"/><path class="cls-2" d="M353.17,222.19s-4.61,12.65-16.62,10.14"/><path class="cls-2" d="M355.44,231.77a10.07,10.07,0,0,1-8.34-1.56"/><path class="cls-2" d="M346.93,216.17s-3.37,4.31-7.67,2.51"/><path class="cls-2" d="M328.64,215.31a12.46,12.46,0,0,0,9.38,7.86"/><path class="cls-2" d="M336.6,245.78s-12.24-1.46-19.86-17.15"/><path class="cls-2" d="M310.5,237.48s6.25,1.94,10.12-2.44"/><circle class="cls-7" cx="342.25" cy="210.53" r="2.42"/><circle class="cls-7" cx="354.17" cy="220.09" r="2.42"/><circle class="cls-7" cx="357.62" cy="231.02" r="2.42"/><circle class="cls-7" cx="327.79" cy="213.11" r="2.42"/><circle class="cls-7" cx="348.42" cy="214.15" r="2.42"/><circle class="cls-7" cx="308.18" cy="236.74" r="2.42"/><circle class="cls-7" cx="315.46" cy="226.76" r="2.42"/><path class="cls-1" d="M328.38,228s3.67,9-2.36,12.65C326,240.67,322.28,235.14,328.38,228Z"/><path class="cls-1" d="M345.36,243.69s-1.39,8.67-7.34,8.7C338,252.39,337.59,245.88,345.36,243.69Z"/><path class="cls-1" d="M346.53,221s4.11,2.11,3.37,6.64C349.9,227.59,345.34,226.49,346.53,221Z"/><path class="cls-1" d="M279.9,554.21l-8,4.28-7.76-4.74-3.33,4.42s7,5.87,6.57,19.18l4,.12,4,.11c.39-13.31,7.69-18.77,7.69-18.77Z"/><line class="cls-2" x1="271.57" y1="565.3" x2="271.68" y2="559.41"/><path class="cls-7" d="M291.38,543.22a9.17,9.17,0,0,0,.38-2.36,9.29,9.29,0,0,0-9-9.56,8.61,8.61,0,0,0-1.35.06,9.29,9.29,0,0,0-18-.55A9.26,9.26,0,0,0,252.94,542a9.29,9.29,0,1,0,11,14,9.3,9.3,0,0,0,15.46.45,9.3,9.3,0,1,0,12-13.25Z"/><path class="cls-5" d="M245.48,568.25a7,7,0,0,1,11.2-4.14c3.56,3.26,3.66,8.48,12.57,9.5,5.65.65,3.66,7.8-6.83,7.65C249.26,581.07,244.37,573.16,245.48,568.25Z"/><path class="cls-5" d="M297.52,569.29a7,7,0,0,0-11-4.59c-3.69,3.12-4,8.33-12.94,9-5.67.42-4,7.64,6.52,7.91C293.23,582,298.43,574.24,297.52,569.29Z"/><path class="cls-1" d="M193.81,552.48l-8,4.27L178,552l-3.34,4.41s7,5.87,6.58,19.18l4,.12,4,.12c.39-13.32,7.68-18.77,7.68-18.77Z"/><line class="cls-2" x1="185.48" y1="563.56" x2="185.6" y2="557.68"/><path class="cls-7" d="M205.29,541.48a9.09,9.09,0,0,0,.38-2.35,9.3,9.3,0,0,0-9-9.57,9.86,9.86,0,0,0-1.34.07,9.29,9.29,0,0,0-18.05-.55A9.24,9.24,0,0,0,166.63,538a9.76,9.76,0,0,0,.22,2.25,9.29,9.29,0,1,0,11,14,9.29,9.29,0,0,0,15.46.46,9.3,9.3,0,1,0,12-13.26Z"/><path class="cls-5" d="M159.39,566.52a7,7,0,0,1,11.2-4.15c3.57,3.26,3.67,8.48,12.57,9.51,5.65.65,3.66,7.79-6.83,7.64C163.17,579.34,158.28,571.42,159.39,566.52Z"/><path class="cls-5" d="M211.43,567.56a7,7,0,0,0-11-4.59c-3.7,3.11-4,8.33-12.95,9-5.67.43-4,7.64,6.53,7.91C207.14,580.21,212.34,572.5,211.43,567.56Z"/><path class="cls-1" d="M238.66,565.68l-8,4.28-7.75-4.74-3.34,4.42s7,5.87,6.58,19.18l4,.12,4,.11c.39-13.31,7.68-18.77,7.68-18.77Z"/><line class="cls-2" x1="230.33" y1="576.77" x2="230.45" y2="570.88"/><path class="cls-7" d="M250.14,554.69a9.63,9.63,0,0,0,.39-2.36,9.3,9.3,0,0,0-9-9.56,7.48,7.48,0,0,0-1.34.07,9.29,9.29,0,0,0-18-.56,9.45,9.45,0,0,0-1.07-.09,9.29,9.29,0,0,0-9.35,11.27,9.29,9.29,0,1,0,11,14,9.3,9.3,0,0,0,15.46.46,9.3,9.3,0,1,0,12-13.26Z"/><path class="cls-5" d="M204.24,579.72a7,7,0,0,1,11.2-4.14c3.57,3.26,3.67,8.48,12.58,9.5,5.64.65,3.65,7.8-6.84,7.65C208,592.54,203.13,584.63,204.24,579.72Z"/><path class="cls-5" d="M256.28,580.76a7,7,0,0,0-11-4.59c-3.7,3.12-4,8.33-12.95,9-5.66.42-4,7.64,6.53,7.91C252,593.42,257.2,585.71,256.28,580.76Z"/><path class="cls-1" d="M461,629.1s1.16,8.17,11.2,8.43,6.34,2.59,12.21,3.88,5.54-3.1,10.36-2.85,8-.93,8.65-6.52,1.73-5,3.13-7-1-3.69,0-5.92,4.75.35,7.9-5.13-4-23.47-26.17-20.88S454.45,611.07,461,629.1Z"/><path class="cls-1" d="M418.6,597.32s-22.5-7.4-32.22-5.59c-5.53,1-5.41,3.71-11,3.47s-11.19-.21-12.54,5.87c-1,4.3-2.38,5.79,0,9.47s10.33,3.51,10.54,6.93c.18,2.89-2.88,4.36-3.28,7.1s2.23,3.55,1.93,6.8-4.68,6-2.14,11.38,7.21,7.62,10.26,5.38,6-5.89,11.48-5.28,8.63-2.54,8.83-7,6.6-5.18,7.82-.71-.71,9.45,5.18,9.75,6.3-3.45,10.67-1.62,5.91-1.4,7.71-3c3.06-2.78,7.27-.71,8.66-8.73S442,602.83,418.6,597.32Z"/><path class="cls-1" d="M381.34,629.1s8.3-23.57,55.53-19.59"/><path class="cls-1" d="M557.61,610.74s2.55,8.61,9.45,10.34,10.73-3.26,18,0,9.19,4,15.52,1.34,7.08,3.83,13.6,1.63,4.21-13.17-1-17.07-2.3-5.87,1.15-6.23,4.79-1,5.17-4.6,3.64-1.26,6.71-4.93-.19-4.13,1.91-7.82,2.3-7.28-2.49-9.13-1-6.09-6.7-7.81-10,4.81-14.37,2.32-.38-5.94-4.22-8-9.19,1.72-12.26,0-1.91-3.7-5.94-3.86-6.89,5.36-6.51,11.31,0,29.18-8,31S556,607.11,557.61,610.74Z"/><path class="cls-1" d="M610.16,587.7s-27.83.37-45.75,18.27"/><path class="cls-5" d="M482.64,559c3.69-1.88,10.22-4,16.54-.16,8.41,5.14,12.6.63,20.08,7.41,10.64,9.65,8,37.11-7.72,38.3-15,1.14-12.48,4.67-21.67,4.76s-7.92-4.1-19.82-3.77c-13.5.38-22.65-26.23-8.56-39.55C469.83,558.12,477.47,561.65,482.64,559Z"/><path class="cls-7" d="M495.05,562.13s-2.92,4.46-8,.78c0,0,2.66-2.25,1.5-7.4-.85-3.77-3.06-5.21-5.65-4.86s-3.34-2.11-1.14-3c3.05-1.22,7.22.06,9.18,4.29C492.61,555.52,490.76,559.71,495.05,562.13Z"/><path class="cls-5" d="M476.27,573.1c-4.24,5.43-4.74,17.23-.21,23.53"/><path class="cls-5" d="M503.76,573.09c2.28,4.46,4,16-.59,23"/><path class="cls-5" d="M481,585.71c2-.28,1.78,5.1,0,5.11S479.4,585.92,481,585.71Z"/><path class="cls-4" d="M495.46,596.33c1.37.11,1,3.69-.52,3.36S494.1,596.21,495.46,596.33Z"/><path class="cls-5" d="M516.87,580c1.12.11,1.24,2.22,1.26,4.81,0,2.86-.92,5.58-2,5.3s-1.26-2.43-1.14-5.2S515.5,579.85,516.87,580Z"/><path class="cls-4" d="M485.25,567.47c1.52,1,.58,3.38-1.28,7.4-1.64,3.56-.59,7.8-2.25,7.94s-2.19-5.45-1.52-9.25S483.71,566.46,485.25,567.47Z"/><path class="cls-5" d="M465.4,583.44c1.12-.73.63-3.92-.81-5.07C464.59,578.37,462.35,582.12,465.4,583.44Z"/><circle class="cls-4" cx="493.85" cy="568.78" r="0.95"/><path class="cls-4" d="M495.25,575.21c2.55-.37,6.83,16.52,1.71,18-.75.21-1.9-.58-1.24-3.42C497.33,582.79,492.58,575.6,495.25,575.21Z"/><path class="cls-4" d="M502,565.31c.14-2.12,6.53-2.53,11.28,1.81,3.88,3.53,4.66,9.06,2.56,9-1.68,0-2.33-6-6.62-7.93S501.9,567.4,502,565.31Z"/><path class="cls-4" d="M478.07,564.67c.45,1.59-2.81,1-6.07,4-2.81,2.58-4.21,5.59-5.19,4.73-1.19-1,.22-4.06,2.89-6.52C472.07,564.68,477.5,562.68,478.07,564.67Z"/><path class="cls-5" d="M433.41,566.43c5.09-1.78,13.92-3.41,21.41,2.68,10,8.11,16.18,3,24.66,13.08,12.06,14.32,3.83,49.35-16.65,48.15-19.54-1.14-16.94,3.87-28.83,2.38s-9.53-6.68-25-8.32c-17.5-1.86-24.7-37.85-4.16-52.62C417,563.05,426.28,568.93,433.41,566.43Z"/><path class="cls-7" d="M439.38,571s2.53,6.47,10,3.15c0,0-2.78-3.6.08-9.85,2.11-4.59,5.31-5.83,8.51-4.68,3.36,1.21,4.83-1.8,2.27-3.51-3.57-2.38-9.23-1.87-12.87,3C444.28,563.2,445.52,569.05,439.38,571Z"/><path class="cls-5" d="M422.72,583.53c-6.42,6.27-9.12,21.44-4.36,30.37"/><path class="cls-5" d="M458.25,588.3c2.18,6.16,2.39,21.43-4.76,29.57"/><path class="cls-4" d="M426.59,600.64c2.66,0,1.42,6.91-.94,6.59S424.55,600.64,426.59,600.64Z"/><path class="cls-4" d="M443.49,616.89c1.74.38.58,4.94-1.26,4.26S441.74,616.5,443.49,616.89Z"/><path class="cls-4" d="M474,599.49c1.43.34,1.22,3.09.78,6.44-.48,3.7-2.14,7-3.5,6.49s-1.2-3.36-.56-6.92S472.25,599.09,474,599.49Z"/><path class="cls-4" d="M435.32,577.81c1.78,1.54.15,4.47-2.95,9.35-2.74,4.3-2.12,10-4.28,9.87s-1.89-7.43-.37-12.23S433.5,576.24,435.32,577.81Z"/><path class="cls-4" d="M406.88,595c1.58-.74,1.49-5-.16-6.69C406.72,588.3,403.16,592.76,406.88,595Z"/><circle class="cls-4" cx="446.2" cy="581.01" r="1.24"/><path class="cls-4" d="M446.89,589.56c3.36,0,5.95,22.54-.92,23.53-1,.15-2.35-1.08-1-4.64C448.26,599.72,443.38,589.59,446.89,589.56Z"/><path class="cls-4" d="M457.39,577.94c.54-2.72,8.87-2.13,14.26,4.31,4.4,5.24,4.45,12.52,1.74,12.09-2.17-.34-2-8.11-7.17-11.4S456.85,580.62,457.39,577.94Z"/><path class="cls-4" d="M426.52,573c.31,2.13-3.8.79-8.54,4.09-4.08,2.84-6.41,6.49-7.52,5.21-1.36-1.57,1-5.21,4.87-7.94C418.77,571.91,426.13,570.27,426.52,573Z"/><path class="cls-5" d="M529,562.92c3.7-2.89,10.54-6.7,18.42-3.75,10.51,3.92,14.21-2,24,3.93,14,8.47,16.91,39.7-.34,44.42-16.46,4.5-12.92,7.91-23.15,10s-9.74-2.87-22.95.08c-15,3.34-30.94-24.38-18.09-42.3C514.46,564.69,523.75,567,529,562.92Z"/><path class="cls-7" d="M534.92,565.8s4.39,4.17,9.06-1.21c0,0-3.53-1.81-3.58-7.81,0-4.39,2-6.56,5-6.84,3.1-.28,3.15-3.2.49-3.61-3.7-.55-8,1.94-9,7.13C535.91,557.84,539.05,562,534.92,565.8Z"/><path class="cls-5" d="M524.88,580c-3.56,7-1.57,20.25,4.86,26.3"/><path class="cls-5" d="M555.56,574.07c3.51,4.47,7.94,17,4.3,25.75"/><path class="cls-4" d="M532.84,593.07c2.19-.74,3.09,5.31,1.06,5.71S531.15,593.64,532.84,593.07Z"/><path class="cls-4" d="M551.32,601.79c1.55-.17,1.86,3.92.15,3.87S549.77,602,551.32,601.79Z"/><path class="cls-4" d="M571.68,578.92c1.28-.12,1.87,2.21,2.44,5.1.63,3.19.19,6.41-1.08,6.34s-1.93-2.44-2.39-5.56S570.12,579.07,571.68,578.92Z"/><path class="cls-4" d="M533.69,571.78c1.9.78,1.37,3.66.17,8.55-1.07,4.32,1,8.83-.79,9.34s-3.63-5.6-3.71-10S531.75,571,533.69,571.78Z"/><path class="cls-4" d="M515,593.9c1.1-1.06-.14-4.5-2-5.48C513,588.42,511.29,593.09,515,593.9Z"/><circle class="cls-4" cx="543.57" cy="571.39" r="1.08"/><path class="cls-4" d="M546.52,578.26c2.77-1,11.2,17,5.8,19.7-.8.4-2.25-.24-2.13-3.55C550.48,586.28,543.63,579.28,546.52,578.26Z"/><path class="cls-4" d="M552,565.75c-.31-2.4,6.73-4.23,13-.42,5.09,3.11,7.16,9.1,4.81,9.51-1.89.32-3.89-6.16-9.11-7.42S552.26,568.11,552,565.75Z"/><path class="cls-4" d="M525.07,570.22c.84,1.67-2.92,1.71-5.92,5.76-2.58,3.48-3.48,7.14-4.76,6.39-1.56-.91-.64-4.57,1.81-7.91C518.37,571.52,524,568.11,525.07,570.22Z"/><path class="cls-7" d="M226.15,588c.23-4.49,5.38-7.08,12.14-4.7,7.69,2.72,9.27-2.63,17.66,2.6,6.48,4,6.26,13.57,6.26,13.57s-3.31-.75-8.18,3.4c-4.36,3.72-10.81,3.84-16.46-3C233.34,594.77,225.81,594.66,226.15,588Z"/><path class="cls-2" d="M235.43,589.15s13.27-2.12,26.78,10.31"/><path class="cls-5" d="M277.62,619.76c.2-7.16,6.8-12.63,7.08-12.86l1.27,1.56c-.06,0-6.17,5.12-6.34,11.36Z"/><path class="cls-5" d="M312.64,624.23c-4.76,6.63-14.48,7.57-14.89,7.61l-.2-2.28c.09,0,9.09-.89,13.24-6.67Z"/><path class="cls-5" d="M321.85,619.32c-4.34,6.65-1.77,15.8-1.66,16.18l2.14-.61c0-.09-2.39-8.57,1.38-14.36Z"/><path class="cls-5" d="M325.21,637.48c-8-.91-11.15-6.61-14.24-12.15-2.27-4.06-4.62-8.26-9-10.61a29.11,29.11,0,0,0-11.59-3.57c-3.78-.47-7.05-.89-11.37-5.3a17.34,17.34,0,0,0-12.67-5.4,13.82,13.82,0,0,0-10.11,4.65,24.58,24.58,0,0,1-15.63,8.12l-.18-2.85a22.17,22.17,0,0,0,13.66-7.16,16.59,16.59,0,0,1,12.18-5.62,20.17,20.17,0,0,1,14.8,6.26c3.62,3.7,6.16,4,9.68,4.46a32,32,0,0,1,12.59,3.89c5.07,2.75,7.62,7.32,10.09,11.74,3.38,6,6.3,11.28,15.24,10.77l.17,2.86A21.9,21.9,0,0,1,325.21,637.48Z"/><path class="cls-5" d="M347.61,630.06c.38-9.83,9.54-17.23,9.93-17.54l1.72,2.16c-.09.06-8.56,6.93-8.9,15.49Z"/><path class="cls-5" d="M264.4,617.62c-2.07-8.48,3.92-17,4.18-17.38l2,1.42c-.06.08-5.6,8-3.8,15.38Z"/><path class="cls-7" d="M278.09,643.1c-3.27.73-6.17-2.45-5.81-7.79.4-6.07-3.76-6.13-1.68-13.22,1.61-5.46,8.49-7.21,8.49-7.21s.13,2.52,4.09,5.19c3.55,2.39,4.93,7,1.16,12.43C281.52,636.57,283,642,278.09,643.1Z"/><path class="cls-2" d="M277.06,636.19s-4.19-9.11,2-21.31"/><path class="cls-7" d="M255.15,628.53s-10.89.32-15.32,8.05-3.42,16-5.34,22.44,1.26,10.37,8.57,5.36,6.69-4.77,15.29-9,6.22-19,5.41-21.42S260.21,629.87,255.15,628.53Z"/><path class="cls-2" d="M240.8,657s6.18-21.42,19-26.8"/><path class="cls-7" d="M344.5,599.1c2.06,3.39-2.3,6.59-2.56,10.27-1,14.36-9.92,19.63-20.89,13.37-4.1-2.34-7.24-7.29-4.36-13.34,3.5-7.33,9.74-3.65,15.48-9.68C337.58,594,342.66,596.07,344.5,599.1Z"/><path class="cls-2" d="M321.05,622.74A34.64,34.64,0,0,1,337.82,603"/><path class="cls-7" d="M288.69,576c3.84-1.59,8.07,1.68,8.76,8.29.79,7.51,5.9,6.71,4.86,15.81-.8,7-8.86,10.63-8.86,10.63s-.69-3.06-6.1-5.48c-4.85-2.17-7.52-7.52-4.06-15C285.88,584.67,283,578.33,288.69,576Z"/><path class="cls-2" d="M291.41,584.19s7.06,10.25,2,26.5"/><circle class="cls-3" cx="261.81" cy="628.85" r="14.18"/><circle class="cls-4" cx="261.31" cy="633.29" r="2.94"/><circle class="cls-5" cx="261.31" cy="633.29" r="0.88"/><circle class="cls-3" cx="302.87" cy="608.78" r="14.18"/><circle class="cls-4" cx="296.59" cy="614.01" r="2.94"/><circle class="cls-5" cx="296.59" cy="614.01" r="0.88"/><circle class="cls-3" cx="293.33" cy="638.71" r="14.18"/><circle class="cls-4" cx="288.59" cy="645.37" r="2.94"/><circle class="cls-5" cx="288.59" cy="645.37" r="0.88"/><circle class="cls-3" cx="338.78" cy="636.87" r="15.55"/><circle class="cls-4" cx="342.44" cy="630.76" r="2.94"/><circle class="cls-5" cx="342.44" cy="630.76" r="0.88"/><circle class="cls-3" cx="367.23" cy="603.38" r="16.74"/><circle class="cls-4" cx="374.47" cy="597.02" r="2.69"/><circle class="cls-5" cx="374.47" cy="597.02" r="0.81"/><circle class="cls-3" cx="272.47" cy="588.03" r="14.74"/><circle class="cls-4" cx="271.86" cy="579.57" r="2.37"/><circle class="cls-5" cx="271.86" cy="579.57" r="0.71"/><circle class="cls-3" cx="236.12" cy="624.98" r="16.24"/><circle class="cls-4" cx="231.96" cy="634.31" r="3.08"/><circle class="cls-5" cx="231.96" cy="634.31" r="0.92"/><path class="cls-7" d="M340.46,679.22s-.3-16.22,5.38-22.85l28.57,22.54-21.31-35s7.61-14.33,21.31-21.9l6.76,14.83V616.3a15.32,15.32,0,0,1,11.14-5.77l3.36,15.69,2.07-17.69s7.19-6.77,14.73-5.39l1.16,64.62,11-65.54a17,17,0,0,1,11.53,0l-8.79,71.7,23.49-68.76s11.63,1,17.31,7.92l-7.42,30.8,15.09-24.62s10.64.74,15.34,12.61L458.36,676.1l38-32.22S508,663.28,504,683.81l-16.23,5.65,15.85,3.61s.81,3.64-.4,6l-162.8-19.82"/><path class="cls-7" d="M131.94,634.16l-13.17-4.36s-7.29-14,0-28.93l27.89,28.93-24.72-35.27s4.54-12.44,15.56-16.64l9.85,22-3.77-24.64A34,34,0,0,1,168.66,568l5.91,60.83L184,569.34s4.93-.37,6.81,2l-7.39,55.55L202,583.69l-9.28,45.18,15.95-31.27A53.82,53.82,0,0,1,215,629.8l-11,4.36,10,3.44s3.14,8.14-.82,15.16Z"/><path class="cls-7" d="M577.12,676.1A55.88,55.88,0,0,1,573.54,653l24.1,7.33-24.21-14.67s-3.93-24.65,0-36.39l34.23,36.36L575.6,593.67s2.64-10.27,7-13.2l25,39.61L587.92,565.5s2.2-8.28,6.16-8.8l13.58,33.45-10-41.21s3.49-4.57,7-4.57l11.44,38.74-2.64-45.78s9.39-5.87,17.32-2.64L630.65,560,639,539.09s8.8,3.23,11.45,18.08L642.5,611,654,594.85s3.64,19.13-1.26,34.95l-65.35,46.3Z"/><path class="cls-2" d="M451.42,738.89s4.74,21.56,23.86,23.06c10.71.83,20.39-8.26,26.19-15.29"/><path class="cls-2" d="M392.31,776.1s11.71,8.47,29.56,4.58,37.51-18.58,47.58-38.46"/><path class="cls-1" d="M479.72,696.42l-8.57-1C463,700.5,458,707.65,458.38,712.05c0,0,6.86-.62,7.17,11.84s.52,30.24,6.86,29.13c9.11-1.6,15-35.91,21.83-40.23,4.59-2.92,8.16,3.8,11.95-7.06a13.3,13.3,0,0,0,.61-6.23l-.61.2Z"/><ellipse class="cls-6" cx="478.53" cy="737.7" rx="0.75" ry="1.74"/><ellipse class="cls-6" cx="472.39" cy="741.02" rx="1.91" ry="5.64"/><ellipse class="cls-6" cx="470.32" cy="726.56" rx="1.33" ry="2.2"/><ellipse class="cls-6" cx="500.59" cy="705.27" rx="1.31" ry="2.24"/><path class="cls-1" d="M326.57,705.8c.23,20.65-1.62,36,4.64,36.66s11.14-22.74,23-23.44,16.74,28.77,17.42,55-.71,46.42,7.18,47.11S395,785.38,402,768.44s20.52-49.85,31.82-49.36c13.07.57,10.8,21.25,17.62,19.81,7-1.49,5.16-27.29,14.14-31.86,3.57-1.82,11.09,1.28,14.16-10.61L315.21,676.1S326.34,685.15,326.57,705.8Z"/><ellipse class="cls-6" cx="376.06" cy="754.31" rx="1.65" ry="3"/><path class="cls-6" d="M330,688.4c1.74-1.3,4,1.94,4.53,6.54.47,3.8,0,9-2,8.47s-.78-5.95-1.72-9.45C330.13,691.41,329,689.17,330,688.4Z"/><path class="cls-6" d="M333.54,711.94c1.45-.21,2.36,3.81,2.36,7.61s-.38,10.93-3.12,10c-2-.69.23-5.49,0-9.22S331.49,712.25,333.54,711.94Z"/><ellipse class="cls-6" cx="449.9" cy="729.56" rx="1.52" ry="3" transform="translate(-192.62 162.25) rotate(-16.9)"/><ellipse class="cls-6" cx="443.85" cy="718.92" rx="1.52" ry="3" transform="translate(-357.31 450.6) rotate(-39.79)"/><path class="cls-6" d="M379.73,772.6c2.93-.31,2.78,8.24,2.32,12.17-.58,5.09-2.54,10.24-4.34,6.48S376.17,773,379.73,772.6Z"/><ellipse class="cls-6" cx="384.83" cy="795.95" rx="1.63" ry="2.86"/><ellipse class="cls-6" cx="379.83" cy="806.04" rx="1.79" ry="4.05"/></svg>