<?xml version="1.0" encoding="utf-8"?>
<!-- Generator: Adobe Illustrator 22.1.0, SVG Export Plug-In . SVG Version: 6.00 Build 0)  -->
<svg version="1.1" id="圖層_1" xmlns="http://www.w3.org/2000/svg" xmlns:xlink="http://www.w3.org/1999/xlink" x="0px" y="0px"
	 viewBox="0 0 657 958" style="enable-background:new 0 0 657 958;" xml:space="preserve">
<style type="text/css">
	.st0{fill:#96C6E7;stroke:#000000;stroke-width:0.43;stroke-linejoin:round;stroke-miterlimit:10;}
	.st1{fill:none;stroke:#000000;stroke-width:0.43;stroke-linejoin:round;stroke-miterlimit:10;}
	.st2{fill:#AE7516;stroke:#000000;stroke-width:0.43;stroke-miterlimit:10;}
	.st3{fill:#E6AD18;stroke:#000000;stroke-width:0.43;stroke-miterlimit:10;}
	.st4{fill:#FFF3D9;stroke:#000000;stroke-width:0.43;stroke-miterlimit:10;}
	.st5{fill:#FFFFFF;stroke:#000000;stroke-width:0.43;stroke-linejoin:round;stroke-miterlimit:10;}
	.st6{fill:#90D1A2;stroke:#000000;stroke-width:0.43;stroke-linejoin:round;stroke-miterlimit:10;}
	.st7{fill:#FFF3D9;stroke:#000000;stroke-width:0.43;stroke-linejoin:round;stroke-miterlimit:10;}
	.st8{fill:#FFFFFF;stroke:#000000;stroke-width:0.43;stroke-miterlimit:10;}
</style>
<g>
	<g>
		<g>
			<path class="st0" d="M283.5,59.1c-1.7-8.1,11.4-8.6,11.4-8.6s0.1-9,9.4-13.1s16.3,2.8,16.3,2.8s6.5-7.3,18-5.5
				c11.5,1.8,17.4,13.4,14.3,17.7c-2.7,3.8-16.6,0-32.6,1.8C298.7,56.8,285.2,67.6,283.5,59.1z"/>
			<path class="st0" d="M316.9,73.6c-1.4-3.5,2.2-7.8,7.6-9.4c5.4-1.5,9.9,0.5,9.8,4.1c0,0,7.6-3.8,14.6-1.4s6.2,8.9,2.6,9.4
				c-3.6,0.4-11.2-0.8-18-1.3C326.8,74.4,318.5,77.7,316.9,73.6z"/>
			<line class="st1" x1="316.6" y1="26.3" x2="317.2" y2="98.6"/>
			<path class="st1" d="M302.4,58.3c0,0,2.5,8.1,14.5,7.9"/>
			<path class="st0" d="M306.7,26.3c0,0,0-6.4,4.7-8.3c3.6-1.4,6.2,2,6.4,4.1c0,0,9.7-4.3,11.9,4.1H306.7z"/>
			<path class="st1" d="M331.8,74.9c0,0-1.5,10.4-14.7,12.7"/>
		</g>
		<path class="st1" d="M321.9,26.3c0,0,0,4.8-5.3,5.4"/>
	</g>
	<g>
		<path class="st0" d="M363.1,81.3c-6.8-6.7,11.3-21.4,20.9-17.6c0,0,6.7-11.6,19.2-15.3c12.6-3.6,19.5,0.8,19.7,4.7
			c0,0,12.7-4.3,17.5-0.7c5.1,3.9-0.7,9.7-0.7,9.7s13-2.6,14,4s-18.9,8-28.6,8.9C397.2,77.7,369.1,87.2,363.1,81.3z"/>
		<path class="st0" d="M387.1,27.6c-0.8-3.4,6.6-2.8,6.6-2.8s0.8-6.7,7.2-6.8c5.2-0.1,5.9,4.8,5.9,4.8s18.6-1.3,20.8,6.8
			c2.3,8.2-20.1,2.1-23.3-1.8C404.4,27.9,388.1,31.6,387.1,27.6z"/>
		<path class="st0" d="M389,120.1c-0.2-7.5,13.2-13,18.8-8.4c0,0,13.6-4.3,25.6-0.5c12.1,3.9,13.5,12.5,13.5,12.5s6.9-2.6,11.8,0
			c6.1,3.3,3.4,8.7,3.4,8.7s9.2-0.3,13,6.9c3.8,7.2,0,12.7,0,12.7L389,120.1z"/>
		<path class="st0" d="M360.5,144.1c0,0,0.6-6.6,5.3-10.1c4.7-3.5,9.9-1.4,10.4,0.9c0,0,3.6-5.9,10.4-5.7c6.8,0.2,6.3,9.6-0.8,10.5
			S360.5,144.1,360.5,144.1z"/>
		<path class="st0" d="M341.3,124.7c-3.2-6.2,7.9-9.6,7.9-9.6s-1.8-7.3,5.2-12.8c7.1-5.5,14.6-1.5,14.6-1.5s4-7.4,14.3-8.6
			s17.9,6.8,16.2,11c-1.5,3.7-14.3,3.9-27.7,9.1C353.9,119.3,344.7,131.2,341.3,124.7z"/>
		<line class="st1" x1="407.5" y1="29.9" x2="388.4" y2="201.3"/>
		<path class="st1" d="M398,29c0,0,0.4,11.4,8.4,11.4c5.2,0,7.7-8.1,7.7-8.1"/>
		<path class="st1" d="M416,76.2c0,0-0.4,14.6-15.6,17.8"/>
		<path class="st1" d="M374.9,111.2c0,0,5.2,14.3,21.9,15.3"/>
		<path class="st1" d="M375.9,141.3c0,0,2.6,14.3,17.5,15.1"/>
		<path class="st1" d="M424.1,133.1c0,0-9.6,14.3-29.2,10.3"/>
	</g>
	<g>
		<polygon class="st2" points="449.8,728.2 449.1,734.8 415.8,753.4 390.5,760.1 343.8,785.4 294,774 226.7,809.3 134.2,824.6 
			124.9,835.2 207.8,868.5 448.2,817.8 465.4,725.2 		"/>
		<polygon class="st3" points="140.2,575 87.4,581.6 147.9,655.3 168.2,743 134.2,824.6 226.7,809.3 294,774 343.8,785.4 
			390.5,760.1 415.8,753.4 449.1,734.8 449.8,728.2 458.3,646.2 		"/>
	</g>
	<g>
		<polygon class="st3" points="605.5,575.9 593.5,681.8 550.2,792 439.2,886.9 386.7,903 302,940.3 242.8,940.3 135,886.9 
			124.9,835.2 209.5,842.8 347.3,820.8 449.1,734.8 458.3,646.2 		"/>
		<line class="st1" x1="292.5" y1="829.5" x2="298.8" y2="932.1"/>
		<line class="st1" x1="209.5" y1="842.8" x2="254.5" y2="914.8"/>
		<line class="st1" x1="159.4" y1="860.7" x2="232" y2="906.7"/>
		<line class="st1" x1="336.8" y1="855.5" x2="319.5" y2="906.7"/>
		<line class="st1" x1="347.3" y1="820.8" x2="386.7" y2="903"/>
		<line class="st1" x1="449.1" y1="734.8" x2="427.2" y2="890.6"/>
		<line class="st1" x1="378.9" y1="812.7" x2="394.4" y2="839.9"/>
		<polyline class="st1" points="545.8,618.1 528,758.1 502.1,820.8 		"/>
		<line class="st1" x1="523.9" y1="639.6" x2="488.8" y2="745.4"/>
		<line class="st1" x1="473.6" y1="679.3" x2="473.6" y2="763.2"/>
		<line class="st1" x1="585.5" y1="590.1" x2="559.1" y2="689.4"/>
		<line class="st1" x1="585.5" y1="683.3" x2="565.2" y2="696.6"/>
	</g>
	<g>
		<g>
			<path class="st0" d="M226.6,613.4c-3.2,0.7-5.6,2-6.5,4.1c-4.1,9.7-2.9,12.9-2.9,12.9s7.4,6.2,7.8,17.8
				c0.3,8.9,2.1,13.6,4.7,13.6c3.7,0,7.9-13.8,10.7-22.5c2.7-8.5,7.2-9.1,10.4-9.4c3.9-0.4,7.8-4.2,9.2-8.9l-19.5-4.5L226.6,613.4z"
				/>
			<polygon class="st4" points="576.2,539.9 550.2,498.9 433.4,494.7 114.2,494.7 82,580.3 107.2,586.1 226.6,613.4 240.4,616.6 
				259.9,621 266.3,622.5 423,641.9 431.6,642.9 458.3,646.2 458.9,646 545.8,618.1 605.5,575.9 			"/>
		</g>
		<ellipse class="st5" cx="229.5" cy="643.9" rx="1.3" ry="2.3"/>
		<ellipse class="st5" cx="228.4" cy="633.1" rx="1.1" ry="2"/>
	</g>
	<g>
		<polygon class="st3" points="427.7,172.1 446.9,132.4 446.9,81.2 489.4,78.5 487.1,91.7 507.7,86.7 542,142 538.3,169.8 
			551.1,189.6 534.9,301.2 		"/>
		<path class="st6" d="M494.6,210.8c0,0,12.6-13.3,25.6-11.3v27.2l7.1-27.4c0,0,19.8-0.8,27.5,10.2l-10.2,25l17.3-15.6
			c0,0,4,1.9,4.6,6.8l-36,42.8l46-30.4l-37.4,34.5l39.3-13.1c0,0,3.6,9.2-1.3,20.6l-15.5,5.6h14.6c0,0,2.3,6.2-0.6,10.4l-35.9,3.9
			l31.1,9.7c0,0-2.9,8.4-9.4,12.6L549,319l8.7,9.4c0,0-7.7,12.3-19.1,18l-34-20L494.6,210.8z"/>
		<line class="st4" x1="502.5" y1="102.3" x2="496.4" y2="184.6"/>
		<line class="st4" x1="534.9" y1="149.1" x2="514.8" y2="177"/>
		<line class="st1" x1="466.5" y1="94" x2="463.1" y2="170"/>
	</g>
	<g>
		<g>
			<polygon class="st4" points="483.3,199 466.5,189.6 475.7,243.2 			"/>
			<polygon class="st3" points="519.7,268.1 511.8,214.9 483.3,199 475.7,243.2 466.5,189.6 430.7,149.1 382.1,175.5 379.7,307 
				534.9,301.2 			"/>
		</g>
		<polygon class="st3" points="542,315.1 566.5,498.9 449.7,494.7 417.5,375 492,345.8 		"/>
		<line class="st1" x1="502.9" y1="359.8" x2="534.9" y2="432.7"/>
		<line class="st1" x1="469.1" y1="361.3" x2="500.8" y2="476.8"/>
		<line class="st1" x1="453.8" y1="362.1" x2="453.8" y2="494.7"/>
		<line class="st1" x1="430.3" y1="156.4" x2="427.7" y2="221.1"/>
		<g>
			<g>
				<polygon class="st4" points="419.8,382.1 454,361.9 502.9,359.8 542,315.1 396.2,309.6 				"/>
				<polygon class="st2" points="394.2,296.2 481.6,280 534.9,301.2 542,315.1 483.3,332.7 399.3,310.9 				"/>
			</g>
			<line class="st1" x1="474.9" y1="338.1" x2="457.3" y2="354.6"/>
			<line class="st1" x1="509.3" y1="335.2" x2="474.9" y2="354.6"/>
		</g>
	</g>
	<g>
		<line class="st1" x1="253.2" y1="469.8" x2="259.1" y2="498.9"/>
		<line class="st1" x1="363.6" y1="458.4" x2="356.7" y2="513.2"/>
		<g>
			<polygon class="st7" points="399.3,296.2 392.3,182.2 383.1,228.1 			"/>
			<polygon class="st7" points="373.9,170.2 361.4,162 363.5,248.6 			"/>
			<polygon class="st3" points="411.9,314 399.3,296.2 383.1,228.1 392.3,182.2 373.9,170.2 363.5,248.6 361.4,162 318.8,82.9 
				303.9,222.8 265.5,239.1 225,228.1 202.5,108.1 162.7,124.7 138.9,226 126,346.6 190,494.7 392.6,517.2 449.7,494.7 			"/>
			<polygon class="st3" points="265.5,239.1 303.9,222.8 318.8,82.9 318.8,82.9 247.7,66.3 202.5,108.1 202.5,108.1 225,228.1 			
				"/>
		</g>
		<line class="st1" x1="250.8" y1="100.8" x2="257.8" y2="183.1"/>
		<line class="st1" x1="260.7" y1="228.1" x2="300.1" y2="319.6"/>
		<line class="st1" x1="220.8" y1="351.8" x2="211.5" y2="411.7"/>
		<polyline class="st1" points="245.4,353.3 241.5,363.5 236.7,398.5 		"/>
		<line class="st1" x1="249.4" y1="357.8" x2="251.6" y2="418.6"/>
		<polyline class="st1" points="320.4,236.8 348.9,319.6 348.9,363.7 		"/>
		<line class="st1" x1="162.7" y1="124.7" x2="180.6" y2="296.2"/>
		<line class="st1" x1="156.3" y1="179.3" x2="161.2" y2="192"/>
		<line class="st1" x1="335.6" y1="175.1" x2="348.9" y2="205.3"/>
		<line class="st1" x1="346.1" y1="177" x2="350.8" y2="190.2"/>
		<line class="st1" x1="403" y1="379.3" x2="403" y2="513.1"/>
	</g>
	<g>
		<polygon class="st4" points="103.4,360.1 97.4,494.7 190,494.7 190,415.3 152.8,375.1 		"/>
		<polygon class="st2" points="103.4,360.1 126,346.6 181.7,379.4 190,415.3 153.4,403.4 143.5,381 		"/>
		<line class="st1" x1="171.6" y1="418.6" x2="179.5" y2="442.2"/>
	</g>
	<g>
		<polygon class="st4" points="225.8,434 248.2,466.1 334.4,472.4 374.2,453.2 392.6,417.1 391.3,398.5 		"/>
		<line class="st1" x1="334.4" y1="453.2" x2="334.4" y2="466.4"/>
		<line class="st1" x1="256.3" y1="458.4" x2="273.9" y2="465.6"/>
		<line class="st1" x1="279.6" y1="461.1" x2="285.6" y2="465.6"/>
		<polygon class="st2" points="222.3,411.8 225.8,434 248.8,453.2 336.7,448.1 382.3,420.8 391.3,398.5 		"/>
	</g>
	<g>
		<polygon class="st4" points="144.6,327.4 179.9,348.1 220.8,351.8 235.6,342.4 249.4,297.6 194.4,300.4 		"/>
		<polygon class="st2" points="144.6,327.4 205.7,334.3 216.6,312.8 249.4,297.6 218.3,263.5 		"/>
		<line class="st1" x1="219" y1="321.7" x2="220.8" y2="342"/>
		<line class="st1" x1="226.3" y1="324.7" x2="225.3" y2="334.3"/>
	</g>
	<g>
		<polygon class="st4" points="417.4,226.4 420.5,244.9 431.2,239.2 441.8,234.5 433,223.9 		"/>
		<polygon class="st2" points="417.4,226.4 422.4,232.6 432.9,229.5 441.8,234.5 448.7,226.4 427.8,218.9 		"/>
	</g>
	<g>
		<polygon class="st4" points="217.2,801.1 240.4,781.1 269.3,798.7 263,809 224.6,818.7 		"/>
		<line class="st1" x1="244.4" y1="788.4" x2="259" y2="806.1"/>
	</g>
	<g>
		<polygon class="st4" points="278.5,772.5 287,769.1 292.7,786.2 288.1,790.3 274.3,789.5 		"/>
		<line class="st1" x1="283.5" y1="777" x2="281.1" y2="786.4"/>
		<polygon class="st3" points="287,769.1 294.1,775.7 297.6,771.9 301.8,781.7 292.7,786.2 		"/>
	</g>
	<g>
		<polygon class="st4" points="301.8,815.7 316.4,792.4 331.2,792.4 342.6,812.5 325,815.7 		"/>
		<line class="st1" x1="315.2" y1="810.2" x2="322.2" y2="797.3"/>
		<line class="st1" x1="324" y1="807.2" x2="325.5" y2="801.5"/>
		<polygon class="st3" points="331.2,792.4 339.1,793.3 346.9,802.8 342.6,812.5 		"/>
	</g>
	<g>
		<polygon class="st4" points="355.4,783.7 364.6,768.7 385.6,763.2 392.4,768.2 399.4,765.4 405.9,769.1 394.6,776.8 387,781.7 		
			"/>
		<line class="st1" x1="380.2" y1="771.6" x2="377.7" y2="777.9"/>
		<line class="st1" x1="383.7" y1="768.3" x2="384.4" y2="776.9"/>
	</g>
	<g>
		<polygon class="st4" points="270.7,884.2 286.4,901.2 298,891.7 304.1,892 310.1,884.2 310.1,874.9 		"/>
		<polygon class="st2" points="270.7,884.2 285.8,888.3 297,880.8 306.9,882.2 310.1,874.9 293.3,869.3 		"/>
	</g>
	<g>
		<polygon class="st4" points="361.1,845.7 401.8,871.2 447.7,860.4 489.6,828.2 494.9,778 428,808.8 385.5,841.4 		"/>
		<polygon class="st2" points="361.1,845.7 389.2,851.8 440.9,816.5 462.8,807.5 486.4,789.1 494.9,778 491.9,775.6 473.6,784.2 
			427.2,791.9 374.8,838.5 		"/>
		<line class="st1" x1="409.8" y1="849.8" x2="444.8" y2="851.8"/>
		<line class="st1" x1="439.7" y1="834.7" x2="447.9" y2="843.4"/>
	</g>
	<g>
		<polygon class="st4" points="506.4,747.9 527.4,774.7 540.6,758.1 549.5,752.8 555.3,742.1 522,740.3 		"/>
		<line class="st3" x1="532.7" y1="755.7" x2="530.8" y2="765.3"/>
		<polygon class="st2" points="506.4,747.9 532.3,751.7 539.5,743.2 555.3,742.1 559.1,734.8 535,721.2 		"/>
	</g>
	<g>
		<polygon class="st4" points="333.2,298.1 347.7,322.4 363.4,332.7 369,330.1 375.5,299.3 342.1,294.3 		"/>
		<polygon class="st2" points="331.7,287.5 333.2,298.1 350.1,301.2 360.2,312.6 375.5,299.3 364.8,289.1 		"/>
		<line class="st3" x1="360.4" y1="316.6" x2="363.2" y2="325.3"/>
	</g>
	<g>
		<polygon class="st4" points="254.6,203.8 260.7,228.1 311.9,243.2 335.6,225.3 333.6,199 		"/>
		<line class="st1" x1="313.6" y1="222.7" x2="311.9" y2="243.2"/>
		<line class="st1" x1="288.8" y1="223.9" x2="294.1" y2="232.9"/>
		<line class="st1" x1="297.8" y1="223.9" x2="300.1" y2="231.2"/>
		<line class="st1" x1="328.6" y1="218.9" x2="327.5" y2="223.9"/>
		<polygon class="st2" points="257.8,183.1 254.6,203.8 313.6,222.7 333.6,199 304.6,177 		"/>
	</g>
	<g>
		<polygon class="st4" points="499,376.9 514,417.2 519.6,415.8 537.3,401.5 546.5,401.7 557.7,389 526.6,383.1 		"/>
		<polygon class="st2" points="499,376.9 512.5,391.9 542,390.1 547.8,391.9 557.7,389 556.1,385.6 540,382.1 532.8,370.6 		"/>
		<line class="st1" x1="533.7" y1="393.4" x2="523.4" y2="409.7"/>
		<line class="st1" x1="521.9" y1="397" x2="521.9" y2="403.3"/>
	</g>
	<polyline class="st1" points="189.3,708.1 192.8,722.7 194.5,750.4 	"/>
	<polyline class="st1" points="211,708.1 217.2,733.7 217.2,760.5 	"/>
	<line class="st1" x1="204.2" y1="720.9" x2="206.7" y2="734.8"/>
	<polyline class="st1" points="255,708.1 252.9,729.3 255,753.2 	"/>
	<line class="st1" x1="262.6" y1="723.1" x2="264.8" y2="734.8"/>
	<polyline class="st1" points="292.7,711.8 295.1,723.1 295.1,738.3 	"/>
	<line class="st1" x1="301.8" y1="720.9" x2="303.7" y2="729.3"/>
	<line class="st1" x1="158.7" y1="612.7" x2="164.8" y2="667.8"/>
	<line class="st1" x1="167" y1="618.2" x2="168" y2="636.6"/>
	<line class="st1" x1="367" y1="685.5" x2="363.8" y2="760.5"/>
	<line class="st1" x1="375.7" y1="672" x2="375.7" y2="705.9"/>
	<polyline class="st1" points="421.3,718.7 422.4,730.8 420.2,742.1 	"/>
	<line class="st1" x1="431.2" y1="723.9" x2="430.2" y2="734.8"/>
	<line class="st1" x1="507.6" y1="183.4" x2="504.6" y2="185.4"/>
	<path class="st6" d="M48.9,433.6c0,0-0.9,39.3,21.5,67.8c22.4,28.5,39.3,27,39.3,27s24.8-16,25.4-17.8c0.6-1.8,20.1-47.3,20.1-47.3
		s-2-10.1-5.1-14.4l-6.8,8l4.9-16.6c0,0-1.5-7.7-5.8-10l-7.1,13.4l0.6-28.4c0,0-8.4-16.4-20.3-22.8v49.7l-13.7-60.4l6.5,84.7L94,381
		c0,0-6.1-9.7-23.6-2.6l7.1,34.7L61.8,381c0,0-13.2,12.1-10.4,32.7l41.4,95.5L48.9,433.6z"/>
	<path class="st6" d="M287.7,526.6c0,0-2.1-27.7,21-36.6c0,0,9.9,22.8,9.3,20.7c-0.5-2.1,0-24.9,0-24.9s4.8-1.9,9.4-1.5v38.5
		l7.2-39.9c0,0,6.1-3.1,11.4-1.1l-6.4,36.7l14.8-37.3c0,0,7.2-0.7,10.9,3.5l-9.2,26.7L375,487c0,0,13.2,2.8,20.1,14l-4.2,8l8.4-3.6
		c0,0,7.6,10.1,3.3,24.3L287.7,526.6z"/>
	<path class="st2" d="M495,81.7l-5.6,9.4l13.1-3.2C502.5,87.9,500.5,85,495,81.7z"/>
	<g>
		<path class="st4" d="M391.2,315.4v13.8l7.8,52l16,7.7l5.2-4.4c0,0-22.8-66.3-23.3-66.3C396.4,318.3,391.2,315.4,391.2,315.4z"/>
		<polygon class="st2" points="391.2,315.4 395.4,311.9 416.6,330.7 427,364.6 420.3,384.5 409.1,376.2 406.1,376 399.9,351.7 
			399,333.9 		"/>
	</g>
	<g>
		<polygon class="st3" points="232,820.8 236.7,814 229.8,799.6 222.6,793.3 211,773.7 206.7,808.1 		"/>
		<polygon class="st4" points="166.6,819.3 195.7,831.8 232,820.8 224.9,800.5 213.6,796.8 211,773.7 199.3,765.6 		"/>
		<line class="st1" x1="198.7" y1="781.1" x2="186.9" y2="818.7"/>
		<line class="st1" x1="201.2" y1="798.7" x2="201.2" y2="814.8"/>
	</g>
	<path class="st1" d="M208.5,668.4c0,0,5.3,25.9,21.9,28.4c16.6,2.5,34.6-11.6,47.3-41.5"/>
	<g>
		<path class="st0" d="M107.2,586.1c0,0,5.8,9.7,8,25.7c2.2,16,3.4,30.6,10.9,30.6c7.6,0,15.4-30.3,29.7-30s22.4,24.7,23.8,43.2
			c1.4,18.5,3.6,29.8,12.2,31.4c7.4,1.4,13.3-7.6,19.1-25.8c5.8-18.2,21.3-44.6,29.4-44.6l0,0L107.2,586.1L107.2,586.1z"/>
		<ellipse class="st5" cx="190.9" cy="674" rx="1.4" ry="3.5"/>
		<ellipse class="st5" cx="183.9" cy="626.9" rx="1.3" ry="3.6"/>
		<ellipse class="st5" cx="187.1" cy="653.6" rx="3.2" ry="12.5"/>
		<ellipse class="st5" cx="120.5" cy="614.5" rx="1.1" ry="2.6"/>
		
			<ellipse transform="matrix(0.9965 -8.397047e-02 8.397047e-02 0.9965 -52.2925 12.7605)" class="st5" cx="125.5" cy="628" rx="2.4" ry="5.8"/>
		
			<ellipse transform="matrix(9.469140e-02 -0.9955 0.9955 9.469140e-02 -508.9899 701.179)" class="st1" cx="131" cy="630.4" rx="1.8" ry="0.9"/>
	</g>
	<g>
		<path class="st1" d="M347.3,276.5c0,0,0.9,16.9,9.6,22.9"/>
		<path class="st1" d="M358.4,270.4c0,0-0.4,10.7-9.6,15"/>
		<path class="st1" d="M353,271c0,0,0,5.1,3.3,6.9"/>
		<path class="st1" d="M363.2,273c0,0-2,2.2-5.5,1.5"/>
		<circle class="st6" cx="347.3" cy="274" r="2.4"/>
		<circle class="st6" cx="358.5" cy="268.3" r="2.2"/>
		<circle class="st6" cx="364.7" cy="271.4" r="2.2"/>
		<circle class="st6" cx="352.7" cy="268.8" r="2.2"/>
	</g>
	<g>
		<g>
			<path class="st6" d="M401,281.5c0-1.2,0.1-2.5,0.3-3.7c0.2-1.2,0.4-2.5,0.8-3.7c0.3-1.2,0.7-2.4,1.2-3.6c0.5-1.2,1.1-2.3,1.8-3.4
				c0.7-1.1,1.6-2.1,2.6-3c1-0.9,2.2-1.7,3.5-2.2c1.3-0.5,2.7-0.7,4.1-0.7c0.7,0,1.5,0.1,2.2,0.3c0.7,0.2,1.4,0.5,2,0.9
				c1.3,0.8,2.2,1.8,3,2.9c0.8,1.1,1.4,2.3,2,3.5c1.1,2.4,1.8,4.9,2.3,7.4c0.5,2.5,0.9,5,1.1,7.5c0.1,1.3,0.2,2.5,0.2,3.8
				c0.1,1.3,0.1,2.5,0,3.8h-2c-0.1-2.4-0.3-4.8-0.6-7.2c-0.3-2.4-1.4-4.8-1.9-7.2c-0.5-2.3-1.1-4.7-2-6.8c-0.5-1.1-1-2.1-1.6-3
				c-0.6-0.9-1.4-1.7-2.2-2.3c-0.8-0.6-1.7-0.9-2.7-0.9c-1,0-2.1,0.1-3.2,0.4c-2,0.7-3.8,2.1-5.3,4c-1.4,1.8-2.6,4-3.5,6.2
				C402.4,276.7,401.6,279.1,401,281.5z"/>
			<path class="st6" d="M410.5,252.9c1.3-0.3,2.8-0.2,4.1,0.1c0.7,0.2,1.4,0.4,2,0.7c0.3,0.1,0.6,0.3,1,0.5c0.3,0.2,0.6,0.4,0.9,0.6
				c1.2,0.8,2.3,1.8,3.2,2.9c0.9,1.1,1.7,2.3,2.4,3.5c0.7,1.2,1.3,2.5,1.8,3.9c0.5,1.3,0.9,2.7,1.2,4c0.6,2.7,1,5.5,1,8.2l-2.7,0.2
				c-0.4-2.6-0.8-5.2-1.4-7.8c-0.6-2.5-1.3-5-2.4-7.3c-0.5-1.2-1.1-2.3-1.8-3.3c-0.7-1.1-1.5-2-2.4-2.9
				C415.5,254.5,413.2,253.2,410.5,252.9z"/>
			<path class="st6" d="M425.5,287.4c-0.1-1-0.2-2-0.2-3.1c0-1-0.1-2-0.1-3c0-2,0.1-4.1,0.3-6.1c0.2-2,0.6-4.1,1.1-6.1
				c0.5-2,1.3-4,2.5-5.9c0.6-0.9,1.4-1.8,2.3-2.6c0.9-0.7,2.1-1.3,3.3-1.5c0.6-0.1,1.2-0.2,1.8-0.1c0.6,0,1.2,0.1,1.7,0.2
				c1.1,0.3,2.2,0.8,3.2,1.4c0.5,0.3,0.9,0.7,1.3,1.1c0.4,0.4,0.7,0.8,1,1.3c0.6,0.9,1.1,1.9,1.4,2.9c0.3,1,0.6,2,0.7,3
				c0.1,0.5,0.1,1,0.2,1.5c0,0.5,0,1,0,1.5c-0.6-1.9-1.4-3.7-2.4-5.4c-1-1.6-2.2-3.1-3.6-3.9c-0.7-0.4-1.5-0.7-2.3-0.8
				c-0.4-0.1-0.8-0.1-1.2-0.1c-0.4,0-0.8,0-1.2,0.1c-0.7,0.2-1.4,0.5-2,1c-0.3,0.3-0.6,0.6-0.8,0.9c-0.3,0.3-0.5,0.7-0.7,1
				c-0.9,1.5-1.5,3.3-2,5.1c-0.5,1.8-0.8,3.7-1,5.6c-0.5,3.8-0.6,7.8-0.6,11.6L425.5,287.4z"/>
			<path class="st6" d="M439.2,286.2c-1.1-0.2-2.2-0.1-3.3,0.2c-1.1,0.3-2.1,0.8-3,1.5c-0.9,0.6-1.7,1.4-2.5,2.2
				c-0.7,0.8-1.4,1.7-2,2.6c-0.1,0.1-0.1,0.2-0.2,0.3c0,0,0,0,0-0.1l0-1.8c0-0.6,0-11.8,0.1-16.1c0.1-4.3,0.1-8.6-0.1-12.8
				c-0.1-2.1-0.2-4.3-0.4-6.4c-0.2-2.1-0.5-4.3-0.9-6.4c-0.4,2.1-0.7,4.3-0.9,6.4c-0.2,2.1-0.4,4.3-0.4,6.4
				c-0.2,4.3-0.2,8.6-0.1,12.8c0,0,0,0.1,0,0.1c-0.1-0.1-0.1-0.2-0.2-0.4c-0.7-1.1-1.6-2.2-2.8-3.1c-1.2-0.8-2.7-1.3-4.1-1.3
				c-1.4,0-2.7,0.2-3.9,0.6c-1.3,0.5-2.4,1.2-3.4,2c-1,0.9-1.8,1.9-2.4,3c-0.6,1.1-1.1,2.3-1.4,3.5c-0.3,1.2-0.5,2.4-0.5,3.6
				c0.4-1.1,0.9-2.2,1.5-3.2c0.6-1,1.2-2,1.9-2.8c0.7-0.9,1.5-1.6,2.3-2.2c0.9-0.6,1.8-1,2.8-1.3c1-0.3,2-0.4,3-0.3
				c0.9,0,1.8,0.3,2.5,0.9c1.5,1,2.5,3,3.2,5.1c0.7,2.1,1.1,4.3,1.3,6.6c0.1,1.1,0.2,2.3,0.2,3.4c0,0.5,0.1,12.5,0.1,16.4
				c0,0.7,0.6,1.3,1.3,1.3l0,0c0.7,0,1.3-0.6,1.3-1.3c0-1.7,0.1-3.7,0.1-3.7c0.1-0.8,0.3-1.8,0.5-2.7c0.3-0.9,0.6-1.8,0.9-2.7
				c0.7-1.8,1.5-3.6,2.6-5.1c0.5-0.8,1.1-1.5,1.8-2.2c0.7-0.6,1.4-1.2,2.3-1.6c0.8-0.4,1.8-0.7,2.7-0.7c1-0.1,2,0,3,0.3
				C441.3,286.8,440.3,286.4,439.2,286.2z"/>
		</g>
		<g>
			<path class="st6" d="M437.5,281.5c0-1.2,0.1-2.5,0.3-3.7c0.2-1.2,0.4-2.5,0.8-3.7c0.3-1.2,0.7-2.4,1.2-3.6
				c0.5-1.2,1.1-2.3,1.8-3.4c0.7-1.1,1.6-2.1,2.6-3c1-0.9,2.2-1.7,3.5-2.2c1.3-0.5,2.7-0.7,4.1-0.7c0.7,0,1.5,0.1,2.2,0.3
				c0.7,0.2,1.4,0.5,2,0.9c1.3,0.8,2.2,1.8,3,2.9c0.8,1.1,1.4,2.3,2,3.5c1.1,2.4,1.8,4.9,2.3,7.4c0.5,2.5,0.9,5,1.1,7.5
				c0.1,1.3,0.2,2.5,0.2,3.8c0.1,1.3,0.1,2.5,0,3.8h-2c-0.1-2.4-0.3-4.8-0.6-7.2c-0.3-2.4-1.4-4.8-1.9-7.2c-0.5-2.3-1.1-4.7-2-6.8
				c-0.5-1.1-1-2.1-1.6-3c-0.6-0.9-1.4-1.7-2.2-2.3c-0.8-0.6-1.7-0.9-2.7-0.9c-1,0-2.1,0.1-3.2,0.4c-2,0.7-3.8,2.1-5.3,4
				c-1.4,1.8-2.6,4-3.5,6.2C438.9,276.7,438.1,279.1,437.5,281.5z"/>
			<path class="st6" d="M447,252.9c1.3-0.3,2.8-0.2,4.1,0.1c0.7,0.2,1.4,0.4,2,0.7c0.3,0.1,0.6,0.3,1,0.5c0.3,0.2,0.6,0.4,0.9,0.6
				c1.2,0.8,2.3,1.8,3.2,2.9c0.9,1.1,1.7,2.3,2.4,3.5c0.7,1.2,1.3,2.5,1.8,3.9c0.5,1.3,0.9,2.7,1.2,4c0.6,2.7,1,5.5,1,8.2l-2.7,0.2
				c-0.4-2.6-0.8-5.2-1.4-7.8c-0.6-2.5-1.3-5-2.4-7.3c-0.5-1.2-1.1-2.3-1.8-3.3c-0.7-1.1-1.5-2-2.4-2.9
				C452.1,254.5,449.7,253.2,447,252.9z"/>
			<path class="st6" d="M462,287.4c-0.1-1-0.2-2-0.2-3.1c0-1-0.1-2-0.1-3c0-2,0.1-4.1,0.3-6.1c0.2-2,0.6-4.1,1.1-6.1
				c0.5-2,1.3-4,2.5-5.9c0.6-0.9,1.4-1.8,2.3-2.6c0.9-0.7,2.1-1.3,3.3-1.5c0.6-0.1,1.2-0.2,1.8-0.1c0.6,0,1.2,0.1,1.7,0.2
				c1.1,0.3,2.2,0.8,3.2,1.4c0.5,0.3,0.9,0.7,1.3,1.1c0.4,0.4,0.7,0.8,1,1.3c0.6,0.9,1.1,1.9,1.4,2.9c0.3,1,0.6,2,0.7,3
				c0.1,0.5,0.1,1,0.2,1.5c0,0.5,0,1,0,1.5c-0.6-1.9-1.4-3.7-2.4-5.4c-1-1.6-2.2-3.1-3.6-3.9c-0.7-0.4-1.5-0.7-2.3-0.8
				c-0.4-0.1-0.8-0.1-1.2-0.1c-0.4,0-0.8,0-1.2,0.1c-0.7,0.2-1.4,0.5-2,1c-0.3,0.3-0.6,0.6-0.8,0.9c-0.3,0.3-0.5,0.7-0.7,1
				c-0.9,1.5-1.5,3.3-2,5.1c-0.5,1.8-0.8,3.7-1,5.6c-0.5,3.8-0.6,7.8-0.6,11.6L462,287.4z"/>
			<path class="st6" d="M475.7,286.2c-1.1-0.2-2.2-0.1-3.3,0.2c-1.1,0.3-2.1,0.8-3,1.5c-0.9,0.6-1.7,1.4-2.5,2.2
				c-0.7,0.8-1.4,1.7-2,2.6c-0.1,0.1-0.1,0.2-0.2,0.3c0,0,0,0,0-0.1l0-1.8c0-0.6,0-11.8,0.1-16.1c0.1-4.3,0.1-8.6-0.1-12.8
				c-0.1-2.1-0.2-4.3-0.4-6.4c-0.2-2.1-0.5-4.3-0.9-6.4c-0.4,2.1-0.7,4.3-0.9,6.4c-0.2,2.1-0.4,4.3-0.4,6.4
				c-0.2,4.3-0.2,8.6-0.1,12.8c0,0,0,0.1,0,0.1c-0.1-0.1-0.1-0.2-0.2-0.4c-0.7-1.1-1.6-2.2-2.8-3.1c-1.2-0.8-2.7-1.3-4.1-1.3
				c-1.4,0-2.7,0.2-3.9,0.6c-1.3,0.5-2.4,1.2-3.4,2c-1,0.9-1.8,1.9-2.4,3c-0.6,1.1-1.1,2.3-1.4,3.5c-0.3,1.2-0.5,2.4-0.5,3.6
				c0.4-1.1,0.9-2.2,1.5-3.2c0.6-1,1.2-2,1.9-2.8c0.7-0.9,1.5-1.6,2.3-2.2c0.9-0.6,1.8-1,2.8-1.3c1-0.3,2-0.4,3-0.3
				c0.9,0,1.8,0.3,2.5,0.9c1.5,1,2.5,3,3.2,5.1c0.7,2.1,1.1,4.3,1.3,6.6c0.1,1.1,0.2,2.3,0.2,3.4c0,0.5,0.1,12.5,0.1,16.4
				c0,0.7,0.6,1.3,1.3,1.3l0,0c0.7,0,1.3-0.6,1.3-1.3c0-1.7,0.1-3.7,0.1-3.7c0.1-0.8,0.3-1.8,0.5-2.7c0.3-0.9,0.6-1.8,0.9-2.7
				c0.7-1.8,1.5-3.6,2.6-5.1c0.5-0.8,1.1-1.5,1.8-2.2c0.7-0.6,1.4-1.2,2.3-1.6c0.8-0.4,1.8-0.7,2.7-0.7c1-0.1,2,0,3,0.3
				C477.8,286.8,476.8,286.4,475.7,286.2z"/>
		</g>
		<g>
			<path class="st6" d="M474.1,281.5c0-1.2,0.1-2.5,0.3-3.7c0.2-1.2,0.4-2.5,0.8-3.7c0.3-1.2,0.7-2.4,1.2-3.6
				c0.5-1.2,1.1-2.3,1.8-3.4c0.7-1.1,1.6-2.1,2.6-3c1-0.9,2.2-1.7,3.5-2.2c1.3-0.5,2.7-0.7,4.1-0.7c0.7,0,1.5,0.1,2.2,0.3
				c0.7,0.2,1.4,0.5,2,0.9c1.3,0.8,2.2,1.8,3,2.9c0.8,1.1,1.4,2.3,2,3.5c1.1,2.4,1.8,4.9,2.3,7.4c0.5,2.5,0.9,5,1.1,7.5
				c0.1,1.3,0.2,2.5,0.2,3.8c0.1,1.3,0.1,2.5,0,3.8h-2c-0.1-2.4-0.3-4.8-0.6-7.2c-0.3-2.4-1.4-4.8-1.9-7.2c-0.5-2.3-1.1-4.7-2-6.8
				c-0.5-1.1-1-2.1-1.6-3c-0.6-0.9-1.4-1.7-2.2-2.3c-0.8-0.6-1.7-0.9-2.7-0.9c-1,0-2.1,0.1-3.2,0.4c-2,0.7-3.8,2.1-5.3,4
				c-1.4,1.8-2.6,4-3.5,6.2C475.4,276.7,474.7,279.1,474.1,281.5z"/>
			<path class="st6" d="M483.5,252.9c1.3-0.3,2.8-0.2,4.1,0.1c0.7,0.2,1.4,0.4,2,0.7c0.3,0.1,0.6,0.3,1,0.5c0.3,0.2,0.6,0.4,0.9,0.6
				c1.2,0.8,2.3,1.8,3.2,2.9c0.9,1.1,1.7,2.3,2.4,3.5c0.7,1.2,1.3,2.5,1.8,3.9c0.5,1.3,0.9,2.7,1.2,4c0.6,2.7,1,5.5,1,8.2l-2.7,0.2
				c-0.4-2.6-0.8-5.2-1.4-7.8c-0.6-2.5-1.3-5-2.4-7.3c-0.5-1.2-1.1-2.3-1.8-3.3c-0.7-1.1-1.5-2-2.4-2.9
				C488.6,254.5,486.2,253.2,483.5,252.9z"/>
			<path class="st6" d="M498.5,287.4c-0.1-1-0.2-2-0.2-3.1c0-1-0.1-2-0.1-3c0-2,0.1-4.1,0.3-6.1c0.2-2,0.6-4.1,1.1-6.1
				c0.5-2,1.3-4,2.5-5.9c0.6-0.9,1.4-1.8,2.3-2.6c0.9-0.7,2.1-1.3,3.3-1.5c0.6-0.1,1.2-0.2,1.8-0.1c0.6,0,1.2,0.1,1.7,0.2
				c1.1,0.3,2.2,0.8,3.2,1.4c0.5,0.3,0.9,0.7,1.3,1.1c0.4,0.4,0.7,0.8,1,1.3c0.6,0.9,1.1,1.9,1.4,2.9c0.3,1,0.6,2,0.7,3
				c0.1,0.5,0.1,1,0.2,1.5c0,0.5,0,1,0,1.5c-0.6-1.9-1.4-3.7-2.4-5.4c-1-1.6-2.2-3.1-3.6-3.9c-0.7-0.4-1.5-0.7-2.3-0.8
				c-0.4-0.1-0.8-0.1-1.2-0.1c-0.4,0-0.8,0-1.2,0.1c-0.7,0.2-1.4,0.5-2,1c-0.3,0.3-0.6,0.6-0.8,0.9c-0.3,0.3-0.5,0.7-0.7,1
				c-0.9,1.5-1.5,3.3-2,5.1c-0.5,1.8-0.8,3.7-1,5.6c-0.5,3.8-0.6,7.8-0.6,11.6L498.5,287.4z"/>
			<path class="st6" d="M512.2,286.2c-1.1-0.2-2.2-0.1-3.3,0.2c-1.1,0.3-2.1,0.8-3,1.5c-0.9,0.6-1.7,1.4-2.5,2.2
				c-0.7,0.8-1.4,1.7-2,2.6c-0.1,0.1-0.1,0.2-0.2,0.3c0,0,0,0,0-0.1l0-1.8c0-0.6,0-11.8,0.1-16.1c0.1-4.3,0.1-8.6-0.1-12.8
				c-0.1-2.1-0.2-4.3-0.4-6.4c-0.2-2.1-0.5-4.3-0.9-6.4c-0.4,2.1-0.7,4.3-0.9,6.4c-0.2,2.1-0.4,4.3-0.4,6.4
				c-0.2,4.3-0.2,8.6-0.1,12.8c0,0,0,0.1,0,0.1c-0.1-0.1-0.1-0.2-0.2-0.4c-0.7-1.1-1.6-2.2-2.8-3.1c-1.2-0.8-2.7-1.3-4.1-1.3
				c-1.4,0-2.7,0.2-3.9,0.6c-1.3,0.5-2.4,1.2-3.4,2c-1,0.9-1.8,1.9-2.4,3c-0.6,1.1-1.1,2.3-1.4,3.5c-0.3,1.2-0.5,2.4-0.5,3.6
				c0.4-1.1,0.9-2.2,1.5-3.2c0.6-1,1.2-2,1.9-2.8c0.7-0.9,1.5-1.6,2.3-2.2c0.9-0.6,1.8-1,2.8-1.3c1-0.3,2-0.4,3-0.3
				c0.9,0,1.8,0.3,2.5,0.9c1.5,1,2.5,3,3.2,5.1c0.7,2.1,1.1,4.3,1.3,6.6c0.1,1.1,0.2,2.3,0.2,3.4c0,0.5,0.1,12.5,0.1,16.4
				c0,0.7,0.6,1.3,1.3,1.3l0,0c0.7,0,1.3-0.6,1.3-1.3c0-1.7,0.1-3.7,0.1-3.7c0.1-0.8,0.3-1.8,0.5-2.7c0.3-0.9,0.6-1.8,0.9-2.7
				c0.7-1.8,1.5-3.6,2.6-5.1c0.5-0.8,1.1-1.5,1.8-2.2c0.7-0.6,1.4-1.2,2.3-1.6c0.8-0.4,1.8-0.7,2.7-0.7c1-0.1,2,0,3,0.3
				C514.3,286.8,513.3,286.4,512.2,286.2z"/>
		</g>
	</g>
	<g>
		<circle class="st6" cx="200.6" cy="97.3" r="2.5"/>
		<circle class="st6" cx="157.3" cy="84.6" r="1.5"/>
		<circle class="st6" cx="192.2" cy="91.6" r="1.5"/>
		<circle class="st6" cx="181.8" cy="85.2" r="1.5"/>
		<path class="st1" d="M169.6,85c0,0-0.6,21.5,12.3,31.7"/>
		<path class="st1" d="M157.7,86.1c0,0,3.3,13.1,14,13.9"/>
		<path class="st1" d="M188.4,88.9c0,0-0.3,14-13.3,19.6"/>
		<path class="st1" d="M181.9,86.8c0,0,0.8,7.4,5.2,8.5"/>
		<path class="st1" d="M198.6,98.8c0,0-7.3,5.9-14.8,3.1"/>
		<path class="st1" d="M163.4,82.9c0,0,2.3,8.7-1.3,11.8"/>
		<path class="st1" d="M192.3,93.1c0,0-0.7,5.8,1.4,8.4"/>
		<path class="st1" d="M153.3,89.9c0,0,2.9,3.5,6.8,2"/>
		<circle class="st6" cx="163.1" cy="80.8" r="2.1"/>
		<circle class="st6" cx="188.4" cy="86.8" r="2.1"/>
		<circle class="st6" cx="170" cy="83.1" r="2.1"/>
		<circle class="st6" cx="152.5" cy="88.9" r="1.5"/>
	</g>
	<g>
		<path class="st0" d="M270.1,345.7c0,0-0.3,7.7-7,12.3l16.7,16.2c0,0,34.9-5.2,50.7,3.9c22.9,13.1,26.2,22.7,30.8,20.7
			c4.1-1.7,1.9-35.5-7.1-47.7L313,334.6L270.1,345.7z"/>
		<path class="st6" d="M256.5,368.1c-0.1-6,4.1-16,12.7-18.2c11-2.9,19.4,4.8,22.7,10.2l53.4,18.9l14.1,20c0,0-0.4,21.6-15.6,26.6
			s-26-6.2-26-6.2l-0.8-14.8c0,0-8.1,1.5-15.8,0.5c-7.7-1.1-8.6-2.6-9.9-4.8c0,0-5.8,3.4-14,4.3c-8.2,0.9-11.2,0-13.6-4.7
			C261.3,395.1,256.7,381.1,256.5,368.1z"/>
		<g>
			<path class="st5" d="M271.6,404.8c0,0,6.2,7.5-4,15.8c-10.2,8.3,1.3,8.6,10.7,8.2c9.3-0.3,22.6-4.6,22.6-4.6s-7.3-4.7-8.9-13
				c-1.6-8.3-1.8-11.1-1.8-11.1L271.6,404.8z"/>
			<path class="st4" d="M268.8,417.9c0,0-5.5,4.1-11.6,6.6c-6.2,2.5-9.6,2.8-8.7,6.7c2.9,4.5,27.5,0.8,37.3,2.4
				c9.8,1.7,8.6-8.1,1.8-8.4c-6.9-0.3-10.3,0.2-12.6,0.5c-2.6,0.4-4.4-0.7-2.7-2.3C274,421.9,275.9,419,268.8,417.9z"/>
		</g>
		<path class="st0" d="M297.4,372.3c0,0,17.4-3.2,33.2,5.8c22.9,13.1,26.2,22.7,30.8,20.7c4.1-1.7,1.9-35.5-7.1-47.7L313,334.6"/>
		<g>
			<path class="st4" d="M354.7,345.9c-11.7,0.8-16-5.6-27.7-7c-9.6-1.2-16,2.8-26.4,3.6c-10.4,0.8-13.5-4.5-23.2-2.9
				c-7.5,1.2-10.7-0.2-11.8-1c-0.5,1.2-0.9,2.3-1.1,3.2c-1.5,6.8,7.9,2.8,17.8,2.8c9.9,0,13.5,6.5,27.4,1.7
				c13.9-4.8,19.5-1.5,29.6,3.7c10.1,5.2,17.1,0,17.1,0S356,348.5,354.7,345.9z"/>
			<path class="st6" d="M277.4,339.6c9.8-1.6,12.8,3.7,23.2,2.9c10.4-0.8,16.9-4.7,26.4-3.6c11.7,1.4,16,7.8,27.7,7
				c-2-4-6.2-10.8-14.7-19.5c-14-14.4-30.4-17.8-30.4-17.8s-22,4.5-27.4,7.7c-4.7,2.8-13.4,14.5-16.7,22.3
				C266.6,339.4,269.9,340.8,277.4,339.6z"/>
		</g>
		<path class="st6" d="M291.2,400.2c0,0-4.8-15.5-6.8-27.6c-2-12.1,2.7-18.3,10.2-20.5s12.5,1.5,12.5,1.5"/>
		<path class="st1" d="M280.9,345.9c0,0-0.8,3.4-1.7,4.2"/>
		<path class="st8" d="M305.7,358.4c0,0-5.1,6.1-11.3,8.5c-6.3,2.3-13.7,4.5-12.6,9c0.2,0.9,1,2.4,2.9,2.6c0,0-2.7,4,2.3,5.6
			c0,0-3.5,2.8,0.2,5.4s15.2-1.9,20.9-5.9c5.2-3.7,12.6-9.9,14.4-16L305.7,358.4z"/>
		<path class="st1" d="M284.6,378.4c0,0,3.8-0.1,6.7-1.7"/>
		<path class="st1" d="M286.8,384c0,0,3.5,0.7,6.7-1.4"/>
		<path class="st8" d="M254.3,370.3c0-2.4,2.3-4.2,5.6-3.9c4,0.3,7.4,3.7,4.9,7.9c0,0,3.3,1.9,1.6,5.6c0,0,3.1,1.7,2.3,5
			c-0.8,3.3-6.9,5.7-10,2.9c-2.7-2.5-0.9-5.7-0.9-5.7s-4.3-3-1.3-7.4C256.5,374.6,254.3,373.3,254.3,370.3z"/>
		<path class="st1" d="M256.5,374.6c0,0,3.6,1.2,8.3-0.3"/>
		<path class="st1" d="M257.8,382c0,0,4.9,1.5,8.6-2.2"/>
		<line class="st1" x1="319.1" y1="373.4" x2="329" y2="394.1"/>
		<path class="st1" d="M318.2,395.8c0,0,5.3,7.2-1.3,8.8"/>
		<g>
			<path class="st8" d="M298.7,404.6c0,0,1.4,7.2,0,11.3c-1.4,4.1-6.9,8.2-6.9,8.2s-9.9,5.9,5.1,7c15,1.1,26.3-4.2,26.3-4.2
				S317,414,317,404.6L298.7,404.6z"/>
			<path class="st4" d="M292.9,421c0,0-2.9,4.2-11.6,6.5s-10,5-6.4,8c3.6,3,23.7,2.2,29.8,0.9s14.6,0.6,20.9-4.6
				c0,0-0.3-8.2-3.6-7.5c-3.4,0.7-4.2,4.4-12.9,5c-8.7,0.6-11.6,1.2-11.8-0.3s5.8-4.6,2.4-7.2C296.7,419.5,292.9,421,292.9,421z"/>
		</g>
		<polyline class="st1" points="271.2,328.6 276.6,326.6 279.2,330.5 285.2,327.4 288.8,330.5 292.9,326.6 298.6,331.6 303.9,326.6 
			310.8,330.5 315.3,324.3 322.4,329.6 325,324.3 330.7,329.7 333.4,323.6 339,325.4 		"/>
		<polyline class="st1" points="268,333.7 273.9,332.6 277.9,336.2 284.6,333.1 289.9,337.2 292.9,333.1 298,337.2 303.7,332.6 
			310.8,336.7 315.8,331.6 323.5,335.5 326.2,331.6 332.4,336.2 336.1,329.5 344.2,330.9 		"/>
		<line class="st1" x1="325.1" y1="369.8" x2="325.1" y2="373.4"/>
		<line class="st1" x1="329" y1="370.2" x2="329" y2="373.8"/>
		<line class="st1" x1="332.9" y1="371.6" x2="332.9" y2="375.3"/>
		<line class="st1" x1="336.7" y1="372.7" x2="336.7" y2="376.7"/>
		<line class="st1" x1="341.2" y1="375.8" x2="341.2" y2="380.2"/>
		<line class="st1" x1="345.3" y1="379" x2="345.3" y2="383.4"/>
		<line class="st1" x1="349.3" y1="382.7" x2="349.3" y2="387"/>
		<line class="st1" x1="354.1" y1="385.8" x2="354.1" y2="390.9"/>
		<line class="st1" x1="358.4" y1="389.7" x2="358.4" y2="392.8"/>
		<line class="st1" x1="267.4" y1="399.4" x2="268.8" y2="402.2"/>
		<line class="st1" x1="271" y1="398.9" x2="272.4" y2="401.6"/>
		<line class="st1" x1="274.6" y1="398.3" x2="275.9" y2="401"/>
		<line class="st1" x1="278.2" y1="397.7" x2="279.5" y2="400.4"/>
		<line class="st1" x1="281.7" y1="397.1" x2="283.1" y2="399.8"/>
		<line class="st1" x1="285.3" y1="396.5" x2="286.6" y2="399.2"/>
		<line class="st1" x1="296.1" y1="399" x2="297" y2="401.9"/>
		<line class="st1" x1="299.7" y1="399" x2="300.6" y2="401.9"/>
		<line class="st1" x1="303.4" y1="399" x2="304.3" y2="401.9"/>
		<line class="st1" x1="307" y1="399" x2="307.9" y2="401.9"/>
		<line class="st1" x1="310.6" y1="399" x2="311.5" y2="401.9"/>
		<line class="st1" x1="314.2" y1="399" x2="315.1" y2="401.9"/>
		<g>
			<circle class="st8" cx="292.9" cy="302.1" r="17.8"/>
			<ellipse transform="matrix(0.9892 -0.1469 0.1469 0.9892 -42.3661 44.759)" cx="281.9" cy="309.2" rx="0.6" ry="1.6"/>
			<ellipse transform="matrix(0.9892 -0.1469 0.1469 0.9892 -42.2259 45.3828)" cx="286.2" cy="308.6" rx="0.6" ry="1.6"/>
		</g>
		<g>
			<path class="st0" d="M326.2,284.9c0-3.7-2.8-6.9-6.6-8c0.7-1.3,1-2.8,1-4.4c0-5.9-5.1-10.7-11.5-10.7c-3.6,0-6.8,1.6-8.9,4
				c-1.6-2.8-4.7-4.7-8.4-4.7c-5.1,0-9.3,3.8-9.4,8.6c-3.3-0.2-6.4,1.3-8,4.1c-1.3,2.2-1.4,4.8-0.4,7.2c-3.3,0.9-5.8,3.9-5.8,7.5
				c0,2.3,1,4.3,2.6,5.8c-2.7,0.9-4.7,3.4-4.7,6.4c0,3.7,3,6.7,6.7,6.7c3.3,0,6-2.4,6.6-5.5c0.4,2.3,2.5,4.1,4.9,4.1
				c2.4,0,4.5-1.8,4.9-4.1c0.2-0.1,0.5-0.1,0.7-0.2c1,1.9,3.1,3.2,5.4,3.2c2.1,0,4-1.1,5.1-2.8c1.1,1.7,3,2.8,5.1,2.8
				c2.8,0,5.1-1.8,5.9-4.4c0.6,0.2,1.3,0.3,2,0.3c3.4,0,6.2-2.8,6.2-6.2c0-0.6-0.1-1.2-0.2-1.7C323.3,291.9,326.2,288.7,326.2,284.9
				z"/>
			<path class="st6" d="M279.5,280.4c0,0,0.3-4.8,7.5-7s17.3,3,18.7,15.5l-4,1c0,0-1.5-10.8-10.3-11.5c0,0-1.9-2.9-4.9-2.1
				c-3,0.8-3.3,4.6-3.3,4.6c-5.6-1.2-9.3,0-9.3,0"/>
			<path class="st1" d="M307.4,278.3c0,0,0.2-2,2.2-2.3c2-0.3,3.1,1.3,2.7,2.3c0,0,2.3-0.1,3.4,1.6c1.1,1.8,0,4.3-1.5,4.7"/>
			<g>
				<circle class="st6" cx="305.7" cy="297.3" r="8.3"/>
				<circle class="st4" cx="305.7" cy="297.3" r="4"/>
			</g>
		</g>
		<path class="st0" d="M309.1,349.2c0,0-2,5.3-4.2,6.4c-2.2,1.1,5.4,8.1,13.3,11.2c7.9,3.1,10.6-4.5,12.6-17.1"/>
	</g>
	<g>
		<path class="st1" d="M556.1,385.6c0,0,13.2-18.1,11.6-42.8"/>
		<path class="st1" d="M587.5,372.3c0,0-12.7,9.1-25.5,2.5"/>
		<path class="st1" d="M594.5,380.5c0,0-10.4,1.5-13.1-5.2"/>
		<path class="st1" d="M577,363.1c0,0-3.5,8.1-1.2,13.8"/>
		<path class="st1" d="M559.9,348.1c0,0,0.4,7.7,7.1,9.1"/>
		<path class="st1" d="M575,345.8c0,0-2.4,4.3-7.2,4.6"/>
		<path class="st1" d="M553.1,350.4c0,0,3.7,4,8.5,2.7"/>
		<circle class="st6" cx="567.5" cy="340.3" r="2.5"/>
		<circle class="st6" cx="559.9" cy="345.6" r="2.5"/>
		<circle class="st6" cx="551.4" cy="348.3" r="2.5"/>
		<circle class="st6" cx="576" cy="343.8" r="2.5"/>
		<circle class="st6" cx="578.1" cy="360.6" r="2.5"/>
		<circle class="st6" cx="589.5" cy="370.6" r="2.5"/>
		<circle class="st6" cx="597" cy="380.5" r="2.5"/>
		<path class="st0" d="M571.4,377.2c0,0-4.5,6.9,3.3,14.7C574.7,391.9,577.9,381.1,571.4,377.2z"/>
		<path class="st0" d="M556.6,359.8c0,0,1.1,7.3,8.2,7.2C564.8,367,563.8,360,556.6,359.8z"/>
		<path class="st0" d="M575.2,370c0,0,2.1-4.2,8-3.4C583.1,366.6,581.4,371.9,575.2,370z"/>
	</g>
	<g>
		<path class="st1" d="M543.1,88.8c0,0,5.5,27-6.7,44"/>
		<path class="st1" d="M529.6,95.9c0,0,2.2,13.4,14.6,13.1"/>
		<path class="st1" d="M525.5,105c0,0,4,2.1,8.5,0"/>
		<path class="st1" d="M536.8,91.1c0,0,2.5,4.9,7.1,3.9"/>
		<path class="st1" d="M555.1,93.7c0,0-3.1,5.9-10.7,6"/>
		<path class="st1" d="M541.6,122.3c0,0,12.4,0.8,22.8-13.3"/>
		<path class="st1" d="M568.9,118.9c0,0-6.5,0.8-9.6-4.3"/>
		<circle class="st6" cx="542.5" cy="86.4" r="2.4"/>
		<circle class="st6" cx="529" cy="93.7" r="2.4"/>
		<circle class="st6" cx="523.5" cy="103.9" r="2.4"/>
		<circle class="st6" cx="556.3" cy="91.7" r="2.4"/>
		<circle class="st6" cx="535.7" cy="88.9" r="2.4"/>
		<circle class="st6" cx="571.3" cy="118.6" r="2.4"/>
		<circle class="st6" cx="566" cy="107.4" r="2.4"/>
		<path class="st0" d="M553,106.3c0,0-5.3,8.3,0,12.9C553,119.2,557.7,114.4,553,106.3z"/>
		<path class="st0" d="M533.3,118.6c0,0-0.2,8.8,5.6,10C538.9,128.6,540.6,122.2,533.3,118.6z"/>
		<path class="st0" d="M536.3,95.9c0,0-4.5,1.3-4.6,5.9C531.8,101.9,536.5,101.6,536.3,95.9z"/>
	</g>
	<g>
		<path class="st0" d="M431.8,442.5c-3.5-9.1,10.9-16.5,16-9.8c0,0,5.7-7.9,14.5-5.5s12.9,11.5,12.9,11.5s6.8-0.5,9,3.8
			c1,2-0.1,4.3-2.3,4.1c-4.5-0.3-11.8-0.5-18.2,0.3c-9.9,1.4-15.7-3.1-15.7-3.1S433.9,447.8,431.8,442.5z"/>
		<path class="st1" d="M437.7,472.9c0,0,4.4,13.2,17.3,15"/>
		<path class="st1" d="M467.8,446.6c0,0-0.9,12.8-11.6,15.9"/>
		<line class="st1" x1="456.9" y1="447.1" x2="453.8" y2="516.4"/>
		<path class="st0" d="M415.8,476.6c-6.3-2-1-22.7,14-17.5c0,0,4.3-7.9,13.8-10.3c9.5-2.4,14.4,4.5,14.4,4.5s10-3.1,14.7,1.4
			s-1.7,7.3-9.5,10.2C455.5,467.6,422.4,478.6,415.8,476.6z"/>
		<path class="st0" d="M429.2,488.4c0-4,4.8-6.9,8.5-5.3c0,0,2.6-6.8,8.8-7.3c6.2-0.5,9.8,5.3,9.8,5.3s6.5-7.7,17.8-7.4
			c11.3,0.3,20.9,11,20.9,11s8.5-3.7,16.5,4.8c6.9,7.2,5.2,17.6,5.2,17.6c-1.1,0.6-26.8-6.1-42.7-7.1
			C462.4,499.4,429.2,496.6,429.2,488.4z"/>
	</g>
	<g>
		<path class="st0" d="M482.1,478.5c-1.3-6.1,3.6-13.8,13.1-13.9c0,0-0.8-9.1,5.6-13.4c6.4-4.4,9.8,3.3,9.8,3.3s3-7.2,12.6-8.4
			c9.7-1.2,13.6,6.3,13.6,6.3s4.1-2.4,8.8-2c7,0.7,9.3,9.8,3.5,13.8c-5.5,3.8-14.1,8.7-25.9,12.6c-12.4,4.1-23.2,7.1-30.2,9
			C488.2,487.1,483.1,483.3,482.1,478.5z"/>
		<path class="st0" d="M511.1,435.5c-0.4-1.8,0.4-5.3,3.9-6.5c4.3-1.4,8.5,1.3,8.5,1.3s3.3-7.1,11.5-9.1c8.2-1.9,13.4,4.7,13.4,4.7
			s8.5-8.4,18.2-6c11.2,2.7,13.6,14.6,13.9,21.4c0.1,2.4-2,4.2-4.4,3.6c-9-2.2-29.8-7.1-39.6-8C523.7,435.8,511.9,439.6,511.1,435.5
			z"/>
		<path class="st0" d="M506.5,500.3c-2.8-7,8-16.7,14.8-14.3c0,0,11.3-8.7,24-9.1s17,7.2,17,7.2s5.6-4.6,11.1-4c5.9,0.6,6.2,7,6.2,7
			s8.6-3.4,14.5,2.1c6,5.5,4.3,11.9,4.3,11.9L506.5,500.3z"/>
		<line class="st1" x1="543.7" y1="438" x2="527.3" y2="536.8"/>
		<path class="st1" d="M517.9,478.6c0,0,3.3,14.9,15.9,19.6"/>
		<path class="st1" d="M563.2,441.9c0,0-6.3,14-22.2,12.6"/>
		<path class="st1" d="M557.7,500.7c0,0-9.1,15.6-26.7,13.1"/>
	</g>
	<g>
		<path class="st6" d="M131.9,243.8c0,0,19.2,5.4,23.9-13.6C155.8,230.1,142.4,220.7,131.9,243.8z"/>
		<path class="st6" d="M140.8,221.6c0,2.6-2.5,16.1-21.6,12.3C119.2,233.9,127.6,215.6,140.8,221.6z"/>
		<path class="st6" d="M139.6,232.9c0,0,15.4-8.9,6.1-23.7C145.7,209.2,131.4,211.9,139.6,232.9z"/>
		<path class="st6" d="M149.8,180.4c0,0-15.2,13.1-4.7,25.8C145.1,206.2,157.6,199.3,149.8,180.4z"/>
		<path class="st6" d="M168.4,212.1c-2.1-1.3-11.3-10.4,1.6-23.3C170.1,188.8,180,205,168.4,212.1z"/>
		<path class="st6" d="M167.8,211.2c-2.2,1.5-15,6.5-22-11.5C145.8,199.7,165.7,196.9,167.8,211.2z"/>
		<path class="st6" d="M200.8,228.7c0,0-11.1,9.1,1.8,23.7C202.6,252.4,214.4,236.5,200.8,228.7z"/>
		<path class="st6" d="M222.6,247.7c0,0-16,0.5-16.5-17.9C206.2,229.7,223,226.1,222.6,247.7z"/>
		<path class="st6" d="M202.5,222.3c0,0,4.1,15.3,23.1,7.3C225.6,229.5,220.2,213.4,202.5,222.3z"/>
		<path class="st6" d="M208.3,211.4c0.2-2.5,3.6-14.9,21.1-10C229.5,201.5,220.2,218,208.3,211.4z"/>
		<path class="st6" d="M206.6,213.9c1.8-1.7,12.7-8.6,22.3,6.9C228.9,220.8,210.9,226.8,206.6,213.9z"/>
		<path class="st6" d="M179.1,217.5c0,0-14.6,6.9-7.1,25.5C172.1,243,190.4,233.3,179.1,217.5z"/>
		<path class="st6" d="M180,197.5c0,0,8,16,26.6,9.3C206.6,206.8,202.3,189.5,180,197.5z"/>
		<path class="st6" d="M213.7,189.4c0,0-19.2,5.2-13.5,24C200.2,213.3,216.5,214.5,213.7,189.4z"/>
		<path class="st6" d="M115.5,196.5c0,0,5.9,15.7,21.2,9.3C136.7,205.8,136.4,192.1,115.5,196.5z"/>
		<path class="st6" d="M111,212c0,0,17.8,9.3,25.7-5.1C136.7,206.9,125.7,197.8,111,212z"/>
		<circle class="st4" cx="155.1" cy="239.7" r="8.3"/>
		<circle class="st4" cx="205" cy="215" r="8.3"/>
		<circle class="st4" cx="202.2" cy="227.5" r="8.3"/>
		<circle class="st4" cx="185.6" cy="219.2" r="8.3"/>
		<path class="st0" d="M144.1,208.9c2,11.6,9.7,19.4,24.2,41.1c28.6,42.8,9,70.3,27,68.3c11.9-1.3-6.5-36.8-7.3-54.6
			c-0.6-13.5,6-21,9.5-36.6c2.9-12.7,3.6-25.6-2.2-24.6c-5.3,1-3.4,37.8-16.7,39.8c-15.5,2.3-22.5-34-28.8-39.1
			C146.7,200.5,143.1,203.3,144.1,208.9z"/>
		<circle class="st4" cx="141" cy="203.7" r="8.3"/>
		<circle class="st4" cx="169.9" cy="216" r="8.3"/>
		<circle class="st4" cx="132.7" cy="216" r="8.3"/>
	</g>
	<g>
		<path class="st1" d="M239.6,254.6c0,0,3.1,26.3-16.9,44.4"/>
		<path class="st1" d="M231.2,252.4c0,0,0.8,11.2,8,14.2"/>
		<path class="st1" d="M253.6,268.8c0,0-4.2,7.6-16.6,7.3"/>
		<path class="st1" d="M225,253.1c0,0,2.3,4.4,7.1,4"/>
		<path class="st1" d="M226.6,262.1c0,0,3.6,2.8,8,0.7"/>
		<path class="st1" d="M243.5,275.5c0,0,2.4,7.5,13.2,6"/>
		<path class="st1" d="M248.8,265.5c0,0-2,4.8,0,7.8"/>
		<path class="st1" d="M225.6,280.9c0,0,0.4,5.9,6,7.5"/>
		<path class="st0" d="M238.7,244.3c0,0-4.3,5.4,0.8,10.3C239.5,254.6,244,250.9,238.7,244.3z"/>
		<path class="st0" d="M254.6,274.4c0,0-5.9,1.5-4.6,6.9C250,281.2,254.8,281,254.6,274.4z"/>
		<path class="st0" d="M221.4,272.8c0,0-1.7,6.4,4.2,8C225.6,280.8,227.9,276,221.4,272.8z"/>
		<circle class="st6" cx="224" cy="251.2" r="2.2"/>
		<circle class="st6" cx="225" cy="260.4" r="2.2"/>
		<circle class="st6" cx="231.2" cy="250.3" r="2.2"/>
		<circle class="st6" cx="249.4" cy="263.3" r="2.2"/>
		<circle class="st6" cx="258.5" cy="280.8" r="2.2"/>
		<circle class="st6" cx="254.9" cy="266.6" r="2.2"/>
	</g>
	<g>
		<path class="st1" d="M292.4,156.6c0,0-10.4,25.6-1.5,44.5"/>
		<path class="st1" d="M304.4,166.2c0,0-4.6,12.7-16.7,10.2"/>
		<path class="st1" d="M306.7,175.8c0,0-4.3,1.4-8.4-1.6"/>
		<path class="st1" d="M298.1,160.1c0,0-3.4,4.3-7.7,2.5"/>
		<path class="st1" d="M279.8,159.2c0,0,2,6.4,9.4,7.9"/>
		<path class="st1" d="M287.8,189.9c0,0-12.3-1.5-20-17.2"/>
		<path class="st1" d="M261.5,181.5c0,0,6.3,1.9,10.2-2.5"/>
		<circle class="st6" cx="293.4" cy="154.4" r="2.4"/>
		<circle class="st6" cx="305.4" cy="164" r="2.4"/>
		<circle class="st6" cx="308.9" cy="175" r="2.4"/>
		<circle class="st6" cx="278.9" cy="157" r="2.4"/>
		<circle class="st6" cx="299.6" cy="158.1" r="2.4"/>
		<circle class="st6" cx="259.2" cy="180.8" r="2.4"/>
		<circle class="st6" cx="266.5" cy="170.7" r="2.4"/>
		<path class="st0" d="M279.5,172c0,0,3.7,9.1-2.4,12.7C277.1,184.7,273.4,179.2,279.5,172z"/>
		<path class="st0" d="M296.6,187.8c0,0-1.4,8.7-7.4,8.8C289.2,196.5,288.8,190,296.6,187.8z"/>
		<path class="st0" d="M297.7,164.9c0,0,4.1,2.1,3.4,6.7C301.1,171.6,296.5,170.5,297.7,164.9z"/>
	</g>
	<g>
		<g>
			<g>
				<g>
					<path class="st0" d="M230.8,500l-8.1,4.3l-7.8-4.8l-3.4,4.4c0,0,7,5.9,6.6,19.3l4,0.1l4,0.1c0.4-13.4,7.7-18.9,7.7-18.9
						L230.8,500z"/>
					<line class="st1" x1="222.4" y1="511.1" x2="222.5" y2="505.2"/>
					<path class="st6" d="M242.3,488.9c0.2-0.8,0.4-1.5,0.4-2.4c0.2-5.2-3.9-9.5-9.1-9.6c-0.5,0-0.9,0-1.4,0.1
						c-0.9-4.1-4.5-7.3-8.9-7.4c-4.4-0.1-8.2,2.8-9.3,6.9c-0.3-0.1-0.7-0.1-1.1-0.1c-5.2-0.2-9.5,3.9-9.6,9.1c0,0.8,0.1,1.5,0.2,2.3
						c-2.9,1.2-5.2,3.7-5.8,7.1c-0.9,5.1,2.5,9.9,7.6,10.8c3.7,0.7,7.2-0.9,9.2-3.8c1.6,2.6,4.4,4.3,7.7,4.4
						c3.2,0.1,6.1-1.5,7.9-3.9c1.6,2.6,4.4,4.3,7.6,4.4c5.2,0.2,9.5-3.9,9.6-9.1C247.6,493.8,245.5,490.5,242.3,488.9z"/>
				</g>
				<path class="st4" d="M196.2,514.1c1.4-6.3,8.3-6.9,11.3-4.2c3.6,3.3,3.7,8.5,12.6,9.6c5.7,0.7,3.7,7.8-6.9,7.7
					C200,527,195,519,196.2,514.1z"/>
				<path class="st4" d="M248.5,515.1c-1.2-6.3-8-7.2-11.1-4.6c-3.7,3.1-4,8.4-13,9c-5.7,0.4-4,7.7,6.6,8
					C244.2,527.8,249.4,520.1,248.5,515.1z"/>
			</g>
			<g>
				<g>
					<g>
						<path class="st0" d="M144.2,498.2l-8.1,4.3l-7.8-4.8l-3.4,4.4c0,0,7,5.9,6.6,19.3l4,0.1l4,0.1c0.4-13.4,7.7-18.9,7.7-18.9
							L144.2,498.2z"/>
						<line class="st1" x1="135.8" y1="509.4" x2="136" y2="503.4"/>
						<path class="st6" d="M155.7,487.2c0.2-0.8,0.4-1.5,0.4-2.4c0.2-5.2-3.9-9.5-9.1-9.6c-0.5,0-0.9,0-1.4,0.1
							c-0.9-4.1-4.5-7.3-8.9-7.4c-4.4-0.1-8.2,2.8-9.3,6.9c-0.3-0.1-0.7-0.1-1.1-0.1c-5.2-0.2-9.5,3.9-9.6,9.1
							c0,0.8,0.1,1.5,0.2,2.3c-2.9,1.2-5.2,3.7-5.8,7.1c-0.9,5.1,2.5,9.9,7.6,10.8c3.7,0.7,7.2-0.9,9.2-3.8c1.6,2.6,4.4,4.3,7.7,4.4
							c3.2,0.1,6.1-1.5,7.9-3.9c1.6,2.6,4.4,4.3,7.6,4.4c5.2,0.2,9.5-3.9,9.6-9.1C161,492,158.9,488.7,155.7,487.2z"/>
					</g>
					<path class="st4" d="M109.6,512.3c1.4-6.3,8.3-6.9,11.3-4.2c3.6,3.3,3.7,8.5,12.6,9.6c5.7,0.7,3.7,7.8-6.9,7.7
						C113.4,525.2,108.5,517.3,109.6,512.3z"/>
					<path class="st4" d="M161.9,513.4c-1.2-6.3-8-7.2-11.1-4.6c-3.7,3.1-4,8.4-13,9c-5.7,0.4-4,7.7,6.6,8
						C157.6,526.1,162.8,518.3,161.9,513.4z"/>
				</g>
				<g>
					<g>
						<path class="st0" d="M189.3,511.5l-8.1,4.3l-7.8-4.8l-3.4,4.4c0,0,7,5.9,6.6,19.3l4,0.1l4,0.1c0.4-13.4,7.7-18.9,7.7-18.9
							L189.3,511.5z"/>
						<line class="st1" x1="180.9" y1="522.6" x2="181" y2="516.7"/>
						<path class="st6" d="M200.8,500.4c0.2-0.8,0.4-1.5,0.4-2.4c0.2-5.2-3.9-9.5-9.1-9.6c-0.5,0-0.9,0-1.4,0.1
							c-0.9-4.1-4.5-7.3-8.9-7.4c-4.4-0.1-8.2,2.8-9.3,6.9c-0.3-0.1-0.7-0.1-1.1-0.1c-5.2-0.2-9.5,3.9-9.6,9.1
							c0,0.8,0.1,1.5,0.2,2.3c-2.9,1.2-5.2,3.7-5.8,7.1c-0.9,5.1,2.5,9.9,7.6,10.8c3.7,0.7,7.2-0.9,9.2-3.8c1.6,2.6,4.4,4.3,7.7,4.4
							c3.2,0.1,6.1-1.5,7.9-3.9c1.6,2.6,4.4,4.3,7.6,4.4c5.2,0.2,9.5-3.9,9.6-9.1C206.1,505.3,204,502,200.8,500.4z"/>
					</g>
					<path class="st4" d="M154.7,525.6c1.4-6.3,8.3-6.9,11.3-4.2c3.6,3.3,3.7,8.5,12.6,9.6c5.7,0.7,3.7,7.8-6.9,7.7
						C158.5,538.5,153.6,530.5,154.7,525.6z"/>
					<path class="st4" d="M207,526.6c-1.2-6.3-8-7.2-11.1-4.6c-3.7,3.1-4,8.4-13,9c-5.7,0.4-4,7.7,6.6,8
						C202.7,539.4,207.9,531.6,207,526.6z"/>
				</g>
			</g>
		</g>
		<g>
			<path class="st0" d="M412.8,575.2c0,0,1.2,8.2,11.3,8.5c10.1,0.3,6.4,2.6,12.3,3.9s5.6-3.1,10.4-2.9c4.9,0.3,8-0.9,8.7-6.6
				c0.7-5.6,1.7-5,3.1-7c1.4-2-1.1-3.7,0-5.9c1.1-2.2,4.8,0.3,7.9-5.2c3.2-5.5-4-23.6-26.3-21C417.9,541.7,406.2,557.1,412.8,575.2z
				"/>
			<g>
				<path class="st0" d="M370.2,543.3c0,0-22.6-7.4-32.4-5.6c-5.6,1-5.4,3.7-11.1,3.5c-5.7-0.2-11.3-0.2-12.6,5.9
					c-1,4.3-2.4,5.8,0,9.5c2.4,3.7,10.4,3.5,10.6,7c0.2,2.9-2.9,4.4-3.3,7.1c-0.4,2.8,2.2,3.6,1.9,6.8s-4.7,6-2.1,11.4
					c2.6,5.4,7.2,7.7,10.3,5.4c3.1-2.2,6-5.9,11.5-5.3s8.7-2.6,8.9-7c0.2-4.5,6.6-5.2,7.9-0.7c1.2,4.5-0.7,9.5,5.2,9.8
					c5.9,0.3,6.3-3.5,10.7-1.6c4.4,1.8,5.9-1.4,7.8-3.1c3.1-2.8,7.3-0.7,8.7-8.8S393.7,548.8,370.2,543.3z"/>
				<path class="st0" d="M332.7,575.2c0,0,8.3-23.7,55.8-19.7"/>
			</g>
			<g>
				<path class="st0" d="M509.9,556.8c0,0,2.6,8.7,9.5,10.4c6.9,1.7,10.8-3.3,18.1,0c7.3,3.3,9.2,4,15.6,1.3
					c6.4-2.7,7.1,3.8,13.7,1.6c6.5-2.2,4.2-13.2-1-17.2s-2.3-5.9,1.2-6.3c3.5-0.4,4.8-1,5.2-4.6c0.4-3.6,3.7-1.3,6.7-5
					c3.1-3.7-0.2-4.1,1.9-7.9c2.1-3.7,2.3-7.3-2.5-9.2s-1-6.1-6.7-7.8c-5.8-1.7-10,4.8-14.4,2.3c-4.4-2.5-0.4-6-4.2-8.1
					s-9.2,1.7-12.3,0c-3.1-1.7-1.9-3.7-6-3.9c-4-0.2-6.9,5.4-6.5,11.4c0.4,6,0,29.3-8.1,31.1C511.9,547,508.3,553.1,509.9,556.8z"/>
				<path class="st0" d="M562.8,533.6c0,0-28,0.4-46,18.4"/>
			</g>
			<g>
				<path class="st4" d="M434.6,504.8c3.7-1.9,10.3-4,16.6-0.2c8.5,5.2,12.7,0.6,20.2,7.5c10.7,9.7,8,37.3-7.8,38.5
					c-15,1.1-12.5,4.7-21.8,4.8c-9.2,0.1-8-4.1-19.9-3.8c-13.6,0.4-22.8-26.4-8.6-39.8C421.7,503.9,429.4,507.4,434.6,504.8z"/>
				<path class="st6" d="M447.1,507.9c0,0-2.9,4.5-8,0.8c0,0,2.7-2.3,1.5-7.4c-0.9-3.8-3.1-5.2-5.7-4.9c-2.7,0.4-3.4-2.1-1.2-3
					c3.1-1.2,7.3,0.1,9.2,4.3C444.6,501.3,442.7,505.5,447.1,507.9z"/>
				<path class="st4" d="M428.2,518.9c-4.3,5.5-4.8,17.3-0.2,23.7"/>
				<path class="st4" d="M455.8,518.9c2.3,4.5,4,16.1-0.6,23.1"/>
				<path class="st4" d="M432.9,531.6c2-0.3,1.8,5.1,0,5.1C431,536.8,431.3,531.8,432.9,531.6z"/>
				<path class="st3" d="M447.5,542.3c1.4,0.1,1,3.7-0.5,3.4C445.5,545.3,446.1,542.2,447.5,542.3z"/>
				<path class="st4" d="M469,525.9c1.1,0.1,1.3,2.2,1.3,4.8c0,2.9-0.9,5.6-2,5.3c-1.2-0.3-1.3-2.4-1.1-5.2
					C467.2,528,467.6,525.7,469,525.9z"/>
				<path class="st3" d="M437.2,513.3c1.5,1,0.6,3.4-1.3,7.4c-1.7,3.6-0.6,7.8-2.3,8c-1.7,0.1-2.2-5.5-1.5-9.3
					C432.8,515.6,435.7,512.3,437.2,513.3z"/>
				<path class="st4" d="M417.2,529.3c1.1-0.7,0.6-3.9-0.8-5.1C416.4,524.2,414.2,528,417.2,529.3z"/>
				<circle class="st3" cx="445.9" cy="514.6" r="1"/>
				<path class="st3" d="M447.3,521.1c2.6-0.4,6.9,16.6,1.7,18.1c-0.8,0.2-1.9-0.6-1.2-3.4C449.4,528.7,444.6,521.5,447.3,521.1z"/>
				<path class="st3" d="M454.1,511.1c0.1-2.1,6.6-2.5,11.3,1.8c3.9,3.6,4.7,9.1,2.6,9.1c-1.7,0-2.3-6-6.7-8
					C457,512,453.9,513.2,454.1,511.1z"/>
				<path class="st3" d="M430,510.5c0.5,1.6-2.8,1-6.1,4c-2.8,2.6-4.2,5.6-5.2,4.8c-1.2-1.1,0.2-4.1,2.9-6.6
					C424,510.5,429.4,508.5,430,510.5z"/>
			</g>
			<g>
				<path class="st4" d="M385.1,512.2c5.1-1.8,14-3.4,21.5,2.7c10,8.2,16.3,3,24.8,13.2c12.1,14.4,3.9,49.6-16.7,48.4
					c-19.6-1.1-17,3.9-29,2.4c-12-1.5-9.6-6.7-25.1-8.4c-17.6-1.9-24.8-38-4.2-52.9C368.6,508.8,377.9,514.8,385.1,512.2z"/>
				<path class="st6" d="M391.1,516.8c0,0,2.5,6.5,10,3.2c0,0-2.8-3.6,0.1-9.9c2.1-4.6,5.3-5.9,8.6-4.7c3.4,1.2,4.9-1.8,2.3-3.5
					c-3.6-2.4-9.3-1.9-12.9,3C396,509,397.3,514.9,391.1,516.8z"/>
				<path class="st4" d="M374.3,529.4c-6.5,6.3-9.2,21.6-4.4,30.5"/>
				<path class="st4" d="M410.1,534.2c2.2,6.2,2.4,21.5-4.8,29.7"/>
				<path class="st3" d="M378.2,546.6c2.7,0,1.4,6.9-0.9,6.6C374.9,552.9,376.2,546.6,378.2,546.6z"/>
				<path class="st3" d="M395.2,563c1.8,0.4,0.6,5-1.3,4.3S393.5,562.6,395.2,563z"/>
				<path class="st3" d="M425.9,545.5c1.4,0.3,1.2,3.1,0.8,6.5c-0.5,3.7-2.2,7.1-3.5,6.5c-1.5-0.6-1.2-3.4-0.6-7
					C423.2,547.9,424.1,545.1,425.9,545.5z"/>
				<path class="st3" d="M387,523.7c1.8,1.6,0.2,4.5-3,9.4c-2.8,4.3-2.1,10-4.3,9.9c-2.2-0.1-1.9-7.5-0.4-12.3
					S385.2,522.1,387,523.7z"/>
				<path class="st2" d="M358.4,541c1.6-0.8,1.5-5-0.2-6.7C358.3,534.2,354.7,538.7,358.4,541z"/>
				<circle class="st3" cx="398" cy="526.9" r="1.2"/>
				<path class="st3" d="M398.6,535.5c3.4,0,6,22.7-0.9,23.7c-1,0.1-2.4-1.1-1-4.7C400,545.7,395.1,535.5,398.6,535.5z"/>
				<path class="st3" d="M409.2,523.8c0.6-2.7,8.9-2.1,14.3,4.3c4.4,5.3,4.5,12.6,1.7,12.2c-2.2-0.3-2-8.2-7.2-11.5
					S408.7,526.5,409.2,523.8z"/>
				<path class="st3" d="M378.2,518.8c0.3,2.1-3.8,0.8-8.6,4.1c-4.1,2.9-6.4,6.5-7.6,5.2c-1.4-1.6,1-5.2,4.9-8
					C370.4,517.7,377.8,516.1,378.2,518.8z"/>
			</g>
			<g>
				<path class="st4" d="M481.1,508.7c3.7-2.9,10.6-6.7,18.5-3.8c10.6,3.9,14.3-2,24.1,4c14,8.5,17,39.9-0.3,44.7
					c-16.5,4.5-13,8-23.3,10c-10.3,2.1-9.8-2.9-23.1,0.1c-15.1,3.4-31.1-24.5-18.2-42.5C466.6,510.5,475.9,512.8,481.1,508.7z"/>
				<path class="st6" d="M487.1,511.6c0,0,4.4,4.2,9.1-1.2c0,0-3.5-1.8-3.6-7.8c0-4.4,2-6.6,5-6.9c3.1-0.3,3.2-3.2,0.5-3.6
					c-3.7-0.6-8,1.9-9.1,7.2C488.1,503.6,491.3,507.8,487.1,511.6z"/>
				<path class="st4" d="M477,525.9c-3.6,7-1.6,20.4,4.9,26.4"/>
				<path class="st4" d="M507.9,519.9c3.5,4.5,8,17.1,4.3,25.9"/>
				<path class="st3" d="M485,539c2.2-0.7,3.1,5.3,1.1,5.7C484.1,545.2,483.3,539.6,485,539z"/>
				<path class="st3" d="M503.6,547.8c1.6-0.2,1.9,3.9,0.1,3.9S502.1,548,503.6,547.8z"/>
				<path class="st3" d="M524.1,524.8c1.3-0.1,1.9,2.2,2.5,5.1c0.6,3.2,0.2,6.4-1.1,6.4c-1.4-0.1-1.9-2.5-2.4-5.6
					C522.6,527.6,522.5,524.9,524.1,524.8z"/>
				<path class="st3" d="M485.9,517.6c1.9,0.8,1.4,3.7,0.2,8.6c-1.1,4.3,1,8.9-0.8,9.4c-1.8,0.5-3.7-5.6-3.7-10.1
					S484,516.8,485.9,517.6z"/>
				<path class="st3" d="M467.1,539.9c1.1-1.1-0.1-4.5-2-5.5C465.1,534.3,463.4,539,467.1,539.9z"/>
				<circle class="st3" cx="495.8" cy="517.2" r="1.1"/>
				<path class="st3" d="M498.8,524.1c2.8-1,11.3,17.1,5.8,19.8c-0.8,0.4-2.3-0.2-2.1-3.6C502.8,532.2,495.9,525.1,498.8,524.1z"/>
				<path class="st3" d="M504.3,511.5c-0.3-2.4,6.8-4.3,13.1-0.4c5.1,3.1,7.2,9.2,4.8,9.6c-1.9,0.3-3.9-6.2-9.2-7.5
					C507.8,512,504.6,513.9,504.3,511.5z"/>
				<path class="st3" d="M477.2,516c0.8,1.7-2.9,1.7-5.9,5.8c-2.6,3.5-3.5,7.2-4.8,6.4c-1.6-0.9-0.6-4.6,1.8-8
					C470.5,517.4,476.2,513.9,477.2,516z"/>
			</g>
		</g>
		<g>
			<g>
				<path class="st6" d="M176.7,533.9c0.2-4.5,5.4-7.1,12.2-4.7c7.7,2.7,9.3-2.7,17.8,2.6c6.5,4.1,6.3,13.6,6.3,13.6
					s-3.3-0.7-8.2,3.4c-4.4,3.7-10.9,3.9-16.6-3C183.9,540.7,176.4,540.6,176.7,533.9z"/>
				<path class="st1" d="M186,535.1c0,0,13.3-2.1,26.9,10.4"/>
			</g>
			<g>
				<g>
					<path class="st4" d="M228.5,565.9c0.2-7.2,6.8-12.7,7.1-12.9l1.3,1.6c-0.1,0.1-6.2,5.2-6.4,11.4L228.5,565.9z"/>
				</g>
				<g>
					<g>
						<path class="st4" d="M263.7,570.3c-4.8,6.7-14.6,7.6-15,7.7l-0.2-2.3c0.1,0,9.1-0.9,13.3-6.7L263.7,570.3z"/>
					</g>
				</g>
				<g>
					<path class="st4" d="M272.9,565.4c-4.4,6.7-1.8,15.9-1.7,16.3l2.1-0.6c0-0.1-2.4-8.6,1.4-14.4L272.9,565.4z"/>
				</g>
				<path class="st4" d="M276.3,583.7c-8-0.9-11.2-6.6-14.3-12.2c-2.3-4.1-4.6-8.3-9-10.7c-5.1-2.8-8.6-3.2-11.6-3.6
					c-3.8-0.5-7.1-0.9-11.4-5.3c-3.5-3.6-8.1-5.5-12.7-5.4c-4,0.1-7.6,1.8-10.2,4.7c-6.6,7.5-15.3,8.1-15.7,8.2l-0.2-2.9
					c0.1,0,7.9-0.6,13.7-7.2c3.1-3.5,7.5-5.5,12.3-5.6c5.4-0.1,10.8,2.2,14.9,6.3c3.6,3.7,6.2,4,9.7,4.5c3.2,0.4,7.1,0.9,12.7,3.9
					c5.1,2.8,7.7,7.4,10.1,11.8c3.4,6.1,6.3,11.3,15.3,10.8l0.2,2.9C278.7,583.8,277.4,583.8,276.3,583.7z"/>
				<g>
					<path class="st4" d="M298.8,576.2c0.4-9.9,9.6-17.3,10-17.6l1.7,2.2c-0.1,0.1-8.6,7-8.9,15.6L298.8,576.2z"/>
				</g>
				<g>
					<g>
						<path class="st4" d="M215.2,563.7c-2.1-8.5,3.9-17.1,4.2-17.5l2,1.4c-0.1,0.1-5.6,8-3.8,15.5L215.2,563.7z"/>
					</g>
				</g>
			</g>
			<g>
				<path class="st6" d="M228.9,589.3c-3.3,0.7-6.2-2.5-5.8-7.8c0.4-6.1-3.8-6.2-1.7-13.3c1.6-5.5,8.5-7.3,8.5-7.3s0.1,2.5,4.1,5.2
					c3.6,2.4,5,7,1.2,12.5C232.4,582.7,233.8,588.2,228.9,589.3z"/>
				<path class="st1" d="M227.9,582.4c0,0-4.2-9.2,2-21.4"/>
			</g>
			<g>
				<path class="st6" d="M205.9,574.7c0,0-10.9,0.3-15.4,8.1c-4.5,7.8-3.4,16.1-5.4,22.6c-1.9,6.5,1.3,10.4,8.6,5.4s6.7-4.8,15.4-9
					c8.7-4.2,6.2-19.1,5.4-21.5S211,576,205.9,574.7z"/>
				<path class="st1" d="M191.5,603.3c0,0,6.2-21.5,19.1-26.9"/>
			</g>
			<g>
				<g>
					<path class="st6" d="M295.7,545.1c2.1,3.4-2.3,6.6-2.6,10.3c-1,14.4-10,19.7-21,13.4c-4.1-2.4-7.3-7.3-4.4-13.4
						c3.5-7.4,9.8-3.7,15.6-9.7C288.7,540,293.9,542,295.7,545.1z"/>
					<path class="st1" d="M272.1,568.8c0,0,3.5-12.9,16.9-19.9"/>
				</g>
			</g>
			<g>
				<path class="st6" d="M239.6,521.8c3.9-1.6,8.1,1.7,8.8,8.3c0.8,7.5,5.9,6.7,4.9,15.9c-0.8,7.1-8.9,10.7-8.9,10.7
					s-0.7-3.1-6.1-5.5c-4.9-2.2-7.6-7.6-4.1-15C236.8,530.6,233.8,524.2,239.6,521.8z"/>
				<path class="st1" d="M242.3,530.1c0,0,7.1,10.3,2.1,26.6"/>
			</g>
			<g>
				<circle class="st2" cx="212.6" cy="575" r="14.3"/>
				<circle class="st3" cx="212.1" cy="579.5" r="3"/>
				<circle class="st4" cx="212.1" cy="579.5" r="0.9"/>
			</g>
			<g>
				<circle class="st2" cx="253.9" cy="554.8" r="14.3"/>
				<circle class="st3" cx="247.5" cy="560.1" r="3"/>
				<circle class="st4" cx="247.5" cy="560.1" r="0.9"/>
			</g>
			<g>
				<circle class="st2" cx="244.3" cy="584.9" r="14.3"/>
				<circle class="st3" cx="239.5" cy="591.6" r="3"/>
				<circle class="st4" cx="239.5" cy="591.6" r="0.9"/>
			</g>
			<g>
				<circle class="st2" cx="290" cy="583.1" r="15.6"/>
				<circle class="st3" cx="293.6" cy="576.9" r="3"/>
				<circle class="st4" cx="293.6" cy="576.9" r="0.9"/>
			</g>
			<g>
				<circle class="st2" cx="318.6" cy="549.4" r="16.8"/>
				<circle class="st3" cx="325.8" cy="543" r="2.7"/>
				<circle class="st4" cx="325.8" cy="543" r="0.8"/>
			</g>
			<g>
				<circle class="st2" cx="223.3" cy="534" r="14.8"/>
				<circle class="st3" cx="222.7" cy="525.4" r="2.4"/>
				<circle class="st4" cx="222.7" cy="525.4" r="0.7"/>
			</g>
			<g>
				<circle class="st2" cx="186.7" cy="571.1" r="16.3"/>
				<circle class="st3" cx="182.6" cy="580.5" r="3.1"/>
				<circle class="st4" cx="182.6" cy="580.5" r="0.9"/>
			</g>
		</g>
	</g>
	<path class="st6" d="M291.6,625.6c0,0-0.3-16.3,5.4-23l28.7,22.7l-21.4-35.2c0,0,7.7-14.4,21.4-22l6.8,14.9v-20.6
		c0,0,3.9-5.5,11.2-5.8l3.4,15.8l2.1-17.8c0,0,7.2-6.8,14.8-5.4l1.2,65l11.1-65.9c0,0,5.7-2.3,11.6,0l-8.8,72.1l23.6-69.1
		c0,0,11.7,1,17.4,8l-7.5,31l15.2-24.8c0,0,10.7,0.7,15.4,12.7l-33,44.5l38.2-32.4c0,0,11.7,19.5,7.7,40.1l-16.3,5.7l15.9,3.6
		c0,0,0.8,3.7-0.4,6L291.6,625.6"/>
	<path class="st6" d="M82,580.3l-13.2-4.4c0,0-7.3-14.1,0-29.1l28,29.1L72,540.5c0,0,4.6-12.5,15.6-16.7l9.9,22.1l-3.8-24.8
		c0,0,9.8-8.9,25.2-7.3l5.9,61.2l9.5-59.8c0,0,5-0.4,6.8,2l-7.4,55.8l18.6-43.4l-9.3,45.4l16-31.4c0,0,8.7,14.2,6.4,32.4l-11.1,4.4
		l10.1,3.5c0,0,3.2,8.2-0.8,15.2L82,580.3z"/>
	<path class="st6" d="M529.6,622.5c0,0-4.5-10.6-3.6-23.3l24.2,7.4l-24.3-14.8c0,0-4-24.8,0-36.6l34.4,36.5L528,539.6
		c0,0,2.7-10.3,7.1-13.3l25.2,39.8l-19.8-54.9c0,0,2.2-8.3,6.2-8.9l13.6,33.6l-10.1-41.4c0,0,3.5-4.6,7-4.6l11.5,38.9l-2.7-46
		c0,0,9.4-5.9,17.4-2.7l-0.1,25.4l8.4-21c0,0,8.9,3.2,11.5,18.2l-8,54.1l11.5-16.2c0,0,3.7,19.2-1.3,35.1l-65.7,46.6H529.6z"/>
	<g>
		<path class="st1" d="M403.2,685.6c0,0,4.8,21.7,24,23.2c10.8,0.8,20.5-8.3,26.3-15.4"/>
		<path class="st1" d="M343.8,723c0,0,11.8,8.5,29.7,4.6c17.9-3.9,37.7-18.7,47.8-38.7"/>
		<g>
			<path class="st0" d="M431.6,642.9l-8.6-1.1c-8.2,5.2-13.2,12.4-12.8,16.8c0,0,6.9-0.6,7.2,11.9c0.3,12.5,0.5,30.4,6.9,29.3
				c9.2-1.6,15.1-36.1,21.9-40.4c4.6-2.9,8.2,3.8,12-7.1c0.7-1.9,0.9-4.1,0.6-6.3l-0.6,0.2L431.6,642.9z"/>
			<ellipse class="st5" cx="430.4" cy="684.4" rx="0.8" ry="1.7"/>
			<ellipse class="st5" cx="424.3" cy="687.8" rx="1.9" ry="5.7"/>
			<ellipse class="st5" cx="422.2" cy="673.2" rx="1.3" ry="2.2"/>
			<ellipse class="st5" cx="452.6" cy="651.8" rx="1.3" ry="2.3"/>
		</g>
		<g>
			<g>
				<path class="st0" d="M277.7,652.3c0.2,20.8-1.6,36.2,4.7,36.9c6.3,0.7,11.2-22.9,23.1-23.6c11.9-0.7,16.8,28.9,17.5,55.3
					c0.7,26.4-0.7,46.7,7.2,47.4c7.9,0.7,16.3-35.9,23.3-53c7-17,20.6-50.1,32-49.6c13.1,0.6,10.9,21.4,17.7,19.9
					c7.1-1.5,5.2-27.4,14.2-32c3.6-1.8,11.2,1.3,14.2-10.7l-165.4-20.4C266.3,622.5,277.4,631.6,277.7,652.3z"/>
			</g>
			<ellipse class="st5" cx="327.4" cy="701.1" rx="1.7" ry="3"/>
			<path class="st5" d="M281.2,634.9c1.8-1.3,4,1.9,4.6,6.6c0.5,3.8,0,9-2,8.5c-2.1-0.5-0.8-6-1.7-9.5
				C281.3,637.9,280.1,635.6,281.2,634.9z"/>
			<path class="st5" d="M284.7,658.5c1.5-0.2,2.4,3.8,2.4,7.7c0,3.8-0.4,11-3.1,10c-2-0.7,0.2-5.5,0-9.3
				C283.7,663.2,282.6,658.8,284.7,658.5z"/>
			
				<ellipse transform="matrix(0.9568 -0.2906 0.2906 0.9568 -179.2011 145.931)" class="st5" cx="401.7" cy="676.2" rx="1.5" ry="3"/>
			<ellipse transform="matrix(0.7684 -0.64 0.64 0.7684 -334.3228 407.3489)" class="st5" cx="395.6" cy="665.5" rx="1.5" ry="3"/>
			<path class="st5" d="M331.1,719.5c2.9-0.3,2.8,8.3,2.3,12.2c-0.6,5.1-2.6,10.3-4.4,6.5C327.3,734.5,327.5,719.9,331.1,719.5z"/>
			<ellipse class="st5" cx="336.2" cy="743" rx="1.6" ry="2.9"/>
			<ellipse class="st5" cx="331.2" cy="753.1" rx="1.8" ry="4.1"/>
		</g>
	</g>
</g>
</svg>
