<?xml version="1.0" encoding="utf-8"?>
<!-- Generator: Adobe Illustrator 22.1.0, SVG Export Plug-In . SVG Version: 6.00 Build 0)  -->
<svg version="1.1" id="圖層_1" xmlns="http://www.w3.org/2000/svg" xmlns:xlink="http://www.w3.org/1999/xlink" x="0px" y="0px"
	 viewBox="0 0 684.6 1026.7" style="enable-background:new 0 0 684.6 1026.7;" xml:space="preserve">
<style type="text/css">
	.st0{fill:#008555;stroke:#000000;stroke-width:0.43;stroke-linejoin:round;stroke-miterlimit:10;}
	.st1{fill:none;stroke:#000000;stroke-width:0.43;stroke-linejoin:round;stroke-miterlimit:10;}
	.st2{fill:#F2A100;stroke:#000000;stroke-width:0.43;stroke-linejoin:round;stroke-miterlimit:10;}
	.st3{fill:#F7DDC4;stroke:#000000;stroke-width:0.43;stroke-miterlimit:10;}
	.st4{fill:#E84130;stroke:#000000;stroke-width:0.43;stroke-linejoin:round;stroke-miterlimit:10;}
	.st5{fill:#E84130;stroke:#000000;stroke-width:0.43;stroke-miterlimit:10;}
	.st6{opacity:0;}
	.st7{fill:#FF947B;stroke:#000000;stroke-width:0.43;stroke-linejoin:round;stroke-miterlimit:10;}
	.st8{fill:#FF947B;stroke:#000000;stroke-width:0.43;stroke-miterlimit:10;}
	.st9{fill:#F7DDC4;}
	.st10{fill:#FFFFFF;stroke:#000000;stroke-width:0.43;stroke-linejoin:round;stroke-miterlimit:10;}
	.st11{fill:none;stroke:#000000;stroke-width:0.43;stroke-miterlimit:10;}
	.st12{fill:#008555;stroke:#000000;stroke-width:0.43;stroke-miterlimit:10;}
</style>
<g>
	<g>
		<g>
			<path class="st0" d="M58.6,412.3c0,0,5.2,13.7,1.1,24.8c0,0,11,4.1,6,20.5c0,0,5.9,36.7,23.8,31.8c0,0,5.7-21.6-3-34.4
				c0,0-3.2-5.6-0.2-10.1c0,0-12.7-6.6-10.5-17.9C75.8,427,67.2,426.1,58.6,412.3z"/>
			<path class="st1" d="M71.5,439.2c0,0,13.8,24,12.8,50.4"/>
		</g>
		<g>
			<path class="st0" d="M10.1,462c0,0,12.3,2.6,15,19.6c0,0,16-3.5,21.5,16.7c0,0,7.8-1.7,12.9,4.9c5.1,6.6,8.5,7.7,23,3.7
				c0,0,2.9-14.8-4.6-18.7c-7.6-4-13.1-0.4-18.6-11c0,0-13.8,5.1-24.7-14.4C34.5,462.7,23.8,467.1,10.1,462z"/>
			<path class="st1" d="M32.7,474.9c0,0,20.2,5.3,49.7,31.9"/>
			<path class="st2" d="M31.1,410.1c0,0,9.8,17.4,3.5,32.2c0,0,15.8,2,15.7,25c0,0,7,1.3,9,9.8c2,8.5,10.5,22.5,19.6,23.4
				c8-7.8,1.4-23.1-3.4-29.6c-4.8-6.5-4.4-14.4-4.4-14.4s-15-1.1-16.6-27C54.4,429.5,40.4,428,31.1,410.1z"/>
			<path class="st1" d="M43.7,434.7c0,0,27.9,33.1,35,65.8"/>
		</g>
	</g>
	<path class="st3" d="M327.7,28c0,0-35.1,11.1-64.6,73.3c-13,27.3-53,43.2-53.9,93.7c-1,50.5-1.9,81.8-16.7,99.4l68.9,54.1
		c0,0,19.1-69.9,22.2-81s0.8-105,0.8-105l9.4-61.7L327.7,28z"/>
	<path class="st4" d="M327.7,28c-14.8,39.2-21.9,66.4-11.9,98.6c8.8,28.4,41,70.2,56.9,97.8c24.8,43,28.9,66.2,29,151.9l-100.1,45.5
		l-104.6-58.1c0,0,50.6-63.2,51.1-123.5s15.1-66.6,27.1-95.6C290.5,108,281.9,77,327.7,28z"/>
	<g>
		<g>
			<path class="st3" d="M277.6,181c-2.5,8.4-4,16.6-4.8,24.3c5.8,3.7,7.6,9.3,7.6,9.3c-1.9-1.8-5.9-2.3-8.2-2.4
				c-0.2,2.8-0.3,5.6-0.3,8.2c6.6,3,9.4,8.6,9.4,8.6c-2.5-1.8-7.2-1.6-9.3-1.4c0.9,22,6.3,36.8,6.3,36.8
				C305.1,221.3,277.6,181,277.6,181z"/>
		</g>
		<g>
			<path class="st3" d="M327.8,218.7c-2.7,6.7-5.9,12.8-9.3,18.2c-5.6-0.6-9.7,2.2-9.7,2.2c2.2-0.2,4.9,1.5,6.5,2.6
				c-1.3,1.9-2.7,3.7-4,5.5c-5.8-1.4-10.4,0.8-10.4,0.8c2.5,0.1,5.4,2.6,6.7,3.8c-11.8,13.8-22.8,20.7-22.8,20.7
				C285.9,224.2,327.8,218.7,327.8,218.7z"/>
		</g>
		<g>
			<path class="st0" d="M304.2,207.5c0.5,6.6,0.5,12.5,0,17.7c-2.4,0.5-5.7,1.7-8.5,4.4c0,0,4.4-0.4,7.9,0.2
				c-0.6,3.8-1.4,7.2-2.4,10.2c-2.4-0.4-6.3-0.5-10.6,1.2c0,0,6.3,1.5,8.5,4c-6.1,13.4-15.1,17.2-15.1,17.2
				C279.4,231.7,304.2,207.5,304.2,207.5z"/>
		</g>
		<g>
			<path class="st0" d="M326,248.8c-3.8,4.8-7.6,8.7-11.2,11.8c-2-1.2-5-2.6-8.7-2.6c0,0,3.3,2.6,5.3,5.3c-2.8,2.1-5.5,3.9-8.1,5.2
				c-1.4-1.8-4-4.4-8.1-6.1c0,0,3.4,5.1,3.3,8.3c-12.7,5-21.3,1.6-21.3,1.6C293.6,248.7,326,248.8,326,248.8z"/>
		</g>
	</g>
	<g>
		<path class="st1" d="M345.2,62.3c0,0-26.9,27.2-26.9,70.1"/>
		<path class="st1" d="M335.2,39.6c0,0,6,14.4-2.9,40.6"/>
		<path class="st1" d="M363.9,80.2c0,0-27,0.7-40.2,19.3"/>
		<path class="st1" d="M367.6,69.8c0,0-22.4,0-41.3,22.8"/>
		<path class="st1" d="M374.8,58.7c0,0-23.6,1.7-44.3,24.8"/>
		<g>
			<path class="st4" d="M370.9,32.3c0,0-6.7,0.4-8.1,9.5C362.8,41.8,369.8,41.8,370.9,32.3z"/>
			<path class="st4" d="M373.5,38.7c0,0-10.3-2.1-13.2,7.5C360.3,46.2,367.8,48.4,373.5,38.7z"/>
			<path class="st4" d="M364.9,32.3c0,0-10.5,6.9-9.1,18C355.8,50.3,365.3,49.1,364.9,32.3z"/>
			<path class="st4" d="M368.8,45.7c0,0-11.7-2.7-17.9,9.8C351,55.5,362.4,59.3,368.8,45.7z"/>
			<path class="st4" d="M356.4,38c0,0-10.1,8-7.7,20.2C348.8,58.2,360.3,56.2,356.4,38z"/>
			<path class="st4" d="M362.8,55.2c0,0-16.3-4.2-17.7,7.2C345.1,62.3,355.5,66.2,362.8,55.2z"/>
			<path class="st4" d="M348.1,43.2c0,0-7.1,9.1-2.9,19.2C345.1,62.3,356,56.4,348.1,43.2z"/>
		</g>
	</g>
	<g>
		<g>
			<path class="st4" d="M386.4,64.4c0,0-7.8,4.7-5.6,11.6C380.8,76,387.5,73.2,386.4,64.4z"/>
			<path class="st4" d="M379.8,67.5c0,0-5.6,6.4-1.4,16C378.4,83.6,386.8,76.6,379.8,67.5z"/>
			<path class="st4" d="M388.4,70.5c0,0-13.3,4.3-12.6,11.8C375.9,82.3,385.6,81.8,388.4,70.5z"/>
			<path class="st4" d="M375.6,71.4c0,0-9.7,9-4.3,21.8C371.3,93.3,383.3,85.9,375.6,71.4z"/>
			<path class="st4" d="M385.9,77.3c0,0,0.2,11.9-15.5,15.3C370.4,92.6,368.2,81.4,385.9,77.3z"/>
			<path class="st4" d="M383.6,86.8c0,0-15.9,1.7-16.6,13.4C367,100.2,378.4,100.8,383.6,86.8z"/>
			<path class="st4" d="M368.9,78.2c0,0-9,11.3-1.5,23C367.4,101.2,378.4,94.5,368.9,78.2z"/>
		</g>
		<path class="st1" d="M367.4,101.2c-7.4,27-29.7,48.9-32.1,81"/>
		<path class="st1" d="M359.9,120.2c1-2.1,16.7-24.3,44.9-29.1"/>
		<path class="st1" d="M354.9,129.8c0,0,5-9.7,25.2-12.5"/>
		<path class="st1" d="M358.9,122.1c0.2-0.4,15.3-13.4,29.6-15"/>
	</g>
	<path class="st1" d="M303.8,106.1c-1.7,12.7,7.3,21.9,5.4,32.9"/>
	<path class="st1" d="M300,95.2c-5.2,14,0.7,22-1.5,34.6"/>
	<g>
		<path class="st0" d="M395.8,190c0,0-5.9,4-4.1,12s2.9,10.5,1.9,14.7c0,0,10.3-5.5,10-16.7C403.2,188.8,398.7,188.6,395.8,190z"/>
		<path class="st0" d="M360.5,183.6c0,0,5.7-2.6,8.2,2.3c2.5,4.9-1.6,11.6,0,18c0,0-5.1-2.2-5.7-8.5c-0.7-7-5.3-6.1-5.3-6.1
			L360.5,183.6z"/>
		<g>
			<path class="st5" d="M300.8,171.4c0,0-2.5-11.2,1.3-17.4s12.7-4.9,13.9,0c0,0,7.2,0.8,6.4,7.8
				C321.6,168.6,313.5,172.6,300.8,171.4z"/>
			<path class="st1" d="M308.1,162.5c0.2-0.5,1.1-8,7.9-8.6"/>
		</g>
		<path class="st0" d="M319.2,165.2c-3.2,0.6-6.4,3.2-8.7,10c-2.6,7.9-5.4,11.8-7.6,12.1c0,0,18.1-1.6,21-13.9
			C325.9,164.9,321.3,164.8,319.2,165.2z"/>
		<path class="st0" d="M296,133.5c0,0,3.5,4.7,9.8,3.4c6.4-1.3,13.3,5.1,13.5,9.4c0,0,5.8-12.8-2.8-17.3
			C309.1,125.2,306.3,133.1,296,133.5z"/>
		<g>
			<path class="st5" d="M358.4,179.2c0,0,2.2-6.4-3.6-8.1c-5.8-1.7-10.1,0.9-15.7,12.4c0,0,4.7,5.6,14.8,5.8
				C364,189.5,363.6,179.9,358.4,179.2z"/>
			<path class="st1" d="M348.7,181.8c0,0,3.8-3.7,9.7-2.6"/>
		</g>
		<path class="st3" d="M316.3,164.8c0,0,1,9.8,12.6,20.8c8.7,8.3,9.5,28.9,6.7,46.3s-10.3,34.2-9.5,64.1c0.4,16,6.9,49,23.1,51.4
			c0,0,17-18.5,17-19.5s-17.1-18.3-21.8-46.4c-3.5-20.7-2.4-48.8,11.6-57.2c11.9-7.1,19.3-8.6,29.6-22.7c10.3-14.1,8.3-14,18.6-17.1
			c10.3-3.2,5-8.9,5-8.9l-15.1-3.6c0,0-11.8,23.9-22.8,32c-11,8.1-17.9,13.4-21.3,8.6s11.9-15.6,13.5-28.1
			c1.6-12.5,11.2-14.1,11.2-14.1l-5.2-8.7c0,0-9.5,5.3-13.9,17.5c-3.7,10.1-7.5,21.4-11.2,20.5c-5.3-1.3,4.9-28.2-15.1-56.4l-5,2.8
			c0,0,15,27.1,8.4,31c-3.9,2.3-7.7-9.6-8.1-14.1c-0.2-2-1.2-7.2-5.1-6.3C314.9,157.9,316.3,164.8,316.3,164.8z"/>
		<path class="st0" d="M415.1,151.6c0,0-2,2.6-8.7,5.1c-6.7,2.5-11.1,5-12.4,14c0,0,9.4,4,14.9-2.3
			C414.3,162.1,411.8,156.4,415.1,151.6z"/>
		<path class="st0" d="M374,132.8c0,0-1.1,5-4.4,9.3c-3.2,4.3-6.8,9.7-1.6,19.7c0,0,8.9-2.8,7.9-13.2
			C375.5,143.4,373.5,136.1,374,132.8z"/>
		<path class="st0" d="M370.7,161.8c0,0-5.7,7.2,0.2,15.2c5.9,8,5.1,11.5,5.1,11.5s1.5-9.3,4-15.2c2.5-5.9-1.3-13.4-1.3-13.4
			L370.7,161.8z"/>
		<path class="st0" d="M380.9,150.8c0.4-0.9,3.5-1.9,7.9,0c4.4,1.9,10.8-1.9,10.8-1.9s-1.3,7.7-7.3,9.9
			C385.7,161.3,377.2,158.6,380.9,150.8z"/>
		<path class="st0" d="M316.1,151.2c2.6-3.5,7.1-2.6,10.7,2.6c3.6,5.2,6.9,9.1,12.4,8.3c0,0-6.5,6.5-14.7,4.4
			C316.3,164.4,312.7,155.7,316.1,151.2z"/>
		<path class="st0" d="M298.1,143.7c0,0,5.1,0.6,9.5-2.4c4.5-3,9.2-2.9,13.3,2.4c0,0-4.4,8.1-11.8,6.6S298.1,143.7,298.1,143.7z"/>
		<path class="st0" d="M391.3,175.2c0,0-6-0.1-10.2,5.2c-4.2,5.3-4.4,9.3-8.8,11.2c0,0,13,3.2,18.9-5.8
			C397.3,176.9,391.3,175.2,391.3,175.2z"/>
		<path class="st0" d="M404.1,184.6c0.3-1.5,4.7-5.7,12.9-2.8c8.5,3,7.3,11.8,17.6,12.9c0,0-10.3,3.5-16.6-0.8
			C411.2,189.4,402.8,191.7,404.1,184.6z"/>
		<path class="st0" d="M400.6,170.2c0.1-0.4,5.1,4.4,10.9,3.8c9-1.1,14,1.9,17.5,11.1c0,0-8.9-3.2-14.4-1.4
			C407.8,185.9,397.9,182.4,400.6,170.2z"/>
		<path class="st0" d="M336.4,148.6c5.4-2.4,9.9,2.3,11.5,13.1c1.4,9.6,4.3,11.6,4.3,11.6s-12.1-0.5-16.3-9.1
			S332.1,150.5,336.4,148.6z"/>
		<path class="st0" d="M326.1,140c0,0-3.2-3.5-6.7,1.3c-2.4,3.4-2.8,11.2-8.2,12.7c0,0,13.4,4.1,18.8-6.9
			C333.8,139.4,326.1,140,326.1,140z"/>
		<g>
			<path class="st5" d="M329.5,145.5c0,0-4.8,4-1.1,9c3.7,5,15.9,4.3,20.2,1.5c0,0,3.1-11.2-6.5-16.6
				C333.7,134.7,328.1,141.3,329.5,145.5z"/>
			<path class="st1" d="M329.5,145.5c0,0,5.2-1.9,10.5,4.8"/>
		</g>
		<g>
			<path class="st5" d="M316,128.7c0,0,1.1-5.1,7.1-4.4s11.6,8.7,11.3,16.9c0,0-8.6,4-15.5,2C311.2,141.1,309.7,131.1,316,128.7z"/>
			<path class="st1" d="M316,128.7c0,0,6.3-0.7,9.9,5.3"/>
		</g>
		<path class="st0" d="M349.6,167.9c0-0.1,5.4-1.3,8.7-5.8c3.3-4.5,8.1-7.6,14.9-3.8c0,0,1.7,7.3-6.8,9.6S349.6,167.9,349.6,167.9z"
			/>
		<g>
			<path class="st5" d="M374,153.1c0,0-1.3-4,3.7-5.1c5-1,11.6,7.1,10,15.3c0,0-11.4,3.7-15.3-2.3C368.5,155.2,374,153.1,374,153.1z
				"/>
			<path class="st1" d="M374,153.1c0,0,4.4-0.5,6.9,4.9"/>
		</g>
		<g>
			<path class="st5" d="M400.6,184c0,0-8.9,0-7.7,10.5c0.9,7.7,7.6,11.2,18.8,11.5c0,0,4.4-7.9,0.9-16.8
				C409.1,180.4,402.4,180.6,400.6,184z"/>
			<path class="st1" d="M407.2,194.7c0,0,0.3-7.8-6.6-10.7"/>
		</g>
		<g>
			<path class="st5" d="M398,166.3c0,0,7.2,3,3.5,11c-3.7,8-14,5.9-14,5.9s-4.9-10,0.1-15.9C392.6,161.5,397.5,164.4,398,166.3z"/>
			<path class="st1" d="M391.1,176.1c0,0,0.2-6.4,6.9-9.8"/>
		</g>
	</g>
	<g class="st6">
		<path class="st0" d="M586.9,420.6c-13.4,0.9-25.1,2.7-35.4,5.2c-0.3,4.9-1.6,12-6.4,18.2c0,0-0.4-8.9-2.8-15.7
			c-7.4,2.3-13.9,4.9-19.6,7.8c1.4,4.7,2.9,12.4,0.6,21.5c0,0-4.9-12.1-10.6-15.8C487.8,457.9,483,477,483,477
			C546.1,477.3,586.9,420.6,586.9,420.6z"/>
	</g>
	<g class="st6">
		<path class="st2" d="M525.3,389.3c2.9-9.6-3.8-17.6-3.8-17.6c8.6-8.4,18.3-16.9,29.1-25.5c0,0,7.4,96.1-96.9,134.7
			c0,0,4.9-32.4,37.6-75.3c0,0,5.9,3.2,9.6,11c3.7-9.8-2.9-19.5-2.9-19.5c5.3-6.4,11.2-13,17.8-19.8
			C515.9,377.4,521.6,381.7,525.3,389.3z"/>
	</g>
	<g class="st6">
		<path class="st0" d="M495.6,330.3c-3.1,4.9-6,9.8-8.5,14.7c2,5.8,5.7,16.9,5.7,17.5c0,0.5-6.9-3.9-11-6.5
			c-1.9,4.4-3.6,8.8-5.1,13.2c1.2,3.5,6.7,19.6,6.7,20.2c0,0.5-6.7-3.8-10.8-6.3c-13.8,54.7,4.2,97,4.2,97
			C527.3,424.4,496.4,329,495.6,330.3z"/>
	</g>
	<g>
		<path class="st0" d="M162.7,171.1c3.6,12.7,6.1,24,7.6,34.2c-3.3,1.7-7.7,5-10.4,11.2c0,0,6.2-2.2,11.6-1.9
			c0.8,7.5,1,14.3,0.9,20.4c-3.7,0-9.4,0.9-14.9,5.6c0,0,9.8,1.1,14.2,5.3c-3.1,27.8-14.7,37.8-14.7,37.8
			C136.8,225.3,162.7,171.1,162.7,171.1z"/>
	</g>
	<g>
		<path class="st0" d="M126.3,195.8c-0.5,12.2-0.2,22.9,0.6,32.4c3.3,0.8,8,2.8,11.8,7.7c0,0-6-0.6-10.8,0.8
			c0.9,6.9,2.2,13,3.6,18.4c3.3-0.8,8.6-1.2,14.6,1.8c0,0-8.6,3.1-11.6,7.8c8.8,24.3,21.4,30.7,21.4,30.7
			C161.3,238.8,126.3,195.8,126.3,195.8z"/>
	</g>
	<path class="st3" d="M102.8,452c0,0,0.3-42.4,7.8-69.4c7.5-27-4.1-33.2,10.7-68.8s24.6-39.6,41.5-73.4
		c21.6-43.3,10.3-101.9,59.6-145.8l-10,62.1l26.3,90.8l-36.9,154.7l-49.5,69L102.8,452z"/>
	<path class="st4" d="M35.8,661.4c0,0-2.6,28.7,12.3,63.2c10.3,23.7,20.1,45.9,23.8,76s25.4,51.2,52.2,53.1
		c26.8,1.9,34.6,21.4,52.2,42.3c17.6,20.9,31.2,54.9,64.5,63.1s30.5,29.7,69.4,38s76.4-14.7,101.7-39.2s36.2-54.2,67.9-70.2
		c31.7-15.9,64.7-36.6,84.7-72.1s18.4-41.6,33.3-58.4c11.7-13.1,24.6-25,42.4-58.5c8.6-16.3,17-41.2,17.9-78.7l-172.8-51.7
		l-292.5,27.5L35.8,661.4z"/>
	<path class="st3" d="M99,591c0,0-50.5,4.8-61.7,46.5c-11.2,41.7,23.3,84.7,92.2,101.1c68.8,16.3,108.7,62.7,194.1,62.6
		c78.2-0.1,86.9-39.1,156.7-55.2c69.8-16.1,157-59.3,175.3-114c18.3-54.7-48.6-90.2-118.3-90.1c-60.7,0.1-248.5-23.4-248.5-23.4
		L99,591z"/>
	<path class="st4" d="M222.4,94.7c0,0-6.9,55.1,20.5,90.8c68.6,89.3,57.9,118,77.3,155.5c19.5,37.4,34.5,50.7,34.5,50.7l-44.4,56
		c0,0-92,5.1-94.2,5.1c-2.2,0-70.7-30.5-70.7-30.5s-4.2-21.2,0.3-47.5s17.8-29.1,19.8-55.4c2-26.3,7.3-45.3,17.6-62
		c10.4-16.7,25.9-41.5,25.4-72.2C208,154.5,205.6,116.4,222.4,94.7z"/>
	<path class="st3" d="M409.6,222.5c0,0-11.1,41.6-29.6,59.9c-18.5,18.2-42.9,25.6-59.8,48.7c-16.9,23-19.9,47-31.2,58.5
		c-11.3,11.5-32.5,19.7-39,39.2c-6.5,19.5-26.8,70.1-37.2,90.5s97.5,60.6,100.4,60.7c2.9,0,44-18.7,44-18.7L371.8,456l28.6-112.4
		c0,0,10.6-54,12.9-62C415.5,273.6,409.6,222.5,409.6,222.5z"/>
	<path class="st4" d="M409.5,222.5c0,0,15.4,32.2,21.2,69.5s3.9,65,38.3,96.5s45.5,63.6,47,89.6c1.5,26,31,63.3,72.9,70.2
		c0,0-17.2,22.1-59.6,21.8c-42.5-0.3-54.9-14.1-84.8-3.7c-35.2,12.3-37.7,34.8-37.7,34.8l-98.9-39.7c0,0,26.5-18,32-58.7
		c5.5-40.7-0.7-55.9,17-113.4C368.8,350.9,404.6,309.2,409.5,222.5z"/>
	<g>
		<g>
			<path class="st4" d="M76.6,302.1c0,0,4,15.2,14.3,16.2C90.8,318.3,88.6,306.3,76.6,302.1z"/>
			<path class="st4" d="M77.7,314c0,0,7.6,11,20.6,8.8C98.3,322.8,94.8,310.5,77.7,314z"/>
			<path class="st4" d="M86.1,303.2c0,0-3.9,13.5,8,20.1C94.1,323.2,97.4,309.7,86.1,303.2z"/>
			<path class="st4" d="M81.7,322.5c0,0,10.7,13.4,26.7,8.3C108.4,330.8,100.3,317.5,81.7,322.5z"/>
			<path class="st4" d="M93.7,306c0,0-6.1,18.9,8.5,25.9C102.2,331.9,108,317.2,93.7,306z"/>
			<path class="st4" d="M103.8,314c0,0-8.3,15.5,5.9,24.1C109.7,338.1,116,324,103.8,314z"/>
			<path class="st4" d="M83.2,329.8c0,0,8.6,13.2,27.8,7.5C111,337.3,101.3,323.2,83.2,329.8z"/>
		</g>
		<g>
			<path class="st1" d="M111,337.3c0,0,22.2,21.9,32.1,80.4"/>
			<path class="st1" d="M144.4,342.1c0,0-10.6,15.8-8.7,44"/>
			<path class="st1" d="M97.4,363.6c0,0,24.8-2,35.1,12.8"/>
			<path class="st1" d="M85,348.6c0.8,0,29.2-0.8,45.3,22.1"/>
			<path class="st1" d="M65.8,333.9c0,0,38.1-0.3,60.1,26.8"/>
		</g>
	</g>
	<g>
		<path class="st4" d="M102.5,240.1c0,0-0.3,12.6,7.9,15.6C110.4,255.7,113.2,246.1,102.5,240.1z"/>
		<path class="st4" d="M100.6,249.5c0,0,4.9,16.7,17.8,17.3C118.4,266.8,116.4,251.9,100.6,249.5z"/>
		<path class="st4" d="M111.1,243.6c0,0-5.8,12.9,4.7,24.7C115.9,268.3,121.6,254.7,111.1,243.6z"/>
		<path class="st4" d="M102.9,260.3c0,0,2.8,19.6,19.6,19.4C122.4,279.7,122.6,262.7,102.9,260.3z"/>
		<path class="st4" d="M117.3,249.2c0,0-8.4,19,3.4,30.4C120.7,279.6,130.9,266.4,117.3,249.2z"/>
		<path class="st1" d="M124.9,284.2c0,0,24,38.8,37.5,125.7"/>
		<path class="st1" d="M120.8,307.9c0,0,12.9,0.9,20.2,13.4"/>
		<path class="st1" d="M106.9,297.6c0,0,21.2,0,31.4,16.4"/>
		<path class="st1" d="M97.4,284.6c0,0,28.6,4.7,37.5,20.5"/>
		<path class="st1" d="M158.1,290.7c0,0-11.7,14.9-12.3,45.4"/>
		<path class="st4" d="M104,272.5c0,0,7.2,15.8,20.9,11.7C124.9,284.2,120.9,269.9,104,272.5z"/>
		<path class="st4" d="M124.7,260.3c0,0-11.2,14.6,0.2,23.9C124.9,284.2,134.6,276.2,124.7,260.3z"/>
	</g>
	<g>
		<path class="st0" d="M332.4,412c3.7-8.4,10.9-8.6,10.9-8.6c0.5-11.8,0.6-24.6,0.1-38.3c0,0-53.4,56.8-26.4,159.6
			c0,0,14.7-24.6,22.2-76.9c0,0-4.3-2.3-10.1,0c3.5-9.1,11.4-10.5,11.4-10.5c1-8.1,1.7-16.8,2.3-26.1
			C342.8,411.2,338,409.8,332.4,412z"/>
	</g>
	<g>
		<path class="st0" d="M388.2,400.8c-3.7,12.7-7.7,23.6-11.8,33c-3.7-0.3-9.1,0.1-14.8,3.9c0,0,6.4,1.5,10.9,4.6
			c-3.3,6.8-6.7,12.6-10.1,17.7c-3.1-1.9-8.5-4.2-15.6-3.2c0,0,7.7,6.1,9.2,12c-17.4,21.9-32.6,24.1-32.6,24.1
			C337.4,432.9,388.2,400.8,388.2,400.8z"/>
	</g>
	<g>
		<path class="st2" d="M290.8,394.1c-0.5,11.1-0.2,20.9,0.6,29.6c3,0.7,7.3,2.6,10.8,7.1c0,0-5.5-0.6-9.9,0.7
			c0.9,6.3,2,11.9,3.3,16.9c3-0.7,7.9-1.1,13.3,1.6c0,0-7.8,2.8-10.6,7.1c8.1,22.2,19.6,28.1,19.6,28.1
			C322.9,433.4,290.8,394.1,290.8,394.1z"/>
	</g>
	<g>
		<path class="st3" d="M248.9,378.5c-2.6-5.7-8.4-6.2-8.4-6.2c0.1-7.8,0.6-16.2,1.6-25.2c0,0,40.9,40.3,14.4,106.6
			c0,0-10.8-17-14.7-51.9c0,0,3.6-1.3,8.2,0.6c-2.4-6.2-8.8-7.5-8.8-7.5c-0.4-5.4-0.7-11.2-0.7-17.3
			C240.4,377.5,244.4,376.8,248.9,378.5z"/>
	</g>
	<g>
		<path class="st2" d="M335.3,336.8c0,0-18.9,11.7-7.4,35C327.9,371.9,348.1,356.7,335.3,336.8z"/>
		<g>
			<path class="st7" d="M283,305.9c0.8,3.5-2.5,6.8-6.1,7.9c-3.6,1.1-4.5,8.5-10.4,9c-4.3,0.4-8.6-3-10.4-9c-1.2-4,0.5-12,5.1-12.5
				c3.6-0.4,4.6,3,11.3,1.1C278.5,300.7,282.3,303,283,305.9z"/>
			<path class="st7" d="M262.8,308.3c-0.1,0.3-2.1,4.6,1.5,6.6"/>
			<path class="st7" d="M262.6,315.5c0,0-1.6-1.1-2.9,1.1"/>
			<path class="st7" d="M260.3,309.3c0,0-0.5,1.1-1.7,0.6"/>
			<path class="st7" d="M258.2,310.7c0,0,1.2,1.2,0.2,2.5"/>
		</g>
		<g>
			<path class="st8" d="M276.7,315.1c3.7,1.8,3.1,5.3,1.6,9.1c-1.4,3.6,1.8,7.8-2.9,11.2c-4.1,2.9-10.7,0.5-14.6-3.8
				c-3.2-3.6-1.2-9.3,2.5-11c2.6-1.3,4.9-0.1,7.7-3.7C272.8,314.6,274.7,314.2,276.7,315.1z"/>
			<path class="st8" d="M265.7,327.3c0,0,0.9,1.8-1.2,2.6"/>
			<path class="st8" d="M267.7,329c0,0,0.3,1.5,2.4,1.5"/>
			<path class="st8" d="M265.2,331.3c0,0,2,0.2,2.3,1.8"/>
			<path class="st8" d="M268.9,333c0,0,0.3-1.3,1.2-1.1"/>
		</g>
		<path class="st2" d="M283,339.3c0,0,5,16.2,17,12.1C299.9,351.4,299.9,338.7,283,339.3z"/>
		<path class="st2" d="M303.9,354.5c0,0-8.4-8.8-19.8-1.3C284.1,353.3,295,366.2,303.9,354.5z"/>
		<path class="st2" d="M303.6,355.1c0,0-13-3.9-18.7,9.6C285,364.8,298.3,371.8,303.6,355.1z"/>
		<path class="st2" d="M280.5,339.1c0,0,9.4-15.7,25.1-6C305.6,333.1,299.9,349.6,280.5,339.1z"/>
		<g>
			<path class="st8" d="M296.2,335.9c3.5-3.7,7.5-0.7,11.1,0.3c3.9,1.1,11.4,1.4,12.1,6.1c0.7,4.5-2.4,7.9-6.4,6.7
				c-3.3-1-5.1,0.4-5.6,3.6c-0.5,3.2-3.6,5.3-6.8,4.1c-3-1.1-4.6-4-4.4-8C296.5,344.8,291.9,340.5,296.2,335.9z"/>
			<path class="st8" d="M297.9,340.7c0,0,1.9,0.5,3-1"/>
			<path class="st8" d="M299.7,349c0-0.3,0.3-2,2.3-2"/>
			<path class="st8" d="M301.9,342.7c0,0-0.5,1.7,0.9,2.1"/>
			<path class="st8" d="M298.1,343.6c0,0,1.1,0.7,0.6,1.8"/>
		</g>
		<path class="st2" d="M257,360.4c0,0-9.4,5.1-3.7,14.9C253.3,375.3,261.9,369.4,257,360.4z"/>
		<path class="st2" d="M224.7,344.3c0,0,15-5.8,23.5,7.5C248.2,351.7,235.2,361.9,224.7,344.3z"/>
		<g>
			<path class="st8" d="M238.3,347.8c2.7-4.7,7-1.6,11.9-0.7c5,0.9,6.6-2.1,9.5,0c3.6,2.6-1.2,6.8-1.9,9.9c-1,4.4-3.2,10.6-8.4,9.6
				c-4.8-0.9-4.2-3.7-6.8-8.5C239.9,353.5,236.3,351.4,238.3,347.8z"/>
			<path class="st8" d="M246.5,352.1c0,0-0.7,2.8-3.4,1.9"/>
			<path class="st8" d="M248.1,354.6c0,0-0.7,2.8,1.8,3.6"/>
			<path class="st8" d="M244.3,356.6c0,0,2,1,2.3,2.5"/>
			<path class="st8" d="M247.6,360c0,0,1-1.3,2.7-0.5"/>
		</g>
		<path class="st2" d="M230.9,340.2c0,0,4-13.1,17.1-12.7C248,327.5,242.6,343.3,230.9,340.2z"/>
		<path class="st2" d="M237.2,346.9c-0.5,0,3.8-17.9,19.2-18.9C256.4,328,255.2,345.4,237.2,346.9z"/>
		<g>
			<path class="st8" d="M241.4,305.3c3.5-0.7,6.8,2.6,7.9,6.3c1,3.7,8.5,4.8,8.9,10.7c0.3,4.4-3.2,8.6-9.3,10.3
				c-4.1,1.2-12.2-0.8-12.6-5.4c-0.3-3.7,3.1-4.6,1.3-11.4C236,309.8,238.5,305.9,241.4,305.3z"/>
			<path class="st8" d="M243.4,325.8c0.3,0.1,4.6,2.2,6.7-1.3"/>
			<path class="st8" d="M250.7,326.1c0,0-1.1,1.6,1,3"/>
			<path class="st8" d="M244.3,328.3c0,0,1.1,0.6,0.6,1.7"/>
			<path class="st8" d="M245.7,330.4c0,0,1.3-1.1,2.6-0.2"/>
		</g>
		<path class="st2" d="M300,325.8c0,0-5.5-19.8-19.3-13.5C280.7,312.3,279.5,324.9,300,325.8z"/>
		<path class="st2" d="M235,310.2c0,0-6.1-15-25.2-10.4C209.8,299.9,219.1,317.1,235,310.2z"/>
		<path class="st2" d="M205.7,314.8c0,0,9.5-12.9,26.6-2.2C232.3,312.7,223,329,205.7,314.8z"/>
		<path class="st2" d="M226,314.3c0,0-15.2,4.8-7.4,20.3C218.5,334.6,233.2,328,226,314.3z"/>
		<path class="st0" d="M338.7,344.9c0,0-6.9,6.7-13.8,6.4c-6.9-0.3-6.7-4.7-4.7-10.4s5.6-18.8,0.3-24s-7.8-2.2-7,2.2
			c0,0,5.5,12.6-13,40.5c-10.1,15.3-17.7,25.5-23.2,32.7c-2.8-9.4-5.2-20.8-2.1-32.5c4.5-16.8,10.9-33,8.5-48.2
			c-0.3-2-1.2-7.6-4.2-6.8c-3,0.8-2.3,5.6-4.1,11c-1.8,5.4-0.6,12.6-1,18.4c-0.3,5.4-0.3,12.5-4.8,12c-4.9-0.5-4.5-7.7-7.9-18.8
			c-3.5-11.3-13.2-26.7-17.5-24.7c-1.5,0.7-2.5,2.9-0.5,5.7c4.6,6.5,10.9,21.3,11.7,38.5c0.9,20.1,5.2,37.9,11,52.9
			c3.3,8.4,7.1,19.9,7.3,30.5c0.2,13.4-1.3,34.6-0.7,35.4c1.9,2.8,4.9,2.6,6.7,0c0.9-1.3,6-22.3,5.4-39.3c-0.4-10.8-2.7-20.4-3.8-23
			c7.5-7.3,15.9-17.6,21.9-26c5.3-7.4,9.4-15.2,17.5-17.3s13.7-4.6,19.7-11.8L338.7,344.9z"/>
		<path class="st2" d="M337.1,337.3c0,0-11.2,19.2,8.5,29.6C345.7,366.9,351.1,347.3,337.1,337.3z"/>
		<path class="st2" d="M332.1,332c2.3-14.9,21.4-13.9,21.4-13.9S346.5,336.6,332.1,332z"/>
		<path class="st2" d="M361.4,340.8c0,0-18.7,10.1-27.3-6C334.1,334.8,343.7,323.5,361.4,340.8z"/>
		<path class="st2" d="M337.9,301c0,0-17.6,6.2-16.2,21C321.7,322.1,334.6,322,337.9,301z"/>
		<path class="st2" d="M312.4,297.4c0,0-10.1,18.9,11.1,26.8C323.5,324.2,328.3,306.7,312.4,297.4z"/>
		<path class="st2" d="M235.7,274.3c0,0-11.3,19.1,6.6,28.9C242.3,303.1,254,288.1,235.7,274.3z"/>
		<path class="st2" d="M258.4,283.6c0,0-20.9,4.9-15.6,21.1C242.8,304.7,257.8,306.6,258.4,283.6z"/>
		<g>
			<path class="st8" d="M324.6,318.7c3.3-0.7,6.4,2.4,7.3,5.8c1,3.4,7.9,4.3,8.3,9.8c0.3,4.1-2.9,8-8.5,9.6
				c-3.8,1.1-11.2-0.6-11.7-4.9c-0.3-3.4,2.8-4.3,1.1-10.5C319.7,322.9,321.9,319.3,324.6,318.7z"/>
			<path class="st8" d="M326.7,337.6c0.3,0.1,4.2,2,6.2-1.3"/>
			<path class="st8" d="M333.4,337.8c0,0-1,1.5,1,2.7"/>
			<path class="st8" d="M327.5,339.9c0,0,1.1,0.5,0.6,1.6"/>
			<path class="st8" d="M328.9,341.9c0,0,1.2-1.1,2.4-0.2"/>
		</g>
		<g>
			<path class="st8" d="M318,316.3c2.5,2.9-1,5.5-2.5,8.7c-1.5,3.1-1.2,12.3-9,12.1c-7.8-0.2-5-9.3-8.4-10.9
				c-3.4-1.6-4.5-7.6-0.1-10.4c3.4-2.2,6.5,1.7,11.3,0.2S315.6,313.7,318,316.3z"/>
			<path class="st8" d="M303.8,320.8c0,0,0.4,2-1.5,2.1"/>
			<path class="st8" d="M305.5,323c0,0-0.3,1.9,1.5,2.8"/>
			<path class="st8" d="M307,328.2c0,0-1.5-0.3-2.3,0.8"/>
			<path class="st8" d="M301.4,325.4c0,0,1.3,0.6,1.5,2.4"/>
		</g>
		<path class="st2" d="M246.1,306.4c0,0,6.7-8,21.1-0.8C267.2,305.5,256,315,246.1,306.4z"/>
		<g>
			<path class="st8" d="M228,290.4c5-2.7,8.2,1.8,11.7,4.2c3.7,2.5,10.4,3.2,9.5,8.8c-1,6.1-6,6.7-9.3,4.7s-6.3-1.9-7.9,1.3
				c-1.6,3.3-5.1,4.8-8.2,3c-2.4-1.5-1.9-4.1-0.3-8.2S221.8,293.8,228,290.4z"/>
			<path class="st8" d="M228.1,296.1c0,0,1.9,1.2,3.5-0.1"/>
			<path class="st8" d="M227.2,305.5c0.1-0.3,1-2,3.1-1.3"/>
			<path class="st8" d="M231.7,299.6c0,0-1.1,1.6,0.2,2.6"/>
			<path class="st8" d="M227.3,299.3c0,0,0.9,1.1,0,2.1"/>
		</g>
		<g>
			<path class="st8" d="M233.4,307.2c6.1-5,11.8,1.1,10.3,5.9c-1.5,5-3.6,7.9-2.7,11.7c0.9,3.8-2.4,7.7-7.1,6.4
				c-9.9-2.7-16.5-9.6-13.6-15.3C222.9,310.7,224.5,314.4,233.4,307.2z"/>
			<path class="st8" d="M227.5,319.6c0,0,0,2-1.4,3"/>
			<path class="st8" d="M229.5,320.9c0,0,0,2,2.4,2.1"/>
			<path class="st8" d="M226.5,324.5c0,0,1.9-0.4,2.5,1.2"/>
			<path class="st8" d="M230.7,326.2c0,0,0.4-1.5,1.7-1.5"/>
		</g>
		<path class="st2" d="M273.8,304.2c0,0,4,13.4,18.8,6.4C292.6,310.6,287,299,273.8,304.2z"/>
		<path class="st2" d="M287.1,298.9c0,0-5.1,11.3-21.3,4.1C265.8,303.1,274.4,289.5,287.1,298.9z"/>
		<path class="st2" d="M294.1,280.2c0,0-17.6,10.5-7.9,22.2C286.1,302.3,298.7,300.1,294.1,280.2z"/>
		<g>
			<path class="st8" d="M283.6,296.7c2.8-4,6.1,1.7,10.2,0.2c3.8-1.4,10.1-0.5,12.4,5.9c2.9,8.1-5.4,18-12.9,13.7
				C286.1,312.4,280.2,301.8,283.6,296.7z"/>
			<path class="st8" d="M300.1,304.5c0,1.4,2.2,2.8,3.8,1.8"/>
			<path class="st8" d="M297,306.6c0,0,0.5,2-1.5,3.2"/>
			<path class="st8" d="M296.8,311.5c0,0,1.6-0.3,1.9,1.3"/>
			<path class="st8" d="M302.2,308.3c0,0-2.1,1.5-1.6,3.5"/>
		</g>
	</g>
	<g>
		<path class="st3" d="M53.1,629.6c0,0,15.6-22,16.9-89.9c1.2-61.7,31.6-97,46.7-116c25.5-32.2,44.7-27.1,76.4-109.3l31,52.3
			c0,0-3.4,133-1,136.3s-21.3,100-21.3,100l-5.9,70.3c0,0-18.6-8.9-32.9-8.2s-22.4-8.4-38-6.8c-15.6,1.5-29-10.3-49.2-14.3
			C62.8,641.3,53.1,629.6,53.1,629.6z"/>
		<path class="st4" d="M195.9,673.3c8.3-33.4-68.3-70-10.3-182.2c49.7-96.1,7.4-176.8,7.4-176.8s30.9,30.1,41.3,62.5
			c10.4,32.4,15.4,39.6,32.3,51.2c16.9,11.6,22.8,18.9,35.9,30.4c13.1,11.6,37.2,17.7,64.6,43c27.4,25.3,41.7,77.5,80.2,90.1
			c0,0-24.6,2.3-35.4,17.8s-30.2,26.9-51.3,25.9c-21.1-1-11.3,12.2-59,16S259,680.6,195.9,673.3z"/>
		<path class="st1" d="M229.6,402.6c0,0-2.1,17.7,16.3,33.4c16.6,14.2,20.4,20.4,24.1,31.6"/>
		<path class="st1" d="M225.5,426.8c0,0-0.6,6.8,4.1,11.5c5.9,5.9,5.9,10.8,5.9,10.8"/>
		<path class="st1" d="M262.6,437.9c0,0,7.8,4.7,8.9,9.4"/>
		<path class="st1" d="M276.4,452.4c0,0,4.5,5.2,12.3,8.9c7.8,3.7,14.1,12.3,14.1,12.3"/>
	</g>
	<path class="st1" d="M235.7,201.3c0.9,0.9,1.7,1.9,2.3,2.8c6.5,9.4,0.2,18,10.6,25c11.9,8,13.5,15.3,13.5,15.3"/>
	<path class="st1" d="M226,181c0,0,0.3,7,5.2,13.4"/>
	<path class="st1" d="M219,166.6c0,0-2.9,7.9,0,16.4c2.9,8.4,5.8,15.8,3.4,26.9c-2.4,11.2,1.6,19.4,1.6,19.4"/>
	<path class="st1" d="M229.9,217c0,0-0.7,8.9,4.5,14.5c5.2,5.6,4.3,16.1,4.3,16.1"/>
	<g>
		<g>
			<g>
				<path class="st0" d="M494,507.3c0,0-2.3-10,2.2-13.2c4,3.1,2.3,13.2,2.3,13.2H494z"/>
				<path class="st0" d="M500.4,510.4c1.1-5,3.8-7.7,1.2-9.1c-2.3-1.3-5.3,3.8-5.5,4.4c-0.2-0.7-3.2-5.7-5.5-4.4
					c-2.6,1.4,0.1,4.1,1.2,9.1c1.3,5.7,5.9,35.3,2.7,41.3h1.6h1.6C494.6,545.7,499.2,516.1,500.4,510.4z"/>
				<path class="st0" d="M500.2,517.3c1.1-5.2,4.3-7.9,1.6-9.4c-2.4-1.3-5.5,3.9-5.7,4.6c-0.2-0.7-3.4-5.9-5.7-4.6
					c-2.7,1.5,0.5,4.2,1.6,9.4c1.3,5.9,0.7,73.9,0.7,73.9h3.4h3.4C499.5,591.2,498.9,523.2,500.2,517.3z"/>
			</g>
			<g>
				<path class="st0" d="M518.2,499.4c0,0-2.3-10,2.2-13.2c4,3.1,2.3,13.2,2.3,13.2H518.2z"/>
				<path class="st0" d="M524.7,502.5c1.1-5,3.8-7.7,1.2-9.1c-2.3-1.3-5.3,3.8-5.5,4.4c-0.2-0.7-3.2-5.7-5.5-4.4
					c-2.6,1.4,0.1,4.1,1.2,9.1c1.3,5.7,5.9,35.3,2.7,41.3h1.6h1.6C518.8,537.8,523.4,508.2,524.7,502.5z"/>
				<path class="st0" d="M524.5,509.4c1.1-5.2,4.3-7.9,1.6-9.4c-2.4-1.3-5.5,3.9-5.7,4.6c-0.2-0.7-3.4-5.9-5.7-4.6
					c-2.7,1.5,0.5,4.2,1.6,9.4c1.3,5.9,0.7,78.4,0.7,78.4h3.4h3.4C523.8,587.8,523.2,515.3,524.5,509.4z"/>
			</g>
			<g>
				<path class="st0" d="M542.4,507.3c0,0-2.3-10,2.2-13.2c4,3.1,2.3,13.2,2.3,13.2H542.4z"/>
				<path class="st0" d="M548.9,510.4c1.1-5,3.8-7.7,1.2-9.1c-2.3-1.3-5.3,3.8-5.5,4.4c-0.2-0.7-3.2-5.7-5.5-4.4
					c-2.6,1.4,0.1,4.1,1.2,9.1c1.3,5.7,5.9,35.3,2.7,41.3h1.6h1.6C543,545.7,547.7,516.1,548.9,510.4z"/>
				<path class="st0" d="M548.7,517.3c1.1-5.2,4.3-7.9,1.6-9.4c-2.4-1.3-5.5,3.9-5.7,4.6c-0.2-0.7-3.4-5.9-5.7-4.6
					c-2.7,1.5,0.5,4.2,1.6,9.4c1.3,5.9,0.7,73.9,0.7,73.9h3.4h3.4C548,591.2,547.4,523.2,548.7,517.3z"/>
			</g>
			<g>
				<path class="st0" d="M566.7,499.4c0,0-2.3-10,2.2-13.2c4,3.1,2.3,13.2,2.3,13.2H566.7z"/>
				<path class="st0" d="M573.2,502.5c1.1-5,3.8-7.7,1.2-9.1c-2.3-1.3-5.3,3.8-5.5,4.4c-0.2-0.7-3.2-5.7-5.5-4.4
					c-2.6,1.4,0.1,4.1,1.2,9.1c1.3,5.7,5.9,35.3,2.7,41.3h1.6h1.6C567.3,537.8,571.9,508.2,573.2,502.5z"/>
				<path class="st0" d="M572.9,509.4c1.1-5.2,4.3-7.9,1.6-9.4c-2.4-1.3-5.5,3.9-5.7,4.6c-0.2-0.7-3.4-5.9-5.7-4.6
					c-2.7,1.5,0.5,4.2,1.6,9.4c1.3,5.9,0.7,78.4,0.7,78.4h3.4h3.4C572.2,587.8,571.6,515.3,572.9,509.4z"/>
			</g>
		</g>
		<g>
			<g>
				<path class="st9" d="M585,586.2L585,586.2c-4.9,3.2-11.2,3.2-16,0l0,0c-4.9-3.2-11.2-3.2-16,0l0,0c-4.9,3.2-11.2,3.2-16,0l0,0
					c-4.9-3.2-11.2-3.2-16,0l0,0c-4.9,3.2-11.2,3.2-16,0l0,0c-4.9-3.2-11.2-3.2-16,0l0,0c-1.8,1.2-3.9,1.9-5.9,2.2l0.5,7.9
					l101.8-1.3"/>
			</g>
			<g>
				<path class="st1" d="M585,586.2L585,586.2c-4.9,3.2-11.2,3.2-16,0l0,0c-4.9-3.2-11.2-3.2-16,0l0,0c-4.9,3.2-11.2,3.2-16,0l0,0
					c-4.9-3.2-11.2-3.2-16,0l0,0c-4.9,3.2-11.2,3.2-16,0l0,0c-4.9-3.2-11.2-3.2-16,0l0,0c-1.8,1.2-3.9,1.9-5.9,2.2"/>
			</g>
		</g>
	</g>
	<g>
		<g>
			<path class="st2" d="M488.7,566c2.7,5.8,2.8,15.1,2.8,15.1l-9-7.8c-4.3,5.4-8.4,11.1-12.1,16.8c8.4,10.1,7.7,24.9,7.7,24.9
				l-14-14.5c-9.1,16.1-10.4,32-4.6,33.8c6.9,2.1,23.3-2.3,34.9-28c12.8-28.3,18.7-60.1,18.7-60.1
				C505.4,549.5,496.9,556.9,488.7,566z"/>
		</g>
		<g>
			<path class="st3" d="M353.8,550.2c4.9,1.1,9.6,5.8,9.6,5.8l-10.6,2.4c-0.6,5.9-0.8,11.8-0.8,17.4c11.3-0.7,18.1,7.4,18.1,7.4
				l-17.7,2.5c1.2,14.9,8.1,24.1,13.3,20.8c6.2-3.9,16.3-17.8,12.2-39.4c-4.5-23.8-15.8-44.6-15.8-44.6
				C358.1,529.6,355.4,539.6,353.8,550.2z"/>
		</g>
		<g>
			<path class="st0" d="M469.6,508.7c-4.8,6.2-9.8,14.6-14.4,24.2c3.1,2.9,7.1,7.5,11.2,15c0,0-8.5-3.7-15.5-5.5
				c-2.6,6.1-5.1,12.5-7.3,18.9c5.4,3,17.3,10.5,22.9,22c0,0-15.6-4.6-28.4-4c-7,26.4-1.8,50,9.9,52.3c17,3.3,25.3-13.3,30.1-45
				C482.9,555,469.6,508.7,469.6,508.7z"/>
		</g>
		<g>
			<path class="st0" d="M324.9,586.9c6.4-0.8,15.3,1.9,15.3,1.9L330,595c3.8,5.8,8,11.4,12.2,16.7c12.2-4.9,26.1,0.3,26.1,0.3
				l-18.1,8.9c12.6,13.6,27.3,19.7,30.7,14.7c4.1-6,5-22.9-15.9-41.8c-23-20.8-51.5-36.2-51.5-36.2
				C314.3,565.9,318.7,576.3,324.9,586.9z"/>
		</g>
		<path class="st10" d="M389,636.8v5.4c0,0-4.7,2.8-3.9,4.5c1.4,3,13.8-5,13.8-5v-7L389,636.8z"/>
		<path class="st10" d="M428.2,639.8v5.7c0,0-5.5,4.5-3.7,6.1c1.8,1.6,15.4-7.2,15.4-7.2v-6.2L428.2,639.8z"/>
		<path class="st3" d="M370.4,609.5c0,0,2.4,14.9,12.3,23.8c10.3,9.2,22.3,6.6,25.2,0c2.9-6.6,0.9-13,0.9-13L370.4,609.5z"/>
		<path class="st3" d="M457.7,618.5c0,0-3,18.2-18.7,21.5c-17.1,3.5-26.9-5.6-32.9-15.9l14-11.8h34.5L457.7,618.5z"/>
		<path class="st3" d="M402.5,466.2c0,0-6.3,8.3-11,20.5c-4.7,12.2-8.9,28.8-8.9,28.8s34.6,19.5,49.5-2.3c0,0,3.4-22.3-16.3-48.3
			L402.5,466.2z"/>
		<path class="st5" d="M389.2,503c0,0,10.2-4.9,15.8-22.9l-3.6,44.9l-7.9-7.1l-11.4-11.4L389.2,503z"/>
		<g>
			<path class="st5" d="M401.9,521.9c-10-0.9-16.7-5-16.7-5s-8.6,26.8-14.7,45.7c-3.6,11.3-11.4,42.9,6.9,53
				c5.6,3.1,14.7,5.9,25.1,7.8l0,0C396.3,613.1,401.2,533.3,401.9,521.9z"/>
			<path class="st5" d="M432.1,513.3c-8.4,6.1-16.6,8.4-23.8,8.8c-1.9,42.9-3.2,86,1.4,101.9c0.1,0.2,0,0.4,0,0.6
				c22.1,2.9,46.8,1,52.7-12C472.1,591.9,438.7,537.6,432.1,513.3z"/>
			<path class="st5" d="M408.4,522c0-1,0.1-1.9,0.1-2.9l-6.5,1.4c0,0,0,0.5-0.1,1.4C404,522.1,406.1,522.2,408.4,522z"/>
			<path class="st3" d="M409.7,624c-4.6-15.9-3.3-59-1.4-101.9c-2.3,0.1-4.4,0.1-6.4-0.1c-0.7,11.4-5.7,91.1,0.6,101.5l0,0
				c2.4,0.4,4.8,0.8,7.2,1.1C409.8,624.4,409.8,624.1,409.7,624z"/>
		</g>
		<path class="st5" d="M408.5,516.6l2-36.6c0,0,4.3,20.1,12.8,23.5l-1.3,7.3l-12.2,9.4L408.5,516.6z"/>
		<path class="st10" d="M418.9,403.8c0,0,0,9.8-12.9,26.9c-6.9,9.2-13.1,19.7-8.8,29.6c3.7,8.5,16.3,11.3,23.3-0.9
			c6.9-12-1.4-25.7,3.3-39l-5.4,8.6C418.5,429,420.8,415.5,418.9,403.8z"/>
		<ellipse cx="404" cy="454.8" rx="0.9" ry="2.4"/>
		<ellipse cx="409.7" cy="454.8" rx="0.9" ry="2.4"/>
		<path class="st2" d="M391.5,486.7c0,0-5.8,4.1-10.2,16.8c-4.6,13.4-0.9,28.5,16.5,31.4c17.2,2.8,21.7-14.4,15.4-14.6
			c-5.7-0.2-15,0.8-20.9-7C385.7,504.5,391.5,486.7,391.5,486.7z"/>
		<g>
			<circle class="st10" cx="396.9" cy="525.6" r="4.5"/>
			<path class="st2" d="M430.1,490.6c3.2,1.1,5.5,21.6-2.7,33.4s-24.7,14-28.6,6.9c-3.5-6.3,0.7-12.8,8.4-14.1
				c9.4-1.6,13.7-4.2,16.4-15.2C424.8,496.7,425.5,488.9,430.1,490.6z"/>
		</g>
	</g>
	<g>
		<g>
			<path class="st0" d="M290.8,583.5c0.5-7.3-3.8-4.8-3.9-11.6c0,0,0.4-3.8-7.5-3.6c0,0,1.6-5.7,6.7-11.1c5.1-5.4-8-2.1-8-2.1
				s3.9-12.4,10.4-14.2s8.6-2.4,14.5,2s3.5,12.2,6.1,16.5c2.6,4.2,4,7.4,4,7.4s-6.5-3.8-7.8-1.2c-0.9,1.7,2.9,2.9,1.1,6.7
				c-1.6,3.4,1,4-2,8c0,0-4.6,0.2-7.3-6.2C295.7,577.7,294.7,581.7,290.8,583.5z"/>
			<path class="st1" d="M295.1,567.9c0,0,2.9-3.1,1.8-10.4c-1.1-7.5,1.2-11.9,6-14.6"/>
		</g>
		<g>
			<path class="st0" d="M297.6,538c1.4,0.7,8.4,0,7.3-11.3c0,0-0.4-2,2.2-4.7c3.4-3.5,0.3-10.2-2.9-12.6c0,0-2,3.5-2.9,9.5
				c0,0,0.5-6.4-2.3-9.6c-2.8-3.2-9.7-1-12.6-2.9c0,0-1.1,6.5,3.3,9.4c4.5,2.9,3.7,3.8,2.4,3.7c-1.4-0.2-3.9-2.2-5.7-4.9
				c-1.8-2.7-5.8-4.3-8.6-3.1c-2.8,1.2-3.1,3.8-6.7,3.4c0,0-0.3,5.1,3.7,7.5c0,0,0.6,3.7,4.2,3.9s6-1.4,6.6-0.9
				c0.6,0.5-1.1,1.1-0.8,1.8c0.5,1.4,6-2.7,6.7-1.4s-10.5,3.8-10.2,6.9c0.3,3.1,5,4.8,6.2,4.7c0,0,0,3.2,2.2,3.1
				c2.4-0.2,6-7.5,6.9-6.7C297.4,534.7,296.3,537.3,297.6,538z"/>
			<path class="st11" d="M287.7,520.9c0,0,6.9,6.8,17.2,5.8c0,0,6.1-1.6,9.1,0.3"/>
		</g>
		<g>
			<path class="st0" d="M299.2,504.5c1.2,5.5,8,6.6,11.3,6.5c3.3-0.2,1.5,3.3,6.6,4.9c0.5-2.9,4-2.9,2.4-7.5c0,0,3.7,0.6,6.4,3.1
				c3.4,3.1,5.7,0.7,5.7,0.7c-2.1-2.9-1.1-8.6,2.4-10.7c-3.7-2.2-2.3-4.9-6.1-5.7c-6.5-1.2-6.3-3.8-6.6-5.5
				c-0.4-2.6-5.1-8.7-7.2-5.6c-2.8,4.2-4.8,5.3-6.8,4.6c-1.7,3.2,1.3,6.9,0.9,8c-2.8,1.9-4.2-0.9-6.8,1.3
				C300.3,499.6,298.5,501.2,299.2,504.5z"/>
			<path class="st1" d="M323.4,503.9c0,0-8.3-1.2-15-6.7c0,0-1-2.2-3.1-3.4"/>
		</g>
		<g>
			<path class="st0" d="M348,541.5c0.4-1.5-1.7-8.2-12.6-4.9c0,0-1.9,0.8-5-1.2c-4.1-2.6-10,1.8-11.7,5.4c0,0,3.9,1.3,9.9,0.9
				c0,0-6.3,0.8-8.9,4.2c-2.6,3.4,1,9.7-0.3,13c0,0,6.6-0.2,8.6-5.2c1.9-5,3-4.4,3.1-3c0.1,1.4-1.4,4.3-3.7,6.6
				c-2.3,2.3-3,6.6-1.3,9c1.7,2.5,4.4,2.2,4.7,5.9c0,0,5.1-0.7,6.6-5.1c0,0,3.5-1.3,2.9-4.9c-0.6-3.6-2.6-5.6-2.2-6.3
				c0.3-0.7,1.3,0.8,1.9,0.5c1.3-0.8-3.9-5.3-2.7-6.3c1.2-1,5.9,9.5,8.8,8.6c2.9-0.9,3.7-5.8,3.4-7c0,0,3.2-0.7,2.5-2.8
				c-0.7-2.3-8.6-4.4-7.9-5.5S347.6,542.9,348,541.5z"/>
			<path class="st11" d="M333.3,554.7c0,0,5.2-8.1,2.2-18c0,0-2.8-5.6-1.5-8.9"/>
		</g>
		<g>
			<path class="st0" d="M256.4,589.3c0.1-7.3,4.2-4.5,4.8-11.2c0,0-0.1-3.9,7.8-3c0,0,1-3.9-5.7-11.6c-4.9-5.6,8.2-1.5,8.2-1.5
				s-3-9.4-9.4-13.2c-7.7-4.6-11.2-4.8-11.2-4.8c-1.9,7.5-5.4,12-9,15.5c-6.3,5.9-6.3,11.3-6.3,11.3s6.8-3.3,7.9-0.6
				c0.7,1.7-3.1,2.7-1.6,6.6c1.3,3.5-1.2,6.1,1.4,10.3c0,0,4.5-1.6,7.7-7.8C251.9,583.2,252.6,587.3,256.4,589.3z"/>
			<path class="st1" d="M253.4,573.5c0,0-2.6-3.4-1-10.5c1.7-7.4-0.2-12-4.7-15.1"/>
		</g>
		<g>
			<path class="st0" d="M229.7,471.1c2.7,6.8,5.5,2.7,8.5,8.8c0,0,1.3,3.6,8.4,0c0,0,1,5.8-1.2,12.9c-2.2,7.1,8.2-1.5,8.2-1.5
				s1.9,12.9-3.3,17.3c-5.1,4.4-6.7,5.9-13.9,4.4c-7.2-1.4-8.4-9.5-12.6-12.2c-4.2-2.7-6.8-4.9-6.8-4.9s7.5,0.6,7.6-2.3
				c0.1-1.9-3.9-1.4-3.9-5.6c0-3.8-2.6-3.2-1.7-8c0,0,4.1-2.2,9.3,2.5C227.7,478.4,226.9,474.4,229.7,471.1z"/>
			<path class="st1" d="M232.6,487c0,0-1.2,4.1,2.8,10.2c4.2,6.3,4.1,11.3,0.9,15.8"/>
		</g>
		<g>
			<path class="st0" d="M198,550.6c-0.4-1.7,2.2-8.8,13.8-4.7c0,0,2,1,5.5-1.1c4.5-2.7,10.8,2.4,12.5,6.4c0,0-4.3,1.2-10.8,0.5
				c0,0,6.8,1.2,9.5,4.9c2.6,3.8-1.5,10.5-0.2,14.1c0,0-7.2-0.5-9.1-6c-1.9-5.4-3-4.9-3.2-3.4c-0.2,1.5,1.3,4.7,3.7,7.3
				c2.4,2.6,3,7.2,1,9.8c-2,2.6-4.8,2.2-5.3,6.1c0,0-5.5-1-6.9-5.8c0,0-3.8-1.6-3-5.4c0.8-3.9,3-6,2.7-6.8c-0.3-0.7-1.4,0.9-2.1,0.4
				c-1.4-0.9,4.4-5.6,3.2-6.7s-6.8,10-9.9,8.9c-3.1-1.1-3.8-6.5-3.4-7.7c0,0-3.4-0.8-2.6-3.1c0.8-2.4,9.5-4.4,8.8-5.6
				C201.5,551.6,198.3,552.1,198,550.6z"/>
			<path class="st11" d="M213.4,565.5c0,0-5.3-9-1.6-19.6c0,0,3.3-6,2-9.6"/>
		</g>
		<g>
			<path class="st0" d="M203.4,498c-4.9,2.8-3.9,9.6-2.7,12.7c1.2,3.1-2.7,2.5-2.7,7.8c2.9-0.4,4,3,7.9,0c0,0,0.5,3.7-1,7
				c-1.9,4.2,1.1,5.6,1.1,5.6c2.2-2.9,7.9-3.7,11-0.9c0.9-4.2,4-3.7,3.5-7.6c-0.8-6.6,1.7-7.1,3.3-7.9c2.4-1.2,6.7-7.5,3.2-8.5
				c-4.9-1.4-6.4-2.9-6.4-5.1c-3.5-0.6-6.2,3.3-7.3,3.3c-2.7-2.1-0.4-4.3-3.3-6.1C208.4,497.5,206.3,496.3,203.4,498z"/>
			<path class="st1" d="M211.3,520.8c0,0-1.4-8.2,1.8-16.4c0,0,1.8-1.6,2.3-4"/>
		</g>
		<g>
			<path class="st2" d="M337.3,527.5l-2-0.3c1.6-9.7-2.1-12.5-2.1-12.6l1.1-1.6C334.5,513.1,339.1,516.3,337.3,527.5z"/>
		</g>
		<g>
			<path class="st2" d="M224.7,529l-1.4-2c0,0,5-3.6,7.3-13.4l2.4,0.6C230.4,524.9,224.9,528.8,224.7,529z"/>
		</g>
		<g>
			<path class="st2" d="M250.1,547.2l2.5-0.1c-0.6-12.3,4.4-15.2,4.4-15.2l-1.1-2.2C255.6,529.8,249.5,533.2,250.1,547.2z"/>
		</g>
		<g>
			<path class="st2" d="M309.2,503.7l-1.3,0.6c-2.8-6.7-6.1-7-6.2-7l0.1-1.4C301.9,495.8,306,496.1,309.2,503.7z"/>
		</g>
		<g>
			<path class="st2" d="M315.8,550l-2.3-0.1c0.5-11.3-4-14-4.1-14.1l1.1-2C310.7,534,316.4,537.1,315.8,550z"/>
		</g>
		<g>
			<circle class="st8" cx="305.5" cy="506.2" r="4.5"/>
			<circle class="st8" cx="312.1" cy="505.3" r="4.5"/>
			<circle class="st8" cx="303.4" cy="513.2" r="4.5"/>
			<circle class="st8" cx="309.9" cy="512.2" r="4.5"/>
			<circle class="st8" cx="316.3" cy="511.4" r="4.5"/>
			<circle class="st8" cx="307" cy="520" r="4.5"/>
			<circle class="st8" cx="314.1" cy="519.3" r="4.5"/>
			<circle class="st8" cx="311.2" cy="526.1" r="4.5"/>
		</g>
		<g>
			<path class="st0" d="M244.6,502.7c-1,1.3-1.6,8.2,9.8,9.3c0,0,2.1-0.1,4.2,3c2.8,4,10,2.2,12.9-0.5c0,0-3.1-2.7-8.8-4.6
				c0,0,6.2,1.6,9.8-0.5c3.7-2.1,2.8-9.4,5.2-11.9c0,0-6.2-2.3-9.9,1.5c-3.7,3.8-4.4,2.9-4,1.6c0.4-1.3,2.9-3.4,5.9-4.7
				s5.3-4.9,4.7-7.9c-0.7-3-3.2-3.7-2.1-7.2c0,0-5-1.3-8,2.2c0,0-3.8-0.1-4.6,3.4c-0.8,3.5,0.2,6.2-0.4,6.7
				c-0.6,0.5-0.9-1.3-1.6-1.2c-1.5,0.2,1.6,6.4,0.1,6.8c-1.5,0.5-1.8-11-4.9-11.3c-3.1-0.3-5.7,4-5.8,5.2c0,0-3.2-0.6-3.4,1.6
				c-0.3,2.4,6.3,7.3,5.3,8.1C248,503.2,245.6,501.6,244.6,502.7z"/>
			<path class="st11" d="M263.3,496.2c0,0-7.9,5.5-8.9,15.8c0,0,0.5,6.3-2,8.8"/>
		</g>
		<path class="st2" d="M227.4,510.7c0,0,5.9,9.3,18.9,15.7c13.9,6.8,19.6,17,22.4,33.2c2.8,16.2-0.2,33.4-2.5,47.9
			c-4.6,28.9,3.1,56.7-0.5,75.4h14.7c0,0-4.6-47.8,0.7-70.4s0.3-46.4,4.1-59.1c3.8-12.7,13.4-4.6,22.6-14.2
			c9.1-9.6,12.2-13.9,20.3-18.5c8.1-4.6,8.1-10.4,16.7-12.2s4.3-7.1,0-6.3s-11.2,2.2-19.3,9.7c-8.1,7.5-20.5,15.1-28.7,22
			c-8.1,6.8-13.3-2.3-8.3-6.8s2.5-14.2,6-18.8s6.3-6.1,10.1-12.2c3.8-6.1,9.9-8.4,7.1-9.9s-5.1,1-9.4,4.6c-4.3,3.6-8.1,3.3-10.4,8.6
			c-2.3,5.3-7.1,10.1-8.1,16.7c-1,6.6-6.6,14.7-13.7,12.4c-7.1-2.3-9.1-9.9-18.8-11.4c-9.6-1.5-18-8.9-21.6-14.2
			c-3.6-5.3-8-8.1-14.6-8.9s-18.4-4.3-18.6-0.8s6.3,4.6,16,6.3S223.3,507.9,227.4,510.7z"/>
		<g>
			<circle class="st8" cx="332.5" cy="529.7" r="4.6"/>
			<circle class="st8" cx="338.5" cy="526.5" r="4.6"/>
			<circle class="st8" cx="344.3" cy="523.5" r="4.6"/>
			<circle class="st8" cx="337.7" cy="535.2" r="4.6"/>
			<circle class="st8" cx="344.3" cy="532" r="4.6"/>
			<circle class="st8" cx="343.5" cy="539.8" r="4.6"/>
		</g>
		<g>
			<circle class="st8" cx="246.6" cy="550.4" r="4.9"/>
			<circle class="st8" cx="253.7" cy="550.5" r="4.9"/>
			<circle class="st8" cx="243.1" cy="557.5" r="4.9"/>
			<circle class="st8" cx="250.3" cy="557.6" r="4.9"/>
			<circle class="st8" cx="257.3" cy="557.8" r="4.9"/>
			<circle class="st8" cx="245.8" cy="565.5" r="4.9"/>
			<circle class="st8" cx="253.5" cy="565.9" r="4.9"/>
			<circle class="st8" cx="249.3" cy="572.7" r="4.9"/>
		</g>
		<g>
			<circle class="st8" cx="213.3" cy="530.9" r="5.1"/>
			<circle class="st8" cx="219.6" cy="529.6" r="5.1"/>
			<circle class="st8" cx="226.2" cy="531.6" r="5.1"/>
			<circle class="st8" cx="232" cy="535.2" r="5.1"/>
			<circle class="st8" cx="214.3" cy="537.1" r="5.1"/>
			<circle class="st8" cx="221.3" cy="539.2" r="5.1"/>
			<circle class="st8" cx="228.3" cy="540.8" r="5.1"/>
			<circle class="st8" cx="214.4" cy="545.9" r="5.1"/>
			<circle class="st8" cx="222.2" cy="547.9" r="5.1"/>
			<circle class="st8" cx="216" cy="553.9" r="5.1"/>
		</g>
		<g>
			<circle class="st8" cx="308" cy="554.5" r="4.5"/>
			<circle class="st8" cx="312.4" cy="551" r="4.5"/>
			<circle class="st8" cx="318.5" cy="550" r="4.5"/>
			<circle class="st8" cx="324.5" cy="550.5" r="4.5"/>
			<circle class="st8" cx="311.2" cy="559" r="4.5"/>
			<circle class="st8" cx="317.5" cy="557.9" r="4.5"/>
			<circle class="st8" cx="323.8" cy="556.5" r="4.5"/>
			<circle class="st8" cx="314.8" cy="566" r="4.5"/>
			<circle class="st8" cx="321.7" cy="564.5" r="4.5"/>
			<circle class="st8" cx="319.1" cy="571.7" r="4.5"/>
		</g>
	</g>
	<g>
		<path class="st1" d="M74.2,594.1c0,0,25.8,37,32.4,80.8"/>
		<path class="st1" d="M29.3,591.3c0,0,32.7,0.2,56.4,22.3"/>
		<path class="st1" d="M42.5,604.4c0,0,22.1-3.7,46.8,16.6"/>
		<path class="st1" d="M59.1,615.5c0,0,16.8-1,33.5,12.6"/>
		<g>
			<path class="st4" d="M36.8,549.7c0,0,1.9,12.7,12.1,13.7C48.9,563.4,48.8,553.2,36.8,549.7z"/>
			<path class="st4" d="M37.2,560c0,0,5.3,10.7,20.1,10.5C57.3,570.6,52.9,555.9,37.2,560z"/>
			<path class="st4" d="M45.9,550.4c0,0-1.7,19.6,8.5,22.8C54.4,573.2,59,560.3,45.9,550.4z"/>
			<path class="st4" d="M40.1,567.6c0,0,6.4,17.5,26.1,17.5C66.1,585.1,63.1,565.5,40.1,567.6z"/>
			<path class="st4" d="M53.3,557.5c0,0,15.6,6.2,11.4,28.4C64.8,585.9,48.9,582.6,53.3,557.5z"/>
			<path class="st4" d="M64.4,565.7c0,0-6.4,21.6,8.4,28.8C72.7,594.5,79.7,580,64.4,565.7z"/>
			<path class="st4" d="M45.2,580.1c0,0,9.8,17.9,29.1,14.5C74.3,594.6,71.6,576.5,45.2,580.1z"/>
		</g>
	</g>
	<g>
		<path class="st4" d="M95,499.5c0,0-2.5,15,6.7,20C101.6,519.5,106.7,508.5,95,499.5z"/>
		<path class="st4" d="M91.1,510.3c0,0,2.9,20.7,18.1,23.7C109.2,534,109.5,516,91.1,510.3z"/>
		<path class="st4" d="M104.7,505.1c0,0-9.2,14.3,1.2,30.2C105.9,535.4,115.2,520.3,104.7,505.1z"/>
		<path class="st4" d="M91.9,523.6c0,0-0.1,23.8,19.8,26.5C111.7,550.1,114.9,529.9,91.9,523.6z"/>
		<path class="st4" d="M111,512.9c0,0-13.4,21.1-1.3,36.8C109.7,549.7,124.2,535.8,111,512.9z"/>
		<path class="st1" d="M113.8,556c0,0,19.1,29.9,21,113.4"/>
		<path class="st1" d="M104.8,583.4c0,0,17.3,3.7,23.8,19.8"/>
		<path class="st1" d="M93.9,567.4c0,0,21.3,3.2,33.2,28.1"/>
		<path class="st1" d="M81.1,551.5c0,0,32.8,4.4,43,31.8"/>
		<path class="st1" d="M154.5,560.8c0,0-17.3,21.5-23.4,57.7"/>
		<path class="st4" d="M91.1,538.3c0,0,5.8,20.1,22.8,17.7C113.8,556,111.6,538.1,91.1,538.3z"/>
		<path class="st4" d="M117.8,527.5c0,0-15.9,15.4-4,28.5C113.8,556,126.8,548.1,117.8,527.5z"/>
	</g>
	<g>
		<path class="st0" d="M341.7,698.4c0,0,5.3-7.4-2.5-15.3c-7.8-7.9-3.1-6.9-6.8-12.4s-6.8-1.7-10.5-5.6c-3.7-3.9-7.1-5.3-11.9-1.4
			c-4.8,3.9-5.2,2.7-7.8,3.2s-2,3.7-4.5,4.7c-2.5,1-3.5-3.9-10.2-1.9c-6.7,2-14.7,21.8,4.9,36.7S333.1,717.8,341.7,698.4z"/>
		<g>
			<path class="st2" d="M242.9,692.2c0,0-24.9-8.2-35.6-6.2c-6.1,1.1-6,4.1-12.2,3.8s-12.4-0.2-13.9,6.5c-1.1,4.8-2.6,6.4,0,10.5
				c2.6,4.1,11.4,3.9,11.7,7.7c0.2,3.2-3.2,4.8-3.6,7.8c-0.4,3,2.5,3.9,2.1,7.5c-0.3,3.6-5.2,6.6-2.4,12.6c2.8,5.9,8,8.4,11.3,5.9
				c3.4-2.5,6.6-6.5,12.7-5.8s9.5-2.8,9.8-7.7s7.3-5.7,8.6-0.8c1.3,4.9-0.8,10.4,5.7,10.8c6.5,0.3,7-3.8,11.8-1.8s6.5-1.5,8.5-3.4
				c3.4-3.1,8-0.8,9.6-9.7S268.7,698.3,242.9,692.2z"/>
			<path class="st1" d="M201.7,727.3c0,0,9.2-26,61.4-21.7"/>
		</g>
		<g>
			<path class="st2" d="M343.1,706.3c0,0-2.8,9.5,2.5,15.3c5.3,5.8,11.9,3.5,16.7,10.9c4.8,7.4,6.1,9.3,13.5,10.6
				c7.5,1.3,4.2,7.8,11.6,9.7c7.4,1.9,11.9-9.6,9.4-16.4s1.4-6.8,4.8-5.1c3.4,1.8,5,2,7.6-1.1c2.5-3.1,4.1,1,9.2-0.5
				s2.3-3.9,6.5-6.1c4.2-2.1,6.5-5.3,3.2-9.9c-3.3-4.6,2.8-6.2-1.5-11.3s-12.1-1.6-14.7-6.5c-2.6-5,3.2-5.7,1-10
				c-2.3-4.3-9.5-4-11.3-7.4c-1.8-3.4,0.5-4.6-3.2-7.2s-9.6,0.8-12.9,6.5c-3.2,5.7-17.6,27-26.2,23.8
				C350.8,698.4,343.8,701.9,343.1,706.3z"/>
			<path class="st1" d="M405.6,716.7c0,0-26-16.5-53.4-10.8"/>
		</g>
		<g>
			<path class="st5" d="M348.5,647.5c4.1-2.1,11.3-4.4,18.3-0.2c9.3,5.7,13.9,0.7,22.2,8.2c11.7,10.7,8.8,41-8.5,42.3
				c-16.5,1.3-13.8,5.2-23.9,5.3c-10.2,0.1-8.8-4.5-21.9-4.2c-14.9,0.4-25-29-9.5-43.7C334.4,646.5,342.8,650.4,348.5,647.5z"/>
			<path class="st0" d="M362.2,651c0,0-3.2,4.9-8.8,0.9c0,0,2.9-2.5,1.7-8.2c-0.9-4.2-3.4-5.8-6.2-5.4c-3,0.4-3.7-2.3-1.3-3.3
				c3.4-1.3,8,0.1,10.2,4.7C359.5,643.7,357.5,648.3,362.2,651z"/>
			<path class="st1" d="M341.5,663.1c-4.7,6-5.2,19-0.2,26"/>
			<path class="st1" d="M371.9,663.1c2.5,4.9,4.4,17.7-0.6,25.4"/>
			<path class="st2" d="M346.7,677c2.2-0.3,2,5.6,0,5.6C344.6,682.7,345,677.2,346.7,677z"/>
			<path class="st2" d="M362.7,688.7c1.5,0.1,1,4.1-0.6,3.7C360.5,692.1,361.2,688.6,362.7,688.7z"/>
			<path class="st2" d="M386.3,670.7c1.2,0.1,1.4,2.5,1.4,5.3c0,3.2-1,6.2-2.2,5.8c-1.3-0.3-1.4-2.7-1.3-5.7
				C384.4,673,384.8,670.5,386.3,670.7z"/>
			<path class="st2" d="M351.4,656.9c1.7,1.1,0.6,3.7-1.4,8.2c-1.8,3.9-0.7,8.6-2.5,8.8s-2.4-6-1.7-10.2S349.7,655.7,351.4,656.9z"
				/>
			<path class="st2" d="M329.5,674.5c1.2-0.8,0.7-4.3-0.9-5.6C328.6,668.9,326.1,673,329.5,674.5z"/>
			<circle class="st2" cx="360.9" cy="658.3" r="1.1"/>
			<path class="st2" d="M362.5,665.4c2.8-0.4,7.5,18.3,1.9,19.9c-0.8,0.2-2.1-0.6-1.4-3.8C364.8,673.8,359.5,665.8,362.5,665.4z"/>
			<path class="st2" d="M370,654.5c0.2-2.3,7.2-2.8,12.5,2c4.3,3.9,5.2,10,2.8,10c-1.9,0-2.6-6.6-7.3-8.8
				C373.2,655.5,369.8,656.8,370,654.5z"/>
			<path class="st2" d="M343.5,653.8c0.5,1.7-3.1,1.1-6.7,4.4c-3.1,2.8-4.6,6.2-5.7,5.2c-1.3-1.2,0.2-4.5,3.2-7.2
				C336.8,653.8,342.9,651.6,343.5,653.8z"/>
		</g>
		<g>
			<path class="st5" d="M249.1,649.4c5.2-1.8,14.2-3.5,21.8,2.7c10.2,8.3,16.5,3.1,25.1,13.3c12.3,14.6,3.9,50.3-17,49.1
				c-19.9-1.2-17.3,3.9-29.4,2.4c-12.1-1.5-9.7-6.8-25.4-8.5c-17.8-1.9-25.2-38.6-4.2-53.6C232.3,646,241.8,652,249.1,649.4z"/>
			<path class="st0" d="M255.1,654c0,0,2.6,6.6,10.2,3.2c0,0-2.8-3.7,0.1-10c2.1-4.7,5.4-5.9,8.7-4.8c3.4,1.2,4.9-1.8,2.3-3.6
				c-3.6-2.4-9.4-1.9-13.1,3.1C260.1,646.1,261.4,652.1,255.1,654z"/>
			<path class="st1" d="M238.2,666.8c-6.5,6.4-9.3,21.9-4.4,31"/>
			<path class="st1" d="M274.4,671.7c2.2,6.3,2.4,21.8-4.8,30.1"/>
			<path class="st2" d="M242.1,684.3c2.7,0,1.4,7-1,6.7S240,684.3,242.1,684.3z"/>
			<path class="st2" d="M259.3,700.8c1.8,0.4,0.6,5-1.3,4.3S257.5,700.4,259.3,700.8z"/>
			<path class="st2" d="M290.4,683.1c1.5,0.3,1.2,3.1,0.8,6.6c-0.5,3.8-2.2,7.2-3.6,6.6c-1.5-0.6-1.2-3.4-0.6-7.1
				C287.7,685.6,288.6,682.7,290.4,683.1z"/>
			<path class="st2" d="M251,661c1.8,1.6,0.2,4.6-3,9.5c-2.8,4.4-2.2,10.2-4.4,10.1c-2.2-0.1-1.9-7.6-0.4-12.5
				C244.8,663.2,249.1,659.4,251,661z"/>
			<path class="st2" d="M222,678.5c1.6-0.8,1.5-5-0.2-6.8C221.8,671.7,218.2,676.2,222,678.5z"/>
			<circle class="st2" cx="262.1" cy="664.3" r="1.3"/>
			<path class="st2" d="M262.8,673c3.4,0,6.1,23-0.9,24c-1,0.1-2.4-1.1-1-4.7C264.2,683.3,259.2,673,262.8,673z"/>
			<path class="st2" d="M273.5,661.1c0.6-2.8,9-2.2,14.5,4.4c4.5,5.3,4.5,12.8,1.8,12.3c-2.2-0.3-2-8.3-7.3-11.6
				C277.2,662.9,272.9,663.9,273.5,661.1z"/>
			<path class="st2" d="M242,656.1c0.3,2.2-3.9,0.8-8.7,4.2c-4.2,2.9-6.5,6.6-7.7,5.3c-1.4-1.6,1-5.3,5-8.1
				C234.1,655,241.6,653.3,242,656.1z"/>
		</g>
		<g>
			<path class="st5" d="M295.9,695.6c5.1-3.4,14.3-7.7,24.2-3.2c13.3,6,18.6-1.3,30.8,7.3c17.3,12.3,18.3,53-4.5,57.6
				c-21.8,4.3-17.5,9.1-30.9,10.9c-13.5,1.8-12.4-4.6-29.8-2c-19.7,3-37.9-34.4-19.6-56.5C276.9,696.6,288.8,700.4,295.9,695.6z"/>
			<path class="st0" d="M303.4,699.9c0,0,5.3,5.8,11.9-0.7c0,0-4.4-2.7-3.9-10.4c0.4-5.7,3.2-8.3,7.1-8.4c4-0.1,4.4-3.9,1-4.6
				c-4.8-1.1-10.5,1.8-12.4,8.4C305.4,689.7,309.1,695.3,303.4,699.9z"/>
			<path class="st1" d="M289,717.4c-5.2,8.7-3.9,26.1,3.9,34.6"/>
			<path class="st1" d="M329.4,712.5c4.2,6.1,8.8,22.8,3.2,33.8"/>
			<path class="st2" d="M298.2,735.1c2.9-0.8,3.5,7.2,0.9,7.5C296.4,742.9,295.9,735.7,298.2,735.1z"/>
			<path class="st2" d="M321.3,748.1c2-0.1,2.1,5.3-0.2,5S319.3,748.1,321.3,748.1z"/>
			<path class="st2" d="M349.8,720.2c1.7,0,2.2,3,2.7,6.8c0.5,4.2-0.3,8.3-2,8.1c-1.8-0.2-2.3-3.3-2.6-7.4
				C347.6,723.7,347.8,720.3,349.8,720.2z"/>
			<path class="st2" d="M301.2,707.5c2.4,1.2,1.4,4.9-0.6,11.1c-1.8,5.5,0.5,11.6-1.9,12.1c-2.4,0.5-4.2-7.6-3.9-13.3
				C295.2,711.7,298.8,706.3,301.2,707.5z"/>
			<path class="st2" d="M274.9,734.5c1.5-1.3,0.2-5.9-2.1-7.3C272.8,727.2,270.2,733.1,274.9,734.5z"/>
			<circle class="st2" cx="314.1" cy="707.9" r="1.4"/>
			<path class="st2" d="M317.3,717.1c3.7-1,13,23,5.7,26.1c-1.1,0.4-2.9-0.5-2.4-4.8C321.7,727.9,313.4,718.1,317.3,717.1z"/>
			<path class="st2" d="M325.4,701.4c-0.2-3.1,9.1-4.9,16.9,0.6c6.3,4.5,8.5,12.5,5.4,12.8c-2.5,0.2-4.5-8.3-11.1-10.5
				C329.9,702.2,325.6,704.5,325.4,701.4z"/>
			<path class="st2" d="M290.2,704.7c0.9,2.2-3.9,2-8.2,6.9c-3.7,4.3-5.2,9-6.8,7.9c-1.9-1.3-0.4-6,3.1-10.1
				C281.4,705.8,289,701.9,290.2,704.7z"/>
		</g>
	</g>
	<g>
		<g>
			<path class="st1" d="M612.4,579.7c8.7-50.8-0.7-85.7-0.7-85.7l-5.2-12.8"/>
			<polyline class="st1" points="608,499.6 611.7,494.1 602.6,493.5 			"/>
			<polyline class="st1" points="627.6,493.3 611.7,494.1 620,500.6 			"/>
			<polyline class="st1" points="620.6,480.4 611.7,494.1 614.4,491.7 			"/>
		</g>
		
			<ellipse transform="matrix(0.9286 -0.371 0.371 0.9286 -134.2034 258.7433)" class="st5" cx="605.4" cy="478.2" rx="4.7" ry="3.3"/>
		
			<ellipse transform="matrix(0.3331 -0.9429 0.9429 0.3331 -35.055 906.3347)" class="st5" cx="623.2" cy="477.9" rx="3.3" ry="4.7"/>
		
			<ellipse transform="matrix(0.5995 -0.8004 0.8004 0.5995 -154.8474 676.991)" class="st5" cx="599" cy="493.2" rx="4.7" ry="3.3"/>
		
			<ellipse transform="matrix(0.5995 -0.8004 0.8004 0.5995 -159.3467 687.3063)" class="st5" cx="607.1" cy="502.9" rx="3.3" ry="4.7"/>
		
			<ellipse transform="matrix(0.9742 -0.2257 0.2257 0.9742 -95.1822 155.1631)" class="st5" cx="631" cy="493.8" rx="3.3" ry="4.7"/>
		
			<ellipse transform="matrix(0.6474 -0.7622 0.7622 0.6474 -163.634 651.7571)" class="st5" cx="622.5" cy="502.7" rx="4.7" ry="3.3"/>
		
			<ellipse transform="matrix(0.6474 -0.7622 0.7622 0.6474 -155.4089 642.4191)" class="st5" cx="616.6" cy="489.2" rx="3.3" ry="4.7"/>
		<path class="st2" d="M603,525.5c0,0-0.4,17.9,12.9,21.3C615.9,546.8,615.3,532.7,603,525.5z"/>
	</g>
	<g>
		<g>
			<path class="st1" d="M645.6,539.3c-0.9,1-21.5,24.4-27.2,60.5"/>
			<polyline class="st1" points="637.8,531.6 644.7,540.3 646.8,521.4 			"/>
			<polyline class="st1" points="659.1,544.7 644.7,540.3 656.7,536.1 			"/>
			<polyline class="st1" points="667.9,537 644.7,540.3 665.1,526.6 			"/>
		</g>
		<g>
			
				<ellipse transform="matrix(0.686 -0.7276 0.7276 0.686 -171.9018 650.1039)" class="st2" cx="667.3" cy="524.2" rx="3.3" ry="4.6"/>
			
				<ellipse transform="matrix(0.2345 -0.9721 0.9721 0.2345 -8.02 1026.1814)" class="st2" cx="647.5" cy="518.2" rx="3.3" ry="4.6"/>
			
				<ellipse transform="matrix(0.9053 -0.4248 0.4248 0.9053 -164.7891 319.6231)" class="st2" cx="634.3" cy="529.3" rx="3.3" ry="4.6"/>
			
				<ellipse transform="matrix(0.4195 -0.9077 0.9077 0.4195 -111.4309 917.9764)" class="st2" cx="662.1" cy="546.1" rx="4.6" ry="3.3"/>
			
				<ellipse transform="matrix(1 -3.126427e-03 3.126427e-03 1 -1.6755 2.1011)" class="st2" cx="671.2" cy="537" rx="3.3" ry="4.6"/>
			
				<ellipse transform="matrix(0.59 -0.8074 0.8074 0.59 -160.7005 750.4745)" class="st2" cx="658.6" cy="533.5" rx="3.3" ry="4.6"/>
		</g>
		<path class="st2" d="M626.2,572c0,0,8.4,4.9,19.8-5.5C645.9,566.6,633.4,564,626.2,572z"/>
	</g>
	<g>
		<g>
			<path class="st1" d="M461.5,741.2c1.3-39-12.5-54.3-12.5-54.3c0.1-1.8-2.6-7.9-2.6-7.9"/>
			<polyline class="st1" points="442.9,687.9 449,686.9 456.1,684.6 			"/>
			<polyline class="st1" points="436.9,670.7 449,686.9 431.1,683.3 			"/>
			<line class="st1" x1="451.9" y1="673.6" x2="449" y2="686.9"/>
		</g>
		<g>
			<ellipse class="st2" cx="444.7" cy="676.5" rx="4.3" ry="2.7"/>
			
				<ellipse transform="matrix(0.3051 -0.9523 0.9523 0.3051 -351.2205 898.4698)" class="st2" cx="440.1" cy="689.9" rx="4.3" ry="2.7"/>
			
				<ellipse transform="matrix(0.9994 -3.560117e-02 3.560117e-02 0.9994 -24.057 15.6857)" class="st2" cx="428.4" cy="683.4" rx="2.7" ry="4.3"/>
			
				<ellipse transform="matrix(0.9502 -0.3116 0.3116 0.9502 -186.468 169.1358)" class="st2" cx="436.1" cy="668.1" rx="4.3" ry="2.7"/>
			
				<ellipse transform="matrix(0.3051 -0.9523 0.9523 0.3051 -324.4277 897.3854)" class="st2" cx="452.7" cy="671" rx="2.7" ry="4.3"/>
			<ellipse class="st2" cx="458.8" cy="684.6" rx="2.7" ry="4.3"/>
		</g>
		<path class="st0" d="M446.4,711.5c0,0,5.4,13.2,14.7,13.2C461.1,724.6,460.7,714.3,446.4,711.5z"/>
	</g>
	<g>
		<g>
			<path class="st1" d="M502.8,603.9v21.5c0,0-22.6,35.9-19.3,107.3"/>
			<polyline class="st1" points="492.7,629.7 502.8,625.5 496.4,619.6 			"/>
			<polyline class="st1" points="508.1,637 502.8,625.5 517.6,631.5 			"/>
			<polyline class="st1" points="516,611.3 502.8,625.5 510.3,620.8 			"/>
		</g>
		<g>
			<ellipse class="st2" cx="501.3" cy="600.8" rx="5.2" ry="3.1"/>
			
				<ellipse transform="matrix(0.5483 -0.8363 0.8363 0.5483 -275.6221 709.8668)" class="st2" cx="519.3" cy="610.1" rx="3.1" ry="5.2"/>
			
				<ellipse transform="matrix(6.148375e-02 -0.9981 0.9981 6.148375e-02 -141.8942 1112.5588)" class="st2" cx="520.7" cy="631.7" rx="5.2" ry="3.1"/>
			
				<ellipse transform="matrix(0.9973 -7.354628e-02 7.354628e-02 0.9973 -45.6636 39.2613)" class="st2" cx="510.3" cy="639.7" rx="5.2" ry="3.1"/>
			
				<ellipse transform="matrix(0.9088 -0.4173 0.4173 0.9088 -211.7166 270.672)" class="st2" cx="513.1" cy="619.5" rx="3.1" ry="5.2"/>
			
				<ellipse transform="matrix(0.7394 -0.6733 0.6733 0.7394 -286.0841 492.2764)" class="st2" cx="492.8" cy="615.7" rx="3.1" ry="5.2"/>
			
				<ellipse transform="matrix(0.1717 -0.9851 0.9851 0.1717 -214.2581 1003.5046)" class="st2" cx="489.7" cy="629.2" rx="5.2" ry="3.1"/>
		</g>
		<path class="st0" d="M476.1,656.3c0,0-1.2,18,9.6,25.7C485.6,682.1,488.5,665.9,476.1,656.3z"/>
		<path class="st0" d="M500.7,675c0,0-15.1,14.2-17.5,37.2C483.3,712.3,497.3,704.8,500.7,675z"/>
	</g>
	<g>
		<g>
			<path class="st12" d="M66.8,669.7c0-1.4,0.2-2.8,0.4-4.2c0.2-1.4,0.5-2.8,0.8-4.1c0.4-1.4,0.8-2.7,1.3-4c0.5-1.3,1.2-2.6,2-3.8
				c0.8-1.2,1.7-2.4,2.9-3.4c1.1-1,2.5-1.8,3.9-2.4c1.5-0.6,3-0.8,4.6-0.8c0.8,0,1.7,0.1,2.5,0.4c0.8,0.2,1.6,0.6,2.3,1
				c1.4,0.9,2.5,2.1,3.4,3.3c0.9,1.2,1.6,2.6,2.2,3.9c1.2,2.7,2,5.4,2.6,8.2c0.6,2.8,1,5.6,1.2,8.4c0.1,1.4,0.2,2.8,0.3,4.2
				c0.1,1.4,0.1,2.8,0.1,4.2H95c-0.1-2.7-0.3-5.4-0.6-8.1c-0.3-2.7-1.6-5.4-2.2-8c-0.5-2.6-1.3-5.2-2.3-7.6
				c-0.5-1.2-1.1-2.3-1.8-3.3c-0.7-1-1.5-1.9-2.4-2.5c-0.9-0.6-1.9-1-3.1-1.1c-1.2,0-2.4,0.1-3.5,0.5c-2.3,0.7-4.3,2.4-5.9,4.4
				c-1.6,2.1-2.8,4.4-3.9,6.9C68.4,664.4,67.5,667,66.8,669.7z"/>
			<path class="st12" d="M77.3,637.9c1.5-0.3,3.1-0.2,4.6,0.2c0.8,0.2,1.5,0.5,2.2,0.8c0.4,0.2,0.7,0.4,1.1,0.5
				c0.3,0.2,0.7,0.4,1,0.6c1.3,0.9,2.5,2,3.6,3.2c1,1.2,1.9,2.6,2.7,3.9c0.8,1.4,1.4,2.8,2,4.3c0.5,1.5,1,3,1.3,4.5
				c0.7,3,1.1,6.1,1.1,9.2l-3,0.2c-0.5-2.9-0.9-5.8-1.5-8.6c-0.6-2.8-1.4-5.6-2.6-8.2c-0.6-1.3-1.2-2.6-2-3.7
				c-0.8-1.2-1.7-2.2-2.7-3.2C83,639.7,80.4,638.2,77.3,637.9z"/>
			<path class="st12" d="M94.1,676.3c-0.1-1.2-0.2-2.3-0.2-3.4c0-1.1-0.1-2.3-0.1-3.4c0-2.3,0.1-4.5,0.4-6.8
				c0.2-2.3,0.6-4.5,1.2-6.8c0.6-2.2,1.4-4.5,2.7-6.6c0.7-1.1,1.5-2.1,2.6-2.9c1.1-0.8,2.3-1.5,3.7-1.7c0.7-0.1,1.4-0.2,2-0.1
				c0.6,0,1.3,0.1,1.9,0.2c1.3,0.3,2.5,0.9,3.5,1.6c0.5,0.4,1,0.8,1.4,1.3c0.4,0.5,0.8,0.9,1.1,1.5c0.7,1,1.2,2.1,1.6,3.2
				c0.4,1.1,0.7,2.2,0.8,3.4c0.1,0.6,0.2,1.1,0.2,1.7c0,0.6,0,1.1,0,1.7c-0.7-2.1-1.6-4.2-2.6-6c-1.1-1.8-2.4-3.4-4.1-4.3
				c-0.8-0.5-1.7-0.8-2.6-0.9c-0.5-0.1-0.9-0.1-1.4-0.1c-0.5,0-0.9,0-1.3,0.1c-0.8,0.2-1.6,0.6-2.2,1.2c-0.3,0.3-0.6,0.6-0.9,1
				c-0.3,0.4-0.6,0.8-0.8,1.2c-1,1.7-1.7,3.6-2.2,5.7c-0.5,2-0.9,4.2-1.1,6.3c-0.5,4.3-0.7,8.7-0.7,13L94.1,676.3z"/>
			<path class="st12" d="M109.4,675c-1.2-0.2-2.5-0.1-3.7,0.2c-1.2,0.3-2.4,0.9-3.4,1.6c-1,0.7-1.9,1.6-2.8,2.5
				c-0.8,0.9-1.5,1.9-2.2,2.9c-0.1,0.1-0.1,0.2-0.2,0.3c0,0,0,0,0-0.1l0-2c0-0.7,0-13.2,0.1-17.9c0.1-4.8,0.1-9.5-0.1-14.3
				c-0.1-2.4-0.3-4.8-0.5-7.2c-0.2-2.4-0.5-4.8-1-7.2c-0.5,2.4-0.8,4.8-1,7.2c-0.2,2.4-0.4,4.8-0.5,7.2c-0.2,4.8-0.2,9.5-0.1,14.3
				c0,0.1,0,0.1,0,0.2c-0.1-0.1-0.1-0.3-0.2-0.4c-0.8-1.3-1.8-2.5-3.1-3.4c-1.3-0.9-3-1.4-4.6-1.4c-1.5,0-3,0.2-4.4,0.7
				c-1.4,0.5-2.7,1.3-3.8,2.3c-1.1,1-2,2.1-2.7,3.4c-0.7,1.2-1.2,2.5-1.5,3.9c-0.3,1.3-0.5,2.7-0.5,4c0.5-1.2,1-2.4,1.6-3.6
				c0.6-1.1,1.3-2.2,2.1-3.2c0.8-1,1.7-1.8,2.6-2.5c1-0.7,2-1.2,3.1-1.5c1.1-0.3,2.3-0.4,3.4-0.4c1.1,0,2,0.4,2.8,1
				c1.7,1.2,2.8,3.3,3.6,5.6c0.8,2.3,1.2,4.8,1.5,7.4c0.1,1.3,0.2,2.5,0.2,3.8c0,0.5,0.1,13.9,0.1,18.3c0,0.8,0.6,1.4,1.4,1.4h0
				c0.8,0,1.4-0.6,1.4-1.4c0-1.9,0.1-4.1,0.1-4.1c0.1-0.9,0.3-2,0.6-3c0.3-1,0.6-2,1-3c0.8-2,1.7-4,2.9-5.7c0.6-0.9,1.3-1.7,2-2.4
				c0.8-0.7,1.6-1.4,2.5-1.8c0.9-0.5,2-0.8,3.1-0.8c1.1-0.1,2.2,0,3.4,0.3C111.7,675.6,110.6,675.2,109.4,675z"/>
		</g>
		<g>
			<path class="st12" d="M132.2,659.8c0-1.4,0.2-2.8,0.4-4.2c0.2-1.4,0.5-2.8,0.8-4.1c0.4-1.4,0.8-2.7,1.3-4c0.5-1.3,1.2-2.6,2-3.8
				c0.8-1.2,1.7-2.4,2.9-3.4c1.1-1,2.5-1.8,3.9-2.4c1.5-0.6,3-0.8,4.6-0.8c0.8,0,1.7,0.1,2.5,0.4c0.8,0.2,1.6,0.6,2.3,1
				c1.4,0.9,2.5,2.1,3.4,3.3c0.9,1.2,1.6,2.6,2.2,3.9c1.2,2.7,2,5.4,2.6,8.2c0.6,2.8,1,5.6,1.2,8.4c0.1,1.4,0.2,2.8,0.3,4.2
				c0.1,1.4,0.1,2.8,0.1,4.2h-2.2c-0.1-2.7-0.3-5.4-0.6-8.1c-0.3-2.7-1.6-5.4-2.2-8c-0.5-2.6-1.3-5.2-2.3-7.6
				c-0.5-1.2-1.1-2.3-1.8-3.3c-0.7-1-1.5-1.9-2.4-2.5c-0.9-0.6-1.9-1-3.1-1.1c-1.2,0-2.4,0.1-3.5,0.5c-2.3,0.7-4.3,2.4-5.9,4.4
				c-1.6,2.1-2.8,4.4-3.9,6.9C133.7,654.5,132.8,657.1,132.2,659.8z"/>
			<path class="st12" d="M142.7,627.9c1.5-0.3,3.1-0.2,4.6,0.2c0.8,0.2,1.5,0.5,2.2,0.8c0.4,0.2,0.7,0.4,1.1,0.5
				c0.3,0.2,0.7,0.4,1,0.6c1.3,0.9,2.5,2,3.6,3.2c1,1.2,1.9,2.6,2.7,3.9c0.8,1.4,1.4,2.8,2,4.3c0.5,1.5,1,3,1.3,4.5
				c0.7,3,1.1,6.1,1.1,9.2l-3,0.2c-0.5-2.9-0.9-5.8-1.5-8.6c-0.6-2.8-1.4-5.6-2.6-8.2c-0.6-1.3-1.2-2.6-2-3.7
				c-0.8-1.2-1.7-2.2-2.7-3.2C148.3,629.7,145.7,628.3,142.7,627.9z"/>
			<path class="st12" d="M159.4,666.4c-0.1-1.2-0.2-2.3-0.2-3.4c0-1.1-0.1-2.3-0.1-3.4c0-2.3,0.1-4.5,0.4-6.8
				c0.2-2.3,0.6-4.5,1.2-6.8c0.6-2.2,1.4-4.5,2.7-6.6c0.7-1.1,1.5-2.1,2.6-2.9c1.1-0.8,2.3-1.5,3.7-1.7c0.7-0.1,1.4-0.2,2-0.1
				c0.6,0,1.3,0.1,1.9,0.2c1.3,0.3,2.5,0.9,3.5,1.6c0.5,0.4,1,0.8,1.4,1.3c0.4,0.5,0.8,0.9,1.1,1.5c0.7,1,1.2,2.1,1.6,3.2
				c0.4,1.1,0.7,2.2,0.8,3.4c0.1,0.6,0.2,1.1,0.2,1.7c0,0.6,0,1.1,0,1.7c-0.7-2.1-1.6-4.2-2.6-6c-1.1-1.8-2.4-3.4-4.1-4.3
				c-0.8-0.5-1.7-0.8-2.6-0.9c-0.5-0.1-0.9-0.1-1.4-0.1c-0.5,0-0.9,0-1.3,0.1c-0.8,0.2-1.6,0.6-2.2,1.2c-0.3,0.3-0.6,0.6-0.9,1
				c-0.3,0.4-0.6,0.8-0.8,1.2c-1,1.7-1.7,3.6-2.2,5.7c-0.5,2-0.9,4.2-1.1,6.3c-0.5,4.3-0.7,8.7-0.7,13L159.4,666.4z"/>
			<path class="st12" d="M174.7,665.1c-1.2-0.2-2.5-0.1-3.7,0.2c-1.2,0.3-2.4,0.9-3.4,1.6c-1,0.7-1.9,1.6-2.8,2.5
				c-0.8,0.9-1.5,1.9-2.2,2.9c-0.1,0.1-0.1,0.2-0.2,0.3c0,0,0,0,0-0.1l0-2c0-0.7,0-13.2,0.1-17.9c0.1-4.8,0.1-9.5-0.1-14.3
				c-0.1-2.4-0.3-4.8-0.5-7.2c-0.2-2.4-0.5-4.8-1-7.2c-0.5,2.4-0.8,4.8-1,7.2c-0.2,2.4-0.4,4.8-0.5,7.2c-0.2,4.8-0.2,9.5-0.1,14.3
				c0,0.1,0,0.1,0,0.2c-0.1-0.1-0.1-0.3-0.2-0.4c-0.8-1.3-1.8-2.5-3.1-3.4c-1.3-0.9-3-1.4-4.6-1.4c-1.5,0-3,0.2-4.4,0.7
				c-1.4,0.5-2.7,1.3-3.8,2.3c-1.1,1-2,2.1-2.7,3.4c-0.7,1.2-1.2,2.5-1.5,3.9c-0.3,1.3-0.5,2.7-0.5,4c0.5-1.2,1-2.4,1.6-3.6
				c0.6-1.1,1.3-2.2,2.1-3.2c0.8-1,1.7-1.8,2.6-2.5c1-0.7,2-1.2,3.1-1.5c1.1-0.3,2.3-0.4,3.4-0.4c1.1,0,2,0.4,2.8,1
				c1.7,1.2,2.8,3.3,3.6,5.6c0.8,2.3,1.2,4.8,1.5,7.4c0.1,1.3,0.2,2.5,0.2,3.8c0,0.5,0.1,13.9,0.1,18.3c0,0.8,0.6,1.4,1.4,1.4h0
				c0.8,0,1.4-0.6,1.4-1.4c0-1.9,0.1-4.1,0.1-4.1c0.1-0.9,0.3-2,0.6-3c0.3-1,0.6-2,1-3c0.8-2,1.7-4,2.9-5.7c0.6-0.9,1.3-1.7,2-2.4
				c0.8-0.7,1.6-1.4,2.5-1.8c0.9-0.5,2-0.8,3.1-0.8c1.1-0.1,2.2,0,3.4,0.3C177,665.7,175.9,665.3,174.7,665.1z"/>
		</g>
		<g>
			<path class="st12" d="M114.8,700.2c0-1.4,0.2-2.8,0.4-4.2c0.2-1.4,0.5-2.8,0.8-4.1c0.4-1.4,0.8-2.7,1.3-4c0.5-1.3,1.2-2.6,2-3.8
				c0.8-1.2,1.7-2.4,2.9-3.4c1.1-1,2.5-1.8,3.9-2.4c1.5-0.6,3-0.8,4.6-0.8c0.8,0,1.7,0.1,2.5,0.4c0.8,0.2,1.6,0.6,2.3,1
				c1.4,0.9,2.5,2.1,3.4,3.3c0.9,1.2,1.6,2.6,2.2,3.9c1.2,2.7,2,5.4,2.6,8.2c0.6,2.8,1,5.6,1.2,8.4c0.1,1.4,0.2,2.8,0.3,4.2
				c0.1,1.4,0.1,2.8,0.1,4.2H143c-0.1-2.7-0.3-5.4-0.6-8.1c-0.3-2.7-1.6-5.4-2.2-8c-0.5-2.6-1.3-5.2-2.3-7.6
				c-0.5-1.2-1.1-2.3-1.8-3.3c-0.7-1-1.5-1.9-2.4-2.5c-0.9-0.6-1.9-1-3.1-1.1c-1.2,0-2.4,0.1-3.5,0.5c-2.3,0.7-4.3,2.4-5.9,4.4
				c-1.6,2.1-2.8,4.4-3.9,6.9C116.3,694.9,115.5,697.5,114.8,700.2z"/>
			<path class="st12" d="M125.3,668.4c1.5-0.3,3.1-0.2,4.6,0.2c0.8,0.2,1.5,0.5,2.2,0.8c0.4,0.2,0.7,0.4,1.1,0.5
				c0.3,0.2,0.7,0.4,1,0.6c1.3,0.9,2.5,2,3.6,3.2c1,1.2,1.9,2.6,2.7,3.9c0.8,1.4,1.4,2.8,2,4.3c0.5,1.5,1,3,1.3,4.5
				c0.7,3,1.1,6.1,1.1,9.2l-3,0.2c-0.5-2.9-0.9-5.8-1.5-8.6c-0.6-2.8-1.4-5.6-2.6-8.2c-0.6-1.3-1.2-2.6-2-3.7
				c-0.8-1.2-1.7-2.2-2.7-3.2C131,670.2,128.3,668.7,125.3,668.4z"/>
			<path class="st12" d="M142.1,706.8c-0.1-1.2-0.2-2.3-0.2-3.4c0-1.1-0.1-2.3-0.1-3.4c0-2.3,0.1-4.5,0.4-6.8
				c0.2-2.3,0.6-4.5,1.2-6.8c0.6-2.2,1.4-4.5,2.7-6.6c0.7-1.1,1.5-2.1,2.6-2.9c1.1-0.8,2.3-1.5,3.7-1.7c0.7-0.1,1.4-0.2,2-0.1
				c0.6,0,1.3,0.1,1.9,0.2c1.3,0.3,2.5,0.9,3.5,1.6c0.5,0.4,1,0.8,1.4,1.3c0.4,0.5,0.8,0.9,1.1,1.5c0.7,1,1.2,2.1,1.6,3.2
				c0.4,1.1,0.7,2.2,0.8,3.4c0.1,0.6,0.2,1.1,0.2,1.7c0,0.6,0,1.1,0,1.7c-0.7-2.1-1.6-4.2-2.6-6c-1.1-1.8-2.4-3.4-4.1-4.3
				c-0.8-0.5-1.7-0.8-2.6-0.9c-0.5-0.1-0.9-0.1-1.4-0.1c-0.5,0-0.9,0-1.3,0.1c-0.8,0.2-1.6,0.6-2.2,1.2c-0.3,0.3-0.6,0.6-0.9,1
				c-0.3,0.4-0.6,0.8-0.8,1.2c-1,1.7-1.7,3.6-2.2,5.7c-0.5,2-0.9,4.2-1.1,6.3c-0.5,4.3-0.7,8.7-0.7,13L142.1,706.8z"/>
			<path class="st12" d="M157.4,705.5c-1.2-0.2-2.5-0.1-3.7,0.2c-1.2,0.3-2.4,0.9-3.4,1.6c-1,0.7-1.9,1.6-2.8,2.5
				c-0.8,0.9-1.5,1.9-2.2,2.9c-0.1,0.1-0.1,0.2-0.2,0.3c0,0,0,0,0-0.1l0-2c0-0.7,0-13.2,0.1-17.9c0.1-4.8,0.1-9.5-0.1-14.3
				c-0.1-2.4-0.3-4.8-0.5-7.2c-0.2-2.4-0.5-4.8-1-7.2c-0.5,2.4-0.8,4.8-1,7.2c-0.2,2.4-0.4,4.8-0.5,7.2c-0.2,4.8-0.2,9.5-0.1,14.3
				c0,0.1,0,0.1,0,0.2c-0.1-0.1-0.1-0.3-0.2-0.4c-0.8-1.3-1.8-2.5-3.1-3.4c-1.3-0.9-3-1.4-4.6-1.4c-1.5,0-3,0.2-4.4,0.7
				c-1.4,0.5-2.7,1.3-3.8,2.3c-1.1,1-2,2.1-2.7,3.4c-0.7,1.2-1.2,2.5-1.5,3.9c-0.3,1.3-0.5,2.7-0.5,4c0.5-1.2,1-2.4,1.6-3.6
				c0.6-1.1,1.3-2.2,2.1-3.2c0.8-1,1.7-1.8,2.6-2.5c1-0.7,2-1.2,3.1-1.5c1.1-0.3,2.3-0.4,3.4-0.4c1.1,0,2,0.4,2.8,1
				c1.7,1.2,2.8,3.3,3.6,5.6c0.8,2.3,1.2,4.8,1.5,7.4c0.1,1.3,0.2,2.5,0.2,3.8c0,0.5,0.1,13.9,0.1,18.3c0,0.8,0.6,1.4,1.4,1.4l0,0
				c0.8,0,1.4-0.6,1.4-1.4c0-1.9,0.1-4.1,0.1-4.1c0.1-0.9,0.3-2,0.6-3c0.3-1,0.6-2,1-3c0.8-2,1.7-4,2.9-5.7c0.6-0.9,1.3-1.7,2-2.4
				c0.8-0.7,1.6-1.4,2.5-1.8c0.9-0.5,2-0.8,3.1-0.8c1.1-0.1,2.2,0,3.4,0.3C159.7,706.1,158.5,705.7,157.4,705.5z"/>
		</g>
	</g>
	<g class="st6">
		<g>
			<path class="st3" d="M581.2,354.2c0,0-9.1,0.6-10.9,12.8C570.4,367,579.7,367,581.2,354.2z"/>
			<path class="st3" d="M584.7,362.8c0,0-13.8-2.8-17.8,10.1C566.9,372.9,577,375.8,584.7,362.8z"/>
			<path class="st3" d="M573.1,354.2c0,0-14.2,9.2-12.3,24.2C560.8,378.4,573.6,376.8,573.1,354.2z"/>
			<path class="st3" d="M578.4,372.3c0,0-15.7-3.6-24,13.1C554.4,385.4,569.7,390.4,578.4,372.3z"/>
			<path class="st3" d="M561.7,361.9c0,0-13.6,10.7-10.3,27.1C551.4,389,566.9,386.3,561.7,361.9z"/>
			<path class="st3" d="M570.4,384.9c0,0-22-5.6-23.8,9.6C546.5,394.6,560.4,399.8,570.4,384.9z"/>
			<path class="st3" d="M550.5,368.8c0,0-9.6,12.2-4,25.8C546.5,394.6,561.1,386.6,550.5,368.8z"/>
		</g>
		<path class="st1" d="M546.5,394.6c0,0-25.4,14.7-37.1,76"/>
		<path class="st1" d="M530.4,386c0,0,0.7,17.4-5.5,36.4"/>
		<path class="st1" d="M565.4,411.4c0,0-29.4,1.8-42.2,14.4"/>
		<path class="st1" d="M585.4,404.2c0,0-33.5-4.3-58.6,14.3"/>
		<path class="st1" d="M599.2,389c0,0-47.7,0.9-69.7,24.9"/>
	</g>
	<g class="st6">
		<path class="st3" d="M649.4,398.5c0,0-6.5,13.5-16.8,12.2C632.6,410.6,634.8,398.9,649.4,398.5z"/>
		<path class="st3" d="M646.3,409.3c0,0-14.2,15-28.1,8.6C618.2,417.9,628.2,403.4,646.3,409.3z"/>
		<path class="st3" d="M638.3,397.4c0,0-0.9,16.8-18.3,23.5C620,420.9,621.3,403.5,638.3,397.4z"/>
		<path class="st3" d="M638,419.5c0,0-13.6,19.2-31.1,9.8C606.9,429.4,615.9,411.4,638,419.5z"/>
		<path class="st3" d="M628.8,400c0,0-1.4,24.5-20,30.2C608.8,430.2,605.2,410.8,628.8,400z"/>
		<path class="st1" d="M601.9,432.8c0,0-32.4,13-81.8,78.8"/>
		<path class="st1" d="M593.4,460c0,0-16-7-30.4,2.2"/>
		<path class="st1" d="M611.3,453.5c0,0-18.9-9.6-42.7,3.5"/>
		<path class="st1" d="M630.7,448.1c0,0-28.8-15.2-52.7,0.8"/>
		<path class="st1" d="M566.5,413.4c0,0,1.5,27.1-14.4,59.7"/>
		<path class="st3" d="M630.2,431.8c0,0-16.2,12.8-28.4,1.1C601.9,432.8,613.9,419.9,630.2,431.8z"/>
		<path class="st3" d="M615,407.7c0,0,3.9,21.5-13.2,25.1C601.9,432.8,596,419.1,615,407.7z"/>
	</g>
	<g>
		<g>
			<path class="st1" d="M444.4,270.2l12.7,6.8c0,0-27.7,42.1-27,112"/>
			<polyline class="st1" points="462.5,262.2 457.1,277 449.8,254.4 			"/>
			<path class="st1" d="M472.9,277c0,0.1-15.8,0-15.8,0l22.3-14.9"/>
			<polyline class="st1" points="465.9,290 457.1,277 464.5,248.2 			"/>
		</g>
		<g>
			<ellipse class="st2" cx="462.5" cy="258.8" rx="5.4" ry="3.4"/>
			
				<ellipse transform="matrix(0.9973 -7.346931e-02 7.346931e-02 0.9973 -17.2079 33.7055)" class="st2" cx="449.5" cy="250.8" rx="5.8" ry="3.7"/>
			
				<ellipse transform="matrix(0.8125 -0.583 0.583 0.8125 -74.0871 307.0533)" class="st2" cx="440.3" cy="268.7" rx="3.4" ry="5.4"/>
			
				<ellipse transform="matrix(0.9876 -0.1571 0.1571 0.9876 -37.7814 78.2868)" class="st2" cx="476.3" cy="278.1" rx="3.4" ry="5.4"/>
			<ellipse transform="matrix(0.5 -0.866 0.866 0.5 -18.2132 551.8694)" class="st2" cx="468.8" cy="291.7" rx="5.4" ry="3.4"/>
			
				<ellipse transform="matrix(0.961 -0.2764 0.2764 0.961 -53.3891 143.6086)" class="st2" cx="482.7" cy="261.2" rx="3.4" ry="5.4"/>
			
				<ellipse transform="matrix(0.2758 -0.9612 0.9612 0.2758 101.6451 625.4998)" class="st2" cx="465.9" cy="245.3" rx="3.4" ry="5.4"/>
		</g>
		<path class="st0" d="M419.3,338.4c0,0-2.4,29.2,11.2,33.5C430.5,371.9,432.3,357,419.3,338.4z"/>
	</g>
	<g>
		<g>
			<path class="st1" d="M446.7,398.6c0,0,18.4-82.4,83.7-129.9l10.3-22.3"/>
			<polyline class="st1" points="527.4,257.1 530.4,268.7 541.2,266.2 			"/>
			<polyline class="st1" points="547.4,279.6 530.4,268.7 533.8,279.1 			"/>
			<line class="st1" x1="554.9" y1="262" x2="530.4" y2="268.7"/>
		</g>
		<g>
			
				<ellipse transform="matrix(0.7821 -0.6231 0.6231 0.7821 -45.7622 396.6157)" class="st2" cx="544.3" cy="263.7" rx="3.9" ry="6.8"/>
			
				<ellipse transform="matrix(0.7071 -0.7071 0.7071 0.7071 -13.1379 455.6631)" class="st2" cx="543.5" cy="243.7" rx="3.9" ry="6.8"/>
			
				<ellipse transform="matrix(0.9955 -9.454229e-02 9.454229e-02 0.9955 -21.4551 50.723)" class="st2" cx="524.6" cy="251.8" rx="3.9" ry="6.8"/>
			
				<ellipse transform="matrix(0.9751 -0.2216 0.2216 0.9751 -43.9858 130.2962)" class="st2" cx="558.7" cy="261.2" rx="3.9" ry="6.8"/>
			
				<ellipse transform="matrix(0.1605 -0.987 0.987 0.1605 182.5736 780.9225)" class="st2" cx="550.4" cy="283.1" rx="6.8" ry="3.9"/>
			<ellipse transform="matrix(0.5 -0.866 0.866 0.5 21.7166 605.2083)" class="st2" cx="535" cy="283.8" rx="6.8" ry="3.9"/>
		</g>
		<path class="st4" d="M489,284.9c0,0-13.4,18.7-13.6,45.5C475.4,330.3,488.6,304.8,489,284.9z"/>
		<path class="st4" d="M461.5,356.9c3.1-5.6,11.5-17.8,28.3-27.2C489.8,329.6,480.2,351.5,461.5,356.9z"/>
	</g>
	<g>
		<g>
			<path class="st1" d="M386.5,351.4c0,0,13.9,19.7,13.9,56.1"/>
			<polyline class="st1" points="388.5,372 394.5,368.5 400.4,367.6 			"/>
			<path class="st1" d="M395.8,356.6c-0.1,0-1.3,11.9-1.3,11.9l-10.3-5.7"/>
			<line class="st1" x1="404.4" y1="356.6" x2="394.5" y2="368.5"/>
		</g>
		<g>
			<path class="st3" d="M399.1,353.1c0.2,1.7-1.6,3.3-4.1,3.7c-2.5,0.4-4.8-0.6-5-2.3c-0.2-1.7,1.6-3.3,4.1-3.7
				C396.6,350.4,398.8,351.5,399.1,353.1z"/>
			
				<ellipse transform="matrix(0.744 -0.6682 0.6682 0.744 -144.4819 347.3958)" class="st3" cx="381.1" cy="362.2" rx="4.3" ry="2.8"/>
			<path class="st3" d="M406.6,365.4c-0.2,1.7-2.4,2.8-5,2.5s-4.5-1.9-4.3-3.5s2.4-2.8,4.9-2.5S406.7,363.7,406.6,365.4z"/>
			
				<ellipse transform="matrix(0.9781 -0.2083 0.2083 0.9781 -65.1129 92.6288)" class="st3" cx="407.2" cy="355.4" rx="3" ry="4.6"/>
			
				<ellipse transform="matrix(0.8916 -0.4528 0.4528 0.8916 -116.2778 212.2999)" class="st3" cx="385.3" cy="349" rx="4.3" ry="2.7"/>
			<ellipse transform="matrix(0.866 -0.5 0.5 0.866 -134.6147 242.7772)" class="st3" cx="385.7" cy="372.6" rx="2.7" ry="4.2"/>
		</g>
		<path class="st0" d="M392,388.3c0,0,1.1,9.6,8,11.8C400,400.1,399,391.5,392,388.3z"/>
	</g>
	<g>
		<g>
			
				<ellipse transform="matrix(0.7071 -0.7071 0.7071 0.7071 -259.1766 168.7817)" class="st2" cx="74.1" cy="397.2" rx="5.6" ry="3.8"/>
			
				<ellipse transform="matrix(0.1761 -0.9844 0.9844 0.1761 -341.4084 421.584)" class="st2" cx="81.2" cy="414.8" rx="5.6" ry="3.8"/>
			
				<ellipse transform="matrix(0.9989 -4.584853e-02 4.584853e-02 0.9989 -19.5485 3.727)" class="st2" cx="71.5" cy="428" rx="3.8" ry="5.6"/>
			
				<ellipse transform="matrix(0.8161 -0.5779 0.5779 0.8161 -218.2949 137.6736)" class="st2" cx="107.2" cy="411.8" rx="3.8" ry="5.6"/>
			
				<ellipse transform="matrix(0.1761 -0.9844 0.9844 0.1761 -310.3832 423.6373)" class="st2" cx="97.9" cy="397.2" rx="3.3" ry="4.9"/>
			<ellipse transform="matrix(0.866 -0.5 0.5 0.866 -203.9183 100.908)" class="st2" cx="86.3" cy="431" rx="4.8" ry="3.2"/>
		</g>
		<path class="st1" d="M77.8,398.7c0,0,10.8,6.8,15.5,16c0,0,26.8,29.9,27.5,81.7"/>
		<polyline class="st1" points="97.3,400.5 93.3,414.8 103.5,412.9 		"/>
		<polyline class="st1" points="88.3,427.3 93.3,414.8 75.2,427.8 		"/>
		<line class="st1" x1="85" y1="414" x2="93.3" y2="414.8"/>
		<path class="st0" d="M94.6,446.2c0,0,6.1,20.2,23.2,22.6C117.9,468.8,114.1,451.8,94.6,446.2z"/>
	</g>
	<g>
		<g>
			<path class="st1" d="M409.6,534.7c-0.1,3.9-0.1,7.9,0.2,11.7"/>
			<path class="st1" d="M433.2,451.4c0,0-17.3,28.6-21.7,64.4"/>
			<g>
				<path class="st3" d="M449.8,429c0,0-0.5,6.1-5.4,6.9C444.5,435.9,444.2,431,449.8,429z"/>
				<path class="st3" d="M449.9,434c0,0-2.2,5.3-9.3,5.7C440.6,439.6,442.3,432.5,449.9,434z"/>
				<path class="st3" d="M445.5,429.6c0,0,1.4,9.3-3.4,11.2C442.1,440.8,439.5,434.8,445.5,429.6z"/>
				<path class="st3" d="M448.8,437.7c0,0-2.6,8.6-11.9,9.2C436.8,446.8,437.7,437.3,448.8,437.7z"/>
				<path class="st3" d="M442.1,433.2c0,0-7.3,3.4-4.6,13.9C437.5,447.2,445,445.1,442.1,433.2z"/>
				<path class="st3" d="M437.1,437.5c0,0,3.7,10.1-3.1,14C434,451.5,430.2,444.8,437.1,437.5z"/>
				<path class="st3" d="M446.7,443.8c0,0-4.2,8.8-13.5,7.8C433.2,451.6,434,442.9,446.7,443.8z"/>
			</g>
		</g>
		<path class="st1" d="M458.6,445.8c0,0-22.1,8-37.1,30.9"/>
		<path class="st1" d="M419,483.6c0,0,16.3-22.6,43.4-33.2"/>
	</g>
	<g>
		<g>
			<path class="st3" d="M458,452.8c0,0-6.5,1.8-6.8,6.4C451.2,459.1,456.6,459.1,458,452.8z"/>
			<path class="st3" d="M453,453.2c0,0-7.8,5-6.2,11.7C446.8,464.9,454.1,461.7,453,453.2z"/>
			<path class="st3" d="M457.5,457.7c0,0-7.5-1-11.9,6.1C445.6,463.8,453.4,464.7,457.5,457.7z"/>
			<path class="st3" d="M447.7,456c0,0-9.6,4.4-7,12.9C440.8,468.9,449.5,466.4,447.7,456z"/>
			<path class="st3" d="M455.6,461.7c0,0-10.9-1.5-15,6.3C440.6,468,448.8,471.2,455.6,461.7z"/>
			<path class="st3" d="M441.7,458.4c0,0-7,6.1-2.9,12.4C438.8,470.8,445.6,466.6,441.7,458.4z"/>
			<path class="st3" d="M451,467.1c0,0-9.2-3.5-12.2,3.7C438.8,470.8,444.4,474.6,451,467.1z"/>
		</g>
		<path class="st1" d="M412.2,534.2c-0.1,4.8,0.3,9.8,1.1,15.1"/>
		<path class="st1" d="M438.8,470.8c0,0-17.8,16-24.3,43.9"/>
		<path class="st1" d="M461.4,474.2c0,0-30,9.8-43.8,30.3"/>
		<path class="st1" d="M457.5,469c0,0-22.8,8.3-37.3,29"/>
	</g>
	<g>
		<g>
			<path class="st0" d="M630.1,618.4c0,0-5.8,11.2-2.5,24.8c0,0-6.9,4.3-5.8,12.7s-0.7,15.2-10.5,18c-9.7,2.8-13.6,5.4-15.5,9.9
				c0,0,3.5-8.4,1-17.2c-2.4-8.9-0.4-14.4,6.4-18.8c6.8-4.5,2.3-15.4,2.3-15.4S622.5,629.9,630.1,618.4z"/>
			<path class="st1" d="M620.8,633.2c0,0-12.8,18.6-24.9,50.6"/>
		</g>
		<g>
			<g>
				<path class="st8" d="M540.8,591c0,0,6.9,14.2,0.6,22.8c0,0,11.9,10.2,7.9,29.5c0,0,7.6,2.6,7.4,17.6
					c-0.1,10.7,12.1,15.3,15.5,22.2c-1-11.9,5.7-18.1,1.4-27c-3.5-7.4-3.4-13.9-2.7-19.2c0,0-14.6-12-10.8-29.7
					C560.1,607.1,546.5,604.1,540.8,591z"/>
				<path class="st1" d="M549.4,609.7c0,0,15.6,24.1,22.8,73.3"/>
			</g>
			<g>
				<path class="st5" d="M583.5,566.9c0,0,2,11.5-10.8,23.2c0,0,9.9,17-2.2,28.3c0,0,8.7,8,3.7,19.8c-4.1,9.6-6.7,21.2-3.1,28.2
					c4,7.7,6.4,12,5.7,17.6c0,0-0.3-6,10.1-13.3c10.4-7.3,5.3-21.1,4.8-30.9c-0.4-8.8,1.2-15.7,7.6-20.5c0,0-14.1-12.6-4.7-28
					C594.4,591.4,585.3,582.6,583.5,566.9z"/>
				<path class="st1" d="M585.1,595.5c0,0,5.4,33.8-8.4,88.5"/>
			</g>
		</g>
		<g>
			<path class="st8" d="M581.3,686.1c5.8-10.8-4.7-28.6,4.7-38.2c9.4-9.6,4-22.3,4-22.3c20.9-10.3,10.8-28.9,10.8-28.9
				c12.6-1.3,14.1-14.9,14.1-14.9s-1.5,13.8,4.4,20.3c0,0-12.6,13.8-3.9,28.2c0,0-12.9,8.4-11.7,22.5
				C605.4,672.2,589.8,675.5,581.3,686.1z"/>
			<path class="st1" d="M607.9,611.1c0,15.2-12.9,40.5-26.6,75"/>
		</g>
	</g>
</g>
</svg>
