<?xml version="1.0" encoding="utf-8"?>
<!-- Generator: Adobe Illustrator 22.1.0, SVG Export Plug-In . SVG Version: 6.00 Build 0)  -->
<svg version="1.1" id="圖層_1" xmlns="http://www.w3.org/2000/svg" xmlns:xlink="http://www.w3.org/1999/xlink" x="0px" y="0px"
	 viewBox="0 0 609.6 970.8" style="enable-background:new 0 0 609.6 970.8;" xml:space="preserve">
<style type="text/css">
	.st0{fill:#58AD5D;stroke:#000000;stroke-width:0.4188;stroke-miterlimit:10;}
	.st1{fill:#FFE6C7;stroke:#000000;stroke-width:0.4188;stroke-miterlimit:10;}
	.st2{fill:#FFAA85;stroke:#000000;stroke-width:0.4188;stroke-miterlimit:10;}
	.st3{fill:none;stroke:#231815;stroke-width:0.4188;stroke-miterlimit:10;}
	.st4{fill:#D6CD25;stroke:#000000;stroke-width:0.4188;stroke-miterlimit:10;}
	.st5{fill:#1789A0;stroke:#000000;stroke-width:0.4188;stroke-linecap:round;stroke-linejoin:round;stroke-miterlimit:10;}
	.st6{fill:#1789A0;stroke:#000000;stroke-width:0.4188;stroke-miterlimit:10;}
	.st7{fill:#FFAA85;stroke:#000000;stroke-width:0.2984;stroke-miterlimit:10;}
	.st8{fill:none;stroke:#231815;stroke-width:0.2984;stroke-miterlimit:10;}
	.st9{fill:#1789A0;stroke:#000000;stroke-width:0.4188;stroke-linejoin:round;stroke-miterlimit:10;}
	.st10{fill:#FFFFFF;stroke:#000000;stroke-width:0.4188;stroke-linejoin:round;stroke-miterlimit:10;}
	.st11{fill:#1789A0;stroke:#000000;stroke-width:0.4162;stroke-miterlimit:10;}
	.st12{fill:#231815;}
	.st13{fill:#FFE6C7;stroke:#000000;stroke-width:0.3088;stroke-miterlimit:10;}
	.st14{fill:none;stroke:#231815;stroke-width:0.3088;stroke-miterlimit:10;}
	.st15{fill:none;stroke:#000000;stroke-width:0.4188;stroke-miterlimit:10;}
	.st16{fill:none;stroke:#231815;stroke-width:0.4188;stroke-linejoin:round;stroke-miterlimit:10;}
</style>
<g>
	<path class="st0" d="M36.4,770.9c0,0,1.6,99.1,72.5,134.6c50.7,25.4,96.6,22.1,161.4,48.2c66.5,26.8,145-15.4,179.2-32.5
		c67.6-33.7,103.1-86.9,102.9-187.4L36.4,770.9z"/>
	<path class="st1" d="M552.4,718.6c0,0-7.4-75.6-79.3-121c0,0,0,0,0,0c-61.9-42.3-32.7-71.2-73.8-118.7
		c-36.5-42.2-26.4-90.6-51-104.4c-31.2-17.5-57.2,13.8-82.5,47.1c-24.2,31.9-52.2,55.4-84.2,99.7c-34.7,48.2-79.9,94.7-79.9,94.7
		c0,0,0,0,0,0c-24.1,17.3-43.2,39.2-54.7,66.4c-9.8,23.3-14.1,50.5-11.3,82c0.2,2.1,0.4,4.2,0.7,6.4
		c7.1,59.4,60.2,106.9,193.8,118.9C371.8,902.5,559.4,875.6,552.4,718.6z"/>
	<g>
		<g>
			<path class="st0" d="M216.2,410.7c0,0-2.4-10.5,2.3-13.8c4.2,3.2,2.4,13.8,2.4,13.8H216.2z"/>
			<path class="st0" d="M223,414c1.2-5.2,3.9-8,1.2-9.5c-2.4-1.3-5.6,3.9-5.8,4.6c-0.2-0.7-3.4-6-5.8-4.6c-2.7,1.5,0.1,4.3,1.2,9.5
				c1.3,5.9,6.1,36.9,2.9,43.2h1.7h1.7C216.8,450.9,221.7,419.9,223,414z"/>
			<path class="st0" d="M222.8,421.2c1.2-5.4,4.5-8.3,1.7-9.9c-2.5-1.4-5.8,4.1-6,4.8c-0.2-0.7-3.5-6.2-6-4.8
				c-2.8,1.5,0.5,4.4,1.7,9.9c1.4,6.2,0.7,77.4,0.7,77.4h3.6h3.6C222,498.6,221.4,427.4,222.8,421.2z"/>
		</g>
		<g>
			<path class="st0" d="M243.4,410.7c0,0-2.4-10.5,2.3-13.8c4.2,3.2,2.4,13.8,2.4,13.8H243.4z"/>
			<path class="st0" d="M250.2,414c1.2-5.2,3.9-8,1.2-9.5c-2.4-1.3-5.6,3.9-5.8,4.6c-0.2-0.7-3.4-6-5.8-4.6
				c-2.7,1.5,0.1,4.3,1.2,9.5c1.3,5.9,6.1,36.9,2.9,43.2h1.7h1.7C244,450.9,248.9,419.9,250.2,414z"/>
			<path class="st0" d="M250,421.2c1.2-5.4,4.5-8.3,1.7-9.9c-2.5-1.4-5.8,4.1-6,4.8c-0.2-0.7-3.5-6.2-6-4.8
				c-2.8,1.5,0.5,4.4,1.7,9.9c1.4,6.2,0.7,77.4,0.7,77.4h3.6h3.6C249.2,498.6,248.6,427.4,250,421.2z"/>
		</g>
		<g>
			<path class="st0" d="M272.6,410.7c0,0-2.4-10.5,2.3-13.8c4.2,3.2,2.4,13.8,2.4,13.8H272.6z"/>
			<path class="st0" d="M279.4,414c1.2-5.2,3.9-8,1.2-9.5c-2.4-1.3-5.6,3.9-5.8,4.6c-0.2-0.7-3.4-6-5.8-4.6
				c-2.7,1.5,0.1,4.3,1.2,9.5c1.3,5.9,6.1,36.9,2.9,43.2h1.7h1.7C273.2,450.9,278.1,419.9,279.4,414z"/>
			<path class="st0" d="M279.1,421.2c1.2-5.4,4.5-8.3,1.7-9.9c-2.5-1.4-5.8,4.1-6,4.8c-0.2-0.7-3.5-6.2-6-4.8
				c-2.8,1.5,0.5,4.4,1.7,9.9c1.4,6.2,0.7,77.4,0.7,77.4h3.6h3.6C278.4,498.6,277.8,427.4,279.1,421.2z"/>
		</g>
	</g>
	<g>
		<g>
			<path class="st0" d="M352.6,337.9c0,0,39.5,31.2,40.7,83.9h5c0,0,0-50.9-40-92.6l-10.1-1.7L352.6,337.9z"/>
		</g>
		<g>
			<path class="st2" d="M272,370.8c-16.2-13.6-7.2-60.9,65.9-60.2C337.9,310.6,301.5,395.6,272,370.8z"/>
			<path class="st3" d="M272,370.8c0,0,16.1-32.6,65.9-60.2c0,0-38.9,37.8-50.5,64.3"/>
			<path class="st3" d="M265.8,359.8c0,0,18.2-38.1,72.2-49.2"/>
		</g>
		<g>
			<path class="st2" d="M295.7,271.9c8.9-16.9,44.6-20.3,58.1,0c9.7,14.6,7.9,35.7-13.5,43.2C318.9,322.6,276.8,307.7,295.7,271.9z"
				/>
			<path class="st3" d="M297.2,269.6c0,0,23.3,13,43.1,45.5c0,0-1.3-41.4-21.5-56.8"/>
			<path class="st3" d="M290.9,292c0.2-0.2,23.1,1.9,49.4,23.1"/>
		</g>
		<g>
			<path class="st2" d="M340,382.7c11.8,0,19.3-8,19.4-30.9c0.2-22.9-21.5-41.2-21.5-41.2s-15,9.1-17.4,39.2
				C318.5,374.6,330.1,382.7,340,382.7z"/>
			<path class="st3" d="M330.2,379.7c0,0-3.1-31.2,7.8-69.2c0,0,8,31.8,2.1,72.1"/>
			<path class="st3" d="M337.9,310.6c21.5,33.8,13.1,69.2,13.1,69.2"/>
		</g>
		<g>
			<path class="st2" d="M412.3,323.5c6.8-16.2-11-34.2-34.1-31.5c-23.1,2.8-37.9,18.3-37.9,18.3s7.2,21.5,29,27.1
				C391,343,406.3,337.6,412.3,323.5z"/>
			<path class="st3" d="M413.7,317.2c0,0-25.4-24-73.4-6.9c0,0,56.6,6.2,71.3,14.5"/>
			<path class="st3" d="M407.7,330.8c0,0-41.6,8.8-67.4-20.5"/>
		</g>
		<g>
			<path class="st2" d="M369.8,254.2c13.1,1.1,18.2,14,7.2,33.3s-34.8,20-34.8,20s-4.8-19.1,5.4-37.9
				C353.8,258.4,363.3,253.7,369.8,254.2z"/>
			<path class="st3" d="M369.8,254.2c0,0-23.2,19.5-27.6,53.3c0,0,19.4-32.8,35.7-50.5"/>
			<path class="st3" d="M381.2,260.8c0,0,0.2,27.9-39,46.7"/>
		</g>
		<path class="st4" d="M326.8,312.7c0,0-4.2,3.8-6.2,12.9c-2.6,11.7,6.4,16.2,12.2,8c5.6-7.9,5.2-16.4,5.2-16.4s4.3,16.4,14.4,12
			c10.2-4.4-0.3-18.4-6.7-19.8c0,0,7.4,3.9,13.8-4.3c6.4-8.2-3.3-16.3-14.4-4.5c0,0,5.8-17.8-3.7-17.9s-4.2,18.8-4.2,18.8
			s-20-7-22.3,2C312.4,312.5,326.8,312.7,326.8,312.7z"/>
		<g>
			<path class="st5" d="M319.1,288.9c3.9-3.5,15.4,9.5,18.8,21.6C337.9,310.6,312.4,295,319.1,288.9z"/>
			<path class="st5" d="M312.4,312.5c-1.2-6,14.3-7.1,25.6-2C337.9,310.6,314.4,322.4,312.4,312.5z"/>
			<path class="st5" d="M336.1,282.8c4.9-0.9,7.7,18.4,1.8,27.8C337.9,310.6,327.6,284.3,336.1,282.8z"/>
		</g>
	</g>
	<g>
		<path class="st6" d="M110.9,475.1c0,0,20.5-0.8,19.1-20.9C130,454.2,113.9,449.2,110.9,475.1z"/>
		<path class="st6" d="M112.6,450.6c0.9,2.6,2.6,16.6-17.2,18.9C95.4,469.5,97.8,448.9,112.6,450.6z"/>
		<path class="st6" d="M115,462.1c0,0,12.2-13.6-1.6-25.2C113.4,436.9,100.3,444.1,115,462.1z"/>
		<path class="st6" d="M108.3,407.5c0,0-10.7,17.6,3.6,26.7C111.9,434.1,122,423.5,108.3,407.5z"/>
		<path class="st6" d="M136.6,432.6c-2.5-0.6-14.3-6.6-5.8-23.3C130.8,409.3,145.7,421.9,136.6,432.6z"/>
		<path class="st6" d="M135.7,431.9c-1.7,2.1-12.6,11.1-25.2-4.3C110.5,427.6,129.2,418.5,135.7,431.9z"/>
		<path class="st6" d="M173.5,438.6c0,0-8,12.4,9.3,22.6C182.8,461.2,189.4,441.8,173.5,438.6z"/>
		<path class="st6" d="M201,450.2c0,0-15.5,5.6-21.8-12.3C179.1,437.8,194.4,428.9,201,450.2z"/>
		<path class="st6" d="M173.2,431.7c0,0,8.9,13.7,24.9-0.2C198.1,431.5,187.7,417.4,173.2,431.7z"/>
		<path class="st6" d="M175.5,419.2c-0.6-2.5-1.2-15.7,17.5-16.4C193,402.8,189.2,421.9,175.5,419.2z"/>
		<path class="st6" d="M174.5,422.2c1.2-2.2,9.7-12.4,24-0.3C198.5,421.9,182.8,433.5,174.5,422.2z"/>
		<path class="st6" d="M148.8,434.4c0,0-12.1,11.4,1.2,27.2C150,461.6,164.8,446.3,148.8,434.4z"/>
		<path class="st6" d="M143.3,414.6c0,0,12.9,13.1,28.9,0.6C172.3,415.2,162.6,399.7,143.3,414.6z"/>
		<path class="st6" d="M173.7,395.9c0,0-17.2,11.2-5.6,27.7C168.1,423.7,184.4,419.7,173.7,395.9z"/>
		<path class="st6" d="M79.9,434.1c0,0,10.8,13.4,23.7,2.4C103.6,436.5,98.9,423.1,79.9,434.1z"/>
		<path class="st6" d="M80.4,450.7c0,0,20.3,3.5,23.5-13.2C103.9,437.5,90.3,432.1,80.4,450.7z"/>
		<circle class="st1" cx="132.4" cy="463.8" r="8.5"/>
		<circle class="st1" cx="173.4" cy="423.7" r="8.5"/>
		<circle class="st1" cx="174.6" cy="436.9" r="8.5"/>
		<circle class="st1" cx="155.7" cy="434.1" r="8.5"/>
		<path class="st0" d="M111.8,437.1c5.7,10.7,15.6,15.9,36.7,32.5c41.5,32.8,31.1,65.9,48.1,58.2c11.2-5.1-18-33.9-24.5-51.1
			c-4.9-13-0.8-22.4-2.3-38.8c-1.2-13.3-4.7-26.2-10-23.4c-4.9,2.6,8.7,38.1-3.7,44.2c-14.4,7.1-32.8-26.1-40.6-29.2
			C111.6,428.1,109.1,432,111.8,437.1z"/>
		<circle class="st1" cx="107.1" cy="433" r="8.5"/>
		<circle class="st1" cx="139.3" cy="435.9" r="8.5"/>
		<circle class="st1" cx="102.9" cy="447.7" r="8.5"/>
	</g>
	<g>
		<path class="st4" d="M180.6,797.6c48.9,4.3,105.1,25.9,146.8,0c41.7-25.9,104.4-36.7,93.6-90.7c-10.8-54-76.3-62.6-144.7-71.9
			c-68.4-9.2-110.1,0.6-163.4,14.3c-53.3,13.7-66,33.2-66,33.2c-9.8,23.3-14.1,50.5-11.3,82C57.7,808.4,131.7,793.3,180.6,797.6z"/>
	</g>
	<g>
		<circle class="st7" cx="522.4" cy="452.1" r="4.6"/>
		<circle class="st7" cx="500.4" cy="479.2" r="4.6"/>
		<circle class="st7" cx="520.7" cy="490.3" r="4.6"/>
		<circle class="st7" cx="487.9" cy="492.4" r="4.6"/>
		<circle class="st7" cx="507.6" cy="513.9" r="4.6"/>
		<circle class="st7" cx="530.6" cy="466.6" r="4.1"/>
		<circle class="st7" cx="511.5" cy="462.1" r="4.1"/>
		<path class="st8" d="M521.5,456.7c0,0-11.6,57.8-63.1,73.7"/>
		<path class="st8" d="M511.9,466.2c0,0,0.7,5.2,3.8,8.3c0,0,6.9-1.3,11.7-5.5"/>
		<path class="st8" d="M500.4,483.7c0,0,1.1,9.8,3.5,12.3c0,0,5.9,0.5,13.7-2.5"/>
		<path class="st8" d="M487.9,496.9c0,0-0.5,10.5,1.5,15.7c0,0,8.3,1.9,13.7,1.9"/>
	</g>
	<path class="st3" d="M338.6,89.8c0,0-1.9,10.4-0.8,25.2"/>
	<path class="st3" d="M147.3,263.5c0.8-0.3,12.2-3.6,20.6-3.9"/>
	<g>
		<path class="st0" d="M159.5,220.3c0,0-16.8-12.1-48.3-11.3c-28.9,0.7-44-16.3-40.7-51.2c3.8-40.2,39.9-55.1,50.2-69.9
			s7-34.1,24.4-38.4c16.3-4.1,25.6,14.7,25.6,14.7s-9.9-30.1,12.8-42.3c18.1-9.7,24.3,3.8,49.9-5.1s41.5-15.9,53.1-7
			c19.4,14.9-2.5,37.8,19.3,69.8c0,0-9.6,154.7-11.5,152.9S159.5,220.3,159.5,220.3z"/>
		<g>
			
				<ellipse transform="matrix(0.4649 -0.8854 0.8854 0.4649 12.1451 229.2971)" class="st2" cx="195.8" cy="104.6" rx="14.3" ry="10.1"/>
			<path class="st3" d="M203.5,111.3c0,0,30.8,20.6,58,56.9"/>
		</g>
		<g>
			<ellipse transform="matrix(0.8864 -0.463 0.463 0.8864 -12.1404 118.1722)" class="st2" cx="234.7" cy="83.8" rx="13.2" ry="6"/>
			<path class="st3" d="M236.2,89.8c0,0,11.9,37.7,30.5,60.6"/>
		</g>
		<g>
			
				<ellipse transform="matrix(0.2094 -0.9778 0.9778 0.2094 7.8519 285.6351)" class="st2" cx="180.6" cy="138" rx="13.8" ry="7.9"/>
			<path class="st3" d="M244.7,162.9c-25.4-26.5-55.6-26-55.6-26"/>
		</g>
		<g>
			
				<ellipse transform="matrix(0.7858 -0.6184 0.6184 0.7858 -25.2336 165.3297)" class="st2" cx="226.1" cy="119.1" rx="14.2" ry="9.5"/>
			<path class="st3" d="M233.7,125.1c0,0,12,21.7,24,32.1"/>
		</g>
		<g>
			
				<ellipse transform="matrix(0.9737 -0.2277 0.2277 0.9737 -14.4307 60.7128)" class="st2" cx="255.9" cy="92.9" rx="7.8" ry="4.4"/>
			<path class="st3" d="M255.2,97.5c0,0-0.4,12.8,2.5,25.7"/>
		</g>
		<path class="st4" d="M198.8,173.7c3.2-6.4-3-19.2,21.9-23.7c24.9-4.5,12.7-30.1,31.3-42.9s35.4,16,35.4,16s13.3,92.8,10.2,95.5
			C294.6,221.4,198.8,173.7,198.8,173.7z"/>
		<path class="st3" d="M120.7,158.6c0,0,20.2-4.7,43,0.9"/>
		<path class="st3" d="M127.6,141.1c0,0,24.3-0.9,35.1,5.8"/>
		<path class="st3" d="M138.6,121.8c0,0,13.7,3.5,17.8,7.7"/>
		<path class="st3" d="M147.6,108.3c0,0,6.4,3.9,8.9,6.8"/>
		<path class="st3" d="M259.2,24.6c0,0-7.2,21.2-2.8,46.1"/>
		<path class="st3" d="M246.5,29.2c0,0-4.4,19.9,1,38"/>
		<path class="st3" d="M231.2,35.9c0,0-0.5,12.5,1.3,19.9"/>
		<path class="st3" d="M214,43.1c0,0,0.4,4.6,2.3,8.1"/>
		<path class="st3" d="M266.6,33.2c0,0-2.1,7.1-2.3,18.1"/>
		<g>
			<path class="st0" d="M288.7,204.4c0,0-16.5-13.8-21.6-87.1c-4-58.4,18.2-63.4,28.1-62.2c11.9,1.4,10-12.2,24.9-13.5
				c17.4-1.6,31,19.1,27.4,53.9c0,0,8.3,14.8,9.4,34.2S346.6,230.9,344.4,232c-2.2,1.1-38.4,0-38.4,0L288.7,204.4z"/>
			<path class="st3" d="M327.2,67.2c0,0-2.9,36.7,0,68.3"/>
			<path class="st3" d="M311.8,79.4c0,0-1.4,17.4,0,28.8"/>
			<path class="st3" d="M298.1,81.3c0,0,1.5,12.4,2.6,20"/>
		</g>
		<g>
			<path class="st0" d="M145.1,276.6c0,0-34.1-12.1-33.8-39.4c0.2-31.6,33.4-24.9,50.2-57.9c21.7-42.4,98.2-28.2,157.6,37.3
				c0,0,13.7,35,10.7,37.3C326.7,256.3,173.7,298.1,145.1,276.6z"/>
			<path class="st3" d="M138.7,239.3c1.8-0.5,40.4-5.3,58.3,0"/>
			<path class="st3" d="M138.7,251.6c0,0,34-6.5,49.3-1.3"/>
			<path class="st3" d="M158.7,225.5c0,0,19.4-3.8,34.9,1.6"/>
			<path class="st3" d="M182.7,213.3c1,0,8.5,0,13.1,3.6"/>
		</g>
		<path class="st3" d="M239.6,154.6c0,0,6.8,1.2,12.8,7.8"/>
		<path class="st3" d="M257.7,138.4c0,0,1.3,6.9,5.6,12.4"/>
		<path class="st3" d="M249.1,148.5c0,0,5.3,3.7,7.9,7.1"/>
		<path class="st1" d="M145.1,276.6c0,0,36.6,31.2,132.7-4c94.5-34.6,146.3,100.7,124.8,172.5c-26.8,89.5-17.1,122.1-17.1,122.1
			l36.8,15.7c0,0-13-73.2,0-131.7c16-72-14.3-133.8-34.5-168.4c-25.3-43.2-27.9-68.9-25.6-120.8s-14.7-66.6-14.7-66.6
			s10.1,41.8,0,72C337.4,197.7,339,221,339,221s-11.6-47.2-36.4-72.8c0,0,7,20.1,7,49.6s12.4,34.8,12.4,34.8s-17.8-13.9-47.5-12.6
			c-33.6,1.5-34.6,12.6-62.5,14.2c0,0,14.3,8.5,53.2,8.5s43.6,3.9,43.6,3.9s-26.1-3.9-80.5,20.1S145.1,276.6,145.1,276.6z"/>
	</g>
	<g>
		<path class="st5" d="M529.9,180.5c0,0-5.8,26.1-21,49.4s-36.3,45-30.9,113.8c0,0,10.2-15.3,28.2-32.4
			C528.6,289.8,546.6,249.9,529.9,180.5z"/>
		<path class="st3" d="M529.9,180.5c0,0,3.3,52.4-26.2,97.4c-25.3,38.6-25.8,65.8-25.8,65.8"/>
		<path class="st3" d="M507.3,232.3c0,0,7,14-0.2,40.1c0,0,15.5-27.1,29.3-37"/>
		<path class="st3" d="M495,251c0,0,4.8,22.1-1.9,45.2"/>
		<path class="st3" d="M480.5,287.4c0,0,6.7,16.6,5.1,25.3"/>
		<path class="st3" d="M491.4,299.3c0,0,16.4-19.4,39.1-27.9"/>
		<path class="st3" d="M483.1,319.6c0,0,13.8-11.7,30-15.8"/>
	</g>
	<g>
		<g>
			<path class="st2" d="M416.2,284c0,0-5.8,20.6,8.6,33.4c0,0,6.8,5.3,13.1,4.7c3.8-0.4,13.3-7.8,13.3-7.8l-1.1-13.1
				c0,0-5.2-18.9-25.4-22.1c0,0,3-9.4-0.8-9.7c-3.8-0.3-2.2,8.3-2.2,8.3s-3.6-9.1-7.5-6.6c-3.6,2.3,3.6,9.1,3.6,9.1
				s-8.9-4.4-9.6-0.2C407.5,284.1,416.2,284,416.2,284z"/>
			<path class="st3" d="M419.9,287.4c0,0-0.9,24.1,14.4,30.7"/>
			<path class="st3" d="M424.7,291.4c0,0,1.8,16,14.5,22.5"/>
			<path class="st3" d="M426.6,288.1c0,0,8,7.1,10.6,15.7"/>
			<path class="st3" d="M431.6,285.8c0,0,13.3,7,14.2,24.3"/>
		</g>
		<g>
			<path class="st2" d="M351.6,178.3c-0.1-13.1,14.1-27.2,39-25.7c22.9,1.3,41.3,22.9,41.3,22.9s-12.3,19.3-37,24.2
				C370.3,204.6,351.8,200.5,351.6,178.3z"/>
			<path class="st3" d="M351.6,178.3c0,0,31.5-11,79.5,4.8c0,0-37.3-26.5-73.2-19.7"/>
			<path class="st3" d="M356.7,194c0.5,0.6,20.6-13.3,74.5-10.9"/>
		</g>
		<path class="st2" d="M435,172.7c0,0,15.4-15,40.8-19.2c24.6-4.1,43.3,3.5,38.5,24c-4.8,20.5-31.8,20.2-46.7,15.5
			C452.8,188.4,440.8,180.1,435,172.7z"/>
		<path class="st3" d="M502.7,192c0,0-21.1-14.9-67.6-19.3c56.2-5,78.4,7.4,78.4,7.4"/>
		<g>
			<path class="st2" d="M432,175.5c0,0-18,20.1-12.4,55.7s44.2,28.2,46.3-2.8S450.7,178.2,432,175.5z"/>
			<path class="st0" d="M459.1,246.2c0,0,26.5,75.7,5.9,124.6c0,0-2.9-25-12.8-43.1c-1.7-3.2-2-6.9-0.6-10.3
				c1.9-4.6,1.6-14-2.4-18.8c0,0,2.7,11.9-3.3,17c0,0-5.1-4.6-6.7-9.6c0,0-1.9,8.3,2,12.8c0,0-8.4,1.7-16.4-1.5
				c0,0,2.6,5.5,15.2,6.1c3.1,0.1,5.8,2.3,7.2,5.1c4.9,9.4,14.7,32,13.1,56.7l4.6,1.1c0,0,33.3-47.6-2.7-145.5L459.1,246.2z"/>
			<path class="st3" d="M441.4,255c0,0-23.5-22.6-9.4-79.4c0,0,6.4,47.2,17.5,77.8"/>
			<g>
				<path class="st2" d="M375.7,265.3c11.3,5.3,29.9-1.4,36.4-23.8c6.5-22.4,6.9-48.6,19.9-66c0,0-45.4,15.6-60.7,44.6
					S368.5,261.9,375.7,265.3z"/>
				<path class="st3" d="M365.5,253.7c0,0,3.2-24.2,66.4-78.2c27.9,32.6,28.7,68.7,28.7,68.7"/>
				<path class="st3" d="M398.3,262.1c0,0-1.4-36.8,33.6-86.6c-58.1,64.4-53.8,90.7-53.8,90.7"/>
			</g>
		</g>
		<g>
			<path class="st2" d="M471.5,108.9c9.3,6.8,12.2,22.9-6.5,42.4c-19.3,20.1-34.4,36.7-34.4,36.7s-20.2-25-8.4-55.2
				C431.3,109.8,459.1,99.9,471.5,108.9z"/>
			<path class="st3" d="M473.5,110.6c0,0-30,12-41.3,62.6"/>
			<path class="st3" d="M460,105.6c0,0-34.5,20.6-31.8,65.4"/>
			<path class="st3" d="M514.8,168.1c0,0-26.5-11.7-79.7,4.6c15.3-32.7,42.8-55.3,42.8-55.3"/>
		</g>
		<path class="st4" d="M428.1,188.9c0,0-3.1,15.7,6.6,14.9c9.7-0.8,5.2-20.9,5.2-20.9s14.9,6.1,19.1-3.4s-9.9-15.2-20.3-8.8
			c0,0,11.8-14.5,3-17.3s-9.1,15.4-9.1,15.4s-3.8-14.5-12.8-9.5s7.1,16.8,7.1,16.8s-23.7-9.5-24,4.1c-0.3,13.6,20.5,2.2,20.5,2.2
			s-25.2,18-15.6,25C415.6,212.9,428.1,188.9,428.1,188.9z"/>
		<g>
			<path class="st9" d="M428.8,149c6.4-3.7,11,19.5,2.3,34.1C426.6,178.9,423.8,152,428.8,149z"/>
			<path class="st5" d="M398.7,168.3c2.4-4.7,21.5,2.5,32.5,14.8C431.1,183.1,393.5,178.5,398.7,168.3z"/>
			<path class="st5" d="M413.6,152.8c5.4-4,16.6,16.8,17.5,30.4C423.6,181.4,407.3,157.5,413.6,152.8z"/>
		</g>
	</g>
	<g>
		<path class="st5" d="M411.2,337.4c0,0,9.2,13.2,14,40.1c4.8,27,17,46,47.9,53.3c0,0,5.4-39.3-15.8-63.1
			C442.5,351,422,348.6,411.2,337.4z"/>
		<path class="st3" d="M411.2,337.4c0,0,48.1,46.7,61.9,93.5"/>
		<path class="st3" d="M423.3,368.5c0,0,11.1,1.4,24.8,13.2c0,0-5.1-14.9-5.6-26"/>
		<path class="st3" d="M428.4,390.9c0,0,19.1,1.7,34.9,16c0,0-7.9-23.1-4.2-37"/>
	</g>
	<g>
		<g>
			<path class="st0" d="M481.2,373.4c0,0,2.5-17.1,21.3-14.9s14.6,23.9,6.7,27.8c0,0,12,16.5,6.7,34c-5.3,17.5-23.3,21.7-23.3,21.7
				s18,53.1-38.6,69.9c-56.6,16.8-70-89.3-11.9-95.1c0,0-4.3-21.6,10.1-34C466.2,370.8,481.2,373.4,481.2,373.4z"/>
			<path class="st3" d="M497.9,376.4c0,0-55.9,63.6-73.5,131.8"/>
		</g>
		<g>
			<path class="st0" d="M316,375.2c13.4-10.9,31.8-4.4,35.7,17.3c0,0,25.2-6.2,40.3,8.3c15.1,14.5,8.9,40.5,8.9,40.5
				s21.5,9.4,22,40.7s-9.4,41.3-28.1,43.6s-58-4.7-58-57.3c0-3.5-41.9-9.6-21.5-61.4C315.3,406.9,301.3,387.3,316,375.2z"/>
			<path class="st3" d="M328.8,394.6c0,0,54.4,54.7,69.6,130.4"/>
		</g>
	</g>
	<g>
		<path class="st6" d="M165.8,636.9c0-8.2,7.2-19.2,16-19c8.8,0.2,17.1,13.5,15.5,20.8c-1.4,6.5-16.6,8.4-22.7,8.2
			C168.6,646.7,165.8,641.4,165.8,636.9z"/>
		<ellipse transform="matrix(0.5 -0.866 0.866 0.5 -454.0296 464.5926)" class="st10" cx="175.3" cy="625.5" rx="1.8" ry="1.2"/>
		
			<ellipse transform="matrix(0.3461 -0.9382 0.9382 0.3461 -479.1446 579.1658)" class="st10" cx="175.9" cy="633.3" rx="3.4" ry="1.4"/>
	</g>
	<g>
		<circle class="st1" cx="48.8" cy="522.9" r="5.6"/>
		<circle class="st1" cx="57" cy="561.2" r="4.5"/>
		<circle class="st1" cx="46.4" cy="540.6" r="4.7"/>
		<circle class="st1" cx="70.2" cy="525.5" r="3.6"/>
		<circle class="st1" cx="82.7" cy="546.9" r="4.4"/>
		<path class="st3" d="M52.5,527c0,0,21.6,23.3,33.3,55.9"/>
		<polyline class="st3" points="50.6,542.8 70.8,552.1 70.1,529 		"/>
		<polyline class="st3" points="61.4,562 77.7,564.5 81.5,551.3 		"/>
		<line class="st3" x1="63.4" y1="534.6" x2="62.6" y2="539.8"/>
		<line class="st3" x1="60.5" y1="543.8" x2="66.2" y2="544.9"/>
		<path class="st3" d="M70.8,572.7c0.6,0,11.8,2.2,11.9,2.3c0,0.1,3.1-10.5,3.1-10.5"/>
	</g>
	<g>
		<path class="st0" d="M33.4,711.8c7.9-3.5,17.5,16.4,11.5,34.7C44.9,746.4,20.1,717.7,33.4,711.8z"/>
		<path class="st0" d="M45.1,716.9c8-1.9,20.6,21.9,1.7,37.7C46.8,754.6,31.5,720.1,45.1,716.9z"/>
		<path class="st0" d="M11.5,727c3.8-7.6,20.5,2.7,31.3,21C42.8,748,3.5,742.9,11.5,727z"/>
		<path class="st0" d="M25.8,723.6c7.2-5,24.8,17.4,23.5,32.9C43,757.1,16.6,730,25.8,723.6z"/>
		<path class="st0" d="M10.4,744.1c2.7-9.5,29.1-1.2,36.4,10.4C40.3,764.8,6.7,757,10.4,744.1z"/>
		<path class="st2" d="M46.8,761.1c0,0,2.3,6.5,6.1,4.2c3.8-2.3-0.6-7.6-0.6-7.6s5.2,2.7,7-1.6c1.4-3.4-6.4-7.4-13.1-2.8
			s-6.6,10.8-4.5,12.5S46.6,765.4,46.8,761.1z"/>
		<path class="st3" d="M70.1,801.3c-4.3-25.5-17.2-36.1-17.2-36.1"/>
		<path class="st11" d="M79.1,766.4c7.1,2.5,4.1,23.4-9.7,37.4C63.6,792.5,65.3,761.6,79.1,766.4z"/>
		<path class="st11" d="M42.8,784.8c1.5-7.1,21.4-4.4,28.1,14.4c0,0-2.3,3-9.4-1.4C54.5,793.4,41.3,791.7,42.8,784.8z"/>
		<path class="st3" d="M42.8,784.8c0,0,12.4-1.2,28.1,14.4"/>
	</g>
	<g>
		<circle class="st2" cx="71" cy="483.2" r="6.1"/>
		<circle class="st2" cx="121.3" cy="503.4" r="5.7"/>
		<circle class="st2" cx="96" cy="525.5" r="5.8"/>
		<circle class="st2" cx="79.3" cy="504.2" r="4.2"/>
		<circle class="st2" cx="94.1" cy="483.2" r="4.1"/>
		<path class="st3" d="M76,486.3c0,0,45.1,16.5,66.1,92.2"/>
		<polyline class="st3" points="101.8,525.5 118.8,525.5 120.8,509.1 		"/>
		<path class="st3" d="M83.1,503.3c3.3-0.8,14.3-2.9,14.3-2.9l-2.3-13.3"/>
		<line class="st3" x1="98.1" y1="509.1" x2="104.8" y2="507.6"/>
		<line class="st3" x1="83.1" y1="486.3" x2="84.5" y2="490.7"/>
		<line class="st3" x1="114.1" y1="511.6" x2="113" y2="517.3"/>
		<line class="st3" x1="117.4" y1="533" x2="123.6" y2="533.3"/>
		<line class="st3" x1="129.8" y1="532.4" x2="127" y2="539.5"/>
	</g>
	<g>
		<path class="st6" d="M338.1,665.3c-4.2-7.9,8.5-25.8,19.2-24.8c10.7,1,19.2,14.9,19.2,21C376.5,669.4,342.5,673.6,338.1,665.3z"/>
		
			<ellipse transform="matrix(0.5608 -0.8279 0.8279 0.5608 -393.1122 573.6332)" class="st10" cx="344.2" cy="657.4" rx="3.3" ry="1.6"/>
		
			<ellipse transform="matrix(0.5608 -0.8279 0.8279 0.5608 -382.8922 575.6169)" class="st10" cx="351.1" cy="648.7" rx="2.8" ry="1.9"/>
		
			<ellipse transform="matrix(0.6422 -0.7666 0.7666 0.6422 -375.4187 505.6505)" class="st10" cx="353.9" cy="654.9" rx="2.8" ry="1.5"/>
	</g>
	<path class="st3" d="M202.8,901.9c0,0,17.6,16,44.4,25.7"/>
	<path class="st3" d="M93.1,869.8c0,0,9.4,15.4,30,22.8"/>
	<line class="st3" x1="129.9" y1="894.4" x2="135.8" y2="895.9"/>
	<path class="st3" d="M153.2,890.8c0,0,9.1,11.1,28.1,18.6"/>
	<path class="st3" d="M437.1,907.4c0,0,7.1-3.3,11.6-10.4"/>
	<g>
		<path class="st6" d="M349.7,628.1c-3.4-6,5.7-18.4,11.1-18.1s13.1,9.7,9.9,16.9C367.5,634.1,351.9,632.1,349.7,628.1z"/>
		
			<ellipse transform="matrix(0.3947 -0.9188 0.9188 0.3947 -355.9814 704.7645)" class="st10" cx="356.9" cy="622.5" rx="3.3" ry="1.7"/>
		
			<ellipse transform="matrix(0.3619 -0.9322 0.9322 0.3619 -346.5053 725.7124)" class="st10" cx="356.9" cy="616" rx="1.6" ry="0.8"/>
	</g>
	<g>
		<g>
			<g>
				<path class="st2" d="M180.2,512.3c0,0-3.6-9.5,2.4-14.2c6-4.8,9.3,1.5,14.1-3.4c4-4.1,7-1.2,10-2.6c3-1.4,7.9-3,12.6,0
					c4.7,3,2.5,5.2,7.8,7.3c5.3,2.2,6.4,5.4,3,10.5c-3.4,5-16.7,15.2-30.9,12.5C184.8,519.7,182.2,517.1,180.2,512.3z"/>
				<path class="st3" d="M185.5,503.5c0,0,1.2,2.8,3.1,4.2"/>
				<path class="st3" d="M189,501.7c0,0,0.7,2,1.9,2.7"/>
				<path class="st3" d="M217.1,497.6c0,0,0.1,2.4-0.9,3.3"/>
				<path class="st3" d="M221.5,499.6c0,0,0.1,2.3-1.1,3.4"/>
			</g>
			
				<ellipse transform="matrix(0.9944 -0.1053 0.1053 0.9944 -51.5442 24.6754)" class="st1" cx="207.8" cy="500.3" rx="3.5" ry="2.1"/>
			
				<ellipse transform="matrix(0.9673 -0.2538 0.2538 0.9673 -122.0208 66.8314)" class="st1" cx="198" cy="506.3" rx="3.9" ry="2.3"/>
			
				<ellipse transform="matrix(0.1296 -0.9916 0.9916 0.1296 -312.3694 654.1666)" class="st1" cx="216.4" cy="505" rx="2" ry="3.4"/>
			<line class="st3" x1="208" y1="502.3" x2="209.1" y2="516.8"/>
			<line class="st3" x1="200.2" y1="507.9" x2="206.6" y2="516.5"/>
			<line class="st3" x1="216.2" y1="506.9" x2="213.7" y2="514.7"/>
			<g>
				<path class="st4" d="M201.2,518.4c0,0,0.1-3.4,2.7-5c2.6-1.6,3.5,0.7,7.1,0c3.6-0.7,4.6-2,7.3-0.1c2.7,2,2.6,11-3.1,13.7
					C209.5,529.7,202.6,531,201.2,518.4z"/>
				<path class="st3" d="M207.4,517.1c0,0,0.3,1.4,0.6,2"/>
				<path class="st3" d="M212,516.5c0,0,0.1,1.5-0.4,2.2"/>
			</g>
			<g>
				<path class="st2" d="M186.2,532.5c0,0-9.9-1.8-13.4-11.3c-3.5-9.6,4.2-11.1,9.8-7.8c5.6,3.3,7.7-3.3,14.6-0.4
					c6.9,2.9,6,10.7,9.9,14c3.9,3.2,8.1,13.2-0.5,12.9C198,539.4,186.2,532.5,186.2,532.5z"/>
				<path class="st3" d="M184.7,521.2c0,0,2.3,3.3,7.9,5.4"/>
				<path class="st3" d="M191.8,520.8c0,0,2.4,3.9,5.1,5"/>
			</g>
			<g>
				<path class="st2" d="M210.9,525.8c0,0,5-1.1,6.8-10.1c1.9-9,5.6-9.5,8.7-7.8c3.1,1.8,6.5-1.4,9.3,2c2.9,3.4-0.1,14.3-9.8,20.4
					c-9.7,6.1-14.9,10-16.4,5.7C208,531.7,210.9,525.8,210.9,525.8z"/>
				<path class="st3" d="M230.5,516.5c0,0-1.1,3.5-3.4,5.3"/>
				<path class="st3" d="M224.7,515.2c0,0-0.1,2.6-1.8,4"/>
			</g>
			<path class="st0" d="M186.2,532.5c0,0,8.7,8.8,20.9,9.2c0,0,3.9,14.1,4.6,47.2l4.8-0.6c0,0,0.6-26-4.2-47.3c0,0,10-1.2,15.7-12.2
				c0,0-10.7,2.7-15.8,7.2c0,0,0-10.1-3.4-14.8c0,0-3.3,7.5-2.1,15.6C206.7,536.7,197.2,532.1,186.2,532.5z"/>
		</g>
		<g>
			<path class="st4" d="M194.7,576.3c0,0,18-5,22.9,14.8c4.7,18.7-16.6,28.9-27,26c-11-3-16.1-11.5-15.4-26.1c0,0-9-0.5-13.1-8.5
				c-4.1-8,0-15.9,0-15.9s-8.4-2.4-8.3-9.8c0-7.5,7.9-9.8,11.8-7.6c3.9,2.2,5.6,5.9,5.2,9.4c0,0,8.1-4.9,15.4-1.4
				C193.4,560.7,196.1,569,194.7,576.3z"/>
			<path class="st3" d="M169.6,567.8c0,0,15.9,30.9,45.4,39"/>
		</g>
		<g>
			<path class="st4" d="M217.3,605.2c-9.7-9.4-8.8-34.9,14-37.5c0,0-1.3-13.7,12.7-15c0,0-0.4-10.1,10.9-10.3
				c11.3-0.2,13.7,16,4.2,19c0,0,7.5,15.9-6.9,21.5C258.2,605.5,234.6,622.2,217.3,605.2z"/>
			<path class="st3" d="M217.3,605.2c0,0,26.9-5.4,32.7-43"/>
		</g>
	</g>
	<g>
		<g>
			<path class="st1" d="M136.1,667.5c0,0,1-5.8,11-13c0,0,9.2,0,16.2-4.7c0,0,2.4,5.5,12.6,2.9c0,0-2.2,7.3,10.6,7.6
				c0,0,0.9,5.9,7.3,7.2c0,0,0.3,3.3,0,5.7C193.5,675.7,136.1,667.5,136.1,667.5z"/>
			<path class="st3" d="M163.3,649.8c0,0-4.6,3.7-7.3,10.7"/>
			<path class="st3" d="M175.9,652.6c0,0-4.2,3.8-6.2,8.7"/>
			<path class="st3" d="M186.5,660.2c0,0-3.4,2.3-4.8,5.6"/>
			<path class="st3" d="M193.8,667.5c0,0-2.9,1.6-3.6,3.4"/>
		</g>
		<g>
			<path class="st1" d="M129.1,672.5c-13.1,11.1-16.5,25.5-17.3,31.6c-0.3,1.9,0.5,3.7,2,4.8c3.8,2.8,12.3,7.9,25.5,9
				C152.1,688.2,129.2,672.6,129.1,672.5z"/>
			<path class="st11" d="M226.5,683.7c0-4.8,8.3-12.2,5.5-14.1c-2.9-1.8-15.1,9.9-28.5,8.3c-10.4-1.3-29-27-60.1-14.1
				c-5.8,2.4-10.5,5.4-14.3,8.6c0.1,0.1,23,15.7,10.1,45.4c5.3,0.4,11.3,0.3,18-0.9c30.4-5.3,35.6-21,44.9-25.9
				c1.9-1,4.2-1.1,6.3-0.3c12.1,4.7,25.8,7.7,27.5,3.5C237.3,691,226.5,689.9,226.5,683.7z"/>
		</g>
		<path class="st3" d="M135.1,678.2c0,0,29-14.6,60.2,4"/>
		<ellipse class="st12" cx="121.2" cy="698.4" rx="0.7" ry="1.3"/>
		<g>
			<path class="st2" d="M167.5,697.1c-1.7-4.9-20-3-20-3v0c0.4,2.6,0.6,5.5,0.2,8.4l0,0c0,0,3.6,1.8,8.2,2.9
				C159.5,706.2,168.4,699.6,167.5,697.1z"/>
		</g>
		<path class="st3" d="M147.8,696.6c0,0,12.2-0.1,18.4,3.5"/>
		<path class="st3" d="M148,699.6c0,0,9.9,1.2,14,3.9"/>
		<path class="st3" d="M170.7,706.2c0,0,2.4,0.5,4.6,0"/>
		<path class="st3" d="M176.8,703c0,0,2.6,0.6,4.4-0.5"/>
		<path class="st3" d="M180.3,699.6c0,0,2.5-0.3,4.4-2"/>
		<path class="st3" d="M169.6,702.8c0,0,1.9,0.5,3.3,0"/>
		<path class="st3" d="M174.4,699.6c0,0,1.6,0.6,2.7,0.4"/>
		<path class="st3" d="M178.4,696.1c0,0,2.1,0.1,3.2-0.8"/>
		<path class="st3" d="M162.9,683.3c0,0,2.4-0.2,4,0.7"/>
		<path class="st3" d="M157,685.3c0,0,1.2-1.3,2.3-1.3"/>
		<path class="st3" d="M159.3,689.2c0,0,1-1.4,2.1-1.3"/>
		<path class="st3" d="M164.9,686.5c0,0,1.6-0.2,2.7,0.6"/>
		<path class="st3" d="M180,684c0,0,2.2-0.2,3.2,0.7"/>
		<path class="st3" d="M187.2,685.3c0,0,2.3,0.6,3.1,1.5"/>
		<path class="st3" d="M190.6,689.2c0,0,2.3,0.5,3.2,1.4"/>
		<path class="st3" d="M182,687.1c0,0,2.2,0.1,2.6,0.8"/>
		<path class="st3" d="M184,681.8c0,0,1.5,0.4,2.1,1"/>
		<path class="st3" d="M195.3,687.1c0,0,1.9,0.7,2.2,1.5"/>
		<path class="st3" d="M148,670.9c0.7-0.1,2.3-0.8,3.5-0.6"/>
		<path class="st3" d="M144,667.5c0,0,1.8-0.9,2.4-0.7"/>
		<path class="st3" d="M153.4,667.5c0,0,2.3-0.6,3.6,0"/>
		<path class="st3" d="M151.1,665.1c0,0,1.6-0.9,2.3-0.8"/>
		<path class="st3" d="M158.1,664.7c0,0,2.3-0.2,3,0.4"/>
		<path class="st3" d="M175.9,669.5c0,0,3,0.7,4.1,2.1"/>
		<path class="st3" d="M169.6,668.6c0,0,2.2,0.1,2.9,0.5"/>
		<path class="st3" d="M172.8,670.9c0,0,1.5,0.4,2.1,0.8"/>
		<path class="st3" d="M174.4,665.8c0,0,1.6,0.9,1.9,1.3"/>
		<path class="st3" d="M143.2,681.1c0,0,8.2,14.4,3.2,27.4"/>
	</g>
	<path class="st10" d="M228.6,657.7c-1.2-7,15.9-10.2,25.4-7.2c9.5,3,17.2-2.2,29.9,1.4c12.6,3.6,12.1,6.5,10.6,8.2
		s-7.5-2.3-15.9,2.8c-8.5,5.1-22.7,0.1-32.3-1.3C236.6,660.3,229.3,662.2,228.6,657.7z"/>
	<path class="st10" d="M309.2,676.8c2.1-3.3,20.5,5.5,29.2,13.2c8.6,7.8,9.3,11.2,3,12.1c-6.3,0.9,1.8,10-2,11.5
		c-2.4,0.9-9-4.1-15.5-7.5c-9.3-4.8-27.9-12.3-24.8-18c2.1-3.9,12.8,7.4,17.2,1C319.2,685,306.9,680.4,309.2,676.8z"/>
	<path class="st10" d="M98,735.9c-1.3-6.2,8.6-10.1,18.5-9.3s2.5,5.3,3.9,7.2c1.4,1.9,2.8,7.7-2,8.8c-4.8,1.1-6-3-10.4-2.7
		C103.7,740.1,98.9,739.9,98,735.9z"/>
	<path class="st10" d="M67.4,724c-4.2-4.7,3.5-12.8,12.2-19.9c10.7-8.8,18.4-10.1,19.3-6.8c1.1,4-11.2,9.1-11,15.5
		C88.1,717.1,73.9,731.2,67.4,724z"/>
	<path class="st10" d="M154.4,753.6c-1.4-3.7,6.5-5.7,7.8-11.8c1.2-6.1,11.4-14.8,14.8-12.8c3.1,1.9,2.4,6.5-3.8,13.1
		C167.2,748.5,156.8,759.8,154.4,753.6z"/>
	<path class="st3" d="M250.5,799.7c0,0,1.2-1.9,2.7-2.4"/>
	<g>
		<g>
			<path class="st1" d="M197.5,743.7c0,0-2.1-4.9-5.1-4.7c0,0,11.7-5.8,13.8-19.9c0,0,8.4,0,14-4.2c5.6-4.2,2.7-12.4,2.7-12.4
				s11.3,1,15.9-3.9c4.6-4.9,3.1-8.8,3.1-8.8s35.9-2,51,18.6C308,729,197.5,743.7,197.5,743.7z"/>
			<path class="st3" d="M248.3,696.1c0,0,15.6,4.5,22.3,12"/>
			<path class="st3" d="M240.6,704.1c0.9,0,10.3,2.7,15.4,6.5"/>
			<path class="st3" d="M233.8,709.7c0,0,8.4,1,12,3.8"/>
			<path class="st3" d="M226.4,715.9c0,0,5.1,0.9,7.4,2.4"/>
			<path class="st3" d="M217.3,721.6c0.5,0,4.4,0.5,6.4,1.7"/>
		</g>
		<g>
			<path class="st11" d="M283.8,707.6c-20.2-0.7-42.8,5.4-63.4,17.7c-42.8,25.6-57.1,77.4-57.1,77.4s45.1,25.2,97.7,12.6
				c27.3-6.5,44.7-20.5,55.6-35.1C275.4,755.6,283.7,707.9,283.8,707.6z"/>
			<path class="st1" d="M332.2,730.2c-11-14.5-28.5-21.8-48.4-22.5c-0.1,0.3-8.4,48,32.9,72.7c11.8-15.7,16.2-32,17.7-40.2
				C335.1,736.6,334.3,733,332.2,730.2z"/>
		</g>
		<path class="st3" d="M283.7,728.7c0,0-81.1,26.2-110.7,78.8"/>
		<g>
			<path class="st2" d="M282,757.9c-9.7-0.3-31.4,12-24.8,21.2c3.9,5.5,30.2-2.7,29.8-14.1c0,0,0,0,0,0c-1.6-2.1-2.9-4.3-4-6.5
				C282.4,758.1,282,757.9,282,757.9z"/>
		</g>
		<path class="st3" d="M256,776.4c0,0,15-13.2,28.1-15.9"/>
		<path class="st3" d="M258.8,780.3c0,0,18.4-7.2,27.4-16.4"/>
		<path class="st3" d="M277.4,742.1c0,0,3.9,23.2,19.3,31.7"/>
		
			<ellipse transform="matrix(0.8965 -0.4431 0.4431 0.8965 -290.2974 215.9176)" class="st12" cx="316.9" cy="729.2" rx="1.2" ry="2.4"/>
		<path class="st3" d="M251,721.6c0.5-0.2,2.9-1,4.5-0.9"/>
		<path class="st3" d="M246.6,727.9c0,0,1.3-1.4,3.2-2.1"/>
		<path class="st3" d="M256,723.4c0,0,3.3-1.2,5.2-0.9"/>
		<path class="st3" d="M251,728.7c0,0,2.7-1.7,4.5-1.9"/>
		<path class="st3" d="M259.4,726.3c0.2,0,2.1-0.4,3.3,0"/>
		<path class="st3" d="M252.7,717.1c0,0,3.1-0.5,4.4,0"/>
		<path class="st3" d="M213.6,751.4c1-0.8,3-2.4,4.7-2.8"/>
		<path class="st3" d="M219.8,743.7c0,0,2.8-2.3,4.2-2.2"/>
		<path class="st3" d="M226.1,745c0,0,2.8-1.6,4.2-1.2"/>
		<path class="st3" d="M223.5,735.4c0,0,1.2-1.5,3-1.6"/>
		<path class="st3" d="M226.1,737.8c0,0,2.3-1.9,4.6-1.9"/>
		<path class="st3" d="M229.5,739.8c0,0,2-0.8,3.6-0.3"/>
		<path class="st3" d="M217.2,742.3c0,0,1.1-1.6,2.5-1.6"/>
		<path class="st3" d="M237.4,768.9c0,0,2.1-1.8,3.6-1.7"/>
		<path class="st3" d="M237.4,773.7c0,0,1.9-1.7,3.6-2"/>
		<path class="st3" d="M248,772.1c0,0,2.5-1.8,4.6-2"/>
		<path class="st3" d="M244.9,769.3c0,0,1.4-0.9,2.6-1"/>
		<path class="st3" d="M243.8,764.8c0,0,1-1.7,2.4-1.6"/>
		<path class="st3" d="M243.1,760.3c0,0,1.9-2.2,3.7-1.7"/>
		<path class="st3" d="M249.7,764c0,0,1.1-0.8,2.3-0.8"/>
		<path class="st3" d="M215.5,773.7c0,0,2.2-1.4,4.4-1.6"/>
		<path class="st3" d="M217.2,777c0.6-0.3,2.2-1.1,3.4-0.9"/>
		<path class="st3" d="M212.9,784.4c0,0,2.1-1.9,4.3-1.9"/>
		<path class="st3" d="M209.4,782.1c0,0,1.7-1.4,2.6-1.4"/>
		<path class="st3" d="M205.5,790.4c0.2-0.1,1.3-1.1,2.1-1.2"/>
		<path class="st3" d="M213.7,789.8c0,0,1.7-1.1,2.4-1.2"/>
		<path class="st3" d="M220.6,783.4c0,0,1.9-0.9,3.4-1"/>
		<path class="st3" d="M223.2,778.1c0,0,1.9-1,3.4-1.1"/>
		<path class="st3" d="M247.7,791.6c0,0,1.4-1.9,2.8-2.1"/>
		<path class="st3" d="M244.7,797.3c0,0,1.6-1.9,2.6-2.1"/>
		<path class="st3" d="M251.4,794.5c0,0,0.9-1.3,2.3-1.7"/>
		<path class="st3" d="M246.1,785.7c0.8-0.6,1.3-1.3,2.1-1.6"/>
		<path class="st3" d="M251.9,786.7c0.4-0.2,1.6-1.7,2.4-1.7"/>
		<path class="st3" d="M256.7,787.9c0.4-0.4,0.9-1.2,1.8-1.6"/>
	</g>
	<g>
		<circle class="st13" cx="355.6" cy="718.5" r="3.2"/>
		<circle class="st13" cx="366.7" cy="721.7" r="2.9"/>
		<circle class="st13" cx="355.9" cy="727.8" r="2.9"/>
		<circle class="st13" cx="362.5" cy="737.9" r="2.9"/>
		<circle class="st13" cx="371.6" cy="732.1" r="2.9"/>
		<path class="st14" d="M357.5,720.9c0,0,14.6,18.6,19.8,35.3"/>
		<polyline class="st14" points="358.2,729.5 365.1,731.6 366.7,724.6 		"/>
		<polyline class="st14" points="365.2,739.1 371,741.9 371.6,735 		"/>
	</g>
	<path class="st10" d="M368.2,699c2.6-3.8,21.4,9.5,17,13.5c-1.7,1.5-4.8-2-7.2-5C374.2,702.9,366.4,701.7,368.2,699z"/>
	<g>
		<g>
			<path class="st0" d="M100.2,542.7c2.8-3.9,13.6,3.2,13.6,3.2s-2.4-6.2,1.3-7.1s10.6,9.7,10.6,9.7s-1-3.7,1.2-4.9
				c3.5-1.9,14.8,11.4,15.3,31.1c0,0-20.4,1.4-31.8-3.7c-11.3-5.1-7.5-10.1-2.3-10.3c0,0-6.7-1.9-6-5.3c0.7-3.4,5-1.3,5-1.3
				S96.6,547.7,100.2,542.7z"/>
			<path class="st3" d="M106.4,547.8c0,0,18.8,7.2,34.8,27.1"/>
		</g>
		<g>
			<path class="st0" d="M151.6,520.6c4,0,2.3,12.5,2.3,12.5s2.2-3.4,4.7-1.6c2.5,1.8-3.1,12.3-3.1,12.3s4.6-4.6,7.2-2.6
				c2.6,1.9,1.9,19.8-15.6,35c0,0-10.4-11.3-12.4-23.6c-2-12.3,2.2-13.2,4.9-8.1c0,0-1.1-11.9,1.6-13c2.8-1.1,4.7,3.8,4.7,3.8
				S147.1,520.6,151.6,520.6z"/>
			<path class="st3" d="M150,528.9c0,0-4.7,23.9-2.9,47.3"/>
		</g>
	</g>
	<path class="st0" d="M435.6,467.9c4-1.3,10.1,3.4,9.8,19.1c0,0,3.7-8.1,8.5-6s4.2,20.6,1.1,28.6c0,0,4.6-6.2,9.8-3.4
		c5.2,2.8-1.9,22.3-1.9,22.3s3.6-4.4,5.6-1.1c2,3.3,2.5,20-16.4,31.4c0,0-30.2-28.8-22.3-50.2c0,0-7.8-16.3-3-21.8
		c3.9-4.5,8.9,3.2,8.9,3.2S427.4,470.6,435.6,467.9z"/>
	<g>
		<path class="st0" d="M449.2,573.2c0,0,8.5-14.2,14.7-15.8c6.2-1.6,3.2,6.7,3.2,6.7s6.2-9.8,18.9-14.9s16.8-0.2,12.7,5.5
			c0,0,5.2-4.5,14.9-5.3c9.7-0.9,5.6,7.9,3.7,9.6c0,0,10-3.8,12.2,0c2.1,3.8-9,8.9-9,8.9s7.5,0.7,6.5,6.5c-0.9,5.7-17.5,8-23.7,8.7
			c0,0,12.2,0.3,11.5,5.5c-0.7,5.2-22.4,10.5-56.9,6.5C423.4,590.9,449.2,573.2,449.2,573.2z"/>
		<path class="st3" d="M514.8,567.8c0,0-23.5,18-74.5,16.6"/>
	</g>
	<g>
		<path class="st4" d="M511.4,772.9c1.5-2.6,4.5-7.2,15.8-9.3s17,0.1,23.2-3.6c0,0-15.6,26.7-39.9,17
			C510.5,777,510.6,774.3,511.4,772.9z"/>
		<path class="st3" d="M510.5,777c0,0,21.2-3.1,39.9-17"/>
		<path class="st3" d="M533.8,762.7c0,0-2.3,6.2-5.9,9.4"/>
		<path class="st3" d="M524.2,764.3c0,0.5-3.7,9.1-6.5,11.1"/>
		<path class="st3" d="M526.9,772.5c0,0,3.3,1.8,10.7,1.1"/>
		<path class="st3" d="M516.7,775.7c0,0,4.6,2.6,10.1,2.8"/>
	</g>
	<g>
		<g>
			<path class="st1" d="M529,666.7l-9,4.8l-8.7-5.3l-3.7,4.9c0,0,7.8,6.6,7.4,21.5l4.4,0.1l4.4,0.1c0.4-14.9,8.6-21,8.6-21
				L529,666.7z"/>
			<line class="st15" x1="519.6" y1="679.1" x2="519.8" y2="672.5"/>
			<path class="st2" d="M541.8,654.3c0.2-0.8,0.4-1.7,0.4-2.6c0.2-5.8-4.4-10.6-10.1-10.7c-0.5,0-1,0-1.5,0.1c-1-4.6-5-8.1-9.9-8.3
				c-4.9-0.1-9.1,3.1-10.3,7.6c-0.4-0.1-0.8-0.1-1.2-0.1c-5.8-0.2-10.6,4.4-10.7,10.1c0,0.9,0.1,1.7,0.2,2.5
				c-3.3,1.3-5.8,4.2-6.5,7.9c-1,5.7,2.8,11.1,8.4,12.1c4.1,0.7,8-1.1,10.3-4.2c1.8,2.9,4.9,4.8,8.5,4.9c3.6,0.1,6.9-1.6,8.8-4.4
				c1.8,2.8,4.9,4.8,8.5,4.9c5.8,0.2,10.6-4.4,10.7-10.1C547.7,659.8,545.4,656.1,541.8,654.3z"/>
		</g>
		<path class="st4" d="M490.4,682.4c1.6-7,9.2-7.7,12.6-4.7c4,3.7,4.1,9.5,14.1,10.7c6.3,0.7,4.1,8.7-7.7,8.6
			C494.6,696.8,489.1,687.9,490.4,682.4z"/>
		<path class="st4" d="M548.7,683.6c-1.3-7-8.9-8.1-12.4-5.1c-4.1,3.5-4.5,9.3-14.5,10.1c-6.4,0.5-4.4,8.6,7.3,8.9
			C543.9,697.8,549.7,689.1,548.7,683.6z"/>
	</g>
	<g>
		<g>
			<g>
				<path class="st1" d="M467,617.3l-9,4.8l-8.7-5.3l-3.7,4.9c0,0,7.8,6.6,7.4,21.5l4.4,0.1l4.4,0.1c0.4-14.9,8.6-21,8.6-21
					L467,617.3z"/>
				<line class="st15" x1="457.6" y1="629.7" x2="457.7" y2="623.1"/>
				<path class="st2" d="M479.8,604.9c0.2-0.8,0.4-1.7,0.4-2.6c0.2-5.8-4.4-10.6-10.1-10.7c-0.5,0-1,0-1.5,0.1c-1-4.6-5-8.1-9.9-8.3
					c-4.9-0.1-9.1,3.1-10.3,7.6c-0.4-0.1-0.8-0.1-1.2-0.1c-5.8-0.2-10.6,4.4-10.7,10.1c0,0.9,0.1,1.7,0.2,2.5
					c-3.3,1.3-5.8,4.2-6.5,7.9c-1,5.7,2.8,11.1,8.4,12.1c4.1,0.7,8-1.1,10.3-4.2c1.8,2.9,4.9,4.8,8.5,4.9c3.6,0.1,6.9-1.6,8.8-4.4
					c1.8,2.8,4.9,4.8,8.5,4.9c5.8,0.2,10.6-4.4,10.7-10.1C485.7,610.4,483.4,606.7,479.8,604.9z"/>
			</g>
			<path class="st4" d="M428.4,633c1.6-7,9.2-7.7,12.6-4.7c4,3.7,4.1,9.5,14.1,10.7c6.3,0.7,4.1,8.7-7.7,8.6
				C432.6,647.4,427.1,638.5,428.4,633z"/>
			<path class="st4" d="M486.7,634.2c-1.3-7-8.9-8.1-12.4-5.1c-4.1,3.5-4.5,9.3-14.5,10.1c-6.4,0.5-4.4,8.6,7.3,8.9
				C481.9,648.4,487.7,639.7,486.7,634.2z"/>
		</g>
		<g>
			<g>
				<path class="st1" d="M471.2,679.1l-9,4.8l-8.7-5.3l-3.7,4.9c0,0,7.8,6.6,7.4,21.5l4.4,0.1l4.4,0.1c0.4-14.9,8.6-21,8.6-21
					L471.2,679.1z"/>
				<line class="st15" x1="461.9" y1="691.5" x2="462" y2="684.9"/>
				<path class="st2" d="M484.1,666.8c0.2-0.8,0.4-1.7,0.4-2.6c0.2-5.8-4.4-10.6-10.1-10.7c-0.5,0-1,0-1.5,0.1c-1-4.6-5-8.1-9.9-8.3
					c-4.9-0.1-9.1,3.1-10.3,7.6c-0.4-0.1-0.8-0.1-1.2-0.1c-5.8-0.2-10.6,4.4-10.7,10.1c0,0.9,0.1,1.7,0.2,2.5
					c-3.3,1.3-5.8,4.2-6.5,7.9c-1,5.7,2.8,11.1,8.4,12.1c4.1,0.7,8-1.1,10.3-4.2c1.8,2.9,4.9,4.8,8.5,4.9c3.6,0.1,6.9-1.6,8.8-4.4
					c1.8,2.8,4.9,4.8,8.5,4.9c5.8,0.2,10.6-4.4,10.7-10.1C490,672.2,487.6,668.5,484.1,666.8z"/>
			</g>
			<path class="st4" d="M432.6,694.8c1.6-7,9.2-7.7,12.6-4.7c4,3.7,4.1,9.5,14.1,10.7c6.3,0.7,4.1,8.7-7.7,8.6
				C436.9,709.2,431.4,700.3,432.6,694.8z"/>
			<path class="st4" d="M491,696c-1.3-7-8.9-8.1-12.4-5.1c-4.1,3.5-4.5,9.3-14.5,10.1c-6.4,0.5-4.4,8.6,7.3,8.9
				C486.2,710.2,492,701.5,491,696z"/>
		</g>
	</g>
	<g>
		<g>
			<path class="st4" d="M269.7,794.2c6.8,2.2,9.6,11,3.9,21.6c-5.7,10.6,0.2,11-3.7,16.3c-3.8,5.4-13,3.8-14.9,11.3
				c-1.9,7.4-7.7-17.1-1.1-37.9C257.3,794.5,264.6,792.6,269.7,794.2z"/>
			<path class="st4" d="M223.4,792c5.8-4.1,18.1-3.5,22.1,9.6c4.4,14.4,11.3,12.2,12.3,23.7c0.8,9.2-3.7,20.3-3.7,20.3s-3.6-6-12-6
				c-7.7,0-12.4-2.8-13-9.9c-0.8-10.2-6.1-8.8-10.4-17.2C213.6,802.8,219,795.1,223.4,792z"/>
			<path class="st15" d="M233.7,806.2c14.2,14,22,31.2,21.1,55.5"/>
			<path class="st15" d="M257.4,823.7c2.6-9.3,5.7-14.7,5.7-14.7"/>
		</g>
		<g>
			<path class="st4" d="M197.5,766.4c6.8,2.2,9.6,11,3.9,21.6s0.2,11-3.7,16.3s-13,3.8-14.9,11.3c-1.9,7.4-7.7-17.1-1.1-37.9
				C185.1,766.6,192.4,764.8,197.5,766.4z"/>
			<path class="st4" d="M151.2,764.2c5.8-4.1,18.1-3.5,22.1,9.6c4.4,14.4,11.3,12.2,12.3,23.7c0.8,9.2-3.7,20.3-3.7,20.3
				s-3.6-6-12-6c-7.7,0-12.4-2.8-13-9.9c-0.8-10.2-6.1-8.8-10.4-17.2C141.4,775,146.8,767.3,151.2,764.2z"/>
			<path class="st15" d="M161.5,778.4c14.2,14,22,31.2,21.1,55.5"/>
			<path class="st15" d="M185.2,795.9c2.6-9.3,5.7-14.7,5.7-14.7"/>
		</g>
		<g>
			<path class="st4" d="M220.5,808.4c6.8,2.2,9.6,11,3.9,21.6s0.2,11-3.7,16.3c-3.8,5.4-13,3.8-14.9,11.3
				c-1.9,7.4-7.7-17.1-1.1-37.9C208.2,808.6,215.4,806.8,220.5,808.4z"/>
			<path class="st4" d="M174.2,806.2c5.8-4.1,18.1-3.5,22.1,9.6c4.4,14.4,11.3,12.2,12.3,23.7c0.8,9.2-3.7,20.3-3.7,20.3
				s-3.6-6-12-6c-7.7,0-12.4-2.8-13-9.9c-0.8-10.2-6.1-8.8-10.4-17.2C164.4,817,169.8,809.3,174.2,806.2z"/>
			<path class="st15" d="M184.6,820.3c14.2,14,22,31.2,21.1,55.5"/>
			<path class="st15" d="M208.2,837.8c2.6-9.3,5.7-14.7,5.7-14.7"/>
		</g>
	</g>
	<g>
		<path class="st6" d="M357.4,686.1c-7.6-10.2-1.1-24,17.7-36.4s36.3-11.1,48.5,4.4c12.2,15.5,17,19,14.6,30.7
			c-2.4,11.8-11.3,13.1-22,12.4c-10.7-0.7-13.7,3-27.7-4.4C377.1,686.8,362.6,693,357.4,686.1z"/>
		
			<ellipse transform="matrix(0.5608 -0.8279 0.8279 0.5608 -372.7653 603.6917)" class="st10" cx="382.7" cy="653.2" rx="2" ry="1.8"/>
		
			<ellipse transform="matrix(0.6422 -0.7666 0.7666 0.6422 -374.1854 520.7897)" class="st10" cx="370.7" cy="661.2" rx="4.4" ry="2.7"/>
		
			<ellipse transform="matrix(0.6422 -0.7666 0.7666 0.6422 -381.161 524.478)" class="st10" cx="371.2" cy="670.5" rx="5.3" ry="2"/>
	</g>
	<g>
		<g>
			<path class="st2" d="M118.4,602.1c0,0-16.9-13.7-12.4-34.3c4-18.5,22.8-15.3,25.7-2C135,581.5,129.7,592.2,118.4,602.1z"/>
			<path class="st2" d="M118.9,564.5c0,0,4.2,20.6-0.5,37.6"/>
		</g>
		<g>
			<path class="st2" d="M151.6,569.8c19.4,8.7,9.9,61.6-22,72.6C103.5,623.1,119.9,555.6,151.6,569.8z"/>
			<path class="st2" d="M145.1,585.2c0,0-19.5,23.1-15.5,57.2"/>
			<path class="st2" d="M131,585.2c0,0-1.9,3.2-2.8,5.2"/>
			<path class="st2" d="M131,601.2c0,0-1.2,2.2-1.4,4"/>
			<path class="st2" d="M131.6,592.1c0,0-2,2.8-2,4.6"/>
			<path class="st2" d="M138.4,580.1c0,0-1.4,0.9-1.9,2.8"/>
			<path class="st2" d="M139.1,585.2c0,0-1.2,1.8-1.6,3.5"/>
			<path class="st2" d="M149,593c0,0-0.5,1.9-2,3.7"/>
			<path class="st2" d="M145.1,601.2c0,0-0.4,1.6-1.3,2.9"/>
			<path class="st2" d="M151.1,605c0,0-1,2.3-3.1,4.4"/>
			<path class="st2" d="M151.1,596.1c0,0-0.1,1.3-1.6,3.6"/>
			<path class="st2" d="M155.6,596.1c-0.1,0.4-0.7,2.5-2.1,3.6"/>
			<path class="st2" d="M153.5,585.2c0,0-0.5,2.4-1.6,4"/>
		</g>
		<g>
			<path class="st2" d="M82.2,572.7c8.9-7.6,30.7-7.5,38.3,15.6c7.6,23.1-6.3,24.7,9.1,54l-13,11.1
				C116.6,653.4,48.6,601.7,82.2,572.7z"/>
			<path class="st2" d="M95.1,587.1c0,0,18.5,25.5,24.5,63.7"/>
			<path class="st2" d="M87.1,586.2c0,0,2.2,2,3.3,4.8"/>
			<path class="st2" d="M82.6,589.9c0,0,2,1.4,3.1,3.7"/>
			<path class="st2" d="M94.2,599.2c0,0,1.9,2.1,3,5.8"/>
			<path class="st2" d="M108.4,602.1c0,0,0.9,1.6,1.5,4.2"/>
			<path class="st2" d="M113.6,604.2c0,0,1.7,3.8,2,7.1"/>
			<path class="st2" d="M108.4,589.4c0,0,0.6,4,0.8,5.4"/>
			<path class="st2" d="M100.2,576.8c0,0,0.9,1.5,1.5,3.3"/>
			<line class="st2" x1="111.1" y1="586.2" x2="111.7" y2="588.6"/>
			<path class="st2" d="M115.6,594.2c0,0,0.6,2.9,0.5,5.1"/>
		</g>
		<g>
			<path class="st2" d="M37.6,629.8c-2.8-25.5,27.6-37.4,44.7-28.9c17.7,8.8,27.7,29.3,31.9,43.3l-1.7,8c0,0-5.3-7.1-25.1-2.3
				S40.4,655.9,37.6,629.8z"/>
			<path class="st2" d="M60.5,625.5c0,0,29-6.8,53.2,21.4"/>
			<path class="st2" d="M52,633.9c0,0,3.4-0.6,5.4,0"/>
			<path class="st2" d="M57.4,642.4c0,0,3.4-0.6,5.8,0"/>
			<path class="st2" d="M71,635c0,0,2.8,0,4.8,0.4"/>
			<path class="st2" d="M89.8,638.4c0,0,2.7,0.2,4.8,1.7"/>
			<path class="st2" d="M74.4,640.1c0,0,3.3-0.2,4.7,0.5"/>
			<path class="st2" d="M61.4,612.1c0,0,3,0.2,4,1"/>
			<path class="st2" d="M75,614.8c0,0,3,0.9,4.2,1.6"/>
			<path class="st2" d="M68.1,606.3c0,0,3.8,0.7,5.3,1.8"/>
			<path class="st2" d="M85.3,610.6c0,0,3,0.8,4.5,2.6"/>
			<path class="st2" d="M92.2,620c0,0,1.5,0.5,2.9,3.1"/>
		</g>
	</g>
	<g>
		<path class="st6" d="M110.3,657.4c-5-10.9,11.3-43.3,30.2-45.9s32.6,21.2,32,30.5C171.9,651.3,115.1,668,110.3,657.4z"/>
		
			<ellipse transform="matrix(0.3101 -0.9507 0.9507 0.3101 -527.5604 557.7)" class="st10" cx="120.5" cy="642.4" rx="4.7" ry="2.2"/>
		
			<ellipse transform="matrix(0.3101 -0.9507 0.9507 0.3101 -516.3142 560.7392)" class="st10" cx="128.2" cy="636.1" rx="3.1" ry="1.9"/>
		
			<ellipse transform="matrix(0.6387 -0.7694 0.7694 0.6387 -438.8986 323.3127)" class="st10" cx="124.8" cy="629" rx="2.1" ry="1.4"/>
	</g>
	<g>
		<g>
			<g>
				<path class="st4" d="M514.9,762.6c0,0,6.6-14.4,14.7-18.5l2.2,1.9c0,0-6.9,4.6-14.7,18.9L514.9,762.6z"/>
				<g>
					<g>
						<path class="st1" d="M571.7,765.5c8-2.5,12.5-15.9,2.6-27.2c-9.6-11-18.2-8-18.2-8s-5.7,11.8-1.4,24.8
							C558.4,766.1,566.5,767.2,571.7,765.5z"/>
						<path class="st3" d="M565.5,765.9c0,0-7.7-12.7-9.4-35.6c12.4,13.9,15.5,35.2,15.5,35.2"/>
						<path class="st3" d="M576.9,761.7c0,0-1-20.4-20.8-31.3"/>
					</g>
					<g>
						<path class="st1" d="M523.4,746c-7.7-14.6,3.8-23.8,21.9-24.7c18.1-0.9,17.2,21.9,3.6,28.8C535.3,757.1,526.2,751.4,523.4,746
							z"/>
						<path class="st3" d="M523.4,746c0,0,12.3-12.7,33.7-19.5"/>
						<path class="st3" d="M520.9,736.9c0,0,13-8.6,35.2-11.6"/>
						<path class="st3" d="M536.1,753.3c0,0,8.2-19.4,21.7-25.4"/>
					</g>
					<g>
						<path class="st1" d="M520,700.7c6-7.3,17.9-9.7,26.4,2.3c6.5,9.2,7.9,19.5,2.4,21.1c-5.5,1.6-14.3,2.2-24.6-4.2
							C514,713.6,517,704.3,520,700.7z"/>
						<path class="st3" d="M550.7,723.2c-11-14.8-29.7-23.6-29.7-23.6"/>
						<path class="st3" d="M517.2,709.2c0,0,24.4,8.9,31.7,15"/>
						<path class="st3" d="M528.6,695.3c0,0,16,8.6,23.8,25.5"/>
					</g>
					<g>
						<path class="st1" d="M561.9,691.2c9.8,1.3,13.8,11,6.6,23c-7.2,12-11.8,10.8-14.6,8.5c-2.8-2.3-6.3-9.5-5.7-19.1
							C548.8,694.7,556.2,690.4,561.9,691.2z"/>
						<path class="st3" d="M555,723.4c10-19.5,6.8-32.2,6.8-32.2"/>
						<path class="st3" d="M555,692.9c0,0,2.2,13.2-2.6,27.9"/>
						<path class="st3" d="M569.7,695.3c0,0-2.2,18.4-12.7,29"/>
					</g>
					<g>
						<path class="st1" d="M592.5,725.2c0.9-9.8-8.2-15-18.2-13.3c-10,1.7-17.3,12-18.9,15.1c0,0,7.6,10.7,23.1,9.8
							C589.5,736.2,592,730.3,592.5,725.2z"/>
						<path class="st3" d="M592.5,725.2c0,0-16.3-6.3-37.1,1.8c0,0,15.5-14.4,34.2-10.9"/>
						<path class="st3" d="M588.2,733.8c0,0-14.3-7.4-32.8-6.8"/>
					</g>
				</g>
				<path class="st4" d="M536.3,719.4c1.6-4.7,15.2-4.6,23.9,5.3c8.7,9.8,2.9,12,0,9.1c0,0-1.1,8.5-5.4,7.6
					c-4.4-0.9-4.1-7.5-4.1-7.5s-8,4.5-9.3-0.1c-1.3-4.6,3.8-7.4,3.8-7.4S534.9,723.4,536.3,719.4z"/>
				<g>
					<path class="st5" d="M550.8,727.4c0,0-1-6.3,2.5-13.2c3.4-6.9,7.4-8.5,6.9-4.3S556.5,722.4,550.8,727.4z"/>
					<path class="st5" d="M550.7,727.5c0,0,7-4.7,13.7-4.7c6.7,0,8.2,4,1.6,5.7C559.5,730.1,550.7,727.5,550.7,727.5z"/>
					<path class="st5" d="M551,727.4c0,0,2.8-6.2,8.7-9s9-0.6,6,2.2S557.1,726.2,551,727.4z"/>
				</g>
			</g>
			<g>
				<path class="st4" d="M472.3,756.9c0,0,9-19.8,23.5-31.6c0,0,2,1.3,0.8,1.7c-1.2,0.4-14.7,21.8-19.4,34.6
					C477.3,761.7,472,764.4,472.3,756.9z"/>
				<path class="st1" d="M485.5,741.5c3.3,2,9.9,0.5,10.8-6c1-6.9-0.5-10.2-0.5-10.2s-6.6-1.3-11.6,5.3
					C479.8,736.2,483.3,740.2,485.5,741.5z"/>
				<g>
					<path class="st1" d="M469.2,720.2c0.8-6.3,8.2-9.9,16.3-6.4s9.9,10.2,9.9,10.2s-3.5,6.8-15.1,6.3
						C468.7,729.7,468.7,723.7,469.2,720.2z"/>
					<path class="st15" d="M469,723.2c0,0,11.5-3.6,26.4,0.8c-14.8-10.3-25.5-6.3-25.5-6.3"/>
				</g>
				<g>
					<path class="st1" d="M487.9,703.6c4.2-2.6,10.6,0.3,11.8,7.8c1.3,7.4-2.6,13.1-2.6,13.1s-6.3-3.3-9.8-8.4
						C484,711,484,706,487.9,703.6z"/>
					<path class="st1" d="M486.3,705c0,0,8.4,9.4,9.8,19.2"/>
					<path class="st15" d="M490.2,702.7c0,0,7.8,10.6,7,21.7"/>
				</g>
				<g>
					<path class="st1" d="M503.8,750.9c5-0.4,7.3-8.4,2.9-14.6c-4.2-6-9.8-7.7-9.8-7.7s-3.3,8.4-1.6,15.5
						C496.6,749.2,500.3,751.2,503.8,750.9z"/>
					<path class="st15" d="M505.9,750.2c0,0,1.4-13.8-8.9-21.6c5.1,8.6,4.8,22.3,4.8,22.3"/>
				</g>
				<g>
					<path class="st1" d="M513.7,736.2c2.6-3.2,1-7.7-2.3-10.2c-3.3-2.4-8.1-3-13.2-2.4c0,0-0.9,7.2,5.2,11.4
						C508.7,738.7,512.4,737.8,513.7,736.2z"/>
					<path class="st15" d="M514.5,735c0,0-7.3-9.4-16.2-11.3c4.4,4.7,14.3,13.6,14.3,13.6"/>
				</g>
				<g>
					<path class="st1" d="M510.3,713.5c2.9,3,0.7,11.5-13.1,12c0,0,0-7.7,4.6-11.5C505.1,711.4,508.7,711.9,510.3,713.5z"/>
					<path class="st1" d="M509,712.7c0,0-9.1,6.5-11.8,12.9"/>
				</g>
				<path class="st4" d="M487.9,724c-0.3-3.2,6.3-3.2,9.6-0.8c3.3,2.4,5.5,6.5,3.4,8.6c-2,2-4.1-1.9-4-3.2c0,0-2.1,3-3.8,1.5
					c-1.7-1.5,0.7-4,0.7-4S488.2,727.6,487.9,724z"/>
				<g>
					<path class="st5" d="M495.2,715.3c1.9,0.1,2.4,7.5,1,8.9c-1.4,1.3-2.4-2.1-2.4-5.1C493.8,717,494.1,715.2,495.2,715.3z"/>
					<path class="st5" d="M501.1,719.1c0.9,0.8-0.4,3.2-2,4.7c-1.3,1.3-2.7,2-3.4,1.1s0.4-3.1,2-4.5
						C499.2,719.1,500.5,718.5,501.1,719.1z"/>
					<path class="st5" d="M496.7,725.6c-0.3-0.9,1.4-2.4,3.5-3.2c2.1-0.8,4-0.4,4.1,0.4c0.2,0.8-0.7,1.6-3.3,2.6
						C499,726.1,497,726.5,496.7,725.6z"/>
				</g>
			</g>
		</g>
		<g>
			<path class="st2" d="M419.4,692.8c22.6-9.3,53.5,36.2,21.5,84.4C419.6,773.3,388.5,705.5,419.4,692.8z"/>
			<path class="st2" d="M425.7,709.7c0,0,16.9,24.1,15.2,67.6"/>
			<path class="st2" d="M415.5,714.4c0,0,1.9,2.9,2.8,5.3"/>
			<path class="st2" d="M424.4,725.1c0,0,1.7,3.2,1.9,4.6"/>
			<path class="st2" d="M416.9,729c0,0,2,3,2.1,4"/>
			<path class="st2" d="M424.4,736.6c0,0,1.9,4.2,1.9,5.7"/>
			<path class="st2" d="M439.2,727.4c0,0,1.1,3.7,1,4.6"/>
			<path class="st2" d="M445.4,728.1c0,0,0.9,3.2,0.6,4.9"/>
			<path class="st2" d="M443.2,738.8c0,0,0.2,3.2,0,4.6"/>
			<path class="st2" d="M434.4,712.8c0,0,1.1,2.3,1.1,3.6"/>
			<path class="st2" d="M440.9,713.5c0,0,0.7,1.9,0.9,2.8"/>
		</g>
		<g>
			<path class="st2" d="M384.6,734.2c9.9-9,32.7-9.3,46.4,25.4c13.8,34.7,3.4,62.9,3.4,62.9s-25.7-3.4-43.3-30.8
				S374,743.8,384.6,734.2z"/>
			<path class="st2" d="M396.6,751.7c0,0,22.3,13.9,37.8,70.8"/>
			<path class="st2" d="M411.5,750c0,0,2.3,2.2,3.4,5.5"/>
			<path class="st2" d="M413.9,761.3c0,0,2.2,2.1,3,4.9"/>
			<path class="st2" d="M423.1,766.2c0,0,2.3,2.7,2.6,5.8"/>
			<path class="st2" d="M423.7,775.8c0,0,1.1,2.1,1.2,5.2"/>
			<path class="st2" d="M385.1,751.6c0,0,1.6,2.3,2.2,3.8"/>
			<path class="st2" d="M400.2,744.1c0,0,1.4,1.4,2.3,3.4"/>
			<path class="st2" d="M419.6,751.7c0,0,1.2,1.5,1.9,3.8"/>
			<path class="st2" d="M387.3,764c0,0,0.9,3.1,2.4,4.9"/>
			<path class="st2" d="M405.3,769c0,0,2.6,2.7,2.4,4.2"/>
		</g>
		<g>
			<path class="st2" d="M522,758.2c12.4,20.9-11.7,54.5-68.3,56.9C457.9,753,508.5,735.6,522,758.2z"/>
			<path class="st2" d="M505,767.6c0,0-28.2,7.3-51.3,47.5"/>
			<path class="st2" d="M499.1,779.7c0,0-2.6,1.4-3.6,2.4"/>
			<path class="st2" d="M488.2,785.2c0,0-2.9,1.6-4.2,3.2"/>
			<path class="st2" d="M477.2,794.9c0,0-2.4,1.7-3.7,3.6"/>
			<path class="st2" d="M492.1,791.3c0,0-1.9,1.9-2.5,2.5"/>
			<path class="st2" d="M503.8,788.4c0,0-2.3,1.7-3.2,3"/>
			<path class="st2" d="M508.3,775.8c0,0-2.7,2.2-3.3,3.2"/>
			<path class="st2" d="M500.7,785.2c0,0-1.7,1-2.4,1.9"/>
			<line class="st2" x1="512.6" y1="779.7" x2="511" y2="782.2"/>
			<path class="st2" d="M489.6,761.8c0,0-2.9,1.3-4.2,2.6"/>
			<path class="st2" d="M488.2,767.6c0,0-2.3,2.1-2.9,3.6"/>
			<path class="st2" d="M500.7,763.1c0,0-1.7,0.1-3.4,1.3"/>
		</g>
		<g>
			<path class="st2" d="M467,744.1c18.8,7.1,19.2,50.9-27.8,76.6C416.9,796.7,431,730.5,467,744.1z"/>
			<path class="st2" d="M457.5,758.2c0,0-18.9,18.3-18.3,62.5"/>
			<path class="st2" d="M457.5,771.2c0,0-1.6,1.9-1.9,4.1"/>
			<path class="st2" d="M450.7,786.1c0,0-1.3,2.8-1.6,3.7"/>
			<path class="st2" d="M467.5,784.1c0,0-2.3,3.1-2.8,5.3"/>
			<path class="st2" d="M464.7,766.2c0,0-1.6,2-1.7,2.8"/>
			<path class="st2" d="M463.8,778.4c0,0-1.3,2.1-1.5,3"/>
			<path class="st2" d="M442.6,760.4c0,0-2.1,3.2-2.7,5.8"/>
			<path class="st2" d="M443.9,768.1c0,0-1.6,2.8-1.9,4.5"/>
			<path class="st2" d="M450.7,753.6c0,0-1.4,1.9-1.6,2.9"/>
		</g>
		<g>
			<path class="st2" d="M548.3,806.3c0.5-16.7-33-36.1-82.2,11.1C466.1,817.4,547.2,846.3,548.3,806.3z"/>
			<path class="st2" d="M534.4,808.3c0,0-29.7-13.2-68.3,9.1"/>
			<path class="st2" d="M521.3,797.7c0,0,3.5-1,5.6,0"/>
			<path class="st2" d="M519.6,801.3c0,0,2.7,0,4.1,0.7"/>
			<path class="st2" d="M521.6,792.6c0,0,2.4-0.8,3.8,0"/>
			<path class="st2" d="M509.7,815.7c0,0,3.1,0.3,4,1.3"/>
			<path class="st2" d="M509.7,809.3c0,0,2.8-0.3,4,0.7"/>
			<path class="st2" d="M521.6,816.3c0,0,2.7-0.8,4.7,1.1"/>
		</g>
	</g>
	<g>
		<g>
			<path class="st2" d="M126.5,815.6c0,0-5.8-17.4-3.2-36.3c2.2-15.6,15.1-19.3,23.1-15c8.8,4.8,12.4,19.8,0,33.9
				C134.1,812.2,132.3,825.9,126.5,815.6z"/>
			<path class="st2" d="M140.8,773.9c0,0-8.1,12.7-9.8,37.7"/>
			<path class="st2" d="M131.9,770.6c0,0-1.3,2.8-1.6,4.1"/>
			<path class="st2" d="M134.5,776.8c0,0-0.6,2.1-0.8,3.4"/>
			<line class="st2" x1="146.2" y1="774.7" x2="144.8" y2="777.2"/>
			<line class="st2" x1="142.6" y1="781.6" x2="140.8" y2="785.3"/>
		</g>
		<g>
			<path class="st2" d="M84.8,763.3c8.7-7.2,28.1-9,40.8,10.3c9.4,14.3,12.6,29.9,3.8,63.2c0,0-18.4-11.9-38.4-32.5
				C75.5,788.2,72.2,773.7,84.8,763.3z"/>
			<path class="st2" d="M99.2,775.6c0,0,20.5,21.2,27.3,52.6"/>
			<path class="st2" d="M110.6,781.2c0,0,2.2,2.3,2.9,4.9"/>
			<path class="st2" d="M97,780.2c0,0,1.7,1.8,2.3,2.8"/>
			<path class="st2" d="M85.7,780.2c0,0,2.1,1.8,2.7,2.8"/>
			<path class="st2" d="M87.5,775.6c0,0,1.5,1.2,2,2.2"/>
			<line class="st2" x1="104.4" y1="772.2" x2="105.8" y2="774.7"/>
			<path class="st2" d="M112.9,769.9c0,0,1.5,2.7,1.6,3.5"/>
			<path class="st2" d="M118.2,781.6c0,0,1.9,2.6,2.5,4.5"/>
			<path class="st2" d="M120.7,794.6c0,0,1.2,3.2,1.4,5.2"/>
			<path class="st2" d="M126,788.2c0,0,1,3.3,1.2,4.6"/>
		</g>
		<g>
			<path class="st2" d="M130,851.1c-3.7-1.7-10.5-25.3,1.2-49c13.2-26.8,37-16.9,40.2-2.9s-3.7,25.9-19.8,36.3
				C135.3,845.9,136.4,854,130,851.1z"/>
			<path class="st2" d="M155.3,799.8c0,0-16.3,15.3-23.4,47.3"/>
			<path class="st2" d="M163.8,816.6c0,0-1,2.5-3.4,3.7"/>
			<path class="st2" d="M154.4,821.3c0,0-1.5,1-2.4,2.7"/>
			<path class="st2" d="M147,830.6c0,0-1.5,1.6-2.2,3.1"/>
			<path class="st2" d="M157.7,809.3c0,0-1.3,0.9-1.9,2.4"/>
			<path class="st2" d="M165.8,801.4c0,0,0,2.7-1.1,3.7"/>
			<path class="st2" d="M142.6,808.4c0,0-1.6,2.1-1.8,3.3"/>
			<path class="st2" d="M136.9,822.6c0,0-1.1,1.9-1.6,4.4"/>
			<path class="st2" d="M138.5,803.9c0,0-0.6,1.8-0.9,3.1"/>
			<path class="st2" d="M147,793.2c0,0-1.2,1.9-1.6,4.2"/>
		</g>
		<g>
			<path class="st2" d="M63.4,797.3c13.9-19.6,48.1-11.2,61.3,21.1c5.4,13.2,12,36.2,7.4,38.2c-5.5,2.4-7.5-10.5-38-9.3
				C61.2,848.5,50.9,815,63.4,797.3z"/>
			<path class="st2" d="M83.4,811.7c0,0,30.9,13.8,44.7,37.8"/>
			<path class="st2" d="M85.7,823.4c0,0,3.4,1.5,5.3,3.6"/>
			<path class="st2" d="M88.4,829.6c0,0,3.3,1.6,4.6,3.3"/>
			<path class="st2" d="M74,817.2c0,0,2.9,1.2,4.2,2.5"/>
			<path class="st2" d="M74.8,825.7c0,0,1.9,0.6,3.4,1.8"/>
			<path class="st2" d="M81.1,837.2c0,0,2.6,0.4,4.6,1.5"/>
			<path class="st2" d="M94.8,827.5c0,0,2.2,1.1,3.2,2.1"/>
			<path class="st2" d="M106.7,836.3c0,0,2,0.5,4,1.7"/>
			<path class="st2" d="M106.7,841.1c0,0,2.1,0.6,4,1.8"/>
			<path class="st2" d="M114.5,841.1c0,0,2.1,1.1,3.7,1.8"/>
			<path class="st2" d="M100.3,808.4c0,0,1.7,3,2.6,3.8"/>
			<path class="st2" d="M100.3,800.8c0,0,2.4,3.1,3.1,4"/>
			<path class="st2" d="M108.7,809.3c0,0,1.9,3.2,3.3,4.9"/>
			<path class="st2" d="M110.6,818c0,0,2.6,3.4,3.9,4.7"/>
			<path class="st2" d="M119.3,820.7c0,0,1.5,4.9,2.9,6.7"/>
		</g>
	</g>
	<g>
		<g>
			<path class="st4" d="M435.4,506c8.9,3.7,19.9,27.4-18.9,46.6C405.9,533.4,413.9,497.1,435.4,506z"/>
			<path class="st4" d="M430.7,514.8c0,0-11.9,16.2-14.2,37.8"/>
			<path class="st4" d="M422.9,514.1c0,0-1.7,2.1-1.8,3.5"/>
			<path class="st4" d="M419.7,525c0,0-1.3,2.8-1.1,4.3"/>
			<path class="st4" d="M435.6,515.9c0,0-1.7,1.9-1.6,3.4"/>
			<path class="st4" d="M439.7,517.9c0,0,0.1,3-0.9,4"/>
		</g>
		<g>
			<path class="st4" d="M380.3,479c15.1-7.2,36.9,6.1,35,46.8c-1.8,40.7,12.2,50.3-1.8,50.3C399.5,576,338,499.2,380.3,479z"/>
			<path class="st4" d="M386.2,498.5c0,0,19.3,15.2,19.7,73.9"/>
			<path class="st4" d="M396,497.2c0,0,2,2.7,2.4,6.1"/>
			<path class="st4" d="M403.1,508.9c0,0,1.2,1.5,1,5.9"/>
			<path class="st4" d="M400.2,491c0,0,1.6,2.6,1.6,4.2"/>
			<path class="st4" d="M377,496.5c0,0,2.4,3.9,2.7,6"/>
			<path class="st4" d="M384.7,514.8c0,0,2.2,2.9,2.4,5.6"/>
			<path class="st4" d="M408.3,506c0,0,1.2,2.8,1.1,3.7"/>
			<path class="st4" d="M382.1,488.2c0,0,1.4,1.8,1.6,2.8"/>
		</g>
		<g>
			<path class="st4" d="M451.1,528.9c15.4,7.6,16.2,38.9-12.6,56.6c-26.8,16.5-33.9,26.6-37.7,17.4
				C395.3,590,410.5,508.8,451.1,528.9z"/>
			<path class="st4" d="M444.4,541.4c0,0-28.7,22.9-37.2,56.8"/>
			<path class="st4" d="M422.4,544.6c0,0-2,2.1-2.7,3.6"/>
			<path class="st4" d="M417.3,555.8c0,0-1.6,2-2,3.1"/>
			<path class="st4" d="M429.8,545.7c0,0-1.7,1.8-2.2,2.6"/>
			<path class="st4" d="M434,534.4c0,0-2,1.4-2.6,2.2"/>
			<path class="st4" d="M446.5,550.5c0,0-1.7,2.7-2.1,4.2"/>
			<path class="st4" d="M434.6,568.7c0,0-2.7,2.8-3.2,4.5"/>
			<path class="st4" d="M423.1,584.7c0,0-1.8,2.4-2.7,3.8"/>
			<path class="st4" d="M441.5,567.1c0,0-1.8,3-2.4,4.6"/>
			<path class="st4" d="M447.6,568.7c0,0-1.1,3.3-2.2,3.6"/>
		</g>
		<g>
			<path class="st4" d="M360.2,525c18-9.6,47.4-1.4,48.7,40c1.3,41.4,0.3,47.7-9,42.1c-9.4-5.5-19.6-23.8-43-28.8
				S341,535.2,360.2,525z"/>
			<path class="st4" d="M404.5,604.7c0,0-7-36-31.4-55.6"/>
			<path class="st4" d="M389.3,583c0,0,2,2,2.3,3.5"/>
			<path class="st4" d="M392.5,592.2c0,0,2.1,1.9,2.8,3.4"/>
			<path class="st4" d="M383.1,584.7c0,0,2.1,1.5,3.1,3.2"/>
			<path class="st4" d="M399.5,576c0,0,1.7,2.4,1.7,4.9"/>
			<path class="st4" d="M395.3,558.1c0,0,1.5,3.7,1.3,5.7"/>
			<path class="st4" d="M400.8,558.1c0,0,0.8,2,0.5,4.1"/>
			<path class="st4" d="M396.6,542.9c0,0,1.1,2,1.5,4.4"/>
			<path class="st4" d="M388.2,538c0,0,1,2,1.2,3.4"/>
		</g>
	</g>
	<g>
		<path class="st6" d="M338.1,448.4c1.4,4.8,6.4,9,13.8,11.3c14.6,4.6,27.8,19.7,25.2,36.8c-2.7,17.1-3.8,25,7.9,35.5
			c11.7,10.5,17.3,30.9,8.4,41.6c-7.1,8.6-16.3,0.5-24.6,7.3c-9.5,7.7-15.2,4.6-21.5,5c-6.3,0.4-9,4.2-17.1,6
			c-9.6,2-23.2-4.9-20.1-22c3.1-16.4,16.4-17.4,18.9-38.5c2.3-19.9-13.7-12.6-15.3-32c0,0-0.4-6,2-12.9c-3.8,1.7-8,2.7-12.4,2.9l0,0
			c0,0-5,67.1-4.8,67.7c0.3,0.6-14.4,9.7-37.1,23.8s-33.8-0.5-26.2-9.9c7.7-9.5,13.4-19.3,9.8-32.6c-5-18,14.5-33.9,21.5-46
			c5.3-9.2,2.1-20.4,0.9-25.3c-2.8-11.2-4.2-32.9,14.2-44.2C299.9,411.5,329.2,417.8,338.1,448.4z"/>
		<g>
			<path class="st4" d="M283.4,602.6c0,2.8,0,5.8,0,8.1c0,0-12.6,6.1-10.3,12.2c2.3,6.1,23.5-1.2,25.2-3.7v-16
				C291.9,605.2,283.4,602.6,283.4,602.6z"/>
			<path class="st10" d="M283.4,592.9c0,0,0,4.7,0,9.7c0,0,8.5,2.7,14.9,0.6v-5.7C298.3,597.5,292.4,590.9,283.4,592.9z"/>
		</g>
		<g>
			<path class="st10" d="M331.9,602.6c-0.7-4.3-1.8-8.3-3.3-10.5c-3.1-4.9-9.3-13.6-15.3-9c-6,4.6-1.4,7.7-1.4,7.7s2.2,7.5,3,14.5
				C314.9,605.3,324.4,607.9,331.9,602.6z"/>
			<path class="st4" d="M331.9,602.6c-7.4,5.3-17,2.7-17,2.7c0.3,3,0.4,6-0.1,8.2c0,0-8.5,9.3-2.9,14.1c5.6,4.8,20.2-4.7,20.8-11.2
				C333.1,612.9,332.7,607.5,331.9,602.6z"/>
		</g>
		<path class="st3" d="M306.1,437.1c0,0,1.9,2.5,2.7,5"/>
		<path class="st10" d="M292.1,459.4c0,0,2.1,6.8,0,12.7c0,0,7.5,2.5,12.5-1.8c0,0-3.4-3.9-3.6-12.9L292.1,459.4z"/>
		<g>
			<g>
				<path class="st6" d="M282.6,504.6c0.3-0.9,0.6-1.9,0.8-2.8c-0.6,1.1-1,1.7-1,1.7S282.5,503.9,282.6,504.6z"/>
				<path class="st2" d="M317.3,496.1c-3.1-5-8.5-15.6-10-21.5c-0.7-2.7-2-5.7-3.8-5.4c-1.8,0.3-2.3,2.1-2.3,2.1s-0.7-2.3-2.5-2.1
					c-1.8,0.2-2.3,2.4-2.3,2.4c-0.4-3.2-4.2-3.3-5,0c-0.3,1.1-0.6,2.3-1,3.7c-1.7,6.7-4.1,16.4-7,26.4c-0.3,0.9-0.6,1.9-0.8,2.8
					c0.4,2.2,1.6,7.1,5.7,11.4c6,6.2,12.1,16,6.8,18.6c-4.9,2.4-13.4-5-16.4-18.3c-7.6,20.4-21.1,47.1-24.3,51.6
					c-3.5,5-8.5,16.2,2.3,22.3c10.8,6.1,21.4-5.9,21.4-5.9s2.2,11.1,14.7,13c13.1,2.1,21.9-9.7,21.9-9.7c3-0.5,29.2-21.8,31.6-44.2
					C348.7,521,320.3,501.1,317.3,496.1z"/>
			</g>
			<path class="st15" d="M296.4,471.7c0,0,2,29.6-9.3,62.9c-12.1,35.5-8.8,49.7-8.8,49.7"/>
			<path class="st15" d="M301.2,471.3c0,0,5.6,29.7,7.6,50.8c2,21.1,6,36.4,6,36.4"/>
			<path class="st1" d="M288.3,515.9c-4.1-4.2-5.3-9.2-5.7-11.4c-0.1-0.7,0.2-1.7,0.8-2.8c2.9-9.9,5.3-19.7,7-26.4c0,0,0,0,0,0
				c0,0-11.4,11.1-12.6,27.4c-0.4,5,0,9.5,0.9,13.5c3,13.2,11.5,20.6,16.4,18.3C300.4,531.9,294.3,522.1,288.3,515.9z"/>
		</g>
		<path class="st10" d="M300.2,529.8c-3.5-4.4,12.1-17.2,16.9-22.6c-0.4-17.1-5.9-19.2-9.8-32.7c5.1,3,11.6,9.1,15.7,21.9
			C327.8,511.9,306.1,537.5,300.2,529.8z"/>
		<path class="st3" d="M359.5,521.9c0,0,0.5,6.2,3.8,8.2"/>
		<path class="st3" d="M367,515.9c0,0,0,11.6,5.7,15.3"/>
		<path class="st3" d="M368.6,556.3c0,0,2.5,7.2-1.6,10.9"/>
		<path class="st3" d="M377.7,557.3c0,0,2.2,3.9,0,8.1"/>
		<path class="st3" d="M275.1,464.6c0,0,2.5,3.5,0.8,8.2"/>
		<path class="st3" d="M280,465.1c0,0,1.5,3.2,0,6.2"/>
		<path class="st3" d="M257.2,524.3c0,0-4,4.6-1.8,11.2"/>
		<path class="st3" d="M262.5,525.3c0,0-2.3,4.1-0.7,8.1"/>
		<path class="st3" d="M245.6,566.9c0,0-1.7,3.5-1,5.6"/>
		<path class="st3" d="M249.6,567.7c0,0-1.3,3.1-0.5,4.8"/>
		<path class="st3" d="M331.3,451.5c0,0,0.9,5.6,5.2,6.5"/>
		<path class="st3" d="M327.4,453.3c0,0,0.5,3.6,2.7,4.2"/>
		<g>
			<g>
				<g>
					<path class="st10" d="M308.8,451.9c1.5-5.7,0-9.7,0-9.7c-12.6-3.6-16.9-13-16.9-13c-1.9,13-14.1,15.8-14.1,15.8
						c0,9.6,7.8,17.4,17.4,17.4c5,0,9.6-2.1,12.7-5.6C308,455.4,308.3,453.7,308.8,451.9z"/>
				</g>
				
					<ellipse transform="matrix(0.9938 -0.1112 0.1112 0.9938 -47.9968 35.7765)" class="st12" cx="296.6" cy="448" rx="0.8" ry="1.5"/>
				
					<ellipse transform="matrix(0.9938 -0.1112 0.1112 0.9938 -48.0884 35.2338)" class="st12" cx="291.7" cy="448.6" rx="0.8" ry="1.5"/>
			</g>
		</g>
		<path class="st6" d="M338.1,448.4c1.4,4.8,6.4,9,13.8,11.3c14.6,4.6,27.8,19.7,25.2,36.8c-2.7,17.1-3.8,25,7.9,35.5
			c11.7,10.5,17.3,30.9,8.4,41.6c-7.1,8.6-16.3,0.5-24.6,7.3c-9.5,7.7-15.2,4.6-21.5,5c-6.3,0.4-9,4.2-17.1,6
			c-9.6,2-23.2-4.9-20.1-22c3.1-16.4,16.4-17.4,18.9-38.5c2.3-19.9-13.7-12.6-15.3-32c0,0-0.4-6,2-12.9c0,0,1.1-3,2.7-6.5"/>
		<path class="st3" d="M277.8,445.1c0,0,12.2-2.9,14.1-15.8c0,0,4.3,9.3,16.9,13c0,0,1.5,4,0,9.7c-1.5,5.7-1.8,9.7,6,13.9
			c10,5.4,3.7,12.2,0.7,20.6"/>
		<g>
			<path class="st3" d="M291.2,490.1c0,0,10.2,25.1,4.1,49.8"/>
			<circle class="st6" cx="290.3" cy="488" r="2.4"/>
			<circle class="st6" cx="297.8" cy="492.9" r="2.3"/>
			<circle class="st6" cx="287.6" cy="495.3" r="2.2"/>
			<circle class="st6" cx="289.9" cy="505.3" r="2.4"/>
			<circle class="st6" cx="305.1" cy="487.4" r="2.3"/>
			<circle class="st6" cx="309" cy="495.9" r="2.1"/>
			<circle class="st6" cx="302.7" cy="502.9" r="2.4"/>
			<polyline class="st3" points="289.3,496.8 294.3,499.8 296.8,495.1 			"/>
			<polyline class="st3" points="291.7,506.7 296.1,509.1 301,504.3 			"/>
			<line class="st3" x1="304.4" y1="489.6" x2="295.4" y2="504.9"/>
			<line class="st3" x1="306.9" y1="495.9" x2="300.4" y2="496.3"/>
		</g>
	</g>
	<g>
		<g>
			
				<ellipse transform="matrix(0.9914 -0.131 0.131 0.9914 -68.3668 78.0435)" class="st0" cx="558.8" cy="558.5" rx="9.1" ry="5.1"/>
			<path class="st0" d="M591.8,492.3c3.3,5.8-11.5,22.7-33.7,17C560.1,500.1,586.1,482.1,591.8,492.3z"/>
			<path class="st0" d="M550,513.3c-1.4,5.3,4.9,9,20.7,7.6c18.9-1.7,25-12.4,20.9-17.4C586.6,497.4,552.9,501.9,550,513.3z"/>
			<path class="st0" d="M574.5,469.2c7.7,4.2,0.6,29.7-19.6,39.2C534.7,517.9,559.2,460.9,574.5,469.2z"/>
			<path class="st0" d="M580.5,483.8c5.9,5.4-5.2,17.9-13.1,24.8c-7.3,6.4-21.3,10.3-21.8,0C545.2,498.3,571.8,475.8,580.5,483.8z"
				/>
			
				<ellipse transform="matrix(0.9451 -0.3267 0.3267 0.9451 -150.5716 211.0569)" class="st0" cx="553" cy="553.8" rx="9.1" ry="5.1"/>
			
				<ellipse transform="matrix(0.1369 -0.9906 0.9906 0.1369 -78.5252 1035.2277)" class="st0" cx="554.8" cy="562.7" rx="5.1" ry="9.1"/>
			<path class="st1" d="M534.8,555.3c1-2.5,10.2-2.4,12.5,4.3c2,5.9-2.2,13.5-5.9,10.7c-2.5-1.9,1.3-5.9,1.3-5.9s-3.8,1.7-5-0.6
				c-1.1-2.4,2.6-3.5,2.6-3.5S533.5,558.5,534.8,555.3z"/>
			<path class="st3" d="M537.7,563.8c0,0-37.4,21.3-36.2,62.8c-2.2-79,35.6-102.9,35-102.4"/>
			<path class="st0" d="M544.1,513.2c-5.5-1.4-6.6-10-4.5-22.3c3.2-18.7,19.4-30.3,23.2-20C566.7,481.2,552.5,515.3,544.1,513.2z"/>
			<path class="st1" d="M530,512.6c0.4-4.4,11.5-7.7,19.1,0.1c5.8,6,3.3,17.8-1.3,17.8c-5.7,0.1-3.2-9.7-3.2-9.7s-3.9,6.6-7.4,4
				c-3.3-2.4,1.6-7.3,1.6-7.3S529.3,519.2,530,512.6z"/>
		</g>
		<g>
			<path class="st9" d="M549.5,580.5c10,8.2-6,29.8-22.4,39.5c-16.4,9.8-28.6,12.1-28.6,12.1s1.3-20,14.1-35
				C525.5,582,542.4,574.7,549.5,580.5z"/>
			<g>
				<path class="st9" d="M498.5,632.2c0,0-21.9-11.1-31-41.3c-7.8-25.7,17.6-33.9,27.9-8.7C506.1,608.1,498.5,632.2,498.5,632.2z"/>
				<path class="st16" d="M549.5,580.5c0,0-15.7,33.5-50.9,51.6c-17.8-23.6-24.2-64.6-24.2-64.6"/>
			</g>
		</g>
	</g>
	<g>
		<path class="st0" d="M335.3,754.5c4.9-0.8,11.6,9.1,4.3,28C339.6,782.5,324.5,756.3,335.3,754.5z"/>
		<path class="st0" d="M344,760.4c7.8,0.6,5.7,21.2-3.2,26.8C335.6,783.3,334.4,759.7,344,760.4z"/>
		<path class="st0" d="M317.9,763.8c3.7-5.4,15.2,3,16.9,18C327.6,782.9,313.1,770.8,317.9,763.8z"/>
		<path class="st0" d="M323.8,797.8c2.4-2,8.1,2.3,8.7,9C328.5,807.8,320.5,800.7,323.8,797.8z"/>
		<path class="st0" d="M328.2,761.7c5.4-2.8,13.5,7.2,10.4,24.6C331.7,784.6,320.8,765.6,328.2,761.7z"/>
		<path class="st0" d="M313.7,775.6c1.5-5.4,19.8-3.4,22.6,11.2C331.4,789.6,311.1,784.7,313.7,775.6z"/>
		<path class="st2" d="M330.8,797.2c-3.5-1.1-2.3-9.9,5.4-12.9c9.1-3.5,15.1,4.4,11.6,7.3c-3.1,2.6-7.1-3.2-7.1-3.2s3.1,8.2-1.2,8.8
			c-3.9,0.5-3.3-7.9-3.3-7.9S335,798.5,330.8,797.2z"/>
		<path class="st3" d="M340.6,796.9c0,0,5.9,16.8,4.1,29c0,0-2.4-9.2-7.8-13.3"/>
		<path class="st0" d="M322.6,805c0.7-3.4,8.8-1.8,11.8,4.6C331.4,811.2,321.6,809.8,322.6,805z"/>
		<path class="st0" d="M330.1,798c3.3-1.3,7,5.4,4.3,11.6C330.2,808.2,326.2,799.6,330.1,798z"/>
		<path class="st2" d="M331.7,816.4c-2.3,0-1.5-5,0-7c2.3-3,8.6-3.6,8.6-1c0,1.3-1.5,2.6-4,1.7c0,0,2,2.1,0.9,3.3
			c-1.1,1.1-3.2-1-3.2-1S334.1,816.5,331.7,816.4z"/>
	</g>
	<g>
		<g>
			<circle class="st1" cx="284.7" cy="788.5" r="3.4"/>
			<circle class="st1" cx="295.7" cy="793" r="3.4"/>
			<circle class="st1" cx="282.7" cy="799.9" r="3.4"/>
			<circle class="st1" cx="300.6" cy="804.4" r="3.4"/>
			<circle class="st1" cx="286.6" cy="810.3" r="3.4"/>
			<circle class="st1" cx="304.7" cy="817.6" r="3.4"/>
			<circle class="st1" cx="288.9" cy="820.1" r="3.4"/>
			<path class="st3" d="M286.6,791.3c0,0,13.8,24,10.1,56.2"/>
			<polyline class="st3" points="286,801 292.1,804.4 294.5,796.1 			"/>
			<polyline class="st3" points="290,811.5 294.9,814.5 298.8,807.3 			"/>
			<polyline class="st3" points="292,821.6 296.6,824.3 302,819.7 			"/>
			<g>
				<path class="st4" d="M322.6,828.1c4.3,0.8-1,11.8-1,11.8s5.7-1.3,4.3,3.7s-9.3,7.9-9.3,7.9s7.5-0.7,4.1,5.4
					c-3.4,6.1-13.7,10.3-24.6,6.7c-0.5-2.9,0-17.2,4-20.4c4.7-3.7,4.2,4.4,4.2,4.4s0.3-7.7,2.9-12c2.6-4.3,5.9-2.2,5.5,2.6
					C312.8,838.3,316.9,827.1,322.6,828.1z"/>
				<path class="st3" d="M319.3,836c0,0-4.8,18.2-23.2,27.7"/>
			</g>
			<g>
				<path class="st4" d="M282.9,855.2c0,0-6,0-6,4.1s11.8,6.3,18.8,4.4c0,0,2.5-5.3,0.6-17.4c-1.8-12.1-6-6.8-5.4-3.9
					c0,0-0.5-11.2-3.8-11.3c-3.3-0.1-2.2,6-2.2,6s-3.4-12.4-9.7-10.2c-6.4,2.2-4.6,16.6,4.2,19.6c0,0-4.6-1-5.5,2.1
					C273,851.6,280.3,854.9,282.9,855.2z"/>
				<path class="st3" d="M279.5,837.2c0,0,6.7,4.2,16.2,26.5"/>
			</g>
		</g>
		<g>
			<path class="st4" d="M453.4,820.5c-0.1,0.3-9.4-11.9-6.7-19.3c2.8-0.2,5.6,2.1,12.8,0.7c4-0.8,7.2,0.7,8.3,3.2
				c1.2,2.5,3.1-1.3,6.5-4c3.3-2.6,3.9-4.1,9.4-4.4c5.5-0.4,9.1,0.4,9,5.4c-0.1,4.9-4,6.6-2,12.2c1.9,5.5,4.4,5.1,9.6,5.5
				c5.2,0.4,9.4,6.5,6.3,9.7s-12.5,4.8-13.9,9.8s-12.6,7.2-20.5,2.2c-7.9-5.1-18.8-9.7-22.1-6.3
				C446.8,838.5,453.4,820.5,453.4,820.5z"/>
			<g>
				<g>
					<path class="st0" d="M383.5,778.4c4-2,11-4.3,17.7-0.1c9,5.5,13.5,0.7,21.4,8c11.3,10.4,8.4,39.7-8.4,40.9
						c-16,1.1-13.4,4.9-23.2,5c-9.8,0.1-8.5-4.4-21.2-4.1c-14.4,0.3-24.1-28.2-9-42.3C369.8,777.4,378,781.2,383.5,778.4z"/>
					<path class="st6" d="M388.5,782.2c0,0,3.3,4.7,8.6,0.5c0,0-2.9-2.3-1.9-7.9c0.8-4.1,3.1-5.7,5.9-5.4c2.9,0.3,3.5-2.4,1.1-3.2
						c-3.3-1.2-7.7,0.3-9.7,4.9C390.8,775,393,779.4,388.5,782.2z"/>
					<path class="st15" d="M376.6,793.5c-4.6,5.8-5.1,18.4-0.3,25.2"/>
					<path class="st15" d="M406,793.6c2.4,4.8,4.2,17.2-0.7,24.6"/>
					<path class="st0" d="M381.6,807c2.2-0.3,1.9,5.5-0.1,5.5C379.6,812.4,379.9,807.2,381.6,807z"/>
					<path class="st0" d="M397,818.4c1.5,0.1,1,4-0.6,3.6C394.9,821.7,395.6,818.3,397,818.4z"/>
					<path class="st1" d="M420,801c1.2,0.1,1.3,2.4,1.3,5.2c0,3.1-1,6-2.2,5.7c-1.3-0.3-1.3-2.6-1.2-5.6
						C418.1,803.3,418.5,800.9,420,801z"/>
					<path class="st1" d="M386.2,787.5c1.6,1.1,0.6,3.6-1.4,7.9c-1.8,3.8-0.7,8.3-2.4,8.5s-2.3-5.8-1.6-9.9
						C381.5,789.9,384.6,786.4,386.2,787.5z"/>
					<path class="st1" d="M365.6,803.1c0.1-0.7-0.1-1.4-0.3-2.2c-0.3-1-1.8-0.8-2,0.2c-0.2,0.9-0.2,1.8,0.5,2.6
						C364.4,804.4,365.5,804,365.6,803.1z"/>
					<circle class="st1" cx="395.4" cy="788.9" r="1"/>
					<path class="st1" d="M396.9,795.8c2.7-0.4,7.2,17.7,1.7,19.2c-0.8,0.2-2-0.6-1.3-3.7C399.1,803.9,394.1,796.2,396.9,795.8z"/>
					<path class="st1" d="M404.2,785.3c0.2-2.3,7-2.7,12.1,2c4.1,3.8,4.9,9.7,2.7,9.7c-1.8,0-2.5-6.4-7-8.5
						C407.3,786.3,404.1,787.5,404.2,785.3z"/>
					<path class="st1" d="M378.6,784.5c0.5,1.7-3,1-6.5,4.2c-3,2.7-4.5,6-5.6,5c-1.3-1.1,0.2-4.3,3.1-7
						C372.2,784.5,378,782.3,378.6,784.5z"/>
				</g>
				<path class="st4" d="M414.2,849.7c0,0,9.8,5.5,10.4,14.5c0.6,9,7.2,6.5,10,13.1c1,2.3,3.5,7,6.6,4.2c3.1-2.7,4.1-1,3.8-8.1
					c0,0-0.5-4.4,4-6c4.5-1.6,5.7,1,7.3-4.2c1.6-5.3,7.3-2.6,8.3-5.1c3.6-8.8-4.5-12-2.6-15.7L414.2,849.7z"/>
				<path class="st15" d="M438.9,869.5c0,0-1.5-15.8,8.8-24.2"/>
				<g>
					<path class="st4" d="M356.9,863.5c0,0-7,6.8-1.4,11.7s12.1,0.7,13.6,6.3c1.5,5.6,4.1,6.1,8.2,7.2s5.5,4.8,8.5,2.7s2.1-5,5-6.4
						c2.9-1.4-2-7.1,1.7-8.4s1.9,4.2,6.9,4.6c5,0.5,5.2-1.7,9.1,1.6c3.9,3.2,8.8,3.5,10.7,1.1c1.8-2.4,4-8,1.3-11.3
						c-2.7-3.2-8.2-6.3-3.3-8.5s8.6,2.1,10-1.1c1.4-3.3-0.2-10.4-12.8-13.4S356.9,863.5,356.9,863.5z"/>
					<path class="st15" d="M408.4,873.5c0,0-4.9-12.3-31.4-16.8"/>
				</g>
				<path class="st15" d="M483.9,806.9c0,0-19.4,10.1-26.1,28.2"/>
				<g>
					<path class="st4" d="M353.1,841.3c0,0-16.5-5.4-23.7-4.1c-4.1,0.8-4,2.7-8.1,2.6c-4.1-0.2-8.2-0.2-9.2,4.3
						c-0.7,3.2-1.7,4.3,0,7c1.7,2.7,7.6,2.6,7.8,5.1c0.1,2.1-2.1,3.2-2.4,5.2c-0.3,2,1.6,2.6,1.4,5s-3.4,4.4-1.6,8.4
						c1.9,4,5.3,5.6,7.5,4c2.2-1.6,4.4-4.3,8.4-3.9c4,0.4,6.3-1.9,6.5-5.2c0.1-3.3,4.9-3.8,5.7-0.5c0.9,3.3-0.5,6.9,3.8,7.2
						c4.3,0.2,4.6-2.5,7.8-1.2c3.2,1.3,4.3-1,5.7-2.2c2.2-2,5.3-0.5,6.4-6.4C370.2,860.5,370.3,845.4,353.1,841.3z"/>
					<path class="st15" d="M325.7,864.7c0,0,6.1-17.3,40.8-14.4"/>
				</g>
				<g>
					<path class="st0" d="M423.1,806.7c3.5-2.1,9.7-4.6,16.2-1.2c8.5,4.5,12.4-0.2,20.1,6c11,8.8,10,35.8-5.2,37.9
						c-14.6,2-11.9,5.3-20.9,6c-9,0.6-8-3.5-19.6-2.5c-13.2,1.2-23.7-24.3-10.8-38.1C410.6,806.7,418.3,809.6,423.1,806.7z"/>
					<path class="st6" d="M435.5,809c0,0-2.6,4.5-7.8,1.2c0,0,2.5-2.4,1-7.3c-1.1-3.6-3.3-4.9-5.8-4.4c-2.6,0.5-3.4-1.9-1.3-2.9
						c2.9-1.4,7.1-0.4,9.2,3.6C432.7,802.7,431.1,806.9,435.5,809z"/>
					<path class="st15" d="M417.8,820.9c-3.8,5.6-3.6,17.1,1.2,23"/>
					<path class="st15" d="M444.6,819.2c2.5,4.2,4.9,15.4,0.8,22.5"/>
					<path class="st1" d="M423.1,832.9c2-0.4,2.1,4.9,0.3,5C421.6,838,421.6,833.2,423.1,832.9z"/>
					<path class="st1" d="M437.9,842.4c1.3,0,1.2,3.6-0.3,3.3S436.6,842.4,437.9,842.4z"/>
					<path class="st1" d="M457.9,825.1c1.1,0,1.4,2.1,1.5,4.6c0.2,2.8-0.6,5.5-1.6,5.3c-1.2-0.2-1.4-2.3-1.4-5
						C456.3,827.3,456.5,825.1,457.9,825.1z"/>
					<path class="st1" d="M426.2,814.8c1.5,0.9,0.8,3.3-0.8,7.3c-1.4,3.6-0.1,7.7-1.7,7.9s-2.5-5.2-2.1-9
						C422.1,817.3,424.6,813.9,426.2,814.8z"/>
					<path class="st0" d="M408.3,830.8c0.2-0.8-0.1-2.1-0.6-3c-0.3-0.6-1.2-0.4-1.4,0.2c-0.3,1-0.3,2.5,0.9,3.3
						C407.5,831.6,408.1,831.3,408.3,830.8z"/>
					<circle class="st1" cx="434.7" cy="815.6" r="0.9"/>
					<path class="st1" d="M436.5,821.8c2.5-0.5,7.7,15.7,2.8,17.5c-0.7,0.3-1.9-0.5-1.4-3.3C439,829.1,433.9,822.3,436.5,821.8z"/>
					<path class="st1" d="M442.5,811.7c0-2.1,6.2-2.9,11.1,1.1c4,3.2,5.1,8.6,3.1,8.7c-1.6,0.1-2.6-5.7-7-7.3
						S442.5,813.8,442.5,811.7z"/>
					<path class="st1" d="M419,812.6c0.5,1.5-2.7,1.1-5.7,4.3c-2.6,2.7-3.8,5.7-4.8,4.9c-1.2-1,0-4,2.4-6.6
						C413.2,812.9,418.3,810.6,419,812.6z"/>
				</g>
				<g>
					<path class="st0" d="M370.6,813.8c4-2,11-4.3,17.7-0.1c9,5.5,13.5,0.7,21.4,8c11.3,10.4,8.4,39.7-8.4,40.9
						c-16,1.1-13.4,4.9-23.2,5s-8.5-4.4-21.2-4.1c-14.4,0.3-24.1-28.2-9-42.3C356.9,812.8,365,816.6,370.6,813.8z"/>
					<path class="st6" d="M375.6,817.5c0,0,3.3,4.7,8.6,0.5c0,0-2.9-2.3-1.9-7.9c0.8-4.1,3.1-5.7,5.9-5.4c2.9,0.3,3.5-2.4,1.1-3.2
						c-3.3-1.2-7.7,0.3-9.7,4.9C377.9,810.4,380.1,814.8,375.6,817.5z"/>
					<path class="st15" d="M363.7,828.8c-4.6,5.8-5.1,18.4-0.3,25.2"/>
					<path class="st15" d="M393.1,828.9c2.4,4.8,4.2,17.2-0.7,24.6"/>
					<path class="st1" d="M368.7,842.3c2.2-0.3,1.9,5.5-0.1,5.5C366.7,847.8,367,842.5,368.7,842.3z"/>
					<path class="st1" d="M384.1,853.7c1.5,0.1,1,4-0.6,3.6S382.7,853.6,384.1,853.7z"/>
					<path class="st1" d="M407.1,836.4c1.2,0.1,1.3,2.4,1.3,5.2c0,3.1-1,6-2.2,5.7c-1.3-0.3-1.3-2.6-1.2-5.6
						C405.2,838.6,405.6,836.2,407.1,836.4z"/>
					<path class="st1" d="M373.3,822.8c1.6,1.1,0.6,3.6-1.4,7.9c-1.8,3.8-0.7,8.3-2.4,8.5s-2.3-5.8-1.6-9.9
						C368.6,825.2,371.7,821.7,373.3,822.8z"/>
					<path class="st1" d="M352.7,838.4c0.1-0.7-0.1-1.4-0.3-2.2c-0.3-1-1.8-0.8-2,0.2c-0.2,0.9-0.2,1.8,0.5,2.6
						C351.5,839.7,352.6,839.3,352.7,838.4z"/>
					<circle class="st1" cx="382.5" cy="824.3" r="1"/>
					<path class="st1" d="M384,831.2c2.7-0.4,7.2,17.7,1.7,19.2c-0.8,0.2-2-0.6-1.3-3.7C386.2,839.3,381.1,831.6,384,831.2z"/>
					<path class="st1" d="M391.3,820.6c0.2-2.3,7-2.7,12.1,2c4.1,3.8,4.9,9.7,2.7,9.7c-1.8,0-2.5-6.4-7-8.5
						C394.4,821.6,391.1,822.8,391.3,820.6z"/>
					<path class="st1" d="M365.7,819.8c0.5,1.7-3,1-6.5,4.2c-3,2.7-4.5,6-5.6,5c-1.3-1.1,0.2-4.3,3.1-7
						C359.3,819.8,365.1,817.7,365.7,819.8z"/>
				</g>
			</g>
		</g>
	</g>
</g>
</svg>
