<?xml version="1.0" encoding="utf-8"?>
<!-- Generator: Adobe Illustrator 22.1.0, SVG Export Plug-In . SVG Version: 6.00 Build 0)  -->
<svg version="1.1" id="圖層_1" xmlns="http://www.w3.org/2000/svg" xmlns:xlink="http://www.w3.org/1999/xlink" x="0px" y="0px"
	 viewBox="0 0 699.6 975.3" style="enable-background:new 0 0 699.6 975.3;" xml:space="preserve">
<style type="text/css">
	.st0{fill:#A6B832;stroke:#000000;stroke-width:0.4;stroke-miterlimit:10;}
	.st1{fill:none;stroke:#000000;stroke-width:0.4;stroke-miterlimit:10;}
	.st2{fill:#E94827;stroke:#000000;stroke-width:0.4;stroke-miterlimit:10;}
	.st3{fill:#F8B300;stroke:#000000;stroke-width:0.4;stroke-miterlimit:10;}
	.st4{fill:#FDE3B9;stroke:#000000;stroke-width:0.4;stroke-miterlimit:10;}
	.st5{fill:#006857;stroke:#000000;stroke-width:0.4;stroke-miterlimit:10;}
	.st6{fill:none;stroke:#000000;stroke-width:0.4;stroke-linecap:round;stroke-linejoin:round;stroke-miterlimit:10;}
	.st7{fill:#F8B300;}
	.st8{fill:#A6B832;}
	.st9{opacity:0.96;}
	.st10{fill:#FFFFFF;stroke:#000000;stroke-width:0.4;stroke-linejoin:round;stroke-miterlimit:10;}
</style>
<g>
	<path class="st0" d="M538.7,690.1c-0.3,6.1-5.1,11-11.3,11.3c-3.1,0.1-5.9-0.9-8.1-2.8l-0.1-0.1c-0.2-0.2-0.4-0.4-0.6-0.6
		c-0.1-0.1-0.2-0.2-0.2-0.2c-0.2-0.2-0.3-0.3-0.5-0.5c-0.1-0.1-0.2-0.2-0.3-0.4c-0.1-0.1-0.2-0.3-0.3-0.4c-0.1-0.2-0.2-0.4-0.4-0.5
		c-0.1-0.1-0.1-0.2-0.2-0.3c-0.1-0.2-0.3-0.5-0.4-0.7c0-0.1-0.1-0.1-0.1-0.2c-0.1-0.3-0.3-0.6-0.4-1l0,0c-0.3-0.8-0.5-1.6-0.6-2.5
		l-2.2,0.1c-0.3,6.1-5.1,11-11.3,11.3c-6.5,0.3-12-4.8-12.3-11.3s4.8-12,11.3-12.3c6.3-0.3,11.7,4.5,12.3,10.8l2.2-0.1
		c0.1-6.3,5-11.5,11.3-11.7c3.6-0.1,6.8,1.3,9.1,3.7c1.8,1.9,2.9,4.3,3.2,7L538.7,690.1z"/>
	<g>
		<path class="st1" d="M287.2,178.8c0,20.5-3.4,54.4,26,54.4"/>
		<path class="st1" d="M323,166.8c0,12.2-2,32.4,15.5,32.4"/>
		<path class="st1" d="M309.2,193.3c0,9.1-1.5,24.1,11.5,24.1"/>
		<path class="st2" d="M286,147.1c-5.1,0-12.2,6.4-13.2,28.4c-0.1,2.9,2.2,5.4,5.2,5.4h8h8c2.9,0,5.3-2.5,5.2-5.4
			C298.2,153.4,291.1,147.1,286,147.1z"/>
		<path class="st3" d="M309.1,177c-2.3,0-5.5,3.1-6,13.6c-0.1,1.6,1.3,2.9,3,2.9h3h3c1.7,0,3.1-1.3,3-2.9
			C314.6,180,311.4,177,309.1,177z"/>
		<path class="st4" d="M322.8,146.4c-3.3,0-7.8,3.9-8.8,17c-0.3,3.3,2.3,6.1,5.6,6.1h3.3h3.3c3.3,0,5.9-2.8,5.6-6.1
			C330.6,150.3,326.1,146.4,322.8,146.4z"/>
		<path class="st1" d="M268.2,218.7c0,13.5-2,35.9,15.3,35.9"/>
		<path class="st4" d="M268.2,194.8c-3.9,0-9.4,5.6-10.3,25.1c-0.1,3,2.3,5.4,5.2,5.4h5.1h5.1c3,0,5.3-2.5,5.2-5.4
			C277.6,200.4,272.1,194.8,268.2,194.8z"/>
	</g>
	<g>
		<g>
			<path class="st4" d="M591.8,518.4c-41.5-57.5-20.7-101.2-26.3-147.8c-11.2-92.9,9.4-138.2,2.4-165.5
				c-24.7-96.6-59.4-90.2-99.2-85.8c-35.8,4-54.7,23.6-92,38.1c-20.3,7.9-44.2,30.8-54.7,52.1c-15.4,31.5-38,22.4-49.8,62.1
				c-14.2,47.6-47.1,47-70.3,72.6s-8.8,69.3-38.5,104.6C74.4,554.7,48.8,561.4,48.9,586.5c41,9.1,32.2,89.8,153,82.6
				c81.8-4.8,121.6,3.8,155.9,12.8c32.1,8.4,59.3,17,111.7,15.1c91.8-3.3,142.3-67.6,147.5-89C621,591.7,616.1,552,591.8,518.4z
				 M470,689.8c-51.3,1.8-77.7-6.8-109.2-14.9c-2-0.5-3.3-2.6-2.8-4.6c3.5-14.9,41.3-48.1,117.1-64.3
				c48.9-10.4,107.8-21.3,137.5-2.2C607.6,624.5,558.8,686.6,470,689.8z"/>
		</g>
	</g>
	<path class="st2" d="M199,65.8c47,13.1,93.6,25.9,228.5,82.6c62,26,135.4,68.3,210.4,100.9c0,0-28-96.8-178.1-155.7
		S199,65.8,199,65.8z"/>
	<g>
		<g>
			<g>
				<path class="st0" d="M482.2,426.1c0.6-3.4-0.1-9.6-6.5-12.7c-0.4-0.2-0.8-0.4-1.2-0.5l-0.5,1.5c0.3,0.1,0.7,0.3,1,0.4
					c6.2,3,6,8.9,5.7,11L482.2,426.1z"/>
			</g>
		</g>
		<path class="st5" d="M475.3,398.5c-0.1,0.6,13.1,4.4,19.4-14.7C494.7,383.8,476.6,385.7,475.3,398.5z"/>
		<path class="st5" d="M452.5,427.6c0,0,3.6-19.1,20.2-16.2C472.7,411.4,473,425.1,452.5,427.6z"/>
		<path class="st5" d="M491,486.4c-0.1,0.6,12.7,7.5,20.2-11.1C511.2,475.2,492.6,473.9,491,486.4z"/>
		<g>
			<g>
				<g>
					<path class="st0" d="M516.8,445.2c1.3-4.4,5.7-11.3,15.1-11.3c0.6,0,1.1,0,1.7,0.1l-0.3,2c-0.5,0-1-0.1-1.4-0.1
						c-9.1,0-12.2,7-13.1,9.7L516.8,445.2z"/>
				</g>
			</g>
			<g>
				<path class="st5" d="M547.8,542.2c-6.7-7.6-11-24.1-12.4-47.7c-1.3-20.2-0.3-44.3,2.5-66c5.3-40.2-5.1-59.8-7.3-63.5l-3.6,2.5
					c2.1,3.6,11.6,22.6,6.6,60.4c-2.8,21.3-3.8,46-2.6,66c1.5,25.1,6.2,42.8,13.6,51.2L547.8,542.2z"/>
			</g>
		</g>
		<g>
			<g>
				<g>
					<path class="st0" d="M500.7,390.5c-1-3.3-4.3-8.6-11.4-8.6c-0.4,0-0.9,0-1.3,0.1l0.2,1.5c0.4,0,0.7,0,1.1,0
						c6.9,0,9.3,5.3,9.9,7.4L500.7,390.5z"/>
				</g>
			</g>
			<g>
				<path class="st5" d="M476.1,519.8c6.7-7.6,11-24.1,12.4-47.7c1.3-20.2,0.3-44.3-2.5-66c-5.3-40.2,5.1-59.8,7.3-63.5l3.6,2.5
					c-2.1,3.6-11.6,22.6-6.6,60.4c2.8,21.3,3.8,46,2.6,66c-1.5,25.1-6.2,42.8-13.6,51.2L476.1,519.8z"/>
			</g>
		</g>
		<g>
			<g>
				<g>
					<path class="st0" d="M455.6,362.1c1-3.3,4.3-8.6,11.4-8.6c0.4,0,0.9,0,1.3,0.1l-0.2,1.5c-0.4,0-0.7,0-1.1,0
						c-6.9,0-9.3,5.3-9.9,7.4L455.6,362.1z"/>
				</g>
			</g>
			<g>
				<path class="st5" d="M459.5,485.6c6.7-7.6,11-24.1,12.4-47.7c1.3-20.2,0.3-44.3-2.5-66c-5.3-40.2,5.1-59.8,7.3-63.5l3.6,2.5
					c-2.1,3.6-11.6,22.6-6.6,60.4c2.8,21.3,3.8,46,2.6,66c-1.5,25.1-6.2,42.8-13.6,51.2L459.5,485.6z"/>
			</g>
		</g>
		<g>
			<path class="st0" d="M510.7,452.6c0,0,0.5,22.3-5.1,42.7c-0.8,2.8,2.8,4.7,4.7,2.5c7-8.2,15.4-23,12.8-44.5l-6.6-5.6L510.7,452.6
				z"/>
			<path class="st3" d="M515.1,444.2c-2.1,1.8-4.8,5.1-7,10.7c0,0,3.8,0.4,6.5-2.3c0,0-0.2,3.6,2.4,6.6c0,0,2.1-1.9,2.8-5.9
				c0,0,1.1,3.5,5,3.9c0,0,0-6.3-4.1-12.4C519.5,443,516.8,442.7,515.1,444.2z"/>
			<path class="st0" d="M514.7,464.7c-0.5,1.4,0.3,4.1,3.2,3.6"/>
			<path class="st0" d="M513.5,473.3c-0.5,1.4,0.3,4.1,3.2,3.6"/>
			<path class="st0" d="M511.9,481.6c-0.5,1.4,0.3,4.1,3.2,3.6"/>
		</g>
		<g>
			<path class="st0" d="M449.6,369.8c0,0,0.5,20.9-4.8,39.9c-0.7,2.6,2.6,4.4,4.4,2.3c6.5-7.7,14.4-21.5,12-41.5l-6.1-5.3
				L449.6,369.8z"/>
			<path class="st3" d="M453.8,362c-2,1.7-4.5,4.7-6.6,10c0,0,3.6,0.4,6.1-2.1c0,0-0.2,3.4,2.3,6.2c0,0,1.9-1.8,2.6-5.5
				c0,0,1,3.2,4.7,3.6c0,0,0-5.9-3.8-11.5C457.8,360.9,455.4,360.6,453.8,362z"/>
			<path class="st0" d="M453.4,381.1c-0.5,1.3,0.3,3.8,3,3.4"/>
			<path class="st0" d="M452.3,389.1c-0.5,1.3,0.3,3.8,3,3.4"/>
			<path class="st0" d="M450.7,396.9c-0.5,1.3,0.3,3.8,3,3.4"/>
		</g>
		<g>
			<path class="st0" d="M507.5,397.6c0,0,5.3,14.2,17.6,25.3c1.9,1.7,0.2,4.9-2.3,4.2c-8.4-2.4-20-8.9-24.1-26.7l2.3-5.2
				L507.5,397.6z"/>
			<path class="st1" d="M507.4,406.2c0.9,0.8,1.4,3.1-0.8,4"/>
			<path class="st1" d="M511.8,412c0.9,0.8,1.4,3.1-0.8,4"/>
			<path class="st1" d="M516.5,417.5c0.9,0.8,1.4,3.1-0.8,4"/>
			<path class="st3" d="M503.6,390.5c2.3,2,5.2,5.1,8,9.3c0,0-3.2,1-6-0.8c0,0,0.8,3-0.9,6.1c0,0-2.1-1.3-3.4-4.5
				c0,0-0.3,3.1-3.6,4.2c0,0-1.4-6.4,0.1-12.4C498.4,389.7,501.6,388.8,503.6,390.5z"/>
		</g>
		<g>
			<path class="st0" d="M485.8,432.9c0,0,0.8,13,8.1,25.3c1.1,1.9-1.1,4.1-3,2.9c-6.4-4.1-14.3-12.4-13.1-28.1l3.2-3.7L485.8,432.9z
				"/>
			<path class="st1" d="M483.5,440c0.6,0.9,0.4,2.9-1.7,3.1"/>
			<path class="st1" d="M485.7,445.8c0.6,0.9,0.4,2.9-1.7,3.1"/>
			<path class="st1" d="M488.2,451.5c0.6,0.9,0.4,2.9-1.7,3.1"/>
			<path class="st3" d="M484.4,426c1.4,2.2,3,5.5,4.2,9.7c0,0-2.9,0.1-4.7-2.2c0,0-0.1,2.7-2.3,4.8c0,0-1.4-1.6-1.6-4.6
				c0,0-1.1,2.5-4,2.5c0,0,0.5-5.6,3.2-10.2C480.4,424.1,483.2,424.1,484.4,426z"/>
		</g>
		<path class="st5" d="M535.6,449.6c-0.5,0.1-0.7,13.1,16.3,15.2C551.9,464.8,546.4,448.4,535.6,449.6z"/>
		<path class="st5" d="M530.8,489.1c-0.3-0.6-14.6,3.3-10.2,24C520.6,513.1,536.4,501.3,530.8,489.1z"/>
		<path class="st5" d="M492.2,423.5c-0.4,0-1.7,13.2,13.1,16.2C505.3,439.8,502.5,424.1,492.2,423.5z"/>
		<g>
			<g>
				<g>
					<g>
						<g>
							<path class="st0" d="M443.2,427.8c-1.4-4.4-5.9-11.2-15.3-11.1c-0.6,0-1.1,0-1.7,0.1l0.3,2c0.5,0,1-0.1,1.4-0.1
								c9.1-0.2,12.3,6.8,13.2,9.5L443.2,427.8z"/>
						</g>
					</g>
					<g>
						<path class="st5" d="M406,484.4c7.3-7.1,12.9-23.1,16.3-46.5c2.9-20,4-44.1,2.9-66c-2-40.5,10-59.2,12.5-62.6l3.4,2.8
							c-2.3,3.4-13.4,21.6-11.6,59.7c1.1,21.5,0,46.1-2.8,66c-3.6,24.9-9.7,42.2-17.8,50L406,484.4z"/>
					</g>
				</g>
				<g>
					<path class="st0" d="M448.9,433.8c0,0,0.8,18.1,6.6,34.2c0.8,2.2-2,4-3.6,2.3c-6.1-6.3-13.8-17.7-12.9-35.3l5-4.9L448.9,433.8z
						"/>
					<path class="st3" d="M444.8,427.3c1.8,1.3,4.2,3.8,6.3,8.3c0,0-3.1,0.6-5.4-1.5c0,0,0.3,2.9-1.6,5.5c0,0-1.8-1.4-2.6-4.6
						c0,0-0.7,2.9-3.8,3.4c0,0-0.4-5.1,2.6-10.2C441.2,426.6,443.3,426.2,444.8,427.3z"/>
					<path class="st0" d="M446.3,443.9c0.5,1.1,0,3.3-2.4,3.1"/>
					<path class="st0" d="M447.8,450.7c0.5,1.1,0,3.3-2.4,3.1"/>
					<path class="st0" d="M449.6,457.4c0.5,1.1,0,3.3-2.4,3.1"/>
				</g>
			</g>
			<path class="st5" d="M416.5,471.7c-0.2,0.4,14.6,5.4,22-10.6C438.5,461.1,422.4,457.5,416.5,471.7z"/>
		</g>
		<g>
			<g>
				<g>
					<g>
						<path class="st0" d="M549.9,487.7c-1.3-4.4-1.3-12.6,6.6-17.7c0.5-0.3,1-0.6,1.5-0.9l0.9,1.8c-0.4,0.2-0.9,0.5-1.2,0.7
							c-7.7,4.9-6.5,12.5-5.8,15.2L549.9,487.7z"/>
					</g>
				</g>
				<g>
					<path class="st0" d="M544.4,491.5c0,0-2.3,18-9.2,33.6c-1,2.2,1.7,4.1,3.4,2.6c6.6-5.8,15.1-16.6,15.7-34.1l-4.6-5.3
						L544.4,491.5z"/>
					<path class="st3" d="M548.9,485.3c-1.9,1.2-4.5,3.5-6.9,7.8c0,0,3,0.8,5.5-1c0,0-0.6,2.9,1.1,5.6c0,0,1.9-1.3,2.9-4.4
						c0,0,0.5,2.9,3.6,3.7c0,0,0.8-5-1.8-10.4C552.6,484.9,550.5,484.3,548.9,485.3z"/>
					<path class="st0" d="M546.2,501.7c-0.6,1.1-0.2,3.3,2.1,3.3"/>
					<path class="st0" d="M544.2,508.4c-0.6,1.1-0.2,3.3,2.1,3.3"/>
					<path class="st0" d="M541.8,515c-0.6,1.1-0.2,3.3,2.1,3.3"/>
				</g>
				<g>
					<path class="st5" d="M543.7,548.3c6.7-7.6,11-24.1,12.6-47.7c1.3-20.2,0.5-44.3-2.3-66c-5.2-40.2,5.3-59.8,7.6-63.4l3.6,2.5
						c-2.1,3.6-11.7,22.6-6.8,60.4c2.7,21.3,3.6,46,2.4,66c-1.6,25.1-6.4,42.8-13.8,51.2L543.7,548.3z"/>
				</g>
			</g>
			<path class="st5" d="M555.9,525.4c-0.1,0.5,14.9,4.3,21.1-12.3C577,513.1,560.6,510.8,555.9,525.4z"/>
		</g>
	</g>
	<path class="st3" d="M475,606c-75.8,16.2-113.5,49.4-117.1,64.3c-0.5,2.1,0.8,4.1,2.8,4.6c31.5,8.2,57.9,16.8,109.2,14.9
		c88.8-3.2,137.5-65.3,142.6-86C582.8,584.6,523.9,595.5,475,606z"/>
	<path class="st1" d="M585.9,650.9c0.8,1.7,1.7,3.4,2.7,5.1c8.7,14.9,3.8,32.2,3.8,32.2"/>
	<path class="st1" d="M580.7,623.8c0,0-1.3,8.7,2.7,20.6"/>
	<g>
		<path class="st2" d="M560.7,624.4c-5.1-0.1-23.1-4.2-20.5-15.3c3.2-13.7,23-18.6,34-19.2c10.2-0.5,34.9,1.9,25.6,22.1
			C591.9,628.8,567.2,624.6,560.7,624.4z"/>
		<g>
			<path class="st6" d="M570.9,590.1c0,0-4,7.2,1.2,14.6c0,0,7.8-11.4,21.6-11.9"/>
			<path class="st6" d="M578.7,624.7c0,0,0.4-13.2-6.6-20c10.4-3,28.1,6.1,28.1,6.1"/>
			<path class="st6" d="M540.1,609.9c0,0,13.6-7.7,32.1-5.2c0,0-17.5,8.7-20.4,17.9"/>
		</g>
	</g>
	<path class="st1" d="M484.4,696c1.5,5.1,3.5,9.6,6.4,13.1"/>
	<path class="st1" d="M461.6,612c0,0,9.7,16.4,15.9,47.7c2.1,10.5,3.3,20.5,5.1,29.1"/>
	<path class="st1" d="M436.3,696.8c1.8,23.7,13.6,44.3,29.9,49.2"/>
	<path class="st1" d="M427.2,645.5c0,0,8.5,30.2,8.9,43.9"/>
	<path class="st1" d="M508.3,691.8c1,5.5,2.3,11.2,4.2,17c11.8,35.5,18.9,40,18.9,40"/>
	<path class="st1" d="M509.1,638.6c0,0-4.9,20.5-1.9,46.2"/>
	<path class="st1" d="M500.3,693.6c0.3,1.2,0.5,2.3,0.7,3.5c5.2,29.2,2.5,72.9,23,91"/>
	<path class="st1" d="M483,646.5c0,0,10.1,20.6,15.6,40.1"/>
	<path class="st1" d="M470.5,697.1c0.4,2.8,0.6,5.9,0.6,9c-0.5,37,14.2,54.6,9.7,72.1"/>
	<path class="st1" d="M462.8,674.1c0,0,3.7,6.3,6.2,15.7"/>
	<path class="st1" d="M566,632c0,0-0.6,37.1,17.6,59.2s16.7,28.5,16.7,28.5"/>
	<path class="st1" d="M597,639.5c2.2,7.6,4.6,17.3,6.4,28.6c3.8,25.1,0.1,58.2,9.3,66.4"/>
	<path class="st1" d="M590.5,621.4c0,0,1.9,4,4.3,11.3"/>
	<path class="st1" d="M528.2,685.7c3.9,31.1,21.8,54.3,36.4,61.7"/>
	<path class="st1" d="M521.5,629c0,0,7.6,17.8,6.2,37.1c-0.3,4.2-0.3,8.4-0.1,12.4"/>
	<path class="st1" d="M418.7,695.2c6.9,15.5,13,30.7-2.8,49.5"/>
	<path class="st1" d="M410.7,658.2c-2.1,10.3,0.6,19.5,4.2,28.4c0.1,0.2,0.2,0.5,0.3,0.7"/>
	<path class="st4" d="M466.9,697.4c-6.9,1.1-11.6,7.5-10.8,14.4l-2.4,0.4c-1.5-6.8-8-11.3-14.9-10.1c-6.9,1.1-11.6,7.5-10.8,14.4
		l-2.4,0.4c-1.5-6.8-8-11.3-14.9-10.1c-7.1,1.2-11.9,7.9-10.8,15c1.2,7.1,7.9,11.9,15,10.8c6.7-1.1,11.4-7.2,10.9-13.9l2.4-0.4
		c1.7,6.5,8,10.8,14.8,9.7c6.7-1.1,11.4-7.2,10.9-13.9l2.4-0.4c1.7,6.5,8,10.8,14.8,9.7c7.1-1.2,11.9-7.9,10.8-15
		S474,696.2,466.9,697.4z"/>
	<g>
		<path class="st5" d="M379.8,653.4c-9,7.1-11.4,17.5-2.7,24.1c12.1,9,22.8-4.6,43.1-5.1c24.2-0.6,24.3-17.9,16.3-23.7
			C422,638.1,393.3,642.8,379.8,653.4z"/>
		<path class="st6" d="M378.5,677.9c0,0,10.5-14.8,31.4-17c0,0-17.6-7.7-37.2,2.5"/>
		<path class="st6" d="M393.7,646.5c0,0,11.7,1.9,16.3,14.5c0,0,10.4-12.8,26.1-12.1"/>
		<path class="st6" d="M417.9,672.3c0,0-3.5-8.7-8-11.4c12.4-4.2,27.7,5.1,27.7,5.1"/>
	</g>
	<g>
		<path class="st0" d="M450.6,631.3c-9.9,1.2-13.3,16.9,14.4,21.3c10.2,1.6,30.4,3.5,44.8-10.2c8.4-8.1,5.6-21.3-8-17.6
			c-12.7,3.4-11.7-1.4-24.2-1.3C467.5,623.5,460.9,630.1,450.6,631.3z"/>
		<path class="st6" d="M459.8,629c0,0,13.8,0.6,23.2,9.1c0,0,2-10.1,8.8-12.2"/>
		<path class="st6" d="M470.3,653.1c0,0,3-8.1,12.7-15c-25.6-1.9-34.9,8-34.9,8"/>
		<path class="st6" d="M514.2,631c0,0-13.4-7.2-31.2,7.1c10.6,0.1,21.2,8.5,21.2,8.5"/>
	</g>
	<path class="st5" d="M427.5,668.1c-3.2,7.7-0.9,18.4,17.7,16.4c29.1-3.1,56.3-15.3,40-33.1C472.5,637.5,434.6,651.1,427.5,668.1z"
		/>
	<path class="st6" d="M442.6,684.5c0,0,4.4-14.9,16.5-20.7c0,0,5.7,7,7.2,16.5"/>
	<path class="st6" d="M447.1,651.2c0,0,9.8,4.2,12,12.6c-18.1-2.9-31.9,6.4-31.9,6.4"/>
	<path class="st6" d="M476.5,646.8c0,0-3.7,12.8-17.4,17c14.7-0.1,23.9,8.9,23.9,8.9"/>
	<g>
		<path class="st5" d="M552.6,638.1c16.9,2.5,27-6.7,19.1-10.6c-7.9-3.9-20.1-11.6-33.3-12.8c-15.6-1.4-36.4,5.3-37.3,17.7
			C500.2,644.6,530.4,634.8,552.6,638.1z"/>
		<path class="st1" d="M552.6,638.1c0,0-9.2-14.8-21-13.9c0,0-8.8,2.2-11.3,14.3"/>
		<path class="st1" d="M501,632.3c0,0,13.6-11.3,30.6-8.2c12.4-3.1,37.7,2.1,37.7,2.1"/>
		<path class="st1" d="M527.7,614.8c0,0,4.1,2.3,3.9,9.3"/>
	</g>
	<path class="st4" d="M595.8,671.5c-4.6,3.3-5.8,9.7-2.7,14.4l-1.6,1.1c-3.5-4.4-9.9-5.4-14.5-2c-4.6,3.3-5.8,9.7-2.7,14.4l-1.6,1.1
		c-3.5-4.4-9.9-5.4-14.5-2c-4.8,3.4-5.9,10.1-2.5,14.8c3.4,4.8,10.1,5.9,14.8,2.5c4.5-3.2,5.7-9.4,2.9-14.1l1.6-1.2
		c3.5,4.2,9.7,5,14.3,1.7c4.5-3.2,5.7-9.4,2.9-14.1l1.6-1.2c3.5,4.2,9.7,5,14.3,1.7c4.8-3.4,5.9-10.1,2.5-14.8
		C607.3,669.2,600.6,668.1,595.8,671.5z"/>
	<path class="st3" d="M551.7,734.6c-6.9,0-12.5,5.5-12.8,12.3h-2.4c0-0.2,0-0.4-0.1-0.7v-0.1c0-0.4-0.1-0.7-0.2-1.1
		c0-0.1,0-0.2-0.1-0.3c-0.1-0.3-0.1-0.6-0.2-0.9c0-0.1-0.1-0.3-0.1-0.4c-0.1-0.2-0.2-0.5-0.3-0.7c-0.1-0.2-0.1-0.3-0.2-0.5
		s-0.2-0.4-0.3-0.5c-0.1-0.2-0.2-0.4-0.3-0.6c-0.1-0.1-0.2-0.2-0.2-0.4c-0.1-0.2-0.3-0.5-0.5-0.7c0-0.1-0.1-0.1-0.2-0.2
		c-0.2-0.3-0.4-0.5-0.6-0.8l0,0c-2.4-2.7-5.9-4.4-9.7-4.4c-6.9,0-12.5,5.5-12.8,12.3h-2.4c-0.2-3-1.3-5.7-3.2-7.8
		c-2.4-2.7-5.9-4.4-9.7-4.4c-6.9,0-12.5,5.5-12.8,12.3h-2.4c-0.4-6.8-6-12.2-12.9-12.2c-7.1,0-12.8,5.8-12.8,12.9
		c0,7.1,5.8,12.8,12.9,12.8c6.7,0,12.2-5.2,12.8-11.8h2.4c0.1,1,0.3,1.9,0.6,2.7l0,0c0.1,0.4,0.2,0.7,0.4,1.1c0,0.1,0.1,0.2,0.1,0.2
		c0.1,0.3,0.3,0.5,0.4,0.8c0.1,0.1,0.1,0.3,0.2,0.4c0.1,0.2,0.2,0.4,0.4,0.6c0.1,0.2,0.2,0.3,0.3,0.5c0.1,0.1,0.2,0.3,0.3,0.4
		c0.2,0.2,0.3,0.4,0.5,0.6c0.1,0.1,0.2,0.2,0.2,0.3c0.2,0.2,0.4,0.4,0.6,0.6l0.1,0.1c2.3,2.1,5.3,3.4,8.7,3.3
		c6.7,0,12.2-5.2,12.8-11.8h2.4c0.3,2.9,1.5,5.5,3.3,7.5c2.4,2.6,5.8,4.3,9.6,4.2c6.7,0,12.2-5.2,12.8-11.8h2.4
		c0.6,6.6,6.1,11.7,12.9,11.7c7.1,0,12.8-5.8,12.8-12.9C564.6,740.3,558.8,734.6,551.7,734.6z"/>
	<g>
		<g>
			<g>
				<path class="st0" d="M317.8,653.7c0.1-1.9,0.4-3.8,1-5.6c0.5-1.8,1.2-3.6,2.3-5.3c1.1-1.6,2.6-3.1,4.5-3.8c1-0.4,2-0.5,3-0.5
					c1.1,0,2.2,0.3,3,0.9c1.8,1.2,2.9,3,3.7,4.7c0.8,1.8,1.3,3.7,1.7,5.5c0.8,3.8,1.1,7.6,1.1,11.4h-1.5c-0.1-3.7-0.5-7.4-1.3-11.1
					c-0.4-1.8-0.9-3.6-1.6-5.2c-0.7-1.6-1.7-3.2-3-4.1c-0.7-0.5-1.5-0.7-2.3-0.8c-0.8,0-1.7,0.1-2.5,0.4c-1.6,0.5-3,1.7-4.1,3.2
					C319.8,646.4,318.6,650,317.8,653.7z"/>
				<path class="st0" d="M325,631.9c2.1-0.3,4.2,0.4,6,1.6c1.8,1.2,3.1,3,4.1,4.9c0.3,0.5,0.5,0.9,0.7,1.4l0.6,1.5
					c0.3,1,0.7,2,0.9,3s0.4,2.1,0.6,3.1c0.1,1,0.2,2.1,0.3,3.1l-1.4,0.1c-0.2-1-0.3-2-0.4-3c-0.1-1-0.4-2-0.6-3
					c-0.2-1-0.5-1.9-0.8-2.9l-0.5-1.4c-0.2-0.5-0.3-0.9-0.6-1.4c-0.8-1.8-1.9-3.5-3.4-4.8c-0.4-0.3-0.8-0.6-1.2-0.9
					c-0.4-0.2-0.8-0.5-1.3-0.7C327,632.2,326,632,325,631.9z"/>
				<path class="st0" d="M336.8,658.2c-0.2-3.1-0.2-6.1,0.1-9.2c0.4-3,0.9-6.2,2.6-9c0.8-1.4,2.2-2.7,4-3c1.7-0.3,3.5,0.1,4.9,1.1
					s2.3,2.4,2.8,3.9c0.6,1.5,0.8,3,0.9,4.5c-0.4-1.5-0.9-2.9-1.6-4.2c-0.7-1.3-1.6-2.4-2.8-3.1c-1.1-0.7-2.6-1-3.8-0.7
					s-2.3,1.2-3,2.4s-1.2,2.6-1.5,4c-0.4,1.4-0.6,2.9-0.8,4.4c-0.3,2.9-0.5,6-0.4,8.9L336.8,658.2z"/>
				<path class="st0" d="M344.4,657.6c-1.6,0.5-3,1.6-4,2.8c-0.9,1-1.6,2.2-2.2,3.4v-1.5c0-1,0-2,0-3l0.1-10.6c0-3.3,0-6.5-0.1-9.8
					s-0.3-6.5-0.7-9.8c-0.4,3.3-0.6,6.5-0.7,9.8c-0.1,3.3-0.1,6.5-0.1,9.8v1.7c-0.6-1.5-1.4-2.9-2.9-3.9c-0.9-0.6-1.9-0.9-3-0.9
					c-0.5,0-1,0.1-1.5,0.1c-0.5,0.1-1,0.2-1.4,0.3c-1.9,0.7-3.4,2.1-4.3,3.7c-0.9,1.6-1.5,3.4-1.6,5.3c0.3-0.9,0.6-1.7,1-2.5
					s0.8-1.6,1.4-2.2c1.1-1.4,2.4-2.4,4-2.9c0.4-0.1,0.8-0.2,1.2-0.2s0.8-0.1,1.2-0.1c0.8,0,1.5,0.3,2.1,0.7c1.3,0.9,2.1,2.4,2.6,4
					c1.1,3.3,1.2,6.9,1.2,10.4l0.1,10.8h1.3l0.1-3.8c0.1-1.4,0.6-2.9,1.1-4.2c0.5-1.4,1.2-2.7,2.1-4c0.9-1.2,1.9-2.3,3.3-2.9
					c1.3-0.6,2.9-0.6,4.4-0.2C347.8,657.4,346,657.1,344.4,657.6z"/>
			</g>
			<g>
				<path class="st0" d="M334.6,628.8c0.1-1.9,0.4-3.8,1-5.6c0.5-1.8,1.2-3.6,2.3-5.3c1.1-1.6,2.6-3.1,4.5-3.8c1-0.4,2-0.5,3-0.5
					c1.1,0,2.2,0.3,3,0.9c1.8,1.2,2.9,3,3.7,4.7c0.8,1.8,1.3,3.7,1.7,5.5c0.8,3.8,1.1,7.6,1.1,11.4h-1.5c-0.1-3.7-0.5-7.4-1.3-11.1
					c-0.4-1.8-0.9-3.6-1.6-5.2c-0.7-1.6-1.7-3.2-3-4.1c-0.7-0.5-1.5-0.7-2.3-0.8c-0.8,0-1.7,0.1-2.5,0.4c-1.6,0.5-3,1.7-4.1,3.2
					C336.7,621.6,335.4,625.2,334.6,628.8z"/>
				<path class="st0" d="M341.8,607.1c2.1-0.3,4.2,0.4,6,1.6c1.8,1.2,3.1,3,4.1,4.9c0.3,0.5,0.5,0.9,0.7,1.4l0.6,1.5
					c0.3,1,0.7,2,0.9,3s0.4,2.1,0.6,3.1c0.1,1,0.2,2.1,0.3,3.1l-1.4,0.1c-0.2-1-0.3-2-0.4-3c-0.1-1-0.4-2-0.6-3
					c-0.2-1-0.5-1.9-0.8-2.9l-0.5-1.4c-0.2-0.5-0.3-0.9-0.6-1.4c-0.8-1.8-1.9-3.5-3.4-4.8c-0.4-0.3-0.8-0.6-1.2-0.9
					c-0.4-0.2-0.8-0.5-1.3-0.7C343.8,607.4,342.8,607.1,341.8,607.1z"/>
				<path class="st0" d="M353.6,633.4c-0.2-3.1-0.2-6.1,0.1-9.2c0.4-3,0.9-6.2,2.6-9c0.8-1.4,2.2-2.7,4-3c1.7-0.3,3.5,0.1,4.9,1.1
					s2.3,2.4,2.8,3.9c0.6,1.5,0.8,3,0.9,4.5c-0.4-1.5-0.9-2.9-1.6-4.2c-0.7-1.3-1.6-2.4-2.8-3.1c-1.1-0.7-2.6-1-3.8-0.7
					s-2.3,1.2-3,2.4s-1.2,2.6-1.5,4c-0.4,1.4-0.6,2.9-0.8,4.4c-0.3,2.9-0.5,6-0.4,8.9L353.6,633.4z"/>
				<path class="st0" d="M361.3,632.8c-1.6,0.5-3,1.6-4,2.8c-0.9,1-1.6,2.2-2.2,3.4v-1.5c0-1,0-2,0-3l0.1-10.6c0-3.3,0-6.5-0.1-9.8
					s-0.3-6.5-0.7-9.8c-0.4,3.3-0.6,6.5-0.7,9.8c-0.1,3.3-0.1,6.5-0.1,9.8v1.7c-0.6-1.5-1.4-2.9-2.9-3.9c-0.9-0.6-1.9-0.9-3-0.9
					c-0.5,0-1,0.1-1.5,0.1c-0.5,0.1-1,0.2-1.4,0.3c-1.9,0.7-3.4,2.1-4.3,3.7c-0.9,1.6-1.5,3.4-1.6,5.3c0.3-0.9,0.6-1.7,1-2.5
					s0.8-1.6,1.4-2.2c1.1-1.4,2.4-2.4,4-2.9c0.4-0.1,0.8-0.2,1.2-0.2s0.8-0.1,1.2-0.1c0.8,0,1.5,0.3,2.1,0.7c1.3,0.9,2.1,2.4,2.6,4
					c1.1,3.3,1.2,6.9,1.2,10.4l0.1,10.8h1.3l0.1-3.8c0.1-1.4,0.6-2.9,1.1-4.2c0.5-1.4,1.2-2.7,2.1-4c0.9-1.2,1.9-2.3,3.3-2.9
					c1.3-0.6,2.9-0.6,4.4-0.2C364.6,632.6,362.9,632.3,361.3,632.8z"/>
			</g>
			<g>
				<path class="st0" d="M354.6,603.3c0.1-1.9,0.4-3.8,1-5.6c0.5-1.8,1.2-3.6,2.3-5.3c1.1-1.6,2.6-3.1,4.5-3.8c1-0.4,2-0.5,3-0.5
					c1.1,0,2.2,0.3,3,0.9c1.8,1.2,2.9,3,3.7,4.7c0.8,1.8,1.3,3.7,1.7,5.5c0.8,3.8,1.1,7.6,1.1,11.4h-1.5c-0.1-3.7-0.5-7.4-1.3-11.1
					c-0.4-1.8-0.9-3.6-1.6-5.2c-0.7-1.6-1.7-3.2-3-4.1c-0.7-0.5-1.5-0.7-2.3-0.8c-0.8,0-1.7,0.1-2.5,0.4c-1.6,0.5-3,1.7-4.1,3.2
					C356.7,596,355.5,599.6,354.6,603.3z"/>
				<path class="st0" d="M361.8,581.5c2.1-0.3,4.2,0.4,6,1.6c1.8,1.2,3.1,3,4.1,4.9c0.3,0.5,0.5,0.9,0.7,1.4l0.6,1.5
					c0.3,1,0.7,2,0.9,3s0.4,2.1,0.6,3.1c0.1,1,0.2,2.1,0.3,3.1l-1.4,0.1c-0.2-1-0.3-2-0.4-3c-0.1-1-0.4-2-0.6-3
					c-0.2-1-0.5-1.9-0.8-2.9l-0.5-1.4c-0.2-0.5-0.3-0.9-0.6-1.4c-0.8-1.8-1.9-3.5-3.4-4.8c-0.4-0.3-0.8-0.6-1.2-0.9
					c-0.4-0.2-0.8-0.5-1.3-0.7C363.9,581.8,362.9,581.6,361.8,581.5z"/>
				<path class="st0" d="M373.6,607.8c-0.2-3.1-0.2-6.1,0.1-9.2c0.4-3,0.9-6.2,2.6-9c0.8-1.4,2.2-2.7,4-3c1.7-0.3,3.5,0.1,4.9,1.1
					s2.3,2.4,2.8,3.9c0.6,1.5,0.8,3,0.9,4.5c-0.4-1.5-0.9-2.9-1.6-4.2c-0.7-1.3-1.6-2.4-2.8-3.1c-1.1-0.7-2.6-1-3.8-0.7
					s-2.3,1.2-3,2.4s-1.2,2.6-1.5,4c-0.4,1.4-0.6,2.9-0.8,4.4c-0.3,2.9-0.5,6-0.4,8.9L373.6,607.8z"/>
				<path class="st0" d="M381.3,607.2c-1.6,0.5-3,1.6-4,2.8c-0.9,1-1.6,2.2-2.2,3.4v-1.5c0-1,0-2,0-3l0.1-10.6c0-3.3,0-6.5-0.1-9.8
					s-0.3-6.5-0.7-9.8c-0.4,3.3-0.6,6.5-0.7,9.8c-0.1,3.3-0.1,6.5-0.1,9.8v1.7c-0.6-1.5-1.4-2.9-2.9-3.9c-0.9-0.6-1.9-0.9-3-0.9
					c-0.5,0-1,0.1-1.5,0.1c-0.5,0.1-1,0.2-1.4,0.3c-1.9,0.7-3.4,2.1-4.3,3.7c-0.9,1.6-1.5,3.4-1.6,5.3c0.3-0.9,0.6-1.7,1-2.5
					s0.8-1.6,1.4-2.2c1.1-1.4,2.4-2.4,4-2.9c0.4-0.1,0.8-0.2,1.2-0.2s0.8-0.1,1.2-0.1c0.8,0,1.5,0.3,2.1,0.7c1.3,0.9,2.1,2.4,2.6,4
					c1.1,3.3,1.2,6.9,1.2,10.4l0.1,10.8h1.3l0.1-3.8c0.1-1.4,0.6-2.9,1.1-4.2c0.5-1.4,1.2-2.7,2.1-4c0.9-1.2,1.9-2.3,3.3-2.9
					c1.3-0.6,2.9-0.6,4.4-0.2C384.6,607,382.9,606.7,381.3,607.2z"/>
			</g>
			<g>
				<path class="st0" d="M285.4,641.6c0.1-1.9,0.4-3.8,1-5.6c0.5-1.8,1.2-3.6,2.3-5.3c1.1-1.6,2.6-3.1,4.5-3.8c1-0.4,2-0.5,3-0.5
					c1.1,0,2.2,0.3,3,0.9c1.8,1.2,2.9,3,3.7,4.7c0.8,1.8,1.3,3.7,1.7,5.5c0.8,3.8,1.1,7.6,1.1,11.4h-1.5c-0.1-3.7-0.5-7.4-1.3-11.1
					c-0.4-1.8-0.9-3.6-1.6-5.2c-0.7-1.6-1.7-3.2-3-4.1c-0.7-0.5-1.5-0.7-2.3-0.8c-0.8,0-1.7,0.1-2.5,0.4c-1.6,0.5-3,1.7-4.1,3.2
					C287.5,634.3,286.2,637.9,285.4,641.6z"/>
				<path class="st0" d="M292.6,619.8c2.1-0.3,4.2,0.4,6,1.6c1.8,1.2,3.1,3,4.1,4.9c0.3,0.5,0.5,0.9,0.7,1.4l0.6,1.5
					c0.3,1,0.7,2,0.9,3s0.4,2.1,0.6,3.1c0.1,1,0.2,2.1,0.3,3.1l-1.4,0.1c-0.2-1-0.3-2-0.4-3c-0.1-1-0.4-2-0.6-3
					c-0.2-1-0.5-1.9-0.8-2.9l-0.5-1.4c-0.2-0.5-0.3-0.9-0.6-1.4c-0.8-1.8-1.9-3.5-3.4-4.8c-0.4-0.3-0.8-0.6-1.2-0.9
					c-0.4-0.2-0.8-0.5-1.3-0.7C294.6,620.1,293.6,619.9,292.6,619.8z"/>
				<path class="st0" d="M304.4,646.1c-0.2-3.1-0.2-6.1,0.1-9.2c0.4-3,0.9-6.2,2.6-9c0.8-1.4,2.2-2.7,4-3c1.7-0.3,3.5,0.1,4.9,1.1
					s2.3,2.4,2.8,3.9c0.6,1.5,0.8,3,0.9,4.5c-0.4-1.5-0.9-2.9-1.6-4.2c-0.7-1.3-1.6-2.4-2.8-3.1c-1.1-0.7-2.6-1-3.8-0.7
					s-2.3,1.2-3,2.4s-1.2,2.6-1.5,4c-0.4,1.4-0.6,2.9-0.8,4.4c-0.3,2.9-0.5,6-0.4,8.9L304.4,646.1z"/>
				<path class="st0" d="M312.1,645.5c-1.6,0.5-3,1.6-4,2.8c-0.9,1-1.6,2.2-2.2,3.4v-1.5c0-1,0-2,0-3l0.1-10.6c0-3.3,0-6.5-0.1-9.8
					s-0.3-6.5-0.7-9.8c-0.4,3.3-0.6,6.5-0.7,9.8c-0.1,3.3-0.1,6.5-0.1,9.8v1.7c-0.6-1.5-1.4-2.9-2.9-3.9c-0.9-0.6-1.9-0.9-3-0.9
					c-0.5,0-1,0.1-1.5,0.1c-0.5,0.1-1,0.2-1.4,0.3c-1.9,0.7-3.4,2.1-4.3,3.7c-0.9,1.6-1.5,3.4-1.6,5.3c0.3-0.9,0.6-1.7,1-2.5
					s0.8-1.6,1.4-2.2c1.1-1.4,2.4-2.4,4-2.9c0.4-0.1,0.8-0.2,1.2-0.2s0.8-0.1,1.2-0.1c0.8,0,1.5,0.3,2.1,0.7c1.3,0.9,2.1,2.4,2.6,4
					c1.1,3.3,1.2,6.9,1.2,10.4l0.1,10.8h1.3l0.1-3.8c0.1-1.4,0.6-2.9,1.1-4.2c0.5-1.4,1.2-2.7,2.1-4c0.9-1.2,1.9-2.3,3.3-2.9
					c1.3-0.6,2.9-0.6,4.4-0.2C315.4,645.3,313.7,645,312.1,645.5z"/>
			</g>
			<g>
				<path class="st0" d="M303.5,610.1c0.1-1.9,0.4-3.8,1-5.6c0.5-1.8,1.2-3.6,2.3-5.3c1.1-1.6,2.6-3.1,4.5-3.8c1-0.4,2-0.5,3-0.5
					c1.1,0,2.2,0.3,3,0.9c1.8,1.2,2.9,3,3.7,4.7c0.8,1.8,1.3,3.7,1.7,5.5c0.8,3.8,1.1,7.6,1.1,11.4h-1.3c-0.1-3.7-0.5-7.4-1.3-11.1
					c-0.4-1.8-0.9-3.6-1.6-5.2c-0.7-1.6-1.7-3.2-3-4.1c-0.7-0.5-1.5-0.7-2.3-0.8c-0.8,0-1.7,0.1-2.5,0.4c-1.6,0.5-3,1.7-4.1,3.2
					C305.6,602.8,304.3,606.5,303.5,610.1z"/>
				<path class="st0" d="M310.7,588.3c2.1-0.3,4.2,0.4,6,1.6c1.8,1.2,3.1,3,4.1,4.9c0.3,0.5,0.5,0.9,0.7,1.4l0.6,1.5
					c0.3,1,0.7,2,0.9,3s0.4,2.1,0.6,3.1c0.1,1,0.2,2.1,0.3,3.1l-1.4,0.1c-0.2-1-0.3-2-0.4-3c-0.1-1-0.4-2-0.6-3
					c-0.2-1-0.5-1.9-0.8-2.9l-0.5-1.4c-0.2-0.5-0.3-0.9-0.6-1.4c-0.8-1.8-1.9-3.5-3.4-4.8c-0.4-0.3-0.8-0.6-1.2-0.9
					c-0.4-0.2-0.8-0.5-1.3-0.7C312.7,588.7,311.7,588.4,310.7,588.3z"/>
				<path class="st0" d="M322.5,614.6c-0.2-3.1-0.2-6.1,0.1-9.2c0.4-3,0.9-6.2,2.6-9c0.8-1.4,2.2-2.7,4-3c1.7-0.3,3.5,0.1,4.9,1.1
					s2.3,2.4,2.8,3.9c0.6,1.5,0.8,3,0.9,4.5c-0.4-1.5-0.9-2.9-1.6-4.2c-0.7-1.3-1.6-2.4-2.8-3.1c-1.1-0.7-2.6-1-3.8-0.7
					s-2.3,1.2-3,2.4s-1.2,2.6-1.5,4c-0.4,1.4-0.6,2.9-0.8,4.4c-0.3,2.9-0.5,6-0.4,8.9L322.5,614.6z"/>
				<path class="st0" d="M330.2,614.1c-1.6,0.5-3,1.6-4,2.8c-0.9,1-1.6,2.2-2.2,3.4v-1.5c0-1,0-2,0-3l0.1-10.6c0-3.3,0-6.5-0.1-9.8
					s-0.3-6.5-0.7-9.8c-0.4,3.3-0.6,6.5-0.7,9.8c-0.1,3.3-0.1,6.5-0.1,9.8v1.7c-0.6-1.5-1.4-2.9-2.9-3.9c-0.9-0.6-1.9-0.9-3-0.9
					c-0.5,0-1,0.1-1.5,0.1c-0.5,0.1-1,0.2-1.4,0.3c-1.9,0.7-3.4,2.1-4.3,3.7c-0.9,1.6-1.5,3.4-1.6,5.3c0.3-0.9,0.6-1.7,1-2.5
					s0.8-1.6,1.4-2.2c1.1-1.4,2.4-2.4,4-2.9c0.4-0.1,0.8-0.2,1.2-0.2s0.8-0.1,1.2-0.1c0.8,0,1.5,0.3,2.1,0.7c1.3,0.9,2.1,2.4,2.6,4
					c1.1,3.3,1.2,6.9,1.2,10.4l0.1,10.8h1.3l0.1-3.8c0.1-1.4,0.6-2.9,1.1-4.2c0.5-1.4,1.2-2.7,2.1-4c0.9-1.2,1.9-2.3,3.3-2.9
					c1.3-0.6,2.9-0.6,4.4-0.2C333.5,613.8,331.8,613.6,330.2,614.1z"/>
			</g>
			<g>
				<path class="st0" d="M324.4,587.4c0.1-1.9,0.4-3.8,1-5.6c0.5-1.8,1.2-3.6,2.3-5.3c1.1-1.6,2.6-3.1,4.5-3.8c1-0.4,2-0.5,3-0.5
					c1.1,0,2.2,0.3,3,0.9c1.8,1.2,2.9,3,3.7,4.7c0.8,1.8,1.3,3.7,1.7,5.5c0.8,3.8,1.1,7.6,1.1,11.4h-1.5c-0.1-3.7-0.5-7.4-1.3-11.1
					c-0.4-1.8-0.9-3.6-1.6-5.2c-0.7-1.6-1.7-3.2-3-4.1c-0.7-0.5-1.5-0.7-2.3-0.8c-0.8,0-1.7,0.1-2.5,0.4c-1.6,0.5-3,1.7-4.1,3.2
					C326.5,580.1,325.3,583.7,324.4,587.4z"/>
				<path class="st0" d="M331.6,565.6c2.1-0.3,4.2,0.4,6,1.6c1.8,1.2,3.1,3,4.1,4.9c0.3,0.5,0.5,0.9,0.7,1.4l0.6,1.5
					c0.3,1,0.7,2,0.9,3s0.4,2.1,0.6,3.1c0.1,1,0.2,2.1,0.3,3.1l-1.4,0.1c-0.2-1-0.3-2-0.4-3c-0.1-1-0.4-2-0.6-3
					c-0.2-1-0.5-1.9-0.8-2.9l-0.5-1.4c-0.2-0.5-0.3-0.9-0.6-1.4c-0.8-1.8-1.9-3.5-3.4-4.8c-0.4-0.3-0.8-0.6-1.2-0.9
					c-0.4-0.2-0.8-0.5-1.3-0.7C333.7,565.9,332.7,565.7,331.6,565.6z"/>
				<path class="st0" d="M343.4,591.9c-0.2-3.1-0.2-6.1,0.1-9.2c0.4-3,0.9-6.2,2.6-9c0.8-1.4,2.2-2.7,4-3c1.7-0.3,3.5,0.1,4.9,1.1
					s2.3,2.4,2.8,3.9c0.6,1.5,0.8,3,0.9,4.5c-0.4-1.5-0.9-2.9-1.6-4.2c-0.7-1.3-1.6-2.4-2.8-3.1c-1.1-0.7-2.6-1-3.8-0.7
					s-2.3,1.2-3,2.4s-1.2,2.6-1.5,4c-0.4,1.4-0.6,2.9-0.8,4.4c-0.3,2.9-0.5,6-0.4,8.9L343.4,591.9z"/>
				<path class="st0" d="M351.1,591.3c-1.6,0.5-3,1.6-4,2.8c-0.9,1-1.6,2.2-2.2,3.4V596c0-1,0-2,0-3l0.1-10.6c0-3.3,0-6.5-0.1-9.8
					s-0.3-6.5-0.7-9.8c-0.4,3.3-0.6,6.5-0.7,9.8c-0.1,3.3-0.1,6.5-0.1,9.8v1.7c-0.6-1.5-1.4-2.9-2.9-3.9c-0.9-0.6-1.9-0.9-3-0.9
					c-0.5,0-1,0.1-1.5,0.1c-0.5,0.1-1,0.2-1.4,0.3c-1.9,0.7-3.4,2.1-4.3,3.7c-0.9,1.6-1.5,3.4-1.6,5.3c0.3-0.9,0.6-1.7,1-2.5
					s0.8-1.6,1.4-2.2c1.1-1.4,2.4-2.4,4-2.9c0.4-0.1,0.8-0.2,1.2-0.2s0.8-0.1,1.2-0.1c0.8,0,1.5,0.3,2.1,0.7c1.3,0.9,2.1,2.4,2.6,4
					c1.1,3.3,1.2,6.9,1.2,10.4l0.1,10.8h1.3l0.1-3.8c0.1-1.4,0.6-2.9,1.1-4.2c0.5-1.4,1.2-2.7,2.1-4c0.9-1.2,1.9-2.3,3.3-2.9
					c1.3-0.6,2.9-0.6,4.4-0.2C354.4,591.1,352.7,590.8,351.1,591.3z"/>
			</g>
		</g>
	</g>
	<path class="st3" d="M620,731.2c-2.5-2.5-18.6-17.9-38.8-10.5c-25,9.1-37.2,64.8-66,64.8c-39.7,0-29.9-47.7-95-41.1
		c-42.2,4.3-58.5-41-62.4-62.5c-34.3-9-74.1-17.6-155.9-12.8c-120.8,7.1-112-73.6-153-82.6c-1.2,16.9,7,27.6,17.3,38.1
		c17.2,17.5,16.3,53.3,17.3,65.8s4.3,51.4,54.3,51.4c50.1,0,56.4,38.1,59.2,64.5s14,80.3,91.3,56.4c72.1-22.3,63.9,99.1,110.9,111.5
		c57,15.1,58.2-123.2,105.2-109.4c20.2,5.9,30.9,3.3,42.7-27.9c12.8-33.6,26.4-38.3,43.6-39.7C620.5,795,623.1,767.2,620,731.2z"/>
	<g>
		<g>
			<g>
				<g>
					<path class="st5" d="M243.6,564.8c-0.4-8,3.8-10.7,6.2-11.6c-1.7-1.5-3.5-3.4-5.3-6.1c-6.8-9.6-15.7-3.5-15.7-3.5
						c-18.6,3.6-16,19.2-16,19.2s17.1,28.7,30.1,24.6C237.7,580.6,244.1,575.2,243.6,564.8z"/>
					<path class="st3" d="M258.8,566.1c0-7.4-3.8-8.1-9-12.9c-2.5,0.9-6.6,3.6-6.2,11.6c0.5,10.5-5.9,15.8-0.7,22.7
						c0.2-0.1,0.3-0.1,0.5-0.2C256.1,582.4,258.8,573.4,258.8,566.1z"/>
				</g>
				<path class="st0" d="M210.1,569.3c-1.1,5.4,0.1,14.2,12.8,17.8c16.7,4.7,23.1,0.1,25.9-5.2c2.9-5.3,4.3-13,0-16.8
					c-4.3-3.7-5.8-6.3-7.6-10c-2.8-5.9-11.9-10.1-21.1-4.3C212.7,555.5,211,564.9,210.1,569.3z"/>
			</g>
			<path class="st1" d="M226.1,588c0,0-4.2-11.8,0.9-22.2"/>
		</g>
		<g>
			<g>
				<g>
					<path class="st5" d="M209.9,590.5c-0.4-8,3.8-10.7,6.2-11.6c-1.7-1.5-3.5-3.4-5.3-6.1c-6.8-9.6-15.7-3.5-15.7-3.5
						c-18.6,3.6-16,19.2-16,19.2s17.1,28.7,30.1,24.6C204,606.2,210.4,600.9,209.9,590.5z"/>
					<path class="st3" d="M225.2,591.8c0-7.4-3.8-8.1-9-12.9c-2.5,0.9-6.6,3.6-6.2,11.6c0.5,10.5-5.9,15.8-0.7,22.7
						c0.2-0.1,0.3-0.1,0.5-0.2C222.4,608.1,225.2,599.1,225.2,591.8z"/>
				</g>
				<path class="st0" d="M176.5,594.9c-1.1,5.4,0.1,14.2,12.8,17.8c16.7,4.7,23.1,0.1,25.9-5.2c2.9-5.3,4.3-13,0-16.8
					c-4.3-3.7-5.8-6.3-7.6-10c-2.8-5.9-11.9-10.1-21.1-4.3C179,581.1,177.3,590.6,176.5,594.9z"/>
			</g>
			<path class="st1" d="M192.5,613.7c0,0-4.2-11.8,0.9-22.2"/>
		</g>
		<g>
			<g>
				<g>
					<path class="st5" d="M294.2,589.1c-0.4-8,3.8-10.7,6.2-11.6c-1.7-1.5-3.5-3.4-5.3-6.1c-6.8-9.6-15.7-3.5-15.7-3.5
						c-18.6,3.6-16,19.2-16,19.2s17.1,28.7,30.1,24.6C288.3,604.9,294.8,599.6,294.2,589.1z"/>
					<path class="st3" d="M309.5,590.4c0-7.4-3.8-8.1-9-12.9c-2.5,0.9-6.6,3.6-6.2,11.6c0.5,10.5-5.9,15.8-0.7,22.7
						c0.2-0.1,0.3-0.1,0.5-0.2C306.7,606.8,309.5,597.7,309.5,590.4z"/>
				</g>
				<path class="st0" d="M260.8,593.6c-1.1,5.4,0.1,14.2,12.8,17.8c16.7,4.7,23.1,0.1,25.9-5.2c2.9-5.3,4.3-13,0-16.8
					c-4.3-3.7-5.8-6.3-7.6-10c-2.8-5.9-11.9-10.1-21.1-4.3C263.4,579.8,261.6,589.2,260.8,593.6z"/>
			</g>
			<path class="st1" d="M276.8,612.3c0,0-4.2-11.8,0.9-22.2"/>
		</g>
		<g>
			<g>
				<g>
					<path class="st5" d="M266.1,615.6c-0.4-8,3.8-10.7,6.2-11.6c-1.7-1.5-3.5-3.4-5.3-6.1c-6.8-9.6-15.7-3.5-15.7-3.5
						c-18.6,3.6-16,19.2-16,19.2s17.1,28.7,30.1,24.6C260.2,631.4,266.7,626.1,266.1,615.6z"/>
					<path class="st3" d="M281.4,617c0-7.4-3.8-8.1-9-12.9c-2.5,0.9-6.6,3.6-6.2,11.6c0.5,10.5-5.9,15.8-0.7,22.7
						c0.2-0.1,0.3-0.1,0.5-0.2C278.6,633.3,281.4,624.2,281.4,617z"/>
				</g>
				<path class="st0" d="M232.7,620.1c-1.1,5.4,0.1,14.2,12.8,17.8c16.7,4.7,23.1,0.1,25.9-5.2s4.3-13,0-16.8s-5.8-6.3-7.6-10
					c-2.8-5.9-11.9-10.1-21.1-4.3C235.3,606.3,233.5,615.7,232.7,620.1z"/>
			</g>
			<path class="st1" d="M248.7,638.8c0,0-4.2-11.8,0.9-22.2"/>
		</g>
		<g>
			<g>
				<g>
					<path class="st5" d="M236.6,638.8c-0.4-8,3.8-10.7,6.2-11.6c-1.7-1.5-3.5-3.4-5.3-6.1c-6.8-9.6-15.7-3.5-15.7-3.5
						c-18.6,3.6-16,19.2-16,19.2s17.1,28.7,30.1,24.6C230.7,654.6,237.1,649.3,236.6,638.8z"/>
					<path class="st3" d="M251.8,640.2c0-7.4-3.8-8.1-9-12.9c-2.5,0.9-6.6,3.6-6.2,11.6c0.5,10.5-5.9,15.8-0.7,22.7
						c0.2-0.1,0.3-0.1,0.5-0.2C249,656.5,251.8,647.4,251.8,640.2z"/>
				</g>
				<path class="st0" d="M203.1,643.3c-1.1,5.4,0.1,14.2,12.8,17.8c16.7,4.7,23.1,0.1,25.9-5.2c2.9-5.3,4.3-13,0-16.8
					c-4.3-3.7-5.8-6.3-7.6-10c-2.8-5.9-11.9-10.1-21.1-4.3C205.7,629.5,204,638.9,203.1,643.3z"/>
			</g>
			<path class="st1" d="M219.1,662c0,0-4.2-11.8,0.9-22.2"/>
		</g>
		<g>
			<g>
				<g>
					<path class="st5" d="M180,619.2c-0.4-8,3.8-10.7,6.2-11.6c-1.7-1.5-3.5-3.4-5.3-6.1c-6.8-9.6-15.7-3.5-15.7-3.5
						c-18.6,3.6-16,19.2-16,19.2s17.1,28.7,30.1,24.6C174.2,634.9,180.6,629.6,180,619.2z"/>
					<path class="st3" d="M195.3,620.5c0-7.4-3.8-8.1-9-12.9c-2.5,0.9-6.6,3.6-6.2,11.6c0.5,10.5-5.9,15.8-0.7,22.7
						c0.2-0.1,0.3-0.1,0.5-0.2C192.5,636.8,195.3,627.8,195.3,620.5z"/>
				</g>
				<path class="st0" d="M146.6,623.6c-1.1,5.4,0.1,14.2,12.8,17.8c16.7,4.7,23.1,0.1,25.9-5.2c2.9-5.3,4.3-13,0-16.8
					c-4.3-3.7-5.8-6.3-7.6-10c-2.8-5.9-11.9-10.1-21.1-4.3C149.2,609.8,147.5,619.3,146.6,623.6z"/>
			</g>
			<path class="st1" d="M162.6,642.4c0,0-4.2-11.8,0.9-22.2"/>
		</g>
	</g>
	<g>
		<g>
			<g>
				<path class="st7" d="M431.3,109c0,0,5-4.9,11,1.8C448.2,117.4,426.6,123.7,431.3,109z"/>
				<path class="st1" d="M431.3,109c0,0,5-4.9,11,1.8C448.2,117.4,426.6,123.7,431.3,109z"/>
			</g>
			<path class="st5" d="M438.4,112.1c0,0,6-4.4,8,3s-0.3,15.6,2.7,26.2s-8.1,21.5-15.4,19.4C426.4,158.6,438.4,112.1,438.4,112.1z"
				/>
			<g>
				<path class="st8" d="M427.7,162c6.3,0,14.6-4.5,14.6-16.7s-2.6-19.4-1.5-23.8s-1.1-14.1-13.1-12.3s-12,15.3-12,28.5
					C415.7,151,415.3,162,427.7,162z"/>
				<path class="st1" d="M427.7,162c6.3,0,14.6-4.5,14.6-16.7s-2.6-19.4-1.5-23.8s-1.1-14.1-13.1-12.3s-12,15.3-12,28.5
					C415.7,151,415.3,162,427.7,162z"/>
			</g>
		</g>
	</g>
	<g>
		<g>
			<g>
				<path class="st8" d="M475.7,87.8c0,0,5-4.9,11,1.8C492.6,96.2,470.9,102.5,475.7,87.8z"/>
				<path class="st1" d="M475.7,87.8c0,0,5-4.9,11,1.8C492.6,96.2,470.9,102.5,475.7,87.8z"/>
			</g>
			<path class="st5" d="M482.7,90.9c0,0,6-4.4,8,3s-0.3,15.6,2.7,26.2s-8.1,21.5-15.4,19.4C470.7,137.4,482.7,90.9,482.7,90.9z"/>
			<g>
				<path class="st8" d="M472,140.8c6.3,0,14.6-4.5,14.6-16.7s-2.6-19.4-1.5-23.8S484,86.2,472,88s-12,15.3-12,28.5
					S459.6,140.8,472,140.8z"/>
				<path class="st1" d="M472,140.8c6.3,0,14.6-4.5,14.6-16.7s-2.6-19.4-1.5-23.8S484,86.2,472,88s-12,15.3-12,28.5
					S459.6,140.8,472,140.8z"/>
			</g>
		</g>
	</g>
	<g>
		<g>
			<g>
				<path class="st7" d="M456.2,144.4c0,0,5-4.9,11,1.8S451.4,159.1,456.2,144.4z"/>
				<path class="st1" d="M456.2,144.4c0,0,5-4.9,11,1.8S451.4,159.1,456.2,144.4z"/>
			</g>
			<path class="st5" d="M463.2,147.5c0,0,6-4.4,8,3s-0.3,15.6,2.7,26.2s-8.1,21.5-15.4,19.4S463.2,147.5,463.2,147.5z"/>
			<g>
				<path class="st8" d="M452.6,197.4c6.3,0,14.6-4.5,14.6-16.7s-2.6-19.4-1.5-23.8s-1.1-14.1-13.1-12.3s-12,15.3-12,28.5
					C440.5,186.4,440.1,197.4,452.6,197.4z"/>
				<path class="st1" d="M452.6,197.4c6.3,0,14.6-4.5,14.6-16.7s-2.6-19.4-1.5-23.8s-1.1-14.1-13.1-12.3s-12,15.3-12,28.5
					C440.5,186.4,440.1,197.4,452.6,197.4z"/>
			</g>
		</g>
	</g>
	<g>
		<g>
			<g>
				<path class="st7" d="M389.5,132.9c0,0,5-4.9,11,1.8C406.4,141.3,384.8,147.5,389.5,132.9z"/>
				<path class="st1" d="M389.5,132.9c0,0,5-4.9,11,1.8C406.4,141.3,384.8,147.5,389.5,132.9z"/>
			</g>
			<path class="st5" d="M396.6,136c0,0,6-4.4,8,3s-0.3,15.6,2.7,26.2c3,10.6-8.1,21.5-15.4,19.4S396.6,136,396.6,136z"/>
			<g>
				<path class="st8" d="M385.9,185.9c6.3,0,14.6-4.5,14.6-16.7s-2.6-19.4-1.5-23.8s-1.1-14.1-13.1-12.3s-12,15.3-12,28.5
					S373.5,185.9,385.9,185.9z"/>
				<path class="st1" d="M385.9,185.9c6.3,0,14.6-4.5,14.6-16.7s-2.6-19.4-1.5-23.8s-1.1-14.1-13.1-12.3s-12,15.3-12,28.5
					S373.5,185.9,385.9,185.9z"/>
			</g>
		</g>
	</g>
	<g>
		<g>
			<g>
				<path class="st7" d="M413,158.8c0,0,5-4.9,11,1.8C429.9,167.2,408.3,173.4,413,158.8z"/>
				<path class="st1" d="M413,158.8c0,0,5-4.9,11,1.8C429.9,167.2,408.3,173.4,413,158.8z"/>
			</g>
			<path class="st5" d="M420.1,161.9c0,0,6-4.4,8,3s-0.3,15.6,2.7,26.2c3,10.6-8.1,21.5-15.4,19.4S420.1,161.9,420.1,161.9z"/>
			<g>
				<path class="st8" d="M409.4,211.8c6.3,0,14.6-4.5,14.6-16.7s-2.6-19.4-1.5-23.8s-1.1-14.1-13.1-12.3s-12,15.3-12,28.5
					S397,211.8,409.4,211.8z"/>
				<path class="st1" d="M409.4,211.8c6.3,0,14.6-4.5,14.6-16.7s-2.6-19.4-1.5-23.8s-1.1-14.1-13.1-12.3s-12,15.3-12,28.5
					S397,211.8,409.4,211.8z"/>
			</g>
		</g>
	</g>
	<path class="st3" d="M121,491.1l-13.8,9.8l-3.8,2.4c0,0,19.5,22.6,14.8,68.9c0,0,4,1.2,9.3,1.3c4.7,0.1,10.6-0.7,15.6-4
		c3.9-2.6,6.2-7.1,6.2-11.8C149.7,527.5,134.6,505.8,121,491.1z"/>
	<path class="st2" d="M23.5,549.8c-0.9,9.1-5.9,46.9,32.6,16.6C98,533.5,134,496.5,209.3,475c0,0,16.9-2.9,0-18.1
		c-17-15.3-82.9-53.8-123.2-46.3C52.5,416.8,26.3,523.4,23.5,549.8z"/>
	<path class="st3" d="M678.7,403.7c2.8,1.1,0.4-10.4,10.5-11.2c2.5-0.2-0.1,3.7,0.7,4.2c1.7,1,1.2-4.2,9.7-3.9
		c-3.2,8.3-7.3,5.6-7.2,7.3c0.1,1.7,5.3,0.2,3.6,3c-4,6.8-12.9,3.3-13.5,5.3s6,0.6,4.9,4.2c-1.6,5.3-21.1,9.9-21,11.7
		c0.2,2.4,12.8-4.1,9.2,4c-4.3,9.5-19.2,7-19.2,9.4c0,3.6,16.9-6.1,11.7,4c-5.6,11-30.6,13.2-30,15.8c0.9,3.7,16.6-7.3,16,1.7
		c-0.9,12.9-31.8,18.6-30.2,22.5c1.1,2.7,25.2-15.6,25.5-3.2c0.3,12.4-35.2,14.8-35.2,17.8c0.1,4.4,33.6-13,29.1,0.5
		c-5.6,16.6-36.7,11.6-36.6,14.9c0,3.5,31-5.7,26.3,6c-6.5,16.4-36,5.3-36.2,9.1c-0.2,3.6,25.2,0.3,23.4,12.4
		c-1.8,12.3-25.4-2-27,0.8c-1.6,2.7,12.2,4.3,10.2,11.3c-2.1,7.4-16.3,3.4-20.9,0.7c-11.7-6.9-25.7-24.8-20-35.2
		c5.1-9.1,11.5,11.1,13.9,8.8s-17.9-18.9-3.9-26.1c6.4-3.3,8,18.8,10.5,17.3c2.5-1.4-7.1-25.1-0.6-30.1c8.3-6.3,9.5,16.4,11.9,15.1
		c2.2-1.1-9.2-26.1,2-38c8.5-9.1,7.7,26.2,10.4,25.5c3.6-0.8-9.4-35.7,7.2-34.2c7.5,0.7,0,20.6,2.3,21c4.8,1-3-29.9,12.1-35.6
		c7.1-2.7,1.7,12.6,4.2,13.2c2.6,0.6-1.1-25.1,17.6-30.4c3.2-0.9-0.8,9.9,1.2,10.5c2.7,0.7-2.4-16.9,9.7-22c4.1-1.7-0.6,7.3,1.4,7.6
		c2.6,0.4,0.3-15.7,13.4-20.7C679.8,397.2,677.4,403.1,678.7,403.7z"/>
	<path class="st1" d="M545.8,171.2c0,0-10-52-51.4-52c-40,0-85.9,51.2-83,230.3"/>
	<path class="st3" d="M417.7,294.8c0,0-7.5-8.5-11.2-3.8c-1.1-2.4-2.6-4.1-4.4-3c0,0,1.3,3.8,2,9c0.3,2.1,0.8,4,1.9,4.1
		c1.4,0.1,1.3-2.2,2.4-2.2c0.8,0,2.2,3.8,2.3,8c0.1,5.5-5.9,17.2,1.4,19.4c7.7-3.1,1.6-13.4,1.7-19.3
		C414,300.8,417.7,294.8,417.7,294.8z"/>
	<path class="st1" d="M311.8,350.9c-0.6-3.1-9-133.8,58.1-120.9"/>
	<path class="st2" d="M598.1,459.1c1-4.6,7.6,11.9,9.9-4.2c3.1-20.7-16.1-26.5-13.2-30.5c1.8-2.6,11.7,10.6,14.2,4.3
		c10.9-27.1-21.6-35.6-21.2-40.3c0.7-8.6,28.4,19.6,28.4-9c0-37.3-57.8-48.3-54.1-54.4c2.7-4.5,34.8,13.4,33.6-11.4
		c-1.1-24.8-54.7-26.2-54.5-32.3c0.3-8,43.1,8.4,40.6-11.5c-2.5-19.5-24.8-23-48.9-20.6c-15.7,1.6-35.8,4.9-36.3,2.5
		c-1.6-7.4,35.1-2.5,28.2-19.3c-6-14.8-28.8-7.9-38.2-4.8c-10.1,3.4-21,6.8-22,5.1c-4.1-7.7,50-13.2,30.9-27.8
		c-17.9-13.8-44.4,8-51.1,11.6s-15,11-17.8,8.6c-6.2-5.3,54.5-28.3,34.4-34.9c-23.6-7.7-42.7,10.5-47.5,15.8
		c-5,5.6-12.4,13.4-14.3,11.2c-3.7-4.3,19.7-17,10.2-25.6c-9.9-8.8-22.1,3.6-26.7,15.9c-2.9,7.9-4.2,10.8-5.7,10.4
		c-5.8-1.5,8.5-20.8-4.1-21c-16.2-0.2-4.7,23.4-7,24.7c-3.4,1.8-5.5-14.1-16.7-8.8c-5.2,2.5-7.1,8.9-0.5,12.3
		c6.9,3.4,7.1,6,0.1,10.5c-2.1,1.3-10.4,5.1-5.7,10.5s12.9,0.7,18.3-6c5.4-6.7,6.4-3.4,4.7-1.3c-1.3,1.6-22.1,22.5-5.2,31.1
		c14.9,7.5,8.5-33.5,15.7-31.1c3.9,1.3-12.1,54.6,11.7,51.3c16.7-2.3,3.2-24.5,7.1-48.2c0.7-4,3.2-2.7,3,3.1s-3.3,52.2,13.5,52.9
		c16.8,0.8,1.1-53.5,7-52.7c1.7,0.2,2.7,3.8,3.2,12.1s3,67.3,22.6,66c19.6-1.3-2.7-62.4,4.6-63.4c3.3-0.5,3.1,14.7,5,28.4
		c1.8,13.3,3.4,58.1,19.5,56.8c20.2-1.7,3-62.8,12.4-61c4.4,0.8,3.1,21.2,2.8,34.7c-0.4,16.4-0.5,46,14.7,47.3
		c17.2,1.4,7.1-59.5,12.6-59.8c4.6-0.3,2.2,19.2,2,25.7c-0.2,6.4-5.7,46.1,11.6,55.5c15.6,8.5,6.3-48.5,13.4-46.6
		c3.3,0.9,1,16.6,1,20.6c0.2,15.2-3.9,41.4,8.8,51.2c12,9.2,10.5-23,14.4-21.6c2.2,0.8-8.2,30.5,0.2,43.7c8.8,13.8,9.8-7.9,13.2-6.4
		c2.3,1,0.5,5.8-1.7,11.4c-2.1,5.4-6.1,15-0.6,25.6c3.7,7.1,6.5-6,9-4.4c1.6,1.1-10.6,13.9-3.1,28.7c1.5,3,4.2-5.5,5.4-3.6
		c0.8,1.3-5.9,14.1-2.9,18.1c1.9,2.6,3.6-3.1,5.2-1.4c1.1,1.2-3.5,5.5,3.3,10.9c6.1-5.5,1.5-9.6,2.3-11c1.2-1.9,2.9,3.6,4.4,0.7
		c2.8-5.9-6.6-17.5-4.4-18.1c1.5-0.4,3.2,6.5,5.1,3.3C612.4,472.1,597.6,461.5,598.1,459.1z"/>
	<g>
		<path class="st4" d="M573.9,570.8c0,0-5.8-30.1,8.5-41.3c11.4-9,15.7-3,28.6-9.3s19.9-8.5,27.3-0.7c7.4,7.8-2.8,18.6-2,29.7
			s3.3,16.8-1.1,24.2s-10.3,6.2-9.4,15.1C626.7,597.4,584.4,612.2,573.9,570.8z"/>
		<path class="st1" d="M625.6,533.3c0,0-33.8,31-41.4,49.3"/>
		<path class="st1" d="M609,529.5c0,0,3,7,0.8,19.4c0,0,10.6-6.9,22.4-6.9"/>
		<path class="st1" d="M629.5,558c0,0-20.3-0.4-32,4.8c0,0,2.3-14.2-2.1-22.4"/>
		<path class="st1" d="M629.5,570.8c0,0-22.1-3.8-40.2,2.8c0,0,2-7.4-3.9-19.2"/>
	</g>
	<g>
		<path class="st3" d="M481.2,537.9c2.9-2.2,19.4-13.3,34.8-5.8c15.3,7.5,21.1,2.9,36.3,1.6c15.2-1.3,19.2,7.3,29.1,7.3
			s19.9-2.9,22.3,3.2c4.2,10.6-17,16.4-22.3,24.1c-5.9,8.5-4.9,20.4-16.3,25.6c-13,6-21.5-4.7-42.6,0c-21.1,4.7-31.4,12.7-46.7,0
			C460.4,581.2,461.7,552.5,481.2,537.9z"/>
		<path class="st1" d="M478.9,591.1c0,0,48.8-50.1,125.2-44.8"/>
		<path class="st1" d="M506.1,539.6c0,0,4.8,14.9-7.9,36.1c0,0,26.3-3.5,51.6,12.8"/>
		<path class="st1" d="M534.7,541c0,0,0.1,11-10.8,20.2c0,0,22-3.3,36.9,8.2"/>
		<path class="st1" d="M560.9,539.6c0,0-1.9,7.6-8.7,11.5c0,0,13-2.4,23.2,5.3"/>
	</g>
	<path class="st0" d="M489.4,586.4c6.7-2.5,36.5-7.4,54.9,12.6c2.8,3,5.5,8,13.7,10.6c6.5,2.1,6.1,8.5-3,9.6
		c-9,1.1-56.4,8.4-73.3-11.8C475,599.3,481.1,589.5,489.4,586.4z"/>
	<g>
		<path class="st1" d="M153.5,405.6c46.8-31.5,45.3-83.5,38.8-146.8c-11.5-112.4,52-136.6,77.6-135.7"/>
		<path class="st2" d="M242.9,127.1c0,0-11.2-5.6-3.8-24C239.1,103,251.6,118,242.9,127.1z"/>
		<path class="st2" d="M261.4,142c0,0-14.8,0.8-16.7-11.7C244.6,130.3,255.1,129.1,261.4,142z"/>
		<path class="st2" d="M219.6,109.3c0,0-2.8,21.5,11.6,24.6C231.2,133.9,234.9,121.4,219.6,109.3z"/>
		<path class="st2" d="M233.2,136.6c0,0,9.9-1.9,16.2,13.1C249.4,149.7,232.8,148.2,233.2,136.6z"/>
		<path class="st2" d="M189,133.9c0,0,6.9,23.3,20,22.1C209,156,208.9,140.6,189,133.9z"/>
		<path class="st2" d="M236.4,165.2c0,0-18.8,4.2-24.4-7C212,158.2,223.4,153.2,236.4,165.2z"/>
		<path class="st2" d="M219.8,143.1c0,0-12.8,0.1-15.5-23.9C204.3,119.2,223.1,129.3,219.8,143.1z"/>
		<path class="st2" d="M241.9,157.1c0,0-18.3,1.1-19.7-11.1C222.2,146,233.5,143.6,241.9,157.1z"/>
		<path class="st2" d="M258.6,126.7c0,0,9.3-2.1,13.2,9.1C271.8,135.8,261,136.2,258.6,126.7z"/>
		<path class="st2" d="M256.6,122.1c-3.3-2.4-5.4-10.1,0.6-17.3C257.2,104.8,264.7,116.5,256.6,122.1z"/>
		<path class="st2" d="M178,149.7c0,0,4.7,24.3,22.9,21.2C200.9,170.9,197,153.9,178,149.7z"/>
		<path class="st2" d="M203.9,172.5c0,0,8.4-9,29,5C232.9,177.5,213.5,184.5,203.9,172.5z"/>
		<path class="st2" d="M195.5,185.4c0,0-5.7-14.6-28.5-15C167,170.4,176.4,192.3,195.5,185.4z"/>
		<path class="st2" d="M199,186.5c0,0,11.4-7.8,31,6.8C230,193.3,209,200.7,199,186.5z"/>
	</g>
	<g>
		<path class="st1" d="M106.8,167.6c11.6-3.7,43.9-0.6,52.8,52.5c5,29.9,11,54,36.4,62.5"/>
		<path class="st0" d="M119.7,166c0,0,4.5-4-1.3-11.5C118.4,154.5,114.5,162.9,119.7,166z"/>
		<path class="st0" d="M113,175.5c0,0,6.9-1.5,6.2-7.5C119.2,168,114.3,168.8,113,175.5z"/>
		<path class="st0" d="M127.8,155c0,0,4,9.5-2.2,12.7C125.6,167.7,122.3,162.5,127.8,155z"/>
		<path class="st0" d="M125.5,169.3c0,0-4.8,0.4-5.8,8.1C119.7,177.4,127.2,174.6,125.5,169.3z"/>
		<path class="st0" d="M144.7,162.4c0,0-0.2,11.6-6.4,12.7C138.4,175.1,136.5,168,144.7,162.4z"/>
		<path class="st0" d="M127.5,182.7c0,0,9.2-0.5,10.3-6.3C137.8,176.4,131.9,175.5,127.5,182.7z"/>
		<path class="st0" d="M132.3,170.4c0,0,5.9-1.6,4.1-13C136.4,157.5,129,164.5,132.3,170.4z"/>
		<path class="st0" d="M123.9,179.7c0,0,8.6-1.8,7.6-7.6C131.6,172.1,126.1,172.4,123.9,179.7z"/>
		<path class="st0" d="M112.6,167.7c0,0-4.8,0.2-5.2,6.2C107.4,173.9,112.6,172.7,112.6,167.7z"/>
		<path class="st0" d="M112.8,165.7c1.3-1.6,1.3-5.6-2.6-8.3C110.2,157.4,108.2,164.1,112.8,165.7z"/>
		<path class="st0" d="M152.1,168c0,0,0.9,11.7-7.8,12.7C144.3,180.7,144,172.3,152.1,168z"/>
		<path class="st0" d="M143.3,181.9c0,0-5-3.1-12.7,6C130.7,187.9,140.5,188.7,143.3,181.9z"/>
		<path class="st0" d="M148.8,186.8c0,0,0.7-7.4,11.2-10.5C160,176.3,158.5,187.5,148.8,186.8z"/>
		<path class="st0" d="M147.8,187.6c0,0-6.2-2.1-13.4,7C134.4,194.7,145,195.4,147.8,187.6z"/>
		<path class="st0" d="M164.6,183.9c0,0-1.4,12.7-11,12C153.6,195.9,154.9,186.9,164.6,183.9z"/>
		<path class="st0" d="M152,196.5c0,0-4.8-3.7-14.3,4.3C137.6,200.8,147.9,202.8,152,196.5z"/>
		<path class="st0" d="M156.6,204.2c0,0,2.2-7.6,13.7-8.8C170.3,195.4,166.5,206.8,156.6,204.2z"/>
		<path class="st0" d="M155,204.7c0,0-5.4-3.8-14.8,3C140.2,207.7,150.2,211.4,155,204.7z"/>
	</g>
	<line class="st1" x1="95.6" y1="229.1" x2="95.6" y2="227.4"/>
	<g>
		<path class="st0" d="M246.3,269.6c5.6-8.2,26.9-14.2,54.7,18s42.9,115.6,42.9,115.6l-33.8-3.8
			C309.6,346.7,228.6,295.6,246.3,269.6z"/>
		<path class="st1" d="M247.9,267.7c0,0,52.7,24.3,76.8,133.3"/>
		<path class="st5" d="M361.7,262.4c12.4-3.3,31.2,11.3,31.2,74.1c0,65.1-18.1,107.5-18.1,107.5l-19-15.8c0,0,9.4-50.1,0-80.9
			C347.9,321.1,329.2,271,361.7,262.4z"/>
		<path class="st0" d="M301,223.6c6.8-3.5,38.3-7,55.3,76.6c16.6,81.8,6.9,134.3,6.9,134.3l-18.7-29.3
			C324.1,301.6,266.9,241.1,301,223.6z"/>
		<path class="st0" d="M449.5,327c11.5,10.2,0.7,28.7-13.9,46.5c-20.9,25.5-40.2,72.5-39.7,80.8l-26-9.7
			C394.1,338.8,433.5,312.7,449.5,327z"/>
		<path class="st1" d="M361.7,262.4c0,0,29.2,89.7,4.1,174.1"/>
		<path class="st1" d="M301,223.6c0,0,53.8,56.7,53.3,186"/>
		<path class="st1" d="M449.5,327c0,0-43.3,30.6-70.4,120.7"/>
		<path class="st3" d="M288.5,272.7c6.6-4.8,20.8-9,36.4,13.7c17.4,25.3,38.8,74.2,37.8,151.7l-18.3-6
			C344.4,432.1,250.2,300.6,288.5,272.7z"/>
		<path class="st1" d="M288.5,272.7c24.9,20.2,58.2,87.7,65,162.3"/>
		<path class="st2" d="M469,390c5,9.8,2,18.8-17.4,28.8c-22.5,11.6-61.2,47.8-63.5,60l-4.4-1.4c0,0,0.1-40.9,39.1-79.9
			C442.2,378.1,462.2,376.4,469,390z"/>
		<path class="st1" d="M469,390c0,0-53.8,11.1-83.5,87.4"/>
	</g>
	<g>
		<path class="st3" d="M80,295.4c0,0,21.1,63.7,69.6,67.9C149.5,363.3,136.9,311.4,80,295.4z"/>
		<path class="st4" d="M117.1,201.1c0,0-22.8,136.9,45.7,165.3C162.8,366.4,192.4,302.2,117.1,201.1z"/>
		<path class="st0" d="M166.4,217.7c0,0,48.6,74.1,2.2,129C168.7,346.7,132.8,315.7,166.4,217.7z"/>
		<path class="st2" d="M261.8,258.5c0,0-53.5,20.2-60.2,78.9C201.6,337.4,249.1,334.4,261.8,258.5z"/>
		<path class="st3" d="M240.3,218.1c0,0-79.3,60.1-62.1,134.3C178.2,352.4,245,310.2,240.3,218.1z"/>
		<line class="st1" x1="117.1" y1="201.1" x2="162.8" y2="366.4"/>
		<line class="st1" x1="80" y1="295.4" x2="149.5" y2="363.3"/>
		<line class="st1" x1="166.4" y1="217.7" x2="168.7" y2="346.7"/>
		<line class="st1" x1="240.3" y1="218.1" x2="178.2" y2="352.4"/>
		<line class="st1" x1="261.8" y1="258.5" x2="201.6" y2="337.4"/>
	</g>
	<g>
		<path class="st0" d="M351.2,539c0.5,5,7.6,15.9,9.7,26.7c2.9,14.4,17.6,6.8,24,11.8c5.3,4,5.5,19.1,8.3,24.1
			c2.7,5,9.7,10.8,31.6,3.7c22-7,50.8,0.2,50.8,0.2s-3-12.2,8.3-35.3c8.7-17.8,14.2-29,9.4-39.6c-4.8-10.6-17.9-6.2-18.2-22.3
			c-0.3-18.2-14.6-32.3-45.9-28.2c-27.6,3.6-18.6-14.1-36.1-14.2c-23.1-0.2-29.2,16.8-26.8,32.4C368.7,513.8,348.8,513.3,351.2,539z
			"/>
		<path class="st1" d="M373.7,507.8c0,0,63.6,22.6,100.3,89.7"/>
		<path class="st1" d="M383.8,562.2c0,0,17.4-27.4,54.9-11.1c-11.9-37.1,9-60.9,9-60.9"/>
		<path class="st1" d="M399.8,581.4c0.7,0.5,16.8-26.8,59.5-6.7c-1.3-29.4,15.5-45.2,15.5-45.2"/>
		<path class="st1" d="M370.8,541.4c0,0,8.6-18.7,39.1-14c-13.9-23.8-6.8-43.6-6.8-43.6"/>
	</g>
	<g>
		<path class="st5" d="M118.5,508c16.4,26.1,37.6,11.6,55.3,16c20.8,5.1,19.3,34.5,42,40s32-7.2,48.2-1.4
			c16.2,5.9,11.8,26.3,29.2,31.1c14.2,3.9,19.1-15.6,38.3-14.9c27.5,1,37.3,36.6,37.7,54.5h3.1c0,0-1-37.2-18.7-56.4
			c-4.9-5.3-3.4-13.2,3.8-15.2c5.4-1.5,18.3-2.8,19.4-14.4c0.7-7.9-8.6-13.2-6.1-21.5c3-10,14-7,16.9-19.6
			c2.9-12.5-5.1-20.3-4.3-32.1c0.8-11.7,8.8-22.1,2.6-34c-7-13.6-19.1-7.3-26.8-12.6c-20.1-13.8,1.3-67.3-65.2-75.9
			c-38.3-5-38.4-15.5-64.6-18c-28.7-2.7-59.5,6.1-72.4,36.7s10.2,52.5-10.2,60.4C112.1,444.1,106.1,488.2,118.5,508z"/>
		<g>
			<path class="st1" d="M337.5,569.4c0,0-46.5-99.1-136.8-141.6"/>
			<path class="st1" d="M278,559.2c0,0,24-13.9,48.1-10.6c0,0,4.1-34.9,31.2-50.1"/>
			<path class="st1" d="M342,449.8c0,0-34.2,18.9-40.3,63.1c0,0-38.5-13.7-67.4,16"/>
		</g>
	</g>
	<g>
		<path class="st5" d="M429.3,593.2c-9.9-0.1-15.3,14.8,11.3,22.8c9.8,2.9,29.4,7.5,45.3-4.1c9.3-6.8,8.4-20.2-5.5-18.4
			c-12.9,1.7-11.3-2.9-23.5-4.5C446.9,587.8,439.6,593.3,429.3,593.2z"/>
		<path class="st6" d="M438.5,592c0,0,13.6,2.4,21.8,12.1c0,0,3.4-9.7,10.4-10.9"/>
		<path class="st6" d="M445.7,617.3c0,0,4.1-7.7,14.6-13.2c-25.2-5.3-35.7,3.3-35.7,3.3"/>
		<path class="st6" d="M492.1,601.2c0,0-12.3-9-31.9,2.9c10.5,1.5,19.8,11.3,19.8,11.3"/>
	</g>
	<path class="st1" d="M529.7,621.4c-5.8-13.8-18.9-20.6-18.9-20.6s4.6-4.7,3.4-16.3"/>
	<path class="st1" d="M486.4,611.8c0,0,10.5-10.3,24.4-11c-9.6-10.6-25.3-12.3-25.3-12.3"/>
	<path class="st1" d="M506.3,619.7c0,0-0.4-12.7,4.5-18.9c17.1,0.9,26.7-4.3,28.3-6.5"/>
	<path class="st1" d="M555,619.2c0,0-22.8-16.3-44.2-18.5"/>
	<path class="st0" d="M629.9,404.8c-4.1,2.9,14.3,10.1,6.3,25.1c-2,3.7-5.1-3.5-6.6-2.8c-2.9,1.5,4.9,5.6-3.4,17.3
		c-8.8-12.1-1.3-15.6-3.7-16.9c-2.5-1.3-5.1,7.3-7.6,2.3c-6-12,7.1-21.3,4.8-23.9c-2.3-2.6-6.3,8-10.4,3.2c-6.1-7.2,5.4-39,2.6-40.5
		c-3.6-2-5.9,21.8-14.1,9.3c-9.6-14.8,7.7-33.5,4.2-35.8c-5.1-3.4-6.8,29.5-16.4,12.9c-10.4-18,9.4-55.4,5.1-57
		c-6.1-2.2-4.9,30.1-17,21.1c-17.4-13,2.8-62-4.1-63.4c-4.8-1-1,50-18.8,39c-17.8-10.9,11.3-63.4,7-66.1c-6.4-4-12.3,59.5-27.4,40.7
		c-18.4-23.1,17.2-62.5,12.4-65.5c-5-3.2-20.3,49-32.5,31.8c-17.2-24.2,25.5-55.8,20.3-59.5c-5-3.6-23.5,35.3-39,21.8
		c-15.8-13.8,26.1-34.1,23.6-39c-2.5-4.7-17.3,13.3-25.4,4.1c-8.6-9.7,10.1-26.1,18.2-30.2c20.5-10.3,58.7-13.7,68.1,3.9
		c8.2,15.5-26.2,6.1-25.1,11.6s43.2-8,40.6,18.4c-1.2,12.1-33.9-5.9-34.2-0.9s42.1,12.9,43.2,26.7c1.4,17.5-31.9-1.5-32.3,3.1
		c-0.4,4.1,45.4,10.9,52,37.6c5.1,20.4-44.1-13-45.7-8.6c-2.1,5.8,59.2,19.4,41.8,41.5c-7.9,10-29.1-18.8-31.9-15.9
		c-5.7,5.8,45.1,23.2,39.3,49.7c-2.7,12.5-19.4-9.1-22.5-6.1c-3.3,3.1,36.6,21.4,26.9,52.7c-1.6,5.3-13.4-10.2-15.9-7.9
		c-3.5,3.1,26.1,12.2,22.2,34c-1.3,7.3-9.8-7.5-12-5c-2.9,3.3,21.9,14.8,17.1,37.9C638,412.1,631.8,403.4,629.9,404.8z"/>
	<path class="st1" d="M383.7,228.6c68.3,6.9,185,57.4,207.7,215.1"/>
	<g>
		<path class="st0" d="M583.9,588.2c-4.7,4.8-6.1,13.6,8.5,17.6c22.9,6.3,47.1,5.1,40-13.2C626.9,578.4,594.3,577.5,583.9,588.2z"/>
		<path class="st6" d="M590.5,605.1c0,0,7.7-9.9,18.6-10.8c0,0,2.2,7,0.5,14.6"/>
		<path class="st6" d="M603.7,581.2c0,0,6.1,6,5.3,13c-12.8-7.6-26-4.6-26-4.6"/>
		<path class="st6" d="M627.2,586.6c0,0-6.6,8.6-18.1,7.7c11.1,4.3,15.4,13.8,15.4,13.8"/>
	</g>
	<g>
		<path class="st2" d="M216.6,699.7c16.7-12.4,42-10.9,69.4,43.8s66,31.6,79.3,24.4c16.2-8.8,38.4-11.6,54.3-4.9
			c15.5,6.5,35.1,16.8,61.1,20.1c0,0-22.5,9.9-41.3,4.9c-12.7-3.3-22.8-3.9-33.4-2.9c-20.4,1.9-31,12.8-31,12.8s30.4-3.5,42.9-4.1
			c20.8-1,35.2,3.3,48.4,12.4c13.2,9.1,23.9,7.8,23.9,7.8s-21.6,7.5-43.4,4.5c-12.6-1.7-21.8-4.8-51.1,0.1
			c-29.3,4.9-65.4-4.8-65.4-4.8s23.3,17.5,47.2,14.6s40.5-6,58,1c9.8,4,26.2,19.6,26.2,19.6s-28-6.6-45.7-5s-39.5,5.4-61.5-0.8
			c-21.9-6.2-32.2-18.1-32.2-18.1s11.6,18.1,32.2,22.3c20.6,4.1,41.8,3.3,50.1,15.3s5,20,14,29.7c0,0-18.1-2.4-25.7-15.7
			c-6.3-11-18.1-6.7-32.6-10.3c-21.2-5.3-41.3-19-54.1-42.5s-13.2-30.8-38.8-32.7s-54.4-12.8-65-47.7
			C195.4,721.2,207.6,706.3,216.6,699.7z"/>
		<ellipse transform="matrix(0.9437 -0.3309 0.3309 0.9437 -239.0566 141.923)" cx="297.3" cy="773.1" rx="0.8" ry="1.8"/>
		
			<ellipse transform="matrix(4.391230e-02 -0.999 0.999 4.391230e-02 -516.7076 1037.8348)" cx="283.9" cy="788.9" rx="0.9" ry="1.8"/>
		<g>
			<path class="st4" d="M379.1,864.1c-30.4,0.6-51.2-14-53.6-15.8c10.4,9.1,22.4,15.1,34.7,18.2c14.5,3.6,26.3-0.7,32.6,10.3
				c4.7,8.3,13.5,12.3,19.5,14.2C395.5,880,403.1,863.7,379.1,864.1z"/>
			<path class="st4" d="M427.2,808.5c-16.9-0.2-25.8,5.2-56,4.3c-30.2-0.8-42.9-11.1-46-7.1c-2,2.5,2.7,6.3,5.1,8.1
				c0,0,36.1,9.6,65.4,4.8c29.3-4.9,38.5-1.8,51.1-0.1c21.8,3,43.4-4.5,43.4-4.5C463.9,819.2,446.3,808.7,427.2,808.5z"/>
			<path class="st4" d="M412.3,839.2c-32.7,2.3-43.6,6.9-67.1-6.5c-20.4-11.6-27.3-23.8-29.5-20.6s6.5,13.1,6.5,13.1
				s10.3,11.9,32.2,18.1c21.9,6.2,43.7,2.5,61.5,0.8c17.8-1.7,45.7,5,45.7,5S440.4,837.2,412.3,839.2z"/>
		</g>
		<g>
			<path class="st4" d="M413.1,778.3c-12.1,0.6-22.1,3.5-33,6.8c-11.5,3.5-34.9,6-39.3,6.2c-4.4,0.2-12.4,1-7.2,3.9
				c5.1,2.8,41.5,2.8,41.5,2.8s10.6-10.9,31-12.8c10.7-1,20.7-0.4,33.4,2.9c11.4,3,24.1,0.5,32.4-1.8
				C454.5,788.1,437.5,777,413.1,778.3z"/>
		</g>
	</g>
	<g>
		<g>
			<g>
				<path class="st7" d="M349.2,154.3c0,0,5-4.9,11,1.8C366.1,162.7,344.5,169,349.2,154.3z"/>
				<path class="st1" d="M349.2,154.3c0,0,5-4.9,11,1.8C366.1,162.7,344.5,169,349.2,154.3z"/>
			</g>
			<path class="st5" d="M356.2,157.4c0,0,6-4.4,8,3s-0.3,15.6,2.7,26.2s-8.1,21.5-15.4,19.4C344.2,203.9,356.2,157.4,356.2,157.4z"
				/>
			<g>
				<path class="st8" d="M345.6,207.3c6.3,0,14.6-4.5,14.6-16.7s-2.6-19.4-1.5-23.8s-1.1-14.1-13.1-12.3s-12,15.3-12,28.5
					C333.5,196.3,333.2,207.3,345.6,207.3z"/>
				<path class="st1" d="M345.6,207.3c6.3,0,14.6-4.5,14.6-16.7s-2.6-19.4-1.5-23.8s-1.1-14.1-13.1-12.3s-12,15.3-12,28.5
					C333.5,196.3,333.2,207.3,345.6,207.3z"/>
			</g>
		</g>
	</g>
	<g>
		<path class="st5" d="M33.8,535.4c0,0,0,39.6,34.1,50.3c28.7,9,39,32.1,42.2,40.6h0.9c0,0,0.4-34.3-32.2-52
			C49.5,558.4,36,546.7,33.8,535.4z"/>
		<path class="st0" d="M122,630.9c0,0,10.2-67.3-18.8-68.7c0,0-15-0.1-24.1,41.1c-11.2,50.8-39.4,57.9-59.8,60.5
			c0,0,21.7-15.4,30.1-41.1c14.6-44.8,22.9-74.2,57.4-69.4c23.2,3.2,23.8,53.9,16.6,77.7L122,630.9z"/>
		<path class="st5" d="M116.1,624.1c0,0,8.7-40.4,26.4-43.6c12.6-2.3,19.9,9.8,32.1,38.3c12.2,28.5,41.6,26.7,41.6,26.7
			s-22.5-10.7-28.9-27.9s-15.7-46.3-38.6-45.4c-25.4,0.9-34,41.8-33.9,52.1L116.1,624.1z"/>
		<g>
			<path class="st5" d="M122,630.9h1.3c5.1-17,6.3-47.7-1.9-65c-8.3-7.4-18.3-3.7-18.3-3.7C132.1,563.7,122,630.9,122,630.9z"/>
		</g>
		<path class="st5" d="M75.7,477.5c0,0-24.3,44.3-2.5,73.6c20.5,27.7,37.1,46.2,40.2,73.6h0.7c0,0,8.2-39.2-17.4-66.6
			C68.5,527.9,72.3,491.9,75.7,477.5z"/>
		<path class="st0" d="M183.8,521.1c0,0,10.3,38.2-11.7,56.5c-20.8,17.3-36.5,28.2-44,48.4h-0.8c0,0,1-31.4,25.6-47.5
			C179.9,560.8,183.7,532.7,183.8,521.1z"/>
	</g>
	<g>
		<path class="st3" d="M127.3,316.2l-4.4-21.1L105.3,272l-17.1-13.3l-10.5-5.2l-6.2-3.9l-10.4-6.5l-4.3-3.6l-5.5-7.5l1-14.4l2.8-8.2
			l3.7-6l5.9-0.6l8.1-0.2l7.2,3.8l5.8,6.7l1.2,6.1l-0.4,6.8v3.2l-1.6,4c0,0-4.8,2.6-4.9,3c-0.1,0.3-5.6-1-5.6-1l-3.6-3.9l-0.4-4.5
			c0,0,1.6-0.2,2.2,1.7c0.6,1.8,0.1,3.1,0.1,3.1s1.1-1.1,2.6-0.4s1.5,2.6,1.5,2.6s0-1.7,2.1-2.2s2.9,1,2.9,1s-1-1.3,0-3.1
			c1-1.8,2.9-1.4,2.9-1.4s-1.9-0.9-1.6-3.6c0.3-2.7,2.3-3.4,2.3-3.4s-2.2,0-3.3-2.4s1.5-4.7,1.5-4.7s-2.5,1.6-5.4-1.4s-1-6.6-1-6.6
			s-1.8,3.4-5.5,2.5c-4.4-1.1-4.9-4.3-4.9-4.3s-0.1,4-2.7,5.5c-3.2,1.9-6.3-0.1-6.3-0.1s2.7,3.8,1.1,6.7c-1.3,2.4-5.4,2.9-5.4,2.9
			s3.6,1.1,4.2,4.2c0.6,3.7-3.2,6.7-3.2,6.7s4.6-0.6,7,2.5c2.3,3,0.5,7.4,0.5,7.4s4.6-2.9,9.3,0.1c4.5,2.9,3.2,8.1,3.2,8.1
			s3.6-3.3,9.1-1c4.5,1.8,4.8,8.1,4.8,8.1s4.4-3.1,8.6-0.4c3.9,2.6,2.6,7.6,2.6,7.6s4.5-2.1,8,1c3.2,3,1.7,7.6,1.7,7.6
			s4.8-1.3,8,2.2s0.3,7.8,0.3,7.8s4.6-1.4,7.2,2c2.6,3.4-1,8.3-1,8.3s5,0.7,7,4.4s-2.4,9-2.4,9L127.3,316.2z"/>
		<path class="st0" d="M70.6,221.6c-0.1,3.3,0.4,6.7,2.1,9.1c0.8,1.2,1.9,2,3.2,2.4c0.6,0.2,1.3,0.4,1.9,0.5c0.3,0.1,0.7,0.1,1,0.1
			h0.5l0.4-0.1c1.1-0.2,2.1-0.8,2.9-1.6c0.8-0.8,1.5-1.8,2-2.9s0.9-2.4,1.1-3.7c0.1-0.7,0.2-1.3,0.2-2c0-0.6,0-1.3,0-2
			c-0.2-2.7-0.9-5.4-1.9-7.8c-0.5-1.2-1.2-2.3-1.9-3.3s-1.5-1.9-2.3-2.6c-1.7-1.5-3.6-2.6-5.8-3.3c-1.1-0.3-2.3-0.6-3.5-0.7
			s-2.3-0.2-3.3-0.1c-2.1,0.2-4.1,0.9-5.8,2s-3.3,2.7-4.6,4.7c-1.3,1.9-2.3,4.2-2.9,6.6c-0.6,2.4-0.8,4.9-0.5,7.4
			c0.2,2.5,0.9,4.8,2,7c0.3,0.5,0.6,1.1,0.9,1.6c0.4,0.5,0.8,1.1,1.2,1.7c0.8,1.1,1.7,2.2,2.7,3.2s2,2,3.1,3s2.2,1.9,3.5,2.8
			c2.4,1.8,5.1,3.4,7.9,5.1c5.6,3.2,11.6,6.2,17.5,9.7c2.9,1.7,5.9,3.6,8.6,5.7c2.8,2.1,5.4,4.3,7.9,6.6c5.1,4.6,9.5,10.1,12.8,16.2
			s5.4,12.7,6.6,19.4c2.3,13.5,1.2,27.1-1.2,40.2c-2.5,13.2-6,26-8.6,39.2l-7.4-2.6c1.5-2.9,2.9-5.9,4.1-9c1.3-3,2.3-6.1,3.4-9.3
			c2-6.3,3.5-12.7,4.6-19.1c1.2-6.4,2-12.9,2.2-19.4s-0.2-13-1.4-19.3c-1.3-6.3-3.4-12.4-6.6-17.8c-3.2-5.4-7.4-10.2-12.3-14.3
			c-4.8-4.3-10.3-7.5-16.1-10.2s-12-4.8-18.4-7.3c-3.2-1.2-6.4-2.6-9.6-4.3c-3.2-1.7-6.3-3.7-9.2-6.2c-1.4-1.2-2.8-2.6-4.1-4
			c-0.6-0.7-1.2-1.4-1.9-2.2c-0.6-0.8-1.2-1.7-1.8-2.6c-2.2-3.6-3.7-7.6-4.4-11.6c-0.7-4.1-0.6-8.3,0.1-12.4c0.4-2,0.9-4.1,1.7-6
			c0.8-2,1.7-3.9,2.8-5.7c2.3-3.6,5.4-6.9,9.2-9.3c1.9-1.2,4-2.2,6.2-2.8c2.2-0.7,4.4-1,6.7-1.1c2.2-0.1,4.4,0.1,6.5,0.5
			s4.1,1,6.1,1.8c4,1.6,7.8,4.3,10.5,7.7c2.8,3.4,4.5,7.3,5.4,11.2c0.9,3.9,1.1,7.9,0.5,11.8c-0.1,1-0.4,2-0.6,3
			c-0.3,0.9-0.6,1.9-0.9,2.8c-0.7,1.9-1.7,3.7-3,5.3c-1.3,1.6-2.9,3.1-4.8,4.1c-1.9,1-4.2,1.6-6.4,1.3l-0.8-0.1l-0.7-0.2
			c-0.5-0.1-0.9-0.2-1.4-0.4c-0.9-0.3-1.8-0.8-2.7-1.3c-1.7-1.1-3-2.8-3.7-4.5c-0.7-1.8-0.9-3.6-0.8-5.3
			C69.7,224.8,70.1,223.2,70.6,221.6z"/>
		<circle class="st2" cx="75" cy="221.5" r="4.3"/>
	</g>
	<g class="st9">
		<g>
			<path class="st10" d="M222.5,313.4c-18.1-1.5-103-9.9-127.3,71c-4.7,15.6-2,44.9,28.1,59c0,0-11.7,51.4,68.2,81.8
				c12.7,4.8,38.9,11.8,52.7,13.3c4.9,7.8,35.9,21.1,40.4-5.7c3.4,9,35.7,18.4,39.5-15.2c5.3-12.5,15-57.8,4.4-88.7
				c0,0,19.9-37.9-28.2-85.9C279.1,321.9,245,315.3,222.5,313.4z"/>
			<path class="st10" d="M248.8,316.1c0-11.9-12.8-21.6-28.6-21.6s-28.6,9.7-28.6,21.6c0,5.6,2.8,10.6,7.3,14.4
				c5.2,4.4,12.8,7.1,21.2,7.1c12.6,0,23.4-6.2,27.1-14.8C248.3,320.8,248.8,318.5,248.8,316.1z"/>
			<ellipse cx="220.5" cy="327.5" rx="1" ry="1.6"/>
			
				<ellipse transform="matrix(6.530976e-02 -0.9979 0.9979 6.530976e-02 -108.0425 539.21)" cx="233.8" cy="327.3" rx="1.6" ry="1"/>
		</g>
	</g>
	<path class="st1" d="M248.8,516.1c0,0,2.8-11.8,16.2-11.8c12.3,0,20,10.6,19.8,24.6"/>
	<path class="st1" d="M280.1,511.9c-0.1-8.1,8.7-13.7,13-14.6c3.5-0.7,7.8-0.5,13.3,4.6"/>
	<path class="st1" d="M239.5,449.7c11.3,7.9,28.2,25.1,38.2,54.6"/>
	<path class="st3" d="M194,370.3l7.6-5c0.8-0.5,1.9-0.6,2.8-0.3l22.5,9.3l19.8-13.2c1.2-0.8,2.8-0.6,3.8,0.4l3.2,3.2l-21.8,14.4
		c0,0-12.1,2.7-12.8,2.6C218.3,381.4,194,370.3,194,370.3z"/>
	<path class="st1" d="M274.4,375.9c0,0,1.5,6.6,5.7,9"/>
	<path class="st1" d="M174.1,381.9c0,0,3.2-5.4,3.7-9.3"/>
	<path class="st2" d="M191.3,372.3l-2.8,46.8c-0.1,1.1,0.7,2.1,1.8,2.3l40.9,8c0.4,0.1,0.9,0,1.3-0.1l31.6-13.3
		c0.9-0.4,1.5-1.4,1.3-2.4l-8.5-47.4c-0.3-1.4-1.8-2.2-3.1-1.6l-26,12.8c-0.5,0.2-1,0.3-1.5,0.2l-32.2-7.3
		C192.6,370,191.4,371,191.3,372.3z"/>
	<polyline class="st1" points="226.9,374.3 227,377.8 231.8,429.6 	"/>
	<path class="st1" d="M323.2,435c-7.3,6.3-23,13.9-51.9,3.6c-43.7-15.5-38-74.2,28.6-47.9"/>
	<path class="st1" d="M136.5,447.7c39.9,8.4,94.7-16.4,82.6-53.2c-8.1-24.6-51.5-17.4-73.7,3.1"/>
	<path class="st4" d="M220.8,67c0,0-13.3-6.7-18-0.9c-1.4-2.9-3.3-2.6-5.5-1.2c0,0,2.6,3.2,2.5,8.7c0,1.7-0.2,3.8,0.3,5.5
		c0.5,1.8,3,2,3.7,0.3c0.7-1.8,0-4,1.1-4.4c1.5-0.5,3,5.7,3.1,10.9c0.1,6.1-5.8,18.3-0.7,22.8c1.3,1.2,3.5,1.1,4.8-0.1
		c5.7-4.9-0.9-16-0.2-22.6C213.3,73.5,220.8,67,220.8,67z"/>
	<path class="st3" d="M206.8,49.8c-4.1,2.4-16.9,11.5-8.1,15.9c9.1,4.5,138.7-7.8,256.3,40.1c100.4,40.9,173.2,131.5,179.7,140.5
		c5.6,7.7,12.1,4.2,9.1-7.8c-3-11.7-29.1-168.8-133.4-217.2C406.4-27.1,261,17.9,206.8,49.8z"/>
	<g>
		<path class="st2" d="M178.5,694.7c0,0.1-0.8,2.6,0.2,4.4h0.1c0.1-0.3,0.5-1.1,0.6-2.2c0-0.1,0.1-0.1,0.1,0c0.1,1.1,0.2,3.4,0,4.7
			c0,0,0,0.1,0.1,0c0.6-0.6,2.8-4.3,2.2-7.2l0,0C181.5,694.4,179.1,693.9,178.5,694.7L178.5,694.7z"/>
		<path class="st4" d="M155.4,678.7c0,0,3.9-2.9,9.4-4.4c5.5-1.6,8.5,0.4,10.3,2.9c2.9,4,5.4,9.9,6.2,12.6s1.2,4.7,0.1,4.9
			c0,0-2.1,0.3-2.9,0.1c-0.8-0.2-2.1-2.9-2.6-5.8c0,0-4.1-0.5-6.8-3c0,0-5,0.7-7.7,0.3c0,0-3.8,0.9-5.8,1
			C153.6,687.3,155.4,678.7,155.4,678.7"/>
		<path class="st4" d="M160.9,675.6c1,1.2,1.9,4.8-0.5,10.1"/>
		<path class="st4" d="M166.5,673.8c1.5,2,0.9,7.7-2,10.7"/>
		<path class="st4" d="M172.7,674.7c1.2,3.3-1,8-3.6,10.4"/>
		<path class="st4" d="M177.4,680.5c-0.1,1.8-1.5,4.4-4.5,6.1"/>
		<path class="st4" d="M179.6,685.1c-0.1,0.7-1.3,2.1-2.9,3"/>
		<path class="st4" d="M178.2,690c0,0-0.5,1.8,1,3.7"/>
		<path class="st1" d="M133.3,684.1c0,0-11.5,1.6-12.4-0.7s6.7-4.7,9.3-5.4c9.3-2.5,19.3-3.8,24.8-3.7"/>
		<path class="st1" d="M130.9,684.6c0,0-6.7,1.4-7.2,0.3c-0.7-1.6,14.6-6,25.3-6"/>
		<path class="st2" d="M125.2,682.9C125.2,682.9,125.2,682.8,125.2,682.9c1.5,0,8.4,0.2,15.1-0.8c6.5-1,6.9-2.3,15.1-3.4l0,0
			c0.2,0.2,2.9,3.9,0.3,8.3c-0.1,0.1-0.2,0.2-0.3,0.2c-1.1,0.3-5.1,2.6-11.6,0.8c-6.1-1.6-11-2.3-12.2-2.5v-0.1c0.8,0,2.8-0.1,4.9,0
			v-0.1c-1.5-0.3-5-0.7-5.8-0.8l0,0c0.6-0.1,2.4-0.6,3.1-0.7v-0.1C132.6,683.8,127.5,683.4,125.2,682.9z"/>
		<path class="st1" d="M147.2,684.2l-3.1,0.7c-0.1,0-0.1,0.1,0,0.1c0.5,0.2,2.1,0.7,4.2,0.6"/>
		<circle cx="141.4" cy="683.4" r="0.3"/>
		<polyline class="st1" points="155.4,687.2 154.1,689.3 155.4,691.8 		"/>
		<polyline class="st1" points="161.4,686.2 159.2,688.2 159.7,691 		"/>
		<polyline class="st1" points="169.1,685.9 167.3,688.1 167.5,690.5 		"/>
		<polyline class="st1" points="175.9,688.9 173.9,689.7 173.6,691.1 		"/>
	</g>
	<g>
		<path class="st2" d="M349.8,725.8c-0.1,0.1-1.6,2.1-1.3,4c0,0,0.1,0.1,0.1,0c0.2-0.2,0.8-0.8,1.3-1.8h0.1c-0.3,1-1,3.1-1.6,4.2
			c0,0,0,0.1,0.1,0c0.8-0.3,4-2.9,4.4-5.7l0,0C352.6,726.5,350.6,725.3,349.8,725.8L349.8,725.8z"/>
		<path class="st4" d="M334.7,703.6c0,0,4.5-1.2,10-0.7s7.5,3.3,8.2,6.1c1.2,4.6,1.4,10.7,1.2,13.4s-0.6,4.6-1.6,4.4
			c0,0-2-0.5-2.7-0.9c-0.7-0.5-0.9-3.3-0.4-6.1c0,0-3.5-1.8-5.1-5c0,0-4.7-1.1-7-2.4c0,0-3.7-0.5-5.5-1.1
			C330.1,710.6,334.7,703.6,334.7,703.6"/>
		<path class="st4" d="M340.7,702.7c0.5,1.4,0,5-4,8.9"/>
		<path class="st4" d="M346.3,703c0.7,2.3-1.8,7.2-5.5,8.8"/>
		<path class="st4" d="M351.5,705.9c0,3.3-3.6,6.8-6.8,8"/>
		<path class="st4" d="M353.7,712.7c-0.7,1.6-2.8,3.4-6.1,3.9"/>
		<path class="st4" d="M354.1,717.6c-0.3,0.6-1.9,1.4-3.7,1.7"/>
		<path class="st4" d="M351.1,721.5c0,0-1.1,1.4-0.3,3.7"/>
		<path class="st1" d="M313,700.8c0,0-10.8-2.5-10.9-4.9c-0.1-2.4,7.6-1.9,10.1-1.6c9.2,1,18.6,3.3,23.5,5.2"/>
		<path class="st1" d="M310.7,700.4c0,0-6.5-1-6.5-2.2c-0.1-1.7,15.1-0.4,24.7,3.3"/>
		<path class="st2" d="M306.2,697C306.2,696.9,306.2,696.9,306.2,697c1.4,0.5,7.4,3.1,13.8,4.5c6.2,1.4,6.9,0.3,14.6,2.1l0,0
			c0.1,0.3,1.3,4.5-2.6,7.5c-0.1,0.1-0.2,0.1-0.4,0.1c-1-0.1-5.4,0.5-10.7-3.2c-4.9-3.5-9-5.8-10.1-6.4v-0.1
			c0.7,0.2,2.5,0.8,4.4,1.7c0,0,0.1,0,0-0.1c-1.3-0.7-4.2-2.3-5-2.7l0,0c0.5,0.1,2.4,0.3,3,0.4c0,0,0.1,0,0-0.1
			C312.5,700.3,308.1,698.2,306.2,697z"/>
		<path class="st1" d="M325.4,705.6l-3-0.4c-0.1,0-0.1,0.1,0,0.1c0.4,0.3,1.6,1.3,3.5,2"/>
		<circle cx="320.5" cy="703" r="0.3"/>
		<polyline class="st1" points="331.7,711.2 329.8,712.6 330.2,715.3 		"/>
		<polyline class="st1" points="337.4,712.3 334.8,713.4 334.3,716 		"/>
		<polyline class="st1" points="344.4,714.7 342.1,716 341.4,718.3 		"/>
		<polyline class="st1" points="349.5,719.7 347.4,719.8 346.6,720.9 		"/>
	</g>
	<g>
		<path class="st2" d="M412.3,652.5c-5.1-0.1-23.1-4.2-20.5-15.3c3.2-13.7,23-18.6,34-19.2c10.2-0.5,34.9,1.9,25.6,22.1
			C443.5,656.9,418.9,652.6,412.3,652.5z"/>
		<g>
			<path class="st6" d="M422.5,618.2c0,0-4,7.2,1.2,14.6c0,0,7.8-11.4,21.6-11.9"/>
			<path class="st6" d="M430.3,652.8c0,0,0.4-13.2-6.6-20c10.4-3,28.1,6.1,28.1,6.1"/>
			<path class="st6" d="M391.7,637.9c0,0,13.6-7.7,32.1-5.2c0,0-17.5,8.7-20.4,17.9"/>
		</g>
	</g>
	<g>
		<path class="st2" d="M520.7,645.2c-10.7,4.1-16.1,13.3-9.7,22.2c8.8,12.2,23.1,2.4,42.6,8c23.3,6.6,28.5-9.8,22.6-17.7
			C565.5,643.2,536.7,639.1,520.7,645.2z"/>
		<path class="st6" d="M512.2,668.2c0,0,14.5-11,35.1-6.8c0,0-14.5-12.6-36.3-8.7"/>
		<path class="st6" d="M536.1,642.8c0,0,10.6,5.3,11.2,18.7c0,0,13.8-9.1,28.6-3.7"/>
		<path class="st6" d="M551.5,674.7c0,0-0.7-9.4-4.2-13.2c13.1-0.3,24.9,13.2,24.9,13.2"/>
	</g>
</g>
</svg>
