<svg id="圖層_1" data-name="圖層 1" xmlns="http://www.w3.org/2000/svg" viewBox="0 0 754.23 1066.7"><defs><style>.cls-1{fill:#ecb36f;}.cls-1,.cls-2,.cls-3,.cls-4,.cls-5,.cls-6,.cls-7,.cls-8{stroke:#000;}.cls-1,.cls-10,.cls-2,.cls-3,.cls-4,.cls-5,.cls-7,.cls-9{stroke-miterlimit:10;}.cls-1,.cls-10,.cls-2,.cls-3,.cls-4,.cls-5,.cls-6,.cls-7,.cls-8,.cls-9{stroke-width:0.25px;}.cls-10,.cls-11,.cls-2,.cls-9{fill:none;}.cls-3{fill:#cbd13a;}.cls-4{fill:#60472a;}.cls-5{fill:#4b8e32;}.cls-6,.cls-8{fill:#fff;stroke-linejoin:round;}.cls-7{fill:#ffeed6;}.cls-8{opacity:0.95;}.cls-9{stroke:#1d842f;}.cls-10{stroke:#fbc600;}</style></defs><title>all</title><path class="cls-1" d="M113.37,612.12c.78-6.16,8.44-8.75,15.52-5.06,10,5.21,12.75,8.18,27.05,6.47,13.34-1.6,9.39,13.12,22,13,7.46-.06,12,10.5,12.44,15.26,0,0-11.08,9.3-20.32.38-8.11-7.84-14.82,4.66-23.7-6.27-8.63-10.6-16-9.87-24.13-12.38C115.94,621.63,112.84,616.24,113.37,612.12Z"/><path class="cls-2" d="M113.37,612.12c13.84.38,68.3,19.08,90.38,39.8"/><path class="cls-3" d="M104.41,551.63c4.19-6.3,13.48-4.92,21.9,3.06,8,7.6,11.33,13.62,25.32,16.13,16.84,3,26,16.21,29.3,26.86,2.24,7.14,6.28,12.07,14,14.49,8.58,2.7,13,9.94,11.32,24.7-9.52,2.25-18.44,2.66-25.17-9.55-5.63-10.22-11.79-11.63-16.24-11.62-3.83,0-21.5-.83-32.95-25.76-6.44-14-11.26-12.16-20.73-19.83C104.5,564.73,100.68,557.23,104.41,551.63Z"/><path class="cls-2" d="M104.41,551.63C137.17,573.17,204,622.14,211,645.88"/><path class="cls-1" d="M173.37,548.2c8.2-4.75,17,9.27,19.19,20.37,2.41,12,10,11.43,16.12,20.37s5.9,25.23-.92,32.46c0,0-19.54-2.56-23.9-22-2.23-10,1-17.87-5.28-24.43C172,568.1,165.68,552.66,173.37,548.2Z"/><path class="cls-2" d="M173.37,548.2c4.79,6.31,41.88,75.36,41.71,102.07"/><path class="cls-4" d="M453.78,755.36c-37.95,6.27-88,11.32-97.19,12.47-10.88,1.36-43.32,13.51-50.37,60.77-9.27,62.24-34.8,43.83-56.57,62.69-19.33,16.76-25.88,61-77.76,44.44a62,62,0,0,0,28.4,10.55c20.81,2.31,35.08,10.11,45.07,23.48,11.19,15,33.65,21.9,57.64,9.25,35.65-18.81,44.82-.4,76.58,10.71,18.23,6.38,64.78,3.74,104.39,3.46C499.62,993.06,505.81,973,493,964c-4.26-3-8.36-6.14-12.21-9.44-17-14.59-29.21-32.56-28.44-58.63,2-69.28,86-83.06,129.87-115.92,15.1-11.32,25.44-24.9,26-43.8C601.62,753.57,506.19,746.7,453.78,755.36Z"/><path class="cls-1" d="M476.41,798c-40.63,1.37-69.33,14.06-88.64,30.79-16.54,14.33-42.72,17-42.72,52.41,0,36.1,27.33,31.65,49.17,54,26.95,27.6,69.15,15.37,86.6,19.34-17-14.59-29.21-32.56-28.44-58.63,2-69.28,86-83.06,129.87-115.92C572.84,783.35,524.62,796.32,476.41,798Z"/><path class="cls-5" d="M253.22,891.53c19.43-13.71,48.35-.47,57.83-64.09,7.2-48.32,48.39-61.07,52.81-61.8-33.89,5.13-70.72,8.5-120.55,7.66C96.19,770.82,75.86,741.6,75.86,741.6s-.7,22.76,28.14,49S145,829,145.87,878.71c.52,28.4,12.21,47.41,27.86,58.25C226.77,953.87,232.38,906.24,253.22,891.53Z"/><path class="cls-1" d="M344.94,339.33l-1.12-.56-22.26,36.3c-3.52-39.38-9-78.32-17.4-109.49l-31.59,1.81c.48,8,4.48,36.74,7.19,76.48L237.29,280l-3,1.84L281.05,366c.48,9.94.85,20.38,1.05,31.19.48,26,0,54.27-2.35,83-2.47,30.6-7,61.82-14.5,91.7l62.06-6.83s2.33-85.24-4.38-173.41Z"/><polyline class="cls-2" points="225.5 366.26 278.54 489.05 286.81 549.7"/><line class="cls-2" x1="260.7" y1="392.6" x2="257.92" y2="441.32"/><line class="cls-2" x1="219.02" y1="440.18" x2="270.82" y2="471.18"/><line class="cls-2" x1="274.42" y1="408.01" x2="278.53" y2="489.05"/><line class="cls-2" x1="299.53" y1="430.37" x2="277.27" y2="464.23"/><line class="cls-2" x1="283.32" y1="524.88" x2="304.07" y2="490.94"/><line class="cls-2" x1="215.79" y1="392.61" x2="254.05" y2="432.37"/><ellipse class="cls-3" cx="305.26" cy="487.23" rx="5.62" ry="5.48" transform="translate(-190.68 778.13) rotate(-88.33)"/><line class="cls-2" x1="236.61" y1="414.25" x2="201.92" y2="407.47"/><ellipse class="cls-4" cx="213.98" cy="390.86" rx="2.65" ry="2.58" transform="translate(-182.96 593.32) rotate(-88.33)"/><line class="cls-2" x1="290.55" y1="513.06" x2="305.36" y2="504.93"/><ellipse class="cls-4" cx="274.49" cy="405.49" rx="2.65" ry="2.58" transform="translate(-138.85 668.02) rotate(-88.33)"/><ellipse class="cls-4" cx="307.36" cy="503.92" rx="2.65" ry="2.58" transform="translate(-205.33 796.42) rotate(-88.33)"/><ellipse class="cls-4" cx="217.02" cy="438.9" rx="2.65" ry="2.58" transform="translate(-228.04 643.01) rotate(-88.33)"/><ellipse class="cls-3" cx="260.9" cy="385.78" rx="6.82" ry="6.65" transform="translate(-132.34 635.29) rotate(-88.33)"/><ellipse class="cls-3" cx="302.77" cy="424.52" rx="6.82" ry="6.65" transform="translate(-130.42 714.76) rotate(-88.33)"/><ellipse class="cls-3" cx="195.65" cy="406.23" rx="6.82" ry="6.65" transform="translate(-216.13 589.92) rotate(-88.33)"/><ellipse class="cls-3" cx="223.41" cy="360.1" rx="6.82" ry="6.65" transform="translate(-143.06 572.9) rotate(-88.33)"/><path class="cls-4" d="M646.1,320.45l-1.22-1-19.64,21.42L624,320.23h-1l-1.49,24.68L605,363c1.83-33.72,2.51-69.64,1.37-107L583.9,259.1s-2.38,19.38-7.39,50.15c-2.71,16.67-6.2,36.69-10.49,58.78-8,41.42-18.92,90.11-32.89,137.71l34.79,105.52s26.81-95.45,36-230.46Z"/><path class="cls-1" d="M444.08,233.59s4.61,30.87,4.35,78.35l-35.55-36.19-2.19,1.85,37.42,51.73c-1.56,51.59-9.22,118.36-32.71,185.76l89.37-1.45,6.39-273.87Z"/><path class="cls-4" d="M453.3,354.74l-1.05-.76-38.61,44.84c-2-63.43-6.2-137.23-15.11-178.49H363.84c5.63,39.22,5.29,87,.24,134L336,321.41l1.17-34.32-1.28-.17L329.63,314,313,294.45l-3,2.26,51.56,78.67c-7.15,51.67-19.88,100.53-36.44,133.61l90.35,6.1s.18-41.55-1.16-95Z"/><path class="cls-3" d="M594.93,720c-12.46-17.8-47.87-72.85-43.07-117.5,5.82-54-28-127.68-118-130.41-154-4.67-134,126.89-318.75,228.72-17.6,7.31-40.15,21-39.22,40.8,0,0,14.44,32,158.32,36.24,94.47,2.76,115-19.69,230.64-13.09,36.75,2.1,143.71.08,143.44-29.37C608.21,730.11,603.47,724.94,594.93,720Z"/><path class="cls-5" d="M410.91,425c6.21,2,8.75,10,3.52,19.67s.15,10-3.35,14.9-11.84,3.48-13.62,10.27-7-15.62-1-34.58C399.65,425.16,406.3,423.52,410.91,425Z"/><path class="cls-5" d="M368.41,422.1c5.31-3.77,16.52-3.23,20.15,8.77,4,13.14,10.29,11.1,11.21,21.66.73,8.38-3.57,18.52-3.57,18.52a12.33,12.33,0,0,0-10.77-5.48c-7,0-11.32-2.57-11.84-9-.75-9.34-5.55-8-9.51-15.67A14.28,14.28,0,0,1,368.41,422.1Z"/><path class="cls-2" d="M377.88,435c12.92,12.82,20.06,28.47,19.26,50.7"/><path class="cls-5" d="M480.45,440c6.21,2,8.76,10,3.53,19.67s.15,10-3.36,14.9S468.78,478,467,484.82s-7-15.62-1-34.58C469.2,440.16,475.84,438.51,480.45,440Z"/><path class="cls-5" d="M438,437.1c5.31-3.77,16.51-3.23,20.15,8.77,4,13.14,10.29,11.1,11.21,21.66.73,8.38-3.57,18.52-3.57,18.52A12.36,12.36,0,0,0,455,480.57c-7,0-11.32-2.57-11.83-9-.75-9.34-5.55-8-9.52-15.67A14.29,14.29,0,0,1,438,437.1Z"/><path class="cls-2" d="M447.42,450c12.93,12.82,20.06,28.47,19.26,50.69"/><path class="cls-2" d="M469.25,466.85a60.89,60.89,0,0,1,5.24-13.43"/><path class="cls-5" d="M475,489.88c6.21,2,8.75,10,3.52,19.68s.16,10-3.35,14.89-11.84,3.49-13.62,10.28-7-15.63-1-34.58C463.78,490.07,470.42,488.42,475,489.88Z"/><path class="cls-5" d="M432.53,487c5.32-3.76,16.52-3.22,20.15,8.77,4,13.14,10.3,11.1,11.22,21.67.73,8.37-3.57,18.51-3.57,18.51a12.36,12.36,0,0,0-10.78-5.48c-7,0-11.32-2.57-11.84-9-.74-9.34-5.54-8-9.51-15.66A14.31,14.31,0,0,1,432.53,487Z"/><path class="cls-2" d="M442,499.93c12.92,12.82,20.06,28.46,19.26,50.69"/><path class="cls-2" d="M463.83,516.76a60.26,60.26,0,0,1,5.24-13.44"/><path class="cls-5" d="M366.78,462.28c6.21,2,8.75,10,3.52,19.67s.15,10-3.35,14.9-11.84,3.48-13.62,10.27-7-15.62-1-34.58C355.52,462.46,362.17,460.81,366.78,462.28Z"/><path class="cls-5" d="M324.52,460.24c5.31-3.77,16.51-3.23,20.15,8.76,4,13.15,10.29,11.1,11.21,21.67.73,8.38-3.36,18.52-3.36,18.52a12.93,12.93,0,0,0-11-5.49c-7,0-11.31-2.56-11.83-9-.75-9.34-5.55-8-9.52-15.67A14.29,14.29,0,0,1,324.52,460.24Z"/><path class="cls-2" d="M334,473.16c12.92,12.82,20.06,28.47,19.26,50.69"/><path class="cls-2" d="M355.58,489.15a60.29,60.29,0,0,1,5.24-13.43"/><path class="cls-5" d="M349.3,516c6.21,2,8.76,10,3.53,19.68s.15,10-3.36,14.89-11.84,3.49-13.62,10.28-7-15.63-1-34.58C338.05,516.21,344.69,514.56,349.3,516Z"/><path class="cls-5" d="M307,514c5.31-3.76,16.52-3.22,20.15,8.77,4,13.14,10.3,11.1,11.22,21.67.72,8.37-3.37,18.51-3.37,18.51a12.91,12.91,0,0,0-11-5.48c-7,0-11.32-2.57-11.84-9-.75-9.34-5.55-8-9.51-15.66A14.31,14.31,0,0,1,307,514Z"/><path class="cls-2" d="M316.51,526.91c12.92,12.82,20.06,28.46,19.26,50.69"/><path class="cls-2" d="M338.1,542.89a60.89,60.89,0,0,1,5.24-13.43"/><ellipse class="cls-4" cx="499.73" cy="598.79" rx="1.26" ry="1.29" transform="translate(-72.37 68.71) rotate(-7.34)"/><path class="cls-2" d="M499.6,600s-2.21,17.91-18.2,25"/><path class="cls-2" d="M505,604.88s-2.33,8.89-10.24,8.15"/><circle class="cls-1" cx="505.64" cy="603.27" r="2.06"/><path class="cls-2" d="M494.78,603.82s-1,5.3,1.5,6.47"/><circle class="cls-1" cx="495.05" cy="602.57" r="1.53"/><path class="cls-3" d="M382,643.35c9.06,21.28,98,17.45,100.18-6.38,1.61-17.51-4.05-73.25-38.21-75S374.91,626.61,382,643.35Z"/><path class="cls-1" d="M303.21,610.87c-.38-5.61,7.47-5.61,10.18-5,2.86.58,12.56,3.11,27.82,9.67,14.57,6.25,20,8,19.53,12.33-.73,7.49-5.26,10.84-13.58,8.32C338.48,633.52,303.76,619.18,303.21,610.87Z"/><path class="cls-1" d="M335,626.56c-.38-5.6,7.47-5.6,10.18-5,2.86.58,12.56,3.12,27.82,9.67,14.57,6.25,20,8,19.53,12.33-.73,7.49-5.26,10.84-13.58,8.32C370.27,649.21,335.55,634.87,335,626.56Z"/><path class="cls-6" d="M438.7,411.8c-1.06-9.87-12.33-7.68-15.45-19.93-1.7-6.68-4.62-20.22-18.85-18.35-12.92,1.69-13.09,25-18,31-4.32,5.27-5.61,17.28,12.17,20.43-1,2.65-2.26,6-3.67,10a117.6,117.6,0,0,1,1.36,12.82c.19,4.14,7.12,7.74,10.79,0,2.52-5.3,7.47-14.43,10.8-17-.89-1.84-1.8-3.57-2.73-5.22C435.36,424.35,439.26,417,438.7,411.8Z"/><path class="cls-4" d="M446.71,551l-69.84-23.12S340,539.2,330.92,569.08l82.51,38.13a83.92,83.92,0,0,1,15.47-14.33C449.05,578.12,454,556.57,446.71,551"/><path class="cls-6" d="M377.77,468.86a9.4,9.4,0,0,0,5.88.66c3.44-.66,6.51-20.94,6.51-20.94S378.77,462.58,377.77,468.86Z"/><path class="cls-6" d="M382.63,478.06v0a16.14,16.14,0,0,1-5.54-.47,2.44,2.44,0,0,1-1.05-.57c-1,2.69-9.55,26.61-9.93,43.14-.39,16.9,3.75,27.61,15.34,24.15,6.54-1.95-2-15.78-3.89-27.23C375.55,504.48,381,486.92,382.63,478.06Z"/><path class="cls-6" d="M377.77,468.86a16.38,16.38,0,0,0-2.53,5.73,2.53,2.53,0,0,0,.81,2.4,2.44,2.44,0,0,0,1.05.57,16.14,16.14,0,0,0,5.54.47c.25,0,.5,0,.76-.06l.25-8.45A9.4,9.4,0,0,1,377.77,468.86Z"/><path class="cls-1" d="M407,447.8c-3.67,7.71-10.6,4.11-10.79,0A117.6,117.6,0,0,0,394.88,435c-9.3,25.93-25.3,75.69-18,92.89L446.71,551C445.34,539.9,440.2,464,417.83,430.8,414.5,433.37,409.55,442.5,407,447.8Z"/><path class="cls-7" d="M386.89,482.3c.35,0,6.2,3.41,20.3,1.88,0,0,3.42,29.16-11.94,27.44C381.17,510,386.89,482.3,386.89,482.3Z"/><path class="cls-7" d="M373,634.63c4.05,2,15.28,7.58,18.38,8.72,5.09,1.85,2.88-11.84,22.05-36.14l-80.84-37.36s-14.51,12.68-14,35.67c.05,2.18,2.64,3.05,9.53,6.73C343.72,620.59,366.06,631.08,373,634.63Z"/><path class="cls-2" d="M357.6,581.41s4.49-18.49,24.51-30.89"/><path class="cls-2" d="M346.23,621.51c1.54-26.42,13.72-39,13.72-39"/><ellipse cx="400.04" cy="401.27" rx="2.4" ry="1" transform="translate(-12.75 789.41) rotate(-88.33)"/><ellipse cx="406.15" cy="401.45" rx="2.4" ry="1" transform="translate(-6.99 795.7) rotate(-88.33)"/><rect class="cls-7" x="393.53" y="475.43" width="4.21" height="116.67" transform="translate(-213.59 798.86) rotate(-76.97)"/><path class="cls-1" d="M440.2,549.61l16.21-9.94,12,32.43-5.2,4.48S447.72,569.06,440.2,549.61Z"/><circle class="cls-7" cx="454.73" cy="548.16" r="1.26"/><path class="cls-8" d="M428.78,471.41c.48-12.62-3.71-21.26-7.79-21.13-8,.25-8.25,21.15-8.25,21.15A45.46,45.46,0,0,1,428.78,471.41Z"/><path class="cls-6" d="M427.29,481.94a8.86,8.86,0,0,1-7.07,2.6l-.65-.07a8.65,8.65,0,0,1-4.83-2.21l-.07,0s-10.08,44.21-18.86,56.2,5.76,16.87,14.48,14.1,14.06-21.51,16.35-38.65c2.58-19.17.65-32,.65-32Z"/><path class="cls-8" d="M429.77,474.62a9,9,0,0,0-1-3.21,45.46,45.46,0,0,0-16,0A14,14,0,0,0,412,474a8.87,8.87,0,0,0,2.74,8.24,8.65,8.65,0,0,0,4.83,2.21l.65.07a8.86,8.86,0,0,0,7.07-2.6A8.66,8.66,0,0,0,429.77,474.62Z"/><path class="cls-3" d="M494.47,579.49h0a9.11,9.11,0,0,0-.72-.92,10.8,10.8,0,0,1-1.42-2,18.3,18.3,0,0,1-2-8.65c0-.18,0-.37,0-.56,0-3.69-1.95-6.68-5.53-6.68s-5.53,3-5.53,6.68c.26,5.74-5,10.65-5,10.65h0a9.81,9.81,0,0,0-3,7c0,5.9,5.59,10.69,12.48,10.69s12.48-4.79,12.48-10.69A9.5,9.5,0,0,0,494.47,579.49Z"/><path class="cls-2" d="M484.16,572.5s1.07,23.2-7,29.59"/><path class="cls-2" d="M481.47,578.21A2.49,2.49,0,0,0,484,580a3.21,3.21,0,0,0,2.89-1.81"/><path class="cls-2" d="M478.7,586.73s.77,2.46,4.18,2.78a5.14,5.14,0,0,0,5.05-2.78"/><path class="cls-5" d="M422.88,655.4h0l-3-2.22a3.25,3.25,0,0,1,1-5.72l3.6-1.13-2.88-2.49a3.25,3.25,0,0,1,1.4-5.62l3.7-.86L424,634.69a3.25,3.25,0,0,1,1.86-5.5l3.72-.52-2.31-2.84a3.25,3.25,0,0,1,2.41-5.3l3.65-.12-1.86-3a3.25,3.25,0,0,1,3.1-5l3.47.37-1.25-3a3.25,3.25,0,0,1,4-4.35l3.08,1-.49-2.89a3.25,3.25,0,0,1,4.94-3.28l2.47,1.56.33-2.77a3.25,3.25,0,0,1,5.7-1.71l1.8,2.12,1.11-2.48a3.25,3.25,0,0,1,6,.05l1,2.44,1.53-1.74a3.24,3.24,0,0,1,5.68,1.9L474,602l2.21-1.28A3.25,3.25,0,0,1,481,604.3l-.61,2.5,2.87-.74a3.25,3.25,0,0,1,3.71,4.61l-1.34,2.66,3.26-.2a3.25,3.25,0,0,1,2.82,5.15l-1.92,2.64,3.43.26a3.25,3.25,0,0,1,2.16,5.43l-2.33,2.54,3.5.61a3.25,3.25,0,0,1,1.64,5.59l-2.62,2.4,3.5.89a3.25,3.25,0,0,1,1.22,5.69l-2.82,2.25,3.44,1.12a3.25,3.25,0,0,1,.85,5.75l-3,2.07h0a5.18,5.18,0,0,1-4.09,8.36l-67.19.16A5.58,5.58,0,0,1,422.88,655.4Z"/><path class="cls-5" d="M451.07,632.65s-5.17-4.29-2.33-7.13c2.19-2.19,6.56,2.57,6.56,2.57"/><path class="cls-5" d="M480.23,639.37s1.77-3.54,4-2.29-.52,6-.52,6"/><path class="cls-7" d="M287.35,565.61l-7.63,4.07-7.37-4.51-3.17,4.2s6.62,5.58,6.25,18.24l3.77.11,3.76.11c.37-12.66,7.31-17.85,7.31-17.85Z"/><line class="cls-2" x1="279.43" y1="576.15" x2="279.54" y2="570.55"/><path class="cls-1" d="M298.26,555.16a9.2,9.2,0,0,0,.37-2.24,8.85,8.85,0,0,0-8.58-9.1,9,9,0,0,0-1.28.07,8.83,8.83,0,0,0-17.15-.53,8.61,8.61,0,0,0-1-.09A8.79,8.79,0,0,0,261.72,554a8.83,8.83,0,1,0,10.42,13.34,8.84,8.84,0,0,0,14.7.44,8.83,8.83,0,1,0,11.42-12.6Z"/><path class="cls-5" d="M254.62,579A6.63,6.63,0,0,1,265.27,575c3.39,3.1,3.49,8.06,12,9,5.36.62,3.47,7.41-6.5,7.27C258.22,591.14,253.57,583.62,254.62,579Z"/><path class="cls-5" d="M304.1,579.94a6.63,6.63,0,0,0-10.48-4.36c-3.51,3-3.81,7.92-12.31,8.56-5.39.4-3.77,7.26,6.2,7.52C300,592,305,584.64,304.1,579.94Z"/><path class="cls-2" d="M115.55,625.84s38.73,19.06,26.7,60.12"/><circle class="cls-3" cx="113.79" cy="624.81" r="2.04"/><circle class="cls-7" cx="126.2" cy="622.38" r="3.4"/><circle class="cls-7" cx="113.81" cy="640.86" r="4.58"/><path class="cls-2" d="M135,642.62s-6.26,5.53-17.28.65"/><path class="cls-2" d="M130.6,637.25s3.06-6-2.26-12.21"/><path class="cls-2" d="M139,648.79s4.94-3.17,6.23-11.87"/><circle class="cls-3" cx="145.51" cy="635.32" r="1.7"/><path class="cls-2" d="M192.52,473.2c31.18,25.25,58.21,85.46,52.88,130.43"/><path class="cls-7" d="M201.62,452.66s-12.66,7.07-9.13,20.65C192.49,473.31,205.06,468.93,201.62,452.66Z"/><path class="cls-7" d="M170.65,469.74s9.28,11.43,21.94,3.52C192.59,473.26,186.3,464,170.65,469.74Z"/><path class="cls-7" d="M208.23,489.36s-15.55-7.36-35.73,3.92C172.5,493.28,191.44,506.33,208.23,489.36Z"/><path class="cls-7" d="M218.84,459.51s-18.12,13.38-10.35,29.84C208.49,489.35,225.33,484.55,218.84,459.51Z"/><path class="cls-7" d="M221.13,508.17S219.79,485,243,472C243,472,245.61,495.71,221.13,508.17Z"/><path class="cls-7" d="M174.61,518.22s32.61,11.06,46.54-10.07C221.15,508.15,199.3,501.26,174.61,518.22Z"/><path class="cls-7" d="M234.31,535.31c-1.9-6.41,2.89-39.38,33.95-53.81C268.26,481.5,272.37,522.42,234.31,535.31Z"/><path class="cls-7" d="M171.87,541.48c-.94.56,36.44,19.72,62.34-6.18C234.21,535.3,209,519.06,171.87,541.48Z"/><path class="cls-1" d="M188.71,798.93l8.34.19a3.16,3.16,0,0,1,3,4c-.85,2.83-3.67,6.12-12.27,5.92Z"/><path class="cls-4" d="M187.91,798.9l1.43-2.43a3.13,3.13,0,0,0-2.62-4.72l-16.55-.39a26,26,0,0,0-18,6.7h0Z"/><path class="cls-4" d="M161.52,820l0,0s4.58,6.06,12.21,6.13a13.74,13.74,0,0,0-.6-7,51.34,51.34,0,0,1-10.68.83Z"/><path class="cls-7" d="M192.63,798.94,152.18,798v0a15.62,15.62,0,0,1,.63,5.39,14.59,14.59,0,0,1-6.76,11.66,30.36,30.36,0,0,0,16,5.26l.69,0a41,41,0,0,0,8.23-.6C190.37,816.31,192.55,799.2,192.63,798.94Z"/><path class="cls-4" d="M153.46,804l-1.39,0a13.85,13.85,0,0,1-4.2,7.11l5.42.13a3.61,3.61,0,0,0,3.69-3.52h0A3.61,3.61,0,0,0,153.46,804Z"/><path class="cls-1" d="M152.18,798v0l-16.55-.38a2.19,2.19,0,0,0-2,3.2,39.86,39.86,0,0,0,12.13,14,.54.54,0,0,0,.61,0c.52-.37,1-.75,1.43-1.13a14.34,14.34,0,0,0,4.6-7.44,14.63,14.63,0,0,0,.42-2.87A15.62,15.62,0,0,0,152.18,798Z"/><circle cx="140.87" cy="801.7" r="0.79"/><path class="cls-7" d="M227.43,825.26l-9.08,0a3.42,3.42,0,0,0-3.32,4.28c.86,3.09,3.86,6.73,13.22,6.67Z"/><path class="cls-7" d="M228.3,825.25l-1.52-2.67a3.4,3.4,0,0,1,2.94-5.08l18-.11A28.29,28.29,0,0,1,267.22,825h0Z"/><path class="cls-7" d="M256.58,848.66l0,0s-5.09,6.5-13.39,6.44a14.83,14.83,0,0,1,.79-7.55,55.72,55.72,0,0,0,11.6,1.11C255.94,848.69,256.26,848.67,256.58,848.66Z"/><path class="cls-1" d="M223.17,825.2l44-.22v0a16.88,16.88,0,0,0-.8,5.84,15.91,15.91,0,0,0,7.13,12.81A33.07,33.07,0,0,1,256,849.07l-.75,0a45.11,45.11,0,0,1-8.94-.82C225.28,844.13,223.24,825.48,223.17,825.2Z"/><path class="cls-7" d="M265.65,831.48h1.51a15.14,15.14,0,0,0,4.43,7.81l-5.9,0a3.93,3.93,0,0,1-3.94-3.9h0A3.92,3.92,0,0,1,265.65,831.48Z"/><path class="cls-4" d="M267.16,825v0l18-.1a2.39,2.39,0,0,1,2.12,3.53,43.48,43.48,0,0,1-13.45,15,.6.6,0,0,1-.67,0,18.22,18.22,0,0,1-1.54-1.26,15.83,15.83,0,0,1-5.26-11.31A16.88,16.88,0,0,1,267.16,825Z"/><circle cx="279.38" cy="829.19" r="0.86"/><path class="cls-9" d="M352.24,770.35l-.4.06Z"/><path class="cls-10" d="M352.29,770.34Z"/><path class="cls-10" d="M432.74,575.62v0Z"/><path class="cls-10" d="M432.74,575.64c.2,1.75.2,1.62,0,0Z"/><path class="cls-1" d="M468,238.81h0l.27.3a6.56,6.56,0,0,1-4.72,11h-.44l.49,1.15a6.57,6.57,0,0,1-7.79,8.9l-1.24-.35.29,1.83a6.57,6.57,0,0,1-9.52,6.84l-1.66-.87-.06,2.2a6.57,6.57,0,0,1-10.5,5.07l-1.77-1.33-.41,2.36a6.56,6.56,0,0,1-11.06,3.55l-1.71-1.68-.74,2.4a6.56,6.56,0,0,1-11.38,2.19l-1.58-2-1,2.36a6.56,6.56,0,0,1-11.54.95l-1.4-2.17-1.27,2.28a6.56,6.56,0,0,1-11.57-.23l-1.19-2.33L375,283.37A6.56,6.56,0,0,1,363.52,282l-.93-2.4-1.66,1.89a6.57,6.57,0,0,1-11.29-2.64l-.64-2.43L347.22,278a6.57,6.57,0,0,1-10.91-4l-.32-2.38-1.83,1.25a6.56,6.56,0,0,1-10.28-5.48l0-2.2-1.69.8a6.57,6.57,0,0,1-9.24-7.21l.36-1.82-1.25.29a6.56,6.56,0,0,1-7.42-9.19l.53-1.13-.44,0a6.57,6.57,0,0,1-4.28-11.15l.29-.29h0a6.56,6.56,0,0,1,.24-12h0l-.28-.31a6.56,6.56,0,0,1,4.72-11h.45L305.4,211a6.56,6.56,0,0,1,7.79-8.89l1.23.34-.28-1.83a6.56,6.56,0,0,1,9.52-6.83l1.66.86.06-2.2a6.56,6.56,0,0,1,10.49-5.06l1.77,1.32.42-2.35a6.56,6.56,0,0,1,11.06-3.55l1.71,1.68,0-.12a7.83,7.83,0,0,1,13.58-2.62l.08.1.08-.19a7.83,7.83,0,0,1,13.77-1.13l.11.17.12-.21a7.84,7.84,0,0,1,13.81.28l.11.21.12-.17a7.83,7.83,0,0,1,13.71,1.68l.07.2.09-.1A7.83,7.83,0,0,1,420,185.77l0,.13h0a7.83,7.83,0,0,1,13,4.76h0l1.82-1.26a6.57,6.57,0,0,1,10.29,5.48l0,2.21,1.7-.8a6.56,6.56,0,0,1,9.23,7.21l-.36,1.81,1.25-.29a6.57,6.57,0,0,1,7.43,9.2l-.54,1.13.44,0a6.56,6.56,0,0,1,4.28,11.15l-.28.29h0A6.57,6.57,0,0,1,468,238.81Z"/><path class="cls-5" d="M476.17,669.68c4-2,6.87-5.34,3.89-8.71l-.21-.25h0a5.24,5.24,0,0,0,.32-9.58l.23-.23a5.24,5.24,0,0,0-3.29-8.95l-.35,0,.44-.89a5.25,5.25,0,0,0-5.83-7.43l-1,.22.3-1.45a5.24,5.24,0,0,0-7.29-5.86l-1.37.62.05-1.76a5.25,5.25,0,0,0-8.16-4.49l-1.47,1a6.25,6.25,0,0,0-10.34-3.94h0l0-.1a6.26,6.26,0,0,0-10.72-2.67l-.06.08-.06-.15a6.25,6.25,0,0,0-10.93-1.5l-.1.14-.09-.18a6.25,6.25,0,0,0-11-.37l-.1.17-.09-.15a6.26,6.26,0,0,0-11,.76l-.06.15-.07-.08A6.25,6.25,0,0,0,386.88,616l0,.09-1.35-1.36a5.25,5.25,0,0,0-8.88,2.72l-.36,1.87-1.4-1.08a5.24,5.24,0,0,0-8.43,3.93l-.08,1.76-1.31-.71a5.24,5.24,0,0,0-7.68,5.35l.21,1.47-1-.29a5.25,5.25,0,0,0-6.32,7l.38.92h-.35a5.24,5.24,0,0,0-3.9,8.71l.22.24h0a5.25,5.25,0,0,0-.32,9.59l-.24.22c-3.19,3.17-1.37,7.58,2.46,9.94,9.21,5.7,28.5,12.28,63.83,13.47C446.56,681,467.2,674.17,476.17,669.68Z"/><path class="cls-4" d="M280,188.89h0c1.82-4.48-2.27-11.5-9.17-8.19h0l-.76.08a6,6,0,0,0-7.59-8.12h0a6.22,6.22,0,0,0-9.38-6.55h0v-.3A6.22,6.22,0,0,0,242.78,161l-.23.2-.06-.48a6.22,6.22,0,0,0-10.91-3.25l-.31.37-.16-.56a6.22,6.22,0,0,0-11.23-1.76l-.32.49-.6-1.48a6.23,6.23,0,0,0-11.21-.63l-1,1.8-1.59-2.38a6.22,6.22,0,0,0-11,1.3l-1,2.68-1.85-2a6.22,6.22,0,0,0-10.68,3l-.53,2.67-2-1.52a6.22,6.22,0,0,0-10,4.91v2.5l-1.88-.9a6.22,6.22,0,0,0-8.74,7l.47,2h0c-8.94-1.76-11.34,5.64-7.12,10.22h0c-7.75.87-8.06,8.42-2.78,11.62h0a4.81,4.81,0,0,0,1.16,9h0l-.29.28a4.8,4.8,0,0,0,3.75,8.26l.42,0-.51.83a4.8,4.8,0,0,0,5.66,7l.93-.31-.46,1.33a4.8,4.8,0,0,0,6.93,5.74l1.23-.7-.27,1.68a4.8,4.8,0,0,0,7.76,4.51l1.33-1.07,0,1.88a4.8,4.8,0,0,0,8.3,3.37l1.29-1.37h0a7.82,7.82,0,0,0,9.65,9.07l.15,0h0a8.59,8.59,0,0,0,2.54,14.88h0l-.29.5a8.59,8.59,0,0,0,7.58,12.89h.62l-.27,1.22A8.59,8.59,0,0,0,216.07,286l1.22-.35h0a9.61,9.61,0,0,0,14.18,8.27h0l.06.25a9.6,9.6,0,0,0,15.39,5.5l.21-.17.15.38a9.59,9.59,0,0,0,16,2.92l.28-.3.24.41a9.6,9.6,0,0,0,16.28.47l.26-.39.25.32a9.61,9.61,0,0,0,16.19-2l.17-.37,1,.92a8.92,8.92,0,0,0,14.57-4.27l.36-1.31,1,.6a8.92,8.92,0,0,0,13.6-6.9l.09-1.12.66.24a8.92,8.92,0,0,0,11.82-9.83l-.11-.67h0a8.91,8.91,0,0,0,8.64-12.9h0l1-.27a8.06,8.06,0,0,0,3.19-13.8l-.72-.64h0a8.06,8.06,0,0,0-2.27-14.13h0l.28-.44a8.06,8.06,0,0,0-6.9-12.42h-.54a8.7,8.7,0,0,0-10.76-10.72h0l0-.44a8.7,8.7,0,0,0-12.74-8.07l-.41.22-.1-.7a8.7,8.7,0,0,0-13.93-5.61l-.56.43-.26-.81a8.7,8.7,0,0,0-14.6-3.34l-.59.62,0-1.2A6,6,0,0,0,280,188.89Z"/><path class="cls-1" d="M674.38,240.7h0l.27.31a6.55,6.55,0,0,1-4.72,11h-.44l.49,1.16a6.56,6.56,0,0,1-7.79,8.88l-1.23-.34.28,1.83a6.56,6.56,0,0,1-9.51,6.83l-1.66-.86-.06,2.2a6.56,6.56,0,0,1-10.49,5.06l-1.77-1.32-.42,2.35a6.56,6.56,0,0,1-11.05,3.55l-1.72-1.68-.73,2.4a6.57,6.57,0,0,1-11.38,2.19l-1.58-2-1,2.36a6.57,6.57,0,0,1-11.54.95l-1.4-2.17-1.28,2.28a6.56,6.56,0,0,1-11.56-.23l-1.19-2.33-1.48,2.11a6.56,6.56,0,0,1-11.49-1.41l-.93-2.4-1.65,1.89a6.56,6.56,0,0,1-11.28-2.64l-.64-2.43-1.79,1.62a6.56,6.56,0,0,1-10.9-4l-.33-2.38-1.82,1.25a6.56,6.56,0,0,1-10.28-5.47l0-2.2-1.7.79a6.56,6.56,0,0,1-9.23-7.2l.36-1.82-1.25.29a6.56,6.56,0,0,1-7.42-9.19l.53-1.13-.44,0a6.55,6.55,0,0,1-4.27-11.14l.28-.29h0a6.57,6.57,0,0,1,.24-12h0l-.28-.3a6.57,6.57,0,0,1,4.72-11h.45l-.49-1.15a6.56,6.56,0,0,1,7.78-8.89l1.24.34-.28-1.83a6.56,6.56,0,0,1,9.51-6.83l1.66.87.06-2.2a6.56,6.56,0,0,1,10.49-5.07l1.77,1.33.42-2.36a6.55,6.55,0,0,1,11-3.54l1.71,1.68,0-.13a7.82,7.82,0,0,1,13.57-2.61l.09.1.08-.19a7.83,7.83,0,0,1,13.76-1.14l.11.18.13-.21a7.82,7.82,0,0,1,13.79.27l.11.22.12-.17a7.83,7.83,0,0,1,13.71,1.68l.07.19.09-.1a7.83,7.83,0,0,1,13.46,3.16l0,.12h0a7.83,7.83,0,0,1,13,4.75h0l1.82-1.25a6.56,6.56,0,0,1,10.28,5.48l0,2.2,1.69-.8a6.57,6.57,0,0,1,9.24,7.2l-.36,1.82,1.25-.29a6.56,6.56,0,0,1,7.42,9.19l-.54,1.13.44,0a6.56,6.56,0,0,1,4.28,11.15l-.29.29h0A6.56,6.56,0,0,1,674.38,240.7Z"/><path class="cls-5" d="M309.16,752.67C313.8,764,257.44,767,230.68,766.23c-72.07-2.11-137.24-17.78-133.5-28.4,2.93-8.32,21.18,9.1,96.16,15.56C286.7,761.42,305.79,744.45,309.16,752.67Z"/><path class="cls-4" d="M106.1,651.3c7.5-3,17.91.69,21,13.7,5.38,22.49,18.13,13.37,25.82,28.15,5.84,11.21-1.23,25.61-12.5,30.58-18.53,8.16-35,1.11-38.22-14.72-3.29-16.15,7.83-14.62-2.77-33.22C93.58,665.5,97.47,654.75,106.1,651.3Z"/><path class="cls-2" d="M112.84,669.77c3,15.93,13.36,52.27,37.61,65.4"/><path class="cls-2" d="M108.23,675c3.74,5.7,10.83,3.12,11-3.39"/><path class="cls-2" d="M113.72,697.16c5.11,7.51,14.85,4,14.27-5.38"/><path class="cls-4" d="M181.81,866.08s8.91-8.41,24.71-6c0,0,2.1,5.45.56,9.75C204.94,875.82,181.81,866.08,181.81,866.08Z"/><path class="cls-4" d="M204.7,894.77a11.58,11.58,0,0,0,11.68-2.31,8.2,8.2,0,0,0-5.77-2.13C206.66,890.22,204.7,894.77,204.7,894.77Z"/><path class="cls-4" d="M187.52,897.54l0,0s4.49,6,12,6.13a13.54,13.54,0,0,0-.56-6.87,50.42,50.42,0,0,1-10.56.76Z"/><path class="cls-1" d="M221.4,883l1.91-2a1.26,1.26,0,0,0-1-2.11h-1.95a8.34,8.34,0,0,1-6.56-3c-4.31-5.4-11.52-11.56-21.95-11.56a30.48,30.48,0,0,0-10,1.64,28.26,28.26,0,0,1-.81,29.88,24.19,24.19,0,0,0,10.83,2.52,32.08,32.08,0,0,0,22.24-9,8.43,8.43,0,0,1,5.79-2.23h2.43a1.26,1.26,0,0,0,1-2.1Z"/><path class="cls-7" d="M185.49,877.92a16.24,16.24,0,0,1,13.78.62s-6.31,9.08-14.93,6.27Z"/><path class="cls-7" d="M589.38,422.47c-11.3-61.24-32.46-123.65-68.3-179l-64-1.87c21,45.71,31.67,94.25,33.77,142.29l-2.34-1a196.44,196.44,0,0,1-20.63-10.81,179,179,0,0,1-23.41-16.94l14.55-57.42-2.53-.92-23.2,47.87c-.64-.64-1.28-1.27-1.91-1.93a184.51,184.51,0,0,1-15.23-18.25,205.59,205.59,0,0,1-12.89-20.26,235.4,235.4,0,0,1-18.83-44.89l-6,1.45a244.68,244.68,0,0,0,13.91,48.67,217.54,217.54,0,0,0,11.1,23.17,198,198,0,0,0,50.74,59.18,219,219,0,0,0,21.76,15c4.95,3,10,5.75,15.15,8.36-4.17,127.68-67.26,246.55-155.95,292.49l240.34,7c11.61-27.64,23.35-85.88,24.68-156.74A681,681,0,0,0,589.38,422.47Z"/><path class="cls-7" d="M257.75,614l-7.62,4.06-7.38-4.5-3.17,4.19s6.62,5.58,6.25,18.24l3.77.11,3.76.11c.37-12.66,7.31-17.84,7.31-17.84Z"/><line class="cls-2" x1="249.83" y1="624.57" x2="249.94" y2="618.98"/><path class="cls-1" d="M268.66,603.58a8.68,8.68,0,0,0,.37-2.24,8.84,8.84,0,0,0-8.58-9.09,7.74,7.74,0,0,0-1.28.06,8.83,8.83,0,0,0-17.15-.52c-.33,0-.67-.08-1-.1a8.8,8.8,0,0,0-8.89,10.72,8.83,8.83,0,1,0,10.42,13.34,8.84,8.84,0,0,0,14.7.43,8.84,8.84,0,1,0,11.42-12.6Z"/><path class="cls-5" d="M225,627.38a6.62,6.62,0,0,1,10.64-3.94c3.39,3.1,3.49,8.06,12,9,5.37.62,3.48,7.41-6.5,7.26C228.62,639.57,224,632,225,627.38Z"/><path class="cls-5" d="M274.5,628.37A6.63,6.63,0,0,0,264,624c-3.51,3-3.81,7.92-12.31,8.56-5.39.4-3.77,7.26,6.21,7.52C270.43,640.4,275.37,633.07,274.5,628.37Z"/><path class="cls-7" d="M315.73,607l-7.62,4.07-7.37-4.51-3.17,4.2s6.62,5.58,6.25,18.24l3.76.11,3.77.11c.37-12.66,7.3-17.85,7.3-17.85Z"/><line class="cls-2" x1="307.81" y1="617.52" x2="307.92" y2="611.92"/><path class="cls-1" d="M326.65,596.53a8.74,8.74,0,0,0,.36-2.24,8.85,8.85,0,0,0-8.58-9.1,9.07,9.07,0,0,0-1.28.07,8.83,8.83,0,0,0-17.15-.53,8.42,8.42,0,0,0-1-.09,8.83,8.83,0,0,0-8.89,10.71,8.83,8.83,0,1,0,10.42,13.34,8.84,8.84,0,0,0,14.7.44,8.84,8.84,0,1,0,11.43-12.6Z"/><path class="cls-5" d="M283,620.33a6.63,6.63,0,0,1,10.65-3.94c3.39,3.1,3.48,8.06,11.95,9,5.37.62,3.48,7.41-6.5,7.27C286.6,632.51,282,625,283,620.33Z"/><path class="cls-5" d="M332.48,621.31A6.63,6.63,0,0,0,322,617c-3.51,3-3.8,7.92-12.3,8.56-5.39.4-3.77,7.26,6.2,7.52C328.41,633.35,333.35,626,332.48,621.31Z"/><path class="cls-7" d="M226.82,657.07l-7.62,4.07-7.37-4.51-3.17,4.2s6.62,5.58,6.25,18.24l3.76.11,3.77.11c.37-12.66,7.31-17.84,7.31-17.84Z"/><line class="cls-2" x1="218.91" y1="667.61" x2="219.02" y2="662.02"/><path class="cls-1" d="M237.74,646.62a8.67,8.67,0,0,0,.36-2.24,8.84,8.84,0,0,0-8.57-9.1,9,9,0,0,0-1.28.07,8.83,8.83,0,0,0-17.16-.53c-.33,0-.66-.08-1-.09a8.8,8.8,0,0,0-8.88,10.72,8.83,8.83,0,1,0,10.42,13.34,8.84,8.84,0,0,0,14.7.43,8.83,8.83,0,1,0,11.42-12.6Z"/><path class="cls-5" d="M194.1,670.42a6.63,6.63,0,0,1,10.65-3.94c3.39,3.1,3.49,8.06,11.95,9,5.37.61,3.48,7.4-6.49,7.26C197.7,682.61,193.05,675.08,194.1,670.42Z"/><path class="cls-5" d="M243.58,671.41A6.63,6.63,0,0,0,233.1,667c-3.52,3-3.81,7.92-12.31,8.56-5.39.4-3.77,7.26,6.2,7.52C239.5,683.44,244.45,676.11,243.58,671.41Z"/><path class="cls-7" d="M289,653.18l-7.62,4.06-7.37-4.5-3.17,4.2s6.62,5.58,6.25,18.23l3.76.11,3.77.11c.37-12.65,7.3-17.84,7.3-17.84Z"/><line class="cls-2" x1="281.1" y1="663.71" x2="281.21" y2="658.12"/><path class="cls-1" d="M299.94,642.73a8.83,8.83,0,0,0-8.22-11.34,9.07,9.07,0,0,0-1.28.07,8.83,8.83,0,0,0-17.15-.53,8.42,8.42,0,0,0-1-.09,8.83,8.83,0,0,0-8.89,10.71,8.83,8.83,0,1,0,10.42,13.34,8.84,8.84,0,0,0,14.7.44,8.84,8.84,0,1,0,11.43-12.6Z"/><path class="cls-5" d="M256.3,666.53A6.63,6.63,0,0,1,267,662.58c3.39,3.1,3.48,8.07,11.95,9,5.37.62,3.48,7.41-6.5,7.27C259.89,678.71,255.24,671.19,256.3,666.53Z"/><path class="cls-5" d="M305.77,667.51a6.62,6.62,0,0,0-10.48-4.36c-3.51,3-3.8,7.92-12.3,8.55-5.39.41-3.77,7.27,6.2,7.52C301.7,679.55,306.64,672.21,305.77,667.51Z"/><path class="cls-3" d="M312.51,735.06c4-2,6.77-5.32,3.81-8.64l-.22-.24h0a5.19,5.19,0,0,0,.28-9.48l.23-.23a5.19,5.19,0,0,0-3.3-8.84l-.35,0,.43-.89a5.19,5.19,0,0,0-5.8-7.32l-1,.22.3-1.43a5.19,5.19,0,0,0-7.25-5.77l-1.34.62,0-1.74a5.18,5.18,0,0,0-8.08-4.4l-1.45,1A6.19,6.19,0,0,0,278.56,684h0l0-.09a6.19,6.19,0,0,0-10.62-2.6l-.07.08,0-.15A6.19,6.19,0,0,0,257,679.82l-.09.13-.09-.17a6.19,6.19,0,0,0-10.91-.32l-.09.17-.09-.14a6.19,6.19,0,0,0-10.89.79l-.06.15-.07-.08a6.19,6.19,0,0,0-10.75,2l0,.1-1.34-1.34a5.19,5.19,0,0,0-8.77,2.72l-.34,1.86-1.39-1.06a5.19,5.19,0,0,0-8.33,3.92l-.07,1.74-1.3-.69a5.18,5.18,0,0,0-7.57,5.33l.21,1.45-1-.28a5.19,5.19,0,0,0-6.22,7l.38.91h-.35a5.19,5.19,0,0,0-3.81,8.64l.21.24h0a5.19,5.19,0,0,0-.27,9.48l-.23.23c-3.15,3.14-1.32,7.5,2.47,9.82,9.14,5.6,28.25,12,63.22,13C283.26,746.39,303.65,739.54,312.51,735.06Z"/><path class="cls-7" d="M171.73,657.15c10.14-.83,18.26,8.08,18.33,25.17s9.3,14.88,9.76,28.64-12.54,21.81-25.64,21.8-28.38-6.18-27.92-22.22c.35-12.26,8.2-15.8,8.55-27.82S158.81,658.2,171.73,657.15Z"/><path class="cls-2" d="M172.48,676.17s9.14,36.6-3.39,66.67"/><path class="cls-2" d="M168.08,689.23c3.6,3.39,9.44,3.08,13.5-1.14"/><path class="cls-2" d="M163.73,710.77c4.79,5.5,14.46,7.38,23.23-.79"/><path class="cls-7" d="M181.81,866a29.92,29.92,0,0,0-14,10.36,5.64,5.64,0,0,0-.34,6.3c2.2,3.73,6.62,9.82,13.56,13.22a28.26,28.26,0,0,0,.81-29.88Z"/><circle cx="174.94" cy="878.45" r="0.78"/><path class="cls-2" d="M581.87,722.33c18.07-52.38,48.46-81.92,66.3-95.2"/><path class="cls-2" d="M659.09,634.39c-3.65,3.17-11.37,7.62-22.32,2"/><path class="cls-2" d="M609,668.43a37.51,37.51,0,0,1,.62-37"/><circle class="cls-7" cx="663.1" cy="629.16" r="6.59"/><circle class="cls-3" cx="650.35" cy="625.32" r="2.86"/><path class="cls-2" d="M627.31,645.82a29.9,29.9,0,0,1,2.12-21.12"/><circle class="cls-7" cx="630.9" cy="619.39" r="5.64"/><circle class="cls-3" cx="611.19" cy="628.04" r="3.66"/><path class="cls-2" d="M643.2,667.61s-20.8,17.68-40.88,10.81"/><circle class="cls-7" cx="649.36" cy="663.27" r="7.65"/><path class="cls-2" d="M630.43,675.53A19.93,19.93,0,0,1,633.94,659"/><circle class="cls-3" cx="634.94" cy="657.53" r="2.34"/><path class="cls-2" d="M604.67,645.91s-6.94-3.09-7.62-12.34"/><circle class="cls-7" cx="596.77" cy="630.74" r="2.83"/><path class="cls-3" d="M422.44,705.43c3.49-1.74,6-4.63,3.38-7.55l-.19-.22h0a4.55,4.55,0,0,0,.28-8.31l.2-.19a4.55,4.55,0,0,0-2.85-7.77l-.31,0,.38-.78a4.54,4.54,0,0,0-5.05-6.44l-.87.18.26-1.25a4.54,4.54,0,0,0-6.33-5.08l-1.18.53,0-1.52a4.55,4.55,0,0,0-7.07-3.9l-1.28.85a5.43,5.43,0,0,0-9-3.42h0l0-.09a5.42,5.42,0,0,0-9.3-2.31l-.06.06-.05-.13a5.42,5.42,0,0,0-9.48-1.3l-.09.12-.07-.15a5.42,5.42,0,0,0-9.56-.32l-.09.14-.07-.12a5.42,5.42,0,0,0-9.55.65l-.06.13-.06-.07a5.43,5.43,0,0,0-9.43,1.68l0,.09-1.17-1.18a4.54,4.54,0,0,0-7.69,2.35l-.31,1.63-1.22-.94a4.55,4.55,0,0,0-7.32,3.41l-.06,1.53-1.14-.62a4.55,4.55,0,0,0-6.66,4.64l.18,1.27-.86-.25a4.55,4.55,0,0,0-5.48,6.09l.33.8h-.31a4.55,4.55,0,0,0-3.37,7.56l.19.21h0a4.55,4.55,0,0,0-.28,8.31l-.2.2c-2.77,2.75-1.19,6.57,2.13,8.62,8,5,24.72,10.65,55.37,11.69C396.75,715.25,414.66,709.33,422.44,705.43Z"/><path class="cls-4" d="M570,564.58s-23.44-18.29-3.61-60.05c0,0,21.83,36.54,3.61,60.05"/><path class="cls-4" d="M570,564.58s10.08,34.06,64.82,25.23c0,0-36.84-33.33-64.82-25.23"/><path class="cls-2" d="M626.56,524.35c-104.1,49.39-124.51,170-124.51,170"/><path class="cls-4" d="M631.24,503.91s-10.51,9.82-5.47,21C625.77,524.89,635.23,519.55,631.24,503.91Z"/><path class="cls-4" d="M625.78,524.86s3.16,11.75,20.48,9.15C646.26,534,636.07,522,625.78,524.86Z"/><path class="cls-4" d="M597.43,541.25s8,18.23,42.06,13.92C639.49,555.17,615.81,533.53,597.43,541.25Z"/><path class="cls-4" d="M598.28,498.79s-14.9,29.11-.85,42.46C597.43,541.25,609.71,521,598.28,498.79Z"/><path class="cls-4" d="M526.09,530.2s-16.43,46.07,15.84,68.89C541.93,599.09,556.68,566,526.09,530.2Z"/><path class="cls-4" d="M622,618.89s-59.53,9.85-80.07-19C541.92,599.92,564.94,577.46,622,618.89Z"/><path class="cls-4" d="M491.47,561.55s-9,65.6,27.08,80.83C518.55,642.38,536.43,607.7,491.47,561.55Z"/><path class="cls-4" d="M518.55,642.38s31.07,36,103.15,11.75C621.7,654.13,549.12,614.8,518.55,642.38Z"/><rect class="cls-1" x="340.96" y="648.78" width="16.25" height="2.56" transform="translate(-310.81 980.16) rotate(-88.34)"/><rect class="cls-1" x="343.47" y="642.6" width="2.56" height="15.18" transform="translate(-69.6 41.99) rotate(-6.33)"/><rect class="cls-1" x="345.61" y="649.16" width="15.11" height="2.56" transform="matrix(0.13, -0.99, 0.99, 0.13, -337.11, 917.47)"/><path class="cls-7" d="M354.84,656.8a96.64,96.64,0,0,0,.18,18.94,73.91,73.91,0,0,0,4.43,18.39,71.47,71.47,0,0,0,9.18,16.73A81.21,81.21,0,0,0,382,725l-2.65,3.52a86.83,86.83,0,0,1-15.57-13.65A78.37,78.37,0,0,1,352,697.43a83.35,83.35,0,0,1-6.88-20,108.36,108.36,0,0,1-2.17-21.09Z"/><line class="cls-2" x1="348.46" y1="671.47" x2="342.88" y2="678.12"/><line class="cls-2" x1="352.07" y1="687.86" x2="346.49" y2="694.5"/><line class="cls-2" x1="358.65" y1="702.49" x2="355.31" y2="710.5"/><line class="cls-2" x1="352.28" y1="680.54" x2="359.68" y2="685.08"/><line class="cls-2" x1="355.84" y1="695.75" x2="364.06" y2="698.54"/><line class="cls-2" x1="364.62" y1="711.09" x2="373.01" y2="713.32"/><rect class="cls-1" x="367.87" y="644.44" width="16.25" height="2.56" transform="translate(-280.35 1002.84) rotate(-88.34)"/><rect class="cls-1" x="370.38" y="638.26" width="2.56" height="15.18" transform="translate(-68.96 44.93) rotate(-6.33)"/><rect class="cls-1" x="372.52" y="644.82" width="15.11" height="2.56" transform="translate(-309.35 940.38) rotate(-82.65)"/><path class="cls-7" d="M381.75,652.46a96.75,96.75,0,0,0,.18,18.95,74,74,0,0,0,4.43,18.39,71.4,71.4,0,0,0,9.18,16.72,81.62,81.62,0,0,0,13.35,14.1l-2.65,3.52a87.62,87.62,0,0,1-15.57-13.65,78.21,78.21,0,0,1-11.77-17.4,83.05,83.05,0,0,1-6.88-20A108.36,108.36,0,0,1,369.85,652Z"/><line class="cls-2" x1="375.37" y1="667.13" x2="369.79" y2="673.78"/><line class="cls-2" x1="378.98" y1="683.52" x2="373.4" y2="690.17"/><line class="cls-2" x1="385.56" y1="698.16" x2="382.22" y2="706.17"/><line class="cls-2" x1="379.19" y1="676.2" x2="386.59" y2="680.74"/><line class="cls-2" x1="382.75" y1="691.42" x2="390.97" y2="694.21"/><line class="cls-2" x1="391.53" y1="706.75" x2="399.92" y2="708.98"/><rect class="cls-1" x="396.34" y="641.82" width="16.25" height="2.56" transform="translate(-250.08 1028.76) rotate(-88.34)"/><rect class="cls-1" x="398.86" y="635.64" width="2.56" height="15.18" transform="translate(-68.5 48.05) rotate(-6.33)"/><rect class="cls-1" x="400.99" y="642.2" width="15.11" height="2.56" transform="matrix(0.13, -0.99, 0.99, 0.13, -281.91, 966.33)"/><path class="cls-7" d="M410.23,649.84a96.64,96.64,0,0,0,.17,18.94,74.8,74.8,0,0,0,4.43,18.39A71.14,71.14,0,0,0,424,703.9,81.15,81.15,0,0,0,437.36,718l-2.64,3.52a86.15,86.15,0,0,1-15.57-13.65,78.41,78.41,0,0,1-11.78-17.39,83.76,83.76,0,0,1-6.87-20,107.6,107.6,0,0,1-2.18-21.09Z"/><line class="cls-2" x1="403.84" y1="664.51" x2="398.26" y2="671.16"/><line class="cls-2" x1="407.45" y1="680.9" x2="401.87" y2="687.54"/><line class="cls-2" x1="414.03" y1="695.53" x2="410.7" y2="703.54"/><line class="cls-2" x1="407.67" y1="673.58" x2="415.06" y2="678.12"/><line class="cls-2" x1="411.22" y1="688.79" x2="419.44" y2="691.58"/><line class="cls-2" x1="420.01" y1="704.13" x2="428.39" y2="706.36"/><path class="cls-3" d="M369.82,726.08l1.09-.33-.66-1.2a5.62,5.62,0,0,1,7-7.92l1.28.51-.37-1.19a5.63,5.63,0,0,1,8.47-6.38l1,.69-.1-1.06a5.63,5.63,0,0,1,9.65-4.43l.73.76.15-1.09a5.63,5.63,0,0,1,10.38-2.21l.58.95.34-1a5.63,5.63,0,0,1,10.62.07l.3.87.12-.21a5.62,5.62,0,0,1,10.43,2.21l0,.23h0a5.62,5.62,0,0,1,9.65,4.57h0l.1-.06a5.63,5.63,0,0,1,8.3,6.71l0,.11.26-.09a5.62,5.62,0,0,1,6.58,8.38l-.15.23,2,.7a5.63,5.63,0,0,1-.13,10.68,135.09,135.09,0,0,1-41,6.57c-20.59,0-36.26-3.19-46.73-6.34A5.62,5.62,0,0,1,369.82,726.08Z"/><path class="cls-5" d="M492.9,744.63c29.1,0,49.31-8.83,49.31-8.83a3.93,3.93,0,0,0,.56-7.6h0l3.68-1.73a3.93,3.93,0,0,0-.78-7.39l-3.95-.92,3.39-2a3.94,3.94,0,0,0-1.51-7.29l-3.9-.5,3-2.25a3.93,3.93,0,0,0-2.36-7.07H536.6l2.4-2.41a3.94,3.94,0,0,0-3.38-6.67l-3.35.51L534,688a3.93,3.93,0,0,0-4.55-6l-2.82,1,1-2.48a3.93,3.93,0,0,0-5.73-4.85l-2.27,1.44.45-2.66a3.93,3.93,0,0,0-6.69-3.42L511.55,673l-.16-3a3.94,3.94,0,0,0-7.25-1.9l-1.63,2.57-.82-3.35a3.93,3.93,0,0,0-7.45-.58l-1.34,3.19-1.33-3.18a3.93,3.93,0,0,0-7.45.58l-.82,3.33-1.63-2.56a3.93,3.93,0,0,0-7.25,1.9l-.16,3-1.89-1.94a3.93,3.93,0,0,0-6.69,3.41l.46,2.67-2.28-1.45a3.93,3.93,0,0,0-5.73,4.86l1.05,2.48-2.81-1a3.93,3.93,0,0,0-4.55,6l1.72,2.46-3.35-.51a3.94,3.94,0,0,0-3.38,6.67l2.41,2.41H445.5a3.93,3.93,0,0,0-2.36,7.07l3,2.25-3.91.5a3.94,3.94,0,0,0-1.51,7.29l3.4,2-4,.93a3.93,3.93,0,0,0-.78,7.39L443,728.2h0a3.93,3.93,0,0,0,.56,7.6S463.6,744.63,492.9,744.63Z"/><path class="cls-3" d="M592.13,742.21c3.19-2.14,5.47-5.66,3.15-9.18l-.17-.25h0c3.35-1.83,3.56-8,.34-10.06l.19-.25c2.55-3.34,1-9.05-2.52-9.37l-.28,0,.35-1c1.56-4.15-1.14-8.76-4.53-7.74l-.79.23.25-1.52c.74-4.42-2.6-8-5.71-6.08l-1.08.66,0-1.85c.12-4.46-3.58-7.15-6.39-4.64l-1.17,1c-.44-5.24-5.12-7.57-8.13-4.05h0l0-.11c-.92-5.09-5.76-6.65-8.44-2.7l-.06.08,0-.17c-1.33-4.9-6.27-5.75-8.62-1.47l-.07.14-.07-.18c-1.71-4.68-6.68-4.85-8.7-.29l-.08.18-.07-.15c-2-4.43-7-3.92-8.69.88l-.06.16,0-.08c-2.4-4.12-7.34-2.89-8.6,2.13l0,.1L521,685.3c-2.32-3.12-6.37-1.44-7,2.92l-.29,2-1.1-1.12c-2.63-2.7-6.51-.26-6.69,4.2l-.08,1.84-1-.73c-3-2.11-6.55,1.22-6.11,5.69l.15,1.53-.77-.29c-3.32-1.25-6.32,3.17-5,7.42l.29,1h-.28c-3.55.08-5.47,5.67-3.15,9.18l.17.26h0c-3.35,1.82-3.56,8-.34,10.06l-.19.24c-2.55,3.35-1.15,8,1.85,10.42,7.22,5.9,22.39,12.63,50.27,13.57C568.66,754.35,585,747,592.13,742.21Z"/><path class="cls-3" d="M282.83,135.81h0a8,8,0,0,1,13.22-5.65l.22.18h0A9.72,9.72,0,0,1,307.7,117h0l0-.14a9.71,9.71,0,0,1,13.2-11.57l.13,0,0-.15a9.71,9.71,0,0,1,14.68-9.63l.13.08v-.17A9.71,9.71,0,0,1,351.66,88l.12.1h0a9.82,9.82,0,0,1,16.92-5.33h0l.28-1a9.37,9.37,0,0,1,16.65-3l.61.86.47-1.12a9.36,9.36,0,0,1,16.85-.93l.59,1.06h0a9.37,9.37,0,0,1,17,.86h0l.11-.16A9.19,9.19,0,0,1,437.79,82l0,.18h0a9.19,9.19,0,0,1,16.09,4.67h0l.09-.08a9.06,9.06,0,0,1,15.11,6.73v.12h0a9.06,9.06,0,0,1,14,8.87h0l.24-.11a8.91,8.91,0,0,1,12.26,10.73l-.08.25h0A8.91,8.91,0,0,1,505.92,126h0c10-6.22,21.57-.54,22.51,8.76l-.2.76.2-.76a8.51,8.51,0,0,1,15.38-2.54l.43.66.26-.77A8.51,8.51,0,0,1,560,130.79l.39.71.29-.68a8.51,8.51,0,0,1,15.6,0l.3.68.29-.53a8.52,8.52,0,0,1,15.55,1.45l.18.57.23-.34a8.51,8.51,0,0,1,15.34,3.07l.08.4.14-.15a8.51,8.51,0,0,1,14.88,4.9v.19h0a8.51,8.51,0,0,1,14.1,6.87h0c7.46-3.63,19.07,1.38,16.94,14.33h0l.85,0A12,12,0,0,1,665,180.85l-.45.68.24.12a12,12,0,0,1,1.18,21l-.19.12h0a12,12,0,0,1-8.38,19.41h0l.19.86A12,12,0,0,1,641.84,237l-.9-.31-.34,2.21a12,12,0,0,1-19.11,7.71l-1.84-1.39-1.31,3a12,12,0,0,1-20.11,3l-2.14-2.5-.45.79a19.26,19.26,0,0,1-27,6.83l-2.56-1.61-.29.68a19.25,19.25,0,0,1-28.6,8.15l-.62-.42-.34.64a19.26,19.26,0,0,1-29.19,5.77l-.56-.47-.32.49a19.25,19.25,0,0,1-29.66,3.12l-.41-.41-.21.27a19.25,19.25,0,0,1-29.95-.07l-.21-.26v0a19.25,19.25,0,0,1-29.84-4h0a19,19,0,0,1-28.54-8.62h0a20.78,20.78,0,0,1-28.62-13.18l-.53-1.84-1,1.28a19.59,19.59,0,0,1-30,.59h0a17.58,17.58,0,0,1-28,.42h0a17.41,17.41,0,0,1-27.84-1.43h0l0,0A17.11,17.11,0,0,1,244,241.54h0l-.05,0A16.4,16.4,0,0,1,218.28,234h0l-3.07,1.46a12.68,12.68,0,0,1-18.12-11.35l0-3.2H197a12.68,12.68,0,0,1-10.34-19.67h0c-7.13-3.52-8.26-14.6,1.3-18.9h0a7.57,7.57,0,0,1,6.29-12.7h0L194,169a7.56,7.56,0,0,1,10.13-9.8l.7.32h0A8.38,8.38,0,0,1,218.36,152l0,0,.08-1a8.39,8.39,0,0,1,14.6-4.87l.66.73h0A9.05,9.05,0,0,1,250,143.76h0l.09-.27a9.06,9.06,0,0,1,16.43-1.59l.14.25,1.28-4.56a8,8,0,0,1,13.67-3.19Z"/><path class="cls-2" d="M291.05,186c-10.64,4.76-5.81,12.25-1.78,10.66l1-.54-.11,1.62c-.26,3.93,2.82,6.42,5.32,4.3l1-.88c.18,4.64,4.12,6.85,6.83,3.84h0v.09c.6,4.52,4.71,6,7.14,2.66l.05-.06,0,.14c1,4.37,5.18,5.27,7.34,1.58l.08-.12.05.16c1.29,4.19,5.55,4.5,7.45.55l.07-.15.05.13c1.61,4,7.88,2.8,5.74-4"/><path class="cls-2" d="M500.06,207.41l1.46,2a5.7,5.7,0,0,0,10.06-1.53l.78-2.38,1.64,1.62a5.7,5.7,0,0,0,9.65-3.33l.29-2.27,1.61,1a5.69,5.69,0,0,0,8.74-5.39l-.19-1.88h0c7.92,2.62,10.95-3.83,7.63-8.48h0c7.15.09,8.29-6.74,3.85-10.24h0"/><path class="cls-2" d="M470.87,229.49l.27.85a4.4,4.4,0,0,0,8.27.34l.34-.83.64,1.12a4.41,4.41,0,0,0,8.15-1.32l.25-1.27"/><path class="cls-2" d="M566.05,710.68s5.75,17.13-.29,44.63c0,0,4.29-13.87-6.89-26.95"/><path class="cls-2" d="M579.09,726.5a21.66,21.66,0,0,0-10.83,11.78"/><ellipse class="cls-7" cx="564.77" cy="707.6" rx="7.67" ry="4.17" transform="translate(-243.52 299.77) rotate(-24.63)"/><ellipse class="cls-7" cx="581.5" cy="724.26" rx="7.06" ry="3.84" transform="translate(-14.74 12.09) rotate(-1.18)"/><ellipse class="cls-7" cx="558.47" cy="728.08" rx="3.86" ry="2.1" transform="translate(-252.63 299.01) rotate(-24.63)"/><path class="cls-2" d="M552.39,753.05s1.14-10.53-4.39-17"/><ellipse class="cls-7" cx="547.69" cy="735.85" rx="2.79" ry="1.52" transform="translate(-285.59 352.34) rotate(-28.63)"/><path class="cls-2" d="M554.8,739.39a20.8,20.8,0,0,0-2.41,9.22"/><ellipse class="cls-7" cx="555.14" cy="738.85" rx="0.76" ry="1.39" transform="translate(-312.12 1058.14) rotate(-73.29)"/><path class="cls-2" d="M279.79,754.56s-2.21-20.4,8.51-33"/><ellipse class="cls-7" cx="288.89" cy="721.21" rx="2.94" ry="5.4" transform="translate(-482.56 629.27) rotate(-61.37)"/><path class="cls-2" d="M275.11,728.08s4.05,6.5,4.68,17.87"/><ellipse class="cls-7" cx="274.45" cy="727.04" rx="2.7" ry="1.47" transform="translate(-197.44 109.6) rotate(-16.71)"/><rect class="cls-11" x="-818.06" y="-61.98" width="841.8" height="1190.55"/><rect class="cls-11" x="44.14" y="-61.98" width="841.8" height="1190.55"/></svg>