<svg id="圖層_1" data-name="圖層 1" xmlns="http://www.w3.org/2000/svg" viewBox="0 0 754.23 1066.7"><defs><style>.cls-1,.cls-13{fill:#0e8053;}.cls-1,.cls-11,.cls-12,.cls-13,.cls-2,.cls-3,.cls-4,.cls-5,.cls-6,.cls-8,.cls-9{stroke:#000;stroke-width:0.25px;}.cls-1,.cls-11,.cls-2,.cls-3,.cls-5,.cls-8{stroke-linejoin:round;}.cls-12,.cls-2{fill:none;}.cls-3{fill:#f2a100;}.cls-10,.cls-4{fill:#f7ddc4;}.cls-12,.cls-13,.cls-4,.cls-6,.cls-9{stroke-miterlimit:10;}.cls-5,.cls-6{fill:#e84130;}.cls-7{opacity:0;}.cls-8,.cls-9{fill:#ff947b;}.cls-11{fill:#fff;}</style></defs><title>all</title><path class="cls-1" d="M110.45,438.35s4.92,12.89,1,23.28c0,0,10.34,3.88,5.68,19.3,0,0,5.56,34.46,22.35,29.89,0,0,5.31-20.27-2.85-32.37,0,0-3.05-5.22-.17-9.48,0,0-12-6.23-9.88-16.79C126.63,452.18,118.55,451.34,110.45,438.35Z"/><path class="cls-2" d="M122.57,463.65s13,22.56,12.07,47.41"/><path class="cls-1" d="M64.87,485.09s11.58,2.48,14.06,18.39c0,0,15-3.3,20.19,15.68,0,0,7.33-1.58,12.08,4.62s8,7.24,21.6,3.49c0,0,2.76-13.88-4.36-17.59s-12.35-.43-17.45-10.37c0,0-13,4.76-23.23-13.59C87.76,485.72,77.7,489.9,64.87,485.09Z"/><path class="cls-2" d="M86.13,497.25s19,5,46.67,30"/><path class="cls-3" d="M84.62,436.28s9.17,16.35,3.24,30.31c0,0,14.86,1.84,14.71,23.52,0,0,6.58,1.22,8.42,9.2s9.91,21.1,18.4,22c7.53-7.35,1.36-21.69-3.15-27.84a23.44,23.44,0,0,1-4.17-13.55s-14.06-1-15.63-25.34C106.44,454.58,93.28,453.09,84.62,436.28Z"/><path class="cls-2" d="M96.47,459.42s26.2,31.14,32.92,61.89"/><path class="cls-4" d="M363.37,77.13s-33,10.42-60.76,68.88c-12.19,25.68-49.78,40.63-50.71,88.11s-1.76,76.84-15.7,93.41l64.73,50.87s18-65.67,20.85-76.15.71-98.69.71-98.69l8.83-58Z"/><path class="cls-5" d="M363.37,77.13c-13.89,36.85-20.56,62.43-11.19,92.7,8.27,26.69,38.55,66,53.51,92C429,302.17,432.83,324,433,404.55l-94.06,42.73-98.31-54.61s47.61-59.43,48-116.13S302.82,214,314.15,186.7C328.42,152.33,320.32,123.19,363.37,77.13Z"/><path class="cls-4" d="M316.25,220.94a130.29,130.29,0,0,0-4.56,22.87,18.11,18.11,0,0,1,7.19,8.79c-1.83-1.72-5.52-2.15-7.73-2.24-.16,2.65-.24,5.24-.25,7.75a19.5,19.5,0,0,1,8.85,8.08c-2.33-1.68-6.72-1.49-8.72-1.3.88,20.64,5.9,34.63,5.9,34.63C342.14,258.84,316.25,220.94,316.25,220.94Z"/><path class="cls-4" d="M363.49,256.36a108.25,108.25,0,0,1-8.7,17.15,14.91,14.91,0,0,0-9.1,2.06c2.05-.19,4.65,1.4,6.12,2.46-1.25,1.8-2.51,3.53-3.78,5.16a16,16,0,0,0-9.83.77c2.37.08,5.1,2.43,6.29,3.56-11.06,13-21.42,19.5-21.42,19.5C324.12,261.55,363.49,256.36,363.49,256.36Z"/><path class="cls-1" d="M341.28,245.89a96,96,0,0,1,0,16.64,15.67,15.67,0,0,0-8,4.19,30.52,30.52,0,0,1,7.42.21,60.69,60.69,0,0,1-2.24,9.54,18.86,18.86,0,0,0-9.93,1.17s5.9,1.43,8,3.8c-5.7,12.64-14.2,16.16-14.2,16.16C317.94,268.59,341.28,245.89,341.28,245.89Z"/><path class="cls-1" d="M361.79,284.71A84.9,84.9,0,0,1,351.3,295.8a15.11,15.11,0,0,0-8.14-2.4,30.07,30.07,0,0,1,5,5,53.74,53.74,0,0,1-7.57,4.9,18.5,18.5,0,0,0-7.6-5.7s3.17,4.8,3.14,7.76c-11.92,4.69-20,1.5-20,1.5C331.35,284.61,361.79,284.71,361.79,284.71Z"/><path class="cls-2" d="M379.83,109.36s-25.27,25.55-25.27,65.88"/><path class="cls-2" d="M370.46,88.06s5.66,13.49-2.71,38.12"/><path class="cls-2" d="M397.44,126.18s-25.35.66-37.81,18.19"/><path class="cls-2" d="M400.84,116.46s-21,0-38.8,21.45"/><path class="cls-2" d="M407.66,106s-22.17,1.56-41.61,23.35"/><path class="cls-5" d="M404,81.2s-6.33.41-7.6,9C396.42,90.15,403,90.14,404,81.2Z"/><path class="cls-5" d="M406.44,87.16s-9.67-2-12.44,7.08C394,94.24,401.06,96.27,406.44,87.16Z"/><path class="cls-5" d="M398.34,81.2s-9.89,6.44-8.57,16.88C389.77,98.08,398.69,97,398.34,81.2Z"/><path class="cls-5" d="M402.05,93.8s-11-2.52-16.8,9.19C385.25,103,396,106.52,402.05,93.8Z"/><path class="cls-5" d="M390.4,86.56s-9.52,7.51-7.21,19C383.19,105.53,394,103.64,390.4,86.56Z"/><path class="cls-5" d="M396.42,102.67s-15.35-3.91-16.65,6.72C379.77,109.39,389.47,113,396.42,102.67Z"/><path class="cls-5" d="M382.53,91.38s-6.69,8.52-2.76,18C379.77,109.39,390,103.8,382.53,91.38Z"/><path class="cls-5" d="M418.59,111.35s-7.32,4.44-5.29,10.94C413.3,122.29,419.55,119.65,418.59,111.35Z"/><path class="cls-5" d="M412.37,114.28s-5.24,6-1.31,15.08C411.06,129.36,418.93,122.84,412.37,114.28Z"/><path class="cls-5" d="M420.48,117.11s-12.51,4-11.83,11.11C408.65,128.22,417.79,127.75,420.48,117.11Z"/><path class="cls-5" d="M408.44,118s-9.11,8.47-4,20.54C404.4,138.51,415.69,131.6,408.44,118Z"/><path class="cls-5" d="M418.07,123.52s.21,11.17-14.53,14.36C403.54,137.88,401.5,127.29,418.07,123.52Z"/><path class="cls-5" d="M415.91,132.42S401,134,400.34,145C400.34,145,411.06,145.56,415.91,132.42Z"/><path class="cls-5" d="M402.1,124.32S393.65,135,400.66,146C400.66,146,411.08,139.64,402.1,124.32Z"/><path class="cls-2" d="M400.66,146c-6.91,25.41-27.88,46-30.17,76.18"/><path class="cls-2" d="M393.63,163.77c1-2,15.67-22.88,42.22-27.38"/><path class="cls-2" d="M388.91,172.85s4.72-9.08,23.68-11.74"/><path class="cls-2" d="M392.73,165.57c.2-.4,14.4-12.58,27.8-14.06"/><path class="cls-2" d="M340.91,150.54c-1.62,11.92,6.82,20.64,5.11,31"/><path class="cls-2" d="M337.39,140.27c-4.93,13.13.69,20.65-1.44,32.56"/><path class="cls-1" d="M427.41,229.43a10.78,10.78,0,0,0-3.89,11.24c1.69,7.47,2.74,9.89,1.79,13.78,0,0,9.67-5.15,9.36-15.67S430.15,228.06,427.41,229.43Z"/><path class="cls-1" d="M394.25,223.37s5.39-2.47,7.74,2.12-1.47,10.93,0,16.91a9.81,9.81,0,0,1-5.39-8c-.66-6.61-4.94-5.72-4.94-5.72Z"/><path class="cls-6" d="M338.14,211.9s-2.36-10.55,1.23-16.39,11.89-4.6,13.08,0c0,0,6.8.79,6,7.3S350,213,338.14,211.9Z"/><path class="cls-2" d="M345,203.59c.22-.44,1-7.52,7.46-8.08"/><path class="cls-1" d="M355.41,206.05c-3,.56-6.05,3-8.19,9.41-2.47,7.41-5.11,11.07-7.1,11.36,0,0,17-1.5,19.74-13.1C361.7,205.86,357.39,205.69,355.41,206.05Z"/><path class="cls-1" d="M333.56,176.28a9.32,9.32,0,0,0,9.23,3.2c6-1.24,12.47,4.78,12.69,8.8,0,0,5.42-12.07-2.65-16.23C345.87,168.46,343.24,175.91,333.56,176.28Z"/><path class="cls-6" d="M392.24,219.23s2.12-6-3.34-7.57-9.5.88-14.78,11.61c0,0,4.4,5.28,13.9,5.46S397.17,219.93,392.24,219.23Z"/><path class="cls-2" d="M383.09,221.69a10.81,10.81,0,0,1,9.15-2.46"/><path class="cls-4" d="M352.64,205.68s.93,9.17,11.85,19.6c8.22,7.84,8.95,27.13,6.26,43.49s-9.7,32.16-8.93,60.26c.42,15,6.53,46.1,21.67,48.3,0,0,16-17.38,16-18.31s-16-17.2-20.53-43.58c-3.32-19.44-2.23-45.85,10.93-53.72,11.21-6.7,18.16-8.07,27.79-21.29s7.85-13.12,17.49-16.09S439.9,216,439.9,216l-14.22-3.36s-11.11,22.46-21.43,30-16.81,12.55-20.06,8.07,11.18-14.69,12.71-26.4,10.49-13.28,10.49-13.28l-4.87-8.16a32.61,32.61,0,0,0-13.06,16.46c-3.44,9.46-7,20.12-10.54,19.27-5-1.19,4.57-26.53-14.21-53L360,188.24s14.1,25.48,7.92,29.1c-3.63,2.13-7.27-9-7.62-13.23-.16-1.9-1.14-6.8-4.82-5.9C351.34,199.21,352.64,205.68,352.64,205.68Z"/><path class="cls-1" d="M445.55,193.28s-1.9,2.49-8.2,4.82-10.41,4.67-11.67,13.12c0,0,8.83,3.72,14-2.17S442.39,197.8,445.55,193.28Z"/><path class="cls-1" d="M406.89,175.67a25.23,25.23,0,0,1-4.1,8.73c-3.05,4-6.41,9.14-1.47,18.5a11.42,11.42,0,0,0,7.47-12.38C408.32,185.61,406.47,178.72,406.89,175.67Z"/><path class="cls-1" d="M403.83,202.9a11.89,11.89,0,0,0,.22,14.27c5.54,7.54,4.81,10.84,4.81,10.84s1.43-8.72,3.79-14.26-1.18-12.61-1.18-12.61Z"/><path class="cls-1" d="M413.41,192.58c.39-.8,3.26-1.75,7.4,0S431,190.82,431,190.82s-1.25,7.22-6.89,9.33C417.88,202.47,409.89,199.86,413.41,192.58Z"/><path class="cls-1" d="M352.45,192.9c2.43-3.26,6.68-2.41,10.06,2.43s6.5,8.57,11.61,7.83c0,0-6.15,6.09-13.82,4.16S349.28,197.15,352.45,192.9Z"/><path class="cls-1" d="M335.54,185.92a14.5,14.5,0,0,0,9-2.21c4.22-2.81,8.64-2.75,12.54,2.21,0,0-4.12,7.61-11.07,6.21A18,18,0,0,1,335.54,185.92Z"/><path class="cls-1" d="M423.21,215.48a12.79,12.79,0,0,0-9.57,4.88c-3.93,5-4.15,8.71-8.23,10.55,0,0,12.21,3,17.8-5.42S423.21,215.48,423.21,215.48Z"/><path class="cls-1" d="M435.19,224.34c.25-1.38,4.46-5.32,12.15-2.58,8,2.82,6.91,11.13,16.52,12.1,0,0-9.68,3.28-15.61-.74C441.9,228.82,434,231,435.19,224.34Z"/><path class="cls-1" d="M431.88,210.78c.08-.36,4.81,4.17,10.22,3.53,8.47-1,13.14,1.75,16.43,10.47,0,0-8.37-3-13.53-1.33C438.66,225.52,429.33,222.28,431.88,210.78Z"/><path class="cls-1" d="M371.52,190.53c5.07-2.22,9.34,2.17,10.83,12.3,1.32,9,4,10.89,4,10.89S375,213.23,371,205.21,367.49,192.29,371.52,190.53Z"/><path class="cls-1" d="M361.92,182.42s-3.05-3.31-6.27,1.18c-2.3,3.21-2.61,10.56-7.71,12,0,0,12.62,3.85,17.68-6.53C369.14,181.82,361.92,182.42,361.92,182.42Z"/><path class="cls-6" d="M365.05,187.57s-4.54,3.8-1,8.48,14.93,4,19,1.44c0,0,2.93-10.51-6.14-15.63C369,177.43,363.73,183.62,365.05,187.57Z"/><path class="cls-2" d="M365.05,187.57s4.89-1.75,9.88,4.52"/><path class="cls-6" d="M352.38,171.79s1-4.78,6.69-4.17,10.94,8.17,10.6,15.9c0,0-8.05,3.72-14.6,1.91C347.86,183.43,346.47,174.05,352.38,171.79Z"/><path class="cls-2" d="M352.38,171.79a10.09,10.09,0,0,1,9.34,5"/><path class="cls-1" d="M384,208.68c0-.1,5.06-1.26,8.16-5.46s7.61-7.15,14-3.58c0,0,1.58,6.83-6.41,9A32.65,32.65,0,0,1,384,208.68Z"/><path class="cls-6" d="M406.89,194.75s-1.26-3.77,3.47-4.75,10.93,6.7,9.36,14.37c0,0-10.69,3.5-14.41-2.2C401.74,196.7,406.89,194.75,406.89,194.75Z"/><path class="cls-2" d="M406.89,194.75s4.1-.47,6.52,4.58"/><path class="cls-6" d="M431.88,223.77s-8.41,0-7.26,9.88c.85,7.22,7.15,10.52,17.67,10.83a20,20,0,0,0,.84-15.75C439.87,220.41,433.56,220.62,431.88,223.77Z"/><path class="cls-2" d="M438.08,233.86s.32-7.36-6.2-10.09"/><path class="cls-6" d="M429.46,207.17s6.81,2.8,3.29,10.33-13.16,5.56-13.16,5.56-4.57-9.41.12-14.91S429,205.33,429.46,207.17Z"/><path class="cls-2" d="M423,216.39a11.45,11.45,0,0,1,6.45-9.22"/><g class="cls-7"><path class="cls-1" d="M607.05,446.18a192.23,192.23,0,0,0-33.23,4.9,31.53,31.53,0,0,1-6,17.12s-.38-8.35-2.62-14.75a120.83,120.83,0,0,0-18.39,7.3,38.09,38.09,0,0,1,.61,20.18s-4.61-11.36-10-14.88c-23.53,15.14-28,33.15-28,33.15C568.64,499.5,607.05,446.18,607.05,446.18Z"/></g><g class="cls-7"><path class="cls-3" d="M549.15,416.75c2.72-9-3.54-16.51-3.54-16.51a348.58,348.58,0,0,1,27.38-24s6.94,90.35-91,126.62c0,0,4.61-30.43,35.36-70.8a23.89,23.89,0,0,1,9,10.35c3.48-9.25-2.71-18.29-2.71-18.29,5-6,10.52-12.26,16.72-18.61A34.41,34.41,0,0,1,549.15,416.75Z"/></g><g class="cls-7"><path class="cls-1" d="M521.2,361.32c-3,4.64-5.6,9.25-8,13.83,1.85,5.43,5.39,15.92,5.39,16.41s-6.52-3.65-10.31-6.08q-2.73,6.27-4.83,12.39c1.12,3.28,6.26,18.39,6.26,19s-6.32-3.53-10.13-6c-13,51.44,4,91.16,4,91.16C551,449.72,522,360.06,521.2,361.32Z"/></g><path class="cls-1" d="M208.32,211.68a253.23,253.23,0,0,1,7.16,32.18,21.58,21.58,0,0,0-9.83,10.48,34.37,34.37,0,0,1,10.93-1.82,154,154,0,0,1,.83,19.13,21.56,21.56,0,0,0-14,5.25s9.23,1,13.34,4.94c-2.91,26.15-13.81,35.52-13.81,35.52C184,262.6,208.32,211.68,208.32,211.68Z"/><path class="cls-1" d="M174.1,234.89a231.9,231.9,0,0,0,.57,30.42,19.88,19.88,0,0,1,11.09,7.26,31.7,31.7,0,0,0-10.19.74A140.93,140.93,0,0,0,179,290.65a19.94,19.94,0,0,1,13.71,1.67s-8.06,2.89-10.89,7.33c8.3,22.82,20.11,28.85,20.11,28.85C207,275.26,174.1,234.89,174.1,234.89Z"/><path class="cls-4" d="M152,475.68s.29-39.85,7.35-65.22-3.9-31.22,10.08-64.65,23.16-37.22,39-69c20.29-40.73,9.64-95.77,56-137L255,198.17l24.75,85.37L245.07,429l-46.5,64.89Z"/><path class="cls-5" d="M89,672.48s-2.46,27,11.56,59.38c9.65,22.26,18.92,43.15,22.33,71.47s23.88,48.08,49.05,49.91S204.45,873.34,221,893s29.29,51.62,60.6,59.27,28.64,27.89,65.2,35.69,71.83-13.81,95.59-36.85,34-51,63.83-66,60.86-34.43,79.65-67.78,17.27-39.12,31.33-54.89c11-12.29,23.16-23.51,39.82-55,8.1-15.32,16-38.77,16.84-74L511.42,585,236.51,610.79Z"/><path class="cls-4" d="M148.4,606.31s-47.48,4.47-58,43.69,21.94,79.65,86.66,95,102.13,58.93,182.43,58.84c73.54-.07,81.73-36.79,147.3-51.9s147.6-55.72,164.8-107.17S625.84,560,560.33,560.05c-57.09,0-233.58-22-233.58-22Z"/><path class="cls-5" d="M264.41,139.83s-6.49,51.81,19.24,85.34c64.45,84,54.39,111,72.69,146.14S388.73,419,388.73,419L347,471.65s-86.5,4.82-88.56,4.8S192,447.8,192,447.8a134.7,134.7,0,0,1,.33-44.66c4.3-24.7,16.72-27.36,18.6-52.08s6.82-42.55,16.55-58.28,24.33-39,23.85-67.84S248.65,160.21,264.41,139.83Z"/><path class="cls-4" d="M440.32,260s-10.42,39.12-27.81,56.26-40.33,24.1-56.25,45.76-18.71,44.15-29.3,55-30.53,18.54-36.67,36.89-25.21,65.86-35,85,91.65,57,94.4,57,41.35-17.57,41.35-17.57l13.77-98.83,26.87-105.62s10-50.77,12.11-58.31S440.32,260,440.32,260Z"/><path class="cls-5" d="M440.31,260s14.45,30.25,19.9,65.33,3.63,61.13,36,90.7,42.75,59.78,44.2,84.24,29.12,59.54,68.48,66c0,0-16.14,20.73-56.07,20.44s-51.62-13.23-79.7-3.43C440,594.81,437.73,616,437.73,616l-92.94-37.34s24.89-16.93,30.06-55.19-.63-52.52,16-106.62C402,380.67,435.65,341.42,440.31,260Z"/><path class="cls-5" d="M127.32,334.76s3.75,14.32,13.4,15.24C140.72,350,138.63,338.71,127.32,334.76Z"/><path class="cls-5" d="M128.36,345.94s7.15,10.3,19.35,8.26C147.71,354.2,144.42,342.66,128.36,345.94Z"/><path class="cls-5" d="M136.27,335.79s-3.66,12.65,7.52,18.86C143.79,354.65,146.9,341.9,136.27,335.79Z"/><path class="cls-5" d="M132.12,354s10,12.58,25.13,7.77C157.25,361.75,149.6,349.24,132.12,354Z"/><path class="cls-5" d="M143.4,338.44s-5.7,17.81,8,24.36C151.37,362.8,156.89,349,143.4,338.44Z"/><path class="cls-5" d="M152.94,346s-7.77,14.53,5.53,22.63C158.47,368.6,164.36,355.32,152.94,346Z"/><path class="cls-5" d="M133.54,360.83s8.12,12.43,26.13,7C159.67,367.87,150.58,354.65,133.54,360.83Z"/><path class="cls-2" d="M159.67,367.87s20.86,20.54,30.17,75.57"/><path class="cls-2" d="M191.1,372.36s-9.95,14.85-8.19,41.39"/><path class="cls-2" d="M146.89,392.58s23.34-1.88,33,12.06"/><path class="cls-2" d="M135.23,378.49c.78.05,27.45-.76,42.6,20.78"/><path class="cls-2" d="M117.16,364.66s35.84-.27,56.53,25.17"/><path class="cls-5" d="M151.65,276.54s-.24,11.87,7.45,14.66C159.1,291.2,161.75,282.12,151.65,276.54Z"/><path class="cls-5" d="M149.9,285.3s4.62,15.7,16.7,16.26C166.6,301.56,164.79,287.64,149.9,285.3Z"/><path class="cls-5" d="M159.81,279.77A22.34,22.34,0,0,0,164.26,303S169.67,290.23,159.81,279.77Z"/><path class="cls-5" d="M152,295.5s2.67,18.43,18.4,18.19C170.43,313.69,170.59,297.72,152,295.5Z"/><path class="cls-5" d="M165.61,285.05s-7.9,17.83,3.22,28.6C168.83,313.65,178.41,301.21,165.61,285.05Z"/><path class="cls-2" d="M172.75,318s22.56,36.5,35.24,118.18"/><path class="cls-2" d="M168.93,340.23a25.87,25.87,0,0,1,19,12.57"/><path class="cls-2" d="M155.88,330.55s20,0,29.55,15.4"/><path class="cls-2" d="M146.91,318.33s26.88,4.41,35.25,19.31"/><path class="cls-2" d="M204,324.06s-11,14-11.53,42.7"/><path class="cls-5" d="M153.13,307s6.81,14.87,19.62,11C172.75,318,169,304.47,153.13,307Z"/><path class="cls-5" d="M172.53,295.5S162,309.26,172.75,318C172.75,318,181.85,310.41,172.53,295.5Z"/><path class="cls-1" d="M367.76,438.06C371.23,430.17,378,430,378,430c.45-11.13.53-23.12.11-36,0,0-50.22,53.38-24.77,150,0,0,13.77-23.17,20.89-72.28a11.82,11.82,0,0,0-9.47,0,15.08,15.08,0,0,1,10.76-9.83q1.35-11.45,2.12-24.54A16.69,16.69,0,0,0,367.76,438.06Z"/><path class="cls-1" d="M420.22,427.58a251.3,251.3,0,0,1-11.09,31,21.66,21.66,0,0,0-13.9,3.63,34.32,34.32,0,0,1,10.21,4.29A152.63,152.63,0,0,1,396,483.17a21.53,21.53,0,0,0-14.65-3s7.28,5.76,8.65,11.29c-16.4,20.58-30.62,22.69-30.62,22.69C372.49,457.69,420.22,427.58,420.22,427.58Z"/><path class="cls-3" d="M328.74,421.22a212.16,212.16,0,0,0,.53,27.83,18.23,18.23,0,0,1,10.15,6.65,29,29,0,0,0-9.33.68,127.22,127.22,0,0,0,3.13,15.86,18.24,18.24,0,0,1,12.53,1.52s-7.37,2.65-10,6.71c7.6,20.89,18.4,26.4,18.4,26.4C358.85,458.16,328.74,421.22,328.74,421.22Z"/><path class="cls-4" d="M289.33,406.64a10.27,10.27,0,0,0-7.93-5.86c.12-7.37.59-15.27,1.5-23.72,0,0,38.45,37.92,13.5,100.2,0,0-10.17-16-13.78-48.77a11.64,11.64,0,0,1,7.69.52c-2.25-5.85-8.31-7.07-8.31-7.07-.39-5.08-.62-10.51-.64-16.29A16.74,16.74,0,0,1,289.33,406.64Z"/><path class="cls-3" d="M370.54,367.44s-17.79,11-7,32.92C363.59,400.36,382.59,386.06,370.54,367.44Z"/><path class="cls-8" d="M321.35,338.37c.76,3.28-2.32,6.41-5.73,7.44s-4.24,8-9.8,8.49c-4.08.39-8-2.83-9.77-8.44-1.17-3.8.47-11.31,4.81-11.78,3.43-.36,4.35,2.81,10.61,1C317.1,333.47,320.72,335.65,321.35,338.37Z"/><path class="cls-8" d="M302.38,340.65c-.13.27-2,4.29,1.37,6.17"/><path class="cls-8" d="M302.18,347.4s-1.48-1-2.75,1"/><path class="cls-8" d="M300,341.51a1.16,1.16,0,0,1-1.57.58"/><path class="cls-8" d="M298.08,342.89a1.91,1.91,0,0,1,.2,2.38"/><path class="cls-9" d="M315.43,347.05c3.47,1.65,2.87,5,1.49,8.56-1.3,3.36,1.73,7.37-2.71,10.5-3.89,2.74-10.1.5-13.68-3.57-3-3.38-1.1-8.7,2.31-10.36,2.45-1.19,4.62-.09,7.2-3.44C311.75,346.52,313.54,346.15,315.43,347.05Z"/><path class="cls-9" d="M305.07,358.49a1.69,1.69,0,0,1-1.14,2.4"/><path class="cls-9" d="M307,360s.29,1.44,2.27,1.41"/><path class="cls-9" d="M304.62,362.2s1.85.22,2.15,1.67"/><path class="cls-9" d="M308.09,363.85s.24-1.2,1.17-1.08"/><path class="cls-3" d="M321.35,369.77s4.71,15.22,15.95,11.37C337.3,381.14,337.24,369.2,321.35,369.77Z"/><path class="cls-3" d="M341,384.06s-7.9-8.29-18.6-1.18C322.44,382.88,332.67,395.06,341,384.06Z"/><path class="cls-3" d="M340.77,384.63s-12.18-3.7-17.55,9.07C323.22,393.7,335.73,400.35,340.77,384.63Z"/><path class="cls-3" d="M319,369.57s8.81-14.8,23.62-5.66C342.61,363.91,337.25,379.47,319,369.57Z"/><path class="cls-9" d="M333.8,366.58c3.24-3.47,7-.69,10.46.26,3.64,1,10.74,1.36,11.38,5.76.61,4.23-2.24,7.46-6,6.34-3.08-.92-4.79.39-5.23,3.42a4.71,4.71,0,0,1-6.42,3.83c-2.83-1-4.36-3.75-4.15-7.49S329.75,370.91,333.8,366.58Z"/><path class="cls-9" d="M335.37,371.09a2.67,2.67,0,0,0,2.82-1"/><path class="cls-9" d="M337.08,378.84A2,2,0,0,1,339.2,377"/><path class="cls-9" d="M339.18,372.92s-.47,1.55.82,2"/><path class="cls-9" d="M335.57,373.8a1.48,1.48,0,0,1,.59,1.69"/><path class="cls-3" d="M296.92,389.55s-8.87,4.84-3.48,14C293.44,403.57,301.54,398,296.92,389.55Z"/><path class="cls-3" d="M266.55,374.4s14.11-5.48,22.09,7C288.64,381.43,276.45,391,266.55,374.4Z"/><path class="cls-9" d="M279.38,377.76c2.52-4.39,6.62-1.45,11.16-.61,4.72.87,6.21-2,8.91,0,3.41,2.45-1.13,6.43-1.82,9.34-1,4.14-3,10-7.93,9.06-4.54-.84-3.92-3.51-6.41-8S277.45,381.13,279.38,377.76Z"/><path class="cls-9" d="M287,381.74a2.35,2.35,0,0,1-3.16,1.79"/><path class="cls-9" d="M288.55,384.1s-.62,2.67,1.66,3.43"/><path class="cls-9" d="M285,386s1.88.9,2.18,2.35"/><path class="cls-9" d="M288.11,389.16a2,2,0,0,1,2.52-.45"/><path class="cls-3" d="M272.4,370.58s3.77-12.27,16.07-11.91C288.47,358.67,283.37,373.46,272.4,370.58Z"/><path class="cls-3" d="M278.28,376.85c-.44,0,3.54-16.83,18.05-17.74C296.33,359.11,295.28,375.53,278.28,376.85Z"/><path class="cls-9" d="M282.27,337.8c3.34-.7,6.44,2.49,7.4,5.95s8,4.47,8.36,10.09c.3,4.14-3,8.07-8.74,9.69-3.87,1.1-11.43-.72-11.8-5.12-.3-3.47,2.93-4.34,1.25-10.7C277.23,342,279.51,338.37,282.27,337.8Z"/><path class="cls-9" d="M284.16,357c.27.14,4.29,2.11,6.27-1.25"/><path class="cls-9" d="M291,357.37s-1.06,1.48.95,2.8"/><path class="cls-9" d="M285,359.42a1.18,1.18,0,0,1,.55,1.6"/><path class="cls-9" d="M286.33,361.42a1.93,1.93,0,0,1,2.41-.15"/><path class="cls-3" d="M337.31,357s-5.2-18.57-18.14-12.68C319.17,344.33,318.06,356.24,337.31,357Z"/><path class="cls-3" d="M276.22,342.43s-5.69-14.08-23.67-9.76C252.55,332.67,261.27,348.9,276.22,342.43Z"/><path class="cls-3" d="M248.7,346.75s8.91-12.13,25-2C273.71,344.71,265,360.08,248.7,346.75Z"/><path class="cls-3" d="M267.75,346.26s-14.33,4.48-7,19.11C260.75,365.37,274.53,359.1,267.75,346.26Z"/><path class="cls-1" d="M373.72,375.05s-6.49,6.32-13,6-6.28-4.38-4.41-9.76,5.28-17.7.26-22.52-7.36-2.11-6.57,2.1c0,0,5.15,11.86-12.2,38.09-9.53,14.4-16.6,24-21.83,30.74-2.63-8.88-4.93-19.51-1.95-30.56,4.26-15.78,10.23-31,8-45.32-.29-1.86-1.13-7.16-3.93-6.4s-2.15,5.25-3.88,10.35-.57,11.83-.92,17.33c-.32,5.07-.24,11.7-4.49,11.27-4.66-.47-4.23-7.23-7.46-17.65-3.3-10.65-12.45-25.09-16.49-23.18-1.45.68-2.34,2.72-.46,5.36,4.36,6.1,10.25,20.05,11,36.23a156.19,156.19,0,0,0,10.35,49.68c3.1,7.91,6.67,18.72,6.83,28.66.22,12.6-1.19,32.52-.65,33.3,1.82,2.62,4.64,2.42,6.26,0,.8-1.21,5.68-21,5.05-36.94-.4-10.12-2.51-19.13-3.54-21.6a194.49,194.49,0,0,0,20.59-24.43c5-7,8.87-14.25,16.43-16.23s12.86-4.33,18.49-11Z"/><path class="cls-3" d="M372.24,367.83s-10.54,18.1,8,27.87C380.27,395.7,385.37,377.29,372.24,367.83Z"/><path class="cls-3" d="M367.5,362.86c2.12-14,20.15-13.06,20.15-13.06S381.09,367.23,367.5,362.86Z"/><path class="cls-3" d="M395.06,371.2s-17.61,9.46-25.7-5.67C369.36,365.53,378.42,354.91,395.06,371.2Z"/><path class="cls-3" d="M373,333.76s-16.51,5.79-15.24,19.78C357.74,353.54,369.85,353.52,373,333.76Z"/><path class="cls-3" d="M349,330.37s-9.47,17.77,10.46,25.22C359.46,355.59,364,339.1,349,330.37Z"/><path class="cls-3" d="M276.94,308.63s-10.62,17.94,6.21,27.14C283.15,335.77,294.08,321.66,276.94,308.63Z"/><path class="cls-3" d="M298.22,317.36s-19.61,4.6-14.67,19.84C283.55,337.2,297.66,339,298.22,317.36Z"/><path class="cls-9" d="M360.48,350.37c3.08-.68,6,2.23,6.91,5.42s7.4,4,7.84,9.24c.32,3.83-2.72,7.5-8,9.06-3.56,1.06-10.57-.55-11-4.61-.31-3.2,2.66-4,1-9.9C355.86,354.29,357.94,350.93,360.48,350.37Z"/><path class="cls-9" d="M362.44,368.13c.25.12,4,1.9,5.78-1.23"/><path class="cls-9" d="M368.75,368.37s-1,1.38.91,2.58"/><path class="cls-9" d="M363.22,370.34a1.08,1.08,0,0,1,.53,1.47"/><path class="cls-9" d="M364.5,372.17a1.78,1.78,0,0,1,2.22-.17"/><path class="cls-9" d="M354.23,348.17c2.38,2.69-1,5.19-2.34,8.15s-1.12,11.58-8.48,11.41-4.72-8.76-7.89-10.29-4.22-7.12-.09-9.82c3.21-2.1,6.07,1.57,10.63.14S352,345.69,354.23,348.17Z"/><path class="cls-9" d="M340.94,352.38s.35,1.86-1.37,2"/><path class="cls-9" d="M342.47,354.41a2.63,2.63,0,0,0,1.45,2.62"/><path class="cls-9" d="M344,359.33a2.19,2.19,0,0,0-2.17.79"/><path class="cls-9" d="M338.65,356.66a2.6,2.6,0,0,1,1.38,2.25"/><path class="cls-3" d="M286.7,338.79s6.3-7.54,19.81-.77C306.51,338,296,347,286.7,338.79Z"/><path class="cls-9" d="M269.68,323.82c4.66-2.55,7.71,1.72,11,3.92,3.51,2.34,9.8,3,9,8.24-.91,5.69-5.62,6.25-8.72,4.44s-5.95-1.81-7.48,1.25-4.83,4.55-7.67,2.79c-2.3-1.42-1.81-3.84-.28-7.74S263.87,327,269.68,323.82Z"/><path class="cls-9" d="M269.79,329.16a3,3,0,0,0,3.33-.07"/><path class="cls-9" d="M268.89,338a2.26,2.26,0,0,1,2.91-1.26"/><path class="cls-9" d="M273.19,332.43s-1,1.49.18,2.4"/><path class="cls-9" d="M269,332.11a1.65,1.65,0,0,1,0,2"/><path class="cls-9" d="M274.7,339.57c5.74-4.71,11.1,1,9.71,5.57s-3.37,7.43-2.53,11a5.13,5.13,0,0,1-6.67,6c-9.27-2.51-15.53-9-12.83-14.35C264.9,342.83,266.38,346.39,274.7,339.57Z"/><path class="cls-9" d="M269.17,351.2a3.61,3.61,0,0,1-1.36,2.84"/><path class="cls-9" d="M271.11,352.44a2.12,2.12,0,0,0,2.22,2"/><path class="cls-9" d="M268.23,355.83s1.79-.42,2.33,1.1"/><path class="cls-9" d="M272.23,357.41s.36-1.41,1.64-1.44"/><path class="cls-3" d="M312.67,336.77s3.77,12.59,17.71,6C330.38,342.76,325.1,331.89,312.67,336.77Z"/><path class="cls-3" d="M325.22,331.81s-4.84,10.66-20,3.89C305.2,335.7,313.29,322.94,325.22,331.81Z"/><path class="cls-3" d="M331.79,314.17s-16.55,9.89-7.47,20.83C324.32,335,336.1,332.94,331.79,314.17Z"/><path class="cls-9" d="M322,329.7c2.6-3.79,5.69,1.59,9.55.22a9,9,0,0,1,11.67,5.55c2.71,7.62-5.06,16.93-12.12,12.88C324.26,344.45,318.69,334.47,322,329.7Z"/><path class="cls-9" d="M337.43,337.06a2.38,2.38,0,0,0,3.53,1.68"/><path class="cls-9" d="M334.51,339a2.84,2.84,0,0,1-1.42,3"/><path class="cls-9" d="M334.33,343.58a1.47,1.47,0,0,1,1.77,1.17"/><path class="cls-9" d="M339.38,340.65s-2,1.39-1.55,3.26"/><path class="cls-4" d="M105.27,642.62s14.64-20.72,15.87-84.54c1.13-58,29.7-91.2,43.88-109.06,24-30.22,42-25.46,71.79-102.72l29.11,49.13s-3.22,125-.93,128.11-20,94-20,94l-5.53,66.11S222,675.27,208.6,676s-21.06-7.87-35.74-6.43-27.26-9.73-46.21-13.46C114.4,653.64,105.27,642.62,105.27,642.62Z"/><path class="cls-5" d="M239.49,683.67c7.84-31.36-64.18-65.79-9.67-171.23,46.7-90.32,7-166.14,7-166.14s29.05,28.34,38.81,58.76,14.51,37.25,30.41,48.15,21.44,17.73,33.74,28.6,35,16.63,60.74,40.38,39.16,72.85,75.35,84.69c0,0-23.17,2.15-33.31,16.74S414.13,648.88,394.3,648s-10.67,11.5-55.45,15S298.78,690.61,239.49,683.67Z"/><path class="cls-2" d="M271.13,429.29S269.2,446,286.5,460.72c15.61,13.33,19.2,19.2,22.69,29.68"/><path class="cls-2" d="M267.29,452s-.57,6.41,3.84,10.82c5.59,5.6,5.59,10.13,5.59,10.13"/><path class="cls-2" d="M302.21,462.46s7.33,4.41,8.38,8.84"/><path class="cls-2" d="M315.13,476.08a37.79,37.79,0,0,0,11.52,8.38C334,488,339.92,496,339.92,496"/><path class="cls-2" d="M276.89,240a19.72,19.72,0,0,1,2.2,2.64c6.14,8.83.19,16.89,10,23.48,11.19,7.53,12.67,14.34,12.67,14.34"/><path class="cls-2" d="M267.82,220.94a24.66,24.66,0,0,0,4.84,12.59"/><path class="cls-2" d="M261.21,207.41a25.59,25.59,0,0,0,0,15.4c2.69,7.93,5.45,14.83,3.17,25.32a30.27,30.27,0,0,0,1.54,18.28"/><path class="cls-2" d="M271.45,254.78s-.64,8.34,4.27,13.63,4.07,15.13,4.07,15.13"/><path class="cls-1" d="M519.67,527.64s-2.14-9.44,2-12.41c3.77,2.9,2.14,12.41,2.14,12.41Z"/><path class="cls-1" d="M525.76,530.61c1-4.7,3.54-7.21,1.11-8.55-2.17-1.2-5,3.54-5.21,4.17-.21-.63-3-5.37-5.22-4.17-2.43,1.34.08,3.85,1.11,8.55,1.18,5.33,5.5,33.16,2.58,38.79h3C520.23,563.77,524.58,535.94,525.76,530.61Z"/><path class="cls-1" d="M525.54,537.08c1.08-4.86,4-7.46,1.52-8.85-2.25-1.24-5.19,3.67-5.4,4.32-.22-.65-3.15-5.56-5.4-4.32-2.52,1.39.44,4,1.51,8.85,1.22,5.53.66,69.47.66,69.47h6.46S524.32,542.61,525.54,537.08Z"/><path class="cls-1" d="M542.45,520.22s-2.14-9.44,2-12.41c3.77,2.9,2.14,12.41,2.14,12.41Z"/><path class="cls-1" d="M548.54,523.19c1-4.7,3.54-7.21,1.11-8.55-2.17-1.2-5,3.54-5.21,4.17-.21-.63-3-5.37-5.21-4.17-2.43,1.34.07,3.85,1.11,8.55,1.17,5.33,5.5,33.16,2.58,38.79h3C543,556.35,547.37,528.52,548.54,523.19Z"/><path class="cls-1" d="M548.33,529.66c1.07-4.86,4-7.46,1.51-8.85-2.25-1.24-5.18,3.67-5.4,4.32-.22-.65-3.15-5.56-5.4-4.32-2.51,1.39.44,4,1.51,8.85,1.22,5.53.66,73.68.66,73.68h6.46S547.11,535.19,548.33,529.66Z"/><path class="cls-1" d="M565.24,527.64s-2.14-9.44,2-12.41c3.77,2.9,2.14,12.41,2.14,12.41Z"/><path class="cls-1" d="M571.33,530.61c1-4.7,3.54-7.21,1.11-8.55-2.17-1.2-5,3.54-5.21,4.17-.21-.63-3.05-5.37-5.22-4.17-2.43,1.34.08,3.85,1.11,8.55,1.18,5.33,5.5,33.16,2.58,38.79h3C565.8,563.77,570.15,535.94,571.33,530.61Z"/><path class="cls-1" d="M571.11,537.08c1.08-4.86,4-7.46,1.51-8.85-2.25-1.24-5.18,3.67-5.39,4.32-.22-.65-3.15-5.56-5.4-4.32-2.52,1.39.44,4,1.51,8.85,1.22,5.53.66,69.47.66,69.47h6.45S569.89,542.61,571.11,537.08Z"/><path class="cls-1" d="M588,520.22s-2.14-9.44,2-12.41c3.78,2.9,2.15,12.41,2.15,12.41Z"/><path class="cls-1" d="M594.11,523.19c1-4.7,3.54-7.21,1.11-8.55-2.17-1.2-5,3.54-5.21,4.17-.21-.63-3-5.37-5.21-4.17-2.43,1.34.07,3.85,1.11,8.55,1.17,5.33,5.5,33.16,2.58,38.79h3C588.58,556.35,592.94,528.52,594.11,523.19Z"/><path class="cls-1" d="M593.9,529.66c1.07-4.86,4-7.46,1.51-8.85-2.25-1.24-5.18,3.67-5.4,4.32-.22-.65-3.15-5.56-5.4-4.32-2.51,1.39.44,4,1.51,8.85,1.22,5.53.66,73.68.66,73.68h6.46S592.68,535.19,593.9,529.66Z"/><path class="cls-10" d="M605.27,601.8h0a13.86,13.86,0,0,1-15.07,0h0a13.84,13.84,0,0,0-15.08,0h0a13.88,13.88,0,0,1-15.08,0h0a13.84,13.84,0,0,0-15.08,0h0a13.88,13.88,0,0,1-15.08,0h0a13.84,13.84,0,0,0-15.08,0h0a14,14,0,0,1-5.58,2.09l.43,7.38L605.27,610"/><path class="cls-2" d="M605.27,601.82h0a13.86,13.86,0,0,1-15.07,0h0a13.88,13.88,0,0,0-15.08,0h0a13.88,13.88,0,0,1-15.08,0h0a13.84,13.84,0,0,0-15.08,0h0a13.88,13.88,0,0,1-15.08,0h0a13.86,13.86,0,0,0-15.08,0h0a14,14,0,0,1-5.58,2.09"/><path class="cls-3" d="M514.68,582.87c2.52,5.49,2.66,14.2,2.66,14.2l-8.46-7.37c-4.06,5-7.93,10.41-11.41,15.76,7.89,9.52,7.23,23.43,7.23,23.43l-13.2-13.63c-8.55,15.15-9.8,30.09-4.33,31.75,6.53,2,21.94-2.14,32.82-26.3,12-26.62,17.59-56.5,17.59-56.5C530.45,567.33,522.4,574.28,514.68,582.87Z"/><path class="cls-4" d="M387.88,568c4.61,1,9,5.47,9,5.47l-10,2.22a156.52,156.52,0,0,0-.71,16.32,21.68,21.68,0,0,1,17,7l-16.62,2.34c1.12,14,7.6,22.62,12.51,19.58,5.86-3.63,15.32-16.77,11.47-37.08C406.37,561.45,395.73,542,395.73,542,392,548.66,389.38,558,387.88,568Z"/><path class="cls-1" d="M496.79,528.94c-4.53,5.78-9.18,13.71-13.54,22.71a55.46,55.46,0,0,1,10.52,14.05,113.2,113.2,0,0,0-14.6-5.13c-2.48,5.75-4.8,11.76-6.89,17.81,5.12,2.79,16.29,9.86,21.49,20.7,0,0-14.7-4.34-26.67-3.72-6.54,24.8-1.73,47,9.34,49.12,16,3.08,23.75-12.48,28.28-42.25S496.79,528.94,496.79,528.94Z"/><path class="cls-1" d="M360.78,602.53c6-.72,14.33,1.81,14.33,1.81l-9.61,5.81c3.56,5.41,7.48,10.74,11.5,15.69,11.49-4.6,24.53.29,24.53.29l-17,8.38c11.8,12.78,25.64,18.55,28.9,13.86,3.89-5.61,4.68-21.54-15-39.31-21.67-19.57-48.4-34-48.4-34C350.82,582.76,355,592.55,360.78,602.53Z"/><path class="cls-11" d="M421,649.39v5.12s-4.43,2.63-3.66,4.24c1.34,2.82,12.94-4.71,12.94-4.71v-6.58Z"/><path class="cls-11" d="M457.84,652.26v5.34s-5.13,4.21-3.47,5.74,14.47-6.72,14.47-6.72v-5.87Z"/><path class="cls-4" d="M403.48,623.75s2.23,14,11.56,22.38c9.65,8.64,21,6.21,23.68,0a19.38,19.38,0,0,0,.88-12.23Z"/><path class="cls-4" d="M485.59,632.19s-2.79,17.13-17.54,20.18c-16.11,3.32-25.28-5.26-30.91-14.93l13.16-11.05h32.39Z"/><path class="cls-4" d="M433.71,489a84.11,84.11,0,0,0-10.31,19.29C419,519.83,415,535.43,415,535.43s32.5,18.37,46.52-2.15c0,0,3.17-21-15.29-45.43Z"/><path class="cls-6" d="M421.17,523.58s9.6-4.63,14.89-21.55l-3.42,42.21-7.42-6.72L414.5,526.79Z"/><path class="cls-6" d="M433.17,541.41a40.2,40.2,0,0,1-15.66-4.71s-8.12,25.15-13.81,43c-3.38,10.62-10.75,40.33,6.46,49.85,5.23,2.89,13.84,5.56,23.55,7.34h0C427.83,627.08,432.48,552.1,433.17,541.41Z"/><path class="cls-6" d="M461.56,533.28a41.4,41.4,0,0,1-22.35,8.25c-1.82,40.33-3,80.88,1.28,95.79a1.48,1.48,0,0,1,0,.6c20.77,2.73,43.95,1,49.58-11.23C499.08,607.22,467.74,556.12,461.56,533.28Z"/><path class="cls-6" d="M439.21,541.53l.12-2.68-6.07,1.27s0,.46-.09,1.29A40,40,0,0,0,439.21,541.53Z"/><path class="cls-4" d="M440.49,637.32c-4.33-14.91-3.1-55.46-1.28-95.79a40,40,0,0,1-6-.12c-.69,10.69-5.34,85.67.54,95.44h0c2.22.4,4.49.76,6.8,1.06A1.48,1.48,0,0,0,440.49,637.32Z"/><path class="cls-6" d="M439.33,536.39,441.2,502s4.07,18.9,12,22.1L452,531l-11.5,8.79Z"/><path class="cls-11" d="M449.16,430.38s0,9.18-12.14,25.25c-6.48,8.6-12.34,18.54-8.27,27.87,3.48,8,15.36,10.64,21.94-.88,6.46-11.3-1.32-24.14,3.07-36.65l-5,8.12S450.91,441.35,449.16,430.38Z"/><ellipse cx="435.06" cy="478.36" rx="0.87" ry="2.25"/><ellipse cx="440.49" cy="478.36" rx="0.87" ry="2.25"/><path class="cls-3" d="M423.4,508.31s-5.48,3.81-9.59,15.76c-4.35,12.63-.87,26.81,15.49,29.48,16.18,2.64,20.37-13.52,14.5-13.72-5.36-.18-14.11.76-19.64-6.55C417.91,525,423.4,508.31,423.4,508.31Z"/><circle class="cls-11" cx="428.4" cy="544.88" r="4.24"/><path class="cls-3" d="M459.65,511.93c3,1.08,5.17,20.34-2.52,31.37s-23.19,13.12-26.88,6.5c-3.31-5.94.63-12,7.88-13.28,8.81-1.49,12.83-4,15.4-14.26C454.66,517.74,455.31,510.35,459.65,511.93Z"/><path class="cls-1" d="M328.65,599.26c.52-6.87-3.59-4.55-3.63-10.9,0,0,.37-3.61-7.08-3.4a28.66,28.66,0,0,1,6.28-10.44c4.76-5.12-7.54-2-7.54-2s3.64-11.65,9.79-13.3,8-2.25,13.6,1.91,3.28,11.5,5.74,15.48a57.64,57.64,0,0,1,3.74,6.93s-6.06-3.58-7.36-1.14c-.83,1.57,2.72,2.77,1,6.33-1.54,3.21.92,3.78-1.84,7.5,0,0-4.36.17-6.87-5.86C333.34,593.85,332.4,597.64,328.65,599.26Z"/><path class="cls-2" d="M332.73,584.64s2.71-2.95,1.72-9.77c-1-7,1.14-11.23,5.62-13.76"/><path class="cls-1" d="M335.1,556.52c1.33.68,7.89,0,6.85-10.63,0,0-.41-1.89,2-4.39,3.18-3.26.27-9.58-2.77-11.84a27,27,0,0,0-2.71,9s.44-6-2.17-9-9.13-.91-11.88-2.76c0,0-1.06,6.15,3.13,8.87s3.5,3.6,2.22,3.45-3.68-2.07-5.4-4.63-5.46-4.06-8.07-2.93-2.89,3.58-6.28,3.19c0,0-.31,4.82,3.46,7,0,0,.55,3.49,4,3.64s5.69-1.29,6.25-.83-1,1-.78,1.69c.47,1.33,5.61-2.56,6.3-1.3s-9.88,3.62-9.61,6.49,4.66,4.55,5.81,4.44c0,0,0,3,2.1,2.87s5.67-7.08,6.53-6.27S333.85,555.89,335.1,556.52Z"/><path class="cls-12" d="M325.76,540.43A22,22,0,0,0,342,545.89s5.73-1.53,8.51.3"/><path class="cls-1" d="M336.61,525.05c1.14,5.19,7.5,6.24,10.63,6.07s1.46,3.14,6.21,4.59c.49-2.68,3.81-2.69,2.25-7.08a13.18,13.18,0,0,1,6,2.9c3.19,2.91,5.35.66,5.35.66-2-2.76-1-8.12,2.3-10.08-3.45-2-2.15-4.62-5.77-5.31-6.15-1.18-5.91-3.53-6.18-5.19-.41-2.47-4.77-8.16-6.73-5.27-2.68,4-4.47,4.94-6.38,4.33-1.56,3,1.21,6.5.89,7.52-2.65,1.78-3.93-.88-6.4,1.25C337.6,520.45,335.92,521.94,336.61,525.05Z"/><path class="cls-2" d="M359.31,524.49a32.14,32.14,0,0,1-14.14-6.3,7.69,7.69,0,0,0-2.89-3.18"/><path class="cls-1" d="M382.49,559.81c.39-1.44-1.58-7.73-11.8-4.56,0,0-1.77.78-4.71-1.11-3.83-2.46-9.43,1.67-11,5.1a26.86,26.86,0,0,0,9.33.84s-5.95.78-8.38,3.95.95,9.13-.31,12.2c0,0,6.24-.21,8.06-4.87s2.82-4.15,2.93-2.86-1.29,4-3.45,6.22-2.86,6.16-1.23,8.5,4.09,2.11,4.39,5.5c0,0,4.79-.67,6.18-4.81,0,0,3.31-1.25,2.77-4.62s-2.42-5.31-2.08-6,1.21.79,1.82.43c1.21-.73-3.65-5-2.55-5.91s5.54,8.95,8.3,8.11,3.51-5.49,3.18-6.6c0,0,3-.62,2.38-2.64s-8.08-4.12-7.46-5.12S382.12,561.16,382.49,559.81Z"/><path class="cls-12" d="M368.61,572.21a21.93,21.93,0,0,0,2.08-17s-2.66-5.31-1.43-8.4"/><path class="cls-1" d="M296.35,604.77c.06-6.89,3.95-4.24,4.53-10.56,0,0-.06-3.63,7.34-2.79,0,0,1-3.67-5.39-10.93-4.6-5.26,7.69-1.38,7.69-1.38s-2.8-8.79-8.82-12.39c-7.27-4.35-10.49-4.5-10.49-4.5a28.8,28.8,0,0,1-8.48,14.53c-5.89,5.58-5.89,10.58-5.89,10.58s6.34-3.06,7.43-.52c.7,1.64-2.94,2.53-1.53,6.23,1.26,3.33-1.17,5.74,1.27,9.68,0,0,4.26-1.52,7.26-7.33C292.13,599,292.75,602.84,296.35,604.77Z"/><path class="cls-2" d="M293.51,589.85s-2.46-3.16-.9-9.87c1.61-6.94-.19-11.28-4.45-14.19"/><path class="cls-1" d="M271.3,493.63c2.51,6.42,5.21,2.55,8,8.25,0,0,1.24,3.42,7.86,0A28.69,28.69,0,0,1,286,514c-2.07,6.67,7.68-1.45,7.68-1.45s1.76,12.08-3.07,16.23-6.28,5.52-13.09,4.17-7.93-9-11.88-11.47a59.72,59.72,0,0,1-6.37-4.63s7,.6,7.13-2.16c.08-1.78-3.64-1.32-3.64-5.27,0-3.56-2.47-3-1.59-7.56,0,0,3.86-2,8.72,2.32C269.42,500.54,268.63,496.72,271.3,493.63Z"/><path class="cls-2" d="M274,508.58s-1.17,3.83,2.67,9.55c4,5.91,3.83,10.61.89,14.84"/><path class="cls-1" d="M241.45,568.33c-.36-1.58,2.05-8.3,13-4.42,0,0,1.87.92,5.14-1,4.26-2.5,10.14,2.21,11.72,6a29.16,29.16,0,0,1-10.13.51s6.4,1.1,8.89,4.64-1.42,9.83-.19,13.2c0,0-6.74-.5-8.51-5.61s-2.86-4.62-3-3.23,1.22,4.4,3.47,6.88,2.83,6.8,1,9.25-4.52,2.1-5,5.77c0,0-5.15-.94-6.48-5.48,0,0-3.53-1.49-2.79-5.12s2.84-5.64,2.5-6.35-1.34.8-2,.38c-1.29-.84,4.15-5.23,3-6.28s-6.38,9.43-9.33,8.4-3.57-6.09-3.16-7.27c0,0-3.18-.8-2.46-3s8.92-4.12,8.29-5.23S241.79,569.8,241.45,568.33Z"/><path class="cls-12" d="M255.93,582.35a23.73,23.73,0,0,1-1.51-18.44s3.1-5.63,1.91-9"/><path class="cls-1" d="M246.54,518.92c-4.6,2.66-3.68,9.05-2.56,12s-2.56,2.34-2.5,7.31c2.71-.35,3.72,2.81,7.44,0a13.16,13.16,0,0,1-1,6.58c-1.81,3.93,1,5.31,1,5.31,2-2.73,7.42-3.45,10.3-.86.89-3.91,3.76-3.46,3.32-7.12-.74-6.21,1.57-6.7,3.07-7.46,2.23-1.13,6.34-7,3-8-4.59-1.36-6.06-2.77-6.06-4.78-3.3-.59-5.83,3.13-6.89,3.13-2.51-2-.36-4-3.13-5.72C251.23,518.48,249.3,517.33,246.54,518.92Z"/><path class="cls-2" d="M254,540.4A32.14,32.14,0,0,1,255.68,525a7.75,7.75,0,0,0,2.15-3.72"/><path class="cls-3" d="M372.38,546.61l-1.84-.3c1.48-9.15-2-11.78-2-11.8l1.05-1.54C369.76,533.09,374.07,536.15,372.38,546.61Z"/><path class="cls-3" d="M266.56,548.06l-1.35-1.92c.05,0,4.67-3.43,6.88-12.6l2.29.55C271.94,544.2,266.78,547.9,266.56,548.06Z"/><path class="cls-3" d="M290.46,565.2l2.32-.1c-.54-11.54,4.11-14.31,4.16-14.33l-1.08-2C295.62,548.85,289.85,552,290.46,565.2Z"/><path class="cls-3" d="M346,524.31l-1.26.52c-2.59-6.29-5.75-6.6-5.78-6.6l.06-1.36C339.15,516.87,343,517.13,346,524.31Z"/><path class="cls-3" d="M352.17,567.8l-2.13-.1c.49-10.63-3.8-13.18-3.84-13.2l1-1.89C347.42,552.73,352.73,555.65,352.17,567.8Z"/><circle class="cls-9" cx="342.56" cy="526.66" r="4.25"/><circle class="cls-9" cx="348.67" cy="525.75" r="4.25"/><circle class="cls-9" cx="340.58" cy="533.18" r="4.25"/><circle class="cls-9" cx="346.7" cy="532.27" r="4.25"/><circle class="cls-9" cx="352.71" cy="531.51" r="4.25"/><circle class="cls-9" cx="343.92" cy="539.63" r="4.25"/><circle class="cls-9" cx="350.63" cy="538.91" r="4.25"/><circle class="cls-9" cx="347.91" cy="545.37" r="4.25"/><path class="cls-1" d="M285.32,523.37c-.92,1.19-1.49,7.76,9.17,8.72,0,0,1.93-.05,3.93,2.82,2.61,3.73,9.36,2,12.15-.52a26.88,26.88,0,0,0-8.31-4.33s5.8,1.55,9.26-.46,2.6-8.8,4.93-11.16c0,0-5.86-2.18-9.31,1.43s-4.18,2.77-3.8,1.53,2.72-3.22,5.56-4.43,5-4.61,4.38-7.39-3-3.51-2-6.77c0,0-4.68-1.2-7.55,2.1,0,0-3.54-.11-4.32,3.22s.22,5.83-.35,6.3-.81-1.19-1.51-1.09c-1.4.21,1.47,6,.1,6.44S296,509.4,293.1,509.12s-5.34,3.74-5.45,4.89c0,0-3-.56-3.21,1.53s5.9,6.89,4.94,7.58S286.17,522.27,285.32,523.37Z"/><path class="cls-12" d="M302.87,517.2a21.9,21.9,0,0,0-8.38,14.89s.44,5.92-1.88,8.31"/><path class="cls-3" d="M269.1,530.9s5.51,8.77,17.76,14.78c13.12,6.44,18.47,16,21.1,31.23s-.23,31.41-2.39,45.06c-4.3,27.17,2.91,53.26-.43,70.91H319s-4.34-44.92.67-66.14.24-43.63,3.81-55.55,12.64-4.29,21.22-13.35,11.45-13.11,19.07-17.41,7.63-9.77,15.74-11.44,4-6.67,0-6-10.49,2.1-18.12,9.16-19.31,14.2-26.94,20.64-12.49-2.14-7.79-6.44,2.31-13.35,5.64-17.64,6-5.72,9.54-11.44,9.3-7.87,6.68-9.3-4.77.95-8.83,4.29-7.62,3.1-9.77,8.11-6.68,9.53-7.63,15.73-6.2,13.83-12.87,11.69-8.59-9.3-17.65-10.73-16.92-8.35-20.26-13.35a17.61,17.61,0,0,0-13.7-8.34c-6.2-.71-17.29-4.06-17.53-.72s6,4.29,15,6S265.28,528.28,269.1,530.9Z"/><circle class="cls-9" cx="367.93" cy="548.71" r="4.35"/><circle class="cls-9" cx="373.49" cy="545.69" r="4.35"/><circle class="cls-9" cx="379.01" cy="542.85" r="4.35"/><circle class="cls-9" cx="372.81" cy="553.91" r="4.35"/><circle class="cls-9" cx="379.01" cy="550.87" r="4.35"/><circle class="cls-9" cx="378.27" cy="558.26" r="4.35"/><circle class="cls-9" cx="287.15" cy="568.2" r="4.61"/><circle class="cls-9" cx="293.86" cy="568.28" r="4.61"/><circle class="cls-9" cx="283.9" cy="574.84" r="4.61"/><circle class="cls-9" cx="290.61" cy="574.92" r="4.61"/><circle class="cls-9" cx="297.19" cy="575.14" r="4.61"/><circle class="cls-9" cx="286.37" cy="582.33" r="4.61"/><circle class="cls-9" cx="293.68" cy="582.71" r="4.61"/><circle class="cls-9" cx="289.66" cy="589.17" r="4.61"/><circle class="cls-9" cx="255.85" cy="549.87" r="4.75"/><circle class="cls-9" cx="261.75" cy="548.65" r="4.75"/><circle class="cls-9" cx="267.99" cy="550.56" r="4.75"/><circle class="cls-9" cx="273.42" cy="553.9" r="4.75"/><circle class="cls-9" cx="256.82" cy="555.65" r="4.75"/><circle class="cls-9" cx="263.32" cy="557.63" r="4.75"/><circle class="cls-9" cx="269.93" cy="559.19" r="4.75"/><circle class="cls-9" cx="256.92" cy="563.98" r="4.75"/><circle class="cls-9" cx="264.23" cy="565.86" r="4.75"/><circle class="cls-9" cx="258.37" cy="571.47" r="4.75"/><circle class="cls-9" cx="344.83" cy="572.01" r="4.22"/><circle class="cls-9" cx="349.05" cy="568.72" r="4.22"/><circle class="cls-9" cx="354.76" cy="567.79" r="4.22"/><circle class="cls-9" cx="360.39" cy="568.32" r="4.22"/><circle class="cls-9" cx="347.87" cy="576.23" r="4.22"/><circle class="cls-9" cx="353.83" cy="575.25" r="4.22"/><circle class="cls-9" cx="359.7" cy="573.9" r="4.22"/><circle class="cls-9" cx="351.23" cy="582.82" r="4.22"/><circle class="cls-9" cx="357.78" cy="581.44" r="4.22"/><circle class="cls-9" cx="355.32" cy="588.22" r="4.22"/><path class="cls-2" d="M125.14,609.3s24.26,34.8,30.42,75.91"/><path class="cls-2" d="M82.86,606.63s30.73.23,53,20.94"/><path class="cls-2" d="M95.32,618.94s20.76-3.43,44,15.56"/><path class="cls-2" d="M110.91,629.41s15.75-1,31.51,11.85"/><path class="cls-5" d="M89.93,567.54s1.78,12,11.35,12.84C101.28,580.38,101.25,570.82,89.93,567.54Z"/><path class="cls-5" d="M90.36,577.23s5,10.08,18.89,9.91C109.25,587.14,105.05,573.37,90.36,577.23Z"/><path class="cls-5" d="M98.46,568.22s-1.6,18.46,8,21.43C106.46,589.65,110.82,577.53,98.46,568.22Z"/><path class="cls-5" d="M93,584.36s6,16.45,24.5,16.44C117.52,600.8,114.69,582.34,93,584.36Z"/><path class="cls-5" d="M105.47,574.86s14.64,5.8,10.77,26.71C116.24,601.57,101.36,598.46,105.47,574.86Z"/><path class="cls-5" d="M115.88,582.52s-6,20.27,7.85,27.08C123.73,609.6,130.31,596,115.88,582.52Z"/><path class="cls-5" d="M97.81,596.06s9.23,16.78,27.37,13.65C125.18,609.71,122.62,592.72,97.81,596.06Z"/><path class="cls-5" d="M144.61,520.36s-2.39,14.07,6.26,18.76C150.87,539.12,155.63,528.79,144.61,520.36Z"/><path class="cls-5" d="M141,530.47s2.71,19.48,17,22.3C158,552.77,158.27,535.88,141,530.47Z"/><path class="cls-5" d="M153.74,525.65A26.84,26.84,0,0,0,154.92,554S163.61,539.84,153.74,525.65Z"/><path class="cls-5" d="M141.7,543s-.11,22.41,18.65,24.91C160.35,567.88,163.37,548.91,141.7,543Z"/><path class="cls-5" d="M159.7,533s-12.56,19.81-1.25,34.58C158.45,567.54,172.06,554.46,159.7,533Z"/><path class="cls-2" d="M162.35,573.4s18,28.07,19.74,106.57"/><path class="cls-2" d="M153.85,599.18s16.29,3.51,22.37,18.63"/><path class="cls-2" d="M143.59,584.18s20,3,31.17,26.39"/><path class="cls-2" d="M131.55,569.23s30.8,4.17,40.45,29.9"/><path class="cls-2" d="M200.57,578s-16.24,20.2-22,54.27"/><path class="cls-5" d="M141,556.81s5.46,18.88,21.38,16.59C162.35,573.4,160.25,556.66,141,556.81Z"/><path class="cls-5" d="M166.08,546.62s-15,14.49-3.73,26.78C162.35,573.4,174.52,566,166.08,546.62Z"/><path class="cls-1" d="M376.54,707.31s5-7-2.36-14.36-2.9-6.5-6.37-11.68-6.39-1.64-9.83-5.3-6.65-5-11.17-1.32-4.89,2.51-7.36,3-1.85,3.51-4.24,4.43-3.32-3.66-9.61-1.81-13.87,20.48,4.65,34.46S368.5,725.53,376.54,707.31Z"/><path class="cls-3" d="M283.64,701.45s-23.38-7.68-33.47-5.81c-5.74,1.06-5.62,3.86-11.46,3.61s-11.62-.22-13,6.09c-1,4.47-2.48,6,0,9.83s10.73,3.66,10.95,7.21c.19,3-3,4.52-3.41,7.37s2.32,3.69,2,7.07S230.38,743,233,748.63s7.48,7.91,10.65,5.59,6.22-6.11,11.92-5.48,9-2.64,9.18-7.28,6.85-5.38,8.12-.74-.74,9.81,5.38,10.13,6.54-3.59,11.07-1.69,6.14-1.45,8-3.16c3.17-2.89,7.55-.74,9-9.08S308,707.17,283.64,701.45Z"/><path class="cls-2" d="M244.93,734.46s8.62-24.49,57.69-20.36"/><path class="cls-3" d="M377.84,714.69s-2.68,8.93,2.33,14.35,11.18,3.27,15.66,10.24,5.7,8.73,12.72,10,4,7.36,10.9,9.15,11.15-9,8.88-15.39,1.33-6.4,4.54-4.76,4.72,1.87,7.11-1,3.88,1,8.63-.48,2.18-3.69,6.11-5.71,6.13-5,3-9.35,2.64-5.84-1.39-10.59-11.39-1.49-13.8-6.16,3-5.38.91-9.39-9-3.73-10.66-7,.44-4.31-3-6.74-9,.74-12.09,6.14-16.59,25.36-24.61,22.35S378.5,710.61,377.84,714.69Z"/><path class="cls-2" d="M436.62,724.54S412.21,709,386.46,714.4"/><path class="cls-6" d="M383,659.47c3.83-1.94,10.62-4.17,17.18-.16,8.74,5.34,13.09.65,20.86,7.7,11,10,8.27,38.54-8,39.78-15.54,1.18-13,4.85-22.5,4.94s-8.23-4.26-20.6-3.91c-14,.39-23.52-27.25-8.88-41.09C369.66,658.55,377.59,662.2,383,659.47Z"/><path class="cls-1" d="M395.86,662.71s-3,4.63-8.31.81c0,0,2.76-2.34,1.56-7.69-.89-3.92-3.18-5.41-5.86-5s-3.47-2.2-1.2-3.11c3.18-1.27,7.5.06,9.55,4.45C393.32,655.84,391.39,660.2,395.86,662.71Z"/><path class="cls-2" d="M376.34,674.1c-4.4,5.64-4.92,17.9-.21,24.44"/><path class="cls-2" d="M404.89,674.09c2.38,4.63,4.17,16.67-.61,23.85"/><path class="cls-3" d="M381.22,687.2c2.09-.29,1.85,5.3-.05,5.3S379.6,687.41,381.22,687.2Z"/><path class="cls-3" d="M396.28,698.23c1.42.12,1,3.83-.54,3.49S394.86,698.11,396.28,698.23Z"/><path class="cls-3" d="M418.51,681.25c1.17.11,1.3,2.31,1.31,5,0,3-.95,5.78-2.07,5.5s-1.31-2.53-1.19-5.4S417.09,681.12,418.51,681.25Z"/><path class="cls-3" d="M385.67,668.25c1.58,1,.6,3.51-1.33,7.69-1.71,3.69-.61,8.1-2.33,8.25s-2.28-5.66-1.59-9.62S384.07,667.2,385.67,668.25Z"/><path class="cls-3" d="M365.06,684.84c1.16-.76.65-4.07-.85-5.26C364.21,679.58,361.88,683.47,365.06,684.84Z"/><circle class="cls-3" cx="394.61" cy="669.61" r="0.99"/><path class="cls-3" d="M396.06,676.29c2.65-.38,7.09,17.17,1.78,18.68-.78.22-2-.61-1.29-3.56C398.22,684.17,393.29,676.7,396.06,676.29Z"/><path class="cls-3" d="M403.11,666c.14-2.21,6.78-2.63,11.72,1.88,4,3.67,4.84,9.41,2.66,9.36-1.75,0-2.42-6.2-6.88-8.24S403,668.18,403.11,666Z"/><path class="cls-3" d="M378.22,665.35c.46,1.64-2.92,1-6.31,4.13-2.92,2.68-4.37,5.81-5.38,4.92-1.25-1.1.21-4.22,3-6.78C372,665.35,377.62,663.27,378.22,665.35Z"/><path class="cls-6" d="M289.46,661.25c4.87-1.71,13.33-3.27,20.5,2.56,9.56,7.77,15.51,2.89,23.63,12.53,11.56,13.72,3.68,47.28-15.95,46.13-18.72-1.09-16.23,3.71-27.62,2.28s-9.12-6.4-23.92-8c-16.77-1.78-23.66-36.26-4-50.41C273.75,658,282.62,663.64,289.46,661.25Z"/><path class="cls-1" d="M295.18,665.6s2.42,6.2,9.57,3c0,0-2.67-3.45.08-9.44,2-4.39,5.08-5.58,8.15-4.48s4.63-1.73,2.17-3.36c-3.42-2.28-8.84-1.79-12.33,2.87C299.87,658.15,301.05,663.75,295.18,665.6Z"/><path class="cls-2" d="M279.22,677.62c-6.15,6-8.74,20.55-4.18,29.1"/><path class="cls-2" d="M313.25,682.2c2.1,5.89,2.29,20.53-4.55,28.33"/><path class="cls-3" d="M282.93,694c2.54,0,1.35,6.62-.91,6.32S281,694,282.93,694Z"/><path class="cls-3" d="M299.11,709.58c1.67.37.56,4.74-1.21,4.09S297.44,709.21,299.11,709.58Z"/><path class="cls-3" d="M328.34,692.92c1.38.32,1.17,3,.75,6.16-.46,3.55-2,6.75-3.35,6.23s-1.15-3.22-.54-6.63S326.66,692.53,328.34,692.92Z"/><path class="cls-3" d="M291.28,672.15c1.72,1.48.15,4.28-2.82,9-2.63,4.13-2,9.56-4.1,9.46s-1.82-7.11-.35-11.72S289.54,670.64,291.28,672.15Z"/><path class="cls-3" d="M264,688.61c1.51-.72,1.43-4.74-.16-6.41C263.88,682.2,260.48,686.47,264,688.61Z"/><circle class="cls-3" cx="301.71" cy="675.21" r="1.19"/><path class="cls-3" d="M302.37,683.4c3.22,0,5.7,21.6-.88,22.55-1,.14-2.25-1-1-4.44C303.68,693.14,299,683.44,302.37,683.4Z"/><path class="cls-3" d="M312.43,672.27c.52-2.6,8.5-2,13.66,4.13,4.21,5,4.27,12,1.67,11.59-2.08-.33-1.89-7.78-6.87-10.93S311.91,674.84,312.43,672.27Z"/><path class="cls-3" d="M282.86,667.49c.29,2-3.64.76-8.19,3.92-3.91,2.72-6.13,6.21-7.2,5-1.31-1.51.94-5,4.66-7.6C275.43,666.49,282.49,664.92,282.86,667.49Z"/><path class="cls-6" d="M333.46,704.67c4.76-3.21,13.42-7.27,22.78-3,12.47,5.68,17.49-1.25,28.95,6.85,16.29,11.52,17.22,49.84-4.22,54.12-20.44,4.08-16.42,8.54-29.08,10.2s-11.62-4.32-28-1.86c-18.54,2.79-35.64-32.37-18.45-53.12C315.64,705.59,326.77,709.16,333.46,704.67Z"/><path class="cls-1" d="M340.5,708.69s5,5.46,11.14-.7c0,0-4.15-2.51-3.7-9.82.34-5.37,3.05-7.83,6.67-7.92,3.8-.08,4.11-3.64.91-4.36-4.46-1-9.89,1.68-11.65,7.92C342.38,699.07,345.86,704.41,340.5,708.69Z"/><path class="cls-2" d="M327,725.16c-4.93,8.2-3.64,24.56,3.68,32.49"/><path class="cls-2" d="M365,720.53c3.9,5.76,8.22,21.45,3,31.76"/><path class="cls-3" d="M335.63,741.76c2.73-.72,3.31,6.74.8,7S333.52,742.31,335.63,741.76Z"/><path class="cls-3" d="M357.41,754c1.9-.07,1.93,4.94-.15,4.73S355.51,754,357.41,754Z"/><path class="cls-3" d="M384.19,727.83c1.57,0,2.09,2.85,2.54,6.42.5,4-.32,7.84-1.86,7.64-1.7-.22-2.14-3.14-2.44-7S382.28,727.88,384.19,727.83Z"/><path class="cls-3" d="M338.48,715.88c2.26,1.11,1.36,4.57-.53,10.43-1.66,5.18.5,10.86-1.76,11.33s-3.94-7.15-3.66-12.51S336.18,714.75,338.48,715.88Z"/><path class="cls-3" d="M313.78,741.24c1.43-1.19.21-5.5-2-6.85C311.82,734.39,309.35,739.94,313.78,741.24Z"/><circle class="cls-3" cx="350.56" cy="716.25" r="1.32"/><path class="cls-3" d="M353.57,724.88c3.46-.94,12.2,21.64,5.39,24.51-1,.42-2.72-.49-2.29-4.51C357.72,735,350,725.86,353.57,724.88Z"/><path class="cls-3" d="M361.27,710.08c-.17-3,8.58-4.58,15.86.6,5.94,4.23,8,11.71,5.05,12-2.33.24-4.21-7.83-10.47-9.82S361.43,713,361.27,710.08Z"/><path class="cls-3" d="M328.1,713.24c.89,2.11-3.7,1.83-7.7,6.51-3.45,4-4.86,8.41-6.35,7.39-1.83-1.25-.4-5.63,2.88-9.49C319.83,714.25,327,710.58,328.1,713.24Z"/><path class="cls-2" d="M631,595.76c8.21-47.75-.66-80.55-.66-80.55l-4.84-12"/><polyline class="cls-2" points="626.86 520.39 630.38 515.21 621.78 514.66"/><polyline class="cls-2" points="645.26 514.52 630.38 515.21 638.14 521.33"/><polyline class="cls-2" points="638.74 502.36 630.38 515.21 632.88 513.01"/><ellipse class="cls-6" cx="624.37" cy="500.27" rx="4.41" ry="3.14" transform="translate(-141.05 267.38) rotate(-21.78)"/><ellipse class="cls-6" cx="641.13" cy="500.08" rx="3.14" ry="4.41" transform="translate(-43.95 938.02) rotate(-70.54)"/><ellipse class="cls-6" cx="618.4" cy="514.42" rx="4.41" ry="3.14" transform="translate(-164.06 701.02) rotate(-53.17)"/><ellipse class="cls-6" cx="625.97" cy="523.5" rx="3.14" ry="4.41" transform="translate(-168.28 710.71) rotate(-53.17)"/><ellipse class="cls-6" cx="648.47" cy="515.02" rx="3.14" ry="4.41" transform="translate(-99.51 159.66) rotate(-13.04)"/><ellipse class="cls-6" cx="640.53" cy="523.36" rx="4.41" ry="3.14" transform="translate(-173.02 672.75) rotate(-49.66)"/><ellipse class="cls-6" cx="634.91" cy="510.62" rx="3.14" ry="4.41" transform="translate(-165.29 663.97) rotate(-49.66)"/><path class="cls-3" d="M622.18,544.81s-.33,16.85,12.11,20C634.29,564.83,633.75,551.53,622.18,544.81Z"/><path class="cls-2" d="M662.18,557.75c-.81.94-20.21,22.92-25.58,56.85"/><polyline class="cls-2" points="654.85 550.48 661.37 558.69 663.3 540.91"/><polyline class="cls-2" points="674.86 562.86 661.37 558.69 672.61 554.77"/><polyline class="cls-2" points="683.18 555.57 661.37 558.69 680.5 545.84"/><ellipse class="cls-3" cx="682.62" cy="543.58" rx="3.1" ry="4.35" transform="translate(-181.18 667.31) rotate(-46.68)"/><ellipse class="cls-3" cx="664.03" cy="537.9" rx="3.1" ry="4.35" transform="translate(-14.56 1057.3) rotate(-76.44)"/><ellipse class="cls-3" cx="651.62" cy="548.38" rx="3.1" ry="4.35" transform="translate(-171.24 328.77) rotate(-25.14)"/><ellipse class="cls-3" cx="677.67" cy="564.15" rx="4.35" ry="3.1" transform="translate(-118.74 942.62) rotate(-65.2)"/><ellipse class="cls-3" cx="686.27" cy="555.56" rx="3.1" ry="4.35" transform="translate(-1.73 2.15) rotate(-0.18)"/><ellipse class="cls-3" cx="674.43" cy="552.27" rx="3.1" ry="4.35" transform="translate(-169.39 770.96) rotate(-53.84)"/><path class="cls-3" d="M643.93,588.52s7.88,4.61,18.57-5.13C662.5,583.39,650.72,580.94,643.93,588.52Z"/><path class="cls-2" d="M489.17,747.53c1.2-36.67-11.76-51.06-11.76-51.06.07-1.68-2.42-7.48-2.42-7.48"/><polyline class="cls-2" points="471.64 697.43 477.41 696.47 484.1 694.34"/><polyline class="cls-2" points="466.04 681.24 477.41 696.47 460.6 693.08"/><line class="cls-2" x1="480.11" y1="683.96" x2="477.41" y2="696.47"/><ellipse class="cls-3" cx="473.35" cy="686.68" rx="4.07" ry="2.54"/><ellipse class="cls-3" cx="468.99" cy="699.31" rx="4.07" ry="2.54" transform="translate(-340.07 932.57) rotate(-72.23)"/><ellipse class="cls-3" cx="458.06" cy="693.16" rx="2.54" ry="4.07" transform="translate(-24.39 16.75) rotate(-2.04)"/><ellipse class="cls-3" cx="465.25" cy="678.83" rx="4.07" ry="2.54" transform="translate(-188.35 178.76) rotate(-18.16)"/><ellipse class="cls-3" cx="480.89" cy="681.55" rx="2.54" ry="4.07" transform="translate(-314.89 931.55) rotate(-72.23)"/><ellipse class="cls-3" cx="486.64" cy="694.34" rx="2.54" ry="4.07"/><path class="cls-1" d="M475,719.57S480,732,488.8,732C488.8,732,488.4,722.25,475,719.57Z"/><path class="cls-2" d="M528,618.51v20.25s-21.24,33.73-18.12,100.89"/><polyline class="cls-2" points="518.5 642.73 527.97 638.76 521.93 633.18"/><polyline class="cls-2" points="532.96 649.54 527.97 638.76 541.85 644.45"/><polyline class="cls-2" points="540.38 625.41 527.97 638.76 535.05 634.36"/><ellipse class="cls-3" cx="526.6" cy="615.6" rx="4.92" ry="2.92"/><ellipse class="cls-3" cx="543.51" cy="624.28" rx="2.92" ry="4.92" transform="translate(-276.57 736.5) rotate(-56.75)"/><ellipse class="cls-3" cx="544.76" cy="644.63" rx="4.92" ry="2.92" transform="translate(-132.15 1148.72) rotate(-86.48)"/><ellipse class="cls-3" cx="535" cy="652.1" rx="4.92" ry="2.92" transform="translate(-46.51 41.11) rotate(-4.22)"/><ellipse class="cls-3" cx="537.7" cy="633.15" rx="2.92" ry="4.92" transform="translate(-215.17 282.16) rotate(-24.67)"/><ellipse class="cls-3" cx="518.62" cy="629.55" rx="2.92" ry="4.92" transform="translate(-288.7 513.24) rotate(-42.32)"/><ellipse class="cls-3" cx="515.62" cy="642.23" rx="4.92" ry="2.92" transform="translate(-205.61 1039.89) rotate(-80.11)"/><path class="cls-1" d="M502.86,667.77s-1.16,16.92,9,24.17C511.84,691.94,514.52,676.79,502.86,667.77Z"/><path class="cls-1" d="M526,685.34a60.27,60.27,0,0,0-16.42,35S522.77,713.34,526,685.34Z"/><path class="cls-13" d="M118.17,680.32a28.51,28.51,0,0,1,.33-3.91,33.86,33.86,0,0,1,.79-3.86,28.94,28.94,0,0,1,1.27-3.78,21.6,21.6,0,0,1,1.87-3.6,16,16,0,0,1,2.7-3.19,12,12,0,0,1,3.69-2.26,12.25,12.25,0,0,1,4.32-.76,8.24,8.24,0,0,1,2.31.35,8.76,8.76,0,0,1,2.13,1,11.48,11.48,0,0,1,3.19,3.09,20.49,20.49,0,0,1,2.08,3.65,39.82,39.82,0,0,1,2.41,7.72,70.43,70.43,0,0,1,1.16,7.85c.12,1.32.21,2.63.26,3.95s.07,2.61,0,4h-2.08c-.11-2.5-.32-5.07-.6-7.59s-1.49-5-2-7.49a38,38,0,0,0-2.14-7.11,16.93,16.93,0,0,0-1.68-3.12,8.86,8.86,0,0,0-2.28-2.36,5.42,5.42,0,0,0-2.87-1,9.48,9.48,0,0,0-3.3.45,12,12,0,0,0-5.51,4.16,29.23,29.23,0,0,0-3.66,6.53A52.4,52.4,0,0,0,118.17,680.32Z"/><path class="cls-13" d="M128.05,650.39a9.81,9.81,0,0,1,4.34.15,13.2,13.2,0,0,1,2.11.74c.35.14.68.33,1,.5s.66.38,1,.59a16.94,16.94,0,0,1,3.38,3,22.08,22.08,0,0,1,2.54,3.7,29.57,29.57,0,0,1,1.84,4.06,37.56,37.56,0,0,1,1.23,4.22,42.27,42.27,0,0,1,1.07,8.63l-2.85.24c-.43-2.75-.85-5.47-1.44-8.13a39.31,39.31,0,0,0-2.47-7.7,21.86,21.86,0,0,0-1.91-3.49,17.14,17.14,0,0,0-2.56-3A12.94,12.94,0,0,0,128.05,650.39Z"/><path class="cls-13" d="M143.81,686.53c-.11-1.09-.18-2.13-.22-3.19s-.06-2.12-.05-3.18a62,62,0,0,1,.34-6.38A45.64,45.64,0,0,1,145,667.4a22.39,22.39,0,0,1,2.57-6.22,11,11,0,0,1,2.4-2.73,8,8,0,0,1,3.48-1.61,7.59,7.59,0,0,1,1.89-.13,9.24,9.24,0,0,1,1.8.23,9.07,9.07,0,0,1,3.31,1.51,10.84,10.84,0,0,1,1.33,1.19,11.41,11.41,0,0,1,1.07,1.36,13.32,13.32,0,0,1,1.49,3,17.47,17.47,0,0,1,.78,3.15,14.33,14.33,0,0,1,.18,1.59,14.07,14.07,0,0,1,0,1.59,28.28,28.28,0,0,0-2.49-5.62,11.36,11.36,0,0,0-3.82-4.09,6.71,6.71,0,0,0-2.42-.87,8,8,0,0,0-1.3-.1,4.72,4.72,0,0,0-1.21.14,4.8,4.8,0,0,0-2.09,1.1,6.94,6.94,0,0,0-.87.92,9.73,9.73,0,0,0-.76,1.1,19.7,19.7,0,0,0-2.06,5.33,47.87,47.87,0,0,0-1.06,5.92,105.63,105.63,0,0,0-.66,12.2Z"/><path class="cls-13" d="M158.17,685.28a8.12,8.12,0,0,0-3.46.18,10.6,10.6,0,0,0-3.18,1.52,14.49,14.49,0,0,0-2.6,2.34,19.07,19.07,0,0,0-2.05,2.77l-.16.27v-1.89c0-.66,0-12.39.11-16.87s.07-9-.13-13.45c-.1-2.24-.25-4.48-.47-6.73s-.5-4.48-1-6.72c-.45,2.24-.72,4.48-.95,6.72s-.37,4.49-.47,6.73c-.2,4.48-.21,9-.13,13.45v.15l-.21-.38a10.21,10.21,0,0,0-3-3.2,8,8,0,0,0-4.32-1.33,12.65,12.65,0,0,0-4.14.68,11.21,11.21,0,0,0-3.59,2.13,12.49,12.49,0,0,0-2.51,3.18,15.33,15.33,0,0,0-1.43,3.62,14.28,14.28,0,0,0-.48,3.77,26.2,26.2,0,0,1,1.54-3.35,20.14,20.14,0,0,1,2-3,12.8,12.8,0,0,1,2.46-2.32,9.39,9.39,0,0,1,6.09-1.72,4.81,4.81,0,0,1,2.64.9,10.42,10.42,0,0,1,3.39,5.3,32.26,32.26,0,0,1,1.4,6.93c.12,1.2.19,2.4.22,3.6,0,.5.08,13,.12,17.21a1.36,1.36,0,0,0,1.35,1.34h0a1.33,1.33,0,0,0,1.34-1.31c0-1.75.12-3.86.12-3.86a18.79,18.79,0,0,1,.58-2.79c.27-1,.58-1.92.94-2.86a26.46,26.46,0,0,1,2.72-5.39,14.93,14.93,0,0,1,1.9-2.28,9.35,9.35,0,0,1,2.38-1.71,7.64,7.64,0,0,1,2.87-.78,10.32,10.32,0,0,1,3.15.29A8.91,8.91,0,0,0,158.17,685.28Z"/><path class="cls-13" d="M179.57,671a32.06,32.06,0,0,1,.33-3.9,34.47,34.47,0,0,1,.79-3.87,28.31,28.31,0,0,1,1.27-3.77,21.27,21.27,0,0,1,1.88-3.6,15.09,15.09,0,0,1,2.7-3.19,11.79,11.79,0,0,1,3.69-2.26,12.17,12.17,0,0,1,4.32-.76,8.29,8.29,0,0,1,2.31.35,8.86,8.86,0,0,1,2.12,1,11.48,11.48,0,0,1,3.19,3.09,19.89,19.89,0,0,1,2.08,3.65,39.82,39.82,0,0,1,2.41,7.72,66.06,66.06,0,0,1,1.16,7.85c.12,1.32.21,2.63.26,3.94s.08,2.62,0,4h-2.08c-.1-2.5-.32-5.07-.6-7.59s-1.48-5-2-7.49a39.56,39.56,0,0,0-2.14-7.11,18.7,18.7,0,0,0-1.68-3.13,9,9,0,0,0-2.28-2.35,5.42,5.42,0,0,0-2.88-1,9.54,9.54,0,0,0-3.3.45,11.84,11.84,0,0,0-5.5,4.16,28.61,28.61,0,0,0-3.66,6.52A54.7,54.7,0,0,0,179.57,671Z"/><path class="cls-13" d="M189.45,641.06a10,10,0,0,1,4.35.16,15.06,15.06,0,0,1,2.11.73c.34.15.67.34,1,.51s.65.37,1,.59a16.58,16.58,0,0,1,3.37,3,22.13,22.13,0,0,1,2.55,3.7,29.94,29.94,0,0,1,1.83,4,37.78,37.78,0,0,1,1.24,4.23,42.88,42.88,0,0,1,1.06,8.63l-2.85.24c-.42-2.75-.84-5.47-1.44-8.13a39.29,39.29,0,0,0-2.46-7.7,21.49,21.49,0,0,0-1.92-3.49,17.58,17.58,0,0,0-2.55-3A13.06,13.06,0,0,0,189.45,641.06Z"/><path class="cls-13" d="M205.22,677.21c-.11-1.09-.18-2.13-.22-3.19s-.07-2.12-.06-3.19q0-3.18.35-6.38a44.22,44.22,0,0,1,1.13-6.38,22.21,22.21,0,0,1,2.57-6.22,10.78,10.78,0,0,1,2.4-2.72,8,8,0,0,1,3.47-1.61,8.11,8.11,0,0,1,1.89-.14,10,10,0,0,1,1.8.24,9,9,0,0,1,3.31,1.51,10.1,10.1,0,0,1,1.34,1.18,12.64,12.64,0,0,1,1.07,1.37,13.28,13.28,0,0,1,1.48,3,16.7,16.7,0,0,1,.79,3.15c.08.52.14,1.06.17,1.59a10.55,10.55,0,0,1,0,1.59,28.05,28.05,0,0,0-2.49-5.63,11.24,11.24,0,0,0-3.82-4.08,6.85,6.85,0,0,0-2.42-.88,9.25,9.25,0,0,0-1.3-.09,4.88,4.88,0,0,0-3.3,1.24,6.94,6.94,0,0,0-.87.92,13.08,13.08,0,0,0-.76,1.09,19.88,19.88,0,0,0-2,5.34,46.07,46.07,0,0,0-1.06,5.92A101.34,101.34,0,0,0,208,677Z"/><path class="cls-13" d="M219.58,676a8.11,8.11,0,0,0-3.46.18,10.37,10.37,0,0,0-3.18,1.52,14.83,14.83,0,0,0-2.6,2.33,18.27,18.27,0,0,0-2.05,2.78l-.17.27v-1.89c0-.66,0-12.39.12-16.87s.06-9-.14-13.45q-.13-3.37-.46-6.73c-.24-2.24-.51-4.48-1-6.72-.45,2.24-.72,4.48-.95,6.72s-.37,4.48-.46,6.73c-.21,4.48-.22,9-.14,13.45v.15c-.07-.13-.13-.26-.21-.39a10,10,0,0,0-3-3.19,8,8,0,0,0-4.33-1.33,12.7,12.7,0,0,0-4.14.68,11.13,11.13,0,0,0-3.59,2.13,12.36,12.36,0,0,0-2.5,3.17,15,15,0,0,0-1.44,3.63,14.66,14.66,0,0,0-.48,3.77,26.38,26.38,0,0,1,1.55-3.36,19,19,0,0,1,2-3,12.45,12.45,0,0,1,2.45-2.32,9.62,9.62,0,0,1,2.91-1.39,9.74,9.74,0,0,1,3.18-.34,4.91,4.91,0,0,1,2.65.91c1.57,1.08,2.66,3.14,3.39,5.3a32.26,32.26,0,0,1,1.4,6.93c.12,1.19.19,2.4.22,3.6,0,.5.08,13,.11,17.21a1.36,1.36,0,0,0,1.35,1.34h0A1.36,1.36,0,0,0,208,696.5c0-1.74.12-3.85.12-3.85a19.77,19.77,0,0,1,.57-2.79,29.93,29.93,0,0,1,.95-2.86,26.76,26.76,0,0,1,2.71-5.4,16.65,16.65,0,0,1,1.9-2.28,9.75,9.75,0,0,1,2.38-1.7,7.56,7.56,0,0,1,2.87-.78,10.6,10.6,0,0,1,3.15.28A8.92,8.92,0,0,0,219.58,676Z"/><path class="cls-13" d="M163.25,709a30.18,30.18,0,0,1,.33-3.9,33.86,33.86,0,0,1,.79-3.86,28.94,28.94,0,0,1,1.27-3.78,21.66,21.66,0,0,1,1.88-3.6,15.09,15.09,0,0,1,2.7-3.19,11.79,11.79,0,0,1,3.69-2.26,12.17,12.17,0,0,1,4.32-.76,8.35,8.35,0,0,1,2.31.35,8.86,8.86,0,0,1,2.12,1,11.48,11.48,0,0,1,3.19,3.09,20.49,20.49,0,0,1,2.08,3.65,39.82,39.82,0,0,1,2.41,7.72,68.18,68.18,0,0,1,1.16,7.85c.12,1.32.21,2.63.26,3.94s.07,2.62.05,4h-2.08c-.1-2.5-.32-5.07-.6-7.59s-1.49-5-2-7.49A39.56,39.56,0,0,0,185,697a18.7,18.7,0,0,0-1.68-3.13,9,9,0,0,0-2.28-2.35,5.45,5.45,0,0,0-2.88-1,9.51,9.51,0,0,0-3.3.45,11.84,11.84,0,0,0-5.5,4.16,28.61,28.61,0,0,0-3.66,6.52A53.31,53.31,0,0,0,163.25,709Z"/><path class="cls-13" d="M173.13,679.08a9.86,9.86,0,0,1,4.35.15,13.93,13.93,0,0,1,2.11.74c.34.14.67.33,1,.5s.66.37,1,.59a16.85,16.85,0,0,1,3.37,3,22.13,22.13,0,0,1,2.55,3.7,31.23,31.23,0,0,1,1.83,4,37.78,37.78,0,0,1,1.24,4.23,42.88,42.88,0,0,1,1.06,8.63l-2.85.24c-.43-2.75-.84-5.47-1.44-8.13a39.29,39.29,0,0,0-2.46-7.7,21.91,21.91,0,0,0-1.92-3.49,17.58,17.58,0,0,0-2.55-3A13,13,0,0,0,173.13,679.08Z"/><path class="cls-13" d="M188.9,715.22c-.11-1.09-.18-2.13-.22-3.19s-.07-2.12-.06-3.19q0-3.18.35-6.38a45.86,45.86,0,0,1,1.12-6.38,22.82,22.82,0,0,1,2.57-6.22,11,11,0,0,1,2.41-2.72,8,8,0,0,1,3.47-1.61,8.11,8.11,0,0,1,1.89-.14,10,10,0,0,1,1.8.24,9,9,0,0,1,3.31,1.51,11.66,11.66,0,0,1,1.34,1.18,12.64,12.64,0,0,1,1.07,1.37,13.28,13.28,0,0,1,1.48,3,17.5,17.5,0,0,1,.79,3.15c.08.53.14,1.06.17,1.59a12.05,12.05,0,0,1,0,1.59,27.71,27.71,0,0,0-2.49-5.62,11.19,11.19,0,0,0-3.82-4.09,6.92,6.92,0,0,0-2.42-.88,9.25,9.25,0,0,0-1.3-.09,4.72,4.72,0,0,0-1.21.14,4.86,4.86,0,0,0-2.09,1.1,6.94,6.94,0,0,0-.87.92,13.08,13.08,0,0,0-.76,1.09,19.88,19.88,0,0,0-2.05,5.34,44.41,44.41,0,0,0-1.06,5.92,101.34,101.34,0,0,0-.66,12.2Z"/><path class="cls-13" d="M203.26,714a8.11,8.11,0,0,0-3.46.18,10.37,10.37,0,0,0-3.18,1.52A14.48,14.48,0,0,0,194,718a18.27,18.27,0,0,0-2.05,2.78l-.17.27v-1.89c0-.66,0-12.39.12-16.87s.06-9-.14-13.45c-.09-2.24-.25-4.49-.46-6.73s-.51-4.48-1-6.72c-.45,2.24-.72,4.48-1,6.72s-.37,4.49-.47,6.73c-.2,4.48-.21,9-.13,13.45v.15c-.07-.13-.13-.26-.21-.38a10,10,0,0,0-3-3.2,7.9,7.9,0,0,0-4.32-1.33,12.7,12.7,0,0,0-4.14.68,11.13,11.13,0,0,0-3.59,2.13,12.36,12.36,0,0,0-2.5,3.17,15,15,0,0,0-1.44,3.63,14.66,14.66,0,0,0-.48,3.77,25.07,25.07,0,0,1,1.55-3.36,19,19,0,0,1,2-3,12.45,12.45,0,0,1,2.45-2.32,9.68,9.68,0,0,1,2.9-1.39,9.83,9.83,0,0,1,3.19-.34,4.94,4.94,0,0,1,2.65.91c1.57,1.08,2.65,3.14,3.38,5.3a31.1,31.1,0,0,1,1.4,6.93c.13,1.19.2,2.4.23,3.6,0,.5.07,13,.11,17.21a1.36,1.36,0,0,0,1.35,1.34h0a1.35,1.35,0,0,0,1.35-1.32c0-1.74.12-3.85.12-3.85a18.45,18.45,0,0,1,.57-2.79,29.93,29.93,0,0,1,.95-2.86,25.92,25.92,0,0,1,2.71-5.39,15.53,15.53,0,0,1,1.9-2.28,9.53,9.53,0,0,1,2.38-1.71,7.75,7.75,0,0,1,2.87-.78,10.3,10.3,0,0,1,3.15.29A8.93,8.93,0,0,0,203.26,714Z"/><g class="cls-7"><path class="cls-4" d="M601.7,383.78s-8.52.55-10.22,12C591.48,395.81,600.27,395.81,601.7,383.78Z"/><path class="cls-4" d="M605,391.8s-13-2.63-16.73,9.51C588.22,401.31,597.72,404.05,605,391.8Z"/><path class="cls-4" d="M594.06,383.78s-13.3,8.66-11.53,22.7C582.53,406.48,594.53,405,594.06,383.78Z"/><path class="cls-4" d="M599.05,400.73s-14.79-3.39-22.59,12.36C576.46,413.09,590.85,417.83,599.05,400.73Z"/><path class="cls-4" d="M583.38,391s-12.81,10.1-9.7,25.51C573.68,416.5,588.22,414,583.38,391Z"/><path class="cls-4" d="M591.48,412.65s-20.65-5.26-22.4,9.05C569.08,421.7,582.13,426.59,591.48,412.65Z"/><path class="cls-4" d="M572.8,397.47s-9,11.47-3.72,24.23C569.08,421.7,582.81,414.18,572.8,397.47Z"/><path class="cls-2" d="M569.08,421.7s-23.89,13.81-34.84,71.45"/><path class="cls-2" d="M553.91,413.69a107.08,107.08,0,0,1-5.22,34.2"/><path class="cls-2" d="M586.83,437.49s-27.61,1.72-39.67,13.57"/><path class="cls-2" d="M605.66,430.79s-31.49-4.06-55.07,13.48"/><path class="cls-2" d="M618.6,416.5s-44.87.86-65.49,23.41"/></g><g class="cls-7"><path class="cls-4" d="M665.73,425.36S659.58,438,650,436.8C650,436.8,652.07,425.79,665.73,425.36Z"/><path class="cls-4" d="M662.86,435.55s-13.35,14.06-26.4,8.13C636.46,443.68,645.89,430,662.86,435.55Z"/><path class="cls-4" d="M655.39,424.36a26.48,26.48,0,0,1-17.23,22.08S639.34,430.07,655.39,424.36Z"/><path class="cls-4" d="M655.1,445.15s-12.76,18-29.23,9.26C625.87,454.41,634.33,437.48,655.1,445.15Z"/><path class="cls-4" d="M646.41,426.8s-1.29,23.08-18.83,28.43C627.58,455.23,624.19,436.94,646.41,426.8Z"/><path class="cls-2" d="M621.1,457.68s-30.49,12.2-76.94,74.07"/><path class="cls-2" d="M613.13,483.22s-15.07-6.53-28.61,2.09"/><path class="cls-2" d="M630,477.08s-17.77-9.06-40.11,3.27"/><path class="cls-2" d="M648.18,472s-27.08-14.33-49.57.76"/><path class="cls-2" d="M587.84,439.45s1.43,25.49-13.51,56.07"/><path class="cls-4" d="M647.75,456.65s-15.21,12-26.65,1C621.1,457.68,632.39,445.48,647.75,456.65Z"/><path class="cls-4" d="M633.47,434.09s3.7,20.21-12.37,23.59C621.1,457.68,615.59,444.78,633.47,434.09Z"/></g><path class="cls-2" d="M473.08,304.83l12,6.36S459,350.8,459.67,416.5"/><polyline class="cls-2" points="490.09 297.25 485.05 311.19 478.17 289.99"/><path class="cls-2" d="M499.89,311.19c0,.11-14.84,0-14.84,0l21-14"/><polyline class="cls-2" points="493.31 323.44 485.05 311.19 491.94 284.13"/><ellipse class="cls-3" cx="490.09" cy="294.09" rx="5.04" ry="3.16"/><ellipse class="cls-3" cx="477.92" cy="286.52" rx="5.43" ry="3.48" transform="translate(-19.76 35.89) rotate(-4.21)"/><ellipse class="cls-3" cx="469.21" cy="303.38" rx="3.16" ry="5.04" transform="translate(-88.88 330.42) rotate(-35.66)"/><ellipse class="cls-3" cx="503.1" cy="312.26" rx="3.16" ry="5.04" transform="translate(-42.81 82.91) rotate(-9.04)"/><ellipse class="cls-3" cx="496.04" cy="325.01" rx="5.04" ry="3.16" transform="translate(-33.45 592.09) rotate(-60)"/><ellipse class="cls-3" cx="509.06" cy="296.31" rx="3.16" ry="5.04" transform="matrix(0.96, -0.28, 0.28, 0.96, -62.07, 152.27)"/><ellipse class="cls-3" cx="493.31" cy="281.39" rx="3.16" ry="5.04" transform="translate(86.79 677.96) rotate(-73.99)"/><path class="cls-1" d="M449.5,368.89s-2.29,27.44,10.54,31.53C460,400.42,461.75,386.35,449.5,368.89Z"/><path class="cls-2" d="M475.24,425.44S492.55,348,553.93,303.38l9.69-20.92"/><polyline class="cls-2" points="551.06 292.46 553.93 303.38 564.11 301.01"/><polyline class="cls-2" points="569.89 313.66 553.93 303.38 557.14 313.19"/><line class="cls-2" x1="576.94" y1="297.12" x2="553.93" y2="303.38"/><ellipse class="cls-3" cx="566.96" cy="298.73" rx="3.65" ry="6.39" transform="translate(-62.62 418.37) rotate(-38.54)"/><ellipse class="cls-3" cx="566.2" cy="279.88" rx="3.65" ry="6.39" transform="translate(-32.07 482.34) rotate(-45)"/><ellipse class="cls-3" cx="548.45" cy="287.49" rx="3.65" ry="6.39" transform="translate(-24.72 53.14) rotate(-5.42)"/><ellipse class="cls-3" cx="580.5" cy="296.31" rx="3.65" ry="6.39" transform="translate(-51.23 136.01) rotate(-12.8)"/><ellipse class="cls-3" cx="572.68" cy="316.96" rx="6.39" ry="3.65" transform="translate(167.93 831.35) rotate(-80.77)"/><ellipse class="cls-3" cx="558.23" cy="317.58" rx="6.39" ry="3.65" transform="translate(4.08 642.23) rotate(-60)"/><path class="cls-5" d="M515,318.57a80.87,80.87,0,0,0-12.76,42.74S514.61,337.34,515,318.57Z"/><path class="cls-5" d="M489.18,386.25c2.91-5.23,10.83-16.75,26.59-25.59C515.77,360.66,506.7,381.17,489.18,386.25Z"/><path class="cls-2" d="M418.65,381.16s13,18.56,13,52.74"/><polyline class="cls-2" points="420.49 400.52 426.15 397.23 431.69 396.37"/><path class="cls-2" d="M427.37,386c-.13,0-1.22,11.21-1.22,11.21l-9.65-5.38"/><line class="cls-2" x1="435.45" y1="386.02" x2="426.15" y2="397.23"/><path class="cls-4" d="M430.47,382.73c.24,1.55-1.51,3.1-3.89,3.46s-4.51-.6-4.75-2.16,1.5-3.09,3.89-3.45S430.24,381.17,430.47,382.73Z"/><ellipse class="cls-4" cx="413.59" cy="391.32" rx="4" ry="2.62" transform="translate(-155.59 376.54) rotate(-41.93)"/><path class="cls-4" d="M437.51,394.27c-.18,1.56-2.26,2.61-4.66,2.34s-4.2-1.76-4-3.32,2.26-2.6,4.65-2.33S437.69,392.71,437.51,394.27Z"/><ellipse class="cls-4" cx="438.08" cy="384.9" rx="2.84" ry="4.37" transform="translate(-70.58 99.72) rotate(-12.03)"/><ellipse class="cls-4" cx="417.49" cy="378.87" rx="4.02" ry="2.57" transform="translate(-126.31 230.13) rotate(-26.93)"/><ellipse class="cls-4" cx="417.92" cy="401.04" rx="2.54" ry="3.91" transform="translate(-144.53 262.69) rotate(-30)"/><path class="cls-1" d="M423.8,415.81s1.07,9.06,7.53,11.07C431.33,426.88,430.4,418.85,423.8,415.81Z"/><ellipse class="cls-3" cx="125.05" cy="424.22" rx="5.24" ry="3.54" transform="translate(-263.34 212.67) rotate(-45)"/><ellipse class="cls-3" cx="131.63" cy="440.67" rx="5.24" ry="3.54" transform="translate(-325.34 492.63) rotate(-79.86)"/><ellipse class="cls-3" cx="122.53" cy="453.14" rx="3.54" ry="5.24" transform="matrix(1, -0.05, 0.05, 1, -20.65, 6.09)"/><ellipse class="cls-3" cx="156.09" cy="437.93" rx="3.54" ry="5.24" transform="translate(-224.38 170.74) rotate(-35.3)"/><ellipse class="cls-3" cx="147.37" cy="424.22" rx="3.11" ry="4.6" transform="translate(-296.17 494.56) rotate(-79.86)"/><ellipse class="cls-3" cx="136.51" cy="455.92" rx="4.48" ry="3.03" transform="translate(-209.67 129.33) rotate(-30)"/><path class="cls-2" d="M128.48,425.59s10.15,6.37,14.61,15.08c0,0,25.17,28.15,25.87,76.77"/><polyline class="cls-2" points="146.82 427.27 143.09 440.67 152.6 438.96"/><polyline class="cls-2" points="138.39 452.51 143.09 440.67 126.07 452.98"/><line class="cls-2" x1="135.23" y1="440" x2="143.09" y2="440.67"/><path class="cls-1" d="M144.31,470.21s5.73,19,21.84,21.28C166.15,491.49,162.6,475.45,144.31,470.21Z"/><path class="cls-2" d="M440.4,553.41a101.27,101.27,0,0,0,.22,11"/><path class="cls-2" d="M462.59,475.11S446.32,502,442.21,535.64"/><path class="cls-4" d="M478.18,454.07s-.49,5.77-5.05,6.49C473.13,460.56,472.86,456,478.18,454.07Z"/><path class="cls-4" d="M478.27,458.72s-2.07,5-8.74,5.31C469.53,464,471.12,457.32,478.27,458.72Z"/><path class="cls-4" d="M474.12,454.66s1.32,8.78-3.18,10.49C470.94,465.15,468.48,459.48,474.12,454.66Z"/><path class="cls-4" d="M477.21,462.21a12.7,12.7,0,0,1-11.23,8.6S466.78,461.9,477.21,462.21Z"/><path class="cls-4" d="M471,458s-6.82,3.22-4.34,13.1C466.62,471.14,473.64,469.21,471,458Z"/><path class="cls-4" d="M466.22,462s3.49,9.52-3,13.19C463.27,475.21,459.71,468.89,466.22,462Z"/><path class="cls-4" d="M475.27,468s-3.91,8.31-12.68,7.36C462.59,475.31,463.3,467.11,475.27,468Z"/><path class="cls-2" d="M486.41,469.86a78.35,78.35,0,0,0-34.9,29"/><path class="cls-2" d="M449.2,505.37s15.29-21.27,40.81-31.2"/><path class="cls-4" d="M485.86,476.41s-6.1,1.64-6.38,6C479.48,482.4,484.51,482.4,485.86,476.41Z"/><path class="cls-4" d="M481.12,476.82s-7.33,4.7-5.81,11A10.49,10.49,0,0,0,481.12,476.82Z"/><path class="cls-4" d="M485.43,481.06a11.9,11.9,0,0,0-11.2,5.74S481.55,487.66,485.43,481.06Z"/><path class="cls-4" d="M476.23,479.43s-9,4.12-6.55,12.12C469.68,491.55,477.86,489.25,476.23,479.43Z"/><path class="cls-4" d="M483.59,484.81s-10.29-1.37-14.13,5.92C469.46,490.73,477.25,493.77,483.59,484.81Z"/><path class="cls-4" d="M470.53,481.71s-6.57,5.7-2.7,11.67C467.83,493.38,474.17,489.43,470.53,481.71Z"/><path class="cls-4" d="M479.29,489.91s-8.61-3.33-11.46,3.47C467.83,493.38,473.06,496.9,479.29,489.91Z"/><path class="cls-2" d="M442.81,553a88.68,88.68,0,0,0,1,14.16"/><path class="cls-2" d="M467.83,493.38S451.14,508.43,445,534.65"/><path class="cls-2" d="M489,496.56s-28.18,9.2-41.17,28.47"/><path class="cls-2" d="M485.43,491.68S464,499.52,450.33,519"/><path class="cls-1" d="M647.6,632.1a36.52,36.52,0,0,0-2.31,23.32s-6.47,4.06-5.48,11.91-.69,14.3-9.84,16.95-12.82,5.1-14.54,9.31a27.73,27.73,0,0,0,1-16.19c-2.29-8.33-.38-13.51,6-17.71s2.13-14.47,2.13-14.47S640.47,642.87,647.6,632.1Z"/><path class="cls-2" d="M638.87,646s-12,17.47-23.44,47.59"/><path class="cls-9" d="M563.72,606.34s6.47,13.33.57,21.46c0,0,11.22,9.62,7.38,27.72,0,0,7.17,2.45,7,16.52-.13,10.07,11.39,14.4,14.55,20.86-.91-11.22,5.32-17,1.29-25.39a30,30,0,0,1-2.5-18.08s-13.74-11.32-10.12-27.92C581.88,621.51,569,618.7,563.72,606.34Z"/><path class="cls-2" d="M571.77,624s14.66,22.63,21.44,68.94"/><path class="cls-6" d="M603.8,583.73s1.88,10.77-10.19,21.81c0,0,9.29,16-2.08,26.63a16.74,16.74,0,0,1,3.46,18.6c-3.85,9-6.34,19.92-2.92,26.5,3.74,7.19,6,11.3,5.36,16.53,0,0-.28-5.62,9.48-12.47s5-19.8,4.5-29.08c-.42-8.3,1.17-14.72,7.11-19.24,0,0-13.29-11.81-4.46-26.3C614.06,606.71,605.49,598.45,603.8,583.73Z"/><path class="cls-2" d="M605.37,610.61s5,31.8-7.94,83.19"/><path class="cls-9" d="M601.74,695.76c5.46-10.16-4.37-26.88,4.42-35.9s3.77-21,3.77-21c19.61-9.69,10.16-27.21,10.16-27.21,11.82-1.23,13.24-14,13.24-14s-1.39,13,4.1,19.05c0,0-11.82,13-3.64,26.55,0,0-12.08,7.92-11,21.13C624.38,682.63,609.72,685.78,601.74,695.76Z"/><path class="cls-2" d="M626.79,625.28c0,14.33-12.16,38.08-25,70.48"/></svg>