<svg id="圖層_1" data-name="圖層 1" xmlns="http://www.w3.org/2000/svg" viewBox="0 0 754.23 1066.7"><defs><style>.cls-1,.cls-12,.cls-13,.cls-5{fill:none;}.cls-2{fill:#58ad5d;}.cls-10,.cls-13,.cls-2,.cls-3,.cls-4,.cls-6,.cls-7,.cls-8,.cls-9{stroke:#000;}.cls-13,.cls-2,.cls-3,.cls-4,.cls-5,.cls-6,.cls-9{stroke-miterlimit:10;}.cls-10,.cls-12,.cls-13,.cls-2,.cls-3,.cls-4,.cls-5,.cls-6,.cls-7,.cls-8,.cls-9{stroke-width:0.25px;}.cls-3{fill:#ffe6c7;}.cls-4{fill:#ffaa85;}.cls-12,.cls-5{stroke:#231815;}.cls-6{fill:#d6cd25;}.cls-7,.cls-8,.cls-9{fill:#1789a0;}.cls-7{stroke-linecap:round;}.cls-10,.cls-12,.cls-7,.cls-8{stroke-linejoin:round;}.cls-10{fill:#fff;}.cls-11{fill:#231815;}</style></defs><title>all</title><rect class="cls-1" x="-730.09" y="-61.98" width="841.8" height="1190.55"/><path class="cls-2" d="M120.3,811.24s1.51,96,70.25,130.39c49.14,24.57,93.63,21.4,156.37,46.71,64.43,26,140.45-15,173.63-31.48,65.47-32.61,99.83-84.22,99.7-181.51Z"/><path class="cls-3" d="M620.19,760.59s-7.18-73.28-76.78-117.2h0c-60-41-31.69-68.93-71.5-115-35.35-40.86-25.55-87.75-49.39-101.14-30.19-17-55.45,13.39-79.95,45.67C319.08,503.9,292,526.61,261,569.6c-33.59,46.67-77.45,91.7-77.45,91.7h0c-23.38,16.72-41.87,37.94-53,64.31-9.53,22.56-13.68,48.9-10.92,79.44.19,2,.39,4.11.64,6.19,6.85,57.55,58.29,103.53,187.8,115.19C445.25,938.77,627,912.69,620.19,760.59Z"/><path class="cls-2" d="M294.54,462.29s-2.31-10.18,2.19-13.39c4.07,3.13,2.32,13.39,2.32,13.39Z"/><path class="cls-2" d="M301.11,465.49c1.12-5.07,3.82-7.78,1.2-9.22-2.34-1.3-5.4,3.82-5.62,4.5-.23-.68-3.29-5.8-5.63-4.5-2.62,1.44.08,4.15,1.2,9.22,1.27,5.76,5.93,35.79,2.78,41.86h3.26C295.15,501.28,299.84,471.25,301.11,465.49Z"/><path class="cls-2" d="M300.88,472.48c1.16-5.25,4.35-8.05,1.63-9.55-2.43-1.34-5.59,4-5.82,4.66-.24-.7-3.4-6-5.83-4.66-2.71,1.5.47,4.3,1.63,9.55,1.32,6,.71,75,.71,75h7S299.57,478.45,300.88,472.48Z"/><path class="cls-2" d="M320.9,462.29s-2.31-10.18,2.19-13.39c4.07,3.13,2.31,13.39,2.31,13.39Z"/><path class="cls-2" d="M327.47,465.49c1.12-5.07,3.82-7.78,1.2-9.22-2.34-1.3-5.4,3.82-5.63,4.5-.22-.68-3.28-5.8-5.62-4.5-2.62,1.44.08,4.15,1.2,9.22,1.27,5.76,5.93,35.79,2.78,41.86h3.26C321.5,501.28,326.2,471.25,327.47,465.49Z"/><path class="cls-2" d="M327.24,472.48c1.16-5.25,4.34-8.05,1.63-9.55-2.43-1.34-5.59,4-5.83,4.66-.23-.7-3.39-6-5.82-4.66-2.72,1.5.47,4.3,1.63,9.55,1.31,6,.71,75,.71,75h7S325.92,478.45,327.24,472.48Z"/><path class="cls-2" d="M349.15,462.29s-2.31-10.18,2.19-13.39c4.07,3.13,2.32,13.39,2.32,13.39Z"/><path class="cls-2" d="M355.72,465.49c1.12-5.07,3.82-7.78,1.2-9.22-2.34-1.3-5.4,3.82-5.63,4.5-.22-.68-3.28-5.8-5.62-4.5-2.62,1.44.08,4.15,1.2,9.22,1.27,5.76,5.93,35.79,2.78,41.86h3.26C349.76,501.28,354.45,471.25,355.72,465.49Z"/><path class="cls-2" d="M355.49,472.48c1.16-5.25,4.34-8.05,1.63-9.55-2.43-1.34-5.59,4-5.83,4.66-.23-.7-3.39-6-5.82-4.66-2.72,1.5.47,4.3,1.63,9.55,1.32,6,.71,75,.71,75h7S354.17,478.45,355.49,472.48Z"/><path class="cls-2" d="M426.7,391.73S465,421.94,466.14,473H471s0-49.33-38.73-89.74l-9.77-1.6Z"/><path class="cls-4" d="M348.62,423.63c-15.67-13.19-6.93-59,63.85-58.35C412.47,365.28,377.14,447.64,348.62,423.63Z"/><path class="cls-5" d="M348.62,423.63s15.59-31.58,63.85-58.35c0,0-37.69,36.65-49,62.31"/><path class="cls-5" d="M342.57,413s17.58-36.94,69.9-47.71"/><path class="cls-4" d="M371.53,327.87c8.64-16.36,43.24-19.67,56.32,0,9.39,14.1,7.67,34.58-13.08,41.85S353.19,362.55,371.53,327.87Z"/><path class="cls-5" d="M373,325.62s22.6,12.56,41.77,44.1c0,0-1.3-40.15-20.88-55"/><path class="cls-5" d="M366.91,347.33c.18-.21,22.38,1.84,47.86,22.39"/><path class="cls-4" d="M414.5,435.17c11.41,0,18.65-7.73,18.81-29.93s-20.84-40-20.84-40-14.52,8.84-16.88,38C393.63,427.33,404.83,435.17,414.5,435.17Z"/><path class="cls-5" d="M405,432.3s-3-30.25,7.52-67c0,0,7.72,30.83,2,69.89"/><path class="cls-5" d="M412.47,365.28c20.84,32.78,12.64,67,12.64,67"/><path class="cls-4" d="M484.47,377.82c6.6-15.7-10.62-33.18-33-30.49S414.77,365,414.77,365s7,20.86,28.06,26.28S478.73,391.49,484.47,377.82Z"/><path class="cls-5" d="M485.87,371.75s-24.58-23.25-71.1-6.72c0,0,54.83,6,69.12,14.09"/><path class="cls-5" d="M480.05,384.88s-40.34,8.53-65.28-19.85"/><path class="cls-4" d="M443.37,310.67c12.71,1,17.61,13.52,7,32.27s-33.74,19.4-33.74,19.4-4.65-18.5,5.28-36.72C427.81,314.71,437.05,310.16,443.37,310.67Z"/><path class="cls-5" d="M443.37,310.67s-22.43,18.89-26.78,51.67c0,0,18.75-31.8,34.6-48.92"/><path class="cls-5" d="M454.36,317.06s.21,27-37.77,45.28"/><path class="cls-6" d="M401.68,367.37s-4.06,3.64-6,12.54c-2.52,11.37,6.19,15.71,11.81,7.77a27.67,27.67,0,0,0,5-15.93s4.12,15.93,14,11.65-.29-17.85-6.5-19.2c0,0,7.14,3.81,13.33-4.13s-3.19-15.76-14-4.38c0,0,5.64-17.21-3.61-17.36s-4.11,18.25-4.11,18.25-19.41-6.82-21.64,1.91S401.68,367.37,401.68,367.37Z"/><path class="cls-7" d="M394.22,344.34c3.75-3.37,14.92,9.17,18.25,20.94C412.47,365.28,387.71,350.19,394.22,344.34Z"/><path class="cls-7" d="M387.71,367.21c-1.16-5.81,13.81-6.87,24.76-1.93C412.47,365.28,389.62,376.73,387.71,367.21Z"/><path class="cls-7" d="M410.72,338.35c4.74-.83,7.46,17.86,1.75,26.93C412.47,365.28,402.47,339.8,410.72,338.35Z"/><path class="cls-6" d="M260.08,837.1c47.42,4.18,101.81,25.1,142.25,0S503.44,801.54,493,749.24s-73.91-60.67-140.16-69.63-106.69.6-158.29,13.84-63.95,32.16-63.95,32.16c-9.53,22.56-13.68,48.9-10.92,79.44C141,847.61,212.66,832.92,260.08,837.1Z"/><circle class="cls-4" cx="591.13" cy="502.4" r="4.42"/><circle class="cls-4" cx="569.87" cy="528.64" r="4.42"/><circle class="cls-4" cx="589.55" cy="539.38" r="4.42"/><circle class="cls-4" cx="557.78" cy="541.43" r="4.42"/><circle class="cls-4" cx="576.8" cy="562.24" r="4.42"/><circle class="cls-4" cx="599.08" cy="516.43" r="3.95"/><circle class="cls-4" cx="580.61" cy="512.13" r="3.95"/><path class="cls-5" d="M590.28,506.83s-11.22,55.95-61.12,71.41"/><path class="cls-5" d="M581,516.08s.69,5.07,3.64,8.06c0,0,6.67-1.26,11.32-5.33"/><path class="cls-5" d="M569.87,533.06s1.07,9.5,3.36,11.94a32.38,32.38,0,0,0,13.31-2.39"/><path class="cls-5" d="M557.78,545.85s-.51,10.16,1.41,15.23c0,0,8,1.84,13.24,1.84"/><path class="cls-5" d="M413.07,151.4a107.84,107.84,0,0,0-.81,24.43"/><path class="cls-5" d="M227.74,319.73c.75-.25,11.85-3.53,19.92-3.78"/><path class="cls-2" d="M239.63,277.81s-16.28-11.74-46.78-11c-28,.71-42.63-15.78-39.42-49.57,3.7-38.92,38.67-53.4,48.6-67.67s6.81-33,23.61-37.22c15.83-4,24.77,14.27,24.77,14.27s-9.56-29.19,12.41-40.95c17.58-9.41,23.57,3.73,48.38-5s40.22-15.4,51.42-6.82c18.8,14.4-2.41,36.6,18.68,67.61,0,0-9.3,149.83-11.16,148.12S239.63,277.81,239.63,277.81Z"/><ellipse class="cls-4" cx="274.73" cy="165.76" rx="13.84" ry="9.75" transform="translate(0.25 331.94) rotate(-62.3)"/><path class="cls-5" d="M282.2,172.2s29.8,19.94,56.18,55.1"/><ellipse class="cls-4" cx="312.42" cy="145.62" rx="12.76" ry="5.83" transform="translate(-31.92 161.19) rotate(-27.58)"/><path class="cls-5" d="M313.87,151.4s11.5,36.53,29.53,58.74"/><ellipse class="cls-4" cx="260" cy="198.08" rx="13.4" ry="7.69" transform="translate(11.87 410.84) rotate(-77.91)"/><path class="cls-5" d="M322.17,222.23C297.56,196.59,268.26,197,268.26,197"/><ellipse class="cls-4" cx="304.12" cy="179.8" rx="13.73" ry="9.23" transform="translate(-46.07 226.58) rotate(-38.2)"/><path class="cls-5" d="M311.49,185.58s11.61,21,23.24,31.06"/><ellipse class="cls-4" cx="333.01" cy="154.42" rx="7.52" ry="4.29" transform="translate(-26.41 79.88) rotate(-13.16)"/><path class="cls-5" d="M332.29,158.88a113,113,0,0,0,2.44,24.87"/><path class="cls-6" d="M277.71,232.72c3.1-6.2-2.92-18.61,21.18-22.95s12.31-29.15,30.3-41.56,34.31,15.51,34.31,15.51,12.92,89.86,9.93,92.54S277.71,232.72,277.71,232.72Z"/><path class="cls-5" d="M202.05,218.08a99.37,99.37,0,0,1,41.66.89"/><path class="cls-5" d="M208.73,201.11s23.52-.84,34,5.59"/><path class="cls-5" d="M219.39,182.38s13.27,3.42,17.29,7.44"/><path class="cls-5" d="M228,169.31s6.23,3.82,8.65,6.64"/><path class="cls-5" d="M336.18,88.3a99.48,99.48,0,0,0-2.68,44.63"/><path class="cls-5" d="M323.92,92.72s-4.22,19.3,1,36.79"/><path class="cls-5" d="M309,99.16s-.51,12.06,1.25,19.29"/><path class="cls-5" d="M292.36,106.19a24.06,24.06,0,0,0,2.21,7.84"/><path class="cls-5" d="M343.4,96.54A73.69,73.69,0,0,0,341.21,114"/><path class="cls-2" d="M364.77,262.46s-16-13.42-20.9-84.37c-3.91-56.6,17.59-61.41,27.18-60.27,11.52,1.38,9.69-11.78,24.11-13.1,16.86-1.53,30,18.54,26.55,52.24a84.18,84.18,0,0,1,9.08,33.18c1,18.87-10,98-12.05,99s-37.21,0-37.21,0Z"/><path class="cls-5" d="M402.07,129.51s-2.77,35.52,0,66.12"/><path class="cls-5" d="M387.13,141.37s-1.37,16.86,0,27.86"/><path class="cls-5" d="M373.87,143.2s1.44,12,2.54,19.37"/><path class="cls-2" d="M225.64,332.42s-33-11.7-32.79-38.16c.24-30.66,32.38-24.17,48.67-56,21-41.07,95.14-27.29,152.66,36.14,0,0,13.27,33.92,10.32,36.13S253.32,353.25,225.64,332.42Z"/><path class="cls-5" d="M219.41,296.27c1.77-.5,39.18-5.1,56.5,0"/><path class="cls-5" d="M219.41,308.13s32.92-6.31,47.74-1.26"/><path class="cls-5" d="M238.83,282.9s18.83-3.65,33.8,1.52"/><path class="cls-5" d="M262,271.05c1,0,8.23,0,12.69,3.53"/><path class="cls-5" d="M317.16,214.15a24.21,24.21,0,0,1,12.38,7.59"/><path class="cls-5" d="M334.7,198.55a31.14,31.14,0,0,0,5.42,12"/><path class="cls-5" d="M326.4,208.32s5.1,3.56,7.67,6.84"/><path class="cls-3" d="M225.64,332.42s35.47,30.23,128.52-3.84c91.53-33.5,141.69,97.56,120.87,167.09C449.07,582.38,458.51,614,458.51,614l35.66,15.21s-12.56-70.9,0-127.57c15.46-69.75-13.83-129.58-33.44-163.11-24.49-41.85-27-66.77-24.76-117S421.71,157,421.71,157s9.76,40.51,0,69.77-8.25,51.77-8.25,51.77S402.21,232.73,378.2,208c0,0,6.75,19.5,6.75,48s12,33.76,12,33.76-17.26-13.47-46-12.23c-32.54,1.42-33.54,12.23-60.54,13.73,0,0,13.85,8.25,51.56,8.25s42.21,3.75,42.21,3.75-25.31-3.73-78,19.51S225.64,332.42,225.64,332.42Z"/><path class="cls-7" d="M598.41,239.27s-5.66,25.26-20.35,47.88-35.14,43.55-29.94,110.21a208.61,208.61,0,0,1,27.29-31.43C597.14,345.19,614.66,306.54,598.41,239.27Z"/><path class="cls-5" d="M598.41,239.27s3.2,50.75-25.34,94.35c-24.48,37.41-25,63.74-25,63.74"/><path class="cls-5" d="M576.56,289.43s6.79,13.6-.19,38.87c0,0,15-26.24,28.34-35.84"/><path class="cls-5" d="M564.58,307.59s4.61,21.37-1.87,43.76"/><path class="cls-5" d="M550.59,342.85s6.48,16.1,4.89,24.53"/><path class="cls-5" d="M561.17,354.42s15.87-18.76,37.91-27"/><path class="cls-5" d="M553.1,374s13.38-11.34,29.06-15.31"/><path class="cls-4" d="M488.29,339.54s-5.63,20,8.31,32.32c0,0,6.56,5.14,12.65,4.53,3.72-.37,12.9-7.59,12.9-7.59l-1.07-12.65s-5-18.35-24.57-21.45c0,0,2.94-9.07-.79-9.39s-2.14,8-2.14,8-3.52-8.82-7.23-6.38c-3.45,2.27,3.44,8.85,3.44,8.85s-8.58-4.28-9.25-.19S488.29,339.54,488.29,339.54Z"/><path class="cls-5" d="M491.9,342.85s-.86,23.35,14,29.72"/><path class="cls-5" d="M496.49,346.76s1.73,15.55,14.07,21.85"/><path class="cls-5" d="M498.32,343.54s7.79,6.83,10.26,15.21"/><path class="cls-5" d="M503.16,341.31a28.82,28.82,0,0,1,13.74,23.52"/><path class="cls-4" d="M425.72,237.2c-.08-12.7,13.65-26.35,37.8-24.93,22.23,1.31,40,22.19,40,22.19s-11.9,18.68-35.8,23.44S425.87,258.71,425.72,237.2Z"/><path class="cls-5" d="M425.72,237.2s30.48-10.61,77,4.63c0,0-36.09-25.66-70.92-19.08"/><path class="cls-5" d="M430.6,252.35c.5.54,19.95-12.86,72.16-10.52"/><path class="cls-4" d="M506.53,231.74A79.87,79.87,0,0,1,546,213.13c23.84-4,41.91,3.39,37.27,23.23s-30.81,19.54-45.2,15.06S512.1,238.88,506.53,231.74Z"/><path class="cls-5" d="M572,250.42s-20.48-14.48-65.51-18.68c54.41-4.86,76,7.2,76,7.2"/><path class="cls-4" d="M503.55,234.46s-17.39,19.44-12.06,54,42.8,27.34,44.9-2.67S521.67,237.07,503.55,234.46Z"/><path class="cls-2" d="M529.88,302.93s25.66,73.31,5.68,120.76c0,0-2.8-24.22-12.36-41.74a11.61,11.61,0,0,1-.63-10c1.83-4.51,1.56-13.56-2.34-18.2,0,0,2.61,11.49-3.24,16.44,0,0-4.92-4.42-6.45-9.31,0,0-1.81,8,2,12.4a31.57,31.57,0,0,1-15.91-1.46s2.55,5.36,14.72,5.87a8.63,8.63,0,0,1,7,4.95c4.7,9.15,14.29,31.05,12.72,54.94l4.43,1.06s32.26-46.15-2.58-141Z"/><path class="cls-5" d="M512.69,311.42s-22.81-21.91-9.14-77c0,0,6.17,45.72,17,75.42"/><path class="cls-4" d="M449,321.45c11,5.17,29-1.33,35.22-23.08s6.64-47.06,19.32-63.91c0,0-44,15.09-58.78,43.17S442.09,318.19,449,321.45Z"/><path class="cls-5" d="M439.21,310.23s3.14-23.48,64.34-75.77C530.57,266,531.34,301,531.34,301"/><path class="cls-5" d="M471,318.37s-1.36-35.64,32.58-83.91c-56.3,62.4-52.12,87.9-52.12,87.9"/><path class="cls-4" d="M541.9,170c9,6.62,11.79,22.17-6.31,41-18.69,19.49-33.34,35.59-33.34,35.59s-19.59-24.23-8.11-53.48C502.92,170.75,529.88,161.16,541.9,170Z"/><path class="cls-5" d="M543.76,171.54s-29.09,11.59-40,60.62"/><path class="cls-5" d="M530.76,166.72s-33.41,20-30.8,63.35"/><path class="cls-5" d="M583.77,227.26s-25.68-11.3-77.24,4.48C521.33,200,548,178.2,548,178.2"/><path class="cls-6" d="M499.86,247.42s-3,15.18,6.42,14.42,5.05-20.27,5.05-20.27,14.42,5.9,18.51-3.25-9.56-14.7-19.67-8.54c0,0,11.46-14.05,2.91-16.8s-8.82,14.89-8.82,14.89-3.67-14-12.38-9.2S498.76,235,498.76,235s-22.92-9.25-23.23,3.93S495.37,241,495.37,241s-24.37,17.45-15.14,24.2C487.73,270.72,499.86,247.42,499.86,247.42Z"/><path class="cls-8" d="M500.53,208.79c6.17-3.62,10.63,18.85,2.23,33C498.39,237.78,495.67,211.65,500.53,208.79Z"/><path class="cls-7" d="M471.31,227.46c2.31-4.59,20.8,2.42,31.45,14.37C502.76,241.83,466.34,237.36,471.31,227.46Z"/><path class="cls-7" d="M485.79,212.42c5.26-3.9,16.08,16.27,17,29.41C495.47,240.12,479.64,217,485.79,212.42Z"/><path class="cls-7" d="M483.4,391.31s9,12.75,13.57,38.89,16.44,44.57,46.44,51.64c0,0,5.25-38.06-15.26-61.15C513.77,404.51,493.92,402.15,483.4,391.31Z"/><path class="cls-5" d="M483.4,391.31s46.63,45.27,60,90.53"/><path class="cls-5" d="M495.15,421.38s10.75,1.36,24,12.78c0,0-5-14.47-5.42-25.15"/><path class="cls-5" d="M500.08,443.1a64.44,64.44,0,0,1,33.82,15.5s-7.67-22.37-4-35.84"/><path class="cls-2" d="M551.28,426.13s2.4-16.61,20.59-14.41,14.17,23.18,6.47,26.94c0,0,11.61,16,6.5,32.89s-22.54,21-22.54,21,17.43,51.42-37.39,67.69-67.8-86.49-11.5-92.12c0,0-4.2-21,9.78-32.9C536.75,423.63,551.28,426.13,551.28,426.13Z"/><path class="cls-5" d="M567.44,429.09s-54.18,61.66-71.23,127.68"/><path class="cls-2" d="M391.22,428c12.94-10.59,30.76-4.31,34.55,16.76,0,0,24.39-6,39,8s8.61,39.2,8.61,39.2,20.85,9.06,21.3,39.43-9.06,40-27.19,42.2-56.18-4.59-56.18-55.47c0-3.44-40.62-9.29-20.84-59.51C390.51,458.6,377,439.59,391.22,428Z"/><path class="cls-5" d="M403.64,446.71S456.36,499.73,471,573"/><path class="cls-9" d="M245.73,681.44c0-7.94,7-18.62,15.53-18.42s16.57,13.09,15.05,20.2c-1.36,6.34-16.08,8.11-22,7.92S245.72,685.82,245.73,681.44Z"/><ellipse class="cls-10" cx="254.94" cy="670.4" rx="1.78" ry="1.19" transform="translate(-453.11 555.98) rotate(-60)"/><ellipse class="cls-10" cx="255.5" cy="677.97" rx="3.34" ry="1.4" transform="translate(-469 683.03) rotate(-69.75)"/><circle class="cls-3" cx="132.32" cy="571.01" r="5.4"/><circle class="cls-3" cx="140.27" cy="608.08" r="4.36"/><circle class="cls-3" cx="130.06" cy="588.16" r="4.54"/><circle class="cls-3" cx="153.06" cy="573.54" r="3.49"/><circle class="cls-3" cx="165.15" cy="594.22" r="4.26"/><path class="cls-5" d="M135.91,575s20.91,22.6,32.22,54.19"/><polyline class="cls-5" points="134.1 590.23 153.65 599.27 153.01 576.92"/><polyline class="cls-5" points="144.56 608.9 160.38 611.32 163.99 598.49"/><line class="cls-5" x1="146.51" y1="582.31" x2="145.75" y2="587.37"/><line class="cls-5" x1="143.66" y1="591.27" x2="149.17" y2="592.29"/><path class="cls-5" d="M153.64,619.26c.56,0,11.46,2.18,11.49,2.26s3-10.2,3-10.2"/><path class="cls-2" d="M117.47,754c7.61-3.4,17,15.94,11.13,33.59C128.6,787.56,104.55,759.75,117.47,754Z"/><path class="cls-2" d="M128.77,758.94c7.76-1.81,19.93,21.27,1.66,36.51C130.43,795.45,115.58,762,128.77,758.94Z"/><path class="cls-2" d="M96.22,768.71c3.67-7.34,19.88,2.65,30.33,20.34C126.55,789.05,88.51,784.13,96.22,768.71Z"/><path class="cls-2" d="M110.1,765.45c7-4.84,24,16.91,22.79,31.87C126.72,797.87,101.19,771.62,110.1,765.45Z"/><path class="cls-2" d="M95.19,785.33c2.66-9.23,28.22-1.13,35.24,10.12C124.15,805.37,91.59,797.84,95.19,785.33Z"/><path class="cls-4" d="M130.43,801.73s2.25,6.28,5.9,4.08-.55-7.4-.55-7.4,5,2.64,6.77-1.55c1.37-3.29-6.24-7.14-12.67-2.7s-6.43,10.48-4.33,12.12S130.18,806,130.43,801.73Z"/><path class="cls-5" d="M153,840.75c-4.12-24.73-16.69-34.94-16.69-34.94"/><path class="cls-9" d="M161.7,806.85c6.92,2.4,4,22.71-9.42,36.26C146.69,832.21,148.33,802.22,161.7,806.85Z"/><path class="cls-9" d="M126.55,824.74c1.49-6.86,20.73-4.3,27.2,14,0,0-2.26,2.94-9.08-1.32S125.1,831.39,126.55,824.74Z"/><path class="cls-5" d="M126.55,824.74s12-1.21,27.2,14"/><circle class="cls-4" cx="153.85" cy="532.51" r="5.95"/><circle class="cls-4" cx="202.59" cy="552.15" r="5.52"/><circle class="cls-4" cx="178.11" cy="573.54" r="5.61"/><circle class="cls-4" cx="161.93" cy="552.91" r="4.04"/><circle class="cls-4" cx="176.21" cy="532.51" r="3.95"/><path class="cls-5" d="M158.74,535.56s43.69,15.94,64,89.29"/><polyline class="cls-5" points="183.75 573.54 200.18 573.54 202.14 557.66"/><path class="cls-5" d="M165.56,552c3.16-.81,13.88-2.77,13.88-2.77l-2.22-12.86"/><line class="cls-5" x1="180.16" y1="557.67" x2="186.58" y2="556.23"/><line class="cls-5" x1="165.56" y1="535.56" x2="166.92" y2="539.82"/><line class="cls-5" x1="195.58" y1="560.04" x2="194.53" y2="565.6"/><line class="cls-5" x1="198.81" y1="580.78" x2="204.84" y2="581.1"/><line class="cls-5" x1="210.8" y1="580.2" x2="208.11" y2="587.05"/><path class="cls-9" d="M412.65,708.91c-4.06-7.64,8.21-25,18.56-24s18.57,14.45,18.57,20.37C449.78,713,416.92,717,412.65,708.91Z"/><ellipse class="cls-10" cx="418.5" cy="701.28" rx="3.2" ry="1.56" transform="translate(-396.82 654.46) rotate(-55.89)"/><ellipse class="cls-10" cx="425.26" cy="692.91" rx="2.71" ry="1.8" transform="translate(-386.92 656.38) rotate(-55.89)"/><ellipse class="cls-10" cx="427.93" cy="698.92" rx="2.76" ry="1.45" transform="translate(-382.64 578.14) rotate(-50.05)"/><path class="cls-5" d="M281.52,938.18a141.17,141.17,0,0,0,43,24.85"/><path class="cls-5" d="M360.89,969.16c18.5,0,27.57-20.71,43.88-24.34"/><path class="cls-5" d="M402.7,981.07c17.86-1.29,35.73-28.22,48.67-29.77"/><path class="cls-5" d="M455.26,966.18c11.39.65,26.41-18.51,39.35-18.77"/><path class="cls-5" d="M373.32,942.23s-10.16,3.29-15.43,11.19"/><path class="cls-5" d="M175.25,907s9.1,15,29.09,22.05"/><line class="cls-5" x1="210.95" y1="930.92" x2="216.59" y2="932.35"/><path class="cls-5" d="M233.46,927.43s8.86,10.75,27.26,18"/><path class="cls-5" d="M508.54,943.47a30,30,0,0,0,11.27-10"/><path class="cls-9" d="M423.84,672.94c-3.27-5.78,5.48-17.87,10.79-17.57s12.72,9.44,9.61,16.38S426,676.78,423.84,672.94Z"/><ellipse class="cls-10" cx="430.82" cy="667.54" rx="3.22" ry="1.62" transform="translate(-352.56 799.93) rotate(-66.76)"/><ellipse class="cls-10" cx="430.82" cy="661.17" rx="1.53" ry="0.82" transform="translate(-341.46 823.47) rotate(-68.78)"/><path class="cls-4" d="M259.64,560.68s-3.5-9.15,2.31-13.77,9,1.45,13.65-3.26c3.85-3.93,6.76-1.14,9.65-2.52s7.67-2.87,12.24,0,2.38,5,7.52,7.12,6.19,5.27,2.9,10.12-16.16,14.77-30,12.15S261.63,565.37,259.64,560.68Z"/><path class="cls-5" d="M264.75,552.2a10.33,10.33,0,0,0,3,4"/><path class="cls-5" d="M268.22,550.46a6.08,6.08,0,0,0,1.83,2.65"/><path class="cls-5" d="M295.38,546.48s.08,2.32-.87,3.23"/><path class="cls-5" d="M299.68,548.47s.07,2.24-1.08,3.31"/><ellipse class="cls-3" cx="286.39" cy="549.06" rx="3.4" ry="2.03" transform="translate(-56.25 33.23) rotate(-6.05)"/><ellipse class="cls-3" cx="276.9" cy="554.95" rx="3.76" ry="2.26" transform="translate(-131.78 88.45) rotate(-14.7)"/><ellipse class="cls-3" cx="294.75" cy="553.67" rx="1.9" ry="3.26" transform="translate(-292.45 774.18) rotate(-82.55)"/><line class="cls-5" x1="286.61" y1="551.08" x2="287.6" y2="565.11"/><line class="cls-5" x1="279.01" y1="556.5" x2="285.25" y2="564.76"/><line class="cls-5" x1="294.51" y1="555.55" x2="292.11" y2="563.08"/><path class="cls-6" d="M280,566.63s.11-3.3,2.66-4.89,3.4.64,6.9,0,4.45-2,7.06-.08,2.49,10.62-3,13.26S281.34,578.85,280,566.63Z"/><path class="cls-5" d="M286.05,565.42a10.4,10.4,0,0,0,.56,1.92"/><path class="cls-5" d="M290.5,564.76a4,4,0,0,1-.35,2.14"/><path class="cls-4" d="M265.49,580.29s-9.55-1.7-13-11,4-10.77,9.46-7.58,7.44-3.19,14.13-.42,5.83,10.4,9.61,13.54,7.88,12.81-.49,12.49S265.49,580.29,265.49,580.29Z"/><path class="cls-5" d="M264,569.32s2.2,3.18,7.63,5.25"/><path class="cls-5" d="M270.92,568.94s2.37,3.8,4.95,4.85"/><path class="cls-4" d="M289.39,573.79s4.81-1.1,6.62-9.82,5.41-9.24,8.39-7.54,6.27-1.32,9,1.94-.13,13.84-9.52,19.76-14.39,9.64-15.87,5.5S289.39,573.79,289.39,573.79Z"/><path class="cls-5" d="M308.34,564.76a12.73,12.73,0,0,1-3.33,5.16"/><path class="cls-5" d="M302.77,563.5a6,6,0,0,1-1.75,3.84"/><path class="cls-3" d="M265.49,580.29s8.44,8.55,20.24,8.91c0,0,3.78,13.64,4.44,45.68l4.64-.61s.57-25.18-4-45.78c0,0,9.69-1.13,15.18-11.81,0,0-10.37,2.6-15.3,6.93,0,0,0-9.82-3.27-14.29a30.87,30.87,0,0,0-2,15.08A48,48,0,0,0,265.49,580.29Z"/><path class="cls-6" d="M273.74,622.72s17.43-4.84,22.2,14.33c4.5,18.15-16.13,28-26.15,25.2-10.62-2.92-15.58-11.17-14.94-25.33,0,0-8.76-.46-12.71-8.2s0-15.37,0-15.37-8.11-2.31-8.07-9.53,7.66-9.54,11.47-7.36,5.45,5.72,5,9.13c0,0,7.89-4.76,14.91-1.36S275.1,615.66,273.74,622.72Z"/><path class="cls-5" d="M249.37,614.46s15.39,29.94,44,37.78"/><path class="cls-6" d="M295.56,650.74c-9.36-9.15-8.54-33.79,13.56-36.28,0,0-1.29-13.23,12.32-14.57,0,0-.38-9.77,10.55-10s13.22,15.52,4,18.4c0,0,7.28,15.4-6.71,20.86C335.24,651.07,312.34,667.16,295.56,650.74Z"/><path class="cls-5" d="M295.56,650.74s26.07-5.23,31.63-41.65"/><path class="cls-3" d="M216.93,711.06s.94-5.58,10.67-12.59c0,0,9,0,15.7-4.57,0,0,2.29,5.33,12.2,2.79,0,0-2.13,7,10.25,7.36a9,9,0,0,0,7.1,7,30.69,30.69,0,0,1,0,5.55C272.55,719,216.93,711.06,216.93,711.06Z"/><path class="cls-5" d="M243.3,693.9a26.06,26.06,0,0,0-7.09,10.4"/><path class="cls-5" d="M255.5,696.69a26.88,26.88,0,0,0-6,8.4"/><path class="cls-5" d="M265.75,704.05a14,14,0,0,0-4.64,5.42"/><path class="cls-5" d="M272.85,711.06s-2.83,1.57-3.49,3.29"/><path class="cls-3" d="M210.11,715.91a49.76,49.76,0,0,0-16.8,30.63,5,5,0,0,0,2,4.67c3.68,2.73,11.89,7.62,24.67,8.71C232.44,731.14,210.23,716,210.11,715.91Z"/><path class="cls-9" d="M304.53,726.8c0-4.65,8.08-11.85,5.3-13.62s-14.59,9.6-27.58,8C272.14,720,254.11,695.05,224,707.54a52.42,52.42,0,0,0-13.88,8.37c.12.08,22.33,15.23,9.83,44a67.63,67.63,0,0,0,17.45-.88c29.45-5.16,34.51-20.39,43.5-25a7.4,7.4,0,0,1,6.09-.31c11.71,4.59,25,7.44,26.64,3.36C314.93,733.83,304.49,732.82,304.53,726.8Z"/><path class="cls-5" d="M215.91,721.47s28.13-14.17,58.33,3.91"/><ellipse class="cls-11" cx="202.48" cy="741.01" rx="0.67" ry="1.24"/><path class="cls-4" d="M247.38,739.76c-1.64-4.7-19.37-2.92-19.37-2.92h0a29.91,29.91,0,0,1,.24,8.17h0a39.48,39.48,0,0,0,8,2.8C239.64,748.61,248.23,742.2,247.38,739.76Z"/><path class="cls-5" d="M228.22,739.24s11.79-.11,17.86,3.38"/><path class="cls-5" d="M228.43,742.19S238,743.36,242,746"/><path class="cls-5" d="M250.4,748.62a12.41,12.41,0,0,0,4.5,0"/><path class="cls-5" d="M256.35,745.46a6.89,6.89,0,0,0,4.31-.48"/><path class="cls-5" d="M259.7,742.19a8.14,8.14,0,0,0,4.23-1.92"/><path class="cls-5" d="M249.41,745.29a6.65,6.65,0,0,0,3.24,0"/><path class="cls-5" d="M254,742.19a5.77,5.77,0,0,0,2.63.43"/><path class="cls-5" d="M258,738.75a5.27,5.27,0,0,0,3.11-.73"/><path class="cls-5" d="M242.87,726.39a7.81,7.81,0,0,1,3.91.64"/><path class="cls-5" d="M237.15,728.3s1.17-1.27,2.21-1.27"/><path class="cls-5" d="M239.36,732.09s1-1.39,2.07-1.23"/><path class="cls-5" d="M244.82,729.5a4.56,4.56,0,0,1,2.62.56"/><path class="cls-5" d="M259.5,727s2.12-.16,3.08.63"/><path class="cls-5" d="M266.41,728.3s2.24.55,2.95,1.47"/><path class="cls-5" d="M269.76,732.09a7.79,7.79,0,0,1,3.09,1.32"/><path class="cls-5" d="M261.38,730.06s2.15.13,2.55.78"/><path class="cls-5" d="M263.29,725a6.81,6.81,0,0,1,2.08,1"/><path class="cls-5" d="M274.24,730.06s1.82.66,2.14,1.41"/><path class="cls-5" d="M228.43,714.35a8.08,8.08,0,0,1,3.39-.55"/><path class="cls-5" d="M224.62,711.06s1.7-.83,2.35-.66"/><path class="cls-5" d="M233.69,711.06a7,7,0,0,1,3.46,0"/><path class="cls-5" d="M231.42,708.78a5.85,5.85,0,0,1,2.27-.81"/><path class="cls-5" d="M238.25,708.37s2.24-.16,2.89.41"/><path class="cls-5" d="M255.5,713.07s2.88.64,4,2"/><path class="cls-5" d="M249.41,712.18a8.23,8.23,0,0,1,2.81.53"/><path class="cls-5" d="M252.5,714.35a18.29,18.29,0,0,1,2.08.74"/><path class="cls-5" d="M254,709.47a10.45,10.45,0,0,1,1.84,1.25"/><path class="cls-5" d="M223.76,724.24s8,13.91,3.11,26.51"/><path class="cls-10" d="M306.5,701.64c-1.14-6.73,15.41-9.88,24.59-6.95s16.7-2.09,28.94,1.39,11.69,6.34,10.29,8-7.23-2.19-15.44,2.71-22,.06-31.3-1.28S307.22,706,306.5,701.64Z"/><path class="cls-10" d="M384.65,720.15c2.08-3.23,19.9,5.28,28.25,12.8s9,10.85,2.92,11.68,1.7,9.68-1.95,11.13c-2.29.92-8.75-4-15-7.23-9-4.66-27-11.92-24.07-17.39,2-3.79,12.36,7.13,16.69,1C394.33,728.05,382.44,723.58,384.65,720.15Z"/><path class="cls-10" d="M180.06,777.37c-1.3-6,8.29-9.79,17.95-9s2.43,5.1,3.8,7,2.68,7.44-1.95,8.5-5.79-2.91-10-2.65S180.9,781.2,180.06,777.37Z"/><path class="cls-10" d="M150.39,765.78c-4.12-4.6,3.42-12.42,11.8-19.28,10.37-8.48,17.82-9.8,18.67-6.6,1,3.92-10.83,8.8-10.62,15.05C170.38,759.14,156.69,772.82,150.39,765.78Z"/><path class="cls-10" d="M234.68,794.53c-1.37-3.56,6.32-5.5,7.51-11.46s11.06-14.33,14.3-12.37c2.95,1.8,2.29,6.26-3.71,12.71C247,789.58,237,800.48,234.68,794.53Z"/><path class="cls-5" d="M327.76,839.19a6.72,6.72,0,0,1,2.62-2.37"/><path class="cls-3" d="M276.41,785s-2-4.79-5-4.6A26.78,26.78,0,0,0,284.79,761s8.18,0,13.56-4.07,2.6-12,2.6-12,11,1,15.42-3.75,3-8.48,3-8.48,34.81-2,49.44,18S276.41,785,276.41,785Z"/><path class="cls-5" d="M325.62,738.76s15.1,4.36,21.59,11.65"/><path class="cls-5" d="M318.16,746.57c.88,0,9.94,2.63,14.91,6.29"/><path class="cls-5" d="M311.58,752s8.13,1,11.67,3.72"/><path class="cls-5" d="M304.41,758s5,.86,7.17,2.33"/><path class="cls-5" d="M295.64,763.54c.44,0,4.27.44,6.23,1.68"/><path class="cls-9" d="M360,750c-19.56-.69-41.43,5.23-61.39,17.15-41.49,24.78-55.3,75-55.3,75S287,866.57,338,854.36c26.49-6.35,43.26-19.9,53.86-34C351.86,796.47,359.93,750.25,360,750Z"/><path class="cls-3" d="M406.86,771.8C396.17,757.71,379.2,750.64,360,750c-.06.29-8.13,46.51,31.86,70.43a95.58,95.58,0,0,0,17.19-39A12.15,12.15,0,0,0,406.86,771.8Z"/><path class="cls-5" d="M359.93,770.41s-78.61,25.41-107.28,76.35"/><path class="cls-4" d="M358.32,798.67c-9.42-.26-30.44,11.66-24.06,20.58,3.79,5.29,29.29-2.66,28.88-13.69h0a44,44,0,0,1-3.9-6.32C358.7,798.87,358.32,798.67,358.32,798.67Z"/><path class="cls-5" d="M333.07,816.59s14.58-12.82,27.22-15.42"/><path class="cls-5" d="M335.8,820.37s17.82-7,26.56-15.89"/><path class="cls-5" d="M353.77,783.33S357.58,805.8,372.5,814"/><ellipse class="cls-11" cx="392.1" cy="770.86" rx="1.21" ry="2.37" transform="translate(-300.97 253.54) rotate(-26.3)"/><path class="cls-5" d="M328.21,763.54a12.07,12.07,0,0,1,4.39-.86"/><path class="cls-5" d="M324,769.6a9.35,9.35,0,0,1,3.1-2.06"/><path class="cls-5" d="M333.07,765.22s3.23-1.16,5-.84"/><path class="cls-5" d="M328.21,770.41a13,13,0,0,1,4.39-1.84"/><path class="cls-5" d="M336.41,768.06a9.16,9.16,0,0,1,3.16,0"/><path class="cls-5" d="M329.84,759.15s3-.48,4.22,0"/><path class="cls-5" d="M292,792.33a13,13,0,0,1,4.56-2.67"/><path class="cls-5" d="M298,785s2.67-2.19,4-2.1"/><path class="cls-5" d="M304.11,786.13s2.67-1.58,4-1.17"/><path class="cls-5" d="M301.6,776.9a4.66,4.66,0,0,1,2.95-1.55"/><path class="cls-5" d="M304.11,779.18a8.11,8.11,0,0,1,4.5-1.84"/><path class="cls-5" d="M307.39,781.13a5.93,5.93,0,0,1,3.45-.28"/><path class="cls-5" d="M295.53,783.58s1.09-1.56,2.47-1.51"/><path class="cls-5" d="M315.07,809.34s2-1.76,3.52-1.6"/><path class="cls-5" d="M315.07,814a8.69,8.69,0,0,1,3.52-1.93"/><path class="cls-5" d="M325.38,812.45a10.88,10.88,0,0,1,4.48-1.91"/><path class="cls-5" d="M322.34,809.72a6.87,6.87,0,0,1,2.48-.94"/><path class="cls-5" d="M321.22,805.35s1-1.64,2.36-1.55"/><path class="cls-5" d="M320.58,801s1.84-2.12,3.6-1.64"/><path class="cls-5" d="M327,804.58a4.24,4.24,0,0,1,2.19-.78"/><path class="cls-5" d="M293.89,814a11.21,11.21,0,0,1,4.29-1.57"/><path class="cls-5" d="M295.49,817.16a7.56,7.56,0,0,1,3.26-.92"/><path class="cls-5" d="M291.32,824.36a7.88,7.88,0,0,1,4.17-1.89"/><path class="cls-5" d="M287.89,822.07s1.6-1.37,2.52-1.37"/><path class="cls-5" d="M284.18,830.18a5.22,5.22,0,0,1,2.06-1.14"/><path class="cls-5" d="M292.06,829.61a8.93,8.93,0,0,1,2.35-1.14"/><path class="cls-5" d="M298.75,823.41a13.15,13.15,0,0,1,3.25-.94"/><path class="cls-5" d="M301.32,818.24a10.38,10.38,0,0,1,3.31-1.08"/><path class="cls-5" d="M325,831.29s1.4-1.82,2.73-2"/><path class="cls-5" d="M322.18,836.82s1.52-1.88,2.55-2"/><path class="cls-5" d="M328.62,834.09a4.94,4.94,0,0,1,2.18-1.67"/><path class="cls-5" d="M323.45,825.65a8.82,8.82,0,0,1,2.07-1.52"/><path class="cls-5" d="M329.07,826.56c.4-.18,1.55-1.64,2.34-1.67"/><path class="cls-5" d="M333.72,827.77c.42-.36.91-1.21,1.76-1.52"/><circle class="cls-3" cx="429.59" cy="760.5" r="3.09"/><circle class="cls-3" cx="440.36" cy="763.59" r="2.81"/><circle class="cls-3" cx="429.86" cy="769.51" r="2.81"/><circle class="cls-3" cx="436.3" cy="779.33" r="2.81"/><circle class="cls-3" cx="445.12" cy="773.7" r="2.81"/><path class="cls-5" d="M431.37,762.86s14.18,18,19.23,34.24"/><polyline class="cls-5" points="432.11 771.2 438.73 773.16 440.36 766.4"/><polyline class="cls-5" points="438.88 780.44 444.49 783.18 445.12 776.52"/><path class="cls-10" d="M441.82,741.62c2.49-3.67,20.74,9.24,16.45,13.11-1.65,1.49-4.66-2-7-4.83C447.56,745.43,440.07,744.2,441.82,741.62Z"/><path class="cls-3" d="M182.14,590.17c2.7-3.81,13.15,3.12,13.15,3.12s-2.34-6,1.22-6.87,10.32,9.36,10.32,9.36-1-3.55,1.17-4.71c3.44-1.86,14.37,11,14.86,30.17,0,0-19.77,1.4-30.77-3.55s-7.25-9.83-2.21-10c0,0-6.46-1.89-5.78-5.14s4.84-1.29,4.84-1.29S178.68,595.06,182.14,590.17Z"/><path class="cls-5" d="M188.14,595.08s18.22,7,33.72,26.21"/><path class="cls-3" d="M231.91,568.76c3.91,0,2.25,12.15,2.25,12.15s2.18-3.3,4.56-1.58-3,11.91-3,11.91,4.42-4.44,6.94-2.55,1.87,19.22-15.07,33.9c0,0-10.09-11-12.06-22.88s2.12-12.83,4.7-7.81c0,0-1.1-11.51,1.6-12.57s4.56,3.66,4.56,3.66S227.57,568.79,231.91,568.76Z"/><path class="cls-5" d="M230.4,576.77s-4.58,23.14-2.78,45.82"/><path class="cls-2" d="M507.1,517.7c3.88-1.29,9.79,3.28,9.49,18.53,0,0,3.6-7.87,8.19-5.77s4.07,20,1.06,27.74c0,0,4.44-6,9.47-3.25s-1.79,21.59-1.79,21.59,3.46-4.28,5.41-1,2.39,19.34-15.92,30.44c0,0-29.22-27.94-21.59-48.62,0,0-7.52-15.76-2.91-21.08,3.8-4.38,8.59,3.11,8.59,3.11S499.14,520.36,507.1,517.7Z"/><path class="cls-2" d="M520.23,619.72s8.25-13.72,14.22-15.3,3.1,6.46,3.1,6.46a41.65,41.65,0,0,1,18.27-14.42c12.23-5,16.23-.22,12.27,5.35,0,0,5-4.32,14.46-5.15s5.4,7.62,3.59,9.27c0,0,9.73-3.71,11.79,0s-8.71,8.58-8.71,8.58,7.22.7,6.32,6.27-17,7.76-23,8.41c0,0,11.86.31,11.19,5.33s-21.7,10.17-55.09,6.25S520.23,619.72,520.23,619.72Z"/><path class="cls-5" d="M583.77,614.51s-22.73,17.43-72.14,16"/><ellipse class="cls-2" cx="626.42" cy="605.46" rx="8.77" ry="4.97" transform="translate(-73.94 87.31) rotate(-7.53)"/><path class="cls-2" d="M658.4,541.31c3.18,5.64-11.15,22-32.61,16.51C627.71,549,652.85,531.47,658.4,541.31Z"/><path class="cls-2" d="M617.87,561.66c-1.33,5.16,4.71,8.74,20,7.35,18.32-1.65,24.18-12,20.27-16.87C653.41,546.29,620.7,550.64,617.87,561.66Z"/><path class="cls-2" d="M641.62,519c7.47,4.06.54,28.75-19,38S626.81,511,641.62,519Z"/><path class="cls-2" d="M647.48,533.12c5.7,5.24-5,17.29-12.67,24-7,6.18-20.67,10-21.11,0S639,525.34,647.48,533.12Z"/><ellipse class="cls-2" cx="620.83" cy="600.91" rx="8.77" ry="4.97" transform="translate(-162.25 235.8) rotate(-19.07)"/><ellipse class="cls-2" cx="622.58" cy="609.54" rx="4.97" ry="8.77" transform="translate(-66.46 1142.79) rotate(-82.13)"/><path class="cls-3" d="M603.15,602.41c1-2.46,9.91-2.37,12.13,4.16,1.94,5.7-2.12,13.12-5.7,10.41-2.45-1.87,1.28-5.76,1.28-5.76s-3.73,1.69-4.83-.6,2.54-3.38,2.54-3.38S601.9,605.46,603.15,602.41Z"/><path class="cls-5" d="M606,610.62S569.77,631.3,571,671.48c-2.17-76.57,34.51-99.64,33.93-99.16"/><path class="cls-2" d="M612.22,561.57c-5.33-1.36-6.43-9.7-4.37-21.57,3.14-18.1,18.75-29.38,22.5-19.38S620.3,563.62,612.22,561.57Z"/><path class="cls-3" d="M598.49,561.07c.4-4.28,11.14-7.45,18.47.12,5.62,5.81,3.19,17.24-1.26,17.28-5.54.06-3.06-9.41-3.06-9.41s-3.78,6.36-7.13,3.89c-3.18-2.34,1.51-7,1.51-7S597.9,567.39,598.49,561.07Z"/><path class="cls-8" d="M617.39,626.85c9.66,7.9-5.81,28.86-21.66,38.31S568,676.85,568,676.85s1.24-19.38,13.62-33.93S610.5,621.22,617.39,626.85Z"/><path class="cls-8" d="M568,676.85s-21.19-10.76-30-40c-7.51-24.94,17.06-32.85,27.05-8.43C575.35,653.52,568,676.85,568,676.85Z"/><path class="cls-12" d="M617.39,626.85s-15.25,32.44-49.35,50C550.78,654,544.6,614.29,544.6,614.29"/><path class="cls-6" d="M580.53,813.21c1.41-2.49,4.38-6.93,15.31-9s16.48.08,22.48-3.52c0,0-15.08,25.83-38.67,16.49A11.36,11.36,0,0,1,580.53,813.21Z"/><path class="cls-5" d="M579.65,817.16a95.53,95.53,0,0,0,38.67-16.49"/><path class="cls-5" d="M602.23,803.32s-2.18,6.06-5.69,9.11"/><path class="cls-5" d="M593,804.84c0,.49-3.56,8.79-6.35,10.8"/><path class="cls-5" d="M595.48,812.83s3.2,1.72,10.4,1"/><path class="cls-5" d="M585.68,815.88a24.05,24.05,0,0,0,9.8,2.68"/><path class="cls-3" d="M597.53,710.28l-8.71,4.65-8.42-5.15-3.63,4.79s7.57,6.38,7.15,20.85l4.3.12,4.3.13c.42-14.47,8.35-20.39,8.35-20.39Z"/><line class="cls-13" x1="588.48" y1="722.32" x2="588.61" y2="715.93"/><path class="cls-4" d="M610,698.34a10.3,10.3,0,0,0,.42-2.56,10.1,10.1,0,0,0-9.8-10.39,8.77,8.77,0,0,0-1.46.07,10.09,10.09,0,0,0-19.6-.6,11.11,11.11,0,0,0-1.16-.11A10.1,10.1,0,0,0,568,694.56a9.41,9.41,0,0,0,.24,2.44,10.09,10.09,0,1,0,11.9,15.24,10.11,10.11,0,0,0,16.8.5,10.1,10.1,0,1,0,13-14.4Z"/><path class="cls-6" d="M560.14,725.53a7.58,7.58,0,0,1,12.17-4.5c3.87,3.54,4,9.21,13.66,10.33,6.13.7,4,8.46-7.43,8.3C564.24,739.46,558.93,730.86,560.14,725.53Z"/><path class="cls-6" d="M616.67,726.66a7.57,7.57,0,0,0-12-5c-4,3.39-4.35,9.05-14.07,9.78-6.15.46-4.3,8.3,7.09,8.59C612,740.41,617.67,732,616.67,726.66Z"/><path class="cls-3" d="M537.46,662.41l-8.71,4.65-8.43-5.15-3.62,4.79s7.56,6.38,7.14,20.85l4.3.12,4.31.13c.42-14.47,8.34-20.39,8.34-20.39Z"/><line class="cls-13" x1="528.41" y1="674.45" x2="528.54" y2="668.06"/><path class="cls-4" d="M549.93,650.47a10.3,10.3,0,0,0,.42-2.56,10.1,10.1,0,0,0-9.81-10.39,8.87,8.87,0,0,0-1.46.07,10.09,10.09,0,0,0-19.6-.6,10.92,10.92,0,0,0-1.15-.11,10.1,10.1,0,0,0-10.39,9.81,9.86,9.86,0,0,0,.23,2.44,10.09,10.09,0,1,0,11.91,15.24,10.11,10.11,0,0,0,16.8.5,10.1,10.1,0,1,0,13-14.4Z"/><path class="cls-6" d="M500.07,677.66a7.57,7.57,0,0,1,12.16-4.5c3.88,3.54,4,9.21,13.66,10.33,6.14.7,4,8.46-7.42,8.3C504.17,691.59,498.86,683,500.07,677.66Z"/><path class="cls-6" d="M556.6,678.79a7.58,7.58,0,0,0-12-5c-4,3.39-4.35,9.05-14.06,9.78-6.16.46-4.31,8.3,7.09,8.59C551.94,692.54,557.59,684.16,556.6,678.79Z"/><path class="cls-3" d="M541.58,722.32,532.87,727l-8.42-5.14-3.63,4.79s7.57,6.38,7.14,20.84l4.31.13,4.3.12c.42-14.46,8.35-20.39,8.35-20.39Z"/><line class="cls-13" x1="532.53" y1="734.36" x2="532.66" y2="727.97"/><path class="cls-4" d="M554.05,710.37a10.23,10.23,0,0,0,.42-2.56,10.11,10.11,0,0,0-9.8-10.39,11.61,11.61,0,0,0-1.46.07,10.1,10.1,0,0,0-19.61-.6,10.69,10.69,0,0,0-1.15-.1,10.1,10.1,0,0,0-10.39,9.8,9.82,9.82,0,0,0,.23,2.44,10.1,10.1,0,1,0,11.91,15.25,10.1,10.1,0,0,0,16.8.49,10.1,10.1,0,1,0,13-14.4Z"/><path class="cls-6" d="M504.19,737.57a7.58,7.58,0,0,1,12.17-4.51c3.87,3.55,4,9.22,13.66,10.33,6.13.71,4,8.47-7.43,8.31C508.29,751.49,503,742.9,504.19,737.57Z"/><path class="cls-6" d="M560.72,738.7a7.57,7.57,0,0,0-12-5c-4,3.38-4.35,9-14.07,9.78-6.15.46-4.3,8.29,7.09,8.59C556.07,752.45,561.72,744.07,560.72,738.7Z"/><path class="cls-6" d="M346.34,833.88c6.59,2.09,9.29,10.66,3.74,20.89s.16,10.61-3.56,15.81-12.57,3.7-14.46,10.9-7.45-16.58-1.07-36.7C334.39,834.08,341.44,832.33,346.34,833.88Z"/><path class="cls-6" d="M301.48,831.72c5.64-4,17.53-3.43,21.39,9.3,4.22,14,10.92,11.79,11.9,23,.77,8.89-3.57,19.66-3.57,19.66a13.72,13.72,0,0,0-11.66-5.82c-7.45,0-12-2.73-12.56-9.59-.8-9.91-5.89-8.49-10.1-16.62A15.18,15.18,0,0,1,301.48,831.72Z"/><path class="cls-13" d="M311.53,845.44c13.71,13.6,21.29,30.21,20.44,53.8"/><path class="cls-13" d="M334.45,862.41A64.36,64.36,0,0,1,340,848.15"/><path class="cls-6" d="M276.38,806.93c6.6,2.09,9.3,10.65,3.75,20.88s.16,10.62-3.56,15.81-12.57,3.7-14.46,10.91-7.45-16.59-1.07-36.71C264.44,807.12,271.49,805.37,276.38,806.93Z"/><path class="cls-6" d="M231.53,804.76c5.64-4,17.53-3.42,21.38,9.31,4.23,13.95,10.93,11.78,11.91,23,.77,8.9-3.57,19.66-3.57,19.66a13.72,13.72,0,0,0-11.66-5.82c-7.45,0-12-2.72-12.57-9.58-.79-9.92-5.88-8.49-10.09-16.63A15.18,15.18,0,0,1,231.53,804.76Z"/><path class="cls-13" d="M241.58,818.48c13.71,13.61,21.29,30.21,20.44,53.81"/><path class="cls-13" d="M264.5,835.45a63.76,63.76,0,0,1,5.56-14.26"/><path class="cls-6" d="M298.68,847.58c6.59,2.09,9.29,10.66,3.74,20.89s.16,10.62-3.56,15.81-12.56,3.7-14.45,10.91-7.45-16.59-1.07-36.71C286.74,847.78,293.79,846,298.68,847.58Z"/><path class="cls-6" d="M253.82,845.42c5.64-4,17.53-3.43,21.39,9.31,4.23,13.95,10.93,11.78,11.91,23,.77,8.9-3.58,19.66-3.58,19.66a13.7,13.7,0,0,0-11.66-5.82c-7.45,0-12-2.73-12.56-9.58-.79-9.92-5.89-8.49-10.1-16.63A15.18,15.18,0,0,1,253.82,845.42Z"/><path class="cls-13" d="M263.87,859.14c13.72,13.61,21.3,30.21,20.45,53.81"/><path class="cls-13" d="M286.79,876.11a64.36,64.36,0,0,1,5.56-14.26"/><path class="cls-9" d="M431.31,729.09c-7.41-9.92-1.11-23.21,17.17-35.24s35.17-10.76,47,4.22,16.46,18.36,14.14,29.75-11,12.67-21.31,12-13.24,3-26.8-4.22C450.45,729.8,436.33,735.82,431.31,729.09Z"/><ellipse class="cls-10" cx="455.8" cy="697.26" rx="1.91" ry="1.72" transform="translate(-377.11 683.58) rotate(-55.89)"/><ellipse class="cls-10" cx="444.24" cy="704.98" rx="4.3" ry="2.6" transform="translate(-381.45 592.8) rotate(-50.05)"/><ellipse class="cls-10" cx="444.69" cy="714" rx="5.12" ry="1.98" transform="translate(-388.21 596.38) rotate(-50.05)"/><path class="cls-4" d="M199.74,647.72s-16.41-13.24-12-33.25c3.91-17.92,22.12-14.86,24.9-1.9C215.88,627.82,210.74,638.17,199.74,647.72Z"/><path class="cls-4" d="M200.27,611.32s4,20-.53,36.4"/><path class="cls-4" d="M231.9,616.42c18.77,8.43,9.61,59.69-21.28,70.31C185.38,668.06,201.22,602.66,231.9,616.42Z"/><path class="cls-4" d="M225.64,631.33s-18.87,22.37-15,55.4"/><path class="cls-4" d="M212,631.33a49.55,49.55,0,0,0-2.68,5"/><path class="cls-4" d="M212,646.9a13.83,13.83,0,0,0-1.34,3.9"/><path class="cls-4" d="M212.6,638s-1.9,2.74-2,4.45"/><path class="cls-4" d="M219.18,626.45a4.69,4.69,0,0,0-1.8,2.74"/><path class="cls-4" d="M219.88,631.33a11.72,11.72,0,0,0-1.6,3.36"/><path class="cls-4" d="M229.38,638.9a10.8,10.8,0,0,1-1.94,3.58"/><path class="cls-4" d="M225.64,646.9a9.72,9.72,0,0,1-1.29,2.86"/><path class="cls-4" d="M231.45,650.52a15.72,15.72,0,0,1-3,4.26"/><path class="cls-4" d="M231.45,641.87a8,8,0,0,1-1.52,3.48"/><path class="cls-4" d="M235.83,641.87a6.77,6.77,0,0,1-2.06,3.48"/><path class="cls-4" d="M233.77,631.33a11.45,11.45,0,0,1-1.59,3.86"/><path class="cls-4" d="M164.71,619.27c8.59-7.41,29.76-7.26,37.1,15.11s-6.15,24,8.81,52.35L198,697.48S132.14,647.35,164.71,619.27Z"/><path class="cls-4" d="M177.22,633.19S195.17,657.93,201,695"/><path class="cls-4" d="M169.42,632.34a14.18,14.18,0,0,1,3.21,4.69"/><path class="cls-4" d="M165.13,635.94a10,10,0,0,1,3,3.59"/><path class="cls-4" d="M176.32,644.93a15.92,15.92,0,0,1,2.9,5.59"/><path class="cls-4" d="M190.11,647.72a15.54,15.54,0,0,1,1.5,4.07"/><path class="cls-4" d="M195.17,649.76a26.61,26.61,0,0,1,1.93,6.87"/><path class="cls-4" d="M190.11,635.44s.6,3.89.75,5.19"/><path class="cls-4" d="M182.12,623.25a24.13,24.13,0,0,1,1.47,3.2"/><line class="cls-4" x1="192.71" y1="632.34" x2="193.31" y2="634.69"/><path class="cls-4" d="M197.1,640a23.34,23.34,0,0,1,.5,4.9"/><path class="cls-4" d="M121.5,674.61c-2.68-24.71,26.74-36.21,43.3-28,17.13,8.52,26.87,28.34,30.92,42l-1.66,7.71s-5.11-6.91-24.34-2.26S124.24,699.84,121.5,674.61Z"/><path class="cls-4" d="M143.66,670.4s28.11-6.62,51.51,20.75"/><path class="cls-4" d="M135.43,678.53a15.28,15.28,0,0,1,5.21,0"/><path class="cls-4" d="M140.64,686.73a16.41,16.41,0,0,1,5.65,0"/><path class="cls-4" d="M153.9,679.61a24.27,24.27,0,0,1,4.63.44"/><path class="cls-4" d="M172.05,682.87a10.83,10.83,0,0,1,4.67,1.63"/><path class="cls-4" d="M157.18,684.5s3.23-.2,4.55.48"/><path class="cls-4" d="M144.55,657.44s2.94.22,3.92,1"/><path class="cls-4" d="M157.7,660.05a29.81,29.81,0,0,1,4,1.52"/><path class="cls-4" d="M151.08,651.79s3.64.65,5.13,1.74"/><path class="cls-4" d="M167.7,655.92a9.58,9.58,0,0,1,4.35,2.5"/><path class="cls-4" d="M174.39,665.05s1.41.47,2.83,3"/><path class="cls-9" d="M192,701.3c-4.79-10.56,10.95-42,29.27-44.48s31.58,20.57,31,29.57S196.63,711.54,192,701.3Z"/><ellipse class="cls-10" cx="201.81" cy="686.73" rx="4.56" ry="2.16" transform="translate(-513.65 665.62) rotate(-71.93)"/><ellipse class="cls-10" cx="209.28" cy="680.69" rx="2.98" ry="1.84" transform="translate(-502.75 668.56) rotate(-71.93)"/><ellipse class="cls-10" cx="206.02" cy="673.82" rx="2.06" ry="1.33" transform="translate(-444.03 401.96) rotate(-50.3)"/><path class="cls-6" d="M583.9,803.19s6.36-14,14.28-17.94l2.13,1.89s-6.69,4.43-14.21,18.3Z"/><path class="cls-3" d="M638.89,806.06c7.72-2.46,12.09-15.38,2.54-26.35-9.27-10.64-17.6-7.75-17.6-7.75s-5.56,11.43-1.37,24C626,806.59,633.92,807.64,638.89,806.06Z"/><path class="cls-5" d="M632.9,806.45s-7.46-12.26-9.07-34.49c12,13.47,15.06,34.1,15.06,34.1"/><path class="cls-5" d="M644,802.32A39.09,39.09,0,0,0,623.83,772"/><path class="cls-3" d="M592.11,787.14c-7.5-14.13,3.64-23,21.19-23.93s16.62,21.18,3.48,27.91S594.89,792.38,592.11,787.14Z"/><path class="cls-5" d="M592.11,787.14s12-12.26,32.61-18.91"/><path class="cls-5" d="M589.75,778.28S602.39,770,623.83,767"/><path class="cls-5" d="M604.48,794.24s8-18.83,21-24.6"/><path class="cls-3" d="M588.82,743.29c5.83-7,17.38-9.37,25.6,2.27,6.31,8.93,7.65,18.88,2.36,20.48s-13.86,2.14-23.8-4S586,746.74,588.82,743.29Z"/><path class="cls-5" d="M618.6,765c-10.64-14.37-28.74-22.86-28.74-22.86"/><path class="cls-5" d="M586.1,751.51s23.64,8.61,30.68,14.53"/><path class="cls-5" d="M597.19,738s15.49,8.32,23.09,24.74"/><path class="cls-3" d="M629.42,734c9.46,1.24,13.38,10.65,6.44,22.27s-11.4,10.48-14.13,8.22-6.15-9.18-5.52-18.46C616.78,737.42,623.93,733.29,629.42,734Z"/><path class="cls-5" d="M622.78,765.23c9.68-18.91,6.64-31.23,6.64-31.23"/><path class="cls-5" d="M622.78,735.67a63.28,63.28,0,0,1-2.5,27.05"/><path class="cls-5" d="M637,738S634.91,755.8,624.72,766"/><path class="cls-3" d="M659.08,767c.85-9.46-8-14.51-17.65-12.89s-16.77,11.58-18.3,14.63c0,0,7.34,10.36,22.37,9.52C656.14,777.69,658.64,772,659.08,767Z"/><path class="cls-5" d="M659.08,767s-15.76-6.09-36,1.74c0,0,15-14,33.14-10.57"/><path class="cls-5" d="M654.92,775.35a70.7,70.7,0,0,0-31.79-6.59"/><path class="cls-6" d="M604.6,761.41c1.56-4.59,14.75-4.43,23.14,5.09s2.79,11.62,0,8.85c0,0-1,8.27-5.28,7.41s-3.94-7.28-3.94-7.28-7.76,4.36-9-.13,3.73-7.12,3.73-7.12S603.31,765.23,604.6,761.41Z"/><path class="cls-7" d="M618.65,769.07A23.32,23.32,0,0,1,621,756.28c3.33-6.67,7.14-8.22,6.67-4.19S624.2,764.25,618.65,769.07Z"/><path class="cls-7" d="M618.6,769.18s6.75-4.54,13.29-4.54,7.91,3.91,1.58,5.49S618.6,769.18,618.6,769.18Z"/><path class="cls-7" d="M618.88,769.07s2.74-6,8.43-8.75,8.76-.58,5.81,2.17S624.78,768,618.88,769.07Z"/><path class="cls-6" d="M542.66,797.66s8.7-19.17,22.75-30.57c0,0,1.92,1.25.79,1.67s-14.27,21.08-18.75,33.56C547.45,802.32,542.35,805,542.66,797.66Z"/><path class="cls-3" d="M555.38,782.82c3.17,1.92,9.62.45,10.5-5.85.94-6.67-.47-9.88-.47-9.88s-6.36-1.22-11.24,5.1C549.92,777.69,553.26,781.53,555.38,782.82Z"/><path class="cls-3" d="M539.59,762.16c.76-6.15,8-9.57,15.79-6.22s9.62,9.88,9.62,9.88-3.39,6.6-14.63,6.06S539.17,765.53,539.59,762.16Z"/><path class="cls-13" d="M539.46,765s11.1-3.45,25.54.8c-14.34-10-24.72-6.09-24.72-6.09"/><path class="cls-3" d="M557.73,746.06c4-2.54,10.26.33,11.48,7.53a18.78,18.78,0,0,1-2.49,12.66s-6.12-3.22-9.51-8.19C553.94,753.28,554,748.42,557.73,746.06Z"/><path class="cls-3" d="M556.23,747.38s8.16,9.13,9.53,18.57"/><path class="cls-13" d="M560,745.23s7.58,10.29,6.75,21"/><path class="cls-3" d="M573.15,791.86c4.82-.39,7.07-8.18,2.81-14.17a20.13,20.13,0,0,0-9.44-7.42s-3.18,8.1-1.52,15C566.2,790.26,569.71,792.13,573.15,791.86Z"/><path class="cls-13" d="M575.15,791.2s1.3-13.32-8.63-20.93c4.92,8.34,4.66,21.61,4.66,21.61"/><path class="cls-3" d="M582.72,777.69c2.51-3.15,1-7.49-2.19-9.84s-7.89-2.91-12.76-2.29c0,0-.86,7,5,11C577.86,780.09,581.5,779.22,582.72,777.69Z"/><path class="cls-13" d="M583.47,776.47s-7.08-9.13-15.7-10.91c4.3,4.58,13.86,13.15,13.86,13.15"/><path class="cls-3" d="M579.46,755.7c2.79,2.95.65,11.12-12.7,11.64,0,0,0-7.44,4.42-11.1C574.37,753.59,577.94,754.1,579.46,755.7Z"/><path class="cls-3" d="M578.22,754.84s-8.79,6.33-11.46,12.5"/><path class="cls-6" d="M557.74,765.82c-.27-3.12,6.14-3.1,9.34-.8s5.32,6.33,3.34,8.31-4-1.87-3.9-3.06c0,0-2,2.9-3.69,1.46s.65-3.88.65-3.88S558,769.33,557.74,765.82Z"/><path class="cls-7" d="M564.81,757.38c1.8.06,2.28,7.27,1,8.57s-2.28-2-2.28-5C563.48,759.05,563.76,757.34,564.81,757.38Z"/><path class="cls-7" d="M570.57,761.07c.89.81-.39,3.08-1.91,4.57-1.26,1.22-2.6,2-3.28,1s.39-3,2-4.39C568.65,761.13,569.93,760.5,570.57,761.07Z"/><path class="cls-7" d="M566.25,767.34c-.34-.83,1.33-2.35,3.35-3.13s3.83-.38,4,.37-.73,1.54-3.2,2.51C568.5,767.84,566.6,768.23,566.25,767.34Z"/><path class="cls-4" d="M491.4,735.6c21.88-9,51.82,35.11,20.78,81.8C491.57,813.57,461.43,747.9,491.4,735.6Z"/><path class="cls-4" d="M497.47,751.94s16.35,23.37,14.71,65.46"/><path class="cls-4" d="M487.61,756.56a27.66,27.66,0,0,1,2.71,5.14"/><path class="cls-4" d="M496.22,766.93a19.13,19.13,0,0,1,1.8,4.42"/><path class="cls-4" d="M489,770.71s2,2.91,2.08,3.87"/><path class="cls-4" d="M496.22,778.05s1.8,4,1.8,5.49"/><path class="cls-4" d="M510.53,769.14s1.12,3.55,1,4.5"/><path class="cls-4" d="M516.55,769.8a16.44,16.44,0,0,1,.59,4.78"/><path class="cls-4" d="M514.39,780.2a26.31,26.31,0,0,1,0,4.47"/><path class="cls-4" d="M505.92,755a11.89,11.89,0,0,1,1.06,3.47"/><path class="cls-4" d="M512.18,755.69s.66,1.79.9,2.75"/><path class="cls-4" d="M457.66,775.69c9.64-8.76,31.66-9,45,24.63s3.27,60.9,3.27,60.9S481,857.89,464,831.4,447.44,785,457.66,775.69Z"/><path class="cls-4" d="M469.3,792.63s21.63,13.51,36.62,68.59"/><path class="cls-4" d="M483.75,791.05a14.24,14.24,0,0,1,3.3,5.31"/><path class="cls-4" d="M486.1,801.92a11.76,11.76,0,0,1,2.9,4.78"/><path class="cls-4" d="M495,806.72a11.75,11.75,0,0,1,2.5,5.58"/><path class="cls-4" d="M495.6,816a13,13,0,0,1,1.17,5"/><path class="cls-4" d="M458.17,792.59a20.92,20.92,0,0,1,2.11,3.68"/><path class="cls-4" d="M472.77,785.31a12.85,12.85,0,0,1,2.24,3.32"/><path class="cls-4" d="M491.57,792.7a11.28,11.28,0,0,1,1.84,3.68"/><path class="cls-4" d="M460.25,804.62a16.3,16.3,0,0,0,2.37,4.78"/><path class="cls-4" d="M477.73,809.45s2.49,2.66,2.29,4.12"/><path class="cls-4" d="M590.74,799c12,20.27-11.38,52.83-66.13,55.1C528.67,793.94,577.74,777.1,590.74,799Z"/><path class="cls-4" d="M574.31,808.05s-27.37,7.08-49.7,46"/><path class="cls-4" d="M568.59,819.83a21.61,21.61,0,0,0-3.47,2.36"/><path class="cls-4" d="M558,825.11a17.06,17.06,0,0,0-4,3.06"/><path class="cls-4" d="M547.34,834.56a17.11,17.11,0,0,0-3.62,3.47"/><path class="cls-4" d="M561.78,831.05s-1.81,1.84-2.43,2.4"/><path class="cls-4" d="M573.17,828.17a15.19,15.19,0,0,0-3,2.88"/><path class="cls-4" d="M577.48,816a22,22,0,0,0-3.17,3.15"/><path class="cls-4" d="M570.12,825.11a11.72,11.72,0,0,0-2.36,1.82"/><line class="cls-4" x1="581.65" y1="819.83" x2="580.12" y2="822.19"/><path class="cls-4" d="M559.35,802.47a17.22,17.22,0,0,0-4.1,2.5"/><path class="cls-4" d="M558,808.05a14.21,14.21,0,0,0-2.78,3.45"/><path class="cls-4" d="M570.12,803.72a7.46,7.46,0,0,0-3.27,1.25"/><path class="cls-4" d="M537.5,785.31c18.21,6.91,18.61,49.32-26.95,74.18C489,836.23,502.61,772.09,537.5,785.31Z"/><path class="cls-4" d="M528.31,799S510,816.66,510.55,859.49"/><path class="cls-4" d="M528.31,811.51a9,9,0,0,0-1.8,3.94"/><path class="cls-4" d="M521.71,826s-1.25,2.74-1.56,3.59"/><path class="cls-4" d="M538,824s-2.28,3-2.69,5.18"/><path class="cls-4" d="M535.26,806.7a10,10,0,0,0-1.66,2.75"/><path class="cls-4" d="M534.43,818.52a15.38,15.38,0,0,0-1.45,2.94"/><path class="cls-4" d="M513.84,801.07a19.63,19.63,0,0,0-2.58,5.63"/><path class="cls-4" d="M515.08,808.52a19,19,0,0,0-1.86,4.35"/><path class="cls-4" d="M521.71,794.54a12.33,12.33,0,0,0-1.56,2.81"/><path class="cls-4" d="M616.26,845.58c.44-16.15-32-35-79.66,10.76C536.6,856.34,615.19,884.31,616.26,845.58Z"/><path class="cls-4" d="M602.8,847.53s-28.79-12.78-66.2,8.81"/><path class="cls-4" d="M590.07,837.26s3.42-.93,5.39,0"/><path class="cls-4" d="M588.41,840.68a10.6,10.6,0,0,1,3.94.73"/><path class="cls-4" d="M590.38,832.25s2.34-.77,3.71,0"/><path class="cls-4" d="M578.88,854.67s3,.31,3.84,1.24"/><path class="cls-4" d="M578.88,848.45s2.7-.31,3.84.73"/><path class="cls-4" d="M590.38,855.29a5,5,0,0,1,4.56,1.05"/><path class="cls-4" d="M207.62,854.52s-5.61-16.84-3.08-35.19c2.09-15.12,14.62-18.69,22.4-14.5,8.55,4.61,12,19.2,0,32.84S213.26,864.55,207.62,854.52Z"/><path class="cls-4" d="M221.52,814.19s-7.84,12.26-9.5,36.56"/><path class="cls-4" d="M212.87,811a26.5,26.5,0,0,0-1.54,4"/><path class="cls-4" d="M215.39,816.93s-.59,2.08-.78,3.32"/><line class="cls-4" x1="226.75" y1="814.92" x2="225.33" y2="817.4"/><line class="cls-4" x1="223.27" y1="821.61" x2="221.52" y2="825.19"/><path class="cls-4" d="M167.18,803.85c8.41-7,27.25-8.69,39.53,10,9.1,13.84,12.21,29,3.64,61.21a239.8,239.8,0,0,1-37.16-31.52C158.19,828.05,155,814,167.18,803.85Z"/><path class="cls-4" d="M181.21,815.84s19.85,20.59,26.41,51"/><path class="cls-4" d="M192.26,821.24a13.94,13.94,0,0,1,2.85,4.7"/><path class="cls-4" d="M179,820.25a18.34,18.34,0,0,1,2.2,2.72"/><path class="cls-4" d="M168.11,820.25A14.39,14.39,0,0,1,170.7,823"/><path class="cls-4" d="M169.85,815.84a9.12,9.12,0,0,1,2,2.18"/><line class="cls-4" x1="186.19" y1="812.57" x2="187.55" y2="814.92"/><path class="cls-4" d="M194.41,810.34a19.31,19.31,0,0,1,1.58,3.4"/><path class="cls-4" d="M199.62,821.61a20,20,0,0,1,2.43,4.33"/><path class="cls-4" d="M202.05,834.24a25.17,25.17,0,0,1,1.4,5"/><path class="cls-4" d="M207.12,828.05a34.37,34.37,0,0,1,1.11,4.42"/><path class="cls-4" d="M211,889c-3.63-1.63-10.18-24.5,1.14-47.47,12.8-26,35.8-16.34,38.9-2.83s-3.58,25.07-19.21,35.16S217.17,891.78,211,889Z"/><path class="cls-4" d="M235.49,839.24s-15.83,14.85-22.62,45.85"/><path class="cls-4" d="M243.81,855.51a7.82,7.82,0,0,1-3.26,3.58"/><path class="cls-4" d="M234.69,860.07a8.21,8.21,0,0,0-2.29,2.61"/><path class="cls-4" d="M227.51,869.06a18,18,0,0,0-2.18,3"/><path class="cls-4" d="M237.83,848.44a5.88,5.88,0,0,0-1.85,2.31"/><path class="cls-4" d="M245.66,840.83s0,2.61-1.09,3.59"/><path class="cls-4" d="M223.27,847.57a11,11,0,0,0-1.75,3.18"/><path class="cls-4" d="M217.73,861.37a14.44,14.44,0,0,0-1.53,4.24"/><path class="cls-4" d="M219.29,843.23s-.59,1.73-.91,3"/><path class="cls-4" d="M227.51,832.9A12.43,12.43,0,0,0,226,837"/><path class="cls-4" d="M146.5,836.83c13.46-19,46.58-10.83,59.43,20.45,5.24,12.76,11.63,35.12,7.2,37-5.36,2.28-7.24-10.17-36.8-9C144.4,886.47,134.36,854,146.5,836.83Z"/><path class="cls-4" d="M165.89,850.75s30,13.35,43.3,36.62"/><path class="cls-4" d="M168.11,862.16a18.09,18.09,0,0,1,5.18,3.45"/><path class="cls-4" d="M170.7,868.16s3.21,1.55,4.45,3.21"/><path class="cls-4" d="M156.81,856.13a15.4,15.4,0,0,1,4,2.39"/><path class="cls-4" d="M157.53,864.32a12.54,12.54,0,0,1,3.32,1.76"/><path class="cls-4" d="M163.65,875.52a17,17,0,0,1,4.46,1.45"/><path class="cls-4" d="M176.92,866.08a12.71,12.71,0,0,1,3.11,2.08"/><path class="cls-4" d="M188.42,874.58a16.35,16.35,0,0,1,3.84,1.66"/><path class="cls-4" d="M188.42,879.25a17.25,17.25,0,0,1,3.84,1.76"/><path class="cls-4" d="M196,879.25s2.07,1,3.63,1.76"/><path class="cls-4" d="M182.2,847.57a28.45,28.45,0,0,0,2.49,3.69"/><path class="cls-4" d="M182.2,840.27s2.28,3,3,3.84"/><path class="cls-4" d="M190.34,848.44a47.64,47.64,0,0,0,3.16,4.79"/><path class="cls-4" d="M192.26,856.86a51.52,51.52,0,0,0,3.73,4.51"/><path class="cls-4" d="M200.65,859.55s1.45,4.77,2.8,6.53"/><path class="cls-6" d="M506.91,554.62c8.65,3.58,19.28,26.51-18.35,45.18C478.29,581.13,486.07,546,506.91,554.62Z"/><path class="cls-6" d="M502.31,563.15s-11.52,15.73-13.75,36.65"/><path class="cls-6" d="M494.74,562.49a9.11,9.11,0,0,0-1.78,3.4"/><path class="cls-6" d="M491.66,573s-1.3,2.74-1.05,4.14"/><path class="cls-6" d="M507.1,564.19s-1.63,1.83-1.55,3.31"/><path class="cls-6" d="M511,566.19s.09,2.95-.9,3.85"/><path class="cls-6" d="M453.48,528.43c14.68-7,35.71,5.88,33.95,45.33s11.82,48.71-1.76,48.71S412.5,548,453.48,528.43Z"/><path class="cls-6" d="M459.21,547.34s18.73,14.68,19.08,71.58"/><path class="cls-6" d="M468.75,546.1A13.37,13.37,0,0,1,471,552"/><path class="cls-6" d="M475.59,557.47s1.16,1.47,1,5.68"/><path class="cls-6" d="M472.75,540.1s1.58,2.52,1.58,4.1"/><path class="cls-6" d="M450.32,545.41s2.32,3.73,2.64,5.84"/><path class="cls-6" d="M457.8,563.15a12.9,12.9,0,0,1,2.32,5.47"/><path class="cls-6" d="M480.64,554.62a14.15,14.15,0,0,1,1,3.58"/><path class="cls-6" d="M455.27,537.36a10.9,10.9,0,0,1,1.58,2.74"/><path class="cls-6" d="M522.07,576.86c14.9,7.4,15.74,37.65-12.19,54.83-26,16-32.79,25.78-36.55,16.86C468.06,636.05,482.73,557.31,522.07,576.86Z"/><path class="cls-6" d="M515.56,589s-27.8,22.14-36,55"/><path class="cls-6" d="M494.27,592.05a17.59,17.59,0,0,0-2.61,3.52"/><path class="cls-6" d="M489.34,602.92a15.91,15.91,0,0,0-1.91,3"/><path class="cls-6" d="M501.42,593.05a25.16,25.16,0,0,0-2.11,2.52"/><path class="cls-6" d="M505.55,582.18A14.75,14.75,0,0,0,503,584.3"/><path class="cls-6" d="M517.62,597.78a27.73,27.73,0,0,0-2.06,4"/><path class="cls-6" d="M506.15,615.4s-2.62,2.71-3.12,4.32"/><path class="cls-6" d="M495,630.87s-1.71,2.34-2.62,3.65"/><path class="cls-6" d="M512.79,613.78a47.16,47.16,0,0,0-2.31,4.43"/><path class="cls-6" d="M518.73,615.4s-1.05,3.22-2.14,3.52"/><path class="cls-6" d="M434.05,573c17.47-9.28,45.93-1.38,47.19,38.76s.31,46.18-8.76,40.82-19-23-41.66-27.89S415.4,582.94,434.05,573Z"/><path class="cls-6" d="M477,650.22s-6.79-34.92-30.46-53.9"/><path class="cls-6" d="M462.23,629.19a9.66,9.66,0,0,1,2.24,3.37"/><path class="cls-6" d="M465.37,638.16a13.31,13.31,0,0,1,2.69,3.25"/><path class="cls-6" d="M456.18,630.87a13,13,0,0,1,3,3.14"/><path class="cls-6" d="M472.09,622.47a9.58,9.58,0,0,1,1.68,4.71"/><path class="cls-6" d="M468.06,605.1s1.46,3.59,1.23,5.5"/><path class="cls-6" d="M473.33,605.1a8.14,8.14,0,0,1,.44,3.93"/><path class="cls-6" d="M469.32,590.43a13.4,13.4,0,0,1,1.43,4.25"/><path class="cls-6" d="M461.11,585.67a11.37,11.37,0,0,1,1.12,3.3"/><path class="cls-9" d="M412.59,498.86c1.33,4.63,6.21,8.69,13.36,10.94,14.17,4.46,26.95,19.09,24.37,35.61s-3.68,24.18,7.65,34.38,16.8,29.9,8.15,40.29c-6.92,8.29-15.79.5-23.82,7-9.16,7.43-14.78,4.5-20.86,4.88s-8.72,4.11-16.61,5.77c-9.3,2-22.5-4.74-19.43-21.27,3-15.91,15.93-16.83,18.27-37.34,2.2-19.24-13.32-12.17-14.84-31a34.64,34.64,0,0,1,1.95-12.45,35.16,35.16,0,0,1-12,2.85h0s-4.88,65-4.62,65.58-14,9.39-36,23.06-32.79-.44-25.38-9.62,13-18.7,9.46-31.6c-4.8-17.48,14.06-32.86,20.82-44.55,5.17-8.95,2-19.78.85-24.53-2.68-10.9-4.1-31.84,13.79-42.82S404,469.16,412.59,498.86Z"/><path class="cls-6" d="M359.63,648.18V656s-12.16,5.92-9.94,11.84,22.79-1.17,24.42-3.55V648.81C367.82,650.78,359.63,648.18,359.63,648.18Z"/><path class="cls-10" d="M359.63,638.78v9.4s8.19,2.6,14.48.63V643.3S368.39,636.91,359.63,638.78Z"/><path class="cls-10" d="M406.58,648.19c-.71-4.15-1.79-8-3.16-10.21-3-4.73-9-13.17-14.8-8.73s-1.4,7.48-1.4,7.48a95.51,95.51,0,0,1,2.91,14.06S399.38,653.35,406.58,648.19Z"/><path class="cls-6" d="M406.58,648.19c-7.2,5.16-16.44,2.6-16.45,2.6a25.21,25.21,0,0,1-.07,7.91s-8.22,9-2.84,13.62,19.6-4.59,20.2-10.81A56.58,56.58,0,0,0,406.58,648.19Z"/><path class="cls-5" d="M381.65,487.91a18.27,18.27,0,0,1,2.58,4.88"/><path class="cls-10" d="M368.05,509.45s2,6.63,0,12.31c0,0,7.26,2.46,12.12-1.73,0,0-3.33-3.82-3.47-12.47Z"/><path class="cls-9" d="M358.87,553.26l.81-2.74c-.58,1.05-.95,1.67-.95,1.67S358.76,552.59,358.87,553.26Z"/><path class="cls-4" d="M392.45,545.07c-3-4.86-8.22-15.11-9.72-20.87-.69-2.63-2-5.48-3.68-5.21a2.9,2.9,0,0,0-2.19,2s-.64-2.26-2.38-2-2.26,2.36-2.26,2.36c-.36-3.08-4-3.17-4.87,0-.28,1.06-.59,2.27-.92,3.6-1.64,6.5-3.95,15.93-6.75,25.56l-.81,2.74a21,21,0,0,0,5.49,11c5.79,6,11.73,15.48,6.59,18-4.71,2.31-13-4.89-15.85-17.69-7.34,19.77-20.47,45.62-23.5,49.95-3.41,4.86-8.24,15.67,2.27,21.56s20.74-5.67,20.74-5.67a17,17,0,0,0,14.27,12.64c12.74,2,21.18-9.38,21.18-9.38,2.87-.47,28.32-21.1,30.57-42.79S395.35,549.84,392.45,545.07Z"/><path class="cls-13" d="M372.22,521.36a174.64,174.64,0,0,1-9.05,60.9c-11.7,34.41-8.56,48.16-8.56,48.16"/><path class="cls-13" d="M376.86,521s5.47,28.75,7.37,49.23a237.58,237.58,0,0,0,5.83,35.24"/><path class="cls-10" d="M364.36,564.26a21,21,0,0,1-5.49-11,4.91,4.91,0,0,1,.81-2.74c2.8-9.63,5.11-19.06,6.75-25.56h0s-11,10.73-12.23,26.5a44.13,44.13,0,0,0,.9,13.12c2.89,12.8,11.14,20,15.85,17.69C376.09,579.74,370.15,570.26,364.36,564.26Z"/><path class="cls-10" d="M375.89,577.7c-3.36-4.31,11.75-16.69,16.37-21.86-.36-16.6-5.73-18.57-9.53-31.64,4.91,2.9,11.28,8.8,15.22,21.21C402.67,560.31,381.66,585.11,375.89,577.7Z"/><path class="cls-5" d="M433.39,570s.54,6,3.73,8"/><path class="cls-5" d="M440.66,564.26s0,11.25,5.5,14.8"/><path class="cls-5" d="M442.19,603.4s2.39,7-1.53,10.61"/><path class="cls-5" d="M451,604.37a8.77,8.77,0,0,1,0,7.82"/><path class="cls-5" d="M351.6,514.56a9.11,9.11,0,0,1,.77,7.92"/><path class="cls-5" d="M356.38,515a7.67,7.67,0,0,1,0,6"/><path class="cls-5" d="M334.22,572.36a11.48,11.48,0,0,0-1.72,10.89"/><path class="cls-5" d="M339.38,573.32s-2.2,4-.67,7.81"/><path class="cls-5" d="M323,613.63s-1.62,3.35-1,5.45"/><path class="cls-5" d="M326.87,614.4s-1.25,3-.49,4.68"/><path class="cls-5" d="M406,501.88s.92,5.41,5.08,6.33"/><path class="cls-5" d="M402.24,503.54s.51,3.46,2.59,4"/><path class="cls-10" d="M384.23,502.22a16.76,16.76,0,0,0,0-9.43c-12.18-3.53-16.39-12.55-16.39-12.55-1.82,12.55-13.64,15.35-13.64,15.35a16.87,16.87,0,0,0,29.23,11.49A19.82,19.82,0,0,1,384.23,502.22Z"/><ellipse class="cls-11" cx="372.45" cy="498.47" rx="0.81" ry="1.46" transform="translate(-53.14 44.52) rotate(-6.39)"/><ellipse class="cls-11" cx="367.69" cy="499.01" rx="0.81" ry="1.46" transform="translate(-53.23 44) rotate(-6.39)"/><path class="cls-9" d="M412.59,498.86c1.33,4.63,6.21,8.69,13.36,10.94,14.17,4.46,26.95,19.09,24.37,35.61s-3.68,24.18,7.65,34.38,16.8,29.9,8.15,40.29c-6.92,8.29-15.79.5-23.82,7-9.16,7.43-14.78,4.5-20.86,4.88s-8.72,4.11-16.61,5.77c-9.3,2-22.5-4.74-19.43-21.27,3-15.91,15.93-16.83,18.27-37.34,2.2-19.24-13.32-12.17-14.84-31a34.64,34.64,0,0,1,1.95-12.45s1.06-2.93,2.66-6.32"/><path class="cls-5" d="M354.2,495.59s11.82-2.8,13.64-15.35c0,0,4.21,9,16.39,12.55a16.76,16.76,0,0,1,0,9.43c-1.45,5.54-1.7,9.39,5.83,13.47,9.67,5.23,3.59,11.78.72,20"/><path class="cls-5" d="M367.22,539.24s9.88,24.28,4,48.28"/><circle class="cls-9" cx="366.33" cy="537.16" r="2.29"/><circle class="cls-9" cx="373.62" cy="541.97" r="2.26"/><circle class="cls-9" cx="363.73" cy="544.31" r="2.17"/><circle class="cls-9" cx="365.9" cy="553.93" r="2.31"/><circle class="cls-9" cx="380.62" cy="536.59" r="2.24"/><circle class="cls-9" cx="384.41" cy="544.86" r="2.03"/><circle class="cls-9" cx="378.37" cy="551.62" r="2.31"/><polyline class="cls-5" points="365.32 545.72 370.15 548.64 372.58 544.06"/><polyline class="cls-5" points="367.63 555.27 371.98 557.61 376.66 552.96"/><line class="cls-5" x1="379.95" y1="538.69" x2="371.25" y2="553.53"/><line class="cls-5" x1="382.39" y1="544.86" x2="376.09" y2="545.28"/><path class="cls-2" d="M409.88,795.36c4.7-.81,11.28,8.77,4.18,27.1C414.06,822.46,399.46,797.17,409.88,795.36Z"/><path class="cls-2" d="M418.29,801.06c7.6.54,5.54,20.5-3.14,25.93C410.22,823.3,409.07,800.41,418.29,801.06Z"/><path class="cls-2" d="M393.07,804.43c3.62-5.24,14.71,2.87,16.4,17.39C402.42,822.87,388.44,811.13,393.07,804.43Z"/><path class="cls-2" d="M398.78,837.36c2.29-2,7.85,2.25,8.44,8.68C403.32,847,395.55,840.14,398.78,837.36Z"/><path class="cls-2" d="M403.08,802.34c5.2-2.74,13.06,6.94,10.05,23.81C406.43,824.53,395.84,806.15,403.08,802.34Z"/><path class="cls-2" d="M389,815.79c1.46-5.22,19.15-3.28,21.89,10.8C406.13,829.38,386.49,824.63,389,815.79Z"/><path class="cls-4" d="M405.58,836.75c-3.43-1.06-2.19-9.62,5.26-12.46,8.79-3.36,14.64,4.27,11.28,7.05-3,2.48-6.93-3.07-6.93-3.07s3,7.94-1.13,8.48c-3.79.49-3.22-7.63-3.22-7.63S409.66,838,405.58,836.75Z"/><path class="cls-5" d="M415,836.43s5.72,16.23,4,28.07c0,0-2.35-8.88-7.57-12.88"/><path class="cls-2" d="M397.64,844.32c.68-3.29,8.55-1.71,11.41,4.47C406.09,850.32,396.68,849,397.64,844.32Z"/><path class="cls-2" d="M404.87,837.52c3.19-1.27,6.79,5.2,4.18,11.27C405,847.36,401.07,839,404.87,837.52Z"/><path class="cls-4" d="M406.43,855.37c-2.19,0-1.46-4.8,0-6.75,2.21-2.94,8.34-3.53,8.34-1,0,1.3-1.47,2.54-3.86,1.62,0,0,2,2.07.86,3.19s-3.07-1-3.07-1S408.73,855.41,406.43,855.37Z"/><circle class="cls-3" cx="360.93" cy="828.33" r="3.3"/><circle class="cls-3" cx="371.57" cy="832.66" r="3.3"/><circle class="cls-3" cx="358.98" cy="839.34" r="3.3"/><circle class="cls-3" cx="376.27" cy="843.69" r="3.3"/><circle class="cls-3" cx="362.73" cy="849.41" r="3.3"/><circle class="cls-3" cx="380.22" cy="856.47" r="3.3"/><circle class="cls-3" cx="364.97" cy="858.93" r="3.3"/><path class="cls-5" d="M362.73,831s13.39,23.25,9.78,54.49"/><polyline class="cls-5" points="362.11 840.39 368.07 843.69 370.35 835.72"/><polyline class="cls-5" points="366.03 850.57 370.78 853.52 374.52 846.48"/><polyline class="cls-5" points="367.93 860.39 372.41 863.02 377.69 858.59"/><path class="cls-6" d="M397.62,866.72c4.18.73-1,11.47-1,11.47s5.5-1.25,4.16,3.62-9,7.65-9,7.65,7.24-.66,4,5.21-13.31,10-23.85,6.5c-.52-2.84,0-16.62,3.91-19.74,4.51-3.59,4.11,4.26,4.11,4.26s.32-7.5,2.81-11.62,5.75-2.13,5.37,2.49C388.06,876.56,392.07,865.74,397.62,866.72Z"/><path class="cls-5" d="M394.37,874.32a46.31,46.31,0,0,1-22.51,26.85"/><path class="cls-6" d="M359.19,893s-5.84,0-5.84,4,11.46,6.12,18.22,4.23c0,0,2.39-5.11.61-16.87s-5.8-6.61-5.19-3.82c0,0-.49-10.84-3.68-10.93s-2.17,5.79-2.17,5.79-3.26-12-9.41-9.9-4.43,16.07,4.11,19c0,0-4.43-1-5.37,2S356.66,892.67,359.19,893Z"/><path class="cls-5" d="M355.84,875.48s6.48,4.06,15.73,25.68"/><path class="cls-6" d="M524.28,859.28c-.1.25-9.07-11.49-6.5-18.69,2.67-.22,5.39,2,12.38.72,3.84-.74,6.94.7,8.08,3.11s3-1.3,6.29-3.83,3.81-3.94,9.15-4.28,8.78.42,8.68,5.19-3.87,6.42-2,11.78,4.27,4.91,9.31,5.32,9.15,6.31,6.1,9.37-12.13,4.65-13.43,9.49-12.23,7-19.86,2.1-18.22-9.42-21.39-6.13S524.28,859.28,524.28,859.28Z"/><path class="cls-6" d="M456.6,818.57c3.82-1.93,10.61-4.12,17.14-.09,8.69,5.37,13.06.71,20.78,7.77,11,10,8.09,38.49-8.17,39.65-15.51,1.12-13,4.79-22.47,4.84s-8.2-4.28-20.53-4c-14,.33-23.36-27.28-8.7-41C443.33,817.59,451.23,821.28,456.6,818.57Z"/><path class="cls-9" d="M461.43,822.2s3.19,4.51,8.31.53c0,0-2.83-2.25-1.82-7.61.75-3.94,3-5.51,5.68-5.24s3.38-2.31,1.08-3.14c-3.21-1.15-7.48.32-9.36,4.77C463.73,815.27,465.8,819.54,461.43,822.2Z"/><path class="cls-13" d="M449.93,833.14c-4.41,5.6-5,17.83-.31,24.38"/><path class="cls-13" d="M478.42,833.25c2.35,4.62,4.08,16.64-.71,23.79"/><path class="cls-3" d="M454.74,846.22c2.09-.27,1.83,5.3-.06,5.3S453.13,846.44,454.74,846.22Z"/><path class="cls-2" d="M469.72,857.29c1.42.13,1,3.83-.55,3.49S468.31,857.16,469.72,857.29Z"/><path class="cls-3" d="M492,840.45c1.17.11,1.29,2.3,1.29,5,0,3-1,5.77-2.09,5.47s-1.29-2.52-1.16-5.39S490.55,840.31,492,840.45Z"/><path class="cls-3" d="M459.27,827.34c1.56,1,.58,3.51-1.37,7.67-1.71,3.67-.64,8.08-2.35,8.22s-2.26-5.66-1.55-9.6S457.67,826.29,459.27,827.34Z"/><path class="cls-3" d="M439.26,842.44a5.08,5.08,0,0,0-.3-2.1,1,1,0,0,0-1.89.15,2.93,2.93,0,0,0,.47,2.53A1,1,0,0,0,439.26,842.44Z"/><circle class="cls-3" cx="468.17" cy="828.74" r="0.99"/><path class="cls-3" d="M469.6,835.41c2.64-.38,7,17.15,1.69,18.63-.78.22-2-.61-1.27-3.55C471.72,843.27,466.83,835.8,469.6,835.41Z"/><path class="cls-3" d="M476.67,825.17c.15-2.19,6.78-2.59,11.68,1.93,4,3.68,4.8,9.41,2.62,9.35-1.75,0-2.39-6.19-6.83-8.25S476.52,827.34,476.67,825.17Z"/><path class="cls-3" d="M451.84,824.42c.46,1.64-2.91,1-6.31,4.09-2.93,2.66-4.38,5.78-5.39,4.88-1.24-1.09.23-4.2,3-6.75C445.62,824.39,451.26,822.34,451.84,824.42Z"/><path class="cls-2" d="M486.38,887.6s9.54,5.32,10.11,14.07,7,6.3,9.72,12.69c1,2.26,3.36,6.75,6.35,4.11s4-1,3.7-7.8a5.64,5.64,0,0,1,3.87-5.84c4.39-1.57,5.48,1,7-4.1s7.05-2.54,8-5c3.46-8.52-4.38-11.63-2.48-15.22Z"/><path class="cls-13" d="M510.23,906.78s-1.42-15.34,8.53-23.44"/><path class="cls-2" d="M430.84,901s-6.78,6.58-1.33,11.38,11.72.67,13.13,6.11,4,6,7.9,7,5.28,4.65,8.22,2.58,2.07-4.8,4.84-6.16-1.9-6.85,1.61-8.13,1.84,4,6.7,4.49,5-1.61,8.84,1.5,8.56,3.38,10.33,1,3.89-7.78,1.27-10.9-8-6.06-3.22-8.22,8.35,2.07,9.67-1.09-.21-10.1-12.42-13S430.84,901,430.84,901Z"/><path class="cls-13" d="M480.75,910.67S476,898.8,450.29,894.35"/><path class="cls-13" d="M553.84,846.13s-18.82,9.76-25.29,27.29"/><path class="cls-2" d="M427.11,879.47s-16-5.27-22.94-4c-3.94.73-3.85,2.64-7.85,2.47s-8-.15-8.93,4.18c-.68,3.06-1.7,4.12,0,6.74s7.36,2.5,7.51,4.94c.12,2-2,3.1-2.34,5s1.59,2.53,1.37,4.85-3.33,4.26-1.52,8.09,5.14,5.43,7.3,3.84,4.27-4.2,8.18-3.76,6.14-1.81,6.29-5a2.82,2.82,0,0,1,5.56-.51c.87,3.18-.5,6.73,3.69,6.94s4.49-2.46,7.59-1.15,4.21-1,5.5-2.17c2.17-2,5.17-.51,6.17-6.22S443.78,883.39,427.11,879.47Z"/><path class="cls-13" d="M400.58,902.1s5.91-16.79,39.54-14"/><path class="cls-6" d="M495,846c3.37-2,9.44-4.41,15.64-1.13,8.27,4.37,12-.15,19.45,5.83,10.64,8.51,9.74,34.66-5.05,36.71-14.09,2-11.53,5.16-20.22,5.79s-7.75-3.42-19-2.4c-12.75,1.16-23-23.49-10.43-36.94C482.84,845.9,490.28,848.78,495,846Z"/><path class="cls-9" d="M507,848.2s-2.5,4.39-7.52,1.21c0,0,2.38-2.29,1-7.09-1-3.52-3.21-4.76-5.63-4.27s-3.29-1.8-1.26-2.76c2.82-1.34,6.84-.37,9,3.52C504.25,842.09,502.74,846.17,507,848.2Z"/><path class="cls-13" d="M489.81,859.7c-3.69,5.38-3.46,16.59,1.2,22.28"/><path class="cls-13" d="M515.84,858.06c2.43,4.08,4.74,15,.8,21.77"/><path class="cls-3" d="M495,871.35c1.89-.38,2,4.73.26,4.84S493.54,871.64,495,871.35Z"/><path class="cls-3" d="M509.36,880.55c1.29,0,1.11,3.44-.3,3.22S508.06,880.52,509.36,880.55Z"/><path class="cls-3" d="M528.65,863.81c1.08,0,1.32,2,1.48,4.48.18,2.71-.53,5.33-1.58,5.13s-1.33-2.22-1.38-4.85S527.35,863.77,528.65,863.81Z"/><path class="cls-3" d="M498,853.83c1.49.85.74,3.17-.78,7.09-1.35,3.46-.1,7.42-1.66,7.65s-2.4-5-2-8.68S496.47,853,498,853.83Z"/><path class="cls-2" d="M480.59,869.31a4.6,4.6,0,0,0-.63-2.91.73.73,0,0,0-1.33.19,2.81,2.81,0,0,0,.84,3.2A.74.74,0,0,0,480.59,869.31Z"/><circle class="cls-3" cx="506.21" cy="854.57" r="0.9"/><path class="cls-3" d="M507.91,860.57c2.39-.5,7.44,15.24,2.68,16.92-.7.25-1.83-.44-1.38-3.17C510.33,867.62,505.41,861.1,507.91,860.57Z"/><path class="cls-3" d="M513.75,850.79c0-2,6-2.77,10.79,1.05,3.88,3.12,5,8.31,3,8.39-1.59.06-2.55-5.51-6.73-7.12S513.74,852.78,513.75,850.79Z"/><path class="cls-3" d="M491,851.61c.52,1.47-2.59,1.1-5.51,4.13-2.51,2.6-3.65,5.54-4.63,4.78-1.19-.92,0-3.85,2.35-6.35C485.34,852,490.37,849.75,491,851.61Z"/><path class="cls-6" d="M444.09,852.8c3.83-1.93,10.61-4.12,17.14-.09,8.7,5.36,13.06.71,20.78,7.77,11,10,8.1,38.49-8.17,39.65-15.51,1.11-12.94,4.79-22.47,4.84s-8.19-4.29-20.53-4c-14,.33-23.35-27.28-8.69-41C430.82,851.82,438.73,855.5,444.09,852.8Z"/><path class="cls-9" d="M448.93,856.43s3.18,4.51,8.31.52c0,0-2.84-2.24-1.82-7.61.75-3.94,3-5.51,5.67-5.23s3.38-2.31,1.08-3.14c-3.21-1.16-7.47.32-9.36,4.77C451.22,849.5,453.29,853.77,448.93,856.43Z"/><path class="cls-13" d="M437.43,867.37c-4.42,5.6-5,17.83-.31,24.38"/><path class="cls-13" d="M465.91,867.48c2.36,4.62,4.09,16.64-.7,23.78"/><path class="cls-3" d="M442.24,880.45c2.09-.27,1.82,5.3-.07,5.29S440.62,880.66,442.24,880.45Z"/><path class="cls-3" d="M457.22,891.52c1.41.12,1,3.83-.56,3.49S455.8,891.39,457.22,891.52Z"/><path class="cls-3" d="M479.47,874.67c1.17.12,1.28,2.31,1.28,5,0,3-1,5.77-2.09,5.48s-1.29-2.52-1.15-5.39S478.05,874.54,479.47,874.67Z"/><path class="cls-3" d="M446.76,861.57c1.57,1,.58,3.51-1.36,7.67-1.72,3.67-.64,8.08-2.36,8.21s-2.25-5.65-1.54-9.59S445.17,860.52,446.76,861.57Z"/><path class="cls-3" d="M426.76,876.67a5.43,5.43,0,0,0-.3-2.1,1,1,0,0,0-1.9.15,2.93,2.93,0,0,0,.48,2.53A1,1,0,0,0,426.76,876.67Z"/><circle class="cls-3" cx="455.67" cy="862.97" r="0.99"/><path class="cls-3" d="M457.09,869.63c2.65-.37,7,17.16,1.7,18.64-.78.22-2-.61-1.27-3.55C459.22,877.5,454.33,870,457.09,869.63Z"/><path class="cls-3" d="M464.17,859.4c.15-2.19,6.77-2.59,11.68,1.93,4,3.68,4.79,9.41,2.61,9.35-1.74,0-2.38-6.19-6.82-8.25S464,861.57,464.17,859.4Z"/><path class="cls-3" d="M439.33,858.64c.46,1.65-2.91,1-6.31,4.1-2.92,2.66-4.38,5.78-5.39,4.88-1.23-1.1.24-4.2,3-6.75C433.12,858.62,438.75,856.57,439.33,858.64Z"/></svg>