<svg id="圖層_1" data-name="圖層 1" xmlns="http://www.w3.org/2000/svg" viewBox="0 0 754.23 1066.7"><defs><style>.cls-1,.cls-4{fill:none;}.cls-2{fill:#bcd0ed;}.cls-2,.cls-3,.cls-4,.cls-5,.cls-6,.cls-7,.cls-8{stroke:#000;stroke-linejoin:round;stroke-width:0.26px;}.cls-3{fill:#ebebf2;}.cls-5{fill:#fff;}.cls-6{fill:#325984;}.cls-7{fill:#ea6157;}.cls-8,.cls-9{fill:#f2b85a;}</style></defs><title>all</title><rect class="cls-1" x="-818.06" y="-1148.69" width="841.8" height="1190.55"/><rect class="cls-1" x="44.14" y="-1148.69" width="841.8" height="1190.55"/><path class="cls-2" d="M80.72,814.78s-7.85,31,31.09,47.31,58.49,23.2,72.49,32.08,35.77,6.58,55.53,13.74,30.35,19.76,49,21.48,46.39-.57,60.71,2,21.19,10.31,41.52,5.15,24.63-10,51-6.3,86.48-10.6,105.1-19.76,27.49-12.31,39.23-15.75,32.94-3.44,42.39-10.6,21.19-14.89,31.5-28.63,13.74-10,20.62-28.64-25.93-49.68-25.93-49.68L341.49,810.13l-228.14-14Z"/><path class="cls-2" d="M258.7,895.54s5.92,2.09,14.86,11,21,7.17,21,7.17"/><path class="cls-2" d="M309.78,916s5.66.44,8.49,2.29"/><path class="cls-2" d="M289.92,882.35a84.34,84.34,0,0,0,30.34,15.18c18.4,5,24.37,16.84,34.57,18.49"/><path class="cls-2" d="M292,861s3.8,7.24,9.26,11.55"/><path class="cls-2" d="M306.58,876.12s2.25,1.82,3.87,3"/><path class="cls-2" d="M144.27,861.68c5.83.8,13.81,11.34,17.57,12.54"/><path class="cls-2" d="M161.84,868.63s3.62,4.25,7.6,5.91"/><path class="cls-2" d="M577.13,883.37s3.78-1.84,6.71-7.33"/><path class="cls-2" d="M622.8,881.41a17.76,17.76,0,0,0,5-4.39"/><circle class="cls-2" cx="592.59" cy="885.45" r="2.08"/><ellipse class="cls-2" cx="567.84" cy="894.51" rx="2.98" ry="1.46" transform="translate(-469.94 1108.04) rotate(-69.22)"/><ellipse class="cls-2" cx="238.6" cy="891.84" rx="2.02" ry="2.8" transform="translate(-413.95 238.78) rotate(-30)"/><ellipse class="cls-2" cx="318.27" cy="869.73" rx="1.96" ry="3.71" transform="translate(-521.77 479.78) rotate(-45)"/><ellipse class="cls-2" cx="376.36" cy="927.16" rx="2.67" ry="1.38"/><ellipse class="cls-2" cx="398.61" cy="919.57" rx="2.59" ry="1.98"/><path class="cls-3" d="M71.49,744.12s-12.75,0-16.39,11.88-2.33,43.23,5,63.21S77.34,826,93.27,833s17.55,26.18,31.31,25.91,15.39-7.83,28.89-5.67,22.68,21.33,24,32.67,5.77,11.34,6.8,31.32S196.13,942.59,205,929.9,224.21,890.21,231,877s14.1-10.2,17.32-6.52,7.35,5.2,16.23-4.75S289.62,846,312.59,845.8s36.14,13,43,31.09,6.89,29.86,15.47,32.16,9.49-5.06,22.51-4,26.65,14.86,33.69,34.61,16.54,13.94,25.88,5.06,21.9-13.94,33.54,6.12,10,39,26.79,39,24.81-35.53,32.47-61.1,23.24-59,40.65-61.09,10.87,14.68,25.69,10.87,13.6-21.07,24.34-33.44,24.61-16.18,36-13.6,20.52.58,25.6-14.42S715.81,746,669.06,732s-145.4-106.76-145.4-106.76l-127.37-6.43s-77.68,14.34-82.18,13.45-174.67,14.56-174.67,14.56l-61,93.31Z"/><path class="cls-4" d="M63.26,763.15S72,774.91,83.93,782.49s17.82,10.62,17.82,10.62"/><path class="cls-4" d="M132.69,807.07a65.29,65.29,0,0,0,5.8,3.06"/><path class="cls-4" d="M275.26,823a291.6,291.6,0,0,0,33.76-.85c23.29-1.77,32.12,5.19,42,6"/><path class="cls-4" d="M634.89,866.64a39.58,39.58,0,0,0,7.69-13.07c3-8.34,11.6-12.82,11.6-12.82"/><path class="cls-4" d="M105.93,825.55a19.68,19.68,0,0,1,5.48,10.12"/><path class="cls-4" d="M168.15,828.12s6.3,13,6.47,21"/><path class="cls-4" d="M164.5,835.67s3,3.48,3.65,7"/><path class="cls-4" d="M445.78,843s6.47,13.67,6.17,29.45"/><path class="cls-4" d="M569.59,822.48a69,69,0,0,0-11.69,33.63"/><path class="cls-4" d="M570.26,832.94a21.74,21.74,0,0,0-3.42,10.79"/><path class="cls-4" d="M622.8,841.92s4.23-17.45,13.29-27.71"/><path class="cls-4" d="M632.33,831.66a13,13,0,0,1,2.56-5.95"/><path class="cls-2" d="M151.67,130.16a452.76,452.76,0,0,0,0,54.23s-2.58,2.14-7.56,10.09c-5.82,9.26-20.78,38.12-23.67,42.59S132.25,225,132.25,225l-2.89,23s6.4-9.09,6.49-27.76c1.66-2.89,11.43-18.68,14.23-23.76l1.57,56.57-14.88,18.39-16.72-1.75,14.09,7.88s-18.56,31.17-26.27,38.87c0,0,9.63-3,18.74-18.38a75.06,75.06,0,0,1,.35,14.88s5.07-4.7,4.38-21c0,0,9.81-19.44,20.31-27.85l-3.3,89.86-8.65,10.52s-32.83,0-38.82-1.33c0,0,7.32,4.65,20.18,5.54s14.2,1.55,14.2,1.55-27.95,35.49-40.37,46.36-18,20.41-22.63,23.74c0,0,13.09-3.55,26.62-18.86S114,405.94,114,405.94a235.81,235.81,0,0,1-11.32,51.24s13.53-8,18-54.79c0,0,20.63-22.18,29.28-37.27,0,0-4.88,70.76-5.32,92.06,0,0-37.71,28.83-57,44.14S61.62,523.5,61.62,523.5l31.05-19.3s-1.55,10.87-12.2,40.37a73,73,0,0,0,13.09-18.85s5.1,2.66,6.65,7.76c0,0,1.56-6.87-4.66-13.75a114.82,114.82,0,0,0,1.34-16s24-13.31,26.39-16.42c0,0-2.66,27.07-10.65,41.37,0,0,18.09-21.69,18.23-43.38L145.14,474s.28-1-1.4,61.86l32.34,12s-6.13-79-6.88-101.2S166.58,376,165.46,339s-1.86-33.39-1.86-33.39a99.53,99.53,0,0,0,19.72,15.71c12,7.33,13.08,8.2,13.08,8.2l-32.45-34-2.1-34.38,40,23.74-40-34.56s-3.31-48.86-4.36-55.49l13.44,18.5s.17,15.18,5.93,22.34l-1.05-18.5s9.08,14.13,20.24,17.8c0,0-17.86-20.13-25.82-30.19a151.29,151.29,0,0,1-13.64-20.69S154.53,150.3,151.67,130.16Z"/><path class="cls-2" d="M244.56,543.87c-7.58-.86-19.32,1.56-18.57-2.46.81-4.39-3.85-3.63-3.42-7,.28-2.23,7.36-4.8,14.41-3.63,6.49,1.08,7.28,4.87,11.62,4.79-1.33-34-2.7-66.53-3.58-80.53-2.18-34.89-7.09-86.14-7.63-109,0,0-.14-78.72-1.31-108.05s-6.87-113.06-6.87-113.06h-9.07s-2.86,200.25-3.81,241.38c-.41,18-.47,72.6-.39,128.36,2.07.31,6.29,1.11,7.16,2.63,1.18,2-1.92,1.92,0,4.16s4.7,3,4.06,5.76c-.46,2-7,1.16-11.2-.18.11,67.58.37,133,.37,133h36.15s-1.71-48.6-3.59-96.92A7.21,7.21,0,0,1,244.56,543.87Z"/><path class="cls-5" d="M227.16,507.15c.64-2.77-2.13-3.52-4.06-5.76s1.18-2.14,0-4.16c-.87-1.52-5.09-2.32-7.16-2.63q0,6.18,0,12.37C220.13,508.31,226.7,509.14,227.16,507.15Z"/><path class="cls-5" d="M222.57,534.37c-.43,3.41,4.23,2.65,3.42,7-.75,4,11,1.6,18.57,2.46a7.21,7.21,0,0,0,4.33-.82q-.13-3.76-.29-7.52c-4.34.08-5.13-3.71-11.62-4.79C229.93,529.57,222.85,532.14,222.57,534.37Z"/><path class="cls-3" d="M210.13,323.41S183,346.56,158.5,355.33a23.21,23.21,0,0,0,10.55.34s-5.2,7.47-9.26,10.56a52.37,52.37,0,0,0,13.32-5,22.62,22.62,0,0,1-4.55,9.1s4.06,1.3,17.38-6S210.13,323.41,210.13,323.41Z"/><path class="cls-3" d="M211.22,413.86S171,439.19,142,443.66c0,0,5.61,3.48,10.77,3,0,0-9.69,14.63-19,20.29a24.2,24.2,0,0,0,9.28-1.6s-8.7,9.86-17.1,13.91c0,0,14.75,5.22,29.7-1,0,0,.73,15.51-2.46,22,0,0,20.29-5.66,28.26-18.26l14.92-35.79Z"/><path class="cls-3" d="M220.74,194.84a194.4,194.4,0,0,1-18.93,22.77s13.05-7.78,20.83-16.13Z"/><path class="cls-3" d="M230.8,200.34l1.3,8.92s11,10.81,31.33,19C263.43,228.23,235.73,205.46,230.8,200.34Z"/><path class="cls-3" d="M232.1,224.46a192.12,192.12,0,0,0,37.47,18.95c21.28,7.87,24.9,10.85,24.9,10.85s-3.83,1.49-12.34,0a78,78,0,0,0,30,13s-12.77,10.22-50,2.56c0,0-18.39-4.05-27.93-12.77Z"/><path class="cls-5" d="M217.11,299.29c1.79-.74,4.73-.84,6.3,1.68s.36,3.39,1.57,5.21,1.21,4.52-3.92,3.65-5.56-3.13-5.65-5.3S215.19,300.09,217.11,299.29Z"/><path class="cls-5" d="M216.4,396.16c2.27-1.36,7.56-1.54,9.2,1.74s-3,3.7-1,6.2-3,6.5-7.79,4.76C213.4,407.63,212.9,398.26,216.4,396.16Z"/><path class="cls-3" d="M224.34,99.21s-7.55,21-15.74,31l8.25-4.17s-12.34,25.34-24,41.6c0,0,11.21-6.75,17.67-15.08,0,0-4.52,13.23-9.7,19.27,0,0,5.39-.87,11.43-6.9,0,0-8,20.91-26.09,36.43,0,0,17.46-8.19,27.6-22.42,0,0,2,8,5.41,11.42l5.15-11.42s10.78,19,31.47,24.36c0,0-5-12.07-6-22.42,0,0,6.25,12.93,28.24,12.93-5-3.66-23.07-22.42-27.38-37.51a23.28,23.28,0,0,0,15.52,6.9c-1.51-2.58-17.68-15.73-22.85-31.47a30.2,30.2,0,0,0,12.72,2.8S233,115.73,224.34,99.21Z"/><path class="cls-4" d="M221,145s0,7.05-4.08,12.45a11,11,0,0,0,6.53-3.57,52.13,52.13,0,0,1,0,7.35,8.09,8.09,0,0,0,3.06-4.29"/><path class="cls-3" d="M217.64,215.53s-30.86,47-62.15,72.36c0,0,8.52-1.71,14.69-7,0,0-2.13,11.07-7.88,18.09,0,0,11.28-4,24.27-21.28,0,0-1.71,23.2-7.24,36.18a220.73,220.73,0,0,0,36.58-47.79s1.79,13.3,1.73,21.4a41.44,41.44,0,0,0,8.09-15.75s3.4,22.35,25.75,31.08a31.24,31.24,0,0,1-3-13.63s10,12.77,33.63,14.69c0,0-11.5-8.94-12.77-19.37,0,0,13,7.66,25.11,7.24,0,0-42.64-36.7-63.67-74.11l-8.16,7.07Z"/><path class="cls-4" d="M240.89,260.24s3,10.36,10.24,13.11l-1.75-7.56s5,4.81,9.49,6.31l-4.37-8.49"/><path class="cls-4" d="M207.05,245.25s-3.87,6.24-6.12,8.49a8.3,8.3,0,0,0,4.74-1.12l-3,8.49a13.47,13.47,0,0,0,5.37-4.75"/><path class="cls-3" d="M214.52,316s-28.16,51-61.73,74.54A58.28,58.28,0,0,0,170,385s-10.77,15.9-17.23,25.73c0,0,11.13-2.18,28.14-14.61s23.77-13.74,23.77-13.74a72.46,72.46,0,0,0-.44,12.43s9.38-11.12,16.36-15.7c0,0,7.3,8.71,13.57,12a62.86,62.86,0,0,1,8.24-11.56s31.19,24.43,63.25,26c0,0-15.05-12-19.19-20.94,0,0,13.52,7,32.93,3.49a96.26,96.26,0,0,1-33.59-28.57l13.74-.65s-43.65-25.49-58.68-42.19l-4.78,9.91s-6.55-5.84-10-12.74L218.44,322A12.16,12.16,0,0,1,214.52,316Z"/><path class="cls-4" d="M199.47,354.51s-2.3,5.31-6.4,7.8a9.93,9.93,0,0,0,6.4-.6s-.1,4.2-1.7,5.9a10.7,10.7,0,0,0,6.49-3.5"/><path class="cls-4" d="M252.89,346.46s5.81,8.16,11,11.93a14.25,14.25,0,0,1-8-.61,24.19,24.19,0,0,0,8.77,7.64s-5.1.82-8.77-.61"/><path class="cls-3" d="M215.91,404.1s-20.46,30.6-50,48a13.73,13.73,0,0,0,8.16,0s-4.5,11.26-12.38,17.46a53.43,53.43,0,0,0,22.64-7.89A61.4,61.4,0,0,1,169,498s16.48-7.53,23.6-15.47c0,0,2.24,8.55.41,15.47a101.54,101.54,0,0,0,24.62-26.45s1.66,8.14,0,13.83A46.19,46.19,0,0,0,228.17,470s4.52,4.88,6,9.36c0,0,1.92-12.61,3.75-15.87,0,0,8.34,6.71,15.66,8.95v-5.08A37,37,0,0,0,266.42,476s-1.13-10.72,1.3-17.06c0,0,14.14,10.4,17.88,46.31,0,0,5.69-8.94,8.12-18a42.36,42.36,0,0,0,23.73,3.25s-5.85-7.15-8.13-13.16a30.8,30.8,0,0,0,19-.65s-25-11.86-36.56-26.16a20.65,20.65,0,0,0,10.4.16,145.81,145.81,0,0,1-33.63-21.28c-16.09-13.81-25.19-19.83-25.19-19.83s.21,8.62-.71,12.52c0,0-8.06-8.62-13.26-13l-6,8.12A133.92,133.92,0,0,0,215.91,404.1Z"/><path class="cls-4" d="M208.39,439.23s-2.71,6.77-5.54,9.35a9,9,0,0,0,6.52-.86s-1.72,6.65-4.3,9.23c0,0,4.06-.49,6.15-3.44"/><path class="cls-4" d="M259.59,436.15s4.93,7.63,10.83,10.22c0,0-4.43,1.47-7.63,0a8.14,8.14,0,0,0,2.22,2.94,9.65,9.65,0,0,1-8.5-2.72"/><path class="cls-2" d="M339.34,269.72c1.06,8.41,74.88,20.66,74.88,20.66l20.89,45.21,22.32-128.76L349.27,196.52S337.63,256.05,339.34,269.72Z"/><path class="cls-4" d="M393.75,213.27s3.92,11.27,6.21,33.89c2.64,26,9.05,35.57,9.05,35.57"/><path class="cls-4" d="M407.09,237.92a161.91,161.91,0,0,0,3.63,20.3"/><path class="cls-3" d="M343.34,200.14c-3.61-6.68,7.42-17,17.69-22.18,7.71-3.9,14.13-10.38,27.23-10.37,17.2,0,40,.89,51.9,8.6s21.06,27.29,4.16,33.52-22-6.22-37.08-3c-12.75,2.75-18,.42-25.64-4.09C367.37,194.22,349.05,210.73,343.34,200.14Z"/><path class="cls-2" d="M433.56,332.23c-3.12,24.43-5.4,76.49-5.4,76.49l180.07,59.46s-5.28-47.48,0-92.76,3.36-129.75-4.79-159.86H440.62S442.43,262.79,433.56,332.23Z"/><path class="cls-4" d="M511.45,213.27S499.3,250.68,490.2,276.7s-17.94,44.93-17.68,45"/><path class="cls-4" d="M566.53,218.15s2.6,29.49-2.17,58.55S560,377.75,560,377.75"/><path class="cls-4" d="M460.54,380.36a166.22,166.22,0,0,0-7.87,31.58"/><path class="cls-4" d="M568.76,302s-1.07,14.23-1.52,21.8a113.88,113.88,0,0,0,0,11.74"/><path class="cls-4" d="M566.89,352.24s-.29,9.44-.94,14"/><path class="cls-4" d="M487.49,263.94a57.57,57.57,0,0,0-2.75,9.14"/><path class="cls-4" d="M481.4,280.45s-1.38,4.22-1.87,6.78"/><path class="cls-3" d="M418.8,213.63c-5.24-14.95,3.81-33.52,24.3-46s30.16-8.12,38.36-9.88,18.58-.48,27.65-2.41,21.39-4.6,32.54-1,13.81,3.72,20.06,7.88,8.76,9.8,23.32,15.75,14.27,11,20.51,16.49,10,10.4,8.76,18.42-6.68,8.47-16.79,8.77-18.57,4.9-33,1.93-26.75-7.13-40.12-6.09-27.78,5.64-37.14,5.5-25.86,3.71-37.45,3.12S422,222.77,418.8,213.63Z"/><path class="cls-2" d="M421.94,321.67s4.41,33.76,13.93,55.65a5.49,5.49,0,0,0,4.05,3.21c5.8,1.05,19,3.48,24.86,4.91a3.09,3.09,0,0,0,2.44-.42,174.58,174.58,0,0,1,16.9-9.8c7.81-3.82,15.78-13.6,17.94-19.69a5.4,5.4,0,0,0,.1-3.23c-1.37-5-6-21.51-8.25-26.22l-45.68-9.4Z"/><path class="cls-4" d="M459.47,322.93s2.62,20.24,4.31,37.56,3.36,18.24,3.44,24.53"/><path class="cls-4" d="M467.22,343a112.14,112.14,0,0,1,2.17,15.74"/><path class="cls-3" d="M418.29,318.79c-1.07-5.49,5.09-13.41,18.57-16.11s24,2.87,36.71,6.51,23.8,2.12,26.67,9.6-6.52,10.94-19.57,11.13-13.8-5.4-23.24-6.06-10-1.66-17.74-.55S419.69,326,418.29,318.79Z"/><path class="cls-2" d="M405.74,443.66s-7.81,44.36-17.07,81.41S359,622.35,367,630.29s28,4.93,44.11,10.68,162.72,16.64,171.47,7.89-1.35-32.3,0-59.89,2-39.71,12.11-62.59,12.62-35.79,12.53-47.65Z"/><path class="cls-3" d="M399.85,443.66c-3.2-9.69,4.75-16.23,12.34-22.56s11.11-15.89,19-16.81,16.12,1.62,28.46,5.1,13.61-2.85,35.45,6.64,44.62,8.23,69.63,14.88,48.42,14.24,53.17,31.65-7.28,28.16-21.21,26.58S573.4,475.28,558.82,474s-19.66.63-28.75-2.75-40.8,3-54.54-.21-39.5-7.84-49.26-15C415.91,448.43,402.6,452,399.85,443.66Z"/><path class="cls-4" d="M562.27,470.91a365.82,365.82,0,0,1-16.34,47.83,436.93,436.93,0,0,0-19.44,56.38"/><path class="cls-4" d="M547.54,495.06s-9,19.21-13.22,31.93"/><path class="cls-2" d="M518.06,344.74a108.93,108.93,0,0,1-3.53,12.15,2.82,2.82,0,0,0,1.31,3.55,42.19,42.19,0,0,1,7.53,4.76,2.84,2.84,0,0,0,2.57.66c3.84-.93,13.59-3.45,16.75-5.65,0,0,.45-7.51-1-9.61Z"/><path class="cls-3" d="M515.21,343.25c-.18-3.78,4.32-8.06,12.11-7.74S545.42,342.42,545,349s-10,6.06-14.91,2.8S515.51,349.53,515.21,343.25Z"/><path class="cls-4" d="M524.45,354.68a15,15,0,0,0-1.89,5.3"/><path class="cls-4" d="M528,353.39s-2.4,7.6-2.07,12.47"/><path class="cls-6" d="M361.61,619.77s6.63,7.74,8.57,15.34,3.31,9.39,3.45,11.46a125.25,125.25,0,0,0-17.41,7.68c-10.77,5.58-13,7.65-18.64,9s-29.56,1.52-39.23,1.11-6.9-40.61-6.9-40.61l34.94-5Z"/><path class="cls-3" d="M347.11,606.93c10.07.12,18.61,6.19,17.82,14.78s-27.08,1.65-35.64,2.07-23.76,15.88-36.6,4a11.49,11.49,0,0,1-3.08-11.87c2.25-7.32,17.66-11.36,27.66-10.78,9.42.55,12.22,5.12,18.93,4.15C340.25,608.69,342.24,606.87,347.11,606.93Z"/><path class="cls-4" d="M332.35,628.55s.91,17.27,4.58,29.25"/><path class="cls-4" d="M338.83,638.06S339,642,340,643.62"/><path class="cls-2" d="M294.88,619.84s5.68,35.64,8.83,47.63,5.74,21.67,3.58,24.77-7.36,14.56-13.42,29.27a85.67,85.67,0,0,1-15.79,24.67L237.4,730l-18.17-32.24s17.74-102.55,19-102.55,40.92,13,40.92,13Z"/><path class="cls-3" d="M297.65,625.81c4.15,1.75,7.51-2.47,6.06-6.62s-5.5-13.34-15.14-16.37-10-8.81-15-12.1c-4.64-3.06-15.21-10.23-22.71-14.42s-14.79-3.53-18.1,0-9.82,12.19,3.09,19.87,15.45,6.4,24.06,11.26,8.37,6.3,18.32,6C285.87,613.12,290,622.56,297.65,625.81Z"/><path class="cls-4" d="M273.53,623.78c.88,10.32,9.93,43.56,12.39,58.84"/><path class="cls-6" d="M660.65,685s13,40.81,16.81,57.62c0,0-60.51,14.89-75.39,12.49s-176.24-7.69-176.24-7.69l30.25-90.75,148.27-2.41Z"/><path class="cls-4" d="M631.25,674.32s-.76,14.59,9,51.06"/><path class="cls-4" d="M641.38,699.17s5.41,27.15,10.11,34.42"/><path class="cls-3" d="M449.72,585.72c13.09-14.32,35.56-19.13,66.07-15.48s53.85-2,77.58,11.17,41.42,42.18,44.06,56.49,7.35,21.55,17.61,29,13.05,20.51,9,24.05-9-1.12-20.33-4.1-24.43-11.93-35.61-13.61S585.67,677,567,674s-51.28-11.37-64.89-8.39S386.37,655,449.72,585.72Z"/><path class="cls-6" d="M352.51,730.92l-10.95,44.33a2.18,2.18,0,0,0,1.22,2.52l39.32,17.74a6.73,6.73,0,0,0,3.1.59c9.43-.48,57.94-3,91.16-6,36.94-3.33,79.42-10,96.64-10.83s44.16-5.28,53.6-7.77l28.32-18.06-9.72-15.27-97.71-12.77L496.91,727l-52.48,4.17-45.27-13.89Z"/><path class="cls-4" d="M383.58,796.11s20.19-35.92,37.42-55.45"/><path class="cls-4" d="M626.6,771.47c-4-1.84-28.5-23.79-40.47-33.2"/><path class="cls-4" d="M536.55,750.46a78.21,78.21,0,0,1,4.7,16.76c1.24,7.56,3.77,10,3.77,10"/><path class="cls-3" d="M347.45,726.6c-3.57-9.35,8.08-18.61,14-21.79A126.23,126.23,0,0,1,390.06,694a231.87,231.87,0,0,1,46.28-5.39c17.39-.24,43.63-2.15,90,0s83.29,13.94,96,20.16,22.69,14,27.58,21.57,1.73,13.56-3.56,16.9-12,2.45-25.57-.89a89.12,89.12,0,0,0-42,.67c-11.79,3.34-16.68,5.11-29.35,1.11s-26.91-7.11-48-5.56-36.24,7.79-54.92,6.9-22.46-8.9-34.69-13.79-26.77-5.21-42.7-2.45C355.19,735.65,349.49,732,347.45,726.6Z"/><path class="cls-2" d="M141.16,547.9s-7.43,10.68-12.59,28.76-12.59,37.6-16.14,54-7.11,43.84-7.11,43.84,84.59,9,87.5,8.72,80.71,19.37,80.71,19.37S271,665.77,265.78,650s-13.88-41-19.69-51.33-9.69-28.09-9.69-28.09l-39.06-11.95Z"/><path class="cls-3" d="M141.39,555.27c-7.86-4.49-10.06-11.28-8.39-16.77s10.22-10.21,21.8-9.75,26.22,9.3,36.13,10.06,13.72,5.64,19.06,5.79,11.59-.15,15.7,6.71,9.83,7.51,12.5,13.11c3.21,6.71,2.6,20.12-9,19.06s-15.86-9.76-30.95-11.59-16-5.45-23.48-9.45C163,556.12,152.06,561.37,141.39,555.27Z"/><path class="cls-4" d="M226,591.6a408,408,0,0,1,3.42,41.3c.57,21.36,0,28.76,0,28.76"/><path class="cls-2" d="M623.23,418.49s-.92,29,0,45.76l-14.72,15.08,13.57-8.42s1.61,11.73,1.15,15.64l-7.32,6.67-16.34-1.15,11.61,5.51L593,517.82s12.08-5.29,18.14-11.27,12.13-12.87,12.13-12.87v31.73l-26.75,8.5,10.11,1.61S589.46,546.94,586,551.39c0,0,33.73-17.71,37.33-20.93,0,0-.31,27.37-1,33.8l-33.13,16.33,32.9-9.43-2.75,51.05,11.92,6.15,1.4-34.2s24.46,19.74,33.15,25.16c0,0-23.91-24.25-32.09-31.14.09-2.53-1.52-36.1-1.52-36.1l17.57,17s5,20.95,5.43,26.92c0,0,2.3-13.79,1.15-19.77,0,0,10.11,5.52,13.33,8.51,0,0-32.42-35.87-37.25-40,0,0-3-37-3.44-41.85a130,130,0,0,1,17.47,20.56c7.59,11.4,14.95,20.37,14.95,20.37l-11.27-25.52,8.74-.46-12.42-4.05L629,496.44l-2.3-43.92s9.88,9.28,14.71,14.41c0,0-6.9-12.25-14.71-20.23Z"/><path class="cls-4" d="M289.58,696.55s.37,6.87,1.5,9.81"/><path class="cls-6" d="M86.31,690.63S72.58,726.82,66.37,749a3.47,3.47,0,0,0,1.56,3.91c4,2.4,12.87,7.79,23.18,14.49,14,9.15,24.31,15.84,41.71,22.54s21.86,8.92,21.86,8.92,19.64,2,34.14,0,51.53-2.9,75.62.89a117.49,117.49,0,0,1,15.84-10.26c7.89-4.15,15.59-12.75,24.35-20.58a3.47,3.47,0,0,0,.85-4.09c-2-4.33-6.56-13.9-10.7-22.85-5.58-12-12.27-25.87-20.3-31.23l-75-3.57-57.11-18.74Z"/><path class="cls-4" d="M184.3,722.63a231,231,0,0,0-14.75,31.57c-6.46,17.33-12.92,30.39-14.87,44.69"/><path class="cls-4" d="M181.41,744.12c-1.52,2.79-3.2,8.54-3.83,14"/><path class="cls-3" d="M82.59,690.45c-5.74-8.28,1.87-19.74,21-26.6s53.64-4.79,67.77-2.08,42.62.41,65.69,7.9,40,17.88,41.79,32.43-3.12,20.49-12.06,20.53-16.84-8.69-34.09-6.61-23.29,4.37-37.63-2.08-38-14.34-61.53-16.83S88.2,698.56,82.59,690.45Z"/><path class="cls-4" d="M259.3,733.88c3.33,13.53,8.55,21.41,11.9,40.17"/><path class="cls-6" d="M185.42,795.59s-2,6.85-3.13,10.56,1.23,4.94,6.94,6.28,9.79,2.85,12.07.85,7-5.23,10.65-6.18-.47-16.54-.47-16.54Z"/><path class="cls-3" d="M182.76,793.88c-1.16-4.7,5.33-10.74,12.27-11.31s12-2.28,17.59,0a6.47,6.47,0,0,1-.19,12.17c-5.8,2-10.18-.8-14.07,2.26S184.76,802,182.76,793.88Z"/><path class="cls-4" d="M184.85,779.62s5.23,3.33,6.75,8.65"/><path class="cls-4" d="M188.23,769.54s6.51,10.17,6.51,18.16"/><path class="cls-4" d="M195.31,768s3.43,13.22,1.71,18.07"/><path class="cls-4" d="M198.55,787.7s3.32-5,2.66-14.64"/><path class="cls-4" d="M199.92,798.89s.69,9.08-.69,12"/><path class="cls-6" d="M210.11,777.19s-3.42,6.86-1.71,17.64c1.15,7.23,1.53,11.77,1.65,14a2,2,0,0,0,1.67,1.83c4.46.63,17.35,2.39,29,3.36,9.75.81,14.38,2,16.35,2.71a2,2,0,0,0,2.16-.59,45.77,45.77,0,0,1,8.53-8.2,2,2,0,0,0,.76-2.17c-1.51-5-6.68-21.78-9.23-26.13Z"/><path class="cls-4" d="M251.12,788.27s3.78,11.26,4.87,19.84"/><path class="cls-3" d="M204.66,774.05c-1-9.29,16-19,22-20.09s10.93.11,13.9,4.14,7.49,10.2,15,14.25,7.6,8.19,5.94,10.21-8.14,1.29-17.71,0C227.83,780.43,206,786.09,204.66,774.05Z"/><path class="cls-4" d="M225.1,746.91a23,23,0,0,1,3.2,11.65"/><path class="cls-4" d="M230.94,760.8a47.17,47.17,0,0,0,.83-15.49"/><path class="cls-4" d="M233.89,758.56s1.47-10.85,4.38-13.8"/><path class="cls-4" d="M234.63,762.19s4.24-9.5,7.93-12.27"/><path class="cls-4" d="M238.27,763.11s4.2-4.89,8.81-7.06"/><ellipse class="cls-5" cx="224.03" cy="790.7" rx="1.07" ry="1.97"/><ellipse class="cls-5" cx="214.49" cy="788.52" rx="1.04" ry="2.01"/><ellipse class="cls-5" cx="219.88" cy="798.6" rx="1.54" ry="5.09" transform="matrix(0.99, -0.1, 0.1, 0.99, -81.83, 27.18)"/><path class="cls-7" d="M485.27,145.53s1.37,11.05,0,18.67-2.79,13.54,2.64,14.77c6.1,1.37,11-5.48,9-16.33a177.15,177.15,0,0,0-5.28-20.54Z"/><path class="cls-4" d="M487.69,170.52a9.78,9.78,0,0,0,0,4.62"/><path class="cls-4" d="M492.06,171s.35,2.21-.49,3.24"/><path class="cls-4" d="M490,171a3.85,3.85,0,0,0,0,2.6"/><path class="cls-4" d="M489.43,156.25s.6,2.49,0,3.88"/><path class="cls-4" d="M492.52,156s.28,2.58-.39,3.41"/><path class="cls-3" d="M475.91,145.47c-.38,1.92,1.7,1.85,3.22,1.42,1.22-.35,1.83-3.22,2-4.34a27.35,27.35,0,0,1-4-1C476.56,143.35,476.06,144.73,475.91,145.47Z"/><path class="cls-8" d="M496.08,126.47c-1.39-6.76-5.26-9.93-9.62-8.86-5.62,1.39-6.62,6.7-7,13.16a44.8,44.8,0,0,1-2.32,10.8,27.35,27.35,0,0,0,4,1l.2,0a32.93,32.93,0,0,0,8,.3,16.34,16.34,0,0,0,4.35-.94c.39-.15.78-.3,1.14-.46a18.28,18.28,0,0,0,6.06-4.43A32.22,32.22,0,0,1,496.08,126.47Z"/><path class="cls-3" d="M502.73,139.52c-.42-.54-1.06-1.4-1.78-2.47a18.28,18.28,0,0,1-6.06,4.43,18.38,18.38,0,0,0,2.79,3.15,1,1,0,0,0,1.34,0l3.64-3.81A1,1,0,0,0,502.73,139.52Z"/><path class="cls-3" d="M481.35,142.58a16.44,16.44,0,0,1,.3,3.19,1.14,1.14,0,0,0,.84,1.12c2.55.66,8.27-.1,9.87-1.11.93-.59,1.27-2.31,1.39-3.84a16.34,16.34,0,0,1-4.35.94A32.93,32.93,0,0,1,481.35,142.58Z"/><path class="cls-4" d="M483.38,127.69a10.91,10.91,0,0,0,0,3.62"/><path class="cls-4" d="M482.69,136.16a7,7,0,0,0,0,2.61"/><path class="cls-4" d="M486.54,134.7a5,5,0,0,0,.92,2.77"/><path class="cls-4" d="M347.6,176.26s8.22.74,16.43,8.1"/><path class="cls-4" d="M353.74,151.13s10.94,14.29,13.43,30.81"/><path class="cls-4" d="M361.94,146.46s6.65,17.81,8.63,36.19"/><path class="cls-4" d="M373,149.15s.28,21.91,1.41,33.5"/><path class="cls-4" d="M385.83,154.94s-7.06,14.85-8.2,23.61"/><path class="cls-4" d="M382.69,177.28s5.55-11.31,12.33-17"/><path class="cls-4" d="M351.06,170.78a36.76,36.76,0,0,1,14,11.16"/><path class="cls-4" d="M520.48,196.1a22.17,22.17,0,0,1,6.09,7.17"/><path class="cls-4" d="M525.41,191s5.22,5.38,6.57,11.74"/><path class="cls-4" d="M532.92,187.14a46,46,0,0,1,1.24,14.5"/><path class="cls-4" d="M539.44,186.59a103.43,103.43,0,0,0-2,16.14"/><path class="cls-4" d="M546.26,191.4s-5.89,7.37-6.82,12.8"/><path class="cls-4" d="M543.94,200.55a17.41,17.41,0,0,1,5.73-3.69"/><path class="cls-4" d="M543.94,205.13a17.69,17.69,0,0,1,6.2-2.79"/><path class="cls-4" d="M566.21,180.19s.6-16.23-1.65-25.25"/><path class="cls-4" d="M569.37,184.7s3.45-24,11.72-40.13"/><path class="cls-4" d="M572.07,187.14s11.73-32.65,28-47.08"/><path class="cls-4" d="M575.23,188.46s11.87-24.85,25.7-36"/><path class="cls-4" d="M577.63,190.12s14.74-18.49,29-25.48"/><path class="cls-4" d="M580,193.12s10.37-12.62,25.55-17.43"/><path class="cls-4" d="M585.45,194.66a52,52,0,0,1,21.2-10.26"/><path class="cls-4" d="M592.82,194.66s7.21-3.78,12.77-3.26"/><path class="cls-4" d="M446.6,297.14a29,29,0,0,1,7.46,14.13"/><path class="cls-4" d="M452.1,294.39a43.8,43.8,0,0,1,3.82,17.27"/><path class="cls-4" d="M459,290.66s-.66,15.21,0,24.34"/><path class="cls-4" d="M461.52,315s.78-15.51,7.26-24.34"/><path class="cls-4" d="M464.46,313.62s3.84-12.16,8.05-16.48"/><path class="cls-4" d="M466.82,316s2.64-6.64,6.37-9.78"/><path class="cls-4" d="M405.27,434.55c-4.9-4-14.18-3.37-14.18-3.37"/><path class="cls-4" d="M391.09,418.19S401,423.9,407,433.72"/><path class="cls-4" d="M393.56,410s10.24,9.82,14.21,21.79"/><path class="cls-4" d="M399.12,403.85a74.51,74.51,0,0,1,10,24.44"/><path class="cls-4" d="M408.05,405.94s4.52,14.89,2.51,26.91"/><path class="cls-4" d="M415,409.14s1.88,11.14-.55,20.47"/><path class="cls-4" d="M583.68,462.34s.43,7.06,2.3,10.29"/><path class="cls-4" d="M589.19,472.63s-.18-9.28.83-11.39"/><path class="cls-4" d="M594.8,458.94a57.64,57.64,0,0,0-1.75,14.33"/><path class="cls-4" d="M594.8,473.27s4-8.91,9.55-13"/><path class="cls-4" d="M598.38,473.27s3.67-5,6.89-7.16"/><path class="cls-4" d="M599.57,475.93s3.4-2.48,5.7-2.66"/><path class="cls-4" d="M601,479.33a10.25,10.25,0,0,1,4.69-.73"/><path class="cls-4" d="M603.63,618.81s2.94,3.38,2.8,10.11"/><path class="cls-4" d="M608.12,609.71s4.76,13.32,1.4,22.3"/><path class="cls-4" d="M613.16,634s3.51-25.52,14.17-36.88"/><path class="cls-4" d="M617.51,635.79s2.1-21.31,19.63-32.95"/><path class="cls-4" d="M617.51,638.88a50,50,0,0,1,27.48-21"/><path class="cls-4" d="M619.33,641.12s8.84-11.22,28.75-9.11"/><path class="cls-4" d="M623.4,642.24s15.42-3.22,26.36,4.21"/><path class="cls-4" d="M625.36,646.45s5.33.7,8.35,3.08"/><path class="cls-4" d="M584.48,650.9s1.34,5.6,4.43,8"/><path class="cls-4" d="M590.83,657.92s-1.67-5.56-1-9.93"/><path class="cls-4" d="M593.09,656.83s-.5-7.86.67-10.78"/><path class="cls-4" d="M595.43,657.42s.58-8.53,3.26-12.37"/><path class="cls-4" d="M597.06,658.92s2.71-8,6-10.28"/><path class="cls-4" d="M600.44,657.92a10.6,10.6,0,0,1,4.59-5"/><path class="cls-4" d="M602.74,661.6a30.78,30.78,0,0,1,5.38-3.68"/><path class="cls-4" d="M360.92,695.66s8.3.8,12.71,10.7"/><path class="cls-4" d="M364.4,677.73A73.89,73.89,0,0,1,377,704.81"/><path class="cls-4" d="M372.69,673.85a82.52,82.52,0,0,1,8,31"/><path class="cls-4" d="M382.69,703.42s1.77-19.67,1.5-29.57"/><path class="cls-4" d="M385.93,702.35s.94-14.72,5.35-22.21"/><path class="cls-4" d="M389.14,701s2.41-7.57,7.36-11.68"/><path class="cls-4" d="M91.25,683.06c-9.08-2.47-19.37,1.53-19.37,1.53"/><path class="cls-4" d="M63.38,677.36s17.34-2,28.77,4.89"/><path class="cls-4" d="M63.73,668.46s16.21,4,28.86,13.09"/><path class="cls-4" d="M67.29,660.32a96.63,96.63,0,0,1,21.88,17.59"/><path class="cls-4" d="M75.4,651.94s13.1,12.49,16.75,26"/><path class="cls-4" d="M84.49,643.36s8.58,13.07,10.29,38.19"/><path class="cls-4" d="M96.15,644.73s4.12,21.14,1.38,32.36"/><path class="cls-4" d="M104.39,651.94s.51,19.95-5.92,27.73"/><path class="cls-7" d="M450.53,124a201.94,201.94,0,0,0,3.05,38.87c3.76,21.49,26.51,12.72,19.34-1.08s-10.67-16.3-10.53-36.54l-6.84-8.6Z"/><path class="cls-3" d="M477.84,118a28.55,28.55,0,0,1-14.13,7.87,17,17,0,0,0,2,3.21c2.4,2.94,9-.22,11.55-2s2.19-6,.66-8.95Z"/><path class="cls-3" d="M437.81,124.73c-.13,5.66,8.25,8,11.79,8.16,1.79.05,3.23-3.35,4.21-6.74a27.35,27.35,0,0,1-13.58-6C438.9,122.92,437.81,124.73,437.81,124.73Z"/><path class="cls-8" d="M477.84,118c-1.83-3-12-9.85-15.45-23.71-3.36-13.62-9.82-14.25-12.92-10.18-3.68,4.84-3.26,13.67-4.68,22.51a52.07,52.07,0,0,1-4.56,13.51,27.35,27.35,0,0,0,13.58,6,63.87,63.87,0,0,0,1.51-6.63s1.14,3.5,1.9,6.94a27.83,27.83,0,0,0,5.64-.41c-.15-1.93-.47-3.61-.47-3.61a20.41,20.41,0,0,0,1.32,3.44A28.55,28.55,0,0,0,477.84,118Z"/><path class="cls-3" d="M457.22,126.46c.14.63.27,1.25.38,1.86.69,3.88,1.83,4,4.11,3.31,1.27-.38,1.34-3.17,1.15-5.58A27.83,27.83,0,0,1,457.22,126.46Z"/><path class="cls-4" d="M459.5,166.19s.11,3.73,1.81,5.31"/><path class="cls-4" d="M463.71,166.19s0,3.16,1.23,4.7"/><path class="cls-4" d="M467.19,165.76s.56,3.24,0,4.64"/><path class="cls-4" d="M470.49,165.76s.42,3-.7,4.15"/><path class="cls-4" d="M454.61,142.57a9.7,9.7,0,0,0,.91,4.85"/><path class="cls-4" d="M459.5,142.57s.67,2.58.21,3.7"/><path class="cls-4" d="M450.16,98.1a13.51,13.51,0,0,0,0,4.36"/><path class="cls-4" d="M449.09,110.7a14.83,14.83,0,0,0-1.08,4.36"/><path class="cls-4" d="M452.17,107a9.76,9.76,0,0,1,.6,3.08"/><path class="cls-7" d="M506.67,118a184.8,184.8,0,0,1,0,30.73c-1.49,14.6-7,21.62-3.74,24.83s16,2.57,19.83-5.49-2.65-42.47-5.81-51.39-8.46-4.77-8.46-4.77Z"/><path class="cls-3" d="M498.46,110.45c-2.54,7.49-.2,8.18,2.82,8.94,3.18.81,7.23,1.82,8.65,0a28.72,28.72,0,0,0,2.87-5.93A26.8,26.8,0,0,1,498.46,110.45Z"/><path class="cls-8" d="M516.1,88.83c-3.54-10.52-5.6-12.5-8.7-11.94-3.62.65-3.29,6-3.75,9.82-.68,5.7-1.49,13.76-4.74,22.46-.17.45-.31.87-.45,1.28a26.8,26.8,0,0,0,14.34,3H513c.72-.07,1.44-.16,2.19-.29a33.35,33.35,0,0,0,4.34-1.13h0a27.44,27.44,0,0,0,7.61-3.88C524,103.62,518.58,96.21,516.1,88.83Z"/><path class="cls-3" d="M527.15,108.14a27.44,27.44,0,0,1-7.61,3.88c.53,1.09,3.11,6.14,5.36,5.38,2.53-.84,5.06-3.17,4.66-5.29A17.59,17.59,0,0,0,527.15,108.14Z"/><path class="cls-3" d="M513,113.45c.23,1.32,1.17,6.26,2.31,6.35,1.32.1,4.35-.64,5.06-1.79s-.54-5-.84-6a33.35,33.35,0,0,1-4.34,1.13C514.42,113.29,513.7,113.38,513,113.45Z"/><path class="cls-4" d="M506.27,92.59s.11,3.49-1,5.39"/><path class="cls-4" d="M508.43,101.06s-.21,3.18-1.28,4.77"/><path class="cls-4" d="M507.71,165.34a9.68,9.68,0,0,1-.57,4.11"/><path class="cls-4" d="M511.24,165.34s.29,2.81-.57,4.11"/><path class="cls-4" d="M514.48,165s.22,2.74-.43,3.6"/><path class="cls-4" d="M517.94,164s.65,2.3,0,3.6"/><path class="cls-4" d="M510.37,137.89a9.58,9.58,0,0,1,0,4.86"/><path class="cls-4" d="M513.76,138.19a8.2,8.2,0,0,1,.34,3.91"/><path class="cls-4" d="M517,137.7a12.92,12.92,0,0,1,.54,3.72"/><path class="cls-7" d="M595,271.24s1.15,9.91-3.24,18.68-13.35,9.92-13.16,17,8.85,15.26,16.54,7.06,13-21.74,11.68-44.43l-2.67-12-4.95,1.91Z"/><path class="cls-3" d="M584.31,267.62c.1,4.53,8.2,8.2,12.21,6.1,1.8-1,3.17-3.12,4.14-5.23A32.11,32.11,0,0,1,586,264.06,5,5,0,0,0,584.31,267.62Z"/><path class="cls-8" d="M605.29,231c-4.58,1.33-5.91,6.86-9.73,18.87-2.66,8.39-7.13,11.52-9.55,14.18a32.11,32.11,0,0,0,14.65,4.43,29.77,29.77,0,0,0,1.77-5.07l.47,5.08a30.71,30.71,0,0,0,3.61-.34,34.62,34.62,0,0,0,4.62-1.06l0-.44.14.38a29,29,0,0,0,7.65-3.58c-1.54-5-5.35-12.06-5.48-20.06C613.3,232.34,609.42,229.8,605.29,231Z"/><path class="cls-3" d="M613,271.66a2,2,0,0,0,2.91,1,8.72,8.72,0,0,0,3.54-4.47c.42-1.22.16-2.83-.43-4.73a29,29,0,0,1-7.65,3.58Z"/><path class="cls-3" d="M602.9,268.5l.32,3.43a2,2,0,0,0,1.95,1.79h3.37a2,2,0,0,0,2-1.72l.64-4.9a34.62,34.62,0,0,1-4.62,1.06A30.71,30.71,0,0,1,602.9,268.5Z"/><path class="cls-4" d="M602.52,242.18s-.72,2.38-1.13,4.34"/><path class="cls-4" d="M602.52,252.53a33.8,33.8,0,0,0-1.13,3.28"/><path class="cls-4" d="M598.6,255.81a13,13,0,0,0-1.86,3.09"/><path class="cls-4" d="M581.48,307.17a11.29,11.29,0,0,1,3.64-4.62"/><path class="cls-4" d="M584.07,309.52a15.2,15.2,0,0,1,3.08-4.13"/><path class="cls-4" d="M587.15,312.6a12.94,12.94,0,0,0,2.6-4.05"/><path class="cls-4" d="M592.18,311.06a7.71,7.71,0,0,1-2.43,2.84"/><path class="cls-4" d="M596.06,285.41a11.08,11.08,0,0,1-1,4.1"/><path class="cls-4" d="M598.49,286.32a5,5,0,0,1-1.34,3.19"/><path class="cls-4" d="M600.63,286.32A6.3,6.3,0,0,1,600,289"/><path class="cls-7" d="M600,309.52s-.85,10.26-5.64,16.2-9.14,8.66-7.18,12.93,8.75,4.69,12,0,8.62-18.36,10.19-28.06c.83-2.81-1.43-8.62-1.43-8.62l-4.59,1.44Z"/><path class="cls-3" d="M594.22,306.64c.52,2.5,2.89,5,6.41,5.84,2.06.49,3.4-2,4.16-4.17a16.57,16.57,0,0,1-8.88-4.37A21.9,21.9,0,0,0,594.22,306.64Z"/><path class="cls-3" d="M614.66,312.6c3.48.12,5.63-3.08,5.63-3.08a17.74,17.74,0,0,1-2.54-3.31,20.7,20.7,0,0,1-5.66,2A24.94,24.94,0,0,0,614.66,312.6Z"/><path class="cls-8" d="M607.78,284.43c-3.9.34-5.42,3.65-7.15,9.91a33,33,0,0,1-4.72,9.6,16.57,16.57,0,0,0,8.88,4.37,21.13,21.13,0,0,0,.8-2.92,5.11,5.11,0,0,1,1.46,3.16,20.29,20.29,0,0,0,2.34,0,21.31,21.31,0,0,0,2.18-.26c-.05-1.1-.16-2.1-.21-2.58a1.87,1.87,0,0,1,0-.32s0,.12,0,.32a9.39,9.39,0,0,0,.73,2.48,20.7,20.7,0,0,0,5.66-2,21.63,21.63,0,0,1-3.09-9.27C613.93,289,612.39,284,607.78,284.43Z"/><path class="cls-3" d="M607.05,308.55a14.81,14.81,0,0,1,0,4.05,7.93,7.93,0,0,0,4.12,0c.49-.75.52-2.65.44-4.32a21.31,21.31,0,0,1-2.18.26A20.29,20.29,0,0,1,607.05,308.55Z"/><path class="cls-4" d="M611.36,305.71c0-.2,0-.32,0-.32A1.87,1.87,0,0,0,611.36,305.71Z"/><path class="cls-4" d="M605.29,291.45s-.19,1.94-1,2.57"/><path class="cls-4" d="M602.84,298.78a5.21,5.21,0,0,1-1.19,2.51"/><path class="cls-4" d="M607.05,296.84s-.06,2.26-1.13,3.2"/><path class="cls-4" d="M600.77,320.54a8.88,8.88,0,0,1-1.26,3.2"/><path class="cls-4" d="M592.18,332.58a5.49,5.49,0,0,1-2.06,2.32"/><path class="cls-4" d="M593.56,334.9s-.94,1.88-1.94,2.13"/><path class="cls-4" d="M595.91,336a6.37,6.37,0,0,1-1.41,2.45"/><ellipse class="cls-7" cx="320.66" cy="575.97" rx="7.58" ry="11.66" transform="translate(-309.55 769.38) rotate(-77.95)"/><polyline class="cls-4" points="309.26 573.54 327.01 583.14 316.06 568.38"/><path class="cls-4" d="M327.83,570.83,327,583.14s8.19,14.55,10.41,37.55"/><ellipse class="cls-7" cx="344.81" cy="592.76" rx="10.62" ry="7.62" transform="translate(-324.68 444.28) rotate(-47.31)"/><path class="cls-7" d="M328.67,599.81s-10,1.81-13.89-4.65S323.77,587.92,328.67,599.81Z"/><polyline class="cls-4" points="352.95 586.1 340.41 601.97 337.75 589.45"/><path class="cls-4" d="M345.35,583.73,340.41,602s-2.72,10.57-1.84,18.72"/><path class="cls-4" d="M315.16,591.07a35.86,35.86,0,0,1,13.51,8.74,51.35,51.35,0,0,1,7.51,11.72"/><path class="cls-4" d="M253.45,701a13.31,13.31,0,0,1,3.6,5.36"/><path class="cls-4" d="M258.61,694.37s2.31,7.57,1.85,13.66"/><path class="cls-4" d="M265.25,693a68.94,68.94,0,0,0-1.2,14.27"/><path class="cls-4" d="M265.81,708.86s2.59-7.57,5.82-9.18"/><path class="cls-4" d="M268.72,710a13.63,13.63,0,0,1,5.21-3.59"/><path class="cls-4" d="M270.06,712.64a35.3,35.3,0,0,1,5.16-.46"/><path class="cls-7" d="M551.42,552.06s-.53,14.93-5,25.77S536,596,539.16,600.23s15.64,6.16,17.78-3.14,1.33-17,3.89-24.6,0-25.77,0-25.77l-5.14-4.62Z"/><path class="cls-3" d="M550.11,548.81a24.48,24.48,0,0,1-8.22-1.16c-1.65,2.12-2.77,4-1.92,6.07,3.3,2.5,10.9,4,12.7,2.6,1.17-.91,2.75-4.37,3.72-6.7A19,19,0,0,0,550.11,548.81Z"/><path class="cls-8" d="M565.18,550.52a33.4,33.4,0,0,1,8.24-.39c-2.23-4.44-6-10.38-6.74-14.92-1.2-7.3-2.2-17.8-8.41-16.8s-7.8,14.1-11.2,21.8c-1.3,2.94-3.51,5.3-5.18,7.44a24.48,24.48,0,0,0,8.22,1.16,19,19,0,0,1,6.28.81c.53-1.27.88-2.21.88-2.21s.31,1.1.63,2.71C559.63,550.7,561.33,551.13,565.18,550.52Z"/><path class="cls-3" d="M565.18,550.52c-3.85.61-5.55.18-7.28-.4a32.41,32.41,0,0,1,.67,6.73s1.9,2.67,6,.67,8.1.9,10.2-1.6c.79-.95,0-3.09-1.36-5.79A33.4,33.4,0,0,0,565.18,550.52Z"/><path class="cls-4" d="M555,528.53a26.85,26.85,0,0,0-.67,5.1"/><path class="cls-4" d="M558.26,536.65a13,13,0,0,0,0,3.69"/><path class="cls-4" d="M543.35,593a10.66,10.66,0,0,0-.94,5.12"/><path class="cls-4" d="M545.44,595.24a6.21,6.21,0,0,0-.34,3.37"/><path class="cls-4" d="M548.6,596.12a6.86,6.86,0,0,0-.54,3.7"/><path class="cls-4" d="M552.31,596.12a9.59,9.59,0,0,0-.48,3.7"/><path class="cls-4" d="M551,572.93a11,11,0,0,0-.32,3.47"/><path class="cls-4" d="M553.56,574.21a10.32,10.32,0,0,0-.24,4.06"/><path class="cls-4" d="M557.42,574a17.71,17.71,0,0,0-.5,3.47"/><path class="cls-7" d="M574.31,588.94s-.58,7.32-2,14.82-2.65,14.65-.51,18.19,8.78,5.09,12.1,1.91-1.92-10.47-1.41-19,1.7-19.84,1.7-19.84L582.11,579l-5,1.7Z"/><path class="cls-8" d="M589.33,578.36c-2.81-3.15-4.51-9.07-4.94-14.08-.51-6-7.52-9.59-13.77,7.37a68.94,68.94,0,0,1-4.62,9.86c1.54,1.72,4.63,3.93,10.43,4.15a28.15,28.15,0,0,0,3.21,0,28.22,28.22,0,0,0,1.36-4s.29,1.76.51,3.83c5-.64,7.89-2.33,10.89-2.25A18.25,18.25,0,0,0,589.33,578.36Z"/><path class="cls-3" d="M576.43,585.66c-5.8-.22-8.89-2.43-10.43-4.15a31.55,31.55,0,0,1-3.1,4.61,1,1,0,0,0,.05,1.4,14.84,14.84,0,0,0,13,4.35,1.08,1.08,0,0,0,.72-.49,43.58,43.58,0,0,0,3-5.76A28.15,28.15,0,0,1,576.43,585.66Z"/><path class="cls-3" d="M592.4,583.19c-3-.08-5.91,1.61-10.89,2.25a30.93,30.93,0,0,1,.22,5,1,1,0,0,0,.51,1,3,3,0,0,0,3.49,0,.94.94,0,0,0,.34-.53,9.1,9.1,0,0,0-.09-5.06,8.44,8.44,0,0,1,2.57,3.75,1.05,1.05,0,0,0,1.24.74,5.14,5.14,0,0,0,3.77-2.51,1,1,0,0,0,.08-.6A18.78,18.78,0,0,0,592.4,583.19Z"/><path class="cls-4" d="M578.15,566A10.06,10.06,0,0,0,577,570.4"/><path class="cls-4" d="M580.45,569.07a13.92,13.92,0,0,0,.6,4.54"/><path class="cls-4" d="M575.13,616.63s-.29,2.93,1.18,4.62"/><path class="cls-4" d="M578.43,618.39a5.41,5.41,0,0,0,.88,2.86"/><path class="cls-4" d="M580.85,618.81a5.67,5.67,0,0,0,1.83,2.73"/><path class="cls-4" d="M574.77,602.27a12.4,12.4,0,0,0,.34,3.52"/><path class="cls-4" d="M577.8,601.33a7.21,7.21,0,0,0-.54,4"/><path class="cls-4" d="M580.26,601.33a7.81,7.81,0,0,0-.88,3.15"/><path class="cls-7" d="M157.85,520.59a98.53,98.53,0,0,0,4.23,18.76c3.44,10.57,5,18.5,11.76,18.36s10.57-4.09,7.27-7.79-7.14-9-10.18-19.16-.85-17-.85-17l-7.87-6Z"/><path class="cls-3" d="M162.39,512.53c-3.36,2.5-4.13,5.7-9.18,4.2a40.57,40.57,0,0,0-6.9-1.28,13.57,13.57,0,0,1-.74,1.31c-2.91,4.36-.53,9.51,5.55,7.66s10.43.79,13.74,0,.79-11.49.79-11.49c4.15,3.05,4.43,9.9,4.43,9.9l8.25-.79c1.31-1.54.89-6.84-2.58-10.87C171,509.57,166.15,509.73,162.39,512.53Z"/><path class="cls-8" d="M162.39,512.53c3.76-2.8,8.64-3,13.36-1.36a12.54,12.54,0,0,0-1.25-1.28c-4.62-4.1-11.1-10.84-12.15-18.37s-4.85-10-8.72-8.06c-3.44,1.72-4.36,4.36-4.23,12.42.12,7.32-.75,15-3.09,19.57a40.57,40.57,0,0,1,6.9,1.28C158.26,518.23,159,515,162.39,512.53Z"/><path class="cls-4" d="M154.48,497.6a34.33,34.33,0,0,1,0,3.58"/><path class="cls-4" d="M152.9,507.77a6.76,6.76,0,0,1-.37,3.9"/><path class="cls-4" d="M157.33,505.66a12.14,12.14,0,0,1,0,4.06"/><path class="cls-4" d="M173.09,516.36s1.64,2.37,1.37,4.54"/><path class="cls-4" d="M171.18,551.12a4.88,4.88,0,0,0,2.26,3.5"/><path class="cls-4" d="M174.61,551.12a3.66,3.66,0,0,0,3.13,2.63"/><path class="cls-8" d="M197.3,530.4a6.6,6.6,0,0,1,6.73-.59c-1.88-3.35-3.83-7-4.15-11.83-.45-6.64-2.51-9.1-6-9.05s-5.83,3.34-5.83,9.7a34.14,34.14,0,0,1-2.44,12.24,13.29,13.29,0,0,1,4.66.8C193.44,532.93,195.29,531.84,197.3,530.4Z"/><path class="cls-7" d="M206,533.47c-.59-1.21-1.28-2.42-2-3.66a6.6,6.6,0,0,0-6.73.59c-2,1.44-3.86,2.53-7.08,1.27a13.29,13.29,0,0,0-4.66-.8,13.87,13.87,0,0,1-2.66,4.43s-1.7,2.29.52,3c0,0,6.06-1,7.61-4.13,0,0,.44,5.09-2.29,14.24s-3.54,12.31-.37,14.08,7.89.11,8.26-6.32.07-19.78,1.7-22.66a11.67,11.67,0,0,1,2.14,6.12C202.26,540.41,208,537.49,206,533.47Z"/><path class="cls-4" d="M191.66,519.39a26.26,26.26,0,0,0-.1,3.19"/><path class="cls-4" d="M193.62,525.85a20.86,20.86,0,0,0,0,2.86"/><ellipse class="cls-7" cx="346.78" cy="730.6" rx="12.25" ry="19.79" transform="translate(-373.16 362.2) rotate(-37.51)"/><polyline class="cls-4" points="331.33 722.27 355.63 747.76 346.78 714.94"/><polyline class="cls-4" points="334.74 714.91 355.63 747.76 365.7 799.78 355.63 775.7 343.48 757.34"/><ellipse class="cls-7" cx="347.68" cy="766.47" rx="8.15" ry="13.11" transform="translate(-493.96 765.06) rotate(-65.5)"/><polyline class="cls-4" points="335.74 761.03 355.32 775.24 355.58 761.87"/><ellipse class="cls-7" cx="384.59" cy="756.27" rx="15.36" ry="10.7" transform="translate(-353.79 338.36) rotate(-33.54)"/><polyline class="cls-4" points="376.67 748.85 379.26 768.56 392.33 744.36"/><polyline class="cls-4" points="398.61 751.11 379.26 768.56 365.7 799.78"/><path class="cls-9" d="M572.43,399.85s5.16-5,11.28,1.82S567.56,415,572.43,399.85Z"/><path class="cls-4" d="M572.43,399.85s5.16-5,11.28,1.82S567.56,415,572.43,399.85Z"/><path class="cls-9" d="M579.69,403s6.19-4.58,8.28,3.09-.28,16,2.79,26.94-8.31,22.09-15.88,20S579.69,403,579.69,403Z"/><path class="cls-4" d="M579.69,403s6.19-4.58,8.28,3.09-.28,16,2.79,26.94-8.31,22.09-15.88,20S579.69,403,579.69,403Z"/><path class="cls-9" d="M568.7,454.42c6.5,0,15-4.64,15-17.18s-2.7-19.94-1.54-24.49S581,398.22,568.7,400.08s-12.37,15.79-12.37,29.37S555.93,454.42,568.7,454.42Z"/><path class="cls-4" d="M568.7,454.42c6.5,0,15-4.64,15-17.18s-2.7-19.94-1.54-24.49S581,398.22,568.7,400.08s-12.37,15.79-12.37,29.37S555.93,454.42,568.7,454.42Z"/><path class="cls-8" d="M567.88,454.42c-5.68-3.61-5.22-13-5.22-13"/><path class="cls-8" d="M566.69,433.66s-1.36,16,2.68,20.7"/><path class="cls-8" d="M571.47,441.77s.56,9.41-1,12.53"/><path class="cls-9" d="M533.79,386.18s5.16-5,11.28,1.83S528.93,401.28,533.79,386.18Z"/><path class="cls-4" d="M533.79,386.18s5.16-5,11.28,1.83S528.93,401.28,533.79,386.18Z"/><path class="cls-9" d="M541.06,389.36s6.19-4.57,8.28,3.09-.29,16,2.78,26.94-8.3,22.09-15.88,20S541.06,389.36,541.06,389.36Z"/><path class="cls-4" d="M541.06,389.36s6.19-4.57,8.28,3.09-.29,16,2.78,26.94-8.3,22.09-15.88,20S541.06,389.36,541.06,389.36Z"/><path class="cls-9" d="M530.06,440.75c6.5,0,15-4.64,15-17.18s-2.7-19.94-1.54-24.48-1.16-14.54-13.47-12.68-12.37,15.79-12.37,29.38S517.29,440.75,530.06,440.75Z"/><path class="cls-4" d="M530.06,440.75c6.5,0,15-4.64,15-17.18s-2.7-19.94-1.54-24.48-1.16-14.54-13.47-12.68-12.37,15.79-12.37,29.38S517.29,440.75,530.06,440.75Z"/><path class="cls-8" d="M529.24,440.75c-5.68-3.61-5.22-13-5.22-13"/><path class="cls-8" d="M528.05,420s-1.36,16,2.68,20.7"/><path class="cls-8" d="M532.83,428.1s.56,9.41-1,12.53"/><path class="cls-9" d="M495.15,372.52s5.17-5,11.28,1.82S490.29,387.62,495.15,372.52Z"/><path class="cls-4" d="M495.15,372.52s5.17-5,11.28,1.82S490.29,387.62,495.15,372.52Z"/><path class="cls-9" d="M502.42,375.69s6.19-4.57,8.28,3.09-.29,16,2.79,26.94-8.31,22.09-15.88,20S502.42,375.69,502.42,375.69Z"/><path class="cls-4" d="M502.42,375.69s6.19-4.57,8.28,3.09-.29,16,2.79,26.94-8.31,22.09-15.88,20S502.42,375.69,502.42,375.69Z"/><path class="cls-9" d="M491.43,427.09c6.5,0,15-4.65,15-17.19s-2.7-19.94-1.54-24.48-1.16-14.53-13.46-12.68-12.38,15.79-12.38,29.38S478.65,427.09,491.43,427.09Z"/><path class="cls-4" d="M491.43,427.09c6.5,0,15-4.65,15-17.19s-2.7-19.94-1.54-24.48-1.16-14.53-13.46-12.68-12.38,15.79-12.38,29.38S478.65,427.09,491.43,427.09Z"/><path class="cls-8" d="M490.61,427.09c-5.68-3.61-5.23-13-5.23-13"/><path class="cls-8" d="M489.41,406.32s-1.36,16,2.69,20.71"/><path class="cls-8" d="M494.19,414.44s.57,9.4-1,12.53"/><path class="cls-8" d="M125.3,614.21c0,.35,7.74,2.61,11.47-8.71C136.77,605.5,126.09,606.65,125.3,614.21Z"/><path class="cls-7" d="M125.22,636a6.92,6.92,0,0,0-3.45-7.71,7.37,7.37,0,0,0-.69-.34l-.34.84.58.29a6,6,0,0,1,3,6.65Z"/><path class="cls-8" d="M107.65,636s2.69-11.19,12.37-8.94C120,627.08,119.79,635.15,107.65,636Z"/><path class="cls-7" d="M111.38,597.47a7.17,7.17,0,0,1,7.77-4.65l-.16.9-.64-.06a6,6,0,0,0-6.08,4.05Z"/><path class="cls-7" d="M110.89,671.28a1.26,1.26,0,0,1-.07-1.68c3.77-4.65,6.52-13.9,8-27a210.15,210.15,0,0,0,.46-39c-1.7-20.82,3.19-32,5.42-36a1.3,1.3,0,0,1,1.92-.4h0a1.3,1.3,0,0,1,.34,1.65c-2,3.54-6.76,14.43-5.12,34.5a217.72,217.72,0,0,1-.42,39.05c-1.51,13.75-4.48,23.62-8.62,28.76a1.27,1.27,0,0,1-1.91.07Z"/><path class="cls-2" d="M107.65,601.84a92.67,92.67,0,0,1-4,23.38,1.5,1.5,0,0,0,2.51,1.51,31.28,31.28,0,0,0,8.3-24.16L111,599.28Z"/><path class="cls-7" d="M110.32,597.33a14.67,14.67,0,0,0-4.16,5.73,4.73,4.73,0,0,0,3.66-1.07A5.66,5.66,0,0,0,111,605.7a6,6,0,0,0,1.68-3.16,3.27,3.27,0,0,0,2.66,2.26,13.49,13.49,0,0,0-1.92-6.93A2.1,2.1,0,0,0,110.32,597.33Z"/><path class="cls-4" d="M109.55,608.63a1.53,1.53,0,0,0,1.65,2.1"/><path class="cls-4" d="M108.64,613.31a1.54,1.54,0,0,0,1.66,2.1"/><path class="cls-4" d="M107.5,617.88a1.53,1.53,0,0,0,1.65,2.1"/><path class="cls-2" d="M127.14,640.13a37.22,37.22,0,0,0,4,15.2,1.26,1.26,0,0,1-1.85,1.61c-3.64-2.62-8.06-7.76-6.92-17l2-2.08Z"/><path class="cls-4" d="M125.58,644.23a1.2,1.2,0,0,1-1.09,1.77"/><path class="cls-4" d="M126.7,647.76a1.2,1.2,0,0,1-1.09,1.77"/><path class="cls-4" d="M128,651.19A1.18,1.18,0,0,1,126.9,653"/><path class="cls-7" d="M126.51,636a23.12,23.12,0,0,1,2.2,5.87,3.8,3.8,0,0,1-2.71-1.42,4.58,4.58,0,0,1-1.49,2.74,4.84,4.84,0,0,1-.83-2.75,2.62,2.62,0,0,1-2.45,1.36,16,16,0,0,1,2.2-5.94A1.81,1.81,0,0,1,126.51,636Z"/><path class="cls-7" d="M155.72,620.85a9.11,9.11,0,0,1,8.9-6.68c.34,0,.68,0,1,0l-.15,1.19-.85,0a7.87,7.87,0,0,0-7.73,5.72Z"/><path class="cls-2" d="M152.13,625.23s.32,13.19-3,25.2a1.6,1.6,0,0,0,2.75,1.48,33.42,33.42,0,0,0,7.58-26.27l-3.89-3.33Z"/><path class="cls-7" d="M154.74,620.26a15.75,15.75,0,0,0-4.14,6.35,5.06,5.06,0,0,0,3.85-1.34,6.13,6.13,0,0,0,1.43,3.91,6.46,6.46,0,0,0,1.63-3.48,3.51,3.51,0,0,0,3,2.28,14.45,14.45,0,0,0-2.43-7.3A2.24,2.24,0,0,0,154.74,620.26Z"/><path class="cls-4" d="M154.52,632.39a1.64,1.64,0,0,0,1.88,2.15"/><path class="cls-4" d="M153.8,637.44a1.64,1.64,0,0,0,1.88,2.15"/><path class="cls-4" d="M152.82,642.39a1.64,1.64,0,0,0,1.88,2.15"/><path class="cls-7" d="M173.19,679a1.27,1.27,0,0,0,.16-1.68c-3.54-4.82-5.83-14.2-6.65-27.31a210.86,210.86,0,0,1,1.49-39c2.74-20.71-1.58-32.17-3.61-36.2a1.3,1.3,0,0,0-1.9-.48h0a1.28,1.28,0,0,0-.42,1.62c1.79,3.64,6,14.75,3.39,34.72a217.67,217.67,0,0,0-1.54,39c.83,13.81,3.29,23.82,7.17,29.16a1.28,1.28,0,0,0,1.91.16Z"/><path class="cls-8" d="M166.86,623.45c-.29,0-.43,7.71,9.63,9C176.49,632.45,173.21,622.72,166.86,623.45Z"/><path class="cls-8" d="M164,646.78c-.15-.33-8.61,2-6,14.17C158,661,167.33,654,164,646.78Z"/><path class="cls-8" d="M138.81,651.65c0,.34,7.53,4.41,11.93-6.57C150.74,645.08,139.74,644.32,138.81,651.65Z"/><path class="cls-7" d="M144.52,595a6.93,6.93,0,0,0-6.76-5.07l-.77,0,.12.9.64,0a6,6,0,0,1,5.87,4.34Z"/><path class="cls-7" d="M130.84,672.23a1.27,1.27,0,0,1-.16-1.68c3.54-4.83,5.83-14.2,6.65-27.31a211,211,0,0,0-1.49-39c-2.74-20.7,1.58-32.16,3.61-36.19a1.29,1.29,0,0,1,1.89-.49h0a1.29,1.29,0,0,1,.43,1.63c-1.79,3.64-6,14.75-3.39,34.72a216.72,216.72,0,0,1,1.53,39c-.82,13.81-3.29,23.82-7.16,29.16a1.28,1.28,0,0,1-1.91.16Z"/><path class="cls-2" d="M148.56,599.23a43.08,43.08,0,0,0,10.4,15,1.47,1.47,0,0,1-1.39,2.49c-5-1.41-11.84-5.27-14.25-15.78l1.34-3.06Z"/><path class="cls-4" d="M148.49,604.32a1.38,1.38,0,0,1-.49,2.35"/><path class="cls-4" d="M151.1,607.72a1.38,1.38,0,0,1-.49,2.35"/><path class="cls-4" d="M153.86,610.94a1.39,1.39,0,0,1-.48,2.36"/><path class="cls-7" d="M146.25,595a26.14,26.14,0,0,1,4.72,5.52,4.38,4.38,0,0,1-3.51-.47,5.35,5.35,0,0,1-.54,3.58,5.56,5.56,0,0,1-2-2.68,3.06,3.06,0,0,1-2.13,2.46,18.59,18.59,0,0,1,0-7.34A2.08,2.08,0,0,1,146.25,595Z"/><path class="cls-8" d="M139.54,614.53c-.24,0-1,7.78,7.74,9.6C147.28,624.13,145.59,614.88,139.54,614.53Z"/><path class="cls-7" d="M178.8,587.48a8,8,0,0,1,7.83-5.86c.29,0,.59,0,.9,0l-.14,1c-.25,0-.51,0-.75,0a6.92,6.92,0,0,0-6.79,5Z"/><path class="cls-2" d="M175.65,591.33A87.25,87.25,0,0,1,173,613.47a1.41,1.41,0,0,0,2.42,1.3,29.34,29.34,0,0,0,6.67-23.08l-3.41-2.92Z"/><path class="cls-7" d="M178,587a13.8,13.8,0,0,0-3.65,5.58,4.49,4.49,0,0,0,3.39-1.18,5.37,5.37,0,0,0,1.25,3.43,5.58,5.58,0,0,0,1.43-3,3.1,3.1,0,0,0,2.61,2,12.62,12.62,0,0,0-2.13-6.41A2,2,0,0,0,178,587Z"/><path class="cls-4" d="M177.74,597.62a1.44,1.44,0,0,0,1.65,1.89"/><path class="cls-4" d="M177.11,602.06a1.44,1.44,0,0,0,1.65,1.89"/><path class="cls-4" d="M176.25,606.4a1.44,1.44,0,0,0,1.65,1.89"/><path class="cls-7" d="M183.6,617.27a9.12,9.12,0,0,1,7.15-8.53c.33-.08.66-.14,1-.19l.12,1.19-.84.16a7.87,7.87,0,0,0-6.22,7.34Z"/><path class="cls-7" d="M207.14,671.91a1.27,1.27,0,0,0-.08-1.69c-4.19-4.27-7.8-13.22-10.49-26.07a210.5,210.5,0,0,1-4.1-38.83c-.25-20.89-6.17-31.61-8.76-35.31a1.29,1.29,0,0,0-1.94-.21h0a1.29,1.29,0,0,0-.19,1.67c2.29,3.35,8.08,13.74,8.32,33.88A216.67,216.67,0,0,0,194,644.18c2.79,13.56,6.66,23.11,11.26,27.84a1.27,1.27,0,0,0,1.91-.11Z"/><path class="cls-2" d="M181.22,620.49a80.44,80.44,0,0,1-.45,20.59,1.3,1.3,0,0,0,2.34,1,27.13,27.13,0,0,0,4-21.81l-3.4-2.38Z"/><path class="cls-7" d="M182.94,616.27a12.69,12.69,0,0,0-2.84,5.45,4.07,4.07,0,0,0,3-1.38,5,5,0,0,0,1.46,3,5.19,5.19,0,0,0,1-2.93,2.85,2.85,0,0,0,2.58,1.6,11.73,11.73,0,0,0-2.53-5.7A1.82,1.82,0,0,0,182.94,616.27Z"/><path class="cls-4" d="M183.71,626.08a1.34,1.34,0,0,0,1.69,1.59"/><path class="cls-4" d="M183.53,630.21a1.33,1.33,0,0,0,1.69,1.59"/><path class="cls-4" d="M183.13,634.29a1.34,1.34,0,0,0,1.69,1.59"/><path class="cls-8" d="M192.36,634.63c-.05-.28-8.93,2.12-7.29,12.43C185.07,647.06,194.16,643.53,192.36,634.63Z"/><path class="cls-8" d="M260,642.53c5.75,2.12,7.8,9.8,2.47,18.63s-.29,9.4-3.79,13.84-11.26,2.77-13.22,9.07-5.93-15,.53-32.52C249.47,642.22,255.78,641,260,642.53Z"/><path class="cls-8" d="M220.45,638.8c5.15-3.3,15.65-2.32,18.54,9.1,3.18,12.51,9.19,10.87,9.61,20.83.32,7.89-4,17.24-4,17.24a12.13,12.13,0,0,0-10.08-5.62c-6.59-.29-10.51-2.89-10.72-9-.31-8.81-4.87-7.75-8.27-15.12A13.46,13.46,0,0,1,220.45,638.8Z"/><path class="cls-4" d="M228.78,651.35c11.59,12.59,17.62,27.59,15.92,48.42"/><path class="cls-4" d="M248.38,667.28a56.61,56.61,0,0,1,5.49-12.38"/><path class="cls-8" d="M220.1,640c5.75,2.12,7.79,9.8,2.47,18.63s-.29,9.4-3.79,13.84-11.26,2.77-13.22,9.07-5.93-15,.53-32.52C209.53,639.68,215.84,638.41,220.1,640Z"/><path class="cls-8" d="M180.51,636.26c5.15-3.31,15.65-2.33,18.54,9.09,3.18,12.51,9.19,10.87,9.61,20.83.32,7.9-4,17.24-4,17.24a12.13,12.13,0,0,0-10.08-5.62c-6.59-.29-10.51-2.89-10.72-9-.31-8.81-4.87-7.75-8.27-15.12A13.43,13.43,0,0,1,180.51,636.26Z"/><path class="cls-4" d="M188.84,648.8c11.59,12.59,17.62,27.59,15.92,48.42"/><path class="cls-4" d="M208.44,664.74a56.56,56.56,0,0,1,5.49-12.39"/><path class="cls-7" d="M402,379.62s7.5,1.86,9.09-2c2.71-6.58-10.4-23.46-26.72-16.56C365.79,368.89,391.09,388,402,379.62Z"/><path class="cls-4" d="M402.38,362.39c1.36,6.81-.4,17.23-.4,17.23a100.78,100.78,0,0,1-24.13-11.28"/><path class="cls-4" d="M391.09,359.28A54.38,54.38,0,0,0,402,379.62s17.26,13.2,27.62,43.59"/><path class="cls-7" d="M418.32,381.69c5.81-1,12.45,2.95,11.28,8.65s-16,5.78-18.53,0C409.16,385.94,413.77,382.45,418.32,381.69Z"/><path class="cls-4" d="M411.74,385.27A19.67,19.67,0,0,1,424,394.35s-2.26-10.68-6.73-12.42"/><path class="cls-4" d="M428.23,385s-3,2.84-4.28,9.33a88.17,88.17,0,0,1,7,29.56"/><path class="cls-7" d="M445.38,397.67s-6.84.42-6.65-4.83c.2-5.6,7.24-9.18,13.45-7.82C462.3,387.23,456.46,399.41,445.38,397.67Z"/><path class="cls-4" d="M443.66,386.08s-1.18,6.57,1.72,11.59a29.73,29.73,0,0,1,11.51-9.6"/><path class="cls-4" d="M450.16,384.75s-3.27,4.33-4.78,12.92c-.25,1.39-2.14,11.14-10.67,23.86"/><path class="cls-7" d="M417.84,347.49c4.53-4.19,18.22-1.76,23.36,13.4s-4.55,16.27-9.55,14.52C413.89,366.76,413,352,417.84,347.49Z"/><path class="cls-4" d="M428.71,346.7S435,360,431.65,375.41c-4.16-18.85-12.6-28.71-12.6-28.71"/><path class="cls-4" d="M440.66,359.41a54,54,0,0,0-9,16s4.55,22.8,3.06,40"/><path class="cls-5" d="M384.71,361.76c0-2.8,6.18-7.46,10.51-6.77,5.08.81,8,5.48,6.6,9.2S384.63,367.58,384.71,361.76Z"/><ellipse class="cls-5" cx="630.62" cy="327.47" rx="4.98" ry="3.69" transform="translate(16.22 684.45) rotate(-57.6)"/><ellipse class="cls-5" cx="421.05" cy="87.94" rx="3.66" ry="2.63" transform="translate(157.91 428.2) rotate(-64.08)"/><ellipse class="cls-5" cx="555.51" cy="126.1" rx="3.72" ry="2.66" transform="translate(-13.92 110.5) rotate(-11.22)"/><ellipse class="cls-5" cx="570.06" cy="209.77" rx="3.9" ry="2.83" transform="translate(228.27 711.92) rotate(-75.96)"/><ellipse class="cls-5" cx="635.75" cy="433.41" rx="3.84" ry="2.62" transform="translate(-57.47 767.28) rotate(-60)"/><ellipse class="cls-5" cx="275.22" cy="734.5" rx="2.15" ry="4.93" transform="translate(-136.3 66.75) rotate(-11.1)"/><ellipse class="cls-5" cx="285.98" cy="741.83" rx="2.42" ry="6.71" transform="translate(-300.19 204.71) rotate(-26.42)"/><ellipse class="cls-5" cx="170.05" cy="688.46" rx="2.15" ry="3.71" transform="translate(-437.01 321.89) rotate(-45)"/><ellipse class="cls-5" cx="55.01" cy="641.29" rx="3.37" ry="5.02" transform="translate(-477 279.02) rotate(-50.84)"/><ellipse class="cls-5" cx="91.86" cy="708.81" rx="3.43" ry="1.86" transform="translate(-590.09 494.8) rotate(-65.19)"/><path class="cls-5" d="M331.87,225.51c1.45-2.32,7.78-2.79,11.91,1.75s2.79,10.71-2.48,9.7S328.84,230.38,331.87,225.51Z"/><ellipse class="cls-5" cx="364.3" cy="216.48" rx="2.47" ry="4.43"/><ellipse class="cls-5" cx="368.06" cy="233.16" rx="7.16" ry="3.59" transform="translate(73.19 553.91) rotate(-79.76)"/><ellipse class="cls-5" cx="358.74" cy="247.78" rx="3.3" ry="1.74" transform="translate(69.79 574.27) rotate(-83.12)"/><ellipse class="cls-5" cx="457.92" cy="242.55" rx="4.63" ry="1.99" transform="translate(188.23 685.04) rotate(-86.55)"/><ellipse class="cls-5" cx="450.33" cy="275.08" rx="7.04" ry="2.23" transform="translate(105.8 674.79) rotate(-80.66)"/><path class="cls-5" d="M462.74,254c2.43.21,3.15,8.41,1.13,13.48s-5,5.73-5.45,2.33S458.91,253.67,462.74,254Z"/><ellipse class="cls-5" cx="548.19" cy="239.37" rx="2.4" ry="4.97"/><ellipse class="cls-5" cx="546.73" cy="274.28" rx="5.76" ry="2.25" transform="translate(168.38 754.89) rotate(-78.43)"/><path class="cls-5" d="M552,248.94s-1.59,7.22-.51,10.91,4.34,3.39,4.84-.58S553.33,250.24,552,248.94Z"/><ellipse class="cls-5" cx="525.01" cy="308.24" rx="2.59" ry="4" transform="translate(-41.23 531.91) rotate(-51.97)"/><ellipse class="cls-5" cx="431.29" cy="334.12" rx="2.47" ry="3.5"/><path class="cls-5" d="M436.53,340.56c1.43-.4,5.64,4.54,5.85,10.54s-3.73,6.51-5.35,1.86S434.77,341.05,436.53,340.56Z"/><ellipse class="cls-5" cx="443.72" cy="363.49" rx="1.73" ry="2.64" transform="translate(-51.33 73.77) rotate(-8.99)"/><path class="cls-5" d="M456.61,422.69c1.18-1.77,6.49-.69,6.83,2.07s-2.49,2.18-4.87,1.19C456.77,425.2,456,423.6,456.61,422.69Z"/><ellipse class="cls-5" cx="534.29" cy="461.24" rx="2.99" ry="4.05" transform="translate(-52.3 853.83) rotate(-74.6)"/><circle class="cls-5" cx="362.12" cy="418.16" r="2.72"/><ellipse class="cls-5" cx="325.27" cy="448.38" rx="2.77" ry="4.15" transform="translate(-211.85 312.93) rotate(-39.89)"/><ellipse class="cls-5" cx="366.86" cy="440.77" rx="5.91" ry="3.56" transform="translate(-194.24 559.23) rotate(-62.15)"/><ellipse class="cls-5" cx="361.05" cy="553.98" rx="4.03" ry="2.86" transform="translate(-279.77 717.06) rotate(-71.18)"/><ellipse class="cls-5" cx="382.12" cy="561.41" rx="3.49" ry="1.8" transform="translate(-256.06 793.62) rotate(-75.75)"/><ellipse class="cls-5" cx="389.68" cy="549.59" rx="5.84" ry="2.21" transform="translate(-238.91 792.03) rotate(-75.75)"/><ellipse class="cls-5" cx="388.97" cy="538.66" rx="3.06" ry="1.26" transform="translate(-228.85 783.1) rotate(-75.75)"/><ellipse class="cls-5" cx="584.13" cy="501.42" rx="4.32" ry="2.25" transform="translate(-19.07 979.73) rotate(-79.06)"/><ellipse class="cls-5" cx="578.86" cy="520.5" rx="1.77" ry="3.55"/><ellipse class="cls-5" cx="587.34" cy="517.48" rx="6.57" ry="2.69" transform="translate(-32.24 995.89) rotate(-79.06)"/><path class="cls-5" d="M616,527.74c-1.58-.62-3.08-3.54-1.36-6.62,2.66-4.79,8.32-4.8,10.23-1.89C627,522.52,623.79,530.81,616,527.74Z"/><ellipse class="cls-5" cx="676.84" cy="541.68" rx="4.06" ry="2.53" transform="translate(9.03 1094.45) rotate(-78.29)"/><path class="cls-5" d="M632.18,541.68c.72-2.23,3.74-2.92,5.86-1.47s9.13,11.54,10.48,14.71-1.92,5.39-5,2.5S630.36,547.29,632.18,541.68Z"/><ellipse class="cls-5" cx="658.33" cy="570.73" rx="2.13" ry="3.38" transform="translate(-197.88 732.08) rotate(-51.6)"/><path class="cls-5" d="M652.63,699.85s-.14,6.32,2.29,7.92S656.69,701.94,652.63,699.85Z"/><path class="cls-5" d="M660,709.19a21.29,21.29,0,0,0,1,8.12c1.41,3.87,3.77,1.87,2.45-2.27A16.53,16.53,0,0,0,660,709.19Z"/><ellipse class="cls-5" cx="657.22" cy="717.31" rx="0.88" ry="2.09" transform="translate(-36.63 35.37) rotate(-3)"/><ellipse class="cls-5" cx="592.25" cy="765.69" rx="2.01" ry="3.51" transform="translate(-218.06 236.12) rotate(-19.11)"/><ellipse class="cls-5" cx="582.18" cy="757.62" rx="1.7" ry="3.29" transform="translate(-266.33 318.36) rotate(-25.09)"/><ellipse class="cls-5" cx="625.83" cy="754.04" rx="1.85" ry="3.39" transform="translate(-353.68 725.69) rotate(-48.65)"/><ellipse class="cls-5" cx="635.15" cy="757.41" rx="1.58" ry="4.2" transform="translate(-345 629.4) rotate(-42.58)"/><ellipse class="cls-5" cx="443.62" cy="772.96" rx="5.16" ry="2.75" transform="translate(-390.22 1087.55) rotate(-80.82)"/><path class="cls-5" d="M437,766.32c1.78,1.31,8.19-6.63,5.69-8.15S435.56,765.27,437,766.32Z"/><ellipse class="cls-5" cx="431.22" cy="784.23" rx="2.9" ry="1.55" transform="translate(-443.02 975.73) rotate(-73.55)"/><ellipse class="cls-5" cx="115.31" cy="712.72" rx="4.93" ry="2.5" transform="translate(-569.19 483.11) rotate(-62.27)"/><path class="cls-5" d="M101.18,711.25c3.54-1,3.64,8.31-2.43,16.71s-10.45,6.62-8.49.65S97.51,712.26,101.18,711.25Z"/><ellipse class="cls-5" cx="105.07" cy="559.86" rx="3.53" ry="5.56" transform="translate(-385.61 270.52) rotate(-48.84)"/><circle class="cls-5" cx="129.23" cy="191.61" r="3.24"/><ellipse class="cls-5" cx="308.12" cy="142.18" rx="3.06" ry="4.22" transform="translate(30.93 337.93) rotate(-60)"/><ellipse class="cls-5" cx="233.39" cy="127.93" rx="2.01" ry="2.63" transform="translate(-3.63 249) rotate(-55.79)"/><path class="cls-5" d="M226.07,200.78c.87-3.43,6.1-4.41,8.12-2.3s2.71,6.77-1.12,8.22-8.18,1.09-7.51-1.2S225.49,203,226.07,200.78Z"/><path class="cls-5" d="M177.75,262c-.63-4.34,4.51-5.3,8.43-11.82s10.11-7.27,11.94-4.35c1.49,2.36-.86,5.6-4.34,8.56-2.94,2.49-2.89,5.86-7.16,8.84S178.15,264.78,177.75,262Z"/><path class="cls-5" d="M132.51,268.43c-.41-3.52,6.22-7.17,10.46-6.65s-.18,7.6-4,10.19S132.86,271.37,132.51,268.43Z"/><ellipse class="cls-5" cx="231.97" cy="296.05" rx="1.95" ry="3.18" transform="translate(-117.51 435.06) rotate(-73.61)"/><path class="cls-5" d="M283.23,318.79c3.06-1.72,10.21,2.4,11.24,6.82s-2.51,6.2-7.57,3S280.63,320.25,283.23,318.79Z"/><path class="cls-5" d="M262.08,338.05c1.62-3.85,9.43-3.24,13.38,1.32s9.82,6,12.82,10.74.15,7.19-5.53,4.66-10.94-3.44-14.79-7.09S260.7,341.33,262.08,338.05Z"/><ellipse class="cls-5" cx="273.62" cy="383.24" rx="2.13" ry="4.11" transform="translate(-190.85 305.73) rotate(-45)"/><ellipse class="cls-5" cx="280.62" cy="392.06" rx="1.63" ry="2.56" transform="translate(-199.93 352.9) rotate(-49.75)"/><path class="cls-5" d="M234.64,404.76c.17-3.32,5-4.49,6.44-2.5s.78,9.92,3.11,15.41-4.06,7.83-7,3.46-4.17-6.41-2.54-9.86S234.48,407.92,234.64,404.76Z"/><ellipse class="cls-5" cx="162.78" cy="445.48" rx="3.39" ry="2.28" transform="translate(-200.93 141.07) rotate(-30)"/><path class="cls-5" d="M179,445.48c-2.6-1.73-1-6.68,2.19-11.06s10.55-6.07,15.72-8.46,8.56-1.73,7.47,2.87-5,6.29-10.25,9.37S182.56,447.89,179,445.48Z"/><ellipse class="cls-5" cx="294.15" cy="470.29" rx="1.66" ry="2.75" transform="translate(-255.89 542.07) rotate(-65.41)"/><ellipse class="cls-5" cx="131.71" cy="331.85" rx="2.48" ry="3.5" transform="translate(-202.11 205.23) rotate(-47.58)"/><path class="cls-5" d="M99.71,405.7c-.76-4.4,6.32-7.29,9.92-13.32s7.49-8.66,10.6-7.59,4.28,4.28,1,7.49-5.64,8.46-10.5,12.54S100.59,410.76,99.71,405.7Z"/><ellipse class="cls-5" cx="236.72" cy="605.83" rx="2.31" ry="3.52" transform="translate(-215.02 137.86) rotate(-22.65)"/><path class="cls-5" d="M242.46,614.44c1.6.25,7.29,3.79,7.6,10.35C250.35,631.1,241.3,622.58,242.46,614.44Z"/><ellipse class="cls-5" cx="243.02" cy="637.5" rx="1.66" ry="3.23" transform="translate(-243.56 159.27) rotate(-24.63)"/><ellipse class="cls-5" cx="313.21" cy="649.95" rx="5.16" ry="1.97" transform="translate(-369.88 882.19) rotate(-83.05)"/><ellipse class="cls-5" cx="307.43" cy="640.59" rx="1.22" ry="2.24"/><ellipse class="cls-5" cx="292.34" cy="647.97" rx="2.6" ry="6.49" transform="matrix(0.97, -0.25, 0.25, 0.97, -154.23, 94.88)"/><ellipse class="cls-5" cx="284.14" cy="632.86" rx="1.6" ry="3.38" transform="translate(-102.43 56.83) rotate(-9.69)"/><path class="cls-5" d="M296.85,673.12c1.3-.06,3.38,3.43,2.41,5C298,680.13,294.63,673.22,296.85,673.12Z"/><path class="cls-5" d="M288.92,661.4c1.25-.52,3,1.58,2.91,4.73s-2.11,1.62-2.91-.59C288.23,663.64,288,661.8,288.92,661.4Z"/><path class="cls-5" d="M682.49,688.17c2-1.59,8,3,9.36,7.15s-2,5.17-6.5.77S681.39,689.05,682.49,688.17Z"/><ellipse class="cls-5" cx="565.87" cy="632.91" rx="2.99" ry="4.61" transform="translate(-276.89 530.27) rotate(-41.26)"/><ellipse class="cls-5" cx="84.43" cy="802.98" rx="1.92" ry="4.09"/><path class="cls-5" d="M672.42,760.65c.52-2.84,5.68-1.36,7.35,1.26,1.31,2,2.59,7.24,1.4,11s-9.95,14.13-14.26,11.86,8.12-8.8,8.86-14.38C676.74,763.1,671.82,763.88,672.42,760.65Z"/><path class="cls-5" d="M602.15,798.26c-.63-2.74,5.32-6,11.64-6.88,8.25-1.15,10.05-6.29,13.3-4.77,2.24,1.06.86,4.67-2.29,6.81-4.11,2.8-7.71,1.47-11.92,3.36S602.85,801.27,602.15,798.26Z"/><path class="cls-5" d="M548.83,805.51c2.49,3.56-5.1,4.33-6.72,9.73s-1.35,46-8.1,47.37-1.08-38.06,1.75-46.43S546.12,801.64,548.83,805.51Z"/><path class="cls-5" d="M520.73,805.21c2.07.13,3.07,11.35-1.88,10.73C515.08,815.47,517.91,805,520.73,805.21Z"/><path class="cls-5" d="M513.86,829.78c2-.28,1.42,6.4,1.79,10,.47,4.61-3.49,8.66-4,1.88S511.78,830.07,513.86,829.78Z"/><path class="cls-5" d="M513.55,860.32c2.88,0,3.41,5.72,2.82,25.13s-.46,30.06-2.82,35.24-5.76,4.73-4.73-2.67,2.52-28.11,2.52-38.32S510.29,860.32,513.55,860.32Z"/><path class="cls-5" d="M485.15,820.22c1.56-3.56,7,1.77,9.47,10.65s3.33,17,3.59,27.52-.34,14.56-3,14,.59-14.42-2.67-30.49S483.52,823.92,485.15,820.22Z"/><path class="cls-5" d="M454.89,811.89c.76-2.08,7.71-2.58,12.28,2.71s8.49,14.7,9.28,18.89c.77,4-2.28,5.25-4,1.1s-5.53-13.48-11.71-17.13C457.51,815.55,454.14,813.9,454.89,811.89Z"/><path class="cls-5" d="M379.63,811.61c.82-4.11,18.95,2.09,19,14.83s-.69,22.31,1.2,29.58c2.38,9.1-1.09,12-2.43,12-3.81,0-5-9.29-4.06-25s-.19-20-5.7-23.86S379.06,814.46,379.63,811.61Z"/><path class="cls-5" d="M409.15,814.74c.8-2.25,6-1.42,7.74,1.67,1.91,3.39,1.68,8,0,12.46s-4.82,3.83-4.08,0C414.82,818.42,407.79,818.57,409.15,814.74Z"/><path class="cls-5" d="M446.29,896.81c2-1.17,4.1,1.8,3.33,8.54s.94,14.35-2.73,17.34-3.84-3.5-2.73-8.71,1.45-6.41,1.45-10.68S445.27,897.41,446.29,896.81Z"/><path class="cls-5" d="M308.08,748.22c2.74-2.23,7.85,1.5,11.36,13.34s-3.91,19.06-14.74,28.19-14.05,3-10.13-.91,16.57-12.28,18.45-19.46c1.61-6.11-.4-9.8-2.81-12.92S305.75,750.13,308.08,748.22Z"/><path class="cls-5" d="M305.32,723.42c2.23,1.25-.3,4-1.81,7.93s2.53,5,3.13,7.84-1.82,5.06-5.26,1.47-3.84-6.11-2.32-10.06S303,722.1,305.32,723.42Z"/><ellipse class="cls-5" cx="326.4" cy="727.92" rx="1.47" ry="2.17"/><path class="cls-5" d="M321.5,677.32c1.82-1.73,5.71,1.8,6.37,5.76s-1.22,7.26-3.19,12.58-7.93,7-7.93,2.69,6.16-7.48,5.56-12.44S319.38,679.34,321.5,677.32Z"/><path class="cls-5" d="M327.07,719.05c-2.84-.77,1.85-9.91,7.67-15.23s11.92-6.6,12.94-4.3c1.51,3.42-6.42,3.64-11.81,10.13S330.48,720,327.07,719.05Z"/><path class="cls-5" d="M383.46,647c1.84-1.35,5.57,2.2,3.47,6.71s-7.37,7.16-15.62,10S356.56,677,351.61,675s2.09-9.46,10.12-12.54,18.38-7.71,19.81-10.79S382,648.13,383.46,647Z"/><ellipse class="cls-5" cx="383.14" cy="641.97" rx="2.43" ry="1.23"/><path class="cls-5" d="M121.68,818.26c1.75-.88,4.38,2.36,4.6,8.87s-3.7,5.72-3.93,2.69.16-5-.85-7.44S120.87,818.67,121.68,818.26Z"/><path class="cls-5" d="M182,821.39c1.87-1.24,6.62,5.32,8.45,14.9,2,10.6,1.24,16.22-1.37,15.67-2.91-.61.08-9.58-3.42-18.18S180.17,822.6,182,821.39Z"/><ellipse class="cls-5" cx="220.69" cy="833.08" rx="4.49" ry="2.28" transform="translate(-620.63 646.25) rotate(-62.64)"/><path class="cls-5" d="M201.92,843c3.11-1.08,5,3,3.23,11.48s-1.92,9.93-1.26,20.46-.42,15.07-3.53,14.23-2.75-12.44-2.27-21.41S197.81,844.37,201.92,843Z"/><path class="cls-5" d="M248,826.92c2.34,3.11-6.06,6.34-9.37,12.44s-6.54,5.14-9.77,13.76-6.46,16.74-10.29,15.19,3.83-16.87,9.1-22.73,5.53-9.09,11-14.12S246.9,825.48,248,826.92Z"/><path class="cls-5" d="M331.5,774.26c2.72.56.26,5.33.77,9.29s-.51,6.91-2.74,6.71-3.15-4.68-2.75-8.64S328.79,773.7,331.5,774.26Z"/><path class="cls-5" d="M333.35,797.22c2-.44,1.68,3.21,4.41,6.3s4.12,6.48,2.2,7.22-5.48-1.85-7.15-6.59S332,797.51,333.35,797.22Z"/><ellipse class="cls-5" cx="358.84" cy="632.45" rx="0.97" ry="1.79" transform="translate(-122.63 87.52) rotate(-11.89)"/><ellipse class="cls-5" cx="365.42" cy="638.25" rx="1.54" ry="3.78" transform="translate(-123.68 89) rotate(-11.89)"/><path class="cls-6" d="M582.73,712.91s-2.32-2.7-3.11-3.95-.67-2.3.11-2.28c1,0,1.84,3.09,4.59,5Z"/><path class="cls-7" d="M540.49,715.08c2.55-2.67,10-3.49,13.78,2,4.85,7-8.33,19.07-14.58,17.47C536.21,733.68,536.32,719.43,540.49,715.08Z"/><path class="cls-4" d="M540.83,724.7a4.46,4.46,0,0,1,.9-2.23"/><path class="cls-4" d="M547.06,724.45a3.17,3.17,0,0,1-1.21,1.65"/><path class="cls-4" d="M544.07,730a3.36,3.36,0,0,1-1,1.64"/><path class="cls-4" d="M547.49,718.83a5.65,5.65,0,0,0-.87,1.75"/><path class="cls-4" d="M551.2,721.39a4,4,0,0,1-.65,1.52"/><path class="cls-6" d="M543,713.57s.73.65,4.12.64a4.63,4.63,0,0,0-.41,3A4.75,4.75,0,0,0,549,715a6.17,6.17,0,0,0,2.38,4.09,4.52,4.52,0,0,0,.78-3.09s1.19,2.45,3,3.17a7.64,7.64,0,0,0-5.31-5.82C545.21,711.9,543,713.57,543,713.57Z"/><path class="cls-8" d="M542.32,701.83s-5.32-2.72-8-6.26-.84-5.44,1-4.69c0,0-2.42-2-2.73-3.92s2.16-1.85,2.16-1.85-3-3.44-2-5.67,3.74-.27,3.74-.27-1.06-2.95.86-3.94,3.49,1.34,3.49,1.34.17-3.3,2.44-3.43,4.1,3.62,4.1,3.62a2.37,2.37,0,0,1,2.09-1.67c1.68-.12,4.95,3.7,5.17,7.74a2.16,2.16,0,0,1,2.31-1.78c1.89.23,3.57,8.66.94,16.16S545.92,704,542.32,701.83Z"/><path class="cls-4" d="M542.38,683.16s8.84,5.85,10.29,19.42"/><path class="cls-7" d="M579.7,733.94c3.72-1.94,3.74-16.41-2.79-18.48-4.62-1.47-11.67,1.89-11.62,7.21S575.52,736.12,579.7,733.94Z"/><path class="cls-6" d="M565.31,722.09a14.76,14.76,0,0,0,5.13-3.91,2.18,2.18,0,1,0,3-1.44,7,7,0,0,0,5.33-.22,8,8,0,0,0-8.55-1.3C567.64,716.23,565.19,719,565.31,722.09Z"/><path class="cls-4" d="M568.82,723.41a4.11,4.11,0,0,0,1.12,1.75"/><path class="cls-4" d="M574.83,726.54a7.06,7.06,0,0,0,1.44,2.2"/><path class="cls-4" d="M579.45,725.66A6.61,6.61,0,0,1,580,728"/><path class="cls-4" d="M575,721.82a7.41,7.41,0,0,1,.95,1.84"/><path class="cls-4" d="M578,719.13a4.73,4.73,0,0,1,.8,1.7"/><path class="cls-7" d="M583.51,712.24c2.93-2.28,7.22-3.72,10-.72s4.69,12,1.64,15.09-12.4-2.13-14-6.51A6.45,6.45,0,0,1,583.51,712.24Z"/><path class="cls-6" d="M580.71,717a6.62,6.62,0,0,0,3.35-2,12.09,12.09,0,0,0,2.33,2.55,11.75,11.75,0,0,0-.49-3.67,8.37,8.37,0,0,0,3.67-.27,6.59,6.59,0,0,0-3.27-1.57,3,3,0,0,0,1.87-2.14S581.26,710.62,580.71,717Z"/><path class="cls-4" d="M584.49,719.36a2.84,2.84,0,0,0,1,1.27"/><path class="cls-4" d="M590.74,722.66a5.76,5.76,0,0,0,1.52,1.68"/><path class="cls-4" d="M587.75,717.84s.71,1.4,1.39,1.69"/><path class="cls-4" d="M589.92,715.75a4.06,4.06,0,0,1,.85,1.45"/><path class="cls-4" d="M593,717.46a6.83,6.83,0,0,1,.91,1.93"/><path class="cls-7" d="M560.37,731.85c3.33.14,10.13-8.88,6.93-16.61-2.09-5-11.8-4.37-12.23,1.53C554.6,723.06,556.59,731.7,560.37,731.85Z"/><path class="cls-4" d="M557.11,719.56a3.49,3.49,0,0,0,.19,1.29"/><path class="cls-4" d="M561,721.25a7.56,7.56,0,0,1-.07,1.58"/><path class="cls-4" d="M559.46,726.1a6.32,6.32,0,0,0,.34,1.48"/><path class="cls-4" d="M563.46,724.5a2.77,2.77,0,0,1-.2,1.33"/><path class="cls-4" d="M564.94,720.69a7.74,7.74,0,0,1-.05,1.43"/><path class="cls-8" d="M546.65,711.16s.73,5-2.73,7.92-4.16,1.07-3.68,0c0,0-2.76,3.23-5.63,4.26s-1.41-2.36.4-3.59c0,0-1.28,1.42-5,2.35s-4.77-1.47-3.11-3c0,0-3,.88-5.09-.93s-.05-3.61,1.21-3.91c0,0-3.86-.75-4.53-2.51s1.82-2.34,1.82-2.34-3-.84-4-3,1.33-3.2,4.24-3.07c0,0-2.41-4.92,5.24-4.4,0,0-1.15-2.29.39-3.12s5.53.24,6.55,1.11c0,0-.87-2,.18-2.62s3.41-.41,7.7,3A1.71,1.71,0,0,1,542,695c2.17-.32,4.81,3,5,6C547.05,701,550.47,706.84,546.65,711.16Z"/><path class="cls-4" d="M530.27,708.48s9-1.6,16.38,2.68"/><path class="cls-7" d="M601.34,722.5c.58-1.2,2.25-5.17,6.95-4.15s8.39,10,6.93,12.92-11.25,3.79-15,0C596.61,727.61,600.29,723.67,601.34,722.5Z"/><path class="cls-6" d="M600,722a6.66,6.66,0,0,0-1,4,6.14,6.14,0,0,1,1.67-1.83,5.12,5.12,0,0,0,1.87,2.5,18.66,18.66,0,0,1-.27-3.69,8,8,0,0,0,4.09.73,7.84,7.84,0,0,0-2.95-2.88,6.26,6.26,0,0,0,2-2.42,8.16,8.16,0,0,0-4.19,1.94,14.71,14.71,0,0,1-3.81-3.52c-1.2-1.62-3-1-1.37,1.2A17.46,17.46,0,0,0,600,722Z"/><path class="cls-4" d="M603,727.82a3.2,3.2,0,0,0,1.75,1.08"/><path class="cls-4" d="M608.25,729.49a8.23,8.23,0,0,0,1.88,1.21"/><path class="cls-4" d="M612,727a4.86,4.86,0,0,1,1,1.55"/><path class="cls-4" d="M608.45,724.43a2.12,2.12,0,0,1,1,1"/><path class="cls-4" d="M607.7,720.92a2.56,2.56,0,0,1,1.12.88"/><path class="cls-8" d="M547.69,706.93s-1.43-5.45-.05-9.69,3.73-2.49,4.38-.32c0,0,.64-4.38,2.88-4.69s2.89,2.36,2.89,2.36.56-4,2.72-3.84,2.81,2.79,2.81,2.79a6.75,6.75,0,0,1,3.12-1.88,2.5,2.5,0,0,1,3.2,2.88s3.68-1.53,4.89-.16,0,3.9,0,3.9,2.68-.15,3.46,1.67a2.85,2.85,0,0,1-.85,3.17s2.39.67,2.48,2.5-2.42,3-3.86,3.35c0,0,1.37,1,1.07,2.25-.33,1.41-3.33,3-6.44,2.43,0,0,.79,2.39-.78,3.39s-5.39.37-6.78-1.11c0,0,.81,2.32-.63,2.9s-5.86-1.38-8.45-5c0,0-.68,1.75-2.18,1.49A6.46,6.46,0,0,1,547.69,706.93Z"/><path class="cls-4" d="M569.17,704.25s-11.47-4.76-21.48,2.68"/><path class="cls-8" d="M587.75,706.1s5,.69,7.55-4.8.11-6.07-.77-5c0,0,2.12-2.6,2-5.25s-2.72-1.53-2.72-1.53.88-3.8-.24-5.42-2.48.18-2.48.18a8.3,8.3,0,0,0-1.53-4.45,1.72,1.72,0,0,0-3.18.64,6.22,6.22,0,0,0-2.8-3.49c-2-.92-3.48,1.27-3.48,1.27s-2.64-3-4.79-2.69a1.9,1.9,0,0,0-1.6,3s-3-.69-4.09.43,1.34,4.19,1.34,4.19-3.39.7-3.68,3,2.69,3.45,2.69,3.45-3.22,1.21-3.11,3.29,4.37,2.31,4.37,2.31a1.53,1.53,0,0,0-.2,2.48,10.3,10.3,0,0,0,3.83,1.87s-2.66,1.33,1,5.39S585.66,708.26,587.75,706.1Z"/><path class="cls-4" d="M578.23,686.23a39,39,0,0,1,9.52,19.87"/><path class="cls-8" d="M589.61,701.19a11.22,11.22,0,0,1,3.78-8.47c2.7-2.45,8.3-3.61,8.51-.75,0,0,5.66-3.05,9.87-1.11s-.11,3.7-.11,3.7,7.47,1.11,9.6,5.93-4,8-4,8,3.83,6.25-8.73,4.14c0,0-2.37,6.19-9.79.7,0,0,.65,3-2,3.15s-4.72-5.24-4.72-5.24-1.07,1.53-2,.55C588.46,710.23,588.21,706.19,589.61,701.19Z"/><path class="cls-4" d="M611.86,703.75a40.49,40.49,0,0,0-22.25-2.56"/><path class="cls-7" d="M314.71,520.09s2.93,15.14,20.36,9.72C335.07,529.81,328.89,513.15,314.71,520.09Z"/><circle class="cls-8" cx="316.6" cy="529.11" r="8.84"/><circle class="cls-3" cx="320.04" cy="525.22" r="0.39"/><circle class="cls-3" cx="318.31" cy="523.24" r="0.39"/><circle class="cls-3" cx="316.01" cy="524.58" r="0.39"/><circle class="cls-3" cx="317.76" cy="526.53" r="0.39"/><path class="cls-7" d="M320.8,489.79s-10,12.25-.69,21.89C320.11,511.68,331.61,504.58,320.8,489.79Z"/><path class="cls-7" d="M312.08,516.38s-6.26-10.18,7.27-18.23C319.35,498.15,324.07,514.21,312.08,516.38Z"/><path class="cls-7" d="M301.61,557.81s11-9.11,2.11-17.75C303.72,540.06,293.28,546,301.61,557.81Z"/><path class="cls-7" d="M307.92,536.85s-7.06,13.12,6.68,20.08C314.6,556.93,320.37,541.48,307.92,536.85Z"/><path class="cls-7" d="M282.13,549.88s-1.26-14.5,11.3-16.93C293.43,533,297.59,547.43,282.13,549.88Z"/><path class="cls-7" d="M283.19,519.2s14.29,7,21-8.33C304.16,510.87,290.84,504.07,283.19,519.2Z"/><path class="cls-7" d="M295.61,530.81S290.47,517,302,511.25C302,511.25,310,524.26,295.61,530.81Z"/><path class="cls-7" d="M300.5,495.92s-5.19,13.52,11.71,18.76C312.21,514.68,315.83,497.46,300.5,495.92Z"/><path class="cls-7" d="M268.26,505.33s4.65,13.51,20.67,7.74C288.93,513.07,282.13,498.9,268.26,505.33Z"/><path class="cls-7" d="M288,507.92s13.12-6.34,5.68-20.94C293.71,487,280.88,492,288,507.92Z"/><path class="cls-7" d="M269.12,498.58s14.34,4.34,21.49-12.79C290.61,485.79,277.53,480.63,269.12,498.58Z"/><path class="cls-7" d="M259.49,530.69s13.79-.79,12.3-15.32C271.79,515.37,259.84,515,259.49,530.69Z"/><path class="cls-7" d="M270.79,474.47s-16.41.78-16.66,14.68C254.13,489.15,266.93,494.48,270.79,474.47Z"/><path class="cls-7" d="M233.18,507.1s13.94,5.53,20-11.19C253.17,495.91,240.38,489.32,233.18,507.1Z"/><path class="cls-7" d="M246.2,514.41s13.82-4.6,8.32-20C254.52,494.37,241.15,497.75,246.2,514.41Z"/><path class="cls-7" d="M231.71,481.44c-.79.61,10.31,12.95,20.14,1.62C251.85,483.06,244.39,471.71,231.71,481.44Z"/><path class="cls-7" d="M251.48,461.33S243,477,256,483.53C256,483.53,266.3,474.92,251.48,461.33Z"/><circle class="cls-8" cx="299.47" cy="539.37" r="8.84"/><circle class="cls-3" cx="299.04" cy="535.35" r="0.39"/><circle class="cls-3" cx="296.41" cy="535.25" r="0.39"/><circle class="cls-3" cx="295.82" cy="537.85" r="0.39"/><circle class="cls-3" cx="298.43" cy="537.91" r="0.39"/><circle class="cls-8" cx="261.53" cy="511.58" r="8.84"/><circle class="cls-3" cx="265.91" cy="508.34" r="0.39"/><circle class="cls-3" cx="264.93" cy="510.78" r="0.39"/><circle class="cls-3" cx="267.16" cy="512.22" r="0.39"/><circle class="cls-3" cx="268.11" cy="509.79" r="0.39"/><circle class="cls-8" cx="302.81" cy="511.34" r="8.87"/><circle class="cls-3" cx="303.5" cy="506.56" r="0.39"/><circle class="cls-3" cx="301.35" cy="505.03" r="0.39"/><circle class="cls-3" cx="299.43" cy="506.87" r="0.39"/><circle class="cls-3" cx="301.58" cy="508.36" r="0.39"/><path class="cls-6" d="M244.84,477.74s15.16,12.82,22.45,29.51l2.06-3.83A69.84,69.84,0,0,0,248,476.1Z"/><path class="cls-6" d="M269,480.7a70.49,70.49,0,0,0-1.55,31c5.1,26.7-8.85,46.53-13,59.87-4.3,13.67-13.24,19.46-6.48,25.06,4.62,3.83,17.16,1.15,18-11.52,1-14.94,2.37-34.85,10-41.66s22.46-7.59,33.86-18.79a33.1,33.1,0,0,1,25.2-9.56l-1.49-6.66s-15-1.1-26.08,9.37c-9.23,8.68-21.58,15.35-25.56,12.61s3.15-8.15,6.82-15.3c3.91-7.64,11.27-18.4,18.64-19.34l-5.89-3.88s-8.88,4.33-17.51,21.29c-6.7,13.15-9.8,2.23-10.69-5.59s-1.64-18.58,2.22-24.25Z"/><path class="cls-7" d="M231.39,470.49s7.92,15.13,21.42,4.79C252.81,475.28,248.62,465.06,231.39,470.49Z"/><path class="cls-7" d="M266.17,470.7s.37,19.38,19.05,16.58C285.22,487.28,285.54,473,266.17,470.7Z"/><path class="cls-7" d="M294.57,469.22s-5.3,16.67,10.7,21.56C305.27,490.78,310.7,476.46,294.57,469.22Z"/><path class="cls-7" d="M336.38,491.29s-15.39,3.88-14,16.54C322.36,507.83,337.89,508.66,336.38,491.29Z"/><path class="cls-7" d="M340.72,518.32s-15.5,2.85-19.07-10.57C321.65,507.75,335.85,502,340.72,518.32Z"/><path class="cls-7" d="M297.27,489.43s.92,13.87,20.86,8.34C318.13,497.77,309.9,483.74,297.27,489.43Z"/><circle class="cls-8" cx="246.19" cy="491.42" r="8.84"/><circle class="cls-3" cx="249.45" cy="487.68" r="0.39"/><circle class="cls-3" cx="248.09" cy="489.94" r="0.39"/><circle class="cls-3" cx="250.07" cy="491.71" r="0.39"/><circle class="cls-3" cx="251.39" cy="489.46" r="0.39"/><circle class="cls-8" cx="292.38" cy="488.14" r="8.84"/><circle class="cls-3" cx="295.55" cy="484.03" r="0.39"/><circle class="cls-3" cx="294.56" cy="486.47" r="0.39"/><circle class="cls-3" cx="296.79" cy="487.91" r="0.39"/><circle class="cls-3" cx="297.74" cy="485.48" r="0.39"/><path class="cls-2" d="M401.31,718.34s0,5.29,4.17,5.3c11.23,0,23.87-.86,30.17-1.51,7-.72,8.46-3,8.34-7.25,0,0-5.07-4.22-16.09-2.17S401.31,718.34,401.31,718.34Z"/><path class="cls-6" d="M420.71,696.17s2.77,6.93-1.25,9.56-19.26,4.85-18.15,12.61c0,0,22.86-3.6,42.68-3.46,0,0,0-11.92-2.22-18.16Z"/><path class="cls-4" d="M421.59,701.87a11.57,11.57,0,0,0,5.33.1"/><path class="cls-4" d="M420.16,705.17a10.26,10.26,0,0,0,5.74.42"/><path class="cls-2" d="M452.79,719.5s-.48,5.31,3.48,5.1c7.63-.41,20.77-2.66,38.73-9.46a2.53,2.53,0,0,0,1.63-2.5c-.06-1-.14-2.33-.25-3.26l-14.8.5Z"/><path class="cls-6" d="M469.74,694.91s2.05,6.66,0,10.94-17,5-16.95,13.65c0,0,29.61-7.81,43.59-10.12,0,0-1-12.17-5.67-17.92Z"/><path class="cls-4" d="M470.6,699.78a15.91,15.91,0,0,0,4.1-.7"/><path class="cls-4" d="M470.6,702.88a9.64,9.64,0,0,0,4.42-.62"/><path class="cls-7" d="M419.44,513.77s-19.9,41.84-20.69,81.55l18.7,3.71,12.79-89Z"/><path class="cls-5" d="M394,620.47s-2.77,15.11,8.69,13.35l2.9-14.36Z"/><path class="cls-7" d="M420.79,517.15s-9,44.34-17.59,100.21-11.69,74.27,11.9,79.95,78.18-3.49,98.27-10.48c0,0,5.24-28.58,0-78.72,0,0,2.75-71.33-12.9-98.11Z"/><path class="cls-3" d="M429.2,460.6s-6.57-8.47-14.09-2.76c0,0-7.67-2.37-8.64,4.46,0,0-7.39-2.37-8,7.95,0,0-10.45,3.62-3.76,11.43,0,0-9.35,4.88-2.24,12.54,0,0-10.45,7.26-.27,14.71,0,0-.84,11.5,11.71,4.25,0,0,2.8,11.45,11,5.35,0,0,5.37,7.32,11.54-1.38h12.85s2.92,5.54,8.09-1.6c0,0,6.55,1,8.08-4.74s4.91-15.19-7.09-18.82S429.2,460.6,429.2,460.6Z"/><path class="cls-3" d="M466.61,455.91c.88-.67,8.52-10.26,14.88-3.53,0,0,9.39-5.55,13.09,2.52,0,0,13.12-3.19,11.1,8.58,0,0,15.81.17,7.57,14.47,0,0,8.07,5.54-2,11.1,0,0,8.58,5.18-1.35,11.93,0,0,1.52,9.94-9.25,12,0,0-.59,10.59-12.28,4.87,0,0-5.32,7.36-9.79,0L467.34,519s-4.83,6.28-8,2.05c0,0-6.4,2.47-5.31-3.47,0,0-6.28-2.56-1.45-9.2a8.9,8.9,0,0,0-1.82-9.06C451.89,498.15,466.61,455.91,466.61,455.91Z"/><ellipse class="cls-5" cx="409.93" cy="472.35" rx="2.68" ry="2.2"/><path class="cls-4" d="M402.3,488.64s-4.34,3.13-.9,6.14c0,0-1.56,3,1.8,3.78"/><path class="cls-4" d="M406.63,503.93s-.9,3.19,2,3.27c0,0,.49,4.5,4.5.82"/><ellipse class="cls-5" cx="487.13" cy="458.01" rx="2.03" ry="2.86" transform="translate(-90.42 794.91) rotate(-73.49)"/><ellipse class="cls-5" cx="496.81" cy="465.41" rx="2.66" ry="3.9" transform="translate(-90.59 809.5) rotate(-73.49)"/><path class="cls-4" d="M500.47,475.82s3.27.12,2,3.57c0,0,3.08,3-.49,4.84"/><path class="cls-4" d="M495.39,501s3.21,2.31.31,4.14c0,0,2.48,2.74.45,4.27s-4.2-.46-4.2-.46"/><circle class="cls-3" cx="448.96" cy="532.57" r="2.89"/><circle class="cls-3" cx="447.59" cy="552.25" r="2.89"/><circle class="cls-3" cx="446.65" cy="572.15" r="2.89"/><circle class="cls-3" cx="445.62" cy="593.63" r="2.89"/><circle class="cls-3" cx="444.64" cy="615.29" r="2.89"/><circle class="cls-3" cx="445.25" cy="637.25" r="2.89"/><circle class="cls-3" cx="445.84" cy="685.09" r="2.89"/><circle class="cls-3" cx="445.25" cy="661.52" r="2.89"/><path class="cls-4" d="M486,547.41a160.34,160.34,0,0,1,5.47,44.27"/><path class="cls-5" d="M499,620.76s-1.47,10.18,5.26,6c0,0-1.13,6.07,2.85,6.9,4.14.86,10.69.11,7.11-16.12Z"/><path class="cls-3" d="M410.12,588.48s-5.29-5.41-9.45.88c0,0-5.66-6.55-8.69,1.77,0,0-9.19.12-6.29,10.2a7.5,7.5,0,0,0,.63,9.44s-5,6.17,1.76,9.57c0,0,1,5,6.68,2.27,0,0,1.25,3.8,5.41.83,0,0,6.17,4.84,8.82-5.87,0,0,11.08-3.65,6.67-15C415.66,602.59,419.57,587.6,410.12,588.48Z"/><ellipse class="cls-5" cx="396.83" cy="596.63" rx="2.52" ry="2.06"/><ellipse class="cls-5" cx="402.67" cy="593.85" rx="1.49" ry="1.02"/><path class="cls-3" d="M490.93,589.68s-7.94,3.15-2.39,9.83c0,0-5.56,6.18,1.69,9.33,0,0-3.58,7.31,4.36,7.81,0,0-2,6.68,4.53,5.42,0,0,4.66,4.41,8.45-2,0,0,3.7,4,6.89-.88,0,0,4.07,3.19,6.34-1.93,0,0,5.16-1.72,5.54-8.91s-4.66-7.68-4.66-7.68,5-6.34-1-9c0,0,1.26-7.79-4.16-6.91,0,0-4.53-5-7.68-.76,0,0-2.4-6-5.55-.12-.48-3.09-5.2-4.14-6.8-.26C496.48,583.63,488.79,582.5,490.93,589.68Z"/><ellipse class="cls-5" cx="510.31" cy="589.7" rx="1.9" ry="3.93" transform="translate(-155.72 995.35) rotate(-80.47)"/><rect class="cls-2" x="495.39" y="634.2" width="3.05" height="9.68" transform="translate(-89.56 81.06) rotate(-8.56)"/><rect class="cls-2" x="520.88" y="629" width="3.05" height="9.68" transform="translate(-88.51 84.8) rotate(-8.56)"/><circle class="cls-6" cx="497.83" cy="645.51" r="4.99"/><circle class="cls-6" cx="523.82" cy="641.22" r="4.99"/><rect class="cls-2" x="493.9" y="643.87" width="42.34" height="51.75" transform="translate(-97.01 87.33) rotate(-8.86)"/><path class="cls-2" d="M479,649.18h-.08a9.24,9.24,0,0,0-7.71,10.56l.58,3.76,3.95,25.34.59,3.76a9.25,9.25,0,0,0,10.56,7.71H487l8.48-1.33-8-51.12Z"/><path class="cls-2" d="M543.23,639.17h-.08l-8.48,1.32,8,51.13,8.48-1.32.08,0a9.25,9.25,0,0,0,7.72-10.56l-.59-3.75-4-25.35-.59-3.75A9.23,9.23,0,0,0,543.23,639.17Z"/><rect class="cls-3" x="486.85" y="666.82" width="11.96" height="12.96" rx="2.34" ry="2.34" transform="translate(-97.83 83.94) rotate(-8.86)"/><rect class="cls-3" x="531.35" y="659.88" width="11.96" height="12.96" rx="2.34" ry="2.34" transform="translate(-96.23 90.72) rotate(-8.86)"/><line class="cls-2" x1="498.13" y1="698.57" x2="495.46" y2="698.98"/><line class="cls-2" x1="487.49" y1="647.86" x2="490.16" y2="647.44"/><rect class="cls-6" x="491.46" y="647.34" width="2.7" height="51.75" transform="translate(-97.81 83.94) rotate(-8.86)"/><line class="cls-2" x1="542.64" y1="691.63" x2="539.97" y2="692.05"/><line class="cls-2" x1="532" y1="640.92" x2="534.67" y2="640.5"/><rect class="cls-6" x="535.97" y="640.4" width="2.7" height="51.75" transform="translate(-96.21 90.71) rotate(-8.86)"/><rect class="cls-2" x="489.78" y="664.66" width="4.46" height="6.81" rx="1.04" ry="1.04" transform="translate(-97.03 83.75) rotate(-8.86)"/><rect class="cls-2" x="534.29" y="657.72" width="4.46" height="6.81" rx="1.04" ry="1.04" transform="translate(-95.43 90.53) rotate(-8.86)"/><rect class="cls-3" x="506.27" y="650.66" width="11.7" height="6.52" rx="2.13" ry="2.13" transform="translate(-94.61 86.68) rotate(-8.86)"/><path class="cls-6" d="M471.22,659.75l.58,3.76,5.57-.87a3.69,3.69,0,0,0,3.08-4.22L479,649.18h-.08A9.24,9.24,0,0,0,471.22,659.75Z"/><path class="cls-6" d="M476.34,692.61a9.25,9.25,0,0,0,10.56,7.71H487l-1.44-9.24a3.7,3.7,0,0,0-4.22-3.09l-5.57.87Z"/><path class="cls-6" d="M543.23,639.17h-.08l1.44,9.24a3.69,3.69,0,0,0,4.22,3.08l5.57-.87-.59-3.75A9.23,9.23,0,0,0,543.23,639.17Z"/><path class="cls-6" d="M551.12,690.31l.08,0a9.25,9.25,0,0,0,7.72-10.56l-.59-3.75-5.57.87a3.7,3.7,0,0,0-3.08,4.22Z"/><rect class="cls-6" x="490.4" y="626.02" width="36.75" height="6.89" rx="3.45" ry="3.45" transform="translate(-91.03 86.04) rotate(-8.88)"/><path class="cls-8" d="M430.1,502.19s-1.76,5-5.3,7.84-2,9.46,3.68,11.83c0,0-.67,1.81-4.09,5.06s-2.22,8.7,2.9,10.84c0,0-8.53,5.21-1.45,11,0,0,.76,4.17-4.54,7s-5,5.81.46,5.35a3.2,3.2,0,0,0,3.51,2.38c2.84-.33,2.31-3.63,2.31-3.63s4.16,3.56,5.09-2.38c0,0,4.49-2.32-.53-8.33,0,0,4.1-.86,4.36-4.1s-2.05-4-2.38-6.94c0,0,4-.92,5.55-6.21S436.3,522,436.3,522s5.89-1.72,5.29-9.12-8.19-10.68-8.19-10.68Z"/><path class="cls-4" d="M434.48,514.67a6.76,6.76,0,0,1-.78,5"/><path class="cls-4" d="M437.94,514.35a5.73,5.73,0,0,1-1.22,4.18"/><path class="cls-4" d="M431.8,531.46s.58,2.94-.78,4.88"/><path class="cls-4" d="M434.64,532.2a6.52,6.52,0,0,1-1.21,3.72"/><path class="cls-4" d="M429.56,543.1a4.91,4.91,0,0,1-.36,3.55"/><path class="cls-4" d="M432.2,543.42c0,.16.09,2.15-.73,2.88"/><path class="cls-8" d="M469.24,501.54s-4.95,4.38-7,8.62,0,9,7.45,10.24c0,0-7.17,4.59-6.39,9.82s5.86,7.13,5.86,7.13-7.49,4.45-1.13,11.3c0,0-1.09,5.64-6,8.33s-3.58,5.06.4,4.17,5.29-2.79,5.29-2.79,1.53,7.11,4.27,1.08c0,0,5.11,6.62,5-3.34,0,0,4.36-2.5-1.67-7.6,0,0,5.44-5.79-.1-11,0,0,11.09-8.64.93-16.78,0,0,13.39-7.74-2.32-19.75Z"/><path class="cls-4" d="M473.29,512.1s1.54,3.19,0,5.71"/><path class="cls-4" d="M476.38,517.61c1.7-2.42.29-5.51.29-5.51"/><path class="cls-4" d="M472.41,531a5.53,5.53,0,0,1-.25,4.38"/><path class="cls-4" d="M475.45,531a3.92,3.92,0,0,1-.51,3.25"/><path class="cls-4" d="M472.46,544.24s.61,1.75,0,2.73"/><path class="cls-4" d="M474.63,543.52a3.83,3.83,0,0,1,0,2.78"/><path class="cls-8" d="M442.75,496.38s-5.47,13-12.65,5.81c0,0-4.34,2.51-5-3.19a7.75,7.75,0,0,0-4.1,2.74s2-5.37.55-9.09c0,0-9.06.9-6.46-13.3a2.36,2.36,0,0,0-2.46.45s.6-3,5-4.09,4.76-4.24,4.76-4.24a7.28,7.28,0,0,1-3.57-3s4.91,0,5.65-4.61,3.34-6.76,6.39-7a2.91,2.91,0,0,0,.45-3.27s2.45,2.52,8.32,1.41a6.15,6.15,0,0,0-3.49-3.35,11.31,11.31,0,0,1,10.33.67s3.05-4,11.07-4.31a8.86,8.86,0,0,0-.37,4.24s5.36-3.72,9.48-2.08,1.94,6.31,6.67,8.1,6.37,4.38,6.22,10.4,1.41,8.7,4.31,10.41c0,0-2.9.89-3.86,2.75,0,0,9.36,5.2,3.49,9.58,0,0-1,10.85-9.59,9.52,0,0-7.5,5.35-11.52-6.47Z"/><circle class="cls-5" cx="450.93" cy="484.92" r="15.68"/><ellipse cx="443.5" cy="489.3" rx="0.72" ry="1.72" transform="translate(-42.53 42.22) rotate(-5.2)"/><ellipse cx="448.44" cy="489.05" rx="0.72" ry="1.72" transform="translate(-42.49 42.67) rotate(-5.2)"/><path class="cls-4" d="M468.87,494.78s-.51,3.05,1.71,4.57"/><path class="cls-4" d="M473.69,494.78s.19,2.6-.82,3.68"/><path class="cls-4" d="M475.4,498.46a5,5,0,0,0,2.54-3.42"/><path class="cls-4" d="M429.74,497.07a6.12,6.12,0,0,1,1,3"/><path class="cls-4" d="M434.32,497.07a5.7,5.7,0,0,1-.18,3.26"/><path class="cls-8" d="M444,463s-5.55-2.44-8.21,1.66.66,15.65-9.32,17.42c0,0,1.54,1.53,5.75,1.19,0,0-.26,2.56-2,3.56,0,0,13.26.91,16.15-8.63,0,0,1.74,6.62,9.86,5.56a8.28,8.28,0,0,1-.91-3.17s6.29,9.39,18-1.23c0,0-6.15.09-5.59-4.46S468.75,465.3,465,463s-8.75-.5-11.08,1.9c0,0,1.41-3.88-1.06-4.3-2.65-.46-3.26,3.17-3.26,3.17"/></svg>