<?xml version="1.0" encoding="utf-8"?>
<!-- Generator: Adobe Illustrator 22.1.0, SVG Export Plug-In . SVG Version: 6.00 Build 0)  -->
<svg version="1.1" id="圖層_1" xmlns="http://www.w3.org/2000/svg" xmlns:xlink="http://www.w3.org/1999/xlink" x="0px" y="0px"
	 viewBox="0 0 709.6 945.2" style="enable-background:new 0 0 709.6 945.2;" xml:space="preserve">
<style type="text/css">
	.st0{fill:#E2545B;stroke:#000000;stroke-width:0.43;stroke-linejoin:round;stroke-miterlimit:10;}
	.st1{fill:#CEE5CA;stroke:#000000;stroke-width:0.43;stroke-linejoin:round;stroke-miterlimit:10;}
	.st2{fill:none;stroke:#000000;stroke-width:0.43;stroke-linejoin:round;stroke-miterlimit:10;}
	.st3{fill:#FFF5E6;stroke:#000000;stroke-width:0.43;stroke-linejoin:round;stroke-miterlimit:10;}
	.st4{fill:#2E8E89;stroke:#000000;stroke-width:0.43;stroke-linejoin:round;stroke-miterlimit:10;}
	.st5{fill:#F7D5BC;stroke:#000000;stroke-width:0.43;stroke-linejoin:round;stroke-miterlimit:10;}
	.st6{fill:#FFF5E6;}
	.st7{fill:#FFFFFF;stroke:#000000;stroke-width:0.43;stroke-linejoin:round;stroke-miterlimit:10;}
</style>
<g>
	<g>
		<path class="st0" d="M529.8,28.1c4.3,0.7,2.5,107.8,4.9,153s3.7,92,3.7,92l-11.7,1.4c0,0,0-61.2,1.8-102.2
			C530.6,119.8,523.9,27.1,529.8,28.1z"/>
		<path class="st1" d="M526,39.1c3.4-1.9,7.1,10.3,0.3,11.8c0,0,0.6,21.4-9.7,14.6c0,0-1.5,12.3-7.7,17.9c-6.2,5.5-12-0.3-13.6-2.1
			c-2,5.2-10.3,11.6-13.6,5.6c-4-7.2,8.8-13,23.7-25.6C520,48.8,522.1,41.3,526,39.1z"/>
		<path class="st1" d="M530.8,64.8c2.8-0.6,11.3,15.2,30.5,26.7c19.7,11.8,25.2,14.4,25.2,18.9c0,4.5-11.4,13-17.4-0.5
			c0,0-1.8,7.1-8,6.8c-7.2-0.3-14.6-9.1-16.4-16.4c0,0-6.5,4.7-11.7-1c-4.4-4.7-2.3-14.1-0.2-16.6C527.7,80.9,524.7,66.2,530.8,64.8
			z"/>
		<path class="st2" d="M531.8,42.9c0,0,9.4,15.2,23.6,22.7"/>
		<path class="st2" d="M542.3,55.7c0,0-0.1,9.8,8.7,14.1"/>
		<path class="st2" d="M527.7,78.3c0,0-7.7,17.3-29.9,31.1"/>
		<path class="st2" d="M514.9,95.7c0,0,0.6,6.4-2.5,9.9"/>
		<path class="st3" d="M526.7,108.3c4.3-0.2,8.2,19.2-2.7,22.1c4.7,6.1,1.4,36.5-16.4,34.6c0,0-1.5,16-10.9,20.5
			s-15.8-5.8-15.3-12.9c0,0-1.8,10.9-8.2,10.2c-6.4-0.7-10.5-10.1-4.4-14.3c11.3-7.9,20.3-16.5,33.9-29.6
			C524,118.3,523.3,108.4,526.7,108.3z"/>
		<path class="st2" d="M533.2,121.1c0,0,26.7,31.9,57.4,43.6"/>
		<path class="st2" d="M549.4,137.6c0,0-3.5,13.7,10.5,26.2"/>
		<path class="st3" d="M566.8,150.5c0,0-3.2,5.8-1.7,9.9c1.5,4.1,6.5,3.7,6.5,3.7s-0.5,4.3,3.7,6.3c4.1,2,7.7-2.4,7.7-2.4
			s7.7,9,11.5,3.4c1.8-2.7,1.4-5.2-9.6-10.3C577.4,157.6,566.8,150.5,566.8,150.5z"/>
		<path class="st2" d="M528.5,167c0,0-4.1,12.1-20.2,24.7"/>
		<path class="st2" d="M517.9,182.9c0,0,1.8,7.1-3.2,12"/>
		<path class="st1" d="M532.7,163c3.7-1.7,4.9,12.4,39.1,33.8c33.6,21.1,46.3,21.4,43.7,30.3c-2.6,8.7-15.1-1-15.1-1
			s-0.4,12.2-13.4,12.8c-13.1,0.6-22.3-17-24-24.5c0,0-2.5,6.4-9.1,3.9c-7.4-2.8-12.1-14.8-10.2-23.5c0,0-16-4-9.4-20.6
			C532.4,172,529.3,164.5,532.7,163z"/>
		<path class="st1" d="M526.6,196.1c3.6,0.1,6.1,7.4,1.7,12.6c-0.1,0.3,8,8.5,0.8,22.9c-5.1,10.1-12.6,10.7-12.6,10.7
			s-4.1,21-14.6,12.8c0,0-1,32-18.1,16.3c0,0-6.9,18.2-16.6,9.1s10.9-19.9,29.4-43.2C520,207.9,521.3,195.9,526.6,196.1z"/>
	</g>
	<g>
		<path class="st0" d="M226.3,92.2c5.8,0.6,2.4,188,3.9,225.2s6.9,172.3,3.2,212.3l-8.9-0.5c0,0-1.6-184.4-1.4-236.2
			S218,91.3,226.3,92.2z"/>
		<path class="st3" d="M227.3,101.9c2.4-0.3,7.9,10.8,20.9,20.3c10.7,7.9,17.5,8.7,20.8,12.4c3.3,3.7,1.9,9.7-2.9,9.5
			c-4.7-0.1-5.9-5.6-5.9-5.6s0,4.8-4.7,4.6c-4.7-0.2-9.9-6.7-10.2-13.5c0,0-3.2,3.2-6.7,1.2c-3.5-2-5.6-6.8-5.4-11.7
			c0,0-5.9-1.2-4.9-9.6C228.2,109.6,224.9,102.2,227.3,101.9z"/>
		<path class="st1" d="M224.7,115.5c2.4,0.1,5.4,11.6-0.6,11.4c0,0,1.3,19.2-7.9,14.3c0,0,0.8,11.1-6.4,13.9
			c-7.3,2.8-10.9-4.4-11.2-6.4c0,0-1.4,6.1-6.4,7.1c-5.1,0.9-8-4.7-5.5-8.5c2.5-3.7,12.4-7.1,23-15.8
			C222.1,121.2,222.6,115.5,224.7,115.5z"/>
		<path class="st2" d="M229.5,139.3c0,0,13.3,16,35.2,31.1"/>
		<path class="st2" d="M247.9,157.4c0,0-0.3,16.7,19.5,25.6"/>
		<path class="st1" d="M228.5,158.3c1.8,0.9,19.3,34.9,56.1,53.4c2,1,3.2,3.2,2.9,5.4c-0.4,3.2-1.9,7.4-7.1,8.5
			c-8.8,1.8-13.3-8.7-13.3-8.7s-1.2,8.4-9.9,7.8s-16-17-16.8-25.9c0,0-6.4,4.8-11-7c-4.6-11.8,1.2-17,1.2-17s-3.9-3.4-4.5-9.8
			C225.5,159.4,227.3,157.8,228.5,158.3z"/>
		<path class="st2" d="M221.7,154.4c0,0-10.1,12.9-22.4,19.1"/>
		<path class="st2" d="M214.1,162.5c0,0,2.2,6.9-5.3,14.3"/>
		<path class="st1" d="M221.8,178.2c2.5-0.5,5,5.7,1.5,8.3c0,0,0.7,12.7-9.8,11.9c0,0,1,9.7-3.6,13.7c-3.7,3.1-7.2-0.8-7.5-3.2
			c0,0-4.1,7.9-11.2,8.6c-8.3,0.8-10.1-7.7-10.1-7.7s-2.3,3.9-5.8,2.8c-3.5-1.1-3.9-4.5-2-5.9c1.9-1.4,16.8-6.3,26.9-12.3
			C215.9,185,219.4,178.7,221.8,178.2z"/>
		<path class="st2" d="M229.8,214.2c0,0,19.9,22.9,39.4,34.2"/>
		<path class="st2" d="M249,233.3c0,0-1.5,9.7,15.4,20.3"/>
		<path class="st1" d="M230.7,231.1c3.3,1.2,8.4,17.8,37.5,38.6s34.9,20.9,41.1,27.5s-0.8,16.3-11.9,7.5c0,0,0.7,14.3-8.7,14.4
			s-17.2-13.9-18.9-20.9c0,0-1.9,5.3-7.2,3.3c-6.2-2.3-9.5-10.9-8.8-19.9c0,0-8.4,1.2-13.2-10.9c-3.8-9.6-1.3-16.2-1.3-16.2
			s-7.7,0.4-10.2-7.8C226.1,237.2,228.5,230.3,230.7,231.1z"/>
		<path class="st2" d="M222.3,224.3c0,0-6.8,11.1-20.4,17.9"/>
		<path class="st2" d="M212,235.6c0,0,2.9,2.4-5.1,10.6"/>
		<path class="st2" d="M229.9,303.3c0,0,29.7,28.4,69.7,47.4"/>
		<path class="st2" d="M248.7,319.1c0,0-2.9,9.4,11.7,18.2"/>
		<path class="st3" d="M270.3,333c-1.8,0.3-2.4,5.7,1.7,13.3c5.2,9.6,9.2,1.4,9.2,1.4s9.8,17.1,13.6,7c0,0,8.5,8.3,11.3,4
			c2.7-4.2-8.6-9.8-17.1-15C280.6,338.6,272.6,332.6,270.3,333z"/>
		<path class="st1" d="M229.2,316.1c4.3,0.2,8.9,19.7,48.9,53.7s45.3,34,50.9,44.8c5.6,10.8-5.3,17.5-15.8,5.6c0,0-0.8,8.5-10.4,6.4
			s-16.6-14.7-19.1-29.7c0,0-10,6.4-21.2-0.7c-11.2-7.1-27.3-32.2-28.3-60.3c0,0-5.7-2.1-7.2-9.2C225.7,320,227.6,316,229.2,316.1z"
			/>
		<path class="st3" d="M222.6,248.2c2.2,2.3,3.3,9.9-6.8,16.4c0,0,3.8,15-10.8,17.3c0,0-7.1,14-14.9,21.7
			c-7.8,7.7-14.8,3.7-13.6-3.6c0,0-10,3-10.4-3.3s8.5-9.4,19.7-18.4c12.6-10.2,19.2-17.2,34.6-30.2
			C221.1,247.6,222.1,247.6,222.6,248.2z"/>
	</g>
	<g>
		<path class="st0" d="M461.4,71.9c3.6,0,2.8,62.1,2.6,90.6s-0.5,71.2-0.8,117s-4.8,81.6,1,129.7l-8.7,3.4c0,0-2.1-39.4-4.1-85.3
			c-2-45.9,2.4-101.2,3.8-123.6C459.5,138.5,458.1,71.9,461.4,71.9z"/>
		<path class="st1" d="M461,100.4c1.6-0.1,4,7.1,16.1,16.2c4.1,3.1,13.9,7.1,14.3,11.2c0.5,5.3-5.1,6-7.9,0.5c0,0-0.8,2.9-3.1,3.4
			s-6.2-0.6-6.6-7.9c0,0-6.4,5-7-9.4c0,0-4.7,0.7-6.4-4.7C458.9,105,459.7,100.4,461,100.4z"/>
		<path class="st1" d="M460,81.1c2.2-0.2,3.3,7.3-0.6,8.8c0,0-1.9,22.6-8.4,13.8c0,0-1.9,12.6-6.6,13.8c-4.8,1.2-4.7-6.2-4.7-6.2
			s-1.5,10.1-6.5,10.3s-4.6-8.3,0.8-11.9c6.3-4.2,14.9-12.7,19.1-18.6C457.4,85.2,458.4,81.2,460,81.1z"/>
		<path class="st2" d="M458.7,112.4c0,0-7.4,11.5-23.1,17.6"/>
		<path class="st2" d="M449.1,122.3c0,0,5.7,4.2-8,14.1"/>
		<path class="st1" d="M460.2,128.6c3.6,0.1,7.5,17.1,0.5,18.1c0,0-4,31.5-14.5,17.8c0,0,0.2,13.9-8.3,18.1
			c-8.5,4.2-11.4-3.7-11.2-10.1c0,0-3,13.9-13.2,13.2s-10.9-15.2-3.6-19.5s20.5-10,33.1-21.1C457.4,132.5,457.5,128.6,460.2,128.6z"
			/>
		<path class="st2" d="M464.2,137c0,0,10.3,17.5,34.3,28.2"/>
		<path class="st2" d="M477.2,151.7c0,0-10.1,7,18.5,23.1"/>
		<path class="st1" d="M459.2,170.6c3.4,0,6.5,15.6,28.3,31.7s26.8,15.6,29.2,21.5c2.4,6-3.5,19.3-16.2,2.2c0,0-2,10.9-11.2,9.5
			c-9.2-1.4-15.3-12.2-16.1-21.1c0,0-1.2,4.2-5,2.6s-9.2-11.9-4.5-24.2c0,0-6.2-2.6-7.3-10.3S456.1,170.6,459.2,170.6z"/>
		<path class="st2" d="M456.4,182.5c0,0-17.4,23-45,32.5"/>
		<path class="st2" d="M445.7,194c0,0,7.8,1-5.1,16.5"/>
		<path class="st3" d="M438.3,200.4c0.6,2,1.3,6.9-3.7,8.9c0,0-0.4,5.6-2.6,9.2c-2.2,3.5-5.8,2.2-6.1-0.4c0,0-3.6,6.4-7.3,7.3
			c-3.7,0.9-4.8-3.5-3.2-5.6c0,0-4,4.4-6.8,3.4c-3.2-1.1-2.6-5.9,1.2-7.8c3.8-1.8,18.5-7.7,27.6-15.3
			C437.6,199.8,438.2,200,438.3,200.4z"/>
		<path class="st2" d="M463.5,226c0,0,8.3,29.3,47.6,39.2"/>
		<path class="st2" d="M478.4,248c0,0-6.4,8.4,17.3,18.9"/>
		<path class="st2" d="M452.1,253.8c0,0-9.4,14.3-23.6,23.4"/>
		<path class="st2" d="M441.5,266.5c0,0,6,2.7-3.6,12"/>
		<path class="st1" d="M453.2,213c3.7-0.5,6.5,14.2,0.3,16.3c0,0,4.2,10.4-4.2,13.8c0,0-6.8,26.2-17.6,17.3c0,0-6.4,16.8-16.2,22.2
			c-11.3,6.3-12.6-8.7-12.6-8.7s-9.5,7.3-12.2-1.1c-2.7-8.4,5.2-9.6,18.3-18.4C447.7,228.4,450.2,213.4,453.2,213z"/>
		<path class="st1" d="M453.8,264c4.1-0.5,5.9,13.5,28.2,30.2c21,15.7,33.4,18.7,33.1,25.3c-0.4,6.5-11,10.3-17.8-1.2
			c-1.3,0.9-5.9,7.2-12.5,5.8C478,322.7,476,313,476,313s-1.1,5-5.4,4.1c-4.3-0.9-12.6-8.5-10.1-22.2c0,0-10.1-4.2-7.1-20.8
			c0,0-1.8-0.6-2.4-4.1C450.6,266.9,452.2,264.2,453.8,264z"/>
		<path class="st1" d="M452.5,291c3.4-2.3,6.4,3.7,3.1,6.6c0,0,2.3,17.5-6.5,16.4c0,0-1.1,11.6-6.5,18.2c-5.1,6.2-8.6-1.4-8.6-1.4
			s-0.8,17.3-12.3,21.9C409.1,357.8,407,342,407,342s-5.3,13.3-15.5,10.4c-2.8-0.8-4.2-2.9-5-5.3c-1.8-6,1.6-12.4,7.3-14.8
			c7.2-3.1,18.4-9.3,29.7-17C442.2,302.7,448.8,293.4,452.5,291z"/>
		<path class="st2" d="M451.8,338c0,0-12.4,23.8-30.9,43.3"/>
		<path class="st2" d="M441.7,354.8c0,0,6.8,0.1-3.3,21.9"/>
		<path class="st1" d="M455.1,342.1c5.1-1.1,21.4,25.8,46.5,32.7s16.7,27.8-1,26.1c0,0-19.4,9.4-23.9-15.4c0,0-15.8-6.7-17.1-29.9
			c0,0-2.9,0-5.1-3.7C452.3,348.1,452.1,342.8,455.1,342.1z"/>
		<path class="st2" d="M462.2,318c0,0,10.7,18.2,37.6,30.8"/>
		<path class="st2" d="M474.2,331.9c0,0-5.3,7.8,10.4,15.2"/>
		<path class="st1" d="M489.7,343.4c0,0-1.5,4.3,0.8,8.6c1.9,3.6,5.1,2.6,5.3,0.9c0,0,5.6,5.5,8.1,1.8
			C506.2,351.4,499.2,347.2,489.7,343.4z"/>
		<path class="st3" d="M435.1,367.5c0.2,1.1-0.1,2.3-1.6,3.2c0,0,2,9.2-3,8.4c0,0-0.2,7.3-3.3,9.4s-4.2-3-4.2-3s-1.2,6.5-3.8,4.8
			c-2.6-1.7-2.6-7.1,2.3-11.6c3.8-3.5,8.3-9.1,10.7-12C433.1,365.7,434.9,366.2,435.1,367.5z"/>
		<path class="st1" d="M454.5,375.1c4.3,1.5,6.5,64.3-20.9,48.8c0,0,0.4,9.5-5.8,20.5c-6,10.7-16.3,8.5-17.6,1.3
			c0,0-2.9,9.1-10.1,5.8c-7.2-3.3-8.5-16.2-1.6-20.5c6.9-4.3,16.2-10.1,30.7-25C445.7,389.2,451.5,374,454.5,375.1z"/>
		<path class="st3" d="M483.4,259.8c0,0-2,9,4,9.3c0,0,2.7,6.8,9,2c0,0,3.6,2.3,4.5,0C502,268.2,493.4,265.2,483.4,259.8z"/>
	</g>
	<path class="st0" d="M64.8,799.1c0,0,11.2,11.6,21.6,34c10.3,22.4,21,37.3,41,45.9s54.8,16.2,77.3,19.7s36.9,6.9,60,17.2
		c23.1,10.3,57.3,19,103.1,12.8s59-20.7,91.4-30.4s52.1-14.6,94.2-33.4c42.1-18.7,42.2-15.7,58.4-29.6c16.2-14,20.6-17,28.4-28
		c7.8-11,15.4-34.1,14.4-49.7c0,0-178.6-35.6-175.7-35.6c2.9,0-239.8,23.2-239.8,23.2L64.8,799.1z"/>
	<path class="st1" d="M74.1,778.1l10-6.8L289,673.8h274.9c0,0,41.8,8.8,67.8,36.6s33.8,57.4,3,86c-30.8,28.6-67.6,23.5-111.1,41
		s-66.3,26.4-107.3,32.6s-93.4-16.3-114.7-19.4c-21.3-3.1-87.7-12.1-110.8-14.7c-23.1-2.6-78.8-5.3-95.8-18.3s-31.8-14.8-32.6-23.5
		C61.6,785.5,74.1,778.1,74.1,778.1"/>
	<path class="st4" d="M219.9,735.1c2.9,5.4,63.2,46.9,63.2,46.9s38.1,16.1,45.2,20.4s45.5,8.4,45.5,8.4l69.9-30.1l29.3-24.6
		c0,0,37.9-43.6-25.6-75.2c0,0-111.5-4.2-146.1,3.5c-23.2,5.2-80.2,35.4-80.2,35.4L219.9,735.1z"/>
	<g>
		<g>
			<path class="st2" d="M304.5,430.1c0,0-18.4,16.2-24.3,53.9"/>
			<path class="st2" d="M304.5,437c0,0-5,1.2-8.7,3.8"/>
			<path class="st2" d="M306,442.3c0,0-9.3,2.4-14.7,6.5"/>
			<path class="st2" d="M303.8,451.7c0,0-11.9,3-17.8,9.5"/>
			<path class="st2" d="M303.8,458.7c0,0-13.1,3.2-20.6,11.4"/>
			<path class="st2" d="M303.8,469.3c0,0-11.4,0.3-22.2,7.6"/>
			<path class="st2" d="M297.1,476.8c0,0-11,1.9-16.5,4.9"/>
		</g>
		<g>
			<path class="st2" d="M339.1,469.3c0,0-26,2.4-46.4,39"/>
			<path class="st2" d="M334.5,475.6c0,0-3.2-2.1-7.7-2.3"/>
			<path class="st2" d="M331.5,482.2c0,0-5.8-3.6-13.6-3.6"/>
			<path class="st2" d="M327.8,488.1c0,0-8-4.3-16.9-3.6"/>
			<path class="st2" d="M324.8,494.9c0,0-9.9-5.9-19.4-4.8"/>
			<path class="st2" d="M321.9,501.3c0,0-8.2-5.7-21.1-5.5"/>
			<path class="st2" d="M319.1,510.4c0,0-9.1-6.6-23.2-7.5"/>
		</g>
		<path class="st3" d="M158.9,443.9c11.4,0.3,17.7-7.4,25.6-0.9c10.4,8.6,8.6,27.3,19.2,27.3c9.2,0,6.5-15.4,22.9-16.4
			c14.4-0.8,30.5,2.9,40.7-15.3c-5.6-19.4-12.8-32.6-21.6-38.3c-11.1-7.2-12-31.4-17-57.5c-5-26.1-20.8-38.2-33.9-27.5
			c-16.6,13.4-23.3,53.7-32.4,73.9c-4.5,10-9.3,28.9-14.2,48C150.6,440.7,154.2,443.8,158.9,443.9z"/>
		<path class="st5" d="M335.1,656c-14.6-17.9-30.3-75.6-34.3-103.4c-3.9-27.8-23.4-69.1-29.5-97.6c-1.3-5.9-2.6-11.4-4.1-16.5
			c-10.2,18.2-26.2,14.4-40.7,15.3c-16.4,1-13.7,16.4-22.9,16.4c-10.5,0-8.7-18.7-19.2-27.3c-7.9-6.5-14.2,1.2-25.6,0.9
			c-4.7-0.1-8.3-3.1-10.9-6.6c-5,19.7-10,39.7-14.8,51c-9.5,22.2-21.2,74.5-26.6,134.2c-5.4,59.7,15.6,66.7,61.9,77.7
			s40.7,22.3,111.3,2.4C350.4,682.6,349.7,673.9,335.1,656z"/>
		<g>
			<g>
				<g>
					<g>
						<g>
							<path class="st6" d="M300.1,501.6c0,0,6.4-6.2,14,2.3C321.7,512.3,294,520.3,300.1,501.6z"/>
							<path class="st2" d="M300.1,501.6c0,0,6.4-6.2,14,2.3C321.7,512.3,294,520.3,300.1,501.6z"/>
						</g>
						<g>
							<path class="st6" d="M309.1,505.5c0,0,7.7-5.7,10.3,3.8c2.6,9.5-0.4,19.9,3.5,33.5c3.8,13.6-10.3,27.4-19.7,24.8
								S309.1,505.5,309.1,505.5z"/>
							<path class="st2" d="M309.1,505.5c0,0,7.7-5.7,10.3,3.8c2.6,9.5-0.4,19.9,3.5,33.5c3.8,13.6-10.3,27.4-19.7,24.8
								S309.1,505.5,309.1,505.5z"/>
						</g>
						<g>
							<path class="st6" d="M295.5,569.4c8.1,0,18.6-5.8,18.6-21.3c0-15.6-3.4-24.8-1.9-30.4c1.4-5.6-1.4-18.1-16.7-15.7
								c-15.3,2.3-15.4,19.6-15.4,36.5C280.1,555.2,279.6,569.4,295.5,569.4z"/>
							<path class="st2" d="M295.5,569.4c8.1,0,18.6-5.8,18.6-21.3c0-15.6-3.4-24.8-1.9-30.4c1.4-5.6-1.4-18.1-16.7-15.7
								c-15.3,2.3-15.4,19.6-15.4,36.5C280.1,555.2,279.6,569.4,295.5,569.4z"/>
						</g>
					</g>
				</g>
				<path class="st3" d="M294.4,569.4c-7.1-4.5-6.5-16.2-6.5-16.2"/>
				<path class="st3" d="M293,543.6c0,0-1.7,19.8,3.3,25.7"/>
				<path class="st3" d="M298.9,553.7c0,0,0.7,11.7-1.3,15.6"/>
			</g>
			<g>
				<g>
					<g>
						<g>
							<path class="st6" d="M248.9,494.2c0,0,6.4-6.2,14,2.3C270.5,504.9,242.8,512.9,248.9,494.2z"/>
							<path class="st2" d="M248.9,494.2c0,0,6.4-6.2,14,2.3C270.5,504.9,242.8,512.9,248.9,494.2z"/>
						</g>
						<g>
							<path class="st6" d="M257.9,498.1c0,0,7.7-5.7,10.3,3.8s-0.4,19.9,3.5,33.5c3.8,13.6-10.3,27.4-19.7,24.8
								C242.5,557.6,257.9,498.1,257.9,498.1z"/>
							<path class="st2" d="M257.9,498.1c0,0,7.7-5.7,10.3,3.8s-0.4,19.9,3.5,33.5c3.8,13.6-10.3,27.4-19.7,24.8
								C242.5,557.6,257.9,498.1,257.9,498.1z"/>
						</g>
						<g>
							<path class="st6" d="M244.2,562c8.1,0,18.6-5.8,18.6-21.3s-3.4-24.8-1.9-30.4c1.4-5.6-1.4-18.1-16.7-15.7
								s-15.4,19.6-15.4,36.5S228.4,562,244.2,562z"/>
							<path class="st2" d="M244.2,562c8.1,0,18.6-5.8,18.6-21.3s-3.4-24.8-1.9-30.4c1.4-5.6-1.4-18.1-16.7-15.7
								s-15.4,19.6-15.4,36.5S228.4,562,244.2,562z"/>
						</g>
					</g>
				</g>
				<path class="st3" d="M243.2,562c-7.1-4.5-6.5-16.2-6.5-16.2"/>
				<path class="st3" d="M241.7,536.2c0,0-1.7,19.8,3.3,25.7"/>
				<path class="st3" d="M247.7,546.3c0,0,0.7,11.7-1.3,15.6"/>
			</g>
			<g>
				<g>
					<g>
						<g>
							<path class="st6" d="M262.2,438c0,0,6.4-6.2,14,2.3S256.2,456.7,262.2,438z"/>
							<path class="st2" d="M262.2,438c0,0,6.4-6.2,14,2.3S256.2,456.7,262.2,438z"/>
						</g>
						<g>
							<path class="st6" d="M271.2,441.9c0,0,7.7-5.7,10.3,3.8c2.6,9.5-0.4,19.9,3.5,33.5c3.8,13.6-10.3,27.4-19.7,24.8
								C255.8,501.4,271.2,441.9,271.2,441.9z"/>
							<path class="st2" d="M271.2,441.9c0,0,7.7-5.7,10.3,3.8c2.6,9.5-0.4,19.9,3.5,33.5c3.8,13.6-10.3,27.4-19.7,24.8
								C255.8,501.4,271.2,441.9,271.2,441.9z"/>
						</g>
						<g>
							<path class="st6" d="M257.6,505.8c8.1,0,18.6-5.8,18.6-21.3c0-15.6-3.4-24.8-1.9-30.4c1.4-5.6-1.4-18.1-16.7-15.7
								c-15.3,2.3-15.4,19.6-15.4,36.5C242.2,491.6,241.7,505.8,257.6,505.8z"/>
							<path class="st2" d="M257.6,505.8c8.1,0,18.6-5.8,18.6-21.3c0-15.6-3.4-24.8-1.9-30.4c1.4-5.6-1.4-18.1-16.7-15.7
								c-15.3,2.3-15.4,19.6-15.4,36.5C242.2,491.6,241.7,505.8,257.6,505.8z"/>
						</g>
					</g>
				</g>
				<path class="st3" d="M256.5,505.8c-7.1-4.5-6.5-16.2-6.5-16.2"/>
				<path class="st3" d="M255.1,480c0,0-1.7,19.8,3.3,25.7"/>
				<path class="st3" d="M261,490c0,0,0.7,11.7-1.3,15.6"/>
			</g>
		</g>
		<path class="st3" d="M196.3,475.7c4.2,0,3.1,20-1.3,19.4C191.2,494.7,192.6,475.7,196.3,475.7z"/>
		<path class="st3" d="M283.5,596.8c6.6-2.2,7.3,14.6,11.5,20.4c4.3,5.9,16.4,26.2,14.1,29.3c-2.3,3-6,1.8-9.3-5
			c-3.2-6.8-9.9-14.4-13.6-20.2C282.1,614.9,278.2,598.6,283.5,596.8z"/>
	</g>
	<g>
		<path class="st3" d="M464.8,410.9c12.6-12.6,28.2-54.2,39.3-52.8c11,1.4,5.6,20.4,19.1,18.4s13-48.9,22.7-50.9s7.5,23.9,16.6,24.4
			c6.3,0.3,11.4-0.6,16.3,3.4c-8.9-41.6-17.5-72-21.5-82.8c-11.5-30.5-34.7-33.7-41.1-14.7c-18.4,54.5-23.3,96.5-47.2,125.7
			c-8.5,10.4-13.8,21-17.3,32.9C455.9,415.7,460.5,415.2,464.8,410.9z"/>
		<path class="st5" d="M596.1,458.5c-5.2-39.3-10.8-74.7-17.3-105.1c-4.9-4-9.9-3-16.3-3.4c-9.2-0.5-7-26.3-16.6-24.4
			s-9.2,48.9-22.7,50.9s-8.1-17-19.1-18.4c-11-1.4-26.7,40.2-39.3,52.8c-4.3,4.3-8.9,4.8-13.2,3.5c-7.6,26.1-21.5,56.6-24.4,108.5
			c-3.3,58.6-15.9,78.5-35.5,117.5c-0.6,1.1-1.3,2.2-2,3.1c3.6,3.2,9.8,9.5,13.4,17.4c5.6,12.3,15.8,29.7,22.5,38.4
			c24.4-0.1,50.4-3.9,63.6-8.9c32.7-12.3,101.8,26.4,112.2,0C611.8,664.1,608.3,551.5,596.1,458.5z"/>
		<path class="st5" d="M389.7,643.5c-0.4,0.6-0.9,1.1-1.4,1.6c1.8,1.8,6.7,7.3,12.1,18.6c6.2,13.2,7.8,27,12.1,35.2
			c4.3,0.3,8.7,0.4,13.2,0.4c-6.7-8.7-16.9-26.1-22.5-38.4C399.6,653.1,393.3,646.8,389.7,643.5z"/>
		<path class="st5" d="M383.9,649.3c-6.3,5.7-13.6,12.2-14.8,27.8c-1,11.9,13.2,18.2,32.4,20.8c-3.4-7.3-4.9-18.1-8-28.5
			C390.2,658.3,385.9,651.9,383.9,649.3z"/>
		<path class="st5" d="M386.4,647.1c-0.8,0.8-1.6,1.5-2.5,2.3c2,2.6,6.3,9,9.6,20.1c3.1,10.4,4.6,21.2,8,28.5c2,0.3,4,0.5,6,0.7
			c-4.6-8.8-8.3-23.1-11-32C393.4,656,388.2,649.2,386.4,647.1z"/>
		<path class="st5" d="M388.3,645.1c-0.6,0.7-1.2,1.3-1.9,1.9c1.8,2.1,7,9,10.1,19.5c2.7,9,6.3,23.2,11,32c1.6,0.1,3.3,0.3,5,0.4
			c-4.2-8.2-5.8-22-12.1-35.2C395,652.4,390.1,646.9,388.3,645.1z"/>
	</g>
	<g>
		<g>
			<path class="st0" d="M274.1,615.3c0,0-8.9-1.6-12,5.6c-3.1,7.2,4,15.7,12.9,9.1c0,0,9.5,2.8,13.2-5.4
				C292,616.4,283,608.2,274.1,615.3z"/>
			<path class="st4" d="M273.6,611.4c0,0-3.9,2.3-7.9,3.6c0,0,1.1,6,7.4,3.2c0.5,1.2,0.5,2.5,2.2,3.2c0,0,1.1-2.5,1.5-5
				c0,0,4.7,1,5.7-3.2C282.5,613.2,275.6,610.4,273.6,611.4z"/>
			<path class="st0" d="M270.9,641.5c0,0,10.5-1.7,13.2,6.7c2.7,8.4-4.6,13.9-11.9,11.2c0,0-3.3,3.3-8,1.4
				c-4.7-1.9-8.3-7.5-5.5-13.4C261.9,640.8,270.9,641.5,270.9,641.5z"/>
			<path class="st4" d="M269.4,640.8c0,0-1.8,3.8-7,4c0,0,1.9,4.5,7.3,3c0,0,0.1,4,5.6,4.8c-0.5-1.3-1-3.8-0.5-5.5
				c0,0,4.6,1.3,6.4-1.1C281.1,646,275.3,640.1,269.4,640.8z"/>
			<path class="st0" d="M287.6,588.5c0,0,3.6-6.1,10.6-3.6s8.5,15.4-3.8,17.5c-0.5,0.6-2.6,5.9-9.1,3.9c-6.1-1.9-5.2-13.8,1.1-15.6
				C286.5,590.6,286.6,589.7,287.6,588.5z"/>
			<path class="st1" d="M279.2,568.3c1.8,0.7-2.3,12.8,0,20.6l-4.5,3.7c0,0-1.1-5.7,0-13.4S277.7,567.7,279.2,568.3z"/>
			<path class="st1" d="M217.1,611.3c0,0,5.7-1.2,12.8-5.9c7-4.7,8.2-6.3,9.4-5.3c1.2,1.1-1.3,5.9-12.2,11.9
				c-10.9,6.1-12.5,4.6-12.5,4.6L217.1,611.3z"/>
			<path class="st0" d="M230.3,577.3c0,0,1.4-3.8,7.7-3.8s11.3,5.8,9.9,11.8c-1.4,6-7.4,8.9-12.9,8.1c0,0-3.7,4.9-9,3.9
				c-5.4-1-7.6-5.7-6.9-11C219.8,581.3,224.7,577,230.3,577.3z"/>
			<path class="st0" d="M206.3,583.9c0,0,12,3,8.3,13.6c-3.8,10.9-17.2,7.9-18.9-0.9c0,0-7.7-3.6-5.7-11.1
				C192,578,202.5,575.8,206.3,583.9z"/>
			<path class="st1" d="M191.7,658.6c0,0,10.9-11.7,15.2-33.7s7.9-37.9,7.9-37.9s-8.8-5.5-14.1-21.8c-5.4-16.3-4.7-17.9-3.3-17.7
				c1.9,0.3,10.3,27.4,18.6,31.4c0,0,7-28.3,11.9-26.6c4.8,1.7-5.7,21.7-5.8,37.8c-0.1,16.1-6.9,25.6,0.6,32
				c7.5,6.4,21.6-6.4,21.6-6.4s5.6-32.6,9.3-31.8c3.7,0.9-5.8,21.3-5.3,31.1c0,0,13-9.1,18.7-16.4c5.7-7.3,10.9-9.8,15-14.7
				c4.1-4.9,6.9-9.5,8.6-8.9s-3.9,11.2-10.6,21.2c-6.6,10-24.4,25-25.3,29.4c0,0,3.8,6.4,13,11.4s12.4,2.5,12.8,4.7
				c0.4,2.2-7.4,2.9-16.6-1.8c-9.2-4.7-13-10.8-13-10.8s-4.8,5.1-12.7,6.6c-7.9,1.4-14.6,6.5-18.4,14.1c-3.8,7.6-6,9.6-9.6,20.6
				s-5.8,13.3-5.8,13.3L191.7,658.6z"/>
			<path class="st4" d="M181.6,559.1c0,0,6.2,11.3,19.1,6C200.7,565.1,197,554.7,181.6,559.1z"/>
			<path class="st4" d="M217.1,557.7c0,0-10.3,4.4-7.6,14.1C209.5,571.8,219,569,217.1,557.7z"/>
			<path class="st4" d="M241.7,577.1c-0.9,4.3-6,5.1-6,5.1c-0.4,4-4.2,6.8-4.2,6.8c-1.7-2-2-4.5-2-4.5c-4.8,0.9-7.8-2.9-7.8-2.9
				c4.6-1,8.5-5.7,8.5-5.7C230.8,575.9,236.3,579,241.7,577.1z"/>
			<path class="st4" d="M251.6,596.1c0,0,3-7.3,15.7-3.6C267.2,592.5,259.4,602.3,251.6,596.1z"/>
			<path class="st4" d="M267.7,566.8c0,0-3.6,14.4,7.3,16.5C275,583.3,278.8,571.9,267.7,566.8z"/>
			<path class="st4" d="M275.4,612.5c-0.8-9.2-5-11.8-5.9-10.8c-0.9,1,3.7,4.7,2.9,12.3"/>
			<path class="st4" d="M255.3,634.1c0,0-9.9,3.3-6.1,18.5C249.2,652.6,260.6,646,255.3,634.1z"/>
			<path class="st4" d="M286.3,586.9c0.7-0.9,1.9-1.7,3.8-2.4c2.6-1,4.5-3.9,4.5-3.9s1.9,7.7-2.3,8.8c0,0,0.7,2.3,4.4,2.9
				c0,0-3.3,3.7-9,1.5c0,0-3.4,3.6-8.6,1.2c0,0,3.4-1.3,5.1-3.7C285.6,589.2,284.8,588.9,286.3,586.9z"/>
			<path class="st4" d="M198.8,576.3c0,0-2,5.3,3.8,7.3c0,0-1.3,5.5,3.9,7.8c0.1-0.9-0.2-3.8,1.5-5.9c0,0,3.5,2.7,8.1,0.2
				c0,0-3.5-5.2-9.2-5.4C206.9,580.3,202,580.2,198.8,576.3z"/>
			<path class="st4" d="M206.9,581.5c-0.1-2.5,3.1-4.6,2.2-5.6c-0.5-0.5-2.2,0.6-3.8,4.9"/>
			<path class="st4" d="M230.5,581.3c0,0-0.2-4.4-2.7-7.1c-2.2-2.4-4.3-4.3-3.3-5.4c1-1.2,6.3,2.5,8,9.7"/>
			<path class="st4" d="M286.3,589.9c-0.1-2.8-3.6-2.8-3.1-4.4c0.3-1.2,3.3-0.4,4.4,2.1"/>
		</g>
		<g>
			<path class="st0" d="M157.5,27.2c5.9,1.3-3,193.4-4,318.7s-3.9,228.4,4,326.8l-14.3,13.9c0,0-5.6-277.4-0.4-385.3
				C148.6,184.5,150.1,25.6,157.5,27.2z"/>
			<path class="st1" d="M152.7,112.3c4.1,0.2,6.8,20.5-1.1,21.8c6.3,13.4-1.5,39-11.8,29.5c3.9,16.2-30.6,78.6-52.6,39
				c0,0-8.9,20.6-30.1,31c-19.5,9.5-33.6-11.6-31.3-26.9c0.3-2.2,2-4,4.2-4.5c8.3-1.9,32.2-9.6,68.5-38.2
				C145.6,126.8,146.7,112,152.7,112.3z"/>
			<path class="st1" d="M157.4,63.6c3.3,0,7.1,19.5,38.6,35.4c0,0,1.1,11.1-6.2,10.7c-7.3-0.4-10.6-8.1-10.6-8.1s-8.9,9.6-13.1-12
				c0,0-9.6-0.5-7.2-13.9C157.1,73.2,155.4,63.6,157.4,63.6z"/>
			<path class="st1" d="M157.9,39c2.3,0,2.6,10-0.8,11.4c1.3,5.6-6,22.4-9.6,13.2c1.2,13.4-18.7,28.7-19.4,15.4
				c0,0-13.4,14.4-17.6,6c-4.3-8.6,13.7-11.9,27.7-24.7C157.4,42.9,155.8,39.1,157.9,39z"/>
			<g>
				<path class="st2" d="M150.9,86.7c0,0-29.6,30.8-52.5,46.3"/>
				<path class="st2" d="M125.8,110.9c0,0,5.5,8.8-10,24.3"/>
			</g>
			<path class="st2" d="M158.1,140.2c0,0,39.4,46.2,68.3,59.9"/>
			<path class="st2" d="M183.9,167.5c0,0-5.3,17.5,26.1,38.4"/>
			<path class="st1" d="M150.1,172.5c6.6-1.4,20.7,39,53.1,68.4s51,31,58.7,41.2c9,11.9-1,33.6-14.6,15.1c0,0-2.2,16.8-20.8,15.3
				c-18.6-1.5-31.5-25.1-32.5-36.5c0,0-30.6,5.8-41.4-26.5c-9.1-27.2-2.5-52.9,0-58C143.2,193.7,142.1,174.2,150.1,172.5z"/>
			<path class="st1" d="M143.8,230.7c5.2-0.6,8.4,17.2,0,20.7c0,0,16.5,43.8-6.5,37.5c0,0,6.1,17.7,0.9,28.4
				c-5.3,10.7-14.5,5.4-18.6,0c0,0-6.7,53.7-28.2,53.7s-20-38-20-38s-16.8,38.3-33.8,38s-18.7-26.3-6.5-32.4s35.9-22.8,70.6-56.4
				S138.2,231.4,143.8,230.7z"/>
			<path class="st2" d="M141.4,348.7c0,0-35.1,46.2-71,59.1"/>
			<path class="st1" d="M144.8,309c7.7-0.5,20.2,35.9,65.3,70.9s69.2,36.7,73.5,47.4c4.3,10.6-11.5,32.4-35,12.1
				c0,0-6.9,18.7-27.3,12.1c-20.4-6.6-25-38.5-25-38.5s-11.2,21.8-29.3-9.8s-11.2-65.5-11.2-65.5s-3.9,9.2-11,4.3
				C137.7,337.2,135.5,309.6,144.8,309z"/>
			<path class="st3" d="M201.6,181.3c0,0,14.5,11.9,23.4,17.2c10.1,5.9,3.4,12.2-4.8,2.2c0,0-7.3,1.8-11.8-9.2
				C208.4,191.5,198.2,192.8,201.6,181.3z"/>
			<path class="st1" d="M142.7,371c8.5,1,5.4,19.9-2.1,23.4c5.5,12.7-3.5,33.7-14.3,22.3c6.5,42.7-19,81.5-31.6,53.6
				c0,0-9.8,42.4-35,49.6c-21.1,6.1-18.2-26.7-18.2-26.7s-14.5,31.6-27,13.8c-10.1-14.4,2.5-22.8,11.8-27.6
				c18.1-9.3,39.9-29.2,76.3-66.7C129.2,385.2,135.2,370.1,142.7,371z"/>
			<path class="st2" d="M146.7,202.9c0,0-27.2,35.9-58.9,52.4"/>
			<path class="st2" d="M120.5,231.4c0,0,5.3,6.2-4.5,19.9s-17.2,24.9-17.2,24.9"/>
			<path class="st2" d="M228,349.8c-32.3-17.2-73.3-73.7-73.3-73.7"/>
			<path class="st1" d="M154.4,415.2c3.3-0.9,3.7,3,8.4,11.7c5.5,10.2,32.4,47.7,55.3,69.3c23.6,22.4,33.4,22.5,38.9,27.3
				c9,7.9-3.1,29.7-19.2,12.7c0,0-8.1,14.4-22,5.1c-13.9-9.3-17.4-29-17.4-29s-13.7,9.3-24.8-7.9s-16-44.9-13-64.2
				C149.2,441.5,146,417.4,154.4,415.2z"/>
			<path class="st2" d="M140.6,456.8c0,0-4.7,14.4-20.8,24.4"/>
			<path class="st2" d="M134.2,468.1c0,0,2.3,1.5,0.6,8.1c-1.7,6.6-5.6,14.9-5.6,14.9"/>
			<path class="st2" d="M152.2,492.7c0,0,14.4,21.9,26.5,29.1"/>
			<path class="st2" d="M164.2,508.4c0,0-3.9,12.3,10.4,21.5"/>
			<path class="st2" d="M171.2,297.1c0,0-1.7,23.9,19.2,42.1"/>
			<path class="st3" d="M113.1,379.4c9.1,3.2,1.9,11.7,0,11.7c0.7,11.3-6.1,8.5-6.1,8.5c-9.5,10.6-12.7,3.2-8.5-1.5
				c4.2-4.7,5.3-10.6,5.3-10.6S103.8,377.5,113.1,379.4z"/>
			<path class="st2" d="M140.7,483c0,0-6.4,19.3-23.1,29.4"/>
			<path class="st3" d="M100.9,247.2c2.1-1.5,3.8,1.6,2.1,4c0,0,4.5,9.7-1.9,8.6c0,0-0.2,10.1-6.6,6.7c0,0-3.6,7.7-5.9,5.5
				c-2.3-2.2,1.8-7.2,5.7-12.8C98.1,253.7,98.7,248.8,100.9,247.2z"/>
			<path class="st1" d="M193.4,321.8c0,0,2.8,31.7,11.6,21c0,0,9.1,19.3,14.4,9.7c0,0,11.4,9.3,13.4,3.4
				C234.5,350.6,213.1,341.7,193.4,321.8z"/>
		</g>
		<path class="st3" d="M108,565.8c10.8,1.5,13.1,13.6,15.3,21.4c2.3,7.8,6.5,17.9,15.6,7.8c9.1-10.1,18.9-9.6,25.4,0
			c5.6,8.2,12.5,9,16.4,0.6c-0.4-1-0.8-2.1-1.2-3.1c-14.9-36.2-21.9-17.4-34.8-44.6c-10-21.2-14.5-71.1-30.4-50.2
			c-10.7,14.2-18,46-22.7,75.6C95.3,569.6,101.4,564.9,108,565.8z"/>
		<path class="st5" d="M210.5,677.9c-11.1-26.5-19.8-57.2-29.8-82.3c-3.9,8.4-10.8,7.6-16.4-0.6c-6.5-9.6-16.4-10.1-25.4,0
			c-9.1,10.1-13.3,0-15.6-7.8c-2.3-7.8-4.5-19.9-15.3-21.4c-6.6-0.9-12.7,3.7-16.4,7.5c-3.6,22.3-5.7,43.4-6.9,54.8
			c-2.8,26.5,3.1,78.1-2.8,100.8c-5.6,21.4-2.1,38.4-2.9,53.3c-0.1,1.8,0.8,3.5,2.4,4.4c13.4,7.9,29.1,3.4,58.1-19.7
			c30.9-24.6,78.4,15.4,82.2-17.1C225.5,717.3,222,705.5,210.5,677.9z"/>
	</g>
	<path class="st3" d="M100.3,594.4c4.4-1.4,2.9,12.5-0.4,33c-3.3,20.5-7.8,17.1-7.7,9.2C92.2,629.2,95.8,595.8,100.3,594.4z"/>
	<path class="st3" d="M170.4,622.3c2.7-1.6,6.9,3.3,9.4,15.5c1.9,9.2,13.7,23.1,12.6,29.4c-0.9,5.1-9.7,2.6-12.9-5.7
		s-7.9-2.2-8.5-21.3C170.7,633.8,166.8,624.5,170.4,622.3z"/>
	<path class="st3" d="M145.1,597c1.7-2.7,6.4,1.5,8.6,8.7c2.1,7.2,1.6,10.2-1,9.8c-3.8-0.5-3.6-9.1-5-12.4
		C146.3,599.8,144.3,598.4,145.1,597z"/>
	<path class="st3" d="M158.6,547.1c2.9-9.3,8.8-14.6,12.2-11.7c4.7,4-2.5,8.9-3.5,16.9s-5.2,13.5-8.7,11.4
		C155.1,561.5,155.6,556.6,158.6,547.1z"/>
	<path class="st3" d="M487.9,412.6c5.3,0,4.3,16.2,0,34.1c-4.3,17.8-7.6,20.5-10.8,16.9c-3.6-4.1,1.4-16.5,4.1-30.7
		S484.3,412.6,487.9,412.6z"/>
	<path class="st3" d="M543.1,430.4c4.1-1.3,4.9,7.4,6.7,16.1s3.8,18.1,4.9,23.8c1.2,5.6-3.5,7.4-6.7-0.9
		C544.9,461.1,538.6,431.8,543.1,430.4z"/>
	<path class="st3" d="M501.9,528.4c4.9-0.5,5.6,13.3,1,29.8c-4.6,16.5-11.7,16.6-11.7,8.2s2.2-16,5.1-24.9
		C499.2,532.6,498.5,528.8,501.9,528.4z"/>
	<g>
		<path class="st2" d="M677.3,560.8c0,0-81.8,57.5-81.8,168.3"/>
		<path class="st2" d="M680.7,569.3c0,0-7.9-1.2-15.3,1.4"/>
		<path class="st2" d="M680,581.8c0,0-15.6-2-29.5,4"/>
		<path class="st2" d="M677.3,593.8c0,0-19.3-2.6-36.2,3.3"/>
		<path class="st2" d="M631.4,610.6c0,0,20.8-10.8,48-1.8"/>
		<path class="st2" d="M623.2,624c0,0,24.7-9.3,54.1-1.5"/>
		<path class="st2" d="M614.9,639.9c0,0,24.2-10.8,59.4-4.2"/>
		<path class="st2" d="M609.1,654c0,0,27.2-10.3,66.9,0"/>
		<path class="st2" d="M664.2,666.7c0,0-34.2-5.9-60.5,3.3"/>
		<path class="st2" d="M600,685.2c0,0,14.5-8.9,43.2-8"/>
		<path class="st2" d="M597.1,702.7c0,0,9.2-8.9,29.4-13"/>
	</g>
	<g>
		<path class="st2" d="M690.3,675.7c0,0-57.9,39.4-67.1,104.4"/>
		<path class="st2" d="M694.5,684.1c0,0-8.6-1-17.2,2.2"/>
		<path class="st2" d="M691,694.1c0,0-16.8,0.6-27.8,6.1"/>
		<path class="st2" d="M689.8,706.9c0,0-20.8-1.5-37.4,6.4"/>
		<path class="st2" d="M687.5,719c0,0-25.3-1.3-45.1,8.9"/>
		<path class="st2" d="M681.5,731.1c0,0-24.7-1-47.2,12"/>
		<path class="st2" d="M667,742.3c0,0-14.8-0.7-37.5,12.6"/>
		<path class="st2" d="M643.6,757.1c0,0-11,2.8-16.9,6.7"/>
	</g>
	<g>
		<path class="st2" d="M49.3,615.5c0,0,61,65.4,59.4,157"/>
		<path class="st2" d="M41.2,621.3c0,0,10.2-0.3,18.6,7.3"/>
		<path class="st2" d="M29.8,627.4c0,0,26.3,2.8,40.9,16.9"/>
		<path class="st2" d="M28.8,641.3c0,0,31.6,2.3,52.8,22.1"/>
		<path class="st2" d="M26.5,660.1c0,0,38.2,0.1,66.4,28.3"/>
		<path class="st2" d="M27.1,676.8c0,0,42.4,1.2,72.9,32.1"/>
		<path class="st2" d="M39.9,695.2c0,0,48.4,0,64.7,32.5"/>
		<path class="st2" d="M64.8,717.3c0,0,28.5,3.9,42.4,26"/>
	</g>
	<g>
		<path class="st2" d="M14.4,690.1c0,0,63,16.2,82.3,109.6"/>
		<path class="st2" d="M14.4,697.9c0,0,7.2-3,13.3-2.3"/>
		<path class="st2" d="M13,710c0,0,16-7.4,28.7-5.5"/>
		<path class="st2" d="M14.4,720.8c0,0,17.9-9.2,41.8-3.5"/>
		<path class="st2" d="M16.3,735.7c0,0,19.3-12.9,48.9-8.1"/>
		<path class="st2" d="M25.2,750.9c0,0,20.5-15.1,51.3-6.4"/>
		<path class="st2" d="M40.8,763.2c0,0,22.7-13.5,43.7-3"/>
	</g>
	<g>
		<path class="st2" d="M63.3,555.6c0,0,2.4,56.9,22.8,58.9"/>
		<path class="st2" d="M56.4,594.3c0,0,8.7,30.4,28.2,33.8"/>
		<path class="st2" d="M53.9,556.5c0,0,4.5,27.1,12.6,25.5"/>
		<path class="st2" d="M57.1,611.2c0,0,7.6,16.6,14.8,10.1"/>
		<path class="st2" d="M63.3,591.6c0,0,2.6,10.4-3,12.5"/>
		<path class="st3" d="M50.6,582.3c0,0-0.8,10.4,5.8,12C56.4,594.3,58.5,587.2,50.6,582.3z"/>
		<path class="st3" d="M70.9,602.9c0,0-6.4,5.4-3.3,13.6C67.6,616.5,74.7,612.3,70.9,602.9z"/>
		<circle class="st1" cx="55.9" cy="608.3" r="3"/>
		<path class="st2" d="M80.4,573.4c0,0,5.7,28.8-7.7,28.7"/>
		<path class="st2" d="M74.7,577.7c0,0,0.3,14.7,6.6,13.9"/>
		<path class="st2" d="M46.5,557.5c0,0,5.1,12.9,9.9,9.9"/>
		<circle class="st1" cx="45" cy="554.9" r="3.1"/>
		<circle class="st1" cx="53.4" cy="553.5" r="3.1"/>
		<circle class="st1" cx="63.3" cy="552.6" r="3.1"/>
		<path class="st3" d="M65,572.6c0,0-0.2-8.4,11.5-13.3C76.4,559.2,75.9,571,65,572.6z"/>
		<circle class="st1" cx="74.7" cy="575.1" r="2.5"/>
		<circle class="st1" cx="80" cy="570.9" r="2.5"/>
		<path class="st3" d="M81.5,582.5c0,0-1.1-6.6,6.5-10.3C88,572.2,89.4,581.1,81.5,582.5z"/>
	</g>
	<g>
		<path class="st2" d="M81.6,527.8c0,0,1.8,32.4,12.1,33"/>
		<circle class="st1" cx="81.5" cy="524.5" r="3.3"/>
		<circle class="st1" cx="76.9" cy="535.7" r="2.4"/>
		<circle class="st1" cx="91.9" cy="527" r="2.4"/>
		<path class="st2" d="M77.3,538.2c0,0,2.6,16.5,9.4,15.6"/>
		<path class="st2" d="M91.6,529.3c0,0-1.4,13.2-8.2,12.8"/>
		<path class="st3" d="M68,540.6c0,0,3.3,8.9,11.3,5.3C79.4,546,77.8,539.7,68,540.6z"/>
		<path class="st3" d="M93,548.4c0,0-5.8,2.6-5,8C88.1,556.4,94,556.9,93,548.4z"/>
	</g>
	<g>
		<path class="st2" d="M388.3,518.6c0,0-2.8,60.6,30.6,60.4"/>
		<path class="st2" d="M379.4,532.4c0,0,1.4,31,16,29.6"/>
		<path class="st2" d="M396.6,529.7c0,0,2.4,14.7-6.2,16"/>
		<path class="st2" d="M406,530.4c0,0,0.6,29.7,16.8,31.6"/>
		<path class="st3" d="M372.6,551c0,0,5.2,7.5,11.9,3.5C384.5,554.5,382.5,549.5,372.6,551z"/>
		<circle class="st1" cx="379.4" cy="528.3" r="4.1"/>
		<circle class="st1" cx="388.2" cy="515.3" r="3.2"/>
		<circle class="st1" cx="406" cy="527.7" r="2.7"/>
		<path class="st3" d="M404.9,559.6c0,0-6.4,6.1-2.4,12.8C402.5,572.4,408.5,570.3,404.9,559.6z"/>
		<path class="st3" d="M399.8,548c0,0,2.8,10.5,12.8,7.3C412.7,555.3,408.7,547.5,399.8,548z"/>
		<path class="st2" d="M411.6,537c0,0,0.8,6.8-3,9.3"/>
		<path class="st3" d="M411.2,542.1c0,0,3,1.9,5.9-0.9C417.1,541.1,413.9,539.3,411.2,542.1z"/>
		<path class="st2" d="M416.7,550.8c0,0,3,5,1.4,9.7"/>
	</g>
	<g>
		<circle class="st1" cx="499.5" cy="620.9" r="3.1"/>
		<circle class="st1" cx="507.7" cy="625.3" r="2.1"/>
		<circle class="st1" cx="492.5" cy="637.2" r="2.2"/>
		<path class="st2" d="M499.5,624.1c0,0-0.1,32.3,5.3,43.8"/>
		<path class="st2" d="M492.5,639.4c0,0,2.7,21.1,9.9,20.5"/>
		<path class="st2" d="M507.7,627.4c0,0,1.4,20.1-7.1,20.5"/>
		<path class="st4" d="M509.8,647.9c0,0,1.1,9-7.7,10.8C502.2,658.7,501.1,651.9,509.8,647.9z"/>
	</g>
	<g>
		<circle class="st1" cx="524.3" cy="609.8" r="4.7"/>
		<circle class="st1" cx="531.1" cy="618.3" r="2.2"/>
		<circle class="st1" cx="514" cy="638.7" r="2.8"/>
		<path class="st2" d="M514,641.5c0,0-1.4,38.3,13.1,39"/>
		<path class="st2" d="M524.3,614.5c0,0-1,58.9,5.6,80.1"/>
		<circle class="st1" cx="520.5" cy="650.6" r="1.9"/>
		<path class="st2" d="M520.5,652.5c0,0,0.2,7.3-5.5,7.4"/>
		<path class="st2" d="M531.1,620.5c0,0,1.9,16.8-6.7,17.8"/>
		<path class="st4" d="M531.9,642.1c0,0,0.7,6.8-7.2,6.5C524.7,648.7,524.6,643.7,531.9,642.1z"/>
		<path class="st2" d="M531.9,658.7c0,0,1.3,9.4-6,10.4"/>
	</g>
	<g>
		<circle class="st1" cx="545.1" cy="631.6" r="4.2"/>
		<path class="st2" d="M545.1,635.8c0,0,2.1,29.6,0,65"/>
		<path class="st2" d="M536.4,634c0,0-0.3,25,9.6,25.3"/>
		<circle class="st1" cx="554.5" cy="647.9" r="2.5"/>
		<path class="st2" d="M554.5,650.4c0,0,2.2,30.2-8.7,32.2"/>
		<path class="st4" d="M537.1,665.3c0,0,0.6,9,8.9,9.7C546,675.1,545.1,666.1,537.1,665.3z"/>
		<path class="st4" d="M541.5,642.1c0,0-4.4,1.7-3.5,7C538,649.1,541.8,648.6,541.5,642.1z"/>
	</g>
	<g>
		<path class="st0" d="M578,246c1.5,0.3,2.8,21.4-0.8,139.5s-2,247.3-2.3,264.2c-0.3,16.9,3.9,49.8,1,54.8c-3,4.9-13.4,4.9-13.8-1.4
			c-0.4-6.3,1-38.7,0.6-54.6c-0.4-15.9,1.3-147.7,3.1-191.2C569.9,353.4,574.8,245.4,578,246z"/>
		<path class="st1" d="M577.2,291.6c4,7,19,30.3,48.3,45.8c1.9,1,3.3,2.7,3.8,4.8c0.4,2,0.1,4.3-2.7,5.7c-5.7,2.7-10.9-4-12.4-8.5
			c0,0-1.2,3.8-4.7,3.6c-3.6-0.2-7.5-3.2-8.9-11.9c0,0-8.6,3.7-15.3-3.4c-4.1-4.3-4.6-10.3-4.1-14.1c-4.9,0.7-14.3-8.6-6.3-22
			C575.3,290.6,576.6,290.6,577.2,291.6z"/>
		<path class="st1" d="M576.7,333.4c2.5,0.3,10.1,14.4-1,18.8c6.9,12.3-7.4,43.2-18.5,27.8c0,0-2.8,21.5-14.5,33.8
			c-11.7,12.3-19.7-4.2-19.4-11.8c0,0-5.1,21.2-16.9,18.1c-11.9-3.1-16.4-16.7-4.4-23.1s29.1-18.4,47.5-35.6
			C567.9,344,573.4,333,576.7,333.4z"/>
		<path class="st1" d="M576,256.9c1.6,0.1,3.5,12.7-2.7,14.9c2,4.1-2.1,24.7-8.5,13.3c0,0-0.6,16.3-9.1,20.2c-9.5,4.4-13-7.1-13-7.1
			s-6,16.2-12.6,10.5c-3.9-3.3-2.3-8.5,3.6-12.6c5.1-3.5,21-14,30.1-24.2C574.4,260,574.4,256.8,576,256.9z"/>
		<path class="st2" d="M572,317c0,0-9.1,13.7-21.4,20.8"/>
		<path class="st2" d="M561.3,329.5c0,0,2.6,2.9-3.5,8.7"/>
		<path class="st1" d="M569.9,386.7c4.5-1.6,7.9,11.8,29.1,33.6c28.5,29.3,49.9,29.4,55.9,35.7c6.2,6.5-0.2,14.7-6.8,9.7
			c0,0-10.1,9.1-26.1-1c-12.2-7.7-14.2-17.3-14.7-20c-5.2,4.3-32.9,8-32.1-28.7c0,0-10.7-8-5.4-22.1
			C569.9,393.8,567,387.7,569.9,386.7z"/>
		<path class="st2" d="M578,359.4c0,0,17.6,21.8,35.7,33.5"/>
		<path class="st2" d="M586.6,369.1c0,0-6.7,12.8,11.4,29.1"/>
		<path class="st2" d="M567.5,412.8c0,0-7,10.2-20.7,22.5"/>
		<path class="st2" d="M557.8,424.5c0,0,3.8,3.7-4.6,13.6"/>
		<path class="st2" d="M575.3,472.4c0,0,21.6,23.6,55.6,40.3"/>
		<path class="st2" d="M600.8,494.4c0,0-3,12.8,19.9,25.5"/>
		<path class="st1" d="M564.5,495.9c4.8-1.2,3.2,12.7,36.1,42.4c32.9,29.7,48.9,26.5,52.6,33.5c3.6,7-6.4,10.8-13,2.8
			c0,0-3,11.2-15.6,8.8c-12.6-2.4-13.9-13.2-13.9-13.2s-3.1,5.8-12.7,3.4c-9.6-2.4-18-13.8-19.4-29c0,0-2.4,3-6.4,0.2
			s-8.3-17.7-3.4-24.8C563.2,517.2,558.2,497.5,564.5,495.9z"/>
		<path class="st2" d="M574.7,576.3c0,0,18,18.6,38.6,26.9"/>
		<path class="st2" d="M586.8,587c0,0-3.4,13.1,23.5,25.4"/>
		<path class="st2" d="M563.1,579c0,0-6.7,13.4-21.4,22.9"/>
		<path class="st2" d="M552.4,593.1c0,0,2.7,6.2-6.6,16.6"/>
		<path class="st2" d="M564.4,504c0,0-11,16.6-31.1,25.7"/>
		<path class="st2" d="M548.8,520.2c0,0,2.8,8.2-9,15.2"/>
		<path class="st1" d="M569.2,433.7c3.5,1.2,6.3,23.7-3.5,23.4c0,0,2.7,22.1-9.3,19.8c4.7,13.2-11.2,43-18.9,28.4
			c0,0-7.9,33-25.1,29.1c-11.4-2.6-24.9-33.7-9.7-44.7C560.6,448,564.4,432,569.2,433.7z"/>
		<path class="st1" d="M561.1,527.7c4.4-0.8,3.3,18.9-4.1,19.5c0.6,7.1-9.3,24.7-14.4,13.9c0,0,0.4,17.2-8.4,26
			c-8.8,8.8-13.1-2.5-13.1-2.5s-4.8,21.4-14.9,26.1s-16.4-7.6-16.5-15.1c0,0-8.5,8.7-13.6,0.9c-5.7-8.6,5.1-14.9,13.6-18.3
			c13.1-5.3,33.7-16.7,50.7-30.2C554.4,536.8,558.3,528.3,561.1,527.7z"/>
		<path class="st3" d="M619.2,506.4c-1.6-0.4-3.4,2.8-1.5,6.3c2.1,4,6.3,1.8,6.3,1.8s0.1,4.3,3.3,4.4c3.2,0.2,2.2-3.6,2.2-3.6
			s4.5,3.5,5.1,0.6C635.4,512.4,621.5,507.2,619.2,506.4z"/>
		<path class="st3" d="M600.3,382.6c0,0-1.8,4.9,2.1,7.5c0,0-1.5,8.1,2.7,10.8c4.2,2.7,6.3-0.7,6.3-0.7s0.9,8.9,5.5,9s3.8-7,3.8-7
			s4.4,9.8,8.1,5.8c3.5-3.8-9.5-12.6-16.2-16.6C607.7,388.3,600.3,382.6,600.3,382.6z"/>
	</g>
	<g>
		<path class="st2" d="M156.5,656.9c0,0,1.9,20.8,6,37s4.1,31.2,4.1,31.2"/>
		<circle class="st1" cx="155.7" cy="652.4" r="4.5"/>
		<path class="st2" d="M149.5,663.3c0,0,1.2,14,9.4,12.3"/>
		<path class="st2" d="M165.4,662.1c0,0,3.5,19.9-5.2,20.9"/>
		<circle class="st1" cx="149.1" cy="661.3" r="2"/>
		<circle class="st1" cx="165.1" cy="659.5" r="2.5"/>
		<circle class="st1" cx="173.7" cy="684.4" r="4.6"/>
		<path class="st2" d="M173.7,689c0,0-1.2,13.7-8.8,16.6"/>
	</g>
	<g>
		<circle class="st1" cx="135.1" cy="654.3" r="4.6"/>
		<circle class="st1" cx="119.1" cy="657.9" r="2.8"/>
		<circle class="st1" cx="151.6" cy="690.1" r="2.8"/>
		<circle class="st1" cx="119" cy="688.9" r="4.5"/>
		<path class="st2" d="M134.8,658.7c0,0-4.8,57,18.7,74.6"/>
		<path class="st2" d="M125.5,659.5c0,0-0.1,30.6,10.1,32.4"/>
		<path class="st2" d="M119.1,660.7c0,0-0.5,22.7,9.4,22.2"/>
		<path class="st4" d="M134.5,676.6c0,0,1.3-5.6,10.6-5.6C145.1,671,143.2,678.8,134.5,676.6z"/>
		<path class="st2" d="M119.1,693.4c0,0,3.5,31.6,22.2,57.8"/>
		<path class="st2" d="M112.5,697.1c0,0,2.9,17.9,10.9,16.2"/>
		<path class="st2" d="M129.2,702c0,0,4.3,15.2-4,16.9"/>
		<path class="st4" d="M130.6,720.6c0,0,4.6,10.3,15.8,5.1C146.3,725.8,140.9,717.4,130.6,720.6z"/>
		<path class="st2" d="M151.6,693c0,0,4.1,21.1-9.5,24.9"/>
		<path class="st4" d="M143.9,699c0,0-0.8,9.5,6.6,10.8C150.5,709.8,150.9,701.6,143.9,699z"/>
	</g>
	<g>
		<circle class="st1" cx="632.7" cy="683.9" r="2.5"/>
		<circle class="st1" cx="625.8" cy="697.3" r="2.5"/>
		<circle class="st1" cx="640.3" cy="686.2" r="2.5"/>
		<path class="st2" d="M632.7,686.4c0,0,1.1,9,0,19.9c-1.1,10.9,0,22.8,0,22.8"/>
		<path class="st2" d="M626,699.9c0,0,0.4,19,6.2,19.8"/>
		<path class="st2" d="M639.9,688.8c0,0-1.2,11.8-6.8,11.1"/>
	</g>
	<g>
		<circle class="st1" cx="640.3" cy="704.2" r="2.5"/>
		<path class="st2" d="M640.6,706.7c0,0,0.2,10.9-4,18.7"/>
	</g>
	<g>
		<circle class="st1" cx="613.3" cy="701.7" r="2.5"/>
		<circle class="st1" cx="620.2" cy="713.2" r="2.5"/>
		<path class="st2" d="M613.5,704.2c0,0-0.4,16.2,0.7,23.1"/>
		<path class="st2" d="M608.4,703.4c0,0,0.3,9.2,5,8.8"/>
		<path class="st2" d="M618.9,715.4c0,0-2.4,3.1-5.4,3.2"/>
	</g>
	<g>
		<path class="st5" d="M247.9,702.6c-5-3.8-10.2-7-12.9-8.6c0,0,0,0-0.1,0.1c-0.8,1-1.7,2-2.6,3c2.5,1.1,6.3,2.9,9.9,4.9
			c5,2.9,12.5,8.2,16.7,12.8c1.1-0.2,2.3-0.4,3.4-0.7C259.1,709.3,254.1,707.4,247.9,702.6z"/>
		<path class="st0" d="M242.3,702c-3.6-2.1-7.4-3.9-9.9-4.9c-5,5.6-9.9,10.9-7.2,15.6c3.4,5.8,17.9,5.2,33.8,2.2
			C254.8,710.2,247.3,704.9,242.3,702z"/>
		<path class="st5" d="M291.2,683.3c2.9,0.3,2.3-3.2-5.8-5.7c-5.8-1.8-10.7-2.6-14.2-4.4c-1.7,0.4-3.5,0.8-5.3,1
			c2.5,1.6,6.4,3.6,11,4.5C285.3,680.5,288.3,683,291.2,683.3z"/>
		<path class="st0" d="M238.2,690.1c-1.1,1.4-2.2,2.7-3.2,3.9c2.7,1.6,7.9,4.8,12.9,8.6c6.2,4.8,11.3,6.7,14.6,11.5
			c6.1-1.3,12.3-2.8,18.2-4.5c-9.2-4.6-22.6-5.9-29.8-12.4C245.3,692.2,240.5,690.6,238.2,690.1z"/>
		<path class="st0" d="M342.3,669.9c-11.2-8.9-25.1-8.5-36.8-7.4c-0.8,0.1-1.5,0.2-2.3,0.3c3.2,1,8,3.2,13.4,7.7
			c8.5,7.2,10.1,5.1,17.5,12.8c4,4.1,5.5,7.9,6.1,10.5c0.7-0.3,1.4-0.6,2.1-0.9C352.5,688,353.5,678.8,342.3,669.9z"/>
		<path class="st5" d="M316.6,670.5c-5.4-4.6-10.2-6.7-13.4-7.7c-3.3,0.6-6.7,1.7-10.3,3c2.4,0.6,6.9,1.8,12,3.4
			c7.7,2.4,7.2,5.9,15.4,9.8c7.3,3.5,13.1,10.3,15.6,16.3c1.6-0.5,3-1,4.3-1.5c-0.6-2.6-2.1-6.4-6.1-10.5
			C326.7,675.6,325.1,677.7,316.6,670.5z"/>
		<path class="st0" d="M320.3,679.1c-8.2-3.9-7.7-7.4-15.4-9.8c-5.2-1.6-9.6-2.8-12-3.4c-6.7,2.5-13.9,5.6-21.6,7.4
			c3.5,1.8,8.5,2.6,14.2,4.4c8.1,2.5,8.6,6,5.8,5.7s-5.9-2.8-14.3-4.5c-4.6-1-8.5-2.9-11-4.5c-0.7,0.1-1.5,0.2-2.2,0.3
			c-10.3,1-16.9,6-21.9,11.3c2.2,1.8,5.6,4.8,12.2,7.1c9.5,3.3,3.7,5.9,20.4,5.8c11.2-0.1,17.1,4.1,19.8,6.8
			c16.8-4.8,31.6-7.1,41.6-10.2C333.4,689.4,327.6,682.5,320.3,679.1z"/>
		<path class="st5" d="M274.4,698.7c-16.7,0.1-10.8-2.4-20.4-5.8c-6.6-2.3-10.1-5.3-12.2-7.1c-1.3,1.4-2.5,2.8-3.6,4.2
			c2.3,0.5,7.1,2.1,12.6,7.1c7.2,6.5,20.7,7.8,29.8,12.4c2.8-0.8,5.5-1.6,8.1-2.4c1.9-0.6,3.7-1.1,5.5-1.7
			C291.5,702.8,285.6,698.6,274.4,698.7z"/>
	</g>
	<path class="st2" d="M124.4,843.2c0,0,5.2,0.7,14.4,11.8c9.1,11.1,18.9,8,25.8,13"/>
	<path class="st2" d="M167.4,863.2c0,0,7.8,5,18.4,6.7"/>
	<path class="st2" d="M217.4,854.8c0,0,16.6,5.4,34.9,23.1c17.2,16.6,36.8,28.2,53,31.5"/>
	<path class="st2" d="M253.1,893.2c0,0,7.8,7.8,17.7,11"/>
	<path class="st2" d="M312.8,879c0,0,4.3,3.1,8.2,7.6c4.9,5.8,10.6,6.1,10.6,6.1"/>
	<path class="st2" d="M335.8,888.5c0,0,2.2,0.8,5.1,0.6"/>
	<path class="st2" d="M363.3,899.7c0,0,4.7-5.7,26.7-10.6c22.1-4.9,37.3-7.1,43-12.2"/>
	<path class="st2" d="M491.5,874.7c0,0,12.3-7.5,23.9-10.7c10.9-3,18.6-1.6,29.8-16.7"/>
	<path class="st2" d="M536.4,844.5c0,0-3.2,2.7-4.6,6.1"/>
	<path class="st2" d="M556.9,853.3c0,0,7-6.2,13.1-9c8-3.7,11.2-5.9,13.6-13.8"/>
	<g>
		<path class="st5" d="M199.6,815.9c-0.5,0.4-0.9,0.9-1.3,1.3c0.4,1.6,1.5,4.4,4.3,6.9c2.8,2.5,3.9,5.4,4.3,7.4c0.7,0,1.3,0.1,2,0.1
			c-0.1-2.7-1.3-5.6-4.7-9.4C202,819.9,200.3,817.2,199.6,815.9z"/>
		<path class="st0" d="M202.6,824.2c-2.8-2.5-3.9-5.3-4.3-6.9c-3,3.2-4.9,6.8-4.1,9.1c1.5,4.6,6.6,4.9,12.7,5.3
			C206.5,829.6,205.4,826.7,202.6,824.2z"/>
		<path class="st5" d="M215.8,824.4c-6.2-4.2-8.8-10.2-9.7-13.2c-1.6,0.8-3.2,1.9-4.6,3.2c1.4,1.1,3.7,3.4,6.7,7.8
			c3.3,4.8,8.1,7.1,10.1,11.3c0.1,0,0.2,0.1,0.3,0.1c3.3,1.1,6.1,1.4,8.4,1.3C225.1,832.4,221.1,827.9,215.8,824.4z"/>
		<path class="st0" d="M208.1,822c-3-4.3-5.3-6.6-6.7-7.8c-0.6,0.5-1.2,1.1-1.8,1.6c0.7,1.3,2.4,4,4.6,6.5c3.4,3.8,4.6,6.6,4.7,9.4
			c3,0.2,6.3,0.6,9.3,1.6C216.2,829.1,211.4,826.9,208.1,822z"/>
		<path class="st0" d="M233.9,825.4c-1.9-3.8-7.2-5.1-10.6-9.4c-3.4-4.3-5.9-7.1-11.9-6.6c-1.6,0.1-3.4,0.8-5.3,1.8
			c1,3,3.5,9.1,9.7,13.2c5.3,3.6,9.3,8,11.2,10.4c3.1-0.2,5.4-1.1,6.6-1.7c0.7-0.4,1.2-1.1,1.2-1.9C235,829.8,235,827.6,233.9,825.4
			z"/>
	</g>
	<g>
		<path class="st5" d="M268,750c-0.6-1.8-1.2-3.8-1.9-5.9c-15.2-2.9-25.9-22.8-29.4-30.4c-2.9-2-5.8-4-8.9-5.8c1.9,2,5,5.9,8.6,12.8
			C244.2,735.8,254.3,746.2,268,750z"/>
		<path class="st0" d="M225.6,718.3c10.5,16.7,21,33.8,44,37.8c-0.1-1.2-0.4-2.3-0.7-3.4c-0.3-0.8-0.6-1.7-0.9-2.7
			c-13.7-3.8-23.8-14.2-31.7-29.3c-3.6-6.9-6.7-10.8-8.6-12.8c-4.9-2.8-10.1-5-16.1-6C215.3,704.9,220.3,709.9,225.6,718.3z"/>
		<path class="st0" d="M266.1,744.1c-2.6-7.5-7.1-16.4-16.9-22c-4.2-2.4-8.3-5.4-12.5-8.3C240.2,721.3,250.9,741.1,266.1,744.1z"/>
		<path class="st5" d="M188.5,742.8c-10.3-9.6-22.1-14.5-27.9-16.5c-1.9,1.8-3.8,3.6-5.5,5.4c6.4,2.2,19.9,7.8,28.8,17.7
			c10.6,11.8,18.9,26.5,38.8,30c3.7-0.4,7.8-1,12.4-1.8c0.2,0,0.4-0.1,0.5-0.1C206.9,774.2,201.7,755.1,188.5,742.8z"/>
		<path class="st5" d="M269.6,756.1c-23-4-33.5-21.1-44-37.8c-5.3-8.5-10.3-13.5-14-16.4c-2.3-0.4-4.7-0.5-7.2-0.4
			c3.5,2.3,9.9,7.5,16.7,18.3c11.1,17.7,22.2,37.4,48.2,40C269.7,758.6,269.7,757.4,269.6,756.1z"/>
		<path class="st0" d="M183.8,749.4c-8.9-9.9-22.3-15.5-28.8-17.7c-8.9,9.2-14.9,18.1-13.6,22.9c4.2,15.8,39.4,8.7,44,16.1
			c4,6.5,12.2,11.5,37.1,8.8C202.7,775.9,194.4,761.2,183.8,749.4z"/>
		<g>
			<path class="st0" d="M221.2,719.9c-6.8-10.9-13.2-16.1-16.7-18.3c-1,0-2,0.1-3,0.2c-7.8,0.9-18.9,7-29.4,15
				c6.7,1.6,15.4,6.1,17.1,9.5c1.2,2.4-1.8,3.3-7.2-1.6c-3.1-2.8-8.9-4.9-12.4-6c-3.1,2.4-6.1,5-8.9,7.6c5.9,2,17.6,6.9,27.9,16.5
				c13.2,12.2,18.5,31.3,47,34.7c24.3-4.3,32.3-11.3,33.9-17.6C243.4,757.3,232.3,737.6,221.2,719.9z"/>
			<path class="st5" d="M189.1,726.3c-1.7-3.4-10.5-7.9-17.1-9.5c-0.8,0.6-1.7,1.3-2.5,1.9c3.5,1.1,9.3,3.2,12.4,6
				C187.3,729.6,190.4,728.8,189.1,726.3z"/>
		</g>
	</g>
	<g>
		<path class="st5" d="M495.4,679c9.5,14,23.3,34.2,42.2,32.4c0-1.2-0.2-2.4-0.4-3.5c-13.3-0.8-25.6-11.6-36.6-27.9
			c-7.2-10.7-13.2-15.5-16.9-17.6c-1.3,0.5-2.6,1.1-3.9,1.8C483.5,666.4,489.9,670.9,495.4,679z"/>
		<path class="st0" d="M500.5,680c11,16.3,23.4,27.1,36.6,27.9c-1-4.9-4-9.1-8.4-12.9c-7.3-6.3-4.2-16.8-21.1-28.6
			c-9.1-6.4-17.2-6.5-24-3.9C487.3,664.6,493.3,669.4,500.5,680z"/>
		<path class="st0" d="M460,699.9c-2.3-1.5-3.6-3.8-4.4-5.8c-1.5,4.4-2.6,8.6-3.7,11.6c-2.6,7.3-2.5,16.6,5.9,22
			c3,1.9,7.9,4,13.8,5.5c-2.3-5.3-2.4-13.4-3.5-19C467,707.9,464.8,703.1,460,699.9z"/>
		<path class="st0" d="M495.4,679c-5.5-8.1-11.9-12.6-15.5-14.7c-5.5,3-10.1,7.6-13.8,11.4c-1.1,1.1-2,2.2-2.9,3.4
			c2.8,3.7,9.8,11.8,21.4,19c13.1,8.1,18.7,23.7,21.7,34.9c17.3-4.2,27.5-4.2,30.3-14c0.8-2.7,1.1-5.2,1.1-7.5
			C518.7,713.2,504.9,693,495.4,679z"/>
		<path class="st5" d="M484.5,698.1c-11.6-7.2-18.6-15.3-21.4-19c-1.3,1.7-2.4,3.5-3.4,5.4c2,2.7,5.7,6.9,12.2,11.7
			c14.2,10.4,16.7,25.9,18.1,39.1c4.6-0.1,9.2-0.6,13.9-1.8c0.8-0.2,1.5-0.4,2.3-0.6C503.2,721.8,497.6,706.2,484.5,698.1z"/>
		<path class="st5" d="M462.5,698.1c-3.4-2.5-5-5.4-5.7-7.3c-0.4,1.1-0.8,2.2-1.2,3.3c0.8,2,2.1,4.2,4.4,5.8c4.8,3.3,7,8,8.2,14.3
			c1,5.6,1.2,13.7,3.5,19c2,0.5,4.2,0.9,6.4,1.3c-1.2-3.6-2-8.8-3.9-15.6C470.8,706.8,468.4,702.5,462.5,698.1z"/>
		<path class="st0" d="M471.9,696.2c-6.5-4.8-10.2-9-12.2-11.7c-1.1,2.1-2.1,4.2-2.9,6.3c0.7,2,2.3,4.8,5.7,7.3
			c5.9,4.4,8.2,8.7,11.6,20.7c1.9,6.9,2.7,12,3.9,15.6c3.8,0.6,7.8,0.9,12,0.9C488.5,722,486.1,706.6,471.9,696.2z"/>
	</g>
	<g>
		<path class="st0" d="M318.7,787.1c-2.8-17.4-11.4-23.3-20.4-24.9c-9.1-1.6-11.5-6.6-17.2-15.1c-5.7-8.5-18.3-7.8-32.1-5.2
			c-5,1-9.4,2.8-13.2,5.1c3.5,2.8,11.2,7.9,24.2,11.6c19,5.4,44.9,8.7,41.1,47C312,803.1,320.3,797.4,318.7,787.1z"/>
		<path class="st5" d="M213.6,786.6c-3.4-3.8-4.9-7.3-5.6-9.3c-0.8,1.1-1.5,2.1-2.1,3.1c0.7,2,2,4.8,4.2,7.2
			c5.3,5.5,6.2,8.7,6.4,12.5c1,0.3,2.2,0.6,3.4,0.9C220.1,796.3,218.1,791.7,213.6,786.6z"/>
		<path class="st0" d="M205.9,780.3c-1,1.5-1.8,2.9-2.3,4.1c-2.5,5.5,2.2,9.5,9.4,14c0.9,0.6,2.1,1.1,3.5,1.5
			c-0.1-3.7-1.1-7-6.4-12.5C207.9,785.1,206.6,782.4,205.9,780.3z"/>
		<path class="st0" d="M239.3,772.5c-10.9-4.9-16.4-9.8-18.4-11.9c-0.1,0.2-0.3,0.3-0.4,0.5c-3.6,4.7-8.7,10.9-12.5,16.2
			c0.7,2,2.2,5.5,5.6,9.3c4.5,5.1,6.5,9.7,6.3,14.2c4.1,0.9,9.4,1.5,15.5,2c14.1,1.2,21.4,2.5,38.5,4
			C267.9,790.5,253.4,778.8,239.3,772.5z"/>
		<path class="st5" d="M259.9,758.7c-13-3.7-20.7-8.8-24.2-11.6c-2.1,1.3-4.1,2.7-5.8,4.2c3,2.3,10.6,7.6,23.6,12.6
			c17,6.5,37.6,17.7,38,43.3c3.3-0.3,6.5-0.7,9.5-1.5C304.8,767.4,278.9,764.1,259.9,758.7z"/>
		<path class="st5" d="M242.7,770.3c-10.2-4.3-16.9-10.5-19.2-12.8c-0.9,1.1-1.8,2.1-2.6,3.2c2,2.1,7.4,7,18.4,11.9
			c14.1,6.3,28.7,18,34.7,34.4c0.9,0.1,1.8,0.2,2.7,0.2C273.4,790.3,255.3,775.6,242.7,770.3z"/>
		<path class="st0" d="M253.5,763.8c-13.1-5-20.7-10.3-23.6-12.6c-2.4,2-4.5,4.2-6.3,6.2c2.3,2.3,9.1,8.5,19.2,12.8
			c12.5,5.3,30.7,20,34,36.9c0,0,0,0,0.1,0c4.7,0.4,9.8,0.4,14.7,0C291.1,781.6,270.5,770.4,253.5,763.8z"/>
	</g>
	<g>
		<path class="st0" d="M451.2,766.8c-7.5-7.6-15.8-11-20.2-12.4c-1.7,1-3.4,2.1-4.9,3.3c3.9,1.3,11,4.1,17.2,9.1
			c8.9,7.3,12.2,14.2,18.8,23.2c5.7,7.8,13.5,9.9,19.6,13.4c1.9-0.1,3.9-0.1,6-0.2c-2.9-2.4-6.8-5.6-11.9-8.9
			C464.7,787,462,777.8,451.2,766.8z"/>
		<path class="st0" d="M457.9,789.3c-3.2-7.1-8-11.7-17.7-20.2c-6-5.2-13-7.6-17.6-8.7c-11.8,10-18.9,23.3-12.5,34.3
			c2.9,5.1,10.8,6.5,17.1,7.5c8.5,1.4,28.2,1.6,42.4,1.5C464.9,800.7,460.4,794.9,457.9,789.3z"/>
		<path class="st5" d="M462,790c-6.6-9-9.9-15.9-18.8-23.2c-6.2-5.1-13.3-7.9-17.2-9.1c-1.2,0.9-2.3,1.8-3.4,2.7
			c4.6,1.1,11.6,3.5,17.6,8.7c9.7,8.5,14.5,13.1,17.7,20.2c2.5,5.6,7,11.5,11.7,14.3c4,0,7.5-0.1,10.2-0.1c0.6,0,1.2,0,1.8,0
			C475.6,799.9,467.7,797.8,462,790z"/>
		<path class="st0" d="M512.2,777.1c-5.8-3-7.3-9.7-11.8-14.2c-2.2-2.2-3.5-5-4.3-7.4c-0.5-0.2-1-0.4-1.6-0.7
			c-10.7-4.5-16.8-11.7-41.1-8.8c-5.5,0.7-11.4,2.6-17,5.3c2.5,0.8,6.3,2,11.1,3.7c9,3.2,12,3.9,16.5,10.8
			c4.4,6.9,7.6,7.3,14.1,10.5c6.5,3.2,8.6,14.9,24.4,19.8c4.4,1.4,7.3,2.8,9.3,4.1c4.5-0.9,9-2,13.3-3.5c0.9-0.3,1.7-0.6,2.5-1
			C525.5,787.8,517.7,779.9,512.2,777.1z"/>
		<path class="st0" d="M525,772.5c-7.6-6.8-14.9-10.7-22.5-14.2c0.9,2.5,2.7,6.3,6.5,9.7c6.4,5.7,8.9,7.1,14.2,11.9
			c3.9,3.5,6.7,8.6,7.9,13.9C538.3,788.3,533.4,780,525,772.5z"/>
		<path class="st5" d="M523.1,779.9c-5.3-4.8-7.8-6.2-14.2-11.9c-3.8-3.4-5.6-7.2-6.5-9.7c-2.1-0.9-4.2-1.9-6.4-2.8
			c0.7,2.3,2,5.2,4.3,7.4c4.6,4.4,6,11.2,11.8,14.2c5.6,2.9,13.3,10.7,15.3,18.8c1.4-0.6,2.6-1.3,3.6-2.1
			C529.8,788.5,527,783.4,523.1,779.9z"/>
		<path class="st5" d="M478,776.4c-6.5-3.2-9.7-3.5-14.1-10.5c-4.4-6.9-7.4-7.6-16.5-10.8c-4.8-1.7-8.6-2.9-11.1-3.7
			c-1.8,0.9-3.6,1.9-5.4,3c4.4,1.4,12.7,4.8,20.2,12.4c10.8,11,13.5,20.2,24.4,27.5c5.1,3.3,9.1,6.5,11.9,8.9
			c7.4-0.4,15.8-1.3,24.1-2.9c-1.9-1.3-4.9-2.7-9.3-4.1C486.6,791.2,484.5,779.5,478,776.4z"/>
	</g>
	<g>
		<path class="st3" d="M343.3,685.7c4.8,7.1,9.6,18.4,15.8,11c6.2-7.4,6.2-14,15-15.7c8.8-1.6,17.3,22.5,26,22.5
			c4.7,0,7.4-4.8,15.1-1.3c-5.2-6.3-11-11.9-15.4-12.5c-11-1.5-15.7-22.1-20.2-32.1c-4.5-10-18.4-11.7-27.3-1.5
			c-4.6,5.2-11.5,14-19.1,26.3C335.9,681.6,340.3,681.2,343.3,685.7z"/>
		<path class="st5" d="M429.6,722.8c0,0-6.7-11.2-14.4-20.5c-7.8-3.5-10.5,1.3-15.1,1.3c-8.7,0-17.2-24.2-26-22.5
			c-8.8,1.6-8.8,8.2-15,15.7c-6.2,7.4-11-3.8-15.8-11c-3-4.5-7.4-4.1-10.1-3.3c-6.8,11-14.1,24.7-20.9,41.2c-0.8,2-0.1,4.3,1.8,5.4
			c3.5,2.1,9.6,5,17.9,5.4c13,0.6,22.9,14.1,39.1,14.3c16.2,0.2,17.5-11,36.7-13.5S430,730.2,429.6,722.8z"/>
	</g>
	<path class="st3" d="M335.9,701.3c-1.4,5.2-6.8,17.3-3.9,18.8s3.7-5.7,7.1-15.2c3.4-9.4,2.1-12.8,0-12
		C337.5,693.5,336.7,698.4,335.9,701.3z"/>
	<path class="st3" d="M377.9,693.1c2-0.3,3.4,7.8,8,11.7s6.4,8.6,4.9,9.7c-1.8,1.3-7.1-4.2-10.3-10.8
		C377.2,697.2,376.7,693.3,377.9,693.1z"/>
	<g>
		<path class="st5" d="M111.5,805.4c0,0,0.6,14.4,13.5,15s27.8-1.2,25.6-18.8L111.5,805.4z"/>
		<g>
			<path class="st3" d="M151,789.7c-9.3-0.9-16.1-9.2-15.2-18.5c0.8-8.2,7.3-14.4,15.2-15.2c-7.6-13.4-18.4-24.5-31.9-21.6
				c-29,6.3-26.1,63.6-18.1,70c5,4,20.6,3.8,31.4,2.3c15-2.1,28.7-6.3,30.5-12.6c0.4-1.3,0.2-4-0.5-7.5
				C159.2,789,155.2,790.1,151,789.7z"/>
			<path class="st0" d="M135.9,771.3c-0.9,9.3,5.9,17.6,15.2,18.5c4.2,0.4,8.2-0.8,11.4-3c-1.5-7.9-5.4-20-11.4-30.6
				C143.2,756.9,136.7,763.1,135.9,771.3z"/>
		</g>
		<circle class="st0" cx="115.5" cy="788" r="10.9"/>
		<circle class="st0" cx="119.1" cy="752.9" r="9.6"/>
		<path class="st2" d="M119.8,812.5c0,0,0,3.4,2.2,4.8"/>
		<path class="st2" d="M126.3,812.5c0,0,0,3,1.5,4.3"/>
		<path class="st2" d="M133.1,812c0,0,0.6,2.4,0,4.2"/>
		<path class="st2" d="M140,811.1c0,0,0.6,2-1.1,4.4"/>
		<path class="st2" d="M145.7,810.2c0,0,0.3,2.9-1.4,4.6"/>
	</g>
	<path class="st7" d="M304.7,715.4c3.5,0,5.3,5.1-0.2,9.4c-5.5,4.2-0.8,7.8,5.6,10.1c6.4,2.3,8.6,4.7,7.6,6.6s-4.4,0.5-10-1.3
		c-5.5-1.8-13.1-1.8-14.5-10.1C292.1,722.9,300.2,715.4,304.7,715.4z"/>
	<path class="st7" d="M285,713.7c1.6,2.2-4,4.5-4.9,7.8c-0.9,3.3-0.3,6.9-3.3,7.5c-3,0.6-4.1-3.7-2.6-7.7
		C275.8,717.3,282.6,710.5,285,713.7z"/>
	<circle class="st7" cx="313.2" cy="712.9" r="1.6"/>
	<path class="st7" d="M297.1,745.7c2.6-0.7,2.4,4.6,10,6.6s9.7,6.7,7.2,8.5c-2.5,1.8-4.1-3.6-10.3-5.6
		C298.1,753.5,294.3,746.5,297.1,745.7z"/>
	<path class="st7" d="M327.4,752.2c1.3-3.2,7.5,0.9,12.2,0.4c4.7-0.5,9.3-2.2,15.5,0.7s21.4,2.7,22.4,7.1c1,4.4-11.7,0-15.4,2.9
		c-3.7,2.9-14.2,1.8-20.2-1C335.9,759.5,326.2,755,327.4,752.2z"/>
	<path class="st7" d="M408.2,750c-2.2-4.6,11.6-11.5,20.2-11.2c6.4,0.2,8.5-2.6,10.8-1.3c2.3,1.3,1.7,5.5-3.2,7.2
		c-4.9,1.7-12.4-0.2-16.5,3.6C415.3,752.1,409.4,752.3,408.2,750z"/>
	<path class="st7" d="M453.8,732.3c2.1,0.3,0.5,9.6-2.5,9.1S450.6,731.9,453.8,732.3z"/>
	<path class="st7" d="M435.4,712.6c2.4-0.4,2.6,3.6,6,5.7c3.4,2.2,3.6,11.8,1.2,11.5c-2.4-0.3-1.6-5.2-4.6-6.9
		C433.2,720.4,431.6,713.2,435.4,712.6z"/>
	<g>
		<path class="st4" d="M622.1,733.6c5.4,1.7,7.6,8.8,3.1,17.2c-4.6,8.4,0.1,8.7-2.9,13c-3.1,4.3-10.3,3-11.9,9s-6.1-13.6-0.9-30.2
			C612.3,733.8,618.1,732.4,622.1,733.6z"/>
		<path class="st4" d="M585.2,731.9c4.6-3.3,14.4-2.8,17.6,7.7c3.5,11.5,9,9.7,9.8,18.9c0.6,7.3-2.9,16.2-2.9,16.2s-2.9-4.8-9.6-4.8
			c-6.1,0-9.9-2.2-10.3-7.9c-0.7-8.2-4.8-7-8.3-13.7C577.4,740.5,581.7,734.3,585.2,731.9z"/>
		<path class="st2" d="M593.5,743.1c11.3,11.2,17.5,24.9,16.8,44.3"/>
		<path class="st4" d="M612.4,757.1c2-7.4,4.6-11.7,4.6-11.7"/>
	</g>
	<g>
		<path class="st4" d="M575,716.4c5.4,1.7,7.6,8.8,3.1,17.2c-4.6,8.4,0.1,8.7-2.9,13c-3.1,4.3-10.3,3-11.9,9
			c-1.6,5.9-6.1-13.6-0.9-30.2C565.2,716.6,571,715.1,575,716.4z"/>
		<path class="st4" d="M538.1,714.6c4.6-3.3,14.4-2.8,17.6,7.7c3.5,11.5,9,9.7,9.8,18.9c0.6,7.3-2.9,16.2-2.9,16.2s-2.9-4.8-9.6-4.8
			c-6.1,0-9.9-2.2-10.3-7.9c-0.7-8.2-4.8-7-8.3-13.7C530.3,723.2,534.6,717.1,538.1,714.6z"/>
		<path class="st2" d="M546.4,725.9c11.3,11.2,17.5,24.9,16.8,44.3"/>
		<path class="st4" d="M565.3,739.9c2-7.4,4.6-11.7,4.6-11.7"/>
	</g>
	<g>
		<path class="st4" d="M525.6,706.6c5.4,1.7,7.6,8.8,3.1,17.2c-4.6,8.4,0.1,8.7-2.9,13c-3.1,4.3-10.3,3-11.9,9
			c-1.6,5.9-6.1-13.6-0.9-30.2C515.8,706.7,521.6,705.3,525.6,706.6z"/>
		<path class="st4" d="M488.7,704.8c4.6-3.3,14.4-2.8,17.6,7.7c3.5,11.5,9,9.7,9.8,18.9c0.6,7.3-2.9,16.2-2.9,16.2s-2.9-4.8-9.6-4.8
			c-6.1,0-9.9-2.2-10.3-7.9c-0.7-8.2-4.8-7-8.3-13.7C480.9,713.4,485.2,707.3,488.7,704.8z"/>
		<path class="st2" d="M497,716.1c11.3,11.2,17.5,24.9,16.8,44.3"/>
		<path class="st4" d="M515.9,730.1c2-7.4,4.6-11.7,4.6-11.7"/>
	</g>
	<g>
		<g>
			<path class="st3" d="M172.8,792.3c0-3.6,2.7-6.6,6.1-7.1c-2.9-4.5-7-7.8-12.4-7.6c-1.2,0-2.4,0.2-3.5,0.6
				c1.5,1.4,2.5,3.4,2.5,5.6c0,4.2-3.4,7.7-7.7,7.7c-2.4,0-4.5-1.1-5.9-2.8c-4.3,8.4-5,19.2-1.2,23.4c3.2,3.5,7.8,4.1,14.7,4.2
				c8.8,0.1,16.8,0.1,19.1-6.3c0.7-1.9,0.6-6.5-0.5-11.7c-1.1,0.8-2.5,1.2-4,1.2C176.1,799.4,172.8,796.2,172.8,792.3z M164.5,810.2
				c-3.7,0-6.7-3-6.7-6.7s3-6.7,6.7-6.7s6.7,3,6.7,6.7S168.2,810.2,164.5,810.2z"/>
			
				<ellipse transform="matrix(0.7071 -0.7071 0.7071 0.7071 -520.007 351.6781)" class="st0" cx="164.5" cy="803.5" rx="6.7" ry="6.7"/>
			<path class="st0" d="M172.8,792.3c0,4,3.2,7.2,7.2,7.2c1.5,0,2.8-0.4,4-1.2c-0.9-4.4-2.5-9.2-5-13
				C175.5,785.7,172.8,788.7,172.8,792.3z"/>
			<path class="st0" d="M157.8,791.4c4.2,0,7.7-3.4,7.7-7.7c0-2.2-1-4.2-2.5-5.6c-4.9,1.5-8.6,5.6-11.1,10.5
				C153.3,790.3,155.4,791.4,157.8,791.4z"/>
		</g>
		<path class="st5" d="M155.6,815.1c0,0-0.5,6.8,4.8,9.4c5.4,2.6,20.7,2.8,18.9-9.5L155.6,815.1z"/>
		<path class="st3" d="M160.5,820.7c0,0,0.1,1.5,0.8,2.3"/>
		<path class="st3" d="M163.6,820.7c0,0-0.1,1.5,0.6,2.3"/>
		<path class="st3" d="M167.9,820.7c0,0.1,0.2,1.5,0,2.1"/>
		<path class="st3" d="M172.5,821.1c-0.1,0.4-0.3,1.2-0.7,1.7"/>
	</g>
	<g>
		<path class="st5" d="M544.9,802.9h-5c-0.6,0-1.1,0-1.6-0.1c-1.4-0.2-2.7-0.7-3.9-1.4l0.4,3l0,0.3c0.3,2.7,2.7,4.8,5.4,4.8h4.5
			c2.7,0,5.1-2,5.4-4.8l0.4-3.3C548.9,802.3,547,802.9,544.9,802.9z"/>
		<path class="st3" d="M545,786.1c0-4.9,3.5-8.9,8-9.8c-1.6-4.1-5.7-7-10.3-7h-0.7c-0.9,0-1.7,0.1-2.5,0.3c1.7,1.2,2.8,3.3,2.8,5.5
			c0,3.8-3.1,6.9-6.9,6.9c-1.8,0-3.4-0.7-4.7-1.8l-1.8,9.6c-0.1,0.6-0.2,1.3-0.2,1.9c1.3-1.1,2.9-1.7,4.7-1.7c4,0,7.3,3.3,7.3,7.3
			c0,2.2-1,4.2-2.5,5.5c0.5,0.1,1.1,0.1,1.6,0.1h5c2,0,3.9-0.6,5.6-1.5c2.1-1.2,3.7-3.1,4.6-5.3c0,0-0.1,0-0.1,0
			C549.5,796.1,545,791.6,545,786.1z"/>
		<path class="st0" d="M542.4,775.1c0-2.3-1.1-4.3-2.8-5.5c-4.2,1-7.5,4.3-8.4,8.7l-0.3,1.8c1.2,1.1,2.9,1.8,4.7,1.8
			C539.3,782,542.4,778.9,542.4,775.1z"/>
		<path class="st0" d="M555.8,789.8l-2.1-11.5c-0.1-0.7-0.3-1.4-0.6-2.1c-4.6,0.9-8,5-8,9.8c0,5.5,4.5,10,10,10c0,0,0.1,0,0.1,0
			C555.9,794.2,556.2,792,555.8,789.8z"/>
		<path class="st0" d="M534.4,801.4c1.2,0.7,2.5,1.2,3.9,1.4c1.6-1.3,2.5-3.3,2.5-5.5c0-4-3.3-7.3-7.3-7.3c-1.8,0-3.4,0.7-4.7,1.7
			C528.8,795.7,531,799.4,534.4,801.4z"/>
	</g>
	<g>
		<path class="st5" d="M481.9,821.2c0,0-0.8,6.3,2.1,10c4,5,19.4,5,24.3-0.7c1.9-2.1,2.1-6,0.8-11.6L481.9,821.2z"/>
		<path class="st2" d="M488.6,827.8c0,0,0.1,2.6,2,3.8"/>
		<path class="st2" d="M493.5,827.8c0,0-0.2,2.5,0.5,3.5"/>
		<path class="st2" d="M497.7,827.8c0,0,0.5,2.5-0.5,3.5"/>
		<path class="st2" d="M501.5,827.8c0,0,0.2,2-0.7,3"/>
		<path class="st2" d="M505.3,827.8c0,0,0.1,1.5-0.9,2.7"/>
		<g>
			<path class="st3" d="M514,806.7c-0.6-22.1-9.7-37.1-20.3-36.6c-2.2,0.1-4.1,0.8-5.9,1.8c1.3,1.4,2,3.3,2,5.3
				c0,4.4-3.5,7.9-7.9,7.9c-1.3,0-2.5-0.3-3.6-0.9c-3.9,9.2-5.5,20.8-5.3,28.5c0.1,3.9,2.5,7.3,6.1,8.6c10.6,3.8,20.3,2.3,26.7,0.3
				c-0.3-1.1-0.5-2.3-0.5-3.5C505.3,812.8,509,808.2,514,806.7z"/>
			<path class="st0" d="M489.9,777.3c0-2-0.8-3.9-2-5.3c-4.1,2.4-7.2,6.9-9.5,12.4c1.1,0.6,2.3,0.9,3.6,0.9
				C486.3,785.2,489.9,781.7,489.9,777.3z"/>
			<path class="st0" d="M514,812.7c0.1-2.1,0.1-4.1,0-6c-5,1.4-8.7,6-8.7,11.5c0,1.2,0.2,2.4,0.5,3.5c0.7-0.2,1.4-0.4,2-0.7
				C511.4,819.8,513.8,816.5,514,812.7z"/>
		</g>
		
			<ellipse transform="matrix(0.9827 -0.1853 0.1853 0.9827 -137.9545 106.7164)" class="st0" cx="502" cy="791.5" rx="6.2" ry="9.5"/>
		
			<ellipse transform="matrix(0.9286 -0.3712 0.3712 0.9286 -265.5926 238.9817)" class="st0" cx="488.1" cy="809.5" rx="8" ry="9.9"/>
	</g>
	<g>
		<path class="st5" d="M559.5,798.5l0.5,1.4c0.6,1.7,2.3,2.7,4.1,2.4l2.1-0.4c1.7-0.3,2.9-1.8,2.8-3.6l0-1.6L559.5,798.5z"/>
		<g>
			<path class="st3" d="M565.8,783c0.2-1.4,0.8-2.5,1.8-3.3c-1.5-1.9-3.4-3.2-5.4-3.5c0.3,0.5,0.4,1.1,0.3,1.7
				c-0.2,1.6-1.7,2.8-3.3,2.6c-1.4-0.2-2.4-1.2-2.6-2.6c-2.4,2.3-3.1,6.4-2.9,10.3c1.4-0.9,3-1.3,4.8-1.1c4.1,0.5,7.1,4.2,6.6,8.3
				c-0.1,1.3-0.6,2.4-1.3,3.4c3.8-0.5,7.4-2.8,7.5-7.2c0-1.1,0-2.2-0.2-3.2c-0.3,0-0.7,0-1,0C567.5,788.1,565.5,785.7,565.8,783z"/>
			<path class="st0" d="M558.5,787.1c-1.7-0.2-3.4,0.2-4.8,1.1c0.1,2.6,0.7,5.2,1.5,7.1c1.2,2.7,5,4,8.6,3.5c0.7-1,1.1-2.1,1.3-3.4
				C565.6,791.3,562.6,787.6,558.5,787.1z"/>
			<path class="st0" d="M559.3,780.5c1.6,0.2,3.1-1,3.3-2.6c0.1-0.6-0.1-1.2-0.3-1.7c-1-0.2-1.9-0.1-2.9,0.1
				c-1.1,0.3-1.9,0.9-2.7,1.6C556.8,779.2,557.9,780.3,559.3,780.5z"/>
			<path class="st0" d="M567.6,779.6c-1,0.8-1.7,2-1.8,3.3c-0.3,2.7,1.6,5.2,4.4,5.5c0.3,0,0.7,0,1,0
				C570.7,784.9,569.4,781.8,567.6,779.6z"/>
		</g>
	</g>
	<g>
		<path class="st5" d="M304.8,663.3c0,0-0.3,4.3,3,5.9c3.3,1.6,12.9,1.7,11.8-6L304.8,663.3z"/>
		<g>
			<path class="st3" d="M315.6,649c0-2.2,1.7-4.1,3.8-4.4c-1.8-2.8-4.3-4.9-7.8-4.8c-0.8,0-1.5,0.2-2.2,0.4c0.9,0.9,1.5,2.1,1.5,3.5
				c0,2.6-2.1,4.8-4.8,4.8c-1.5,0-2.8-0.7-3.7-1.8c-2.7,5.2-3.1,12-0.7,14.6c2,2.2,4.9,2.6,9.2,2.6c5.5,0.1,10.5,0.1,11.9-3.9
				c0.4-1.2,0.3-4-0.3-7.3c-0.7,0.5-1.6,0.8-2.5,0.8C317.6,653.5,315.6,651.5,315.6,649z M310.4,660.2c-2.3,0-4.2-1.9-4.2-4.2
				s1.9-4.2,4.2-4.2s4.2,1.9,4.2,4.2S312.7,660.2,310.4,660.2z"/>
			
				<ellipse transform="matrix(0.7071 -0.7071 0.7071 0.7071 -372.9968 411.6593)" class="st0" cx="310.4" cy="656.1" rx="4.2" ry="4.2"/>
			<path class="st0" d="M315.6,649c0,2.5,2,4.5,4.5,4.5c0.9,0,1.8-0.3,2.5-0.8c-0.6-2.7-1.6-5.7-3.1-8.1
				C317.3,644.9,315.6,646.8,315.6,649z"/>
			<path class="st0" d="M306.3,648.5c2.6,0,4.8-2.1,4.8-4.8c0-1.4-0.6-2.6-1.5-3.5c-3,0.9-5.4,3.5-7,6.5
				C303.4,647.8,304.8,648.5,306.3,648.5z"/>
		</g>
		<path class="st3" d="M307.9,666.8c0,0,0.1,1,0.5,1.4"/>
		<path class="st3" d="M309.9,666.8c0,0,0,0.9,0.4,1.4"/>
		<path class="st3" d="M312.5,666.8c0,0.1,0.1,0.9,0,1.3"/>
		<path class="st3" d="M315.4,667c0,0.3-0.2,0.8-0.5,1.1"/>
	</g>
	<g>
		<g>
			<g>
				<path class="st7" d="M466.8,637.1c-0.7-2.3-1.4-5-1.9-8l-7.5-0.5c0,0-0.5,3.6-0.7,7.5C458.9,636.8,463.5,637.9,466.8,637.1z"/>
				<path class="st0" d="M469.4,643.7c-0.6-1.4-1.6-3.6-2.6-6.6c-3.3,0.7-7.9-0.4-10.1-1c-0.2,3.6-0.2,7.5,0.7,9
					c1.8,3.1,7.4,11.3,9.5,11.5S470.5,646.2,469.4,643.7z"/>
			</g>
			<g>
				<path class="st7" d="M443.4,633.4l-0.9-5.6l-11-0.6l0.8,6.3C434.3,634.2,438,635,443.4,633.4z"/>
				<path class="st0" d="M444.9,642.6l-1.5-9.2c-5.5,1.6-9.1,0.8-11.1,0.1l0.1,0.9c0,0-14.3,9-12.7,11.4c1.3,2,17.3,0.1,23.3-0.7
					C444.2,645,445.1,643.8,444.9,642.6z"/>
			</g>
			<circle class="st3" cx="431.5" cy="638.1" r="0.9"/>
			<circle class="st3" cx="428.2" cy="640.4" r="0.9"/>
			<circle class="st3" cx="464.7" cy="641.7" r="0.9"/>
			<circle class="st3" cx="466.5" cy="646.8" r="0.9"/>
			<path class="st1" d="M475.7,528.8c-0.8-3.5-1.6-6.8-2.3-9.8c0,0-26.1-10.2-46.7,1.7c0,0-0.4,3.5-1.1,9.2
				C432.6,528.6,454.6,525.4,475.7,528.8z"/>
			<path class="st4" d="M475.7,528.8c-21.1-3.4-43.1-0.2-50.1,1c-2.4,20.9-8.2,72.1-9.2,94.5c-0.1,1.8,1.2,3.3,2.9,3.6
				c9,1.6,37.6,5.6,72.9,1.3c2-0.2,3.4-2.1,3-4.1C492.6,611.3,483.3,561.9,475.7,528.8z"/>
		</g>
		<ellipse class="st7" cx="442.9" cy="411.9" rx="15" ry="17.7"/>
		<path class="st0" d="M440.1,386.6c0,0,7.5-7.3,14.7-3.3c9.7,5.4,2.9,17.7,8.6,20.9c4.6,2.5,4.7,4.8,7.2,10.4
			c2.5,5.6,5.9,3.8,6.1,8.2c0.1,2.5-0.7,4.9-11.1,3.9c-10.4-0.9-16.7-2-16.9-10.4s0.3-22.2-14.2-19.2c-5.9,4.3-11.1,18.7-0.4,29.3
			c0,0-3.1,0.3-5.9,2.7c-2.7,2.4-6.8,1.6-7.7-1.5c-0.9-3.1-5.4-3-5.2-8c0.2-5,7.6-4,7.2-14.8C422.1,393.2,428.5,385.6,440.1,386.6z"
			/>
		<path class="st0" d="M436.6,442.2c0,0-8,40.8-9.9,78.4c0,0,25.7-5.7,46.7-1.7c0,0-7.5-56-17-77.5
			C456.4,441.4,445.7,437.6,436.6,442.2z"/>
		<path class="st0" d="M456.1,465.3c0,0,4.4,12.8,4.3,23c0,0-6.4,9-13,15.1c0,0,0.1,1.1,0.2,2.9c0.3,2.6,0.8,6.8,1.7,11.4
			c0.4,1.8,0.8,3.7,1.3,5.6c2.6,9.9,4.7,12.3,12.1,7.6c7.4-4.8,12.5-11.2,17.3-23.2c0,0-6.1-36.8-13.8-46"/>
		<path class="st5" d="M435.1,450.7c0,0,3.8,0.3,1.7,3.7c0,0,4,2.3,0.6,5.9c0,0,3.5,2,1.9,4.9c-1.5,2.7-5.4,2.4-6.6,0
			C431.5,462.7,435.1,450.7,435.1,450.7z"/>
		<path class="st5" d="M429.4,489.2c0,0,7.6-2.2,9,0.8c1.4,2.9-2.3,3.7-2.3,3.7s5.6,1.1,5.1,3.7c-0.5,2.6-6.3,1.7-6.3,1.7
			s5.9,5.8,1.7,8.1c-4.1,2.2-7.1-6.8-7.1-6.8S425.1,495.4,429.4,489.2z"/>
		<path class="st0" d="M425.1,534.7c0,0,1.6,5,6.1,7.2c4.8,2.3,8-0.1,7.1-3.9c-0.9-3.7-5.1-5.9-5.1-5.9s2.6-4.3-0.8-3.3
			C432.5,528.8,427,529.9,425.1,534.7z"/>
		<path class="st0" d="M435.1,450.7c0,0-18.9,48.3-18.8,61c0.2,12.8,3.8,27.6,6.7,24.7c2.9-2.9,12.6-8.6,12.4-12.2
			c-0.2-3.6-5.8-21.6-6.6-30C428.9,494.2,437.6,481,435.1,450.7z"/>
		<path class="st7" d="M439.7,442.6c0,0,2.5,11.8,3.2,21.7c0,0,5.1-11,4.5-21.3C447.4,443.1,443.3,440.5,439.7,442.6z"/>
		<circle class="st5" cx="443.9" cy="446.5" r="1.1"/>
		<circle class="st5" cx="443.9" cy="450.7" r="1.1"/>
		<path class="st2" d="M408.6,588.5c0,0-12.1,11.2-16.4,52"/>
		<path class="st2" d="M428.2,595.6c0,0,1.9,23-10.2,52.1"/>
		<path class="st2" d="M412.2,589.8c0,0-13.4,25.1-14.1,51.9"/>
		<path class="st2" d="M417.2,591.7c0,0-10.3,24.1-13.2,50.9"/>
		<path class="st2" d="M424.3,594.3c0,0-0.6,31.7-11.1,50.9"/>
		<path class="st2" d="M421,593.1c0,0-4.1,31-12.4,50.1"/>
		<path class="st4" d="M410,650.6c0,0,3.2,11.3,14.3,10.6C424.3,661.2,422.3,649,410,650.6z"/>
		<path class="st4" d="M428.7,652.1c0,0,5.9,3.4,11.8-0.5C440.5,651.6,434.4,647,428.7,652.1z"/>
		<path class="st4" d="M438,657.4c0,0,6,6,11.4,2C449.4,659.4,446.5,654.2,438,657.4z"/>
		<path class="st5" d="M443.6,480.7c0,0-5-4.7-3.9-7.6c1.1-2.9,5.8,0.9,5.8,0.9s-2.9-4,0-5.6c2.9-1.6,7.4,4.4,5.9,11
			c-1.6,6.6-10.7,10.3-11.9,6.2C438.4,481.5,443.6,480.7,443.6,480.7z"/>
		<path class="st2" d="M460.4,488.3c0,0,2.2-3.3,2.7-4.4"/>
		<line class="st2" x1="449.2" y1="540.7" x2="449.2" y2="545.5"/>
		<line class="st2" x1="467.4" y1="537.8" x2="467.9" y2="541.7"/>
		<line class="st2" x1="460.1" y1="547.7" x2="460.1" y2="552.6"/>
		<line class="st2" x1="441.6" y1="551.8" x2="441.6" y2="556.5"/>
		<line class="st2" x1="434.4" y1="565.4" x2="434.4" y2="569.2"/>
		<line class="st2" x1="451.5" y1="566.5" x2="451.5" y2="570.5"/>
		<line class="st2" x1="468.8" y1="567.3" x2="468.8" y2="571.2"/>
		<line class="st2" x1="443.3" y1="577.8" x2="443.3" y2="581.3"/>
		<line class="st2" x1="436.7" y1="583.7" x2="436.7" y2="587.2"/>
		<line class="st2" x1="437.6" y1="603.8" x2="437.6" y2="607.8"/>
		<line class="st2" x1="452.5" y1="597.6" x2="452.5" y2="601.1"/>
		<line class="st2" x1="462.4" y1="579.6" x2="462.4" y2="583.1"/>
		<line class="st2" x1="469.6" y1="589.8" x2="469.6" y2="593.1"/>
		<line class="st2" x1="478" y1="583.7" x2="478" y2="587.2"/>
		<line class="st2" x1="478" y1="602.7" x2="478" y2="605.8"/>
		<line class="st2" x1="465.6" y1="612.7" x2="465.6" y2="616.4"/>
		<line class="st2" x1="447.5" y1="618.2" x2="447.5" y2="621.7"/>
		<path class="st3" d="M450,442.9c0,0,8.7,10.2,12.3,26.7c3.6,16.5,8.2,41.1,21.2,48.9l18.2-12.1c0,0-14.5-8.2-23.8-31.2
			c-9.3-23-13.3-34.2-19.2-37C457.9,438.6,450,442.9,450,442.9z"/>
		<path class="st1" d="M463.6,433.1l3.8,1.1c0,0-30.2,109-41.5,142.8c0,0,5.9,4.3,3.4,17.5c-0.2,0.8-1,1.3-1.8,1l-19-7.1
			c-0.7-0.3-1.1-1.1-0.8-1.8c1.2-2.8,4.9-9.3,12.8-11.3L463.6,433.1z"/>
		<path class="st3" d="M436.1,425.1c-1.7,0.4-3.9,1.1-3.9,5.9c0,4.9,0.5,10.2,4.4,11.1c3.9,0.9,18.6,2.2,21.3-2.1
			c2.7-4.3,2.4-14.9-2.1-15.7C451,423.6,441.9,423.7,436.1,425.1z"/>
		<g>
			
				<ellipse transform="matrix(0.9947 -0.1031 0.1031 0.9947 -40.5539 46.8075)" class="st2" cx="432.4" cy="415.6" rx="4.9" ry="8.6"/>
			
				<ellipse transform="matrix(0.9947 -0.1031 0.1031 0.9947 -40.369 47.991)" class="st2" cx="443.9" cy="414.4" rx="4.9" ry="8.6"/>
			<line class="st2" x1="437.4" y1="416.4" x2="439.3" y2="416.4"/>
			<ellipse transform="matrix(0.9947 -0.1031 0.1031 0.9947 -40.6873 46.9697)" cx="433.9" cy="417" rx="1" ry="2.1"/>
			<ellipse transform="matrix(0.9947 -0.1031 0.1031 0.9947 -40.5574 47.8017)" cx="442" cy="416.1" rx="1" ry="2.1"/>
		</g>
		<g>
			<path class="st0" d="M447.7,506.3c0,0-5.5,0-8.9,2.2c-3.2,2.1,1.1,2.9,1.1,2.9s-6.8,2.4-6.1,6.5c0.7,4.1,9.7,3.4,15.5-0.2
				C448.5,513.1,448,508.9,447.7,506.3L447.7,506.3z"/>
		</g>
	</g>
	<g>
		<g>
			<g>
				<g>
					<g>
						<g>
							<g>
								<path class="st6" d="M422.2,800.6c-0.5-9.5,4.5-12.7,7.4-13.8c-2-1.8-4.1-4.1-6.3-7.3c-8-11.4-18.7-4.1-18.7-4.1
									c-22.1,4.3-19,22.8-19,22.8s20.3,34.1,35.8,29.2C415.2,819.4,422.9,813,422.2,800.6z"/>
								<path class="st2" d="M422.2,800.6c-0.5-9.5,4.5-12.7,7.4-13.8c-2-1.8-4.1-4.1-6.3-7.3c-8-11.4-18.7-4.1-18.7-4.1
									c-22.1,4.3-19,22.8-19,22.8s20.3,34.1,35.8,29.2C415.2,819.4,422.9,813,422.2,800.6z"/>
							</g>
							<g>
								<path class="st6" d="M440.4,802.2c0-8.8-4.5-9.6-10.7-15.4c-2.9,1.1-7.9,4.3-7.4,13.8c0.6,12.4-7,18.8-0.9,26.9
									c0.2-0.1,0.4-0.1,0.6-0.2C437.1,821.6,440.4,810.9,440.4,802.2z"/>
								<path class="st2" d="M440.4,802.2c0-8.8-4.5-9.6-10.7-15.4c-2.9,1.1-7.9,4.3-7.4,13.8c0.6,12.4-7,18.8-0.9,26.9
									c0.2-0.1,0.4-0.1,0.6-0.2C437.1,821.6,440.4,810.9,440.4,802.2z"/>
							</g>
						</g>
						<path class="st3" d="M382.5,805.9c-1.3,6.4,0.2,16.9,15.2,21.1c19.8,5.6,27.4,0.2,30.8-6.1s5.1-15.5,0-19.9
							c-5.1-4.4-6.9-7.5-9-11.9c-3.3-7-14.2-12-25-5.1C385.6,789.5,383.5,800.7,382.5,805.9z"/>
					</g>
				</g>
			</g>
			<path class="st3" d="M401.3,828c0,0-4-16.3,1.1-27.4"/>
		</g>
		<g>
			<g>
				<g>
					<g>
						<g>
							<g>
								<path class="st6" d="M337.2,794.2c-0.5-9.5,4.5-12.7,7.4-13.8c-2-1.8-4.1-4.1-6.3-7.3c-8-11.4-18.7-4.1-18.7-4.1
									c-22.1,4.3-19,22.8-19,22.8s20.3,34.1,35.8,29.2C330.2,813,337.9,806.7,337.2,794.2z"/>
								<path class="st2" d="M337.2,794.2c-0.5-9.5,4.5-12.7,7.4-13.8c-2-1.8-4.1-4.1-6.3-7.3c-8-11.4-18.7-4.1-18.7-4.1
									c-22.1,4.3-19,22.8-19,22.8s20.3,34.1,35.8,29.2C330.2,813,337.9,806.7,337.2,794.2z"/>
							</g>
							<g>
								<path class="st6" d="M355.4,795.8c0-8.8-4.5-9.6-10.7-15.4c-2.9,1.1-7.9,4.3-7.4,13.8c0.6,12.4-7,18.8-0.9,26.9
									c0.2-0.1,0.4-0.1,0.6-0.2C352.1,815.2,355.4,804.5,355.4,795.8z"/>
								<path class="st2" d="M355.4,795.8c0-8.8-4.5-9.6-10.7-15.4c-2.9,1.1-7.9,4.3-7.4,13.8c0.6,12.4-7,18.8-0.9,26.9
									c0.2-0.1,0.4-0.1,0.6-0.2C352.1,815.2,355.4,804.5,355.4,795.8z"/>
							</g>
						</g>
						<path class="st3" d="M297.5,799.5c-1.3,6.4,0.2,16.9,15.2,21.1c19.8,5.6,27.4,0.2,30.8-6.1c3.4-6.3,5.1-15.5,0-19.9
							c-5.1-4.4-6.9-7.5-9-11.9c-3.3-7-14.2-12-25-5.1C300.5,783.1,298.5,794.4,297.5,799.5z"/>
					</g>
				</g>
			</g>
			<path class="st3" d="M316.3,821.6c0,0-4-16.3,1.1-27.4"/>
		</g>
		<g>
			<g>
				<g>
					<g>
						<g>
							<g>
								<path class="st6" d="M376.6,822.3c-0.5-9.5,4.5-12.7,7.4-13.8c-2-1.8-4.1-4.1-6.3-7.3c-8-11.4-18.7-4.1-18.7-4.1
									c-22.1,4.3-19,22.8-19,22.8s20.3,34.1,35.8,29.2C369.6,841.1,377.2,834.8,376.6,822.3z"/>
								<path class="st2" d="M376.6,822.3c-0.5-9.5,4.5-12.7,7.4-13.8c-2-1.8-4.1-4.1-6.3-7.3c-8-11.4-18.7-4.1-18.7-4.1
									c-22.1,4.3-19,22.8-19,22.8s20.3,34.1,35.8,29.2C369.6,841.1,377.2,834.8,376.6,822.3z"/>
							</g>
							<g>
								<path class="st6" d="M394.7,823.9c0-8.8-4.5-9.6-10.7-15.4c-2.9,1.1-7.9,4.3-7.4,13.8c0.6,12.4-7,18.8-0.9,26.9
									c0.2-0.1,0.4-0.1,0.6-0.2C391.4,843.3,394.7,832.6,394.7,823.9z"/>
								<path class="st2" d="M394.7,823.9c0-8.8-4.5-9.6-10.7-15.4c-2.9,1.1-7.9,4.3-7.4,13.8c0.6,12.4-7,18.8-0.9,26.9
									c0.2-0.1,0.4-0.1,0.6-0.2C391.4,843.3,394.7,832.6,394.7,823.9z"/>
							</g>
						</g>
						<path class="st3" d="M336.8,827.7c-1.3,6.4,0.2,16.9,15.2,21.1c19.8,5.6,27.4,0.2,30.8-6.1c3.4-6.3,5.1-15.5,0-19.9
							c-5.1-4.4-6.9-7.5-9-11.9c-3.3-7-14.2-12-25-5.1C339.9,811.3,337.9,822.5,336.8,827.7z"/>
					</g>
				</g>
			</g>
			<path class="st3" d="M355.7,849.7c0,0-4-16.3,1.1-27.4"/>
		</g>
		<g>
			<g>
				<g>
					<g>
						<g>
							<g>
								<path class="st6" d="M288.9,806.8c-0.5-9.5,4.5-12.7,7.4-13.8c-2-1.8-4.1-4.1-6.3-7.3c-8-11.4-18.7-4.1-18.7-4.1
									c-22.1,4.3-19,22.8-19,22.8s20.3,34.1,35.8,29.2C281.9,825.6,289.5,819.3,288.9,806.8z"/>
								<path class="st2" d="M288.9,806.8c-0.5-9.5,4.5-12.7,7.4-13.8c-2-1.8-4.1-4.1-6.3-7.3c-8-11.4-18.7-4.1-18.7-4.1
									c-22.1,4.3-19,22.8-19,22.8s20.3,34.1,35.8,29.2C281.9,825.6,289.5,819.3,288.9,806.8z"/>
							</g>
							<g>
								<path class="st6" d="M307,808.4c0-8.8-4.5-9.6-10.7-15.4c-2.9,1.1-7.9,4.3-7.4,13.8c0.6,12.4-7,18.8-0.9,26.9
									c0.2-0.1,0.4-0.1,0.6-0.2C303.7,827.8,307,817.1,307,808.4z"/>
								<path class="st2" d="M307,808.4c0-8.8-4.5-9.6-10.7-15.4c-2.9,1.1-7.9,4.3-7.4,13.8c0.6,12.4-7,18.8-0.9,26.9
									c0.2-0.1,0.4-0.1,0.6-0.2C303.7,827.8,307,817.1,307,808.4z"/>
							</g>
						</g>
						<path class="st3" d="M249.1,812.2c-1.3,6.4,0.2,16.9,15.2,21.1c19.8,5.6,27.4,0.2,30.8-6.1c3.4-6.3,5.1-15.5,0-19.9
							c-5.1-4.4-6.9-7.5-9-11.9c-3.3-7-14.2-12-25-5.1C252.2,795.8,250.1,807,249.1,812.2z"/>
					</g>
				</g>
			</g>
			<path class="st3" d="M268,834.2c0,0-4-16.3,1.1-27.4"/>
		</g>
	</g>
</g>
</svg>
