<svg id="圖層_1" data-name="圖層 1" xmlns="http://www.w3.org/2000/svg" viewBox="0 0 7256.69 4081.89"><defs><style>.cls-1{fill:#fff6eb;}.cls-2{font-size:81.41px;stroke:#1a1a1a;stroke-miterlimit:10;stroke-width:0.09px;font-family:Calibri-Bold, Calibri;font-weight:700;}.cls-2,.cls-3{fill:#1a1a1a;}</style></defs><title>LOADING</title><rect class="cls-1" width="7256.69" height="4081.89"/><text class="cls-2" transform="translate(3434.78 2343.2) rotate(-9.74)">I</text><text class="cls-2" transform="translate(3462.04 2338.32) rotate(-7.4)">N</text><text class="cls-2" transform="translate(3521.08 2330.98) rotate(-4.62)">S</text><text class="cls-2" transform="translate(3565.39 2327.51) rotate(-2.21)">E</text><text class="cls-2" transform="matrix(1, 0.01, -0.01, 1, 3610, 2325.79)">A</text><text class="cls-2" transform="translate(3665.23 2326.47) rotate(3.1)">S</text><text class="cls-2" transform="translate(3709.5 2328.8) rotate(5.91)">O</text><text class="cls-2" transform="translate(3770 2335.25) rotate(9.13)">N</text><path class="cls-3" d="M3717.07,1747.75a3.18,3.18,0,0,1,2.36,3.89l-1.69,6.83a3.16,3.16,0,0,1-3.79,2.32,177.67,177.67,0,0,0-33.67-3.87v27.19a188.47,188.47,0,0,1,36.78,4.29,3.19,3.19,0,0,1,2.37,3.9l-1.69,6.81a3.16,3.16,0,0,1-3.79,2.33c-3.24-.73-6.62-1.33-10.06-1.85v21.93c4.5.65,8.93,1.39,13.18,2.35a3.2,3.2,0,0,1,2.36,3.9l-1.69,6.82a3.15,3.15,0,0,1-3.79,2.32c-3.24-.73-6.62-1.32-10.06-1.85v4.61h-.1c-.06,4.33-.13,10.12-.17,14.91-.13,15.27-.45,50.4-32.75,62.49a3.17,3.17,0,0,1-4.09-2.08l-1.93-6.24a3.24,3.24,0,0,1,1.85-4c20.62-8,23.72-28.83,23.92-50.29.07-7.82.22-18.37.26-20.85-17.19-1.34-36.23-.6-56.44,1.94a3.21,3.21,0,0,1-3.58-2.72l-.94-7a3.22,3.22,0,0,1,2.78-3.62c21-2.66,40.42-3.45,58.18-2.13v-21.87c-17.56-1.5-35.64-.79-56.44,1.82a3.2,3.2,0,0,1-3.58-2.71l-.94-7a3.23,3.23,0,0,1,2.78-3.62q17.84-2.25,34.18-2.7v-27.19c-10.39.26-21.25,1.13-32.44,2.54a3.19,3.19,0,0,1-3.58-2.72l-.94-7a3.21,3.21,0,0,1,2.78-3.61,341.53,341.53,0,0,1,34.18-2.7V1726a3.26,3.26,0,0,1,3.26-3.27H3677a3.27,3.27,0,0,1,3.27,3.27v17.51A188.66,188.66,0,0,1,3717.07,1747.75Z"/><path class="cls-3" d="M3713.08,2099.28a2.84,2.84,0,0,1,2.51,2.85l-.31,24.81c.64,47.79-22.3,59.07-33.23,62.81a2.83,2.83,0,0,1-3.62-1.84l-2.26-7.33a2.87,2.87,0,0,1,1.67-3.56c21.75-8.27,24.33-31,24.07-50.07l.2-15.52-9.92-1.19c-38.56-4.62-79.06-4.69-114-.21l-4.31.55a2.86,2.86,0,0,1-3.23-2.84v-93.83a3,3,0,0,1,2.67-3l3.06-.36a501.74,501.74,0,0,1,109-.78l10.69,1.09a3,3,0,0,1,2.72,3v66a3,3,0,0,1-3,3l-11.4-1.15a484.27,484.27,0,0,0-100.32.11v14c34.24-3.7,72.9-3.33,109.77,1.08ZM3685.67,2040l.11-16.92-1.76-.42a488.63,488.63,0,0,0-100.19.11l-.09,17c16.91-1.54,34-2.43,50.69-2.43a505.65,505.65,0,0,1,50.9,2.58Zm-.19,28.89.1-15.87-1.57-.17a484.56,484.56,0,0,0-100.34.19l-.09,15.54c17.31-1.46,34.36-2.29,50.88-2.29A504.51,504.51,0,0,1,3685.48,2068.88Z"/><path class="cls-3" d="M3680.6,2129.91v26.19a3,3,0,0,1-3,3h-.28l-3.8-.34a511.17,511.17,0,0,0-109-.69l-3.94.39a3.07,3.07,0,0,1-2.32-.85,2.93,2.93,0,0,1-.88-2.1v-25.41a3,3,0,0,1,3-3h7a3,3,0,0,1,3,3v14.11c14.37-1,28.41-1.56,42-1.65l.18-18a3,3,0,0,1,3-3h7a3,3,0,0,1,3,3v18.12c14,.27,28,1.06,41.87,2.44l.3-15.13a3,3,0,0,1,3-3h7A3,3,0,0,1,3680.6,2129.91Z"/><path class="cls-3" d="M3672.38,1876.08a3.23,3.23,0,0,1-2.2,4.11L3664,1882a3.29,3.29,0,0,1-4-2.14,58.28,58.28,0,0,0-14.79-23.3,3.24,3.24,0,0,1-.38-4.28l3.84-5.25a3.25,3.25,0,0,1,4.81-.51A71.33,71.33,0,0,1,3672.38,1876.08Z"/><path class="cls-3" d="M3666.68,1984.4a3,3,0,0,1,.63,2.25l-.84,6.69a2.94,2.94,0,0,1-2.94,2.59h-.34a260.82,260.82,0,0,0-57.87,0H3605a3,3,0,0,1-2.95-2.59l-.83-6.69a3,3,0,0,1,2.64-3.37,272.93,272.93,0,0,1,60.83,0A3,3,0,0,1,3666.68,1984.4Z"/><path class="cls-3" d="M3612.77,1811.42v65.12a3.27,3.27,0,0,1-3.54,3.25l-3.52-.29a150.44,150.44,0,0,0-41.06,2l-3.85.74a3.27,3.27,0,0,1-3.87-3.21V1750.89a3.25,3.25,0,0,1,2.53-3.17l2.52-.58c12-1.92,30.94-3.27,45-1.92l2.89.31a3.27,3.27,0,0,1,2.91,3.25Zm-13,52.09v-49.69a151.54,151.54,0,0,0-29.83,1.28v49.48a2.34,2.34,0,0,0,2.7,2.31c7.74-1.19,17.15-1.26,24.82-1.05A2.3,2.3,0,0,0,3599.76,1863.51Zm0-62.68V1760a2.34,2.34,0,0,0-2.26-2.36c-8.35-.2-16.84-.27-25.63,1.23a2.35,2.35,0,0,0-1.94,2.32V1802A129.18,129.18,0,0,1,3599.76,1800.83Z"/></svg>