<svg id="圖層_1" data-name="圖層 1" xmlns="http://www.w3.org/2000/svg" viewBox="0 0 247.24 242.6"><defs><style>.cls-1{fill:#1a1a1a;}</style></defs><title>inseason</title><path class="cls-1" d="M12.45,234.21a.66.66,0,0,1-.09.47,1.13,1.13,0,0,1-.47.4,5,5,0,0,1-1,.35,11.91,11.91,0,0,1-1.55.33,12,12,0,0,1-1.56.17,5.24,5.24,0,0,1-1,0,1.07,1.07,0,0,1-.58-.24.68.68,0,0,1-.23-.41L1.19,205.39a.65.65,0,0,1,.09-.47,1,1,0,0,1,.48-.4,5.3,5.3,0,0,1,1-.36,14.71,14.71,0,0,1,1.53-.32,15.43,15.43,0,0,1,1.57-.18,5.93,5.93,0,0,1,1,0,1.16,1.16,0,0,1,.58.23.66.66,0,0,1,.23.42Z"/><path class="cls-1" d="M49.12,228a2.32,2.32,0,0,1-.08,1,2,2,0,0,1-.44.8,2,2,0,0,1-.73.53,3.22,3.22,0,0,1-.91.24l-2.75.33a5.88,5.88,0,0,1-1.51,0,3.09,3.09,0,0,1-1.23-.49,5.41,5.41,0,0,1-1.16-1.11c-.39-.48-.84-1.1-1.35-1.87l-9.69-13.93c-.57-.83-1.15-1.72-1.75-2.69S26.38,209,25.89,208h-.05q.32,1.75.57,3.51c.17,1.17.33,2.38.48,3.62l2,16.64a.81.81,0,0,1-.08.46,1.11,1.11,0,0,1-.43.39,3.88,3.88,0,0,1-.87.31,10.49,10.49,0,0,1-1.44.25,12.14,12.14,0,0,1-1.44.1,3.58,3.58,0,0,1-.91-.11.92.92,0,0,1-.48-.27.77.77,0,0,1-.17-.43l-3.42-28.59a2.15,2.15,0,0,1,.47-1.81,2.47,2.47,0,0,1,1.59-.78l3.46-.41a6.23,6.23,0,0,1,1.6,0,3.39,3.39,0,0,1,1.2.39,4.19,4.19,0,0,1,1.07.91,13.35,13.35,0,0,1,1.1,1.5l7.59,10.89L39,216.51c.44.64.86,1.28,1.27,1.92l1.2,1.89c.38.62.77,1.24,1.14,1.86h0c-.18-1.14-.36-2.34-.54-3.58s-.32-2.43-.46-3.56l-1.78-14.92a.74.74,0,0,1,.09-.46,1.28,1.28,0,0,1,.45-.4,3.36,3.36,0,0,1,.89-.32c.37-.08.85-.16,1.44-.23s1-.1,1.41-.11a3.1,3.1,0,0,1,.9.1,1.12,1.12,0,0,1,.47.3.78.78,0,0,1,.17.43Z"/><path class="cls-1" d="M78.28,218.46a9.83,9.83,0,0,1-.63,4.49,9.21,9.21,0,0,1-2.32,3.35,11.21,11.21,0,0,1-3.62,2.18,16.15,16.15,0,0,1-4.55,1,17.44,17.44,0,0,1-3.09-.06,16.12,16.12,0,0,1-2.55-.48,11,11,0,0,1-1.87-.67,5,5,0,0,1-1.1-.67,1.84,1.84,0,0,1-.53-.89,9.86,9.86,0,0,1-.26-1.73c0-.51,0-.94,0-1.29a3.73,3.73,0,0,1,.1-.85.92.92,0,0,1,.27-.48.78.78,0,0,1,.42-.17,2.18,2.18,0,0,1,1,.34,15.29,15.29,0,0,0,1.68.79,14.28,14.28,0,0,0,2.42.73,11.23,11.23,0,0,0,3.2.19,7.22,7.22,0,0,0,2.1-.44,4.56,4.56,0,0,0,1.54-.91,3.51,3.51,0,0,0,.91-1.36,4.2,4.2,0,0,0,.23-1.72,3.07,3.07,0,0,0-.73-1.83,5.92,5.92,0,0,0-1.64-1.27,15.07,15.07,0,0,0-2.24-1l-2.57-.95a24.12,24.12,0,0,1-2.59-1.17,10.11,10.11,0,0,1-2.29-1.65,8.5,8.5,0,0,1-1.72-2.37,9.17,9.17,0,0,1-.84-3.39,9.31,9.31,0,0,1,.57-4.1,8.33,8.33,0,0,1,2.1-3,9.58,9.58,0,0,1,3.28-2,14.87,14.87,0,0,1,4.12-.86,15.92,15.92,0,0,1,2.29,0,15.41,15.41,0,0,1,2.15.32,12,12,0,0,1,1.8.54,4.6,4.6,0,0,1,1.06.55,1.55,1.55,0,0,1,.36.4,1.67,1.67,0,0,1,.18.44,4.68,4.68,0,0,1,.14.71c0,.29.07.65.1,1.08s.05.88.05,1.21a3.79,3.79,0,0,1-.07.82,1,1,0,0,1-.21.49.68.68,0,0,1-.42.18,2,2,0,0,1-.89-.29c-.41-.2-.92-.42-1.51-.65a14.42,14.42,0,0,0-2-.6,8.65,8.65,0,0,0-2.52-.15,5.76,5.76,0,0,0-1.84.38,4.13,4.13,0,0,0-1.27.81,2.85,2.85,0,0,0-.71,1.16,3.51,3.51,0,0,0-.16,1.37,3,3,0,0,0,.71,1.8,5.58,5.58,0,0,0,1.65,1.28,18.32,18.32,0,0,0,2.29,1c.85.29,1.72.61,2.6.94a27.44,27.44,0,0,1,2.61,1.17,9.83,9.83,0,0,1,2.33,1.65,8.33,8.33,0,0,1,1.73,2.36A8.7,8.7,0,0,1,78.28,218.46Z"/><path class="cls-1" d="M106.49,224.56a10.82,10.82,0,0,1,0,1.2,3.3,3.3,0,0,1-.16.79,1,1,0,0,1-.3.44.73.73,0,0,1-.4.15l-16.09.46a2,2,0,0,1-1.38-.45,2,2,0,0,1-.61-1.55l-.79-27.92a2,2,0,0,1,.51-1.58,2,2,0,0,1,1.36-.52l16-.46a.71.71,0,0,1,.4.11,1,1,0,0,1,.31.43,3.6,3.6,0,0,1,.2.79,8.91,8.91,0,0,1,.1,1.22,10.66,10.66,0,0,1,0,1.18,2.88,2.88,0,0,1-.16.78,1,1,0,0,1-.29.44.61.61,0,0,1-.39.15l-11.43.32.22,7.82,9.68-.27a.7.7,0,0,1,.41.12,1,1,0,0,1,.32.41,2.9,2.9,0,0,1,.21.77,9,9,0,0,1,.09,1.17,8.84,8.84,0,0,1,0,1.19,3.08,3.08,0,0,1-.17.76.85.85,0,0,1-.3.42.71.71,0,0,1-.4.13l-9.67.28.25,9,11.53-.33a.66.66,0,0,1,.41.12,1,1,0,0,1,.33.43,3.54,3.54,0,0,1,.2.77A9,9,0,0,1,106.49,224.56Z"/><path class="cls-1" d="M141.65,225.06a9.2,9.2,0,0,1,.35,1.42.86.86,0,0,1-.21.77,1.54,1.54,0,0,1-1,.31c-.47,0-1.1,0-1.91,0s-1.5,0-2-.07a5.07,5.07,0,0,1-1.07-.17,1,1,0,0,1-.52-.32,1.87,1.87,0,0,1-.23-.53L133.07,220l-12-.21L118.91,226a1.84,1.84,0,0,1-.27.58,1,1,0,0,1-.53.36,3.82,3.82,0,0,1-1,.17c-.43,0-1,0-1.72,0a17.79,17.79,0,0,1-1.78-.1,1.37,1.37,0,0,1-.88-.38,1,1,0,0,1-.16-.81,8.51,8.51,0,0,1,.39-1.38l10.38-28.24a3,3,0,0,1,.36-.67,1.18,1.18,0,0,1,.64-.38,4.9,4.9,0,0,1,1.2-.16c.51,0,1.19,0,2,0s1.75,0,2.33.08a6.27,6.27,0,0,1,1.34.2,1.24,1.24,0,0,1,.69.42,2.39,2.39,0,0,1,.35.75Zm-14.28-23.75h0l-4.77,13.53,9.09.17Z"/><path class="cls-1" d="M169.36,219.59a9.85,9.85,0,0,1-1.23,4.36,9.07,9.07,0,0,1-2.75,3,11.28,11.28,0,0,1-3.87,1.67,16.06,16.06,0,0,1-4.64.35,16.61,16.61,0,0,1-3.06-.48,17.74,17.74,0,0,1-2.46-.81,11,11,0,0,1-1.77-.92,5,5,0,0,1-1-.81,1.93,1.93,0,0,1-.4-1,8.76,8.76,0,0,1,0-1.75c0-.5.08-.93.13-1.28a3.91,3.91,0,0,1,.22-.83.83.83,0,0,1,.32-.43.68.68,0,0,1,.44-.11,2,2,0,0,1,.95.47,16.07,16.07,0,0,0,1.56,1,14.22,14.22,0,0,0,2.3,1.06,11.36,11.36,0,0,0,3.15.61,7.3,7.3,0,0,0,2.14-.15,4.76,4.76,0,0,0,1.65-.7,3.34,3.34,0,0,0,1.08-1.22,4,4,0,0,0,.46-1.68,3,3,0,0,0-.48-1.9,5.83,5.83,0,0,0-1.45-1.49,15.62,15.62,0,0,0-2.09-1.27l-2.42-1.29a24.15,24.15,0,0,1-2.41-1.5,10.2,10.2,0,0,1-2-2,8.63,8.63,0,0,1-1.39-2.58,9,9,0,0,1-.37-3.47,9.13,9.13,0,0,1,1.11-4,8.32,8.32,0,0,1,2.48-2.75,9.86,9.86,0,0,1,3.52-1.49,14.57,14.57,0,0,1,4.2-.3,14.76,14.76,0,0,1,2.27.32,15.5,15.5,0,0,1,2.09.6,11.44,11.44,0,0,1,1.71.78,4.26,4.26,0,0,1,1,.68,1.73,1.73,0,0,1,.31.45,2,2,0,0,1,.12.46,4.92,4.92,0,0,1,0,.72c0,.29,0,.65,0,1.08s-.06.88-.11,1.21a5.25,5.25,0,0,1-.18.81,1,1,0,0,1-.27.45.66.66,0,0,1-.45.12,2.12,2.12,0,0,1-.84-.4c-.38-.26-.85-.54-1.41-.85a13.82,13.82,0,0,0-1.95-.87,8.6,8.6,0,0,0-2.47-.49,5.79,5.79,0,0,0-1.87.14,3.85,3.85,0,0,0-1.37.63,2.74,2.74,0,0,0-.86,1,3.54,3.54,0,0,0-.35,1.34,3.07,3.07,0,0,0,.46,1.88,5.73,5.73,0,0,0,1.47,1.48,18.33,18.33,0,0,0,2.14,1.28c.8.4,1.61.83,2.45,1.28a25.75,25.75,0,0,1,2.43,1.51,10.42,10.42,0,0,1,2.08,1.95,8.5,8.5,0,0,1,1.4,2.57A8.78,8.78,0,0,1,169.36,219.59Z"/><path class="cls-1" d="M207.84,216.84a23.77,23.77,0,0,1-1.79,7,14.35,14.35,0,0,1-3.53,5,12.66,12.66,0,0,1-5.19,2.78,17.93,17.93,0,0,1-6.76.38,19.69,19.69,0,0,1-6.37-1.71,11.3,11.3,0,0,1-4.27-3.48,12.78,12.78,0,0,1-2.19-5.39,25.65,25.65,0,0,1-.09-7.38,22.93,22.93,0,0,1,1.77-6.84,14.37,14.37,0,0,1,3.53-4.92,12.91,12.91,0,0,1,5.18-2.77,18,18,0,0,1,6.79-.4,19.68,19.68,0,0,1,6.27,1.69,11.35,11.35,0,0,1,4.29,3.48,12.88,12.88,0,0,1,2.23,5.35A24.12,24.12,0,0,1,207.84,216.84Zm-6.83-.42a23.48,23.48,0,0,0,.13-4.61,10,10,0,0,0-.94-3.67,6.39,6.39,0,0,0-2.26-2.55,8.75,8.75,0,0,0-3.85-1.25,8,8,0,0,0-4.08.45,7.23,7.23,0,0,0-2.86,2.1,10,10,0,0,0-1.79,3.35,21.58,21.58,0,0,0-.89,4.19,25.71,25.71,0,0,0-.14,4.73,10.12,10.12,0,0,0,.93,3.71,6.11,6.11,0,0,0,2.25,2.53,8.92,8.92,0,0,0,3.87,1.23,8.22,8.22,0,0,0,4.09-.43,7.22,7.22,0,0,0,2.85-2.12,10.34,10.34,0,0,0,1.8-3.39A22.41,22.41,0,0,0,201,216.42Z"/><path class="cls-1" d="M241.37,236.67a2.62,2.62,0,0,1-.37,1,2.2,2.2,0,0,1-.65.64,1.91,1.91,0,0,1-.85.29,3.28,3.28,0,0,1-.94,0l-2.73-.47a5.2,5.2,0,0,1-1.45-.42,3,3,0,0,1-1-.82,5.35,5.35,0,0,1-.8-1.39,21.18,21.18,0,0,1-.76-2.18l-5.33-16.1c-.31-1-.61-2-.91-3.09s-.55-2.15-.76-3.18h-.05c-.13,1.19-.28,2.36-.45,3.53s-.36,2.37-.57,3.61l-2.82,16.52a.77.77,0,0,1-.21.41,1,1,0,0,1-.52.25,3.64,3.64,0,0,1-.93.06,12.86,12.86,0,0,1-1.45-.18,10.45,10.45,0,0,1-1.4-.31,3.32,3.32,0,0,1-.85-.36,1,1,0,0,1-.38-.4.9.9,0,0,1-.05-.46L220,205.18a2.16,2.16,0,0,1,1-1.61,2.5,2.5,0,0,1,1.74-.29l3.44.59a6.85,6.85,0,0,1,1.54.43,3.34,3.34,0,0,1,1,.72,4.17,4.17,0,0,1,.77,1.17,15,15,0,0,1,.62,1.75l4.18,12.6c.24.76.47,1.5.71,2.24s.45,1.47.66,2.2l.62,2.15c.19.7.38,1.4.56,2.11h0c.14-1.15.31-2.34.5-3.58s.38-2.42.57-3.55l2.53-14.81a.72.72,0,0,1,.22-.41,1.28,1.28,0,0,1,.55-.26,3.36,3.36,0,0,1,.94,0,13.14,13.14,0,0,1,1.45.18q.83.15,1.38.3a3,3,0,0,1,.83.36,1,1,0,0,1,.37.41.83.83,0,0,1,0,.47Z"/><path class="cls-1" d="M236.19,86,212.45,44.91a29,29,0,0,0-47.79-3.46L153.73,22.52A28.79,28.79,0,0,0,128.55,8h0a28.79,28.79,0,0,0-25.18,14.54L100.77,27a36.32,36.32,0,0,0-57.88,6.74L12.23,86.88a36.3,36.3,0,0,0,31.43,54.45h58a24.68,24.68,0,0,0,19.66,9.55h40.07a24.74,24.74,0,0,0,21.65-12.5,25,25,0,0,0,3.12-8.94h24.93A28.94,28.94,0,0,0,236.19,86Zm-53.11,27.35-9-15.57-2-3.42-2-3.48-7.06-12.23a25.13,25.13,0,0,0-7.12-7.88L164.49,56l2.14-3.7,2.11-3.66,0,0a21.53,21.53,0,0,1,37.26,0l23.74,41.12A21.53,21.53,0,0,1,211.13,122h-25A25.16,25.16,0,0,0,183.08,113.38Zm-73.3-87.16a21.67,21.67,0,0,1,37.53,0l12.9,22.34-10.9,18.88a25.34,25.34,0,0,0-7.91-1.26,24.83,24.83,0,0,0-14.33,4.48l-21.3-36.89-.18-.29Zm-6.64,81.21-3.43,5.95a24.69,24.69,0,0,0-2,20.54h-54a28.89,28.89,0,0,1-25-43.33L49.31,37.47a28.89,28.89,0,0,1,47.54-3.66,31.1,31.1,0,0,1,2.33,3.38c0,.09.12.18.17.28l2,3.41L121.56,76a27.55,27.55,0,0,0-1.82,2.73l-12.35,21.39-2.14,3.71Zm73.53,27.25a17.41,17.41,0,0,1-15.24,8.79H121.36a17.52,17.52,0,0,1-9.53-2.78,17.24,17.24,0,0,1-3.72-3.22,17.53,17.53,0,0,1-2-2.79q-.22-.39-.42-.78a17.36,17.36,0,0,1,.42-16.81l5.54-9.61,2.14-3.7,2.14-3.71,9.77-16.93.44-.76A17.91,17.91,0,0,1,128,79.74a17.24,17.24,0,0,1,13.37-6.15,17.87,17.87,0,0,1,4.09.47,17.69,17.69,0,0,1,3.56,1.25,17.36,17.36,0,0,1,7.58,7.07l8,13.93,1.86,3.21,1.86,3.23,8.28,14.34a17.76,17.76,0,0,1,1.94,4.94,17.18,17.18,0,0,1,.44,3.71,17.73,17.73,0,0,1-.37,3.7A18,18,0,0,1,176.67,134.68Z"/></svg>